<!-- Generated by IcoMoon.io -->
<svg version="1.1" xmlns="http://www.w3.org/2000/svg" width="280" height="280" viewBox="0 0 280 280">
<title>mi-align-left</title>
<path fill="#ebebeb" d="M221.667 81.667h-163.333c-7 0-11.667-4.667-11.667-11.667s4.667-11.667 11.667-11.667h163.333c7 0 11.667 4.667 11.667 11.667s-4.667 11.667-11.667 11.667z"></path>
<path fill="#ebebeb" d="M140 128.333h-81.667c-7 0-11.667-4.667-11.667-11.667s4.667-11.667 11.667-11.667h81.667c7 0 11.667 4.667 11.667 11.667s-4.667 11.667-11.667 11.667z"></path>
<path fill="#ebebeb" d="M210 175h-151.667c-7 0-11.667-4.667-11.667-11.667s4.667-11.667 11.667-11.667h151.667c7 0 11.667 4.667 11.667 11.667s-4.667 11.667-11.667 11.667z"></path>
<path fill="#ebebeb" d="M175 221.667h-116.667c-7 0-11.667-4.667-11.667-11.667s4.667-11.667 11.667-11.667h116.667c7 0 11.667 4.667 11.667 11.667s-4.667 11.667-11.667 11.667z"></path>
</svg>
