<!-- Generated by IcoMoon.io -->
<svg version="1.1" xmlns="http://www.w3.org/2000/svg" width="280" height="280" viewBox="0 0 280 280">
<title>mi-bed</title>
<path fill="#ebebeb" d="M268.333 151.667h-163.333c-7 0-11.667-4.667-11.667-11.667v-11.667c0-25.667 21-46.667 46.667-46.667h93.333c25.667 0 46.667 21 46.667 46.667v11.667c0 7-4.667 11.667-11.667 11.667zM116.667 128.333h140c0-12.833-10.5-23.333-23.333-23.333h-93.333c-12.833 0-23.333 10.5-23.333 23.333z"></path>
<path fill="#ebebeb" d="M268.333 198.333h-256.667c-7 0-11.667-4.667-11.667-11.667v-140c0-7 4.667-11.667 11.667-11.667s11.667 4.667 11.667 11.667v128.333h233.333v-35c0-7 4.667-11.667 11.667-11.667s11.667 4.667 11.667 11.667v46.667c0 7-4.667 11.667-11.667 11.667z"></path>
<path fill="#ebebeb" d="M221.667 151.667h-198.333c-7 0-11.667-4.667-11.667-11.667s4.667-11.667 11.667-11.667h198.333c7 0 11.667 4.667 11.667 11.667s-4.667 11.667-11.667 11.667z"></path>
<path fill="#ebebeb" d="M105 151.667h-93.333c-7 0-11.667-4.667-11.667-11.667v-11.667c0-25.667 21-46.667 46.667-46.667h23.333c25.667 0 46.667 21 46.667 46.667v11.667c0 7-4.667 11.667-11.667 11.667zM23.333 128.333h70c0-12.833-10.5-23.333-23.333-23.333h-23.333c-12.833 0-23.333 10.5-23.333 23.333z"></path>
<path fill="#ebebeb" d="M268.333 245h-256.667c-7 0-11.667-4.667-11.667-11.667v-46.667c0-7 4.667-11.667 11.667-11.667h256.667c7 0 11.667 4.667 11.667 11.667v46.667c0 7-4.667 11.667-11.667 11.667zM23.333 221.667h233.333v-23.333h-233.333v23.333z"></path>
</svg>
