<!-- Generated by IcoMoon.io -->
<svg version="1.1" xmlns="http://www.w3.org/2000/svg" width="280" height="280" viewBox="0 0 280 280">
<title>mi-brush</title>
<path fill="#ebebeb" d="M116.667 210c-7 0-11.667-4.667-11.667-11.667 0-3.5-1.167-5.833-1.167-8.167-2.333-5.833-7-10.5-12.833-12.833-16.333-7-32.667 4.667-32.667 21 0 7-4.667 11.667-11.667 11.667s-11.667-4.667-11.667-11.667c0-25.667 21-46.667 46.667-46.667 5.833 0 11.667 1.167 17.5 3.5 11.667 4.667 21 14 25.667 25.667 2.333 4.667 3.5 11.667 3.5 17.5 0 7-5.833 11.667-11.667 11.667z"></path>
<path fill="#ebebeb" d="M11.667 280c-7 0-11.667-4.667-11.667-11.667s4.667-11.667 11.667-11.667c50.167 0 93.333-26.833 93.333-58.333 0-7 4.667-11.667 11.667-11.667s11.667 4.667 11.667 11.667c0 45.5-52.5 81.667-116.667 81.667z"></path>
<path fill="#ebebeb" d="M11.667 280c-7 0-11.667-4.667-11.667-11.667s4.667-11.667 11.667-11.667c9.333 0 23.333-22.167 23.333-58.333 0-7 4.667-11.667 11.667-11.667s11.667 4.667 11.667 11.667c0 46.667-19.833 81.667-46.667 81.667z"></path>
<path fill="#ebebeb" d="M114.333 197.167c-1.167 0-2.333 0-2.333 0-3.5-1.167-7-3.5-8.167-7-2.333-5.833-7-10.5-12.833-12.833-3.5-1.167-5.833-4.667-7-8.167s0-8.167 2.333-10.5l130.667-147c15.167-15.167 38.5-14 51.333 0 8.167 5.833 11.667 15.167 11.667 24.5s-3.5 18.667-10.5 25.667l-148.167 131.833c-2.333 2.333-4.667 3.5-7 3.5zM113.167 163.333c1.167 1.167 2.333 2.333 3.5 3.5l136.5-121.333c2.333-2.333 3.5-5.833 3.5-9.333s-1.167-7-3.5-9.333c-5.833-5.833-14-5.833-18.667 0l-121.333 136.5z"></path>
</svg>
