<!-- Generated by IcoMoon.io -->
<svg version="1.1" xmlns="http://www.w3.org/2000/svg" width="280" height="280" viewBox="0 0 280 280">
<title>mi-building</title>
<path fill="#ebebeb" d="M151.667 280h-140c-7 0-11.667-4.667-11.667-11.667v-256.667c0-7 4.667-11.667 11.667-11.667h140c7 0 11.667 4.667 11.667 11.667v256.667c0 7-4.667 11.667-11.667 11.667zM23.333 256.667h116.667v-233.333h-116.667v233.333z"></path>
<path fill="#ebebeb" d="M268.333 280h-116.667c-7 0-11.667-4.667-11.667-11.667v-186.667c0-7 4.667-11.667 11.667-11.667h116.667c7 0 11.667 4.667 11.667 11.667v186.667c0 7-4.667 11.667-11.667 11.667zM163.333 256.667h93.333v-163.333h-93.333v163.333z"></path>
<path fill="#ebebeb" d="M58.333 186.667c-7 0-11.667-4.667-11.667-11.667v-116.667c0-7 4.667-11.667 11.667-11.667s11.667 4.667 11.667 11.667v116.667c0 7-4.667 11.667-11.667 11.667z"></path>
<path fill="#ebebeb" d="M105 186.667c-7 0-11.667-4.667-11.667-11.667v-116.667c0-7 4.667-11.667 11.667-11.667s11.667 4.667 11.667 11.667v116.667c0 7-4.667 11.667-11.667 11.667z"></path>
<path fill="#ebebeb" d="M233.333 280h-46.667c-7 0-11.667-4.667-11.667-11.667v-46.667c0-7 4.667-11.667 11.667-11.667h46.667c7 0 11.667 4.667 11.667 11.667v46.667c0 7-4.667 11.667-11.667 11.667zM198.333 256.667h23.333v-23.333h-23.333v23.333z"></path>
<path fill="#ebebeb" d="M105 280h-46.667c-7 0-11.667-4.667-11.667-11.667v-46.667c0-7 4.667-11.667 11.667-11.667h46.667c7 0 11.667 4.667 11.667 11.667v46.667c0 7-4.667 11.667-11.667 11.667zM70 256.667h23.333v-23.333h-23.333v23.333z"></path>
<path fill="#ebebeb" d="M233.333 186.667h-46.667c-7 0-11.667-4.667-11.667-11.667s4.667-11.667 11.667-11.667h46.667c7 0 11.667 4.667 11.667 11.667s-4.667 11.667-11.667 11.667z"></path>
<path fill="#ebebeb" d="M233.333 140h-46.667c-7 0-11.667-4.667-11.667-11.667s4.667-11.667 11.667-11.667h46.667c7 0 11.667 4.667 11.667 11.667s-4.667 11.667-11.667 11.667z"></path>
</svg>
