<!-- Generated by IcoMoon.io -->
<svg version="1.1" xmlns="http://www.w3.org/2000/svg" width="280" height="280" viewBox="0 0 280 280">
<title>mi-cup</title>
<path fill="#ebebeb" d="M163.333 198.333h-46.667c-38.5 0-70-31.5-70-70v-81.667c0-7 4.667-11.667 11.667-11.667h163.333c7 0 11.667 4.667 11.667 11.667v81.667c0 38.5-31.5 70-70 70zM70 58.333v70c0 25.667 21 46.667 46.667 46.667h46.667c25.667 0 46.667-21 46.667-46.667v-70h-140z"></path>
<path fill="#ebebeb" d="M221.667 245h-163.333c-7 0-11.667-4.667-11.667-11.667s4.667-11.667 11.667-11.667h163.333c7 0 11.667 4.667 11.667 11.667s-4.667 11.667-11.667 11.667z"></path>
<path fill="#ebebeb" d="M227.5 134.167h-5.833c-7 0-11.667-4.667-11.667-11.667v-75.833c0-7 4.667-11.667 11.667-11.667h23.333c19.833 0 35 15.167 35 35v11.667c0 29.167-23.333 52.5-52.5 52.5zM233.333 58.333v51.333c12.833-2.333 23.333-14 23.333-28v-11.667c0-7-4.667-11.667-11.667-11.667h-11.667z"></path>
</svg>
