<!-- Generated by IcoMoon.io -->
<svg version="1.1" xmlns="http://www.w3.org/2000/svg" width="280" height="280" viewBox="0 0 280 280">
<title>mi-desktop</title>
<path fill="#ebebeb" d="M235.667 233.333h-191.333c-24.5 0-44.333-19.833-44.333-44.333v-144.667c0-24.5 19.833-44.333 44.333-44.333h190.167c25.667 0 45.5 19.833 45.5 44.333v143.5c0 25.667-19.833 45.5-44.333 45.5zM44.333 23.333c-11.667 0-21 9.333-21 21v143.5c0 11.667 9.333 21 21 21h190.167c11.667 0 21-9.333 21-21v-143.5c0-11.667-9.333-21-21-21h-190.167z"></path>
<path fill="#ebebeb" d="M11.667 163.333h256.667v23.333h-256.667v-23.333z"></path>
<path fill="#ebebeb" d="M186.667 280h-93.333c-7 0-11.667-4.667-11.667-11.667s4.667-11.667 11.667-11.667h93.333c7 0 11.667 4.667 11.667 11.667s-4.667 11.667-11.667 11.667z"></path>
<path fill="#ebebeb" d="M93.333 280c-7 0-11.667-4.667-11.667-11.667s4.667-11.667 11.667-11.667c2.333 0 11.667-11.667 11.667-35 0-7 4.667-11.667 11.667-11.667s11.667 4.667 11.667 11.667c0 33.833-15.167 58.333-35 58.333z"></path>
<path fill="#ebebeb" d="M186.667 280c-19.833 0-35-24.5-35-58.333 0-7 4.667-11.667 11.667-11.667s11.667 4.667 11.667 11.667c0 23.333 9.333 35 11.667 35 7 0 11.667 4.667 11.667 11.667s-4.667 11.667-11.667 11.667z"></path>
</svg>
