<!-- Generated by IcoMoon.io -->
<svg version="1.1" xmlns="http://www.w3.org/2000/svg" width="280" height="280" viewBox="0 0 280 280">
<title>mi-drawer</title>
<path fill="#ebebeb" d="M245 280h-210c-7 0-11.667-4.667-11.667-11.667v-128.333c0-7 4.667-11.667 11.667-11.667h210c7 0 11.667 4.667 11.667 11.667v128.333c0 7-4.667 11.667-11.667 11.667zM46.667 256.667h186.667v-105h-186.667v105z"></path>
<path fill="#ebebeb" d="M163.333 198.333h-46.667c-7 0-11.667-4.667-11.667-11.667s4.667-11.667 11.667-11.667h46.667c7 0 11.667 4.667 11.667 11.667s-4.667 11.667-11.667 11.667z"></path>
<path fill="#ebebeb" d="M245 151.667h-210c-7 0-11.667-4.667-11.667-11.667v-128.333c0-7 4.667-11.667 11.667-11.667h210c7 0 11.667 4.667 11.667 11.667v128.333c0 7-4.667 11.667-11.667 11.667zM46.667 128.333h186.667v-105h-186.667v105z"></path>
<path fill="#ebebeb" d="M163.333 70h-46.667c-7 0-11.667-4.667-11.667-11.667s4.667-11.667 11.667-11.667h46.667c7 0 11.667 4.667 11.667 11.667s-4.667 11.667-11.667 11.667z"></path>
</svg>
