<!-- Generated by IcoMoon.io -->
<svg version="1.1" xmlns="http://www.w3.org/2000/svg" width="280" height="280" viewBox="0 0 280 280">
<title>mi-eject</title>
<path fill="#ebebeb" d="M210 186.667h-140c-4.667 0-8.167-2.333-10.5-5.833s-2.333-8.167 0-11.667l70-105c4.667-7 15.167-7 19.833 0l70 105c2.333 3.5 2.333 8.167 0 11.667s-4.667 5.833-9.333 5.833zM92.167 163.333h96.833l-49-72.333-47.833 72.333z"></path>
<path fill="#ebebeb" d="M210 221.667h-140c-7 0-11.667-4.667-11.667-11.667s4.667-11.667 11.667-11.667h140c7 0 11.667 4.667 11.667 11.667s-4.667 11.667-11.667 11.667z"></path>
</svg>
