<!-- Generated by IcoMoon.io -->
<svg version="1.1" xmlns="http://www.w3.org/2000/svg" width="280" height="280" viewBox="0 0 280 280">
<title>mi-external</title>
<path fill="#ebebeb" d="M210 256.667h-163.333c-25.667 0-46.667-21-46.667-46.667v-116.667c0-25.667 21-46.667 46.667-46.667h128.333c7 0 11.667 4.667 11.667 11.667s-4.667 11.667-11.667 11.667h-128.333c-12.833 0-23.333 10.5-23.333 23.333v116.667c0 12.833 10.5 23.333 23.333 23.333h163.333c12.833 0 23.333-10.5 23.333-23.333v-81.667c0-7 4.667-11.667 11.667-11.667s11.667 4.667 11.667 11.667v81.667c0 25.667-21 46.667-46.667 46.667z"></path>
<path fill="#ebebeb" d="M175 140c-3.5 0-5.833-1.167-8.167-3.5-4.667-4.667-4.667-11.667 0-16.333l93.333-93.333c4.667-4.667 11.667-4.667 16.333 0s4.667 11.667 0 16.333l-93.333 93.333c-2.333 2.333-4.667 3.5-8.167 3.5z"></path>
<path fill="#ebebeb" d="M268.333 46.667h-46.667c-7 0-11.667-4.667-11.667-11.667s4.667-11.667 11.667-11.667h46.667c7 0 11.667 4.667 11.667 11.667s-4.667 11.667-11.667 11.667z"></path>
<path fill="#ebebeb" d="M268.333 93.333c-7 0-11.667-4.667-11.667-11.667v-46.667c0-7 4.667-11.667 11.667-11.667s11.667 4.667 11.667 11.667v46.667c0 7-4.667 11.667-11.667 11.667z"></path>
</svg>
