<!-- Generated by IcoMoon.io -->
<svg version="1.1" xmlns="http://www.w3.org/2000/svg" width="280" height="280" viewBox="0 0 280 280">
<title>mi-floppy</title>
<path fill="#ebebeb" d="M268.333 280h-210c-3.5 0-5.833-1.167-8.167-3.5l-46.667-46.667c-2.333-2.333-3.5-4.667-3.5-8.167v-210c0-7 4.667-11.667 11.667-11.667h256.667c7 0 11.667 4.667 11.667 11.667v256.667c0 7-4.667 11.667-11.667 11.667zM63 256.667h193.667v-233.333h-233.333v193.667l39.667 39.667z"></path>
<path fill="#ebebeb" d="M210 280h-140c-7 0-11.667-4.667-11.667-11.667v-81.667c0-7 4.667-11.667 11.667-11.667h140c7 0 11.667 4.667 11.667 11.667v81.667c0 7-4.667 11.667-11.667 11.667zM81.667 256.667h116.667v-58.333h-116.667v58.333z"></path>
<path fill="#ebebeb" d="M93.333 233.333h35v46.667h-35v-46.667z"></path>
<path fill="#ebebeb" d="M140 280h-46.667v-58.333h46.667v58.333zM105 268.333h23.333v-35h-23.333v35z"></path>
<path fill="#ebebeb" d="M221.667 151.667h-163.333c-7 0-11.667-4.667-11.667-11.667v-128.333c0-7 4.667-11.667 11.667-11.667h163.333c7 0 11.667 4.667 11.667 11.667v128.333c0 7-4.667 11.667-11.667 11.667zM70 128.333h140v-105h-140v105z"></path>
</svg>
