<!-- Generated by IcoMoon.io -->
<svg version="1.1" xmlns="http://www.w3.org/2000/svg" width="280" height="280" viewBox="0 0 280 280">
<title>mi-id</title>
<path fill="#ebebeb" d="M268.333 245h-256.667c-7 0-11.667-4.667-11.667-11.667v-186.667c0-7 4.667-11.667 11.667-11.667h105c7 0 11.667 4.667 11.667 11.667s-4.667 11.667-11.667 11.667h-93.333v163.333h233.333v-163.333h-93.333c-7 0-11.667-4.667-11.667-11.667s4.667-11.667 11.667-11.667h105c7 0 11.667 4.667 11.667 11.667v186.667c0 7-4.667 11.667-11.667 11.667z"></path>
<path fill="#ebebeb" d="M163.333 81.667h-46.667c-7 0-11.667-4.667-11.667-11.667v-58.333c0-7 4.667-11.667 11.667-11.667h46.667c7 0 11.667 4.667 11.667 11.667v58.333c0 7-4.667 11.667-11.667 11.667zM128.333 58.333h23.333v-35h-23.333v35z"></path>
<path fill="#ebebeb" d="M93.333 186.667h-35c-7 0-11.667-4.667-11.667-11.667v-70c0-7 4.667-11.667 11.667-11.667h35c7 0 11.667 4.667 11.667 11.667v70c0 7-4.667 11.667-11.667 11.667zM70 163.333h11.667v-46.667h-11.667v46.667z"></path>
<path fill="#ebebeb" d="M210 116.667h-70c-7 0-11.667-4.667-11.667-11.667s4.667-11.667 11.667-11.667h70c7 0 11.667 4.667 11.667 11.667s-4.667 11.667-11.667 11.667z"></path>
<path fill="#ebebeb" d="M175 151.667h-35c-7 0-11.667-4.667-11.667-11.667s4.667-11.667 11.667-11.667h35c7 0 11.667 4.667 11.667 11.667s-4.667 11.667-11.667 11.667z"></path>
<path fill="#ebebeb" d="M198.333 186.667h-58.333c-7 0-11.667-4.667-11.667-11.667s4.667-11.667 11.667-11.667h58.333c7 0 11.667 4.667 11.667 11.667s-4.667 11.667-11.667 11.667z"></path>
</svg>
