<!-- Generated by IcoMoon.io -->
<svg version="1.1" xmlns="http://www.w3.org/2000/svg" width="280" height="280" viewBox="0 0 280 280">
<title>mi-layers</title>
<path fill="#ebebeb" d="M140 163.333c-1.167 0-3.5 0-4.667-1.167l-128.333-58.333c-4.667-2.333-7-5.833-7-10.5s2.333-8.167 7-10.5l128.333-58.333c3.5-1.167 7-1.167 9.333 0l128.333 58.333c4.667 2.333 7 5.833 7 10.5s-2.333 8.167-7 10.5l-128.333 58.333c-1.167 1.167-3.5 1.167-4.667 1.167zM39.667 93.333l100.333 45.5 100.333-45.5-100.333-45.5-100.333 45.5z"></path>
<path fill="#ebebeb" d="M140 256.667c-1.167 0-3.5 0-4.667-1.167l-128.333-58.333c-4.667-2.333-7-5.833-7-10.5s2.333-8.167 7-10.5l51.333-23.333c5.833-2.333 12.833 0 15.167 5.833s0 12.833-5.833 15.167l-28 12.833 100.333 45.5 100.333-45.5-28-12.833c-5.833-2.333-8.167-9.333-5.833-15.167s9.333-8.167 15.167-5.833l51.333 23.333c4.667 2.333 7 5.833 7 10.5s-2.333 8.167-7 10.5l-128.333 58.333c-1.167 1.167-3.5 1.167-4.667 1.167z"></path>
<path fill="#ebebeb" d="M140 210c-1.167 0-3.5 0-4.667-1.167l-128.333-58.333c-4.667-2.333-7-5.833-7-10.5s2.333-8.167 7-10.5l51.333-23.333c5.833-2.333 12.833 0 15.167 5.833s0 12.833-5.833 15.167l-28 12.833 100.333 45.5 100.333-45.5-28-12.833c-5.833-2.333-8.167-9.333-5.833-15.167s9.333-8.167 15.167-5.833l51.333 23.333c4.667 2.333 7 5.833 7 10.5s-2.333 8.167-7 10.5l-128.333 58.333c-1.167 1.167-3.5 1.167-4.667 1.167z"></path>
</svg>
