<!-- Generated by IcoMoon.io -->
<svg version="1.1" xmlns="http://www.w3.org/2000/svg" width="280" height="280" viewBox="0 0 280 280">
<title>mi-light-bulb</title>
<path fill="#ebebeb" d="M175 221.667h-70c-7 0-11.667-4.667-11.667-11.667v-5.833c0-16.333-7-32.667-19.833-45.5-18.667-18.667-28-43.167-26.833-68.833 2.333-49 43.167-88.667 92.167-89.833h1.167c51.333 0 93.333 42 93.333 93.333 0 24.5-9.333 49-28 66.5-12.833 11.667-18.667 28-18.667 44.333v5.833c0 7-4.667 11.667-11.667 11.667zM116.667 198.333h46.667c1.167-21 10.5-39.667 25.667-56 14-12.833 21-30.333 21-49 0-38.5-31.5-70-70-70h-1.167c-36.167 1.167-67.667 30.333-68.833 67.667-1.167 18.667 7 37.333 19.833 51.333 16.333 16.333 25.667 36.167 26.833 56z"></path>
<path fill="#ebebeb" d="M140 280v0c-25.667 0-46.667-21-46.667-46.667v-23.333c0-7 4.667-11.667 11.667-11.667h70c7 0 11.667 4.667 11.667 11.667v23.333c0 25.667-21 46.667-46.667 46.667zM116.667 221.667v11.667c0 12.833 10.5 23.333 23.333 23.333v0c12.833 0 23.333-10.5 23.333-23.333v-11.667h-46.667z"></path>
<path fill="#ebebeb" d="M105 105c-7 0-11.667-4.667-11.667-11.667 0-25.667 21-46.667 46.667-46.667 7 0 11.667 4.667 11.667 11.667s-4.667 11.667-11.667 11.667c-12.833 0-23.333 10.5-23.333 23.333 0 7-4.667 11.667-11.667 11.667z"></path>
</svg>
