<!-- Generated by IcoMoon.io -->
<svg version="1.1" xmlns="http://www.w3.org/2000/svg" width="280" height="280" viewBox="0 0 280 280">
<title>mi-life-buoy</title>
<path fill="#ebebeb" d="M140 280c-77 0-140-63-140-140s63-140 140-140 140 63 140 140-63 140-140 140zM140 23.333c-64.167 0-116.667 52.5-116.667 116.667s52.5 116.667 116.667 116.667 116.667-52.5 116.667-116.667-52.5-116.667-116.667-116.667z"></path>
<path fill="#ebebeb" d="M140 221.667c-45.5 0-81.667-36.167-81.667-81.667s36.167-81.667 81.667-81.667 81.667 36.167 81.667 81.667-36.167 81.667-81.667 81.667zM140 81.667c-32.667 0-58.333 25.667-58.333 58.333s25.667 58.333 58.333 58.333 58.333-25.667 58.333-58.333-25.667-58.333-58.333-58.333z"></path>
<path fill="#ebebeb" d="M80.5 114.333c-2.333 0-4.667-1.167-5.833-2.333l-49-31.5c-5.833-3.5-7-10.5-3.5-15.167 3.5-5.833 10.5-7 16.333-4.667l49 31.5c5.833 3.5 7 10.5 3.5 16.333-2.333 3.5-5.833 5.833-10.5 5.833z"></path>
<path fill="#ebebeb" d="M248.5 220.5c-2.333 0-4.667-1.167-5.833-2.333l-49-31.5c-5.833-3.5-7-10.5-3.5-16.333s10.5-7 16.333-3.5l49 31.5c5.833 3.5 7 10.5 3.5 16.333-3.5 3.5-7 5.833-10.5 5.833z"></path>
<path fill="#ebebeb" d="M31.5 220.5c-3.5 0-8.167-2.333-9.333-5.833-3.5-5.833-2.333-12.833 3.5-16.333l49-31.5c5.833-3.5 12.833-2.333 16.333 3.5s2.333 12.833-3.5 16.333l-49 31.5c-2.333 2.333-4.667 2.333-7 2.333z"></path>
<path fill="#ebebeb" d="M199.5 114.333c-3.5 0-8.167-2.333-9.333-5.833-3.5-5.833-2.333-12.833 3.5-16.333l49-31.5c5.833-3.5 12.833-2.333 16.333 3.5s2.333 12.833-3.5 16.333l-49 31.5c-3.5 1.167-5.833 2.333-7 2.333z"></path>
</svg>
