<!-- Generated by IcoMoon.io -->
<svg version="1.1" xmlns="http://www.w3.org/2000/svg" width="280" height="280" viewBox="0 0 280 280">
<title>mi-margin</title>
<path fill="#ebebeb" d="M221.667 23.333h-163.333c-7 0-11.667-4.667-11.667-11.667s4.667-11.667 11.667-11.667h163.333c7 0 11.667 4.667 11.667 11.667s-4.667 11.667-11.667 11.667z"></path>
<path fill="#ebebeb" d="M221.667 280h-163.333c-7 0-11.667-4.667-11.667-11.667s4.667-11.667 11.667-11.667h163.333c7 0 11.667 4.667 11.667 11.667s-4.667 11.667-11.667 11.667z"></path>
<path fill="#ebebeb" d="M268.333 233.333c-7 0-11.667-4.667-11.667-11.667v-163.333c0-7 4.667-11.667 11.667-11.667s11.667 4.667 11.667 11.667v163.333c0 7-4.667 11.667-11.667 11.667z"></path>
<path fill="#ebebeb" d="M11.667 233.333c-7 0-11.667-4.667-11.667-11.667v-163.333c0-7 4.667-11.667 11.667-11.667s11.667 4.667 11.667 11.667v163.333c0 7-4.667 11.667-11.667 11.667z"></path>
<path fill="#ebebeb" d="M221.667 233.333h-163.333c-7 0-11.667-4.667-11.667-11.667v-163.333c0-7 4.667-11.667 11.667-11.667h163.333c7 0 11.667 4.667 11.667 11.667v163.333c0 7-4.667 11.667-11.667 11.667zM70 210h140v-140h-140v140z"></path>
</svg>
