<!-- Generated by IcoMoon.io -->
<svg version="1.1" xmlns="http://www.w3.org/2000/svg" width="280" height="280" viewBox="0 0 280 280">
<title>mi-mug</title>
<path fill="#ebebeb" d="M210 280h-151.667c-7 0-11.667-4.667-11.667-11.667v-198.333c0-7 4.667-11.667 11.667-11.667h151.667c7 0 11.667 4.667 11.667 11.667v198.333c0 7-4.667 11.667-11.667 11.667zM70 256.667h128.333v-175h-128.333v175z"></path>
<path fill="#ebebeb" d="M70 81.667c-19.833 0-35-15.167-35-35s15.167-35 35-35c9.333 0 17.5 3.5 24.5 9.333 4.667 4.667 4.667 11.667 0 16.333s-11.667 4.667-16.333 0c-2.333-1.167-4.667-2.333-8.167-2.333-7 0-11.667 4.667-11.667 11.667s4.667 11.667 11.667 11.667c7 0 11.667 4.667 11.667 11.667s-4.667 11.667-11.667 11.667z"></path>
<path fill="#ebebeb" d="M198.333 81.667c-7 0-11.667-4.667-11.667-11.667s4.667-11.667 11.667-11.667c7 0 11.667-4.667 11.667-11.667s-4.667-11.667-11.667-11.667c-3.5 0-7 1.167-8.167 3.5-4.667 4.667-11.667 5.833-16.333 1.167s-5.833-11.667-1.167-16.333c7-8.167 16.333-11.667 26.833-11.667 19.833 0 35 15.167 35 35s-16.333 35-36.167 35z"></path>
<path fill="#ebebeb" d="M180.833 43.167c-3.5 0-7-1.167-9.333-4.667-4.667-4.667-11.667-4.667-16.333-1.167-4.667 4.667-11.667 4.667-16.333 0s-4.667-11.667 0-16.333c14-12.833 38.5-11.667 50.167 2.333 4.667 4.667 3.5 12.833-1.167 16.333-1.167 2.333-4.667 3.5-7 3.5z"></path>
<path fill="#ebebeb" d="M147 40.833c-4.667 0-8.167-2.333-10.5-5.833-3.5-7-11.667-11.667-21-11.667s-15.167 4.667-19.833 11.667c-2.333 5.833-9.333 8.167-15.167 4.667s-8.167-9.333-4.667-15.167c8.167-15.167 23.333-24.5 40.833-24.5s32.667 9.333 40.833 24.5c3.5 5.833 1.167 12.833-4.667 16.333-1.167 0-3.5 0-5.833 0z"></path>
<path fill="#ebebeb" d="M256.667 140c-7 0-11.667-4.667-11.667-11.667 0-12.833-10.5-23.333-23.333-23.333-7 0-11.667-4.667-11.667-11.667s4.667-11.667 11.667-11.667c25.667 0 46.667 21 46.667 46.667 0 7-4.667 11.667-11.667 11.667z"></path>
<path fill="#ebebeb" d="M221.667 105h-11.667c-7 0-11.667-4.667-11.667-11.667s4.667-11.667 11.667-11.667h11.667c7 0 11.667 4.667 11.667 11.667s-4.667 11.667-11.667 11.667z"></path>
<path fill="#ebebeb" d="M221.667 210c-7 0-11.667-4.667-11.667-11.667s4.667-11.667 11.667-11.667c12.833 0 23.333-10.5 23.333-23.333 0-7 4.667-11.667 11.667-11.667s11.667 4.667 11.667 11.667c0 25.667-21 46.667-46.667 46.667z"></path>
<path fill="#ebebeb" d="M221.667 210h-11.667c-7 0-11.667-4.667-11.667-11.667s4.667-11.667 11.667-11.667h11.667c7 0 11.667 4.667 11.667 11.667s-4.667 11.667-11.667 11.667z"></path>
<path fill="#ebebeb" d="M256.667 175c-7 0-11.667-4.667-11.667-11.667v-35c0-7 4.667-11.667 11.667-11.667s11.667 4.667 11.667 11.667v35c0 7-4.667 11.667-11.667 11.667z"></path>
<path fill="#ebebeb" d="M105 233.333c-7 0-11.667-4.667-11.667-11.667v-105c0-7 4.667-11.667 11.667-11.667s11.667 4.667 11.667 11.667v105c0 7-4.667 11.667-11.667 11.667z"></path>
<path fill="#ebebeb" d="M163.333 233.333c-7 0-11.667-4.667-11.667-11.667v-105c0-7 4.667-11.667 11.667-11.667s11.667 4.667 11.667 11.667v105c0 7-4.667 11.667-11.667 11.667z"></path>
</svg>
