<!-- Generated by IcoMoon.io -->
<svg version="1.1" xmlns="http://www.w3.org/2000/svg" width="280" height="280" viewBox="0 0 280 280">
<title>mi-projector</title>
<path fill="#ebebeb" d="M198.333 256.667h-186.667c-7 0-11.667-4.667-11.667-11.667v-140c0-7 4.667-11.667 11.667-11.667h186.667c7 0 11.667 4.667 11.667 11.667v30.333l54.833-18.667c3.5-1.167 7-1.167 10.5 1.167s4.667 7 4.667 10.5v93.333c0 3.5-2.333 7-4.667 9.333-3.5 2.333-7 2.333-10.5 1.167l-54.833-17.5v30.333c0 7-4.667 11.667-11.667 11.667zM23.333 233.333h163.333v-35c0-3.5 2.333-7 4.667-9.333 3.5-2.333 7-2.333 10.5-1.167l54.833 18.667v-60.667l-54.833 18.667c-3.5 1.167-7 1.167-10.5-1.167-2.333-4.667-4.667-8.167-4.667-11.667v-35h-163.333v116.667z"></path>
<path fill="#ebebeb" d="M70 116.667c-25.667 0-46.667-21-46.667-46.667s21-46.667 46.667-46.667 46.667 21 46.667 46.667-21 46.667-46.667 46.667zM70 46.667c-12.833 0-23.333 10.5-23.333 23.333s10.5 23.333 23.333 23.333 23.333-10.5 23.333-23.333-10.5-23.333-23.333-23.333z"></path>
<path fill="#ebebeb" d="M140 116.667c-25.667 0-46.667-21-46.667-46.667s21-46.667 46.667-46.667 46.667 21 46.667 46.667-21 46.667-46.667 46.667zM140 46.667c-12.833 0-23.333 10.5-23.333 23.333s10.5 23.333 23.333 23.333 23.333-10.5 23.333-23.333-10.5-23.333-23.333-23.333z"></path>
<path fill="#ebebeb" d="M140 186.667h-70c-7 0-11.667-4.667-11.667-11.667s4.667-11.667 11.667-11.667h70c7 0 11.667 4.667 11.667 11.667s-4.667 11.667-11.667 11.667z"></path>
</svg>
