<!-- Generated by IcoMoon.io -->
<svg version="1.1" xmlns="http://www.w3.org/2000/svg" width="280" height="280" viewBox="0 0 280 280">
<title>mi-pencil</title>
<path fill="#ebebeb" d="M11.667 280c-3.5 0-5.833-1.167-8.167-3.5-3.5-3.5-4.667-8.167-2.333-12.833l35-81.667c0-1.167 1.167-2.333 2.333-3.5l165.667-165.667c16.333-16.333 45.5-16.333 63 0 8.167 9.333 12.833 19.833 12.833 31.5s-4.667 23.333-12.833 31.5l-165.667 165.667c-1.167 1.167-2.333 2.333-3.5 2.333l-81.667 35c-1.167 1.167-3.5 1.167-4.667 1.167zM56 193.667l-22.167 52.5 52.5-22.167 163.333-163.333c4.667-4.667 7-10.5 7-16.333s-2.333-10.5-5.833-15.167c-9.333-9.333-22.167-8.167-30.333 0l-164.5 164.5z"></path>
<path fill="#ebebeb" d="M93.333 245c-3.5 0-5.833-1.167-8.167-3.5l-46.667-46.667c-4.667-4.667-4.667-11.667 0-16.333s11.667-4.667 16.333 0l46.667 46.667c4.667 4.667 4.667 11.667 0 16.333-2.333 2.333-4.667 3.5-8.167 3.5z"></path>
<path fill="#ebebeb" d="M239.167 87.5c-3.5 0-5.833-1.167-8.167-3.5l-40.833-40.833c-4.667-4.667-4.667-11.667 0-16.333s11.667-4.667 16.333 0l40.833 40.833c4.667 4.667 4.667 11.667 0 16.333-2.333 2.333-4.667 3.5-8.167 3.5z"></path>
</svg>
