<!-- Generated by IcoMoon.io -->
<svg version="1.1" xmlns="http://www.w3.org/2000/svg" width="280" height="280" viewBox="0 0 280 280">
<title>mi-pin-2</title>
<path fill="#ebebeb" d="M140 280c-32.667 0-105-101.5-105-175 0-58.333 46.667-105 105-105s105 46.667 105 105c0 46.667-28 95.667-39.667 114.333-7 10.5-39.667 60.667-65.333 60.667zM140 23.333c-45.5 0-81.667 36.167-81.667 81.667 0 65.333 65.333 148.167 81.667 151.667 16.333-3.5 81.667-86.333 81.667-151.667 0-45.5-36.167-81.667-81.667-81.667z"></path>
<path fill="#ebebeb" d="M140 163.333c-32.667 0-58.333-25.667-58.333-58.333s25.667-58.333 58.333-58.333 58.333 25.667 58.333 58.333-25.667 58.333-58.333 58.333zM140 70c-19.833 0-35 15.167-35 35s15.167 35 35 35 35-15.167 35-35-15.167-35-35-35z"></path>
</svg>
