<!-- Generated by IcoMoon.io -->
<svg version="1.1" xmlns="http://www.w3.org/2000/svg" width="280" height="280" viewBox="0 0 280 280">
<title>mi-redo</title>
<path fill="#ebebeb" d="M163.333 245c-1.167 0-3.5 0-4.667-1.167-4.667-1.167-7-5.833-7-10.5v-58.333c0-7 4.667-11.667 11.667-11.667s11.667 4.667 11.667 11.667v32.667l75.833-67.667-75.833-67.667v32.667c0 7-4.667 11.667-11.667 11.667s-11.667-4.667-11.667-11.667v-58.333c0-4.667 2.333-9.333 7-10.5 4.667-2.333 9.333-1.167 12.833 2.333l105 93.333c2.333 2.333 3.5 5.833 3.5 8.167s-1.167 7-3.5 8.167l-105 93.333c-2.333 2.333-5.833 3.5-8.167 3.5z"></path>
<path fill="#ebebeb" d="M11.667 245c-1.167 0-1.167 0-2.333 0-5.833-1.167-9.333-5.833-9.333-11.667 0-138.833 162.167-140 163.333-140 7 0 11.667 4.667 11.667 11.667s-4.667 11.667-11.667 11.667c-4.667 0-110.833 1.167-135.333 80.5 23.333-16.333 64.167-33.833 135.333-33.833 7 0 11.667 4.667 11.667 11.667s-4.667 11.667-11.667 11.667c-117.833 0-141.167 50.167-141.167 51.333-1.167 4.667-5.833 7-10.5 7z"></path>
</svg>
