<!-- Generated by IcoMoon.io -->
<svg version="1.1" xmlns="http://www.w3.org/2000/svg" width="280" height="280" viewBox="0 0 280 280">
<title>mi-star</title>
<path fill="#ebebeb" d="M173.833 116.667c-4.667 0-9.333-3.5-10.5-8.167l-23.333-63-23.333 63c-2.333 5.833-9.333 9.333-15.167 7-5.833-1.167-8.167-8.167-7-14l33.833-93.333c2.333-4.667 7-8.167 11.667-8.167s9.333 3.5 10.5 8.167l33.833 93.333c2.333 5.833-1.167 12.833-7 15.167-1.167 0-2.333 0-3.5 0z"></path>
<path fill="#ebebeb" d="M233.333 280c-2.333 0-4.667-1.167-7-2.333l-93.333-68.833c-4.667-3.5-5.833-11.667-2.333-16.333s11.667-5.833 16.333-2.333l61.833 45.5-25.667-72.333c-2.333-5.833 1.167-12.833 7-15.167s12.833 1.167 15.167 7l39.667 108.5c2.333 4.667 0 10.5-3.5 12.833s-5.833 3.5-8.167 3.5z"></path>
<path fill="#ebebeb" d="M193.667 171.5c-3.5 0-7-1.167-9.333-4.667-3.5-4.667-2.333-12.833 2.333-16.333l46.667-33.833h-58.333c-7 0-11.667-4.667-11.667-11.667s4.667-11.667 11.667-11.667h93.333c4.667 0 9.333 3.5 11.667 8.167 1.167 4.667 0 10.5-4.667 12.833l-74.667 54.833c-2.333 1.167-4.667 2.333-7 2.333z"></path>
<path fill="#ebebeb" d="M46.667 280c-2.333 0-4.667-1.167-7-2.333-4.667-3.5-5.833-8.167-3.5-12.833l36.167-100.333-67.667-50.167c-3.5-3.5-5.833-8.167-4.667-12.833 2.333-4.667 7-8.167 11.667-8.167h93.333c7 0 11.667 4.667 11.667 11.667s-4.667 11.667-11.667 11.667h-58.333l46.667 33.833c4.667 3.5 5.833 8.167 3.5 12.833l-26.833 72.333 61.833-45.5c4.667-3.5 12.833-2.333 16.333 2.333s2.333 12.833-2.333 16.333l-93.333 68.833c-1.167 1.167-3.5 2.333-5.833 2.333z"></path>
<path fill="#ebebeb" d="M210 116.667h-35c-7 0-11.667-4.667-11.667-11.667s4.667-11.667 11.667-11.667h35c7 0 11.667 4.667 11.667 11.667s-4.667 11.667-11.667 11.667z"></path>
</svg>
