<!-- Generated by IcoMoon.io -->
<svg version="1.1" xmlns="http://www.w3.org/2000/svg" width="280" height="280" viewBox="0 0 280 280">
<title>mi-speed-o-meter</title>
<path fill="#ebebeb" d="M140 280c-77 0-140-63-140-140s63-140 140-140 140 63 140 140-63 140-140 140zM140 23.333c-64.167 0-116.667 52.5-116.667 116.667s52.5 116.667 116.667 116.667 116.667-52.5 116.667-116.667-52.5-116.667-116.667-116.667z"></path>
<path fill="#ebebeb" d="M23.333 186.667h233.333v23.333h-233.333v-23.333z"></path>
<path fill="#ebebeb" d="M140 210c-2.333 0-3.5 0-5.833-1.167-5.833-3.5-7-10.5-4.667-16.333l58.333-101.5c3.5-5.833 10.5-7 16.333-4.667 5.833 3.5 7 10.5 4.667 16.333l-58.333 101.5c-2.333 3.5-7 5.833-10.5 5.833z"></path>
</svg>
