<!-- Generated by IcoMoon.io -->
<svg version="1.1" xmlns="http://www.w3.org/2000/svg" width="280" height="280" viewBox="0 0 280 280">
<title>mi-shapes</title>
<path fill="#ebebeb" d="M186.667 280c0 0 0 0 0 0h-140c-4.667 0-8.167-2.333-10.5-5.833s-2.333-8.167 0-11.667l70-105c4.667-7 15.167-7 19.833 0l68.833 103.833c2.333 2.333 3.5 4.667 3.5 8.167 0 5.833-4.667 10.5-11.667 10.5zM68.833 256.667h96.833l-49-72.333-47.833 72.333z"></path>
<path fill="#ebebeb" d="M268.333 198.333h-93.333c-7 0-11.667-4.667-11.667-11.667v-93.333c0-7 4.667-11.667 11.667-11.667h93.333c7 0 11.667 4.667 11.667 11.667v93.333c0 7-4.667 11.667-11.667 11.667zM186.667 175h70v-70h-70v70z"></path>
<path fill="#ebebeb" d="M75.833 151.667c-42 0-75.833-33.833-75.833-75.833s33.833-75.833 75.833-75.833 75.833 33.833 75.833 75.833-33.833 75.833-75.833 75.833zM75.833 23.333c-29.167 0-52.5 23.333-52.5 52.5s23.333 52.5 52.5 52.5 52.5-23.333 52.5-52.5-23.333-52.5-52.5-52.5z"></path>
</svg>
