<!-- Generated by IcoMoon.io -->
<svg version="1.1" xmlns="http://www.w3.org/2000/svg" width="280" height="280" viewBox="0 0 280 280">
<title>mi-syringe</title>
<path fill="#ebebeb" d="M105 221.667c-3.5 0-5.833-1.167-8.167-3.5l-35-35c-4.667-4.667-4.667-11.667 0-16.333l128.333-128.333c4.667-4.667 11.667-4.667 16.333 0l35 35c4.667 4.667 4.667 11.667 0 16.333l-128.333 128.333c-2.333 2.333-4.667 3.5-8.167 3.5zM86.333 175l18.667 18.667 112-112-18.667-18.667-112 112z"></path>
<path fill="#ebebeb" d="M256.667 116.667c-3.5 0-5.833-1.167-8.167-3.5l-81.667-81.667c-4.667-4.667-4.667-11.667 0-16.333s11.667-4.667 16.333 0l81.667 81.667c4.667 4.667 4.667 11.667 0 16.333-2.333 2.333-4.667 3.5-8.167 3.5z"></path>
<path fill="#ebebeb" d="M268.333 70c-3.5 0-5.833-1.167-8.167-3.5l-46.667-46.667c-4.667-4.667-4.667-11.667 0-16.333s11.667-4.667 16.333 0l46.667 46.667c4.667 4.667 4.667 11.667 0 16.333-2.333 2.333-4.667 3.5-8.167 3.5z"></path>
<path fill="#ebebeb" d="M11.667 280c-3.5 0-5.833-1.167-8.167-3.5-4.667-4.667-4.667-11.667 0-16.333l75.833-75.833c4.667-4.667 11.667-4.667 16.333 0s4.667 11.667 0 16.333l-75.833 75.833c-2.333 2.333-4.667 3.5-8.167 3.5z"></path>
<path fill="#ebebeb" d="M215.833 75.833c-3.5 0-5.833-1.167-8.167-3.5-4.667-4.667-4.667-11.667 0-16.333l29.167-29.167c4.667-4.667 11.667-4.667 16.333 0s4.667 11.667 0 16.333l-29.167 29.167c-2.333 2.333-4.667 3.5-8.167 3.5z"></path>
</svg>
