<!-- Generated by IcoMoon.io -->
<svg version="1.1" xmlns="http://www.w3.org/2000/svg" width="280" height="280" viewBox="0 0 280 280">
<title>mi-thunderbolt</title>
<path fill="#ebebeb" d="M140 280c-1.167 0-2.333 0-2.333 0-4.667-1.167-9.333-5.833-9.333-11.667v-86.333l-30.333 15.167c-3.5 1.167-7 1.167-10.5 0s-4.667-4.667-5.833-8.167l-35-175c0-3.5 0-7 2.333-9.333 2.333-3.5 5.833-4.667 9.333-4.667h116.667c3.5 0 7 1.167 9.333 4.667 2.333 2.333 2.333 5.833 2.333 9.333l-18.667 86.333 61.833-18.667c4.667-1.167 9.333 0 12.833 3.5s3.5 8.167 1.167 12.833l-93.333 175c-2.333 4.667-5.833 7-10.5 7zM140 151.667c2.333 0 4.667 1.167 5.833 1.167 3.5 2.333 5.833 5.833 5.833 10.5v58.333l58.333-109.667-54.833 16.333c-3.5 1.167-8.167 0-11.667-2.333s-4.667-7-3.5-10.5l21-92.167h-88.667l29.167 145.833 32.667-16.333c2.333-1.167 3.5-1.167 5.833-1.167z"></path>
</svg>
