<!-- Generated by IcoMoon.io -->
<svg version="1.1" xmlns="http://www.w3.org/2000/svg" width="280" height="280" viewBox="0 0 280 280">
<title>mi-terminal</title>
<path fill="#ebebeb" d="M221.667 280h-163.333c-32.667 0-58.333-25.667-58.333-58.333v-163.333c0-32.667 25.667-58.333 58.333-58.333h163.333c32.667 0 58.333 25.667 58.333 58.333v163.333c0 32.667-25.667 58.333-58.333 58.333zM58.333 23.333c-19.833 0-35 15.167-35 35v163.333c0 19.833 15.167 35 35 35h163.333c19.833 0 35-15.167 35-35v-163.333c0-19.833-15.167-35-35-35h-163.333z"></path>
<path fill="#ebebeb" d="M105 116.667c-3.5 0-5.833-1.167-8.167-3.5l-35-35c-4.667-4.667-4.667-11.667 0-16.333s11.667-4.667 16.333 0l35 35c4.667 4.667 4.667 11.667 0 16.333-2.333 2.333-4.667 3.5-8.167 3.5z"></path>
<path fill="#ebebeb" d="M70 151.667c-3.5 0-5.833-1.167-8.167-3.5-4.667-4.667-4.667-11.667 0-16.333l35-35c4.667-4.667 11.667-4.667 16.333 0s4.667 11.667 0 16.333l-35 35c-2.333 2.333-4.667 3.5-8.167 3.5z"></path>
<path fill="#ebebeb" d="M175 151.667h-46.667c-7 0-11.667-4.667-11.667-11.667s4.667-11.667 11.667-11.667h46.667c7 0 11.667 4.667 11.667 11.667s-4.667 11.667-11.667 11.667z"></path>
</svg>
