<!-- Generated by IcoMoon.io -->
<svg version="1.1" xmlns="http://www.w3.org/2000/svg" width="280" height="280" viewBox="0 0 280 280">
<title>mi-upload</title>
<path fill="#ebebeb" d="M58.333 116.667c-7 0-11.667-4.667-11.667-11.667 0-45.5 36.167-81.667 81.667-81.667 35 0 66.5 23.333 78.167 57.167 1.167 5.833-1.167 12.833-8.167 14-5.833 2.333-12.833-1.167-15.167-7-7-24.5-29.167-40.833-54.833-40.833-32.667 0-58.333 25.667-58.333 58.333 0 7-4.667 11.667-11.667 11.667z"></path>
<path fill="#ebebeb" d="M210 210c-7 0-11.667-4.667-11.667-11.667s4.667-11.667 11.667-11.667c25.667 0 46.667-21 46.667-46.667s-21-46.667-46.667-46.667c-3.5 0-8.167 0-11.667 1.167-5.833 1.167-12.833-2.333-14-8.167s2.333-12.833 8.167-14c5.833-1.167 11.667-2.333 17.5-2.333 38.5 0 70 31.5 70 70s-31.5 70-70 70z"></path>
<path fill="#ebebeb" d="M93.333 210h-35c-7 0-11.667-4.667-11.667-11.667s4.667-11.667 11.667-11.667h35c7 0 11.667 4.667 11.667 11.667s-4.667 11.667-11.667 11.667z"></path>
<path fill="#ebebeb" d="M210 210h-23.333c-7 0-11.667-4.667-11.667-11.667s4.667-11.667 11.667-11.667h23.333c7 0 11.667 4.667 11.667 11.667s-4.667 11.667-11.667 11.667z"></path>
<path fill="#ebebeb" d="M58.333 210c-32.667 0-58.333-25.667-58.333-58.333s25.667-58.333 58.333-58.333c7 0 11.667 4.667 11.667 11.667s-4.667 11.667-11.667 11.667c-19.833 0-35 15.167-35 35s15.167 35 35 35c7 0 11.667 4.667 11.667 11.667s-4.667 11.667-11.667 11.667z"></path>
<path fill="#ebebeb" d="M140 256.667c-7 0-11.667-4.667-11.667-11.667v-116.667c0-7 4.667-11.667 11.667-11.667s11.667 4.667 11.667 11.667v116.667c0 7-4.667 11.667-11.667 11.667z"></path>
<path fill="#ebebeb" d="M105 175c-3.5 0-5.833-1.167-8.167-3.5-4.667-4.667-4.667-11.667 0-16.333l35-35c4.667-4.667 11.667-4.667 16.333 0s4.667 11.667 0 16.333l-35 35c-2.333 2.333-4.667 3.5-8.167 3.5z"></path>
<path fill="#ebebeb" d="M175 175c-3.5 0-5.833-1.167-8.167-3.5l-35-35c-4.667-4.667-4.667-11.667 0-16.333s11.667-4.667 16.333 0l35 35c4.667 4.667 4.667 11.667 0 16.333-2.333 2.333-4.667 3.5-8.167 3.5z"></path>
</svg>
