<!-- Generated by IcoMoon.io -->
<svg version="1.1" xmlns="http://www.w3.org/2000/svg" width="280" height="280" viewBox="0 0 280 280">
<title>mi-umbrella</title>
<path fill="#ebebeb" d="M268.333 140c0 0 0 0 0 0h-256.667c-3.5 0-7-1.167-9.333-4.667-2.333-2.333-2.333-5.833-2.333-9.333 0-1.167 26.833-114.333 140-114.333 103.833 0 134.167 94.5 138.833 112 1.167 1.167 1.167 2.333 1.167 4.667 0 7-4.667 11.667-11.667 11.667zM28 116.667h225.167c-10.5-26.833-39.667-81.667-112-81.667-73.5 0-102.667 54.833-113.167 81.667z"></path>
<path fill="#ebebeb" d="M116.667 268.333c-25.667 0-35-21-35-35 0-7 4.667-11.667 11.667-11.667s11.667 4.667 11.667 11.667c0 5.833 2.333 11.667 11.667 11.667s11.667-5.833 11.667-11.667v-105c0-7 4.667-11.667 11.667-11.667s11.667 4.667 11.667 11.667v105c0 14-9.333 35-35 35z"></path>
</svg>
