<!-- Generated by IcoMoon.io -->
<svg version="1.1" xmlns="http://www.w3.org/2000/svg" width="280" height="280" viewBox="0 0 280 280">
<title>mi-user</title>
<path fill="#ebebeb" d="M140 151.667c-10.5 0-19.833-3.5-28-8.167-19.833-12.833-30.333-39.667-30.333-73.5 0-32.667 25.667-58.333 58.333-58.333s58.333 25.667 58.333 58.333c0 33.833-10.5 60.667-30.333 73.5-8.167 4.667-17.5 8.167-28 8.167zM140 35c-19.833 0-35 15.167-35 35 0 25.667 7 45.5 19.833 53.667 9.333 5.833 21 5.833 30.333 0 12.833-8.167 19.833-28 19.833-53.667 0-19.833-15.167-35-35-35z"></path>
<path fill="#ebebeb" d="M140 268.333c-26.833 0-116.667-3.5-116.667-46.667s31.5-58.333 66.5-68.833c2.333-1.167 11.667-4.667 15.167-22.167l23.333 4.667c-3.5 21-15.167 33.833-31.5 39.667-35 11.667-50.167 21-50.167 46.667 0 12.833 49 23.333 93.333 23.333s93.333-10.5 93.333-23.333c0-25.667-15.167-35-50.167-47.833-16.333-5.833-26.833-18.667-31.5-39.667l23.333-4.667c3.5 17.5 12.833 21 16.333 22.167 35 11.667 66.5 25.667 66.5 68.833-1.167 11.667-9.333 47.833-117.833 47.833z"></path>
</svg>
