<!-- Generated by IcoMoon.io -->
<svg version="1.1" xmlns="http://www.w3.org/2000/svg" width="280" height="280" viewBox="0 0 280 280">
<title>mi-volume-down</title>
<path fill="#ebebeb" d="M186.667 268.333c-2.333 0-4.667-1.167-7-2.333l-70-46.667c-2.333-2.333-4.667-5.833-4.667-9.333v-140c0-3.5 2.333-7 4.667-9.333l70-46.667c3.5-2.333 8.167-2.333 11.667 0 4.667 1.167 7 4.667 7 9.333v233.333c0 4.667-2.333 8.167-5.833 10.5-2.333 1.167-3.5 1.167-5.833 1.167zM128.333 204.167l46.667 31.5v-190.167l-46.667 31.5v127.167z"></path>
<path fill="#ebebeb" d="M116.667 221.667h-70c-7 0-11.667-4.667-11.667-11.667v-140c0-7 4.667-11.667 11.667-11.667h70c7 0 11.667 4.667 11.667 11.667v140c0 7-4.667 11.667-11.667 11.667zM58.333 198.333h46.667v-116.667h-46.667v116.667z"></path>
<path fill="#ebebeb" d="M219.333 184.333c-3.5 0-5.833-1.167-8.167-3.5-4.667-4.667-4.667-11.667 0-16.333 7-7 10.5-15.167 10.5-24.5s-3.5-17.5-10.5-24.5c-4.667-4.667-4.667-11.667 0-16.333s11.667-4.667 16.333 0c11.667 10.5 17.5 25.667 17.5 40.833s-5.833 30.333-17.5 40.833c-2.333 2.333-4.667 3.5-8.167 3.5z"></path>
</svg>
