<!-- Generated by IcoMoon.io -->
<svg version="1.1" xmlns="http://www.w3.org/2000/svg" width="280" height="280" viewBox="0 0 280 280">
<title>mi-video-camera</title>
<path fill="#ebebeb" d="M186.667 245h-151.667c-19.833 0-35-15.167-35-35v-140c0-19.833 15.167-35 35-35h151.667c19.833 0 35 15.167 35 35v140c0 19.833-15.167 35-35 35zM35 58.333c-7 0-11.667 4.667-11.667 11.667v140c0 7 4.667 11.667 11.667 11.667h151.667c7 0 11.667-4.667 11.667-11.667v-140c0-7-4.667-11.667-11.667-11.667h-151.667z"></path>
<path fill="#ebebeb" d="M268.333 198.333c-1.167 0-3.5 0-4.667-1.167l-58.333-23.333c-4.667-1.167-7-5.833-7-10.5v-46.667c0-4.667 2.333-9.333 7-10.5l58.333-23.333c3.5-1.167 8.167-1.167 10.5 1.167 3.5 2.333 5.833 5.833 5.833 9.333v93.333c0 3.5-2.333 7-4.667 9.333-2.333 1.167-4.667 2.333-7 2.333zM221.667 155.167l35 14v-58.333l-35 14v30.333z"></path>
<path fill="#ebebeb" d="M64.167 128.333c-16.333 0-29.167-12.833-29.167-29.167s12.833-29.167 29.167-29.167 29.167 12.833 29.167 29.167-12.833 29.167-29.167 29.167zM64.167 93.333c-3.5 0-5.833 2.333-5.833 5.833s2.333 5.833 5.833 5.833 5.833-2.333 5.833-5.833-2.333-5.833-5.833-5.833z"></path>
</svg>
