<!-- Generated by IcoMoon.io -->
<svg version="1.1" xmlns="http://www.w3.org/2000/svg" width="280" height="280" viewBox="0 0 280 280">
<title>mi-wallet</title>
<path fill="#ebebeb" d="M35 93.333c-19.833 0-35-15.167-35-35s15.167-35 35-35c7 0 11.667 4.667 11.667 11.667s-4.667 11.667-11.667 11.667c-7 0-11.667 4.667-11.667 11.667s4.667 11.667 11.667 11.667c7 0 11.667 4.667 11.667 11.667s-4.667 11.667-11.667 11.667z"></path>
<path fill="#ebebeb" d="M35 256.667c-19.833 0-35-15.167-35-35 0-7 4.667-11.667 11.667-11.667s11.667 4.667 11.667 11.667c0 7 4.667 11.667 11.667 11.667s11.667 4.667 11.667 11.667-4.667 11.667-11.667 11.667z"></path>
<path fill="#ebebeb" d="M268.333 256.667h-233.333c-7 0-11.667-4.667-11.667-11.667s4.667-11.667 11.667-11.667h221.667v-140h-221.667c-7 0-11.667-4.667-11.667-11.667s4.667-11.667 11.667-11.667h233.333c7 0 11.667 4.667 11.667 11.667v163.333c0 7-4.667 11.667-11.667 11.667z"></path>
<path fill="#ebebeb" d="M245 93.333c-7 0-11.667-4.667-11.667-11.667v-35h-198.333c-7 0-11.667-4.667-11.667-11.667s4.667-11.667 11.667-11.667h210c7 0 11.667 4.667 11.667 11.667v46.667c0 7-4.667 11.667-11.667 11.667z"></path>
<path fill="#ebebeb" d="M11.667 233.333c-7 0-11.667-4.667-11.667-11.667v-163.333c0-7 4.667-11.667 11.667-11.667s11.667 4.667 11.667 11.667v163.333c0 7-4.667 11.667-11.667 11.667z"></path>
<path fill="#ebebeb" d="M233.333 163.333c0 12.887-10.447 23.333-23.333 23.333s-23.333-10.447-23.333-23.333c0-12.887 10.447-23.333 23.333-23.333s23.333 10.447 23.333 23.333z"></path>
</svg>
