<!-- Generated by IcoMoon.io -->
<svg version="1.1" xmlns="http://www.w3.org/2000/svg" width="280" height="280" viewBox="0 0 280 280">
<title>mi-warning</title>
<path fill="#ebebeb" d="M268.333 268.333h-256.667c-4.667 0-8.167-2.333-10.5-5.833s-2.333-8.167 0-11.667l128.333-233.333c4.667-7 16.333-7 21 0l128.333 233.333c2.333 3.5 2.333 8.167 0 11.667s-5.833 5.833-10.5 5.833zM31.5 245h217l-108.5-197.167-108.5 197.167z"></path>
<path fill="#ebebeb" d="M140 186.667c-7 0-11.667-4.667-11.667-11.667v-58.333c0-7 4.667-11.667 11.667-11.667s11.667 4.667 11.667 11.667v58.333c0 7-4.667 11.667-11.667 11.667z"></path>
<path fill="#ebebeb" d="M151.667 210c0 6.443-5.223 11.667-11.667 11.667s-11.667-5.223-11.667-11.667c0-6.443 5.223-11.667 11.667-11.667s11.667 5.223 11.667 11.667z"></path>
<path fill="#ebebeb" d="M140 227.5c-9.333 0-17.5-8.167-17.5-17.5s8.167-17.5 17.5-17.5 17.5 8.167 17.5 17.5-8.167 17.5-17.5 17.5zM140 204.167c-3.5 0-5.833 2.333-5.833 5.833s2.333 5.833 5.833 5.833 5.833-2.333 5.833-5.833-2.333-5.833-5.833-5.833z"></path>
</svg>
