<!-- Generated by IcoMoon.io -->
<svg version="1.1" xmlns="http://www.w3.org/2000/svg" width="280" height="280" viewBox="0 0 280 280">
<title>mi-wrench</title>
<path fill="#ebebeb" d="M198.333 163.333c-11.667 0-23.333-2.333-35-8.167-5.833-2.333-8.167-9.333-5.833-15.167s9.333-8.167 15.167-5.833c22.167 10.5 49 5.833 66.5-11.667 9.333-9.333 15.167-21 16.333-32.667l-8.167-8.167-32.667 32.667c-2.333 2.333-4.667 3.5-8.167 3.5-2.333 0-22.167 0-32.667-11.667-11.667-11.667-11.667-30.333-11.667-32.667 0-3.5 1.167-5.833 3.5-8.167l32.667-32.667-8.167-8.167c-12.833 1.167-24.5 7-32.667 16.333-17.5 17.5-22.167 44.333-11.667 66.5 2.333 5.833 0 12.833-5.833 15.167s-12.833 0-15.167-5.833c-15.167-31.5-8.167-68.833 16.333-93.333 14-14 32.667-22.167 53.667-23.333 3.5 0 7 1.167 9.333 3.5l19.833 19.833c4.667 4.667 4.667 11.667 0 16.333l-37.333 37.333c1.167 4.667 2.333 9.333 4.667 11.667s8.167 3.5 11.667 4.667l37.333-37.333c4.667-4.667 11.667-4.667 16.333 0l19.833 19.833c2.333 3.5 3.5 7 3.5 10.5-1.167 19.833-9.333 38.5-23.333 53.667-16.333 15.167-37.333 23.333-58.333 23.333z"></path>
<path fill="#ebebeb" d="M214.667 44.333c-3.5 0-5.833-1.167-8.167-3.5l-16.333-17.5c-4.667-4.667-4.667-11.667 0-16.333s11.667-4.667 16.333 0l16.333 16.333c4.667 4.667 4.667 11.667 0 16.333-2.333 3.5-4.667 4.667-8.167 4.667z"></path>
<path fill="#ebebeb" d="M264.833 93.333c-3.5 0-5.833-1.167-8.167-3.5l-16.333-16.333c-4.667-4.667-4.667-11.667 0-16.333s11.667-4.667 16.333 0l16.333 16.333c4.667 4.667 4.667 11.667 0 16.333-2.333 2.333-5.833 3.5-8.167 3.5z"></path>
<path fill="#ebebeb" d="M35 280c-9.333 0-17.5-3.5-24.5-10.5-14-14-14-36.167 0-49l116.667-116.667c4.667-4.667 11.667-4.667 16.333 0s4.667 11.667 0 16.333l-116.667 116.667c-4.667 4.667-4.667 11.667 0 16.333s11.667 4.667 16.333 0l116.667-116.667c4.667-4.667 11.667-4.667 16.333 0s4.667 11.667 0 16.333l-116.667 116.667c-7 7-15.167 10.5-24.5 10.5z"></path>
</svg>
