<!-- Generated by IcoMoon.io -->
<svg version="1.1" xmlns="http://www.w3.org/2000/svg" width="280" height="280" viewBox="0 0 280 280">
<title>mt-adb</title>
<path fill="#ebebeb" d="M58.333 186.665c0 45.15 36.517 81.667 81.667 81.667s81.667-36.517 81.667-81.667v-46.667h-163.333v46.667zM188.067 50.983l24.5-24.5-9.567-9.683-26.833 26.95c-10.967-5.483-23.1-8.75-36.167-8.75s-25.2 3.267-36.050 8.75l-26.95-26.95-9.567 9.683 24.5 24.5c-20.3 14.817-33.6 38.617-33.6 65.683v11.666h163.333v-11.666c0-27.067-13.3-50.867-33.6-65.683v0zM105 104.999c-6.417 0-11.667-5.25-11.667-11.667s5.25-11.667 11.667-11.667c6.417 0 11.667 5.25 11.667 11.667s-5.25 11.667-11.667 11.667v0zM175 104.999c-6.417 0-11.667-5.25-11.667-11.667s5.25-11.667 11.667-11.667c6.417 0 11.667 5.25 11.667 11.667s-5.25 11.667-11.667 11.667v0z"></path>
</svg>
