<!-- Generated by IcoMoon.io -->
<svg version="1.1" xmlns="http://www.w3.org/2000/svg" width="280" height="280" viewBox="0 0 280 280">
<title>mt-account_balance_wallet</title>
<path fill="#ebebeb" d="M245 210v11.667c0 12.833-10.5 23.333-23.333 23.333h-163.333c-12.95 0-23.333-10.5-23.333-23.333v-163.333c0-12.833 10.383-23.333 23.333-23.333h163.333c12.833 0 23.333 10.5 23.333 23.333v11.667h-105c-12.95 0-23.333 10.5-23.333 23.333v93.333c0 12.833 10.383 23.333 23.333 23.333h105zM140 186.667h116.667v-93.333h-116.667v93.333zM186.667 157.5c-9.683 0-17.5-7.817-17.5-17.5s7.817-17.5 17.5-17.5c9.683 0 17.5 7.817 17.5 17.5s-7.817 17.5-17.5 17.5v0z"></path>
</svg>
