<!-- Generated by IcoMoon.io -->
<svg version="1.1" xmlns="http://www.w3.org/2000/svg" width="280" height="280" viewBox="0 0 280 280">
<title>mt-access_alarms</title>
<path fill="#ebebeb" d="M256.667 66.735l-53.667-45.033-15.050 17.85 53.667 45.033 15.050-17.85zM91.933 39.551l-14.933-17.85-53.667 44.917 15.050 17.85 53.55-44.917zM145.833 93.335h-17.5v70l55.417 33.25 8.75-14.35-46.667-27.65v-61.25zM140 46.668c-57.983 0-105 47.017-105 105s46.9 105 105 105c57.983 0 105-47.017 105-105s-47.017-105-105-105v0zM140 233.335c-45.15 0-81.667-36.517-81.667-81.667s36.517-81.666 81.667-81.666c45.15 0 81.667 36.517 81.667 81.666s-36.517 81.667-81.667 81.667v0z"></path>
</svg>
