<!-- Generated by IcoMoon.io -->
<svg version="1.1" xmlns="http://www.w3.org/2000/svg" width="280" height="280" viewBox="0 0 280 280">
<title>mt-assignment_ind</title>
<path fill="#ebebeb" d="M221.667 35h-48.767c-4.9-13.533-17.733-23.333-32.9-23.333s-28 9.8-32.9 23.333h-48.767c-12.833 0-23.333 10.5-23.333 23.333v163.333c0 12.833 10.5 23.333 23.333 23.333h163.333c12.833 0 23.333-10.5 23.333-23.333v-163.333c0-12.833-10.5-23.333-23.333-23.333v0zM140 35c6.417 0 11.667 5.25 11.667 11.667s-5.25 11.667-11.667 11.667c-6.417 0-11.667-5.25-11.667-11.667s5.25-11.667 11.667-11.667v0zM140 81.667c19.367 0 35 15.633 35 35s-15.633 35-35 35c-19.367 0-35-15.633-35-35s15.633-35 35-35v0zM210 221.667h-140v-16.333c0-23.333 46.667-36.167 70-36.167s70 12.833 70 36.167v16.333z"></path>
</svg>
