<!-- Generated by IcoMoon.io -->
<svg version="1.1" xmlns="http://www.w3.org/2000/svg" width="280" height="280" viewBox="0 0 280 280">
<title>mt-attachment</title>
<path fill="#ebebeb" d="M23.333 145.833c0-35.467 28.7-64.167 64.167-64.167h122.5c25.783 0 46.667 20.883 46.667 46.667s-20.883 46.667-46.667 46.667h-99.167c-16.1 0-29.167-13.067-29.167-29.167s13.067-29.167 29.167-29.167h87.5v23.333h-88.55c-6.417 0-6.417 11.667 0 11.667h100.217c12.833 0 23.333-10.5 23.333-23.333s-10.5-23.333-23.333-23.333h-122.5c-22.517 0-40.833 18.317-40.833 40.833s18.317 40.833 40.833 40.833h110.833v23.333h-110.833c-35.467 0-64.167-28.7-64.167-64.167v0z"></path>
</svg>
