<!-- Generated by IcoMoon.io -->
<svg version="1.1" xmlns="http://www.w3.org/2000/svg" width="280" height="280" viewBox="0 0 280 280">
<title>mt-adjust</title>
<path fill="#ebebeb" d="M140 23.333c-64.283 0-116.667 52.383-116.667 116.667s52.383 116.667 116.667 116.667c64.283 0 116.667-52.383 116.667-116.667s-52.383-116.667-116.667-116.667v0zM140 233.333c-51.45 0-93.333-41.883-93.333-93.333s41.883-93.333 93.333-93.333c51.45 0 93.333 41.883 93.333 93.333s-41.883 93.333-93.333 93.333v0zM175 140c0 19.367-15.633 35-35 35s-35-15.633-35-35c0-19.367 15.633-35 35-35s35 15.633 35 35v0z"></path>
</svg>
