<!-- Generated by IcoMoon.io -->
<svg version="1.1" xmlns="http://www.w3.org/2000/svg" width="280" height="280" viewBox="0 0 280 280">
<title>mt-art_track</title>
<path fill="#ebebeb" d="M256.667 151.667h-93.333v-23.333h93.333v23.333zM256.667 81.667h-93.333v23.333h93.333v-23.333zM163.333 198.333h93.333v-23.333h-93.333v23.333zM140 105v70c0 12.833-10.5 23.333-23.333 23.333h-70c-12.833 0-23.333-10.5-23.333-23.333v-70c0-12.833 10.5-23.333 23.333-23.333h70c12.833 0 23.333 10.5 23.333 23.333v0zM122.5 175l-26.25-35-20.417 26.367-14.583-17.617-20.417 26.25h81.667z"></path>
</svg>
