<!-- Generated by IcoMoon.io -->
<svg version="1.1" xmlns="http://www.w3.org/2000/svg" width="280" height="280" viewBox="0 0 280 280">
<title>mt-business_center</title>
<path fill="#ebebeb" d="M116.667 186.667v-11.667h-81.55l-0.117 46.667c0 12.95 10.383 23.333 23.333 23.333h163.333c12.95 0 23.333-10.383 23.333-23.333v-46.667h-81.667v11.667h-46.667zM233.333 81.667h-46.783v-23.333l-23.333-23.333h-46.667l-23.333 23.333v23.333h-46.55c-12.833 0-23.333 10.5-23.333 23.333v35c0 12.95 10.383 23.333 23.333 23.333h70v-23.333h46.667v23.333h70c12.833 0 23.333-10.5 23.333-23.333v-35c0-12.833-10.5-23.333-23.333-23.333v0zM163.333 81.667h-46.667v-23.333h46.667v23.333z"></path>
</svg>
