<!-- Generated by IcoMoon.io -->
<svg version="1.1" xmlns="http://www.w3.org/2000/svg" width="280" height="280" viewBox="0 0 280 280">
<title>mt-border_left</title>
<path fill="#ebebeb" d="M128.333 245h23.333v-23.333h-23.333v23.333zM128.333 198.333h23.333v-23.333h-23.333v23.333zM128.333 58.333h23.333v-23.333h-23.333v23.333zM128.333 105h23.333v-23.333h-23.333v23.333zM128.333 151.667h23.333v-23.333h-23.333v23.333zM81.667 245h23.333v-23.333h-23.333v23.333zM81.667 58.333h23.333v-23.333h-23.333v23.333zM81.667 151.667h23.333v-23.333h-23.333v23.333zM35 245h23.333v-210h-23.333v210zM221.667 105h23.333v-23.333h-23.333v23.333zM175 245h23.333v-23.333h-23.333v23.333zM221.667 198.333h23.333v-23.333h-23.333v23.333zM221.667 35v23.333h23.333v-23.333h-23.333zM221.667 151.667h23.333v-23.333h-23.333v23.333zM221.667 245h23.333v-23.333h-23.333v23.333zM175 151.667h23.333v-23.333h-23.333v23.333zM175 58.333h23.333v-23.333h-23.333v23.333z"></path>
</svg>
