<!-- Generated by IcoMoon.io -->
<svg version="1.1" xmlns="http://www.w3.org/2000/svg" width="280" height="280" viewBox="0 0 280 280">
<title>mt-beach_access</title>
<path fill="#ebebeb" d="M153.148 169.869l16.683-16.683 75.133 75.168-16.648 16.648-75.168-75.133zM203.233 103.019l33.367-33.367c-46.083-46.083-120.75-46.2-166.834-0.233 45.85-15.167 96.95-2.917 133.467 33.6v0zM69.416 69.769c-45.967 46.083-45.85 120.75 0.233 166.833l33.367-33.367c-36.517-36.517-48.767-87.616-33.6-133.466v0zM69.65 69.536l-0.117 0.117c-4.433 35.117 13.65 80.266 50.167 116.9l66.85-66.85c-36.517-36.516-81.784-54.6-116.9-50.166v0z"></path>
</svg>
