<!-- Generated by IcoMoon.io -->
<svg version="1.1" xmlns="http://www.w3.org/2000/svg" width="280" height="280" viewBox="0 0 280 280">
<title>mt-cloud_queue</title>
<path fill="#ebebeb" d="M225.75 117.133c-7.933-40.25-43.283-70.467-85.75-70.467-33.717 0-63 19.133-77.583 47.133-35.117 3.733-62.417 33.483-62.417 69.533 0 38.617 31.383 70 70 70h151.667c32.2 0 58.333-26.133 58.333-58.333 0-30.8-23.917-55.767-54.25-57.867v0zM221.667 210h-151.667c-25.783 0-46.667-20.883-46.667-46.667s20.883-46.667 46.667-46.667h8.283c7.7-26.95 32.317-46.667 61.717-46.667 35.467 0 64.167 28.7 64.167 64.167v5.833h17.5c19.367 0 35 15.633 35 35s-15.633 35-35 35v0z"></path>
</svg>
