<!-- Generated by IcoMoon.io -->
<svg version="1.1" xmlns="http://www.w3.org/2000/svg" width="280" height="280" viewBox="0 0 280 280">
<title>mt-child_friendly</title>
<path fill="#ebebeb" d="M151.667 23.333v93.333h93.333c0-51.567-41.767-93.333-93.333-93.333v0zM225.4 185.383c12.25-15.75 19.6-35.583 19.6-57.050h-169.867l-11.083-23.333h-40.717v23.333h25.9c-48.067-128.333 22.050 47.483 24.733 51.567-12.833 6.883-21.467 20.417-21.467 35.933 0 22.517 18.317 40.833 40.833 40.833 20.533 0 37.567-15.167 40.367-35h24.267c2.8 19.833 19.833 35 40.367 35 22.517 0 40.833-18.317 40.833-40.833 0-12.133-5.367-22.983-13.767-30.45v0zM93.333 233.333c-9.683 0-17.5-7.817-17.5-17.5s7.817-17.5 17.5-17.5c9.683 0 17.5 7.817 17.5 17.5s-7.817 17.5-17.5 17.5v0zM198.333 233.333c-9.683 0-17.5-7.817-17.5-17.5s7.817-17.5 17.5-17.5c9.683 0 17.5 7.817 17.5 17.5s-7.817 17.5-17.5 17.5v0z"></path>
</svg>
