<!-- Generated by IcoMoon.io -->
<svg version="1.1" xmlns="http://www.w3.org/2000/svg" width="280" height="280" viewBox="0 0 280 280">
<title>mt-cached</title>
<path fill="#ebebeb" d="M221.667 93.333l-46.667 46.667h35c0 38.617-31.383 70-70 70-11.783 0-22.983-2.917-32.667-8.167l-17.033 17.033c14.35 9.1 31.383 14.467 49.7 14.467 51.567 0 93.333-41.767 93.333-93.333h35l-46.667-46.667zM70 140c0-38.617 31.383-70 70-70 11.783 0 22.983 2.917 32.667 8.167l17.033-17.033c-14.35-9.1-31.383-14.467-49.7-14.467-51.567 0-93.333 41.767-93.333 93.333h-35l46.667 46.667 46.667-46.667h-35z"></path>
</svg>
