<!-- Generated by IcoMoon.io -->
<svg version="1.1" xmlns="http://www.w3.org/2000/svg" width="280" height="280" viewBox="0 0 280 280">
<title>mt-disc_full</title>
<path fill="#ebebeb" d="M233.333 186.667h23.333v-23.333h-23.333v23.333zM233.333 81.667v58.333h23.333v-58.333h-23.333zM116.667 46.667c-51.567 0-93.333 41.767-93.333 93.333s41.767 93.333 93.333 93.333c51.567 0 93.333-41.767 93.333-93.333s-41.767-93.333-93.333-93.333v0zM116.667 163.333c-12.833 0-23.333-10.5-23.333-23.333s10.5-23.333 23.333-23.333c12.833 0 23.333 10.5 23.333 23.333s-10.5 23.333-23.333 23.333v0z"></path>
</svg>
