<!-- Generated by IcoMoon.io -->
<svg version="1.1" xmlns="http://www.w3.org/2000/svg" width="280" height="280" viewBox="0 0 280 280">
<title>mt-dvr</title>
<path fill="#ebebeb" d="M245 35h-210c-12.833 0-23.333 10.5-23.333 23.333v140c0 12.833 10.5 23.333 23.333 23.333h58.333v23.333h93.333v-23.333h58.333c12.833 0 23.217-10.5 23.217-23.333l0.117-140c0-12.833-10.5-23.333-23.333-23.333v0zM245 198.333h-210v-140h210v140zM221.667 93.333h-128.333v23.333h128.333v-23.333zM221.667 140h-128.333v23.333h128.333v-23.333zM81.667 93.333h-23.333v23.333h23.333v-23.333zM81.667 140h-23.333v23.333h23.333v-23.333z"></path>
</svg>
