<!-- Generated by IcoMoon.io -->
<svg version="1.1" xmlns="http://www.w3.org/2000/svg" width="280" height="280" viewBox="0 0 280 280">
<title>mt-dialpad</title>
<path fill="#ebebeb" d="M140 221.667c-12.833 0-23.333 10.5-23.333 23.333s10.5 23.333 23.333 23.333c12.833 0 23.333-10.5 23.333-23.333s-10.5-23.333-23.333-23.333v0zM70 11.667c-12.833 0-23.333 10.5-23.333 23.333s10.5 23.333 23.333 23.333c12.833 0 23.333-10.5 23.333-23.333s-10.5-23.333-23.333-23.333v0zM70 81.667c-12.833 0-23.333 10.5-23.333 23.333s10.5 23.333 23.333 23.333c12.833 0 23.333-10.5 23.333-23.333s-10.5-23.333-23.333-23.333v0zM70 151.667c-12.833 0-23.333 10.5-23.333 23.333s10.5 23.333 23.333 23.333c12.833 0 23.333-10.5 23.333-23.333s-10.5-23.333-23.333-23.333v0zM210 58.333c12.833 0 23.333-10.5 23.333-23.333s-10.5-23.333-23.333-23.333c-12.833 0-23.333 10.5-23.333 23.333s10.5 23.333 23.333 23.333v0zM140 151.667c-12.833 0-23.333 10.5-23.333 23.333s10.5 23.333 23.333 23.333c12.833 0 23.333-10.5 23.333-23.333s-10.5-23.333-23.333-23.333v0zM210 151.667c-12.833 0-23.333 10.5-23.333 23.333s10.5 23.333 23.333 23.333c12.833 0 23.333-10.5 23.333-23.333s-10.5-23.333-23.333-23.333v0zM210 81.667c-12.833 0-23.333 10.5-23.333 23.333s10.5 23.333 23.333 23.333c12.833 0 23.333-10.5 23.333-23.333s-10.5-23.333-23.333-23.333v0zM140 81.667c-12.833 0-23.333 10.5-23.333 23.333s10.5 23.333 23.333 23.333c12.833 0 23.333-10.5 23.333-23.333s-10.5-23.333-23.333-23.333v0zM140 11.667c-12.833 0-23.333 10.5-23.333 23.333s10.5 23.333 23.333 23.333c12.833 0 23.333-10.5 23.333-23.333s-10.5-23.333-23.333-23.333v0z"></path>
</svg>
