<!-- Generated by IcoMoon.io -->
<svg version="1.1" xmlns="http://www.w3.org/2000/svg" width="280" height="280" viewBox="0 0 280 280">
<title>mt-domain</title>
<path fill="#ebebeb" d="M140 81.667v-46.667h-116.667v210h233.333v-163.333h-116.667zM70 221.667h-23.333v-23.333h23.333v23.333zM70 175h-23.333v-23.333h23.333v23.333zM70 128.333h-23.333v-23.333h23.333v23.333zM70 81.667h-23.333v-23.333h23.333v23.333zM116.667 221.667h-23.333v-23.333h23.333v23.333zM116.667 175h-23.333v-23.333h23.333v23.333zM116.667 128.333h-23.333v-23.333h23.333v23.333zM116.667 81.667h-23.333v-23.333h23.333v23.333zM233.333 221.667h-93.333v-23.333h23.333v-23.333h-23.333v-23.333h23.333v-23.333h-23.333v-23.333h93.333v116.667zM210 128.333h-23.333v23.333h23.333v-23.333zM210 175h-23.333v23.333h23.333v-23.333z"></path>
</svg>
