<!-- Generated by IcoMoon.io -->
<svg version="1.1" xmlns="http://www.w3.org/2000/svg" width="280" height="280" viewBox="0 0 280 280">
<title>mt-event_busy</title>
<path fill="#ebebeb" d="M108.617 198.333l28.467-28.467 28.467 28.467 12.367-12.367-28.467-28.467 28.467-28.467-12.367-12.367-28.467 28.467-28.467-28.467-12.367 12.367 28.467 28.467-28.467 28.467 12.367 12.367zM221.667 35h-11.667v-23.333h-23.333v23.333h-93.333v-23.333h-23.333v23.333h-11.667c-12.95 0-23.217 10.5-23.217 23.333l-0.117 163.333c0 12.833 10.383 23.333 23.333 23.333h163.333c12.833 0 23.333-10.5 23.333-23.333v-163.333c0-12.833-10.5-23.333-23.333-23.333v0zM221.667 221.667h-163.333v-128.333h163.333v128.333z"></path>
</svg>
