<!-- Generated by IcoMoon.io -->
<svg version="1.1" xmlns="http://www.w3.org/2000/svg" width="280" height="280" viewBox="0 0 280 280">
<title>mt-extension</title>
<path fill="#ebebeb" d="M239.167 128.333h-17.5v-46.667c0-12.833-10.5-23.333-23.333-23.333h-46.667v-17.5c0-16.1-13.067-29.167-29.167-29.167s-29.167 13.067-29.167 29.167v17.5h-46.667c-12.833 0-23.217 10.5-23.217 23.333v44.333h17.383c17.383 0 31.5 14.117 31.5 31.5s-14.117 31.5-31.5 31.5h-17.5v44.333c0 12.833 10.5 23.333 23.333 23.333h44.333v-17.5c0-17.383 14.117-31.5 31.5-31.5s31.5 14.117 31.5 31.5v17.5h44.333c12.833 0 23.333-10.5 23.333-23.333v-46.667h17.5c16.1 0 29.167-13.067 29.167-29.167s-13.067-29.167-29.167-29.167v0z"></path>
</svg>
