<!-- Generated by IcoMoon.io -->
<svg version="1.1" xmlns="http://www.w3.org/2000/svg" width="280" height="280" viewBox="0 0 280 280">
<title>mt-forward_10</title>
<path fill="#ebebeb" d="M46.667 151.667c0 51.333 42 93.333 93.333 93.333s93.333-42 93.333-93.333h-23.333c0 38.5-31.5 70-70 70s-70-31.5-70-70c0-38.5 31.5-70 70-70v46.667l58.333-58.333-58.333-58.333v46.667c-51.333 0-93.333 42-93.333 93.333v0zM126.545 186.667h-9.878v-38.076l-11.792 3.657v-8.032l20.611-7.383h1.059v49.834zM176.208 166.090c0 6.882-1.425 12.145-4.272 15.791s-7.019 5.469-12.51 5.469c-5.423 0-9.57-1.789-12.441-5.367-2.871-3.577-4.34-8.705-4.409-15.38v-9.161c0-6.95 1.441-12.224 4.324-15.825s7.035-5.4 12.459-5.4c5.423 0 9.57 1.783 12.441 5.349 2.871 3.565 4.341 8.687 4.409 15.364v9.16zM166.329 156.042c0-4.124-0.564-7.126-1.692-9.007-1.128-1.88-2.887-2.82-5.28-2.82-2.324 0-4.039 0.895-5.144 2.683-1.106 1.789-1.693 4.586-1.76 8.391v12.101c0 4.055 0.552 7.069 1.658 9.040 1.105 1.97 2.877 2.956 5.314 2.956 2.416 0 4.159-0.946 5.23-2.837s1.629-4.785 1.674-8.681v-11.826z"></path>
</svg>
