<!-- Generated by IcoMoon.io -->
<svg version="1.1" xmlns="http://www.w3.org/2000/svg" width="280" height="280" viewBox="0 0 280 280">
<title>mt-format_shapes</title>
<path fill="#ebebeb" d="M268.333 81.667v-70h-70v23.333h-116.667v-23.333h-70v70h23.333v116.667h-23.333v70h70v-23.333h116.667v23.333h70v-70h-23.333v-116.667h23.333zM35 35h23.333v23.333h-23.333v-23.333zM58.333 245h-23.333v-23.333h23.333v23.333zM198.333 221.667h-116.667v-23.333h-23.333v-116.667h23.333v-23.333h116.667v23.333h23.333v116.667h-23.333v23.333zM245 245h-23.333v-23.333h23.333v23.333zM221.667 58.333v-23.333h23.333v23.333h-23.333zM160.183 163.333h-40.717l-8.517 23.333h-18.9l39.667-105h16.333l39.783 105h-19.017l-8.633-23.333zM124.717 148.633h30.45l-15.167-44.683-15.283 44.683z"></path>
</svg>
