<!-- Generated by IcoMoon.io -->
<svg version="1.1" xmlns="http://www.w3.org/2000/svg" width="280" height="280" viewBox="0 0 280 280">
<title>mt-fingerprint</title>
<path fill="#ebebeb" d="M207.783 52.15c-0.933 0-1.867-0.233-2.683-0.7-22.4-11.55-41.767-16.45-64.983-16.45-23.1 0-45.034 5.483-64.984 16.45-2.8 1.517-6.3 0.467-7.933-2.333-1.517-2.8-0.467-6.417 2.333-7.933 21.7-11.783 45.5-17.85 70.584-17.85 24.85 0 46.55 5.483 70.35 17.733 2.917 1.517 3.967 5.017 2.45 7.817-1.050 2.1-3.033 3.267-5.133 3.267v0zM40.833 113.4c-1.167 0-2.333-0.35-3.383-1.050-2.683-1.867-3.267-5.483-1.4-8.167 11.55-16.333 26.25-29.167 43.75-38.15 36.633-18.9 83.534-19.017 120.284-0.117 17.5 8.983 32.2 21.7 43.75 37.917 1.867 2.567 1.283 6.3-1.4 8.167s-6.3 1.283-8.167-1.4c-10.5-14.7-23.8-26.25-39.55-34.3-33.483-17.15-76.3-17.15-109.667 0.117-15.867 8.167-29.167 19.833-39.667 34.533-0.933 1.633-2.683 2.45-4.55 2.45v0zM113.75 254.217c-1.517 0-3.033-0.583-4.083-1.75-10.15-10.15-15.633-16.683-23.45-30.8-8.050-14.35-12.25-31.85-12.25-50.633 0-34.65 29.633-62.883 66.034-62.883s66.033 28.233 66.033 62.883c0 3.267-2.567 5.833-5.833 5.833s-5.833-2.567-5.833-5.833c0-28.233-24.383-51.217-54.367-51.217s-54.367 22.983-54.367 51.217c0 16.8 3.733 32.317 10.85 44.917 7.467 13.417 12.6 19.133 21.584 28.233 2.217 2.333 2.217 5.95 0 8.283-1.283 1.167-2.8 1.75-4.317 1.75v0zM197.4 232.633c-13.883 0-26.133-3.5-36.167-10.383-17.383-11.783-27.767-30.917-27.767-51.217 0-3.267 2.567-5.833 5.833-5.833s5.833 2.567 5.833 5.833c0 16.45 8.4 31.967 22.633 41.533 8.283 5.6 17.967 8.283 29.633 8.283 2.8 0 7.467-0.35 12.133-1.167 3.15-0.583 6.183 1.517 6.767 4.783 0.583 3.15-1.517 6.183-4.783 6.767-6.65 1.283-12.483 1.4-14.117 1.4v0zM173.95 256.667c-0.467 0-1.050-0.117-1.517-0.233-18.55-5.133-30.683-12.017-43.4-24.5-16.334-16.217-25.317-37.8-25.317-60.9 0-18.9 16.1-34.3 35.934-34.3s35.933 15.4 35.933 34.3c0 12.483 10.85 22.633 24.267 22.633s24.267-10.15 24.267-22.633c0-43.983-37.917-79.683-84.583-79.683-33.134 0-63.467 18.433-77.117 47.017-4.55 9.45-6.884 20.533-6.884 32.667 0 9.1 0.817 23.45 7.817 42.117 1.167 3.033-0.35 6.417-3.383 7.467-3.033 1.167-6.417-0.467-7.467-3.383-5.717-15.283-8.517-30.45-8.517-46.2 0-14 2.683-26.717 7.933-37.8 15.517-32.55 49.933-53.667 87.617-53.667 53.083 0 96.25 40.95 96.25 91.35 0 18.9-16.1 34.3-35.933 34.3s-35.933-15.4-35.933-34.3c0-12.483-10.85-22.633-24.267-22.633s-24.267 10.15-24.267 22.633c0 19.95 7.7 38.617 21.817 52.617 11.083 10.967 21.7 17.033 38.15 21.583 3.15 0.817 4.9 4.083 4.083 7.117-0.583 2.683-3.033 4.433-5.483 4.433v0z"></path>
</svg>
