<!-- Generated by IcoMoon.io -->
<svg version="1.1" xmlns="http://www.w3.org/2000/svg" width="280" height="280" viewBox="0 0 280 280">
<title>mt-forward_5</title>
<path fill="#ebebeb" d="M46.667 151.667c0 51.333 42 93.333 93.333 93.333s93.333-42 93.333-93.333h-23.333c0 38.5-31.5 70-70 70s-70-31.5-70-70c0-38.5 31.5-70 70-70v46.667l58.333-58.333-58.333-58.333v46.667c-51.333 0-93.333 42-93.333 93.333v0zM121.52 162.194l2.871-25.292h27.89v8.237h-19.79l-1.23 10.698c2.346-1.253 4.842-1.88 7.485-1.88 4.739 0 8.454 1.47 11.143 4.409 2.688 2.94 4.033 7.053 4.033 12.339 0 3.213-0.678 6.090-2.035 8.631-1.356 2.541-3.298 4.511-5.828 5.913s-5.514 2.102-8.954 2.102c-3.009 0-5.8-0.61-8.374-1.828-2.575-1.219-4.608-2.934-6.102-5.145-1.492-2.21-2.284-4.727-2.375-7.553h9.775c0.205 2.073 0.929 3.685 2.17 4.836 1.243 1.151 2.865 1.727 4.871 1.727 2.233 0 3.954-0.804 5.161-2.41s1.812-3.879 1.812-6.818c0-2.826-0.695-4.991-2.085-6.495-1.391-1.504-3.361-2.255-5.914-2.255-2.346 0-4.249 0.615-5.707 1.846l-0.958 0.888-7.861-1.948z"></path>
</svg>
