<!-- Generated by IcoMoon.io -->
<svg version="1.1" xmlns="http://www.w3.org/2000/svg" width="280" height="280" viewBox="0 0 280 280">
<title>mt-fiber_pin</title>
<path fill="#ebebeb" d="M64.167 122.5h23.333v11.667h-23.333v-11.667zM233.333 46.667h-186.667c-12.95 0-23.217 10.383-23.217 23.333l-0.117 140c0 12.95 10.383 23.333 23.333 23.333h186.667c12.95 0 23.333-10.383 23.333-23.333v-140c0-12.95-10.383-23.333-23.333-23.333v0zM105 134.167c0 9.917-7.583 17.5-17.5 17.5h-23.333v23.333h-17.5v-70h40.833c9.917 0 17.5 7.583 17.5 17.5v11.667zM145.833 175h-17.5v-70h17.5v70zM233.333 175h-14l-29.75-40.833v40.833h-14.583v-70h14.583l29.167 40.833v-40.833h14.583v70z"></path>
</svg>
