<!-- Generated by IcoMoon.io -->
<svg version="1.1" xmlns="http://www.w3.org/2000/svg" width="280" height="280" viewBox="0 0 280 280">
<title>mt-flip_to_back</title>
<path fill="#ebebeb" d="M105 81.667h-23.333v23.333h23.333v-23.333zM105 128.333h-23.333v23.333h23.333v-23.333zM105 35c-12.95 0-23.333 10.5-23.333 23.333h23.333v-23.333zM151.667 175h-23.333v23.333h23.333v-23.333zM221.667 35v23.333h23.333c0-12.833-10.5-23.333-23.333-23.333v0zM151.667 35h-23.333v23.333h23.333v-23.333zM105 198.333v-23.333h-23.333c0 12.833 10.383 23.333 23.333 23.333v0zM221.667 151.667h23.333v-23.333h-23.333v23.333zM221.667 105h23.333v-23.333h-23.333v23.333zM221.667 198.333c12.833 0 23.333-10.5 23.333-23.333h-23.333v23.333zM58.333 81.667h-23.333v140c0 12.833 10.383 23.333 23.333 23.333h140v-23.333h-140v-140zM175 58.333h23.333v-23.333h-23.333v23.333zM175 198.333h23.333v-23.333h-23.333v23.333z"></path>
</svg>
