<!-- Generated by IcoMoon.io -->
<svg version="1.1" xmlns="http://www.w3.org/2000/svg" width="280" height="280" viewBox="0 0 280 280">
<title>mt-fitness_center</title>
<path fill="#ebebeb" d="M239.983 173.367l16.683-16.683-16.683-16.683-41.65 41.65-99.983-99.983 41.65-41.65-16.683-16.683-16.683 16.683-16.683-16.683-24.967 24.967-16.683-16.683-16.683 16.683 16.683 16.683-24.967 24.967 16.683 16.683-16.683 16.683 16.683 16.683 41.65-41.65 99.983 99.983-41.65 41.65 16.683 16.683 16.683-16.683 16.683 16.683 24.967-24.967 16.683 16.683 16.683-16.683-16.683-16.683 24.967-24.967-16.683-16.683z"></path>
</svg>
