<!-- Generated by IcoMoon.io -->
<svg version="1.1" xmlns="http://www.w3.org/2000/svg" width="280" height="280" viewBox="0 0 280 280">
<title>mt-gps_not_fixed</title>
<path fill="#ebebeb" d="M244.3 128.333c-5.367-48.65-43.983-87.267-92.633-92.633v-24.033h-23.333v24.033c-48.65 5.367-87.267 43.983-92.633 92.633h-24.033v23.333h24.033c5.367 48.65 43.983 87.267 92.633 92.633v24.033h23.333v-24.033c48.65-5.367 87.267-43.983 92.633-92.633h24.033v-23.333h-24.033zM140 221.667c-45.15 0-81.667-36.517-81.667-81.667s36.517-81.667 81.667-81.667c45.15 0 81.667 36.517 81.667 81.667s-36.517 81.667-81.667 81.667v0z"></path>
</svg>
