<!-- Generated by IcoMoon.io -->
<svg version="1.1" xmlns="http://www.w3.org/2000/svg" width="280" height="280" viewBox="0 0 280 280">
<title>mt-grain</title>
<path fill="#ebebeb" d="M116.667 140c-12.833 0-23.333 10.5-23.333 23.333s10.5 23.333 23.333 23.333c12.833 0 23.333-10.5 23.333-23.333s-10.5-23.333-23.333-23.333v0zM70 93.333c-12.833 0-23.333 10.5-23.333 23.333s10.5 23.333 23.333 23.333c12.833 0 23.333-10.5 23.333-23.333s-10.5-23.333-23.333-23.333v0zM70 186.667c-12.833 0-23.333 10.5-23.333 23.333s10.5 23.333 23.333 23.333c12.833 0 23.333-10.5 23.333-23.333s-10.5-23.333-23.333-23.333v0zM210 93.333c12.833 0 23.333-10.5 23.333-23.333s-10.5-23.333-23.333-23.333c-12.833 0-23.333 10.5-23.333 23.333s10.5 23.333 23.333 23.333v0zM163.333 186.667c-12.833 0-23.333 10.5-23.333 23.333s10.5 23.333 23.333 23.333c12.833 0 23.333-10.5 23.333-23.333s-10.5-23.333-23.333-23.333v0zM210 140c-12.833 0-23.333 10.5-23.333 23.333s10.5 23.333 23.333 23.333c12.833 0 23.333-10.5 23.333-23.333s-10.5-23.333-23.333-23.333v0zM163.333 93.333c-12.833 0-23.333 10.5-23.333 23.333s10.5 23.333 23.333 23.333c12.833 0 23.333-10.5 23.333-23.333s-10.5-23.333-23.333-23.333v0zM116.667 46.667c-12.833 0-23.333 10.5-23.333 23.333s10.5 23.333 23.333 23.333c12.833 0 23.333-10.5 23.333-23.333s-10.5-23.333-23.333-23.333v0z"></path>
</svg>
