<!-- Generated by IcoMoon.io -->
<svg version="1.1" xmlns="http://www.w3.org/2000/svg" width="280" height="280" viewBox="0 0 280 280">
<title>mt-grid_on</title>
<path fill="#ebebeb" d="M233.333 23.333h-186.667c-12.833 0-23.333 10.5-23.333 23.333v186.667c0 12.833 10.5 23.333 23.333 23.333h186.667c12.833 0 23.333-10.5 23.333-23.333v-186.667c0-12.833-10.5-23.333-23.333-23.333v0zM93.333 233.333h-46.667v-46.667h46.667v46.667zM93.333 163.333h-46.667v-46.667h46.667v46.667zM93.333 93.333h-46.667v-46.667h46.667v46.667zM163.333 233.333h-46.667v-46.667h46.667v46.667zM163.333 163.333h-46.667v-46.667h46.667v46.667zM163.333 93.333h-46.667v-46.667h46.667v46.667zM233.333 233.333h-46.667v-46.667h46.667v46.667zM233.333 163.333h-46.667v-46.667h46.667v46.667zM233.333 93.333h-46.667v-46.667h46.667v46.667z"></path>
</svg>
