<!-- Generated by IcoMoon.io -->
<svg version="1.1" xmlns="http://www.w3.org/2000/svg" width="280" height="280" viewBox="0 0 280 280">
<title>mt-http</title>
<path fill="#ebebeb" d="M52.5 128.333h-23.333v-23.333h-17.5v70h17.5v-29.167h23.333v29.167h17.5v-70h-17.5v23.333zM81.667 122.5h17.5v52.5h17.5v-52.5h17.5v-17.5h-52.5v17.5zM145.833 122.5h17.5v52.5h17.5v-52.5h17.5v-17.5h-52.5v17.5zM250.833 105h-40.833v70h17.5v-23.333h23.333c9.333 0 17.5-8.167 17.5-17.5v-11.667c0-9.333-8.167-17.5-17.5-17.5v0zM250.833 134.167h-23.333v-11.667h23.333v11.667z"></path>
</svg>
