<!-- Generated by IcoMoon.io -->
<svg version="1.1" xmlns="http://www.w3.org/2000/svg" width="280" height="280" viewBox="0 0 280 280">
<title>mt-hearing</title>
<path fill="#ebebeb" d="M198.333 233.333c-3.383 0-6.533-0.7-8.867-1.75-8.283-4.317-14.117-10.267-19.95-27.767-5.95-18.2-17.15-26.717-27.883-35-9.217-7.117-18.783-14.467-27.067-29.517-6.183-11.2-9.567-23.45-9.567-34.3 0-32.667 25.667-58.333 58.333-58.333s58.333 25.667 58.333 58.333h23.333c0-45.85-35.817-81.667-81.667-81.667s-81.667 35.817-81.667 81.667c0 14.7 4.433 30.917 12.483 45.5 10.617 19.25 23.1 28.933 33.25 36.75 9.45 7.233 16.217 12.483 19.95 23.917 7 21.233 15.983 33.133 31.85 41.417 5.95 2.683 12.483 4.083 19.133 4.083 25.783 0 46.667-20.883 46.667-46.667h-23.333c0 12.833-10.5 23.333-23.333 23.333v0zM89.133 30.8l-16.567-16.567c-23.217 23.217-37.567 55.3-37.567 90.767s14.35 67.55 37.567 90.767l16.45-16.45c-18.9-19.017-30.683-45.267-30.683-74.317s11.783-55.3 30.8-74.2v0zM134.167 105c0 16.1 13.067 29.167 29.167 29.167s29.167-13.067 29.167-29.167c0-16.1-13.067-29.167-29.167-29.167s-29.167 13.067-29.167 29.167v0z"></path>
</svg>
