<!-- Generated by IcoMoon.io -->
<svg version="1.1" xmlns="http://www.w3.org/2000/svg" width="280" height="280" viewBox="0 0 280 280">
<title>mt-hdr_on</title>
<path fill="#ebebeb" d="M245 134.167v-11.667c0-9.333-8.167-17.5-17.5-17.5h-40.833v70h17.5v-23.333h12.833l10.5 23.333h17.5l-10.5-24.5c5.833-3.5 10.5-9.333 10.5-16.333v0zM227.5 134.167h-23.333v-11.667h23.333v11.667zM75.833 128.333h-23.333v-23.333h-17.5v70h17.5v-29.167h23.333v29.167h17.5v-70h-17.5v23.333zM151.667 105h-40.833v70h40.833c9.333 0 17.5-8.167 17.5-17.5v-35c0-9.333-8.167-17.5-17.5-17.5v0zM151.667 157.5h-23.333v-35h23.333v35z"></path>
</svg>
