<!-- Generated by IcoMoon.io -->
<svg version="1.1" xmlns="http://www.w3.org/2000/svg" width="280" height="280" viewBox="0 0 280 280">
<title>mt-location_city</title>
<path fill="#ebebeb" d="M175 128.333v-70l-35-35-35 35v23.333h-70v163.333h210v-116.667h-70zM81.667 221.667h-23.333v-23.333h23.333v23.333zM81.667 175h-23.333v-23.333h23.333v23.333zM81.667 128.333h-23.333v-23.333h23.333v23.333zM151.667 221.667h-23.333v-23.333h23.333v23.333zM151.667 175h-23.333v-23.333h23.333v23.333zM151.667 128.333h-23.333v-23.333h23.333v23.333zM151.667 81.667h-23.333v-23.333h23.333v23.333zM221.667 221.667h-23.333v-23.333h23.333v23.333zM221.667 175h-23.333v-23.333h23.333v23.333z"></path>
</svg>
