<!-- Generated by IcoMoon.io -->
<svg version="1.1" xmlns="http://www.w3.org/2000/svg" width="280" height="280" viewBox="0 0 280 280">
<title>mt-loyalty</title>
<path fill="#ebebeb" d="M249.783 135.1l-105-105c-4.2-4.2-10.033-6.767-16.45-6.767h-81.667c-12.833 0-23.333 10.5-23.333 23.333v81.667c0 6.417 2.567 12.25 6.883 16.567l105 105c4.2 4.2 10.033 6.767 16.45 6.767s12.25-2.567 16.45-6.883l81.667-81.667c4.317-4.2 6.883-10.033 6.883-16.45s-2.683-12.367-6.883-16.567v0zM64.167 81.667c-9.683 0-17.5-7.817-17.5-17.5s7.817-17.5 17.5-17.5c9.683 0 17.5 7.817 17.5 17.5s-7.817 17.5-17.5 17.5v0zM201.483 178.15l-49.817 49.817-49.817-49.817c-5.25-5.367-8.517-12.6-8.517-20.65 0-16.1 13.067-29.167 29.167-29.167 8.050 0 15.4 3.267 20.65 8.633l8.517 8.4 8.517-8.517c5.25-5.25 12.6-8.517 20.65-8.517 16.1 0 29.167 13.067 29.167 29.167 0 8.050-3.267 15.4-8.517 20.65v0z"></path>
</svg>
