<!-- Generated by IcoMoon.io -->
<svg version="1.1" xmlns="http://www.w3.org/2000/svg" width="280" height="280" viewBox="0 0 280 280">
<title>mt-local_activity</title>
<path fill="#ebebeb" d="M233.333 140c0-12.833 10.5-23.333 23.333-23.333v-46.667c0-12.833-10.5-23.333-23.333-23.333h-186.667c-12.833 0-23.217 10.5-23.217 23.333v46.667c12.833 0 23.217 10.5 23.217 23.333s-10.383 23.333-23.333 23.333v46.667c0 12.833 10.5 23.333 23.333 23.333h186.667c12.833 0 23.333-10.5 23.333-23.333v-46.667c-12.833 0-23.333-10.5-23.333-23.333v0zM181.767 196l-41.767-26.833-41.767 26.833 12.6-48.067-38.383-31.383 49.467-2.917 18.083-45.967 17.967 46.083 49.467 2.917-38.383 31.383 12.717 47.95z"></path>
</svg>
