<!-- Generated by IcoMoon.io -->
<svg version="1.1" xmlns="http://www.w3.org/2000/svg" width="280" height="280" viewBox="0 0 280 280">
<title>mt-library_books</title>
<path fill="#ebebeb" d="M46.667 70h-23.333v163.333c0 12.833 10.5 23.333 23.333 23.333h163.333v-23.333h-163.333v-163.333zM233.333 23.333h-140c-12.833 0-23.333 10.5-23.333 23.333v140c0 12.833 10.5 23.333 23.333 23.333h140c12.833 0 23.333-10.5 23.333-23.333v-140c0-12.833-10.5-23.333-23.333-23.333v0zM221.667 128.333h-116.667v-23.333h116.667v23.333zM175 175h-70v-23.333h70v23.333zM221.667 81.667h-116.667v-23.333h116.667v23.333z"></path>
</svg>
