<!-- Generated by IcoMoon.io -->
<svg version="1.1" xmlns="http://www.w3.org/2000/svg" width="280" height="280" viewBox="0 0 280 280">
<title>mt-language</title>
<path fill="#ebebeb" d="M139.883 23.333c-64.4 0-116.55 52.267-116.55 116.667s52.15 116.667 116.55 116.667c64.517 0 116.783-52.267 116.783-116.667s-52.267-116.667-116.783-116.667v0zM220.733 93.333h-34.417c-3.733-14.583-9.1-28.583-16.1-41.533 21.467 7.35 39.317 22.283 50.517 41.533v0zM140 47.133c9.683 14 17.267 29.517 22.283 46.2h-44.567c5.017-16.683 12.6-32.2 22.283-46.2v0zM49.7 163.333c-1.867-7.467-3.033-15.283-3.033-23.333s1.167-15.867 3.033-23.333h39.433c-0.933 7.7-1.633 15.4-1.633 23.333s0.7 15.633 1.633 23.333h-39.433zM59.267 186.667h34.417c3.733 14.583 9.1 28.583 16.1 41.533-21.467-7.35-39.317-22.167-50.517-41.533v0zM93.683 93.333h-34.417c11.2-19.367 29.050-34.183 50.517-41.533-7 12.95-12.367 26.95-16.1 41.533v0zM140 232.867c-9.683-14-17.267-29.517-22.283-46.2h44.567c-5.017 16.683-12.6 32.2-22.283 46.2v0zM167.3 163.333h-54.6c-1.050-7.7-1.867-15.4-1.867-23.333s0.817-15.75 1.867-23.333h54.6c1.050 7.583 1.867 15.4 1.867 23.333s-0.817 15.633-1.867 23.333v0zM170.217 228.2c7-12.95 12.367-26.95 16.1-41.533h34.417c-11.2 19.25-29.050 34.183-50.517 41.533v0zM190.867 163.333c0.933-7.7 1.633-15.4 1.633-23.333s-0.7-15.633-1.633-23.333h39.433c1.867 7.467 3.033 15.283 3.033 23.333s-1.167 15.867-3.033 23.333h-39.433z"></path>
</svg>
