<!-- Generated by IcoMoon.io -->
<svg version="1.1" xmlns="http://www.w3.org/2000/svg" width="280" height="280" viewBox="0 0 280 280">
<title>mt-line_style</title>
<path fill="#ebebeb" d="M35 186.667h58.333v-23.333h-58.333v23.333zM110.833 186.667h58.333v-23.333h-58.333v23.333zM186.667 186.667h58.333v-23.333h-58.333v23.333zM35 233.333h23.333v-23.333h-23.333v23.333zM81.667 233.333h23.333v-23.333h-23.333v23.333zM128.333 233.333h23.333v-23.333h-23.333v23.333zM175 233.333h23.333v-23.333h-23.333v23.333zM221.667 233.333h23.333v-23.333h-23.333v23.333zM35 140h93.333v-23.333h-93.333v23.333zM151.667 140h93.333v-23.333h-93.333v23.333zM35 46.667v46.667h210v-46.667h-210z"></path>
</svg>
