<!-- Generated by IcoMoon.io -->
<svg version="1.1" xmlns="http://www.w3.org/2000/svg" width="280" height="280" viewBox="0 0 280 280">
<title>mt-local_mall</title>
<path fill="#ebebeb" d="M221.667 70h-23.333c0-32.2-26.133-58.333-58.333-58.333s-58.333 26.133-58.333 58.333h-23.333c-12.833 0-23.217 10.5-23.217 23.333l-0.117 140c0 12.833 10.5 23.333 23.333 23.333h163.333c12.833 0 23.333-10.5 23.333-23.333v-140c0-12.833-10.5-23.333-23.333-23.333v0zM140 35c19.367 0 35 15.633 35 35h-70c0-19.367 15.633-35 35-35v0zM140 151.667c-32.2 0-58.333-26.133-58.333-58.333h23.333c0 19.367 15.633 35 35 35s35-15.633 35-35h23.333c0 32.2-26.133 58.333-58.333 58.333v0z"></path>
</svg>
