<!-- Generated by IcoMoon.io -->
<svg version="1.1" xmlns="http://www.w3.org/2000/svg" width="280" height="280" viewBox="0 0 280 280">
<title>mt-musmt-video</title>
<path fill="#ebebeb" d="M245 35h-210c-12.833 0-23.333 10.5-23.333 23.333v163.333c0 12.833 10.5 23.333 23.333 23.333h210c12.833 0 23.333-10.5 23.333-23.333v-163.333c0-12.833-10.5-23.333-23.333-23.333v0zM245 221.667h-210v-163.333h210v163.333zM93.333 175c0-19.367 15.633-35 35-35 4.083 0 8.050 0.817 11.667 2.1v-72.1h58.333v23.333h-35v82.017c-0.233 19.133-15.75 34.65-35 34.65-19.367 0-35-15.633-35-35v0z"></path>
</svg>
