<!-- Generated by IcoMoon.io -->
<svg version="1.1" xmlns="http://www.w3.org/2000/svg" width="280" height="280" viewBox="0 0 280 280">
<title>mt-nfc</title>
<path fill="#ebebeb" d="M233.333 23.333h-186.667c-12.833 0-23.333 10.5-23.333 23.333v186.667c0 12.833 10.5 23.333 23.333 23.333h186.667c12.833 0 23.333-10.5 23.333-23.333v-186.667c0-12.833-10.5-23.333-23.333-23.333v0zM233.333 233.333h-186.667v-186.667h186.667v186.667zM210 70h-58.333c-12.833 0-23.333 10.5-23.333 23.333v26.6c-7 4.083-11.667 11.433-11.667 20.067 0 12.833 10.5 23.333 23.333 23.333s23.333-10.5 23.333-23.333c0-8.633-4.667-16.1-11.667-20.067v-26.6h35v93.333h-93.333v-93.333h23.333v-23.333h-46.667v140h140v-140z"></path>
</svg>
