<!-- Generated by IcoMoon.io -->
<svg version="1.1" xmlns="http://www.w3.org/2000/svg" width="280" height="280" viewBox="0 0 280 280">
<title>mt-network_check</title>
<path fill="#ebebeb" d="M185.5 58.335c-1.983 0-3.733 1.050-4.783 2.683l-0.817 1.75-60.433 135.917c-1.867 3.383-3.033 7.117-3.033 11.2 0 12.95 10.5 23.45 23.45 23.45 11.2 0 20.65-7.933 22.867-18.55l0.117-0.35 28.467-150.267c0-3.267-2.567-5.833-5.833-5.833v0zM11.667 105.002l23.333 23.334c33.6-33.6 79.217-47.6 122.85-42.234l13.883-31.267c-56.35-10.033-116.433 6.65-160.067 50.167v0zM245 128.336l23.333-23.334c-19.133-19.133-41.417-32.9-65.217-41.65l-6.183 32.9c17.5 7.233 33.833 17.85 48.067 32.084v0zM198.333 175.002l23.333-23.333c-9.333-9.333-19.833-16.567-31.033-22.050l-6.417 34.067c4.9 3.15 9.683 6.883 14.117 11.317v0zM58.333 151.669l23.333 23.333c13.183-13.183 29.867-20.883 47.017-23.333l14.933-33.6c-30.683-0.933-61.833 10.15-85.283 33.6v0z"></path>
</svg>
