<!-- Generated by IcoMoon.io -->
<svg version="1.1" xmlns="http://www.w3.org/2000/svg" width="280" height="280" viewBox="0 0 280 280">
<title>mt-perm_camera_mic</title>
<path fill="#ebebeb" d="M233.333 58.333h-36.983l-21.35-23.333h-70l-21.35 23.333h-36.983c-12.833 0-23.333 10.5-23.333 23.333v140c0 12.833 10.5 23.333 23.333 23.333h81.667v-24.383c-33.017-5.6-58.333-34.3-58.333-68.95h23.333c0 25.783 20.883 46.667 46.667 46.667s46.667-20.883 46.667-46.667h23.333c0 34.65-25.317 63.35-58.333 68.95v24.383h81.667c12.833 0 23.333-10.5 23.333-23.333v-140c0-12.833-10.5-23.333-23.333-23.333v0zM163.333 151.667c0 12.833-10.5 23.333-23.333 23.333s-23.333-10.5-23.333-23.333v-46.667c0-12.833 10.5-23.333 23.333-23.333s23.333 10.5 23.333 23.333v46.667z"></path>
</svg>
