<!-- Generated by IcoMoon.io -->
<svg version="1.1" xmlns="http://www.w3.org/2000/svg" width="280" height="280" viewBox="0 0 280 280">
<title>mt-pool</title>
<path fill="#ebebeb" d="M256.667 245.002c-12.95 0-20.183-4.317-25.433-7.467-4.317-2.567-7-4.2-13.417-4.2-6.533 0-9.1 1.517-13.417 4.2-5.367 3.15-12.483 7.467-25.433 7.467s-20.183-4.317-25.433-7.467c-4.317-2.567-7-4.2-13.417-4.2-6.533 0-9.1 1.517-13.417 4.2-5.367 3.15-12.6 7.467-25.55 7.467s-20.183-4.317-25.433-7.467c-4.317-2.683-7-4.2-13.417-4.2s-9.1 1.517-13.417 4.2c-5.367 3.15-12.6 7.467-25.55 7.467v-23.333c6.533 0 9.1-1.517 13.417-4.2 5.367-3.15 12.6-7.467 25.55-7.467s20.183 4.317 25.433 7.467c4.317 2.683 6.883 4.2 13.417 4.2s9.1-1.517 13.417-4.2c5.367-3.15 12.6-7.467 25.55-7.467s20.183 4.317 25.433 7.467c4.317 2.567 7 4.2 13.417 4.2s9.1-1.517 13.417-4.2c5.25-3.15 12.483-7.467 25.433-7.467s20.183 4.317 25.433 7.467c4.317 2.683 6.883 4.2 13.417 4.2v23.333zM256.667 192.502c-12.95 0-20.183-4.317-25.433-7.467-4.317-2.567-7-4.2-13.417-4.2-6.533 0-9.1 1.517-13.417 4.2-5.25 3.15-12.483 7.467-25.433 7.467s-20.183-4.317-25.433-7.467c-4.317-2.567-7-4.2-13.417-4.2-6.533 0-9.1 1.517-13.417 4.2-5.25 3.15-12.483 7.467-25.433 7.467s-20.183-4.317-25.433-7.467c-4.317-2.567-7-4.2-13.417-4.2s-9.1 1.517-13.417 4.2c-5.483 3.15-12.717 7.467-25.667 7.467v-23.333c6.533 0 9.1-1.517 13.417-4.2 5.25-3.15 12.483-7.467 25.433-7.467s20.183 4.317 25.433 7.467c4.317 2.567 7 4.2 13.417 4.2 6.533 0 9.1-1.517 13.417-4.2 5.25-3.15 12.483-7.467 25.433-7.467s20.183 4.317 25.433 7.467c4.317 2.567 7 4.2 13.417 4.2s9.1-1.517 13.417-4.2c5.25-3.15 12.483-7.467 25.433-7.467s20.183 4.317 25.433 7.467c4.317 2.567 7 4.2 13.417 4.2v23.333h0.233zM101.15 140.002c6.533 0 9.1-1.517 13.417-4.2 5.367-3.15 12.6-7.467 25.55-7.467s20.183 4.317 25.433 7.467c4.317 2.567 7 4.2 13.417 4.2s9.1-1.517 13.417-4.2c1.4-0.817 3.033-1.75 4.783-2.683l-74.9-74.784c-18.083-18.083-34.767-23.45-63.933-23.333v29.167c21.233-0.117 33.717 4.55 46.667 17.5l11.667 11.667-37.917 37.917c3.617 1.4 6.533 3.15 8.983 4.55 4.317 2.683 6.883 4.2 13.417 4.2v0z"></path>
<path fill="#ebebeb" d="M221.667 64.167c0 16.108-13.058 29.167-29.167 29.167s-29.167-13.058-29.167-29.167c0-16.108 13.058-29.167 29.167-29.167s29.167 13.058 29.167 29.167z"></path>
</svg>
