<!-- Generated by IcoMoon.io -->
<svg version="1.1" xmlns="http://www.w3.org/2000/svg" width="280" height="280" viewBox="0 0 280 280">
<title>mt-phone_forwarded</title>
<path fill="#ebebeb" d="M210 128.333l58.333-58.333-58.333-58.333v35h-46.667v46.667h46.667v35zM233.333 180.833c-14.583 0-28.583-2.333-41.65-6.65-4.083-1.283-8.633-0.35-11.9 2.8l-25.667 25.667c-33.017-16.8-60.083-43.75-76.883-76.883l25.667-25.783c3.267-3.033 4.2-7.583 2.917-11.667-4.317-13.067-6.65-27.067-6.65-41.65 0-6.417-5.25-11.667-11.667-11.667h-40.833c-6.417 0-11.667 5.25-11.667 11.667 0 109.55 88.783 198.333 198.333 198.333 6.417 0 11.667-5.25 11.667-11.667v-40.833c0-6.417-5.25-11.667-11.667-11.667v0z"></path>
</svg>
