<!-- Generated by IcoMoon.io -->
<svg version="1.1" xmlns="http://www.w3.org/2000/svg" width="280" height="280" viewBox="0 0 280 280">
<title>mt-panorama_horizontal</title>
<path fill="#ebebeb" d="M233.333 76.3v127.283c-30.333-8.983-61.6-13.533-93.333-13.533s-63 4.55-93.333 13.533v-127.283c30.333 8.983 61.6 13.533 93.333 13.533 31.733 0.117 63-4.433 93.333-13.533v0zM250.017 46.667c-1.167 0-2.333 0.233-3.617 0.7-34.3 12.833-70.35 19.133-106.4 19.133s-72.1-6.417-106.4-19.133c-1.283-0.467-2.567-0.7-3.617-0.7-3.967 0-6.65 2.683-6.65 7.35v172.083c0 4.55 2.683 7.233 6.65 7.233 1.167 0 2.333-0.233 3.617-0.7 34.3-12.833 70.35-19.133 106.4-19.133s72.1 6.417 106.4 19.133c1.283 0.467 2.45 0.7 3.617 0.7 3.85 0 6.65-2.683 6.65-7.35v-171.967c0-4.667-2.8-7.35-6.65-7.35v0z"></path>
</svg>
