<!-- Generated by IcoMoon.io -->
<svg version="1.1" xmlns="http://www.w3.org/2000/svg" width="280" height="280" viewBox="0 0 280 280">
<title>mt-rowing</title>
<path fill="#ebebeb" d="M99.167 169.167l-52.5 52.5 17.5 17.5 40.833-40.833h23.333l-29.167-29.167zM175 11.667c-12.833 0-23.333 10.5-23.333 23.333s10.5 23.333 23.333 23.333c12.833 0 23.333-10.5 23.333-23.333s-10.5-23.333-23.333-23.333v0zM245 245.117l-35 34.883-34.883-35.117v-17.383l-82.833-82.717c-3.617 0.583-7.117 0.817-10.617 0.817v-25.2c19.367 0.35 42.117-10.15 54.483-23.8l16.333-18.083c2.217-2.45 5.017-4.433 8.050-5.833 3.383-1.633 7.233-2.683 11.2-2.683h0.35c14.467 0.117 26.25 11.9 26.25 26.367v67.083c0 9.8-4.083 18.783-10.733 25.2l-41.767-41.767v-26.483c-7.35 6.067-16.683 11.9-26.717 16.217l73.383 73.383h17.5l35 35.117z"></path>
</svg>
