<!-- Generated by IcoMoon.io -->
<svg version="1.1" xmlns="http://www.w3.org/2000/svg" width="280" height="280" viewBox="0 0 280 280">
<title>mt-settings_system_daydream</title>
<path fill="#ebebeb" d="M105 186.667h75.833c16.1 0 29.167-13.067 29.167-29.167s-13.067-29.167-29.167-29.167h-0.583c-2.8-19.717-19.717-35-40.25-35-16.333 0-30.333 9.683-36.867 23.567h-1.867c-17.617 1.867-31.267 16.683-31.267 34.767 0 19.367 15.633 35 35 35v0zM245 35h-210c-12.833 0-23.333 10.5-23.333 23.333v163.333c0 12.833 10.5 23.333 23.333 23.333h210c12.833 0 23.333-10.5 23.333-23.333v-163.333c0-12.833-10.5-23.333-23.333-23.333v0zM245 221.783h-210v-163.567h210v163.567z"></path>
</svg>
