<!-- Generated by IcoMoon.io -->
<svg version="1.1" xmlns="http://www.w3.org/2000/svg" width="280" height="280" viewBox="0 0 280 280">
<title>mt-shopping_cart</title>
<path fill="#ebebeb" d="M81.667 210c-12.833 0-23.217 10.5-23.217 23.333s10.383 23.333 23.217 23.333c12.833 0 23.333-10.5 23.333-23.333s-10.5-23.333-23.333-23.333v0zM11.667 23.333v23.333h23.333l42 88.55-15.75 28.583c-1.867 3.267-2.917 7.117-2.917 11.2 0 12.833 10.5 23.333 23.333 23.333h140v-23.333h-135.1c-1.633 0-2.917-1.283-2.917-2.917l0.35-1.4 10.5-19.017h86.917c8.75 0 16.45-4.783 20.417-12.017l41.767-75.717c0.933-1.633 1.4-3.617 1.4-5.6 0-6.417-5.25-11.667-11.667-11.667h-172.55l-10.967-23.333h-38.15zM198.333 210c-12.833 0-23.217 10.5-23.217 23.333s10.383 23.333 23.217 23.333c12.833 0 23.333-10.5 23.333-23.333s-10.5-23.333-23.333-23.333v0z"></path>
</svg>
