<!-- Generated by IcoMoon.io -->
<svg version="1.1" xmlns="http://www.w3.org/2000/svg" width="280" height="280" viewBox="0 0 280 280">
<title>mt-speaker_phone</title>
<path fill="#ebebeb" d="M81.667 82.483l16.683 16.683c10.617-10.617 25.433-17.267 41.65-17.267s31.033 6.65 41.65 17.267l16.683-16.683c-14.933-14.933-35.583-24.15-58.333-24.15s-43.4 9.217-58.333 24.15v0zM140 11.667c-35.233 0-67.2 14.35-90.417 37.45l16.45 16.45c18.9-18.9 45.15-30.567 73.967-30.567s55.067 11.667 73.967 30.567l16.45-16.45c-23.217-23.1-55.183-37.45-90.417-37.45v0zM173.367 116.783l-66.733-0.117c-7.35 0-13.3 5.95-13.3 13.3v113.283c0 7.35 5.95 13.3 13.3 13.3h66.617c7.35 0 13.3-5.95 13.3-13.3v-113.283c0.117-7.35-5.833-13.183-13.183-13.183v0zM175 233.333h-70v-93.333h70v93.333z"></path>
</svg>
