<!-- Generated by IcoMoon.io -->
<svg version="1.1" xmlns="http://www.w3.org/2000/svg" width="280" height="280" viewBox="0 0 280 280">
<title>mt-slow_motion_video</title>
<path fill="#ebebeb" d="M152.25 114.217l-35.583-26.717v104.999l70-52.5-34.417-25.783zM152.25 114.217l-35.583-26.717v104.999l70-52.5-34.417-25.783zM152.25 114.217l-35.583-26.717v104.999l70-52.5-34.417-25.783zM128.333 47.484v-23.567c-23.449 2.333-44.799 11.667-62.066 25.783l16.567 16.683c12.95-10.033 28.467-16.8 45.499-18.9v0zM66.384 82.834l-16.683-16.567c-14.117 17.267-23.45 38.617-25.783 62.066h23.567c2.1-17.033 8.867-32.549 18.9-45.499v0zM47.484 151.667h-23.567c2.333 23.45 11.667 44.8 25.783 62.067l16.683-16.683c-10.033-12.833-16.8-28.35-18.9-45.383v0zM66.267 230.3c17.267 14.117 38.733 23.45 62.066 25.783v-23.567c-17.033-2.1-32.549-8.867-45.499-18.9l-16.567 16.683zM256.667 140c0 60.2-45.733 109.9-104.417 116.083v-23.567c45.733-6.067 81.083-45.267 81.083-92.517s-35.35-86.449-81.083-92.516v-23.567c58.683 6.183 104.417 55.883 104.417 116.083v0z"></path>
</svg>
