<!-- Generated by IcoMoon.io -->
<svg version="1.1" xmlns="http://www.w3.org/2000/svg" width="280" height="280" viewBox="0 0 280 280">
<title>mt-swap_calls</title>
<path fill="#ebebeb" d="M210 46.667l-46.667 46.667h35v81.667c0 12.833-10.5 23.333-23.333 23.333s-23.333-10.5-23.333-23.333v-81.667c0-25.783-20.883-46.667-46.667-46.667s-46.667 20.883-46.667 46.667v81.667h-35l46.667 46.667 46.667-46.667h-35v-81.667c0-12.833 10.5-23.333 23.333-23.333s23.333 10.5 23.333 23.333v81.667c0 25.783 20.883 46.667 46.667 46.667s46.667-20.883 46.667-46.667v-81.667h35l-46.667-46.667z"></path>
</svg>
