<!-- Generated by IcoMoon.io -->
<svg version="1.1" xmlns="http://www.w3.org/2000/svg" width="280" height="280" viewBox="0 0 280 280">
<title>mt-speaker_notes</title>
<path fill="#ebebeb" d="M233.333 23.333h-186.667c-12.833 0-23.217 10.5-23.217 23.333l-0.117 210 46.667-46.667h163.333c12.833 0 23.333-10.5 23.333-23.333v-140c0-12.833-10.5-23.333-23.333-23.333v0zM93.333 163.333h-23.333v-23.333h23.333v23.333zM93.333 128.333h-23.333v-23.333h23.333v23.333zM93.333 93.333h-23.333v-23.333h23.333v23.333zM175 163.333h-58.333v-23.333h58.333v23.333zM210 128.333h-93.333v-23.333h93.333v23.333zM210 93.333h-93.333v-23.333h93.333v23.333z"></path>
</svg>
