<!-- Generated by IcoMoon.io -->
<svg version="1.1" xmlns="http://www.w3.org/2000/svg" width="280" height="280" viewBox="0 0 280 280">
<title>mt-timelapse</title>
<path fill="#ebebeb" d="M189.467 90.533c-13.65-13.65-31.5-20.533-49.467-20.533v70l-49.467 49.467c27.3 27.3 71.633 27.3 99.050 0 27.3-27.3 27.3-71.633-0.117-98.933v0zM140 23.333c-64.4 0-116.667 52.267-116.667 116.667s52.267 116.667 116.667 116.667c64.4 0 116.667-52.267 116.667-116.667s-52.267-116.667-116.667-116.667v0zM140 233.333c-51.567 0-93.333-41.767-93.333-93.333s41.767-93.333 93.333-93.333c51.567 0 93.333 41.767 93.333 93.333s-41.767 93.333-93.333 93.333v0z"></path>
</svg>
