<!-- Generated by IcoMoon.io -->
<svg version="1.1" xmlns="http://www.w3.org/2000/svg" width="280" height="280" viewBox="0 0 280 280">
<title>mt-traffic</title>
<path fill="#ebebeb" d="M233.333 116.667h-35v-13.3c20.067-5.25 35-23.333 35-45.033h-35v-11.667c0-6.417-5.25-11.667-11.667-11.667h-93.333c-6.417 0-11.667 5.25-11.667 11.667v11.667h-35c0 21.7 14.933 39.783 35 45.033v13.3h-35c0 21.7 14.933 39.783 35 45.033v13.3h-35c0 21.7 14.933 39.783 35 45.033v13.3c0 6.417 5.25 11.667 11.667 11.667h93.333c6.417 0 11.667-5.25 11.667-11.667v-13.3c20.067-5.25 35-23.333 35-45.033h-35v-13.3c20.067-5.25 35-23.333 35-45.033v0zM140 221.667c-12.95 0-23.333-10.5-23.333-23.333s10.383-23.333 23.333-23.333c12.833 0 23.333 10.5 23.333 23.333s-10.383 23.333-23.333 23.333v0zM140 163.333c-12.95 0-23.333-10.5-23.333-23.333s10.383-23.333 23.333-23.333c12.833 0 23.333 10.5 23.333 23.333s-10.383 23.333-23.333 23.333v0zM140 105c-12.95 0-23.333-10.5-23.333-23.333 0-12.95 10.383-23.333 23.333-23.333 12.833 0 23.333 10.383 23.333 23.333 0 12.833-10.383 23.333-23.333 23.333v0z"></path>
</svg>
