<!-- Generated by IcoMoon.io -->
<svg version="1.1" xmlns="http://www.w3.org/2000/svg" width="280" height="280" viewBox="0 0 280 280">
<title>mt-voicemail</title>
<path fill="#ebebeb" d="M215.833 70c-35.467 0-64.167 28.7-64.167 64.167 0 15.517 5.483 29.75 14.7 40.833h-52.733c9.217-11.083 14.7-25.317 14.7-40.833 0-35.467-28.7-64.167-64.167-64.167s-64.167 28.7-64.167 64.167c0 35.467 28.7 64.167 64.167 64.167h151.667c35.467 0 64.167-28.7 64.167-64.167s-28.7-64.167-64.167-64.167v0zM64.167 175c-22.517 0-40.833-18.317-40.833-40.833s18.317-40.833 40.833-40.833c22.517 0 40.833 18.317 40.833 40.833s-18.317 40.833-40.833 40.833v0zM215.833 175c-22.517 0-40.833-18.317-40.833-40.833s18.317-40.833 40.833-40.833c22.517 0 40.833 18.317 40.833 40.833s-18.317 40.833-40.833 40.833v0z"></path>
</svg>
