<!-- Generated by IcoMoon.io -->
<svg version="1.1" xmlns="http://www.w3.org/2000/svg" width="280" height="280" viewBox="0 0 280 280">
<title>mt-view_agenda</title>
<path fill="#ebebeb" d="M233.333 151.667h-198.333c-6.417 0-11.667 5.25-11.667 11.667v70c0 6.417 5.25 11.667 11.667 11.667h198.333c6.417 0 11.667-5.25 11.667-11.667v-70c0-6.417-5.25-11.667-11.667-11.667v0zM233.333 35h-198.333c-6.417 0-11.667 5.25-11.667 11.667v70c0 6.417 5.25 11.667 11.667 11.667h198.333c6.417 0 11.667-5.25 11.667-11.667v-70c0-6.417-5.25-11.667-11.667-11.667v0z"></path>
</svg>
