<!-- Generated by IcoMoon.io -->
<svg version="1.1" xmlns="http://www.w3.org/2000/svg" width="280" height="280" viewBox="0 0 280 280">
<title>mt-whatshot</title>
<path fill="#ebebeb" d="M157.5 7.819c-156.333-7.817 8.633 30.917 8.633 56 0 24.033-15.75 43.517-39.783 43.517-24.15 0-42.35-19.483-42.35-43.517l0.35-4.2c-23.567 28-37.683 64.283-37.683 103.716 0 51.567 41.767 93.333 93.333 93.333s93.333-41.767 93.333-93.333c0-62.883-30.217-119-75.833-155.516v0zM136.617 221.669c-20.767 0-37.567-16.333-37.567-36.633 0-18.9 12.25-32.2 32.783-36.4 20.65-4.2 42-14.117 53.9-30.1 4.55 15.050 6.883 30.917 6.883 47.133 0 30.917-25.083 56-56 56v0z"></path>
</svg>
