<!-- Generated by IcoMoon.io -->
<svg version="1.1" xmlns="http://www.w3.org/2000/svg" width="280" height="280" viewBox="0 0 280 280">
<title>mt-wifi_tethering</title>
<path fill="#ebebeb" d="M140 128.333c-12.833 0-23.333 10.5-23.333 23.333s10.5 23.333 23.333 23.333c12.833 0 23.333-10.5 23.333-23.333s-10.5-23.333-23.333-23.333v0zM210 151.667c0-38.617-31.383-70-70-70s-70 31.383-70 70c0 25.9 14.117 48.417 35 60.55l11.667-20.3c-13.883-8.167-23.333-22.983-23.333-40.25 0-25.783 20.883-46.667 46.667-46.667s46.667 20.883 46.667 46.667c0 17.267-9.45 32.083-23.333 40.25l11.667 20.3c20.883-12.133 35-34.65 35-60.55v0zM140 35c-64.4 0-116.667 52.267-116.667 116.667 0 43.167 23.45 80.733 58.217 100.917l11.667-20.183c-27.767-16.217-46.55-46.2-46.55-80.733 0-51.567 41.767-93.333 93.333-93.333s93.333 41.767 93.333 93.333c0 34.533-18.783 64.517-46.667 80.733l11.667 20.183c34.883-20.183 58.333-57.75 58.333-100.917 0-64.4-52.267-116.667-116.667-116.667v0z"></path>
</svg>
