<!-- Generated by IcoMoon.io -->
<svg version="1.1" xmlns="http://www.w3.org/2000/svg" width="280" height="280" viewBox="0 0 280 280">
<title>ul-anchor</title>
<path fill="#ebebeb" d="M221.667 151.667h-23.333c-6.443 0-11.667 5.223-11.667 11.667s5.223 11.667 11.667 11.667v0h10.617c-5.121 29.344-27.939 52.162-56.864 57.223l-0.419 0.061v-103.95h11.667c6.443 0 11.667-5.223 11.667-11.667s-5.223-11.667-11.667-11.667v0h-11.667v-13.767c13.71-4.95 23.333-17.85 23.333-32.998 0-19.33-15.67-35-35-35s-35 15.67-35 35c0 15.148 9.623 28.048 23.090 32.921l0.244 0.077v13.767h-11.667c-6.443 0-11.667 5.223-11.667 11.667s5.223 11.667 11.667 11.667v0h11.667v103.95c-29.344-5.121-52.162-27.939-57.223-56.864l-0.061-0.419h10.617c6.443 0 11.667-5.223 11.667-11.667s-5.223-11.667-11.667-11.667v0h-23.333c-6.443 0-11.667 5.223-11.667 11.667v0c0 51.547 41.787 93.333 93.333 93.333s93.333-41.787 93.333-93.333v0c0-6.443-5.223-11.667-11.667-11.667v0zM140 70c-6.443 0-11.667-5.223-11.667-11.667s5.223-11.667 11.667-11.667c6.443 0 11.667 5.223 11.667 11.667v0c0 6.443-5.223 11.667-11.667 11.667v0z"></path>
</svg>
