<!-- Generated by IcoMoon.io -->
<svg version="1.1" xmlns="http://www.w3.org/2000/svg" width="280" height="280" viewBox="0 0 280 280">
<title>ul-android-phone-slash</title>
<path fill="#ebebeb" d="M131.717 206.617c2.114 2.131 5.045 3.451 8.283 3.451s6.169-1.32 8.283-3.45l0.001-0.001c0.997-1.094 1.822-2.367 2.417-3.763l0.033-0.088c0.591-1.305 0.936-2.829 0.936-4.433s-0.345-3.129-0.964-4.502l0.028 0.069c-0.628-1.483-1.453-2.756-2.46-3.861l0.010 0.011c-2.114-2.131-5.045-3.451-8.283-3.451s-6.169 1.32-8.283 3.45l-0.001 0.001c-0.997 1.094-1.822 2.367-2.417 3.762l-0.033 0.088c-0.591 1.305-0.936 2.829-0.936 4.433s0.345 3.129 0.964 4.502l-0.028-0.069c0.628 1.483 1.453 2.756 2.46 3.861l-0.010-0.011zM101.033 46.667h85.633c6.443 0 11.667 5.223 11.667 11.667v0 85.633c0 6.443 5.223 11.667 11.667 11.667s11.667-5.223 11.667-11.667v0-85.633c0-19.33-15.67-35-35-35v0h-85.633c-6.443 0-11.667 5.223-11.667 11.667s5.223 11.667 11.667 11.667v0zM253.283 236.717l-210-210c-2.12-2.12-5.048-3.431-8.283-3.431-6.47 0-11.714 5.245-11.714 11.714 0 3.235 1.311 6.164 3.431 8.283v0l31.617 31.5v146.883c0 19.33 15.67 35 35 35v0h93.333c14.389-0.012 26.744-8.705 32.113-21.123l0.087-0.227 17.85 17.967c2.114 2.131 5.045 3.451 8.283 3.451s6.169-1.32 8.283-3.45l0.001-0.001c2.131-2.114 3.451-5.045 3.451-8.283s-1.32-6.169-3.45-8.283l-0.001-0.001zM198.333 221.667c0 6.443-5.223 11.667-11.667 11.667v0h-93.333c-6.443 0-11.667-5.223-11.667-11.667v0-123.55l116.667 116.667z"></path>
</svg>
