<!-- Generated by IcoMoon.io -->
<svg version="1.1" xmlns="http://www.w3.org/2000/svg" width="280" height="280" viewBox="0 0 280 280">
<title>ul-airplay</title>
<path fill="#ebebeb" d="M149.683 156.917c-2.125-3.13-5.667-5.159-9.683-5.159s-7.559 2.029-9.657 5.119l-0.026 0.041-46.667 70c-0.983 1.673-1.563 3.686-1.563 5.833s0.581 4.16 1.593 5.888l-0.030-0.055c1.848 3.63 5.444 6.136 9.648 6.415l0.035 0.002h93.333c4.424-0.012 8.268-2.485 10.236-6.122l0.031-0.062c0.812-1.549 1.288-3.383 1.288-5.329 0-2.356-0.698-4.548-1.899-6.382l0.027 0.045zM115.15 221.667l24.85-37.333 24.85 37.333zM221.667 35h-163.333c-19.33 0-35 15.67-35 35v0 105c0 19.33 15.67 35 35 35v0h9.917c6.443 0 11.667-5.223 11.667-11.667s-5.223-11.667-11.667-11.667v0h-9.917c-6.443 0-11.667-5.223-11.667-11.667v0-105c0-6.443 5.223-11.667 11.667-11.667v0h163.333c6.443 0 11.667 5.223 11.667 11.667v0 105c0 6.443-5.223 11.667-11.667 11.667v0h-9.917c-6.443 0-11.667 5.223-11.667 11.667s5.223 11.667 11.667 11.667v0h9.917c19.33 0 35-15.67 35-35v0-105c0-19.33-15.67-35-35-35v0z"></path>
</svg>
