<!-- Generated by IcoMoon.io -->
<svg version="1.1" xmlns="http://www.w3.org/2000/svg" width="280" height="280" viewBox="0 0 280 280">
<title>ul-assistive-listening-systems</title>
<path fill="#ebebeb" d="M128.333 35c-45.103 0-81.667 36.564-81.667 81.667v0c0 6.443 5.223 11.667 11.667 11.667s11.667-5.223 11.667-11.667v0c0-32.217 26.117-58.333 58.333-58.333s58.333 26.117 58.333 58.333v0c-0.040 11.069-3.113 21.412-8.432 30.25l0.149-0.267-41.533 86.683c-4.106 7.017-11.601 11.657-20.182 11.667h-0.001c-12.887 0-23.333-10.447-23.333-23.333v0c0-6.443-5.223-11.667-11.667-11.667s-11.667 5.223-11.667 11.667v0c0 25.773 20.893 46.667 46.667 46.667v0c17.496-0.016 32.736-9.658 40.712-23.914l0.121-0.236 41.533-86.683c6.894-11.652 10.967-25.679 10.967-40.658 0-0.062 0-0.123-0-0.185v0.010c0-45.103-36.564-81.667-81.667-81.667v0zM46.667 175c-6.443 0-11.667 5.223-11.667 11.667s5.223 11.667 11.667 11.667c6.443 0 11.667-5.223 11.667-11.667v0c0-6.443-5.223-11.667-11.667-11.667v0zM205.217 14c-1.926-1.457-4.361-2.333-7-2.333-6.443 0-11.667 5.223-11.667 11.667 0 3.804 1.82 7.182 4.637 9.312l0.029 0.021c25.662 19.339 42.087 49.748 42.117 83.995v0.005c0 6.443 5.223 11.667 11.667 11.667s11.667-5.223 11.667-11.667v0c-0.147-41.833-20.177-78.958-51.129-102.434l-0.321-0.233zM128.333 105c6.443 0 11.667 5.223 11.667 11.667v0c0 6.443 5.223 11.667 11.667 11.667s11.667-5.223 11.667-11.667v0c0-19.33-15.67-35-35-35s-35 15.67-35 35v0c0 0.023 0 0.051 0 0.078 0 7.281 2.223 14.043 6.028 19.644l-0.078-0.122c1.669 2.353 3.472 4.415 5.461 6.279l0.022 0.021 2.333 2.567c1.229 1.819 1.962 4.062 1.962 6.475s-0.733 4.656-1.988 6.517l0.026-0.042c-1.3 1.855-2.078 4.16-2.078 6.646 0 3.946 1.959 7.434 4.958 9.546l0.037 0.025c1.854 1.309 4.16 2.094 6.648 2.1h0.002c3.948-0.007 7.436-1.974 9.542-4.979l0.025-0.037c3.832-5.532 6.122-12.386 6.122-19.775s-2.289-14.243-6.198-19.891l0.076 0.116c-1.292-1.821-2.632-3.421-4.090-4.906l0.006 0.006-1.633-1.633c-0.674-0.637-1.286-1.323-1.837-2.058l-0.030-0.042c-1.242-1.826-1.983-4.080-1.983-6.507 0-0.009 0-0.018 0-0.028v0.001c0-6.443 5.223-11.667 11.667-11.667v0zM81.667 175c6.443 0 11.667-5.223 11.667-11.667s-5.223-11.667-11.667-11.667c-6.443 0-11.667 5.223-11.667 11.667v0c0 6.443 5.223 11.667 11.667 11.667v0z"></path>
</svg>
