<!-- Generated by IcoMoon.io -->
<svg version="1.1" xmlns="http://www.w3.org/2000/svg" width="280" height="280" viewBox="0 0 280 280">
<title>ul-bag-alt</title>
<path fill="#ebebeb" d="M221.667 75.833h-35v-11.667c0-19.33-15.67-35-35-35v0h-23.333c-19.33 0-35 15.67-35 35v0 11.667h-35c-19.33 0-35 15.67-35 35v0 105c0 19.33 15.67 35 35 35v0h163.333c19.33 0 35-15.67 35-35v0-105c0-19.33-15.67-35-35-35v0zM116.667 64.167c0-6.443 5.223-11.667 11.667-11.667v0h23.333c6.443 0 11.667 5.223 11.667 11.667v0 11.667h-46.667zM233.333 215.833c0 6.443-5.223 11.667-11.667 11.667v0h-163.333c-6.443 0-11.667-5.223-11.667-11.667v0-64.167c27.645 11.286 59.723 17.841 93.33 17.85h0.004c33.612-0.021 65.688-6.575 95.035-18.459l-1.701 0.609zM233.333 126.117c-27.475 12.383-59.562 19.598-93.333 19.598s-65.859-7.214-94.803-20.186l1.47 0.589v-15.283c0-6.443 5.223-11.667 11.667-11.667v0h163.333c6.443 0 11.667 5.223 11.667 11.667v0z"></path>
</svg>
