<!-- Generated by IcoMoon.io -->
<svg version="1.1" xmlns="http://www.w3.org/2000/svg" width="280" height="280" viewBox="0 0 280 280">
<title>ul-bold</title>
<path fill="#ebebeb" d="M192.5 110.833c0-22.552-18.282-40.833-40.833-40.833v0h-52.5c-6.443 0-11.667 5.223-11.667 11.667v0 116.667c0 6.443 5.223 11.667 11.667 11.667v0h52.5c0.053 0 0.115 0 0.177 0 22.487 0 40.717-18.23 40.717-40.717 0-11.491-4.76-21.87-12.415-29.273l-0.011-0.011c7.607-7.402 12.335-17.729 12.367-29.161v-0.006zM151.667 186.667h-40.833v-35h40.833c9.665 0 17.5 7.835 17.5 17.5s-7.835 17.5-17.5 17.5v0zM151.667 128.333h-40.833v-35h40.833c9.665 0 17.5 7.835 17.5 17.5s-7.835 17.5-17.5 17.5v0z"></path>
</svg>
