<!-- Generated by IcoMoon.io -->
<svg version="1.1" xmlns="http://www.w3.org/2000/svg" width="280" height="280" viewBox="0 0 280 280">
<title>ul-blogger-alt</title>
<path fill="#ebebeb" d="M163.231 151.672h-46.667c-6.443 0-11.667 5.223-11.667 11.667s5.223 11.667 11.667 11.667v0h46.667c6.443 0 11.667-5.223 11.667-11.667s-5.223-11.667-11.667-11.667v0zM116.564 128.338h11.667c6.443 0 11.667-5.223 11.667-11.667s-5.223-11.667-11.667-11.667v0h-11.667c-6.443 0-11.667 5.223-11.667 11.667s5.223 11.667 11.667 11.667v0zM186.564 116.66v-11.655c-0.027-25.763-20.904-46.64-46.664-46.667h-23.336c-32.201 0.039-58.294 26.132-58.333 58.33v46.671c0.039 32.201 26.132 58.294 58.33 58.333h46.67c32.201-0.039 58.294-26.132 58.333-58.33v-11.671c-0.025-19.322-15.679-34.98-34.997-35.011h-0.003zM186.564 116.672v0.012l-11.667-0.012zM198.231 163.338c-0.022 19.321-15.679 34.978-34.998 35h-46.669c-19.321-0.022-34.978-15.679-35-34.998v-46.669c0.022-19.321 15.679-34.978 34.998-35h23.335c12.88 0.017 23.316 10.454 23.333 23.332v11.668c0.017 12.88 10.454 23.316 23.332 23.333h0.002c6.442 0.004 11.662 5.225 11.667 11.666v0.001zM233.231 11.672h-186.667c-19.321 0.022-34.978 15.679-35 34.998v186.669c0.022 19.321 15.679 34.978 34.998 35h186.669c19.321-0.022 34.978-15.679 35-34.998v-186.669c-0.022-19.321-15.679-34.978-34.998-35h-0.002zM244.897 233.338c-0.004 6.442-5.225 11.662-11.666 11.667h-186.667c-6.442-0.004-11.662-5.225-11.667-11.666v-186.667c0.004-6.442 5.225-11.662 11.666-11.667h186.667c6.442 0.004 11.662 5.225 11.667 11.666v0.001z"></path>
</svg>
