<!-- Generated by IcoMoon.io -->
<svg version="1.1" xmlns="http://www.w3.org/2000/svg" width="280" height="280" viewBox="0 0 280 280">
<title>ul-behance</title>
<path fill="#ebebeb" d="M234.15 74.083h-59.15v16.45h59.383zM221.667 187.25c-4.042 2.712-9.017 4.329-14.37 4.329-0.28 0-0.559-0.004-0.837-0.013l0.041 0.001c-0.809 0.089-1.748 0.14-2.698 0.14-6.577 0-12.584-2.44-17.165-6.465l0.029 0.025c-4.51-5.094-7.263-11.833-7.263-19.216 0-0.463 0.011-0.924 0.032-1.382l-0.002 0.065h77.233c0.121-1.601 0.19-3.468 0.19-5.351 0-6.384-0.792-12.583-2.285-18.503l0.111 0.521c-1.955-7.694-5.17-14.437-9.453-20.357l0.119 0.173c-4.39-5.859-9.926-10.612-16.302-13.989l-0.264-0.128c-6.577-3.315-14.335-5.256-22.546-5.256-0.277 0-0.553 0.002-0.829 0.007l0.042-0.001c-0.124-0.001-0.27-0.002-0.417-0.002-7.847 0-15.322 1.587-22.124 4.458l0.374-0.14c-6.683 2.86-12.379 6.799-17.142 11.658l-0.008 0.009c-4.732 4.936-8.498 10.839-10.966 17.38l-0.117 0.354c-2.44 6.45-3.853 13.907-3.853 21.693 0 0.208 0.001 0.415 0.003 0.622l-0-0.032c-0.005 0.298-0.008 0.651-0.008 1.003 0 7.756 1.371 15.191 3.884 22.078l-0.143-0.447c2.346 6.896 5.845 12.84 10.315 17.906l-0.049-0.056c4.643 5.001 10.33 8.965 16.72 11.555l0.313 0.112c6.411 2.517 13.835 3.976 21.6 3.976 0.363 0 0.726-0.003 1.088-0.010l-0.054 0.001c0.517 0.017 1.124 0.027 1.734 0.027 10.752 0 20.793-3.049 29.303-8.331l-0.237 0.137c9.184-6.583 15.929-16.056 18.937-27.072l0.080-0.345h-25.783c-1.43 3.728-3.948 6.773-7.161 8.824l-0.072 0.043zM181.65 139.183c1.895-5.945 6.1-10.682 11.534-13.244l0.133-0.056c3.209-1.48 6.962-2.344 10.918-2.344 0.263 0 0.526 0.004 0.787 0.011l-0.038-0.001c0.515-0.047 1.113-0.073 1.718-0.073 5.513 0 10.509 2.21 14.152 5.793l-0.003-0.003c3.82 4.648 6.446 10.414 7.329 16.738l0.021 0.179h-48.417c0.21-2.58 0.665-4.963 1.347-7.248l-0.063 0.248zM119.933 133.583c6.071-2.57 11.112-6.562 14.867-11.574l0.066-0.093c3.162-4.851 5.042-10.787 5.042-17.163 0-0.447-0.009-0.891-0.028-1.333l0.002 0.063c0.018-0.439 0.028-0.954 0.028-1.472 0-5.724-1.257-11.155-3.51-16.032l0.098 0.237c-2.134-4.781-5.405-8.725-9.479-11.608l-0.088-0.059c-4.207-2.925-9.197-5.050-14.585-6.032l-0.231-0.035c-5.428-1.191-11.663-1.873-18.057-1.873-0.378 0-0.756 0.002-1.133 0.007l0.057-0.001h-69.65v146.767h71.167c0.016 0 0.036 0 0.055 0 6.822 0 13.435-0.894 19.729-2.571l-0.534 0.121c6.347-1.671 11.909-4.275 16.86-7.699l-0.177 0.116c4.901-3.427 8.845-7.894 11.571-13.099l0.096-0.201c2.732-5.252 4.335-11.468 4.335-18.058 0-0.419-0.007-0.837-0.019-1.253l0.001 0.061c0.009-0.322 0.014-0.701 0.014-1.081 0-8.284-2.488-15.986-6.757-22.401l0.093 0.148c-4.848-6.829-11.936-11.79-20.176-13.833l-0.241-0.051zM55.65 91.7h30.217c0.018 0 0.039 0 0.060 0 2.905 0 5.751 0.255 8.516 0.743l-0.293-0.043c2.674 0.405 5.074 1.308 7.2 2.614l-0.083-0.048c2.108 1.208 3.784 2.959 4.868 5.065l0.032 0.069c1.186 2.225 1.883 4.867 1.883 7.67 0 0.256-0.006 0.512-0.017 0.766l0.001-0.036c0.038 0.41 0.059 0.887 0.059 1.368 0 4.811-2.141 9.121-5.522 12.031l-0.021 0.017c-3.696 2.57-8.278 4.105-13.219 4.105-0.357 0-0.712-0.008-1.065-0.024l0.050 0.002h-32.667zM112.117 178.5c-1.232 2.409-3.015 4.38-5.193 5.798l-0.057 0.035c-2.178 1.376-4.717 2.427-7.43 3.006l-0.153 0.027c-2.55 0.596-5.478 0.938-8.486 0.938-0.216 0-0.431-0.002-0.646-0.005l0.033 0.001h-35v-40.25h35c0.366-0.017 0.794-0.027 1.225-0.027 5.856 0 11.293 1.798 15.788 4.872l-0.096-0.062c3.932 3.539 6.393 8.646 6.393 14.327 0 0.666-0.034 1.323-0.1 1.971l0.007-0.081c0.063 0.606 0.099 1.309 0.099 2.021 0 2.672-0.507 5.225-1.431 7.569l0.049-0.14z"></path>
</svg>
