<!-- Generated by IcoMoon.io -->
<svg version="1.1" xmlns="http://www.w3.org/2000/svg" width="280" height="280" viewBox="0 0 280 280">
<title>ul-bolt-alt</title>
<path fill="#ebebeb" d="M232.050 111.417c-1.959-3.826-5.869-6.403-10.381-6.417h-58.335v-70c0.009-0.17 0.014-0.37 0.014-0.57 0-5.156-3.344-9.53-7.982-11.073l-0.082-0.024c-1.089-0.371-2.342-0.584-3.646-0.584-3.855 0-7.274 1.87-9.398 4.752l-0.023 0.032-93.333 128.333c-1.297 1.854-2.073 4.155-2.073 6.638 0 1.828 0.42 3.558 1.17 5.098l-0.030-0.069c1.67 4.255 5.651 7.255 10.358 7.466l0.025 0.001h58.333v70c0.004 5.147 3.34 9.514 7.968 11.059l0.082 0.024c1.077 0.346 2.317 0.558 3.603 0.583l0.013 0c0.009 0 0.020 0 0.030 0 3.855 0 7.273-1.869 9.397-4.751l0.023-0.032 93.333-128.333c1.38-1.893 2.208-4.265 2.208-6.83 0-1.936-0.471-3.761-1.306-5.368l0.031 0.065zM140 209.067v-45.733c0-6.443-5.223-11.667-11.667-11.667v0h-46.667l58.333-80.733v45.733c0 6.443 5.223 11.667 11.667 11.667v0h46.667z"></path>
</svg>
