<!-- Generated by IcoMoon.io -->
<svg version="1.1" xmlns="http://www.w3.org/2000/svg" width="280" height="280" viewBox="0 0 280 280">
<title>ul-cloud-upload</title>
<path fill="#ebebeb" d="M214.9 95.9c-12.908-29.127-41.566-49.078-74.883-49.078-41.387 0-75.584 30.787-80.938 70.709l-0.046 0.419c-20.69 5.079-35.798 23.467-35.798 45.384 0 25.773 20.893 46.667 46.667 46.667 0.034 0 0.069 0 0.104 0h-0.005c6.443 0 11.667-5.223 11.667-11.667s-5.223-11.667-11.667-11.667v0c-12.887 0-23.333-10.447-23.333-23.333s10.447-23.333 23.333-23.333v0c6.443 0 11.667-5.223 11.667-11.667v0c0.072-32.162 26.161-58.207 58.333-58.207 25.446 0 47.086 16.293 55.059 39.015l0.125 0.409c1.378 4.054 4.813 7.063 9.030 7.806l0.070 0.010c16.336 3.169 28.501 17.36 28.501 34.391 0 16.021-10.764 29.527-25.454 33.682l-0.247 0.060c-5.083 1.342-8.77 5.899-8.77 11.317 0 6.454 5.232 11.686 11.686 11.686 1.036 0 2.041-0.135 2.998-0.388l-0.081 0.018c25.198-6.82 43.431-29.48 43.431-56.398 0-26.193-17.264-48.354-41.034-55.725l-0.413-0.11zM148.283 120.050c-1.077-1.032-2.356-1.862-3.771-2.422l-0.079-0.028c-1.311-0.553-2.834-0.875-4.433-0.875s-3.123 0.322-4.51 0.904l0.077-0.029c-1.494 0.588-2.773 1.418-3.854 2.454l0.004-0.004-35 35c-2.12 2.12-3.431 5.048-3.431 8.283 0 6.47 5.245 11.714 11.714 11.714 3.235 0 6.164-1.311 8.283-3.431v0l15.050-15.167v65.217c0 6.443 5.223 11.667 11.667 11.667s11.667-5.223 11.667-11.667v0-65.217l15.050 15.167c2.114 2.131 5.045 3.451 8.283 3.451s6.169-1.32 8.283-3.45l0.001-0.001c2.131-2.114 3.451-5.045 3.451-8.283s-1.32-6.169-3.45-8.283l-0.001-0.001z"></path>
</svg>
