<!-- Generated by IcoMoon.io -->
<svg version="1.1" xmlns="http://www.w3.org/2000/svg" width="280" height="280" viewBox="0 0 280 280">
<title>ul-clock</title>
<path fill="#ebebeb" d="M176.145 147.394l-24.478-14.128v-51.6c0-6.443-5.223-11.667-11.667-11.667s-11.667 5.223-11.667 11.667v0 58.333c0 0.001 0 0.002 0 0.003 0 4.295 2.321 8.048 5.778 10.073l0.055 0.030 30.312 17.5c1.675 0.984 3.689 1.566 5.838 1.566 6.444 0 11.668-5.224 11.668-11.668 0-4.299-2.324-8.054-5.785-10.079l-0.055-0.030zM140 23.333c-64.433 0-116.667 52.233-116.667 116.667s52.233 116.667 116.667 116.667c64.433 0 116.667-52.233 116.667-116.667v0c-0.074-64.404-52.263-116.593-116.66-116.667h-0.007zM140 233.333c-51.547 0-93.333-41.787-93.333-93.333s41.787-93.333 93.333-93.333c51.547 0 93.333 41.787 93.333 93.333v0c-0.061 51.522-41.811 93.273-93.327 93.333h-0.006z"></path>
</svg>
