<!-- Generated by IcoMoon.io -->
<svg version="1.1" xmlns="http://www.w3.org/2000/svg" width="280" height="280" viewBox="0 0 280 280">
<title>ul-comment-alt-verify</title>
<path fill="#ebebeb" d="M183.283 73.383l-61.833 61.833-24.733-24.733c-2.153-2.503-5.323-4.078-8.861-4.078-6.443 0-11.667 5.223-11.667 11.667 0 3.538 1.575 6.709 4.063 8.848l0.015 0.013 33.017 33.017c2.096 2.080 4.98 3.37 8.164 3.383h0.003c0.020 0 0.044 0 0.068 0 3.205 0 6.108-1.292 8.217-3.384l69.999-69.999c2.131-2.114 3.451-5.045 3.451-8.283s-1.32-6.169-3.45-8.283l-0.001-0.001c-2.109-2.097-5.016-3.393-8.225-3.393s-6.116 1.296-8.226 3.393l0.001-0.001zM221.667 23.333h-163.333c-19.33 0-35 15.67-35 35v0 116.667c0 19.33 15.67 35 35 35v0h135.217l43.167 43.283c2.108 2.091 5.011 3.384 8.216 3.384 0.024 0 0.047 0 0.071-0h-0.004c0.075 0.002 0.164 0.003 0.252 0.003 1.519 0 2.957-0.345 4.24-0.962l-0.059 0.025c4.263-1.785 7.209-5.912 7.233-10.73v-186.67c0-19.33-15.67-35-35-35v0zM233.333 216.883l-26.717-26.833c-2.108-2.091-5.011-3.384-8.216-3.384-0.024 0-0.047 0-0.071 0h-139.996c-6.443 0-11.667-5.223-11.667-11.667v0-116.667c0-6.443 5.223-11.667 11.667-11.667v0h163.333c6.443 0 11.667 5.223 11.667 11.667v0z"></path>
</svg>
