<!-- Generated by IcoMoon.io -->
<svg version="1.1" xmlns="http://www.w3.org/2000/svg" width="280" height="280" viewBox="0 0 280 280">
<title>ul-confused</title>
<path fill="#ebebeb" d="M105 105c-6.443 0-11.667 5.223-11.667 11.667s5.223 11.667 11.667 11.667c6.443 0 11.667-5.223 11.667-11.667v0c0-6.443-5.223-11.667-11.667-11.667v0zM171.033 158.2l-48.883 17.5c-4.523 1.675-7.688 5.951-7.688 10.967 0 6.398 5.15 11.593 11.531 11.666h0.007c1.424-0.002 2.787-0.258 4.047-0.726l-0.081 0.026 49-17.5c4.692-1.582 8.010-5.943 8.010-11.079 0-6.443-5.223-11.667-11.667-11.667-1.54 0-3.010 0.298-4.355 0.84l0.078-0.028zM175 105c-6.443 0-11.667 5.223-11.667 11.667s5.223 11.667 11.667 11.667c6.443 0 11.667-5.223 11.667-11.667v0c0-6.443-5.223-11.667-11.667-11.667v0zM140 23.333c-64.433 0-116.667 52.233-116.667 116.667s52.233 116.667 116.667 116.667c64.433 0 116.667-52.233 116.667-116.667v0c0-64.433-52.233-116.667-116.667-116.667v0zM140 233.333c-51.547 0-93.333-41.787-93.333-93.333s41.787-93.333 93.333-93.333c51.547 0 93.333 41.787 93.333 93.333v0c0 51.547-41.787 93.333-93.333 93.333v0z"></path>
</svg>
