<!-- Generated by IcoMoon.io -->
<svg version="1.1" xmlns="http://www.w3.org/2000/svg" width="280" height="280" viewBox="0 0 280 280">
<title>ul-coins</title>
<path fill="#ebebeb" d="M247.567 140c5.598-6.142 9.044-14.33 9.1-23.322v-0.011c0-19.33-15.67-35-35-35v0h-60.433c1.268-3.474 2.002-7.485 2.002-11.667 0-19.295-15.614-34.944-34.896-35h-70.005c-19.33 0-35 15.67-35 35v0c0.056 9.003 3.502 17.192 9.125 23.361l-0.025-0.028c-5.531 6.163-8.912 14.354-8.912 23.333s3.382 17.17 8.941 23.366l-0.029-0.033c-5.531 6.163-8.912 14.354-8.912 23.333s3.382 17.17 8.941 23.366l-0.029-0.033c-5.598 6.142-9.044 14.33-9.1 23.322v0.011c0 19.33 15.67 35 35 35v0h163.333c19.249-0.106 34.813-15.735 34.813-34.999 0-8.98-3.382-17.171-8.942-23.367l0.029 0.033c5.531-6.163 8.912-14.354 8.912-23.333s-3.382-17.17-8.941-23.366l0.029 0.033zM128.333 221.667h-70c-6.443 0-11.667-5.223-11.667-11.667s5.223-11.667 11.667-11.667v0h70c6.443 0 11.667 5.223 11.667 11.667s-5.223 11.667-11.667 11.667v0zM128.333 175h-70c-6.443 0-11.667-5.223-11.667-11.667s5.223-11.667 11.667-11.667v0h70c6.443 0 11.667 5.223 11.667 11.667s-5.223 11.667-11.667 11.667v0zM128.333 128.333h-70c-6.443 0-11.667-5.223-11.667-11.667s5.223-11.667 11.667-11.667v0h70c6.443 0 11.667 5.223 11.667 11.667s-5.223 11.667-11.667 11.667v0zM128.333 81.667h-70c-6.443 0-11.667-5.223-11.667-11.667s5.223-11.667 11.667-11.667v0h70c6.443 0 11.667 5.223 11.667 11.667s-5.223 11.667-11.667 11.667v0zM229.717 218.283c-1.981 2.087-4.776 3.385-7.874 3.385-0.062 0-0.124-0.001-0.186-0.002h-60.424c1.329-3.467 2.098-7.477 2.098-11.667s-0.769-8.2-2.175-11.897l0.077 0.23h60.433c6.443 0 11.667 5.223 11.667 11.667v0c-0.047 3.261-1.424 6.191-3.612 8.279l-0.005 0.004zM229.717 171.617c-1.981 2.087-4.776 3.385-7.874 3.385-0.062 0-0.124-0.001-0.186-0.002h-60.424c1.329-3.467 2.098-7.477 2.098-11.667s-0.769-8.2-2.175-11.897l0.077 0.23h60.433c6.443 0 11.667 5.223 11.667 11.667v0c-0.047 3.261-1.424 6.191-3.612 8.279l-0.005 0.004zM229.717 124.95c-1.981 2.087-4.776 3.385-7.874 3.385-0.062 0-0.124-0.001-0.186-0.002h-60.424c1.329-3.467 2.098-7.477 2.098-11.667s-0.769-8.2-2.175-11.897l0.077 0.23h60.433c6.443 0 11.667 5.223 11.667 11.667v0c-0.047 3.261-1.424 6.191-3.612 8.279l-0.005 0.004z"></path>
</svg>
