<!-- Generated by IcoMoon.io -->
<svg version="1.1" xmlns="http://www.w3.org/2000/svg" width="280" height="280" viewBox="0 0 280 280">
<title>ul-comment-alt-download</title>
<path fill="#ebebeb" d="M71.4 139.067c1.305 0.591 2.829 0.936 4.433 0.936s3.129-0.345 4.502-0.964l-0.069 0.028c1.494-0.588 2.773-1.418 3.854-2.454l-0.004 0.004 35-35c2.12-2.12 3.431-5.048 3.431-8.283 0-6.47-5.245-11.714-11.714-11.714-3.235 0-6.164 1.311-8.283 3.431v0l-15.050 15.167v-65.217c0-6.443-5.223-11.667-11.667-11.667s-11.667 5.223-11.667 11.667v0 65.217l-15.050-15.167c-2.12-2.12-5.048-3.431-8.283-3.431-6.47 0-11.714 5.245-11.714 11.714 0 3.235 1.311 6.164 3.431 8.283l35 35c1.077 1.032 2.356 1.862 3.771 2.422l0.079 0.028zM215.833 70h-58.333c-6.443 0-11.667 5.223-11.667 11.667s5.223 11.667 11.667 11.667v0h58.333c6.443 0 11.667 5.223 11.667 11.667v0 113.4l-18.317-16.917c-2.071-1.943-4.861-3.139-7.931-3.15h-102.085c-6.443 0-11.667-5.223-11.667-11.667v0-11.667c0-6.443-5.223-11.667-11.667-11.667s-11.667 5.223-11.667 11.667v0 11.667c0 19.33 15.67 35 35 35v0h97.533l35 31.85c2.071 1.943 4.861 3.139 7.931 3.15h0.002c1.686-0.019 3.287-0.36 4.752-0.964l-0.085 0.031c4.155-1.847 7-5.937 7-10.693 0-0.014 0-0.028 0-0.043v0.002-140c0-0.001 0-0.002 0-0.003 0-19.33-15.67-35-35-35-0.164 0-0.328 0.001-0.491 0.003l0.025-0z"></path>
</svg>
