<!-- Generated by IcoMoon.io -->
<svg version="1.1" xmlns="http://www.w3.org/2000/svg" width="280" height="280" viewBox="0 0 280 280">
<title>ul-comment-alt-search</title>
<path fill="#ebebeb" d="M221.667 70h-58.333c-6.443 0-11.667 5.223-11.667 11.667s5.223 11.667 11.667 11.667v0h58.333c6.443 0 11.667 5.223 11.667 11.667v0 113.4l-18.317-16.917c-2.071-1.943-4.861-3.139-7.931-3.15h-102.085c-6.443 0-11.667-5.223-11.667-11.667v0-23.333c0-6.443-5.223-11.667-11.667-11.667s-11.667 5.223-11.667 11.667v0 23.333c0 19.33 15.67 35 35 35v0h97.533l35 31.85c1.959 1.842 4.564 3.017 7.441 3.149l0.026 0.001c1.686-0.019 3.287-0.36 4.752-0.964l-0.085 0.031c4.155-1.847 7-5.937 7-10.693 0-0.014 0-0.028 0-0.043v0.002-140c0-19.33-15.67-35-35-35v0zM99.983 116.667l20.067 20.183c2.114 2.131 5.045 3.451 8.283 3.451s6.169-1.32 8.283-3.45l0.001-0.001c2.131-2.114 3.451-5.045 3.451-8.283s-1.32-6.169-3.45-8.283l-0.001-0.001-19.95-20.3c4.694-7.5 7.506-16.597 7.583-26.346v-0.021c0-27.867-22.591-50.458-50.458-50.458s-50.458 22.591-50.458 50.458v0c0 0 0 0 0 0 0 27.794 22.498 50.334 50.277 50.4h0.006c0.018 0 0.039 0 0.061 0 9.723 0 18.808-2.734 26.526-7.476l-0.221 0.126zM46.667 73.617c0-0.005 0-0.011 0-0.018 0-7.431 3.034-14.154 7.931-18.997l0.002-0.002c4.92-5.035 11.779-8.158 19.367-8.158s14.447 3.123 19.362 8.153l0.005 0.005c5.065 4.906 8.209 11.769 8.209 19.367s-3.144 14.461-8.201 19.36l-0.007 0.007c-4.941 5.193-11.904 8.422-19.621 8.422-14.949 0-27.067-12.118-27.067-27.067 0-0.377 0.008-0.752 0.023-1.126l-0.002 0.054z"></path>
</svg>
