<!-- Generated by IcoMoon.io -->
<svg version="1.1" xmlns="http://www.w3.org/2000/svg" width="280" height="280" viewBox="0 0 280 280">
<title>ul-clock-ten</title>
<path fill="#ebebeb" d="M140 70c-0.001 0-0.002 0-0.003 0-6.442 0-11.664 5.222-11.664 11.664 0 0.001 0 0.002 0 0.003v-0 38.122l-12.806-7.394c-1.672-0.981-3.683-1.56-5.828-1.56-6.444 0-11.668 5.224-11.668 11.668 0 4.295 2.32 8.047 5.775 10.073l0.055 0.030 30.306 17.5c1.673 0.983 3.686 1.563 5.833 1.563 6.443 0 11.667-5.223 11.667-11.667 0-0.001 0-0.002 0-0.002v0-58.333c0-0.001 0-0.002 0-0.003 0-6.442-5.222-11.664-11.664-11.664-0.001 0-0.002 0-0.003 0h0zM140 23.333c-64.433 0-116.667 52.233-116.667 116.667s52.233 116.667 116.667 116.667c64.433 0 116.667-52.233 116.667-116.667v0c-0.076-64.402-52.264-116.59-116.659-116.667h-0.007zM140 233.333c-51.547 0-93.333-41.787-93.333-93.333s41.787-93.333 93.333-93.333c51.547 0 93.333 41.787 93.333 93.333v0c-0.061 51.522-41.811 93.273-93.327 93.333h-0.006z"></path>
</svg>
