<!-- Generated by IcoMoon.io -->
<svg version="1.1" xmlns="http://www.w3.org/2000/svg" width="280" height="280" viewBox="0 0 280 280">
<title>ul-cloud-rain-sun</title>
<path fill="#ebebeb" d="M245 81.667h-9.333c-1.316-5.609-3.406-10.556-6.189-15.027l0.122 0.21 6.533-6.533c1.744-2.027 2.805-4.684 2.805-7.589 0-6.443-5.223-11.667-11.667-11.667-2.905 0-5.562 1.062-7.604 2.818l0.015-0.013-6.533 6.533c-4.261-2.661-9.208-4.751-14.48-5.999l-0.337-0.067v-9.333c0-6.443-5.223-11.667-11.667-11.667s-11.667 5.223-11.667 11.667v0 9.333c-5.566 1.294-10.476 3.386-14.896 6.183l0.196-0.116-6.65-6.533c-2.027-1.744-4.684-2.805-7.589-2.805-6.443 0-11.667 5.223-11.667 11.667 0 2.905 1.062 5.562 2.818 7.604l-0.013-0.015 6.533 6.65c-1.050 1.75-1.867 3.733-2.8 5.6-5.522-1.619-11.866-2.556-18.428-2.567h-0.006c-0.012 0-0.026 0-0.040 0-35.078 0-64.131 25.803-69.212 59.464l-0.048 0.386c-17.373 4.953-29.88 20.684-29.88 39.337 0 16.649 9.964 30.97 24.253 37.327l0.26 0.103c1.38 0.563 2.979 0.903 4.654 0.933l0.012 0c0.028 0 0.062 0 0.095 0 6.443 0 11.667-5.223 11.667-11.667 0-4.792-2.889-8.909-7.020-10.705l-0.075-0.029c-6.225-2.701-10.5-8.794-10.5-15.886 0-0.034 0-0.069 0-0.103v0.005c0-9.665 7.835-17.5 17.5-17.5v0c6.443 0 11.667-5.223 11.667-11.667v0c0.12-25.682 20.967-46.455 46.666-46.455 20.307 0 37.584 12.97 44 31.078l0.101 0.326c1.378 4.054 4.813 7.063 9.030 7.806l0.070 0.010c13.146 2.001 23.102 13.225 23.102 26.775 0 9.387-4.779 17.659-12.037 22.513l-0.098 0.062c-3.209 2.124-5.297 5.718-5.297 9.8 0 6.469 5.245 11.714 11.714 11.714 2.388 0 4.608-0.714 6.46-1.941l-0.043 0.027c13.456-9.238 22.168-24.539 22.168-41.874 0-0.126-0.001-0.252-0.001-0.378v0.019c-0.011-6.517-1.296-12.73-3.618-18.41l0.118 0.326 1.517 1.4c2.096 2.080 4.98 3.37 8.164 3.383h0.003c0.020 0 0.044 0 0.068 0 3.205 0 6.108-1.292 8.217-3.384l-0.001 0.001c2.097-2.109 3.393-5.016 3.393-8.225s-1.296-6.116-3.393-8.226l-6.533-6.533c2.661-4.261 4.751-9.208 5.999-14.48l0.067-0.337h9.333c6.443 0 11.667-5.223 11.667-11.667s-5.223-11.667-11.667-11.667v0zM206.033 112.583v0c-1.977 1.982-4.292 3.626-6.852 4.837l-0.148 0.063c-3.557-2.497-7.651-4.592-12.024-6.082l-0.343-0.101c-5.54-11.911-13.856-21.725-24.15-28.896l-0.233-0.154c1.379-3.151 3.184-5.852 5.38-8.181l-0.013 0.014c5.039-4.671 11.81-7.538 19.25-7.538s14.211 2.866 19.268 7.554l-0.018-0.017c4.826 4.972 7.801 11.764 7.801 19.25s-2.975 14.278-7.808 19.257l0.007-0.007zM99.167 163.333c-6.443 0-11.667 5.223-11.667 11.667v0 70c0 6.443 5.223 11.667 11.667 11.667s11.667-5.223 11.667-11.667v0-70c0-6.443-5.223-11.667-11.667-11.667v0zM145.833 151.667c-6.443 0-11.667 5.223-11.667 11.667v0 70c0 6.443 5.223 11.667 11.667 11.667s11.667-5.223 11.667-11.667v0-70c0-6.443-5.223-11.667-11.667-11.667v0z"></path>
</svg>
