<!-- Generated by IcoMoon.io -->
<svg version="1.1" xmlns="http://www.w3.org/2000/svg" width="280" height="280" viewBox="0 0 280 280">
<title>ul-car-sideview</title>
<path fill="#ebebeb" d="M221.667 110.833h-3.733l-14.583-36.4c-5.316-12.956-17.826-21.918-32.431-21.933h-70.002c-0.030 0-0.065-0-0.1-0-16.894 0-30.992 11.969-34.278 27.89l-0.039 0.226-6.067 30.217h-2.1c-19.33 0-35 15.67-35 35v0 35c0 6.443 5.223 11.667 11.667 11.667v0h11.667c0 19.33 15.67 35 35 35s35-15.67 35-35v0h46.667c0 19.33 15.67 35 35 35s35-15.67 35-35v0h11.667c6.443 0 11.667-5.223 11.667-11.667v0-35c0-19.33-15.67-35-35-35v0zM151.667 75.833h19.25c4.847 0.045 8.983 3.039 10.705 7.272l0.028 0.078 11.083 27.65h-41.067zM89.367 85.167c1.122-5.365 5.813-9.336 11.431-9.336 0.083 0 0.165 0.001 0.247 0.002l-0.012-0h27.3v35h-44.1zM81.667 204.167c-6.443 0-11.667-5.223-11.667-11.667s5.223-11.667 11.667-11.667c6.443 0 11.667 5.223 11.667 11.667v0c0 6.443-5.223 11.667-11.667 11.667v0zM198.333 204.167c-6.443 0-11.667-5.223-11.667-11.667s5.223-11.667 11.667-11.667c6.443 0 11.667 5.223 11.667 11.667v0c0 6.443-5.223 11.667-11.667 11.667v0zM233.333 169.167h-9.1c-6.426-7.051-15.648-11.459-25.9-11.459s-19.474 4.408-25.875 11.431l-0.025 0.028h-64.867c-6.426-7.051-15.648-11.459-25.9-11.459s-19.474 4.408-25.875 11.431l-0.025 0.028h-9.1v-23.333c0-6.443 5.223-11.667 11.667-11.667v0h163.333c6.443 0 11.667 5.223 11.667 11.667v0z"></path>
</svg>
