<!-- Generated by IcoMoon.io -->
<svg version="1.1" xmlns="http://www.w3.org/2000/svg" width="280" height="280" viewBox="0 0 280 280">
<title>ul-css3-simple</title>
<path fill="#ebebeb" d="M242.34 39.25c-2.156-2.603-5.389-4.249-9.006-4.25h-163.334c-6.443 0-11.667 5.223-11.667 11.667s5.223 11.667 11.667 11.667v0h149.172l-9.111 46.667h-151.727c-6.443 0-11.667 5.223-11.667 11.667s5.223 11.667 11.667 11.667v0h147.172l-13.564 69.476-73.771 23.293-63.118-19.824 2.375-12.424c0.132-0.658 0.207-1.414 0.207-2.188 0-6.444-5.224-11.668-11.668-11.668-5.671 0-10.396 4.045-11.449 9.407l-0.012 0.074-4.318 22.633c-0.131 0.656-0.206 1.411-0.206 2.183 0 5.196 3.394 9.599 8.087 11.112l0.083 0.023 76.534 24.035c1.045 0.34 2.248 0.535 3.497 0.535 1.255 0 2.464-0.198 3.598-0.564l-0.083 0.023 83.883-26.483c4.052-1.31 7.089-4.666 7.923-8.818l0.013-0.075 31.269-160.183c0.137-0.672 0.216-1.444 0.216-2.235 0-2.825-1.004-5.416-2.675-7.435l0.016 0.019z"></path>
</svg>
