<!-- Generated by IcoMoon.io -->
<svg version="1.1" xmlns="http://www.w3.org/2000/svg" width="280" height="280" viewBox="0 0 280 280">
<title>ul-chart-bar-alt</title>
<path fill="#ebebeb" d="M245 233.333h-198.333v-23.333h35c6.443 0 11.667-5.223 11.667-11.667s-5.223-11.667-11.667-11.667v0h-35v-23.333h128.333c6.443 0 11.667-5.223 11.667-11.667s-5.223-11.667-11.667-11.667v0h-128.333v-23.333h81.667c6.443 0 11.667-5.223 11.667-11.667s-5.223-11.667-11.667-11.667v0h-81.667v-23.333h175c6.443 0 11.667-5.223 11.667-11.667s-5.223-11.667-11.667-11.667v0h-175v-11.667c0-6.443-5.223-11.667-11.667-11.667s-11.667 5.223-11.667 11.667v0 210c0 6.443 5.223 11.667 11.667 11.667v0h210c6.443 0 11.667-5.223 11.667-11.667s-5.223-11.667-11.667-11.667v0z"></path>
</svg>
