<!-- Generated by IcoMoon.io -->
<svg version="1.1" xmlns="http://www.w3.org/2000/svg" width="280" height="280" viewBox="0 0 280 280">
<title>ul-camera-slash</title>
<path fill="#ebebeb" d="M43.283 26.717c-2.12-2.12-5.048-3.431-8.283-3.431-6.47 0-11.714 5.245-11.714 11.714 0 3.235 1.311 6.164 3.431 8.283v0l32.667 32.55h-1.050c-19.33 0-35 15.67-35 35v0 93.333c0 19.33 15.67 35 35 35v0h164.267l14.117 14.233c2.114 2.131 5.045 3.451 8.283 3.451s6.169-1.32 8.283-3.45l0.001-0.001c2.131-2.114 3.451-5.045 3.451-8.283s-1.32-6.169-3.45-8.283l-0.001-0.001zM119 135.567l31.267 31.267c-2.972 1.472-6.471 2.334-10.171 2.334-0.034 0-0.067 0-0.101-0h0.005c-12.887 0-23.333-10.447-23.333-23.333v0c0-0.028-0-0.062-0-0.095 0-3.7 0.861-7.2 2.394-10.308l-0.061 0.137zM58.333 215.833c-6.443 0-11.667-5.223-11.667-11.667v0-93.333c0-6.443 5.223-11.667 11.667-11.667v0h24.15l19.833 19.717c-5.558 7.435-8.921 16.794-8.983 26.935v0.015c0 25.773 20.893 46.667 46.667 46.667v0c10.197-0.036 19.601-3.403 27.187-9.069l-0.12 0.086 32.317 32.317zM221.667 75.833h-14.933l-3.617-11.667c-4.95-13.711-17.85-23.334-32.999-23.334-0.088 0-0.177 0-0.265 0.001h-51.32c-6.443 0-11.667 5.223-11.667 11.667s5.223 11.667 11.667 11.667v0h51.333c0.009 0 0.019 0 0.030 0 5.107 0 9.448 3.282 11.029 7.851l0.025 0.082 6.3 19.017c1.57 4.71 5.936 8.046 11.083 8.050h23.334c6.443 0 11.667 5.223 11.667 11.667v0 68.133c0 6.443 5.223 11.667 11.667 11.667s11.667-5.223 11.667-11.667v0-68.133c0-19.33-15.67-35-35-35v0z"></path>
</svg>
