<!-- Generated by IcoMoon.io -->
<svg version="1.1" xmlns="http://www.w3.org/2000/svg" width="280" height="280" viewBox="0 0 280 280">
<title>ul-clock-eight</title>
<path fill="#ebebeb" d="M140 70c-0.001 0-0.002 0-0.003 0-6.442 0-11.664 5.222-11.664 11.664 0 0.001 0 0.002 0 0.003v-0 51.144l-28.358 14.27c-3.839 1.962-6.422 5.889-6.422 10.419 0 6.441 5.222 11.663 11.663 11.663 1.911 0 3.715-0.46 5.307-1.274l-0.066 0.031 34.784-17.5c3.841-1.958 6.426-5.884 6.426-10.414 0-0.002 0-0.004 0-0.005v0-58.333c0-0.001 0-0.002 0-0.003 0-6.442-5.222-11.664-11.664-11.664-0.001 0-0.002 0-0.003 0h0zM140 23.333c-64.433 0-116.667 52.233-116.667 116.667s52.233 116.667 116.667 116.667c64.433 0 116.667-52.233 116.667-116.667v0c-0.076-64.402-52.264-116.59-116.659-116.667h-0.007zM140 233.333c-51.547 0-93.333-41.787-93.333-93.333s41.787-93.333 93.333-93.333c51.547 0 93.333 41.787 93.333 93.333v0c-0.061 51.522-41.811 93.273-93.327 93.333h-0.006z"></path>
</svg>
