<!-- Generated by IcoMoon.io -->
<svg version="1.1" xmlns="http://www.w3.org/2000/svg" width="280" height="280" viewBox="0 0 280 280">
<title>ul-chat-bubble-user</title>
<path fill="#ebebeb" d="M170.1 131.833c5.104-6.336 8.215-14.465 8.283-23.318v-0.015c0-21.199-17.185-38.383-38.383-38.383s-38.383 17.185-38.383 38.383v0c0.068 8.868 3.18 16.997 8.34 23.406l-0.057-0.073c-10.352 6.373-18.409 15.595-23.188 26.573l-0.146 0.377c-0.701 1.454-1.11 3.162-1.11 4.966 0 6.443 5.223 11.667 11.667 11.667 4.957 0 9.193-3.092 10.883-7.453l0.027-0.080c5.459-12.527 17.696-21.144 31.955-21.233h0.011c14.317 0.040 26.609 8.671 31.996 21.008l0.088 0.225c1.819 4.215 5.937 7.113 10.733 7.117h0.001c1.647-0.032 3.206-0.372 4.634-0.964l-0.084 0.031c4.212-1.823 7.105-5.942 7.105-10.738 0-1.642-0.339-3.204-0.951-4.621l0.029 0.076c-4.954-11.368-13.052-20.593-23.195-26.805l-0.255-0.145zM140 123.317v0c-8.312-0-15.049-6.738-15.049-15.050s6.738-15.050 15.050-15.050c8.312 0 15.050 6.738 15.050 15.050 0 0.041-0 0.082-0.001 0.123v-0.006c-0.066 8.262-6.779 14.933-15.049 14.933-0 0-0 0-0.001 0v0zM210 23.333h-140c-19.33 0-35 15.67-35 35v0 128.333c0 19.33 15.67 35 35 35v0h30.217l31.5 31.617c2.108 2.091 5.011 3.384 8.216 3.384 0.024 0 0.047 0 0.071-0h-0.004c0 0 0.001 0 0.001 0 2.902 0 5.557-1.060 7.598-2.813l-0.016 0.013 37.567-32.2h24.85c19.33 0 35-15.67 35-35v0-128.333c0-19.33-15.67-35-35-35v0zM221.667 186.667c0 6.443-5.223 11.667-11.667 11.667v0h-29.167c-0 0-0.001 0-0.001 0-2.902 0-5.557 1.060-7.598 2.813l0.016-0.013-32.667 28-27.3-27.417c-2.108-2.091-5.011-3.384-8.216-3.384-0.024 0-0.047 0-0.071 0h-34.996c-6.443 0-11.667-5.223-11.667-11.667v0-128.333c0-6.443 5.223-11.667 11.667-11.667v0h140c6.443 0 11.667 5.223 11.667 11.667v0z"></path>
</svg>
