<!-- Generated by IcoMoon.io -->
<svg version="1.1" xmlns="http://www.w3.org/2000/svg" width="280" height="280" viewBox="0 0 280 280">
<title>ul-dialpad-alt</title>
<path fill="#ebebeb" d="M58.333 107.917c-17.719 0-32.083 14.364-32.083 32.083s14.364 32.083 32.083 32.083c17.719 0 32.083-14.364 32.083-32.083v0c0-17.719-14.364-32.083-32.083-32.083v0zM58.333 154.583c-8.054 0-14.583-6.529-14.583-14.583s6.529-14.583 14.583-14.583c8.054 0 14.583 6.529 14.583 14.583v0c0 8.054-6.529 14.583-14.583 14.583v0zM140 107.917c-17.719 0-32.083 14.364-32.083 32.083s14.364 32.083 32.083 32.083c17.719 0 32.083-14.364 32.083-32.083v0c0-17.719-14.364-32.083-32.083-32.083v0zM140 154.583c-8.054 0-14.583-6.529-14.583-14.583s6.529-14.583 14.583-14.583c8.054 0 14.583 6.529 14.583 14.583v0c0 8.054-6.529 14.583-14.583 14.583v0zM221.667 90.417c17.719 0 32.083-14.364 32.083-32.083s-14.364-32.083-32.083-32.083c-17.719 0-32.083 14.364-32.083 32.083v0c0 17.719 14.364 32.083 32.083 32.083v0zM221.667 43.75c8.054 0 14.583 6.529 14.583 14.583s-6.529 14.583-14.583 14.583c-8.054 0-14.583-6.529-14.583-14.583v0c0-8.054 6.529-14.583 14.583-14.583v0zM221.667 107.917c-17.719 0-32.083 14.364-32.083 32.083s14.364 32.083 32.083 32.083c17.719 0 32.083-14.364 32.083-32.083v0c0-17.719-14.364-32.083-32.083-32.083v0zM221.667 154.583c-8.054 0-14.583-6.529-14.583-14.583s6.529-14.583 14.583-14.583c8.054 0 14.583 6.529 14.583 14.583v0c0 8.054-6.529 14.583-14.583 14.583v0zM58.333 26.25c-17.719 0-32.083 14.364-32.083 32.083s14.364 32.083 32.083 32.083c17.719 0 32.083-14.364 32.083-32.083v0c0-17.719-14.364-32.083-32.083-32.083v0zM58.333 72.917c-8.054 0-14.583-6.529-14.583-14.583s6.529-14.583 14.583-14.583c8.054 0 14.583 6.529 14.583 14.583v0c0 8.054-6.529 14.583-14.583 14.583v0zM140 189.583c-17.719 0-32.083 14.364-32.083 32.083s14.364 32.083 32.083 32.083c17.719 0 32.083-14.364 32.083-32.083v0c0-17.719-14.364-32.083-32.083-32.083v0zM140 236.25c-8.054 0-14.583-6.529-14.583-14.583s6.529-14.583 14.583-14.583c8.054 0 14.583 6.529 14.583 14.583v0c0 8.054-6.529 14.583-14.583 14.583v0zM140 26.25c-17.719 0-32.083 14.364-32.083 32.083s14.364 32.083 32.083 32.083c17.719 0 32.083-14.364 32.083-32.083v0c0-17.719-14.364-32.083-32.083-32.083v0zM140 72.917c-8.054 0-14.583-6.529-14.583-14.583s6.529-14.583 14.583-14.583c8.054 0 14.583 6.529 14.583 14.583v0c0 8.054-6.529 14.583-14.583 14.583v0z"></path>
</svg>
