<!-- Generated by IcoMoon.io -->
<svg version="1.1" xmlns="http://www.w3.org/2000/svg" width="280" height="280" viewBox="0 0 280 280">
<title>ul-database</title>
<path fill="#ebebeb" d="M93.333 192.5c-6.443 0-11.667 5.223-11.667 11.667s5.223 11.667 11.667 11.667c6.443 0 11.667-5.223 11.667-11.667v0c0-6.443-5.223-11.667-11.667-11.667v0zM140 23.333c-46.667 0-93.333 15.983-93.333 46.667v140c0 30.683 46.667 46.667 93.333 46.667s93.333-15.983 93.333-46.667v-140c0-30.683-46.667-46.667-93.333-46.667zM210 210c0 8.283-26.6 23.333-70 23.333s-70-15.050-70-23.333v-38.15c19.289 9.385 41.963 14.871 65.918 14.871 1.435 0 2.866-0.020 4.292-0.059l-0.21 0.005c1.216 0.034 2.646 0.054 4.082 0.054 23.955 0 46.629-5.486 66.833-15.271l-0.915 0.4zM210 140c0 8.283-26.6 23.333-70 23.333s-70-15.050-70-23.333v-38.15c19.289 9.385 41.963 14.871 65.918 14.871 1.435 0 2.866-0.020 4.292-0.059l-0.21 0.005c1.216 0.034 2.646 0.054 4.082 0.054 23.955 0 46.629-5.486 66.833-15.271l-0.915 0.4zM140 93.333c-43.4 0-70-15.050-70-23.333s26.6-23.333 70-23.333 70 15.050 70 23.333-26.6 23.333-70 23.333zM93.333 122.5c-6.443 0-11.667 5.223-11.667 11.667s5.223 11.667 11.667 11.667c6.443 0 11.667-5.223 11.667-11.667v0c0-6.443-5.223-11.667-11.667-11.667v0z"></path>
</svg>
