<!-- Generated by IcoMoon.io -->
<svg version="1.1" xmlns="http://www.w3.org/2000/svg" width="280" height="280" viewBox="0 0 280 280">
<title>ul-diamond</title>
<path fill="#ebebeb" d="M233.333 120.75l-67.433-86.45c-6.507-6.767-15.636-10.971-25.748-10.971-10.448 0-19.849 4.488-26.377 11.643l-0.025 0.028-67.083 85.75c-3.567 5.435-5.697 12.092-5.717 19.245v0.005c0.211 6.873 2.314 13.215 5.802 18.572l-0.085-0.139 0.7 0.817 66.967 86.45c6.395 6.76 15.429 10.967 25.445 10.967 0.078 0 0.156-0 0.234-0.001h-0.012c10.435-0.010 19.82-4.495 26.342-11.639l0.025-0.028 66.967-85.75c3.404-5.303 5.426-11.774 5.426-18.719 0-7.392-2.291-14.248-6.202-19.898l0.076 0.116zM215.017 145.717l-66.15 84.233c-2.299 2.123-5.384 3.425-8.773 3.425-2.94 0-5.652-0.98-7.826-2.631l0.032 0.023-66.383-85.283c-0.95-1.569-1.546-3.448-1.632-5.459l-0.001-0.024c0.019-1.907 0.447-3.709 1.2-5.33l-0.033 0.080 66.15-84.233c2.299-2.123 5.384-3.425 8.773-3.425 2.94 0 5.652 0.98 7.826 2.631l-0.032-0.023 65.683 84.933c1.165 1.78 1.86 3.958 1.867 6.298v0.002c-0.086 1.751-0.507 3.383-1.2 4.863l0.033-0.079z"></path>
</svg>
