<!-- Generated by IcoMoon.io -->
<svg version="1.1" xmlns="http://www.w3.org/2000/svg" width="280" height="280" viewBox="0 0 280 280">
<title>ul-desktop</title>
<path fill="#ebebeb" d="M221.667 35h-163.333c-19.33 0-35 15.67-35 35v0 93.333c0 19.33 15.67 35 35 35v0h70v23.333h-46.667c-6.443 0-11.667 5.223-11.667 11.667s5.223 11.667 11.667 11.667v0h116.667c6.443 0 11.667-5.223 11.667-11.667s-5.223-11.667-11.667-11.667v0h-46.667v-23.333h70c19.33 0 35-15.67 35-35v0-93.333c0-19.33-15.67-35-35-35v0zM233.333 163.333c0 6.443-5.223 11.667-11.667 11.667v0h-163.333c-6.443 0-11.667-5.223-11.667-11.667v0-93.333c0-6.443 5.223-11.667 11.667-11.667v0h163.333c6.443 0 11.667 5.223 11.667 11.667v0z"></path>
</svg>
