<!-- Generated by IcoMoon.io -->
<svg version="1.1" xmlns="http://www.w3.org/2000/svg" width="280" height="280" viewBox="0 0 280 280">
<title>ul-desktop-slash</title>
<path fill="#ebebeb" d="M124.367 70h85.633c6.443 0 11.667 5.223 11.667 11.667v0 70c0 0.022 0 0.048 0 0.075 0 2.132-0.608 4.121-1.661 5.805l0.027-0.046c-1.136 1.768-1.81 3.926-1.81 6.242 0 4.129 2.145 7.756 5.38 9.83l0.046 0.028c1.717 1.169 3.837 1.867 6.121 1.867 0.022 0 0.044 0 0.066-0h-0.003c4.096-0.007 7.696-2.124 9.772-5.321l0.028-0.045c3.366-5.214 5.367-11.584 5.367-18.421 0-0.004 0-0.008 0-0.013v0.001-70c0-19.33-15.67-35-35-35v0h-85.633c-6.443 0-11.667 5.223-11.667 11.667s5.223 11.667 11.667 11.667v0zM253.283 236.717l-210-210c-2.12-2.12-5.048-3.431-8.283-3.431-6.47 0-11.714 5.245-11.714 11.714 0 3.235 1.311 6.164 3.431 8.283v0l16.333 16.217c-4.975 5.97-8.009 13.71-8.050 22.158v70.009c0 19.33 15.67 35 35 35v0h58.333v23.333h-46.667c-6.443 0-11.667 5.223-11.667 11.667s5.223 11.667 11.667 11.667v0h116.667c4.972-0.054 9.193-3.209 10.824-7.619l0.026-0.081 27.533 27.65c2.114 2.131 5.045 3.451 8.283 3.451s6.169-1.32 8.283-3.45l0.001-0.001c2.131-2.114 3.451-5.045 3.451-8.283s-1.32-6.169-3.45-8.283l-0.001-0.001zM70 163.333c-6.443 0-11.667-5.223-11.667-11.667v0-70c0.031-1.971 0.546-3.815 1.43-5.427l-0.030 0.061 87.15 87.033zM151.667 210v-23.333h18.55l23.333 23.333z"></path>
</svg>
