<!-- Generated by IcoMoon.io -->
<svg version="1.1" xmlns="http://www.w3.org/2000/svg" width="280" height="280" viewBox="0 0 280 280">
<title>ul-envelope-lock</title>
<path fill="#ebebeb" d="M239.167 86.8v-13.767c0-19.33-15.67-35-35-35s-35 15.67-35 35v0 13.767c-13.68 4.939-23.289 17.791-23.333 32.895v23.339c0 19.33 15.67 35 35 35v0h46.667c19.33 0 35-15.67 35-35v0-23.333c-0.044-15.109-9.654-27.961-23.090-32.823l-0.244-0.077zM192.5 73.033c0-6.443 5.223-11.667 11.667-11.667s11.667 5.223 11.667 11.667v0 11.667h-23.333zM239.167 143.033c0 6.443-5.223 11.667-11.667 11.667v0h-46.667c-6.443 0-11.667-5.223-11.667-11.667v0-23.333c0-6.443 5.223-11.667 11.667-11.667v0h46.667c6.443 0 11.667 5.223 11.667 11.667v0zM239.167 201.367c-6.443 0-11.667 5.223-11.667 11.667v0 11.667c0 6.443-5.223 11.667-11.667 11.667v0h-163.333c-6.443 0-11.667-5.223-11.667-11.667v0-111.883l68.6 68.6c2.115 2.13 5.045 3.448 8.283 3.448 6.447 0 11.673-5.226 11.673-11.673 0-3.209-1.295-6.115-3.391-8.226l0.001 0.001-68.717-68.6h65.217c6.443 0 11.667-5.223 11.667-11.667s-5.223-11.667-11.667-11.667v0h-70c-19.33 0-35 15.67-35 35v0 116.667c0 19.33 15.67 35 35 35v0h163.333c19.33 0 35-15.67 35-35v0-11.667c0-6.443-5.223-11.667-11.667-11.667v0z"></path>
</svg>
