<!-- Generated by IcoMoon.io -->
<svg version="1.1" xmlns="http://www.w3.org/2000/svg" width="280" height="280" viewBox="0 0 280 280">
<title>ul-fahrenheit</title>
<path fill="#ebebeb" d="M239.167 35h-81.667c-19.33 0-35 15.67-35 35v0 163.333c0 6.443 5.223 11.667 11.667 11.667s11.667-5.223 11.667-11.667v0-81.667h70c6.443 0 11.667-5.223 11.667-11.667s-5.223-11.667-11.667-11.667v0h-70v-58.333c0-6.443 5.223-11.667 11.667-11.667v0h81.667c6.443 0 11.667-5.223 11.667-11.667s-5.223-11.667-11.667-11.667v0zM64.167 35c-19.33 0-35 15.67-35 35s15.67 35 35 35c19.33 0 35-15.67 35-35v0c0-19.33-15.67-35-35-35v0zM64.167 81.667c-6.443 0-11.667-5.223-11.667-11.667s5.223-11.667 11.667-11.667c6.443 0 11.667 5.223 11.667 11.667v0c0 6.443-5.223 11.667-11.667 11.667v0z"></path>
</svg>
