<!-- Generated by IcoMoon.io -->
<svg version="1.1" xmlns="http://www.w3.org/2000/svg" width="280" height="280" viewBox="0 0 280 280">
<title>ul-file-info-alt</title>
<path fill="#ebebeb" d="M175 186.667h-70c-6.443 0-11.667 5.223-11.667 11.667s5.223 11.667 11.667 11.667v0h70c6.443 0 11.667-5.223 11.667-11.667s-5.223-11.667-11.667-11.667v0zM105 116.667h11.667c6.443 0 11.667-5.223 11.667-11.667s-5.223-11.667-11.667-11.667v0h-11.667c-6.443 0-11.667 5.223-11.667 11.667s5.223 11.667 11.667 11.667v0zM175 140h-70c-6.443 0-11.667 5.223-11.667 11.667s5.223 11.667 11.667 11.667v0h70c6.443 0 11.667-5.223 11.667-11.667s-5.223-11.667-11.667-11.667v0zM229.95 178.383c-1.077-1.032-2.356-1.862-3.771-2.422l-0.079-0.028c-1.302-0.605-2.827-0.958-4.433-0.958s-3.131 0.353-4.5 0.986l0.066-0.028c-1.494 0.588-2.773 1.418-3.854 2.454l0.004-0.004c-0.997 1.094-1.822 2.367-2.417 3.763l-0.033 0.088c-0.577 1.335-0.912 2.89-0.912 4.522 0 3.194 1.284 6.089 3.363 8.195l-0.001-0.001c2.108 2.091 5.011 3.384 8.216 3.384 0.024 0 0.047 0 0.071-0h-0.004c1.606-0.020 3.127-0.361 4.509-0.962l-0.075 0.029c1.483-0.628 2.756-1.453 3.861-2.46l-0.011 0.010c2.078-2.105 3.362-5 3.362-8.194 0-1.633-0.336-3.187-0.941-4.598l0.029 0.076c-0.628-1.483-1.453-2.756-2.46-3.861l0.010 0.011zM233.333 104.3c-0.136-1.174-0.382-2.24-0.732-3.257l0.032 0.107v-1.050c-0.594-1.255-1.336-2.333-2.222-3.273l0.006 0.006-70-70c-0.934-0.88-2.011-1.622-3.191-2.184l-0.075-0.032c-0.158-0.024-0.34-0.037-0.525-0.037s-0.367 0.013-0.545 0.040l0.020-0.002c-1.109-0.647-2.411-1.101-3.799-1.278l-0.051-0.005h-70.583c-19.33 0-35 15.67-35 35v0 163.333c0 19.33 15.67 35 35 35v0h93.333c6.443 0 11.667-5.223 11.667-11.667s-5.223-11.667-11.667-11.667v0h-93.333c-6.443 0-11.667-5.223-11.667-11.667v0-163.333c0-6.443 5.223-11.667 11.667-11.667v0h58.333v35c0 19.33 15.67 35 35 35v0h35v23.333c0 6.443 5.223 11.667 11.667 11.667s11.667-5.223 11.667-11.667v0-35s0 0 0-0.7zM175 93.333c-6.443 0-11.667-5.223-11.667-11.667v0-18.55l30.217 30.217zM221.667 210c-6.443 0-11.667 5.223-11.667 11.667v0 23.333c0 6.443 5.223 11.667 11.667 11.667s11.667-5.223 11.667-11.667v0-23.333c0-6.443-5.223-11.667-11.667-11.667v0z"></path>
</svg>
