<!-- Generated by IcoMoon.io -->
<svg version="1.1" xmlns="http://www.w3.org/2000/svg" width="280" height="280" viewBox="0 0 280 280">
<title>ul-file-exclamation-alt</title>
<path fill="#ebebeb" d="M105 116.667h11.667c6.443 0 11.667-5.223 11.667-11.667s-5.223-11.667-11.667-11.667v0h-11.667c-6.443 0-11.667 5.223-11.667 11.667s5.223 11.667 11.667 11.667v0zM175 140h-70c-6.443 0-11.667 5.223-11.667 11.667s5.223 11.667 11.667 11.667v0h70c6.443 0 11.667-5.223 11.667-11.667s-5.223-11.667-11.667-11.667v0zM175 186.667h-70c-6.443 0-11.667 5.223-11.667 11.667s5.223 11.667 11.667 11.667v0h70c6.443 0 11.667-5.223 11.667-11.667s-5.223-11.667-11.667-11.667v0zM229.95 236.717c-0.526-0.477-1.096-0.937-1.693-1.362l-0.057-0.038c-0.605-0.416-1.299-0.771-2.038-1.031l-0.062-0.019-2.1-0.933c-0.672-0.138-1.444-0.216-2.235-0.216-1.636 0-3.194 0.337-4.607 0.945l0.076-0.029c-2.939 1.085-5.215 3.361-6.276 6.227l-0.024 0.073c-0.596 1.229-0.944 2.673-0.944 4.198 0 0.165 0.004 0.329 0.012 0.492l-0.001-0.023c-0.001 0.041-0.001 0.089-0.001 0.137 0 6.443 5.223 11.667 11.667 11.667s11.667-5.223 11.667-11.667c0-1.651-0.343-3.222-0.962-4.646l0.029 0.075c-0.628-1.483-1.453-2.756-2.46-3.861l0.010 0.011zM233.333 104.3c-0.136-1.174-0.382-2.24-0.732-3.257l0.032 0.107v-1.050c-0.594-1.255-1.336-2.333-2.222-3.273l0.006 0.006-70-70c-0.934-0.88-2.011-1.622-3.191-2.184l-0.075-0.032c-0.158-0.024-0.34-0.037-0.525-0.037s-0.367 0.013-0.545 0.040l0.020-0.002c-1.109-0.647-2.411-1.101-3.799-1.278l-0.051-0.005h-70.583c-19.33 0-35 15.67-35 35v0 163.333c0 19.33 15.67 35 35 35v0h93.333c6.443 0 11.667-5.223 11.667-11.667s-5.223-11.667-11.667-11.667v0h-93.333c-6.443 0-11.667-5.223-11.667-11.667v0-163.333c0-6.443 5.223-11.667 11.667-11.667v0h58.333v35c0 19.33 15.67 35 35 35v0h35v23.333c0 6.443 5.223 11.667 11.667 11.667s11.667-5.223 11.667-11.667v0-35s0 0 0-0.7zM175 93.333c-6.443 0-11.667-5.223-11.667-11.667v0-18.55l30.217 30.217zM221.667 175c-6.443 0-11.667 5.223-11.667 11.667v0 23.333c0 6.443 5.223 11.667 11.667 11.667s11.667-5.223 11.667-11.667v0-23.333c0-6.443-5.223-11.667-11.667-11.667v0z"></path>
</svg>
