<!-- Generated by IcoMoon.io -->
<svg version="1.1" xmlns="http://www.w3.org/2000/svg" width="280" height="280" viewBox="0 0 280 280">
<title>ul-file-medical-alt</title>
<path fill="#ebebeb" d="M210 210c-6.443 0-11.667 5.223-11.667 11.667v0c0 6.443-5.223 11.667-11.667 11.667v0h-116.667c-6.443 0-11.667-5.223-11.667-11.667v0-163.333c0-6.443 5.223-11.667 11.667-11.667v0h58.333v35c0 19.33 15.67 35 35 35v0h35v11.667c0 6.443 5.223 11.667 11.667 11.667s11.667-5.223 11.667-11.667v0-23.333s0 0 0-0.7c-0.136-1.174-0.382-2.24-0.732-3.257l0.032 0.107c0.024-0.158 0.037-0.34 0.037-0.525s-0.013-0.367-0.040-0.545l0.002 0.020c-0.594-1.255-1.336-2.333-2.222-3.273l0.006 0.006-70-70c-0.934-0.88-2.011-1.622-3.191-2.184l-0.075-0.032h-1.167c-1.009-0.553-2.178-0.996-3.412-1.267l-0.088-0.016h-70.817c-19.33 0-35 15.67-35 35v0 163.333c0 19.33 15.67 35 35 35v0h116.667c19.33 0 35-15.67 35-35v0c0-6.443-5.223-11.667-11.667-11.667v0zM151.667 63.117l30.217 30.217h-18.55c-6.443 0-11.667-5.223-11.667-11.667v0zM233.333 163.333h-29.167c-0.020 0-0.044-0-0.068-0-3.205 0-6.108 1.292-8.217 3.384l0.001-0.001-14.467 14.583-32.667-37.333c-2.15-2.454-5.29-3.995-8.789-3.995-3.219 0-6.133 1.303-8.244 3.412v0l-19.833 19.95h-18.55c-6.443 0-11.667 5.223-11.667 11.667s5.223 11.667 11.667 11.667v0h23.333c0.020 0 0.044 0 0.068 0 3.205 0 6.108-1.292 8.217-3.384l-0.001 0.001 15.050-14.583 32.667 37.333c2.069 2.35 5.048 3.857 8.381 3.966l0.019 0.001c0.020 0 0.044 0 0.068 0 3.205 0 6.108-1.292 8.217-3.384l-0.001 0.001 19.6-19.95h24.383c6.443 0 11.667-5.223 11.667-11.667s-5.223-11.667-11.667-11.667v0z"></path>
</svg>
