<!-- Generated by IcoMoon.io -->
<svg version="1.1" xmlns="http://www.w3.org/2000/svg" width="280" height="280" viewBox="0 0 280 280">
<title>ul-grin-tongue-wink-alt</title>
<path fill="#ebebeb" d="M107.45 122.967c2.109 2.097 5.016 3.393 8.225 3.393s6.116-1.296 8.226-3.393l-0.001 0.001c2.097-2.109 3.393-5.016 3.393-8.225s-1.296-6.116-3.393-8.226l0.001 0.001c-6.429-6.109-15.142-9.867-24.733-9.867s-18.305 3.758-24.749 9.881l0.015-0.014c-2.503 2.153-4.078 5.323-4.078 8.861 0 6.443 5.223 11.667 11.667 11.667 3.538 0 6.709-1.575 8.848-4.063l0.013-0.015c2.114-2.131 5.045-3.451 8.283-3.451s6.169 1.32 8.283 3.45l0.001 0.001zM140 23.333c-64.433 0-116.667 52.233-116.667 116.667s52.233 116.667 116.667 116.667c64.433 0 116.667-52.233 116.667-116.667v0c0-64.433-52.233-116.667-116.667-116.667v0zM140 233.333c-51.547 0-93.333-41.787-93.333-93.333s41.787-93.333 93.333-93.333c51.547 0 93.333 41.787 93.333 93.333v0c0 51.547-41.787 93.333-93.333 93.333v0zM175 105c-6.443 0-11.667 5.223-11.667 11.667s5.223 11.667 11.667 11.667c6.443 0 11.667-5.223 11.667-11.667v0c0-6.443-5.223-11.667-11.667-11.667v0zM175 151.667h-70c-6.443 0-11.667 5.223-11.667 11.667s5.223 11.667 11.667 11.667v0c0 19.33 15.67 35 35 35s35-15.67 35-35v0c6.443 0 11.667-5.223 11.667-11.667s-5.223-11.667-11.667-11.667v0zM140 186.667c-6.443 0-11.667-5.223-11.667-11.667v0h23.333c0 6.443-5.223 11.667-11.667 11.667v0z"></path>
</svg>
