<!-- Generated by IcoMoon.io -->
<svg version="1.1" xmlns="http://www.w3.org/2000/svg" width="280" height="280" viewBox="0 0 280 280">
<title>ul-github</title>
<path fill="#ebebeb" d="M140 26.211c-64.434 0.003-116.667 52.237-116.667 116.672 0 51.235 33.026 94.757 78.95 110.439l0.821 0.244c5.833 1.021 8.021-2.479 8.021-5.542 0-2.771-0.146-11.958-0.146-21.729-29.313 5.396-36.896-7.145-39.229-13.708-2.709-6.569-6.782-12.094-11.897-16.429l-0.062-0.051c-4.083-2.188-9.917-7.583-0.146-7.729 7.756 0.865 14.289 5.418 17.877 11.84l0.061 0.118c4.345 7.696 12.47 12.808 21.788 12.808 4.478 0 8.681-1.18 12.314-3.247l-0.123 0.065c0.54-6.165 3.285-11.603 7.43-15.596l0.008-0.007c-25.958-2.917-53.083-12.98-53.083-57.604-0.003-0.191-0.005-0.416-0.005-0.642 0-11.859 4.547-22.657 11.992-30.744l-0.029 0.032c-1.522-4.165-2.402-8.974-2.402-13.989 0-6.127 1.314-11.946 3.676-17.193l-0.107 0.265s9.77-3.063 32.083 11.958c8.744-2.5 18.788-3.938 29.167-3.938s20.422 1.438 29.941 4.125l-0.775-0.187c22.312-15.167 32.083-11.958 32.083-11.958 2.255 4.981 3.57 10.801 3.57 16.928 0 5.015-0.88 9.824-2.495 14.281l0.092-0.292c7.416 8.018 11.965 18.783 11.965 30.61 0 0.262-0.002 0.523-0.007 0.784l0.001-0.039c0 44.77-27.271 54.688-53.229 57.604 4.921 4.986 7.961 11.84 7.961 19.404 0 0.767-0.031 1.527-0.092 2.278l0.007-0.099c0 15.605-0.146 28.145-0.146 32.083 0 3.063 2.188 6.708 8.021 5.542 46.596-16.031 79.48-59.488 79.48-110.626 0-64.446-52.226-116.694-116.664-116.729h-0.004z"></path>
</svg>
