<!-- Generated by IcoMoon.io -->
<svg version="1.1" xmlns="http://www.w3.org/2000/svg" width="280" height="280" viewBox="0 0 280 280">
<title>ul-heart-alt</title>
<path fill="#ebebeb" d="M235.2 53.783c-13.238-13.242-31.529-21.432-51.732-21.432-16.365 0-31.475 5.374-43.662 14.454l0.194-0.138c-12.029-9.027-27.209-14.456-43.656-14.456-40.4 0-73.15 32.75-73.15 73.15 0 20.29 8.261 38.65 21.602 51.902l86.921 86.921c2.114 2.131 5.045 3.451 8.283 3.451s6.169-1.32 8.283-3.45l86.918-86.918c13.248-13.239 21.442-31.534 21.442-51.742s-8.194-38.502-21.442-51.741l-0-0zM218.75 140.817l-78.75 78.633-78.75-78.633c-8.993-9.029-14.552-21.483-14.552-35.235 0-27.443 22.139-49.716 49.531-49.932h0.021c13.678 0.035 26.049 5.602 34.999 14.582l0.001 0.001c2.114 2.131 5.045 3.451 8.283 3.451s6.169-1.32 8.283-3.45l0.001-0.001c8.688-7.56 20.118-12.169 32.624-12.169 27.513 0 49.817 22.304 49.817 49.817 0 12.652-4.716 24.202-12.487 32.988l0.046-0.053z"></path>
</svg>
