<!-- Generated by IcoMoon.io -->
<svg version="1.1" xmlns="http://www.w3.org/2000/svg" width="280" height="280" viewBox="0 0 280 280">
<title>ul-horizontal-align-center</title>
<path fill="#ebebeb" d="M245 116.667h-23.333v-35c0-6.443-5.223-11.667-11.667-11.667v0h-58.333v-35c0-6.443-5.223-11.667-11.667-11.667s-11.667 5.223-11.667 11.667v0 35h-58.333c-6.443 0-11.667 5.223-11.667 11.667v0 35h-23.333c-6.443 0-11.667 5.223-11.667 11.667v0 70c0 6.443 5.223 11.667 11.667 11.667v0h93.333v35c0 6.443 5.223 11.667 11.667 11.667s11.667-5.223 11.667-11.667v0-35h93.333c6.443 0 11.667-5.223 11.667-11.667v0-70c0-6.443-5.223-11.667-11.667-11.667v0zM81.667 93.333h116.667v23.333h-116.667zM233.333 186.667h-186.667v-46.667h186.667z"></path>
</svg>
