<!-- Generated by IcoMoon.io -->
<svg version="1.1" xmlns="http://www.w3.org/2000/svg" width="280" height="280" viewBox="0 0 280 280">
<title>ul-house-user</title>
<path fill="#ebebeb" d="M252.747 119.612l-105-93.333c-2.049-1.83-4.768-2.948-7.747-2.948s-5.698 1.118-7.759 2.958l0.011-0.010-105 93.333c-2.409 2.147-3.918 5.258-3.918 8.722 0 6.443 5.223 11.666 11.666 11.666 2.979 0 5.697-1.117 7.759-2.954l-0.011 0.010 3.919-3.483v111.428c0 0.001 0 0.002 0 0.003 0 6.442 5.222 11.664 11.664 11.664 0.001 0 0.002 0 0.003 0h163.333c0.001 0 0.002 0 0.003 0 6.442 0 11.664-5.222 11.664-11.664 0-0.001 0-0.002 0-0.003v0-111.428l3.919 3.484c2.050 1.827 4.768 2.944 7.747 2.944 6.443 0 11.666-5.223 11.666-11.666 0-3.464-1.51-6.575-3.907-8.711l-0.011-0.010zM107.15 233.333c4.881-13.702 17.741-23.334 32.85-23.334s27.969 9.632 32.774 23.090l0.076 0.243zM122.5 169.167c0-9.665 7.835-17.5 17.5-17.5s17.5 7.835 17.5 17.5c0 9.665-7.835 17.5-17.5 17.5v0c-9.661-0.011-17.489-7.839-17.5-17.499v-0.001zM210 233.333h-12.846c-3.417-15.994-13.012-29.288-26.109-37.52l-0.243-0.142c6.194-7.042 9.988-16.326 10.030-26.495v-0.009c0-22.552-18.282-40.833-40.833-40.833s-40.833 18.282-40.833 40.833v0c0.042 10.178 3.836 19.462 10.069 26.549l-0.039-0.045c-13.339 8.375-22.934 21.668-26.282 37.279l-0.069 0.383h-12.846v-120.503l70-62.222 70 62.222z"></path>
</svg>
