<!-- Generated by IcoMoon.io -->
<svg version="1.1" xmlns="http://www.w3.org/2000/svg" width="280" height="280" viewBox="0 0 280 280">
<title>ul-image-resize-landscape</title>
<path fill="#ebebeb" d="M151.667 128.333h-128.333c-6.443 0-11.667 5.223-11.667 11.667v0 105c0 6.443 5.223 11.667 11.667 11.667v0h126.7c0.583 0 1.050 0 1.633 0 6.443 0 11.667-5.223 11.667-11.667v0-105c0-6.443-5.223-11.667-11.667-11.667v0zM86.8 233.333l22.517-22.517c0.636-0.949 1.704-1.565 2.917-1.565s2.28 0.616 2.909 1.553l0.008 0.013 22.4 22.517zM140 202.767l-8.4-8.283c-5.039-4.821-11.885-7.789-19.425-7.789s-14.386 2.968-19.435 7.799l0.010-0.010-38.967 38.85h-18.783v-81.667h105zM23.333 47.95c4.247-0.001 7.964-2.271 10.004-5.664l0.029-0.053c1.388-1.959 2.218-4.398 2.218-7.031 0-0.071-0.001-0.142-0.002-0.214l0 0.011c0-0.004 0-0.010 0-0.014 0-6.443-5.223-11.667-11.667-11.667-0.205 0-0.409 0.005-0.612 0.016l0.028-0.001c-6.443 0-11.667 5.223-11.667 11.667v0 1.167c-0 0.035-0.001 0.076-0.001 0.117 0 6.443 5.223 11.667 11.667 11.667 0 0 0 0 0.001 0v0zM115.617 46.667h2.217c6.443 0 11.667-5.223 11.667-11.667s-5.223-11.667-11.667-11.667v0h-2.217c-6.443 0-11.667 5.223-11.667 11.667s5.223 11.667 11.667 11.667v0zM23.333 102.433c6.443 0 11.667-5.223 11.667-11.667v0-2.567c0-6.443-5.223-11.667-11.667-11.667s-11.667 5.223-11.667 11.667v0 2.567c0 6.443 5.223 11.667 11.667 11.667v0zM164.383 23.333h-2.217c-6.443 0-11.667 5.223-11.667 11.667s5.223 11.667 11.667 11.667v0h2.217c6.443 0 11.667-5.223 11.667-11.667s-5.223-11.667-11.667-11.667v0zM68.95 46.667h2.217c6.443 0 11.667-5.223 11.667-11.667s-5.223-11.667-11.667-11.667v0h-2.217c-6.443 0-11.667 5.223-11.667 11.667s5.223 11.667 11.667 11.667v0zM256.667 74.667c-6.443 0-11.667 5.223-11.667 11.667v0 2.45c0 6.443 5.223 11.667 11.667 11.667s11.667-5.223 11.667-11.667v0-2.45c0-6.443-5.223-11.667-11.667-11.667v0zM199.733 233.333h-2.8c-6.443 0-11.667 5.223-11.667 11.667s5.223 11.667 11.667 11.667v0h2.8c6.443 0 11.667-5.223 11.667-11.667s-5.223-11.667-11.667-11.667v0zM255.5 23.333c-5.922 0.613-10.5 5.576-10.5 11.608 0 0.021 0 0.041 0 0.062v-0.003c0.030 1.788 0.457 3.469 1.197 4.968l-0.030-0.068c1.903 4.012 5.92 6.737 10.574 6.737 5.981 0 10.91-4.5 11.587-10.299l0.005-0.054v-1.283c-0.559-6.557-6.019-11.668-12.673-11.668-0.056 0-0.112 0-0.168 0.001h0.008zM256.667 127.167c-6.443 0-11.667 5.223-11.667 11.667v0 2.567c0 6.443 5.223 11.667 11.667 11.667s11.667-5.223 11.667-11.667v0-2.567c0-6.443-5.223-11.667-11.667-11.667v0zM211.050 23.333h-2.217c-6.443 0-11.667 5.223-11.667 11.667s5.223 11.667 11.667 11.667v0h2.217c6.443 0 11.667-5.223 11.667-11.667s-5.223-11.667-11.667-11.667v0zM256.667 233.333c-0.004 0-0.010 0-0.014 0-1.874 0-3.638 0.475-5.176 1.312l0.057-0.028c-3.873 1.929-6.496 5.845-6.533 10.378v0.005c0 6.443 5.223 11.667 11.667 11.667v0c6.557-0.559 11.668-6.019 11.668-12.673 0-0.056-0-0.112-0.001-0.168v0.008c-0.612-5.922-5.576-10.5-11.608-10.5-0.021 0-0.041 0-0.062 0h0.003zM256.667 180.133c-6.443 0-11.667 5.223-11.667 11.667v0 2.567c0 6.443 5.223 11.667 11.667 11.667s11.667-5.223 11.667-11.667v0-3.033c0-6.443-5.223-11.667-11.667-11.667v0z"></path>
</svg>
