<!-- Generated by IcoMoon.io -->
<svg version="1.1" xmlns="http://www.w3.org/2000/svg" width="280" height="280" viewBox="0 0 280 280">
<title>ul-keyhole-square-full</title>
<path fill="#ebebeb" d="M128.333 136.733v38.267c0 6.443 5.223 11.667 11.667 11.667s11.667-5.223 11.667-11.667v0-38.267c6.984-4.086 11.613-11.53 11.667-20.059v-0.008c0-12.887-10.447-23.333-23.333-23.333s-23.333 10.447-23.333 23.333v0c0.053 8.537 4.683 15.981 11.557 20.007l0.11 0.060zM245 23.333h-210c-6.443 0-11.667 5.223-11.667 11.667v0 210c0 6.443 5.223 11.667 11.667 11.667v0h210c6.443 0 11.667-5.223 11.667-11.667v0-210c0-6.443-5.223-11.667-11.667-11.667v0zM233.333 233.333h-186.667v-186.667h186.667z"></path>
</svg>
