<!-- Generated by IcoMoon.io -->
<svg version="1.1" xmlns="http://www.w3.org/2000/svg" width="280" height="280" viewBox="0 0 280 280">
<title>ul-location-arrow</title>
<path fill="#ebebeb" d="M246.75 33.367c-6.123-6.238-14.644-10.105-24.068-10.105-3.914 0-7.673 0.667-11.168 1.894l0.236-0.072-165.083 55.183c-13.647 4.566-23.308 17.232-23.308 32.155 0 14.401 8.997 26.7 21.677 31.584l0.231 0.078 61.133 23.333c2.826 1.101 5.031 3.268 6.157 5.995l0.026 0.072 23.333 61.25c4.843 12.911 17.082 21.934 31.428 21.934 0.066 0 0.132-0 0.199-0.001h0.807c14.642-0.275 26.971-9.874 31.316-23.096l0.068-0.238 55.183-165.317c1.117-3.209 1.762-6.907 1.762-10.756 0-9.337-3.795-17.787-9.927-23.893l-0.001-0.001zM233.333 60.667l-55.767 165.433c-1.335 4.222-5.216 7.229-9.799 7.233h-0.001c-0.052 0.001-0.114 0.001-0.176 0.001-4.5 0-8.353-2.769-9.948-6.696l-0.026-0.072-23.333-61.25c-3.499-9.030-10.48-16.050-19.254-19.52l-0.23-0.080-61.25-23.333c-4.054-1.516-6.887-5.357-6.887-9.859 0-0.102 0.001-0.204 0.004-0.306l-0 0.015c0.004-4.584 3.011-8.465 7.161-9.78l0.073-0.020 165.433-55.183c1.185-0.497 2.562-0.785 4.007-0.785 5.863 0 10.617 4.753 10.617 10.617 0 1.286-0.229 2.518-0.647 3.659l0.024-0.074z"></path>
</svg>
