<!-- Generated by IcoMoon.io -->
<svg version="1.1" xmlns="http://www.w3.org/2000/svg" width="280" height="280" viewBox="0 0 280 280">
<title>ul-layer-group-slash</title>
<path fill="#ebebeb" d="M119.7 58.333l20.3-11.667 81.667 46.667-36.75 21.35c-3.514 2.054-5.838 5.809-5.838 10.106 0 2.118 0.564 4.105 1.551 5.817l-0.030-0.057c2.048 3.543 5.817 5.888 10.135 5.888 2.154 0 4.171-0.584 5.903-1.601l-0.055 0.030 54.25-31.383c3.557-2.044 5.914-5.821 5.914-10.15s-2.357-8.106-5.858-10.12l-0.057-0.030-105-60.667c-1.673-0.983-3.686-1.563-5.833-1.563s-4.16 0.581-5.888 1.593l0.055-0.030-26.133 15.167c-3.543 2.047-5.888 5.817-5.888 10.135 0 2.154 0.584 4.171 1.601 5.903l-0.030-0.055c2.008 3.691 5.858 6.155 10.282 6.155 2.094 0 4.060-0.552 5.759-1.518l-0.058 0.030zM43.283 26.717c-2.12-2.12-5.048-3.431-8.283-3.431-6.47 0-11.714 5.245-11.714 11.714 0 3.235 1.311 6.164 3.431 8.283v0l26.25 26.717-23.333 13.65c-3.557 2.044-5.914 5.821-5.914 10.15s2.357 8.106 5.858 10.12l0.057 0.030 105 60.667c1.673 0.983 3.686 1.563 5.833 1.563s4.16-0.581 5.888-1.593l-0.055 0.030 1.167-0.7 12.483 12.483-19.483 11.667-99.633-58.217c-1.674-0.979-3.686-1.557-5.833-1.557-6.465 0-11.707 5.241-11.707 11.707 0 4.318 2.338 8.091 5.818 10.12l0.056 0.030 105 60.667c1.654 0.954 3.638 1.517 5.753 1.517 0.028 0 0.057 0 0.085-0h-0.004c0.024 0 0.052 0 0.081 0 2.115 0 4.099-0.563 5.809-1.547l-0.057 0.030 30.683-17.733 12.483 12.483-49 27.767-99.167-56.817c-1.674-0.979-3.686-1.557-5.833-1.557-6.465 0-11.707 5.241-11.707 11.707 0 4.318 2.338 8.091 5.818 10.12l0.056 0.030 105 60.667c1.673 0.983 3.686 1.563 5.833 1.563s4.16-0.581 5.888-1.593l-0.055 0.030 60.317-35 30.567 30.683c2.114 2.131 5.045 3.451 8.283 3.451s6.169-1.32 8.283-3.45l0.001-0.001c2.131-2.114 3.451-5.045 3.451-8.283s-1.32-6.169-3.45-8.283l-0.001-0.001zM58.333 93.333l11.667-6.767 32.083 32.083zM239.167 129.85l-24.733 14.233c-3.535 2.059-5.873 5.832-5.873 10.15 0 6.465 5.241 11.707 11.707 11.707 2.147 0 4.159-0.578 5.889-1.587l-0.056 0.030 24.733-14.233c3.535-2.059 5.873-5.832 5.873-10.15 0-6.465-5.241-11.707-11.707-11.707-2.147 0-4.159 0.578-5.889 1.587l0.056-0.030z"></path>
</svg>
