<!-- Generated by IcoMoon.io -->
<svg version="1.1" xmlns="http://www.w3.org/2000/svg" width="280" height="280" viewBox="0 0 280 280">
<title>ul-link-add</title>
<path fill="#ebebeb" d="M141.283 179.55l-45.267 45.267c-5.219 5.239-12.439 8.48-20.417 8.48s-15.198-3.242-20.416-8.48l-0.001-0.001c-5.267-5.206-8.53-12.43-8.53-20.417s3.262-15.211 8.527-20.414l45.269-45.269c2.12-2.12 3.431-5.048 3.431-8.283 0-6.47-5.245-11.714-11.714-11.714-3.235 0-6.164 1.311-8.283 3.431v0l-45.267 45.383c-8.541 9.274-13.777 21.706-13.777 35.361 0 28.866 23.401 52.267 52.267 52.267 13.655 0 26.087-5.236 35.398-13.811l-0.037 0.033 45.383-45.267c2.12-2.12 3.431-5.048 3.431-8.283 0-6.47-5.245-11.714-11.714-11.714-3.235 0-6.164 1.311-8.283 3.431v0zM103.017 176.983c2.108 2.091 5.011 3.384 8.216 3.384 0.024 0 0.047 0 0.071-0h-0.004c0.020 0 0.044 0 0.068 0 3.205 0 6.108-1.292 8.217-3.384l57.399-57.399c2.12-2.12 3.431-5.048 3.431-8.283 0-6.47-5.245-11.714-11.714-11.714-3.235 0-6.164 1.311-8.283 3.431l-57.4 57.4c-2.131 2.114-3.451 5.045-3.451 8.283s1.32 6.169 3.45 8.283l0.001 0.001zM245 210h-11.667v-11.667c0-6.443-5.223-11.667-11.667-11.667s-11.667 5.223-11.667 11.667v0 11.667h-11.667c-6.443 0-11.667 5.223-11.667 11.667s5.223 11.667 11.667 11.667v0h11.667v11.667c0 6.443 5.223 11.667 11.667 11.667s11.667-5.223 11.667-11.667v0-11.667h11.667c6.443 0 11.667-5.223 11.667-11.667s-5.223-11.667-11.667-11.667v0zM196.117 157.85l45.267-45.383c8.541-9.274 13.777-21.706 13.777-35.361 0-28.866-23.401-52.267-52.267-52.267-13.655 0-26.087 5.236-35.398 13.811l0.037-0.033-45.383 45.267c-2.12 2.12-3.431 5.048-3.431 8.283 0 6.47 5.245 11.714 11.714 11.714 3.235 0 6.164-1.311 8.283-3.431v0l45.267-45.267c5.219-5.239 12.439-8.48 20.417-8.48s15.198 3.242 20.416 8.48l0.001 0.001c5.267 5.206 8.53 12.43 8.53 20.417s-3.262 15.211-8.527 20.414l-45.269 45.269c-2.131 2.114-3.451 5.045-3.451 8.283s1.32 6.169 3.45 8.283l0.001 0.001c2.114 2.131 5.045 3.451 8.283 3.451s6.169-1.32 8.283-3.45l0.001-0.001z"></path>
</svg>
