<!-- Generated by IcoMoon.io -->
<svg version="1.1" xmlns="http://www.w3.org/2000/svg" width="280" height="280" viewBox="0 0 280 280">
<title>ul-layers</title>
<path fill="#ebebeb" d="M29.167 123.2l105 60.667c1.673 0.983 3.686 1.563 5.833 1.563s4.16-0.581 5.888-1.593l-0.055 0.030 105-60.667c3.5-2.057 5.813-5.805 5.813-10.092s-2.312-8.034-5.758-10.062l-0.055-0.030-105-60.667c-1.673-0.983-3.686-1.563-5.833-1.563s-4.16 0.581-5.888 1.593l0.055-0.030-105 60.667c-3.5 2.057-5.813 5.805-5.813 10.092s2.312 8.034 5.758 10.062l0.055 0.030zM140 65.917l81.667 46.667-81.667 47.25-81.667-46.783zM239.167 156.8l-99.167 57.283-99.167-57.283c-1.689-1.006-3.724-1.601-5.899-1.601-4.282 0-8.026 2.307-10.055 5.747l-0.030 0.054c-0.988 1.677-1.572 3.694-1.572 5.848 0 4.318 2.346 8.088 5.832 10.105l0.056 0.030 105 60.667c1.673 0.983 3.686 1.563 5.833 1.563s4.16-0.581 5.888-1.593l-0.055 0.030 105-60.667c3.543-2.048 5.888-5.817 5.888-10.135 0-2.154-0.584-4.171-1.601-5.903l0.030 0.055c-2.059-3.494-5.802-5.801-10.085-5.801-2.174 0-4.21 0.595-5.952 1.631l0.054-0.030z"></path>
</svg>
