<!-- Generated by IcoMoon.io -->
<svg version="1.1" xmlns="http://www.w3.org/2000/svg" width="280" height="280" viewBox="0 0 280 280">
<title>ul-laptop-cloud</title>
<path fill="#ebebeb" d="M52.5 116.667h64.167c19.295-0.046 34.918-15.699 34.918-35 0-14.811-9.2-27.474-22.197-32.584l-0.238-0.082c-7.889-15.243-23.539-25.482-41.581-25.482-22.403 0-41.119 15.786-45.631 36.842l-0.055 0.306c-10.528 4.557-17.761 14.856-17.761 26.844 0 15.831 12.612 28.716 28.337 29.155l0.040 0.001zM52.5 81.667c6.443 0 11.667-5.223 11.667-11.667v0c0.093-12.816 10.504-23.17 23.333-23.17 10.154 0 18.793 6.486 22 15.54l0.050 0.163c1.412 4.006 4.838 6.967 9.031 7.69l0.069 0.010c5.513 0.977 9.651 5.717 9.683 11.43v0.004c0 6.443-5.223 11.667-11.667 11.667v0h-64.167c-3.222 0-5.833-2.612-5.833-5.833s2.612-5.833 5.833-5.833v0zM245 186.667h-11.667v-81.667c0-19.33-15.67-35-35-35v0h-11.667c-6.443 0-11.667 5.223-11.667 11.667s5.223 11.667 11.667 11.667v0h11.667c6.443 0 11.667 5.223 11.667 11.667v0 81.667h-140v-35c0-6.443-5.223-11.667-11.667-11.667s-11.667 5.223-11.667 11.667v0 35h-11.667c-6.443 0-11.667 5.223-11.667 11.667v0 23.333c0 19.33 15.67 35 35 35v0h163.333c19.33 0 35-15.67 35-35v0-23.333c0-6.443-5.223-11.667-11.667-11.667v0zM233.333 221.667c0 6.443-5.223 11.667-11.667 11.667v0h-163.333c-6.443 0-11.667-5.223-11.667-11.667v0-11.667h186.667z"></path>
</svg>
