<!-- Generated by IcoMoon.io -->
<svg version="1.1" xmlns="http://www.w3.org/2000/svg" width="280" height="280" viewBox="0 0 280 280">
<title>ul-letter-hindi-a</title>
<path fill="#ebebeb" d="M233.59 35h-58.333c-6.443 0-11.667 5.223-11.667 11.667s5.223 11.667 11.667 11.667v0h17.5v70h-57.749c7.424-9.583 11.917-21.762 11.965-34.989v-0.011c-0.001-32.216-26.117-58.332-58.333-58.332-21.477 0-40.244 11.607-50.369 28.89l-0.149 0.275c-1.002 1.686-1.594 3.716-1.594 5.885 0 6.442 5.222 11.664 11.664 11.664 4.315 0 8.082-2.343 10.1-5.826l0.030-0.056c6.164-10.538 17.426-17.505 30.315-17.505 19.331 0 35.002 15.671 35.002 35.002s-15.67 35.001-35 35.002h-0c-6.443 0-11.667 5.223-11.667 11.667s5.223 11.667 11.667 11.667v0c19.327 0.004 34.993 15.672 34.993 35 0 19.33-15.67 35-35 35-12.887 0-24.147-6.964-30.221-17.335l-0.089-0.165c-2.058-3.493-5.801-5.8-10.083-5.8-6.442 0-11.664 5.222-11.664 11.664 0 2.136 0.574 4.137 1.576 5.859l-0.030-0.056c10.274 17.559 29.040 29.166 50.518 29.166 32.216 0 58.333-26.116 58.333-58.333v0c-0.048-13.238-4.541-25.417-12.064-35.132l0.099 0.132h57.749v81.667c0 6.443 5.223 11.667 11.667 11.667s11.667-5.223 11.667-11.667v0-175h17.5c6.443 0 11.667-5.223 11.667-11.667s-5.223-11.667-11.667-11.667v0z"></path>
</svg>
