<!-- Generated by IcoMoon.io -->
<svg version="1.1" xmlns="http://www.w3.org/2000/svg" width="280" height="280" viewBox="0 0 280 280">
<title>ul-money-withdrawal</title>
<path fill="#ebebeb" d="M256.667 23.333h-233.333c-6.443 0-11.667 5.223-11.667 11.667v0 93.333c0 6.443 5.223 11.667 11.667 11.667v0h35v105c0 6.443 5.223 11.667 11.667 11.667v0h140c6.443 0 11.667-5.223 11.667-11.667v0-105h35c6.443 0 11.667-5.223 11.667-11.667v0-93.333c0-6.443-5.223-11.667-11.667-11.667v0zM81.667 233.333v-23.333c12.887 0 23.333 10.447 23.333 23.333v0zM198.333 233.333h-23.333c0-12.887 10.447-23.333 23.333-23.333v0zM198.333 186.667c-25.773 0-46.667 20.893-46.667 46.667v0h-23.333c0-25.773-20.893-46.667-46.667-46.667v0-93.333h116.667zM245 116.667h-23.333v-35c0-6.443-5.223-11.667-11.667-11.667v0h-140c-6.443 0-11.667 5.223-11.667 11.667v0 35h-23.333v-70h210zM140 175c19.33 0 35-15.67 35-35s-15.67-35-35-35c-19.33 0-35 15.67-35 35v0c0 19.33 15.67 35 35 35v0zM140 128.333c6.443 0 11.667 5.223 11.667 11.667s-5.223 11.667-11.667 11.667c-6.443 0-11.667-5.223-11.667-11.667v0c0-6.443 5.223-11.667 11.667-11.667v0z"></path>
</svg>
