<!-- Generated by IcoMoon.io -->
<svg version="1.1" xmlns="http://www.w3.org/2000/svg" width="280" height="280" viewBox="0 0 280 280">
<title>ul-mountains-sun</title>
<path fill="#ebebeb" d="M210 116.667c25.773 0 46.667-20.893 46.667-46.667s-20.893-46.667-46.667-46.667c-25.773 0-46.667 20.893-46.667 46.667v0c0 25.773 20.893 46.667 46.667 46.667v0zM210 46.667c12.887 0 23.333 10.447 23.333 23.333s-10.447 23.333-23.333 23.333c-12.887 0-23.333-10.447-23.333-23.333v0c0-12.887 10.447-23.333 23.333-23.333v0zM196.583 145.483c-2.092-3.336-5.749-5.521-9.917-5.521s-7.825 2.185-9.888 5.472l-0.028 0.049-11.667 19.017-38.383-65.333c-2.070-3.444-5.787-5.713-10.033-5.713s-7.963 2.269-10.004 5.661l-0.029 0.053-81.667 140c-0.983 1.673-1.563 3.686-1.563 5.834 0 6.419 5.184 11.627 11.593 11.666h210.004c0.007 0 0.015 0 0.023 0 6.443 0 11.667-5.223 11.667-11.667 0-2.291-0.661-4.428-1.802-6.231l0.028 0.048zM121.917 233.333h-66.617l61.367-105 34.3 58.333-14.583 23.333zM149.333 233.333l17.383-27.65 8.283-12.367 11.667-19.6 37.333 59.617z"></path>
</svg>
