<!-- Generated by IcoMoon.io -->
<svg version="1.1" xmlns="http://www.w3.org/2000/svg" width="280" height="280" viewBox="0 0 280 280">
<title>ul-mobile-vibrate</title>
<path fill="#ebebeb" d="M115.267 164.733l-1.75-1.4-2.1-1.167-2.1-0.583c-0.689-0.144-1.48-0.227-2.291-0.227-3.202 0-6.102 1.29-8.21 3.378l0.001-0.001c-1.129 1.036-2.007 2.327-2.545 3.783l-0.022 0.067c-0.591 1.305-0.936 2.829-0.936 4.433s0.345 3.129 0.964 4.502l-0.028-0.069c1.279 2.814 3.486 5.021 6.222 6.268l0.078 0.032c1.306 0.572 2.827 0.913 4.426 0.933h0.007c1.647-0.032 3.206-0.372 4.634-0.964l-0.084 0.031c1.471-0.592 2.718-1.465 3.727-2.56l0.006-0.007c1.065-1.040 1.931-2.279 2.537-3.659l0.029-0.075c0.517-1.271 0.818-2.746 0.818-4.291 0-0.050-0-0.1-0.001-0.151v0.008c0.002-0.075 0.003-0.164 0.003-0.252 0-1.519-0.345-2.957-0.962-4.24l0.025 0.059c-0.566-1.502-1.399-2.785-2.451-3.851l0.001 0.001zM40.95 102.2c3.245-0.014 6.175-1.351 8.282-3.498l49.469-49.469c2.097-2.109 3.393-5.016 3.393-8.225s-1.296-6.116-3.393-8.226l0.001 0.001c-2.109-2.097-5.016-3.393-8.225-3.393s-6.116 1.296-8.226 3.393l-49.466 49.466c-2.097 2.109-3.393 5.016-3.393 8.225s1.296 6.116 3.393 8.226l-0.001-0.001c2.081 2.123 4.964 3.453 8.158 3.5h0.009zM247.217 181.3c-2.109-2.097-5.016-3.393-8.225-3.393s-6.116 1.296-8.226 3.393l-49.466 49.466c-2.131 2.114-3.451 5.045-3.451 8.284 0 6.426 5.196 11.639 11.615 11.666h0.003c3.245-0.014 6.175-1.351 8.282-3.498l0.002-0.002 49.467-48.883c2.276-2.134 3.693-5.16 3.693-8.517s-1.417-6.382-3.687-8.511l-0.006-0.006zM249.2 115.267c0-0.026 0-0.056 0-0.086 0-9.615-3.877-18.324-10.152-24.65l-49.581-49.581c-6.429-6.109-15.142-9.867-24.733-9.867s-18.305 3.758-24.749 9.881l0.015-0.014-99.050 99.050c-6.325 6.332-10.236 15.076-10.236 24.733s3.911 18.401 10.236 24.734l49.583 49.583c6.332 6.325 15.076 10.236 24.733 10.236s18.401-3.911 24.734-10.236l99.050-99.050c6.273-6.324 10.15-15.032 10.15-24.647 0-0.030 0-0.061 0-0.091v0.005zM222.483 123.55l-98.933 98.933c-2.114 2.131-5.045 3.451-8.283 3.451s-6.169-1.32-8.283-3.45l-49.468-49.468c-2.131-2.114-3.451-5.045-3.451-8.283s1.32-6.169 3.45-8.283l98.934-98.934c2.114-2.131 5.045-3.451 8.283-3.451s6.169 1.32 8.283 3.45l49.468 49.468c2.131 2.114 3.451 5.045 3.451 8.283s-1.32 6.169-3.45 8.283l-0.001 0.001z"></path>
</svg>
