<!-- Generated by IcoMoon.io -->
<svg version="1.1" xmlns="http://www.w3.org/2000/svg" width="280" height="280" viewBox="0 0 280 280">
<title>ul-metro</title>
<path fill="#ebebeb" d="M101.617 166.717c-2.108-2.076-5.003-3.358-8.198-3.358-1.631 0-3.183 0.334-4.593 0.937l0.076-0.029c-2.938 1.086-5.214 3.362-6.276 6.227l-0.024 0.073c-0.591 1.35-0.935 2.923-0.935 4.577 0 6.444 5.224 11.668 11.668 11.668s11.668-5.224 11.668-11.668c0-1.654-0.344-3.227-0.964-4.652l0.029 0.075c-0.628-1.483-1.452-2.756-2.46-3.861l0.010 0.011zM194.95 166.717c-2.169-2.007-5.082-3.239-8.283-3.239s-6.114 1.231-8.291 3.246l0.008-0.007c-0.998 1.094-1.822 2.368-2.417 3.764l-0.033 0.088c-0.591 1.342-0.935 2.906-0.935 4.551 0 3.189 1.293 6.076 3.384 8.165v0c1.094 0.998 2.368 1.822 3.764 2.417l0.088 0.033c1.304 0.59 2.828 0.934 4.432 0.934s3.128-0.344 4.501-0.962l-0.069 0.028c1.482-0.631 2.756-1.455 3.862-2.46l-0.011 0.010c2.091-2.089 3.385-4.976 3.385-8.165 0-1.644-0.344-3.208-0.964-4.624l0.029 0.074c-0.627-1.483-1.452-2.758-2.458-3.863l0.010 0.011zM225.277 220.445c13.362-10.715 21.843-27.039 21.843-45.343 0-3.84-0.373-7.593-1.086-11.224l0.060 0.367-17.5-93.333c-5.252-27.258-28.913-47.569-57.319-47.578h-62.55c-28.407 0.009-52.067 20.32-57.261 47.211l-0.059 0.367-17.5 93.333c-0.652 3.264-1.026 7.017-1.026 10.857 0 18.304 8.481 34.628 21.729 45.255l0.114 0.088-16.305 16.306c-2.156 2.118-3.492 5.065-3.492 8.323 0 6.443 5.223 11.665 11.665 11.665 3.259 0 6.205-1.336 8.322-3.49l21.808-21.808c4.346 1.181 9.34 1.869 14.491 1.892h97.562c5.164-0.022 10.158-0.711 14.912-1.984l-0.408 0.093 21.807 21.806c2.103 2.067 4.989 3.342 8.174 3.342 6.443 0 11.665-5.223 11.665-11.665 0-3.184-1.276-6.070-3.344-8.175l0.002 0.002zM74.329 75.218c3.158-16.354 17.352-28.539 34.395-28.552h62.55c17.044 0.013 31.239 12.197 34.361 28.331l0.036 0.22 4.045 21.571c-17.094 19.382-41.984 31.544-69.715 31.544s-52.621-12.162-69.628-31.443l-0.087-0.101zM215.697 197.353c-6.444 7.749-16.089 12.647-26.876 12.647-0.016 0-0.032 0-0.048 0h-97.546c-19.328-0.007-34.994-15.678-34.994-35.007 0-2.278 0.218-4.505 0.633-6.662l-0.035 0.22 8.296-44.244c20.072 17.014 46.265 27.359 74.875 27.359s54.803-10.345 75.044-27.499l-0.169 0.139 8.296 44.244c0.386 1.947 0.606 4.185 0.606 6.475 0 8.518-3.053 16.324-8.125 22.382l0.045-0.055z"></path>
</svg>
