<!-- Generated by IcoMoon.io -->
<svg version="1.1" xmlns="http://www.w3.org/2000/svg" width="280" height="280" viewBox="0 0 280 280">
<title>ul-nerd</title>
<path fill="#ebebeb" d="M249.783 100.917s0 0 0-0.7c-16.746-45.235-59.515-76.895-109.678-76.895-49.902 0-92.486 31.33-109.155 75.392l-0.266 0.803c-0.422 0.81-0.747 1.749-0.924 2.74l-0.009 0.060c-4.042 11.224-6.39 24.175-6.417 37.671v0.012c-0.001 0.117-0.001 0.256-0.001 0.396 0 64.433 52.233 116.667 116.667 116.667s116.667-52.233 116.667-116.667c0-14.16-2.523-27.731-7.143-40.288l0.261 0.809zM140 46.667c34.328 0.036 64.311 18.599 80.495 46.226l0.238 0.44h-14c-6.426-7.045-15.643-11.447-25.89-11.447-11.417 0-21.558 5.467-27.946 13.926l-0.064 0.088c-3.795-1.539-8.192-2.473-12.796-2.566l-0.038-0.001c-4.641 0.093-9.039 1.027-13.082 2.655l0.249-0.088c-6.453-8.547-16.593-14.014-28.010-14.014-10.246 0-19.464 4.403-25.865 11.42l-0.025 0.028h-14c16.422-28.068 46.406-46.63 80.728-46.667h0.005zM192.5 116.667c0 6.443-5.223 11.667-11.667 11.667s-11.667-5.223-11.667-11.667c0-6.443 5.223-11.667 11.667-11.667v0c6.443 0 11.667 5.223 11.667 11.667v0zM110.833 116.667c0 6.443-5.223 11.667-11.667 11.667s-11.667-5.223-11.667-11.667c0-6.443 5.223-11.667 11.667-11.667v0c6.443 0 11.667 5.223 11.667 11.667v0zM140 233.333c-51.547 0-93.333-41.787-93.333-93.333v0c0.057-8.315 1.16-16.346 3.184-24.004l-0.151 0.67h14.467c-0.010 0.313-0.016 0.681-0.016 1.050 0 19.339 15.677 35.016 35.016 35.016 18.969 0 34.416-15.084 34.999-33.912l0.001-0.054c1.673-0.983 3.686-1.563 5.833-1.563s4.16 0.581 5.888 1.593l-0.055-0.030c0.584 18.882 16.031 33.966 35 33.966 19.339 0 35.016-15.677 35.016-35.016 0-0.369-0.006-0.737-0.017-1.104l0.001 0.054h14.467c1.874 6.987 2.977 15.019 3.033 23.299l0 0.034c0 51.547-41.787 93.333-93.333 93.333v0zM167.533 166.017c-7.459 6.052-17.068 9.717-27.533 9.717s-20.075-3.665-27.615-9.781l0.081 0.064c-2.009-1.679-4.619-2.698-7.467-2.698-6.451 0-11.681 5.23-11.681 11.681 0 3.603 1.632 6.826 4.196 8.968l0.019 0.015c11.412 9.578 26.26 15.396 42.467 15.396s31.055-5.818 42.569-15.479l-0.102 0.084c2.583-2.158 4.214-5.38 4.214-8.983 0-6.451-5.23-11.681-11.681-11.681-2.848 0-5.458 1.019-7.485 2.713l0.019-0.015z"></path>
</svg>
