<!-- Generated by IcoMoon.io -->
<svg version="1.1" xmlns="http://www.w3.org/2000/svg" width="280" height="280" viewBox="0 0 280 280">
<title>ul-object-ungroup</title>
<path fill="#ebebeb" d="M245 213.267v-76.533c7.205-4.064 11.991-11.669 11.991-20.391 0-12.887-10.447-23.333-23.333-23.333-8.722 0-16.327 4.786-20.331 11.875l-0.060 0.116h-38.267v-38.267c7.205-4.064 11.991-11.669 11.991-20.391 0-12.887-10.447-23.333-23.333-23.333-8.722 0-16.327 4.786-20.331 11.875l-0.060 0.116h-76.533c-4.064-7.205-11.669-11.991-20.391-11.991-12.887 0-23.333 10.447-23.333 23.333 0 8.722 4.786 16.327 11.875 20.331l0.116 0.060v76.533c-7.205 4.064-11.991 11.669-11.991 20.391 0 12.887 10.447 23.333 23.333 23.333 8.722 0 16.327-4.786 20.331-11.875l0.060-0.116h38.267v38.267c-7.205 4.064-11.991 11.669-11.991 20.391 0 12.887 10.447 23.333 23.333 23.333 8.722 0 16.327-4.786 20.331-11.875l0.060-0.116h76.533c4.064 7.205 11.669 11.991 20.391 11.991 12.887 0 23.333-10.447 23.333-23.333 0-8.722-4.786-16.327-11.875-20.331l-0.116-0.060zM93.333 116.667c0.053 8.537 4.683 15.981 11.557 20.007l0.11 0.060v14.933h-38.267c-2.024-3.528-4.872-6.376-8.292-8.343l-0.108-0.057v-76.533c3.528-2.024 6.376-4.872 8.343-8.292l0.057-0.108h76.533c2.024 3.528 4.872 6.376 8.292 8.343l0.108 0.057v38.267h-14.933c-4.14-6.89-11.574-11.429-20.068-11.429-12.803 0-23.197 10.311-23.332 23.082v0.013zM151.667 128.333v14.933c-3.528 2.024-6.376 4.872-8.343 8.292l-0.057 0.108h-14.933v-14.933c3.528-2.024 6.376-4.872 8.343-8.292l0.057-0.108zM221.667 213.267c-3.528 2.024-6.376 4.872-8.343 8.292l-0.057 0.108h-76.533c-2.024-3.528-4.872-6.376-8.292-8.343l-0.108-0.057v-38.267h14.933c4.064 7.205 11.669 11.991 20.391 11.991 12.887 0 23.333-10.447 23.333-23.333 0-8.722-4.786-16.327-11.875-20.331l-0.116-0.060v-14.933h38.267c2.024 3.528 4.872 6.376 8.292 8.343l0.108 0.057z"></path>
</svg>
