<!-- Generated by IcoMoon.io -->
<svg version="1.1" xmlns="http://www.w3.org/2000/svg" width="280" height="280" viewBox="0 0 280 280">
<title>ul-play-circle</title>
<path fill="#ebebeb" d="M186.667 119.817l-58.333-33.717c-3.347-1.965-7.371-3.126-11.667-3.126-12.878 0-23.32 10.433-23.333 23.308v67.435c0.009 8.582 4.65 16.078 11.557 20.124l0.11 0.060c3.347 1.965 7.371 3.126 11.667 3.126s8.32-1.161 11.777-3.186l-0.11 0.060 58.333-33.717c7.001-4.115 11.625-11.609 11.625-20.183s-4.625-16.068-11.516-20.124l-0.109-0.060zM175 140l-58.333 33.717v-67.433l58.333 33.717zM140 23.333c-64.433 0-116.667 52.233-116.667 116.667s52.233 116.667 116.667 116.667c64.433 0 116.667-52.233 116.667-116.667v0c0-64.433-52.233-116.667-116.667-116.667v0zM140 233.333c-51.547 0-93.333-41.787-93.333-93.333s41.787-93.333 93.333-93.333c51.547 0 93.333 41.787 93.333 93.333v0c0 51.547-41.787 93.333-93.333 93.333v0z"></path>
</svg>
