<!-- Generated by IcoMoon.io -->
<svg version="1.1" xmlns="http://www.w3.org/2000/svg" width="280" height="280" viewBox="0 0 280 280">
<title>ul-pricetag-alt</title>
<path fill="#ebebeb" d="M81.667 70c-6.443 0-11.667 5.223-11.667 11.667s5.223 11.667 11.667 11.667c6.443 0 11.667-5.223 11.667-11.667v0c0-6.443-5.223-11.667-11.667-11.667v0zM253.283 137.433l-110.6-110.367c-2.129-2.29-5.154-3.722-8.515-3.733h-70.002c-0.020 0-0.044-0-0.068-0-3.205 0-6.108 1.292-8.217 3.384l0.001-0.001-29.167 29.050c-2.091 2.108-3.384 5.011-3.384 8.216 0 0.024 0 0.047 0 0.071v-0.004 70c0.046 3.219 1.326 6.129 3.388 8.288l-0.004-0.005 110.717 110.833c2.154 2.057 5.065 3.337 8.274 3.383h0.009c0.020 0 0.044 0 0.068 0 3.205 0 6.108-1.292 8.217-3.384l99.282-99.282c2.091-2.108 3.384-5.011 3.384-8.216 0-0.024 0-0.047-0-0.071v0.004c-0.077-3.176-1.352-6.041-3.388-8.171l0.004 0.005zM145.717 228.55l-99.050-99.167v-60.55l22.167-22.167h60.433l99.167 99.050z"></path>
</svg>
