<!-- Generated by IcoMoon.io -->
<svg version="1.1" xmlns="http://www.w3.org/2000/svg" width="280" height="280" viewBox="0 0 280 280">
<title>ul-plane-fly</title>
<path fill="#ebebeb" d="M268.333 108.733c0.224-0.88 0.352-1.889 0.352-2.929 0-2.177-0.563-4.224-1.551-6.001l0.032 0.063c-10.125-17.335-28.64-28.797-49.833-28.797-10.653 0-20.629 2.896-29.185 7.944l0.268-0.146-25.083 14.467-58.333-27.417c-1.558-0.824-3.406-1.308-5.367-1.308s-3.808 0.484-5.43 1.338l0.064-0.031-35 20.183c-3.428 2.003-5.72 5.622-5.833 9.784l-0 0.016c-0.003 0.098-0.005 0.212-0.005 0.328 0 4.105 2.121 7.715 5.326 9.795l0.045 0.028 38.5 24.267-20.3 11.667-55.767 6.767c-5.797 0.738-10.234 5.64-10.234 11.578 0 3.526 1.564 6.687 4.036 8.826l0.015 0.013 41.3 35.7c6.27 5.992 14.787 9.681 24.165 9.681 6.343 0 12.292-1.687 17.422-4.638l-0.17 0.090 164.733-94.15c2.813-1.482 4.913-4 5.812-7.034l0.021-0.083zM87.15 190.4c-1.623 0.909-3.561 1.445-5.624 1.445-3.285 0-6.253-1.358-8.373-3.542l-0.003-0.003-22.167-19.017 31.85-3.85c1.66-0.218 3.159-0.754 4.487-1.546l-0.053 0.030 39.2-22.517c3.46-2.023 5.763-5.693 5.833-9.907v-0.010c0.001-0.042 0.001-0.091 0.001-0.139 0-4.152-2.169-7.798-5.436-9.866l-0.048-0.028-38.5-24.383 12.833-7.35 58.333 27.067c1.558 0.824 3.406 1.308 5.367 1.308s3.808-0.484 5.43-1.338l-0.064 0.031 29.867-17.267c4.926-2.811 10.825-4.468 17.111-4.468 8.405 0 16.118 2.962 22.151 7.9l-0.062-0.049z"></path>
</svg>
