<!-- Generated by IcoMoon.io -->
<svg version="1.1" xmlns="http://www.w3.org/2000/svg" width="280" height="280" viewBox="0 0 280 280">
<title>ul-panorama-h-alt</title>
<path fill="#ebebeb" d="M250.367 68.017c-0.71-4.771-4.224-8.561-8.787-9.667l-0.080-0.016h-1.283c-30.104-7.394-64.665-11.636-100.217-11.636s-70.113 4.242-103.205 12.246l2.988-0.611h-1.283c-4.55 1.075-8.025 4.707-8.856 9.262l-0.011 0.071c-4.008 21.643-6.3 46.545-6.3 71.983s2.292 50.341 6.681 74.513l-0.381-2.53c0.841 4.626 4.317 8.258 8.787 9.317l0.079 0.016h1.283c30.010 7.598 64.523 12.091 100.040 12.366l0.177 0.001c35.563-0.026 70.121-4.277 103.214-12.279l-2.998 0.612h1.283c4.55-1.075 8.025-4.707 8.856-9.262l0.011-0.071c4.027-21.695 6.331-46.658 6.331-72.158s-2.303-50.463-6.713-74.691l0.383 2.532zM228.667 200.317c-26.647 6.118-57.247 9.625-88.667 9.625s-62.019-3.507-91.43-10.149l2.764 0.525c-3.007-18.131-4.725-39.023-4.725-60.317s1.718-42.186 5.024-62.546l-0.299 2.229c26.647-6.118 57.247-9.625 88.667-9.625s62.019 3.507 91.43 10.149l-2.764-0.525c3.007 18.131 4.725 39.023 4.725 60.317s-1.718 42.186-5.024 62.546l0.299-2.229z"></path>
</svg>
