<!-- Generated by IcoMoon.io -->
<svg version="1.1" xmlns="http://www.w3.org/2000/svg" width="280" height="280" viewBox="0 0 280 280">
<title>ul-presentation-edit</title>
<path fill="#ebebeb" d="M109.783 151.667h28.233c0.020 0 0.044 0 0.068 0 3.205 0 6.108-1.292 8.217-3.384l41.766-41.766c2.097-2.109 3.393-5.016 3.393-8.225s-1.296-6.116-3.393-8.226l0.001 0.001-28.233-28c-2.109-2.097-5.016-3.393-8.225-3.393s-6.116 1.296-8.226 3.393l-41.766 41.766c-2.123 2.081-3.453 4.964-3.5 8.158v28.009c0 6.443 5.223 11.667 11.667 11.667v0zM121.45 116.667l30.217-29.867 11.667 11.667-30.1 29.867h-11.667zM245 163.333h-11.667v-116.667h11.667c6.443 0 11.667-5.223 11.667-11.667s-5.223-11.667-11.667-11.667v0h-210c-6.443 0-11.667 5.223-11.667 11.667s5.223 11.667 11.667 11.667v0h11.667v116.667h-11.667c-6.443 0-11.667 5.223-11.667 11.667s5.223 11.667 11.667 11.667v0h93.333v13.417l-53.083 35c-3.339 2.092-5.526 5.75-5.526 9.92 0 6.443 5.223 11.667 11.667 11.667 0.097 0 0.194-0.001 0.29-0.004l-0.014 0c0.037 0.001 0.081 0.001 0.126 0.001 2.356 0 4.538-0.743 6.326-2.007l-0.034 0.023 40.25-26.6v16.917c0 6.443 5.223 11.667 11.667 11.667s11.667-5.223 11.667-11.667v0-16.917l40.25 26.6c1.753 1.241 3.935 1.984 6.291 1.984 0.044 0 0.088-0 0.132-0.001h-0.007c6.404-0.051 11.577-5.255 11.577-11.666 0-4.017-2.030-7.559-5.119-9.658l-0.041-0.026-53.083-35v-13.65h93.333c6.443 0 11.667-5.223 11.667-11.667s-5.223-11.667-11.667-11.667v0zM210 163.333h-140v-116.667h140z"></path>
</svg>
