<!-- Generated by IcoMoon.io -->
<svg version="1.1" xmlns="http://www.w3.org/2000/svg" width="280" height="280" viewBox="0 0 280 280">
<title>ul-padlock</title>
<path fill="#ebebeb" d="M140 151.667c-0.060-0.001-0.132-0.001-0.203-0.001-9.601 0-17.383 7.783-17.383 17.383 0 5.199 2.283 9.866 5.901 13.051l0.019 0.017v16.217c0 6.443 5.223 11.667 11.667 11.667s11.667-5.223 11.667-11.667v0-16.217c3.637-3.202 5.92-7.868 5.92-13.068 0-9.601-7.783-17.383-17.383-17.383-0.071 0-0.143 0.001-0.214 0.001h0.011zM198.333 105v-23.333c0-32.217-26.117-58.333-58.333-58.333s-58.333 26.117-58.333 58.333v0 23.333c-19.33 0-35 15.67-35 35v0 81.667c0 19.33 15.67 35 35 35v0h116.667c19.33 0 35-15.67 35-35v0-81.667c0-19.33-15.67-35-35-35v0zM105 81.667c0-19.33 15.67-35 35-35s35 15.67 35 35v0 23.333h-70zM210 221.667c0 6.443-5.223 11.667-11.667 11.667v0h-116.667c-6.443 0-11.667-5.223-11.667-11.667v0-81.667c0-6.443 5.223-11.667 11.667-11.667v0h116.667c6.443 0 11.667 5.223 11.667 11.667v0z"></path>
</svg>
