<!-- Generated by IcoMoon.io -->
<svg version="1.1" xmlns="http://www.w3.org/2000/svg" width="280" height="280" viewBox="0 0 280 280">
<title>ul-pound</title>
<path fill="#ebebeb" d="M233.333 233.333h-140c7.282-9.52 11.668-21.592 11.668-34.689 0-0.109-0-0.219-0.001-0.328v0.017-35h70c6.443 0 11.667-5.223 11.667-11.667s-5.223-11.667-11.667-11.667v0h-70v-36.283c0-0.014 0-0.030 0-0.046 0-31.508 25.542-57.050 57.050-57.050 21.048 0 39.433 11.398 49.321 28.358l0.146 0.271c2.059 3.494 5.802 5.801 10.085 5.801 2.174 0 4.21-0.595 5.952-1.631l-0.054 0.030c3.514-2.054 5.838-5.809 5.838-10.106 0-2.118-0.564-4.105-1.551-5.817l0.030 0.057c-14.192-24.169-40.056-40.138-69.65-40.138-44.379 0-80.37 35.911-80.5 80.259v36.296h-35c-6.443 0-11.667 5.223-11.667 11.667s5.223 11.667 11.667 11.667v0h35v35c0 19.33-15.67 35-35 35v0c-6.443 0-11.667 5.223-11.667 11.667s5.223 11.667 11.667 11.667v0h186.667c6.443 0 11.667-5.223 11.667-11.667s-5.223-11.667-11.667-11.667v0z"></path>
</svg>
