<!-- Generated by IcoMoon.io -->
<svg version="1.1" xmlns="http://www.w3.org/2000/svg" width="280" height="280" viewBox="0 0 280 280">
<title>ul-prescription-bottle</title>
<path fill="#ebebeb" d="M221.667 23.333h-163.333c-12.887 0-23.333 10.447-23.333 23.333v0 23.333c0 12.887 10.447 23.333 23.333 23.333v0 128.333c0 19.33 15.67 35 35 35v0h93.333c19.33 0 35-15.67 35-35v0-128.333c12.887 0 23.333-10.447 23.333-23.333v0-23.333c0-12.887-10.447-23.333-23.333-23.333v0zM198.333 186.667h-70v-46.667h70zM198.333 116.667h-81.667c-6.443 0-11.667 5.223-11.667 11.667v0 70c0 6.443 5.223 11.667 11.667 11.667v0h81.667v11.667c0 6.443-5.223 11.667-11.667 11.667v0h-93.333c-6.443 0-11.667-5.223-11.667-11.667v0-128.333h116.667zM58.333 70v-23.333h163.333v23.333z"></path>
</svg>
