<!-- Generated by IcoMoon.io -->
<svg version="1.1" xmlns="http://www.w3.org/2000/svg" width="280" height="280" viewBox="0 0 280 280">
<title>ul-question-circle</title>
<path fill="#ebebeb" d="M131.717 178.383c-0.477 0.526-0.937 1.096-1.362 1.693l-0.038 0.057c-0.416 0.605-0.771 1.299-1.031 2.038l-0.019 0.062c-0.316 0.607-0.56 1.312-0.693 2.055l-0.007 0.045c-0.027 0.349-0.043 0.756-0.043 1.167s0.016 0.818 0.046 1.22l-0.003-0.054c-0.002 0.075-0.003 0.164-0.003 0.252 0 1.519 0.345 2.957 0.962 4.24l-0.025-0.059c1.085 2.939 3.361 5.215 6.227 6.276l0.073 0.024c1.305 0.591 2.829 0.936 4.433 0.936s3.129-0.345 4.502-0.964l-0.069 0.028c2.939-1.085 5.215-3.361 6.276-6.227l0.024-0.073c0.448-1.19 0.708-2.566 0.708-4.002 0-0.151-0.003-0.302-0.009-0.453l0.001 0.022c0-0.020 0-0.044 0-0.068 0-3.205-1.292-6.108-3.384-8.217l0.001 0.001c-2.114-2.131-5.045-3.451-8.283-3.451s-6.169 1.32-8.283 3.45l-0.001 0.001zM140 23.333c-64.433 0-116.667 52.233-116.667 116.667s52.233 116.667 116.667 116.667c64.433 0 116.667-52.233 116.667-116.667v0c0-64.433-52.233-116.667-116.667-116.667v0zM140 233.333c-51.547 0-93.333-41.787-93.333-93.333s41.787-93.333 93.333-93.333c51.547 0 93.333 41.787 93.333 93.333v0c0 51.547-41.787 93.333-93.333 93.333v0zM140 81.667c-0.007 0-0.014 0-0.022 0-12.887 0-24.147 6.964-30.221 17.335l-0.089 0.165c-1.142 1.772-1.821 3.936-1.821 6.259 0 6.443 5.223 11.667 11.667 11.667 4.466 0 8.346-2.51 10.307-6.196l0.031-0.063c2.055-3.512 5.808-5.834 10.104-5.834 0.016 0 0.033 0 0.049 0h-0.002c6.443 0 11.667 5.223 11.667 11.667s-5.223 11.667-11.667 11.667v0c-6.443 0-11.667 5.223-11.667 11.667v0 11.667c0 6.443 5.223 11.667 11.667 11.667s11.667-5.223 11.667-11.667v0-2.1c13.567-5.026 23.062-17.854 23.062-32.901 0-19.234-15.516-34.845-34.714-34.999h-0.014z"></path>
</svg>
