<!-- Generated by IcoMoon.io -->
<svg version="1.1" xmlns="http://www.w3.org/2000/svg" width="280" height="280" viewBox="0 0 280 280">
<title>ul-ruler</title>
<path fill="#ebebeb" d="M263.783 82.25l-65.45-66.033c-2.108-2.091-5.011-3.384-8.216-3.384-0.024 0-0.047 0-0.071 0h0.004c-3.187 0.014-6.070 1.303-8.167 3.384l0.001-0.001-165.667 165.083c-2.097 2.109-3.393 5.016-3.393 8.225s1.296 6.116 3.393 8.226l66.033 66.033c2.108 2.091 5.011 3.384 8.216 3.384 0.024 0 0.047 0 0.071-0h-0.004c3.187-0.014 6.070-1.303 8.167-3.384l165.082-165.082c2.097-2.109 3.393-5.016 3.393-8.225s-1.296-6.116-3.393-8.226l0.001 0.001zM222.483 106.983l-8.283-8.283c-2.109-2.097-5.016-3.393-8.225-3.393s-6.116 1.296-8.226 3.393l0.001-0.001c-2.131 2.114-3.451 5.045-3.451 8.283s1.32 6.169 3.45 8.283l8.284 8.284-16.567 16.45-24.733-24.733c-2.027-1.744-4.684-2.805-7.589-2.805-6.443 0-11.667 5.223-11.667 11.667 0 2.905 1.062 5.562 2.818 7.604l-0.013-0.015 24.733 24.733-16.567 16.567-8.167-8.283c-2.12-2.12-5.048-3.431-8.283-3.431-6.47 0-11.714 5.245-11.714 11.714 0 3.235 1.311 6.164 3.431 8.283v0l8.283 8.167-16.45 16.567-24.85-24.733c-2.109-2.097-5.016-3.393-8.225-3.393s-6.116 1.296-8.226 3.393l0.001-0.001c-2.097 2.109-3.393 5.016-3.393 8.225s1.296 6.116 3.393 8.226l24.733 24.733-16.45 16.567-49.583-49.583 148.517-148.517 49.583 49.583z"></path>
</svg>
