<!-- Generated by IcoMoon.io -->
<svg version="1.1" xmlns="http://www.w3.org/2000/svg" width="280" height="280" viewBox="0 0 280 280">
<title>ul-reddit-alien-alt</title>
<path fill="#ebebeb" d="M168.118 196.784c-6.433 4.762-14.525 7.623-23.285 7.623-1.53 0-3.040-0.087-4.525-0.257l0.181 0.017c-1.305 0.154-2.816 0.241-4.349 0.241-8.745 0-16.824-2.857-23.352-7.688l0.107 0.075c-2.11-2.095-5.016-3.39-8.225-3.39-6.447 0-11.674 5.226-11.674 11.674 0 3.203 1.29 6.106 3.38 8.215l-0.001-0.001c10.376 8.971 23.998 14.436 38.898 14.436 1.836 0 3.654-0.083 5.448-0.246l-0.231 0.017c1.559 0.145 3.371 0.227 5.202 0.227 14.906 0 28.536-5.459 39.001-14.488l-0.077 0.065c2.127-2.115 3.443-5.043 3.443-8.278 0-6.447-5.226-11.673-11.673-11.673-3.23 0-6.153 1.312-8.267 3.431l-0 0zM107.339 175.019c6.442-0.002 11.663-5.225 11.663-11.667 0-6.443-5.223-11.667-11.667-11.667s-11.667 5.223-11.667 11.667c0 0.001 0 0.002 0 0.004v-0c0.007 6.441 5.229 11.66 11.67 11.663h0zM177.339 151.686c-0.001 0-0.002 0-0.004 0-6.443 0-11.667 5.223-11.667 11.667s5.223 11.667 11.667 11.667c6.442 0 11.665-5.221 11.667-11.663v-0c-0.007-6.44-5.224-11.659-11.662-11.67h-0.001zM268.333 137.437c0-0.030 0-0.066 0-0.101 0-24.301-19.7-44.002-44.002-44.002-14.381 0-27.152 6.899-35.181 17.569l-0.081 0.113c-10.382-2.767-22.54-4.755-35.021-5.554l-0.563-0.029 9.984-66.558 24.355 8.282c0.237 19.129 15.799 34.545 34.962 34.545 19.31 0 34.964-15.654 34.964-34.964 0-0.116-0.001-0.233-0.002-0.349l0 0.018v-0.262c-0.477-19.029-15.926-34.294-34.983-34.476h-0.017c-11.042 0.085-20.846 5.31-27.15 13.398l-0.058 0.077-37.779-12.848c-1.125-0.398-2.422-0.628-3.773-0.628-5.83 0-10.661 4.281-11.519 9.871l-0.008 0.065-12.559 83.713c-14.139 0.635-27.488 2.677-40.322 5.996l1.35-0.296c-8.098-10.837-20.893-17.777-35.309-17.777-24.276 0-43.955 19.679-43.955 43.955 0 8.605 2.473 16.633 6.747 23.411l-0.107-0.182c-4.122 7.6-6.572 16.629-6.639 26.224v0.021c0 45.789 56.373 81.667 128.333 81.667s128.333-35.877 128.333-81.667c-0.068-9.613-2.516-18.639-6.783-26.538l0.148 0.301c4.115-6.534 6.578-14.47 6.634-22.978v-0.015zM222.749 35c6.443 0 11.667 5.223 11.667 11.667s-5.223 11.667-11.667 11.667c-6.443 0-11.667-5.223-11.667-11.667v0c0.108-6.4 5.267-11.559 11.656-11.666h0.010zM55.77 116.667c3.805 0.049 7.348 1.125 10.378 2.962l-0.091-0.051c-11.852 5.165-22.049 11.721-31.018 19.638l0.126-0.109c-0.047-0.558-0.165-1.108-0.165-1.67 0.015-11.465 9.305-20.755 20.768-20.77h0.001zM140 245c-56.921 0-105-26.717-105-58.333s48.079-58.333 105-58.333 105 26.717 105 58.333-48.079 58.333-105 58.333zM244.835 139.107c-8.843-7.808-19.041-14.364-30.145-19.237l-0.748-0.293c2.939-1.786 6.482-2.862 10.273-2.911h0.014c11.465 0.015 20.755 9.305 20.77 20.768v0.001c0 0.561-0.118 1.112-0.165 1.67z"></path>
</svg>
