<!-- Generated by IcoMoon.io -->
<svg version="1.1" xmlns="http://www.w3.org/2000/svg" width="280" height="280" viewBox="0 0 280 280">
<title>ul-raindrops</title>
<path fill="#ebebeb" d="M122.5 93.333c0-40.717-38.5-66.967-40.133-68.017-1.832-1.253-4.095-2.001-6.533-2.001s-4.701 0.748-6.573 2.027l0.040-0.026c-1.633 1.167-40.133 27.767-40.133 68.017 0 25.773 20.893 46.667 46.667 46.667s46.667-20.893 46.667-46.667v0zM75.833 116.667c-12.887 0-23.333-10.447-23.333-23.333v0c1.718-17.607 10.399-32.906 23.216-43.308l0.118-0.092c12.984 10.454 21.684 25.774 23.314 43.15l0.019 0.25c0 12.887-10.447 23.333-23.333 23.333v0zM210.7 25.317c-1.832-1.253-4.095-2.001-6.533-2.001s-4.701 0.748-6.573 2.027l0.040-0.026c-1.633 1.167-40.133 27.767-40.133 68.017 0 25.773 20.893 46.667 46.667 46.667s46.667-20.893 46.667-46.667v0c0-40.717-38.5-66.967-40.133-68.017zM204.167 116.667c-12.887 0-23.333-10.447-23.333-23.333v0c1.718-17.607 10.399-32.906 23.216-43.308l0.118-0.092c12.984 10.454 21.684 25.774 23.314 43.15l0.019 0.25c0 12.887-10.447 23.333-23.333 23.333v0zM152.367 141.983c-1.832-1.253-4.095-2.001-6.533-2.001s-4.701 0.748-6.573 2.027l0.040-0.026c-1.633 1.167-40.133 27.767-40.133 68.017 0 25.773 20.893 46.667 46.667 46.667s46.667-20.893 46.667-46.667v0c0-40.717-38.5-66.967-40.133-68.017zM145.833 233.333c-12.887 0-23.333-10.447-23.333-23.333v0c1.718-17.607 10.399-32.906 23.216-43.308l0.118-0.092c12.984 10.454 21.684 25.774 23.314 43.15l0.019 0.25c0 12.887-10.447 23.333-23.333 23.333v0z"></path>
</svg>
