<!-- Generated by IcoMoon.io -->
<svg version="1.1" xmlns="http://www.w3.org/2000/svg" width="280" height="280" viewBox="0 0 280 280">
<title>ul-sort-amount-up</title>
<path fill="#ebebeb" d="M66.617 73.383c-1.077-1.032-2.356-1.862-3.771-2.422l-0.079-0.028c-1.311-0.553-2.834-0.875-4.433-0.875s-3.123 0.322-4.51 0.904l0.077-0.029c-1.494 0.588-2.773 1.418-3.854 2.454l0.004-0.004-23.333 23.333c-2.12 2.12-3.431 5.048-3.431 8.283 0 6.47 5.245 11.714 11.714 11.714 3.235 0 6.164-1.311 8.283-3.431v0l3.383-3.5v88.55c0 6.443 5.223 11.667 11.667 11.667s11.667-5.223 11.667-11.667v0-88.55l3.383 3.5c2.114 2.131 5.045 3.451 8.283 3.451s6.169-1.32 8.283-3.45l0.001-0.001c2.131-2.114 3.451-5.045 3.451-8.283s-1.32-6.169-3.45-8.283l-0.001-0.001zM128.333 93.333h116.667c6.443 0 11.667-5.223 11.667-11.667s-5.223-11.667-11.667-11.667v0h-116.667c-6.443 0-11.667 5.223-11.667 11.667s5.223 11.667 11.667 11.667v0zM245 186.667h-116.667c-6.443 0-11.667 5.223-11.667 11.667s5.223 11.667 11.667 11.667v0h116.667c6.443 0 11.667-5.223 11.667-11.667s-5.223-11.667-11.667-11.667v0zM245 128.333h-116.667c-6.443 0-11.667 5.223-11.667 11.667s5.223 11.667 11.667 11.667v0h116.667c6.443 0 11.667-5.223 11.667-11.667s-5.223-11.667-11.667-11.667v0z"></path>
</svg>
