<!-- Generated by IcoMoon.io -->
<svg version="1.1" xmlns="http://www.w3.org/2000/svg" width="280" height="280" viewBox="0 0 280 280">
<title>ul-subway</title>
<path fill="#ebebeb" d="M186.667 198.333c6.443 0 11.667-5.223 11.667-11.667v0c0.027-0.349 0.043-0.756 0.043-1.167s-0.016-0.818-0.046-1.22l0.003 0.054c-0.14-0.788-0.384-1.493-0.72-2.142l0.020 0.042c-0.279-0.801-0.634-1.495-1.070-2.13l0.020 0.030-1.4-1.75c-1.094-0.997-2.367-1.822-3.762-2.417l-0.088-0.033c-1.311-0.553-2.834-0.875-4.433-0.875s-3.123 0.322-4.51 0.904l0.077-0.029c-1.483 0.628-2.756 1.453-3.861 2.46l0.011-0.010-1.4 1.75c-0.416 0.605-0.771 1.299-1.031 2.038l-0.019 0.062c-0.316 0.607-0.56 1.312-0.693 2.055l-0.007 0.045c-0.027 0.349-0.043 0.756-0.043 1.167s0.016 0.818 0.046 1.22l-0.003-0.054c0 6.443 5.223 11.667 11.667 11.667v0zM210 23.333h-140c-19.33 0-35 15.67-35 35v0 140c0.039 11.367 5.491 21.453 13.912 27.82l0.088 0.064-10.617 10.5c-2.131 2.114-3.451 5.045-3.451 8.283s1.32 6.169 3.45 8.283l0.001 0.001c2.114 2.131 5.045 3.451 8.283 3.451s6.169-1.32 8.283-3.45l0.001-0.001 19.833-19.95h130.433l19.833 19.95c2.114 2.131 5.045 3.451 8.283 3.451s6.169-1.32 8.283-3.45l0.001-0.001c2.131-2.114 3.451-5.045 3.451-8.283s-1.32-6.169-3.45-8.283l-0.001-0.001-10.617-10.5c8.509-6.43 13.961-16.516 14-27.877v-140.006c0-19.33-15.67-35-35-35v0zM58.333 93.333h70v46.667h-70zM221.667 198.333c0 6.443-5.223 11.667-11.667 11.667v0h-140c-6.443 0-11.667-5.223-11.667-11.667v0-35h163.333zM221.667 140h-70v-46.667h70zM221.667 70h-163.333v-11.667c0-6.443 5.223-11.667 11.667-11.667v0h140c6.443 0 11.667 5.223 11.667 11.667v0zM93.333 198.333c6.443 0 11.667-5.223 11.667-11.667v0c0.027-0.349 0.043-0.756 0.043-1.167s-0.016-0.818-0.046-1.22l0.003 0.054c-0.14-0.788-0.384-1.493-0.72-2.142l0.020 0.042c-0.279-0.801-0.634-1.495-1.070-2.13l0.020 0.030-1.4-1.75c-1.094-0.997-2.367-1.822-3.763-2.417l-0.087-0.033c-1.311-0.553-2.834-0.875-4.433-0.875s-3.123 0.322-4.51 0.904l0.077-0.029c-1.483 0.628-2.756 1.453-3.861 2.46l0.011-0.010-1.4 1.75c-0.416 0.605-0.771 1.299-1.031 2.038l-0.019 0.062c-0.478 0.601-0.873 1.296-1.15 2.048l-0.017 0.052c-0.027 0.349-0.043 0.756-0.043 1.167s0.016 0.818 0.046 1.22l-0.003-0.054c0.014 3.187 1.303 6.070 3.384 8.167l-0.001-0.001c2.108 2.149 5.038 3.486 8.281 3.5h0.003z"></path>
</svg>
