<!-- Generated by IcoMoon.io -->
<svg version="1.1" xmlns="http://www.w3.org/2000/svg" width="280" height="280" viewBox="0 0 280 280">
<title>ul-sick</title>
<path fill="#ebebeb" d="M105 128.333c6.443 0 11.667-5.223 11.667-11.667s-5.223-11.667-11.667-11.667c-6.443 0-11.667 5.223-11.667 11.667v0c0 6.443 5.223 11.667 11.667 11.667v0zM175 128.333c6.443 0 11.667-5.223 11.667-11.667s-5.223-11.667-11.667-11.667c-6.443 0-11.667 5.223-11.667 11.667v0c0 6.443 5.223 11.667 11.667 11.667v0zM178.15 165.667c-1.926-1.457-4.361-2.333-7-2.333s-5.074 0.877-7.029 2.355l0.029-0.021-8.633 6.417-8.517-6.417c-1.926-1.457-4.361-2.333-7-2.333s-5.074 0.877-7.029 2.355l0.029-0.021-8.517 6.417-8.633-6.417c-1.926-1.457-4.361-2.333-7-2.333s-5.074 0.877-7.029 2.355l0.029-0.021-15.517 11.667c-2.846 2.151-4.667 5.53-4.667 9.333 0 6.443 5.223 11.667 11.667 11.667 2.639 0 5.074-0.877 7.029-2.355l-0.029 0.021 8.517-6.417 8.633 6.417 1.4 0.7c0.74 0.404 1.598 0.726 2.503 0.922l0.064 0.011h1.4c0.438 0.058 0.944 0.092 1.458 0.092s1.020-0.033 1.517-0.098l-0.059 0.006h1.167c1.512-0.412 2.834-1.052 4.004-1.892l-0.037 0.025 8.517-6.417 8.517 6.417c1.913 1.428 4.324 2.286 6.936 2.286 1.713 0 3.339-0.369 4.804-1.032l-0.074 0.030 1.167-0.583c0.491-0.175 0.916-0.412 1.293-0.708l-0.010 0.008 8.633-6.417 8.517 6.417c1.926 1.457 4.361 2.333 7 2.333v0c3.804 0 7.182-1.82 9.312-4.637l0.021-0.029c1.457-1.926 2.333-4.361 2.333-7 0-3.804-1.82-7.182-4.637-9.312l-0.029-0.021zM140 23.333c-64.433 0-116.667 52.233-116.667 116.667s52.233 116.667 116.667 116.667c64.433 0 116.667-52.233 116.667-116.667v0c0-64.433-52.233-116.667-116.667-116.667v0zM140 233.333c-51.547 0-93.333-41.787-93.333-93.333s41.787-93.333 93.333-93.333c51.547 0 93.333 41.787 93.333 93.333v0c0 51.547-41.787 93.333-93.333 93.333v0z"></path>
</svg>
