<!-- Generated by IcoMoon.io -->
<svg version="1.1" xmlns="http://www.w3.org/2000/svg" width="280" height="280" viewBox="0 0 280 280">
<title>ul-snapchat-square</title>
<path fill="#ebebeb" d="M256.356 77.943c-0.016-4.44-0.435-8.771-1.221-12.973l0.069 0.443c-0.922-5.445-2.571-10.326-4.867-14.821l0.134 0.288c-2.64-4.99-5.875-9.262-9.688-12.94l-0.015-0.014c-5.732-5.614-12.875-9.81-20.846-12.008l-0.338-0.080c-6.075-1.536-13.050-2.417-20.23-2.417-0.763 0-1.524 0.010-2.282 0.030l0.112-0.002-0.043-0.115h-114.318l-0.006 0.115c-0.285-0.002-0.623-0.004-0.961-0.004-4.184 0-8.32 0.21-12.396 0.62l0.514-0.042c-5.089 0.554-9.736 1.642-14.148 3.222l0.427-0.133c-14.792 5.688-25.985 17.817-30.275 32.856l-0.086 0.351c-1.534 6.062-2.414 13.021-2.414 20.186 0 0.715 0.009 1.428 0.026 2.139l-0.002-0.105-0.077 114.779v0.010c-0 0.092-0.001 0.201-0.001 0.31 0 5.371 0.384 10.652 1.127 15.818l-0.070-0.591c0.857 5.857 2.528 11.144 4.915 16.018l-0.141-0.318c3.482 6.761 8.201 12.419 13.908 16.871l0.112 0.084c3.992 3.204 8.65 5.789 13.707 7.509l0.321 0.095c6.715 2.151 14.439 3.391 22.453 3.391 0.215 0 0.429-0.001 0.643-0.003l-0.033 0c4.893 0.031 9.782 0.153 14.677 0.132 35.544-0.15 71.089 0.257 106.634-0.219 5.020-0.113 9.839-0.649 14.519-1.574l-0.533 0.088c9.106-1.641 17.073-5.679 23.466-11.433l-0.043 0.038c7.572-6.608 13.048-15.444 15.41-25.481l0.065-0.329c1.285-5.829 2.021-12.524 2.021-19.392 0-0.361-0.002-0.722-0.006-1.082l0.001 0.055v-1.367c0-0.53-0.202-116.474-0.22-118.007zM225.134 185.857c-1.492 3.493-9.030 6.389-21.792 8.36-1.198 0.185-1.702 2.121-2.393 5.291-0.285 1.309-0.576 2.592-0.973 3.941-0.234 1.090-1.189 1.895-2.333 1.895-0.067 0-0.134-0.003-0.199-0.008l0.009 0.001h-0.2c-1.314-0.048-2.561-0.213-3.767-0.485l0.136 0.026c-2.871-0.629-6.173-0.997-9.559-1.013h-0.012c-2.443 0.007-4.831 0.218-7.154 0.619l0.252-0.036c-5.053 1.305-9.448 3.621-13.151 6.733l0.051-0.042c-6.178 5.299-14.157 8.659-22.908 9.059l-0.083 0.003c-0.484 0-0.946-0.017-1.297-0.034-0.279 0.024-0.567 0.034-0.855 0.034-8.829-0.401-16.803-3.758-23.028-9.098l0.051 0.043c-3.656-3.074-8.055-5.392-12.883-6.648l-0.23-0.051c-2.071-0.365-4.459-0.577-6.895-0.583h-0.006c-3.41 0.037-6.708 0.43-9.885 1.142l0.315-0.059c-1.058 0.259-2.301 0.444-3.573 0.518l-0.057 0.003c-0.085 0.010-0.184 0.016-0.284 0.016-1.193 0-2.191-0.836-2.44-1.954l-0.003-0.017c-0.403-1.367-0.691-2.69-0.969-3.966-0.696-3.186-1.202-5.131-2.394-5.315-12.76-1.969-20.299-4.869-21.8-8.38-0.146-0.325-0.241-0.702-0.264-1.099l-0.001-0.009c-0.002-0.034-0.003-0.074-0.003-0.115 0-1.014 0.736-1.856 1.704-2.020l0.012-0.002c10.892-2.022 20.184-7.767 26.713-15.839l0.066-0.084c3.557-4.096 6.61-8.771 8.979-13.83l0.155-0.368 0.047-0.098c0.843-1.359 1.343-3.008 1.343-4.774 0-1.036-0.172-2.032-0.489-2.96l0.019 0.065c-1.644-3.877-7.089-5.604-10.691-6.747-0.896-0.283-1.743-0.552-2.418-0.82-3.194-1.261-8.445-3.926-7.746-7.605 1.060-2.688 3.635-4.555 6.645-4.555 0.098 0 0.196 0.002 0.293 0.006l-0.014-0.001c0.033-0.001 0.071-0.001 0.11-0.001 0.719 0 1.401 0.154 2.017 0.432l-0.031-0.013c2.517 1.317 5.477 2.146 8.617 2.285l0.044 0.002c0.155 0.012 0.335 0.018 0.517 0.018 1.694 0 3.252-0.581 4.486-1.554l-0.015 0.012q-0.141-2.554-0.308-5.106c-0.55-3.658-0.864-7.879-0.864-12.173 0-7.917 1.068-15.585 3.066-22.868l-0.142 0.605c7.097-15.913 22.777-26.804 41.002-26.804 0.194 0 0.388 0.001 0.582 0.004l-0.029-0 3.438-0.032c0.17-0.002 0.371-0.004 0.572-0.004 18.244 0 33.944 10.897 40.944 26.538l0.114 0.284c1.856 6.681 2.924 14.352 2.924 22.273 0 4.301-0.315 8.529-0.922 12.662l0.057-0.469-0.035 0.558c-0.1 1.582-0.193 3.080-0.272 4.532 1.186 0.945 2.706 1.516 4.359 1.516 0.058 0 0.116-0.001 0.174-0.002l-0.008 0c3.013-0.233 5.788-1.047 8.281-2.33l-0.122 0.057c0.755-0.336 1.636-0.532 2.562-0.532 0.039 0 0.078 0 0.117 0.001h-0.006c0.008 0 0.018 0 0.028 0 1.086 0 2.123 0.214 3.070 0.602l-0.006-0.001c2.231 0.543 3.922 2.356 4.28 4.612l0.004 0.032c0.032 1.782-1.293 4.447-7.809 7.021-0.667 0.264-1.519 0.534-2.418 0.819-3.605 1.144-9.046 2.871-10.69 6.745-0.299 0.864-0.471 1.86-0.471 2.896 0 1.765 0.5 3.413 1.366 4.81l-0.022-0.039 0.047 0.1c6.675 14.981 19.695 26.098 35.551 30.044l0.363 0.077c0.979 0.167 1.716 1.009 1.716 2.023 0 0.040-0.001 0.079-0.003 0.118l0-0.005c-0.026 0.409-0.123 0.79-0.279 1.138l0.008-0.021z"></path>
</svg>
