<!-- Generated by IcoMoon.io -->
<svg version="1.1" xmlns="http://www.w3.org/2000/svg" width="280" height="280" viewBox="0 0 280 280">
<title>ul-skip-forward-alt</title>
<path fill="#ebebeb" d="M58.333 35c-19.33 0-35 15.67-35 35v0 140c0 19.33 15.67 35 35 35s35-15.67 35-35v0-140c0-19.33-15.67-35-35-35v0zM70 210c0 6.443-5.223 11.667-11.667 11.667s-11.667-5.223-11.667-11.667v0-140c0-6.443 5.223-11.667 11.667-11.667s11.667 5.223 11.667 11.667v0zM241.267 112.583l-77.933-46.55c-4.406-2.639-9.721-4.2-15.4-4.2s-10.994 1.561-15.538 4.277l0.138-0.077c-9.468 5.592-15.748 15.7-15.866 27.283l-0 0.017v93.333c0 0.025 0 0.054 0 0.083 0 11.77 6.361 22.054 15.833 27.602l0.151 0.082c4.397 2.674 9.714 4.257 15.4 4.257s11.003-1.583 15.533-4.332l-0.133 0.075 77.817-46.667c9.308-5.727 15.42-15.858 15.42-27.417s-6.112-21.69-15.281-27.337l-0.139-0.080zM229.6 147.583l-77.7 46.667c-1.048 0.642-2.317 1.022-3.675 1.022s-2.627-0.38-3.706-1.040l0.031 0.018c-2.724-1.426-4.551-4.233-4.551-7.466 0-0.041 0-0.082 0.001-0.123v0.006-93.333c-0.001-0.057-0.002-0.124-0.002-0.191 0-3.094 1.672-5.797 4.163-7.254l0.040-0.022c1.042-0.587 2.288-0.933 3.615-0.933 0.001 0 0.001 0 0.002 0v0c1.38 0.010 2.668 0.399 3.766 1.068l-0.033-0.018 77.7 46.667c2.472 1.601 4.085 4.345 4.085 7.467s-1.613 5.866-4.050 7.446l-0.034 0.021z"></path>
</svg>
