<!-- Generated by IcoMoon.io -->
<svg version="1.1" xmlns="http://www.w3.org/2000/svg" width="280" height="280" viewBox="0 0 280 280">
<title>ul-shutter-alt</title>
<path fill="#ebebeb" d="M256.667 128.333c-0.024-0.279-0.037-0.605-0.037-0.933s0.014-0.654 0.040-0.975l-0.003 0.042c0-3.267-0.933-6.533-1.517-9.8v0c-2.356-10.501-5.852-19.77-10.442-28.365l0.292 0.599c-15.988-32.193-45.506-55.612-80.909-62.985l-0.757-0.132-9.8-1.517h-6.183l-7.35-0.933c-3.967 0-7.933 0-11.667 0h-1.867l-9.8 2.333c-45.826 9.639-81.303 45.155-90.75 90.241l-0.133 0.759c-0.583 3.267-1.050 6.533-1.517 9.8 0.024 0.279 0.037 0.605 0.037 0.933s-0.014 0.654-0.040 0.975l0.003-0.042c0 3.85 0 7.817 0 11.667s0 7.933 0 11.667c0.024 0.279 0.037 0.605 0.037 0.933s-0.014 0.654-0.040 0.975l0.003-0.042c0 3.267 0.933 6.533 1.517 9.8v0c2.032 10.46 5.223 19.757 9.508 28.417l-0.291-0.65c15.988 32.193 45.506 55.612 80.909 62.985l0.757 0.132 9.8 1.517 1.867 0.933h5.6c2.1 0 4.083 0 6.183 0 3.967 0 7.933 0 11.667-0.583h1.867l9.683-1.75c45.826-9.639 81.303-45.155 90.75-90.241l0.133-0.759c0.583-3.267 1.050-6.533 1.517-9.8 0.286-0.721 0.599-1.335 0.962-1.916l-0.028 0.049c0-3.85 0.583-7.817 0.583-11.667s-0.583-7.933-0.583-11.667zM153.533 47.833l5.833 0.817c21.749 4.752 40.198 16.55 53.292 32.835l0.141 0.181h-79.567zM121.567 48.767v0l4.667-0.7-40.133 68.6-19.6-34.067c13.361-17.017 32.221-29.183 53.87-33.84l0.614-0.11zM53.55 175c-1.902-4.497-3.59-9.841-4.788-15.368l-0.112-0.615c0-2.567-0.933-5.25-1.167-7.933-0.027-0.21-0.042-0.453-0.042-0.7s0.015-0.49 0.045-0.728l-0.003 0.028c-0.297-2.834-0.467-6.122-0.467-9.45s0.17-6.616 0.5-9.857l-0.034 0.407c-0.027-0.21-0.042-0.453-0.042-0.7s0.015-0.49 0.045-0.728l-0.003 0.028c0-2.683 0.7-5.367 1.167-7.933v0c1.169-5.867 2.7-10.987 4.648-15.896l-0.214 0.612 40.25 68.833zM127.050 232.283l-5.833-0.817c-21.988-4.654-40.658-16.517-53.876-32.952l-0.141-0.181h79.567zM119.817 175l-20.183-35 20.183-35h40.367l20.183 35-20.183 35zM159.017 231.35v0l-4.667 0.7 39.55-68.717 19.6 34.067c-13.361 17.017-32.221 29.183-53.87 33.84l-0.614 0.11zM232.867 149.683c0.027 0.21 0.042 0.453 0.042 0.7s-0.015 0.49-0.045 0.728l0.003-0.028c0 2.683-0.7 5.367-1.167 7.933v0c-1.202 5.711-2.73 10.668-4.65 15.424l0.217-0.608-40.6-68.833h39.317c1.902 4.497 3.59 9.841 4.788 15.368l0.112 0.615c0 2.567 0.933 5.25 1.167 7.933 0.027 0.21 0.042 0.453 0.042 0.7s-0.015 0.49-0.045 0.728l0.003-0.028c0.297 2.834 0.467 6.122 0.467 9.45s-0.17 6.616-0.5 9.857l0.034-0.407z"></path>
</svg>
