<!-- Generated by IcoMoon.io -->
<svg version="1.1" xmlns="http://www.w3.org/2000/svg" width="280" height="280" viewBox="0 0 280 280">
<title>ul-sad-squint</title>
<path fill="#ebebeb" d="M105.933 142.45l17.5-17.5c2.131-2.114 3.451-5.045 3.451-8.283s-1.32-6.169-3.45-8.283l-17.501-17.501c-2.12-2.12-5.048-3.431-8.283-3.431-6.47 0-11.714 5.245-11.714 11.714 0 3.235 1.311 6.164 3.431 8.283v0l9.333 9.217-9.333 9.217c-2.131 2.114-3.451 5.045-3.451 8.283s1.32 6.169 3.45 8.283l0.001 0.001c2.108 2.091 5.011 3.384 8.216 3.384 0.024 0 0.047 0 0.071-0h-0.004c0.020 0 0.044 0 0.068 0 3.205 0 6.108-1.292 8.217-3.384l-0.001 0.001zM97.533 178.85c-2.553 2.154-4.163 5.356-4.163 8.934 0 2.818 0.999 5.403 2.663 7.419l-0.016-0.020c2.155 2.586 5.377 4.221 8.981 4.221 2.85 0 5.461-1.022 7.487-2.719l-0.018 0.015c7.459-6.052 17.068-9.717 27.533-9.717s20.075 3.665 27.615 9.781l-0.081-0.064c2.008 1.682 4.619 2.704 7.469 2.704 3.604 0 6.826-1.634 8.966-4.202l0.015-0.019c1.647-1.997 2.647-4.581 2.647-7.399 0-3.578-1.611-6.779-4.146-8.92l-0.018-0.014c-11.512-9.314-26.331-14.952-42.467-14.952s-30.955 5.638-42.595 15.052l0.128-0.1zM193.433 90.883c-2.114-2.131-5.045-3.451-8.283-3.451s-6.169 1.32-8.283 3.45l-17.501 17.501c-2.131 2.114-3.451 5.045-3.451 8.283s1.32 6.169 3.45 8.283l17.501 17.501c2.108 2.091 5.011 3.384 8.216 3.384 0.024 0 0.047 0 0.071-0h-0.004c0.020 0 0.044 0 0.068 0 3.205 0 6.108-1.292 8.217-3.384l-0.001 0.001c2.131-2.114 3.451-5.045 3.451-8.283s-1.32-6.169-3.45-8.283l-9.218-9.218 9.217-9.217c2.131-2.114 3.451-5.045 3.451-8.283s-1.32-6.169-3.45-8.283l-0.001-0.001zM140 23.333c-64.433 0-116.667 52.233-116.667 116.667s52.233 116.667 116.667 116.667c64.433 0 116.667-52.233 116.667-116.667v0c0-64.433-52.233-116.667-116.667-116.667v0zM140 233.333c-51.547 0-93.333-41.787-93.333-93.333s41.787-93.333 93.333-93.333c51.547 0 93.333 41.787 93.333 93.333v0c0 51.547-41.787 93.333-93.333 93.333v0z"></path>
</svg>
