<!-- Generated by IcoMoon.io -->
<svg version="1.1" xmlns="http://www.w3.org/2000/svg" width="280" height="280" viewBox="0 0 280 280">
<title>ul-swiggy</title>
<path fill="#ebebeb" d="M150.243 69.165c0.067-0.005 0.146-0.007 0.225-0.007 1.914 0 3.465 1.551 3.465 3.465 0 0.159-0.011 0.315-0.031 0.468l0.002-0.018c0.023 1.072 0.040 2.145 0.042 3.217 0.007 6.911-0.028 13.824 0.024 20.734 0.038 5.058 0.927 6.032 5.826 6.639 4.754 0.464 10.277 0.728 15.861 0.728 7.354 0 14.601-0.459 21.714-1.349l-0.848 0.087c6.727-0.479 12.968-2.037 18.726-4.505l-0.376 0.143c2.441-0.766 4.181-3.009 4.181-5.657 0-0.486-0.059-0.959-0.17-1.411l0.008 0.040c-4.907-33.242-29.753-59.534-61.811-66.533l-0.527-0.097c-4.917-1.116-10.563-1.755-16.359-1.755-9.401 0-18.409 1.683-26.74 4.764l0.534-0.173c-12.404 4.397-22.944 11.399-31.386 20.394l-0.039 0.042c-12.887 12.82-21.024 30.406-21.545 49.89l-0.002 0.098c0.27 23.76 6.847 45.928 18.13 64.979l-0.332-0.605c2.604 5.244 7.923 8.785 14.069 8.785 0.509 0 1.013-0.024 1.509-0.072l-0.063 0.005c7.622-0.183 15.252-0.041 22.879-0.041v-0.040q12.155 0 24.31 0.005c2.908 0.006 5.21 0.701 5.187 4.343-0.053 8.461 0.008 16.922-0.039 25.382-0.015 2.568-0.738 5.040-3.805 5.064-3.079 0.024-3.808-2.437-3.847-5.011-0.060-4.050 0.002-8.103 0.007-12.154 0.006-5.262-0.857-6.496-6.104-7.455-4.344-0.744-9.347-1.169-14.449-1.169-4.567 0-9.054 0.341-13.438 0.998l0.494-0.061c-3.432 0.279-6.604 1.089-9.537 2.347l0.197-0.075c-2.472 1.163-3.454 2.859-2.254 5.452 1.249 2.698 2.414 5.452 3.887 8.025 13.186 22.048 26.38 40.925 40.752 58.815l-0.776-0.999c1.796 2.327 3.187 2.376 5.029 0.123 4.068-4.975 8.341-9.783 12.366-14.792 14.949-17.99 28.764-38.069 40.687-59.35l1.037-2.016c7.519-13.016 13.524-28.091 17.219-44.052l0.217-1.115c0.605-1.51 0.956-3.26 0.956-5.093 0-7.303-5.576-13.303-12.703-13.975l-0.056-0.004c-5.256-1.215-11.291-1.911-17.489-1.911-0.703 0-1.404 0.009-2.103 0.027l0.103-0.002c-10.605-0.079-21.211-0.040-31.817-0.031-2.856 0.003-4.98-0.818-4.983-4.169-0.005-11.797-0.021-23.595 0.022-35.391 0.010-2.518 1.224-4.065 3.96-3.972z"></path>
</svg>
