<!-- Generated by IcoMoon.io -->
<svg version="1.1" xmlns="http://www.w3.org/2000/svg" width="280" height="280" viewBox="0 0 280 280">
<title>ul-surprise</title>
<path fill="#ebebeb" d="M140 23.333c-64.433 0-116.667 52.233-116.667 116.667s52.233 116.667 116.667 116.667c64.433 0 116.667-52.233 116.667-116.667v0c0-64.433-52.233-116.667-116.667-116.667v0zM140 233.333c-51.547 0-93.333-41.787-93.333-93.333s41.787-93.333 93.333-93.333c51.547 0 93.333 41.787 93.333 93.333v0c0 51.547-41.787 93.333-93.333 93.333v0zM116.667 105c0-6.443-5.223-11.667-11.667-11.667s-11.667 5.223-11.667 11.667c0 6.443 5.223 11.667 11.667 11.667v0c6.443 0 11.667-5.223 11.667-11.667v0zM175 93.333c-6.443 0-11.667 5.223-11.667 11.667s5.223 11.667 11.667 11.667c6.443 0 11.667-5.223 11.667-11.667v0c0-6.443-5.223-11.667-11.667-11.667v0zM140 128.333c-21.138 0.889-37.939 18.241-37.939 39.517 0 0.463 0.008 0.924 0.024 1.383l-0.002-0.067c-0.014 0.392-0.022 0.853-0.022 1.316 0 21.276 16.8 38.628 37.859 39.514l0.080 0.003c21.138-0.889 37.939-18.241 37.939-39.517 0-0.463-0.008-0.924-0.024-1.383l0.002 0.067c0.014-0.392 0.022-0.853 0.022-1.316 0-21.276-16.8-38.628-37.859-39.514l-0.080-0.003zM140 186.667c-8.252-0.83-14.64-7.739-14.64-16.14 0-0.479 0.021-0.953 0.062-1.421l-0.004 0.061c-0.036-0.407-0.057-0.881-0.057-1.36 0-8.401 6.388-15.31 14.572-16.134l0.068-0.005c8.252 0.83 14.64 7.739 14.64 16.14 0 0.479-0.021 0.953-0.062 1.421l0.004-0.061c0.036 0.407 0.057 0.881 0.057 1.36 0 8.401-6.388 15.31-14.572 16.134l-0.068 0.005z"></path>
</svg>
