<!-- Generated by IcoMoon.io -->
<svg version="1.1" xmlns="http://www.w3.org/2000/svg" width="280" height="280" viewBox="0 0 280 280">
<title>ul-tablets</title>
<path fill="#ebebeb" d="M239.633 40.367c-10.551-10.525-25.113-17.033-41.196-17.033-32.217 0-58.333 26.117-58.333 58.333s26.117 58.333 58.333 58.333c16.083 0 30.645-6.508 41.197-17.035l-0.001 0.001c10.588-10.562 17.138-25.166 17.138-41.3s-6.55-30.738-17.136-41.299l-0.001-0.001zM173.6 56.933c6.328-6.336 15.072-10.258 24.732-10.267h0.002c5.442 0.052 10.571 1.338 15.138 3.591l-0.205-0.091-46.667 46.667c-2.137-4.395-3.386-9.56-3.386-15.018 0-9.732 3.972-18.536 10.383-24.879l0.003-0.003zM223.067 106.4c-6.324 6.275-15.034 10.152-24.649 10.152-5.457 0-10.623-1.249-15.226-3.476l0.209 0.091 46.667-46.667c2.137 4.395 3.386 9.56 3.386 15.018 0 9.732-3.972 18.536-10.383 24.879l-0.003 0.003zM93.333 116.667c-0.082-0-0.179-0.001-0.276-0.001-19.065 0-36.329 7.711-48.842 20.186l0.002-0.002c-12.859 12.698-20.824 30.328-20.824 49.817 0 38.639 31.306 69.966 69.937 70h0.003c18.746-0.010 35.767-7.386 48.327-19.392l-0.027 0.025 1.4-0.933c0.276-0.497 0.547-0.917 0.841-1.317l-0.024 0.034c12.035-12.551 19.445-29.618 19.445-48.417 0-38.646-31.318-69.978-69.96-70h-0.002zM60.317 219.683c-8.336-8.426-13.486-20.019-13.486-32.815 0-8.673 2.366-16.794 6.488-23.751l-0.119 0.216 63.467 63.467c-6.742 4.003-14.862 6.369-23.535 6.369-12.796 0-24.389-5.15-32.819-13.49l0.004 0.004zM133.467 210l-63.467-63.467c6.672-4.024 14.711-6.441 23.307-6.533l0.026-0c25.652 0.159 46.386 20.991 46.386 46.666 0 8.591-2.322 16.641-6.372 23.554l0.119-0.22z"></path>
</svg>
