<!-- Generated by IcoMoon.io -->
<svg version="1.1" xmlns="http://www.w3.org/2000/svg" width="280" height="280" viewBox="0 0 280 280">
<title>ul-tumblr-square</title>
<path fill="#ebebeb" d="M23.333 23.333v233.333h233.333v-233.333zM158.317 208.25c-1.226 0.135-2.648 0.211-4.088 0.211-21.695 0-39.321-17.416-39.662-39.029l-0-0.032v-47.6h-14.7v-18.783c16.080-6.357 27.45-21.333 28.461-39.082l0.005-0.118c0-0.58 0.47-1.050 1.050-1.050v0h21.233v36.983h29.167v22.050h-29.050v45.383c-0.052 0.435-0.081 0.939-0.081 1.449 0 7.152 5.798 12.95 12.95 12.95 0.398 0 0.792-0.018 1.182-0.053l-0.050 0.004c4.25-0.197 8.232-1.122 11.898-2.652l-0.231 0.086 7 20.767c-6.602 5.311-15.088 8.524-24.324 8.524-0.267 0-0.533-0.003-0.799-0.008l0.040 0.001z"></path>
</svg>
