<!-- Generated by IcoMoon.io -->
<svg version="1.1" xmlns="http://www.w3.org/2000/svg" width="280" height="280" viewBox="0 0 280 280">
<title>ul-underline</title>
<path fill="#ebebeb" d="M140 180.833c32.217 0 58.333-26.117 58.333-58.333v0-58.333c0-6.443-5.223-11.667-11.667-11.667s-11.667 5.223-11.667 11.667v0 58.333c0 19.33-15.67 35-35 35s-35-15.67-35-35v0-58.333c0-6.443-5.223-11.667-11.667-11.667s-11.667 5.223-11.667 11.667v0 58.333c0 32.217 26.117 58.333 58.333 58.333v0zM198.333 204.167h-116.667c-6.443 0-11.667 5.223-11.667 11.667s5.223 11.667 11.667 11.667v0h116.667c6.443 0 11.667-5.223 11.667-11.667s-5.223-11.667-11.667-11.667v0z"></path>
</svg>
