<!-- Generated by IcoMoon.io -->
<svg version="1.1" xmlns="http://www.w3.org/2000/svg" width="280" height="280" viewBox="0 0 280 280">
<title>ul-umbrella</title>
<path fill="#ebebeb" d="M245 131.133s0 0 0 0c-0.027-0.14-0.043-0.302-0.043-0.467s0.016-0.326 0.045-0.483l-0.002 0.016v-2.217c0-2.683-0.7-5.367-1.167-8.050-0.032-0.28-0.050-0.605-0.050-0.933s0.018-0.653 0.053-0.973l-0.004 0.039c-0.583-2.917-1.4-5.717-2.217-8.517v0c-10.37-32.759-35.632-58.058-67.63-68.28l-0.736-0.203h-0.933c-2.567-0.817-5.25-1.517-7.933-2.1h-2.1c-1.757-0.375-3.948-0.705-6.174-0.915l-0.243-0.019h-2.8v-3.033c0-6.443-5.223-11.667-11.667-11.667s-11.667 5.223-11.667 11.667v0 0.7c-4.529 0.55-8.491 1.287-12.364 2.246l0.698-0.146c-2.834 0.533-5.263 1.179-7.62 1.981l0.387-0.114h-1.517c-2.917 0.933-5.6 1.983-8.4 3.033v0c-29.127 11.752-51.322 35.436-60.811 64.83l-0.206 0.737c-0.019 0.14-0.030 0.302-0.030 0.467s0.011 0.326 0.032 0.485l-0.002-0.019c-0.768 2.221-1.533 5.038-2.133 7.917l-0.084 0.483v1.867q-0.933 4.2-1.4 8.75s0 0.817 0 1.283 0 0.7 0 1.050 0 0 0 0.583c0 2.917 0 5.833 0 8.867 0 6.443 5.223 11.667 11.667 11.667v0h81.667v70c0 6.443-5.223 11.667-11.667 11.667s-11.667-5.223-11.667-11.667v0c0-6.443-5.223-11.667-11.667-11.667s-11.667 5.223-11.667 11.667v0c0 19.33 15.67 35 35 35s35-15.67 35-35v0-70h81.667c6.443 0 11.667-5.223 11.667-11.667v0c-1.283-3.033-1.283-5.95-1.283-8.867zM93.333 128.333h-34.067s0-0.817 0-1.283 0-3.267 0.933-4.783 0-1.517 0-2.217 0.933-3.733 1.517-5.6v-0.933c7.755-21.542 23.674-38.525 43.929-47.51l0.521-0.206c-7.451 18.468-12.097 39.855-12.826 62.232l-0.008 0.301zM116.667 128.333c2.217-45.617 16.8-70 23.333-70s20.883 24.383 23.333 70zM186.667 128.333c-0.737-22.678-5.382-44.065-13.28-63.798l0.447 1.265c20.46 9.462 36.051 26.535 43.343 47.494l0.174 0.573c0.602 1.638 1.204 3.707 1.682 5.824l0.068 0.36c-0.025 0.262-0.040 0.567-0.040 0.875s0.014 0.613 0.043 0.914l-0.003-0.039c0 1.633 0.7 3.383 0.933 5.017s0 0.817 0 1.283z"></path>
</svg>
