<!-- Generated by IcoMoon.io -->
<svg version="1.1" xmlns="http://www.w3.org/2000/svg" width="280" height="280" viewBox="0 0 280 280">
<title>ul-user-exclamation</title>
<path fill="#ebebeb" d="M169.75 142.567c12.178-10.583 19.833-26.097 19.833-43.399 0-0 0-0.001 0-0.001v0c0-32.217-26.117-58.333-58.333-58.333s-58.333 26.117-58.333 58.333v0c0.156 17.387 8.019 32.907 20.333 43.331l0.084 0.069c-32.58 15.014-54.796 47.375-54.833 84.928v0.005c0 6.443 5.223 11.667 11.667 11.667s11.667-5.223 11.667-11.667v0c0-38.66 31.34-70 70-70s70 31.34 70 70v0c0 6.443 5.223 11.667 11.667 11.667s11.667-5.223 11.667-11.667v0c-0.146-37.68-22.598-70.080-54.83-84.695l-0.587-0.238zM131.25 134.167c-19.33 0-35-15.67-35-35s15.67-35 35-35c19.33 0 35 15.67 35 35v0c0 19.33-15.67 35-35 35v0zM230.417 75.833c-6.443 0-11.667 5.223-11.667 11.667v0 23.333c0 6.443 5.223 11.667 11.667 11.667s11.667-5.223 11.667-11.667v0-23.333c0-6.443-5.223-11.667-11.667-11.667v0zM221.667 137.55c-2.057 2.154-3.337 5.065-3.383 8.274v0.009c0 0.020-0 0.044-0 0.068 0 3.205 1.292 6.108 3.384 8.217l-0.001-0.001c1.094 0.997 2.367 1.822 3.762 2.417l0.088 0.033c1.305 0.591 2.829 0.936 4.433 0.936s3.129-0.345 4.502-0.964l-0.069 0.028c2.939-1.085 5.215-3.361 6.276-6.227l0.024-0.073c0.591-1.224 0.937-2.662 0.937-4.181 0-0.089-0.001-0.177-0.004-0.266l0 0.013c0-0.020 0-0.044 0-0.068 0-6.443-5.223-11.667-11.667-11.667-3.239 0-6.169 1.32-8.283 3.451l-0.001 0.001z"></path>
</svg>
