<!-- Generated by IcoMoon.io -->
<svg version="1.1" xmlns="http://www.w3.org/2000/svg" width="280" height="280" viewBox="0 0 280 280">
<title>ul-user-square</title>
<path fill="#ebebeb" d="M172.783 143.267c7.122-7.632 11.536-17.872 11.666-29.141l0-0.026c0-24.356-19.744-44.1-44.1-44.1s-44.1 19.744-44.1 44.1v0c0.131 11.295 4.545 21.534 11.69 29.192l-0.024-0.025c-20.523 10.382-34.999 30.118-37.883 53.446l-0.034 0.337c-0.045 0.385-0.070 0.831-0.070 1.283 0 6.482 5.255 11.737 11.737 11.737 6.030 0 10.998-4.547 11.662-10.4l0.005-0.054c2.94-23.201 22.554-40.962 46.317-40.962s43.377 17.76 46.293 40.731l0.024 0.231c0.656 5.879 5.599 10.409 11.599 10.409 0.27 0 0.538-0.009 0.804-0.027l-0.036 0.002h1.283c5.844-0.692 10.333-5.617 10.333-11.59 0-0.438-0.024-0.87-0.071-1.296l0.005 0.053c-2.705-23.564-16.879-43.308-36.72-53.718l-0.38-0.182zM140 134.867c-11.469 0-20.767-9.297-20.767-20.767s9.297-20.767 20.767-20.767c11.469 0 20.767 9.297 20.767 20.767v0c0 11.469-9.297 20.767-20.767 20.767v0zM221.667 23.333h-163.333c-19.33 0-35 15.67-35 35v0 163.333c0 19.33 15.67 35 35 35v0h163.333c19.33 0 35-15.67 35-35v0-163.333c0-19.33-15.67-35-35-35v0zM233.333 221.667c0 6.443-5.223 11.667-11.667 11.667v0h-163.333c-6.443 0-11.667-5.223-11.667-11.667v0-163.333c0-6.443 5.223-11.667 11.667-11.667v0h163.333c6.443 0 11.667 5.223 11.667 11.667v0z"></path>
</svg>
