<!-- Generated by IcoMoon.io -->
<svg version="1.1" xmlns="http://www.w3.org/2000/svg" width="280" height="280" viewBox="0 0 280 280">
<title>ul-user-nurse</title>
<path fill="#ebebeb" d="M188.702 150.69c-0.213-0.095-0.411-0.197-0.628-0.278-1.606-0.725-3.196-1.482-4.839-2.135 16.361-12.933 26.765-32.777 26.765-55.052 0-38.66-31.34-70-70-70s-70 31.34-70 70c0 22.275 10.404 42.12 26.618 54.94l0.147 0.112c-1.643 0.653-3.233 1.41-4.839 2.135-0.217 0.081-0.415 0.182-0.628 0.278-36.623 17-62.56 51.533-67.147 92.519l-0.048 0.526c-0.044 0.38-0.069 0.819-0.069 1.265 0 6.444 5.223 11.667 11.667 11.667 5.998 0 10.939-4.526 11.593-10.349l0.005-0.053c3.394-30.42 21.067-56.092 46.067-70.445l0.451-0.239 37.934 37.934c2.111 2.112 5.027 3.418 8.249 3.418s6.138-1.306 8.249-3.418l37.933-37.934c25.451 14.592 43.125 40.264 46.48 70.263l0.038 0.42c0.658 5.87 5.59 10.394 11.58 10.402h0.001c0.452-0 0.898-0.025 1.336-0.073l-0.055 0.005c5.876-0.66 10.402-5.601 10.402-11.599 0-0.445-0.025-0.885-0.074-1.317l0.005 0.053c-4.635-41.513-30.572-76.046-66.48-92.747l-0.715-0.299zM93.812 88.599c2.354-23.632 22.134-41.935 46.188-41.935s43.834 18.303 46.173 41.741l0.016 0.194zM140 188.769l-22.598-22.598c6.782-1.803 14.569-2.838 22.598-2.838s15.815 1.035 23.234 2.979l-0.636-0.142zM140 140c-19.024-0.031-35.377-11.432-42.63-27.769l-0.118-0.297h85.496c-7.371 16.635-23.725 28.036-42.744 28.067h-0.004z"></path>
</svg>
