<!-- Generated by IcoMoon.io -->
<svg version="1.1" xmlns="http://www.w3.org/2000/svg" width="280" height="280" viewBox="0 0 280 280">
<title>ul-venus</title>
<path fill="#ebebeb" d="M221.667 105c0-0.028 0-0.062 0-0.096 0-45.103-36.564-81.667-81.667-81.667s-81.667 36.564-81.667 81.667c0 40.987 30.195 74.922 69.553 80.775l0.447 0.055v24.267h-11.667c-6.443 0-11.667 5.223-11.667 11.667s5.223 11.667 11.667 11.667v0h11.667v11.667c0 6.443 5.223 11.667 11.667 11.667s11.667-5.223 11.667-11.667v0-11.667h11.667c6.443 0 11.667-5.223 11.667-11.667s-5.223-11.667-11.667-11.667v0h-11.667v-24.267c39.773-5.902 69.951-39.786 70-80.728v-0.005zM140 163.333c-32.217 0-58.333-26.117-58.333-58.333s26.117-58.333 58.333-58.333c32.217 0 58.333 26.117 58.333 58.333v0c0 32.217-26.117 58.333-58.333 58.333v0z"></path>
</svg>
