<!-- Generated by IcoMoon.io -->
<svg version="1.1" xmlns="http://www.w3.org/2000/svg" width="280" height="280" viewBox="0 0 280 280">
<title>ul-volume-mute</title>
<path fill="#ebebeb" d="M145.017 47.833c-1.365-0.606-2.958-0.959-4.632-0.959-2.655 0-5.102 0.887-7.063 2.38l0.028-0.021-55.767 44.1h-42.583c-6.443 0-11.667 5.223-11.667 11.667v0 70c0 6.443 5.223 11.667 11.667 11.667v0h42.583l55.183 44.1c1.963 1.585 4.484 2.55 7.23 2.567h0.004c0.052 0.001 0.114 0.001 0.175 0.001 1.768 0 3.434-0.432 4.9-1.196l-0.059 0.028c3.955-1.915 6.637-5.893 6.65-10.498v-163.335c-0.013-4.607-2.695-8.585-6.581-10.47l-0.069-0.030zM128.333 197.4l-39.433-31.5c-1.963-1.585-4.484-2.55-7.23-2.567h-35.004v-46.667h35c2.749-0.016 5.271-0.982 7.256-2.584l-0.022 0.017 39.433-31.5zM232.283 140l21-20.883c2.12-2.12 3.431-5.048 3.431-8.283 0-6.47-5.245-11.714-11.714-11.714-3.235 0-6.164 1.311-8.283 3.431v0l-20.883 21-20.883-21c-2.12-2.12-5.048-3.431-8.283-3.431-6.47 0-11.714 5.245-11.714 11.714 0 3.235 1.311 6.164 3.431 8.283v0l21 20.883-21 20.883c-2.131 2.114-3.451 5.045-3.451 8.283s1.32 6.169 3.45 8.283l0.001 0.001c2.114 2.131 5.045 3.451 8.283 3.451s6.169-1.32 8.283-3.45l0.001-0.001 20.883-21 20.883 21c2.114 2.131 5.045 3.451 8.283 3.451s6.169-1.32 8.283-3.45l0.001-0.001c2.131-2.114 3.451-5.045 3.451-8.283s-1.32-6.169-3.45-8.283l-0.001-0.001z"></path>
</svg>
