<!-- Generated by IcoMoon.io -->
<svg version="1.1" xmlns="http://www.w3.org/2000/svg" width="280" height="280" viewBox="0 0 280 280">
<title>ul-wheelchair-alt</title>
<path fill="#ebebeb" d="M233.333 188.767v-2.1c-0.044-15.109-9.654-27.961-23.090-32.823l-0.244-0.077v-72.1h11.667c6.443 0 11.667-5.223 11.667-11.667s-5.223-11.667-11.667-11.667v0h-140c0-19.33-15.67-35-35-35v0h-11.667c-6.443 0-11.667 5.223-11.667 11.667s5.223 11.667 11.667 11.667v0h11.667c6.443 0 11.667 5.223 11.667 11.667v0 86.567c-20.775 9.233-35 29.687-35 53.463 0 32.217 26.117 58.333 58.333 58.333s58.333-26.117 58.333-58.333c0-0.011 0-0.021 0-0.032v0.002c0-0.023 0-0.051 0-0.078 0-8.416-1.804-16.411-5.047-23.619l0.147 0.364h63.233c6.443 0 11.667 5.223 11.667 11.667v0 2.1c-13.71 4.95-23.333 17.85-23.333 32.998 0 19.33 15.67 35 35 35s35-15.67 35-35c0-15.148-9.623-28.048-23.090-32.921l-0.244-0.077zM81.667 233.333c-19.33 0-35-15.67-35-35s15.67-35 35-35c19.33 0 35 15.67 35 35v0c0 19.33-15.67 35-35 35v0zM186.667 151.667h-70c-9.534-7.282-21.619-11.667-34.728-11.667-0.096 0-0.191 0-0.287 0.001h0.015v-11.667h105zM186.667 105h-105v-23.333h105zM221.667 233.333c-6.443 0-11.667-5.223-11.667-11.667s5.223-11.667 11.667-11.667c6.443 0 11.667 5.223 11.667 11.667v0c0 6.443-5.223 11.667-11.667 11.667v0zM81.667 186.667c-6.443 0-11.667 5.223-11.667 11.667s5.223 11.667 11.667 11.667c6.443 0 11.667-5.223 11.667-11.667v0c0-6.443-5.223-11.667-11.667-11.667v0z"></path>
</svg>
