<!-- Generated by IcoMoon.io -->
<svg version="1.1" xmlns="http://www.w3.org/2000/svg" width="280" height="280" viewBox="0 0 280 280">
<title>ul-water</title>
<path fill="#ebebeb" d="M31.733 89.25c2.493 0.742 4.659 1.694 6.674 2.876l-0.141-0.076c6.832 4.143 15.088 6.594 23.917 6.594s17.085-2.452 24.125-6.712l-0.208 0.117c4.295-2.472 9.444-3.931 14.933-3.931s10.639 1.458 15.081 4.009l-0.148-0.078c6.902 4.016 15.191 6.386 24.033 6.386s17.131-2.37 24.265-6.51l-0.232 0.124c4.295-2.472 9.444-3.931 14.933-3.931s10.639 1.458 15.081 4.009l-0.148-0.078c6.971 4.054 15.33 6.471 24.248 6.533h0.018c8.625-0.018 16.68-2.446 23.531-6.646l-0.197 0.113c1.875-1.106 4.041-2.058 6.322-2.745l0.211-0.055c4.893-1.46 8.4-5.921 8.4-11.2 0-6.443-5.223-11.667-11.667-11.667-1.164 0-2.288 0.171-3.349 0.488l0.083-0.021c-4.45 1.392-8.314 3.174-11.891 5.379l0.224-0.129c-3.508 2.086-7.735 3.319-12.25 3.319s-8.742-1.233-12.362-3.381l0.112 0.062c-7.623-4.354-16.754-6.92-26.483-6.92s-18.86 2.567-26.75 7.060l0.267-0.14c-3.545 2.094-7.811 3.332-12.367 3.332s-8.822-1.237-12.482-3.394l0.115 0.063c-7.623-4.354-16.754-6.92-26.483-6.92s-18.86 2.567-26.75 7.060l0.267-0.14c-3.508 2.086-7.735 3.319-12.25 3.319s-8.742-1.233-12.362-3.381l0.112 0.062c-3.352-2.076-7.217-3.858-11.299-5.15l-0.368-0.1c-0.978-0.296-2.102-0.467-3.267-0.467-6.443 0-11.667 5.223-11.667 11.667 0 5.279 3.507 9.74 8.317 11.179l0.083 0.021zM241.733 183.517c-4.45 1.392-8.314 3.174-11.891 5.379l0.224-0.129c-3.508 2.086-7.735 3.319-12.25 3.319s-8.742-1.233-12.362-3.381l0.112 0.062c-7.623-4.354-16.754-6.92-26.483-6.92s-18.86 2.567-26.75 7.060l0.267-0.14c-3.545 2.094-7.811 3.332-12.367 3.332s-8.822-1.237-12.482-3.394l0.115 0.063c-7.623-4.354-16.754-6.92-26.483-6.92s-18.86 2.567-26.75 7.060l0.267-0.14c-3.508 2.086-7.735 3.319-12.25 3.319s-8.742-1.233-12.362-3.381l0.112 0.062c-3.352-2.076-7.217-3.858-11.299-5.15l-0.368-0.1c-0.978-0.296-2.102-0.467-3.267-0.467-6.443 0-11.667 5.223-11.667 11.667 0 5.279 3.507 9.74 8.317 11.179l0.083 0.021c2.493 0.742 4.659 1.694 6.674 2.876l-0.141-0.076c6.832 4.143 15.088 6.594 23.917 6.594s17.085-2.452 24.125-6.712l-0.208 0.117c4.295-2.472 9.444-3.931 14.933-3.931s10.639 1.458 15.081 4.009l-0.148-0.078c6.902 4.016 15.191 6.386 24.033 6.386s17.131-2.37 24.265-6.51l-0.232 0.124c4.295-2.472 9.444-3.931 14.933-3.931s10.639 1.458 15.081 4.009l-0.148-0.078c6.971 4.054 15.33 6.471 24.248 6.533h0.018c8.625-0.018 16.68-2.446 23.531-6.646l-0.197 0.113c1.875-1.106 4.041-2.058 6.322-2.745l0.211-0.055c4.893-1.46 8.4-5.921 8.4-11.2 0-6.443-5.223-11.667-11.667-11.667-1.164 0-2.288 0.171-3.349 0.488l0.083-0.021zM241.733 125.183c-4.45 1.392-8.314 3.174-11.891 5.379l0.224-0.129c-3.508 2.086-7.735 3.319-12.25 3.319s-8.742-1.233-12.362-3.381l0.112 0.062c-7.623-4.354-16.754-6.92-26.483-6.92s-18.86 2.567-26.75 7.060l0.267-0.14c-3.545 2.094-7.811 3.332-12.367 3.332s-8.822-1.237-12.482-3.394l0.115 0.063c-7.623-4.354-16.754-6.92-26.483-6.92s-18.86 2.567-26.75 7.060l0.267-0.14c-3.508 2.086-7.735 3.319-12.25 3.319s-8.742-1.233-12.362-3.381l0.112 0.062c-3.352-2.076-7.217-3.858-11.299-5.15l-0.368-0.1c-1.224-0.476-2.64-0.752-4.121-0.752-5.383 0-9.915 3.646-11.26 8.603l-0.019 0.082c-0.296 0.978-0.467 2.102-0.467 3.267 0 5.279 3.507 9.74 8.317 11.179l0.083 0.021c2.493 0.742 4.659 1.694 6.674 2.876l-0.141-0.076c6.832 4.143 15.088 6.594 23.917 6.594s17.085-2.452 24.125-6.712l-0.208 0.117c4.295-2.472 9.444-3.931 14.933-3.931s10.639 1.458 15.081 4.009l-0.148-0.078c6.902 4.016 15.191 6.386 24.033 6.386s17.131-2.37 24.265-6.51l-0.232 0.124c4.295-2.472 9.444-3.931 14.933-3.931s10.639 1.458 15.081 4.009l-0.148-0.078c6.971 4.054 15.33 6.471 24.248 6.533h0.018c8.625-0.018 16.68-2.446 23.531-6.646l-0.197 0.113c1.875-1.106 4.041-2.058 6.322-2.745l0.211-0.055c4.893-1.46 8.4-5.921 8.4-11.2 0-6.443-5.223-11.667-11.667-11.667-1.164 0-2.288 0.171-3.349 0.488l0.083-0.021z"></path>
</svg>
