<!-- Generated by IcoMoon.io -->
<svg version="1.1" xmlns="http://www.w3.org/2000/svg" width="280" height="280" viewBox="0 0 280 280">
<title>ul-whatsapp-alt</title>
<path fill="#ebebeb" d="M256.667 76.417c-0.146-5.473-0.565-10.679-1.249-15.802l0.082 0.752c-0.963-4.751-2.455-8.967-4.448-12.884l0.131 0.284c-2.198-4.502-4.969-8.355-8.283-11.666l-0-0c-3.336-3.269-7.183-6.035-11.405-8.164l-0.261-0.119c-3.636-1.825-7.855-3.28-12.284-4.148l-0.316-0.052c-4.389-0.695-9.549-1.157-14.793-1.281l-0.141-0.003h-127.283c-5.473 0.146-10.679 0.565-15.802 1.249l0.752-0.082c-4.751 0.963-8.967 2.455-12.884 4.448l0.284-0.131c-4.502 2.198-8.355 4.969-11.666 8.283l-0 0c-3.269 3.336-6.035 7.183-8.164 11.405l-0.119 0.261c-1.825 3.636-3.28 7.855-4.148 12.284l-0.052 0.316c-0.695 4.389-1.157 9.549-1.281 14.793l-0.003 0.141c0 2.217 0 5.367 0 6.3v114.8c0 1.283 0 4.083 0 6.183 0.146 5.473 0.565 10.679 1.249 15.802l-0.082-0.752c0.963 4.751 2.455 8.967 4.448 12.884l-0.131-0.284c2.198 4.502 4.969 8.355 8.283 11.666l0 0c3.336 3.269 7.183 6.035 11.405 8.164l0.261 0.119c3.636 1.825 7.855 3.28 12.284 4.148l0.316 0.052c4.389 0.695 9.549 1.157 14.793 1.281l0.141 0.003h127.283c5.473-0.146 10.679-0.565 15.802-1.249l-0.752 0.082c4.751-0.963 8.967-2.455 12.884-4.448l-0.284 0.131c4.502-2.198 8.355-4.969 11.666-8.283l0-0c3.269-3.336 6.035-7.183 8.164-11.405l0.119-0.261c1.825-3.636 3.28-7.855 4.148-12.284l0.052-0.316c0.695-4.389 1.157-9.549 1.281-14.793l0.003-0.141c0-2.217 0-5.017 0-6.3v-114.8c0-0.933 0-4.083 0-6.183zM142.683 221.667v0c-14.705-0.075-28.487-3.959-40.43-10.715l0.413 0.215-44.333 11.667 11.667-43.4c-7.22-11.938-11.541-26.335-11.666-41.731l-0-0.035c0.134-46.162 37.586-83.531 83.766-83.531 46.263 0 83.767 37.504 83.767 83.767 0 46.058-37.172 83.434-83.152 83.765l-0.031 0zM142.683 68.483c-38.314 0.452-69.199 31.617-69.199 69.995 0 13.509 3.826 26.124 10.455 36.821l-0.173-0.299 1.633 2.683-7 25.55 26.6-7.233 2.567 1.517c10.017 5.998 22.079 9.583 34.972 9.683l0.028 0c38.66 0 70-31.34 70-70v0c0-38.66-31.34-70-70-70v0zM183.517 167.883c-3.076 5.068-8.086 8.702-13.981 9.894l-0.136 0.023c-1.469 0.282-3.16 0.443-4.888 0.443-2.921 0-5.734-0.461-8.372-1.313l0.192 0.054c-4.704-1.475-8.568-2.979-12.313-4.699l0.646 0.266c-14.635-7.448-26.667-18.135-35.49-31.171l-0.21-0.329c-4.696-5.937-7.786-13.342-8.506-21.428l-0.011-0.155c-0.003-0.148-0.005-0.321-0.005-0.496 0-6.698 2.823-12.738 7.343-16.993l0.012-0.011c1.378-1.556 3.371-2.54 5.595-2.567h3.271c1.283 0 3.033 0 4.667 3.617s5.95 14.467 6.533 15.517c0.275 0.526 0.436 1.148 0.436 1.808s-0.161 1.283-0.447 1.83l0.010-0.022c-0.553 1.34-1.259 2.496-2.117 3.521l0.017-0.021c-1.050 1.283-2.217 2.8-3.15 3.733s-2.1 2.1-0.933 4.2c3.311 5.532 7.178 10.29 11.627 14.43l0.040 0.036c4.779 4.239 10.338 7.738 16.412 10.242l0.388 0.142c2.1 1.050 3.383 0.933 4.55 0s5.25-6.067 6.65-8.167 2.8-1.75 4.667-1.050 12.25 5.717 14.35 6.767 3.383 1.517 3.967 2.45c0.156 0.894 0.245 1.924 0.245 2.975 0 2.196-0.389 4.302-1.102 6.251l0.040-0.126z"></path>
</svg>
