<!-- Generated by IcoMoon.io -->
<svg version="1.1" xmlns="http://www.w3.org/2000/svg" width="280" height="280" viewBox="0 0 280 280">
<title>ul-windsock</title>
<path fill="#ebebeb" d="M210.933 58.333l-129.267-10.733v-12.6c0-6.443-5.223-11.667-11.667-11.667s-11.667 5.223-11.667 11.667v0 210c0 6.443 5.223 11.667 11.667 11.667s11.667-5.223 11.667-11.667v0-82.6l129.267-10.733c6.029-0.498 10.734-5.514 10.734-11.629 0-0.013 0-0.026 0-0.039v0.002-70c0-0.011 0-0.024 0-0.037 0-6.115-4.704-11.131-10.691-11.627l-0.042-0.003zM105 137.083l-23.333 1.867v-67.9l23.333 1.867zM151.667 133.117l-23.333 1.983v-60.2l23.333 1.983zM198.333 129.267l-23.333 1.983v-52.5l23.333 1.983z"></path>
</svg>
