<!-- Generated by IcoMoon.io -->
<svg version="1.1" xmlns="http://www.w3.org/2000/svg" width="280" height="280" viewBox="0 0 280 280">
<title>ul-wifi-slash</title>
<path fill="#ebebeb" d="M80.733 64.283v0l-37.45-37.567c-2.12-2.12-5.048-3.431-8.283-3.431-6.47 0-11.714 5.245-11.714 11.714 0 3.235 1.311 6.164 3.431 8.283v0l26.483 26.717c-14.028 8.056-26.132 17.298-36.887 27.903l0.021-0.020c-2.097 2.109-3.393 5.016-3.393 8.225s1.296 6.116 3.393 8.226l-0.001-0.001c2.108 2.149 5.038 3.486 8.281 3.5h0.003c3.187-0.014 6.070-1.303 8.167-3.384l-0.001 0.001c10.835-10.748 23.288-19.888 36.957-27.016l0.843-0.4 17.383 17.967c-15.036 6.667-27.875 15.583-38.729 26.479l-0.004 0.004c-2.464 2.151-4.012 5.297-4.012 8.805 0 6.443 5.223 11.667 11.667 11.667 3.566 0 6.759-1.6 8.898-4.121l0.014-0.017c11.004-10.956 24.484-19.434 39.526-24.521l0.724-0.212 18.9 18.783c-16.822 3.313-31.393 11.341-42.701 22.634l0.001-0.001c-2.464 2.151-4.012 5.297-4.012 8.805 0 6.443 5.223 11.667 11.667 11.667 3.566 0 6.759-1.6 8.898-4.121l0.014-0.017c10.487-10.694 25.043-17.364 41.158-17.5l0.026-0c2.6 0.007 5.145 0.219 7.627 0.62l-0.277-0.037 89.367 89.367c2.114 2.131 5.045 3.451 8.283 3.451s6.169-1.32 8.283-3.45l0.001-0.001c2.131-2.114 3.451-5.045 3.451-8.283s-1.32-6.169-3.45-8.283l-0.001-0.001zM140 186.667c-19.33 0-35 15.67-35 35s15.67 35 35 35c19.33 0 35-15.67 35-35v0c0-19.33-15.67-35-35-35v0zM140 233.333c-6.443 0-11.667-5.223-11.667-11.667s5.223-11.667 11.667-11.667c6.443 0 11.667 5.223 11.667 11.667v0c0 6.443-5.223 11.667-11.667 11.667v0zM263.783 97.883c-31.663-31.636-75.391-51.202-123.689-51.202-7.063 0-14.028 0.418-20.872 1.232l0.828-0.080c-5.906 0.669-10.454 5.637-10.454 11.667 0 6.482 5.255 11.737 11.737 11.737 0.452 0 0.898-0.025 1.337-0.075l-0.054 0.005c5.189-0.626 11.198-0.984 17.291-0.984 41.911 0 79.872 16.908 107.435 44.276l-0.009-0.009c2.11 2.095 5.016 3.39 8.225 3.39 6.447 0 11.673-5.226 11.673-11.673 0-3.238-1.318-6.168-3.447-8.283l-0.001-0.001zM214.2 147.35c2.037 1.778 4.719 2.862 7.654 2.862 6.443 0 11.667-5.223 11.667-11.667 0-2.877-1.042-5.511-2.768-7.545l0.014 0.017c-15.16-15.33-34.226-26.765-55.585-32.691l-0.882-0.209c-1.247-0.496-2.692-0.784-4.204-0.784-6.443 0-11.667 5.223-11.667 11.667 0 5.785 4.211 10.587 9.735 11.508l0.068 0.009c18.077 5.112 33.576 14.419 45.965 26.832l0.002 0.002z"></path>
</svg>
