<!-- Generated by IcoMoon.io -->
<svg version="1.1" xmlns="http://www.w3.org/2000/svg" width="280" height="280" viewBox="0 0 280 280">
<title>ul-x</title>
<path fill="#ebebeb" d="M93.333 221.667c-19.33 0-35-15.67-35-35v0-93.333c0-19.33 15.67-35 35-35v0c6.443 0 11.667-5.223 11.667-11.667s-5.223-11.667-11.667-11.667v0c-32.217 0-58.333 26.117-58.333 58.333v0 93.333c0 32.217 26.117 58.333 58.333 58.333v0c6.443 0 11.667-5.223 11.667-11.667s-5.223-11.667-11.667-11.667v0zM183.283 183.283c2.131-2.114 3.451-5.045 3.451-8.283s-1.32-6.169-3.45-8.283l-0.001-0.001-26.833-26.717 26.833-26.717c2.12-2.12 3.431-5.048 3.431-8.283 0-6.47-5.245-11.714-11.714-11.714-3.235 0-6.164 1.311-8.283 3.431v0l-26.717 26.833-26.717-26.833c-2.12-2.12-5.048-3.431-8.283-3.431-6.47 0-11.714 5.245-11.714 11.714 0 3.235 1.311 6.164 3.431 8.283v0l26.833 26.717-26.833 26.717c-2.131 2.114-3.451 5.045-3.451 8.283s1.32 6.169 3.45 8.283l0.001 0.001c2.114 2.131 5.045 3.451 8.283 3.451s6.169-1.32 8.283-3.45l0.001-0.001 26.717-26.833 26.717 26.833c2.114 2.131 5.045 3.451 8.283 3.451s6.169-1.32 8.283-3.45l0.001-0.001zM186.667 35c-6.443 0-11.667 5.223-11.667 11.667s5.223 11.667 11.667 11.667v0c19.33 0 35 15.67 35 35v0 93.333c0 19.33-15.67 35-35 35v0c-6.443 0-11.667 5.223-11.667 11.667s5.223 11.667 11.667 11.667v0c32.217 0 58.333-26.117 58.333-58.333v0-93.333c0-32.217-26.117-58.333-58.333-58.333v0z"></path>
</svg>
