<!-- Generated by IcoMoon.io -->
<svg version="1.1" xmlns="http://www.w3.org/2000/svg" width="280" height="280" viewBox="0 0 280 280">
<title>ul-x-add</title>
<path fill="#ebebeb" d="M171.617 85.050c-2.114-2.131-5.045-3.451-8.283-3.451s-6.169 1.32-8.283 3.45l-0.001 0.001-26.717 26.833-26.717-26.833c-2.12-2.12-5.048-3.431-8.283-3.431-6.47 0-11.714 5.245-11.714 11.714 0 3.235 1.311 6.164 3.431 8.283v0l26.833 26.717-26.833 26.717c-2.131 2.114-3.451 5.045-3.451 8.283s1.32 6.169 3.45 8.283l0.001 0.001c2.114 2.131 5.045 3.451 8.283 3.451s6.169-1.32 8.283-3.45l0.001-0.001 26.717-26.833 26.717 26.833c2.114 2.131 5.045 3.451 8.283 3.451s6.169-1.32 8.283-3.45l0.001-0.001c2.131-2.114 3.451-5.045 3.451-8.283s-1.32-6.169-3.45-8.283l-0.001-0.001-26.833-26.717 26.833-26.717c2.131-2.114 3.451-5.045 3.451-8.283s-1.32-6.169-3.45-8.283l-0.001-0.001zM81.667 210c-19.33 0-35-15.67-35-35v0-93.333c0-19.33 15.67-35 35-35v0c6.443 0 11.667-5.223 11.667-11.667s-5.223-11.667-11.667-11.667v0c-32.217 0-58.333 26.117-58.333 58.333v0 93.333c0 32.217 26.117 58.333 58.333 58.333v0c6.443 0 11.667-5.223 11.667-11.667s-5.223-11.667-11.667-11.667v0zM210 81.667v70c0 6.443 5.223 11.667 11.667 11.667s11.667-5.223 11.667-11.667v0-70c0-32.217-26.117-58.333-58.333-58.333v0c-6.443 0-11.667 5.223-11.667 11.667s5.223 11.667 11.667 11.667v0c19.33 0 35 15.67 35 35v0zM245 210h-11.667v-11.667c0-6.443-5.223-11.667-11.667-11.667s-11.667 5.223-11.667 11.667v0 11.667h-11.667c-6.443 0-11.667 5.223-11.667 11.667s5.223 11.667 11.667 11.667v0h11.667v11.667c0 6.443 5.223 11.667 11.667 11.667s11.667-5.223 11.667-11.667v0-11.667h11.667c6.443 0 11.667-5.223 11.667-11.667s-5.223-11.667-11.667-11.667v0z"></path>
</svg>
