<!-- Generated by IcoMoon.io -->
<svg version="1.1" xmlns="http://www.w3.org/2000/svg" width="280" height="280" viewBox="0 0 280 280">
<title>mi-artboard</title>
<path fill="#fff" d="M46.667 256.667c-7 0-11.667-4.667-11.667-11.667v-175c0-7 4.667-11.667 11.667-11.667h221.667c7 0 11.667 4.667 11.667 11.667s-4.667 11.667-11.667 11.667h-210v163.333c0 7-4.667 11.667-11.667 11.667z"></path>
<path fill="#fff" d="M233.333 221.667h-221.667c-7 0-11.667-4.667-11.667-11.667s4.667-11.667 11.667-11.667h210v-163.333c0-7 4.667-11.667 11.667-11.667s11.667 4.667 11.667 11.667v175c0 7-4.667 11.667-11.667 11.667z"></path>
<path fill="#fff" d="M268.333 245c-2.333 0-4.667-1.167-7-2.333l-256.667-186.667c-4.667-3.5-5.833-10.5-2.333-16.333 3.5-4.667 11.667-5.833 16.333-2.333l256.667 186.667c4.667 3.5 5.833 11.667 2.333 16.333-2.333 3.5-5.833 4.667-9.333 4.667z"></path>
</svg>
