<!-- Generated by IcoMoon.io -->
<svg version="1.1" xmlns="http://www.w3.org/2000/svg" width="280" height="280" viewBox="0 0 280 280">
<title>mi-at</title>
<path fill="#fff" d="M140 280c-77 0-140-63-140-140s63-140 140-140 140 63 140 140c0 7-4.667 11.667-11.667 11.667s-11.667-4.667-11.667-11.667c0-64.167-52.5-116.667-116.667-116.667s-116.667 52.5-116.667 116.667 52.5 116.667 116.667 116.667c31.5 0 60.667-11.667 82.833-33.833 4.667-4.667 11.667-4.667 16.333 0s4.667 11.667 0 16.333c-26.833 26.833-61.833 40.833-99.167 40.833z"></path>
<path fill="#fff" d="M233.333 186.667c-25.667 0-46.667-21-46.667-46.667 0-7 4.667-11.667 11.667-11.667s11.667 4.667 11.667 11.667c0 12.833 10.5 23.333 23.333 23.333s23.333-10.5 23.333-23.333c0-7 4.667-11.667 11.667-11.667s11.667 4.667 11.667 11.667c0 25.667-21 46.667-46.667 46.667z"></path>
<path fill="#fff" d="M140 210c-38.5 0-70-31.5-70-70s31.5-70 70-70 70 31.5 70 70-31.5 70-70 70zM140 93.333c-25.667 0-46.667 21-46.667 46.667s21 46.667 46.667 46.667 46.667-21 46.667-46.667-21-46.667-46.667-46.667z"></path>
<path fill="#fff" d="M198.333 151.667c-7 0-11.667-4.667-11.667-11.667v-58.333c0-7 4.667-11.667 11.667-11.667s11.667 4.667 11.667 11.667v58.333c0 7-4.667 11.667-11.667 11.667z"></path>
</svg>
