<!-- Generated by IcoMoon.io -->
<svg version="1.1" xmlns="http://www.w3.org/2000/svg" width="280" height="280" viewBox="0 0 280 280">
<title>mi-bucket</title>
<path fill="#fff" d="M198.333 256.667h-163.333c-5.833 0-10.5-4.667-11.667-10.5l-23.333-210c0-3.5 1.167-7 2.333-9.333 2.333-2.333 5.833-3.5 9.333-3.5h210c3.5 0 7 1.167 8.167 3.5 2.333 2.333 3.5 5.833 3.5 9.333l-23.333 210c-1.167 5.833-5.833 10.5-11.667 10.5zM45.5 233.333h142.333l21-186.667h-184.333l21 186.667z"></path>
<path fill="#fff" d="M260.167 182c-10.5 0-26.833-4.667-57.167-21-19.833-10.5-44.333-25.667-73.5-44.333-11.667-8.167-19.833-12.833-19.833-12.833-4.667-4.667-5.833-11.667-2.333-17.5s10.5-7 16.333-3.5c0 0 7 4.667 18.667 12.833 10.5 7 43.167 28 72.333 43.167 23.333 12.833 35 16.333 40.833 17.5-3.5-10.5-17.5-28-47.833-51.333-4.667-3.5-5.833-11.667-2.333-16.333s11.667-5.833 16.333-2.333c39.667 30.333 58.333 54.833 58.333 74.667 0 7-3.5 12.833-8.167 16.333-3.5 3.5-7 4.667-11.667 4.667z"></path>
<path fill="#fff" d="M140 93.333c0 12.887-10.447 23.333-23.333 23.333s-23.333-10.447-23.333-23.333c0-12.887 10.447-23.333 23.333-23.333s23.333 10.447 23.333 23.333z"></path>
<path fill="#fff" d="M116.667 122.5c-16.333 0-29.167-12.833-29.167-29.167s12.833-29.167 29.167-29.167 29.167 12.833 29.167 29.167-12.833 29.167-29.167 29.167zM116.667 75.833c-9.333 0-17.5 8.167-17.5 17.5s8.167 17.5 17.5 17.5 17.5-8.167 17.5-17.5-8.167-17.5-17.5-17.5z"></path>
</svg>
