<!-- Generated by IcoMoon.io -->
<svg version="1.1" xmlns="http://www.w3.org/2000/svg" width="280" height="280" viewBox="0 0 280 280">
<title>mi-backward</title>
<path fill="#fff" d="M245 221.667c-2.333 0-4.667-1.167-7-2.333l-105-70c-2.333-2.333-4.667-5.833-4.667-9.333s2.333-7 4.667-9.333l105-70c3.5-2.333 8.167-2.333 11.667 0 4.667 1.167 7 4.667 7 9.333v140c0 4.667-2.333 8.167-5.833 10.5-2.333 1.167-3.5 1.167-5.833 1.167zM161 140l72.333 47.833v-95.667l-72.333 47.833z"></path>
<path fill="#fff" d="M140 221.667c-2.333 0-4.667-1.167-7-2.333l-105-70c-2.333-2.333-4.667-5.833-4.667-9.333s2.333-7 4.667-9.333l105-70c3.5-2.333 8.167-2.333 11.667 0 4.667 1.167 7 4.667 7 9.333v140c0 4.667-2.333 8.167-5.833 10.5-2.333 1.167-3.5 1.167-5.833 1.167zM56 140l72.333 47.833v-95.667l-72.333 47.833z"></path>
<path fill="#fff" d="M35 221.667c-7 0-11.667-4.667-11.667-11.667v-140c0-7 4.667-11.667 11.667-11.667s11.667 4.667 11.667 11.667v140c0 7-4.667 11.667-11.667 11.667z"></path>
</svg>
