<!-- Generated by IcoMoon.io -->
<svg version="1.1" xmlns="http://www.w3.org/2000/svg" width="280" height="280" viewBox="0 0 280 280">
<title>mi-cloud</title>
<path fill="#fff" d="M58.333 140c-7 0-11.667-4.667-11.667-11.667 0-45.5 36.167-81.667 81.667-81.667 35 0 66.5 23.333 78.167 57.167 2.333 5.833-1.167 12.833-7 15.167s-12.833-1.167-15.167-7c-8.167-25.667-30.333-42-56-42-32.667 0-58.333 25.667-58.333 58.333 0 7-4.667 11.667-11.667 11.667z"></path>
<path fill="#fff" d="M210 233.333c-7 0-11.667-4.667-11.667-11.667s4.667-11.667 11.667-11.667c25.667 0 46.667-21 46.667-46.667s-21-46.667-46.667-46.667c-3.5 0-8.167 0-11.667 1.167-5.833 1.167-12.833-2.333-14-8.167s2.333-12.833 8.167-14c5.833-1.167 11.667-2.333 17.5-2.333 38.5 0 70 31.5 70 70s-31.5 70-70 70z"></path>
<path fill="#fff" d="M186.667 233.333h-128.333c-7 0-11.667-4.667-11.667-11.667s4.667-11.667 11.667-11.667h128.333c7 0 11.667 4.667 11.667 11.667s-4.667 11.667-11.667 11.667z"></path>
<path fill="#fff" d="M210 233.333h-23.333c-7 0-11.667-4.667-11.667-11.667s4.667-11.667 11.667-11.667h23.333c7 0 11.667 4.667 11.667 11.667s-4.667 11.667-11.667 11.667z"></path>
<path fill="#fff" d="M58.333 233.333c-32.667 0-58.333-25.667-58.333-58.333s25.667-58.333 58.333-58.333c7 0 11.667 4.667 11.667 11.667s-4.667 11.667-11.667 11.667c-19.833 0-35 15.167-35 35s15.167 35 35 35c7 0 11.667 4.667 11.667 11.667s-4.667 11.667-11.667 11.667z"></path>
</svg>
