<!-- Generated by IcoMoon.io -->
<svg version="1.1" xmlns="http://www.w3.org/2000/svg" width="280" height="280" viewBox="0 0 280 280">
<title>mi-comment</title>
<path fill="#fff" d="M233.333 233.333h-46.667c-7 0-11.667-4.667-11.667-11.667s4.667-11.667 11.667-11.667h46.667c12.833 0 23.333-10.5 23.333-23.333v-140c0-12.833-10.5-23.333-23.333-23.333h-186.667c-12.833 0-23.333 10.5-23.333 23.333v140c0 12.833 10.5 23.333 23.333 23.333h46.667c7 0 11.667 4.667 11.667 11.667s-4.667 11.667-11.667 11.667h-46.667c-25.667 0-46.667-21-46.667-46.667v-140c0-25.667 21-46.667 46.667-46.667h186.667c25.667 0 46.667 21 46.667 46.667v140c0 25.667-21 46.667-46.667 46.667z"></path>
<path fill="#fff" d="M140 280c-3.5 0-5.833-1.167-8.167-3.5l-46.667-46.667c-4.667-4.667-4.667-11.667 0-16.333s11.667-4.667 16.333 0l38.5 38.5 38.5-38.5c4.667-4.667 11.667-4.667 16.333 0s4.667 11.667 0 16.333l-46.667 46.667c-2.333 2.333-4.667 3.5-8.167 3.5z"></path>
<path fill="#fff" d="M210 81.667h-140c-7 0-11.667-4.667-11.667-11.667s4.667-11.667 11.667-11.667h140c7 0 11.667 4.667 11.667 11.667s-4.667 11.667-11.667 11.667z"></path>
<path fill="#fff" d="M151.667 128.333h-81.667c-7 0-11.667-4.667-11.667-11.667s4.667-11.667 11.667-11.667h81.667c7 0 11.667 4.667 11.667 11.667s-4.667 11.667-11.667 11.667z"></path>
<path fill="#fff" d="M186.667 175h-116.667c-7 0-11.667-4.667-11.667-11.667s4.667-11.667 11.667-11.667h116.667c7 0 11.667 4.667 11.667 11.667s-4.667 11.667-11.667 11.667z"></path>
</svg>
