<!-- Generated by IcoMoon.io -->
<svg version="1.1" xmlns="http://www.w3.org/2000/svg" width="280" height="280" viewBox="0 0 280 280">
<title>mi-contrast</title>
<path fill="#fff" d="M268.333 140c0 71.167-46.667 128.333-128.333 128.333v-256.667c81.667 0 128.333 57.167 128.333 128.333z"></path>
<path fill="#fff" d="M140 280c-7 0-11.667-4.667-11.667-11.667v-256.667c0-7 4.667-11.667 11.667-11.667 82.833 0 140 57.167 140 140s-57.167 140-140 140zM151.667 23.333v233.333c72.333-5.833 105-60.667 105-116.667s-32.667-110.833-105-116.667z"></path>
<path fill="#fff" d="M140 280c-77 0-140-63-140-140s63-140 140-140c7 0 11.667 4.667 11.667 11.667v256.667c0 7-4.667 11.667-11.667 11.667zM128.333 23.333c-58.333 7-105 56-105 116.667s46.667 109.667 105 116.667v-233.333z"></path>
</svg>
