<!-- Generated by IcoMoon.io -->
<svg version="1.1" xmlns="http://www.w3.org/2000/svg" width="280" height="280" viewBox="0 0 280 280">
<title>mi-disk</title>
<path fill="#fff" d="M49 242.667c-3.5 0-5.833-1.167-8.167-3.5-4.667-4.667-4.667-11.667 0-16.333l66.5-66.5c4.667-4.667 11.667-4.667 16.333 0s4.667 11.667 0 16.333l-66.5 66.5c-2.333 2.333-4.667 3.5-8.167 3.5z"></path>
<path fill="#fff" d="M164.5 127.167c-3.5 0-5.833-1.167-8.167-3.5-4.667-4.667-4.667-11.667 0-16.333l66.5-66.5c4.667-4.667 11.667-4.667 16.333 0s4.667 11.667 0 16.333l-66.5 66.5c-2.333 2.333-4.667 3.5-8.167 3.5z"></path>
<path fill="#fff" d="M173.833 143.5c-4.667 0-10.5-3.5-11.667-9.333s2.333-12.833 8.167-14l91-22.167c5.833-1.167 12.833 2.333 14 8.167s-2.333 12.833-8.167 14l-91 22.167c0 1.167-1.167 1.167-2.333 1.167z"></path>
<path fill="#fff" d="M130.667 280c-1.167 0-1.167 0 0 0-7 0-11.667-5.833-11.667-12.833l7-93.333c0-5.833 5.833-11.667 12.833-10.5 7 0 11.667 5.833 10.5 12.833l-7 93.333c-1.167 5.833-5.833 10.5-11.667 10.5z"></path>
<path fill="#fff" d="M112 130.667c-2.333 0-4.667-1.167-7-2.333l-75.833-54.833c-4.667-3.5-5.833-10.5-2.333-16.333s11.667-5.833 16.333-2.333l75.833 54.833c4.667 3.5 5.833 11.667 2.333 16.333-2.333 3.5-5.833 4.667-9.333 4.667z"></path>
<path fill="#fff" d="M140 280c-77 0-140-63-140-140s63-140 140-140 140 63 140 140-63 140-140 140zM140 23.333c-64.167 0-116.667 52.5-116.667 116.667s52.5 116.667 116.667 116.667 116.667-52.5 116.667-116.667-52.5-116.667-116.667-116.667z"></path>
<path fill="#fff" d="M140 186.667c-25.667 0-46.667-21-46.667-46.667s21-46.667 46.667-46.667 46.667 21 46.667 46.667-21 46.667-46.667 46.667zM140 116.667c-12.833 0-23.333 10.5-23.333 23.333s10.5 23.333 23.333 23.333 23.333-10.5 23.333-23.333-10.5-23.333-23.333-23.333z"></path>
</svg>
