<!-- Generated by IcoMoon.io -->
<svg version="1.1" xmlns="http://www.w3.org/2000/svg" width="280" height="280" viewBox="0 0 280 280">
<title>mi-dollar</title>
<path fill="#fff" d="M140 280c-77 0-140-63-140-140s63-140 140-140 140 63 140 140-63 140-140 140zM140 23.333c-64.167 0-116.667 52.5-116.667 116.667s52.5 116.667 116.667 116.667 116.667-52.5 116.667-116.667-52.5-116.667-116.667-116.667z"></path>
<path fill="#fff" d="M140 151.667c-22.167 0-40.833-14-45.5-32.667-1.167-2.333-1.167-4.667-1.167-8.167 0-22.167 21-40.833 46.667-40.833s46.667 18.667 46.667 40.833c0 3.5 0 5.833-1.167 8.167-1.167 5.833-8.167 10.5-14 8.167-5.833-1.167-10.5-8.167-8.167-14 0-1.167 0-2.333 0-3.5 0-8.167-10.5-16.333-23.333-16.333s-23.333 8.167-23.333 17.5c0 1.167 0 2.333 0 3.5 2.333 8.167 11.667 14 23.333 14 7 0 11.667 4.667 11.667 11.667s-4.667 11.667-11.667 11.667z"></path>
<path fill="#fff" d="M140 210c-25.667 0-46.667-18.667-46.667-40.833 0-3.5 0-5.833 1.167-8.167 1.167-5.833 8.167-10.5 14-8.167 5.833 1.167 10.5 8.167 8.167 14 0 1.167 0 2.333 0 3.5 0 9.333 10.5 17.5 23.333 17.5s23.333-8.167 23.333-17.5c0-1.167 0-2.333 0-3.5-2.333-8.167-11.667-14-23.333-14-7 0-11.667-4.667-11.667-11.667s4.667-11.667 11.667-11.667c22.167 0 40.833 14 45.5 32.667 1.167 1.167 1.167 3.5 1.167 7 0 22.167-21 40.833-46.667 40.833z"></path>
<path fill="#fff" d="M140 233.333c-7 0-11.667-4.667-11.667-11.667v-23.333c0-7 4.667-11.667 11.667-11.667s11.667 4.667 11.667 11.667v23.333c0 7-4.667 11.667-11.667 11.667z"></path>
<path fill="#fff" d="M140 93.333c-7 0-11.667-4.667-11.667-11.667v-23.333c0-7 4.667-11.667 11.667-11.667s11.667 4.667 11.667 11.667v23.333c0 7-4.667 11.667-11.667 11.667z"></path>
<path fill="#fff" d="M175 128.333c-3.5 0-5.833-1.167-8.167-3.5s-3.5-4.667-3.5-8.167 1.167-5.833 3.5-8.167c4.667-4.667 11.667-4.667 16.333 0 2.333 2.333 3.5 4.667 3.5 8.167s-1.167 5.833-3.5 8.167c-2.333 2.333-4.667 3.5-8.167 3.5z"></path>
</svg>
