<!-- Generated by IcoMoon.io -->
<svg version="1.1" xmlns="http://www.w3.org/2000/svg" width="280" height="280" viewBox="0 0 280 280">
<title>mi-euro</title>
<path fill="#fff" d="M140 280c-77 0-140-63-140-140s63-140 140-140c77 0 140 63 140 140s-63 140-140 140zM140 23.333c-64.167 0-116.667 52.5-116.667 116.667s52.5 116.667 116.667 116.667c64.167 0 116.667-52.5 116.667-116.667s-52.5-116.667-116.667-116.667z"></path>
<path fill="#fff" d="M151.667 210c-38.5 0-70-31.5-70-70s31.5-70 70-70c15.167 0 30.333 4.667 42 14 4.667 3.5 5.833 11.667 2.333 16.333s-11.667 5.833-16.333 2.333c-8.167-5.833-17.5-9.333-28-9.333-25.667 0-46.667 21-46.667 46.667s21 46.667 46.667 46.667c10.5 0 19.833-3.5 28-9.333 4.667-3.5 12.833-2.333 16.333 2.333s2.333 12.833-2.333 16.333c-11.667 9.333-26.833 14-42 14z"></path>
<path fill="#fff" d="M151.667 151.667h-81.667c-7 0-11.667-4.667-11.667-11.667s4.667-11.667 11.667-11.667h81.667c7 0 11.667 4.667 11.667 11.667s-4.667 11.667-11.667 11.667z"></path>
</svg>
