<!-- Generated by IcoMoon.io -->
<svg version="1.1" xmlns="http://www.w3.org/2000/svg" width="280" height="280" viewBox="0 0 280 280">
<title>mi-folder</title>
<path fill="#fff" d="M233.333 256.667h-221.667c-7 0-11.667-4.667-11.667-11.667v-210c0-7 4.667-11.667 11.667-11.667h81.667c7 0 11.667 4.667 11.667 11.667v11.667h128.333c7 0 11.667 4.667 11.667 11.667v46.667c0 7-4.667 11.667-11.667 11.667s-11.667-4.667-11.667-11.667v-35h-128.333c-7 0-11.667-4.667-11.667-11.667v-11.667h-58.333v186.667h210c7 0 11.667 4.667 11.667 11.667s-4.667 11.667-11.667 11.667z"></path>
<path fill="#fff" d="M233.333 256.667h-221.667c-3.5 0-7-1.167-9.333-4.667s-2.333-5.833-2.333-9.333l35-140c1.167-5.833 5.833-9.333 11.667-9.333h221.667c3.5 0 7 1.167 9.333 4.667s2.333 5.833 2.333 9.333l-35 140c-1.167 5.833-5.833 9.333-11.667 9.333zM26.833 233.333h197.167l29.167-116.667h-197.167l-29.167 116.667z"></path>
</svg>
