<!-- Generated by IcoMoon.io -->
<svg version="1.1" xmlns="http://www.w3.org/2000/svg" width="280" height="280" viewBox="0 0 280 280">
<title>mi-heart</title>
<path fill="#fff" d="M11.667 117.833c-5.833 0-10.5-4.667-11.667-10.5 0-2.333 0-5.833 0-8.167s0-4.667 0-7v-2.333c0-3.5 1.167-7 2.333-10.5 3.5-11.667 8.167-21 15.167-29.167 1.167-1.167 1.167-1.167 2.333-2.333 14-15.167 33.833-24.5 56-24.5 42 0 75.833 33.833 75.833 75.833 0 7-4.667 11.667-11.667 11.667s-11.667-4.667-11.667-11.667c0-29.167-23.333-52.5-52.5-52.5-15.167 0-29.167 5.833-38.5 17.5 0 0 0 0 0 0s0 0 0 0 0 0 0 1.167c-4.667 5.833-8.167 11.667-10.5 19.833-2.333 2.333-2.333 3.5-2.333 5.833v3.5c0 1.167 0 3.5 0 4.667 0 2.333 0 3.5 0 4.667 1.167 5.833-3.5 11.667-10.5 12.833-1.167 1.167-1.167 1.167-2.333 1.167z"></path>
<path fill="#fff" d="M268.333 117.833c0 0-1.167 0-1.167 0-7-1.167-11.667-7-10.5-12.833 0-2.333 0-3.5 0-5.833 0-1.167 0-3.5 0-4.667v-2.333c0 0 0-1.167 0-1.167 0-2.333-1.167-3.5-1.167-5.833-2.333-8.167-5.833-14-10.5-19.833 0 0 0 0-1.167-1.167-10.5-11.667-24.5-17.5-39.667-17.5-29.167 0-52.5 23.333-52.5 52.5 0 7-4.667 11.667-11.667 11.667s-11.667-4.667-11.667-11.667c0-42 33.833-75.833 75.833-75.833 22.167 0 42 9.333 57.167 25.667 0 0 0 0 0 0s0 0 1.167 1.167c7 8.167 11.667 17.5 15.167 28 1.167 2.333 1.167 5.833 2.333 9.333 0 0 0 1.167 0 1.167v2.333c0 2.333 0 4.667 0 8.167 0 2.333 0 4.667 0 8.167-1.167 5.833-5.833 10.5-11.667 10.5z"></path>
<path fill="#fff" d="M140 256.667c-50.167 0-134.167-80.5-140-150.5 0-2.333 0-4.667 0-7s0-4.667 0-7v-2.333c1.167-4.667 2.333-8.167 3.5-11.667s2.333-7 3.5-9.333c1.167-3.5 2.333-7 4.667-9.333l2.333-3.5c2.333-2.333 3.5-4.667 4.667-5.833 4.667-4.667 11.667-4.667 16.333-1.167 4.667 4.667 4.667 11.667 1.167 16.333-1.167 0-1.167 1.167-2.333 2.333l-2.333 3.5c-1.167 2.333-2.333 4.667-3.5 7s-2.333 4.667-2.333 7c0 2.333-1.167 4.667-1.167 7v2.333c0 1.167 0 3.5 0 4.667-1.167 1.167-1.167 3.5-1.167 5.833 4.667 56 77 128.333 116.667 128.333s112-73.5 116.667-128.333c0-2.333 0-3.5 0-5.833 0-1.167 0-3.5 0-4.667v-3.5c0-1.167-1.167-4.667-1.167-7-2.333-7-5.833-14-10.5-19.833-4.667-4.667-4.667-11.667 0-16.333s11.667-4.667 16.333 0c0 0 1.167 1.167 2.333 2.333 5.833 8.167 11.667 17.5 14 26.833 1.167 3.5 1.167 7 2.333 10.5v3.5c0 2.333 0 4.667 0 8.167 0 2.333 0 4.667 0 8.167-5.833 68.833-89.833 149.333-140 149.333z"></path>
</svg>
