<!-- Generated by IcoMoon.io -->
<svg version="1.1" xmlns="http://www.w3.org/2000/svg" width="280" height="280" viewBox="0 0 280 280">
<title>mi-leaf</title>
<path fill="#fff" d="M140 221.667c-78.167 0-93.333-30.333-93.333-81.667 0-75.833 82.833-135.333 86.333-137.667s9.333-2.333 14 0c3.5 2.333 86.333 61.833 86.333 137.667 0 19.833 0 81.667-93.333 81.667zM140 26.833c-18.667 14-70 60.667-70 113.167 0 42 5.833 58.333 70 58.333s70-30.333 70-58.333c0-52.5-51.333-99.167-70-113.167z"></path>
<path fill="#fff" d="M163.333 280c-3.5 0-7-2.333-9.333-4.667-42-64.167-30.333-151.667-26.833-184.333 1.167-4.667 1.167-8.167 1.167-9.333 0-5.833 5.833-11.667 11.667-11.667 0 0 0 0 0 0 5.833 0 11.667 4.667 11.667 11.667 0 2.333 0 5.833-1.167 11.667-4.667 30.333-15.167 112 22.167 168 3.5 5.833 2.333 12.833-3.5 16.333-1.167 1.167-3.5 2.333-5.833 2.333z"></path>
</svg>
