<!-- Generated by IcoMoon.io -->
<svg version="1.1" xmlns="http://www.w3.org/2000/svg" width="280" height="280" viewBox="0 0 280 280">
<title>mi-mouse</title>
<path fill="#fff" d="M140 280c-47.833 0-105-24.5-105-140 0-68.833 0-140 105-140s105 71.167 105 140c0 115.5-57.167 140-105 140zM140 23.333c-81.667 0-81.667 44.333-81.667 116.667 0 29.167 0 116.667 81.667 116.667s81.667-87.5 81.667-116.667c0-72.333 0-116.667-81.667-116.667z"></path>
<path fill="#fff" d="M140 116.667c-7 0-11.667-4.667-11.667-11.667v-93.333c0-7 4.667-11.667 11.667-11.667s11.667 4.667 11.667 11.667v93.333c0 7-4.667 11.667-11.667 11.667z"></path>
<path fill="#fff" d="M140 116.667c-32.667 0-63-2.333-92.167-8.167-5.833-1.167-10.5-7-9.333-14s7-10.5 14-9.333c26.833 5.833 57.167 8.167 87.5 8.167s60.667-2.333 87.5-8.167c5.833-1.167 12.833 3.5 14 9.333s-3.5 12.833-9.333 14c-29.167 5.833-59.5 8.167-92.167 8.167z"></path>
</svg>
