<!-- Generated by IcoMoon.io -->
<svg version="1.1" xmlns="http://www.w3.org/2000/svg" width="280" height="280" viewBox="0 0 280 280">
<title>mi-notes</title>
<path fill="#fff" d="M233.333 280h-186.667c-7 0-11.667-4.667-11.667-11.667v-233.333c0-7 4.667-11.667 11.667-11.667h186.667c7 0 11.667 4.667 11.667 11.667v233.333c0 7-4.667 11.667-11.667 11.667zM58.333 256.667h163.333v-210h-163.333v210z"></path>
<path fill="#fff" d="M93.333 70c-7 0-11.667-4.667-11.667-11.667v-46.667c0-7 4.667-11.667 11.667-11.667s11.667 4.667 11.667 11.667v46.667c0 7-4.667 11.667-11.667 11.667z"></path>
<path fill="#fff" d="M140 70c-7 0-11.667-4.667-11.667-11.667v-46.667c0-7 4.667-11.667 11.667-11.667s11.667 4.667 11.667 11.667v46.667c0 7-4.667 11.667-11.667 11.667z"></path>
<path fill="#fff" d="M186.667 70c-7 0-11.667-4.667-11.667-11.667v-46.667c0-7 4.667-11.667 11.667-11.667s11.667 4.667 11.667 11.667v46.667c0 7-4.667 11.667-11.667 11.667z"></path>
</svg>
