<!-- Generated by IcoMoon.io -->
<svg version="1.1" xmlns="http://www.w3.org/2000/svg" width="280" height="280" viewBox="0 0 280 280">
<title>mi-paper-plane</title>
<path fill="#fff" d="M175 280c-3.5 0-5.833-1.167-8.167-3.5l-163.333-163.333c-2.333-2.333-3.5-7-3.5-10.5 1.167-3.5 3.5-7 7-8.167l256.667-93.333c4.667-1.167 9.333 0 11.667 2.333 3.5 3.5 4.667 8.167 2.333 11.667l-93.333 256.667c-1.167 3.5-4.667 7-8.167 7 0 1.167 0 1.167-1.167 1.167zM32.667 109.667l137.667 137.667 78.167-215.833-215.833 78.167z"></path>
<path fill="#fff" d="M70 175c-3.5 0-7-1.167-9.333-4.667-3.5-4.667-3.5-12.833 2.333-16.333l198.333-151.667c4.667-3.5 12.833-3.5 16.333 2.333 3.5 4.667 3.5 12.833-2.333 16.333l-198.333 151.667c-2.333 1.167-4.667 2.333-7 2.333z"></path>
<path fill="#fff" d="M70 268.333c-7 0-11.667-4.667-11.667-11.667v-93.333c0-7 4.667-11.667 11.667-11.667s11.667 4.667 11.667 11.667v93.333c0 7-4.667 11.667-11.667 11.667z"></path>
<path fill="#fff" d="M70 268.333c-2.333 0-4.667-1.167-7-2.333-4.667-3.5-5.833-11.667-1.167-16.333l40.833-51.333c3.5-4.667 11.667-5.833 16.333-1.167 4.667 3.5 5.833 11.667 1.167 16.333l-42 51.333c-1.167 2.333-4.667 3.5-8.167 3.5z"></path>
</svg>
