<!-- Generated by IcoMoon.io -->
<svg version="1.1" xmlns="http://www.w3.org/2000/svg" width="280" height="280" viewBox="0 0 280 280">
<title>mi-pencil-ruler</title>
<path fill="#fff" d="M105 221.667h-46.667l23.333 46.667z"></path>
<path fill="#fff" d="M81.667 280c-4.667 0-8.167-2.333-10.5-7l-23.333-46.667c-2.333-3.5-1.167-8.167 0-11.667 2.333-2.333 7-4.667 10.5-4.667h46.667c3.5 0 8.167 2.333 10.5 5.833s2.333 8.167 0 11.667l-23.333 46.667c-2.333 3.5-5.833 5.833-10.5 5.833zM77 233.333l4.667 9.333 4.667-9.333h-9.333z"></path>
<path fill="#fff" d="M105 233.333h-46.667c-7 0-11.667-4.667-11.667-11.667v-186.667c0-18.667 15.167-35 35-35s35 15.167 35 35v186.667c0 7-4.667 11.667-11.667 11.667zM70 210h23.333v-175c0-5.833-4.667-11.667-11.667-11.667s-11.667 4.667-11.667 11.667v175z"></path>
<path fill="#fff" d="M221.667 280h-70c-7 0-11.667-4.667-11.667-11.667v-256.667c0-7 4.667-11.667 11.667-11.667h70c7 0 11.667 4.667 11.667 11.667v256.667c0 7-4.667 11.667-11.667 11.667zM163.333 256.667h46.667v-233.333h-46.667v233.333z"></path>
<path fill="#fff" d="M221.667 81.667h-23.333c-7 0-11.667-4.667-11.667-11.667s4.667-11.667 11.667-11.667h23.333c7 0 11.667 4.667 11.667 11.667s-4.667 11.667-11.667 11.667z"></path>
<path fill="#fff" d="M221.667 128.333h-23.333c-7 0-11.667-4.667-11.667-11.667s4.667-11.667 11.667-11.667h23.333c7 0 11.667 4.667 11.667 11.667s-4.667 11.667-11.667 11.667z"></path>
<path fill="#fff" d="M221.667 175h-23.333c-7 0-11.667-4.667-11.667-11.667s4.667-11.667 11.667-11.667h23.333c7 0 11.667 4.667 11.667 11.667s-4.667 11.667-11.667 11.667z"></path>
<path fill="#fff" d="M221.667 221.667h-23.333c-7 0-11.667-4.667-11.667-11.667s4.667-11.667 11.667-11.667h23.333c7 0 11.667 4.667 11.667 11.667s-4.667 11.667-11.667 11.667z"></path>
</svg>
