<!-- Generated by IcoMoon.io -->
<svg version="1.1" xmlns="http://www.w3.org/2000/svg" width="280" height="280" viewBox="0 0 280 280">
<title>mi-printer</title>
<path fill="#fff" d="M233.333 233.333h-11.667c-7 0-11.667-4.667-11.667-11.667s4.667-11.667 11.667-11.667h11.667c12.833 0 23.333-10.5 23.333-23.333v-93.333c0-12.833-10.5-23.333-23.333-23.333h-186.667c-12.833 0-23.333 10.5-23.333 23.333v93.333c0 12.833 10.5 23.333 23.333 23.333h11.667c7 0 11.667 4.667 11.667 11.667s-4.667 11.667-11.667 11.667h-11.667c-25.667 0-46.667-21-46.667-46.667v-93.333c0-25.667 21-46.667 46.667-46.667h186.667c25.667 0 46.667 21 46.667 46.667v93.333c0 25.667-21 46.667-46.667 46.667z"></path>
<path fill="#fff" d="M221.667 280h-163.333c-7 0-11.667-4.667-11.667-11.667v-93.333c0-7 4.667-11.667 11.667-11.667h163.333c7 0 11.667 4.667 11.667 11.667v93.333c0 7-4.667 11.667-11.667 11.667zM70 256.667h140v-70h-140v70z"></path>
<path fill="#fff" d="M221.667 70h-163.333c-7 0-11.667-4.667-11.667-11.667v-46.667c0-7 4.667-11.667 11.667-11.667h163.333c7 0 11.667 4.667 11.667 11.667v46.667c0 7-4.667 11.667-11.667 11.667zM70 46.667h140v-23.333h-140v23.333z"></path>
<path fill="#fff" d="M233.333 116.667c0 12.887-10.447 23.333-23.333 23.333s-23.333-10.447-23.333-23.333c0-12.887 10.447-23.333 23.333-23.333s23.333 10.447 23.333 23.333z"></path>
<path fill="#fff" d="M268.333 128.333h-256.667c-7 0-11.667-4.667-11.667-11.667s4.667-11.667 11.667-11.667h256.667c7 0 11.667 4.667 11.667 11.667s-4.667 11.667-11.667 11.667z"></path>
</svg>
