<!-- Generated by IcoMoon.io -->
<svg version="1.1" xmlns="http://www.w3.org/2000/svg" width="280" height="280" viewBox="0 0 280 280">
<title>mi-question</title>
<path fill="#fff" d="M140 280c-77 0-140-63-140-140s63-140 140-140 140 63 140 140-63 140-140 140zM140 23.333c-64.167 0-116.667 52.5-116.667 116.667s52.5 116.667 116.667 116.667 116.667-52.5 116.667-116.667-52.5-116.667-116.667-116.667z"></path>
<path fill="#fff" d="M140 186.667c-7 0-11.667-4.667-11.667-11.667v-8.167c0-17.5 9.333-32.667 23.333-40.833 9.333-4.667 14-15.167 11.667-24.5-1.167-9.333-9.333-17.5-18.667-18.667-7-1.167-14 0-19.833 4.667-4.667 3.5-8.167 10.5-8.167 17.5s-4.667 11.667-11.667 11.667-11.667-4.667-11.667-11.667c0-14 5.833-26.833 16.333-36.167s24.5-12.833 38.5-10.5c18.667 3.5 33.833 18.667 37.333 37.333 3.5 19.833-5.833 39.667-23.333 49-7 3.5-10.5 11.667-10.5 21v9.333c0 7-4.667 11.667-11.667 11.667z"></path>
<path fill="#fff" d="M151.667 210c0 6.443-5.223 11.667-11.667 11.667s-11.667-5.223-11.667-11.667c0-6.443 5.223-11.667 11.667-11.667s11.667 5.223 11.667 11.667z"></path>
<path fill="#fff" d="M140 227.5c-9.333 0-17.5-8.167-17.5-17.5s8.167-17.5 17.5-17.5 17.5 8.167 17.5 17.5-8.167 17.5-17.5 17.5zM140 204.167c-3.5 0-5.833 2.333-5.833 5.833s2.333 5.833 5.833 5.833 5.833-2.333 5.833-5.833-2.333-5.833-5.833-5.833z"></path>
</svg>
