<!-- Generated by IcoMoon.io -->
<svg version="1.1" xmlns="http://www.w3.org/2000/svg" width="280" height="280" viewBox="0 0 280 280">
<title>mi-sad</title>
<path fill="#fff" d="M140 280c-77 0-140-63-140-140s63-140 140-140 140 63 140 140-63 140-140 140zM140 23.333c-64.167 0-116.667 52.5-116.667 116.667s52.5 116.667 116.667 116.667 116.667-52.5 116.667-116.667-52.5-116.667-116.667-116.667z"></path>
<path fill="#fff" d="M81.667 151.667c-19.833 0-35-15.167-35-35s15.167-35 35-35 35 15.167 35 35-15.167 35-35 35zM81.667 105c-7 0-11.667 4.667-11.667 11.667s4.667 11.667 11.667 11.667 11.667-4.667 11.667-11.667-4.667-11.667-11.667-11.667z"></path>
<path fill="#fff" d="M198.333 151.667c-19.833 0-35-15.167-35-35s15.167-35 35-35 35 15.167 35 35-15.167 35-35 35zM198.333 105c-7 0-11.667 4.667-11.667 11.667s4.667 11.667 11.667 11.667 11.667-4.667 11.667-11.667-4.667-11.667-11.667-11.667z"></path>
<path fill="#fff" d="M191.333 221.667c-2.333 0-4.667-1.167-7-2.333-12.833-10.5-28-15.167-44.333-15.167s-31.5 5.833-44.333 15.167c-4.667 3.5-12.833 3.5-16.333-1.167s-3.5-12.833 1.167-16.333c16.333-14 37.333-21 58.333-21s42 7 58.333 21c4.667 3.5 5.833 11.667 1.167 16.333 0 2.333-3.5 3.5-7 3.5z"></path>
</svg>
