<!-- Generated by IcoMoon.io -->
<svg version="1.1" xmlns="http://www.w3.org/2000/svg" width="280" height="280" viewBox="0 0 280 280">
<title>mi-users</title>
<path fill="#fff" d="M107.333 151.667c-8.167 0-17.5-2.333-24.5-7-15.167-10.5-24.5-32.667-24.5-60.667 0-26.833 22.167-49 49-49s49 22.167 49 49c0 28-9.333 50.167-25.667 60.667-5.833 4.667-15.167 7-23.333 7zM107.333 58.333c-14 0-25.667 11.667-25.667 25.667 0 19.833 5.833 35 15.167 40.833 7 4.667 15.167 4.667 22.167 0 9.333-5.833 15.167-21 15.167-40.833-1.167-14-12.833-25.667-26.833-25.667z"></path>
<path fill="#fff" d="M107.333 245c-22.167 0-95.667-2.333-95.667-39.667 0-39.667 32.667-50.167 54.833-57.167 2.333-1.167 8.167-2.333 11.667-16.333l23.333 4.667c-4.667 22.167-16.333 30.333-26.833 33.833-31.5 9.333-39.667 17.5-39.667 35 0 7 33.833 16.333 72.333 16.333s72.333-9.333 72.333-16.333c0-17.5-8.167-25.667-38.5-36.167-9.333-3.5-22.167-11.667-26.833-33.833l23.333-4.667c2.333 12.833 9.333 15.167 10.5 16.333 22.167 7 54.833 18.667 54.833 57.167s-73.5 40.833-95.667 40.833z"></path>
<path fill="#fff" d="M198.333 149.333c-7 0-12.833-2.333-18.667-5.833-11.667-8.167-18.667-23.333-18.667-44.333s16.333-37.333 37.333-37.333 37.333 16.333 37.333 37.333c0 21-7 37.333-18.667 45.5-5.833 2.333-11.667 4.667-18.667 4.667zM198.333 84c-8.167 0-14 5.833-14 14 0 12.833 3.5 22.167 8.167 25.667 3.5 2.333 8.167 2.333 10.5 0 5.833-3.5 9.333-12.833 9.333-25.667 0-7-5.833-14-14-14z"></path>
<path fill="#fff" d="M157.5 170.333l-14-18.667c7-5.833 15.167-9.333 25.667-11.667 1.167 0 3.5-1.167 4.667-8.167l23.333 4.667c-2.333 12.833-9.333 22.167-21 25.667-7 1.167-14 4.667-18.667 8.167z"></path>
<path fill="#fff" d="M198.333 213.5c0 0-3.5 0-8.167 0l1.167-23.333c3.5 0 5.833 0 7 0 19.833 0 42-4.667 46.667-8.167 0-9.333-4.667-14-24.5-21-10.5-3.5-18.667-12.833-21-25.667l23.333-4.667c1.167 7 4.667 8.167 5.833 8.167 15.167 4.667 40.833 12.833 40.833 43.167-1.167 29.167-50.167 31.5-71.167 31.5v0z"></path>
</svg>
