<!-- Generated by IcoMoon.io -->
<svg version="1.1" xmlns="http://www.w3.org/2000/svg" width="280" height="280" viewBox="0 0 280 280">
<title>mi-wi-fi</title>
<path fill="#fff" d="M140 245c-19.833 0-35-15.167-35-35s15.167-35 35-35 35 15.167 35 35-15.167 35-35 35zM140 198.333c-7 0-11.667 4.667-11.667 11.667s4.667 11.667 11.667 11.667 11.667-4.667 11.667-11.667-4.667-11.667-11.667-11.667z"></path>
<path fill="#fff" d="M193.667 177.333c-3.5 0-7-1.167-9.333-4.667-11.667-14-28-21-45.5-21s-33.833 8.167-45.5 21c-4.667 4.667-11.667 5.833-16.333 1.167s-5.833-11.667-1.167-16.333c16.333-18.667 39.667-29.167 64.167-29.167s47.833 10.5 63 30.333c3.5 4.667 3.5 12.833-1.167 16.333-2.333 1.167-4.667 2.333-8.167 2.333z"></path>
<path fill="#fff" d="M229.833 148.167c-3.5 0-7-1.167-9.333-4.667-18.667-24.5-49-38.5-80.5-38.5s-61.833 14-81.667 38.5c-3.5 4.667-11.667 5.833-16.333 1.167s-5.833-11.667-1.167-16.333c24.5-29.167 60.667-46.667 99.167-46.667s74.667 17.5 99.167 46.667c3.5 4.667 3.5 12.833-1.167 16.333-2.333 2.333-4.667 3.5-8.167 3.5z"></path>
<path fill="#fff" d="M266 117.833c-3.5 0-7-1.167-9.333-4.667-28-35-71.167-54.833-116.667-54.833s-88.667 19.833-117.833 56c-3.5 4.667-11.667 5.833-16.333 1.167-4.667-3.5-5.833-11.667-1.167-16.333 32.667-40.833 82.833-64.167 135.333-64.167s102.667 23.333 135.333 64.167c3.5 4.667 3.5 12.833-1.167 16.333-2.333 2.333-4.667 2.333-8.167 2.333z"></path>
</svg>
