<!-- Generated by IcoMoon.io -->
<svg version="1.1" xmlns="http://www.w3.org/2000/svg" width="280" height="280" viewBox="0 0 280 280">
<title>mt-accessible</title>
<path fill="#fff" d="M140 70c12.887 0 23.333-10.447 23.333-23.333s-10.446-23.333-23.333-23.333c-12.887 0-23.333 10.447-23.333 23.333s10.446 23.333 23.333 23.333zM221.667 151.667v-23.333c-17.967 0.233-36.050-8.75-47.483-21.35l-15.050-16.683c-1.983-2.217-4.433-3.967-7.117-5.25-0.058 0-0.088-0.029-0.117-0.058s-0.058-0.058-0.117-0.058h-0.117c-4.083-2.333-8.75-3.5-13.883-3.033-12.25 1.050-21.117 11.9-21.117 24.15v68.95c0 12.833 10.5 23.333 23.333 23.333h58.333v58.333h23.333v-64.167c0-12.833-10.5-23.333-23.333-23.333h-35v-40.25c15.050 12.483 37.917 22.633 58.333 22.75zM149.683 210c-4.783 13.533-17.733 23.333-33.017 23.333-19.367 0-35-15.633-35-35 0-15.283 9.8-28.117 23.333-33.017v-24.15c-26.6 5.367-46.667 28.933-46.667 57.167 0 32.2 26.133 58.333 58.333 58.333 28.233 0 51.8-20.067 57.167-46.667h-24.15z"></path>
</svg>
