<!-- Generated by IcoMoon.io -->
<svg version="1.1" xmlns="http://www.w3.org/2000/svg" width="280" height="280" viewBox="0 0 280 280">
<title>mt-android</title>
<path fill="#fff" d="M70 210c0 6.417 5.25 11.667 11.667 11.667h11.667v40.833c0 9.683 7.817 17.5 17.5 17.5s17.5-7.817 17.5-17.5v-40.833h23.333v40.833c0 9.683 7.817 17.5 17.5 17.5s17.5-7.817 17.5-17.5v-40.833h11.667c6.417 0 11.667-5.25 11.667-11.667v-116.667h-140v116.667zM40.833 93.333c-9.683 0-17.5 7.817-17.5 17.5v81.667c0 9.683 7.817 17.5 17.5 17.5s17.5-7.817 17.5-17.5v-81.667c0-9.683-7.817-17.5-17.5-17.5v0zM239.167 93.333c-9.683 0-17.5 7.817-17.5 17.5v81.667c0 9.683 7.817 17.5 17.5 17.5s17.5-7.817 17.5-17.5v-81.667c0-9.683-7.817-17.5-17.5-17.5v0zM181.183 25.2l15.167-15.167c2.333-2.333 2.333-5.95 0-8.283s-5.95-2.333-8.283 0l-17.267 17.267c-9.217-4.667-19.717-7.35-30.8-7.35-11.2 0-21.7 2.683-31.033 7.35l-17.383-17.267c-2.333-2.333-5.95-2.333-8.283 0s-2.333 5.95 0 8.283l15.283 15.283c-17.267 12.717-28.583 33.133-28.583 56.35h140c0-23.217-11.317-43.75-28.817-56.467v0zM116.667 58.333h-11.667v-11.667h11.667v11.667zM175 58.333h-11.667v-11.667h11.667v11.667z"></path>
</svg>
