<!-- Generated by IcoMoon.io -->
<svg version="1.1" xmlns="http://www.w3.org/2000/svg" width="280" height="280" viewBox="0 0 280 280">
<title>mt-autorenew</title>
<path fill="#fff" d="M140 70v35l46.667-46.667-46.667-46.667v35c-51.567 0-93.333 41.767-93.333 93.333 0 18.317 5.367 35.35 14.467 49.7l17.033-17.033c-5.25-9.683-8.167-20.883-8.167-32.667 0-38.617 31.383-70 70-70v0zM218.867 90.3l-17.033 17.033c5.133 9.8 8.167 20.883 8.167 32.667 0 38.617-31.383 70-70 70v-35l-46.667 46.667 46.667 46.667v-35c51.567 0 93.333-41.767 93.333-93.333 0-18.317-5.367-35.35-14.467-49.7v0z"></path>
</svg>
