<!-- Generated by IcoMoon.io -->
<svg version="1.1" xmlns="http://www.w3.org/2000/svg" width="280" height="280" viewBox="0 0 280 280">
<title>mt-alarm_off</title>
<path fill="#fff" d="M139.999 70c45.15 0 81.667 36.517 81.667 81.667 0 9.8-1.867 19.25-5.017 28l17.733 17.733c6.767-13.883 10.617-29.283 10.617-45.733 0-57.983-47.017-105-105-105-16.45 0-31.85 3.85-45.733 10.617l17.733 17.733c8.75-3.15 18.2-5.017 28-5.017v0zM256.665 66.733l-53.667-45.033-15.050 17.85 53.667 45.033 15.050-17.85zM34.065 26.717l-14.817 14.933 15.517 15.517-12.95 10.85 16.567 16.567 12.95-10.967 9.333 9.333c-15.983 18.433-25.667 42.467-25.667 68.717 0 57.983 46.9 105 105 105 26.25 0 50.283-9.683 68.717-25.667l25.667 25.667 14.817-14.817-215.133-215.133zM192.149 214.55c-14.117 11.667-32.317 18.783-52.15 18.783-45.15 0-81.667-36.517-81.667-81.667 0-19.833 7.117-38.033 18.783-52.15l115.033 115.033zM93.565 38.267l-16.567-16.567-10.033 8.283 16.567 16.567 10.033-8.283z"></path>
</svg>
