<!-- Generated by IcoMoon.io -->
<svg version="1.1" xmlns="http://www.w3.org/2000/svg" width="280" height="280" viewBox="0 0 280 280">
<title>mt-blur_circular</title>
<path fill="#fff" d="M116.667 105c-6.417 0-11.667 5.25-11.667 11.667s5.25 11.667 11.667 11.667c6.417 0 11.667-5.25 11.667-11.667s-5.25-11.667-11.667-11.667v0zM116.667 151.667c-6.417 0-11.667 5.25-11.667 11.667s5.25 11.667 11.667 11.667c6.417 0 11.667-5.25 11.667-11.667s-5.25-11.667-11.667-11.667v0zM81.667 110.833c-3.267 0-5.833 2.567-5.833 5.833s2.567 5.833 5.833 5.833c3.267 0 5.833-2.567 5.833-5.833s-2.567-5.833-5.833-5.833v0zM116.667 192.5c-3.267 0-5.833 2.567-5.833 5.833s2.567 5.833 5.833 5.833c3.267 0 5.833-2.567 5.833-5.833s-2.567-5.833-5.833-5.833v0zM81.667 157.5c-3.267 0-5.833 2.567-5.833 5.833s2.567 5.833 5.833 5.833c3.267 0 5.833-2.567 5.833-5.833s-2.567-5.833-5.833-5.833v0zM116.667 87.5c3.267 0 5.833-2.567 5.833-5.833s-2.567-5.833-5.833-5.833c-3.267 0-5.833 2.567-5.833 5.833s2.567 5.833 5.833 5.833v0zM163.333 105c-6.417 0-11.667 5.25-11.667 11.667s5.25 11.667 11.667 11.667c6.417 0 11.667-5.25 11.667-11.667s-5.25-11.667-11.667-11.667v0zM163.333 87.5c3.267 0 5.833-2.567 5.833-5.833s-2.567-5.833-5.833-5.833c-3.267 0-5.833 2.567-5.833 5.833s2.567 5.833 5.833 5.833v0zM198.333 157.5c-3.267 0-5.833 2.567-5.833 5.833s2.567 5.833 5.833 5.833c3.267 0 5.833-2.567 5.833-5.833s-2.567-5.833-5.833-5.833v0zM198.333 110.833c-3.267 0-5.833 2.567-5.833 5.833s2.567 5.833 5.833 5.833c3.267 0 5.833-2.567 5.833-5.833s-2.567-5.833-5.833-5.833v0zM140 23.333c-64.4 0-116.667 52.267-116.667 116.667s52.267 116.667 116.667 116.667c64.4 0 116.667-52.267 116.667-116.667s-52.267-116.667-116.667-116.667v0zM140 233.333c-51.567 0-93.333-41.767-93.333-93.333s41.767-93.333 93.333-93.333c51.567 0 93.333 41.767 93.333 93.333s-41.767 93.333-93.333 93.333v0zM163.333 192.5c-3.267 0-5.833 2.567-5.833 5.833s2.567 5.833 5.833 5.833c3.267 0 5.833-2.567 5.833-5.833s-2.567-5.833-5.833-5.833v0zM163.333 151.667c-6.417 0-11.667 5.25-11.667 11.667s5.25 11.667 11.667 11.667c6.417 0 11.667-5.25 11.667-11.667s-5.25-11.667-11.667-11.667v0z"></path>
</svg>
