<!-- Generated by IcoMoon.io -->
<svg version="1.1" xmlns="http://www.w3.org/2000/svg" width="280" height="280" viewBox="0 0 280 280">
<title>mt-blur_linear</title>
<path fill="#fff" d="M58.333 204.167c9.683 0 17.5-7.817 17.5-17.5s-7.817-17.5-17.5-17.5c-9.683 0-17.5 7.817-17.5 17.5s7.817 17.5 17.5 17.5v0zM105 151.667c6.417 0 11.667-5.25 11.667-11.667s-5.25-11.667-11.667-11.667c-6.417 0-11.667 5.25-11.667 11.667s5.25 11.667 11.667 11.667v0zM105 105c6.417 0 11.667-5.25 11.667-11.667s-5.25-11.667-11.667-11.667c-6.417 0-11.667 5.25-11.667 11.667s5.25 11.667 11.667 11.667v0zM35 245h210v-23.333h-210v23.333zM58.333 110.833c9.683 0 17.5-7.817 17.5-17.5s-7.817-17.5-17.5-17.5c-9.683 0-17.5 7.817-17.5 17.5s7.817 17.5 17.5 17.5v0zM58.333 157.5c9.683 0 17.5-7.817 17.5-17.5s-7.817-17.5-17.5-17.5c-9.683 0-17.5 7.817-17.5 17.5s7.817 17.5 17.5 17.5v0zM105 198.333c6.417 0 11.667-5.25 11.667-11.667s-5.25-11.667-11.667-11.667c-6.417 0-11.667 5.25-11.667 11.667s5.25 11.667 11.667 11.667v0zM198.333 192.5c3.267 0 5.833-2.567 5.833-5.833s-2.567-5.833-5.833-5.833c-3.267 0-5.833 2.567-5.833 5.833s2.567 5.833 5.833 5.833v0zM35 35v23.333h210v-23.333h-210zM198.333 99.167c3.267 0 5.833-2.567 5.833-5.833s-2.567-5.833-5.833-5.833c-3.267 0-5.833 2.567-5.833 5.833s2.567 5.833 5.833 5.833v0zM198.333 145.833c3.267 0 5.833-2.567 5.833-5.833s-2.567-5.833-5.833-5.833c-3.267 0-5.833 2.567-5.833 5.833s2.567 5.833 5.833 5.833v0zM151.667 105c6.417 0 11.667-5.25 11.667-11.667s-5.25-11.667-11.667-11.667c-6.417 0-11.667 5.25-11.667 11.667s5.25 11.667 11.667 11.667v0zM151.667 151.667c6.417 0 11.667-5.25 11.667-11.667s-5.25-11.667-11.667-11.667c-6.417 0-11.667 5.25-11.667 11.667s5.25 11.667 11.667 11.667v0zM151.667 198.333c6.417 0 11.667-5.25 11.667-11.667s-5.25-11.667-11.667-11.667c-6.417 0-11.667 5.25-11.667 11.667s5.25 11.667 11.667 11.667v0z"></path>
</svg>
