<!-- Generated by IcoMoon.io -->
<svg version="1.1" xmlns="http://www.w3.org/2000/svg" width="280" height="280" viewBox="0 0 280 280">
<title>mt-brightness_4</title>
<path fill="#fff" d="M233.332 101.383v-54.717h-54.717l-38.617-38.617-38.616 38.617h-54.717v54.717l-38.617 38.616 38.617 38.617v54.717h54.717l38.616 38.617 38.617-38.617h54.717v-54.717l38.617-38.617-38.617-38.616zM139.999 209.999c-10.383 0-20.3-2.333-29.166-6.417 24.033-11.083 40.833-35.35 40.833-63.583s-16.8-52.499-40.833-63.583c8.866-4.083 18.783-6.417 29.166-6.417 38.617 0 70 31.383 70 69.999s-31.383 70-70 70v0z"></path>
</svg>
