<!-- Generated by IcoMoon.io -->
<svg version="1.1" xmlns="http://www.w3.org/2000/svg" width="280" height="280" viewBox="0 0 280 280">
<title>mt-confirmation_number</title>
<path fill="#fff" d="M256.667 116.667v-46.667c0-12.95-10.5-23.333-23.333-23.333h-186.667c-12.833 0-23.217 10.383-23.217 23.333v46.667c12.833 0 23.217 10.5 23.217 23.333s-10.383 23.333-23.333 23.333v46.667c0 12.833 10.5 23.333 23.333 23.333h186.667c12.833 0 23.333-10.5 23.333-23.333v-46.667c-12.833 0-23.333-10.5-23.333-23.333s10.5-23.333 23.333-23.333v0zM151.667 204.167h-23.333v-23.333h23.333v23.333zM151.667 151.667h-23.333v-23.333h23.333v23.333zM151.667 99.167h-23.333v-23.333h23.333v23.333z"></path>
</svg>
