<!-- Generated by IcoMoon.io -->
<svg version="1.1" xmlns="http://www.w3.org/2000/svg" width="280" height="280" viewBox="0 0 280 280">
<title>mt-card_travel</title>
<path fill="#fff" d="M233.333 70h-35v-23.333c0-12.95-10.383-23.333-23.333-23.333h-70c-12.95 0-23.333 10.383-23.333 23.333v23.333h-35c-12.95 0-23.333 10.383-23.333 23.333v128.333c0 12.95 10.383 23.333 23.333 23.333h186.667c12.95 0 23.333-10.383 23.333-23.333v-128.333c0-12.95-10.383-23.333-23.333-23.333v0zM105 46.667h70v23.333h-70v-23.333zM233.333 221.667h-186.667v-23.333h186.667v23.333zM233.333 163.333h-186.667v-70h35v23.333h23.333v-23.333h70v23.333h23.333v-23.333h35v70z"></path>
</svg>
