<!-- Generated by IcoMoon.io -->
<svg version="1.1" xmlns="http://www.w3.org/2000/svg" width="280" height="280" viewBox="0 0 280 280">
<title>mt-copyright</title>
<path fill="#fff" d="M117.6 126.7c0.583-3.85 1.867-7.233 3.5-10.15s3.967-5.367 6.883-7.233c2.8-1.75 6.3-2.567 10.617-2.683 2.683 0.117 5.133 0.583 7.35 1.517 2.333 1.050 4.433 2.45 6.067 4.2s2.917 3.85 3.967 6.183c1.050 2.333 1.517 4.9 1.633 7.467h20.883c-0.233-5.483-1.283-10.5-3.267-15.050s-4.667-8.517-8.167-11.783c-3.5-3.267-7.7-5.833-12.6-7.7s-10.267-2.683-16.217-2.683c-7.583 0-14.233 1.283-19.833 3.967s-10.267 6.183-14 10.733c-3.733 4.55-6.533 9.8-8.283 15.867s-2.8 12.367-2.8 19.133v3.15c0 6.767 0.933 13.067 2.683 19.133s4.55 11.317 8.283 15.75c3.733 4.433 8.4 8.050 14 10.617s12.25 3.967 19.833 3.967c5.483 0 10.617-0.933 15.4-2.683s8.983-4.2 12.6-7.35c3.617-3.15 6.533-6.767 8.633-10.967s3.383-8.633 3.5-13.417h-20.883c-0.117 2.45-0.7 4.667-1.75 6.767s-2.45 3.85-4.2 5.367c-1.75 1.517-3.733 2.683-6.067 3.5-2.217 0.817-4.55 1.050-7 1.167-4.2-0.117-7.7-0.933-10.383-2.683-2.917-1.867-5.25-4.317-6.883-7.233s-2.917-6.417-3.5-10.267c-0.583-3.85-0.933-7.817-0.933-11.667v-3.15c0-4.083 0.35-7.933 0.933-11.783v0zM140 23.333c-64.4 0-116.667 52.267-116.667 116.667s52.267 116.667 116.667 116.667c64.4 0 116.667-52.267 116.667-116.667s-52.267-116.667-116.667-116.667v0zM140 233.333c-51.45 0-93.333-41.883-93.333-93.333s41.883-93.333 93.333-93.333c51.45 0 93.333 41.883 93.333 93.333s-41.883 93.333-93.333 93.333v0z"></path>
</svg>
