<!-- Generated by IcoMoon.io -->
<svg version="1.1" xmlns="http://www.w3.org/2000/svg" width="280" height="280" viewBox="0 0 280 280">
<title>mt-cake</title>
<path fill="#fff" d="M140 70c12.95 0 23.333-10.5 23.333-23.333 0-4.433-1.167-8.517-3.383-12.017l-19.95-34.65-19.95 34.65c-2.217 3.5-3.383 7.583-3.383 12.017 0 12.833 10.5 23.333 23.333 23.333v0zM193.667 186.55l-12.483-12.483-12.6 12.483c-15.167 15.167-41.767 15.283-57.050 0l-12.483-12.483-12.717 12.483c-7.583 7.583-17.733 11.783-28.467 11.783-8.517 0-16.333-2.683-22.867-7.117v53.783c0 6.417 5.25 11.667 11.667 11.667h186.667c6.417 0 11.667-5.25 11.667-11.667v-53.783c-6.533 4.433-14.35 7.117-22.867 7.117-10.733 0-20.883-4.2-28.467-11.783v0zM210 105h-58.333v-23.333h-23.333v23.333h-58.333c-19.367 0-35 15.633-35 35v17.967c0 12.6 10.267 22.867 22.867 22.867 6.067 0 11.9-2.333 16.1-6.65l24.967-24.85 24.85 24.85c8.633 8.633 23.683 8.633 32.317 0l24.967-24.85 24.85 24.85c4.317 4.317 10.033 6.65 16.1 6.65 12.6 0 22.867-10.267 22.867-22.867v-17.967c0.117-19.367-15.517-35-34.883-35v0z"></path>
</svg>
