<!-- Generated by IcoMoon.io -->
<svg version="1.1" xmlns="http://www.w3.org/2000/svg" width="280" height="280" viewBox="0 0 280 280">
<title>mt-cloud_off</title>
<path fill="#fff" d="M225.75 117.133c-7.933-40.25-43.283-70.467-85.75-70.467-17.267 0-33.25 5.017-46.783 13.65l17.033 17.033c8.867-4.667 19.017-7.35 29.75-7.35 35.467 0 64.167 28.7 64.167 64.167v5.833h17.5c19.367 0 35 15.633 35 35 0 13.183-7.467 24.617-18.2 30.567l16.917 16.917c14.817-10.617 24.617-27.883 24.617-47.483 0-30.8-23.917-55.767-54.25-57.867v0zM35 61.483l32.083 31.967c-37.217 1.633-67.083 32.2-67.083 69.883 0 38.617 31.383 70 70 70h136.85l23.333 23.333 14.817-14.817-195.183-195.183-14.817 14.817zM90.183 116.667l93.333 93.333h-113.517c-25.783 0-46.667-20.883-46.667-46.667s20.883-46.667 46.667-46.667h20.183z"></path>
</svg>
