<!-- Generated by IcoMoon.io -->
<svg version="1.1" xmlns="http://www.w3.org/2000/svg" width="280" height="280" viewBox="0 0 280 280">
<title>mt-camera_front</title>
<path fill="#fff" d="M116.667 233.333h-58.333v23.333h58.333v23.333l35-35-35-35v23.333zM163.333 233.333v23.333h58.333v-23.333h-58.333zM140 93.333c12.833 0 23.333-10.5 23.333-23.333s-10.5-23.333-23.333-23.333c-12.833 0-23.217 10.5-23.217 23.333s10.383 23.333 23.217 23.333v0zM198.333 0h-116.667c-12.833 0-23.333 10.5-23.333 23.333v163.333c0 12.833 10.5 23.333 23.333 23.333h116.667c12.833 0 23.333-10.5 23.333-23.333v-163.333c0-12.833-10.5-23.333-23.333-23.333v0zM81.667 23.333h116.667v122.5c0-19.483-38.85-29.167-58.333-29.167s-58.333 9.683-58.333 29.167v-122.5z"></path>
</svg>
