<!-- Generated by IcoMoon.io -->
<svg version="1.1" xmlns="http://www.w3.org/2000/svg" width="280" height="280" viewBox="0 0 280 280">
<title>mt-exposure_plus_2</title>
<path fill="#fff" d="M187.25 190.050l33.367-35.817c4.433-4.55 8.4-9.217 12.133-13.767s6.883-9.1 9.567-13.65c2.683-4.55 4.783-9.1 6.3-13.65s2.217-9.217 2.217-13.767c0-6.183-1.050-11.9-3.15-17.033s-5.133-9.45-9.1-12.95c-3.967-3.617-8.983-6.3-14.7-8.283-5.95-1.867-12.6-2.8-20.067-2.8-8.050 0-15.283 1.283-21.583 3.733s-11.667 5.95-15.867 10.267c-4.317 4.317-7.583 9.333-9.8 15.167-2.1 5.483-3.15 11.317-3.267 17.5h24.967c0.117-3.617 0.583-7 1.517-10.15 1.050-3.383 2.683-6.3 4.667-8.75 2.1-2.45 4.783-4.317 7.933-5.717s7-2.1 11.2-2.1c3.617 0 6.767 0.583 9.45 1.75s5.017 2.917 6.883 5.017c1.867 2.1 3.267 4.667 4.317 7.583 0.933 2.917 1.517 6.067 1.517 9.45 0 2.567-0.35 5.017-0.933 7.583-0.7 2.567-1.75 5.25-3.383 8.167s-3.733 6.183-6.533 9.683c-2.683 3.5-6.067 7.583-10.267 12.017l-48.65 53.083v17.383h100.683v-19.95h-69.417zM93.333 81.667h-23.333v46.667h-46.667v23.333h46.667v46.667h23.333v-46.667h46.667v-23.333h-46.667v-46.667z"></path>
</svg>
