<!-- Generated by IcoMoon.io -->
<svg version="1.1" xmlns="http://www.w3.org/2000/svg" width="280" height="280" viewBox="0 0 280 280">
<title>mt-forward_30</title>
<path fill="#fff" d="M46.667 151.667c0 51.333 42 93.333 93.333 93.333s93.333-42 93.333-93.333h-23.333c0 38.5-31.5 70-70 70s-70-31.5-70-70c0-38.5 31.5-70 70-70v46.667l58.333-58.333-58.333-58.333v46.667c-51.333 0-93.333 42-93.333 93.333v0zM112.599 157.409h5.263c2.507 0 4.365-0.626 5.572-1.88 1.208-1.254 1.812-2.917 1.812-4.991 0-2.005-0.599-3.565-1.795-4.682-1.196-1.118-2.842-1.675-4.939-1.675-1.891 0-3.475 0.518-4.751 1.555s-1.914 2.387-1.914 4.051h-9.878c0-2.598 0.701-4.928 2.102-6.991 1.401-2.061 3.361-3.674 5.879-4.836s5.292-1.743 8.323-1.743c5.264 0 9.388 1.259 12.373 3.776 2.985 2.518 4.478 5.987 4.478 10.408 0 2.279-0.694 4.375-2.085 6.29-1.39 1.913-3.213 3.383-5.468 4.409 2.802 1.002 4.893 2.506 6.272 4.511 1.378 2.005 2.067 4.375 2.067 7.11 0 4.42-1.612 7.964-4.836 10.63-3.225 2.666-7.491 3.999-12.801 3.999-4.968 0-9.029-1.31-12.185-3.93s-4.734-6.084-4.734-10.39h9.878c0 1.868 0.701 3.395 2.102 4.579 1.401 1.185 3.127 1.778 5.178 1.778 2.347 0 4.187-0.621 5.52-1.863 1.334-1.241 2-2.887 2-4.939 0-4.968-2.734-7.451-8.203-7.451h-5.229v-7.725zM176.208 166.090c0 6.882-1.425 12.145-4.272 15.791s-7.019 5.469-12.51 5.469c-5.423 0-9.57-1.789-12.441-5.367-2.871-3.577-4.34-8.705-4.409-15.38v-9.161c0-6.95 1.441-12.224 4.324-15.825s7.035-5.4 12.459-5.4c5.423 0 9.57 1.783 12.441 5.349 2.871 3.565 4.341 8.687 4.409 15.364v9.16zM166.329 156.042c0-4.124-0.564-7.126-1.692-9.007-1.128-1.88-2.887-2.82-5.28-2.82-2.324 0-4.039 0.895-5.144 2.683-1.106 1.789-1.693 4.586-1.76 8.391v12.101c0 4.055 0.552 7.069 1.658 9.040 1.105 1.97 2.877 2.956 5.314 2.956 2.416 0 4.159-0.946 5.23-2.837s1.629-4.785 1.674-8.681v-11.826z"></path>
</svg>
