<!-- Generated by IcoMoon.io -->
<svg version="1.1" xmlns="http://www.w3.org/2000/svg" width="280" height="280" viewBox="0 0 280 280">
<title>mt-find_replace</title>
<path fill="#fff" d="M128.333 70c16.1 0 30.683 6.533 41.3 17.033l-29.633 29.633h70v-70l-23.917 23.917c-14.817-14.817-35.233-23.917-57.75-23.917-41.183 0-75.017 30.45-80.733 70h23.567c5.367-26.6 28.933-46.667 57.167-46.667v0zM194.133 176.633c7.7-10.5 13.067-22.983 14.933-36.633h-23.567c-5.367 26.6-28.933 46.667-57.167 46.667-16.1 0-30.683-6.533-41.3-17.033l29.633-29.633h-70v70l23.917-23.917c14.817 14.817 35.233 23.917 57.75 23.917 18.083 0 34.767-5.95 48.3-15.867l56.7 56.583 17.383-17.383-56.583-56.7z"></path>
</svg>
