<!-- Generated by IcoMoon.io -->
<svg version="1.1" xmlns="http://www.w3.org/2000/svg" width="280" height="280" viewBox="0 0 280 280">
<title>mt-hot_tub</title>
<path fill="#fff" d="M105 70c0 12.887-10.447 23.333-23.333 23.333s-23.333-10.447-23.333-23.333c0-12.887 10.447-23.333 23.333-23.333s23.333 10.447 23.333 23.333z"></path>
<path fill="#fff" d="M130.083 140c-3.617-2.567-6.883-5.367-9.567-8.4l-16.333-18.083c-2.217-2.45-5.017-4.433-8.050-5.833-3.383-1.633-7.233-2.683-11.2-2.683h-0.35c-14.467 0-26.25 11.783-26.25 26.25v8.75h-35v93.333c0 12.833 10.5 23.333 23.333 23.333h186.667c12.833 0 23.333-10.5 23.333-23.333v-93.333h-126.583zM81.667 233.333h-23.333v-70h23.333v70zM128.333 233.333h-23.333v-70h23.333v70zM175 233.333h-23.333v-70h23.333v70zM221.667 233.333h-23.333v-70h23.333v70zM217.583 68.367l-0.817-0.817c-6.65-7.233-9.567-16.45-7.817-25.667l1.050-6.883h-22.050l-0.7 5.017c-2.333 15.867 3.15 31.617 15.167 43.4l0.817 0.7c6.65 7.233 9.567 16.45 7.817 25.667l-1.283 6.883h22.283l0.7-5.017c2.45-15.867-3.15-31.617-15.167-43.283v0zM170.917 68.367l-0.817-0.817c-6.65-7.233-9.567-16.45-7.817-25.667l1.050-6.883h-22.050l-0.7 5.017c-2.333 15.867 3.15 31.617 15.167 43.4l0.817 0.7c6.65 7.233 9.567 16.45 7.817 25.667l-1.283 6.883h22.283l0.7-5.017c2.45-15.867-3.15-31.617-15.167-43.283v0z"></path>
</svg>
