<!-- Generated by IcoMoon.io -->
<svg version="1.1" xmlns="http://www.w3.org/2000/svg" width="280" height="280" viewBox="0 0 280 280">
<title>mt-important_devices</title>
<path fill="#fff" d="M268.333 128.45l-58.333-0.117c-6.417 0-11.667 5.25-11.667 11.667v105c0 6.417 5.25 11.667 11.667 11.667h58.333c6.417 0 11.667-5.25 11.667-11.667v-105c0-6.417-5.25-11.55-11.667-11.55v0zM268.333 233.333h-58.333v-81.667h58.333v81.667zM233.333 23.333h-210c-12.95 0-23.333 10.383-23.333 23.333v140c0 12.833 10.383 23.333 23.333 23.333h81.667v23.333h-23.333v23.333h93.333v-23.333h-23.333v-23.333h23.333v-23.333h-151.667v-140h210v58.333h23.333v-58.333c0-12.95-10.5-23.333-23.333-23.333v0zM139.65 105l-11.317-35-11.317 35h-35.35l28.817 20.533-10.967 33.95 28.817-21 28.817 21-10.967-33.95 28.817-20.533h-35.35z"></path>
</svg>
