<!-- Generated by IcoMoon.io -->
<svg version="1.1" xmlns="http://www.w3.org/2000/svg" width="280" height="280" viewBox="0 0 280 280">
<title>mt-local_car_wash</title>
<path fill="#fff" d="M198.333 58.331c9.683 0 17.5-7.817 17.5-17.5 0-11.667-17.5-31.5-17.5-31.5s-17.5 19.833-17.5 31.5c0 9.683 7.817 17.5 17.5 17.5v0zM140 58.331c9.683 0 17.5-7.817 17.5-17.5 0-11.667-17.5-31.5-17.5-31.5s-17.5 19.833-17.5 31.5c0 9.683 7.817 17.5 17.5 17.5v0zM81.667 58.331c9.683 0 17.5-7.817 17.5-17.5 0-11.667-17.5-31.5-17.5-31.5s-17.5 19.833-17.5 31.5c0 9.683 7.817 17.5 17.5 17.5v0zM220.733 93.448c-2.333-6.883-8.867-11.783-16.567-11.783h-128.333c-7.7 0-14.117 4.9-16.567 11.783l-24.267 69.883v93.333c0 6.417 5.25 11.667 11.667 11.667h11.667c6.417 0 11.667-5.25 11.667-11.667v-11.667h140v11.667c0 6.417 5.25 11.667 11.667 11.667h11.667c6.417 0 11.667-5.25 11.667-11.667v-93.333l-24.267-69.883zM75.833 209.998c-9.683 0-17.5-7.817-17.5-17.5s7.817-17.5 17.5-17.5c9.683 0 17.5 7.817 17.5 17.5s-7.817 17.5-17.5 17.5v0zM204.167 209.998c-9.683 0-17.5-7.817-17.5-17.5s7.817-17.5 17.5-17.5c9.683 0 17.5 7.817 17.5 17.5s-7.817 17.5-17.5 17.5v0zM58.333 151.664l17.5-52.5h128.333l17.5 52.5h-163.333z"></path>
</svg>
