<!-- Generated by IcoMoon.io -->
<svg version="1.1" xmlns="http://www.w3.org/2000/svg" width="280" height="280" viewBox="0 0 280 280">
<title>mt-monochrome_photos</title>
<path fill="#fff" d="M233.333 58.333h-37.333l-21-23.333h-70l-21 23.333h-37.333c-12.833 0-23.333 10.5-23.333 23.333v140c0 12.833 10.5 23.333 23.333 23.333h186.667c12.833 0 23.333-10.5 23.333-23.333v-140c0-12.833-10.5-23.333-23.333-23.333v0zM233.333 221.667h-93.333v-11.667c-32.667 0-58.333-25.667-58.333-58.333s25.667-58.333 58.333-58.333v-11.667h93.333v140zM198.333 151.667c0-32.667-25.667-58.333-58.333-58.333v21c21 0 37.333 16.333 37.333 37.333s-16.333 37.333-37.333 37.333v21c32.667 0 58.333-25.667 58.333-58.333v0zM102.667 151.667c0 21 16.333 37.333 37.333 37.333v-74.667c-21 0-37.333 16.333-37.333 37.333v0z"></path>
</svg>
