<!-- Generated by IcoMoon.io -->
<svg version="1.1" xmlns="http://www.w3.org/2000/svg" width="280" height="280" viewBox="0 0 280 280">
<title>mt-phonelink_setup</title>
<path fill="#fff" d="M137.665 145.833v-11.667l12.833-9.333c1.167-1.167 1.167-2.333 1.167-3.5l-11.667-19.833c-1.167-1.167-2.333-2.333-3.5-1.167l-15.167 4.667c-3.5-2.333-7-4.667-10.5-5.833l-2.333-15.167c0-1.167-1.167-2.333-3.5-2.333h-23.333c-1.167 0-2.333 1.167-3.5 2.333l-2.333 15.167c-3.5 1.167-7 3.5-10.5 5.833l-15.167-5.833c-1.167 0-2.333 0-3.5 1.167l-11.667 19.833c-1.167 1.167 0 2.333 1.167 3.5l12.833 9.333v11.667l-12.833 9.333c-1.167 2.333-1.167 3.5-1.167 4.667l11.667 19.833c1.167 1.167 2.333 2.333 3.5 1.167l16.333-4.667c3.5 2.333 7 4.667 10.5 5.833l2.333 15.167c-1.167 1.167 1.167 2.333 2.333 2.333h23.333c1.167 0 2.333-1.167 3.5-2.333l2.333-15.167c3.5-1.167 7-3.5 10.5-5.833l15.167 5.833c1.167 0 2.333 0 3.5-1.167l11.667-19.833c1.167-1.167 0-2.333-1.167-3.5l-12.833-10.5zM93.332 163.333c-12.833 0-23.333-10.5-23.333-23.333s10.5-23.333 23.333-23.333c12.833 0 23.333 10.5 23.333 23.333s-10.5 23.333-23.333 23.333v0zM221.665 11.667h-116.666c-12.833 0-23.333 10.5-23.333 23.333v35h23.333v-23.333h116.666v186.667h-116.666v-23.333h-23.333v35c0 12.833 10.5 23.333 23.333 23.333h116.666c12.833 0 23.333-10.5 23.333-23.333v-210c0-12.833-10.5-23.333-23.333-23.333v0z"></path>
</svg>
