<!-- Generated by IcoMoon.io -->
<svg version="1.1" xmlns="http://www.w3.org/2000/svg" width="280" height="280" viewBox="0 0 280 280">
<title>mt-pause_circle_outline</title>
<path fill="#fff" d="M105 186.667h23.333v-93.333h-23.333v93.333zM140 23.333c-64.4 0-116.667 52.267-116.667 116.667s52.267 116.667 116.667 116.667c64.4 0 116.667-52.267 116.667-116.667s-52.267-116.667-116.667-116.667v0zM140 233.333c-51.45 0-93.333-41.883-93.333-93.333s41.883-93.333 93.333-93.333c51.45 0 93.333 41.883 93.333 93.333s-41.883 93.333-93.333 93.333v0zM151.667 186.667h23.333v-93.333h-23.333v93.333z"></path>
</svg>
