<!-- Generated by IcoMoon.io -->
<svg version="1.1" xmlns="http://www.w3.org/2000/svg" width="280" height="280" viewBox="0 0 280 280">
<title>mt-party_mode</title>
<path fill="#fff" d="M233.333 46.667h-36.983l-21.35-23.333h-70l-21.35 23.333h-36.983c-12.833 0-23.333 10.5-23.333 23.333v140c0 12.833 10.5 23.333 23.333 23.333h186.667c12.833 0 23.333-10.5 23.333-23.333v-140c0-12.833-10.5-23.333-23.333-23.333v0zM140 81.667c19.017 0 35.7 9.217 46.433 23.333h-46.433c-19.367 0-35 15.633-35 35 0 4.083 0.817 8.050 2.1 11.667h-24.267c-0.7-3.733-1.167-7.7-1.167-11.667 0-32.2 26.133-58.333 58.333-58.333v0zM140 198.333c-19.017 0-35.7-9.217-46.433-23.333h46.433c19.367 0 35-15.633 35-35 0-4.083-0.817-8.050-2.1-11.667h24.267c0.817 3.733 1.167 7.7 1.167 11.667 0 32.2-26.133 58.333-58.333 58.333v0z"></path>
</svg>
