<!-- Generated by IcoMoon.io -->
<svg version="1.1" xmlns="http://www.w3.org/2000/svg" width="280" height="280" viewBox="0 0 280 280">
<title>mt-people_outline</title>
<path fill="#fff" d="M192.5 151.667c-14 0-35.817 3.967-52.5 11.667-16.683-7.817-38.5-11.667-52.5-11.667-25.317 0-75.833 12.6-75.833 37.917v32.083h256.667v-32.083c0-25.317-50.517-37.917-75.833-37.917v0zM145.833 204.167h-116.667v-14.583c0-6.3 29.867-20.417 58.333-20.417s58.333 14.117 58.333 20.417v14.583zM250.833 204.167h-87.5v-14.583c0-5.367-2.333-10.033-6.067-14.233 10.267-3.5 22.867-6.183 35.233-6.183 28.467 0 58.333 14.117 58.333 20.417v14.583zM87.5 140c22.517 0 40.833-18.317 40.833-40.833s-18.317-40.833-40.833-40.833c-22.517 0-40.833 18.317-40.833 40.833s18.317 40.833 40.833 40.833v0zM87.5 75.833c12.833 0 23.333 10.5 23.333 23.333s-10.5 23.333-23.333 23.333c-12.833 0-23.333-10.5-23.333-23.333s10.5-23.333 23.333-23.333v0zM192.5 140c22.517 0 40.833-18.317 40.833-40.833s-18.317-40.833-40.833-40.833c-22.517 0-40.833 18.317-40.833 40.833s18.317 40.833 40.833 40.833v0zM192.5 75.833c12.833 0 23.333 10.5 23.333 23.333s-10.5 23.333-23.333 23.333c-12.833 0-23.333-10.5-23.333-23.333s10.5-23.333 23.333-23.333v0z"></path>
</svg>
