<!-- Generated by IcoMoon.io -->
<svg version="1.1" xmlns="http://www.w3.org/2000/svg" width="280" height="280" viewBox="0 0 280 280">
<title>mt-public</title>
<path fill="#fff" d="M140 23.333c-64.4 0-116.667 52.267-116.667 116.667s52.267 116.667 116.667 116.667c64.4 0 116.667-52.267 116.667-116.667s-52.267-116.667-116.667-116.667v0zM128.333 232.517c-46.083-5.717-81.667-44.917-81.667-92.517 0-7.233 0.933-14.117 2.45-20.883l55.883 55.883v11.667c0 12.833 10.5 23.333 23.333 23.333v22.517zM208.833 202.883c-3.033-9.45-11.667-16.217-22.167-16.217h-11.667v-35c0-6.417-5.25-11.667-11.667-11.667h-70v-23.333h23.333c6.417 0 11.667-5.25 11.667-11.667v-23.333h23.333c12.833 0 23.333-10.5 23.333-23.333v-4.783c34.183 13.883 58.333 47.367 58.333 86.45 0 24.267-9.333 46.317-24.5 62.883v0z"></path>
</svg>
