<!-- Generated by IcoMoon.io -->
<svg version="1.1" xmlns="http://www.w3.org/2000/svg" width="280" height="280" viewBox="0 0 280 280">
<title>mt-rotate_90_degrees_ccw</title>
<path fill="#fff" d="M85.635 74.781l-75.6 75.717 75.717 75.6 75.716-75.6-75.833-75.717zM43.051 150.498l42.7-42.7 42.583 42.7-42.7 42.7-42.583-42.7zM225.868 77.464c-20.417-20.533-47.367-30.8-74.2-30.8v-37.8l-49.466 49.467 49.466 49.467v-37.8c20.883 0 41.767 7.933 57.75 23.917 31.85 31.85 31.85 83.65 0 115.5-15.983 15.983-36.867 23.917-57.75 23.917-11.317 0-22.633-2.45-33.133-7.117l-17.383 17.383c15.75 8.633 33.133 13.067 50.516 13.067 26.833 0 53.783-10.267 74.2-30.8 41.067-40.95 41.067-107.45 0-148.4v0z"></path>
</svg>
