<!-- Generated by IcoMoon.io -->
<svg version="1.1" xmlns="http://www.w3.org/2000/svg" width="280" height="280" viewBox="0 0 280 280">
<title>mt-settings_input_component</title>
<path fill="#fff" d="M58.333 23.333c0-6.417-5.25-11.667-11.667-11.667s-11.667 5.25-11.667 11.667v46.667h-23.333v70h70v-70h-23.333v-46.667zM105 186.667c0 15.167 9.8 28 23.333 32.9v48.767h23.333v-48.767c13.533-4.783 23.333-17.617 23.333-32.9v-23.333h-70v23.333zM11.667 186.667c0 15.167 9.8 28 23.333 32.9v48.767h23.333v-48.767c13.533-4.9 23.333-17.733 23.333-32.9v-23.333h-70v23.333zM245 70v-46.667c0-6.417-5.25-11.667-11.667-11.667s-11.667 5.25-11.667 11.667v46.667h-23.333v70h70v-70h-23.333zM151.667 23.333c0-6.417-5.25-11.667-11.667-11.667s-11.667 5.25-11.667 11.667v46.667h-23.333v70h70v-70h-23.333v-46.667zM198.333 186.667c0 15.167 9.8 28 23.333 32.9v48.767h23.333v-48.767c13.533-4.783 23.333-17.617 23.333-32.9v-23.333h-70v23.333z"></path>
</svg>
