<!-- Generated by IcoMoon.io -->
<svg version="1.1" xmlns="http://www.w3.org/2000/svg" width="280" height="280" viewBox="0 0 280 280">
<title>mt-smoking_rooms</title>
<path fill="#fff" d="M23.333 186.667h175v35h-175v-35zM239.167 186.667h17.5v35h-17.5v-35zM210 186.667h17.5v35h-17.5v-35zM219.917 90.183c7.233-7.117 11.667-16.917 11.667-27.767 0-21.583-17.5-39.083-39.083-39.083v17.5c11.9 0 21.583 9.683 21.583 21.583s-9.683 21.583-21.583 21.583v17.5c26.133 0 46.667 21.35 46.667 47.483v26.017h17.5v-26.133c0-25.9-14.933-48.3-36.75-58.683v0zM187.017 119h-17.85c-11.9 0-21.583-11.433-21.583-23.333s9.683-20.417 21.583-20.417v-17.5c-21.583 0-39.083 17.5-39.083 39.083s17.5 39.083 39.083 39.083h17.85c12.25 0 22.983 8.633 22.983 23.917v15.167h17.5v-19.133c0-21.117-18.667-36.867-40.483-36.867v0z"></path>
</svg>
