<!-- Generated by IcoMoon.io -->
<svg version="1.1" xmlns="http://www.w3.org/2000/svg" width="280" height="280" viewBox="0 0 280 280">
<title>mt-satellite</title>
<path fill="#fff" d="M221.667 35h-163.333c-12.833 0-23.333 10.5-23.333 23.333v163.333c0 12.833 10.5 23.333 23.333 23.333h163.333c12.833 0 23.333-10.5 23.333-23.333v-163.333c0-12.833-10.5-23.333-23.333-23.333v0zM58.333 58.217h35c0 19.367-15.633 35.117-35 35.117v-35.117zM58.333 140v-23.333c32.2 0 58.333-26.25 58.333-58.45h23.333c0 45.15-36.517 81.783-81.667 81.783v0zM58.333 210l40.833-52.5 29.167 35.117 40.833-52.617 52.5 70h-163.333z"></path>
</svg>
