<!-- Generated by IcoMoon.io -->
<svg version="1.1" xmlns="http://www.w3.org/2000/svg" width="280" height="280" viewBox="0 0 280 280">
<title>mt-select_all</title>
<path fill="#fff" d="M35 58.333h23.333v-23.333c-12.833 0-23.333 10.5-23.333 23.333v0zM35 151.667h23.333v-23.333h-23.333v23.333zM81.667 245h23.333v-23.333h-23.333v23.333zM35 105h23.333v-23.333h-23.333v23.333zM151.667 35h-23.333v23.333h23.333v-23.333zM221.667 35v23.333h23.333c0-12.833-10.5-23.333-23.333-23.333v0zM58.333 245v-23.333h-23.333c0 12.833 10.5 23.333 23.333 23.333v0zM35 198.333h23.333v-23.333h-23.333v23.333zM105 35h-23.333v23.333h23.333v-23.333zM128.333 245h23.333v-23.333h-23.333v23.333zM221.667 151.667h23.333v-23.333h-23.333v23.333zM221.667 245c12.833 0 23.333-10.5 23.333-23.333h-23.333v23.333zM221.667 105h23.333v-23.333h-23.333v23.333zM221.667 198.333h23.333v-23.333h-23.333v23.333zM175 245h23.333v-23.333h-23.333v23.333zM175 58.333h23.333v-23.333h-23.333v23.333zM81.667 198.333h116.667v-116.667h-116.667v116.667zM105 105h70v70h-70v-70z"></path>
</svg>
