<!-- Generated by IcoMoon.io -->
<svg version="1.1" xmlns="http://www.w3.org/2000/svg" width="280" height="280" viewBox="0 0 280 280">
<title>mt-style</title>
<path fill="#fff" d="M29.518 229.25l15.633 6.533v-105.35l-28.35 68.367c-4.783 11.9 0.933 25.55 12.717 30.45v0zM257.018 186.083l-57.867-139.65c-3.617-8.75-12.133-14.117-21.117-14.35-3.033 0-6.183 0.467-9.217 1.75l-85.983 35.583c-8.75 3.617-14.117 12.017-14.35 21-0.117 3.15 0.467 6.3 1.75 9.333l57.867 139.65c3.617 8.867 12.25 14.233 21.35 14.35 3.033 0 6.067-0.583 8.983-1.75l85.867-35.583c11.9-4.9 17.617-18.55 12.717-30.333v0zM91.935 102.083c-6.417 0-11.667-5.25-11.667-11.667s5.25-11.667 11.667-11.667c6.417 0 11.667 5.25 11.667 11.667s-5.25 11.667-11.667 11.667v0zM68.601 230.417c0 12.833 10.5 23.333 23.333 23.333h16.917l-40.25-97.3v73.967z"></path>
</svg>
