<!-- Generated by IcoMoon.io -->
<svg version="1.1" xmlns="http://www.w3.org/2000/svg" width="280" height="280" viewBox="0 0 280 280">
<title>mt-share</title>
<path fill="#fff" d="M210 187.6c-8.867 0-16.8 3.5-22.867 8.983l-83.183-48.417c0.583-2.683 1.050-5.367 1.050-8.167s-0.467-5.483-1.050-8.167l82.25-47.95c6.3 5.833 14.583 9.45 23.8 9.45 19.367 0 35-15.633 35-35s-15.633-35-35-35c-19.367 0-35 15.633-35 35 0 2.8 0.467 5.483 1.050 8.167l-82.25 47.95c-6.3-5.833-14.583-9.45-23.8-9.45-19.367 0-35 15.633-35 35s15.633 35 35 35c9.217 0 17.5-3.617 23.8-9.45l83.067 48.533c-0.583 2.45-0.933 5.017-0.933 7.583 0 18.783 15.283 34.067 34.067 34.067s34.067-15.283 34.067-34.067c0-18.783-15.283-34.067-34.067-34.067v0z"></path>
</svg>
