<!-- Generated by IcoMoon.io -->
<svg version="1.1" xmlns="http://www.w3.org/2000/svg" width="280" height="280" viewBox="0 0 280 280">
<title>mt-toll</title>
<path fill="#fff" d="M175 46.667c-51.567 0-93.333 41.767-93.333 93.333s41.767 93.333 93.333 93.333c51.567 0 93.333-41.767 93.333-93.333s-41.767-93.333-93.333-93.333v0zM175 210c-38.617 0-70-31.383-70-70s31.383-70 70-70c38.617 0 70 31.383 70 70s-31.383 70-70 70v0z"></path>
<path fill="#fff" d="M35 140c0-30.45 19.483-56.35 46.667-65.916v-24.383c-40.25 10.383-70 46.783-70 90.3s29.75 79.917 70 90.3v-24.383c-27.183-9.567-46.667-35.467-46.667-65.917v0z"></path>
</svg>
