<!-- Generated by IcoMoon.io -->
<svg version="1.1" xmlns="http://www.w3.org/2000/svg" width="280" height="280" viewBox="0 0 280 280">
<title>mt-track_changes</title>
<path fill="#fff" d="M222.483 57.517l-16.45 16.45c16.8 16.917 27.3 40.25 27.3 66.033 0 51.567-41.767 93.333-93.333 93.333s-93.333-41.767-93.333-93.333c0-47.6 35.583-86.8 81.667-92.517v23.567c-33.133 5.6-58.333 34.3-58.333 68.95 0 38.617 31.383 70 70 70s70-31.383 70-70c0-19.367-7.817-36.867-20.533-49.467l-16.45 16.45c8.4 8.517 13.65 20.183 13.65 33.017 0 25.783-20.883 46.667-46.667 46.667s-46.667-20.883-46.667-46.667c0-21.7 14.933-39.783 35-45.033v24.967c-7 4.083-11.667 11.433-11.667 20.067 0 12.833 10.5 23.333 23.333 23.333s23.333-10.5 23.333-23.333c0-8.633-4.667-16.1-11.667-20.067v-96.6h-11.667c-64.4 0-116.667 52.267-116.667 116.667s52.267 116.667 116.667 116.667c64.4 0 116.667-52.267 116.667-116.667 0-32.2-13.067-61.367-34.183-82.483v0z"></path>
</svg>
