<!-- Generated by IcoMoon.io -->
<svg version="1.1" xmlns="http://www.w3.org/2000/svg" width="280" height="280" viewBox="0 0 280 280">
<title>mt-videogame_asset</title>
<path fill="#fff" d="M245 70h-210c-12.833 0-23.333 10.5-23.333 23.333v93.333c0 12.833 10.5 23.333 23.333 23.333h210c12.833 0 23.333-10.5 23.333-23.333v-93.333c0-12.833-10.5-23.333-23.333-23.333v0zM128.333 151.667h-35v35h-23.333v-35h-35v-23.333h35v-35h23.333v35h35v23.333zM180.833 175c-9.683 0-17.5-7.817-17.5-17.5s7.817-17.5 17.5-17.5c9.683 0 17.5 7.817 17.5 17.5s-7.817 17.5-17.5 17.5v0zM227.5 140c-9.683 0-17.5-7.817-17.5-17.5s7.817-17.5 17.5-17.5c9.683 0 17.5 7.817 17.5 17.5s-7.817 17.5-17.5 17.5v0z"></path>
</svg>
