<!-- Generated by IcoMoon.io -->
<svg version="1.1" xmlns="http://www.w3.org/2000/svg" width="280" height="280" viewBox="0 0 280 280">
<title>mt-volume_off</title>
<path fill="#fff" d="M192.5 140c0-20.65-11.9-38.383-29.167-47.017v25.783l28.583 28.583c0.35-2.333 0.583-4.783 0.583-7.35v0zM221.667 140c0 10.967-2.333 21.233-6.3 30.8l17.617 17.617c7.7-14.467 12.017-30.917 12.017-48.417 0-49.933-34.883-91.7-81.667-102.317v24.033c33.717 10.033 58.333 41.3 58.333 78.283v0zM49.817 35l-14.817 14.817 55.183 55.183h-55.183v70h46.667l58.333 58.333v-78.517l49.583 49.583c-7.817 6.067-16.567 10.85-26.25 13.767v24.033c16.1-3.617 30.683-11.083 43.050-21.117l23.8 23.917 14.817-14.817-195.183-195.183zM140 46.667l-24.383 24.383 24.383 24.383v-48.767z"></path>
</svg>
