<!-- Generated by IcoMoon.io -->
<svg version="1.1" xmlns="http://www.w3.org/2000/svg" width="280" height="280" viewBox="0 0 280 280">
<title>mt-wallpaper</title>
<path fill="#fff" d="M46.667 46.667h81.667v-23.333h-81.667c-12.833 0-23.333 10.5-23.333 23.333v81.667h23.333v-81.667zM116.667 151.667l-46.667 58.333h140l-35-46.667-23.683 31.617-34.65-43.283zM198.333 99.167c0-9.683-7.817-17.5-17.5-17.5s-17.5 7.817-17.5 17.5c0 9.683 7.817 17.5 17.5 17.5s17.5-7.817 17.5-17.5v0zM233.333 23.333h-81.667v23.333h81.667v81.667h23.333v-81.667c0-12.833-10.5-23.333-23.333-23.333v0zM233.333 233.333h-81.667v23.333h81.667c12.833 0 23.333-10.5 23.333-23.333v-81.667h-23.333v81.667zM46.667 151.667h-23.333v81.667c0 12.833 10.5 23.333 23.333 23.333h81.667v-23.333h-81.667v-81.667z"></path>
</svg>
