<!-- Generated by IcoMoon.io -->
<svg version="1.1" xmlns="http://www.w3.org/2000/svg" width="280" height="280" viewBox="0 0 280 280">
<title>mt-wb_iridescent</title>
<path fill="#fff" d="M58.334 169.164h163.333v-70h-163.333v70zM128.333 6.414v34.416h23.333v-34.416h-23.333zM222.133 35.581l-20.883 20.883 16.45 16.45 21-20.883-16.567-16.45zM151.667 261.914v-34.417h-23.333v34.417h23.333zM238.583 216.298l-21-20.883-16.45 16.45 20.883 21 16.567-16.567zM41.417 52.031l20.883 20.883 16.45-16.45-20.883-20.883-16.45 16.45zM57.867 232.748l20.883-21-16.45-16.45-20.883 20.883 16.45 16.567z"></path>
</svg>
