<!-- Generated by IcoMoon.io -->
<svg version="1.1" xmlns="http://www.w3.org/2000/svg" width="280" height="280" viewBox="0 0 280 280">
<title>ul-align-center-justify</title>
<path fill="#fff" d="M245 175h-210c-6.443 0-11.667 5.223-11.667 11.667s5.223 11.667 11.667 11.667v0h210c6.443 0 11.667-5.223 11.667-11.667s-5.223-11.667-11.667-11.667v0zM35 58.333h210c6.443 0 11.667-5.223 11.667-11.667s-5.223-11.667-11.667-11.667v0h-210c-6.443 0-11.667 5.223-11.667 11.667s5.223 11.667 11.667 11.667v0zM198.333 221.667h-116.667c-6.443 0-11.667 5.223-11.667 11.667s5.223 11.667 11.667 11.667v0h116.667c6.443 0 11.667-5.223 11.667-11.667s-5.223-11.667-11.667-11.667v0zM245 81.667h-210c-6.443 0-11.667 5.223-11.667 11.667s5.223 11.667 11.667 11.667v0h210c6.443 0 11.667-5.223 11.667-11.667s-5.223-11.667-11.667-11.667v0zM245 128.333h-210c-6.443 0-11.667 5.223-11.667 11.667s5.223 11.667 11.667 11.667v0h210c6.443 0 11.667-5.223 11.667-11.667s-5.223-11.667-11.667-11.667v0z"></path>
</svg>
