<!-- Generated by IcoMoon.io -->
<svg version="1.1" xmlns="http://www.w3.org/2000/svg" width="280" height="280" viewBox="0 0 280 280">
<title>ul-adjust-half</title>
<path fill="#fff" d="M243.017 85.4v0c-9.699-17.888-23.277-32.548-39.679-43.239l-0.454-0.278c-17.837-11.631-39.671-18.55-63.12-18.55-64.433 0-116.667 52.233-116.667 116.667s52.233 116.667 116.667 116.667c0.083 0 0.167 0 0.25-0h3.37c62.935-1.915 113.225-53.393 113.225-116.616 0-19.998-5.032-38.82-13.897-55.271l0.305 0.62zM128.333 232.517c-45.973-6.296-81.014-45.314-81.014-92.517s35.040-86.221 80.528-92.462l0.486-0.055zM151.667 47.483c10.808 1.413 20.61 4.45 29.602 8.879l-0.552-0.246-29.050 50.283zM151.667 152.483l48.65-83.65c7.112 6.132 13.214 13.161 18.205 20.969l0.228 0.381-67.083 116.2zM165.083 229.25l65.217-112.583c1.883 6.989 2.987 15.022 3.033 23.306v0.028c-0.031 42.591-28.585 78.504-67.592 89.672l-0.658 0.161z"></path>
</svg>
