<!-- Generated by IcoMoon.io -->
<svg version="1.1" xmlns="http://www.w3.org/2000/svg" width="280" height="280" viewBox="0 0 280 280">
<title>ul-arrow-resize-diagonal</title>
<path fill="#fff" d="M255.733 30.567c-1.209-2.86-3.44-5.091-6.223-6.271l-0.077-0.029c-1.306-0.572-2.827-0.913-4.426-0.933h-70.007c-6.443 0-11.667 5.223-11.667 11.667s5.223 11.667 11.667 11.667v0h41.883l-170.217 170.217v-41.883c0-6.443-5.223-11.667-11.667-11.667s-11.667 5.223-11.667 11.667v0 70c0.020 1.606 0.361 3.127 0.962 4.509l-0.029-0.075c1.209 2.86 3.44 5.091 6.223 6.271l0.077 0.029c1.306 0.572 2.827 0.913 4.426 0.933h70.007c6.443 0 11.667-5.223 11.667-11.667s-5.223-11.667-11.667-11.667v0h-41.883l170.217-170.217v41.883c0 6.443 5.223 11.667 11.667 11.667s11.667-5.223 11.667-11.667v0-70c-0.020-1.606-0.361-3.127-0.963-4.509l0.029 0.075z"></path>
</svg>
