<!-- Generated by IcoMoon.io -->
<svg version="1.1" xmlns="http://www.w3.org/2000/svg" width="280" height="280" viewBox="0 0 280 280">
<title>ul-amazon</title>
<path fill="#fff" d="M12.133 204.4q1.167-1.867 3.733-0.233c35.875 21.27 79.078 33.839 125.217 33.839 0.604 0 1.207-0.002 1.809-0.007l-0.093 0.001c32.506-0.082 63.53-6.327 91.998-17.628l-1.698 0.594q1.167-0.467 3.383-1.4t3.15-1.4c0.574-0.319 1.26-0.507 1.989-0.507 1.46 0 2.743 0.753 3.484 1.891l0.010 0.016q1.983 2.8-1.283 5.133-4.2 3.033-10.733 7c-12.894 7.686-27.801 13.998-43.581 18.16l-1.219 0.273c-14.463 4.066-31.085 6.445-48.249 6.533l-0.051 0c-0.317 0.002-0.693 0.003-1.069 0.003-24.381 0-47.672-4.669-69.027-13.163l1.263 0.443c-22.411-8.861-41.671-20.964-58.264-35.963l0.164 0.146c-0.773-0.522-1.3-1.357-1.399-2.32l-0.001-0.014c0.013-0.527 0.186-1.011 0.472-1.407l-0.005 0.007zM82.367 137.9c-0.012-0.401-0.019-0.873-0.019-1.347 0-9.763 2.971-18.832 8.058-26.353l-0.106 0.166c5.412-7.65 12.776-13.588 21.375-17.148l0.325-0.119c9.050-3.728 19.551-6.444 30.506-7.653l0.527-0.047q6.3-0.7 20.533-1.867v-3.967c0.097-1.066 0.153-2.307 0.153-3.56 0-5.968-1.258-11.643-3.524-16.772l0.105 0.266c-3.223-4.3-8.308-7.053-14.035-7.053-0.48 0-0.956 0.019-1.427 0.057l0.062-0.004h-1.867c-5.040 0.372-9.603 2.154-13.369 4.949l0.069-0.049c-3.688 2.816-6.3 6.877-7.214 11.546l-0.020 0.121c-0.197 2.652-2.112 4.805-4.627 5.359l-0.039 0.007-26.833-3.267q-3.967-0.933-3.967-4.2c0.013-0.586 0.097-1.147 0.245-1.681l-0.011 0.048c1.928-12.915 9.139-23.846 19.324-30.699l0.16-0.101c10.306-6.585 22.767-10.688 36.148-11.196l0.135-0.004h5.833c1.058-0.068 2.293-0.106 3.538-0.106 14.516 0 27.808 5.245 38.082 13.944l-0.086-0.071c1.526 1.527 2.941 3.164 4.233 4.899l0.084 0.118c1.050 1.378 2.091 2.94 3.034 4.566l0.116 0.217c0.899 1.748 1.624 3.777 2.072 5.907l0.028 0.16q0.933 3.967 1.4 5.483c0.427 1.956 0.681 4.21 0.7 6.519v0.014q0.233 5.017 0.233 5.95v56.467c-0.001 0.118-0.002 0.257-0.002 0.396 0 3.825 0.641 7.499 1.823 10.922l-0.071-0.235c0.861 2.755 2.011 5.152 3.451 7.342l-0.067-0.109q1.633 2.217 5.367 7.117c0.788 1.032 1.299 2.315 1.399 3.711l0.001 0.022c-0.049 1.371-0.774 2.563-1.851 3.257l-0.016 0.010q-19.367 16.8-21 18.2c-1.046 0.751-2.353 1.201-3.765 1.201-1.097 0-2.131-0.272-3.037-0.752l0.035 0.017q-3.267-2.8-5.717-5.367t-3.5-3.733c-1.12-1.337-2.232-2.82-3.265-4.362l-0.119-0.188q-2.333-3.383-3.267-4.55c-6.659 8.020-15.339 14.143-25.265 17.611l-0.402 0.122c-5.413 1.493-11.629 2.35-18.045 2.35-0.547 0-1.092-0.006-1.636-0.019l0.081 0.001c-0.446 0.017-0.97 0.027-1.497 0.027-10.854 0-20.72-4.229-28.040-11.13l0.020 0.019c-7.197-7.446-11.631-17.601-11.631-28.792 0-0.912 0.030-1.817 0.088-2.714l-0.006 0.122zM122.5 133.233c-0.018 0.332-0.028 0.721-0.028 1.112 0 5.093 1.722 9.784 4.616 13.522l-0.038-0.051c2.789 3.367 6.97 5.495 11.649 5.495 0.211 0 0.422-0.004 0.631-0.013l-0.030 0.001c0.717-0.025 1.399-0.108 2.061-0.247l-0.078 0.014c0.505-0.112 1.105-0.195 1.717-0.232l0.033-0.002c6.735-1.865 12.155-6.447 15.105-12.46l0.062-0.14c1.634-2.789 2.956-6.016 3.798-9.433l0.052-0.251c0.693-2.486 1.191-5.393 1.393-8.381l0.007-0.136q0.117-3.267 0.117-10.733v-5.833c-0.783-0.026-1.703-0.040-2.627-0.040-6.343 0-12.525 0.695-18.472 2.012l0.565-0.105c-11.771 2.184-20.566 12.373-20.566 24.616 0 0.452 0.012 0.901 0.036 1.346l-0.003-0.062zM220.5 208.367c0.382-0.719 0.848-1.334 1.398-1.865l0.002-0.002c3.204-2.299 6.93-4.134 10.941-5.302l0.259-0.065c5.121-1.434 11.040-2.358 17.141-2.563l0.126-0.003c0.448-0.051 0.967-0.080 1.494-0.080 1.042 0 2.056 0.114 3.032 0.331l-0.093-0.017q10.5 0.933 12.6 3.5c0.598 1.064 0.95 2.336 0.95 3.69 0 0.179-0.006 0.357-0.018 0.534l0.001-0.024v1.633c-0.286 7.022-1.889 13.597-4.568 19.587l0.135-0.337c-2.725 7.093-6.951 13.082-12.317 17.807l-0.049 0.043c-0.555 0.519-1.282 0.861-2.087 0.932l-0.013 0.001c-0.342-0.004-0.663-0.089-0.944-0.239l0.011 0.005q-1.4-0.7-0.7-2.567c4.19-8.194 7.226-17.718 8.583-27.775l0.051-0.459c0.013-0.148 0.020-0.319 0.020-0.493 0-1.204-0.356-2.325-0.968-3.263l0.014 0.023q-2.333-2.8-13.067-2.8-3.967 0-9.333 0.467-5.833 0.7-10.733 1.4c-0.096 0.012-0.208 0.019-0.321 0.019-0.579 0-1.115-0.182-1.554-0.491l0.008 0.006c-0.186-0.141-0.305-0.361-0.305-0.61 0-0.117 0.027-0.229 0.074-0.328l-0.002 0.005c0.031-0.262 0.113-0.499 0.238-0.708l-0.005 0.008z"></path>
</svg>
