<!-- Generated by IcoMoon.io -->
<svg version="1.1" xmlns="http://www.w3.org/2000/svg" width="280" height="280" viewBox="0 0 280 280">
<title>ul-accessible-icon-alt</title>
<path fill="#fff" d="M186.667 81.667c12.887 0 23.333-10.447 23.333-23.333s-10.447-23.333-23.333-23.333c-12.887 0-23.333 10.447-23.333 23.333v0c0 12.887 10.447 23.333 23.333 23.333v0zM148.167 214.667c-8.613 11.197-22.016 18.342-37.087 18.342-25.773 0-46.667-20.893-46.667-46.667 0-23.837 17.871-43.499 40.946-46.319l0.225-0.022c5.906-0.669 10.454-5.637 10.454-11.667 0-6.482-5.255-11.737-11.737-11.737-0.452 0-0.898 0.025-1.337 0.075l0.054-0.005c-37.001 2.129-66.201 32.655-66.201 70 0 38.72 31.389 70.109 70.109 70.109 1.375 0 2.74-0.040 4.096-0.118l-0.188 0.009c22.822 0 43.094-10.922 55.872-27.824l0.128-0.176c1.457-1.926 2.333-4.361 2.333-7 0-6.443-5.223-11.667-11.667-11.667-3.804 0-7.182 1.82-9.312 4.637l-0.021 0.029zM227.5 233.333h-11.667v-58.333c0-6.443-5.223-11.667-11.667-11.667v0h-53.317l19.717-54.367s0-0.817 0-1.283v-2.333c0.027-0.314 0.043-0.68 0.043-1.050s-0.016-0.736-0.046-1.097l0.003 0.047c0.032-0.332 0.050-0.718 0.050-1.108s-0.018-0.776-0.053-1.157l0.004 0.049c-0.348-0.778-0.698-1.429-1.090-2.051l0.040 0.068c-0.371-0.666-0.796-1.241-1.286-1.753l0.003 0.003c-0.499-0.589-1.076-1.092-1.719-1.498l-0.031-0.018s0-0.7-0.933-0.933l-52.267-30.1h-1.4c-0.626-0.274-1.367-0.515-2.134-0.685l-0.082-0.015h-4.667c-0.881 0.185-1.661 0.467-2.385 0.841l0.052-0.025h-1.283l-31.383 18.317c-3.558 2.043-5.916 5.822-5.916 10.151 0 6.391 5.138 11.581 11.508 11.666h0.008c0.092 0.002 0.199 0.004 0.307 0.004 2.118 0 4.104-0.564 5.816-1.551l-0.057 0.030 26.017-15.167 37.8 21.933-22.050 60.783c-0.027 0.28-0.042 0.605-0.042 0.933s0.015 0.654 0.046 0.974l-0.003-0.041c-0.052 0.316-0.082 0.679-0.082 1.050s0.030 0.734 0.087 1.089l-0.005-0.039c0.25 1.722 0.576 3.221 0.994 4.68l-0.060-0.247 1.283 1.75c0.336 0.721 0.766 1.337 1.285 1.868l-0.001-0.001c0.474 0.398 1.011 0.748 1.587 1.029l0.046 0.021c0.645 0.5 1.371 0.966 2.137 1.363l0.079 0.037c1.18 0.442 2.543 0.698 3.966 0.7h58.334v58.333c0 6.443 5.223 11.667 11.667 11.667v0h23.333c6.443 0 11.667-5.223 11.667-11.667s-5.223-11.667-11.667-11.667v0z"></path>
</svg>
