<!-- Generated by IcoMoon.io -->
<svg version="1.1" xmlns="http://www.w3.org/2000/svg" width="280" height="280" viewBox="0 0 280 280">
<title>ul-bag</title>
<path fill="#fff" d="M221.667 70h-35v-11.667c0-12.887-10.447-23.333-23.333-23.333v0h-46.667c-12.887 0-23.333 10.447-23.333 23.333v0 11.667h-35c-19.33 0-35 15.67-35 35v0 105c0 19.33 15.67 35 35 35v0h163.333c19.33 0 35-15.67 35-35v0-105c0-19.33-15.67-35-35-35v0zM116.667 58.333h46.667v11.667h-46.667zM233.333 210c0 6.443-5.223 11.667-11.667 11.667v0h-163.333c-6.443 0-11.667-5.223-11.667-11.667v0-65.45l54.6 18.783c0.561 0.080 1.208 0.126 1.867 0.126s1.306-0.046 1.94-0.135l-0.073 0.008h70c1.34-0.025 2.621-0.237 3.832-0.609l-0.098 0.026 54.6-18.2zM233.333 119.933l-60.2 20.067h-66.267l-60.2-20.067v-14.933c0-6.443 5.223-11.667 11.667-11.667v0h163.333c6.443 0 11.667 5.223 11.667 11.667v0z"></path>
</svg>
