<!-- Generated by IcoMoon.io -->
<svg version="1.1" xmlns="http://www.w3.org/2000/svg" width="280" height="280" viewBox="0 0 280 280">
<title>ul-battery-empty</title>
<path fill="#fff" d="M198.333 81.667h-151.667c-12.887 0-23.333 10.447-23.333 23.333v0 70c0 12.887 10.447 23.333 23.333 23.333v0h151.667c12.887 0 23.333-10.447 23.333-23.333v0-70c0-12.887-10.447-23.333-23.333-23.333v0zM198.333 175h-151.667v-70h151.667zM245 116.667c-6.443 0-11.667 5.223-11.667 11.667v0 23.333c0 6.443 5.223 11.667 11.667 11.667s11.667-5.223 11.667-11.667v0-23.333c0-6.443-5.223-11.667-11.667-11.667v0z"></path>
</svg>
