<!-- Generated by IcoMoon.io -->
<svg version="1.1" xmlns="http://www.w3.org/2000/svg" width="280" height="280" viewBox="0 0 280 280">
<title>ul-brush-alt</title>
<path fill="#fff" d="M140 210c-6.443 0-11.667 5.223-11.667 11.667s5.223 11.667 11.667 11.667c6.443 0 11.667-5.223 11.667-11.667v0c0-6.443-5.223-11.667-11.667-11.667v0zM210 11.667h-140c-6.443 0-11.667 5.223-11.667 11.667v0 105c0 19.33 15.67 35 35 35v0h11.667v27.65c-7.244 8.183-11.667 19.009-11.667 30.867 0 25.773 20.893 46.667 46.667 46.667s46.667-20.893 46.667-46.667c0-11.858-4.423-22.684-11.709-30.916l0.043 0.049v-27.65h11.667c19.33 0 35-15.67 35-35v0-105c0-6.443-5.223-11.667-11.667-11.667v0zM140 245c-12.81-0.1-23.157-10.508-23.157-23.333 0-6.835 2.939-12.983 7.621-17.251l0.019-0.017c2.362-2.138 3.842-5.212 3.85-8.632v-32.435h23.333v32.433c0.008 3.422 1.488 6.496 3.84 8.624l0.010 0.009c4.701 4.284 7.64 10.432 7.64 17.267 0 12.824-10.346 23.233-23.147 23.333h-0.010zM198.333 128.333c0 6.443-5.223 11.667-11.667 11.667v0h-93.333c-6.443 0-11.667-5.223-11.667-11.667v0-11.667h116.667zM198.333 93.333h-116.667v-58.333h116.667z"></path>
</svg>
