<!-- Generated by IcoMoon.io -->
<svg version="1.1" xmlns="http://www.w3.org/2000/svg" width="280" height="280" viewBox="0 0 280 280">
<title>ul-bring-bottom</title>
<path fill="#fff" d="M245 163.333h-23.333c-6.443 0-11.667 5.223-11.667 11.667s5.223 11.667 11.667 11.667v0h11.667v46.667h-186.667v-46.667h81.667c6.443 0 11.667-5.223 11.667-11.667s-5.223-11.667-11.667-11.667v0h-11.667v-58.333c0-6.443-5.223-11.667-11.667-11.667v0h-70c-6.443 0-11.667 5.223-11.667 11.667v0 140c0 6.443 5.223 11.667 11.667 11.667v0h210c6.443 0 11.667-5.223 11.667-11.667v0-70c0-6.443-5.223-11.667-11.667-11.667v0zM46.667 116.667h46.667v46.667h-46.667zM148.283 78.167l15.050-15.050v135.217c0 6.443 5.223 11.667 11.667 11.667s11.667-5.223 11.667-11.667v0-135.217l15.050 15.050c2.108 2.149 5.038 3.486 8.281 3.5h0.003c0.020 0 0.044 0 0.068 0 3.205 0 6.108-1.292 8.217-3.384l-0.001 0.001c2.097-2.109 3.393-5.016 3.393-8.225s-1.296-6.116-3.393-8.226l-34.999-34.999c-2.114-2.131-5.045-3.451-8.283-3.451s-6.169 1.32-8.283 3.45l-35.001 35.001c-2.097 2.109-3.393 5.016-3.393 8.225s1.296 6.116 3.393 8.226l-0.001-0.001c2.109 2.097 5.016 3.393 8.226 3.393 3.268 0 6.221-1.343 8.339-3.508l0.002-0.002z"></path>
</svg>
