<!-- Generated by IcoMoon.io -->
<svg version="1.1" xmlns="http://www.w3.org/2000/svg" width="280" height="280" viewBox="0 0 280 280">
<title>ul-ban</title>
<path fill="#fff" d="M140 23.333c-64.433 0-116.667 52.233-116.667 116.667s52.233 116.667 116.667 116.667c64.433 0 116.667-52.233 116.667-116.667v0c0-64.433-52.233-116.667-116.667-116.667v0zM140 233.333c-51.547 0-93.333-41.787-93.333-93.333v0c0-0.034 0-0.074 0-0.115 0-21.62 7.425-41.506 19.865-57.246l-0.148 0.194 130.783 130.783c-15.546 12.291-35.432 19.717-57.052 19.717-0.040 0-0.081 0-0.121 0h0.006zM213.617 197.167l-130.783-130.783c15.546-12.291 35.432-19.717 57.052-19.717 0.040 0 0.081 0 0.121 0h-0.006c51.547 0 93.333 41.787 93.333 93.333v0c0 0.034 0 0.074 0 0.115 0 21.62-7.425 41.506-19.865 57.246l0.148-0.194z"></path>
</svg>
