<!-- Generated by IcoMoon.io -->
<svg version="1.1" xmlns="http://www.w3.org/2000/svg" width="280" height="280" viewBox="0 0 280 280">
<title>ul-book</title>
<path fill="#fff" d="M175 70h-70c-6.443 0-11.667 5.223-11.667 11.667v0 46.667c0 6.443 5.223 11.667 11.667 11.667v0h70c6.443 0 11.667-5.223 11.667-11.667v0-46.667c0-6.443-5.223-11.667-11.667-11.667v0zM163.333 116.667h-46.667v-23.333h46.667zM198.333 23.333h-140c-6.443 0-11.667 5.223-11.667 11.667v0 210c0 6.443 5.223 11.667 11.667 11.667v0h140c19.33 0 35-15.67 35-35v0-163.333c0-19.33-15.67-35-35-35v0zM210 221.667c0 6.443-5.223 11.667-11.667 11.667v0h-128.333v-186.667h128.333c6.443 0 11.667 5.223 11.667 11.667v0z"></path>
</svg>
