<!-- Generated by IcoMoon.io -->
<svg version="1.1" xmlns="http://www.w3.org/2000/svg" width="280" height="280" viewBox="0 0 280 280">
<title>ul-bug</title>
<path fill="#fff" d="M221.667 163.333h23.333c6.443 0 11.667-5.223 11.667-11.667s-5.223-11.667-11.667-11.667v0h-23.333v-11.667c-0.113-5.695-1-11.14-2.561-16.292l0.111 0.425c21.987-8.599 37.305-29.559 37.45-54.115v-0.018c0-6.443-5.223-11.667-11.667-11.667s-11.667 5.223-11.667 11.667v0c-0.022 15.733-10.421 29.031-24.719 33.418l-0.248 0.065c-5.725-7.29-12.996-13.104-21.342-17l-0.358-0.15c0.058-0.699 0.091-1.512 0.091-2.333s-0.033-1.635-0.097-2.439l0.007 0.106c0-25.773-20.893-46.667-46.667-46.667s-46.667 20.893-46.667 46.667v0c-0.058 0.699-0.091 1.512-0.091 2.333s0.033 1.635 0.097 2.439l-0.007-0.106c-8.888 3.987-16.321 9.811-22.076 17.032l-0.091 0.118c-14.32-4.605-24.5-17.807-24.5-33.388 0-0.034 0-0.067 0-0.101v0.005c0-6.443-5.223-11.667-11.667-11.667s-11.667 5.223-11.667 11.667v0c0.145 24.574 15.463 45.534 37.054 53.997l0.396 0.137c-1.45 4.727-2.337 10.171-2.449 15.806l-0.001 0.060v11.667h-23.333c-6.443 0-11.667 5.223-11.667 11.667s5.223 11.667 11.667 11.667v0h23.333v11.667c0.011 5.705 0.605 11.265 1.726 16.631l-0.093-0.531c-21.578 8.816-36.527 29.599-36.633 53.887v0.013c0 6.443 5.223 11.667 11.667 11.667s11.667-5.223 11.667-11.667v0c0.068-14.247 8.637-26.475 20.893-31.878l0.224-0.088c13.984 26.089 41.063 43.533 72.217 43.533s58.232-17.444 72.003-43.096l0.214-0.436c12.479 5.492 21.049 17.72 21.117 31.958v0.009c0 6.443 5.223 11.667 11.667 11.667s11.667-5.223 11.667-11.667v0c-0.106-24.301-15.055-45.084-36.244-53.759l-0.389-0.141c1.028-4.835 1.622-10.395 1.633-16.092v-0.008zM128.333 232.167c-26.817-5.618-46.667-29.068-46.667-57.155 0-0.004 0-0.008 0-0.013v0.001-46.667c0-19.33 15.67-35 35-35v0h11.667zM116.667 70c0-12.887 10.447-23.333 23.333-23.333s23.333 10.447 23.333 23.333v0zM198.333 175c0 0.004 0 0.008 0 0.012 0 28.087-19.85 51.537-46.287 57.088l-0.38 0.067v-138.833h11.667c19.33 0 35 15.67 35 35v0z"></path>
</svg>
