<!-- Generated by IcoMoon.io -->
<svg version="1.1" xmlns="http://www.w3.org/2000/svg" width="280" height="280" viewBox="0 0 280 280">
<title>ul-browser</title>
<path fill="#fff" d="M221.667 23.333h-116.667c-19.33 0-35 15.67-35 35v0 11.667h-11.667c-19.33 0-35 15.67-35 35v0 116.667c0 19.33 15.67 35 35 35v0h116.667c19.33 0 35-15.67 35-35v0-11.667h11.667c19.33 0 35-15.67 35-35v0-116.667c0-19.33-15.67-35-35-35v0zM186.667 221.667c0 6.443-5.223 11.667-11.667 11.667v0h-116.667c-6.443 0-11.667-5.223-11.667-11.667v0-81.667h140zM186.667 116.667h-140v-11.667c0-6.443 5.223-11.667 11.667-11.667v0h116.667c6.443 0 11.667 5.223 11.667 11.667v0zM233.333 175c0 6.443-5.223 11.667-11.667 11.667v0h-11.667v-81.667c-0.034-4.195-0.801-8.2-2.179-11.909l0.079 0.242h25.433zM233.333 70h-140v-11.667c0-6.443 5.223-11.667 11.667-11.667v0h116.667c6.443 0 11.667 5.223 11.667 11.667v0z"></path>
</svg>
