<!-- Generated by IcoMoon.io -->
<svg version="1.1" xmlns="http://www.w3.org/2000/svg" width="280" height="280" viewBox="0 0 280 280">
<title>ul-briefcase</title>
<path fill="#fff" d="M245 70h-46.667v-11.667c0-19.33-15.67-35-35-35v0h-46.667c-19.33 0-35 15.67-35 35v0 11.667h-46.667c-6.443 0-11.667 5.223-11.667 11.667v0 46.667c0.057 10.281 4.538 19.504 11.634 25.871l0.033 0.029v67.433c0 19.33 15.67 35 35 35v0h140c19.33 0 35-15.67 35-35v0-67.433c7.129-6.396 11.61-15.619 11.667-25.89v-46.677c0-6.443-5.223-11.667-11.667-11.667v0zM105 58.333c0-6.443 5.223-11.667 11.667-11.667v0h46.667c6.443 0 11.667 5.223 11.667 11.667v0 11.667h-70zM221.667 221.667c0 6.443-5.223 11.667-11.667 11.667v0h-140c-6.443 0-11.667-5.223-11.667-11.667v0-58.333h23.333v11.667c0 6.443 5.223 11.667 11.667 11.667s11.667-5.223 11.667-11.667v0-11.667h70v11.667c0 6.443 5.223 11.667 11.667 11.667s11.667-5.223 11.667-11.667v0-11.667h23.333zM233.333 128.333c0 6.443-5.223 11.667-11.667 11.667v0h-23.333v-11.667c0-6.443-5.223-11.667-11.667-11.667s-11.667 5.223-11.667 11.667v0 11.667h-70v-11.667c0-6.443-5.223-11.667-11.667-11.667s-11.667 5.223-11.667 11.667v0 11.667h-23.333c-6.443 0-11.667-5.223-11.667-11.667v0-35h186.667z"></path>
</svg>
