<!-- Generated by IcoMoon.io -->
<svg version="1.1" xmlns="http://www.w3.org/2000/svg" width="280" height="280" viewBox="0 0 280 280">
<title>ul-bath</title>
<path fill="#fff" d="M256.667 140h-198.333v-65.215c-0.001-0.067-0.001-0.145-0.001-0.224 0-8.73 4.856-16.326 12.014-20.235l0.12-0.060c3.204-1.77 7.025-2.811 11.088-2.811 0.81 0 1.611 0.041 2.4 0.122l-0.099-0.008c-1.302 3.812-2.054 8.204-2.054 12.771 0 11.196 4.518 21.337 11.829 28.7l12.371 12.371c2.111 2.112 5.027 3.418 8.249 3.418s6.138-1.306 8.249-3.418l41.244-41.244c2.112-2.111 3.418-5.027 3.418-8.249s-1.306-6.138-3.418-8.249l-12.373-12.373c-7.37-7.338-17.535-11.874-28.759-11.874-9.061 0-17.431 2.956-24.199 7.957l0.111-0.078c-5.023-2.020-10.847-3.192-16.945-3.192-25.725 0-46.579 20.854-46.579 46.579 0 0.034 0 0.069 0 0.103v-0.005 65.215h-11.667c-6.443 0-11.667 5.223-11.667 11.667s5.223 11.667 11.667 11.667v0h11.667v35c0.048 15.094 9.659 27.931 23.090 32.773l0.244 0.077v13.817c0 6.443 5.223 11.667 11.667 11.667s11.667-5.223 11.667-11.667v0-11.667h116.667v11.667c0 6.443 5.223 11.667 11.667 11.667s11.667-5.223 11.667-11.667v0-13.817c13.674-4.919 23.285-17.756 23.333-32.844v-35.006h11.667c6.443 0 11.667-5.223 11.667-11.667s-5.223-11.667-11.667-11.667v0zM110.127 51.794c3.169-3.161 7.543-5.115 12.373-5.115s9.204 1.955 12.373 5.116l4.124 4.124-24.746 24.746-4.125-4.124c-3.163-3.168-5.118-7.542-5.118-12.373s1.956-9.205 5.118-12.373l-0 0zM221.667 198.333c-0.004 6.442-5.225 11.662-11.666 11.667h-140.001c-6.442-0.004-11.662-5.225-11.667-11.666v-35.001h163.333z"></path>
</svg>
