<!-- Generated by IcoMoon.io -->
<svg version="1.1" xmlns="http://www.w3.org/2000/svg" width="280" height="280" viewBox="0 0 280 280">
<title>ul-comment-block</title>
<path fill="#fff" d="M221.667 163.333c-0.879-0.238-1.889-0.374-2.931-0.374-5.416 0-9.969 3.69-11.284 8.693l-0.018 0.081c-9.262 35.66-41.151 61.57-79.096 61.6h-65.22l7.467-7.35c2.097-2.109 3.393-5.016 3.393-8.225s-1.296-6.116-3.393-8.226l0.001 0.001c-14.848-14.79-24.035-35.253-24.035-57.863 0-37.891 25.805-69.755 60.8-78.976l0.569-0.127c5.083-1.342 8.77-5.899 8.77-11.317 0-6.454-5.232-11.686-11.686-11.686-1.036 0-2.041 0.135-2.998 0.388l0.081-0.018c-45.525 12.159-78.509 53.029-78.509 101.603 0 24.957 8.707 47.879 23.248 65.897l-0.156-0.2-19.95 19.483c-2.078 2.105-3.362 5-3.362 8.194 0 1.633 0.336 3.187 0.941 4.598l-0.029-0.076c1.785 4.263 5.912 7.209 10.73 7.233h93.337c0.020 0 0.044 0 0.068 0 48.661 0 89.592-33.102 101.501-78.017l0.165-0.733c0.294-0.976 0.464-2.097 0.464-3.258 0-5.448-3.735-10.024-8.784-11.308l-0.081-0.017zM239.633 40.367c-10.562-10.587-25.166-17.137-41.3-17.137-32.217 0-58.333 26.117-58.333 58.333s26.117 58.333 58.333 58.333c32.18 0 58.274-26.057 58.333-58.224v-0.006c0-0.031 0-0.068 0-0.104 0-16.082-6.508-30.645-17.035-41.197l0.001 0.001zM163.333 81.667c0-19.33 15.67-35 35-35v0c5.481 0.034 10.654 1.322 15.255 3.591l-0.205-0.091-46.667 46.667c-2.136-4.394-3.384-9.558-3.384-15.014 0-0.054 0-0.108 0-0.161v0.008zM223.067 106.4c-6.432 6.123-15.154 9.889-24.757 9.889-5.406 0-10.533-1.194-15.131-3.332l0.221 0.092 46.667-46.667c2.065 4.33 3.27 9.411 3.27 14.773 0 0.18-0.001 0.359-0.004 0.538l0-0.027c-0.009 9.661-3.931 18.405-10.266 24.733l-0 0z"></path>
</svg>
