<!-- Generated by IcoMoon.io -->
<svg version="1.1" xmlns="http://www.w3.org/2000/svg" width="280" height="280" viewBox="0 0 280 280">
<title>ul-camera-plus</title>
<path fill="#fff" d="M233.333 122.5c-6.443 0-11.667 5.223-11.667 11.667v0 81.667c0 6.443-5.223 11.667-11.667 11.667v0h-163.333c-6.443 0-11.667-5.223-11.667-11.667v0-93.333c0-6.443 5.223-11.667 11.667-11.667v0h23.333c0.182 0.010 0.394 0.016 0.608 0.016 5.113 0 9.458-3.289 11.034-7.867l0.025-0.082 6.3-19.133c1.605-4.652 5.946-7.933 11.053-7.933 0.011 0 0.021 0 0.032 0h64.282c6.443 0 11.667-5.223 11.667-11.667s-5.223-11.667-11.667-11.667v0h-64.867c-15.338 0.030-28.359 9.921-33.060 23.67l-0.073 0.246-3.733 11.667h-14.933c-19.33 0-35 15.67-35 35v0 93.333c0 19.33 15.67 35 35 35v0h163.333c19.33 0 35-15.67 35-35v0-81.667c0.009-0.174 0.014-0.378 0.014-0.583 0-6.443-5.223-11.667-11.667-11.667-0.005 0-0.010 0-0.015 0h0.001zM128.333 110.833c-25.773 0-46.667 20.893-46.667 46.667s20.893 46.667 46.667 46.667c25.773 0 46.667-20.893 46.667-46.667v0c0-25.773-20.893-46.667-46.667-46.667v0zM128.333 180.833c-12.887 0-23.333-10.447-23.333-23.333s10.447-23.333 23.333-23.333c12.887 0 23.333 10.447 23.333 23.333v0c0 12.887-10.447 23.333-23.333 23.333v0zM256.667 52.5h-11.667v-11.667c0-6.443-5.223-11.667-11.667-11.667s-11.667 5.223-11.667 11.667v0 11.667h-11.667c-6.443 0-11.667 5.223-11.667 11.667s5.223 11.667 11.667 11.667v0h11.667v11.667c0 6.443 5.223 11.667 11.667 11.667s11.667-5.223 11.667-11.667v0-11.667h11.667c6.443 0 11.667-5.223 11.667-11.667s-5.223-11.667-11.667-11.667v0z"></path>
</svg>
