<!-- Generated by IcoMoon.io -->
<svg version="1.1" xmlns="http://www.w3.org/2000/svg" width="280" height="280" viewBox="0 0 280 280">
<title>ul-cloud-redo</title>
<path fill="#fff" d="M175 145.833c-4.725 0.032-8.78 2.868-10.587 6.926l-0.030 0.074c-6.968-4.364-15.434-6.952-24.505-6.952-25.773 0-46.667 20.893-46.667 46.667s20.893 46.667 46.667 46.667c11.884 0 22.731-4.442 30.97-11.757l-0.048 0.042c2.661-2.156 4.348-5.424 4.348-9.086 0-6.443-5.223-11.667-11.667-11.667-3.139 0-5.989 1.24-8.086 3.256l0.004-0.004c-4.084 3.615-9.483 5.824-15.398 5.833h-0.002c-12.724-0.212-22.957-10.576-22.957-23.33 0-12.887 10.447-23.333 23.333-23.333 4.144 0 8.035 1.080 11.408 2.974l-0.117-0.061h-2.567c-6.443 0-11.667 5.223-11.667 11.667s5.223 11.667 11.667 11.667v0h25.9c6.443 0 11.667-5.223 11.667-11.667v0-26.25c0-6.443-5.223-11.667-11.667-11.667v0zM214.9 90.067c-12.908-29.127-41.566-49.078-74.883-49.078-41.387 0-75.584 30.787-80.938 70.709l-0.046 0.419c-20.602 5.143-35.623 23.488-35.623 45.341 0 20.227 12.868 37.448 30.865 43.923l0.325 0.102c1.114 0.356 2.396 0.568 3.726 0.583h0.008c0.561 0.094 1.207 0.148 1.867 0.148 6.525 0 11.815-5.29 11.815-11.815 0-5.866-4.275-10.734-9.88-11.657l-0.069-0.009c-8.841-3.258-15.092-11.478-15.399-21.197l-0.001-0.036c0-12.887 10.447-23.333 23.333-23.333v0c6.443 0 11.667-5.223 11.667-11.667v0c0.072-32.162 26.161-58.207 58.333-58.207 25.446 0 47.086 16.293 55.059 39.015l0.125 0.409c1.378 4.054 4.813 7.063 9.030 7.806l0.070 0.010c16.465 3.061 28.766 17.314 28.766 34.441 0 12.724-6.789 23.861-16.943 29.988l-0.157 0.088c-3.535 2.059-5.873 5.832-5.873 10.15 0 6.465 5.241 11.707 11.707 11.707 2.147 0 4.159-0.578 5.889-1.587l-0.056 0.030c17.494-10.289 29.050-29.020 29.050-50.451 0-0.023 0-0.046 0-0.070v0.004c-0.077-26.244-17.472-48.404-41.354-55.659l-0.413-0.108z"></path>
</svg>
