<!-- Generated by IcoMoon.io -->
<svg version="1.1" xmlns="http://www.w3.org/2000/svg" width="280" height="280" viewBox="0 0 280 280">
<title>ul-create-dashboard</title>
<path fill="#fff" d="M116.667 151.667h-70c-6.443 0-11.667 5.223-11.667 11.667v0 70c0 6.443 5.223 11.667 11.667 11.667v0h70c6.443 0 11.667-5.223 11.667-11.667v0-70c0-6.443-5.223-11.667-11.667-11.667v0zM105 221.667h-46.667v-46.667h46.667zM233.333 35h-70c-6.443 0-11.667 5.223-11.667 11.667v0 70c0 6.443 5.223 11.667 11.667 11.667v0h70c6.443 0 11.667-5.223 11.667-11.667v0-70c0-6.443-5.223-11.667-11.667-11.667v0zM221.667 105h-46.667v-46.667h46.667zM233.333 186.667h-23.333v-23.333c0-6.443-5.223-11.667-11.667-11.667s-11.667 5.223-11.667 11.667v0 23.333h-23.333c-6.443 0-11.667 5.223-11.667 11.667s5.223 11.667 11.667 11.667v0h23.333v23.333c0 6.443 5.223 11.667 11.667 11.667s11.667-5.223 11.667-11.667v0-23.333h23.333c6.443 0 11.667-5.223 11.667-11.667s-5.223-11.667-11.667-11.667v0zM116.667 35h-70c-6.443 0-11.667 5.223-11.667 11.667v0 70c0 6.443 5.223 11.667 11.667 11.667v0h70c6.443 0 11.667-5.223 11.667-11.667v0-70c0-6.443-5.223-11.667-11.667-11.667v0zM105 105h-46.667v-46.667h46.667z"></path>
</svg>
