<!-- Generated by IcoMoon.io -->
<svg version="1.1" xmlns="http://www.w3.org/2000/svg" width="280" height="280" viewBox="0 0 280 280">
<title>ul-chart-growth</title>
<path fill="#fff" d="M245 233.333h-11.667v-175c0-6.443-5.223-11.667-11.667-11.667s-11.667 5.223-11.667 11.667v0 175h-23.333v-128.333c0-6.443-5.223-11.667-11.667-11.667s-11.667 5.223-11.667 11.667v0 128.333h-23.333v-81.667c0-6.443-5.223-11.667-11.667-11.667s-11.667 5.223-11.667 11.667v0 81.667h-23.333v-35c0-6.443-5.223-11.667-11.667-11.667s-11.667 5.223-11.667 11.667v0 35h-23.333v-198.333c0-6.443-5.223-11.667-11.667-11.667s-11.667 5.223-11.667 11.667v0 210c0 6.443 5.223 11.667 11.667 11.667v0h210c6.443 0 11.667-5.223 11.667-11.667s-5.223-11.667-11.667-11.667v0z"></path>
</svg>
