<!-- Generated by IcoMoon.io -->
<svg version="1.1" xmlns="http://www.w3.org/2000/svg" width="280" height="280" viewBox="0 0 280 280">
<title>ul-chart-down</title>
<path fill="#fff" d="M245 128.333c-6.443 0-11.667 5.223-11.667 11.667v0 30.217l-73.383-73.5c-2.114-2.131-5.045-3.451-8.283-3.451s-6.169 1.32-8.283 3.45l-0.001 0.001-38.383 38.5-61.717-61.833c-2.12-2.12-5.048-3.431-8.283-3.431-6.47 0-11.714 5.245-11.714 11.714 0 3.235 1.311 6.164 3.431 8.283l70 70c2.114 2.131 5.045 3.451 8.283 3.451s6.169-1.32 8.283-3.45l0.001-0.001 38.383-38.5 65.217 65.217h-30.217c-6.443 0-11.667 5.223-11.667 11.667s5.223 11.667 11.667 11.667v0h58.333c1.606-0.020 3.127-0.361 4.509-0.963l-0.075 0.029c2.86-1.209 5.091-3.44 6.271-6.223l0.029-0.077c0.572-1.306 0.913-2.827 0.933-4.426v-58.341c0-6.443-5.223-11.667-11.667-11.667v0z"></path>
</svg>
