<!-- Generated by IcoMoon.io -->
<svg version="1.1" xmlns="http://www.w3.org/2000/svg" width="280" height="280" viewBox="0 0 280 280">
<title>ul-copy-landscape</title>
<path fill="#fff" d="M210 221.667h-140c-19.33 0-35-15.67-35-35v0-93.333c0-6.443-5.223-11.667-11.667-11.667s-11.667 5.223-11.667 11.667v0 93.333c0 32.217 26.117 58.333 58.333 58.333v0h140c6.443 0 11.667-5.223 11.667-11.667s-5.223-11.667-11.667-11.667v0zM268.333 115.967c-0.136-1.174-0.382-2.24-0.732-3.257l0.032 0.107v-1.050c-0.594-1.255-1.336-2.333-2.223-3.273l0.006 0.006-70-70c-0.934-0.88-2.011-1.622-3.191-2.184l-0.075-0.032h-1.050l-3.733-1.283h-94.033c-19.33 0-35 15.67-35 35v0 93.333c0 19.33 15.67 35 35 35v0h140c19.33 0 35-15.67 35-35v0-46.667s0 0 0-0.7zM198.333 74.783l30.217 30.217h-18.55c-6.443 0-11.667-5.223-11.667-11.667v0zM245 163.333c0 6.443-5.223 11.667-11.667 11.667v0h-140c-6.443 0-11.667-5.223-11.667-11.667v0-93.333c0-6.443 5.223-11.667 11.667-11.667v0h81.667v35c0 19.33 15.67 35 35 35v0h35z"></path>
</svg>
