<!-- Generated by IcoMoon.io -->
<svg version="1.1" xmlns="http://www.w3.org/2000/svg" width="280" height="280" viewBox="0 0 280 280">
<title>ul-cloud-share</title>
<path fill="#fff" d="M169.167 175c12.887 0 23.333-10.447 23.333-23.333s-10.447-23.333-23.333-23.333c-12.887 0-23.333 10.447-23.333 23.333v0l-22.167 10.15c-3.613-2.411-8.055-3.849-12.833-3.85h-0c-12.887 0-23.333 10.447-23.333 23.333s10.447 23.333 23.333 23.333v0c0.003 0 0.007 0 0.010 0 3.939 0 7.636-1.039 10.831-2.857l-0.108 0.057 24.5 11.667c1.392 11.679 11.238 20.649 23.178 20.649 12.887 0 23.333-10.447 23.333-23.333s-10.447-23.333-23.333-23.333c-5.211 0-10.024 1.708-13.907 4.596l0.062-0.044-20.417-9.333 22.283-10.267c3.108 1.637 6.791 2.598 10.699 2.598 0.422 0 0.842-0.011 1.259-0.033l-0.058 0.002zM214.9 84.233c-12.908-29.127-41.566-49.078-74.883-49.078-41.387 0-75.584 30.787-80.938 70.709l-0.046 0.419c-20.602 5.143-35.623 23.488-35.623 45.341 0 20.227 12.868 37.448 30.865 43.923l0.325 0.102c1.114 0.356 2.396 0.568 3.726 0.583h0.008c0.561 0.094 1.207 0.148 1.867 0.148 6.525 0 11.815-5.29 11.815-11.815 0-5.866-4.275-10.734-9.88-11.657l-0.069-0.009c-8.841-3.258-15.092-11.478-15.399-21.197l-0.001-0.036c0-12.887 10.447-23.333 23.333-23.333v0c6.443 0 11.667-5.223 11.667-11.667v0c0.072-32.162 26.161-58.207 58.333-58.207 25.446 0 47.086 16.293 55.059 39.015l0.125 0.409c1.378 4.054 4.813 7.063 9.030 7.806l0.070 0.010c16.465 3.061 28.766 17.314 28.766 34.441 0 12.724-6.789 23.861-16.943 29.988l-0.157 0.088c-3.535 2.059-5.873 5.832-5.873 10.15 0 6.465 5.241 11.707 11.707 11.707 2.147 0 4.159-0.578 5.889-1.587l-0.056 0.030c17.494-10.289 29.050-29.020 29.050-50.451 0-0.023 0-0.046 0-0.070v0.004c-0.077-26.244-17.472-48.404-41.354-55.659l-0.413-0.108z"></path>
</svg>
