<!-- Generated by IcoMoon.io -->
<svg version="1.1" xmlns="http://www.w3.org/2000/svg" width="280" height="280" viewBox="0 0 280 280">
<title>ul-corner-down-right</title>
<path fill="#fff" d="M228.783 186.667c-0.672-1.483-1.533-2.755-2.573-3.857l0.006 0.007-54.017-54.483c-2.027-1.744-4.684-2.805-7.589-2.805-6.443 0-11.667 5.223-11.667 11.667 0 2.905 1.062 5.562 2.818 7.604l-0.013-0.015 34.067 34.067h-81.667c-19.33 0-35-15.67-35-35v0-108.85c0-6.443-5.223-11.667-11.667-11.667s-11.667 5.223-11.667 11.667v0 109.317c0 32.217 26.117 58.333 58.333 58.333v0h81.667l-34.067 34.067c-2.131 2.114-3.451 5.045-3.451 8.283s1.32 6.169 3.45 8.283l0.001 0.001c2.108 2.091 5.011 3.384 8.216 3.384 0.024 0 0.047 0 0.071-0h-0.004c3.187-0.014 6.070-1.303 8.167-3.384l54.016-54.016c1.076-1.071 1.944-2.351 2.538-3.773l0.028-0.077c0.539-1.294 0.851-2.798 0.851-4.375s-0.313-3.081-0.88-4.452l0.028 0.077z"></path>
</svg>
