<!-- Generated by IcoMoon.io -->
<svg version="1.1" xmlns="http://www.w3.org/2000/svg" width="280" height="280" viewBox="0 0 280 280">
<title>ul-coffee</title>
<path fill="#fff" d="M105 198.333h46.667c32.217 0 58.333-26.117 58.333-58.333v0-11.667h11.667c19.33 0 35-15.67 35-35s-15.67-35-35-35v0h-11.667v-11.667c0-6.443-5.223-11.667-11.667-11.667v0h-140c-6.443 0-11.667 5.223-11.667 11.667v0 93.333c0 32.217 26.117 58.333 58.333 58.333v0zM210 81.667h11.667c6.443 0 11.667 5.223 11.667 11.667s-5.223 11.667-11.667 11.667v0h-11.667zM70 58.333h116.667v81.667c0 19.33-15.67 35-35 35v0h-46.667c-19.33 0-35-15.67-35-35v0zM245 221.667h-210c-6.443 0-11.667 5.223-11.667 11.667s5.223 11.667 11.667 11.667v0h210c6.443 0 11.667-5.223 11.667-11.667s-5.223-11.667-11.667-11.667v0z"></path>
</svg>
