<!-- Generated by IcoMoon.io -->
<svg version="1.1" xmlns="http://www.w3.org/2000/svg" width="280" height="280" viewBox="0 0 280 280">
<title>ul-cloud-data-connection</title>
<path fill="#fff" d="M245 215.833h-72.1c-3.608-9.934-11.299-17.625-20.99-21.156l-0.243-0.077v-37.1h36.983c0.494 0.017 1.075 0.027 1.659 0.027 27.9 0 50.517-22.617 50.517-50.517 0-23.092-15.494-42.565-36.653-48.59l-0.356-0.087c-11.253-24.499-35.577-41.205-63.803-41.205-35.211 0-64.349 25.997-69.269 59.844l-0.045 0.378c-17.336 4.977-29.808 20.69-29.808 39.317 0 22.531 18.248 40.8 40.771 40.833h46.67v37.1c-9.934 3.608-17.625 11.299-21.156 20.99l-0.077 0.243h-72.1c-6.443 0-11.667 5.223-11.667 11.667s5.223 11.667 11.667 11.667v0h72.1c5.026 13.566 17.854 23.059 32.9 23.059s27.874-9.493 32.821-22.817l0.079-0.242h72.1c6.443 0 11.667-5.223 11.667-11.667s-5.223-11.667-11.667-11.667v0zM81.667 134.167c-9.665 0-17.5-7.835-17.5-17.5s7.835-17.5 17.5-17.5v0c6.443 0 11.667-5.223 11.667-11.667v0c0-0.038-0-0.083-0-0.129 0-25.773 20.893-46.667 46.667-46.667 20.433 0 37.799 13.132 44.118 31.417l0.098 0.328c1.378 4.054 4.813 7.063 9.030 7.806l0.070 0.010c12.856 2.203 22.517 13.264 22.517 26.583 0 0.047 0 0.094-0 0.141v-0.007c-0.066 14.986-12.197 27.117-27.177 27.183h-0.006zM140 239.167c-6.443 0-11.667-5.223-11.667-11.667s5.223-11.667 11.667-11.667c6.443 0 11.667 5.223 11.667 11.667v0c0 6.443-5.223 11.667-11.667 11.667v0z"></path>
</svg>
