<!-- Generated by IcoMoon.io -->
<svg version="1.1" xmlns="http://www.w3.org/2000/svg" width="280" height="280" viewBox="0 0 280 280">
<title>ul-comment-shield</title>
<path fill="#fff" d="M253.167 33.367c-1.986-1.617-4.548-2.596-7.337-2.596-0.872 0-1.722 0.096-2.54 0.277l0.078-0.014c-2.137 0.464-4.592 0.73-7.109 0.73-7.517 0-14.481-2.37-20.184-6.403l0.11 0.074c-1.868-1.327-4.195-2.122-6.708-2.122s-4.84 0.794-6.745 2.146l0.036-0.024c-5.594 3.96-12.558 6.33-20.075 6.33-2.517 0-4.972-0.266-7.338-0.771l0.229 0.041c-0.74-0.167-1.59-0.263-2.463-0.263-2.79 0-5.351 0.979-7.359 2.613l0.021-0.017c-2.623 2.14-4.292 5.364-4.317 8.979v39.321c0.044 17.734 8.758 33.423 22.126 43.059l0.157 0.108 18.9 13.533c1.892 1.378 4.262 2.205 6.825 2.205s4.933-0.827 6.858-2.228l-0.033 0.023 18.9-13.533c13.525-9.743 22.239-25.433 22.283-43.16v-39.324c-0.025-3.619-1.693-6.843-4.296-8.967l-0.021-0.017zM234.15 81.667c-0.339 9.606-5.146 18.022-12.396 23.273l-0.087 0.060-11.667 8.633-12.717-8.633c-7.337-5.312-12.144-13.728-12.482-23.282l-0.001-0.052v-26.6c9.24-0.305 17.866-2.642 25.54-6.575l-0.34 0.158c7.159 3.711 15.575 6.041 24.496 6.413l0.12 0.004zM220.85 163.333c-0.847-0.22-1.819-0.346-2.821-0.346-5.406 0-9.952 3.676-11.277 8.665l-0.018 0.081c-9.267 35.681-41.188 61.6-79.163 61.6-0.019 0-0.038 0-0.057 0h-65.097l7.583-7.35c1.962-2.083 3.167-4.896 3.167-7.992s-1.205-5.909-3.172-7.998l0.005 0.006c-15.133-14.835-24.513-35.489-24.513-58.334 0-45.103 36.564-81.667 81.667-81.667 0.127 0 0.255 0 0.383 0.001h-0.020c6.443 0 11.667-5.223 11.667-11.667s-5.223-11.667-11.667-11.667v0c-57.841 0.196-104.655 47.131-104.655 104.999 0 24.898 8.666 47.772 23.146 65.77l-0.158-0.203-19.833 19.483c-2.131 2.114-3.451 5.045-3.451 8.284 0 6.426 5.196 11.639 11.615 11.666h93.336c0.020 0 0.044 0 0.068 0 48.661 0 89.592-33.102 101.501-78.017l0.165-0.733c0.294-0.976 0.464-2.097 0.464-3.258 0-5.448-3.735-10.024-8.784-11.308l-0.081-0.017z"></path>
</svg>
