<!-- Generated by IcoMoon.io -->
<svg version="1.1" xmlns="http://www.w3.org/2000/svg" width="280" height="280" viewBox="0 0 280 280">
<title>ul-code-branch</title>
<path fill="#fff" d="M198.333 70.7c-19.32 0.013-34.977 15.678-34.977 35 0 14.48 8.793 26.906 21.331 32.23l0.229 0.086c-3.613 8.499-11.89 14.35-21.535 14.35-0.017 0-0.034 0-0.051 0h-46.664c-8.624 0.037-16.675 2.462-23.534 6.647l0.201-0.114v-66.967c13.71-4.95 23.333-17.85 23.333-32.998 0-19.33-15.67-35-35-35s-35 15.67-35 35c0 15.148 9.623 28.048 23.090 32.921l0.244 0.077v97.533c-13.617 5-23.156 17.853-23.156 32.935 0 19.33 15.67 35 35 35s35-15.67 35-35c0-14.512-8.832-26.961-21.414-32.266l-0.23-0.086c3.604-8.478 11.849-14.321 21.463-14.35h46.671c22.298-0.005 40.941-15.647 45.559-36.557l0.057-0.31c13.923-4.833 23.74-17.84 23.74-33.139 0-19.104-15.305-34.633-34.323-34.994l-0.034-0.001zM81.667 47.367c6.443 0 11.667 5.223 11.667 11.667s-5.223 11.667-11.667 11.667c-6.443 0-11.667-5.223-11.667-11.667v0c0-6.443 5.223-11.667 11.667-11.667v0zM81.667 234.033c-6.443 0-11.667-5.223-11.667-11.667s5.223-11.667 11.667-11.667c6.443 0 11.667 5.223 11.667 11.667v0c0 6.443-5.223 11.667-11.667 11.667v0zM198.333 117.367c-6.443 0-11.667-5.223-11.667-11.667s5.223-11.667 11.667-11.667c6.443 0 11.667 5.223 11.667 11.667v0c0 6.443-5.223 11.667-11.667 11.667v0z"></path>
</svg>
