<!-- Generated by IcoMoon.io -->
<svg version="1.1" xmlns="http://www.w3.org/2000/svg" width="280" height="280" viewBox="0 0 280 280">
<title>ul-comment-slash</title>
<path fill="#fff" d="M118.883 61.017c6.284-1.704 13.499-2.684 20.943-2.684 0.061 0 0.122 0 0.183 0h-0.010c45.103 0 81.667 36.564 81.667 81.667v0c0 0.051 0 0.112 0 0.173 0 7.444-0.979 14.659-2.816 21.524l0.132-0.581c-0.266 0.929-0.419 1.995-0.419 3.097 0 5.347 3.597 9.854 8.503 11.233l0.082 0.020c0.455 0.055 0.982 0.086 1.517 0.086s1.061-0.031 1.58-0.092l-0.063 0.006c0.119 0.004 0.259 0.007 0.399 0.007 5.367 0 9.887-3.624 11.248-8.558l0.019-0.082c2.007-7.635 3.159-16.399 3.159-25.434 0-0.492-0.004-0.984-0.010-1.474l0.001 0.074c0-57.99-47.010-105-105-105v0c-0.129-0.001-0.281-0.001-0.433-0.001-9.512 0-18.726 1.278-27.479 3.671l0.729-0.17c-4.822 1.505-8.262 5.93-8.262 11.159 0 1.136 0.162 2.235 0.466 3.274l-0.021-0.083c1.436 4.932 5.915 8.474 11.221 8.474 0.944 0 1.862-0.112 2.741-0.324l-0.080 0.016zM253.283 236.717l-210-210c-2.12-2.12-5.048-3.431-8.283-3.431-6.47 0-11.714 5.245-11.714 11.714 0 3.235 1.311 6.164 3.431 8.283v0l31.617 31.15c-14.322 17.795-22.988 40.669-22.988 65.567s8.666 47.772 23.146 65.77l-0.158-0.203-19.95 19.483c-2.078 2.105-3.362 5-3.362 8.194 0 1.633 0.336 3.187 0.941 4.598l-0.029-0.076c1.785 4.263 5.912 7.209 10.73 7.233h93.337c24.939-0.106 47.807-8.889 65.76-23.485l-0.193 0.152 31.15 31.267c2.114 2.131 5.045 3.451 8.283 3.451s6.169-1.32 8.283-3.45l0.001-0.001c2.028-2.096 3.278-4.956 3.278-8.108s-1.25-6.012-3.281-8.112l0.003 0.003zM140 221.667h-65.217l7.467-7.35c2.097-2.109 3.393-5.016 3.393-8.225s-1.296-6.116-3.393-8.226l0.001 0.001c-14.778-14.779-23.919-35.195-23.919-57.747 0-18.479 6.137-35.524 16.485-49.209l-0.149 0.205 114.217 114.217c-13.448 10.174-30.447 16.306-48.877 16.333h-0.006z"></path>
</svg>
