<!-- Generated by IcoMoon.io -->
<svg version="1.1" xmlns="http://www.w3.org/2000/svg" width="280" height="280" viewBox="0 0 280 280">
<title>ul-cloud-rain</title>
<path fill="#fff" d="M146.533 147.817c-1.832-1.253-4.095-2.001-6.533-2.001s-4.701 0.748-6.573 2.027l0.040-0.026c-1.283 0.933-31.383 21.7-31.383 53.433 0 20.941 16.976 37.917 37.917 37.917s37.917-16.976 37.917-37.917v0c0-32.083-30.1-52.617-31.383-53.433zM140 215.833c-8.054 0-14.583-6.529-14.583-14.583v0c1.023-11.467 6.44-21.501 14.532-28.539l0.052-0.044c8.192 7.046 13.625 17.1 14.573 28.43l0.010 0.153c0 8.054-6.529 14.583-14.583 14.583v0zM214.9 90.067c-12.908-29.127-41.566-49.078-74.883-49.078-41.387 0-75.584 30.787-80.938 70.709l-0.046 0.419c-20.563 5.171-35.546 23.497-35.546 45.322 0 24.364 18.67 44.366 42.484 46.482l0.178 0.013h0.933c0.011 0 0.024 0 0.037 0 6.115 0 11.131-4.704 11.627-10.691l0.003-0.042c0.026-0.29 0.040-0.627 0.040-0.968 0-6.129-4.726-11.154-10.733-11.63l-0.041-0.002c-11.954-1.050-21.27-10.974-21.35-23.092v-0.008c0-12.887 10.447-23.333 23.333-23.333v0c6.443 0 11.667-5.223 11.667-11.667v0c0.072-32.162 26.161-58.207 58.333-58.207 25.446 0 47.086 16.293 55.059 39.015l0.125 0.409c1.378 4.054 4.813 7.063 9.030 7.806l0.070 0.010c16.434 3.087 28.703 17.325 28.703 34.429 0 15.279-9.791 28.272-23.441 33.046l-0.246 0.075c-4.495 1.69-7.635 5.952-7.635 10.948 0 6.443 5.223 11.667 11.667 11.667 1.14 0 2.242-0.164 3.284-0.469l-0.083 0.021c23.362-7.968 39.864-29.723 39.864-55.332 0-26.212-17.288-48.386-41.084-55.741l-0.413-0.11z"></path>
</svg>
