<!-- Generated by IcoMoon.io -->
<svg version="1.1" xmlns="http://www.w3.org/2000/svg" width="280" height="280" viewBox="0 0 280 280">
<title>ul-comment-alt-lock</title>
<path fill="#fff" d="M140 116.667v-23.333c-0.044-15.109-9.654-27.961-23.090-32.823l-0.244-0.077v-13.767c0-19.33-15.67-35-35-35s-35 15.67-35 35v0 13.767c-13.68 4.939-23.289 17.791-23.333 32.895v23.339c0 19.33 15.67 35 35 35v0h46.667c19.33 0 35-15.67 35-35v0zM70 46.667c0-6.443 5.223-11.667 11.667-11.667s11.667 5.223 11.667 11.667v0 11.667h-23.333zM46.667 116.667v-23.333c0-6.443 5.223-11.667 11.667-11.667v0h46.667c6.443 0 11.667 5.223 11.667 11.667v0 23.333c0 6.443-5.223 11.667-11.667 11.667v0h-46.667c-6.443 0-11.667-5.223-11.667-11.667v0zM221.667 81.667h-46.667c-6.443 0-11.667 5.223-11.667 11.667s5.223 11.667 11.667 11.667v0h46.667c6.443 0 11.667 5.223 11.667 11.667v0 113.4l-18.317-16.917c-2.071-1.943-4.861-3.139-7.931-3.15h-102.085c-6.443 0-11.667-5.223-11.667-11.667v0-11.667c0-6.443-5.223-11.667-11.667-11.667s-11.667 5.223-11.667 11.667v0 11.667c0 19.33 15.67 35 35 35v0h97.533l35 31.85c1.959 1.842 4.564 3.017 7.441 3.149l0.026 0.001c1.686-0.019 3.287-0.36 4.752-0.964l-0.085 0.031c4.155-1.847 7-5.937 7-10.693 0-0.014 0-0.028 0-0.043v0.002-140c0-19.33-15.67-35-35-35v0z"></path>
</svg>
