<!-- Generated by IcoMoon.io -->
<svg version="1.1" xmlns="http://www.w3.org/2000/svg" width="280" height="280" viewBox="0 0 280 280">
<title>ul-diary-alt</title>
<path fill="#fff" d="M198.333 23.333h-140c-6.443 0-11.667 5.223-11.667 11.667v0 210c0 6.443 5.223 11.667 11.667 11.667v0h140c19.33 0 35-15.67 35-35v0-163.333c0-19.33-15.67-35-35-35v0zM93.333 233.333h-23.333v-186.667h23.333zM210 221.667c0 6.443-5.223 11.667-11.667 11.667v0h-81.667v-186.667h81.667c6.443 0 11.667 5.223 11.667 11.667v0z"></path>
</svg>
