<!-- Generated by IcoMoon.io -->
<svg version="1.1" xmlns="http://www.w3.org/2000/svg" width="280" height="280" viewBox="0 0 280 280">
<title>ul-discord</title>
<path fill="#fff" d="M118.28 124.015h-0.002c-6.784 0.001-12.283 5.5-12.283 12.284s5.5 12.284 12.284 12.284c6.784 0 12.284-5.5 12.284-12.284s-5.499-12.283-12.283-12.284v0zM162.080 124.015c-0.338-0.030-0.731-0.048-1.129-0.048-7.383 0-13.368 5.985-13.368 13.368s5.985 13.368 13.368 13.368c7.383 0 13.368-5.985 13.368-13.368 0-0 0-0.001 0-0.001v0c0.007-0.163 0.012-0.354 0.012-0.546 0-6.873-5.423-12.479-12.224-12.773l-0.027-0.001zM220.399 23.335h-160.798c-13.594 0.033-24.601 11.061-24.601 24.659 0 0.022 0 0.043 0 0.065v-0.003 162.24c0 0.018 0 0.039 0 0.060 0 13.599 11.007 24.626 24.598 24.659h136.082l-6.36-22.2 15.36 14.28 14.521 13.44 25.8 22.8v-215.28c0-0.018 0-0.040 0-0.061 0-13.598-11.007-24.626-24.598-24.659h-0.003zM174.080 180.054v0.001s-4.321-5.16-7.921-9.72c8.942-2.154 16.457-7.248 21.651-14.182l0.071-0.098c-3.971 2.683-8.521 5.065-13.331 6.92l-0.469 0.159c-5.002 2.203-10.84 3.994-16.92 5.089l-0.48 0.072c-4.577 0.884-9.84 1.39-15.222 1.39-5.609 0-11.090-0.549-16.391-1.597l0.534 0.088c-6.755-1.339-12.664-3.121-18.319-5.401l0.678 0.241c-3.462-1.339-6.346-2.71-9.115-4.263l0.355 0.183c-0.36-0.241-0.719-0.36-1.080-0.6-0.187-0.094-0.346-0.214-0.479-0.358l-0.001-0.001c-2.159-1.2-3.361-2.040-3.361-2.040 5.082 6.893 12.337 11.925 20.741 14.103l0.259 0.057c-3.599 4.561-8.039 9.96-8.039 9.96-0.349 0.010-0.76 0.016-1.172 0.016-14.556 0-27.442-7.148-35.339-18.126l-0.089-0.129c0.422-25.59 6.761-49.604 17.701-70.862l-0.422 0.902c9.235-7.306 20.879-11.946 33.577-12.594l0.143-0.006 1.199 1.44c-12.14 3.064-22.724 8.505-31.705 15.835l0.146-0.115s2.64-1.44 7.080-3.48c7.935-3.719 17.143-6.386 26.82-7.519l0.422-0.040c0.603-0.132 1.305-0.218 2.023-0.24l0.018-0.001c3.939-0.541 8.491-0.851 13.115-0.851 3.919 0 7.787 0.222 11.59 0.654l-0.466-0.043c13.463 1.574 25.686 5.656 36.614 11.773l-0.494-0.254c-8.386-6.87-18.385-12.122-29.318-15.11l-0.56-0.13 1.679-1.919c12.841 0.654 24.485 5.293 33.844 12.695l-0.124-0.095c10.519 20.356 16.858 44.37 17.279 69.824l0.002 0.136c-8.060 11.111-21.001 18.254-35.611 18.254-0.391 0-0.78-0.005-1.169-0.015l0.057 0.001z"></path>
</svg>
