<!-- Generated by IcoMoon.io -->
<svg version="1.1" xmlns="http://www.w3.org/2000/svg" width="280" height="280" viewBox="0 0 280 280">
<title>ul-download-alt</title>
<path fill="#fff" d="M96.717 155.050c-2.131 2.114-3.451 5.045-3.451 8.283s1.32 6.169 3.45 8.283l35.001 35.001c2.114 2.131 5.045 3.451 8.283 3.451s6.169-1.32 8.283-3.45l35.001-35.001c2.12-2.12 3.431-5.048 3.431-8.283 0-6.47-5.245-11.714-11.714-11.714-3.235 0-6.164 1.311-8.283 3.431v0l-15.050 15.167v-135.217c0-6.443-5.223-11.667-11.667-11.667s-11.667 5.223-11.667 11.667v0 135.217l-15.050-15.167c-2.114-2.131-5.045-3.451-8.283-3.451s-6.169 1.32-8.283 3.45l-0.001 0.001zM210 105h-23.333c-6.443 0-11.667 5.223-11.667 11.667s5.223 11.667 11.667 11.667v0h23.333c6.443 0 11.667 5.223 11.667 11.667v0 81.667c0 6.443-5.223 11.667-11.667 11.667v0h-140c-6.443 0-11.667-5.223-11.667-11.667v0-81.667c0-6.443 5.223-11.667 11.667-11.667v0h23.333c6.443 0 11.667-5.223 11.667-11.667s-5.223-11.667-11.667-11.667v0h-23.333c-19.33 0-35 15.67-35 35v0 81.667c0 19.33 15.67 35 35 35v0h140c19.33 0 35-15.67 35-35v0-81.667c0-19.33-15.67-35-35-35v0z"></path>
</svg>
