<!-- Generated by IcoMoon.io -->
<svg version="1.1" xmlns="http://www.w3.org/2000/svg" width="280" height="280" viewBox="0 0 280 280">
<title>ul-dropbox</title>
<path fill="#fff" d="M252.117 137.783l-37.917-29.517 38.033-29.867c2.729-2.155 4.465-5.464 4.465-9.178 0-0.301-0.011-0.599-0.034-0.894l0.002 0.039c-0.398-3.959-2.61-7.329-5.781-9.303l-0.053-0.030-59.967-34.183c-1.646-0.943-3.618-1.499-5.72-1.499-2.955 0-5.654 1.099-7.709 2.91l0.013-0.011-37.45 32.667-37.45-32.667c-2.043-1.8-4.741-2.899-7.696-2.899-2.102 0-4.074 0.556-5.778 1.529l0.057-0.030-59.967 34.183c-3.224 2.005-5.435 5.375-5.829 9.281l-0.004 0.052c-0.020 0.256-0.031 0.554-0.031 0.855 0 3.714 1.736 7.023 4.44 9.16l0.025 0.019 38.033 29.867-37.917 29.050c-2.793 2.154-4.575 5.501-4.575 9.264 0 0.271 0.009 0.539 0.027 0.805l-0.002-0.036c0.278 3.996 2.529 7.412 5.778 9.303l0.056 0.030 39.783 23.333v28.817c0.018 4.181 2.233 7.842 5.55 9.888l0.050 0.029 59.383 36.517c1.673 0.983 3.686 1.563 5.833 1.563s4.16-0.581 5.888-1.593l-0.055 0.030 59.383-36.517c3.367-2.075 5.582-5.735 5.6-9.914v-28.936l39.783-22.75c3.304-1.921 5.556-5.337 5.831-9.297l0.002-0.037c0.034-0.336 0.054-0.727 0.054-1.122 0-3.566-1.6-6.758-4.121-8.898l-0.017-0.014zM186.667 49.233l37.683 21.467-29.75 23.333-35-21.467zM173.95 108.967l-33.95 23.333-33.95-23.333 33.95-20.883zM55.883 70.7l37.45-21.467 26.95 23.333-35 21.467zM55.883 145.25l29.167-22.4 35 24.267-25.9 20.183zM187.6 201.95l-47.6 29.4-47.717-29.4v-9.333c0.835 0.214 1.794 0.336 2.781 0.336 2.699 0 5.185-0.917 7.162-2.456l-0.026 0.020 37.8-29.167 37.8 29.167c1.944 1.521 4.422 2.441 7.115 2.45h0.002c0.42 0.054 0.906 0.084 1.4 0.084s0.98-0.031 1.457-0.090l-0.057 0.006zM185.85 166.95l-26.017-19.833 35-24.267 29.283 22.633z"></path>
</svg>
