<!-- Generated by IcoMoon.io -->
<svg version="1.1" xmlns="http://www.w3.org/2000/svg" width="280" height="280" viewBox="0 0 280 280">
<title>ul-dashboard</title>
<path fill="#fff" d="M222.693 57.803c-0.085-0.091-0.111-0.212-0.2-0.301s-0.212-0.116-0.304-0.202c-21.054-20.989-50.106-33.966-82.189-33.966s-61.134 12.977-82.191 33.969l0.003-0.003c-0.092 0.086-0.214 0.112-0.304 0.202s-0.115 0.21-0.2 0.301c-20.995 21.093-33.974 50.18-33.974 82.298 0 64.433 52.233 116.667 116.667 116.667s116.667-52.233 116.667-116.667c0-32.119-12.979-61.206-33.978-82.303l0.004 0.005zM140 233.333c-29.354-0.010-55.533-13.596-72.601-34.819l-0.141-0.181h46.845c6.365 7.171 15.606 11.667 25.897 11.667s19.532-4.496 25.866-11.631l0.031-0.036h46.845c-17.209 21.404-43.388 34.99-72.741 35h-0.002zM128.333 175c0-6.443 5.223-11.667 11.667-11.667s11.667 5.223 11.667 11.667c0 6.443-5.223 11.667-11.667 11.667v0c-6.441-0.007-11.66-5.226-11.667-11.666v-0.001zM226.452 175.024l-0.12-0.024h-51.332c-0.048-15.094-9.659-27.931-23.090-32.773l-0.244-0.077v-37.15c0-6.443-5.223-11.667-11.667-11.667s-11.667 5.223-11.667 11.667v0 37.15c-13.674 4.919-23.285 17.756-23.333 32.844v0.006l-51.452 0.024c-2.839-6.788-4.971-14.674-6.022-22.898l-0.048-0.46h10.856c6.443 0 11.667-5.223 11.667-11.667s-5.223-11.667-11.667-11.667v0h-10.856c2.242-17.391 8.997-32.886 19.041-45.676l-0.152 0.2 7.638 7.638c2.111 2.111 5.027 3.417 8.249 3.417 6.443 0 11.665-5.223 11.665-11.665 0-3.221-1.306-6.138-3.417-8.249l-7.638-7.638c12.588-9.889 28.080-16.642 45.004-18.835l0.465-0.049v10.856c0 6.443 5.223 11.667 11.667 11.667s11.667-5.223 11.667-11.667v0-10.856c17.388 2.242 32.881 8.996 45.67 19.036l-0.201-0.152-7.638 7.638c-2.111 2.111-3.417 5.027-3.417 8.249 0 6.443 5.223 11.665 11.665 11.665 3.221 0 6.138-1.306 8.249-3.417l7.638-7.638c9.892 12.589 16.647 28.084 18.84 45.010l0.049 0.465h-10.856c-6.443 0-11.667 5.223-11.667 11.667s5.223 11.667 11.667 11.667v0h10.856c-1.1 8.684-3.231 16.57-6.296 23.972l0.225-0.614z"></path>
</svg>
