<!-- Generated by IcoMoon.io -->
<svg version="1.1" xmlns="http://www.w3.org/2000/svg" width="280" height="280" viewBox="0 0 280 280">
<title>ul-eye-slash</title>
<path fill="#fff" d="M127.633 70.933c3.682-0.594 7.926-0.934 12.25-0.934 0.041 0 0.082 0 0.123 0h-0.006c37.1 0 71.983 26.717 92.283 70-3.577 7.555-7.075 13.824-10.927 19.846l0.427-0.713c-1.171 1.788-1.867 3.978-1.867 6.331 0 0.030 0 0.060 0 0.091v-0.005c0.067 6.392 5.264 11.548 11.666 11.548 4.247 0 7.964-2.269 10.005-5.662l0.029-0.053c4.942-7.624 9.665-16.439 13.657-25.643l0.46-1.19c0.6-1.358 0.949-2.943 0.949-4.608s-0.349-3.25-0.978-4.683l0.029 0.075c-23.567-54.717-67.9-88.667-115.733-88.667-0.136-0.001-0.296-0.001-0.457-0.001-5.611 0-11.103 0.51-16.432 1.486l0.556-0.084c-5.628 0.983-9.851 5.832-9.851 11.667 0 6.536 5.298 11.834 11.834 11.834 0.701 0 1.387-0.061 2.054-0.178l-0.071 0.010zM43.283 26.717c-2.12-2.12-5.048-3.431-8.283-3.431-6.47 0-11.714 5.245-11.714 11.714 0 3.235 1.311 6.164 3.431 8.283v0l36.167 36.050c-16.122 15.535-29.16 34.144-38.19 54.899l-0.427 1.101c-0.616 1.374-0.974 2.979-0.974 4.667s0.358 3.292 1.004 4.741l-0.030-0.074c23.567 54.717 67.9 88.667 115.733 88.667 21.965-0.157 42.337-6.844 59.307-18.213l-0.39 0.246 37.8 37.917c2.114 2.131 5.045 3.451 8.283 3.451s6.169-1.32 8.283-3.45l0.001-0.001c2.131-2.114 3.451-5.045 3.451-8.283s-1.32-6.169-3.45-8.283l-0.001-0.001zM117.483 133.933l28.583 28.583c-1.744 0.519-3.747 0.818-5.821 0.818-0.086 0-0.173-0.001-0.259-0.002h0.013c-12.887 0-23.333-10.447-23.333-23.333v0c-0.001-0.073-0.001-0.159-0.001-0.246 0-2.073 0.299-4.077 0.856-5.97l-0.038 0.149zM140 210c-37.1 0-71.983-26.717-92.167-70 7.92-17.237 18.52-31.907 31.437-44.158l0.063-0.059 20.65 20.883c-3.613 6.472-5.741 14.2-5.741 22.424 0 25.773 20.893 46.667 46.667 46.667 8.224 0 15.952-2.127 22.662-5.862l-0.238 0.121 18.55 18.317c-11.99 7.174-26.414 11.485-41.832 11.666l-0.051 0.001z"></path>
</svg>
