<!-- Generated by IcoMoon.io -->
<svg version="1.1" xmlns="http://www.w3.org/2000/svg" width="280" height="280" viewBox="0 0 280 280">
<title>ul-envelope-block</title>
<path fill="#fff" d="M204.167 154.7c0.143 0.001 0.312 0.002 0.481 0.002 32.217 0 58.333-26.117 58.333-58.333s-26.117-58.333-58.333-58.333c-32.217 0-58.333 26.117-58.333 58.333 0 16.075 6.502 30.632 17.020 41.183l-0.001-0.001c10.452 10.485 24.867 17.014 40.808 17.15l0.026 0zM228.9 121.1c-6.324 6.275-15.034 10.152-24.649 10.152-5.457 0-10.623-1.249-15.226-3.476l0.209 0.091 46.667-46.667c2.137 4.395 3.386 9.56 3.386 15.018 0 9.732-3.972 18.536-10.383 24.879l-0.003 0.003zM179.433 71.633c6.328-6.336 15.072-10.258 24.732-10.267h0.002c5.442 0.052 10.571 1.338 15.138 3.591l-0.205-0.091-46.667 46.667c-2.137-4.395-3.386-9.56-3.386-15.018 0-9.732 3.972-18.536 10.383-24.879l0.003-0.003zM239.167 166.367c-6.443 0-11.667 5.223-11.667 11.667v0 46.667c0 6.443-5.223 11.667-11.667 11.667v0h-163.333c-6.443 0-11.667-5.223-11.667-11.667v0-111.883l68.6 68.6c6.301 6.309 14.998 10.225 24.609 10.267h0.008c0.027 0 0.059 0 0.091 0 9.845 0 18.741-4.065 25.101-10.609l0.008-0.008c2.028-2.096 3.278-4.956 3.278-8.108s-1.25-6.012-3.281-8.112l0.003 0.003c-2.12-2.167-5.074-3.51-8.342-3.51s-6.222 1.343-8.34 3.508l-0.002 0.002c-2.103 2.062-4.986 3.335-8.167 3.335s-6.064-1.273-8.169-3.337l0.002 0.002-68.95-68.483h53.55c6.443 0 11.667-5.223 11.667-11.667s-5.223-11.667-11.667-11.667v0h-58.333c-19.33 0-35 15.67-35 35v0 116.667c0 19.33 15.67 35 35 35v0h163.333c19.33 0 35-15.67 35-35v0-46.667c0-6.443-5.223-11.667-11.667-11.667v0z"></path>
</svg>
