<!-- Generated by IcoMoon.io -->
<svg version="1.1" xmlns="http://www.w3.org/2000/svg" width="280" height="280" viewBox="0 0 280 280">
<title>ul-envelope-question</title>
<path fill="#fff" d="M195.65 62.65c1.656 0.957 3.642 1.521 5.761 1.521 4.297 0 8.052-2.323 10.076-5.783l0.030-0.055c2.055-3.512 5.808-5.834 10.104-5.834 0.016 0 0.033 0 0.049 0h-0.002c6.443 0 11.667 5.223 11.667 11.667s-5.223 11.667-11.667 11.667v0c-6.443 0-11.667 5.223-11.667 11.667s5.223 11.667 11.667 11.667v0c19.32-0.013 34.978-15.678 34.978-35 0-19.33-15.67-35-35-35-12.887 0-24.147 6.964-30.221 17.335l-0.089 0.165c-0.988 1.677-1.572 3.694-1.572 5.848 0 4.318 2.346 8.088 5.832 10.105l0.056 0.030zM245 157.5c-6.443 0-11.667 5.223-11.667 11.667v0 46.667c0 6.443-5.223 11.667-11.667 11.667v0h-163.333c-6.443 0-11.667-5.223-11.667-11.667v0-111.883l68.6 68.717c6.332 6.325 15.076 10.236 24.733 10.236s18.401-3.911 24.734-10.236l19.133-19.133c2.12-2.12 3.431-5.048 3.431-8.283 0-6.47-5.245-11.714-11.714-11.714-3.235 0-6.164 1.311-8.283 3.431l-19.133 19.133c-2.103 2.062-4.986 3.335-8.167 3.335s-6.064-1.273-8.169-3.337l0.002 0.002-68.717-68.6h88.55c6.443 0 11.667-5.223 11.667-11.667s-5.223-11.667-11.667-11.667v0h-93.333c-19.33 0-35 15.67-35 35v0 116.667c0 19.33 15.67 35 35 35v0h163.333c19.33 0 35-15.67 35-35v0-46.667c0-6.443-5.223-11.667-11.667-11.667v0zM213.383 114.217c-2.131 2.114-3.451 5.045-3.451 8.283s1.32 6.169 3.45 8.283l0.001 0.001 1.75 1.4c0.605 0.416 1.299 0.771 2.038 1.031l0.062 0.019c0.607 0.316 1.312 0.56 2.055 0.693l0.045 0.007h2.333c0.020 0 0.044 0 0.068 0 6.443 0 11.667-5.223 11.667-11.667 0-3.239-1.32-6.169-3.451-8.283l-0.001-0.001c-2.103-2.063-4.986-3.336-8.168-3.336-3.297 0-6.274 1.367-8.396 3.566l-0.003 0.004z"></path>
</svg>
