<!-- Generated by IcoMoon.io -->
<svg version="1.1" xmlns="http://www.w3.org/2000/svg" width="280" height="280" viewBox="0 0 280 280">
<title>ul-envelope-heart</title>
<path fill="#fff" d="M239.167 151.667c-6.443 0-11.667 5.223-11.667 11.667v0 46.667c0 6.443-5.223 11.667-11.667 11.667v0h-163.333c-6.443 0-11.667-5.223-11.667-11.667v0-111.883l68.6 68.717c6.316 6.266 15.013 10.141 24.615 10.15h0.002c0.026 0 0.057 0 0.088 0 9.788 0 18.638-4.018 24.99-10.495l0.005-0.005 10.383-10.267c1.344-1.876 2.15-4.218 2.15-6.748 0-6.443-5.223-11.667-11.667-11.667-2.56 0-4.927 0.824-6.85 2.222l0.034-0.023-10.85 10.617c-2.103 2.062-4.986 3.335-8.167 3.335s-6.064-1.273-8.169-3.337l0.002 0.002-68.717-68.95h53.55c6.443 0 11.667-5.223 11.667-11.667s-5.223-11.667-11.667-11.667v0h-58.333c-19.33 0-35 15.67-35 35v0 116.667c0 19.33 15.67 35 35 35v0h163.333c19.33 0 35-15.67 35-35v0-46.667c0-6.443-5.223-11.667-11.667-11.667v0zM251.417 46.667c-6.976-6.733-16.486-10.881-26.964-10.881-6.701 0-13.005 1.696-18.507 4.683l0.205-0.102c-5.272-2.954-11.569-4.693-18.272-4.693-20.941 0-37.917 16.976-37.917 37.917 0 10.379 4.17 19.784 10.926 26.631l-0.004-0.004 37.45 36.4c2.154 2.057 5.065 3.337 8.274 3.383h0.009c0.020 0 0.044 0 0.068 0 3.205 0 6.108-1.292 8.217-3.384l36.982-36.982c6.503-6.812 10.504-16.060 10.504-26.243 0-10.419-4.189-19.858-10.975-26.728l0.004 0.004zM234.967 83.067l-28.817 28.817-28.7-28.817c-2.598-2.641-4.202-6.266-4.202-10.267 0-8.087 6.556-14.643 14.643-14.643 4.087 0 7.783 1.675 10.44 4.375l0.002 0.002c2.114 2.131 5.045 3.451 8.283 3.451s6.169-1.32 8.283-3.45l0.001-0.001c2.67-2.532 6.287-4.089 10.267-4.089s7.597 1.557 10.273 4.095l-0.007-0.006c2.448 2.619 3.951 6.148 3.951 10.028 0 4.115-1.691 7.835-4.415 10.503l-0.002 0.002z"></path>
</svg>
