<!-- Generated by IcoMoon.io -->
<svg version="1.1" xmlns="http://www.w3.org/2000/svg" width="280" height="280" viewBox="0 0 280 280">
<title>ul-folder-exclamation</title>
<path fill="#fff" d="M150.733 188.067c-0.279-0.801-0.634-1.495-1.070-2.13l0.020 0.030c-0.463-0.654-0.923-1.224-1.414-1.765l0.014 0.015-1.75-1.4-2.1-1.050c-0.643-0.336-1.39-0.582-2.179-0.696l-0.037-0.004c-0.689-0.144-1.48-0.227-2.291-0.227-3.202 0-6.102 1.29-8.21 3.378l0.001-0.001-1.4 1.75c-0.416 0.605-0.771 1.299-1.031 2.038l-0.019 0.062c-0.316 0.607-0.56 1.312-0.693 2.055l-0.007 0.045c-0.027 0.349-0.043 0.756-0.043 1.167s0.016 0.818 0.046 1.22l-0.003-0.054c0.020 1.606 0.361 3.127 0.963 4.509l-0.029-0.075c0.628 1.483 1.453 2.756 2.46 3.861l-0.010-0.011c2.114 2.128 5.042 3.444 8.277 3.444 1.601 0 3.127-0.323 4.517-0.906l-0.077 0.029c1.47-0.722 2.736-1.577 3.868-2.582l-0.018 0.015c0.989-1.114 1.845-2.38 2.522-3.75l0.045-0.1c0.384-1.107 0.606-2.383 0.606-3.711 0-0.254-0.008-0.507-0.024-0.757l0.002 0.034c0.027-0.349 0.043-0.756 0.043-1.167s-0.016-0.818-0.046-1.22l0.003 0.054c-0.219-0.798-0.538-1.497-0.951-2.129l0.017 0.029zM140 122.5c-6.443 0-11.667 5.223-11.667 11.667v0 23.333c0 6.443 5.223 11.667 11.667 11.667s11.667-5.223 11.667-11.667v0-23.333c0-6.443-5.223-11.667-11.667-11.667v0zM221.667 64.167h-73.267l-3.733-11.667c-4.95-13.71-17.85-23.334-32.998-23.334-0.048 0-0.095 0-0.142 0h-53.193c-19.33 0-35 15.67-35 35v0 151.667c0 19.33 15.67 35 35 35v0h163.333c19.33 0 35-15.67 35-35v0-116.667c0-19.33-15.67-35-35-35v0zM233.333 215.833c0 6.443-5.223 11.667-11.667 11.667v0h-163.333c-6.443 0-11.667-5.223-11.667-11.667v0-151.667c0-6.443 5.223-11.667 11.667-11.667v0h53.2c0.009 0 0.019 0 0.030 0 5.107 0 9.448 3.282 11.029 7.851l0.025 0.082 6.3 19.133c1.605 4.652 5.946 7.933 11.053 7.933 0.011 0 0.021 0 0.032 0h81.665c6.443 0 11.667 5.223 11.667 11.667v0z"></path>
</svg>
