<!-- Generated by IcoMoon.io -->
<svg version="1.1" xmlns="http://www.w3.org/2000/svg" width="280" height="280" viewBox="0 0 280 280">
<title>ul-fast-mail</title>
<path fill="#fff" d="M55.883 122.5h-23.333c-6.443 0-11.667 5.223-11.667 11.667s5.223 11.667 11.667 11.667v0h23.333c6.443 0 11.667-5.223 11.667-11.667s-5.223-11.667-11.667-11.667v0zM251.65 89.367v-0.7c-6.468-7.862-16.197-12.838-27.089-12.838-0.197 0-0.394 0.002-0.59 0.005l0.030-0h-92.517c-0.094-0.001-0.204-0.001-0.314-0.001-8.832 0-16.901 3.272-23.059 8.669l0.040-0.034c-5.866 5.186-9.922 12.299-11.175 20.341l-0.025 0.192-10.267 58.333c-0.334 1.816-0.526 3.907-0.526 6.042 0 8.611 3.11 16.496 8.268 22.593l-0.042-0.051c6.447 7.635 16.016 12.458 26.712 12.483h92.638c0.157 0.002 0.343 0.004 0.529 0.004 17.187 0 31.481-12.389 34.439-28.724l0.032-0.213 10.267-58.333c0.299-1.718 0.47-3.697 0.47-5.716 0-8.387-2.95-16.086-7.87-22.114l0.050 0.063zM219.683 99.167l-39.667 32.2c-1.983 1.609-4.539 2.583-7.321 2.583-3.494 0-6.629-1.536-8.768-3.97l-0.011-0.013-27.183-30.8zM225.283 171.15c-0.98 5.535-5.754 9.685-11.497 9.685-0.060 0-0.119-0.001-0.179-0.001h-92.508c-3.558-0.031-6.732-1.65-8.852-4.182l-0.015-0.018c-1.698-2.013-2.731-4.636-2.731-7.501 0-0.689 0.060-1.363 0.174-2.019l-0.010 0.070 9.333-52.85 27.417 31.033c6.446 7.3 15.827 11.881 26.277 11.881 8.375 0 16.063-2.941 22.087-7.847l-0.064 0.050 40.133-32.783zM67.55 75.833h-35c-6.443 0-11.667 5.223-11.667 11.667s5.223 11.667 11.667 11.667v0h35c6.443 0 11.667-5.223 11.667-11.667s-5.223-11.667-11.667-11.667v0z"></path>
</svg>
