<!-- Generated by IcoMoon.io -->
<svg version="1.1" xmlns="http://www.w3.org/2000/svg" width="280" height="280" viewBox="0 0 280 280">
<title>ul-file-download-alt</title>
<path fill="#fff" d="M93.333 93.333c-6.443 0-11.667 5.223-11.667 11.667s5.223 11.667 11.667 11.667v0h11.667c6.443 0 11.667-5.223 11.667-11.667s-5.223-11.667-11.667-11.667v0zM151.667 233.333h-81.667c-6.443 0-11.667-5.223-11.667-11.667v0-163.333c0-6.443 5.223-11.667 11.667-11.667v0h58.333v35c0 19.33 15.67 35 35 35v0h35v23.333c0 6.443 5.223 11.667 11.667 11.667s11.667-5.223 11.667-11.667v0-35s0 0 0-0.7c-0.136-1.174-0.382-2.24-0.732-3.257l0.032 0.107v-1.050c-0.594-1.255-1.336-2.333-2.222-3.273l0.006 0.006-70-70c-0.934-0.88-2.011-1.622-3.191-2.184l-0.075-0.032c-0.175-0.032-0.377-0.051-0.583-0.051s-0.408 0.018-0.604 0.054l0.021-0.003c-1.044-0.571-2.255-1.015-3.535-1.27l-0.082-0.014h-70.7c-19.33 0-35 15.67-35 35v0 163.333c0 19.33 15.67 35 35 35v0h81.667c6.443 0 11.667-5.223 11.667-11.667s-5.223-11.667-11.667-11.667v0zM151.667 63.117l30.217 30.217h-18.55c-6.443 0-11.667-5.223-11.667-11.667v0zM163.333 140h-70c-6.443 0-11.667 5.223-11.667 11.667s5.223 11.667 11.667 11.667v0h70c6.443 0 11.667-5.223 11.667-11.667s-5.223-11.667-11.667-11.667v0zM241.617 213.383c-2.114-2.131-5.045-3.451-8.283-3.451s-6.169 1.32-8.283 3.45l-0.001 0.001-3.383 3.5v-30.217c0-6.443-5.223-11.667-11.667-11.667s-11.667 5.223-11.667 11.667v0 30.217l-3.383-3.5c-2.12-2.12-5.048-3.431-8.283-3.431-6.47 0-11.714 5.245-11.714 11.714 0 3.235 1.311 6.164 3.431 8.283l23.333 23.333c1.077 1.032 2.356 1.862 3.771 2.422l0.079 0.028c1.305 0.591 2.829 0.936 4.433 0.936s3.129-0.345 4.502-0.964l-0.069 0.028c1.494-0.588 2.773-1.418 3.854-2.454l-0.004 0.004 23.333-23.333c2.131-2.114 3.451-5.045 3.451-8.283s-1.32-6.169-3.45-8.283l-0.001-0.001zM140 210c6.443 0 11.667-5.223 11.667-11.667s-5.223-11.667-11.667-11.667v0h-46.667c-6.443 0-11.667 5.223-11.667 11.667s5.223 11.667 11.667 11.667v0z"></path>
</svg>
