<!-- Generated by IcoMoon.io -->
<svg version="1.1" xmlns="http://www.w3.org/2000/svg" width="280" height="280" viewBox="0 0 280 280">
<title>ul-file-bookmark-alt</title>
<path fill="#fff" d="M87.5 116.667h11.667c6.443 0 11.667-5.223 11.667-11.667s-5.223-11.667-11.667-11.667v0h-11.667c-6.443 0-11.667 5.223-11.667 11.667s5.223 11.667 11.667 11.667v0zM134.167 186.667h-46.667c-6.443 0-11.667 5.223-11.667 11.667s5.223 11.667 11.667 11.667v0h46.667c6.443 0 11.667-5.223 11.667-11.667s-5.223-11.667-11.667-11.667v0zM134.167 140h-46.667c-6.443 0-11.667 5.223-11.667 11.667s5.223 11.667 11.667 11.667v0h46.667c6.443 0 11.667-5.223 11.667-11.667s-5.223-11.667-11.667-11.667v0zM214.9 109.433c0.577-1.335 0.912-2.89 0.912-4.522 0-3.194-1.284-6.089-3.363-8.195l0.001 0.001-70-70c-0.934-0.88-2.011-1.622-3.191-2.184l-0.075-0.032c-0.158-0.024-0.34-0.037-0.525-0.037s-0.367 0.013-0.545 0.040l0.020-0.002-3.267-1.167h-70.7c-19.33 0-35 15.67-35 35v0 163.333c0 19.33 15.67 35 35 35v0h70c6.443 0 11.667-5.223 11.667-11.667s-5.223-11.667-11.667-11.667v0h-70c-6.443 0-11.667-5.223-11.667-11.667v0-163.333c0-6.443 5.223-11.667 11.667-11.667v0h58.333v35c0 19.33 15.67 35 35 35v0h46.667c4.821-0.025 8.949-2.97 10.705-7.156l0.029-0.077zM157.5 93.333c-6.443 0-11.667-5.223-11.667-11.667v0-18.55l30.217 30.217zM239.167 140h-58.333c-6.443 0-11.667 5.223-11.667 11.667v0 93.333c0.012 4.424 2.485 8.268 6.122 10.236l0.062 0.031c1.549 0.812 3.383 1.288 5.329 1.288 2.356 0 4.548-0.698 6.382-1.899l-0.045 0.027 22.983-15.167 23.333 15.167c1.675 0.985 3.69 1.567 5.841 1.567 6.297 0 11.429-4.989 11.659-11.23l0.001-0.021v-93.333c0-6.443-5.223-11.667-11.667-11.667v0zM227.5 223.067l-10.967-7.35c-1.832-1.253-4.095-2.001-6.533-2.001s-4.701 0.748-6.573 2.027l0.040-0.026-10.967 7.35v-59.733h35z"></path>
</svg>
