<!-- Generated by IcoMoon.io -->
<svg version="1.1" xmlns="http://www.w3.org/2000/svg" width="280" height="280" viewBox="0 0 280 280">
<title>ul-football</title>
<path fill="#fff" d="M234.15 71.283c-12.657-17.335-29.649-30.8-49.401-38.922l-0.765-0.278c-13.010-5.445-28.127-8.608-43.984-8.608-64.384 0-116.586 52.153-116.666 116.517v0.008c0 2.217 0 4.433 0 6.533 1.103 19.226 6.726 36.927 15.812 52.342l-0.295-0.542c15.036 26.046 39.133 45.438 67.891 54.038l0.826 0.212c9.239 2.6 19.849 4.094 30.808 4.094 0.571 0 1.142-0.004 1.712-0.012l-0.086 0.001c0.152 0.001 0.332 0.001 0.511 0.001 7.58 0 14.981-0.765 22.131-2.222l-0.709 0.121c48.73-9.681 86.107-48.673 93.257-97.484l0.076-0.632c0.833-4.906 1.34-10.595 1.399-16.391l0.001-0.059c0.001-0.139 0.001-0.304 0.001-0.469 0-25.701-8.454-49.427-22.733-68.549l0.215 0.302zM210.817 80.267l-12.483 33.367-18.9 5.133-27.767-19.717v-21.583l29.050-21.117c12.099 5.916 22.282 13.973 30.448 23.77l0.119 0.147zM163.333 136.15l-9.1 27.183h-28.583l-8.983-27.183 23.333-16.683zM140 46.667c4.615 0.053 9.096 0.433 13.476 1.118l-0.526-0.068-12.95 9.333-12.95-9.333c3.854-0.617 8.335-0.997 12.894-1.049l0.056-0.001zM56.933 97.65l4.667 15.4-13.183 9.217c1.824-9.267 4.773-17.509 8.758-25.123l-0.241 0.506zM72.917 204.633l16.1 0.583 4.317 15.517c-7.775-4.636-14.48-9.968-20.391-16.074l-0.025-0.026zM93.333 182l-36.75-1.283c-4.387-8.423-7.583-18.216-9.044-28.566l-0.056-0.484 29.050-20.3 16.8 7.233 10.383 32.2zM103.367 117.483l-18.2-8.167-10.617-35c6.997-7.142 15.122-13.144 24.093-17.724l0.524-0.243 29.167 21.117v21.583zM151.667 232.517c-3.333 0.418-7.19 0.656-11.102 0.656-6.935 0-13.695-0.749-20.204-2.17l0.623 0.114-9.683-34.067 9.683-10.383h35.817l7.817 11.667zM179.783 224.35l5.367-14.35 15.867 0.817c-6.227 5.273-13.335 9.802-21.011 13.3l-0.572 0.233zM220.15 187.95l-36.283-1.283-8.283-12.833 10.383-32.2 17.617-4.783 27.533 23.333c-2.42 10.508-6.323 19.783-11.541 28.153l0.224-0.386zM220.733 119.933l5.6-14.933c3.099 7.264 5.289 15.685 6.155 24.494l0.028 0.356z"></path>
</svg>
