<!-- Generated by IcoMoon.io -->
<svg version="1.1" xmlns="http://www.w3.org/2000/svg" width="280" height="280" viewBox="0 0 280 280">
<title>ul-focus</title>
<path fill="#fff" d="M93.333 23.333h-58.333c-6.443 0-11.667 5.223-11.667 11.667v0 58.333c0 6.443 5.223 11.667 11.667 11.667s11.667-5.223 11.667-11.667v0-46.667h46.667c6.443 0 11.667-5.223 11.667-11.667s-5.223-11.667-11.667-11.667v0zM93.333 233.333h-46.667v-46.667c0-6.443-5.223-11.667-11.667-11.667s-11.667 5.223-11.667 11.667v0 58.333c0 6.443 5.223 11.667 11.667 11.667v0h58.333c6.443 0 11.667-5.223 11.667-11.667s-5.223-11.667-11.667-11.667v0zM245 23.333h-58.333c-6.443 0-11.667 5.223-11.667 11.667s5.223 11.667 11.667 11.667v0h46.667v46.667c0 6.443 5.223 11.667 11.667 11.667s11.667-5.223 11.667-11.667v0-58.333c0-6.443-5.223-11.667-11.667-11.667v0zM245 175c-6.443 0-11.667 5.223-11.667 11.667v0 46.667h-46.667c-6.443 0-11.667 5.223-11.667 11.667s5.223 11.667 11.667 11.667v0h58.333c6.443 0 11.667-5.223 11.667-11.667v0-58.333c0-6.443-5.223-11.667-11.667-11.667v0z"></path>
</svg>
