<!-- Generated by IcoMoon.io -->
<svg version="1.1" xmlns="http://www.w3.org/2000/svg" width="280" height="280" viewBox="0 0 280 280">
<title>ul-facebook-messenger-alt</title>
<path fill="#fff" d="M139.897 11.672c-1.343-0.052-2.919-0.082-4.503-0.082-68.392 0-123.835 55.443-123.835 123.835 0 0.381 0.002 0.761 0.005 1.141l-0.001-0.058c-0.006 0.462-0.010 1.006-0.010 1.552 0 35.693 15.322 67.807 39.747 90.124l0.094 0.085 0.603 19.722c0.366 11.309 9.621 20.337 20.985 20.337 0.001 0 0.001 0 0.002 0v0c3.067-0.004 5.981-0.658 8.611-1.831l-0.135 0.054 22.41-9.878c10.71 2.967 23.008 4.672 35.705 4.672 0.113 0 0.226 0 0.338-0h-0.018c1.343 0.052 2.921 0.082 4.505 0.082 68.397 0 123.844-55.447 123.844-123.844 0-0.377-0.002-0.754-0.005-1.131l0 0.057c0.003-0.319 0.005-0.696 0.005-1.073 0-68.397-55.447-123.844-123.844-123.844-1.584 0-3.161 0.030-4.731 0.089l0.226-0.007zM139.897 238.010c-0.098 0-0.215 0.001-0.332 0.001-10.82 0-21.29-1.494-31.217-4.285l0.81 0.195c-1.639-0.46-3.521-0.724-5.465-0.724-3.074 0-5.993 0.661-8.624 1.848l0.132-0.053-19.995 8.818-0.524-17.42c-0.251-5.92-2.902-11.174-6.999-14.851l-0.020-0.017c-20.161-18.199-32.777-44.426-32.777-73.6 0-0.497 0.004-0.993 0.011-1.488l-0.001 0.075c-0.001-0.164-0.002-0.358-0.002-0.553 0-55.796 45.231-101.028 101.028-101.028 1.398 0 2.789 0.028 4.173 0.084l-0.199-0.006c1.029-0.037 2.237-0.059 3.45-0.059 56.091 0 101.561 45.47 101.561 101.561s-45.47 101.561-101.561 101.561c-1.213 0-2.422-0.021-3.625-0.063l0.174 0.005zM183.465 100.163l-26.979 32.14-39.045-23.994c-1.736-1.085-3.845-1.728-6.104-1.728-3.581 0-6.785 1.617-8.921 4.16l-0.014 0.018-35.604 42.428c-1.711 2.016-2.752 4.649-2.752 7.524 0 6.441 5.221 11.661 11.661 11.661 3.59 0 6.801-1.622 8.941-4.174l0.015-0.018 29.143-34.715 39.045 23.983c1.737 1.087 3.848 1.731 6.11 1.731 3.578 0 6.779-1.613 8.915-4.152l0.014-0.018 33.439-39.853c1.726-2.021 2.777-4.665 2.777-7.553 0-6.441-5.221-11.661-11.661-11.661-3.603 0-6.825 1.634-8.964 4.202l-0.015 0.019z"></path>
</svg>
