<!-- Generated by IcoMoon.io -->
<svg version="1.1" xmlns="http://www.w3.org/2000/svg" width="280" height="280" viewBox="0 0 280 280">
<title>ul-google-hangouts</title>
<path fill="#fff" d="M238.515 105.642c-3.592-19.763-12.594-36.998-25.399-50.615l0.048 0.051c-5.546-5.967-11.755-11.195-18.544-15.606l-0.38-0.232c-12.081-7.939-26.491-13.377-42.002-15.229l-0.47-0.046c-2.085-0.115-4.013-0.341-5.903-0.676l0.292 0.043h-13.235c-0.143 0.334-0.45 0.212-0.693 0.235-3.408 0.301-6.8 0.688-10.163 1.326-24.657 4.473-45.667 17.58-60.234 36.013l-0.158 0.207c-12.185 14.985-20.047 33.923-21.442 54.635l-0.016 0.298c-0.18 2.254-0.283 4.879-0.283 7.528 0 7.789 0.889 15.37 2.57 22.648l-0.131-0.675c1.79 7.927 4.295 14.896 7.532 21.439l-0.249-0.556c0.285 0.568 0.567 1.137 0.858 1.704 5.505 10.832 12.462 20.074 20.756 27.917l0.047 0.044c17.519 16.597 41.145 26.901 67.175 27.211l0.062 0.001c1.168 0.016 1.487 0.304 1.48 1.499-0.053 10.191-0.031 20.384-0.028 30.577 0.001 0.396 0.031 0.791 0.054 1.282 0.329-0.134 0.536-0.21 0.735-0.304 20.071-9.41 37.335-20.985 52.567-34.763l-0.18 0.161q4.673-4.254 8.971-8.895c1.228-1.322 2.447-2.668 3.678-3.989 1.902-2.034 3.548-4.306 5.341-6.447 2.071-2.47 3.929-5.096 5.763-7.738 3.746-5.277 7.313-11.296 10.381-17.604l0.336-0.764c1.539-3.253 3.005-6.532 4.302-9.889 0.047-0.055 0.090-0.117 0.126-0.182l0.003-0.006c3.256-8.262 5.717-17.877 6.948-27.874l0.058-0.581c0.421-3.398 0.694-6.817 0.866-10.235 0.077-1.432 0.121-3.108 0.121-4.794 0-6.052-0.566-11.972-1.648-17.71l0.093 0.59zM131.299 138.535c0 0.020 0 0.044 0 0.069 0 8.669-3.775 16.457-9.771 21.808l-0.029 0.025c-0.332 0.308-0.653 0.629-0.977 0.943-3.078 2.467-6.713 4.39-10.673 5.552l-0.221 0.056c-1.421 0.381-3.192 0.728-4.997 0.966l-0.225 0.024c-0.111 0.018-0.239 0.028-0.37 0.028-1.125 0-2.073-0.755-2.367-1.786l-0.004-0.017 0.013-11.295c0.066-1.108-0.38-2.296 0.508-3.273 0.413-0.476 0.964-0.823 1.591-0.979l0.021-0.005c2.166-0.404 4.099-1.086 5.879-2.020l-0.114 0.054c3.147-1.841 5.432-4.866 6.26-8.447l0.017-0.089c0.142-0.585 0.278-1.173 0.413-1.76q-11.91-0.022-23.816-0.039c-0.072 0.002-0.157 0.004-0.242 0.004-0.636 0-1.254-0.078-1.844-0.225l0.053 0.011c-2.025-0.552-3.502-2.341-3.576-4.487l-0-0.008q-0.022-18.006 0.018-36.015c-0.072-0.332-0.113-0.714-0.113-1.106 0-1.569 0.663-2.984 1.725-3.978l0.003-0.003c0.786-0.724 1.834-1.173 2.986-1.191h0.004q17.51-0.003 35.021-0.006c2.673 0.011 4.836 2.18 4.836 4.855 0 0.463-0.065 0.911-0.186 1.335l0.008-0.034c0.135 0.41 0.213 0.881 0.213 1.371 0 0.146-0.007 0.29-0.021 0.432l0.001-0.018c0.003 13.081 0.076 26.167-0.024 39.248zM193.168 138.593c-0.124 12.142-7.483 22.536-17.966 27.084l-0.193 0.075c-0.273 0.117-0.533 0.268-0.799 0.402l-0.445 0.125-0.252 0.143c-1.878 0.574-4.197 1.1-6.568 1.47l-0.302 0.039c-0.188 0.050-0.404 0.079-0.627 0.079-1.39 0-2.518-1.127-2.518-2.518 0-0.033 0.001-0.065 0.002-0.097l-0 0.005c-0.018-1.253-0.027-2.508-0.037-3.762l0.065-6.735c-0.010-0.496-0.028-0.988-0.026-1.482 0.002-1.725 0.665-2.452 2.809-2.942 2.858-0.501 5.368-1.728 7.413-3.481l-0.021 0.017c2.327-2.232 3.921-5.211 4.396-8.551l0.009-0.078-22.001-0.042c-0.798-0.001-1.596 0.010-2.395-0.004-0.049 0.002-0.106 0.003-0.163 0.003-2.7 0-4.888-2.189-4.888-4.888 0-0.086 0.002-0.172 0.007-0.258l-0.001 0.012q0.005-17.785 0.028-35.569l-0.020-0.343c-0.054-0.277-0.084-0.596-0.084-0.922 0-1.837 0.977-3.446 2.44-4.335l0.022-0.013c0.679-0.426 1.506-0.679 2.39-0.679 0.032 0 0.063 0 0.095 0.001h-0.005q17.394-0.010 34.788-0.010c2.673 0.013 4.834 2.182 4.834 4.856 0 0.463-0.065 0.911-0.186 1.335l0.008-0.034c0.134 0.411 0.211 0.883 0.211 1.374 0 0.144-0.007 0.287-0.020 0.428l0.001-0.018q0 19.656-0.004 39.313z"></path>
</svg>
