<!-- Generated by IcoMoon.io -->
<svg version="1.1" xmlns="http://www.w3.org/2000/svg" width="280" height="280" viewBox="0 0 280 280">
<title>ul-gift</title>
<path fill="#fff" d="M210 81.667h-4.083c2.552-5.109 4.056-11.125 4.083-17.491v-0.009c0-0.052 0-0.115 0-0.177 0-22.487-18.23-40.717-40.717-40.717-11.491 0-21.87 4.76-29.273 12.415l-0.011 0.011c-7.414-7.667-17.793-12.427-29.284-12.427-22.487 0-40.717 18.23-40.717 40.717 0 0.062 0 0.124 0.001 0.186v-0.010c0.027 6.375 1.532 12.391 4.189 17.734l-0.105-0.234h-4.083c-19.33 0-35 15.67-35 35v0 23.333c0 6.443 5.223 11.667 11.667 11.667v0h11.667v70c0 19.33 15.67 35 35 35v0h93.333c19.33 0 35-15.67 35-35v0-70h11.667c6.443 0 11.667-5.223 11.667-11.667v0-23.333c0-19.33-15.67-35-35-35v0zM128.333 233.333h-35c-6.443 0-11.667-5.223-11.667-11.667v0-70h46.667zM128.333 128.333h-70v-11.667c0-6.443 5.223-11.667 11.667-11.667v0h58.333zM128.333 81.667h-17.5c-9.665 0-17.5-7.835-17.5-17.5s7.835-17.5 17.5-17.5c9.665 0 17.5 7.835 17.5 17.5v0zM151.667 64.167c0-9.665 7.835-17.5 17.5-17.5s17.5 7.835 17.5 17.5c0 9.665-7.835 17.5-17.5 17.5v0h-17.5zM198.333 221.667c0 6.443-5.223 11.667-11.667 11.667v0h-35v-81.667h46.667zM221.667 128.333h-70v-23.333h58.333c6.443 0 11.667 5.223 11.667 11.667v0z"></path>
</svg>
