<!-- Generated by IcoMoon.io -->
<svg version="1.1" xmlns="http://www.w3.org/2000/svg" width="280" height="280" viewBox="0 0 280 280">
<title>ul-heartbeat</title>
<path fill="#fff" d="M245 121.45h-29.167c-3.245 0.014-6.175 1.351-8.282 3.498l-0.002 0.002-14.467 15.050-32.667-37.217c-2.134-2.276-5.16-3.693-8.517-3.693s-6.382 1.418-8.511 3.687l-0.006 0.006-19.833 19.833h-18.55c-6.443 0-11.667 5.223-11.667 11.667s5.223 11.667 11.667 11.667v0h23.333c0.020 0 0.044 0 0.068 0 3.205 0 6.108-1.292 8.217-3.384l-0.001 0.001 15.050-15.633 32.667 37.217c2.069 2.35 5.048 3.857 8.381 3.966l0.019 0.001c0.020 0 0.044 0 0.068 0 3.205 0 6.108-1.292 8.217-3.384l-0.001 0.001 19.833-19.95h24.15c6.443 0 11.667-5.223 11.667-11.667s-5.223-11.667-11.667-11.667v0zM158.783 183.283l-22.167 22.167c-2.114 2.131-5.045 3.451-8.283 3.451s-6.169-1.32-8.283-3.45l-60.784-60.784c-7.796-7.791-12.618-18.558-12.618-30.45s4.822-22.659 12.618-30.45l0-0c7.786-7.761 18.528-12.56 30.392-12.56s22.606 4.799 30.393 12.561l-0.001-0.001c2.114 2.131 5.045 3.451 8.283 3.451s6.169-1.32 8.283-3.45l0.001-0.001c7.894-7.519 18.603-12.144 30.392-12.144s22.498 4.626 30.41 12.161l-0.018-0.017c2.534 2.566 4.771 5.435 6.651 8.544l0.115 0.206c2.146 2.926 5.571 4.805 9.435 4.805 6.443 0 11.667-5.223 11.667-11.667 0-1.741-0.381-3.393-1.065-4.877l0.030 0.072c-3.034-4.992-6.427-9.313-10.271-13.188l0.004 0.005c-12.018-12.156-28.695-19.683-47.131-19.683-14.445 0-27.811 4.622-38.699 12.468l0.196-0.135c-10.738-7.813-24.189-12.499-38.734-12.499-36.598 0-66.267 29.669-66.267 66.267 0 0.046 0 0.093 0 0.139v-0.007c0 0.008 0 0.017 0 0.027 0 18.244 7.451 34.748 19.477 46.634l60.79 60.79c6.332 6.325 15.076 10.236 24.733 10.236s18.401-3.911 24.734-10.236l21.933-21.933c2.097-2.109 3.393-5.016 3.393-8.225s-1.296-6.116-3.393-8.226l0.001 0.001c-2.096-2.028-4.956-3.278-8.108-3.278s-6.012 1.25-8.112 3.281l0.003-0.003z"></path>
</svg>
