<!-- Generated by IcoMoon.io -->
<svg version="1.1" xmlns="http://www.w3.org/2000/svg" width="280" height="280" viewBox="0 0 280 280">
<title>ul-headphones-alt</title>
<path fill="#fff" d="M233.333 153.767v-25.433c0-51.547-41.787-93.333-93.333-93.333s-93.333 41.787-93.333 93.333v0 25.433c-13.68 4.939-23.289 17.791-23.333 32.895v23.339c0 19.33 15.67 35 35 35v0h35c6.443 0 11.667-5.223 11.667-11.667v0-70c0-6.443-5.223-11.667-11.667-11.667v0h-23.333v-23.333c0-38.66 31.34-70 70-70s70 31.34 70 70v0 23.333h-23.333c-6.443 0-11.667 5.223-11.667 11.667v0 70c0 6.443 5.223 11.667 11.667 11.667v0h35c19.33 0 35-15.67 35-35v0-23.333c-0.044-15.109-9.654-27.961-23.090-32.823l-0.244-0.077zM81.667 175v46.667h-23.333c-6.443 0-11.667-5.223-11.667-11.667v0-23.333c0-6.443 5.223-11.667 11.667-11.667v0zM233.333 210c0 6.443-5.223 11.667-11.667 11.667v0h-23.333v-46.667h23.333c6.443 0 11.667 5.223 11.667 11.667v0z"></path>
</svg>
