<!-- Generated by IcoMoon.io -->
<svg version="1.1" xmlns="http://www.w3.org/2000/svg" width="280" height="280" viewBox="0 0 280 280">
<title>ul-image-redo</title>
<path fill="#fff" d="M250.833 17.5c-6.443 0-11.667 5.223-11.667 11.667v0 0c-9.636-7.304-21.827-11.701-35.045-11.701-32.217 0-58.333 26.117-58.333 58.333s26.117 58.333 58.333 58.333c14.805 0 28.322-5.516 38.608-14.603l-0.063 0.054c2.457-2.156 3.999-5.302 3.999-8.808 0-6.461-5.238-11.699-11.699-11.699-2.955 0-5.654 1.095-7.713 2.903l0.013-0.011c-6.139 5.439-14.263 8.76-23.162 8.76-19.33 0-35-15.67-35-35s15.67-35 35-35c10.345 0 19.642 4.488 26.050 11.624l0.029 0.033h-14.35c-6.443 0-11.667 5.223-11.667 11.667s5.223 11.667 11.667 11.667v0h35c6.443 0 11.667-5.223 11.667-11.667v0-35c-0.066-6.393-5.264-11.55-11.666-11.55-0 0-0.001 0-0.001 0v0zM215.833 157.5c-6.443 0-11.667 5.223-11.667 11.667v0 4.55l-17.5-17.267c-5.855-5.892-13.964-9.539-22.925-9.539s-17.070 3.647-22.923 9.537l-8.168 8.168-28.7-29.050c-5.881-5.836-13.982-9.443-22.925-9.443s-17.044 3.607-22.927 9.445l0.002-0.002-17.267 17.267v-65.333c0-6.443 5.223-11.667 11.667-11.667v0h58.333c6.443 0 11.667-5.223 11.667-11.667s-5.223-11.667-11.667-11.667v0h-58.333c-19.33 0-35 15.67-35 35v0 140c0 19.33 15.67 35 35 35v0h140c19.33 0 35-15.67 35-35v0-58.333c0-6.443-5.223-11.667-11.667-11.667v0zM52.5 239.167c-6.443 0-11.667-5.223-11.667-11.667v0-41.65l33.833-34.183c1.65-1.575 3.891-2.544 6.358-2.544s4.708 0.969 6.362 2.548l36.98 36.98 50.633 50.517zM204.167 227.5c-0.105 2.327-0.876 4.454-2.125 6.22l0.025-0.036-52.617-52.617 8.167-8.167c1.645-1.636 3.913-2.647 6.417-2.647s4.772 1.011 6.417 2.648l-0-0 33.717 33.833z"></path>
</svg>
