<!-- Generated by IcoMoon.io -->
<svg version="1.1" xmlns="http://www.w3.org/2000/svg" width="280" height="280" viewBox="0 0 280 280">
<title>ul-instagram-alt</title>
<path fill="#fff" d="M140 111.067c-15.979 0-28.933 12.954-28.933 28.933s12.954 28.933 28.933 28.933c15.979 0 28.933-12.954 28.933-28.933v0c0-15.979-12.954-28.933-28.933-28.933v0zM255.85 82.483c-0.067-9.491-1.859-18.543-5.077-26.887l0.177 0.521c-4.842-12.513-14.553-22.224-26.748-26.958l-0.318-0.109c-7.823-3.041-16.876-4.833-26.339-4.9l-0.028-0c-15.050-0.817-19.483-0.817-57.517-0.817s-42.467 0-57.517 0.817c-9.491 0.067-18.543 1.859-26.887 5.077l0.521-0.177c-12.513 4.842-22.224 14.553-26.958 26.748l-0.109 0.318c-3.041 7.823-4.833 16.876-4.9 26.339l-0 0.028c-0.817 15.050-0.817 19.483-0.817 57.517s0 42.467 0.817 57.517c0.137 9.541 1.922 18.625 5.082 27.035l-0.182-0.552c2.463 6.383 6.071 11.827 10.613 16.33l0.003 0.003c4.528 4.573 10.016 8.186 16.138 10.513l0.312 0.104c7.823 3.041 16.876 4.833 26.339 4.9l0.028 0c15.050 0.817 19.483 0.817 57.517 0.817s42.467 0 57.517-0.817c9.491-0.067 18.543-1.859 26.887-5.077l-0.521 0.177c6.434-2.43 11.922-6.044 16.446-10.613l0.004-0.004c4.546-4.506 8.154-9.951 10.51-16.020l0.107-0.313c3.038-7.859 4.83-16.952 4.9-26.454l0-0.030c0.817-15.050 0.817-19.483 0.817-57.517s0-42.467-0.817-57.517zM226.217 175.817c-0.409 7.656-2.043 14.816-4.71 21.45l0.16-0.45c-4.675 11.343-13.507 20.175-24.551 24.741l-0.299 0.109c-6.251 2.374-13.477 3.852-21.016 4.081l-0.101 0.002c-9.217 0-11.667 0-35.7 0s-26.483 0-35.7 0c-7.64-0.232-14.865-1.709-21.577-4.235l0.461 0.152c-6.001-2.268-11.108-5.687-15.27-10.020l-0.013-0.014c-4.119-4.079-7.374-9.022-9.473-14.535l-0.094-0.281c-2.389-6.262-3.832-13.5-3.966-21.059l-0.001-0.058c0-9.217 0-11.667 0-35.7s0-26.483 0-35.7c0.135-7.616 1.578-14.855 4.113-21.557l-0.146 0.441c2.268-6.001 5.687-11.108 10.020-15.27l0.014-0.013c4.094-4.095 9.032-7.346 14.53-9.469l0.286-0.097c6.251-2.374 13.477-3.852 21.016-4.081l0.101-0.002c9.217 0 11.667 0 35.7 0s26.483 0 35.7 0c7.64 0.232 14.865 1.709 21.577 4.235l-0.461-0.152c6.001 2.268 11.108 5.687 15.27 10.020l0.013 0.014c4.119 4.079 7.374 9.022 9.473 14.535l0.094 0.281c2.374 6.251 3.852 13.477 4.081 21.016l0.002 0.101c0 9.217 0 11.667 0 35.7s0.817 26.483 0.467 35.7zM207.55 89.017c-2.875-7.648-8.802-13.575-16.259-16.387l-0.191-0.063c-4.555-1.631-9.809-2.574-15.284-2.574-0.287 0-0.573 0.002-0.859 0.008l0.043-0.001c-9.1 0-11.667 0-35 0s-25.9 0-35 0c-5.801 0.059-11.326 1.166-16.418 3.142l0.318-0.109c-7.544 2.75-13.441 8.456-16.383 15.681l-0.067 0.186c-1.556 4.612-2.454 9.923-2.454 15.444 0 0.231 0.002 0.461 0.005 0.691l-0-0.035c0 9.1 0 11.667 0 35s0 25.9 0 35c0.126 5.811 1.227 11.327 3.146 16.444l-0.113-0.344c2.875 7.647 8.803 13.575 16.259 16.387l0.191 0.063c4.59 1.743 9.896 2.839 15.432 3.031l0.085 0.002c9.1 0 11.667 0 35 0s25.9 0 35 0c5.801-0.059 11.326-1.166 16.418-3.142l-0.318 0.109c7.647-2.875 13.575-8.803 16.387-16.259l0.063-0.191c1.867-4.774 2.975-10.299 3.033-16.076l0-0.024c0-9.1 0-11.667 0-35s0-25.9 0-35c0-0.008 0-0.018 0-0.027 0-5.784-1.114-11.309-3.138-16.37l0.105 0.297zM140 184.567c0 0 0 0-0 0-24.549 0-44.45-19.901-44.45-44.45 0-0.041 0-0.082 0-0.123v0.006c0-24.613 19.953-44.566 44.567-44.566s44.567 19.953 44.567 44.567c0 24.613-19.953 44.567-44.567 44.567-0.041 0-0.082 0-0.123-0h0.006zM186.667 104.183c-5.304-0.578-9.395-5.032-9.395-10.442s4.091-9.864 9.348-10.438l0.047-0.004c5.304 0.578 9.395 5.032 9.395 10.442s-4.091 9.864-9.348 10.438l-0.047 0.004z"></path>
</svg>
