<!-- Generated by IcoMoon.io -->
<svg version="1.1" xmlns="http://www.w3.org/2000/svg" width="280" height="280" viewBox="0 0 280 280">
<title>ul-kid</title>
<path fill="#fff" d="M116.667 116.667c0-6.443-5.223-11.667-11.667-11.667s-11.667 5.223-11.667 11.667c0 6.443 5.223 11.667 11.667 11.667v0c6.443 0 11.667-5.223 11.667-11.667v0zM169.167 164.033c-1.689-1.006-3.724-1.601-5.899-1.601-4.282 0-8.026 2.307-10.055 5.747l-0.030 0.054c-2.66 4.613-7.565 7.668-13.183 7.668s-10.524-3.055-13.144-7.595l-0.039-0.073c-2.059-3.494-5.802-5.801-10.085-5.801-2.174 0-4.21 0.595-5.952 1.631l0.054-0.030c-3.514 2.054-5.838 5.809-5.838 10.106 0 2.118 0.564 4.105 1.551 5.817l-0.030-0.057c6.792 11.663 19.237 19.378 33.483 19.378s26.691-7.715 33.385-19.195l0.099-0.184c0.957-1.656 1.521-3.642 1.521-5.761 0-4.297-2.323-8.052-5.783-10.076l-0.055-0.030zM175 105c-6.443 0-11.667 5.223-11.667 11.667s5.223 11.667 11.667 11.667c6.443 0 11.667-5.223 11.667-11.667v0c0-6.443-5.223-11.667-11.667-11.667v0zM140 23.333c-64.433 0-116.667 52.233-116.667 116.667s52.233 116.667 116.667 116.667c64.433 0 116.667-52.233 116.667-116.667v0c0-64.433-52.233-116.667-116.667-116.667v0zM140 233.333c-0.12 0.001-0.261 0.001-0.403 0.001-51.547 0-93.333-41.787-93.333-93.333 0-39.085 24.025-72.559 58.113-86.459l0.624-0.225c-0.057 0.751-0.090 1.626-0.090 2.508s0.033 1.758 0.097 2.624l-0.007-0.116c0 19.33 15.67 35 35 35v0c6.443 0 11.667-5.223 11.667-11.667s-5.223-11.667-11.667-11.667v0c-6.443 0-11.667-5.223-11.667-11.667s5.223-11.667 11.667-11.667v0c51.547 0 93.333 41.787 93.333 93.333s-41.787 93.333-93.333 93.333v0z"></path>
</svg>
