<!-- Generated by IcoMoon.io -->
<svg version="1.1" xmlns="http://www.w3.org/2000/svg" width="280" height="280" viewBox="0 0 280 280">
<title>ul-keyhole-square</title>
<path fill="#fff" d="M221.667 23.333h-163.333c-19.33 0-35 15.67-35 35v0 163.333c0 19.33 15.67 35 35 35v0h163.333c19.33 0 35-15.67 35-35v0-163.333c0-19.33-15.67-35-35-35v0zM233.333 221.667c0 6.443-5.223 11.667-11.667 11.667v0h-163.333c-6.443 0-11.667-5.223-11.667-11.667v0-163.333c0-6.443 5.223-11.667 11.667-11.667v0h163.333c6.443 0 11.667 5.223 11.667 11.667v0zM140 93.333c-12.887 0-23.333 10.447-23.333 23.333v0c0.053 8.537 4.683 15.981 11.557 20.007l0.11 0.060v38.267c0 6.443 5.223 11.667 11.667 11.667s11.667-5.223 11.667-11.667v0-38.267c6.984-4.086 11.613-11.53 11.667-20.059v-0.008c0-12.887-10.447-23.333-23.333-23.333v0z"></path>
</svg>
