<!-- Generated by IcoMoon.io -->
<svg version="1.1" xmlns="http://www.w3.org/2000/svg" width="280" height="280" viewBox="0 0 280 280">
<title>ul-keyhole-circle</title>
<path fill="#fff" d="M140 93.333c-12.887 0-23.333 10.447-23.333 23.333v0c0.053 8.537 4.683 15.981 11.557 20.007l0.11 0.060v38.267c0 6.443 5.223 11.667 11.667 11.667s11.667-5.223 11.667-11.667v0-38.267c6.984-4.086 11.613-11.53 11.667-20.059v-0.008c0-12.887-10.447-23.333-23.333-23.333v0zM140 23.333c-64.433 0-116.667 52.233-116.667 116.667s52.233 116.667 116.667 116.667c64.433 0 116.667-52.233 116.667-116.667v0c0-64.433-52.233-116.667-116.667-116.667v0zM140 233.333c-51.547 0-93.333-41.787-93.333-93.333s41.787-93.333 93.333-93.333c51.547 0 93.333 41.787 93.333 93.333v0c0 51.547-41.787 93.333-93.333 93.333v0z"></path>
</svg>
