<!-- Generated by IcoMoon.io -->
<svg version="1.1" xmlns="http://www.w3.org/2000/svg" width="280" height="280" viewBox="0 0 280 280">
<title>ul-list-ul</title>
<path fill="#fff" d="M43.283 190.050c-1.077-1.032-2.356-1.862-3.771-2.422l-0.079-0.028c-1.311-0.553-2.834-0.875-4.433-0.875s-3.123 0.322-4.51 0.904l0.077-0.029c-1.494 0.588-2.773 1.418-3.854 2.454l0.004-0.004c-1.032 1.077-1.862 2.356-2.422 3.771l-0.028 0.079c-0.577 1.335-0.912 2.89-0.912 4.522 0 3.194 1.284 6.089 3.363 8.195l-0.001-0.001c1.094 0.997 2.367 1.822 3.763 2.417l0.087 0.033c1.305 0.591 2.829 0.936 4.433 0.936s3.129-0.345 4.502-0.964l-0.069 0.028c1.483-0.628 2.756-1.453 3.861-2.46l-0.011 0.010c2.078-2.105 3.362-5 3.362-8.194 0-1.633-0.336-3.187-0.941-4.598l0.029 0.076c-0.588-1.494-1.418-2.773-2.454-3.854l0.004 0.004zM81.667 93.333h163.333c6.443 0 11.667-5.223 11.667-11.667s-5.223-11.667-11.667-11.667v0h-163.333c-6.443 0-11.667 5.223-11.667 11.667s5.223 11.667 11.667 11.667v0zM43.283 131.717c-2.105-2.078-5-3.362-8.194-3.362-1.633 0-3.187 0.336-4.598 0.941l0.076-0.029c-1.483 0.628-2.756 1.453-3.861 2.46l0.011-0.010c-1.032 1.077-1.862 2.356-2.422 3.771l-0.028 0.079c-0.591 1.305-0.936 2.829-0.936 4.433s0.345 3.129 0.964 4.502l-0.028-0.069c0.628 1.483 1.453 2.756 2.46 3.861l-0.010-0.011c1.094 0.997 2.367 1.822 3.763 2.417l0.087 0.033c1.305 0.591 2.829 0.936 4.433 0.936s3.129-0.345 4.502-0.964l-0.069 0.028c1.483-0.628 2.756-1.453 3.861-2.46l-0.011 0.010c0.997-1.094 1.822-2.367 2.417-3.763l0.033-0.088c0.591-1.305 0.936-2.829 0.936-4.433s-0.345-3.129-0.964-4.502l0.028 0.069c-0.588-1.494-1.418-2.773-2.454-3.854l0.004 0.004zM245 128.333h-163.333c-6.443 0-11.667 5.223-11.667 11.667s5.223 11.667 11.667 11.667v0h163.333c6.443 0 11.667-5.223 11.667-11.667s-5.223-11.667-11.667-11.667v0zM43.283 73.383c-1.077-1.032-2.356-1.862-3.771-2.422l-0.079-0.028c-1.335-0.577-2.89-0.912-4.522-0.912-3.194 0-6.089 1.284-8.195 3.363l0.001-0.001c-0.997 1.094-1.822 2.367-2.417 3.762l-0.033 0.088c-0.591 1.305-0.936 2.829-0.936 4.433s0.345 3.129 0.964 4.502l-0.028-0.069c0.628 1.483 1.453 2.756 2.46 3.861l-0.010-0.011c1.094 0.997 2.367 1.822 3.763 2.417l0.087 0.033c1.335 0.577 2.89 0.912 4.522 0.912 3.194 0 6.089-1.284 8.195-3.363l-0.001 0.001c0.997-1.094 1.822-2.367 2.417-3.763l0.033-0.087c0.591-1.305 0.936-2.829 0.936-4.433s-0.345-3.129-0.964-4.502l0.028 0.069c-0.628-1.483-1.453-2.756-2.46-3.861l0.010 0.011zM245 186.667h-163.333c-6.443 0-11.667 5.223-11.667 11.667s5.223 11.667 11.667 11.667v0h163.333c6.443 0 11.667-5.223 11.667-11.667s-5.223-11.667-11.667-11.667v0z"></path>
</svg>
