<!-- Generated by IcoMoon.io -->
<svg version="1.1" xmlns="http://www.w3.org/2000/svg" width="280" height="280" viewBox="0 0 280 280">
<title>ul-left-indent-alt</title>
<path fill="#fff" d="M105 58.333c-6.443 0-11.667 5.223-11.667 11.667v0 140c0 6.443 5.223 11.667 11.667 11.667s11.667-5.223 11.667-11.667v0-140c0-6.443-5.223-11.667-11.667-11.667v0zM151.667 81.667h93.333c6.443 0 11.667-5.223 11.667-11.667s-5.223-11.667-11.667-11.667v0h-93.333c-6.443 0-11.667 5.223-11.667 11.667s5.223 11.667 11.667 11.667v0zM67.317 113.050c-2.155-2.586-5.377-4.221-8.981-4.221-2.85 0-5.461 1.022-7.487 2.719l0.018-0.015-23.333 19.483c-2.588 2.155-4.223 5.378-4.223 8.983s1.635 6.828 4.204 8.968l0.019 0.015 23.333 19.483c2.008 1.682 4.619 2.704 7.469 2.704 3.604 0 6.826-1.634 8.966-4.202l0.015-0.019c1.682-2.008 2.704-4.619 2.704-7.469 0-3.604-1.634-6.826-4.202-8.966l-0.019-0.015-12.6-10.5 12.6-10.5c2.586-2.155 4.221-5.377 4.221-8.981 0-2.85-1.022-5.461-2.719-7.487l0.015 0.018zM245 105h-93.333c-6.443 0-11.667 5.223-11.667 11.667s5.223 11.667 11.667 11.667v0h93.333c6.443 0 11.667-5.223 11.667-11.667s-5.223-11.667-11.667-11.667v0zM245 151.667h-93.333c-6.443 0-11.667 5.223-11.667 11.667s5.223 11.667 11.667 11.667v0h93.333c6.443 0 11.667-5.223 11.667-11.667s-5.223-11.667-11.667-11.667v0zM245 198.333h-93.333c-6.443 0-11.667 5.223-11.667 11.667s5.223 11.667 11.667 11.667v0h93.333c6.443 0 11.667-5.223 11.667-11.667s-5.223-11.667-11.667-11.667v0z"></path>
</svg>
