<!-- Generated by IcoMoon.io -->
<svg version="1.1" xmlns="http://www.w3.org/2000/svg" width="280" height="280" viewBox="0 0 280 280">
<title>ul-laptop</title>
<path fill="#fff" d="M245 163.333h-11.667v-81.667c0-19.33-15.67-35-35-35v0h-116.667c-19.33 0-35 15.67-35 35v0 81.667h-11.667c-6.443 0-11.667 5.223-11.667 11.667v0 23.333c0 19.33 15.67 35 35 35v0h163.333c19.33 0 35-15.67 35-35v0-23.333c0-6.443-5.223-11.667-11.667-11.667v0zM70 81.667c0-6.443 5.223-11.667 11.667-11.667v0h116.667c6.443 0 11.667 5.223 11.667 11.667v0 81.667h-140zM233.333 198.333c0 6.443-5.223 11.667-11.667 11.667v0h-163.333c-6.443 0-11.667-5.223-11.667-11.667v0-11.667h186.667z"></path>
</svg>
