<!-- Generated by IcoMoon.io -->
<svg version="1.1" xmlns="http://www.w3.org/2000/svg" width="280" height="280" viewBox="0 0 280 280">
<title>ul-map-marker-info</title>
<path fill="#fff" d="M140 116.667c-6.443 0-11.667 5.223-11.667 11.667v0 23.333c0 6.443 5.223 11.667 11.667 11.667s11.667-5.223 11.667-11.667v0-23.333c0-6.443-5.223-11.667-11.667-11.667v0zM238.7 112.933c-4.732-50.786-47.141-90.231-98.763-90.231-20.401 0-39.364 6.161-55.128 16.723l0.358-0.226c-24.225 16.364-40.743 42.556-43.831 72.725l-0.035 0.425c-0.3 2.888-0.471 6.239-0.471 9.63 0 27.386 11.153 52.166 29.165 70.047l0.006 0.006 61.833 61.95c2.114 2.131 5.045 3.451 8.283 3.451s6.169-1.32 8.283-3.45l0.001-0.001 61.6-61.95c18.018-17.887 29.171-42.667 29.171-70.053 0-3.391-0.171-6.743-0.505-10.046l0.034 0.416zM193.667 175.583l-53.667 53.667-53.667-53.667c-13.701-13.702-22.176-32.63-22.176-53.538 0-2.592 0.13-5.154 0.385-7.68l-0.026 0.318c2.347-23.568 15.057-43.757 33.445-56.177l0.272-0.173c11.744-7.899 26.205-12.608 41.767-12.608s30.023 4.709 42.038 12.78l-0.271-0.171c18.606 12.546 31.299 32.639 33.689 55.789l0.027 0.328c0.242 2.271 0.38 4.907 0.38 7.574 0 20.918-8.483 39.855-22.196 53.559l-0.001 0.001zM150.733 88.317c-0.251-0.759-0.608-1.418-1.061-1.998l0.011 0.014-1.4-1.75c-2.087-1.985-4.918-3.206-8.033-3.206-0.916 0-1.807 0.106-2.662 0.305l0.079-0.016h-2.1l-2.1 1.050-1.75 1.517-1.4 1.75c-0.442 0.565-0.799 1.224-1.037 1.937l-0.013 0.046c-0.336 0.643-0.582 1.39-0.696 2.179l-0.004 0.037c-0.154 0.79-0.243 1.699-0.243 2.629 0 0.183 0.004 0.366 0.010 0.548l-0.001-0.026c-0.002 0.079-0.004 0.172-0.004 0.266 0 1.554 0.345 3.027 0.963 4.347l-0.027-0.063c0.63 1.44 1.454 2.675 2.456 3.74l-0.006-0.007c1.080 1.061 2.357 1.926 3.77 2.536l0.080 0.031c1.316 0.515 2.84 0.814 4.433 0.814s3.117-0.299 4.519-0.843l-0.085 0.029c1.483-0.672 2.755-1.533 3.857-2.573l-0.007 0.006c0.996-1.058 1.82-2.293 2.417-3.65l0.033-0.083c0.587-1.342 0.93-2.906 0.933-4.549v-0.001c0.027-0.332 0.043-0.718 0.043-1.108s-0.016-0.777-0.046-1.159l0.003 0.050c-0.118-1.047-0.45-1.996-0.951-2.832l0.018 0.032z"></path>
</svg>
