<!-- Generated by IcoMoon.io -->
<svg version="1.1" xmlns="http://www.w3.org/2000/svg" width="280" height="280" viewBox="0 0 280 280">
<title>ul-medium-m</title>
<path fill="#fff" d="M247.439 74.861h9.228v-27.223h-87.269l-29.002 106.944h-0.793l-28.738-106.944h-87.531v27.222h8.964c4.258 0.712 7.606 3.916 8.523 8.036l0.013 0.069v114.687c-0.983 4.025-4.353 7.041-8.493 7.482l-0.043 0.004h-8.964v27.223h70v-27.223h-17.5v-120.555h1.021l40.338 147.778h31.64l40.866-147.778h0.858v120.555h-17.501v27.223h83.611v-27.223h-9.228c-4.076-0.545-7.327-3.531-8.259-7.419l-0.013-0.067v-114.686c0.899-4.118 4.127-7.291 8.206-8.095l0.066-0.011z"></path>
</svg>
