<!-- Generated by IcoMoon.io -->
<svg version="1.1" xmlns="http://www.w3.org/2000/svg" width="280" height="280" viewBox="0 0 280 280">
<title>ul-mailbox-alt</title>
<path fill="#fff" d="M128.333 151.667h23.333c6.443 0 11.667-5.223 11.667-11.667s-5.223-11.667-11.667-11.667v0h-23.333c-6.443 0-11.667 5.223-11.667 11.667s5.223 11.667 11.667 11.667v0zM221.667 233.333h-11.667v-128.333h11.667c6.443 0 11.667-5.223 11.667-11.667s-5.223-11.667-11.667-11.667v0h-12.717c-5.959-33.119-34.558-57.921-68.95-57.921s-62.991 24.802-68.886 57.495l-0.064 0.426h-12.717c-6.443 0-11.667 5.223-11.667 11.667s5.223 11.667 11.667 11.667v0h11.667v128.333h-11.667c-6.443 0-11.667 5.223-11.667 11.667s5.223 11.667 11.667 11.667v0h163.333c6.443 0 11.667-5.223 11.667-11.667s-5.223-11.667-11.667-11.667v0zM140 46.667c21.565 0.072 39.68 14.761 44.96 34.674l0.073 0.326h-90.067c5.353-20.239 23.468-34.928 45.025-35h0.008zM186.667 233.333h-93.333v-23.333h93.333zM186.667 186.667h-93.333v-81.667h93.333z"></path>
</svg>
