<!-- Generated by IcoMoon.io -->
<svg version="1.1" xmlns="http://www.w3.org/2000/svg" width="280" height="280" viewBox="0 0 280 280">
<title>ul-map</title>
<path fill="#fff" d="M248.733 58.917l-70-23.333h-0.817c-0.245-0.026-0.529-0.041-0.817-0.041s-0.572 0.015-0.852 0.044l0.035-0.003h-5.017l-66.267 22.75-66.267-22.75c-1.090-0.372-2.347-0.587-3.653-0.587-2.573 0-4.951 0.833-6.879 2.243l0.033-0.023c-2.967 2.131-4.881 5.565-4.9 9.447v163.336c0 0.009 0 0.019 0 0.030 0 5.107 3.282 9.448 7.851 11.029l0.082 0.025 70 23.333c1.080 0.364 2.324 0.575 3.617 0.575s2.537-0.21 3.699-0.599l-0.082 0.024 66.5-22.167 66.267 22.75c0.561 0.080 1.208 0.126 1.867 0.126s1.306-0.046 1.94-0.135l-0.073 0.008c0.046 0.001 0.1 0.001 0.154 0.001 2.495 0 4.796-0.833 6.639-2.237l-0.027 0.020c2.967-2.131 4.881-5.565 4.9-9.447v-163.336c0-0.009 0-0.019 0-0.030 0-5.107-3.282-9.448-7.851-11.029l-0.082-0.025zM93.333 217.117l-46.667-15.517v-138.717l46.667 15.517zM163.333 201.6l-46.667 15.517v-138.717l46.667-15.517zM233.333 217.117l-46.667-15.517v-138.717l46.667 15.517z"></path>
</svg>
