<!-- Generated by IcoMoon.io -->
<svg version="1.1" xmlns="http://www.w3.org/2000/svg" width="280" height="280" viewBox="0 0 280 280">
<title>ul-moneybag</title>
<path fill="#fff" d="M140 128.333c-19.33 0-35 15.67-35 35s15.67 35 35 35c19.33 0 35-15.67 35-35v0c0-19.33-15.67-35-35-35v0zM140 175c-6.443 0-11.667-5.223-11.667-11.667s5.223-11.667 11.667-11.667c6.443 0 11.667 5.223 11.667 11.667v0c0 6.443-5.223 11.667-11.667 11.667v0zM221.667 70h-35v-11.667c0-19.33-15.67-35-35-35v0h-23.333c-19.33 0-35 15.67-35 35v0 11.667h-35c-19.33 0-35 15.67-35 35v0 116.667c0 19.33 15.67 35 35 35v0h163.333c19.33 0 35-15.67 35-35v0-116.667c0-19.33-15.67-35-35-35v0zM116.667 58.333c0-6.443 5.223-11.667 11.667-11.667v0h23.333c6.443 0 11.667 5.223 11.667 11.667v0 11.667h-46.667zM46.667 105c0-6.443 5.223-11.667 11.667-11.667v0h11.667c0 12.887-10.447 23.333-23.333 23.333v0zM58.333 233.333c-6.443 0-11.667-5.223-11.667-11.667v0-11.667c12.887 0 23.333 10.447 23.333 23.333v0zM233.333 221.667c0 6.443-5.223 11.667-11.667 11.667v0h-11.667c0-12.887 10.447-23.333 23.333-23.333v0zM233.333 186.667c-25.773 0-46.667 20.893-46.667 46.667v0h-93.333c0-25.773-20.893-46.667-46.667-46.667v0-46.667c25.773 0 46.667-20.893 46.667-46.667v0h93.333c0 25.773 20.893 46.667 46.667 46.667v0zM233.333 116.667c-12.887 0-23.333-10.447-23.333-23.333v0h11.667c6.443 0 11.667 5.223 11.667 11.667v0z"></path>
</svg>
