<!-- Generated by IcoMoon.io -->
<svg version="1.1" xmlns="http://www.w3.org/2000/svg" width="280" height="280" viewBox="0 0 280 280">
<title>ul-navigator</title>
<path fill="#fff" d="M235.317 107.683l-163.333-67.433c-3.955-1.682-8.555-2.66-13.383-2.66-19.33 0-35 15.67-35 35 0 3.87 0.628 7.593 1.788 11.074l-0.071-0.247 17.967 56.583-18.433 56.583c-1.135 3.298-1.79 7.097-1.79 11.050 0 10.147 4.318 19.286 11.217 25.679l0.023 0.021c6.114 5.683 14.3 9.209 23.309 9.333l0.025 0c4.842-0.003 9.454-0.99 13.646-2.77l-0.229 0.086 163.917-67.433c12.767-5.411 21.56-17.837 21.56-32.317s-8.793-26.906-21.331-32.23l-0.229-0.086zM62.533 218.167c-1.315 0.558-2.844 0.882-4.449 0.882-3.060 0-5.845-1.178-7.926-3.105l0.008 0.007c-2.224-2.128-3.607-5.12-3.607-8.435 0-1.151 0.167-2.264 0.477-3.314l-0.021 0.083 17.033-52.617h160.183zM64.050 128.333l-17.383-52.15c-0.29-0.968-0.457-2.081-0.457-3.232 0-3.315 1.383-6.307 3.602-8.431l0.004-0.004c2.129-2.23 5.125-3.617 8.445-3.617 0.025 0 0.051 0 0.076 0h-0.004c1.644 0.003 3.208 0.346 4.625 0.962l-0.075-0.029 161.35 66.5z"></path>
</svg>
