<!-- Generated by IcoMoon.io -->
<svg version="1.1" xmlns="http://www.w3.org/2000/svg" width="280" height="280" viewBox="0 0 280 280">
<title>ul-presentation-play</title>
<path fill="#fff" d="M245 163.333h-11.667v-116.667h11.667c6.443 0 11.667-5.223 11.667-11.667s-5.223-11.667-11.667-11.667v0h-210c-6.443 0-11.667 5.223-11.667 11.667s5.223 11.667 11.667 11.667v0h11.667v116.667h-11.667c-6.443 0-11.667 5.223-11.667 11.667s5.223 11.667 11.667 11.667v0h93.333v13.417l-53.083 35c-3.339 2.092-5.526 5.75-5.526 9.92 0 6.443 5.223 11.667 11.667 11.667 0.097 0 0.194-0.001 0.29-0.004l-0.014 0c0.037 0.001 0.081 0.001 0.126 0.001 2.356 0 4.538-0.743 6.326-2.007l-0.034 0.023 40.25-26.6v16.917c0 6.443 5.223 11.667 11.667 11.667s11.667-5.223 11.667-11.667v0-16.917l40.25 26.6c1.753 1.241 3.935 1.984 6.291 1.984 0.044 0 0.088-0 0.132-0.001h-0.007c6.404-0.051 11.577-5.255 11.577-11.666 0-4.017-2.030-7.559-5.119-9.658l-0.041-0.026-53.083-35v-13.65h93.333c6.443 0 11.667-5.223 11.667-11.667s-5.223-11.667-11.667-11.667v0zM210 163.333h-140v-116.667h140zM112.117 143.033c2.936 1.763 6.48 2.806 10.267 2.806s7.33-1.043 10.358-2.857l-0.092 0.051 35-20.3c5.914-3.674 9.792-10.134 9.792-17.5s-3.879-13.826-9.705-17.449l-35.087-20.351c-2.936-1.763-6.48-2.806-10.267-2.806s-7.33 1.043-10.358 2.857l0.092-0.051c-6.105 3.489-10.153 9.961-10.153 17.379 0 0.125 0.001 0.249 0.004 0.373l-0-0.019v40.6c0.042 7.374 4.078 13.795 10.052 17.215l0.098 0.051zM125.3 89.6l26.367 15.4-26.6 15.4z"></path>
</svg>
