<!-- Generated by IcoMoon.io -->
<svg version="1.1" xmlns="http://www.w3.org/2000/svg" width="280" height="280" viewBox="0 0 280 280">
<title>ul-phone-volume</title>
<path fill="#fff" d="M226.45 151.667c-2.567 0-5.25-0.817-7.817-1.4-6.019-1.355-11.127-2.92-16.071-4.816l0.788 0.266c-2.373-0.891-5.115-1.406-7.977-1.406-9.151 0-17.072 5.268-20.895 12.937l-0.061 0.135-2.567 5.367c-11.84-6.782-22.062-14.515-31.189-23.37l0.039 0.037c-8.818-9.088-16.551-19.31-22.938-30.405l-0.396-0.745 5.367-2.45c7.804-3.884 13.073-11.805 13.073-20.956 0-2.862-0.515-5.605-1.459-8.138l0.052 0.161c-1.603-4.151-3.167-9.298-4.389-14.577l-0.161-0.823c-0.583-2.567-1.050-5.25-1.4-7.817-2.941-16.605-17.262-29.054-34.491-29.054-0.179 0-0.357 0.001-0.536 0.004l0.027-0h-35.117c-0.014 0-0.030 0-0.046 0-10.35 0-19.651 4.493-26.059 11.634l-0.029 0.033c-5.487 6.152-8.84 14.311-8.84 23.252 0 1.675 0.118 3.321 0.345 4.933l-0.021-0.185c6.771 50.516 29.609 94.754 63.121 128.337l-0.004-0.004c33.58 33.508 77.818 56.346 127.189 62.991l1.144 0.126c0.681 0.055 1.474 0.087 2.275 0.087s1.594-0.031 2.379-0.093l-0.104 0.007c0.015 0 0.033 0 0.051 0 8.956 0 17.126-3.364 23.316-8.897l-0.034 0.030c7.174-6.437 11.667-15.737 11.667-26.088 0-0.016 0-0.032 0-0.048v0.002-35c-0.136-16.823-12.119-30.808-28.009-34.029l-0.225-0.038zM232.167 221.667c-0.008 3.422-1.488 6.496-3.84 8.624l-0.010 0.009c-2.065 1.887-4.826 3.043-7.857 3.043-0.603 0-1.196-0.046-1.774-0.134l0.065 0.008c-45.298-6.071-84.981-26.498-115.161-56.477l0.011 0.011c-30.207-30.207-50.806-70.022-56.819-114.467l-0.114-1.033c-0.080-0.514-0.126-1.106-0.126-1.71 0-3.031 1.156-5.792 3.051-7.866l-0.008 0.009c2.144-2.369 5.229-3.85 8.661-3.85 0.031 0 0.062 0 0.094 0h34.995c0.085-0.002 0.185-0.004 0.285-0.004 5.535 0 10.169 3.854 11.366 9.025l0.015 0.079c0 3.15 1.050 6.417 1.75 9.567 1.565 7.034 3.41 13.040 5.666 18.841l-0.299-0.875-16.333 7.7c-2.804 1.309-4.96 3.616-6.040 6.453l-0.027 0.080c-0.553 1.311-0.875 2.834-0.875 4.433s0.322 3.123 0.904 4.51l-0.029-0.077c17.13 36.11 45.557 64.536 80.644 81.229l1.023 0.438c1.311 0.553 2.834 0.875 4.433 0.875s3.123-0.322 4.51-0.904l-0.077 0.029c2.918-1.107 5.225-3.262 6.503-5.995l0.030-0.072 7.35-16.333c4.978 1.903 11.142 3.749 17.464 5.182l0.969 0.185c3.033 0.7 6.3 1.283 9.45 1.75 5.249 1.212 9.104 5.847 9.104 11.382 0 0.1-0.001 0.2-0.004 0.3l0-0.015zM163.333 23.333c-2.683 0-5.483 0-8.167 0-6.025 0.527-10.717 5.549-10.717 11.667 0 6.467 5.242 11.709 11.709 11.709 0.349 0 0.695-0.015 1.036-0.045l-0.044 0.003h6.183c38.66 0 70 31.34 70 70v0c0 2.1 0 4.083 0 6.183-0.026 0.293-0.041 0.633-0.041 0.977 0 6.088 4.663 11.087 10.613 11.62l0.045 0.003h0.933c0.014 0 0.031 0 0.047 0 6.074 0 11.063-4.641 11.616-10.571l0.004-0.046c0-2.683 0-5.483 0-8.167 0-51.506-41.72-93.267-93.21-93.333h-0.006zM186.667 116.667c0 6.443 5.223 11.667 11.667 11.667s11.667-5.223 11.667-11.667v0c0-25.773-20.893-46.667-46.667-46.667v0c-6.443 0-11.667 5.223-11.667 11.667s5.223 11.667 11.667 11.667v0c12.887 0 23.333 10.447 23.333 23.333v0z"></path>
</svg>
