<!-- Generated by IcoMoon.io -->
<svg version="1.1" xmlns="http://www.w3.org/2000/svg" width="280" height="280" viewBox="0 0 280 280">
<title>ul-postcard</title>
<path fill="#fff" d="M198.333 128.333h11.667c6.443 0 11.667-5.223 11.667-11.667v0-11.667c0-6.443-5.223-11.667-11.667-11.667v0h-11.667c-6.443 0-11.667 5.223-11.667 11.667v0 11.667c0 6.443 5.223 11.667 11.667 11.667v0zM70 140h58.333c6.443 0 11.667-5.223 11.667-11.667s-5.223-11.667-11.667-11.667v0h-58.333c-6.443 0-11.667 5.223-11.667 11.667s5.223 11.667 11.667 11.667v0zM256.667 46.667h-233.333c-6.443 0-11.667 5.223-11.667 11.667v0 163.333c0 6.443 5.223 11.667 11.667 11.667v0h233.333c6.443 0 11.667-5.223 11.667-11.667v0-163.333c0-6.443-5.223-11.667-11.667-11.667v0zM245 210h-210v-140h210zM70 186.667h58.333c6.443 0 11.667-5.223 11.667-11.667s-5.223-11.667-11.667-11.667v0h-58.333c-6.443 0-11.667 5.223-11.667 11.667s5.223 11.667 11.667 11.667v0z"></path>
</svg>
