<!-- Generated by IcoMoon.io -->
<svg version="1.1" xmlns="http://www.w3.org/2000/svg" width="280" height="280" viewBox="0 0 280 280">
<title>ul-question</title>
<path fill="#fff" d="M178.88 110.833c-0.001-22.552-18.283-40.834-40.835-40.834-15.035 0-28.171 8.125-35.259 20.224l-0.104 0.193c-0.981 1.672-1.56 3.683-1.56 5.828 0 6.444 5.224 11.668 11.668 11.668 4.295 0 8.047-2.32 10.073-5.775l0.030-0.055c3.086-5.263 8.713-8.742 15.152-8.75h0.001c9.665 0 17.5 7.835 17.5 17.5s-7.835 17.5-17.5 17.5v0h-0.028c-0.82 0.084-1.569 0.243-2.286 0.473l0.078-0.022c-0.863 0.091-1.649 0.258-2.402 0.498l0.085-0.023c-0.689 0.378-1.283 0.783-1.834 1.239l0.019-0.015c-0.718 0.394-1.336 0.818-1.909 1.296l0.019-0.015c-0.5 0.593-0.953 1.257-1.335 1.964l-0.031 0.062c-0.401 0.492-0.774 1.042-1.098 1.624l-0.030 0.058c-0.236 0.718-0.412 1.557-0.496 2.424l-0.004 0.049c-0.187 0.592-0.333 1.29-0.411 2.008l-0.004 0.049v11.667l0.027 0.132 0.013 5.729c0.017 6.431 5.234 11.637 11.666 11.638h0.028c6.431-0.017 11.638-5.234 11.638-11.667 0-0.010 0-0.020 0-0.029v0.002l-0.018-7.716c16.945-5.154 29.076-20.612 29.145-38.914v-0.008zM129.849 190.050c-2.131 2.114-3.451 5.045-3.451 8.284 0 6.425 5.194 11.637 11.612 11.666h0.003c3.223-0.027 6.141-1.312 8.292-3.387l-0.004 0.004c2.089-2.134 3.378-5.058 3.378-8.283s-1.289-6.149-3.38-8.285l0.002 0.002c-2.149-2.007-5.044-3.239-8.226-3.239s-6.077 1.232-8.232 3.245l0.007-0.007z"></path>
</svg>
