<!-- Generated by IcoMoon.io -->
<svg version="1.1" xmlns="http://www.w3.org/2000/svg" width="280" height="280" viewBox="0 0 280 280">
<title>ul-redo</title>
<path fill="#fff" d="M245 128.333c-6.443 0-11.667 5.223-11.667 11.667v0c0.001 0.177 0.002 0.387 0.002 0.597 0 51.869-42.048 93.917-93.917 93.917s-93.917-42.048-93.917-93.917c0-51.869 42.048-93.917 93.917-93.917 26.743 0 50.875 11.178 67.979 29.116l0.036 0.037h-28c-6.443 0-11.667 5.223-11.667 11.667s5.223 11.667 11.667 11.667v0h52.85c6.443 0 11.667-5.223 11.667-11.667v0-52.5c0-6.443-5.223-11.667-11.667-11.667s-11.667 5.223-11.667 11.667v0 20.65c-20.909-20.014-49.324-32.334-80.617-32.334-64.433 0-116.667 52.233-116.667 116.667s52.233 116.667 116.667 116.667c64.427 0 116.657-52.224 116.667-116.649v-0.001c0-6.443-5.223-11.667-11.667-11.667v0z"></path>
</svg>
