<!-- Generated by IcoMoon.io -->
<svg version="1.1" xmlns="http://www.w3.org/2000/svg" width="280" height="280" viewBox="0 0 280 280">
<title>ul-rope-way</title>
<path fill="#fff" d="M221.667 75.833h-70v-29.167h53.9c6.443 0 11.667-5.223 11.667-11.667s-5.223-11.667-11.667-11.667v0h-131.133c-6.443 0-11.667 5.223-11.667 11.667s5.223 11.667 11.667 11.667v0h53.9v29.167h-70c-19.33 0-35 15.67-35 35v0 110.833c0 19.33 15.67 35 35 35v0h163.333c19.33 0 35-15.67 35-35v0-110.833c0-19.33-15.67-35-35-35v0zM128.333 233.333h-70c-6.443 0-11.667-5.223-11.667-11.667v0-43.75h81.667c-0.031 0.228-0.049 0.491-0.049 0.758s0.018 0.53 0.053 0.788l-0.003-0.030v52.5c-0.025 0.21-0.040 0.453-0.040 0.7s0.014 0.49 0.043 0.729l-0.003-0.029zM233.333 221.667c0 6.443-5.223 11.667-11.667 11.667v0h-70c0.025-0.21 0.040-0.453 0.040-0.7s-0.014-0.49-0.043-0.729l0.003 0.029v-52.5c0.031-0.228 0.049-0.491 0.049-0.758s-0.018-0.53-0.053-0.788l0.003 0.030h81.667zM233.333 154.583h-186.667v-43.75c0-6.443 5.223-11.667 11.667-11.667v0h163.333c6.443 0 11.667 5.223 11.667 11.667v0z"></path>
</svg>
