<!-- Generated by IcoMoon.io -->
<svg version="1.1" xmlns="http://www.w3.org/2000/svg" width="280" height="280" viewBox="0 0 280 280">
<title>ul-stopwatch</title>
<path fill="#fff" d="M213.5 100.217l10.617-10.5c2.12-2.12 3.431-5.048 3.431-8.283 0-6.47-5.245-11.714-11.714-11.714-3.235 0-6.164 1.311-8.283 3.431v0l-10.5 10.617c-15.61-12.169-35.501-19.511-57.108-19.511s-41.499 7.342-57.317 19.667l0.209-0.156-10.617-10.733c-2.124-2.11-5.051-3.414-8.283-3.414-6.492 0-11.756 5.263-11.756 11.756 0 3.261 1.328 6.211 3.472 8.341l0.001 0.001 10.733 10.617c-12.291 15.546-19.717 35.432-19.717 57.052 0 0.040 0 0.081 0 0.121v-0.006c-0 0.071-0 0.155-0 0.239 0 51.547 41.787 93.333 93.333 93.333s93.333-41.787 93.333-93.333c0-21.791-7.468-41.838-19.984-57.721l0.151 0.199zM140 227.5c-38.66 0-70-31.34-70-70s31.34-70 70-70c38.66 0 70 31.34 70 70v0c0 38.66-31.34 70-70 70v0zM116.667 52.5h46.667c6.443 0 11.667-5.223 11.667-11.667s-5.223-11.667-11.667-11.667v0h-46.667c-6.443 0-11.667 5.223-11.667 11.667s5.223 11.667 11.667 11.667v0zM151.667 122.5c0-6.443-5.223-11.667-11.667-11.667s-11.667 5.223-11.667 11.667v0 22.050c-3.587 3.218-5.833 7.869-5.833 13.044 0 9.665 7.835 17.5 17.5 17.5s17.5-7.835 17.5-17.5c0-5.175-2.246-9.825-5.817-13.029l-0.016-0.014z"></path>
</svg>
