<!-- Generated by IcoMoon.io -->
<svg version="1.1" xmlns="http://www.w3.org/2000/svg" width="280" height="280" viewBox="0 0 280 280">
<title>ul-suitcase</title>
<path fill="#fff" d="M221.667 75.833h-35v-11.667c0-19.33-15.67-35-35-35v0h-23.333c-19.33 0-35 15.67-35 35v0 11.667h-35c-19.33 0-35 15.67-35 35v0 105c0 19.33 15.67 35 35 35v0h163.333c19.33 0 35-15.67 35-35v0-105c0-19.33-15.67-35-35-35v0zM116.667 64.167c0-6.443 5.223-11.667 11.667-11.667v0h23.333c6.443 0 11.667 5.223 11.667 11.667v0 11.667h-46.667zM233.333 215.833c0 6.443-5.223 11.667-11.667 11.667v0h-163.333c-6.443 0-11.667-5.223-11.667-11.667v0-58.917h35v12.25c0 6.443 5.223 11.667 11.667 11.667s11.667-5.223 11.667-11.667v0-12.25h70v12.25c0 6.443 5.223 11.667 11.667 11.667s11.667-5.223 11.667-11.667v0-12.25h35zM233.333 134.167h-186.667v-23.333c0-6.443 5.223-11.667 11.667-11.667v0h163.333c6.443 0 11.667 5.223 11.667 11.667v0z"></path>
</svg>
