<!-- Generated by IcoMoon.io -->
<svg version="1.1" xmlns="http://www.w3.org/2000/svg" width="280" height="280" viewBox="0 0 280 280">
<title>ul-sim-card</title>
<path fill="#fff" d="M198.333 40.833h-116.667c-22.552 0-40.833 18.282-40.833 40.833v0 116.667c0 22.552 18.282 40.833 40.833 40.833v0h116.667c22.552 0 40.833-18.282 40.833-40.833v0-116.667c0-22.552-18.282-40.833-40.833-40.833v0zM122.5 64.167h35v35h-35zM99.167 215.833h-17.5c-9.665 0-17.5-7.835-17.5-17.5v0-17.5h35zM157.5 215.833h-35v-35h35zM215.833 198.333c0 9.665-7.835 17.5-17.5 17.5v0h-17.5v-35h35zM215.833 157.5h-151.667v-75.833c0-9.665 7.835-17.5 17.5-17.5v0h17.5v46.667c0 6.443 5.223 11.667 11.667 11.667v0h105zM215.833 99.167h-35v-35h17.5c9.665 0 17.5 7.835 17.5 17.5v0z"></path>
</svg>
