<!-- Generated by IcoMoon.io -->
<svg version="1.1" xmlns="http://www.w3.org/2000/svg" width="280" height="280" viewBox="0 0 280 280">
<title>ul-signal</title>
<path fill="#fff" d="M70 175c-6.443 0-11.667 5.223-11.667 11.667v0 35c0 6.443 5.223 11.667 11.667 11.667s11.667-5.223 11.667-11.667v0-35c0-6.443-5.223-11.667-11.667-11.667v0zM116.667 140c-6.443 0-11.667 5.223-11.667 11.667v0 70c0 6.443 5.223 11.667 11.667 11.667s11.667-5.223 11.667-11.667v0-70c0-6.443-5.223-11.667-11.667-11.667v0zM210 46.667c-6.443 0-11.667 5.223-11.667 11.667v0 163.333c0 6.443 5.223 11.667 11.667 11.667s11.667-5.223 11.667-11.667v0-163.333c0-6.443-5.223-11.667-11.667-11.667v0zM163.333 93.333c-6.443 0-11.667 5.223-11.667 11.667v0 116.667c0 6.443 5.223 11.667 11.667 11.667s11.667-5.223 11.667-11.667v0-116.667c0-6.443-5.223-11.667-11.667-11.667v0z"></path>
</svg>
