<!-- Generated by IcoMoon.io -->
<svg version="1.1" xmlns="http://www.w3.org/2000/svg" width="280" height="280" viewBox="0 0 280 280">
<title>ul-shuffle</title>
<path fill="#fff" d="M35 116.667c6.443 0 11.667-5.223 11.667-11.667v0-41.883l53.2 53.55c2.125 2.203 5.103 3.57 8.4 3.57s6.275-1.368 8.397-3.567l0.003-0.004c2.097-2.109 3.393-5.016 3.393-8.225s-1.296-6.116-3.393-8.226l-53.549-53.549h41.883c6.443 0 11.667-5.223 11.667-11.667s-5.223-11.667-11.667-11.667v0h-70c-1.606 0.020-3.127 0.361-4.509 0.962l0.075-0.029c-2.86 1.209-5.091 3.44-6.271 6.223l-0.029 0.077c-0.572 1.306-0.913 2.827-0.933 4.426v70.007c0 6.443 5.223 11.667 11.667 11.667v0zM178.5 163.333c-2.027-1.744-4.684-2.805-7.589-2.805-6.443 0-11.667 5.223-11.667 11.667 0 2.905 1.062 5.562 2.818 7.604l-0.013-0.015 73.15 73.267c2.108 2.091 5.011 3.384 8.216 3.384 0.024 0 0.047 0 0.071-0h-0.004c0.020 0 0.044 0 0.068 0 3.205 0 6.108-1.292 8.217-3.384l-0.001 0.001c2.131-2.114 3.451-5.045 3.451-8.283s-1.32-6.169-3.45-8.283l-0.001-0.001zM105 233.333h-41.883l190.167-190.050c2.12-2.12 3.431-5.048 3.431-8.283 0-6.47-5.245-11.714-11.714-11.714-3.235 0-6.164 1.311-8.283 3.431l-190.050 190.167v-41.883c0-6.443-5.223-11.667-11.667-11.667s-11.667 5.223-11.667 11.667v0 70c0.020 1.606 0.361 3.127 0.962 4.509l-0.029-0.075c1.209 2.86 3.44 5.091 6.223 6.271l0.077 0.029c1.306 0.572 2.827 0.913 4.426 0.933h70.007c6.443 0 11.667-5.223 11.667-11.667s-5.223-11.667-11.667-11.667v0z"></path>
</svg>
