<!-- Generated by IcoMoon.io -->
<svg version="1.1" xmlns="http://www.w3.org/2000/svg" width="280" height="280" viewBox="0 0 280 280">
<title>ul-smile-wink-alt</title>
<path fill="#fff" d="M105 128.333c6.443 0 11.667-5.223 11.667-11.667s-5.223-11.667-11.667-11.667c-6.443 0-11.667 5.223-11.667 11.667v0c0 6.443 5.223 11.667 11.667 11.667v0zM167.533 166.017c-7.459 6.052-17.068 9.717-27.533 9.717s-20.075-3.665-27.615-9.781l0.081 0.064c-2.009-1.679-4.619-2.698-7.467-2.698-6.451 0-11.681 5.23-11.681 11.681 0 3.603 1.632 6.826 4.196 8.968l0.019 0.015c11.412 9.578 26.26 15.396 42.467 15.396s31.055-5.818 42.569-15.479l-0.102 0.084c2.583-2.158 4.214-5.38 4.214-8.983 0-6.451-5.23-11.681-11.681-11.681-2.848 0-5.458 1.019-7.485 2.713l0.019-0.015zM140 23.333c-64.433 0-116.667 52.233-116.667 116.667s52.233 116.667 116.667 116.667c64.433 0 116.667-52.233 116.667-116.667v0c0-64.433-52.233-116.667-116.667-116.667v0zM140 233.333c-51.547 0-93.333-41.787-93.333-93.333s41.787-93.333 93.333-93.333c51.547 0 93.333 41.787 93.333 93.333v0c0 51.547-41.787 93.333-93.333 93.333v0zM205.567 106.517c-6.429-6.109-15.142-9.867-24.733-9.867s-18.305 3.758-24.749 9.881l0.015-0.014c-1.744 2.027-2.805 4.684-2.805 7.589 0 6.443 5.223 11.667 11.667 11.667 2.905 0 5.562-1.062 7.604-2.818l-0.015 0.013c2.114-2.131 5.045-3.451 8.283-3.451s6.169 1.32 8.283 3.45l0.001 0.001c2.109 2.097 5.016 3.393 8.225 3.393s6.116-1.296 8.226-3.393l-0.001 0.001c2.097-2.109 3.393-5.016 3.393-8.225s-1.296-6.116-3.393-8.226l0.001 0.001z"></path>
</svg>
