<!-- Generated by IcoMoon.io -->
<svg version="1.1" xmlns="http://www.w3.org/2000/svg" width="280" height="280" viewBox="0 0 280 280">
<title>ul-stethoscope</title>
<path fill="#fff" d="M221.667 93.333c-0.026 0-0.057 0-0.088 0-19.282 0-34.913 15.631-34.913 34.913 0 15.132 9.627 28.016 23.090 32.86l0.243 0.077v19.651c0 28.995-23.505 52.5-52.5 52.5s-52.5-23.505-52.5-52.5v0-6.887c33.283-5.802 58.273-34.447 58.333-68.94v-70.007c0-6.443-5.223-11.667-11.667-11.667v0h-23.333c-6.443 0-11.667 5.223-11.667 11.667s5.223 11.667 11.667 11.667v0h11.667v58.333c0 25.773-20.893 46.667-46.667 46.667s-46.667-20.893-46.667-46.667v0-58.333h11.667c6.443 0 11.667-5.223 11.667-11.667s-5.223-11.667-11.667-11.667v0h-23.333c-6.443 0-11.667 5.223-11.667 11.667v0 70c0.060 34.5 25.050 63.145 57.914 68.885l0.419 0.061v6.887c0 41.882 33.952 75.833 75.833 75.833s75.833-33.952 75.833-75.833v0-19.65c13.707-4.921 23.333-17.805 23.333-32.937 0-19.282-15.631-34.913-34.913-34.913-0.030 0-0.061 0-0.091 0h0.005zM221.667 140c-6.443 0-11.667-5.223-11.667-11.667s5.223-11.667 11.667-11.667c6.443 0 11.667 5.223 11.667 11.667v0c-0.009 6.44-5.227 11.658-11.666 11.667h-0.001z"></path>
</svg>
