<!-- Generated by IcoMoon.io -->
<svg version="1.1" xmlns="http://www.w3.org/2000/svg" width="280" height="280" viewBox="0 0 280 280">
<title>ul-shield-question</title>
<path fill="#fff" d="M131.717 171.033c-2.080 2.096-3.37 4.98-3.383 8.164v0.003c0.003 1.644 0.346 3.208 0.963 4.625l-0.029-0.075c1.825 4.206 5.942 7.094 10.733 7.094 6.435 0 11.654-5.211 11.667-11.643v-0.001c-0.014-3.187-1.303-6.070-3.384-8.167l0.001 0.001c-2.114-2.131-5.045-3.451-8.283-3.451s-6.169 1.32-8.283 3.45l-0.001 0.001zM229.017 42.7c-1.986-1.617-4.548-2.596-7.337-2.596-0.872 0-1.722 0.096-2.54 0.277l0.078-0.014c-5.755 1.262-12.365 1.985-19.144 1.985-19.998 0-38.527-6.29-53.717-16.998l0.295 0.197c-1.856-1.302-4.162-2.081-6.65-2.081s-4.794 0.779-6.687 2.106l0.037-0.025c-14.869 10.457-33.351 16.712-53.294 16.712-6.825 0-13.48-0.733-19.888-2.124l0.616 0.112c-0.74-0.167-1.59-0.263-2.463-0.263-2.79 0-5.351 0.979-7.359 2.613l0.021-0.017c-2.643 2.156-4.317 5.413-4.317 9.060 0 0.014 0 0.028 0 0.042v-0.002 86.917c0 0.019 0 0.042 0 0.065 0 35.098 17.22 66.173 43.673 85.239l0.31 0.213 42.583 30.333c1.88 1.352 4.229 2.163 6.767 2.163s4.887-0.81 6.801-2.187l-0.035 0.024 42.583-30.333c26.763-19.278 43.983-50.354 43.983-85.452 0-0.023 0-0.046 0-0.069v0.004-86.917c0-0.012 0-0.026 0-0.040 0-3.648-1.674-6.904-4.296-9.044l-0.021-0.017zM210 138.6c0 0.017 0 0.036 0 0.056 0 27.287-13.383 51.448-33.943 66.279l-0.241 0.165-35.817 25.55-35.817-25.55c-20.801-14.996-34.183-39.157-34.183-66.444 0-0.020 0-0.040 0-0.059v0.003-73.5c2.98 0.271 6.447 0.425 9.949 0.425 22.179 0 42.912-6.189 60.567-16.933l-0.516 0.291c17.139 10.453 37.872 16.642 60.051 16.642 3.502 0 6.969-0.154 10.392-0.457l-0.443 0.031zM140 85.867c-0.007 0-0.014 0-0.022 0-12.887 0-24.147 6.964-30.221 17.335l-0.089 0.165c-0.837 1.569-1.329 3.431-1.329 5.408 0 6.443 5.223 11.667 11.667 11.667 4.121 0 7.742-2.136 9.818-5.362l0.028-0.046c2.055-3.512 5.808-5.833 10.104-5.833 6.443 0 11.667 5.223 11.667 11.667 0 6.427-5.197 11.64-11.618 11.666h-0.002c-6.443 0-11.667 5.223-11.667 11.667s5.223 11.667 11.667 11.667v0c19.33 0 35-15.67 35-35s-15.67-35-35-35v0z"></path>
</svg>
