<!-- Generated by IcoMoon.io -->
<svg version="1.1" xmlns="http://www.w3.org/2000/svg" width="280" height="280" viewBox="0 0 280 280">
<title>ul-shovel</title>
<path fill="#fff" d="M253.283 86.1l-59.383-59.383c-2.109-2.097-5.016-3.393-8.225-3.393s-6.116 1.296-8.226 3.393l0.001-0.001c-2.131 2.114-3.451 5.045-3.451 8.283s1.32 6.169 3.45 8.283l0.001 0.001 20.883 21.35-63.233 63.7-11.667-11.667c-6.338-6.359-15.105-10.294-24.792-10.294s-18.454 3.935-24.791 10.293l-0.001 0.001-40.25 39.9c-6.343 6.335-10.267 15.092-10.267 24.764 0 0.030 0 0.060 0 0.091v-0.005 40.25c0 19.33 15.67 35 35 35v0h40.25c0.025 0 0.056 0 0.086 0 9.673 0 18.429-3.924 24.764-10.266l0-0 39.9-40.017c6.359-6.338 10.294-15.105 10.294-24.792s-3.935-18.454-10.293-24.791l-11.668-11.668 63.7-63.467 21.35 21.35c2.114 2.131 5.045 3.451 8.283 3.451s6.169-1.32 8.283-3.45l0.001-0.001c2.239-2.13 3.631-5.132 3.631-8.458s-1.392-6.328-3.626-8.454l-0.005-0.005zM147 189.817l-40.133 40.133c-2.108 2.091-5.011 3.384-8.216 3.384-0.024 0-0.047 0-0.071-0h-40.246c-6.443 0-11.667-5.223-11.667-11.667v0-40.25c0-0.020-0-0.044-0-0.068 0-3.205 1.292-6.108 3.384-8.217l40.132-40.132c2.109-2.097 5.016-3.393 8.225-3.393s6.116 1.296 8.226 3.393l11.666 11.666-10.383 10.5c-2.097 2.109-3.393 5.016-3.393 8.225s1.296 6.116 3.393 8.226l-0.001-0.001c2.109 2.098 5.017 3.395 8.227 3.395 0.184 0 0.367-0.004 0.548-0.013l-0.026 0.001c3.187-0.014 6.070-1.303 8.167-3.384l-0.001 0.001 10.5-10.383 11.667 11.667c2.239 2.13 3.631 5.132 3.631 8.458s-1.392 6.328-3.626 8.454l-0.005 0.005z"></path>
</svg>
