<!-- Generated by IcoMoon.io -->
<svg version="1.1" xmlns="http://www.w3.org/2000/svg" width="280" height="280" viewBox="0 0 280 280">
<title>ul-sign-alt</title>
<path fill="#fff" d="M254.1 138.6l-23.333-29.167c-2.145-2.697-5.42-4.416-9.097-4.433h-70.003v-70c0-6.443-5.223-11.667-11.667-11.667s-11.667 5.223-11.667 11.667v0 11.667h-70c-3.68 0.017-6.955 1.736-9.082 4.409l-0.018 0.024-23.333 29.167c-1.566 1.968-2.513 4.49-2.513 7.233s0.947 5.265 2.531 7.257l-0.018-0.024 23.333 29.167c2.145 2.697 5.42 4.416 9.097 4.433h70.003v105h-23.333c-6.443 0-11.667 5.223-11.667 11.667s5.223 11.667 11.667 11.667v0h70c6.443 0 11.667-5.223 11.667-11.667s-5.223-11.667-11.667-11.667v0h-23.333v-46.667h70c3.68-0.017 6.955-1.736 9.082-4.409l0.018-0.024 23.333-29.167c1.566-1.968 2.513-4.49 2.513-7.233s-0.947-5.265-2.531-7.257l0.018 0.024zM128.333 105h-64.4l-14-17.5 14-17.5h64.4zM216.067 163.333h-64.4v-35h64.4l14 17.5z"></path>
</svg>
