<!-- Generated by IcoMoon.io -->
<svg version="1.1" xmlns="http://www.w3.org/2000/svg" width="280" height="280" viewBox="0 0 280 280">
<title>ul-sign-right</title>
<path fill="#fff" d="M81.667 70v58.333c0 6.443 5.223 11.667 11.667 11.667v0h35v93.333h-23.333c-6.443 0-11.667 5.223-11.667 11.667s5.223 11.667 11.667 11.667v0h70c6.443 0 11.667-5.223 11.667-11.667s-5.223-11.667-11.667-11.667v0h-23.333v-93.333h58.333c0.012 0 0.026 0 0.040 0 3.648 0 6.904-1.674 9.044-4.296l0.017-0.021 23.333-29.167c1.594-1.978 2.559-4.522 2.559-7.292s-0.965-5.313-2.577-7.314l0.017 0.022-23.333-29.167c-2.145-2.697-5.42-4.416-9.097-4.433h-58.336v-23.333c0-6.443-5.223-11.667-11.667-11.667s-11.667 5.223-11.667 11.667v0 23.333h-35c-6.443 0-11.667 5.223-11.667 11.667v0zM105 81.667h99.4l14 17.5-14 17.5h-99.4z"></path>
</svg>
