<!-- Generated by IcoMoon.io -->
<svg version="1.1" xmlns="http://www.w3.org/2000/svg" width="280" height="280" viewBox="0 0 280 280">
<title>ul-tv-retro-slash</title>
<path fill="#fff" d="M135.567 92.4c1.306 0.572 2.827 0.913 4.426 0.933h70.007c6.443 0 11.667 5.223 11.667 11.667v0 62.3c0 6.443 5.223 11.667 11.667 11.667s11.667-5.223 11.667-11.667v0-62.3c0-19.33-15.67-35-35-35v0h-41.883l26.833-26.717c2.12-2.12 3.431-5.048 3.431-8.283 0-6.47-5.245-11.714-11.714-11.714-3.235 0-6.164 1.311-8.283 3.431l-46.667 46.667c-1.032 1.077-1.862 2.356-2.422 3.771l-0.028 0.079c-0.553 1.311-0.875 2.834-0.875 4.433s0.322 3.123 0.904 4.51l-0.029-0.077c1.209 2.86 3.44 5.091 6.223 6.271l0.077 0.029zM253.283 236.717l-210-210c-2.12-2.12-5.048-3.431-8.283-3.431-6.47 0-11.714 5.245-11.714 11.714 0 3.235 1.311 6.164 3.431 8.283v0l29.633 29.517c-12.645 5.456-21.338 17.811-21.35 32.198v93.335c0 19.33 15.67 35 35 35v0 11.667c0 6.443 5.223 11.667 11.667 11.667s11.667-5.223 11.667-11.667v0-11.667h93.333v11.667c0 6.443 5.223 11.667 11.667 11.667s11.667-5.223 11.667-11.667v0-11.667c2.224-0.059 4.353-0.311 6.416-0.74l-0.232 0.040 20.533 20.65c2.114 2.131 5.045 3.451 8.283 3.451s6.169-1.32 8.283-3.45l0.001-0.001c2.131-2.114 3.451-5.045 3.451-8.283s-1.32-6.169-3.45-8.283l-0.001-0.001zM70 210c-6.443 0-11.667-5.223-11.667-11.667v0-93.333c0-6.443 5.223-11.667 11.667-11.667v0h6.883l116.667 116.667z"></path>
</svg>
