<!-- Generated by IcoMoon.io -->
<svg version="1.1" xmlns="http://www.w3.org/2000/svg" width="280" height="280" viewBox="0 0 280 280">
<title>ul-tablet</title>
<path fill="#fff" d="M198.333 23.333h-116.667c-19.33 0-35 15.67-35 35v0 163.333c0 19.33 15.67 35 35 35v0h116.667c19.33 0 35-15.67 35-35v0-163.333c0-19.33-15.67-35-35-35v0zM210 221.667c0 6.443-5.223 11.667-11.667 11.667v0h-116.667c-6.443 0-11.667-5.223-11.667-11.667v0-163.333c0-6.443 5.223-11.667 11.667-11.667v0h116.667c6.443 0 11.667 5.223 11.667 11.667v0zM148.283 190.050c-2.127-2.215-5.113-3.592-8.421-3.592-0.777 0-1.536 0.076-2.27 0.221l0.074-0.012-2.1 0.7c-0.801 0.279-1.495 0.634-2.13 1.070l0.030-0.020-1.75 1.4c-1.032 1.077-1.862 2.356-2.422 3.771l-0.028 0.079c-0.577 1.335-0.912 2.89-0.912 4.522 0 3.194 1.284 6.089 3.363 8.195l-0.001-0.001c1.114 0.989 2.38 1.845 3.75 2.522l0.1 0.045c1.313 0.555 2.838 0.878 4.44 0.878 3.235 0 6.163-1.317 8.276-3.444l0.001-0.001c2.054-2.069 3.337-4.905 3.383-8.041v-0.009c0.002-0.075 0.003-0.164 0.003-0.252 0-1.519-0.345-2.957-0.962-4.24l0.025 0.059c-0.628-1.483-1.453-2.756-2.46-3.861l0.010 0.011z"></path>
</svg>
