<!-- Generated by IcoMoon.io -->
<svg version="1.1" xmlns="http://www.w3.org/2000/svg" width="280" height="280" viewBox="0 0 280 280">
<title>ul-tachometer-fast</title>
<path fill="#fff" d="M178.383 120.050l-32.433 32.433c-1.777-0.492-3.823-0.788-5.933-0.816l-0.017-0c-12.887 0-23.333 10.447-23.333 23.333v0c0.028 2.127 0.325 4.173 0.856 6.121l-0.040-0.171-9.1 9.1c-2.131 2.114-3.451 5.045-3.451 8.283s1.32 6.169 3.45 8.283l0.001 0.001c2.114 2.131 5.045 3.451 8.283 3.451s6.169-1.32 8.283-3.45l9.101-9.101c1.777 0.492 3.823 0.788 5.933 0.816l0.017 0c12.887 0 23.333-10.447 23.333-23.333v0c-0.028-2.127-0.325-4.173-0.856-6.121l0.040 0.171 32.433-32.433c2.12-2.12 3.431-5.048 3.431-8.283 0-6.47-5.245-11.714-11.714-11.714-3.235 0-6.164 1.311-8.283 3.431v0zM140 46.667c-64.433 0-116.667 52.233-116.667 116.667v0c-0 0.085-0 0.186-0 0.287 0 24.091 7.369 46.462 19.975 64.981l-0.258-0.401c2.129 3.124 5.67 5.148 9.683 5.148 6.451 0 11.681-5.23 11.681-11.681 0-2.438-0.747-4.701-2.024-6.574l0.026 0.040c-9.866-14.572-15.75-32.541-15.75-51.884 0-51.547 41.787-93.333 93.333-93.333s93.333 41.787 93.333 93.333c0 19.343-5.884 37.312-15.96 52.214l0.21-0.33c-1.255 1.833-2.003 4.097-2.003 6.537 0 4.014 2.027 7.554 5.113 9.653l0.040 0.026c1.826 1.242 4.080 1.983 6.507 1.983 0.009 0 0.018 0 0.028 0h-0.001c0.005 0 0.011 0 0.017 0 4.005 0 7.539-2.018 9.64-5.093l0.026-0.040c12.348-18.117 19.717-40.488 19.717-64.579 0-0.101 0-0.202-0-0.303v0.016c0-64.433-52.233-116.667-116.667-116.667v0z"></path>
</svg>
