<!-- Generated by IcoMoon.io -->
<svg version="1.1" xmlns="http://www.w3.org/2000/svg" width="280" height="280" viewBox="0 0 280 280">
<title>ul-tv-retro</title>
<path fill="#fff" d="M210 70h-41.883l26.833-26.717c2.12-2.12 3.431-5.048 3.431-8.283 0-6.47-5.245-11.714-11.714-11.714-3.235 0-6.164 1.311-8.283 3.431v0l-38.383 37.917-13.65-23.333c-2.059-3.535-5.832-5.873-10.15-5.873-6.465 0-11.707 5.241-11.707 11.707 0 2.147 0.578 4.159 1.587 5.889l-0.030-0.056 10.617 17.033h-46.667c-19.33 0-35 15.67-35 35v0 93.333c0 19.33 15.67 35 35 35v0 11.667c0 6.443 5.223 11.667 11.667 11.667s11.667-5.223 11.667-11.667v0-11.667h93.333v11.667c0 6.443 5.223 11.667 11.667 11.667s11.667-5.223 11.667-11.667v0-11.667c19.33 0 35-15.67 35-35v0-93.333c0-19.33-15.67-35-35-35v0zM221.667 198.333c0 6.443-5.223 11.667-11.667 11.667v0h-140c-6.443 0-11.667-5.223-11.667-11.667v0-93.333c0-6.443 5.223-11.667 11.667-11.667v0h140c6.443 0 11.667 5.223 11.667 11.667v0z"></path>
</svg>
