<!-- Generated by IcoMoon.io -->
<svg version="1.1" xmlns="http://www.w3.org/2000/svg" width="280" height="280" viewBox="0 0 280 280">
<title>ul-utensils</title>
<path fill="#fff" d="M221.667 23.333c-6.443 0-11.667 5.223-11.667 11.667v0 63.7l-11.667 7.817v-71.517c0-6.443-5.223-11.667-11.667-11.667s-11.667 5.223-11.667 11.667v0 71.517l-11.667-7.817v-63.7c0-6.443-5.223-11.667-11.667-11.667s-11.667 5.223-11.667 11.667v0 70c0.022 4.032 2.085 7.577 5.207 9.656l0.043 0.027 29.75 19.95v110.367c0 6.443 5.223 11.667 11.667 11.667s11.667-5.223 11.667-11.667v0-110.367l29.75-19.95c3.165-2.107 5.228-5.652 5.25-9.68v-70.003c0-6.443-5.223-11.667-11.667-11.667v0zM105 23.333v0c-32.217 0-58.333 26.117-58.333 58.333v0 70c0 6.443 5.223 11.667 11.667 11.667v0h35v81.667c0 6.443 5.223 11.667 11.667 11.667s11.667-5.223 11.667-11.667v0-210c0-6.443-5.223-11.667-11.667-11.667v0zM93.333 140h-23.333v-58.333c0-0.005 0-0.012 0-0.018 0-15.148 9.623-28.048 23.090-32.921l0.244-0.077z"></path>
</svg>
