<!-- Generated by IcoMoon.io -->
<svg version="1.1" xmlns="http://www.w3.org/2000/svg" width="280" height="280" viewBox="0 0 280 280">
<title>ul-unamused</title>
<path fill="#fff" d="M171.033 158.2l-48.883 17.5c-4.523 1.675-7.688 5.951-7.688 10.967 0 6.398 5.15 11.593 11.531 11.666h0.007c1.424-0.002 2.787-0.258 4.047-0.726l-0.081 0.026 49-17.5c4.692-1.582 8.010-5.943 8.010-11.079 0-6.443-5.223-11.667-11.667-11.667-1.54 0-3.010 0.298-4.355 0.84l0.078-0.028zM124.367 123.2c2.097-2.109 3.393-5.016 3.393-8.225s-1.296-6.116-3.393-8.226l0.001 0.001c-6.429-6.109-15.142-9.867-24.733-9.867s-18.305 3.758-24.749 9.881l0.015-0.014c-2.503 2.153-4.078 5.323-4.078 8.861 0 6.443 5.223 11.667 11.667 11.667 3.538 0 6.709-1.575 8.848-4.063l0.013-0.015c2.114-2.131 5.045-3.451 8.283-3.451s6.169 1.32 8.283 3.45l0.001 0.001c2.109 2.097 5.016 3.393 8.225 3.393s6.116-1.296 8.226-3.393l-0.001 0.001zM206.033 106.75c-6.429-6.109-15.142-9.867-24.733-9.867s-18.305 3.758-24.749 9.881l0.015-0.014c-1.744 2.027-2.805 4.684-2.805 7.589 0 6.443 5.223 11.667 11.667 11.667 2.905 0 5.562-1.062 7.604-2.818l-0.015 0.013c2.114-2.131 5.045-3.451 8.283-3.451s6.169 1.32 8.283 3.45l0.001 0.001c2.109 2.097 5.016 3.393 8.225 3.393s6.116-1.296 8.226-3.393l-0.001 0.001c2.031-2.097 3.283-4.959 3.283-8.114 0-3.384-1.441-6.432-3.743-8.563l-0.008-0.007zM140 23.333c-64.433 0-116.667 52.233-116.667 116.667s52.233 116.667 116.667 116.667c64.433 0 116.667-52.233 116.667-116.667v0c0-64.433-52.233-116.667-116.667-116.667v0zM140 233.333c-51.547 0-93.333-41.787-93.333-93.333s41.787-93.333 93.333-93.333c51.547 0 93.333 41.787 93.333 93.333v0c0 51.547-41.787 93.333-93.333 93.333v0z"></path>
</svg>
