<!-- Generated by IcoMoon.io -->
<svg version="1.1" xmlns="http://www.w3.org/2000/svg" width="280" height="280" viewBox="0 0 280 280">
<title>ul-users-alt</title>
<path fill="#fff" d="M143.5 142.567c12.178-10.583 19.833-26.097 19.833-43.399 0-0 0-0.001 0-0.001v0c0-32.217-26.117-58.333-58.333-58.333s-58.333 26.117-58.333 58.333v0c0 0 0 0.001 0 0.001 0 17.302 7.655 32.816 19.763 43.34l0.070 0.060c-32.58 15.014-54.796 47.375-54.833 84.928v0.005c0 6.443 5.223 11.667 11.667 11.667s11.667-5.223 11.667-11.667v0c0-38.66 31.34-70 70-70s70 31.34 70 70v0c0 6.443 5.223 11.667 11.667 11.667s11.667-5.223 11.667-11.667v0c-0.037-37.558-22.253-69.919-54.255-84.694l-0.579-0.24zM105 134.167c-19.33 0-35-15.67-35-35s15.67-35 35-35c19.33 0 35 15.67 35 35v0c0 19.33-15.67 35-35 35v0zM218.633 137.9c9.134-10.25 14.716-23.84 14.716-38.733 0-32.217-26.117-58.333-58.333-58.333-0.005 0-0.011 0-0.016 0h0.001c-6.443 0-11.667 5.223-11.667 11.667s5.223 11.667 11.667 11.667v0c19.33 0 35 15.67 35 35v0c-0.036 12.85-6.991 24.068-17.335 30.127l-0.165 0.089c-3.428 2.003-5.72 5.622-5.833 9.784l-0 0.016c-0.002 0.086-0.004 0.186-0.004 0.287 0 4.056 2.070 7.629 5.211 9.719l0.043 0.027 4.55 3.033 1.517 0.817c27.817 13.418 46.669 41.401 46.669 73.788 0 0.227-0.001 0.454-0.003 0.68l0-0.035c0 6.443 5.223 11.667 11.667 11.667s11.667-5.223 11.667-11.667v0c0.001-0.166 0.001-0.363 0.001-0.559 0-37.368-19.521-70.177-48.921-88.786l-0.43-0.255z"></path>
</svg>
