<!-- Generated by IcoMoon.io -->
<svg version="1.1" xmlns="http://www.w3.org/2000/svg" width="280" height="280" viewBox="0 0 280 280">
<title>ul-vk</title>
<path fill="#fff" d="M175.851 23.333h-71.58c-65.382 0-80.938 15.555-80.938 80.816v71.58c0 65.382 15.434 80.938 80.816 80.938h71.58c65.382 0 80.937-15.434 80.937-80.816v-71.579c0-65.382-15.434-80.938-80.816-80.938zM211.701 189.826h-17.014c-6.441 0-8.386-5.226-19.93-16.771-10.087-9.722-14.34-10.938-16.893-10.938-3.524 0-4.497 0.972-4.497 5.833v15.313c0 4.132-1.337 6.563-12.152 6.563-21.913-1.516-40.747-13.45-51.731-30.838l-0.161-0.273c-12.723-15.731-22.088-34.713-26.69-55.488l-0.168-0.901c0-2.552 0.972-4.861 5.833-4.861h17.014c4.375 0 5.955 1.945 7.656 6.441 8.264 24.305 22.361 45.451 28.073 45.451 2.188 0 3.16-0.972 3.16-6.441v-25.035c-0.729-11.423-6.805-12.396-6.805-16.527 0.165-2.184 1.978-3.893 4.19-3.893 0.065 0 0.13 0.001 0.194 0.004l-0.009-0h26.736c3.646 0 4.861 1.823 4.861 6.198v33.785c0 3.646 1.58 4.861 2.674 4.861 2.188 0 3.889-1.215 7.899-5.225 8.254-10.002 15.271-21.465 20.556-33.843l0.347-0.914c1.039-2.867 3.738-4.879 6.907-4.879 0.178 0 0.355 0.006 0.53 0.019l-0.024-0.001h17.014c5.104 0 6.198 2.552 5.104 6.198-6.767 14.999-14.399 27.893-23.252 39.825l0.405-0.571c-1.823 2.795-2.552 4.253 0 7.535 1.701 2.552 7.656 7.535 11.667 12.274 5.691 5.677 10.481 12.253 14.141 19.498l0.198 0.433c1.458 4.739-0.972 7.17-5.833 7.17z"></path>
</svg>
