<!-- Generated by IcoMoon.io -->
<svg version="1.1" xmlns="http://www.w3.org/2000/svg" width="280" height="280" viewBox="0 0 280 280">
<title>ul-volume-down</title>
<path fill="#fff" d="M219.683 106.983c-2.12-2.12-5.048-3.431-8.283-3.431-6.47 0-11.714 5.245-11.714 11.714 0 3.235 1.311 6.164 3.431 8.283v0c4.229 4.205 6.855 10.018 6.883 16.445v0.005c0 0.006 0 0.012 0 0.019 0 7.136-3.203 13.523-8.25 17.803l-0.034 0.028c-2.586 2.155-4.221 5.377-4.221 8.981 0 2.85 1.022 5.461 2.719 7.487l-0.015-0.018c2.154 2.546 5.352 4.152 8.924 4.152 2.876 0 5.509-1.041 7.543-2.766l-0.017 0.014c10.214-8.606 16.664-21.398 16.683-35.697v-0.003c-0.071-12.877-5.269-24.527-13.655-33.022l0.005 0.005zM168.35 47.833c-1.365-0.606-2.958-0.959-4.632-0.959-2.655 0-5.102 0.887-7.063 2.38l0.028-0.021-55.767 44.1h-42.583c-6.443 0-11.667 5.223-11.667 11.667v0 70c0 6.443 5.223 11.667 11.667 11.667v0h42.583l55.183 44.1c1.963 1.585 4.484 2.55 7.23 2.567h0.004c0.052 0.001 0.114 0.001 0.175 0.001 1.768 0 3.434-0.432 4.9-1.196l-0.059 0.028c3.955-1.915 6.637-5.893 6.65-10.498v-163.335c-0.013-4.607-2.695-8.585-6.581-10.47l-0.069-0.030zM151.667 197.4l-39.433-31.5c-1.963-1.585-4.484-2.55-7.23-2.567h-35.004v-46.667h35c2.749-0.016 5.271-0.982 7.256-2.584l-0.022 0.017 39.433-31.5z"></path>
</svg>
