<!-- Generated by IcoMoon.io -->
<svg version="1.1" xmlns="http://www.w3.org/2000/svg" width="280" height="280" viewBox="0 0 280 280">
<title>ul-voicemail-rectangle</title>
<path fill="#fff" d="M233.333 46.667h-186.667c-19.33 0-35 15.67-35 35v0 116.667c0 19.33 15.67 35 35 35v0h186.667c19.33 0 35-15.67 35-35v0-116.667c0-19.33-15.67-35-35-35v0zM245 198.333c0 6.443-5.223 11.667-11.667 11.667v0h-186.667c-6.443 0-11.667-5.223-11.667-11.667v0-116.667c0-6.443 5.223-11.667 11.667-11.667v0h186.667c6.443 0 11.667 5.223 11.667 11.667v0zM186.667 105c-19.288 0.056-34.902 15.704-34.902 35 0 4.182 0.733 8.193 2.079 11.911l-0.077-0.244h-27.533c1.268-3.474 2.002-7.485 2.002-11.666 0-19.33-15.67-35-35-35s-35 15.67-35 35c0 19.33 15.67 35 35 35 0.034 0 0.069 0 0.104-0h93.328c19.33 0 35-15.67 35-35s-15.67-35-35-35v0zM93.333 151.667c-6.443 0-11.667-5.223-11.667-11.667s5.223-11.667 11.667-11.667c6.443 0 11.667 5.223 11.667 11.667v0c0 6.443-5.223 11.667-11.667 11.667v0zM186.667 151.667c-6.443 0-11.667-5.223-11.667-11.667s5.223-11.667 11.667-11.667c6.443 0 11.667 5.223 11.667 11.667v0c0 6.443-5.223 11.667-11.667 11.667v0z"></path>
</svg>
