<!-- Generated by IcoMoon.io -->
<svg version="1.1" xmlns="http://www.w3.org/2000/svg" width="280" height="280" viewBox="0 0 280 280">
<title>ul-vertical-distribution-center</title>
<path fill="#fff" d="M245 175h-11.667v-23.333c0-6.443-5.223-11.667-11.667-11.667v0h-163.333c-6.443 0-11.667 5.223-11.667 11.667v0 23.333h-11.667c-6.443 0-11.667 5.223-11.667 11.667s5.223 11.667 11.667 11.667v0h11.667v23.333c0 6.443 5.223 11.667 11.667 11.667v0h163.333c6.443 0 11.667-5.223 11.667-11.667v0-23.333h11.667c6.443 0 11.667-5.223 11.667-11.667s-5.223-11.667-11.667-11.667v0zM210 210h-140v-46.667h140zM35 93.333h23.333v11.667c0 6.443 5.223 11.667 11.667 11.667v0h140c6.443 0 11.667-5.223 11.667-11.667v0-11.667h23.333c6.443 0 11.667-5.223 11.667-11.667s-5.223-11.667-11.667-11.667v0h-23.333v-11.667c0-6.443-5.223-11.667-11.667-11.667v0h-140c-6.443 0-11.667 5.223-11.667 11.667v0 11.667h-23.333c-6.443 0-11.667 5.223-11.667 11.667s5.223 11.667 11.667 11.667v0zM81.667 70h116.667v23.333h-116.667z"></path>
</svg>
