<!-- Generated by IcoMoon.io -->
<svg version="1.1" xmlns="http://www.w3.org/2000/svg" width="280" height="280" viewBox="0 0 280 280">
<title>ul-voicemail</title>
<path fill="#fff" d="M210 93.333c-25.773 0-46.667 20.893-46.667 46.667v0c0.037 8.624 2.462 16.675 6.647 23.534l-0.114-0.201h-59.733c4.071-6.658 6.496-14.709 6.533-23.323v-0.010c0-25.773-20.893-46.667-46.667-46.667s-46.667 20.893-46.667 46.667c0 25.773 20.893 46.667 46.667 46.667v0h140c25.773 0 46.667-20.893 46.667-46.667s-20.893-46.667-46.667-46.667v0zM70 163.333c-12.887 0-23.333-10.447-23.333-23.333s10.447-23.333 23.333-23.333c12.887 0 23.333 10.447 23.333 23.333v0c0 12.887-10.447 23.333-23.333 23.333v0zM210 163.333c-12.887 0-23.333-10.447-23.333-23.333s10.447-23.333 23.333-23.333c12.887 0 23.333 10.447 23.333 23.333v0c0 12.887-10.447 23.333-23.333 23.333v0z"></path>
</svg>
