<!-- Generated by IcoMoon.io -->
<svg version="1.1" xmlns="http://www.w3.org/2000/svg" width="280" height="280" viewBox="0 0 280 280">
<title>ul-vertical-distribution-top</title>
<path fill="#fff" d="M35 70h11.667v58.333c0 6.443 5.223 11.667 11.667 11.667v0h163.333c6.443 0 11.667-5.223 11.667-11.667v0-58.333h11.667c6.443 0 11.667-5.223 11.667-11.667s-5.223-11.667-11.667-11.667v0h-210c-6.443 0-11.667 5.223-11.667 11.667s5.223 11.667 11.667 11.667v0zM70 70h140v46.667h-140zM245 163.333h-210c-6.443 0-11.667 5.223-11.667 11.667s5.223 11.667 11.667 11.667v0h23.333v35c0 6.443 5.223 11.667 11.667 11.667v0h140c6.443 0 11.667-5.223 11.667-11.667v0-35h23.333c6.443 0 11.667-5.223 11.667-11.667s-5.223-11.667-11.667-11.667v0zM198.333 210h-116.667v-23.333h116.667z"></path>
</svg>
