<!-- Generated by IcoMoon.io -->
<svg version="1.1" xmlns="http://www.w3.org/2000/svg" width="280" height="280" viewBox="0 0 280 280">
<title>ul-video-slash</title>
<path fill="#fff" d="M89.95 73.383v0l-46.667-46.667c-2.12-2.12-5.048-3.431-8.283-3.431-6.47 0-11.714 5.245-11.714 11.714 0 3.235 1.311 6.164 3.431 8.283v0l27.183 26.717c-17.329 2.276-30.568 16.951-30.568 34.718 0 0.099 0.001 0.198 0.001 0.297v-0.015 70c0 19.33 15.67 35 35 35v0h105c8.456-0.041 16.197-3.075 22.223-8.096l-0.056 0.046 51.217 51.333c2.114 2.131 5.045 3.451 8.283 3.451s6.169-1.32 8.283-3.45l0.001-0.001c2.131-2.114 3.451-5.045 3.451-8.283s-1.32-6.169-3.45-8.283l-0.001-0.001zM163.333 186.667h-105c-6.443 0-11.667-5.223-11.667-11.667v0-70c0-6.443 5.223-11.667 11.667-11.667v0h18.55l91.817 91.933c-1.552 0.854-3.396 1.369-5.357 1.4h-0.009zM251.183 83.417c-1.673-0.983-3.686-1.563-5.833-1.563s-4.16 0.581-5.888 1.593l0.055-0.030-41.183 20.3c-0.71-18.77-16.098-33.717-34.976-33.717-0.008 0-0.016 0-0.025 0h-15.632c-6.443 0-11.667 5.223-11.667 11.667s5.223 11.667 11.667 11.667v0h15.633c6.443 0 11.667 5.223 11.667 11.667v0 17.5c-0.021 0.331-0.033 0.718-0.033 1.108s0.012 0.777 0.035 1.161l-0.002-0.053c0.076 0.859 0.283 1.651 0.602 2.382l-0.019-0.049s0.583 0.7 0.817 1.167c0.504 0.933 1.085 1.737 1.756 2.457l-0.006-0.007s1.167 0.7 1.75 1.167l1.983 1.283c0.403 0.058 0.868 0.091 1.342 0.091s0.939-0.033 1.394-0.097l-0.053 0.006c0.245 0.026 0.529 0.041 0.817 0.041s0.572-0.015 0.852-0.044l-0.035 0.003c0.331 0.021 0.718 0.033 1.108 0.033s0.777-0.012 1.161-0.035l-0.053 0.002c0.859-0.076 1.651-0.283 2.382-0.602l-0.049 0.019 42.583-20.3v66.733c0 6.443 5.223 11.667 11.667 11.667s11.667-5.223 11.667-11.667v0-85.633c0-0.007 0-0.015 0-0.023 0-4.152-2.169-7.797-5.435-9.865l-0.048-0.028z"></path>
</svg>
