<!-- Generated by IcoMoon.io -->
<svg version="1.1" xmlns="http://www.w3.org/2000/svg" width="280" height="280" viewBox="0 0 280 280">
<title>ul-webcam</title>
<path fill="#fff" d="M140 151.667c19.33 0 35-15.67 35-35s-15.67-35-35-35c-19.33 0-35 15.67-35 35v0c0 19.33 15.67 35 35 35v0zM140 105c6.443 0 11.667 5.223 11.667 11.667s-5.223 11.667-11.667 11.667c-6.443 0-11.667-5.223-11.667-11.667v0c0-6.443 5.223-11.667 11.667-11.667v0zM251.883 211.867c-6.031-19.622-16.465-36.388-30.194-49.794l-0.023-0.022c7.342-13.028 11.667-28.601 11.667-45.185 0-51.547-41.787-93.333-93.333-93.333s-93.333 41.787-93.333 93.333c0 16.584 4.325 32.157 11.909 45.654l-0.242-0.469c-13.837 13.393-24.319 30.169-30.116 48.998l-0.217 0.818c-0.894 2.943-1.408 6.326-1.408 9.828 0 7.855 2.588 15.106 6.957 20.946l-0.065-0.091c6.449 8.607 16.625 14.118 28.088 14.118 0.092 0 0.184-0 0.276-0.001h156.319c0.043 0 0.095 0 0.146 0 11.462 0 21.638-5.51 28.022-14.026l0.065-0.091c4.304-5.749 6.892-13 6.892-20.855 0-3.503-0.515-6.885-1.472-10.076l0.064 0.248zM140 46.667c38.66 0 70 31.34 70 70s-31.34 70-70 70c-38.66 0-70-31.34-70-70v0c0-38.66 31.34-70 70-70v0zM227.733 228.55c-2.147 2.914-5.565 4.784-9.42 4.784-0.051 0-0.103-0-0.154-0.001h-156.326c-0.043 0.001-0.095 0.001-0.146 0.001-3.855 0-7.273-1.87-9.398-4.752l-0.023-0.032c-1.391-1.897-2.225-4.278-2.225-6.854 0-1.175 0.174-2.309 0.497-3.379l-0.021 0.083c4.447-14.692 12.008-27.305 21.958-37.592l-0.024 0.025c17.030 17.837 40.995 28.928 67.55 28.928s50.52-11.090 67.516-28.891l0.034-0.036c9.926 10.262 17.486 22.874 21.763 36.918l0.17 0.649c0.302 0.987 0.475 2.121 0.475 3.296 0 2.576-0.835 4.956-2.248 6.887l0.023-0.033z"></path>
</svg>
