<!-- Generated by IcoMoon.io -->
<svg version="1.1" xmlns="http://www.w3.org/2000/svg" width="280" height="280" viewBox="0 0 280 280">
<title>ul-wrench</title>
<path fill="#fff" d="M253.283 181.767l-52.733-52.617c1.039-4.833 1.634-10.385 1.634-16.077 0-0.090-0-0.18-0.001-0.271v0.014c-0.014-49.41-40.071-89.459-89.483-89.459-13.721 0-26.721 3.088-38.342 8.608l0.542-0.232c-3.462 1.609-5.968 4.769-6.64 8.563l-0.010 0.070c-0.109 0.6-0.172 1.291-0.172 1.996 0 3.232 1.314 6.158 3.438 8.271l0.001 0.001 50.75 50.633-21 21-50.633-50.75c-2.103-2.065-4.988-3.34-8.171-3.34-0.741 0-1.465 0.069-2.168 0.201l0.072-0.011c-3.843 0.658-6.997 3.119-8.603 6.463l-0.030 0.070c-5.288 11.079-8.377 24.080-8.377 37.802 0 49.42 40.063 89.483 89.483 89.483 0.197 0 0.394-0.001 0.59-0.002l-0.030 0c0.076 0 0.167 0.001 0.257 0.001 5.691 0 11.244-0.595 16.598-1.726l-0.522 0.092 52.617 52.733c2.114 2.131 5.045 3.451 8.283 3.451s6.169-1.32 8.283-3.45l0.001-0.001c2.131-2.114 3.451-5.045 3.451-8.283s-1.32-6.169-3.45-8.283l-57.168-57.168c-2.108-2.095-5.014-3.39-8.222-3.39-1.016 0-2.002 0.13-2.942 0.374l0.081-0.018c-5.168 1.44-11.109 2.289-17.241 2.333l-0.026 0c-0.173 0.002-0.378 0.002-0.584 0.002-36.494 0-66.085-29.551-66.15-66.030v-0.006c-0-0.080-0.001-0.176-0.001-0.271 0-4.025 0.34-7.97 0.992-11.809l-0.058 0.413 45.733 45.85c2.114 2.131 5.045 3.451 8.283 3.451s6.169-1.32 8.283-3.45l37.101-37.451c2.028-2.096 3.278-4.956 3.278-8.108s-1.25-6.012-3.281-8.112l0.003 0.003-45.383-45.733c3.46-0.594 7.444-0.934 11.508-0.934 0.056 0 0.112 0 0.167 0h-0.008c36.483 0.066 66.033 29.657 66.033 66.15 0 0 0 0 0 0v0c-0.044 6.158-0.893 12.099-2.446 17.748l0.113-0.482c-0.226 0.859-0.356 1.845-0.356 2.861 0 3.208 1.295 6.114 3.39 8.223l57.166 57.166c2.12 2.12 5.048 3.431 8.283 3.431 6.47 0 11.714-5.245 11.714-11.714 0-3.235-1.311-6.164-3.431-8.283v0z"></path>
</svg>
