<!-- Generated by IcoMoon.io -->
<svg version="1.1" xmlns="http://www.w3.org/2000/svg" width="280" height="280" viewBox="0 0 280 280">
<title>ul-wheelchair</title>
<path fill="#fff" d="M140 75.833c12.887 0 23.333-10.447 23.333-23.333s-10.447-23.333-23.333-23.333c-12.887 0-23.333 10.447-23.333 23.333v0c0 12.887 10.447 23.333 23.333 23.333v0zM227.5 239.167h-11.667v-58.333c0-6.443-5.223-11.667-11.667-11.667v0h-58.333v-23.333h58.333c6.443 0 11.667-5.223 11.667-11.667s-5.223-11.667-11.667-11.667v0h-58.333v-23.333c0-6.443-5.223-11.667-11.667-11.667s-11.667 5.223-11.667 11.667v0 81.667c0 6.443 5.223 11.667 11.667 11.667v0h58.333v58.333c0 6.443 5.223 11.667 11.667 11.667v0h23.333c6.443 0 11.667-5.223 11.667-11.667s-5.223-11.667-11.667-11.667v0zM148.167 220.5c-8.604 11.385-22.118 18.667-37.333 18.667-25.773 0-46.667-20.893-46.667-46.667v0c0.030-18.993 11.401-35.323 27.703-42.582l0.297-0.118c4.176-1.849 7.037-5.957 7.037-10.733 0-6.464-5.24-11.704-11.704-11.704-1.688 0-3.292 0.357-4.741 1l0.075-0.030c-24.924 11.082-41.988 35.624-41.988 64.151 0 38.66 31.34 70 70 70 22.815 0 43.081-10.915 55.861-27.808l0.127-0.176c1.457-1.926 2.333-4.361 2.333-7 0-6.443-5.223-11.667-11.667-11.667-3.804 0-7.182 1.82-9.312 4.637l-0.021 0.029z"></path>
</svg>
