<!-- Generated by IcoMoon.io -->
<svg version="1.1" xmlns="http://www.w3.org/2000/svg" width="24" height="24" viewBox="0 0 24 24">
<title>account_balance_wallet</title>
<path fill="#ebebeb" d="M15.188 13.2q0.487 0 0.844-0.338t0.356-0.862-0.356-0.863-0.844-0.338-0.844 0.338-0.356 0.863 0.356 0.862 0.844 0.338zM12 15.188v-6.375h7.987v6.375h-7.987zM19.2 16.8v0.788q0 0.638-0.488 1.125t-1.125 0.488h-11.175q-0.675 0-1.144-0.469t-0.469-1.144v-11.175q0-0.675 0.469-1.144t1.144-0.469h11.175q0.637 0 1.125 0.488t0.488 1.125v0.787h-7.2q-0.675 0-1.144 0.469t-0.469 1.144v6.375q0 0.675 0.469 1.144t1.144 0.469h7.2z"></path>
</svg>
