<!-- Generated by IcoMoon.io -->
<svg version="1.1" xmlns="http://www.w3.org/2000/svg" width="24" height="24" viewBox="0 0 24 24">
<title>add_task</title>
<path fill="#ebebeb" d="M19.987 6.563l-9.112 9.112-3.412-3.375 1.163-1.125 2.25 2.25 7.987-7.988zM12 18.413q-1.313 0-2.475-0.506t-2.044-1.388-1.387-2.044-0.506-2.475 0.506-2.475 1.387-2.044 2.044-1.388 2.475-0.506q0.938 0 1.8 0.262t1.612 0.75l1.163-1.162q-0.975-0.675-2.138-1.050t-2.438-0.375q-1.65 0-3.094 0.619t-2.55 1.725-1.725 2.55-0.619 3.094 0.619 3.094 1.725 2.55 2.55 1.725 3.094 0.619q1.050 0 2.006-0.244t1.819-0.731l-1.2-1.2q-0.6 0.3-1.256 0.45t-1.369 0.15zM17.587 14.4h-2.4v1.613h2.4v2.4h1.613v-2.4h2.4v-1.613h-2.4v-2.4h-1.613v2.4z"></path>
</svg>
