<!-- Generated by IcoMoon.io -->
<svg version="1.1" xmlns="http://www.w3.org/2000/svg" width="24" height="24" viewBox="0 0 24 24">
<title>add_a_photo</title>
<path fill="#ebebeb" d="M10.238 13.612q0-1.088 0.75-1.838t1.8-0.75q1.087 0 1.837 0.75t0.75 1.838q0 1.050-0.75 1.8t-1.837 0.75-1.819-0.731-0.731-1.819zM12.788 17.587q1.65 0 2.831-1.163t1.181-2.812-1.181-2.831-2.831-1.181-2.813 1.181-1.163 2.831 1.163 2.812 2.813 1.163zM7.2 10.387v-2.4h2.4v-2.4h5.587l1.462 1.612h2.55q0.637 0 1.125 0.487t0.487 1.125v9.6q0 0.637-0.487 1.106t-1.125 0.469h-12.788q-0.637 0-1.125-0.469t-0.488-1.106v-8.025h2.4zM4.8 5.588v-2.4h1.612v2.4h2.4v1.612h-2.4v2.4h-1.612v-2.4h-2.4v-1.613h2.4z"></path>
</svg>
