<!-- Generated by IcoMoon.io -->
<svg version="1.1" xmlns="http://www.w3.org/2000/svg" width="24" height="24" viewBox="0 0 24 24">
<title>airline_seat_recline_extra</title>
<path fill="#ebebeb" d="M15.375 14.4l4.612 3.6-1.2 1.2-3.038-2.4h-5.475q-0.825 0-1.519-0.563t-0.844-1.387l-1.087-4.725q0-0.038-0.019-0.15t-0.019-0.15q0-0.637 0.45-1.162t1.050-0.638h0.038q0.037 0 0.131-0.019t0.131-0.019q0.637 0 1.125 0.375l1.313 1.012q1.8 1.387 3.75 1.012v1.725q-1.8 0.3-4.125-0.975l0.825 3.262h3.9zM15.188 17.587v1.613h-5.625q-1.425 0-2.587-0.975t-1.388-2.4l-1.575-7.838h1.575l1.575 7.575q0.15 0.862 0.825 1.444t1.575 0.581h5.625zM6.675 6.9q-0.525-0.375-0.638-1.031t0.263-1.181 1.031-0.656 1.181 0.244q0.525 0.412 0.656 1.069t-0.244 1.181-1.050 0.638-1.2-0.263z"></path>
</svg>
