<!-- Generated by IcoMoon.io -->
<svg version="1.1" xmlns="http://www.w3.org/2000/svg" width="24" height="24" viewBox="0 0 24 24">
<title>alarm_on</title>
<path fill="#ebebeb" d="M10.837 14.025l3.938-3.975 0.863 0.863-4.8 4.8-2.55-2.55 0.825-0.825zM12 18.413q2.325 0 3.956-1.65t1.631-3.975-1.631-3.956-3.956-1.631-3.956 1.631-1.631 3.956 1.631 3.975 3.956 1.65zM12 5.588q3 0 5.1 2.119t2.1 5.081-2.1 5.081-5.1 2.119-5.1-2.119-2.1-5.081 2.1-5.081 5.1-2.119zM8.7 5.1l-3.675 3.075-1.013-1.2 3.675-3.075zM19.987 6.975l-1.012 1.237-3.675-3.112 1.013-1.2z"></path>
</svg>
