<!-- Generated by IcoMoon.io -->
<svg version="1.1" xmlns="http://www.w3.org/2000/svg" width="40" height="40" viewBox="0 0 40 40">
<title>at-glue</title>
<path fill="#ebebeb" d="M28.996 30.917l-0.996-11.963c-0.019-1.063-0.647-2.548-2.286-2.884 0.179-0.292 0.286-0.65 0.286-1.070 0-0.112-0.016-0.511-0.219-0.933-0.357-0.688-1.001-1.067-1.781-1.067h-0.246l-2-7h-3.508l-2 7h-0.246c-0.97 0-2 0.701-2 2 0 0.112 0.016 0.511 0.219 0.933 0.024 0.046 0.049 0.091 0.076 0.135-1.646 0.332-2.277 1.821-2.295 2.886l-0.997 11.963-0.003 0.041v0.042c0 1.206 0.799 3 3 3h12c2.201 0 3-1.794 3-3v-0.042l-0.004-0.041zM19 7h2l1.714 6h-5.428l1.714-6zM16 14h8c0.5 0 0.75 0.25 0.88 0.5 0.12 0.25 0.12 0.5 0.12 0.5 0 1-1 1-1 1h-8c-0.5 0-0.75-0.25-0.88-0.5-0.12-0.25-0.12-0.5-0.12-0.5 0-1 1-1 1-1zM26 33h-12c-2 0-2-2-2-2l1-12c0 0 0-2 2-2 0 0 9.5 0 10 0 2 0 2 2 2 2l1 12c0 0 0 2-2 2z"></path>
</svg>
