<!-- Generated by IcoMoon.io -->
<svg version="1.1" xmlns="http://www.w3.org/2000/svg" width="40" height="40" viewBox="0 0 40 40">
<title>at-ink</title>
<path fill="#ebebeb" d="M25 13.050v-1.050c0.97 0 2-0.7 2-2v-2c0-0.97-0.7-2-2-2h-11c-0.97 0-2 0.7-2 2v2c0 0.97 0.7 2 2 2v1.050c-5.99 0.47-6 5.13-6 6.95 0 0.96 1.67 14 6 14h11c4.33 0 6-13.040 6-14 0-1.82-0.010-6.48-6-6.95zM24 7h1c1 0 1 1 1 1v2c0 1-1 1-1 1h-1v-4zM20 7h3v4h-3v-4zM24 12v1h-9v-1h9zM16 7h3v4h-3v-4zM13 10v-2c0-1 1-1 1-1h1v4h-1c-1 0-1-1-1-1zM25 33c-3 0-5 0-5 0s-3 0-6 0-5-11-5-13 0-6 6-6h9c6 0 6 4 6 6s-2 13-5 13z"></path>
<path fill="#ebebeb" d="M20.15 18.24c-0.19-0.16-0.42-0.24-0.65-0.24s-0.46 0.080-0.65 0.24c-0.16 0.14-3.85 3.34-3.85 6.76 0 3.16 2.94 4 4.5 4s4.5-0.84 4.5-4c0-3.42-3.69-6.62-3.85-6.76zM19.5 28c0 0-3.5 0-3.5-3s3.5-6 3.5-6 3.5 3 3.5 6-3.5 3-3.5 3z"></path>
</svg>
