<!-- Generated by IcoMoon.io -->
<svg version="1.1" xmlns="http://www.w3.org/2000/svg" width="24" height="24" viewBox="0 0 24 24">
<title>batch_prediction</title>
<path fill="#ebebeb" d="M16.013 8.813h-8.025q-0.638 0-1.106 0.469t-0.469 1.106v8.025q0 0.637 0.469 1.106t1.106 0.469h8.025q0.637 0 1.106-0.469t0.469-1.106v-8.025q0-0.638-0.469-1.106t-1.106-0.469zM12.788 18.788h-1.575v-1.2h1.575v1.2zM12.788 16.8h-1.575q0-0.45-0.3-0.9t-0.713-0.938-0.713-1.031-0.3-1.144q0-0.75 0.394-1.388t1.013-1.012 1.406-0.375 1.406 0.375 1.013 1.012 0.394 1.388q0 0.6-0.3 1.144t-0.713 1.031-0.712 0.938-0.3 0.9zM16.8 7.613h-9.6q0-0.525 0.356-0.863t0.844-0.337h7.2q0.488 0 0.844 0.337t0.356 0.863v0zM16.013 5.213h-8.025q0-0.525 0.356-0.862t0.844-0.338h5.625q0.487 0 0.844 0.338t0.356 0.862v0z"></path>
</svg>
