<!-- Generated by IcoMoon.io -->
<svg version="1.1" xmlns="http://www.w3.org/2000/svg" width="40" height="40" viewBox="0 0 40 40">
<title>bm-attachment-21</title>
<path fill="#ebebeb" d="M34.357 15.635l-16.271 16.090c-2.696 2.666-7.067 2.666-9.763 0-2.696-2.665-2.696-6.987 0-9.654l14.645-14.482c1.797-1.777 4.711-1.777 6.509 0 1.797 1.777 1.797 4.659 0 6.435l-14.645 14.482c-0.898 0.889-2.355 0.889-3.255 0-0.898-0.888-0.898-2.329 0-3.218l13.018-12.872-1.627-1.609-13.017 12.873c-1.798 1.776-1.798 4.658 0 6.437 1.797 1.776 4.711 1.776 6.509-0.001l14.643-14.481c2.696-2.665 2.697-6.99 0.001-9.655-2.697-2.666-7.067-2.666-9.763 0l-15.458 15.286 0.057 0.056c-2.809 3.57-2.561 8.731 0.757 12.013 3.319 3.281 8.537 3.527 12.147 0.749l0.056 0.056 17.086-16.895-1.627-1.609z"></path>
</svg>
