<!-- Generated by IcoMoon.io -->
<svg version="1.1" xmlns="http://www.w3.org/2000/svg" width="40" height="40" viewBox="0 0 40 40">
<title>bm-arrow-right-circle1</title>
<path fill="#ebebeb" d="M26.535 20.88l-5.656 5.66c-0.391 0.39-1.024 0.39-1.414 0-0.391-0.39-0.391-1.030 0-1.42l4.121-4.12h-10.586c-0.553 0-1-0.45-1-1s0.447-1 1-1h10.586l-4.121-4.12c-0.391-0.39-0.391-1.020 0-1.42 0.39-0.39 1.023-0.39 1.414 0l5.656 5.66c0.24 0.24 0.315 0.57 0.26 0.88 0.055 0.31-0.020 0.64-0.26 0.88v0zM20 4c-8.837 0-16 7.16-16 16s7.163 16 16 16c8.837 0 16-7.16 16-16s-7.163-16-16-16v0z"></path>
</svg>
