<!-- Generated by IcoMoon.io -->
<svg version="1.1" xmlns="http://www.w3.org/2000/svg" width="43" height="40" viewBox="0 0 43 40">
<title>bm-align-right1</title>
<path fill="#ebebeb" d="M9.333 18.933h13.091l-4.257-3.519c-0.418-0.417-0.418-1.095 0-1.514 0.42-0.418 1.1-0.418 1.519 0l6.38 5.271c0.223 0.224 0.318 0.519 0.303 0.811 0.015 0.292-0.080 0.588-0.303 0.812l-6.38 5.271c-0.419 0.418-1.099 0.418-1.519 0-0.418-0.418-0.418-1.097 0-1.514l4.217-3.486h-13.051c-0.589 0-1.067-0.477-1.067-1.067s0.478-1.067 1.067-1.067v0zM4 8.267v23.467c0 2.356 1.91 4.267 4.267 4.267h21.333v-32h-21.333c-2.356 0-4.267 1.91-4.267 4.267v0zM33.867 4h-2.133v32h2.133c2.356 0 4.267-1.91 4.267-4.267v-23.467c0-2.356-1.91-4.267-4.267-4.267v0z"></path>
</svg>
