<!-- Generated by IcoMoon.io -->
<svg version="1.1" xmlns="http://www.w3.org/2000/svg" width="40" height="40" viewBox="0 0 40 40">
<title>bm-arrow-left-circle1</title>
<path fill="#ebebeb" d="M27 21h-10.586l4.122 4.12c0.39 0.39 0.39 1.030 0 1.42-0.391 0.39-1.024 0.39-1.415 0l-5.657-5.66c-0.239-0.24-0.314-0.57-0.259-0.88-0.055-0.31 0.020-0.64 0.259-0.88l5.657-5.66c0.391-0.39 1.024-0.39 1.415 0 0.39 0.4 0.39 1.030 0 1.42l-4.122 4.12h10.586c0.552 0 1 0.45 1 1s-0.448 1-1 1v0zM20 4c-8.836 0-16 7.16-16 16s7.164 16 16 16c8.836 0 16-7.16 16-16s-7.164-16-16-16v0z"></path>
</svg>
