<!-- Generated by IcoMoon.io -->
<svg version="1.1" xmlns="http://www.w3.org/2000/svg" width="40" height="40" viewBox="0 0 40 40">
<title>bm-arrow-up-square1</title>
<path fill="#ebebeb" d="M26.535 19.535c-0.39 0.391-1.023 0.391-1.414 0l-4.121-4.121v10.586c0 0.55-0.448 1-1 1-0.553 0-1-0.45-1-1v-10.586l-4.121 4.121c-0.391 0.391-1.025 0.391-1.414 0-0.391-0.389-0.391-1.023 0-1.414l5.656-5.656c0.24-0.24 0.568-0.315 0.879-0.26 0.311-0.055 0.639 0.020 0.879 0.26l5.656 5.656c0.391 0.391 0.391 1.025 0 1.414v0zM32 4h-24c-2.209 0-4 1.791-4 4v24c0 2.21 1.791 4 4 4h24c2.209 0 4-1.79 4-4v-24c0-2.209-1.791-4-4-4v0z"></path>
</svg>
