<!-- Generated by IcoMoon.io -->
<svg version="1.1" xmlns="http://www.w3.org/2000/svg" width="29" height="40" viewBox="0 0 29 40">
<title>bm-arrow-up</title>
<path fill="#ebebeb" d="M14.286 34.857c0 0.632 0.511 1.143 1.143 1.143 0.631 0 1.143-0.511 1.143-1.143v-8h-2.286v8zM24.571 4h-18.286c-1.262 0-2.286 1.024-2.286 2.286v18.286c0 1.262 1.024 2.286 2.286 2.286h8v-16.67l-5.992 5.992c-0.446 0.446-1.17 0.446-1.616 0-0.447-0.446-0.447-1.17 0-1.617l7.885-7.885c0.239-0.238 0.555-0.339 0.866-0.323 0.311-0.016 0.627 0.086 0.865 0.323l7.886 7.885c0.446 0.447 0.446 1.171 0 1.617s-1.17 0.446-1.617 0l-5.991-5.992v16.67h8c1.262 0 2.286-1.024 2.286-2.286v-18.286c0-1.262-1.024-2.286-2.286-2.286v0z"></path>
</svg>
