<!-- Generated by IcoMoon.io -->
<svg version="1.1" xmlns="http://www.w3.org/2000/svg" width="40" height="40" viewBox="0 0 40 40">
<title>bm-arrow-left-square1</title>
<path fill="#ebebeb" d="M26 19h-10.586l4.121-4.121c0.391-0.391 0.391-1.024 0-1.414-0.39-0.391-1.023-0.391-1.414 0l-5.656 5.656c-0.24 0.24-0.315 0.568-0.26 0.879-0.055 0.311 0.020 0.639 0.26 0.879l5.656 5.661c0.391 0.39 1.024 0.39 1.414 0 0.391-0.39 0.391-1.030 0-1.42l-4.121-4.12h10.586c0.553 0 1-0.447 1-1 0-0.552-0.447-1-1-1v0zM34 32c0 1.1-0.896 2-2 2h-24c-1.104 0-2-0.9-2-2v-24c0-1.104 0.896-2 2-2h24c1.104 0 2 0.896 2 2v24zM32 4h-24c-2.209 0-4 1.791-4 4v24c0 2.21 1.791 4 4 4h24c2.209 0 4-1.79 4-4v-24c0-2.209-1.791-4-4-4v0z"></path>
</svg>
