<!-- Generated by IcoMoon.io -->
<svg version="1.1" xmlns="http://www.w3.org/2000/svg" width="56" height="40" viewBox="0 0 56 40">
<title>bm-arrow-right1</title>
<path fill="#ebebeb" d="M5.6 18.4c-0.885 0-1.6 0.717-1.6 1.6 0 0.885 0.715 1.6 1.6 1.6h11.2v-3.2h-11.2zM45.6 4h-25.6c-1.766 0-3.2 1.434-3.2 3.2v11.2h23.338l-8.389-8.387c-0.624-0.626-0.624-1.64 0-2.262 0.624-0.626 1.638-0.626 2.264 0l11.038 11.038c0.333 0.333 0.475 0.776 0.453 1.211 0.022 0.435-0.12 0.878-0.453 1.213l-11.038 11.038c-0.626 0.626-1.64 0.626-2.264 0-0.624-0.624-0.624-1.638 0-2.262l8.389-8.389h-23.338v11.2c0 1.766 1.434 3.2 3.2 3.2h25.6c1.766 0 3.2-1.434 3.2-3.2v-25.6c0-1.766-1.434-3.2-3.2-3.2v0z"></path>
</svg>
