<!-- Generated by IcoMoon.io -->
<svg version="1.1" xmlns="http://www.w3.org/2000/svg" width="46" height="40" viewBox="0 0 46 40">
<title>bm-arrow-right</title>
<path fill="#ebebeb" d="M36 4h-22.857c-2.525 0-4.571 2.047-4.571 4.571v4.571h2.286v-4.571c0-1.262 1.024-2.286 2.286-2.286h22.857c1.262 0 2.286 1.024 2.286 2.286v22.857c0 1.262-1.024 2.286-2.286 2.286h-22.857c-1.262 0-2.286-1.024-2.286-2.286v-4.571h-2.286v4.571c0 2.525 2.047 4.571 4.571 4.571h22.857c2.525 0 4.571-2.047 4.571-4.571v-22.857c0-2.525-2.047-4.571-4.571-4.571v0zM23.821 27.135c-0.446 0.446-0.446 1.17 0 1.616 0.446 0.447 1.17 0.447 1.617 0l7.885-7.885c0.238-0.239 0.339-0.555 0.323-0.866 0.016-0.311-0.086-0.627-0.323-0.865l-7.885-7.885c-0.447-0.447-1.171-0.447-1.617 0-0.446 0.445-0.446 1.169 0 1.616l5.992 5.991h-24.67c-0.632 0-1.143 0.512-1.143 1.143 0 0.632 0.511 1.143 1.143 1.143h24.67l-5.992 5.992z"></path>
</svg>
