<!-- Generated by IcoMoon.io -->
<svg version="1.1" xmlns="http://www.w3.org/2000/svg" width="18" height="40" viewBox="0 0 18 40">
<title>bm-arrow-up-down</title>
<path fill="#ebebeb" d="M16.263 28.38l-4.272 4.25v-25.26l4.272 4.25c0.393 0.4 1.030 0.4 1.424 0 0.393-0.39 0.393-1.020 0-1.42l-5.94-5.92c-0.21-0.21-0.488-0.3-0.763-0.28-0.274-0.020-0.552 0.070-0.762 0.28l-5.939 5.92c-0.393 0.4-0.393 1.030 0 1.42 0.393 0.4 1.030 0.4 1.424 0l4.271-4.25v25.26l-4.271-4.25c-0.394-0.4-1.031-0.4-1.424 0-0.393 0.39-0.393 1.020 0 1.42l5.939 5.92c0.21 0.21 0.488 0.3 0.762 0.28 0.275 0.020 0.553-0.070 0.763-0.28l5.94-5.92c0.393-0.4 0.393-1.030 0-1.42-0.394-0.4-1.031-0.4-1.424 0z"></path>
</svg>
