<!-- Generated by IcoMoon.io -->
<svg version="1.1" xmlns="http://www.w3.org/2000/svg" width="40" height="40" viewBox="0 0 40 40">
<title>bm-align-center</title>
<path fill="#ebebeb" d="M29.143 31.429h-18.286c-1.262 0-2.286 1.024-2.286 2.286s1.024 2.286 2.286 2.286h18.286c1.262 0 2.286-1.024 2.286-2.286s-1.024-2.286-2.286-2.286v0zM33.714 22.286h-27.429c-1.262 0-2.286 1.024-2.286 2.286s1.024 2.286 2.286 2.286h27.429c1.262 0 2.286-1.024 2.286-2.286s-1.024-2.286-2.286-2.286v0zM10.857 13.143c-1.262 0-2.286 1.024-2.286 2.286s1.024 2.286 2.286 2.286h18.286c1.262 0 2.286-1.024 2.286-2.286s-1.024-2.286-2.286-2.286h-18.286zM6.286 8.571h27.429c1.262 0 2.286-1.024 2.286-2.286s-1.024-2.286-2.286-2.286h-27.429c-1.262 0-2.286 1.024-2.286 2.286s1.024 2.286 2.286 2.286v0z"></path>
</svg>
