<!-- Generated by IcoMoon.io -->
<svg version="1.1" xmlns="http://www.w3.org/2000/svg" width="35" height="40" viewBox="0 0 35 40">
<title>bm-arrow-top</title>
<path fill="#ebebeb" d="M28 4h-20c-2.209 0-4 1.791-4 4v20c0 2.209 1.791 4 4 4h3v-2h-3c-1.104 0-2-0.896-2-2v-20c0-1.104 0.896-2 2-2h20c1.104 0 2 0.896 2 2v20c0 1.104-0.896 2-2 2h-3v2h3c2.209 0 4-1.791 4-4v-20c0-2.209-1.791-4-4-4v0zM25.657 17.243l-6.899-6.9c-0.209-0.208-0.486-0.297-0.758-0.283-0.272-0.014-0.549 0.075-0.757 0.283l-6.9 6.9c-0.391 0.39-0.391 1.024 0 1.414 0.39 0.391 1.024 0.391 1.415 0l5.242-5.243v21.586c0 0.553 0.447 1 1 1 0.552 0 1-0.447 1-1v-21.586l5.243 5.243c0.39 0.391 1.024 0.391 1.414 0 0.391-0.39 0.391-1.024 0-1.414v0z"></path>
</svg>
