<!-- Generated by IcoMoon.io -->
<svg version="1.1" xmlns="http://www.w3.org/2000/svg" width="56" height="40" viewBox="0 0 56 40">
<title>bm-bullet-list</title>
<path fill="#ebebeb" d="M47.2 31.2h-28.8c-0.885 0-1.6 0.717-1.6 1.6 0 0.885 0.715 1.6 1.6 1.6h28.8c0.885 0 1.6-0.715 1.6-1.6 0-0.883-0.715-1.6-1.6-1.6v0zM7.2 4c-1.766 0-3.2 1.434-3.2 3.2s1.434 3.2 3.2 3.2c1.766 0 3.2-1.434 3.2-3.2s-1.434-3.2-3.2-3.2v0zM18.4 8.8h28.8c0.885 0 1.6-0.715 1.6-1.6s-0.715-1.6-1.6-1.6h-28.8c-0.885 0-1.6 0.715-1.6 1.6s0.715 1.6 1.6 1.6v0zM47.2 18.4h-28.8c-0.885 0-1.6 0.717-1.6 1.6 0 0.885 0.715 1.6 1.6 1.6h28.8c0.885 0 1.6-0.715 1.6-1.6 0-0.883-0.715-1.6-1.6-1.6v0zM7.2 16.8c-1.766 0-3.2 1.434-3.2 3.2s1.434 3.2 3.2 3.2c1.766 0 3.2-1.434 3.2-3.2s-1.434-3.2-3.2-3.2v0zM7.2 29.6c-1.766 0-3.2 1.434-3.2 3.2s1.434 3.2 3.2 3.2c1.766 0 3.2-1.434 3.2-3.2s-1.434-3.2-3.2-3.2v0z"></path>
</svg>
