<!-- Generated by IcoMoon.io -->
<svg version="1.1" xmlns="http://www.w3.org/2000/svg" width="40" height="40" viewBox="0 0 40 40">
<title>bm-chevron-left-square1</title>
<path fill="#ebebeb" d="M34 32c0 1.1-0.896 2-2 2h-24c-1.104 0-2-0.9-2-2v-24c0-1.104 0.896-2 2-2h24c1.104 0 2 0.896 2 2v24zM32 4h-24c-2.209 0-4 1.791-4 4v24c0 2.21 1.791 4 4 4h24c2.209 0 4-1.79 4-4v-24c0-2.209-1.791-4-4-4v0zM25.685 10.313c-0.395-0.392-1.035-0.392-1.429 0l-8.972 8.941c-0.211 0.21-0.301 0.487-0.286 0.762-0.015 0.274 0.075 0.552 0.286 0.761l8.972 8.943c0.394 0.39 1.034 0.39 1.429 0s0.395-1.030 0-1.43l-8.309-8.274 8.309-8.28c0.395-0.392 0.395-1.029 0-1.423v0z"></path>
</svg>
