<!-- Generated by IcoMoon.io -->
<svg version="1.1" xmlns="http://www.w3.org/2000/svg" width="40" height="40" viewBox="0 0 40 40">
<title>bm-cross-circle1</title>
<path fill="#ebebeb" d="M20 34c-7.732 0-14-6.27-14-14s6.268-14 14-14c7.732 0 14 6.27 14 14s-6.268 14-14 14v0zM20 4c-8.837 0-16 7.16-16 16s7.163 16 16 16c8.837 0 16-7.16 16-16s-7.163-16-16-16v0zM25.717 14.28c-0.394-0.39-1.031-0.39-1.425 0l-4.298 4.3-4.236-4.24c-0.391-0.39-1.025-0.39-1.414 0-0.391 0.39-0.391 1.030 0 1.42l4.236 4.23-4.266 4.27c-0.393 0.39-0.393 1.030 0 1.43 0.394 0.39 1.032 0.39 1.426 0l4.266-4.27 4.236 4.24c0.391 0.39 1.025 0.39 1.415 0 0.391-0.39 0.391-1.030 0-1.42l-4.237-4.23 4.297-4.3c0.393-0.4 0.393-1.030 0-1.43v0z"></path>
</svg>
