<!-- Generated by IcoMoon.io -->
<svg version="1.1" xmlns="http://www.w3.org/2000/svg" width="40" height="40" viewBox="0 0 40 40">
<title>bm-cart-21</title>
<path fill="#ebebeb" d="M26 30c1.104 0 2 0.896 2 2s-0.896 2-2 2c-1.104 0-2-0.896-2-2s0.896-2 2-2v0zM22 32c0 2.209 1.791 4 4 4s4-1.791 4-4c0-2.209-1.791-4-4-4s-4 1.791-4 4v0zM10 10h24l-2.557 10.229-21.443 1.771v-12zM12 26c-1.104 0-2-0.896-2-2l23-2c0 0 3-12.125 3-13 0-0.553-0.447-1-1-1h-25v-2h1c0.553 0 1-0.447 1-1 0-0.552-0.447-1-1-1h-6c-0.553 0-1 0.448-1 1 0 0.553 0.447 1 1 1h3v18c0 2.209 1.791 4 4 4h23c0.031 0 0-0.991 0-2h-23zM14 30c1.104 0 2 0.896 2 2s-0.896 2-2 2c-1.104 0-2-0.896-2-2s0.896-2 2-2v0zM10 32c0 2.209 1.791 4 4 4s4-1.791 4-4c0-2.209-1.791-4-4-4s-4 1.791-4 4v0z"></path>
</svg>
