<!-- Generated by IcoMoon.io -->
<svg version="1.1" xmlns="http://www.w3.org/2000/svg" width="53" height="40" viewBox="0 0 53 40">
<title>bm-cloud</title>
<path fill="#ebebeb" d="M33.333 33.333h-18.667c0 0-8.049-0.825-8-8 0.028-4.048 3.584-7.756 8-8 0-5.523 3.533-10.667 9.333-10.667 4.577 0 7.631 2.795 8.717 6.685 6.607-0.288 11.075 4.939 11.283 9.315 0.28 5.884-5.865 10.667-10.667 10.667v0zM34.756 10.704c-1.957-3.967-6.032-6.704-10.756-6.704-6.332 0-11.507 4.909-11.956 11.127-4.655 1.327-8.044 5.393-8.044 10.207 0 5.68 4.72 10.308 10.667 10.636 0 0 18.441 0.031 18.667 0.031 6.996 0 13.333-5.671 13.333-12.667 0-6.741-5.268-12.236-11.911-12.629v0z"></path>
</svg>
