<!-- Generated by IcoMoon.io -->
<svg version="1.1" xmlns="http://www.w3.org/2000/svg" width="46" height="40" viewBox="0 0 46 40">
<title>bm-download1</title>
<path fill="#ebebeb" d="M39.692 4h-34.462c-0.679 0-1.231 0.551-1.231 1.231v9.846c0 0.681 0.551 1.231 1.231 1.231s1.231-0.55 1.231-1.231v-8.615h32v8.615c0 0.681 0.551 1.231 1.231 1.231s1.231-0.55 1.231-1.231v-9.846c0-0.681-0.551-1.231-1.231-1.231v0zM27.713 26.523l-4.021 4.874v-17.548c0-0.681-0.551-1.233-1.231-1.233s-1.231 0.553-1.231 1.233v17.595l-4.059-4.921c-0.482-0.486-1.265-0.486-1.748 0-0.482 0.484-0.482 1.27 0 1.755l6.082 7.374c0.257 0.258 0.598 0.369 0.935 0.351 0.337 0.018 0.679-0.092 0.937-0.351l6.082-7.374c0.482-0.485 0.482-1.271 0-1.755-0.482-0.486-1.265-0.486-1.748 0v0z"></path>
</svg>
