<!-- Generated by IcoMoon.io -->
<svg version="1.1" xmlns="http://www.w3.org/2000/svg" width="40" height="40" viewBox="0 0 40 40">
<title>bm-decrease</title>
<path fill="#ebebeb" d="M34 32c0 1.1-0.896 2-2 2h-24c-1.104 0-2-0.9-2-2v-24c0-1.104 0.896-2 2-2h24c1.104 0 2 0.896 2 2v24zM32 4h-24c-2.209 0-4 1.791-4 4v24c0 2.21 1.791 4 4 4h24c2.209 0 4-1.79 4-4v-24c0-2.209-1.791-4-4-4v0zM31 17h-6.628l6.798-6.799-1.414-1.414-6.787 6.788 0.031-6.575c0-0.553-0.448-1-1-1s-1 0.447-1 1v9c0 0.296 0.123 0.535 0.316 0.699 0.181 0.186 0.433 0.301 0.712 0.301h8.972c0.552 0 1-0.447 1-1 0-0.552-0.448-1-1-1v0zM17.972 21h-8.972c-0.552 0-1 0.45-1 1s0.448 1 1 1h6.628l-6.798 6.8 1.414 1.41 6.788-6.78-0.032 6.57c0 0.55 0.448 1 1 1s1-0.45 1-1v-9c0-0.3-0.123-0.54-0.316-0.7-0.182-0.18-0.433-0.3-0.712-0.3v0z"></path>
</svg>
