<!-- Generated by IcoMoon.io -->
<svg version="1.1" xmlns="http://www.w3.org/2000/svg" width="40" height="40" viewBox="0 0 40 40">
<title>bm-enlarge1</title>
<path fill="#ebebeb" d="M32 18c0 0.553-0.447 1-1 1s-1-0.447-1-1l0.031-6.574-6.787 6.787-1.414-1.414 6.799-6.799h-6.629c-0.553 0-1-0.447-1-1s0.447-1 1-1h8.972c0.279 0 0.531 0.115 0.713 0.301 0.193 0.164 0.315 0.403 0.315 0.699v9zM18 32h-8.972c-0.279 0-0.531-0.115-0.713-0.301-0.193-0.164-0.315-0.402-0.315-0.699v-9c0-0.553 0.447-1 1-1s1 0.447 1 1l-0.031 6.575 6.787-6.788 1.415 1.414-6.8 6.799h6.629c0.553 0 1 0.447 1 1s-0.447 1-1 1v0zM32 4h-24c-2.209 0-4 1.791-4 4v24c0 2.209 1.791 4 4 4h24c2.209 0 4-1.791 4-4v-24c0-2.209-1.791-4-4-4v0z"></path>
</svg>
