<!-- Generated by IcoMoon.io -->
<svg version="1.1" xmlns="http://www.w3.org/2000/svg" width="31" height="40" viewBox="0 0 31 40">
<title>bm-flag1</title>
<path fill="#ebebeb" d="M27 25c0 0.552-0.448 1-1 1h-5v-13h5c0.552 0 1 0.448 1 1v11zM19 22c0 0.553-0.448 1-1 1h-8v-14h8c0.552 0 1 0.448 1 1v12zM8 33c0 0.553-0.448 1-1 1s-1-0.447-1-1v-26c0-0.552 0.448-1 1-1s1 0.448 1 1v26zM27 11h-6v-2c0-1.104-0.896-2-2-2h-9v-1c0-1.104-0.896-2-2-2h-2c-1.104 0-2 0.896-2 2v28c0 1.104 0.896 2 2 2h2c1.104 0 2-0.896 2-2v-9h9v1c0 1.104 0.94 2 2 2h6c1.104 0 2-0.896 2-2v-13c0-1.104-0.896-2-2-2v0z"></path>
</svg>
