<!-- Generated by IcoMoon.io -->
<svg version="1.1" xmlns="http://www.w3.org/2000/svg" width="40" height="40" viewBox="0 0 40 40">
<title>bm-hamburger1</title>
<path fill="#ebebeb" d="M32.8 29.6h-25.6c-1.766 0-3.2 1.434-3.2 3.2s1.434 3.2 3.2 3.2h25.6c1.766 0 3.2-1.434 3.2-3.2s-1.434-3.2-3.2-3.2v0zM32.8 16.8h-25.6c-1.766 0-3.2 1.434-3.2 3.2s1.434 3.2 3.2 3.2h25.6c1.766 0 3.2-1.434 3.2-3.2s-1.434-3.2-3.2-3.2v0zM7.2 10.4h25.6c1.766 0 3.2-1.434 3.2-3.2s-1.434-3.2-3.2-3.2h-25.6c-1.766 0-3.2 1.434-3.2 3.2s1.434 3.2 3.2 3.2v0z"></path>
</svg>
