<!-- Generated by IcoMoon.io -->
<svg version="1.1" xmlns="http://www.w3.org/2000/svg" width="40" height="40" viewBox="0 0 40 40">
<title>bm-input1</title>
<path fill="#ebebeb" d="M16.571 16.571c0.001-0.634-0.509-1.144-1.143-1.143s-1.142 0.509-1.143 1.143v8c0 0.634 0.509 1.144 1.143 1.143h8c0.634-0.001 1.142-0.507 1.143-1.143s-0.509-1.144-1.143-1.143h-5.133l16.896-16.895c0.447-0.447 0.447-1.171 0-1.617s-1.17-0.446-1.616 0l-17.005 17.005v-5.35zM33.714 18.857v12.571c0 1.242-1.045 2.286-2.286 2.286l-22.931 0.038c-1.242 0-2.249-1.007-2.249-2.249l0.038-22.931c0-1.242 1.045-2.286 2.286-2.286h12.571v-2.286h-12.571c-2.483 0-4.571 2.538-4.571 5.022v22.481c0 2.483 2.014 4.497 4.497 4.497h22.481c2.483 0 5.022-2.088 5.022-4.571v-12.571h-2.286z"></path>
</svg>
