<!-- Generated by IcoMoon.io -->
<svg version="1.1" xmlns="http://www.w3.org/2000/svg" width="28" height="40" viewBox="0 0 28 40">
<title>bm-moon</title>
<path fill="#ebebeb" d="M18.23 34c-4.943-0.359-12.183-6.268-12.183-14s7.085-13.566 12.183-14c1.534-0.13 0.723-0.125 2.142 0-3.337 2.104-7.156 7.962-7.156 14s2.778 11.619 7.156 14c-1.348 0.125-0.674 0.106-2.142 0v0zM15.256 20c0-6.9 4.479-12.764 10.744-15.009-1.757-0.63-3.647-0.991-5.628-0.991-9.042 0-16.372 7.164-16.372 16s7.33 16 16.372 16c1.981 0 3.871-0.361 5.628-0.991-6.265-2.245-10.744-8.108-10.744-15.009v0z"></path>
</svg>
