<!-- Generated by IcoMoon.io -->
<svg version="1.1" xmlns="http://www.w3.org/2000/svg" width="40" height="40" viewBox="0 0 40 40">
<title>bm-music-software1</title>
<path fill="#ebebeb" d="M34 28c0 1.104-0.896 2-2 2h-24c-1.104 0-2-0.896-2-2v-20c0-1.104 0.896-2 2-2h24c1.104 0 2 0.896 2 2v20zM32 4h-24c-2.209 0-4 1.791-4 4v20c0 2.209 1.791 4 4 4h24c2.209 0 4-1.791 4-4v-20c0-2.209-1.791-4-4-4v0zM33 34h-26c-0.552 0-1 0.447-1 1s0.448 1 1 1h26c0.552 0 1-0.447 1-1s-0.448-1-1-1v0zM28.121 23.407c-1.744 0.988-3.9 0.847-4.748-0.187s-0.098-2.625 1.677-3.556c1.774-0.931 3.319-0.878 4.375-0.136 1.365 0.958 0.283 2.98-1.304 3.879v0zM15.115 25.412c-1.745 0.984-3.903 0.834-4.748-0.202s-0.089-2.626 1.689-3.551c1.777-0.925 3.363-0.922 4.376-0.122 1.254 0.992 0.21 3.013-1.317 3.875v0zM31 8l-13 2c-0.552 0-1 0.447-1 1v8.461c-1.544-0.708-3.724-0.595-5.693 0.476-2.788 1.515-4.070 4.339-2.863 6.308 1.208 1.97 4.768 2.271 7.556 0.755 2.174-1.182 3.125-3.252 3-5 0.009-0.055 0-10.154 0-10.154l11-1.692v7.307c-1.544-0.708-3.724-0.595-5.693 0.476-2.788 1.515-4.070 4.339-2.863 6.308 1.208 1.97 4.768 2.271 7.556 0.755 2.174-1.183 3.124-3.252 3-5 0.009-0.055 0-11 0-11 0-0.552-0.448-1-1-1v0z"></path>
</svg>
