<!-- Generated by IcoMoon.io -->
<svg version="1.1" xmlns="http://www.w3.org/2000/svg" width="21" height="40" viewBox="0 0 21 40">
<title>bm-music-note-21</title>
<path fill="#ebebeb" d="M15.241 32.682c-3.181 1.952-7.059 1.869-8.596-0.395-1.536-2.265-0.14-5.835 3.031-7.804 3.171-1.968 7.165-1.763 8.702 0.5 1.51 2.442-0.293 5.952-3.137 7.698v0zM19.991 4c-1.025 0-1.075 1.069-1.075 1.069v17.452c-2.385-1.758-6.321-1.76-9.809 0.241-4.334 2.489-6.193 7.126-4.45 10.358 1.774 3.29 6.913 3.836 11.247 1.347 3.366-1.933 5.17-5.073 5.163-8.067v-21.333c-0.019-0.574-0.494-1.067-1.075-1.067v0z"></path>
</svg>
