<!-- Generated by IcoMoon.io -->
<svg version="1.1" xmlns="http://www.w3.org/2000/svg" width="40" height="40" viewBox="0 0 40 40">
<title>bm-output1</title>
<path fill="#ebebeb" d="M34.639 4h-9.305c-0.756 0.001-1.332 0.612-1.333 1.333s0.577 1.335 1.333 1.333l5.86-0.043-2.875 2.741c0.975 0.117 1.789 0.749 2.148 1.627l2.828-2.696 0.039 6.371c-0.001 0.721 0.577 1.335 1.333 1.333s1.332-0.612 1.333-1.333v-9.367c0.001-0.721-0.605-1.301-1.361-1.3v0zM11.077 27.648c-0.533-0.508-0.533-1.331 0-1.839l17.241-16.444-0.319-0.032h-21.333c-1.472 0-2.667 1.195-2.667 2.667v21.333c0 1.472 1.195 2.667 2.667 2.667h21.333c1.472 0 2.667-1.195 2.667-2.667v-21.333c0-0.357-0.073-0.696-0.2-1.008l-17.463 16.656c-0.532 0.508-1.396 0.508-1.927 0v0z"></path>
</svg>
