<!-- Generated by IcoMoon.io -->
<svg version="1.1" xmlns="http://www.w3.org/2000/svg" width="40" height="40" viewBox="0 0 40 40">
<title>bm-preferences1</title>
<path fill="#ebebeb" d="M15 10.601c-1.326 0-2.4 1.074-2.4 2.399s1.074 2.4 2.4 2.4c1.326 0 2.4-1.075 2.4-2.4s-1.074-2.399-2.4-2.399v0zM24 18.6c-1.326 0-2.4 1.075-2.4 2.4s1.074 2.4 2.4 2.4c1.326 0 2.4-1.075 2.4-2.4s-1.074-2.4-2.4-2.4v0zM30 14h-11.142c-0.445 1.723-1.996 3-3.858 3s-3.413-1.277-3.858-3h-1.142c-0.552 0-1-0.447-1-1 0-0.552 0.448-1 1-1h1.142c0.445-1.723 1.996-3 3.858-3s3.413 1.277 3.858 3h11.142c0.552 0 1 0.448 1 1 0 0.553-0.448 1-1 1v0zM30 22h-2.142c-0.445 1.723-1.996 3-3.858 3s-3.413-1.277-3.858-3h-10.142c-0.552 0-1-0.447-1-1 0-0.552 0.448-1 1-1h10.142c0.446-1.723 1.996-3 3.858-3s3.413 1.277 3.858 3h2.142c0.552 0 1 0.448 1 1 0 0.553-0.448 1-1 1v0zM30 30h-11.142c-0.445 1.723-1.996 3-3.858 3s-3.413-1.277-3.858-3h-1.142c-0.552 0-1-0.447-1-1s0.448-1 1-1h1.142c0.445-1.722 1.996-3 3.858-3s3.413 1.278 3.858 3h11.142c0.552 0 1 0.447 1 1s-0.448 1-1 1v0zM32 4h-24c-2.209 0-4 1.791-4 4v24c0 2.209 1.791 4 4 4h24c2.209 0 4-1.791 4-4v-24c0-2.209-1.791-4-4-4v0zM15 26.601c-1.326 0-2.4 1.074-2.4 2.399s1.074 2.4 2.4 2.4c1.326 0 2.4-1.075 2.4-2.4s-1.074-2.399-2.4-2.399v0z"></path>
</svg>
