<!-- Generated by IcoMoon.io -->
<svg version="1.1" xmlns="http://www.w3.org/2000/svg" width="40" height="40" viewBox="0 0 40 40">
<title>bm-plus-square1</title>
<path fill="#ebebeb" d="M34 32c0 1.1-0.896 2-2 2h-24c-1.104 0-2-0.9-2-2v-24c0-1.1 0.896-2 2-2h24c1.104 0 2 0.9 2 2v24zM32 4h-24c-2.209 0-4 1.79-4 4v24c0 2.21 1.791 4 4 4h24c2.209 0 4-1.79 4-4v-24c0-2.21-1.791-4-4-4v0zM26 19h-5v-5c0-0.55-0.448-1-1-1s-1 0.45-1 1v5h-5c-0.552 0-1 0.45-1 1s0.448 1 1 1h5v5c0 0.55 0.448 1 1 1s1-0.45 1-1v-5h5c0.552 0 1-0.45 1-1s-0.448-1-1-1v0z"></path>
</svg>
