<!-- Generated by IcoMoon.io -->
<svg version="1.1" xmlns="http://www.w3.org/2000/svg" width="40" height="40" viewBox="0 0 40 40">
<title>bm-permalink1</title>
<path fill="#ebebeb" d="M33.852 7.504l-1.387-1.386c-1.532-1.532-4.63-1.711-6.162-0.178l-6.788 6.788c-1.024 1.024-0.878 2.794-0.532 4.1l9.26-8.948c0.766-0.766 2.143 0.204 2.909 0.97s1.736 2.143 0.97 2.909l-8.978 9.23c1.306 0.344 3.106 0.522 4.13-0.502l6.788-6.788c1.532-1.531 1.324-4.661-0.209-6.193v0zM11.758 32.121c-0.766 0.766-2.143-0.204-2.909-0.97s-1.736-2.143-0.97-2.909l8.948-9.26c-1.306-0.345-3.076-0.492-4.1 0.532l-6.788 6.788c-1.532 1.532-1.354 4.63 0.178 6.161l1.387 1.388c1.531 1.532 4.66 1.741 6.192 0.209l6.788-6.788c1.024-1.024 0.848-2.824 0.502-4.13l-9.23 8.978zM23.105 16.879c-0.383-0.382-1.004-0.382-1.387 0l-4.853 4.853c-0.383 0.384-0.383 1.004 0 1.388 0.383 0.382 1.004 0.382 1.387 0l4.853-4.853c0.383-0.384 0.383-1.004 0-1.388v0z"></path>
</svg>
