<!-- Generated by IcoMoon.io -->
<svg version="1.1" xmlns="http://www.w3.org/2000/svg" width="39" height="40" viewBox="0 0 39 40">
<title>bm-reply1</title>
<path fill="#ebebeb" d="M17.695 12.011v-6.743c0.039-0.343-0.054-0.686-0.314-0.949-0.453-0.446-1.186-0.446-1.639 0l-11.416 12.526c-0.241 0.24-0.344 0.549-0.328 0.869-0.016 0.309 0.087 0.629 0.328 0.869l11.353 12.446c0.424 0.366 1.202 0.571 1.702 0.069 0.259-0.251 0.374-0.48 0.334-0.811v-6.857c7.543 0 14.365 5.429 15.719 12.583 0.912-2.103 1.424-4.411 1.424-6.846 0-9.474-7.685-17.154-17.162-17.154z"></path>
</svg>
