<!-- Generated by IcoMoon.io -->
<svg version="1.1" xmlns="http://www.w3.org/2000/svg" width="40" height="40" viewBox="0 0 40 40">
<title>bm-speaker1</title>
<path fill="#ebebeb" d="M31 10c-0.553 0-1-0.447-1-1s0.447-1 1-1c0.553 0 1 0.447 1 1s-0.447 1-1 1v0zM20 32c-6.627 0-12-5.372-12-12 0-6.627 5.373-12 12-12s12 5.373 12 12c0 6.628-5.373 12-12 12v0zM31 32c-0.553 0-1-0.447-1-1s0.447-1 1-1c0.553 0 1 0.447 1 1s-0.447 1-1 1v0zM9 32c-0.553 0-1-0.447-1-1s0.447-1 1-1c0.553 0 1 0.447 1 1s-0.447 1-1 1v0zM9 8c0.553 0 1 0.447 1 1s-0.447 1-1 1c-0.553 0-1-0.447-1-1s0.447-1 1-1v0zM32 4h-24c-2.209 0-4 1.791-4 4v24c0 2.209 1.791 4 4 4h24c2.209 0 4-1.791 4-4v-24c0-2.209-1.791-4-4-4v0zM20 26c-3.313 0-6-2.687-6-6s2.687-6 6-6c3.313 0 6 2.687 6 6s-2.687 6-6 6v0zM20 10c-5.522 0-10 4.478-10 10 0 5.523 4.478 10 10 10s10-4.477 10-10c0-5.522-4.478-10-10-10v0zM20 16c-2.209 0-4 1.791-4 4s1.791 4 4 4c2.209 0 4-1.791 4-4s-1.791-4-4-4v0z"></path>
</svg>
