<!-- Generated by IcoMoon.io -->
<svg version="1.1" xmlns="http://www.w3.org/2000/svg" width="40" height="40" viewBox="0 0 40 40">
<title>bm-stop1</title>
<path fill="#ebebeb" d="M33.714 32.571c0 0.632-0.511 1.143-1.143 1.143h-25.143c-0.632 0-1.143-0.511-1.143-1.143v-25.143c0-0.631 0.511-1.143 1.143-1.143h25.143c0.632 0 1.143 0.512 1.143 1.143v25.143zM33.714 4h-27.429c-1.262 0-2.286 1.024-2.286 2.286v27.429c0 1.262 1.024 2.286 2.286 2.286h27.429c1.262 0 2.286-1.024 2.286-2.286v-27.429c0-1.262-1.024-2.286-2.286-2.286v0z"></path>
</svg>
