<!-- Generated by IcoMoon.io -->
<svg version="1.1" xmlns="http://www.w3.org/2000/svg" width="43" height="40" viewBox="0 0 43 40">
<title>bm-sunset1</title>
<path fill="#ebebeb" d="M36 29.143h-29.714c-0.631 0-1.143 0.512-1.143 1.143 0 0.632 0.512 1.143 1.143 1.143h29.714c0.631 0 1.143-0.511 1.143-1.143 0-0.631-0.512-1.143-1.143-1.143v0zM7.429 13.616c0.447 0.447 1.17 0.447 1.616 0 0.447-0.447 0.447-1.169 0-1.616l-1.616-1.616c-0.447-0.447-1.169-0.447-1.616 0s-0.447 1.169 0 1.616l1.616 1.616zM37.143 24.571h-32c-0.631 0-1.143 0.511-1.143 1.143s0.512 1.143 1.143 1.143h32c0.631 0 1.143-0.511 1.143-1.143s-0.512-1.143-1.143-1.143v0zM32.571 33.714h-22.857c-0.631 0-1.143 0.512-1.143 1.143 0 0.632 0.512 1.143 1.143 1.143h22.857c0.631 0 1.143-0.511 1.143-1.143 0-0.631-0.512-1.143-1.143-1.143v0zM21.143 8.571c0.631 0 1.143-0.511 1.143-1.143v-2.286c0-0.632-0.512-1.143-1.143-1.143s-1.143 0.511-1.143 1.143v2.286c0 0.632 0.512 1.143 1.143 1.143v0zM34.857 13.616l1.616-1.616c0.447-0.447 0.447-1.169 0-1.616-0.446-0.447-1.169-0.447-1.616 0l-1.616 1.616c-0.447 0.447-0.447 1.169 0 1.616s1.169 0.447 1.616 0v0zM9.963 22.286c1.061-5.214 5.649-9.143 11.179-9.143s10.119 3.929 11.179 9.143h2.405c-0.878-6.447-6.617-11.429-13.584-11.429s-12.706 4.982-13.584 11.429h2.405z"></path>
</svg>
