<!-- Generated by IcoMoon.io -->
<svg version="1.1" xmlns="http://www.w3.org/2000/svg" width="40" height="40" viewBox="0 0 40 40">
<title>bm-shop</title>
<path fill="#ebebeb" d="M6.040 14l4.659-8h18.572l4.758 8h-27.989zM34 18c-0.015 1.381-1.606 2.001-3 2-1.607-0.001-3.055-0.974-3.055-2h-0.945c0 1.009-1.791 2-3.333 2-1.479 0-3.199-1.022-3.199-2h-0.969c0 1.009-1.75 2-3.228 2-1.542 0-3.302-0.71-3.302-2h-0.947c0 1.006-1.544 2.031-3.027 2.031-1.504 0-2.995-0.65-2.995-2.031v-2h28v2zM33 28h-25.997l-0.003-6h1.964c1.074 0 2.777-0.958 3.498-2.424 0.809 1.425 2.319 2.424 3.761 2.424 1.523 0 3.2-0.906 3.76-2.216 0.561 1.279 2.203 2.216 3.695 2.216 1.48 0 3.013-1.088 3.789-2.574 0.907 1.5 1.639 2.574 3.533 2.574 0.293 0 1.744 0.048 2 0v6zM33 32c0 1.104-1.050 2-2.189 2h-21.655c-1.139 0-2.153-0.896-2.153-2v-2h25.997v2zM30.154 4h-20.341l-5.813 10v4c0 1.065 0.383 2.229 1.001 3l0.030 11c0 2.209 1.847 4 4.125 4h21.655c2.278 0 4.189-1.791 4.189-4v-11c0.7-0.824 1-1.67 1-3v-4l-5.846-10z"></path>
</svg>
