<!-- Generated by IcoMoon.io -->
<svg version="1.1" xmlns="http://www.w3.org/2000/svg" width="47" height="40" viewBox="0 0 47 40">
<title>bm-shuffle1</title>
<path fill="#ebebeb" d="M35.343 25.101c-0.415-0.41-1.71-0.303-2.126 0.109v3.834h-5.565l-4.918-6.733-1.75 2.269 5.277 7.119h6.957v3.996c0.416 0.41 1.711 0.228 2.126-0.184l5.903-4.462c0.415-0.41 0.415-1.075 0-1.487l-5.903-4.462zM33.217 10.957v3.74c0.416 0.409 1.711 0.58 2.126 0.171l5.903-4.462c0.415-0.412 0.415-1.078 0-1.489l-5.903-4.463c-0.415-0.41-1.71-0.647-2.126-0.237v3.957h-6.957l-15.304 20.87h-5.565c-0.769 0-1.391 0.519-1.391 1.28 0 0.76 0.622 1.503 1.391 1.503h6.957l15.304-20.87h5.565zM5.391 10.957h5.565l4.881 6.682 1.75-2.269c0 0-4.886-6.746-5.24-7.196h-6.957c-0.769 0-1.391 0.743-1.391 1.503 0 0.761 0.622 1.28 1.391 1.28v0z"></path>
</svg>
