<!-- Generated by IcoMoon.io -->
<svg version="1.1" xmlns="http://www.w3.org/2000/svg" width="40" height="40" viewBox="0 0 40 40">
<title>bm-tv-television1</title>
<path fill="#ebebeb" d="M29 22c-1.657 0-3-1.343-3-3s1.343-3 3-3c1.657 0 3 1.343 3 3s-1.343 3-3 3v0zM31 29h-4c-0.553 0-1-0.447-1-1s0.447-1 1-1h4c0.553 0 1 0.447 1 1s-0.447 1-1 1v0zM31 32h-4c-0.553 0-1-0.447-1-1s0.447-1 1-1h4c0.553 0 1 0.447 1 1s-0.447 1-1 1v0zM24 30c0 1.104-0.896 2-2 2h-12c-1.104 0-2-0.896-2-2v-12c0-1.104 0.896-2 2-2h12c1.104 0 2 0.896 2 2v12zM32 12h-9.254l8.772-6.035c0.463-0.319 0.595-0.977 0.295-1.469-0.299-0.492-0.918-0.633-1.382-0.314 0 0-9.61 6.635-10.422 7.125l-10.44-7.125c-0.463-0.319-1.083-0.178-1.382 0.314-0.3 0.492-0.168 1.15 0.295 1.469l8.772 6.035h-9.254c-2.209 0-4 1.791-4 4v16c0 2.209 1.791 4 4 4h24c2.209 0 4-1.791 4-4v-16c0-2.209-1.791-4-4-4v0zM28 20h2v-2h-2v2zM21 18h-10c-0.553 0-1 0.448-1 1v10c0 0.553 0.447 1 1 1h10c0.553 0 1-0.447 1-1v-10c0-0.552-0.447-1-1-1v0z"></path>
</svg>
