<!-- Generated by IcoMoon.io -->
<svg version="1.1" xmlns="http://www.w3.org/2000/svg" width="28" height="40" viewBox="0 0 28 40">
<title>bm-tag1</title>
<path fill="#ebebeb" d="M15 21.015c-2.214 0-4.008-1.792-4.008-4.002 0-2.211 1.794-4.002 4.008-4.002s4.009 1.791 4.009 4.002c0 2.21-1.794 4.002-4.009 4.002v0zM25.279 13.904l-9.091-9.361c-0.717-0.739-1.879-0.739-2.597 0l-9.091 9.361c-0.515 0.53-0.501 0.906-0.486 1.617h-0.014v16.383c0 2.262 1.781 4.096 3.978 4.096h13.92c2.197 0 3.978-1.834 3.978-4.096v-15.36c0-1.187 0.12-1.901-0.597-2.64v0zM15 15.012c-1.106 0-2.004 0.895-2.004 2.001 0 1.104 0.898 2.001 2.004 2.001 1.107 0 2.005-0.897 2.005-2.001 0-1.106-0.898-2.001-2.005-2.001v0z"></path>
</svg>
