<!-- Generated by IcoMoon.io -->
<svg version="1.1" xmlns="http://www.w3.org/2000/svg" width="44" height="40" viewBox="0 0 44 40">
<title>bm-volume-full1</title>
<path fill="#ebebeb" d="M25.714 4.017v2.346c6.711 1.293 11.429 6.766 11.429 13.637 0 6.832-4.571 12.125-11.429 13.637v2.347c7.744-1.134 13.714-7.821 13.714-15.984s-5.97-14.85-13.714-15.983v0zM20 6.286l-8 5.334v16.761l8 5.334c1.262 0 2.286-1.024 2.286-2.286v-22.857c0-1.262-1.024-2.286-2.286-2.286v0zM32.571 20c0-4.026-2.985-7.326-6.857-7.885v2.286c2.608 0.529 4.571 2.834 4.571 5.599s-1.963 5.070-4.571 5.599v2.286c3.872-0.559 6.857-3.858 6.857-7.885v0zM4 15.429v9.143c0 1.262 1.024 2.286 2.286 2.286h3.429v-13.714h-3.429c-1.262 0-2.286 1.024-2.286 2.286v0z"></path>
</svg>
