<!-- Generated by IcoMoon.io -->
<svg version="1.1" xmlns="http://www.w3.org/2000/svg" width="33" height="40" viewBox="0 0 33 40">
<title>bm-water</title>
<path fill="#ebebeb" d="M17 29c-2.755 0-4.988-2.364-4.988-5.281s3.082-5.203 4.955-7.214c1.947 2.062 5.021 4.297 5.021 7.214s-2.233 5.281-4.988 5.281v0zM17 14c-2.628 2.629-7 6.279-7 10.094 0 3.814 3.134 6.906 7 6.906s7-3.092 7-6.906c0-3.815-4.267-7.397-7-10.094v0zM17 34c-6.075 0-11-4.911-11-10.969s6.871-11.855 11-16.031c4.296 4.283 11 9.974 11 16.031s-4.925 10.969-11 10.969v0zM17 4c-4.88 4.949-13 11.82-13 19s5.82 13 13 13c7.18 0 13-5.82 13-13s-7.923-13.923-13-19v0z"></path>
</svg>
