<!-- Generated by IcoMoon.io -->
<svg version="1.1" xmlns="http://www.w3.org/2000/svg" width="43" height="40" viewBox="0 0 43 40">
<title>bm-wind1</title>
<path fill="#ebebeb" d="M31.077 21.231h-25.846c-0.681 0-1.231 0.55-1.231 1.231s0.55 1.231 1.231 1.231h24.41c3.513 0 6.359 2.204 6.359 4.923s-2.103 4.923-7.385 4.923v2.462h2.462c4.078 0 7.385-3.307 7.385-7.385s-3.307-7.385-7.385-7.385v0zM21.233 26.154h-9.849c-0.681 0-1.231 0.551-1.231 1.231 0 0.681 0.55 1.231 1.231 1.231h9.846c1.359 0 2.462 1.103 2.462 2.462s-1.103 2.462-2.462 2.462v2.462c2.719 0 4.923-2.204 4.923-4.923 0-2.718-2.203-4.921-4.921-4.923v0zM15.077 13.846h14.769c0.681 0 1.231-0.55 1.231-1.231 0-0.679-0.55-1.231-1.231-1.231h-14.769c-0.681 0-1.231 0.551-1.231 1.231 0 0.681 0.55 1.231 1.231 1.231v0zM8.923 18.769h22.154c4.078 0 7.385-3.307 7.385-7.385s-3.307-7.385-7.385-7.385v2.462c3.473 0.654 4.923 2.204 4.923 4.923s-2.847 4.923-6.359 4.923h-20.718c-0.681 0-1.231 0.551-1.231 1.231 0 0.681 0.55 1.231 1.231 1.231v0z"></path>
</svg>
