<!-- Generated by IcoMoon.io -->
<svg version="1.1" xmlns="http://www.w3.org/2000/svg" width="24" height="24" viewBox="0 0 24 24">
<title>build_circle</title>
<path fill="#ebebeb" d="M12 4.012q-1.65 0-3.094 0.619t-2.55 1.725-1.725 2.55-0.619 3.094 0.619 3.094 1.725 2.55 2.55 1.725 3.094 0.619 3.094-0.619 2.55-1.725 1.725-2.55 0.619-3.094-0.619-3.094-1.725-2.55-2.55-1.725-3.094-0.619zM15.938 14.775l-1.125 1.125q-0.15 0.15-0.3 0.15t-0.263-0.15l-2.738-2.7q-0.75 0.225-1.537 0.075t-1.35-0.75q-0.675-0.637-0.788-1.556t0.3-1.706l1.875 1.875 1.125-1.125-1.875-1.875q0.788-0.412 1.706-0.3t1.594 0.788q0.563 0.563 0.731 1.35t-0.094 1.537l2.737 2.737q0.112 0.112 0.112 0.263t-0.112 0.263z"></path>
</svg>
