<!-- Generated by IcoMoon.io -->
<svg version="1.1" xmlns="http://www.w3.org/2000/svg" width="24" height="24" viewBox="0 0 24 24">
<title>camera_alt</title>
<path fill="#ebebeb" d="M12 16.013q1.65 0 2.831-1.181t1.181-2.831-1.181-2.831-2.831-1.181-2.831 1.181-1.181 2.831 1.181 2.831 2.831 1.181zM9.6 4.012h4.8l1.462 1.575h2.55q0.637 0 1.106 0.487t0.469 1.125v9.6q0 0.638-0.469 1.125t-1.106 0.488h-12.825q-0.638 0-1.106-0.488t-0.469-1.125v-9.6q0-0.638 0.469-1.125t1.106-0.487h2.55zM9.45 12q0-1.050 0.75-1.8t1.8-0.75 1.8 0.75 0.75 1.8-0.75 1.8-1.8 0.75-1.8-0.75-0.75-1.8z"></path>
</svg>
