<!-- Generated by IcoMoon.io -->
<svg version="1.1" xmlns="http://www.w3.org/2000/svg" width="24" height="24" viewBox="0 0 24 24">
<title>camera_roll</title>
<path fill="#ebebeb" d="M18.413 9.6v-1.613h-1.613v1.613h1.613zM18.413 16.8v-1.612h-1.613v1.612h1.613zM15.188 9.6v-1.613h-1.575v1.613h1.575zM15.188 16.8v-1.612h-1.575v1.612h1.575zM12 9.6v-1.613h-1.613v1.613h1.613zM12 16.8v-1.612h-1.613v1.612h1.613zM13.612 6.413h6.375v12h-6.375q0 0.637-0.487 1.106t-1.125 0.469h-6.413q-0.638 0-1.106-0.469t-0.469-1.106v-12q0-0.638 0.469-1.125t1.106-0.487h0.825v-0.788q0-0.337 0.225-0.581t0.563-0.244h3.188q0.338 0 0.581 0.244t0.244 0.581v0.788h0.788q0.638 0 1.125 0.487t0.487 1.125z"></path>
</svg>
