<!-- Generated by IcoMoon.io -->
<svg version="1.1" xmlns="http://www.w3.org/2000/svg" width="24" height="24" viewBox="0 0 24 24">
<title>cancel_presentation</title>
<path fill="#ebebeb" d="M14.063 8.813l1.125 1.125-2.063 2.063 2.063 2.063-1.125 1.125-2.063-2.063-2.063 2.063-1.125-1.125 2.063-2.063-2.063-2.063 1.125-1.125 2.063 2.063zM19.2 4.8q0.637 0 1.125 0.487t0.487 1.125v11.175q0 0.637-0.487 1.125t-1.125 0.488h-14.4q-0.638 0-1.125-0.488t-0.488-1.125v-11.175q0-0.637 0.488-1.125t1.125-0.487h14.4zM19.2 17.663v-11.25h-14.4v11.25h14.4z"></path>
</svg>
