<!-- Generated by IcoMoon.io -->
<svg version="1.1" xmlns="http://www.w3.org/2000/svg" width="24" height="24" viewBox="0 0 24 24">
<title>card_travel</title>
<path fill="#ebebeb" d="M18.413 13.612v-4.8h-2.4v1.575h-1.613v-1.575h-4.8v1.575h-1.612v-1.575h-2.4v4.8h12.825zM18.413 17.587v-1.575h-12.825v1.575h12.825zM9.6 5.588v1.612h4.8v-1.612h-4.8zM18.413 7.2q0.675 0 1.125 0.469t0.45 1.144v8.775q0 0.675-0.45 1.144t-1.125 0.469h-12.825q-0.675 0-1.125-0.469t-0.45-1.144v-8.775q0-0.675 0.45-1.144t1.125-0.469h2.4v-1.612q0-0.675 0.469-1.125t1.144-0.45h4.8q0.675 0 1.144 0.45t0.469 1.125v1.612h2.4z"></path>
</svg>
