<!-- Generated by IcoMoon.io -->
<svg version="1.1" xmlns="http://www.w3.org/2000/svg" width="24" height="24" viewBox="0 0 24 24">
<title>celebration</title>
<path fill="#ebebeb" d="M14.438 7.087q0.263-0.263 0.263-0.675t-0.263-0.713l-1.275-1.275 0.862-0.863 1.275 1.275q0.638 0.713 0.638 1.575 0 0.825-0.638 1.537l-2.888 2.888-0.825-0.863zM16.050 11.887q0.713-0.637 1.538-0.637 0.863 0 1.575 0.637l1.275 1.313-0.825 0.825-1.313-1.275q-0.3-0.3-0.712-0.3-0.375 0-0.675 0.3l-1.275 1.275-0.862-0.862zM10.462 7.913q0.263-0.263 0.263-0.712t-0.263-0.712l-0.487-0.45 0.862-0.862 0.45 0.45q0.637 0.712 0.637 1.575 0 0.825-0.637 1.537l-0.45 0.488-0.862-0.863zM14.025 12.413l-0.862-0.825 4.5-4.5q0.712-0.637 1.538-0.637 0.862 0 1.575 0.637l0.45 0.488-0.825 0.863-0.488-0.488q-0.3-0.3-0.712-0.3t-0.712 0.3zM4.012 19.987l3.975-11.175 7.2 7.2z"></path>
</svg>
