<!-- Generated by IcoMoon.io -->
<svg version="1.1" xmlns="http://www.w3.org/2000/svg" width="24" height="24" viewBox="0 0 24 24">
<title>circle_notifications</title>
<path fill="#ebebeb" d="M16.013 15.188v-0.788l-0.825-0.787v-2.1q0-1.313-0.619-2.288t-1.781-1.238v-0.375q0-0.337-0.225-0.581t-0.563-0.244-0.563 0.244-0.225 0.581v0.375q-1.162 0.262-1.781 1.238t-0.619 2.288v2.1l-0.825 0.787v0.788h8.025zM12 17.212q0.525 0 0.862-0.356t0.338-0.844h-2.4q0 0.487 0.338 0.844t0.862 0.356zM12 4.012q3.3 0 5.644 2.344t2.344 5.644-2.344 5.644-5.644 2.344-5.644-2.344-2.344-5.644 2.344-5.644 5.644-2.344z"></path>
</svg>
