<!-- Generated by IcoMoon.io -->
<svg version="1.1" xmlns="http://www.w3.org/2000/svg" width="24" height="24" viewBox="0 0 24 24">
<title>commute</title>
<path fill="#ebebeb" d="M18.413 15.188q0.337 0 0.563-0.225t0.225-0.563-0.225-0.563-0.563-0.225-0.581 0.225-0.244 0.563 0.244 0.563 0.581 0.225zM12 15.188q0.337 0 0.563-0.225t0.225-0.563-0.225-0.563-0.563-0.225-0.563 0.225-0.225 0.563 0.225 0.563 0.563 0.225zM12.337 10.387l-0.825 2.4h7.387l-0.825-2.4h-5.738zM18.862 10.125l1.125 3.3v4.388q0 0.225-0.169 0.413t-0.394 0.188h-0.487q-0.225 0-0.375-0.206t-0.15-0.431v-0.975h-6.413v0.975q0 0.225-0.169 0.431t-0.394 0.206h-0.488q-0.225 0-0.375-0.188t-0.15-0.413l-0.038-4.388 1.163-3.3q0.188-0.525 0.787-0.525h5.738q0.6 0 0.787 0.525zM6.413 13.612q-0.337 0-0.581 0.225t-0.244 0.563 0.244 0.563 0.581 0.225 0.563-0.225 0.225-0.563-0.225-0.563-0.563-0.225zM12 5.588q0.975 0 1.688 0.713t0.712 1.688v0.825h-1.612v-1.613h-7.2v5.588h4.013v4.012l-1.613-0.037-1.575 1.65h-0.825v-0.825l0.825-0.788q-0.975 0-1.688-0.712t-0.713-1.688v-6.413q0-0.975 0.713-1.688t1.688-0.713h5.587z"></path>
</svg>
