<!-- Generated by IcoMoon.io -->
<svg version="1.1" xmlns="http://www.w3.org/2000/svg" width="40" height="40" viewBox="0 0 40 40">
<title>di-browser</title>
<path fill="#ebebeb" d="M34.609 7.13h-29.217c-0.765 0-1.391 0.626-1.391 1.391v22.957c0 0.765 0.626 1.391 1.391 1.391h29.217c0.765 0 1.391-0.626 1.391-1.391v-22.957c0-0.765-0.626-1.391-1.391-1.391zM33.217 13.043h-9.739v-3.13h9.739v3.13zM12.348 13.043v-3.13h3.478v3.13h-3.478zM17.913 9.913h3.478v3.13h-3.478v-3.13zM10.261 9.913v3.13h-3.478v-3.13h3.478zM6.783 30.087v-14.609h26.435v14.609h-26.435z"></path>
</svg>
