<!-- Generated by IcoMoon.io -->
<svg version="1.1" xmlns="http://www.w3.org/2000/svg" width="40" height="40" viewBox="0 0 40 40">
<title>di-bell</title>
<path fill="#ebebeb" d="M33.217 28.87c-2.33 0-3.235-1.357-3.235-9.878 0-6.678-3.026-10.852-8.243-11.478v-2.157c0-0.765-0.626-1.391-1.391-1.391s-1.391 0.626-1.391 1.391v2.087c-5.565 0.452-8.8 4.696-8.8 11.513 0 8.522-1.009 9.878-3.374 9.878-0.73 0.035-1.391 0.557-1.391 1.322 0 0.8 0.626 1.322 1.391 1.322h9.043c0.104 1.043 0.417 2.33 1.252 3.235 0.73 0.8 1.704 1.252 2.852 1.252s2.122-0.487 2.852-1.252c0.87-0.939 1.217-2.191 1.357-3.235h9.078c0.765 0 1.391-0.522 1.391-1.322 0-0.765-0.626-1.287-1.391-1.287zM20.765 32.835c-0.139 0.139-0.348 0.348-0.835 0.348-0.452 0-0.661-0.209-0.8-0.348-0.243-0.313-0.417-0.661-0.487-1.357h1.183c0.070 0 0.139 0 0.209 0s0.139 0 0.209 0h1.148c-0.139 0.696-0.313 1.043-0.626 1.357zM20.209 28.696c-0.070 0-0.139 0-0.209 0s-0.139 0-0.209 0h-8.209c1.287-2.435 1.287-6.226 1.287-9.774 0-5.67 2.47-8.661 6.922-8.661h0.383c4.452 0 6.922 2.991 6.922 8.661 0 3.548 0 7.339 1.287 9.774h-8.174zM25.148 16.348c0.035 0.661-0.487 1.252-1.148 1.287-0.035 0-0.035 0-0.070 0-0.626 0-1.183-0.487-1.217-1.148-0.104-1.565-1.322-2.122-1.461-2.191-0.626-0.278-0.904-0.974-0.661-1.6s0.939-0.904 1.565-0.661c0.139 0.070 2.817 1.183 2.991 4.313z"></path>
</svg>
