<!-- Generated by IcoMoon.io -->
<svg version="1.1" xmlns="http://www.w3.org/2000/svg" width="40" height="40" viewBox="0 0 40 40">
<title>di-box</title>
<path fill="#ebebeb" d="M29.983 12.348h-19.965c-0.765 0-1.391 0.626-1.391 1.391l-0.209 17.739c0 0.383 0.139 0.73 0.417 1.009s0.626 0.417 0.974 0.417h20.313c0.383 0 0.73-0.139 0.974-0.417 0.278-0.278 0.417-0.626 0.417-0.974l-0.139-17.739c0-0.8-0.626-1.426-1.391-1.426zM20 30.087h-8.8l0.174-14.957h17.217l0.104 14.957h-8.696zM24.452 18.957c0 0.765-0.626 1.391-1.391 1.391h-6.122c-0.765 0-1.391-0.626-1.391-1.391s0.626-1.391 1.391-1.391h6.087c0.8 0 1.426 0.626 1.426 1.391zM34.887 13.357c-0.104 0.035-0.209 0.035-0.278 0.035-0.661 0-1.252-0.452-1.357-1.113l-0.452-2.365h-25.6l-0.452 2.365c-0.139 0.765-0.87 1.252-1.635 1.113s-1.252-0.87-1.113-1.635l0.661-3.478c0.174-0.661 0.73-1.148 1.391-1.148h27.861c0.661 0 1.252 0.487 1.357 1.113l0.661 3.478c0.174 0.765-0.313 1.496-1.043 1.635z"></path>
</svg>
