<!-- Generated by IcoMoon.io -->
<svg version="1.1" xmlns="http://www.w3.org/2000/svg" width="40" height="40" viewBox="0 0 40 40">
<title>di-cart</title>
<path fill="#ebebeb" d="M35.93 13.496l-3.722 11.722c-0.278 0.835-1.009 1.391-1.878 1.391h-14.365c-0.835 0-1.635-0.522-1.913-1.287l-5.496-14.713h-3.165c-0.765 0-1.391-0.626-1.391-1.391s0.626-1.391 1.391-1.391h4.139c0.591 0 1.113 0.383 1.322 0.939l5.67 15.061h13.217l2.957-9.391h-16.383c-0.765 0-1.391-0.626-1.391-1.391s0.626-1.391 1.391-1.391h18.296c0.452 0 0.87 0.243 1.113 0.591 0.278 0.348 0.348 0.835 0.209 1.252zM16.661 28.452c-0.591 0-1.183 0.243-1.6 0.661s-0.661 1.009-0.661 1.6c0 0.591 0.243 1.183 0.661 1.6s1.009 0.661 1.6 0.661 1.183-0.243 1.6-0.661c0.417-0.417 0.661-1.009 0.661-1.6s-0.243-1.183-0.661-1.6c-0.417-0.417-1.009-0.661-1.6-0.661zM29.148 28.452c-0.591 0-1.183 0.243-1.6 0.661s-0.661 1.009-0.661 1.6c0 0.591 0.243 1.183 0.661 1.6s1.009 0.661 1.6 0.661c0.591 0 1.183-0.243 1.6-0.661s0.661-1.009 0.661-1.6c0-0.591-0.243-1.183-0.661-1.6s-1.009-0.661-1.6-0.661z"></path>
</svg>
