<!-- Generated by IcoMoon.io -->
<svg version="1.1" xmlns="http://www.w3.org/2000/svg" width="40" height="40" viewBox="0 0 40 40">
<title>di-cloud-upload</title>
<path fill="#ebebeb" d="M36 21.913c-0.209 3.026-2.574 6.33-7.2 6.33-2.122 0-3.235 0-3.235 0-0.765 0-1.391-0.591-1.391-1.357s0.626-1.322 1.391-1.322c0 0 0 0 0 0s1.113-0.070 3.235-0.070c2.887 0 4.313-1.948 4.452-3.791 0.139-1.913-1.078-4.035-4.035-4.452-0.383-0.070-0.73-0.278-0.939-0.591s-0.278-0.73-0.209-1.113c0.383-1.635-0.035-2.922-1.113-3.513-0.904-0.522-2.365-0.487-3.548 0.661-0.313 0.313-0.765 0.452-1.183 0.383s-0.8-0.348-1.009-0.73c-2.017-3.791-5.113-3.965-7.165-2.991-1.983 0.939-3.548 3.27-2.33 6.226 0.139 0.348 0.139 0.765-0.035 1.113s-0.487 0.626-0.835 0.73c-4.243 1.287-4.139 4.070-4.035 4.904 0.243 1.53 1.461 3.096 3.339 3.096l4.348 0.035c0.765 0 1.391 0.661 1.391 1.426s-0.626 1.461-1.391 1.461c0 0 0 0 0 0l-4.313-0.104c-3.061 0-5.6-2.365-6.087-5.53-0.383-2.435 0.661-5.704 4.557-7.443-0.904-3.826 1.252-7.061 4.174-8.417 2.991-1.426 7.2-1.009 9.983 2.852 1.739-0.974 3.791-1.043 5.496-0.070 1.461 0.835 2.783 2.574 2.643 5.183 3.687 1.113 5.217 4.313 5.043 7.096zM24.904 23.061c0.278 0.278 0.626 0.417 0.974 0.417s0.696-0.139 0.974-0.417c0.557-0.557 0.557-1.426 0-1.983l-5.878-5.913c-0.243-0.243-0.591-0.383-0.974-0.383s-0.73 0.139-0.974 0.417l-5.878 5.913c-0.557 0.557-0.557 1.426 0 1.983s1.426 0.557 1.983 0l3.478-3.583 0.035 13.009c0 0.765 0.626 1.391 1.391 1.391 0 0 0 0 0 0 0.765 0 1.391-0.626 1.391-1.391l-0.035-12.974 3.513 3.513z"></path>
</svg>
