<!-- Generated by IcoMoon.io -->
<svg version="1.1" xmlns="http://www.w3.org/2000/svg" width="40" height="40" viewBox="0 0 40 40">
<title>di-calendar</title>
<path fill="#ebebeb" d="M11.652 11.583v-4.452c0-0.974 0.765-1.739 1.739-1.739s1.739 0.765 1.739 1.739v4.452c0 0.974-0.765 1.739-1.739 1.739s-1.739-0.765-1.739-1.739zM26.609 13.322c0.974 0 1.739-0.765 1.739-1.739v-4.452c0-0.974-0.765-1.739-1.739-1.739s-1.739 0.765-1.739 1.739v4.452c0 0.974 0.765 1.739 1.739 1.739zM36 9.357v23.513c0 0.765-0.626 1.391-1.391 1.391h-29.217c-0.765 0-1.391-0.626-1.391-1.391v-23.513c0-0.765 0.626-1.53 1.391-1.53h3.235c0.765 0 1.391 0.626 1.391 1.391s-0.626 1.391-1.391 1.391h-1.843v5.913h26.435v-5.913h-1.843c-0.765 0-1.391-0.626-1.391-1.391s0.626-1.391 1.391-1.391h3.235c0.765 0 1.391 0.765 1.391 1.53zM33.217 31.478v-12.522h-26.435v12.522h26.435zM17.809 10.609h4.383c0.765 0 1.391-0.626 1.391-1.391s-0.626-1.391-1.391-1.391h-4.383c-0.765 0-1.391 0.626-1.391 1.391s0.626 1.391 1.391 1.391z"></path>
</svg>
