<!-- Generated by IcoMoon.io -->
<svg version="1.1" xmlns="http://www.w3.org/2000/svg" width="40" height="40" viewBox="0 0 40 40">
<title>di-cutlery</title>
<path fill="#ebebeb" d="M32.8 32.243c0.557 0.557 0.557 1.426 0 1.983-0.278 0.243-0.626 0.383-0.974 0.383s-0.696-0.139-0.974-0.417l-11.061-11.061-10.922 11.061c-0.278 0.278-0.626 0.417-0.974 0.417s-0.696-0.139-0.974-0.417c-0.557-0.557-0.557-1.426 0-1.983l10.922-11.061-1.878-1.843-0.278 0.278c-0.87 0.87-2.052 1.357-3.304 1.357s-2.435-0.487-3.304-1.357l-4.661-4.557c-0.557-0.557-0.557-1.426 0-1.983s1.426-0.557 1.983 0l4.626 4.591c0.348 0.348 0.835 0.557 1.357 0.557s0.974-0.209 1.357-0.557l0.313-0.313-6.017-5.913c-0.557-0.557-0.557-1.426 0-1.983s1.426-0.557 1.983 0l5.948 5.948 0.348-0.348c0.73-0.73 0.73-1.948 0-2.713l-4.626-4.557c-0.557-0.557-0.557-1.426 0-1.983s1.426-0.557 1.983 0l4.591 4.591c1.843 1.843 1.843 4.8 0 6.643l-0.348 0.348 1.843 1.843 12.278-12.452c0.243-0.278 0.626-0.417 0.974-0.417s0.73 0.139 0.974 0.417c3.096 3.096 2.574 7.443-1.322 11.339l-4.696 4.696c-0.557 0.557-1.426 0.557-1.983 0s-0.557-1.426 0-1.983l4.696-4.696c2.817-2.817 2.748-4.939 2.157-6.226l-11.096 11.27 11.061 11.096z"></path>
</svg>
