<!-- Generated by IcoMoon.io -->
<svg version="1.1" xmlns="http://www.w3.org/2000/svg" width="40" height="40" viewBox="0 0 40 40">
<title>di-cross</title>
<path fill="#ebebeb" d="M28.591 26.365c0.626 0.626 0.626 1.6 0 2.226-0.313 0.313-0.696 0.452-1.113 0.452s-0.8-0.139-1.113-0.452l-6.365-6.365-6.365 6.365c-0.313 0.313-0.696 0.452-1.113 0.452s-0.8-0.139-1.113-0.452c-0.626-0.626-0.626-1.6 0-2.226l6.365-6.365-6.365-6.365c-0.626-0.626-0.626-1.6 0-2.226s1.6-0.626 2.226 0l6.365 6.365 6.365-6.365c0.626-0.626 1.6-0.626 2.226 0s0.626 1.6 0 2.226l-6.365 6.365 6.365 6.365z"></path>
</svg>
