<!-- Generated by IcoMoon.io -->
<svg version="1.1" xmlns="http://www.w3.org/2000/svg" width="40" height="40" viewBox="0 0 40 40">
<title>di-direction</title>
<path fill="#ebebeb" d="M21.357 34.609c-0.070 0-0.139 0-0.209-0.035-0.626-0.104-1.113-0.591-1.148-1.217l-1.217-12.104-12.139-1.217c-0.626-0.070-1.148-0.557-1.217-1.148-0.104-0.626 0.243-1.217 0.8-1.496l26.435-11.861c0.522-0.243 1.148-0.139 1.565 0.278s0.522 1.043 0.278 1.565l-11.861 26.435c-0.243 0.487-0.765 0.8-1.287 0.8zM12.104 17.809l8.035 0.8c0.661 0.070 1.183 0.591 1.252 1.252l0.835 8.035 8.209-18.33-18.33 8.243z"></path>
</svg>
