<!-- Generated by IcoMoon.io -->
<svg version="1.1" xmlns="http://www.w3.org/2000/svg" width="40" height="40" viewBox="0 0 40 40">
<title>di-document</title>
<path fill="#ebebeb" d="M30.435 4.696h-20.87c-0.765 0-1.391 0.626-1.391 1.391v27.826c0 0.765 0.626 1.391 1.391 1.391h20.87c0.765 0 1.391-0.626 1.391-1.391v-27.826c0-0.765-0.626-1.391-1.391-1.391zM29.043 32.522h-18.087v-25.043h18.087v25.043zM14.261 23.304c0-0.661 0.557-1.217 1.217-1.217h4.104c0.661 0 1.217 0.557 1.217 1.217s-0.557 1.217-1.217 1.217h-4.104c-0.696 0-1.217-0.557-1.217-1.217zM14.435 17.739c0-0.661 0.557-1.217 1.217-1.217h8.278c0.661 0 1.217 0.557 1.217 1.217s-0.522 1.217-1.217 1.217h-8.278c-0.661 0-1.217-0.557-1.217-1.217zM14.435 12.522c0-0.661 0.557-1.217 1.217-1.217h8.278c0.661 0 1.217 0.557 1.217 1.217s-0.522 1.217-1.217 1.217h-8.278c-0.661 0-1.217-0.557-1.217-1.217zM24.765 22.539c0.209 0.209 0.348 0.522 0.348 0.87 0 0.313-0.139 0.626-0.348 0.87s-0.557 0.348-0.87 0.348-0.626-0.139-0.87-0.348c-0.243-0.209-0.348-0.522-0.348-0.87 0-0.313 0.139-0.626 0.348-0.87 0.452-0.452 1.287-0.452 1.739 0z"></path>
</svg>
