<!-- Generated by IcoMoon.io -->
<svg version="1.1" xmlns="http://www.w3.org/2000/svg" width="40" height="40" viewBox="0 0 40 40">
<title>di-dots-3</title>
<path fill="#ebebeb" d="M11.304 22.435c-0.626 0-1.287-0.278-1.739-0.73s-0.696-1.078-0.696-1.704c0-0.626 0.278-1.252 0.696-1.739 0.452-0.452 1.078-0.696 1.739-0.696 0.626 0 1.252 0.278 1.704 0.696 0.452 0.452 0.73 1.078 0.73 1.739 0 0.626-0.278 1.252-0.73 1.704s-1.078 0.73-1.704 0.73zM21.704 21.704c0.452-0.452 0.73-1.078 0.73-1.704s-0.278-1.252-0.73-1.739c-0.452-0.452-1.078-0.696-1.704-0.696s-1.287 0.278-1.739 0.696c-0.452 0.452-0.696 1.078-0.696 1.739 0 0.626 0.278 1.252 0.696 1.704 0.452 0.452 1.078 0.73 1.739 0.73 0.626 0 1.252-0.278 1.704-0.73zM30.4 21.704c0.452-0.452 0.73-1.078 0.73-1.704s-0.278-1.252-0.73-1.739c-0.452-0.452-1.078-0.696-1.704-0.696s-1.287 0.278-1.739 0.696c-0.452 0.452-0.696 1.078-0.696 1.739 0 0.626 0.278 1.252 0.696 1.704 0.452 0.452 1.078 0.73 1.739 0.73 0.626 0 1.252-0.278 1.704-0.73z"></path>
</svg>
