<!-- Generated by IcoMoon.io -->
<svg version="1.1" xmlns="http://www.w3.org/2000/svg" width="40" height="40" viewBox="0 0 40 40">
<title>di-enter</title>
<path fill="#ebebeb" d="M34.957 8.522v22.957c0 0.765-0.626 1.391-1.391 1.391h-18.122c-0.765 0-1.357-0.626-1.357-1.391v-6.365c0-0.765 0.626-1.391 1.391-1.391s1.391 0.626 1.391 1.391v4.974h15.304v-20.174h-15.304v4.974c0 0.765-0.626 1.391-1.391 1.391s-1.391-0.626-1.391-1.391v-6.365c0-0.765 0.591-1.391 1.357-1.391h18.122c0.765 0 1.391 0.626 1.391 1.391zM20.174 24.487c-0.557 0.557-0.522 1.426 0 1.983 0.278 0.278 0.626 0.417 0.974 0.417s0.73-0.139 0.974-0.417l5.461-5.496c0.522-0.557 0.522-1.426 0-1.948l-5.426-5.565c-0.557-0.557-1.426-0.557-1.983 0s-0.557 1.426 0 1.983l3.096 3.13-16.835 0.035c-0.765 0-1.391 0.626-1.391 1.391s0.626 1.391 1.391 1.391c0 0 0 0 0 0l16.835-0.035-3.096 3.13z"></path>
</svg>
