<!-- Generated by IcoMoon.io -->
<svg version="1.1" xmlns="http://www.w3.org/2000/svg" width="40" height="40" viewBox="0 0 40 40">
<title>di-feed</title>
<path fill="#ebebeb" d="M25.461 32.591c-0.035 1.043-0.904 1.843-1.913 1.843-0.035 0-0.070 0-0.070 0-1.043-0.035-1.878-0.939-1.843-1.983 0.209-4.939-0.974-8.626-3.513-11.026-4.035-3.791-10.365-3.165-10.435-3.165-1.043 0.104-1.983-0.661-2.122-1.704-0.104-1.043 0.626-1.983 1.704-2.122 0.313-0.035 8.104-0.835 13.461 4.139 3.409 3.2 4.974 7.93 4.73 14.017zM10.435 25.183c-1.183 0-2.365 0.487-3.2 1.322s-1.322 2.017-1.322 3.2 0.487 2.365 1.322 3.2c0.835 0.835 2.017 1.322 3.2 1.322s2.365-0.487 3.2-1.322c0.835-0.835 1.322-2.017 1.322-3.2s-0.487-2.365-1.322-3.2c-0.835-0.835-2.017-1.322-3.2-1.322zM27.339 11.722c-7.965-7.409-19.583-6.087-20.104-6.052-1.043 0.139-1.809 1.078-1.67 2.122s1.078 1.809 2.122 1.67c0.104 0 10.365-1.148 17.043 5.043 4.209 3.896 6.157 9.913 5.809 17.913-0.035 1.043 0.765 1.948 1.843 1.983 0.035 0 0.070 0 0.070 0 1.009 0 1.878-0.8 1.913-1.843 0.417-9.113-1.948-16.139-7.026-20.835z"></path>
</svg>
