<!-- Generated by IcoMoon.io -->
<svg version="1.1" xmlns="http://www.w3.org/2000/svg" width="40" height="40" viewBox="0 0 40 40">
<title>di-graph-pie</title>
<path fill="#ebebeb" d="M15.687 16.939h-10.47c-0.661 0-1.217-0.557-1.217-1.217 0-6.47 5.252-11.722 11.687-11.722 0.661 0 1.217 0.557 1.217 1.217v10.47c0.035 0.696-0.522 1.252-1.217 1.252zM6.539 14.47h7.965v-7.93c-4.139 0.522-7.443 3.826-7.965 7.93zM21.078 36c-8.243 0-14.922-6.4-14.922-14.296 0-0.765 0.626-1.391 1.391-1.391h12.765v-12.765c0-0.765 0.626-1.391 1.391-1.391 7.757 0 14.296 6.817 14.296 14.922 0 8.209-6.713 14.922-14.922 14.922zM9.043 23.096c0.73 5.704 5.843 10.122 12.035 10.122 6.678 0 12.139-5.461 12.139-12.139 0-6.087-4.522-11.304-10.122-12.035v12.661c0 0.765-0.626 1.391-1.391 1.391h-12.661z"></path>
</svg>
