<!-- Generated by IcoMoon.io -->
<svg version="1.1" xmlns="http://www.w3.org/2000/svg" width="40" height="40" viewBox="0 0 40 40">
<title>di-headset</title>
<path fill="#ebebeb" d="M34.957 18.887l-0.035 8.8c0 0.765-0.626 1.357-1.391 1.357 0 0 0 0 0 0-0.765 0-1.391-0.591-1.391-1.357l0.035-8.8c0-3.235-1.252-6.261-3.548-8.557-2.296-2.261-5.322-3.548-8.591-3.548 0 0-0.035 0-0.035 0-6.678 0-12.139 5.391-12.174 12.035v8.835c0 0.765-0.626 1.391-1.391 1.391 0 0 0 0 0 0-0.765 0-1.391-0.626-1.391-1.391l0.035-8.835c0-8.174 6.713-14.817 14.922-14.817 0 0 0.035 0 0.035 0 4 0 7.757 1.565 10.539 4.383 2.852 2.817 4.383 6.539 4.383 10.504zM16.73 19.617c0.243 0.243 0.348 0.487 0.348 0.8l-0.035 14.087c0 0.661-0.557 1.148-1.217 1.148 0 0 0 0 0 0-4.591 0-6.087-2.643-6.261-4.104 0-0.035 0 0 0-0.070v-7.93c0-0.035 0-0.070 0-0.139 0.174-1.426 1.704-4.104 6.261-4.104 0 0 0.035 0 0.035 0 0.313 0 0.626 0.070 0.87 0.313zM14.643 21.774c-2.191 0.348-2.574 1.635-2.643 1.878l-0.035 7.757c0.070 0.278 0.452 1.53 2.643 1.878l0.035-11.513zM30.47 23.548l0.035 7.896c0 0.035 0 0.070 0 0.104-0.174 1.426-1.67 4.104-6.261 4.104 0 0 0 0 0 0-0.661 0-1.217-0.452-1.217-1.148l-0.035-14.017c0-0.313 0.139-0.626 0.348-0.835 0.243-0.243 0.522-0.348 0.87-0.348 0 0 0.035 0 0.035 0 4.557 0 6.087 2.678 6.261 4.139-0.035 0.035-0.035 0.035-0.035 0.104zM28.070 31.409l-0.035-7.757c-0.070-0.278-0.452-1.53-2.643-1.878l0.035 11.513c2.226-0.383 2.574-1.635 2.643-1.878z"></path>
</svg>
