<!-- Generated by IcoMoon.io -->
<svg version="1.1" xmlns="http://www.w3.org/2000/svg" width="40" height="40" viewBox="0 0 40 40">
<title>di-link</title>
<path fill="#ebebeb" d="M35.583 26.226l-8.278-8.278c-0.557-0.557-1.426-0.557-1.983 0l-2.713 2.713-3.27-3.27 2.713-2.713c0.557-0.557 0.557-1.426 0-1.983l-8.278-8.278c-0.557-0.557-1.426-0.557-1.983 0l-7.374 7.409c-0.278 0.243-0.417 0.591-0.417 0.974s0.139 0.73 0.417 0.974l8.278 8.278c0.278 0.278 0.626 0.417 0.974 0.417s0.696-0.139 0.974-0.417l2.713-2.713 3.27 3.27-2.713 2.713c-0.557 0.557-0.557 1.426 0 1.983l8.278 8.278c0.278 0.278 0.626 0.417 0.974 0.417 0.383 0 0.73-0.139 0.974-0.417l7.409-7.409c0.591-0.522 0.591-1.426 0.035-1.948zM13.67 19.096l-6.296-6.296 5.426-5.426 6.296 6.296-1.739 1.739-1.043-1.043c-0.557-0.557-1.426-0.557-1.983 0s-0.557 1.426 0 1.983l1.043 1.043-1.704 1.704zM27.2 32.626l-6.296-6.296 1.739-1.739 1.043 1.043c0.278 0.278 0.626 0.417 0.974 0.417s0.696-0.139 0.974-0.417c0.557-0.557 0.557-1.426 0-1.983l-1.043-1.043 1.739-1.739 6.296 6.296-5.426 5.461z"></path>
</svg>
