<!-- Generated by IcoMoon.io -->
<svg version="1.1" xmlns="http://www.w3.org/2000/svg" width="40" height="40" viewBox="0 0 40 40">
<title>di-media-previous</title>
<path fill="#ebebeb" d="M31.374 7.27c-0.487-0.243-1.043-0.174-1.461 0.174l-14.435 11.478c-0.348 0.278-0.522 0.661-0.522 1.078s0.209 0.835 0.522 1.078l14.435 11.478c0.243 0.209 0.557 0.313 0.87 0.313 0.209 0 0.417-0.035 0.591-0.139 0.487-0.243 0.8-0.73 0.8-1.252v-22.957c0-0.522-0.313-1.009-0.8-1.252zM29.391 28.591l-10.817-8.591 10.817-8.591v17.183zM10.609 9.078v22.087c0 0.87-0.696 1.565-1.565 1.565s-1.565-0.696-1.565-1.565v-22.087c0-0.87 0.696-1.565 1.565-1.565s1.565 0.696 1.565 1.565z"></path>
</svg>
