<!-- Generated by IcoMoon.io -->
<svg version="1.1" xmlns="http://www.w3.org/2000/svg" width="40" height="40" viewBox="0 0 40 40">
<title>di-mail</title>
<path fill="#ebebeb" d="M36 11.965c0-0.035 0-0.104 0-0.139s0-0.070 0-0.104c0-0.035-0.035-0.070-0.035-0.139 0-0.035-0.035-0.104-0.035-0.139s-0.035-0.070-0.070-0.104c-0.035-0.035-0.035-0.104-0.070-0.139 0 0 0-0.035 0-0.035-0.035-0.035-0.035-0.035-0.070-0.070s-0.070-0.070-0.104-0.104c-0.035-0.035-0.070-0.070-0.104-0.070-0.035-0.035-0.070-0.070-0.104-0.070-0.035-0.035-0.070-0.035-0.104-0.070s-0.070-0.035-0.104-0.070c-0.035 0-0.104-0.035-0.139-0.035s-0.070-0.035-0.139-0.035c-0.035 0-0.104 0-0.139 0s-0.070 0-0.104 0h-29.287c-0.035 0-0.070 0-0.104 0s-0.104 0-0.139 0c-0.035 0-0.070 0.035-0.139 0.035-0.035 0-0.104 0.035-0.139 0.035s-0.070 0.035-0.104 0.070c-0.035 0.035-0.070 0.035-0.104 0.070s-0.070 0.035-0.104 0.070c-0.035 0.035-0.070 0.070-0.104 0.070-0.035 0.035-0.070 0.070-0.104 0.104s-0.035 0.035-0.070 0.070c0 0 0 0.035 0 0.035-0.035 0.035-0.070 0.104-0.070 0.139-0.035 0.035-0.035 0.070-0.070 0.104s-0.035 0.070-0.035 0.139c0 0.035-0.035 0.070-0.035 0.139 0 0.035 0 0.070 0 0.104s0 0.104 0 0.139c0 0 0 0.035 0 0.035v16c0 0.765 0.626 1.391 1.391 1.391h29.217c0.765 0 1.391-0.626 1.391-1.391l-0.070-16.035c0 0.035 0 0 0 0zM30.4 13.391l-10.4 7.722-10.4-7.722h20.8zM6.783 26.609v-11.826l12.383 9.183c0.243 0.174 0.522 0.278 0.835 0.278s0.591-0.104 0.835-0.278l12.383-9.183v11.826h-26.435z"></path>
</svg>
