<!-- Generated by IcoMoon.io -->
<svg version="1.1" xmlns="http://www.w3.org/2000/svg" width="40" height="40" viewBox="0 0 40 40">
<title>di-music</title>
<path fill="#ebebeb" d="M34.922 6.191c0-0.417-0.174-0.835-0.522-1.078-0.313-0.278-0.73-0.383-1.148-0.278l-17.53 3.548c-0.661 0.139-1.113 0.696-1.113 1.357v15.965c-0.974-0.557-2.157-0.87-3.409-0.87 0 0 0 0 0 0-1.6 0-3.096 0.487-4.278 1.461-1.217 1.043-1.878 2.296-1.878 3.791 0 2.957 2.783 5.217 6.157 5.217 0 0 0 0 0 0 1.6 0 3.026-0.417 4.174-1.357 1.217-1.009 1.809-2.33 1.809-3.791v0.035l0.104-13.635 14.783-2.991v8.278c-0.939-0.557-2.052-0.8-3.304-0.8 0 0 0 0 0 0-1.6 0-3.096 0.452-4.278 1.391-1.217 1.009-1.913 2.296-1.913 3.791 0 2.957 2.783 5.252 6.157 5.252 0 0 0 0 0 0 3.235 0 5.913-2.122 6.157-4.904 0-0.035 0-0.174 0-0.557l0.035-19.826zM13.704 31.791c-0.661 0.557-1.53 0.73-2.504 0.73 0 0 0 0 0 0-1.843 0-3.374-1.043-3.374-2.435 0-0.626 0.313-1.183 0.904-1.635 0.661-0.557 1.53-0.765 2.504-0.765 0 0 0 0 0 0 1.843 0 3.409 1.113 3.409 2.504-0.035 0.591-0.348 1.113-0.939 1.6zM17.391 14.052v-3.165l14.748-3.026v3.165l-14.748 3.026zM28.765 28.696c0 0 0 0 0 0-1.843 0-3.409-1.113-3.409-2.504 0-0.626 0.313-1.148 0.904-1.635 0.661-0.557 1.53-0.73 2.504-0.73 0 0 0 0 0 0 1.739 0 3.409 0.904 3.409 2.226v0.383c-0.348 1.322-1.67 2.261-3.409 2.261z"></path>
</svg>
