<!-- Generated by IcoMoon.io -->
<svg version="1.1" xmlns="http://www.w3.org/2000/svg" width="40" height="40" viewBox="0 0 40 40">
<title>di-media-loop</title>
<path fill="#ebebeb" d="M31.478 15.235v13.809c0 0.765-0.626 1.391-1.391 1.391h-20.174c-0.765 0-1.391-0.626-1.391-1.391v-13.809c0-0.765 0.626-1.496 1.391-1.496h7.722l-1.878-1.843c-0.557-0.557-0.522-1.391 0-1.913 0.557-0.557 1.426-0.522 1.983 0l4.243 4.278c0.522 0.557 0.522 1.426 0 1.948l-4.243 4.278c-0.278 0.278-0.626 0.417-0.974 0.417s-0.696-0.139-0.974-0.417c-0.557-0.557-0.557-1.461 0-1.983l1.878-1.948h-6.365v11.13h17.391v-11.165h-2.922c-0.765 0-1.391-0.626-1.391-1.391s0.626-1.391 1.391-1.391h4.313c0.765 0 1.391 0.73 1.391 1.496z"></path>
</svg>
