<!-- Generated by IcoMoon.io -->
<svg version="1.1" xmlns="http://www.w3.org/2000/svg" width="40" height="40" viewBox="0 0 40 40">
<title>di-menu</title>
<path fill="#ebebeb" d="M31.13 12.174h-22.261c-1.252 0-2.261-1.009-2.261-2.261s1.009-2.261 2.261-2.261h22.261c1.252 0 2.261 1.009 2.261 2.261s-1.009 2.261-2.261 2.261zM33.391 20c0-1.252-1.009-2.261-2.261-2.261h-22.261c-1.252 0-2.261 1.009-2.261 2.261s1.009 2.261 2.261 2.261h22.261c1.252 0 2.261-1.009 2.261-2.261zM33.391 30.087c0-1.252-1.009-2.261-2.261-2.261h-22.261c-1.252 0-2.261 1.009-2.261 2.261s1.009 2.261 2.261 2.261h22.261c1.252 0 2.261-1.009 2.261-2.261z"></path>
</svg>
