<!-- Generated by IcoMoon.io -->
<svg version="1.1" xmlns="http://www.w3.org/2000/svg" width="40" height="40" viewBox="0 0 40 40">
<title>di-phone</title>
<path fill="#ebebeb" d="M34.783 8.348c-0.035-0.035-0.035-0.035-0.070-0.070l-3.757-3.27c-0.522-0.487-1.217-0.73-1.983-0.661-0.661 0.070-1.322 0.348-1.809 0.835-0.035 0.035-0.070 0.070-0.104 0.104l-3.687 4.661c-0.974 1.043-0.939 2.643 0.070 3.652 0.070 0.070 0.139 0.139 0.209 0.174l1.878 1.252c-0.139 0.661-1.113 2.539-4.557 5.983-3.409 3.409-5.322 4.383-5.948 4.522l-1.252-1.878c-0.035-0.070-0.104-0.139-0.174-0.209-1.009-1.009-2.643-1.009-3.652-0.070l-4.626 3.687c-0.035 0.035-0.070 0.070-0.104 0.104-1.043 1.043-1.113 2.783-0.174 3.791l3.27 3.722c0.035 0.035 0.035 0.035 0.070 0.070 0.626 0.626 1.6 0.87 2.678 0.87 1.913 0 4.104-0.765 5.252-1.217 2.226-0.87 6.574-2.991 10.887-7.304 3.2-3.2 5.774-7.061 7.304-10.887 0.626-1.739 2.087-6.052 0.278-7.861zM25.183 25.183c-6.435 6.435-13.67 8.209-14.887 7.617l-3.165-3.652c0 0 0 0 0 0l4.522-3.583 1.217 1.843c0.035 0.035 0.035 0.070 0.070 0.104 0.417 0.522 1.009 0.8 1.704 0.835 0.661 0.035 2.713 0.139 8.243-5.391 1.357-1.357 5.53-5.53 5.391-8.243-0.035-0.696-0.348-1.287-0.835-1.704-0.035-0.035-0.070-0.070-0.104-0.070l-1.774-1.252 3.583-4.557c0 0 0 0 0 0l3.617 3.165c0.626 1.217-1.148 8.452-7.583 14.887z"></path>
</svg>
