<!-- Generated by IcoMoon.io -->
<svg version="1.1" xmlns="http://www.w3.org/2000/svg" width="40" height="40" viewBox="0 0 40 40">
<title>di-star</title>
<path fill="#ebebeb" d="M28.591 34.609c-0.278 0-0.522-0.070-0.765-0.209l-7.826-5.113-7.826 5.113c-0.487 0.313-1.113 0.278-1.565-0.035-0.452-0.348-0.661-0.939-0.522-1.496l2.47-8.696-7.374-6.226c-0.417-0.348-0.591-0.939-0.417-1.496s0.661-0.904 1.217-0.974l8.8-0.626 3.965-8.661c0.209-0.487 0.696-0.8 1.252-0.8s1.043 0.313 1.252 0.8l3.965 8.661 8.8 0.626c0.557 0.035 1.043 0.417 1.217 0.974 0.174 0.522 0 1.113-0.417 1.496l-7.339 6.191 2.47 8.696c0.174 0.557-0.035 1.148-0.522 1.496-0.243 0.174-0.522 0.278-0.835 0.278zM20 26.261c0.278 0 0.522 0.070 0.765 0.209l5.496 3.583-1.704-6.017c-0.139-0.522 0.035-1.078 0.452-1.426l5.391-4.557-6.191-0.487c-0.522-0.035-0.939-0.348-1.183-0.8l-3.026-6.643-3.026 6.643c-0.209 0.452-0.661 0.765-1.183 0.8l-6.191 0.452 5.391 4.557c0.417 0.348 0.591 0.904 0.452 1.426l-1.704 6.052 5.496-3.548c0.243-0.174 0.487-0.243 0.765-0.243z"></path>
</svg>
