<!-- Generated by IcoMoon.io -->
<svg version="1.1" xmlns="http://www.w3.org/2000/svg" width="40" height="40" viewBox="0 0 40 40">
<title>di-scale</title>
<path fill="#ebebeb" d="M20.417 25.913c0 0.765-0.626 1.391-1.391 1.391h-13.635c-0.765 0-1.391-0.626-1.391-1.391s0.626-1.391 1.391-1.391h13.635c0.765 0 1.391 0.626 1.391 1.391zM34.609 24.522h-1.183c-0.765 0-1.391 0.626-1.391 1.391s0.626 1.391 1.391 1.391h1.183c0.765 0 1.391-0.626 1.391-1.391s-0.626-1.391-1.391-1.391zM8.974 14.052c0-2.296 1.878-4.139 4.174-4.139s4.174 1.878 4.174 4.139-1.878 4.139-4.174 4.139-4.174-1.843-4.174-4.139zM11.757 14.052c0 0.765 0.626 1.357 1.391 1.357s1.391-0.626 1.391-1.357-0.626-1.357-1.391-1.357-1.391 0.626-1.391 1.357zM30.226 25.948c0 2.296-1.878 4.139-4.174 4.139s-4.174-1.878-4.174-4.139 1.878-4.139 4.174-4.139c2.296-0.035 4.174 1.843 4.174 4.139zM27.443 25.948c0-0.765-0.626-1.357-1.391-1.357s-1.391 0.626-1.391 1.357 0.626 1.357 1.391 1.357c0.765 0 1.391-0.626 1.391-1.357zM5.391 15.478h0.8c0.765 0 1.391-0.626 1.391-1.391s-0.626-1.391-1.391-1.391h-0.8c-0.765 0-1.391 0.626-1.391 1.391s0.626 1.391 1.391 1.391zM36 14.087c0-0.765-0.626-1.391-1.391-1.391h-14.157c-0.765 0-1.391 0.626-1.391 1.391s0.626 1.391 1.391 1.391h14.157c0.765 0 1.391-0.626 1.391-1.391z"></path>
</svg>
