<!-- Generated by IcoMoon.io -->
<svg version="1.1" xmlns="http://www.w3.org/2000/svg" width="40" height="40" viewBox="0 0 40 40">
<title>di-user</title>
<path fill="#ebebeb" d="M20 23.861c5.148 0 9.357-4.209 9.357-9.391 0-5.217-4.209-9.426-9.357-9.426s-9.357 4.209-9.357 9.391c0 5.217 4.209 9.426 9.357 9.426zM20 7.826c3.617 0 6.574 2.957 6.574 6.609s-2.957 6.609-6.574 6.609-6.574-2.957-6.574-6.609c0-3.652 2.957-6.609 6.574-6.609zM24.348 24.765c-0.452-0.139-0.974-0.035-1.322 0.278l-3.026 2.574-3.026-2.574c-0.383-0.313-0.87-0.417-1.322-0.278-1.948 0.626-11.652 3.965-11.652 8.8 0 0.765 0.626 1.391 1.391 1.391h29.217c0.765 0 1.391-0.626 1.391-1.391 0-4.835-9.704-8.174-11.652-8.8zM7.513 32.174c1.53-1.635 5.217-3.443 8.278-4.487l3.304 2.817c0.522 0.452 1.287 0.452 1.809 0l3.304-2.817c3.061 1.078 6.748 2.887 8.278 4.487h-24.974z"></path>
</svg>
