<!-- Generated by IcoMoon.io -->
<svg version="1.1" xmlns="http://www.w3.org/2000/svg" width="24" height="24" viewBox="0 0 24 24">
<title>directions_bus</title>
<path fill="#ebebeb" d="M16.8 11.212v-4.012h-9.6v4.012h9.6zM15.6 16.013q0.525 0 0.862-0.356t0.337-0.844-0.337-0.844-0.862-0.356-0.863 0.356-0.337 0.844 0.337 0.844 0.863 0.356zM8.4 16.013q0.525 0 0.863-0.356t0.338-0.844-0.338-0.844-0.863-0.356-0.862 0.356-0.338 0.844 0.338 0.844 0.862 0.356zM5.588 15.188v-7.988q0-1.912 1.65-2.55t4.762-0.638 4.763 0.638 1.65 2.55v7.988q0 1.050-0.825 1.8v1.425q0 0.337-0.225 0.563t-0.563 0.225h-0.787q-0.338 0-0.581-0.225t-0.244-0.563v-0.825h-6.375v0.825q0 0.337-0.244 0.563t-0.581 0.225h-0.788q-0.337 0-0.563-0.225t-0.225-0.563v-1.425q-0.825-0.75-0.825-1.8z"></path>
</svg>
