<!-- Generated by IcoMoon.io -->
<svg version="1.1" xmlns="http://www.w3.org/2000/svg" width="24" height="24" viewBox="0 0 24 24">
<title>directions_subway</title>
<path fill="#ebebeb" d="M16.8 11.212v-4.012h-4.012v4.012h4.012zM15.6 16.013q0.525 0 0.862-0.356t0.337-0.844-0.337-0.844-0.862-0.356-0.863 0.356-0.337 0.844 0.337 0.844 0.863 0.356zM11.212 11.212v-4.012h-4.012v4.012h4.012zM8.4 16.013q0.525 0 0.863-0.356t0.338-0.844-0.338-0.844-0.863-0.356-0.862 0.356-0.338 0.844 0.338 0.844 0.862 0.356zM12 4.012q3.112 0 4.763 0.638t1.65 2.55v7.613q0 1.163-0.825 1.969t-1.987 0.806l1.2 1.2v0.413h-9.6v-0.413l1.2-1.2q-1.162 0-1.987-0.806t-0.825-1.969v-7.613q0-1.912 1.65-2.55t4.762-0.638z"></path>
</svg>
