<!-- Generated by IcoMoon.io -->
<svg version="1.1" xmlns="http://www.w3.org/2000/svg" width="24" height="24" viewBox="0 0 24 24">
<title>dry</title>
<path fill="#ebebeb" d="M14.925 6.3l-0.075-0.075q-0.712-0.787-0.525-1.763l0.075-0.45h-1.5l-0.075 0.338q-0.225 1.687 1.050 2.963l0.075 0.037q0.712 0.788 0.525 1.762l-0.075 0.488h1.5l0.075-0.337q0.113-0.825-0.169-1.594t-0.881-1.369zM18.112 6.3l-0.037-0.075q-0.75-0.787-0.563-1.763l0.075-0.45h-1.5l-0.038 0.338q-0.262 1.687 1.013 2.963l0.075 0.037q0.712 0.788 0.525 1.762l-0.075 0.488h1.538l0.038-0.337q0.112-0.825-0.15-1.594t-0.9-1.369zM9.712 6.413l-5.775 5.438q-0.75 0.675-0.75 1.725v4.838q0 0.637 0.338 1.181t0.881 0.881 1.181 0.337h11.025q0.413 0 0.694-0.3t0.281-0.713-0.281-0.712-0.694-0.3h-4.612v-0.787h6.188q0.413 0 0.712-0.3t0.3-0.712-0.3-0.694-0.712-0.281h-6.188v-0.825h7.013q0.412 0 0.694-0.281t0.281-0.694-0.281-0.712-0.694-0.3h-7.013v-0.787h5.4q0.413 0 0.712-0.3t0.3-0.712-0.3-0.713-0.712-0.3h-7.912q0.262-0.45 0.544-0.919t0.469-0.806l0.188-0.337q0.113-0.225 0.113-0.45 0-0.3-0.225-0.563l-0.131-0.131t-0.3-0.319-0.3-0.319l-0.131-0.131z"></path>
</svg>
