<!-- Generated by IcoMoon.io -->
<svg version="1.1" xmlns="http://www.w3.org/2000/svg" width="53" height="40" viewBox="0 0 53 40">
<title>el-focus</title>
<path fill="#ebebeb" d="M12.5 4h-7c-0.827 0-1.5 0.673-1.5 1.5v6c0 0.276 0.224 0.5 0.5 0.5s0.5-0.224 0.5-0.5v-6c0-0.276 0.225-0.5 0.5-0.5h7c0.276 0 0.5-0.224 0.5-0.5s-0.224-0.5-0.5-0.5z"></path>
<path fill="#ebebeb" d="M44.5 4h-7c-0.276 0-0.5 0.224-0.5 0.5s0.224 0.5 0.5 0.5h7c0.275 0 0.5 0.224 0.5 0.5v6c0 0.276 0.224 0.5 0.5 0.5s0.5-0.224 0.5-0.5v-6c0-0.827-0.673-1.5-1.5-1.5z"></path>
<path fill="#ebebeb" d="M45.5 28c-0.276 0-0.5 0.224-0.5 0.5v6c0 0.276-0.225 0.5-0.5 0.5h-7c-0.276 0-0.5 0.224-0.5 0.5s0.224 0.5 0.5 0.5h7c0.827 0 1.5-0.673 1.5-1.5v-6c0-0.276-0.224-0.5-0.5-0.5z"></path>
<path fill="#ebebeb" d="M4.5 28c-0.276 0-0.5 0.224-0.5 0.5v6c0 0.827 0.673 1.5 1.5 1.5h7c0.276 0 0.5-0.224 0.5-0.5s-0.224-0.5-0.5-0.5h-7c-0.275 0-0.5-0.224-0.5-0.5v-6c0-0.276-0.224-0.5-0.5-0.5z"></path>
<path fill="#ebebeb" d="M27.5 23c0.276 0 0.5-0.224 0.5-0.5v-5c0-0.276-0.224-0.5-0.5-0.5h-5c-0.276 0-0.5 0.224-0.5 0.5v5c0 0.276 0.224 0.5 0.5 0.5h5zM23 18h4v4h-4v-4z"></path>
</svg>
