<!-- Generated by IcoMoon.io -->
<svg version="1.1" xmlns="http://www.w3.org/2000/svg" width="40" height="40" viewBox="0 0 40 40">
<title>el-rss</title>
<path fill="#ebebeb" d="M20 3.966c-8.842 0-16.034 7.192-16.034 16.034s7.192 16.034 16.034 16.034 16.034-7.192 16.034-16.034-7.192-16.034-16.034-16.034zM20 34.966c-8.252 0-14.966-6.714-14.966-14.966s6.714-14.966 14.966-14.966 14.966 6.714 14.966 14.966-6.714 14.966-14.966 14.966z"></path>
<path fill="#ebebeb" d="M14.502 17.951c-0.295 0-0.534 0.239-0.534 0.534s0.239 0.534 0.534 0.534c2.253 0 4.14 0.697 5.454 2.016 1.315 1.318 2.010 3.208 2.010 5.465 0 0.295 0.239 0.534 0.534 0.534s0.534-0.239 0.534-0.534c0.001-2.546-0.802-4.696-2.32-6.22-1.521-1.523-3.668-2.329-6.212-2.329z"></path>
<path fill="#ebebeb" d="M14.505 13.027c-0.295 0-0.534 0.239-0.534 0.534s0.239 0.534 0.534 0.534c7.14 0 12.523 5.333 12.523 12.404 0 0.295 0.239 0.534 0.534 0.534s0.534-0.239 0.534-0.534c0.001-7.68-5.842-13.472-13.591-13.472z"></path>
<path fill="#ebebeb" d="M15.999 22.882c-1.121 0-2.033 0.913-2.033 2.035s0.912 2.033 2.033 2.033c1.122 0 2.035-0.912 2.035-2.034-0.001-1.122-0.914-2.034-2.035-2.034zM15.999 25.882c-0.532 0-0.965-0.433-0.965-0.965 0-0.533 0.433-0.967 0.965-0.967s0.966 0.435 0.967 0.967c0 0.532-0.434 0.965-0.967 0.965z"></path>
</svg>
