<!-- Generated by IcoMoon.io -->
<svg version="1.1" xmlns="http://www.w3.org/2000/svg" width="24" height="24" viewBox="0 0 24 24">
<title>electric_bike</title>
<path fill="#ebebeb" d="M17.587 7.988h-0.637l-1.35-3.75q-0.188-0.45-0.6-0.75t-0.938-0.3h-2.063v1.613h2.063l1.2 3.188h-3.863l-0.3-0.788h0.9v-1.612h-4.012v1.612h1.425l1.425 4.012h-0.525q-0.15-0.9-0.694-1.612t-1.313-1.125-1.706-0.45q-1.125-0.075-2.081 0.469t-1.537 1.463-0.581 2.044 0.525 2.025 1.444 1.444 2.044 0.544q0.975 0 1.8-0.413t1.369-1.144 0.731-1.669h3.375q0.15 0.9 0.694 1.612t1.313 1.125 1.706 0.45q1.125 0.075 2.081-0.469t1.538-1.463 0.581-2.044-0.525-2.025-1.444-1.444-2.044-0.544zM8.663 12.788q-0.263 0.712-0.863 1.162t-1.388 0.45q-0.675 0-1.219-0.319t-0.862-0.862-0.319-1.219 0.319-1.219 0.862-0.863 1.219-0.319q0.788 0 1.388 0.45t0.863 1.163h-2.25v1.575h2.25zM13.688 11.212h-1.125l-0.6-1.612h2.438q-0.262 0.337-0.45 0.75t-0.263 0.862zM17.587 14.4q-0.675 0-1.219-0.319t-0.862-0.862-0.319-1.219q0-0.563 0.225-1.031t0.637-0.806l0.75 2.137 1.5-0.563-0.75-2.137h0.038q0.675 0 1.219 0.319t0.863 0.863 0.319 1.219-0.319 1.219-0.863 0.862-1.219 0.319zM11.212 18.413h-3.225l4.8 2.4v-1.612h3.225l-4.8-2.4v1.613z"></path>
</svg>
