<!-- Generated by IcoMoon.io -->
<svg version="1.1" xmlns="http://www.w3.org/2000/svg" width="24" height="24" viewBox="0 0 24 24">
<title>electric_moped</title>
<path fill="#ebebeb" d="M17.587 6.413q0-0.675-0.469-1.144t-1.106-0.469h-2.4v1.612h2.4v2.1l-2.813 3.487h-2.813v-4.012h-3.188q-0.9 0-1.612 0.431t-1.144 1.163-0.431 1.631v2.4h1.575q0 0.638 0.337 1.181t0.881 0.881 1.181 0.338q0.675 0 1.219-0.338t0.863-0.881 0.319-1.181h3.6l3.6-4.537v-2.663zM7.988 14.4q-0.3 0-0.544-0.244t-0.244-0.544h1.613q0 0.3-0.244 0.544t-0.581 0.244zM6.413 5.588h3.975v1.612h-3.975v-1.612zM17.587 11.212q-0.637 0-1.181 0.319t-0.881 0.862-0.337 1.219q0 0.638 0.337 1.181t0.881 0.881 1.181 0.338q0.675 0 1.219-0.338t0.863-0.881 0.319-1.181q0-0.675-0.319-1.219t-0.863-0.863-1.219-0.319zM17.587 14.4q-0.3 0-0.544-0.244t-0.244-0.544q0-0.338 0.244-0.581t0.544-0.244q0.337 0 0.581 0.244t0.244 0.581q0 0.3-0.244 0.544t-0.581 0.244zM7.988 18.413h3.225v-1.613l4.8 2.4h-3.225v1.612z"></path>
</svg>
