<!-- Generated by IcoMoon.io -->
<svg version="1.1" xmlns="http://www.w3.org/2000/svg" width="24" height="24" viewBox="0 0 24 24">
<title>facebook</title>
<path fill="#ebebeb" d="M19.987 12q0-1.65-0.619-3.094t-1.725-2.55-2.55-1.725-3.094-0.619-3.094 0.619-2.55 1.725-1.725 2.55-0.619 3.094q0 1.462 0.469 2.756t1.35 2.344 2.044 1.762 2.512 0.975v-5.438h-1.575v-2.4h1.575v-1.988q0-0.788 0.394-1.425t1.012-1.012 1.406-0.375h1.987v2.4h-1.575q-0.338 0-0.581 0.244t-0.244 0.544v1.613h2.4v2.4h-2.4v5.55q1.537-0.15 2.85-0.825t2.287-1.744 1.519-2.438 0.544-2.944z"></path>
</svg>
