<!-- Generated by IcoMoon.io -->
<svg version="1.1" xmlns="http://www.w3.org/2000/svg" width="24" height="24" viewBox="0 0 24 24">
<title>face</title>
<path fill="#ebebeb" d="M12 18.413q2.625 0 4.519-1.894t1.894-4.519q0-0.825-0.262-1.8-0.825 0.188-1.838 0.188-1.725 0-3.619-0.994t-2.869-2.381q-1.238 3-4.2 4.313-0.037 0.225-0.037 0.675 0 2.625 1.894 4.519t4.519 1.894zM12 4.012q3.3 0 5.644 2.344t2.344 5.644-2.344 5.644-5.644 2.344-5.644-2.344-2.344-5.644 2.344-5.644 5.644-2.344zM14.4 11.813q0.413 0 0.713 0.281t0.3 0.694-0.3 0.712-0.713 0.3-0.712-0.3-0.3-0.712 0.3-0.694 0.712-0.281zM9.6 11.813q0.412 0 0.712 0.281t0.3 0.694-0.3 0.712-0.712 0.3-0.713-0.3-0.3-0.712 0.3-0.694 0.713-0.281z"></path>
</svg>
