<!-- Generated by IcoMoon.io -->
<svg version="1.1" xmlns="http://www.w3.org/2000/svg" width="24" height="24" viewBox="0 0 24 24">
<title>fastfood</title>
<path fill="#ebebeb" d="M3.225 16.013h12v1.575h-12v-1.575zM15.225 14.4h-12.038q0-1.837 1.238-3.075t3-1.537 3.544 0 3.019 1.537 1.237 3.075zM3.188 19.987v-0.787h12.038v0.787q0 0.338-0.244 0.563t-0.581 0.225h-10.387q-0.338 0-0.581-0.225t-0.244-0.563zM16.837 20.775v-6.412q0-2.363-1.95-4.238-1.163-1.162-3.413-1.8l-0.225-1.875h3.975v-3.262h1.575v3.262h4.013l-1.35 13.162q-0.075 0.488-0.431 0.825t-0.844 0.337h-1.35z"></path>
</svg>
