<!-- Generated by IcoMoon.io -->
<svg version="1.1" xmlns="http://www.w3.org/2000/svg" width="24" height="24" viewBox="0 0 24 24">
<title>fiber_dvr</title>
<path fill="#ebebeb" d="M19.2 11.587v-0.787q0-0.525-0.338-0.863t-0.862-0.337h-2.813v4.8h1.2v-1.612h0.938l0.675 1.612h1.2l-0.712-1.688q0.712-0.337 0.712-1.125zM12.487 14.4l1.425-4.8h-1.2l-0.825 2.737-0.788-2.737h-1.2l1.387 4.8h1.2zM8.813 13.2v-2.4q0-0.525-0.356-0.862t-0.844-0.338h-2.813v4.8h2.813q0.488 0 0.844-0.337t0.356-0.863zM19.2 4.8q0.675 0 1.144 0.469t0.469 1.144v11.175q0 0.675-0.469 1.144t-1.144 0.469h-14.4q-0.675 0-1.144-0.469t-0.469-1.144v-11.175q0-0.675 0.469-1.144t1.144-0.469h14.4zM6 10.8h1.613v2.4h-1.613v-2.4zM16.388 10.8h1.612v0.787h-1.612v-0.787z"></path>
</svg>
