<!-- Generated by IcoMoon.io -->
<svg version="1.1" xmlns="http://www.w3.org/2000/svg" width="24" height="24" viewBox="0 0 24 24">
<title>fiber_pin</title>
<path fill="#ebebeb" d="M18.413 14.4v-4.8h-1.013v2.812l-1.987-2.813h-1.013v4.8h1.013v-2.813l2.025 2.813h0.975zM12.413 14.4v-4.8h-1.2v4.8h1.2zM9.6 11.587v-0.787q0-0.525-0.338-0.863t-0.863-0.337h-2.813v4.8h1.2v-1.612h1.612q0.525 0 0.863-0.356t0.338-0.844zM18.413 5.588q0.675 0 1.125 0.469t0.45 1.144v9.6q0 0.675-0.45 1.144t-1.125 0.469h-12.825q-0.675 0-1.125-0.469t-0.45-1.144v-9.6q0-0.675 0.45-1.144t1.125-0.469h12.825zM6.788 10.8h1.612v0.787h-1.612v-0.787z"></path>
</svg>
