<!-- Generated by IcoMoon.io -->
<svg version="1.1" xmlns="http://www.w3.org/2000/svg" width="24" height="24" viewBox="0 0 24 24">
<title>find_replace</title>
<path fill="#ebebeb" d="M15.712 14.513l3.863 3.9-1.163 1.163-3.9-3.863q-1.5 1.087-3.3 1.087h-0.037q-0.938 0-2.1-0.487t-1.837-1.163l-1.65 1.65v-4.8h4.8l-2.025 2.025q1.163 1.163 2.85 1.163 1.35 0 2.475-0.938t1.425-2.25h1.613q-0.188 1.388-1.013 2.513zM11.212 7.2q-1.35 0-2.512 0.938t-1.425 2.25h-1.612q0.3-2.025 1.875-3.412t3.675-1.388q0.938 0 2.1 0.488t1.837 1.163l1.65-1.65v4.8h-4.8l2.025-2.025q-1.162-1.162-2.813-1.162z"></path>
</svg>
