<!-- Generated by IcoMoon.io -->
<svg version="1.1" xmlns="http://www.w3.org/2000/svg" width="24" height="24" viewBox="0 0 24 24">
<title>fireplace</title>
<path fill="#ebebeb" d="M18.413 18.413v-12.825h-12.825v12.825h1.612v-1.613h1.8q-0.938-1.2-1.012-2.4l-0.038-0.225v-0.337t0.056-0.469 0.131-0.6 0.225-0.675 0.394-0.75 0.619-0.788 0.844-0.844 1.125-0.863 1.444-0.862q-0.075 0.225-0.113 0.619t0.375 1.387 1.463 1.706q1.5 1.050 1.5 2.7 0 1.313-0.825 2.4h1.612v1.613h1.613zM11.887 15.975q0.75 0.637 1.669 0.281t1.031-1.369q0.075-0.713-0.675-1.463t-0.9-1.050q-0.188 0.525-0.075 1.012 0.038 0.15 0.112 0.431t0.094 0.412-0.019 0.431q-0.075 0.375-0.431 0.769t-0.806 0.544zM4.012 4.012h15.975v15.975h-15.975v-15.975z"></path>
</svg>
