<!-- Generated by IcoMoon.io -->
<svg version="1.1" xmlns="http://www.w3.org/2000/svg" width="24" height="24" viewBox="0 0 24 24">
<title>fire_extinguisher</title>
<path fill="#ebebeb" d="M7.988 17.587h8.025v0.825q0 0.637-0.469 1.106t-1.144 0.469h-4.8q-0.675 0-1.144-0.469t-0.469-1.106v-0.825zM7.988 16.8h8.025v-4.012h-8.025v4.012zM16.013 4.8v4.8l-2.55-0.525q0.938 0.375 1.594 1.144t0.881 1.781h-7.875q0.225-1.012 0.881-1.781t1.594-1.144q-0.412-0.3-0.637-0.75l-3.488-0.712v-0.825l3.488-0.712q0.3-0.563 0.862-0.919t1.238-0.356q0.412 0 0.787 0.15t0.675 0.375zM12.788 7.2q0-0.337-0.225-0.563t-0.563-0.225-0.563 0.225-0.225 0.563 0.225 0.563 0.563 0.225 0.563-0.225 0.225-0.563z"></path>
</svg>
