<!-- Generated by IcoMoon.io -->
<svg version="1.1" xmlns="http://www.w3.org/2000/svg" width="24" height="24" viewBox="0 0 24 24">
<title>format_color_fill</title>
<path fill="#ebebeb" d="M2.4 18.413h19.2v3.188h-19.2v-3.188zM17.587 11.587q1.613 1.763 1.613 2.813 0 0.638-0.488 1.125t-1.125 0.488-1.106-0.488-0.469-1.125q0-0.45 0.394-1.162t0.769-1.162zM6.563 10.387h7.688l-3.863-3.825zM15.638 9.563q0.375 0.375 0.375 0.863t-0.375 0.825l-4.387 4.388q-0.375 0.375-0.863 0.375-0.45 0-0.825-0.375l-4.425-4.387q-0.338-0.338-0.338-0.863 0-0.488 0.338-0.825l4.125-4.125-1.913-1.913 1.163-1.125z"></path>
</svg>
