<!-- Generated by IcoMoon.io -->
<svg version="1.1" xmlns="http://www.w3.org/2000/svg" width="24" height="24" viewBox="0 0 24 24">
<title>forward_10</title>
<path fill="#ebebeb" d="M12.975 14.55q0 0.263 0.375 0.263 0.188 0 0.262-0.075l0.15-0.188q0.075-0.15 0.075-0.225v-1.613q-0.075-0.15-0.075-0.225t-0.169-0.169-0.244-0.094q-0.113 0-0.225 0.112l-0.15 0.15q-0.113 0.15-0.113 0.225v1.612q0.113 0.15 0.113 0.225zM14.475 13.763q0 0.487-0.075 0.638l-0.225 0.487q-0.263 0.225-0.412 0.225-0.075 0-0.244 0.038t-0.244 0.038q-0.337 0-0.487-0.075-0.075-0.037-0.188-0.112t-0.188-0.113q-0.338-0.188-0.338-1.125v-0.563q0-0.487 0.075-0.637l0.263-0.488q0.225-0.225 0.375-0.225 0.075 0 0.244-0.037t0.244-0.038q0.337 0 0.487 0.075 0.075 0.038 0.206 0.113t0.206 0.112 0.225 0.487q0.075 0.225 0.075 0.638v0.563zM11.137 15.188h-0.75v-2.625l-0.787 0.225v-0.563l1.425-0.45h0.113v3.412zM5.588 12.788q0-2.625 1.875-4.5t4.538-1.875v-3.225l4.013 4.013-4.013 4.012v-3.225q-1.95 0-3.375 1.406t-1.425 3.394 1.425 3.394 3.375 1.406 3.375-1.406 1.425-3.394h1.613q0 2.662-1.894 4.537t-4.519 1.875-4.519-1.875-1.894-4.537z"></path>
</svg>
