<!-- Generated by IcoMoon.io -->
<svg version="1.1" xmlns="http://www.w3.org/2000/svg" width="24" height="24" viewBox="0 0 24 24">
<title>forward_30</title>
<path fill="#ebebeb" d="M5.588 12.788q0-2.625 1.875-4.5t4.538-1.875v-3.225l4.013 4.013-4.013 4.012v-3.225q-1.95 0-3.375 1.406t-1.425 3.394 1.425 3.394 3.375 1.406 3.375-1.406 1.425-3.394h1.613q0 2.662-1.894 4.537t-4.519 1.875-4.519-1.875-1.894-4.537zM13.050 14.55q0 0.263 0.375 0.263 0.188 0 0.263-0.075l0.15-0.188q0.075-0.15 0.075-0.225v-1.613q-0.075-0.15-0.075-0.225t-0.169-0.169-0.244-0.094q-0.112 0-0.225 0.112l-0.15 0.15q-0.075 0.15-0.075 0.225v1.612q0.075 0.15 0.075 0.225zM14.625 13.763q0 0.487-0.075 0.638l-0.225 0.487q-0.263 0.225-0.413 0.225-0.075 0-0.244 0.038t-0.244 0.038q-0.263 0-0.862-0.3-0.075-0.037-0.225-0.487-0.112-0.338-0.112-0.638v-0.563q0-0.412 0.112-0.637l0.225-0.488q0.263-0.225 0.413-0.225 0.075 0 0.225-0.037t0.225-0.038q0.338 0 0.488 0.075 0.075 0.038 0.206 0.113t0.206 0.112 0.225 0.487q0.075 0.225 0.075 0.638v0.563zM10.387 13.2q0.563 0 0.563-0.487v-0.15q-0.075-0.075-0.075-0.15t-0.15-0.075h-0.413q-0.075 0.075-0.15 0.075t-0.075 0.15v0.15h-0.825q0-0.3 0.206-0.581t0.469-0.281q0.037 0 0.188-0.037t0.188-0.038q0.45 0 0.9 0.225 0.3 0.15 0.3 0.712v0.263q-0.075 0.15-0.075 0.225 0 0.15-0.15 0.15-0.075 0-0.262 0.188 0.337 0.188 0.413 0.3 0.15 0.3 0.15 0.487 0 0.338-0.075 0.412-0.038 0.038-0.113 0.15t-0.113 0.15q-0.15 0.15-0.412 0.15-0.075 0-0.244 0.038t-0.244 0.037q-0.3 0-0.375-0.075-0.038-0.038-0.188-0.075t-0.225-0.075q-0.337-0.188-0.337-0.788h0.675v0.15q0.075 0.075 0.075 0.15t0.15 0.075h0.413q0.075-0.075 0.15-0.075t0.075-0.15v-0.412q-0.075-0.075-0.075-0.15t-0.15-0.075h-0.488v-0.563h0.3z"></path>
</svg>
