<!-- Generated by IcoMoon.io -->
<svg version="1.1" xmlns="http://www.w3.org/2000/svg" width="24" height="24" viewBox="0 0 24 24">
<title>hail</title>
<path fill="#ebebeb" d="M5.588 15.188h2.4v4.8h-2.4v-4.8zM17.587 4.313q-0.075 1.762-0.9 3.056t-2.288 1.744v10.875h-1.612v-4.8h-1.575v4.8h-1.612v-9.525q-0.338 0.113-0.488 0.263-1.125 0.9-1.125 2.475v0.412h-1.575v-0.412q0-2.363 1.688-3.825 1.688-1.387 3.9-1.387 1.688 0 2.775-0.825 1.238-1.013 1.238-2.775v-0.375h1.575v0.3zM12 7.2q-0.637 0-1.125-0.487t-0.488-1.125 0.488-1.106 1.125-0.469 1.125 0.469 0.487 1.106-0.487 1.125-1.125 0.487z"></path>
</svg>
