<!-- Generated by IcoMoon.io -->
<svg version="1.1" xmlns="http://www.w3.org/2000/svg" width="24" height="24" viewBox="0 0 24 24">
<title>hdr_weak</title>
<path fill="#ebebeb" d="M16.013 15.188q1.313 0 2.25-0.938t0.938-2.25-0.938-2.25-2.25-0.938-2.269 0.938-0.956 2.25 0.956 2.25 2.269 0.938zM16.013 7.2q1.987 0 3.394 1.406t1.406 3.394-1.406 3.394-3.394 1.406-3.394-1.406-1.406-3.394 1.406-3.394 3.394-1.406zM6.413 8.813q1.313 0 2.25 0.938t0.938 2.25-0.938 2.25-2.25 0.938-2.269-0.938-0.956-2.25 0.956-2.25 2.269-0.938z"></path>
</svg>
