<!-- Generated by IcoMoon.io -->
<svg version="1.1" xmlns="http://www.w3.org/2000/svg" width="24" height="24" viewBox="0 0 24 24">
<title>hearing_disabled</title>
<path fill="#ebebeb" d="M7.238 4.95q0.675-0.45 1.462-0.694t1.688-0.244q1.2 0 2.213 0.431t1.781 1.181 1.2 1.781 0.431 2.194q0 1.575-0.863 3.113 0 0.038-0.019 0.056l-0.056 0.056-1.162-1.2q0.487-1.050 0.487-2.025 0-1.125-0.525-2.025t-1.444-1.444-2.044-0.544q-0.525 0-1.031 0.15t-0.956 0.412zM16.163 13.913l1.163 1.125q0.862-1.125 1.369-2.513t0.506-2.925q0-1.838-0.694-3.431t-1.894-2.794l-1.125 1.125q0.975 0.975 1.538 2.287t0.563 2.813q0 1.2-0.375 2.306t-1.050 2.006zM10.387 7.613q-0.225 0-0.45 0.037l2.4 2.438q0.075-0.262 0.075-0.487 0-0.825-0.6-1.406t-1.425-0.581zM19.35 19.35l-14.7-14.7-1.125 1.125 1.688 1.688q-0.188 0.487-0.3 1.031t-0.113 1.106h1.613q0-0.225 0.019-0.431t0.056-0.394l5.287 5.288q-0.525 0.375-1.012 0.9t-0.787 1.388q-0.3 0.9-0.619 1.294t-0.769 0.619q-0.225 0.15-0.6 0.15-0.637 0-1.106-0.469t-0.469-1.144h-1.613q0 0.9 0.431 1.613t1.162 1.144 1.594 0.431q0.713 0 1.313-0.262 0.825-0.413 1.331-1.087t0.881-1.763q0.188-0.6 0.525-0.938t0.825-0.712q0.038 0 0.038-0.019t0.038-0.019l5.287 5.288z"></path>
</svg>
