<!-- Generated by IcoMoon.io -->
<svg version="1.1" xmlns="http://www.w3.org/2000/svg" width="24" height="24" viewBox="0 0 24 24">
<title>history_toggle_off</title>
<path fill="#ebebeb" d="M14.475 17.888l0.787 1.387q-1.162 0.563-2.475 0.675v-1.613q0.9-0.113 1.688-0.45zM5.662 12.788h-1.612q0.112 1.313 0.675 2.475l1.388-0.787q-0.338-0.788-0.45-1.688zM14.475 6.113l0.787-1.388q-1.162-0.563-2.475-0.675v1.612q0.9 0.112 1.688 0.45zM18.337 11.212h1.613q-0.113-1.313-0.675-2.475l-1.387 0.787q0.337 0.788 0.45 1.688zM9.525 17.888l-0.787 1.387q1.162 0.563 2.475 0.675v-1.613q-0.9-0.113-1.688-0.45zM11.212 5.662v-1.612q-1.313 0.112-2.475 0.675l0.787 1.388q0.788-0.338 1.688-0.45zM17.1 8.137l1.387-0.825q-0.787-1.050-1.837-1.8l-0.788 1.388q0.713 0.525 1.238 1.237zM6.113 9.525l-1.388-0.787q-0.563 1.162-0.675 2.475h1.612q0.112-0.9 0.45-1.688zM18.337 12.788q-0.112 0.9-0.45 1.688l1.387 0.787q0.563-1.162 0.675-2.475h-1.613zM15.862 17.1l0.825 1.387q1.050-0.787 1.8-1.837l-1.387-0.788q-0.525 0.713-1.237 1.238zM8.137 6.9l-0.787-1.388q-1.088 0.788-1.838 1.838l1.388 0.788q0.525-0.675 1.237-1.238zM6.9 15.862l-1.388 0.787q0.788 1.050 1.838 1.837l0.788-1.387q-0.675-0.525-1.238-1.237zM12.788 7.988h-1.575v4.35l3.412 3.413 1.125-1.125-2.962-2.962v-3.675z"></path>
</svg>
