<!-- Generated by IcoMoon.io -->
<svg version="1.1" xmlns="http://www.w3.org/2000/svg" width="24" height="24" viewBox="0 0 24 24">
<title>how_to_vote</title>
<path fill="#ebebeb" d="M12.6 4.238q0.225-0.225 0.563-0.225 0.412 0 0.563 0.225l3.975 3.975q0.225 0.225 0.225 0.563t-0.225 0.563l-5.1 5.063q-0.225 0.225-0.563 0.225t-0.563-0.225l-3.975-3.938q-0.225-0.225-0.225-0.563t0.225-0.563zM16.013 8.775l-2.85-2.85-3.938 3.975 2.813 2.813zM16.8 12.788l2.4 2.4v3.225q0 0.675-0.469 1.125t-1.144 0.45h-11.212q-0.637 0-1.106-0.469t-0.469-1.106v-3.225l2.4-2.4h0.675l1.575 1.612h-1.613l-1.425 1.613h11.175l-1.387-1.613h-1.538l1.575-1.612h0.563z"></path>
</svg>
