<!-- Generated by IcoMoon.io -->
<svg version="1.1" xmlns="http://www.w3.org/2000/svg" width="40" height="40" viewBox="0 0 40 40">
<title>io-aperture-sharp</title>
<path fill="#ebebeb" d="M17.5 7l8.093 8.011v-8.011h-8.093z"></path>
<path fill="#ebebeb" d="M15.342 7.649l-6.342 4.726h11l-4.658-4.726z"></path>
<path fill="#ebebeb" d="M25 25.5h8v-8l-8 8z"></path>
<path fill="#ebebeb" d="M32.375 15.375l-4.75-6.375v11l4.75-4.625z"></path>
<path fill="#ebebeb" d="M7 14.375v8l8-8h-8z"></path>
<path fill="#ebebeb" d="M24.625 32.375l6.375-4.75h-11l4.625 4.75z"></path>
<path fill="#ebebeb" d="M7.625 24.625l4.75 6.375v-11l-4.75 4.625z"></path>
<path fill="#ebebeb" d="M25.593 17.883l-3.472-3.466h-4.242l-3.472 3.466v4.235l3.476 3.47c0.027 0 0.055-0.004 0.083-0.004h4.155l3.472-3.466z"></path>
<path fill="#ebebeb" d="M14.374 25.006l0.001 7.994h8l-8.001-7.994z"></path>
</svg>
