<!-- Generated by IcoMoon.io -->
<svg version="1.1" xmlns="http://www.w3.org/2000/svg" width="40" height="40" viewBox="0 0 40 40">
<title>io-alarm-sharp</title>
<path fill="#ebebeb" d="M29.237 8.007l-0.204-0.006h-0.032c-0.921 0-1.784 0.369-2.532 0.938s-0.968 1.062-0.968 1.062l5.5 5.375s0.703-0.357 1.101-0.866 0.892-1.13 0.895-2.319c0.004-2.218-1.646-4.056-3.759-4.183z"></path>
<path fill="#ebebeb" d="M10.763 8.007l0.204-0.006h0.032c0.921 0 1.784 0.369 2.533 0.938s0.968 1.062 0.968 1.062l-5.5 5.375s-0.703-0.357-1.101-0.866-0.893-1.13-0.895-2.322c-0.004-2.216 1.646-4.053 3.759-4.181z"></path>
<path fill="#ebebeb" d="M28.456 28.038c-0.001-0.001-0.001-0.002-0.001-0.003s0-0.002 0.001-0.002v0c2.106-2.532 3.106-6.018 2.231-9.706-0.852-3.595-4.542-7.231-8.146-8.041-7.166-1.611-13.537 3.821-13.537 10.714 0 0.003 0 0.007 0 0.011 0 2.68 0.963 5.136 2.562 7.039l-0.014-0.017c0.001 0.001 0.001 0.002 0.001 0.002s-0 0.002-0.001 0.003v0l-2.991 2.963c-0.001 0.001-0.001 0.002-0.001 0.002s0 0.002 0.001 0.002v0l1.438 1.407c0.001 0.001 0.002 0.001 0.003 0.001s0.002-0 0.003-0.001v0l2.964-2.961c0.001-0.001 0.002-0.001 0.003-0.001s0.002 0 0.003 0.001v0c1.89 1.586 4.349 2.549 7.033 2.549s5.143-0.963 7.050-2.563l-0.017 0.014ch0.004l2.956 2.961c0.001 0.001 0.002 0.001 0.002 0.001s0.002-0 0.002-0.001v0l1.495-1.412zM21.004 22h-7ch-0.004v-1.994cl0.003-0.003h5cv-0.003-7h2z"></path>
</svg>
