<!-- Generated by IcoMoon.io -->
<svg version="1.1" xmlns="http://www.w3.org/2000/svg" width="40" height="40" viewBox="0 0 40 40">
<title>io-accessibility-sharp</title>
<path fill="#ebebeb" d="M32 11c-4.176 1.12-7.472 2-12 2s-7.824-0.88-12-2l-1 3.188c3 1.283 6.044 2.197 9.2 3.325l-3.2 17.487 3.525 1 2.85-11h1.25l2.85 11 3.525-1-3.2-17.488c3.154-1.017 6.2-2.042 9.2-3.262z"></path>
<path fill="#ebebeb" d="M20 11c-1.933 0-3.5-1.567-3.5-3.5s1.567-3.5 3.5-3.5c1.933 0 3.5 1.567 3.5 3.5v0c-0.002 1.932-1.568 3.498-3.5 3.5h-0z"></path>
</svg>
