<!-- Generated by IcoMoon.io -->
<svg version="1.1" xmlns="http://www.w3.org/2000/svg" width="40" height="40" viewBox="0 0 40 40">
<title>io-bar-chart-outline</title>
<path fill="none" stroke-linejoin="round" stroke-linecap="round" stroke-miterlimit="4" stroke-width="2.5" stroke="#ebebeb" d="M6 6v27c0 0.552 0.448 1 1 1v0h27"></path>
<path fill="none" stroke-linejoin="round" stroke-linecap="round" stroke-miterlimit="4" stroke-width="2.5" stroke="#ebebeb" d="M11.25 18h2.5c0.69 0 1.25 0.56 1.25 1.25v9.5c0 0.69-0.56 1.25-1.25 1.25h-2.5c-0.69 0-1.25-0.56-1.25-1.25v-9.5c0-0.69 0.56-1.25 1.25-1.25z"></path>
<path fill="none" stroke-linejoin="round" stroke-linecap="round" stroke-miterlimit="4" stroke-width="2.5" stroke="#ebebeb" d="M20.25 15h2.5c0.69 0 1.25 0.56 1.25 1.25v12.5c0 0.69-0.56 1.25-1.25 1.25h-2.5c-0.69 0-1.25-0.56-1.25-1.25v-12.5c0-0.69 0.56-1.25 1.25-1.25z"></path>
<path fill="none" stroke-linejoin="round" stroke-linecap="round" stroke-miterlimit="4" stroke-width="2.5" stroke="#ebebeb" d="M29.228 11h2.5c0.69 0 1.25 0.56 1.25 1.25v16.5c0 0.69-0.56 1.25-1.25 1.25h-2.5c-0.69 0-1.25-0.56-1.25-1.25v-16.5c0-0.69 0.56-1.25 1.25-1.25z"></path>
</svg>
