<!-- Generated by IcoMoon.io -->
<svg version="1.1" xmlns="http://www.w3.org/2000/svg" width="40" height="40" viewBox="0 0 40 40">
<title>io-bluetooth</title>
<path fill="#ebebeb" d="M28.25 14.048c0.001-0.014 0.001-0.031 0.001-0.048 0-0.345-0.14-0.658-0.367-0.884v0l-7-7c-0.226-0.226-0.539-0.367-0.884-0.367-0.69 0-1.25 0.56-1.25 1.25 0 0 0 0 0 0v-0 10.282l-4.937-4.232c-0.213-0.174-0.488-0.28-0.788-0.28-0.69 0-1.25 0.56-1.25 1.25 0 0.368 0.159 0.699 0.412 0.928l0.001 0.001 5.892 5.051-5.892 5.051c-0.283 0.231-0.462 0.58-0.462 0.97 0 0.69 0.56 1.25 1.25 1.25 0.322 0 0.616-0.122 0.838-0.322l-0.001 0.001 4.937-4.232v10.282c0 0.69 0.56 1.25 1.25 1.25 0.345 0 0.658-0.14 0.884-0.366l7-7c0.226-0.226 0.366-0.539 0.366-0.884 0-0.379-0.169-0.719-0.435-0.948l-0.002-0.001-5.892-5.051 5.892-5.051c0.257-0.22 0.423-0.54 0.437-0.899l0-0.002zM25.161 26.071l-3.911 3.912v-7.264zM21.25 17.282v-7.265l3.912 3.912z"></path>
</svg>
