<!-- Generated by IcoMoon.io -->
<svg version="1.1" xmlns="http://www.w3.org/2000/svg" width="40" height="40" viewBox="0 0 40 40">
<title>io-baseball</title>
<path fill="#ebebeb" d="M31.75 22.479l-0.029-1.629c-0.881-0.021-1.725-0.128-2.54-0.312l0.086 0.016-0.313 1.084c-0.102 0.378-0.442 0.651-0.846 0.651-0.483 0-0.875-0.392-0.875-0.875 0-0.095 0.015-0.186 0.043-0.271l-0.002 0.006 0.313-1.086c-0.868-0.321-1.61-0.687-2.309-1.116l0.056 0.032-0.652 0.923c-0.16 0.225-0.421 0.37-0.715 0.37-0.483 0-0.875-0.392-0.875-0.875 0-0.189 0.060-0.364 0.162-0.508l-0.002 0.003 0.651-0.921c-0.694-0.566-1.309-1.181-1.857-1.852l-0.018-0.023-0.92 0.652c-0.141 0.1-0.316 0.16-0.505 0.16-0.483 0-0.875-0.392-0.875-0.875 0-0.294 0.145-0.554 0.367-0.713l0.003-0.002 0.921-0.651c-0.399-0.643-0.765-1.386-1.057-2.165l-0.029-0.089-1.082 0.313c-0.073 0.022-0.157 0.035-0.244 0.035-0.483 0-0.875-0.392-0.875-0.875 0-0.396 0.263-0.731 0.625-0.839l0.006-0.002 1.081-0.313c-0.136-0.592-0.235-1.289-0.275-2.003l-0.002-0.034q-0.011-0.188-0.015-0.375l-1.139-0.021c-0.476-0.009-0.859-0.397-0.859-0.875 0-0 0-0 0-0v0c-4.716 1.071-8.405 4.597-9.693 9.132l-0.022 0.092c0.518 0.033 0.927 0.457 0.937 0.978l0 0.001 0.027 1.527c0.099 0.003 0.198 0.007 0.296 0.012 0.747 0.042 1.445 0.141 2.123 0.293l-0.086-0.016 0.313-1.081c0.109-0.368 0.444-0.631 0.84-0.631 0.483 0 0.875 0.392 0.875 0.875 0 0.087-0.013 0.171-0.036 0.25l0.002-0.006-0.313 1.082c0.866 0.322 1.608 0.687 2.305 1.118l-0.055-0.032 0.647-0.921c0.16-0.225 0.421-0.37 0.715-0.37 0.483 0 0.875 0.392 0.875 0.875 0 0.189-0.060 0.364-0.162 0.508l0.002-0.003-0.649 0.921c0.359 0.292 0.681 0.583 0.987 0.889l-0-0c0.306 0.306 0.597 0.628 0.871 0.964l0.018 0.023 0.921-0.651c0.141-0.1 0.316-0.16 0.505-0.16 0.484 0 0.876 0.392 0.876 0.876 0 0.294-0.145 0.555-0.368 0.714l-0.003 0.002-0.922 0.652c0.398 0.643 0.764 1.385 1.056 2.163l0.029 0.089 1.086-0.316c0.073-0.022 0.157-0.035 0.244-0.035 0.483 0 0.875 0.392 0.875 0.875 0 0.396-0.263 0.731-0.625 0.839l-0.006 0.002-1.084 0.313c0.163 0.709 0.269 1.531 0.293 2.374l0 0.019 1.142 0.021c0.544 0.010 0.982 0.454 0.982 1 0 0.006-0 0.012-0 0.019v-0.001c-0 0.027-0.002 0.053-0.005 0.078l0-0.004c4.712-1.15 8.365-4.754 9.567-9.349l0.020-0.090c-0.445-0.038-0.793-0.405-0.802-0.855v-0.001z"></path>
<path fill="#ebebeb" d="M22.843 7.512c-0.007 0.478-0.396 0.862-0.874 0.863h-0.016l-1.051-0.019c0.003 0.082 0.006 0.164 0.011 0.246v0c0.034 0.605 0.111 1.169 0.228 1.718l-0.013-0.073 1.018-0.296c0.054-0.012 0.115-0.018 0.179-0.018 0.483 0 0.875 0.392 0.875 0.875 0 0.372-0.232 0.69-0.559 0.816l-0.006 0.002-1.017 0.296c0.256 0.671 0.536 1.241 0.861 1.781l-0.028-0.050 0.865-0.611c0.141-0.1 0.316-0.16 0.505-0.16 0.483 0 0.875 0.392 0.875 0.875 0 0.294-0.145 0.554-0.367 0.713l-0.003 0.002-0.866 0.612q0.328 0.396 0.695 0.762c0.244 0.244 0.5 0.475 0.762 0.694l0.611-0.865c0.161-0.224 0.421-0.369 0.715-0.369 0.484 0 0.877 0.393 0.877 0.877 0 0.19-0.061 0.367-0.164 0.51l0.002-0.003-0.61 0.863c0.49 0.296 1.059 0.576 1.654 0.807l0.076 0.026 0.297-1.018c0.109-0.368 0.444-0.631 0.84-0.631 0.483 0 0.875 0.392 0.875 0.875 0 0.087-0.013 0.171-0.036 0.25l0.002-0.006-0.296 1.016c0.572 0.125 1.237 0.207 1.918 0.228l0.017 0-0.010-0.563c-0-0.004-0-0.010-0-0.015 0-0.478 0.383-0.866 0.859-0.875h0.016c0.058 0 0.113 0.006 0.168 0.017l-0.006-0.001c-1.002-5.079-4.854-9.045-9.787-10.202l-0.088-0.017c-0.004 0.025-0.002 0.047-0.003 0.071z"></path>
<path fill="#ebebeb" d="M17.027 32.597c0.010-0.544 0.454-0.982 1-0.982 0.006 0 0.012 0 0.019 0h-0.001l1.047 0.018c-0.025-0.678-0.106-1.321-0.239-1.945l0.013 0.073-1.016 0.295c-0.073 0.022-0.157 0.035-0.244 0.035-0.483 0-0.875-0.392-0.875-0.875 0-0.396 0.264-0.731 0.625-0.839l0.006-0.002 1.013-0.294c-0.256-0.67-0.536-1.24-0.861-1.78l0.028 0.050-0.863 0.61c-0.141 0.1-0.316 0.16-0.505 0.16-0.483 0-0.875-0.392-0.875-0.875 0-0.294 0.145-0.554 0.367-0.713l0.003-0.002 0.865-0.611c-0.219-0.264-0.449-0.519-0.694-0.762s-0.5-0.476-0.762-0.695l-0.612 0.866c-0.16 0.225-0.421 0.37-0.715 0.37-0.483 0-0.875-0.392-0.875-0.875 0-0.189 0.060-0.364 0.162-0.508l-0.002 0.003 0.611-0.865c-0.49-0.297-1.060-0.577-1.655-0.807l-0.076-0.026-0.293 1.017c-0.109 0.368-0.444 0.631-0.841 0.631-0.483 0-0.875-0.392-0.875-0.875 0-0.087 0.013-0.171 0.036-0.25l-0.002 0.006 0.296-1.018c-0.476-0.104-1.040-0.181-1.615-0.214l-0.029-0.001c-0.056-0.003-0.112-0.005-0.168-0.008l0.010 0.662c0 0.005 0 0.011 0 0.018 0 0.546-0.438 0.99-0.981 1h-0.019c-0.088-0-0.172-0.012-0.253-0.033l0.007 0.002c0.991 5.083 4.835 9.057 9.765 10.224l0.088 0.018c-0.011-0.055-0.017-0.118-0.017-0.182 0-0.007 0-0.014 0-0.021l-0 0.001z"></path>
</svg>
