<!-- Generated by IcoMoon.io -->
<svg version="1.1" xmlns="http://www.w3.org/2000/svg" width="40" height="40" viewBox="0 0 40 40">
<title>io-ban-sharp</title>
<path fill="#ebebeb" d="M29.899 10.101c-2.538-2.563-6.058-4.149-9.948-4.149-7.732 0-14 6.268-14 14 0 3.89 1.587 7.41 4.148 9.947l0.001 0.001c2.538 2.563 6.058 4.149 9.948 4.149 7.732 0 14-6.268 14-14 0-3.89-1.587-7.41-4.148-9.947l-0.001-0.001zM31 20c0 0.003 0 0.007 0 0.011 0 2.504-0.841 4.812-2.257 6.657l0.019-0.026-15.404-15.404c1.818-1.396 4.126-2.237 6.631-2.237 0.004 0 0.008 0 0.011 0h-0.001c6.066 0 11 4.938 11 11zM9 20c0-0.003 0-0.007 0-0.011 0-2.504 0.841-4.812 2.257-6.657l-0.019 0.026 15.404 15.404c-1.818 1.396-4.126 2.238-6.631 2.238-0.004 0-0.008 0-0.011 0h0.001c-6.062 0-11-4.934-11-11z"></path>
</svg>
