<!-- Generated by IcoMoon.io -->
<svg version="1.1" xmlns="http://www.w3.org/2000/svg" width="40" height="40" viewBox="0 0 40 40">
<title>io-beer</title>
<path fill="#ebebeb" d="M28.5 17h-1.5v-0.359c0.622-0.701 1.002-1.63 1.002-2.647 0-2.173-1.734-3.941-3.894-3.994l-0.005-0c-0.339-1.159-0.935-2.154-1.725-2.957l0.001 0.001c-1.234-1.262-2.953-2.044-4.856-2.044-0.008 0-0.016 0-0.024 0h0.001c-1.869 0-3.611 0.768-4.938 2.168-0.317-0.105-0.683-0.165-1.063-0.165-1.933 0-3.5 1.567-3.5 3.5 0 0.549 0.127 1.069 0.352 1.532l-0.009-0.021c-0.826 0.735-1.343 1.801-1.343 2.987 0 1.472 0.796 2.758 1.981 3.451l0.019 0.010v13.038c0.002 1.932 1.568 3.498 3.5 3.5h11c1.932-0.002 3.498-1.568 3.5-3.5v-0.5h1.5c2.484-0.003 4.497-2.016 4.5-4.5v-5c-0.003-2.484-2.016-4.497-4.5-4.5h-0zM15 30c0 0.552-0.448 1-1 1s-1-0.448-1-1v0-10c0-0.552 0.448-1 1-1s1 0.448 1 1v0zM19 30c0 0.552-0.448 1-1 1s-1-0.448-1-1v0-10c0-0.552 0.448-1 1-1s1 0.448 1 1v0zM23 30c0 0.552-0.448 1-1 1s-1-0.448-1-1v0-10c0-0.552 0.448-1 1-1s1 0.448 1 1v0zM24 16c-0.521 0-1.284-0.324-1.668-0.707-0.181-0.181-0.431-0.293-0.707-0.293h-7.625c-0.429 0.001-0.794 0.272-0.935 0.651l-0.002 0.007c-0.427 1.167-1.475 1.342-2.063 1.342-1.105 0-2-0.895-2-2s0.895-2 2-2v0c0.006 0 0.57 0.021 1.025 0.362 0.165 0.125 0.374 0.2 0.6 0.2 0.552 0 1-0.448 1-1 0-0.326-0.156-0.616-0.397-0.798l-0.003-0.002c-0.617-0.454-1.386-0.736-2.219-0.762l-0.006-0c-0.31 0-0.612 0.036-0.902 0.103l0.027-0.005c-0.079-0.176-0.124-0.382-0.124-0.598 0-0.828 0.671-1.5 1.499-1.5h0c0.002 0 0.005-0 0.007-0 0.494 0 0.931 0.241 1.201 0.611l0.003 0.004c0.105 0.143 0.203 0.304 0.286 0.475l0.008 0.019c0.055 0.505 0.479 0.894 0.994 0.894 0.552 0 1-0.448 1-1 0-0.001 0-0.002 0-0.003v0c0-0.423-0.226-0.948-0.673-1.563-0.029-0.039-0.063-0.078-0.091-0.116 0.913-0.856 2.053-1.321 3.263-1.321 0.004 0 0.009-0 0.014-0 1.347 0 2.565 0.555 3.437 1.448l0.001 0.001c0.88 0.902 1.423 2.137 1.423 3.499 0 0.328-0.032 0.649-0.092 0.959l0.005-0.032c-0.011 0.056-0.018 0.121-0.018 0.187 0 0.486 0.347 0.891 0.807 0.981l0.006 0.001c0.056 0.011 0.121 0.017 0.187 0.017h0c0.486-0.001 0.89-0.347 0.98-0.806l0.001-0.006c0.072-0.362 0.117-0.781 0.122-1.209l0-0.005c0.931 0.183 1.624 0.993 1.624 1.964 0 1.104-0.895 2-1.999 2h-0zM31 26.5c0 1.381-1.119 2.5-2.5 2.5v0h-1.5v-10h1.5c1.381 0 2.5 1.119 2.5 2.5v0z"></path>
</svg>
