<!-- Generated by IcoMoon.io -->
<svg version="1.1" xmlns="http://www.w3.org/2000/svg" width="40" height="40" viewBox="0 0 40 40">
<title>io-basket</title>
<path fill="#ebebeb" d="M30.507 16h-4.007l-5.7-7.6c-0.184-0.244-0.474-0.4-0.8-0.4s-0.616 0.156-0.798 0.398l-0.002 0.002-5.7 7.6h-4.007c-0.001 0-0.002 0-0.003 0-1.121 0-2.031 0.907-2.036 2.027v0c-0 0.003-0 0.008-0 0.012 0 0.197 0.030 0.386 0.086 0.564l-0.004-0.013 2.892 10.196c0.389 1.342 1.607 2.307 3.050 2.307 0.001 0 0.002 0 0.002 0h13.039c1.444-0.005 2.663-0.965 3.057-2.281l0.006-0.023 2.896-10.21c0.012-0.042 0.022-0.092 0.028-0.143l0-0.005 0.033-0.308c0.004-0.029 0.006-0.063 0.006-0.097 0-0 0-0 0-0v0c-0.005-1.12-0.914-2.027-2.036-2.027-0.001 0-0.002 0-0.003 0h0zM20 10.667l4 5.333h-8zM20 25.979c-1.296-0.006-2.345-1.059-2.345-2.356 0-1.301 1.055-2.356 2.356-2.356s2.356 1.055 2.356 2.356v0c-0.007 1.302-1.064 2.354-2.367 2.354-0 0-0 0-0.001 0h0z"></path>
</svg>
