<!-- Generated by IcoMoon.io -->
<svg version="1.1" xmlns="http://www.w3.org/2000/svg" width="40" height="40" viewBox="0 0 40 40">
<title>io-cloudy-night-outline</title>
<path fill="none" stroke-linejoin="round" stroke-linecap="round" stroke-miterlimit="4" stroke-width="2.5" stroke="#ebebeb" d="M28.269 21c2.984 0 5.611-1.736 6.731-4.307-0.888 0.386-1.931 0.538-2.961 0.538-4.015 0-7.269-3.255-7.269-7.269v0c0-1.030 0.152-2.073 0.538-2.961-2.572 1.12-4.308 3.746-4.308 6.731 0 0.002 0 0.004 0 0.006 0 0.623 0.078 1.228 0.226 1.805l-0.011-0.050"></path>
<path fill="none" stroke-linejoin="round" stroke-linecap="butt" stroke-miterlimit="4" stroke-width="2.5" stroke="#ebebeb" d="M9.663 23.178c0.429-0.068 0.764-0.4 0.836-0.822l0.001-0.006c0.756-4.589 4.102-7.35 8-7.35 3.621 0 6.039 2.359 7.012 4.859 0.128 0.322 0.412 0.558 0.757 0.616l0.006 0.001c3.125 0.509 5.725 2.596 5.725 6.224 0 3.712-3.037 6.3-6.75 6.3h-14.625c-3.094 0-5.625-1.544-5.625-4.95 0-3.029 2.417-4.514 4.663-4.872z"></path>
</svg>
