<!-- Generated by IcoMoon.io -->
<svg version="1.1" xmlns="http://www.w3.org/2000/svg" width="40" height="40" viewBox="0 0 40 40">
<title>io-cut-outline</title>
<path fill="none" stroke-linejoin="round" stroke-linecap="round" stroke-miterlimit="4" stroke-width="2.5" stroke="#ebebeb" d="M14 13.5c0 1.933-1.567 3.5-3.5 3.5s-3.5-1.567-3.5-3.5c0-1.933 1.567-3.5 3.5-3.5s3.5 1.567 3.5 3.5z"></path>
<path fill="none" stroke-linejoin="round" stroke-linecap="round" stroke-miterlimit="4" stroke-width="2.5" stroke="#ebebeb" d="M14 26.5c0 1.933-1.567 3.5-3.5 3.5s-3.5-1.567-3.5-3.5c0-1.933 1.567-3.5 3.5-3.5s3.5 1.567 3.5 3.5z"></path>
<path fill="none" stroke-linejoin="miter" stroke-linecap="square" stroke-miterlimit="10" stroke-width="2.5" stroke="#ebebeb" d="M13.813 14.938l-0.688 0.938 2.313 0.938s0.216-0.401 0.438-0.625z"></path>
<path fill="none" stroke-linejoin="miter" stroke-linecap="round" stroke-miterlimit="10" stroke-width="2.5" stroke="#ebebeb" d="M13.636 24.902l19.114-10.777c-0.156-0.419-1.75-0.75-4-0.25-1.82 0.404-7.572 1.816-9.948 3.503-1.937 1.376-0.615 3.622-2.802 5.247-1.601 1.188-2.777 1.426-2.777 1.426z"></path>
<path fill="none" stroke-linejoin="miter" stroke-linecap="round" stroke-miterlimit="10" stroke-width="2.5" stroke="#ebebeb" d="M25.529 21.39l-3.092 1.777c0.889 0.421 4.096 2.079 7.312 2.271 0.932 0.056 1.875 0.024 2.437-0.375z"></path>
<path fill="none" stroke-linejoin="miter" stroke-linecap="butt" stroke-miterlimit="10" stroke-width="2.5" stroke="#ebebeb" d="M22 19c0 1.105-0.895 2-2 2s-2-0.895-2-2c0-1.105 0.895-2 2-2s2 0.895 2 2z"></path>
</svg>
