<!-- Generated by IcoMoon.io -->
<svg version="1.1" xmlns="http://www.w3.org/2000/svg" width="40" height="40" viewBox="0 0 40 40">
<title>io-cloudy-night-sharp</title>
<path fill="#ebebeb" d="M25.25 34h-14.625c-1.844 0-3.433-0.489-4.596-1.415-1.328-1.057-2.029-2.626-2.029-4.535 0-1.84 0.756-3.391 2.188-4.484 0.909-0.696 2.088-1.179 3.325-1.375 0.379-2.308 1.37-4.283 2.893-5.75 1.569-1.511 3.705-2.441 6.059-2.441 0.013 0 0.025 0 0.038 0h-0.002c2.021 0 3.884 0.666 5.39 1.924 1.115 0.945 1.986 2.142 2.531 3.506l0.021 0.060c1.699 0.28 3.224 0.98 4.348 2.005 1.446 1.317 2.211 3.119 2.211 5.205 0 2.053-0.821 3.929-2.313 5.282-1.431 1.301-3.363 2.018-5.438 2.018z"></path>
<path fill="#ebebeb" d="M27.847 17.746c1.656 0.433 3.125 1.207 4.291 2.271q0.243 0.223 0.467 0.459c1.588-1.15 2.842-2.808 3.396-4.461-1.015 0.442-2.207 0.616-3.384 0.616-4.589 0-7.246-2.657-7.246-7.246 0-1.178 0.174-2.369 0.616-3.384-2.526 0.846-5.063 3.324-5.783 6.133 1.917 0.306 3.608 1.108 4.985 2.27l-0.015-0.012c1.093 0.921 1.989 2.035 2.645 3.295l0.028 0.060z"></path>
</svg>
