<!-- Generated by IcoMoon.io -->
<svg version="1.1" xmlns="http://www.w3.org/2000/svg" width="40" height="40" viewBox="0 0 40 40">
<title>io-chatbubble</title>
<path fill="#ebebeb" d="M8.802 34c-0.884-0.004-1.598-0.721-1.598-1.606 0-0.001 0-0.002 0-0.003v0c0.004-0.171 0.031-0.335 0.078-0.49l-0.003 0.013 1.151-4.164c0.048-0.154-0.006-0.309-0.077-0.431l-0.014-0.025c-0.005-0.008-0.029-0.041-0.046-0.066s-0.036-0.051-0.054-0.076l-0.012-0.017c-1.396-2.089-2.228-4.659-2.228-7.423 0-0.001 0-0.001 0-0.001v0c-0.011-3.599 1.397-7 3.966-9.58 2.659-2.664 6.215-4.131 10.022-4.131 0.002 0 0.005 0 0.007 0 3.372 0 6.47 1.174 8.907 3.136l-0.027-0.021c2.466 1.984 4.179 4.75 4.826 7.793 0.19 0.844 0.299 1.813 0.299 2.808 0 0.002 0 0.003 0 0.005v-0c0 3.683-1.415 7.143-3.985 9.742-2.593 2.625-6.074 4.066-9.802 4.066-1.313 0-2.992-0.335-3.798-0.563-0.97-0.271-1.889-0.625-1.991-0.663-0.1-0.039-0.215-0.062-0.336-0.063h-0c-0.002 0-0.004-0-0.006-0-0.129 0-0.252 0.026-0.363 0.074l0.006-0.002-0.053 0.021-4.218 1.524c-0.192 0.083-0.416 0.135-0.65 0.143l-0.003 0zM9.467 27.75v0z"></path>
</svg>
