<!-- Generated by IcoMoon.io -->
<svg version="1.1" xmlns="http://www.w3.org/2000/svg" width="40" height="40" viewBox="0 0 40 40">
<title>io-copy-sharp</title>
<path fill="#ebebeb" d="M32.5 34h-20c-0.828 0-1.5-0.672-1.5-1.5v0-20.5c0-0.552 0.448-1 1-1v0h20.5c0.828 0 1.5 0.672 1.5 1.5v0 20c0 0.828-0.672 1.5-1.5 1.5v0z"></path>
<path fill="#ebebeb" d="M11 9h18v-1.5c0-0.828-0.672-1.5-1.5-1.5v0h-19.75c-0.966 0-1.75 0.784-1.75 1.75v0 19.75c0 0.828 0.672 1.5 1.5 1.5v0h1.5v-18c0-1.105 0.895-2 2-2v0z"></path>
</svg>
