<!-- Generated by IcoMoon.io -->
<svg version="1.1" xmlns="http://www.w3.org/2000/svg" width="40" height="40" viewBox="0 0 40 40">
<title>io-cafe</title>
<path fill="#ebebeb" d="M31 8h-21c-0.552 0-1 0.448-1 1v0 12c0.004 3.312 2.688 5.996 6 6h7c3.312-0.004 5.996-2.688 6-6v-5h1.125c2.139-0.002 3.873-1.736 3.875-3.875v-2.125c0-1.105-0.895-2-2-2v0zM31 12.125c0 1.036-0.839 1.875-1.875 1.875v0h-1.125v-4h3z"></path>
<path fill="#ebebeb" d="M29 29h-21c-0.552 0-1 0.448-1 1s0.448 1 1 1v0h21c0.552 0 1-0.448 1-1s-0.448-1-1-1v0z"></path>
</svg>
