<!-- Generated by IcoMoon.io -->
<svg version="1.1" xmlns="http://www.w3.org/2000/svg" width="40" height="40" viewBox="0 0 40 40">
<title>io-chatbox-ellipses-sharp</title>
<path fill="#ebebeb" d="M32.5 7h-25c-0.828 0-1.5 0.672-1.5 1.5v0 18c0 0.828 0.672 1.5 1.5 1.5v0h4.5v5l7.359-5h13.141c0.828 0 1.5-0.672 1.5-1.5v0-18c0-0.828-0.672-1.5-1.5-1.5v0zM14 19.5c-1.105 0-2-0.895-2-2s0.895-2 2-2c1.105 0 2 0.895 2 2v0c0 1.105-0.895 2-2 2v0zM20 19.5c-1.105 0-2-0.895-2-2s0.895-2 2-2c1.105 0 2 0.895 2 2v0c0 1.105-0.895 2-2 2v0zM26 19.5c-1.105 0-2-0.895-2-2s0.895-2 2-2c1.105 0 2 0.895 2 2v0c0 1.105-0.895 2-2 2v0zM32.5 9v0z"></path>
</svg>
