<!-- Generated by IcoMoon.io -->
<svg version="1.1" xmlns="http://www.w3.org/2000/svg" width="40" height="40" viewBox="0 0 40 40">
<title>io-cart</title>
<path fill="#ebebeb" d="M17 30c0 1.105-0.895 2-2 2s-2-0.895-2-2c0-1.105 0.895-2 2-2s2 0.895 2 2z"></path>
<path fill="#ebebeb" d="M31 30c0 1.105-0.895 2-2 2s-2-0.895-2-2c0-1.105 0.895-2 2-2s2 0.895 2 2z"></path>
<path fill="#ebebeb" d="M32.55 11.549c-0.276-0.336-0.692-0.549-1.157-0.549-0.001 0-0.002 0-0.003 0h-19.022l-0.383-2.174c-0.086-0.473-0.494-0.826-0.985-0.826-0 0-0 0-0 0h-4c-0.552 0-1 0.448-1 1s0.448 1 1 1v0h3.161l2.854 16.174c0.086 0.473 0.494 0.826 0.985 0.826 0 0 0 0 0 0h16c0.552 0 1-0.448 1-1s-0.448-1-1-1v0h-15.161l-0.352-2h15.104c0.724-0.001 1.329-0.514 1.471-1.196l0.002-0.010 1.8-9c0.018-0.088 0.029-0.189 0.029-0.293 0-0.363-0.129-0.696-0.343-0.955l0.002 0.003z"></path>
</svg>
