<!-- Generated by IcoMoon.io -->
<svg version="1.1" xmlns="http://www.w3.org/2000/svg" width="40" height="40" viewBox="0 0 40 40">
<title>io-chevron-up-circle</title>
<path fill="#ebebeb" d="M20 7c-7.179 0-13 5.821-13 13s5.821 13 13 13 13-5.821 13-13-5.821-13-13-13zM26.707 23.207c-0.181 0.181-0.431 0.293-0.707 0.293s-0.526-0.112-0.707-0.293l-5.293-5.293-5.293 5.293c-0.179 0.17-0.422 0.275-0.689 0.275-0.552 0-1-0.448-1-1 0-0.267 0.105-0.51 0.275-0.689l6-6c0.181-0.181 0.431-0.293 0.707-0.293s0.526 0.112 0.707 0.293l6 6c0.181 0.181 0.293 0.431 0.293 0.707s-0.112 0.526-0.293 0.707v0z"></path>
</svg>
