<!-- Generated by IcoMoon.io -->
<svg version="1.1" xmlns="http://www.w3.org/2000/svg" width="40" height="40" viewBox="0 0 40 40">
<title>io-cloudy-night</title>
<path fill="#ebebeb" d="M25.25 34h-14.625c-1.844 0-3.433-0.489-4.596-1.415-1.328-1.057-2.029-2.626-2.029-4.535 0-1.84 0.756-3.391 2.188-4.484 0.756-0.579 1.7-1.011 2.708-1.253 0.372-0.094 0.656-0.387 0.737-0.757l0.001-0.007c0.447-2.034 1.391-3.781 2.771-5.109 1.568-1.51 3.705-2.441 6.058-2.441 0.013 0 0.026 0 0.040 0h-0.002c2.021 0 3.884 0.666 5.39 1.924 0.988 0.837 1.783 1.87 2.33 3.042l0.023 0.055c0.132 0.283 0.384 0.492 0.688 0.561l0.007 0.001c1.5 0.326 2.839 0.986 3.851 1.91 1.446 1.319 2.211 3.121 2.211 5.207 0 2.053-0.821 3.929-2.313 5.282-1.431 1.301-3.363 2.018-5.438 2.018z"></path>
<path fill="#ebebeb" d="M35.908 17.112c0.056-0.123 0.089-0.266 0.089-0.418 0-0.213-0.065-0.41-0.176-0.573l0.002 0.004c-0.183-0.263-0.483-0.432-0.823-0.432-0.145 0-0.282 0.031-0.406 0.086l0.006-0.003c-0.669 0.291-1.53 0.448-2.495 0.455-3.456 0.025-6.336-2.813-6.336-6.269 0-0.984 0.155-1.865 0.449-2.547 0.055-0.121 0.087-0.262 0.087-0.411 0-0.23-0.076-0.442-0.204-0.612l0.002 0.003c-0.185-0.241-0.472-0.395-0.796-0.395-0.144 0-0.28 0.030-0.404 0.085l0.006-0.003c-2.414 1.051-4.136 3.219-4.704 5.784-0.004 0.016-0.006 0.034-0.006 0.053 0 0.122 0.088 0.224 0.204 0.246l0.002 0c1.841 0.332 3.458 1.118 4.785 2.237l-0.015-0.012c0.99 0.834 1.816 1.823 2.45 2.937l0.028 0.053c0.13 0.228 0.339 0.398 0.589 0.476l0.007 0.002c1.493 0.448 2.819 1.181 3.891 2.159q0.278 0.254 0.53 0.526c0.046 0.049 0.11 0.079 0.182 0.079 0.052 0 0.101-0.016 0.141-0.044l-0.001 0.001c1.275-0.856 2.275-2.031 2.898-3.413l0.021-0.051z"></path>
</svg>
