<!-- Generated by IcoMoon.io -->
<svg version="1.1" xmlns="http://www.w3.org/2000/svg" width="40" height="40" viewBox="0 0 40 40">
<title>io-color-palette-outline</title>
<path fill="none" stroke-linejoin="miter" stroke-linecap="butt" stroke-miterlimit="10" stroke-width="2.5" stroke="#ebebeb" d="M30.882 25.744c-0.412-0.381-1.019-0.475-1.538-0.563-0.719-0.119-0.994-0.25-1.412-0.625-0.894-0.794-0.894-1.944 0-2.738l1.894-1.681c2.9-2.563 2.9-6.762 0-9.325-2.138-1.881-5.006-2.813-7.988-2.813-3.481 0-7.119 1.269-9.925 3.756-5.219 4.612-5.219 12.169 0 16.781 2.594 2.294 6.094 3.438 9.556 3.462h0.106c3.462 0 6.875-1.119 9.3-3.275 0.9-0.794 0.749-2.287 0.006-2.981z"></path>
<path fill="#ebebeb" d="M15 17c0 1.105-0.895 2-2 2s-2-0.895-2-2c0-1.105 0.895-2 2-2s2 0.895 2 2z"></path>
<path fill="#ebebeb" d="M15.5 23.438c0 1.105-0.895 2-2 2s-2-0.895-2-2c0-1.105 0.895-2 2-2s2 0.895 2 2z"></path>
<path fill="#ebebeb" d="M20 13c0 1.105-0.895 2-2 2s-2-0.895-2-2c0-1.105 0.895-2 2-2s2 0.895 2 2z"></path>
<path fill="#ebebeb" d="M23 26.938c0 1.657-1.343 3-3 3s-3-1.343-3-3c0-1.657 1.343-3 3-3s3 1.343 3 3z"></path>
<path fill="#ebebeb" d="M26.5 13c0 1.105-0.895 2-2 2s-2-0.895-2-2c0-1.105 0.895-2 2-2s2 0.895 2 2z"></path>
</svg>
