<!-- Generated by IcoMoon.io -->
<svg version="1.1" xmlns="http://www.w3.org/2000/svg" width="40" height="40" viewBox="0 0 40 40">
<title>io-documents-sharp</title>
<path fill="#ebebeb" d="M23.246 19.5l-5.746-5.843v5.467c0 0.207 0.168 0.375 0.375 0.375v0z"></path>
<path fill="#ebebeb" d="M15.5 20.75v-7.75h-7.75c-0.414 0-0.75 0.336-0.75 0.75v0 20.5c0 0.414 0.336 0.75 0.75 0.75v0h15.5c0.414 0 0.75-0.336 0.75-0.75v0-12.75h-7.75c-0.414 0-0.75-0.336-0.75-0.75v0z"></path>
<path fill="#ebebeb" d="M26.875 11.5h5.371l-5.746-5.843v5.467c0 0.207 0.168 0.375 0.375 0.375v0z"></path>
<path fill="#ebebeb" d="M25.25 13.5c-0.414 0-0.75-0.336-0.75-0.75v0-7.75h-9.75c-0.414 0-0.75 0.336-0.75 0.75v0 5.25h2.633c0.706 0.003 1.345 0.293 1.805 0.759l0 0 6.823 6.938c0.457 0.464 0.739 1.101 0.739 1.804 0 0.003 0 0.006-0 0.009v-0.001 8.491h6.251c0.414 0 0.75-0.336 0.75-0.75v0-14.75z"></path>
</svg>
