<!-- Generated by IcoMoon.io -->
<svg version="1.1" xmlns="http://www.w3.org/2000/svg" width="40" height="40" viewBox="0 0 40 40">
<title>io-download</title>
<path fill="#ebebeb" d="M27.5 14h-6.5v9.586l3.293-3.293c0.179-0.17 0.422-0.275 0.689-0.275 0.552 0 1 0.448 1 1 0 0.267-0.105 0.51-0.275 0.689l-5 5c-0.181 0.181-0.431 0.293-0.707 0.293s-0.526-0.112-0.707-0.293l-5-5c-0.17-0.179-0.275-0.422-0.275-0.689 0-0.552 0.448-1 1-1 0.267 0 0.51 0.105 0.689 0.275l3.293 3.292v-9.586h-6.5c-1.932 0.002-3.498 1.568-3.5 3.5v13c0.002 1.932 1.568 3.498 3.5 3.5h15c1.932-0.002 3.498-1.568 3.5-3.5v-13c-0.002-1.932-1.568-3.498-3.5-3.5h-0z"></path>
<path fill="#ebebeb" d="M21 7c0-0.552-0.448-1-1-1s-1 0.448-1 1v0 7h2z"></path>
</svg>
