<!-- Generated by IcoMoon.io -->
<svg version="1.1" xmlns="http://www.w3.org/2000/svg" width="40" height="40" viewBox="0 0 40 40">
<title>io-eye-sharp</title>
<path fill="#ebebeb" d="M24 20c0 2.209-1.791 4-4 4s-4-1.791-4-4c0-2.209 1.791-4 4-4s4 1.791 4 4z"></path>
<path fill="#ebebeb" d="M28.676 12.824c-2.733-1.874-5.657-2.824-8.691-2.824-2.731 0-5.393 0.813-7.912 2.405-2.541 1.609-5.031 4.533-7.073 7.595 1.651 2.75 3.91 5.578 6.262 7.199 2.699 1.859 5.633 2.801 8.723 2.801 3.063 0 5.991-0.942 8.706-2.799 2.391-1.638 4.666-4.462 6.309-7.201-1.649-2.714-3.931-5.535-6.324-7.176zM20 26c-3.314 0-6-2.686-6-6s2.686-6 6-6c3.314 0 6 2.686 6 6v0c-0.004 3.312-2.688 5.996-6 6h-0z"></path>
</svg>
