<!-- Generated by IcoMoon.io -->
<svg version="1.1" xmlns="http://www.w3.org/2000/svg" width="40" height="40" viewBox="0 0 40 40">
<title>io-enter</title>
<path fill="#ebebeb" d="M14 12.5v6.5h9.586l-3.293-3.293c-0.17-0.179-0.275-0.422-0.275-0.689 0-0.552 0.448-1 1-1 0.267 0 0.51 0.105 0.689 0.275l5 5c0.181 0.181 0.293 0.431 0.293 0.707s-0.112 0.526-0.293 0.707l-5 5c-0.179 0.17-0.422 0.275-0.689 0.275-0.552 0-1-0.448-1-1 0-0.267 0.105-0.51 0.275-0.689l3.292-3.293h-9.586v6.5c0.002 1.932 1.568 3.498 3.5 3.5h13c1.932-0.002 3.498-1.568 3.5-3.5v-15c-0.002-1.932-1.568-3.498-3.5-3.5h-13c-1.932 0.002-3.498 1.568-3.5 3.5v0z"></path>
<path fill="#ebebeb" d="M7 19c-0.552 0-1 0.448-1 1s0.448 1 1 1v0h7v-2z"></path>
</svg>
