<!-- Generated by IcoMoon.io -->
<svg version="1.1" xmlns="http://www.w3.org/2000/svg" width="40" height="40" viewBox="0 0 40 40">
<title>io-eyedrop-outline</title>
<path fill="none" stroke-linejoin="round" stroke-linecap="round" stroke-miterlimit="4" stroke-width="2.5" stroke="#ebebeb" d="M20.407 16.764l-12.032 12.029c-0.777 0.779-1.375 4.207-1.375 4.207s3.399-0.568 4.207-1.375l12.031-12.031"></path>
<path fill="none" stroke-linejoin="round" stroke-linecap="round" stroke-miterlimit="4" stroke-width="2.5" stroke="#ebebeb" d="M21.821 12.518l5.661 5.661c0.782 0.782 0.782 2.049 0 2.831l0-0c-0.782 0.782-2.049 0.782-2.831 0l-5.661-5.661c-0.782-0.782-0.782-2.049 0-2.831l-0 0c0.782-0.782 2.049-0.782 2.831 0z"></path>
<path fill="none" stroke-linejoin="round" stroke-linecap="round" stroke-miterlimit="4" stroke-width="2.5" stroke="#ebebeb" d="M22.119 12.813s1.286 0.536 2.326-0.505l3.417-4.414c1.156-1.213 3.079-1.168 4.246 0v0c1.167 1.168 1.209 3.051 0 4.246l-4.418 3.417c-0.978 0.978-0.505 2.326-0.505 2.326"></path>
<path fill="none" stroke-linejoin="round" stroke-linecap="round" stroke-miterlimit="4" stroke-width="2.5" stroke="#ebebeb" d="M11.207 31.625s-1.655 1.084-2.785-0.046-0.047-2.786-0.047-2.786"></path>
</svg>
