<!-- Generated by IcoMoon.io -->
<svg version="1.1" xmlns="http://www.w3.org/2000/svg" width="40" height="40" viewBox="0 0 40 40">
<title>io-ellipsis-horizontal-circle-sharp</title>
<path fill="#ebebeb" d="M20 7c-7.179 0-13 5.821-13 13s5.821 13 13 13 13-5.821 13-13-5.821-13-13-13zM14.375 21.625c-0.897 0-1.625-0.728-1.625-1.625s0.728-1.625 1.625-1.625c0.897 0 1.625 0.728 1.625 1.625v0c0 0.897-0.728 1.625-1.625 1.625v0zM20 21.625c-0.897 0-1.625-0.728-1.625-1.625s0.728-1.625 1.625-1.625c0.897 0 1.625 0.728 1.625 1.625v0c0 0.897-0.728 1.625-1.625 1.625v0zM25.625 21.625c-0.897 0-1.625-0.728-1.625-1.625s0.728-1.625 1.625-1.625c0.897 0 1.625 0.728 1.625 1.625v0c0 0.897-0.728 1.625-1.625 1.625v0z"></path>
</svg>
