<!-- Generated by IcoMoon.io -->
<svg version="1.1" xmlns="http://www.w3.org/2000/svg" width="40" height="40" viewBox="0 0 40 40">
<title>io-finger-print-sharp</title>
<path fill="#ebebeb" d="M7.549 16.536l0.772 0.469 0.459-0.849c1.036-1.734 4.205-5.781 11.219-5.781 7.188 0 10.25 4.395 11.256 5.841l0.51 0.794 1.601-1.010-0.534-0.835c-0.555-0.803-1.72-2.471-3.799-3.944-2.526-1.795-5.566-2.706-9.035-2.706-8.004 0-11.668 4.694-12.875 6.703l-0.461 0.781 0.711 0.429c0.030 0.023 0.063 0.046 0.098 0.066l0.004 0.002c0.020 0.012 0.043 0.025 0.068 0.037l0.005 0.002z"></path>
<path fill="#ebebeb" d="M27.701 14.77c-2.221-1.808-4.883-2.766-7.701-2.766-6.095 0-10.144 4.125-11.458 8.217-1.203 3.779 0.259 9.254 0.321 9.489l0.274 0.863 1.871-0.402-0.296-0.938c-0.013-0.047-1.381-5.183-0.338-8.451 0.562-1.755 1.733-3.462 3.209-4.674 1.781-1.459 4.003-2.234 6.418-2.234 5.661 0 8.871 4.413 9.778 6.757 0.704 1.808 0.542 3.864-0.392 5.125-0.346 0.462-0.955 1.004-1.883 0.957-2.113-0.107-2.479-1.152-2.987-3.141-0.244-0.958-0.494-1.949-1.117-2.75-0.759-0.984-1.862-1.46-3.392-1.46-1.646 0-2.892 0.543-3.711 1.608-1.787 2.33-0.625 6.308-0.576 6.476l0.014 0.053c0.088 0.241 2.255 6.041 8.058 7.48l0.923 0.201 0.506-1.794-0.954-0.214c-4.639-1.152-6.576-5.899-6.724-6.274-0.156-0.543-0.27-1.178-0.317-1.831l-0.002-0.031c-0.068-0.904-0.020-2.149 0.589-2.946 0.447-0.582 1.165-0.864 2.187-0.864 1.862 0 2.174 0.911 2.661 2.799 0.474 1.841 1.125 4.366 4.74 4.547 1.388 0.067 2.641-0.549 3.521-1.728 1.321-1.768 1.571-4.473 0.637-6.884-0.73-1.898-2.138-3.784-3.858-5.19z"></path>
<path fill="#ebebeb" d="M13.636 25.451c-0.217-1.768 0.088-4.438 1.659-6.174 1.090-1.206 2.674-1.813 4.699-1.813 2.343 0 4.117 1.045 5.282 3.101 0.545 0.961 0.937 2.083 1.111 3.276l0.006 0.052 0.089 0.918 1.875-0.137c0-0.011 0-0.025 0-0.038 0-0.33-0.023-0.655-0.067-0.974l0.004 0.037c-0.007-0.080-0.223-2.029-1.313-3.984-1.504-2.694-3.914-4.121-6.984-4.121-2.594 0-4.659 0.824-6.129 2.444-1.991 2.196-2.397 5.391-2.119 7.647v0.021c0.498 3.408 1.811 6.134 4.133 8.571l0.725 0.701 1.309-1.362-0.646-0.612c-2.045-2.143-3.203-4.54-3.636-7.554z"></path>
<path fill="#ebebeb" d="M12.279 8.541c0.693-0.42 3.142-1.673 7.721-1.673 5.471 0 7.902 1.795 7.929 1.808l0.869 0.554 1.014-1.576-0.826-0.535c-0.032-0.024-0.066-0.048-0.1-0.070-0.793-0.516-3.602-2.049-8.886-2.049-5.482 0-8.297 1.655-8.963 2.107v0l-0.849 0.551 1.013 1.576z"></path>
<path fill="#ebebeb" d="M28.412 29.951c-2.086 0.234-3.778-0.167-5.044-1.178-2.14-1.714-2.418-4.694-2.424-4.75l-0.077-0.93-1.908 0.139 0.082 0.938c0.014 0.154 0.325 3.797 3.101 6.034 1.382 1.118 3.109 1.681 5.14 1.681 0.476-0.001 0.944-0.030 1.404-0.086l-0.056 0.006 1.037-0.131-0.381-1.857z"></path>
</svg>
