<!-- Generated by IcoMoon.io -->
<svg version="1.1" xmlns="http://www.w3.org/2000/svg" width="40" height="40" viewBox="0 0 40 40">
<title>io-film-outline</title>
<path fill="none" stroke-linejoin="round" stroke-linecap="butt" stroke-miterlimit="4" stroke-width="2.5" stroke="#ebebeb" d="M8.75 10h22.5c0.966 0 1.75 0.784 1.75 1.75v16.5c0 0.966-0.784 1.75-1.75 1.75h-22.5c-0.966 0-1.75-0.784-1.75-1.75v-16.5c0-0.966 0.784-1.75 1.75-1.75z"></path>
<path fill="none" stroke-linejoin="round" stroke-linecap="butt" stroke-miterlimit="4" stroke-width="2.5" stroke="#ebebeb" d="M29.75 25h1.5c0.966 0 1.75 0.784 1.75 1.75v1.5c0 0.966-0.784 1.75-1.75 1.75h-1.5c-0.966 0-1.75-0.784-1.75-1.75v-1.5c0-0.966 0.784-1.75 1.75-1.75z"></path>
<path fill="none" stroke-linejoin="round" stroke-linecap="butt" stroke-miterlimit="4" stroke-width="2.5" stroke="#ebebeb" d="M29.75 20h1.5c0.966 0 1.75 0.784 1.75 1.75v1.5c0 0.966-0.784 1.75-1.75 1.75h-1.5c-0.966 0-1.75-0.784-1.75-1.75v-1.5c0-0.966 0.784-1.75 1.75-1.75z"></path>
<path fill="none" stroke-linejoin="round" stroke-linecap="butt" stroke-miterlimit="4" stroke-width="2.5" stroke="#ebebeb" d="M29.75 15h1.5c0.966 0 1.75 0.784 1.75 1.75v1.5c0 0.966-0.784 1.75-1.75 1.75h-1.5c-0.966 0-1.75-0.784-1.75-1.75v-1.5c0-0.966 0.784-1.75 1.75-1.75z"></path>
<path fill="none" stroke-linejoin="round" stroke-linecap="butt" stroke-miterlimit="4" stroke-width="2.5" stroke="#ebebeb" d="M29.75 10h1.5c0.966 0 1.75 0.784 1.75 1.75v1.5c0 0.966-0.784 1.75-1.75 1.75h-1.5c-0.966 0-1.75-0.784-1.75-1.75v-1.5c0-0.966 0.784-1.75 1.75-1.75z"></path>
<path fill="none" stroke-linejoin="round" stroke-linecap="butt" stroke-miterlimit="4" stroke-width="2.5" stroke="#ebebeb" d="M8.75 25h1.5c0.966 0 1.75 0.784 1.75 1.75v1.5c0 0.966-0.784 1.75-1.75 1.75h-1.5c-0.966 0-1.75-0.784-1.75-1.75v-1.5c0-0.966 0.784-1.75 1.75-1.75z"></path>
<path fill="none" stroke-linejoin="round" stroke-linecap="butt" stroke-miterlimit="4" stroke-width="2.5" stroke="#ebebeb" d="M8.75 20h1.5c0.966 0 1.75 0.784 1.75 1.75v1.5c0 0.966-0.784 1.75-1.75 1.75h-1.5c-0.966 0-1.75-0.784-1.75-1.75v-1.5c0-0.966 0.784-1.75 1.75-1.75z"></path>
<path fill="none" stroke-linejoin="round" stroke-linecap="butt" stroke-miterlimit="4" stroke-width="2.5" stroke="#ebebeb" d="M8.75 15h1.5c0.966 0 1.75 0.784 1.75 1.75v1.5c0 0.966-0.784 1.75-1.75 1.75h-1.5c-0.966 0-1.75-0.784-1.75-1.75v-1.5c0-0.966 0.784-1.75 1.75-1.75z"></path>
<path fill="none" stroke-linejoin="round" stroke-linecap="butt" stroke-miterlimit="4" stroke-width="2.5" stroke="#ebebeb" d="M8.75 10h1.5c0.966 0 1.75 0.784 1.75 1.75v1.5c0 0.966-0.784 1.75-1.75 1.75h-1.5c-0.966 0-1.75-0.784-1.75-1.75v-1.5c0-0.966 0.784-1.75 1.75-1.75z"></path>
<path fill="none" stroke-linejoin="round" stroke-linecap="butt" stroke-miterlimit="4" stroke-width="2.5" stroke="#ebebeb" d="M13.75 10h12.5c0.966 0 1.75 0.784 1.75 1.75v6.5c0 0.966-0.784 1.75-1.75 1.75h-12.5c-0.966 0-1.75-0.784-1.75-1.75v-6.5c0-0.966 0.784-1.75 1.75-1.75z"></path>
<path fill="none" stroke-linejoin="round" stroke-linecap="butt" stroke-miterlimit="4" stroke-width="2.5" stroke="#ebebeb" d="M13.75 20h12.5c0.966 0 1.75 0.784 1.75 1.75v6.5c0 0.966-0.784 1.75-1.75 1.75h-12.5c-0.966 0-1.75-0.784-1.75-1.75v-6.5c0-0.966 0.784-1.75 1.75-1.75z"></path>
</svg>
