<!-- Generated by IcoMoon.io -->
<svg version="1.1" xmlns="http://www.w3.org/2000/svg" width="40" height="40" viewBox="0 0 40 40">
<title>io-fast-food-outline</title>
<path fill="none" stroke-linejoin="miter" stroke-linecap="round" stroke-miterlimit="10" stroke-width="2.5" stroke="#ebebeb" d="M24.125 30c0 2.209-1.291 4-3.5 4h-8.25c-2.209 0-3.5-1.791-3.5-4"></path>
<path fill="none" stroke-linejoin="miter" stroke-linecap="round" stroke-miterlimit="10" stroke-width="2.5" stroke="#ebebeb" d="M25 25c1.104 0 2 1.119 2 2.5v0c0 1.381-0.896 2.5-2 2.5h-17c-1.104 0-2-1.119-2-2.5v0c0-1.381 0.896-2.5 2-2.5"></path>
<path fill="none" stroke-linejoin="miter" stroke-linecap="round" stroke-miterlimit="10" stroke-width="2.5" stroke="#ebebeb" d="M25.5 25h-10.293c-0.138 0-0.263 0.056-0.353 0.146v0l-1.677 1.677c-0.045 0.045-0.108 0.073-0.177 0.073s-0.132-0.028-0.177-0.073v0l-1.677-1.677c-0.090-0.090-0.215-0.146-0.353-0.146h-3.293c-0.828 0-1.5-0.672-1.5-1.5v0 0c0-0.828 0.672-1.5 1.5-1.5v0h18c0.828 0 1.5 0.672 1.5 1.5v0 0c0 0.828-0.672 1.5-1.5 1.5v0z"></path>
<path fill="none" stroke-linejoin="miter" stroke-linecap="round" stroke-miterlimit="10" stroke-width="2.5" stroke="#ebebeb" d="M8 21.25v-0.014c0-3.438 2.813-5.236 6.25-5.236h4.5c3.438 0 6.25 1.813 6.25 5.25v-0.014"></path>
<path fill="none" stroke-linejoin="miter" stroke-linecap="round" stroke-miterlimit="10" stroke-width="2.5" stroke="#ebebeb" d="M19.063 11l0.465 3.998"></path>
<path fill="none" stroke-linejoin="miter" stroke-linecap="round" stroke-miterlimit="10" stroke-width="2.5" stroke="#ebebeb" d="M20 34h8.707c1.052-0 1.914-0.812 1.994-1.844l0-0.007 2.236-21.149"></path>
<path fill="none" stroke-linejoin="round" stroke-linecap="round" stroke-miterlimit="4" stroke-width="2.5" stroke="#ebebeb" d="M27 11l1-4 2.938-1"></path>
<path fill="none" stroke-linejoin="miter" stroke-linecap="round" stroke-miterlimit="10" stroke-width="2.5" stroke="#ebebeb" d="M18 11h16"></path>
</svg>
