<!-- Generated by IcoMoon.io -->
<svg version="1.1" xmlns="http://www.w3.org/2000/svg" width="40" height="40" viewBox="0 0 40 40">
<title>io-football</title>
<path fill="#ebebeb" d="M20 7c-7.168 0-13 5.832-13 13s5.832 13 13 13 13-5.832 13-13-5.832-13-13-13zM28.938 26h-2.826c-0.184-0-0.344-0.1-0.431-0.248l-0.001-0.002-1.009-1.73c-0.043-0.072-0.069-0.16-0.069-0.253 0-0.043 0.006-0.085 0.016-0.125l-0.001 0.003 0.929-3.745c0.039-0.155 0.146-0.279 0.287-0.339l0.003-0.001 1.756-0.744c0.058-0.025 0.125-0.040 0.195-0.040 0.125 0 0.239 0.046 0.327 0.121l-0.001-0.001 2.602 2.239c0.107 0.092 0.174 0.228 0.174 0.379 0 0.026-0.002 0.052-0.006 0.078l0-0.003c-0.234 1.567-0.768 2.974-1.544 4.213l0.027-0.046c-0.089 0.147-0.248 0.243-0.429 0.243v0zM12.408 18.821l1.756 0.744c0.144 0.062 0.251 0.186 0.29 0.337l0.001 0.003 0.929 3.745c0.010 0.037 0.015 0.079 0.015 0.122 0 0.093-0.026 0.181-0.070 0.255l0.001-0.002-1.009 1.725c-0.088 0.15-0.248 0.25-0.432 0.25h-2.826c-0 0-0 0-0 0-0.179 0-0.336-0.094-0.425-0.236l-0.001-0.002c-0.749-1.194-1.284-2.6-1.51-4.107l-0.007-0.060c-0.004-0.023-0.006-0.048-0.006-0.075 0-0.151 0.067-0.287 0.173-0.378l0.001-0.001 2.602-2.239c0.087-0.075 0.201-0.12 0.325-0.12 0.070 0 0.136 0.014 0.197 0.040l-0.003-0.001zM28.466 13.368l-1.129 3.211c-0.047 0.134-0.146 0.239-0.271 0.294l-0.003 0.001-1.849 0.783c-0.057 0.025-0.124 0.039-0.195 0.039-0.123 0-0.235-0.044-0.322-0.118l0.001 0.001-3.516-2.949c-0.11-0.092-0.18-0.228-0.181-0.381v-2.099c0-0.173 0.088-0.325 0.221-0.414l0.002-0.001 2.677-1.784c0.078-0.053 0.174-0.084 0.278-0.084 0.073 0 0.142 0.016 0.204 0.044l-0.003-0.001c1.585 0.702 2.92 1.706 3.984 2.95l0.013 0.015c0.075 0.087 0.12 0.201 0.12 0.325 0 0.060-0.011 0.118-0.030 0.171l0.001-0.003zM16.1 9.952l2.677 1.784c0.135 0.091 0.222 0.243 0.223 0.416v2.099c0 0.153-0.069 0.291-0.178 0.383l-0.001 0.001-3.516 2.949c-0.086 0.073-0.199 0.117-0.321 0.117-0.070 0-0.137-0.015-0.198-0.041l0.003 0.001-1.851-0.785c-0.13-0.056-0.229-0.161-0.276-0.291l-0.001-0.004-1.129-3.211c-0.018-0.049-0.028-0.107-0.028-0.166 0-0.126 0.046-0.24 0.123-0.328l-0.001 0.001c1.077-1.26 2.414-2.265 3.93-2.94l0.070-0.028c0.058-0.025 0.126-0.040 0.197-0.040 0.104 0 0.2 0.032 0.28 0.086l-0.002-0.001zM17.182 30.418l-1.233-3.106c-0.023-0.055-0.036-0.119-0.036-0.185 0-0.093 0.025-0.18 0.069-0.254l-0.001 0.002 0.948-1.625c0.088-0.15 0.248-0.25 0.432-0.25h5.278c0.184 0 0.344 0.1 0.431 0.248l0.001 0.002 0.949 1.625c0.043 0.072 0.069 0.16 0.069 0.253 0 0.067-0.013 0.13-0.037 0.188l0.001-0.003-1.224 3.104c-0.062 0.153-0.192 0.267-0.352 0.304l-0.003 0.001c-0.742 0.178-1.593 0.28-2.469 0.28s-1.727-0.102-2.544-0.295l0.075 0.015c-0.162-0.038-0.292-0.151-0.352-0.3l-0.001-0.003z"></path>
</svg>
