<!-- Generated by IcoMoon.io -->
<svg version="1.1" xmlns="http://www.w3.org/2000/svg" width="40" height="40" viewBox="0 0 40 40">
<title>io-game-controller-outline</title>
<path fill="none" stroke-linejoin="miter" stroke-linecap="butt" stroke-miterlimit="10" stroke-width="2.5" stroke="#ebebeb" d="M33.219 19.552c-1.15-5.199-2.856-8.515-5.589-9.323-0.48-0.145-1.031-0.229-1.601-0.229-0.010 0-0.020 0-0.030 0h0.002c-1.681 0-3.007 1-6 1s-4.322-1-6-1c-0.010-0-0.021-0-0.032-0-0.594 0-1.168 0.084-1.712 0.24l0.044-0.011c-2.738 0.808-4.429 4.127-5.592 9.323-1.188 5.307-0.973 9.5 1.349 10.305 1.625 0.563 3.078-0.601 4.454-2.313 1.563-1.95 3.487-2.55 7.489-2.55s5.851 0.6 7.416 2.55c1.375 1.713 2.882 2.862 4.464 2.323 2.564-0.876 2.527-4.946 1.339-10.315z"></path>
<path fill="#ebebeb" d="M23.5 18c0 0.69-0.56 1.25-1.25 1.25s-1.25-0.56-1.25-1.25c0-0.69 0.56-1.25 1.25-1.25s1.25 0.56 1.25 1.25z"></path>
<path fill="#ebebeb" d="M25 22c-0.69 0-1.25-0.56-1.25-1.25s0.56-1.25 1.25-1.25c0.69 0 1.25 0.56 1.25 1.25 0 0.001 0 0.002 0 0.003v-0c-0.002 0.689-0.561 1.247-1.25 1.247 0 0 0 0 0 0v0z"></path>
<path fill="#ebebeb" d="M26.25 15.25c0 0.69-0.56 1.25-1.25 1.25s-1.25-0.56-1.25-1.25c0-0.69 0.56-1.25 1.25-1.25s1.25 0.56 1.25 1.25z"></path>
<path fill="#ebebeb" d="M29 18c0 0.69-0.56 1.25-1.25 1.25s-1.25-0.56-1.25-1.25c0-0.69 0.56-1.25 1.25-1.25s1.25 0.56 1.25 1.25z"></path>
<path fill="none" stroke-linejoin="round" stroke-linecap="round" stroke-miterlimit="4" stroke-width="2.5" stroke="#ebebeb" d="M14 15v6"></path>
<path fill="none" stroke-linejoin="round" stroke-linecap="round" stroke-miterlimit="4" stroke-width="2.5" stroke="#ebebeb" d="M17 18h-6"></path>
</svg>
