<!-- Generated by IcoMoon.io -->
<svg version="1.1" xmlns="http://www.w3.org/2000/svg" width="40" height="40" viewBox="0 0 40 40">
<title>io-git-branch</title>
<path fill="#ebebeb" d="M30 14c0-0.001 0-0.001 0-0.002 0-2.209-1.791-4-4-4s-4 1.791-4 4c0 1.466 0.789 2.748 1.965 3.444l0.019 0.010c-0.143 1.817-1.255 2.313-4.688 3.026-1.11 0.23-2.246 0.466-3.294 0.871v-7.887c1.204-0.704 2-1.991 2-3.464 0-2.209-1.791-4-4-4s-4 1.791-4 4c0 1.473 0.796 2.76 1.981 3.454l0.019 0.010v13.076c-1.204 0.705-2 1.991-2 3.464 0 2.209 1.791 4 4 4s4-1.791 4-4c0-1.462-0.785-2.741-1.956-3.439l-0.018-0.010c0.149-1.125 1-1.521 4.079-2.157 1.714-0.354 3.486-0.721 4.986-1.684 1.812-1.161 2.783-2.924 2.898-5.243 1.209-0.703 2.009-1.992 2.010-3.468v-0zM14 8c1.105 0 2 0.895 2 2s-0.895 2-2 2c-1.105 0-2-0.895-2-2v0c0-1.105 0.895-2 2-2v0zM14 32c-1.105 0-2-0.895-2-2s0.895-2 2-2c1.105 0 2 0.895 2 2v0c0 1.105-0.895 2-2 2v0zM26 16c-1.105 0-2-0.895-2-2s0.895-2 2-2c1.105 0 2 0.895 2 2v0c0 1.105-0.895 2-2 2v0z"></path>
</svg>
