<!-- Generated by IcoMoon.io -->
<svg version="1.1" xmlns="http://www.w3.org/2000/svg" width="40" height="40" viewBox="0 0 40 40">
<title>io-git-network-sharp</title>
<path fill="#ebebeb" d="M28 6c-2.209 0-3.999 1.791-3.999 4 0 0.63 0.146 1.226 0.405 1.757l-0.010-0.024-4.427 5.051-4.387-5.006c0.263-0.518 0.417-1.13 0.417-1.778 0-2.209-1.791-4-4-4s-4 1.791-4 4c0 2.209 1.791 4 4 4 0 0 0.001 0 0.001 0h-0c0.069 0 0.137 0 0.206-0.005l5.794 6.611v5.932c-1.204 0.704-2 1.991-2 3.464 0 2.209 1.791 4 4 4s4-1.791 4-4c0-1.473-0.796-2.76-1.981-3.454l-0.019-0.010v-6.003l5.736-6.544c0.087 0.006 0.175 0.009 0.264 0.009 2.209 0 4-1.791 4-4s-1.791-4-4-4v0zM10 10c0-1.105 0.895-2 2-2s2 0.895 2 2c0 1.105-0.895 2-2 2v0c-1.105 0-2-0.895-2-2v0zM20 32c-1.105 0-2-0.895-2-2s0.895-2 2-2c1.105 0 2 0.895 2 2v0c0 1.105-0.895 2-2 2v0zM28 12c-1.105 0-2-0.895-2-2s0.895-2 2-2c1.105 0 2 0.895 2 2v0c0 1.105-0.895 2-2 2v0z"></path>
</svg>
