<!-- Generated by IcoMoon.io -->
<svg version="1.1" xmlns="http://www.w3.org/2000/svg" width="40" height="40" viewBox="0 0 40 40">
<title>io-help-sharp</title>
<path fill="none" stroke-linejoin="miter" stroke-linecap="square" stroke-miterlimit="10" stroke-width="3.125" stroke="#ebebeb" d="M14 14.25c0-0.625 0.090-2.063 2.096-3.716 1.191-0.982 2.622-1.266 3.904-1.284 1.171-0.014 2.217 0.184 2.843 0.489 1.069 0.524 3.157 1.799 3.157 4.511 0 2.854-1.824 4.148-3.897 5.574s-2.603 2.324-2.603 3.926"></path>
<path fill="#ebebeb" d="M17.969 27h3.063c0.121 0 0.219 0.098 0.219 0.219v3.062c0 0.121-0.098 0.219-0.219 0.219h-3.063c-0.121 0-0.219-0.098-0.219-0.219v-3.062c0-0.121 0.098-0.219 0.219-0.219z"></path>
</svg>
