<!-- Generated by IcoMoon.io -->
<svg version="1.1" xmlns="http://www.w3.org/2000/svg" width="40" height="40" viewBox="0 0 40 40">
<title>io-home</title>
<path fill="#ebebeb" d="M20.347 10.33c-0.090-0.086-0.211-0.139-0.346-0.139s-0.256 0.053-0.346 0.139l0-0-11.506 10.992c-0.095 0.091-0.154 0.219-0.154 0.361 0 0 0 0 0 0.001v-0l-0.002 10.316c0 1.105 0.895 2 2 2v0h6.006c0.552 0 1-0.448 1-1v0-8.5c0-0.276 0.224-0.5 0.5-0.5v0h5c0.276 0 0.5 0.224 0.5 0.5v0 8.5c0 0.552 0.448 1 1 1v0h6.004c1.105 0 2-0.895 2-2v0-10.316c0-0 0-0 0-0.001 0-0.142-0.059-0.27-0.154-0.361l-0-0z"></path>
<path fill="#ebebeb" d="M34.682 19.259l-4.675-4.473v-6.787c0-0.552-0.448-1-1-1v0h-3c-0.552 0-1 0.448-1 1v0 2l-3.62-3.461c-0.339-0.343-0.843-0.539-1.387-0.539v0c-0.543 0-1.045 0.196-1.384 0.539l-13.294 12.719c-0.389 0.375-0.438 0.992-0.084 1.398 0.184 0.212 0.455 0.345 0.756 0.345 0.269 0 0.513-0.106 0.693-0.279l12.968-12.392c0.090-0.086 0.211-0.139 0.346-0.139s0.256 0.053 0.346 0.139l-0-0 12.97 12.393c0.179 0.172 0.423 0.278 0.692 0.278 0.282 0 0.538-0.117 0.719-0.305l0-0c0.384-0.398 0.352-1.054-0.048-1.436z"></path>
</svg>
