<!-- Generated by IcoMoon.io -->
<svg version="1.1" xmlns="http://www.w3.org/2000/svg" width="40" height="40" viewBox="0 0 40 40">
<title>io-images-outline</title>
<path fill="none" stroke-linejoin="round" stroke-linecap="butt" stroke-miterlimit="4" stroke-width="2.5" stroke="#ebebeb" d="M31 11v-1c-0.005-1.655-1.345-2.995-3-3h-20c-1.655 0.005-2.995 1.345-3 3v16c0.005 1.655 1.345 2.995 3 3h1"></path>
<path fill="none" stroke-linejoin="round" stroke-linecap="butt" stroke-miterlimit="4" stroke-width="2.5" stroke="#ebebeb" d="M12.874 12h19.251c1.587 0 2.874 1.287 2.874 2.874v15.251c0 1.587-1.287 2.874-2.874 2.874h-19.251c-1.587 0-2.874-1.287-2.874-2.874v-15.251c0-1.587 1.287-2.874 2.874-2.874z"></path>
<path fill="none" stroke-linejoin="miter" stroke-linecap="butt" stroke-miterlimit="10" stroke-width="2.5" stroke="#ebebeb" d="M29.231 17.727c0 1.055-0.861 1.909-1.923 1.909s-1.923-0.855-1.923-1.909c0-1.055 0.861-1.909 1.923-1.909s1.923 0.855 1.923 1.909z"></path>
<path fill="none" stroke-linejoin="round" stroke-linecap="round" stroke-miterlimit="4" stroke-width="2.5" stroke="#ebebeb" d="M25.384 27.261l-5.447-5.399c-0.349-0.345-0.829-0.558-1.359-0.558-0.491 0-0.939 0.183-1.28 0.484l0.002-0.002-7.301 6.442"></path>
<path fill="none" stroke-linejoin="round" stroke-linecap="round" stroke-miterlimit="4" stroke-width="2.5" stroke="#ebebeb" d="M20.577 33l7.412-7.358c0.35-0.345 0.83-0.558 1.36-0.558 0.469 0 0.899 0.167 1.234 0.444l-0.003-0.003 4.42 3.657"></path>
</svg>
