<!-- Generated by IcoMoon.io -->
<svg version="1.1" xmlns="http://www.w3.org/2000/svg" width="40" height="40" viewBox="0 0 40 40">
<title>io-leaf</title>
<path fill="#ebebeb" d="M14.084 19.125c0.183-0.194 0.441-0.315 0.728-0.315 0.266 0 0.507 0.104 0.686 0.273l-0.001-0c4.602 4.335 9.219 6.973 14.653 8.317 0.733-2 0.798-4.201 0.165-6.349-0.84-2.849-2.796-5.332-5.656-7.179-2.553-1.649-5.104-2.078-7.572-2.493-3.114-0.524-6.055-1.019-8.862-3.991-0.313-0.329-0.738-0.461-1.145-0.354-0.465 0.125-0.777 0.492-0.926 1.1-0.35 1.422-0.125 5.407 0.859 9.614 1.581 6.759 4.103 10.179 5.941 11.858 2.375 2.168 5.476 3.369 8.558 3.369 0.006 0 0.012 0 0.019 0 0.606 0 1.201-0.046 1.782-0.136l-0.065 0.008c2.607-0.395 4.777-1.704 6-3.609-5.593-1.455-10.371-4.222-15.125-8.697-0.194-0.183-0.314-0.441-0.314-0.728 0-0.267 0.104-0.509 0.274-0.688l-0 0z"></path>
<path fill="#ebebeb" d="M33.214 28.012c-1.052-0.162-2.071-0.365-3.063-0.611-0.229 0.621-0.485 1.15-0.783 1.65l0.025-0.045c-0.046 0.078-0.094 0.156-0.143 0.232 0.958 0.265 2.195 0.526 3.454 0.723l0.206 0.027c0.052 0.010 0.112 0.015 0.173 0.015 0.552 0 1-0.448 1-1 0-0.506-0.376-0.924-0.864-0.991l-0.005-0.001z"></path>
</svg>
