<!-- Generated by IcoMoon.io -->
<svg version="1.1" xmlns="http://www.w3.org/2000/svg" width="40" height="40" viewBox="0 0 40 40">
<title>io-logo-codepen</title>
<path fill="#ebebeb" d="M19.078 22.996c-0.957-0.648-1.921-1.286-2.879-1.933-0.125-0.086-0.214-0.093-0.344 0l-2.43 1.633c1.95 1.298 5.825 3.887 5.825 3.887v-3.362c0-0.076-0.097-0.174-0.173-0.224z"></path>
<path fill="#ebebeb" d="M16.193 19.042q1.449-0.953 2.882-1.929c0.099-0.080 0.165-0.198 0.175-0.332l0-0.002v-3.231s-3.875 2.57-5.829 3.871c0.856 0.573 1.667 1.119 2.486 1.652 0.064 0.041 0.213 0.018 0.286-0.030z"></path>
<path fill="#ebebeb" d="M20.865 17.084q1.482 1.004 2.977 1.989c0.035 0.018 0.076 0.028 0.12 0.028s0.085-0.010 0.121-0.029l-0.002 0.001 2.485-1.654-5.816-3.889v3.334c0.005 0.090 0.049 0.168 0.114 0.219l0.001 0.001z"></path>
<path fill="#ebebeb" d="M20.132 18.398c-0.040-0.019-0.088-0.030-0.138-0.030-0.058 0-0.113 0.015-0.16 0.042l0.002-0.001c-0.301 0.188-0.592 0.387-0.886 0.584-0.516 0.346-1.584 1.063-1.584 1.063l2.427 1.616c0.057 0.036 0.127 0.057 0.201 0.057 0.070 0 0.135-0.019 0.192-0.051l-0.002 0.001 2.437-1.625s-2.129-1.416-2.49-1.656z"></path>
<path fill="#ebebeb" d="M12.813 18.82v2.476l1.851-1.24-1.851-1.236z"></path>
<path fill="#ebebeb" d="M20 6c-7.732 0-14 6.268-14 14s6.268 14 14 14 14-6.268 14-14-6.268-14-14-14zM28.688 22.563c0 0.361-0.166 0.616-0.469 0.818q-3.857 2.563-7.706 5.137c-0.366 0.245-0.698 0.234-1.063-0.009q-3.823-2.563-7.664-5.104c-0.319-0.212-0.474-0.473-0.474-0.858v-4.984c0-0.384 0.157-0.646 0.476-0.858 2.557-1.696 5.121-3.397 7.671-5.105 0.364-0.243 0.693-0.25 1.059-0.006q3.846 2.576 7.704 5.137c0.293 0.194 0.466 0.434 0.466 0.791z"></path>
<path fill="#ebebeb" d="M23.766 21.077q-1.412 0.959-2.837 1.896c-0.151 0.099-0.181 0.207-0.179 0.387v3.209l5.813-3.875-2.408-1.618c-0.144-0.101-0.243-0.098-0.389 0.001z"></path>
<path fill="#ebebeb" d="M27.125 21.292v-2.476l-1.849 1.242 1.849 1.234z"></path>
</svg>
