<!-- Generated by IcoMoon.io -->
<svg version="1.1" xmlns="http://www.w3.org/2000/svg" width="40" height="40" viewBox="0 0 40 40">
<title>io-logo-google-playstore</title>
<path fill="#ebebeb" d="M7 7.718v24.563c0 0.149 0.121 0.27 0.271 0.27 0.074 0 0.141-0.030 0.19-0.078l-0 0 12.789-12.473-12.789-12.474c-0.049-0.048-0.116-0.078-0.19-0.078-0.149 0-0.27 0.121-0.271 0.27v0z"></path>
<path fill="#ebebeb" d="M25.612 14.875l-16.046-8.841c-0.276-0.15-0.539 0.224-0.313 0.441l12.571 12.020z"></path>
<path fill="#ebebeb" d="M9.255 33.524c-0.227 0.218 0.035 0.591 0.313 0.441l0.010-0.006 16.035-8.835-3.788-3.622z"></path>
<path fill="#ebebeb" d="M32.086 18.438l-4.478-2.466-4.211 4.029 4.211 4.027 4.478-2.464c1.218-0.673 1.218-2.452 0-3.125z"></path>
</svg>
