<!-- Generated by IcoMoon.io -->
<svg version="1.1" xmlns="http://www.w3.org/2000/svg" width="40" height="40" viewBox="0 0 40 40">
<title>io-logo-pinterest</title>
<path fill="#ebebeb" d="M20.003 6c-7.731 0-14 6.269-14 14 0 5.731 3.45 10.656 8.381 12.825-0.037-0.975-0.006-2.15 0.244-3.212 0.269-1.137 1.8-7.631 1.8-7.631s-0.45-0.894-0.45-2.212c0-2.075 1.2-3.625 2.7-3.625 1.275 0 1.888 0.956 1.888 2.1 0 1.281-0.819 3.194-1.238 4.969-0.35 1.488 0.744 2.694 2.213 2.694 2.65 0 4.438-3.406 4.438-7.444 0-3.069-2.069-5.363-5.825-5.363-4.244 0-6.894 3.169-6.894 6.706 0 1.219 0.363 2.081 0.925 2.744 0.256 0.306 0.294 0.431 0.2 0.781-0.069 0.256-0.219 0.875-0.288 1.125-0.094 0.356-0.381 0.481-0.7 0.35-1.956-0.8-2.869-2.938-2.869-5.35 0-3.975 3.356-8.744 10.006-8.744 5.344 0 8.863 3.869 8.863 8.019 0 5.494-3.056 9.594-7.556 9.594-1.512 0-2.931-0.819-3.419-1.744 0 0-0.813 3.225-0.988 3.85-0.294 1.081-0.875 2.156-1.406 3 1.188 0.364 2.554 0.574 3.968 0.575h0.001c7.731 0 14-6.269 14-14s-6.262-14.006-13.994-14.006z"></path>
</svg>
