<!-- Generated by IcoMoon.io -->
<svg version="1.1" xmlns="http://www.w3.org/2000/svg" width="40" height="40" viewBox="0 0 40 40">
<title>io-logo-tableau</title>
<path fill="#ebebeb" d="M19.168 25.269h1.664v-4.537h4.188v-1.614h-4.188v-4.537h-1.664v4.537h-4.134v1.614h4.134z"></path>
<path fill="#ebebeb" d="M11.454 31.824h1.412v-4.034h3.731v-1.261h-3.731v-4.084h-1.412v4.084h-3.731v1.261h3.731z"></path>
<path fill="#ebebeb" d="M27.134 17.25h1.412v-4.031h3.781v-1.211h-3.781v-4.084h-1.412v4.084h-3.731v1.211h3.731z"></path>
<path fill="#ebebeb" d="M19.42 35h1.21v-2.875h2.572v-1.058h-2.572v-2.875h-1.21v2.875h-2.521v1.058h2.521z"></path>
<path fill="#ebebeb" d="M11.504 17.25h1.313v-4.082h3.782v-1.16h-3.786v-4.084h-1.313v4.084h-3.778v1.16h3.782z"></path>
<path fill="#ebebeb" d="M31.233 23.302h1.21v-2.824h2.557v-1.109h-2.557v-2.824h-1.21v2.824h-2.521v1.109h2.521z"></path>
<path fill="#ebebeb" d="M27.134 31.824h1.412v-4.034h3.781v-1.261h-3.781v-4.084h-1.412v4.084h-3.731v1.261h3.731z"></path>
<path fill="#ebebeb" d="M23.188 8.63v-0.857h-2.521v-2.773h-0.907v2.773h-2.521v0.857h2.521v2.773h0.907v-2.773zM7.507 23.101h0.908v-2.773h2.523v-0.857h-2.523v-2.721h-0.907v2.723h-2.507v0.907l2.507-0.005z"></path>
</svg>
