<!-- Generated by IcoMoon.io -->
<svg version="1.1" xmlns="http://www.w3.org/2000/svg" width="40" height="40" viewBox="0 0 40 40">
<title>io-logo-python</title>
<path fill="#ebebeb" d="M23.625 6.274c-1.162-0.191-2.863-0.279-4.017-0.274-1.141 0.001-2.259 0.101-3.345 0.291l0.116-0.017c-2.859 0.5-3.379 1.544-3.379 3.471v2.255h7v1h-9.274c-2.598 0-4.706 3.104-4.726 6.945 0 0.018 0 0.036 0 0.055 0 0.004 0 0.009 0 0.014 0 0.703 0.071 1.389 0.207 2.052l-0.011-0.066c0.581 2.893 2.389 5 4.531 5h1.274v-3.375c0-1.956 1.303-3.747 3.438-4.131l0.617-0.077h7.571c0.004 0 0.009 0 0.014 0 0.33 0 0.649-0.046 0.952-0.131l-0.025 0.006c1.413-0.386 2.434-1.658 2.434-3.169 0-0.006-0-0.013-0-0.019v0.001-6.36c0-1.807-1.543-3.171-3.375-3.471zM16.183 10.594c-0.001 0-0.003 0-0.004 0-0.703 0-1.273-0.57-1.273-1.273s0.57-1.273 1.273-1.273c0.703 0 1.273 0.57 1.273 1.273 0 0.002 0 0.003 0 0.005v-0c0 0 0 0 0 0.001 0 0.7-0.568 1.268-1.268 1.268-0 0-0 0-0.001 0h0z"></path>
<path fill="#ebebeb" d="M33.705 17.563c-0.669-2.663-2.401-4.563-4.431-4.563h-1.107v2.966c0 2.473-1.625 4.264-3.609 4.571-0.182 0.030-0.392 0.047-0.605 0.047h-7.573c-0.001 0-0.002 0-0.004 0-0.337 0-0.664 0.044-0.974 0.128l0.026-0.006c-1.394 0.366-2.428 1.526-2.428 3.031v6.361c0 1.813 1.821 2.875 3.608 3.394 2.138 0.622 4.468 0.734 7.026 0 1.699-0.486 3.366-1.468 3.366-3.394v-2.096h-7v-1h9.274c1.84 0 3.434-1.558 4.216-3.832 0.324-0.932 0.511-2.005 0.511-3.123 0-0.016-0-0.032-0-0.048v0.002c0-0.006 0-0.014 0-0.021 0-0.858-0.108-1.691-0.31-2.485l0.015 0.069zM23.782 29.25c0.001 0 0.003 0 0.004 0 0.703 0 1.273 0.57 1.273 1.273s-0.57 1.273-1.273 1.273c-0.703 0-1.273-0.57-1.273-1.273 0-0.002 0-0.003 0-0.005v0c0-0 0-0 0-0.001 0-0.7 0.568-1.268 1.268-1.268 0 0 0 0 0.001 0h-0z"></path>
</svg>
