<!-- Generated by IcoMoon.io -->
<svg version="1.1" xmlns="http://www.w3.org/2000/svg" width="40" height="40" viewBox="0 0 40 40">
<title>io-language-sharp</title>
<path fill="#ebebeb" d="M26.688 15l-7.312 18h2.952l1.531-3.625h5.659l1.531 3.625h2.953zM25.019 26.625l1.668-5.134 1.668 5.134z"></path>
<path fill="#ebebeb" d="M21 24c-0.016-0.012-1.287-0.986-2.839-2.667 2.474-3.352 3.875-7.163 4.447-8.958h3.392v-2.75h-8.625v-2.625h-2.75v2.625h-8.625v2.75h13.703c-0.595 1.684-1.691 4.344-3.362 6.772-2.043-2.715-2.946-4.742-2.958-4.764l-0.446-0.884-2.375 1.375 0.429 0.866c0.056 0.097 1.074 2.369 3.419 5.411 0.058 0.076 0.116 0.149 0.174 0.223-3.107 3.554-5.572 4.943-5.604 4.967l-0.981 0.658 1.437 2.25 1.206-0.717c0.137-0.104 2.583-1.5 5.75-5.049 1.532 1.642 2.701 2.552 2.769 2.604l0.775 0.536z"></path>
</svg>
