<!-- Generated by IcoMoon.io -->
<svg version="1.1" xmlns="http://www.w3.org/2000/svg" width="40" height="40" viewBox="0 0 40 40">
<title>io-logo-amazon</title>
<path fill="#ebebeb" d="M7.030 27.671c2.45 2.864 5.71 4.97 9.424 5.965l0.131 0.030c0.991 0.213 2.129 0.334 3.296 0.334 2.411 0 4.701-0.52 6.764-1.454l-0.103 0.042c1.619-0.755 3.001-1.741 4.172-2.935l0.002-0.002c0.034-0.057 0.054-0.127 0.054-0.201 0-0.138-0.071-0.26-0.178-0.331l-0.001-0.001c-0.076-0.029-0.163-0.045-0.254-0.045-0.088 0-0.173 0.016-0.251 0.044l0.005-0.002c-2.107 1.119-4.551 1.975-7.132 2.436l-0.152 0.023c-0.736 0.086-1.589 0.135-2.454 0.135-1.955 0-3.851-0.251-5.658-0.721l0.156 0.034c-2.84-0.955-5.306-2.237-7.526-3.837l0.083 0.057c-0.029-0.010-0.062-0.015-0.096-0.015-0.173 0-0.313 0.14-0.313 0.313 0 0.049 0.011 0.095 0.031 0.136l-0.001-0.002z"></path>
<path fill="#ebebeb" d="M28.197 28.277c0.602-0.122 1.294-0.193 2.003-0.193 0.372 0 0.739 0.019 1.101 0.057l-0.045-0.004 0.042 0.008c0.276 0.069 0.478 0.314 0.478 0.607 0 0.052-0.006 0.102-0.018 0.15l0.001-0.004c-0.223 1.089-0.549 2.053-0.979 2.958l0.033-0.078c-0.004 0.014-0.007 0.030-0.007 0.047 0 0.071 0.046 0.131 0.11 0.151l0.001 0c0.014 0.005 0.030 0.007 0.047 0.007 0.035 0 0.067-0.011 0.093-0.031l-0 0c1.182-0.956 1.934-2.402 1.944-4.025v-0.002c0.002-0.018 0.002-0.039 0.002-0.061 0-0.381-0.274-0.698-0.636-0.765l-0.005-0.001c-0.306-0.055-0.657-0.087-1.016-0.087-1.224 0-2.362 0.367-3.31 0.998l0.022-0.014c-0.040 0.029-0.066 0.076-0.066 0.129 0 0.035 0.011 0.067 0.030 0.093l-0-0c0.029 0.039 0.075 0.064 0.126 0.064 0.018 0 0.035-0.003 0.050-0.008l-0.001 0z"></path>
<path fill="#ebebeb" d="M23.015 24.308c-0.534 0.59-1.127 1.111-1.774 1.559l-0.034 0.022c-1.193 0.716-2.627 1.149-4.161 1.174l-0.007 0c-1.358-0.031-2.603-0.492-3.609-1.252l0.016 0.011c-1.217-1.115-1.977-2.712-1.977-4.486 0-0.636 0.098-1.249 0.279-1.825l-0.012 0.043c0.673-1.983 2.151-3.538 4.034-4.299l0.047-0.017c1.957-0.61 4.208-0.965 6.54-0.972h0.004v-2.329c-0.152-1.058-0.987-1.881-2.037-2.016l-0.012-0.001c-0.152-0.022-0.327-0.034-0.505-0.034-0.521 0-1.017 0.106-1.467 0.299l0.024-0.009c-0.867 0.415-1.498 1.201-1.692 2.147l-0.003 0.020c-0.123 0.255-0.38 0.428-0.677 0.428-0.038 0-0.076-0.003-0.113-0.008l0.004 0.001-3.181-0.281c-0.289-0.080-0.501-0.33-0.524-0.633l-0-0.002c0.27-1.608 1.099-2.986 2.277-3.957l0.011-0.009c1.504-1.173 3.421-1.881 5.504-1.881 0.051 0 0.103 0 0.154 0.001l-0.008-0c1.98 0.019 3.806 0.664 5.293 1.747l-0.026-0.018c1.18 1.002 1.924 2.486 1.924 4.145 0 0.086-0.002 0.171-0.006 0.256l0-0.012v8.057c0.043 0.718 0.223 1.384 0.514 1.987l-0.014-0.032 0.992 1.452c0.050 0.103 0.080 0.223 0.080 0.351s-0.029 0.248-0.082 0.356l0.002-0.005-2.937 2.482c-0.108 0.060-0.236 0.095-0.373 0.095-0.156 0-0.301-0.046-0.423-0.124l0.003 0.002c-0.752-0.725-1.426-1.52-2.015-2.379l-0.034-0.052zM22.353 17.006c-0.096-0.002-0.21-0.003-0.323-0.003-0.856 0-1.697 0.067-2.518 0.196l0.091-0.012c-1.133 0.261-2.061 0.982-2.592 1.952l-0.010 0.021c-0.184 0.439-0.291 0.95-0.291 1.486 0 0.693 0.179 1.344 0.493 1.909l-0.010-0.020c0.469 0.582 1.182 0.952 1.981 0.952 0.347 0 0.679-0.070 0.98-0.196l-0.017 0.006c1.186-0.769 2.012-2.008 2.213-3.448l0.003-0.026v-2.816z"></path>
</svg>
