<!-- Generated by IcoMoon.io -->
<svg version="1.1" xmlns="http://www.w3.org/2000/svg" width="40" height="40" viewBox="0 0 40 40">
<title>io-logo-gitlab</title>
<path fill="#ebebeb" d="M34.879 21.6l-1.574-4.88c-0.009-0.050-0.023-0.094-0.040-0.136l0.002 0.005-3.156-9.809c-0.17-0.506-0.639-0.864-1.192-0.864-0.002 0-0.004 0-0.006 0h0c-0.001 0-0.002 0-0.004 0-0.552 0-1.020 0.362-1.178 0.862l-0.002 0.009-3.009 9.347h-9.5l-3.011-9.348c-0.16-0.508-0.627-0.871-1.179-0.871h-0.007c-0.556 0.002-1.028 0.364-1.192 0.866l-0.003 0.009-3.159 9.818c0 0.009-0.007 0.016-0.010 0.025l-1.602 4.968c-0.056 0.168-0.089 0.361-0.089 0.562 0 0.599 0.29 1.131 0.736 1.463l0.005 0.003 13.84 10.151c0.115 0.085 0.259 0.136 0.415 0.136 0.159 0 0.305-0.053 0.423-0.141l-0.002 0.001 13.843-10.146c0.451-0.335 0.741-0.867 0.741-1.466 0-0.201-0.033-0.395-0.093-0.576l0.004 0.013zM14.192 17.568l3.858 11.985-9.261-11.985zM21.892 29.556l3.699-11.49 0.159-0.5h5.408l-8.379 10.837zM28.925 7.707l2.711 8.427h-5.426zM24.26 17.563l-2.687 8.349-1.604 4.973-4.285-13.321zM11.017 7.707l2.716 8.427h-5.421zM6.543 22.474c-0.096-0.071-0.157-0.184-0.157-0.311 0-0.043 0.007-0.084 0.020-0.123l-0.001 0.003 1.188-3.688 8.726 11.287zM33.396 22.474l-9.776 7.165 0.032-0.043 8.691-11.243 1.188 3.688c0.012 0.036 0.020 0.078 0.020 0.121 0 0.127-0.061 0.24-0.155 0.31l-0.001 0.001z"></path>
</svg>
