<!-- Generated by IcoMoon.io -->
<svg version="1.1" xmlns="http://www.w3.org/2000/svg" width="40" height="40" viewBox="0 0 40 40">
<title>io-logo-euro</title>
<path fill="#ebebeb" d="M18.487 21v-3h9.013l0.5-3h-9.513v-0.508c0-2.418 1.029-3.91 5.449-3.91 1.806 0 3.841 0.168 6.406 0.589l0.657-4.375c-2.125-0.506-4.565-0.797-7.073-0.797-0.074 0-0.148 0-0.222 0.001l0.011-0c-7.887 0-11.279 2.775-11.279 7.904v1.096h-3.438v3h3.438v3h-3.438v3h3.438v2.096c0 5.129 3.389 7.904 11.277 7.904 0.059 0 0.129 0.001 0.2 0.001 2.51 0 4.951-0.291 7.293-0.842l-0.215 0.043-0.661-4.375c-2.566 0.421-4.591 0.589-6.397 0.589-4.419 0-5.446-1.261-5.446-4.246v-1.169h8.029l0.492-3z"></path>
</svg>
