<!-- Generated by IcoMoon.io -->
<svg version="1.1" xmlns="http://www.w3.org/2000/svg" width="40" height="40" viewBox="0 0 40 40">
<title>io-library-outline</title>
<path fill="none" stroke-linejoin="round" stroke-linecap="butt" stroke-miterlimit="4" stroke-width="2.5" stroke="#ebebeb" d="M7 10h2c0.552 0 1 0.448 1 1v21c0 0.552-0.448 1-1 1h-2c-0.552 0-1-0.448-1-1v-21c0-0.552 0.448-1 1-1z"></path>
<path fill="none" stroke-linejoin="round" stroke-linecap="round" stroke-miterlimit="4" stroke-width="2.5" stroke="#ebebeb" d="M11 18h8"></path>
<path fill="none" stroke-linejoin="round" stroke-linecap="round" stroke-miterlimit="4" stroke-width="2.5" stroke="#ebebeb" d="M11 29h8"></path>
<path fill="none" stroke-linejoin="round" stroke-linecap="butt" stroke-miterlimit="4" stroke-width="2.5" stroke="#ebebeb" d="M12 14h6c0.552 0 1 0.448 1 1v17c0 0.552-0.448 1-1 1h-6c-0.552 0-1-0.448-1-1v-17c0-0.552 0.448-1 1-1z"></path>
<path fill="none" stroke-linejoin="round" stroke-linecap="butt" stroke-miterlimit="4" stroke-width="2.5" stroke="#ebebeb" d="M21 7h4c0.552 0 1 0.448 1 1v24c0 0.552-0.448 1-1 1h-4c-0.552 0-1-0.448-1-1v-24c0-0.552 0.448-1 1-1z"></path>
<path fill="none" stroke-linejoin="round" stroke-linecap="butt" stroke-miterlimit="4" stroke-width="2.5" stroke="#ebebeb" d="M30.404 10.007l-2.525 0.266c-0.695 0.073-1.199 0.723-1.121 1.444l2.183 20.099c0.079 0.721 0.711 1.25 1.406 1.177l2.525-0.266c0.695-0.073 1.199-0.723 1.121-1.444l-2.179-20.096c-0.082-0.724-0.714-1.254-1.409-1.181z"></path>
</svg>
