<!-- Generated by IcoMoon.io -->
<svg version="1.1" xmlns="http://www.w3.org/2000/svg" width="40" height="40" viewBox="0 0 40 40">
<title>io-logo-bitcoin</title>
<path fill="#ebebeb" d="M29.654 21.45c-0.313-0.719-0.794-1.35-1.756-1.881-0.457-0.264-0.986-0.478-1.545-0.616l-0.042-0.009c0.391-0.184 0.727-0.414 1.021-0.689l-0.002 0.002c0.433-0.388 0.768-0.878 0.967-1.432l0.008-0.025c0.145-0.438 0.228-0.941 0.228-1.465 0-0.105-0.003-0.209-0.010-0.312l0.001 0.014c-0.069-1.050-0.275-2.069-0.825-2.8s-1.325-1.294-2.35-1.688c-0.788-0.3-1.594-0.488-2.844-0.556v-3.994h-2.5v4h-2v-4h-2.562v4h-5.442v3h1.742c0.544 0 0.913 0.050 1.1 0.144 0.176 0.077 0.317 0.207 0.404 0.371l0.002 0.004c0.081 0.156 0.119 0.525 0.119 1.094v10.825c0 0.563-0.037 0.925-0.119 1.088s-0.125 0.306-0.319 0.394-0.2 0.081-0.738 0.081h-1.65l-0.542 3h5.438v4h2.563v-4h2v4h2.5v-4.025c1.625-0.081 2.781-0.294 3.712-0.644 1.206-0.45 2.131-1.106 2.794-1.969s0.875-2.181 0.933-3.2c0.042-0.906-0.002-2.075-0.285-2.713zM18 13.375h2v4.625h-2zM18 26.625v-5.625h2v5.625zM22.5 13.619c0.375 0.156 0.619 0.469 0.863 0.794 0.269 0.356 0.406 0.831 0.406 1.338 0 0.488-0.181 0.906-0.469 1.281-0.238 0.306-0.425 0.519-0.8 0.694zM24.3 25.288c-0.488 0.431-0.769 0.631-1.381 0.863-0.112 0.041-0.252 0.082-0.395 0.114l-0.023 0.004v-5.175c0.264 0.040 0.501 0.114 0.722 0.219l-0.015-0.007c0.488 0.206 0.95 0.431 1.238 0.825 0.306 0.43 0.493 0.964 0.5 1.542l0 0.002c-0.002 0.681-0.177 1.2-0.646 1.613z"></path>
</svg>
