<!-- Generated by IcoMoon.io -->
<svg version="1.1" xmlns="http://www.w3.org/2000/svg" width="40" height="40" viewBox="0 0 40 40">
<title>io-megaphone</title>
<path fill="#ebebeb" d="M7 15v0.041c-0.002 0.269-0.101 0.514-0.264 0.703l0.001-0.001v0.003c-0.338 0.399-0.737 1.113-0.737 2.254 0 1.034 0.331 1.764 0.73 2.244 0.168 0.203 0.27 0.467 0.27 0.754 0 0.001 0 0.001 0 0.002v-0c0 1.105 0.895 2 2 2v0h0.5c0.276 0 0.5-0.224 0.5-0.5v0-9c0-0.276-0.224-0.5-0.5-0.5v0h-0.5c-1.105 0-2 0.895-2 2v0z"></path>
<path fill="#ebebeb" d="M32.261 15.659l-0.058-0.011c-0.116-0.023-0.203-0.124-0.203-0.246 0-0 0-0 0-0v0-7.528c0-0.79-0.524-1.5-1.306-1.77-0.745-0.257-1.521-0.048-1.98 0.533-0.99 1.178-2.040 2.235-3.17 3.2l-0.037 0.031c-1.477 1.25-2.89 2.141-4.188 2.644-0.19 0.074-0.322 0.255-0.322 0.467v9.708c0 0.409 0.247 0.761 0.599 0.916l0.006 0.002c1.209 0.518 2.515 1.364 3.875 2.517 1.176 1.005 2.232 2.071 3.196 3.218l0.034 0.042c0.303 0.378 0.764 0.617 1.281 0.617 0.013 0 0.026-0 0.039-0l-0.002 0c0.234-0.001 0.458-0.041 0.667-0.113l-0.015 0.004c0.802-0.266 1.32-0.951 1.32-1.741v-7.554c0-0.123 0.089-0.226 0.207-0.246l0.001-0 0.053-0.009c0.601-0.163 1.739-0.861 1.739-2.341s-1.137-2.177-1.739-2.341z"></path>
<path fill="#ebebeb" d="M19 24v-10.5c0-0.276-0.224-0.5-0.5-0.5v0h-6c-0.276 0-0.5 0.224-0.5 0.5v0 19c0 0.828 0.672 1.5 1.5 1.5v0h3.278c0.005 0 0.011 0 0.017 0 0.649 0 1.226-0.302 1.6-0.774l0.003-0.004c0.261-0.332 0.418-0.756 0.418-1.217 0-0.214-0.034-0.42-0.097-0.613l0.004 0.014c-0.101-0.324-0.227-0.688-0.361-1.074-0.494-1.431-1.146-2.317-1.32-4.333 1.086-0.024 1.956-0.91 1.956-1.999v0z"></path>
</svg>
