<!-- Generated by IcoMoon.io -->
<svg version="1.1" xmlns="http://www.w3.org/2000/svg" width="40" height="40" viewBox="0 0 40 40">
<title>io-map</title>
<path fill="#ebebeb" d="M7.011 11.084c-0.608 0.351-1.011 0.997-1.011 1.738 0 0.002 0 0.004 0 0.006v-0 18.547c0 0.002 0 0.004 0 0.006 0 1.105 0.895 2 2 2 0.343 0 0.666-0.086 0.948-0.239l-0.011 0.005c0.027-0.014 0.053-0.029 0.079-0.046l5.259-3.441c0.137-0.091 0.227-0.244 0.227-0.419 0-0 0-0.001 0-0.001v0-22.338c0-0 0-0.001 0-0.001 0-0.276-0.224-0.5-0.5-0.5-0.105 0-0.203 0.033-0.284 0.088l0.002-0.001z"></path>
<path fill="#ebebeb" d="M17.273 6.457c-0.077-0.051-0.171-0.081-0.273-0.081-0.276 0-0.499 0.223-0.5 0.499v22.348c0 0 0 0.001 0 0.001 0 0.175 0.089 0.328 0.225 0.418l0.002 0.001 6 3.901c0.077 0.051 0.172 0.081 0.273 0.081 0.276 0 0.5-0.224 0.5-0.5v0-22.333c0-0 0-0.001 0-0.001 0-0.175-0.090-0.329-0.226-0.418l-0.002-0.001z"></path>
<path fill="#ebebeb" d="M33.033 6.904c-0.294-0.183-0.65-0.291-1.032-0.291-0.343 0-0.666 0.087-0.947 0.241l0.010-0.005c-0.031 0.016-0.056 0.031-0.081 0.048l0.003-0.002-5.259 3.438c-0.137 0.091-0.227 0.244-0.227 0.419 0 0 0 0.001 0 0.001v-0 22.341c0 0.001 0 0.001 0 0.002 0 0.276 0.224 0.5 0.5 0.5 0.106 0 0.203-0.033 0.284-0.089l-0.002 0.001 6.692-4.591c0.616-0.349 1.026-1 1.026-1.747 0-0.001 0-0.002 0-0.004v0-18.5c0-0.007 0-0.016 0-0.024 0-0.731-0.383-1.372-0.959-1.734l-0.009-0.005z"></path>
</svg>
