<!-- Generated by IcoMoon.io -->
<svg version="1.1" xmlns="http://www.w3.org/2000/svg" width="40" height="40" viewBox="0 0 40 40">
<title>io-mail-unread-sharp</title>
<path fill="#ebebeb" d="M27.381 10.313c-0.007 0.014-0.013 0.029-0.019 0.044-0.021 0.047-0.042 0.094-0.063 0.141l-0.023 0.056c-0.017 0.044-0.034 0.089-0.049 0.134-0.008 0.022-0.015 0.044-0.022 0.063-0.014 0.043-0.027 0.086-0.040 0.129l-0.021 0.072q-0.017 0.063-0.032 0.125c-0.006 0.026-0.013 0.051-0.017 0.077-0.009 0.042-0.017 0.085-0.025 0.125-0.005 0.026-0.010 0.052-0.014 0.079-0.007 0.043-0.012 0.088-0.018 0.131-0.003 0.026-0.007 0.052-0.010 0.078-0.005 0.048-0.008 0.096-0.012 0.144 0 0.023-0.004 0.045-0.005 0.068-0.004 0.071-0.006 0.142-0.006 0.213v0c0 0.063 0 0.125 0.004 0.184v0.039c0.003 0.059 0.008 0.118 0.013 0.177l0.004 0.029c0.006 0.054 0.013 0.107 0.020 0.161 0 0.009 0 0.019 0.004 0.029 0.009 0.057 0.019 0.115 0.031 0.172l0.008 0.037c0.013 0.057 0.025 0.115 0.040 0.172v0c0.014 0.058 0.031 0.114 0.048 0.169 0.004 0.012 0.008 0.024 0.011 0.036 0.017 0.055 0.036 0.109 0.055 0.162 0.003 0.009 0.007 0.018 0.010 0.027 0.018 0.049 0.038 0.097 0.057 0.145 0.003 0.009 0.007 0.017 0.011 0.026 0.022 0.052 0.046 0.103 0.069 0.154l0.017 0.033c0.025 0.051 0.051 0.103 0.078 0.152v0 0c0.419 0.76 1.055 1.356 1.823 1.717l0.025 0.010 0.023 0.011c0.111 0.050 0.224 0.096 0.341 0.136l0.059 0.020 0.094 0.029c0.028 0.009 0.056 0.016 0.085 0.024l0.12 0.031c0.036 0.009 0.071 0.017 0.107 0.024l0.072 0.015 0.173 0.030c0.056 0.008 0.113 0.015 0.17 0.021l0.048 0.004c0.046 0.004 0.092 0.008 0.139 0.011l0.053 0.003c0.063 0 0.121 0.004 0.183 0.004v0c0.072 0 0.143 0 0.214-0.006l0.068-0.006c0.048 0 0.096-0.007 0.144-0.012 0.026 0 0.052-0.006 0.078-0.010 0.044-0.005 0.088-0.011 0.131-0.018l0.079-0.014c0.043-0.008 0.085-0.016 0.125-0.024l0.078-0.018c0.042-0.010 0.084-0.020 0.125-0.032 0.024-0.006 0.049-0.013 0.072-0.021 0.043-0.012 0.086-0.026 0.128-0.039l0.067-0.023c0.044-0.015 0.087-0.031 0.131-0.048l0.059-0.023c0.046-0.019 0.092-0.039 0.137-0.059l0.048-0.021c0.050-0.023 0.099-0.048 0.147-0.073 0.011-0.006 0.022-0.011 0.033-0.017 0.057-0.030 0.112-0.063 0.167-0.094l0.008-0.004c1.178-0.71 1.954-1.982 1.954-3.435 0-2.207-1.789-3.997-3.997-3.997-1.523 0-2.848 0.852-3.522 2.106l-0.010 0.021-0.013 0.024c-0.019 0.064-0.045 0.116-0.069 0.168z"></path>
<path fill="#ebebeb" d="M27.219 16.652l-6.606 5.137c-0.168 0.131-0.381 0.211-0.614 0.211s-0.446-0.079-0.616-0.212l0.002 0.002-9.789-7.614 1.227-1.579 9.176 7.136 5.897-4.587c-0.56-0.894-0.892-1.98-0.892-3.144 0-1.106 0.3-2.141 0.822-3.030l-0.015 0.028h-18.813c-0.552 0-1 0.448-1 1v0 20c0 0.552 0.448 1 1 1v0h26c0.552 0 1-0.448 1-1v0-12.804c-0.859 0.506-1.893 0.804-2.997 0.804-1.44 0-2.762-0.509-3.794-1.356l0.010 0.008z"></path>
</svg>
