<!-- Generated by IcoMoon.io -->
<svg version="1.1" xmlns="http://www.w3.org/2000/svg" width="40" height="40" viewBox="0 0 40 40">
<title>io-male-female</title>
<path fill="#ebebeb" d="M30.625 5h-4.625c-0.759 0-1.375 0.616-1.375 1.375s0.616 1.375 1.375 1.375v0h1.306l-2.319 2.318c-1.818-2.113-4.496-3.443-7.484-3.443-0.001 0-0.002 0-0.003 0h0c-5.445 0-9.875 4.43-9.875 9.875 0 4.979 3.704 9.107 8.5 9.779v2.346h-1.75c-0.759 0-1.375 0.616-1.375 1.375s0.616 1.375 1.375 1.375v0h1.75v2.25c0 0.759 0.616 1.375 1.375 1.375s1.375-0.616 1.375-1.375v0-2.25h1.75c0.759 0 1.375-0.616 1.375-1.375s-0.616-1.375-1.375-1.375v0h-1.75v-2.346c4.796-0.671 8.5-4.8 8.5-9.779 0-0.001 0-0.003 0-0.005 0-1.469-0.322-2.862-0.9-4.113l0.025 0.061 2.75-2.75v1.307c0 0.759 0.616 1.375 1.375 1.375s1.375-0.616 1.375-1.375v0-4.625c0-0.759-0.616-1.375-1.375-1.375v0zM17.5 23.625c-3.935 0-7.125-3.19-7.125-7.125s3.19-7.125 7.125-7.125c3.935 0 7.125 3.19 7.125 7.125v0c-0.005 3.933-3.192 7.12-7.125 7.125h-0z"></path>
</svg>
