<!-- Generated by IcoMoon.io -->
<svg version="1.1" xmlns="http://www.w3.org/2000/svg" width="40" height="40" viewBox="0 0 40 40">
<title>io-mail-open-sharp</title>
<path fill="#ebebeb" d="M33.441 14.523l-12.988-6.417c-0.132-0.067-0.288-0.106-0.452-0.106s-0.321 0.039-0.458 0.108l0.006-0.003-12.985 6.417c-0.334 0.165-0.561 0.503-0.563 0.894v15.583c0.003 0.553 0.452 1 1.006 1 0.002 0 0.004 0 0.007-0h25.976c0.002 0 0.004 0 0.006 0 0.553 0 1.002-0.447 1.006-1v-15.583c-0.001-0.391-0.226-0.728-0.554-0.892l-0.006-0.003zM20 10.118l10.813 5.34-10.981 5.424-10.813-5.34z"></path>
</svg>
