<!-- Generated by IcoMoon.io -->
<svg version="1.1" xmlns="http://www.w3.org/2000/svg" width="40" height="40" viewBox="0 0 40 40">
<title>io-mail-unread-outline</title>
<path fill="none" stroke-linejoin="round" stroke-linecap="round" stroke-miterlimit="4" stroke-width="2.5" stroke="#ebebeb" d="M24 10h-14.5c-1.381 0-2.5 1.119-2.5 2.5v0 15c0 1.381 1.119 2.5 2.5 2.5v0h20.921c1.381 0 2.5-1.119 2.5-2.5v0-8.563"></path>
<path fill="none" stroke-linejoin="round" stroke-linecap="round" stroke-miterlimit="4" stroke-width="2.5" stroke="#ebebeb" d="M11 14l9 7 5.438-4.104"></path>
<path fill="#ebebeb" d="M33.994 12.003c0 1.655-1.342 2.997-2.997 2.997s-2.997-1.342-2.997-2.997c0-1.655 1.342-2.997 2.997-2.997s2.997 1.342 2.997 2.997z"></path>
<path fill="#ebebeb" d="M31 16c-2.207 0-3.997-1.789-3.997-3.997s1.789-3.997 3.997-3.997c2.207 0 3.997 1.789 3.997 3.997v0c-0.002 2.207-1.79 3.995-3.997 3.997h-0zM31 10.006c-0.001 0-0.002 0-0.003 0-1.105 0-2 0.895-2 2s0.895 2 2 2c1.105 0 2-0.895 2-2v0c0 0 0 0 0 0 0-1.103-0.894-1.998-1.997-2h-0z"></path>
</svg>
