<!-- Generated by IcoMoon.io -->
<svg version="1.1" xmlns="http://www.w3.org/2000/svg" width="40" height="40" viewBox="0 0 40 40">
<title>io-musical-note-outline</title>
<path fill="none" stroke-linejoin="round" stroke-linecap="round" stroke-miterlimit="4" stroke-width="2.5" stroke="#ebebeb" d="M19 25.457v5.043c0 0.002 0 0.004 0 0.006 0 0.882-0.565 1.631-1.353 1.906l-0.014 0.004-1.342 0.452c-1.619 0.544-3.291-0.672-3.291-2.395v0c0-0.002 0-0.004 0-0.006 0-0.937 0.601-1.733 1.438-2.024l0.015-0.005 3.179-1.070c0.802-0.279 1.367-1.029 1.367-1.91 0-0.002 0-0.003 0-0.005v0-15.702c0-0.001 0-0.002 0-0.003 0-0.466 0.317-0.859 0.747-0.974l0.007-0.002 6.777-1.759c0.028-0.008 0.061-0.012 0.094-0.012 0.207 0 0.375 0.168 0.375 0.375v3.61c0 0.001 0 0.002 0 0.003 0 0.468-0.319 0.861-0.75 0.975l-0.007 0.002-5.728 1.446c-0.878 0.231-1.515 1.017-1.515 1.952 0 0.002 0 0.005 0 0.007v-0 2.462"></path>
</svg>
