<!-- Generated by IcoMoon.io -->
<svg version="1.1" xmlns="http://www.w3.org/2000/svg" width="40" height="40" viewBox="0 0 40 40">
<title>io-notifications-off-circle-outline</title>
<path fill="none" stroke-linejoin="miter" stroke-linecap="butt" stroke-miterlimit="10" stroke-width="2.5" stroke="#ebebeb" d="M32 20c0-6.625-5.375-12-12-12s-12 5.375-12 12 5.375 12 12 12 12-5.375 12-12z"></path>
<path fill="#ebebeb" d="M17.765 26c-0 0-0.001 0-0.001 0-0.138 0-0.25 0.112-0.25 0.25 0 0.009 0.001 0.018 0.001 0.027l-0-0.001c0.141 1.17 1.179 1.724 2.485 1.724s2.344-0.554 2.483-1.724c0.001-0.008 0.001-0.017 0.001-0.026 0-0.138-0.112-0.25-0.25-0.25-0.001 0-0.001 0-0.001 0h0z"></path>
<path fill="#ebebeb" d="M26 27.625c-0.001 0-0.001 0-0.002 0-0.292 0-0.555-0.126-0.737-0.327l-0.001-0.001-12-13.25c-0.156-0.176-0.252-0.409-0.252-0.664 0-0.552 0.448-1 1-1 0.289 0 0.549 0.122 0.731 0.318l0.001 0.001 12 13.25c0.161 0.177 0.26 0.413 0.26 0.672 0 0.552-0.448 1-1 1v0z"></path>
<path fill="#ebebeb" d="M14.917 18.513c0 3.333-0.721 3.841-1.742 5.050-0.423 0.5-0.041 1.438 0.699 1.438h7.427c0.138-0 0.25-0.112 0.25-0.25 0-0.065-0.025-0.124-0.066-0.169l0 0-6.125-6.679c-0.046-0.050-0.111-0.081-0.184-0.081-0.134 0-0.243 0.105-0.25 0.238l-0 0.001c-0.006 0.146-0.010 0.297-0.010 0.453z"></path>
<path fill="#ebebeb" d="M26.825 23.563c-1.021-1.209-1.741-1.717-1.741-5.050 0-3.054-1.611-4.139-2.938-4.667-0.185-0.079-0.327-0.228-0.395-0.413l-0.002-0.005c-0.232-0.766-0.883-1.428-1.75-1.428s-1.519 0.662-1.75 1.429c-0.069 0.19-0.211 0.339-0.391 0.416l-0.005 0.002c-0.080 0.032-0.161 0.066-0.242 0.102-0.088 0.040-0.147 0.127-0.147 0.228 0 0.065 0.025 0.125 0.066 0.17l-0-0 9.032 9.855c0.046 0.050 0.111 0.081 0.184 0.081 0.138 0 0.25-0.112 0.25-0.25 0-0.005-0-0.011-0.001-0.016l0 0.001c-0.006-0.173-0.069-0.331-0.172-0.455l0.001 0.001z"></path>
</svg>
