<!-- Generated by IcoMoon.io -->
<svg version="1.1" xmlns="http://www.w3.org/2000/svg" width="40" height="40" viewBox="0 0 40 40">
<title>io-notifications-off-circle</title>
<path fill="#ebebeb" d="M20 7c-7.168 0-13 5.832-13 13s5.832 13 13 13 13-5.832 13-13-5.832-13-13-13zM13.177 23.563c1.021-1.209 1.741-1.717 1.741-5.050q0-0.234 0.012-0.454c0.004-0.135 0.115-0.242 0.25-0.242 0.075 0 0.142 0.033 0.187 0.084l0 0 6.125 6.679c0.041 0.044 0.066 0.104 0.066 0.169 0 0.138-0.112 0.25-0.249 0.25h-7.434c-0.739 0.001-1.121-0.937-0.698-1.437zM22.485 26.276c-0.139 1.171-1.178 1.724-2.485 1.724s-2.344-0.554-2.484-1.724c-0.001-0.008-0.001-0.017-0.001-0.026 0-0.138 0.112-0.25 0.25-0.25 0.001 0 0.001 0 0.001 0h4.471c0 0 0 0 0 0 0.138 0 0.25 0.112 0.25 0.25 0 0.009-0.001 0.018-0.001 0.027l0-0.001zM26.672 27.364c-0.177 0.161-0.413 0.26-0.672 0.26-0.293 0-0.556-0.126-0.739-0.327l-0.001-0.001-12-13.25c-0.156-0.176-0.252-0.409-0.252-0.664 0-0.552 0.448-1 1-1 0.289 0 0.549 0.122 0.731 0.318l0.001 0.001 12 13.25c0.161 0.177 0.26 0.413 0.26 0.673 0 0.293-0.126 0.557-0.327 0.74l-0.001 0.001zM26.563 24.201l-9.032-9.855c-0.041-0.044-0.066-0.104-0.066-0.169 0-0.101 0.060-0.188 0.146-0.227l0.002-0.001c0.082-0.036 0.163-0.070 0.243-0.102 0.185-0.078 0.326-0.228 0.393-0.413l0.002-0.005c0.233-0.766 0.884-1.429 1.75-1.429s1.518 0.662 1.75 1.429c0.069 0.19 0.211 0.339 0.392 0.416l0.005 0.002c1.326 0.527 2.938 1.613 2.938 4.667 0 3.333 0.721 3.841 1.742 5.050 0.102 0.123 0.166 0.28 0.172 0.452l0 0.001c0 0.005 0.001 0.011 0.001 0.018 0 0.138-0.112 0.25-0.25 0.25-0.074 0-0.14-0.032-0.186-0.083l-0-0z"></path>
</svg>
