<!-- Generated by IcoMoon.io -->
<svg version="1.1" xmlns="http://www.w3.org/2000/svg" width="40" height="40" viewBox="0 0 40 40">
<title>io-notifications</title>
<path fill="#ebebeb" d="M31.505 25.332c-0.104-0.125-0.206-0.25-0.306-0.371-1.375-1.663-2.207-2.667-2.207-7.375 0-2.437-0.583-4.437-1.732-5.937-0.848-1.108-1.993-1.949-3.503-2.57-0.020-0.011-0.037-0.025-0.051-0.042l-0-0c-0.543-1.819-2.029-3.037-3.706-3.037s-3.162 1.218-3.705 3.035c-0.014 0.016-0.031 0.030-0.050 0.040l-0.001 0.001c-3.524 1.451-5.236 4.234-5.236 8.509 0 4.71-0.831 5.714-2.207 7.375-0.1 0.121-0.202 0.243-0.306 0.371-0.315 0.378-0.506 0.868-0.506 1.403 0 0.345 0.079 0.671 0.221 0.962l-0.006-0.013c0.386 0.812 1.208 1.317 2.146 1.317h19.306c0.934 0 1.75-0.504 2.137-1.313 0.137-0.278 0.217-0.606 0.217-0.952 0-0.534-0.191-1.024-0.508-1.405l0.003 0.004z"></path>
<path fill="#ebebeb" d="M20 34c1.894-0.002 3.541-1.055 4.389-2.607l0.013-0.026c0.018-0.034 0.029-0.074 0.029-0.117 0-0.138-0.112-0.25-0.25-0.25-0 0-0 0-0 0h-8.361c-0 0-0.001 0-0.001 0-0.138 0-0.25 0.112-0.25 0.25 0 0.043 0.011 0.083 0.030 0.118l-0.001-0.001c0.862 1.578 2.509 2.631 4.402 2.633h0z"></path>
</svg>
