<!-- Generated by IcoMoon.io -->
<svg version="1.1" xmlns="http://www.w3.org/2000/svg" width="40" height="40" viewBox="0 0 40 40">
<title>io-person-add</title>
<path fill="#ebebeb" d="M22 20c3.299 0 6.214-3.107 6.5-6.926 0.142-1.919-0.46-3.708-1.695-5.038-1.222-1.313-2.93-2.036-4.805-2.036-1.89 0-3.599 0.719-4.813 2.024-1.227 1.319-1.825 3.113-1.687 5.049 0.281 3.82 3.195 6.927 6.5 6.927z"></path>
<path fill="#ebebeb" d="M34.961 31.485c-0.527-2.926-2.174-5.384-4.762-7.109-2.298-1.532-5.21-2.376-8.199-2.376s-5.901 0.844-8.199 2.375c-2.588 1.725-4.234 4.183-4.762 7.109-0.121 0.671 0.043 1.334 0.449 1.819 0.357 0.427 0.89 0.696 1.486 0.696 0.009 0 0.018-0 0.027-0h21.999c0.008 0 0.018 0 0.028 0 0.596 0 1.128-0.269 1.483-0.693l0.002-0.003c0.405-0.486 0.569-1.149 0.448-1.819z"></path>
<path fill="#ebebeb" d="M10.5 22v-2.5h2.5c0.552 0 1-0.448 1-1s-0.448-1-1-1v0h-2.5v-2.5c0-0.552-0.448-1-1-1s-1 0.448-1 1v0 2.5h-2.5c-0.552 0-1 0.448-1 1s0.448 1 1 1v0h2.5v2.5c0 0.552 0.448 1 1 1s1-0.448 1-1v0z"></path>
</svg>
