<!-- Generated by IcoMoon.io -->
<svg version="1.1" xmlns="http://www.w3.org/2000/svg" width="40" height="40" viewBox="0 0 40 40">
<title>io-pricetag-outline</title>
<path fill="none" stroke-linejoin="round" stroke-linecap="round" stroke-miterlimit="4" stroke-width="2.5" stroke="#ebebeb" d="M31.203 7h-7.681c-0 0-0 0-0.001 0-0.248 0-0.474 0.1-0.637 0.263l-15.356 15.356c-0.324 0.326-0.525 0.776-0.525 1.272s0.201 0.946 0.525 1.272l7.312 7.312c0.326 0.324 0.776 0.525 1.272 0.525s0.946-0.201 1.272-0.525l15.35-15.35c0.162-0.163 0.262-0.388 0.262-0.637 0-0 0-0 0-0.001v0-7.688c0-0.003 0-0.006 0-0.009 0-0.989-0.802-1.791-1.791-1.791-0.001 0-0.002 0-0.003 0h0z"></path>
<path fill="#ebebeb" d="M28 14c-1.105 0-2-0.895-2-2s0.895-2 2-2c1.105 0 2 0.895 2 2v0c0 1.105-0.895 2-2 2v0z"></path>
</svg>
