<!-- Generated by IcoMoon.io -->
<svg version="1.1" xmlns="http://www.w3.org/2000/svg" width="40" height="40" viewBox="0 0 40 40">
<title>io-pint-outline</title>
<path fill="none" stroke-linejoin="round" stroke-linecap="round" stroke-miterlimit="4" stroke-width="2.5" stroke="#ebebeb" d="M12.277 14.125c-0.39-2.125-0.281-2.847-0.192-4.274l0.182-2.913c0.034-0.524 0.467-0.937 0.996-0.938h13.473c0.53 0.001 0.962 0.413 0.996 0.935l0 0.003 0.182 2.913c0.089 1.429 0.199 2.149-0.191 4.278-0.371 2.018-2.732 8.329-2.732 14.895v4.476c0 0.276-0.224 0.5-0.5 0.5v0h-8.984c-0.276 0-0.5-0.224-0.5-0.5v0-4.477c0.001-5.779-2.341-12.769-2.731-14.898z"></path>
<path fill="none" stroke-linejoin="round" stroke-linecap="round" stroke-miterlimit="4" stroke-width="2.5" stroke="#ebebeb" d="M12.451 10h15.099"></path>
</svg>
