<!-- Generated by IcoMoon.io -->
<svg version="1.1" xmlns="http://www.w3.org/2000/svg" width="40" height="40" viewBox="0 0 40 40">
<title>io-qr-code</title>
<path fill="#ebebeb" d="M25.5 25h4c0.276 0 0.5 0.224 0.5 0.5v4c0 0.276-0.224 0.5-0.5 0.5h-4c-0.276 0-0.5-0.224-0.5-0.5v-4c0-0.276 0.224-0.5 0.5-0.5z"></path>
<path fill="#ebebeb" d="M21.5 21h3c0.276 0 0.5 0.224 0.5 0.5v3c0 0.276-0.224 0.5-0.5 0.5h-3c-0.276 0-0.5-0.224-0.5-0.5v-3c0-0.276 0.224-0.5 0.5-0.5z"></path>
<path fill="#ebebeb" d="M30.5 30h3c0.276 0 0.5 0.224 0.5 0.5v3c0 0.276-0.224 0.5-0.5 0.5h-3c-0.276 0-0.5-0.224-0.5-0.5v-3c0-0.276 0.224-0.5 0.5-0.5z"></path>
<path fill="#ebebeb" d="M31.5 21h2c0.276 0 0.5 0.224 0.5 0.5v2c0 0.276-0.224 0.5-0.5 0.5h-2c-0.276 0-0.5-0.224-0.5-0.5v-2c0-0.276 0.224-0.5 0.5-0.5z"></path>
<path fill="#ebebeb" d="M21.5 31h2c0.276 0 0.5 0.224 0.5 0.5v2c0 0.276-0.224 0.5-0.5 0.5h-2c-0.276 0-0.5-0.224-0.5-0.5v-2c0-0.276 0.224-0.5 0.5-0.5z"></path>
<path fill="#ebebeb" d="M32 6h-9c-1.105 0-2 0.895-2 2v0 9c0 1.105 0.895 2 2 2v0h9c1.105 0 2-0.895 2-2v0-9c0-1.105-0.895-2-2-2v0zM30 14.5c0 0.276-0.224 0.5-0.5 0.5v0h-4c-0.276 0-0.5-0.224-0.5-0.5v0-4c0-0.276 0.224-0.5 0.5-0.5v0h4c0.276 0 0.5 0.224 0.5 0.5v0z"></path>
<path fill="#ebebeb" d="M17 6h-9c-1.105 0-2 0.895-2 2v0 9c0 1.105 0.895 2 2 2v0h9c1.105 0 2-0.895 2-2v0-9c0-1.105-0.895-2-2-2v0zM15 14.5c0 0.276-0.224 0.5-0.5 0.5v0h-4c-0.276 0-0.5-0.224-0.5-0.5v0-4c0-0.276 0.224-0.5 0.5-0.5v0h4c0.276 0 0.5 0.224 0.5 0.5v0z"></path>
<path fill="#ebebeb" d="M17 21h-9c-1.105 0-2 0.895-2 2v0 9c0 1.105 0.895 2 2 2v0h9c1.105 0 2-0.895 2-2v0-9c0-1.105-0.895-2-2-2v0zM15 29.5c0 0.276-0.224 0.5-0.5 0.5v0h-4c-0.276 0-0.5-0.224-0.5-0.5v0-4c0-0.276 0.224-0.5 0.5-0.5v0h4c0.276 0 0.5 0.224 0.5 0.5v0z"></path>
</svg>
