<!-- Generated by IcoMoon.io -->
<svg version="1.1" xmlns="http://www.w3.org/2000/svg" width="40" height="40" viewBox="0 0 40 40">
<title>io-rainy-sharp</title>
<path fill="#ebebeb" d="M26.75 25h-14.625c-1.844 0-3.433-0.489-4.596-1.415-1.327-1.058-2.029-2.626-2.029-4.535 0-1.666 0.63-3.112 1.821-4.182 0.953-0.855 2.261-1.451 3.688-1.678v0c0.004 0 0.005 0 0.006-0.003 0.402-2.437 1.489-4.506 3.144-5.98 1.54-1.37 3.58-2.208 5.816-2.208 0.009 0 0.018 0 0.027 0h-0.001c1.889 0 3.655 0.587 5.107 1.698 1.251 0.978 2.224 2.257 2.814 3.731l0.021 0.060c1.838 0.301 3.42 1.069 4.574 2.221 1.296 1.296 1.984 3.021 1.984 4.989 0 2.053-0.821 3.929-2.313 5.282-1.431 1.301-3.362 2.018-5.437 2.018z"></path>
<path fill="#ebebeb" d="M9.864 30.901l3.109-4.664 1.664 1.109-3.109 4.664-1.664-1.109z"></path>
<path fill="#ebebeb" d="M12.864 33.902l5.109-7.664 1.664 1.109-5.109 7.664-1.664-1.109z"></path>
<path fill="#ebebeb" d="M19.863 30.901l3.109-4.664 1.664 1.109-3.109 4.664-1.664-1.109z"></path>
<path fill="#ebebeb" d="M22.863 33.902l5.109-7.664 1.664 1.109-5.109 7.664-1.664-1.109z"></path>
</svg>
