<!-- Generated by IcoMoon.io -->
<svg version="1.1" xmlns="http://www.w3.org/2000/svg" width="40" height="40" viewBox="0 0 40 40">
<title>io-recording-sharp</title>
<path fill="#ebebeb" d="M28 12.625c-0.001 0-0.003 0-0.005 0-4.071 0-7.371 3.3-7.371 7.371 0 1.76 0.617 3.376 1.646 4.643l-0.011-0.014h-4.52c1.016-1.253 1.63-2.867 1.63-4.625 0-4.073-3.302-7.375-7.375-7.375s-7.375 3.302-7.375 7.375c0 4.073 3.302 7.375 7.375 7.375 0.002 0 0.003 0 0.005 0h16c4.073 0 7.375-3.302 7.375-7.375s-3.302-7.375-7.375-7.375v0zM7.375 20c0-2.554 2.071-4.625 4.625-4.625s4.625 2.071 4.625 4.625c0 2.554-2.071 4.625-4.625 4.625v0c-2.553-0.003-4.622-2.072-4.625-4.625v-0zM28 24.625c-2.554 0-4.625-2.071-4.625-4.625s2.071-4.625 4.625-4.625c2.554 0 4.625 2.071 4.625 4.625v0c-0.003 2.553-2.072 4.622-4.625 4.625h-0z"></path>
</svg>
