<!-- Generated by IcoMoon.io -->
<svg version="1.1" xmlns="http://www.w3.org/2000/svg" width="40" height="40" viewBox="0 0 40 40">
<title>io-receipt</title>
<path fill="#ebebeb" d="M34.239 6.028c-0.071-0.018-0.152-0.028-0.235-0.028-0.17 0-0.331 0.042-0.472 0.116l0.006-0.003-1.537 0.768-1.55-0.775c-0.13-0.067-0.284-0.106-0.447-0.106s-0.317 0.039-0.453 0.108l0.006-0.003-1.569 0.776-1.549-0.776c-0.131-0.067-0.285-0.106-0.449-0.106s-0.318 0.039-0.454 0.109l0.006-0.003-1.54 0.773-1.528-0.771c-0.132-0.068-0.287-0.108-0.452-0.108-0.162 0-0.315 0.039-0.45 0.107l0.006-0.003-1.575 0.778-1.55-0.777c-0.131-0.067-0.285-0.106-0.448-0.106s-0.317 0.039-0.454 0.108l0.006-0.003-1.554 0.776-1.553-0.776c-0.131-0.067-0.285-0.106-0.448-0.106-0.305 0-0.577 0.136-0.761 0.351l-0.001 0.001c-0.148 0.175-0.238 0.404-0.238 0.653 0 0.004 0 0.009 0 0.014v-0.001 14.982cl0.003 0.003h11.997c1.105 0 2 0.895 2 2v0 6.497c0 1.933 2.067 3.5 4 3.5h0.75c1.795 0 3.25-1.455 3.25-3.25v0-23.75c0-0 0-0.001 0-0.001 0-0.468-0.321-0.86-0.754-0.97l-0.007-0.001zM30 19h-7.969c-0.54 0-1.006-0.415-1.030-0.955-0.001-0.013-0.001-0.029-0.001-0.045 0-0.552 0.448-1 1-1h7.969c0.54 0 1.006 0.415 1.030 0.955 0.001 0.013 0.001 0.029 0.001 0.045 0 0.552-0.448 1-1 1v0zM30 14h-11.969c-0.54 0-1.006-0.415-1.030-0.955-0.001-0.013-0.001-0.029-0.001-0.045 0-0.552 0.448-1 1-1h11.969c0.54 0 1.006 0.415 1.030 0.955 0.001 0.013 0.001 0.029 0.001 0.045 0 0.552-0.448 1-1 1v0z"></path>
<path fill="#ebebeb" d="M25 30.5v-5.5c0-0.552-0.448-1-1-1v0h-17c-1.104 0.004-1.998 0.899-2 2.003v0c0 3.159 0.361 4.473 0.904 5.473 0.921 1.698 2.587 2.524 5.096 2.524h15.355c0 0 0 0 0 0 0.138 0 0.25-0.112 0.25-0.25 0-0.068-0.028-0.131-0.072-0.176l0 0c-0.591-0.593-1.533-1.387-1.533-3.074z"></path>
</svg>
