<!-- Generated by IcoMoon.io -->
<svg version="1.1" xmlns="http://www.w3.org/2000/svg" width="40" height="40" viewBox="0 0 40 40">
<title>io-ribbon-outline</title>
<path fill="none" stroke-linejoin="round" stroke-linecap="round" stroke-miterlimit="4" stroke-width="2.5" stroke="#ebebeb" d="M28 14c0 4.418-3.582 8-8 8s-8-3.582-8-8c0-4.418 3.582-8 8-8s8 3.582 8 8z"></path>
<path fill="none" stroke-linejoin="round" stroke-linecap="round" stroke-miterlimit="4" stroke-width="2.5" stroke="#ebebeb" d="M12.978 18.239l-5.978 10.761 5.429-0.026c0.001 0 0.003 0 0.005 0 0.363 0 0.681 0.194 0.856 0.483l0.002 0.004 2.708 4.539 5.521-12.145"></path>
<path fill="none" stroke-linejoin="round" stroke-linecap="round" stroke-miterlimit="4" stroke-width="2.5" stroke="#ebebeb" d="M26.909 18l6.091 11-5.429-0.026c-0.001 0-0.003 0-0.005 0-0.363 0-0.681 0.194-0.856 0.483l-0.002 0.004-2.707 4.539-4-8.8"></path>
<path fill="none" stroke-linejoin="round" stroke-linecap="round" stroke-miterlimit="4" stroke-width="2.5" stroke="#ebebeb" d="M24 14c0 2.209-1.791 4-4 4s-4-1.791-4-4c0-2.209 1.791-4 4-4s4 1.791 4 4z"></path>
</svg>
