<!-- Generated by IcoMoon.io -->
<svg version="1.1" xmlns="http://www.w3.org/2000/svg" width="40" height="40" viewBox="0 0 40 40">
<title>io-ribbon</title>
<path fill="#ebebeb" d="M20.813 24.976q-0.396 0.029-0.799 0.029c-0.327 0-0.65-0.015-0.969-0.043-3.299-0.301-6.144-2.016-7.957-4.526l-0.022-0.032c-0.046-0.065-0.12-0.106-0.205-0.106-0.093 0-0.175 0.051-0.218 0.127l-0.001 0.001-4.5 8.087c-0.171 0.313-0.198 0.688-0.018 0.992 0.188 0.299 0.516 0.495 0.889 0.495h4.875c0.011-0 0.023-0.001 0.035-0.001 0.344 0 0.645 0.182 0.814 0.455l0.002 0.004 2.416 4.042c0.177 0.297 0.495 0.494 0.859 0.5h0.001c0.371-0.021 0.756-0.262 0.91-0.6l4.132-9.072c0.014-0.030 0.022-0.066 0.022-0.103 0-0.138-0.112-0.25-0.25-0.25-0.006 0-0.012 0-0.018 0.001l0.001-0z"></path>
<path fill="#ebebeb" d="M33.852 28.492l-4.471-8.073c-0.044-0.076-0.125-0.127-0.218-0.127-0.084 0-0.158 0.041-0.203 0.104l-0.001 0.001c-1.226 1.704-2.887 3.025-4.821 3.812l-0.074 0.027c-0.243 0.098-0.435 0.28-0.542 0.509l-0.003 0.006-2.304 5.069c-0.028 0.061-0.045 0.131-0.045 0.206s0.017 0.146 0.046 0.209l-0.001-0.003 1.892 4.162c0.153 0.338 0.537 0.585 0.907 0.606v0c0.365-0.009 0.681-0.209 0.854-0.503l0.003-0.005 2.408-4.036c0.181-0.303 0.508-0.458 0.861-0.456h4.923c0.417 0 0.733-0.217 0.875-0.625 0.037-0.103 0.058-0.222 0.058-0.346 0-0.198-0.054-0.383-0.149-0.541l0.003 0.005z"></path>
<path fill="#ebebeb" d="M23.017 14c0 1.657-1.343 3-3.001 3s-3.001-1.343-3.001-3c0-1.657 1.343-3 3.001-3s3.001 1.343 3.001 3z"></path>
<path fill="#ebebeb" d="M20.016 5c-4.964 0-9 4.037-9 9s4.038 9 9 9 9-4.038 9-9-4.037-9-9-9zM20.016 19c-2.761 0-5-2.239-5-5s2.239-5 5-5c2.761 0 5 2.239 5 5v0c-0.004 2.76-2.24 4.996-5 5h-0z"></path>
</svg>
