<!-- Generated by IcoMoon.io -->
<svg version="1.1" xmlns="http://www.w3.org/2000/svg" width="40" height="40" viewBox="0 0 40 40">
<title>io-server</title>
<path fill="#ebebeb" d="M20 30.75c-3.272 0-6.962-0.726-9.871-1.938-1.067-0.449-1.981-1.176-2.727-1.75-0.042-0.032-0.094-0.051-0.152-0.051-0.138 0-0.25 0.112-0.25 0.25 0 0 0 0 0 0v0 0.786c0 1.754 1.468 3.326 4.134 4.426 2.384 0.984 5.533 1.526 8.866 1.526s6.481-0.542 8.866-1.526c2.666-1.099 4.134-2.672 4.134-4.426v-0.786c0-0 0-0 0-0 0-0.138-0.112-0.25-0.25-0.25-0.057 0-0.11 0.019-0.152 0.052l0.001-0c-0.747 0.573-1.661 1.301-2.728 1.75-2.909 1.212-6.598 1.938-9.87 1.938z"></path>
<path fill="#ebebeb" d="M33 11.907c-0.051-1.728-1.511-3.275-4.125-4.366-2.391-0.994-5.541-1.541-8.875-1.541s-6.484 0.548-8.869 1.541c-2.611 1.088-4.072 2.632-4.125 4.356l-0.006 1.103c0 0.401 0.325 1.030 0.914 1.546 0.696 0.608 1.728 1.208 2.986 1.733 2.677 1.119 6.079 1.784 9.099 1.784s6.423-0.668 9.099-1.786c1.258-0.525 2.291-1.125 2.986-1.733 0.589-0.513 0.914-1.142 0.914-1.543z"></path>
<path fill="#ebebeb" d="M29.87 18.125c-2.908 1.214-6.598 1.938-9.87 1.938s-6.962-0.723-9.871-1.938c-1.067-0.447-1.981-1.174-2.727-1.75-0.042-0.032-0.094-0.051-0.152-0.051-0.138 0-0.25 0.112-0.25 0.25 0 0.001 0 0.002 0 0.003v-0 1.924c0 0.401 0.325 0.905 0.914 1.421 0.696 0.609 1.728 1.208 2.986 1.734 2.677 1.117 6.079 1.783 9.099 1.783s6.422-0.667 9.099-1.786c1.258-0.526 2.291-1.125 2.986-1.734 0.589-0.514 0.914-1.017 0.914-1.418v-1.924c0-0 0-0 0-0 0-0.138-0.112-0.25-0.25-0.25-0.057 0-0.11 0.019-0.152 0.052l0.001-0c-0.747 0.573-1.661 1.301-2.728 1.747z"></path>
<path fill="#ebebeb" d="M29.87 23.5c-2.909 1.213-6.598 1.938-9.87 1.938s-6.962-0.724-9.871-1.938c-1.067-0.448-1.981-1.176-2.727-1.75-0.042-0.032-0.094-0.051-0.152-0.051-0.138 0-0.25 0.112-0.25 0.25 0 0.001 0 0.001 0 0.001v-0 1.863c0 0.401 0.325 0.904 0.914 1.419 0.696 0.609 1.729 1.208 2.987 1.734 2.677 1.117 6.078 1.784 9.099 1.784s6.422-0.667 9.099-1.786c1.258-0.526 2.291-1.125 2.986-1.734 0.589-0.516 0.914-1.020 0.914-1.418v-1.863c0-0 0-0 0-0 0-0.138-0.112-0.25-0.25-0.25-0.057 0-0.11 0.019-0.152 0.052l0.001-0c-0.747 0.573-1.661 1.301-2.728 1.749z"></path>
</svg>
