<!-- Generated by IcoMoon.io -->
<svg version="1.1" xmlns="http://www.w3.org/2000/svg" width="40" height="40" viewBox="0 0 40 40">
<title>io-storefront-sharp</title>
<path fill="#ebebeb" d="M33 32v-11.259c-0.621 0.239-1.338 0.388-2.088 0.411l-0.010 0c-0.074 0-0.144 0.003-0.213 0.003-0.005 0-0.012 0-0.018 0-1.308 0-2.53-0.372-3.564-1.017l0.029 0.017c-1.006 0.628-2.227 1-3.536 1-0.006 0-0.012 0-0.019-0h0.001c-0.003 0-0.006 0-0.009 0-1.306 0-2.523-0.377-3.55-1.029l0.027 0.016c-1.009 0.636-2.237 1.013-3.553 1.013-0.008 0-0.015 0-0.023-0h0.001c-0.003 0-0.006 0-0.009 0-1.315 0-2.54-0.382-3.571-1.042l0.027 0.016c-1.004 0.644-2.23 1.026-3.544 1.026-0.003 0-0.006 0-0.009 0h0.001c-0.068 0-0.137 0-0.211-0.003h-0.004c-0.781-0.024-1.518-0.181-2.2-0.449l0.044 0.015v11.282h-2v2h30v-2zM18 28h-6v-4.75c0-0.138 0.112-0.25 0.25-0.25v0h5.5c0.138 0 0.25 0.112 0.25 0.25v0zM28 32h-5v-8.75c0-0.138 0.112-0.25 0.25-0.25v0h4.5c0.138 0 0.25 0.112 0.25 0.25v0z"></path>
<path fill="#ebebeb" d="M34.786 14.643l-2.917-6.643c-0.868-2-0.868-2-2.868-2h-18c-2 0-2 0-2.871 2l-2.918 6.643c-0.563 1.213 0.181 2.459 0.181 2.459l0.026 0.041c0.026 0.041 0.071 0.109 0.101 0.148 0.006 0.008 0.012 0.017 0.018 0.025l0.328 0.399 0.332 0.321 0.026 0.023c0.174 0.149 0.367 0.289 0.571 0.413l0.019 0.011v0.003c0.642 0.395 1.415 0.64 2.243 0.667l0.007 0c0.051 0 0.102 0 0.154 0 0.003 0 0.006 0 0.009 0 1.251 0 2.388-0.483 3.237-1.272l-0.003 0.003c0.127-0.118 0.245-0.24 0.356-0.369l0.005-0.006c0.116 0.134 0.234 0.257 0.358 0.372l0.003 0.003c0.846 0.787 1.984 1.269 3.234 1.269 0.003 0 0.006 0 0.009 0h-0c1.455 0 2.754-0.625 3.602-1.598 0.001-0.001 0.003-0.002 0.005-0.002s0.003 0.001 0.005 0.002v0l0.354 0.329c0.846 0.787 1.984 1.269 3.235 1.269 0.003 0 0.006 0 0.010 0h-0.001c1.456 0 2.757-0.625 3.604-1.601 0.848 0.976 2.148 1.601 3.604 1.601h0.156c0.814-0.031 1.565-0.276 2.206-0.68l-0.019 0.011c0.059-0.036 0.116-0.073 0.174-0.111 0.449-0.305 0.827-0.675 1.132-1.1l0.009-0.013 0.125-0.188c0.056-0.128 0.701-1.269 0.161-2.431z"></path>
</svg>
