<!-- Generated by IcoMoon.io -->
<svg version="1.1" xmlns="http://www.w3.org/2000/svg" width="40" height="40" viewBox="0 0 40 40">
<title>io-sync-circle</title>
<path fill="#ebebeb" d="M20 7c-7.179 0-13 5.821-13 13s5.821 13 13 13 13-5.821 13-13-5.821-13-13-13zM25.231 24.666c-1.29 1.435-3.152 2.333-5.224 2.333-3.574 0-6.524-2.673-6.96-6.13l-0.004-0.035c-0.155 0.104-0.346 0.166-0.552 0.166-0.552 0-1-0.448-1-1 0-0.277 0.112-0.527 0.294-0.708l1.475-1.475c0.181-0.181 0.431-0.293 0.707-0.293 0.268 0 0.512 0.106 0.691 0.278l-0-0 1.542 1.475c0.192 0.183 0.312 0.44 0.312 0.725 0 0.552-0.448 1-1 1-0.159 0-0.309-0.037-0.442-0.103l0.006 0.003c0.448 2.348 2.485 4.099 4.931 4.099 1.483 0 2.816-0.644 3.735-1.668l0.004-0.005c0.183-0.193 0.441-0.313 0.727-0.313 0.552 0 1 0.448 1 1 0 0.249-0.091 0.477-0.242 0.652l0.001-0.001zM28.216 20.707l-1.475 1.475c-0.181 0.181-0.431 0.293-0.707 0.293-0.268 0-0.512-0.106-0.691-0.278l0 0-1.542-1.475c-0.189-0.182-0.307-0.438-0.307-0.72 0-0.552 0.448-1 1-1 0.149 0 0.291 0.033 0.418 0.091l-0.006-0.003c-0.449-2.344-2.483-4.091-4.925-4.091-1.479 0-2.809 0.641-3.726 1.661l-0.004 0.005c-0.184 0.204-0.449 0.332-0.744 0.332-0.552 0-1-0.448-1-1 0-0.257 0.097-0.492 0.256-0.669l-0.001 0.001c1.289-1.433 3.149-2.33 5.219-2.33 3.578 0 6.531 2.681 6.958 6.144l0.003 0.034c0.158-0.109 0.353-0.174 0.563-0.174 0.552 0 1 0.448 1 1 0 0.274-0.11 0.523-0.289 0.703l0-0z"></path>
</svg>
