<!-- Generated by IcoMoon.io -->
<svg version="1.1" xmlns="http://www.w3.org/2000/svg" width="40" height="40" viewBox="0 0 40 40">
<title>io-shield-checkmark</title>
<path fill="#ebebeb" d="M33.942 10.96c-0.030-0.463-0.372-0.839-0.816-0.92l-0.006-0.001c-5.406-0.97-7.663-1.671-12.708-3.95-0.121-0.056-0.263-0.089-0.412-0.089s-0.291 0.033-0.418 0.091l0.006-0.003c-5.045 2.279-7.302 2.98-12.708 3.95-0.45 0.083-0.792 0.458-0.822 0.918l-0 0.003c-0.241 3.819 0.272 7.378 1.527 10.578 1.089 2.725 2.604 5.060 4.486 7.041l-0.009-0.009c3.342 3.546 6.89 5.086 7.567 5.358 0.111 0.046 0.24 0.073 0.375 0.073s0.264-0.027 0.382-0.075l-0.007 0.002c0.677-0.273 4.225-1.813 7.567-5.358 1.87-1.973 3.382-4.307 4.417-6.885l0.052-0.147c1.254-3.199 1.768-6.758 1.527-10.578zM25.754 15.654l-6.925 8c-0.175 0.202-0.428 0.333-0.711 0.346l-0.002 0h-0.041c-0 0-0 0-0 0-0.272 0-0.52-0.109-0.7-0.286l0 0-3.075-3.012c-0.185-0.182-0.3-0.435-0.3-0.714 0-0.552 0.448-1 1-1 0.273 0 0.52 0.109 0.7 0.286l-0-0 2.313 2.268 6.231-7.196c0.184-0.212 0.455-0.346 0.756-0.346 0.552 0 1 0.448 1 1 0 0.251-0.092 0.48-0.245 0.656l0.001-0.001z"></path>
</svg>
