<!-- Generated by IcoMoon.io -->
<svg version="1.1" xmlns="http://www.w3.org/2000/svg" width="40" height="40" viewBox="0 0 40 40">
<title>io-settings-sharp</title>
<path fill="#ebebeb" d="M20 15c-2.761 0-5 2.239-5 5s2.239 5 5 5c2.761 0 5-2.239 5-5v0c-0.009-2.758-2.242-4.991-4.999-5h-0.001zM30.795 20c-0.003 0.495-0.040 0.979-0.109 1.452l0.007-0.056 3.043 2.382c0.161 0.134 0.263 0.334 0.263 0.559 0 0.135-0.037 0.261-0.101 0.369l0.002-0.003-2.879 4.97c-0.129 0.214-0.361 0.356-0.625 0.356-0.093 0-0.182-0.017-0.263-0.049l0.005 0.002-3.578-1.437c-0.701 0.545-1.5 1.020-2.355 1.389l-0.071 0.028-0.535 3.799c-0.063 0.347-0.359 0.609-0.719 0.616h-5.758c-0.354-0.007-0.647-0.258-0.718-0.591l-0.001-0.005-0.535-3.799c-0.926-0.392-1.726-0.868-2.449-1.435l0.023 0.017-3.578 1.438c-0.077 0.030-0.166 0.048-0.259 0.048-0.264 0-0.496-0.141-0.623-0.352l-0.002-0.003-2.879-4.969c-0.062-0.105-0.099-0.231-0.099-0.365 0-0.224 0.102-0.425 0.262-0.558l0.001-0.001 3.043-2.383c-0.062-0.423-0.099-0.914-0.102-1.413l-0-0.004c0.003-0.495 0.040-0.979 0.109-1.452l-0.007 0.056-3.043-2.383c-0.161-0.134-0.263-0.334-0.263-0.559 0-0.135 0.037-0.261 0.101-0.369l-0.002 0.003 2.879-4.97c0.129-0.214 0.361-0.356 0.625-0.356 0.093 0 0.182 0.017 0.263 0.049l-0.005-0.002 3.578 1.438c0.701-0.545 1.5-1.020 2.355-1.389l0.071-0.028 0.535-3.799c0.063-0.348 0.359-0.609 0.719-0.616h5.758c0.354 0.007 0.647 0.258 0.718 0.591l0.001 0.005 0.535 3.799c0.928 0.392 1.728 0.867 2.452 1.436l-0.023-0.017 3.575-1.438c0.077-0.030 0.166-0.048 0.259-0.048 0.264 0 0.496 0.141 0.623 0.352l0.002 0.003 2.879 4.97c0.062 0.105 0.099 0.231 0.099 0.365 0 0.224-0.102 0.425-0.262 0.558l-0.001 0.001-3.043 2.383c0.062 0.423 0.099 0.913 0.102 1.412l0 0.004z"></path>
</svg>
