<!-- Generated by IcoMoon.io -->
<svg version="1.1" xmlns="http://www.w3.org/2000/svg" width="40" height="40" viewBox="0 0 40 40">
<title>io-subway-sharp</title>
<path fill="#ebebeb" d="M28.5 5h-17c-0.828 0-1.5 0.672-1.5 1.5v0 21c0 0.828 0.672 1.5 1.5 1.5v0h17c0.828 0 1.5-0.672 1.5-1.5v0-21c0-0.828-0.672-1.5-1.5-1.5v0zM17 8h5.972c0.538 0 1 0.414 1.027 0.952 0.001 0.014 0.001 0.031 0.001 0.048 0 0.552-0.448 1-1 1h-5.972c-0.538 0-1-0.414-1.027-0.952-0.001-0.014-0.001-0.031-0.001-0.048 0-0.552 0.448-1 1-1v0zM15.217 25.989c-0.065 0.007-0.14 0.012-0.216 0.012-1.105 0-2-0.895-2-2s0.895-2 2-2c1.105 0 2 0.895 2 2 0 0.076-0.004 0.151-0.013 0.225l0.001-0.009c-0.105 0.934-0.838 1.667-1.763 1.771l-0.009 0.001zM25.217 25.989c-0.065 0.007-0.14 0.012-0.216 0.012-1.105 0-2-0.895-2-2s0.895-2 2-2c1.105 0 2 0.895 2 2 0 0.076-0.004 0.151-0.013 0.225l0.001-0.009c-0.105 0.934-0.838 1.667-1.763 1.771l-0.009 0.001zM28 13v4h-16v-4z"></path>
<path fill="#ebebeb" d="M22.625 30l1.961 2h-9.171l1.961-2h-2.75l-5.036 5h2.825l1-1h13.171l1 1h2.831l-4.979-5h-2.813z"></path>
</svg>
