<!-- Generated by IcoMoon.io -->
<svg version="1.1" xmlns="http://www.w3.org/2000/svg" width="40" height="40" viewBox="0 0 40 40">
<title>io-thumbs-down-sharp</title>
<path fill="#ebebeb" d="M7.5 24l9.753 0.75-1.438 5.587c-0.38 1.663 0.044 2.617 1.399 3.039l2.168 0.616c0.019 0.005 0.041 0.008 0.064 0.008 0.088 0 0.166-0.046 0.21-0.115l0.001-0.001 8.063-12.646c0.089-0.144 0.246-0.238 0.426-0.238h6.854v-13h-7.351c-0 0-0 0-0.001 0-0.339 0-0.665-0.056-0.969-0.16l0.021 0.006-4.769-1.589c-0.472-0.163-1.016-0.257-1.581-0.257h-11.121c-1.188 0-1.969 0.845-2.202 2.010l-2.028 8.891v4.599c0 1.379 1.125 2.375 2.5 2.5z"></path>
<path fill="#ebebeb" d="M27.291 21.448l-0.063 0.125c0.093-0.193 0.238-0.349 0.418-0.451l0.005-0.003c-0.147 0.081-0.268 0.192-0.358 0.325l-0.002 0.004z"></path>
</svg>
