<!-- Generated by IcoMoon.io -->
<svg version="1.1" xmlns="http://www.w3.org/2000/svg" width="40" height="40" viewBox="0 0 40 40">
<title>io-today-sharp</title>
<path fill="#ebebeb" d="M6 32.5c0 0.828 0.672 1.5 1.5 1.5v0h25c0.828 0 1.5-0.672 1.5-1.5v0-17.5h-28zM11 17.571c0-0.316 0.256-0.571 0.571-0.571h6.857c0.316 0 0.571 0.256 0.571 0.571v0 6.858c0 0.316-0.256 0.571-0.571 0.571v0h-6.857c-0.316 0-0.571-0.256-0.571-0.571v0z"></path>
<path fill="#ebebeb" d="M32.5 8h-3.495v-2h-3v2h-12.010v-2h-3v2h-3.495c-0.004-0-0.008-0-0.012-0-0.821 0-1.486 0.665-1.487 1.486v3.514h28v-3.514c-0.001-0.821-0.667-1.486-1.487-1.486-0.004 0-0.009 0-0.013 0h0.001z"></path>
</svg>
