<!-- Generated by IcoMoon.io -->
<svg version="1.1" xmlns="http://www.w3.org/2000/svg" width="40" height="40" viewBox="0 0 40 40">
<title>io-trash-bin-outline</title>
<path fill="none" stroke-linejoin="round" stroke-linecap="round" stroke-miterlimit="4" stroke-width="2.5" stroke="#ebebeb" d="M31 13l-1.792 17.234c-0.121 0.999-0.964 1.766-1.986 1.766h-14.443c-1.022-0-1.865-0.767-1.985-1.757l-0.001-0.010-1.793-17.234"></path>
<path fill="none" stroke-linejoin="round" stroke-linecap="round" stroke-miterlimit="4" stroke-width="2.5" stroke="#ebebeb" d="M7 8h26c0.552 0 1 0.448 1 1v3c0 0.552-0.448 1-1 1h-26c-0.552 0-1-0.448-1-1v-3c0-0.552 0.448-1 1-1z"></path>
<path fill="none" stroke-linejoin="round" stroke-linecap="round" stroke-miterlimit="4" stroke-width="2.5" stroke="#ebebeb" d="M23.5 19l-7 7"></path>
<path fill="none" stroke-linejoin="round" stroke-linecap="round" stroke-miterlimit="4" stroke-width="2.5" stroke="#ebebeb" d="M23.5 26l-7-7"></path>
</svg>
