<!-- Generated by IcoMoon.io -->
<svg version="1.1" xmlns="http://www.w3.org/2000/svg" width="40" height="40" viewBox="0 0 40 40">
<title>io-ticket-outline</title>
<path fill="none" stroke-linejoin="miter" stroke-linecap="butt" stroke-miterlimit="10" stroke-width="2.5" stroke="#ebebeb" d="M26.878 13.125c-0.528-0.528-0.855-1.258-0.855-2.064 0-0.728 0.266-1.393 0.706-1.904l-0.003 0.004c0.036-0.042 0.058-0.097 0.058-0.157 0-0.067-0.027-0.128-0.072-0.172l-0-0-2.758-2.761c-0.044-0.044-0.105-0.071-0.172-0.071s-0.128 0.027-0.172 0.071l-4.396 4.396c-0.158 0.158-0.28 0.351-0.354 0.567l-0.003 0.010c-0.15 0.443-0.492 0.786-0.924 0.934l-0.010 0.003c-0.226 0.077-0.42 0.199-0.578 0.357l-11.274 11.272c-0.044 0.044-0.071 0.105-0.071 0.172s0.027 0.128 0.071 0.172l2.758 2.758c0.044 0.044 0.105 0.072 0.172 0.072 0.060 0 0.115-0.022 0.157-0.058l-0 0c0.507-0.438 1.173-0.704 1.901-0.704 1.612 0 2.918 1.306 2.918 2.918 0 0.728-0.267 1.394-0.708 1.905l0.003-0.004c-0.036 0.042-0.058 0.097-0.058 0.157 0 0.067 0.027 0.128 0.072 0.172l2.758 2.758c0.044 0.044 0.105 0.071 0.172 0.071s0.128-0.027 0.172-0.071l11.275-11.274c0.158-0.158 0.28-0.352 0.354-0.568l0.003-0.010c0.15-0.443 0.492-0.786 0.924-0.934l0.010-0.003c0.226-0.077 0.42-0.199 0.578-0.357l4.396-4.396c0.044-0.044 0.071-0.105 0.071-0.172s-0.027-0.128-0.071-0.172l-2.758-2.758c-0.044-0.044-0.105-0.072-0.172-0.072-0.060 0-0.115 0.022-0.157 0.058l0-0c-0.508 0.439-1.174 0.706-1.904 0.706-0.804 0-1.532-0.325-2.060-0.851l0 0z"></path>
<path fill="none" stroke-linejoin="miter" stroke-linecap="round" stroke-miterlimit="10" stroke-width="2.5" stroke="#ebebeb" d="M19.656 12.777l-1.032-1.032"></path>
<path fill="none" stroke-linejoin="miter" stroke-linecap="round" stroke-miterlimit="10" stroke-width="2.5" stroke="#ebebeb" d="M22.407 15.529l-0.688-0.688"></path>
<path fill="none" stroke-linejoin="miter" stroke-linecap="round" stroke-miterlimit="10" stroke-width="2.5" stroke="#ebebeb" d="M25.159 18.281l-0.688-0.688"></path>
<path fill="none" stroke-linejoin="miter" stroke-linecap="round" stroke-miterlimit="10" stroke-width="2.5" stroke="#ebebeb" d="M28.254 21.376l-1.032-1.032"></path>
</svg>
