<!-- Generated by IcoMoon.io -->
<svg version="1.1" xmlns="http://www.w3.org/2000/svg" width="40" height="40" viewBox="0 0 40 40">
<title>io-trail-sign</title>
<path fill="#ebebeb" d="M34.707 24.293l-3.707-3.707c-0.36-0.362-0.858-0.586-1.409-0.586-0.002 0-0.004 0-0.006 0h-8.585v-2h9c1.105 0 2-0.895 2-2v0-6c0-1.105-0.895-2-2-2v0h-9v-1c0-0.552-0.448-1-1-1s-1 0.448-1 1v0 1h-8.586c-0.002 0-0.004 0-0.006 0-0.551 0-1.049 0.224-1.409 0.586l-3.707 3.708c-0.181 0.181-0.293 0.431-0.293 0.707s0.112 0.526 0.293 0.707l3.707 3.708c0.36 0.362 0.858 0.586 1.409 0.586 0.002 0 0.004 0 0.006 0h8.585v2h-9c-1.105 0-2 0.895-2 2v0 6c0 1.105 0.895 2 2 2v0h9v3c0 0.552 0.448 1 1 1s1-0.448 1-1v0-3h8.586c0.002 0 0.004 0 0.006 0 0.551 0 1.049-0.224 1.409-0.586l3.707-3.708c0.181-0.181 0.293-0.431 0.293-0.707s-0.112-0.526-0.293-0.707v0z"></path>
</svg>
