<!-- Generated by IcoMoon.io -->
<svg version="1.1" xmlns="http://www.w3.org/2000/svg" width="40" height="40" viewBox="0 0 40 40">
<title>io-trash-outline</title>
<path fill="none" stroke-linejoin="round" stroke-linecap="round" stroke-miterlimit="4" stroke-width="2.5" stroke="#ebebeb" d="M11 11l1.25 20c0.059 1.156 0.9 2 2 2h11.5c1.104 0 1.929-0.844 2-2l1.25-20"></path>
<path stroke-linejoin="miter" stroke-linecap="round" stroke-miterlimit="10" stroke-width="2.5" stroke="#ebebeb" fill="#ebebeb" d="M9 11h22"></path>
<path fill="none" stroke-linejoin="round" stroke-linecap="round" stroke-miterlimit="4" stroke-width="2.5" stroke="#ebebeb" d="M16 11v-2.5c0-0.001 0-0.003 0-0.004 0-0.826 0.67-1.496 1.496-1.496 0.002 0 0.003 0 0.005 0h5c0.001 0 0.003 0 0.004 0 0.826 0 1.496 0.67 1.496 1.496 0 0.002 0 0.003 0 0.005v-0 2.5"></path>
<path fill="none" stroke-linejoin="round" stroke-linecap="round" stroke-miterlimit="4" stroke-width="2.5" stroke="#ebebeb" d="M20 15v14"></path>
<path fill="none" stroke-linejoin="round" stroke-linecap="round" stroke-miterlimit="4" stroke-width="2.5" stroke="#ebebeb" d="M15.5 15l0.5 14"></path>
<path fill="none" stroke-linejoin="round" stroke-linecap="round" stroke-miterlimit="4" stroke-width="2.5" stroke="#ebebeb" d="M24.5 15l-0.5 14"></path>
</svg>
