<!-- Generated by IcoMoon.io -->
<svg version="1.1" xmlns="http://www.w3.org/2000/svg" width="40" height="40" viewBox="0 0 40 40">
<title>io-tennisball</title>
<path fill="#ebebeb" d="M32 20c0.706-0 1.399-0.061 2.072-0.178l-0.072 0.010c-0.093-7.602-6.231-13.739-13.824-13.832l-0.009-0c-0.107 0.601-0.167 1.294-0.168 2v0c0 6.617 5.383 12 12 12z"></path>
<path fill="#ebebeb" d="M19.834 34c0.059-0.354 0.103-0.712 0.131-1.074 0.023-0.305 0.035-0.616 0.035-0.924 0-6.617-5.383-12-12-12-0.706 0-1.399 0.061-2.072 0.178l0.072-0.010c0.094 7.601 6.233 13.738 13.826 13.831l0.009 0z"></path>
<path fill="#ebebeb" d="M22.101 17.899c-2.533-2.52-4.101-6.007-4.101-9.862 0-0.013 0-0.027 0-0.040v0.002c0-0.661 0.045-1.312 0.133-1.949l-0.008 0.074c-6.246 0.87-11.13 5.754-11.992 11.926l-0.008 0.074c0.563-0.080 1.214-0.125 1.875-0.125h0c0.011-0 0.025-0 0.038-0 3.854 0 7.342 1.568 9.861 4.1l0.001 0.001c2.533 2.52 4.101 6.007 4.101 9.862 0 0.013-0 0.027-0 0.040v-0.002c0 0.359-0.014 0.721-0.041 1.076q-0.031 0.401-0.085 0.799c6.246-0.87 11.131-5.754 11.992-11.927l0.008-0.074c-0.563 0.080-1.214 0.125-1.875 0.125h-0c-0.011 0-0.025 0-0.038 0-3.854 0-7.342-1.568-9.861-4.1l-0.001-0.001z"></path>
</svg>
