<!-- Generated by IcoMoon.io -->
<svg version="1.1" xmlns="http://www.w3.org/2000/svg" width="40" height="40" viewBox="0 0 40 40">
<title>io-umbrella-outline</title>
<path fill="none" stroke-linejoin="round" stroke-linecap="round" stroke-miterlimit="4" stroke-width="2.5" stroke="#ebebeb" d="M20 21v10c0 1.105-0.895 2-2 2v0 0c-1.105 0-2-0.895-2-2v0"></path>
<path fill="none" stroke-linejoin="round" stroke-linecap="round" stroke-miterlimit="4" stroke-width="2.5" stroke="#ebebeb" d="M33 21c0-7.18-5.82-13-13-13s-13 5.82-13 13v0c0.768-0.768 1.828-1.243 3-1.243s2.232 0.475 3 1.243v0c0.885-0.885 2.108-1.433 3.459-1.433 1.107 0 2.128 0.368 2.948 0.987l-0.012-0.009 0.606 0.454 0.606-0.454c0.807-0.611 1.828-0.978 2.935-0.978 1.351 0 2.574 0.547 3.459 1.433v0c0.768-0.768 1.828-1.243 3-1.243s2.232 0.475 3 1.243v0z"></path>
<path fill="none" stroke-linejoin="round" stroke-linecap="round" stroke-miterlimit="4" stroke-width="2.5" stroke="#ebebeb" d="M20 8v-1"></path>
</svg>
