<!-- Generated by IcoMoon.io -->
<svg version="1.1" xmlns="http://www.w3.org/2000/svg" width="40" height="40" viewBox="0 0 40 40">
<title>io-warning</title>
<path fill="#ebebeb" d="M32.067 28.942l-10.652-19.781c-0.755-1.402-2.766-1.402-3.522 0l-10.651 19.781c-0.151 0.274-0.239 0.601-0.239 0.948 0 1.104 0.894 1.998 1.997 2h21.306c0 0 0 0 0 0 1.105 0 2-0.895 2-2 0-0.347-0.089-0.674-0.244-0.959l0.005 0.010zM19.654 28.828c-0.69 0-1.25-0.56-1.25-1.25s0.56-1.25 1.25-1.25c0.69 0 1.25 0.56 1.25 1.25v0c0 0.69-0.56 1.25-1.25 1.25v0zM21.012 16.256l-0.359 7.625c0 0.552-0.448 1-1 1s-1-0.448-1-1v0l-0.359-7.622c-0.001-0.018-0.001-0.039-0.001-0.060 0-0.746 0.601-1.351 1.344-1.358h0.014c0 0 0 0 0.001 0 0.75 0 1.359 0.608 1.359 1.359 0 0.021-0 0.042-0.001 0.063l0-0.003z"></path>
</svg>
