<!-- Generated by IcoMoon.io -->
<svg version="1.1" xmlns="http://www.w3.org/2000/svg" width="24" height="24" viewBox="0 0 24 24">
<title>k_plus6</title>
<path fill="#ebebeb" d="M18.413 12.413v-0.825h-1.2v-1.2h-0.825v1.2h-1.2v0.825h1.2v1.2h0.825v-1.2h1.2zM15.188 14.4l-1.8-2.4 1.8-2.4h-1.388l-1.388 1.8v-1.8h-1.2v4.8h1.2v-1.8l1.388 1.8h1.388zM8.813 14.4l1.163-3.75q0.112-0.375-0.131-0.712t-0.656-0.337h-2.775v1.2h2.1l-1.125 3.6h1.425zM17.587 4.8q0.638 0 1.125 0.487t0.488 1.125v11.175q0 0.637-0.488 1.125t-1.125 0.488h-11.175q-0.638 0-1.125-0.488t-0.488-1.125v-11.175q0-0.637 0.488-1.125t1.125-0.487h11.175z"></path>
</svg>
