<!-- Generated by IcoMoon.io -->
<svg version="1.1" xmlns="http://www.w3.org/2000/svg" width="24" height="24" viewBox="0 0 24 24">
<title>k_plus1</title>
<path fill="#ebebeb" d="M18.413 12.413v-0.825h-1.2v-1.2h-0.825v1.2h-1.2v0.825h1.2v1.2h0.825v-1.2h1.2zM13.8 14.4h1.388l-1.8-2.4 1.8-2.4h-1.388l-1.388 1.8v-1.8h-1.2v4.8h1.2v-1.8zM10.012 11.587v-1.2q0-0.337-0.244-0.563t-0.581-0.225h-2.775v1.2h2.4v0.787h-1.613q-0.337 0-0.563 0.244t-0.225 0.581v1.987h3.6v-1.2h-2.4v-0.788h1.575q0.338 0 0.581-0.244t0.244-0.581zM17.587 4.8q0.638 0 1.125 0.487t0.488 1.125v11.175q0 0.637-0.488 1.125t-1.125 0.488h-11.175q-0.638 0-1.125-0.488t-0.488-1.125v-11.175q0-0.637 0.488-1.125t1.125-0.487h11.175z"></path>
</svg>
