<!-- Generated by IcoMoon.io -->
<svg version="1.1" xmlns="http://www.w3.org/2000/svg" width="24" height="24" viewBox="0 0 24 24">
<title>k_plus</title>
<path fill="#ebebeb" d="M18 12.413v-0.825h-1.2v-1.2h-0.787v1.2h-1.2v0.825h1.2v1.2h0.787v-1.2h1.2zM13.388 14.4h1.425l-1.8-2.4 1.8-2.4h-1.425l-1.388 1.8v-1.8h-1.2v4.8h1.2v-1.8zM9.6 14.4v-4.8h-2.4v1.2h1.2v3.6h1.2zM17.587 4.8q0.638 0 1.125 0.487t0.488 1.125v11.175q0 0.637-0.488 1.125t-1.125 0.488h-11.175q-0.638 0-1.125-0.488t-0.488-1.125v-11.175q0-0.637 0.488-1.125t1.125-0.487h11.175z"></path>
</svg>
