<!-- Generated by IcoMoon.io -->
<svg version="1.1" xmlns="http://www.w3.org/2000/svg" width="24" height="24" viewBox="0 0 24 24">
<title>laptop_mac</title>
<path fill="#ebebeb" d="M12 17.587q0.337 0 0.563-0.225t0.225-0.563-0.225-0.563-0.563-0.225-0.563 0.225-0.225 0.563 0.225 0.563 0.563 0.225zM5.588 6.413v8.775h12.825v-8.775h-12.825zM18.413 16.8h3.188q0 0.638-0.488 1.125t-1.125 0.488h-15.975q-0.637 0-1.125-0.488t-0.487-1.125h3.187q-0.637 0-1.106-0.487t-0.469-1.125v-8.775q0-0.638 0.469-1.125t1.106-0.487h12.825q0.638 0 1.106 0.487t0.469 1.125v8.775q0 0.638-0.469 1.125t-1.106 0.487z"></path>
</svg>
