<!-- Generated by IcoMoon.io -->
<svg version="1.1" xmlns="http://www.w3.org/2000/svg" width="40" height="40" viewBox="0 0 40 40">
<title>li-basic_server2</title>
<path fill="none" stroke-linejoin="bevel" stroke-linecap="butt" stroke-miterlimit="10" stroke-width="1.25" stroke="#ebebeb" d="M33.5 32c0 1.933-5.821 3.5-13 3.5s-13-1.567-13-3.5"></path>
<path fill="none" stroke-linejoin="bevel" stroke-linecap="butt" stroke-miterlimit="10" stroke-width="1.25" stroke="#ebebeb" d="M33.5 24c0 1.933-5.821 3.5-13 3.5s-13-1.567-13-3.5"></path>
<path fill="none" stroke-linejoin="bevel" stroke-linecap="butt" stroke-miterlimit="10" stroke-width="1.25" stroke="#ebebeb" d="M33.5 16c0 1.933-5.821 3.5-13 3.5s-13-1.567-13-3.5"></path>
<path fill="none" stroke-linejoin="bevel" stroke-linecap="butt" stroke-miterlimit="10" stroke-width="1.25" stroke="#ebebeb" d="M33.5 8c0 1.933-5.82 3.5-13 3.5s-13-1.567-13-3.5c0-1.933 5.82-3.5 13-3.5s13 1.567 13 3.5z"></path>
<path fill="none" stroke-linejoin="bevel" stroke-linecap="butt" stroke-miterlimit="10" stroke-width="1.25" stroke="#ebebeb" d="M7.5 8v24"></path>
<path fill="none" stroke-linejoin="bevel" stroke-linecap="butt" stroke-miterlimit="10" stroke-width="1.25" stroke="#ebebeb" d="M33.5 8v24"></path>
</svg>
