<!-- Generated by IcoMoon.io -->
<svg version="1.1" xmlns="http://www.w3.org/2000/svg" width="40" height="40" viewBox="0 0 40 40">
<title>li-basic_accelerator</title>
<path fill="none" stroke-linejoin="miter" stroke-linecap="butt" stroke-miterlimit="10" stroke-width="1.25" stroke="#ebebeb" d="M20.001 4.444c8.592 0 15.556 6.964 15.556 15.556s-6.964 15.557-15.556 15.556c-8.592 0.001-15.556-6.964-15.556-15.556-0.001-8.592 6.964-15.557 15.556-15.557z"></path>
<path fill="none" stroke-linejoin="miter" stroke-linecap="butt" stroke-miterlimit="10" stroke-width="1.25" stroke="#ebebeb" d="M9 20c0-2.815 1.074-5.63 3.222-7.778 4.296-4.296 11.261-4.296 15.556 0 2.148 2.148 3.222 4.963 3.222 7.778"></path>
<path fill="none" stroke-linejoin="miter" stroke-linecap="butt" stroke-miterlimit="10" stroke-width="1.25" stroke="#ebebeb" d="M16 17l3.166 3.666"></path>
<path fill="none" stroke-linejoin="miter" stroke-linecap="butt" stroke-miterlimit="10" stroke-width="1.25" stroke="#ebebeb" d="M21 21.5c0 0.552-0.448 1-1 1s-1-0.448-1-1c0-0.552 0.448-1 1-1s1 0.448 1 1z"></path>
</svg>
