<!-- Generated by IcoMoon.io -->
<svg version="1.1" xmlns="http://www.w3.org/2000/svg" width="24" height="24" viewBox="0 0 24 24">
<title>liquor</title>
<path fill="#ebebeb" d="M18.413 18.413v-1.613h-5.625v1.613h5.625zM12.788 10.762v1.238h5.625v-1.238l-0.788-0.262q-0.675-0.225-1.144-0.9t-0.469-1.388v-0.225h-0.825v0.225q0 1.725-1.612 2.287zM15.188 5.588v0.825h0.825v-0.825h-0.825zM18.9 9.225q1.087 0.375 1.087 1.537v7.65q0 0.637-0.469 1.106t-1.106 0.469h-5.625q-0.638 0-1.106-0.469t-0.469-1.106v-7.65q0-1.162 1.088-1.537l0.75-0.225q0.563-0.188 0.563-0.788v-3.412q0-0.338 0.225-0.563t0.563-0.225h2.4q0.338 0 0.563 0.225t0.225 0.563v3.412q0 0.525 0.563 0.75zM6.413 8.813v2.4h1.575v-2.4h-1.575zM4.8 13.612v-6.413h4.8v6.413q0 0.787-0.45 1.388t-1.162 0.862v2.55h1.613v1.575h-4.8v-1.575h1.612v-2.55q-0.713-0.263-1.162-0.862t-0.45-1.388z"></path>
</svg>
