<!-- Generated by IcoMoon.io -->
<svg version="1.1" xmlns="http://www.w3.org/2000/svg" width="24" height="24" viewBox="0 0 24 24">
<title>local_car_wash</title>
<path fill="#ebebeb" d="M6.413 12.788h11.175l-1.2-3.6h-8.775zM16.388 16.8q0.487 0 0.844-0.337t0.356-0.862-0.356-0.863-0.844-0.337-0.844 0.337-0.356 0.863 0.356 0.862 0.844 0.337zM7.613 16.8q0.488 0 0.844-0.337t0.356-0.862-0.356-0.863-0.844-0.337-0.844 0.337-0.356 0.863 0.356 0.862 0.844 0.337zM17.55 8.813l1.65 4.8v6.375q0 0.338-0.225 0.581t-0.563 0.244h-0.825q-0.338 0-0.563-0.244t-0.225-0.581v-0.787h-9.6v0.787q0 0.338-0.225 0.581t-0.563 0.244h-0.825q-0.337 0-0.563-0.244t-0.225-0.581v-6.375l1.65-4.8q0.262-0.825 1.163-0.825h8.775q0.9 0 1.163 0.825zM7.988 6.413q-0.488 0-0.844-0.356t-0.356-0.844q0-0.337 0.3-0.881t0.6-0.919l0.3-0.375q1.2 1.388 1.2 2.175 0 0.488-0.356 0.844t-0.844 0.356zM12 6.413q-0.525 0-0.863-0.356t-0.337-0.844q0-0.337 0.3-0.881t0.6-0.919l0.3-0.375q1.2 1.388 1.2 2.175 0 0.488-0.338 0.844t-0.862 0.356zM16.013 6.413q-0.488 0-0.844-0.356t-0.356-0.844q0-0.337 0.3-0.881t0.6-0.919l0.3-0.375q1.2 1.388 1.2 2.175 0 0.488-0.356 0.844t-0.844 0.356z"></path>
</svg>
