<!-- Generated by IcoMoon.io -->
<svg version="1.1" xmlns="http://www.w3.org/2000/svg" width="24" height="24" viewBox="0 0 24 24">
<title>local_laundry_service</title>
<path fill="#ebebeb" d="M12 18.413q1.987 0 3.394-1.406t1.406-3.394-1.406-3.394-3.394-1.406-3.394 1.406-1.406 3.394 1.406 3.394 3.394 1.406zM7.988 5.588q-0.338 0-0.563 0.244t-0.225 0.581 0.225 0.563 0.563 0.225 0.581-0.225 0.244-0.563-0.244-0.581-0.581-0.244zM10.387 5.588q-0.337 0-0.563 0.244t-0.225 0.581 0.225 0.563 0.563 0.225 0.581-0.225 0.244-0.563-0.244-0.581-0.581-0.244zM16.8 4.012q0.675 0 1.144 0.45t0.469 1.125v12.825q0 0.675-0.469 1.125t-1.144 0.45h-9.6q-0.675 0-1.144-0.45t-0.469-1.125v-12.825q0-0.675 0.469-1.125t1.144-0.45h9.6zM9.75 15.862l4.5-4.537q0.938 0.938 0.938 2.287 0 1.313-0.938 2.25t-2.25 0.937-2.25-0.937z"></path>
</svg>
