<!-- Generated by IcoMoon.io -->
<svg version="1.1" xmlns="http://www.w3.org/2000/svg" width="24" height="24" viewBox="0 0 24 24">
<title>loop</title>
<path fill="#ebebeb" d="M12 16.8v-2.4l3.188 3.188-3.188 3.225v-2.4q-2.625 0-4.519-1.894t-1.894-4.519q0-1.875 1.013-3.413l1.162 1.163q-0.563 1.012-0.563 2.25 0 1.987 1.406 3.394t3.394 1.406zM12 5.588q2.625 0 4.519 1.894t1.894 4.519q0 1.875-1.012 3.413l-1.163-1.163q0.563-1.013 0.563-2.25 0-1.988-1.406-3.394t-3.394-1.406v2.4l-3.188-3.188 3.188-3.225v2.4z"></path>
</svg>
