<!-- Generated by IcoMoon.io -->
<svg version="1.1" xmlns="http://www.w3.org/2000/svg" width="24" height="24" viewBox="0 0 24 24">
<title>mark_as_unread</title>
<path fill="#ebebeb" d="M18.413 11.738v-1.35l-5.213 2.662-5.212-2.662v1.35l5.212 2.662zM18.413 8.813q0.637 0 1.106 0.469t0.469 1.106v7.2q0 0.638-0.469 1.125t-1.106 0.488h-10.425q-0.638 0-1.106-0.488t-0.469-1.125v-7.2q0-0.637 0.469-1.106t1.106-0.469h10.425zM17.475 7.988h-2.1l-4.575-2.4-5.213 2.737v7.688q-0.638 0-1.106-0.488t-0.469-1.125v-6.262q0-0.788 0.638-1.088l6.15-3.037 6.037 3.037q0.563 0.338 0.638 0.938z"></path>
</svg>
