<!-- Generated by IcoMoon.io -->
<svg version="1.1" xmlns="http://www.w3.org/2000/svg" width="24" height="24" viewBox="0 0 24 24">
<title>mark_email_unread</title>
<path fill="#ebebeb" d="M19.987 9.6v7.2q0 0.675-0.469 1.144t-1.106 0.469h-12.825q-0.637 0-1.106-0.469t-0.469-1.144v-9.6q0-0.675 0.469-1.144t1.106-0.469h8.1q-0.037 0.188-0.056 0.394t-0.019 0.431q0 0.863 0.356 1.631t0.956 1.331l-2.925 1.838-6.412-4.012v1.613l6.412 3.975 4.237-2.625q0.338 0.112 0.675 0.169t0.675 0.056q0.675 0 1.294-0.206t1.106-0.581zM15.188 6.413q0 0.638 0.337 1.181t0.881 0.881 1.181 0.337q0.675 0 1.219-0.337t0.863-0.881 0.319-1.181q0-0.675-0.319-1.219t-0.863-0.862-1.219-0.319q-0.637 0-1.181 0.319t-0.881 0.862-0.337 1.219z"></path>
</svg>
