<!-- Generated by IcoMoon.io -->
<svg version="1.1" xmlns="http://www.w3.org/2000/svg" width="40" height="40" viewBox="0 0 40 40">
<title>mi-bar-chart</title>
<path fill="#ebebeb" d="M36 36h-25.333c-2.933 0-5.333-2.4-5.333-5.333v-25.333c0-0.8 0.533-1.333 1.333-1.333s1.333 0.533 1.333 1.333v25.333c0 1.467 1.2 2.667 2.667 2.667h25.333c0.8 0 1.333 0.533 1.333 1.333s-0.533 1.333-1.333 1.333z"></path>
<path fill="#ebebeb" d="M12 30.667c-0.8 0-1.333-0.533-1.333-1.333v-6.667c0-0.8 0.533-1.333 1.333-1.333s1.333 0.533 1.333 1.333v6.667c0 0.8-0.533 1.333-1.333 1.333z"></path>
<path fill="#ebebeb" d="M17.333 30.667c-0.8 0-1.333-0.533-1.333-1.333v-12c0-0.8 0.533-1.333 1.333-1.333s1.333 0.533 1.333 1.333v12c0 0.8-0.533 1.333-1.333 1.333z"></path>
<path fill="#ebebeb" d="M22.667 30.667c-0.8 0-1.333-0.533-1.333-1.333v-9.333c0-0.8 0.533-1.333 1.333-1.333s1.333 0.533 1.333 1.333v9.333c0 0.8-0.533 1.333-1.333 1.333z"></path>
<path fill="#ebebeb" d="M28 30.667c-0.8 0-1.333-0.533-1.333-1.333v-16c0-0.8 0.533-1.333 1.333-1.333s1.333 0.533 1.333 1.333v16c0 0.8-0.533 1.333-1.333 1.333z"></path>
<path fill="#ebebeb" d="M33.333 30.667c-0.8 0-1.333-0.533-1.333-1.333v-8c0-0.8 0.533-1.333 1.333-1.333s1.333 0.533 1.333 1.333v8c0 0.8-0.533 1.333-1.333 1.333z"></path>
</svg>
