<!-- Generated by IcoMoon.io -->
<svg version="1.1" xmlns="http://www.w3.org/2000/svg" width="40" height="40" viewBox="0 0 40 40">
<title>mi-bank-note</title>
<path fill="#ebebeb" d="M34.667 30.667h-29.333c-0.8 0-1.333-0.533-1.333-1.333v-18.667c0-0.8 0.533-1.333 1.333-1.333h29.333c0.8 0 1.333 0.533 1.333 1.333v18.667c0 0.8-0.533 1.333-1.333 1.333zM6.667 28h26.667v-16h-26.667v16z"></path>
<path fill="#ebebeb" d="M20 25.333c-2.933 0-5.333-2.4-5.333-5.333s2.4-5.333 5.333-5.333 5.333 2.4 5.333 5.333-2.4 5.333-5.333 5.333zM20 17.333c-1.467 0-2.667 1.2-2.667 2.667s1.2 2.667 2.667 2.667 2.667-1.2 2.667-2.667-1.2-2.667-2.667-2.667z"></path>
<path fill="#ebebeb" d="M6.667 17.333c-0.667 0-1.2-0.133-1.867-0.267-0.667-0.267-0.933-1.067-0.667-1.733s1.067-1.067 1.733-0.8c0.267 0.133 0.533 0.133 0.8 0.133 1.467 0 2.667-1.2 2.667-2.667 0-0.267 0-0.533-0.133-0.8-0.267-0.8 0-1.467 0.8-1.733 0.667-0.267 1.467 0 1.733 0.667 0.133 0.667 0.267 1.2 0.267 1.867 0 2.933-2.4 5.333-5.333 5.333z"></path>
<path fill="#ebebeb" d="M33.333 17.333c-2.933 0-5.333-2.4-5.333-5.333 0-0.667 0.133-1.2 0.267-1.867 0.267-0.667 1.067-1.067 1.733-0.8s1.067 1.067 0.8 1.733c-0.133 0.4-0.133 0.667-0.133 0.933 0 1.467 1.2 2.667 2.667 2.667 0.267 0 0.533 0 0.8-0.133 0.667-0.267 1.467 0.133 1.733 0.8s-0.133 1.467-0.8 1.733c-0.533 0.133-1.067 0.267-1.733 0.267z"></path>
<path fill="#ebebeb" d="M10.4 30.667c-0.133 0-0.267 0-0.533-0.133-0.667-0.267-1.067-1.067-0.8-1.733 0.267-0.267 0.267-0.533 0.267-0.8 0-1.467-1.2-2.667-2.667-2.667-0.267 0-0.533 0-0.8 0.133-0.667 0.267-1.467-0.133-1.733-0.8s0.133-1.467 0.8-1.733c0.533-0.133 1.067-0.267 1.733-0.267 2.933 0 5.333 2.4 5.333 5.333 0 0.667-0.133 1.2-0.267 1.867-0.267 0.533-0.8 0.8-1.333 0.8z"></path>
<path fill="#ebebeb" d="M29.6 30.667c-0.533 0-1.067-0.267-1.2-0.8-0.267-0.667-0.4-1.2-0.4-1.867 0-2.933 2.4-5.333 5.333-5.333 0.667 0 1.2 0.133 1.867 0.267 0.667 0.267 1.067 1.067 0.8 1.733s-1.067 1.067-1.733 0.8c-0.4-0.133-0.667-0.133-0.933-0.133-1.467 0-2.667 1.2-2.667 2.667 0 0.267 0 0.533 0.133 0.8 0.267 0.667-0.133 1.467-0.8 1.733-0.133 0.133-0.267 0.133-0.4 0.133z"></path>
</svg>
