<!-- Generated by IcoMoon.io -->
<svg version="1.1" xmlns="http://www.w3.org/2000/svg" width="40" height="40" viewBox="0 0 40 40">
<title>mi-cup</title>
<path fill="#ebebeb" d="M22.667 26.667h-5.333c-4.4 0-8-3.6-8-8v-9.333c0-0.8 0.533-1.333 1.333-1.333h18.667c0.8 0 1.333 0.533 1.333 1.333v9.333c0 4.4-3.6 8-8 8zM12 10.667v8c0 2.933 2.4 5.333 5.333 5.333h5.333c2.933 0 5.333-2.4 5.333-5.333v-8h-16z"></path>
<path fill="#ebebeb" d="M29.333 32h-18.667c-0.8 0-1.333-0.533-1.333-1.333s0.533-1.333 1.333-1.333h18.667c0.8 0 1.333 0.533 1.333 1.333s-0.533 1.333-1.333 1.333z"></path>
<path fill="#ebebeb" d="M30 19.333h-0.667c-0.8 0-1.333-0.533-1.333-1.333v-8.667c0-0.8 0.533-1.333 1.333-1.333h2.667c2.267 0 4 1.733 4 4v1.333c0 3.333-2.667 6-6 6zM30.667 10.667v5.867c1.467-0.267 2.667-1.6 2.667-3.2v-1.333c0-0.8-0.533-1.333-1.333-1.333h-1.333z"></path>
</svg>
