<!-- Generated by IcoMoon.io -->
<svg version="1.1" xmlns="http://www.w3.org/2000/svg" width="40" height="40" viewBox="0 0 40 40">
<title>mi-external</title>
<path fill="#ebebeb" d="M28 33.333h-18.667c-2.933 0-5.333-2.4-5.333-5.333v-13.333c0-2.933 2.4-5.333 5.333-5.333h14.667c0.8 0 1.333 0.533 1.333 1.333s-0.533 1.333-1.333 1.333h-14.667c-1.467 0-2.667 1.2-2.667 2.667v13.333c0 1.467 1.2 2.667 2.667 2.667h18.667c1.467 0 2.667-1.2 2.667-2.667v-9.333c0-0.8 0.533-1.333 1.333-1.333s1.333 0.533 1.333 1.333v9.333c0 2.933-2.4 5.333-5.333 5.333z"></path>
<path fill="#ebebeb" d="M24 20c-0.4 0-0.667-0.133-0.933-0.4-0.533-0.533-0.533-1.333 0-1.867l10.667-10.667c0.533-0.533 1.333-0.533 1.867 0s0.533 1.333 0 1.867l-10.667 10.667c-0.267 0.267-0.533 0.4-0.933 0.4z"></path>
<path fill="#ebebeb" d="M34.667 9.333h-5.333c-0.8 0-1.333-0.533-1.333-1.333s0.533-1.333 1.333-1.333h5.333c0.8 0 1.333 0.533 1.333 1.333s-0.533 1.333-1.333 1.333z"></path>
<path fill="#ebebeb" d="M34.667 14.667c-0.8 0-1.333-0.533-1.333-1.333v-5.333c0-0.8 0.533-1.333 1.333-1.333s1.333 0.533 1.333 1.333v5.333c0 0.8-0.533 1.333-1.333 1.333z"></path>
</svg>
