<!-- Generated by IcoMoon.io -->
<svg version="1.1" xmlns="http://www.w3.org/2000/svg" width="40" height="40" viewBox="0 0 40 40">
<title>mi-files</title>
<path fill="#ebebeb" d="M25.333 30.667h-16c-0.8 0-1.333-0.533-1.333-1.333v-24c0-0.8 0.533-1.333 1.333-1.333h16c0.8 0 1.333 0.533 1.333 1.333v24c0 0.8-0.533 1.333-1.333 1.333zM10.667 28h13.333v-21.333h-13.333v21.333z"></path>
<path fill="#ebebeb" d="M30.667 36h-16c-0.8 0-1.333-0.533-1.333-1.333v-5.333c0-0.8 0.533-1.333 1.333-1.333s1.333 0.533 1.333 1.333v4h13.333v-21.333h-4c-0.8 0-1.333-0.533-1.333-1.333s0.533-1.333 1.333-1.333h5.333c0.8 0 1.333 0.533 1.333 1.333v24c0 0.8-0.533 1.333-1.333 1.333z"></path>
</svg>
