<!-- Generated by IcoMoon.io -->
<svg version="1.1" xmlns="http://www.w3.org/2000/svg" width="40" height="40" viewBox="0 0 40 40">
<title>mi-logout</title>
<path fill="#ebebeb" d="M24 36h-18.667c-0.8 0-1.333-0.533-1.333-1.333v-29.333c0-0.8 0.533-1.333 1.333-1.333h18.667c0.8 0 1.333 0.533 1.333 1.333v9.333c0 0.8-0.533 1.333-1.333 1.333s-1.333-0.533-1.333-1.333v-8h-16v26.667h16v-8c0-0.8 0.533-1.333 1.333-1.333s1.333 0.533 1.333 1.333v9.333c0 0.8-0.533 1.333-1.333 1.333z"></path>
<path fill="#ebebeb" d="M34.667 21.333h-20c-0.8 0-1.333-0.533-1.333-1.333s0.533-1.333 1.333-1.333h20c0.8 0 1.333 0.533 1.333 1.333s-0.533 1.333-1.333 1.333z"></path>
<path fill="#ebebeb" d="M34.667 21.333c-0.4 0-0.667-0.133-0.933-0.4l-5.333-5.333c-0.533-0.533-0.533-1.333 0-1.867s1.333-0.533 1.867 0l5.333 5.333c0.533 0.533 0.533 1.333 0 1.867-0.267 0.267-0.533 0.4-0.933 0.4z"></path>
<path fill="#ebebeb" d="M29.333 26.667c-0.4 0-0.667-0.133-0.933-0.4-0.533-0.533-0.533-1.333 0-1.867l5.333-5.333c0.533-0.533 1.333-0.533 1.867 0s0.533 1.333 0 1.867l-5.333 5.333c-0.267 0.267-0.533 0.4-0.933 0.4z"></path>
</svg>
