<!-- Generated by IcoMoon.io -->
<svg version="1.1" xmlns="http://www.w3.org/2000/svg" width="40" height="40" viewBox="0 0 40 40">
<title>mi-newspaper</title>
<path fill="#ebebeb" d="M30.667 33.333h-21.333c-2.933 0-5.333-2.4-5.333-5.333v-20c0-0.8 0.533-1.333 1.333-1.333h25.333c0.8 0 1.333 0.533 1.333 1.333v18.667c0 0.8-0.533 1.333-1.333 1.333s-1.333-0.533-1.333-1.333v-17.333h-22.667v18.667c0 1.467 1.2 2.667 2.667 2.667h21.333c0.8 0 1.333 0.533 1.333 1.333s-0.533 1.333-1.333 1.333z"></path>
<path fill="#ebebeb" d="M20 9.333c-0.8 0-1.333-0.533-1.333-1.333s0.533-1.333 1.333-1.333v0c0.8 0 1.333 0.533 1.333 1.333s-0.533 1.333-1.333 1.333z"></path>
<path fill="#ebebeb" d="M30.667 33.333h-6.667c-0.8 0-1.333-0.533-1.333-1.333s0.533-1.333 1.333-1.333h6.667c1.467 0 2.667-1.2 2.667-2.667v-16h-2.667c-0.8 0-1.333-0.533-1.333-1.333s0.533-1.333 1.333-1.333h4c0.8 0 1.333 0.533 1.333 1.333v17.333c0 2.933-2.4 5.333-5.333 5.333z"></path>
<path fill="#ebebeb" d="M17.333 22.667h-6.667c-0.8 0-1.333-0.533-1.333-1.333v-8c0-0.8 0.533-1.333 1.333-1.333h6.667c0.8 0 1.333 0.533 1.333 1.333v8c0 0.8-0.533 1.333-1.333 1.333zM12 20h4v-5.333h-4v5.333z"></path>
<path fill="#ebebeb" d="M25.333 14.667h-4c-0.8 0-1.333-0.533-1.333-1.333s0.533-1.333 1.333-1.333h4c0.8 0 1.333 0.533 1.333 1.333s-0.533 1.333-1.333 1.333z"></path>
<path fill="#ebebeb" d="M25.333 18.667h-4c-0.8 0-1.333-0.533-1.333-1.333s0.533-1.333 1.333-1.333h4c0.8 0 1.333 0.533 1.333 1.333s-0.533 1.333-1.333 1.333z"></path>
<path fill="#ebebeb" d="M25.333 22.667h-4c-0.8 0-1.333-0.533-1.333-1.333s0.533-1.333 1.333-1.333h4c0.8 0 1.333 0.533 1.333 1.333s-0.533 1.333-1.333 1.333z"></path>
<path fill="#ebebeb" d="M25.333 28h-14.667c-0.8 0-1.333-0.533-1.333-1.333s0.533-1.333 1.333-1.333h14.667c0.8 0 1.333 0.533 1.333 1.333s-0.533 1.333-1.333 1.333z"></path>
</svg>
