<!-- Generated by IcoMoon.io -->
<svg version="1.1" xmlns="http://www.w3.org/2000/svg" width="40" height="40" viewBox="0 0 40 40">
<title>mi-padding</title>
<path fill="#ebebeb" d="M25.333 12h-10.667c-0.8 0-1.333-0.533-1.333-1.333s0.533-1.333 1.333-1.333h10.667c0.8 0 1.333 0.533 1.333 1.333s-0.533 1.333-1.333 1.333z"></path>
<path fill="#ebebeb" d="M25.333 30.667h-10.667c-0.8 0-1.333-0.533-1.333-1.333s0.533-1.333 1.333-1.333h10.667c0.8 0 1.333 0.533 1.333 1.333s-0.533 1.333-1.333 1.333z"></path>
<path fill="#ebebeb" d="M29.333 26.667c-0.8 0-1.333-0.533-1.333-1.333v-10.667c0-0.8 0.533-1.333 1.333-1.333s1.333 0.533 1.333 1.333v10.667c0 0.8-0.533 1.333-1.333 1.333z"></path>
<path fill="#ebebeb" d="M10.667 26.667c-0.8 0-1.333-0.533-1.333-1.333v-10.667c0-0.8 0.533-1.333 1.333-1.333s1.333 0.533 1.333 1.333v10.667c0 0.8-0.533 1.333-1.333 1.333z"></path>
<path fill="#ebebeb" d="M34.667 36h-29.333c-0.8 0-1.333-0.533-1.333-1.333v-29.333c0-0.8 0.533-1.333 1.333-1.333h29.333c0.8 0 1.333 0.533 1.333 1.333v29.333c0 0.8-0.533 1.333-1.333 1.333zM6.667 33.333h26.667v-26.667h-26.667v26.667z"></path>
</svg>
