<!-- Generated by IcoMoon.io -->
<svg version="1.1" xmlns="http://www.w3.org/2000/svg" width="40" height="40" viewBox="0 0 40 40">
<title>mi-signal</title>
<path fill="#ebebeb" d="M6.667 30.667c-0.8 0-1.333-0.533-1.333-1.333v-5.333c0-0.8 0.533-1.333 1.333-1.333s1.333 0.533 1.333 1.333v5.333c0 0.8-0.533 1.333-1.333 1.333z"></path>
<path fill="#ebebeb" d="M12 30.667c-0.8 0-1.333-0.533-1.333-1.333v-8c0-0.8 0.533-1.333 1.333-1.333s1.333 0.533 1.333 1.333v8c0 0.8-0.533 1.333-1.333 1.333z"></path>
<path fill="#ebebeb" d="M17.333 30.667c-0.8 0-1.333-0.533-1.333-1.333v-10.667c0-0.8 0.533-1.333 1.333-1.333s1.333 0.533 1.333 1.333v10.667c0 0.8-0.533 1.333-1.333 1.333z"></path>
<path fill="#ebebeb" d="M22.667 30.667c-0.8 0-1.333-0.533-1.333-1.333v-13.333c0-0.8 0.533-1.333 1.333-1.333s1.333 0.533 1.333 1.333v13.333c0 0.8-0.533 1.333-1.333 1.333z"></path>
<path fill="#ebebeb" d="M28 30.667c-0.8 0-1.333-0.533-1.333-1.333v-16c0-0.8 0.533-1.333 1.333-1.333s1.333 0.533 1.333 1.333v16c0 0.8-0.533 1.333-1.333 1.333z"></path>
<path fill="#ebebeb" d="M33.333 30.667c-0.8 0-1.333-0.533-1.333-1.333v-18.667c0-0.8 0.533-1.333 1.333-1.333s1.333 0.533 1.333 1.333v18.667c0 0.8-0.533 1.333-1.333 1.333z"></path>
</svg>
