<!-- Generated by IcoMoon.io -->
<svg version="1.1" xmlns="http://www.w3.org/2000/svg" width="40" height="40" viewBox="0 0 40 40">
<title>mi-text</title>
<path fill="#ebebeb" d="M30.667 36h-21.333c-2.933 0-5.333-2.4-5.333-5.333v-21.333c0-2.933 2.4-5.333 5.333-5.333h21.333c2.933 0 5.333 2.4 5.333 5.333v21.333c0 2.933-2.4 5.333-5.333 5.333zM9.333 6.667c-1.467 0-2.667 1.2-2.667 2.667v21.333c0 1.467 1.2 2.667 2.667 2.667h21.333c1.467 0 2.667-1.2 2.667-2.667v-21.333c0-1.467-1.2-2.667-2.667-2.667h-21.333z"></path>
<path fill="#ebebeb" d="M26.667 14.667h-13.333c-0.8 0-1.333-0.533-1.333-1.333s0.533-1.333 1.333-1.333h13.333c0.8 0 1.333 0.533 1.333 1.333s-0.533 1.333-1.333 1.333z"></path>
<path fill="#ebebeb" d="M13.333 16c-0.8 0-1.333-0.533-1.333-1.333v-1.333c0-0.8 0.533-1.333 1.333-1.333s1.333 0.533 1.333 1.333v1.333c0 0.8-0.533 1.333-1.333 1.333z"></path>
<path fill="#ebebeb" d="M26.667 16c-0.8 0-1.333-0.533-1.333-1.333v-1.333c0-0.8 0.533-1.333 1.333-1.333s1.333 0.533 1.333 1.333v1.333c0 0.8-0.533 1.333-1.333 1.333z"></path>
<path fill="#ebebeb" d="M20 28c-0.8 0-1.333-0.533-1.333-1.333v-13.333c0-0.8 0.533-1.333 1.333-1.333s1.333 0.533 1.333 1.333v13.333c0 0.8-0.533 1.333-1.333 1.333z"></path>
<path fill="#ebebeb" d="M21.333 28h-2.667c-0.8 0-1.333-0.533-1.333-1.333s0.533-1.333 1.333-1.333h2.667c0.8 0 1.333 0.533 1.333 1.333s-0.533 1.333-1.333 1.333z"></path>
</svg>
