<!-- Generated by IcoMoon.io -->
<svg version="1.1" xmlns="http://www.w3.org/2000/svg" width="40" height="40" viewBox="0 0 40 40">
<title>mi-volume-down</title>
<path fill="#ebebeb" d="M25.333 34.667c-0.267 0-0.533-0.133-0.8-0.267l-8-5.333c-0.267-0.267-0.533-0.667-0.533-1.067v-16c0-0.4 0.267-0.8 0.533-1.067l8-5.333c0.4-0.267 0.933-0.267 1.333 0 0.533 0.133 0.8 0.533 0.8 1.067v26.667c0 0.533-0.267 0.933-0.667 1.2-0.267 0.133-0.4 0.133-0.667 0.133zM18.667 27.333l5.333 3.6v-21.733l-5.333 3.6v14.533z"></path>
<path fill="#ebebeb" d="M17.333 29.333h-8c-0.8 0-1.333-0.533-1.333-1.333v-16c0-0.8 0.533-1.333 1.333-1.333h8c0.8 0 1.333 0.533 1.333 1.333v16c0 0.8-0.533 1.333-1.333 1.333zM10.667 26.667h5.333v-13.333h-5.333v13.333z"></path>
<path fill="#ebebeb" d="M29.067 25.067c-0.4 0-0.667-0.133-0.933-0.4-0.533-0.533-0.533-1.333 0-1.867 0.8-0.8 1.2-1.733 1.2-2.8s-0.4-2-1.2-2.8c-0.533-0.533-0.533-1.333 0-1.867s1.333-0.533 1.867 0c1.333 1.2 2 2.933 2 4.667s-0.667 3.467-2 4.667c-0.267 0.267-0.533 0.4-0.933 0.4z"></path>
</svg>
