<!-- Generated by IcoMoon.io -->
<svg version="1.1" xmlns="http://www.w3.org/2000/svg" width="40" height="40" viewBox="0 0 40 40">
<title>mi-warning</title>
<path fill="#ebebeb" d="M34.667 34.667h-29.333c-0.533 0-0.933-0.267-1.2-0.667s-0.267-0.933 0-1.333l14.667-26.667c0.533-0.8 1.867-0.8 2.4 0l14.667 26.667c0.267 0.4 0.267 0.933 0 1.333s-0.667 0.667-1.2 0.667zM7.6 32h24.8l-12.4-22.533-12.4 22.533z"></path>
<path fill="#ebebeb" d="M20 25.333c-0.8 0-1.333-0.533-1.333-1.333v-6.667c0-0.8 0.533-1.333 1.333-1.333s1.333 0.533 1.333 1.333v6.667c0 0.8-0.533 1.333-1.333 1.333z"></path>
<path fill="#ebebeb" d="M21.333 28c0 0.736-0.597 1.333-1.333 1.333s-1.333-0.597-1.333-1.333c0-0.736 0.597-1.333 1.333-1.333s1.333 0.597 1.333 1.333z"></path>
<path fill="#ebebeb" d="M20 30c-1.067 0-2-0.933-2-2s0.933-2 2-2 2 0.933 2 2-0.933 2-2 2zM20 27.333c-0.4 0-0.667 0.267-0.667 0.667s0.267 0.667 0.667 0.667 0.667-0.267 0.667-0.667-0.267-0.667-0.667-0.667z"></path>
</svg>
