<!-- Generated by IcoMoon.io -->
<svg version="1.1" xmlns="http://www.w3.org/2000/svg" width="24" height="24" viewBox="0 0 24 24">
<title>more</title>
<path fill="#ebebeb" d="M17.587 13.2q0.488 0 0.844-0.338t0.356-0.862-0.356-0.863-0.844-0.338-0.844 0.338-0.356 0.863 0.356 0.862 0.844 0.338zM13.612 13.2q0.487 0 0.844-0.338t0.356-0.862-0.356-0.863-0.844-0.338-0.844 0.338-0.356 0.863 0.356 0.862 0.844 0.338zM9.6 13.2q0.525 0 0.862-0.338t0.338-0.862-0.338-0.863-0.862-0.338-0.863 0.338-0.338 0.863 0.338 0.862 0.863 0.338zM19.987 4.8q0.638 0 1.125 0.487t0.488 1.125v11.175q0 0.637-0.488 1.125t-1.125 0.488h-11.925q-0.825 0-1.35-0.713l-4.313-6.488 4.313-6.488q0.525-0.712 1.275-0.712h12z"></path>
</svg>
