<!-- Generated by IcoMoon.io -->
<svg version="1.1" xmlns="http://www.w3.org/2000/svg" width="24" height="24" viewBox="0 0 24 24">
<title>motion_photos_on</title>
<path fill="#ebebeb" d="M4.688 8.7l1.238 1.238q-0.338 1.012-0.338 2.063 0 1.313 0.506 2.475t1.387 2.044 2.044 1.388 2.475 0.506 2.475-0.506 2.044-1.388 1.388-2.044 0.506-2.475-0.506-2.475-1.388-2.044-2.044-1.387-2.475-0.506q-1.087 0-2.137 0.375l-1.2-1.237q0.75-0.338 1.594-0.525t1.744-0.188q1.65 0 3.094 0.619t2.55 1.725 1.725 2.55 0.619 3.094-0.619 3.094-1.725 2.55-2.55 1.725-3.094 0.619-3.094-0.619-2.55-1.725-1.725-2.55-0.619-3.094q0-0.9 0.169-1.725t0.506-1.575zM7.2 12q0-1.313 0.656-2.4t1.744-1.744 2.4-0.656 2.4 0.656 1.744 1.744 0.656 2.4-0.656 2.4-1.744 1.744-2.4 0.656-2.4-0.656-1.744-1.744-0.656-2.4zM7.988 6.788q0 0.525-0.338 0.862t-0.862 0.338q-0.487 0-0.844-0.338t-0.356-0.862q0-0.487 0.356-0.844t0.844-0.356q0.525 0 0.862 0.356t0.338 0.844z"></path>
</svg>
