<!-- Generated by IcoMoon.io -->
<svg version="1.1" xmlns="http://www.w3.org/2000/svg" width="24" height="24" viewBox="0 0 24 24">
<title>movie_filter</title>
<path fill="#ebebeb" d="M15.938 11.962l1.65-0.75-1.65-0.75-0.75-1.65-0.75 1.65-1.65 0.75 1.65 0.75 0.75 1.65zM11.4 14.587l2.213-0.975-2.213-1.013-1.012-2.212-0.975 2.212-2.213 1.013 2.212 0.975 0.975 2.212zM16.8 5.588h3.188v11.212q0 0.638-0.469 1.125t-1.106 0.488h-12.825q-0.637 0-1.106-0.488t-0.469-1.125v-9.6q0-0.638 0.469-1.125t1.106-0.487h0.825l1.575 2.4h2.4l-1.575-2.4h1.575l1.613 2.4h2.4l-1.612-2.4h1.612l1.612 2.4h2.4z"></path>
</svg>
