<!-- Generated by IcoMoon.io -->
<svg version="1.1" xmlns="http://www.w3.org/2000/svg" width="73" height="40" viewBox="0 0 73 40">
<title>mp--</title>
<path fill="#ebebeb" d="M46.182 30.182c-5.615 0-10.182-4.567-10.182-10.182s4.567-10.182 10.182-10.182c5.615 0 10.182 4.567 10.182 10.182s-4.567 10.182-10.182 10.182zM20 30.182c-5.615 0-10.182-4.567-10.182-10.182s4.567-10.182 10.182-10.182c5.615 0 10.182 4.567 10.182 10.182s-4.567 10.182-10.182 10.182zM46.182 4c-5.417 0-10.196 2.7-13.091 6.819-2.895-4.119-7.674-6.819-13.091-6.819-8.838 0-16 7.162-16 16s7.162 16 16 16c5.417 0 10.196-2.7 13.091-6.819 2.895 4.119 7.674 6.819 13.091 6.819 8.838 0 16-7.162 16-16s-7.162-16-16-16z"></path>
</svg>
