<!-- Generated by IcoMoon.io -->
<svg version="1.1" xmlns="http://www.w3.org/2000/svg" width="40" height="40" viewBox="0 0 40 40">
<title>mp-arrow_right-15</title>
<path fill="#ebebeb" d="M32.772 31.2c0 0.883-0.723 1.6-1.614 1.6h-3.228c-0.891 0-1.614-0.717-1.614-1.6v-22.4c0-0.883 0.723-1.6 1.614-1.6h3.228c0.891 0 1.614 0.717 1.614 1.6v22.4zM32.772 4h-6.456c-1.783 0-3.228 1.432-3.228 3.2v25.6c0 1.768 1.444 3.2 3.228 3.2h6.456c1.783 0 3.228-1.432 3.228-3.2v-25.6c0-1.768-1.444-3.2-3.228-3.2v0zM5.559 21.6h8.016c0.694 0 1.043 0.59 0.55 1.070l-2.626 2.451c-0.608 0.597-0.608 1.506 0.002 2.101 0.608 0.595 1.596 0.566 2.205-0.029l5.519-5.411c1.217-1.192 1.217-3.13 0-4.32-0.863-0.851-4.651-4.555-5.518-5.402-0.61-0.597-1.598-0.598-2.208-0.002-0.608 0.597-0.608 1.562 0 2.158l2.624 2.723c0.491 0.48 0.142 1.459-0.552 1.459h-8.013c-0.86 0-1.559 0.757-1.559 1.6s0.699 1.6 1.559 1.6v0z"></path>
</svg>
