<!-- Generated by IcoMoon.io -->
<svg version="1.1" xmlns="http://www.w3.org/2000/svg" width="40" height="40" viewBox="0 0 40 40">
<title>mp-atom-</title>
<path fill="#ebebeb" d="M30.252 22.842c-2.277 2.92-4.658 5.257-7.414 7.404 2.283 1.319 7.641 3.708 9.376 1.973 1.185-1.185 0.64-4.89-1.962-9.377zM20.002 28.402c3.171-2.32 6.074-5.222 8.393-8.392-2.309-3.159-5.21-6.065-8.393-8.392-3.194 2.334-6.090 5.243-8.394 8.392 2.319 3.172 5.223 6.073 8.394 8.392zM17.165 30.246c-2.762-2.154-5.143-4.491-7.414-7.404-2.603 4.488-3.147 8.193-1.962 9.377 1.72 1.718 7.031-0.616 9.376-1.973zM9.751 17.178c2.275-2.92 4.656-5.255 7.414-7.404-2.28-1.319-7.639-3.71-9.376-1.973-1.185 1.185-0.64 4.89 1.962 9.377zM22.838 9.774c2.762 2.152 5.142 4.489 7.414 7.404 5.777-9.963 1.408-12.503-7.414-7.404zM32.263 20.010c8.695 13.585 1.222 20.894-12.26 12.268-13.45 8.605-20.985 1.362-12.26-12.268-8.636-13.491-1.354-20.978 12.26-12.268 13.477-8.622 20.963-1.328 12.26 12.268zM21.705 18.313c0.934 0.936 0.934 2.452 0 3.386-0.936 0.936-2.453 0.936-3.388 0-0.936-0.934-0.936-2.45 0-3.386s2.453-0.936 3.388 0z"></path>
</svg>
