<!-- Generated by IcoMoon.io -->
<svg version="1.1" xmlns="http://www.w3.org/2000/svg" width="53" height="40" viewBox="0 0 53 40">
<title>mp-arrow_left-9</title>
<path fill="#ebebeb" d="M21.77 15.277l-11.558 11.475c-0.666 0.672-1.98 0.196-1.98-0.753v-4.932c0-1.178-0.772-2.133-1.94-2.133h-0.089c-1.168 0-2.203 0.956-2.203 2.133v10.666c0 2.357 2.247 4.267 4.583 4.267h10.579c1.168 0 1.765-1.088 1.765-2.266v-0.068c0-1.178-0.597-1.933-1.765-1.933h-5.173c-0.944 0-1.415-1.15-0.749-1.822l10.024-10.105c0.825-0.834 2.164-0.834 2.992 0l0.872 0.879c1.652 1.666 4.331 1.666 5.985 0l12.934-13.043c0.827-0.832 0.827-2.184 0-3.016-0.825-0.834-2.164-0.834-2.992 0l-11.438 11.533c-0.827 0.834-2.167 0.832-2.994-0.002l-0.865-0.875c-1.65-1.67-4.333-1.672-5.988-0.004z"></path>
</svg>
