<!-- Generated by IcoMoon.io -->
<svg version="1.1" xmlns="http://www.w3.org/2000/svg" width="36" height="40" viewBox="0 0 36 40">
<title>mp-apple_store-</title>
<path fill="#ebebeb" d="M23.155 28.011c-0.55 0.779-1.123 1.557-2.022 1.571-0.885 0.018-1.17-0.507-2.181-0.507s-1.328 0.493-2.165 0.525c-0.87 0.032-1.531-0.845-2.086-1.621-1.136-1.589-2.003-4.491-0.838-6.45 0.579-0.973 1.613-1.587 2.734-1.603 0.854-0.016 1.659 0.555 2.181 0.555s1.501-0.688 2.53-0.586c0.432 0.016 1.64 0.168 2.418 1.269-0.064 0.038-1.443 0.816-1.429 2.435 0.019 1.938 1.754 2.581 1.773 2.59-0.014 0.046-0.277 0.918-0.914 1.821zM21.32 16.8c0.085 0.749-0.226 1.502-0.686 2.045-0.462 0.541-1.219 0.962-1.96 0.906-0.102-0.736 0.272-1.502 0.701-1.979 0.477-0.542 1.282-0.946 1.946-0.971zM13.6 7.2h9.6c0.883 0 1.6 0.717 1.6 1.6v1.6h-12.8v-1.6c0-0.883 0.717-1.6 1.6-1.6zM29.6 10.4h-1.6v-3.2c0-1.766-1.434-3.2-3.2-3.2h-12.8c-1.768 0-3.2 1.434-3.2 3.2v3.2h-1.6c-1.768 0-3.2 1.434-3.2 3.2v19.2c0 1.768 1.432 3.2 3.2 3.2h22.4c1.766 0 3.2-1.432 3.2-3.2v-19.2c0-1.766-1.434-3.2-3.2-3.2z"></path>
</svg>
