<!-- Generated by IcoMoon.io -->
<svg version="1.1" xmlns="http://www.w3.org/2000/svg" width="80" height="40" viewBox="0 0 80 40">
<title>mp-arrow_right-8</title>
<path fill="#ebebeb" d="M51.37 9.37l4.558 4.749c0.975 1.022 0.245 2.676-1.172 2.676h-48.087c-1.782 0-2.669 1.439-2.669 3.207v-0.026c0 1.769 0.888 3.227 2.669 3.227h48.038c1.424 0 2.15 1.727 1.162 2.743l-4.532 4.672c-1.227 1.275-1.172 3.31 0.129 4.515l0.006 0.013c1.285 1.192 3.299 1.131 4.509-0.138l10.255-10.696c2.36-2.48 2.347-6.357-0.023-8.824l-10.165-10.503c-1.207-1.256-3.205-1.317-4.487-0.135l-0.032 0.032c-1.298 1.195-1.369 3.207-0.161 4.489z"></path>
</svg>
