<!-- Generated by IcoMoon.io -->
<svg version="1.1" xmlns="http://www.w3.org/2000/svg" width="40" height="40" viewBox="0 0 40 40">
<title>mp-arrow_all-2</title>
<path fill="#ebebeb" d="M32.8 15.2v-3.806c0-0.712-0.862-1.069-1.366-0.565l-9.171 9.171 9.171 9.171c0.504 0.504 1.366 0.147 1.366-0.565v-3.806c0-0.883 0.717-1.6 1.6-1.6s1.6 0.717 1.6 1.6v8c0 1.768-1.432 3.2-3.2 3.2h-8c-0.883 0-1.6-0.717-1.6-1.6s0.717-1.6 1.6-1.6h3.806c0.712 0 1.069-0.862 0.565-1.366l-9.171-9.171c-3.227 3.227-5.973 5.973-9.171 9.171-0.504 0.504-0.147 1.366 0.565 1.366h3.806c0.883 0 1.6 0.717 1.6 1.6s-0.717 1.6-1.6 1.6h-8c-1.768 0-3.2-1.432-3.2-3.2v-8c0-0.883 0.717-1.6 1.6-1.6s1.6 0.717 1.6 1.6v3.806c0 0.712 0.862 1.069 1.366 0.565 3.395-3.395 5.979-5.979 9.171-9.171-3.227-3.227-5.973-5.973-9.171-9.171-0.504-0.504-1.366-0.147-1.366 0.565v3.806c0 0.883-0.717 1.6-1.6 1.6s-1.6-0.717-1.6-1.6v-8c0-1.768 1.432-3.2 3.2-3.2h8c0.883 0 1.6 0.717 1.6 1.6s-0.717 1.6-1.6 1.6h-3.806c-0.712 0-1.069 0.862-0.565 1.366 3.395 3.395 5.979 5.979 9.171 9.171l9.171-9.171c0.504-0.504 0.147-1.366-0.565-1.366h-3.806c-0.883 0-1.6-0.717-1.6-1.6s0.717-1.6 1.6-1.6h8c1.768 0 3.2 1.432 3.2 3.2v8c0 0.883-0.717 1.6-1.6 1.6s-1.6-0.717-1.6-1.6z"></path>
</svg>
