<!-- Generated by IcoMoon.io -->
<svg version="1.1" xmlns="http://www.w3.org/2000/svg" width="40" height="40" viewBox="0 0 40 40">
<title>mp-brightness-3</title>
<path fill="#ebebeb" d="M20 29.6c-0.883 0-1.6 3.917-1.6 4.8s0.717 1.6 1.6 1.6c0.883 0 1.6-0.717 1.6-1.6s-0.717-4.8-1.6-4.8zM12.883 26.68c-1.040 0-3.646 1.821-4.197 2.371-0.626 0.624-0.626 1.638 0 2.262 0.312 0.312 0.722 0.469 1.131 0.469s0.819-0.157 1.131-0.469c0.626-0.624 2.888-3.901 2.262-4.525-0.074-0.075-0.186-0.109-0.328-0.109zM27.117 26.68c-0.142 0-0.254 0.034-0.328 0.109-0.626 0.624 1.637 3.901 2.262 4.525 0.312 0.312 0.722 0.469 1.131 0.469s0.819-0.157 1.131-0.469c0.626-0.624 0.626-1.638 0-2.262-0.55-0.55-3.157-2.371-4.197-2.371zM5.6 18.4c-0.883 0-1.6 0.717-1.6 1.6s0.717 1.6 1.6 1.6c0.883 0 4.8-0.717 4.8-1.6s-3.917-1.6-4.8-1.6zM34.4 18.4c-0.883 0-4.8 0.717-4.8 1.6s3.917 1.6 4.8 1.6c0.883 0 1.6-0.717 1.6-1.6s-0.717-1.6-1.6-1.6zM20 13.6c-3.534 0-6.4 2.866-6.4 6.4s2.866 6.4 6.4 6.4c3.534 0 6.4-2.866 6.4-6.4s-2.866-6.4-6.4-6.4zM9.818 8.218c-0.41 0-0.819 0.157-1.131 0.469-0.626 0.624-0.626 1.638 0 2.262 0.55 0.55 3.157 2.371 4.197 2.371 0.142 0 0.254-0.034 0.328-0.109 0.626-0.624-1.637-3.901-2.262-4.525-0.312-0.312-0.722-0.469-1.131-0.469zM30.182 8.218c-0.41 0-0.819 0.157-1.131 0.469-0.626 0.624-2.888 3.901-2.262 4.525 0.074 0.075 0.186 0.109 0.328 0.109 1.040 0 3.646-1.821 4.197-2.371 0.626-0.624 0.626-1.638 0-2.262-0.312-0.312-0.722-0.469-1.131-0.469zM20 4c-0.883 0-1.6 0.717-1.6 1.6s0.717 4.8 1.6 4.8c0.883 0 1.6-3.917 1.6-4.8s-0.717-1.6-1.6-1.6zM20 16.8c1.765 0 3.2 1.435 3.2 3.2s-1.435 3.2-3.2 3.2c-1.765 0-3.2-1.435-3.2-3.2s1.435-3.2 3.2-3.2z"></path>
</svg>
