<!-- Generated by IcoMoon.io -->
<svg version="1.1" xmlns="http://www.w3.org/2000/svg" width="20" height="40" viewBox="0 0 20 40">
<title>mp-bookmark_plus_fill-1</title>
<path fill="#ebebeb" d="M15.2 15.2h-1.6v1.6c0 0.883-0.717 1.6-1.6 1.6s-1.6-0.717-1.6-1.6v-1.6h-1.6c-0.883 0-1.6-0.717-1.6-1.6s0.717-1.6 1.6-1.6h1.6v-1.6c0-0.883 0.717-1.6 1.6-1.6s1.6 0.717 1.6 1.6v1.6h1.6c0.883 0 1.6 0.717 1.6 1.6s-0.717 1.6-1.6 1.6zM16.8 4h-9.6c-1.768 0-3.2 1.432-3.2 3.2v27.197c0 1.426 1.723 2.139 2.731 1.131l4.138-4.138c0.624-0.624 1.638-0.624 2.262 0l4.138 4.138c1.008 1.008 2.731 0.294 2.731-1.131v-27.197c0-1.768-1.432-3.2-3.2-3.2z"></path>
</svg>
