<!-- Generated by IcoMoon.io -->
<svg version="1.1" xmlns="http://www.w3.org/2000/svg" width="40" height="40" viewBox="0 0 40 40">
<title>mp-brightness-1</title>
<path fill="#ebebeb" d="M8.686 8.686c-0.626 0.626-0.626 1.638 0 2.262 0.626 0.626 1.638 0.626 2.262 0 0.626-0.624 0.626-1.637 0-2.262-0.624-0.626-1.637-0.626-2.262 0zM29.051 29.051c-0.626 0.624-0.626 1.638 0 2.262 0.624 0.626 1.638 0.626 2.262 0 0.626-0.624 0.626-1.638 0-2.262-0.624-0.626-1.638-0.626-2.262 0zM20 32.8c-0.883 0-1.6 0.717-1.6 1.6s0.717 1.6 1.6 1.6c0.883 0 1.6-0.717 1.6-1.6s-0.717-1.6-1.6-1.6zM20 7.2c0.883 0 1.6-0.717 1.6-1.6s-0.717-1.6-1.6-1.6c-0.883 0-1.6 0.717-1.6 1.6s0.717 1.6 1.6 1.6zM8.686 29.051c-0.626 0.624-0.626 1.638 0 2.262 0.626 0.626 1.638 0.626 2.262 0 0.626-0.624 0.626-1.638 0-2.262-0.624-0.626-1.637-0.626-2.262 0zM29.051 8.686c-0.626 0.626-0.626 1.638 0 2.262 0.624 0.626 1.638 0.626 2.262 0 0.626-0.624 0.626-1.637 0-2.262-0.624-0.626-1.638-0.626-2.262 0zM34.4 18.4c-0.883 0-1.6 0.717-1.6 1.6s0.717 1.6 1.6 1.6c0.883 0 1.6-0.717 1.6-1.6s-0.717-1.6-1.6-1.6zM5.6 18.4c-0.883 0-1.6 0.717-1.6 1.6s0.717 1.6 1.6 1.6c0.883 0 1.6-0.717 1.6-1.6s-0.717-1.6-1.6-1.6zM26.4 20c0 3.534-2.866 6.4-6.4 6.4s-6.4-2.866-6.4-6.4c0-3.534 2.866-6.4 6.4-6.4s6.4 2.866 6.4 6.4z"></path>
</svg>
