<!-- Generated by IcoMoon.io -->
<svg version="1.1" xmlns="http://www.w3.org/2000/svg" width="20" height="40" viewBox="0 0 20 40">
<title>mp-bookmark_close_fill-1</title>
<path fill="#ebebeb" d="M15.394 14.731c0.626 0.626 0.626 1.638 0 2.262-0.626 0.626-1.638 0.626-2.262 0l-1.131-1.131-1.131 1.131c-0.626 0.626-1.638 0.626-2.264 0-0.624-0.624-0.624-1.637 0-2.262l1.131-1.131-1.131-1.131c-0.624-0.626-0.624-1.638 0-2.262 0.626-0.626 1.638-0.626 2.264 0l1.131 1.131 1.131-1.131c0.624-0.626 1.637-0.626 2.262 0 0.626 0.624 0.626 1.637 0 2.262l-1.131 1.131 1.131 1.131zM16.8 4h-9.6c-1.768 0-3.2 1.432-3.2 3.2v27.197c0 1.426 1.723 2.139 2.731 1.131l4.138-4.138c0.624-0.624 1.637-0.624 2.262 0l4.138 4.138c1.008 1.008 2.731 0.294 2.731-1.131v-27.197c0-1.768-1.434-3.2-3.2-3.2v0z"></path>
</svg>
