<!-- Generated by IcoMoon.io -->
<svg version="1.1" xmlns="http://www.w3.org/2000/svg" width="40" height="40" viewBox="0 0 40 40">
<title>mp-bag_circle-</title>
<path fill="#ebebeb" d="M21.702 12.127h-8.17v-1.354c0-2.24 1.833-4.064 4.085-4.064s4.085 1.354 4.085 4.064v1.354zM26.732 15.999l0.999 6.963c0.839-0.307 1.738-0.485 2.68-0.501l-1.151-8.009c-0.192-1.334-1.341-2.326-2.696-2.326h-2.139v-1.354c0-4.064-3.054-6.772-6.808-6.772s-6.808 3.038-6.808 6.772v1.354h-1.723c-1.356 0-2.921 0.991-3.113 2.326l-1.946 13.545c-0.234 1.632 1.039 3.092 2.696 3.092h15.685c-0.192 0 0.259-2.522 0.286-2.709h-14.401c-0.828 0-1.465-0.73-1.348-1.545l1.556-10.836c0.097-0.668 0.671-1.164 1.348-1.164h0.959v2.709c0 0.748 0.61 1.354 1.362 1.354s1.362-0.607 1.362-1.354v-2.709h8.17v2.709c0 0.748 0.61 1.354 1.362 1.354s1.362-0.607 1.362-1.354v-2.709h0.959c0.677 0 1.251 0.496 1.348 1.164v0zM30.553 33.291c-1.502 0-2.723-1.215-2.723-2.709s1.221-2.709 2.723-2.709c1.502 0 2.723 1.215 2.723 2.709s-1.221 2.709-2.723 2.709v0zM30.553 25.164c-3.008 0-5.447 2.426-5.447 5.418s2.439 5.418 5.447 5.418c3.008 0 5.447-2.426 5.447-5.418s-2.439-5.418-5.447-5.418v0z"></path>
</svg>
