<!-- Generated by IcoMoon.io -->
<svg version="1.1" xmlns="http://www.w3.org/2000/svg" width="40" height="40" viewBox="0 0 40 40">
<title>mp-coffee-1</title>
<path fill="#ebebeb" d="M5.803 12.889h3.606v-8.889h-3.606v8.889zM29.239 20h-3.606v5.333h3.606c4.206 0 4.206-5.333 0-5.333v0zM22.028 20h-14.423v5.333c0 3.927 3.229 7.111 7.211 7.111s7.211-3.184 7.211-7.111v-5.333zM29.239 28.889h-4.235c-1.486 4.14-5.481 7.111-10.188 7.111-5.975 0-10.817-4.775-10.817-10.667v-8.889h25.239c9.014 0 9.014 12.444 0 12.444v0zM20.225 12.889h3.606v-8.889h-3.606v8.889zM13.014 12.889h3.606v-8.889h-3.606v8.889z"></path>
</svg>
