<!-- Generated by IcoMoon.io -->
<svg version="1.1" xmlns="http://www.w3.org/2000/svg" width="40" height="40" viewBox="0 0 40 40">
<title>mp-cut</title>
<path fill="#ebebeb" d="M23.232 17.335c0-0.477-0.373-0.864-0.834-0.864s-0.834 0.387-0.834 0.864c0 0.477 0.373 0.864 0.834 0.864s0.834-0.387 0.834-0.864v0zM18.661 19.685l-3.461 5.115h9.619l-2.63-3.365-1.163 1.773-2.365-3.523zM28 36v0c0.883 0 1.6-0.717 1.6-1.6v-1.6c0-0.883-0.717-1.6-1.6-1.6s-1.6 0.717-1.6 1.6v1.6c0 0.883 0.717 1.6 1.6 1.6v0zM29.6 26.4h-14.4c-0.883 0-1.6-0.717-1.6-1.6v-8c0-0.883-0.717-1.6-1.6-1.6s-1.6 0.717-1.6 1.6v9.6c0 1.766 1.432 3.2 3.2 3.2h20.8c0.883 0 1.6-0.717 1.6-1.6s-0.717-1.6-1.6-1.6h-4.8zM13.6 13.6h11.2c0.883 0 1.6 0.717 1.6 1.6v8c0 0.883 0.717 1.6 1.6 1.6s1.6-0.717 1.6-1.6v-9.6c0-1.768-1.432-3.2-3.2-3.2h-20.8c-0.883 0-1.6 0.717-1.6 1.6s0.717 1.6 1.6 1.6h8zM13.6 5.6v1.6c0 0.883-0.717 1.6-1.6 1.6s-1.6-0.717-1.6-1.6v-1.6c0-0.883 0.717-1.6 1.6-1.6s1.6 0.717 1.6 1.6v0z"></path>
</svg>
