<!-- Generated by IcoMoon.io -->
<svg version="1.1" xmlns="http://www.w3.org/2000/svg" width="47" height="40" viewBox="0 0 47 40">
<title>mp-cloud_ok-</title>
<path fill="#ebebeb" d="M34.977 12.214c0 0-1.323-3.516-4.817-5.919-8.139-5.602-19.128-0.377-20.371 9.517 0 0-2.697 0.623-4.414 3.139-3.439 5.035-0.073 11.821 6.174 12.121v-3.855c-0.832-0.044-1.634-0.333-2.28-0.826-3.959-3.023 0.664-9.265 4.608-6.043-3.827-12.963 15.652-17.631 18.189-4.702 0.032-0.002 0.064-0.006 0.094-0.012 0.032-0.004 0.062-0.008 0.094-0.008 6.197 0 7.942 9.035 1.882 11.241v3.93c9.871-2.39 9.871-15.763 0.84-18.583v0zM28.626 22.317l2.662 2.736-10.654 10.947-6.206-6.38 2.664-2.736 3.546 3.646 7.989-8.212z"></path>
</svg>
