<!-- Generated by IcoMoon.io -->
<svg version="1.1" xmlns="http://www.w3.org/2000/svg" width="40" height="40" viewBox="0 0 40 40">
<title>mp-cabin-</title>
<path fill="#ebebeb" d="M13.6 13.6v-6.4h12.8v6.4h-12.8zM10.4 26.4v-7.834c0-0.883 0.854-1.766 1.738-1.766h16c0.883 0 1.462 0.883 1.462 1.766v7.834h-19.2zM28.138 32.966v0c-0.883 0-1.6-0.717-1.6-1.6s0.717-1.6 1.6-1.6c0.883 0 1.6 0.717 1.6 1.6s-0.717 1.6-1.6 1.6v0zM10.538 31.366v0c0-0.883 0.717-1.6 1.6-1.6s1.6 0.717 1.6 1.6c0 0.883-0.717 1.6-1.6 1.6s-1.6-0.717-1.6-1.6v0zM36 5.683v-0.042c0-0.883-0.579-1.642-1.462-1.642h-28.8c-0.883 0-1.738 0.8-1.738 1.683v-0.042c0 0.883 0.854 1.558 1.738 1.558h4.662v6.566c-1.768 0-3.2 1.432-3.2 3.2v16c0 1.768 1.57 3.034 3.338 3.034h19.2c1.768 0 3.062-1.266 3.062-3.034v-16c0-1.768-1.432-3.2-3.2-3.2v0-6.566h4.938c0.883 0 1.462-0.634 1.462-1.517v0z"></path>
</svg>
