<!-- Generated by IcoMoon.io -->
<svg version="1.1" xmlns="http://www.w3.org/2000/svg" width="40" height="40" viewBox="0 0 40 40">
<title>mp-cloud_up-1</title>
<path fill="#ebebeb" d="M20.029 24.864c0 0.006-0.003 0.011-0.003 0.016 0 0.006 0.003 0.013 0.003 0.018v-0.034zM33.788 8.873c-5.671-7.757-16.093-5.617-19.307 1.946-1.97-0.643-4.176-0.765-6.788 1.087-2.255 1.599-3.813 4.102-3.685 6.862 0.196 4.246 3.704 7.629 8.005 7.629h6.412c0.88 0 1.592-0.64 1.601-1.516-0.010-0.876-0.721-1.685-1.601-1.685h-6.15c-2.367 0-4.57-1.586-4.99-3.914-0.548-3.036 1.786-5.69 4.729-5.69 0.595 0 1.156 0.122 1.681 0.32l-0.034 1.224c-0.024 0.908 0.705 1.657 1.616 1.657 0.811 0 1.508-0.595 1.601-1.401 0.095-0.836 0.24-1.879 0.455-2.94 1.294-6.371 13.162-7.753 15.244 0.778 0.758 3.107-1.019 6.014-2.56 7.875-0.239 0.288-0.372 0.642-0.372 1.016 0 1.415 1.712 2.124 2.72 1.13 3.371-3.331 5.453-8.867 1.423-14.378v0zM28.673 18.724l-0.93-0.631c-0.505-0.504-1.303-0.147-1.303 0.567v16.014c0 0.884-0.739 1.325-1.624 1.325h-0.037c-0.885 0-1.545-0.442-1.545-1.325v-15.886c0-0.714-0.928-1.071-1.433-0.567l-0.971 0.829c-0.627 0.626-0.801 0.621-2.404-0.003v-0.008c0-0.626-0.521-1.665 0.106-2.289l3.975-3.906c1.252-1.25 3.283-1.333 4.535-0.083l3.871 3.699c0.627 0.624 0.63 1.932 0.005 1.932h0.010c-0.627 1.601-1.627 0.957-2.254 0.331v0z"></path>
</svg>
