<!-- Generated by IcoMoon.io -->
<svg version="1.1" xmlns="http://www.w3.org/2000/svg" width="38" height="40" viewBox="0 0 38 40">
<title>mp-contrast_round-</title>
<path fill="#ebebeb" d="M31.208 17.126l-0.499 1.407c-0.191 0.661-0.811 0.791-1.516 0.791h-19.428c-0.707 0-1.327-0.13-1.516-0.794l-0.568-1.821c-0.194-0.615 0.027-1.347 0.554-1.736l10.222-7.577c0.568-0.42 1.356-0.431 1.919-0.005l10.295 7.929c0.52 0.392 0.732 1.195 0.537 1.805zM33.26 13.986l-12.114-9.168c-1.126-0.852-2.699-0.861-3.836-0.023l-12.065 8.904c-1.053 0.779-1.496 2.113-1.107 3.344l4.683 15.129c0.406 1.287 1.628 2.477 3.011 2.477h14.822c1.376 0 2.595-1.183 3.006-2.463l4.672-14.711c0.392-1.22-0.036-2.705-1.072-3.49z"></path>
</svg>
