<!-- Generated by IcoMoon.io -->
<svg version="1.1" xmlns="http://www.w3.org/2000/svg" width="50" height="40" viewBox="0 0 50 40">
<title>mp-cloud_ok-1</title>
<path fill="#ebebeb" d="M36.891 12.605c-0.046-0.014-0.058-0.067-0.046-0.041-5.632-13.242-24.906-10.481-26.716 3.834 0 0-2.866 0.657-4.69 3.31-1.094 1.588-1.642 3.594-1.37 5.743 0.262 2.067 1.324 3.836 2.83 5.089 5.188 4.312 6.39-1.449 3.814-2.371-5.824-2.090-1.198-11.007 3.76-6.987-3.932-13.22 16.52-19.148 19.326-4.959 5.686-0.208 9.024 7.7 3.168 11.307-2.106 1.296-0.558 5.991 3.594 2.349 5.994-5.259 3.766-14.971-3.67-17.274zM31.543 24.702c0.78 0.798 0.78 2.090 0 2.886l-7.076 7.218c-1.56 1.592-4.092 1.594-5.654 0l-2.356-2.402c-1.872-1.908 0.958-4.796 2.828-2.886 2.878 2.935 2.662 2.090 9.43-4.816 0.78-0.796 2.046-0.796 2.828 0z"></path>
</svg>
