<!-- Generated by IcoMoon.io -->
<svg version="1.1" xmlns="http://www.w3.org/2000/svg" width="40" height="40" viewBox="0 0 40 40">
<title>mp-curling-</title>
<path fill="#ebebeb" d="M7.362 23.2c0.744-3.646 3.974-6.4 7.838-6.4h9.6c3.862 0 7.094 2.754 7.838 6.4h-25.277zM24.8 32.8h-9.6c-3.864 0-7.094-2.754-7.838-6.4h25.277c-0.744 3.646-3.976 6.4-7.838 6.4v0zM24.8 13.6v-9.6h-12.8v3.2h9.6v3.2h-6.4v3.2c-6.4 0-11.2 5.014-11.2 11.2s5.014 11.2 11.2 11.2h9.6c6.186 0 11.2-5.014 11.2-11.2s-4.8-11.2-11.2-11.2v0z"></path>
</svg>
