<!-- Generated by IcoMoon.io -->
<svg version="1.1" xmlns="http://www.w3.org/2000/svg" width="58" height="40" viewBox="0 0 58 40">
<title>mp-code-</title>
<path fill="#ebebeb" d="M16.81 12.416c0.944-0.953 0.944-2.496 0-3.449l-0.032-0.032c-0.944-0.953-2.473-0.953-3.416 0l-8.654 8.734c-0.944 0.953-0.944 2.498 0 3.451l8.654 8.734c0.944 0.953 2.473 0.953 3.416 0l0.032-0.032c0.944-0.953 0.944-2.496 0-3.449l-5.204-5.253c-0.944-0.953-0.944-2.498 0-3.451l5.204-5.253zM50.061 17.669l-8.654-8.734c-0.941-0.953-2.473-0.953-3.416 0l-0.032 0.032c-0.944 0.953-0.944 2.496 0 3.449l5.206 5.253c0.944 0.953 0.944 2.498 0 3.451l-5.206 5.253c-0.944 0.953-0.944 2.496 0 3.449l0.032 0.032c0.944 0.953 2.475 0.953 3.416 0l8.654-8.734c0.944-0.953 0.944-2.498 0-3.451v0zM35.531 7.466l-12.461 26.66c-0.404 0.838-1.112 1.874-2.026 1.874h-0.048c-1.777 0-2.935-2.413-2.149-4.040l12.389-26.407c0.404-0.836 1.9-1.491 1.9-1.491v-0.062c2.417 0 3.179 1.839 2.396 3.466v0z"></path>
</svg>
