<!-- Generated by IcoMoon.io -->
<svg version="1.1" xmlns="http://www.w3.org/2000/svg" width="47" height="40" viewBox="0 0 47 40">
<title>mp-cloud_plus-2</title>
<path fill="#ebebeb" d="M34.977 11.986c0 0-1.323-3.419-4.817-5.756-8.139-5.447-19.128-0.367-20.371 9.253 0 0-2.697 0.606-4.414 3.052-3.439 4.896-0.073 11.494 6.174 11.786v-3.748c-0.832-0.043-1.634-0.324-2.28-0.803-3.947-2.931 0.659-9.012 4.608-5.876-1.18-3.885 0.267-7.624 2.876-9.863 5.474-4.694 13.916-1.629 15.313 5.291 6.312-0.228 8.222 8.734 2.071 10.911v3.821c9.871-2.324 9.871-15.327 0.84-18.068v0zM24.726 26.593h5.647v3.763h-5.647v5.644h-3.765v-5.644h-5.647v-3.763h5.647v-5.644h3.765v5.644z"></path>
</svg>
