<!-- Generated by IcoMoon.io -->
<svg version="1.1" xmlns="http://www.w3.org/2000/svg" width="100" height="40" viewBox="0 0 100 40">
<title>mp-connection-</title>
<path fill="#ebebeb" d="M68 28c-4.412 0-8-3.588-8-8s3.588-8 8-8c4.412 0 8 3.588 8 8s-3.588 8-8 8zM44 28c-4.412 0-8-3.588-8-8s3.588-8 8-8c4.412 0 8 3.588 8 8s-3.588 8-8 8zM20 28c-4.412 0-8-3.588-8-8s3.588-8 8-8c4.412 0 8 3.588 8 8s-3.588 8-8 8zM68 4c-4.808 0-9.068 2.164-12 5.52-2.932-3.356-7.192-5.52-12-5.52s-9.068 2.164-12 5.52c-2.932-3.356-7.192-5.52-12-5.52-8.836 0-16 7.164-16 16s7.164 16 16 16c4.808 0 9.068-2.164 12-5.52 2.932 3.356 7.192 5.52 12 5.52s9.068-2.164 12-5.52c2.932 3.356 7.192 5.52 12 5.52 8.836 0 16-7.164 16-16s-7.164-16-16-16z"></path>
</svg>
