<!-- Generated by IcoMoon.io -->
<svg version="1.1" xmlns="http://www.w3.org/2000/svg" width="40" height="40" viewBox="0 0 40 40">
<title>mp-camera-1</title>
<path fill="#ebebeb" d="M20.176 19.358c1.765 0 3.2 1.435 3.2 3.2s-1.435 3.2-3.2 3.2c-1.765 0-3.2-1.435-3.2-3.2s1.435-3.2 3.2-3.2v0zM20.176 28.958c3.534 0 6.4-2.866 6.4-6.4s-2.866-6.4-6.4-6.4c-3.534 0-6.4 2.866-6.4 6.4s2.866 6.4 6.4 6.4v0zM31.2 32.8h-22.4c-0.883 0-1.6-0.717-1.6-1.6v-16c0-0.883 0.717-1.6 1.6-1.6h22.4c0.883 0 1.6 0.717 1.6 1.6v16c0 0.883-0.717 1.6-1.6 1.6v0zM16.8 7.2h6.4c0.883 0 1.6 0.717 1.6 1.6v1.6h-9.6v-1.6c0-0.883 0.717-1.6 1.6-1.6v0zM34.4 10.4v-1.6c0-0.883-0.717-1.6-1.6-1.6s-1.6 0.717-1.6 1.6v1.6h-3.2v-3.2c0-1.766-1.434-3.2-3.2-3.2h-9.6c-1.768 0-3.2 1.434-3.2 3.2v3.2h-4.8c-1.768 0-3.2 1.434-3.2 3.2v19.2c0 1.768 1.432 3.2 3.2 3.2h25.6c1.766 0 3.2-1.432 3.2-3.2v-22.4h-1.6z"></path>
</svg>
