<!-- Generated by IcoMoon.io -->
<svg version="1.1" xmlns="http://www.w3.org/2000/svg" width="40" height="40" viewBox="0 0 40 40">
<title>mp-cart_round-</title>
<path fill="#ebebeb" d="M34.4 4h-4.8c-1.768 0-3.2 1.432-3.2 3.2v16h-16v-8.003c0-0.882 0.715-1.597 1.597-1.597h6.403c0.883 0 1.6-0.717 1.6-1.6s-0.717-1.6-1.6-1.6h-8c-1.768 0-3.2 1.432-3.2 3.2v13.094c-2.139 0.76-3.59 2.971-3.107 5.466 0.366 1.883 1.918 3.414 3.805 3.758 0.306 0.054 0.606 0.082 0.902 0.082 2.651 0 4.8-2.149 4.8-4.8 0-2.086-1.339-3.845-3.2-4.506v-0.294h16v0.294c-2.139 0.76-3.59 2.971-3.107 5.466 0.366 1.883 1.918 3.414 3.805 3.758 0.306 0.054 0.606 0.082 0.902 0.082 2.651 0 4.8-2.149 4.8-4.8 0-2.086-1.339-3.845-3.2-4.506v-17.898c0-0.882 0.715-1.597 1.597-1.597h3.203c0.883 0 1.6-0.717 1.6-1.6s-0.717-1.6-1.6-1.6zM8.8 29.522l0.528 0.187c0.534 0.19 1.072 0.725 1.072 1.491 0 0.882-0.718 1.6-1.6 1.6-0.107 0-0.218-0.010-0.33-0.030-0.59-0.107-1.122-0.632-1.235-1.219-0.184-0.947 0.408-1.618 1.037-1.842l0.528-0.187zM28 29.522l0.528 0.187c0.534 0.19 1.072 0.725 1.072 1.491 0 0.882-0.718 1.6-1.6 1.6-0.107 0-0.218-0.010-0.33-0.030-0.59-0.107-1.122-0.632-1.235-1.219-0.184-0.947 0.408-1.618 1.037-1.842l0.528-0.187z"></path>
</svg>
