<!-- Generated by IcoMoon.io -->
<svg version="1.1" xmlns="http://www.w3.org/2000/svg" width="40" height="40" viewBox="0 0 40 40">
<title>mp-camera-2</title>
<path fill="#ebebeb" d="M20.018 19.2v0c-1.765 0-3.2 1.435-3.2 3.2s1.435 3.2 3.2 3.2c1.765 0 3.2-1.435 3.2-3.2s-1.435-3.2-3.2-3.2zM20.018 28.8v0c-3.534 0-6.4-2.866-6.4-6.4s2.866-6.4 6.4-6.4c3.534 0 6.4 2.866 6.4 6.4s-2.866 6.4-6.4 6.4zM7.2 32.8v-19.2h25.6v19.2h-25.6zM15.2 10.4v-3.2h9.6v3.2h-9.6zM34.4 10.4v-3.2h-3.2v3.2h-3.2v-6.4h-16v6.4h-8v25.6h32v-25.6h-1.6z"></path>
</svg>
