<!-- Generated by IcoMoon.io -->
<svg version="1.1" xmlns="http://www.w3.org/2000/svg" width="40" height="40" viewBox="0 0 40 40">
<title>mp-call-3</title>
<path fill="#ebebeb" d="M33.091 4l-29.091 29.091 2.909 2.909 29.091-29.091-2.909-2.909zM34.961 31.038c0.033-0.101 0.062-0.189 0.078-0.237-0.012 0.039-0.041 0.123-0.078 0.237v0zM33.612 26.334c-1.43-0.769-2.876-1.648-4.371-2.259-2.89-1.179-2.695 2.306-4.758 3.435-0.843 0.463-1.903 0.109-2.863-0.401l-4.227 4.227c2.942 1.995 6.675 3.754 10.133 4.067 2.664 0.239 6.395-1.203 7.348-4.098-0.066 0.202-0.13 0.397-0.16 0.49 0.023-0.072 0.072-0.218 0.16-0.49 0.039-0.115 0.064-0.193 0.088-0.267-0.027 0.080-0.056 0.169-0.086 0.261 0.839-2.551 0.942-3.781-1.263-4.966v0zM8.68 22.594l4.114-4.114c-0.257-0.531-0.416-1.061-0.344-1.537 0.333-2.23 2.97-2.341 2.218-5.069-0.405-1.458-1.127-2.896-1.668-4.305-0.724-1.884-1.022-3.094-3.135-2.991-1.526 0.076-2.538 0.728-3.476 1.95-2.538 3.306-2.156 7.765-0.451 11.39 0.755 1.607 1.693 3.172 2.742 4.676v0z"></path>
</svg>
