<!-- Generated by IcoMoon.io -->
<svg version="1.1" xmlns="http://www.w3.org/2000/svg" width="40" height="40" viewBox="0 0 40 40">
<title>mp-cloud_connection-</title>
<path fill="#ebebeb" d="M30.316 10.789c0 0-1.124-2.906-4.091-4.893-6.913-4.63-16.247-0.312-17.302 7.866 0 0-2.291 0.515-3.749 2.594-3.055 4.354 0.232 10.047 5.565 10.047h4.475v-3.199h-3.028c-8.957 0-3.981-9.027 0.209-5.694-3.302-10.879 13.318-14.454 15.449-3.886 0.027-0.002 0.054-0.005 0.080-0.010 0.027-0.003 0.053-0.006 0.080-0.006 3.052 0 5.618 3.005 4.549 6.348-1.225 3.832-5.511 3.248-7.746 3.248v3.199c2.854 0 5.634 0.341 8.443-2.076 4.796-4.125 3.004-11.735-2.934-13.539v0zM21.609 32.801h6.395v3.199h-15.988v-3.199h6.395v-19.193h3.198v19.193z"></path>
</svg>
