<!-- Generated by IcoMoon.io -->
<svg version="1.1" xmlns="http://www.w3.org/2000/svg" width="24" height="40" viewBox="0 0 24 40">
<title>mp-drink_round-1</title>
<path fill="#ebebeb" d="M20 15.2c0 3.742-3.211 6.734-7.029 6.37-3.328-0.317-5.771-3.302-5.771-6.645v-6.125c0-0.883 0.717-1.6 1.6-1.6h9.6c0.883 0 1.6 0.717 1.6 1.6v6.4zM7.2 4c-1.768 0-3.2 1.432-3.2 3.2v8c0 4.755 3.2 8.693 8 9.456v8.144h-1.6c-0.883 0-1.6 0.717-1.6 1.6s0.717 1.6 1.6 1.6h6.4c0.883 0 1.6-0.717 1.6-1.6s-0.717-1.6-1.6-1.6h-1.6v-8.144c4.8-0.763 8-4.701 8-9.456v-8c0-1.768-1.432-3.2-3.2-3.2h-12.8z"></path>
</svg>
