<!-- Generated by IcoMoon.io -->
<svg version="1.1" xmlns="http://www.w3.org/2000/svg" width="42" height="40" viewBox="0 0 42 40">
<title>mp-download-3</title>
<path fill="#ebebeb" d="M27.881 23.563l-4.773 4.298c-1.295 1.165-3.321 1.165-4.617 0l-4.773-4.298c-0.675-0.606-0.704-1.619-0.067-2.262v0c0.637-0.642 1.7-0.67 2.376-0.064l1.675 1.509c0.536 0.483 1.418 0.122 1.418-0.581v-8.565c0-0.883 0.753-1.6 1.68-1.6s1.68 0.717 1.68 1.6v8.565c0 0.702 0.882 1.064 1.416 0.581l1.677-1.509c0.674-0.606 1.737-0.578 2.376 0.064v0c0.637 0.643 0.606 1.656-0.067 2.262zM32.56 32.8h-23.52c-0.927 0-1.68-0.715-1.68-1.6v-22.4c0-0.883 0.753-1.6 1.68-1.6h23.52c0.927 0 1.68 0.717 1.68 1.6v22.4c0 0.885-0.753 1.6-1.68 1.6zM4 7.2v25.6c0 1.768 1.504 3.2 3.36 3.2h26.88c1.855 0 3.36-1.432 3.36-3.2v-25.6c0-1.766-1.505-3.2-3.36-3.2h-26.88c-1.856 0-3.36 1.434-3.36 3.2z"></path>
</svg>
