<!-- Generated by IcoMoon.io -->
<svg version="1.1" xmlns="http://www.w3.org/2000/svg" width="40" height="40" viewBox="0 0 40 40">
<title>mp-diamond_round-</title>
<path fill="#ebebeb" d="M26.571 32.738h-13.126c-0.726 0-1.367-0.586-1.581-1.271l-4.218-13.588c-0.205-0.654 0.028-1.394 0.58-1.809l10.735-8.044c0.597-0.447 1.424-0.45 2.014 0.003l10.811 8.29c0.544 0.418 0.769 1.122 0.564 1.771l-4.203 13.384c-0.215 0.68-0.855 1.262-1.577 1.262zM17.977 4.655l-12.668 9.476c-1.106 0.827-1.571 2.249-1.162 3.559l4.917 15.888c0.427 1.368 1.708 2.422 3.16 2.422h15.563c1.447 0 2.725-1.047 3.156-2.409l4.907-15.548c0.41-1.298-0.038-2.742-1.128-3.577l-12.718-9.771c-1.182-0.907-2.836-0.931-4.028-0.039z"></path>
</svg>
