<!-- Generated by IcoMoon.io -->
<svg version="1.1" xmlns="http://www.w3.org/2000/svg" width="50" height="40" viewBox="0 0 50 40">
<title>mp-diamond-2</title>
<path fill="#ebebeb" d="M22.448 30.37l-13.46-13.822c-0.592-0.658-0.674-1.621-0.2-2.366l4.484-5.393c0.366-0.573 1.006-0.839 1.694-0.839h18.060c0.674 0 1.302 0.251 1.672 0.808l4.42 5.105c0.494 0.741 0.426 1.694-0.164 2.362l-13.506 14.142c-0.792 0.895-2.2 0.893-3 0.004zM34.2 4h-20.34c-1.376 0-2.656 0.616-3.388 1.767l-5.86 7.613c-0.946 1.489-0.782 3.395 0.402 4.708l15.98 16.592c1.602 1.773 4.414 1.756 5.998-0.034l16.020-16.972c1.178-1.331 1.318-3.274 0.34-4.755l-5.798-7.208c-0.738-1.12-2-1.712-3.354-1.712z"></path>
</svg>
