<!-- Generated by IcoMoon.io -->
<svg version="1.1" xmlns="http://www.w3.org/2000/svg" width="40" height="40" viewBox="0 0 40 40">
<title>mp-emoji_tongue_sticking_out-2</title>
<path fill="#ebebeb" d="M29.6 24.542c0 0.883-0.717 1.342-1.6 1.342s-1.6 0.888-1.6 1.771c0 0.883-0.717 1.944-1.6 1.944h-3.2c-0.883 0-1.6-0.715-1.6-1.6 0-0.883-0.717-1.6-1.6-1.6h-6.4c-0.883 0-1.6-0.715-1.6-1.6 0-0.883 0.717-1.6 1.6-1.6h16c0.883 0 1.6 0.459 1.6 1.342v0zM29.6 15.2v3.2c0 0.885-0.717 1.6-1.6 1.6h-3.2c-0.88 0-1.6-0.72-1.6-1.6v-3.2c0-0.883 0.717-1.6 1.6-1.6h3.2c0.883 0 1.6 0.717 1.6 1.6v0zM10.4 18.4v-3.2c0-0.883 0.717-1.6 1.6-1.6h3.2c0.883 0 1.6 0.717 1.6 1.6v3.2c0 0.885-0.717 1.6-1.6 1.6h-3.2c-0.88 0-1.6-0.72-1.6-1.6v0zM32.8 9.766v9.57c0 7.059-5.742 13.464-12.8 13.464s-12.8-6.405-12.8-13.464v-11.2c0-0.883 0.717-0.936 1.6-0.936h22.4c0.883 0 1.6 0.053 1.6 0.936v1.63zM32.8 4h-25.6c-1.768 0-3.2 0.77-3.2 2.536v12.8c0 3.595 1.2 6.901 3.2 9.571 0.918 1.226 2.005 2.312 3.229 3.229 2.672 2.002 5.978 3.864 9.571 3.864s6.899-1.862 9.571-3.864c1.224-0.917 2.31-2.003 3.229-3.229 2-2.67 3.2-5.976 3.2-9.571v-12.8c0-1.766-1.432-2.536-3.2-2.536v0z"></path>
</svg>
