<!-- Generated by IcoMoon.io -->
<svg version="1.1" xmlns="http://www.w3.org/2000/svg" width="40" height="40" viewBox="0 0 40 40">
<title>mp-emoji_neutral_square_round-1</title>
<path fill="#ebebeb" d="M29.6 24.8c0 0.883-0.717 1.6-1.6 1.6h-16c-0.883 0-1.6-0.717-1.6-1.6s0.717-1.6 1.6-1.6h16c0.883 0 1.6 0.717 1.6 1.6v0zM30.262 10.674v0c0.626 0.624 0.626 1.637 0 2.262l-1.6 1.6 1.6 1.6c0.626 0.624 0.626 1.638 0 2.262v0c-0.624 0.626-1.637 0.626-2.262 0l-1.6-1.6-1.6 1.6c-0.626 0.626-1.638 0.626-2.262 0-0.626-0.624-0.626-1.638 0-2.262l1.6-1.6-1.6-1.6c-0.626-0.626-0.626-1.638 0-2.262v0c0.624-0.626 1.637-0.626 2.262 0l1.6 1.6 1.6-1.6c0.626-0.626 1.638-0.626 2.262 0v0zM9.738 18.398v0c-0.626-0.624-0.626-1.638 0-2.262l1.6-1.6-1.6-1.6c-0.626-0.626-0.626-1.638 0-2.262v0c0.624-0.626 1.637-0.626 2.262 0l1.6 1.6 1.6-1.6c0.626-0.626 1.638-0.626 2.262 0v0c0.626 0.624 0.626 1.637 0 2.262l-1.6 1.6 1.6 1.6c0.626 0.624 0.626 1.638 0 2.262v0c-0.624 0.626-1.637 0.626-2.262 0l-1.6-1.6-1.6 1.6c-0.626 0.626-1.638 0.626-2.262 0v0zM32.8 31.2c0 0.883-0.717 1.6-1.6 1.6h-22.4c-0.883 0-1.6-0.717-1.6-1.6v-22.4c0-0.883 0.717-1.6 1.6-1.6h22.4c0.883 0 1.6 0.717 1.6 1.6v22.4zM36 7.2c0-1.768-1.432-3.2-3.2-3.2h-25.6c-1.768 0-3.2 1.432-3.2 3.2v25.6c0 1.768 1.432 3.2 3.2 3.2h25.6c1.768 0 3.2-1.432 3.2-3.2v-25.6z"></path>
</svg>
