<!-- Generated by IcoMoon.io -->
<svg version="1.1" xmlns="http://www.w3.org/2000/svg" width="40" height="40" viewBox="0 0 40 40">
<title>mp-emoji_happy_square_round-1</title>
<path fill="#ebebeb" d="M15.347 22.239c1.112 4.662 8.194 4.662 9.306 0 0.179-0.749 0.806-1.302 1.574-1.302 0.986 0 1.789 0.883 1.598 1.85-1.622 8.2-14.029 8.2-15.651 0-0.19-0.966 0.613-1.85 1.598-1.85 0.77 0 1.395 0.554 1.574 1.302v0zM30.262 10.672v0.002c0.626 0.624 0.626 1.637 0 2.262l-1.6 1.6 1.6 1.6c0.626 0.624 0.626 1.637 0 2.262v0c-0.624 0.624-1.637 0.624-2.262 0l-1.6-1.6-1.6 1.6c-0.624 0.624-1.637 0.624-2.262 0-0.624-0.626-0.624-1.638 0-2.262l1.6-1.6-1.6-1.6c-0.626-0.626-0.626-1.638 0-2.262v-0.002c0.626-0.624 1.638-0.624 2.262 0l1.6 1.6 1.6-1.6c0.626-0.624 1.638-0.624 2.262 0v0zM9.737 18.399v0c-0.624-0.626-0.624-1.638 0-2.262l1.6-1.6-1.6-1.6c-0.624-0.626-0.624-1.638 0-2.262 0.626-0.626 1.638-0.626 2.262-0.002l1.6 1.6 1.6-1.6c0.626-0.624 1.638-0.624 2.262 0 0.626 0.626 0.626 1.638 0 2.264l-1.6 1.6 1.6 1.6c0.626 0.624 0.626 1.637 0 2.262-0.624 0.624-1.637 0.624-2.262 0l-1.6-1.6-1.6 1.6c-0.624 0.624-1.637 0.624-2.262 0v0zM32.8 31.2c0 0.883-0.717 1.6-1.6 1.6h-22.4c-0.883 0-1.6-0.717-1.6-1.6v-22.4c0-0.885 0.717-1.6 1.6-1.6h22.4c0.883 0 1.6 0.715 1.6 1.6v22.4zM36 7.2c0-1.768-1.432-3.2-3.2-3.2h-25.6c-1.766 0-3.2 1.432-3.2 3.2v25.6c0 1.766 1.434 3.2 3.2 3.2h25.6c1.768 0 3.2-1.434 3.2-3.2v-25.6z"></path>
</svg>
