<!-- Generated by IcoMoon.io -->
<svg version="1.1" xmlns="http://www.w3.org/2000/svg" width="40" height="40" viewBox="0 0 40 40">
<title>mp-emoji_neutral_circle-4</title>
<path fill="#ebebeb" d="M26.4 20h6.4v-6.4h-6.4v6.4zM32.379 23.2h-9.179v-9.6h-6.4v9.6h-9.179c1.427 4.8 6.427 9.6 12.379 9.6s10.952-4.8 12.379-9.6v0zM7.2 20h6.4v-6.4h-6.4v6.4zM11.562 10.4h16.877c-2.256-3.2-5.205-3.2-8.438-3.2s-6.182 0-8.438 3.2v0zM36 10.4v12.8h-0.322c-1.483 6.4-7.938 12.8-15.678 12.8s-14.195-6.4-15.678-12.8h-0.322v-12.8h3.222c2.918-4.8 7.549-6.4 12.778-6.4s9.859 1.6 12.778 6.4h3.222zM15.2 26.4h9.6c0.883 0 1.6 0.717 1.6 1.6s-0.717 1.6-1.6 1.6h-9.6c-0.883 0-1.6-0.717-1.6-1.6s0.717-1.6 1.6-1.6v0z"></path>
</svg>
