<!-- Generated by IcoMoon.io -->
<svg version="1.1" xmlns="http://www.w3.org/2000/svg" width="40" height="40" viewBox="0 0 40 40">
<title>mp-emoji_happy_square_round-</title>
<path fill="#ebebeb" d="M29.6 15.2c0 0.883-0.717 1.6-1.6 1.6h-3.2c-0.883 0-1.6-0.717-1.6-1.6s0.717-1.6 1.6-1.6h3.2c0.883 0 1.6 0.717 1.6 1.6v0zM15.344 22.726c1.106 4.677 8.206 4.51 9.312-0.166 0.174-0.742 0.798-0.96 1.56-0.96h0.027c0.978 0 1.773 0.71 1.586 1.669-1.611 8.221-14.046 8.054-15.658-0.166-0.187-0.958 0.608-1.502 1.586-1.502h0.027c0.762 0 1.386 0.384 1.56 1.126v0zM16.8 15.2c0 0.883-0.717 1.6-1.6 1.6h-3.2c-0.883 0-1.6-0.717-1.6-1.6s0.717-1.6 1.6-1.6h3.2c0.883 0 1.6 0.717 1.6 1.6v0zM32.8 31.2c0 0.883-0.717 1.6-1.6 1.6h-22.4c-0.883 0-1.6-0.717-1.6-1.6v-22.4c0-0.883 0.717-1.6 1.6-1.6h22.4c0.883 0 1.6 0.717 1.6 1.6v22.4zM36 7.2c0-1.768-1.432-3.2-3.2-3.2h-25.6c-1.768 0-3.2 1.432-3.2 3.2v25.6c0 1.768 1.432 3.2 3.2 3.2h25.6c1.768 0 3.2-1.432 3.2-3.2v-25.6z"></path>
</svg>
