<!-- Generated by IcoMoon.io -->
<svg version="1.1" xmlns="http://www.w3.org/2000/svg" width="40" height="40" viewBox="0 0 40 40">
<title>mp-file_doc-1</title>
<path fill="#ebebeb" d="M26.367 4.001h-22.366v16h3.2v-12.8h16v9.6h9.6v3.2h3.2v-5.699l-9.634-10.301zM18.4 28.001v3.2c0 0.883 0.717 1.6 1.6 1.6s1.6-0.717 1.6-1.6v-3.2c0-0.883-0.717-1.6-1.6-1.6s-1.6 0.717-1.6 1.6v0zM15.2 32.801v-6.4c0-1.768 1.432-3.2 3.2-3.2h3.2c1.766 0 3.2 1.432 3.2 3.2v6.4c0 1.768-1.434 3.2-3.2 3.2h-3.2c-1.768 0-3.2-1.432-3.2-3.2v0zM10.4 28.169c0-0.885-0.717-1.768-1.6-1.768h-1.6v6.4h1.6c0.883 0 1.6-0.549 1.6-1.432v-3.2zM13.6 28.001v3.2c0 2.651-2.149 4.8-4.8 4.8h-4.8v-12.8h4.8c2.64 0 4.8 2.16 4.8 4.8v0zM32.8 23.201h3.2v3.2h-3.2c-1.768 0-3.2 1.432-3.2 3.2 0 1.766 1.432 3.2 3.2 3.2h3.2v3.2h-3.2c-3.534 0-6.4-2.866-6.4-6.4s2.866-6.4 6.4-6.4v0z"></path>
</svg>
