<!-- Generated by IcoMoon.io -->
<svg version="1.1" xmlns="http://www.w3.org/2000/svg" width="40" height="40" viewBox="0 0 40 40">
<title>mp-file_jps-</title>
<path fill="#ebebeb" d="M35.56 13.788l-8.72-9.208c-0.302-0.317-0.722-0.578-1.16-0.578h-18.48c-1.766 0-3.2 1.592-3.2 3.349v11.142c0 0.879 0.717 1.592 1.6 1.592 0.885 0 1.6-0.713 1.6-1.592v-9.55c0-0.879 0.717-1.757 1.6-1.757h14.4v6.532c0 1.759 1.434 3.018 3.2 3.018h6.4v1.757c0 0.879 0.717 1.592 1.6 1.592 0.885 0 1.6-0.713 1.6-1.592v-3.608c0-0.409-0.157-0.801-0.44-1.097v0zM32.8 28.043c0-0.879-0.715-1.592-1.6-1.592h-1.6v3.183h1.6c0.885 0 1.6-0.713 1.6-1.592v0zM35.993 27.62c0.146 2.754-2.056 5.033-4.794 5.033h-1.6v1.757c0 0.879-0.715 1.592-1.6 1.592-0.883 0-1.6-0.713-1.6-1.592v-9.55c0-0.879 0.717-1.757 1.6-1.757h2.928c2.6 0 4.93 1.936 5.066 4.517v0zM12 23.268c-0.883 0-1.6 0.713-1.6 1.592v6.367c0 0.879-0.715 1.426-1.6 1.426h-3.2c-0.875 0-1.584 0.783-1.595 1.654 0.011 0.867 0.72 1.53 1.595 1.53h4.8c1.768 0 3.2-1.259 3.2-3.018v-7.959c0-0.879-0.715-1.592-1.6-1.592v0zM4 34.327c0-0.008 0.005-0.014 0.005-0.021 0-0.008-0.005-0.014-0.005-0.021v0.041zM23.2 23.102h-4.8c-1.766 0-3.2 1.592-3.2 3.349v1.592c0 1.759 1.434 3.018 3.2 3.018h2.4c0.442 0 0.8 0.355 0.8 0.796 0 0.439-0.358 0.796-0.8 0.796h-4c-0.875 0-1.584 0.783-1.595 1.654 0.011 0.867 0.72 1.53 1.595 1.53h4.834c1.749 0 3.166-1.245 3.166-2.984v-1.659c0-1.74-1.418-3.316-3.166-3.316h-2.434c-0.442 0-0.8-0.357-0.8-0.796 0-0.441 0.358-0.796 0.8-0.796h4c0.885 0 1.6-0.63 1.6-1.509v-0.041c0-0.88-0.715-1.633-1.6-1.633v0zM15.2 34.286c0 0.006 0.005 0.013 0.005 0.021 0 0.006-0.005 0.013-0.005 0.021v-0.041z"></path>
</svg>
