<!-- Generated by IcoMoon.io -->
<svg version="1.1" xmlns="http://www.w3.org/2000/svg" width="40" height="40" viewBox="0 0 40 40">
<title>mp-file_missing-3</title>
<path fill="#ebebeb" d="M33.091 21.607h2.909v-2.909h-2.909v2.909zM21.455 33.244h2.909v-2.909h-2.909v2.909zM27.273 33.244h2.909v-2.909h-2.909v2.909zM33.091 33.244h2.909v-2.909h-2.909v2.909zM9.818 27.273h-2.909v2.909h-2.909v2.909h2.909v2.909h2.909v-2.909h2.909v-2.909h-2.909v-2.909zM6.909 7.062h2.909v-2.909h-2.909v2.909zM33.091 27.425h2.909v-2.909h-2.909v2.909zM12.727 7.062h2.909v-2.909h-2.909v2.909zM18.545 7.062h2.909v-2.909h-2.909v2.909zM6.909 12.88h2.909v-2.909h-2.909v2.909zM6.909 24.516h2.909v-2.909h-2.909v2.909zM15.636 33.244h2.909v-2.909h-2.909v2.909zM27.273 4h-2.909v11.636h11.636v-2.756l-8.727-8.88zM6.909 18.698h2.909v-2.909h-2.909v2.909z"></path>
</svg>
