<!-- Generated by IcoMoon.io -->
<svg version="1.1" xmlns="http://www.w3.org/2000/svg" width="40" height="40" viewBox="0 0 40 40">
<title>mp-file_jar-1</title>
<path fill="#ebebeb" d="M26.367 4.001h-22.366v16h3.2v-12.8h16v9.6h9.6v3.2h3.2v-5.699l-9.634-10.301zM32.794 28.169c0-0.885-0.717-1.6-1.6-1.6h-1.6v3.2h1.6c0.883 0 1.6-0.717 1.6-1.6v0zM33.952 31.961l2.042 4.040h-3.2l-1.6-3.2h-1.594v3.2h-3.2v-12.8h4.794c2.651 0 4.8 2.234 4.8 4.883 0 1.622-0.81 3.008-2.042 3.877v0zM18.4 29.769h3.2v-3.2h-3.2v3.2zM24.8 23.201v12.8h-3.2v-3.2h-3.2v3.2h-3.2v-12.8h9.6zM10.4 23.201h3.2v9.768c0 1.766-1.434 3.032-3.2 3.032h-6.4v-3.2h4.8c0.883 0 1.6-0.549 1.6-1.432v-8.168z"></path>
</svg>
