<!-- Generated by IcoMoon.io -->
<svg version="1.1" xmlns="http://www.w3.org/2000/svg" width="40" height="40" viewBox="0 0 40 40">
<title>mp-file_exe-1</title>
<path fill="#ebebeb" d="M26.367 4.001h-22.366v16h3.2v-12.8h16v9.6h9.6v3.2h3.2v-5.699l-9.634-10.301zM26.4 23.201v12.8h9.6v-3.2h-6.4v-1.6h6.4v-3.2h-6.4v-1.6h6.4v-3.2h-9.6zM4 23.201v12.8h9.6v-3.2h-6.4v-1.6h6.4v-3.2h-6.4v-1.6h6.4v-3.2h-9.6zM24.767 23.201l-3.2 6.4 3.2 6.4h-3.2l-1.6-3.2-1.6 3.2h-3.2l3.2-6.4-3.2-6.4h3.2l1.6 3.2 1.6-3.2h3.2z"></path>
</svg>
