<!-- Generated by IcoMoon.io -->
<svg version="1.1" xmlns="http://www.w3.org/2000/svg" width="40" height="40" viewBox="0 0 40 40">
<title>mp-file_double-1</title>
<path fill="#ebebeb" d="M29.6 34.363v0.041c0 0.881-0.717 1.513-1.6 1.513h-20.8v0.083c-1.768 0-3.2-1.345-3.2-3.107v-20.746c0-0.883 0.717-1.596 1.6-1.596s1.6 0.713 1.6 1.596v19.15c0 0.881 0.717 1.428 1.6 1.428h19.2c0.883 0 1.6 0.756 1.6 1.637v0zM32.8 24.914c0 0.881-0.717 1.428-1.6 1.428h-16c-0.883 0-1.6-0.547-1.6-1.428v-15.959c0-0.882 0.717-1.763 1.6-1.763h8v6.551c0 1.762 1.432 3.024 3.2 3.024h6.4v8.147zM35.531 13.234l-8.662-8.683c-0.301-0.298-0.707-0.551-1.131-0.551h-12.138v0.083c-1.768 0-3.2 1.471-3.2 3.233v19.193c0 1.762 1.432 3.107 3.2 3.107v-0.083h19.2v0.083c1.768 0 3.2-1.387 3.2-3.15v-12.063c0-0.423-0.168-0.871-0.469-1.17v0z"></path>
</svg>
