<!-- Generated by IcoMoon.io -->
<svg version="1.1" xmlns="http://www.w3.org/2000/svg" width="40" height="40" viewBox="0 0 40 40">
<title>mp-file_arrow_down-1</title>
<path fill="#ebebeb" d="M32.8 31.218c0 0.874-0.709 1.582-1.582 1.582h-22.435c-0.874 0-1.582-0.709-1.582-1.582v-22.435c0-0.874 0.709-1.582 1.582-1.582h6.418v16.322c0 0.704-0.845 1.066-1.354 0.576l-1.534-1.47c-0.637-0.613-1.651-0.584-2.253 0.062-0.594 0.637-0.562 1.632 0.072 2.23l4.57 4.31c1.238 1.168 3.174 1.162 4.405-0.014l4.501-4.296c0.627-0.598 0.656-1.59 0.066-2.224l-0.022-0.024c-0.595-0.64-1.597-0.675-2.237-0.080l-1.667 1.554c-0.512 0.477-1.346 0.114-1.346-0.586v-16.36h4.8v6.4c0 1.768 1.432 3.2 3.2 3.2h6.4v14.418zM35.536 13.136l-8.672-8.672c-0.298-0.298-0.699-0.464-1.12-0.464h-18.544c-1.768 0-3.2 1.434-3.2 3.2v25.6c0 1.768 1.432 3.2 3.2 3.2h25.6c1.768 0 3.2-1.432 3.2-3.2v-18.544c0-0.421-0.166-0.822-0.464-1.12v0z"></path>
</svg>
