<!-- Generated by IcoMoon.io -->
<svg version="1.1" xmlns="http://www.w3.org/2000/svg" width="40" height="40" viewBox="0 0 40 40">
<title>mp-file_jpg-1</title>
<path fill="#ebebeb" d="M36 14.884v3.608c0 0.879-0.717 1.592-1.6 1.592s-1.6-0.713-1.6-1.592v-1.757h-6.4c-1.768 0-3.2-1.259-3.2-3.018v-6.532h-14.4c-0.883 0-1.6 0.879-1.6 1.757v9.55c0 0.879-0.717 1.592-1.6 1.592s-1.6-0.713-1.6-1.592v-11.142c0-1.757 1.432-3.349 3.2-3.349h18.48c0.438 0 0.858 0.261 1.16 0.578l8.72 9.208c0.282 0.296 0.44 0.689 0.44 1.097v0zM13.6 24.859v7.959c0 1.759-1.432 3.018-3.2 3.018h-4.8c-0.877 0-1.584-0.662-1.595-1.53 0.011-0.871 0.718-1.654 1.595-1.654h3.2c0.883 0 1.6-0.548 1.6-1.426v-6.367c0-0.879 0.717-1.592 1.6-1.592s1.6 0.713 1.6 1.592v0zM4 34.285c0 0.006 0.005 0.013 0.005 0.021 0 0.006-0.005 0.013-0.005 0.021v-0.041zM36 24.735v0.041c0 0.879-0.717 1.509-1.6 1.509h-1.429c-1.594 0-3.072 1.167-3.328 2.731-0.325 1.994 1.213 3.801 3.157 3.801v-1.592c0-0.879 0.717-1.592 1.6-1.592s1.6 0.713 1.6 1.592v3.183c0 0.879-0.717 1.426-1.6 1.426h-1.325c-3.342 0-6.328-2.432-6.645-5.741-0.365-3.798 2.627-6.992 6.37-6.992h1.6c0.883 0 1.6 0.754 1.6 1.633v0zM20 29.634h-1.6v-3.183h1.6c0.883 0 1.6 0.713 1.6 1.592s-0.717 1.592-1.6 1.592v0zM19.728 23.102h-2.928c-0.883 0-1.6 0.879-1.6 1.757v9.55c0 0.879 0.717 1.592 1.6 1.592s1.6-0.713 1.6-1.592v-1.757h1.6c2.736 0 4.938-2.278 4.794-5.033-0.136-2.582-2.466-4.517-5.066-4.517v0z"></path>
</svg>
