<!-- Generated by IcoMoon.io -->
<svg version="1.1" xmlns="http://www.w3.org/2000/svg" width="67" height="40" viewBox="0 0 67 40">
<title>mp-google_plus-</title>
<path fill="#ebebeb" d="M52 16.551v-5.014h-5.333v5.014h-5.333v5.014h5.333v5.014h5.333v-5.014h5.333v-5.014h-5.333zM37.067 16.551c0.144 0 0.267 2.186 0.267 3.237 0 9.136-6.512 16.212-16.328 16.212-9.4 0-17.005-7.158-17.005-15.996 0-8.841 7.605-16.004 17.005-16.004 4.592 0 8.432 1.549 11.395 4.154l-4.616 4.129c-1.261-1.143-3.475-2.57-6.779-2.57-5.805 0-10.544 4.315-10.544 9.889s4.739 9.686 10.544 9.686c6.731 0 9.259-5.215 9.645-7.722h-10.651v-5.014h17.067z"></path>
</svg>
