<!-- Generated by IcoMoon.io -->
<svg version="1.1" xmlns="http://www.w3.org/2000/svg" width="42" height="40" viewBox="0 0 42 40">
<title>mp-grid-1</title>
<path fill="#ebebeb" d="M30.88 32.8v-3.2h3.36v3.2h-3.36zM34.24 26.4h-3.36c-1.856 0-3.36 1.432-3.36 3.2v3.2c0 1.766 1.504 3.2 3.36 3.2h3.36c1.855 0 3.36-1.434 3.36-3.2v-3.2c0-1.768-1.505-3.2-3.36-3.2v0zM19.12 32.8v-3.2h3.36v3.2h-3.36zM22.48 26.4h-3.36c-1.856 0-3.36 1.432-3.36 3.2v3.2c0 1.766 1.504 3.2 3.36 3.2h3.36c1.855 0 3.36-1.434 3.36-3.2v-3.2c0-1.768-1.505-3.2-3.36-3.2v0zM7.36 32.8v-3.2h3.36v3.2h-3.36zM10.72 26.4h-3.36c-1.856 0-3.36 1.432-3.36 3.2v3.2c0 1.766 1.504 3.2 3.36 3.2h3.36c1.855 0 3.36-1.434 3.36-3.2v-3.2c0-1.768-1.505-3.2-3.36-3.2v0zM30.88 21.6v-3.2h3.36v3.2h-3.36zM34.24 15.2h-3.36c-1.856 0-3.36 1.432-3.36 3.2v3.2c0 1.766 1.504 3.2 3.36 3.2h3.36c1.855 0 3.36-1.434 3.36-3.2v-3.2c0-1.768-1.505-3.2-3.36-3.2v0zM19.12 21.6v-3.2h3.36v3.2h-3.36zM22.48 15.2h-3.36c-1.856 0-3.36 1.432-3.36 3.2v3.2c0 1.766 1.504 3.2 3.36 3.2h3.36c1.855 0 3.36-1.434 3.36-3.2v-3.2c0-1.768-1.505-3.2-3.36-3.2v0zM7.36 21.6v-3.2h3.36v3.2h-3.36zM10.72 15.2h-3.36c-1.856 0-3.36 1.432-3.36 3.2v3.2c0 1.766 1.504 3.2 3.36 3.2h3.36c1.855 0 3.36-1.434 3.36-3.2v-3.2c0-1.768-1.505-3.2-3.36-3.2v0zM30.88 10.4v-3.2h3.36v3.2h-3.36zM34.24 4h-3.36c-1.856 0-3.36 1.432-3.36 3.2v3.2c0 1.766 1.504 3.2 3.36 3.2h3.36c1.855 0 3.36-1.434 3.36-3.2v-3.2c0-1.768-1.505-3.2-3.36-3.2v0zM19.12 10.4v-3.2h3.36v3.2h-3.36zM22.48 4h-3.36c-1.856 0-3.36 1.432-3.36 3.2v3.2c0 1.766 1.504 3.2 3.36 3.2h3.36c1.855 0 3.36-1.434 3.36-3.2v-3.2c0-1.768-1.505-3.2-3.36-3.2v0zM7.36 10.4v-3.2h3.36v3.2h-3.36zM10.72 4h-3.36c-1.856 0-3.36 1.432-3.36 3.2v3.2c0 1.766 1.504 3.2 3.36 3.2h3.36c1.855 0 3.36-1.434 3.36-3.2v-3.2c0-1.768-1.505-3.2-3.36-3.2v0z"></path>
</svg>
