<!-- Generated by IcoMoon.io -->
<svg version="1.1" xmlns="http://www.w3.org/2000/svg" width="40" height="40" viewBox="0 0 40 40">
<title>mp-game_controller_round-</title>
<path fill="#ebebeb" d="M31.256 24.8h-3.2c-1.768 0-3.256 1.432-3.256 3.2v3.2c0 0.883-0.661 1.6-1.544 1.6h-6.4c-0.883 0-1.656-0.717-1.656-1.6v-3.2c0-1.768-1.376-3.2-3.144-3.2h-3.2c-0.883 0-1.656-0.717-1.656-1.6v-6.4c0-0.883 0.773-1.6 1.656-1.6h3.2c1.768 0 3.144-1.432 3.144-3.2v-3.2c0-0.883 0.773-1.6 1.656-1.6h6.4c0.883 0 1.544 0.717 1.544 1.6v3.2c0 1.768 1.488 3.2 3.256 3.2h3.2c0.883 0 1.544 0.717 1.544 1.6v6.4c0 0.883-0.661 1.6-1.544 1.6zM28 10.4v-3.2c0-1.768-1.376-3.2-3.144-3.2h-9.6c-1.768 0-3.256 1.432-3.256 3.2v3.2c0 0.883-0.661 1.6-1.544 1.6h-3.2c-1.768 0-3.256 1.432-3.256 3.2v9.602c0 1.766 1.459 3.198 3.226 3.2l3.189 0.002c0.883 0 1.586 0.717 1.586 1.6v3.197c0 1.768 1.488 3.2 3.256 3.2h9.6c1.768 0 3.144-1.432 3.144-3.2v-3.2c0-0.883 0.773-1.6 1.656-1.6h3.2c1.768 0 3.144-1.432 3.144-3.2v-9.6c0-1.768-1.376-3.2-3.144-3.2h-3.2c-0.883 0-1.656-0.717-1.656-1.6z"></path>
</svg>
