<!-- Generated by IcoMoon.io -->
<svg version="1.1" xmlns="http://www.w3.org/2000/svg" width="40" height="40" viewBox="0 0 40 40">
<title>mp-HD-</title>
<path fill="#ebebeb" d="M8.8 13.6v12.8h3.2v-4.8h3.2v4.8h3.2v-12.8h-3.2v4.8h-3.2v-4.8h-3.2zM28 17.6c0-0.442-0.358-0.8-0.8-0.8h-2.4v6.4h2.4c0.44 0 0.8-0.36 0.8-0.8v-4.8zM28.632 26.4h-7.032v-12.8h7.032c1.419 0 2.568 1.15 2.568 2.568v7.664c0 1.418-1.149 2.568-2.568 2.568v0zM4 4v6.4h3.2v-3.2h25.6v3.2h3.2v-6.4h-32zM32.8 29.6h3.2v6.4h-32v-6.4h3.2v3.2h25.6v-3.2z"></path>
</svg>
