<!-- Generated by IcoMoon.io -->
<svg version="1.1" xmlns="http://www.w3.org/2000/svg" width="40" height="40" viewBox="0 0 40 40">
<title>mp-key-1</title>
<path fill="#ebebeb" d="M26.234 20.261c-3.591 0-6.511-2.917-6.511-6.504s2.92-6.504 6.511-6.504c3.591 0 6.511 2.917 6.511 6.504s-2.92 6.504-6.511 6.504zM24.029 4.241c-3.605 0.789-6.509 3.694-7.311 7.293-0.661 2.958 0.039 5.742 1.576 7.888l-13.815 13.802c-0.636 0.634-0.636 1.663 0 2.299v0c0.636 0.636 1.667 0.636 2.301 0l1.17-1.169 1.105 1.104c0.636 0.636 1.667 0.636 2.301 0v0c0.636-0.634 0.636-1.663 0-2.299l-1.105-1.104 3.221-3.218 1.138 1.137c0.635 0.636 1.665 0.636 2.301 0v0c0.635-0.634 0.635-1.663 0-2.299l-1.138-1.137 4.826-4.821c2.145 1.519 4.922 2.207 7.871 1.546 3.595-0.803 6.498-3.703 7.287-7.298 1.558-7.098-4.624-13.275-11.729-11.724z"></path>
</svg>
