<!-- Generated by IcoMoon.io -->
<svg version="1.1" xmlns="http://www.w3.org/2000/svg" width="28" height="40" viewBox="0 0 28 40">
<title>mp-lock_close_cx_round-</title>
<path fill="#ebebeb" d="M18.594 28.194c-0.624 0.624-1.638 0.626-2.262 0l-1.131-1.131-1.131 1.131c-0.626 0.624-1.638 0.626-2.264 0-0.624-0.626-0.624-1.638 0-2.262l1.131-1.131-1.131-1.131c-0.624-0.626-0.624-1.638 0-2.264 0.626-0.624 1.638-0.624 2.264 0l1.131 1.131 1.131-1.131c0.624-0.624 1.637-0.624 2.262 0 0.626 0.626 0.626 1.638 0 2.264l-1.131 1.131 1.131 1.131c0.626 0.624 0.626 1.637 0 2.262v0zM23.2 31.201c0 0.883-0.717 1.6-1.6 1.6h-12.8c-0.885 0-1.6-0.717-1.6-1.6v-12.8c0-0.885 0.715-1.6 1.6-1.6h12.8c0.883 0 1.6 0.715 1.6 1.6v12.8zM12 10.401c0-1.765 1.435-3.2 3.2-3.2 1.763 0 3.2 1.6 3.2 3.2v3.2h-6.4v-3.2zM23.2 13.601h-1.6v-3.2c0-3.597-3.618-7.192-7.738-6.248-3.037 0.696-5.062 3.594-5.062 6.709v2.739h-1.6c-1.768 0-3.2 1.432-3.2 3.2v16c0 1.766 1.432 3.2 3.2 3.2h16c1.766 0 3.2-1.434 3.2-3.2v-16c0-1.768-1.434-3.2-3.2-3.2v0z"></path>
</svg>
