<!-- Generated by IcoMoon.io -->
<svg version="1.1" xmlns="http://www.w3.org/2000/svg" width="40" height="40" viewBox="0 0 40 40">
<title>mp-linkedin-</title>
<path fill="#ebebeb" d="M36 36h-6.4v-11.198c0-3.072-1.355-4.786-3.786-4.786-2.645 0-4.214 1.786-4.214 4.786v11.198h-6.4v-20.8h6.4v2.339c0 0 2.008-3.523 6.533-3.523 4.526 0 7.867 2.762 7.867 8.477v13.507zM7.907 11.874c-2.158 0-3.907-1.763-3.907-3.938 0-2.173 1.749-3.936 3.907-3.936 2.157 0 3.906 1.763 3.906 3.936 0.002 2.174-1.749 3.938-3.906 3.938v0zM4 36h8v-20.8h-8v20.8z"></path>
</svg>
