<!-- Generated by IcoMoon.io -->
<svg version="1.1" xmlns="http://www.w3.org/2000/svg" width="32" height="40" viewBox="0 0 32 40">
<title>mp-lire-</title>
<path fill="#ebebeb" d="M28.783 31.133v3.192c-7.056 1.248-6.89 1.954-8.995 1.571-3.166-0.576-4.56-2.579-9.781-1.277l-5.224 1.302v-3.192c2.059 0 2.365-1.168 3.243-3.026 0.85-1.8 1.333-3.38 1.526-4.954h-4.77v-3.192h4.79c-0.096-0.998-0.28-2.049-0.534-3.192h-4.256v-3.192h3.563c-0.712-5.835 3.832-11.172 9.922-11.172h7.315v6.384h-3.2v-3.192h-3.938c-4.301 0-7.592 3.826-6.939 7.98h9.277v3.192h-8.595c0.227 1.132 0.395 2.182 0.485 3.192h8.11v3.192h-8.136c-0.275 2.397-0.411 3.507-2.298 6.643 4.038-1.050 5.379-0.029 8.685 1.018 2.371 0.75 2.602-0.139 9.749-1.277z"></path>
</svg>
