<!-- Generated by IcoMoon.io -->
<svg version="1.1" xmlns="http://www.w3.org/2000/svg" width="42" height="40" viewBox="0 0 42 40">
<title>mp-menu_navigation_grid-</title>
<path fill="#ebebeb" d="M34.24 31.214c0 0.882-0.828 1.586-1.756 1.586h-5.040c-0.926 0-1.604-0.704-1.604-1.586v-4.8c0-0.882 0.679-1.614 1.604-1.614h5.040c0.927 0 1.756 0.733 1.756 1.614v4.8zM32.484 21.6h-5.040c-2.784 0-4.964 2.163-4.964 4.814v4.8c0 2.651 2.181 4.786 4.964 4.786h5.040c2.784 0 5.116-2.134 5.116-4.786v-4.8c0-2.651-2.332-4.814-5.116-4.814v0zM15.76 31.214c0 0.882-0.828 1.586-1.756 1.586h-5.040c-0.926 0-1.604-0.704-1.604-1.586v-4.8c0-0.882 0.679-1.614 1.604-1.614h5.040c0.927 0 1.756 0.733 1.756 1.614v4.8zM14.004 21.6h-5.040c-2.784 0-4.964 2.163-4.964 4.814v4.8c0 2.651 2.181 4.786 4.964 4.786h5.040c2.784 0 5.116-2.134 5.116-4.786v-4.8c0-2.651-2.332-4.814-5.116-4.814v0zM34.24 13.614c0 0.882-0.828 1.586-1.756 1.586h-5.040c-0.926 0-1.604-0.704-1.604-1.586v-4.8c0-0.882 0.679-1.614 1.604-1.614h5.040c0.927 0 1.756 0.733 1.756 1.614v4.8zM32.484 4h-5.040c-2.784 0-4.964 2.163-4.964 4.814v4.8c0 2.651 2.181 4.786 4.964 4.786h5.040c2.784 0 5.116-2.134 5.116-4.786v-4.8c0-2.651-2.332-4.814-5.116-4.814v0zM15.76 13.614c0 0.882-0.828 1.586-1.756 1.586h-5.040c-0.926 0-1.604-0.704-1.604-1.586v-4.8c0-0.882 0.679-1.614 1.604-1.614h5.040c0.927 0 1.756 0.733 1.756 1.614v4.8zM14.004 4h-5.040c-2.784 0-4.964 2.163-4.964 4.814v4.8c0 2.651 2.181 4.786 4.964 4.786h5.040c2.784 0 5.116-2.134 5.116-4.786v-4.8c0-2.651-2.332-4.814-5.116-4.814v0z"></path>
</svg>
