<!-- Generated by IcoMoon.io -->
<svg version="1.1" xmlns="http://www.w3.org/2000/svg" width="14" height="40" viewBox="0 0 14 40">
<title>mp-menu_option-2</title>
<path fill="#ebebeb" d="M9.6 32.8c-1.030 0-1.867-0.717-1.867-1.6s0.836-1.6 1.867-1.6c1.030 0 1.867 0.717 1.867 1.6s-0.836 1.6-1.867 1.6zM11.467 26.4h-3.733c-2.063 0-3.733 1.432-3.733 3.2v3.2c0 1.768 1.671 3.2 3.733 3.2h3.733c2.063 0 3.733-1.432 3.733-3.2v-3.2c0-1.768-1.671-3.2-3.733-3.2zM9.6 21.6c-1.030 0-1.867-0.717-1.867-1.6s0.836-1.6 1.867-1.6c1.030 0 1.867 0.717 1.867 1.6s-0.836 1.6-1.867 1.6zM11.467 15.2h-3.733c-2.063 0-3.733 1.432-3.733 3.2v3.2c0 1.768 1.671 3.2 3.733 3.2h3.733c2.063 0 3.733-1.432 3.733-3.2v-3.2c0-1.768-1.671-3.2-3.733-3.2zM9.6 10.4c-1.030 0-1.867-0.717-1.867-1.6s0.836-1.6 1.867-1.6c1.030 0 1.867 0.717 1.867 1.6s-0.836 1.6-1.867 1.6zM11.467 4h-3.733c-2.063 0-3.733 1.432-3.733 3.2v3.2c0 1.768 1.671 3.2 3.733 3.2h3.733c2.063 0 3.733-1.432 3.733-3.2v-3.2c0-1.768-1.671-3.2-3.733-3.2z"></path>
</svg>
