<!-- Generated by IcoMoon.io -->
<svg version="1.1" xmlns="http://www.w3.org/2000/svg" width="42" height="40" viewBox="0 0 42 40">
<title>mp-multitasking-1</title>
<path fill="#ebebeb" d="M34.24 24.667c0 0.883-0.756 1.733-1.683 1.733h-1.677v-12.928c0-1.77-1.51-3.072-3.368-3.072h-13.432v-1.733c0-0.883 0.749-1.467 1.677-1.467h16.8c0.927 0 1.683 0.584 1.683 1.467v16zM27.52 31.2c0 0.883-0.753 1.6-1.68 1.6h-16.8c-0.927 0-1.68-0.717-1.68-1.6v-16c0-0.885 0.753-1.6 1.68-1.6h16.8c0.927 0 1.68 0.715 1.68 1.6v16zM34.232 4h-20.148c-1.86 0-3.363 1.302-3.363 3.072v3.328h-3.357c-1.86 0-3.363 1.302-3.363 3.072v19.19c0 1.77 1.504 3.338 3.363 3.338h20.148c1.858 0 3.368-1.568 3.368-3.338v-3.062h3.352c1.858 0 3.368-1.568 3.368-3.338v-19.19c0-1.77-1.51-3.072-3.368-3.072v0z"></path>
</svg>
