<!-- Generated by IcoMoon.io -->
<svg version="1.1" xmlns="http://www.w3.org/2000/svg" width="40" height="40" viewBox="0 0 40 40">
<title>mp-magnet-1</title>
<path fill="#ebebeb" d="M32.8 10.4h-3.2v-1.6c0-0.883 0.717-1.6 1.6-1.6s1.6 0.717 1.6 1.6v1.6zM32.8 20c0 17.067-25.6 17.067-25.6 0v-6.4h3.2v6.4c0 12.8 19.2 12.8 19.2 0v-6.4h3.2v6.4zM8.8 7.2v0c0.883 0 1.6 0.717 1.6 1.6v1.6h-3.2v-1.6c0-0.883 0.717-1.6 1.6-1.6v0zM32.8 4h-3.2c-1.768 0-3.2 1.432-3.2 3.2v0 12.8c0 8.533-12.8 8.533-12.8 0v-12.8c0-1.768-1.432-3.2-3.2-3.2h-3.2c-1.768 0-3.2 1.432-3.2 3.2v0 12.8c0 21.333 32 21.333 32 0v-12.8c0-1.768-1.432-3.2-3.2-3.2v0z"></path>
</svg>
