<!-- Generated by IcoMoon.io -->
<svg version="1.1" xmlns="http://www.w3.org/2000/svg" width="40" height="40" viewBox="0 0 40 40">
<title>mp-music-2</title>
<path fill="#ebebeb" d="M16.781 10.4v-3.2h16.016v3.2h-16.016zM13.578 4v20.056c-1.602-0.544-2.015-0.856-3.181-0.856-3.54 0-6.397 2.866-6.397 6.4s2.852 6.4 6.39 6.4c3.538 0 6.39-2.866 6.39-6.4v-16h16.016v10.456c-1.602-0.544-2.015-0.856-3.181-0.856-3.54 0-6.397 2.866-6.397 6.4s2.852 6.4 6.39 6.4c3.538 0 6.39-2.866 6.39-6.4v-25.6h-22.422z"></path>
</svg>
