<!-- Generated by IcoMoon.io -->
<svg version="1.1" xmlns="http://www.w3.org/2000/svg" width="40" height="40" viewBox="0 0 40 40">
<title>mp-network_3-2</title>
<path fill="#ebebeb" d="M16.651 21.6v-3.2h3.2v3.2h-3.2zM23.2 21.6v-3.2h9.6v3.2h-9.6zM16.651 32.8v-3.2h3.2v3.2h-3.2zM23.2 32.8v-3.2h9.6v3.2h-9.6zM16.651 10.4v-3.2h3.2v3.2h-3.2zM23.2 10.4v-3.2h9.6v3.2h-9.6zM36 13.6v-9.6h-22.4v3.2h-6.4v-3.2h-3.2v28.8h9.6v3.2h22.4v-9.6h-22.4v3.2h-6.4v-8h6.4v3.2h22.4v-9.6h-22.4v3.2h-6.4v-8h6.4v3.2h22.4z"></path>
</svg>
