<!-- Generated by IcoMoon.io -->
<svg version="1.1" xmlns="http://www.w3.org/2000/svg" width="40" height="40" viewBox="0 0 40 40">
<title>mp-network_3_round-</title>
<path fill="#ebebeb" d="M18.251 18.4h1.6v3.2h-1.6c-0.883 0-1.6-0.717-1.6-1.6s0.717-1.6 1.6-1.6v0zM23.2 18.4h7.851c0.883 0 1.6 0.717 1.6 1.6s-0.717 1.6-1.6 1.6h-7.851v-3.2zM18.251 29.6h1.6v3.2h-1.6c-0.883 0-1.6-0.717-1.6-1.6s0.717-1.6 1.6-1.6v0zM23.2 29.6h7.851c0.883 0 1.6 0.717 1.6 1.6s-0.717 1.6-1.6 1.6h-7.851v-3.2zM18.251 7.2h1.6v3.2h-1.6c-0.883 0-1.6-0.717-1.6-1.6s0.717-1.6 1.6-1.6v0zM23.2 7.2h7.851c0.883 0 1.6 0.717 1.6 1.6s-0.717 1.6-1.6 1.6h-7.851v-3.2zM13.451 10.4c0 1.768 1.432 3.2 3.2 3.2h16c1.768 0 3.349-1.432 3.349-3.2v-3.2c0-1.768-1.581-3.2-3.349-3.2h-16c-1.768 0-3.2 1.432-3.2 3.2h-6.251v-3.2h-3.2v25.598c0 1.768 1.285 3.202 3.053 3.202h6.398c0 1.768 1.432 3.2 3.2 3.2h16c1.768 0 3.349-1.432 3.349-3.2v-3.2c0-1.768-1.581-3.2-3.349-3.2h-16c-1.768 0-3.2 1.432-3.2 3.2h-4.806c-0.88 0-1.445-0.714-1.445-1.594v-6.406h6.251c0 1.768 1.432 3.2 3.2 3.2h16c1.768 0 3.349-1.432 3.349-3.2v-3.2c0-1.768-1.581-3.2-3.349-3.2h-16c-1.768 0-3.2 1.432-3.2 3.2h-6.251v-8h6.251z"></path>
</svg>
