<!-- Generated by IcoMoon.io -->
<svg version="1.1" xmlns="http://www.w3.org/2000/svg" width="40" height="40" viewBox="0 0 40 40">
<title>mp-object_placement-</title>
<path fill="#ebebeb" d="M21.6 5.6v28.8c0 0.883-0.717 1.6-1.6 1.6s-1.6-0.717-1.6-1.6v-28.8c0-0.883 0.717-1.6 1.6-1.6s1.6 0.717 1.6 1.6v0zM12 28c0 0.883-0.717 1.6-1.6 1.6h-1.6c-0.883 0-1.6-0.717-1.6-1.6v-16c0-0.883 0.717-1.6 1.6-1.6h1.6c0.883 0 1.6 0.717 1.6 1.6v16zM12 7.2h-4.8c-1.766 0-3.2 1.432-3.2 3.2v19.2c0 1.768 1.434 3.2 3.2 3.2h4.8c1.766 0 3.2-1.432 3.2-3.2v-19.2c0-1.768-1.434-3.2-3.2-3.2v0zM32.8 28c0 0.883-0.717 1.6-1.6 1.6h-1.6c-0.883 0-1.6-0.717-1.6-1.6v-16c0-0.883 0.717-1.6 1.6-1.6h1.6c0.883 0 1.6 0.717 1.6 1.6v16zM32.8 7.2h-6.4c-0.883 0-1.6 0.717-1.6 1.6v20.8c0 1.768 1.434 3.2 3.2 3.2h4.8c1.766 0 3.2-1.432 3.2-3.2v-19.2c0-1.768-1.434-3.2-3.2-3.2v0z"></path>
</svg>
