<!-- Generated by IcoMoon.io -->
<svg version="1.1" xmlns="http://www.w3.org/2000/svg" width="40" height="40" viewBox="0 0 40 40">
<title>mp-object_connection_round-6</title>
<path fill="#ebebeb" d="M24.8 26.4c0-0.883 0.717-1.6 1.6-1.6h4.8c0.883 0 1.6 0.717 1.6 1.6v4.8c0 0.883-0.717 1.6-1.6 1.6h-4.8c-0.883 0-1.6-0.717-1.6-1.6v-4.8zM24.8 8.8c0-0.883 0.717-1.6 1.6-1.6h4.8c0.883 0 1.6 0.717 1.6 1.6v4.8c0 0.883-0.717 1.6-1.6 1.6h-4.8c-0.883 0-1.6-0.717-1.6-1.6v-4.8zM21.448 15.2c0 1.768 1.434 3.2 3.2 3.2h8c1.768 0 3.352-1.432 3.352-3.2v-8c0-1.768-1.584-3.2-3.352-3.2h-8c-1.766 0-3.048 1.432-3.048 3.2v4.8h-14.4v-8h-3.2v25.6c0 1.768 1.357 3.2 3.125 3.2h14.323c0 1.768 1.434 3.2 3.2 3.2h8c1.768 0 3.352-1.432 3.352-3.2v-8c0-1.768-1.584-3.2-3.352-3.2h-8c-1.766 0-3.048 1.432-3.048 3.2v4.8h-12.952c-0.883 0-1.448-0.717-1.448-1.6v-12.8h14.248z"></path>
</svg>
