<!-- Generated by IcoMoon.io -->
<svg version="1.1" xmlns="http://www.w3.org/2000/svg" width="40" height="40" viewBox="0 0 40 40">
<title>mp-pause_focus-1</title>
<path fill="#ebebeb" d="M22.909 24.364v0c0.803 0 1.455-0.652 1.455-1.455v-8.727c0-0.803-0.652-1.455-1.455-1.455s-1.455 0.652-1.455 1.455v8.727c0 0.803 0.652 1.455 1.455 1.455v0zM14.182 12.727v0c-0.803 0-1.455 0.652-1.455 1.455v8.727c0 0.803 0.652 1.455 1.455 1.455s1.455-0.652 1.455-1.455v-8.727c0-0.803-0.652-1.455-1.455-1.455v0zM30.182 24.364h2.909v-11.636h-2.909v11.636zM33.091 30.182v-1.455c0-0.803-0.652-1.455-1.455-1.455s-1.455 0.652-1.455 1.455v1.455h-1.455c-0.803 0-1.455 0.652-1.455 1.455s0.652 1.455 1.455 1.455h1.455v1.455c0 0.803 0.652 1.455 1.455 1.455s1.455-0.652 1.455-1.455v-1.455h1.455c0.803 0 1.455-0.652 1.455-1.455s-0.652-1.455-1.455-1.455h-1.455zM30.182 9.818h2.909v-2.909c0-1.607-1.302-2.909-2.909-2.909h-2.909v2.909h1.455c0.803 0 1.455 0.652 1.455 1.455v1.455zM4 24.364h2.909v-11.636h-2.909v11.636zM6.909 27.273h-2.909v2.909c0 1.607 1.302 2.909 2.909 2.909h2.909v-2.909h-1.455c-0.803 0-1.455-0.652-1.455-1.455v-1.455zM4 9.818h2.909v-1.455c0-0.803 0.652-1.455 1.455-1.455h1.455v-2.909h-2.909c-1.607 0-2.909 1.302-2.909 2.909v2.909zM12.727 33.091h11.636v-2.909h-11.636v2.909zM12.727 6.909h11.636v-2.909h-11.636v2.909z"></path>
</svg>
