<!-- Generated by IcoMoon.io -->
<svg version="1.1" xmlns="http://www.w3.org/2000/svg" width="40" height="40" viewBox="0 0 40 40">
<title>mp-pen-2</title>
<path fill="#ebebeb" d="M30.829 11.347l-19.791 20.034c-0.623 0.63-1.634 0.63-2.258 0-0.623-0.632-0.623-1.655 0-2.287l19.791-20.033c0.623-0.632 1.634-0.632 2.258 0v0c0.624 0.63 0.624 1.654 0 2.286zM35.517 8.612l-4.246-4.164c-0.629-0.619-1.637-0.59-2.253 0.045l-24.56 25.273c-0.294 0.302-0.458 0.708-0.458 1.133v3.784c0 0.894 0.714 1.316 1.597 1.316h3.662c0.417 0 0.818-0.015 1.116-0.309l25.144-24.801c0.642-0.635 0.642-1.644-0.002-2.278z"></path>
</svg>
