<!-- Generated by IcoMoon.io -->
<svg version="1.1" xmlns="http://www.w3.org/2000/svg" width="40" height="40" viewBox="0 0 40 40">
<title>mp-phone_rotation-2</title>
<path fill="#ebebeb" d="M34.371 29.6h-0.011c-0.901 0-1.631 0.714-1.631 1.594v0.013c0 0.88-0.73 1.594-1.629 1.594h-18.007c-0.901 0-1.631-0.714-1.631-1.594v-14.558l1.332 1.206c0.658 0.595 1.685 0.56 2.297-0.080 0.617-0.645 0.581-1.656-0.080-2.258l-3.030-2.754c-1.258-1.144-3.205-1.142-4.46 0.003l-3.002 2.741c-0.663 0.605-0.692 1.622-0.067 2.264l0.039 0.042c0.607 0.624 1.611 0.662 2.267 0.088l1.431-1.253v16.152c0 1.768 1.466 3.2 3.272 3.2h21.268c1.808 0 3.272-1.432 3.272-3.2v-1.606c0-0.88-0.73-1.594-1.629-1.594v0zM32.728 8.794c0-0.88-0.73-1.594-1.629-1.594h-6.555c-0.901 0-1.631 0.714-1.631 1.594v14.413c0 0.88 0.73 1.594 1.631 1.594h6.555c0.9 0 1.629-0.714 1.629-1.594v-14.413zM36 7.2v17.6c0 1.768-1.464 3.2-3.272 3.2h-9.816c-1.806 0-3.272-1.432-3.272-3.2v-17.6c0-1.768 1.466-3.2 3.272-3.2h9.816c1.808 0 3.272 1.432 3.272 3.2v0zM29.456 19.994v0.013c0 0.88-0.73 1.594-1.629 1.594h-0.011c-0.901 0-1.631-0.714-1.631-1.594v-0.013c0-0.88 0.73-1.594 1.631-1.594h0.011c0.9 0 1.629 0.714 1.629 1.594v0z"></path>
</svg>
