<!-- Generated by IcoMoon.io -->
<svg version="1.1" xmlns="http://www.w3.org/2000/svg" width="40" height="40" viewBox="0 0 40 40">
<title>mp-profile-3</title>
<path fill="#ebebeb" d="M20 20c-3.546 0-6.43-2.87-6.43-6.4s2.884-6.4 6.43-6.4c3.546 0 6.43 2.87 6.43 6.4s-2.884 6.4-6.43 6.4zM26.041 21.077c2.551-2.043 4.038-5.347 3.492-8.965-0.635-4.197-4.143-7.555-8.377-8.045-5.844-0.677-10.802 3.851-10.802 9.533 0 3.024 1.408 5.718 3.604 7.477-5.395 2.018-9.334 6.755-9.951 13.149-0.090 0.946 0.651 1.774 1.606 1.774 0.818 0 1.516-0.614 1.588-1.426 0.645-7.141 6.138-11.374 12.798-11.374s12.154 4.234 12.798 11.374c0.072 0.811 0.77 1.426 1.588 1.426 0.955 0 1.696-0.829 1.606-1.774-0.617-6.394-4.556-11.131-9.951-13.149z"></path>
</svg>
