<!-- Generated by IcoMoon.io -->
<svg version="1.1" xmlns="http://www.w3.org/2000/svg" width="40" height="40" viewBox="0 0 40 40">
<title>mp-printer-1</title>
<path fill="#ebebeb" d="M32.8 28.8c0 0.442-0.358 0.8-0.8 0.8h-0.8v-6.4h-22.4v6.4h-0.8c-0.442 0-0.8-0.358-0.8-0.8v-10.4c0-0.883 0.717-1.6 1.6-1.6h22.4c0.883 0 1.6 0.717 1.6 1.6v10.4zM28 31.2c0 0.883-0.717 1.6-1.6 1.6h-12.8c-0.883 0-1.6-0.717-1.6-1.6v-4.8h16v4.8zM10.4 8.8c0-0.883 0.717-1.6 1.6-1.6h16c0.883 0 1.6 0.717 1.6 1.6v4.8h-19.2v-4.8zM32.8 13.6v-6.4c0-1.768-1.432-3.2-3.2-3.2h-19.2c-1.768 0-3.2 1.432-3.2 3.2v6.4c-1.768 0-3.2 1.432-3.2 3.2v12.8c0 1.766 1.432 3.2 3.2 3.2h1.6c0 1.766 1.432 3.2 3.2 3.2h16c1.768 0 3.2-1.434 3.2-3.2h1.6c1.768 0 3.2-1.434 3.2-3.2v-12.8c0-1.768-1.432-3.2-3.2-3.2v0z"></path>
</svg>
