<!-- Generated by IcoMoon.io -->
<svg version="1.1" xmlns="http://www.w3.org/2000/svg" width="44" height="40" viewBox="0 0 44 40">
<title>mp-projector-</title>
<path fill="#ebebeb" d="M30.039 12.366l1.966-3.931c0.268-0.539 0.82-0.88 1.422-0.88 1.18 0 1.95 1.244 1.422 2.302l-1.966 3.931c-0.27 0.539-0.82 0.878-1.422 0.878-1.182 0-1.95-1.243-1.422-2.3v0zM12.261 9.858c-0.528-1.058 0.24-2.302 1.422-2.302 0.603 0 1.152 0.341 1.422 0.88l1.966 3.931c0.528 1.058-0.242 2.3-1.422 2.3-0.603 0-1.154-0.34-1.422-0.878l-1.966-3.931zM21.778 9.333v-3.556c0-0.981 0.796-1.778 1.778-1.778s1.778 0.796 1.778 1.778v3.556c0 0.983-0.796 1.778-1.778 1.778s-1.778-0.795-1.778-1.778v0zM36 28.889h-3.556v-3.556h1.778c0.981 0 1.778 0.796 1.778 1.778v1.778zM28.889 30.667c0 0.983-0.796 1.778-1.778 1.778h-7.111c-0.983 0-1.778-0.795-1.778-1.778v-7.111c0-0.981 0.795-1.778 1.778-1.778h7.111c0.981 0 1.778 0.796 1.778 1.778v7.111zM14.667 28.889h-7.111v-1.778c0-0.981 0.795-1.778 1.778-1.778h5.333v3.556zM32.444 21.778c0-1.963-1.593-3.556-3.556-3.556h-10.667c-1.964 0-3.556 1.593-3.556 3.556h-7.111c-1.964 0-3.556 1.593-3.556 3.556v8.889c0 0.983 0.795 1.778 1.778 1.778 0.981 0 1.778-0.795 1.778-1.778v-1.778h7.111c0 1.964 1.591 3.556 3.556 3.556h10.667c1.963 0 3.556-1.591 3.556-3.556h3.556v1.778c0 0.983 0.795 1.778 1.778 1.778 0.981 0 1.778-0.795 1.778-1.778v-8.889c0-1.963-1.593-3.556-3.556-3.556h-3.556z"></path>
</svg>
