<!-- Generated by IcoMoon.io -->
<svg version="1.1" xmlns="http://www.w3.org/2000/svg" width="40" height="40" viewBox="0 0 40 40">
<title>mp-remote-1</title>
<path fill="#ebebeb" d="M31.657 10.614l-2.269-2.269c-0.628-0.627-1.643-0.627-2.269 0l-4.961 4.959 4.54 4.539 4.959-4.959c0.628-0.626 0.628-1.642 0-2.269v0zM24.428 20.113l-4.54-4.54-11.543 11.544c-0.628 0.626-0.628 1.642 0 2.269l2.269 2.269c0.628 0.627 1.643 0.627 2.269 0l11.544-11.542zM35.061 14.018l-21.042 21.042c-1.253 1.253-3.285 1.253-4.539 0l-4.539-4.539c-1.253-1.253-1.253-3.285 0-4.54l21.041-21.040c1.253-1.255 3.287-1.255 4.54 0l4.539 4.539c1.253 1.253 1.253 3.285 0 4.539v0zM17.618 20.113v0c-0.626 0.626-0.626 1.642 0 2.269 0.628 0.626 1.643 0.626 2.269 0 0.628-0.627 0.628-1.643 0-2.269v0c-0.626-0.628-1.642-0.628-2.269 0v0zM15.349 24.652c0.626 0.627 0.626 1.643 0 2.269-0.628 0.627-1.643 0.627-2.269 0-0.628-0.626-0.628-1.642 0-2.269v0c0.626-0.626 1.642-0.626 2.269 0v0z"></path>
</svg>
