<!-- Generated by IcoMoon.io -->
<svg version="1.1" xmlns="http://www.w3.org/2000/svg" width="40" height="40" viewBox="0 0 40 40">
<title>mp-rings-</title>
<path fill="#ebebeb" d="M29.602 32.8c-1.765 0-3.2-1.435-3.2-3.2s1.435-3.2 3.2-3.2c1.765 0 3.2 1.435 3.2 3.2s-1.435 3.2-3.2 3.2zM31.2 23.426v-19.426h-3.2v19.426c-3.2 0.714-4.798 3.195-4.798 6.174 0 3.534 2.866 6.4 6.4 6.4s6.398-2.866 6.398-6.4c0-2.979-1.6-5.461-4.8-6.174zM10.402 32.8c-1.765 0-3.2-1.435-3.2-3.2s1.435-3.2 3.2-3.2c1.765 0 3.2 1.435 3.2 3.2s-1.435 3.2-3.2 3.2zM12 23.426v-19.426h-3.2v19.426c-3.2 0.714-4.798 3.195-4.798 6.174 0 3.534 2.866 6.4 6.4 6.4s6.398-2.866 6.398-6.4c0-2.979-1.6-5.461-4.8-6.174z"></path>
</svg>
