<!-- Generated by IcoMoon.io -->
<svg version="1.1" xmlns="http://www.w3.org/2000/svg" width="40" height="40" viewBox="0 0 40 40">
<title>mp-round-</title>
<path fill="#ebebeb" d="M29.6 32.8c-1.765 0-3.2-1.435-3.2-3.2s1.435-3.2 3.2-3.2c1.765 0 3.2 1.435 3.2 3.2s-1.435 3.2-3.2 3.2zM13.6 29.6c0 1.765-1.435 3.2-3.2 3.2s-3.2-1.435-3.2-3.2c0-1.765 1.435-3.2 3.2-3.2s3.2 1.435 3.2 3.2zM31.2 23.426v-16.226c0-1.766-1.432-3.2-3.2-3.2h-4.8c-0.883 0-1.6 0.717-1.6 1.6v0c0 0.883 0.717 1.6 1.6 1.6h3.2c0.883 0 1.6 0.717 1.6 1.6v6.387l-16 3.963v-2.35h1.6c0.883 0 1.6-0.717 1.6-1.6v0c0-0.883-0.717-1.6-1.6-1.6h-6.4c-0.883 0-1.6 0.717-1.6 1.6v0c0 0.883 0.717 1.6 1.6 1.6h1.6v6.626c-3.213 0.834-5.459 4.069-4.626 7.693 0.531 2.302 2.398 4.174 4.699 4.706 4.198 0.97 7.926-2.192 7.926-6.224 0-2.979-2.045-5.461-4.8-6.174v-0.979l16-3.963v4.942c-3.213 0.834-5.459 4.069-4.626 7.693 0.531 2.302 2.398 4.174 4.699 4.706 4.198 0.97 7.926-2.192 7.926-6.224 0-2.979-2.045-5.461-4.8-6.174z"></path>
</svg>
