<!-- Generated by IcoMoon.io -->
<svg version="1.1" xmlns="http://www.w3.org/2000/svg" width="24" height="40" viewBox="0 0 24 40">
<title>mp-road_round-</title>
<path fill="#ebebeb" d="M9.269 32.8h9.6c0.883 0 1.131-0.717 1.131-1.6v-22.4c0-0.883-0.248-1.6-1.131-1.6h-3.669v1.6c0 0.883-0.598 1.6-1.483 1.6h0.118c-0.885 0-1.835-0.717-1.835-1.6v-1.6h-2.731c-0.883 0-2.069 0.717-2.069 1.6v22.4c0 0.883 1.186 1.6 2.069 1.6v0zM23.2 32.8c0 1.768-1.432 3.2-3.2 3.2h-12.8c-1.766 0-3.2-1.432-3.2-3.2v-25.6c0-1.768 1.434-3.2 3.2-3.2h12.8c1.768 0 3.2 1.432 3.2 3.2v25.6zM14.069 16.8v0c0.883 0 1.6-0.717 1.6-1.6s-0.717-1.6-1.6-1.6c-0.883 0-1.6 0.717-1.6 1.6s0.717 1.6 1.6 1.6v0zM14.069 23.2v0c0.883 0 1.6-0.717 1.6-1.6s-0.717-1.6-1.6-1.6c-0.883 0-1.6 0.717-1.6 1.6s0.717 1.6 1.6 1.6v0zM12.469 28v0c0-0.883 0.717-1.6 1.6-1.6s1.6 0.717 1.6 1.6c0 0.883-0.717 1.6-1.6 1.6s-1.6-0.717-1.6-1.6v0z"></path>
</svg>
