<!-- Generated by IcoMoon.io -->
<svg version="1.1" xmlns="http://www.w3.org/2000/svg" width="40" height="40" viewBox="0 0 40 40">
<title>mp-rss_cover-1</title>
<path fill="#ebebeb" d="M15.222 28.085h-1.6c-0.883 0-1.6-0.717-1.6-1.6v-1.6c1.768 0 3.2 1.432 3.2 3.2v0zM21.6 28h-3.2c0-3.2-2.87-6.315-6.4-6.315v-3.2c5.302 0 9.6 4.715 9.6 9.515v0zM27.917 26.245c0.107 0.955-0.634 1.755-1.595 1.755h-1.499c0-6.4-6.422-12.715-12.822-12.715v-1.501c0-0.96 0.854-1.706 1.808-1.6 7.402 0.827 13.282 6.661 14.109 14.061v0zM32.8 31.2c0 0.885-0.717 1.6-1.6 1.6h-22.4c-0.883 0-1.6-0.715-1.6-1.6v-22.4c0-0.883 0.717-1.6 1.6-1.6h22.4c0.883 0 1.6 0.717 1.6 1.6v22.4zM32.8 4h-25.6c-1.768 0-3.2 1.434-3.2 3.2v25.6c0 1.768 1.432 3.2 3.2 3.2h25.6c1.768 0 3.2-1.432 3.2-3.2v-25.6c0-1.766-1.432-3.2-3.2-3.2v0z"></path>
</svg>
