<!-- Generated by IcoMoon.io -->
<svg version="1.1" xmlns="http://www.w3.org/2000/svg" width="42" height="40" viewBox="0 0 42 40">
<title>mp-shopping_cart_close_round-</title>
<path fill="#ebebeb" d="M17.271 26.405l1.19-1.2-1.19-1.2c-0.658-0.664-0.658-1.738 0-2.4 0.658-0.664 1.724-0.664 2.381 0l1.19 1.2 1.19-1.2c0.658-0.664 1.724-0.664 2.382 0 0.657 0.662 0.657 1.736 0 2.4l-1.19 1.2 1.19 1.2c0.657 0.664 0.657 1.738 0 2.4-0.658 0.664-1.724 0.664-2.382 0l-1.19-1.2-1.19 1.2c-0.657 0.664-1.722 0.664-2.381 0-0.658-0.662-0.658-1.736 0-2.4v0zM30.034 31.224c-0.15 0.801-0.845 1.382-1.653 1.382h-15.044c-0.823 0-1.525-0.599-1.662-1.417l-2.010-12.162h22.658l-2.29 12.197zM35.993 15.632h-3.367l-5.931-10.664c-0.465-0.811-1.495-1.242-2.3-0.774s-1.081 1.736-0.616 2.548l4.96 8.891h-15.793l4.96-8.967c0.465-0.811 0.189-2.003-0.616-2.471s-1.835 0.039-2.3 0.85l-5.933 10.588h-3.367c-2.013 0-2.68 3.395 0.562 3.395l2.337 14.137c0.271 1.636 1.675 2.836 3.322 2.836h17.864c1.646 0 3.051-1.2 3.322-2.836l2.337-14.137c3.246 0 2.571-3.395 0.561-3.395v0z"></path>
</svg>
