<!-- Generated by IcoMoon.io -->
<svg version="1.1" xmlns="http://www.w3.org/2000/svg" width="40" height="40" viewBox="0 0 40 40">
<title>mp-steering_wheel-</title>
<path fill="#ebebeb" d="M27.838 21.6c0.211-1.042 0.219-2.123 0-3.2h4.85c0.147 1.173 0.149 2.018 0 3.2h-4.85zM24.8 31.858v-5.494c0.766-0.296 1.229-0.936 1.563-1.563h5.494c-1.301 3.2-3.858 5.757-7.058 7.058v0zM20 24.8c-6.344 0-6.344-9.6 0-9.6 6.342 0 6.342 9.6 0 9.6v0zM18.4 32.8h3.2v-4.8h-3.2v4.8zM15.2 31.858c-3.2-1.301-5.757-3.858-7.058-7.058h5.493c0.448 0.592 1.565 1.117 1.565 1.563v5.494zM7.31 18.4h4.851c-0.213 1.042-0.219 2.123 0 3.2h-4.851c-0.147-1.173-0.149-2.018 0-3.2v0zM20 7.2c5.36 0 9.954 3.315 11.858 8h-5.494c-1.461-1.933-3.755-3.2-6.363-3.2-2.61 0-4.904 1.267-6.365 3.2h-5.493c1.902-4.685 6.498-8 11.858-8v0zM20 4c-8.837 0-16 7.163-16 16s7.163 16 16 16c8.837 0 16-7.163 16-16s-7.163-16-16-16v0z"></path>
</svg>
