<!-- Generated by IcoMoon.io -->
<svg version="1.1" xmlns="http://www.w3.org/2000/svg" width="30" height="40" viewBox="0 0 30 40">
<title>mp-settings-2</title>
<path fill="#ebebeb" d="M22.857 20c-0.605 0-1.714-0.115-1.714-0.294v16.294h3.429v-16.294c0 0.179-1.109 0.294-1.714 0.294zM24.571 7.494v-3.494h-3.429v3.494c-1.714 0.661-3.429 2.419-3.429 4.506 0 2.651 2.302 4.8 5.143 4.8s5.143-2.149 5.143-4.8c0-2.086-1.714-3.845-3.429-4.506zM10.857 20.294v-16.294h-3.429v16.294c0.538-0.179 1.109-0.294 1.714-0.294s1.714 0.115 1.714 0.294zM14.286 28c0 2.086-1.714 3.845-3.429 4.506v3.494h-3.429v-3.494c-1.714-0.661-3.429-2.419-3.429-4.506 0-2.651 2.302-4.8 5.143-4.8s5.143 2.149 5.143 4.8z"></path>
</svg>
