<!-- Generated by IcoMoon.io -->
<svg version="1.1" xmlns="http://www.w3.org/2000/svg" width="47" height="40" viewBox="0 0 47 40">
<title>mp-swipe_left-</title>
<path fill="#ebebeb" d="M39.467 11.164h-3.733c-1.030 0-1.867 0.795-1.867 1.774s0.836 1.774 1.867 1.774h3.733c1.030 0 1.867-0.795 1.867-1.774s-0.836-1.774-1.867-1.774v0zM11.192 16.441c-0.588-0.559-0.172-1.729 0.661-1.729h9.587c1.032 0 1.867-0.795 1.867-1.774s-0.834-1.774-1.867-1.774h-9.583c-0.833 0-1.249-0.74-0.661-1.298l3.138-2.951c0.73-0.694 0.73-1.724 0-2.417-0.728-0.694-1.911-0.646-2.641 0.046l-5.936 5.665-0.665 0.646c-1.456 1.385-1.456 3.639 0 5.023l6.602 6.286c0.728 0.694 1.91 0.713 2.639 0.021 0.728-0.694 0.728-1.96 0-2.653l-3.142-3.090zM40.562 27.201l-0.62 6.309c-0.349 1.658-1.882 2.485-3.661 2.485h-9.025c-0.614 0-1.182 0.080-1.529-0.401l-4.025-6.965c-0.506-0.697-0.401-1.639 0.228-2.237 0.81-0.77 2.186-0.66 2.845 0.231l1.624 2.116v-15.067c0-0.979 0.773-1.774 1.805-1.774 1.325 0 1.805 1.146 1.805 1.774l0.013 8.946 8.060 0.706c1.786 0.564 2.849 2.123 2.479 3.877v0z"></path>
</svg>
