<!-- Generated by IcoMoon.io -->
<svg version="1.1" xmlns="http://www.w3.org/2000/svg" width="40" height="40" viewBox="0 0 40 40">
<title>mp-sign_round-2</title>
<path fill="#ebebeb" d="M15.2 18.4c0-0.883 0.717-1.6 1.6-1.6s1.6 0.717 1.6 1.6c0 0.883-0.717 1.6-1.6 1.6s-1.6-0.717-1.6-1.6v0zM20 18.4c0-0.883 0.717-1.6 1.6-1.6s1.6 0.717 1.6 1.6c0 0.883-0.717 1.6-1.6 1.6s-1.6-0.717-1.6-1.6v0zM10.499 18.4c0-0.883 0.717-1.6 1.6-1.6 0.885 0 1.6 0.717 1.6 1.6s-0.715 1.6-1.6 1.6c-0.883 0-1.6-0.717-1.6-1.6v0zM24.8 13.6c0.883 0 1.6 0.717 1.6 1.6v6.4c0 0.883-0.717 1.6-1.6 1.6h-16c-0.883 0-1.6-0.717-1.6-1.6v-6.4c0-0.883 0.717-1.6 1.6-1.6h16zM13.6 10.4h6.4v-3.2h-6.4v3.2zM32.8 4h-27.2c-0.883 0-1.6 0.717-1.6 1.6s0.717 1.6 1.6 1.6h4.8v3.2h-3.2c-1.768 0-3.2 1.434-3.2 3.2v9.6c0 1.766 1.432 3.2 3.2 3.2h19.2c1.768 0 3.2-1.434 3.2-3.2v-9.6c0-1.766-1.432-3.2-3.2-3.2h-3.2v-3.2h8c0.883 0 1.6 0.717 1.6 1.6v25.6c0 0.883 0.717 1.6 1.6 1.6s1.6-0.717 1.6-1.6v-27.2c0-1.766-1.432-3.2-3.2-3.2v0z"></path>
</svg>
