<!-- Generated by IcoMoon.io -->
<svg version="1.1" xmlns="http://www.w3.org/2000/svg" width="40" height="40" viewBox="0 0 40 40">
<title>mp-shop_center_round-</title>
<path fill="#ebebeb" d="M32.515 8.608c-0.099-0.802-0.782-1.408-1.59-1.408h-3.966c0.379 2.582 0.71 6.109 0.154 8.251 2.574 0.211 4.741-0.309 5.49-0.733 0.309-0.933 0.253-3.374-0.086-6.11v0zM29.6 18.646c-1.811 0.138-3.85 0.027-5.53-0.536-1.288 0.386-2.856 0.594-4.411 0.594-1.514 0-2.997-0.198-4.178-0.595-1.368 0.411-3.125 0.651-5.082 0.578v12.514c0 0.883 0.715 1.6 1.6 1.6h6.4v-4.8c0-0.883 0.715-1.6 1.6-1.6 0.883 0 1.6 0.717 1.6 1.6v4.8h6.4c0.883 0 1.6-0.717 1.6-1.6v-12.554zM12.863 15.392c-0.494-2.182-0.208-5.648 0.126-8.192h-3.957c-0.822 0-1.506 0.627-1.594 1.445-0.306 2.813-0.331 5.312-0.013 6.243 1.222 0.683 3.962 0.688 5.437 0.504v0zM16.018 14.888c1.605 0.896 6.373 0.752 7.998-0.17 0.36-1.091 0.222-4.243-0.283-7.518h-7.526c-0.462 3.368-0.562 6.6-0.189 7.688v0zM34.986 16.907c-0.483 0.482-1.259 0.867-2.186 1.16v14.733c0 1.766-1.434 3.2-3.2 3.2h-19.2c-1.768 0-3.2-1.434-3.2-3.2v-14.59c-1.008-0.296-1.832-0.725-2.299-1.302-1.357-1.68-0.898-6.894-0.445-10.158 0.219-1.581 1.573-2.749 3.168-2.749h24.685c1.579 0 2.92 1.142 3.163 2.702 0.514 3.307 1.056 8.662-0.486 10.205v0zM15.2 20c-0.885 0-1.6 0.717-1.6 1.6v3.2c0 0.883 0.715 1.6 1.6 1.6 0.883 0 1.6-0.717 1.6-1.6v-3.2c0-0.883-0.717-1.6-1.6-1.6v0zM26.4 21.6v3.2c0 0.883-0.717 1.6-1.6 1.6-0.885 0-1.6-0.717-1.6-1.6v-3.2c0-0.883 0.715-1.6 1.6-1.6 0.883 0 1.6 0.717 1.6 1.6v0z"></path>
</svg>
