<!-- Generated by IcoMoon.io -->
<svg version="1.1" xmlns="http://www.w3.org/2000/svg" width="40" height="40" viewBox="0 0 40 40">
<title>mp-shopping_bag_close-</title>
<path fill="#ebebeb" d="M15.475 27.142l2.262 2.255 2.262-2.255 2.264 2.255 2.262-2.255-2.262-2.255 2.262-2.255-2.262-2.257-2.264 2.257-2.262-2.257-2.262 2.257 2.262 2.255-2.262 2.255zM7.2 32.81v-15.948h25.6v15.948h-25.6zM20 7.175c3.616 0 6.755 3.308 7.702 6.497h-15.549c0.715-3.19 4.013-6.497 7.846-6.497v0zM31.003 13.673c-0.979-4.784-5.616-9.673-11.003-9.673-5.55 0-10.304 4.888-11.077 9.673h-4.923v22.327h32v-22.327h-4.997z"></path>
</svg>
