<!-- Generated by IcoMoon.io -->
<svg version="1.1" xmlns="http://www.w3.org/2000/svg" width="40" height="40" viewBox="0 0 40 40">
<title>mp-truck_round-</title>
<path fill="#ebebeb" d="M32.8 21.6h-6.4v-6.4h4.8c0.883 0 1.6 0.717 1.6 1.6v4.8zM32.8 28h-1.246c-0.878-0.976-2.138-1.6-3.554-1.6-0.565 0-1.098 0.115-1.6 0.294v-1.894h6.4v3.2zM28 32.8c-0.882 0-1.6-0.718-1.6-1.6s0.718-1.6 1.6-1.6c0.882 0 1.6 0.718 1.6 1.6s-0.718 1.6-1.6 1.6v0zM23.2 12v16h-4.026c-0.714-2.755-3.195-4.8-6.174-4.8-1.739 0-3.31 0.698-4.459 1.827-0.499 0.49-1.341 0.118-1.341-0.581v-15.646c0-0.883 0.717-1.6 1.6-1.6h12.8c0.883 0 1.6 0.717 1.6 1.6v3.2zM15.755 31.2c-0.555 0.952-1.576 1.6-2.755 1.6s-2.2-0.648-2.755-1.6c-0.275-0.472-0.445-1.014-0.445-1.6s0.17-1.128 0.445-1.6c0.555-0.952 1.576-1.6 2.755-1.6s2.2 0.648 2.755 1.6c0.275 0.472 0.445 1.014 0.445 1.6s-0.17 1.128-0.445 1.6v0zM32.8 12h-6.4v-4.8c0-1.768-1.432-3.2-3.2-3.2h-16c-1.768 0-3.2 1.432-3.2 3.2v21.174c0 1.56 1.266 2.826 2.826 2.826 0.715 2.755 3.195 4.8 6.174 4.8s5.459-2.045 6.174-4.8h4.026c0 2.651 2.149 4.8 4.8 4.8s4.8-2.149 4.8-4.8c1.768 0 3.2-1.432 3.2-3.2v-12.8c0-1.768-1.432-3.2-3.2-3.2v0z"></path>
</svg>
