<!-- Generated by IcoMoon.io -->
<svg version="1.1" xmlns="http://www.w3.org/2000/svg" width="20" height="40" viewBox="0 0 20 40">
<title>mp-thermometer-1</title>
<path fill="#ebebeb" d="M12.028 32.8c-2.653 0-4.851-2.154-4.851-4.8 0-2.083 1.564-3.842 3.168-4.506v-3.494h3.209v3.494c1.604 0.664 3.249 2.422 3.249 4.506 0 2.646-2.121 4.8-4.774 4.8v0zM10.424 16.8h3.209v-3.2h-3.209v3.2zM10.424 8.8c0-0.883 0.719-1.6 1.604-1.6s1.604 0.717 1.604 1.6v1.6h-3.209v-1.6zM16.763 21.637v-14.437c0-1.768-1.357-3.2-3.13-3.2h-3.209c-1.773 0-3.287 1.432-3.287 3.2v14.437c-1.604 1.733-3.622 4.643-3.032 7.859 0.574 3.12 3.072 5.682 6.186 6.326 5.18 1.072 9.709-2.845 9.709-7.822 0-2.608-1.633-4.904-3.237-6.363v0z"></path>
</svg>
