<!-- Generated by IcoMoon.io -->
<svg version="1.1" xmlns="http://www.w3.org/2000/svg" width="40" height="40" viewBox="0 0 40 40">
<title>mp-thermometer_f-1</title>
<path fill="#ebebeb" d="M20 12v0c0 0.883-0.717 1.6-1.6 1.6h-4.8v1.6c0 0.883-0.717 1.6-1.6 1.6s-1.6-0.717-1.6-1.6v-8c0-1.768 1.432-3.2 3.2-3.2h4.8c0.883 0 1.6 0.717 1.6 1.6s-0.717 1.6-1.6 1.6h-3.2c-0.883 0-1.6 0.717-1.6 1.6v1.6h4.8c0.883 0 1.6 0.717 1.6 1.6v0zM4 5.6v0c0-0.883 0.717-1.6 1.6-1.6s1.6 0.717 1.6 1.6c0 0.883-0.717 1.6-1.6 1.6s-1.6-0.717-1.6-1.6v0zM28 32.8c-2.646 0-4.8-2.154-4.8-4.8 0-2.083 1.342-3.842 3.2-4.506v-3.494h3.2v3.494c1.858 0.664 3.2 2.422 3.2 4.506 0 2.646-2.154 4.8-4.8 4.8v0zM29.6 8.8v1.6h-3.2v-1.6c0-0.883 0.717-1.6 1.6-1.6s1.6 0.717 1.6 1.6v0zM26.4 16.8h3.2v-3.2h-3.2v3.2zM32.8 21.637v-14.437c0-1.768-1.432-3.2-3.2-3.2h-3.2c-1.768 0-3.2 1.432-3.2 3.2v14.437c-2.294 1.733-3.651 4.643-3.062 7.859 0.571 3.12 3.043 5.682 6.149 6.326 5.166 1.072 9.714-2.845 9.714-7.822 0-2.608-1.267-4.904-3.2-6.363v0z"></path>
</svg>
