<!-- Generated by IcoMoon.io -->
<svg version="1.1" xmlns="http://www.w3.org/2000/svg" width="40" height="40" viewBox="0 0 40 40">
<title>mp-thermometer_down-1</title>
<path fill="#ebebeb" d="M7.459 20.006l-2.874-2.339c-0.746-0.608-0.786-1.733-0.083-2.39v0c0.605-0.566 1.542-0.573 2.155-0.014l1.203 1.098 0.070-10.771c0.006-0.885 0.728-1.595 1.613-1.589 0.883 0.006 1.594 0.728 1.587 1.611l-0.069 10.496 1.259-1.014c0.634-0.51 1.552-0.459 2.125 0.12l0.131 0.131c0.667 0.675 0.597 1.781-0.149 2.366l-2.974 2.333c-1.176 0.923-2.835 0.907-3.995-0.037v0zM30.248 32.205c-3.045 1.659-6.55-0.563-6.672-4.027-0.064-1.84 0.883-3.523 2.186-4.4 0.437-0.294 0.698-0.784 0.698-1.31v-2.467h3.2v2.544c0 0.549 0.286 1.048 0.749 1.346 1.298 0.834 2.379 2.358 2.379 4.11 0 1.808-1.037 3.386-2.539 4.205v0zM26.57 16.8h3.2v-3.2h-3.2v3.2zM28.17 7.2v0c0.883 0 1.6 0.717 1.6 1.6v1.6h-3.2v-1.6c0-0.883 0.717-1.6 1.6-1.6v0zM32.859 21.298v-14.098c0-1.766-1.434-3.2-3.2-3.2h-3.2c-1.768 0-3.2 1.434-3.2 3.2v14.106c0 0.211-0.086 0.406-0.237 0.557-2.808 2.8-4.835 9.15 0.936 13.171 1.085 0.755 2.85 0.994 4.17 0.965 4.339-0.093 7.878-3.638 7.878-7.998 0-2.475-1.394-4.669-2.904-6.134-0.155-0.15-0.243-0.35-0.243-0.568v0z"></path>
</svg>
