<!-- Generated by IcoMoon.io -->
<svg version="1.1" xmlns="http://www.w3.org/2000/svg" width="47" height="40" viewBox="0 0 47 40">
<title>mp-video_camera-</title>
<path fill="#ebebeb" d="M37.882 24.249v4.678l-4.203-2.734 4.203-2.348v0.404zM7.765 32.077v-11.769h18.824v11.769h-18.824zM11.864 11.642c1.039 0 1.882 0.879 1.882 1.961 0 1.081-0.843 1.961-1.882 1.961-1.037 0-1.882-0.881-1.882-1.961 0-1.083 0.845-1.961 1.882-1.961v0zM21.276 7.719c2.076 0 3.765 1.759 3.765 3.923 0 2.162-1.688 3.923-3.765 3.923-2.074 0-3.765-1.761-3.765-3.923 0-2.164 1.69-3.923 3.765-3.923v0zM30.353 23.731v-7.346h-2.59c0.646-1.961 1.043-2.897 1.043-4.333 0-4.333-3.371-8.052-7.529-8.052-3.042 0-5.649 1.789-6.837 4.496-0.776-0.418-1.641-0.726-2.575-0.726-3.119 0-5.647 3.019-5.647 6.269 0 0.69 0.136 0.384 0.346 2.346h-2.564v19.615h26.353v-7.346l11.294 7.346v-19.615l-11.294 7.346z"></path>
</svg>
