<!-- Generated by IcoMoon.io -->
<svg version="1.1" xmlns="http://www.w3.org/2000/svg" width="50" height="40" viewBox="0 0 50 40">
<title>mp-wifi-2</title>
<path fill="#ebebeb" d="M19.959 32c0 2 1.808 4 4.041 4s4.041-2 4.041-4c0-6-8.082-6-8.082 0zM15.427 23.514l2.859 2.83c3.15-3.12 8.278-3.12 11.427 0l2.859-2.83c-4.736-4.686-12.409-4.686-17.145 0zM4 12.2l2.857 2.83c9.453-9.358 24.833-9.358 34.286 0l2.857-2.83c-11.046-10.934-28.954-10.934-40 0zM38.286 17.858l-2.857 2.828c-6.302-6.238-16.557-6.238-22.859 0l-2.857-2.828c7.89-7.81 20.683-7.81 28.573 0z"></path>
</svg>
