<!-- Generated by IcoMoon.io -->
<svg version="1.1" xmlns="http://www.w3.org/2000/svg" width="42" height="40" viewBox="0 0 42 40">
<title>mp-zoom_in-</title>
<path fill="#ebebeb" d="M19.12 15.148h5.040v3.208h-5.040v4.812h-3.36v-4.812h-5.040v-3.208h5.040v-4.812h3.36v4.812zM37.6 33.732l-2.376 2.268-7.128-6.806 2.376-2.268 7.128 6.806zM17.44 26.456c-5.557 0-10.080-4.316-10.080-9.624 0-5.306 4.523-9.624 10.080-9.624s10.080 4.318 10.080 9.624c0 5.308-4.523 9.624-10.080 9.624v0zM17.44 4c-7.422 0-13.44 5.746-13.44 12.832 0 7.088 6.018 12.832 13.44 12.832s13.44-5.744 13.44-12.832c0-7.087-6.018-12.832-13.44-12.832v0z"></path>
</svg>
