<!-- Generated by IcoMoon.io -->
<svg version="1.1" xmlns="http://www.w3.org/2000/svg" width="40" height="40" viewBox="0 0 40 40">
<title>mt-auto_stories</title>
<path fill="#ebebeb" d="M27.449 8.251l-5.3 5.349v11.751l5.3-4.8v-12.3zM8.251 13.6v15.651q0 0.2 0.175 0.351t0.375 0.149q0.1 0 0.151-0.025t0.1-0.025q1.1-0.5 2.5-0.825t2.6-0.325q1.549 0 3.125 0.351t2.725 1.251v-16.551q-1.151-0.9-2.725-1.251t-3.125-0.351q-1.6 0-3.151 0.351t-2.751 1.251zM31.751 28v-14.4q-0.5-0.349-1.025-0.6t-1.125-0.449v14.4q-0.9-0.3-1.825-0.425t-1.925-0.125q-0.9 0-1.975 0.2t-2.125 0.575-1.751 0.825v2.149q0.7-0.449 1.751-0.825t2.125-0.575 1.975-0.2q1.349 0 2.649 0.251t2.449 0.849q0.1 0.051 0.251 0.051 0.2 0 0.375-0.175t0.175-0.375v-1.149z"></path>
</svg>
