<!-- Generated by IcoMoon.io -->
<svg version="1.1" xmlns="http://www.w3.org/2000/svg" width="40" height="40" viewBox="0 0 40 40">
<title>mt-add_chart</title>
<path fill="#ebebeb" d="M26.4 27.449v-5.3h2.151v5.3q0 0.851-0.651 1.5t-1.5 0.651h-14.949q-0.851 0-1.475-0.651t-0.625-1.5v-14.9q0-0.851 0.625-1.5t1.475-0.651h12.8v2.151h-12.8v14.9h14.949zM28.551 14.651h3.2v2.151h-3.2v3.2h-2.151v-3.2h-3.2v-2.151h3.2v-3.2h2.151v3.2zM17.849 14.651h2.151v10.651h-2.151v-10.651zM22.149 21.051h2.1v4.251h-2.1v-4.251zM13.6 17.849h2.151v7.451h-2.151v-7.451z"></path>
</svg>
