<!-- Generated by IcoMoon.io -->
<svg version="1.1" xmlns="http://www.w3.org/2000/svg" width="40" height="40" viewBox="0 0 40 40">
<title>mt-airline_seat_recline_normal</title>
<path fill="#ebebeb" d="M28.551 28.6l-1.551 1.549-3.751-3.751h-5.4q-1.3 0-2.251-0.949t-0.949-2.251v-6.151q0-0.949 0.725-1.675t1.675-0.725h0.049q0.951 0 1.751 0.8l1.5 1.651q0.851 0.949 2.275 1.549t2.725 0.6v2.349q-3.1 0-5.9-2.349v3.951h3.7zM13.6 24.251q0 1.3 0.951 2.251t2.251 0.949h6.4v2.151h-6.4q-2.2 0-3.775-1.575t-1.575-3.775v-9.6h2.149v9.6zM15.3 12.949q-0.651-0.649-0.651-1.5t0.651-1.5 1.5-0.651 1.5 0.651 0.649 1.5-0.649 1.5-1.5 0.649-1.5-0.649z"></path>
</svg>
