<!-- Generated by IcoMoon.io -->
<svg version="1.1" xmlns="http://www.w3.org/2000/svg" width="40" height="40" viewBox="0 0 40 40">
<title>mt-attachment</title>
<path fill="#ebebeb" d="M9.349 20.551q0-2.451 1.7-4.175t4.149-1.725h11.2q1.751 0 3 1.275t1.251 3.025-1.251 3-3 1.251h-9.049q-1.1 0-1.9-0.775t-0.8-1.875 0.8-1.9 1.9-0.8h8v2.151h-8.1q-0.449 0-0.449 0.525t0.449 0.525h9.149q0.851 0 1.5-0.625t0.651-1.475-0.651-1.5-1.5-0.649h-11.2q-1.549 0-2.649 1.1t-1.1 2.651 1.1 2.625 2.649 1.075h10.151v2.149h-10.151q-2.451 0-4.149-1.7t-1.7-4.151z"></path>
</svg>
