<!-- Generated by IcoMoon.io -->
<svg version="1.1" xmlns="http://www.w3.org/2000/svg" width="40" height="40" viewBox="0 0 40 40">
<title>mt-alt_route</title>
<path fill="#ebebeb" d="M17.651 19.1l-1.551 1.5q-0.549-0.549-1.049-1.3t-0.851-1.8l2.1-0.551q0.251 0.7 0.6 1.225t0.751 0.925zM18.949 13.6l-4.3-4.251-4.251 4.251h3.2q0.051 1.349 0.2 2.3l2.1-0.5q-0.049-0.4-0.1-0.849t-0.051-0.951h3.2zM29.6 13.6l-4.251-4.251-4.3 4.251h3.2q-0.051 1.951-0.449 3.1t-1 1.851-1.251 1.3q-0.4 0.349-0.8 0.751t-0.751 0.951q-0.251-0.4-0.575-0.725l-0.625-0.625-1.5 1.5q0.5 0.451 0.875 0.9t0.575 1.1 0.2 1.651v0 0 0 5.3h2.1v-5.3q0-1.1 0.251-1.751t0.675-1.125 1.025-1.025q0.551-0.5 1.125-1.1t1.075-1.475 0.825-2.149 0.375-3.125h3.2z"></path>
</svg>
