<!-- Generated by IcoMoon.io -->
<svg version="1.1" xmlns="http://www.w3.org/2000/svg" width="40" height="40" viewBox="0 0 40 40">
<title>mt-assignment_late</title>
<path fill="#ebebeb" d="M20 12.551q0.449 0 0.751-0.325t0.3-0.775-0.3-0.751-0.751-0.3-0.751 0.3-0.3 0.751 0.3 0.775 0.751 0.325zM21.051 22.149v-6.4h-2.1v6.4h2.1zM21.051 26.4v-2.149h-2.1v2.149h2.1zM27.449 10.4q0.851 0 1.5 0.649t0.651 1.5v14.9q0 0.849-0.651 1.5t-1.5 0.651h-14.9q-0.851 0-1.5-0.651t-0.651-1.5v-14.9q0-0.849 0.651-1.5t1.5-0.649h4.451q0.349-0.951 1.151-1.549t1.849-0.6 1.851 0.6 1.149 1.549h4.449z"></path>
</svg>
