<!-- Generated by IcoMoon.io -->
<svg version="1.1" xmlns="http://www.w3.org/2000/svg" width="40" height="40" viewBox="0 0 40 40">
<title>mt-av_timer</title>
<path fill="#ebebeb" d="M13.6 20q0-0.449 0.3-0.751t0.751-0.3 0.775 0.3 0.325 0.751-0.325 0.751-0.775 0.3-0.751-0.3-0.3-0.751zM26.4 20q0 0.449-0.3 0.751t-0.751 0.3-0.775-0.3-0.325-0.751 0.325-0.751 0.775-0.3 0.751 0.3 0.3 0.751zM18.949 10.4h1.051q4 0 6.8 2.8t2.8 6.8-2.8 6.8-6.8 2.8-6.8-2.8-2.8-6.8q0-4.8 3.851-7.651v-0.049l7.251 7.251-1.5 1.5-5.8-5.751q-1.649 2.051-1.649 4.7 0 3.1 2.175 5.275t5.275 2.175 5.275-2.175 2.175-5.275q0-2.8-1.849-4.9t-4.551-2.5v2.051h-2.1v-4.251zM18.949 25.351q0-0.451 0.3-0.775t0.751-0.325 0.751 0.325 0.3 0.775-0.3 0.751-0.751 0.3-0.751-0.3-0.3-0.751z"></path>
</svg>
