<!-- Generated by IcoMoon.io -->
<svg version="1.1" xmlns="http://www.w3.org/2000/svg" width="40" height="40" viewBox="0 0 40 40">
<title>mt-add_link</title>
<path fill="#ebebeb" d="M27.449 20v3.2h3.2v2.151h-3.2v3.2h-2.1v-3.2h-3.2v-2.151h3.2v-3.2h2.1zM11.349 20q0 1.351 0.975 2.325t2.325 0.975h4.3v2.051h-4.3q-2.2 0-3.751-1.575t-1.549-3.775 1.549-3.775 3.751-1.575h4.3v2.049h-4.3q-1.349 0-2.325 0.975t-0.975 2.325zM28.649 20q0-1.349-0.975-2.325t-2.325-0.975h-4.3v-2.049h4.3q2.2 0 3.751 1.575t1.549 3.775h-2zM15.751 18.949h8.5v2.1h-8.5v-2.1z"></path>
</svg>
