<!-- Generated by IcoMoon.io -->
<svg version="1.1" xmlns="http://www.w3.org/2000/svg" width="40" height="40" viewBox="0 0 40 40">
<title>mt-auto_fix_high</title>
<path fill="#ebebeb" d="M15.2 13.151l2.651 1.5-1.5-2.651 1.5-2.651-2.651 1.5-2.649-1.5 1.5 2.651-1.5 2.651zM28 23.649l-2.649-1.5 1.5 2.649-1.5 2.651 2.649-1.5 2.649 1.5-1.5-2.651 1.5-2.649zM30.649 9.349l-2.649 1.5-2.649-1.5 1.5 2.651-1.5 2.651 2.649-1.5 2.649 1.5-1.5-2.651zM22.551 15q-0.351-0.349-0.775-0.349t-0.775 0.349l-12.4 12.4q-0.349 0.351-0.349 0.775t0.349 0.775l2.449 2.449q0.351 0.349 0.775 0.349t0.775-0.349l12.4-12.4q0.349-0.349 0.349-0.775t-0.349-0.725l-2.451-2.5zM21.449 20.851l-2.3-2.3 2.6-2.6 2.3 2.3-2.6 2.6z"></path>
</svg>
