<!-- Generated by IcoMoon.io -->
<svg version="1.1" xmlns="http://www.w3.org/2000/svg" width="40" height="40" viewBox="0 0 40 40">
<title>mt-add_task</title>
<path fill="#ebebeb" d="M30.649 12.751l-12.149 12.149-4.549-4.5 1.551-1.5 3 3 10.649-10.651zM20 28.551q-1.751 0-3.3-0.675t-2.725-1.851-1.849-2.725-0.675-3.3 0.675-3.3 1.849-2.725 2.725-1.851 3.3-0.675q1.251 0 2.4 0.349t2.149 1l1.551-1.549q-1.3-0.9-2.851-1.4t-3.251-0.5q-2.2 0-4.125 0.825t-3.4 2.3-2.3 3.4-0.825 4.125 0.825 4.125 2.3 3.4 3.4 2.3 4.125 0.825q1.4 0 2.675-0.325t2.425-0.975l-1.6-1.6q-0.8 0.4-1.675 0.6t-1.825 0.2zM27.449 23.2h-3.2v2.151h3.2v3.2h2.151v-3.2h3.2v-2.151h-3.2v-3.2h-2.151v3.2z"></path>
</svg>
