<!-- Generated by IcoMoon.io -->
<svg version="1.1" xmlns="http://www.w3.org/2000/svg" width="40" height="40" viewBox="0 0 40 40">
<title>mt-alternate_email</title>
<path fill="#ebebeb" d="M20 23.2q1.3 0 2.251-0.949t0.949-2.251-0.949-2.251-2.251-0.949-2.251 0.949-0.949 2.251 0.949 2.251 2.251 0.949zM20 9.349q4.4 0 7.525 3.125t3.125 7.525v1.551q0 1.6-1.075 2.7t-2.625 1.1q-1.949 0-3.149-1.6-1.6 1.6-3.8 1.6t-3.775-1.575-1.575-3.775 1.575-3.775 3.775-1.575 3.775 1.575 1.575 3.775v1.549q0 0.649 0.475 1.149t1.125 0.5 1.125-0.5 0.475-1.149v-1.549q0-3.5-2.525-6.025t-6.025-2.525-6.025 2.525-2.525 6.025 2.525 6.025 6.025 2.525h5.351v2.1h-5.351q-4.4 0-7.525-3.125t-3.125-7.525 3.125-7.525 7.525-3.125z"></path>
</svg>
