<!-- Generated by IcoMoon.io -->
<svg version="1.1" xmlns="http://www.w3.org/2000/svg" width="40" height="40" viewBox="0 0 40 40">
<title>mt-add_to_drive</title>
<path fill="#ebebeb" d="M15.4 10.951l-6.951 12.249 3.6 6.4 7-12.251-3.651-6.4zM21.449 23.2h-3.849l-3.7 6.4h8.8q-0.751-0.851-1.2-1.951t-0.449-2.3q0-0.6 0.1-1.125t0.3-1.025zM28.551 24.251v-3.2h-2.151v3.2h-3.2v2.149h3.2v3.2h2.151v-3.2h3.2v-2.149h-3.2zM29.3 19.2l-5.651-9.849h-7.3l6.549 11.5q0.9-0.9 2.075-1.4t2.475-0.5q0.949 0 1.851 0.251z"></path>
</svg>
