<!-- Generated by IcoMoon.io -->
<svg version="1.1" xmlns="http://www.w3.org/2000/svg" width="40" height="40" viewBox="0 0 40 40">
<title>mt-architecture</title>
<path fill="#ebebeb" d="M14 27.251l0.251 2.351 1.751-1.651 2.949-8.1q-1.1-0.251-1.9-1.051zM22.949 18.8q-0.8 0.8-1.9 1.049l2.949 8.1 1.751 1.651 0.3-2.351zM23.2 15.751q0-1.051-0.6-1.875t-1.551-1.125v-2.349h-2.1v2.349q-0.951 0.3-1.551 1.125t-0.6 1.875q0 0.849 0.425 1.575t1.149 1.175 1.625 0.449 1.625-0.449 1.149-1.175 0.425-1.575zM20 16.8q-0.449 0-0.751-0.325t-0.3-0.725q0-0.451 0.3-0.775t0.751-0.325 0.751 0.325 0.3 0.775q0 0.4-0.3 0.725t-0.751 0.325z"></path>
</svg>
