<!-- Generated by IcoMoon.io -->
<svg version="1.1" xmlns="http://www.w3.org/2000/svg" width="40" height="40" viewBox="0 0 40 40">
<title>mt-border_bottom</title>
<path fill="#ebebeb" d="M12.551 23.2v2.151h-2.149v-2.151h2.149zM10.4 29.6v-2.151h19.2v2.151h-19.2zM12.551 18.949v2.1h-2.149v-2.1h2.149zM27.449 16.8v-2.151h2.151v2.151h-2.151zM27.449 10.4h2.151v2.149h-2.151v-2.149zM12.551 14.651v2.151h-2.149v-2.151h2.149zM27.449 25.351v-2.151h2.151v2.151h-2.151zM27.449 21.051v-2.1h2.151v2.1h-2.151zM25.351 10.4v2.149h-2.151v-2.149h2.151zM21.051 10.4v2.149h-2.1v-2.149h2.1zM25.351 18.949v2.1h-2.151v-2.1h2.151zM21.051 14.651v2.151h-2.1v-2.151h2.1zM12.551 10.4v2.149h-2.149v-2.149h2.149zM21.051 18.949v2.1h-2.1v-2.1h2.1zM16.8 10.4v2.149h-2.151v-2.149h2.151zM21.051 23.2v2.151h-2.1v-2.151h2.1zM16.8 18.949v2.1h-2.151v-2.1h2.151z"></path>
</svg>
