<!-- Generated by IcoMoon.io -->
<svg version="1.1" xmlns="http://www.w3.org/2000/svg" width="40" height="40" viewBox="0 0 40 40">
<title>mt-bluetooth_searching</title>
<path fill="#ebebeb" d="M20.949 24.6l-2-2.049v4.051zM18.949 13.4v4.049l2-2.049zM23.949 15.4l-4.6 4.6 4.6 4.6-6.1 6.049h-1.049v-8.1l-4.9 4.9-1.5-1.5 5.951-5.949-5.951-5.951 1.5-1.5 4.9 4.9v-8.1h1.051zM28.051 14.349q1.551 2.5 1.551 5.549 0 3-1.651 5.649l-1.251-1.251q1.051-2.1 1.051-4.3t-1.051-4.3zM22.4 20l2.451-2.449q0.5 1.251 0.5 2.449 0 1.251-0.5 2.5z"></path>
</svg>
