<!-- Generated by IcoMoon.io -->
<svg version="1.1" xmlns="http://www.w3.org/2000/svg" width="40" height="40" viewBox="0 0 40 40">
<title>mt-bento</title>
<path fill="#ebebeb" d="M24.251 18.949v-6.4h4.3q0.849 0 1.475 0.625t0.625 1.475v4.3h-6.4zM28.551 27.449q0.849 0 1.475-0.625t0.625-1.475v-4.3h-6.4v6.4h4.3zM22.149 12.551v14.9h-10.7q-0.851 0-1.475-0.625t-0.625-1.475v-10.7q0-0.851 0.625-1.475t1.475-0.625h10.7zM17.349 20q0-0.651-0.475-1.125t-1.125-0.475q-0.7 0-1.151 0.475t-0.449 1.125 0.449 1.125 1.151 0.475q0.651 0 1.125-0.475t0.475-1.125z"></path>
</svg>
