<!-- Generated by IcoMoon.io -->
<svg version="1.1" xmlns="http://www.w3.org/2000/svg" width="40" height="40" viewBox="0 0 40 40">
<title>mt-ballot</title>
<path fill="#ebebeb" d="M14.651 22.149h3.2v3.2h-3.2v-3.2zM13.6 26.4h5.349v-5.349h-5.349v5.349zM14.651 14.651h3.2v3.2h-3.2v-3.2zM13.6 18.949h5.349v-5.349h-5.349v5.349zM27.449 29.6h-14.9q-0.851 0-1.5-0.651t-0.651-1.5v-14.9q0-0.849 0.651-1.5t1.5-0.649h14.9q0.851 0 1.5 0.649t0.651 1.5v14.9q0 0.849-0.651 1.5t-1.5 0.651zM21.051 24.8h5.349v-2.151h-5.349v2.151zM21.051 17.349h5.349v-2.151h-5.349v2.151z"></path>
</svg>
