<!-- Generated by IcoMoon.io -->
<svg version="1.1" xmlns="http://www.w3.org/2000/svg" width="40" height="40" viewBox="0 0 40 40">
<title>mt-camera</title>
<path fill="#ebebeb" d="M17.7 30.4q0.2-0.349 2.151-3.751t3-5.149l3.9 6.751q-1.2 1-3.2 1.7t-3.551 0.7q-1.2 0-2.3-0.251zM9.8 23.2h10.349l-3.951 6.751q-2.3-0.849-3.975-2.625t-2.425-4.125zM12.151 12.8l5.4 9.349h-8q-0.2-1.2-0.2-2.151 0-1.7 0.825-3.8t1.975-3.4zM30.449 17.849q0.2 0.951 0.2 2.151 0 1.7-0.825 3.8t-1.975 3.4l-5.1-8.8-0.3-0.549h8zM30.2 16.8h-10.349l3.951-6.751q2.3 0.851 3.975 2.625t2.425 4.125zM17.251 18.4l-0.1 0.1-3.9-6.751q1.2-1 3.2-1.7t3.551-0.7q1.2 0 2.3 0.251z"></path>
</svg>
