<!-- Generated by IcoMoon.io -->
<svg version="1.1" xmlns="http://www.w3.org/2000/svg" width="40" height="40" viewBox="0 0 40 40">
<title>mt-content_paste</title>
<path fill="#ebebeb" d="M27.449 28.551v-17.1h-2.1v3.2h-10.7v-3.2h-2.1v17.1h14.9zM20 9.349q-0.449 0-0.751 0.3t-0.3 0.751 0.3 0.751 0.751 0.3 0.751-0.3 0.3-0.751-0.3-0.751-0.751-0.3zM27.449 9.349q0.851 0 1.5 0.625t0.651 1.475v17.1q0 0.849-0.651 1.475t-1.5 0.625h-14.9q-0.851 0-1.5-0.625t-0.651-1.475v-17.1q0-0.851 0.651-1.475t1.5-0.625h4.451q0.349-0.949 1.151-1.549t1.849-0.6 1.851 0.6 1.149 1.549h4.449z"></path>
</svg>
