<!-- Generated by IcoMoon.io -->
<svg version="1.1" xmlns="http://www.w3.org/2000/svg" width="40" height="40" viewBox="0 0 40 40">
<title>mt-car_rental</title>
<path fill="#ebebeb" d="M15.751 12.551q0.449 0 0.751-0.325t0.3-0.775-0.3-0.751-0.751-0.3-0.775 0.3-0.325 0.751 0.325 0.775 0.775 0.325zM18.751 10.4h8.7v2.149h-1.051v2.1h-2.149v-2.1h-5.5q-0.751 2.1-3 2.1-1.3 0-2.251-0.951t-0.949-2.251 0.949-2.249 2.251-0.949q0.949 0 1.825 0.625t1.175 1.525zM13.9 22.149h12.2l-1.4-4.3h-9.349zM24.5 26.4q0.551 0 0.925-0.375t0.375-0.925-0.375-0.925-0.925-0.375-0.925 0.375-0.375 0.925 0.375 0.925 0.925 0.375zM15.5 26.4q0.551 0 0.925-0.375t0.375-0.925-0.375-0.925-0.925-0.375-0.925 0.375-0.375 0.925 0.375 0.925 0.925 0.375zM24.7 16.8q0.7 0 1 0.751l1.751 5.3v7.3q0 0.5-0.5 0.5h-1.1q-0.5 0-0.5-0.5v-1.6h-10.7v1.6q0 0.5-0.5 0.5h-1.1q-0.5 0-0.5-0.549v-7.251l1.751-5.3q0.251-0.751 1-0.751h9.4z"></path>
</svg>
