<!-- Generated by IcoMoon.io -->
<svg version="1.1" xmlns="http://www.w3.org/2000/svg" width="40" height="40" viewBox="0 0 40 40">
<title>mt-campaign</title>
<path fill="#ebebeb" d="M26.4 18.949v2.1h4.251v-2.1h-4.251zM24.251 26q0.8 0.551 1.725 1.251t1.725 1.3q0.3-0.449 0.625-0.875t0.625-0.825q-0.8-0.6-1.725-1.3t-1.675-1.3q-0.3 0.449-0.625 0.875t-0.675 0.875zM28.949 13.151q-0.3-0.4-0.625-0.825t-0.625-0.875q-0.8 0.6-1.725 1.3t-1.725 1.3q0.351 0.4 0.675 0.825t0.625 0.875q0.751-0.6 1.675-1.3t1.725-1.3zM11.451 16.8q-0.851 0-1.475 0.625t-0.625 1.525v2.1q0 0.9 0.625 1.525t1.475 0.625h1.1v4.251h2.1v-4.251h1.1l5.3 3.2v-12.8l-5.3 3.2h-4.3zM23.751 20q0-1.051-0.449-1.975t-1.151-1.575v7.1q0.7-0.651 1.151-1.575t0.449-1.975z"></path>
</svg>
