<!-- Generated by IcoMoon.io -->
<svg version="1.1" xmlns="http://www.w3.org/2000/svg" width="40" height="40" viewBox="0 0 40 40">
<title>mt-cleaning_services</title>
<path fill="#ebebeb" d="M24.251 18.949h-1.051v-8.549q0-0.9-0.625-1.525t-1.525-0.625h-2.1q-0.9 0-1.525 0.625t-0.625 1.525v8.549h-1.051q-1.5 0-2.7 0.7t-1.925 1.925-0.725 2.675v7.5h19.2v-7.5q0-1.449-0.725-2.675t-1.925-1.925-2.7-0.7zM27.449 29.6h-2.1v-3.2q0-0.449-0.325-0.751t-0.775-0.3q-0.4 0-0.725 0.3t-0.325 0.751v3.2h-2.149v-3.2q0-0.449-0.3-0.751t-0.751-0.3-0.751 0.3-0.3 0.751v3.2h-2.149v-3.2q0-0.449-0.325-0.751t-0.725-0.3q-0.449 0-0.775 0.3t-0.325 0.751v3.2h-2.1v-5.351q0-0.851 0.425-1.575t1.151-1.175 1.625-0.449h8.5q0.9 0 1.625 0.449t1.149 1.175 0.425 1.575v5.351z"></path>
</svg>
