<!-- Generated by IcoMoon.io -->
<svg version="1.1" xmlns="http://www.w3.org/2000/svg" width="40" height="40" viewBox="0 0 40 40">
<title>mt-date_range</title>
<path fill="#ebebeb" d="M27.449 28.551v-11.751h-14.9v11.751h14.9zM27.449 11.451q0.851 0 1.5 0.649t0.651 1.5v14.949q0 0.849-0.651 1.475t-1.5 0.625h-14.9q-0.9 0-1.525-0.6t-0.625-1.5v-14.949q0-0.851 0.625-1.5t1.525-0.649h1.049v-2.1h2.151v2.1h8.5v-2.1h2.149v2.1h1.051zM25.351 18.949v2.1h-2.151v-2.1h2.151zM21.051 18.949v2.1h-2.1v-2.1h2.1zM16.8 18.949v2.1h-2.151v-2.1h2.151z"></path>
</svg>
