<!-- Generated by IcoMoon.io -->
<svg version="1.1" xmlns="http://www.w3.org/2000/svg" width="40" height="40" viewBox="0 0 40 40">
<title>mt-electric_scooter</title>
<path fill="#ebebeb" d="M15.551 24.251h7.651v-1.051q0-1.2 0.575-2.149t1.551-1.525 2.125-0.575h0.8l-2-9q-0.2-0.749-0.775-1.225t-1.325-0.475h-4.149v2.151h4.149l1.5 6.649q-1.751 0.551-2.975 1.9t-1.525 3.2h-5.6q-0.4-1.1-1.4-1.725t-2.251-0.375q-0.951 0.2-1.651 0.9t-0.849 1.651q-0.2 1 0.2 1.875t1.175 1.4 1.775 0.525 1.825-0.6 1.175-1.549zM12.551 24.251q-0.449 0-0.775-0.3t-0.325-0.751 0.325-0.751 0.775-0.3q0.4 0 0.725 0.3t0.325 0.751-0.325 0.751-0.725 0.3zM27.449 20q-0.849 0-1.575 0.425t-1.175 1.149-0.449 1.625 0.449 1.625 1.175 1.151 1.575 0.425q0.9 0 1.625-0.425t1.151-1.151 0.425-1.625-0.425-1.625-1.151-1.149-1.625-0.425zM27.449 24.251q-0.4 0-0.725-0.3t-0.325-0.751 0.325-0.751 0.725-0.3q0.449 0 0.775 0.3t0.325 0.751-0.325 0.751-0.775 0.3zM18.949 28.551h-4.3l6.4 3.2v-2.149h4.3l-6.4-3.2v2.151z"></path>
</svg>
