<!-- Generated by IcoMoon.io -->
<svg version="1.1" xmlns="http://www.w3.org/2000/svg" width="40" height="40" viewBox="0 0 40 40">
<title>mt-emoji_nature</title>
<path fill="#ebebeb" d="M20.2 22.751q0.551-0.649 0.5-1.425t-0.649-1.375q-0.651-0.649-1.451-0.649-0.751 0-1.349 0.5l1.7 0.649q0.051 0 0.151 0.051l0.4 0.4 0.049 0.1v0.051zM18.9 28.449q1-0.349 0.651-1.349l-1.251-3.351q-1.3 2.5-0.751 4.051 0.4 1.051 1.349 0.651zM12.2 22.449q1.551 0.551 4.051-0.751l-3.4-1.251q-0.949-0.349-1.3 0.651-0.4 0.949 0.649 1.349zM20 17.4q1.9 0.651 2.551 2.6h1.7v1.1h-1.449q0.149 2-1.2 3.351l-0.6 0.449 0.6 1.5q0.149 0.451 0.149 1.051 0 0.949-0.6 1.849t-1.5 1.2q-0.549 0.149-1.1 0.149-1.7 0-2.6-1.349-0.449 0.149-1.2 0.149-1.7 0-2.951-1.251-1.751-1.751-1.1-4.151-0.751-0.5-1.175-1.575t-0.025-2.125q0.3-0.851 1.2-1.475t1.851-0.625q0.6 0 1.049 0.151l1.5 0.6 0.451-0.6q1.251-1.251 3-1.251 0.049 0 0.2 0.025t0.2 0.025v-1.449h1.049v1.651zM26.4 14.651q0.451 0 0.751-0.3t0.3-0.751-0.3-0.751-0.751-0.3-0.751 0.3-0.3 0.751 0.3 0.751 0.751 0.3zM30.6 12.4q0.349 1-0.6 1.6l-0.9 0.551 0.4 1.3q0.3 0.651-0.125 1.325t-1.175 0.675q-0.6 0-0.949-0.3l-0.851-0.751-0.849 0.751q-0.351 0.3-0.949 0.3-0.751 0-1.175-0.675t-0.125-1.325l0.449-1.3-0.949-0.551q-0.949-0.6-0.6-1.6 0.351-0.951 1.351-0.951h1.149l0.3-1q0.251-1.1 1.4-1.1t1.4 1.1l0.3 1h1.2q0.9 0 1.3 0.949z"></path>
</svg>
