<!-- Generated by IcoMoon.io -->
<svg version="1.1" xmlns="http://www.w3.org/2000/svg" width="40" height="40" viewBox="0 0 40 40">
<title>mt-euro</title>
<path fill="#ebebeb" d="M23.2 26.949q2.551 0 4.5-1.7l1.9 1.9q-2.7 2.451-6.4 2.451-3.1 0-5.575-1.8t-3.475-4.6h-4.8l1.049-2.149h3.251q-0.049-0.3-0.049-1.051t0.049-1.049h-4.3l1.049-2.151h3.751q1-2.8 3.475-4.6t5.575-1.8q1.5 0 3.4 0.725t3 1.725l-1.9 1.9q-1.951-1.7-4.5-1.7-1.751 0-3.549 1.1t-2.6 2.651h7.2l-1.049 2.151h-6.849q-0.1 0.7-0.1 1.049t0.1 1.049h7.9l-1.049 2.149h-6.151q0.8 1.549 2.6 2.649t3.549 1.1z"></path>
</svg>
