<!-- Generated by IcoMoon.io -->
<svg version="1.1" xmlns="http://www.w3.org/2000/svg" width="40" height="40" viewBox="0 0 40 40">
<title>mt-emoji_objects</title>
<path fill="#ebebeb" d="M20.551 19.349l1.949-1.9-0.751-0.8-1.751 1.751-1.751-1.751-0.751 0.8 1.949 1.9v2.8h1.1v-2.8zM22.149 25.351v-1.1h-4.3v1.1h4.3zM22.149 27.449v-1.051h-4.3v1.051h4.3zM20 10.4q3.1 0 5.275 2.175t2.175 5.275v0.051q0 1.4-0.725 3.025t-1.775 2.525q-0.7 0.6-0.7 1.551v2.449q0 0.851-0.625 1.5t-1.475 0.651h-0.3q-0.6 1.049-1.851 1.049t-1.849-1.049h-0.3q-0.851 0-1.475-0.651t-0.625-1.5v-2.449q0-0.949-0.7-1.551-3.151-2.8-2.4-7 0.4-2.2 2.025-3.849t3.825-2.049q0.751-0.149 1.5-0.149z"></path>
</svg>
