<!-- Generated by IcoMoon.io -->
<svg version="1.1" xmlns="http://www.w3.org/2000/svg" width="40" height="40" viewBox="0 0 40 40">
<title>mt-explore_off</title>
<path fill="#ebebeb" d="M30.649 20q0 0.7-0.049 1v0.3q0 0.251-0.1 0.649 0 0.151-0.1 0.351l-0.151 0.6q-0.049 0.051-0.049 0.175t-0.051 0.175q-0.051 0.149-0.151 0.425t-0.149 0.375q-0.1 0.3-0.351 0.8l-0.175 0.351t-0.225 0.349q-0.051 0.051-0.175 0.251t-0.175 0.251l-5.549-5.549 3.2-6.9-6.9 3.2-5.549-5.549q0.051-0.051 0.251-0.175t0.251-0.175q0.051 0 0.149-0.1 0.1 0 0.1-0.049l0.2-0.1t0.175-0.1 0.2-0.1 0.225-0.1 0.251-0.151 0.251-0.1q0.1-0.051 0.349-0.125t0.4-0.125l0.349-0.1 0.6-0.149q0.149 0 0.349-0.1 0.4-0.1 0.651-0.1h0.349q0.151 0 0.451-0.025t0.5-0.025q4.4 0 7.525 3.125t3.125 7.525zM13.6 26.4l6.9-3.2-3.7-3.7zM9.6 9.6l20.8 20.8-1.4 1.351-2.949-3q-0.051 0.051-0.251 0.175t-0.251 0.175q-0.051 0-0.151 0.1-0.1 0-0.1 0.051-0.5 0.349-1.3 0.6l-0.751 0.3q-0.051 0.051-0.175 0.051t-0.175 0.051l-0.6 0.149q-0.2 0.1-0.351 0.1-0.4 0.1-0.649 0.1h-0.3q-0.3 0.051-1 0.051-4.4 0-7.525-3.125t-3.125-7.525q0-0.651 0.049-0.951v-0.349q0-0.251 0.1-0.651 0.1-0.2 0.1-0.349l0.149-0.6 0.1-0.349q0.049-0.151 0.125-0.4t0.125-0.349q0-0.051 0.1-0.225t0.151-0.275l0.4-0.8q0.049 0 0.1-0.1t0.049-0.151q0.049-0.049 0.175-0.251t0.175-0.251l-3-2.949z"></path>
</svg>
