<!-- Generated by IcoMoon.io -->
<svg version="1.1" xmlns="http://www.w3.org/2000/svg" width="40" height="40" viewBox="0 0 40 40">
<title>mt-emoji_transportation</title>
<path fill="#ebebeb" d="M12.551 27.449h2.1v2.151h-2.1v-2.151zM12.551 23.2h2.1v2.151h-2.1v-2.151zM17.849 12.551h2.151v2.1h-2.151v-2.1zM12.551 18.949h2.1v2.1h-2.1v-2.1zM22.149 16.8v-5.351h-6.4v5.351h-5.349v12.8h-1.049v-13.851h5.3v-5.351h8.549v6.4h-1.049zM28.551 25.351q0.449 0 0.751-0.325t0.3-0.775-0.3-0.751-0.751-0.3-0.775 0.3-0.325 0.751 0.325 0.775 0.775 0.325zM20 25.351q0.449 0 0.751-0.325t0.3-0.775-0.3-0.751-0.751-0.3-0.751 0.3-0.3 0.751 0.3 0.775 0.751 0.325zM20.449 18.949l-1.1 3.2h9.849l-1.1-3.2h-7.651zM29.149 18.551l1.5 4.4v5.9q0 0.3-0.225 0.525t-0.525 0.225h-0.649q-0.3 0-0.5-0.251t-0.2-0.551v-1.351h-8.551v1.351q0 0.3-0.225 0.551t-0.525 0.251h-0.651q-0.7 0-0.7-0.751l-0.051-5.9 1.551-4.4q0.251-0.7 1.049-0.7h7.651q0.8 0 1.049 0.7z"></path>
</svg>
