<!-- Generated by IcoMoon.io -->
<svg version="1.1" xmlns="http://www.w3.org/2000/svg" width="40" height="40" viewBox="0 0 40 40">
<title>mt-exposure_neg_2</title>
<path fill="#ebebeb" d="M9.349 18.949h8.5v2.1h-8.5v-2.1zM23.251 24.6h6.351v1.8h-9.2v-1.6l4.451-4.851q0.9-0.9 1.549-2 0.351-0.6 0.351-1.4 0-0.651-0.1-0.9-0.5-1.3-1.9-1.3-2.3 0-2.3 2.451h-2.3q0-1.8 1.2-3 1.251-1.251 3.4-1.251h0.1q2.951 0 3.951 2.2 0.251 0.551 0.251 1.551 0 0.7-0.2 1.251-0.351 0.949-0.551 1.251-0.851 1.349-2 2.5z"></path>
</svg>
