<!-- Generated by IcoMoon.io -->
<svg version="1.1" xmlns="http://www.w3.org/2000/svg" width="40" height="40" viewBox="0 0 40 40">
<title>mt-fact_check</title>
<path fill="#ebebeb" d="M28.551 10.4h-17.1q-0.851 0-1.475 0.625t-0.625 1.525v14.9q0 0.9 0.625 1.525t1.475 0.625h17.1q0.849 0 1.475-0.625t0.625-1.525v-14.9q0-0.9-0.625-1.525t-1.475-0.625zM17.849 25.351h-5.3v-2.151h5.3v2.151zM17.849 21.051h-5.3v-2.1h5.3v2.1zM17.849 16.8h-5.3v-2.151h5.3v2.151zM23 23.2l-3-3.049 1.5-1.5 1.5 1.549 3.4-3.4 1.5 1.5z"></path>
</svg>
