<!-- Generated by IcoMoon.io -->
<svg version="1.1" xmlns="http://www.w3.org/2000/svg" width="40" height="40" viewBox="0 0 40 40">
<title>mt-fireplace</title>
<path fill="#ebebeb" d="M28.551 28.551v-17.1h-17.1v17.1h2.149v-2.151h2.4q-1.251-1.6-1.349-3.2l-0.051-0.3v-0.449t0.075-0.625 0.175-0.8 0.3-0.9 0.525-1 0.825-1.051 1.125-1.125 1.5-1.151 1.925-1.149q-0.1 0.3-0.151 0.825t0.5 1.849 1.951 2.275q2 1.4 2 3.6 0 1.751-1.1 3.2h2.149v2.151h2.151zM19.849 25.3q1 0.849 2.225 0.375t1.375-1.825q0.1-0.951-0.9-1.951t-1.2-1.4q-0.251 0.7-0.1 1.349 0.051 0.2 0.149 0.575t0.125 0.549-0.025 0.575q-0.1 0.5-0.575 1.025t-1.075 0.725zM9.349 9.349h21.3v21.3h-21.3v-21.3z"></path>
</svg>
