<!-- Generated by IcoMoon.io -->
<svg version="1.1" xmlns="http://www.w3.org/2000/svg" width="40" height="40" viewBox="0 0 40 40">
<title>mt-fiber_new</title>
<path fill="#ebebeb" d="M29.051 22.149v-5.349h-1.3v4.8h-1.2v-3.751h-1.351v3.751h-1.2v-4.8h-1.351v5.351q0 0.451 0.325 0.751t0.775 0.3h4.251q0.451 0 0.751-0.3t0.3-0.751zM21.6 18.151v-1.349h-4.251v6.4h4.251v-1.351h-2.651v-1.149h2.651v-1.349h-2.651v-1.2h2.651zM16.251 23.2v-6.4h-1.3v3.749l-2.7-3.751h-1.3v6.4h1.3v-3.751l2.751 3.751h1.251zM28.551 11.451q0.9 0 1.5 0.625t0.6 1.525v12.8q0 0.9-0.6 1.525t-1.5 0.625h-17.1q-0.9 0-1.5-0.625t-0.6-1.525v-12.8q0-0.9 0.6-1.525t1.5-0.625h17.1z"></path>
</svg>
