<!-- Generated by IcoMoon.io -->
<svg version="1.1" xmlns="http://www.w3.org/2000/svg" width="40" height="40" viewBox="0 0 40 40">
<title>mt-follow_the_signs</title>
<path fill="#ebebeb" d="M17.349 13.051q0.849 0 1.475-0.625t0.625-1.475q0-0.9-0.625-1.525t-1.475-0.625q-0.9 0-1.525 0.625t-0.625 1.525q0 0.851 0.625 1.475t1.525 0.625zM13.349 16.7l-2.949 15.051h2.249l1.849-8.551 2.3 2.151v6.4h2.151v-8.051l-2.2-2.2 0.651-3.2q1.051 1.251 2.549 2t3.251 0.751v-2.1q-1.5 0-2.7-0.725t-1.949-1.925l-1-1.7q-0.3-0.449-0.775-0.725t-1.025-0.275q-0.4 0-0.8 0.151l-5.6 2.3v5h2.1v-3.551zM21.051 9.349v7.451h4v14.949h1.6v-14.949h4v-7.451h-9.6zM26.4 15.751v-1.9h-3.749v-1.6h3.749v-1.849l2.651 2.649z"></path>
</svg>
