<!-- Generated by IcoMoon.io -->
<svg version="1.1" xmlns="http://www.w3.org/2000/svg" width="40" height="40" viewBox="0 0 40 40">
<title>mt-flaky</title>
<path fill="#ebebeb" d="M22.2 25.949v0l-2.6-2.549 1.151-1.149 1.449 1.449 2.651-2.649 1.1 1.149-3.751 3.751zM20 9.349q-2.2 0-4.125 0.825t-3.4 2.3-2.3 3.4-0.825 4.125 0.825 4.125 2.3 3.4 3.4 2.3 4.125 0.825 4.125-0.825 3.4-2.3 2.3-3.4 0.825-4.125-0.825-4.125-2.3-3.4-3.4-2.3-4.125-0.825zM15.051 13.9l1.5 1.5 1.5-1.5 1.1 1.151-1.5 1.5 1.5 1.5-1.1 1.1-1.5-1.5-1.5 1.5-1.151-1.1 1.5-1.5-1.5-1.5zM20 28.551q-1.751 0-3.325-0.675t-2.775-1.775l12.2-12.2q1.1 1.2 1.775 2.775t0.675 3.325-0.675 3.3-1.851 2.725-2.725 1.851-3.3 0.675z"></path>
</svg>
