<!-- Generated by IcoMoon.io -->
<svg version="1.1" xmlns="http://www.w3.org/2000/svg" width="40" height="40" viewBox="0 0 40 40">
<title>mt-fiber_dvr</title>
<path fill="#ebebeb" d="M29.6 19.449v-1.049q0-0.7-0.451-1.151t-1.149-0.449h-3.751v6.4h1.6v-2.149h1.251l0.9 2.149h1.6l-0.949-2.251q0.949-0.449 0.949-1.5zM20.649 23.2l1.9-6.4h-1.6l-1.1 3.649-1.051-3.649h-1.6l1.849 6.4h1.6zM15.751 21.6v-3.2q0-0.7-0.475-1.149t-1.125-0.451h-3.751v6.4h3.751q0.651 0 1.125-0.449t0.475-1.151zM29.6 10.4q0.9 0 1.525 0.625t0.625 1.525v14.9q0 0.9-0.625 1.525t-1.525 0.625h-19.2q-0.9 0-1.525-0.625t-0.625-1.525v-14.9q0-0.9 0.625-1.525t1.525-0.625h19.2zM12 18.4h2.151v3.2h-2.151v-3.2zM25.851 18.4h2.149v1.049h-2.149v-1.049z"></path>
</svg>
