<!-- Generated by IcoMoon.io -->
<svg version="1.1" xmlns="http://www.w3.org/2000/svg" width="40" height="40" viewBox="0 0 40 40">
<title>mt-flip_camera_ios</title>
<path fill="#ebebeb" d="M24.8 23.751l2.649-2.7h-2.1q0-2.2-1.575-3.751t-3.775-1.551q-1.3 0-2.5 0.651l0.751 0.751q0.7-0.349 1.751-0.349 1.751 0 3 1.251t1.251 3h-2.1zM20 26.4q1.3 0 2.5-0.649l-0.751-0.8q-0.8 0.4-1.751 0.4-1.751 0-3-1.275t-1.251-3.025h2.1l-2.651-2.651-2.649 2.651h2.1q0 2.2 1.575 3.775t3.775 1.575zM28.551 12.551q0.849 0 1.475 0.625t0.625 1.475v12.8q0 0.849-0.625 1.5t-1.475 0.651h-17.1q-0.851 0-1.475-0.651t-0.625-1.5v-12.8q0-0.851 0.625-1.475t1.475-0.625h3.4l1.951-2.149h6.4l1.951 2.149h3.4z"></path>
</svg>
