<!-- Generated by IcoMoon.io -->
<svg version="1.1" xmlns="http://www.w3.org/2000/svg" width="40" height="40" viewBox="0 0 40 40">
<title>mt-g</title>
<path fill="#ebebeb" d="M25.351 21.051h2.1v2.149h-5.3v-6.4h7.451q0-0.9-0.625-1.525t-1.525-0.625h-5.3q-0.9 0-1.525 0.625t-0.625 1.525v6.4q0 0.9 0.625 1.525t1.525 0.625h5.3q0.9 0 1.525-0.625t0.625-1.525v-4.251h-4.251v2.1zM10.4 21.051h5.349v2.149h-5.349v2.151h5.349q0.849 0 1.475-0.625t0.625-1.525v-2.149q0-0.851-0.625-1.475t-1.475-0.625h-3.2v-2.149h5.3v-2.151h-7.451v6.4z"></path>
</svg>
