<!-- Generated by IcoMoon.io -->
<svg version="1.1" xmlns="http://www.w3.org/2000/svg" width="40" height="40" viewBox="0 0 40 40">
<title>mt-gesture</title>
<path fill="#ebebeb" d="M22 27q0.7 0 1.4-0.925t0.9-2.825q-1.5 0.4-2.3 1.351t-0.8 1.6q0 0.349 0.251 0.575t0.549 0.225zM12.1 14.551l-1.849-1.8q0.5-0.6 0.9-1 1.349-1.349 2.9-1.349 0.949 0 1.825 0.751t0.875 2.3q0 1.5-1.4 3.5-1.4 1.951-1.949 3.751-0.3 0.851-0.175 1.451t0.525 0.6q0.449 0 1.2-0.9 1.1-1.1 2.451-2.9 2.4-3 5.251-3 2.1 0 3.125 1.375t1.175 3.075h2.651v2.651h-2.6q-0.3 3.449-1.849 5t-3.2 1.551q-1.4 0-2.4-0.975t-1-2.325q0-1.651 1.5-3.451t4.251-2.3q-0.051-0.4-0.075-0.551t-0.151-0.475-0.3-0.475-0.525-0.275-0.851-0.125q-1.4 0-4.349 3.651-0.851 1.049-1.175 1.425t-0.925 0.875-1.151 0.649q-1.751 0.551-3-0.649t-1.251-3q0-0.751 0.275-1.651t0.725-1.751 0.849-1.525 0.775-1.225 0.425-0.6q0.851-1.4 0.3-1.6-0.349-0.151-1.8 1.3z"></path>
</svg>
