<!-- Generated by IcoMoon.io -->
<svg version="1.1" xmlns="http://www.w3.org/2000/svg" width="40" height="40" viewBox="0 0 40 40">
<title>mt-hdr_strong</title>
<path fill="#ebebeb" d="M12.551 22.149q0.851 0 1.475-0.649t0.625-1.5-0.625-1.5-1.475-0.651-1.5 0.651-0.649 1.5 0.649 1.5 1.5 0.649zM12.551 15.751q1.751 0 3 1.251t1.251 3-1.251 3-3 1.251-3.025-1.251-1.275-3 1.275-3 3.025-1.251zM25.351 13.6q2.649 0 4.525 1.875t1.875 4.525-1.875 4.525-4.525 1.875-4.525-1.875-1.875-4.525 1.875-4.525 4.525-1.875z"></path>
</svg>
