<!-- Generated by IcoMoon.io -->
<svg version="1.1" xmlns="http://www.w3.org/2000/svg" width="40" height="40" viewBox="0 0 40 40">
<title>mt-http</title>
<path fill="#ebebeb" d="M30.149 19.449v-1.049h-2.149v1.049h2.149zM30.149 16.8q0.651 0 1.125 0.475t0.475 1.125v1.049q0 0.651-0.475 1.125t-1.125 0.475h-2.149v2.149h-1.6v-6.4h3.751zM20.551 18.4v-1.6h4.8v1.6h-1.6v4.8h-1.6v-4.8h-1.6zM14.651 18.4v-1.6h4.8v1.6h-1.6v4.8h-1.6v-4.8h-1.6zM12 18.949v-2.149h1.6v6.4h-1.6v-2.649h-2.151v2.649h-1.6v-6.4h1.6v2.149h2.151z"></path>
</svg>
