<!-- Generated by IcoMoon.io -->
<svg version="1.1" xmlns="http://www.w3.org/2000/svg" width="40" height="40" viewBox="0 0 40 40">
<title>mt-language</title>
<path fill="#ebebeb" d="M24.649 22.149h3.6q0.3-1.4 0.3-2.151t-0.3-2.149h-3.6q0.149 1.049 0.149 2.149t-0.149 2.151zM22.751 28.051q1.251-0.4 2.6-1.525t2.049-2.275h-3.149q-0.5 2-1.5 3.8zM22.5 22.149q0.149-1.049 0.149-2.151t-0.149-2.149h-5q-0.151 1.049-0.151 2.149t0.151 2.151h5zM20 28.5q1.4-2.051 2.051-4.251h-4.1q0.651 2.2 2.049 4.251zM15.751 15.751q0.6-2.151 1.5-3.8-1.251 0.4-2.625 1.525t-2.025 2.275h3.151zM12.6 24.251q0.651 1.149 2.025 2.275t2.625 1.525q-1-1.8-1.5-3.8h-3.151zM11.751 22.149h3.6q-0.151-1.049-0.151-2.151t0.151-2.149h-3.6q-0.3 1.4-0.3 2.149t0.3 2.151zM20 11.5q-1.4 2.051-2.051 4.251h4.1q-0.649-2.2-2.051-4.251zM27.4 15.751q-0.7-1.151-2.049-2.275t-2.6-1.525q0.9 1.649 1.5 3.8h3.151zM20 9.349q4.4 0 7.525 3.125t3.125 7.525-3.125 7.525-7.525 3.125-7.525-3.125-3.125-7.525 3.125-7.525 7.525-3.125z"></path>
</svg>
