<!-- Generated by IcoMoon.io -->
<svg version="1.1" xmlns="http://www.w3.org/2000/svg" width="40" height="40" viewBox="0 0 40 40">
<title>mt-library_music</title>
<path fill="#ebebeb" d="M11.451 13.6v14.949h14.949v2.1h-14.949q-0.851 0-1.475-0.625t-0.625-1.475v-14.949h2.1zM26.4 14.651v-2.1h-4.249v5.851q-0.7-0.551-1.6-0.551-1.1 0-1.9 0.8t-0.8 1.9 0.8 1.875 1.9 0.775 1.875-0.775 0.775-1.875v-5.9h3.2zM28.551 9.349q0.849 0 1.475 0.625t0.625 1.475v12.8q0 0.851-0.625 1.5t-1.475 0.649h-12.8q-0.849 0-1.5-0.649t-0.651-1.5v-12.8q0-0.851 0.651-1.475t1.5-0.625h12.8z"></path>
</svg>
