<!-- Generated by IcoMoon.io -->
<svg version="1.1" xmlns="http://www.w3.org/2000/svg" width="40" height="40" viewBox="0 0 40 40">
<title>mt-local_attraction</title>
<path fill="#ebebeb" d="M23.8 25.1l-1.151-4.351 3.5-2.9-4.5-0.251-1.649-4.2-1.651 4.2-4.549 0.251 3.549 2.9-1.149 4.349 3.8-2.449zM28.551 20q0 0.851 0.625 1.5t1.475 0.649v4.249q0 0.851-0.625 1.5t-1.475 0.651h-17.1q-0.851 0-1.475-0.651t-0.625-1.5v-4.249q0.9 0 1.5-0.625t0.6-1.525q0-0.849-0.625-1.5t-1.475-0.649v-4.251q0-0.851 0.625-1.5t1.475-0.649h17.1q0.849 0 1.475 0.649t0.625 1.5v4.251q-0.849 0-1.475 0.649t-0.625 1.5z"></path>
</svg>
