<!-- Generated by IcoMoon.io -->
<svg version="1.1" xmlns="http://www.w3.org/2000/svg" width="40" height="40" viewBox="0 0 40 40">
<title>mt-looks_6</title>
<path fill="#ebebeb" d="M23.2 16.8v-2.151h-4.251q-0.9 0-1.525 0.625t-0.625 1.525v6.4q0 0.9 0.625 1.525t1.525 0.625h2.1q0.9 0 1.525-0.625t0.625-1.525v-2.149q0-0.9-0.625-1.5t-1.525-0.6h-2.1v-2.151h4.251zM27.449 10.4q0.851 0 1.5 0.649t0.651 1.5v14.9q0 0.849-0.651 1.5t-1.5 0.651h-14.9q-0.851 0-1.5-0.651t-0.651-1.5v-14.9q0-0.849 0.651-1.5t1.5-0.649h14.9zM18.949 23.2v-2.149h2.1v2.149h-2.1z"></path>
</svg>
