<!-- Generated by IcoMoon.io -->
<svg version="1.1" xmlns="http://www.w3.org/2000/svg" width="40" height="40" viewBox="0 0 40 40">
<title>mt-local_shipping</title>
<path fill="#ebebeb" d="M26.4 26.949q0.7 0 1.151-0.475t0.449-1.125-0.449-1.125-1.151-0.475-1.149 0.475-0.449 1.125 0.449 1.125 1.149 0.475zM28 17.349h-2.649v2.651h4.751zM13.6 26.949q0.7 0 1.151-0.475t0.449-1.125-0.449-1.125-1.151-0.475-1.149 0.475-0.451 1.125 0.451 1.125 1.149 0.475zM28.551 15.751l3.2 4.251v5.351h-2.149q0 1.3-0.951 2.251t-2.251 0.949-2.251-0.949-0.949-2.251h-6.4q0 1.3-0.949 2.251t-2.251 0.949-2.251-0.949-0.951-2.251h-2.149v-11.751q0-0.849 0.651-1.5t1.5-0.651h14.951v4.3h3.2z"></path>
</svg>
