<!-- Generated by IcoMoon.io -->
<svg version="1.1" xmlns="http://www.w3.org/2000/svg" width="40" height="40" viewBox="0 0 40 40">
<title>mt-monochrome_photos</title>
<path fill="#ebebeb" d="M28.551 27.449v-12.8h-8.551v1.1q2.251 0 3.8 1.525t1.551 3.775-1.551 3.8-3.8 1.549v-1.9q-1.4 0-2.4-1t-1-2.449 1-2.425 2.4-0.975v6.849q1.4 0 2.4-1t1-2.449-1-2.425-2.4-0.975v-1.9q-2.251 0-3.8 1.525t-1.549 3.775 1.549 3.8 3.8 1.549v1.051h8.551zM28.551 12.551q0.849 0 1.475 0.625t0.625 1.475v12.8q0 0.849-0.625 1.5t-1.475 0.651h-17.1q-0.851 0-1.475-0.651t-0.625-1.5v-12.8q0-0.851 0.625-1.475t1.475-0.625h3.449l1.9-2.149h6.4l1.9 2.149h3.449z"></path>
</svg>
