<!-- Generated by IcoMoon.io -->
<svg version="1.1" xmlns="http://www.w3.org/2000/svg" width="40" height="40" viewBox="0 0 40 40">
<title>mt-mark_email_unread</title>
<path fill="#ebebeb" d="M30.649 16.8v9.6q0 0.9-0.625 1.525t-1.475 0.625h-17.1q-0.849 0-1.475-0.625t-0.625-1.525v-12.8q0-0.9 0.625-1.525t1.475-0.625h10.8q-0.049 0.251-0.075 0.525t-0.025 0.575q0 1.151 0.475 2.175t1.275 1.775l-3.9 2.451-8.549-5.349v2.151l8.549 5.3 5.649-3.5q0.451 0.149 0.9 0.225t0.9 0.075q0.9 0 1.725-0.275t1.475-0.775zM24.251 12.551q0 0.851 0.449 1.575t1.175 1.175 1.575 0.449q0.9 0 1.625-0.449t1.151-1.175 0.425-1.575q0-0.9-0.425-1.625t-1.151-1.149-1.625-0.425q-0.849 0-1.575 0.425t-1.175 1.149-0.449 1.625z"></path>
</svg>
