<!-- Generated by IcoMoon.io -->
<svg version="1.1" xmlns="http://www.w3.org/2000/svg" width="40" height="40" viewBox="0 0 40 40">
<title>mt-mic_external_on</title>
<path fill="#ebebeb" d="M17.051 14.651h-4.751q-0.4-0.4-0.625-0.951t-0.225-1.149q0-0.9 0.451-1.625t1.175-1.149 1.575-0.425q0.9 0 1.625 0.425t1.151 1.149 0.425 1.625q0 0.6-0.225 1.149t-0.575 0.951zM24.251 9.349q1.2 0 2.175 0.575t1.551 1.525 0.575 2.149v17.049h-2.151v-17.049q0-0.9-0.625-1.525t-1.525-0.625q-0.851 0-1.475 0.625t-0.625 1.525v12.8q0 1.2-0.575 2.151t-1.551 1.525-2.175 0.575q-1.151 0-2.125-0.575t-1.551-1.525-0.575-2.151h-1.051l-1.1-10.649h6.4l-1.049 10.649h-1.051q0 0.9 0.625 1.525t1.475 0.625q0.9 0 1.525-0.625t0.625-1.525v-12.8q0-1.2 0.575-2.149t1.551-1.525 2.125-0.575z"></path>
</svg>
