<!-- Generated by IcoMoon.io -->
<svg version="1.1" xmlns="http://www.w3.org/2000/svg" width="40" height="40" viewBox="0 0 40 40">
<title>mt-medical_services</title>
<path fill="#ebebeb" d="M28.551 13.6h-4.3v-2.149q0-0.851-0.625-1.475t-1.475-0.625h-4.3q-0.851 0-1.475 0.625t-0.625 1.475v2.149h-4.3q-0.849 0-1.475 0.625t-0.625 1.525v12.8q0 0.849 0.625 1.475t1.475 0.625h17.1q0.849 0 1.475-0.625t0.625-1.475v-12.8q0-0.9-0.625-1.525t-1.475-0.625zM17.849 11.451h4.3v2.149h-4.3v-2.149zM24.251 23.2h-3.2v3.2h-2.1v-3.2h-3.2v-2.149h3.2v-3.2h2.1v3.2h3.2v2.149z"></path>
</svg>
