<!-- Generated by IcoMoon.io -->
<svg version="1.1" xmlns="http://www.w3.org/2000/svg" width="40" height="40" viewBox="0 0 40 40">
<title>mt-multiple_stop</title>
<path fill="#ebebeb" d="M25.351 11.451l4.251 4.3-4.251 4.251v-3.2h-4.3v-2.151h4.3v-3.2zM17.849 14.651q-0.4 0-0.725 0.325t-0.325 0.775q0 0.4 0.325 0.725t0.725 0.325q0.451 0 0.775-0.325t0.325-0.725q0-0.449-0.325-0.775t-0.775-0.325zM13.6 14.651q-0.449 0-0.751 0.325t-0.3 0.775q0 0.4 0.3 0.725t0.751 0.325 0.751-0.325 0.3-0.725q0-0.449-0.3-0.775t-0.751-0.325zM14.651 25.351h4.3v-2.151h-4.3v-3.2l-4.251 4.251 4.251 4.3v-3.2zM22.149 25.351q0.4 0 0.725-0.325t0.325-0.775q0-0.4-0.325-0.725t-0.725-0.325q-0.451 0-0.775 0.325t-0.325 0.725q0 0.449 0.325 0.775t0.775 0.325zM26.4 25.351q0.451 0 0.751-0.325t0.3-0.775q0-0.4-0.3-0.725t-0.751-0.325-0.751 0.325-0.3 0.725q0 0.449 0.3 0.775t0.751 0.325z"></path>
</svg>
