<!-- Generated by IcoMoon.io -->
<svg version="1.1" xmlns="http://www.w3.org/2000/svg" width="40" height="40" viewBox="0 0 40 40">
<title>mt-next_plan</title>
<path fill="#ebebeb" d="M20 9.349q-2.2 0-4.125 0.825t-3.4 2.3-2.3 3.4-0.825 4.125 0.825 4.125 2.3 3.4 3.4 2.3 4.125 0.825 4.125-0.825 3.4-2.3 2.3-3.4 0.825-4.125-0.825-4.125-2.3-3.4-3.4-2.3-4.125-0.825zM26.4 22.1h-5.349l2.449-2.4q-0.751-0.849-1.8-1.349t-2.251-0.5q-1.251 0-2.325 0.525t-1.825 1.475-1 2.1l-1.051-0.3q0.351-1.4 1.251-2.5t2.175-1.751 2.775-0.649q1.451 0 2.675 0.6t2.125 1.6l2.151-2.2v5.351z"></path>
</svg>
