<!-- Generated by IcoMoon.io -->
<svg version="1.1" xmlns="http://www.w3.org/2000/svg" width="40" height="40" viewBox="0 0 40 40">
<title>mt-no_luggage</title>
<path fill="#ebebeb" d="M20.8 16.8v1l1.849 1.849v-2.849h1.6v4.449l3.2 3.2v-8.7q0-0.9-0.625-1.525t-1.475-0.625h-2.151v-3.2q0-0.451-0.325-0.751t-0.725-0.3h-4.3q-0.4 0-0.725 0.3t-0.325 0.751v3.2h-0.2l3.2 3.2h1zM18.4 10.951h3.2v2.649h-3.2v-2.649zM29.8 29.8l-19.6-19.6-1.5 1.5 3.851 3.851v11.9q0 0.9 0.625 1.525t1.475 0.625q0 0.449 0.325 0.751t0.775 0.3q0.4 0 0.725-0.3t0.325-0.751h6.4q0 0.449 0.325 0.751t0.725 0.3q0.451 0 0.775-0.3t0.325-0.751q0.5 0 1-0.251l1.949 1.949zM15.751 26.4v-7.649l1.6 1.6v6.049h-1.6zM20.8 26.4h-1.6v-4.2l1.6 1.6v2.6z"></path>
</svg>
