<!-- Generated by IcoMoon.io -->
<svg version="1.1" xmlns="http://www.w3.org/2000/svg" width="40" height="40" viewBox="0 0 40 40">
<title>mt-network_check</title>
<path fill="#ebebeb" d="M12.551 21.051q3.2-3.2 7.8-3.051l-1.4 3.051q-1.049 0.149-2.3 0.775t-2 1.375zM25.351 23.2q-0.551-0.549-1.3-1.049l0.6-3.1q1.6 0.8 2.8 2zM29.6 18.949q-1.951-1.949-4.4-2.949l0.551-3q1.449 0.551 3.2 1.651t2.8 2.151zM8.251 16.8q2.951-2.951 6.825-4.125t7.825-0.475l-1.251 2.851q-3.049-0.4-6.025 0.625t-5.225 3.275zM24.149 12.551q0.549 0 0.549 0.5l-2.6 13.751v0.051q-0.151 0.7-0.751 1.2t-1.351 0.5q-0.9 0-1.525-0.625t-0.625-1.525q0-0.549 0.251-1.049l5.549-12.4q0.149-0.4 0.5-0.4z"></path>
</svg>
