<!-- Generated by IcoMoon.io -->
<svg version="1.1" xmlns="http://www.w3.org/2000/svg" width="40" height="40" viewBox="0 0 40 40">
<title>mt-nfc</title>
<path fill="#ebebeb" d="M26.4 13.6v12.8h-12.8v-12.8h4.251v2.149h-2.1v8.5h8.5v-8.5h-3.2v2.4q1.1 0.6 1.1 1.849 0 0.851-0.649 1.5t-1.5 0.649-1.5-0.649-0.651-1.5q0-1.251 1.1-1.849v-2.4q0-0.849 0.625-1.5t1.475-0.651h5.351zM28.551 28.551v-17.1h-17.1v17.1h17.1zM28.551 9.349q0.849 0 1.475 0.625t0.625 1.475v17.1q0 0.849-0.625 1.475t-1.475 0.625h-17.1q-0.851 0-1.475-0.625t-0.625-1.475v-17.1q0-0.851 0.625-1.475t1.475-0.625h17.1z"></path>
</svg>
