<!-- Generated by IcoMoon.io -->
<svg version="1.1" xmlns="http://www.w3.org/2000/svg" width="40" height="40" viewBox="0 0 40 40">
<title>mt-outlet</title>
<path fill="#ebebeb" d="M20 9.349q-2.2 0-4.125 0.825t-3.4 2.3-2.3 3.4-0.825 4.125 0.825 4.125 2.3 3.4 3.4 2.3 4.125 0.825 4.125-0.825 3.4-2.3 2.3-3.4 0.825-4.125-0.825-4.125-2.3-3.4-3.4-2.3-4.125-0.825zM16.8 20q-0.451 0-0.751-0.325t-0.3-0.725v-3.2q0-0.449 0.3-0.775t0.751-0.325 0.751 0.325 0.3 0.775v3.2q0 0.4-0.3 0.725t-0.751 0.325zM22.149 26.4h-4.3v-2.149q0-0.851 0.625-1.475t1.525-0.625 1.525 0.625 0.625 1.475v2.149zM24.251 18.949q0 0.4-0.3 0.725t-0.751 0.325-0.751-0.325-0.3-0.725v-3.2q0-0.449 0.3-0.775t0.751-0.325 0.751 0.325 0.3 0.775v3.2z"></path>
</svg>
