<!-- Generated by IcoMoon.io -->
<svg version="1.1" xmlns="http://www.w3.org/2000/svg" width="40" height="40" viewBox="0 0 40 40">
<title>mt-offline_share</title>
<path fill="#ebebeb" d="M26.4 24.251v-12.8h-8.549v12.8h8.549zM26.4 8.251q0.851 0 1.5 0.651t0.651 1.5v14.951q0 0.849-0.651 1.475t-1.5 0.625h-8.549q-0.851 0-1.475-0.625t-0.625-1.475v-14.951q0-0.851 0.625-1.5t1.475-0.651h8.549zM24.251 31.751h-10.651q-0.849 0-1.5-0.649t-0.649-1.5v-17.051h2.149v17.051h10.651v2.149zM22.751 18.151q-2.5 0-3.8 1.751 0.7-3.3 3.8-3.751v-1.4l2.6 2.4-2.6 2.4v-1.4z"></path>
</svg>
