<!-- Generated by IcoMoon.io -->
<svg version="1.1" xmlns="http://www.w3.org/2000/svg" width="40" height="40" viewBox="0 0 40 40">
<title>mt-pending_actions</title>
<path fill="#ebebeb" d="M25.351 20q-1.5 0-2.7 0.725t-1.925 1.925-0.725 2.7q0 1.449 0.725 2.675t1.925 1.925 2.7 0.7q1.449 0 2.675-0.7t1.925-1.925 0.7-2.675q0-1.5-0.7-2.7t-1.925-1.925-2.675-0.725zM27.1 27.851l-2.3-2.3v-3.4h1.051v2.951l2 2zM26.4 10.4h-3.4q-0.351-0.951-1.149-1.551t-1.851-0.6-1.849 0.6-1.151 1.551h-3.4q-0.9 0-1.525 0.625t-0.625 1.525v16q0 0.849 0.625 1.475t1.525 0.625h6.5q-0.951-0.9-1.5-2.1h-5v-16h2.151v3.2h8.5v-3.2h2.149v5.4q1.1 0.151 2.151 0.651v-6.051q0-0.9-0.625-1.525t-1.525-0.625zM20 12.551q-0.449 0-0.751-0.325t-0.3-0.775q0-0.4 0.3-0.725t0.751-0.325 0.751 0.325 0.3 0.725q0 0.451-0.3 0.775t-0.751 0.325z"></path>
</svg>
