<!-- Generated by IcoMoon.io -->
<svg version="1.1" xmlns="http://www.w3.org/2000/svg" width="40" height="40" viewBox="0 0 40 40">
<title>mt-pedal_bike</title>
<path fill="#ebebeb" d="M26.6 17.849l-1.8-5q-0.251-0.6-0.8-1t-1.251-0.4h-2.751v2.149h2.751l1.6 4.251h-5.151l-0.4-1.049h1.2v-2.151h-5.349v2.151h1.9l1.9 5.349h-0.7q-0.2-1.2-0.925-2.151t-1.751-1.5-2.275-0.6q-1.5-0.1-2.775 0.625t-2.051 1.951-0.775 2.725 0.7 2.7 1.925 1.925 2.725 0.725q1.3 0 2.4-0.551t1.825-1.525 0.975-2.225h4.5q0.2 1.2 0.925 2.149t1.751 1.5 2.275 0.6q1.5 0.1 2.775-0.625t2.049-1.949 0.775-2.725-0.7-2.7-1.925-1.925-2.725-0.725h-0.851zM15.551 24.251q-0.351 0.949-1.151 1.551t-1.851 0.6q-0.9 0-1.625-0.425t-1.149-1.151-0.425-1.625 0.425-1.625 1.149-1.149 1.625-0.425q1.051 0 1.851 0.6t1.151 1.551h-3v2.1h3zM22.251 22.149h-1.5l-0.8-2.151h3.251q-0.349 0.451-0.6 1t-0.351 1.149zM27.449 26.4q-0.9 0-1.625-0.425t-1.149-1.151-0.425-1.625q0-0.751 0.3-1.375t0.849-1.075l1 2.851 2-0.751-1-2.851h0.1q0.849 0 1.575 0.425t1.175 1.149 0.449 1.625-0.449 1.625-1.175 1.151-1.625 0.425z"></path>
</svg>
