<!-- Generated by IcoMoon.io -->
<svg version="1.1" xmlns="http://www.w3.org/2000/svg" width="40" height="40" viewBox="0 0 40 40">
<title>mt-phonelink_off</title>
<path fill="#ebebeb" d="M31.751 15.751q0.449 0 0.751 0.3t0.3 0.751v10.651q0 0.449-0.3 0.775t-0.751 0.325h-0.2l-3.2-3.2h2.3v-7.5h-4.251v5.549l-2.149-2.149v-4.451q0-0.451 0.325-0.751t0.775-0.3h6.4zM11.451 13.9v11.451h11.449zM9.251 8.951q4.051 4.049 11.525 11.549t9.175 9.2l-1.349 1.351-2.5-2.5h-18.9v-3.2h2.149v-11.751q0-0.751 0.5-1.349l-1.949-1.951zM30.649 13.6h-14.049l-2.151-2.149h16.2v2.149z"></path>
</svg>
