<!-- Generated by IcoMoon.io -->
<svg version="1.1" xmlns="http://www.w3.org/2000/svg" width="40" height="40" viewBox="0 0 40 40">
<title>mt-panorama_vertical</title>
<path fill="#ebebeb" d="M14.2 28.551h11.6q-1.2-4.151-1.2-8.551t1.2-8.551h-11.6q1.2 4.1 1.2 8.551 0 4.4-1.2 8.551zM28.449 29.751q0.1 0.2 0.1 0.3 0 0.6-0.7 0.6h-15.7q-0.7 0-0.7-0.6 0-0.1 0.1-0.3 1.749-4.8 1.749-9.751t-1.751-9.751q-0.1-0.2-0.1-0.3 0-0.6 0.7-0.6h15.7q0.7 0 0.7 0.6 0 0.1-0.1 0.3-1.751 4.8-1.751 9.751t1.751 9.751z"></path>
</svg>
