<!-- Generated by IcoMoon.io -->
<svg version="1.1" xmlns="http://www.w3.org/2000/svg" width="40" height="40" viewBox="0 0 40 40">
<title>mt-print_disabled</title>
<path fill="#ebebeb" d="M15.751 27.449h8.4l-5.3-5.3h-3.1v5.3zM8.5 9.1l22.4 22.3-1.4 1.4-3.2-3.2h-12.7v-4.251h-4.251v-6.4q0-1.251 0.9-2.175t2.2-1.025l-5.251-5.349zM26.4 14.651h-9.6l-3.2-3.1v-1.149h12.8v4.251zM27.449 17.849q-0.449 0-0.751 0.325t-0.3 0.775 0.3 0.751 0.751 0.3 0.775-0.3 0.325-0.751-0.325-0.775-0.775-0.325zM27.551 25.351l-9.7-9.6h9.6q1.349 0 2.275 0.925t0.925 2.275v6.4h-3.1z"></path>
</svg>
