<!-- Generated by IcoMoon.io -->
<svg version="1.1" xmlns="http://www.w3.org/2000/svg" width="40" height="40" viewBox="0 0 40 40">
<title>mt-phone_disabled</title>
<path fill="#ebebeb" d="M22.7 25.7q-2 1.6-5.3 2.751t-5.9 1.151h-0.049q-0.451 0-0.751-0.3t-0.3-0.751v-3.751q0-0.449 0.3-0.751t0.751-0.3q2 0 3.8-0.6 0.6-0.251 1.1 0.251l2.349 2.349q1.5-0.8 2.451-1.549l-12.449-12.5 1.5-1.5 19.6 19.6-1.5 1.5zM25.7 22.7l-1.549-1.5q0.951-1.251 1.6-2.5l-2.351-2.349q-0.451-0.449-0.251-1.1 0.6-1.8 0.6-3.8 0-0.451 0.3-0.751t0.751-0.3h3.751q0.449 0 0.751 0.3t0.3 0.751q0 6.3-3.9 11.249z"></path>
</svg>
