<!-- Generated by IcoMoon.io -->
<svg version="1.1" xmlns="http://www.w3.org/2000/svg" width="40" height="40" viewBox="0 0 40 40">
<title>mt-payments</title>
<path fill="#ebebeb" d="M27.449 22.149v-8.551q0-0.9-0.625-1.525t-1.475-0.625h-14.951q-0.9 0-1.525 0.625t-0.625 1.525v8.551q0 0.851 0.625 1.475t1.525 0.625h14.951q0.849 0 1.475-0.625t0.625-1.475zM17.849 21.051q-0.849 0-1.575-0.425t-1.175-1.151-0.449-1.625q0-0.849 0.449-1.575t1.175-1.175 1.575-0.449q0.9 0 1.625 0.449t1.151 1.175 0.425 1.575q0 0.9-0.425 1.625t-1.151 1.151-1.625 0.425zM31.751 14.651v11.749q0 0.9-0.625 1.525t-1.525 0.625h-18.151v-2.151h18.151v-11.749h2.149z"></path>
</svg>
