<!-- Generated by IcoMoon.io -->
<svg version="1.1" xmlns="http://www.w3.org/2000/svg" width="40" height="40" viewBox="0 0 40 40">
<title>mt-queue_play_next</title>
<path fill="#ebebeb" d="M32.8 26.4l-4.8 4.8-1.6-1.6 3.2-3.2-3.2-3.2 1.6-1.6zM21.051 17.849h3.2v2.151h-3.2v3.2h-2.1v-3.2h-3.2v-2.151h3.2v-3.2h2.1v3.2zM29.6 10.4q0.9 0 1.525 0.625t0.625 1.525v8.5h-2.149v-8.5h-19.2v12.8h16v2.1h-2.149v2.151h-8.5v-2.151h-5.351q-0.9 0-1.525-0.6t-0.625-1.5v-12.8q0-0.9 0.625-1.525t1.525-0.625h19.2z"></path>
</svg>
