<!-- Generated by IcoMoon.io -->
<svg version="1.1" xmlns="http://www.w3.org/2000/svg" width="40" height="40" viewBox="0 0 40 40">
<title>mt-rotate_left</title>
<path fill="#ebebeb" d="M21.051 11.549q3.149 0.4 5.325 2.8t2.175 5.651-2.175 5.649-5.325 2.8v-2.149q2.3-0.4 3.825-2.175t1.525-4.125-1.525-4.125-3.825-2.175v4.149l-4.851-4.751 4.851-4.849v3.3zM14.751 26.751l1.551-1.551q1.149 0.851 2.649 1.1v2.149q-2.4-0.3-4.2-1.7zM13.7 21.051q0.251 1.449 1.051 2.649l-1.5 1.5q-1.4-1.849-1.7-4.151h2.149zM14.8 16.3q-0.9 1.3-1.1 2.649h-2.149q0.3-2.251 1.751-4.149z"></path>
</svg>
