<!-- Generated by IcoMoon.io -->
<svg version="1.1" xmlns="http://www.w3.org/2000/svg" width="40" height="40" viewBox="0 0 40 40">
<title>mt-replay_10</title>
<path fill="#ebebeb" d="M21.3 23.4q0 0.351 0.5 0.351 0.251 0 0.349-0.1l0.2-0.251q0.1-0.2 0.1-0.3v-2.151q-0.1-0.2-0.1-0.3t-0.225-0.225-0.325-0.125q-0.151 0-0.3 0.149l-0.2 0.2q-0.151 0.2-0.151 0.3v2.149q0.151 0.2 0.151 0.3zM23.4 22.351q0 0.649-0.1 0.851l-0.3 0.649q-0.349 0.3-0.549 0.3-0.1 0-0.325 0.051t-0.325 0.051q-0.449 0-0.649-0.1-0.1-0.049-0.251-0.149t-0.251-0.151q-0.451-0.251-0.451-1.5v-0.751q0-0.649 0.1-0.849l0.349-0.651q0.3-0.3 0.5-0.3 0.1 0 0.325-0.049t0.325-0.051q0.449 0 0.649 0.1 0.1 0.051 0.275 0.151t0.275 0.149 0.3 0.649q0.1 0.3 0.1 0.851v0.751zM18.849 24.251h-1v-3.5l-1.049 0.3v-0.751l1.9-0.6h0.151v4.549zM20 12.551q3.551 0 6.051 2.5t2.5 6q0 3.549-2.525 6.051t-6.025 2.5-6.025-2.5-2.525-6.051h2.149q0 2.649 1.9 4.525t4.5 1.875 4.5-1.875 1.9-4.525-1.9-4.525-4.5-1.875v4.3l-5.349-5.349 5.349-5.351v4.3z"></path>
</svg>
