<!-- Generated by IcoMoon.io -->
<svg version="1.1" xmlns="http://www.w3.org/2000/svg" width="40" height="40" viewBox="0 0 40 40">
<title>mt-record_voice_over</title>
<path fill="#ebebeb" d="M28.6 9.349q3.1 3.251 3.1 7.525t-3.1 7.375l-1.751-1.7q2.2-2.551 2.2-5.825t-2.2-5.675zM25.1 12.9q1.6 1.751 1.6 3.951t-1.6 3.8l-1.8-1.8q0.7-0.951 0.7-2.075t-0.7-2.075zM16.8 23.2q2.7 0 5.625 1.175t2.925 3.075v2.151h-17.1v-2.151q0-1.9 2.925-3.075t5.625-1.175zM12.551 16.8q0-1.751 1.251-3t3-1.251 3 1.251 1.251 3-1.251 3-3 1.251-3-1.251-1.251-3z"></path>
</svg>
