<!-- Generated by IcoMoon.io -->
<svg version="1.1" xmlns="http://www.w3.org/2000/svg" width="40" height="40" viewBox="0 0 40 40">
<title>mt-replay_5</title>
<path fill="#ebebeb" d="M19.8 21.7q-0.351 0.151-0.351 0.2l-0.1 0.149h-0.751l0.251-2.349h2.549v0.749h-1.849l-0.1 0.951q0.1 0 0.1-0.1 0-0.049 0.075-0.075t0.075-0.075h0.4q0.4 0 0.549 0.149 0.051 0.051 0.2 0.151t0.2 0.149q0.449 0.451 0.449 1.151 0 0.449-0.1 0.549-0.049 0.049-0.149 0.251t-0.2 0.3-0.225 0.175-0.175 0.125q-0.1 0.1-0.651 0.1-0.449 0-0.549-0.1-0.051-0.051-0.225-0.1t-0.275-0.1q-0.451-0.251-0.451-0.949h0.851q0 0.5 0.649 0.5 0.2 0 0.3-0.1l0.251-0.2q0.1-0.2 0.1-0.3v-0.649l-0.1-0.2-0.251-0.251q-0.2-0.1-0.3-0.1h-0.2zM20 12.551q3.551 0 6.051 2.5t2.5 6q0 3.549-2.525 6.051t-6.025 2.5-6.025-2.5-2.525-6.051h2.149q0 2.649 1.9 4.525t4.5 1.875 4.5-1.875 1.9-4.525-1.9-4.525-4.5-1.875v4.3l-5.349-5.349 5.349-5.351v4.3z"></path>
</svg>
