<!-- Generated by IcoMoon.io -->
<svg version="1.1" xmlns="http://www.w3.org/2000/svg" width="40" height="40" viewBox="0 0 40 40">
<title>mt-speed</title>
<path fill="#ebebeb" d="M20 24.251q-0.849 0-1.5-0.625t-0.651-1.475q0-0.9 0.651-1.549l9.051-6-6.051 9.051q-0.6 0.6-1.5 0.6zM28.949 16.349q0.7 1.1 1.2 2.8t0.5 3q0 2.951-1.4 5.3-0.649 1.1-1.851 1.1h-14.8q-1.2 0-1.851-1.1-1.4-2.349-1.4-5.3 0-4.4 3.125-7.525t7.575-3.125q1.3 0 2.975 0.5t2.775 1.2l-2 1.3q-1.8-0.9-3.8-0.9-3.5 0-6.025 2.5t-2.525 6.049q0 2.3 1.151 4.249h14.8q1.151-1.949 1.151-4.249 0-2.049-0.9-3.849z"></path>
</svg>
