<!-- Generated by IcoMoon.io -->
<svg version="1.1" xmlns="http://www.w3.org/2000/svg" width="40" height="40" viewBox="0 0 40 40">
<title>mt-smoke_free</title>
<path fill="#ebebeb" d="M25.351 24.2l-3.151-3.149h3.151v3.149zM22.649 16.5q-1.451 0-2.5-1.075t-1.049-2.525 1.049-2.5 2.5-1.051v1.6q-0.851 0-1.4 0.525t-0.551 1.325q0 0.851 0.575 1.5t1.375 0.649h1.649q1.5 0 2.6 0.975t1.1 2.375v1.7h-1.6v-1.349q0-1-0.625-1.575t-1.475-0.575h-1.649zM27.3 12.4q1.5 0.7 2.425 2.149t0.925 3.251v2.2h-1.6v-2.2q0-1.8-1.225-3.075t-3.025-1.275v-1.6q0.8 0 1.375-0.575t0.575-1.425h1.6q0 1.5-1.051 2.551zM26.4 21.051h1.6v3.2h-1.6v-3.2zM29.051 21.051h1.6v3.2h-1.6v-3.2zM9.349 13.6l1.3-1.349 18.149 18.149-1.349 1.351-7.451-7.5h-10.649v-3.2h7.451z"></path>
</svg>
