<!-- Generated by IcoMoon.io -->
<svg version="1.1" xmlns="http://www.w3.org/2000/svg" width="40" height="40" viewBox="0 0 40 40">
<title>mt-satellite</title>
<path fill="#ebebeb" d="M12.551 26.4h14.9l-4.8-6.4-3.7 4.8-2.7-3.2zM12.551 20q3.1 0 5.275-2.2t2.175-5.3h-2.151q0 2.2-1.549 3.775t-3.751 1.575v2.151zM12.551 12.5v3.251q1.3 0 2.251-0.975t0.949-2.275h-3.2zM27.449 10.4q0.851 0 1.5 0.649t0.651 1.5v14.9q0 0.849-0.651 1.5t-1.5 0.651h-14.9q-0.851 0-1.5-0.651t-0.651-1.5v-14.9q0-0.849 0.651-1.5t1.5-0.649h14.9z"></path>
</svg>
