<!-- Generated by IcoMoon.io -->
<svg version="1.1" xmlns="http://www.w3.org/2000/svg" width="40" height="40" viewBox="0 0 40 40">
<title>mt-sports_kabaddi</title>
<path fill="#ebebeb" d="M19.2 18.449q1.651 1.651 3.851 1.651l0.149 2.2q-3.1 0-5.4-2.2l-0.751-0.751-2.5 2.549 2.251 2.251v6.4h-2.151v-5.5l-1.349-1.251v2.349l-4.551 4.5-1.5-1.5 3.9-3.849-1.151-3.149q0-0.049-0.049-0.175t-0.075-0.225-0.025-0.2q-0.1-0.9 0.649-1.651l3.549-3.549q0.651-0.651 1.5-0.651 0.751 0 1.2 0.349 0.3 0.3 2.451 2.4zM18.949 16.151q-0.8-0.151-1.349-0.9t-0.349-1.6q0.151-1.151 1.3-1.6 0.3-0.1 0.449-0.1 0.1 0 0.2-0.049h0.151q0.1 0 0.225 0.025t0.175 0.025q0.5 0 1.1 0.6t0.625 1.451-0.625 1.549q-0.3 0.3-0.7 0.451-0.049 0-0.175 0.075t-0.225 0.075q-0.151 0.049-0.4 0.049-0.049 0-0.2-0.025t-0.2-0.025zM32.8 19.849h-2.151v-3.6l-1.9-0.751 0.949 4.751t1.1 5.551 0.951 4.751h-2.251l-1.951-8.551-2.2 2.149v6.4h-2.149v-8q0.9-0.851 2.251-2.149l-0.651-3.2q-0.9 1-2.251 1.751-1.5-0.149-2.649-1.3 2.5-0.451 3.6-2.451l1.1-1.749q1-1.6 2.8-0.851l5.4 2.251v5zM22.649 9.751q0-0.9 0.625-1.525t1.525-0.625 1.525 0.625 0.625 1.525-0.625 1.5-1.525 0.6-1.525-0.6-0.625-1.5z"></path>
</svg>
