<!-- Generated by IcoMoon.io -->
<svg version="1.1" xmlns="http://www.w3.org/2000/svg" width="40" height="40" viewBox="0 0 40 40">
<title>mt-sports_baseball</title>
<path fill="#ebebeb" d="M22.149 20q0 2.3 1.5 4.575t3.6 3.225q-3.1 2.849-7.251 2.849t-7.251-2.849q2.3-1 3.7-3.1t1.4-4.7-1.4-4.7-3.7-3.1q3.1-2.849 7.251-2.849t7.251 2.849q-2.3 1-3.7 3.1t-1.4 4.7zM28.751 13.9q1.9 2.751 1.9 6.1t-1.9 6.1q-1.949-0.6-3.225-2.3t-1.275-3.8 1.275-3.8 3.225-2.3zM11.251 13.9q1.949 0.6 3.225 2.3t1.275 3.8-1.275 3.8-3.225 2.3q-1.9-2.751-1.9-6.1t1.9-6.1z"></path>
</svg>
