<!-- Generated by IcoMoon.io -->
<svg version="1.1" xmlns="http://www.w3.org/2000/svg" width="40" height="40" viewBox="0 0 40 40">
<title>mt-sync_problem</title>
<path fill="#ebebeb" d="M18.949 21.051v-6.4h2.1v6.4h-2.1zM29.6 11.451l-2.5 2.549q2.5 2.5 2.5 6 0 2.949-1.8 5.251t-4.6 3v-2.2q1.751-0.651 3-2.425t1.251-3.625q0-1.1-0.525-2.4t-1.325-2.1l-2.4 2.349v-6.4h6.4zM18.949 25.351v-2.151h2.1v2.151h-2.1zM10.4 20q0-2.949 1.8-5.251t4.6-3v2.2q-1.751 0.649-3 2.425t-1.251 3.625q0 1.1 0.525 2.4t1.325 2.1l2.4-2.351v6.4h-6.4l2.5-2.551q-2.5-2.5-2.5-6z"></path>
</svg>
