<!-- Generated by IcoMoon.io -->
<svg version="1.1" xmlns="http://www.w3.org/2000/svg" width="40" height="40" viewBox="0 0 40 40">
<title>mt-settings_input_svideo</title>
<path fill="#ebebeb" d="M23.751 23.2q0.649 0 1.125 0.451t0.475 1.149-0.475 1.151-1.125 0.449-1.125-0.449-0.475-1.151 0.475-1.149 1.125-0.451zM25.851 17.849q0.649 0 1.125 0.475t0.475 1.125-0.475 1.125-1.125 0.475-1.125-0.475-0.475-1.125 0.475-1.125 1.125-0.475zM20 29.6q4 0 6.8-2.8t2.8-6.8-2.8-6.8-6.8-2.8-6.8 2.8-2.8 6.8 2.8 6.8 6.8 2.8zM20 8.251q4.851 0 8.3 3.451t3.449 8.3-3.449 8.3-8.3 3.449-8.3-3.449-3.451-8.3 3.451-8.3 8.3-3.451zM16.251 23.2q0.651 0 1.125 0.451t0.475 1.149-0.475 1.151-1.125 0.449-1.125-0.449-0.475-1.151 0.475-1.149 1.125-0.451zM23.2 14.151q0 0.651-0.449 1.125t-1.149 0.475h-3.2q-0.7 0-1.149-0.475t-0.451-1.125 0.451-1.125 1.149-0.475h3.2q0.7 0 1.149 0.475t0.449 1.125zM15.751 19.449q0 0.651-0.475 1.125t-1.125 0.475-1.125-0.475-0.475-1.125 0.475-1.125 1.125-0.475 1.125 0.475 0.475 1.125z"></path>
</svg>
