<!-- Generated by IcoMoon.io -->
<svg version="1.1" xmlns="http://www.w3.org/2000/svg" width="40" height="40" viewBox="0 0 40 40">
<title>mt-screen_lock_rotation</title>
<path fill="#ebebeb" d="M25.1 9.849v0.551h3.649v-0.551q0-0.749-0.525-1.275t-1.275-0.525-1.3 0.525-0.549 1.275zM24.251 16.8q-0.449 0-0.751-0.3t-0.3-0.751v-4.3q0-0.451 0.3-0.751t0.751-0.3v-0.551q0-1.1 0.8-1.875t1.9-0.775 1.875 0.775 0.775 1.875v0.551q0.449 0 0.751 0.3t0.3 0.751v4.3q0 0.449-0.3 0.751t-0.751 0.3h-5.349zM16.251 29.051l1.4-1.4 4.049 4.051-0.7 0.051q-5 0-8.675-3.4t-4.075-8.349h1.6q0.251 2.649 2.125 5.3t4.275 3.751zM32 20.8q0.5 0.449 0.5 1.125t-0.5 1.175l-6.8 6.751q-0.449 0.5-1.1 0.5t-1.151-0.5l-12.8-12.8q-0.5-0.5-0.5-1.151 0-0.6 0.5-1.1l6.751-6.8q0.451-0.451 1.151-0.451t1.149 0.451l2.6 2.6-1.5 1.5-2.251-2.2-6.051 6 12.1 12.1 6-6.051-2.351-2.349 1.5-1.5z"></path>
</svg>
