<!-- Generated by IcoMoon.io -->
<svg version="1.1" xmlns="http://www.w3.org/2000/svg" width="40" height="40" viewBox="0 0 40 40">
<title>mt-select_all</title>
<path fill="#ebebeb" d="M16.8 16.8v6.4h6.4v-6.4h-6.4zM14.651 25.351v-10.7h10.7v10.7h-10.7zM23.2 12.551v-2.149h2.151v2.149h-2.151zM23.2 29.6v-2.151h2.151v2.151h-2.151zM27.449 25.351v-2.151h2.151v2.151h-2.151zM27.449 16.8v-2.151h2.151v2.151h-2.151zM27.449 29.6v-2.151h2.151q0 0.849-0.651 1.5t-1.5 0.651zM27.449 21.051v-2.1h2.151v2.1h-2.151zM18.949 29.6v-2.151h2.1v2.151h-2.1zM16.8 10.4v2.149h-2.151v-2.149h2.151zM10.4 25.351v-2.151h2.149v2.151h-2.149zM12.551 29.6q-0.851 0-1.5-0.651t-0.649-1.5h2.149v2.151zM27.449 10.4q0.851 0 1.5 0.649t0.651 1.5h-2.151v-2.149zM21.051 10.4v2.149h-2.1v-2.149h2.1zM10.4 16.8v-2.151h2.149v2.151h-2.149zM14.651 29.6v-2.151h2.151v2.151h-2.151zM10.4 21.051v-2.1h2.149v2.1h-2.149zM10.4 12.551q0-0.851 0.649-1.5t1.5-0.649v2.149h-2.149z"></path>
</svg>
