<!-- Generated by IcoMoon.io -->
<svg version="1.1" xmlns="http://www.w3.org/2000/svg" width="40" height="40" viewBox="0 0 40 40">
<title>mt-sports_esports</title>
<path fill="#ebebeb" d="M25.351 21.051q0.449 0 0.751-0.3t0.3-0.751-0.3-0.751-0.751-0.3-0.775 0.3-0.325 0.751 0.325 0.751 0.775 0.3zM23.2 17.849q0.451 0 0.751-0.3t0.3-0.751-0.3-0.751-0.751-0.3-0.751 0.3-0.3 0.751 0.3 0.751 0.751 0.3zM18.949 18.949v-1.1h-2.149v-2.1h-1.051v2.1h-2.149v1.1h2.149v2.1h1.051v-2.1h2.149zM30.2 24.351q0.2 1.251-0.625 2.175t-2.075 0.925q-1.1 0-1.9-0.8l-2.4-2.4h-6.4l-2.4 2.4q-0.8 0.8-1.949 0.8t-1.925-0.775-0.775-1.925q0-0.051 0.025-0.2t0.025-0.2l1.149-8.149q0.2-1.551 1.4-2.6t2.8-1.051h9.7q1.549 0 2.751 1.075t1.449 2.575z"></path>
</svg>
