<!-- Generated by IcoMoon.io -->
<svg version="1.1" xmlns="http://www.w3.org/2000/svg" width="40" height="40" viewBox="0 0 40 40">
<title>mt-sanitizer</title>
<path fill="#ebebeb" d="M23.751 14.151q0-0.351 0.225-0.8t0.549-0.875 0.575-0.725l0.251-0.3 0.225 0.3t0.551 0.725 0.575 0.875 0.251 0.8q0 0.651-0.475 1.125t-1.125 0.475q-0.7 0-1.151-0.475t-0.449-1.125zM28 23.2q1.1 0 1.875-0.775t0.775-1.875q0-0.7-0.4-1.525t-0.925-1.575-0.925-1.225l-0.4-0.475-0.4 0.475t-0.925 1.225-0.925 1.575-0.4 1.525q0 1.1 0.775 1.875t1.875 0.775zM21.051 22.149h-2.1v-2.151h-2.149v2.151h-2.151v2.1h2.151v2.149h2.149v-2.149h2.1v-2.1zM24.251 20v10.649h-12.8v-10.649q0-1.6 0.7-2.925t1.925-2.225 2.725-1.149v-2.251h-2.151v-2.1h6.4q0.9 0 1.725 0.275t1.475 0.775l-1.5 1.549q-0.4-0.251-0.825-0.375t-0.875-0.125h-2.1v2.249q1.5 0.251 2.7 1.149t1.9 2.225 0.7 2.925z"></path>
</svg>
