<!-- Generated by IcoMoon.io -->
<svg version="1.1" xmlns="http://www.w3.org/2000/svg" width="40" height="40" viewBox="0 0 40 40">
<title>mt-settings_remote</title>
<path fill="#ebebeb" d="M20 7.2q4.949 0 8.3 3.451l-1.5 1.5q-2.8-2.8-6.8-2.8t-6.8 2.8l-1.5-1.5q3.449-3.451 8.3-3.451zM14.7 13.651q2.2-2.2 5.3-2.2t5.3 2.2l-1.5 1.5q-0.651-0.651-1.775-1.1t-2.025-0.449-2.025 0.449-1.775 1.1zM20 23.2q0.851 0 1.5-0.649t0.649-1.5-0.649-1.475-1.5-0.625-1.5 0.625-0.651 1.475 0.651 1.5 1.5 0.649zM23.2 16.8q0.451 0 0.751 0.3t0.3 0.751v12.8q0 0.451-0.3 0.775t-0.751 0.325h-6.4q-0.451 0-0.751-0.325t-0.3-0.775v-12.8q0-0.451 0.3-0.751t0.751-0.3h6.4z"></path>
</svg>
