<!-- Generated by IcoMoon.io -->
<svg version="1.1" xmlns="http://www.w3.org/2000/svg" width="40" height="40" viewBox="0 0 40 40">
<title>mt-settings_voice</title>
<path fill="#ebebeb" d="M27.449 17.849q0 2.7-1.875 4.751t-4.525 2.451v3.5h-2.1v-3.5q-2.651-0.4-4.525-2.451t-1.875-4.751h1.8q0 2.351 1.675 3.9t3.975 1.551 3.975-1.551 1.675-3.9h1.8zM23.2 32.8v-2.151h2.151v2.151h-2.151zM18.949 32.8v-2.151h2.1v2.151h-2.1zM20 21.051q-1.3 0-2.251-0.951t-0.949-2.251v-6.4q0-1.3 0.949-2.249t2.251-0.949 2.251 0.949 0.949 2.249v6.4q0 1.3-0.949 2.251t-2.251 0.951zM14.651 32.8v-2.151h2.151v2.151h-2.151z"></path>
</svg>
