<!-- Generated by IcoMoon.io -->
<svg version="1.1" xmlns="http://www.w3.org/2000/svg" width="40" height="40" viewBox="0 0 40 40">
<title>mt-style</title>
<path fill="#ebebeb" d="M13.449 28.251v-6.751l3.7 8.9h-1.549q-0.851 0-1.5-0.649t-0.649-1.5zM15.6 16.551q0.451 0 0.751-0.325t0.3-0.775-0.3-0.751-0.751-0.3-0.751 0.3-0.3 0.751 0.3 0.775 0.751 0.325zM30.7 24.2q0.151 0.3 0.151 0.8 0 0.6-0.375 1.2t-0.925 0.8l-7.851 3.251q-0.3 0.149-0.8 0.149-0.6 0-1.175-0.375t-0.825-0.925l-5.3-12.8q-0.151-0.3-0.151-0.8 0-0.6 0.375-1.149t0.925-0.8l7.9-3.251q0.449-0.149 0.849-0.149 0.551 0 1.1 0.375t0.8 0.925zM9.9 28.149q-0.8-0.349-1.151-1.149t0-1.6l2.6-6.249v9.6z"></path>
</svg>
