<!-- Generated by IcoMoon.io -->
<svg version="1.1" xmlns="http://www.w3.org/2000/svg" width="40" height="40" viewBox="0 0 40 40">
<title>mt-self_improvement</title>
<path fill="#ebebeb" d="M17.849 13.6q0-0.9 0.625-1.525t1.525-0.625 1.525 0.625 0.625 1.525-0.625 1.525-1.525 0.625-1.525-0.625-0.625-1.525zM29.6 24.251v-2.1q-1.8 0-3.3-0.751t-2.651-2.151l-1.449-1.7q-0.649-0.751-1.649-0.751h-1.1q-1 0-1.651 0.751l-1.4 1.7q-1.2 1.4-2.7 2.151t-3.3 0.751v2.1q2.2 0 4.1-0.9t3.351-2.549v2.4l-4.1 1.651q-0.551 0.2-0.875 0.7t-0.325 1.051q0 0.8 0.551 1.375t1.351 0.575h2.349v-0.551q0-1.1 0.775-1.875t1.875-0.775h3.2q0.251 0 0.4 0.149t0.149 0.351q0 0.251-0.149 0.4t-0.4 0.151h-3.2q-0.651 0-1.125 0.475t-0.475 1.125v0.551h7.7q0.8 0 1.351-0.575t0.549-1.375q0-0.551-0.325-1.051t-0.875-0.7l-4.1-1.651v-2.4q1.451 1.649 3.351 2.549t4.1 0.9z"></path>
</svg>
