<!-- Generated by IcoMoon.io -->
<svg version="1.1" xmlns="http://www.w3.org/2000/svg" width="40" height="40" viewBox="0 0 40 40">
<title>mt-shutter_speed</title>
<path fill="#ebebeb" d="M21.4 14.849l-2.9 5-2.451-3.8q1.8-1.4 3.949-1.4 0.5 0 1.4 0.2zM24.649 25.449l-3-5.449h4.649q0.1 0.7 0.1 1.051v0.049q0 1.049-0.5 2.325t-1.249 2.025zM15.251 16.8l3.5 5.349h-5.051q-0.1-0.7-0.1-1.1 0-1 0.475-2.251t1.175-2zM18.5 27.3l3.051-5.251 2.251 4.151q-1.651 1.251-3.8 1.251-0.751 0-1.5-0.151zM26.051 18.949h-5.751l2.149-3.8q1.1 0.451 2.175 1.575t1.425 2.225zM19.651 23.2l-2.151 3.751q-1.1-0.449-2.125-1.551t-1.425-2.2h5.7zM20 28.551q3.1 0 5.275-2.2t2.175-5.3-2.175-5.275-5.275-2.175-5.275 2.175-2.175 5.275 2.175 5.3 5.275 2.2zM27.5 15.1q0.851 1.1 1.475 2.825t0.625 3.125q0 3.949-2.8 6.775t-6.8 2.825-6.8-2.825-2.8-6.775 2.8-6.775 6.8-2.825q1.351 0 3.125 0.649t2.875 1.5l1.5-1.551q0.8 0.651 1.5 1.5zM23.2 8.251v2.151h-6.4v-2.151h6.4z"></path>
</svg>
