<!-- Generated by IcoMoon.io -->
<svg version="1.1" xmlns="http://www.w3.org/2000/svg" width="40" height="40" viewBox="0 0 40 40">
<title>mt-supervisor_account</title>
<path fill="#ebebeb" d="M16.8 21.051q1.1 0 2.549 0.3-2.549 1.4-2.549 3.7v2.4h-7.451v-2.649q0-1.151 1.375-2.051t3.025-1.3 3.051-0.4zM24.8 22.149q1.849 0 3.849 0.8t2 2.1v2.4h-11.7v-2.4q0-1.3 2-2.1t3.851-0.8zM16.8 18.949q-1.3 0-2.251-0.949t-0.949-2.251 0.949-2.251 2.251-0.949 2.251 0.949 0.949 2.251-0.949 2.251-2.251 0.949zM24.8 20q-1.1 0-1.875-0.775t-0.775-1.875 0.775-1.9 1.875-0.8 1.875 0.8 0.775 1.9-0.775 1.875-1.875 0.775z"></path>
</svg>
