<!-- Generated by IcoMoon.io -->
<svg version="1.1" xmlns="http://www.w3.org/2000/svg" width="40" height="40" viewBox="0 0 40 40">
<title>mt-timelapse</title>
<path fill="#ebebeb" d="M20 28.551q3.5 0 6.025-2.525t2.525-6.025-2.525-6.025-6.025-2.525-6.025 2.525-2.525 6.025 2.525 6.025 6.025 2.525zM20 9.349q4.4 0 7.525 3.125t3.125 7.525-3.125 7.525-7.525 3.125-7.525-3.125-3.125-7.525 3.125-7.525 7.525-3.125zM24.5 15.5q0.8 0.8 1.351 2.1t0.549 2.4-0.525 2.4-1.325 2.1q-1.851 1.9-4.5 1.9t-4.549-1.9l4.5-4.5v-6.4q1.1 0 2.4 0.551t2.1 1.349z"></path>
</svg>
