<!-- Generated by IcoMoon.io -->
<svg version="1.1" xmlns="http://www.w3.org/2000/svg" width="40" height="40" viewBox="0 0 40 40">
<title>mt-tty</title>
<path fill="#ebebeb" d="M22.149 11.451h2.1v2.149h-2.1v-2.149zM21.051 14.651h2.149v2.151h-2.149v-2.151zM18.949 11.451h2.1v2.149h-2.1v-2.149zM26.4 16.8h-2.149v-2.151h2.149v2.151zM27.449 13.6h-2.1v-2.149h2.1v2.149zM29.6 16.8h-2.151v-2.151h2.151v2.151zM30.649 13.6h-2.1v-2.149h2.1v2.149zM22.8 22.551l-2.7 2.7q-4.049-2.351-6.4-6.4l2.7-2.7q0.4-0.4 0.3-0.951l-0.8-3.949q-0.049-0.349-0.349-0.6t-0.7-0.251h-4.4q-0.451 0-0.775 0.325t-0.325 0.775q0.149 2.3 0.8 4.449t1.8 4.051q1.251 2.2 3.025 3.975t3.975 3.025q1.9 1.1 4.025 1.775t4.475 0.775q0.449 0.051 0.775-0.275t0.325-0.775v-4.449q0-0.351-0.251-0.651t-0.6-0.349l-3.949-0.8q-0.551-0.1-0.949 0.3zM22.149 17.849h2.1v2.151h-2.1v-2.151zM18.949 17.849h2.1v2.151h-2.1v-2.151zM27.449 20h-2.1v-2.151h2.1v2.151zM30.649 20h-2.1v-2.151h2.1v2.151z"></path>
</svg>
