<!-- Generated by IcoMoon.io -->
<svg version="1.1" xmlns="http://www.w3.org/2000/svg" width="40" height="40" viewBox="0 0 40 40">
<title>mt-toll</title>
<path fill="#ebebeb" d="M10.4 20q0 1.851 1.251 3.625t3 2.425v2.2q-2.8-0.7-4.6-3t-1.8-5.251 1.8-5.251 4.6-3v2.2q-1.751 0.649-3 2.425t-1.251 3.625zM23.2 26.4q2.651 0 4.525-1.875t1.875-4.525-1.875-4.525-4.525-1.875-4.525 1.875-1.875 4.525 1.875 4.525 4.525 1.875zM23.2 11.451q3.5 0 6.025 2.525t2.525 6.025-2.525 6.025-6.025 2.525-6.025-2.525-2.525-6.025 2.525-6.025 6.025-2.525z"></path>
</svg>
