<!-- Generated by IcoMoon.io -->
<svg version="1.1" xmlns="http://www.w3.org/2000/svg" width="40" height="40" viewBox="0 0 40 40">
<title>mt-tap_and_play</title>
<path fill="#ebebeb" d="M25.351 8.3q0.849 0 1.475 0.625t0.625 1.475v18.149q0 0.849-0.625 1.475t-1.475 0.625h-2.251q-0.149-2.149-1-4.251h3.251v-13.849h-10.7v6.4q-1.251-0.549-2.1-0.7v-7.849q0-0.851 0.625-1.5t1.475-0.651zM9.349 20q4.851 0 8.275 3.425t3.425 8.325h-2.1q0-3.949-2.825-6.775t-6.775-2.825v-2.149zM9.349 28.551q1.3 0 2.251 0.949t0.951 2.251h-3.2v-3.2zM9.349 24.251q3.1 0 5.275 2.2t2.175 5.3h-2.151q0-2.2-1.551-3.775t-3.751-1.575v-2.149z"></path>
</svg>
