<!-- Generated by IcoMoon.io -->
<svg version="1.1" xmlns="http://www.w3.org/2000/svg" width="40" height="40" viewBox="0 0 40 40">
<title>mt-transfer_within_a_station</title>
<path fill="#ebebeb" d="M13.349 16.7l-2.949 15.051h2.249l1.849-8.551 2.3 2.151v6.4h2.151v-8.051l-2.2-2.2 0.651-3.2q2.251 2.751 5.8 2.751v-2.1q-1.451 0-2.675-0.725t-1.975-1.925l-1-1.7q-0.549-1-1.8-1-0.451 0-0.8 0.151l-5.6 2.3v5h2.1v-3.551l1.9-0.8zM17.349 13.051q-0.849 0-1.5-0.625t-0.651-1.475 0.651-1.5 1.5-0.649 1.475 0.649 0.625 1.5-0.625 1.475-1.475 0.625zM28 28.251v-1.851l2.649 2.651-2.649 2.7v-1.9h-5.851v-1.6h5.851zM24.8 23.751h5.849v1.6h-5.849v1.849l-2.649-2.649 2.649-2.7v1.9z"></path>
</svg>
