<!-- Generated by IcoMoon.io -->
<svg version="1.1" xmlns="http://www.w3.org/2000/svg" width="40" height="40" viewBox="0 0 40 40">
<title>mt-usb</title>
<path fill="#ebebeb" d="M23.2 14.651h4.251v4.3h-1.051v2.1q0 0.9-0.625 1.525t-1.525 0.625h-3.2v3.251q1.3 0.7 1.3 2.1 0 0.949-0.675 1.649t-1.675 0.7-1.675-0.7-0.675-1.649q0-1.4 1.3-2.1v-3.251h-3.2q-0.9 0-1.525-0.625t-0.625-1.525v-2.2q-1.3-0.7-1.3-2.049 0-1 0.7-1.675t1.651-0.675 1.651 0.675 0.7 1.675q0 1.4-1.251 2.049v2.2h3.2v-8.5h-2.149l3.2-4.3 3.2 4.3h-2.149v8.5h3.2v-2.1h-1.051v-4.3z"></path>
</svg>
