<!-- Generated by IcoMoon.io -->
<svg version="1.1" xmlns="http://www.w3.org/2000/svg" width="40" height="40" viewBox="0 0 40 40">
<title>mt-umbrella</title>
<path fill="#ebebeb" d="M22.649 14.6l-1.6-1.251v-2.5q0-0.251 0.175-0.4t0.375-0.149 0.375 0.149 0.175 0.4v0.6h2.1v-0.6q0-1.1-0.775-1.849t-1.875-0.751-1.875 0.751-0.775 1.849v2.5l-1.6 1.251-3.751-0.949 5.4 16.3q0.1 0.349 0.4 0.525t0.6 0.175 0.6-0.175 0.4-0.525l5.4-16.3zM21.351 16.251l0.851 0.651 0.949-0.251-2.1 6.349v-6.949zM17.8 16.9l0.849-0.6 0.3-0.251v6.949l-2.1-6.349z"></path>
</svg>
