<!-- Generated by IcoMoon.io -->
<svg version="1.1" xmlns="http://www.w3.org/2000/svg" width="40" height="40" viewBox="0 0 40 40">
<title>mt-videogame_asset</title>
<path fill="#ebebeb" d="M28 20q0.7 0 1.149-0.449t0.451-1.151-0.451-1.151-1.149-0.449-1.149 0.449-0.451 1.151 0.451 1.151 1.149 0.449zM23.751 23.2q0.649 0 1.125-0.449t0.475-1.149-0.475-1.149-1.125-0.449-1.125 0.449-0.475 1.149 0.475 1.149 1.125 0.449zM18.949 21.051v-2.1h-3.2v-3.2h-2.151v3.2h-3.2v2.1h3.2v3.2h2.151v-3.2h3.2zM29.6 13.6q0.849 0 1.5 0.651t0.649 1.5v8.5q0 0.851-0.649 1.5t-1.5 0.649h-19.2q-0.851 0-1.5-0.649t-0.651-1.5v-8.5q0-0.849 0.651-1.5t1.5-0.651h19.2z"></path>
</svg>
