<!-- Generated by IcoMoon.io -->
<svg version="1.1" xmlns="http://www.w3.org/2000/svg" width="40" height="40" viewBox="0 0 40 40">
<title>mt-wifi_calling</title>
<path fill="#ebebeb" d="M30.649 12.5q-0.049-0.1-0.5-0.425t-1.225-0.7-1.825-0.675-2.3-0.3-2.3 0.3-1.825 0.675-1.225 0.7-0.5 0.425l5.849 7.5zM28.551 23.751q-2 0-3.8-0.6-0.649-0.251-1.1 0.251l-2.351 2.351q-2.251-1.149-4.075-2.975t-2.975-4.075l2.351-2.349q0.449-0.449 0.251-1.1-0.6-1.8-0.6-3.8 0-0.4-0.3-0.725t-0.751-0.325h-3.751q-0.4 0-0.725 0.325t-0.325 0.725q0 3 0.925 5.725t2.575 5 3.925 3.925 5 2.575 5.725 0.925q0.4 0 0.725-0.325t0.325-0.725v-3.751q0-0.451-0.325-0.751t-0.725-0.3z"></path>
</svg>
