<!-- Generated by IcoMoon.io -->
<svg version="1.1" xmlns="http://www.w3.org/2000/svg" width="24" height="24" viewBox="0 0 24 24">
<title>network_check</title>
<path fill="#ebebeb" d="M6.413 12.788q2.4-2.4 5.85-2.288l-1.050 2.288q-0.787 0.112-1.725 0.581t-1.5 1.031zM16.013 14.4q-0.413-0.412-0.975-0.787l0.45-2.325q1.2 0.6 2.1 1.5zM19.2 11.212q-1.463-1.462-3.3-2.212l0.413-2.25q1.087 0.413 2.4 1.238t2.1 1.613zM3.188 9.6q2.213-2.213 5.119-3.094t5.869-0.356l-0.938 2.138q-2.287-0.3-4.519 0.469t-3.919 2.456zM15.112 6.413q0.412 0 0.412 0.375l-1.95 10.313v0.038q-0.113 0.525-0.563 0.9t-1.013 0.375q-0.675 0-1.144-0.469t-0.469-1.144q0-0.412 0.188-0.787l4.162-9.3q0.112-0.3 0.375-0.3z"></path>
</svg>
