<!-- Generated by IcoMoon.io -->
<svg version="1.1" xmlns="http://www.w3.org/2000/svg" width="24" height="24" viewBox="0 0 24 24">
<title>no_flash</title>
<path fill="#ebebeb" d="M13.538 13.538l-9.188-9.188-1.125 1.162 4.237 4.237-0.15 0.188h-2.025q-0.525 0-0.9 0.375t-0.375 0.9v7.5q0 0.525 0.375 0.9t0.9 0.375h10.238q0.45 0 0.788-0.262t0.45-0.712l1.725 1.762 1.163-1.125-2.85-2.85zM10.387 18.413q-0.863 0-1.594-0.431t-1.162-1.163-0.431-1.631q0-0.75 0.338-1.425t0.938-1.125 1.313-0.563l1.275 1.237q-0.337-0.112-0.675-0.112-0.825 0-1.406 0.581t-0.581 1.406 0.581 1.425 1.406 0.6 1.425-0.6 0.6-1.425q0-0.3-0.15-0.638l1.275 1.237q-0.15 0.75-0.6 1.331t-1.106 0.938-1.444 0.356zM16.8 14.55l-5.737-5.738h1.388l1.050 1.125h2.025q0.525 0 0.9 0.375t0.375 0.9v3.338zM18.712 6.863h1.275l-2.4 4.35v-3.225h-0.788v-3.975h3.188z"></path>
</svg>
