<!-- Generated by IcoMoon.io -->
<svg version="1.1" xmlns="http://www.w3.org/2000/svg" width="24" height="24" viewBox="0 0 24 24">
<title>no_luggage</title>
<path fill="#ebebeb" d="M12.6 9.6v0.75l1.387 1.387v-2.137h1.2v3.337l2.4 2.4v-6.525q0-0.675-0.469-1.144t-1.106-0.469h-1.613v-2.4q0-0.338-0.244-0.563t-0.544-0.225h-3.225q-0.3 0-0.544 0.225t-0.244 0.563v2.4h-0.15l2.4 2.4h0.75zM10.8 5.213h2.4v1.987h-2.4v-1.987zM19.35 19.35l-14.7-14.7-1.125 1.125 2.888 2.888v8.925q0 0.675 0.469 1.144t1.106 0.469q0 0.337 0.244 0.563t0.581 0.225q0.3 0 0.544-0.225t0.244-0.563h4.8q0 0.337 0.244 0.563t0.544 0.225q0.338 0 0.581-0.225t0.244-0.563q0.375 0 0.75-0.188l1.462 1.462zM8.813 16.8v-5.737l1.2 1.2v4.537h-1.2zM12.6 16.8h-1.2v-3.15l1.2 1.2v1.95z"></path>
</svg>
