<!-- Generated by IcoMoon.io -->
<svg version="1.1" xmlns="http://www.w3.org/2000/svg" width="24" height="24" viewBox="0 0 24 24">
<title>not_interested</title>
<path fill="#ebebeb" d="M17.063 15.938q1.35-1.688 1.35-3.938 0-2.625-1.894-4.519t-4.519-1.894q-0.9 0-2.063 0.394t-1.875 0.956zM12 18.413q0.9 0 2.063-0.394t1.875-0.956l-9-9q-1.35 1.688-1.35 3.938 0 2.625 1.894 4.519t4.519 1.894zM12 4.012q3.3 0 5.644 2.344t2.344 5.644-2.344 5.644-5.644 2.344-5.644-2.344-2.344-5.644 2.344-5.644 5.644-2.344z"></path>
</svg>
