<!-- Generated by IcoMoon.io -->
<svg version="1.1" xmlns="http://www.w3.org/2000/svg" width="24" height="24" viewBox="0 0 24 24">
<title>not_listed_location</title>
<path fill="#ebebeb" d="M12.712 12.712q0-0.75 1.050-1.688t1.050-1.837q0-1.163-0.825-1.969t-1.988-0.806-1.988 0.806-0.825 1.969h1.425q0-0.563 0.412-0.975t0.975-0.412 0.975 0.412 0.413 0.975q0 0.45-0.319 0.825t-0.731 0.619-0.731 0.769-0.319 1.313h1.425zM12.712 15v-1.388h-1.425v1.388h1.425zM12 4.012q2.325 0 3.956 1.631t1.631 3.956q0 1.162-0.581 2.662t-1.406 2.813-1.631 2.456-1.369 1.819l-0.6 0.637q-0.225-0.262-0.6-0.694t-1.35-1.725-1.706-2.513-1.331-2.756-0.6-2.7q0-2.325 1.631-3.956t3.956-1.631z"></path>
</svg>
