<!-- Generated by IcoMoon.io -->
<svg version="1.1" xmlns="http://www.w3.org/2000/svg" width="24" height="24" viewBox="0 0 24 24">
<title>outlet</title>
<path fill="#ebebeb" d="M12 4.012q-1.65 0-3.094 0.619t-2.55 1.725-1.725 2.55-0.619 3.094 0.619 3.094 1.725 2.55 2.55 1.725 3.094 0.619 3.094-0.619 2.55-1.725 1.725-2.55 0.619-3.094-0.619-3.094-1.725-2.55-2.55-1.725-3.094-0.619zM9.6 12q-0.338 0-0.563-0.244t-0.225-0.544v-2.4q0-0.337 0.225-0.581t0.563-0.244 0.563 0.244 0.225 0.581v2.4q0 0.3-0.225 0.544t-0.563 0.244zM13.612 16.8h-3.225v-1.612q0-0.638 0.469-1.106t1.144-0.469 1.144 0.469 0.469 1.106v1.612zM15.188 11.212q0 0.3-0.225 0.544t-0.563 0.244-0.563-0.244-0.225-0.544v-2.4q0-0.337 0.225-0.581t0.563-0.244 0.563 0.244 0.225 0.581v2.4z"></path>
</svg>
