<!-- Generated by IcoMoon.io -->
<svg version="1.1" xmlns="http://www.w3.org/2000/svg" width="24" height="24" viewBox="0 0 24 24">
<title>pan_tool</title>
<path fill="#ebebeb" d="M20.813 6.788v11.625q0 1.313-0.956 2.25t-2.269 0.938h-5.813q-1.35 0-2.288-0.938l-6.3-6.413q1.012-0.975 1.050-0.975 0.263-0.225 0.638-0.225 0.262 0 0.487 0.112l3.45 1.95v-9.525q0-0.487 0.356-0.844t0.844-0.356 0.844 0.356 0.356 0.844v5.625h0.787v-7.612q0-0.525 0.337-0.862t0.863-0.338 0.862 0.338 0.338 0.862v7.612h0.787v-6.825q0-0.487 0.356-0.844t0.844-0.356 0.844 0.356 0.356 0.844v6.825h0.825v-4.425q0-0.488 0.356-0.844t0.844-0.356 0.844 0.356 0.356 0.844z"></path>
</svg>
