<!-- Generated by IcoMoon.io -->
<svg version="1.1" xmlns="http://www.w3.org/2000/svg" width="24" height="24" viewBox="0 0 24 24">
<title>payments</title>
<path fill="#ebebeb" d="M17.587 13.612v-6.413q0-0.675-0.469-1.144t-1.106-0.469h-11.213q-0.675 0-1.144 0.469t-0.469 1.144v6.413q0 0.638 0.469 1.106t1.144 0.469h11.213q0.637 0 1.106-0.469t0.469-1.106zM10.387 12.788q-0.637 0-1.181-0.319t-0.881-0.863-0.337-1.219q0-0.637 0.337-1.181t0.881-0.881 1.181-0.337q0.675 0 1.219 0.337t0.863 0.881 0.319 1.181q0 0.675-0.319 1.219t-0.863 0.863-1.219 0.319zM20.813 7.988v8.812q0 0.675-0.469 1.144t-1.144 0.469h-13.613v-1.613h13.613v-8.812h1.612z"></path>
</svg>
