<!-- Generated by IcoMoon.io -->
<svg version="1.1" xmlns="http://www.w3.org/2000/svg" width="24" height="24" viewBox="0 0 24 24">
<title>portrait</title>
<path fill="#ebebeb" d="M17.587 17.587v-11.175h-11.175v11.175h11.175zM17.587 4.8q0.638 0 1.125 0.487t0.488 1.125v11.175q0 0.637-0.488 1.125t-1.125 0.488h-11.175q-0.638 0-1.125-0.488t-0.488-1.125v-11.175q0-0.637 0.488-1.125t1.125-0.487h11.175zM15.6 15.413v0.6h-7.2v-0.6q0-0.825 1.238-1.313t2.362-0.488 2.362 0.488 1.237 1.313zM12 12.188q-0.75 0-1.275-0.544t-0.525-1.256 0.525-1.256 1.275-0.544 1.275 0.544 0.525 1.256-0.525 1.256-1.275 0.544z"></path>
</svg>
