<!-- Generated by IcoMoon.io -->
<svg version="1.1" xmlns="http://www.w3.org/2000/svg" width="24" height="24" viewBox="0 0 24 24">
<title>print_disabled</title>
<path fill="#ebebeb" d="M8.813 17.587h6.3l-3.975-3.975h-2.325v3.975zM3.375 3.825l16.8 16.725-1.050 1.050-2.4-2.4h-9.525v-3.188h-3.188v-4.8q0-0.938 0.675-1.631t1.65-0.769l-3.938-4.012zM16.8 7.988h-7.2l-2.4-2.325v-0.862h9.6v3.188zM17.587 10.387q-0.337 0-0.563 0.244t-0.225 0.581 0.225 0.563 0.563 0.225 0.581-0.225 0.244-0.563-0.244-0.581-0.581-0.244zM17.663 16.013l-7.275-7.2h7.2q1.012 0 1.706 0.694t0.694 1.706v4.8h-2.325z"></path>
</svg>
