<!-- Generated by IcoMoon.io -->
<svg version="1.1" xmlns="http://www.w3.org/2000/svg" width="24" height="24" viewBox="0 0 24 24">
<title>queue_play_next</title>
<path fill="#ebebeb" d="M21.6 16.8l-3.6 3.6-1.2-1.2 2.4-2.4-2.4-2.4 1.2-1.2zM12.788 10.387h2.4v1.613h-2.4v2.4h-1.575v-2.4h-2.4v-1.613h2.4v-2.4h1.575v2.4zM19.2 4.8q0.675 0 1.144 0.469t0.469 1.144v6.375h-1.612v-6.375h-14.4v9.6h12v1.575h-1.612v1.613h-6.375v-1.613h-4.013q-0.675 0-1.144-0.45t-0.469-1.125v-9.6q0-0.675 0.469-1.144t1.144-0.469h14.4z"></path>
</svg>
