<!-- Generated by IcoMoon.io -->
<svg version="1.1" xmlns="http://www.w3.org/2000/svg" width="24" height="24" viewBox="0 0 24 24">
<title>receipt_long</title>
<path fill="#ebebeb" d="M18 5.213l-1.2-1.2-1.2 1.2-1.2-1.2-1.2 1.2-1.2-1.2-1.2 1.2-1.2-1.2-1.2 1.2-1.2-1.2v11.175h-2.4v2.4q0 0.675 0.319 1.219t0.863 0.863 1.219 0.319h9.6q0.675 0 1.219-0.319t0.863-0.863 0.319-1.219v-13.575zM17.587 17.587q0 0.337-0.225 0.581t-0.563 0.244-0.563-0.244-0.225-0.581v-2.4h-7.2v-8.775h8.775v11.175zM9.6 7.988h4.8v1.613h-4.8v-1.613zM15.188 7.988h1.612v1.613h-1.612v-1.613zM9.6 10.387h4.8v1.613h-4.8v-1.613zM15.188 10.387h1.612v1.613h-1.612v-1.613z"></path>
</svg>
