<!-- Generated by IcoMoon.io -->
<svg version="1.1" xmlns="http://www.w3.org/2000/svg" width="24" height="24" viewBox="0 0 24 24">
<title>rule_folder</title>
<path fill="#ebebeb" d="M18.413 7.2h-6.413l-1.613-1.612h-4.8q-0.638 0-1.106 0.469t-0.469 1.144v9.6q0 0.675 0.469 1.144t1.106 0.469h12.825q0.637 0 1.106-0.469t0.469-1.144v-7.987q0-0.675-0.469-1.144t-1.106-0.469zM8.663 15.188l-2.25-2.25 1.125-1.125 1.125 1.125 2.813-2.85 1.125 1.163zM16.313 12.788l1.275 1.275-1.125 1.125-1.275-1.275-1.275 1.275-1.125-1.125 1.275-1.275-1.275-1.275 1.125-1.125 1.275 1.275 1.275-1.275 1.125 1.125z"></path>
</svg>
