<!-- Generated by IcoMoon.io -->
<svg version="1.1" xmlns="http://www.w3.org/2000/svg" width="24" height="24" viewBox="0 0 24 24">
<title>search</title>
<path fill="#ebebeb" d="M10.012 13.612q1.5 0 2.55-1.050t1.050-2.55-1.050-2.55-2.55-1.050-2.55 1.050-1.050 2.55 1.050 2.55 2.55 1.050zM14.813 13.612l3.975 3.975-1.2 1.2-3.975-3.975v-0.638l-0.225-0.225q-1.425 1.237-3.375 1.237-2.175 0-3.694-1.5t-1.519-3.675 1.519-3.694 3.694-1.519 3.675 1.519 1.5 3.694q0 0.787-0.375 1.781t-0.862 1.594l0.225 0.225h0.638z"></path>
</svg>
