<!-- Generated by IcoMoon.io -->
<svg version="1.1" xmlns="http://www.w3.org/2000/svg" width="24" height="24" viewBox="0 0 24 24">
<title>select_all</title>
<path fill="#ebebeb" d="M9.6 9.6v4.8h4.8v-4.8h-4.8zM7.988 16.013v-8.025h8.025v8.025h-8.025zM14.4 6.413v-1.612h1.613v1.612h-1.613zM14.4 19.2v-1.613h1.613v1.613h-1.613zM17.587 16.013v-1.613h1.613v1.613h-1.613zM17.587 9.6v-1.613h1.613v1.613h-1.613zM17.587 19.2v-1.613h1.613q0 0.637-0.488 1.125t-1.125 0.488zM17.587 12.788v-1.575h1.613v1.575h-1.613zM11.212 19.2v-1.613h1.575v1.613h-1.575zM9.6 4.8v1.612h-1.613v-1.612h1.613zM4.8 16.013v-1.613h1.612v1.613h-1.612zM6.413 19.2q-0.638 0-1.125-0.488t-0.487-1.125h1.612v1.613zM17.587 4.8q0.638 0 1.125 0.487t0.488 1.125h-1.613v-1.612zM12.788 4.8v1.612h-1.575v-1.612h1.575zM4.8 9.6v-1.613h1.612v1.613h-1.612zM7.988 19.2v-1.613h1.613v1.613h-1.613zM4.8 12.788v-1.575h1.612v1.575h-1.612zM4.8 6.413q0-0.638 0.487-1.125t1.125-0.487v1.612h-1.612z"></path>
</svg>
