<!-- Generated by IcoMoon.io -->
<svg version="1.1" xmlns="http://www.w3.org/2000/svg" width="24" height="24" viewBox="0 0 24 24">
<title>settings_system_daydream</title>
<path fill="#ebebeb" d="M19.2 17.625v-11.25h-14.4v11.25h14.4zM19.2 4.8q0.637 0 1.125 0.487t0.487 1.125v11.175q0 0.637-0.487 1.125t-1.125 0.488h-14.4q-0.638 0-1.125-0.488t-0.488-1.125v-11.175q0-0.637 0.488-1.125t1.125-0.487h14.4zM9.6 15.188q-0.975 0-1.688-0.712t-0.712-1.688q0-0.9 0.619-1.594t1.519-0.769h0.15q0.787-1.613 2.512-1.613 1.050 0 1.837 0.694t0.938 1.706h0.038q0.825 0 1.406 0.581t0.581 1.406-0.581 1.406-1.406 0.581h-5.212z"></path>
</svg>
