<!-- Generated by IcoMoon.io -->
<svg version="1.1" xmlns="http://www.w3.org/2000/svg" width="24" height="24" viewBox="0 0 24 24">
<title>settings_input_antenna</title>
<path fill="#ebebeb" d="M12 3.188q3.638 0 6.225 2.588t2.587 6.225h-1.612q0-3-2.1-5.1t-5.1-2.1-5.1 2.1-2.1 5.1h-1.612q0-3.637 2.588-6.225t6.225-2.588zM12.788 13.837v2.625l2.737 2.738-1.125 1.125-2.4-2.4-2.4 2.4-1.125-1.125 2.737-2.738v-2.625q-1.2-0.487-1.2-1.837 0-0.825 0.581-1.406t1.406-0.581 1.406 0.581 0.581 1.406q0 1.35-1.2 1.837zM12 6.413q2.325 0 3.956 1.631t1.631 3.956h-1.575q0-1.65-1.181-2.831t-2.831-1.181-2.831 1.181-1.181 2.831h-1.575q0-2.325 1.631-3.956t3.956-1.631z"></path>
</svg>
