<!-- Generated by IcoMoon.io -->
<svg version="1.1" xmlns="http://www.w3.org/2000/svg" width="24" height="24" viewBox="0 0 24 24">
<title>settings_backup_restore</title>
<path fill="#ebebeb" d="M12 4.8q3 0 5.1 2.1t2.1 5.1-2.1 5.1-5.1 2.1q-1.012 0-2.288-0.431t-2.1-1.069l1.125-1.125q1.425 1.012 3.262 1.012 2.325 0 3.956-1.631t1.631-3.956-1.631-3.956-3.956-1.631-3.956 1.631-1.631 3.956h2.4l-3.225 3.188-3.188-3.188h2.4q0-3 2.1-5.1t5.1-2.1zM13.612 12q0 0.638-0.487 1.125t-1.125 0.487-1.125-0.487-0.488-1.125 0.488-1.125 1.125-0.488 1.125 0.488 0.487 1.125z"></path>
</svg>
