<!-- Generated by IcoMoon.io -->
<svg version="1.1" xmlns="http://www.w3.org/2000/svg" width="24" height="24" viewBox="0 0 24 24">
<title>sick</title>
<path fill="#ebebeb" d="M19.2 9.6q-0.675 0-1.144-0.469t-0.469-1.144q0-0.3 0.244-0.844t0.563-1.069 0.563-0.9l0.244-0.375 0.244 0.375t0.563 0.9 0.563 1.069 0.244 0.844q0 0.675-0.469 1.144t-1.144 0.469zM16.388 7.988q0-0.413 0.225-0.975t0.525-1.125q-1.050-0.9-2.363-1.387t-2.775-0.488q-1.65 0-3.113 0.619t-2.55 1.725-1.706 2.55-0.619 3.094 0.619 3.094 1.706 2.55 2.55 1.725 3.113 0.619 3.094-0.619 2.55-1.725 1.725-2.55 0.619-3.094q0-0.337-0.019-0.656t-0.094-0.656q-0.15 0.075-0.319 0.094t-0.356 0.019q-0.788 0-1.406-0.375t-1.013-1.012-0.394-1.425zM14.888 8.288l0.862 0.862-0.862 0.863 0.862 0.825-0.862 0.863-1.688-1.688zM8.25 9.15l0.863-0.862 1.688 1.725-1.688 1.688-0.863-0.863 0.863-0.825zM14.737 16.013q-0.412-0.713-1.125-1.163t-1.613-0.45-1.612 0.45-1.125 1.163h-1.35q0.337-0.9 1.050-1.613l-2.363-1.35q-0.6 0.338-1.2 0-0.45-0.262-0.563-0.731t0.112-0.919q0.263-0.45 0.731-0.563t0.919 0.113q0.3 0.188 0.45 0.469t0.15 0.581l2.85 1.65q0.9-0.45 1.95-0.45 1.387 0 2.494 0.787t1.594 2.025h-1.35z"></path>
</svg>
