<!-- Generated by IcoMoon.io -->
<svg version="1.1" xmlns="http://www.w3.org/2000/svg" width="24" height="24" viewBox="0 0 24 24">
<title>speaker</title>
<path fill="#ebebeb" d="M12 12q0.975 0 1.688 0.712t0.712 1.688-0.712 1.688-1.688 0.712-1.688-0.712-0.712-1.688 0.712-1.688 1.688-0.712zM12 18.413q1.65 0 2.831-1.181t1.181-2.831-1.181-2.831-2.831-1.181-2.831 1.181-1.181 2.831 1.181 2.831 2.831 1.181zM12 5.588q-0.675 0-1.144 0.469t-0.469 1.144 0.469 1.144 1.144 0.469q0.638 0 1.125-0.488t0.487-1.125-0.487-1.125-1.125-0.487zM16.013 4.012q0.637 0 1.106 0.469t0.469 1.106v12.825q0 0.637-0.469 1.106t-1.106 0.469h-8.025q-0.638 0-1.106-0.469t-0.469-1.106v-12.825q0-0.638 0.469-1.106t1.106-0.469h8.025z"></path>
</svg>
