<!-- Generated by IcoMoon.io -->
<svg version="1.1" xmlns="http://www.w3.org/2000/svg" width="24" height="24" viewBox="0 0 24 24">
<title>sports_soccer</title>
<path fill="#ebebeb" d="M16.837 16.163q1.575-1.8 1.575-4.163 0-0.075-0.019-0.15t-0.019-0.113l-0.788-0.6-1.125 0.375-1.163 3.488 0.638 1.087zM13.8 14.4l1.088-3.225-2.888-2.025-2.887 2.025 1.088 3.225h3.6zM13.987 18.075l0.563-1.2-0.487-0.862h-4.087l-0.525 0.862 0.563 1.2q0.938 0.337 1.987 0.337t1.987-0.337zM8.063 16.087l0.637-1.087-1.162-3.488-1.125-0.375-0.788 0.6q0 0.037-0.019 0.113t-0.019 0.15q0 0.975 0.469 2.194t1.106 1.969zM10.125 5.887q-0.938 0.263-1.969 1.050t-1.556 1.613l0.337 1.087 1.087 0.338 3.188-2.213v-1.125zM12.788 6.637v1.125l3.188 2.213 1.087-0.338 0.337-1.088q-0.525-0.825-1.556-1.612t-1.969-1.050zM12 4.012q3.3 0 5.644 2.344t2.344 5.644-2.344 5.644-5.644 2.344-5.644-2.344-2.344-5.644 2.344-5.644 5.644-2.344z"></path>
</svg>
