<!-- Generated by IcoMoon.io -->
<svg version="1.1" xmlns="http://www.w3.org/2000/svg" width="24" height="24" viewBox="0 0 24 24">
<title>sports</title>
<path fill="#ebebeb" d="M9.6 12q0-0.675 0.469-1.144t1.144-0.469 1.125 0.469 0.45 1.144-0.45 1.144-1.125 0.469-1.144-0.469-0.469-1.144zM11.212 14.4q0.975 0 1.688-0.712t0.713-1.688-0.713-1.688-1.688-0.712-1.688 0.712-0.712 1.688 0.712 1.688 1.688 0.712zM6 9.6q0.413 0 0.413-0.413 0-0.375-0.413-0.375t-0.412 0.375q0 0.413 0.412 0.413zM11.4 7.2h8.587v3.225h-3.225q-0.375 0-0.619 0.262t-0.206 0.638q0.112 0.862-0.038 1.65-0.3 1.5-1.462 2.55t-2.7 1.237q-0.075 0-0.262 0.019t-0.263 0.019q-1.987 0-3.394-1.406t-1.406-3.394v-0.225q0-0.263 0.075-0.638-0.3 0.075-0.488 0.075-0.825 0-1.406-0.6t-0.581-1.425 0.581-1.406 1.406-0.581q0.675 0 1.2 0.394t0.713 0.994q1.462-1.387 3.487-1.387z"></path>
</svg>
