<!-- Generated by IcoMoon.io -->
<svg version="1.1" xmlns="http://www.w3.org/2000/svg" width="24" height="24" viewBox="0 0 24 24">
<title>sports_motorsports</title>
<path fill="#ebebeb" d="M19.95 11.363q0.262 2.85-1.631 4.95t-4.706 2.1h-8.025q-0.638 0-1.106-0.488t-0.469-1.125v-0.637q0-0.713 0.15-1.763h6.525q1.163 0 2.025-0.862t0.863-2.025q0-1.912-1.725-2.662l-3.825-1.613q2.025-1.463 4.762-1.613 2.7-0.188 4.8 1.481t2.362 4.256zM12 11.512q0 0.525-0.375 0.9t-0.9 0.375h-6.225q0.713-2.625 2.25-4.35l4.462 1.875q0.788 0.3 0.788 1.2z"></path>
</svg>
