<!-- Generated by IcoMoon.io -->
<svg version="1.1" xmlns="http://www.w3.org/2000/svg" width="24" height="24" viewBox="0 0 24 24">
<title>stop_screen_share</title>
<path fill="#ebebeb" d="M7.988 14.4q1.087-1.5 2.925-1.95l-1.275-1.275q-1.2 1.162-1.65 3.225zM4.313 3.787l15.788 15.788-1.013 1.012-2.175-2.175h-14.513v-1.612h3.188q-0.675 0-1.125-0.45t-0.45-1.125v-8.025q0-0.712 0.525-1.163l-1.237-1.238zM19.987 15.225q0 0.938-0.825 1.387l-4.425-4.425 1.275-1.2-3.225-2.963v1.688q-0.075 0.038-0.206 0.038t-0.206 0.038l-4.2-4.163h10.238q0.675 0 1.125 0.45t0.45 1.125v8.025zM19.388 16.8h2.212v1.613h-0.638z"></path>
</svg>
