<!-- Generated by IcoMoon.io -->
<svg version="1.1" xmlns="http://www.w3.org/2000/svg" width="24" height="24" viewBox="0 0 24 24">
<title>style</title>
<path fill="#ebebeb" d="M7.087 18.188v-5.063l2.775 6.675h-1.162q-0.638 0-1.125-0.487t-0.487-1.125zM8.7 9.413q0.338 0 0.563-0.244t0.225-0.581-0.225-0.563-0.563-0.225-0.563 0.225-0.225 0.563 0.225 0.581 0.563 0.244zM20.025 15.15q0.113 0.225 0.113 0.6 0 0.45-0.281 0.9t-0.694 0.6l-5.888 2.438q-0.225 0.112-0.6 0.112-0.45 0-0.881-0.281t-0.619-0.694l-3.975-9.6q-0.113-0.225-0.113-0.6 0-0.45 0.281-0.862t0.694-0.6l5.925-2.438q0.337-0.112 0.637-0.112 0.413 0 0.825 0.281t0.6 0.694zM4.425 18.112q-0.6-0.262-0.863-0.862t0-1.2l1.95-4.687v7.2z"></path>
</svg>
