<!-- Generated by IcoMoon.io -->
<svg version="1.1" xmlns="http://www.w3.org/2000/svg" width="24" height="24" viewBox="0 0 24 24">
<title>tapas</title>
<path fill="#ebebeb" d="M19.987 10.387v-7.2h-6.375v7.2q0 1.125 0.675 1.969t1.725 1.144v5.7h-1.613v1.612h4.8v-1.612h-1.613v-5.7q1.050-0.3 1.725-1.144t0.675-1.969zM18.413 4.8v2.4h-3.225v-2.4h3.225zM12.413 11.587q0 0.825-0.6 1.425t-1.425 0.6h-1.575v7.2h-1.613v-7.2h-1.612q-0.825 0-1.406-0.6t-0.581-1.425 0.581-1.406 1.406-0.581h1.612v-0.788h-1.612q-0.825 0-1.406-0.6t-0.581-1.425 0.581-1.406 1.406-0.581h1.612v-1.613h1.613v1.613h1.575q0.825 0 1.425 0.581t0.6 1.406-0.6 1.425-1.425 0.6h-1.575v0.788h1.575q0.825 0 1.425 0.581t0.6 1.406z"></path>
</svg>
