<!-- Generated by IcoMoon.io -->
<svg version="1.1" xmlns="http://www.w3.org/2000/svg" width="40" height="40" viewBox="0 0 40 40">
<title>th-brush-alt</title>
<path fill="#ebebeb" d="M36 18.176c0-1.557-1.267-2.824-2.824-2.824h-9.050l0.536-1.72 0.043-6.808c0-1.557-1.267-2.824-2.824-2.824h-3.765c-1.557 0-2.824 1.267-2.824 2.824v6.498l0.584 2.033h-9.054c-1.557 0-2.824 1.267-2.824 2.824v6.562h1.754l-1.442 11.26h31.375l-1.442-11.26h1.754v-6.564zM33.549 34.118h-3.196v-3.765h-1.882v3.765h-1.882v-5.647h-1.882v5.647h-1.882v-7.529h-1.882v7.529h-9.412v-3.765h-1.882v3.765h-3.196l1.201-9.378h24.696l1.201 9.378zM5.995 22.857h-0.113v-4.681c0-0.52 0.422-0.941 0.941-0.941h11.605l-1.252-4.056v-6.355c0-0.52 0.422-0.941 0.941-0.941h3.765c0.52 0 0.941 0.422 0.941 0.941v6.387l-1.256 4.024h11.608c0.52 0 0.941 0.422 0.941 0.941v4.68h-28.122zM19.059 7.765h1.882v1.882h-1.882v-1.882z"></path>
</svg>
