<!-- Generated by IcoMoon.io -->
<svg version="1.1" xmlns="http://www.w3.org/2000/svg" width="40" height="40" viewBox="0 0 40 40">
<title>th-bag</title>
<path fill="#ebebeb" d="M28.471 11.529v-4.506c0-1.666-1.387-3.023-3.093-3.023h-10.728c-1.704 0-3.091 1.357-3.091 3.023v4.506h-5.677v24.471h28.235v-24.471h-5.647zM13.442 7.023c0-0.629 0.542-1.141 1.208-1.141h10.728c0.668 0 1.21 0.512 1.21 1.141v4.506h-13.146v-4.506zM32.235 34.118h-24.471v-15.059h24.471v15.059zM32.235 17.176h-24.471v-3.765h3.795v1.21h1.882v-1.21h13.146v1.21h1.882v-1.21h3.765v3.765z"></path>
</svg>
