<!-- Generated by IcoMoon.io -->
<svg version="1.1" xmlns="http://www.w3.org/2000/svg" width="40" height="40" viewBox="0 0 40 40">
<title>th-comments</title>
<path fill="#ebebeb" d="M36 6.824v15c0 1.557-1.267 2.824-2.824 2.824h-0.956v-1.882h0.956c0.52 0 0.941-0.424 0.941-0.941v-15c0-0.518-0.422-0.941-0.941-0.941h-26.353c-0.52 0-0.941 0.424-0.941 0.941v15c0 0.518 0.422 0.941 0.941 0.941h2.824v5.444l3.349-2.953 1.244 1.412-6.475 5.713v-7.733h-0.941c-1.557 0-2.824-1.267-2.824-2.824v-15c0-1.557 1.267-2.824 2.824-2.824h26.353c1.557 0 2.824 1.267 2.824 2.824zM30.391 21.958v5.728c0 1.557-1.267 2.824-2.824 2.824h-0.941v5.768l-6.903-5.768h-1.606c-1.557 0-2.824-1.267-2.824-2.824v-5.728c0-1.557 1.267-2.824 2.824-2.824h9.449c1.557 0 2.824 1.267 2.824 2.824zM28.508 21.958c0-0.518-0.422-0.941-0.941-0.941h-9.449c-0.52 0-0.941 0.424-0.941 0.941v5.728c0 0.518 0.422 0.941 0.941 0.941h2.291l4.335 3.625v-3.625h2.824c0.52 0 0.941-0.424 0.941-0.941v-5.728z"></path>
</svg>
