<!-- Generated by IcoMoon.io -->
<svg version="1.1" xmlns="http://www.w3.org/2000/svg" width="40" height="40" viewBox="0 0 40 40">
<title>th-drupal</title>
<path fill="#ebebeb" d="M20.119 35.059c-6.999 0-13.293-5.508-13.293-13 0-7.48 5.832-10.942 6.912-11.509 1.288-0.685 2.214-1.047 3.671-2.212 0.721-0.567 1.321-1.391 1.512-3.398 1.045 1.252 2.298 2.709 3.189 3.311 1.459 0.96 2.918 1.338 4.442 2.298 0.926 0.567 6.622 4.047 6.622 11.748 0 7.684-6.072 12.76-13.054 12.76zM30.409 22.641c-1.372 0-4.151 2.848-5.608 2.865-1.696 0.034-4.045-3.364-7.443-3.332-2.677 0.019-4.785 2.146-4.821 4.41-0.017 1.271 0.395 2.214 1.271 2.812 0.584 0.393 1.114 0.634 2.846 0.634 2.882 0 6.536-3.569 8.216-3.514 1.336 0.049 3.411 3.328 4.459 3.396 0.823 0.068 1.252-0.309 1.954-1.32 0.685-1.030 0.979-2.643 0.979-3.552 0-0.89-0.395-2.4-1.854-2.4zM26.432 31.748c-0.584 0.429-1.888 0.962-3.74 0.962s-2.726-0.395-3.309-0.841c-0.085-0.068-0.051-0.068-0.224-0.068-0.188 0-0.29 0.087-0.444 0.205-0.137 0.12-0.205 0.412 0 0.617 1.269 1.165 3.396 1.064 4.956 0.924 1.579-0.154 2.918-1.079 3.053-1.216 0.205-0.203 0.154-0.376 0.119-0.497-0.034-0.12-0.137-0.29-0.41-0.087zM25.504 28.817c-0.343-0.222-0.838-0.258-1.301-0.258-0.465 0-0.721-0.034-1.216 0.171-0.501 0.205-1.015 0.668-1.338 0.962-0.328 0.29-0.378 0.514-0.207 0.755 0.173 0.22 0.361 0.083 0.841-0.328 0.497-0.395 0.824-0.755 1.835-0.755s1.184 0.378 1.387 0.755c0.207 0.376 0.224 0.429 0.429 0.328 0.241-0.12 0.361-0.294 0.241-0.587-0.122-0.29-0.328-0.804-0.672-1.043z"></path>
</svg>
