<!-- Generated by IcoMoon.io -->
<svg version="1.1" xmlns="http://www.w3.org/2000/svg" width="40" height="40" viewBox="0 0 40 40">
<title>th-dropbox</title>
<path fill="#ebebeb" d="M35.723 12.228l-9.969-6.502-5.754 4.777-5.734-4.777-9.99 6.502 5.835 4.661-5.833 4.672 6.483 4.222v2.886l9.256 5.532 9.272-5.53v-2.914l6.432-4.198-5.832-4.67 5.833-4.661zM25.886 8.060l6.626 4.322-4.201 3.354-6.701-4.122 4.277-3.554zM26.588 16.888l-6.588 4.064-6.588-4.064 6.588-4.055 6.588 4.055zM7.488 12.382l6.639-4.322 4.264 3.552-6.703 4.124-4.2-3.354zM7.486 21.402l4.201-3.368 6.705 4.137-4.265 3.558-6.641-4.328zM27.407 27.601l-7.388 4.41-7.373-4.408v-0.593l1.623 1.056 5.736-4.781 5.752 4.781 1.653-1.079v0.614zM32.514 21.404l-6.628 4.326-4.279-3.558 6.703-4.137 4.203 3.369z"></path>
</svg>
