<!-- Generated by IcoMoon.io -->
<svg version="1.1" xmlns="http://www.w3.org/2000/svg" width="40" height="40" viewBox="0 0 40 40">
<title>th-flickr-alt</title>
<path fill="#ebebeb" d="M20 4.941c-8.316 0-15.059 6.744-15.059 15.059 0 8.316 6.743 15.059 15.059 15.059s15.059-6.743 15.059-15.059c0-8.314-6.743-15.059-15.059-15.059zM14.227 24.666c-2.618 0-4.742-2.12-4.742-4.74 0-2.618 2.123-4.74 4.742-4.74s4.738 2.121 4.738 4.74c0 2.62-2.121 4.74-4.738 4.74zM26.118 24.666c-2.618 0-4.74-2.12-4.74-4.74 0-2.618 2.121-4.74 4.74-4.74s4.74 2.121 4.74 4.74c0 2.62-2.121 4.74-4.74 4.74z"></path>
</svg>
