<!-- Generated by IcoMoon.io -->
<svg version="1.1" xmlns="http://www.w3.org/2000/svg" width="40" height="40" viewBox="0 0 40 40">
<title>th-harddrives</title>
<path fill="#ebebeb" d="M29.412 27.529c-1.557 0-2.824 1.267-2.824 2.824s1.267 2.824 2.824 2.824 2.824-1.267 2.824-2.824-1.267-2.824-2.824-2.824zM29.412 31.294c-0.518 0-0.941-0.424-0.941-0.941s0.424-0.941 0.941-0.941 0.941 0.424 0.941 0.941-0.424 0.941-0.941 0.941zM36 9.929l-5.502-5.929h-20.99l-5.508 5.811v12.109h1.762l-1.762 2.206v11.874h32v-11.784l-1.969-2.296h1.969v-11.991zM10.315 5.882h19.362l3.49 3.765h-26.419l3.567-3.765zM5.882 34.118v-7.529h28.235v7.529h-28.235zM33.941 24.706h-27.996l2.223-2.786h23.386l2.387 2.786zM5.882 20.038v-8.508h28.235v8.508h-28.235zM29.412 13.412c-1.557 0-2.824 1.267-2.824 2.824 0 1.555 1.267 2.822 2.824 2.822s2.824-1.267 2.824-2.822c0-1.557-1.267-2.824-2.824-2.824zM29.412 17.175c-0.518 0-0.941-0.422-0.941-0.939s0.424-0.941 0.941-0.941 0.941 0.424 0.941 0.941-0.424 0.939-0.941 0.939z"></path>
</svg>
