<!-- Generated by IcoMoon.io -->
<svg version="1.1" xmlns="http://www.w3.org/2000/svg" width="40" height="40" viewBox="0 0 40 40">
<title>th-hand-open</title>
<path fill="#ebebeb" d="M32.691 14.202l-2.236 15.179c-0.222 1.152-0.732 1.656-1.103 2.025-0.36 0.358-0.599 0.595-0.599 1.756v1.896c0 0.52-0.422 0.941-0.941 0.941s-0.941-0.422-0.941-0.941v-1.896c0-1.798 0.523-2.464 1.156-3.091 0.292-0.29 0.467-0.465 0.572-1.005l2.231-15.132c0.034-0.232 0.096-1.016-0.514-1.101-0.211-0.030-0.382 0.004-0.518 0.107-0.181 0.134-0.309 0.393-0.354 0.712l-0.936 6.242c-0.047 0.322-0.26 0.595-0.557 0.725s-0.642 0.094-0.911-0.092c-0.094 0.015-0.252-0.043-0.41-0.147-0.286-0.183-0.45-0.504-0.431-0.843l0.536-9.95c0.043-0.523-0.32-0.958-0.813-1.001-0.239-0.023-0.469 0.053-0.651 0.205-0.184 0.154-0.294 0.369-0.314 0.604l-0.872 9.001c-0.049 0.506-0.45 0.873-1 0.849-0.152-0.009-0.307-0.019-0.463-0.021-0.506-0.011-0.913-0.42-0.922-0.924l-0.216-11.518c0-0.504-0.395-0.9-0.881-0.9s-0.881 0.395-0.881 0.881l-0.222 12.397c-0.008 0.358-0.215 0.681-0.538 0.834-0.117 0.056-0.23 0.113-0.337 0.173-0.277 0.158-0.614 0.164-0.896 0.015-0.282-0.147-0.472-0.427-0.504-0.744l-0.969-10.031c-0.021-0.247-0.132-0.461-0.312-0.614-0.183-0.152-0.429-0.222-0.649-0.205-0.237 0.021-0.45 0.132-0.602 0.314-0.151 0.181-0.224 0.41-0.203 0.646l0.947 13.359c0.030 0.41-0.213 0.794-0.597 0.943-0.388 0.151-0.824 0.032-1.079-0.292l-2.92-3.676c-0.382-0.64-1.058-0.819-1.581-0.516-0.256 0.149-0.439 0.386-0.514 0.67-0.075 0.282-0.038 0.58 0.113 0.834l6.643 11.458c0.151 0.262 0.397 0.444 0.691 0.516 0.422 0.102 0.719 0.48 0.719 0.915v1.299c0 0.52-0.422 0.941-0.941 0.941s-0.941-0.422-0.941-0.941v-0.659c-0.478-0.258-0.875-0.642-1.156-1.126l-6.645-11.458c-0.401-0.689-0.508-1.493-0.301-2.263 0.203-0.772 0.698-1.416 1.391-1.816 1.427-0.823 3.253-0.333 4.073 1.090l0.952 1.193-0.732-10.321c-0.064-0.719 0.162-1.438 0.636-2.007 0.474-0.565 1.144-0.913 1.88-0.979 0.747-0.068 1.459 0.164 2.027 0.64 0.275 0.232 0.495 0.506 0.659 0.811l0.026-1.417c0-1.51 1.24-2.748 2.763-2.748s2.763 1.24 2.763 2.765l0.026 1.404c0.166-0.307 0.388-0.584 0.664-0.817 0.57-0.478 1.295-0.708 2.029-0.64 1.527 0.134 2.658 1.483 2.524 3.008l-0.1 1.841c0.049-0.043 0.102-0.085 0.152-0.124 0.542-0.407 1.199-0.565 1.916-0.467 1.478 0.205 2.349 1.536 2.112 3.232z"></path>
</svg>
