<!-- Generated by IcoMoon.io -->
<svg version="1.1" xmlns="http://www.w3.org/2000/svg" width="40" height="40" viewBox="0 0 40 40">
<title>th-infinite</title>
<path fill="#ebebeb" d="M36 19.059c0 4.152-3.377 7.529-7.529 7.529-2.253 0-4.348-1.001-5.786-2.733l-0.004 0.002-0.026-0.034c-0.021-0.026-0.049-0.043-0.072-0.072l0.008-0.006-6.84-8.437c-1.071-1.205-2.609-1.897-4.22-1.897-3.113 0-5.647 2.534-5.647 5.647s2.534 5.647 5.647 5.647c1.722 0 3.33-0.772 4.408-2.118l0.017 0.013 1.538-1.905 1.464 1.182-1.549 1.918-0.019-0.015c-1.436 1.783-3.571 2.807-5.86 2.807-4.152 0-7.529-3.377-7.529-7.529s3.377-7.529 7.529-7.529c2.108 0 4.115 0.898 5.54 2.449l0.015-0.011 0.079 0.098 6.961 8.584c1.079 1.304 2.652 2.057 4.346 2.057 3.113 0 5.647-2.534 5.647-5.647s-2.534-5.647-5.647-5.647c-1.592 0-3.106 0.681-4.179 1.862l-1.784 2.212-1.464-1.182 1.784-2.212-0.008-0.006c1.431-1.624 3.492-2.556 5.651-2.556 4.152 0 7.529 3.377 7.529 7.529z"></path>
</svg>
