<!-- Generated by IcoMoon.io -->
<svg version="1.1" xmlns="http://www.w3.org/2000/svg" width="40" height="40" viewBox="0 0 40 40">
<title>th-layout-grid3</title>
<path fill="#ebebeb" d="M4 13.412h9.412v-9.412h-9.412v9.412zM5.882 5.882h5.647v5.647h-5.647v-5.647zM15.294 13.412h9.412v-9.412h-9.412v9.412zM17.176 5.882h5.647v5.647h-5.647v-5.647zM26.588 4v9.412h9.412v-9.412h-9.412zM34.118 11.529h-5.647v-5.647h5.647v5.647zM4 24.706h9.412v-9.412h-9.412v9.412zM5.882 17.176h5.647v5.647h-5.647v-5.647zM15.294 24.706h9.412v-9.412h-9.412v9.412zM17.176 17.176h5.647v5.647h-5.647v-5.647zM26.588 24.706h9.412v-9.412h-9.412v9.412zM28.471 17.176h5.647v5.647h-5.647v-5.647zM4 36h9.412v-9.412h-9.412v9.412zM5.882 28.471h5.647v5.647h-5.647v-5.647zM15.294 36h9.412v-9.412h-9.412v9.412zM17.176 28.471h5.647v5.647h-5.647v-5.647zM26.588 36h9.412v-9.412h-9.412v9.412zM28.471 28.471h5.647v5.647h-5.647v-5.647z"></path>
</svg>
