<!-- Generated by IcoMoon.io -->
<svg version="1.1" xmlns="http://www.w3.org/2000/svg" width="40" height="40" viewBox="0 0 40 40">
<title>th-linkedin</title>
<path fill="#ebebeb" d="M5.314 14.961h6.472v19.432h-6.472v-19.432zM8.589 5.608c-2.197 0-3.648 1.451-3.648 3.354 0 1.862 1.393 3.352 3.569 3.352h0.040c2.255 0 3.667-1.491 3.648-3.352-0.021-1.903-1.393-3.354-3.608-3.354zM27.627 14.509c-3.443 0-4.975 1.886-5.824 3.217v-2.765h-6.451c0 0 0.079 1.824 0 19.432h6.451v-10.844c0-0.587 0.060-1.158 0.215-1.587 0.472-1.158 1.528-2.353 3.317-2.353 2.33 0 3.272 1.784 3.272 4.392v10.392h6.453v-11.138c0-5.961-3.177-8.745-7.432-8.745z"></path>
</svg>
