<!-- Generated by IcoMoon.io -->
<svg version="1.1" xmlns="http://www.w3.org/2000/svg" width="40" height="40" viewBox="0 0 40 40">
<title>th-layout-sidebar-left</title>
<path fill="#ebebeb" d="M4 4h9.412v32h-9.412v-32zM17.176 36h1.882v-1.882h-1.882v1.882zM30.771 36h1.673v-1.882h-1.673v1.882zM27.424 36h1.673v-1.882h-1.673v1.882zM20.732 36h1.673v-1.882h-1.673v1.882zM24.079 36h1.673v-1.882h-1.673v1.882zM34.118 36h1.882v-1.882h-1.882v1.882zM34.118 9.647h1.882v-1.882h-1.882v1.882zM34.118 32.235h1.882v-1.882h-1.882v1.882zM34.118 17.176h1.882v-1.882h-1.882v1.882zM34.118 13.412h1.882v-1.882h-1.882v1.882zM34.118 20.941h1.882v-1.882h-1.882v1.882zM34.118 24.706h1.882v-1.882h-1.882v1.882zM34.118 28.471h1.882v-1.882h-1.882v1.882zM34.118 4v1.882h1.882v-1.882h-1.882zM30.773 5.882h1.673v-1.882h-1.673v1.882zM27.426 5.882h1.673v-1.882h-1.673v1.882zM24.079 5.882h1.673v-1.882h-1.673v1.882zM20.732 5.882h1.673v-1.882h-1.673v1.882zM17.176 5.882h1.882v-1.882h-1.882v1.882zM17.176 32.235h1.882v-1.882h-1.882v1.882zM17.176 28.471h1.882v-1.882h-1.882v1.882zM17.176 17.176h1.882v-1.882h-1.882v1.882zM17.176 24.706h1.882v-1.882h-1.882v1.882zM17.176 13.412h1.882v-1.882h-1.882v1.882zM17.176 9.647h1.882v-1.882h-1.882v1.882zM17.176 20.941h1.882v-1.882h-1.882v1.882z"></path>
</svg>
