<!-- Generated by IcoMoon.io -->
<svg version="1.1" xmlns="http://www.w3.org/2000/svg" width="40" height="40" viewBox="0 0 40 40">
<title>th-layout-sidebar-2</title>
<path fill="#ebebeb" d="M36 4v32h-7.529v-32h7.529zM4 36h5.647v-32h-5.647v32zM24.706 36h1.882v-1.882h-1.882v1.882zM18.251 36h1.613v-1.882h-1.613v1.882zM21.48 36h1.613v-1.882h-1.613v1.882zM15.025 36h1.613v-1.882h-1.613v1.882zM11.529 36h1.882v-1.882h-1.882v1.882zM11.529 9.647h1.882v-1.882h-1.882v1.882zM11.529 28.471h1.882v-1.882h-1.882v1.882zM11.529 32.235h1.882v-1.882h-1.882v1.882zM11.529 24.706h1.882v-1.882h-1.882v1.882zM11.529 17.176h1.882v-1.882h-1.882v1.882zM11.529 13.412h1.882v-1.882h-1.882v1.882zM11.529 20.941h1.882v-1.882h-1.882v1.882zM11.529 5.882h1.882v-1.882h-1.882v1.882zM15.025 5.882h1.613v-1.882h-1.613v1.882zM21.48 5.882h1.613v-1.882h-1.613v1.882zM18.251 5.882h1.613v-1.882h-1.613v1.882zM24.706 5.882h1.882v-1.882h-1.882v1.882zM24.706 13.412h1.882v-1.882h-1.882v1.882zM24.706 9.647h1.882v-1.882h-1.882v1.882zM24.706 17.176h1.882v-1.882h-1.882v1.882zM24.706 20.941h1.882v-1.882h-1.882v1.882zM24.706 32.235h1.882v-1.882h-1.882v1.882zM24.706 28.471h1.882v-1.882h-1.882v1.882zM24.706 24.706h1.882v-1.882h-1.882v1.882z"></path>
</svg>
