<!-- Generated by IcoMoon.io -->
<svg version="1.1" xmlns="http://www.w3.org/2000/svg" width="40" height="40" viewBox="0 0 40 40">
<title>th-layout-sidebar-right</title>
<path fill="#ebebeb" d="M36 4v32h-9.412v-32h9.412zM20.941 36h1.882v-1.882h-1.882v1.882zM17.596 36h1.673v-1.882h-1.673v1.882zM7.556 36h1.673v-1.882h-1.673v1.882zM10.903 36h1.673v-1.882h-1.673v1.882zM14.249 36h1.673v-1.882h-1.673v1.882zM4 36h1.882v-1.882h-1.882v1.882zM4 20.941h1.882v-1.882h-1.882v1.882zM4 9.647h1.882v-1.882h-1.882v1.882zM4 24.706h1.882v-1.882h-1.882v1.882zM4 17.176h1.882v-1.882h-1.882v1.882zM4 28.471h1.882v-1.882h-1.882v1.882zM4 32.235h1.882v-1.882h-1.882v1.882zM4 13.412h1.882v-1.882h-1.882v1.882zM4 5.882h1.882v-1.882h-1.882v1.882zM19.268 4h-1.673v1.882h1.673v-1.882zM15.921 4h-1.673v1.882h1.673v-1.882zM9.227 4h-1.672v1.882h1.673v-1.882zM12.574 4h-1.672v1.882h1.673v-1.882zM20.941 5.882h1.882v-1.882h-1.882v1.882zM20.941 32.235h1.882v-1.882h-1.882v1.882zM20.941 28.471h1.882v-1.882h-1.882v1.882zM20.941 20.941h1.882v-1.882h-1.882v1.882zM20.941 24.706h1.882v-1.882h-1.882v1.882zM20.941 13.412h1.882v-1.882h-1.882v1.882zM20.941 17.176h1.882v-1.882h-1.882v1.882zM20.941 9.647h1.882v-1.882h-1.882v1.882z"></path>
</svg>
