<!-- Generated by IcoMoon.io -->
<svg version="1.1" xmlns="http://www.w3.org/2000/svg" width="40" height="40" viewBox="0 0 40 40">
<title>th-linux</title>
<path fill="#ebebeb" d="M30.069 32.706c-0.958 0.489-2.236 1.566-2.707 2.018-0.354 0.337-1.815 0.506-2.639 0.085-0.958-0.489-0.454-1.263-1.933-1.31-0.74-0.019-1.463-0.019-2.185-0.019-0.638 0.019-1.276 0.051-1.933 0.066-2.217 0.051-2.436 1.481-3.866 1.431-0.975-0.034-2.2-0.808-4.32-1.242-1.48-0.305-2.906-0.386-3.211-1.043-0.301-0.657 0.371-1.395 0.42-2.033 0.051-0.858-0.638-2.018-0.134-2.456 0.437-0.386 1.361-0.102 1.965-0.435 0.638-0.369 0.907-0.657 0.907-1.446 0.235 0.804-0.017 1.459-0.538 1.779-0.32 0.201-0.907 0.303-1.397 0.254-0.386-0.036-0.621 0.015-0.723 0.168-0.151 0.184-0.102 0.521 0.085 0.958 0.184 0.437 0.403 0.723 0.369 1.259-0.017 0.538-0.621 1.178-0.52 1.632 0.034 0.169 0.201 0.32 0.621 0.437 0.672 0.184 1.899 0.369 3.093 0.657 1.329 0.335 2.707 0.939 3.565 0.823 2.554-0.354 1.092-3.093 0.689-3.746-2.168-3.398-3.597-5.615-4.74-4.742-0.286 0.235-0.303-0.572-0.286-0.892 0.051-1.111 0.606-1.512 0.941-2.37 0.638-1.632 1.126-3.496 2.101-4.454 0.728-0.943 1.871-2.472 2.091-3.277-0.186-1.749-0.237-3.597-0.269-5.208-0.034-1.732 0.235-3.247 2.185-4.303 0.469-0.254 1.090-0.354 1.747-0.354 1.16-0.019 2.453 0.32 3.277 0.924 1.312 0.975 2.135 3.042 2.035 4.52-0.068 1.16 0.134 2.353 0.504 3.597 0.437 1.463 1.128 2.487 2.236 3.663 1.329 1.412 2.37 4.184 2.673 5.948 0.269 1.651-0.102 2.675-0.454 2.726-0.538 0.081-0.873 1.779-2.554 1.713-1.075-0.051-1.176-0.689-1.48-1.244-0.488-0.856-0.975-0.587-1.16 0.32-0.102 0.454-0.036 1.128 0.117 1.628 0.303 1.060 0.201 2.052 0.017 3.279-0.354 2.319 1.63 2.756 2.959 1.645 1.31-1.090 1.596-1.259 3.243-1.832 2.504-0.858 1.664-1.613 0.318-2.067-1.21-0.405-1.259-2.44-0.824-2.825 0.102 2.185 1.244 2.505 1.715 2.807 2.067 1.282-0.774 2.342-2.001 2.963zM27.245 24.589c0.454-1.515 0.252-2.118-0.049-3.548-0.235-1.075-1.227-2.539-2.001-2.991 0.201 0.168 0.572 0.655 0.958 1.393 0.672 1.263 1.344 3.127 0.907 4.674-0.168 0.602-0.57 0.687-0.84 0.704-1.176 0.136-0.488-1.412-0.975-3.511-0.555-2.355-1.126-2.522-1.259-2.707-0.693-3.057-1.448-2.754-1.668-3.896-0.184-1.026 0.892-1.865-0.57-2.152-0.454-0.085-1.092-0.538-1.344-0.572-0.252-0.032-0.388-1.698 0.553-1.749 0.924-0.068 1.094 1.043 0.924 1.481-0.267 0.435 0.017 0.604 0.472 0.452 0.369-0.117 0.134-1.092 0.218-1.225-0.235-1.412-0.824-1.613-1.429-1.732-2.321 0.184-1.278 2.741-1.513 2.505-0.337-0.354-1.31-0.034-1.31-0.254 0.017-1.31-0.422-2.067-1.026-2.084-0.672-0.017-0.941 0.924-0.975 1.461-0.051 0.504 0.286 1.566 0.538 1.481 0.168-0.051 0.454-0.388 0.151-0.369-0.151 0-0.386-0.371-0.42-0.808-0.017-0.439 0.152-0.875 0.723-0.858 0.655 0.017 0.655 1.327 0.587 1.378-0.216 0.151-0.488 0.439-0.521 0.488-0.216 0.354-0.636 0.452-0.806 0.606-0.286 0.301-0.352 0.638-0.134 0.755 0.772 0.437 0.52 0.939 1.596 0.977 0.706 0.034 1.225-0.102 1.715-0.252 0.369-0.117 1.564-0.369 1.815-0.808 0.117-0.184 0.252-0.184 0.335-0.134 0.168 0.083 0.201 0.403-0.218 0.504-0.587 0.169-1.176 0.489-1.713 0.691-0.521 0.216-0.689 0.301-1.176 0.384-1.109 0.201-1.931-0.403-1.193 0.32 0.252 0.235 0.488 0.386 1.126 0.371 1.412-0.051 2.976-1.751 3.127-0.994 0.032 0.168-0.439 0.369-0.808 0.555-1.31 0.638-2.234 1.916-3.076 1.478-0.757-0.403-1.512-2.27-1.496-1.427 0.017 1.293-1.698 2.436-0.907 3.915-0.521 0.132-1.681 2.605-1.848 3.881-0.102 0.74 0.068 1.647-0.119 2.152-0.252 0.74-1.395-0.706-1.024-2.47 0.066-0.301 0-0.371-0.085-0.216-0.454 0.823-0.201 1.982 0.168 2.788 0.152 0.354 0.538 0.504 0.824 0.808 0.587 0.67 2.906 2.387 3.311 2.807 0.521 0.488 0.371 1.628-0.706 1.747 0.555 1.043 1.092 1.144 1.077 2.84 0.638-0.335 0.388-1.075 0.117-1.544-0.186-0.339-0.42-0.489-0.371-0.572 0.034-0.051 0.371-0.339 0.555-0.117 0.57 0.638 1.647 0.755 2.79 0.604 1.16-0.136 2.404-0.538 2.974-1.463 0.269-0.437 0.454-0.587 0.572-0.504 0.134 0.066 0.186 0.369 0.168 0.873-0.017 0.538-0.235 1.094-0.386 1.547-0.152 0.521-0.201 0.873 0.303 0.892 0.134-0.943 0.403-1.867 0.471-2.808 0.085-1.075-0.689-3.057 0.152-4.051 0.218-0.269 0.486-0.301 0.856-0.301 0.049-1.346 2.118-1.242 2.807-0.689 0-0.305-0.655-0.589-0.924-0.708zM13.53 19.75c-0.119 0.216-0.42 0.384-0.186 0.42 0.085 0.017 0.32-0.188 0.422-0.42 0.083-0.286 0.168-0.439 0.034-0.489-0.152-0.049-0.119 0.252-0.269 0.489zM17.378 10.639c-0.201-0.051-0.168 0.25-0.066 0.218 0.068 0 0.152 0.102 0.117 0.252-0.034 0.201-0.017 0.339 0.136 0.339 0.017 0 0.049 0 0.049-0.051 0.070-0.424-0.134-0.725-0.235-0.759zM17.833 12.184c-0.168 0.017-0.136-0.371 0.403-0.337-0.337 0.034-0.218 0.337-0.403 0.337zM19.211 11.898c0.488-0.216 0.655 0.119 0.488 0.186-0.169 0.049-0.186-0.271-0.488-0.186zM21.244 10.537c-0.218 0.019-0.151 0.117-0.049 0.151 0.134 0.038 0.269 0.271 0.303 0.521 0 0.034 0.168-0.034 0.168-0.085 0.015-0.401-0.337-0.602-0.422-0.587zM22.219 6.908c-0.134-0.136-0.269-0.254-0.403-0.254-0.337 0.034-0.169 0.386-0.218 0.555-0.068 0.184-0.318 0.337-0.151 0.471 0.152 0.117 0.252-0.184 0.572-0.301 0.083-0.036 0.471 0.015 0.553-0.169 0.015-0.085-0.201-0.184-0.354-0.301zM24.085 14.334c-0.318-0.2-0.386-0.536-0.503-0.42-0.354 0.386 0.437 1.193 0.772 1.263 0.201 0.034 0.354-0.237 0.303-0.472-0.068-0.318-0.303-0.201-0.572-0.371z"></path>
</svg>
