<!-- Generated by IcoMoon.io -->
<svg version="1.1" xmlns="http://www.w3.org/2000/svg" width="40" height="40" viewBox="0 0 40 40">
<title>th-magnet</title>
<path fill="#ebebeb" d="M24.706 4v19.053c0 2.502-2.112 4.535-4.706 4.535s-4.706-2.033-4.706-4.535v-19.053h-9.412v19.637c0 8.030 7.273 12.363 14.118 12.363s14.118-4.333 14.118-12.363v-19.637h-9.412zM32.235 5.882v5.647h-5.647v-5.647h5.647zM13.412 5.882v5.647h-5.647v-5.647h5.647zM20 34.118c-4.919 0-12.235-2.792-12.235-10.481v-10.225h5.647v9.641c0 3.539 2.955 6.417 6.588 6.417s6.588-2.878 6.588-6.417v-9.641h5.647v10.225c0 7.689-7.317 10.481-12.235 10.481z"></path>
</svg>
