<!-- Generated by IcoMoon.io -->
<svg version="1.1" xmlns="http://www.w3.org/2000/svg" width="40" height="40" viewBox="0 0 40 40">
<title>th-marker-alt</title>
<path fill="#ebebeb" d="M33.485 14.699l-1.024-1.024c0.147-0.337 0.239-0.693 0.262-1.058 0.049-0.819-0.228-1.572-0.783-2.127l-3.285-3.285c-0.388-0.388-0.823-0.584-1.293-0.584-0.845 0-1.448 0.608-2.086 1.254l-17.009 17.009-0.631 5.562 0.198 0.196-1.83 1.83 2.246 0.418 0.917-0.915 0.196 0.196 5.56-0.627 16.371-16.373 0.858 0.858c0.136 0.136 0.177 0.271 0.143 0.461-0.049 0.265-0.243 0.584-0.533 0.873l-5.677 5.679 1.331 1.331 5.677-5.679c0.57-0.568 0.936-1.214 1.054-1.864 0.147-0.802-0.088-1.56-0.663-2.133zM14.057 29.745l-4.006 0.454-0.442-0.442 0.456-4.002 10.583-10.583 3.992 3.992-10.583 10.581zM25.971 17.833l-3.992-3.992 4.638-4.638c0.256-0.262 0.644-0.653 0.708-0.666l3.285 3.285c0.226 0.226 0.243 0.523 0.235 0.68-0.019 0.316-0.166 0.623-0.41 0.87l-4.463 4.463z"></path>
</svg>
