<!-- Generated by IcoMoon.io -->
<svg version="1.1" xmlns="http://www.w3.org/2000/svg" width="40" height="40" viewBox="0 0 40 40">
<title>th-medall-alt</title>
<path fill="#ebebeb" d="M20 4c-5.19 0-9.412 4.222-9.412 9.412 0 2.588 1.045 5.005 2.94 6.807 0.16 0.154 0.339 0.29 0.52 0.425l0.194 0.147c0.337 0.265 0.695 0.484 1.052 0.698v13.57l4.666-3.578 4.745 3.578v-13.57c0.358-0.215 0.717-0.435 1.054-0.7l0.194-0.145c0.181-0.136 0.358-0.271 0.52-0.425 1.894-1.801 2.938-4.218 2.938-6.807 0-5.19-4.222-9.412-9.412-9.412zM22.824 31.281l-2.872-2.167-2.775 2.129v-7.953c0.907 0.314 1.856 0.474 2.824 0.474s1.916-0.16 2.824-0.474v7.991zM25.175 18.856c-0.107 0.104-0.228 0.19-0.348 0.277l-0.232 0.177c-2.72 2.136-6.472 2.135-9.188 0.002l-0.233-0.179c-0.12-0.088-0.241-0.175-0.348-0.277-1.519-1.444-2.355-3.375-2.355-5.444 0-4.152 3.377-7.529 7.529-7.529s7.529 3.377 7.529 7.529c0 2.069-0.836 4-2.355 5.444zM23.294 13.412c0 1.818-1.476 3.294-3.294 3.294s-3.294-1.476-3.294-3.294 1.476-3.294 3.294-3.294 3.294 1.476 3.294 3.294z"></path>
</svg>
