<!-- Generated by IcoMoon.io -->
<svg version="1.1" xmlns="http://www.w3.org/2000/svg" width="40" height="40" viewBox="0 0 40 40">
<title>th-music-alt</title>
<path fill="#ebebeb" d="M15.294 4.499v17.359c-0.964-0.84-2.208-1.367-3.584-1.367-3.025 0-5.485 2.462-5.485 5.485s2.46 5.485 5.485 5.485c2.955 0 5.355-2.355 5.464-5.284v0-0.011c0.002-0.064 0.019-0.124 0.019-0.192s-0.015-0.126-0.017-0.19v-11.471l16.941 3.315v8.783c-0.966-0.849-2.217-1.382-3.603-1.382-3.025 0-5.485 2.462-5.485 5.485s2.46 5.485 5.485 5.485c2.984 0 5.406-2.396 5.472-5.363l0.013 0.004v-22.091l-20.706-4.051zM11.71 29.579c-1.988 0-3.603-1.615-3.603-3.603s1.615-3.603 3.603-3.603c1.922 0 3.482 1.515 3.584 3.411v0.382c-0.102 1.897-1.662 3.413-3.584 3.413zM17.176 12.397v-5.613l16.941 3.317v5.609l-16.941-3.313zM30.515 34.118c-1.988 0-3.603-1.615-3.603-3.603s1.615-3.603 3.603-3.603 3.603 1.615 3.603 3.603-1.615 3.603-3.603 3.603z"></path>
</svg>
