<!-- Generated by IcoMoon.io -->
<svg version="1.1" xmlns="http://www.w3.org/2000/svg" width="40" height="40" viewBox="0 0 40 40">
<title>th-more</title>
<path fill="#ebebeb" d="M7.765 15.294c-2.078 0-3.765 1.687-3.765 3.765s1.687 3.765 3.765 3.765 3.765-1.687 3.765-3.765-1.687-3.765-3.765-3.765zM7.765 20.941c-1.037 0-1.882-0.843-1.882-1.882s0.845-1.882 1.882-1.882 1.882 0.843 1.882 1.882-0.845 1.882-1.882 1.882zM20 15.294c-2.078 0-3.765 1.687-3.765 3.765s1.687 3.765 3.765 3.765 3.765-1.687 3.765-3.765-1.687-3.765-3.765-3.765zM20 20.941c-1.037 0-1.882-0.843-1.882-1.882s0.845-1.882 1.882-1.882 1.882 0.843 1.882 1.882-0.845 1.882-1.882 1.882zM32.235 15.294c-2.078 0-3.765 1.687-3.765 3.765s1.687 3.765 3.765 3.765 3.765-1.687 3.765-3.765-1.687-3.765-3.765-3.765zM32.235 20.941c-1.037 0-1.882-0.843-1.882-1.882s0.845-1.882 1.882-1.882 1.882 0.843 1.882 1.882-0.845 1.882-1.882 1.882z"></path>
</svg>
