<!-- Generated by IcoMoon.io -->
<svg version="1.1" xmlns="http://www.w3.org/2000/svg" width="40" height="40" viewBox="0 0 40 40">
<title>th-panel</title>
<path fill="#ebebeb" d="M4 4v32h32v-32h-32zM34.118 34.118h-28.235v-28.235h28.235v28.235zM11.529 23.26v5.21h1.882v-5.21c1.389-0.41 2.411-1.683 2.411-3.202s-1.022-2.792-2.411-3.202v-5.327h-1.882v5.327c-1.389 0.41-2.411 1.683-2.411 3.202s1.022 2.793 2.411 3.202zM12.471 18.588c0.811 0 1.47 0.661 1.47 1.47s-0.659 1.47-1.47 1.47-1.47-0.659-1.47-1.47 0.659-1.47 1.47-1.47zM19.059 19.26v9.21h1.882v-9.21c1.389-0.41 2.411-1.683 2.411-3.202s-1.022-2.792-2.411-3.202v-1.327h-1.882v1.327c-1.389 0.41-2.411 1.683-2.411 3.202s1.022 2.793 2.411 3.202zM20 14.588c0.811 0 1.47 0.661 1.47 1.47s-0.659 1.472-1.47 1.472-1.47-0.661-1.47-1.472 0.659-1.47 1.47-1.47zM27.529 29.256c1.848 0 3.352-1.504 3.352-3.352 0-1.521-1.022-2.792-2.411-3.202v-11.172h-1.882v11.172c-1.389 0.41-2.411 1.683-2.411 3.202 0 1.848 1.504 3.352 3.352 3.352zM27.529 24.431c0.811 0 1.47 0.661 1.47 1.47s-0.661 1.47-1.47 1.47-1.47-0.661-1.47-1.47 0.659-1.47 1.47-1.47z"></path>
</svg>
