<!-- Generated by IcoMoon.io -->
<svg version="1.1" xmlns="http://www.w3.org/2000/svg" width="40" height="40" viewBox="0 0 40 40">
<title>th-pie-chart</title>
<path fill="#ebebeb" d="M32.207 20.834l1.879 0.126c-0.495 7.379-6.682 13.158-14.086 13.158-7.785 0-14.118-6.332-14.118-14.118 0-7.351 5.736-13.534 13.060-14.078l0.139 1.877c-6.345 0.471-11.317 5.83-11.317 12.201 0 6.746 5.489 12.235 12.235 12.235 6.417 0 11.778-5.007 12.207-11.401zM36 18.116v0.941l-0.943 0.032h-14.084v-15.091l0.943 0.002c7.767 0.017 14.084 6.351 14.084 14.116zM34.091 17.207c-0.42-5.967-5.225-10.81-11.236-11.285v11.285h11.236z"></path>
</svg>
