<!-- Generated by IcoMoon.io -->
<svg version="1.1" xmlns="http://www.w3.org/2000/svg" width="40" height="40" viewBox="0 0 40 40">
<title>th-pinterest-alt</title>
<path fill="#ebebeb" d="M20 4.941c-8.316 0-15.059 6.741-15.059 15.059 0 6.165 3.708 11.464 9.015 13.792-0.041-1.052-0.009-2.313 0.262-3.458 0.288-1.222 1.937-8.205 1.937-8.205s-0.482-0.962-0.482-2.383c0-2.232 1.295-3.896 2.906-3.896 1.37 0 2.031 1.028 2.031 2.259 0 1.376-0.879 3.437-1.331 5.344-0.376 1.598 0.802 2.901 2.377 2.901 2.854 0 4.776-3.663 4.776-8.006 0-3.3-2.225-5.771-6.266-5.771-4.568 0-7.413 3.409-7.413 7.211 0 1.314 0.386 2.238 0.992 2.953 0.277 0.329 0.316 0.463 0.216 0.84-0.072 0.277-0.239 0.945-0.307 1.208-0.102 0.382-0.41 0.518-0.753 0.378-2.106-0.86-3.085-3.164-3.085-5.754 0-4.277 3.607-9.408 10.763-9.408 5.749 0 9.532 4.162 9.532 8.627 0 5.909-3.285 10.321-8.124 10.321-1.626 0-3.157-0.881-3.68-1.879 0 0-0.873 3.471-1.058 4.139-0.32 1.161-0.945 2.321-1.517 3.226 1.353 0.403 2.784 0.619 4.267 0.619 8.316 0 15.059-6.741 15.059-15.059s-6.743-15.059-15.059-15.059z"></path>
</svg>
