<!-- Generated by IcoMoon.io -->
<svg version="1.1" xmlns="http://www.w3.org/2000/svg" width="40" height="40" viewBox="0 0 40 40">
<title>th-share</title>
<path fill="#ebebeb" d="M16.791 29.216c-2.089-1.952-3.288-4.71-3.288-7.569 0-5.709 4.646-10.353 10.353-10.353h5.481l-4.981-4.981 1.331-1.331 7.255 7.255-7.255 7.255-1.331-1.331 4.981-4.981h-5.481c-4.67 0-8.471 3.8-8.471 8.471 0 2.374 0.956 4.572 2.69 6.193l-1.284 1.372zM34.208 20.998v12.179c0 0.518-0.424 0.941-0.941 0.941h-26.353c-0.518 0-0.941-0.424-0.941-0.941v-12.188h-1.882v12.188c0 1.557 1.267 2.824 2.824 2.824h26.353c1.557 0 2.824-1.267 2.824-2.824v-12.179h-1.882z"></path>
</svg>
