<!-- Generated by IcoMoon.io -->
<svg version="1.1" xmlns="http://www.w3.org/2000/svg" width="40" height="40" viewBox="0 0 40 40">
<title>th-shortcode</title>
<path fill="#ebebeb" d="M4.049 5.882h5.647v1.882h-3.765v24.471h3.765v1.882h-5.647v-28.235zM30.402 5.882v1.882h3.765v24.471h-3.765v1.882h5.647v-28.235h-5.647zM20.772 18.997c-2.099-0.815-3.025-1.513-3.025-2.936 0-1.039 0.791-2.28 2.867-2.28 1.376 0 2.392 0.45 2.889 0.723l0.542-1.604c-0.676-0.384-1.807-0.745-3.364-0.745-2.957 0-4.92 1.762-4.92 4.132 0 2.146 1.534 3.432 4.019 4.312 2.054 0.789 2.867 1.602 2.867 3.023 0 1.534-1.175 2.598-3.183 2.598-1.355 0-2.641-0.452-3.522-0.994l-0.497 1.649c0.813 0.54 2.415 0.971 3.881 0.971 3.59 0 5.329-2.031 5.329-4.38 0.002-2.236-1.31-3.477-3.883-4.469z"></path>
</svg>
