<!-- Generated by IcoMoon.io -->
<svg version="1.1" xmlns="http://www.w3.org/2000/svg" width="40" height="40" viewBox="0 0 40 40">
<title>th-stack-overflow</title>
<path fill="#ebebeb" d="M27.831 34.455c0 0.587-0.017 0.587-0.017 0.587v0.017h-19.023c-0.589 0-0.589-0.017-0.589-0.017h-0.017v-12.371h2.035v10.389h15.597v-10.389h2.014v11.784zM23.782 31.023l-11.881 0.017v-2.537l11.881-0.017v2.537zM24.068 25.244l-0.218 2.52-11.849-1.092 0.235-2.52 11.832 1.092zM24.858 21.916l-0.657 2.456-11.479-3.078 0.655-2.455 11.48 3.076zM26.353 19.025l-1.295 2.184-10.234-6.048 1.293-2.185 10.236 6.050zM28.856 17.244l-2.082 1.429-6.709-9.815 2.101-1.448 6.69 9.833zM31.816 16.657l-2.505 0.437-2.033-11.716 2.504-0.437 2.035 11.716z"></path>
</svg>
