<!-- Generated by IcoMoon.io -->
<svg version="1.1" xmlns="http://www.w3.org/2000/svg" width="40" height="40" viewBox="0 0 40 40">
<title>th-settings</title>
<path fill="#ebebeb" d="M20 15.241c-2.594 0-4.706 2.112-4.706 4.706s2.112 4.706 4.706 4.706 4.706-2.112 4.706-4.706-2.112-4.706-4.706-4.706zM20 22.771c-1.557 0-2.824-1.267-2.824-2.824s1.267-2.824 2.824-2.824 2.824 1.267 2.824 2.824-1.267 2.824-2.824 2.824zM35.887 21.781c0.070-0.604 0.113-1.214 0.113-1.833s-0.043-1.229-0.113-1.833l-4.872-1.464c-0.224-0.757-0.523-1.481-0.892-2.163l2.408-4.474c-0.764-0.96-1.636-1.832-2.598-2.598l-4.474 2.409c-0.683-0.369-1.408-0.666-2.165-0.892l-1.461-4.872c-0.602-0.070-1.212-0.113-1.833-0.113s-1.231 0.043-1.833 0.113l-1.461 4.872c-0.759 0.224-1.485 0.523-2.165 0.894l-4.474-2.409c-0.962 0.764-1.833 1.636-2.596 2.598l2.408 4.471c-0.369 0.681-0.666 1.408-0.892 2.165l-4.873 1.464c-0.070 0.602-0.113 1.212-0.113 1.833s0.043 1.231 0.113 1.833l4.872 1.461c0.226 0.759 0.523 1.485 0.892 2.167l-2.408 4.472c0.764 0.962 1.636 1.833 2.598 2.598l4.474-2.408c0.681 0.369 1.408 0.666 2.165 0.892l1.461 4.872c0.604 0.070 1.214 0.113 1.833 0.113s1.231-0.043 1.833-0.113l1.461-4.872c0.757-0.226 1.483-0.523 2.165-0.892l4.472 2.408c0.962-0.766 1.833-1.638 2.598-2.6l-2.406-4.472c0.369-0.681 0.666-1.408 0.892-2.165l4.872-1.461zM29.502 21.73l-0.29 0.975c-0.188 0.634-0.439 1.242-0.745 1.805l-0.482 0.894 0.48 0.894 1.792 3.332c-0.186 0.198-0.378 0.39-0.576 0.576l-4.222-2.276-0.894 0.482c-0.567 0.307-1.175 0.555-1.807 0.745l-0.975 0.29-0.292 0.975-1.090 3.637c-0.136 0.004-0.269 0.006-0.401 0.006s-0.265-0.002-0.401-0.006l-1.090-3.637-0.292-0.975-0.975-0.29c-0.632-0.188-1.24-0.439-1.805-0.745l-0.894-0.482-4.226 2.272c-0.196-0.186-0.39-0.378-0.576-0.576l2.274-4.224-0.482-0.894c-0.305-0.565-0.555-1.173-0.745-1.807l-0.288-0.973-4.61-1.382c-0.006-0.136-0.008-0.269-0.008-0.399 0-0.132 0.002-0.265 0.008-0.401l4.608-1.382 0.29-0.975c0.188-0.634 0.439-1.242 0.745-1.805l0.482-0.894-2.274-4.226c0.186-0.196 0.378-0.39 0.574-0.576l4.23 2.278 0.896-0.488c0.559-0.305 1.165-0.555 1.8-0.744l0.975-0.29 0.292-0.975 1.090-3.637c0.137-0.002 0.271-0.004 0.403-0.004s0.265 0.002 0.401 0.006l1.090 3.637 0.292 0.975 0.975 0.29c0.631 0.188 1.24 0.439 1.807 0.745l0.894 0.48 4.224-2.274c0.196 0.186 0.39 0.378 0.576 0.576l-1.794 3.332-0.48 0.894 0.484 0.894c0.307 0.565 0.555 1.171 0.744 1.801l0.29 0.975 0.975 0.292 3.637 1.094c0.002 0.136 0.004 0.269 0.004 0.401s-0.002 0.265-0.008 0.401l-4.608 1.382z"></path>
</svg>
