<!-- Generated by IcoMoon.io -->
<svg version="1.1" xmlns="http://www.w3.org/2000/svg" width="40" height="40" viewBox="0 0 40 40">
<title>th-tag</title>
<path fill="#ebebeb" d="M20.853 5.897l-7.467 5.425v22.852l7.503-5.259 7.607 5.242v-22.842l-7.642-5.417zM26.615 30.573l-5.732-3.953-5.613 3.936v-18.276l5.6-4.068 5.747 4.075v18.285zM17.655 15.296c0 1.816 1.478 3.294 3.294 3.294s3.294-1.478 3.294-3.294-1.478-3.294-3.294-3.294-3.294 1.478-3.294 3.294zM20.949 13.884c0.777 0 1.412 0.634 1.412 1.412s-0.634 1.412-1.412 1.412-1.412-0.634-1.412-1.412 0.634-1.412 1.412-1.412z"></path>
</svg>
