<!-- Generated by IcoMoon.io -->
<svg version="1.1" xmlns="http://www.w3.org/2000/svg" width="40" height="40" viewBox="0 0 40 40">
<title>th-trello</title>
<path fill="#ebebeb" d="M35.059 33.803c0 0.687-0.568 1.256-1.256 1.256h-27.607c-0.685 0-1.256-0.568-1.256-1.256v-27.607c0-0.687 0.568-1.256 1.256-1.256h27.608c0.685 0 1.256 0.568 1.256 1.256v27.607zM18.744 8.706c0-0.354-0.275-0.627-0.627-0.627h-9.412c-0.354 0-0.627 0.275-0.627 0.627v20.079c0 0.352 0.275 0.627 0.627 0.627h9.412c0.354 0 0.627-0.275 0.627-0.627v-20.079zM31.921 8.706c0-0.354-0.275-0.627-0.627-0.627h-9.412c-0.354 0-0.627 0.275-0.627 0.627v12.55c0 0.352 0.273 0.627 0.627 0.627h9.412c0.354 0 0.627-0.275 0.627-0.627v-12.55z"></path>
</svg>
