<!-- Generated by IcoMoon.io -->
<svg version="1.1" xmlns="http://www.w3.org/2000/svg" width="40" height="40" viewBox="0 0 40 40">
<title>th-vimeo-alt</title>
<path fill="#ebebeb" d="M34.366 8.331c-1.092-1.385-3.381-1.438-4.979-1.199-1.28 0.213-5.643 2.129-7.11 6.737 2.611-0.213 3.991 0.19 3.727 3.063-0.109 1.224-0.721 2.53-1.385 3.81-0.802 1.461-2.261 4.339-4.207 2.261-1.73-1.864-1.624-5.431-1.995-7.8-0.243-1.333-0.48-2.984-0.907-4.367-0.375-1.173-1.254-2.581-2.289-2.903-1.144-0.322-2.558 0.186-3.383 0.664-2.615 1.547-4.341 3.731-6.897 5.54v0.188c0.851 0.427 0.587 1.118 1.252 1.225 1.572 0.211 3.059-1.468 4.102 0.29 0.638 1.064 0.824 2.236 1.222 3.384 0.557 1.542 0.962 3.221 1.412 4.979 0.745 3.012 1.653 7.482 4.26 8.578 1.308 0.559 3.305-0.188 4.29-0.802 2.712-1.6 4.875-3.915 6.656-6.31 4.181-5.596 6.445-11.985 6.792-13.822 0.239-1.254 0.213-2.532-0.559-3.516z"></path>
</svg>
