<!-- Generated by IcoMoon.io -->
<svg version="1.1" xmlns="http://www.w3.org/2000/svg" width="40" height="40" viewBox="0 0 40 40">
<title>th-volume</title>
<path fill="#ebebeb" d="M10.752 15.168c-1.8 0-2.918 0.941-2.918 2.458v4.068c0 0.781 0.303 1.513 0.853 2.067 0.55 0.552 1.284 0.856 2.065 0.856h3.281l10.703 10.707v-30.925l-10.598 10.769h-3.386zM22.854 8.996v21.783l-8.041-8.043h-4.062c-0.57 0-1.033-0.467-1.033-1.041v-4.068c0-0.171 0-0.576 1.035-0.576h4.173l7.928-8.055zM26.598 24.681v-1.882c1.047 0 1.897-0.851 1.897-1.897s-0.851-1.897-1.897-1.897v-1.882c2.084 0 3.78 1.696 3.78 3.78s-1.696 3.78-3.78 3.78zM34.172 20.917c0 4.152-3.377 7.529-7.529 7.529v-1.882c3.113 0 5.647-2.534 5.647-5.647s-2.534-5.647-5.647-5.647v-1.882c4.151 0 7.529 3.379 7.529 7.529z"></path>
</svg>
