<!-- Generated by IcoMoon.io -->
<svg version="1.1" xmlns="http://www.w3.org/2000/svg" width="40" height="40" viewBox="0 0 40 40">
<title>th-write</title>
<path fill="#ebebeb" d="M25.961 4h-16.284v3.735h-0.971c-1.557 0-2.824 1.267-2.824 2.824v16.166l4.745 9.329 4.638-9.335v-16.16c0-1.557-1.267-2.824-2.824-2.824h-0.883v-1.852h13.146v9.412h9.412v18.824h-21.647v1.882h23.529v-22.008l-10.039-9.992zM11.356 30.357h-1.513l-2.078-4.085v-11.008h1.882v11.345h1.882v-11.345h1.852v11.014l-2.025 4.079zM13.382 10.558v2.824h-5.617v-2.824c0-0.518 0.424-0.941 0.941-0.941h3.735c0.52 0 0.941 0.424 0.941 0.941zM26.588 7.279l6.161 6.133h-6.161v-6.133z"></path>
</svg>
