<!-- Generated by IcoMoon.io -->
<svg version="1.1" xmlns="http://www.w3.org/2000/svg" width="40" height="40" viewBox="0 0 40 40">
<title>th-yahoo</title>
<path fill="#ebebeb" d="M21.882 35.059c-0.616-0.109-1.25-0.198-1.901-0.198-0.632 0-1.267 0.090-1.899 0.198l0.235-12.798c-3.368-5.809-6.536-11.725-10.244-17.32 0.632 0.164 1.284 0.271 1.954 0.271s1.357-0.128 2.008-0.271c2.534 4.491 5.286 8.851 7.945 13.267 2.679-4.38 5.521-8.742 7.947-13.267 0.632 0.164 1.286 0.254 1.935 0.254 0.689 0 1.395-0.090 2.063-0.254-1.449 1.992-2.643 4.162-3.891 6.28-2.155 3.674-4.273 7.351-6.391 11.040l0.237 12.798z"></path>
</svg>
