<!-- Generated by IcoMoon.io -->
<svg version="1.1" xmlns="http://www.w3.org/2000/svg" width="40" height="40" viewBox="0 0 40 40">
<title>th-youtube</title>
<path fill="#ebebeb" d="M19.625 16.088c0.823 0 1.448-0.303 1.894-0.911 0.341-0.446 0.499-1.161 0.499-2.108v-3.125c0-0.947-0.158-1.643-0.499-2.089-0.448-0.604-1.073-0.909-1.894-0.909-0.806 0-1.431 0.303-1.873 0.909-0.341 0.448-0.501 1.144-0.501 2.091v3.125c0 0.947 0.16 1.643 0.501 2.108 0.442 0.606 1.067 0.909 1.873 0.909zM18.857 9.624c0-0.821 0.25-1.231 0.768-1.231 0.536 0 0.768 0.41 0.768 1.231v3.75c0 0.823-0.232 1.25-0.768 1.25-0.518 0-0.768-0.429-0.768-1.25v-3.75zM23.482 15.428c-0.090-0.269-0.141-0.696-0.141-1.338v-7.036h1.624v6.552c0 0.376 0 0.589 0.019 0.627 0.036 0.25 0.16 0.392 0.375 0.392 0.32 0 0.659-0.25 1.016-0.768v-6.803h1.624v8.911h-1.624v-0.983c-0.642 0.749-1.248 1.107-1.841 1.107-0.518 0-0.892-0.213-1.052-0.661zM29.662 26.232v0.821h-1.608v-0.821c0-0.804 0.269-1.216 0.804-1.216 0.535 0.002 0.804 0.412 0.804 1.216zM12.196 7.339c-0.392-1.107-0.783-2.232-1.161-3.339h1.896l1.267 4.696 1.214-4.696h1.822l-2.161 7.125v4.84h-1.784v-4.84c-0.162-0.875-0.52-2.125-1.092-3.785zM32.768 20.536c-0.322-1.412-1.483-2.447-2.857-2.607-3.287-0.358-6.609-0.358-9.912-0.358s-6.626 0-9.894 0.358c-1.389 0.16-2.534 1.195-2.872 2.607-0.446 1.999-0.465 4.179-0.465 6.249 0 2.054 0 4.248 0.465 6.249 0.322 1.412 1.483 2.447 2.857 2.59 3.285 0.375 6.607 0.375 9.911 0.375s6.626 0 9.912-0.375c1.372-0.143 2.517-1.178 2.857-2.59 0.446-1.999 0.465-4.196 0.465-6.249-0.002-2.071-0.002-4.25-0.467-6.249zM14.321 22.34h-1.909v10.161h-1.786v-10.161h-1.877v-1.679h5.572v1.679zM19.144 32.501h-1.591v-0.964c-0.644 0.732-1.25 1.090-1.822 1.090-0.516 0-0.892-0.215-1.035-0.661-0.090-0.267-0.143-0.68-0.143-1.303v-6.982h1.591v6.5c0 0.376 0 0.572 0.017 0.627 0.038 0.248 0.162 0.375 0.375 0.375 0.324 0 0.663-0.248 1.018-0.749v-6.75h1.591v8.817zM25.216 29.858c0 0.823-0.038 1.41-0.162 1.784-0.196 0.644-0.644 0.983-1.269 0.983-0.57 0-1.126-0.322-1.662-0.983v0.858h-1.587v-11.84h1.587v3.876c0.518-0.644 1.073-0.964 1.662-0.964 0.625 0 1.073 0.339 1.269 1 0.124 0.358 0.162 0.945 0.162 1.768v3.518zM31.251 28.393h-3.196v1.553c0 0.823 0.269 1.231 0.823 1.231 0.393 0 0.625-0.213 0.715-0.642 0.017-0.088 0.036-0.446 0.036-1.090h1.624v0.233c0 0.518 0 0.875-0.036 1.035-0.038 0.356-0.181 0.678-0.375 0.964-0.431 0.625-1.090 0.947-1.928 0.947-0.84 0-1.466-0.303-1.929-0.911-0.339-0.429-0.518-1.126-0.518-2.072v-3.089c0-0.947 0.162-1.624 0.501-2.072 0.465-0.608 1.090-0.911 1.912-0.911 0.806 0 1.429 0.303 1.892 0.911 0.324 0.446 0.484 1.124 0.484 2.072v1.841zM23.625 26.214v3.768c0 0.804-0.233 1.195-0.696 1.195-0.269 0-0.536-0.124-0.806-0.392v-5.374c0.269-0.269 0.536-0.393 0.806-0.393 0.463 0 0.696 0.41 0.696 1.195z"></path>
</svg>
