<!-- Generated by IcoMoon.io -->
<svg version="1.1" xmlns="http://www.w3.org/2000/svg" width="40" height="40" viewBox="0 0 40 40">
<title>th-zoom-out</title>
<path fill="#ebebeb" d="M35.255 33.869l-9.737-9.737c1.835-2.14 2.953-4.915 2.953-7.949 0-6.746-5.489-12.235-12.235-12.235-3.268 0-6.342 1.272-8.655 3.582-2.31 2.312-3.582 5.385-3.58 8.653 0 6.746 5.489 12.235 12.235 12.235 3.034 0 5.811-1.118 7.951-2.953l9.737 9.737 1.331-1.333zM16.235 26.536c-5.707 0-10.353-4.644-10.353-10.353-0.002-2.767 1.075-5.367 3.031-7.32 1.954-1.956 4.555-3.032 7.322-3.032 5.707 0 10.353 4.644 10.353 10.353 0 5.707-4.646 10.353-10.353 10.353zM11.529 15.241h9.412v1.882h-9.412v-1.882z"></path>
</svg>
