<!-- Generated by IcoMoon.io -->
<svg version="1.1" xmlns="http://www.w3.org/2000/svg" width="24" height="24" viewBox="0 0 24 24">
<title>train</title>
<path fill="#ebebeb" d="M15.6 16.013q0.525 0 0.862-0.356t0.337-0.844-0.337-0.844-0.862-0.356-0.863 0.356-0.337 0.844 0.337 0.844 0.863 0.356zM12.788 10.387h4.012v-3.188h-4.012v3.188zM11.212 10.387v-3.188h-4.012v3.188h4.012zM8.4 16.013q0.525 0 0.863-0.356t0.338-0.844-0.338-0.844-0.863-0.356-0.862 0.356-0.338 0.844 0.338 0.844 0.862 0.356zM12 4.012q3.112 0 4.763 0.638t1.65 2.55v7.613q0 1.163-0.825 1.969t-1.987 0.806l1.2 1.2v0.413h-1.612l-1.575-1.613h-3.037l-1.575 1.613h-1.8v-0.413l1.2-1.2q-1.162 0-1.987-0.806t-0.825-1.969v-7.613q0-1.012 0.525-1.688t1.519-0.975 1.987-0.412 2.381-0.113z"></path>
</svg>
