<!-- Generated by IcoMoon.io -->
<svg version="1.1" xmlns="http://www.w3.org/2000/svg" width="24" height="24" viewBox="0 0 24 24">
<title>translate</title>
<path fill="#ebebeb" d="M15.112 16.013h2.588l-1.313-3.488zM17.212 10.387l3.6 9.6h-1.612l-0.9-2.4h-3.787l-0.9 2.4h-1.612l3.6-9.6h1.612zM12.712 14.438l-0.637 1.65-2.475-2.475-4.012 3.975-1.125-1.125 4.088-4.012q-1.5-1.65-2.4-3.637h1.612q0.788 1.5 1.838 2.662 1.725-1.913 2.55-4.275h-8.962v-1.613h5.625v-1.575h1.575v1.575h5.625v1.613h-2.363q-0.375 1.2-1.237 2.719t-1.725 2.494l-0.038 0.037z"></path>
</svg>
