<!-- Generated by IcoMoon.io -->
<svg version="1.1" xmlns="http://www.w3.org/2000/svg" width="24" height="24" viewBox="0 0 24 24">
<title>tty</title>
<path fill="#ebebeb" d="M13.612 5.588h1.575v1.612h-1.575v-1.612zM12.788 7.988h1.612v1.613h-1.612v-1.613zM11.212 5.588h1.575v1.612h-1.575v-1.612zM16.8 9.6h-1.612v-1.613h1.612v1.613zM17.587 7.2h-1.575v-1.612h1.575v1.612zM19.2 9.6h-1.613v-1.613h1.613v1.613zM19.987 7.2h-1.575v-1.612h1.575v1.612zM14.1 13.913l-2.025 2.025q-3.037-1.763-4.8-4.8l2.025-2.025q0.3-0.3 0.225-0.713l-0.6-2.962q-0.037-0.262-0.262-0.45t-0.525-0.188h-3.3q-0.338 0-0.581 0.244t-0.244 0.581q0.112 1.725 0.6 3.337t1.35 3.038q0.938 1.65 2.269 2.981t2.981 2.269q1.425 0.825 3.019 1.331t3.356 0.581q0.337 0.038 0.581-0.206t0.244-0.581v-3.337q0-0.263-0.188-0.488t-0.45-0.262l-2.962-0.6q-0.413-0.075-0.712 0.225zM13.612 10.387h1.575v1.613h-1.575v-1.613zM11.212 10.387h1.575v1.613h-1.575v-1.613zM17.587 12h-1.575v-1.613h1.575v1.613zM19.987 12h-1.575v-1.613h1.575v1.613z"></path>
</svg>
