<!-- Generated by IcoMoon.io -->
<svg version="1.1" xmlns="http://www.w3.org/2000/svg" width="24" height="24" viewBox="0 0 24 24">
<title>two_wheeler</title>
<path fill="#ebebeb" d="M6.788 12.413q-0.638 0-1.106 0.469t-0.469 1.106 0.469 1.125 1.106 0.488 1.125-0.488 0.487-1.125-0.487-1.106-1.125-0.469zM17.212 11.212q1.163 0 1.969 0.806t0.806 1.969-0.806 1.987-1.969 0.825-1.987-0.825-0.825-1.987q0-1.237 0.938-2.063l-0.337-0.412-2.212 3.675h-2.4l-0.825-0.75q-0.188 1.013-0.975 1.688t-1.8 0.675q-1.162 0-1.969-0.825t-0.806-1.987q0-0.45 0.15-0.881t0.394-0.769 0.619-0.6 0.787-0.412l-0.75-0.638h-1.2v-0.675h2.925l1.688 1.050 2.7-1.050h2.438l-0.975-1.2h-1.575v-0.825h2.287l0.975 1.238 2.325-0.9v1.688h-1.688l1.050 1.387q0.188-0.037 0.356-0.094t0.338-0.075 0.356-0.019zM17.212 12.413q-0.637 0-1.125 0.469t-0.487 1.106 0.487 1.125 1.125 0.488 1.106-0.488 0.469-1.125-0.469-1.106-1.106-0.469z"></path>
</svg>
