<!-- Generated by IcoMoon.io -->
<svg version="1.1" xmlns="http://www.w3.org/2000/svg" width="40" height="40" viewBox="0 0 40 40">
<title>ul-annoyed</title>
<path fill="#ebebeb" d="M16.8 16.8c-0.589 0-1.066 0.478-1.066 1.066s0.478 1.066 1.066 1.066c0.589 0 1.066-0.478 1.066-1.066v0c0-0.589-0.478-1.066-1.066-1.066v0zM23.2 21.066c0 0 0 0 0 0-1.994 0-3.732 1.094-4.647 2.714l-0.014 0.026c-0.087 0.151-0.139 0.333-0.139 0.526 0 0.393 0.213 0.736 0.529 0.922l0.005 0.002c0.15 0.086 0.33 0.138 0.522 0.138v0c0.396-0.001 0.742-0.218 0.926-0.538l0.002-0.006c0.556-0.993 1.602-1.654 2.802-1.654 0.005 0 0.010 0 0.015 0h-0.001c0.589 0 1.066-0.478 1.066-1.066s-0.478-1.066-1.066-1.066v0zM23.2 16.8c-0.589 0-1.066 0.478-1.066 1.066s0.478 1.066 1.066 1.066c0.589 0 1.066-0.478 1.066-1.066v0c0-0.589-0.478-1.066-1.066-1.066v0zM20 9.334c-5.891 0-10.666 4.776-10.666 10.666s4.776 10.666 10.666 10.666c5.891 0 10.666-4.776 10.666-10.666v0c0-5.891-4.776-10.666-10.666-10.666v0zM20 28.534c-4.713 0-8.534-3.821-8.534-8.534s3.821-8.534 8.534-8.534c4.713 0 8.534 3.821 8.534 8.534v0c0 4.713-3.821 8.534-8.534 8.534v0z"></path>
</svg>
