<!-- Generated by IcoMoon.io -->
<svg version="1.1" xmlns="http://www.w3.org/2000/svg" width="40" height="40" viewBox="0 0 40 40">
<title>ul-adjust-half</title>
<path fill="#ebebeb" d="M29.418 15.008v0c-0.886-1.635-2.128-2.976-3.628-3.954l-0.042-0.026c-1.631-1.063-3.627-1.696-5.771-1.696-5.891 0-10.666 4.776-10.666 10.666s4.776 10.666 10.666 10.666c0.008 0 0.015 0 0.023 0h0.308c5.754-0.175 10.352-4.882 10.352-10.662 0-1.828-0.46-3.55-1.27-5.054l0.028 0.057zM18.934 28.458c-4.203-0.576-7.407-4.143-7.407-8.458s3.204-7.883 7.362-8.454l0.045-0.005zM21.066 11.542c0.988 0.129 1.884 0.407 2.706 0.812l-0.050-0.022-2.656 4.598zM21.066 21.142l4.448-7.648c0.65 0.561 1.208 1.203 1.665 1.917l0.021 0.035-6.134 10.624zM22.294 28.16l5.962-10.294c0.172 0.639 0.273 1.374 0.278 2.131v0.002c-0.003 3.894-2.614 7.178-6.18 8.198l-0.060 0.014z"></path>
</svg>
