<!-- Generated by IcoMoon.io -->
<svg version="1.1" xmlns="http://www.w3.org/2000/svg" width="40" height="40" viewBox="0 0 40 40">
<title>ul-ankh</title>
<path fill="#ebebeb" d="M26.4 20h-3.296c1.358-1.371 2.204-3.251 2.23-5.329v-0.005c0-2.946-2.388-5.334-5.334-5.334s-5.334 2.388-5.334 5.334v0c0.026 2.082 0.872 3.962 2.23 5.334l-0.001-0.001h-3.296c-0.589 0-1.066 0.478-1.066 1.066s0.478 1.066 1.066 1.066v0h5.334v7.466c0 0.589 0.478 1.066 1.066 1.066s1.066-0.478 1.066-1.066v0-7.466h5.334c0.589 0 1.066-0.478 1.066-1.066s-0.478-1.066-1.066-1.066v0zM20 19.83c-0.992-0.662-3.2-2.41-3.2-5.162 0-1.767 1.433-3.2 3.2-3.2s3.2 1.433 3.2 3.2v0c0 2.752-2.208 4.512-3.2 5.162z"></path>
</svg>
