<!-- Generated by IcoMoon.io -->
<svg version="1.1" xmlns="http://www.w3.org/2000/svg" width="40" height="40" viewBox="0 0 40 40">
<title>ul-asterisk</title>
<path fill="#ebebeb" d="M26.999 22.81l-4.866-2.81 4.866-2.81c0.321-0.188 0.533-0.531 0.533-0.924 0-0.589-0.478-1.067-1.067-1.067-0.196 0-0.38 0.053-0.538 0.146l0.005-0.002-4.866 2.81v-5.619c0-0.589-0.478-1.066-1.066-1.066s-1.066 0.478-1.066 1.066v0 5.619l-4.866-2.81c-0.153-0.090-0.337-0.142-0.533-0.142-0.589 0-1.067 0.478-1.067 1.067 0 0.393 0.212 0.736 0.528 0.921l0.005 0.002 4.866 2.81-4.866 2.81c-0.321 0.188-0.533 0.531-0.533 0.924 0 0.589 0.478 1.067 1.067 1.067 0.196 0 0.38-0.053 0.538-0.146l-0.005 0.002 4.866-2.81v5.619c0 0.589 0.478 1.066 1.066 1.066s1.066-0.478 1.066-1.066v0-5.619l4.866 2.81c0.153 0.090 0.337 0.142 0.533 0.142 0.589 0 1.067-0.478 1.067-1.067 0-0.393-0.212-0.736-0.528-0.921l-0.005-0.002z"></path>
</svg>
