<!-- Generated by IcoMoon.io -->
<svg version="1.1" xmlns="http://www.w3.org/2000/svg" width="40" height="40" viewBox="0 0 40 40">
<title>ul-align-alt</title>
<path fill="#ebebeb" d="M17.866 18.934h-7.466c-0.589 0-1.066 0.478-1.066 1.066s0.478 1.066 1.066 1.066v0h7.466c0.589 0 1.066-0.478 1.066-1.066s-0.478-1.066-1.066-1.066v0zM17.866 27.466h-7.466c-0.589 0-1.066 0.478-1.066 1.066s0.478 1.066 1.066 1.066v0h7.466c0.589 0 1.066-0.478 1.066-1.066s-0.478-1.066-1.066-1.066v0zM22.134 12.534h7.466c0.589 0 1.066-0.478 1.066-1.066s-0.478-1.066-1.066-1.066v0h-7.466c-0.589 0-1.066 0.478-1.066 1.066s0.478 1.066 1.066 1.066v0zM17.866 14.666h-7.466c-0.589 0-1.066 0.478-1.066 1.066s0.478 1.066 1.066 1.066v0h7.466c0.589 0 1.066-0.478 1.066-1.066s-0.478-1.066-1.066-1.066v0zM17.866 23.2h-7.466c-0.589 0-1.066 0.478-1.066 1.066s0.478 1.066 1.066 1.066v0h7.466c0.589 0 1.066-0.478 1.066-1.066s-0.478-1.066-1.066-1.066v0zM17.866 10.4h-3.2c-0.589 0-1.066 0.478-1.066 1.066s0.478 1.066 1.066 1.066v0h3.2c0.589 0 1.066-0.478 1.066-1.066s-0.478-1.066-1.066-1.066v0zM29.6 14.666h-7.466c-0.589 0-1.066 0.478-1.066 1.066s0.478 1.066 1.066 1.066v0h7.466c0.589 0 1.066-0.478 1.066-1.066s-0.478-1.066-1.066-1.066v0zM29.6 18.934h-7.466c-0.589 0-1.066 0.478-1.066 1.066s0.478 1.066 1.066 1.066v0h7.466c0.589 0 1.066-0.478 1.066-1.066s-0.478-1.066-1.066-1.066v0zM25.334 27.466h-3.2c-0.589 0-1.066 0.478-1.066 1.066s0.478 1.066 1.066 1.066v0h3.2c0.589 0 1.066-0.478 1.066-1.066s-0.478-1.066-1.066-1.066v0zM29.6 23.2h-7.466c-0.589 0-1.066 0.478-1.066 1.066s0.478 1.066 1.066 1.066v0h7.466c0.589 0 1.066-0.478 1.066-1.066s-0.478-1.066-1.066-1.066v0z"></path>
</svg>
