<!-- Generated by IcoMoon.io -->
<svg version="1.1" xmlns="http://www.w3.org/2000/svg" width="40" height="40" viewBox="0 0 40 40">
<title>ul-angle-up</title>
<path fill="#ebebeb" d="M25.334 21.504l-4.576-4.522c-0.194-0.195-0.462-0.315-0.758-0.315s-0.564 0.121-0.758 0.315l-4.522 4.522c-0.195 0.194-0.315 0.462-0.315 0.758s0.121 0.564 0.315 0.758v0c0.193 0.192 0.458 0.31 0.752 0.31s0.559-0.118 0.752-0.31l3.776-3.776 3.776 3.776c0.192 0.19 0.455 0.308 0.746 0.31v0c0.002 0 0.004 0 0.006 0 0.293 0 0.558-0.118 0.751-0.31v0c0.211-0.195 0.343-0.474 0.343-0.784 0-0.283-0.11-0.541-0.29-0.731l0.001 0.001z"></path>
</svg>
