<!-- Generated by IcoMoon.io -->
<svg version="1.1" xmlns="http://www.w3.org/2000/svg" width="40" height="40" viewBox="0 0 40 40">
<title>ul-apple</title>
<path fill="#ebebeb" d="M23.136 12.736c0.71-0.815 1.143-1.888 1.143-3.062 0-0.12-0.005-0.239-0.014-0.357l0.001 0.016c-1.283 0.106-2.408 0.71-3.195 1.615l-0.005 0.006c-0.673 0.775-1.083 1.794-1.083 2.91 0 0.136 0.006 0.27 0.018 0.404l-0.002-0.017c0.010 0 0.022 0 0.033 0 1.257 0 2.376-0.589 3.097-1.506l0.006-0.009zM25.824 20.672c0.015-1.714 0.925-3.212 2.283-4.052l0.021-0.012c-0.876-1.25-2.288-2.073-3.895-2.133h-0.009c-1.664-0.17-3.2 0.97-4.086 0.97s-2.134-0.95-3.52-0.928c-1.896 0.065-3.53 1.125-4.402 2.673l-0.014 0.026c-1.878 3.264-0.48 8.118 1.398 10.752 0.854 1.29 1.92 2.752 3.328 2.698s1.866-0.874 3.498-0.874 2.134 0.874 3.52 0.842 2.368-1.322 3.264-2.614c0.6-0.874 1.1-1.882 1.449-2.957l0.023-0.083c-1.69-0.734-2.851-2.385-2.858-4.308v-0.001z"></path>
</svg>
