<!-- Generated by IcoMoon.io -->
<svg version="1.1" xmlns="http://www.w3.org/2000/svg" width="40" height="40" viewBox="0 0 40 40">
<title>ul-award-alt</title>
<path fill="#ebebeb" d="M20 8.266c-4.12 0.006-7.458 3.346-7.458 7.466 0 2.030 0.81 3.871 2.126 5.218l-0.002-0.002v9.718c0.002 0.588 0.478 1.063 1.066 1.063 0.175 0 0.34-0.042 0.486-0.117l-0.006 0.003 3.786-1.888 3.786 1.888c0.139 0.073 0.305 0.116 0.48 0.118v0c0.001 0 0.002 0 0.003 0 0.208 0 0.402-0.059 0.566-0.162l-0.005 0.002c0.303-0.192 0.502-0.525 0.502-0.905 0-0.001 0-0.002 0-0.002v0-9.718c1.314-1.345 2.124-3.186 2.124-5.216 0-4.121-3.338-7.462-7.457-7.466h-0.001zM23.2 28.938l-2.72-1.354c-0.14-0.072-0.305-0.114-0.48-0.114s-0.34 0.042-0.486 0.117l-2.714 1.351v-6.464c0.619 0.3 1.338 0.524 2.093 0.635l0.041 0.005v1.152c0 0.589 0.478 1.066 1.066 1.066s1.066-0.478 1.066-1.066v0-1.152c0.796-0.116 1.514-0.34 2.178-0.659l-0.045 0.019zM20 21.066c-2.946 0-5.334-2.388-5.334-5.334s2.388-5.334 5.334-5.334c2.946 0 5.334 2.388 5.334 5.334v0c0 2.946-2.388 5.334-5.334 5.334v0z"></path>
</svg>
