<!-- Generated by IcoMoon.io -->
<svg version="1.1" xmlns="http://www.w3.org/2000/svg" width="40" height="40" viewBox="0 0 40 40">
<title>ul-android-phone-slash</title>
<path fill="#ebebeb" d="M19.242 26.090c0.194 0.195 0.462 0.315 0.758 0.315s0.564-0.121 0.758-0.315v0c0.091-0.1 0.166-0.217 0.221-0.344l0.003-0.008c0.054-0.119 0.086-0.258 0.086-0.406s-0.031-0.286-0.088-0.412l0.002 0.006c-0.058-0.135-0.133-0.252-0.225-0.353l0.001 0.001c-0.194-0.195-0.462-0.315-0.758-0.315s-0.564 0.121-0.758 0.315v0c-0.091 0.1-0.166 0.217-0.221 0.344l-0.003 0.008c-0.054 0.119-0.086 0.258-0.086 0.406s0.031 0.286 0.088 0.412l-0.002-0.006c0.058 0.135 0.133 0.252 0.225 0.353l-0.001-0.001zM16.438 11.466h7.83c0.589 0 1.066 0.478 1.066 1.066v0 7.83c0 0.589 0.478 1.066 1.066 1.066s1.066-0.478 1.066-1.066v0-7.83c0-1.767-1.433-3.2-3.2-3.2v0h-7.83c-0.589 0-1.066 0.478-1.066 1.066s0.478 1.066 1.066 1.066v0zM30.358 28.842l-19.2-19.2c-0.194-0.194-0.462-0.314-0.758-0.314-0.591 0-1.071 0.479-1.071 1.071 0 0.296 0.12 0.563 0.314 0.758v0l2.89 2.88v13.43c0 1.767 1.433 3.2 3.2 3.2v0h8.534c1.315-0.001 2.445-0.796 2.936-1.931l0.008-0.021 1.632 1.642c0.194 0.195 0.462 0.315 0.758 0.315s0.564-0.121 0.758-0.315v0c0.195-0.194 0.315-0.462 0.315-0.758s-0.121-0.564-0.315-0.758v0zM25.334 27.466c0 0.589-0.478 1.066-1.066 1.066v0h-8.534c-0.589 0-1.066-0.478-1.066-1.066v0-11.296l10.666 10.666z"></path>
</svg>
