<!-- Generated by IcoMoon.io -->
<svg version="1.1" xmlns="http://www.w3.org/2000/svg" width="40" height="40" viewBox="0 0 40 40">
<title>ul-adjust-circle</title>
<path fill="#ebebeb" d="M25.334 14.666c-1.224-3.125-4.212-5.297-7.707-5.297-4.56 0-8.256 3.696-8.256 8.256 0 3.495 2.172 6.484 5.241 7.688l0.056 0.019c1.224 3.125 4.212 5.297 7.707 5.297 4.56 0 8.256-3.696 8.256-8.256 0-3.495-2.172-6.484-5.241-7.688l-0.056-0.019zM23.626 16.374c0.074 0.365 0.116 0.786 0.118 1.215v0.001c-0.002 0.508-0.065 1.001-0.179 1.473l0.009-0.043-2.602-2.582c0.429-0.106 0.921-0.168 1.428-0.17h0.002c0.43 0.001 0.851 0.044 1.258 0.124l-0.042-0.007zM22.624 21.066c-0.432 0.61-0.948 1.126-1.538 1.544l-0.020 0.014-3.69-3.69c0.432-0.61 0.948-1.126 1.538-1.544l0.020-0.014zM14.090 22.624c-1.606-1.122-2.644-2.962-2.644-5.044 0-3.387 2.746-6.134 6.134-6.134 2.082 0 3.922 1.038 5.031 2.624l0.013 0.020h-0.266c-4.549 0.030-8.224 3.725-8.224 8.277 0 0.011 0 0.022 0 0.034v-0.002c0 0.086 0.010 0.182 0.010 0.266zM16.33 23.574c-0.074-0.365-0.116-0.786-0.118-1.215v-0.001c0.002-0.508 0.065-1.001 0.179-1.473l-0.009 0.043 2.592 2.592c-0.429 0.106-0.921 0.168-1.428 0.17h-0.002c-0.049 0.002-0.106 0.002-0.165 0.002-0.352 0-0.698-0.028-1.035-0.082l0.037 0.005zM22.4 28.534c-2.095-0.004-3.945-1.054-5.054-2.657l-0.014-0.021h0.266c4.559-0.006 8.254-3.698 8.266-8.255v-0.001c0-0.086 0-0.182 0-0.266 1.625 1.12 2.677 2.97 2.677 5.066 0 3.387-2.746 6.134-6.134 6.134-0.004 0-0.007 0-0.011 0h0.001z"></path>
</svg>
