<!-- Generated by IcoMoon.io -->
<svg version="1.1" xmlns="http://www.w3.org/2000/svg" width="40" height="40" viewBox="0 0 40 40">
<title>ul-bolt-alt</title>
<path fill="#ebebeb" d="M28.416 17.386c-0.179-0.35-0.537-0.586-0.949-0.586h-5.334v-6.4c0.001-0.015 0.002-0.034 0.002-0.052 0-0.471-0.306-0.871-0.73-1.012l-0.007-0.002c-0.099-0.034-0.214-0.054-0.334-0.054-0.353 0-0.665 0.171-0.859 0.434l-0.002 0.003-8.534 11.734c-0.118 0.17-0.19 0.38-0.19 0.607 0 0.167 0.038 0.326 0.107 0.466l-0.002-0.006c0.153 0.389 0.517 0.663 0.947 0.682h5.336v6.4c0 0.47 0.306 0.87 0.729 1.011l0.007 0.002c0.098 0.032 0.212 0.051 0.33 0.054h0.001c0.001 0 0.002 0 0.002 0 0.353 0 0.665-0.171 0.859-0.434l0.002-0.003 8.534-11.734c0.126-0.173 0.202-0.39 0.202-0.625 0-0.177-0.043-0.344-0.119-0.491l0.003 0.006zM20 26.314v-4.182c0-0.589-0.478-1.066-1.066-1.066v0h-4.266l5.334-7.382v4.182c0 0.589 0.478 1.066 1.066 1.066v0h4.266z"></path>
</svg>
