<!-- Generated by IcoMoon.io -->
<svg version="1.1" xmlns="http://www.w3.org/2000/svg" width="40" height="40" viewBox="0 0 40 40">
<title>ul-border-out</title>
<path fill="#ebebeb" d="M20 16.8c0.589 0 1.066-0.478 1.066-1.066s-0.478-1.066-1.066-1.066c-0.589 0-1.066 0.478-1.066 1.066v0c0 0.589 0.478 1.066 1.066 1.066v0zM20 21.066c0.589 0 1.066-0.478 1.066-1.066s-0.478-1.066-1.066-1.066c-0.589 0-1.066 0.478-1.066 1.066v0c0 0.589 0.478 1.066 1.066 1.066v0zM24.266 21.066c0.589 0 1.066-0.478 1.066-1.066s-0.478-1.066-1.066-1.066c-0.589 0-1.066 0.478-1.066 1.066v0c0 0.589 0.478 1.066 1.066 1.066v0zM20 25.334c0.589 0 1.066-0.478 1.066-1.066s-0.478-1.066-1.066-1.066c-0.589 0-1.066 0.478-1.066 1.066v0c0 0.589 0.478 1.066 1.066 1.066v0zM28.534 10.4h-17.066c-0.589 0-1.066 0.478-1.066 1.066v0 17.066c0 0.589 0.478 1.066 1.066 1.066v0h17.066c0.589 0 1.066-0.478 1.066-1.066v0-17.066c0-0.589-0.478-1.066-1.066-1.066v0zM27.466 27.466h-14.934v-14.934h14.934zM15.734 21.066c0.589 0 1.066-0.478 1.066-1.066s-0.478-1.066-1.066-1.066c-0.589 0-1.066 0.478-1.066 1.066v0c0 0.589 0.478 1.066 1.066 1.066v0z"></path>
</svg>
