<!-- Generated by IcoMoon.io -->
<svg version="1.1" xmlns="http://www.w3.org/2000/svg" width="40" height="40" viewBox="0 0 40 40">
<title>ul-blogger-alt</title>
<path fill="#ebebeb" d="M22.124 21.067h-4.266c-0.589 0-1.066 0.478-1.066 1.066s0.478 1.066 1.066 1.066v0h4.266c0.589 0 1.066-0.478 1.066-1.066s-0.478-1.066-1.066-1.066v0zM17.858 18.934h1.066c0.589 0 1.066-0.478 1.066-1.066s-0.478-1.066-1.066-1.066v0h-1.066c-0.589 0-1.066 0.478-1.066 1.066s0.478 1.066 1.066 1.066v0zM24.258 17.866v-1.066c-0.002-2.355-1.911-4.264-4.266-4.266h-2.134c-2.944 0.003-5.33 2.39-5.334 5.333v4.267c0.003 2.944 2.39 5.33 5.333 5.334h4.267c2.944-0.003 5.33-2.39 5.334-5.333v-1.067c-0.002-1.766-1.434-3.198-3.2-3.201v0zM24.258 17.867v0.001l-1.066-0.001zM25.324 22.134c-0.002 1.766-1.434 3.198-3.2 3.2h-4.267c-1.766-0.002-3.198-1.434-3.2-3.2v-4.267c0.002-1.766 1.434-3.198 3.2-3.2h2.134c1.178 0.002 2.132 0.956 2.134 2.133v1.067c0.002 1.178 0.956 2.132 2.133 2.134v0c0.589 0.001 1.066 0.478 1.066 1.066v0zM28.524 8.267h-17.066c-1.766 0.002-3.198 1.434-3.2 3.2v17.067c0.002 1.766 1.434 3.198 3.2 3.2h17.067c1.766-0.002 3.198-1.434 3.2-3.2v-17.067c-0.002-1.766-1.434-3.198-3.2-3.2v0zM29.59 28.534c-0.001 0.589-0.478 1.066-1.066 1.066h-17.066c-0.589-0.001-1.066-0.478-1.066-1.066v-17.066c0.001-0.589 0.478-1.066 1.066-1.066h17.066c0.589 0.001 1.066 0.478 1.066 1.066v0z"></path>
</svg>
