<!-- Generated by IcoMoon.io -->
<svg version="1.1" xmlns="http://www.w3.org/2000/svg" width="40" height="40" viewBox="0 0 40 40">
<title>ul-battery-bolt</title>
<path fill="#ebebeb" d="M14.336 23.2h-2.87v-6.4h2.464c0.589 0 1.066-0.478 1.066-1.066s-0.478-1.066-1.066-1.066v0h-2.464c-1.178 0-2.134 0.955-2.134 2.134v0 6.4c0 1.178 0.955 2.134 2.134 2.134v0h2.87c0.589 0 1.066-0.478 1.066-1.066s-0.478-1.066-1.066-1.066v0zM22.016 20.47c0.023-0.053 0.045-0.117 0.062-0.182l0.002-0.010c0.002-0.032 0.004-0.069 0.004-0.106s-0.002-0.074-0.004-0.111v0.005s0 0 0-0.064 0-0.086 0-0.128c-0.007-0.078-0.026-0.151-0.055-0.218l0.002 0.005c-0.025-0.070-0.054-0.13-0.088-0.186l0.002 0.004c-0.032-0.065-0.067-0.121-0.108-0.173l0.002 0.002-0.17-0.138-0.096-0.096h-0.064l-0.192-0.064h-3.734l1.546-2.666c0.090-0.153 0.142-0.337 0.142-0.534 0-0.591-0.479-1.070-1.070-1.070-0.395 0-0.74 0.214-0.926 0.532l-0.002 0.005-2.464 4.266s0 0 0 0.064c-0.023 0.053-0.045 0.117-0.062 0.182l-0.002 0.010c-0.002 0.032-0.004 0.069-0.004 0.106s0.002 0.074 0.004 0.111v-0.005s-0.074-0.010-0.074-0.010 0 0.086 0 0.128c0.007 0.078 0.026 0.151 0.055 0.218l-0.002-0.005c0.025 0.070 0.054 0.13 0.088 0.186l-0.002-0.004c0.032 0.065 0.067 0.121 0.108 0.173l-0.002-0.002 0.17 0.138c0.030 0.035 0.061 0.066 0.095 0.095l0.001 0.001h0.17c0.11 0.067 0.24 0.116 0.378 0.138l0.006 0.001h3.488l-1.546 2.666c-0.090 0.153-0.142 0.337-0.142 0.534 0 0.591 0.479 1.070 1.070 1.070 0.395 0 0.74-0.214 0.926-0.532l0.002-0.005 2.464-4.266s0.010-0.042 0.022-0.064zM29.6 17.866c-0.589 0-1.066 0.478-1.066 1.066v0 2.134c0 0.589 0.478 1.066 1.066 1.066s1.066-0.478 1.066-1.066v0-2.134c0-0.589-0.478-1.066-1.066-1.066v0zM25.334 14.666h-2.87c-0.589 0-1.066 0.478-1.066 1.066s0.478 1.066 1.066 1.066v0h2.87v6.4h-2.464c-0.589 0-1.066 0.478-1.066 1.066s0.478 1.066 1.066 1.066v0h2.464c1.178 0 2.134-0.955 2.134-2.134v0-6.4c0-1.178-0.955-2.134-2.134-2.134v0z"></path>
</svg>
