<!-- Generated by IcoMoon.io -->
<svg version="1.1" xmlns="http://www.w3.org/2000/svg" width="40" height="40" viewBox="0 0 40 40">
<title>ul-bookmark-full</title>
<path fill="#ebebeb" d="M26.4 9.334h-12.8c-0.589 0-1.066 0.478-1.066 1.066v0 19.2c0 0 0 0 0 0 0 0.589 0.478 1.066 1.066 1.066 0.266 0 0.508-0.097 0.694-0.258l5.706-4.788 5.642 4.736c0.193 0.191 0.458 0.31 0.751 0.31 0.002 0 0.004 0 0.006 0v0c0.007 0 0.015 0 0.023 0 0.139 0 0.27-0.031 0.388-0.088l-0.006 0.002c0.39-0.163 0.659-0.541 0.662-0.981v-19.2c0-0.589-0.478-1.066-1.066-1.066v0zM25.334 27.318l-4.65-3.904c-0.183-0.154-0.422-0.247-0.682-0.247s-0.499 0.094-0.684 0.249l0.002-0.002-4.65 3.904v-15.85h10.666z"></path>
</svg>
