<!-- Generated by IcoMoon.io -->
<svg version="1.1" xmlns="http://www.w3.org/2000/svg" width="40" height="40" viewBox="0 0 40 40">
<title>ul-bed-double</title>
<path fill="#ebebeb" d="M28.534 10.934h-17.066c-1.767 0-3.2 1.433-3.2 3.2v0 13.866c0 0.589 0.478 1.066 1.066 1.066v0h4.266c0.369-0.002 0.693-0.19 0.883-0.476l0.002-0.004 1.824-2.72h7.382l1.824 2.72c0.193 0.29 0.517 0.478 0.885 0.48h4.267c0.589 0 1.066-0.478 1.066-1.066v0-13.866c0-1.767-1.433-3.2-3.2-3.2v0zM29.6 26.934h-2.624l-1.824-2.666c-0.182-0.31-0.507-0.519-0.883-0.534h-8.535c-0.369 0.002-0.693 0.19-0.883 0.476l-0.002 0.004-1.824 2.72h-2.624v-5.334h19.2zM14.666 19.466v-1.066c0-0.589 0.478-1.066 1.066-1.066v0h2.134c0.589 0 1.066 0.478 1.066 1.066v0 1.066zM21.066 19.466v-1.066c0-0.589 0.478-1.066 1.066-1.066v0h2.134c0.589 0 1.066 0.478 1.066 1.066v0 1.066zM29.6 19.466h-2.134v-1.066c0-1.767-1.433-3.2-3.2-3.2v0h-2.134c-0.823 0.005-1.572 0.32-2.136 0.834l0.002-0.002c-0.562-0.512-1.31-0.827-2.132-0.832h-2.134c-1.767 0-3.2 1.433-3.2 3.2v0 1.066h-2.134v-5.334c0-0.589 0.478-1.066 1.066-1.066v0h17.066c0.589 0 1.066 0.478 1.066 1.066v0z"></path>
</svg>
