<!-- Generated by IcoMoon.io -->
<svg version="1.1" xmlns="http://www.w3.org/2000/svg" width="40" height="40" viewBox="0 0 40 40">
<title>ul-credit-card-search</title>
<path fill="#ebebeb" d="M28.534 25.942c0.422-0.681 0.671-1.506 0.671-2.39 0-2.533-2.054-4.586-4.586-4.586s-4.586 2.054-4.586 4.586c0 2.533 2.054 4.586 4.586 4.586 0 0 0 0 0.001 0v0c0.883-0.004 1.708-0.254 2.41-0.683l-0.020 0.011 1.834 1.846c0.194 0.195 0.462 0.315 0.758 0.315s0.564-0.121 0.758-0.315v0c0.195-0.194 0.315-0.462 0.315-0.758s-0.121-0.564-0.315-0.758v0zM26.4 25.334c-0.453 0.432-1.067 0.698-1.744 0.698s-1.291-0.266-1.745-0.699l0.001 0.001c-0.444-0.447-0.719-1.063-0.719-1.744s0.274-1.297 0.719-1.744v0c0.446-0.447 1.062-0.723 1.744-0.723s1.298 0.277 1.744 0.723v0c0.444 0.447 0.719 1.063 0.719 1.744s-0.274 1.297-0.719 1.744v0zM27.466 10.4h-14.934c-1.767 0-3.2 1.433-3.2 3.2v0 9.6c0 1.767 1.433 3.2 3.2 3.2v0h4.266c0.589 0 1.066-0.478 1.066-1.066s-0.478-1.066-1.066-1.066v0h-4.266c-0.589 0-1.066-0.478-1.066-1.066v0-6.4h17.066v1.066c0 0.589 0.478 1.066 1.066 1.066s1.066-0.478 1.066-1.066v0-4.266c0-1.767-1.433-3.2-3.2-3.2v0zM28.534 14.666h-17.066v-1.066c0-0.589 0.478-1.066 1.066-1.066v0h14.934c0.589 0 1.066 0.478 1.066 1.066v0zM17.866 18.934h-3.2c-0.589 0-1.066 0.478-1.066 1.066s0.478 1.066 1.066 1.066v0h3.2c0.589 0 1.066-0.478 1.066-1.066s-0.478-1.066-1.066-1.066v0z"></path>
</svg>
