<!-- Generated by IcoMoon.io -->
<svg version="1.1" xmlns="http://www.w3.org/2000/svg" width="40" height="40" viewBox="0 0 40 40">
<title>ul-check-square</title>
<path fill="#ebebeb" d="M18.090 22.934c0.194 0.195 0.462 0.315 0.758 0.315s0.564-0.121 0.758-0.315l4.352-4.352c0.194-0.194 0.314-0.462 0.314-0.758 0-0.591-0.479-1.071-1.071-1.071-0.296 0-0.563 0.12-0.758 0.314v0l-3.594 3.606-1.29-1.302c-0.194-0.194-0.462-0.314-0.758-0.314-0.591 0-1.071 0.479-1.071 1.071 0 0.296 0.12 0.563 0.314 0.758v0zM29.6 9.334h-19.2c-0.589 0-1.066 0.478-1.066 1.066v0 19.2c0 0.589 0.478 1.066 1.066 1.066v0h19.2c0.589 0 1.066-0.478 1.066-1.066v0-19.2c0-0.589-0.478-1.066-1.066-1.066v0zM28.534 28.534h-17.066v-17.066h17.066z"></path>
</svg>
