<!-- Generated by IcoMoon.io -->
<svg version="1.1" xmlns="http://www.w3.org/2000/svg" width="40" height="40" viewBox="0 0 40 40">
<title>ul-clock-five</title>
<path fill="#ebebeb" d="M20 9.334c-5.891 0-10.666 4.776-10.666 10.666s4.776 10.666 10.666 10.666c5.891 0 10.666-4.776 10.666-10.666v0c-0.007-5.888-4.778-10.66-10.666-10.666h-0.001zM20 28.534c-4.713 0-8.534-3.821-8.534-8.534s3.821-8.534 8.534-8.534c4.713 0 8.534 3.821 8.534 8.534v0c-0.006 4.71-3.822 8.528-8.533 8.534h-0.001zM21.066 19.732v-5.066c0-0.589-0.478-1.066-1.066-1.066s-1.066 0.478-1.066 1.066v0 5.334c0 0.184 0.047 0.358 0.129 0.51l-0.003-0.006 1.6 2.986c0.183 0.338 0.536 0.563 0.941 0.563 0.59 0 1.067-0.478 1.067-1.067 0-0.185-0.047-0.358-0.129-0.51l0.003 0.006z"></path>
</svg>
