<!-- Generated by IcoMoon.io -->
<svg version="1.1" xmlns="http://www.w3.org/2000/svg" width="40" height="40" viewBox="0 0 40 40">
<title>ul-comments-alt</title>
<path fill="#ebebeb" d="M27.466 15.734h-1.066v-3.2c0-1.767-1.433-3.2-3.2-3.2v0h-10.666c-1.767 0-3.2 1.433-3.2 3.2v0 12.8c0.002 0.441 0.271 0.818 0.654 0.978l0.007 0.002c0.112 0.054 0.243 0.086 0.382 0.086 0.008 0 0.016 0 0.024 0h-0.001c0.002 0 0.004 0 0.006 0 0.293 0 0.558-0.118 0.751-0.31v0l2.998-3.008h1.578v1.536c0 1.767 1.433 3.2 3.2 3.2v0h7.382l2.528 2.538c0.193 0.191 0.458 0.31 0.751 0.31 0.002 0 0.004 0 0.006 0v0c0.007 0 0.015 0 0.023 0 0.139 0 0.27-0.031 0.388-0.088l-0.006 0.002c0.39-0.163 0.659-0.541 0.662-0.981v-10.667c0-1.767-1.433-3.2-3.2-3.2v0zM15.734 18.934v2.016h-2.016c-0.002 0-0.004 0-0.006 0-0.293 0-0.558 0.118-0.751 0.31v0l-1.494 1.504v-10.23c0-0.589 0.478-1.066 1.066-1.066v0h10.666c0.589 0 1.066 0.478 1.066 1.066v0 3.2h-5.334c-1.767 0-3.2 1.433-3.2 3.2v0zM28.534 27.030l-1.066-1.066c-0.193-0.197-0.461-0.318-0.757-0.32h-7.776c-0.589 0-1.066-0.478-1.066-1.066v0-5.642c0-0.589 0.478-1.066 1.066-1.066v0h8.534c0.589 0 1.066 0.478 1.066 1.066v0z"></path>
</svg>
