<!-- Generated by IcoMoon.io -->
<svg version="1.1" xmlns="http://www.w3.org/2000/svg" width="40" height="40" viewBox="0 0 40 40">
<title>ul-calculator-alt</title>
<path fill="#ebebeb" d="M13.066 15.734h0.534v0.534c0 0.589 0.478 1.066 1.066 1.066s1.066-0.478 1.066-1.066v0-0.534h0.534c0.589 0 1.066-0.478 1.066-1.066s-0.478-1.066-1.066-1.066v0h-0.534v-0.534c0-0.589-0.478-1.066-1.066-1.066s-1.066 0.478-1.066 1.066v0 0.534h-0.534c-0.589 0-1.066 0.478-1.066 1.066s0.478 1.066 1.066 1.066v0zM12.406 27.594c0.193 0.192 0.458 0.31 0.752 0.31s0.559-0.118 0.752-0.31l0.758-0.758 0.758 0.758c0.193 0.192 0.458 0.31 0.752 0.31s0.559-0.118 0.752-0.31v0c0.192-0.193 0.31-0.458 0.31-0.752s-0.118-0.559-0.31-0.752l-0.758-0.758 0.758-0.758c0.159-0.186 0.257-0.428 0.257-0.694 0-0.589-0.478-1.066-1.066-1.066-0.266 0-0.509 0.097-0.695 0.258l0.002-0.001-0.758 0.758-0.758-0.758c-0.186-0.159-0.428-0.257-0.694-0.257-0.589 0-1.066 0.478-1.066 1.066 0 0.266 0.097 0.509 0.258 0.695l-0.001-0.002 0.758 0.758-0.758 0.758c-0.192 0.193-0.31 0.458-0.31 0.752s0.118 0.559 0.31 0.752v0zM28.534 8.266h-17.066c-1.767 0-3.2 1.433-3.2 3.2v0 17.066c0 1.767 1.433 3.2 3.2 3.2v0h17.066c1.767 0 3.2-1.433 3.2-3.2v0-17.066c0-1.767-1.433-3.2-3.2-3.2v0zM18.934 29.6h-7.466c-0.589 0-1.066-0.478-1.066-1.066v0-7.466h8.534zM18.934 18.934h-8.534v-7.466c0-0.589 0.478-1.066 1.066-1.066v0h7.466zM29.6 28.534c0 0.589-0.478 1.066-1.066 1.066v0h-7.466v-8.534h8.534zM29.6 18.934h-8.534v-8.534h7.466c0.589 0 1.066 0.478 1.066 1.066v0zM23.734 24.8h3.2c0.589 0 1.066-0.478 1.066-1.066s-0.478-1.066-1.066-1.066v0h-3.2c-0.589 0-1.066 0.478-1.066 1.066s0.478 1.066 1.066 1.066v0zM26.934 13.6h-3.2c-0.589 0-1.066 0.478-1.066 1.066s0.478 1.066 1.066 1.066v0h3.2c0.589 0 1.066-0.478 1.066-1.066s-0.478-1.066-1.066-1.066v0zM23.734 28h3.2c0.589 0 1.066-0.478 1.066-1.066s-0.478-1.066-1.066-1.066v0h-3.2c-0.589 0-1.066 0.478-1.066 1.066s0.478 1.066 1.066 1.066v0z"></path>
</svg>
