<!-- Generated by IcoMoon.io -->
<svg version="1.1" xmlns="http://www.w3.org/2000/svg" width="40" height="40" viewBox="0 0 40 40">
<title>ul-cloud-moon-meatball</title>
<path fill="#ebebeb" d="M30.346 15.734c-0.193-0.19-0.458-0.308-0.75-0.308-0.090 0-0.177 0.011-0.261 0.032l0.007-0.002c-0.207 0.051-0.446 0.082-0.691 0.086h-0.002c-1.767 0-3.2-1.433-3.2-3.2v0c0.003-0.251 0.034-0.494 0.090-0.726l-0.005 0.022c0.019-0.076 0.030-0.163 0.030-0.253 0-0.292-0.118-0.557-0.308-0.75v0c-0.194-0.199-0.465-0.323-0.765-0.323-0.081 0-0.159 0.009-0.234 0.026l0.007-0.002c-2.156 0.511-3.786 2.281-4.082 4.474l-0.003 0.027c-0.53-0.162-1.139-0.256-1.77-0.256-0.004 0-0.007 0-0.011 0h0.001c-0.003 0-0.007 0-0.012 0-3.188 0-5.832 2.331-6.319 5.382l-0.005 0.037c-1.589 0.461-2.731 1.903-2.731 3.612 0 0.013 0 0.025 0 0.038v-0.002c0.001 1.216 0.588 2.295 1.494 2.969l0.010 0.007c0.183 0.154 0.422 0.247 0.683 0.247 0.589 0 1.066-0.478 1.066-1.066 0-0.375-0.194-0.706-0.486-0.895l-0.004-0.002c-0.384-0.287-0.63-0.74-0.63-1.25 0-0.003 0-0.006 0-0.009v0.001c0-0.884 0.716-1.6 1.6-1.6v0c0.589 0 1.066-0.478 1.066-1.066v0c0.006-2.352 1.914-4.256 4.266-4.256 0.86 0 1.661 0.254 2.331 0.693l-0.016-0.010c0.773 0.504 1.358 1.238 1.666 2.104l0.009 0.029c0.129 0.366 0.442 0.637 0.826 0.703l0.006 0.001c1.188 0.202 2.081 1.222 2.081 2.452 0 1.018-0.612 1.894-1.489 2.278l-0.016 0.006c-0.382 0.168-0.645 0.543-0.645 0.979 0 0.155 0.033 0.302 0.093 0.435l-0.002-0.006c0.169 0.38 0.543 0.64 0.978 0.64 0.002 0 0.002 0 0.004 0v0c0.155-0.002 0.302-0.038 0.434-0.098l-0.006 0.002c1.646-0.73 2.774-2.35 2.774-4.234 0-0.011 0-0.023 0-0.034v0.002c0-0.007 0-0.016 0-0.026 0-0.771-0.194-1.498-0.534-2.132l0.012 0.024c1.858-0.503 3.288-1.95 3.758-3.782l0.008-0.037c0.012-0.061 0.019-0.13 0.019-0.202 0-0.308-0.13-0.585-0.338-0.779l-0.001-0.001zM25.45 18.742c-0.067 0.006-0.145 0.009-0.224 0.009s-0.157-0.003-0.234-0.010l0.010 0.001c-0.216-0.118-0.47-0.23-0.734-0.321l-0.034-0.010c-0.45-0.982-1.11-1.798-1.926-2.421l-0.015-0.011c0-0.128 0-0.266 0-0.394 0 0 0 0 0 0 0-0.971 0.433-1.842 1.116-2.428l0.004-0.003c0.353 2.334 2.177 4.154 4.482 4.498l0.030 0.003c-0.589 0.663-1.444 1.078-2.395 1.078-0.028 0-0.055 0-0.083-0.001h0.004zM20.534 25.248h-0.822l0.416-0.714c0.090-0.153 0.142-0.337 0.142-0.534 0-0.591-0.479-1.070-1.070-1.070-0.395 0-0.74 0.214-0.926 0.532l-0.002 0.005-0.406 0.714-0.406-0.714c-0.188-0.323-0.533-0.537-0.928-0.537-0.591 0-1.070 0.479-1.070 1.070 0 0.196 0.053 0.38 0.145 0.538l-0.002-0.005 0.416 0.714h-0.822c-0.589 0-1.066 0.478-1.066 1.066s0.478 1.066 1.066 1.066v0h0.822l-0.416 0.704c-0.090 0.153-0.142 0.337-0.142 0.534 0 0.591 0.479 1.070 1.070 1.070 0.395 0 0.74-0.214 0.926-0.532l0.002-0.005 0.406-0.704 0.406 0.704c0.188 0.323 0.533 0.537 0.928 0.537 0.591 0 1.070-0.479 1.070-1.070 0-0.196-0.053-0.38-0.145-0.538l0.002 0.005-0.416-0.704h0.822c0.589 0 1.066-0.478 1.066-1.066s-0.478-1.066-1.066-1.066v0z"></path>
</svg>
