<!-- Generated by IcoMoon.io -->
<svg version="1.1" xmlns="http://www.w3.org/2000/svg" width="40" height="40" viewBox="0 0 40 40">
<title>ul-comment-alt-verify</title>
<path fill="#ebebeb" d="M23.958 13.91l-5.654 5.654-2.262-2.262c-0.197-0.229-0.486-0.373-0.81-0.373-0.589 0-1.066 0.478-1.066 1.066 0 0.323 0.144 0.614 0.371 0.809l0.002 0.001 3.018 3.018c0.192 0.19 0.455 0.308 0.746 0.31v0c0.002 0 0.004 0 0.006 0 0.293 0 0.558-0.118 0.751-0.31l6.4-6.4c0.195-0.194 0.315-0.462 0.315-0.758s-0.121-0.564-0.315-0.758v0c-0.193-0.192-0.458-0.31-0.752-0.31s-0.559 0.118-0.752 0.31v0zM27.466 9.334h-14.934c-1.767 0-3.2 1.433-3.2 3.2v0 10.666c0 1.767 1.433 3.2 3.2 3.2v0h12.362l3.946 3.958c0.193 0.191 0.458 0.31 0.751 0.31 0.002 0 0.004 0 0.006 0v0c0.007 0 0.015 0 0.023 0 0.139 0 0.27-0.031 0.388-0.088l-0.006 0.002c0.39-0.163 0.659-0.541 0.662-0.981v-17.067c0-1.767-1.433-3.2-3.2-3.2v0zM28.534 27.030l-2.442-2.454c-0.193-0.191-0.458-0.31-0.751-0.31-0.002 0-0.004 0-0.006 0h-12.8c-0.589 0-1.066-0.478-1.066-1.066v0-10.666c0-0.589 0.478-1.066 1.066-1.066v0h14.934c0.589 0 1.066 0.478 1.066 1.066v0z"></path>
</svg>
