<!-- Generated by IcoMoon.io -->
<svg version="1.1" xmlns="http://www.w3.org/2000/svg" width="40" height="40" viewBox="0 0 40 40">
<title>ul-comment-alt-edit</title>
<path fill="#ebebeb" d="M26.934 13.066h-4.266c-0.589 0-1.066 0.478-1.066 1.066s0.478 1.066 1.066 1.066v0h4.266c0.589 0 1.066 0.478 1.066 1.066v0 10.368l-1.674-1.546c-0.19-0.178-0.445-0.287-0.725-0.288h-9.334c-0.589 0-1.066-0.478-1.066-1.066v0-1.066c0-0.589-0.478-1.066-1.066-1.066s-1.066 0.478-1.066 1.066v0 1.066c0 1.767 1.433 3.2 3.2 3.2v0h8.918l3.2 2.912c0.19 0.178 0.445 0.287 0.725 0.288v0c0.154-0.002 0.301-0.033 0.434-0.088l-0.008 0.003c0.38-0.169 0.64-0.543 0.64-0.978 0-0.002 0-0.002 0-0.004v0-12.8c0 0 0 0 0 0 0-1.767-1.433-3.2-3.2-3.2-0.015 0-0.030 0-0.045 0h0.002zM16.886 20.534h2.582c0.589 0 1.066-0.478 1.066-1.066v0-2.582c0-0.002 0-0.004 0-0.006 0-0.293-0.118-0.558-0.31-0.751l-5.952-5.952c-0.193-0.192-0.458-0.31-0.752-0.31s-0.559 0.118-0.752 0.31l-2.592 2.592c-0.192 0.193-0.31 0.458-0.31 0.752s0.118 0.559 0.31 0.752l5.952 5.952c0.193 0.191 0.458 0.31 0.751 0.31 0.002 0 0.004 0 0.006 0v0zM13.514 12.438l4.886 4.886v1.066h-1.066l-4.896-4.874z"></path>
</svg>
