<!-- Generated by IcoMoon.io -->
<svg version="1.1" xmlns="http://www.w3.org/2000/svg" width="40" height="40" viewBox="0 0 40 40">
<title>ul-chart-pie</title>
<path fill="#ebebeb" d="M20 9.334c-0.006 0-0.013 0-0.019 0-5.891 0-10.666 4.776-10.666 10.666s4.776 10.666 10.666 10.666c1.942 0 3.762-0.518 5.33-1.425l-0.051 0.027h0.128c3.242-1.871 5.39-5.32 5.39-9.27 0-5.891-4.776-10.666-10.666-10.666-0.038 0-0.077 0-0.115 0.001h0.006zM21.066 11.542c3.863 0.504 6.888 3.529 7.387 7.349l0.005 0.043h-7.392zM20 28.534c-4.688-0.033-8.475-3.841-8.475-8.533 0-4.316 3.205-7.884 7.364-8.454l0.045-0.005v8.458c0.005 0.135 0.031 0.263 0.078 0.382l-0.002-0.008v0.16l4.266 7.328c-0.966 0.424-2.091 0.671-3.274 0.672v0zM25.152 26.784l-3.306-5.718h6.614c-0.307 2.345-1.528 4.358-3.286 5.702l-0.021 0.015z"></path>
</svg>
