<!-- Generated by IcoMoon.io -->
<svg version="1.1" xmlns="http://www.w3.org/2000/svg" width="40" height="40" viewBox="0 0 40 40">
<title>ul-compass</title>
<path fill="#ebebeb" d="M20 9.334c-5.891 0-10.666 4.776-10.666 10.666s4.776 10.666 10.666 10.666c5.891 0 10.666-4.776 10.666-10.666v0c0-5.891-4.776-10.666-10.666-10.666v0zM21.066 28.458v-0.992c0-0.589-0.478-1.066-1.066-1.066s-1.066 0.478-1.066 1.066v0 0.992c-3.863-0.504-6.888-3.529-7.387-7.349l-0.005-0.043h0.992c0.589 0 1.066-0.478 1.066-1.066s-0.478-1.066-1.066-1.066v0h-0.992c0.504-3.863 3.529-6.888 7.349-7.387l0.043-0.005v0.992c0 0.589 0.478 1.066 1.066 1.066s1.066-0.478 1.066-1.066v0-0.992c3.863 0.504 6.888 3.529 7.387 7.349l0.005 0.043h-0.992c-0.589 0-1.066 0.478-1.066 1.066s0.478 1.066 1.066 1.066v0h0.992c-0.504 3.863-3.529 6.888-7.349 7.387l-0.043 0.005zM23.35 15.254l-5.334 2.262c-0.25 0.11-0.445 0.305-0.552 0.548l-0.002 0.007-2.262 5.334c-0.054 0.124-0.086 0.269-0.086 0.421 0 0.294 0.118 0.559 0.31 0.753v0c0.19 0.194 0.454 0.316 0.746 0.32h0.001c0 0 0.001 0 0.001 0 0.154 0 0.301-0.035 0.432-0.098l-0.006 0.002 5.334-2.262c0.25-0.11 0.445-0.305 0.552-0.548l0.002-0.007 2.262-5.334c0.053-0.122 0.084-0.265 0.084-0.414 0-0.589-0.478-1.066-1.066-1.066-0.15 0-0.292 0.031-0.422 0.086l0.007-0.002zM20.694 20.694l-2.432 1.066 1.066-2.432 2.432-1.066z"></path>
</svg>
