<!-- Generated by IcoMoon.io -->
<svg version="1.1" xmlns="http://www.w3.org/2000/svg" width="40" height="40" viewBox="0 0 40 40">
<title>ul-cloud-check</title>
<path fill="#ebebeb" d="M22.442 22.336l-3.51 3.51-1.376-1.376c-0.194-0.195-0.462-0.315-0.758-0.315s-0.564 0.121-0.758 0.315v0c-0.192 0.193-0.31 0.458-0.31 0.752s0.118 0.559 0.31 0.752l2.134 2.134c0.194 0.195 0.462 0.315 0.758 0.315s0.564-0.121 0.758-0.315l4.266-4.266c0.192-0.193 0.31-0.458 0.31-0.752s-0.118-0.559-0.31-0.752v0c-0.194-0.195-0.462-0.315-0.758-0.315s-0.564 0.121-0.758 0.315v0zM26.848 16.074c-1.181-2.662-3.8-4.485-6.846-4.485-3.787 0-6.915 2.819-7.401 6.474l-0.004 0.038c-1.874 0.477-3.239 2.15-3.239 4.141 0 1.842 1.168 3.413 2.804 4.010l0.030 0.010c0.144 0.077 0.314 0.122 0.496 0.122 0.589 0 1.066-0.478 1.066-1.066 0-0.523-0.377-0.958-0.873-1.049l-0.006-0.001c-0.828-0.306-1.408-1.088-1.408-2.006 0-0.007 0-0.014 0-0.022v0.001c0-1.178 0.955-2.134 2.134-2.134v0c0.589 0 1.066-0.478 1.066-1.066v0c0.013-2.936 2.395-5.311 5.334-5.311 2.326 0 4.305 1.49 5.034 3.567l0.011 0.038c0.129 0.366 0.442 0.637 0.826 0.703l0.006 0.001c1.494 0.29 2.606 1.587 2.606 3.144 0 1.465-0.984 2.7-2.327 3.079l-0.022 0.006c-0.534 0.069-0.942 0.52-0.942 1.066 0 0.594 0.482 1.075 1.075 1.075 0.047 0 0.094-0.003 0.138-0.009l-0.006 0.001h0.266c2.304-0.623 3.971-2.695 3.971-5.156 0-2.395-1.578-4.421-3.752-5.095l-0.038-0.010z"></path>
</svg>
