<!-- Generated by IcoMoon.io -->
<svg version="1.1" xmlns="http://www.w3.org/2000/svg" width="40" height="40" viewBox="0 0 40 40">
<title>ul-cloud-moon-hail</title>
<path fill="#ebebeb" d="M17.024 24.576c-0.098-0.094-0.215-0.17-0.345-0.222l-0.007-0.002c-0.122-0.053-0.264-0.083-0.414-0.083-0.292 0-0.557 0.118-0.75 0.307v0c-0.091 0.1-0.166 0.217-0.221 0.344l-0.003 0.008c-0.054 0.112-0.086 0.243-0.086 0.382 0 0.008 0 0.016 0 0.024v-0.001c0.003 0.587 0.479 1.062 1.066 1.062 0.146 0 0.286-0.030 0.412-0.082l-0.007 0.002c0.135-0.058 0.252-0.133 0.353-0.225l-0.001 0.001c0.19-0.193 0.307-0.457 0.307-0.749 0-0.15-0.030-0.291-0.086-0.421l0.002 0.007c-0.058-0.135-0.133-0.252-0.225-0.353l0.001 0.001zM17.024 28.842c-0.1-0.091-0.217-0.166-0.344-0.221l-0.008-0.003c-0.122-0.053-0.264-0.083-0.414-0.083-0.292 0-0.557 0.118-0.75 0.307v0c-0.091 0.1-0.166 0.217-0.221 0.344l-0.003 0.008c-0.054 0.123-0.086 0.267-0.086 0.418 0 0.589 0.478 1.066 1.066 1.066s1.066-0.478 1.066-1.066c0-0.151-0.031-0.294-0.088-0.425l0.002 0.007c-0.058-0.135-0.133-0.252-0.225-0.353l0.001 0.001zM21.13 22.314l-0.192-0.096-0.192-0.086c-0.062-0.013-0.132-0.020-0.204-0.020-0.15 0-0.292 0.031-0.422 0.086l0.007-0.002c-0.138 0.052-0.254 0.128-0.352 0.224v0c-0.191 0.193-0.31 0.458-0.31 0.751 0 0.002 0 0.004 0 0.006v0c0 0.002 0 0.004 0 0.006 0 0.293 0.118 0.558 0.31 0.751v0c0.1 0.091 0.217 0.166 0.344 0.221l0.008 0.003c0.119 0.054 0.258 0.086 0.406 0.086s0.286-0.031 0.412-0.088l-0.006 0.002c0.135-0.058 0.252-0.133 0.353-0.225l-0.001 0.001c0.188-0.189 0.305-0.449 0.31-0.735v-0.001c-0.004-0.294-0.122-0.561-0.31-0.758l0.001 0.001zM21.29 26.71c-0.193-0.19-0.457-0.307-0.749-0.307-0.15 0-0.291 0.030-0.421 0.086l0.007-0.002c-0.269 0.099-0.477 0.307-0.574 0.57l-0.002 0.006c-0.053 0.122-0.083 0.264-0.083 0.414 0 0.292 0.118 0.557 0.307 0.75v0c0.1 0.091 0.217 0.166 0.344 0.221l0.008 0.003c0.119 0.054 0.258 0.086 0.406 0.086s0.286-0.031 0.412-0.088l-0.006 0.002c0.135-0.058 0.252-0.133 0.353-0.225l-0.001 0.001c0.19-0.193 0.307-0.457 0.307-0.749 0-0.15-0.030-0.291-0.086-0.421l0.002 0.007c-0.058-0.135-0.133-0.252-0.225-0.353l0.001 0.001zM30.346 14.742c-0.193-0.19-0.458-0.308-0.75-0.308-0.090 0-0.177 0.011-0.261 0.032l0.007-0.002c-0.207 0.051-0.446 0.082-0.691 0.086h-0.002c-1.767 0-3.2-1.433-3.2-3.2v0c0.003-0.247 0.034-0.486 0.090-0.715l-0.005 0.022c0.024-0.085 0.038-0.182 0.038-0.283 0-0.589-0.478-1.066-1.066-1.066-0.086 0-0.169 0.010-0.248 0.029l0.007-0.002c-2.164 0.49-3.802 2.266-4.082 4.465l-0.002 0.026c-0.514-0.142-1.104-0.224-1.714-0.224-0.024 0-0.048 0-0.071 0h0.004c-0.001 0-0.002 0-0.004 0-3.207 0-5.863 2.359-6.328 5.437l-0.004 0.035c-1.588 0.453-2.732 1.891-2.732 3.597 0 1.522 0.911 2.831 2.218 3.413l0.024 0.010c0.126 0.051 0.273 0.082 0.426 0.086h0.001c0.002 0 0.006 0 0.009 0 0.589 0 1.066-0.478 1.066-1.066 0-0.438-0.264-0.814-0.642-0.978l-0.007-0.002c-0.569-0.247-0.96-0.804-0.96-1.453 0-0.003 0-0.006 0-0.010v0.001c0-0.884 0.716-1.6 1.6-1.6v0c0.589 0 1.066-0.478 1.066-1.066v0c0-2.357 1.91-4.266 4.266-4.266v0c0.87 0.006 1.677 0.268 2.352 0.714l-0.016-0.010c0.771 0.509 1.359 1.241 1.676 2.104l0.010 0.030c0.126 0.37 0.44 0.646 0.826 0.714l0.006 0.001c1.239 0.147 2.19 1.192 2.19 2.458 0 0.886-0.466 1.664-1.166 2.101l-0.010 0.006c-0.294 0.194-0.484 0.523-0.484 0.896 0 0.591 0.479 1.071 1.071 1.071 0.218 0 0.422-0.066 0.59-0.178l-0.004 0.002c1.23-0.845 2.026-2.243 2.026-3.829 0-0.011 0-0.023 0-0.034v0.002c0-0.007 0-0.016 0-0.026 0-0.771-0.194-1.498-0.534-2.132l0.012 0.024c1.863-0.533 3.283-2.016 3.716-3.879l0.007-0.035c0.014-0.063 0.021-0.136 0.021-0.21 0-0.309-0.131-0.586-0.34-0.781l-0.001-0.001zM25.45 17.75c-0.067 0.006-0.145 0.009-0.224 0.009s-0.157-0.003-0.234-0.010l0.010 0.001c-0.209-0.131-0.45-0.257-0.703-0.362l-0.033-0.012c-0.456-0.978-1.114-1.794-1.926-2.421l-0.015-0.011c0-0.128 0-0.266 0-0.394 0 0 0 0 0 0 0-0.971 0.433-1.842 1.116-2.428l0.004-0.003c0.349 2.338 2.174 4.163 4.482 4.509l0.030 0.003c-0.59 0.688-1.461 1.121-2.433 1.121-0.026 0-0.052 0-0.078-0.001h0.004z"></path>
</svg>
