<!-- Generated by IcoMoon.io -->
<svg version="1.1" xmlns="http://www.w3.org/2000/svg" width="40" height="40" viewBox="0 0 40 40">
<title>ul-compress-point</title>
<path fill="#ebebeb" d="M30.358 28.842l-6.72-6.71h1.696c0.589 0 1.066-0.478 1.066-1.066s-0.478-1.066-1.066-1.066v0h-3.83l6.038-6.038c0.229-0.197 0.373-0.486 0.373-0.81 0-0.589-0.478-1.066-1.066-1.066-0.323 0-0.614 0.144-0.809 0.371l-0.001 0.002-6.038 6.038v-3.83c0-0.589-0.478-1.066-1.066-1.066s-1.066 0.478-1.066 1.066v0 1.696l-6.71-6.72c-0.194-0.194-0.462-0.314-0.758-0.314-0.591 0-1.071 0.479-1.071 1.071 0 0.296 0.12 0.563 0.314 0.758v0l6.72 6.71h-1.696c-0.589 0-1.066 0.478-1.066 1.066s0.478 1.066 1.066 1.066v0h3.83l-6.038 6.038c-0.192 0.193-0.31 0.458-0.31 0.752s0.118 0.559 0.31 0.752v0c0.193 0.192 0.458 0.31 0.752 0.31s0.559-0.118 0.752-0.31l6.038-6.038v3.83c0 0.589 0.478 1.066 1.066 1.066s1.066-0.478 1.066-1.066v0-1.696l6.71 6.72c0.194 0.195 0.462 0.315 0.758 0.315s0.564-0.121 0.758-0.315v0c0.195-0.194 0.315-0.462 0.315-0.758s-0.121-0.564-0.315-0.758v0z"></path>
</svg>
