<!-- Generated by IcoMoon.io -->
<svg version="1.1" xmlns="http://www.w3.org/2000/svg" width="40" height="40" viewBox="0 0 40 40">
<title>ul-cloud-unlock</title>
<path fill="#ebebeb" d="M22.134 23.734h-3.2v-1.066c0-0.008 0-0.018 0-0.027 0-0.589 0.478-1.066 1.066-1.066 0.404 0 0.755 0.224 0.936 0.555l0.002 0.006c0.19 0.31 0.527 0.514 0.913 0.514 0.202 0 0.392-0.057 0.554-0.154l-0.005 0.002c0.302-0.192 0.501-0.525 0.501-0.904 0-0.193-0.051-0.374-0.141-0.53l0.002 0.005c-0.145-0.238-0.306-0.445-0.49-0.63v0c-0.577-0.594-1.381-0.964-2.27-0.97h-0.002c-1.767 0-3.2 1.433-3.2 3.2v0 1.258c-1.241 0.459-2.109 1.633-2.109 3.008 0 1.758 1.418 3.186 3.174 3.2h4.268c1.767 0 3.2-1.433 3.2-3.2s-1.433-3.2-3.2-3.2v0zM22.134 28h-4.266c-0.589 0-1.066-0.478-1.066-1.066s0.478-1.066 1.066-1.066v0h4.266c0.589 0 1.066 0.478 1.066 1.066s-0.478 1.066-1.066 1.066v0zM26.848 14.368c-1.18-2.663-3.8-4.487-6.846-4.487-3.784 0-6.91 2.815-7.4 6.465l-0.004 0.038c-1.884 0.47-3.257 2.147-3.257 4.146 0 1.85 1.177 3.424 2.822 4.016l0.030 0.010c0.102 0.033 0.219 0.052 0.341 0.054h0.001c0.051 0.009 0.11 0.014 0.17 0.014 0.597 0 1.080-0.484 1.080-1.080 0-0.536-0.391-0.982-0.903-1.066l-0.006-0.001c-0.808-0.298-1.38-1.050-1.408-1.938v-0.003c0-1.178 0.955-2.134 2.134-2.134v0c0.589 0 1.066-0.478 1.066-1.066v0c0.006-2.941 2.392-5.322 5.334-5.322 2.326 0 4.305 1.49 5.034 3.567l0.011 0.038c0.126 0.37 0.44 0.646 0.826 0.714l0.006 0.001c1.506 0.28 2.63 1.583 2.63 3.149 0 1.163-0.621 2.182-1.549 2.742l-0.014 0.008c-0.323 0.188-0.537 0.533-0.537 0.928 0 0.591 0.479 1.070 1.070 1.070 0.196 0 0.38-0.053 0.538-0.145l-0.005 0.002c1.599-0.941 2.656-2.654 2.656-4.613 0-0.002 0-0.004 0-0.006v0c-0.007-2.399-1.598-4.426-3.781-5.089l-0.038-0.010z"></path>
</svg>
