<!-- Generated by IcoMoon.io -->
<svg version="1.1" xmlns="http://www.w3.org/2000/svg" width="40" height="40" viewBox="0 0 40 40">
<title>ul-camera-slash</title>
<path fill="#ebebeb" d="M11.158 9.642c-0.194-0.194-0.462-0.314-0.758-0.314-0.591 0-1.071 0.479-1.071 1.071 0 0.296 0.12 0.563 0.314 0.758v0l2.986 2.976h-0.096c-1.767 0-3.2 1.433-3.2 3.2v0 8.534c0 1.767 1.433 3.2 3.2 3.2v0h15.018l1.29 1.302c0.194 0.195 0.462 0.315 0.758 0.315s0.564-0.121 0.758-0.315v0c0.195-0.194 0.315-0.462 0.315-0.758s-0.121-0.564-0.315-0.758v0zM18.080 19.594l2.858 2.858c-0.272 0.134-0.592 0.214-0.93 0.214-0.003 0-0.006 0-0.009 0h0.001c-1.178 0-2.134-0.955-2.134-2.134v0c0-0.002 0-0.006 0-0.009 0-0.338 0.078-0.658 0.219-0.942l-0.006 0.013zM12.534 26.934c-0.589 0-1.066-0.478-1.066-1.066v0-8.534c0-0.589 0.478-1.066 1.066-1.066v0h2.208l1.814 1.802c-0.508 0.68-0.816 1.535-0.822 2.462v0.002c0 2.357 1.91 4.266 4.266 4.266v0c0.932-0.003 1.792-0.311 2.486-0.829l-0.011 0.008 2.954 2.954zM27.466 14.134h-1.366l-0.33-1.066c-0.453-1.254-1.632-2.134-3.017-2.134-0.008 0-0.016 0-0.024 0h-4.692c-0.589 0-1.066 0.478-1.066 1.066s0.478 1.066 1.066 1.066v0h4.694c0.001 0 0.002 0 0.002 0 0.467 0 0.864 0.3 1.008 0.718l0.002 0.007 0.576 1.738c0.143 0.43 0.542 0.736 1.014 0.736h2.134c0.589 0 1.066 0.478 1.066 1.066v0 6.23c0 0.589 0.478 1.066 1.066 1.066s1.066-0.478 1.066-1.066v0-6.23c0-1.767-1.433-3.2-3.2-3.2v0z"></path>
</svg>
