<!-- Generated by IcoMoon.io -->
<svg version="1.1" xmlns="http://www.w3.org/2000/svg" width="40" height="40" viewBox="0 0 40 40">
<title>ul-circle-layer</title>
<path fill="#ebebeb" d="M23.2 9.334c-3.646 0.003-6.68 2.619-7.331 6.076l-0.007 0.046c-1.829 1.001-3.101 2.821-3.326 4.954l-0.002 0.028c-1.892 0.847-3.186 2.714-3.186 4.882 0 2.946 2.388 5.334 5.334 5.334 2.169 0 4.034-1.294 4.868-3.152l0.014-0.034c2.154-0.22 3.974-1.48 4.965-3.263l0.017-0.033c3.584-0.59 6.284-3.666 6.284-7.373 0-4.124-3.343-7.466-7.466-7.466-0.057 0-0.114 0.001-0.17 0.002h0.009zM17.866 25.792c0 0.106 0 0.214-0.074 0.33v0c-0.361 1.402-1.613 2.421-3.104 2.421-1.767 0-3.2-1.433-3.2-3.2 0-1.49 1.019-2.743 2.399-3.099l0.022-0.005 0.298-0.106c0.173-0.034 0.372-0.054 0.576-0.054 1.732 0 3.136 1.404 3.136 3.136 0 0.204-0.019 0.403-0.057 0.596l0.003-0.020zM23.2 21.878c-0.017 0.082-0.035 0.15-0.058 0.216l0.004-0.014c-0.053 0.225-0.115 0.418-0.191 0.602l0.010-0.026c-0.506 1.257-1.555 2.202-2.85 2.553l-0.030 0.007c0-0.192 0-0.374-0.064-0.566s0-0.288 0-0.426-0.128-0.406-0.192-0.608-0.074-0.256-0.128-0.384c-0.104-0.228-0.21-0.421-0.33-0.604l0.010 0.017c0-0.096-0.096-0.202-0.16-0.298-0.2-0.29-0.41-0.545-0.641-0.779l0.001 0.001-0.214-0.182c-0.17-0.157-0.355-0.308-0.548-0.446l-0.018-0.012c-0.102-0.067-0.221-0.135-0.344-0.194l-0.018-0.008c-0.15-0.098-0.325-0.194-0.507-0.277l-0.026-0.011c-0.12-0.053-0.262-0.101-0.41-0.135l-0.017-0.003c-0.155-0.066-0.341-0.124-0.533-0.166l-0.022-0.004c-0.15 0-0.31 0-0.47-0.064l-0.65-0.064c0.356-1.322 1.297-2.372 2.521-2.87l0.029-0.010c0.158-0.069 0.346-0.13 0.542-0.177l0.024-0.005 0.214-0.054c0.24-0.053 0.516-0.084 0.799-0.086h0.001c2.357 0 4.266 1.91 4.266 4.266v0c-0.002 0.288-0.033 0.567-0.090 0.838l0.005-0.027zM25.334 21.706q0-0.32 0-0.64c0-3.534-2.866-6.4-6.4-6.4v0q-0.32 0-0.64 0c0.851-1.882 2.712-3.166 4.874-3.166 2.946 0 5.334 2.388 5.334 5.334 0 2.161-1.286 4.022-3.134 4.86l-0.034 0.014z"></path>
</svg>
