<!-- Generated by IcoMoon.io -->
<svg version="1.1" xmlns="http://www.w3.org/2000/svg" width="40" height="40" viewBox="0 0 40 40">
<title>ul-camera-change</title>
<path fill="#ebebeb" d="M20.31 12.758l1.6 1.6c0.194 0.195 0.462 0.315 0.758 0.315s0.564-0.121 0.758-0.315v0c0.182-0.191 0.294-0.45 0.294-0.736 0-0.205-0.058-0.397-0.158-0.559l0.002 0.005h3.904c0.589 0 1.066-0.478 1.066-1.066s-0.478-1.066-1.066-1.066v0h-3.904c0.098-0.158 0.156-0.35 0.156-0.555 0-0.286-0.112-0.545-0.294-0.736l0.001 0.001c-0.194-0.195-0.462-0.315-0.758-0.315s-0.564 0.121-0.758 0.315l-1.6 1.6c-0.094 0.098-0.17 0.215-0.222 0.345l-0.002 0.007c-0.050 0.12-0.080 0.259-0.080 0.406s0.030 0.286 0.082 0.412l-0.002-0.007c0.054 0.137 0.13 0.254 0.224 0.352v0zM31.648 16.928c-0.054-0.137-0.13-0.254-0.224-0.352v0l-1.6-1.6c-0.194-0.195-0.462-0.315-0.758-0.315s-0.564 0.121-0.758 0.315v0c-0.182 0.191-0.294 0.45-0.294 0.736 0 0.205 0.058 0.397 0.158 0.559l-0.002-0.005h-3.904c-0.589 0-1.066 0.478-1.066 1.066s0.478 1.066 1.066 1.066v0h3.904c-0.098 0.158-0.156 0.35-0.156 0.555 0 0.286 0.112 0.545 0.294 0.736l-0.001-0.001c0.194 0.195 0.462 0.315 0.758 0.315s0.564-0.121 0.758-0.315l1.6-1.6c0.094-0.098 0.17-0.215 0.222-0.345l0.002-0.007c0.050-0.12 0.080-0.259 0.080-0.406s-0.030-0.286-0.082-0.412l0.002 0.007zM18.934 17.866c-2.357 0-4.266 1.91-4.266 4.266s1.91 4.266 4.266 4.266c2.357 0 4.266-1.91 4.266-4.266v0c0-2.357-1.91-4.266-4.266-4.266v0zM18.934 24.266c-1.178 0-2.134-0.955-2.134-2.134s0.955-2.134 2.134-2.134c1.178 0 2.134 0.955 2.134 2.134v0c0 1.178-0.955 2.134-2.134 2.134v0zM28.534 21.066c-0.589 0-1.066 0.478-1.066 1.066v0 5.334c0 0.589-0.478 1.066-1.066 1.066v0h-14.934c-0.589 0-1.066-0.478-1.066-1.066v0-8.534c0-0.589 0.478-1.066 1.066-1.066v0h2.134c0.015 0.001 0.034 0.002 0.052 0.002 0.471 0 0.871-0.306 1.012-0.73l0.578-1.735c0.138-0.414 0.511-0.712 0.958-0.736h1.666c0.589 0 1.066-0.478 1.066-1.066s-0.478-1.066-1.066-1.066v0h-1.664c0 0-0.001 0-0.001 0-1.409 0-2.605 0.91-3.032 2.174l-0.006 0.022-0.33 1.002h-1.366c-1.767 0-3.2 1.433-3.2 3.2v0 8.534c0 1.767 1.433 3.2 3.2 3.2v0h14.934c1.767 0 3.2-1.433 3.2-3.2v0-5.334c0-0.589-0.478-1.066-1.066-1.066v0z"></path>
</svg>
