<!-- Generated by IcoMoon.io -->
<svg version="1.1" xmlns="http://www.w3.org/2000/svg" width="40" height="40" viewBox="0 0 40 40">
<title>ul-corner-down-right</title>
<path fill="#ebebeb" d="M28.118 24.266c-0.062-0.135-0.14-0.252-0.235-0.353l0.001 0.001-4.938-4.982c-0.186-0.159-0.428-0.257-0.694-0.257-0.589 0-1.066 0.478-1.066 1.066 0 0.266 0.097 0.509 0.258 0.695l-0.001-0.002 3.114 3.114h-7.466c-1.767 0-3.2-1.433-3.2-3.2v0-9.952c0-0.589-0.478-1.066-1.066-1.066s-1.066 0.478-1.066 1.066v0 9.994c0 2.946 2.388 5.334 5.334 5.334v0h7.466l-3.114 3.114c-0.195 0.194-0.315 0.462-0.315 0.758s0.121 0.564 0.315 0.758v0c0.193 0.191 0.458 0.31 0.751 0.31 0.002 0 0.004 0 0.006 0v0c0.291-0.002 0.555-0.119 0.746-0.31l4.938-4.938c0.098-0.098 0.178-0.215 0.232-0.345l0.002-0.007c0.050-0.118 0.078-0.256 0.078-0.4s-0.029-0.282-0.081-0.407l0.002 0.007z"></path>
</svg>
