<!-- Generated by IcoMoon.io -->
<svg version="1.1" xmlns="http://www.w3.org/2000/svg" width="40" height="40" viewBox="0 0 40 40">
<title>ul-comment-edit</title>
<path fill="#ebebeb" d="M30.358 12.234l-2.592-2.592c-0.193-0.192-0.458-0.31-0.752-0.31s-0.559 0.118-0.752 0.31l-5.952 5.952c-0.191 0.193-0.31 0.458-0.31 0.751 0 0.002 0 0.004 0 0.006v0 2.582c0 0.589 0.478 1.066 1.066 1.066v0h2.582c0.002 0 0.004 0 0.006 0 0.293 0 0.558-0.118 0.751-0.31l5.952-5.952c0.192-0.193 0.31-0.458 0.31-0.752s-0.118-0.559-0.31-0.752v0zM23.2 17.866h-1.066v-1.066l4.886-4.886 1.066 1.066zM27.466 20v0c-0.589 0-1.066 0.478-1.066 1.066v0c0 4.124-3.343 7.466-7.466 7.466v0h-5.962l0.682-0.672c0.195-0.194 0.315-0.462 0.315-0.758s-0.121-0.564-0.315-0.758v0c-1.351-1.351-2.187-3.218-2.187-5.28 0-4.124 3.343-7.466 7.466-7.466 0 0 0 0 0.001 0v0c0.589 0 1.066-0.478 1.066-1.066s-0.478-1.066-1.066-1.066v0 0c-5.288 0.018-9.569 4.309-9.569 9.6 0 2.277 0.792 4.368 2.116 6.014l-0.014-0.018-1.824 1.782c-0.19 0.193-0.307 0.457-0.307 0.749 0 0.15 0.030 0.291 0.086 0.421l-0.002-0.007c0.163 0.39 0.541 0.659 0.981 0.662h8.534c5.302 0 9.6-4.298 9.6-9.6v0c0-0.589-0.478-1.066-1.066-1.066v0z"></path>
</svg>
