<!-- Generated by IcoMoon.io -->
<svg version="1.1" xmlns="http://www.w3.org/2000/svg" width="40" height="40" viewBox="0 0 40 40">
<title>ul-copyright</title>
<path fill="#ebebeb" d="M18.934 16.8h2.134c0.589 0 1.066 0.478 1.066 1.066v0c0 0.589 0.478 1.066 1.066 1.066s1.066-0.478 1.066-1.066v0c0-1.767-1.433-3.2-3.2-3.2v0h-2.134c-1.767 0-3.2 1.433-3.2 3.2v0 4.266c0 1.767 1.433 3.2 3.2 3.2v0h2.134c1.767 0 3.2-1.433 3.2-3.2v0c0-0.589-0.478-1.066-1.066-1.066s-1.066 0.478-1.066 1.066v0c0 0.589-0.478 1.066-1.066 1.066v0h-2.134c-0.589 0-1.066-0.478-1.066-1.066v0-4.266c0-0.589 0.478-1.066 1.066-1.066v0zM20 9.334c-5.891 0-10.666 4.776-10.666 10.666s4.776 10.666 10.666 10.666c5.891 0 10.666-4.776 10.666-10.666v0c0-5.891-4.776-10.666-10.666-10.666v0zM20 28.534c-4.713 0-8.534-3.821-8.534-8.534s3.821-8.534 8.534-8.534c4.713 0 8.534 3.821 8.534 8.534v0c0 4.713-3.821 8.534-8.534 8.534v0z"></path>
</svg>
