<!-- Generated by IcoMoon.io -->
<svg version="1.1" xmlns="http://www.w3.org/2000/svg" width="40" height="40" viewBox="0 0 40 40">
<title>ul-envelope-shield</title>
<path fill="#ebebeb" d="M30.272 12.662c-0.182-0.148-0.416-0.238-0.671-0.238-0.080 0-0.158 0.009-0.232 0.026l0.007-0.002c-0.189 0.043-0.406 0.068-0.628 0.068-0.646 0-1.243-0.21-1.727-0.565l0.008 0.006c-0.174-0.128-0.393-0.206-0.63-0.206s-0.455 0.077-0.632 0.207l0.003-0.002c-0.476 0.35-1.073 0.559-1.719 0.559-0.222 0-0.439-0.025-0.647-0.072l0.019 0.004c-0.067-0.015-0.145-0.024-0.224-0.024-0.589 0-1.066 0.478-1.066 1.066 0 0.001 0 0.002 0 0.002v0 3.53c0 0.003 0 0.007 0 0.010 0 1.603 0.766 3.027 1.95 3.927l0.012 0.009 1.674 1.238c0.174 0.128 0.393 0.206 0.63 0.206s0.455-0.077 0.632-0.207l-0.003 0.002 1.674-1.238c1.198-0.909 1.962-2.333 1.962-3.936 0-0.004 0-0.007 0-0.011v0.001-3.53c0-0.001 0-0.002 0-0.004 0-0.334-0.153-0.631-0.393-0.827l-0.002-0.002zM28.534 17.024c0 0.011 0 0.025 0 0.038 0 0.887-0.415 1.677-1.061 2.187l-0.006 0.005-1.066 0.746-1.066-0.768c-0.652-0.514-1.067-1.305-1.067-2.191 0-0.014 0-0.026 0-0.040v0.002-2.336c0.786-0.033 1.515-0.242 2.16-0.589l-0.026 0.013c0.618 0.334 1.348 0.543 2.123 0.576h0.010zM29.6 23.424c-0.589 0-1.066 0.478-1.066 1.066v0 3.2c0 0.589-0.478 1.066-1.066 1.066v0h-14.934c-0.589 0-1.066-0.478-1.066-1.066v0-10.176l6.272 6.272c0.576 0.577 1.371 0.935 2.25 0.938h0.001c0.002 0 0.006 0 0.008 0 0.895 0 1.704-0.367 2.285-0.959l0.001-0.001-0.746-0.758-0.79-0.726c-0.192 0.189-0.456 0.305-0.746 0.305s-0.554-0.116-0.747-0.305v0l-6.282-6.272h5.962c0.589 0 1.066-0.478 1.066-1.066s-0.478-1.066-1.066-1.066v0h-6.4c-1.767 0-3.2 1.433-3.2 3.2v0 10.666c0 1.767 1.433 3.2 3.2 3.2v0h14.934c1.767 0 3.2-1.433 3.2-3.2v0-3.2c0-0.589-0.478-1.066-1.066-1.066v0z"></path>
</svg>
