<!-- Generated by IcoMoon.io -->
<svg version="1.1" xmlns="http://www.w3.org/2000/svg" width="40" height="40" viewBox="0 0 40 40">
<title>ul-envelope-open</title>
<path fill="#ebebeb" d="M28.758 16.608v0 0 0l-6.624-6.442c-0.54-0.514-1.273-0.831-2.080-0.831s-1.54 0.317-2.082 0.832l0.002-0.001-6.624 6.4c-0.576 0.505-0.94 1.238-0.95 2.057v9.154c0.024 1.602 1.328 2.891 2.933 2.891 0.011 0 0.022 0 0.034 0h13.268c0.010 0 0.021 0 0.032 0 1.605 0 2.909-1.289 2.933-2.889v-9.154c-0.002-0.788-0.324-1.502-0.842-2.016v0zM19.402 11.702c0.157-0.144 0.367-0.232 0.598-0.232s0.441 0.088 0.598 0.233l-0.001-0.001 5.802 5.632-5.834 5.632c-0.157 0.144-0.367 0.232-0.598 0.232s-0.441-0.088-0.598-0.233l0.001 0.001-5.77-5.632zM27.466 27.776c-0.029 0.424-0.38 0.758-0.809 0.758-0.008 0-0.016 0-0.024 0h-13.269c-0.007 0-0.015 0-0.023 0-0.429 0-0.78-0.334-0.809-0.755v-8.472l4.32 4.16-1.77 1.706c-0.192 0.193-0.31 0.458-0.31 0.752s0.118 0.559 0.31 0.752v0c0.194 0.203 0.466 0.33 0.768 0.33v0c0.286-0.001 0.546-0.115 0.736-0.299l1.888-1.813c0.443 0.275 0.982 0.438 1.558 0.438s1.114-0.163 1.57-0.446l-0.013 0.007 1.888 1.814c0.19 0.184 0.45 0.298 0.736 0.298v0c0.302-0.001 0.574-0.128 0.767-0.33l0.001-0.001c0.192-0.193 0.31-0.458 0.31-0.752s-0.118-0.559-0.31-0.752v0l-1.782-1.706 4.266-4.16z"></path>
</svg>
