<!-- Generated by IcoMoon.io -->
<svg version="1.1" xmlns="http://www.w3.org/2000/svg" width="40" height="40" viewBox="0 0 40 40">
<title>ul-envelope-times</title>
<path fill="#ebebeb" d="M29.6 18.934c-0.589 0-1.066 0.478-1.066 1.066v0 6.4c0 0.589-0.478 1.066-1.066 1.066v0h-14.934c-0.589 0-1.066-0.478-1.066-1.066v0-10.23l6.272 6.282c0.578 0.573 1.373 0.927 2.25 0.928v0c0.9-0.005 1.714-0.37 2.304-0.96l1.834-1.834c0.194-0.194 0.314-0.462 0.314-0.758 0-0.591-0.479-1.071-1.071-1.071-0.296 0-0.563 0.12-0.758 0.314l-1.866 1.866c-0.192 0.189-0.456 0.305-0.746 0.305s-0.554-0.116-0.747-0.305v0l-6.282-6.272h8.096c0.589 0 1.066-0.478 1.066-1.066s-0.478-1.066-1.066-1.066v0h-8.534c-1.767 0-3.2 1.433-3.2 3.2v0 10.666c0 1.767 1.433 3.2 3.2 3.2v0h14.934c1.767 0 3.2-1.433 3.2-3.2v0-6.4c0-0.589-0.478-1.066-1.066-1.066v0zM28.97 13.6l1.386-1.376c0.194-0.194 0.314-0.462 0.314-0.758 0-0.591-0.479-1.071-1.071-1.071-0.296 0-0.563 0.12-0.758 0.314v0l-1.376 1.386-1.376-1.386c-0.194-0.194-0.462-0.314-0.758-0.314-0.591 0-1.071 0.479-1.071 1.071 0 0.296 0.12 0.563 0.314 0.758v0l1.386 1.376-1.386 1.376c-0.195 0.194-0.315 0.462-0.315 0.758s0.121 0.564 0.315 0.758v0c0.194 0.195 0.462 0.315 0.758 0.315s0.564-0.121 0.758-0.315v0l1.376-1.386 1.376 1.386c0.194 0.195 0.462 0.315 0.758 0.315s0.564-0.121 0.758-0.315v0c0.195-0.194 0.315-0.462 0.315-0.758s-0.121-0.564-0.315-0.758v0z"></path>
</svg>
