<!-- Generated by IcoMoon.io -->
<svg version="1.1" xmlns="http://www.w3.org/2000/svg" width="40" height="40" viewBox="0 0 40 40">
<title>ul-envelope</title>
<path fill="#ebebeb" d="M27.466 11.466h-14.934c-1.767 0-3.2 1.433-3.2 3.2v0 10.666c0 1.767 1.433 3.2 3.2 3.2v0h14.934c1.767 0 3.2-1.433 3.2-3.2v0-10.666c0-1.767-1.433-3.2-3.2-3.2v0zM27.030 13.6l-6.272 6.272c-0.194 0.195-0.462 0.315-0.758 0.315s-0.564-0.121-0.758-0.315l-6.272-6.272zM28.534 25.334c0 0.589-0.478 1.066-1.066 1.066v0h-14.934c-0.589 0-1.066-0.478-1.066-1.066v0-10.23l6.272 6.272c0.579 0.578 1.378 0.936 2.262 0.936s1.682-0.358 2.262-0.936l6.272-6.272z"></path>
</svg>
