<!-- Generated by IcoMoon.io -->
<svg version="1.1" xmlns="http://www.w3.org/2000/svg" width="40" height="40" viewBox="0 0 40 40">
<title>ul-expand-left</title>
<path fill="#ebebeb" d="M16.982 18.048c0.002 0 0.004 0 0.006 0 0.293 0 0.558-0.118 0.751-0.31v0c0.195-0.194 0.315-0.462 0.315-0.758s-0.121-0.564-0.315-0.758v0l-4.768-4.758h1.696c0.589 0 1.066-0.478 1.066-1.066s-0.478-1.066-1.066-1.066v0h-4.266c-0.147 0.002-0.286 0.033-0.412 0.088l0.007-0.002c-0.262 0.11-0.466 0.314-0.574 0.569l-0.002 0.007c-0.052 0.119-0.083 0.258-0.086 0.405v4.267c0 0.589 0.478 1.066 1.066 1.066s1.066-0.478 1.066-1.066v0-1.696l4.758 4.768c0.193 0.191 0.458 0.31 0.751 0.31 0.002 0 0.004 0 0.006 0v0zM23.776 16.224c-0.194-0.195-0.462-0.315-0.758-0.315s-0.564 0.121-0.758 0.315l-6.038 6.038c-0.195 0.194-0.315 0.462-0.315 0.758s0.121 0.564 0.315 0.758v0c0.193 0.191 0.458 0.31 0.751 0.31 0.002 0 0.004 0 0.006 0v0c0.002 0 0.004 0 0.006 0 0.293 0 0.558-0.118 0.751-0.31l6.038-6.038c0.195-0.194 0.315-0.462 0.315-0.758s-0.121-0.564-0.315-0.758v0zM29.6 24.266c-0.589 0-1.066 0.478-1.066 1.066v0 1.696l-4.758-4.768c-0.194-0.194-0.462-0.314-0.758-0.314-0.591 0-1.071 0.479-1.071 1.071 0 0.296 0.12 0.563 0.314 0.758v0l4.768 4.758h-1.696c-0.589 0-1.066 0.478-1.066 1.066s0.478 1.066 1.066 1.066v0h4.266c0.147-0.002 0.286-0.033 0.412-0.088l-0.007 0.002c0.262-0.11 0.466-0.314 0.574-0.569l0.002-0.007c0.052-0.119 0.083-0.258 0.086-0.405v-4.267c0-0.589-0.478-1.066-1.066-1.066v0z"></path>
</svg>
