<!-- Generated by IcoMoon.io -->
<svg version="1.1" xmlns="http://www.w3.org/2000/svg" width="40" height="40" viewBox="0 0 40 40">
<title>ul-ellipsis-h</title>
<path fill="#ebebeb" d="M20 17.866c-1.178 0-2.134 0.955-2.134 2.134s0.955 2.134 2.134 2.134c1.178 0 2.134-0.955 2.134-2.134v0c0-1.178-0.955-2.134-2.134-2.134v0zM12.534 17.866c-1.178 0-2.134 0.955-2.134 2.134s0.955 2.134 2.134 2.134c1.178 0 2.134-0.955 2.134-2.134v0c0-1.178-0.955-2.134-2.134-2.134v0zM27.466 17.866c-1.178 0-2.134 0.955-2.134 2.134s0.955 2.134 2.134 2.134c1.178 0 2.134-0.955 2.134-2.134v0c0-1.178-0.955-2.134-2.134-2.134v0z"></path>
</svg>
