<!-- Generated by IcoMoon.io -->
<svg version="1.1" xmlns="http://www.w3.org/2000/svg" width="40" height="40" viewBox="0 0 40 40">
<title>ul-envelope-download-alt</title>
<path fill="#ebebeb" d="M19.242 16.576c0.194 0.195 0.462 0.315 0.758 0.315s0.564-0.121 0.758-0.315l2.134-2.134c0.192-0.193 0.31-0.458 0.31-0.752s-0.118-0.559-0.31-0.752v0c-0.194-0.195-0.462-0.315-0.758-0.315s-0.564 0.121-0.758 0.315l-0.31 0.31v-2.934c0-0.589-0.478-1.066-1.066-1.066s-1.066 0.478-1.066 1.066v0 2.934l-0.31-0.31c-0.194-0.195-0.462-0.315-0.758-0.315s-0.564 0.121-0.758 0.315v0c-0.192 0.193-0.31 0.458-0.31 0.752s0.118 0.559 0.31 0.752v0zM24.266 19.018h-8.534c-1.767 0-3.2 1.433-3.2 3.2v0 5.334c0 1.767 1.433 3.2 3.2 3.2v0h8.534c1.767 0 3.2-1.433 3.2-3.2v0-5.334c0-1.767-1.433-3.2-3.2-3.2v0zM23.818 21.152l-3.072 3.114c-0.192 0.189-0.456 0.305-0.746 0.305s-0.554-0.116-0.747-0.305v0l-3.072-3.114zM25.334 27.552c0 0.589-0.478 1.066-1.066 1.066v0h-8.534c-0.589 0-1.066-0.478-1.066-1.066v0-4.896l3.072 3.072c0.579 0.578 1.378 0.936 2.262 0.936s1.682-0.358 2.262-0.936l3.072-3.072z"></path>
</svg>
