<!-- Generated by IcoMoon.io -->
<svg version="1.1" xmlns="http://www.w3.org/2000/svg" width="40" height="40" viewBox="0 0 40 40">
<title>ul-flip-h</title>
<path fill="#ebebeb" d="M29.6 18.934h-19.2c-0.589 0-1.066 0.478-1.066 1.066s0.478 1.066 1.066 1.066v0h19.2c0.589 0 1.066-0.478 1.066-1.066s-0.478-1.066-1.066-1.066v0zM18.858 16.8h1.6c0.589 0 1.066-0.478 1.066-1.066s-0.478-1.066-1.066-1.066v0h-1.6c-0.589 0-1.066 0.478-1.066 1.066s0.478 1.066 1.066 1.066v0zM23.658 15.734c0 0.589 0.478 1.066 1.066 1.066v0h0.608c0.441-0.002 0.818-0.271 0.978-0.654l0.002-0.007c0.053-0.122 0.083-0.264 0.083-0.414 0-0.292-0.118-0.557-0.307-0.75v0l-0.704-0.694c-0.193-0.192-0.458-0.31-0.752-0.31s-0.559 0.118-0.752 0.31v0c-0.194 0.193-0.313 0.46-0.313 0.754 0 0.172 0.041 0.334 0.113 0.478l-0.003-0.006c-0.012 0.066-0.019 0.143-0.022 0.222v0.002zM19.626 12.288l0.374-0.384 0.864 0.864c0.193 0.192 0.458 0.31 0.752 0.31s0.559-0.118 0.752-0.31v0c0.192-0.193 0.31-0.458 0.31-0.752s-0.118-0.559-0.31-0.752l-1.13-1.13c-0.078-0.082-0.17-0.15-0.272-0.2l-0.006-0.002c-0.177-0.36-0.54-0.603-0.961-0.603-0.296 0-0.563 0.121-0.757 0.315l-1.13 1.13c-0.194 0.194-0.314 0.462-0.314 0.758 0 0.591 0.479 1.071 1.071 1.071 0.296 0 0.563-0.12 0.758-0.314v0zM25.334 23.2h-10.666c-0.441 0.002-0.818 0.271-0.978 0.654l-0.002 0.007c-0.053 0.122-0.083 0.264-0.083 0.414 0 0.292 0.118 0.557 0.307 0.75v0l5.334 5.334c0.194 0.195 0.462 0.315 0.758 0.315s0.564-0.121 0.758-0.315l5.334-5.334c0.19-0.193 0.307-0.457 0.307-0.749 0-0.15-0.030-0.291-0.086-0.421l0.002 0.007c-0.163-0.39-0.541-0.659-0.981-0.662v0zM20 28.096l-2.762-2.762h5.526zM14.72 16.8c0.002 0 0.004 0 0.006 0 0.293 0 0.558-0.118 0.751-0.31v0l1.13-1.184c0.194-0.194 0.314-0.462 0.314-0.758 0-0.591-0.479-1.071-1.071-1.071-0.296 0-0.563 0.12-0.758 0.314l-1.13 1.13c-0.195 0.194-0.315 0.462-0.315 0.758s0.121 0.564 0.315 0.758v0c0.187 0.213 0.455 0.35 0.755 0.362h0.002z"></path>
</svg>
