<!-- Generated by IcoMoon.io -->
<svg version="1.1" xmlns="http://www.w3.org/2000/svg" width="40" height="40" viewBox="0 0 40 40">
<title>ul-fire</title>
<path fill="#ebebeb" d="M16.232 16.154l-0.002 0.002-0.002 0.002zM26.85 15.955c-0.072-0.070-0.153-0.131-0.239-0.183l-0.006-0.003c-0.154-0.093-0.342-0.147-0.541-0.147-0.414 0-0.772 0.235-0.949 0.58l-0.003 0.006c-0.382 0.744-0.882 1.374-1.483 1.889l-0.008 0.007c0.090-0.484 0.142-1.041 0.142-1.61v0c0-0.003 0-0.007 0-0.011 0-3.441-1.87-6.446-4.649-8.052l-0.045-0.024c-0.151-0.087-0.333-0.138-0.526-0.138-0.565 0-1.027 0.439-1.064 0.995v0.003c-0.129 2.119-1.121 3.983-2.626 5.263l-0.010 0.009-0.246 0.2c-0.82 0.557-1.52 1.214-2.105 1.966l-0.015 0.021c-1.294 1.619-2.077 3.697-2.077 5.958 0 3.992 2.442 7.414 5.913 8.854l0.063 0.023c0.119 0.050 0.258 0.079 0.403 0.079 0.589 0 1.066-0.478 1.066-1.066 0 0 0-0.001 0-0.001v0c-0.001-0.119-0.020-0.234-0.055-0.342l0.002 0.008c-0.159-0.574-0.25-1.233-0.25-1.914 0-0.296 0.018-0.588 0.051-0.874l-0.003 0.035c1.023 1.903 2.612 3.39 4.539 4.26l0.061 0.025c0.128 0.058 0.277 0.093 0.434 0.093 0.118 0 0.23-0.019 0.336-0.054l-0.007 0.002c3.89-1.283 6.647-4.885 6.647-9.13 0-2.619-1.050-4.994-2.751-6.725l0.002 0.002zM22.685 29.642c-1.863-0.959-3.246-2.63-3.803-4.644l-0.012-0.052c-0.072-0.276-0.139-0.625-0.186-0.979l-0.006-0.049c-0.065-0.454-0.406-0.812-0.846-0.9l-0.007-0.001c-0.061-0.013-0.131-0.020-0.202-0.020-0.001 0-0.001 0-0.002 0v0c0 0 0 0 0 0-0.393 0-0.737 0.213-0.922 0.53l-0.002 0.005c-0.81 1.374-1.289 3.028-1.289 4.793 0 0.084 0.001 0.168 0.003 0.252v-0.012c-1.758-1.376-2.878-3.498-2.878-5.882 0-1.762 0.612-3.382 1.635-4.658l-0.011 0.014c0.47-0.606 1.020-1.122 1.641-1.539l0.025-0.016c0.030-0.019 0.056-0.038 0.080-0.059l-0.001 0.001s0.317-0.262 0.327-0.268c1.486-1.262 2.574-2.95 3.077-4.875l0.015-0.066c1.421 1.317 2.308 3.193 2.308 5.276 0 1.226-0.307 2.38-0.848 3.39l0.019-0.038c-0.076 0.143-0.121 0.314-0.121 0.494 0 0.59 0.478 1.067 1.067 1.067 0.113 0 0.222-0.018 0.324-0.050l-0.007 0.002c1.678-0.537 3.083-1.536 4.106-2.848l0.014-0.018c0.804 1.174 1.284 2.624 1.284 4.186 0 3.158-1.961 5.858-4.731 6.95l-0.050 0.018z"></path>
</svg>
