<!-- Generated by IcoMoon.io -->
<svg version="1.1" xmlns="http://www.w3.org/2000/svg" width="40" height="40" viewBox="0 0 40 40">
<title>ul-focus-target</title>
<path fill="#ebebeb" d="M10.4 16.8c0.589 0 1.066-0.478 1.066-1.066v0-3.2c0-0.589 0.478-1.066 1.066-1.066v0h3.2c0.589 0 1.066-0.478 1.066-1.066s-0.478-1.066-1.066-1.066v0h-3.2c-1.767 0-3.2 1.433-3.2 3.2v0 3.2c0 0.589 0.478 1.066 1.066 1.066v0zM15.734 28.534h-3.2c-0.589 0-1.066-0.478-1.066-1.066v0-3.2c0-0.589-0.478-1.066-1.066-1.066s-1.066 0.478-1.066 1.066v0 3.2c0 1.767 1.433 3.2 3.2 3.2v0h3.2c0.589 0 1.066-0.478 1.066-1.066s-0.478-1.066-1.066-1.066v0zM25.334 21.066c0.589 0 1.066-0.478 1.066-1.066s-0.478-1.066-1.066-1.066v0h-1.216c-0.4-1.496-1.554-2.651-3.021-3.044l-0.030-0.007v-1.216c0-0.589-0.478-1.066-1.066-1.066s-1.066 0.478-1.066 1.066v0 1.216c-1.496 0.4-2.651 1.554-3.044 3.021l-0.007 0.030h-1.216c-0.589 0-1.066 0.478-1.066 1.066s0.478 1.066 1.066 1.066v0h1.216c0.4 1.496 1.554 2.651 3.021 3.044l0.030 0.007v1.216c0 0.589 0.478 1.066 1.066 1.066s1.066-0.478 1.066-1.066v0-1.216c1.496-0.4 2.651-1.554 3.044-3.021l0.007-0.030zM20 22.134c-1.178 0-2.134-0.955-2.134-2.134s0.955-2.134 2.134-2.134c1.178 0 2.134 0.955 2.134 2.134v0c0 1.178-0.955 2.134-2.134 2.134v0zM29.6 23.2c-0.589 0-1.066 0.478-1.066 1.066v0 3.2c0 0.589-0.478 1.066-1.066 1.066v0h-3.2c-0.589 0-1.066 0.478-1.066 1.066s0.478 1.066 1.066 1.066v0h3.2c1.767 0 3.2-1.433 3.2-3.2v0-3.2c0-0.589-0.478-1.066-1.066-1.066v0zM27.466 9.334h-3.2c-0.589 0-1.066 0.478-1.066 1.066s0.478 1.066 1.066 1.066v0h3.2c0.589 0 1.066 0.478 1.066 1.066v0 3.2c0 0.589 0.478 1.066 1.066 1.066s1.066-0.478 1.066-1.066v0-3.2c0-1.767-1.433-3.2-3.2-3.2v0z"></path>
</svg>
