<!-- Generated by IcoMoon.io -->
<svg version="1.1" xmlns="http://www.w3.org/2000/svg" width="40" height="40" viewBox="0 0 40 40">
<title>ul-facebook</title>
<path fill="#ebebeb" d="M29.494 9.334h-18.986c-0.648 0-1.174 0.526-1.174 1.174v0 18.986c0 0.648 0.526 1.174 1.174 1.174h10.218v-8.266h-2.774v-3.2h2.774v-2.4c-0.013-0.118-0.020-0.255-0.020-0.394 0-2.144 1.738-3.882 3.882-3.882 0.097 0 0.194 0.003 0.289 0.010l-0.013-0.001c0.039 0 0.086-0.001 0.133-0.001 0.829 0 1.646 0.046 2.451 0.138l-0.098-0.009v2.88h-1.696c-1.344 0-1.6 0.64-1.6 1.568v2.058h3.2l-0.416 3.2h-2.784v8.298h5.44c0.648 0 1.174-0.526 1.174-1.174v0-18.986c0-0.648-0.526-1.174-1.174-1.174v0z"></path>
</svg>
