<!-- Generated by IcoMoon.io -->
<svg version="1.1" xmlns="http://www.w3.org/2000/svg" width="40" height="40" viewBox="0 0 40 40">
<title>ul-file-share-alt</title>
<path fill="#ebebeb" d="M21.6 20.534c0-0.589-0.478-1.066-1.066-1.066v0h-5.334c-0.589 0-1.066 0.478-1.066 1.066s0.478 1.066 1.066 1.066v0h5.334c0.589 0 1.066-0.478 1.066-1.066v0zM26.934 25.866c-0.474 0.002-0.911 0.158-1.264 0.42l0.006-0.004-1.866-0.854 2.038-0.938c0.304 0.187 0.671 0.302 1.065 0.31h0.002c1.178 0 2.134-0.955 2.134-2.134s-0.955-2.134-2.134-2.134c-1.178 0-2.134 0.955-2.134 2.134v0l-2.016 0.928c-0.343-0.246-0.772-0.394-1.234-0.394-1.178 0-2.134 0.955-2.134 2.134s0.955 2.134 2.134 2.134c0.026 0 0.050-0.001 0.075-0.002h-0.004c0 0 0.001 0 0.001 0 0.36 0 0.698-0.095 0.99-0.261l-0.010 0.005 2.24 1.066c0.127 1.068 1.027 1.888 2.119 1.888 1.178 0 2.134-0.955 2.134-2.134 0-1.174-0.947-2.126-2.118-2.134h-0.001zM18.4 28h-5.334c-0.589 0-1.066-0.478-1.066-1.066v0-14.934c0-0.589 0.478-1.066 1.066-1.066v0h5.334v3.2c0 1.767 1.433 3.2 3.2 3.2v0h3.2c0 0.589 0.478 1.066 1.066 1.066s1.066-0.478 1.066-1.066v0-1.066s0 0 0-0.064c-0.013-0.107-0.035-0.205-0.067-0.298l0.003 0.010v-0.096c-0.054-0.114-0.122-0.214-0.203-0.299l-6.399-6.399c-0.086-0.081-0.184-0.148-0.292-0.2l-0.007-0.003c-0.016-0.003-0.034-0.005-0.054-0.005s-0.038 0.002-0.055 0.005h0.002c-0.081-0.030-0.174-0.053-0.272-0.063l-0.006-0.001h-6.518c-1.767 0-3.2 1.433-3.2 3.2v0 14.934c0 1.767 1.433 3.2 3.2 3.2v0h5.334c0.589 0 1.066-0.478 1.066-1.066s-0.478-1.066-1.066-1.066v0zM20.534 12.438l2.762 2.762h-1.696c-0.589 0-1.066-0.478-1.066-1.066v0zM15.2 23.734c-0.589 0-1.066 0.478-1.066 1.066s0.478 1.066 1.066 1.066v0h1.066c0.589 0 1.066-0.478 1.066-1.066s-0.478-1.066-1.066-1.066v0zM15.2 17.334h1.066c0.589 0 1.066-0.478 1.066-1.066s-0.478-1.066-1.066-1.066v0h-1.066c-0.589 0-1.066 0.478-1.066 1.066s0.478 1.066 1.066 1.066v0z"></path>
</svg>
