<!-- Generated by IcoMoon.io -->
<svg version="1.1" xmlns="http://www.w3.org/2000/svg" width="40" height="40" viewBox="0 0 40 40">
<title>ul-flask</title>
<path fill="#ebebeb" d="M28.65 25.856l-5.45-9.344v-5.046h1.066c0.589 0 1.066-0.478 1.066-1.066s-0.478-1.066-1.066-1.066v0h-8.534c-0.589 0-1.066 0.478-1.066 1.066s0.478 1.066 1.066 1.066v0h1.066v5.046l-5.45 9.344c-0.274 0.462-0.435 1.018-0.435 1.61 0 1.766 1.431 3.198 3.198 3.2h11.734c1.766-0.002 3.198-1.434 3.198-3.2 0-0.594-0.162-1.149-0.443-1.626l0.008 0.015zM18.784 17.322c0.090-0.15 0.146-0.33 0.15-0.522v-5.334h2.134v5.334c0.002 0.197 0.058 0.381 0.152 0.538l-0.002-0.005 0.918 1.6h-4.266zM26.806 27.99c-0.187 0.319-0.527 0.531-0.917 0.534h-11.734c-0.39-0.002-0.73-0.214-0.914-0.528l-0.002-0.005c-0.090-0.153-0.143-0.337-0.143-0.534s0.053-0.38 0.146-0.538l-0.002 0.005 3.382-5.856h6.774l3.414 5.866c0.090 0.153 0.143 0.337 0.143 0.534s-0.053 0.38-0.146 0.538l0.002-0.005zM17.866 23.2c-0.589 0-1.066 0.478-1.066 1.066s0.478 1.066 1.066 1.066c0.589 0 1.066-0.478 1.066-1.066v0c0-0.589-0.478-1.066-1.066-1.066v0zM22.134 24.266c-0.589 0-1.066 0.478-1.066 1.066s0.478 1.066 1.066 1.066c0.589 0 1.066-0.478 1.066-1.066v0c0-0.589-0.478-1.066-1.066-1.066v0z"></path>
</svg>
