<!-- Generated by IcoMoon.io -->
<svg version="1.1" xmlns="http://www.w3.org/2000/svg" width="40" height="40" viewBox="0 0 40 40">
<title>ul-file-block-alt</title>
<path fill="#ebebeb" d="M14.666 15.734c-0.589 0-1.066 0.478-1.066 1.066s0.478 1.066 1.066 1.066v0h1.066c0.589 0 1.066-0.478 1.066-1.066s-0.478-1.066-1.066-1.066v0zM20 28.534h-7.466c-0.589 0-1.066-0.478-1.066-1.066v0-14.934c0-0.589 0.478-1.066 1.066-1.066v0h5.334v3.2c0 1.767 1.433 3.2 3.2 3.2v0h3.2v1.066c0 0.589 0.478 1.066 1.066 1.066s1.066-0.478 1.066-1.066v0-2.134s0 0 0-0.064c-0.013-0.107-0.035-0.205-0.067-0.298l0.003 0.010v-0.096c-0.054-0.114-0.122-0.214-0.203-0.299l-6.399-6.399c-0.086-0.081-0.184-0.148-0.292-0.2l-0.007-0.003c-0.014-0.002-0.031-0.003-0.048-0.003s-0.034 0.002-0.050 0.004h0.002l-0.342-0.118h-6.464c-1.767 0-3.2 1.433-3.2 3.2v0 14.934c0 1.767 1.433 3.2 3.2 3.2v0h7.466c0.589 0 1.066-0.478 1.066-1.066s-0.478-1.066-1.066-1.066v0zM20 12.97l2.762 2.762h-1.696c-0.589 0-1.066-0.478-1.066-1.066v0zM29.418 23.382c-0.783-0.748-1.847-1.209-3.018-1.209s-2.235 0.461-3.020 1.21l0.002-0.002c-0.771 0.772-1.248 1.838-1.248 3.015 0 2.357 1.91 4.266 4.266 4.266s4.266-1.91 4.266-4.266c0-1.178-0.477-2.243-1.248-3.015v0zM24.266 26.4c0-1.178 0.955-2.134 2.134-2.134v0c0.194 0.002 0.382 0.030 0.56 0.078l-0.016-0.004-2.602 2.602c-0.045-0.162-0.072-0.35-0.074-0.542v-0.002zM27.904 27.904c-0.384 0.374-0.91 0.605-1.489 0.605-0.195 0-0.384-0.026-0.564-0.075l0.015 0.003 2.592-2.582c0.045 0.162 0.072 0.35 0.074 0.542v0.002c-0.002 0.588-0.242 1.119-0.63 1.504v0zM18.934 26.4c0.589 0 1.066-0.478 1.066-1.066s-0.478-1.066-1.066-1.066v0h-4.266c-0.589 0-1.066 0.478-1.066 1.066s0.478 1.066 1.066 1.066v0zM21.066 20h-6.4c-0.589 0-1.066 0.478-1.066 1.066s0.478 1.066 1.066 1.066v0h6.4c0.589 0 1.066-0.478 1.066-1.066s-0.478-1.066-1.066-1.066v0z"></path>
</svg>
