<!-- Generated by IcoMoon.io -->
<svg version="1.1" xmlns="http://www.w3.org/2000/svg" width="40" height="40" viewBox="0 0 40 40">
<title>ul-folder-lock</title>
<path fill="#ebebeb" d="M11.466 11.466h4.864c0.001 0 0.002 0 0.002 0 0.467 0 0.864 0.3 1.008 0.718l0.002 0.007 0.576 1.75c0.146 0.426 0.544 0.726 1.010 0.726 0.001 0 0.002 0 0.003 0h7.466c0.589 0 1.066 0.478 1.066 1.066v0c0 0.589 0.478 1.066 1.066 1.066s1.066-0.478 1.066-1.066v0c0-1.767-1.433-3.2-3.2-3.2v0h-6.698l-0.342-1.066c-0.453-1.254-1.632-2.134-3.017-2.134-0.004 0-0.009 0-0.013 0h-4.863c-1.767 0-3.2 1.433-3.2 3.2v0 13.866c0 1.767 1.433 3.2 3.2 3.2v0h6.4c0.589 0 1.066-0.478 1.066-1.066s-0.478-1.066-1.066-1.066v0h-6.4c-0.589 0-1.066-0.478-1.066-1.066v0-13.866c0-0.589 0.478-1.066 1.066-1.066v0zM29.6 23.392v-1.258c0-1.767-1.433-3.2-3.2-3.2s-3.2 1.433-3.2 3.2v0 1.258c-1.25 0.451-2.13 1.626-2.134 3.007v2.134c0 1.767 1.433 3.2 3.2 3.2v0h4.266c1.767 0 3.2-1.433 3.2-3.2v0-2.134c-0.004-1.382-0.882-2.557-2.111-3.001l-0.022-0.007zM25.334 22.134c0-0.589 0.478-1.066 1.066-1.066s1.066 0.478 1.066 1.066v0 1.066h-2.134zM29.6 28.534c0 0.589-0.478 1.066-1.066 1.066v0h-4.266c-0.589 0-1.066-0.478-1.066-1.066v0-2.134c0-0.589 0.478-1.066 1.066-1.066v0h4.266c0.589 0 1.066 0.478 1.066 1.066v0z"></path>
</svg>
