<!-- Generated by IcoMoon.io -->
<svg version="1.1" xmlns="http://www.w3.org/2000/svg" width="40" height="40" viewBox="0 0 40 40">
<title>ul-file-lanscape-slash</title>
<path fill="#ebebeb" d="M30.666 18.87c-0.013-0.107-0.035-0.205-0.067-0.298l0.003 0.010v-0.096c-0.054-0.114-0.122-0.214-0.203-0.299l-6.399-6.399c-0.086-0.081-0.184-0.148-0.292-0.2l-0.007-0.003h-0.096c-0.102-0.059-0.221-0.101-0.347-0.117l-0.005-0.001h-4.682c-0.589 0-1.066 0.478-1.066 1.066s0.478 1.066 1.066 1.066v0h3.562v3.2c0 1.767 1.433 3.2 3.2 3.2v0h3.2v3.562c0 0.589 0.478 1.066 1.066 1.066s1.066-0.478 1.066-1.066v0-4.63s0 0 0-0.064zM25.334 17.866c-0.589 0-1.066-0.478-1.066-1.066v0-1.696l2.762 2.762zM11.158 9.642c-0.194-0.194-0.462-0.314-0.758-0.314-0.591 0-1.071 0.479-1.071 1.071 0 0.296 0.12 0.563 0.314 0.758v0l0.97 0.96c-0.778 0.588-1.277 1.51-1.28 2.549v10.667c0 1.767 1.433 3.2 3.2 3.2v0h14.496l1.814 1.824c0.194 0.195 0.462 0.315 0.758 0.315s0.564-0.121 0.758-0.315v0c0.195-0.194 0.315-0.462 0.315-0.758s-0.121-0.564-0.315-0.758v0zM12.534 26.4c-0.589 0-1.066-0.478-1.066-1.066v0-10.666c0.005-0.454 0.294-0.841 0.697-0.99l0.007-0.002 12.726 12.726z"></path>
</svg>
