<!-- Generated by IcoMoon.io -->
<svg version="1.1" xmlns="http://www.w3.org/2000/svg" width="40" height="40" viewBox="0 0 40 40">
<title>ul-graduation-cap</title>
<path fill="#ebebeb" d="M30.122 18.070l-1.066-0.586-9.6-5.334h-0.118c-0.058-0.025-0.125-0.047-0.195-0.062l-0.007-0.002h-0.394c-0.082 0.017-0.154 0.039-0.222 0.067l0.008-0.003h-0.118l-9.6 5.334c-0.326 0.187-0.541 0.532-0.541 0.928s0.215 0.741 0.535 0.926l0.005 0.002 2.656 1.472v5.056c0 1.767 1.433 3.2 3.2 3.2v0h8.534c1.767 0 3.2-1.433 3.2-3.2v0-5.056l2.134-1.194v3.050c0 0.589 0.478 1.066 1.066 1.066s1.066-0.478 1.066-1.066v0-3.67c-0.001-0.396-0.218-0.742-0.538-0.926l-0.006-0.002zM24.266 25.866c0 0.589-0.478 1.066-1.066 1.066v0h-8.534c-0.589 0-1.066-0.478-1.066-1.066v0-3.872l4.81 2.666 0.16 0.064h0.096c0.040 0.006 0.086 0.008 0.134 0.008s0.094-0.003 0.138-0.009l-0.006 0.001c0.040 0.006 0.086 0.008 0.134 0.008s0.094-0.003 0.138-0.009l-0.006 0.001h0.096c0.061-0.013 0.114-0.035 0.162-0.066l-0.002 0.002 4.81-2.666zM18.934 22.518l-7.402-4.118 7.402-4.118 7.402 4.118z"></path>
</svg>
