<!-- Generated by IcoMoon.io -->
<svg version="1.1" xmlns="http://www.w3.org/2000/svg" width="40" height="40" viewBox="0 0 40 40">
<title>ul-grid</title>
<path fill="#ebebeb" d="M29.6 9.334h-19.2c-0.589 0-1.066 0.478-1.066 1.066v0 19.2c0 0.589 0.478 1.066 1.066 1.066v0h19.2c0.589 0 1.066-0.478 1.066-1.066v0-19.2c0-0.589-0.478-1.066-1.066-1.066v0zM18.934 28.534h-7.466v-4.266h7.466zM18.934 22.134h-7.466v-4.266h7.466zM28.534 28.534h-7.466v-4.266h7.466zM28.534 22.134h-7.466v-4.266h7.466zM28.534 15.734h-17.066v-4.266h17.066z"></path>
</svg>
