<!-- Generated by IcoMoon.io -->
<svg version="1.1" xmlns="http://www.w3.org/2000/svg" width="40" height="40" viewBox="0 0 40 40">
<title>ul-hourglass</title>
<path fill="#ebebeb" d="M27.458 29.602h-1.066v-1.778c-0.003-0.643-0.121-1.258-0.331-1.826l0.012 0.037c-0.012-0.031-0.024-0.060-0.038-0.090-0.187-0.504-0.426-0.939-0.719-1.334l0.010 0.014-1.494-1.992c-0.398-0.529-0.638-1.197-0.64-1.921v-1.078c0.002-0.883 0.36-1.682 0.937-2.262l0.701-0.701c0.789-0.793 1.327-1.836 1.486-3l0.003-0.027c0.001-0.015 0.009-0.027 0.009-0.042l-0.003-0.014c0.034-0.2 0.058-0.437 0.067-0.678v-2.508h1.066c0.589 0 1.066-0.478 1.066-1.066s-0.478-1.066-1.066-1.066v0h-14.934c-0.589 0-1.066 0.478-1.066 1.066s0.478 1.066 1.066 1.066v0h1.066v2.499c0.009 0.25 0.033 0.486 0.071 0.718l-0.004-0.031-0.003 0.014c0 0.015 0.008 0.027 0.009 0.042 0.162 1.191 0.7 2.234 1.49 3.028l0.701 0.701c0.577 0.58 0.934 1.379 0.937 2.262v1.078c-0.002 0.724-0.242 1.392-0.646 1.929l0.006-0.008-1.494 1.992c-0.282 0.38-0.522 0.816-0.697 1.283l-0.012 0.037c-0.014 0.030-0.026 0.058-0.038 0.090-0.199 0.532-0.316 1.147-0.319 1.789v1.78h-1.066c-0.589 0-1.066 0.478-1.066 1.066s0.478 1.066 1.066 1.066v0h14.934c0.589 0 1.066-0.478 1.066-1.066s-0.478-1.066-1.066-1.066v0zM15.725 12.535v-2.134h8.534v2.134zM16.662 15.163c-0.146-0.147-0.279-0.309-0.394-0.483l-0.007-0.012h7.463c-0.123 0.186-0.255 0.347-0.402 0.495l-0.701 0.701c-0.806 0.802-1.355 1.861-1.514 3.044l-0.003 0.027h-2.224c-0.162-1.21-0.71-2.27-1.516-3.070v0zM17.858 23.913c0.594-0.788 0.978-1.765 1.053-2.826l0.001-0.017h2.158c0.077 1.079 0.461 2.055 1.065 2.858l-0.010-0.014 1.067 1.423h-6.401zM24.258 29.602h-8.534v-1.778c0.003-0.129 0.014-0.251 0.031-0.372l-0.002 0.017h8.475c0.015 0.104 0.026 0.226 0.029 0.351v0.004z"></path>
</svg>
