<!-- Generated by IcoMoon.io -->
<svg version="1.1" xmlns="http://www.w3.org/2000/svg" width="40" height="40" viewBox="0 0 40 40">
<title>ul-hdd</title>
<path fill="#ebebeb" d="M30.666 23.050v-0.054c-0.014-0.222-0.052-0.43-0.112-0.628l0.005 0.020-1.75-10.378c-0.26-1.529-1.574-2.678-3.157-2.678-0.015 0-0.030 0-0.045 0h-11.272c-1.578 0.006-2.887 1.153-3.144 2.658l-0.002 0.019-1.728 10.358c-0.054 0.178-0.093 0.386-0.106 0.6l-0.001 0.008v0.054c-0.022 0.074-0.022 0.17-0.022 0.17v4.266c0 1.767 1.433 3.2 3.2 3.2v0h14.934c1.767 0 3.2-1.433 3.2-3.2v0-4.266c0 0 0-0.096 0-0.15zM13.29 12.352c0.090-0.506 0.526-0.886 1.051-0.886 0.006 0 0.011 0 0.016 0h11.306c0.005 0 0.010 0 0.015 0 0.525 0 0.962 0.379 1.050 0.879l0.001 0.006 1.28 7.702c-0.163-0.034-0.351-0.054-0.544-0.054h-14.934c-0.186 0.002-0.366 0.021-0.541 0.057l0.018-0.003zM28.534 27.466c0 0.589-0.478 1.066-1.066 1.066v0h-14.934c-0.589 0-1.066-0.478-1.066-1.066v0-4.182l0.086-0.49c0.163-0.39 0.541-0.659 0.981-0.662h14.934c0.441 0.002 0.818 0.271 0.978 0.654l0.002 0.007 0.086 0.49zM25.334 24.266c-0.589 0-1.066 0.478-1.066 1.066s0.478 1.066 1.066 1.066c0.589 0 1.066-0.478 1.066-1.066v0c0-0.589-0.478-1.066-1.066-1.066v0z"></path>
</svg>
