<!-- Generated by IcoMoon.io -->
<svg version="1.1" xmlns="http://www.w3.org/2000/svg" width="40" height="40" viewBox="0 0 40 40">
<title>ul-headphone-slash</title>
<path fill="#ebebeb" d="M27.541 13.531c-1.923-1.941-4.59-3.142-7.536-3.142-0.879 0-1.734 0.107-2.551 0.309l0.073-0.015c-0.478 0.112-0.83 0.535-0.83 1.040 0 0.589 0.478 1.066 1.066 1.066 0.082 0 0.162-0.010 0.238-0.026l-0.007 0.002c0.597-0.149 1.281-0.234 1.986-0.234 4.718 0 8.544 3.82 8.554 8.536v0.001h-0.362c-0.589 0-1.066 0.478-1.066 1.066s0.478 1.066 1.066 1.066v0h0.362v0.362c0 0.589 0.478 1.066 1.066 1.066s1.066-0.478 1.066-1.066v0-2.496c0-0.012 0-0.026 0-0.041 0-2.931-1.195-5.582-3.126-7.494l-0.001-0.001zM11.154 9.646c-0.192-0.189-0.456-0.306-0.747-0.306-0.589 0-1.066 0.478-1.066 1.066 0 0.291 0.117 0.555 0.306 0.747l2.598 2.598c-1.802 1.9-2.91 4.474-2.91 7.306 0 0.003 0 0.006 0 0.010v-0.001 7.466c0 0.589 0.478 1.066 1.066 1.066v0h3.2c1.766-0.002 3.198-1.434 3.2-3.2v-2.134c-0.002-1.766-1.434-3.198-3.2-3.2h-2.134c0-0.002 0-0.003 0-0.005 0-2.244 0.87-4.285 2.292-5.804l-0.005 0.005 9.446 9.446v1.692c0.002 1.766 1.434 3.198 3.2 3.2h1.692l0.754 0.754c0.193 0.19 0.458 0.308 0.75 0.308 0.589 0 1.066-0.478 1.066-1.066 0-0.292-0.118-0.557-0.308-0.75v0zM13.6 23.2c0.589 0.001 1.066 0.478 1.066 1.066v2.134c-0.001 0.589-0.478 1.066-1.066 1.066h-2.134v-4.266z"></path>
</svg>
