<!-- Generated by IcoMoon.io -->
<svg version="1.1" xmlns="http://www.w3.org/2000/svg" width="40" height="40" viewBox="0 0 40 40">
<title>ul-hunting</title>
<path fill="#ebebeb" d="M20 16.8c-1.767 0-3.2 1.433-3.2 3.2s1.433 3.2 3.2 3.2c1.767 0 3.2-1.433 3.2-3.2v0c0-1.767-1.433-3.2-3.2-3.2v0zM20 21.066c-0.589 0-1.066-0.478-1.066-1.066s0.478-1.066 1.066-1.066c0.589 0 1.066 0.478 1.066 1.066v0c0 0.589-0.478 1.066-1.066 1.066v0zM29.6 18.934h-1.142c-0.504-3.863-3.529-6.888-7.349-7.387l-0.043-0.005v-1.142c0-0.589-0.478-1.066-1.066-1.066s-1.066 0.478-1.066 1.066v0 1.142c-3.863 0.504-6.888 3.529-7.387 7.349l-0.005 0.043h-1.142c-0.589 0-1.066 0.478-1.066 1.066s0.478 1.066 1.066 1.066v0h1.142c0.504 3.863 3.529 6.888 7.349 7.387l0.043 0.005v1.142c0 0.589 0.478 1.066 1.066 1.066s1.066-0.478 1.066-1.066v0-1.142c3.863-0.504 6.888-3.529 7.387-7.349l0.005-0.043h1.142c0.589 0 1.066-0.478 1.066-1.066s-0.478-1.066-1.066-1.066v0zM20 26.4c-3.534 0-6.4-2.866-6.4-6.4s2.866-6.4 6.4-6.4c3.534 0 6.4 2.866 6.4 6.4v0c0 3.534-2.866 6.4-6.4 6.4v0z"></path>
</svg>
