<!-- Generated by IcoMoon.io -->
<svg version="1.1" xmlns="http://www.w3.org/2000/svg" width="40" height="40" viewBox="0 0 40 40">
<title>ul-html5-alt</title>
<path fill="#ebebeb" d="M30.099 9.68c-0.196-0.214-0.476-0.347-0.787-0.347h-18.624c-0.589 0-1.066 0.478-1.066 1.067 0 0.034 0.002 0.066 0.005 0.098v-0.004l1.622 18.134c0.041 0.448 0.354 0.813 0.77 0.931l0.007 0.002 7.68 2.134c0.086 0.025 0.184 0.039 0.286 0.039v0c0.102 0 0.199-0.014 0.293-0.040l-0.007 0.002 7.701-2.134c0.424-0.121 0.736-0.486 0.778-0.929v-0.004l1.622-18.134c0.002-0.028 0.004-0.062 0.004-0.094 0-0.278-0.106-0.531-0.281-0.721l0.001 0.001zM26.694 27.702l-6.704 1.858-6.684-1.857-1.452-16.237h16.292zM15.541 21.066h7.354l-0.349 3.489-2.739 0.978-3.374-1.206c-0.107-0.040-0.231-0.062-0.36-0.062-0.589 0-1.067 0.478-1.067 1.067 0 0.461 0.292 0.854 0.702 1.002l0.007 0.002 3.734 1.334c0.107 0.039 0.23 0.062 0.359 0.062s0.252-0.022 0.366-0.064l-0.007 0.002 3.734-1.334c0.383-0.14 0.66-0.482 0.702-0.894v-0.005l0.534-5.334c0.003-0.032 0.006-0.069 0.006-0.106 0-0.59-0.478-1.067-1.066-1.067h-7.568l-0.32-3.2h8.422c0.589 0 1.066-0.478 1.066-1.066s-0.478-1.066-1.066-1.066v0h-9.6c-0.589 0-1.066 0.478-1.066 1.067 0 0.037 0.002 0.074 0.006 0.11v-0.005l0.534 5.334c0.056 0.542 0.51 0.961 1.062 0.961v0z"></path>
</svg>
