<!-- Generated by IcoMoon.io -->
<svg version="1.1" xmlns="http://www.w3.org/2000/svg" width="40" height="40" viewBox="0 0 40 40">
<title>ul-headphones-alt</title>
<path fill="#ebebeb" d="M28.534 21.258v-2.326c0-4.713-3.821-8.534-8.534-8.534s-8.534 3.821-8.534 8.534v0 2.326c-1.25 0.451-2.13 1.626-2.134 3.007v2.134c0 1.767 1.433 3.2 3.2 3.2v0h3.2c0.589 0 1.066-0.478 1.066-1.066v0-6.4c0-0.589-0.478-1.066-1.066-1.066v0h-2.134v-2.134c0-3.534 2.866-6.4 6.4-6.4s6.4 2.866 6.4 6.4v0 2.134h-2.134c-0.589 0-1.066 0.478-1.066 1.066v0 6.4c0 0.589 0.478 1.066 1.066 1.066v0h3.2c1.767 0 3.2-1.433 3.2-3.2v0-2.134c-0.004-1.382-0.882-2.557-2.111-3.001l-0.022-0.007zM14.666 23.2v4.266h-2.134c-0.589 0-1.066-0.478-1.066-1.066v0-2.134c0-0.589 0.478-1.066 1.066-1.066v0zM28.534 26.4c0 0.589-0.478 1.066-1.066 1.066v0h-2.134v-4.266h2.134c0.589 0 1.066 0.478 1.066 1.066v0z"></path>
</svg>
