<!-- Generated by IcoMoon.io -->
<svg version="1.1" xmlns="http://www.w3.org/2000/svg" width="40" height="40" viewBox="0 0 40 40">
<title>ul-invoice</title>
<path fill="#ebebeb" d="M21.066 24.266h-6.4c-0.589 0-1.066 0.478-1.066 1.066s0.478 1.066 1.066 1.066v0h6.4c0.589 0 1.066-0.478 1.066-1.066s-0.478-1.066-1.066-1.066v0zM16.8 17.866h2.134c0.589 0 1.066-0.478 1.066-1.066s-0.478-1.066-1.066-1.066v0h-2.134c-0.589 0-1.066 0.478-1.066 1.066s0.478 1.066 1.066 1.066v0zM29.6 20h-3.2v-9.6c0-0.002 0-0.002 0-0.004 0-0.393-0.212-0.736-0.528-0.921l-0.005-0.002c-0.153-0.090-0.337-0.143-0.534-0.143s-0.38 0.053-0.538 0.146l0.005-0.002-3.2 1.834-3.2-1.834c-0.153-0.090-0.337-0.143-0.534-0.143s-0.38 0.053-0.538 0.146l0.005-0.002-3.2 1.834-3.2-1.834c-0.153-0.090-0.337-0.143-0.534-0.143s-0.38 0.053-0.538 0.146l0.005-0.002c-0.321 0.188-0.534 0.531-0.534 0.924 0 0.002 0 0.003 0 0.005v0 17.066c0 1.767 1.433 3.2 3.2 3.2v0h14.934c1.767 0 3.2-1.433 3.2-3.2v0-6.4c0-0.589-0.478-1.066-1.066-1.066v0zM12.534 28.534c-0.589 0-1.066-0.478-1.066-1.066v0-15.222l2.134 1.216c0.154 0.082 0.338 0.131 0.534 0.131s0.378-0.049 0.539-0.134l-0.006 0.003 3.2-1.834 3.2 1.834c0.154 0.082 0.338 0.131 0.534 0.131s0.378-0.049 0.539-0.134l-0.006 0.003 2.134-1.216v15.222c0.003 0.383 0.074 0.75 0.199 1.089l-0.007-0.022zM28.534 27.466c0 0.589-0.478 1.066-1.066 1.066s-1.066-0.478-1.066-1.066v0-5.334h2.134zM21.066 20h-6.4c-0.589 0-1.066 0.478-1.066 1.066s0.478 1.066 1.066 1.066v0h6.4c0.589 0 1.066-0.478 1.066-1.066s-0.478-1.066-1.066-1.066v0z"></path>
</svg>
