<!-- Generated by IcoMoon.io -->
<svg version="1.1" xmlns="http://www.w3.org/2000/svg" width="40" height="40" viewBox="0 0 40 40">
<title>ul-image-edit</title>
<path fill="#ebebeb" d="M30.386 11.201l-2.582-2.582c-0.193-0.193-0.46-0.313-0.754-0.313s-0.561 0.119-0.754 0.313l-4.886 4.886c-0.193 0.193-0.313 0.459-0.313 0.754v2.582c0 0.589 0.478 1.066 1.066 1.066h2.582c0.294 0 0.561-0.119 0.754-0.313l4.885-4.886c0.193-0.193 0.313-0.459 0.313-0.754s-0.119-0.561-0.313-0.754v0zM24.305 15.774h-1.074v-1.073l3.818-3.818 1.073 1.073zM27.466 18.934c-0.589 0-1.066 0.478-1.066 1.066v0 2.551l-1.579-1.579c-0.537-0.535-1.277-0.866-2.095-0.866s-1.558 0.331-2.095 0.866l-0.745 0.745-2.652-2.652c-0.536-0.535-1.276-0.866-2.093-0.866s-1.557 0.331-2.093 0.866l-1.582 1.582v-5.98c0.001-0.589 0.478-1.066 1.066-1.066h6.4c0.589 0 1.066-0.478 1.066-1.066s-0.478-1.066-1.066-1.066v0h-6.4c-1.766 0.002-3.198 1.434-3.2 3.2v12.8c0.002 1.766 1.434 3.198 3.2 3.2h12.8c1.766-0.002 3.198-1.434 3.2-3.2v-7.467c0-0.589-0.478-1.066-1.066-1.066v0zM12.534 28.534c-0.589-0.001-1.066-0.478-1.066-1.066v-3.804l3.090-3.090c0.152-0.144 0.358-0.232 0.585-0.232s0.432 0.088 0.585 0.233l3.378 3.378c0.009 0.010 0.012 0.023 0.022 0.033l4.55 4.55zM26.4 27.466c-0.006 0.215-0.076 0.414-0.193 0.576l0.002-0.003-4.814-4.814 0.745-0.745c0.15-0.15 0.358-0.242 0.586-0.242s0.436 0.093 0.586 0.242l3.087 3.087z"></path>
</svg>
