<!-- Generated by IcoMoon.io -->
<svg version="1.1" xmlns="http://www.w3.org/2000/svg" width="40" height="40" viewBox="0 0 40 40">
<title>ul-image-resize-square</title>
<path fill="#ebebeb" d="M10.4 15.84c0.589 0 1.066-0.478 1.066-1.066v0-0.202c0-0.589-0.478-1.066-1.066-1.066s-1.066 0.478-1.066 1.066v0 0.202c0 0.589 0.478 1.066 1.066 1.066v0zM10.4 11.574c0.163-0.002 0.317-0.042 0.454-0.11l-0.006 0.002c0.518-0.086 0.91-0.53 0.91-1.066 0-0.597-0.484-1.080-1.080-1.080-0.060 0-0.119 0.005-0.177 0.014l0.006-0.001h-0.106c-0.599 0.051-1.066 0.55-1.066 1.158 0 0.005 0 0.010 0 0.015v-0.001c0.029 0.566 0.495 1.014 1.066 1.014 0.001 0 0.001 0 0.002 0v0zM28.95 11.37c0.179 0.142 0.409 0.228 0.659 0.228 0.589 0 1.066-0.478 1.066-1.066 0-0.046-0.003-0.092-0.009-0.137l0.001 0.006c0-0.589-0.478-1.066-1.066-1.066v0h-0.106c-0.589 0-1.066 0.478-1.066 1.066 0 0.388 0.207 0.728 0.518 0.914l0.005 0.002zM19.882 11.466h0.234c0.589 0 1.066-0.478 1.066-1.066s-0.478-1.066-1.066-1.066v0h-0.234c-0.589 0-1.066 0.478-1.066 1.066s0.478 1.066 1.066 1.066v0zM15.082 11.466h0.224c0.589 0 1.066-0.478 1.066-1.066s-0.478-1.066-1.066-1.066v0h-0.224c-0.589 0-1.066 0.478-1.066 1.066s0.478 1.066 1.066 1.066v0zM29.6 28.534c-0.163 0.002-0.317 0.042-0.454 0.11l0.006-0.002c-0.366 0.174-0.614 0.541-0.614 0.966 0 0.55 0.416 1.002 0.95 1.061l0.005 0.001h0.106c0.599-0.051 1.066-0.55 1.066-1.158 0-0.005 0-0.010 0-0.015v0.001c-0.056-0.542-0.51-0.96-1.062-0.96-0.002 0-0.004 0-0.006 0v0zM22.134 18.934c0-0.589-0.478-1.066-1.066-1.066v0h-10.378c-0.043-0.006-0.094-0.009-0.144-0.009s-0.101 0.003-0.15 0.010l0.006-0.001c-0.589 0-1.066 0.478-1.066 1.066v0 10.666c0 0.589 0.478 1.066 1.066 1.066v0h10.774c0.586-0.005 1.058-0.48 1.058-1.066 0-0.162-0.036-0.317-0.102-0.454l0.002 0.006zM20 28.534h-6.912l4.17-4.16c0.064-0.065 0.153-0.105 0.25-0.105s0.187 0.040 0.25 0.105v0l2.24 2.23zM20 23.594l-0.726-0.736c-0.453-0.45-1.077-0.727-1.766-0.727s-1.313 0.278-1.766 0.727l-4.266 4.266v-7.126h8.534zM29.6 23.594c-0.589 0-1.066 0.478-1.066 1.066v0 0.224c0 0.589 0.478 1.066 1.066 1.066s1.066-0.478 1.066-1.066v0-0.192c0-0.589-0.478-1.066-1.066-1.066v0zM29.6 13.994c-0.589 0-1.066 0.478-1.066 1.066v0 0.246c0 0.589 0.478 1.066 1.066 1.066s1.066-0.478 1.066-1.066v0-0.224c0-0.589-0.478-1.066-1.066-1.066v0zM29.6 18.794c-0.589 0-1.066 0.478-1.066 1.066v0 0.234c0 0.589 0.478 1.066 1.066 1.066s1.066-0.478 1.066-1.066v0-0.234c-0.012-0.58-0.485-1.046-1.066-1.046 0 0 0 0 0 0v0zM25.44 28.534h-0.214c-0.589 0-1.066 0.478-1.066 1.066s0.478 1.066 1.066 1.066v0h0.214c0.589 0 1.066-0.478 1.066-1.066s-0.478-1.066-1.066-1.066v0zM24.918 11.466c0.589 0 1.066-0.478 1.066-1.066s-0.478-1.066-1.066-1.066v0h-0.224c-0.589 0-1.066 0.478-1.066 1.066s0.478 1.066 1.066 1.066v0z"></path>
</svg>
