<!-- Generated by IcoMoon.io -->
<svg version="1.1" xmlns="http://www.w3.org/2000/svg" width="40" height="40" viewBox="0 0 40 40">
<title>ul-image-search</title>
<path fill="#ebebeb" d="M27.466 21.066c-0.589 0-1.066 0.478-1.066 1.066v0 0.416l-1.578-1.578c-0.538-0.534-1.278-0.863-2.096-0.863s-1.558 0.33-2.096 0.863l-0.746 0.746-2.646-2.656c-0.546-0.514-1.284-0.83-2.096-0.83s-1.55 0.316-2.098 0.831l0.002-0.002-1.578 1.59v-5.984c0-0.589 0.478-1.066 1.066-1.066v0h4.266c0.589 0 1.066-0.478 1.066-1.066s-0.478-1.066-1.066-1.066v0h-4.266c-1.767 0-3.2 1.433-3.2 3.2v0 12.8c0 1.767 1.433 3.2 3.2 3.2v0h12.8c1.767 0 3.2-1.433 3.2-3.2v0-5.334c0-0.589-0.478-1.066-1.066-1.066v0zM12.534 28.534c-0.589 0-1.066-0.478-1.066-1.066v0-3.808l3.094-3.082c0.151-0.144 0.356-0.233 0.582-0.233s0.43 0.089 0.582 0.233l7.957 7.957zM26.4 27.466c-0.007 0.217-0.078 0.415-0.194 0.579l0.002-0.003-4.81-4.842 0.746-0.736c0.149-0.152 0.357-0.246 0.586-0.246s0.438 0.094 0.586 0.246v0l3.082 3.104zM30.358 18.176l-1.824-1.834c0.427-0.685 0.681-1.517 0.681-2.407 0-2.539-2.058-4.598-4.598-4.598s-4.598 2.058-4.598 4.598c0 1.269 0.514 2.418 1.346 3.25v0c0.818 0.823 1.949 1.335 3.198 1.344h0.002c0.017 0 0.038 0 0.058 0 0.881 0 1.705-0.246 2.406-0.674l-0.021 0.011 1.834 1.846c0.194 0.195 0.462 0.315 0.758 0.315s0.564-0.121 0.758-0.315v0c0.202-0.194 0.326-0.466 0.326-0.768s-0.125-0.574-0.326-0.768v0zM26.4 15.734c-0.449 0.451-1.070 0.73-1.756 0.73-1.366 0-2.474-1.108-2.474-2.474s1.108-2.474 2.474-2.474c0.686 0 1.307 0.279 1.755 0.73v0c0.444 0.447 0.719 1.063 0.719 1.744s-0.274 1.297-0.719 1.744v0z"></path>
</svg>
