<!-- Generated by IcoMoon.io -->
<svg version="1.1" xmlns="http://www.w3.org/2000/svg" width="40" height="40" viewBox="0 0 40 40">
<title>ul-kayak</title>
<path fill="#ebebeb" d="M29.728 25.206c-0.578-0.574-1.374-0.928-2.254-0.928-0.499 0-0.971 0.114-1.392 0.318l0.019-0.008-1.226-1.216c2.436-2.622 4.336-5.778 5.505-9.27l0.053-0.181c0.126-0.342 0.2-0.737 0.2-1.15 0-1.879-1.523-3.402-3.402-3.402-0.412 0-0.807 0.074-1.173 0.207l0.023-0.007c-3.672 1.221-6.828 3.122-9.466 5.572l0.016-0.014-1.216-1.226c0.197-0.403 0.311-0.876 0.311-1.377 0-1.767-1.433-3.2-3.2-3.2s-3.2 1.433-3.2 3.2c0 0.889 0.362 1.693 0.947 2.273v0c0.578 0.579 1.378 0.938 2.261 0.938v0c0.498-0.005 0.966-0.122 1.384-0.328l-0.018 0.008 1.226 1.216c-2.436 2.622-4.336 5.778-5.505 9.27l-0.053 0.181c-0.11 0.323-0.174 0.695-0.174 1.082 0 0.951 0.384 1.813 1.006 2.438v0c0.597 0.635 1.433 1.038 2.363 1.066h0.005c0.413-0.004 0.808-0.070 1.18-0.189l-0.028 0.008c3.672-1.221 6.828-3.122 9.466-5.572l-0.016 0.014 1.216 1.226c-0.197 0.403-0.311 0.876-0.311 1.377 0 1.767 1.433 3.2 3.2 3.2s3.2-1.433 3.2-3.2c0-0.889-0.362-1.693-0.947-2.273v0zM13.29 13.28v0c-0.194 0.194-0.462 0.315-0.758 0.315-0.59 0-1.067-0.478-1.067-1.067 0-0.294 0.118-0.559 0.31-0.752v0c0.194-0.194 0.462-0.315 0.758-0.315 0.59 0 1.067 0.478 1.067 1.067 0 0.294-0.118 0.559-0.31 0.752v0zM26.73 11.606c0.149-0.051 0.321-0.082 0.5-0.086h0.002c0.003 0 0.006 0 0.010 0 0.342 0 0.651 0.138 0.875 0.362v0c0.227 0.235 0.367 0.557 0.367 0.91 0 0.171-0.033 0.335-0.093 0.486l0.003-0.009c-0.623 1.892-1.393 3.529-2.33 5.051l0.058-0.102-4.342-4.342c1.42-0.879 3.058-1.649 4.783-2.224l0.166-0.048zM13.27 28.394c-0.141 0.058-0.304 0.092-0.476 0.092-0.707 0-1.28-0.573-1.28-1.28 0-0.171 0.034-0.335 0.094-0.484l-0.003 0.009c0.623-1.892 1.393-3.529 2.33-5.051l-0.058 0.102 4.342 4.342c-1.42 0.879-3.058 1.649-4.783 2.224l-0.166 0.048zM20 24.896l-4.896-4.896c0.511-0.69 1.011-1.295 1.541-1.873l-0.015 0.017 5.238 5.238c-0.562 0.509-1.17 1.006-1.803 1.47l-0.063 0.045zM23.36 21.866l-5.226-5.238c0.563-0.514 1.171-1.014 1.805-1.482l0.062-0.044 4.906 4.906c-0.514 0.69-1.017 1.294-1.55 1.871l0.014-0.015zM28.214 28.266c-0.194 0.194-0.462 0.315-0.758 0.315-0.59 0-1.067-0.478-1.067-1.067 0-0.294 0.118-0.559 0.31-0.752v0c0.193-0.192 0.458-0.31 0.752-0.31s0.559 0.118 0.752 0.31v0c0.186 0.192 0.3 0.454 0.3 0.742 0 0.278-0.106 0.53-0.28 0.72l0.001-0.001z"></path>
</svg>
