<!-- Generated by IcoMoon.io -->
<svg version="1.1" xmlns="http://www.w3.org/2000/svg" width="40" height="40" viewBox="0 0 40 40">
<title>ul-layers-slash</title>
<path fill="#ebebeb" d="M29.056 22.070l-0.362 0.214c-0.315 0.19-0.522 0.529-0.522 0.918 0 0.201 0.055 0.389 0.152 0.549l-0.002-0.005c0.189 0.315 0.529 0.522 0.918 0.522v0c0.201 0 0.389-0.055 0.549-0.152l-0.005 0.002 0.362-0.214c0.267-0.196 0.439-0.51 0.439-0.862 0-0.589-0.478-1.066-1.066-1.066-0.159 0-0.31 0.035-0.446 0.098l0.006-0.002zM19.626 13.984l0.374-0.224 7.466 4.266-1.878 1.066c-0.326 0.187-0.541 0.532-0.541 0.928 0 0.589 0.478 1.066 1.066 1.066 0.002 0 0.006 0 0.008 0h-0.001c0.002 0 0.005 0 0.007 0 0.194 0 0.374-0.051 0.531-0.142l-0.005 0.002 3.478-2.016c0.326-0.187 0.541-0.532 0.541-0.928s-0.215-0.741-0.535-0.926l-0.005-0.002-9.6-5.536c-0.153-0.090-0.337-0.143-0.534-0.143s-0.38 0.053-0.538 0.146l0.005-0.002-0.906 0.522c-0.323 0.188-0.537 0.533-0.537 0.928 0 0.591 0.479 1.070 1.070 1.070 0.196 0 0.38-0.053 0.538-0.145l-0.005 0.002zM11.158 9.642c-0.194-0.194-0.462-0.314-0.758-0.314-0.591 0-1.071 0.479-1.071 1.071 0 0.296 0.12 0.563 0.314 0.758v0l3.882 3.872-3.658 2.134c-0.326 0.187-0.541 0.532-0.541 0.928s0.215 0.741 0.535 0.926l0.005 0.002 9.6 5.546c0.154 0.085 0.338 0.136 0.533 0.138h0.001c0.196-0.005 0.378-0.055 0.54-0.142l-0.006 0.003 1.6-0.938 1.546 1.558-3.67 2.134-9.078-5.258c-0.153-0.090-0.337-0.142-0.534-0.142-0.591 0-1.070 0.479-1.070 1.070 0 0.395 0.214 0.74 0.532 0.926l0.005 0.002 9.6 5.546c0.153 0.090 0.337 0.143 0.534 0.143s0.38-0.053 0.538-0.146l-0.005 0.002 4.704-2.72 3.606 3.616c0.194 0.195 0.462 0.315 0.758 0.315s0.564-0.121 0.758-0.315v0c0.195-0.194 0.315-0.462 0.315-0.758s-0.121-0.564-0.315-0.758v0zM20 22.442l-7.466-4.374 2.56-1.472 5.462 5.472z"></path>
</svg>
