<!-- Generated by IcoMoon.io -->
<svg version="1.1" xmlns="http://www.w3.org/2000/svg" width="40" height="40" viewBox="0 0 40 40">
<title>ul-line</title>
<path fill="#ebebeb" d="M21.898 17.29v0c-0.224 0-0.406 0.182-0.406 0.406v0 1.782l-1.494-1.984c-0.074-0.119-0.203-0.198-0.351-0.202h-0.001c-0.224 0-0.406 0.182-0.406 0.406v0 3.030c0 0.224 0.182 0.406 0.406 0.406v0 0c0.224 0 0.406-0.182 0.406-0.406v0-1.792l1.482 2.038c0.038 0.056 0.093 0.098 0.158 0.117l0.002 0.001c0.022 0.006 0.048 0.008 0.074 0.008s0.052-0.003 0.077-0.009l-0.002 0.001c0.036 0.014 0.077 0.021 0.12 0.021 0.062 0 0.119-0.016 0.17-0.043l-0.002 0.001 0.106-0.074c0.072-0.074 0.117-0.176 0.118-0.288v-3.008c0-0.001 0-0.002 0-0.003 0-0.224-0.182-0.406-0.406-0.406-0.019 0-0.038 0.002-0.055 0.004h0.002zM17.014 20.288h-1.13v-2.592c0-0.224-0.182-0.406-0.406-0.406v0c-0.224 0-0.406 0.182-0.406 0.406v3.030c0 0.224 0.182 0.406 0.406 0.406v0h1.536c0 0 0 0 0 0 0.226 0 0.41-0.18 0.416-0.405v-0.001c0-0.006 0.001-0.014 0.001-0.022 0-0.23-0.186-0.416-0.416-0.416 0 0 0 0-0.001 0v0zM18.198 17.29v0c0 0 0 0 0 0-0.226 0-0.41 0.18-0.416 0.405v3.030c0.006 0.225 0.19 0.406 0.416 0.406 0 0 0 0 0 0v0c0.224 0 0.406-0.182 0.406-0.406v0-3.030c0-0.224-0.182-0.406-0.406-0.406v0zM26.304 9.334h-12.608c-2.407 0.006-4.357 1.956-4.362 4.362v12.609c0.006 2.407 1.956 4.357 4.362 4.362h12.609c2.407-0.006 4.357-1.956 4.362-4.362v-12.609c-0.006-2.407-1.956-4.357-4.362-4.362h-0.001zM26.634 22.432c-0.046 0.068-0.091 0.127-0.14 0.183l0.002-0.002c-0.258 0.316-0.538 0.595-0.843 0.845l-0.010 0.008c-2.134 1.994-5.718 4.384-6.198 4.010s0.682-1.878-0.566-2.134c-0.040 0.006-0.086 0.008-0.134 0.008s-0.094-0.003-0.138-0.009l0.006 0.001c-3.67-0.512-6.4-3.082-6.4-6.166 0-3.466 3.51-6.272 7.83-6.272s7.83 2.806 7.83 6.272c-0.040 1.246-0.501 2.376-1.244 3.262l0.006-0.008zM24.81 17.302h-1.61c-0.224 0-0.406 0.182-0.406 0.406v0 3.030c0 0.224 0.182 0.406 0.406 0.406v0h1.578c0.224 0 0.406-0.182 0.406-0.406v0c0-0.224-0.182-0.406-0.406-0.406v0h-1.098v-0.64h1.13c0.225-0.006 0.406-0.19 0.406-0.416 0 0 0 0 0 0v0c0-0.224-0.182-0.406-0.406-0.406v0h-1.13v-0.65h1.13c0.224 0 0.406-0.182 0.406-0.406v0c0.009-0.032 0.014-0.069 0.014-0.107 0-0.224-0.182-0.406-0.406-0.406-0.005 0-0.010 0-0.015 0h0.001z"></path>
</svg>
