<!-- Generated by IcoMoon.io -->
<svg version="1.1" xmlns="http://www.w3.org/2000/svg" width="40" height="40" viewBox="0 0 40 40">
<title>ul-lock-alt</title>
<path fill="#ebebeb" d="M20 21.066c-0.589 0-1.066 0.478-1.066 1.066v0 3.2c0 0.589 0.478 1.066 1.066 1.066s1.066-0.478 1.066-1.066v0-3.2c0-0.589-0.478-1.066-1.066-1.066v0zM25.334 16.8v-2.134c0-2.946-2.388-5.334-5.334-5.334s-5.334 2.388-5.334 5.334v0 2.134c-1.767 0-3.2 1.433-3.2 3.2v0 7.466c0 1.767 1.433 3.2 3.2 3.2v0h10.666c1.767 0 3.2-1.433 3.2-3.2v0-7.466c0-1.767-1.433-3.2-3.2-3.2v0zM16.8 14.666c0-1.767 1.433-3.2 3.2-3.2s3.2 1.433 3.2 3.2v0 2.134h-6.4zM26.4 27.466c0 0.589-0.478 1.066-1.066 1.066v0h-10.666c-0.589 0-1.066-0.478-1.066-1.066v0-7.466c0-0.589 0.478-1.066 1.066-1.066v0h10.666c0.589 0 1.066 0.478 1.066 1.066v0z"></path>
</svg>
