<!-- Generated by IcoMoon.io -->
<svg version="1.1" xmlns="http://www.w3.org/2000/svg" width="40" height="40" viewBox="0 0 40 40">
<title>ul-layer-group-slash</title>
<path fill="#ebebeb" d="M18.144 12.534l1.856-1.066 7.466 4.266-3.36 1.952c-0.322 0.188-0.534 0.531-0.534 0.924 0 0.194 0.051 0.375 0.142 0.532l-0.002-0.005c0.187 0.324 0.532 0.538 0.926 0.538 0.197 0 0.382-0.054 0.54-0.146l-0.005 0.002 4.96-2.87c0.326-0.187 0.541-0.532 0.541-0.928s-0.215-0.741-0.535-0.926l-0.005-0.002-9.6-5.546c-0.153-0.090-0.337-0.143-0.534-0.143s-0.38 0.053-0.538 0.146l0.005-0.002-2.39 1.386c-0.324 0.187-0.538 0.532-0.538 0.926 0 0.197 0.054 0.382 0.146 0.54l-0.002-0.005c0.183 0.338 0.535 0.562 0.94 0.562 0.191 0 0.371-0.050 0.526-0.138l-0.006 0.002zM11.158 9.642c-0.194-0.194-0.462-0.314-0.758-0.314-0.591 0-1.071 0.479-1.071 1.071 0 0.296 0.12 0.563 0.314 0.758v0l2.4 2.442-2.134 1.248c-0.326 0.187-0.541 0.532-0.541 0.928s0.215 0.741 0.535 0.926l0.005 0.002 9.6 5.546c0.153 0.090 0.337 0.143 0.534 0.143s0.38-0.053 0.538-0.146l-0.005 0.002 0.106-0.064 1.142 1.142-1.782 1.066-9.11-5.322c-0.153-0.090-0.337-0.142-0.534-0.142-0.591 0-1.070 0.479-1.070 1.070 0 0.395 0.214 0.74 0.532 0.926l0.005 0.002 9.6 5.546c0.151 0.087 0.333 0.138 0.526 0.138 0.002 0 0.005 0 0.008 0h-0.001c0.002 0 0.005 0 0.007 0 0.194 0 0.374-0.051 0.531-0.142l-0.005 0.002 2.806-1.622 1.142 1.142-4.48 2.538-9.066-5.194c-0.153-0.090-0.337-0.142-0.534-0.142-0.591 0-1.070 0.479-1.070 1.070 0 0.395 0.214 0.74 0.532 0.926l0.005 0.002 9.6 5.546c0.153 0.090 0.337 0.143 0.534 0.143s0.38-0.053 0.538-0.146l-0.005 0.002 5.514-3.2 2.794 2.806c0.194 0.195 0.462 0.315 0.758 0.315s0.564-0.121 0.758-0.315v0c0.195-0.194 0.315-0.462 0.315-0.758s-0.121-0.564-0.315-0.758v0zM12.534 15.734l1.066-0.618 2.934 2.934zM29.066 19.072l-2.262 1.302c-0.323 0.188-0.537 0.533-0.537 0.928 0 0.591 0.479 1.070 1.070 1.070 0.196 0 0.38-0.053 0.538-0.145l-0.005 0.002 2.262-1.302c0.323-0.188 0.537-0.533 0.537-0.928 0-0.591-0.479-1.070-1.070-1.070-0.196 0-0.38 0.053-0.538 0.145l0.005-0.002z"></path>
</svg>
