<!-- Generated by IcoMoon.io -->
<svg version="1.1" xmlns="http://www.w3.org/2000/svg" width="40" height="40" viewBox="0 0 40 40">
<title>ul-monitor-heart-rate</title>
<path fill="#ebebeb" d="M16.8 27.466c0.147-0.002 0.286-0.033 0.412-0.088l-0.007 0.002c0.135-0.058 0.252-0.133 0.353-0.225l-0.001 0.001c0.046-0.050 0.089-0.106 0.126-0.166l0.002-0.005c0.041-0.052 0.073-0.112 0.094-0.177l0.002-0.004c0.036-0.055 0.066-0.119 0.084-0.187l0.001-0.005c0.002-0.032 0.004-0.069 0.004-0.106s-0.002-0.074-0.004-0.111v0.005c-0.002-0.147-0.033-0.286-0.088-0.412l0.002 0.007c-0.099-0.269-0.307-0.477-0.57-0.574l-0.006-0.002c-0.131-0.062-0.286-0.099-0.449-0.099-0.060 0-0.119 0.005-0.176 0.014l0.006-0.001-0.192 0.064c-0.070 0.023-0.13 0.055-0.182 0.097l0.002-0.001c-0.064 0.039-0.12 0.082-0.171 0.129l0.001-0.001c-0.094 0.098-0.17 0.215-0.222 0.345l-0.002 0.007c-0.054 0.123-0.086 0.267-0.086 0.418 0 0.003 0 0.006 0 0.009v-0.001c0 0.589 0.478 1.066 1.066 1.066v0zM12.842 27.158c0.1 0.091 0.217 0.166 0.344 0.221l0.008 0.003c0.119 0.052 0.258 0.083 0.405 0.086h0.203c0.076-0.011 0.144-0.034 0.206-0.066l-0.003 0.002c0.074-0.026 0.137-0.058 0.194-0.098l-0.002 0.002 0.16-0.128c0.091-0.1 0.166-0.217 0.221-0.344l0.003-0.008c0.054-0.112 0.086-0.244 0.086-0.384 0-0.015 0-0.030-0.001-0.045v0.002c0.002-0.032 0.004-0.069 0.004-0.106s-0.002-0.074-0.004-0.111v0.005c-0.013-0.072-0.035-0.137-0.066-0.196l0.002 0.004c-0.023-0.070-0.055-0.13-0.097-0.182l0.001 0.002c-0.039-0.064-0.082-0.12-0.129-0.171l0.001 0.001c-0.193-0.19-0.457-0.307-0.749-0.307-0.15 0-0.291 0.030-0.421 0.086l0.007-0.002c-0.137 0.054-0.254 0.13-0.352 0.224v0c-0.046 0.050-0.089 0.106-0.126 0.166l-0.002 0.005c-0.041 0.052-0.073 0.112-0.094 0.177l-0.002 0.004c-0.044 0.055-0.080 0.118-0.105 0.187l-0.002 0.005c-0.002 0.032-0.004 0.069-0.004 0.106s0.002 0.074 0.004 0.111v-0.005c0.002 0.147 0.033 0.286 0.088 0.412l-0.002-0.007c0.058 0.135 0.133 0.252 0.225 0.353l-0.001-0.001zM27.466 9.334h-14.934c-1.767 0-3.2 1.433-3.2 3.2v0 14.934c0 1.767 1.433 3.2 3.2 3.2v0h14.934c1.767 0 3.2-1.433 3.2-3.2v0-14.934c0-1.767-1.433-3.2-3.2-3.2v0zM28.534 27.466c0 0.589-0.478 1.066-1.066 1.066v0h-14.934c-0.589 0-1.066-0.478-1.066-1.066v0-3.2h17.066zM28.534 22.134h-17.066v-4.266h4.266c0.002 0 0.004 0 0.006 0 0.293 0 0.558-0.118 0.751-0.31v0l1.376-1.334 2.986 3.414c0.189 0.215 0.462 0.353 0.766 0.362h0.002c0.002 0 0.004 0 0.006 0 0.293 0 0.558-0.118 0.751-0.31v0l1.792-1.824h4.362zM28.534 15.734h-4.8c-0.002 0-0.004 0-0.006 0-0.293 0-0.558 0.118-0.751 0.31v0l-1.322 1.334-2.986-3.414c-0.195-0.208-0.472-0.338-0.778-0.338s-0.583 0.13-0.778 0.337l-0.001 0.001-1.814 1.77h-3.83v-3.2c0-0.589 0.478-1.066 1.066-1.066v0h14.934c0.589 0 1.066 0.478 1.066 1.066v0z"></path>
</svg>
