<!-- Generated by IcoMoon.io -->
<svg version="1.1" xmlns="http://www.w3.org/2000/svg" width="40" height="40" viewBox="0 0 40 40">
<title>ul-missed-call</title>
<path fill="#ebebeb" d="M13.6 15.19c0.589 0 1.066-0.478 1.066-1.066v0-0.63l3.072 3.072c0.579 0.578 1.378 0.936 2.262 0.936s1.682-0.358 2.262-0.936l4.896-4.896c0.192-0.193 0.31-0.458 0.31-0.752s-0.118-0.559-0.31-0.752v0c-0.194-0.195-0.462-0.315-0.758-0.315s-0.564 0.121-0.758 0.315l-4.886 4.886c-0.194 0.195-0.462 0.315-0.758 0.315s-0.564-0.121-0.758-0.315v0l-3.072-3.062h0.63c0.589 0 1.066-0.478 1.066-1.066s-0.478-1.066-1.066-1.066v0h-3.2c-0.438 0-0.815 0.266-0.978 0.644l-0.002 0.007c-0.051 0.123-0.082 0.266-0.086 0.415v3.201c0 0.589 0.478 1.066 1.066 1.066v0zM30.602 23.040c-2.899-2.255-6.592-3.615-10.602-3.615s-7.703 1.36-10.642 3.645l0.039-0.030c-0.629 0.51-1.035 1.271-1.066 2.128v0.005c-0.004 0.058-0.006 0.126-0.006 0.194 0 0.787 0.321 1.5 0.838 2.014v0l1.878 1.92c0.518 0.517 1.232 0.837 2.021 0.837 0.627 0 1.206-0.202 1.678-0.544l-0.008 0.006 0.502-0.342c0.301-0.198 0.65-0.393 1.014-0.564l0.053-0.022c0.698-0.314 1.176-1.004 1.176-1.805 0-0.232-0.040-0.455-0.114-0.662l0.004 0.014-0.096-0.256c0.835-0.223 1.794-0.352 2.784-0.352s1.949 0.128 2.862 0.37l-0.078-0.018-0.096 0.256c-0.070 0.193-0.11 0.416-0.11 0.648 0 0.802 0.478 1.491 1.164 1.8l0.013 0.005c0.417 0.194 0.766 0.389 1.1 0.607l-0.034-0.020 0.502 0.342c0.45 0.333 1.016 0.534 1.628 0.534 0.005 0 0.010 0 0.015 0h-0.001c0.001 0 0.002 0 0.003 0 0.798 0 1.52-0.322 2.045-0.843v0l1.93-1.942c0.465-0.504 0.75-1.179 0.75-1.922 0-0.098-0.005-0.194-0.014-0.288l0.001 0.012c-0.054-0.863-0.482-1.618-1.124-2.107l-0.007-0.005zM29.386 25.856l-1.92 1.93c-0.132 0.138-0.318 0.223-0.523 0.223-0.146 0-0.283-0.043-0.397-0.118l0.002 0.002c-0.202-0.15-0.406-0.288-0.63-0.426-0.318-0.206-0.698-0.422-1.091-0.618l-0.072-0.033 0.426-1.162c0.040-0.108 0.063-0.233 0.063-0.362 0-0.459-0.29-0.85-0.696-1.001l-0.007-0.002c-1.348-0.506-2.906-0.8-4.534-0.8s-3.185 0.293-4.625 0.83l0.091-0.030c-0.414 0.153-0.703 0.544-0.703 1.003 0 0.13 0.023 0.254 0.066 0.37l-0.002-0.007 0.426 1.174c-0.462 0.216-0.846 0.43-1.215 0.665l0.042-0.025-0.618 0.426c-0.114 0.082-0.256 0.132-0.41 0.132-0.21 0-0.398-0.092-0.528-0.238l-0.001-0.001-1.92-1.93c-0.132-0.13-0.214-0.31-0.214-0.51 0-0.005 0-0.010 0-0.014v0.001c0.019-0.229 0.131-0.429 0.297-0.564l0.002-0.001c2.545-1.975 5.784-3.167 9.302-3.167s6.757 1.191 9.336 3.193l-0.034-0.026c0.168 0.136 0.279 0.336 0.298 0.562v0.003c0 0.004 0 0.009 0 0.014 0 0.199-0.082 0.38-0.214 0.51v0z"></path>
</svg>
