<!-- Generated by IcoMoon.io -->
<svg version="1.1" xmlns="http://www.w3.org/2000/svg" width="40" height="40" viewBox="0 0 40 40">
<title>ul-mountains</title>
<path fill="#ebebeb" d="M30.506 25.834l-5.334-8.534c-0.191-0.305-0.526-0.505-0.906-0.505s-0.715 0.2-0.904 0.5l-0.002 0.005-1.066 1.738-3.51-5.974c-0.19-0.315-0.529-0.522-0.918-0.522s-0.728 0.207-0.914 0.518l-0.002 0.005-7.466 12.8c-0.090 0.153-0.143 0.337-0.143 0.534 0 0.587 0.474 1.063 1.060 1.066h19.2c0.001 0 0.002 0 0.002 0 0.589 0 1.066-0.478 1.066-1.066 0-0.21-0.061-0.405-0.165-0.57l0.002 0.004zM18.346 25.334h-6.090l5.61-9.6 3.126 5.334zM20.854 25.334l2.346-3.658 1.066-1.792 3.414 5.45z"></path>
</svg>
