<!-- Generated by IcoMoon.io -->
<svg version="1.1" xmlns="http://www.w3.org/2000/svg" width="40" height="40" viewBox="0 0 40 40">
<title>ul-medium-m</title>
<path fill="#ebebeb" d="M29.823 14.045h0.844v-2.489h-7.979l-2.651 9.778h-0.073l-2.627-9.778h-8.003v2.489h0.819c0.39 0.065 0.695 0.358 0.779 0.734l0.001 0.006v10.486c-0.090 0.368-0.398 0.644-0.777 0.684h-0.823v2.489h6.4v-2.489h-1.6v-11.022h0.094l3.688 13.511h2.893l3.736-13.511h0.078v11.022h-1.6v2.489h7.645v-2.489h-0.844c-0.373-0.050-0.67-0.323-0.755-0.678l-0.002-0.006v-10.486c0.082-0.377 0.378-0.666 0.75-0.74l0.006-0.001z"></path>
</svg>
