<!-- Generated by IcoMoon.io -->
<svg version="1.1" xmlns="http://www.w3.org/2000/svg" width="40" height="40" viewBox="0 0 40 40">
<title>ul-minus-path</title>
<path fill="#ebebeb" d="M15.926 11.466h2.24c0.589 0 1.066-0.478 1.066-1.066s-0.478-1.066-1.066-1.066v0h-2.24c-0.589 0-1.066 0.478-1.066 1.066s0.478 1.066 1.066 1.066v0zM10.4 19.232c0.589 0 1.066-0.478 1.066-1.066v0-2.24c0-0.589-0.478-1.066-1.066-1.066s-1.066 0.478-1.066 1.066v0 2.24c0 0.589 0.478 1.066 1.066 1.066v0zM22.624 11.466c0 0.589 0.478 1.066 1.066 1.066s1.066-0.478 1.066-1.066v0-1.066c0-0.589-0.478-1.066-1.066-1.066v0h-1.066c-0.589 0-1.066 0.478-1.066 1.066s0.478 1.066 1.066 1.066v0zM29.6 15.242h-4.842c0-0.589-0.478-1.066-1.066-1.066s-1.066 0.478-1.066 1.066v0h-6.314c-0.589 0-1.066 0.478-1.066 1.066v0 6.314c-0.589 0-1.066 0.478-1.066 1.066s0.478 1.066 1.066 1.066v0 4.842c0 0.589 0.478 1.066 1.066 1.066v0h13.29c0.589 0 1.066-0.478 1.066-1.066v0-13.29c0-0.589-0.478-1.066-1.066-1.066v0zM28.534 28.534h-11.158v-11.158h11.158zM11.466 9.334h-1.066c-0.589 0-1.066 0.478-1.066 1.066v0 1.066c0 0.589 0.478 1.066 1.066 1.066s1.066-0.478 1.066-1.066v0c0.589 0 1.066-0.478 1.066-1.066s-0.478-1.066-1.066-1.066v0zM11.466 22.624c0-0.589-0.478-1.066-1.066-1.066s-1.066 0.478-1.066 1.066v0 1.066c0 0.589 0.478 1.066 1.066 1.066v0h1.066c0.589 0 1.066-0.478 1.066-1.066s-0.478-1.066-1.066-1.066v0z"></path>
</svg>
