<!-- Generated by IcoMoon.io -->
<svg version="1.1" xmlns="http://www.w3.org/2000/svg" width="40" height="40" viewBox="0 0 40 40">
<title>ul-paperclip</title>
<path fill="#ebebeb" d="M26.486 20.448l-6.592 6.602c-0.797 0.71-1.854 1.145-3.011 1.145-2.504 0-4.534-2.030-4.534-4.534 0-1.158 0.434-2.214 1.149-3.016l-0.004 0.005 8.534-8.534c0.49-0.466 1.156-0.754 1.888-0.754s1.398 0.287 1.889 0.755l-0.001-0.001c0.479 0.485 0.774 1.152 0.774 1.888s-0.296 1.403-0.775 1.888v0l-7.36 7.35c-0.15 0.161-0.362 0.261-0.598 0.261-0.45 0-0.815-0.365-0.815-0.815 0-0.214 0.083-0.41 0.218-0.555l-0.001 0.001 5.472-5.462c0.194-0.194 0.314-0.462 0.314-0.758 0-0.591-0.479-1.071-1.071-1.071-0.296 0-0.563 0.12-0.758 0.314v0l-5.472 5.482c-0.534 0.53-0.864 1.263-0.864 2.074s0.33 1.545 0.864 2.074v0c0.538 0.514 1.27 0.83 2.074 0.83s1.536-0.316 2.076-0.831l-0.001 0.001 7.35-7.36c0.798-0.855 1.288-2.006 1.288-3.272 0-2.651-2.149-4.8-4.8-4.8-1.266 0-2.418 0.49-3.275 1.291l0.003-0.002-8.534 8.534c-1.066 1.177-1.718 2.746-1.718 4.468 0 3.682 2.985 6.666 6.666 6.666 1.754 0 3.349-0.677 4.538-1.783l-0.004 0.004 6.602-6.592c0.194-0.194 0.314-0.462 0.314-0.758 0-0.591-0.479-1.071-1.071-1.071-0.296 0-0.563 0.12-0.758 0.314v0z"></path>
</svg>
