<!-- Generated by IcoMoon.io -->
<svg version="1.1" xmlns="http://www.w3.org/2000/svg" width="40" height="40" viewBox="0 0 40 40">
<title>ul-plug</title>
<path fill="#ebebeb" d="M27.466 13.6h-3.2v-3.2c0-0.589-0.478-1.066-1.066-1.066s-1.066 0.478-1.066 1.066v0 3.2h-4.266v-3.2c0-0.589-0.478-1.066-1.066-1.066s-1.066 0.478-1.066 1.066v0 3.2h-3.2c-0.589 0-1.066 0.478-1.066 1.066s0.478 1.066 1.066 1.066v0h1.066v5.334c0 0.002 0 0.004 0 0.006 0 0.293 0.118 0.558 0.31 0.751v0l2.89 2.88v4.896c0 0.589 0.478 1.066 1.066 1.066s1.066-0.478 1.066-1.066v0-4.266h2.134v4.266c0 0.589 0.478 1.066 1.066 1.066s1.066-0.478 1.066-1.066v0-4.896l2.89-2.88c0.191-0.193 0.31-0.458 0.31-0.751 0-0.002 0-0.004 0-0.006v0-5.334h1.066c0.589 0 1.066-0.478 1.066-1.066s-0.478-1.066-1.066-1.066v0zM24.266 20.63l-2.57 2.57h-3.392l-2.57-2.57v-4.896h8.534zM18.934 21.066h2.134c0.589 0 1.066-0.478 1.066-1.066s-0.478-1.066-1.066-1.066v0h-2.134c-0.589 0-1.066 0.478-1.066 1.066s0.478 1.066 1.066 1.066v0z"></path>
</svg>
