<!-- Generated by IcoMoon.io -->
<svg version="1.1" xmlns="http://www.w3.org/2000/svg" width="40" height="40" viewBox="0 0 40 40">
<title>ul-restaurant</title>
<path fill="#ebebeb" d="M25.162 19.606c0.012 0 0.026 0 0.039 0 0.885 0 1.685-0.359 2.264-0.939l3.018-3.018c0.192-0.193 0.31-0.458 0.31-0.752s-0.118-0.559-0.31-0.752v0c-0.194-0.195-0.462-0.315-0.758-0.315s-0.564 0.121-0.758 0.315v0l-3.050 3.008c-0.194 0.195-0.462 0.315-0.758 0.315s-0.564-0.121-0.758-0.315v0l3.776-3.766c0.194-0.194 0.314-0.462 0.314-0.758 0-0.591-0.479-1.071-1.071-1.071-0.296 0-0.563 0.12-0.758 0.314v0l-3.766 3.776c-0.192-0.193-0.31-0.458-0.31-0.752s0.118-0.559 0.31-0.752l3.018-3.018c0.194-0.194 0.314-0.462 0.314-0.758 0-0.591-0.479-1.071-1.071-1.071-0.296 0-0.563 0.12-0.758 0.314l-3.018 3.018c-0.578 0.579-0.936 1.378-0.936 2.262s0.358 1.682 0.936 2.262v0l-1.386 1.376-8.822-8.854-0.106-0.064c-0.052-0.046-0.112-0.085-0.177-0.115l-0.005-0.002-0.192-0.074-0.128-0.086h-0.288c-0.029-0.005-0.062-0.008-0.096-0.008s-0.067 0.002-0.099 0.008l0.003-0.001c-0.070 0.026-0.129 0.058-0.183 0.098l0.002-0.002-0.17 0.106h-0.074l-0.064 0.106c-0.042 0.053-0.082 0.112-0.114 0.175l-0.003 0.006c-0.028 0.058-0.054 0.125-0.073 0.194l-0.002 0.008s0 0.074 0 0.118c-0.076 0.501-0.119 1.078-0.119 1.666 0 3.24 1.313 6.173 3.436 8.296v0l2.816 2.806-5.77 5.76c-0.195 0.194-0.315 0.462-0.315 0.758s0.121 0.564 0.315 0.758v0c0.193 0.191 0.458 0.31 0.751 0.31 0.002 0 0.004 0 0.006 0v0c0.002 0 0.004 0 0.006 0 0.293 0 0.558-0.118 0.751-0.31v0l6.474-6.378 5.152-5.152c0.574 0.581 1.37 0.942 2.25 0.95h0.002zM17.002 21.546l-2.806-2.816c-1.488-1.508-2.485-3.505-2.727-5.728l-0.004-0.043 7.050 7.040zM23.658 22.154c-0.194-0.196-0.465-0.318-0.762-0.318-0.594 0-1.075 0.481-1.075 1.075 0 0.295 0.119 0.563 0.312 0.758l6.72 6.72c0.189 0.172 0.441 0.278 0.718 0.278 0.010 0 0.020 0 0.030-0.001h-0.002c0.002 0 0.004 0 0.006 0 0.293 0 0.558-0.118 0.751-0.31v0c0.195-0.194 0.315-0.462 0.315-0.758s-0.121-0.564-0.315-0.758v0z"></path>
</svg>
