<!-- Generated by IcoMoon.io -->
<svg version="1.1" xmlns="http://www.w3.org/2000/svg" width="40" height="40" viewBox="0 0 40 40">
<title>ul-rocket</title>
<path fill="#ebebeb" d="M31.308 9.399c-0.101-0.373-0.388-0.66-0.753-0.758l-0.007-0.002c-0.906-0.245-1.945-0.386-3.018-0.386-3.666 0-6.947 1.643-9.149 4.233l-0.014 0.017-1.19 1.412-2.778-0.67c-0.29-0.105-0.626-0.165-0.975-0.165-1.143 0-2.136 0.648-2.63 1.597l-0.008 0.017-2.347 4.16c-0.086 0.15-0.138 0.331-0.138 0.524 0 0.51 0.358 0.937 0.836 1.042l0.007 0.002 3.278 0.702c-0.254 0.741-0.461 1.618-0.584 2.522l-0.008 0.074c-0.006 0.042-0.009 0.089-0.009 0.138 0 0.294 0.119 0.562 0.313 0.754l3.306 3.306c0.193 0.193 0.459 0.313 0.754 0.313 0 0 0 0 0 0v0c0.030 0 0.062-0.002 0.093-0.004 0.982-0.090 1.886-0.275 2.75-0.548l-0.092 0.025 0.686 3.203c0.107 0.486 0.534 0.843 1.043 0.843 0.193 0 0.373-0.051 0.529-0.14l-0.006 0.002 4.166-2.35c0.939-0.578 1.557-1.6 1.557-2.767 0-0.269-0.033-0.53-0.094-0.779l0.005 0.022-0.714-2.943 1.319-1.214c2.613-2.207 4.262-5.485 4.262-9.148 0-1.079-0.143-2.125-0.411-3.119l0.019 0.084zM11.010 18.638l1.66-2.944c0.15-0.286 0.444-0.477 0.782-0.477 0.13 0 0.253 0.028 0.364 0.078l-0.006-0.002 1.832 0.444-0.694 0.823c-0.626 0.746-1.19 1.586-1.658 2.481l-0.037 0.077zM24.312 27.408l-2.897 1.634-0.458-2.138c0.981-0.494 1.827-1.070 2.588-1.739l-0.014 0.011 0.793-0.73 0.43 1.775c0.022 0.082 0.034 0.177 0.034 0.274 0 0.376-0.187 0.709-0.474 0.91l-0.003 0.002zM26.034 19.978l-3.93 3.612c-1.495 1.298-3.382 2.182-5.462 2.452l-0.053 0.006-2.565-2.565c0.37-2.142 1.276-4.027 2.575-5.57l-0.014 0.018 1.79-2.126c0.029-0.030 0.056-0.062 0.082-0.096l0.002-0.002 1.53-1.818c1.827-2.148 4.532-3.502 7.553-3.502 0.652 0 1.29 0.063 1.906 0.183l-0.062-0.010c0.114 0.562 0.179 1.208 0.179 1.87 0 3.026-1.366 5.732-3.516 7.536l-0.015 0.013zM25.050 13.404c-0.884 0-1.6 0.716-1.6 1.6s0.716 1.6 1.6 1.6c0.884 0 1.6-0.716 1.6-1.6v0c0 0 0 0 0 0 0-0.883-0.716-1.6-1.6-1.6 0 0 0 0 0 0v0z"></path>
</svg>
