<!-- Generated by IcoMoon.io -->
<svg version="1.1" xmlns="http://www.w3.org/2000/svg" width="40" height="40" viewBox="0 0 40 40">
<title>ul-shield-slash</title>
<path fill="#ebebeb" d="M30.358 28.842l-19.2-19.2c-0.194-0.194-0.462-0.314-0.758-0.314-0.591 0-1.071 0.479-1.071 1.071 0 0.296 0.12 0.563 0.314 0.758v0l1.824 1.814v6.902c0.002 3.207 1.576 6.046 3.993 7.789l0.029 0.019 3.894 2.784c0.172 0.124 0.386 0.198 0.618 0.198s0.446-0.074 0.622-0.2l-0.003 0.002 3.894-2.784c0.342-0.243 0.641-0.488 0.922-0.751l-0.005 0.005 3.414 3.424c0.194 0.195 0.462 0.315 0.758 0.315s0.564-0.121 0.758-0.315v0c0.195-0.194 0.315-0.462 0.315-0.758s-0.121-0.564-0.315-0.758v0zM23.274 25.952l-3.274 2.336-3.274-2.336c-1.902-1.371-3.126-3.58-3.126-6.075 0-0.002 0-0.004 0-0.006v0-4.768l10.314 10.326c-0.202 0.182-0.416 0.352-0.64 0.522zM17.942 12.608c0.79-0.267 1.47-0.585 2.108-0.966l-0.050 0.027c1.551 0.958 3.432 1.526 5.445 1.526 0.336 0 0.669-0.016 0.997-0.047l-0.042 0.003v6.72c0 0.003 0 0.008 0 0.012 0 0.441-0.039 0.872-0.113 1.291l0.006-0.044c-0.009 0.052-0.014 0.112-0.014 0.173 0 0.53 0.386 0.97 0.894 1.053l0.006 0.001h0.17c0.004 0 0.009 0 0.014 0 0.529 0 0.968-0.385 1.052-0.89l0.001-0.006c0.080-0.48 0.126-1.034 0.128-1.598v-7.938c-0.002-0.331-0.155-0.626-0.393-0.82l-0.002-0.002c-0.183-0.152-0.42-0.244-0.679-0.244-0.073 0-0.144 0.007-0.213 0.022l0.007-0.001c-0.536 0.122-1.152 0.191-1.784 0.191-1.822 0-3.509-0.579-4.887-1.563l0.026 0.018c-0.17-0.119-0.381-0.19-0.608-0.19s-0.438 0.071-0.611 0.193l0.003-0.002c-0.614 0.429-1.32 0.79-2.074 1.049l-0.060 0.018c-0.426 0.147-0.728 0.545-0.728 1.014 0 0.59 0.478 1.070 1.070 1.070 0.122 0 0.239-0.021 0.349-0.058l-0.007 0.002z"></path>
</svg>
