<!-- Generated by IcoMoon.io -->
<svg version="1.1" xmlns="http://www.w3.org/2000/svg" width="40" height="40" viewBox="0 0 40 40">
<title>ul-surprise</title>
<path fill="#ebebeb" d="M20 9.334c-5.891 0-10.666 4.776-10.666 10.666s4.776 10.666 10.666 10.666c5.891 0 10.666-4.776 10.666-10.666v0c0-5.891-4.776-10.666-10.666-10.666v0zM20 28.534c-4.713 0-8.534-3.821-8.534-8.534s3.821-8.534 8.534-8.534c4.713 0 8.534 3.821 8.534 8.534v0c0 4.713-3.821 8.534-8.534 8.534v0zM17.866 16.8c0-0.589-0.478-1.066-1.066-1.066s-1.066 0.478-1.066 1.066c0 0.589 0.478 1.066 1.066 1.066v0c0.589 0 1.066-0.478 1.066-1.066v0zM23.2 15.734c-0.589 0-1.066 0.478-1.066 1.066s0.478 1.066 1.066 1.066c0.589 0 1.066-0.478 1.066-1.066v0c0-0.589-0.478-1.066-1.066-1.066v0zM20 18.934c-1.933 0.082-3.469 1.668-3.469 3.613 0 0.042 0.001 0.085 0.002 0.126v-0.006c-0.002 0.036-0.002 0.078-0.002 0.12 0 1.946 1.536 3.532 3.462 3.613h0.007c1.933-0.082 3.469-1.668 3.469-3.613 0-0.042-0.001-0.085-0.002-0.126v0.006c0.002-0.036 0.002-0.078 0.002-0.12 0-1.946-1.536-3.532-3.462-3.613h-0.007zM20 24.266c-0.754-0.076-1.338-0.707-1.338-1.476 0-0.044 0.002-0.087 0.006-0.13l-0.001 0.006c-0.003-0.038-0.006-0.081-0.006-0.124 0-0.768 0.584-1.4 1.332-1.475l0.006-0.001c0.754 0.076 1.338 0.707 1.338 1.476 0 0.044-0.002 0.087-0.006 0.13l0.001-0.006c0.003 0.038 0.006 0.081 0.006 0.124 0 0.768-0.584 1.4-1.332 1.475l-0.006 0.001z"></path>
</svg>
