<!-- Generated by IcoMoon.io -->
<svg version="1.1" xmlns="http://www.w3.org/2000/svg" width="40" height="40" viewBox="0 0 40 40">
<title>ul-search-alt</title>
<path fill="#ebebeb" d="M29.674 25.152l-2.208-2.262c-0.588-0.56-1.386-0.904-2.263-0.904-0.494 0-0.963 0.109-1.383 0.305l0.020-0.009-0.96-0.96c0.93-1.231 1.489-2.787 1.489-4.474 0-4.124-3.343-7.466-7.466-7.466s-7.466 3.343-7.466 7.466c0 4.124 3.343 7.466 7.466 7.466 1.686 0 3.242-0.559 4.493-1.502l-0.019 0.014 0.95 0.95c-0.219 0.422-0.348 0.922-0.348 1.452 0 0.872 0.349 1.662 0.914 2.239l2.261 2.261c0.579 0.578 1.378 0.936 2.262 0.936s1.682-0.358 2.262-0.936v0c0.594-0.582 0.963-1.392 0.963-2.288s-0.369-1.706-0.962-2.287l-0.001-0.001zM20.63 20.63c-0.965 0.962-2.296 1.558-3.766 1.558-2.946 0-5.334-2.388-5.334-5.334s2.388-5.334 5.334-5.334c1.47 0 2.802 0.595 3.766 1.558v0c0.968 0.966 1.567 2.301 1.567 3.776s-0.599 2.81-1.566 3.776v0zM28.17 28.17c-0.194 0.195-0.462 0.315-0.758 0.315s-0.564-0.121-0.758-0.315l-2.262-2.262c-0.195-0.194-0.315-0.462-0.315-0.758s0.121-0.564 0.315-0.758v0c0.194-0.195 0.462-0.315 0.758-0.315s0.564 0.121 0.758 0.315l2.262 2.262c0.195 0.194 0.315 0.462 0.315 0.758s-0.121 0.564-0.315 0.758v0z"></path>
</svg>
