<!-- Generated by IcoMoon.io -->
<svg version="1.1" xmlns="http://www.w3.org/2000/svg" width="40" height="40" viewBox="0 0 40 40">
<title>ul-shuffle</title>
<path fill="#ebebeb" d="M10.4 17.866c0.589 0 1.066-0.478 1.066-1.066v0-3.83l4.864 4.896c0.194 0.202 0.466 0.326 0.768 0.326s0.574-0.125 0.768-0.326v0c0.192-0.193 0.31-0.458 0.31-0.752s-0.118-0.559-0.31-0.752l-4.896-4.896h3.83c0.589 0 1.066-0.478 1.066-1.066s-0.478-1.066-1.066-1.066v0h-6.4c-0.147 0.002-0.286 0.033-0.412 0.088l0.007-0.002c-0.262 0.11-0.466 0.314-0.574 0.569l-0.002 0.007c-0.052 0.119-0.083 0.258-0.086 0.405v6.401c0 0.589 0.478 1.066 1.066 1.066v0zM23.52 22.134c-0.186-0.159-0.428-0.257-0.694-0.257-0.589 0-1.066 0.478-1.066 1.066 0 0.266 0.097 0.509 0.258 0.695l-0.001-0.002 6.688 6.698c0.193 0.191 0.458 0.31 0.751 0.31 0.002 0 0.004 0 0.006 0v0c0.002 0 0.004 0 0.006 0 0.293 0 0.558-0.118 0.751-0.31v0c0.195-0.194 0.315-0.462 0.315-0.758s-0.121-0.564-0.315-0.758v0zM16.8 28.534h-3.83l17.386-17.376c0.194-0.194 0.314-0.462 0.314-0.758 0-0.591-0.479-1.071-1.071-1.071-0.296 0-0.563 0.12-0.758 0.314l-17.376 17.386v-3.83c0-0.589-0.478-1.066-1.066-1.066s-1.066 0.478-1.066 1.066v0 6.4c0.002 0.147 0.033 0.286 0.088 0.412l-0.002-0.007c0.11 0.262 0.314 0.466 0.569 0.574l0.007 0.002c0.119 0.052 0.258 0.083 0.405 0.086h6.401c0.589 0 1.066-0.478 1.066-1.066s-0.478-1.066-1.066-1.066v0z"></path>
</svg>
