<!-- Generated by IcoMoon.io -->
<svg version="1.1" xmlns="http://www.w3.org/2000/svg" width="40" height="40" viewBox="0 0 40 40">
<title>ul-ship</title>
<path fill="#ebebeb" d="M11.062 25.632c0.162 0.398 0.545 0.673 0.992 0.673 0.59 0 1.068-0.478 1.068-1.068 0-0.142-0.028-0.278-0.078-0.402l0.002 0.007-1.194-3.008 7.082-1.568v5.066c0 0.589 0.478 1.066 1.066 1.066s1.066-0.478 1.066-1.066v0-5.066l7.082 1.568-1.194 3.008c-0.048 0.117-0.076 0.253-0.076 0.395 0 0.447 0.275 0.83 0.666 0.989l0.007 0.002c0.116 0.047 0.251 0.074 0.392 0.074 0.001 0 0.002 0 0.002 0v0c0 0 0.001 0 0.001 0 0.447 0 0.83-0.275 0.989-0.665l0.002-0.007 1.654-4.17c0.047-0.116 0.074-0.25 0.074-0.39 0-0.185-0.047-0.359-0.13-0.511l0.002 0.006c-0.145-0.272-0.396-0.471-0.697-0.542l-0.007-0.002-3.434-0.758v-4.598c0-0.589-0.478-1.066-1.066-1.066v0h-2.134v-3.2c0-0.589-0.478-1.066-1.066-1.066v0h-4.266c-0.589 0-1.066 0.478-1.066 1.066v0 3.2h-2.134c-0.589 0-1.066 0.478-1.066 1.066v0 4.598l-3.434 0.736c-0.308 0.073-0.559 0.272-0.701 0.538l-0.003 0.006c-0.080 0.146-0.127 0.32-0.127 0.506 0 0.141 0.027 0.274 0.077 0.398l-0.002-0.007zM18.934 11.466h2.134v2.134h-2.134zM15.734 15.734h8.534v3.050l-4.032-0.918h-0.47l-4.032 0.918zM29.29 27.766c-0.406 0.126-0.76 0.29-1.086 0.491l0.020-0.011c-0.321 0.19-0.707 0.303-1.12 0.303s-0.799-0.113-1.13-0.309l0.010 0.006c-0.697-0.4-1.531-0.636-2.422-0.636s-1.725 0.236-2.446 0.649l0.024-0.013c-0.325 0.189-0.714 0.3-1.13 0.3s-0.806-0.111-1.142-0.306l0.011 0.006c-0.697-0.398-1.532-0.633-2.422-0.633s-1.724 0.234-2.446 0.646l0.025-0.013c-0.321 0.19-0.707 0.303-1.12 0.303s-0.799-0.113-1.13-0.309l0.010 0.006c-0.306-0.19-0.66-0.354-1.034-0.471l-0.033-0.009c-0.106-0.039-0.23-0.062-0.358-0.062-0.505 0-0.928 0.351-1.038 0.822l-0.002 0.007c-0.028 0.090-0.043 0.194-0.043 0.302 0 0.479 0.316 0.884 0.75 1.019l0.007 0.002c0.231 0.063 0.433 0.154 0.617 0.272l-0.009-0.006c0.611 0.365 1.346 0.582 2.132 0.586h0.002c0 0 0.001 0 0.001 0 0.817 0 1.582-0.222 2.238-0.609l-0.021 0.011c0.394-0.222 0.864-0.351 1.366-0.351s0.971 0.13 1.379 0.359l-0.014-0.007c0.631 0.367 1.389 0.584 2.198 0.584s1.566-0.217 2.218-0.595l-0.021 0.011c0.394-0.222 0.864-0.351 1.366-0.351s0.971 0.13 1.379 0.359l-0.014-0.007c0.625 0.378 1.379 0.603 2.186 0.603s1.562-0.224 2.206-0.614l-0.019 0.010c0.175-0.112 0.377-0.203 0.592-0.263l0.016-0.004c0.491-0.102 0.855-0.531 0.855-1.046 0-0.094-0.012-0.186-0.035-0.274l0.002 0.007c-0.114-0.475-0.536-0.823-1.038-0.823-0.121 0-0.237 0.020-0.345 0.057l0.007-0.002z"></path>
</svg>
