<!-- Generated by IcoMoon.io -->
<svg version="1.1" xmlns="http://www.w3.org/2000/svg" width="40" height="40" viewBox="0 0 40 40">
<title>ul-signin</title>
<path fill="#ebebeb" d="M28.534 20c0-0.589-0.478-1.066-1.066-1.066v0h-8.096l2.454-2.442c0.194-0.194 0.314-0.462 0.314-0.758 0-0.591-0.479-1.071-1.071-1.071-0.296 0-0.563 0.12-0.758 0.314l-4.266 4.266c-0.094 0.098-0.17 0.215-0.222 0.345l-0.002 0.007c-0.050 0.12-0.080 0.259-0.080 0.406s0.030 0.286 0.082 0.412l-0.002-0.007c0.054 0.137 0.13 0.254 0.224 0.352v0l4.266 4.266c0.194 0.195 0.462 0.315 0.758 0.315s0.564-0.121 0.758-0.315v0c0.195-0.194 0.315-0.462 0.315-0.758s-0.121-0.564-0.315-0.758v0l-2.454-2.442h8.096c0.589 0 1.066-0.478 1.066-1.066v0zM25.334 9.334h-10.666c-1.767 0-3.2 1.433-3.2 3.2v0 14.934c0 1.767 1.433 3.2 3.2 3.2v0h10.666c1.767 0 3.2-1.433 3.2-3.2v0-3.2c0-0.589-0.478-1.066-1.066-1.066s-1.066 0.478-1.066 1.066v0 3.2c0 0.589-0.478 1.066-1.066 1.066v0h-10.666c-0.589 0-1.066-0.478-1.066-1.066v0-14.934c0-0.589 0.478-1.066 1.066-1.066v0h10.666c0.589 0 1.066 0.478 1.066 1.066v0 3.2c0 0.589 0.478 1.066 1.066 1.066s1.066-0.478 1.066-1.066v0-3.2c0-1.767-1.433-3.2-3.2-3.2v0z"></path>
</svg>
