<!-- Generated by IcoMoon.io -->
<svg version="1.1" xmlns="http://www.w3.org/2000/svg" width="40" height="40" viewBox="0 0 40 40">
<title>ul-sort</title>
<path fill="#ebebeb" d="M24.576 22.442l-4.576 4.586-4.576-4.586c-0.194-0.194-0.462-0.314-0.758-0.314-0.591 0-1.071 0.479-1.071 1.071 0 0.296 0.12 0.563 0.314 0.758l5.334 5.334c0.194 0.195 0.462 0.315 0.758 0.315s0.564-0.121 0.758-0.315l5.334-5.334c0.194-0.194 0.314-0.462 0.314-0.758 0-0.591-0.479-1.071-1.071-1.071-0.296 0-0.563 0.12-0.758 0.314v0zM15.424 17.558l4.576-4.586 4.576 4.586c0.194 0.195 0.462 0.315 0.758 0.315s0.564-0.121 0.758-0.315v0c0.195-0.194 0.315-0.462 0.315-0.758s-0.121-0.564-0.315-0.758l-5.334-5.334c-0.194-0.195-0.462-0.315-0.758-0.315s-0.564 0.121-0.758 0.315l-5.334 5.334c-0.194 0.194-0.314 0.462-0.314 0.758 0 0.591 0.479 1.071 1.071 1.071 0.296 0 0.563-0.12 0.758-0.314v0z"></path>
</svg>
