<!-- Generated by IcoMoon.io -->
<svg version="1.1" xmlns="http://www.w3.org/2000/svg" width="40" height="40" viewBox="0 0 40 40">
<title>ul-spin</title>
<path fill="#ebebeb" d="M21.066 10.4c-4.124 0-7.466 3.343-7.466 7.466s3.343 7.466 7.466 7.466v0c2.946 0 5.334-2.388 5.334-5.334s-2.388-5.334-5.334-5.334v0c-1.767 0-3.2 1.433-3.2 3.2s1.433 3.2 3.2 3.2v0c0.589 0 1.066-0.478 1.066-1.066s-0.478-1.066-1.066-1.066v0c-0.589 0-1.066-0.478-1.066-1.066s0.478-1.066 1.066-1.066v0c1.767 0 3.2 1.433 3.2 3.2s-1.433 3.2-3.2 3.2v0c-2.946 0-5.334-2.388-5.334-5.334s2.388-5.334 5.334-5.334v0c4.124 0 7.466 3.343 7.466 7.466s-3.343 7.466-7.466 7.466v0c-5.302 0-9.6-4.298-9.6-9.6v0c0-0.589-0.478-1.066-1.066-1.066s-1.066 0.478-1.066 1.066v0c0 6.48 5.253 11.734 11.734 11.734v0c5.302 0 9.6-4.298 9.6-9.6s-4.298-9.6-9.6-9.6v0z"></path>
</svg>
