<!-- Generated by IcoMoon.io -->
<svg version="1.1" xmlns="http://www.w3.org/2000/svg" width="40" height="40" viewBox="0 0 40 40">
<title>ul-shopping-cart-alt</title>
<path fill="#ebebeb" d="M30.134 23.2c-0.005-1.34-0.834-2.486-2.005-2.958l-0.022-0.008 1.994-7.466c0.022-0.081 0.035-0.174 0.035-0.27 0-0.249-0.086-0.478-0.229-0.66l0.002 0.002c-0.197-0.23-0.487-0.374-0.811-0.374-0.011 0-0.022 0-0.034 0.001h-14.612l-0.352-1.344c-0.126-0.458-0.539-0.79-1.030-0.79-0.002 0-0.003 0-0.005 0h-2.133v2.134h1.312l2.646 9.878c0.126 0.458 0.539 0.79 1.030 0.79 0.013 0 0.026 0 0.038-0.001h10.974c0.589 0 1.066 0.478 1.066 1.066s-0.478 1.066-1.066 1.066v0h-13.866c-0.589 0-1.066 0.478-1.066 1.066s0.478 1.066 1.066 1.066v0h1.258c-0.122 0.325-0.192 0.7-0.192 1.092 0 1.767 1.433 3.2 3.2 3.2s3.2-1.433 3.2-3.2c0-0.392-0.070-0.767-0.199-1.114l0.007 0.022h2.518c-0.122 0.325-0.192 0.7-0.192 1.091 0 1.767 1.433 3.2 3.2 3.2s3.2-1.433 3.2-3.2c0-0.009 0-0.018 0-0.026v0.002c-0.002-0.578-0.16-1.118-0.434-1.582l0.008 0.014c0.901-0.574 1.49-1.567 1.494-2.698v-0.001zM25.962 20h-9.162l-1.77-6.4h12.65zM17.334 28.534c-0.589 0-1.066-0.478-1.066-1.066s0.478-1.066 1.066-1.066c0.589 0 1.066 0.478 1.066 1.066v0c0 0.589-0.478 1.066-1.066 1.066v0zM25.866 28.534c-0.589 0-1.066-0.478-1.066-1.066s0.478-1.066 1.066-1.066c0.589 0 1.066 0.478 1.066 1.066v0c0 0.589-0.478 1.066-1.066 1.066v0z"></path>
</svg>
