<!-- Generated by IcoMoon.io -->
<svg version="1.1" xmlns="http://www.w3.org/2000/svg" width="40" height="40" viewBox="0 0 40 40">
<title>ul-snapchat-ghost</title>
<path fill="#ebebeb" d="M30.45 25.32c-3.058-0.504-4.428-3.628-4.484-3.761l-0.006-0.013c-0.106-0.17-0.168-0.375-0.168-0.596 0-0.13 0.022-0.254 0.061-0.37l-0.002 0.008c0.206-0.484 0.885-0.699 1.334-0.842 0.112-0.036 0.218-0.070 0.302-0.102 0.814-0.322 0.979-0.654 0.975-0.877-0.045-0.286-0.256-0.512-0.53-0.579l-0.005-0.001-0.006-0.002c-0.111-0.046-0.241-0.073-0.376-0.073-0.002 0-0.002 0-0.004 0v0c-0.004 0-0.009 0-0.014 0-0.116 0-0.226 0.025-0.325 0.068l0.005-0.002c-0.296 0.153-0.642 0.254-1.010 0.283l-0.010 0.001c-0.006 0-0.014 0-0.021 0-0.206 0-0.396-0.071-0.546-0.19l0.002 0.002c0.010-0.182 0.022-0.368 0.034-0.566l0.004-0.070c0.069-0.458 0.108-0.986 0.108-1.522 0-0.989-0.134-1.947-0.382-2.857l0.018 0.076c-0.888-1.989-2.849-3.349-5.126-3.349-0.025 0-0.050 0-0.075 0.001h0.004q-0.214 0.002-0.43 0.004c-0.021 0-0.045-0.001-0.069-0.001-2.275 0-4.234 1.36-5.106 3.311l-0.014 0.035c-0.232 0.834-0.366 1.791-0.366 2.78 0 0.536 0.039 1.063 0.115 1.578l-0.007-0.058q0.021 0.318 0.038 0.638c-0.152 0.12-0.346 0.193-0.558 0.193-0.022 0-0.046-0.001-0.067-0.002h0.003c-0.398-0.018-0.767-0.121-1.096-0.293l0.014 0.007c-0.073-0.033-0.158-0.052-0.248-0.052-0.005 0-0.010 0-0.014 0h0.001c-0.010-0.001-0.022-0.001-0.035-0.001-0.376 0-0.698 0.233-0.827 0.563l-0.002 0.006c-0.087 0.459 0.569 0.792 0.967 0.95 0.084 0.034 0.19 0.067 0.302 0.102 0.45 0.142 1.13 0.358 1.335 0.842 0.037 0.108 0.058 0.232 0.058 0.362 0 0.221-0.062 0.426-0.17 0.601l0.003-0.005-0.006 0.012c-0.315 0.678-0.696 1.262-1.148 1.782l0.008-0.010c-0.823 1.018-1.984 1.736-3.31 1.983l-0.034 0.006c-0.122 0.021-0.214 0.126-0.214 0.252 0 0.005 0 0.010 0.001 0.015v-0.001c0.003 0.050 0.015 0.098 0.034 0.141l-0.001-0.002c0.187 0.438 1.129 0.801 2.722 1.046 0.149 0.023 0.212 0.266 0.299 0.664 0.034 0.159 0.070 0.325 0.121 0.495 0.031 0.142 0.156 0.246 0.305 0.246 0.013 0 0.025-0.001 0.037-0.002h-0.002c0.166-0.010 0.321-0.033 0.471-0.069l-0.018 0.004c0.358-0.082 0.77-0.13 1.192-0.135h0.003c0.305 0.001 0.603 0.027 0.893 0.078l-0.031-0.005c0.631 0.163 1.181 0.453 1.644 0.842l-0.006-0.005c0.771 0.662 1.766 1.081 2.858 1.13h0.010c0.036 0 0.072-0.002 0.106-0.004 0.044 0.002 0.102 0.004 0.162 0.004 1.103-0.050 2.099-0.47 2.877-1.137l-0.006 0.006c0.456-0.383 1.005-0.673 1.607-0.829l0.029-0.006c0.258-0.046 0.557-0.072 0.861-0.073h0.001c0.424 0.002 0.837 0.048 1.234 0.134l-0.039-0.007c0.134 0.030 0.29 0.051 0.449 0.057h0.030c0.007 0.001 0.015 0.001 0.024 0.001 0.143 0 0.262-0.101 0.291-0.234v-0.002c0.050-0.168 0.086-0.329 0.122-0.492 0.086-0.396 0.15-0.638 0.298-0.661 1.594-0.246 2.535-0.608 2.721-1.044 0.018-0.041 0.030-0.089 0.034-0.138v-0.001c0-0.004 0.001-0.009 0.001-0.014 0-0.126-0.092-0.232-0.213-0.252h-0.002z"></path>
</svg>
