<!-- Generated by IcoMoon.io -->
<svg version="1.1" xmlns="http://www.w3.org/2000/svg" width="40" height="40" viewBox="0 0 40 40">
<title>ul-streering</title>
<path fill="#ebebeb" d="M20 20c-0.589 0-1.066 0.478-1.066 1.066s0.478 1.066 1.066 1.066c0.589 0 1.066-0.478 1.066-1.066v0c0-0.589-0.478-1.066-1.066-1.066v0zM30.358 17.482c-1.201-4.674-5.377-8.074-10.346-8.074s-9.146 3.399-10.33 7.999l-0.016 0.074c-0.197 0.756-0.31 1.623-0.31 2.518s0.113 1.762 0.325 2.59l-0.016-0.072c0.962 3.861 3.934 6.846 7.713 7.814l0.074 0.016c0.753 0.197 1.617 0.31 2.506 0.31s1.754-0.113 2.578-0.325l-0.071 0.016c3.85-0.974 6.823-3.947 7.782-7.723l0.016-0.074c0.197-0.756 0.31-1.623 0.31-2.518s-0.113-1.762-0.325-2.59l0.016 0.072zM20 11.466c3.557 0.003 6.604 2.182 7.883 5.277l0.021 0.057h-15.808c1.3-3.152 4.347-5.33 7.904-5.334v0zM11.466 20c0.003-0.38 0.030-0.75 0.080-1.112l-0.005 0.046h2.058v2.134h-2.058c-0.044-0.318-0.071-0.687-0.074-1.062v-0.004zM16.8 27.904c-2.146-0.886-3.818-2.558-4.683-4.647l-0.021-0.057h2.57c1.178 0 2.134 0.955 2.134 2.134v0zM21.066 28.458c-0.318 0.044-0.687 0.071-1.062 0.074h-0.004c-0.38-0.003-0.75-0.030-1.112-0.080l0.046 0.005v-2.058h2.134zM21.216 24.266h-2.432c-0.4-1.496-1.554-2.651-3.021-3.044l-0.030-0.007v-2.282h8.534v2.282c-1.496 0.4-2.651 1.554-3.044 3.021l-0.007 0.030zM23.2 27.904v-2.57c0-1.178 0.955-2.134 2.134-2.134v0h2.57c-0.886 2.146-2.558 3.818-4.647 4.683l-0.057 0.021zM28.458 21.066h-2.058v-2.134h2.058c0.044 0.318 0.071 0.687 0.074 1.062v0.004c-0.003 0.38-0.030 0.75-0.080 1.112l0.005-0.046z"></path>
</svg>
