<!-- Generated by IcoMoon.io -->
<svg version="1.1" xmlns="http://www.w3.org/2000/svg" width="40" height="40" viewBox="0 0 40 40">
<title>ul-subject</title>
<path fill="#ebebeb" d="M21.066 24.266h-10.666c-0.589 0-1.066 0.478-1.066 1.066s0.478 1.066 1.066 1.066v0h10.666c0.589 0 1.066-0.478 1.066-1.066s-0.478-1.066-1.066-1.066v0zM10.4 15.734h19.2c0.589 0 1.066-0.478 1.066-1.066s-0.478-1.066-1.066-1.066v0h-19.2c-0.589 0-1.066 0.478-1.066 1.066s0.478 1.066 1.066 1.066v0zM29.6 18.934h-19.2c-0.589 0-1.066 0.478-1.066 1.066s0.478 1.066 1.066 1.066v0h19.2c0.589 0 1.066-0.478 1.066-1.066s-0.478-1.066-1.066-1.066v0z"></path>
</svg>
