<!-- Generated by IcoMoon.io -->
<svg version="1.1" xmlns="http://www.w3.org/2000/svg" width="40" height="40" viewBox="0 0 40 40">
<title>ul-sigma</title>
<path fill="#ebebeb" d="M24.266 24.266h-5.962l3.52-3.51c0.195-0.194 0.315-0.462 0.315-0.758s-0.121-0.564-0.315-0.758v0l-3.52-3.51h5.962c0.589 0 1.066-0.478 1.066-1.066s-0.478-1.066-1.066-1.066v0h-8.534c-0.441 0.002-0.818 0.271-0.978 0.654l-0.002 0.007c-0.053 0.122-0.083 0.264-0.083 0.414 0 0.292 0.118 0.557 0.307 0.75v0l4.586 4.576-4.586 4.576c-0.19 0.193-0.307 0.457-0.307 0.749 0 0.15 0.030 0.291 0.086 0.421l-0.002-0.007c0.163 0.39 0.541 0.659 0.981 0.662h8.534c0.589 0 1.066-0.478 1.066-1.066s-0.478-1.066-1.066-1.066v0z"></path>
</svg>
