<!-- Generated by IcoMoon.io -->
<svg version="1.1" xmlns="http://www.w3.org/2000/svg" width="40" height="40" viewBox="0 0 40 40">
<title>ul-smile-dizzy</title>
<path fill="#ebebeb" d="M22.518 22.378c-0.682 0.554-1.561 0.889-2.518 0.889s-1.835-0.335-2.525-0.894l0.007 0.006c-0.184-0.154-0.422-0.246-0.682-0.246-0.59 0-1.068 0.478-1.068 1.068 0 0.33 0.149 0.624 0.384 0.82l0.002 0.002c1.043 0.876 2.401 1.407 3.882 1.407s2.839-0.532 3.892-1.415l-0.010 0.008c0.236-0.198 0.386-0.492 0.386-0.822 0-0.59-0.478-1.068-1.068-1.068-0.261 0-0.499 0.093-0.684 0.248l0.002-0.002zM16.8 19.69l0.31-0.32 0.31 0.32c0.194 0.195 0.462 0.315 0.758 0.315s0.564-0.121 0.758-0.315v0c0.195-0.194 0.315-0.462 0.315-0.758s-0.121-0.564-0.315-0.758v0l-0.32-0.31 0.32-0.31c0.19-0.195 0.307-0.462 0.307-0.758 0-0.6-0.486-1.086-1.086-1.086-0.306 0-0.581 0.126-0.778 0.329v0l-0.31 0.32-0.266-0.32c-0.198-0.203-0.474-0.329-0.778-0.329-0.6 0-1.086 0.486-1.086 1.086 0 0.294 0.118 0.562 0.308 0.758v0l0.32 0.31-0.32 0.31c-0.195 0.194-0.315 0.462-0.315 0.758s0.121 0.564 0.315 0.758v0c0.194 0.195 0.462 0.315 0.758 0.315s0.564-0.121 0.758-0.315v0zM20 9.334c-5.891 0-10.666 4.776-10.666 10.666s4.776 10.666 10.666 10.666c5.891 0 10.666-4.776 10.666-10.666v0c0-5.891-4.776-10.666-10.666-10.666v0zM20 28.534c-4.713 0-8.534-3.821-8.534-8.534s3.821-8.534 8.534-8.534c4.713 0 8.534 3.821 8.534 8.534v0c0 4.713-3.821 8.534-8.534 8.534v0zM25.334 16.042c-0.194-0.195-0.462-0.315-0.758-0.315s-0.564 0.121-0.758 0.315v0l-0.31 0.32-0.31-0.32c-0.194-0.194-0.462-0.314-0.758-0.314-0.591 0-1.071 0.479-1.071 1.071 0 0.296 0.12 0.563 0.314 0.758v0l0.32 0.31-0.32 0.31c-0.195 0.194-0.315 0.462-0.315 0.758s0.121 0.564 0.315 0.758v0c0.194 0.195 0.462 0.315 0.758 0.315s0.564-0.121 0.758-0.315v0l0.31-0.32 0.31 0.32c0.194 0.195 0.462 0.315 0.758 0.315s0.564-0.121 0.758-0.315v0c0.195-0.194 0.315-0.462 0.315-0.758s-0.121-0.564-0.315-0.758v0l-0.32-0.31 0.32-0.31c0.195-0.194 0.315-0.462 0.315-0.758s-0.121-0.564-0.315-0.758v0z"></path>
</svg>
