<!-- Generated by IcoMoon.io -->
<svg version="1.1" xmlns="http://www.w3.org/2000/svg" width="40" height="40" viewBox="0 0 40 40">
<title>ul-traffic-light</title>
<path fill="#ebebeb" d="M20 13.066c-0.884 0-1.6 0.716-1.6 1.6s0.716 1.6 1.6 1.6c0.884 0 1.6-0.716 1.6-1.6v0c0-0.884-0.716-1.6-1.6-1.6v0zM30.666 16.266h-0.576c1.016-1.126 1.639-2.623 1.642-4.266v-0.001c0-0.589-0.478-1.066-1.066-1.066v0h-4.458c-0.451-1.25-1.626-2.13-3.007-2.134h-6.401c-1.382 0.004-2.557 0.882-3.001 2.111l-0.007 0.022h-4.458c-0.589 0-1.066 0.478-1.066 1.066v0c0.004 1.644 0.626 3.141 1.648 4.272l-0.005-0.006h-0.576c-0.589 0-1.066 0.478-1.066 1.066v0c0.004 1.644 0.626 3.141 1.648 4.272l-0.005-0.006h-0.576c-0.589 0-1.066 0.478-1.066 1.066v0c0.006 3.214 2.38 5.871 5.47 6.321l0.034 0.004c0.43 1.289 1.622 2.202 3.029 2.208h6.401c1.407-0.006 2.6-0.919 3.023-2.186l0.006-0.022c3.124-0.454 5.498-3.112 5.504-6.325v-0.001c0-0.589-0.478-1.066-1.066-1.066v0h-0.576c1.016-1.126 1.639-2.623 1.642-4.266v-0.001c0-0.589-0.478-1.066-1.066-1.066v0zM13.6 26.794c-1.503-0.398-2.663-1.558-3.054-3.031l-0.006-0.030h3.062zM13.6 21.462c-1.503-0.398-2.663-1.558-3.054-3.031l-0.006-0.030h3.062zM13.6 16.128c-0.763-0.193-1.422-0.564-1.954-1.069l0.002 0.002c-0.502-0.53-0.874-1.189-1.060-1.922l-0.006-0.030h3.018zM24.266 28c0 0.589-0.478 1.066-1.066 1.066v0h-6.4c-0.589 0-1.066-0.478-1.066-1.066v0-16c0-0.589 0.478-1.066 1.066-1.066v0h6.4c0.589 0 1.066 0.478 1.066 1.066v0zM28.352 25.686c-0.53 0.502-1.189 0.874-1.922 1.060l-0.030 0.006v-3.018h3.062c-0.205 0.766-0.591 1.425-1.11 1.953l0.001-0.001zM28.352 20.352c-0.53 0.502-1.189 0.874-1.922 1.060l-0.030 0.006v-3.018h3.062c-0.205 0.766-0.591 1.425-1.11 1.953l0.001-0.001zM28.352 15.018c-0.53 0.502-1.189 0.874-1.922 1.060l-0.030 0.006v-3.018h3.062c-0.205 0.766-0.591 1.425-1.11 1.953l0.001-0.001zM20 23.734c-0.884 0-1.6 0.716-1.6 1.6s0.716 1.6 1.6 1.6c0.884 0 1.6-0.716 1.6-1.6v0c0-0.884-0.716-1.6-1.6-1.6v0zM20 18.4c-0.884 0-1.6 0.716-1.6 1.6s0.716 1.6 1.6 1.6c0.884 0 1.6-0.716 1.6-1.6v0c0-0.884-0.716-1.6-1.6-1.6v0z"></path>
</svg>
