<!-- Generated by IcoMoon.io -->
<svg version="1.1" xmlns="http://www.w3.org/2000/svg" width="40" height="40" viewBox="0 0 40 40">
<title>ul-thumbs-up</title>
<path fill="#ebebeb" d="M29.92 17.952c-0.59-0.705-1.47-1.15-2.453-1.152h-4.864l0.598-1.526c0.175-0.457 0.277-0.985 0.277-1.536 0-2.433-1.972-4.406-4.406-4.406-0.007 0-0.014 0-0.022 0h0.001c-0.43 0.001-0.8 0.256-0.968 0.622l-0.002 0.006-3.040 6.838h-2.506c-1.767 0-3.2 1.433-3.2 3.2v0 7.466c0 1.767 1.433 3.2 3.2 3.2v0h13.578c1.563-0.001 2.865-1.122 3.143-2.604l0.003-0.020 1.354-7.466c0.033-0.172 0.051-0.37 0.051-0.572 0-0.783-0.282-1.501-0.749-2.058l0.004 0.005zM14.666 28.534h-2.134c-0.589 0-1.066-0.478-1.066-1.066v0-7.466c0-0.589 0.478-1.066 1.066-1.066v0h2.134zM28.534 20.192l-1.354 7.466c-0.094 0.501-0.528 0.875-1.050 0.875-0.006 0-0.012 0-0.018 0h-9.311v-10.442l2.902-6.528c0.944 0.282 1.621 1.142 1.621 2.161 0 0.29-0.054 0.566-0.154 0.82l0.006-0.015-0.566 1.526c-0.086 0.222-0.135 0.478-0.135 0.746 0 1.177 0.953 2.131 2.13 2.134h4.864c0.001 0 0.001 0 0.002 0 0.329 0 0.622 0.149 0.818 0.382l0.002 0.002c0.162 0.186 0.26 0.43 0.26 0.698 0 0.062-0.006 0.123-0.016 0.183l0.001-0.006z"></path>
</svg>
