<!-- Generated by IcoMoon.io -->
<svg version="1.1" xmlns="http://www.w3.org/2000/svg" width="40" height="40" viewBox="0 0 40 40">
<title>ul-tablets</title>
<path fill="#ebebeb" d="M29.11 10.89c-0.965-0.962-2.296-1.558-3.766-1.558-2.946 0-5.334 2.388-5.334 5.334s2.388 5.334 5.334 5.334c1.47 0 2.802-0.595 3.766-1.558v0c0.968-0.966 1.567-2.301 1.567-3.776s-0.599-2.81-1.566-3.776v0zM23.072 12.406c0.578-0.579 1.378-0.938 2.261-0.938v0c0.498 0.005 0.966 0.122 1.384 0.328l-0.018-0.008-4.266 4.266c-0.195-0.402-0.31-0.874-0.31-1.373 0-0.89 0.363-1.694 0.95-2.274v0zM27.594 16.928c-0.578 0.574-1.374 0.928-2.254 0.928-0.499 0-0.971-0.114-1.392-0.318l0.019 0.008 4.266-4.266c0.195 0.402 0.31 0.874 0.31 1.373 0 0.89-0.363 1.694-0.95 2.274v0zM15.734 17.866c-0.007 0-0.016 0-0.026 0-1.743 0-3.322 0.705-4.466 1.846v0c-1.176 1.161-1.904 2.773-1.904 4.554 0 3.533 2.862 6.397 6.394 6.4v0c1.714-0.001 3.27-0.675 4.418-1.773l-0.002 0.002 0.128-0.086c0.026-0.046 0.050-0.084 0.077-0.121l-0.002 0.003c1.1-1.147 1.778-2.708 1.778-4.426 0-3.534-2.863-6.398-6.396-6.4v0zM12.714 27.286c-0.762-0.77-1.233-1.83-1.233-3 0-0.793 0.216-1.535 0.593-2.171l-0.011 0.020 5.802 5.802c-0.616 0.366-1.359 0.582-2.152 0.582-1.17 0-2.23-0.471-3.001-1.234v0zM19.402 26.4l-5.802-5.802c0.61-0.368 1.345-0.589 2.131-0.598h0.002c2.346 0.014 4.241 1.919 4.241 4.266 0 0.786-0.212 1.522-0.582 2.154l0.011-0.020z"></path>
</svg>
