<!-- Generated by IcoMoon.io -->
<svg version="1.1" xmlns="http://www.w3.org/2000/svg" width="40" height="40" viewBox="0 0 40 40">
<title>ul-tornado</title>
<path fill="#ebebeb" d="M17.866 29.6h-2.134c-0.589 0-1.066 0.478-1.066 1.066s0.478 1.066 1.066 1.066v0h2.134c0.589 0 1.066-0.478 1.066-1.066s-0.478-1.066-1.066-1.066v0zM18.934 25.334h-5.334c-0.589 0-1.066 0.478-1.066 1.066s0.478 1.066 1.066 1.066v0h5.334c0.589 0 1.066-0.478 1.066-1.066s-0.478-1.066-1.066-1.066v0zM26.4 9.334c0-0.589-0.478-1.066-1.066-1.066v0h-14.934c-0.589 0-1.066 0.478-1.066 1.066s0.478 1.066 1.066 1.066v0h14.934c0.589 0 1.066-0.478 1.066-1.066v0zM29.6 12.534h-16c-0.589 0-1.066 0.478-1.066 1.066s0.478 1.066 1.066 1.066v0h16c0.589 0 1.066-0.478 1.066-1.066s-0.478-1.066-1.066-1.066v0zM27.466 16.8h-9.6c-0.589 0-1.066 0.478-1.066 1.066s0.478 1.066 1.066 1.066v0h9.6c0.589 0 1.066-0.478 1.066-1.066s-0.478-1.066-1.066-1.066v0zM22.134 21.066h-6.4c-0.589 0-1.066 0.478-1.066 1.066s0.478 1.066 1.066 1.066v0h6.4c0.589 0 1.066-0.478 1.066-1.066s-0.478-1.066-1.066-1.066v0z"></path>
</svg>
