<!-- Generated by IcoMoon.io -->
<svg version="1.1" xmlns="http://www.w3.org/2000/svg" width="40" height="40" viewBox="0 0 40 40">
<title>ul-twitter-alt</title>
<path fill="#ebebeb" d="M31.724 11.414c0 0 0-0.001 0-0.001 0-0.589-0.478-1.066-1.066-1.066-0.202 0-0.39 0.056-0.55 0.153l0.005-0.002c-0.575 0.349-1.238 0.638-1.942 0.833l-0.056 0.014c-0.955-0.823-2.209-1.325-3.579-1.325-0.007 0-0.014 0-0.021 0h0.001c-3.016 0.003-5.472 2.399-5.572 5.392v0.009c-2.95-0.482-5.478-2.002-7.251-4.165l-0.017-0.021c-0.199-0.241-0.498-0.393-0.833-0.393-0.029 0-0.058 0.001-0.086 0.003h0.004c-0.359 0.030-0.665 0.235-0.834 0.528l-0.002 0.005c-0.468 0.803-0.745 1.768-0.745 2.798 0 0.829 0.179 1.615 0.501 2.324l-0.014-0.035-0.002 0.002c-0.319 0.199-0.528 0.548-0.528 0.946 0 0.001 0 0.002 0 0.002v0c0 0.012 0 0.026 0 0.041 0 0.151 0.010 0.299 0.030 0.445l-0.002-0.017c0.117 1.395 0.734 2.627 1.671 3.532l0.002 0.002c-0.077 0.143-0.122 0.314-0.122 0.495 0 0.117 0.018 0.229 0.054 0.334l-0.002-0.007c0.438 1.338 1.332 2.425 2.494 3.102l0.026 0.014c-0.852 0.339-1.838 0.536-2.872 0.536-0.338 0-0.67-0.021-0.997-0.062l0.039 0.004c-0.040-0.006-0.086-0.008-0.133-0.008-0.589 0-1.066 0.478-1.066 1.066 0 0.374 0.194 0.705 0.486 0.894l0.004 0.002c2.112 1.379 4.698 2.199 7.475 2.199 0.001 0 0.002 0 0.002 0v0c0.046 0.001 0.099 0.001 0.154 0.001 6.234 0 11.49-4.182 13.119-9.892l0.023-0.096c0.36-1.164 0.569-2.502 0.571-3.889v-0.001c0-0.070 0-0.142-0.001-0.214 1.018-1.094 1.642-2.566 1.642-4.185 0-0.104-0.002-0.208-0.008-0.311l0.001 0.014zM28.197 14.839c-0.156 0.183-0.251 0.423-0.251 0.686 0 0.022 0.001 0.045 0.002 0.066v-0.003c0.010 0.176 0.010 0.353 0.010 0.52-0.002 1.173-0.179 2.303-0.506 3.368l0.022-0.082c-1.342 4.91-5.762 8.46-11.012 8.46-0.083 0-0.166-0.001-0.25-0.002h0.012c-0.001 0-0.002 0-0.003 0-0.964 0-1.901-0.117-2.798-0.338l0.080 0.017c1.202-0.394 2.245-0.962 3.16-1.684l-0.022 0.016c0.249-0.197 0.407-0.499 0.407-0.838 0-0.583-0.467-1.057-1.048-1.067h-0.001c-0.923-0.015-1.755-0.393-2.362-0.997v0q0.239-0.046 0.475-0.113c0.451-0.131 0.775-0.541 0.775-1.026 0-0.516-0.366-0.946-0.854-1.046l-0.007-0.001c-1.062-0.215-1.929-0.898-2.391-1.821l-0.009-0.020c0.168 0.024 0.369 0.042 0.572 0.049h0.010c0.005 0 0.010 0 0.017 0 0.478 0 0.883-0.307 1.030-0.735l0.002-0.008c0.032-0.097 0.050-0.208 0.050-0.323 0-0.37-0.188-0.695-0.474-0.886l-0.004-0.002c-0.921-0.62-1.518-1.658-1.518-2.837 0-0.005 0-0.010 0-0.015v0.001c0-0.071 0.002-0.142 0.006-0.211 2.303 2.153 5.354 3.532 8.722 3.71l0.034 0.002c0.013 0.001 0.028 0.001 0.043 0.001 0.331 0 0.628-0.148 0.828-0.382l0.002-0.002c0.154-0.184 0.248-0.422 0.248-0.683 0-0.086-0.010-0.17-0.030-0.25l0.002 0.007c-0.058-0.233-0.092-0.501-0.093-0.777v-0.001c0.002-1.9 1.542-3.439 3.442-3.442v0c0.002 0 0.006 0 0.009 0 0.984 0 1.87 0.418 2.49 1.086l0.002 0.002c0.194 0.208 0.47 0.338 0.776 0.338 0.073 0 0.145-0.007 0.214-0.022l-0.007 0.001c0.508-0.099 0.942-0.218 1.362-0.365l-0.070 0.021c-0.307 0.621-0.672 1.156-1.101 1.633l0.006-0.006z"></path>
</svg>
