<!-- Generated by IcoMoon.io -->
<svg version="1.1" xmlns="http://www.w3.org/2000/svg" width="40" height="40" viewBox="0 0 40 40">
<title>ul-tv-retro</title>
<path fill="#ebebeb" d="M26.4 13.6h-3.83l2.454-2.442c0.194-0.194 0.314-0.462 0.314-0.758 0-0.591-0.479-1.071-1.071-1.071-0.296 0-0.563 0.12-0.758 0.314v0l-3.51 3.466-1.248-2.134c-0.188-0.323-0.533-0.537-0.928-0.537-0.591 0-1.070 0.479-1.070 1.070 0 0.196 0.053 0.38 0.145 0.538l-0.002-0.005 0.97 1.558h-4.266c-1.767 0-3.2 1.433-3.2 3.2v0 8.534c0 1.767 1.433 3.2 3.2 3.2v0 1.066c0 0.589 0.478 1.066 1.066 1.066s1.066-0.478 1.066-1.066v0-1.066h8.534v1.066c0 0.589 0.478 1.066 1.066 1.066s1.066-0.478 1.066-1.066v0-1.066c1.767 0 3.2-1.433 3.2-3.2v0-8.534c0-1.767-1.433-3.2-3.2-3.2v0zM27.466 25.334c0 0.589-0.478 1.066-1.066 1.066v0h-12.8c-0.589 0-1.066-0.478-1.066-1.066v0-8.534c0-0.589 0.478-1.066 1.066-1.066v0h12.8c0.589 0 1.066 0.478 1.066 1.066v0z"></path>
</svg>
