<!-- Generated by IcoMoon.io -->
<svg version="1.1" xmlns="http://www.w3.org/2000/svg" width="40" height="40" viewBox="0 0 40 40">
<title>ul-tumblr-alt</title>
<path fill="#ebebeb" d="M25.796 29.075l-1.026-3.044c-0.147-0.426-0.544-0.726-1.011-0.726-0.167 0-0.325 0.038-0.466 0.106l0.006-0.002c-0.381 0.151-0.822 0.247-1.282 0.266h-0.008c-0.038 0.005-0.082 0.008-0.126 0.008-0.217 0-0.417-0.069-0.581-0.186l0.003 0.002c-0.162-0.212-0.258-0.48-0.258-0.771 0-0.032 0.001-0.063 0.003-0.094v0.004-4.638h3.218c0 0 0.001 0 0.001 0 0.589 0 1.066-0.478 1.066-1.066 0 0 0-0.001 0-0.001v0-4.166c0 0 0-0.001 0-0.001 0-0.589-0.478-1.066-1.066-1.066 0 0-0.001 0-0.001 0h-3.202v-4.368c0 0 0-0.001 0-0.001 0-0.589-0.478-1.066-1.066-1.066 0 0-0.001 0-0.001 0h-3.125c-0.634 0.003-1.153 0.486-1.213 1.104l-0.001 0.005c-0.091 2.219-1.501 4.087-3.462 4.849l-0.037 0.013c-0.414 0.152-0.705 0.544-0.705 1.003 0 0 0 0 0 0v0 3.823c0 0 0 0.001 0 0.001 0 0.589 0.478 1.066 1.066 1.066 0 0 0.001 0 0.001 0h1.093v4.838c0.019 1.869 0.785 3.554 2.012 4.777v0c1.314 1.234 3.087 1.993 5.038 1.993 0.094 0 0.189-0.002 0.282-0.006l-0.014 0.001c0.058 0 0.116 0 0.174-0.001 1.649-0.027 3.859-0.69 4.558-1.714 0.116-0.168 0.186-0.376 0.186-0.6 0-0.122-0.021-0.239-0.058-0.349l0.002 0.007zM21.074 29.598c-0.123 0.010-0.267 0.016-0.412 0.016-1.368 0-2.613-0.529-3.54-1.393l0.003 0.003c-0.838-0.833-1.361-1.982-1.375-3.254v-5.906c0 0 0-0.001 0-0.001 0-0.589-0.478-1.066-1.066-1.066 0 0-0.001 0-0.001 0h-1.093v-2.045c2.153-1.071 3.691-3.098 4.067-5.51l0.006-0.042h1.27v4.368c0 0 0 0.001 0 0.001 0 0.589 0.478 1.066 1.066 1.066 0 0 0.001 0 0.001 0h3.202v2.032h-3.218c0 0-0.001 0-0.001 0-0.589 0-1.066 0.478-1.066 1.066 0 0 0 0.001 0 0.001v0 5.722c-0.001 0.033-0.002 0.072-0.002 0.11 0 0.883 0.349 1.685 0.917 2.275l-0.001-0.001c0.524 0.482 1.226 0.778 1.998 0.778 0.084 0 0.167-0.003 0.249-0.010l-0.010 0.001c0.367-0.014 0.714-0.058 1.051-0.128l-0.041 0.007 0.453 1.342c-0.72 0.337-1.561 0.544-2.448 0.567h-0.008z"></path>
</svg>
