<!-- Generated by IcoMoon.io -->
<svg version="1.1" xmlns="http://www.w3.org/2000/svg" width="40" height="40" viewBox="0 0 40 40">
<title>ul-user-md</title>
<path fill="#ebebeb" d="M24.158 21.311l-0.005-0.002c-0.067-0.029-0.133-0.062-0.201-0.089 1.495-1.179 2.446-2.99 2.447-5.023v0c-0.002-0.24-0.020-0.473-0.051-0.702l0.003 0.029c0.014-0.035 0.028-0.078 0.039-0.123l0.002-0.007 0.3-2.558c0.014-0.11 0.021-0.238 0.021-0.368 0-1.566-1.122-2.87-2.607-3.15l-0.020-0.003-0.842-0.153c-0.975-0.187-2.097-0.294-3.244-0.294s-2.269 0.107-3.356 0.311l0.112-0.018-0.844 0.153c-1.504 0.284-2.626 1.587-2.626 3.154 0 0.13 0.008 0.258 0.022 0.383l-0.002-0.015 0.3 2.558c0.012 0.051 0.026 0.095 0.042 0.137l-0.002-0.007c-0.028 0.199-0.045 0.433-0.048 0.669v0.003c0.001 2.034 0.952 3.844 2.434 5.013l0.014 0.010c-0.068 0.027-0.134 0.060-0.201 0.089l-0.005 0.002c-3.502 1.499-6.002 4.731-6.434 8.589l-0.004 0.048c-0.004 0.034-0.006 0.075-0.006 0.116 0 0.589 0.478 1.066 1.066 1.066 0.549 0 1-0.414 1.060-0.946l0.001-0.005c0.321-2.877 2.039-5.291 4.45-6.575l0.046-0.022 3.225 3.225c0.193 0.193 0.46 0.313 0.754 0.313s0.561-0.119 0.754-0.313l3.225-3.225c2.458 1.306 4.176 3.721 4.493 6.559l0.003 0.038c0.060 0.537 0.511 0.95 1.058 0.951v0c0.042 0 0.082-0.002 0.122-0.006l-0.005 0.001c0.538-0.060 0.951-0.512 0.951-1.061 0-0.041-0.002-0.081-0.006-0.121l0.001 0.005c-0.436-3.906-2.936-7.138-6.369-8.61l-0.069-0.026zM15.426 12.588c-0.005-0.037-0.007-0.079-0.007-0.122 0-0.522 0.374-0.956 0.869-1.050l0.006-0.001 0.843-0.153c0.861-0.165 1.85-0.259 2.862-0.259s2.002 0.094 2.962 0.275l-0.099-0.015 0.842 0.153c0.502 0.094 0.876 0.529 0.876 1.051 0 0.043-0.002 0.086-0.007 0.127l0.001-0.005-0.19 1.615h-8.769zM20 24.544l-1.76-1.76c0.529-0.119 1.137-0.187 1.76-0.187s1.231 0.068 1.816 0.198l-0.055-0.010zM20 20.463c-2.306-0.003-4.184-1.833-4.264-4.12v-0.007h8.529c-0.080 2.294-1.958 4.124-4.264 4.127v0z"></path>
</svg>
