<!-- Generated by IcoMoon.io -->
<svg version="1.1" xmlns="http://www.w3.org/2000/svg" width="40" height="40" viewBox="0 0 40 40">
<title>ul-utensils</title>
<path fill="#ebebeb" d="M27.466 9.334c-0.589 0-1.066 0.478-1.066 1.066v0 5.824l-1.066 0.714v-6.538c0-0.589-0.478-1.066-1.066-1.066s-1.066 0.478-1.066 1.066v0 6.538l-1.066-0.714v-5.824c0-0.589-0.478-1.066-1.066-1.066s-1.066 0.478-1.066 1.066v0 6.4c0.002 0.369 0.19 0.693 0.476 0.883l0.004 0.002 2.72 1.824v10.090c0 0.589 0.478 1.066 1.066 1.066s1.066-0.478 1.066-1.066v0-10.090l2.72-1.824c0.29-0.193 0.478-0.517 0.48-0.885v-6.4c0-0.589-0.478-1.066-1.066-1.066v0zM16.8 9.334v0c-2.946 0-5.334 2.388-5.334 5.334v0 6.4c0 0.589 0.478 1.066 1.066 1.066v0h3.2v7.466c0 0.589 0.478 1.066 1.066 1.066s1.066-0.478 1.066-1.066v0-19.2c0-0.589-0.478-1.066-1.066-1.066v0zM15.734 20h-2.134v-5.334c0-0.001 0-0.001 0-0.002 0-1.385 0.88-2.565 2.111-3.010l0.022-0.007z"></path>
</svg>
