<!-- Generated by IcoMoon.io -->
<svg version="1.1" xmlns="http://www.w3.org/2000/svg" width="40" height="40" viewBox="0 0 40 40">
<title>ul-users-alt</title>
<path fill="#ebebeb" d="M20.32 20.234c1.114-0.968 1.814-2.386 1.814-3.968 0 0 0 0 0 0v0c0-2.946-2.388-5.334-5.334-5.334s-5.334 2.388-5.334 5.334v0c0 0 0 0 0 0 0 1.582 0.7 3 1.807 3.962l0.006 0.006c-2.978 1.373-5.010 4.331-5.014 7.765v0.001c0 0.589 0.478 1.066 1.066 1.066s1.066-0.478 1.066-1.066v0c0-3.534 2.866-6.4 6.4-6.4s6.4 2.866 6.4 6.4v0c0 0.589 0.478 1.066 1.066 1.066s1.066-0.478 1.066-1.066v0c-0.003-3.434-2.034-6.393-4.961-7.743l-0.053-0.022zM16.8 19.466c-1.767 0-3.2-1.433-3.2-3.2s1.433-3.2 3.2-3.2c1.767 0 3.2 1.433 3.2 3.2v0c0 1.767-1.433 3.2-3.2 3.2v0zM27.19 19.808c0.835-0.937 1.346-2.18 1.346-3.542 0-2.946-2.388-5.334-5.334-5.334-0.001 0-0.001 0-0.002 0v0c-0.589 0-1.066 0.478-1.066 1.066s0.478 1.066 1.066 1.066v0c1.767 0 3.2 1.433 3.2 3.2v0c-0.003 1.175-0.639 2.201-1.585 2.754l-0.015 0.008c-0.314 0.183-0.523 0.514-0.534 0.894v0.002c0 0.008 0 0.017 0 0.026 0 0.371 0.19 0.698 0.477 0.889l0.004 0.002 0.416 0.278 0.138 0.074c2.543 1.226 4.267 3.786 4.267 6.746 0 0.021 0 0.042 0 0.062v-0.003c0 0.589 0.478 1.066 1.066 1.066s1.066-0.478 1.066-1.066v0c0-0.015 0-0.033 0-0.051 0-3.417-1.785-6.416-4.473-8.118l-0.039-0.023z"></path>
</svg>
