<!-- Generated by IcoMoon.io -->
<svg version="1.1" xmlns="http://www.w3.org/2000/svg" width="40" height="40" viewBox="0 0 40 40">
<title>ul-video-question</title>
<path fill="#ebebeb" d="M18.090 25.642c-0.198-0.183-0.465-0.296-0.758-0.296s-0.559 0.113-0.758 0.297l0.001-0.001c-0.094 0.098-0.17 0.215-0.222 0.344l-0.002 0.007c-0.054 0.119-0.086 0.258-0.086 0.406s0.031 0.286 0.088 0.412l-0.002-0.006c0.058 0.135 0.133 0.252 0.225 0.353l-0.001-0.001c0.194 0.195 0.461 0.315 0.758 0.315 0.589 0 1.066-0.478 1.066-1.066 0-0.002 0-0.004 0-0.006v0c-0.002-0.147-0.033-0.286-0.088-0.413l0.002 0.007c-0.058-0.135-0.133-0.252-0.225-0.353l0.001 0.001zM17.334 16.8c-1.178 0.002-2.206 0.638-2.762 1.585l-0.008 0.015c-0.090 0.153-0.143 0.338-0.143 0.534 0 0.589 0.478 1.066 1.066 1.066 0.392 0 0.735-0.212 0.92-0.527l0.002-0.005c0.188-0.322 0.531-0.534 0.925-0.534 0.59 0 1.067 0.478 1.067 1.067s-0.478 1.067-1.066 1.067v0c0 0 0 0 0 0-0.589 0-1.066 0.478-1.066 1.066 0 0 0 0 0 0v0 1.066c0 0.589 0.478 1.066 1.066 1.066s1.066-0.478 1.066-1.066v0-0.197c1.253-0.45 2.134-1.628 2.134-3.011 0-1.763-1.429-3.192-3.192-3.192-0.002 0-0.006 0-0.008 0h0.001zM30.161 13.759c-0.159-0.1-0.353-0.159-0.561-0.159-0.174 0-0.338 0.042-0.483 0.115l-3.795 1.898c-0.065-1.712-1.466-3.076-3.187-3.080h-9.601c-1.766 0.002-3.198 1.434-3.2 3.2v6.4c0.002 1.766 1.434 3.198 3.2 3.2h1.067c0.589 0 1.066-0.478 1.066-1.066s-0.478-1.066-1.066-1.066v0h-1.066c-0.589-0.001-1.066-0.478-1.066-1.066v-6.4c0.001-0.589 0.478-1.066 1.066-1.066h9.6c0.589 0.001 1.066 0.478 1.066 1.066v6.4c-0.001 0.589-0.478 1.066-1.066 1.066h-0.534c-0.589 0-1.066 0.478-1.066 1.066s0.478 1.066 1.066 1.066v0h0.534c1.722-0.004 3.123-1.368 3.188-3.074v-0.006l3.802 1.901c0.139 0.071 0.303 0.113 0.477 0.113 0.589 0 1.066-0.478 1.067-1.066v-8.534c0-0.382-0.201-0.716-0.502-0.905l-0.005-0.002zM28.534 21.474l-3.2-1.6v-1.882l3.2-1.6z"></path>
</svg>
