<!-- Generated by IcoMoon.io -->
<svg version="1.1" xmlns="http://www.w3.org/2000/svg" width="40" height="40" viewBox="0 0 40 40">
<title>ul-volume</title>
<path fill="#ebebeb" d="M20.458 11.574c-0.125-0.055-0.27-0.088-0.423-0.088-0.242 0-0.466 0.081-0.646 0.218l0.002-0.002-5.098 4.032h-3.894c-0.589 0-1.066 0.478-1.066 1.066v0 6.4c0 0.589 0.478 1.066 1.066 1.066v0h3.894l5.046 4.032c0.179 0.145 0.41 0.233 0.661 0.234v0c0.005 0 0.010 0 0.016 0 0.162 0 0.314-0.039 0.448-0.11l-0.006 0.002c0.362-0.175 0.606-0.538 0.608-0.96v-14.934c-0.002-0.422-0.246-0.785-0.602-0.958l-0.006-0.002zM18.934 25.248l-3.606-2.88c-0.179-0.145-0.41-0.233-0.661-0.234h-3.2v-4.266h3.2c0.251-0.002 0.482-0.090 0.663-0.236l-0.002 0.002 3.606-2.88zM28.17 13.962c-0.194-0.194-0.462-0.314-0.758-0.314-0.591 0-1.071 0.479-1.071 1.071 0 0.296 0.12 0.563 0.314 0.758v0c1.16 1.158 1.878 2.76 1.878 4.529 0 1.962-0.883 3.718-2.274 4.893l-0.010 0.008c-0.229 0.197-0.374 0.487-0.374 0.81 0 0.586 0.471 1.061 1.055 1.066h0.001c0.001 0 0.002 0 0.002 0 0.259 0 0.498-0.093 0.682-0.246l-0.002 0.002c1.873-1.576 3.054-3.921 3.054-6.542 0-2.357-0.955-4.49-2.499-6.034v0zM25.152 16.982c-0.194-0.194-0.462-0.314-0.758-0.314-0.591 0-1.071 0.479-1.071 1.071 0 0.296 0.12 0.563 0.314 0.758v0c0.386 0.385 0.626 0.916 0.63 1.503v0.001c0 0.001 0 0.001 0 0.002 0 0.653-0.293 1.236-0.754 1.628l-0.003 0.002c-0.237 0.197-0.386 0.492-0.386 0.821 0 0.261 0.094 0.499 0.249 0.685l-0.002-0.002c0.197 0.233 0.49 0.379 0.816 0.379 0.263 0 0.504-0.095 0.69-0.253l-0.002 0.002c0.934-0.787 1.523-1.956 1.526-3.264v0c-0.006-1.178-0.482-2.242-1.249-3.019l0.001 0.001z"></path>
</svg>
