<!-- Generated by IcoMoon.io -->
<svg version="1.1" xmlns="http://www.w3.org/2000/svg" width="40" height="40" viewBox="0 0 40 40">
<title>ul-venus</title>
<path fill="#ebebeb" d="M27.466 16.8c0-0.002 0-0.006 0-0.009 0-4.124-3.343-7.466-7.466-7.466s-7.466 3.343-7.466 7.466c0 3.747 2.761 6.85 6.359 7.385l0.041 0.005v2.218h-1.066c-0.589 0-1.066 0.478-1.066 1.066s0.478 1.066 1.066 1.066v0h1.066v1.066c0 0.589 0.478 1.066 1.066 1.066s1.066-0.478 1.066-1.066v0-1.066h1.066c0.589 0 1.066-0.478 1.066-1.066s-0.478-1.066-1.066-1.066v0h-1.066v-2.218c3.637-0.54 6.395-3.638 6.4-7.381v-0.001zM20 22.134c-2.946 0-5.334-2.388-5.334-5.334s2.388-5.334 5.334-5.334c2.946 0 5.334 2.388 5.334 5.334v0c0 2.946-2.388 5.334-5.334 5.334v0z"></path>
</svg>
