<!-- Generated by IcoMoon.io -->
<svg version="1.1" xmlns="http://www.w3.org/2000/svg" width="40" height="40" viewBox="0 0 40 40">
<title>ul-wrench</title>
<path fill="#ebebeb" d="M30.358 23.818l-4.822-4.81c0.095-0.442 0.15-0.95 0.15-1.47 0-0.008 0-0.017 0-0.025v0.002c-0.002-4.518-3.664-8.179-8.182-8.179-1.254 0-2.443 0.282-3.506 0.787l0.050-0.021c-0.317 0.147-0.546 0.436-0.607 0.783l-0.001 0.006c-0.010 0.055-0.016 0.118-0.016 0.182 0 0.295 0.12 0.563 0.314 0.756v0l4.64 4.63-1.92 1.92-4.63-4.64c-0.192-0.189-0.456-0.306-0.747-0.306-0.068 0-0.134 0.006-0.198 0.018l0.006-0.001c-0.351 0.060-0.64 0.285-0.786 0.591l-0.002 0.006c-0.483 1.013-0.766 2.202-0.766 3.456 0 4.518 3.663 8.182 8.182 8.182 0.018 0 0.036 0 0.054 0h-0.002c0.007 0 0.015 0 0.023 0 0.52 0 1.028-0.054 1.518-0.158l-0.048 0.009 4.81 4.822c0.194 0.195 0.462 0.315 0.758 0.315s0.564-0.121 0.758-0.315v0c0.195-0.194 0.315-0.462 0.315-0.758s-0.121-0.564-0.315-0.758l-5.226-5.226c-0.193-0.191-0.458-0.31-0.752-0.31-0.093 0-0.183 0.012-0.269 0.034l0.007-0.002c-0.473 0.132-1.016 0.21-1.576 0.214h-0.002c-0.016 0-0.034 0-0.054 0-3.337 0-6.042-2.702-6.048-6.037v-0.001c0-0.007 0-0.016 0-0.025 0-0.368 0.031-0.729 0.090-1.080l-0.006 0.038 4.182 4.192c0.194 0.195 0.462 0.315 0.758 0.315s0.564-0.121 0.758-0.315l3.392-3.424c0.186-0.192 0.3-0.453 0.3-0.742s-0.114-0.55-0.3-0.742v0l-4.15-4.182c0.316-0.054 0.681-0.086 1.052-0.086 0.005 0 0.010 0 0.015 0h-0.001c3.336 0.006 6.038 2.711 6.038 6.048 0 0 0 0 0 0v0c-0.004 0.563-0.082 1.106-0.224 1.622l0.010-0.044c-0.021 0.078-0.033 0.169-0.033 0.262 0 0.294 0.118 0.559 0.31 0.752l5.226 5.226c0.194 0.194 0.462 0.314 0.758 0.314 0.591 0 1.071-0.479 1.071-1.071 0-0.296-0.12-0.563-0.314-0.758v0z"></path>
</svg>
