<!-- Generated by IcoMoon.io -->
<svg version="1.1" xmlns="http://www.w3.org/2000/svg" width="40" height="40" viewBox="0 0 40 40">
<title>ul-watch-alt</title>
<path fill="#ebebeb" d="M25.334 16.384l-1.066-6.154c-0.085-0.511-0.524-0.896-1.053-0.896-0.005 0-0.010 0-0.014 0h-6.399c-0.004 0-0.009 0-0.014 0-0.529 0-0.968 0.385-1.052 0.89l-0.001 0.006-1.066 6.154c-0.701 1.011-1.119 2.265-1.119 3.616s0.418 2.605 1.134 3.638l-0.014-0.022 1.066 6.154c0.085 0.511 0.524 0.896 1.053 0.896 0.005 0 0.010 0 0.014 0h6.399c0.004 0 0.009 0 0.014 0 0.529 0 0.968-0.385 1.052-0.89l0.001-0.006 1.066-6.154c0.701-1.011 1.119-2.265 1.119-3.616s-0.418-2.605-1.134-3.638l0.014 0.022zM17.706 11.466h4.586l0.47 2.762c-0.808-0.396-1.758-0.627-2.762-0.627s-1.954 0.231-2.801 0.644l0.038-0.017zM22.294 28.534h-4.586l-0.47-2.762c0.808 0.396 1.758 0.627 2.762 0.627s1.954-0.231 2.801-0.644l-0.038 0.017zM20 24.266c-2.357 0-4.266-1.91-4.266-4.266s1.91-4.266 4.266-4.266c2.357 0 4.266 1.91 4.266 4.266v0c0 2.357-1.91 4.266-4.266 4.266v0z"></path>
</svg>
