<!-- Generated by IcoMoon.io -->
<svg version="1.1" xmlns="http://www.w3.org/2000/svg" width="40" height="40" viewBox="0 0 40 40">
<title>ul-windsock</title>
<path fill="#ebebeb" d="M26.486 12.534l-11.818-0.982v-1.152c0-0.589-0.478-1.066-1.066-1.066s-1.066 0.478-1.066 1.066v0 19.2c0 0.589 0.478 1.066 1.066 1.066s1.066-0.478 1.066-1.066v0-7.552l11.818-0.982c0.551-0.046 0.982-0.504 0.982-1.063 0-0.001 0-0.002 0-0.003v0-6.4c0-0.001 0-0.002 0-0.003 0-0.559-0.43-1.018-0.978-1.063h-0.004zM16.8 19.734l-2.134 0.17v-6.208l2.134 0.17zM21.066 19.37l-2.134 0.182v-5.504l2.134 0.182zM25.334 19.018l-2.134 0.182v-4.8l2.134 0.182z"></path>
</svg>
