<!-- Generated by IcoMoon.io -->
<svg version="1.1" xmlns="http://www.w3.org/2000/svg" width="40" height="40" viewBox="0 0 40 40">
<title>ul-wheelchair</title>
<path fill="#ebebeb" d="M20 14.134c1.178 0 2.134-0.955 2.134-2.134s-0.955-2.134-2.134-2.134c-1.178 0-2.134 0.955-2.134 2.134v0c0 1.178 0.955 2.134 2.134 2.134v0zM28 29.066h-1.066v-5.334c0-0.589-0.478-1.066-1.066-1.066v0h-5.334v-2.134h5.334c0.589 0 1.066-0.478 1.066-1.066s-0.478-1.066-1.066-1.066v0h-5.334v-2.134c0-0.589-0.478-1.066-1.066-1.066s-1.066 0.478-1.066 1.066v0 7.466c0 0.589 0.478 1.066 1.066 1.066v0h5.334v5.334c0 0.589 0.478 1.066 1.066 1.066v0h2.134c0.589 0 1.066-0.478 1.066-1.066s-0.478-1.066-1.066-1.066v0zM20.746 27.36c-0.786 1.041-2.022 1.706-3.414 1.706-2.357 0-4.266-1.91-4.266-4.266v0c0.002-1.737 1.042-3.23 2.533-3.893l0.027-0.011c0.382-0.169 0.643-0.545 0.643-0.982 0-0.591-0.479-1.070-1.070-1.070-0.154 0-0.301 0.033-0.434 0.091l0.007-0.002c-2.278 1.013-3.839 3.257-3.839 5.866 0 3.534 2.866 6.4 6.4 6.4 2.086 0 3.939-0.998 5.107-2.542l0.012-0.016c0.133-0.176 0.214-0.398 0.214-0.64 0-0.589-0.478-1.066-1.066-1.066-0.348 0-0.657 0.166-0.851 0.424l-0.002 0.002z"></path>
</svg>
