<!-- Generated by IcoMoon.io -->
<svg version="1.1" xmlns="http://www.w3.org/2000/svg" width="40" height="40" viewBox="0 0 40 40">
<title>ul-yen-circle</title>
<path fill="#ebebeb" d="M20 8.266c-6.48 0-11.734 5.253-11.734 11.734s5.253 11.734 11.734 11.734c6.48 0 11.734-5.253 11.734-11.734v0c0-6.48-5.253-11.734-11.734-11.734v0zM20 29.6c-5.302 0-9.6-4.298-9.6-9.6s4.298-9.6 9.6-9.6c5.302 0 9.6 4.298 9.6 9.6v0c0 5.302-4.298 9.6-9.6 9.6v0zM23.018 14.080l-3.018 4.534-3.018-4.534c-0.194-0.29-0.52-0.478-0.89-0.478-0.221 0-0.426 0.067-0.597 0.182l0.004-0.002c-0.287 0.194-0.474 0.518-0.474 0.886 0 0.218 0.066 0.421 0.178 0.59l-0.002-0.004 2.25 3.382h-0.65c-0.589 0-1.066 0.478-1.066 1.066s0.478 1.066 1.066 1.066v0h2.134l0.054 0.086v0.982h-2.186c-0.589 0-1.066 0.478-1.066 1.066s0.478 1.066 1.066 1.066v0h2.134v2.432c0 0.589 0.478 1.066 1.066 1.066s1.066-0.478 1.066-1.066v0-2.432h2.134c0.589 0 1.066-0.478 1.066-1.066s-0.478-1.066-1.066-1.066v0h-2.134v-0.982l0.054-0.086h2.080c0.589 0 1.066-0.478 1.066-1.066s-0.478-1.066-1.066-1.066v0h-0.65l2.25-3.382c0.11-0.165 0.175-0.367 0.175-0.586 0-0.368-0.186-0.693-0.47-0.884l-0.004-0.002c-0.166-0.113-0.372-0.18-0.593-0.18-0.37 0-0.696 0.189-0.887 0.474l-0.002 0.004z"></path>
</svg>
