<!-- Generated by IcoMoon.io -->
<svg version="1.1" xmlns="http://www.w3.org/2000/svg" width="24" height="24" viewBox="0 0 24 24">
<title>usb</title>
<path fill="#ebebeb" d="M14.4 7.988h3.188v3.225h-0.788v1.575q0 0.675-0.469 1.144t-1.144 0.469h-2.4v2.438q0.975 0.525 0.975 1.575 0 0.712-0.506 1.237t-1.256 0.525-1.256-0.525-0.506-1.237q0-1.050 0.975-1.575v-2.438h-2.4q-0.675 0-1.144-0.469t-0.469-1.144v-1.65q-0.975-0.525-0.975-1.537 0-0.75 0.525-1.256t1.238-0.506 1.238 0.506 0.525 1.256q0 1.050-0.938 1.537v1.65h2.4v-6.375h-1.612l2.4-3.225 2.4 3.225h-1.612v6.375h2.4v-1.575h-0.788v-3.225z"></path>
</svg>
