<!-- Generated by IcoMoon.io -->
<svg version="1.1" xmlns="http://www.w3.org/2000/svg" width="40" height="40" viewBox="0 0 40 40">
<title>ut-car</title>
<path fill="none" stroke-linejoin="round" stroke-linecap="round" stroke-miterlimit="10" stroke-width="1.7931" stroke="#ebebeb" d="M14.146 23.803c0 1.833-1.487 3.319-3.32 3.319s-3.319-1.487-3.319-3.319c0-1.834 1.486-3.319 3.319-3.319s3.32 1.486 3.32 3.319z"></path>
<path fill="none" stroke-linejoin="round" stroke-linecap="round" stroke-miterlimit="10" stroke-width="1.7931" stroke="#ebebeb" d="M31.906 23.803c0 1.833-1.487 3.319-3.319 3.319-1.834 0-3.319-1.487-3.319-3.319s1.485-3.319 3.319-3.319c1.833 0 3.319 1.486 3.319 3.319z"></path>
<path fill="none" stroke-linejoin="round" stroke-linecap="round" stroke-miterlimit="10" stroke-width="1.7931" stroke="#ebebeb" d="M25.4 24.725h-11.386"></path>
<path fill="none" stroke-linejoin="round" stroke-linecap="round" stroke-miterlimit="10" stroke-width="1.7931" stroke="#ebebeb" d="M7.639 24.725h-2.922v-6.684h29.567l0.999 6.684h-3.508"></path>
<path fill="none" stroke-linejoin="round" stroke-linecap="round" stroke-miterlimit="10" stroke-width="1.7931" stroke="#ebebeb" d="M27.704 18.041h-17.656l1.997-5.163h11.512z"></path>
<path fill="none" stroke-linejoin="round" stroke-linecap="round" stroke-miterlimit="10" stroke-width="1.7931" stroke="#ebebeb" d="M20.461 20.806h1.774"></path>
<path fill="none" stroke-linejoin="round" stroke-linecap="round" stroke-miterlimit="10" stroke-width="1.7931" stroke="#ebebeb" d="M17.741 12.878v11.847"></path>
</svg>
