<!-- Generated by IcoMoon.io -->
<svg version="1.1" xmlns="http://www.w3.org/2000/svg" width="40" height="40" viewBox="0 0 40 40">
<title>ut-idea</title>
<path fill="none" stroke-linejoin="round" stroke-linecap="round" stroke-miterlimit="10" stroke-width="2.6199" stroke="#ebebeb" d="M20 12.278c-3.987 0-7.231 3.245-7.231 7.231 0 1.632 0.536 3.173 1.547 4.457 0.218 0.277 0.456 0.553 0.707 0.844 0.815 0.946 1.738 2.018 2.101 3.347 0.051 0.189 0.119 0.538 0.11 1.38v0.632h5.487v-0.632c-0.006-0.793 0.060-1.128 0.11-1.311 0.365-1.319 1.341-2.464 2.199-3.474 0.235-0.276 0.457-0.536 0.652-0.783 1.012-1.284 1.548-2.825 1.548-4.458 0-3.986-3.243-7.231-7.23-7.231z"></path>
<path fill="none" stroke-linejoin="round" stroke-linecap="round" stroke-miterlimit="10" stroke-width="2.6199" stroke="#ebebeb" d="M17.234 32.562h5.487"></path>
<path fill="none" stroke-linejoin="round" stroke-linecap="round" stroke-miterlimit="10" stroke-width="2.6199" stroke="#ebebeb" d="M18.606 34.952h2.744"></path>
<path fill="none" stroke-linejoin="round" stroke-linecap="round" stroke-miterlimit="10" stroke-width="2.6199" stroke="#ebebeb" d="M30.845 19.508h3.615"></path>
<path fill="none" stroke-linejoin="round" stroke-linecap="round" stroke-miterlimit="10" stroke-width="2.6199" stroke="#ebebeb" d="M5.539 19.508h3.616"></path>
<path fill="none" stroke-linejoin="round" stroke-linecap="round" stroke-miterlimit="10" stroke-width="2.6199" stroke="#ebebeb" d="M20 5.048v3.616"></path>
<path fill="none" stroke-linejoin="round" stroke-linecap="round" stroke-miterlimit="10" stroke-width="2.6199" stroke="#ebebeb" d="M27.668 27.177l2.556 2.557"></path>
<path fill="none" stroke-linejoin="round" stroke-linecap="round" stroke-miterlimit="10" stroke-width="2.6199" stroke="#ebebeb" d="M9.775 9.283l2.555 2.556"></path>
<path fill="none" stroke-linejoin="round" stroke-linecap="round" stroke-miterlimit="10" stroke-width="2.6199" stroke="#ebebeb" d="M12.332 27.177l-2.557 2.557"></path>
<path fill="none" stroke-linejoin="round" stroke-linecap="round" stroke-miterlimit="10" stroke-width="2.6199" stroke="#ebebeb" d="M30.225 9.283l-2.556 2.556"></path>
</svg>
