<!-- Generated by IcoMoon.io -->
<svg version="1.1" xmlns="http://www.w3.org/2000/svg" width="40" height="40" viewBox="0 0 40 40">
<title>ut-music</title>
<path fill="none" stroke-linejoin="round" stroke-linecap="round" stroke-miterlimit="10" stroke-width="2.6307" stroke="#ebebeb" d="M15.262 29.917c0 2.784-2.251 5.031-5.030 5.031-2.776 0-5.031-2.247-5.031-5.031 0-2.778 2.255-5.030 5.031-5.030"></path>
<path fill="none" stroke-linejoin="round" stroke-linecap="round" stroke-miterlimit="10" stroke-width="2.6307" stroke="#ebebeb" d="M10.232 24.887h5.030"></path>
<path fill="none" stroke-linejoin="round" stroke-linecap="round" stroke-miterlimit="10" stroke-width="2.6307" stroke="#ebebeb" d="M15.262 14.824v15.092"></path>
<path fill="none" stroke-linejoin="round" stroke-linecap="round" stroke-miterlimit="10" stroke-width="2.6307" stroke="#ebebeb" d="M34.8 29.917c0 2.784-2.254 5.031-5.029 5.031-2.781 0-5.031-2.247-5.031-5.031 0-2.778 2.251-5.030 5.031-5.030"></path>
<path fill="none" stroke-linejoin="round" stroke-linecap="round" stroke-miterlimit="10" stroke-width="2.6307" stroke="#ebebeb" d="M29.771 24.887h5.029"></path>
<path fill="none" stroke-linejoin="round" stroke-linecap="round" stroke-miterlimit="10" stroke-width="2.6307" stroke="#ebebeb" d="M34.8 14.824v15.092"></path>
<path fill="none" stroke-linejoin="round" stroke-linecap="round" stroke-miterlimit="10" stroke-width="2.6307" stroke="#ebebeb" d="M15.262 5.052h19.537v9.772h-19.537v-9.772z"></path>
</svg>
