<!-- Generated by IcoMoon.io -->
<svg version="1.1" xmlns="http://www.w3.org/2000/svg" width="40" height="40" viewBox="0 0 40 40">
<title>ut-shades</title>
<path fill="none" stroke-linejoin="round" stroke-linecap="round" stroke-miterlimit="10" stroke-width="1.4654" stroke="#ebebeb" d="M4.586 17.512h1.491"></path>
<path fill="none" stroke-linejoin="round" stroke-linecap="round" stroke-miterlimit="10" stroke-width="1.4654" stroke="#ebebeb" d="M18.718 18.144c0 3.040-3.179 7.361-7.486 7.361-3.041 0-5.506-2.465-5.506-5.506s1.308-5.505 5.506-5.505c7.486-0 7.486-0 7.486 3.65z"></path>
<path fill="none" stroke-linejoin="round" stroke-linecap="round" stroke-miterlimit="10" stroke-width="1.4654" stroke="#ebebeb" d="M21.282 18.144c0 3.040 3.179 7.361 7.486 7.361 3.040 0 5.505-2.465 5.505-5.506s-1.308-5.505-5.505-5.505c-7.486-0-7.486-0-7.486 3.65z"></path>
<path fill="none" stroke-linejoin="round" stroke-linecap="round" stroke-miterlimit="10" stroke-width="1.4654" stroke="#ebebeb" d="M35.414 17.512h-1.491"></path>
<path fill="none" stroke-linejoin="round" stroke-linecap="round" stroke-miterlimit="10" stroke-width="1.4654" stroke="#ebebeb" d="M11.232 14.494h17.536"></path>
<path fill="none" stroke-linejoin="round" stroke-linecap="round" stroke-miterlimit="10" stroke-width="1.4654" stroke="#ebebeb" d="M18.713 17.292c0.4-0.155 0.834-0.238 1.287-0.238s0.888 0.084 1.286 0.238"></path>
<path fill="none" stroke-linejoin="round" stroke-linecap="round" stroke-miterlimit="10" stroke-width="1.4654" stroke="#ebebeb" d="M8.951 20.943l3.748-3.746"></path>
<path fill="none" stroke-linejoin="round" stroke-linecap="round" stroke-miterlimit="10" stroke-width="1.4654" stroke="#ebebeb" d="M11.75 21.873l2.811-2.81"></path>
<path fill="none" stroke-linejoin="round" stroke-linecap="round" stroke-miterlimit="10" stroke-width="1.4654" stroke="#ebebeb" d="M25.439 20.943l3.748-3.746"></path>
<path fill="none" stroke-linejoin="round" stroke-linecap="round" stroke-miterlimit="10" stroke-width="1.4654" stroke="#ebebeb" d="M28.238 21.873l2.811-2.81"></path>
</svg>
