<!-- Generated by IcoMoon.io -->
<svg version="1.1" xmlns="http://www.w3.org/2000/svg" width="24" height="24" viewBox="0 0 24 24">
<title>wheelchair_pickup</title>
<path fill="#ebebeb" d="M6 5.588q0-0.638 0.469-1.106t1.144-0.469q0.637 0 1.106 0.469t0.469 1.106q0 0.675-0.469 1.144t-1.106 0.469q-0.675 0-1.144-0.469t-0.469-1.144zM10.387 11.175v-1.575q0-0.675-0.469-1.144t-1.106-0.469h-2.4q-0.675 0-1.144 0.469t-0.469 1.144v4.8h1.612v5.587h2.775v-0.075q-0.75-0.75-1.163-1.763t-0.412-2.137q0-1.575 0.769-2.85t2.006-1.988zM15.6 16.013q0 0.637-0.319 1.181t-0.862 0.881-1.219 0.337-1.219-0.337-0.863-0.881-0.319-1.181q0-0.675 0.337-1.219t0.863-0.844v-1.725q-1.2 0.375-2.006 1.406t-0.806 2.381q0 1.087 0.544 2.006t1.463 1.444 2.006 0.525 2.006-0.525 1.463-1.444 0.544-2.006h-1.612zM18.038 13.612h-3.637v-4.8h-1.612v6.375h4.388l1.987 2.962 1.313-0.862z"></path>
</svg>
