<!-- Generated by IcoMoon.io -->
<svg version="1.1" xmlns="http://www.w3.org/2000/svg" width="24" height="24" viewBox="0 0 24 24">
<title>wifi_calling</title>
<path fill="#ebebeb" d="M19.987 6.375q-0.037-0.075-0.375-0.319t-0.919-0.525-1.369-0.506-1.725-0.225-1.725 0.225-1.369 0.506-0.919 0.525-0.375 0.319l4.387 5.625zM18.413 14.813q-1.5 0-2.85-0.45-0.487-0.188-0.825 0.188l-1.763 1.763q-1.688-0.862-3.056-2.231t-2.231-3.056l1.763-1.762q0.337-0.337 0.188-0.825-0.45-1.35-0.45-2.85 0-0.3-0.225-0.544t-0.563-0.244h-2.813q-0.3 0-0.544 0.244t-0.244 0.544q0 2.25 0.694 4.294t1.931 3.75 2.944 2.944 3.75 1.931 4.294 0.694q0.3 0 0.544-0.244t0.244-0.544v-2.813q0-0.338-0.244-0.563t-0.544-0.225z"></path>
</svg>
