<!-- Generated by IcoMoon.io -->
<svg version="1.1" xmlns="http://www.w3.org/2000/svg" width="24" height="24" viewBox="0 0 24 24">
<title>wifi_lock</title>
<path fill="#ebebeb" d="M19.987 15.188v-1.2q0-0.487-0.356-0.844t-0.844-0.356-0.844 0.356-0.356 0.844v1.2h2.4zM20.813 15.188q0.337 0 0.563 0.244t0.225 0.581v3.188q0 0.337-0.225 0.563t-0.563 0.225h-4.013q-0.337 0-0.563-0.225t-0.225-0.563v-3.188q0-0.338 0.225-0.581t0.563-0.244v-1.2q0-0.825 0.581-1.406t1.406-0.581 1.425 0.581 0.6 1.406v1.2zM18.788 10.012q-1.65 0-2.813 1.163t-1.163 2.812v2.287l-2.813 3.712-9.6-12.787q4.2-3.188 9.6-3.188t9.6 3.188l-2.138 2.85q-0.225-0.037-0.675-0.037z"></path>
</svg>
