<!-- Generated by IcoMoon.io -->
<svg version="1.1" xmlns="http://www.w3.org/2000/svg" width="24" height="24" viewBox="0 0 24 24">
<title>wrong_location</title>
<path fill="#ebebeb" d="M13.612 10.387v-5.362q-0.825-0.225-1.613-0.225-1.275 0-2.419 0.469t-2.044 1.331-1.425 2.063-0.525 2.7q0 3.975 6.413 9.45 6.413-5.475 6.413-9.45 0-0.262-0.019-0.488t-0.056-0.488h-4.725zM12 12.788q-0.675 0-1.144-0.469t-0.469-1.106q0-0.675 0.469-1.144t1.144-0.469 1.144 0.469 0.469 1.144q0 0.638-0.469 1.106t-1.144 0.469zM20.438 4.688l-1.125-1.125-1.725 1.725-1.688-1.725-1.125 1.125 1.688 1.725-1.688 1.688 1.125 1.125 1.688-1.688 1.725 1.688 1.125-1.125-1.725-1.688z"></path>
</svg>
