<!-- Generated by IcoMoon.io -->
<svg version="1.1" xmlns="http://www.w3.org/2000/svg" width="24" height="24" viewBox="0 0 24 24">
<title>adb</title>
<path fill="#91908d" d="M14.4 9.6q0.338 0 0.563-0.225t0.225-0.563-0.225-0.581-0.563-0.244-0.563 0.244-0.225 0.581 0.225 0.563 0.563 0.225zM9.6 9.6q0.337 0 0.563-0.225t0.225-0.563-0.225-0.581-0.563-0.244-0.563 0.244-0.225 0.581 0.225 0.563 0.563 0.225zM15.3 5.887q2.287 1.688 2.287 4.5v0.825h-11.175v-0.825q0-2.813 2.287-4.5l-1.688-1.688 0.675-0.637 1.838 1.838q1.2-0.6 2.475-0.6t2.475 0.6l1.837-1.838 0.675 0.637zM6.413 15.188v-3.188h11.175v3.188q0 2.325-1.631 3.975t-3.956 1.65-3.956-1.65-1.631-3.975z"></path>
</svg>
