<!-- Generated by IcoMoon.io -->
<svg version="1.1" xmlns="http://www.w3.org/2000/svg" width="24" height="24" viewBox="0 0 24 24">
<title>add_location_alt</title>
<path fill="#91908d" d="M18.413 3.188v2.4h2.4v1.612h-2.4v2.4h-1.613v-2.4h-2.4v-1.613h2.4v-2.4h1.613zM12 12.788q0.675 0 1.144-0.469t0.469-1.106q0-0.675-0.469-1.144t-1.144-0.469-1.144 0.469-0.469 1.144q0 0.638 0.469 1.106t1.144 0.469zM13.612 4.988v3h2.4v2.4h2.325q0.075 0.525 0.075 0.975 0 3.975-6.413 9.45-6.413-5.475-6.413-9.45 0-1.5 0.525-2.7t1.425-2.063 2.044-1.331 2.419-0.469q0.825 0 1.613 0.188z"></path>
</svg>
