<!-- Generated by IcoMoon.io -->
<svg version="1.1" xmlns="http://www.w3.org/2000/svg" width="24" height="24" viewBox="0 0 24 24">
<title>all_inclusive</title>
<path fill="#91908d" d="M17.288 7.688q1.8 0 3.056 1.275t1.256 3.038-1.256 3.038-3.056 1.275h-0.038q-0.712 0-1.594-0.375t-1.444-0.9l-1.012-0.9 1.2-1.050 0.938 0.788q0.825 0.825 1.95 0.825t1.913-0.787 0.787-1.912-0.787-1.913-1.913-0.788-1.913 0.788q-2.663 2.325-3.375 3l-2.25 1.987q-1.238 1.237-3.038 1.237t-3.056-1.275-1.256-3.038 1.256-3.038 3.056-1.275h0.038q0.75 0 1.631 0.375t1.406 0.9l1.012 0.9-1.238 1.050-0.9-0.788q-0.825-0.825-1.95-0.825t-1.912 0.787-0.787 1.913 0.787 1.913 1.912 0.787 1.912-0.787q2.663-2.325 3.375-3l2.25-1.988q1.237-1.238 3.038-1.238z"></path>
</svg>
