<!-- Generated by IcoMoon.io -->
<svg version="1.1" xmlns="http://www.w3.org/2000/svg" width="24" height="24" viewBox="0 0 24 24">
<title>all_inbox</title>
<path fill="#91908d" d="M14.4 15.188h4.8v2.4q0 0.638-0.488 1.125t-1.125 0.488h-11.175q-0.637 0-1.125-0.488t-0.487-1.125v-2.4h4.8q0 0.975 0.713 1.688t1.687 0.712 1.688-0.712 0.712-1.688zM17.587 9.6v-3.188h-11.175v3.188h3.188q0 0.975 0.712 1.688t1.688 0.712 1.688-0.712 0.712-1.688h3.188zM17.587 4.8q0.638 0 1.125 0.487t0.488 1.125v5.587q0 0.638-0.488 1.125t-1.125 0.487h-11.175q-0.638 0-1.125-0.487t-0.488-1.125v-5.587q0-0.638 0.488-1.125t1.125-0.487h11.175z"></path>
</svg>
