<!-- Generated by IcoMoon.io -->
<svg version="1.1" xmlns="http://www.w3.org/2000/svg" width="24" height="24" viewBox="0 0 24 24">
<title>architecture</title>
<path fill="#91908d" d="M7.5 17.438l0.188 1.763 1.313-1.238 2.212-6.075q-0.825-0.188-1.425-0.788zM14.212 11.1q-0.6 0.6-1.425 0.787l2.212 6.075 1.313 1.238 0.225-1.763zM14.4 8.813q0-0.788-0.45-1.406t-1.163-0.844v-1.762h-1.575v1.762q-0.713 0.225-1.163 0.844t-0.45 1.406q0 0.637 0.319 1.181t0.862 0.881 1.219 0.337 1.219-0.337 0.862-0.881 0.319-1.181zM12 9.6q-0.337 0-0.563-0.244t-0.225-0.544q0-0.338 0.225-0.581t0.563-0.244 0.563 0.244 0.225 0.581q0 0.3-0.225 0.544t-0.563 0.244z"></path>
</svg>
