<!-- Generated by IcoMoon.io -->
<svg version="1.1" xmlns="http://www.w3.org/2000/svg" width="40" height="40" viewBox="0 0 40 40">
<title>at-easel</title>
<path fill="#91908d" d="M31 25c0-0.97-0.701-2-2-2h-1.241c0.139-0.263 0.241-0.579 0.241-1 0-2 0-5 0-5s0-5 0-7-2-2-2-2h-4c0-1.299-1.030-2-2-2s-2 0.701-2 2h-4c-2 0-2 2-2 2v12c0 0 0 0.5 0.25 1h-1.25c-0.97 0-2 0.701-2 2 0 0.97 0.701 2 2 2h0.556l-1.455 4.363c-0.341 1.063 0.21 2.17 1.251 2.531l0.031 0.011 0.032 0.009c0.206 0.057 0.403 0.086 0.585 0.086 0.864 0 1.626-0.548 1.899-1.363l1.875-5.637h2.226v5c0 1.103 0.897 2 2 2s2-0.897 2-2v-5h2.227l0.104 0.315 1.77 5.32c0.273 0.817 1.037 1.365 1.899 1.365 0.182 0 0.378-0.028 0.585-0.085l0.032-0.010 0.031-0.011c1.040-0.361 1.591-1.469 1.254-2.52l-1.459-4.374h0.557c0.97 0 2-0.701 2-2zM20 7c0 0 1 0 1 1h-2c0-1 1-1 1-1zM13 22v-11.988c0.012-0.462 0.195-1.012 1-1.012h11.992c0.461 0.013 1.008 0.197 1.008 1v12c0 0.806-0.55 0.988-1 1h-12c-0.805 0-0.988-0.55-1-1zM12.95 32.32c-0.14 0.42-0.53 0.68-0.95 0.68-0.1 0-0.21-0.020-0.32-0.050-0.52-0.181-0.8-0.74-0.63-1.271l1.56-4.679h2.11l-1.77 5.32zM21 32c0 0.55-0.45 1-1 1s-1-0.45-1-1v-5h2v5zM11 26c-1 0-1-1-1-1 0-1 1-1 1-1h18c1 0 1 1 1 1 0 1-1 1-1 1h-18zM28.95 31.68c0.17 0.53-0.11 1.090-0.63 1.271-0.11 0.029-0.22 0.049-0.32 0.049-0.42 0-0.81-0.26-0.95-0.68l-1.77-5.32h2.109l1.561 4.68z"></path>
</svg>
