<!-- Generated by IcoMoon.io -->
<svg version="1.1" xmlns="http://www.w3.org/2000/svg" width="40" height="40" viewBox="0 0 40 40">
<title>at-fountain_pen</title>
<path fill="#91908d" d="M22.995 16.9l-0.059-0.583c0.010-0.026 0.026-0.047 0.033-0.075l1-4c0.070-0.281 0.016-0.579-0.15-0.816l-3.5-5c-0.187-0.267-0.493-0.426-0.819-0.426s-0.632 0.159-0.819 0.427l-3.5 5c-0.166 0.237-0.221 0.535-0.151 0.816l1 4c0.007 0.028 0.024 0.050 0.034 0.076l-0.059 0.581c-0.041 0.411-1.005 10.079-1.005 12.6 0 3.302 2.691 4.5 4.5 4.5s4.5-1.198 4.5-4.5c0-2.521-0.964-12.189-1.005-12.6zM22.194 19h-5.389c0.115-1.202 0.195-2 0.195-2h5c0 0 0.080 0.798 0.194 2zM16 12l3-4.286v4.786c0 0.276 0.224 0.5 0.5 0.5s0.5-0.224 0.5-0.5v-4.786l3 4.286-1 4h-5l-1-4zM19.5 33c0 0-3.5 0-3.5-3.5 0-1.612 0.416-6.343 0.711-9.5h5.578c0.295 3.157 0.711 7.888 0.711 9.5 0 3.5-3.5 3.5-3.5 3.5z"></path>
</svg>
