<!-- Generated by IcoMoon.io -->
<svg version="1.1" xmlns="http://www.w3.org/2000/svg" width="40" height="40" viewBox="0 0 40 40">
<title>at-oleo</title>
<path fill="#91908d" d="M25.998 30.944l-1-18c-0.020-0.283-0.215-1.514-1.998-1.854v-1.348c0.65-0.364 1-1.064 1-1.742 0-1.299-1.030-2-2-2h-4c-1.299 0-2 1.030-2 2 0 0.84 0.433 1.426 1 1.738v1.352c-1.783 0.34-1.978 1.571-1.998 1.854h-0.001l-1 18-0.001 0.029v0.027c0 1.206 0.799 3 3 3h6c2.201 0 3-1.794 3-3v-0.027l-0.002-0.029zM18 7h4c0 0 1 0 1 1 0 0 0 1-1 1s-4 0-4 0-1 0-1-1c0 0 0-1 1-1zM18 10h4v1h-4v-1zM18 12h4c2 0 2 1 2 1l0.5 9h-9l0.5-9c0 0 0-1 2-1zM15.444 23h9.111l0.445 8h-10l0.444-8zM23 33c-2 0-3 0-3 0s-1 0-3 0c-1 0-1.5-0.5-1.75-1h9.5c-0.25 0.5-0.75 1-1.75 1z"></path>
</svg>
