<!-- Generated by IcoMoon.io -->
<svg version="1.1" xmlns="http://www.w3.org/2000/svg" width="40" height="40" viewBox="0 0 40 40">
<title>at-spatula</title>
<path fill="#91908d" d="M22.9 21.479l0.058-0.192c0.312-1.037 3.042-10.201 3.042-12.287 0-2.201-1.794-3-3-3h-6c-1.206 0-3 0.799-3 3 0 2.086 2.731 11.25 3.042 12.287l0.058 0.191-0.070 0.279c-0.042 0.169-1.030 4.167-1.030 8.243 0 2.935 2.392 4 4 4 1.607 0 4-1.065 4-4 0-4.076-0.988-8.074-1.030-8.242l-0.070-0.279zM15 9c0-2 2-2 2-2h6c0 0 2 0 2 2s-3 12-3 12h-4c0 0-3-10-3-12zM20 33c0 0-3 0-3-3 0-4 1-8 1-8h4c0 0 1 4 1 8 0 3-3 3-3 3z"></path>
</svg>
