<!-- Generated by IcoMoon.io -->
<svg version="1.1" xmlns="http://www.w3.org/2000/svg" width="24" height="24" viewBox="0 0 24 24">
<title>attachment</title>
<path fill="#91908d" d="M4.012 12.413q0-1.838 1.275-3.131t3.112-1.294h8.4q1.313 0 2.25 0.956t0.938 2.269-0.938 2.25-2.25 0.938h-6.787q-0.825 0-1.425-0.581t-0.6-1.406 0.6-1.425 1.425-0.6h6v1.613h-6.075q-0.337 0-0.337 0.394t0.337 0.394h6.862q0.638 0 1.125-0.469t0.488-1.106-0.488-1.125-1.125-0.487h-8.4q-1.162 0-1.987 0.825t-0.825 1.988 0.825 1.969 1.987 0.806h7.613v1.612h-7.613q-1.838 0-3.112-1.275t-1.275-3.113z"></path>
</svg>
