<!-- Generated by IcoMoon.io -->
<svg version="1.1" xmlns="http://www.w3.org/2000/svg" width="24" height="24" viewBox="0 0 24 24">
<title>auto_delete</title>
<path fill="#91908d" d="M14.4 4.012h-2.813l-0.787-0.825h-4.012l-0.788 0.825h-2.813v1.575h11.212v-1.575zM15.188 9.6q-0.825 0-1.575 0.225v-3.413h-9.6v9.6q0 0.637 0.469 1.106t1.106 0.469h4.575q0.637 1.425 2.006 2.325t3.019 0.9q1.163 0 2.175-0.45t1.781-1.219 1.219-1.781 0.45-2.175-0.45-2.175-1.219-1.781-1.781-1.2-2.175-0.431zM15.188 19.2q-1.087 0-2.006-0.544t-1.444-1.444-0.525-2.025q0-1.087 0.525-2.006t1.444-1.444 2.006-0.525q1.125 0 2.025 0.525t1.444 1.444 0.544 2.006q0 1.125-0.544 2.025t-1.444 1.444-2.025 0.544zM15.6 12h-1.2v4.013l2.888 1.65 0.637-0.938-2.325-1.35v-3.375z"></path>
</svg>
