<!-- Generated by IcoMoon.io -->
<svg version="1.1" xmlns="http://www.w3.org/2000/svg" width="24" height="24" viewBox="0 0 24 24">
<title>bento</title>
<path fill="#91908d" d="M15.188 11.212v-4.8h3.225q0.637 0 1.106 0.469t0.469 1.106v3.225h-4.8zM18.413 17.587q0.637 0 1.106-0.469t0.469-1.106v-3.225h-4.8v4.8h3.225zM13.612 6.413v11.175h-8.025q-0.638 0-1.106-0.469t-0.469-1.106v-8.025q0-0.638 0.469-1.106t1.106-0.469h8.025zM10.012 12q0-0.488-0.356-0.844t-0.844-0.356q-0.525 0-0.863 0.356t-0.337 0.844 0.337 0.844 0.863 0.356q0.488 0 0.844-0.356t0.356-0.844z"></path>
</svg>
