<!-- Generated by IcoMoon.io -->
<svg version="1.1" xmlns="http://www.w3.org/2000/svg" width="24" height="24" viewBox="0 0 24 24">
<title>blur_circular</title>
<path fill="#91908d" d="M13.612 12.788q0.338 0 0.563 0.244t0.225 0.581-0.225 0.563-0.563 0.225-0.581-0.225-0.244-0.563 0.244-0.581 0.581-0.244zM13.612 15.6q0.375 0 0.375 0.413 0 0.375-0.375 0.375-0.412 0-0.412-0.375 0-0.413 0.412-0.413zM12 18.413q2.625 0 4.519-1.894t1.894-4.519-1.894-4.519-4.519-1.894-4.519 1.894-1.894 4.519 1.894 4.519 4.519 1.894zM12 4.012q3.3 0 5.644 2.344t2.344 5.644-2.344 5.644-5.644 2.344-5.644-2.344-2.344-5.644 2.344-5.644 5.644-2.344zM16.013 10.012q0.375 0 0.375 0.375 0 0.413-0.375 0.413-0.413 0-0.413-0.413 0-0.375 0.413-0.375zM16.013 13.2q0.375 0 0.375 0.412 0 0.375-0.375 0.375-0.413 0-0.413-0.375 0-0.412 0.413-0.412zM13.612 8.4q-0.412 0-0.412-0.412 0-0.375 0.412-0.375 0.375 0 0.375 0.375 0 0.412-0.375 0.412zM13.612 9.6q0.338 0 0.563 0.225t0.225 0.563-0.225 0.581-0.563 0.244-0.581-0.244-0.244-0.581 0.244-0.563 0.581-0.225zM10.387 8.4q-0.375 0-0.375-0.412 0-0.375 0.375-0.375 0.413 0 0.413 0.375 0 0.412-0.413 0.412zM7.988 13.2q0.412 0 0.412 0.412 0 0.375-0.412 0.375-0.375 0-0.375-0.375 0-0.412 0.375-0.412zM10.387 15.6q0.413 0 0.413 0.413 0 0.375-0.413 0.375-0.375 0-0.375-0.375 0-0.413 0.375-0.413zM7.988 10.012q0.412 0 0.412 0.375 0 0.413-0.412 0.413-0.375 0-0.375-0.413 0-0.375 0.375-0.375zM10.387 12.788q0.338 0 0.581 0.244t0.244 0.581-0.244 0.563-0.581 0.225-0.563-0.225-0.225-0.563 0.225-0.581 0.563-0.244zM10.387 9.6q0.338 0 0.581 0.225t0.244 0.563-0.244 0.581-0.581 0.244-0.563-0.244-0.225-0.581 0.225-0.563 0.563-0.225z"></path>
</svg>
