<!-- Generated by IcoMoon.io -->
<svg version="1.1" xmlns="http://www.w3.org/2000/svg" width="43" height="40" viewBox="0 0 43 40">
<title>bm-award</title>
<path fill="#91908d" d="M31.712 16.8v-6.4c4.215 0 4.259-0.223 4.259 2.133s-1.906 4.267-4.259 4.267v0zM29.583 14.667c0 4.713-3.812 10.667-8.516 10.667s-8.516-5.954-8.516-10.667v-6.4c0-1.055 1.108-2.133 2.129-2.133h12.774c1.021 0 2.129 1.044 2.129 2.133v6.4zM10.421 16.8c-2.352 0-4.259-1.91-4.259-4.267s0.044-2.133 4.259-2.133v6.4zM31.712 8.267c0-2.356-1.906-4.267-4.258-4.267h-12.774c-2.352 0-4.258 1.91-4.258 4.267-7.293 0-6.388-0.001-6.388 4.267 0 3.534 2.86 6.4 6.388 6.4 0.254 0 0.497-0.041 0.742-0.075 1.429 4.186 4.797 7.956 8.838 8.531v6.477h-3.194c-0.588 0-1.065 0.477-1.065 1.067s0.477 1.067 1.065 1.067h8.516c0.588 0 1.065-0.477 1.065-1.067s-0.477-1.067-1.065-1.067h-3.194v-6.477c4.042-0.575 7.409-4.346 8.839-8.531 0.244 0.034 0.487 0.075 0.741 0.075 3.529 0 6.388-2.866 6.388-6.4 0-4.268 0.905-4.267-6.388-4.267v0z"></path>
</svg>
