<!-- Generated by IcoMoon.io -->
<svg version="1.1" xmlns="http://www.w3.org/2000/svg" width="43" height="40" viewBox="0 0 43 40">
<title>bm-briefcase</title>
<path fill="#91908d" d="M23.2 21.067c0-0.39-0.112-0.751-0.295-1.067h-3.676c-0.183 0.316-0.295 0.676-0.295 1.067 0 1.178 0.956 2.133 2.133 2.133s2.133-0.956 2.133-2.133v0zM25.333 21.067c0 2.356-1.91 4.267-4.267 4.267s-4.267-1.91-4.267-4.267c0-0.371 0.058-0.726 0.15-1.067h-12.95v11.733c0 2.356 1.91 4.267 4.267 4.267h25.6c2.356 0 4.267-1.91 4.267-4.267v-11.733h-12.95c0.093 0.34 0.15 0.695 0.15 1.067v0zM25.333 8.267h-8.533v-1.067c0-0.589 0.478-1.067 1.067-1.067h6.4c0.589 0 1.067 0.478 1.067 1.067v1.067zM33.867 8.267h-6.4v-2.133c0-1.178-0.956-2.133-2.133-2.133h-8.533c-1.178 0-2.133 0.956-2.133 2.133v2.133h-6.4c-2.356 0-4.267 1.91-4.267 4.267v5.333h34.133v-5.333c0-2.356-1.91-4.267-4.267-4.267v0z"></path>
</svg>
