<!-- Generated by IcoMoon.io -->
<svg version="1.1" xmlns="http://www.w3.org/2000/svg" width="40" height="40" viewBox="0 0 40 40">
<title>bm-clock1</title>
<path fill="#91908d" d="M30 21h2v-2h-2v2zM20 34c-7.732 0-14-6.268-14-14s6.268-14 14-14 14 6.269 14 14c0 7.732-6.268 14-14 14v0zM20 4c-8.837 0-16 7.164-16 16s7.163 16 16 16 16-7.163 16-16c0-8.836-7.163-16-16-16v0zM26.076 12.273l1.384 1.387 1.384-1.387-1.384-1.386-1.384 1.386zM25.783 26.778l1.414 1.414 1.414-1.414-1.414-1.414-1.414 1.414zM20 8c-0.552 0-1 0.447-1 1v10.023h-8c-0.553 0-1 0.449-1 1.001s0.447 0.999 1 0.999h9c0.553 0 1-0.447 1-0.999v-11.024c0-0.553-0.447-1-1-1v0zM13.692 12.323l-1.414-1.414-1.414 1.414 1.414 1.414 1.414-1.414zM10.733 26.832l1.384 1.387 1.384-1.387-1.384-1.387-1.384 1.387zM19 32h2v-2h-2v2z"></path>
</svg>
