<!-- Generated by IcoMoon.io -->
<svg version="1.1" xmlns="http://www.w3.org/2000/svg" width="40" height="40" viewBox="0 0 40 40">
<title>bm-checkmark-square</title>
<path fill="#91908d" d="M34 32c0 1.1-0.896 2-2 2h-24c-1.104 0-2-0.9-2-2v-24c0-1.1 0.896-2 2-2h24c1.104 0 2 0.9 2 2v24zM32 4h-24c-2.209 0-4 1.79-4 4v24c0 2.21 1.791 4 4 4h24c2.209 0 4-1.79 4-4v-24c0-2.21-1.791-4-4-4v0zM26.027 13.070c-0.479-0.28-1.090-0.11-1.366 0.36l-6.395 11.080-3.578-3.3c-0.378-0.4-1.011-0.42-1.414-0.040-0.403 0.37-0.424 1.010-0.046 1.41l4.572 4.22c0.377 0.4 1.010 0.42 1.413 0.040 0.122-0.11 7.18-12.41 7.18-12.41 0.276-0.47 0.112-1.090-0.366-1.36v0z"></path>
</svg>
