<!-- Generated by IcoMoon.io -->
<svg version="1.1" xmlns="http://www.w3.org/2000/svg" width="53" height="40" viewBox="0 0 53 40">
<title>bm-cloud-download1</title>
<path fill="#91908d" d="M34.291 22.413l-7.921 7.88c-0.279 0.28-0.649 0.4-1.015 0.373-0.367 0.027-0.736-0.093-1.016-0.373l-7.921-7.88c-0.523-0.533-0.523-1.373 0-1.893 0.525-0.52 1.375-0.52 1.897 0l5.685 5.653v-12.827c0-0.733 0.597-1.333 1.333-1.333 0.737 0 1.333 0.6 1.333 1.333v12.867l5.727-5.693c0.524-0.52 1.373-0.52 1.897 0 0.523 0.52 0.523 1.36 0 1.893v0zM34.756 10.707c-1.957-3.973-6.032-6.707-10.756-6.707-6.332 0-11.507 4.907-11.956 11.12-4.655 1.333-8.044 5.4-8.044 10.213 0 5.68 4.72 10.307 10.667 10.64l22.667 0.027c4.583-1.987 9.333-7.533 9.333-12.667 0-6.733-5.268-12.24-11.911-12.627v0z"></path>
</svg>
