<!-- Generated by IcoMoon.io -->
<svg version="1.1" xmlns="http://www.w3.org/2000/svg" width="40" height="40" viewBox="0 0 40 40">
<title>bm-comment-21</title>
<path fill="#91908d" d="M20 30c-1.168 0-2.296-0.136-3.38-0.367l-4.708 2.83 0.063-4.639c-3.609-2.17-5.975-5.758-5.975-9.824 0-6.627 6.268-12 14-12s14 5.373 14 12c0 6.628-6.268 12-14 12v0zM20 4c-8.836 0-16 6.269-16 14 0 4.419 2.345 8.354 6 10.919v7.081l7.009-4.253c0.97 0.16 1.968 0.253 2.991 0.253 8.836 0 16-6.268 16-14s-7.164-14-16-14v0zM27 15h-14c-0.552 0-1 0.448-1 1 0 0.553 0.448 1 1 1h14c0.552 0 1-0.447 1-1 0-0.552-0.448-1-1-1v0zM25 21h-10c-0.552 0-1 0.447-1 1s0.448 1 1 1h10c0.552 0 1-0.447 1-1s-0.448-1-1-1v0z"></path>
</svg>
