<!-- Generated by IcoMoon.io -->
<svg version="1.1" xmlns="http://www.w3.org/2000/svg" width="40" height="40" viewBox="0 0 40 40">
<title>bm-clock</title>
<path fill="#91908d" d="M30 19h2v2h-2v-2zM27.46 13.66l-1.384-1.387 1.384-1.386 1.384 1.386-1.384 1.387zM27.197 28.192l-1.414-1.414 1.414-1.414 1.414 1.414-1.414 1.414zM21 20.024c0 0.552-0.447 0.999-1 0.999h-9c-0.553 0-1-0.447-1-0.999s0.447-1.001 1-1.001h8v-10.023c0-0.553 0.448-1 1-1 0.553 0 1 0.447 1 1v11.024zM19 30h2v2h-2v-2zM12.117 28.219l-1.384-1.387 1.384-1.387 1.384 1.387-1.384 1.387zM12.278 10.909l1.414 1.414-1.414 1.414-1.414-1.414 1.414-1.414zM20 4c-8.837 0-16 7.164-16 16s7.163 16 16 16 16-7.163 16-16c0-8.836-7.163-16-16-16v0z"></path>
</svg>
