<!-- Generated by IcoMoon.io -->
<svg version="1.1" xmlns="http://www.w3.org/2000/svg" width="39" height="40" viewBox="0 0 39 40">
<title>bm-comments1</title>
<path fill="#91908d" d="M10.5 14c0.829 0 1.5 0.672 1.5 1.5s-0.671 1.5-1.5 1.5-1.5-0.671-1.5-1.5c0-0.828 0.671-1.5 1.5-1.5v0zM16.5 14c0.829 0 1.5 0.672 1.5 1.5s-0.671 1.5-1.5 1.5-1.5-0.671-1.5-1.5c0-0.828 0.671-1.5 1.5-1.5v0zM22.5 14c0.829 0 1.5 0.672 1.5 1.5s-0.671 1.5-1.5 1.5-1.5-0.671-1.5-1.5c0-0.828 0.671-1.5 1.5-1.5v0zM13.637 26.736c0.777 0.127 2.544 0.264 3.363 0.264 7.18 0 12-5.343 12-11.625s-6.023-11.375-12-11.375c-7.189 0-13 5.093-13 11.375 0 3.64 1.387 6.729 4 8.954v5.671l5.637-3.264zM30.949 13.139l0.051 0.861c0.008 0.817 0 0.742 0 1.5 0 7.975-6.284 13.5-15 13.5h-3c2.38 2.328 5.149 3.75 9 3.75 0.819 0 1.618-0.074 2.395-0.201l5.605 3.451v-5.671c3.040-2.083 5-5.314 5-8.954 0-3.244-1.561-6.164-4.051-8.236v0z"></path>
</svg>
