<!-- Generated by IcoMoon.io -->
<svg version="1.1" xmlns="http://www.w3.org/2000/svg" width="40" height="40" viewBox="0 0 40 40">
<title>bm-chevron-left-circle1</title>
<path fill="#91908d" d="M20 34c-7.732 0-14-6.27-14-14s6.268-14 14-14c7.732 0 14 6.27 14 14s-6.268 14-14 14v0zM20 4c-8.837 0-16 7.16-16 16s7.163 16 16 16c8.837 0 16-7.16 16-16s-7.163-16-16-16v0zM24.535 11.46c-0.39-0.39-1.023-0.39-1.414 0l-7.656 7.66c-0.24 0.24-0.315 0.57-0.26 0.88-0.055 0.31 0.020 0.64 0.26 0.88l7.656 7.66c0.391 0.39 1.024 0.39 1.414 0 0.391-0.4 0.391-1.030 0-1.42l-7.121-7.12 7.121-7.12c0.391-0.39 0.391-1.020 0-1.42v0z"></path>
</svg>
