<!-- Generated by IcoMoon.io -->
<svg version="1.1" xmlns="http://www.w3.org/2000/svg" width="40" height="40" viewBox="0 0 40 40">
<title>bm-cross-circle</title>
<path fill="#91908d" d="M25.657 24.24c0.391 0.39 0.391 1.030 0 1.42-0.39 0.39-1.024 0.39-1.415 0l-4.236-4.24-4.266 4.27c-0.394 0.39-1.032 0.39-1.426 0-0.393-0.4-0.393-1.040 0-1.43l4.266-4.27-4.236-4.23c-0.391-0.39-0.391-1.030 0-1.42 0.389-0.39 1.023-0.39 1.414 0l4.236 4.24 4.298-4.3c0.394-0.39 1.031-0.39 1.425 0 0.393 0.4 0.393 1.030 0 1.43l-4.297 4.3 4.237 4.23zM20 4c-8.837 0-16 7.16-16 16s7.163 16 16 16c8.837 0 16-7.16 16-16s-7.163-16-16-16v0z"></path>
</svg>
