<!-- Generated by IcoMoon.io -->
<svg version="1.1" xmlns="http://www.w3.org/2000/svg" width="40" height="40" viewBox="0 0 40 40">
<title>bm-chevron-up-square</title>
<path fill="#91908d" d="M34 32c0 1.1-0.896 2-2 2h-24c-1.104 0-2-0.9-2-2v-24c0-1.104 0.896-2 2-2h24c1.104 0 2 0.896 2 2v24zM32 4h-24c-2.209 0-4 1.791-4 4v24c0 2.21 1.791 4 4 4h24c2.209 0 4-1.79 4-4v-24c0-2.209-1.791-4-4-4v0zM20.777 15.284c-0.209-0.211-0.487-0.301-0.761-0.286-0.275-0.015-0.552 0.075-0.762 0.286l-8.941 8.976c-0.392 0.39-0.392 1.030 0 1.43 0.394 0.39 1.031 0.39 1.423 0l8.28-8.314 8.279 8.314c0.393 0.39 1.030 0.39 1.423 0 0.392-0.4 0.392-1.040 0-1.43l-8.941-8.976z"></path>
</svg>
