<!-- Generated by IcoMoon.io -->
<svg version="1.1" xmlns="http://www.w3.org/2000/svg" width="40" height="40" viewBox="0 0 40 40">
<title>bm-chevron-down-circle</title>
<path fill="#91908d" d="M27.121 15.46l-7.121 7.13-7.121-7.13c-0.391-0.39-1.024-0.39-1.415 0-0.39 0.4-0.39 1.030 0 1.42l7.658 7.66c0.239 0.24 0.567 0.31 0.878 0.25 0.311 0.060 0.639-0.010 0.879-0.25l7.657-7.66c0.39-0.39 0.39-1.020 0-1.42-0.391-0.39-1.024-0.39-1.415 0v0zM20 34c-7.732 0-14-6.27-14-14s6.268-14 14-14c7.732 0 14 6.27 14 14s-6.268 14-14 14v0zM20 4c-8.836 0-16 7.16-16 16s7.164 16 16 16c8.837 0 16-7.16 16-16s-7.163-16-16-16v0z"></path>
</svg>
