<!-- Generated by IcoMoon.io -->
<svg version="1.1" xmlns="http://www.w3.org/2000/svg" width="46" height="40" viewBox="0 0 46 40">
<title>bm-download</title>
<path fill="#91908d" d="M39.692 4h-34.462c-0.59 0-1.231 0.641-1.231 1.231v8.615c0 1.359 1.103 2.462 2.462 2.462s2.462-1.103 2.462-2.462v-4.923h27.077v4.923c0 1.359 1.103 2.462 2.462 2.462s2.462-1.103 2.462-2.462v-8.615c0-0.667-0.487-1.231-1.231-1.231v0zM27.385 26.154h-2.462v-11.077c0-1.359-1.103-2.462-2.462-2.462s-2.462 1.103-2.462 2.462v11.077h-2.462c-0.482 0-1.594-0.117-2.076 0.369-0.482 0.484-0.482 1.27 0 1.755l6.082 7.374c0.257 0.258 0.599 0.369 0.937 0.351 0.337 0.018 0.678-0.092 0.935-0.351l6.082-7.374c0.482-0.485 0.482-1.271 0-1.755-0.482-0.486-1.247-0.369-2.114-0.369v0z"></path>
</svg>
