<!-- Generated by IcoMoon.io -->
<svg version="1.1" xmlns="http://www.w3.org/2000/svg" width="58" height="40" viewBox="0 0 58 40">
<title>bm-delete1</title>
<path fill="#91908d" d="M36.941 23.258c0.57 0.567 0.57 1.498 0 2.065-0.567 0.567-1.489 0.567-2.058 0l-3.257-3.258-3.299 3.302c-0.573 0.567-1.503 0.567-2.076 0-0.573-0.582-0.573-1.513 0-2.080l3.299-3.302-3.257-3.244c-0.569-0.567-0.569-1.498 0-2.065s1.491-0.567 2.058 0l3.257 3.258 3.345-3.345c0.575-0.567 1.503-0.567 2.076 0 0.575 0.582 0.575 1.498 0 2.080l-3.345 3.345 3.257 3.244zM44.721 4h-26.102c-0.407-0.029-0.823 0.102-1.135 0.407l-13.071 14.458c-0.307 0.305-0.439 0.713-0.417 1.105-0.022 0.407 0.111 0.815 0.417 1.12l13.071 14.458c0.285 0.276 0.657 0.422 1.030 0.422v0.029h26.207c3.216 0 5.824-2.604 5.824-5.818v-20.364c0-3.215-2.608-5.818-5.824-5.818v0z"></path>
</svg>
