<!-- Generated by IcoMoon.io -->
<svg version="1.1" xmlns="http://www.w3.org/2000/svg" width="40" height="40" viewBox="0 0 40 40">
<title>bm-decrease1</title>
<path fill="#91908d" d="M31 19h-8.972c-0.279 0-0.531-0.115-0.712-0.301-0.193-0.164-0.316-0.403-0.316-0.699v-9c0-0.553 0.448-1 1-1s1 0.447 1 1l-0.031 6.575 6.787-6.788 1.414 1.414-6.798 6.799h6.628c0.552 0 1 0.448 1 1 0 0.553-0.448 1-1 1v0zM19 31c0 0.55-0.448 1-1 1s-1-0.45-1-1l0.032-6.57-6.788 6.78-1.414-1.41 6.798-6.8h-6.628c-0.552 0-1-0.45-1-1s0.448-1 1-1h8.972c0.279 0 0.53 0.12 0.712 0.3 0.193 0.16 0.316 0.4 0.316 0.7v9zM32 4h-24c-2.209 0-4 1.791-4 4v24c0 2.21 1.791 4 4 4h24c2.209 0 4-1.79 4-4v-24c0-2.209-1.791-4-4-4v0z"></path>
</svg>
