<!-- Generated by IcoMoon.io -->
<svg version="1.1" xmlns="http://www.w3.org/2000/svg" width="53" height="40" viewBox="0 0 53 40">
<title>bm-envelope1</title>
<path fill="#91908d" d="M38.667 16c0 0.737-0.596 1.333-1.333 1.333h-2.667c-0.737 0-1.333-0.596-1.333-1.333v-2.667c0-0.736 0.596-1.333 1.333-1.333h2.667c0.737 0 1.333 0.597 1.333 1.333v2.667zM38.667 9.333h-5.333c-1.472 0-2.667 1.195-2.667 2.667v5.333c0 1.472 1.195 2.667 2.667 2.667h5.333c1.472 0 2.667-1.195 2.667-2.667v-5.333c0-1.472-1.195-2.667-2.667-2.667v0zM44 30.667c0 1.472-1.195 2.667-2.667 2.667h-32c-1.472 0-2.667-1.195-2.667-2.667v-21.333c0-1.472 1.195-2.667 2.667-2.667h32c1.472 0 2.667 1.195 2.667 2.667v21.333zM41.333 4h-32c-2.945 0-5.333 2.388-5.333 5.333v21.333c0 2.945 2.388 5.333 5.333 5.333h32c2.945 0 5.333-2.388 5.333-5.333v-21.333c0-2.945-2.388-5.333-5.333-5.333v0zM26.667 28h-16c-0.737 0-1.333 0.596-1.333 1.333s0.596 1.333 1.333 1.333h16c0.737 0 1.333-0.596 1.333-1.333s-0.596-1.333-1.333-1.333v0zM26.667 22.667h-16c-0.737 0-1.333 0.597-1.333 1.333 0 0.737 0.596 1.333 1.333 1.333h16c0.737 0 1.333-0.596 1.333-1.333 0-0.736-0.596-1.333-1.333-1.333v0z"></path>
</svg>
