<!-- Generated by IcoMoon.io -->
<svg version="1.1" xmlns="http://www.w3.org/2000/svg" width="33" height="40" viewBox="0 0 33 40">
<title>bm-fire-2</title>
<path fill="#91908d" d="M17.5 34c-6.352 0-11.5-5.359-11.5-11.375 0-1.397 0.031-2.531 1-3.625-0.105 0.634 1.397 6.055 6.305 5.771-0.213-4.119-1.327-14.21 3.847-17.698-0.457 5.484 0.886 12.851 6.877 13.927-0.343-2.199-0.302-5.857 1.238-6.533 0.166 3.369 2.657 5.447 2.657 8.685 0 5.864-5.673 10.848-10.424 10.848v0zM26.905 10.953c-4.385 1.25-5.188 4.795-4.905 7.047-3.128-3.678-3-7.907-3-14-10.032 3.783-7.699 14.688-8 18-2.523-2.065-3-7-3-7-2.664 1.371-4 5.031-4 8 0 7.18 5.82 13 13 13s13-5.82 13-13c0-4.267-3.133-6.235-3.095-12.047v0z"></path>
</svg>
