<!-- Generated by IcoMoon.io -->
<svg version="1.1" xmlns="http://www.w3.org/2000/svg" width="33" height="40" viewBox="0 0 33 40">
<title>bm-gameboy-2</title>
<path fill="#91908d" d="M24 21c0 0.553-0.447 1-1 1h-12c-0.553 0-1-0.447-1-1v-10c0-0.553 0.447-1 1-1h12c0.553 0 1 0.447 1 1v10zM24 8h-14c-1.104 0-2 0.896-2 2v12c0 1.104 0.896 2 2 2h14c1.104 0 2-0.896 2-2v-12c0-1.104-0.896-2-2-2v0zM25 26c-0.552 0-1 0.448-1 1 0 0.553 0.448 1 1 1 0.553 0 1-0.447 1-1 0-0.552-0.447-1-1-1v0zM28 32c0 1.104-0.896 2-2 2h-18c-1.104 0-2-0.896-2-2v-24c0-1.104 0.896-2 2-2h18c1.104 0 2 0.896 2 2v24zM26 4h-18c-2.209 0-4 1.791-4 4v24c0 2.209 1.791 4 4 4h18c2.209 0 4-1.791 4-4v-24c0-2.209-1.791-4-4-4v0zM13 28h-1v-1c0-0.552-0.447-1-1-1s-1 0.448-1 1v1h-1c-0.553 0-1 0.447-1 1s0.447 1 1 1h1v1c0 0.553 0.447 1 1 1s1-0.447 1-1v-1h1c0.553 0 1-0.447 1-1s-0.447-1-1-1v0zM19 30c-0.552 0-1 0.448-1 1 0 0.553 0.448 1 1 1 0.553 0 1-0.447 1-1 0-0.552-0.447-1-1-1v0zM20 26c-0.552 0-1 0.448-1 1 0 0.553 0.448 1 1 1 0.553 0 1-0.447 1-1 0-0.552-0.447-1-1-1v0zM24 30c-0.553 0-1 0.448-1 1 0 0.553 0.447 1 1 1s1-0.447 1-1c0-0.552-0.447-1-1-1v0z"></path>
</svg>
