<!-- Generated by IcoMoon.io -->
<svg version="1.1" xmlns="http://www.w3.org/2000/svg" width="40" height="40" viewBox="0 0 40 40">
<title>bm-globe</title>
<path fill="#91908d" d="M31.596 27.829c-1.915-0.637-3.974-1.113-6.141-1.421 0.295-1.733 0.452-3.549 0.502-5.408h8.005c-0.179 2.521-1.026 4.854-2.366 6.829v0zM23.434 33.559c0.666-1.609 1.211-3.348 1.63-5.18 1.798 0.266 3.522 0.659 5.155 1.175-1.804 1.923-4.146 3.338-6.785 4.005v0zM20.971 33.951c-0.322 0.023-0.643 0.049-0.971 0.049s-0.648-0.026-0.971-0.049c-0.851-1.772-1.54-3.744-2.050-5.837 0.994-0.087 2.001-0.138 3.021-0.138s2.027 0.051 3.022 0.138c-0.511 2.093-1.2 4.065-2.051 5.837v0zM9.781 29.554c1.633-0.516 3.357-0.909 5.155-1.175 0.419 1.832 0.964 3.571 1.63 5.18-2.639-0.667-4.98-2.082-6.785-4.005v0zM8.404 27.829c-1.34-1.975-2.187-4.308-2.366-6.829h8.005c0.050 1.859 0.207 3.675 0.502 5.408-2.167 0.308-4.226 0.784-6.141 1.421v0zM8.404 12.171c1.915 0.637 3.974 1.114 6.141 1.421-0.295 1.733-0.452 3.549-0.502 5.408h-8.005c0.179-2.521 1.026-4.854 2.366-6.829v0zM16.566 6.441c-0.666 1.609-1.211 3.348-1.63 5.18-1.798-0.265-3.522-0.659-5.155-1.175 1.805-1.923 4.146-3.338 6.785-4.005v0zM19.029 6.049c0.323-0.022 0.643-0.049 0.971-0.049s0.649 0.027 0.971 0.049c0.851 1.772 1.54 3.745 2.051 5.837-0.995 0.087-2.002 0.138-3.022 0.138s-2.027-0.051-3.021-0.138c0.51-2.092 1.199-4.065 2.050-5.837v0zM23.954 21c-0.054 1.761-0.214 3.493-0.515 5.156-1.126-0.098-2.271-0.156-3.439-0.156s-2.313 0.058-3.438 0.156c-0.302-1.663-0.462-3.395-0.515-5.156h7.907zM16.047 19c0.053-1.761 0.213-3.493 0.515-5.156 1.125 0.098 2.27 0.156 3.438 0.156s2.313-0.058 3.438-0.156c0.302 1.663 0.462 3.395 0.516 5.156h-7.907zM30.219 10.446c-1.633 0.516-3.357 0.91-5.155 1.175-0.419-1.832-0.964-3.571-1.63-5.18 2.639 0.667 4.981 2.082 6.785 4.005v0zM31.596 12.171c1.34 1.975 2.187 4.308 2.366 6.829h-8.005c-0.050-1.859-0.207-3.675-0.502-5.408 2.167-0.307 4.226-0.784 6.141-1.421v0zM20 4c-8.836 0-16 7.163-16 16s7.164 16 16 16c8.836 0 16-7.163 16-16s-7.164-16-16-16v0z"></path>
</svg>
