<!-- Generated by IcoMoon.io -->
<svg version="1.1" xmlns="http://www.w3.org/2000/svg" width="43" height="40" viewBox="0 0 43 40">
<title>bm-layers</title>
<path fill="#91908d" d="M21.067 34.224l-14.791-6.819c0.051 0.032-1.309-0.583-2.275-1.136 0 0.825 0.207 2.335 0.976 2.743l14.482 6.51c1.279 0.604 1.831 0.604 3.218 0l14.481-6.51c0.715-0.333 0.976-1.9 0.976-2.743-0.931 0.465-2.25 1.131-2.275 1.136l-14.791 6.819zM4.976 15.374l14.482 6.511c1.279 0.603 1.831 0.603 3.218 0l14.481-6.511c1.067-0.497 1.102-2.61 0-3.215l-14.481-7.646c-1.138-0.674-1.939-0.639-3.218 0l-14.482 7.646c-1.102 0.71-1.137 2.612 0 3.215v0zM4.976 22.194l14.482 6.509c1.279 0.604 1.831 0.604 3.218 0l14.481-6.509c0.715-0.334 0.976-1.901 0.976-2.745-0.931 0.466-2.25 1.131-2.275 1.137l-14.791 6.818-14.791-6.818c0.051 0.031-1.309-0.585-2.275-1.137 0 0.826 0.207 2.336 0.976 2.745v0z"></path>
</svg>
