<!-- Generated by IcoMoon.io -->
<svg version="1.1" xmlns="http://www.w3.org/2000/svg" width="43" height="40" viewBox="0 0 43 40">
<title>bm-megaphone</title>
<path fill="#91908d" d="M23.2 25.333h3.2v-14.933h-3.2v14.933zM36 4l-7.467 4.978v17.777l7.467 4.978c1.178 0 2.133-0.956 2.133-2.133v-23.467c0-1.178-0.956-2.133-2.133-2.133v0zM4 17.867c0 3.982 2.732 6.558 6.42 7.264l-0.020 0.203v8.533c0 1.178 0.956 2.133 2.133 2.133h3.2c1.178 0 2.133-0.956 2.133-2.133v-8.533h3.2v-14.933h-8.533c-4.713 0-8.533 2.754-8.533 7.467v0z"></path>
</svg>
