<!-- Generated by IcoMoon.io -->
<svg version="1.1" xmlns="http://www.w3.org/2000/svg" width="29" height="40" viewBox="0 0 29 40">
<title>bm-music-note1</title>
<path fill="#91908d" d="M14.58 32.833c-2.949 1.841-6.565 1.748-7.994-0.37-1.43-2.117-0.131-5.458 2.818-7.3s6.664-1.649 8.094 0.468c1.43 2.118 0.032 5.36-2.918 7.202v0zM26.293 11.364l-6.657-6.657c-0.391-0.391-1.002-0.368-1.414 0-0.297 0.266-0.222 0.746-0.222 1.293v17.327c-2.219-1.644-5.881-1.647-9.124 0.226-4.032 2.327-5.885 6.666-4.14 9.69 1.746 3.024 6.43 3.588 10.462 1.26 3.132-1.808 4.964-4.827 4.802-7.503v-19.029l4.879 4.807c0.391 0.391 1.023 0.391 1.414 0 0.391-0.39 0.391-1.023 0-1.414v0z"></path>
</svg>
