<!-- Generated by IcoMoon.io -->
<svg version="1.1" xmlns="http://www.w3.org/2000/svg" width="35" height="40" viewBox="0 0 35 40">
<title>bm-multiple-documents-files1</title>
<path fill="#91908d" d="M27 12c-1.065 0-2-0.961-2-2v-3.971l5 5.971h-3zM25 20.016h-9c-0.552 0-1-0.448-1-0.999 0-0.552 0.448-0.999 1-0.999h9c0.552 0 1 0.447 1 0.999s-0.448 0.999-1 0.999v0zM25 25.011h-9c-0.552 0-1-0.448-1-0.999 0-0.552 0.448-0.999 1-0.999h9c0.552 0 1 0.447 1 0.999s-0.448 0.999-1 0.999v0zM23 34h-15c-1.050 0-2-0.981-2-2v-20c0-1.487 1.224-2 3-2v18c0 2.059 1.884 4 4 4 0 0 10.842-0.011 12.009-0.011 0 1.213-0.796 2.011-2.009 2.011v0zM25 4.031c-0.124 0-12-0.031-12-0.031-2.116 0-4 1.941-4 4l-1.155 0.027c-2.116 0-3.845 1.914-3.845 3.973v20c0 2.059 1.884 4 4 4h15c2.116 0 4-1.941 4-4h1c2.116 0 4-1.941 4-4v-15.977l-7-7.992z"></path>
</svg>
