<!-- Generated by IcoMoon.io -->
<svg version="1.1" xmlns="http://www.w3.org/2000/svg" width="28" height="40" viewBox="0 0 28 40">
<title>bm-notebook1</title>
<path fill="#91908d" d="M21 16h-12c-0.552 0-1-0.447-1-1 0-0.552 0.448-1 1-1h12c0.552 0 1 0.448 1 1 0 0.553-0.448 1-1 1v0zM21 22h-12c-0.552 0-1-0.447-1-1 0-0.552 0.448-1 1-1h12c0.552 0 1 0.448 1 1 0 0.553-0.448 1-1 1v0zM21 28h-12c-0.552 0-1-0.447-1-1s0.448-1 1-1h12c0.552 0 1 0.447 1 1s-0.448 1-1 1v0zM22 6v-2h-2v2h-4v-2h-2v2h-4v-2h-2v2c-2.209 0-4 1.791-4 4v22c0 2.209 1.791 4 4 4h14c2.209 0 4-1.791 4-4v-22c0-2.209-1.791-4-4-4v0z"></path>
</svg>
