<!-- Generated by IcoMoon.io -->
<svg version="1.1" xmlns="http://www.w3.org/2000/svg" width="40" height="40" viewBox="0 0 40 40">
<title>bm-pie-chart1</title>
<path fill="#91908d" d="M32.551 25.613l-13.551-4.613v-15c7.779-0.039 14.889 6.682 14.889 14.571 0 2.058-0.538 3.619-1.338 5.042v0zM18.5 34c-6.903 0-12.5-5.596-12.5-12.5 0-6.29 4.917-11.622 11-12.5v13.429l12.709 4.426c-1.691 4.273-6.546 7.145-11.209 7.145v0zM19 4h-2v3c-7.279 0.789-13 7.026-13 14.5 0 8.008 6.492 14.5 14.5 14.5 5.906 0 10.979-3.537 13.238-8.603l2.262 0.603c1.093-1.795 2-4.343 2-7.429 0-9.152-7.995-16.571-17-16.571v0z"></path>
</svg>
