<!-- Generated by IcoMoon.io -->
<svg version="1.1" xmlns="http://www.w3.org/2000/svg" width="40" height="40" viewBox="0 0 40 40">
<title>bm-plus</title>
<path fill="#91908d" d="M32 22h-10v10c0 1.1-0.896 2-2 2s-2-0.9-2-2v-10h-10c-1.104 0-2-0.9-2-2s0.896-2 2-2h10v-10c0-1.1 0.896-2 2-2s2 0.9 2 2v10h10c1.104 0 2 0.9 2 2s-0.896 2-2 2v0zM32 16h-8v-8c0-2.21-1.791-4-4-4s-4 1.79-4 4v8h-8c-2.209 0-4 1.79-4 4s1.791 4 4 4h8v8c0 2.21 1.791 4 4 4s4-1.79 4-4v-8h8c2.209 0 4-1.79 4-4s-1.791-4-4-4v0z"></path>
</svg>
