<!-- Generated by IcoMoon.io -->
<svg version="1.1" xmlns="http://www.w3.org/2000/svg" width="35" height="40" viewBox="0 0 35 40">
<title>bm-playlist1</title>
<path fill="#91908d" d="M30.667 4c-0.589 0-1.067 0.477-1.067 1.067v17.462c-2.364-1.774-6.26-1.811-9.732 0.194-4.301 2.483-6.208 7.071-4.415 10.336 1.861 3.392 6.859 3.827 11.158 1.344 3.302-1.906 5.227-5.076 5.102-7.905l0.020-0.098v-21.333c0-0.59-0.478-1.067-1.067-1.067v0zM5.067 20h11.733c0.589 0 1.067-0.477 1.067-1.067 0-0.589-0.478-1.067-1.067-1.067h-11.733c-0.589 0-1.067 0.478-1.067 1.067 0 0.59 0.478 1.067 1.067 1.067v0zM11.467 24.267h-6.4c-0.589 0-1.067 0.477-1.067 1.067s0.478 1.067 1.067 1.067h6.4c0.589 0 1.067-0.477 1.067-1.067s-0.478-1.067-1.067-1.067v0zM5.067 13.6h19.2c0.589 0 1.067-0.477 1.067-1.067s-0.478-1.067-1.067-1.067h-19.2c-0.589 0-1.067 0.477-1.067 1.067s0.478 1.067 1.067 1.067v0zM5.067 7.2h19.2c0.589 0 1.067-0.477 1.067-1.067s-0.478-1.067-1.067-1.067h-19.2c-0.589 0-1.067 0.477-1.067 1.067s0.478 1.067 1.067 1.067v0z"></path>
</svg>
