<!-- Generated by IcoMoon.io -->
<svg version="1.1" xmlns="http://www.w3.org/2000/svg" width="40" height="40" viewBox="0 0 40 40">
<title>bm-sunset-2</title>
<path fill="#91908d" d="M32 30h-24c-0.553 0-1 0.447-1 1s0.447 1 1 1h24c0.553 0 1-0.447 1-1s-0.447-1-1-1v0zM35 26h-30c-0.553 0-1 0.447-1 1s0.447 1 1 1h30c0.553 0 1-0.447 1-1s-0.447-1-1-1v0zM25 34h-10c-0.553 0-1 0.447-1 1s0.447 1 1 1h10c0.553 0 1-0.447 1-1s-0.447-1-1-1v0zM6.588 24c-0.378-1.269-0.588-2.609-0.588-4 0-7.731 6.268-14 14-14s14 6.269 14 14c0 1.391-0.21 2.731-0.588 4h2.064c0.33-1.28 0.524-2.616 0.524-4 0-8.836-7.163-16-16-16s-16 7.164-16 16c0 1.384 0.194 2.72 0.524 4h2.064z"></path>
</svg>
