<!-- Generated by IcoMoon.io -->
<svg version="1.1" xmlns="http://www.w3.org/2000/svg" width="47" height="40" viewBox="0 0 47 40">
<title>bm-shuffle</title>
<path fill="#91908d" d="M35.343 25.101c-0.415-0.41-1.71-0.303-2.126 0.109v2.443h-4.174l-4.577-5.722-3.631 4.504 5.426 6.784h6.957v2.478c0.416 0.41 1.711 0.228 2.126-0.184l5.903-4.462c0.415-0.41 0.415-1.075 0-1.487l-5.903-4.462zM33.217 12.348v2.349c0.416 0.409 1.711 0.58 2.126 0.171l5.903-4.462c0.415-0.412 0.415-1.078 0-1.489l-5.903-4.463c-0.415-0.41-1.71-0.647-2.126-0.237v2.566h-6.957l-16.696 20.87h-2.783c-1.536 0-2.783 1.247-2.783 2.783s1.247 2.783 2.783 2.783h5.565l16.696-20.87h4.174zM6.783 12.348h2.783l4.577 5.722 3.631-4.504-5.426-6.784h-5.565c-1.536 0-2.783 1.247-2.783 2.783s1.247 2.783 2.783 2.783v0z"></path>
</svg>
