<!-- Generated by IcoMoon.io -->
<svg version="1.1" xmlns="http://www.w3.org/2000/svg" width="60" height="40" viewBox="0 0 60 40">
<title>bm-sun</title>
<path fill="#91908d" d="M12.349 29.6c1.485-7.299 7.909-12.8 15.651-12.8s14.166 5.501 15.651 12.8h3.366c-1.229-9.026-9.264-16-19.018-16s-17.789 6.974-19.018 16h3.366zM50.4 32.8h-44.8c-0.883 0-1.6 0.715-1.6 1.6s0.717 1.6 1.6 1.6h44.8c0.883 0 1.6-0.715 1.6-1.6s-0.717-1.6-1.6-1.6v0zM8.8 17.462c0.626 0.626 1.638 0.626 2.262 0 0.626-0.626 0.626-1.637 0-2.262l-2.262-2.262c-0.626-0.626-1.637-0.626-2.262 0s-0.626 1.637 0 2.262l2.262 2.262zM47.2 17.462l2.262-2.262c0.626-0.626 0.626-1.637 0-2.262s-1.637-0.626-2.262 0l-2.262 2.262c-0.626 0.626-0.626 1.637 0 2.262s1.637 0.626 2.262 0v0zM28 10.4c0.883 0 1.6-0.715 1.6-1.6v-3.2c0-0.883-0.717-1.6-1.6-1.6s-1.6 0.717-1.6 1.6v3.2c0 0.885 0.717 1.6 1.6 1.6v0z"></path>
</svg>
