<!-- Generated by IcoMoon.io -->
<svg version="1.1" xmlns="http://www.w3.org/2000/svg" width="28" height="40" viewBox="0 0 28 40">
<title>bm-tag</title>
<path fill="#91908d" d="M14.938 18.592c-1.098 0-1.989-0.917-1.989-2.048s0.891-2.048 1.989-2.048c1.098 0 1.989 0.917 1.989 2.048s-0.891 2.048-1.989 2.048v0zM14.938 12.448c-2.197 0-3.977 1.834-3.977 4.096s1.78 4.097 3.977 4.097 3.977-1.834 3.977-4.097c0-2.262-1.78-4.096-3.977-4.096v0zM24 32c0 1.131-0.901 2-2 2h-14c-1.099 0-2.012-0.965-2.012-2.096l0.012-15.904c0-0.657 0.090-1.058 0.448-1.428l7.792-8.023c0.359-0.37 0.941-0.37 1.299 0l7.792 8.023c0.358 0.37 0.669 0.706 0.669 1.428v16zM25.279 13.904l-9.091-9.361c-0.717-0.739-1.879-0.739-2.597 0l-9.091 9.361c-0.515 0.53-0.501 0.906-0.486 1.617h-0.014v16.383c0 2.262 1.781 4.096 3.978 4.096h13.92c2.197 0 3.978-1.834 3.978-4.096v-15.36c0-1.187 0.12-1.901-0.597-2.64v0z"></path>
</svg>
