<!-- Generated by IcoMoon.io -->
<svg version="1.1" xmlns="http://www.w3.org/2000/svg" width="29" height="40" viewBox="0 0 29 40">
<title>bm-tablet</title>
<path fill="#91908d" d="M15.5 33c0.828 0 1.5-0.672 1.5-1.5s-0.672-1.5-1.5-1.5c-0.828 0-1.5 0.672-1.5 1.5s0.672 1.5 1.5 1.5v0zM25 9h-19v-1c0-1.104 0.896-2 2-2h15c1.104 0 2 0.896 2 2v1zM6 11h19v16h-19v-16zM25 32c0 1.104-0.896 2-2 2h-15c-1.104 0-2-0.896-2-2v-3h19v3zM23 4h-15c-2.209 0-4 1.791-4 4v24c0 2.209 1.791 4 4 4h15c2.209 0 4-1.791 4-4v-24c0-2.209-1.791-4-4-4v0z"></path>
</svg>
