<!-- Generated by IcoMoon.io -->
<svg version="1.1" xmlns="http://www.w3.org/2000/svg" width="64" height="40" viewBox="0 0 64 40">
<title>bm-toggle-off1</title>
<path fill="#91908d" d="M39.2 29.6c-5.301 0-9.6-4.299-9.6-9.6s4.299-9.6 9.6-9.6c5.301 0 9.6 4.299 9.6 9.6s-4.299 9.6-9.6 9.6v0zM39.2 4h-19.2c-8.837 0-16 7.165-16 16s7.163 16 16 16h19.2c8.837 0 16-7.165 16-16s-7.163-16-16-16v0zM39.2 13.6c-3.534 0-6.4 2.866-6.4 6.4s2.866 6.4 6.4 6.4c3.534 0 6.4-2.866 6.4-6.4s-2.866-6.4-6.4-6.4v0z"></path>
</svg>
