<!-- Generated by IcoMoon.io -->
<svg version="1.1" xmlns="http://www.w3.org/2000/svg" width="53" height="40" viewBox="0 0 53 40">
<title>bm-thunder1</title>
<path fill="#91908d" d="M26.421 28.508c-0.289 0.697-1.041 1.008-1.68 0.691-0.64-0.316-0.923-1.14-0.632-1.839l3.391-6.013-5.688 0.039c-0.565 0-1.043-0.355-1.236-0.851-0.144-0.323-0.167-0.697-0.020-1.049l3.052-7.395c0.281-0.68 1.060-1.005 1.741-0.724 0.68 0.28 1.004 1.060 0.723 1.741l-2.072 5.559h5.333c0.736 0 1.333 0.597 1.333 1.333 0 0.792-4.245 8.508-4.245 8.508v0zM34.756 10.704c-1.957-3.967-6.032-6.704-10.756-6.704-6.333 0-11.507 4.909-11.956 11.127-4.655 1.327-8.044 5.393-8.044 10.207 0 5.68 4.72 10.308 10.667 10.636 0 0 18.441 0.031 18.667 0.031 6.996 0 13.333-5.671 13.333-12.667 0-6.74-5.269-12.236-11.911-12.629v0z"></path>
</svg>
