<!-- Generated by IcoMoon.io -->
<svg version="1.1" xmlns="http://www.w3.org/2000/svg" width="46" height="40" viewBox="0 0 46 40">
<title>bm-upload</title>
<path fill="#91908d" d="M17.209 13.477l4.022-4.874v17.548c0 0.682 0.55 1.233 1.231 1.233s1.231-0.551 1.231-1.233v-17.595l4.060 4.921c0.481 0.486 1.264 0.486 1.748 0 0.481-0.484 0.481-1.27 0-1.755l-6.084-7.374c-0.258-0.258-0.599-0.369-0.935-0.351-0.337-0.018-0.678 0.092-0.935 0.351l-6.084 7.374c-0.482 0.485-0.482 1.271 0 1.755 0.482 0.486 1.265 0.486 1.746 0v0zM39.692 23.692c-0.681 0-1.231 0.551-1.231 1.231v8.615h-32v-8.615c0-0.679-0.55-1.231-1.231-1.231s-1.231 0.551-1.231 1.231v9.846c0 0.681 0.55 1.231 1.231 1.231h34.462c0.681 0 1.231-0.55 1.231-1.231v-9.846c0-0.679-0.55-1.231-1.231-1.231v0z"></path>
</svg>
