<!-- Generated by IcoMoon.io -->
<svg version="1.1" xmlns="http://www.w3.org/2000/svg" width="28" height="40" viewBox="0 0 28 40">
<title>bm-user1</title>
<path fill="#91908d" d="M24 29.5c0 2.485-2.198 4.5-4.909 4.5h-8.182c-2.711 0-4.909-2.015-4.909-4.5v-3c0-2.126 1.613-3.896 3.775-4.367 1.475 1.171 3.275 1.867 5.225 1.867s3.75-0.696 5.225-1.867c2.162 0.471 3.775 2.241 3.775 4.367v3zM8 14c0-4.418 3.134-8 7-8s7 3.582 7 8c0 4.418-3.134 8-7 8s-7-3.582-7-8v0zM21.951 20.353c1.279-1.728 2.049-3.941 2.049-6.353 0-5.522-4.029-10-9-10s-9 4.478-9 10c0 2.412 0.77 4.625 2.049 6.353-2.35 0.812-4.049 3.020-4.049 5.647v4c0 3.313 2.687 6 6 6h10c3.313 0 6-2.687 6-6v-4c0-2.627-1.699-4.835-4.049-5.647v0z"></path>
</svg>
