<!-- Generated by IcoMoon.io -->
<svg version="1.1" xmlns="http://www.w3.org/2000/svg" width="42" height="40" viewBox="0 0 42 40">
<title>bm-volume</title>
<path fill="#91908d" d="M29.333 10.801v2.667c3.043 0.617 5.333 3.307 5.333 6.532s-2.291 5.915-5.333 6.532v2.667c4.517-0.652 8-4.501 8-9.199s-3.483-8.547-8-9.199v0zM22.667 33.333l-9.333-5.833v-15l9.333-5.833v26.667zM10.667 24c0 0.737-0.597 1.333-1.333 1.333h-1.333c-0.736 0-1.333-0.596-1.333-1.333v-8c0-0.736 0.597-1.333 1.333-1.333h1.333c0.736 0 1.333 0.597 1.333 1.333v8zM22.667 4l-12 8h-4c-1.472 0-2.667 1.195-2.667 2.667v10.667c0 1.472 1.195 2.667 2.667 2.667h4l12 8c1.472 0 2.667-1.195 2.667-2.667v-26.667c0-1.472-1.195-2.667-2.667-2.667v0z"></path>
</svg>
