<!-- Generated by IcoMoon.io -->
<svg version="1.1" xmlns="http://www.w3.org/2000/svg" width="24" height="24" viewBox="0 0 24 24">
<title>book_online</title>
<path fill="#91908d" d="M13.087 18.413l0.45 1.575h-7.125q-0.675 0-1.144-0.469t-0.469-1.106v-11.213q0-0.675 0.469-1.144t1.144-0.469h0.788v-1.575h1.613v1.575h6.375v-1.575h1.612v1.575h0.788q0.675 0 1.144 0.469t0.469 1.144v7.125l-1.613-0.45v-3.488h-11.175v8.025h6.675zM19.763 19.425l-2.588-2.587 2.025-0.825-5.588-1.613 1.575 5.587 0.862-1.987 2.588 2.55zM12 16.013v-4.013h-4.012v4.013h4.012z"></path>
</svg>
