<!-- Generated by IcoMoon.io -->
<svg version="1.1" xmlns="http://www.w3.org/2000/svg" width="24" height="24" viewBox="0 0 24 24">
<title>border_left</title>
<path fill="#91908d" d="M14.4 6.413v-1.612h1.613v1.612h-1.613zM14.4 12.788v-1.575h1.613v1.575h-1.613zM17.587 19.2v-1.613h1.613v1.613h-1.613zM17.587 12.788v-1.575h1.613v1.575h-1.613zM17.587 4.8h1.613v1.612h-1.613v-1.612zM17.587 16.013v-1.613h1.613v1.613h-1.613zM14.4 19.2v-1.613h1.613v1.613h-1.613zM17.587 9.6v-1.613h1.613v1.613h-1.613zM4.8 19.2v-14.4h1.612v14.4h-1.612zM7.988 12.788v-1.575h1.613v1.575h-1.613zM7.988 6.413v-1.612h1.613v1.612h-1.613zM7.988 19.2v-1.613h1.613v1.613h-1.613zM11.212 12.788v-1.575h1.575v1.575h-1.575zM11.212 9.6v-1.613h1.575v1.613h-1.575zM11.212 6.413v-1.612h1.575v1.612h-1.575zM11.212 16.013v-1.613h1.575v1.613h-1.575zM11.212 19.2v-1.613h1.575v1.613h-1.575z"></path>
</svg>
