<!-- Generated by IcoMoon.io -->
<svg version="1.1" xmlns="http://www.w3.org/2000/svg" width="24" height="24" viewBox="0 0 24 24">
<title>business</title>
<path fill="#91908d" d="M16.8 14.4v1.613h-1.612v-1.613h1.612zM16.8 11.212v1.575h-1.612v-1.575h1.612zM18.413 17.587v-7.987h-6.413v1.612h1.612v1.575h-1.613v1.612h1.613v1.613h-1.613v1.575h6.412zM10.387 7.988v-1.575h-1.575v1.575h1.575zM10.387 11.212v-1.612h-1.575v1.612h1.575zM10.387 14.4v-1.612h-1.575v1.612h1.575zM10.387 17.587v-1.575h-1.575v1.575h1.575zM7.2 7.988v-1.575h-1.612v1.575h1.612zM7.2 11.212v-1.612h-1.612v1.612h1.612zM7.2 14.4v-1.612h-1.612v1.612h1.612zM7.2 17.587v-1.575h-1.612v1.575h1.612zM12 7.988h7.987v11.213h-15.975v-14.4h7.987v3.188z"></path>
</svg>
