<!-- Generated by IcoMoon.io -->
<svg version="1.1" xmlns="http://www.w3.org/2000/svg" width="24" height="24" viewBox="0 0 24 24">
<title>call_end</title>
<path fill="#91908d" d="M12 9.6q-1.95 0-3.675 0.563v2.475q0 0.563-0.45 0.75-1.2 0.563-2.137 1.463-0.225 0.225-0.563 0.225t-0.563-0.225l-1.988-1.988q-0.225-0.225-0.225-0.563t0.225-0.563q3.937-3.75 9.375-3.75t9.375 3.75q0.225 0.225 0.225 0.563t-0.225 0.563l-1.987 1.988q-0.225 0.225-0.563 0.225t-0.563-0.225q-0.825-0.788-2.138-1.463-0.45-0.188-0.45-0.713v-2.475q-1.875-0.6-3.675-0.6z"></path>
</svg>
