<!-- Generated by IcoMoon.io -->
<svg version="1.1" xmlns="http://www.w3.org/2000/svg" width="24" height="24" viewBox="0 0 24 24">
<title>camera</title>
<path fill="#91908d" d="M10.275 19.8q0.15-0.262 1.613-2.813t2.25-3.862l2.925 5.063q-0.9 0.75-2.4 1.275t-2.663 0.525q-0.9 0-1.725-0.188zM4.35 14.4h7.762l-2.963 5.063q-1.725-0.637-2.981-1.969t-1.819-3.094zM6.113 6.6l4.050 7.012h-6q-0.15-0.9-0.15-1.613 0-1.275 0.619-2.85t1.481-2.55zM19.837 10.387q0.15 0.713 0.15 1.613 0 1.275-0.619 2.85t-1.481 2.55l-3.825-6.6-0.225-0.412h6zM19.65 9.6h-7.762l2.963-5.063q1.725 0.638 2.981 1.969t1.819 3.094zM9.938 10.8l-0.075 0.075-2.925-5.063q0.9-0.75 2.4-1.275t2.663-0.525q0.9 0 1.725 0.188z"></path>
</svg>
