<!-- Generated by IcoMoon.io -->
<svg version="1.1" xmlns="http://www.w3.org/2000/svg" width="24" height="24" viewBox="0 0 24 24">
<title>campaign</title>
<path fill="#91908d" d="M16.8 11.212v1.575h3.188v-1.575h-3.188zM15.188 16.5q0.6 0.413 1.294 0.938t1.294 0.975q0.225-0.337 0.469-0.656t0.469-0.619q-0.6-0.45-1.294-0.975t-1.256-0.975q-0.225 0.337-0.469 0.656t-0.506 0.656zM18.712 6.863q-0.225-0.3-0.469-0.619t-0.469-0.656q-0.6 0.45-1.294 0.975t-1.294 0.975q0.263 0.3 0.506 0.619t0.469 0.656q0.563-0.45 1.256-0.975t1.294-0.975zM5.588 9.6q-0.638 0-1.106 0.469t-0.469 1.144v1.575q0 0.675 0.469 1.144t1.106 0.469h0.825v3.188h1.575v-3.188h0.825l3.975 2.4v-9.6l-3.975 2.4h-3.225zM14.813 12q0-0.788-0.337-1.481t-0.863-1.181v5.325q0.525-0.488 0.863-1.181t0.337-1.481z"></path>
</svg>
