<!-- Generated by IcoMoon.io -->
<svg version="1.1" xmlns="http://www.w3.org/2000/svg" width="24" height="24" viewBox="0 0 24 24">
<title>car_rental</title>
<path fill="#91908d" d="M8.813 6.413q0.337 0 0.563-0.244t0.225-0.581-0.225-0.563-0.563-0.225-0.581 0.225-0.244 0.563 0.244 0.581 0.581 0.244zM11.063 4.8h6.525v1.612h-0.788v1.575h-1.612v-1.575h-4.125q-0.563 1.575-2.25 1.575-0.975 0-1.688-0.713t-0.712-1.688 0.712-1.687 1.688-0.712q0.712 0 1.369 0.469t0.881 1.144zM7.425 13.612h9.15l-1.050-3.225h-7.012zM15.375 16.8q0.413 0 0.694-0.281t0.281-0.694-0.281-0.694-0.694-0.281-0.694 0.281-0.281 0.694 0.281 0.694 0.694 0.281zM8.625 16.8q0.413 0 0.694-0.281t0.281-0.694-0.281-0.694-0.694-0.281-0.694 0.281-0.281 0.694 0.281 0.694 0.694 0.281zM15.525 9.6q0.525 0 0.75 0.563l1.313 3.975v5.475q0 0.375-0.375 0.375h-0.825q-0.375 0-0.375-0.375v-1.2h-8.025v1.2q0 0.375-0.375 0.375h-0.825q-0.375 0-0.375-0.412v-5.438l1.313-3.975q0.188-0.563 0.75-0.563h7.050z"></path>
</svg>
