<!-- Generated by IcoMoon.io -->
<svg version="1.1" xmlns="http://www.w3.org/2000/svg" width="24" height="24" viewBox="0 0 24 24">
<title>cases</title>
<path fill="#91908d" d="M5.588 9.6v8.813h12.825q0 0.675-0.469 1.125t-1.144 0.45h-11.212q-0.675 0-1.125-0.45t-0.45-1.125v-8.813h1.575zM15.188 7.2v-0.787q0-0.3-0.263-0.563t-0.525-0.263h-2.4q-0.3 0-0.544 0.244t-0.244 0.581v0.787h3.975zM9.6 7.2v-1.612l1.612-1.575h3.975l1.612 1.575v1.612h3.188v8.813q0 0.637-0.469 1.106t-1.106 0.469h-10.425q-0.637 0-1.106-0.469t-0.469-1.106v-8.813h3.188z"></path>
</svg>
