<!-- Generated by IcoMoon.io -->
<svg version="1.1" xmlns="http://www.w3.org/2000/svg" width="24" height="24" viewBox="0 0 24 24">
<title>closed_caption_disabled</title>
<path fill="#91908d" d="M7.875 5.588h9.712q0.675 0 1.144 0.469t0.469 1.144v9.712l-2.738-2.7q0.337-0.225 0.337-0.6v-0.825h-1.2v0.413h-0.15l-1.463-1.462v-0.938h1.612v0.412h1.2v-0.825q0-0.3-0.244-0.544t-0.544-0.244h-2.4q-0.338 0-0.581 0.244t-0.244 0.544v0.15zM18.225 20.475l-2.1-2.063h-9.712q-0.675 0-1.144-0.469t-0.469-1.144v-9.712l-1.275-1.313 1.125-1.125 14.7 14.7zM11.212 13.462l-0.675-0.675h-0.525v0.412h-1.613v-2.4h0.15l-1.012-1.012q-0.338 0.225-0.338 0.6v3.225q0 0.3 0.244 0.544t0.544 0.244h2.4q0.337 0 0.581-0.244t0.244-0.544v-0.15z"></path>
</svg>
