<!-- Generated by IcoMoon.io -->
<svg version="1.1" xmlns="http://www.w3.org/2000/svg" width="24" height="24" viewBox="0 0 24 24">
<title>cloud_queue</title>
<path fill="#91908d" d="M17.587 16.8q0.975 0 1.688-0.712t0.712-1.688-0.712-1.688-1.688-0.712h-1.2v-0.413q0-1.837-1.275-3.112t-3.113-1.275q-1.5 0-2.662 0.9t-1.575 2.287h-0.563q-1.313 0-2.25 0.956t-0.938 2.269 0.938 2.25 2.25 0.937h10.387zM17.888 10.425q1.537 0.113 2.625 1.256t1.087 2.719q0 1.65-1.181 2.831t-2.831 1.181h-10.387q-1.988 0-3.394-1.406t-1.406-3.394q0-1.762 1.256-3.169t3.019-1.594q0.788-1.463 2.212-2.363t3.112-0.9q2.025 0 3.769 1.425t2.119 3.413z"></path>
</svg>
