<!-- Generated by IcoMoon.io -->
<svg version="1.1" xmlns="http://www.w3.org/2000/svg" width="24" height="24" viewBox="0 0 24 24">
<title>color_lens</title>
<path fill="#91908d" d="M16.388 12q0.487 0 0.844-0.337t0.356-0.863-0.356-0.863-0.844-0.337-0.844 0.337-0.356 0.863 0.356 0.863 0.844 0.337zM13.987 8.813q0.487 0 0.844-0.356t0.356-0.844-0.356-0.844-0.844-0.356-0.844 0.356-0.356 0.844 0.356 0.844 0.844 0.356zM10.012 8.813q0.488 0 0.844-0.356t0.356-0.844-0.356-0.844-0.844-0.356-0.844 0.356-0.356 0.844 0.356 0.844 0.844 0.356zM7.613 12q0.488 0 0.844-0.337t0.356-0.863-0.356-0.863-0.844-0.337-0.844 0.337-0.356 0.863 0.356 0.863 0.844 0.337zM12 4.8q2.962 0 5.081 1.875t2.119 4.537q0 1.65-1.181 2.813t-2.831 1.163h-1.388q-0.525 0-0.862 0.356t-0.337 0.844q0 0.412 0.3 0.787t0.3 0.825q0 0.525-0.338 0.862t-0.863 0.338q-3 0-5.1-2.1t-2.1-5.1 2.1-5.1 5.1-2.1z"></path>
</svg>
