<!-- Generated by IcoMoon.io -->
<svg version="1.1" xmlns="http://www.w3.org/2000/svg" width="24" height="24" viewBox="0 0 24 24">
<title>date_range</title>
<path fill="#91908d" d="M17.587 18.413v-8.813h-11.175v8.813h11.175zM17.587 5.588q0.638 0 1.125 0.487t0.488 1.125v11.212q0 0.637-0.488 1.106t-1.125 0.469h-11.175q-0.675 0-1.144-0.45t-0.469-1.125v-11.212q0-0.638 0.469-1.125t1.144-0.487h0.787v-1.575h1.613v1.575h6.375v-1.575h1.612v1.575h0.788zM16.013 11.212v1.575h-1.613v-1.575h1.613zM12.788 11.212v1.575h-1.575v-1.575h1.575zM9.6 11.212v1.575h-1.613v-1.575h1.613z"></path>
</svg>
