<!-- Generated by IcoMoon.io -->
<svg version="1.1" xmlns="http://www.w3.org/2000/svg" width="24" height="24" viewBox="0 0 24 24">
<title>developer_board</title>
<path fill="#91908d" d="M12 11.212h3.188v4.8h-3.188v-4.8zM7.2 7.988h4.012v4.012h-4.012v-4.012zM12 7.988h3.188v2.4h-3.188v-2.4zM7.2 12.788h4.012v3.225h-4.012v-3.225zM16.8 17.587v-11.175h-11.212v11.175h11.212zM19.987 9.6h-1.575v1.612h1.575v1.575h-1.575v1.612h1.575v1.613h-1.575v1.575q0 0.638-0.488 1.125t-1.125 0.488h-11.212q-0.638 0-1.106-0.488t-0.469-1.125v-11.175q0-0.638 0.469-1.125t1.106-0.488h11.212q0.638 0 1.125 0.488t0.488 1.125v1.575h1.575v1.613z"></path>
</svg>
