<!-- Generated by IcoMoon.io -->
<svg version="1.1" xmlns="http://www.w3.org/2000/svg" width="40" height="40" viewBox="0 0 40 40">
<title>di-arrow-right</title>
<path fill="#91908d" d="M33.496 18.991l-10.643-10.435c-0.417-0.383-1.078-0.522-1.565-0.278-0.522 0.209-0.939 0.73-0.939 1.287v4.522h-12.87c-0.765 0-1.391 0.8-1.391 1.565v8.696c0 0.765 0.626 1.565 1.391 1.565h12.87v4.522c0 0.557 0.417 1.078 0.904 1.287 0.174 0.070 0.383 0.104 0.557 0.104 0.348 0 0.73-0.139 0.974-0.383l10.643-10.435c0.278-0.278 0.417-0.626 0.417-1.009s-0.070-0.73-0.348-1.009zM23.13 27.13v-2.783c0-0.765-0.487-1.217-1.252-1.217h-13.009v-6.261h13.009c0.765 0 1.252-0.452 1.252-1.217v-2.783l7.27 7.13-7.27 7.13z"></path>
</svg>
