<!-- Generated by IcoMoon.io -->
<svg version="1.1" xmlns="http://www.w3.org/2000/svg" width="40" height="40" viewBox="0 0 40 40">
<title>di-article</title>
<path fill="#91908d" d="M30.435 4.696h-20.87c-0.765 0-1.391 0.626-1.391 1.391v27.826c0 0.765 0.626 1.391 1.391 1.391h20.87c0.765 0 1.391-0.626 1.391-1.391v-27.826c0-0.765-0.626-1.391-1.391-1.391zM29.043 32.522h-18.087v-25.043h18.087v25.043zM14.435 27.478c0-0.661 0.557-1.217 1.217-1.217h8.278c0.661 0 1.217 0.557 1.217 1.217s-0.522 1.217-1.217 1.217h-8.278c-0.661 0-1.217-0.557-1.217-1.217zM14.435 22.609c0-0.661 0.557-1.217 1.217-1.217h8.278c0.661 0 1.217 0.557 1.217 1.217s-0.522 1.217-1.217 1.217h-8.278c-0.661 0-1.217-0.557-1.217-1.217zM25.217 12.522c0-0.661-0.557-1.217-1.217-1.217h-8.348c-0.661 0-1.217 0.557-1.217 1.217v4.87c0 0.661 0.557 1.217 1.217 1.217h8.348c0.661 0 1.217-0.557 1.217-1.217v-4.87zM16.87 13.739h5.913v2.435h-5.913v-2.435z"></path>
</svg>
