<!-- Generated by IcoMoon.io -->
<svg version="1.1" xmlns="http://www.w3.org/2000/svg" width="40" height="40" viewBox="0 0 40 40">
<title>di-broadcast</title>
<path fill="#91908d" d="M35.826 15.93c-0.313-1.043-0.939-1.878-1.878-2.365-1.183-0.626-2.574-0.557-3.548-0.383l-2.017-7.13c-0.139-0.487-0.522-0.87-1.009-0.974s-1.009 0.035-1.357 0.417c-4.974 5.565-7.026 6.922-12.522 9.322l-4.313 1.252c-3.791 1.078-5.983 5.113-4.904 8.904 0.522 1.843 1.739 3.409 3.443 4.348 1.078 0.591 2.261 0.904 3.443 0.904 0.557 0 1.148-0.070 1.704-0.209l0.452 1.635c0.243 0.87 0.73 1.635 1.357 2.261l0.73 0.696c0.278 0.243 0.626 0.383 0.974 0.383 0.383 0 0.73-0.139 1.009-0.417 0.522-0.557 0.522-1.426-0.070-1.983l-0.73-0.696c-0.278-0.278-0.487-0.626-0.591-1.009l-0.452-1.635 2.017-0.591c5.774-0.87 8.383-0.8 15.443 1.217 0.139 0.035 0.243 0.070 0.383 0.070 0.348 0 0.73-0.139 0.974-0.417 0.348-0.348 0.487-0.87 0.348-1.357l-2.052-7.13c0.904-0.348 2.122-0.974 2.817-2.122 0.522-0.904 0.661-1.913 0.348-2.991zM9.078 26.887c-1.043-0.557-1.774-1.53-2.122-2.643-0.661-2.365 0.696-4.8 2.991-5.496l3.13-0.904 1.426 5.043 0.974 3.478-3.13 0.904c-1.078 0.313-2.261 0.174-3.27-0.383zM23.235 25.357c-1.565 0-3.13 0.139-4.974 0.383l-2.017-7.13-0.487-1.739c4.383-2.017 6.748-3.583 10.643-7.652l4.939 17.357c-3.304-0.87-5.67-1.217-8.104-1.217zM33.113 17.461c-0.209 0.383-0.73 0.661-1.217 0.87l-0.696-2.435c0.522-0.070 1.113-0.070 1.496 0.139 0.174 0.104 0.348 0.243 0.487 0.626 0.104 0.417 0 0.626-0.070 0.8zM24.278 15.165c0.383 0.557 0.278 1.322-0.278 1.704-1.287 0.904-2.748 1.704-2.817 1.739-0.174 0.104-0.383 0.139-0.557 0.139-0.452 0-0.87-0.243-1.078-0.661-0.313-0.591-0.070-1.322 0.522-1.635 0 0 1.391-0.73 2.504-1.53 0.557-0.452 1.322-0.313 1.704 0.243z"></path>
</svg>
