<!-- Generated by IcoMoon.io -->
<svg version="1.1" xmlns="http://www.w3.org/2000/svg" width="40" height="40" viewBox="0 0 40 40">
<title>di-clipboard</title>
<path fill="#91908d" d="M30.783 7.13h-5.183l-0.557-1.461c-0.383-1.009-1.357-1.67-2.435-1.67h-4.939c-1.078 0-2.052 0.661-2.435 1.67l-0.522 1.461h-5.496c-0.765 0-1.391 0.696-1.391 1.461v26.017c0 0.765 0.626 1.391 1.391 1.391h21.565c0.765 0 1.391-0.626 1.391-1.391v-26.017c0-0.765-0.626-1.461-1.391-1.461zM15.687 9.913c0.591 0 1.113-0.348 1.322-0.87l0.835-2.261h4.661l0.835 2.261c0.209 0.557 0.73 0.87 1.322 0.87h1.113l-1.009 1.983c-0.174 0.278-0.487 0.452-0.835 0.452h-7.583c-0.313 0-0.626-0.139-0.8-0.417l-1.148-2.017h1.287zM29.391 33.217h-18.783v-23.304h0.591l1.948 3.478c0 0.035 0.035 0 0.035 0.035 0.696 1.078 1.878 1.704 3.165 1.704h7.548c1.322 0 2.574-0.661 3.235-1.843 0-0.035 0.035-0.070 0.035-0.070l1.67-3.304h0.557v23.304z"></path>
</svg>
