<!-- Generated by IcoMoon.io -->
<svg version="1.1" xmlns="http://www.w3.org/2000/svg" width="40" height="40" viewBox="0 0 40 40">
<title>di-expand</title>
<path fill="#91908d" d="M35.304 6.087v6.957c0 0.765-0.626 1.391-1.391 1.391v0c-0.765 0-1.391-0.626-1.391-1.391v-3.583l-8.070 8.070c-0.278 0.278-0.626 0.417-0.974 0.417s-0.696-0.139-0.974-0.417c-0.557-0.557-0.557-1.426 0-1.983l8.035-8.070h-3.583c-0.765 0-1.391-0.626-1.391-1.391s0.626-1.391 1.391-1.391h6.957c0.383 0 0.73 0.139 0.974 0.417 0.278 0.243 0.417 0.591 0.417 0.974zM33.913 25.565c-0.765 0-1.391 0.626-1.391 1.391v3.583l-7.93-7.861c-0.557-0.557-1.461-0.557-2.017 0s-0.557 1.426-0.035 1.983l7.861 7.861h-3.583c0 0 0 0 0 0-0.765 0-1.391 0.626-1.391 1.391s0.626 1.391 1.391 1.391h6.957c0.383 0 0.8-0.139 1.043-0.417 0.278-0.278 0.487-0.626 0.487-0.974v-6.957c0-0.765-0.626-1.391-1.391-1.391zM15.409 22.609l-7.93 7.93v-3.583c0-0.765-0.626-1.391-1.391-1.391v0c-0.765 0-1.391 0.626-1.391 1.391v6.957c0 0.383 0.139 0.73 0.417 0.974 0.278 0.278 0.626 0.417 1.009 0.417h6.957c0.765 0 1.391-0.626 1.391-1.391s-0.626-1.391-1.391-1.391h-3.617l7.93-7.93c0.557-0.557 0.522-1.426 0-1.983s-1.426-0.557-1.983 0zM9.461 7.617h3.583c0.765 0 1.391-0.626 1.391-1.391s-0.626-1.391-1.391-1.391h-6.957c-0.383 0-0.73 0.139-0.974 0.417-0.278 0.243-0.417 0.591-0.417 0.974v6.957c0 0.765 0.626 1.391 1.391 1.391s1.391-0.626 1.391-1.391v-3.617l8.035 8.035c0.278 0.278 0.626 0.417 0.974 0.417s0.696-0.139 0.974-0.417c0.557-0.557 0.557-1.426 0-1.983l-8-8z"></path>
</svg>
