<!-- Generated by IcoMoon.io -->
<svg version="1.1" xmlns="http://www.w3.org/2000/svg" width="40" height="40" viewBox="0 0 40 40">
<title>di-link-broken</title>
<path fill="#91908d" d="M16.939 20.696c0 0.765-0.626 1.391-1.391 1.391l-2.157 0.070c-0.348 0-0.661-0.104-0.904-0.348l-8.070-8.139c-0.278-0.278-0.417-0.626-0.417-1.009s0.139-0.73 0.417-0.974l7.27-7.27c0.557-0.557 1.426-0.557 1.983 0l8.139 8.139c0.557 0.557 0.557 1.426 0 1.948-0.557 0.557-1.426 0.522-1.983 0l-7.165-7.165-5.287 5.287 6.713 6.678h1.426c0.8 0 1.426 0.626 1.426 1.391zM35.583 26.33l-8.070-8.104c-0.278-0.278-0.557-0.348-0.904-0.348l-2.157 0.035c-0.765 0-1.391 0.626-1.391 1.391s0.626 1.391 1.391 1.391h1.461l6.748 6.678-5.322 5.287-7.165-7.165c-0.557-0.557-1.426-0.557-1.983 0s-0.557 1.426 0 1.948l8.139 8.139c0.278 0.278 0.626 0.417 1.009 0.417 0.348 0 0.696-0.139 0.974-0.417l7.27-7.27c0.278-0.243 0.417-0.626 0.417-0.974 0-0.383-0.139-0.73-0.417-1.009zM25.217 11.896c0.765 0 1.391-0.626 1.391-1.391v-3.478c0-0.765-0.626-1.391-1.391-1.391s-1.391 0.626-1.391 1.391v3.478c0 0.765 0.626 1.391 1.391 1.391zM29.287 16.174h3.478c0.765 0 1.391-0.626 1.391-1.391s-0.626-1.391-1.391-1.391h-3.478c-0.765 0-1.391 0.626-1.391 1.391s0.626 1.391 1.391 1.391zM14.783 27.896c-0.765 0-1.391 0.626-1.391 1.391v3.478c0 0.765 0.626 1.391 1.391 1.391s1.391-0.626 1.391-1.391v-3.478c0-0.765-0.626-1.391-1.391-1.391zM10.504 23.826h-3.478c-0.765 0-1.391 0.626-1.391 1.391s0.626 1.391 1.391 1.391h3.478c0.765 0 1.391-0.626 1.391-1.391s-0.626-1.391-1.391-1.391z"></path>
</svg>
