<!-- Generated by IcoMoon.io -->
<svg version="1.1" xmlns="http://www.w3.org/2000/svg" width="40" height="40" viewBox="0 0 40 40">
<title>di-lifting</title>
<path fill="#91908d" d="M30.783 11.652v16.696c0 0.765-0.626 1.391-1.391 1.391s-1.391-0.626-1.391-1.391v-6.957h-16v6.957c0 0.765-0.626 1.391-1.391 1.391s-1.391-0.626-1.391-1.391v-16.696c0-0.765 0.626-1.391 1.391-1.391s1.391 0.626 1.391 1.391v6.957h16v-6.957c0-0.765 0.626-1.391 1.391-1.391s1.391 0.626 1.391 1.391zM6.087 13.704c-0.765 0-1.391 0.626-1.391 1.391v9.843c0 0.765 0.626 1.391 1.391 1.391s1.391-0.626 1.391-1.391v-9.843c0-0.765-0.626-1.391-1.391-1.391zM33.913 13.704c-0.765 0-1.391 0.626-1.391 1.391v9.843c0 0.765 0.626 1.391 1.391 1.391s1.391-0.626 1.391-1.391v-9.843c0-0.765-0.626-1.391-1.391-1.391z"></path>
</svg>
