<!-- Generated by IcoMoon.io -->
<svg version="1.1" xmlns="http://www.w3.org/2000/svg" width="40" height="40" viewBox="0 0 40 40">
<title>di-meter</title>
<path fill="#91908d" d="M29.322 12.661l-6.748 14.539c-0.591 1.496-1.635 2.365-2.783 2.365-0.939 0-1.739-0.487-2.191-1.252-0.487-0.904-0.452-2.017 0.139-2.957v0l8.835-14.157c0.452-0.696 1.357-0.939 2.087-0.557s1.009 1.252 0.661 2.017zM31.687 16.87c-0.522-0.557-1.391-0.591-1.983-0.070-0.557 0.522-0.591 1.391-0.070 1.983 2.296 2.504 3.583 5.774 3.583 9.217 0 0.765 0.626 1.391 1.391 1.391s1.391-0.626 1.391-1.391c0-4.139-1.53-8.104-4.313-11.13zM21.113 14.574c0.765 0.070 1.426-0.487 1.496-1.252s-0.487-1.426-1.252-1.496c-0.452-0.035-0.904-0.070-1.357-0.070-8.835 0-16 7.304-16 16.278 0 0.765 0.626 1.391 1.391 1.391s1.391-0.626 1.391-1.391c0-7.443 5.913-13.496 13.217-13.496 0.383-0.035 0.765 0 1.113 0.035z"></path>
</svg>
