<!-- Generated by IcoMoon.io -->
<svg version="1.1" xmlns="http://www.w3.org/2000/svg" width="40" height="40" viewBox="0 0 40 40">
<title>di-monitor</title>
<path fill="#91908d" d="M36 8.522c0-0.765-0.626-1.391-1.391-1.391h-29.217c-0.765 0-1.391 0.626-1.391 1.391v18.087c0 0.765 0.626 1.391 1.391 1.391h29.217c0.765 0 1.391-0.626 1.391-1.391v-18.087zM33.217 25.217h-26.435v-15.304h26.435v15.304zM28.174 31.478c0 0.765-0.626 1.391-1.391 1.391h-13.565c-0.765 0-1.391-0.626-1.391-1.391s0.626-1.391 1.391-1.391h13.53c0.8 0 1.426 0.626 1.426 1.391z"></path>
</svg>
