<!-- Generated by IcoMoon.io -->
<svg version="1.1" xmlns="http://www.w3.org/2000/svg" width="40" height="40" viewBox="0 0 40 40">
<title>di-map</title>
<path fill="#91908d" d="M35.374 9.148l-7.339-3.443c-0.035 0-0.035 0-0.035-0.035-0.035-0.035-0.104-0.035-0.139-0.035s-0.104-0.035-0.139-0.035c-0.035 0-0.104 0-0.139 0s-0.104 0-0.139 0c-0.035 0-0.104 0-0.139 0.035-0.035 0-0.104 0.035-0.139 0.035s-0.035 0-0.070 0.035l-6.852 3.2-6.922-3.2c-0.035 0-0.035 0-0.070-0.035s-0.104-0.035-0.139-0.035c-0.035 0-0.104-0.035-0.139-0.035s-0.104 0-0.139 0c-0.035 0-0.104 0-0.139 0s-0.104 0-0.139 0.035c-0.035 0-0.104 0.035-0.139 0.035s-0.035 0-0.070 0.035l-7.548 3.443c-0.452 0.209-0.8 0.626-0.8 1.113v22.609c0 0.417 0.313 0.8 0.661 1.043 0.209 0.139 0.487 0.209 0.696 0.209 0.174 0 0.383-0.035 0.557-0.104l6.852-3.235 6.887 3.2c0 0 0 0 0 0 0.070 0.035 0.139 0.070 0.209 0.070 0.035 0 0.035 0 0.070 0 0.070 0 0.139 0.035 0.243 0.035 0.070 0 0.174 0 0.243-0.035 0.035 0 0.035 0 0.070 0 0.070-0.035 0.139-0.035 0.209-0.070 0 0 0 0 0 0l6.852-3.2 6.852 3.2c0.174 0.070 0.348 0.104 0.522 0.104 0.243 0 0.383-0.070 0.557-0.209 0.348-0.243 0.487-0.626 0.487-1.043v-22.574c0.035-0.487-0.139-0.904-0.591-1.113zM18.609 30.957l-4.522-2.296v-19.896l4.522 2.296v19.896zM6.435 11.061l4.87-2.296v19.896l-4.87 2.296v-19.896zM21.391 11.061l4.87-2.296v19.896l-4.87 2.296v-19.896zM33.565 30.957l-4.87-2.296v-19.896l4.87 2.296v19.896z"></path>
</svg>
