<!-- Generated by IcoMoon.io -->
<svg version="1.1" xmlns="http://www.w3.org/2000/svg" width="40" height="40" viewBox="0 0 40 40">
<title>di-rocket</title>
<path fill="#91908d" d="M35.896 5.357c-0.070-0.696-0.591-1.217-1.287-1.287-8.8-0.696-15.096 3.583-19.026 8.939-2.157-0.696-4.487-0.452-6.609 0.73-2.052 1.148-3.757 3.096-4.87 5.461-0.243 0.557-0.139 1.183 0.313 1.6 0.417 0.417 1.078 0.487 1.6 0.209 2.226-1.183 4.73-0.939 6.226 0.557l6.122 6.122c0 0 0.035 0.035 0.035 0.035 1.496 1.496 1.739 4 0.557 6.226-0.278 0.522-0.174 1.183 0.209 1.6 0.278 0.278 0.626 0.417 1.009 0.417 0.209 0 0.417-0.035 0.591-0.139 2.365-1.113 4.313-2.852 5.461-4.87 1.217-2.122 1.461-4.452 0.73-6.643 1.565-1.148 2.991-2.4 4.174-3.791 3.687-4.209 5.287-9.322 4.765-15.165zM8.661 17.496c1.496-1.461 3.374-2.365 5.357-2.017-0.557 0.974-1.009 1.948-1.426 2.922-1.183-0.661-2.539-0.974-3.93-0.904zM22.539 31.339c0.035-1.426-0.278-2.783-0.904-3.965 1.009-0.417 1.983-0.904 2.922-1.426 0.348 1.983-0.522 3.896-2.017 5.391zM19.757 25.113l-4.904-4.904c2.47-6.574 8.591-13.6 18.365-13.426 0.313 11.652-9.287 16.696-13.461 18.33zM28.765 11.235c0.417 0.417 0.661 1.009 0.661 1.6s-0.243 1.183-0.661 1.6-1.009 0.661-1.6 0.661-1.183-0.209-1.6-0.661-0.661-1.009-0.661-1.6 0.243-1.183 0.661-1.6c0.417-0.417 1.009-0.661 1.6-0.661s1.183 0.243 1.6 0.661zM9.183 25.704c-1.6 1.6-1.67 4.8-1.67 5.426 0 0.765 0.626 1.391 1.391 1.391 0 0 0.035 0 0.035 0 0.73 0 3.791-0.104 5.357-1.67 0.974-0.974 1.183-1.983 1.183-2.643 0-0.939-0.383-1.843-1.113-2.574-1.739-1.774-3.93-1.217-5.183 0.070zM12.348 28.87c-0.348 0.348-1.113 0.591-1.913 0.696 0.139-0.8 0.383-1.565 0.696-1.878 0.243-0.243 0.452-0.383 0.696-0.383 0.174 0 0.383 0.104 0.591 0.313s0.313 0.417 0.313 0.591c-0.035 0.209-0.209 0.487-0.383 0.661z"></path>
</svg>
