<!-- Generated by IcoMoon.io -->
<svg version="1.1" xmlns="http://www.w3.org/2000/svg" width="40" height="40" viewBox="0 0 40 40">
<title>di-stopwatch</title>
<path fill="#91908d" d="M32.278 10.817c0.278 0.243 0.591 0.348 0.939 0.348 0.383 0 0.765-0.139 1.043-0.452 0.522-0.557 0.487-1.461-0.104-1.983l-1.809-1.635c0 0 0 0 0 0s0 0 0 0l-1.809-1.635c-0.557-0.522-1.461-0.487-1.948 0.104-0.522 0.557-0.487 1.461 0.104 1.983l0.765 0.696-1.391 1.565c-1.6-1.183-3.443-2.052-5.461-2.504-0.035-0.452-0.209-0.939-0.557-1.391-0.348-0.487-1.078-1.043-2.4-1.113-0.035 0-0.035 0-0.070 0-1.217 0-1.913 0.522-2.296 0.974-0.417 0.487-0.591 1.078-0.661 1.53-6.435 1.357-11.235 7.061-11.235 13.878 0 7.826 6.365 14.226 14.191 14.226s14.191-6.365 14.191-14.226c0-3.652-1.391-6.991-3.652-9.53l1.391-1.565 0.765 0.73zM19.583 32.591c-6.296 0-11.409-5.113-11.409-11.409s5.113-11.409 11.409-11.409c6.296 0 11.409 5.113 11.409 11.409s-5.113 11.409-11.409 11.409zM22.017 21.183c0 1.322-1.113 2.4-2.435 2.4s-2.365-1.078-2.365-2.4c0-0.8 0.348-1.53 1.043-1.948v-5.635c0-0.765 0.626-1.391 1.391-1.391s1.391 0.626 1.391 1.391v5.635c0.696 0.417 0.974 1.148 0.974 1.948z"></path>
</svg>
