<!-- Generated by IcoMoon.io -->
<svg version="1.1" xmlns="http://www.w3.org/2000/svg" width="40" height="40" viewBox="0 0 40 40">
<title>di-search</title>
<path fill="#91908d" d="M24.104 4.765c-5.948 0-10.783 4.904-10.783 10.887 0 2.539 0.87 4.835 2.296 6.713l-10.226 10.365c-0.591 0.626-0.591 1.6 0 2.191 0.313 0.313 0.696 0.452 1.078 0.452 0.417 0 0.8-0.139 1.113-0.452l10.226-10.365c1.774 1.287 3.93 2.017 6.261 2.017 5.948 0 10.783-4.904 10.783-10.887s-4.8-10.922-10.748-10.922zM24.104 23.826c-4.417 0-8-3.652-8-8.139s3.583-8.139 8-8.139c4.417 0 8 3.652 8 8.139s-3.583 8.139-8 8.139zM29.496 15.826c-0.070 0.591-0.591 1.043-1.183 1.043-0.070 0-0.104 0-0.174 0-0.661-0.104-1.113-0.696-1.043-1.357 0.243-1.809-1.774-2.748-1.878-2.783-0.591-0.278-0.87-1.009-0.591-1.6s0.974-0.87 1.6-0.626c0.139 0.035 3.757 1.704 3.27 5.322zM26.957 18.47c0.243 0.243 0.417 0.626 0.417 0.974 0 0.383-0.139 0.73-0.417 0.974-0.243 0.243-0.626 0.417-0.974 0.417s-0.73-0.139-0.974-0.417c-0.243-0.243-0.417-0.626-0.417-0.974s0.139-0.73 0.417-0.974c0.243-0.243 0.626-0.417 0.974-0.417s0.696 0.139 0.974 0.417z"></path>
</svg>
