<!-- Generated by IcoMoon.io -->
<svg version="1.1" xmlns="http://www.w3.org/2000/svg" width="40" height="40" viewBox="0 0 40 40">
<title>di-store</title>
<path fill="#91908d" d="M17.913 23.304c0-0.661-0.557-1.217-1.217-1.217h-4.522c-0.661 0-1.217 0.557-1.217 1.217v4.522c0 0.661 0.557 1.217 1.217 1.217h4.522c0.661 0 1.217-0.557 1.217-1.217v-4.522zM13.391 24.522h2.087v2.087h-2.087v-2.087zM35.617 12.835l-3.096-3.13v-3.617c0-0.765-0.626-1.391-1.426-1.391h-22.191c-0.8 0-1.426 0.626-1.426 1.391v3.617l-3.096 3.13c-0.243 0.243-0.383 0.591-0.383 0.974v3.548c0 0.765 0.626 1.252 1.391 1.252h29.217c0.765 0 1.391-0.487 1.391-1.287v-3.513c0-0.383-0.139-0.73-0.383-0.974zM29.739 7.478v1.739h-19.478v-1.739h19.478zM33.217 15.826h-26.435v-1.461l2.852-2.713h20.73l2.852 2.713v1.461zM33.913 21.426v12.487c0 0.765-0.626 1.391-1.391 1.391h-4.765c-0.765 0-1.391-0.557-1.391-1.322v-7.374h-3.235v7.304c0 0.765-0.661 1.391-1.426 1.391h-14.191c-0.765 0-1.426-0.626-1.426-1.391v-12.487c0-0.765 0.626-1.391 1.391-1.391s1.391 0.626 1.391 1.391v11.096h11.478v-7.443c0-0.765 0.591-1.252 1.357-1.252h6.017c0.765 0 1.287 0.487 1.287 1.252v7.443h2.087v-11.096c0-0.765 0.626-1.391 1.391-1.391s1.426 0.626 1.426 1.391z"></path>
</svg>
