<!-- Generated by IcoMoon.io -->
<svg version="1.1" xmlns="http://www.w3.org/2000/svg" width="40" height="40" viewBox="0 0 40 40">
<title>di-thumbs-up</title>
<path fill="#91908d" d="M24.8 36c-4.313 0-11.096-1.426-12.765-2.609-0.383-0.278-0.591-0.696-0.591-1.148v-13.6c0-0.417 0.209-0.835 0.522-1.078 0.104-0.070 2.539-1.983 5.078-3.409 3.165-1.739 5.357-4.174 5.878-5.704 0.626-1.878 1.53-4.452 4.383-4.452 1.357 0 2.47 0.765 3.061 2.087 1.183 2.713-0.070 6.47-2.157 9.426 1.391 0.313 3.13 0.765 4.174 1.078 1.913 0.591 3.165 1.983 3.443 3.687 0.243 1.739-0.626 3.513-2.47 4.87-1.357 3.652-3.687 9.426-5.391 10.365-0.661 0.348-1.809 0.487-3.165 0.487zM14.226 31.409c2.643 1.113 10.783 2.261 12.313 1.67 0.8-0.73 2.852-5.391 4.278-9.322 0.104-0.278 0.278-0.522 0.522-0.696 1.148-0.765 1.739-1.67 1.635-2.435-0.104-0.626-0.661-1.148-1.496-1.426-1.739-0.557-6.052-1.496-6.122-1.496-0.487-0.104-0.87-0.452-1.043-0.939s-0.035-1.009 0.313-1.357c3.13-3.374 3.687-6.817 3.096-8.209-0.139-0.417-0.313-0.417-0.417-0.417-0.696 0-1.009 0.487-1.739 2.574-0.835 2.435-3.722 5.357-7.165 7.235-1.67 0.904-3.339 2.122-4.174 2.748v12.070zM8.73 32.383v-13.913c0-1.252-1.009-2.261-2.261-2.261s-2.296 1.009-2.296 2.261v13.878c0 1.252 1.009 2.261 2.261 2.261s2.296-1.009 2.296-2.226z"></path>
</svg>
