<!-- Generated by IcoMoon.io -->
<svg version="1.1" xmlns="http://www.w3.org/2000/svg" width="40" height="40" viewBox="0 0 40 40">
<title>di-vibrate</title>
<path fill="#91908d" d="M4.348 12.835c-0.557-0.661-0.452-1.635 0.174-2.157 5.6-4.696 11.339-3.061 16.209-0.835 5.148 2.365 9.287 2.122 12.696-0.696 0.661-0.557 1.635-0.452 2.191 0.209s0.452 1.635-0.209 2.157c-2.435 2.017-5.183 3.026-8.209 3.026-2.4 0-5.009-0.626-7.757-1.913-4.8-2.191-8.87-2.991-12.904 0.417-0.661 0.522-1.635 0.452-2.191-0.209zM33.461 17.878c-3.409 2.817-7.583 3.026-12.696 0.696-4.87-2.226-10.609-3.896-16.209 0.835-0.661 0.557-0.73 1.53-0.174 2.157 0.557 0.661 1.53 0.73 2.191 0.174 4.035-3.374 8.070-2.609 12.904-0.383 2.748 1.252 5.357 1.913 7.757 1.913 3.026 0 5.774-1.009 8.209-3.026 0.661-0.557 0.765-1.53 0.209-2.157-0.557-0.661-1.53-0.765-2.191-0.209zM33.461 26.609c-3.409 2.817-7.583 3.026-12.696 0.696-4.87-2.226-10.609-3.896-16.209 0.835-0.661 0.557-0.73 1.53-0.174 2.157 0.557 0.661 1.53 0.73 2.191 0.174 4.035-3.374 8.070-2.609 12.904-0.383 2.748 1.252 5.357 1.913 7.757 1.913 3.026 0 5.774-1.009 8.209-3.026 0.661-0.557 0.765-1.53 0.209-2.157-0.557-0.661-1.53-0.765-2.191-0.209z"></path>
</svg>
