<!-- Generated by IcoMoon.io -->
<svg version="1.1" xmlns="http://www.w3.org/2000/svg" width="40" height="40" viewBox="0 0 40 40">
<title>di-view-list</title>
<path fill="#91908d" d="M12.904 8.87c0-0.974 0.765-1.739 1.739-1.739h19.27c0.974 0 1.739 0.765 1.739 1.739s-0.765 1.739-1.739 1.739h-19.27c-0.974 0-1.739-0.765-1.739-1.739zM33.913 18.261h-19.27c-0.974 0-1.739 0.765-1.739 1.739s0.765 1.739 1.739 1.739h19.27c0.974 0 1.739-0.765 1.739-1.739s-0.765-1.739-1.739-1.739zM33.913 29.391h-19.27c-0.974 0-1.739 0.765-1.739 1.739s0.765 1.739 1.739 1.739h19.27c0.974 0 1.739-0.765 1.739-1.739s-0.765-1.739-1.739-1.739zM7.13 17.704c-1.357 0-2.435 1.113-2.435 2.47s1.078 2.47 2.435 2.47c1.357 0 2.435-1.113 2.435-2.47s-1.113-2.47-2.435-2.47zM7.13 6.435c-1.357 0-2.435 1.113-2.435 2.47s1.078 2.47 2.435 2.47c1.357 0 2.435-1.113 2.435-2.47s-1.113-2.47-2.435-2.47zM7.13 28.626c-1.357 0-2.435 1.113-2.435 2.47s1.078 2.47 2.435 2.47c1.357 0 2.435-1.113 2.435-2.47s-1.113-2.47-2.435-2.47z"></path>
</svg>
