<!-- Generated by IcoMoon.io -->
<svg version="1.1" xmlns="http://www.w3.org/2000/svg" width="40" height="40" viewBox="0 0 40 40">
<title>di-wallet</title>
<path fill="#91908d" d="M29.148 21.148c0.452 0.452 0.696 1.078 0.696 1.739 0 0.626-0.243 1.252-0.696 1.704s-1.078 0.73-1.739 0.73c-0.626 0-1.252-0.278-1.739-0.73-0.452-0.452-0.696-1.078-0.696-1.704 0-0.661 0.278-1.252 0.696-1.739 0.452-0.452 1.078-0.696 1.739-0.696 0.661-0.035 1.287 0.243 1.739 0.696zM35.652 15.722v15.374c0 1.565-1.252 2.817-2.817 2.817h-25.183c-1.809 0-3.304-1.496-3.304-3.304v-20.348c0-2.296 1.878-4.174 4.174-4.174h19.235c1.913 0 3.374 1.565 3.374 3.478v2.087h0.626c2.157 0 3.896 1.913 3.896 4.070zM6.922 10.261c0 0.765 0.626 1.391 1.391 1.391h20.035v-2.157c0-0.348-0.278-0.626-0.626-0.626h-19.409c-0.765 0-1.391 0.626-1.391 1.391zM32.87 15.722c0-0.591-0.487-1.287-1.113-1.287h-24.070c-0.313 0-0.557 0.417-0.557 0.73v15.443c0 0.278 0.243 0.522 0.522 0.522h25.183c0.035 0 0.035-0.035 0.035-0.035v-15.374z"></path>
</svg>
