<!-- Generated by IcoMoon.io -->
<svg version="1.1" xmlns="http://www.w3.org/2000/svg" width="24" height="24" viewBox="0 0 24 24">
<title>directions_car</title>
<path fill="#91908d" d="M6.413 11.212h11.175l-1.2-3.6h-8.775zM16.388 15.188q0.487 0 0.844-0.356t0.356-0.844-0.356-0.844-0.844-0.356-0.844 0.356-0.356 0.844 0.356 0.844 0.844 0.356zM7.613 15.188q0.488 0 0.844-0.356t0.356-0.844-0.356-0.844-0.844-0.356-0.844 0.356-0.356 0.844 0.356 0.844 0.844 0.356zM17.55 7.2l1.65 4.8v6.413q0 0.337-0.225 0.563t-0.563 0.225h-0.825q-0.338 0-0.563-0.225t-0.225-0.563v-0.825h-9.6v0.825q0 0.337-0.225 0.563t-0.563 0.225h-0.825q-0.337 0-0.563-0.225t-0.225-0.563v-6.413l1.65-4.8q0.225-0.787 1.163-0.787h8.775q0.938 0 1.163 0.787z"></path>
</svg>
