<!-- Generated by IcoMoon.io -->
<svg version="1.1" xmlns="http://www.w3.org/2000/svg" width="24" height="24" viewBox="0 0 24 24">
<title>dirty_lens</title>
<path fill="#91908d" d="M12.75 17.587h5.663v-9.6h-12.825v9.6h5.812l0.15-1.125t-0.3-0.825q-0.188-0.113-0.375 0t-0.356 0.356-0.375 0.469-0.488 0.337-0.619-0.075q-0.338-0.262-0.356-0.45t0.131-0.375 0.337-0.431 0.3-0.563-0.037-0.769q-0.038-0.263-0.338-0.281t-0.637 0-0.619-0.113-0.319-0.619q-0.038-0.3 0.15-0.45t0.431-0.225 0.431-0.188 0.188-0.338q0.037-0.225-0.075-0.394l-0.225-0.337t-0.113-0.356 0.225-0.412q0.15-0.15 0.375-0.188t0.337 0q0.262 0.113 0.488 0.338t0.469 0.431 0.506 0.3 0.563-0.094q0.263-0.15 0.188-0.394t-0.262-0.525-0.338-0.544-0.094-0.487 0.506-0.338q0.488-0.15 0.731 0.094t0.412 0.637 0.375 0.75 0.581 0.469q0.413 0.113 0.731-0.112t0.581-0.581 0.525-0.75 0.525-0.637 0.544-0.244 0.656 0.45q0.337 0.488 0.3 0.806t-0.338 0.563-0.731 0.431-0.825 0.375-0.6 0.431-0.094 0.619q0.075 0.225 0.281 0.225t0.469-0.131 0.544-0.206 0.525 0.019 0.394 0.506q0.15 0.45-0.056 0.656t-0.6 0.262-0.806 0.075-0.713 0.075-0.262 0.244q0 0.263 0.281 0.394t0.619 0.263 0.487 0.356-0.075 0.712q-0.3 0.45-0.619 0.506t-0.675-0.094-0.675-0.337-0.6-0.244-0.506 0.244q-0.225 0.337-0.112 0.844t0.225 0.994v0zM18.413 6.413q0.637 0 1.106 0.469t0.469 1.106v9.6q0 0.675-0.469 1.144t-1.106 0.469h-12.825q-0.638 0-1.106-0.469t-0.469-1.144v-9.6q0-0.638 0.469-1.106t1.106-0.469h2.55l1.463-1.612h4.8l1.463 1.612h2.55zM16.913 16.8q-0.3 0-0.488-0.188t-0.188-0.487 0.188-0.487 0.488-0.188 0.487 0.188 0.188 0.487-0.188 0.487-0.487 0.188z"></path>
</svg>
