<!-- Generated by IcoMoon.io -->
<svg version="1.1" xmlns="http://www.w3.org/2000/svg" width="24" height="24" viewBox="0 0 24 24">
<title>do_not_disturb_off</title>
<path fill="#91908d" d="M7.988 12.788h2.775l-1.613-1.575h-1.162v1.575zM4.2 4.2l15.6 15.6-1.050 1.013-2.212-2.25q-2.025 1.425-4.538 1.425-3.3 0-5.644-2.344t-2.344-5.644q0-1.050 0.413-2.362t1.013-2.175l-2.25-2.213zM16.013 11.212h-2.775l-5.775-5.775q2.025-1.425 4.538-1.425 3.3 0 5.644 2.344t2.344 5.644q0 1.050-0.413 2.362t-1.012 2.175l-3.713-3.75h1.162v-1.575z"></path>
</svg>
