<!-- Generated by IcoMoon.io -->
<svg version="1.1" xmlns="http://www.w3.org/2000/svg" width="24" height="24" viewBox="0 0 24 24">
<title>dry_cleaning</title>
<path fill="#91908d" d="M17.25 13.612q0.337 0 0.337-0.338 0-0.262-0.188-0.337l-5.4-2.4-5.4 2.4q-0.188 0.075-0.188 0.3 0 0.375 0.337 0.375h1.238v-0.825h8.025v0.825h1.237zM18.038 11.475q1.163 0.487 1.163 1.762v0.038q0 0.825-0.563 1.369t-1.388 0.544h-1.237v4.8h-8.025v-4.8h-1.237q-0.825 0-1.388-0.544t-0.563-1.369v-0.038q0-1.237 1.162-1.725l5.25-2.362v-0.488q-0.825-0.3-1.275-1.069t-0.3-1.669q0.15-0.712 0.675-1.219t1.237-0.656q1.125-0.187 1.988 0.525t0.862 1.838h-1.612q0-0.337-0.225-0.581t-0.563-0.244-0.563 0.244-0.225 0.581 0.225 0.563 0.563 0.225 0.563 0.225 0.225 0.563v1.163z"></path>
</svg>
