<!-- Generated by IcoMoon.io -->
<svg version="1.1" xmlns="http://www.w3.org/2000/svg" width="24" height="24" viewBox="0 0 24 24">
<title>dynamic_feed</title>
<path fill="#91908d" d="M5.588 12v5.587h7.2v1.613h-7.2q-0.637 0-1.106-0.488t-0.469-1.125v-5.587h1.575zM18.413 11.212v-3.225h-6.413v3.225h6.413zM18.413 4.8q0.637 0 1.106 0.487t0.469 1.125v4.8q0 0.638-0.469 1.106t-1.106 0.469h-6.413q-0.637 0-1.125-0.469t-0.488-1.106v-4.8q0-0.638 0.488-1.125t1.125-0.487h6.413zM8.813 8.813v5.587h7.2v1.613h-7.2q-0.638 0-1.125-0.488t-0.488-1.125v-5.587h1.613z"></path>
</svg>
