<!-- Generated by IcoMoon.io -->
<svg version="1.1" xmlns="http://www.w3.org/2000/svg" width="43" height="40" viewBox="0 0 43 40">
<title>el-calendar</title>
<path fill="#91908d" d="M38 34.5v-19c0-0.276-0.224-0.5-0.5-0.5s-0.5 0.224-0.5 0.5v19c0 0.276-0.224 0.5-0.5 0.5h-31c-0.276 0-0.5-0.224-0.5-0.5v-19c0-0.276-0.224-0.5-0.5-0.5s-0.5 0.224-0.5 0.5v19c0 0.827 0.673 1.5 1.5 1.5h31c0.827 0 1.5-0.673 1.5-1.5z"></path>
<path fill="#91908d" d="M8.5 27c-0.276 0-0.5 0.224-0.5 0.5s0.224 0.5 0.5 0.5h1.5v3.5c0 0.276 0.224 0.5 0.5 0.5s0.5-0.224 0.5-0.5v-3.5h6v3.5c0 0.276 0.224 0.5 0.5 0.5s0.5-0.224 0.5-0.5v-3.5h6v3.5c0 0.276 0.224 0.5 0.5 0.5s0.5-0.224 0.5-0.5v-3.5h6v3.5c0 0.276 0.224 0.5 0.5 0.5s0.5-0.224 0.5-0.5v-3.5h1.5c0.276 0 0.5-0.224 0.5-0.5s-0.224-0.5-0.5-0.5h-1.5v-5h1.5c0.276 0 0.5-0.224 0.5-0.5s-0.224-0.5-0.5-0.5h-1.5v-4.5c0-0.276-0.224-0.5-0.5-0.5s-0.5 0.224-0.5 0.5v4.5h-6v-4.5c0-0.276-0.224-0.5-0.5-0.5s-0.5 0.224-0.5 0.5v4.5h-6v-4.5c0-0.276-0.224-0.5-0.5-0.5s-0.5 0.224-0.5 0.5v4.5h-6v-4.5c0-0.276-0.224-0.5-0.5-0.5s-0.5 0.224-0.5 0.5v4.5h-1.5c-0.276 0-0.5 0.224-0.5 0.5s0.224 0.5 0.5 0.5h1.5v5h-1.5zM31 22v5h-6v-5h6zM24 22v5h-6v-5h6zM11 22h6v5h-6v-5z"></path>
<path fill="#91908d" d="M32.5 7h4.25c0.087 0 0.25 0 0.25 0.5v4.5h-32v-4.5c0-0.276 0.224-0.5 0.5-0.5h4c0.276 0 0.5-0.224 0.5-0.5s-0.224-0.5-0.5-0.5h-4c-0.827 0-1.5 0.673-1.5 1.5v5c0 0.276 0.224 0.5 0.5 0.5h33c0.276 0 0.5-0.224 0.5-0.5v-5c0-1.106-0.646-1.5-1.25-1.5h-4.25c-0.276 0-0.5 0.224-0.5 0.5s0.224 0.5 0.5 0.5z"></path>
<path fill="#91908d" d="M26.5 7c0.276 0 0.5-0.224 0.5-0.5s-0.224-0.5-0.5-0.5h-11c-0.276 0-0.5 0.224-0.5 0.5s0.224 0.5 0.5 0.5h11z"></path>
<path fill="#91908d" d="M13 8.5v-4c0-0.276-0.224-0.5-0.5-0.5s-0.5 0.224-0.5 0.5v4c0 0.276 0.224 0.5 0.5 0.5s0.5-0.224 0.5-0.5z"></path>
<path fill="#91908d" d="M29.5 9c0.276 0 0.5-0.224 0.5-0.5v-4c0-0.276-0.224-0.5-0.5-0.5s-0.5 0.224-0.5 0.5v4c0 0.276 0.224 0.5 0.5 0.5z"></path>
</svg>
