<!-- Generated by IcoMoon.io -->
<svg version="1.1" xmlns="http://www.w3.org/2000/svg" width="19" height="40" viewBox="0 0 19 40">
<title>el-mic</title>
<path fill="#91908d" d="M11 28.007v3.993h-2.966c-1.141 0-2 0.859-2 2v1.5c0 0.276 0.224 0.5 0.5 0.5h10c0.276 0 0.5-0.224 0.5-0.5v-1.425c0-1.164-0.879-2.075-2-2.075h-3.034v-3.993c3.973-0.278 7.068-3.56 7.068-7.564v-1.887c0-0.295-0.239-0.534-0.534-0.534s-0.534 0.24-0.534 0.535v1.887c0 3.597-2.9 6.522-6.466 6.522s-6.466-2.926-6.466-6.522v-1.887c0-0.295-0.239-0.534-0.534-0.534s-0.534 0.239-0.534 0.534v1.887c0 4.003 3.095 7.285 7 7.563zM16.034 34.075v0.925h-9v-1c0-0.589 0.411-1 1-1h7c0.57 0 1 0.462 1 1.075z"></path>
<path fill="#91908d" d="M11.534 3.966c-2.5 0-4.534 2.059-4.534 4.591v11.887c0 2.531 2.034 4.591 4.534 4.591s4.534-2.060 4.466-4.591v-11.887c0.068-2.532-1.966-4.591-4.466-4.591zM15 20.443c0 1.942-1.555 3.522-3.466 3.522s-3.534-1.579-3.534-3.522v-11.886c0-1.942 1.623-3.522 3.534-3.522s3.466 1.579 3.466 3.522v11.886z"></path>
</svg>
