<!-- Generated by IcoMoon.io -->
<svg version="1.1" xmlns="http://www.w3.org/2000/svg" width="53" height="40" viewBox="0 0 53 40">
<title>el-printer</title>
<path fill="#91908d" d="M44.5 14h-2.5v-3.5c0-0.827-0.673-1.5-1.5-1.5h-2c-0.276 0-0.5 0.224-0.5 0.5s0.224 0.5 0.5 0.5h2c0.275 0 0.5 0.224 0.5 0.5v3.5h-4v-9.5c0-0.276-0.224-0.5-0.5-0.5h-23c-0.276 0-0.5 0.224-0.5 0.5v9.5h-4v-3.5c0-0.276 0.225-0.5 0.5-0.5h2c0.276 0 0.5-0.224 0.5-0.5s-0.224-0.5-0.5-0.5h-2c-0.827 0-1.5 0.673-1.5 1.5v3.5h-2.5c-0.827 0-1.5 0.673-1.5 1.5v14c0 0.827 0.673 1.5 1.5 1.5h6c0.276 0 0.5-0.224 0.5-0.5s-0.224-0.5-0.5-0.5h-6c-0.275 0-0.5-0.224-0.5-0.5v-3.5h40v3.5c0 0.276-0.225 0.5-0.5 0.5h-6c-0.276 0-0.5 0.224-0.5 0.5s0.224 0.5 0.5 0.5h6c0.827 0 1.5-0.673 1.5-1.5v-14c0-0.827-0.673-1.5-1.5-1.5zM14 5h22v9h-22v-9zM5 25v-9.5c0-0.276 0.225-0.5 0.5-0.5h39c0.275 0 0.5 0.224 0.5 0.5v9.5h-40z"></path>
<path fill="#91908d" d="M36.5 27c-0.276 0-0.5 0.224-0.5 0.5v7.5h-22v-7.5c0-0.276-0.224-0.5-0.5-0.5s-0.5 0.224-0.5 0.5v8c0 0.276 0.224 0.5 0.5 0.5h23c0.276 0 0.5-0.224 0.5-0.5v-8c0-0.276-0.224-0.5-0.5-0.5z"></path>
<path fill="#91908d" d="M43 22c0 0.552-0.448 1-1 1s-1-0.448-1-1c0-0.552 0.448-1 1-1s1 0.448 1 1z"></path>
<path fill="#91908d" d="M39 22c0 0.552-0.448 1-1 1s-1-0.448-1-1c0-0.552 0.448-1 1-1s1 0.448 1 1z"></path>
</svg>
