<!-- Generated by IcoMoon.io -->
<svg version="1.1" xmlns="http://www.w3.org/2000/svg" width="24" height="24" viewBox="0 0 24 24">
<title>elevator</title>
<path fill="#91908d" d="M17.587 4.8h-11.175q-0.675 0-1.144 0.469t-0.469 1.144v11.175q0 0.675 0.469 1.144t1.144 0.469h11.175q0.675 0 1.144-0.469t0.469-1.144v-11.175q0-0.675-0.469-1.144t-1.144-0.469zM9.188 7.2q0.413 0 0.712 0.3t0.3 0.712-0.3 0.694-0.712 0.281-0.694-0.281-0.281-0.694 0.281-0.712 0.694-0.3zM11.212 13.612h-0.825v3.187h-2.4v-3.187h-0.788v-2.025q0-0.637 0.469-1.106t1.144-0.469h0.788q0.675 0 1.144 0.469t0.469 1.106v2.025zM14.813 16.013l-2.025-3.225h4.012zM12.788 11.212l2.025-3.225 1.987 3.225h-4.012z"></path>
</svg>
