<!-- Generated by IcoMoon.io -->
<svg version="1.1" xmlns="http://www.w3.org/2000/svg" width="24" height="24" viewBox="0 0 24 24">
<title>exposure_zero</title>
<path fill="#91908d" d="M13.612 10.5q0-1.5-0.412-2.137-0.15-0.225-0.525-0.45-0.263-0.15-0.675-0.15t-0.675 0.15q-0.375 0.225-0.525 0.45-0.412 0.637-0.412 2.137v2.138q0 2.1 0.938 2.662 0.262 0.15 0.675 0.15 0.787 0 1.2-0.638 0.45-0.675 0.45-2.175v-2.137h-0.037zM8.7 10.762q0-4.35 3.3-4.35 2.438 0 3.075 2.325 0.263 0.975 0.263 2.025v1.65h-0.038q0 2.212-0.9 3.375-0.525 0.6-1.050 0.788-0.6 0.225-1.35 0.225t-1.35-0.225q-0.525-0.188-1.050-0.788-0.9-1.013-0.9-3.375v-1.65z"></path>
</svg>
