<!-- Generated by IcoMoon.io -->
<svg version="1.1" xmlns="http://www.w3.org/2000/svg" width="24" height="24" viewBox="0 0 24 24">
<title>face_retouching_natural</title>
<path fill="#91908d" d="M8.587 12.788q0-0.413 0.3-0.694t0.713-0.281 0.712 0.281 0.3 0.694-0.3 0.712-0.712 0.3-0.713-0.3-0.3-0.712v0zM19.013 9.262l-0.75 1.613q0.075 0.262 0.112 0.544t0.038 0.581q0 1.313-0.506 2.475t-1.388 2.044-2.044 1.388-2.475 0.506-2.475-0.506-2.044-1.388-1.388-2.044-0.506-2.475v-0.113q1.575-0.6 2.775-1.744t1.838-2.681q1.087 1.35 2.7 2.138t3.488 0.787q0.3 0 0.563-0.019t0.525-0.056l-0.488-1.050-0.712-1.537-1.538-0.712-2.25-1.012 2.25-1.013 0.563-0.263q-0.75-0.337-1.575-0.525t-1.725-0.188q-1.65 0-3.094 0.619t-2.55 1.725-1.725 2.55-0.619 3.094 0.619 3.094 1.725 2.55 2.55 1.725 3.094 0.619 3.094-0.619 2.55-1.725 1.725-2.55 0.619-3.094q0-0.9-0.188-1.725t-0.525-1.575l-0.262 0.563zM13.388 12.788q0-0.413 0.3-0.694t0.712-0.281 0.713 0.281 0.3 0.694-0.3 0.712-0.713 0.3-0.712-0.3-0.3-0.712zM18.862 6.863l-0.862 1.95-0.862-1.95-1.95-0.863 1.95-0.863 0.862-1.95 0.862 1.95 1.95 0.863z"></path>
</svg>
