<!-- Generated by IcoMoon.io -->
<svg version="1.1" xmlns="http://www.w3.org/2000/svg" width="24" height="24" viewBox="0 0 24 24">
<title>fact_check</title>
<path fill="#91908d" d="M18.413 4.8h-12.825q-0.638 0-1.106 0.469t-0.469 1.144v11.175q0 0.675 0.469 1.144t1.106 0.469h12.825q0.637 0 1.106-0.469t0.469-1.144v-11.175q0-0.675-0.469-1.144t-1.106-0.469zM10.387 16.013h-3.975v-1.613h3.975v1.613zM10.387 12.788h-3.975v-1.575h3.975v1.575zM10.387 9.6h-3.975v-1.613h3.975v1.613zM14.25 14.4l-2.25-2.287 1.125-1.125 1.125 1.162 2.55-2.55 1.125 1.125z"></path>
</svg>
