<!-- Generated by IcoMoon.io -->
<svg version="1.1" xmlns="http://www.w3.org/2000/svg" width="24" height="24" viewBox="0 0 24 24">
<title>fiber_new</title>
<path fill="#91908d" d="M18.788 13.612v-4.012h-0.975v3.6h-0.9v-2.813h-1.013v2.813h-0.9v-3.6h-1.013v4.013q0 0.338 0.244 0.563t0.581 0.225h3.188q0.338 0 0.563-0.225t0.225-0.563zM13.2 10.613v-1.012h-3.188v4.8h3.188v-1.013h-1.988v-0.862h1.988v-1.012h-1.988v-0.9h1.988zM9.188 14.4v-4.8h-0.975v2.812l-2.025-2.813h-0.975v4.8h0.975v-2.813l2.063 2.813h0.938zM18.413 5.588q0.675 0 1.125 0.469t0.45 1.144v9.6q0 0.675-0.45 1.144t-1.125 0.469h-12.825q-0.675 0-1.125-0.469t-0.45-1.144v-9.6q0-0.675 0.45-1.144t1.125-0.469h12.825z"></path>
</svg>
