<!-- Generated by IcoMoon.io -->
<svg version="1.1" xmlns="http://www.w3.org/2000/svg" width="24" height="24" viewBox="0 0 24 24">
<title>filter_9_plus</title>
<path fill="#91908d" d="M19.2 9.6v-4.8h-11.213v11.213h11.213v-4.8h-1.613v1.575h-1.575v-1.575h-1.613v-1.612h1.613v-1.613h1.575v1.613h1.613zM19.2 3.188q0.637 0 1.125 0.488t0.487 1.125v11.213q0 0.637-0.487 1.106t-1.125 0.469h-11.213q-0.638 0-1.106-0.469t-0.469-1.106v-11.213q0-0.638 0.469-1.125t1.106-0.488h11.213zM11.212 9.6h0.788v-0.788h-0.788v0.788zM13.612 12q0 0.675-0.469 1.144t-1.144 0.469h-2.4v-1.613h2.4v-0.787h-0.787q-0.675 0-1.144-0.469t-0.469-1.144v-0.788q0-0.675 0.469-1.144t1.144-0.469h0.787q0.675 0 1.144 0.469t0.469 1.144v3.188zM4.8 6.413v12.788h12.788v1.612h-12.788q-0.638 0-1.125-0.487t-0.488-1.125v-12.788h1.613z"></path>
</svg>
