<!-- Generated by IcoMoon.io -->
<svg version="1.1" xmlns="http://www.w3.org/2000/svg" width="24" height="24" viewBox="0 0 24 24">
<title>flip_camera_android</title>
<path fill="#91908d" d="M15.188 13.612h4.8v4.8h-1.575v-1.613q-2.4 3.188-6.413 3.188-2.887 0-5.081-1.819t-2.756-4.556h1.65q0.525 2.063 2.25 3.431t3.938 1.369q1.725 0 3.206-0.881t2.306-2.344h-2.325v-1.575zM8.813 10.387h-4.8v-4.8h1.575v1.612q2.4-3.188 6.413-3.188 2.888 0 5.081 1.819t2.756 4.556h-1.65q-0.525-2.063-2.25-3.431t-3.938-1.369q-1.725 0-3.206 0.881t-2.306 2.344h2.325v1.575zM9.6 12q0-0.975 0.712-1.688t1.688-0.712 1.688 0.712 0.712 1.688-0.712 1.688-1.688 0.712-1.688-0.712-0.712-1.688z"></path>
</svg>
