<!-- Generated by IcoMoon.io -->
<svg version="1.1" xmlns="http://www.w3.org/2000/svg" width="24" height="24" viewBox="0 0 24 24">
<title>grid_off</title>
<path fill="#91908d" d="M15.188 18.413h1.163l-1.163-1.163v1.163zM13.612 18.413v-2.775l-0.45-0.45h-2.775v3.225h3.225zM8.813 13.612v-2.775l-0.45-0.45h-2.775v3.225h3.225zM8.813 18.413v-3.225h-3.225v3.225h3.225zM5.588 7.65v1.163h1.162zM10.387 12.45v1.162h1.163zM3.412 3.412l17.175 17.175-1.012 1.013-1.613-1.613h-12.375q-0.638 0-1.106-0.469t-0.469-1.106v-12.375l-1.612-1.612zM15.188 5.588v3.225h3.225v-3.225h-3.225zM8.813 5.588h-1.163l-1.612-1.575h12.375q0.637 0 1.106 0.469t0.469 1.106v12.375l-1.575-1.612v-1.163h-1.163l-1.612-1.575h2.775v-3.225h-3.225v2.775l-1.575-1.613v-1.162h-1.163l-1.613-1.575h2.775v-3.225h-3.225v2.775l-1.575-1.612v-1.162z"></path>
</svg>
