<!-- Generated by IcoMoon.io -->
<svg version="1.1" xmlns="http://www.w3.org/2000/svg" width="24" height="24" viewBox="0 0 24 24">
<title>hdr_enhanced_select</title>
<path fill="#91908d" d="M12 4.012q1.313 0 2.4 0.638t1.744 1.725 0.656 2.438q0 1.313-0.656 2.4t-1.744 1.744-2.4 0.656-2.4-0.656-1.744-1.744-0.656-2.4q0-1.35 0.656-2.438t1.744-1.725 2.4-0.638zM12 5.588q-0.9 0-1.613 0.431t-1.144 1.162-0.431 1.631q0 0.863 0.431 1.594t1.144 1.163 1.613 0.431 1.612-0.431 1.144-1.163 0.431-1.594q0-0.9-0.431-1.631t-1.144-1.163-1.613-0.431zM12.788 11.212h-1.575v-1.612h-1.612v-1.613h1.612v-1.575h1.575v1.575h1.612v1.613h-1.612v1.612zM21.6 18.413h-1.613v1.575h-1.2v-1.575h-1.575v-1.2h1.575v-1.612h1.2v1.612h1.613v1.2zM16.8 17.212q0 0.337-0.206 0.638t-0.506 0.487l0.712 1.65h-1.2l-0.712-1.575h-0.9v1.575h-1.2v-4.8h2.813q0.488 0 0.844 0.375t0.356 0.825v0.825zM15.6 17.212v-0.825h-1.613v0.825h1.613zM5.213 16.8v-1.612h1.2v4.8h-1.2v-1.987h-1.612v1.987h-1.2v-4.8h1.2v1.612h1.612zM10.387 15.188q0.488 0 0.844 0.375t0.356 0.825v2.4q0 0.487-0.356 0.844t-0.844 0.356h-2.775v-4.8h2.775zM10.387 18.788v-2.4h-1.575v2.4h1.575z"></path>
</svg>
