<!-- Generated by IcoMoon.io -->
<svg version="1.1" xmlns="http://www.w3.org/2000/svg" width="24" height="24" viewBox="0 0 24 24">
<title>hdr_strong</title>
<path fill="#91908d" d="M6.413 13.612q0.638 0 1.106-0.487t0.469-1.125-0.469-1.125-1.106-0.488-1.125 0.488-0.487 1.125 0.487 1.125 1.125 0.487zM6.413 8.813q1.313 0 2.25 0.938t0.938 2.25-0.938 2.25-2.25 0.938-2.269-0.938-0.956-2.25 0.956-2.25 2.269-0.938zM16.013 7.2q1.987 0 3.394 1.406t1.406 3.394-1.406 3.394-3.394 1.406-3.394-1.406-1.406-3.394 1.406-3.394 3.394-1.406z"></path>
</svg>
