<!-- Generated by IcoMoon.io -->
<svg version="1.1" xmlns="http://www.w3.org/2000/svg" width="24" height="24" viewBox="0 0 24 24">
<title>headset_off</title>
<path fill="#91908d" d="M4.2 3.787l16.013 16.013-1.012 1.013-1.725-1.725q-0.337 0.113-0.675 0.113h-2.4v-3.188l-7.35-7.388q-0.638 1.162-0.638 2.588v1.575h3.188v6.412h-2.4q-0.975 0-1.688-0.712t-0.713-1.688v-5.587q0-2.1 1.050-3.75l-2.662-2.662zM12 5.588q-1.65 0-3.038 0.9l-1.162-1.125q1.838-1.35 4.2-1.35 3 0 5.1 2.119t2.1 5.081v5.513l-3.938-3.938h2.325v-1.575q0-2.325-1.631-3.975t-3.956-1.65z"></path>
</svg>
