<!-- Generated by IcoMoon.io -->
<svg version="1.1" xmlns="http://www.w3.org/2000/svg" width="24" height="24" viewBox="0 0 24 24">
<title>hearing</title>
<path fill="#91908d" d="M11.587 9.6q0-0.825 0.6-1.406t1.425-0.581 1.406 0.581 0.581 1.406-0.581 1.406-1.406 0.581-1.425-0.581-0.6-1.406zM8.512 4.5q-2.1 2.1-2.1 5.1t2.1 5.1l-1.125 1.125q-2.588-2.588-2.588-6.225t2.588-6.225zM16.013 18.413q0.637 0 1.106-0.488t0.469-1.125h1.613q0 1.313-0.938 2.25t-2.25 0.938q-0.713 0-1.313-0.262-1.537-0.788-2.213-2.85-0.262-0.825-1.35-1.65-1.537-1.125-2.287-2.513-0.863-1.537-0.863-3.112 0-2.363 1.631-3.975t3.994-1.612 3.975 1.613 1.613 3.975h-1.613q0-1.688-1.144-2.85t-2.831-1.162-2.85 1.162-1.162 2.85q0 1.2 0.637 2.362 0.525 1.013 1.875 2.025 1.5 1.125 1.912 2.4 0.488 1.425 1.35 1.875 0.3 0.15 0.638 0.15z"></path>
</svg>
