<!-- Generated by IcoMoon.io -->
<svg version="1.1" xmlns="http://www.w3.org/2000/svg" width="24" height="24" viewBox="0 0 24 24">
<title>highlight_alt</title>
<path fill="#91908d" d="M16.013 6.413h-1.613v-1.612h1.613v1.612zM14.4 19.2h1.613v-2.063l2.063 2.063 1.125-1.125-2.063-2.063h2.063v-1.613h-4.8v4.8zM17.587 9.6h1.613v-1.613h-1.613v1.613zM17.587 12.788h1.613v-1.575h-1.613v1.575zM11.212 19.2h1.575v-1.613h-1.575v1.613zM7.988 6.413h1.613v-1.612h-1.613v1.612zM4.8 16.013h1.612v-1.613h-1.612v1.613zM6.413 19.2v-1.613h-1.612q0 0.675 0.469 1.144t1.144 0.469zM17.587 4.8v1.612h1.613q0-0.675-0.469-1.144t-1.144-0.469zM11.212 6.413h1.575v-1.612h-1.575v1.612zM4.8 9.6h1.612v-1.613h-1.612v1.613zM7.988 19.2h1.613v-1.613h-1.613v1.613zM4.8 12.788h1.612v-1.575h-1.612v1.575zM4.8 6.413h1.612v-1.612q-0.675 0-1.144 0.469t-0.469 1.144z"></path>
</svg>
