<!-- Generated by IcoMoon.io -->
<svg version="1.1" xmlns="http://www.w3.org/2000/svg" width="24" height="24" viewBox="0 0 24 24">
<title>https</title>
<path fill="#91908d" d="M14.475 8.813v-1.613q0-1.012-0.731-1.744t-1.744-0.731-1.744 0.731-0.731 1.744v1.613h4.95zM12 16.013q0.638 0 1.125-0.488t0.487-1.125-0.487-1.125-1.125-0.487-1.125 0.487-0.488 1.125 0.488 1.125 1.125 0.488zM16.8 8.813q0.638 0 1.125 0.469t0.488 1.106v8.025q0 0.637-0.488 1.106t-1.125 0.469h-9.6q-0.638 0-1.125-0.469t-0.487-1.106v-8.025q0-0.638 0.487-1.106t1.125-0.469h0.788v-1.612q0-1.65 1.181-2.831t2.831-1.181 2.831 1.181 1.181 2.831v1.612h0.787z"></path>
</svg>
