<!-- Generated by IcoMoon.io -->
<svg version="1.1" xmlns="http://www.w3.org/2000/svg" width="40" height="40" viewBox="0 0 40 40">
<title>io-analytics-sharp</title>
<path fill="#91908d" d="M32.125 12c-1.587 0.001-2.874 1.287-2.874 2.875 0 0.29 0.043 0.569 0.122 0.833l-0.005-0.020-4.461 4.46c-0.27-0.093-0.582-0.147-0.906-0.147s-0.636 0.054-0.926 0.153l0.020-0.006-3.307-3.307c0.057-0.214 0.090-0.46 0.090-0.714 0-1.588-1.287-2.875-2.875-2.875s-2.875 1.287-2.875 2.875c0 0.254 0.033 0.5 0.094 0.734l-0.004-0.020-5.531 5.527c-0.245-0.075-0.526-0.118-0.817-0.118-1.591 0-2.88 1.289-2.88 2.88s1.289 2.88 2.88 2.88c1.591 0 2.88-1.289 2.88-2.88 0-0.291-0.043-0.572-0.124-0.837l0.005 0.020 5.461-5.46c0.27 0.093 0.582 0.147 0.906 0.147s0.636-0.054 0.926-0.153l-0.020 0.006 3.308 3.308c-0.057 0.214-0.090 0.46-0.090 0.714 0 1.588 1.287 2.875 2.875 2.875s2.875-1.287 2.875-2.875c0-0.254-0.033-0.5-0.094-0.734l0.004 0.020 4.53-4.527c0.244 0.075 0.524 0.117 0.814 0.117 1.588 0 2.875-1.287 2.875-2.875s-1.287-2.875-2.875-2.875c-0 0-0.001 0-0.001 0h0z"></path>
</svg>
