<!-- Generated by IcoMoon.io -->
<svg version="1.1" xmlns="http://www.w3.org/2000/svg" width="40" height="40" viewBox="0 0 40 40">
<title>io-at-outline</title>
<path fill="none" stroke-linejoin="round" stroke-linecap="round" stroke-miterlimit="4" stroke-width="2.5" stroke="#91908d" d="M24 19.892c-0.281 3.187-2.508 5-5.034 5s-4.209-2.239-3.966-5 2.32-5 4.847-5 4.396 2.25 4.153 5z"></path>
<path fill="none" stroke-linejoin="round" stroke-linecap="round" stroke-miterlimit="4" stroke-width="2.5" stroke="#91908d" d="M23.986 29.986c-1.785 0.75-2.955 0.906-4.955 0.906-6.075 0-10.562-4.925-10.031-11s5.894-11 11.969-11c6.843 0 10.605 4.483 10.076 10.483-0.394 4.479-3.257 5.77-4.756 5.504-1.41-0.25-2.574-1.526-2.359-3.969l0.53-6.016"></path>
</svg>
