<!-- Generated by IcoMoon.io -->
<svg version="1.1" xmlns="http://www.w3.org/2000/svg" width="40" height="40" viewBox="0 0 40 40">
<title>io-arrow-back-circle</title>
<path fill="#91908d" d="M7 20c0 7.179 5.821 13 13 13s13-5.821 13-13-5.821-13-13-13-13 5.821-13 13zM20.291 14.29c0.183 0.181 0.296 0.432 0.296 0.71 0 0.275-0.111 0.524-0.29 0.704l-3.27 3.296h8.349c0.552 0 1 0.448 1 1s-0.448 1-1 1v0h-8.349l3.27 3.296c0.179 0.181 0.29 0.43 0.29 0.704 0 0.553-0.448 1.001-1.001 1.001-0.278 0-0.529-0.113-0.711-0.296l-0-0-4.962-5c-0.179-0.181-0.29-0.43-0.29-0.704s0.111-0.524 0.29-0.704l-0 0 4.962-5c0.181-0.183 0.433-0.296 0.711-0.296 0.275 0 0.524 0.111 0.705 0.291l-0-0z"></path>
</svg>
