<!-- Generated by IcoMoon.io -->
<svg version="1.1" xmlns="http://www.w3.org/2000/svg" width="40" height="40" viewBox="0 0 40 40">
<title>io-boat</title>
<path fill="#91908d" d="M30 33.571c-0-0.161-0.089-0.301-0.221-0.374l-0.002-0.001c-1.692-0.909-3.235-2.301-3.914-3-0.115-0.12-0.276-0.195-0.455-0.195-0.126 0-0.244 0.037-0.343 0.102l0.002-0.001c-3.146 2.026-6.976 2.028-10.122 0.003-0.097-0.063-0.215-0.101-0.342-0.101-0.181 0-0.344 0.076-0.459 0.198l-0 0c-0.673 0.705-2.199 2.081-3.902 2.984-0.135 0.069-0.229 0.201-0.243 0.356l-0 0.002c-0.001 0.010-0.001 0.021-0.001 0.033 0 0.232 0.188 0.421 0.421 0.421 0.027 0 0.053-0.003 0.078-0.007l-0.003 0c1.303-0.261 2.563-0.855 3.762-1.489 0.074-0.039 0.161-0.063 0.254-0.063 0.090 0 0.175 0.022 0.249 0.060l-0.003-0.001c1.525 0.792 3.331 1.257 5.244 1.257s3.719-0.464 5.309-1.287l-0.065 0.030c0.072-0.038 0.158-0.060 0.249-0.060 0.094 0 0.182 0.023 0.259 0.065l-0.003-0.001c1.194 0.625 2.451 1.224 3.75 1.488 0.024 0.005 0.051 0.008 0.079 0.008 0.232 0 0.421-0.188 0.421-0.421 0-0.002-0-0.004-0-0.007v0z"></path>
<path fill="#91908d" d="M33.794 19.432v0c-0.218-0.524-0.681-0.931-1.306-1.147l-1.488-0.593v-5.192c0-2.209-1.791-4-4-4v0h-2v-0.5c0-1.381-1.119-2.5-2.5-2.5v0h-5c-1.381 0-2.5 1.119-2.5 2.5v0 0.5h-2c-2.209 0-4 1.791-4 4v0 5.197l-1.474 0.587c-0.621 0.206-1.102 0.625-1.322 1.153-0.153 0.368-0.328 0.938-0.081 1.654l0.006 0.019 2.916 7.465c0.219 0.547 0.744 0.926 1.358 0.926 0.003 0 0.006 0 0.008-0h-0c0.031 0 0.063 0 0.096-0.003 1.957-0.125 3.5-1.079 4.537-1.976 1.482 1.279 3.225 1.979 4.956 1.979s3.464-0.7 4.946-1.981c1.037 0.898 2.581 1.854 4.538 1.978 0.031 0.002 0.066 0.004 0.102 0.004 0.614 0 1.139-0.379 1.355-0.915l0.004-0.010 2.916-7.438c0.205-0.506 0.181-1.11-0.066-1.706zM20.813 13.638l-0.071-0.025c-0.222-0.072-0.477-0.114-0.742-0.114s-0.52 0.042-0.759 0.119l0.017-0.005-0.036 0.011-7.879 3.139c-0.027 0.011-0.059 0.018-0.092 0.018-0.138 0-0.25-0.112-0.25-0.25 0-0 0-0 0-0v0-4.031c0-1.105 0.895-2 2-2v0h14c1.105 0 2 0.895 2 2v0 4.027c0 0 0 0 0 0 0 0.138-0.112 0.25-0.25 0.25-0.033 0-0.065-0.007-0.094-0.018l0.002 0.001z"></path>
</svg>
