<!-- Generated by IcoMoon.io -->
<svg version="1.1" xmlns="http://www.w3.org/2000/svg" width="40" height="40" viewBox="0 0 40 40">
<title>io-bicycle</title>
<path fill="#91908d" d="M28.25 32c-3.176 0-5.75-2.574-5.75-5.75s2.574-5.75 5.75-5.75c3.176 0 5.75 2.574 5.75 5.75v0c-0.004 3.174-2.576 5.746-5.75 5.75h-0zM28.25 22.5c-2.071 0-3.75 1.679-3.75 3.75s1.679 3.75 3.75 3.75c2.071 0 3.75-1.679 3.75-3.75v0c-0.002-2.070-1.68-3.748-3.75-3.75h-0z"></path>
<path fill="#91908d" d="M11.75 32c-3.176 0-5.75-2.574-5.75-5.75s2.574-5.75 5.75-5.75c3.176 0 5.75 2.574 5.75 5.75v0c-0.004 3.174-2.576 5.746-5.75 5.75h-0zM11.75 22.5c-2.071 0-3.75 1.679-3.75 3.75s1.679 3.75 3.75 3.75c2.071 0 3.75-1.679 3.75-3.75v0c-0.003-2.070-1.68-3.748-3.75-3.75h-0z"></path>
<path fill="#91908d" d="M24 12c0.002 0 0.004 0 0.007 0 1.101 0 1.993-0.892 1.993-1.993 0-0.005-0-0.009-0-0.014v0.001c0-0.007 0-0.014 0-0.022 0-1.089-0.883-1.972-1.972-1.972-0.006 0-0.011 0-0.017 0h0.001c-0.002 0-0.004 0-0.006 0-1.105 0-2 0.895-2 2 0 1.102 0.892 1.996 1.993 2h0z"></path>
<path fill="#91908d" d="M26.972 16h-2.735c-0 0-0 0-0 0-0.094 0-0.176-0.052-0.219-0.129l-0.001-0.001-1.984-3.636c-0.329-0.627-0.976-1.047-1.721-1.047-0.533 0-1.015 0.215-1.366 0.563l0-0-4.366 4.4c-0.354 0.361-0.575 0.854-0.581 1.399v0.001c0 1.088 0.788 1.475 1.156 1.694 1.781 1.026 3.036 1.777 3.724 2.194 0.072 0.045 0.12 0.123 0.12 0.213v4.32c0 0.538 0.414 1 0.952 1.027 0.014 0.001 0.031 0.001 0.048 0.001 0.552 0 0.999-0.447 1-0.999v-5.375c0-0 0-0 0-0.001 0-0.333-0.163-0.628-0.413-0.81l-0.003-0.002-2.312-1.663c-0.064-0.046-0.105-0.12-0.105-0.203 0-0.067 0.026-0.127 0.068-0.172l2.625-2.799c0.046-0.049 0.111-0.079 0.183-0.079 0.094 0 0.175 0.051 0.218 0.127l0.001 0.001 1.364 2.461c0.174 0.309 0.5 0.514 0.874 0.514 0 0 0.001 0 0.001 0h3.5c0 0 0.001 0 0.001 0 0.552 0 1-0.448 1-1 0-0.017-0-0.034-0.001-0.050l0 0.002c-0.026-0.538-0.49-0.952-1.028-0.952z"></path>
</svg>
