<!-- Generated by IcoMoon.io -->
<svg version="1.1" xmlns="http://www.w3.org/2000/svg" width="40" height="40" viewBox="0 0 40 40">
<title>io-bicycle-sharp</title>
<path fill="#91908d" d="M24 16l-1.844-3.756c-0.386-0.869-0.386-0.869-1.656-0.869-0.829 0-0.922 0-1.438 0.456l-4.481 4.319c-0.519 0.528-0.581 0.591-0.581 1.663 0 0.792 0.236 0.913 1.157 1.431l3.843 2.131v5.625h2v-7.125s-1.813-1.063-3.019-1.875l3.056-3.219c1.169 1.781 1.706 3.219 2.375 3.219h4.587v-2z"></path>
<path fill="#91908d" d="M28.25 32c-3.176 0-5.75-2.574-5.75-5.75s2.574-5.75 5.75-5.75c3.176 0 5.75 2.574 5.75 5.75v0c-0.004 3.174-2.576 5.746-5.75 5.75h-0zM28.25 22.5c-2.071 0-3.75 1.679-3.75 3.75s1.679 3.75 3.75 3.75c2.071 0 3.75-1.679 3.75-3.75v0c-0.002-2.070-1.68-3.748-3.75-3.75h-0z"></path>
<path fill="#91908d" d="M11.75 32c-3.176 0-5.75-2.574-5.75-5.75s2.574-5.75 5.75-5.75c3.176 0 5.75 2.574 5.75 5.75v0c-0.004 3.174-2.576 5.746-5.75 5.75h-0zM11.75 22.5c-2.071 0-3.75 1.679-3.75 3.75s1.679 3.75 3.75 3.75c2.071 0 3.75-1.679 3.75-3.75v0c-0.003-2.070-1.68-3.748-3.75-3.75h-0z"></path>
<path fill="#91908d" d="M24 12c0.002 0 0.004 0 0.007 0 1.101 0 1.993-0.892 1.993-1.993 0-0.005-0-0.009-0-0.014v0.001c0-0.007 0-0.014 0-0.022 0-1.089-0.883-1.972-1.972-1.972-0.006 0-0.011 0-0.017 0h0.001c-0.002 0-0.004 0-0.006 0-1.105 0-2 0.895-2 2 0 1.102 0.892 1.996 1.993 2h0z"></path>
</svg>
