<!-- Generated by IcoMoon.io -->
<svg version="1.1" xmlns="http://www.w3.org/2000/svg" width="40" height="40" viewBox="0 0 40 40">
<title>io-business-outline</title>
<path fill="none" stroke-linejoin="round" stroke-linecap="round" stroke-miterlimit="4" stroke-width="2.5" stroke="#91908d" d="M15 30v4"></path>
<path fill="none" stroke-linejoin="round" stroke-linecap="round" stroke-miterlimit="4" stroke-width="2.5" stroke="#91908d" d="M9 6h12c1.105 0 2 0.895 2 2v0 25.75c0 0.138-0.112 0.25-0.25 0.25v0h-15.75v-26c0-1.105 0.895-2 2-2v0z"></path>
<path fill="none" stroke-linejoin="round" stroke-linecap="round" stroke-miterlimit="4" stroke-width="2.5" stroke="#91908d" d="M24 16h7c1.105 0 2 0.895 2 2v0 16h-10v-17c0-0.552 0.448-1 1-1v0z"></path>
<path fill="#91908d" d="M10.13 30.992c-0.039 0.005-0.084 0.008-0.13 0.008-0.552 0-1-0.448-1-1s0.448-1 1-1c0.552 0 1 0.448 1 1 0 0.046-0.003 0.091-0.009 0.135l0.001-0.005c-0.060 0.45-0.412 0.801-0.857 0.861l-0.005 0.001z"></path>
<path fill="#91908d" d="M10.13 25.992c-0.039 0.005-0.084 0.008-0.13 0.008-0.552 0-1-0.448-1-1s0.448-1 1-1c0.552 0 1 0.448 1 1 0 0.046-0.003 0.091-0.009 0.135l0.001-0.005c-0.060 0.45-0.412 0.801-0.857 0.861l-0.005 0.001z"></path>
<path fill="#91908d" d="M10.13 20.992c-0.039 0.005-0.084 0.008-0.13 0.008-0.552 0-1-0.448-1-1s0.448-1 1-1c0.552 0 1 0.448 1 1 0 0.046-0.003 0.091-0.009 0.135l0.001-0.005c-0.060 0.45-0.412 0.801-0.857 0.861l-0.005 0.001z"></path>
<path fill="#91908d" d="M10.13 15.992c-0.039 0.005-0.084 0.008-0.13 0.008-0.552 0-1-0.448-1-1s0.448-1 1-1c0.552 0 1 0.448 1 1 0 0.046-0.003 0.091-0.009 0.135l0.001-0.005c-0.060 0.45-0.412 0.801-0.857 0.861l-0.005 0.001z"></path>
<path fill="#91908d" d="M10.13 10.992c-0.039 0.005-0.084 0.008-0.13 0.008-0.552 0-1-0.448-1-1s0.448-1 1-1c0.552 0 1 0.448 1 1 0 0.046-0.003 0.091-0.009 0.135l0.001-0.005c-0.060 0.45-0.412 0.801-0.857 0.861l-0.005 0.001z"></path>
<path fill="#91908d" d="M15.13 25.992c-0.039 0.005-0.084 0.008-0.13 0.008-0.552 0-1-0.448-1-1s0.448-1 1-1c0.552 0 1 0.448 1 1 0 0.046-0.003 0.091-0.009 0.135l0.001-0.005c-0.060 0.45-0.412 0.801-0.857 0.861l-0.005 0.001z"></path>
<path fill="#91908d" d="M15.13 20.992c-0.039 0.005-0.084 0.008-0.13 0.008-0.552 0-1-0.448-1-1s0.448-1 1-1c0.552 0 1 0.448 1 1 0 0.046-0.003 0.091-0.009 0.135l0.001-0.005c-0.060 0.45-0.412 0.801-0.857 0.861l-0.005 0.001z"></path>
<path fill="#91908d" d="M15.13 15.992c-0.039 0.005-0.084 0.008-0.13 0.008-0.552 0-1-0.448-1-1s0.448-1 1-1c0.552 0 1 0.448 1 1 0 0.046-0.003 0.091-0.009 0.135l0.001-0.005c-0.060 0.45-0.412 0.801-0.857 0.861l-0.005 0.001z"></path>
<path fill="#91908d" d="M15.13 10.992c-0.039 0.005-0.084 0.008-0.13 0.008-0.552 0-1-0.448-1-1s0.448-1 1-1c0.552 0 1 0.448 1 1 0 0.046-0.003 0.091-0.009 0.135l0.001-0.005c-0.060 0.45-0.412 0.801-0.857 0.861l-0.005 0.001z"></path>
<path fill="#91908d" d="M20.13 30.992c-0.039 0.005-0.084 0.008-0.13 0.008-0.552 0-1-0.448-1-1s0.448-1 1-1c0.552 0 1 0.448 1 1 0 0.046-0.003 0.091-0.009 0.135l0.001-0.005c-0.060 0.45-0.412 0.801-0.857 0.861l-0.005 0.001z"></path>
<path fill="#91908d" d="M20.13 25.992c-0.039 0.005-0.084 0.008-0.13 0.008-0.552 0-1-0.448-1-1s0.448-1 1-1c0.552 0 1 0.448 1 1 0 0.046-0.003 0.091-0.009 0.135l0.001-0.005c-0.060 0.45-0.412 0.801-0.857 0.861l-0.005 0.001z"></path>
<path fill="#91908d" d="M20.13 20.992c-0.039 0.005-0.084 0.008-0.13 0.008-0.552 0-1-0.448-1-1s0.448-1 1-1c0.552 0 1 0.448 1 1 0 0.046-0.003 0.091-0.009 0.135l0.001-0.005c-0.060 0.45-0.412 0.801-0.857 0.861l-0.005 0.001z"></path>
<path fill="#91908d" d="M20.705 14.295c0.391 0.391 0.393 1.024 0.004 1.413s-1.022 0.388-1.413-0.004c-0.391-0.391-0.393-1.024-0.004-1.413s1.022-0.388 1.413 0.004z"></path>
<path fill="#91908d" d="M20.13 10.992c-0.039 0.005-0.084 0.008-0.13 0.008-0.552 0-1-0.448-1-1s0.448-1 1-1c0.552 0 1 0.448 1 1 0 0.046-0.003 0.091-0.009 0.135l0.001-0.005c-0.060 0.45-0.412 0.801-0.857 0.861l-0.005 0.001z"></path>
<path fill="#91908d" d="M29 29c-0.552 0-1 0.448-1 1s0.448 1 1 1c0.552 0 1-0.448 1-1v0c0-0.552-0.448-1-1-1v0z"></path>
<path fill="#91908d" d="M29 24c-0.552 0-1 0.448-1 1s0.448 1 1 1c0.552 0 1-0.448 1-1v0c0-0.552-0.448-1-1-1v0z"></path>
<path fill="#91908d" d="M29 19c-0.552 0-1 0.448-1 1s0.448 1 1 1c0.552 0 1-0.448 1-1v0c0-0.552-0.448-1-1-1v0z"></path>
<path fill="#91908d" d="M25 29c-0.552 0-1 0.448-1 1s0.448 1 1 1c0.552 0 1-0.448 1-1v0c0-0.552-0.448-1-1-1v0z"></path>
<path fill="#91908d" d="M25 24c-0.552 0-1 0.448-1 1s0.448 1 1 1c0.552 0 1-0.448 1-1v0c0-0.552-0.448-1-1-1v0z"></path>
<path fill="#91908d" d="M25 19c-0.552 0-1 0.448-1 1s0.448 1 1 1c0.552 0 1-0.448 1-1v0c0-0.552-0.448-1-1-1v0z"></path>
</svg>
