<!-- Generated by IcoMoon.io -->
<svg version="1.1" xmlns="http://www.w3.org/2000/svg" width="40" height="40" viewBox="0 0 40 40">
<title>io-basketball-sharp</title>
<path fill="#91908d" d="M20 18.586l2.153-2.153c-1.947-2.252-3.133-5.209-3.133-8.442 0-0.004 0-0.008 0-0.011v0.001c0-0.313 0.012-0.628 0.034-0.938-2.893 0.21-5.488 1.341-7.529 3.097l0.017-0.014z"></path>
<path fill="#91908d" d="M23.571 15.014l4.887-4.889c-1.995-1.718-4.545-2.842-7.349-3.072l-0.046-0.003c-0.026 0.306-0.040 0.616-0.040 0.929 0 0.003 0 0.007 0 0.011 0 2.681 0.963 5.137 2.563 7.041l-0.014-0.017z"></path>
<path fill="#91908d" d="M24.986 16.429c1.887 1.587 4.344 2.551 7.026 2.551 0.003 0 0.006 0 0.009 0h-0c0.313 0 0.625-0.014 0.929-0.040-0.233-2.851-1.357-5.402-3.089-7.414l0.014 0.017z"></path>
<path fill="#91908d" d="M15.014 23.571c-1.887-1.587-4.344-2.551-7.026-2.551-0.003 0-0.006 0-0.010 0h0.001q-0.47 0-0.929 0.040c0.233 2.851 1.357 5.402 3.089 7.414l-0.014-0.017z"></path>
<path fill="#91908d" d="M20 21.414l-2.153 2.153c1.947 2.252 3.133 5.209 3.133 8.442 0 0.004 0 0.008 0 0.011v-0.001c0 0.313-0.012 0.628-0.034 0.938 2.893-0.21 5.489-1.341 7.529-3.097l-0.017 0.014z"></path>
<path fill="#91908d" d="M32.021 20.979c-0.003 0-0.007 0-0.011 0-3.234 0-6.19-1.186-8.459-3.146l0.016 0.014-2.153 2.153 8.461 8.458c1.744-2.024 2.876-4.619 3.084-7.47l0.002-0.042c-0.313 0.022-0.626 0.034-0.941 0.034z"></path>
<path fill="#91908d" d="M18.586 20l-8.461-8.458c-1.744 2.024-2.876 4.619-3.084 7.47l-0.002 0.042c0.313-0.022 0.625-0.034 0.938-0.034 0.003 0 0.007 0 0.011 0 3.234 0 6.19 1.186 8.459 3.146l-0.016-0.014z"></path>
<path fill="#91908d" d="M11.542 29.875c1.995 1.718 4.545 2.842 7.349 3.072l0.046 0.003q0.039-0.459 0.040-0.929c0-0.003 0-0.006 0-0.009 0-2.682-0.964-5.139-2.564-7.043l0.014 0.017z"></path>
</svg>
