<!-- Generated by IcoMoon.io -->
<svg version="1.1" xmlns="http://www.w3.org/2000/svg" width="40" height="40" viewBox="0 0 40 40">
<title>io-bulb</title>
<path fill="#91908d" d="M22 33h-4c-0.552 0-1 0.448-1 1s0.448 1 1 1v0h4c0.552 0 1-0.448 1-1s-0.448-1-1-1v0z"></path>
<path fill="#91908d" d="M23 30h-6c-0.552 0-1 0.448-1 1s0.448 1 1 1v0h6c0.552 0 1-0.448 1-1s-0.448-1-1-1v0z"></path>
<path fill="#91908d" d="M27.089 7.918c-1.879-1.882-4.397-2.918-7.089-2.918-0.007-0-0.015-0-0.024-0-5.51 0-9.976 4.467-9.976 9.976 0 0.008 0 0.017 0 0.025v-0.001c0 2.914 1.117 5.639 3.063 7.478l0.272 0.256c1.126 1.052 2.665 2.494 2.665 3.767v1.5c0 0.552 0.448 1 1 1v0h1.5c0.276 0 0.5-0.224 0.5-0.5v0-7.324c0-0 0-0 0-0 0-0.212-0.131-0.393-0.317-0.466l-0.003-0.001c-0.625-0.258-1.163-0.559-1.66-0.914l0.025 0.017c-0.279-0.18-0.462-0.49-0.462-0.843 0-0.552 0.448-1 1-1 0.236 0 0.454 0.082 0.625 0.219l-0.002-0.002c0.462 0.328 1.353 0.813 1.794 0.813s1.332-0.486 1.796-0.813c0.151-0.096 0.335-0.153 0.532-0.153 0.552 0 1 0.448 1 1 0 0.314-0.144 0.594-0.37 0.777l-0.002 0.001c-0.472 0.338-1.010 0.638-1.581 0.875l-0.054 0.020c-0.189 0.074-0.321 0.255-0.321 0.467 0 0 0 0 0 0v0 7.326c0 0.276 0.224 0.5 0.5 0.5v0h1.5c0.552 0 1-0.448 1-1v0-1.5c0-1.242 1.523-2.683 2.634-3.736l0.307-0.291c2.001-1.911 3.059-4.497 3.059-7.473 0-0.015 0-0.033 0-0.050 0-2.746-1.113-5.232-2.911-7.032l0 0z"></path>
</svg>
