<!-- Generated by IcoMoon.io -->
<svg version="1.1" xmlns="http://www.w3.org/2000/svg" width="40" height="40" viewBox="0 0 40 40">
<title>io-bulb-sharp</title>
<path fill="#91908d" d="M17 33h6v2h-6v-2z"></path>
<path fill="#91908d" d="M16 30h8v2h-8v-2z"></path>
<path fill="#91908d" d="M27.089 7.918c-1.879-1.882-4.397-2.918-7.089-2.918-0.007-0-0.015-0-0.024-0-5.51 0-9.976 4.467-9.976 9.976 0 0.008 0 0.017 0 0.025v-0.001c0 2.914 1.117 5.639 3.063 7.478l0.272 0.256c1.126 1.052 2.665 2.494 2.665 3.767v2.5h3v-8.181l-2.768-1.569 1.143-1.642 2.625 1.392 2.581-1.399 1.194 1.605-2.774 1.625v8.169h3v-2.5c0-1.242 1.523-2.683 2.634-3.736l0.307-0.291c2.001-1.911 3.059-4.497 3.059-7.473 0-0.015 0-0.032 0-0.050 0-2.746-1.113-5.232-2.911-7.032l0 0z"></path>
</svg>
