<!-- Generated by IcoMoon.io -->
<svg version="1.1" xmlns="http://www.w3.org/2000/svg" width="40" height="40" viewBox="0 0 40 40">
<title>io-battery-charging-sharp</title>
<path fill="#91908d" d="M23.167 18.851h-4.156l0.958-3.419 0.402-1.433 0.246-0.875 0.268-0.958c0.002-0.008 0.003-0.017 0.004-0.027l0-0.001c0-0.004 0-0.008 0-0.012 0-0.002 0-0.005 0-0.007s-0-0.005-0-0.008l0 0c0-0.002 0-0.005 0-0.008s-0-0.005-0-0.008l0 0v-0.009c0-0.006-0.004-0.012-0.007-0.018v-0.003c-0.023-0.048-0.070-0.082-0.125-0.084h-0.007c-0.047 0.002-0.088 0.026-0.112 0.062l-0 0.001-0.781 1.072-1.176 1.597-4.681 6.426h4.152l-1.875 6.688c-0.002 0.009-0.003 0.019-0.004 0.029l-0 0.001s0 0.004 0 0.006c-0 0.003-0 0.007-0 0.011s0 0.007 0.001 0.011l-0-0c-0 0.001-0 0.002-0 0.003s0 0.002 0 0.003v-0c0.001 0.008 0.003 0.015 0.005 0.021l-0-0.001v0.004c0.003 0.008 0.006 0.014 0.009 0.021l-0-0.001c0.020 0.036 0.054 0.062 0.094 0.072l0.001 0h0.036c0.031-0.001 0.060-0.012 0.082-0.031l0.004-0.003c0.010-0.008 0.018-0.018 0.026-0.028l0-0 1.427-1.946 0.813-1.114z"></path>
<path fill="#91908d" d="M22.111 12.409l-0.009 0.046-0.013 0.046-0.42 1.5h8.393v11.999h-10.559l-1.458 2h14.017v-16h-9.929c0.004 0.039 0.006 0.084 0.006 0.13 0 0.099-0.010 0.195-0.029 0.289l0.002-0.009z"></path>
<path fill="#91908d" d="M7.063 14h10.593l1.457-2h-14.050v16h9.968c-0.004-0.041-0.007-0.089-0.007-0.137 0-0.099 0.010-0.196 0.029-0.289l-0.002 0.009 0.009-0.047 0.012-0.046 0.418-1.491h-8.429z"></path>
<path fill="#91908d" d="M20.547 24.567h8.159v-9.135h-7.439l-0.608 2.169h4.966l-5.078 6.966z"></path>
<path fill="#91908d" d="M14 22.391h-2.457l5.069-6.959h-8.194v9.135h7.475l0.611-2.176h-2.504z"></path>
<path fill="#91908d" d="M33.063 16.667h2v6.667h-2v-6.667z"></path>
</svg>
