<!-- Generated by IcoMoon.io -->
<svg version="1.1" xmlns="http://www.w3.org/2000/svg" width="40" height="40" viewBox="0 0 40 40">
<title>io-bonfire-sharp</title>
<path fill="#91908d" d="M16.493 25l-0.953-0.351c-0.782-0.361-1.446-0.846-1.996-1.439l-0.004-0.004c-0.871-0.931-1.831-2.544-1.461-4.944 0.325-2.108 2.763-4.638 4.334-6.117 1.703-1.601 4.125-4.116 4.009-6.197l-0.047-0.948h0.949c3.209 0 6.676 2.351 6.676 6.151 0 2.848-1.375 4.851-4.307 6.681-0.5 0.313-1.027 0.604-1.589 0.908-1.914 1.039-4.706 3.114-5.358 5.332z"></path>
<path fill="#91908d" d="M15.324 11.099c1.238-1.162 2.357-2.215 2.902-3.362q-0.172-0.105-0.356-0.193c-0.742-0.356-1.631-0.521-2.797-0.521h-1.059l0.035 1.031c0.029 0.879-0.379 1.407-0.896 2.076-0.541 0.7-1.153 1.492-1.153 2.684 0 0.639 0.081 1.173 0.263 1.647q0.219-0.332 0.476-0.664c0.762-0.983 1.691-1.855 2.586-2.696z"></path>
<path fill="#91908d" d="M24.646 18.991c-0.582 0.369-1.188 0.696-1.828 1.044-2.041 1.106-3.968 2.152-4.577 4.215l-0.038 0.125c0.841 0.394 1.827 0.624 2.867 0.625h0c1.854 0 3.591-0.696 4.89-1.96 1.258-1.221 2.039-2.929 2.039-4.818 0-0.012-0-0.024-0-0.036v0.002c-0.005-0.697-0.133-1.362-0.362-1.977l0.013 0.040c-0.709 1.011-1.696 1.911-3.004 2.741z"></path>
<path fill="#91908d" d="M20.795 26.5h-1.59c-0.121 0-0.221 0.086-0.245 0.2l-0 0.002-1.585 8c-0.003 0.015-0.005 0.031-0.005 0.049 0 0.138 0.112 0.25 0.25 0.25h4.766c0.138-0 0.25-0.112 0.25-0.25 0-0.017-0.002-0.034-0.005-0.050l0 0.002-1.588-8c-0.024-0.116-0.124-0.201-0.245-0.201-0.001 0-0.002 0-0.003 0h0z"></path>
<path fill="#91908d" d="M24.355 26.145l-0.71 0.71c-0.045 0.045-0.073 0.108-0.073 0.177 0 0.052 0.016 0.1 0.043 0.14l-0.001-0.001 3.717 5.576c0.045 0.068 0.122 0.111 0.208 0.111 0.069 0 0.132-0.028 0.177-0.073v0l2.569-2.569c0.045-0.045 0.073-0.108 0.073-0.177 0-0.086-0.044-0.163-0.111-0.208l-0.001-0.001-5.576-3.717c-0.039-0.026-0.087-0.042-0.139-0.042-0.069 0-0.132 0.028-0.177 0.073v0z"></path>
<path fill="#91908d" d="M28.25 25c-0.138 0-0.25 0.112-0.25 0.25v0 0.538c0 0 0 0 0 0 0 0.124 0.090 0.226 0.207 0.246l0.001 0 5.5 0.916c0.012 0.002 0.027 0.003 0.041 0.003 0.138 0 0.25-0.112 0.25-0.25v-1.455c0-0.138-0.112-0.25-0.25-0.25v0z"></path>
<path fill="#91908d" d="M15.645 26.145l0.71 0.71c0.045 0.045 0.073 0.108 0.073 0.177 0 0.052-0.016 0.1-0.043 0.14l0.001-0.001-3.717 5.576c-0.045 0.068-0.122 0.111-0.208 0.111-0.069 0-0.132-0.028-0.177-0.073v0l-2.569-2.569c-0.045-0.045-0.073-0.108-0.073-0.177 0-0.086 0.044-0.163 0.111-0.208l0.001-0.001 5.576-3.717c0.039-0.026 0.087-0.042 0.139-0.042 0.069 0 0.132 0.028 0.177 0.073v0z"></path>
<path fill="#91908d" d="M11.75 25h-5.5c-0.138 0-0.25 0.112-0.25 0.25v0 1.455c0 0.138 0.112 0.25 0.25 0.25 0.015 0 0.029-0.001 0.043-0.004l-0.001 0 5.5-0.916c0.119-0.021 0.209-0.123 0.209-0.247 0-0 0-0 0-0v0-0.538c0-0.138-0.112-0.25-0.25-0.25v0z"></path>
</svg>
