<!-- Generated by IcoMoon.io -->
<svg version="1.1" xmlns="http://www.w3.org/2000/svg" width="40" height="40" viewBox="0 0 40 40">
<title>io-baseball-sharp</title>
<path fill="#91908d" d="M22.885 7.512c-0.003 0.214-0.084 0.409-0.215 0.558l0.001-0.001-0.007 0.321-1.732-0.036c0 0.081 0.006 0.163 0.010 0.244v0c0.034 0.605 0.111 1.169 0.229 1.717l-0.013-0.073 1.545-0.449 0.488 1.68-1.544 0.449c0.256 0.671 0.537 1.241 0.862 1.781l-0.028-0.050 1.329-0.938 1.010 1.429-1.331 0.941q0.328 0.396 0.694 0.762c0.244 0.244 0.5 0.475 0.762 0.694l0.982-1.389 1.429 1.010-0.982 1.384c0.49 0.296 1.059 0.576 1.654 0.806l0.076 0.026 0.468-1.612 1.681 0.488-0.469 1.614c0.572 0.125 1.239 0.208 1.921 0.229l0.017 0-0.026-1.542 1.088-0.018c-1.005-5.095-4.878-9.071-9.834-10.214l-0.088-0.017c0.014 0.057 0.021 0.122 0.021 0.19 0 0.005-0 0.010-0 0.015v-0.001z"></path>
<path fill="#91908d" d="M17.375 31.602l1.744 0.031c-0.024-0.678-0.106-1.321-0.239-1.945l0.013 0.073-1.509 0.438-0.488-1.68 1.507-0.438c-0.256-0.67-0.536-1.24-0.861-1.78l0.028 0.050-1.271 0.899-1.010-1.429 1.273-0.901c-0.218-0.264-0.449-0.519-0.693-0.762s-0.5-0.476-0.762-0.695l-0.869 1.23-1.426-1.010 0.869-1.229c-0.49-0.297-1.061-0.577-1.656-0.807l-0.076-0.026-0.398 1.371-1.681-0.488 0.399-1.375c-0.477-0.104-1.041-0.179-1.616-0.211l-0.029-0.001c-0.099-0.006-0.199-0.010-0.299-0.012l0.025 1.396-1.107 0.020c0.967 5.216 4.944 9.291 10.028 10.389l0.086 0.016z"></path>
<path fill="#91908d" d="M31.791 22.917l-0.034-2.066c-0.883-0.021-1.728-0.128-2.544-0.313l0.086 0.016-0.486 1.683-1.684-0.488 0.489-1.688c-0.868-0.322-1.611-0.687-2.31-1.116l0.056 0.032-1.023 1.447-1.429-1.010 1.021-1.444c-0.694-0.566-1.309-1.181-1.857-1.852l-0.018-0.023-1.387 0.979-1.010-1.429 1.386-0.979c-0.399-0.643-0.765-1.386-1.057-2.165l-0.029-0.089-1.609 0.468-0.488-1.681 1.608-0.467q-0.125-0.576-0.199-1.165h-0.029l-0.049-0.875-0.021-0.375-1.121-0.020c-0.040-0.001-0.079-0.004-0.117-0.011l0.005 0.001-0.397-0.008 0.004-0.154c-0.216-0.161-0.354-0.416-0.354-0.703 0-0.005 0-0.011 0-0.016v0.001c0.001-0.037 0.004-0.073 0.009-0.109l-0.001 0.004c-5.067 1.16-8.955 5.164-9.929 10.205l-0.013 0.082 1.006-0.017 0.028 1.574 1.302 0.072v0.030q0.589 0.073 1.165 0.199l0.418-1.438 1.678 0.491-0.419 1.438c0.868 0.321 1.611 0.687 2.309 1.118l-0.055-0.032 0.908-1.285 1.43 1.011-0.904 1.281c0.695 0.566 1.309 1.18 1.857 1.852l0.018 0.023 1.331-0.938 1.010 1.429-1.335 0.941c0.397 0.643 0.762 1.386 1.054 2.165l0.029 0.089 1.579-0.458 0.488 1.679-1.578 0.458c0.163 0.709 0.269 1.532 0.295 2.375l0 0.019 1.839 0.033-0.018 1.030c4.976-1.071 8.842-4.879 9.983-9.738l0.017-0.088z"></path>
</svg>
