<!-- Generated by IcoMoon.io -->
<svg version="1.1" xmlns="http://www.w3.org/2000/svg" width="40" height="40" viewBox="0 0 40 40">
<title>io-clipboard</title>
<path fill="#91908d" d="M27 7h-0.713c-0.21-0-0.39-0.13-0.464-0.314l-0.001-0.003c-0.393-0.992-1.343-1.681-2.455-1.683h-6.734c-1.112 0.001-2.062 0.69-2.449 1.665l-0.006 0.018c-0.075 0.187-0.255 0.317-0.465 0.318h-0.713c-2.209 0-4 1.791-4 4v0 20c0 2.209 1.791 4 4 4v0h14c2.209 0 4-1.791 4-4v0-20c0-2.209-1.791-4-4-4v0zM23.992 11h-7.984c-0.552 0-1-0.448-1-1s0.448-1 1-1v0h7.984c0.552 0 1 0.448 1 1s-0.448 1-1 1v0z"></path>
</svg>
