<!-- Generated by IcoMoon.io -->
<svg version="1.1" xmlns="http://www.w3.org/2000/svg" width="40" height="40" viewBox="0 0 40 40">
<title>io-car-sport-sharp</title>
<path fill="#91908d" d="M34.5 18c-0.188-0.313-2.038-1.112-2.038-1.112 0.322-0.166 0.542-0.201 0.542-0.888 0-0.75-0.004-1-0.504-1h-1.696c-0.007-0.015-0.014-0.031-0.021-0.046-1.095-2.391-1.242-2.996-2.875-3.809-2.191-1.089-6.297-1.144-7.907-1.144s-5.717 0.055-7.906 1.144c-1.635 0.813-1.594 1.231-2.875 3.809 0 0.007-0.013 0.025-0.025 0.046h-1.698c-0.496 0-0.5 0.25-0.5 1 0 0.688 0.22 0.722 0.542 0.888 0 0-1.788 0.862-2.038 1.112s-0.5 2-0.5 5 0.25 6 0.25 6h0.746c0 0.875 0.129 1 0.504 1h5c0.375 0 0.5-0.125 0.5-1h16c0 0.875 0.125 1 0.5 1h5.125c0.25 0 0.375-0.188 0.375-1h0.75s0.25-3.063 0.25-6-0.313-4.688-0.5-5zM11.829 20.809c-1.025 0.119-2.216 0.188-3.423 0.191h-0.005c-1.276 0-1.32 0.082-1.41-0.715-0.012-0.125-0.019-0.27-0.019-0.417 0-0.239 0.019-0.474 0.054-0.703l-0.003 0.025 0.039-0.191h0.188c0.75 0 1.454 0.032 2.784 0.424 0.718 0.219 1.344 0.54 1.897 0.953l-0.016-0.012c0.273 0.198 0.335 0.385 0.335 0.385zM27.276 25.309l-0.276 0.691h-14s0.024-0.038-0.313-0.699c-0.25-0.489 0.063-0.801 0.557-0.979 0.957-0.345 3.756-1.322 6.756-1.322s5.854 0.842 6.781 1.322c0.344 0.177 0.771 0.303 0.495 0.99zM11.214 16.776c-0.104 0.006-0.225 0.010-0.346 0.010-0.091 0-0.182-0.002-0.273-0.006l0.013 0c0.163-0.29 0.254-0.613 0.413-0.951 0.5-1.063 1.072-2.265 2.090-2.772 1.471-0.733 4.521-1.063 6.889-1.063s5.418 0.328 6.889 1.063c1.018 0.507 1.587 1.71 2.090 2.772 0.161 0.341 0.25 0.666 0.418 0.958-0.125 0.007-0.269 0-0.612-0.012zM32.946 20.282c-0.134 0.78-0.009 0.718-1.348 0.718-1.211-0.003-2.403-0.073-3.575-0.205l0.147 0.014c-0.178-0.032-0.229-0.333-0.086-0.444 0.536-0.406 1.162-0.728 1.839-0.931l0.042-0.011c1.33-0.392 2.079-0.444 2.818-0.418 0.103 0.004 0.186 0.085 0.193 0.187l0 0.001c0.013 0.127 0.021 0.275 0.021 0.424 0 0.236-0.019 0.467-0.054 0.693l0.003-0.025z"></path>
</svg>
