<!-- Generated by IcoMoon.io -->
<svg version="1.1" xmlns="http://www.w3.org/2000/svg" width="40" height="40" viewBox="0 0 40 40">
<title>io-checkmark-done-circle</title>
<path fill="#91908d" d="M20.181 7c-7.311-0.099-13.28 5.87-13.181 13.181 0.098 7.012 5.807 12.721 12.819 12.819 7.312 0.1 13.28-5.869 13.18-13.18-0.096-7.013-5.806-12.723-12.817-12.82zM19.132 19.029l3.222-3.688c0.184-0.21 0.453-0.342 0.753-0.342 0.552 0 1 0.448 1 1 0 0.253-0.094 0.483-0.248 0.659l0.001-0.001-3.222 3.688c-0.184 0.21-0.453 0.342-0.753 0.342-0.552 0-1-0.448-1-1 0-0.253 0.094-0.483 0.248-0.659l-0.001 0.001zM16.703 24.707c-0.181 0.181-0.431 0.293-0.707 0.293s-0.526-0.112-0.707-0.293v0l-2.997-3c-0.181-0.181-0.293-0.431-0.293-0.707 0-0.552 0.448-1 1-1 0.276 0 0.526 0.112 0.708 0.293l3 3c0.18 0.181 0.29 0.43 0.29 0.705 0 0.277-0.113 0.528-0.295 0.709l-0 0zM27.753 16.658l-6.993 8c-0.177 0.202-0.432 0.332-0.718 0.342l-0.002 0h-0.034c-0 0-0 0-0 0-0.276 0-0.526-0.112-0.707-0.293l-2.996-3c-0.181-0.181-0.293-0.431-0.293-0.707 0-0.552 0.448-1 1-1 0.276 0 0.526 0.112 0.707 0.293l1.863 1.864c0.091 0.091 0.216 0.146 0.354 0.146 0.15 0 0.284-0.066 0.376-0.17l0.001-0.001 5.938-6.791c0.184-0.21 0.453-0.342 0.753-0.342 0.552 0 1 0.448 1 1 0 0.253-0.094 0.483-0.248 0.659l0.001-0.001z"></path>
</svg>
