<!-- Generated by IcoMoon.io -->
<svg version="1.1" xmlns="http://www.w3.org/2000/svg" width="40" height="40" viewBox="0 0 40 40">
<title>io-construct-outline</title>
<path fill="none" stroke-linejoin="miter" stroke-linecap="round" stroke-miterlimit="10" stroke-width="2.5" stroke="#91908d" d="M31.292 15.507c-0.307 0.305-0.73 0.494-1.197 0.494s-0.89-0.189-1.197-0.494l-1.405-1.406c-0.305-0.307-0.494-0.73-0.494-1.197s0.189-0.89 0.494-1.197l3.181-3.181c0.010-0.010 0.016-0.023 0.016-0.038 0-0.022-0.013-0.040-0.031-0.049l-0-0c-2.052-0.879-4.714-0.432-6.404 1.246-1.618 1.606-1.709 4.017-1.117 6.125 0.040 0.137 0.063 0.294 0.063 0.457 0 0.489-0.208 0.93-0.541 1.238l-10.814 10.049c-0.522 0.468-0.848 1.145-0.848 1.898 0 1.407 1.141 2.547 2.548 2.547 0.753 0 1.43-0.327 1.897-0.847l0.002-0.002 10.134-10.831c0.309-0.332 0.748-0.539 1.236-0.539 0.155 0 0.306 0.021 0.449 0.060l-0.012-0.003c2.091 0.559 4.468 0.454 6.067-1.121 1.718-1.692 2.089-4.684 1.256-6.396-0.009-0.017-0.027-0.029-0.047-0.029-0.015 0-0.028 0.006-0.038 0.016v0z"></path>
<path fill="none" stroke-linejoin="round" stroke-linecap="round" stroke-miterlimit="4" stroke-width="2.5" stroke="#91908d" d="M18 21.75c-1.093-1.063-1.593-1.557-1.938-1.893-0.208-0.207-0.337-0.493-0.337-0.809 0-0.192 0.047-0.373 0.131-0.532l-0.003 0.006c0.062-0.11 0.135-0.205 0.219-0.289l0-0 0.98-0.956c0.099-0.099 0.215-0.18 0.345-0.239l0.007-0.003c0.135-0.061 0.292-0.097 0.458-0.097 0.308 0 0.588 0.123 0.792 0.323l-0-0c0.341 0.331 0.964 0.938 2.088 2.032"></path>
<path fill="none" stroke-linejoin="round" stroke-linecap="round" stroke-miterlimit="4" stroke-width="2.5" stroke="#91908d" d="M23.817 22.206c2.559 2.381 5.664 5.204 6.875 6.213 0.188 0.155 0.306 0.388 0.306 0.649 0 0.233-0.095 0.444-0.247 0.596l-2.086 2.086c-0.158 0.154-0.373 0.249-0.611 0.249-0.261 0-0.495-0.114-0.656-0.296l-0.001-0.001c-1.033-1.199-3.818-4.194-6.204-6.687"></path>
<path fill="none" stroke-linejoin="round" stroke-linecap="round" stroke-miterlimit="4" stroke-width="2.5" stroke="#91908d" d="M5.084 16.094l1.838-1.796c0.053-0.052 0.126-0.084 0.206-0.084 0.002 0 0.005 0 0.007 0h-0c0.001 0 0.002-0 0.003-0 0.081 0 0.156 0.032 0.21 0.084l-0-0c0.111 0.11 0.264 0.178 0.433 0.178 0.028 0 0.055-0.002 0.082-0.005l-0.003 0c0.239-0.026 0.495-0.1 0.661-0.258 0.375-0.362-0.059-1.077 0.271-1.534 0.394-0.52 0.799-0.981 1.235-1.411l0.001-0.001c0.375-0.367 1.865-1.77 4.369-2.778 0.744-0.309 1.608-0.489 2.513-0.489 0.002 0 0.005 0 0.007 0h-0c1.412 0 2.5 0.625 2.891 0.979 0.232 0.221 0.442 0.458 0.632 0.713l0.011 0.015c-0.153-0.059-0.345-0.119-0.542-0.166l-0.034-0.007c-0.268-0.060-0.576-0.094-0.893-0.094-0.126 0-0.25 0.005-0.373 0.016l0.016-0.001c-0.833 0.068-1.838 0.454-2.375 0.875-0.869 0.688-1.242 1.607-1.301 2.794-0.043 0.883 0.17 1.381 2.256 3.468 0.065 0.073 0.105 0.169 0.105 0.275 0 0.117-0.048 0.222-0.126 0.297l-0 0-1.139 1.125c-0.077 0.076-0.184 0.123-0.301 0.123-0.114 0-0.218-0.045-0.295-0.118l0 0c-1.371-1.371-2.291-2.068-2.813-2.385s-0.942-0.406-1.144-0.428c-0.057-0.006-0.123-0.009-0.19-0.009-0.35 0-0.678 0.093-0.961 0.256l0.009-0.005c-0.063 0.035-0.117 0.077-0.165 0.125l-0 0c-0.154 0.159-0.249 0.376-0.249 0.614 0 0.252 0.105 0.479 0.274 0.64l0 0 0.107 0.1c0.054 0.053 0.088 0.126 0.088 0.208s-0.034 0.155-0.088 0.207l-0 0-1.836 1.793c-0.053 0.054-0.127 0.088-0.209 0.088-0.001 0-0.003 0-0.004-0h0c-0.001 0-0.002 0-0.003 0-0.082 0-0.156-0.032-0.21-0.084l0 0-2.973-2.902c-0.052-0.055-0.084-0.129-0.084-0.21s0.032-0.155 0.084-0.21l-0 0z"></path>
</svg>
