<!-- Generated by IcoMoon.io -->
<svg version="1.1" xmlns="http://www.w3.org/2000/svg" width="40" height="40" viewBox="0 0 40 40">
<title>io-create-outline</title>
<path fill="none" stroke-linejoin="round" stroke-linecap="round" stroke-miterlimit="4" stroke-width="2.5" stroke="#91908d" d="M28 18v11.5c0 1.381-1.119 2.5-2.5 2.5v0h-15c-1.381 0-2.5-1.119-2.5-2.5v0-15c0-1.381 1.119-2.5 2.5-2.5v0h10.468"></path>
<path fill="#91908d" d="M32.746 7.328c-0.184-0.202-0.449-0.328-0.742-0.328-0.277 0-0.527 0.112-0.709 0.293l0-0-0.773 0.769c-0.090 0.090-0.146 0.215-0.146 0.353s0.056 0.263 0.146 0.353v0l0.709 0.707c0.091 0.091 0.216 0.147 0.354 0.147s0.264-0.056 0.354-0.147l0-0 0.754-0.75c0.381-0.381 0.417-1.001 0.053-1.399z"></path>
<path fill="#91908d" d="M28.959 9.625l-11.282 11.263c-0.067 0.066-0.117 0.149-0.143 0.242l-0.001 0.004-0.522 1.554c-0.006 0.021-0.010 0.045-0.010 0.069 0 0.135 0.109 0.244 0.244 0.244 0.025 0 0.049-0.004 0.071-0.011l-0.002 0 1.553-0.522c0.097-0.028 0.179-0.078 0.246-0.144l0-0 11.262-11.284c0.101-0.102 0.163-0.241 0.163-0.396s-0.062-0.294-0.163-0.396l0 0-0.622-0.625c-0.102-0.101-0.242-0.164-0.397-0.164s-0.295 0.063-0.397 0.164v0z"></path>
</svg>
