<!-- Generated by IcoMoon.io -->
<svg version="1.1" xmlns="http://www.w3.org/2000/svg" width="40" height="40" viewBox="0 0 40 40">
<title>io-crop</title>
<path fill="#91908d" d="M32.625 25.625h-16.625c-0.897 0-1.625-0.728-1.625-1.625v0-16.625c0-0.759-0.616-1.375-1.375-1.375s-1.375 0.616-1.375 1.375v0 4.25h-4.25c-0.759 0-1.375 0.616-1.375 1.375s0.616 1.375 1.375 1.375v0h4.25v9.625c0.003 2.415 1.96 4.372 4.375 4.375h9.625v4.25c0 0.759 0.616 1.375 1.375 1.375s1.375-0.616 1.375-1.375v0-4.25h4.25c0.759 0 1.375-0.616 1.375-1.375s-0.616-1.375-1.375-1.375v0z"></path>
<path fill="#91908d" d="M17.375 14.375h6.625c0.897 0 1.625 0.728 1.625 1.625v0 6.625c0 0.759 0.616 1.375 1.375 1.375s1.375-0.616 1.375-1.375v0-6.625c-0.003-2.415-1.96-4.372-4.375-4.375h-6.625c-0.759 0-1.375 0.616-1.375 1.375s0.616 1.375 1.375 1.375v0z"></path>
</svg>
