<!-- Generated by IcoMoon.io -->
<svg version="1.1" xmlns="http://www.w3.org/2000/svg" width="40" height="40" viewBox="0 0 40 40">
<title>io-cog</title>
<path fill="#91908d" d="M33 19.621c-0.018-0.323-0.266-0.584-0.582-0.621l-0.003-0-1.602-0.259c-0.148-0.025-0.262-0.143-0.281-0.29l-0-0.002c-0.031-0.197-0.063-0.401-0.106-0.595-0.004-0.020-0.007-0.044-0.007-0.068 0-0.126 0.068-0.237 0.169-0.297l0.002-0.001 1.424-0.791c0.211-0.109 0.353-0.326 0.353-0.576 0-0.081-0.015-0.159-0.042-0.23l0.001 0.004-0.247-0.681c-0.093-0.25-0.329-0.425-0.606-0.425-0.054 0-0.106 0.007-0.156 0.019l0.004-0.001-1.597 0.313c-0.018 0.003-0.039 0.005-0.061 0.005-0.13 0-0.244-0.072-0.302-0.179l-0.001-0.002c-0.093-0.174-0.194-0.352-0.3-0.526-0.033-0.052-0.052-0.116-0.052-0.184 0-0.085 0.030-0.162 0.080-0.223l-0 0.001 1.063-1.227c0.108-0.116 0.175-0.272 0.175-0.444 0-0.159-0.057-0.304-0.151-0.417l0.001 0.001-0.464-0.557c-0.118-0.143-0.295-0.233-0.494-0.233-0.132 0-0.255 0.040-0.357 0.109l0.002-0.001-1.398 0.839c-0.049 0.030-0.109 0.048-0.173 0.048-0.087 0-0.167-0.033-0.226-0.088l0 0c-0.154-0.136-0.313-0.266-0.461-0.387-0.079-0.063-0.13-0.159-0.13-0.267 0-0.043 0.008-0.085 0.023-0.123l-0.001 0.002 0.579-1.525c0.034-0.076 0.053-0.164 0.053-0.257 0-0.238-0.128-0.446-0.32-0.558l-0.003-0.002-0.631-0.368c-0.092-0.054-0.203-0.086-0.322-0.086-0.212 0-0.401 0.103-0.518 0.261l-0.001 0.002-1.022 1.284c-0.052 0.078-0.14 0.129-0.24 0.129-0.040 0-0.077-0.008-0.112-0.023l0.002 0.001c-0.038-0.016-0.361-0.147-0.611-0.231-0.137-0.046-0.234-0.172-0.234-0.322 0-0.002 0-0.003 0-0.005v0l0.024-1.629c0.001-0.011 0.001-0.023 0.001-0.036 0-0.32-0.229-0.586-0.533-0.644l-0.004-0.001-0.716-0.125c-0.033-0.006-0.072-0.010-0.111-0.010-0.291 0-0.537 0.19-0.622 0.453l-0.001 0.005-0.531 1.551c-0.048 0.134-0.174 0.228-0.322 0.228-0.005 0-0.009-0-0.014-0l0.001 0h-0.609c-0.002 0-0.005 0-0.007 0-0.149 0-0.276-0.095-0.323-0.227l-0.001-0.002-0.529-1.542c-0.084-0.27-0.332-0.463-0.625-0.463-0.039 0-0.077 0.003-0.114 0.010l0.004-0.001-0.717 0.125c-0.307 0.058-0.536 0.324-0.536 0.643 0 0.011 0 0.022 0.001 0.033l-0-0.002 0.025 1.635c0 0.001 0 0.001 0 0.002 0 0.153-0.1 0.282-0.239 0.325l-0.002 0.001c-0.143 0.056-0.454 0.174-0.595 0.227-0.125 0.045-0.261-0.004-0.371-0.131l-1.016-1.25c-0.118-0.162-0.308-0.266-0.521-0.266-0.118 0-0.228 0.032-0.323 0.087l0.003-0.002-0.629 0.364c-0.196 0.114-0.325 0.323-0.325 0.562 0 0.095 0.020 0.185 0.057 0.266l-0.002-0.004 0.578 1.521c0.014 0.036 0.022 0.077 0.022 0.121 0 0.108-0.050 0.205-0.127 0.268l-0.001 0.001c-0.152 0.125-0.308 0.25-0.463 0.389-0.059 0.054-0.139 0.087-0.226 0.087-0.063 0-0.122-0.017-0.173-0.048l0.002 0.001-1.382-0.856c-0.1-0.066-0.223-0.105-0.354-0.105-0.199 0-0.376 0.089-0.495 0.229l-0.001 0.001-0.462 0.556c-0.095 0.112-0.153 0.257-0.153 0.417 0 0.172 0.067 0.327 0.176 0.443l-0-0 1.067 1.226c0.051 0.059 0.082 0.136 0.082 0.221 0 0.068-0.020 0.131-0.054 0.184l0.001-0.001c-0.107 0.17-0.209 0.349-0.301 0.528-0.060 0.109-0.173 0.182-0.304 0.182-0.022 0-0.043-0.002-0.064-0.006l0.002 0-1.594-0.308c-0.046-0.011-0.098-0.018-0.152-0.018-0.277 0-0.514 0.175-0.606 0.42l-0.001 0.004-0.25 0.68c-0.026 0.067-0.041 0.145-0.041 0.226 0 0.25 0.142 0.468 0.349 0.576l0.004 0.002 1.424 0.791c0.105 0.059 0.174 0.169 0.174 0.295 0 0.027-0.003 0.052-0.009 0.077l0-0.002-0.015 0.079c-0.033 0.174-0.063 0.339-0.091 0.515-0.021 0.147-0.133 0.263-0.277 0.29l-0.002 0-1.606 0.259c-0.322 0.041-0.569 0.312-0.572 0.642v0.724c0 0.001 0 0.002 0 0.004 0 0.33 0.249 0.602 0.57 0.637l0.003 0 1.605 0.259c0.148 0.025 0.262 0.143 0.281 0.29l0 0.002c0.031 0.198 0.063 0.401 0.106 0.595 0.004 0.020 0.007 0.044 0.007 0.068 0 0.126-0.068 0.237-0.169 0.297l-0.002 0.001-1.423 0.792c-0.211 0.109-0.353 0.326-0.353 0.576 0 0.081 0.015 0.159 0.042 0.23l-0.001-0.004 0.25 0.681c0.093 0.25 0.329 0.425 0.607 0.425 0.054 0 0.106-0.007 0.156-0.019l-0.004 0.001 1.597-0.309c0.018-0.004 0.040-0.006 0.061-0.006 0.13 0 0.243 0.073 0.302 0.179l0.001 0.002c0.094 0.175 0.194 0.352 0.3 0.526 0.033 0.052 0.052 0.116 0.052 0.184 0 0.085-0.030 0.162-0.080 0.223l0-0.001-1.063 1.227c-0.111 0.116-0.179 0.274-0.179 0.448 0 0.157 0.056 0.301 0.148 0.414l-0.001-0.001 0.463 0.557c0.118 0.143 0.295 0.233 0.493 0.233 0.132 0 0.256-0.040 0.358-0.109l-0.002 0.001 1.398-0.839c0.049-0.030 0.109-0.048 0.173-0.048 0.087 0 0.167 0.033 0.226 0.088l-0-0c0.155 0.136 0.313 0.266 0.461 0.387 0.079 0.063 0.13 0.16 0.13 0.268 0 0.043-0.008 0.084-0.023 0.122l0.001-0.002-0.579 1.525c-0.034 0.076-0.053 0.164-0.053 0.257 0 0.238 0.128 0.446 0.32 0.558l0.003 0.002 0.632 0.365c0.092 0.054 0.203 0.086 0.322 0.086 0.212 0 0.4-0.103 0.517-0.261l0.001-0.002 1.034-1.272c0.088-0.108 0.225-0.156 0.327-0.115 0.218 0.090 0.363 0.141 0.621 0.227 0.137 0.046 0.234 0.173 0.234 0.323 0 0.001 0 0.003-0 0.004v-0l-0.025 1.628c-0.001 0.010-0.001 0.023-0.001 0.035 0 0.32 0.229 0.587 0.532 0.645l0.004 0.001 0.716 0.125c0.034 0.006 0.072 0.010 0.112 0.010 0.291 0 0.537-0.19 0.621-0.453l0.001-0.005 0.531-1.548c0.048-0.134 0.174-0.228 0.322-0.228 0.005 0 0.009 0 0.014 0l-0.001-0h0.609c0.002-0 0.005-0 0.008-0 0.149 0 0.275 0.095 0.323 0.227l0.001 0.002 0.529 1.542c0.085 0.27 0.332 0.463 0.625 0.463h0c0 0 0.001 0 0.001 0 0.039 0 0.077-0.004 0.114-0.011l-0.004 0.001 0.717-0.125c0.307-0.058 0.536-0.324 0.536-0.643 0-0.011-0-0.022-0.001-0.033l0 0.002-0.025-1.635c0-0.001 0-0.001 0-0.002 0-0.15 0.097-0.277 0.232-0.322l0.002-0.001c0.24-0.081 0.409-0.146 0.557-0.203l0.038-0.014c0.194-0.067 0.287 0.014 0.342 0.082l1.047 1.289c0.119 0.16 0.307 0.262 0.519 0.262 0.118 0 0.229-0.032 0.324-0.088l-0.003 0.002 0.629-0.364c0.195-0.114 0.323-0.322 0.323-0.56 0-0.094-0.020-0.182-0.056-0.263l0.002 0.004-0.578-1.521c-0.014-0.036-0.022-0.078-0.022-0.121 0-0.108 0.050-0.204 0.127-0.267l0.001-0.001c0.152-0.125 0.307-0.25 0.463-0.389 0.059-0.054 0.139-0.087 0.226-0.087 0.064 0 0.124 0.018 0.175 0.049l-0.001-0.001 1.399 0.838c0.1 0.066 0.223 0.105 0.355 0.105 0.199 0 0.376-0.089 0.495-0.229l0.001-0.001 0.462-0.556c0.095-0.112 0.153-0.257 0.153-0.417 0-0.172-0.067-0.327-0.176-0.443l0 0-1.066-1.229c-0.051-0.059-0.082-0.136-0.082-0.221 0-0.068 0.020-0.131 0.054-0.184l-0.001 0.001c0.107-0.169 0.209-0.348 0.301-0.527 0.060-0.109 0.174-0.182 0.305-0.182 0.022 0 0.043 0.002 0.063 0.006l-0.002-0 1.593 0.311c0.046 0.011 0.098 0.018 0.152 0.018 0.277 0 0.514-0.175 0.606-0.42l0.001-0.004 0.247-0.68c0.026-0.067 0.041-0.144 0.041-0.225 0-0.25-0.142-0.467-0.349-0.575l-0.004-0.002-1.425-0.792c-0.103-0.059-0.171-0.168-0.171-0.294 0-0.026 0.003-0.052 0.009-0.077l-0 0.002 0.015-0.079c0.032-0.174 0.063-0.339 0.091-0.515 0.021-0.147 0.133-0.263 0.277-0.29l0.002-0 1.606-0.259c0.323-0.040 0.571-0.312 0.574-0.642v-0.732zM15.347 25.496c-0.174 0.298-0.492 0.495-0.856 0.495-0.292 0-0.554-0.127-0.735-0.328l-0.001-0.001c-1.353-1.491-2.181-3.48-2.181-5.662 0-2.196 0.838-4.196 2.213-5.697l-0.006 0.006c0.182-0.201 0.443-0.327 0.734-0.327 0.366 0 0.686 0.199 0.857 0.495l0.003 0.005 2.853 5.022c0.082 0.141 0.131 0.311 0.131 0.492s-0.049 0.351-0.133 0.497l0.003-0.005zM20 28.444c-0.001 0-0.001 0-0.002 0-0.626 0-1.236-0.068-1.823-0.198l0.056 0.010c-0.445-0.102-0.773-0.495-0.773-0.964 0-0.183 0.049-0.354 0.136-0.5l-0.003 0.005 2.875-5c0.174-0.298 0.492-0.496 0.856-0.496 0 0 0 0 0 0h5.759c0 0 0.001 0 0.002 0 0.545 0 0.987 0.442 0.987 0.988 0 0.106-0.017 0.207-0.047 0.303l0.002-0.007c-1.093 3.395-4.275 5.86-8.025 5.86zM20.469 18.201l-2.844-5.009c-0.082-0.141-0.131-0.311-0.131-0.491 0-0.47 0.329-0.864 0.769-0.964l0.007-0.001c0.519-0.114 1.115-0.18 1.727-0.18 0.001 0 0.003 0 0.004 0h-0c3.75 0 6.932 2.465 8.023 5.862 0.029 0.088 0.045 0.19 0.045 0.296 0 0.545-0.442 0.987-0.987 0.987-0.001 0-0.001 0-0.002 0h-5.75c-0.001 0-0.001 0-0.002 0-0.366 0-0.685-0.199-0.856-0.495l-0.003-0.005z"></path>
</svg>
