<!-- Generated by IcoMoon.io -->
<svg version="1.1" xmlns="http://www.w3.org/2000/svg" width="40" height="40" viewBox="0 0 40 40">
<title>io-color-wand-sharp</title>
<path fill="#91908d" d="M12.34 16.54l4.2-4.2 4.884 4.884-4.2 4.2-4.884-4.884z"></path>
<path fill="#91908d" d="M22.838 18.638l-4.199 4.2 11.111 11.162 4.25-4.25-11.162-11.112z"></path>
<path fill="#91908d" d="M6 15h5v2h-5v-2z"></path>
<path fill="#91908d" d="M8.226 9.641l1.414-1.414 3.536 3.536-1.414 1.414-3.536-3.536z"></path>
<path fill="#91908d" d="M15 6h2v5h-2v-5z"></path>
<path fill="#91908d" d="M18.832 11.762l3.536-3.536 1.414 1.414-3.536 3.536-1.414-1.414z"></path>
<path fill="#91908d" d="M8.226 22.368l3.536-3.536 1.414 1.414-3.536 3.536-1.414-1.414z"></path>
</svg>
