<!-- Generated by IcoMoon.io -->
<svg version="1.1" xmlns="http://www.w3.org/2000/svg" width="40" height="40" viewBox="0 0 40 40">
<title>io-calendar</title>
<path fill="#91908d" d="M34 12c0-2.209-1.791-4-4-4v0h-1v-0.972c0-0.538-0.414-1-0.952-1.027-0.014-0.001-0.031-0.001-0.048-0.001-0.552 0-1 0.448-1 1v0 1h-14v-0.972c0-0.538-0.414-1-0.952-1.027-0.014-0.001-0.031-0.001-0.048-0.001-0.552 0-1 0.448-1 1v0 1h-1c-2.209 0-4 1.791-4 4v0 0.75c0 0.138 0.112 0.25 0.25 0.25v0h27.5c0.138 0 0.25-0.112 0.25-0.25v0z"></path>
<path fill="#91908d" d="M6 30c0 2.209 1.791 4 4 4v0h20c2.209 0 4-1.791 4-4v0-14.813c0-0.104-0.084-0.188-0.188-0.188v0h-27.625c-0.104 0-0.188 0.084-0.188 0.188v0zM27.5 17c0.828 0 1.5 0.672 1.5 1.5s-0.672 1.5-1.5 1.5c-0.828 0-1.5-0.672-1.5-1.5v0c0-0.828 0.672-1.5 1.5-1.5v0zM27.5 22c0.828 0 1.5 0.672 1.5 1.5s-0.672 1.5-1.5 1.5c-0.828 0-1.5-0.672-1.5-1.5v0c0-0.828 0.672-1.5 1.5-1.5v0zM22.5 17c0.828 0 1.5 0.672 1.5 1.5s-0.672 1.5-1.5 1.5c-0.828 0-1.5-0.672-1.5-1.5v0c0-0.828 0.672-1.5 1.5-1.5v0zM22.5 22c0.828 0 1.5 0.672 1.5 1.5s-0.672 1.5-1.5 1.5c-0.828 0-1.5-0.672-1.5-1.5v0c0-0.828 0.672-1.5 1.5-1.5v0zM22.5 27c0.828 0 1.5 0.672 1.5 1.5s-0.672 1.5-1.5 1.5c-0.828 0-1.5-0.672-1.5-1.5v0c0-0.828 0.672-1.5 1.5-1.5v0zM17.5 22c0.828 0 1.5 0.672 1.5 1.5s-0.672 1.5-1.5 1.5c-0.828 0-1.5-0.672-1.5-1.5v0c0-0.828 0.672-1.5 1.5-1.5v0zM17.5 27c0.828 0 1.5 0.672 1.5 1.5s-0.672 1.5-1.5 1.5c-0.828 0-1.5-0.672-1.5-1.5v0c0-0.828 0.672-1.5 1.5-1.5v0zM12.5 22c0.828 0 1.5 0.672 1.5 1.5s-0.672 1.5-1.5 1.5c-0.828 0-1.5-0.672-1.5-1.5v0c0-0.828 0.672-1.5 1.5-1.5v0zM12.5 27c0.828 0 1.5 0.672 1.5 1.5s-0.672 1.5-1.5 1.5c-0.828 0-1.5-0.672-1.5-1.5v0c0-0.828 0.672-1.5 1.5-1.5v0z"></path>
</svg>
