<!-- Generated by IcoMoon.io -->
<svg version="1.1" xmlns="http://www.w3.org/2000/svg" width="40" height="40" viewBox="0 0 40 40">
<title>io-cash</title>
<path fill="#91908d" d="M32 29h-24c-0.552 0-1-0.448-1-1s0.448-1 1-1v0h24c0.552 0 1 0.448 1 1s-0.448 1-1 1v0z"></path>
<path fill="#91908d" d="M30 32h-20c-0.552 0-1-0.448-1-1s0.448-1 1-1v0h20c0.552 0 1 0.448 1 1s-0.448 1-1 1v0z"></path>
<path fill="#91908d" d="M6 21h-1v3c0 1.105 0.895 2 2 2v0h3v-1c-0.002-2.208-1.792-3.998-4-4h-0z"></path>
<path fill="#91908d" d="M34 19h1v-4h-1c-3.312-0.004-5.996-2.688-6-6v-1h-16v1c-0.004 3.312-2.688 5.996-6 6h-1v4c0.313 0 0.646 0 1 0 3.312 0.004 5.996 2.688 6 6v1h16v-1c0.004-3.312 2.688-5.996 6-6h0zM20 23c-3.314 0-6-2.686-6-6s2.686-6 6-6c3.314 0 6 2.686 6 6v0c-0.004 3.312-2.688 5.996-6 6h-0z"></path>
<path fill="#91908d" d="M24 17c0 2.209-1.791 4-4 4s-4-1.791-4-4c0-2.209 1.791-4 4-4s4 1.791 4 4z"></path>
<path fill="#91908d" d="M30 25v1h3c1.105 0 2-0.895 2-2v0-3h-1c-2.208 0.002-3.998 1.792-4 4v0z"></path>
<path fill="#91908d" d="M34 13h1v-3c0-1.105-0.895-2-2-2v0h-3v1c0.002 2.208 1.792 3.997 4 4h0z"></path>
<path fill="#91908d" d="M10 9v-1h-3c-1.105 0-2 0.895-2 2v0 3h1c2.208-0.003 3.997-1.792 4-4v-0z"></path>
</svg>
