<!-- Generated by IcoMoon.io -->
<svg version="1.1" xmlns="http://www.w3.org/2000/svg" width="40" height="40" viewBox="0 0 40 40">
<title>io-caret-back-circle</title>
<path fill="#91908d" d="M7 20c0 7.179 5.821 13 13 13s13-5.821 13-13-5.821-13-13-13-13 5.821-13 13zM22.75 15.366v9.268c-0 0.552-0.448 0.999-1 0.999-0.244 0-0.467-0.087-0.641-0.232l0.002 0.001-5.568-4.633c-0.221-0.185-0.36-0.46-0.36-0.769s0.14-0.584 0.359-0.767l0.002-0.001 5.568-4.633c0.172-0.144 0.395-0.231 0.639-0.231 0.552 0 1 0.447 1 0.999v0z"></path>
</svg>
