<!-- Generated by IcoMoon.io -->
<svg version="1.1" xmlns="http://www.w3.org/2000/svg" width="40" height="40" viewBox="0 0 40 40">
<title>io-cloud-offline</title>
<path fill="#91908d" d="M32 33c-0 0-0.001 0-0.002 0-0.276 0-0.525-0.112-0.705-0.293l-24-24c-0.17-0.179-0.275-0.422-0.275-0.689 0-0.552 0.448-1 1-1 0.267 0 0.51 0.105 0.689 0.275l24 24c0.181 0.181 0.293 0.431 0.293 0.707 0 0.552-0.447 1-0.999 1h-0z"></path>
<path fill="#91908d" d="M6.42 16.299c-1.583 1.444-2.42 3.415-2.42 5.701 0 2.25 0.899 4.305 2.531 5.787 1.572 1.427 3.692 2.213 5.969 2.213h12.050c0 0 0 0 0 0 0.276 0 0.5-0.224 0.5-0.5 0-0.138-0.056-0.263-0.147-0.354v0l-14.599-14.599c-0.091-0.091-0.216-0.147-0.354-0.147-0.052 0-0.102 0.008-0.15 0.023l0.004-0.001c-1.305 0.399-2.467 1.039-3.385 1.876z"></path>
<path fill="#91908d" d="M33.787 28.452c1.448-1.153 2.213-2.865 2.213-4.952 0-3.598-2.625-5.661-5.473-6.297-0.382-0.089-0.677-0.389-0.756-0.768l-0.001-0.007c-0.48-2.293-1.528-4.259-3.074-5.75-1.722-1.658-4.068-2.679-6.652-2.679-0.016 0-0.031 0-0.047 0h0.002c-1.945 0-3.758 0.563-5.289 1.631-0.132 0.091-0.218 0.242-0.218 0.413 0 0.138 0.056 0.263 0.146 0.354l18.215 18.215c0.091 0.091 0.216 0.147 0.354 0.147 0.106 0 0.205-0.033 0.286-0.089l-0.002 0.001q0.152-0.105 0.294-0.219z"></path>
</svg>
