<!-- Generated by IcoMoon.io -->
<svg version="1.1" xmlns="http://www.w3.org/2000/svg" width="40" height="40" viewBox="0 0 40 40">
<title>io-cloud-upload-sharp</title>
<path fill="#91908d" d="M33.604 17.125c-1.035-0.769-2.356-1.297-3.72-1.5-0.414-2.449-1.513-4.542-3.206-6.091-1.793-1.644-4.164-2.547-6.677-2.547-2.209 0-4.25 0.693-5.898 2.003-1.234 0.989-2.201 2.26-2.81 3.719l-0.023 0.062c-1.871 0.288-3.57 1.043-4.837 2.159-1.591 1.403-2.432 3.273-2.432 5.407 0 2.157 0.906 4.125 2.549 5.547 1.57 1.356 3.684 2.102 5.951 2.102h6.5v-9.586l-3 3-1.414-1.414 5.414-5.414 5.414 5.414-1.414 1.414-3-3v9.586h7.75c1.959 0 3.744-0.55 5.028-1.548 1.454-1.131 2.222-2.75 2.222-4.677 0-1.871-0.829-3.476-2.396-4.637z"></path>
<path fill="#91908d" d="M19 27.987h2v5.026h-2v-5.026z"></path>
</svg>
