<!-- Generated by IcoMoon.io -->
<svg version="1.1" xmlns="http://www.w3.org/2000/svg" width="40" height="40" viewBox="0 0 40 40">
<title>io-cloud-offline-sharp</title>
<path fill="#91908d" d="M6.586 8l1.414-1.414 25.414 25.414-1.414 1.414-25.414-25.414z"></path>
<path fill="#91908d" d="M6.42 17.299c-1.583 1.444-2.42 3.415-2.42 5.701 0 2.25 0.899 4.305 2.531 5.787 1.572 1.427 3.692 2.213 5.969 2.213h14.258l-15.851-15.851c-1.751 0.337-3.318 1.083-4.487 2.149z"></path>
<path fill="#91908d" d="M33.787 29.452c1.448-1.153 2.213-2.865 2.213-4.952 0-3.866-3.028-5.959-6.109-6.415-0.407-2.574-1.503-4.775-3.194-6.404-1.723-1.659-4.069-2.681-6.654-2.681-0.015 0-0.029 0-0.044 0h0.002c-1.904 0-3.681 0.539-5.192 1.563l18.926 18.929c0.016-0.013 0.036-0.026 0.053-0.039z"></path>
</svg>
