<!-- Generated by IcoMoon.io -->
<svg version="1.1" xmlns="http://www.w3.org/2000/svg" width="40" height="40" viewBox="0 0 40 40">
<title>io-car-sharp</title>
<path fill="#91908d" d="M31.98 17.799c-0.016-0.074-0.038-0.139-0.065-0.2l0.003 0.007-3-7c-0.157-0.359-0.508-0.604-0.917-0.605h-16c-0 0-0 0-0 0-0.41 0-0.762 0.247-0.917 0.6l-0.003 0.006-3 7c-0.025 0.055-0.046 0.12-0.061 0.187l-0.001 0.007c-0.012 0.057-0.018 0.123-0.018 0.191 0 0.003 0 0.007 0 0.010v-0.001 11.5c0 0.276 0.224 0.5 0.5 0.5v0h2c0.276 0 0.5-0.224 0.5-0.5v0-1.5h18v1.5c0 0.276 0.224 0.5 0.5 0.5v0h2c0.276 0 0.5-0.224 0.5-0.5v0-11.5c0-0 0-0.001 0-0.001 0-0.071-0.007-0.14-0.021-0.206l0.001 0.007zM13 24c-1.105 0-2-0.895-2-2s0.895-2 2-2c1.105 0 2 0.895 2 2v0c0 1.105-0.895 2-2 2v0zM27 24c-1.105 0-2-0.895-2-2s0.895-2 2-2c1.105 0 2 0.895 2 2v0c0 1.105-0.895 2-2 2v0zM10.516 17l2.143-5h14.681l2.143 5z"></path>
</svg>
