<!-- Generated by IcoMoon.io -->
<svg version="1.1" xmlns="http://www.w3.org/2000/svg" width="40" height="40" viewBox="0 0 40 40">
<title>io-chatbubble-ellipses</title>
<path fill="#91908d" d="M28.875 9.115c-2.409-1.941-5.507-3.115-8.879-3.115-0.002 0-0.005 0-0.007 0h0c-3.808 0-7.364 1.467-10.023 4.131-2.569 2.577-3.978 5.981-3.966 9.58 0 2.764 0.832 5.333 2.259 7.472l-0.031-0.049 0.012 0.017c0.018 0.026 0.036 0.051 0.054 0.076s0.041 0.057 0.046 0.066l0.014 0.025c0.071 0.125 0.125 0.278 0.077 0.431l-1.151 4.166c-0.044 0.142-0.071 0.305-0.075 0.475l-0 0.002c0 0.001 0 0.002 0 0.003 0 0.884 0.715 1.601 1.598 1.606h0c0.238-0.008 0.461-0.060 0.665-0.148l-0.012 0.005 4.271-1.543c0.105-0.045 0.228-0.072 0.357-0.072 0.002 0 0.004 0 0.006 0h-0c0.121 0 0.236 0.023 0.342 0.065l-0.006-0.002c0.101 0.039 1.021 0.391 1.991 0.663 0.806 0.225 2.484 0.563 3.798 0.563 3.728 0 7.209-1.444 9.802-4.066 2.57-2.603 3.985-6.062 3.985-9.745 0-0.001 0-0.003 0-0.005 0-0.995-0.109-1.964-0.315-2.896l0.016 0.089c-0.646-3.039-2.36-5.806-4.826-7.791zM9.467 27.75v0zM14 22c-1.105 0-2-0.895-2-2s0.895-2 2-2c1.105 0 2 0.895 2 2v0c0 1.105-0.895 2-2 2v0zM20 22c-1.105 0-2-0.895-2-2s0.895-2 2-2c1.105 0 2 0.895 2 2v0c0 1.105-0.895 2-2 2v0zM26 22c-1.105 0-2-0.895-2-2s0.895-2 2-2c1.105 0 2 0.895 2 2v0c0 1.105-0.895 2-2 2v0z"></path>
</svg>
