<!-- Generated by IcoMoon.io -->
<svg version="1.1" xmlns="http://www.w3.org/2000/svg" width="40" height="40" viewBox="0 0 40 40">
<title>io-documents</title>
<path fill="#91908d" d="M22.649 19.5c0 0 0 0 0 0 0.138 0 0.25-0.112 0.25-0.25 0-0.068-0.027-0.13-0.071-0.175l0 0-4.9-4.982c-0.045-0.046-0.108-0.075-0.178-0.075-0.138 0-0.25 0.112-0.25 0.25 0 0 0 0 0 0v0 4.482c0 0.414 0.336 0.75 0.75 0.75v0z"></path>
<path fill="#91908d" d="M16.313 20.688c-0.5-0.494-0.811-1.179-0.813-1.937v-5.75h-4.5c-2.206 0.007-3.993 1.794-4 3.999v14.001c0 2.209 1.791 4 4 4v0h9c2.209 0 4-1.791 4-4v0-9.5h-5.75c-0.758-0.001-1.444-0.312-1.937-0.812l-0-0z"></path>
<path fill="#91908d" d="M27.25 11.5h4.399c0 0 0 0 0 0 0.138 0 0.25-0.112 0.25-0.25 0-0.068-0.027-0.13-0.071-0.175l0 0-4.9-4.983c-0.045-0.046-0.108-0.075-0.178-0.075-0.138 0-0.25 0.112-0.25 0.25 0 0 0 0 0 0v0 4.482c0 0.414 0.336 0.75 0.75 0.75v0z"></path>
<path fill="#91908d" d="M27.25 13.5c-1.514-0.012-2.738-1.236-2.75-2.749v-5.751h-6.75c-2.070 0.003-3.747 1.68-3.75 3.75v2.25h2.632c0.706 0.003 1.345 0.293 1.805 0.759l0 0 6.822 6.938c0.457 0.464 0.739 1.101 0.739 1.804 0 0.003 0 0.006-0 0.009v-0.001 8.491h3.316c2.032 0 3.684-1.683 3.684-3.75v-11.75z"></path>
</svg>
