<!-- Generated by IcoMoon.io -->
<svg version="1.1" xmlns="http://www.w3.org/2000/svg" width="40" height="40" viewBox="0 0 40 40">
<title>io-dice-sharp</title>
<path fill="#91908d" d="M7 26.932l12 7.068v-12.25l-12-7.125zM16 22c0.553 0 1 0.672 1 1.5s-0.447 1.5-1 1.5-1-0.672-1-1.5 0.448-1.5 1-1.5zM10 24c0.553 0 1 0.672 1 1.5s-0.447 1.5-1 1.5-1-0.672-1-1.5 0.447-1.5 1-1.5z"></path>
<path fill="#91908d" d="M21 21.75v12.25l12-7.068v-12.307zM24 30.5c-0.553 0-1-0.672-1-1.5s0.447-1.5 1-1.5 1 0.672 1 1.5-0.448 1.5-1 1.5zM24 25c-0.553 0-1-0.672-1-1.5s0.447-1.5 1-1.5 1 0.672 1 1.5-0.448 1.5-1 1.5zM30 27c-0.553 0-1-0.672-1-1.5s0.447-1.5 1-1.5 1 0.672 1 1.5-0.447 1.5-1 1.5zM30 21.5c-0.553 0-1-0.672-1-1.5s0.447-1.5 1-1.5 1 0.672 1 1.5-0.447 1.5-1 1.5zM32 26.352v0z"></path>
<path fill="#91908d" d="M20 6l-12 7 12 7 12-7zM20 13.5c-0.828 0-1.5-0.447-1.5-1s0.672-1 1.5-1 1.5 0.447 1.5 1-0.672 1-1.5 1z"></path>
</svg>
