<!-- Generated by IcoMoon.io -->
<svg version="1.1" xmlns="http://www.w3.org/2000/svg" width="40" height="40" viewBox="0 0 40 40">
<title>io-dice-outline</title>
<path fill="none" stroke-linejoin="round" stroke-linecap="round" stroke-miterlimit="4" stroke-width="2.5" stroke="#91908d" d="M32 25.336v-10.673c-0.001-0.733-0.396-1.373-0.984-1.721l-0.009-0.005-9.5-5.529c-0.432-0.256-0.952-0.407-1.508-0.407s-1.076 0.151-1.521 0.414l0.014-0.008-9.499 5.529c-0.597 0.353-0.992 0.993-0.993 1.726v10.673c0 0.733 0.395 1.374 0.984 1.722l0.009 0.005 9.5 5.529c0.432 0.255 0.952 0.406 1.508 0.406s1.075-0.151 1.521-0.414l-0.014 0.008 9.5-5.529c0.597-0.353 0.992-0.994 0.992-1.727v-0z"></path>
<path fill="none" stroke-linejoin="round" stroke-linecap="round" stroke-miterlimit="4" stroke-width="2.5" stroke="#91908d" d="M8.313 13.624l11.688 6.875 11.688-6.875"></path>
<path fill="none" stroke-linejoin="round" stroke-linecap="round" stroke-miterlimit="4" stroke-width="2.5" stroke="#91908d" d="M20 32.999v-12.5"></path>
<path fill="#91908d" d="M21.5 13.5c0 0.552-0.672 1-1.5 1s-1.5-0.448-1.5-1c0-0.552 0.672-1 1.5-1s1.5 0.448 1.5 1z"></path>
<path fill="#91908d" d="M18 22.5c0 0.828-0.448 1.5-1 1.5s-1-0.672-1-1.5c0-0.828 0.448-1.5 1-1.5s1 0.672 1 1.5z"></path>
<path fill="#91908d" d="M12 24.5c0 0.828-0.448 1.5-1 1.5s-1-0.672-1-1.5c0-0.828 0.448-1.5 1-1.5s1 0.672 1 1.5z"></path>
<path fill="#91908d" d="M24 22.5c0 0.828-0.448 1.5-1 1.5s-1-0.672-1-1.5c0-0.828 0.448-1.5 1-1.5s1 0.672 1 1.5z"></path>
<path fill="#91908d" d="M30 19c0 0.828-0.448 1.5-1 1.5s-1-0.672-1-1.5c0-0.828 0.448-1.5 1-1.5s1 0.672 1 1.5z"></path>
<path fill="#91908d" d="M24 28c0 0.828-0.448 1.5-1 1.5s-1-0.672-1-1.5c0-0.828 0.448-1.5 1-1.5s1 0.672 1 1.5z"></path>
<path fill="#91908d" d="M30 24.5c0 0.828-0.448 1.5-1 1.5s-1-0.672-1-1.5c0-0.828 0.448-1.5 1-1.5s1 0.672 1 1.5z"></path>
</svg>
