<!-- Generated by IcoMoon.io -->
<svg version="1.1" xmlns="http://www.w3.org/2000/svg" width="40" height="40" viewBox="0 0 40 40">
<title>io-document-lock-sharp</title>
<path fill="#91908d" d="M21.25 16h9.144c0 0 0 0 0 0 0.069 0 0.125-0.056 0.125-0.125 0-0.034-0.014-0.066-0.036-0.088v0l-9.27-9.27c-0.023-0.022-0.054-0.036-0.088-0.036-0.069 0-0.125 0.056-0.125 0.125 0 0 0 0 0 0v0 9.144c0 0.138 0.112 0.25 0.25 0.25v0z"></path>
<path fill="#91908d" d="M20 21c-0.551 0-1 0.393-1 0.875v1.125h2v-1.125c0-0.482-0.449-0.875-1-0.875z"></path>
<path fill="#91908d" d="M19.5 18c-0.276 0-0.5-0.224-0.5-0.5v0-11.5h-9.25c-0.414 0-0.75 0.336-0.75 0.75v0 26.5c0 0.414 0.336 0.75 0.75 0.75v0h20.5c0.414 0 0.75-0.336 0.75-0.75v0-15.25zM25 28.994c-0 0.555-0.45 1.005-1.006 1.006h-7.989c-0.555-0-1.005-0.45-1.006-1.006v-4.994c0-0.625 0.437-1 1-1h1v-1.125c0-1.585 1.346-2.875 3-2.875s3 1.29 3 2.875v1.125h1c0.004-0 0.008-0 0.013-0 0.545 0 0.988 0.442 0.988 0.988 0 0.004-0 0.009-0 0.013v-0.001z"></path>
</svg>
