<!-- Generated by IcoMoon.io -->
<svg version="1.1" xmlns="http://www.w3.org/2000/svg" width="40" height="40" viewBox="0 0 40 40">
<title>io-flower-sharp</title>
<path fill="#91908d" d="M22.688 20c0 1.484-1.203 2.688-2.688 2.688s-2.688-1.203-2.688-2.688c0-1.484 1.203-2.688 2.688-2.688s2.688 1.203 2.688 2.688z"></path>
<path fill="#91908d" d="M33.746 22.994c0.778-0.766 1.26-1.83 1.26-3.007 0-2.33-1.889-4.218-4.218-4.218-0.006 0-0.013 0-0.019 0h0.001c-0.18 0-0.387 0.009-0.621 0.027 0.172-0.148 0.327-0.289 0.458-0.419 0.764-0.767 1.236-1.824 1.236-2.992 0-2.334-1.886-4.227-4.217-4.239h-0.017c-1.169 0.001-2.227 0.479-2.988 1.25l-0 0c-0.132 0.132-0.273 0.287-0.42 0.458 0.018-0.234 0.027-0.442 0.027-0.621 0-2.336-1.894-4.231-4.231-4.231s-4.231 1.894-4.231 4.231v0c0 0.179 0.009 0.387 0.027 0.621-0.147-0.171-0.289-0.326-0.42-0.458-0.762-0.771-1.819-1.249-2.989-1.25h-0.011c-2.329 0.019-4.21 1.912-4.21 4.244 0 1.164 0.469 2.219 1.228 2.986l-0-0c0.131 0.131 0.286 0.272 0.459 0.42-0.234-0.018-0.441-0.027-0.621-0.027-2.336 0-4.231 1.894-4.231 4.231s1.894 4.231 4.231 4.231v0c0.179 0 0.386-0.009 0.621-0.027-0.171 0.147-0.326 0.288-0.458 0.42-0.768 0.765-1.243 1.823-1.243 2.992 0 2.332 1.89 4.222 4.222 4.222 0.004 0 0.007 0 0.011 0h0.015c0.002 0 0.004 0 0.007 0 1.16 0 2.21-0.469 2.971-1.228l-0 0c0.131-0.131 0.272-0.286 0.419-0.458-0.017 0.233-0.027 0.441-0.027 0.621 0 2.336 1.894 4.231 4.231 4.231s4.231-1.894 4.231-4.231v0c0-0.179-0.009-0.387-0.027-0.621 0.148 0.172 0.289 0.328 0.42 0.459 0.761 0.76 1.812 1.23 2.973 1.23 0.002 0 0.005 0 0.007 0h0.015c0.005 0 0.011 0 0.018 0 2.33 0 4.219-1.889 4.219-4.219 0-1.17-0.476-2.229-1.246-2.993l-0-0c-0.132-0.132-0.287-0.273-0.458-0.42 0.234 0.018 0.442 0.027 0.621 0.027 1.163-0.001 2.216-0.474 2.976-1.238l0-0zM20 25.313c-2.934 0-5.313-2.379-5.313-5.313s2.379-5.313 5.313-5.313c2.934 0 5.313 2.379 5.313 5.313v0c-0.004 2.933-2.38 5.309-5.312 5.313h-0z"></path>
</svg>
