<!-- Generated by IcoMoon.io -->
<svg version="1.1" xmlns="http://www.w3.org/2000/svg" width="40" height="40" viewBox="0 0 40 40">
<title>io-flower-outline</title>
<path fill="none" stroke-linejoin="miter" stroke-linecap="round" stroke-miterlimit="10" stroke-width="2.5" stroke="#91908d" d="M17.443 13.807c-0.306-1.5-0.673-3.517-0.673-4.577-0-0.006-0-0.013-0-0.021 0-1.773 1.437-3.21 3.21-3.21 0.007 0 0.015 0 0.022 0h-0.001c1.784 0 3.231 1.481 3.231 3.231 0 1.031-0.366 3.059-0.673 4.577"></path>
<path fill="none" stroke-linejoin="miter" stroke-linecap="round" stroke-miterlimit="10" stroke-width="2.5" stroke="#91908d" d="M17.443 26.193c-0.307 1.504-0.673 3.51-0.673 4.577-0 0.006-0 0.013-0 0.021 0 1.773 1.437 3.21 3.21 3.21 0.007 0 0.015-0 0.022-0h-0.001c1.784 0 3.231-1.481 3.231-3.231 0-1.034-0.366-3.058-0.673-4.577"></path>
<path fill="none" stroke-linejoin="miter" stroke-linecap="round" stroke-miterlimit="10" stroke-width="2.5" stroke="#91908d" d="M26.193 17.443c1.504-0.307 3.51-0.673 4.577-0.673 0.006-0 0.013-0 0.021-0 1.773 0 3.21 1.437 3.21 3.21 0 0.007-0 0.015-0 0.022v-0.001c0 1.784-1.481 3.231-3.231 3.231-1.031 0-3.059-0.366-4.577-0.673"></path>
<path fill="none" stroke-linejoin="miter" stroke-linecap="round" stroke-miterlimit="10" stroke-width="2.5" stroke="#91908d" d="M13.807 17.442c-1.5-0.306-3.516-0.672-4.577-0.672-0.006-0-0.013-0-0.021-0-1.773 0-3.21 1.437-3.21 3.21 0 0.007 0 0.015 0 0.022v-0.001c0 1.784 1.481 3.231 3.231 3.231 1.031 0 3.059-0.366 4.577-0.673"></path>
<path fill="none" stroke-linejoin="miter" stroke-linecap="round" stroke-miterlimit="10" stroke-width="2.5" stroke="#91908d" d="M22.557 13.807c0.847-1.28 2.019-2.953 2.773-3.707 0.582-0.59 1.391-0.955 2.284-0.955s1.702 0.365 2.284 0.955l0 0c1.262 1.262 1.237 3.331 0 4.569-0.729 0.729-2.417 1.917-3.707 2.773"></path>
<path fill="none" stroke-linejoin="miter" stroke-linecap="round" stroke-miterlimit="10" stroke-width="2.5" stroke="#91908d" d="M13.807 22.557c-1.28 0.847-2.953 2.019-3.707 2.773-0.59 0.582-0.955 1.391-0.955 2.284s0.365 1.702 0.955 2.284l0 0c1.262 1.262 3.331 1.237 4.569 0 0.729-0.729 1.917-2.417 2.773-3.707"></path>
<path fill="none" stroke-linejoin="miter" stroke-linecap="round" stroke-miterlimit="10" stroke-width="2.5" stroke="#91908d" d="M26.193 22.557c1.28 0.847 2.953 2.019 3.707 2.773 0.59 0.582 0.955 1.391 0.955 2.284s-0.365 1.702-0.955 2.284l-0 0c-1.262 1.262-3.331 1.237-4.569 0-0.731-0.731-1.916-2.416-2.773-3.707"></path>
<path fill="none" stroke-linejoin="miter" stroke-linecap="round" stroke-miterlimit="10" stroke-width="2.5" stroke="#91908d" d="M17.443 13.807c-0.846-1.277-2.024-2.957-2.773-3.707-0.582-0.59-1.391-0.955-2.284-0.955s-1.702 0.365-2.284 0.955l-0 0c-1.262 1.262-1.238 3.331 0 4.569 0.726 0.726 2.419 1.918 3.707 2.773"></path>
<path fill="none" stroke-linejoin="miter" stroke-linecap="round" stroke-miterlimit="10" stroke-width="2.5" stroke="#91908d" d="M24 20c0 2.209-1.791 4-4 4s-4-1.791-4-4c0-2.209 1.791-4 4-4s4 1.791 4 4z"></path>
</svg>
