<!-- Generated by IcoMoon.io -->
<svg version="1.1" xmlns="http://www.w3.org/2000/svg" width="40" height="40" viewBox="0 0 40 40">
<title>io-fish-outline</title>
<path fill="none" stroke-linejoin="round" stroke-linecap="butt" stroke-miterlimit="4" stroke-width="2.5" stroke="#91908d" d="M19 13.5c-3.169 0.763-5.884 3.269-7.519 4.589-0.45-0.418-0.935-0.819-1.443-1.192l-0.045-0.032c-2.273-1.66-4.993-1.866-4.993-1.866s0.711 3.221 2.585 4.989c-1.874 1.769-2.585 4.99-2.585 4.99s2.721-0.206 4.993-1.866c0.548-0.401 1.029-0.799 1.486-1.223l-0.010 0.009c1.631 1.321 4.359 3.834 7.531 4.599l-1 3.5c2.464-0.417 4.929-2.219 5.92-3.016 8.080-0.359 11.080-5.547 11.080-6.984 0-1.375-3-6.625-11.056-6.983-0.974-0.781-3.459-2.597-5.944-3.017z"></path>
<path fill="#91908d" d="M31 18.999c0 0.552-0.448 1-1 1s-1-0.448-1-1c0-0.552 0.448-1 1-1s1 0.448 1 1z"></path>
<path fill="none" stroke-linejoin="miter" stroke-linecap="round" stroke-miterlimit="20" stroke-width="2.5" stroke="#91908d" d="M27.648 26.25c-1.057-1.792-1.682-3.948-1.682-6.25s0.625-4.458 1.714-6.308l-0.032 0.058"></path>
</svg>
