<!-- Generated by IcoMoon.io -->
<svg version="1.1" xmlns="http://www.w3.org/2000/svg" width="40" height="40" viewBox="0 0 40 40">
<title>io-game-controller-sharp</title>
<path fill="#91908d" d="M33.879 26.305l-2.442-12.867c-0.554-2.522-1.438-4.438-5.5-4.438h-12.875c-4.125 0-4.946 1.916-5.5 4.438l-2.438 12.867c-0.438 2.133 0.277 3.828 2.086 4.488s3.227-0.356 4.238-2.337l0.964-1.907c0.169-0.328 0.505-0.549 0.892-0.549 0 0 0 0 0 0h12.392c0 0 0 0 0 0 0.388 0 0.724 0.221 0.89 0.543l0.003 0.006 0.964 1.907c1.009 1.981 2.43 3 4.238 2.337s2.521-2.356 2.087-4.488zM18 19h-3v3h-2v-3h-3v-2h3v-3h2v3h3zM22.25 19.25c-0.69 0-1.25-0.56-1.25-1.25s0.56-1.25 1.25-1.25c0.69 0 1.25 0.56 1.25 1.25v0c0 0.69-0.56 1.25-1.25 1.25v0zM25 22c-0.69 0-1.25-0.56-1.25-1.25s0.56-1.25 1.25-1.25c0.69 0 1.25 0.56 1.25 1.25v0c0 0.69-0.56 1.25-1.25 1.25v0zM25 16.5c-0.69 0-1.25-0.56-1.25-1.25s0.56-1.25 1.25-1.25c0.69 0 1.25 0.56 1.25 1.25v0c0 0.69-0.56 1.25-1.25 1.25v0zM27.75 19.25c-0.69 0-1.25-0.56-1.25-1.25s0.56-1.25 1.25-1.25c0.69 0 1.25 0.56 1.25 1.25v0c0 0.69-0.56 1.25-1.25 1.25v0z"></path>
</svg>
