<!-- Generated by IcoMoon.io -->
<svg version="1.1" xmlns="http://www.w3.org/2000/svg" width="40" height="40" viewBox="0 0 40 40">
<title>io-git-merge-sharp</title>
<path fill="#91908d" d="M28 18c-0.001 0-0.003 0-0.004 0-0.892 0-1.715 0.293-2.378 0.789l0.010-0.007-11.628-5.196v-0.125c1.204-0.704 2-1.991 2-3.464 0-2.209-1.791-4-4-4s-4 1.791-4 4c0 1.473 0.796 2.76 1.981 3.454l0.019 0.010v13.078c-1.204 0.704-2 1.991-2 3.464 0 2.209 1.791 4 4 4s4-1.791 4-4c0-1.473-0.796-2.76-1.981-3.454l-0.019-0.010v-8.572l10.026 4.481c0.232 2.008 1.923 3.553 3.975 3.553 2.209 0 4-1.791 4-4s-1.791-4-4-4c-0 0-0 0-0.001 0h0zM12 8c1.105 0 2 0.895 2 2s-0.895 2-2 2c-1.105 0-2-0.895-2-2v0c0-1.105 0.895-2 2-2v0zM12 32c-1.105 0-2-0.895-2-2s0.895-2 2-2c1.105 0 2 0.895 2 2v0c0 1.105-0.895 2-2 2v0zM28 24c-1.105 0-2-0.895-2-2s0.895-2 2-2c1.105 0 2 0.895 2 2v0c0 1.105-0.895 2-2 2v0z"></path>
</svg>
