<!-- Generated by IcoMoon.io -->
<svg version="1.1" xmlns="http://www.w3.org/2000/svg" width="40" height="40" viewBox="0 0 40 40">
<title>io-git-commit</title>
<path fill="#91908d" d="M32 18h-4.25c-0.919-3.48-4.038-6.004-7.747-6.004s-6.828 2.524-7.734 5.948l-0.013 0.056h-4.256c-1.105 0-2 0.895-2 2s0.895 2 2 2v0h4.253c0.917 3.483 4.037 6.010 7.748 6.010s6.832-2.527 7.736-5.954l0.013-0.056h4.25c1.105 0 2-0.895 2-2s-0.895-2-2-2v0zM20 24c-2.209 0-4-1.791-4-4s1.791-4 4-4c2.209 0 4 1.791 4 4v0c-0.002 2.208-1.792 3.998-4 4h-0z"></path>
</svg>
