<!-- Generated by IcoMoon.io -->
<svg version="1.1" xmlns="http://www.w3.org/2000/svg" width="40" height="40" viewBox="0 0 40 40">
<title>io-help-buoy</title>
<path fill="#91908d" d="M29.899 10.101c-2.538-2.563-6.058-4.149-9.948-4.149-7.732 0-14 6.268-14 14 0 3.89 1.587 7.41 4.148 9.947l0.001 0.001c2.538 2.563 6.058 4.149 9.948 4.149 7.732 0 14-6.268 14-14 0-3.89-1.587-7.41-4.148-9.947l-0.001-0.001zM16.008 20.261c-0.005-0.078-0.009-0.169-0.009-0.261 0-2.209 1.791-4 4-4s4 1.791 4 4c0 2.209-1.791 4-4 4-0.092 0-0.183-0.003-0.273-0.009l0.012 0.001c-2.003-0.137-3.594-1.728-3.73-3.718l-0.001-0.012zM31.008 16.096l-6.023 0.365c-0.004 0-0.009 0-0.013 0-0.082 0-0.155-0.039-0.201-0.099l-0-0.001c-0.329-0.429-0.701-0.8-1.115-1.119l-0.014-0.010c-0.061-0.047-0.1-0.12-0.1-0.202 0-0.005 0-0.009 0-0.014l-0 0.001 0.365-6.023c0.008-0.132 0.117-0.236 0.25-0.236 0.032 0 0.063 0.006 0.091 0.017l-0.002-0.001c3.225 1.252 5.729 3.757 6.952 6.9l0.028 0.082c0.010 0.026 0.016 0.057 0.016 0.089 0 0.133-0.104 0.242-0.235 0.25l-0.001 0zM16.096 8.994l0.365 6.023c0 0.004 0 0.009 0 0.013 0 0.082-0.039 0.155-0.099 0.201l-0.001 0c-0.429 0.329-0.8 0.701-1.119 1.115l-0.010 0.014c-0.047 0.061-0.12 0.1-0.202 0.1-0.005 0-0.009-0-0.014-0l0.001 0-6.023-0.365c-0.132-0.008-0.236-0.117-0.236-0.25 0-0.032 0.006-0.063 0.017-0.091l-0.001 0.002c1.252-3.226 3.756-5.731 6.9-6.954l0.082-0.028c0.026-0.010 0.057-0.016 0.089-0.016 0.133 0 0.242 0.104 0.25 0.235l0 0.001zM8.994 23.904l6.023-0.365c0.004-0 0.009-0 0.013-0 0.082 0 0.155 0.039 0.201 0.099l0 0.001c0.329 0.429 0.701 0.8 1.115 1.119l0.014 0.010c0.061 0.047 0.1 0.12 0.1 0.202 0 0.005-0 0.009-0 0.014l0-0.001-0.365 6.023c-0.008 0.132-0.117 0.236-0.25 0.236-0.032 0-0.063-0.006-0.091-0.017l0.002 0.001c-3.226-1.252-5.731-3.756-6.954-6.9l-0.028-0.082c-0.010-0.026-0.016-0.057-0.016-0.089 0-0.133 0.104-0.242 0.235-0.25l0.001-0zM23.904 31.006l-0.365-6.023c-0-0.004-0-0.009-0-0.013 0-0.082 0.039-0.155 0.099-0.201l0.001-0c0.429-0.329 0.8-0.701 1.119-1.115l0.010-0.014c0.047-0.061 0.12-0.1 0.202-0.1 0.005 0 0.009 0 0.014 0l-0.001-0 6.023 0.365c0.132 0.008 0.236 0.117 0.236 0.25 0 0.032-0.006 0.063-0.017 0.091l0.001-0.002c-1.252 3.226-3.756 5.731-6.9 6.954l-0.082 0.028c-0.026 0.010-0.057 0.016-0.089 0.016-0.133 0-0.242-0.104-0.25-0.235l-0-0.001z"></path>
</svg>
