<!-- Generated by IcoMoon.io -->
<svg version="1.1" xmlns="http://www.w3.org/2000/svg" width="40" height="40" viewBox="0 0 40 40">
<title>io-hand-left-outline</title>
<path fill="none" stroke-linejoin="round" stroke-linecap="round" stroke-miterlimit="4" stroke-width="2.5" stroke="#91908d" d="M9 24v-11c0-1.105 0.895-2 2-2v0 0c1.105 0 2 0.895 2 2v0 7"></path>
<path fill="none" stroke-linejoin="round" stroke-linecap="round" stroke-miterlimit="4" stroke-width="2.5" stroke="#91908d" d="M13 20v-11c0-1.105 0.895-2 2-2v0 0c1.105 0 2 0.895 2 2v0 10"></path>
<path fill="none" stroke-linejoin="round" stroke-linecap="round" stroke-miterlimit="4" stroke-width="2.5" stroke="#91908d" d="M21 19.063v-9.063c0-1.105 0.895-2 2-2v0 0c1.105 0 2 0.895 2 2v0 14"></path>
<path fill="none" stroke-linejoin="round" stroke-linecap="round" stroke-miterlimit="4" stroke-width="2.5" stroke="#91908d" d="M17 19v-12c0-1.105 0.895-2 2-2v0 0c1.105 0 2 0.895 2 2v0 12"></path>
<path fill="none" stroke-linejoin="round" stroke-linecap="round" stroke-miterlimit="4" stroke-width="2.5" stroke="#91908d" d="M9 24c0 7.337 4 11 9.5 11s7.732-2.475 9-5.5l3.294-9c0.416-1.128 0.227-2.174-0.742-2.725v0c-0.97-0.551-2.244-0.267-2.769 0.73l-2.283 5.495"></path>
</svg>
