<!-- Generated by IcoMoon.io -->
<svg version="1.1" xmlns="http://www.w3.org/2000/svg" width="40" height="40" viewBox="0 0 40 40">
<title>io-infinite-sharp</title>
<path fill="#91908d" d="M27.875 12.5c-2.554 0-4.591 1.283-5.85 2.36l-0.044 0.038-0.717 0.779 1.582 2.601 1.171-1.174c1.226-1.035 2.594-1.604 3.857-1.604 2.55 0 4.625 2.019 4.625 4.5s-2.075 4.5-4.625 4.5c-3.875 0-6.509-5.122-6.535-5.174v0c-0.152-0.308-3.492-6.826-9.215-6.826-4.204 0-7.625 3.364-7.625 7.5s3.421 7.5 7.625 7.5c2.059 0 4.086-0.819 5.862-2.37l0.038-0.034 0.711-0.774-1.583-2.601-1.177 1.18c-1.226 1.061-2.522 1.598-3.851 1.598-2.55 0-4.625-2.019-4.625-4.5s2.075-4.5 4.625-4.5c3.875 0 6.509 5.122 6.535 5.174v0c0.152 0.308 3.493 6.826 9.215 6.826 4.204 0 7.625-3.364 7.625-7.5s-3.421-7.5-7.625-7.5z"></path>
</svg>
