<!-- Generated by IcoMoon.io -->
<svg version="1.1" xmlns="http://www.w3.org/2000/svg" width="40" height="40" viewBox="0 0 40 40">
<title>io-invert-mode-sharp</title>
<path fill="#91908d" d="M29.899 10.101c-2.538-2.563-6.058-4.149-9.948-4.149-7.732 0-14 6.268-14 14 0 3.89 1.587 7.41 4.148 9.947l0.001 0.001c2.538 2.563 6.058 4.149 9.948 4.149 7.732 0 14-6.268 14-14 0-3.89-1.587-7.41-4.148-9.947l-0.001-0.001zM20 31v-6c-2.761 0-5-2.239-5-5s2.239-5 5-5v0-6c6.066 0 11 4.938 11 11s-4.934 11-11 11z"></path>
<path fill="#91908d" d="M25 20c0-2.761-2.239-5-5-5v0 10c2.761 0 5-2.239 5-5v0z"></path>
</svg>
