<!-- Generated by IcoMoon.io -->
<svg version="1.1" xmlns="http://www.w3.org/2000/svg" width="40" height="40" viewBox="0 0 40 40">
<title>io-logo-tux</title>
<path fill="#91908d" d="M31.729 29.316c-0.091-0.049-0.178-0.096-0.25-0.137-0.404-0.239-0.812-0.657-0.741-1.114 0.151-0.996 0.181-1.467-0.031-1.799-0.114-0.176-0.278-0.311-0.473-0.385l-0.007-0.002v-0.004c0.088-0.16 0.141-0.354 0.177-0.633 0.090-0.688-0.313-2.75-0.856-4.419-0.505-1.543-1.828-3.125-2.794-4.285l-0.226-0.271c-1.492-1.808-1.521-2.387-1.659-5.167-0.020-0.404-0.043-0.863-0.073-1.375-0.18-3.134-1.797-4.724-4.797-4.724-1.575 0-2.789 0.447-3.607 1.329-0.656 0.706-1.018 1.671-1.018 2.72 0 1.845 0.125 3.313 0.134 3.393 0.088 2.231 0.063 2.576-0.519 3.597-0.139 0.246-0.524 0.679-0.931 1.138-0.53 0.598-1.131 1.276-1.46 1.826-0.236 0.394-0.367 0.789-0.507 1.208-0.213 0.638-0.454 1.361-1.134 2.286-0.786 1.067-0.97 1.851-0.688 2.966v0c-0.309 0.403-0.302 0.898-0.297 1.264 0.002 0.033 0.004 0.072 0.004 0.111 0 0.095-0.008 0.188-0.024 0.279l0.001-0.010c-0.143 0.474-0.776 0.587-1.375 0.636-0.099 0.008-0.194 0.013-0.284 0.018-0.454 0.024-0.846 0.046-1.071 0.394-0.217 0.335-0.070 0.863 0.134 1.593 0.045 0.161 0.091 0.328 0.137 0.504 0.114 0.438-0.010 0.655-0.168 0.927-0.152 0.263-0.326 0.563-0.326 1.097 0 0.917 1.25 1.125 2.691 1.371 0.46 0.078 0.938 0.158 1.414 0.265 0.829 0.191 1.54 0.42 2.224 0.702l-0.094-0.034c0.607 0.233 1.087 0.417 1.652 0.417 1.011 0 1.766-0.611 2.495-1.201l0.134-0.109c0.346-0.281 1.344-0.25 2.146-0.227 0.216 0.006 0.421 0.013 0.603 0.013h0.389c0.843-0.005 1.996-0.011 2.639 0.156 0.234 0.063 0.387 0.232 0.581 0.449 0.367 0.41 0.823 0.922 2.087 0.922 1.212 0 1.847-0.544 2.582-1.175 0.447-0.383 0.91-0.78 1.567-1.116 0.245-0.125 0.476-0.242 0.692-0.351 1.415-0.711 2.194-1.103 2.194-1.739 0-0.619-0.765-1.031-1.271-1.304zM17.194 9.524c0.356 0.014 0.656 0.241 0.777 0.557l0.002 0.006c0.122 0.347 0.113 0.651 0.013 0.809 0 0-0.014-0.063-0.023-0.090-0.065-0.227-0.209-0.415-0.399-0.535l-0.004-0.002c-0.109-0.071-0.242-0.114-0.385-0.114-0.062 0-0.122 0.008-0.179 0.023l0.005-0.001c-0.266 0.071-0.526 0.313-0.557 1.174-0.323-0.654-0.144-1.125 0.057-1.438 0.144-0.233 0.467-0.396 0.691-0.389zM16.101 32.961c-0.101 0.991-1.151 0.976-1.47 0.951-0.613-0.051-1.354-0.293-2.071-0.527-0.283-0.092-0.574-0.188-0.858-0.271-0.825-0.243-1.883-0.421-2.732-0.562-0.201-0.034-0.392-0.066-0.566-0.097s-0.288-0.079-0.325-0.144c-0.063-0.103 0.024-0.328 0.121-0.588 0.13-0.348 0.308-0.826 0.301-1.41 0-0.244-0.092-0.519-0.178-0.785-0.101-0.313-0.205-0.636-0.121-0.789 0.077-0.139 0.422-0.156 0.725-0.156h0.141c0.222 0 0.414 0.004 0.547-0.033 0.407-0.113 0.929-0.433 1.113-0.867 0.056-0.136 0.086-0.434 0.125-0.875 0.023-0.257 0.046-0.523 0.076-0.661 0.016-0.073 0.065-0.131 0.13-0.159l0.001-0.001c0.103-0.048 0.424-0.119 1.164 0.255 0.699 0.353 1.43 1.615 2.137 2.836 0.223 0.384 0.433 0.746 0.644 1.085 0.877 1.409 1.177 1.975 1.094 2.8zM24.153 30.989c-0.085 0.265-0.182 0.49-0.296 0.704l0.011-0.023c-0.006 0.013-0.018 0.022-0.033 0.022-0.020 0-0.036-0.016-0.036-0.036 0-0.004 0.001-0.008 0.002-0.012l-0 0c0.087-0.291 0.136-0.626 0.136-0.973 0-0.063-0.002-0.126-0.005-0.188l0 0.009c-0.016-0.296-0.025-0.474-0.166-0.532s-0.266 0.052-0.591 0.346c-0.069 0.063-0.147 0.134-0.236 0.212-0.675 0.592-1.68 1.293-3.476 1.461-1.053 0.099-1.724-0.289-1.933-0.509-0.025-0.026-0.060-0.043-0.098-0.043-0.036 0-0.069 0.014-0.094 0.038l0-0c-0.024 0.025-0.040 0.059-0.040 0.097 0 0.016 0.003 0.032 0.008 0.047l-0-0.001c0.133 0.427 0.075 0.766-0.031 1.012-0.059 0.138-0.116 0.128-0.125-0.021-0.016-0.29-0.063-0.617-0.188-0.887-0.194-0.434-0.437-0.896-0.556-1.117v-0.003c0.203-0.093 0.554-0.302 0.711-0.68s0.28-1.125-0.614-1.984c-0.392-0.378-1.381-1.073-2.254-1.688-0.681-0.478-1.386-0.973-1.478-1.094-0.281-0.368-0.398-0.581-0.434-1.228 0.004-0.144 0.008-0.287 0.012-0.431l0.017-0.156c0.002-0.018 0.018-0.031 0.036-0.031s0.034 0.014 0.036 0.031l0 0c0.029 0.231 0.073 0.436 0.132 0.635l-0.007-0.028c0.068 0.233 0.15 0.474 0.226 0.574 0.199 0.264 0.473 0.462 0.729 0.531 0.034 0.012 0.072 0.019 0.113 0.019 0.075 0 0.144-0.024 0.201-0.065l-0.001 0.001c0.183-0.146 0.166-0.475 0.137-1.021-0.029-0.563-0.069-1.334 0.116-2.159 0.351-1.563 0.682-2.032 1.101-2.625 0.054-0.076 0.109-0.154 0.166-0.237 0.090-0.13 0.188-0.256 0.292-0.389 0.467-0.601 0.996-1.281 0.87-2.559-0.032-0.324-0.048-0.552-0.054-0.712-0-0.002-0.001-0.005-0.001-0.008 0-0.035 0.028-0.063 0.063-0.063 0.024 0 0.045 0.014 0.055 0.034l0 0 0.031 0.048 0.076 0.125c0.304 0.5 0.852 1.411 1.569 1.411 0.052-0 0.103-0.005 0.153-0.014l-0.005 0.001c1.462-0.246 3.244-1.891 3.261-1.907 0.195-0.188 0.177-0.384 0.102-0.494-0.059-0.084-0.156-0.138-0.265-0.138-0.050 0-0.097 0.011-0.14 0.032l0.002-0.001c-0.206 0.088-0.446 0.197-0.701 0.313-0.864 0.392-2.313 1.047-2.641 0.896-0.154-0.086-0.284-0.193-0.393-0.319l-0.002-0.002c-0.016-0.011-0.027-0.030-0.027-0.052 0-0.035 0.028-0.063 0.063-0.063 0.013 0 0.026 0.004 0.036 0.011l-0-0c0.349 0.143 0.597 0.091 0.887-0.005l0.063-0.021c0.586-0.193 0.887-0.298 1.922-0.755 0.285-0.138 0.623-0.265 0.973-0.361l0.043-0.010c0.25-0.063 0.401-0.102 0.482-0.271 0.032-0.057 0.050-0.126 0.050-0.198 0-0.093-0.031-0.179-0.082-0.248l0.001 0.001c-0.096-0.117-0.254-0.161-0.438-0.119-0.201 0.047-0.294 0.188-0.401 0.281-0.15 0.128-0.313 0.26-1.074 0.541-1.688 0.625-2.161 0.663-2.826 0.214-0.615-0.418-0.947-0.827-0.947-1 0-0.133 0.341-0.356 0.544-0.49 0.083-0.054 0.162-0.106 0.226-0.154 0.271-0.201 0.813-0.712 0.836-0.733 0.337-0.338 1.119-0.136 1.563 0.161 0.023 0.017 0.052 0.028 0.083 0.028 0.009 0 0.017-0.001 0.025-0.002l-0.001 0c0.062-0.012 0.108-0.066 0.108-0.131 0-0.011-0.001-0.021-0.004-0.031l0 0.001c-0.263-1.091-0.008-1.709 0.25-2.034 0.259-0.322 0.651-0.527 1.092-0.53h0.001c0.801 0 1.36 0.625 1.36 1.526 0 0.688-0.176 1.049-0.343 1.269-0.020 0.026-0.051 0.042-0.086 0.042-0.029 0-0.056-0.012-0.076-0.031l0 0c-0.020-0.020-0.032-0.048-0.032-0.078 0-0.022 0.006-0.043 0.017-0.060l-0 0c0.132-0.222 0.209-0.489 0.209-0.775 0-0.003 0-0.005-0-0.007v0c0-0.002 0-0.004 0-0.006 0-0.572-0.464-1.036-1.036-1.036-0.006 0-0.011 0-0.017 0h0.001c-0.246 0-0.843 0.094-1.048 0.965-0.028 0.121-0.044 0.26-0.044 0.402 0 0.102 0.008 0.203 0.024 0.3l-0.001-0.011 0.005 0.044c0.056 0.461 0.956 0.782 1.702 0.969 0.71 0.178 0.813 0.389 0.553 1.227s0.194 1.639 0.356 1.848c0.187 0.228 0.359 0.483 0.507 0.754l0.013 0.026c0.155 0.291 0.295 0.633 0.403 0.988l0.011 0.042c0.136 0.424 0.253 0.791 0.664 1.326 0.692 0.9 1.104 3.040 0.938 4.875-0.013 0.151-0.033 0.268-0.048 0.354-0.027 0.158-0.045 0.262 0.041 0.336s0.198 0.044 0.454-0.039l0.214-0.068c0.211-0.064 0.476-0.125 0.746-0.17l0.040-0.005c0.044-0.007 0.080-0.034 0.099-0.072l0-0.001c0.214-0.432 0.241-0.951 0.25-1.404q0-0.082 0.004-0.174c0.012-0.486 0.028-1.183-0.184-2-0.002-0.006-0.003-0.013-0.003-0.020 0-0.035 0.028-0.064 0.064-0.064 0.028 0 0.052 0.018 0.060 0.043l0 0c0.201 0.465 0.348 1.005 0.414 1.57l0.003 0.027c0.159 1.411-0.119 2.006-0.121 2.011-0.007 0.013-0.011 0.028-0.011 0.045 0 0.045 0.029 0.082 0.069 0.096l0.001 0c0.172 0.063 0.318 0.163 0.434 0.291l0.001 0.001c0.091 0.104 0.058 0.15-0.071 0.101-0.235-0.091-0.508-0.143-0.793-0.143-0.002 0-0.004 0-0.006 0h0c-0.65 0-1.131 0.309-1.344 0.574-0.199 0.246-0.231 0.479-0.239 0.704l-0.004 0.003c-0.468-0.047-0.809 0.076-1.092 0.388l-0.005 0.006c-0.391 0.484-0.25 1.539-0.081 2.405v0c0.080 0.403 0.349 1.595 0.108 2.355zM30.159 31.618c-0.982 0.419-1.589 0.907-2.125 1.337-0.353 0.283-0.688 0.551-1.080 0.759-0.633 0.334-1.557 0.408-2.079-0.481-0.148-0.25-0.044-0.616 0.099-1.122 0.191-0.672 0.452-1.591 0.232-2.791-0.059-0.32-0.111-0.594-0.156-0.832-0.175-0.926-0.244-1.274-0.175-1.551 0.039-0.153 0.214-0.188 0.367-0.188 0.058 0.001 0.115 0.005 0.171 0.013l-0.007-0.001c0.088 0.296 0.239 0.549 0.438 0.757l-0.001-0.001c0.356 0.366 0.852 0.552 1.473 0.553 0.131 0.011 1.621 0.097 2.284-1.4v0c0.091 0.011 0.228 0.044 0.269 0.144 0.080 0.199-0.017 0.557-0.095 0.844-0.056 0.207-0.105 0.385-0.102 0.523 0.019 1 0.688 1.424 1.614 2.010 0.112 0.071 0.229 0.144 0.347 0.221s0.179 0.149 0.179 0.212c-0.032 0.299-1.25 0.823-1.653 0.994z"></path>
</svg>
