<!-- Generated by IcoMoon.io -->
<svg version="1.1" xmlns="http://www.w3.org/2000/svg" width="40" height="40" viewBox="0 0 40 40">
<title>io-library-sharp</title>
<path fill="#91908d" d="M9.25 34h-3.5c-0.414 0-0.75-0.336-0.75-0.75v0-23.5c0-0.414 0.336-0.75 0.75-0.75v0h3.5c0.414 0 0.75 0.336 0.75 0.75v0 23.5c0 0.414-0.336 0.75-0.75 0.75v0z"></path>
<path fill="#91908d" d="M19 17v-3.25c0-0.414-0.336-0.75-0.75-0.75v0h-6.5c-0.414 0-0.75 0.336-0.75 0.75v0 3.25z"></path>
<path fill="#91908d" d="M11 30v3.25c0 0.414 0.336 0.75 0.75 0.75v0h6.5c0.414 0 0.75-0.336 0.75-0.75v0-3.25z"></path>
<path fill="#91908d" d="M11 19h8v9h-8v-9z"></path>
<path fill="#91908d" d="M25.25 34h-4.5c-0.414 0-0.75-0.336-0.75-0.75v0-26.5c0-0.414 0.336-0.75 0.75-0.75v0h4.5c0.414 0 0.75 0.336 0.75 0.75v0 26.5c0 0.414-0.336 0.75-0.75 0.75v0z"></path>
<path fill="#91908d" d="M27.063 10.294l1.875 22.989c0.033 0.387 0.355 0.688 0.747 0.688 0.033 0 0.065-0.002 0.097-0.006l-0.004 0 4.51-0.563c0.372-0.048 0.657-0.363 0.657-0.744 0-0.022-0.001-0.043-0.003-0.065l0 0.003-1.88-22.896c-0.033-0.387-0.355-0.688-0.747-0.688-0.027 0-0.054 0.001-0.081 0.004l0.003-0-4.508 0.469c-0.378 0.042-0.669 0.36-0.669 0.746 0 0.022 0.001 0.043 0.003 0.065l-0-0.003z"></path>
</svg>
