<!-- Generated by IcoMoon.io -->
<svg version="1.1" xmlns="http://www.w3.org/2000/svg" width="40" height="40" viewBox="0 0 40 40">
<title>io-logo-nodejs</title>
<path fill="#91908d" d="M30.86 12.129l-9.714-5.826c-0.329-0.191-0.724-0.304-1.145-0.304s-0.816 0.113-1.156 0.309l0.011-0.006-9.715 5.826c-0.688 0.427-1.14 1.179-1.14 2.036 0 0.004 0 0.009 0 0.013v-0.001 11.636c-0 0.004-0 0.008-0 0.012 0 0.858 0.452 1.61 1.13 2.032l0.010 0.006 2.562 1.529c1.286 0.658 1.779 0.658 2.349 0.658 2.009 0 3.257-1.3 3.257-3.393v-11.282c0-0.001 0-0.003 0-0.004 0-0.292-0.235-0.529-0.526-0.532h-1.399c-0.291 0.003-0.526 0.24-0.526 0.532 0 0.002 0 0.003 0 0.005v-0 11.282c0 0.009 0 0.019 0 0.030 0 0.329-0.169 0.618-0.425 0.785l-0.004 0.002c-0.369 0.225-0.904 0.177-1.509-0.134l-2.441-1.469c-0.018-0.013-0.030-0.033-0.030-0.057 0-0 0-0.001 0-0.001v0-11.471c0.001-0.028 0.015-0.052 0.037-0.066l0-0 9.49-5.813c0.007-0.003 0.014-0.005 0.023-0.005s0.016 0.002 0.023 0.006l-0-0 9.496 5.813c0.021 0.015 0.034 0.040 0.034 0.068 0 0 0 0.001 0 0.001v-0 11.469c0 0 0 0.001 0 0.002 0 0.024-0.011 0.046-0.028 0.061l-0 0-9.504 5.666c-0.007 0.003-0.016 0.004-0.025 0.004s-0.018-0.002-0.026-0.004l0.001 0-2.427-1.441c-0.075-0.050-0.168-0.079-0.267-0.079-0.081 0-0.158 0.020-0.225 0.055l0.003-0.001-0.021 0.013c-0.67 0.397-0.85 0.5-1.471 0.726-0.101 0.037-0.339 0.125-0.36 0.361s0.206 0.403 0.407 0.52l3.244 1.992c0.327 0.199 0.721 0.316 1.144 0.317h0.036c0.412-0.007 0.796-0.124 1.124-0.322l-0.010 0.006 9.714-5.821c0.689-0.429 1.14-1.183 1.14-2.042 0-0.004 0-0.007-0-0.011v0.001-11.636c0-0.003 0-0.007 0-0.011 0-0.857-0.452-1.609-1.13-2.030l-0.010-0.006z"></path>
<path fill="#91908d" d="M23.242 23.878c-2.331 0-2.828-0.651-2.975-1.703-0.035-0.257-0.251-0.453-0.513-0.457h-1.238c-0.286 0.006-0.516 0.24-0.516 0.527 0 0.003 0 0.006 0 0.009v-0c0 0.911 0.32 3.886 5.245 3.886v0c1.524 0 2.791-0.356 3.664-1.031s1.341-1.656 1.341-2.825c0-2.347-1.531-2.989-4.547-3.409-3.066-0.426-3.066-0.643-3.066-1.118 0-0.342 0-1.142 2.216-1.142 1.577 0 2.421 0.199 2.691 1.25 0.050 0.237 0.256 0.413 0.503 0.417h1.242c0.154-0.002 0.291-0.070 0.384-0.178l0.001-0.001c0.083-0.097 0.134-0.224 0.134-0.362 0-0.014-0.001-0.028-0.002-0.042l0 0.002c-0.161-2.222-1.785-3.349-4.953-3.349-2.879 0-4.597 1.297-4.597 3.469 0 2.381 1.781 3.054 4.456 3.333 3.125 0.323 3.125 0.794 3.125 1.211 0.002 0.649-0.267 1.514-2.597 1.514z"></path>
</svg>
