<!-- Generated by IcoMoon.io -->
<svg version="1.1" xmlns="http://www.w3.org/2000/svg" width="40" height="40" viewBox="0 0 40 40">
<title>io-logo-buffer</title>
<path fill="#91908d" d="M6.496 13.328l12.337 5.957c0.321 0.153 0.75 0.233 1.174 0.233s0.853-0.080 1.174-0.233l12.337-5.957c0.649-0.313 0.649-0.824 0-1.138l-12.337-5.957c-0.321-0.153-0.75-0.233-1.174-0.233s-0.853 0.080-1.174 0.233l-12.337 5.957c-0.649 0.314-0.649 0.824 0 1.138z"></path>
<path fill="#91908d" d="M33.519 19.431s-2.253-1.086-2.552-1.232-0.379-0.138-0.693 0.008-9.1 4.389-9.1 4.389c-0.334 0.148-0.723 0.234-1.132 0.234-0.014 0-0.029-0-0.043-0l0.002 0c-0.423 0-0.853-0.081-1.174-0.234 0 0-8.553-4.125-8.954-4.324-0.434-0.209-0.559-0.209-0.955-0.022l-2.438 1.174c-0.649 0.313-0.649 0.824 0 1.137l12.339 5.958c0.321 0.153 0.75 0.233 1.174 0.233s0.853-0.080 1.174-0.233l12.337-5.956c0.663-0.307 0.663-0.817 0.014-1.131z"></path>
<path fill="#91908d" d="M33.519 26.672s-2.253-1.086-2.552-1.234-0.379-0.138-0.693 0.008-9.093 4.399-9.093 4.399c-0.334 0.148-0.722 0.233-1.131 0.233-0.015 0-0.030-0-0.045-0l0.002 0c-0.423 0-0.853-0.080-1.174-0.233 0 0-8.553-4.125-8.954-4.324-0.438-0.212-0.563-0.212-0.956-0.022l-2.437 1.174c-0.649 0.313-0.649 0.824 0 1.137l12.337 5.957c0.321 0.16 0.75 0.233 1.174 0.233s0.853-0.080 1.174-0.233l12.34-5.954c0.656-0.317 0.656-0.827 0.008-1.141z"></path>
</svg>
