<!-- Generated by IcoMoon.io -->
<svg version="1.1" xmlns="http://www.w3.org/2000/svg" width="40" height="40" viewBox="0 0 40 40">
<title>io-logo-usd</title>
<path fill="#91908d" d="M19 34v-2.276c-4.967-0.286-7.984-2.845-8-6.724h4.5c0.111 1.646 1.491 2.903 3.5 3.125v-6.125l-1.673-0.438c-3.813-0.886-5.853-3.087-5.853-6.38 0-3.882 2.781-6.428 7.526-6.807v-2.375h2v2.375c4.837 0.394 7.438 2.984 7.5 6.625h-4.5c-0.047-1.504-0.989-2.712-3-2.875v5.75l1.926 0.455c4.049 0.886 6.074 2.983 6.074 6.42 0 4.021-2.734 6.617-8 6.957v2.293zM19 17.5v-5.375c-1.724 0.095-2.954 1.154-2.954 2.658 0 1.394 1.024 2.305 2.954 2.717zM21 22.375v5.75c2.384-0.096 3.524-1.183 3.524-2.861 0-1.536-1.139-2.571-3.524-2.889z"></path>
</svg>
