<!-- Generated by IcoMoon.io -->
<svg version="1.1" xmlns="http://www.w3.org/2000/svg" width="40" height="40" viewBox="0 0 40 40">
<title>io-logo-paypal</title>
<path fill="#91908d" d="M30.551 13.299c-0.027 0.173-0.058 0.349-0.093 0.53-1.198 6.125-5.297 8.238-10.534 8.238h-2.666c-0.001 0-0.002 0-0.003 0-0.643 0-1.176 0.469-1.275 1.084l-0.001 0.007-1.365 8.615-0.386 2.442c-0.005 0.032-0.008 0.068-0.008 0.105 0 0.338 0.247 0.619 0.571 0.67l0.004 0.001c0.031 0.005 0.067 0.008 0.104 0.008 0.001 0 0.002 0 0.002 0h4.728c0.001 0 0.002 0 0.003 0 0.563 0 1.031-0.41 1.121-0.948l0.001-0.007 0.046-0.239 0.89-5.625 0.057-0.309c0.089-0.545 0.557-0.956 1.121-0.956 0.001 0 0.003 0 0.004 0h0.707c4.581 0 8.167-1.851 9.215-7.207 0.438-2.238 0.211-4.106-0.947-5.42-0.363-0.398-0.792-0.729-1.27-0.977l-0.025-0.012z"></path>
<path fill="#91908d" d="M28.095 7.193c-1.355-1.536-3.801-2.193-6.931-2.193h-9.086c-0.001 0-0.002 0-0.003 0-0.644 0-1.179 0.47-1.28 1.085l-0.001 0.008-3.784 23.875c-0.006 0.036-0.009 0.078-0.009 0.121 0 0.387 0.284 0.709 0.654 0.767l0.004 0.001c0.036 0.006 0.078 0.009 0.121 0.009 0 0 0 0 0 0h5.61l1.409-8.893-0.044 0.279c0.101-0.622 0.634-1.091 1.276-1.091 0.001 0 0.002 0 0.003 0h2.665c5.236 0 9.335-2.116 10.534-8.238 0.036-0.181 0.066-0.357 0.093-0.53v0c0.356-2.264-0.003-3.804-1.232-5.199z"></path>
</svg>
