<!-- Generated by IcoMoon.io -->
<svg version="1.1" xmlns="http://www.w3.org/2000/svg" width="40" height="40" viewBox="0 0 40 40">
<title>io-logo-skype</title>
<path fill="#91908d" d="M33.197 22.975c0.195-0.838 0.306-1.801 0.306-2.789 0-0.011 0-0.023-0-0.034v0.002c0-7.27-5.981-13.169-13.362-13.169-0.003 0-0.006 0-0.010 0-0.803 0-1.589 0.068-2.355 0.199l0.082-0.012c-1.161-0.735-2.575-1.172-4.090-1.172-0.008 0-0.017 0-0.025 0h0.001c-4.274 0-7.746 3.42-7.746 7.634-0 0.007-0 0.016-0 0.025 0 1.418 0.395 2.744 1.081 3.874l-0.019-0.033c-0.171 0.795-0.269 1.709-0.27 2.646v0.001c0 7.277 5.981 13.169 13.354 13.169 0.010 0 0.022 0 0.034 0 0.852 0 1.685-0.080 2.492-0.232l-0.083 0.013c1.059 0.569 2.317 0.903 3.653 0.903 0.004 0 0.008 0 0.012 0h-0.001c4.281 0 7.746-3.42 7.746-7.634 0-0.013 0-0.029 0-0.045 0-1.221-0.297-2.373-0.822-3.387l0.019 0.041zM27 26.438c-0.62 0.86-1.532 1.546-2.713 2.027s-2.577 0.723-4.181 0.723c-1.918 0-3.523-0.336-4.784-0.992-0.889-0.474-1.627-1.123-2.19-1.906l-0.013-0.019c-0.569-0.802-0.854-1.604-0.854-2.375 0-0.481 0.188-0.897 0.554-1.247 0.365-0.336 0.839-0.511 1.393-0.511 0.459 0 0.853 0.131 1.174 0.401 0.306 0.255 0.569 0.634 0.78 1.13 0.223 0.512 0.481 0.952 0.783 1.358l-0.013-0.018q0.395 0.514 1.116 0.853c0.489 0.226 1.137 0.343 1.938 0.343 1.101 0 2.006-0.233 2.684-0.692 0.671-0.445 0.992-0.984 0.992-1.641 0-0.518-0.168-0.926-0.518-1.247-0.364-0.336-0.839-0.598-1.429-0.773-0.606-0.188-1.429-0.386-2.451-0.598-1.386-0.292-2.563-0.642-3.5-1.036-0.955-0.401-1.728-0.963-2.298-1.655-0.576-0.708-0.861-1.597-0.861-2.64-0-0.013-0-0.028-0-0.043 0-0.992 0.341-1.905 0.911-2.627l-0.007 0.009c0.598-0.766 1.466-1.364 2.597-1.772 1.109-0.408 2.429-0.612 3.916-0.612 1.196 0 2.239 0.139 3.114 0.401s1.619 0.634 2.21 1.086 1.021 0.933 1.298 1.438 0.416 1.014 0.416 1.5c0 0.466-0.182 0.897-0.547 1.269-0.338 0.351-0.811 0.569-1.336 0.569-0.012 0-0.025-0-0.037-0l0.002 0c-0.496 0-0.883-0.117-1.152-0.35-0.25-0.219-0.511-0.554-0.795-1.043-0.336-0.619-0.737-1.116-1.196-1.466-0.453-0.335-1.196-0.51-2.232-0.51-0.956 0-1.736 0.188-2.313 0.563-0.554 0.357-0.824 0.773-0.824 1.261-0 0.008-0 0.018-0 0.028 0 0.282 0.102 0.54 0.272 0.739l-0.001-0.002c0.217 0.249 0.482 0.451 0.781 0.592l0.014 0.006c0.305 0.157 0.661 0.297 1.032 0.399l0.040 0.009c0.375 0.103 0.992 0.256 1.846 0.445 1.086 0.226 2.078 0.489 2.954 0.758 0.89 0.284 1.656 0.625 2.283 1.028 0.625 0.398 1.133 0.926 1.498 1.547l0.012 0.021c0.358 0.625 0.54 1.414 0.54 2.319 0.002 0.053 0.003 0.114 0.003 0.176 0 1.044-0.341 2.009-0.918 2.789l0.009-0.013z"></path>
</svg>
