<!-- Generated by IcoMoon.io -->
<svg version="1.1" xmlns="http://www.w3.org/2000/svg" width="40" height="40" viewBox="0 0 40 40">
<title>io-logo-no-smoking</title>
<path fill="#91908d" d="M26.5 20h1v3h-1v-3z"></path>
<path fill="#91908d" d="M11 23h8.1l-3-3h-5.1v3z"></path>
<path fill="#91908d" d="M26.781 7.756c-0.024-0.013-0.045-0.025-0.064-0.039l0.002 0.001c-0.604-0.332-1.315-0.645-2.054-0.897l-0.096-0.028-0.337-0.112c-1.262-0.424-2.716-0.673-4.227-0.681l-0.004-0c-7.731 0-14 6.269-14 14 0 0.001 0 0.002 0 0.004 0 5.237 2.88 9.802 7.142 12.198l0.070 0.036c0.025 0.013 0.044 0.031 0.069 0.044 0.604 0.332 1.315 0.645 2.054 0.897l0.096 0.028 0.338 0.112c1.262 0.425 2.716 0.673 4.227 0.681h0.004c7.731 0 14-6.269 14-14 0-0.001 0-0.003 0-0.005 0-5.241-2.882-9.808-7.148-12.203l-0.070-0.036zM20 30.65c-0.602-0.002-1.19-0.057-1.761-0.159l0.061 0.009c-0.68-0.114-1.279-0.273-1.855-0.479l0.074 0.023c-0.119-0.038-0.238-0.075-0.35-0.119-0.473-0.179-0.864-0.36-1.241-0.564l0.054 0.027c-3.377-1.83-5.631-5.347-5.631-9.391 0-0.001 0-0.002 0-0.003v0c0-2.325 0.775-4.462 2.044-6.212l14.825 14.825c-1.756 1.269-3.894 2.044-6.219 2.044zM28.613 26.212l-14.825-14.825c1.75-1.262 3.881-2.037 6.212-2.037 0.602 0.002 1.19 0.057 1.762 0.159l-0.062-0.009c0.68 0.114 1.279 0.273 1.855 0.479l-0.074-0.023c0.113 0.037 0.231 0.075 0.35 0.119 0.451 0.171 0.822 0.342 1.179 0.533l-0.054-0.027c3.415 1.817 5.7 5.354 5.7 9.424 0 0 0 0.001 0 0.001v-0c-0.006 2.325-0.781 4.456-2.044 6.206z"></path>
<path fill="#91908d" d="M26 20h-2.125l2.125 2.125v-2.125z"></path>
<path fill="#91908d" d="M28 20h1v3h-1v-3z"></path>
<path fill="#91908d" d="M26.506 17.294c-0.55-0.256-1.375-0.356-2.85-0.356h-0.225c-0.794 0.006-0.994-0.006-1.25-0.381-0.175-0.263-0.063-0.925 0.231-1.369 0.053-0.078 0.084-0.174 0.084-0.277 0-0.086-0.022-0.167-0.060-0.238l0.001 0.003c-0.087-0.157-0.249-0.263-0.437-0.269l-0.001-0c-0.416-0.015-0.807-0.103-1.166-0.252l0.022 0.008c-0.663-0.281-0.975-0.756-0.975-1.444 0-1.612 1.363-1.731 1.425-1.731v-1c-0.75 0-2.425 0.688-2.425 2.731 0 1.094 0.563 1.938 1.606 2.375 0.212 0.089 0.463 0.167 0.723 0.22l0.027 0.005c-0.206 0.613-0.225 1.306 0.106 1.794 0.563 0.831 1.269 0.825 2.081 0.819h0.219c1.644 0 2.163 0.144 2.431 0.269 0.356 0.163 0.425 0.469 0.412 0.981v0.063h1v-0.063c0-0.444 0.019-1.425-0.981-1.887z"></path>
<path fill="#91908d" d="M29 19.25c0-1.606-0.188-2.45-0.569-3.1-0.538-0.9-1.4-1.4-2.431-1.4h-1.087c0.181-0.519 0.337-1.237 0.219-1.931-0.2-1.175-1.194-1.875-2.694-1.875v1c1.313 0 1.631 0.569 1.712 1.044 0.156 0.906-0.425 2.006-0.431 2.019-0.039 0.070-0.062 0.153-0.062 0.241 0 0.093 0.025 0.18 0.070 0.255l-0.001-0.002c0.090 0.147 0.249 0.244 0.431 0.244h1.844c0.681 0 1.212 0.306 1.569 0.913 0.194 0.331 0.431 0.844 0.431 2.587h1z"></path>
</svg>
