<!-- Generated by IcoMoon.io -->
<svg version="1.1" xmlns="http://www.w3.org/2000/svg" width="40" height="40" viewBox="0 0 40 40">
<title>io-logo-soundcloud</title>
<path fill="#91908d" d="M4.363 21.375c-0.068 0.004-0.121 0.057-0.125 0.125v0l-0.237 1.79 0.234 1.76c0.004 0.068 0.059 0.123 0.128 0.125h0c0.067-0.004 0.121-0.058 0.125-0.125l0-0 0.277-1.761-0.275-1.789c-0.004-0.067-0.058-0.121-0.125-0.125l-0-0z"></path>
<path fill="#91908d" d="M5.678 20.395c0-0.074-0.060-0.133-0.133-0.133s-0.133 0.060-0.133 0.133v0l-0.313 2.895 0.313 2.831c0 0.074 0.060 0.133 0.133 0.133s0.133-0.060 0.133-0.133v0l0.358-2.832-0.358-2.895z"></path>
<path fill="#91908d" d="M10.636 17.724c-0.132 0.004-0.238 0.11-0.242 0.241v0l-0.25 5.326 0.25 3.443c0.007 0.129 0.113 0.23 0.242 0.23s0.235-0.102 0.242-0.23l0-0.001 0.283-3.443-0.283-5.326c-0.004-0.132-0.11-0.238-0.242-0.242h-0z"></path>
<path fill="#91908d" d="M8.070 19.576c-0.102 0.003-0.184 0.085-0.188 0.187v0l-0.283 3.528 0.282 3.414c0 0.104 0.084 0.187 0.188 0.187s0.188-0.084 0.188-0.187v0l0.321-3.414-0.321-3.53c-0.004-0.101-0.086-0.182-0.187-0.186h-0z"></path>
<path fill="#91908d" d="M13.242 26.975c0.163-0.003 0.294-0.134 0.297-0.296v-0l0.246-3.384-0.246-7.091c0-0.164-0.133-0.297-0.297-0.297s-0.297 0.133-0.297 0.297v0l-0.218 7.091 0.218 3.386c0.003 0.163 0.134 0.294 0.297 0.296h0z"></path>
<path fill="#91908d" d="M18.58 26.991c0.223-0.003 0.403-0.184 0.406-0.407v-0l0.171-3.288-0.171-8.188c0-0.224-0.182-0.406-0.406-0.406s-0.406 0.182-0.406 0.406v0l-0.153 8.188c0 0.005 0.153 3.292 0.153 3.292 0.005 0.222 0.184 0.4 0.406 0.403h0z"></path>
<path fill="#91908d" d="M15.891 26.978c0.194-0.002 0.35-0.159 0.351-0.352v-0l0.209-3.333-0.209-7.143c0-0.004 0-0.010 0-0.015 0-0.194-0.158-0.352-0.352-0.352s-0.352 0.158-0.352 0.352c0 0.005 0 0.010 0 0.016l-0-0.001-0.188 7.143 0.188 3.332c0.002 0.193 0.159 0.349 0.352 0.35h0z"></path>
<path fill="#91908d" d="M9.348 26.947c0.117-0.003 0.211-0.096 0.215-0.213v-0l0.302-3.443-0.302-3.275c0-0.119-0.096-0.215-0.215-0.215s-0.215 0.096-0.215 0.215v0l-0.266 3.274 0.266 3.443c0.002 0.118 0.097 0.213 0.215 0.215h0z"></path>
<path fill="#91908d" d="M6.803 26.758c0.086-0.003 0.156-0.071 0.161-0.157l0-0 0.339-3.312-0.339-3.438c0-0.089-0.072-0.161-0.161-0.161s-0.161 0.072-0.161 0.161v0l-0.299 3.438 0.299 3.312c0.003 0.087 0.073 0.156 0.16 0.158h0z"></path>
<path fill="#91908d" d="M17.231 16.033c-0.21 0.001-0.379 0.171-0.379 0.381v0l-0.169 6.882 0.169 3.312c0.009 0.203 0.175 0.364 0.379 0.364s0.371-0.161 0.379-0.363l0-0.001 0.188-3.312-0.188-6.883c-0.001-0.209-0.17-0.378-0.379-0.379h-0z"></path>
<path fill="#91908d" d="M11.938 26.982c0.147-0.003 0.266-0.122 0.269-0.268v-0l0.264-3.419-0.268-6.544c-0.007-0.143-0.125-0.257-0.27-0.257s-0.263 0.114-0.27 0.256l-0 0.001-0.234 6.544 0.234 3.421c0.004 0.148 0.124 0.267 0.272 0.267h0z"></path>
<path fill="#91908d" d="M14.886 26.659v0l0.227-3.363-0.227-7.33c0-0.004 0-0.009 0-0.014 0-0.179-0.145-0.324-0.324-0.324s-0.324 0.145-0.324 0.324c0 0.005 0 0.010 0 0.015l-0-0.001-0.202 7.33 0.202 3.364c0 0.179 0.145 0.324 0.324 0.324s0.324-0.145 0.324-0.324v0z"></path>
<path fill="#91908d" d="M32.063 19.069c-0.002 0-0.004 0-0.005 0-0.547 0-1.068 0.113-1.541 0.316l0.025-0.010c-0.313-3.574-3.288-6.375-6.916-6.375-0.906 0.002-1.771 0.176-2.565 0.49l0.047-0.017c-0.297 0.116-0.375 0.235-0.379 0.466v12.585c0.004 0.243 0.187 0.441 0.423 0.469l0.002 0c0.010 0 10.84 0.007 10.91 0.007 2.174 0 3.938-1.776 3.938-3.966s-1.763-3.966-3.938-3.966z"></path>
<path fill="#91908d" d="M19.924 13.929c-0.24 0.002-0.434 0.197-0.434 0.437 0 0 0 0 0 0v0l-0.178 8.93 0.178 3.242c-0 0.004-0 0.009-0 0.014 0 0.24 0.194 0.434 0.434 0.434s0.434-0.194 0.434-0.434c0-0.006-0-0.013-0-0.019l0 0.001v0.004l0.193-3.242-0.193-8.933c-0.002-0.239-0.194-0.432-0.433-0.434h-0z"></path>
</svg>
