<!-- Generated by IcoMoon.io -->
<svg version="1.1" xmlns="http://www.w3.org/2000/svg" width="40" height="40" viewBox="0 0 40 40">
<title>io-logo-electron</title>
<path fill="#91908d" d="M9.422 19.938c0.112-0 0.217-0.030 0.307-0.082l-0.003 0.002c0.186-0.108 0.31-0.306 0.31-0.533 0-0.113-0.030-0.218-0.083-0.309l0.002 0.003c-1.029-1.785-1.113-3.258-0.466-4.375 0.891-1.536 3.351-2.103 6.579-1.518 0.033 0.006 0.071 0.010 0.11 0.010 0.301 0 0.551-0.215 0.605-0.5l0.001-0.004c0.006-0.033 0.010-0.071 0.010-0.11 0-0.301-0.216-0.551-0.502-0.605l-0.004-0.001c-1.824-0.33-3.5-0.324-4.837 0.019-1.394 0.357-2.438 1.080-3.028 2.092-0.875 1.512-0.794 3.421 0.464 5.601 0.108 0.186 0.307 0.309 0.534 0.309 0 0 0.001 0 0.001 0h-0z"></path>
<path fill="#91908d" d="M26.601 12.983c2.015 0.026 3.288 0.582 3.924 1.679 0.888 1.53 0.158 3.926-1.954 6.408-0.091 0.106-0.146 0.245-0.146 0.398 0 0.339 0.275 0.614 0.614 0.614 0.001 0 0.001 0 0.002 0h-0c0 0 0 0 0.001 0 0.187 0 0.355-0.084 0.469-0.215l0.001-0.001c1.195-1.404 2.022-2.846 2.391-4.169 0.384-1.375 0.277-2.638-0.313-3.649-0.863-1.486-2.508-2.259-4.974-2.292h-0.009c-0.001 0-0.002 0-0.004 0-0.339 0-0.614 0.275-0.614 0.614 0 0.338 0.273 0.612 0.61 0.614h0z"></path>
<path fill="#91908d" d="M24.404 29.931c-0.090-0.055-0.199-0.087-0.316-0.087-0.222 0-0.417 0.118-0.526 0.294l-0.002 0.003c-1.026 1.697-2.286 2.631-3.548 2.631-1.781 0-3.5-1.832-4.608-4.901-0.089-0.239-0.315-0.406-0.58-0.406-0.074 0-0.146 0.013-0.211 0.037l0.004-0.001c-0.241 0.087-0.411 0.313-0.411 0.58 0 0.074 0.013 0.145 0.037 0.211l-0.001-0.004c0.625 1.736 1.467 3.172 2.438 4.154 1.007 1.021 2.159 1.563 3.332 1.563 1.711 0 3.346-1.146 4.603-3.226 0.055-0.090 0.088-0.2 0.088-0.317 0-0.223-0.119-0.418-0.297-0.525l-0.003-0.002z"></path>
<path fill="#91908d" d="M30.981 25.159c-0.003-0-0.007-0-0.010-0-1.109 0-2.009 0.899-2.009 2.009 0 0.275 0.055 0.537 0.155 0.775l-0.005-0.013c-2.613 1.219-7.487 0.299-11.992-2.289-2.057-1.181-3.885-2.616-5.287-4.149-0.113-0.123-0.275-0.2-0.455-0.2-0.16 0-0.305 0.060-0.415 0.16l0.001-0c-0.124 0.113-0.202 0.274-0.202 0.455 0 0.16 0.061 0.306 0.162 0.415l-0-0c1.487 1.625 3.418 3.142 5.583 4.386 2.517 1.446 5.142 2.414 7.589 2.801 0.655 0.112 1.412 0.178 2.184 0.182h0.004c1.445 0 2.688-0.269 3.657-0.799 0.299 0.185 0.661 0.295 1.049 0.295 1.111 0 2.012-0.901 2.012-2.012s-0.901-2.012-2.012-2.012c-0.002 0-0.004 0-0.006 0h0zM30.981 27.95c0 0-0 0-0 0-0.185 0-0.356-0.064-0.49-0.171l0.002 0.001c-0.039-0.053-0.084-0.099-0.136-0.137l-0.002-0.001c-0.102-0.131-0.163-0.299-0.163-0.48 0-0.435 0.353-0.788 0.788-0.788s0.788 0.353 0.788 0.788c0 0.435-0.353 0.788-0.788 0.788-0 0-0 0-0 0v0z"></path>
<path fill="#91908d" d="M9.131 25.162c0.036-1.329 0.776-2.938 2.105-4.573 1.449-1.778 3.543-3.5 5.896-4.853 2.078-1.194 4.075-1.994 6.129-2.432 0.285-0.057 0.497-0.305 0.497-0.603 0-0.339-0.275-0.614-0.614-0.614-0.050 0-0.098 0.006-0.144 0.017l0.004-0.001c-2.178 0.464-4.299 1.313-6.487 2.568-5.261 3.022-8.773 7.446-8.613 10.822-0.549 0.367-0.906 0.984-0.906 1.685 0 1.116 0.904 2.020 2.020 2.020s2.020-0.904 2.020-2.020c0-1.076-0.841-1.955-1.902-2.017l-0.005-0zM9.019 27.95c-0.429-0.003-0.776-0.352-0.776-0.781 0-0.431 0.35-0.781 0.781-0.781s0.781 0.35 0.781 0.781v0c-0.002 0.432-0.353 0.781-0.785 0.781-0.001 0-0.001 0-0.002 0h0z"></path>
<path fill="#91908d" d="M20.013 10.020c0.002 0 0.003 0 0.005 0 0.682 0 1.284-0.339 1.649-0.857l0.004-0.006c1.118 0.731 2.125 2.188 2.863 4.133 0.812 2.149 1.24 4.711 1.24 7.409 0 2.324-0.324 4.522-0.938 6.475-0.018 0.055-0.029 0.119-0.029 0.185 0 0.104 0.026 0.201 0.072 0.286l-0.002-0.003c0.076 0.144 0.204 0.252 0.358 0.301l0.004 0.001c0.055 0.017 0.117 0.028 0.182 0.028 0.274 0 0.507-0.179 0.588-0.426l0.001-0.004c0.651-2.071 0.996-4.396 0.996-6.843 0-2.948-0.486-5.736-1.404-8.063-0.901-2.28-2.133-3.9-3.571-4.698-0.035-1.087-0.925-1.956-2.018-1.956-1.115 0-2.019 0.904-2.019 2.019s0.903 2.018 2.018 2.019h0zM20.013 7.229c0.429 0.003 0.776 0.352 0.776 0.781 0 0.431-0.35 0.781-0.781 0.781s-0.781-0.35-0.781-0.781v0c0.002-0.432 0.353-0.781 0.785-0.781 0.001 0 0.001 0 0.002 0h-0z"></path>
<path fill="#91908d" d="M19.688 19.21v0c-0.693 0.152-1.203 0.761-1.203 1.488 0 0.841 0.681 1.522 1.522 1.522 0.001 0 0.003 0 0.004 0h-0c0.114-0 0.226-0.013 0.333-0.036l-0.010 0.002c0.701-0.146 1.22-0.758 1.22-1.492 0-0.841-0.682-1.522-1.523-1.522-0.121 0-0.24 0.014-0.353 0.041l0.010-0.002z"></path>
</svg>
