<!-- Generated by IcoMoon.io -->
<svg version="1.1" xmlns="http://www.w3.org/2000/svg" width="40" height="40" viewBox="0 0 40 40">
<title>io-logo-alipay</title>
<path fill="#91908d" d="M10.401 6c-2.502 0-4.401 2.008-4.401 4.486v19.028c0 2.477 2.024 4.486 4.526 4.486h18.95c2.5 0 4.524-2.009 4.524-4.486v-0.194c-0.084-0.035-7.217-3.036-10.906-4.794-2.489 3.036-5.699 4.875-9.031 4.875-5.636 0-7.55-4.889-4.881-8.108 0.582-0.701 1.572-1.371 3.108-1.75 2.403-0.585 6.227 0.366 9.812 1.538 0.615-1.101 1.156-2.379 1.556-3.718l0.035-0.137h-11.047v-1.102h5.696v-1.989h-6.899v-1.109h6.899v-2.839s0-0.478 0.489-0.478h2.784v3.313h6.823v1.109h-6.822v1.994h5.568c-0.552 2.236-1.361 4.202-2.415 6.009l0.057-0.107c1.688 0.606 3.082 1.18 4.212 1.556 3.77 1.25 4.827 1.403 4.963 1.419v-14.515c0-2.479-2.025-4.486-4.524-4.486h-19.075zM13.5 21.171q-0.363 0.004-0.729 0.039c-0.706 0.071-2.031 0.379-2.756 1.014-2.171 1.875-0.871 5.308 3.523 5.308 2.554 0 5.107-1.619 7.112-4.211-2.585-1.25-4.812-2.178-7.15-2.151z"></path>
</svg>
