<!-- Generated by IcoMoon.io -->
<svg version="1.1" xmlns="http://www.w3.org/2000/svg" width="40" height="40" viewBox="0 0 40 40">
<title>io-logo-behance</title>
<path fill="#91908d" d="M25.506 18.6c-1.806 0-2.056 1.8-2.056 1.8h3.837s0.025-1.8-1.781-1.8z"></path>
<path fill="#91908d" d="M16.8 20.4h-3.4v3.125h3.231c0.487-0.012 1.4-0.15 1.4-1.519 0-1.625-1.231-1.606-1.231-1.606z"></path>
<path fill="#91908d" d="M20 6c-7.731 0-14 6.269-14 14s6.269 14 14 14 14-6.269 14-14-6.269-14-14-14zM22.95 14.6h4.819v1.438h-4.819v-1.438zM20.512 22.15c0 3.563-3.712 3.45-3.712 3.45h-6.075v-11.687h6.075c1.85 0 3.306 1.019 3.306 3.113s-1.781 2.225-1.781 2.225c2.35 0 2.188 2.9 2.188 2.9zM29.525 21.956h-6.056c0 2.169 2.056 2.031 2.056 2.031 1.944 0 1.875-1.256 1.875-1.256h2.056c0 3.338-4 3.106-4 3.106-4.794 0-4.488-4.469-4.488-4.469s-0.006-4.488 4.488-4.488c4.731 0.006 4.069 5.075 4.069 5.075z"></path>
<path fill="#91908d" d="M17.625 17.206c0-1.213-0.825-1.213-0.825-1.213h-3.4v2.606h3.188c0.55 0 1.038-0.181 1.038-1.394z"></path>
</svg>
