<!-- Generated by IcoMoon.io -->
<svg version="1.1" xmlns="http://www.w3.org/2000/svg" width="40" height="40" viewBox="0 0 40 40">
<title>io-logo-bitbucket</title>
<path fill="#91908d" d="M34.196 6.014c-0.047-0.008-0.101-0.013-0.157-0.014l-0.002-0h-28.062c-0.537-0.008-0.967 0.43-0.974 0.984-0 0.009-0.001 0.019-0.001 0.029 0 0.052 0.005 0.102 0.016 0.15l-0.001-0.005 4.081 25.703c0.054 0.323 0.212 0.602 0.436 0.808l0.001 0.001c0.221 0.203 0.517 0.328 0.842 0.328h19.574c0 0 0.001 0 0.001 0 0.489 0 0.892-0.363 0.957-0.834l0.001-0.005 2.43-15.494h-9.013l-1.154 7h-6.345l-1.608-9.25h18.474l1.297-8.25c0.079-0.547-0.274-1.065-0.793-1.152z"></path>
</svg>
