<!-- Generated by IcoMoon.io -->
<svg version="1.1" xmlns="http://www.w3.org/2000/svg" width="40" height="40" viewBox="0 0 40 40">
<title>io-mic-off-circle</title>
<path fill="#91908d" d="M20 7c-7.168 0-13 5.832-13 13s5.832 13 13 13 13-5.832 13-13-5.832-13-13-13zM20 12v0c1.655 0.005 2.995 1.345 3 3v4c-0 0.17-0.014 0.337-0.042 0.499l0.002-0.018c-0.010 0.059-0.062 0.104-0.123 0.104-0.037 0-0.070-0.016-0.093-0.041l-0-0-5.276-5.804c-0.041-0.044-0.066-0.104-0.066-0.169 0-0.048 0.013-0.093 0.037-0.131l-0.001 0.001c0.536-0.869 1.481-1.44 2.561-1.442h0zM22 28h-3.972c-0.538 0-1-0.414-1.027-0.952-0.001-0.014-0.001-0.031-0.001-0.048 0-0.552 0.448-1 1-1h1v-1.109c-1.19-0.219-2.233-0.735-3.084-1.468l0.008 0.007c-1.241-1.066-1.924-2.456-1.924-3.916v-1.514c0-0.002-0-0.004-0-0.006 0-0.549 0.445-0.994 0.994-0.994 0.011 0 0.021 0 0.032 0.001l-0.002-0c0.544 0.022 0.976 0.468 0.976 1.015 0 0.003-0 0.007-0 0.010v-0.001 1.489c0 1.604 1.75 3.468 4 3.468 0.104 0 0.211-0.006 0.316-0.015 0.007-0.001 0.015-0.001 0.022-0.001 0.073 0 0.138 0.031 0.183 0.081l0 0 1.317 1.449c0.020 0.022 0.033 0.052 0.033 0.084 0 0.056-0.037 0.103-0.087 0.119l-0.001 0c-0.212 0.070-0.475 0.136-0.745 0.185l-0.038 0.006v1.109h0.972c0.538 0 1 0.414 1.027 0.952 0.001 0.014 0.001 0.031 0.001 0.048 0 0.552-0.448 1-1 1v0zM17.132 19.318l2.279 2.507c0.011 0.011 0.017 0.026 0.017 0.043 0 0.035-0.028 0.063-0.063 0.063-0.005 0-0.010-0.001-0.014-0.002l0 0c-1.231-0.285-2.163-1.295-2.326-2.547l-0.002-0.015c-0-0.002-0-0.004-0-0.006 0-0.035 0.028-0.063 0.063-0.063 0.018 0 0.035 0.008 0.047 0.021l0 0zM26.672 26.803c-0.177 0.161-0.413 0.26-0.672 0.26-0.293 0-0.556-0.126-0.739-0.327l-0.001-0.001-12-13.125c-0.156-0.176-0.252-0.409-0.252-0.664 0-0.552 0.448-1 1-1 0.289 0 0.549 0.122 0.731 0.318l0.001 0.001 12 13.125c0.161 0.177 0.26 0.413 0.26 0.672 0 0.293-0.126 0.556-0.327 0.739l-0.001 0.001zM26 19.514c-0.004 0.948-0.282 1.83-0.757 2.574l0.012-0.019c-0.022 0.036-0.062 0.060-0.107 0.060-0.037 0-0.070-0.016-0.093-0.041l-0-0-1.199-1.319c-0.040-0.044-0.065-0.103-0.065-0.168 0-0.033 0.006-0.065 0.018-0.094l-0.001 0.002c0.121-0.294 0.191-0.636 0.192-0.994v-1.488c-0-0.003-0-0.006-0-0.010 0-0.504 0.366-0.922 0.847-1.004l0.006-0.001c0.617-0.093 1.148 0.407 1.148 1.008z"></path>
</svg>
