<!-- Generated by IcoMoon.io -->
<svg version="1.1" xmlns="http://www.w3.org/2000/svg" width="40" height="40" viewBox="0 0 40 40">
<title>io-medical-outline</title>
<path fill="none" stroke-linejoin="round" stroke-linecap="round" stroke-miterlimit="4" stroke-width="2.5" stroke="#91908d" d="M30.871 14.892l-1.029-1.787c-0.17-0.292-0.482-0.485-0.839-0.485-0.178 0-0.344 0.048-0.487 0.131l0.005-0.002-6.149 3.563c-0.036 0.021-0.079 0.034-0.125 0.034-0.138 0-0.25-0.112-0.25-0.25 0-0.001 0-0.002 0-0.002v0l0.005-7.092c0-0.552-0.448-1-1-1v0h-2c-0.552 0-1 0.448-1 1v0l0.004 7.098c0 0.001 0 0.001 0 0.002 0 0.138-0.112 0.25-0.25 0.25-0.046 0-0.089-0.012-0.126-0.034l0.001 0.001-6.149-3.563c-0.139-0.081-0.305-0.129-0.483-0.129-0.357 0-0.669 0.193-0.837 0.481l-0.002 0.005-1.029 1.787c-0.081 0.138-0.129 0.305-0.129 0.482 0 0.356 0.193 0.667 0.48 0.834l0.005 0.002 6.156 3.568c0.074 0.044 0.124 0.124 0.124 0.216s-0.049 0.171-0.122 0.215l-0.001 0.001-6.156 3.567c-0.29 0.171-0.482 0.483-0.482 0.839 0 0.176 0.047 0.342 0.129 0.484l-0.002-0.005 1.029 1.787c0.17 0.292 0.482 0.485 0.839 0.485 0.178 0 0.344-0.048 0.487-0.131l-0.005 0.002 6.149-3.563c0.036-0.021 0.079-0.034 0.125-0.034 0.138 0 0.25 0.112 0.25 0.25 0 0.001 0 0.002 0 0.002v-0l-0.005 7.099c0 0.552 0.448 1 1 1v0h2c0.552 0 1-0.448 1-1v0l-0.004-7.104c0-0.001 0-0.001 0-0.002 0-0.138 0.112-0.25 0.25-0.25 0.046 0 0.089 0.012 0.126 0.034l-0.001-0.001 6.149 3.563c0.139 0.081 0.305 0.129 0.483 0.129 0.357 0 0.669-0.193 0.837-0.481l0.002-0.005 1.029-1.787c0.081-0.138 0.129-0.305 0.129-0.482 0-0.356-0.193-0.667-0.48-0.834l-0.005-0.002-6.156-3.567c-0.074-0.044-0.124-0.124-0.124-0.216s0.049-0.171 0.122-0.215l0.001-0.001 6.156-3.567c0.291-0.171 0.483-0.482 0.483-0.838 0-0.177-0.047-0.343-0.13-0.486l0.002 0.005z"></path>
</svg>
