<!-- Generated by IcoMoon.io -->
<svg version="1.1" xmlns="http://www.w3.org/2000/svg" width="40" height="40" viewBox="0 0 40 40">
<title>io-mail-unread</title>
<path fill="#91908d" d="M35 12.003c0-0.002 0-0.004 0-0.006 0-2.209-1.791-4-4-4-1.018 0-1.947 0.38-2.653 1.006l0.004-0.004c-0.309 0.273-0.572 0.588-0.784 0.938l-0.010 0.018v0.004c-0.034 0.056-0.066 0.114-0.097 0.171l-0.015 0.031c-0.026 0.049-0.051 0.099-0.074 0.15-0.008 0.016-0.014 0.031-0.021 0.047-0.021 0.046-0.041 0.092-0.059 0.139-0.008 0.019-0.016 0.039-0.023 0.058-0.017 0.044-0.033 0.088-0.049 0.132l-0.023 0.066c-0.014 0.043-0.027 0.086-0.039 0.129-0.008 0.024-0.014 0.048-0.021 0.072-0.012 0.042-0.022 0.084-0.032 0.125-0.006 0.026-0.012 0.051-0.018 0.077-0.009 0.043-0.017 0.086-0.024 0.125-0.005 0.026-0.010 0.053-0.014 0.079-0.007 0.044-0.012 0.088-0.018 0.133-0.003 0.026-0.007 0.051-0.010 0.077-0.005 0.048-0.008 0.096-0.012 0.145 0 0.023-0.004 0.045-0.005 0.068-0.004 0.071-0.006 0.143-0.006 0.215v0c0 0.063 0 0.125 0.005 0.184v0.040q0.005 0.088 0.013 0.176l0.004 0.030c0.006 0.053 0.012 0.106 0.020 0.158 0 0.011 0 0.022 0.004 0.032 0.009 0.057 0.019 0.113 0.031 0.169 0 0.014 0.006 0.027 0.008 0.041 0.011 0.054 0.024 0.108 0.038 0.161 0 0.004 0 0.008 0 0.012 0.014 0.056 0.030 0.11 0.047 0.164l0.013 0.043c0.017 0.053 0.034 0.105 0.053 0.157 0.004 0.011 0.008 0.023 0.012 0.034 0.017 0.044 0.034 0.089 0.053 0.133 0.005 0.013 0.010 0.026 0.016 0.038 0.021 0.049 0.043 0.099 0.066 0.148l0.021 0.042c0.022 0.044 0.044 0.087 0.067 0.131 0.334 0.613 0.802 1.115 1.368 1.479l0.016 0.010c0.134 0.087 0.29 0.174 0.452 0.249l0.024 0.010 0.024 0.011q0.166 0.075 0.339 0.135l0.059 0.020 0.094 0.029c0.028 0.009 0.056 0.016 0.085 0.024l0.12 0.031 0.108 0.025 0.072 0.014 0.114 0.021 0.059 0.009c0.056 0.008 0.113 0.016 0.17 0.022l0.048 0.004c0.046 0.004 0.092 0.008 0.138 0.010l0.054 0.003c0.063 0 0.121 0.005 0.183 0.005v0c0.072 0 0.144 0 0.215-0.006l0.067-0.005c0.049-0.004 0.097-0.007 0.145-0.012l0.078-0.010c0.044-0.006 0.088-0.011 0.132-0.018l0.079-0.014c0.043-0.008 0.086-0.016 0.125-0.024l0.077-0.018c0.042-0.010 0.085-0.020 0.125-0.032 0.024-0.006 0.048-0.013 0.073-0.021 0.043-0.012 0.086-0.026 0.129-0.039l0.066-0.023c0.044-0.016 0.088-0.032 0.132-0.049l0.058-0.023c0.047-0.019 0.093-0.039 0.139-0.059l0.047-0.021c0.051-0.024 0.101-0.048 0.15-0.074l0.031-0.015c0.057-0.031 0.115-0.063 0.171-0.097h0.004c0.371-0.221 0.689-0.483 0.962-0.787l0.003-0.004c0.621-0.7 1-1.626 1-2.641 0-0.002 0-0.003 0-0.005v0z"></path>
<path fill="#91908d" d="M27.211 16.658l-6.598 5.131c-0.168 0.131-0.381 0.211-0.614 0.211s-0.446-0.079-0.616-0.212l0.002 0.002-9-7c-0.242-0.184-0.397-0.473-0.397-0.798 0-0.552 0.448-1 1-1 0.237 0 0.455 0.083 0.627 0.221l-0.002-0.001 8.386 6.523 5.889-4.58c-0.562-0.895-0.895-1.984-0.895-3.15 0-1.106 0.3-2.142 0.822-3.031l-0.015 0.028h-16.301c-1.932 0.002-3.498 1.568-3.5 3.5v15c0.002 1.932 1.568 3.498 3.5 3.5h21c1.932-0.002 3.498-1.568 3.5-3.5v-10.301c-0.861 0.507-1.897 0.807-3.003 0.807-1.441 0-2.763-0.509-3.797-1.356l0.011 0.008z"></path>
</svg>
