<!-- Generated by IcoMoon.io -->
<svg version="1.1" xmlns="http://www.w3.org/2000/svg" width="40" height="40" viewBox="0 0 40 40">
<title>io-mail-open</title>
<path fill="#91908d" d="M32.042 13.653l-10.911-5.391c-0.33-0.166-0.719-0.263-1.131-0.263s-0.801 0.097-1.146 0.269l0.015-0.007-10.911 5.391c-1.168 0.576-1.958 1.759-1.958 3.126 0 0.001 0 0.003 0 0.004v-0 11.538c0 1.93 1.589 3.5 3.542 3.5h20.916c1.953 0 3.542-1.57 3.542-3.5v-11.538c0-0.001 0-0.002 0-0.004 0-1.367-0.79-2.55-1.938-3.117l-0.020-0.009zM19.774 10.051c0.066-0.033 0.144-0.052 0.226-0.052s0.16 0.019 0.229 0.054l-0.003-0.001 10.586 5.229-10.75 5.313c-0.066 0.033-0.144 0.053-0.226 0.053s-0.16-0.019-0.229-0.054l0.003 0.001-10.588-5.229z"></path>
</svg>
