<!-- Generated by IcoMoon.io -->
<svg version="1.1" xmlns="http://www.w3.org/2000/svg" width="40" height="40" viewBox="0 0 40 40">
<title>io-megaphone-sharp</title>
<path fill="#91908d" d="M12 13v20.75c0 0.138 0.112 0.25 0.25 0.25v0h6.254c0 0 0 0 0 0 0.276 0 0.5-0.224 0.5-0.5 0-0.038-0.004-0.074-0.012-0.11l0.001 0.003-1.949-7.394h1.456c0.276 0 0.5-0.224 0.5-0.5v0-12.5z"></path>
<path fill="#91908d" d="M32.261 15.659l-0.261-0.066v-9.344c0-0.138-0.112-0.25-0.25-0.25v0h-2.656c-0.063 0-0.121 0.024-0.165 0.063l-7.929 6.937v10l7.929 6.938c0.044 0.039 0.101 0.062 0.164 0.063h2.656c0.138 0 0.25-0.112 0.25-0.25v0-9.344l0.261-0.066c0.601-0.163 1.739-0.861 1.739-2.341s-1.137-2.177-1.739-2.341z"></path>
<path fill="#91908d" d="M10 13h-2.75c-0.138 0-0.25 0.112-0.25 0.25v0 2.224c-0.095 0.085-0.182 0.174-0.262 0.268l-0.003 0.004c-0.335 0.399-0.735 1.112-0.735 2.254 0 1.262 0.493 2.071 1 2.526v2.224c0 0.138 0.112 0.25 0.25 0.25v0h2.75z"></path>
</svg>
