<!-- Generated by IcoMoon.io -->
<svg version="1.1" xmlns="http://www.w3.org/2000/svg" width="40" height="40" viewBox="0 0 40 40">
<title>io-musical-notes-sharp</title>
<path fill="#91908d" d="M30.841 6.004c-1.475 0.408-12.847 3.676-15.659 4.464-0.106 0.030-0.182 0.126-0.183 0.239v15.438c0 0 0 0 0 0 0 0.054-0.034 0.1-0.082 0.118l-0.001 0-1.741 0.597c-1.187 0.465-4.176 1.042-4.176 3.699 0 2.221 1.539 3.221 2.866 3.392 0.144 0.027 0.312 0.045 0.484 0.050l0.004 0c0.461 0 2.274-0.442 3.331-1.13 1.314-0.857 1.314-0.873 1.314-3.123v-13.125c0-0.056 0.039-0.053 0.093-0.067l11.75-3.245c0.010-0.003 0.021-0.004 0.033-0.004 0.069 0 0.125 0.056 0.125 0.125 0 0.002-0 0.003-0 0.005v-0 9.721c-0 0.055-0.035 0.101-0.084 0.118l-0.001 0c-0.556 0.188-1.202 0.406-1.655 0.57-1.924 0.695-4.261 1.131-4.261 3.653 0 2.407 1.766 3.411 2.894 3.489 0.124 0.010 0.267 0.016 0.413 0.016 0.325 0 0.644-0.028 0.953-0.083l-0.033 0.005c0.563-0.086 1.506-0.369 2.384-0.929 1.389-0.886 1.389-0.904 1.389-3.498v-20.375c0-0 0-0 0-0 0-0.069-0.056-0.125-0.125-0.125-0.012 0-0.024 0.002-0.035 0.005l0.001-0z"></path>
</svg>
