<!-- Generated by IcoMoon.io -->
<svg version="1.1" xmlns="http://www.w3.org/2000/svg" width="40" height="40" viewBox="0 0 40 40">
<title>io-mic-off-circle-outline</title>
<path fill="#91908d" d="M20 33c-7.168 0-13-5.832-13-13s5.832-13 13-13 13 5.832 13 13-5.832 13-13 13zM20 9c-6.063 0-11 4.938-11 11s4.937 11 11 11 11-4.934 11-11-4.934-11-11-11z"></path>
<path fill="#91908d" d="M26 27.063c-0.001 0-0.001 0-0.002 0-0.292 0-0.555-0.126-0.737-0.327l-0.001-0.001-12-13.125c-0.156-0.176-0.252-0.409-0.252-0.664 0-0.552 0.448-1 1-1 0.289 0 0.549 0.122 0.731 0.318l0.001 0.001 12 13.125c0.161 0.177 0.26 0.413 0.26 0.672 0 0.552-0.448 1-1 1v0z"></path>
<path fill="#91908d" d="M26 19.514v-1.488c0-0.003 0-0.006 0-0.010 0-0.504-0.366-0.922-0.847-1.004l-0.006-0.001c-0.617-0.092-1.148 0.407-1.148 1.008v1.495c-0.001 0.358-0.071 0.7-0.198 1.012l0.007-0.018c-0.011 0.027-0.017 0.059-0.017 0.092 0 0.065 0.025 0.124 0.065 0.168l-0-0 1.199 1.319c0.023 0.025 0.056 0.041 0.093 0.041 0.045 0 0.084-0.024 0.106-0.059l0-0.001c0.464-0.724 0.741-1.606 0.746-2.553v-0.001z"></path>
<path fill="#91908d" d="M23 19v-4c-0.005-1.655-1.345-2.995-3-3h-0c-1.080 0.002-2.027 0.574-2.555 1.431l-0.007 0.013c-0.023 0.037-0.036 0.082-0.036 0.129 0 0.065 0.025 0.124 0.066 0.169l-0-0 5.276 5.804c0.023 0.026 0.056 0.041 0.093 0.041 0.062 0 0.113-0.045 0.123-0.103l0-0.001c0.025-0.145 0.040-0.312 0.041-0.483v-0z"></path>
<path fill="#91908d" d="M19.411 21.825l-2.279-2.507c-0.011-0.013-0.028-0.021-0.047-0.021-0.035 0-0.063 0.028-0.063 0.063 0 0.003 0 0.006 0.001 0.009l-0-0c0.165 1.267 1.097 2.278 2.308 2.559l0.020 0.004c0.005 0.001 0.011 0.002 0.016 0.002 0.035 0 0.063-0.028 0.063-0.063 0-0.018-0.007-0.034-0.019-0.045l-0-0z"></path>
<path fill="#91908d" d="M21.972 26h-0.972v-1.109c0.308-0.055 0.571-0.121 0.828-0.204l-0.044 0.012c0.052-0.016 0.088-0.064 0.088-0.119 0-0.032-0.012-0.062-0.033-0.084l0 0-1.317-1.449c-0.045-0.050-0.111-0.082-0.183-0.082-0.008 0-0.016 0-0.023 0.001l0.001-0c-0.106 0.009-0.212 0.015-0.316 0.015-2.25 0-4-1.864-4-3.468v-1.489c0-0.003 0-0.006 0-0.010 0-0.547-0.432-0.993-0.974-1.015l-0.002-0c-0.009-0-0.019-0-0.030-0-0.549 0-0.994 0.445-0.994 0.994 0 0.002 0 0.004 0 0.006v-0 1.514c0 1.46 0.684 2.851 1.924 3.916 0.842 0.726 1.886 1.242 3.036 1.455l0.040 0.006v1.109h-0.972c-0.538 0-1 0.414-1.027 0.952-0.001 0.014-0.001 0.031-0.001 0.048 0 0.552 0.448 1 1 1h4c0 0 0.001 0 0.001 0 0.552 0 1-0.448 1-1 0-0.017-0-0.034-0.001-0.050l0 0.002c-0.026-0.538-0.49-0.952-1.028-0.952z"></path>
</svg>
