<!-- Generated by IcoMoon.io -->
<svg version="1.1" xmlns="http://www.w3.org/2000/svg" width="40" height="40" viewBox="0 0 40 40">
<title>io-notifications-off-outline</title>
<path fill="none" stroke-linejoin="round" stroke-linecap="round" stroke-miterlimit="4" stroke-width="2.5" stroke="#91908d" d="M12.032 16.787q-0.023 0.384-0.023 0.797c0 5.416-1.134 6.416-2.738 8.38-0.665 0.814-0.083 2.036 1.081 2.036h13.649"></path>
<path fill="none" stroke-linejoin="round" stroke-linecap="round" stroke-miterlimit="4" stroke-width="2.5" stroke="#91908d" d="M29.906 24.956c-1.155-1.466-1.914-2.941-1.914-7.375 0-4.956-2.533-6.723-4.617-7.581-0.277-0.114-0.537-0.375-0.622-0.659-0.365-1.244-1.389-2.341-2.753-2.341s-2.387 1.097-2.75 2.342c-0.084 0.287-0.345 0.544-0.625 0.658-0.445 0.182-0.814 0.366-1.169 0.573l0.044-0.024"></path>
<path fill="none" stroke-linejoin="round" stroke-linecap="round" stroke-miterlimit="4" stroke-width="2.5" stroke="#91908d" d="M24 28v1c0 2.209-1.791 4-4 4s-4-1.791-4-4v0-1"></path>
<path fill="none" stroke-linejoin="miter" stroke-linecap="round" stroke-miterlimit="10" stroke-width="2.5" stroke="#91908d" d="M32 32l-24-24"></path>
</svg>
