<!-- Generated by IcoMoon.io -->
<svg version="1.1" xmlns="http://www.w3.org/2000/svg" width="40" height="40" viewBox="0 0 40 40">
<title>io-newspaper</title>
<path fill="#91908d" d="M31.494 11h-1.489c-0.003 0-0.006 0.003-0.006 0.006v0 18.994c0 1.105 0.895 2 2 2v0 0c1.105 0 2-0.895 2-2v0-16.494c0-1.384-1.122-2.506-2.506-2.506v0z"></path>
<path fill="#91908d" d="M28 30v-21.5c0-1.381-1.119-2.5-2.5-2.5v0h-17c-1.381 0-2.5 1.119-2.5 2.5v0 22c0 1.933 1.567 3.5 3.5 3.5v0h21.428c0 0 0 0 0.001 0 0.039 0 0.071-0.032 0.071-0.071 0-0 0-0 0-0.001v0c-0-0.033-0.022-0.060-0.053-0.069l-0.001-0c-1.711-0.481-2.945-2.026-2.947-3.859v-0zM10 12c0-0.552 0.448-1 1-1v0h4c0.552 0 1 0.448 1 1v0 4c0 0.552-0.448 1-1 1v0h-4c-0.552 0-1-0.448-1-1v0zM23 29h-11.972c-0.538 0-1-0.414-1.027-0.952-0.001-0.014-0.001-0.031-0.001-0.048 0-0.552 0.448-1 1-1h11.972c0.538 0 1 0.414 1.027 0.952 0.001 0.014 0.001 0.031 0.001 0.048 0 0.552-0.448 1-1 1v0zM23 25h-11.972c-0.538 0-1-0.414-1.027-0.952-0.001-0.014-0.001-0.031-0.001-0.048 0-0.552 0.448-1 1-1h11.972c0.538 0 1 0.414 1.027 0.952 0.001 0.014 0.001 0.031 0.001 0.048 0 0.552-0.448 1-1 1v0zM23 21h-11.972c-0.538 0-1-0.414-1.027-0.952-0.001-0.014-0.001-0.031-0.001-0.048 0-0.552 0.448-1 1-1h11.972c0.538 0 1 0.414 1.027 0.952 0.001 0.014 0.001 0.031 0.001 0.048 0 0.552-0.448 1-1 1v0zM23 17h-3.972c-0.538 0-1-0.414-1.027-0.952-0.001-0.014-0.001-0.031-0.001-0.048 0-0.552 0.448-1 1-1h3.972c0.538 0 1 0.414 1.027 0.952 0.001 0.014 0.001 0.031 0.001 0.048 0 0.552-0.448 1-1 1v0zM23 13h-3.972c-0.538 0-1-0.414-1.027-0.952-0.001-0.014-0.001-0.031-0.001-0.048 0-0.552 0.448-1 1-1h3.972c0.538 0 1 0.414 1.027 0.952 0.001 0.014 0.001 0.031 0.001 0.048 0 0.552-0.448 1-1 1v0z"></path>
</svg>
