<!-- Generated by IcoMoon.io -->
<svg version="1.1" xmlns="http://www.w3.org/2000/svg" width="40" height="40" viewBox="0 0 40 40">
<title>io-people</title>
<path fill="#91908d" d="M25 20c-1.285 0-2.527-0.574-3.5-1.615-0.946-1.016-1.523-2.37-1.625-3.813-0.109-1.539 0.361-2.954 1.321-3.985s2.304-1.587 3.804-1.587c1.489 0 2.836 0.566 3.794 1.595 0.967 1.039 1.438 2.451 1.329 3.977v0c-0.104 1.444-0.681 2.798-1.625 3.812-0.97 1.042-2.212 1.616-3.498 1.616zM29.125 14.5v0z"></path>
<path fill="#91908d" d="M33.239 31h-16.478c-0.003 0-0.006 0-0.009 0-0.553 0-1.046-0.259-1.363-0.663l-0.003-0.004c-0.242-0.314-0.387-0.713-0.387-1.146 0-0.166 0.021-0.326 0.061-0.479l-0.003 0.013c0.526-2.113 1.83-3.866 3.77-5.067 1.722-1.066 3.914-1.654 6.172-1.654 2.303 0 4.438 0.563 6.169 1.628 1.944 1.196 3.25 2.958 3.774 5.097 0.036 0.138 0.057 0.297 0.057 0.461 0 0.435-0.147 0.835-0.393 1.154l0.003-0.004c-0.32 0.406-0.811 0.664-1.362 0.664-0.003 0-0.006 0-0.009-0h0z"></path>
<path fill="#91908d" d="M13.188 20.25c-2.199 0-4.133-2.045-4.313-4.558-0.089-1.287 0.313-2.478 1.125-3.351 0.804-0.864 1.938-1.341 3.188-1.341s2.375 0.479 3.183 1.348c0.819 0.88 1.219 2.068 1.125 3.345-0.179 2.512-2.112 4.557-4.308 4.557z"></path>
<path fill="#91908d" d="M17.291 22.216c-1.099-0.538-2.526-0.806-4.103-0.806-1.841 0-3.629 0.48-5.036 1.351-1.594 0.989-2.667 2.43-3.1 4.169-0.033 0.126-0.052 0.271-0.052 0.42 0 0.393 0.132 0.755 0.355 1.044l-0.003-0.004c0.292 0.373 0.743 0.61 1.248 0.61 0.003 0 0.005 0 0.008-0h6.937c0.245-0 0.448-0.176 0.491-0.408l0-0.003c0.007-0.039 0.016-0.079 0.026-0.117 0.53-2.129 1.772-3.928 3.607-5.239 0.126-0.092 0.208-0.239 0.208-0.406 0-0.183-0.098-0.343-0.245-0.43l-0.002-0.001c-0.098-0.058-0.211-0.118-0.339-0.181z"></path>
</svg>
