<!-- Generated by IcoMoon.io -->
<svg version="1.1" xmlns="http://www.w3.org/2000/svg" width="40" height="40" viewBox="0 0 40 40">
<title>io-pin-outline</title>
<path fill="none" stroke-linejoin="round" stroke-linecap="round" stroke-miterlimit="4" stroke-width="2.5" stroke="#91908d" d="M24 10c0 2.209-1.791 4-4 4s-4-1.791-4-4c0-2.209 1.791-4 4-4s4 1.791 4 4z"></path>
<path fill="#91908d" d="M21 14.25c0-0.311-0.252-0.562-0.563-0.562v0h-0.875c-0.311 0-0.563 0.252-0.563 0.562v0 18.348c0 0.279 0.057 0.545 0.161 0.787l-0.005-0.013 0.629 1.5c0.042 0.077 0.123 0.128 0.215 0.128s0.173-0.051 0.214-0.126l0.001-0.001 0.629-1.5c0.098-0.228 0.156-0.494 0.156-0.774v-0z"></path>
<path fill="#91908d" d="M23 8.5c0 0.828-0.672 1.5-1.5 1.5s-1.5-0.672-1.5-1.5c0-0.828 0.672-1.5 1.5-1.5s1.5 0.672 1.5 1.5z"></path>
</svg>
