<!-- Generated by IcoMoon.io -->
<svg version="1.1" xmlns="http://www.w3.org/2000/svg" width="40" height="40" viewBox="0 0 40 40">
<title>io-pizza-outline</title>
<path fill="none" stroke-linejoin="miter" stroke-linecap="butt" stroke-miterlimit="10" stroke-width="2.5" stroke="#91908d" d="M29.297 11.692c-2.899-1.181-5.942-1.693-9.297-1.693s-6.631 0.563-9.306 1.668c-0.505 0.206-0.954 0.562-0.629 1.219 0.263 0.533 6.623 14.551 9.039 19.551 0.165 0.336 0.505 0.564 0.898 0.564s0.733-0.227 0.895-0.558l0.003-0.006 9.003-19.514c0.199-0.431 0.056-0.963-0.604-1.231z"></path>
<path fill="none" stroke-linejoin="miter" stroke-linecap="butt" stroke-miterlimit="10" stroke-width="2.5" stroke="#91908d" d="M31.274 9.168c-3.254-1.288-7.263-2.168-11.274-2.168s-7.959 0.799-11.282 2.13c-0.293 0.12-0.843 0.397-0.692 0.863l0.605 1.508c0.25 0.512 0.542 0.512 0.941 0.512 0.112 0 0.268-0.063 0.455-0.136 2.957-1.183 6.384-1.871 9.971-1.876h0.002c3.547 0 7.182 0.75 9.975 1.875 0.224 0.088 0.349 0.136 0.455 0.136 0.411 0 0.649 0.137 0.938-0.506l0.611-1.505c0.126-0.375-0.312-0.676-0.704-0.832z"></path>
<path fill="#91908d" d="M18 16c0 1.105-0.895 2-2 2s-2-0.895-2-2c0-1.105 0.895-2 2-2s2 0.895 2 2z"></path>
<path fill="#91908d" d="M26 17c0 1.105-0.895 2-2 2s-2-0.895-2-2c0-1.105 0.895-2 2-2s2 0.895 2 2z"></path>
<path fill="#91908d" d="M22 24c0 1.105-0.895 2-2 2s-2-0.895-2-2c0-1.105 0.895-2 2-2s2 0.895 2 2z"></path>
</svg>
