<!-- Generated by IcoMoon.io -->
<svg version="1.1" xmlns="http://www.w3.org/2000/svg" width="40" height="40" viewBox="0 0 40 40">
<title>io-pencil-sharp</title>
<path fill="#91908d" d="M10.438 33h-3.438v-3.438l19.384-19.432 3.486 3.486-19.432 19.383z"></path>
<path fill="#91908d" d="M30.608 12.875l-3.483-3.482 1.979-1.916c0.306-0.308 0.774-0.476 1.209-0.476 0.001 0 0.003 0 0.004 0 0.448 0 0.854 0.182 1.147 0.476l1.063 1.063c0.293 0.293 0.474 0.697 0.474 1.144 0 0.002 0 0.004 0 0.006v-0c0 0.438-0.169 0.903-0.476 1.21zM30.137 8.448v0z"></path>
</svg>
