<!-- Generated by IcoMoon.io -->
<svg version="1.1" xmlns="http://www.w3.org/2000/svg" width="40" height="40" viewBox="0 0 40 40">
<title>io-pizza-sharp</title>
<path fill="#91908d" d="M31.644 8.239v0c-3.649-1.444-7.782-2.239-11.644-2.239-3.973 0-8.113 0.782-11.66 2.203-1.266 0.514-1.715 0.797-1.715 0.797l1.375 2.75 2.346-1.009c2.878-1.146 6.104-1.741 9.686-1.741 3.593 0 6.756 0.577 9.672 1.766v0l2.296 0.984 1.375-2.75s-0.438-0.25-1.731-0.761z"></path>
<path fill="#91908d" d="M29.604 12.803c-2.844-1.146-6.344-1.803-9.604-1.803-3.457 0.003-6.758 0.666-9.786 1.869l0.179-0.063c-0.016 0.006-0.577 0.264-1.188 0.544 0.466 1.014 1.125 2.447 1.388 3.021l9.406 17.629 10.859-20.677-1.245-0.515zM18.026 16.129c-0.070 1.048-0.937 1.871-1.996 1.871-1.105 0-2-0.895-2-2 0-1.059 0.823-1.926 1.865-1.996l0.006-0c0.036-0.002 0.079-0.004 0.121-0.004 1.109 0 2.008 0.899 2.008 2.008 0 0.043-0.001 0.085-0.004 0.127l0-0.006zM22.026 24.129c-0.070 1.048-0.937 1.871-1.996 1.871-1.105 0-2-0.895-2-2 0-1.059 0.823-1.926 1.865-1.996l0.006-0c0.036-0.002 0.079-0.004 0.121-0.004 1.109 0 2.008 0.899 2.008 2.008 0 0.043-0.001 0.085-0.004 0.127l0-0.006zM26.026 17.129c-0.070 1.048-0.937 1.871-1.996 1.871-1.105 0-2-0.895-2-2 0-1.059 0.823-1.926 1.865-1.996l0.006-0c0.036-0.002 0.079-0.004 0.121-0.004 1.109 0 2.008 0.899 2.008 2.008 0 0.043-0.001 0.085-0.004 0.127l0-0.006z"></path>
</svg>
