<!-- Generated by IcoMoon.io -->
<svg version="1.1" xmlns="http://www.w3.org/2000/svg" width="40" height="40" viewBox="0 0 40 40">
<title>io-podium</title>
<path fill="#91908d" d="M24 6h-8c-1.105 0-2 0.895-2 2v0 25.75c0 0.138 0.112 0.25 0.25 0.25v0h11.5c0.138 0 0.25-0.112 0.25-0.25v0-25.75c0-1.105-0.895-2-2-2v0z"></path>
<path fill="#91908d" d="M33 16h-4.5c-0.276 0-0.5 0.224-0.5 0.5v0 17c0 0.276 0.224 0.5 0.5 0.5v0h5c0.828 0 1.5-0.672 1.5-1.5v0-14.5c0-1.105-0.895-2-2-2v0z"></path>
<path fill="#91908d" d="M7 12c-1.105 0-2 0.895-2 2v0 18.5c0 0.828 0.672 1.5 1.5 1.5v0h5c0.276 0 0.5-0.224 0.5-0.5v0-21c0-0.276-0.224-0.5-0.5-0.5v0z"></path>
</svg>
