<!-- Generated by IcoMoon.io -->
<svg version="1.1" xmlns="http://www.w3.org/2000/svg" width="40" height="40" viewBox="0 0 40 40">
<title>io-play-skip-forward-circle-outline</title>
<path fill="none" stroke-linejoin="miter" stroke-linecap="butt" stroke-miterlimit="10" stroke-width="2.5" stroke="#91908d" d="M32 20c0-6.625-5.375-12-12-12s-12 5.375-12 12 5.375 12 12 12 12-5.375 12-12z"></path>
<path fill="#91908d" d="M24 15c-0.552 0-1 0.448-1 1v0 3.313l-6.98-4.215c-0.099-0.060-0.218-0.096-0.346-0.096-0.372 0-0.674 0.302-0.674 0.674 0 0.001 0 0.003 0 0.004v-0 8.641c0 0.001 0 0.003 0 0.004 0 0.372 0.302 0.674 0.674 0.674 0.128 0 0.247-0.036 0.349-0.097l-0.003 0.002 6.98-4.215v3.312c0 0.552 0.448 1 1 1s1-0.448 1-1v0-8c0-0.552-0.448-1-1-1v0z"></path>
</svg>
