<!-- Generated by IcoMoon.io -->
<svg version="1.1" xmlns="http://www.w3.org/2000/svg" width="40" height="40" viewBox="0 0 40 40">
<title>io-paw</title>
<path fill="#91908d" d="M34.649 15.422c-0.347-0.824-0.923-1.419-1.667-1.718l-0.010-0.004c-0.314-0.127-0.678-0.2-1.059-0.2-0.001 0-0.002 0-0.004 0h-0.040c-1.703 0.026-3.441 1.473-4.324 3.601-0.648 1.556-0.723 3.23-0.199 4.477 0.346 0.825 0.924 1.419 1.671 1.719l0.008 0.003c0.314 0.127 0.678 0.2 1.060 0.2 0.001 0 0.002 0 0.003 0h-0c1.719 0 3.475-1.447 4.375-3.603 0.64-1.554 0.711-3.227 0.186-4.475z"></path>
<path fill="#91908d" d="M27.847 24.601c-0.982-0.59-1.91-1.148-2.516-2.151-1.672-2.775-2.683-4.45-5.331-4.45s-3.661 1.675-5.337 4.45c-0.607 1.004-1.537 1.563-2.523 2.155-1.129 0.679-2.296 1.38-2.8 2.76-0.184 0.454-0.291 0.981-0.291 1.532 0 0.011 0 0.021 0 0.032v-0.002c0 2.247 1.75 4.075 3.9 4.075 1.109 0 2.29-0.384 3.539-0.791 1.201-0.391 2.443-0.796 3.517-0.796s2.313 0.404 3.509 0.796c1.247 0.404 2.422 0.789 3.534 0.789 2.147 0 3.894-1.828 3.894-4.075 0-0.004 0-0.009 0-0.014 0-0.558-0.109-1.090-0.307-1.577l0.010 0.028c-0.504-1.381-1.671-2.083-2.8-2.762z"></path>
<path fill="#91908d" d="M13.375 15.803c0.744 0.933 1.687 1.447 2.657 1.447 0.14 0 0.277-0.011 0.411-0.031l-0.015 0.002c2.023-0.297 3.284-2.766 2.87-5.625-0.173-1.202-0.636-2.321-1.298-3.151-0.742-0.931-1.688-1.444-2.657-1.444-0.14 0-0.277 0.011-0.411 0.031l0.015-0.002c-2.023 0.297-3.284 2.766-2.87 5.625 0.172 1.2 0.635 2.318 1.298 3.149z"></path>
<path fill="#91908d" d="M23.573 17.221c0.119 0.019 0.256 0.029 0.396 0.029v0c0.971 0 1.914-0.514 2.658-1.447 0.662-0.831 1.122-1.949 1.297-3.15v0c0.414-2.857-0.847-5.326-2.87-5.625-0.119-0.019-0.256-0.029-0.396-0.029v0c-0.969 0.001-1.914 0.514-2.657 1.446-0.663 0.83-1.125 1.949-1.297 3.152-0.414 2.857 0.847 5.326 2.87 5.624z"></path>
<path fill="#91908d" d="M10.974 23.3l0.009-0.003c0.746-0.299 1.322-0.893 1.668-1.718 0.524-1.25 0.45-2.922-0.197-4.478-0.896-2.154-2.651-3.601-4.368-3.601-0.001 0-0.003 0-0.004 0-0.381 0-0.745 0.073-1.078 0.207l0.020-0.007-0.009 0.003c-0.744 0.297-1.321 0.893-1.666 1.718-0.524 1.25-0.45 2.922 0.197 4.478 0.896 2.154 2.651 3.601 4.368 3.601 0.001 0 0.001 0 0.002 0 0.381 0 0.745-0.073 1.078-0.207l-0.020 0.007z"></path>
</svg>
