<!-- Generated by IcoMoon.io -->
<svg version="1.1" xmlns="http://www.w3.org/2000/svg" width="40" height="40" viewBox="0 0 40 40">
<title>io-pricetags</title>
<path fill="#91908d" d="M32 15.488v-7.688c0-0.003 0-0.006 0-0.009 0-1.542-1.25-2.791-2.791-2.791-0.001 0-0.002 0-0.003 0h-7.683c-0.525 0.001-0.999 0.213-1.344 0.556l-15.36 15.356c-0.506 0.507-0.818 1.207-0.818 1.979s0.313 1.472 0.818 1.979l7.312 7.312c0.507 0.506 1.206 0.818 1.979 0.818s1.472-0.313 1.979-0.818l15.356-15.351c0.343-0.345 0.555-0.82 0.556-1.344v-0zM26 13c-1.105 0-2-0.895-2-2s0.895-2 2-2c1.105 0 2 0.895 2 2v0c0 1.105-0.895 2-2 2v0z"></path>
<path fill="#91908d" d="M35 8c-0.552 0-1 0.448-1 1v0 7.961l-16.332 16.333c-0.192 0.183-0.311 0.44-0.311 0.725 0 0.552 0.448 1 1 1 0.285 0 0.542-0.119 0.725-0.311l16.375-16.375c0.336-0.337 0.543-0.802 0.543-1.316 0-0.006-0-0.011-0-0.017v0.001-8c0-0.552-0.448-1-1-1v0z"></path>
</svg>
