<!-- Generated by IcoMoon.io -->
<svg version="1.1" xmlns="http://www.w3.org/2000/svg" width="40" height="40" viewBox="0 0 40 40">
<title>io-receipt-sharp</title>
<path fill="#91908d" d="M32 7l-2-1-2 1-2-1-2 1-2-1-2 1-2-1-2 1-3-1v16s0 0.003 0 0.003h14v8.497c0 1.933 2.067 3.5 4 3.5h0.75c1.933 0 3.25-1.567 3.25-3.5v-24.5zM21.031 19l-0.031-2h9.969l0.031 2zM17.031 14l-0.031-2h13.969l0.031 2z"></path>
<path fill="#91908d" d="M25 30.5v-6.5h-20v2c0 3.159 0.361 4.476 0.904 5.477 0.921 1.698 2.587 2.523 5.096 2.523h16s-2-1.25-2-3.5z"></path>
</svg>
