<!-- Generated by IcoMoon.io -->
<svg version="1.1" xmlns="http://www.w3.org/2000/svg" width="40" height="40" viewBox="0 0 40 40">
<title>io-reload-sharp</title>
<path fill="none" stroke-linejoin="miter" stroke-linecap="square" stroke-miterlimit="10" stroke-width="2.5" stroke="#91908d" d="M29 13.25l-1.32-1.536c-2.184-2.29-5.258-3.714-8.665-3.714-0.005 0-0.010 0-0.016 0h0.001c-6.625 0-12 5.375-12 12s5.375 12 12 12c5.194-0 9.618-3.299 11.29-7.916l0.026-0.084"></path>
<path fill="#91908d" d="M33 8.278v9.472c0 0.138-0.112 0.25-0.25 0.25v0h-9.472c-0 0-0 0-0 0-0.138 0-0.25-0.112-0.25-0.25 0-0.069 0.028-0.132 0.073-0.177v0l9.472-9.472c0.045-0.045 0.108-0.073 0.177-0.073 0.138 0 0.25 0.112 0.25 0.25 0 0 0 0 0 0v0z"></path>
</svg>
