<!-- Generated by IcoMoon.io -->
<svg version="1.1" xmlns="http://www.w3.org/2000/svg" width="40" height="40" viewBox="0 0 40 40">
<title>io-rocket-outline</title>
<path fill="none" stroke-linejoin="round" stroke-linecap="round" stroke-miterlimit="4" stroke-width="2.5" stroke="#91908d" d="M32.863 7.363c-0.022-0.105-0.102-0.187-0.204-0.211l-0.002-0c-3.399-0.831-11.25 2.131-15.508 6.386-0.743 0.737-1.422 1.535-2.030 2.386l-0.038 0.056c-1.313-0.119-2.625-0.019-3.742 0.469-3.156 1.387-4.074 5.011-4.33 6.567-0.005 0.027-0.007 0.059-0.007 0.090 0 0.311 0.252 0.563 0.563 0.563 0.020 0 0.040-0.001 0.060-0.003l-0.002 0 5.067-0.556c0.004 0.408 0.029 0.805 0.074 1.196l-0.005-0.052c0.028 0.273 0.15 0.513 0.331 0.693l1.962 1.962c0.18 0.182 0.42 0.303 0.689 0.331l0.005 0c0.337 0.040 0.731 0.065 1.131 0.069l0.006 0-0.556 5.063c-0.002 0.017-0.003 0.037-0.003 0.057 0 0.311 0.252 0.563 0.563 0.563 0.032 0 0.063-0.003 0.093-0.008l-0.003 0c1.556-0.25 5.188-1.168 6.567-4.323 0.488-1.119 0.587-2.424 0.475-3.731 0.911-0.646 1.711-1.325 2.448-2.067l0.001-0.001c4.274-4.25 7.217-11.929 6.398-15.497zM22.666 17.354c-0.483-0.483-0.782-1.15-0.782-1.887 0-1.474 1.195-2.669 2.669-2.669s2.669 1.195 2.669 2.669c0 0.737-0.299 1.404-0.782 1.887v0c-0.483 0.484-1.15 0.783-1.887 0.783s-1.404-0.299-1.887-0.783l-0-0z"></path>
<path fill="none" stroke-linejoin="round" stroke-linecap="round" stroke-miterlimit="4" stroke-width="2.5" stroke="#91908d" d="M10.853 26c-0.648 0.082-1.217 0.373-1.647 0.803l0-0c-1.101 1.105-1.206 5.197-1.206 5.197s4.095-0.104 5.197-1.207c0.431-0.43 0.723-0.999 0.802-1.635l0.001-0.014"></path>
</svg>
