<!-- Generated by IcoMoon.io -->
<svg version="1.1" xmlns="http://www.w3.org/2000/svg" width="40" height="40" viewBox="0 0 40 40">
<title>io-receipt-outline</title>
<path fill="none" stroke-linejoin="round" stroke-linecap="butt" stroke-miterlimit="4" stroke-width="2.5" stroke="#91908d" d="M14 25v-18l2 1 2-1 1.996 1 2.023-1 1.981 1 1.987-1 1.996 1 2.018-1 2.001 1 1.999-1v14"></path>
<path fill="none" stroke-linejoin="round" stroke-linecap="butt" stroke-miterlimit="4" stroke-width="2.5" stroke="#91908d" d="M34 21v7c0 2.761-2.239 5-5 5v0 0c-2.761 0-5-2.239-5-5v0-3h-17c-0.003-0-0.006-0-0.009-0-0.547 0-0.991 0.444-0.991 0.991 0 0.003 0 0.006 0 0.009v-0c0 4 0.421 7 5 7h18"></path>
<path fill="none" stroke-linejoin="round" stroke-linecap="round" stroke-miterlimit="4" stroke-width="2.5" stroke="#91908d" d="M18 13h12"></path>
<path fill="none" stroke-linejoin="round" stroke-linecap="round" stroke-miterlimit="4" stroke-width="2.5" stroke="#91908d" d="M22 18h8"></path>
</svg>
