<!-- Generated by IcoMoon.io -->
<svg version="1.1" xmlns="http://www.w3.org/2000/svg" width="40" height="40" viewBox="0 0 40 40">
<title>io-restaurant-sharp</title>
<path fill="#91908d" d="M25.419 17.996h0.929c0.004 0 0.009 0 0.014 0 1.377 0 2.623-0.56 3.522-1.465l0-0 5.116-5.156-1.389-1.4-5.224 5.224-1.086-1.086 5.224-5.224-1.438-1.394-5.204 5.204-1.082-1.086 5.224-5.224-1.4-1.388-5.156 5.116c-0.905 0.9-1.465 2.146-1.465 3.523 0 0.005 0 0.010 0 0.015v-0.001 0.929l-2.696 2.696-12.308-12.277c-2.768 3.429-1.133 9.732 1.982 12.848l5.344 5.344c1.659 1.659 1.989 1.808 3.871 1.050 0.406-0.163 0.553-0.145 0.931 0.233l0.813 0.758c0.183 0.187 0.188 0.242 0.188 0.601v0.346c0 1.317 0.842 2.075 1.397 2.64l6.474 6.18 4.5-4.5-9.777-9.808z"></path>
<path fill="#91908d" d="M18.211 26.162c-1.864 0.382-3.007 0.734-5.192-1.452-0.035-0.035-0.071-0.069-0.106-0.104l-1.219-1.219-6.693 6.612 5 5 9-9z"></path>
</svg>
