<!-- Generated by IcoMoon.io -->
<svg version="1.1" xmlns="http://www.w3.org/2000/svg" width="40" height="40" viewBox="0 0 40 40">
<title>io-reload-circle-sharp</title>
<path fill="#91908d" d="M20 7c-7.168 0-13 5.832-13 13s5.832 13 13 13 13-5.832 13-13-5.832-13-13-13zM27.5 18.923h-5.563l2.305-2.305-0.35-0.407c-0.995-1.032-2.389-1.672-3.933-1.672-3.016 0-5.461 2.445-5.461 5.461s2.445 5.461 5.461 5.461h0c2.363-0.002 4.376-1.503 5.139-3.603l0.012-0.038 0.336-0.946 1.886 0.667-0.331 0.946c-1.055 2.924-3.806 4.976-7.036 4.976-4.121 0-7.462-3.341-7.462-7.462s3.34-7.461 7.46-7.463h0c0.008-0 0.018-0 0.028-0 2.113 0 4.018 0.886 5.366 2.306l0.003 0.003 0.035 0.039 0.269 0.313 1.837-1.836z"></path>
</svg>
