<!-- Generated by IcoMoon.io -->
<svg version="1.1" xmlns="http://www.w3.org/2000/svg" width="40" height="40" viewBox="0 0 40 40">
<title>io-reader</title>
<path fill="#91908d" d="M27 6h-14c-2.208 0.002-3.998 1.792-4 4v20c0.002 2.208 1.792 3.998 4 4h14c2.208-0.002 3.998-1.792 4-4v-20c-0.002-2.208-1.792-3.998-4-4h-0zM20 23h-5c-0.552 0-1-0.448-1-1s0.448-1 1-1v0h5c0.552 0 1 0.448 1 1s-0.448 1-1 1v0zM25 18h-10c-0.552 0-1-0.448-1-1s0.448-1 1-1v0h10c0.552 0 1 0.448 1 1s-0.448 1-1 1v0zM25 13h-10c-0.552 0-1-0.448-1-1s0.448-1 1-1v0h10c0.552 0 1 0.448 1 1s-0.448 1-1 1v0z"></path>
</svg>
