<!-- Generated by IcoMoon.io -->
<svg version="1.1" xmlns="http://www.w3.org/2000/svg" width="40" height="40" viewBox="0 0 40 40">
<title>io-reload-circle-outline</title>
<path fill="none" stroke-linejoin="miter" stroke-linecap="butt" stroke-miterlimit="10" stroke-width="2.5" stroke="#91908d" d="M32 20c0-6.625-5.375-12-12-12s-12 5.375-12 12 5.375 12 12 12 12-5.375 12-12z"></path>
<path fill="none" stroke-linejoin="miter" stroke-linecap="round" stroke-miterlimit="10" stroke-width="2.5" stroke="#91908d" d="M25.346 16.366l-0.711-0.827c-1.179-1.232-2.836-1.998-4.672-1.998-3.568 0-6.461 2.893-6.461 6.461s2.893 6.461 6.461 6.461c2.796 0 5.178-1.777 6.077-4.263l0.014-0.045"></path>
<path fill="#91908d" d="M26.957 14.125c-0.147 0.001-0.28 0.061-0.375 0.159l-3.721 3.721c-0.098 0.097-0.158 0.232-0.158 0.381 0 0.297 0.241 0.538 0.538 0.538 0 0 0.001 0 0.001 0h3.721c0.298 0 0.539-0.241 0.539-0.539v0-3.723c0-0 0-0.001 0-0.001 0-0.297-0.241-0.538-0.538-0.538-0.002 0-0.003 0-0.005 0h0z"></path>
</svg>
