<!-- Generated by IcoMoon.io -->
<svg version="1.1" xmlns="http://www.w3.org/2000/svg" width="40" height="40" viewBox="0 0 40 40">
<title>io-refresh-circle</title>
<path fill="#91908d" d="M20 7c-7.168 0-13 5.832-13 13 0 7.179 5.821 13 13 13 7.168 0 13-5.832 13-13 0-7.179-5.821-13-13-13zM20 26.563c-3.245 0-5.875-2.63-5.875-5.875s2.63-5.875 5.875-5.875v0h0.263l-0.882-0.881c-0.158-0.158-0.256-0.377-0.256-0.619 0-0.483 0.392-0.875 0.875-0.875 0.242 0 0.46 0.098 0.619 0.256l2.5 2.5c0.158 0.158 0.256 0.377 0.256 0.619s-0.098 0.46-0.256 0.619l-2.5 2.5c-0.158 0.158-0.377 0.256-0.619 0.256-0.483 0-0.875-0.392-0.875-0.875 0-0.242 0.098-0.46 0.256-0.619l1.125-1.125c-0.149-0.006-0.319-0.006-0.506-0.006-2.278 0-4.125 1.847-4.125 4.125s1.847 4.125 4.125 4.125c2.278 0 4.125-1.847 4.125-4.125v0c0-0.483 0.392-0.875 0.875-0.875s0.875 0.392 0.875 0.875v0c-0.004 3.243-2.632 5.871-5.875 5.875h-0z"></path>
</svg>
