<!-- Generated by IcoMoon.io -->
<svg version="1.1" xmlns="http://www.w3.org/2000/svg" width="40" height="40" viewBox="0 0 40 40">
<title>io-settings</title>
<path fill="#91908d" d="M23 20c0 1.657-1.343 3-3 3s-3-1.343-3-3c0-1.657 1.343-3 3-3s3 1.343 3 3z"></path>
<path fill="#91908d" d="M33.399 22.75l-0.029-0.024-1.973-1.547c-0.234-0.186-0.382-0.471-0.382-0.79 0-0.015 0-0.031 0.001-0.046l-0 0.002v-0.723c-0.001-0.012-0.001-0.026-0.001-0.040 0-0.318 0.149-0.602 0.381-0.785l0.002-0.002 2.001-1.571c0.368-0.308 0.6-0.767 0.6-1.281 0-0.313-0.086-0.605-0.236-0.855l0.004 0.008-2.669-4.619c-0.003-0.004-0.006-0.008-0.008-0.013l-0-0.001c-0.299-0.491-0.831-0.813-1.438-0.813-0.212 0-0.415 0.039-0.601 0.111l0.011-0.004-0.022 0.008-2.319 0.933c-0.111 0.046-0.239 0.073-0.373 0.073-0.197 0-0.38-0.057-0.535-0.156l0.004 0.002q-0.307-0.194-0.625-0.366c-0.273-0.15-0.466-0.418-0.511-0.733l-0.001-0.005-0.349-2.474-0.008-0.045c-0.159-0.781-0.836-1.361-1.65-1.37h-5.346c-0.827 0.003-1.513 0.602-1.652 1.389l-0.001 0.010-0.006 0.035-0.348 2.479c-0.046 0.32-0.237 0.587-0.503 0.736l-0.005 0.003c-0.214 0.115-0.422 0.237-0.625 0.364-0.15 0.095-0.333 0.152-0.529 0.152-0.135 0-0.263-0.027-0.38-0.075l0.007 0.002-2.343-0.946c-0.175-0.068-0.378-0.107-0.59-0.107-0.609 0-1.141 0.324-1.436 0.808l-0.004 0.007-0.008 0.014-2.673 4.622c-0.146 0.243-0.232 0.536-0.232 0.849 0 0.514 0.232 0.974 0.598 1.28l0.003 0.002 0.029 0.024 1.972 1.547c0.234 0.186 0.382 0.471 0.382 0.79 0 0.015-0 0.031-0.001 0.046l0-0.002v0.723c0.001 0.012 0.001 0.026 0.001 0.040 0 0.318-0.149 0.602-0.381 0.785l-0.002 0.002-2.001 1.571c-0.368 0.308-0.6 0.767-0.6 1.281 0 0.313 0.086 0.605 0.236 0.855l-0.004-0.008 2.669 4.619c0.003 0.004 0.006 0.008 0.008 0.013l0 0.001c0.299 0.491 0.831 0.813 1.438 0.813 0.212 0 0.415-0.039 0.601-0.111l-0.011 0.004 0.022-0.008 2.317-0.933c0.111-0.046 0.239-0.073 0.373-0.073 0.197 0 0.38 0.057 0.535 0.156l-0.004-0.002q0.307 0.194 0.625 0.366c0.273 0.15 0.466 0.418 0.511 0.733l0.001 0.005 0.348 2.474 0.008 0.045c0.159 0.782 0.838 1.363 1.654 1.37h5.346c0.827-0.003 1.513-0.602 1.652-1.389l0.001-0.010 0.006-0.035 0.348-2.479c0.046-0.32 0.239-0.588 0.506-0.736l0.005-0.003c0.214-0.115 0.422-0.237 0.625-0.364 0.15-0.095 0.333-0.152 0.529-0.152 0.135 0 0.263 0.027 0.38 0.075l-0.007-0.002 2.342 0.943c0.175 0.068 0.378 0.107 0.59 0.107 0.608 0 1.141-0.324 1.436-0.809l0.004-0.007c0.003-0.006 0.006-0.010 0.009-0.014l-0 0.001 2.669-4.618c0.146-0.243 0.233-0.536 0.233-0.85 0-0.514-0.232-0.974-0.598-1.28l-0.003-0.002zM24.994 20.235c-0.129 2.659-2.316 4.765-4.994 4.765-2.761 0-5-2.239-5-5 0-2.679 2.107-4.866 4.754-4.994l0.011-0c0.066-0.003 0.143-0.005 0.221-0.005 2.769 0 5.013 2.244 5.013 5.013 0 0.078-0.002 0.155-0.005 0.232l0-0.011z"></path>
</svg>
