<!-- Generated by IcoMoon.io -->
<svg version="1.1" xmlns="http://www.w3.org/2000/svg" width="40" height="40" viewBox="0 0 40 40">
<title>io-shirt-sharp</title>
<path fill="#91908d" d="M20 6.625c-2.117 0-4-0.625-4-0.625v0.125c0 2.209 1.791 4 4 4s4-1.791 4-4v0-0.125s-1.883 0.625-4 0.625z"></path>
<path fill="#91908d" d="M26 6.75c-0.343 2.985-2.924 5.313-6 5.313s-5.657-2.328-6-5.313l-9 3.125 1.125 7.125 3.857 0.464c0.442 0.056 0.444 0.056 0.444 0.512l-0.426 16.024h20l-0.426-16.024c-0.013-0.438-0.013-0.438 0.444-0.512l3.857-0.464 1.125-7.125z"></path>
</svg>
