<!-- Generated by IcoMoon.io -->
<svg version="1.1" xmlns="http://www.w3.org/2000/svg" width="40" height="40" viewBox="0 0 40 40">
<title>io-send-outline</title>
<path fill="none" stroke-linejoin="round" stroke-linecap="round" stroke-miterlimit="4" stroke-width="2.5" stroke="#91908d" d="M33.394 20.947l-26.696 11.010c-0.061 0.029-0.133 0.046-0.208 0.046-0.268 0-0.486-0.216-0.489-0.484v-7.082c0-0.243 0.174-0.446 0.404-0.491l0.003-0.001 15.476-2.938c1.085-0.206 1.085-1.759 0-1.965l-15.477-2.938c-0.233-0.046-0.406-0.248-0.406-0.491v-7.079c0-0.359 0.367-0.641 0.697-0.5l26.696 11.073c0.359 0.157 0.604 0.509 0.604 0.918s-0.246 0.761-0.598 0.916l-0.006 0.002z"></path>
</svg>
