<!-- Generated by IcoMoon.io -->
<svg version="1.1" xmlns="http://www.w3.org/2000/svg" width="40" height="40" viewBox="0 0 40 40">
<title>io-share-social</title>
<path fill="#91908d" d="M28 25c-0 0-0.001 0-0.001 0-1.132 0-2.154 0.472-2.88 1.23l-0.001 0.001-9.25-5.204c0.085-0.308 0.134-0.662 0.134-1.027s-0.049-0.719-0.141-1.055l0.007 0.028 9.25-5.204c0.726 0.752 1.744 1.219 2.87 1.219 2.202 0 3.988-1.785 3.988-3.987s-1.785-3.987-3.988-3.987c-2.202 0-3.988 1.785-3.988 3.987 0 0.365 0.049 0.719 0.141 1.054l-0.007-0.028-9.25 5.204c-0.729-0.759-1.753-1.231-2.887-1.231-2.209 0-4 1.791-4 4s1.791 4 4 4c1.134 0 2.158-0.472 2.886-1.23l0.001-0.001 9.25 5.204c-0.085 0.308-0.134 0.662-0.134 1.027 0 2.209 1.791 4 4 4s4-1.791 4-4c0-2.209-1.791-4-4-4-0 0-0 0-0 0v0z"></path>
</svg>
