<!-- Generated by IcoMoon.io -->
<svg version="1.1" xmlns="http://www.w3.org/2000/svg" width="40" height="40" viewBox="0 0 40 40">
<title>io-shirt-outline</title>
<path fill="none" stroke-linejoin="round" stroke-linecap="round" stroke-miterlimit="4" stroke-width="2.5" stroke="#91908d" d="M23.66 7s-1.424 0.5-3.66 0.5-3.66-0.5-3.66-0.5c-0.237 0-0.464 0.041-0.675 0.117l0.014-0.004-9.679 3.387 1.039 5.5 3.055 0.345c0.753 0.088 1.331 0.721 1.331 1.491 0 0.016-0 0.032-0.001 0.048l0-0.002-0.425 15.119h18l-0.425-15.119c-0-0.014-0.001-0.030-0.001-0.046 0-0.769 0.579-1.403 1.324-1.49l0.007-0.001 3.055-0.345 1.039-5.5-9.679-3.388c-0.197-0.071-0.424-0.112-0.661-0.112v0z"></path>
<path fill="none" stroke-linejoin="round" stroke-linecap="round" stroke-miterlimit="4" stroke-width="2.5" stroke="#91908d" d="M24.832 7.291c-0.587 2.156-2.528 3.714-4.832 3.714s-4.244-1.559-4.824-3.679l-0.008-0.035"></path>
</svg>
