<!-- Generated by IcoMoon.io -->
<svg version="1.1" xmlns="http://www.w3.org/2000/svg" width="40" height="40" viewBox="0 0 40 40">
<title>io-shuffle-outline</title>
<path fill="none" stroke-linejoin="round" stroke-linecap="round" stroke-miterlimit="4" stroke-width="2.5" stroke="#91908d" d="M29 23l3 3-3 3"></path>
<path fill="none" stroke-linejoin="round" stroke-linecap="round" stroke-miterlimit="4" stroke-width="2.5" stroke="#91908d" d="M29 11l3 3-3 3"></path>
<path fill="none" stroke-linejoin="round" stroke-linecap="round" stroke-miterlimit="4" stroke-width="2.5" stroke="#91908d" d="M8 26h5.324c1.728-0 3.251-0.876 4.149-2.208l0.011-0.018 2.516-3.774"></path>
<path fill="none" stroke-linejoin="round" stroke-linecap="round" stroke-miterlimit="4" stroke-width="2.5" stroke="#91908d" d="M8 14h5.324c1.728 0 3.251 0.876 4.149 2.208l0.011 0.018 5.031 7.548c0.909 1.35 2.432 2.226 4.16 2.226h3.324"></path>
<path fill="none" stroke-linejoin="round" stroke-linecap="round" stroke-miterlimit="4" stroke-width="2.5" stroke="#91908d" d="M30 14h-3.324c-1.728 0-3.251 0.876-4.149 2.208l-0.011 0.018-0.516 0.774"></path>
</svg>
