<!-- Generated by IcoMoon.io -->
<svg version="1.1" xmlns="http://www.w3.org/2000/svg" width="40" height="40" viewBox="0 0 40 40">
<title>io-shield</title>
<path fill="#91908d" d="M33.942 10.959c-0.030-0.463-0.371-0.839-0.816-0.921l-0.006-0.001c-5.377-0.964-7.639-1.718-12.495-3.902-0.485-0.181-0.786-0.178-1.25 0-4.856 2.188-7.118 2.937-12.495 3.902-0.451 0.083-0.792 0.458-0.822 0.919l-0 0.003c-0.241 3.819 0.271 7.375 1.522 10.572 1.085 2.722 2.595 5.055 4.474 7.035l-0.009-0.010c2.792 2.964 5.887 4.695 7.484 5.35 0.14 0.059 0.302 0.093 0.472 0.093s0.333-0.034 0.48-0.096l-0.008 0.003c1.688-0.682 4.668-2.364 7.482-5.351 1.869-1.97 3.379-4.303 4.412-6.878l0.052-0.147c1.251-3.196 1.763-6.753 1.523-10.572z"></path>
</svg>
