<!-- Generated by IcoMoon.io -->
<svg version="1.1" xmlns="http://www.w3.org/2000/svg" width="40" height="40" viewBox="0 0 40 40">
<title>io-scan-circle-sharp</title>
<path fill="#91908d" d="M20 7c-7.168 0-13 5.832-13 13s5.832 13 13 13 13-5.832 13-13-5.832-13-13-13zM18.5 27h-2.75c-1.518-0.002-2.748-1.232-2.75-2.75v-2.75h2v2.75c0 0.414 0.336 0.75 0.75 0.75v0h2.75zM18.5 15h-2.75c-0.414 0-0.75 0.336-0.75 0.75v0 2.75h-2v-2.75c0.002-1.518 1.232-2.748 2.75-2.75h2.75zM27 24.25c-0.002 1.518-1.232 2.748-2.75 2.75h-2.75v-2h2.75c0.414 0 0.75-0.336 0.75-0.75v0-2.75h2zM27 18.5h-2v-2.75c0-0.414-0.336-0.75-0.75-0.75v0h-2.75v-2h2.75c1.518 0.002 2.748 1.232 2.75 2.75v0z"></path>
</svg>
