<!-- Generated by IcoMoon.io -->
<svg version="1.1" xmlns="http://www.w3.org/2000/svg" width="40" height="40" viewBox="0 0 40 40">
<title>io-thermometer-outline</title>
<path fill="none" stroke-linejoin="miter" stroke-linecap="round" stroke-miterlimit="10" stroke-width="2.5" stroke="#91908d" d="M23.232 22.892c-0.14-0.090-0.232-0.245-0.232-0.422v-13.47c0-1.657-1.343-3-3-3v0 0c-1.657 0-3 1.343-3 3v0 13.47c-0 0.176-0.092 0.331-0.23 0.42l-0.002 0.001c-1.677 1.104-2.768 2.978-2.768 5.107 0 0.096 0.002 0.191 0.007 0.286l-0.001-0.013c0.15 3.194 2.776 5.726 5.994 5.726 3.313 0 5.998-2.684 6-5.997v-0c0-0.001 0-0.002 0-0.003 0-2.128-1.091-4.002-2.745-5.091l-0.023-0.014z"></path>
<path fill="none" stroke-linejoin="miter" stroke-linecap="round" stroke-miterlimit="10" stroke-width="2.5" stroke="#91908d" d="M20 11v17"></path>
<path fill="#91908d" d="M23 28c0 1.657-1.343 3-3 3s-3-1.343-3-3c0-1.657 1.343-3 3-3s3 1.343 3 3z"></path>
</svg>
