<!-- Generated by IcoMoon.io -->
<svg version="1.1" xmlns="http://www.w3.org/2000/svg" width="40" height="40" viewBox="0 0 40 40">
<title>io-today-outline</title>
<path fill="none" stroke-linejoin="round" stroke-linecap="butt" stroke-miterlimit="4" stroke-width="2.5" stroke="#91908d" d="M10 9h20c1.657 0 3 1.343 3 3v18c0 1.657-1.343 3-3 3h-20c-1.657 0-3-1.343-3-3v-18c0-1.657 1.343-3 3-3z"></path>
<path fill="none" stroke-linejoin="round" stroke-linecap="round" stroke-miterlimit="4" stroke-width="2.5" stroke="#91908d" d="M12 7v2"></path>
<path fill="none" stroke-linejoin="round" stroke-linecap="round" stroke-miterlimit="4" stroke-width="2.5" stroke="#91908d" d="M28 7v2"></path>
<path fill="none" stroke-linejoin="round" stroke-linecap="round" stroke-miterlimit="4" stroke-width="2.5" stroke="#91908d" d="M11.813 18h4.375c0.449 0 0.813 0.364 0.813 0.813v4.375c0 0.449-0.364 0.813-0.813 0.813h-4.375c-0.449 0-0.813-0.364-0.813-0.813v-4.375c0-0.449 0.364-0.813 0.813-0.813z"></path>
<path fill="none" stroke-linejoin="round" stroke-linecap="round" stroke-miterlimit="4" stroke-width="2.5" stroke="#91908d" d="M33 14h-26"></path>
</svg>
