<!-- Generated by IcoMoon.io -->
<svg version="1.1" xmlns="http://www.w3.org/2000/svg" width="40" height="40" viewBox="0 0 40 40">
<title>io-timer-sharp</title>
<path fill="#91908d" d="M20 7c-7.18 0-13 5.82-13 13s5.82 13 13 13 13-5.82 13-13-5.82-13-13-13zM20 31c-6.063 0-11-4.934-11-11-0-0.011-0-0.025-0-0.038 0-3.097 1.29-5.893 3.363-7.878l0.004-0.004 9.071 6.483-1.188 1.875-7.813-5.688c-0.813 1.438-1.669 2.875-1.669 5.25 0 5.090 4.141 9.231 9.231 9.231s9.231-4.141 9.231-9.231c0-4.792-3.67-8.742-8.347-9.188v3.438h-1.769v-5.257c0.265 0.004 0.559 0.007 0.884 0.007 6.066 0 11 4.938 11 11s-4.934 11-11 11z"></path>
</svg>
