<!-- Generated by IcoMoon.io -->
<svg version="1.1" xmlns="http://www.w3.org/2000/svg" width="40" height="40" viewBox="0 0 40 40">
<title>io-ticket-sharp</title>
<path fill="#91908d" d="M30.64 11.982l-0.684 0.684c-0.336 0.336-0.8 0.544-1.313 0.544-1.025 0-1.856-0.831-1.856-1.856 0-0.513 0.208-0.977 0.544-1.313l0.684-0.684-4.358-4.357-5.5 5.5-0.25 0.756-0.756 0.25-12.152 12.152 4.36 4.36 0.684-0.684c0.336-0.336 0.8-0.544 1.313-0.544 1.025 0 1.856 0.831 1.856 1.856 0 0.513-0.208 0.977-0.544 1.313v0l-0.684 0.684 4.358 4.358 12.15-12.15 0.25-0.756 0.756-0.25 5.5-5.5zM17.605 12.322l1.367-1.367 2.063 2.063-1.367 1.367zM20.293 15.009l1.367-1.367 2.033 2.033-1.368 1.367zM22.952 17.669l1.368-1.367 2.032 2.032-1.365 1.371zM27.676 22.392l-2.063-2.063 1.367-1.367 2.062 2.063z"></path>
</svg>
