<!-- Generated by IcoMoon.io -->
<svg version="1.1" xmlns="http://www.w3.org/2000/svg" width="40" height="40" viewBox="0 0 40 40">
<title>io-videocam-off-outline</title>
<path fill="none" stroke-linejoin="round" stroke-linecap="round" stroke-miterlimit="4" stroke-width="2.5" stroke="#91908d" d="M27.424 23.299l5.169 3.639c0.119 0.054 0.259 0.086 0.406 0.086 0.552 0 1-0.448 1-1v0-12.048c0-0.552-0.448-1-1-1-0.147 0-0.287 0.032-0.413 0.089l0.006-0.003-5.169 3.639c-0.258 0.183-0.424 0.481-0.424 0.817v0 4.963c0 0.337 0.166 0.634 0.421 0.815l0.003 0.002z"></path>
<path fill="none" stroke-linejoin="miter" stroke-linecap="round" stroke-miterlimit="10" stroke-width="2.5" stroke="#91908d" d="M7.137 12.786c-0.697 0.598-1.136 1.48-1.137 2.464v9.5c0.005 1.793 1.457 3.245 3.249 3.25h11.501c0.001 0 0.002 0 0.003 0 0.498 0 0.97-0.113 1.391-0.315l-0.019 0.008"></path>
<path fill="none" stroke-linejoin="miter" stroke-linecap="round" stroke-miterlimit="10" stroke-width="2.5" stroke="#91908d" d="M17 12h3.78c1.776 0.006 3.214 1.444 3.22 3.219v4.281"></path>
<path fill="none" stroke-linejoin="miter" stroke-linecap="round" stroke-miterlimit="10" stroke-width="2.5" stroke="#91908d" d="M30 30l-21-21"></path>
</svg>
