<!-- Generated by IcoMoon.io -->
<svg version="1.1" xmlns="http://www.w3.org/2000/svg" width="40" height="40" viewBox="0 0 40 40">
<title>io-videocam-off-sharp</title>
<path fill="#91908d" d="M7.586 9l1.414-1.414 22.414 22.414-1.414 1.414-22.414-22.414z"></path>
<path fill="#91908d" d="M6 11c-0.552 0-1 0.448-1 1v0 16c0 0.552 0.448 1 1 1v0h18c0.001 0 0.002 0 0.003 0 0.218 0 0.42-0.070 0.584-0.189l-0.003 0.002-17.813-17.813z"></path>
<path fill="#91908d" d="M25 17v-5c0-0.552-0.448-1-1-1v0h-8.773l15.34 15.34 4.433 2.66v-18z"></path>
</svg>
