<!-- Generated by IcoMoon.io -->
<svg version="1.1" xmlns="http://www.w3.org/2000/svg" width="40" height="40" viewBox="0 0 40 40">
<title>io-walk</title>
<path stroke-linejoin="round" stroke-linecap="round" stroke-miterlimit="4" stroke-width="2.5" stroke="#91908d" fill="#91908d" d="M23.534 33.994l-3.526-7.125-2.789-3.563c-0.395-0.658-0.629-1.452-0.629-2.301 0-0.002 0-0.004 0-0.006v0-8.022h0.972c1.381 0 2.5 1.119 2.5 2.5v0 11.388"></path>
<path fill="none" stroke-linejoin="round" stroke-linecap="round" stroke-miterlimit="4" stroke-width="2.5" stroke="#91908d" d="M11.961 22.236v-4.629s2.312-4.629 4.629-4.629"></path>
<path fill="#91908d" d="M27.006 22.236c-0.239-0-0.461-0.073-0.645-0.197l0.004 0.003-3.758-2.417c-0.367-0.239-0.606-0.648-0.606-1.112v-1.481c0-0 0-0 0-0 0-0.195 0.158-0.353 0.353-0.353 0.071 0 0.136 0.021 0.191 0.056l-0.001-0.001 5.103 3.382c0.313 0.211 0.515 0.563 0.515 0.963 0 0.639-0.518 1.157-1.157 1.157-0 0-0.001 0-0.001 0h0z"></path>
<path fill="#91908d" d="M14.744 34.842c-0 0-0.001 0-0.001 0-0.377 0-0.712-0.181-0.923-0.46l-0.002-0.003c-0.384-0.511-0.25-1.074 0.231-1.62l3.747-4.666c0.076-0.058 0.173-0.092 0.278-0.092 0.166 0 0.312 0.088 0.394 0.219l0.001 0.002c0.098 0.159 0.211 0.353 0.324 0.568 0.328 0.622 0.375 1.007-0.105 1.606-0.5 0.625-3.25 4.215-3.25 4.215-0.164 0.186-0.452 0.231-0.693 0.231z"></path>
<path stroke-linejoin="round" stroke-linecap="round" stroke-miterlimit="4" stroke-width="1.25" stroke="#91908d" fill="#91908d" d="M22.378 8.348c0 1.279-1.036 2.315-2.315 2.315s-2.315-1.036-2.315-2.315c0-1.279 1.036-2.315 2.315-2.315s2.315 1.036 2.315 2.315z"></path>
</svg>
