<!-- Generated by IcoMoon.io -->
<svg version="1.1" xmlns="http://www.w3.org/2000/svg" width="40" height="40" viewBox="0 0 40 40">
<title>io-watch-sharp</title>
<path fill="#91908d" d="M13 12.5h14c0.276 0 0.5 0.224 0.5 0.5v14c0 0.276-0.224 0.5-0.5 0.5h-14c-0.276 0-0.5-0.224-0.5-0.5v-14c0-0.276 0.224-0.5 0.5-0.5z"></path>
<path fill="#91908d" d="M28 10h-3v-5h-10v5h-3c-1.105 0-2 0.895-2 2v0 16c0 1.105 0.895 2 2 2v0h3v5h10v-5h3c1.105 0 2-0.895 2-2v0-16c0-1.105-0.895-2-2-2v0zM28.5 27c0 0.828-0.672 1.5-1.5 1.5v0h-14c-0.828 0-1.5-0.672-1.5-1.5v0-14c0-0.828 0.672-1.5 1.5-1.5v0h14c0.828 0 1.5 0.672 1.5 1.5v0z"></path>
</svg>
