<!-- Generated by IcoMoon.io -->
<svg version="1.1" xmlns="http://www.w3.org/2000/svg" width="24" height="24" viewBox="0 0 24 24">
<title>keyboard</title>
<path fill="#91908d" d="M17.587 10.387v-1.575h-1.575v1.575h1.575zM17.587 12.788v-1.575h-1.575v1.575h1.575zM15.188 10.387v-1.575h-1.575v1.575h1.575zM15.188 12.788v-1.575h-1.575v1.575h1.575zM15.188 16.013v-1.613h-6.375v1.613h6.375zM7.988 10.387v-1.575h-1.575v1.575h1.575zM7.988 12.788v-1.575h-1.575v1.575h1.575zM8.813 11.212v1.575h1.575v-1.575h-1.575zM8.813 8.813v1.575h1.575v-1.575h-1.575zM11.212 11.212v1.575h1.575v-1.575h-1.575zM11.212 8.813v1.575h1.575v-1.575h-1.575zM18.413 6.413q0.637 0 1.106 0.469t0.469 1.106v8.025q0 0.637-0.469 1.106t-1.106 0.469h-12.825q-0.638 0-1.106-0.469t-0.469-1.106v-8.025q0-0.638 0.469-1.106t1.106-0.469h12.825z"></path>
</svg>
