<!-- Generated by IcoMoon.io -->
<svg version="1.1" xmlns="http://www.w3.org/2000/svg" width="24" height="24" viewBox="0 0 24 24">
<title>leave_bags_at_home</title>
<path fill="#91908d" d="M11.85 9.6h0.75v0.75l1.387 1.387v-2.137h1.2v3.337l2.4 2.4v-6.525q0-0.675-0.469-1.144t-1.106-0.469h-1.613v-2.4q0-0.338-0.244-0.563t-0.544-0.225h-3.225q-0.3 0-0.544 0.225t-0.244 0.563v2.4h-0.15zM11.212 5.588h1.575v1.612h-1.575v-1.612zM19.35 19.35l-14.7-14.7-1.125 1.125 2.888 2.888v8.925q0 0.675 0.469 1.144t1.106 0.469q0 0.337 0.244 0.563t0.581 0.225q0.3 0 0.544-0.225t0.244-0.563h4.8q0 0.337 0.244 0.563t0.544 0.225q0.338 0 0.581-0.225t0.244-0.563q0.375 0 0.75-0.188l1.462 1.462zM8.813 16.8v-5.737l1.2 1.2v4.537h-1.2zM11.4 16.8v-3.15l1.2 1.2v1.95h-1.2zM13.987 16.8v-0.525l0.563 0.525h-0.563z"></path>
</svg>
