<!-- Generated by IcoMoon.io -->
<svg version="1.1" xmlns="http://www.w3.org/2000/svg" width="40" height="40" viewBox="0 0 40 40">
<title>li-basic_rss</title>
<path fill="none" stroke-linejoin="bevel" stroke-linecap="butt" stroke-miterlimit="10" stroke-width="1.25" stroke="#91908d" d="M35.526 32c0-6.708-2.402-12.856-6.393-17.628"></path>
<path fill="none" stroke-linejoin="bevel" stroke-linecap="butt" stroke-miterlimit="10" stroke-width="1.25" stroke="#91908d" d="M29.133 14.372c-5.044-6.034-12.627-9.872-21.107-9.872"></path>
<path fill="none" stroke-linejoin="bevel" stroke-linecap="butt" stroke-miterlimit="10" stroke-width="1.25" stroke="#91908d" d="M29.884 32c0-12.072-9.787-21.859-21.859-21.859"></path>
<path fill="none" stroke-linejoin="bevel" stroke-linecap="butt" stroke-miterlimit="10" stroke-width="1.25" stroke="#91908d" d="M24.243 32c0-8.956-7.261-16.218-16.218-16.218"></path>
<path fill="none" stroke-linejoin="bevel" stroke-linecap="butt" stroke-miterlimit="10" stroke-width="1.25" stroke="#91908d" d="M18.602 32c0-5.842-4.736-10.577-10.577-10.577"></path>
<path fill="none" stroke-linejoin="bevel" stroke-linecap="butt" stroke-miterlimit="10" stroke-width="1.25" stroke="#91908d" d="M11.551 32c0 1.947-1.578 3.526-3.526 3.526s-3.526-1.578-3.526-3.526c0-1.947 1.578-3.526 3.526-3.526s3.526 1.578 3.526 3.526z"></path>
</svg>
