<!-- Generated by IcoMoon.io -->
<svg version="1.1" xmlns="http://www.w3.org/2000/svg" width="40" height="40" viewBox="0 0 40 40">
<title>li-ecommerce_recept_colon</title>
<path fill="none" stroke-linejoin="miter" stroke-linecap="butt" stroke-miterlimit="10" stroke-width="1.25" stroke="#91908d" d="M30 35.499v-31h-13l-7 7v24.001l2-1 2 1 2-1 2 1 2-1 2 1 2-1 2 1 2-1z"></path>
<path fill="none" stroke-linejoin="miter" stroke-linecap="butt" stroke-miterlimit="10" stroke-width="1.25" stroke="#91908d" d="M10 11.499h7v-7"></path>
<path fill="none" stroke-linejoin="miter" stroke-linecap="butt" stroke-miterlimit="10" stroke-width="1.25" stroke="#91908d" d="M25 25c0 0-0.466 2-4 2s-4.5-2.859-4.5-6 0.967-5.5 4.5-5.5c3.534 0 4 1.5 4 1.5"></path>
<path fill="none" stroke-linejoin="miter" stroke-linecap="butt" stroke-miterlimit="10" stroke-width="1.25" stroke="#91908d" d="M22.934 14l-6.934 13.5"></path>
<path fill="none" stroke-linejoin="miter" stroke-linecap="butt" stroke-miterlimit="10" stroke-width="1.25" stroke="#91908d" d="M25 14.5l-7 13.5"></path>
</svg>
