<!-- Generated by IcoMoon.io -->
<svg version="1.1" xmlns="http://www.w3.org/2000/svg" width="40" height="40" viewBox="0 0 40 40">
<title>li-ecommerce_bath</title>
<path fill="none" stroke-linejoin="miter" stroke-linecap="butt" stroke-miterlimit="10" stroke-width="1.25" stroke="#91908d" d="M30.96 9.041c6.054 6.052 6.054 15.866 0 21.919-6.053 6.054-15.867 6.054-21.92 0-6.054-6.052-6.054-15.866 0-21.919 6.053-6.054 15.866-6.054 21.92 0z"></path>
<path fill="none" stroke-linejoin="miter" stroke-linecap="butt" stroke-miterlimit="10" stroke-width="1.25" stroke="#91908d" d="M16 28v-16"></path>
<path fill="none" stroke-linejoin="miter" stroke-linecap="butt" stroke-miterlimit="10" stroke-width="1.25" stroke="#91908d" d="M16 12.5h2.721c0 0 4.281-0.391 4.281 3.5s-4.281 3.5-4.281 3.5h-2.721"></path>
<path fill="none" stroke-linejoin="miter" stroke-linecap="butt" stroke-miterlimit="10" stroke-width="1.25" stroke="#91908d" d="M16 19.5h3.111c0 0 4.891-0.446 4.891 4s-4.891 4-4.891 4h-3.111"></path>
<path fill="#91908d" d="M18.5 10.5h1v19.5h-1v-19.5z"></path>
</svg>
