<!-- Generated by IcoMoon.io -->
<svg version="1.1" xmlns="http://www.w3.org/2000/svg" width="40" height="40" viewBox="0 0 40 40">
<title>li-weather_wind_N</title>
<path fill="none" stroke-linejoin="miter" stroke-linecap="butt" stroke-miterlimit="10" stroke-width="1.25" stroke="#91908d" d="M35.5 20c0 8.56-6.94 15.5-15.5 15.5s-15.5-6.94-15.5-15.5c0-8.56 6.94-15.5 15.5-15.5s15.5 6.94 15.5 15.5z"></path>
<path fill="none" stroke-linejoin="miter" stroke-linecap="butt" stroke-miterlimit="10" stroke-width="1.25" stroke="#91908d" d="M22 20c0 1.105-0.895 2-2 2s-2-0.895-2-2c0-1.105 0.895-2 2-2s2 0.895 2 2z"></path>
<path fill="none" stroke-linejoin="miter" stroke-linecap="butt" stroke-miterlimit="10" stroke-width="1.25" stroke="#91908d" d="M26 20c0-3.314-6-12.5-6-12.5s-6 9.186-6 12.5 2.686 6 6 6 6-2.686 6-6z"></path>
</svg>
