<!-- Generated by IcoMoon.io -->
<svg version="1.1" xmlns="http://www.w3.org/2000/svg" width="40" height="40" viewBox="0 0 40 40">
<title>li-weather_storm_sun</title>
<path fill="none" stroke-linejoin="miter" stroke-linecap="butt" stroke-miterlimit="10" stroke-width="1.25" stroke="#91908d" d="M32 26.5c2.095 0 3.5-1.405 3.5-3.5s-1.405-4.5-3.5-4.5c0-5.238-4.762-9-10-9-4.636 0-8.674 3.106-9.5 7.5 0 0-0.616 0-1 0-2.619 0-4.5 2.381-4.5 5s1.881 4.5 4.5 4.5h20.5z"></path>
<path fill="none" stroke-linejoin="miter" stroke-linecap="butt" stroke-miterlimit="10" stroke-width="1.25" stroke="#91908d" d="M18.999 9.876c-1.103-0.862-2.491-1.376-3.999-1.376-3.59 0-6.5 2.91-6.5 6.5 0 1.289 0.354 1.989 1 3"></path>
<path fill="none" stroke-linejoin="miter" stroke-linecap="butt" stroke-miterlimit="10" stroke-width="1.25" stroke="#91908d" d="M7 15h-3"></path>
<path fill="none" stroke-linejoin="miter" stroke-linecap="butt" stroke-miterlimit="10" stroke-width="1.25" stroke="#91908d" d="M15 7v-3"></path>
<path fill="none" stroke-linejoin="miter" stroke-linecap="butt" stroke-miterlimit="10" stroke-width="1.25" stroke="#91908d" d="M9 9l-3-3"></path>
<path fill="none" stroke-linejoin="miter" stroke-linecap="butt" stroke-miterlimit="10" stroke-width="1.25" stroke="#91908d" d="M20 28l-1.5 3.5h2.5l-2 3.5"></path>
<path fill="none" stroke-linejoin="miter" stroke-linecap="butt" stroke-miterlimit="10" stroke-width="1.25" stroke="#91908d" d="M25 28l-1.5 3.5h2.5l-2 3.5"></path>
<path fill="none" stroke-linejoin="miter" stroke-linecap="butt" stroke-miterlimit="10" stroke-width="1.25" stroke="#91908d" d="M15 28l-1.5 3.5h2.5l-2 3.5"></path>
</svg>
