<!-- Generated by IcoMoon.io -->
<svg version="1.1" xmlns="http://www.w3.org/2000/svg" width="24" height="24" viewBox="0 0 24 24">
<title>location_city</title>
<path fill="#91908d" d="M17.587 14.4v-1.612h-1.575v1.612h1.575zM17.587 17.587v-1.575h-1.575v1.575h1.575zM12.788 7.988v-1.575h-1.575v1.575h1.575zM12.788 11.212v-1.612h-1.575v1.612h1.575zM12.788 14.4v-1.612h-1.575v1.612h1.575zM12.788 17.587v-1.575h-1.575v1.575h1.575zM7.988 11.212v-1.612h-1.575v1.612h1.575zM7.988 14.4v-1.612h-1.575v1.612h1.575zM7.988 17.587v-1.575h-1.575v1.575h1.575zM14.4 11.212h4.8v7.988h-14.4v-11.213h4.8v-1.575l2.4-2.4 2.4 2.4v4.8z"></path>
</svg>
