<!-- Generated by IcoMoon.io -->
<svg version="1.1" xmlns="http://www.w3.org/2000/svg" width="24" height="24" viewBox="0 0 24 24">
<title>local_florist</title>
<path fill="#91908d" d="M12 6.788q-0.825 0-1.406 0.6t-0.581 1.425 0.581 1.406 1.406 0.581 1.406-0.581 0.581-1.406-0.581-1.425-1.406-0.6zM6.863 10.613q0-1.238 1.162-1.8-1.162-0.563-1.162-1.8 0-0.825 0.6-1.425t1.425-0.6q0.563 0 1.125 0.375v-0.15q0-0.825 0.581-1.425t1.406-0.6 1.406 0.6 0.581 1.425v0.15q0.6-0.375 1.125-0.375 0.825 0 1.425 0.6t0.6 1.425q0 1.238-1.163 1.8 1.163 0.563 1.163 1.8 0 0.825-0.6 1.406t-1.425 0.581q-0.638 0-1.125-0.337v0.15q0 0.825-0.581 1.406t-1.406 0.581-1.406-0.581-0.581-1.406v-0.15q-0.525 0.337-1.125 0.337-0.825 0-1.425-0.581t-0.6-1.406zM12 19.987q-3 0-5.1-2.119t-2.1-5.081q3 0 5.1 2.119t2.1 5.081zM12 19.987q0-2.962 2.1-5.081t5.1-2.119q0 2.962-2.1 5.081t-5.1 2.119z"></path>
</svg>
