<!-- Generated by IcoMoon.io -->
<svg version="1.1" xmlns="http://www.w3.org/2000/svg" width="24" height="24" viewBox="0 0 24 24">
<title>local_attraction</title>
<path fill="#91908d" d="M14.85 15.825l-0.863-3.263 2.625-2.175-3.375-0.188-1.237-3.15-1.238 3.15-3.412 0.188 2.662 2.175-0.862 3.262 2.85-1.837zM18.413 12q0 0.638 0.469 1.125t1.106 0.487v3.187q0 0.638-0.469 1.125t-1.106 0.488h-12.825q-0.638 0-1.106-0.488t-0.469-1.125v-3.187q0.675 0 1.125-0.469t0.45-1.144q0-0.637-0.469-1.125t-1.106-0.487v-3.188q0-0.638 0.469-1.125t1.106-0.487h12.825q0.637 0 1.106 0.487t0.469 1.125v3.188q-0.637 0-1.106 0.487t-0.469 1.125z"></path>
</svg>
