<!-- Generated by IcoMoon.io -->
<svg version="1.1" xmlns="http://www.w3.org/2000/svg" width="24" height="24" viewBox="0 0 24 24">
<title>lock_clock</title>
<path fill="#91908d" d="M13.987 13.763l2.325 1.35-0.638 1.050-2.888-1.763v-4.012h1.2v3.375zM19.987 13.612q0 1.313-0.487 2.475t-1.369 2.044-2.044 1.369-2.475 0.487q-1.237 0-2.306-0.412t-1.931-1.163h-3.787q-0.675 0-1.125-0.469t-0.45-1.144v-7.2q0-0.675 0.469-1.125t1.106-0.488v-0.375q0-1.012 0.488-1.819t1.313-1.294 1.8-0.487q0.938 0 1.725 0.431t1.275 1.162 0.563 1.669q0.45-0.075 0.862-0.075 1.313 0 2.475 0.506t2.044 1.387 1.369 2.025 0.487 2.494zM7.2 7.988h4.012v-0.563q-0.075-0.788-0.656-1.313t-1.369-0.525q-0.825 0-1.406 0.6t-0.581 1.425v0.375zM18.413 13.612q0-1.35-0.656-2.438t-1.744-1.725-2.4-0.638q-1.35 0-2.438 0.638t-1.725 1.725-0.637 2.438q0 1.313 0.637 2.4t1.725 1.744 2.438 0.656q1.313 0 2.4-0.656t1.744-1.744 0.656-2.4z"></path>
</svg>
