<!-- Generated by IcoMoon.io -->
<svg version="1.1" xmlns="http://www.w3.org/2000/svg" width="24" height="24" viewBox="0 0 24 24">
<title>looks_3</title>
<path fill="#91908d" d="M14.4 10.8v-1.2q0-0.675-0.45-1.144t-1.125-0.469h-3.225v1.613h3.225v1.612h-1.613v1.575h1.613v1.612h-3.225v1.613h3.225q0.675 0 1.125-0.469t0.45-1.144v-1.2q0-0.525-0.337-0.863t-0.862-0.337q0.525 0 0.862-0.337t0.337-0.863zM17.625 4.8q0.638 0 1.106 0.487t0.469 1.125v11.175q0 0.637-0.469 1.125t-1.106 0.488h-11.212q-0.638 0-1.125-0.488t-0.487-1.125v-11.175q0-0.637 0.487-1.125t1.125-0.487h11.212z"></path>
</svg>
