<!-- Generated by IcoMoon.io -->
<svg version="1.1" xmlns="http://www.w3.org/2000/svg" width="40" height="40" viewBox="0 0 40 40">
<title>mi-bucket</title>
<path fill="#91908d" d="M26.667 33.333h-18.667c-0.667 0-1.2-0.533-1.333-1.2l-2.667-24c0-0.4 0.133-0.8 0.267-1.067 0.267-0.267 0.667-0.4 1.067-0.4h24c0.4 0 0.8 0.133 0.933 0.4 0.267 0.267 0.4 0.667 0.4 1.067l-2.667 24c-0.133 0.667-0.667 1.2-1.333 1.2zM9.2 30.667h16.267l2.4-21.333h-21.067l2.4 21.333z"></path>
<path fill="#91908d" d="M33.733 24.8c-1.2 0-3.067-0.533-6.533-2.4-2.267-1.2-5.067-2.933-8.4-5.067-1.333-0.933-2.267-1.467-2.267-1.467-0.533-0.533-0.667-1.333-0.267-2s1.2-0.8 1.867-0.4c0 0 0.8 0.533 2.133 1.467 1.2 0.8 4.933 3.2 8.267 4.933 2.667 1.467 4 1.867 4.667 2-0.4-1.2-2-3.2-5.467-5.867-0.533-0.4-0.667-1.333-0.267-1.867s1.333-0.667 1.867-0.267c4.533 3.467 6.667 6.267 6.667 8.533 0 0.8-0.4 1.467-0.933 1.867-0.4 0.4-0.8 0.533-1.333 0.533z"></path>
<path fill="#91908d" d="M20 14.667c0 1.473-1.194 2.667-2.667 2.667s-2.667-1.194-2.667-2.667c0-1.473 1.194-2.667 2.667-2.667s2.667 1.194 2.667 2.667z"></path>
<path fill="#91908d" d="M17.333 18c-1.867 0-3.333-1.467-3.333-3.333s1.467-3.333 3.333-3.333 3.333 1.467 3.333 3.333-1.467 3.333-3.333 3.333zM17.333 12.667c-1.067 0-2 0.933-2 2s0.933 2 2 2 2-0.933 2-2-0.933-2-2-2z"></path>
</svg>
