<!-- Generated by IcoMoon.io -->
<svg version="1.1" xmlns="http://www.w3.org/2000/svg" width="40" height="40" viewBox="0 0 40 40">
<title>mi-drawer</title>
<path fill="#91908d" d="M32 36h-24c-0.8 0-1.333-0.533-1.333-1.333v-14.667c0-0.8 0.533-1.333 1.333-1.333h24c0.8 0 1.333 0.533 1.333 1.333v14.667c0 0.8-0.533 1.333-1.333 1.333zM9.333 33.333h21.333v-12h-21.333v12z"></path>
<path fill="#91908d" d="M22.667 26.667h-5.333c-0.8 0-1.333-0.533-1.333-1.333s0.533-1.333 1.333-1.333h5.333c0.8 0 1.333 0.533 1.333 1.333s-0.533 1.333-1.333 1.333z"></path>
<path fill="#91908d" d="M32 21.333h-24c-0.8 0-1.333-0.533-1.333-1.333v-14.667c0-0.8 0.533-1.333 1.333-1.333h24c0.8 0 1.333 0.533 1.333 1.333v14.667c0 0.8-0.533 1.333-1.333 1.333zM9.333 18.667h21.333v-12h-21.333v12z"></path>
<path fill="#91908d" d="M22.667 12h-5.333c-0.8 0-1.333-0.533-1.333-1.333s0.533-1.333 1.333-1.333h5.333c0.8 0 1.333 0.533 1.333 1.333s-0.533 1.333-1.333 1.333z"></path>
</svg>
