<!-- Generated by IcoMoon.io -->
<svg version="1.1" xmlns="http://www.w3.org/2000/svg" width="40" height="40" viewBox="0 0 40 40">
<title>mi-euro</title>
<path fill="#91908d" d="M20 36c-8.8 0-16-7.2-16-16s7.2-16 16-16c8.8 0 16 7.2 16 16s-7.2 16-16 16zM20 6.667c-7.333 0-13.333 6-13.333 13.333s6 13.333 13.333 13.333c7.333 0 13.333-6 13.333-13.333s-6-13.333-13.333-13.333z"></path>
<path fill="#91908d" d="M21.333 28c-4.4 0-8-3.6-8-8s3.6-8 8-8c1.733 0 3.467 0.533 4.8 1.6 0.533 0.4 0.667 1.333 0.267 1.867s-1.333 0.667-1.867 0.267c-0.933-0.667-2-1.067-3.2-1.067-2.933 0-5.333 2.4-5.333 5.333s2.4 5.333 5.333 5.333c1.2 0 2.267-0.4 3.2-1.067 0.533-0.4 1.467-0.267 1.867 0.267s0.267 1.467-0.267 1.867c-1.333 1.067-3.067 1.6-4.8 1.6z"></path>
<path fill="#91908d" d="M21.333 21.333h-9.333c-0.8 0-1.333-0.533-1.333-1.333s0.533-1.333 1.333-1.333h9.333c0.8 0 1.333 0.533 1.333 1.333s-0.533 1.333-1.333 1.333z"></path>
</svg>
