<!-- Generated by IcoMoon.io -->
<svg version="1.1" xmlns="http://www.w3.org/2000/svg" width="40" height="40" viewBox="0 0 40 40">
<title>mi-fast-forward</title>
<path fill="#91908d" d="M8 29.333c-0.267 0-0.4 0-0.667-0.133-0.4-0.267-0.667-0.667-0.667-1.2v-16c0-0.533 0.267-0.933 0.667-1.2s0.933-0.267 1.333 0l12 8c0.4 0.267 0.533 0.667 0.533 1.067s-0.267 0.8-0.533 1.067l-12 8c-0.133 0.267-0.4 0.4-0.667 0.4zM9.333 14.533v11.067l8.267-5.467-8.267-5.6z"></path>
<path fill="#91908d" d="M20 29.333c-0.267 0-0.4 0-0.667-0.133-0.4-0.267-0.667-0.667-0.667-1.2v-16c0-0.533 0.267-0.933 0.667-1.2s0.933-0.267 1.333 0l12 8c0.4 0.267 0.533 0.667 0.533 1.067s-0.267 0.8-0.533 1.067l-12 8c-0.133 0.267-0.4 0.4-0.667 0.4zM21.333 14.533v11.067l8.267-5.467-8.267-5.6z"></path>
<path fill="#91908d" d="M32 29.333c-0.8 0-1.333-0.533-1.333-1.333v-16c0-0.8 0.533-1.333 1.333-1.333s1.333 0.533 1.333 1.333v16c0 0.8-0.533 1.333-1.333 1.333z"></path>
</svg>
