<!-- Generated by IcoMoon.io -->
<svg version="1.1" xmlns="http://www.w3.org/2000/svg" width="40" height="40" viewBox="0 0 40 40">
<title>mi-first-aid</title>
<path fill="#91908d" d="M14.667 9.333h-2.667c0-2.267 1.733-4 4-4v2.667c-0.8 0-1.333 0.533-1.333 1.333z"></path>
<path fill="#91908d" d="M28 9.333h-2.667c0-0.8-0.533-1.333-1.333-1.333v-2.667c2.267 0 4 1.733 4 4z"></path>
<path fill="#91908d" d="M28 13.333h-16v-4h2.667v1.333h10.667v-1.333h2.667z"></path>
<path fill="#91908d" d="M16 5.333h8v2.667h-8v-2.667z"></path>
<path fill="#91908d" d="M32 34.667h-24c-2.267 0-4-1.733-4-4v-16c0-2.267 1.733-4 4-4h24c2.267 0 4 1.733 4 4v16c0 2.267-1.733 4-4 4zM8 13.333c-0.8 0-1.333 0.533-1.333 1.333v16c0 0.8 0.533 1.333 1.333 1.333h24c0.8 0 1.333-0.533 1.333-1.333v-16c0-0.8-0.533-1.333-1.333-1.333h-24z"></path>
<path fill="#91908d" d="M20 29.333c-0.8 0-1.333-0.533-1.333-1.333v-10.667c0-0.8 0.533-1.333 1.333-1.333s1.333 0.533 1.333 1.333v10.667c0 0.8-0.533 1.333-1.333 1.333z"></path>
<path fill="#91908d" d="M25.333 24h-10.667c-0.8 0-1.333-0.533-1.333-1.333s0.533-1.333 1.333-1.333h10.667c0.8 0 1.333 0.533 1.333 1.333s-0.533 1.333-1.333 1.333z"></path>
</svg>
