<!-- Generated by IcoMoon.io -->
<svg version="1.1" xmlns="http://www.w3.org/2000/svg" width="40" height="40" viewBox="0 0 40 40">
<title>mi-flag</title>
<path fill="#91908d" d="M9.333 36h-4c-0.8 0-1.333-0.533-1.333-1.333v-29.333c0-0.8 0.533-1.333 1.333-1.333h4c0.8 0 1.333 0.533 1.333 1.333v29.333c0 0.8-0.533 1.333-1.333 1.333zM6.667 33.333h1.333v-26.667h-1.333v26.667z"></path>
<path fill="#91908d" d="M17.333 24c-2.8 0-8.133-1.333-8.267-1.333-0.667-0.133-1.2-0.933-0.933-1.6 0.133-0.667 0.933-1.2 1.6-0.933 0 0 5.2 1.333 7.733 1.333 1.2 0 3.2-0.267 5.067-0.667 2.133-0.4 4.133-0.667 5.6-0.667 1.733 0 3.867 0.533 5.333 0.933v-13.467c-1.467-0.267-3.733-0.933-5.467-0.933-1.2 0-3.2 0.267-5.067 0.667-2.133 0.4-4.133 0.667-5.6 0.667-2.8 0-8.133-1.333-8.267-1.333-0.8-0.267-1.2-0.933-1.067-1.6 0.267-0.8 0.933-1.2 1.6-1.067 0 0 5.2 1.333 7.733 1.333 1.2 0 3.2-0.267 5.067-0.667 2.133-0.4 4.133-0.667 5.6-0.667 2.8 0 6.933 1.333 7.067 1.467 0.533 0.133 0.933 0.667 0.933 1.2v16c0 0.4-0.267 0.8-0.533 1.067-0.4 0.267-0.8 0.267-1.2 0.133 0 0-3.867-1.2-6.267-1.2-1.2 0-3.2 0.267-5.067 0.667-2.133 0.4-4.133 0.667-5.6 0.667z"></path>
</svg>
