<!-- Generated by IcoMoon.io -->
<svg version="1.1" xmlns="http://www.w3.org/2000/svg" width="40" height="40" viewBox="0 0 40 40">
<title>mi-life-buoy</title>
<path fill="#91908d" d="M20 36c-8.8 0-16-7.2-16-16s7.2-16 16-16 16 7.2 16 16-7.2 16-16 16zM20 6.667c-7.333 0-13.333 6-13.333 13.333s6 13.333 13.333 13.333 13.333-6 13.333-13.333-6-13.333-13.333-13.333z"></path>
<path fill="#91908d" d="M20 29.333c-5.2 0-9.333-4.133-9.333-9.333s4.133-9.333 9.333-9.333 9.333 4.133 9.333 9.333-4.133 9.333-9.333 9.333zM20 13.333c-3.733 0-6.667 2.933-6.667 6.667s2.933 6.667 6.667 6.667 6.667-2.933 6.667-6.667-2.933-6.667-6.667-6.667z"></path>
<path fill="#91908d" d="M13.2 17.067c-0.267 0-0.533-0.133-0.667-0.267l-5.6-3.6c-0.667-0.4-0.8-1.2-0.4-1.733 0.4-0.667 1.2-0.8 1.867-0.533l5.6 3.6c0.667 0.4 0.8 1.2 0.4 1.867-0.267 0.4-0.667 0.667-1.2 0.667z"></path>
<path fill="#91908d" d="M32.4 29.2c-0.267 0-0.533-0.133-0.667-0.267l-5.6-3.6c-0.667-0.4-0.8-1.2-0.4-1.867s1.2-0.8 1.867-0.4l5.6 3.6c0.667 0.4 0.8 1.2 0.4 1.867-0.4 0.4-0.8 0.667-1.2 0.667z"></path>
<path fill="#91908d" d="M7.6 29.2c-0.4 0-0.933-0.267-1.067-0.667-0.4-0.667-0.267-1.467 0.4-1.867l5.6-3.6c0.667-0.4 1.467-0.267 1.867 0.4s0.267 1.467-0.4 1.867l-5.6 3.6c-0.267 0.267-0.533 0.267-0.8 0.267z"></path>
<path fill="#91908d" d="M26.8 17.067c-0.4 0-0.933-0.267-1.067-0.667-0.4-0.667-0.267-1.467 0.4-1.867l5.6-3.6c0.667-0.4 1.467-0.267 1.867 0.4s0.267 1.467-0.4 1.867l-5.6 3.6c-0.4 0.133-0.667 0.267-0.8 0.267z"></path>
</svg>
