<!-- Generated by IcoMoon.io -->
<svg version="1.1" xmlns="http://www.w3.org/2000/svg" width="40" height="40" viewBox="0 0 40 40">
<title>mi-mobile</title>
<path fill="#91908d" d="M24.267 36h-8.533c-2.8 0-5.067-2.267-5.067-5.067v-21.867c0-2.8 2.267-5.067 5.067-5.067h8.4c2.933 0 5.2 2.267 5.2 5.067v21.733c0 2.933-2.267 5.2-5.067 5.2zM15.733 6.667c-1.333 0-2.4 1.067-2.4 2.4v21.733c0 1.333 1.067 2.4 2.4 2.4h8.4c1.333 0 2.4-1.067 2.4-2.4v-21.733c0-1.333-1.067-2.4-2.4-2.4h-8.4z"></path>
<path fill="#91908d" d="M12 28h16v2.667h-16v-2.667z"></path>
<path fill="#91908d" d="M12 9.333h16v2.667h-16v-2.667z"></path>
</svg>
