<!-- Generated by IcoMoon.io -->
<svg version="1.1" xmlns="http://www.w3.org/2000/svg" width="40" height="40" viewBox="0 0 40 40">
<title>mi-power-on</title>
<path fill="#91908d" d="M20 36c-7.333 0-13.333-6-13.333-13.333 0-5.467 3.2-10.267 8.267-12.267 0.667-0.267 1.467 0 1.733 0.667s0 1.467-0.667 1.733c-4.133 1.6-6.667 5.467-6.667 9.867 0 5.867 4.8 10.667 10.667 10.667s10.667-4.8 10.667-10.667c0-4.4-2.533-8.267-6.533-9.867-0.667-0.267-1.067-1.067-0.667-1.733 0.267-0.667 1.067-1.067 1.733-0.667 4.933 2 8.133 6.8 8.133 12.267 0 7.333-6 13.333-13.333 13.333z"></path>
<path fill="#91908d" d="M20 22.667c-0.8 0-1.333-0.533-1.333-1.333v-16c0-0.8 0.533-1.333 1.333-1.333s1.333 0.533 1.333 1.333v16c0 0.8-0.533 1.333-1.333 1.333z"></path>
</svg>
