<!-- Generated by IcoMoon.io -->
<svg version="1.1" xmlns="http://www.w3.org/2000/svg" width="40" height="40" viewBox="0 0 40 40">
<title>mi-refresh</title>
<path fill="#91908d" d="M18.667 32c-6.667 0-12-5.333-12-12 0-3.2 1.2-6.267 3.467-8.533s5.333-3.467 8.533-3.467c6.667 0 12 5.333 12 12 0 0.8-0.533 1.333-1.333 1.333s-1.333-0.533-1.333-1.333c0-5.2-4.133-9.333-9.333-9.333-2.533 0-4.8 0.933-6.667 2.667-1.733 1.733-2.667 4.133-2.667 6.667 0 5.2 4.133 9.333 9.333 9.333 2.533 0 4.8-0.933 6.667-2.667 0.533-0.533 1.333-0.533 1.867 0s0.533 1.333 0 1.867c-2.267 2.267-5.333 3.467-8.533 3.467z"></path>
<path fill="#91908d" d="M29.333 21.333c-0.267 0-0.533-0.133-0.8-0.267l-4.533-3.333c-0.533-0.4-0.667-1.333-0.267-1.867s1.2-0.667 1.867-0.267l4.533 3.333c0.533 0.4 0.667 1.333 0.267 1.867-0.267 0.4-0.667 0.533-1.067 0.533z"></path>
<path fill="#91908d" d="M29.333 21.333c-0.267 0-0.533-0.133-0.8-0.267-0.533-0.4-0.667-1.333-0.267-1.867l3.333-4.533c0.4-0.533 1.333-0.667 1.867-0.267s0.667 1.333 0.267 1.867l-3.333 4.533c-0.267 0.4-0.667 0.533-1.067 0.533z"></path>
</svg>
