<!-- Generated by IcoMoon.io -->
<svg version="1.1" xmlns="http://www.w3.org/2000/svg" width="40" height="40" viewBox="0 0 40 40">
<title>mi-toggles</title>
<path fill="#91908d" d="M29.333 18.667h-18.667c-3.6 0-6.667-2.933-6.667-6.667s2.933-6.667 6.667-6.667h18.667c3.6 0 6.667 2.933 6.667 6.667s-2.933 6.667-6.667 6.667zM10.667 8c-2.267 0-4 1.733-4 4s1.733 4 4 4h18.667c2.133 0 4-1.733 4-4s-1.733-4-4-4h-18.667z"></path>
<path fill="#91908d" d="M29.333 34.667h-18.667c-3.6 0-6.667-2.933-6.667-6.667s2.933-6.667 6.667-6.667h18.667c3.6 0 6.667 2.933 6.667 6.667s-2.933 6.667-6.667 6.667zM10.667 24c-2.133 0-4 1.733-4 4s1.733 4 4 4h18.667c2.133 0 4-1.733 4-4s-1.733-4-4-4h-18.667z"></path>
<path fill="#91908d" d="M10.667 18.667c-3.733 0-6.667-2.933-6.667-6.667s2.933-6.667 6.667-6.667 6.667 2.933 6.667 6.667-2.933 6.667-6.667 6.667zM10.667 8c-2.267 0-4 1.733-4 4s1.733 4 4 4 4-1.733 4-4-1.733-4-4-4z"></path>
<path fill="#91908d" d="M29.333 34.667c-3.733 0-6.667-2.933-6.667-6.667s2.933-6.667 6.667-6.667 6.667 2.933 6.667 6.667-2.933 6.667-6.667 6.667zM29.333 24c-2.267 0-4 1.733-4 4s1.733 4 4 4 4-1.733 4-4-1.733-4-4-4z"></path>
</svg>
