<!-- Generated by IcoMoon.io -->
<svg version="1.1" xmlns="http://www.w3.org/2000/svg" width="40" height="40" viewBox="0 0 40 40">
<title>mi-video-camera</title>
<path fill="#91908d" d="M25.333 32h-17.333c-2.267 0-4-1.733-4-4v-16c0-2.267 1.733-4 4-4h17.333c2.267 0 4 1.733 4 4v16c0 2.267-1.733 4-4 4zM8 10.667c-0.8 0-1.333 0.533-1.333 1.333v16c0 0.8 0.533 1.333 1.333 1.333h17.333c0.8 0 1.333-0.533 1.333-1.333v-16c0-0.8-0.533-1.333-1.333-1.333h-17.333z"></path>
<path fill="#91908d" d="M34.667 26.667c-0.133 0-0.4 0-0.533-0.133l-6.667-2.667c-0.533-0.133-0.8-0.667-0.8-1.2v-5.333c0-0.533 0.267-1.067 0.8-1.2l6.667-2.667c0.4-0.133 0.933-0.133 1.2 0.133 0.4 0.267 0.667 0.667 0.667 1.067v10.667c0 0.4-0.267 0.8-0.533 1.067-0.267 0.133-0.533 0.267-0.8 0.267zM29.333 21.733l4 1.6v-6.667l-4 1.6v3.467z"></path>
<path fill="#91908d" d="M11.333 18.667c-1.867 0-3.333-1.467-3.333-3.333s1.467-3.333 3.333-3.333 3.333 1.467 3.333 3.333-1.467 3.333-3.333 3.333zM11.333 14.667c-0.4 0-0.667 0.267-0.667 0.667s0.267 0.667 0.667 0.667 0.667-0.267 0.667-0.667-0.267-0.667-0.667-0.667z"></path>
</svg>
