<!-- Generated by IcoMoon.io -->
<svg version="1.1" xmlns="http://www.w3.org/2000/svg" width="24" height="24" viewBox="0 0 24 24">
<title>mic_none</title>
<path fill="#91908d" d="M16.237 11.212h1.35q0 2.025-1.406 3.544t-3.394 1.819v2.625h-1.575v-2.625q-1.988-0.3-3.394-1.819t-1.406-3.544h1.35q0 1.762 1.256 2.906t2.981 1.144 2.981-1.144 1.256-2.906zM11.025 6.337v4.95q0 0.375 0.281 0.656t0.694 0.281q0.375 0 0.656-0.262t0.281-0.675l0.038-4.95q0-0.413-0.3-0.694t-0.675-0.281-0.675 0.281-0.3 0.694zM12 13.612q-0.975 0-1.688-0.713t-0.712-1.688v-4.8q0-0.975 0.712-1.688t1.688-0.713 1.688 0.713 0.712 1.688v4.8q0 0.975-0.712 1.688t-1.688 0.713z"></path>
</svg>
