<!-- Generated by IcoMoon.io -->
<svg version="1.1" xmlns="http://www.w3.org/2000/svg" width="24" height="24" viewBox="0 0 24 24">
<title>model_training</title>
<path fill="#91908d" d="M14.813 13.2q0 0.6-0.3 1.125t-0.713 1.013-0.712 0.956-0.3 0.919h-1.575q0-0.45-0.3-0.919t-0.713-0.956-0.712-1.013-0.3-1.125q0-0.787 0.394-1.406t1.012-1.012 1.406-0.394v0q0.787 0 1.406 0.394t1.013 1.012 0.394 1.406zM12.788 18h-1.575v1.2h1.575v-1.2zM17.587 12.788q0 1.012-0.337 1.912t-0.9 1.65l1.125 1.125q0.788-0.938 1.256-2.138t0.469-2.55q0-1.65-0.694-3.056t-1.819-2.419l-1.163 1.162q0.938 0.75 1.5 1.875t0.563 2.438zM15.188 6.413l-3.188-3.225v2.4q-1.5 0-2.794 0.563t-2.287 1.556-1.556 2.306-0.563 2.775q0 1.35 0.469 2.55t1.256 2.138l1.125-1.125q-0.563-0.75-0.9-1.65t-0.338-1.912q0-1.163 0.431-2.175t1.2-1.781 1.781-1.2 2.175-0.431v0 0 2.4z"></path>
</svg>
