<!-- Generated by IcoMoon.io -->
<svg version="1.1" xmlns="http://www.w3.org/2000/svg" width="73" height="40" viewBox="0 0 73 40">
<title>mp--1</title>
<path fill="#91908d" d="M62.182 20c0 8.838-7.162 16-16 16-4.343 0-8.276-1.737-11.159-4.547 1.277-1.676 2.199-3.334 2.924-5.519 1.85 2.563 4.841 4.247 8.236 4.247 5.615 0 10.182-4.567 10.182-10.182s-4.567-10.182-10.182-10.182c-3.395 0-6.385 1.684-8.239 4.247-3.686 5.103-0.084 8.335-4.852 15.116-2.935 4.177-7.744 6.819-13.091 6.819-8.838 0-16-7.162-16-16s7.162-16 16-16c4.343 0 8.276 1.737 11.159 4.547-1.277 1.676-2.199 3.334-2.921 5.519-1.853-2.563-4.844-4.247-8.239-4.247-5.615 0-10.182 4.567-10.182 10.182s4.567 10.182 10.182 10.182c5.719 0 10.182-4.765 10.182-10.182 0-8.881 7.232-16 16-16 8.838 0 16 7.162 16 16z"></path>
</svg>
