<!-- Generated by IcoMoon.io -->
<svg version="1.1" xmlns="http://www.w3.org/2000/svg" width="36" height="40" viewBox="0 0 36 40">
<title>mp--spiral-1</title>
<path fill="#91908d" d="M22.596 29.623c-5.76 0.491-10.71-3.386-11.913-8.69-1.171-5.162 2.397-10.488 7.68-10.518 3.986-0.022 7.301 2.871 7.943 6.675 0.485 2.881-1.27 5.826-4.172 6.131-2.887 0.303-5.325-1.955-5.325-4.785 0-0.885 0.717-1.604 1.601-1.604s1.601 0.719 1.601 1.604c0 0.885 0.717 1.604 1.601 1.604s1.601-0.719 1.601-1.604c0-2.83-2.437-5.088-5.325-4.785-2.902 0.306-4.657 3.25-4.172 6.131 0.642 3.805 3.957 6.697 7.943 6.675 5.283-0.030 8.851-5.356 7.68-10.518-1.436-6.339-8.229-10.64-15.359-7.879-3.641 1.408-6.239 4.785-6.684 8.67-0.945 8.255 5.068 15.323 12.921 16.078 0.799 0.077 1.393 0.778 1.393 1.583 0 0.956-0.833 1.697-1.784 1.601-8.809-0.887-15.703-8.274-15.829-17.302-0.096-6.827 4.663-12.992 11.338-14.371 8.625-1.784 16.286 4.156 17.357 12.186 0.855 6.408-3.669 12.57-10.1 13.119z"></path>
</svg>
