<!-- Generated by IcoMoon.io -->
<svg version="1.1" xmlns="http://www.w3.org/2000/svg" width="34" height="40" viewBox="0 0 34 40">
<title>mp-9gag-</title>
<path fill="#91908d" d="M12.086 13.606c1.837 1.106 3.693 2.181 5.535 3.278 1.854-1.091 3.707-2.184 5.566-3.272-1.859-1.083-3.708-2.181-5.566-3.267-1.846 1.083-3.683 2.184-5.535 3.261zM4.047 12.002c4.525-2.672 9.049-5.339 13.577-8.002 4.525 2.664 9.056 5.32 13.574 7.994-0.006 5.342-0.008 10.685 0.002 16.029-4.517 2.678-9.054 5.315-13.579 7.978-4.537-2.685-9.098-5.326-13.621-8.034 1.804-1.054 3.607-2.11 5.416-3.157 2.734 1.616 5.477 3.222 8.205 4.85 2.724-1.64 5.482-3.214 8.194-4.87-0.023-2.138-0.002-4.275-0.012-6.413-2.724 1.621-5.453 3.237-8.182 4.851-4.528-2.642-9.043-5.31-13.573-7.955 0-1.091 0.002-2.181-0.002-3.27z"></path>
</svg>
