<!-- Generated by IcoMoon.io -->
<svg version="1.1" xmlns="http://www.w3.org/2000/svg" width="53" height="40" viewBox="0 0 53 40">
<title>mp-arrow_right-12</title>
<path fill="#91908d" d="M29.312 15.274l11.365 11.475c0.67 0.672 1.734 0.196 1.734-0.753v-4.932c0-1.178 1.034-2.131 2.208-2.131h-0.040c1.177 0 2.087 0.954 2.087 2.131v10.667c0 2.357-1.745 4.269-4.093 4.269h-10.638c-1.174 0-2.289-0.425-2.289-1.602v0.267c0-1.178 1.115-2.931 2.289-2.931h5.202c0.949 0 1.423-1.15 0.753-1.822l-10.080-10.108c-0.83-0.832-2.176-0.834-3.008 0l-0.877 0.879c-1.662 1.666-4.355 1.666-6.019 0l-13.397-13.043c-0.832-0.832-0.394-2.176-0.394-3.008v-0.004c2.128-0.834 2.57-0.836 3.402-0.002l11.697 11.531c0.832 0.834 2.276 0.832 3.108-0.002l0.919-0.875c1.659-1.67 4.406-1.673 6.070-0.004z"></path>
</svg>
