<!-- Generated by IcoMoon.io -->
<svg version="1.1" xmlns="http://www.w3.org/2000/svg" width="40" height="40" viewBox="0 0 40 40">
<title>mp-arrow_inside-4</title>
<path fill="#91908d" d="M34.4 32.8h-8v-6.619c0-0.712 0.862-1.069 1.366-0.565l2.691 2.693c0.624 0.624 1.638 0.624 2.262 0 0.626-0.626 0.626-1.638 0-2.262l-5.659-5.659c-1.248-1.25-3.274-1.25-4.522 0-0.906 0.906-1.098 1.096-5.659 5.658-0.624 0.626-0.624 1.638 0.002 2.264 0.624 0.624 1.637 0.624 2.262 0l2.69-2.69c0.504-0.504 1.366-0.147 1.366 0.565v6.616h-17.6c-0.883 0-1.6 0.717-1.6 1.6s0.717 1.6 1.6 1.6h28.8c0.883 0 1.6-0.717 1.6-1.6s-0.717-1.6-1.6-1.6zM5.6 7.2h8v6.619c0 0.712-0.862 1.069-1.366 0.565l-2.691-2.693c-0.624-0.624-1.638-0.624-2.262 0-0.624 0.626-0.624 1.638 0 2.262l5.659 5.659c1.25 1.25 3.274 1.25 4.522 0 0.912-0.91 1.096-1.094 5.659-5.658 0.624-0.626 0.624-1.638 0-2.264-0.626-0.624-1.638-0.624-2.264 0l-2.69 2.69c-0.504 0.504-1.366 0.147-1.366-0.565v-6.616h17.6c0.883 0 1.6-0.717 1.6-1.6s-0.717-1.6-1.6-1.6h-28.8c-0.883 0-1.6 0.717-1.6 1.6s0.717 1.6 1.6 1.6z"></path>
</svg>
