<!-- Generated by IcoMoon.io -->
<svg version="1.1" xmlns="http://www.w3.org/2000/svg" width="40" height="40" viewBox="0 0 40 40">
<title>mp-arrow_left_up-1</title>
<path fill="#91908d" d="M4 7.194v17.805c0 0.862 0.696 1.402 1.557 1.402h0.045c0.88 0 1.598-0.52 1.598-1.4v-13.678c0-0.714 0.864-1.069 1.366-0.565l24.736 24.779c0.616 0.618 1.616 0.618 2.232 0.002v0c0.618-0.618 0.616-1.616 0-2.232l-24.8-24.744c-0.504-0.502-0.149-1.362 0.565-1.362h13.526c0.87 0 1.574-0.712 1.574-1.584v-0.045c0-0.872-0.704-1.571-1.574-1.571h-17.622c-1.768 0-3.203 1.426-3.203 3.194z"></path>
</svg>
