<!-- Generated by IcoMoon.io -->
<svg version="1.1" xmlns="http://www.w3.org/2000/svg" width="100" height="40" viewBox="0 0 100 40">
<title>mp-arrow_left_circle-2</title>
<path fill="#91908d" d="M75.999 20c0 4.412-3.588 8-8 8s-8-3.588-8-8c0-4.412 3.588-8 8-8s8 3.588 8 8zM52.563 16h-36.58l1.696-1.696c1.56-1.56 1.56-4.096-0.004-5.656v0c-1.564-1.56-4.096-1.56-5.656 0.008l-5.688 5.704c-3.108 3.116-3.108 8.164 0 11.28l5.684 5.704c1.564 1.568 4.096 1.568 5.66 0.008v0c1.564-1.564 1.564-4.096 0.004-5.656l-1.696-1.696h36.58c2.084 8 10.172 13.648 19.232 11.56 5.756-1.324 10.432-5.992 11.764-11.744 2.424-10.496-5.48-19.816-15.56-19.816-7.448 0-13.652 4-15.436 12z"></path>
</svg>
