<!-- Generated by IcoMoon.io -->
<svg version="1.1" xmlns="http://www.w3.org/2000/svg" width="24" height="40" viewBox="0 0 24 40">
<title>mp-arrow_up-12</title>
<path fill="#91908d" d="M13.45 21.6h0.075c-0.883 0-1.525 0.717-1.525 1.6v1.6h-1.901c-0.883 0-1.299 0.557-1.299 1.442v-0.080c0 0.883 0.416 1.838 1.299 1.838h1.901v1.6c0 0.883 0.566 1.6 1.45 1.6h0.075c0.883 0 1.675-0.717 1.675-1.6v-1.6h1.299c0.885 0 1.901-0.875 1.901-1.758v-0.080c0-0.883-1.016-1.362-1.901-1.362h-1.299v-1.6c0-0.883-0.867-1.6-1.75-1.6v0zM20 31.2c0 0.883-1.016 1.6-1.901 1.6h-9.6c-0.883 0-1.299-0.717-1.299-1.6v-17.419c0-0.216-0.064-0.422 0.091-0.573l4.966-4.918c0.621-0.606 1.576-0.606 2.197 0l5.173 4.918c0.154 0.15 0.373 0.357 0.373 0.573v17.419zM22.566 11.624l-6.957-6.715c-1.243-1.211-3.264-1.211-4.507 0l-6.752 6.715c-0.309 0.301-0.35 0.714-0.35 1.146v20.030c0 1.768 1.133 3.2 2.899 3.2h12.8c1.768 0 3.501-1.432 3.501-3.2v-20.030c0-0.432-0.325-0.845-0.634-1.146v0z"></path>
</svg>
