<!-- Generated by IcoMoon.io -->
<svg version="1.1" xmlns="http://www.w3.org/2000/svg" width="40" height="40" viewBox="0 0 40 40">
<title>mp-arrow_right_circle-3</title>
<path fill="#91908d" d="M12.654 12.656c-1.248 1.246-3.278 1.246-4.525 0-1.248-1.246-1.248-3.273 0-4.517 1.246-1.246 3.277-1.246 4.525 0 1.248 1.244 1.248 3.271 0 4.517v0zM32.831 27.984l0.022 2.543-16.949-16.924c0.627-1.634 1.126-5.632-0.979-7.735-2.499-2.495-6.557-2.488-9.056 0.006s-2.49 6.531 0.010 9.026c2.106 2.103 5.002 2.717 7.768 0.961l16.954 16.924-2.57 0.011-0.018 3.201 7.986 0.003v-8.005l-3.168-0.011z"></path>
</svg>
