<!-- Generated by IcoMoon.io -->
<svg version="1.1" xmlns="http://www.w3.org/2000/svg" width="40" height="40" viewBox="0 0 40 40">
<title>mp-arrow_right_corner-</title>
<path fill="#91908d" d="M16.8 12c0-0.883 0.717-1.6 1.6-1.6h8c1.768 0 3.2 1.432 3.2 3.2v8c0 0.883-0.717 1.6-1.6 1.6s-1.6-0.717-1.6-1.6v-3.806c0-0.712-0.862-1.069-1.366-0.565l-4.84 4.84c-0.624 0.624-1.637 0.624-2.262 0-0.624-0.626-0.624-1.638 0-2.262l4.84-4.84c0.504-0.504 0.147-1.366-0.565-1.366h-3.806c-0.883 0-1.6-0.717-1.6-1.6v0zM7.2 8.8c0-0.883 0.717-1.6 1.6-1.6h22.4c0.883 0 1.6 0.717 1.6 1.6v22.4c0 0.883-0.717 1.6-1.6 1.6h-12.8c-0.883 0-1.6-0.717-1.6-1.6v-4.8c0-1.768-1.432-3.2-3.2-3.2h-4.8c-0.883 0-1.6-0.717-1.6-1.6v-12.8zM36 7.2c0-1.768-1.432-3.2-3.2-3.2h-25.6c-1.768 0-3.2 1.432-3.2 3.2v25.6c0 1.768 1.432 3.2 3.2 3.2h25.6c1.768 0 3.2-1.432 3.2-3.2v-25.6z"></path>
</svg>
