<!-- Generated by IcoMoon.io -->
<svg version="1.1" xmlns="http://www.w3.org/2000/svg" width="67" height="40" viewBox="0 0 67 40">
<title>mp-arrow_infinity-</title>
<path fill="#91908d" d="M57.333 18.359c0-7.931-6.565-14.359-14.667-14.359-8.053 0-14.667 6.412-14.667 14.359 0 4.861-4.091 9.138-9.333 9.138-5.147 0-9.333-4.099-9.333-9.138s4.187-9.138 9.333-9.138c3.112 0 5.853 1.512 7.552 3.812 0.661-1.961 1.507-3.449 2.677-4.953-2.643-2.522-6.248-4.081-10.229-4.081-8.101 0-14.667 6.428-14.667 14.359s6.565 14.359 14.667 14.359c8.053 0 14.667-6.412 14.667-14.359 0-4.874 4.101-9.138 9.333-9.138 5.147 0 9.333 4.099 9.333 9.138 0 3.133-1.621 5.9-4.083 7.545l-1.763-4.553-7.141 11.020 12.808 3.629-1.981-5.122c4.469-2.462 7.493-7.14 7.493-12.519z"></path>
</svg>
