<!-- Generated by IcoMoon.io -->
<svg version="1.1" xmlns="http://www.w3.org/2000/svg" width="100" height="40" viewBox="0 0 100 40">
<title>mp-arrow_right_circle-</title>
<path fill="#91908d" d="M12 20.008c0-4.412 3.588-8 8-8s8 3.588 8 8c0 4.412-3.588 8-8 8s-8-3.588-8-8zM35.436 23.992h33.288l-4.524 4.532 5.656 5.66 14.144-14.14-0.040-0.036 0.040-0.040-14.144-14.14-5.656 5.648 4.524 4.516h-33.288c-0.188-6.248-5.936-11.992-15.436-11.992-8.836 0-16 7.168-16 16.004s7.164 15.996 16 15.996c7.448 0 13.652-4.008 15.436-12.008z"></path>
</svg>
