<!-- Generated by IcoMoon.io -->
<svg version="1.1" xmlns="http://www.w3.org/2000/svg" width="20" height="40" viewBox="0 0 20 40">
<title>mp-bookmark-6</title>
<path fill="#91908d" d="M16.8 30.534c-1.046-1.046-1.862-2.048-3.2-2.538v-20.797h1.6c0.883 0 1.6 0.717 1.6 1.6v21.734zM10.4 28.014c-1.363 0.483-2.072 1.392-3.2 2.52v-21.734c0-0.883 0.717-1.6 1.6-1.6h1.6v20.814zM16.8 4h-9.6c-1.768 0-3.2 1.434-3.2 3.2v27.197c0 0.965 0.789 1.603 1.611 1.603 0.394 0 0.794-0.146 1.12-0.472l4.138-4.136c0.312-0.314 0.722-0.469 1.131-0.469s0.819 0.155 1.131 0.469l4.138 4.136c0.326 0.326 0.726 0.472 1.12 0.472 0.822 0 1.611-0.638 1.611-1.603v-27.197c0-1.766-1.432-3.2-3.2-3.2v0z"></path>
</svg>
