<!-- Generated by IcoMoon.io -->
<svg version="1.1" xmlns="http://www.w3.org/2000/svg" width="40" height="40" viewBox="0 0 40 40">
<title>mp-basketball-</title>
<path fill="#91908d" d="M32.173 9.944l-15.585 15.306c-1.507 1.48-3.85-0.744-2.304-2.262l15.585-15.306c0.636-0.626 1.668-0.626 2.304 0 0.635 0.624 0.635 1.638 0 2.262zM34.732 5.688c-1.878-2.141-5.171-2.23-7.167-0.269l-15.585 15.306c-1.503 1.475-1.805 3.666-0.941 5.448l-6.562 6.446c-0.638 0.624-0.638 1.637 0 2.262 0.636 0.624 1.668 0.624 2.304 0l6.562-6.445c1.996 0.931 4.158 0.442 5.548-0.925l15.401-15.127c1.84-1.806 2.136-4.762 0.438-6.698zM30.544 28.481c-0.579-0.57-0.88-1.301-0.931-2.046 0.759 0.050 1.503 0.346 2.084 0.915 0.579 0.568 0.88 1.301 0.931 2.046-0.759-0.051-1.505-0.347-2.084-0.915zM27.087 31.875c-1.078-1.059-1.231-2.678-0.478-3.909 0.293 1.014 0.818 1.979 1.631 2.778s1.794 1.314 2.828 1.602c-1.253 0.739-2.902 0.589-3.981-0.47zM24.784 25.086c-2.545 2.501-2.545 6.552 0 9.051s6.671 2.499 9.217 0c6.119-6.011-3.209-14.951-9.217-9.051z"></path>
</svg>
