<!-- Generated by IcoMoon.io -->
<svg version="1.1" xmlns="http://www.w3.org/2000/svg" width="40" height="40" viewBox="0 0 40 40">
<title>mp-book-3</title>
<path fill="#91908d" d="M32.8 28c0 0.883-0.717 1.6-1.6 1.6h-9.6v-22.4h9.6c0.883 0 1.6 0.717 1.6 1.6v19.2zM18.4 29.6h-9.6c-0.883 0-1.6-0.717-1.6-1.6v-19.2c0-0.883 0.717-1.6 1.6-1.6h9.6v22.4zM32.8 4h-25.6c-1.768 0-3.2 1.432-3.2 3.2v22.4c0 1.766 1.432 3.2 3.2 3.2h11.2v1.6c0 0.883 0.717 1.6 1.6 1.6s1.6-0.717 1.6-1.6v-1.6h11.2c1.768 0 3.2-1.434 3.2-3.2v-22.4c0-1.768-1.432-3.2-3.2-3.2v0z"></path>
</svg>
