<!-- Generated by IcoMoon.io -->
<svg version="1.1" xmlns="http://www.w3.org/2000/svg" width="62" height="40" viewBox="0 0 62 40">
<title>mp-behance-</title>
<path fill="#91908d" d="M35.953 9.212h12.524v-3.587h-12.524v3.587zM42.127 16.414c-2.794 0-4.916 1.731-5.12 4.93h10.023c-0.679-3.796-2.366-4.93-4.903-4.93v0zM42.518 31.248c2.58 0 4.473-1.63 4.859-3.003h5.425c-1.551 4.965-4.753 7.754-10.503 7.754-7.338 0-11.456-5.219-11.456-12.145 0-16.309 23.532-16.894 22.351 1.523h-16.187c0.158 3.74 1.701 5.87 5.511 5.87v0zM18.105 30.531c2.961 0 5.034-1.139 5.034-4.213 0-3.188-1.831-4.571-4.906-4.571h-7.419v8.784h7.291zM17.713 16.953c2.464 0 4.165-1.147 4.165-3.811 0-2.807-1.979-3.674-4.684-3.674h-6.38v7.485h6.9zM18.582 4c5.836 0 9.893 1.93 9.893 7.932 0 2.972-1.194 5.186-4.209 6.679 3.86 1.147 5.686 4.157 5.686 8.113 0 6.279-4.98 9.277-10.937 9.277h-15.015v-32h14.582z"></path>
</svg>
