<!-- Generated by IcoMoon.io -->
<svg version="1.1" xmlns="http://www.w3.org/2000/svg" width="40" height="40" viewBox="0 0 40 40">
<title>mp-cart_down_round-</title>
<path fill="#91908d" d="M16.516 16.453l1.883 1.083v-11.803c0-0.883 0.717-1.6 1.6-1.6 0.885 0 1.6 0.717 1.6 1.6v11.803l1.885-1.083c0.925-0.531 2.078 0.136 2.078 1.202 0 0.496-0.266 0.955-0.696 1.203l-4.069 2.341c-0.494 0.283-1.102 0.283-1.595 0l-4.070-2.341c-0.429-0.248-0.694-0.707-0.694-1.203 0-1.066 1.154-1.733 2.078-1.202zM27.999 32.8c-0.882 0-1.6-0.718-1.6-1.6 0-2.115 3.2-2.115 3.2 0 0 0.882-0.717 1.6-1.6 1.6zM8.799 32.8c-0.882 0-1.6-0.718-1.6-1.6 0-2.115 3.2-2.115 3.2 0 0 0.882-0.717 1.6-1.6 1.6zM34.399 4h-4.8c-1.6 0-3.2 1.058-3.2 3.8v15.4h-16v-8c0-3.208 4.8 0.006 4.8-3.2 0-0.885-0.715-1.6-1.6-1.6h-3.2c-1.766 0-3.2 1.432-3.2 3.2v13.093c-2.139 0.762-3.59 2.973-3.106 5.466 0.365 1.885 1.917 3.416 3.805 3.758 3.048 0.555 5.701-1.771 5.701-4.717 0-2.088-1.339-3.845-3.2-4.507v-0.293h16v0.293c-2.139 0.762-3.59 2.973-3.106 5.466 0.365 1.885 1.917 3.416 3.805 3.758 3.048 0.555 5.701-1.771 5.701-4.717 0-2.088-1.339-3.845-3.2-4.507 0-21.579-1.587-19.493 4.8-19.493 0.885 0 1.6-0.717 1.6-1.6 0-0.885-0.715-1.6-1.6-1.6z"></path>
</svg>
