<!-- Generated by IcoMoon.io -->
<svg version="1.1" xmlns="http://www.w3.org/2000/svg" width="40" height="40" viewBox="0 0 40 40">
<title>mp-cut_corner-</title>
<path fill="#91908d" d="M32.8 31.199c0 0.883-0.717 1.602-1.6 1.602h-22.4c-0.885 0-1.6-0.718-1.6-1.602v-15.93c0-0.213 0.083-0.416 0.234-0.565l7.27-7.27c0.15-0.15 0.354-0.234 0.565-0.234h15.931c0.883 0 1.6 0.715 1.6 1.598v22.4zM32.798 4.001l-17.874 0.005c-0.85 0-1.662 0.338-2.262 0.938l-7.72 7.718c-0.6 0.6-0.936 1.414-0.938 2.262l-0.005 17.875c0 1.766 1.432 3.202 3.2 3.202h25.6c1.766 0 3.2-1.434 3.2-3.202v-25.598c0-1.768-1.434-3.202-3.202-3.2v0z"></path>
</svg>
