<!-- Generated by IcoMoon.io -->
<svg version="1.1" xmlns="http://www.w3.org/2000/svg" width="40" height="40" viewBox="0 0 40 40">
<title>mp-cut_corner_round-1</title>
<path fill="#91908d" d="M32.8 21.462c0 0.883-0.718 1.738-1.602 1.738h-5.6c-1.325 0-2.398 1.006-2.398 2.331v-0.069 5.6c0 0.883-0.718 1.738-1.602 1.738h-12.8c-0.883 0-1.598-0.854-1.598-1.738v-22.4c0-0.883 0.715-1.462 1.598-1.462h22.4c0.883 0 1.602 0.579 1.602 1.462v12.8zM33.598 26.4c1.326 0 2.402-1.213 2.402-2.538v-17.6c0-1.325-1.075-2.262-2.402-2.262h-27.2c-1.325 0-2.398 0.938-2.398 2.262v27.269c0 1.326 1.074 2.469 2.398 2.469h17.6c1.326 0 2.402-1.213 2.402-2.538v-7.062h7.198z"></path>
</svg>
