<!-- Generated by IcoMoon.io -->
<svg version="1.1" xmlns="http://www.w3.org/2000/svg" width="57" height="40" viewBox="0 0 57 40">
<title>mp-cloud_minus-3</title>
<path fill="#91908d" d="M41.59 13.693c0 0-1.607-4.153-5.849-6.992-9.787-6.553-23.214-0.553-24.736 11.241-0.011 0.087-0.137 0.091-0.066 0.073-4.352 1.083-7.481 5.255-6.859 10.066 0.837 6.485 9.063 9.806 9.063 5.513 0-2.64-0.96-1.813-2.768-3.157-4.766-3.543 0.725-11.008 5.595-7.138-2.99-9.847 7.429-18.041 16.174-13.408 3.118 1.65 5.269 4.654 5.913 7.854 6.482-0.233 10.329 8.615 3.621 12.665-0.679 0.409-1.106 1.145-1.106 1.938 0 1.685 1.808 2.853 3.28 2.034 0.69-0.382 1.339-0.83 1.934-1.342 6.85-5.89 4.304-16.768-4.194-19.349zM35.999 34.109v-0.13c0 0.016-0.007 0.027-0.007 0.041 0 0.030 0.007 0.059 0.007 0.089zM35.992 34.020c-0.025 1.237-1.031 1.989-2.277 1.989h-13.717c-3.559 0-2.491-4.571 0-4.571h13.717c1.232 0 2.231 1.344 2.277 2.583z"></path>
</svg>
