<!-- Generated by IcoMoon.io -->
<svg version="1.1" xmlns="http://www.w3.org/2000/svg" width="40" height="40" viewBox="0 0 40 40">
<title>mp-car-5</title>
<path fill="#91908d" d="M32.8 28h-1.214c-0.878-0.976-2.154-1.6-3.57-1.6-0.565 0-1.616 0.115-1.616 0.294v-1.894h6.4v3.2zM28.032 32.8c-0.883 0-1.6-0.718-1.6-1.6s0.717-1.6 1.6-1.6c0.882 0 1.6 0.718 1.6 1.6s-0.718 1.6-1.6 1.6v0zM7.2 21.6v-14.4h16v14.4h-16zM23.2 28h-7.614c-0.878-0.976-2.138-1.6-3.554-1.6-1.418 0-2.677 0.624-3.555 1.6h-1.277v-3.2h16v3.2zM12.032 32.8c-0.883 0-1.6-0.718-1.6-1.6s0.717-1.6 1.6-1.6c0.882 0 1.6 0.718 1.6 1.6s-0.718 1.6-1.6 1.6v0zM26.4 21.6v-17.6h-22.4v27.2h3.232c0 2.651 2.149 4.8 4.8 4.8 2.65 0 4.8-2.149 4.8-4.8h6.4c0 2.651 2.149 4.8 4.8 4.8 2.65 0 4.8-2.149 4.8-4.8h3.168v-9.6h-9.6z"></path>
</svg>
