<!-- Generated by IcoMoon.io -->
<svg version="1.1" xmlns="http://www.w3.org/2000/svg" width="50" height="40" viewBox="0 0 50 40">
<title>mp-car-10</title>
<path fill="#91908d" d="M40 26h-1.56c-1.098-1.22-2.672-2-4.442-2-0.704 0-1.998 0.144-1.998 0.368v-2.368h8v4zM33.998 32c-1.102 0-2-0.898-2-2s0.898-2 2-2c1.102 0 2 0.898 2 2s-0.898 2-2 2v0zM20 18v-10h8v10h-8zM28 26h-9.56c-1.098-1.22-2.672-2-4.442-2s-3.344 0.78-4.442 2h-1.556v-4h20v4zM13.998 32c-1.102 0-2-0.898-2-2s0.898-2 2-2c1.102 0 2 0.898 2 2s-0.898 2-2 2v0zM8 18v-10h8v10h-8zM32 18v-14h-28v26h3.998c0 3.314 2.686 6 6 6s6-2.686 6-6h8c0 3.314 2.686 6 6 6s6-2.686 6-6h4.002v-12h-12z"></path>
</svg>
