<!-- Generated by IcoMoon.io -->
<svg version="1.1" xmlns="http://www.w3.org/2000/svg" width="47" height="40" viewBox="0 0 47 40">
<title>mp-clouds_sun-2</title>
<path fill="#91908d" d="M28.538 32.226v0.009h-14.793c-2.788 0-5.381-1.867-5.876-4.602-0.785-4.348 3.507-7.832 7.548-6.317l-0.040 1.44c-0.028 1.067 0.831 1.95 1.903 1.95 0.955 0 1.776-0.7 1.884-1.647 0.113-0.983 0.283-2.212 0.538-3.46 1.521-7.484 15.461-9.114 17.913 0.915 1.499 6.133-3.19 11.618-9.077 11.712zM22.875 7.765c2.11 0 4.043 0.708 5.608 1.882-5.466 0-10.13 3.311-12.139 8.032-0.921-0.299-1.886-0.503-2.907-0.503 0-5.19 4.234-9.412 9.438-9.412zM34.624 11.166c-2.191-4.252-6.623-7.166-11.748-7.166-7.556 0-13.639 6.33-13.177 13.95-3.35 1.446-5.699 4.766-5.699 8.638 0 5.197 4.226 9.412 9.438 9.412h15.1c-0.019 0-0.036-0.006-0.057-0.006 0.021-0.002 0.057-0.006 0.057-0.006 7.55-0.111 13.109-5.96 13.109-13.165 0-5.062-2.841-9.451-7.024-11.657z"></path>
</svg>
