<!-- Generated by IcoMoon.io -->
<svg version="1.1" xmlns="http://www.w3.org/2000/svg" width="40" height="40" viewBox="0 0 40 40">
<title>mp-cup-1</title>
<path fill="#91908d" d="M27.2 23.2l0.4-3.2h4.133l-0.701 2.106c-0.219 0.654-0.83 1.094-1.518 1.094h-2.314zM16.226 24.998l-2.226-17.798h12l-2.226 17.798c-0.099 0.8-0.779 1.402-1.587 1.402h-4.374c-0.808 0-1.488-0.602-1.587-1.402v0zM8.968 22.106l-0.701-2.106h4.133l0.4 3.2h-2.314c-0.688 0-1.299-0.44-1.518-1.094v0zM24.8 36v-3.2h-3.2v-3.2h1.974c1.614 0 2.976-1.202 3.176-2.803l0.050-0.397h3.693c1.378 0 2.602-0.882 3.037-2.189l2.47-7.411h-8l1.6-12.8h-19.2l1.6 12.8h-8l2.47 7.411c0.435 1.307 1.659 2.189 3.037 2.189h3.693l0.050 0.397c0.2 1.602 1.562 2.803 3.176 2.803h1.974v3.2h-3.2v3.2h9.6z"></path>
</svg>
