<!-- Generated by IcoMoon.io -->
<svg version="1.1" xmlns="http://www.w3.org/2000/svg" width="47" height="40" viewBox="0 0 47 40">
<title>mp-cloud_close-2</title>
<path fill="#91908d" d="M34.977 12.2c0 0-1.323-3.516-4.817-5.92-2.093-1.44-4.608-2.28-7.317-2.28-6.699 0-12.22 5.146-13.054 11.798 0 0-2.697 0.623-4.414 3.139-3.439 5.036-0.073 11.823 6.174 12.123v-3.855c-0.832-0.044-1.634-0.333-2.28-0.826-3.962-3.027 0.668-9.262 4.608-6.044-3.887-13.164 15.68-17.489 18.189-4.703 6.302-0.234 8.224 8.982 2.071 11.223v3.931c9.871-2.39 9.871-15.765 0.84-18.585v0zM29.499 25.052l-3.992 4.107 3.992 4.105-2.662 2.736-3.994-4.105-3.992 4.105-2.662-2.736 3.992-4.105-3.992-4.107 2.662-2.736 3.992 4.107 3.994-4.107 2.662 2.736z"></path>
</svg>
