<!-- Generated by IcoMoon.io -->
<svg version="1.1" xmlns="http://www.w3.org/2000/svg" width="50" height="40" viewBox="0 0 50 40">
<title>mp-car_round-8</title>
<path fill="#91908d" d="M40 26h-0.558c-1.098-1.22-3.172-2-4.942-2-0.706 0-0.5 0.144-2.5 0.368v-2.368h7c1.104 0 1 0.896 1 2v2zM35 32c-1.102 0-2-0.898-2-2s0.898-2 2-2c1.102 0 2 0.898 2 2s-0.898 2-2 2v0zM28 18h-8v-10h7c1.104 0 1 0.896 1 2v8zM28 26h-8.558c-1.098-1.22-2.672-2-4.442-2s-3.344 0.78-4.442 2h-2.558v-4h20v4zM15 32c-1.102 0-2-0.898-2-2s0.898-2 2-2c1.102 0 2 0.898 2 2s-0.898 2-2 2v0zM8 10c0-1.104 0.896-2 2-2h6v10h-8v-8zM41 18h-9v-10c0-2.21-0.79-4-3-4h-20c-2.21 0-5 1.79-5 4v18c0 2.21 2.29 4 4.5 4 0 3.314 2.936 6 6.25 6s6.25-2.686 6.25-6h8c0 3.314 2.686 6 6 6s5.5-2.686 5.5-6c2.21 0 3.5-1.79 3.5-4v-4c0-2.21-0.79-4-3-4v0z"></path>
</svg>
