<!-- Generated by IcoMoon.io -->
<svg version="1.1" xmlns="http://www.w3.org/2000/svg" width="40" height="40" viewBox="0 0 40 40">
<title>mp-cup-2</title>
<path fill="#91908d" d="M32.8 21.739c0 0.883-0.587 1.461-1.47 1.461h-1.73v-4.8h3.2v3.339zM26.4 24.939c0 0.883-0.587 1.461-1.47 1.461h-9.6c-0.885 0-1.73-0.578-1.73-1.461v-17.739h12.8v17.739zM10.4 23.2h-1.47c-0.885 0-1.73-0.578-1.73-1.461v-3.339h3.2v4.8zM29.6 15.2v-11.2h-19.2v11.2h-6.4v8.139c0 1.768 1.562 3.061 3.33 3.061h3.2c0 1.6 1.432 3.2 3.2 3.2h4.67v3.2h-3.2v3.2h9.6v-3.2h-3.2v-3.2h4.93c1.766 0 3.2-1.6 3.2-3.2h3.2c1.766 0 3.070-1.293 3.070-3.061v-8.139h-6.4z"></path>
</svg>
