<!-- Generated by IcoMoon.io -->
<svg version="1.1" xmlns="http://www.w3.org/2000/svg" width="40" height="40" viewBox="0 0 40 40">
<title>mp-center_round-</title>
<path fill="#91908d" d="M7.31 21.6h3.090c0.883 0 1.6-0.717 1.6-1.6v0c0-0.883-0.717-1.6-1.6-1.6h-3.090c0.293-1.6 1.214-4.467 2.59-6.237l2.179 2.179c0.624 0.626 1.637 0.626 2.262 0v0c0.626-0.624 0.626-1.637 0-2.262l-2.179-2.179c1.77-1.376 4.637-2.298 6.237-2.59v3.090c0 0.885 0.715 1.6 1.598 1.6h0.002c0.883 0 1.6-0.715 1.6-1.6v-3.090c1.6 0.293 4.466 1.214 6.235 2.59l-2.179 2.179c-0.624 0.626-0.624 1.638 0 2.262v0c0.626 0.626 1.638 0.626 2.262 0.002l2.179-2.181c1.376 1.77 2.298 4.637 2.59 6.237h-3.090c-0.883 0-1.598 0.717-1.598 1.6v0c0 0.883 0.715 1.6 1.598 1.6h3.090c-0.293 1.6-1.214 4.467-2.59 6.237l-2.179-2.179c-0.624-0.626-1.637-0.626-2.262 0v0c-0.624 0.624-0.624 1.637 0 2.262l2.179 2.179c-1.77 1.376-4.635 2.298-6.235 2.59v-3.090c0-0.883-0.717-1.6-1.6-1.6h-0.002c-0.883 0-1.598 0.717-1.598 1.6v3.090c-1.6-0.293-4.467-1.214-6.237-2.59l2.179-2.179c0.626-0.626 0.626-1.638 0-2.262v0c-0.624-0.626-1.638-0.626-2.262 0l-2.179 2.179c-1.376-1.77-2.298-4.637-2.59-6.237zM20 4c-8.837 0-16 7.163-16 16s7.163 16 16 16c8.835 0 16-7.163 16-16s-7.165-16-16-16z"></path>
</svg>
