<!-- Generated by IcoMoon.io -->
<svg version="1.1" xmlns="http://www.w3.org/2000/svg" width="57" height="40" viewBox="0 0 57 40">
<title>mp-cloud_close-</title>
<path fill="#91908d" d="M37.037 13.511l-3.241 3.236-3.241-3.236-3.243 3.236 3.243 3.236-3.243 3.238 3.243 3.236 3.241-3.236 3.241 3.236 3.241-3.236-3.241-3.238 3.241-3.236-3.241-3.236zM44.816 17.177c-2.991-12.253-19.911-10.167-21.749-1.112-0.309 1.517-0.516 3.011-0.653 4.206-0.131 1.151-1.128 2-2.29 2-1.3 0-2.342-1.071-2.308-2.368l0.048-1.751c-0.752-0.281-1.556-0.458-2.404-0.458-4.208 0-7.545 3.794-6.761 8.135 0.601 3.327 3.75 5.595 7.135 5.595l17.963-0.009c7.149-0.114 12.842-6.782 11.020-14.237v0zM49.714 19.983c0 8.762-6.75 15.869-15.918 16.006 0 0-0.044 0.002-0.069 0.007 0.023 0 0.046 0.005 0.069 0.005h-18.336c-6.331 0-11.46-5.121-11.46-11.441 0-6.318 5.13-11.441 11.46-11.441 1.24 0 2.411 0.249 3.53 0.613 6.778-15.94 30.724-11.201 30.724 6.251v0zM33.796 31.387v0.027c-0.062 0-0.121 0.009-0.186 0.009 0.126 0 0.186-0.032 0.186-0.037v0z"></path>
</svg>
