<!-- Generated by IcoMoon.io -->
<svg version="1.1" xmlns="http://www.w3.org/2000/svg" width="40" height="40" viewBox="0 0 40 40">
<title>mp-car_front_view-1</title>
<path fill="#91908d" d="M10.4 23.2v-14.4c0-0.883 0.717-1.6 1.6-1.6h16c0.883 0 1.6 0.717 1.6 1.6v14.4h-19.2zM26.4 28v0c0-0.883 0.717-1.6 1.6-1.6s1.6 0.717 1.6 1.6c0 0.883-0.717 1.6-1.6 1.6s-1.6-0.717-1.6-1.6v0zM10.4 28v0c0-0.883 0.717-1.6 1.6-1.6s1.6 0.717 1.6 1.6c0 0.883-0.717 1.6-1.6 1.6s-1.6-0.717-1.6-1.6v0zM36 18.4v0c0-0.883-0.717-1.6-1.6-1.6h-1.6v-9.6c0-1.768-1.432-3.2-3.2-3.2h-19.2c-1.768 0-3.2 1.432-3.2 3.2v9.6h-1.6c-0.883 0-1.6 0.717-1.6 1.6s0.717 1.6 1.6 1.6h1.6v3.2c-1.768 0-3.2 1.432-3.2 3.2v3.2c0 1.768 1.432 3.2 3.2 3.2v1.6c0 0.883 0.717 1.6 1.6 1.6h3.2c0.883 0 1.6-0.717 1.6-1.6v-1.6h12.8v1.6c0 0.883 0.717 1.6 1.6 1.6h3.2c0.883 0 1.6-0.717 1.6-1.6v-1.6c1.768 0 3.2-1.432 3.2-3.2v-3.2c0-1.768-1.432-3.2-3.2-3.2v-3.2h1.6c0.883 0 1.6-0.717 1.6-1.6v0z"></path>
</svg>
