<!-- Generated by IcoMoon.io -->
<svg version="1.1" xmlns="http://www.w3.org/2000/svg" width="50" height="40" viewBox="0 0 50 40">
<title>mp-car_round-9</title>
<path fill="#91908d" d="M40 26.232h-1.558c-1.098-2.021-2.672-2.359-4.442-2.359-0.706 0-1.372-0.19-2 0.034v-1.718h6c1.104 0 2 0.23 2 1.348v2.694zM34 31.622c-1.102 0-2-0.907-2-2.021 0-1.116 0.898-2.021 2-2.021s2 0.905 2 2.021c0 1.114-0.898 2.021-2 2.021v0zM28 18.148h-8v-10.105h6c1.104 0 2 0.23 2 1.348v8.757zM20 26.232h8v-4.042h-8v4.042zM14 31.622c-1.102 0-2-0.907-2-2.021 0-1.116 0.898-2.021 2-2.021s2 0.905 2 2.021c0 1.114-0.898 2.021-2 2.021v0zM9.558 26.232h-1.558v-4.042h8v1.734c-0.628-0.23-1.292-0.051-2-0.051-1.77 0-3.344 0.338-4.442 2.359v0zM8 9.39c0-1.118 0.896-1.348 2-1.348h6v10.105h-8v-8.757zM40 18.148h-8v-10.779c0-2.233-1.79-3.369-4-3.369h-20c-2.21 0-4 1.136-4 3.369v18.19c0 2.231 1.79 4.042 4 4.042 0 3.349 2.686 6.399 6 6.399s6-3.705 6-5.726h8c0 2.021 2.686 5.726 6 5.726s6-2.882 6-6.231c2.21 0 4-1.979 4-4.21v-4.042c0-2.233-1.79-3.369-4-3.369v0z"></path>
</svg>
