<!-- Generated by IcoMoon.io -->
<svg version="1.1" xmlns="http://www.w3.org/2000/svg" width="42" height="40" viewBox="0 0 42 40">
<title>mp-done-</title>
<path fill="#91908d" d="M34.24 8.8c0-0.883-0.753-1.6-1.68-1.6h-23.52c-0.927 0-1.68 0.717-1.68 1.6v22.4c0 0.883 0.753 1.6 1.68 1.6h23.52c0.927 0 1.68-0.717 1.68-1.6v-22.4zM37.6 7.2v25.6c0 1.768-1.504 3.2-3.36 3.2h-26.88c-1.856 0-3.36-1.432-3.36-3.2v-25.6c0-1.768 1.504-3.2 3.36-3.2h26.88c1.856 0 3.36 1.432 3.36 3.2v0zM27.555 15.224c0.657 0.624 0.657 1.638 0 2.262l-6.532 6.221c-0.986 0.938-2.582 0.938-3.568 0l-2.969-2.827c-0.655-0.624-0.655-1.637 0-2.262 0.657-0.624 1.72-0.624 2.376 0l1.186 1.13c0.657 0.626 1.724 0.626 2.382 0l4.749-4.523c0.655-0.626 1.72-0.626 2.376 0v0z"></path>
</svg>
