<!-- Generated by IcoMoon.io -->
<svg version="1.1" xmlns="http://www.w3.org/2000/svg" width="40" height="40" viewBox="0 0 40 40">
<title>mp-desktop-3</title>
<path fill="#91908d" d="M32.8 8.8c0-0.883-0.717-1.6-1.6-1.6h-22.4c-0.883 0-1.6 0.717-1.6 1.6v16c0 0.883 0.717 1.6 1.6 1.6h22.4c0.883 0 1.6-0.717 1.6-1.6v-16zM36 6.44v19.211c0 1.763-1.075 3.949-2.838 3.949h-9.606c-0.883 0-1.6 0.717-1.6 1.6s0.717 1.6 1.6 1.6h4.8c0.885 0 1.6 0.717 1.6 1.6s-0.715 1.6-1.6 1.6h-16c-0.883 0-1.6-0.717-1.6-1.6s0.717-1.6 1.6-1.6h4.8c0.885 0 1.6-0.717 1.6-1.6s-0.715-1.6-1.6-1.6h-9.6c-1.766 0-3.555-2.187-3.555-3.955v-19.2c0-1.766 1.789-2.445 3.555-2.445h25.606c1.763 0 2.838 0.675 2.838 2.44v0zM23.11 16.728l-4.946 3.067c-0.536 0.338-1.365-0.048-1.365-0.682v-6.136c0-0.634 0.829-1.019 1.365-0.682l5.011 3.067c0.502 0.317 0.437 1.048-0.066 1.365v0z"></path>
</svg>
