<!-- Generated by IcoMoon.io -->
<svg version="1.1" xmlns="http://www.w3.org/2000/svg" width="40" height="40" viewBox="0 0 40 40">
<title>mp-directory_favorite-1</title>
<path fill="#91908d" d="M32.8 15.201c0-0.883-0.038-1.6-0.922-1.6h-10.904c-1.221 0-2.336-0.696-2.874-1.794l-1.816-3.71c-0.269-0.549-0.827-0.896-1.438-0.896h-5.368c-0.883 0-2.278 0.717-2.278 1.6v22.4c0 0.883 1.395 1.6 2.278 1.6h22.4c0.883 0 0.922-0.717 0.922-1.6v-16zM36 13.601v19.2c0 1.766-0.754 3.2-2.522 3.2h-25.6c-1.766 0-3.878-1.434-3.878-3.2v-25.6c0-1.768 2.112-3.2 3.878-3.2h7.622c1.213 0 2.32 0.685 2.862 1.768l1.43 2.862c0.542 1.085 1.651 1.77 2.862 1.77h10.822c1.768 0 2.522 1.432 2.522 3.2v0zM26.314 22.85l-1.824 1.778c-0.285 0.278-0.416 0.678-0.347 1.070l0.43 2.51c0.133 0.782-0.488 1.418-1.192 1.418-0.186 0-0.378-0.045-0.563-0.142l-2.254-1.186c-0.176-0.093-0.37-0.139-0.563-0.139s-0.387 0.046-0.563 0.139l-2.254 1.186c-0.186 0.098-0.378 0.142-0.563 0.142-0.704 0-1.325-0.635-1.192-1.418l0.43-2.51c0.069-0.392-0.062-0.792-0.347-1.070l-1.824-1.778c-0.718-0.699-0.322-1.918 0.67-2.064l2.522-0.365c0.394-0.058 0.734-0.306 0.91-0.662l1.126-2.285c0.222-0.45 0.653-0.674 1.085-0.674s0.862 0.224 1.085 0.674l1.126 2.285c0.178 0.357 0.517 0.605 0.912 0.662l2.52 0.365c0.992 0.146 1.389 1.365 0.67 2.064v0z"></path>
</svg>
