<!-- Generated by IcoMoon.io -->
<svg version="1.1" xmlns="http://www.w3.org/2000/svg" width="40" height="40" viewBox="0 0 40 40">
<title>mp-directory_missing-1</title>
<path fill="#91908d" d="M34.4 23.201c-0.883 0-1.6 0.717-1.6 1.6s0.717 1.6 1.6 1.6c0.883 0 1.6-0.717 1.6-1.6s-0.717-1.6-1.6-1.6v0zM34.4 16.801c-0.883 0-1.6 0.717-1.6 1.6s0.717 1.6 1.6 1.6c0.883 0 1.6-0.717 1.6-1.6s-0.717-1.6-1.6-1.6v0zM5.6 32.801c-0.883 0-1.6 0.717-1.6 1.6s0.717 1.6 1.6 1.6c0.883 0 1.6-0.717 1.6-1.6s-0.717-1.6-1.6-1.6v0zM32.8 13.601h3.2v-3.2h-3.2v3.2zM5.6 20.001c-0.883 0-1.6 0.717-1.6 1.6s0.717 1.6 1.6 1.6c0.883 0 1.6-0.717 1.6-1.6s-0.717-1.6-1.6-1.6v0zM5.6 13.601c-0.883 0-1.6 0.717-1.6 1.6s0.717 1.6 1.6 1.6c0.883 0 1.6-0.717 1.6-1.6s-0.717-1.6-1.6-1.6v0zM5.6 26.401c-0.883 0-1.6 0.717-1.6 1.6s0.717 1.6 1.6 1.6c0.883 0 1.6-0.717 1.6-1.6s-0.717-1.6-1.6-1.6v0zM18.4 32.801c-0.883 0-1.6 0.717-1.6 1.6s0.717 1.6 1.6 1.6c0.883 0 1.6-0.717 1.6-1.6s-0.717-1.6-1.6-1.6v0zM12 32.801c-0.883 0-1.6 0.717-1.6 1.6s0.717 1.6 1.6 1.6c0.883 0 1.6-0.717 1.6-1.6s-0.717-1.6-1.6-1.6v0zM24.8 32.801c-0.883 0-1.6 0.717-1.6 1.6s0.717 1.6 1.6 1.6c0.883 0 1.6-0.717 1.6-1.6s-0.717-1.6-1.6-1.6v0zM28 10.401c-0.883 0-1.6 0.717-1.6 1.6s0.717 1.6 1.6 1.6c0.883 0 1.6-0.717 1.6-1.6s-0.717-1.6-1.6-1.6v0zM21.6 10.401h-0.901l-0.699-1.397v2.997c0 0.883 0.717 1.6 1.6 1.6s1.6-0.717 1.6-1.6c0-0.883-0.717-1.6-1.6-1.6v0zM16.8 5.601c0-0.883-0.717-1.6-1.6-1.6s-1.6 0.717-1.6 1.6c0 0.883 0.717 1.6 1.6 1.6h0.666l0.934 1.909v-3.509zM34.4 29.601c-0.883 0-1.6 0.717-1.6 1.6s-0.717 1.6-1.6 1.6c-0.883 0-1.6 0.717-1.6 1.6s0.717 1.6 1.6 1.6h1.6c1.768 0 3.2-1.434 3.2-3.2v-1.6c0-0.883-0.717-1.6-1.6-1.6v0zM10.4 5.601c0 0.883-0.717 1.6-1.6 1.6s-1.6 0.717-1.6 1.6c0 0.883-0.717 1.6-1.6 1.6s-1.6-0.717-1.6-1.6v-1.6c0-1.768 1.432-3.2 3.2-3.2h1.6c0.883 0 1.6 0.717 1.6 1.6v0z"></path>
</svg>
