<!-- Generated by IcoMoon.io -->
<svg version="1.1" xmlns="http://www.w3.org/2000/svg" width="24" height="40" viewBox="0 0 24 40">
<title>mp-drink-3</title>
<path fill="#91908d" d="M13.038 21.57c-2.683-0.256-4.766-2.256-5.483-4.77h12.288c-0.763 2.947-3.555 5.080-6.805 4.77zM8.867 7.2h9.6c0.883 0 1.533 0.715 1.533 1.6v4.8h-12.8v-4.8c0-0.885 0.784-1.6 1.667-1.6zM20.067 4h-12.8c-1.768 0-3.267 1.432-3.267 3.2v8c0 4.755 3.2 8.693 8 9.456v8.144h-1.533c-0.883 0-1.6 0.715-1.6 1.6 0 0.883 0.717 1.6 1.6 1.6h6.4c0.883 0 1.6-0.717 1.6-1.6 0-0.885-0.717-1.6-1.6-1.6h-1.667v-8.144c4.8-0.763 8-4.701 8-9.456v-8c0-1.768-1.366-3.2-3.133-3.2z"></path>
</svg>
