<!-- Generated by IcoMoon.io -->
<svg version="1.1" xmlns="http://www.w3.org/2000/svg" width="42" height="40" viewBox="0 0 42 40">
<title>mp-dislike-1</title>
<path fill="#91908d" d="M34.24 4h-3.36v19.18h3.36c1.856 0 3.36-1.431 3.36-3.197v-12.787c0-1.766-1.504-3.197-3.36-3.197zM11.516 4h16.004v19.18l-2.888 9.902c-0.341 2.105-2.639 3.518-4.968 2.666-1.393-0.508-2.224-1.888-2.224-3.309v-7.661c0-0.882-0.753-1.598-1.68-1.598h-7.164c-2.955 0-5.141-2.615-4.477-5.354l2.92-10.437c0.48-1.984 2.337-3.389 4.477-3.389z"></path>
</svg>
