<!-- Generated by IcoMoon.io -->
<svg version="1.1" xmlns="http://www.w3.org/2000/svg" width="40" height="40" viewBox="0 0 40 40">
<title>mp-door-</title>
<path fill="#91908d" d="M18.8 20.2c0 0.883-0.717 1.6-1.6 1.6s-1.6-0.717-1.6-1.6c0-0.883 0.717-1.6 1.6-1.6s1.6 0.717 1.6 1.6v0zM26.4 32.8h-12.8v-24c0-0.883 0.717-1.6 1.6-1.6h9.6c0.883 0 1.6 0.717 1.6 1.6v24zM34.4 32.8h-4.8v-25.6c0-1.768-1.432-3.2-3.2-3.2h-12.8c-1.766 0-3.2 1.432-3.2 3.2v25.6h-4.8c-0.883 0-1.6 0.717-1.6 1.6s0.717 1.6 1.6 1.6h28.8c0.883 0 1.6-0.717 1.6-1.6s-0.717-1.6-1.6-1.6v0z"></path>
</svg>
