<!-- Generated by IcoMoon.io -->
<svg version="1.1" xmlns="http://www.w3.org/2000/svg" width="38" height="40" viewBox="0 0 38 40">
<title>mp-diamond_round-1</title>
<path fill="#91908d" d="M18.208 31.7l-10.060-10.056c-0.592-0.592-0.592-1.551 0-2.143l10.057-10.057c0.592-0.592 1.551-0.592 2.143 0l10.060 10.056c0.592 0.591 0.592 1.551 0 2.142l-10.057 10.059c-0.592 0.592-1.551 0.592-2.143 0zM33.587 18.501l-12.203-12.204c-0.592-0.594-1.369-0.89-2.145-0.89-0.777 0-1.554 0.296-2.146 0.89l-12.203 12.204c-1.186 1.184-1.186 3.106 0 4.291l12.203 12.204c0.592 0.592 1.369 0.888 2.146 0.888 0.776 0 1.553-0.296 2.145-0.888l12.203-12.204c1.186-1.186 1.186-3.107 0-4.291z"></path>
</svg>
