<!-- Generated by IcoMoon.io -->
<svg version="1.1" xmlns="http://www.w3.org/2000/svg" width="40" height="40" viewBox="0 0 40 40">
<title>mp-desktop-</title>
<path fill="#91908d" d="M24.8 12.845v6.4c0 0.883-0.717 1.6-1.6 1.6s-1.6-0.717-1.6-1.6v-6.4c0-0.883 0.717-1.6 1.6-1.6s1.6 0.717 1.6 1.6v0zM18.4 12.845v6.4c0 0.883-0.717 1.6-1.6 1.6s-1.6-0.717-1.6-1.6v-6.4c0-0.883 0.717-1.6 1.6-1.6s1.6 0.717 1.6 1.6v0zM32.8 24.801c0 0.883-0.717 1.6-1.6 1.6h-22.4c-0.883 0-1.6-0.717-1.6-1.6v-16c0-0.885 0.717-1.6 1.6-1.6h22.4c0.883 0 1.6 0.715 1.6 1.6v16zM32.982 4.001h-25.605c-1.766 0-3.378 0.677-3.378 2.445v19.2c0 1.768 1.611 3.955 3.378 3.955h9.6c0.883 0 1.6 0.715 1.6 1.6 0 0.883-0.717 1.6-1.6 1.6h-4.8c-0.883 0-1.6 0.715-1.6 1.6 0 0.883 0.717 1.6 1.6 1.6h16c0.883 0 1.6-0.717 1.6-1.6 0-0.885-0.717-1.6-1.6-1.6h-4.8c-0.883 0-1.6-0.717-1.6-1.6 0-0.885 0.717-1.6 1.6-1.6h9.605c1.765 0 3.018-2.186 3.018-3.95v-19.21c0-1.765-1.253-2.44-3.018-2.44v0z"></path>
</svg>
