<!-- Generated by IcoMoon.io -->
<svg version="1.1" xmlns="http://www.w3.org/2000/svg" width="40" height="40" viewBox="0 0 40 40">
<title>mp-emoji_sad-4</title>
<path fill="#91908d" d="M28 13.6c0.883 0 1.6 0.717 1.6 1.6v3.2c0 0.883-0.717 1.6-1.6 1.6h-3.2c-0.88 0-1.6-0.72-1.6-1.6v-3.2c0-0.883 0.717-1.6 1.6-1.6h3.2zM15.2 20h-3.2c-0.88 0-1.6-0.72-1.6-1.6v-3.2c0-0.883 0.717-1.6 1.6-1.6h3.2c0.883 0 1.6 0.717 1.6 1.6v3.2c0 0.883-0.717 1.6-1.6 1.6v0zM27.829 27.598c0.187 0.958-0.608 2.002-1.586 2.002h-12.486c-0.978 0-1.773-1.208-1.586-2.166 1.611-8.221 14.046-8.054 15.658 0.165v0zM32.8 28.912v1.63c0 0.883-0.717 2.258-1.6 2.258h-22.4c-0.883 0-1.6-1.374-1.6-2.258v-11.2c0-7.059 5.742-12.142 12.8-12.142s12.8 5.083 12.8 12.142v9.57zM32.8 9.771c-3.357-4.482-7.245-5.771-12.8-5.771-5.563 0-9.445 1.291-12.8 5.771-2 2.67-3.2 5.976-3.2 9.571v12.8c0 1.766 1.432 3.858 3.2 3.858h25.6c1.768 0 3.2-2.091 3.2-3.858v-12.8c0-3.595-1.2-6.901-3.2-9.571v0z"></path>
</svg>
