<!-- Generated by IcoMoon.io -->
<svg version="1.1" xmlns="http://www.w3.org/2000/svg" width="40" height="40" viewBox="0 0 40 40">
<title>mp-emoji_surprised-7</title>
<path fill="#91908d" d="M23.2 25.639c0 1.768-1.432 3.2-3.2 3.2s-3.2-1.432-3.2-3.2c0-1.768 1.432-3.2 3.2-3.2s3.2 1.432 3.2 3.2v0zM23.2 10.401h-16v-2.264c0-0.885 0.717-0.936 1.6-0.936h22.4c0.883 0 1.6 0.051 1.6 0.936v2.264h-9.6zM26.4 20.001h6.4v-6.4h-6.4v6.4zM20 33.466c-5.986 0-11.011-5.466-12.403-10.266h9.203v-9.6h6.4v9.6h9.203c-1.392 4.8-6.418 10.266-12.403 10.266v0zM7.2 20.001h6.4v-6.4h-6.4v6.4zM32.8 4.001h-25.6c-1.768 0-3.2 0.768-3.2 2.536v16.664h0.317c0.475 1.6 1.475 4.206 2.883 6.086 1.851 2.472 7.339 6.714 12.8 6.714 5.368 0 11.37-4.779 12.8-6.69 1.408-1.88 2.408-4.51 2.883-6.11h0.317v-16.664c0-1.768-1.432-2.536-3.2-2.536v0z"></path>
</svg>
