<!-- Generated by IcoMoon.io -->
<svg version="1.1" xmlns="http://www.w3.org/2000/svg" width="40" height="40" viewBox="0 0 40 40">
<title>mp-emoji_happy_circle-6</title>
<path fill="#91908d" d="M29.6 15.864v3.2c0 0.883-0.717 1.6-1.6 1.6h-3.2c-0.883 0-1.6-0.717-1.6-1.6v-3.2c0-0.883 0.717-1.6 1.6-1.6h3.2c0.883 0 1.6 0.717 1.6 1.6v0zM12 20.664c-0.883 0-1.6-0.717-1.6-1.6v-3.2c0-0.883 0.717-1.6 1.6-1.6h3.2c0.883 0 1.6 0.717 1.6 1.6v3.2c0 0.883-0.717 1.6-1.6 1.6h-3.2zM27.846 23.925c-1.539 8.765-14.154 8.598-15.693-0.166-0.168-0.957 0.618-1.494 1.59-1.494h12.512c0.973 0 1.758 0.704 1.59 1.661v0zM20 32.8c-7.058 0-12.8-5.742-12.8-12.8s5.742-12.8 12.8-12.8c7.058 0 12.8 5.742 12.8 12.8s-5.742 12.8-12.8 12.8v0zM20 4c-8.837 0-16 7.163-16 16s7.163 16 16 16c8.837 0 16-7.163 16-16s-7.163-16-16-16v0z"></path>
</svg>
