<!-- Generated by IcoMoon.io -->
<svg version="1.1" xmlns="http://www.w3.org/2000/svg" width="40" height="40" viewBox="0 0 40 40">
<title>mp-edit_line-1</title>
<path fill="#91908d" d="M20.6 15.653c1.768 0 3.2 1.432 3.2 3.2s-1.432 3.2-3.2 3.2c-1.768 0-3.2-1.432-3.2-3.2s1.432-3.2 3.2-3.2zM36 34.4c0 0.883-0.717 1.6-1.6 1.6h-28.8c-0.883 0-1.6-0.717-1.6-1.6 0-0.885 0.717-1.6 1.6-1.6h28.8c0.883 0 1.6 0.715 1.6 1.6zM29.869 24.903l-15.226 0.989c-0.96 0.062-1.755-0.731-1.699-1.69l0.845-14.21c0.042-0.714 0.552-1.312 1.25-1.466l5.149-1.141c0.523-0.117 1.072 0.038 1.458 0.413l10.21 9.886c0.397 0.386 0.566 0.949 0.45 1.49l-0.978 4.474c-0.152 0.696-0.747 1.208-1.458 1.254zM34.72 16.007l-11.467-11.106c-0.773-0.747-1.869-1.058-2.918-0.826l-7.166 1.587c-1.397 0.31-2.418 1.507-2.502 2.934l-1.022 17.221c-0.115 1.922 1.48 3.509 3.402 3.384l18.232-1.184c1.424-0.093 2.614-1.117 2.918-2.51l1.424-6.52c0.237-1.083-0.104-2.211-0.899-2.981z"></path>
</svg>
