<!-- Generated by IcoMoon.io -->
<svg version="1.1" xmlns="http://www.w3.org/2000/svg" width="40" height="40" viewBox="0 0 40 40">
<title>mp-emoji_happy-13</title>
<path fill="#91908d" d="M29.6 15.2v3.2c0 0.883-0.717 1.6-1.6 1.6h-3.2c-0.88 0-1.6-0.72-1.6-1.6v-3.2c0-0.883 0.717-1.6 1.6-1.6h3.2c0.883 0 1.6 0.717 1.6 1.6v0zM15.2 18.4h-3.2c-0.883 0-1.6-0.717-1.6-1.6s0.717-1.6 1.6-1.6h3.2c0.883 0 1.6 0.717 1.6 1.6s-0.717 1.6-1.6 1.6v0zM27.829 23.245c-1.611 8.219-14.046 8.029-15.658-0.19-0.187-0.958 0.608-1.454 1.586-1.454h0.027c0.762 0 1.386 0.36 1.56 1.102 1.106 4.677 8.208 4.486 9.312-0.19 0.174-0.742 0.798-0.912 1.56-0.912h0.027c0.978 0 1.773 0.686 1.586 1.645v0zM32.8 19.336c0 7.058-5.742 13.464-12.8 13.464s-12.8-6.406-12.8-13.464v-11.2c0-0.883 0.717-0.936 1.6-0.936h22.4c0.883 0 1.6 0.053 1.6 0.936v11.2zM32.8 4h-25.6c-1.768 0-3.2 0.768-3.2 2.536v12.8c0 3.594 1.2 6.899 3.2 9.571 2.666 3.558 8.141 7.093 12.8 7.093 3.594 0 6.899-1.864 9.571-3.864 3.952-2.96 6.429-7.661 6.429-12.8v-12.8c0-1.768-1.432-2.536-3.2-2.536v0z"></path>
</svg>
