<!-- Generated by IcoMoon.io -->
<svg version="1.1" xmlns="http://www.w3.org/2000/svg" width="40" height="40" viewBox="0 0 40 40">
<title>mp-emoji_happy-1</title>
<path fill="#91908d" d="M27.828 23.269c-1.611 8.219-14.046 8.053-15.656-0.166-0.189-0.958 0.608-1.502 1.584-1.502h0.027c0.763 0 1.386 0.384 1.562 1.126 1.104 4.677 8.206 4.51 9.31-0.166 0.176-0.742 0.798-0.96 1.56-0.96h0.029c0.976 0 1.771 0.71 1.584 1.669v0zM32.799 30.536c0 0.883-0.715 2.264-1.6 2.264h-22.4c-0.883 0-1.6-1.381-1.6-2.264v-11.2c0-2.622 0.795-5.062 2.154-7.094 0.074 0.253 0.186 0.494 0.384 0.694l1.6 1.6-1.6 1.6c-0.624 0.624-0.624 1.637 0 2.262 0.626 0.624 1.638 0.624 2.262 0l1.6-1.6 1.6 1.6c0.626 0.624 1.638 0.624 2.264 0v0c0.624-0.626 0.624-1.638 0-2.262l-1.6-1.6 1.6-1.6c0.624-0.626 0.624-1.638 0-2.262v-0.002c-0.626-0.624-1.638-0.624-2.264 0l-1.6 1.6-1.6-1.6c-0.274-0.274-0.626-0.406-0.984-0.44 2.312-2.282 5.485-3.032 8.984-3.032s6.672 0.75 8.986 3.032c-0.358 0.034-0.71 0.166-0.986 0.44l-1.6 1.6-1.6-1.6c-0.624-0.624-1.637-0.624-2.262 0v0.002c-0.624 0.624-0.624 1.637 0 2.262l1.6 1.6-1.6 1.6c-0.624 0.624-0.624 1.637 0 2.262 0.626 0.624 1.638 0.624 2.262 0l1.6-1.6 1.6 1.6c0.626 0.624 1.638 0.624 2.264 0v0c0.624-0.626 0.624-1.638 0-2.262l-1.6-1.6 1.6-1.6c0.198-0.2 0.31-0.442 0.382-0.694 1.358 2.032 2.154 4.472 2.154 7.094v11.2zM32.799 9.765c-3.378-4.51-7.277-5.765-12.8-5.765-5.525 0-9.422 1.258-12.8 5.765-2 2.67-3.2 5.976-3.2 9.571v12.8c0 1.766 1.434 3.864 3.2 3.864h25.6c1.768 0 3.2-2.098 3.2-3.864v-12.8c0-3.595-1.198-6.901-3.2-9.571v0z"></path>
</svg>
