<!-- Generated by IcoMoon.io -->
<svg version="1.1" xmlns="http://www.w3.org/2000/svg" width="40" height="40" viewBox="0 0 40 40">
<title>mp-file_iso-</title>
<path fill="#91908d" d="M29.6 28.001v3.2c0 0.883 0.717 1.6 1.6 1.6s1.6-0.717 1.6-1.6v-3.2c0-0.883-0.717-1.6-1.6-1.6s-1.6 0.717-1.6 1.6v0zM26.4 32.801v-6.4c0-1.768 1.432-3.2 3.2-3.2h3.2c1.768 0 3.2 1.432 3.2 3.2v6.4c0 1.768-1.432 3.2-3.2 3.2h-3.2c-1.768 0-3.2-1.432-3.2-3.2v0zM4 23.201v3.2h3.2v6.4h-3.2v3.2h9.6v-3.2h-3.2v-6.4h3.2v-3.2h-9.6zM18.4 23.201c-1.768 0-3.2 1.6-3.2 3.368v1.6c0 1.766 1.432 3.032 3.2 3.032h2.4c0.442 0 0.8 0.358 0.8 0.8s-0.358 0.8-0.8 0.8h-5.6v3.2h6.434c1.749 0 3.166-1.25 3.166-3v-1.666c0-1.749-1.418-3.334-3.166-3.334h-2.434c-0.442 0-0.8-0.358-0.8-0.8s0.358-0.8 0.8-0.8h5.6v-3.2h-6.4zM36 14.302v5.699h-3.2v-3.2h-9.6v-9.6h-16v12.8h-3.2v-16h22.366l9.634 10.301z"></path>
</svg>
