<!-- Generated by IcoMoon.io -->
<svg version="1.1" xmlns="http://www.w3.org/2000/svg" width="28" height="40" viewBox="0 0 28 40">
<title>mp-fileboard_checklist-1</title>
<path fill="#91908d" d="M21.6 28v0c0 0.883-0.717 1.6-1.6 1.6h-4.8c-0.883 0-1.6-0.717-1.6-1.6s0.717-1.6 1.6-1.6h4.8c0.883 0 1.6 0.717 1.6 1.6v0zM21.6 23.2v0c0 0.883-0.717 1.6-1.6 1.6h-4.8c-0.883 0-1.6-0.717-1.6-1.6s0.717-1.6 1.6-1.6h4.8c0.883 0 1.6 0.717 1.6 1.6v0zM21.6 18.4c0 0.883-0.717 1.6-1.6 1.6h-4.8c-0.883 0-1.6-0.717-1.6-1.6s0.717-1.6 1.6-1.6h4.8c0.883 0 1.6 0.717 1.6 1.6v0zM12 28v0c0 0.883-0.717 1.6-1.6 1.6s-1.6-0.717-1.6-1.6c0-0.883 0.717-1.6 1.6-1.6s1.6 0.717 1.6 1.6v0zM12 23.2v0c0 0.883-0.717 1.6-1.6 1.6s-1.6-0.717-1.6-1.6c0-0.883 0.717-1.6 1.6-1.6s1.6 0.717 1.6 1.6v0zM12 18.4c0 0.883-0.717 1.6-1.6 1.6s-1.6-0.717-1.6-1.6c0-0.883 0.717-1.6 1.6-1.6s1.6 0.717 1.6 1.6v0zM23.2 31.2c0 0.883-0.717 1.6-1.6 1.6h-12.8c-0.883 0-1.6-0.717-1.6-1.6v-20c0-0.442 0.358-0.8 0.8-0.8h0.8c0 1.766 1.432 3.2 3.2 3.2h6.4c1.768 0 3.2-1.434 3.2-3.2h0.8c0.442 0 0.8 0.358 0.8 0.8v20zM12 8.8c0-0.883 0.717-1.6 1.6-1.6h3.2c0.883 0 1.6 0.717 1.6 1.6s-0.717 1.6-1.6 1.6h-3.2c-0.883 0-1.6-0.717-1.6-1.6v0zM23.2 7.2h-1.6c0-1.768-1.432-3.2-3.2-3.2h-6.4c-1.768 0-3.2 1.432-3.2 3.2h-1.6c-1.768 0-3.2 1.432-3.2 3.2v22.4c0 1.766 1.432 3.2 3.2 3.2h16c1.768 0 3.2-1.434 3.2-3.2v-22.4c0-1.768-1.432-3.2-3.2-3.2v0z"></path>
</svg>
