<!-- Generated by IcoMoon.io -->
<svg version="1.1" xmlns="http://www.w3.org/2000/svg" width="40" height="40" viewBox="0 0 40 40">
<title>mp-file_url-1</title>
<path fill="#91908d" d="M35.56 13.671l-8.72-9.173c-0.302-0.317-0.722-0.498-1.16-0.498h-18.48c-1.766 0-3.2 1.434-3.2 3.2v11.2c0 0.883 0.717 1.6 1.6 1.6 0.885 0 1.6-0.717 1.6-1.6v-9.6c0-0.883 0.717-1.6 1.6-1.6h14.4v6.4c0 1.768 1.434 3.2 3.2 3.2h6.4v1.6c0 0.883 0.717 1.6 1.6 1.6 0.885 0 1.6-0.717 1.6-1.6v-3.627c0-0.41-0.157-0.805-0.44-1.102zM21.6 28c0-0.883-0.715-1.6-1.6-1.6h-1.6v3.2h1.6c0.885 0 1.6-0.715 1.6-1.6zM22.76 31.919l1.010 2.021c0.474 0.947-0.214 2.061-1.274 2.061h-0.016c-0.539 0-1.032-0.304-1.274-0.787l-1.206-2.413h-1.6v1.776c0 0.787-0.637 1.424-1.424 1.424h-0.352c-0.786 0-1.424-0.637-1.424-1.424v-9.952c0-0.786 0.638-1.424 1.424-1.424h3.141c2.499 0 4.754 1.808 5.010 4.294 0.189 1.827-0.656 3.466-2.014 4.424zM34.4 32.8h-4c-0.442 0-0.8-0.358-0.8-0.8v-7.2c0-0.883-0.715-1.6-1.6-1.6-0.883 0-1.6 0.717-1.6 1.6v9.6c0 0.883 0.717 1.6 1.6 1.6h6.4c0.885 0 1.6-0.717 1.6-1.6s-0.715-1.6-1.6-1.6zM13.6 24.624v6.576c0 2.738-2.29 4.939-5.058 4.794-2.595-0.136-4.542-2.466-4.542-5.066v-6.304c0-0.786 0.638-1.424 1.424-1.424h0.352c0.787 0 1.424 0.638 1.424 1.424v6.576c0 0.883 0.717 1.6 1.6 1.6 0.885 0 1.6-0.717 1.6-1.6v-6.576c0-0.786 0.638-1.424 1.424-1.424h0.352c0.787 0 1.424 0.638 1.424 1.424z"></path>
</svg>
