<!-- Generated by IcoMoon.io -->
<svg version="1.1" xmlns="http://www.w3.org/2000/svg" width="40" height="40" viewBox="0 0 40 40">
<title>mp-file_ps-1</title>
<path fill="#91908d" d="M35.484 12.482l-8.658-7.977c-0.296-0.271-0.683-0.505-1.085-0.505h-19.266c-1.368 0-2.477 1.186-2.477 2.547v11.945c0 0.879 0.717 1.592 1.6 1.592 0.885 0 1.6-0.713 1.6-1.592v-9.55c0-0.879 0.717-1.759 1.6-1.759h14.4v7.255c0 1.359 1.109 2.295 2.477 2.295h7.123v14.492c0 0.879-0.715 1.424-1.6 1.424h-1.6c-0.875 0-1.584 0.785-1.595 1.655 0.011 0.867 0.72 1.528 1.595 1.528h3.925c1.368 0 2.475-0.936 2.475-2.295v-19.843c0-0.446-0.186-0.912-0.515-1.213v0zM27.999 34.326c0-0.008 0.005-0.014 0.005-0.021 0-0.008-0.005-0.014-0.005-0.021v0.041zM10.399 28.042c0-0.879-0.715-1.592-1.6-1.592h-1.6v3.183h1.6c0.885 0 1.6-0.713 1.6-1.592v0zM13.593 27.618c0.146 2.754-2.056 5.031-4.794 5.031h-1.6v1.759c0 0.879-0.715 1.592-1.6 1.592-0.883 0-1.6-0.713-1.6-1.592v-9.55c0-0.879 0.717-1.759 1.6-1.759h2.93c2.598 0 4.928 1.937 5.064 4.519v0zM15.199 34.326c0-0.008 0.005-0.014 0.005-0.021 0-0.008-0.005-0.014-0.005-0.021v0.041zM24.799 24.734v0.041c0 0.879-0.715 1.507-1.6 1.507h-4c-0.442 0-0.8 0.357-0.8 0.796 0 0.441 0.358 0.796 0.8 0.796h2.434c1.749 0 3.166 1.577 3.166 3.317v1.659c0 1.74-1.418 2.983-3.166 2.983h-4.834c-0.875 0-1.584-0.661-1.595-1.528 0.011-0.871 0.72-1.655 1.595-1.655h4c0.443 0 0.8-0.355 0.8-0.796 0-0.439-0.357-0.796-0.8-0.796h-2.4c-1.766 0-3.2-1.257-3.2-3.016v-1.592c0-1.757 1.434-3.35 3.2-3.35h4.8c0.885 0 1.6 0.754 1.6 1.635v0z"></path>
</svg>
