<!-- Generated by IcoMoon.io -->
<svg version="1.1" xmlns="http://www.w3.org/2000/svg" width="40" height="40" viewBox="0 0 40 40">
<title>mp-file_url-</title>
<path fill="#91908d" d="M26.367 4.001h-22.366v15.916h3.2v-12.733h16v9.55h9.6v3.183h3.2v-5.669l-9.634-10.247zM21.6 28.043c0-0.88-0.717-1.592-1.6-1.592h-1.6v3.183h1.6c0.883 0 1.6-0.713 1.6-1.592v0zM22.759 31.815l2.042 4.019h-3.2l-1.6-3.183h-1.6v3.183h-3.2v-12.733h4.8c2.651 0 4.8 2.22 4.8 4.858 0 1.614-0.81 2.992-2.042 3.857v0zM29.6 23.101h-3.2v12.733h9.6v-3.183h-6.4v-9.55zM10.4 23.101h3.2v8.125c0 2.636-2.149 4.775-4.8 4.775s-4.8-2.139-4.8-4.775v-8.125h3.2v8.125c0 0.879 0.717 1.592 1.6 1.592s1.6-0.713 1.6-1.592v-8.125z"></path>
</svg>
