<!-- Generated by IcoMoon.io -->
<svg version="1.1" xmlns="http://www.w3.org/2000/svg" width="40" height="40" viewBox="0 0 40 40">
<title>mp-focus_point_round-</title>
<path fill="#91908d" d="M36 7.2v8c0 0.883-0.717 1.6-1.6 1.6s-1.6-0.717-1.6-1.6v-6.4c0-0.883-0.717-1.6-1.6-1.6h-6.4c-0.883 0-1.6-0.717-1.6-1.6s0.717-1.6 1.6-1.6h8c1.768 0 3.2 1.432 3.2 3.2v0zM32.8 36h-8c-0.883 0-1.6-0.717-1.6-1.6s0.717-1.6 1.6-1.6h6.4c0.883 0 1.6-0.717 1.6-1.6v-6.4c0-0.883 0.717-1.6 1.6-1.6s1.6 0.717 1.6 1.6v8c0 1.768-1.432 3.2-3.2 3.2v0zM4 32.8v-8c0-0.883 0.717-1.6 1.6-1.6s1.6 0.717 1.6 1.6v6.4c0 0.883 0.717 1.6 1.6 1.6h6.4c0.883 0 1.6 0.717 1.6 1.6s-0.717 1.6-1.6 1.6h-8c-1.768 0-3.2-1.432-3.2-3.2v0zM4 15.2v-8c0-1.768 1.432-3.2 3.2-3.2h8c0.883 0 1.6 0.717 1.6 1.6s-0.717 1.6-1.6 1.6h-6.4c-0.883 0-1.6 0.717-1.6 1.6v6.4c0 0.883-0.717 1.6-1.6 1.6s-1.6-0.717-1.6-1.6v0zM4.016 20l-0.016 0.016v-0.032l0.016 0.016zM20 23.2c-1.765 0-3.2-1.435-3.2-3.2s1.435-3.2 3.2-3.2c1.765 0 3.2 1.435 3.2 3.2s-1.435 3.2-3.2 3.2v0zM26.174 21.6h1.826c0.883 0 1.6-0.717 1.6-1.6s-0.717-1.6-1.6-1.6h-1.826c-0.581-2.242-2.333-3.994-4.574-4.574v-1.826c0-0.883-0.717-1.6-1.6-1.6s-1.6 0.717-1.6 1.6v1.826c-2.242 0.581-3.994 2.333-4.574 4.574h-1.826c-0.883 0-1.6 0.717-1.6 1.6s0.717 1.6 1.6 1.6h1.826c0.581 2.242 2.333 3.994 4.574 4.574v1.826c0 0.883 0.717 1.6 1.6 1.6s1.6-0.717 1.6-1.6v-1.826c2.242-0.581 3.994-2.333 4.574-4.574v0z"></path>
</svg>
