<!-- Generated by IcoMoon.io -->
<svg version="1.1" xmlns="http://www.w3.org/2000/svg" width="40" height="40" viewBox="0 0 40 40">
<title>mp-file_rss-</title>
<path fill="#91908d" d="M35.56 13.671l-8.72-9.173c-0.302-0.317-0.722-0.498-1.16-0.498h-18.48c-1.766 0-3.2 1.434-3.2 3.2v11.2c0 0.883 0.717 1.6 1.6 1.6 0.885 0 1.6-0.717 1.6-1.6v-9.6c0-0.883 0.717-1.6 1.6-1.6h14.4v6.4c0 1.768 1.434 3.2 3.2 3.2h6.4v1.6c0 0.883 0.717 1.6 1.6 1.6 0.885 0 1.6-0.717 1.6-1.6v-3.627c0-0.41-0.157-0.805-0.44-1.102zM10.393 28c0-0.883-0.715-1.6-1.6-1.6h-1.6v3.2h1.6c0.885 0 1.6-0.715 1.6-1.6zM11.553 31.919l1.005 2.011c0.475 0.952-0.216 2.070-1.28 2.070-0.542 0-1.037-0.306-1.28-0.79l-1.205-2.41h-1.594v1.6c0 0.883-0.715 1.6-1.6 1.6-0.883 0-1.6-0.717-1.6-1.6v-9.6c0-0.883 0.717-1.6 1.6-1.6h2.958c2.499 0 4.754 1.808 5.010 4.294 0.189 1.827-0.656 3.466-2.014 4.424zM30.393 26.4h4.006c0.885 0 1.6-0.717 1.6-1.6s-0.715-1.6-1.6-1.6h-4.806c-1.763 0-3.194 1.43-3.194 3.194v1.606c0 1.768 1.434 3.2 3.2 3.2h2.394c0.442 0 0.8 0.358 0.8 0.8s-0.358 0.8-0.8 0.8h-3.994c-0.883 0-1.6 0.717-1.6 1.6s0.717 1.6 1.6 1.6h4.827c1.752 0 3.173-1.421 3.173-3.173v-1.661c0-1.749-1.418-3.166-3.166-3.166h-2.44c-0.442 0-0.8-0.358-0.8-0.8s0.358-0.8 0.8-0.8zM18.4 27.2c0 0.442 0.358 0.8 0.8 0.8h2.434c1.749 0 3.166 1.418 3.166 3.166v1.667c0 1.749-1.418 3.166-3.166 3.166h-4.834c-0.883 0-1.6-0.717-1.6-1.6s0.717-1.6 1.6-1.6h4c0.442 0 0.8-0.358 0.8-0.8s-0.358-0.8-0.8-0.8h-2.4c-1.766 0-3.2-1.432-3.2-3.2v-1.6c0-1.766 1.434-3.2 3.2-3.2h4.8c0.885 0 1.6 0.717 1.6 1.6s-0.715 1.6-1.6 1.6h-4c-0.442 0-0.8 0.358-0.8 0.8z"></path>
</svg>
