<!-- Generated by IcoMoon.io -->
<svg version="1.1" xmlns="http://www.w3.org/2000/svg" width="28" height="40" viewBox="0 0 28 40">
<title>mp-fileboard_minus-1</title>
<path fill="#91908d" d="M20 21.6c0 0.883-0.717 1.6-1.6 1.6h-6.4c-0.883 0-1.6-0.717-1.6-1.6s0.717-1.6 1.6-1.6h6.4c0.883 0 1.6 0.717 1.6 1.6v0zM23.2 31.067c0 0.883-0.717 1.733-1.6 1.733h-12.8c-0.883 0-1.6-0.85-1.6-1.733v-20c0-0.442 0.358-0.667 0.8-0.667h0.8c0 1.6 1.432 3.2 3.2 3.2h6.4c1.768 0 3.2-1.6 3.2-3.2h0.8c0.442 0 0.8 0.226 0.8 0.667v20zM13.6 7.2h3.2c0.883 0 1.6 0.717 1.6 1.6s-0.717 1.6-1.6 1.6h-3.2c-0.883 0-1.6-0.717-1.6-1.6s0.717-1.6 1.6-1.6v0zM23.2 7.2h-1.6c0-1.6-1.432-3.2-3.2-3.2h-6.4c-1.768 0-3.2 1.6-3.2 3.2h-1.6c-1.768 0-3.2 1.299-3.2 3.067v22.4c0 1.766 1.432 3.333 3.2 3.333h16c1.768 0 3.2-1.566 3.2-3.333v-22.4c0-1.768-1.432-3.067-3.2-3.067v0z"></path>
</svg>
