<!-- Generated by IcoMoon.io -->
<svg version="1.1" xmlns="http://www.w3.org/2000/svg" width="40" height="40" viewBox="0 0 40 40">
<title>mp-focus_point-</title>
<path fill="#91908d" d="M36 4v12.8h-3.2v-9.6h-9.6v-3.2h12.8zM32.8 23.2h3.2v12.8h-12.8v-3.2h9.6v-9.6zM7.2 32.8h9.6v3.2h-12.8v-12.8h3.2v9.6zM7.2 16.8h-3.2v-12.8h12.8v3.2h-9.6v9.6zM4.016 20l-0.016 0.016v-0.032l0.016 0.016zM20 23.2c-1.765 0-3.2-1.435-3.2-3.2s1.435-3.2 3.2-3.2c1.765 0 3.2 1.435 3.2 3.2s-1.435 3.2-3.2 3.2v0zM26.174 21.6h3.426v-3.2h-3.426c-0.581-2.242-2.333-3.994-4.574-4.574v-3.426h-3.2v3.426c-2.242 0.581-3.994 2.333-4.574 4.574h-3.426v3.2h3.426c0.581 2.242 2.333 3.994 4.574 4.574v3.426h3.2v-3.426c2.242-0.581 3.994-2.333 4.574-4.574v0z"></path>
</svg>
