<!-- Generated by IcoMoon.io -->
<svg version="1.1" xmlns="http://www.w3.org/2000/svg" width="40" height="40" viewBox="0 0 40 40">
<title>mp-focus_point-2</title>
<path fill="#91908d" d="M23.2 21.603v-3.205c0-0.883-0.715-1.598-1.597-1.598h-3.206c-0.882 0-1.597 0.715-1.597 1.598v3.205c0 0.882 0.715 1.597 1.597 1.597h3.206c0.882 0 1.597-0.715 1.597-1.597v0zM23.2 26.399h-1.6v1.6c0 0.885-0.717 1.6-1.6 1.6s-1.6-0.715-1.6-1.6v-1.6h-1.6c-1.768 0-3.2-1.432-3.2-3.2v-1.6h-1.6c-0.883 0-1.6-0.715-1.6-1.6 0-0.883 0.717-1.6 1.6-1.6h1.6v-1.6c0-1.766 1.432-3.2 3.2-3.2h1.6v-1.6c0-0.883 0.717-1.6 1.6-1.6s1.6 0.717 1.6 1.6v1.6h1.6c1.768 0 3.2 1.434 3.2 3.2v1.6h1.6c0.883 0 1.6 0.717 1.6 1.6 0 0.885-0.717 1.6-1.6 1.6h-1.6v1.6c0 1.768-1.432 3.2-3.2 3.2v0zM32.8 3.999h-8c-0.883 0-1.6 0.717-1.6 1.6 0 0.885 0.717 1.6 1.6 1.6h6.4c0.883 0 1.6 0.717 1.6 1.6v6.4c0 0.885 0.717 1.6 1.6 1.6s1.6-0.715 1.6-1.6v-8c0-1.766-1.432-3.2-3.2-3.2v0zM34.4 23.199c-0.883 0-1.6 0.717-1.6 1.6v6.4c0 0.885-0.717 1.6-1.6 1.6h-6.4c-0.883 0-1.6 0.717-1.6 1.6 0 0.885 0.717 1.6 1.6 1.6h8c1.768 0 3.2-1.432 3.2-3.2v-8c0-0.883-0.717-1.6-1.6-1.6v0zM15.2 32.799h-6.4c-0.883 0-1.6-0.715-1.6-1.6v-6.4c0-0.883-0.717-1.6-1.6-1.6s-1.6 0.717-1.6 1.6v8c0 1.768 1.432 3.2 3.2 3.2h8c0.883 0 1.6-0.715 1.6-1.6 0-0.883-0.717-1.6-1.6-1.6v0zM5.6 16.799c0.883 0 1.6-0.715 1.6-1.6v-6.4c0-0.883 0.717-1.6 1.6-1.6h6.4c0.883 0 1.6-0.715 1.6-1.6 0-0.883-0.717-1.6-1.6-1.6h-8c-1.768 0-3.2 1.434-3.2 3.2v8c0 0.885 0.717 1.6 1.6 1.6v0zM4.016 19.999l-0.016 0.016v-0.030l0.016 0.014z"></path>
</svg>
