<!-- Generated by IcoMoon.io -->
<svg version="1.1" xmlns="http://www.w3.org/2000/svg" width="40" height="40" viewBox="0 0 40 40">
<title>mp-file_rar-1</title>
<path fill="#91908d" d="M36 14.301v5.699h-3.2v-3.2h-9.6v-9.6h-16v12.8h-3.2v-16h22.366l9.634 10.301zM31.198 29.769h-1.6v-3.2h1.6c0.883 0 1.6 0.715 1.6 1.6 0 0.883-0.717 1.6-1.6 1.6v0zM35.998 28.084c0-2.65-2.149-4.883-4.8-4.883h-4.798v12.8h3.2v-3.2h1.598l1.6 3.2h3.2l-2.042-4.040c1.232-0.869 2.042-2.254 2.042-3.877v0zM8.797 29.769h-1.6v-3.2h1.6c0.883 0 1.6 0.715 1.6 1.6 0 0.883-0.717 1.6-1.6 1.6v0zM13.597 28.084c0-2.65-2.149-4.883-4.8-4.883h-4.797v12.8h3.2v-3.2h1.597l1.6 3.2h3.2l-2.042-4.040c1.232-0.869 2.042-2.254 2.042-3.877v0zM18.4 29.769h3.2v-3.2h-3.2v3.2zM15.2 23.201v12.8h3.2v-3.2h3.2v3.2h3.2v-12.8h-9.6z"></path>
</svg>
