<!-- Generated by IcoMoon.io -->
<svg version="1.1" xmlns="http://www.w3.org/2000/svg" width="40" height="40" viewBox="0 0 40 40">
<title>mp-helmet_round-1</title>
<path fill="#91908d" d="M32.8 29.333c0 1.834-1.501 3.467-3.333 3.467h-19.304c-1.637 0-2.963-1.461-2.963-3.096v-3.304h12.093c1.378 0 2.602-0.949 3.037-2.256l1.067-3.166c0.69-2.072-0.853-4.178-3.037-4.178h-12.573c1.523-4.8 5.891-9.074 11.336-9.438 7.453-0.499 13.677 5.29 13.677 12.638v9.333zM32.8 10.429c-0.918-1.226-2.005-2.312-3.229-3.229-2.672-2.002-5.978-3.2-9.571-3.2s-6.899 1.198-9.571 3.2c-1.224 0.917-2.31 2.003-3.229 3.229-2 2.67-3.2 5.976-3.2 9.571v9.333c0 3.534 2.866 6.667 6.4 6.667h19.2c3.534 0 6.4-3.133 6.4-6.667v-9.333c0-3.595-1.2-6.901-3.2-9.571v0z"></path>
</svg>
