<!-- Generated by IcoMoon.io -->
<svg version="1.1" xmlns="http://www.w3.org/2000/svg" width="50" height="40" viewBox="0 0 50 40">
<title>mp-image_picture-5</title>
<path fill="#91908d" d="M28 13c0-1.104 0.896-2 2-2s2 0.896 2 2c0 1.104-0.896 2-2 2s-2-0.896-2-2v0zM29.5 19.5l6.5 8.5h-24l9.036-12.376 5.672 7.626 2.792-3.75zM40 30c0 1.104-0.896 2-2 2h-28c-1.104 0-2-0.896-2-2v-20c0-1.104 0.896-2 2-2h28c1.104 0 2 0.896 2 2v20zM40 4h-32c-2.208 0-4 1.79-4 4v24c0 2.208 1.792 4 4 4h32c2.21 0 4-1.792 4-4v-24c0-2.21-1.79-4-4-4v0z"></path>
</svg>
