<!-- Generated by IcoMoon.io -->
<svg version="1.1" xmlns="http://www.w3.org/2000/svg" width="40" height="40" viewBox="0 0 40 40">
<title>mp-image-</title>
<path fill="#91908d" d="M26.787 12.75c0-0.883 0.717-1.6 1.6-1.6s1.6 0.717 1.6 1.6c0 0.883-0.717 1.6-1.6 1.6s-1.6-0.717-1.6-1.6v0zM32.8 21.6l-5.302-5.018-8.981 9.067-5.546-5.629-5.771 5.619v-18.44h25.6v14.4zM32.8 32.8h-25.6v-2.637l5.725-5.494 5.531 5.494 0.042-0.024 0.034 0.024 8.822-8.97 5.446 5.594v6.013zM4 36h32v-32h-32v32z"></path>
</svg>
