<!-- Generated by IcoMoon.io -->
<svg version="1.1" xmlns="http://www.w3.org/2000/svg" width="40" height="40" viewBox="0 0 40 40">
<title>mp-inbox_done_round-</title>
<path fill="#91908d" d="M15.475 15.862c-0.626-0.626-0.626-1.638 0-2.262 0.626-0.626 1.638-0.626 2.262 0l1.131 1.131 3.395-3.394c0.624-0.626 1.637-0.626 2.262 0 0.624 0.624 0.624 1.637 0 2.262l-5.658 5.656c-4.688-4.688-1.363-1.363-3.394-3.394v0zM31.2 20v-4.934l1.6 4.934h-1.6zM32.8 31.066c0 0.885-0.715 1.734-1.6 1.734h-22.4c-0.883 0-1.6-0.85-1.6-1.734v-7.866h4.8c0.885 0 1.6 0.582 1.6 1.466v1.6c0 1.768 1.434 3.334 3.2 3.334h6.4c1.768 0 3.2-1.566 3.2-3.334v-1.6c0-0.883 0.717-1.466 1.6-1.466h4.8v7.866zM8.8 15.066v4.934h-1.6l1.6-4.934zM12 8.666c0-0.883 0.717-1.466 1.6-1.466h12.8c0.885 0 1.6 0.582 1.6 1.466v11.334h-1.6c-1.766 0-3.2 1.299-3.2 3.066v1.6c0 0.885-0.715 1.734-1.6 1.734h-3.2c-0.883 0-1.6-0.85-1.6-1.734v-1.6c0-1.766-1.432-3.066-3.2-3.066h-1.6v-11.334zM32.8 10.4h-1.6v-3.334c0-1.766-1.432-3.066-3.2-3.066h-16c-1.766 0-3.2 1.299-3.2 3.066v3.334h-1.6l-3.2 9.466v12.8c0 1.768 1.434 3.334 3.2 3.334h25.6c1.768 0 3.2-1.566 3.2-3.334v-12.8l-3.2-9.466z"></path>
</svg>
