<!-- Generated by IcoMoon.io -->
<svg version="1.1" xmlns="http://www.w3.org/2000/svg" width="40" height="40" viewBox="0 0 40 40">
<title>mp-linux_ubuntu-</title>
<path fill="#91908d" d="M28.98 9.516c1.468 0.816 3.344 0.333 4.191-1.082s0.345-3.222-1.122-4.038c-1.468-0.816-3.344-0.331-4.193 1.083-0.845 1.413-0.342 3.221 1.124 4.037zM22.7 28.638c-1.35 0-2.63-0.29-3.776-0.803l-2.134 3.682c1.782 0.85 3.787 1.33 5.909 1.33 1.234 0 2.428-0.165 3.562-0.467 0.199-1.189 0.931-2.282 2.097-2.931 1.167-0.65 2.514-0.712 3.681-0.288 2.268-2.15 3.744-5.075 3.96-8.331l-4.374-0.062c-0.402 4.413-4.244 7.872-8.927 7.872zM22.7 11.363c4.682 0 8.525 3.459 8.927 7.872l4.374-0.062c-0.216-3.258-1.692-6.182-3.962-8.333-1.166 0.426-2.514 0.36-3.68-0.286-1.166-0.65-1.898-1.744-2.099-2.933-1.134-0.301-2.326-0.466-3.562-0.466-2.12 0-4.126 0.48-5.908 1.33l2.134 3.682c1.146-0.515 2.426-0.803 3.776-0.803zM13.735 19.999c0-2.922 1.508-5.504 3.812-7.067l-2.245-3.621c-2.685 1.73-4.682 4.373-5.513 7.467 0.97 0.762 1.589 1.922 1.589 3.221s-0.619 2.459-1.589 3.221c0.83 3.096 2.828 5.739 5.513 7.469l2.245-3.622c-2.305-1.563-3.812-4.144-3.812-7.067zM28.981 30.483c-1.468 0.816-1.971 2.624-1.124 4.038s2.723 1.899 4.191 1.082c1.468-0.816 1.971-2.624 1.122-4.038-0.847-1.413-2.723-1.898-4.189-1.082zM7.070 17.043c-1.695 0-3.070 1.323-3.070 2.957s1.375 2.957 3.070 2.957c1.695 0 3.069-1.323 3.069-2.957s-1.373-2.957-3.069-2.957z"></path>
</svg>
