<!-- Generated by IcoMoon.io -->
<svg version="1.1" xmlns="http://www.w3.org/2000/svg" width="56" height="40" viewBox="0 0 56 40">
<title>mp-list-2</title>
<path fill="#91908d" d="M7.36 29.6c-1.855 0-3.36 1.434-3.36 3.2s1.505 3.2 3.36 3.2c1.855 0 3.36-1.434 3.36-3.2s-1.505-3.2-3.36-3.2v0zM15.2 36h33.6v-4.267h-33.6v4.267zM7.36 16.8c-1.855 0-3.36 1.434-3.36 3.2s1.505 3.2 3.36 3.2c1.855 0 3.36-1.434 3.36-3.2s-1.505-3.2-3.36-3.2v0zM15.2 23.2h33.6v-4.267h-33.6v4.267zM7.36 4c-1.855 0-3.36 1.434-3.36 3.2s1.505 3.2 3.36 3.2c1.855 0 3.36-1.434 3.36-3.2s-1.505-3.2-3.36-3.2v0zM15.2 10.4h33.6v-4.267h-33.6v4.267z"></path>
</svg>
