<!-- Generated by IcoMoon.io -->
<svg version="1.1" xmlns="http://www.w3.org/2000/svg" width="84" height="40" viewBox="0 0 84 40">
<title>mp-list-4</title>
<path fill="#91908d" d="M7.36 29.6c-1.855 0-3.36 1.434-3.36 3.2s1.505 3.2 3.36 3.2c1.855 0 3.36-1.434 3.36-3.2s-1.505-3.2-3.36-3.2v0zM7.36 4.019c-1.855 0-3.36 1.434-3.36 3.2 0 1.77 1.505 3.2 3.36 3.2s3.36-1.43 3.36-3.2c0-1.766-1.505-3.2-3.36-3.2v0zM7.36 16.8c-1.855 0-3.36 1.434-3.36 3.2s1.505 3.2 3.36 3.2c1.855 0 3.36-1.434 3.36-3.2s-1.505-3.2-3.36-3.2v0zM17.44 36h53.76v-6.4h-53.76v6.4zM17.44 10.4h53.76v-6.4h-53.76v6.4zM17.44 23.2h53.76v-6.4h-53.76v6.4z"></path>
</svg>
