<!-- Generated by IcoMoon.io -->
<svg version="1.1" xmlns="http://www.w3.org/2000/svg" width="47" height="40" viewBox="0 0 47 40">
<title>mp-medium-</title>
<path fill="#91908d" d="M19.059 14.039v11.051l10.039 4.917-10.039-15.968zM41.376 9.905l-11.928-5.831c-0.194-0.101-0.44-0.026-0.557 0.153l-6.895 10.969 8.205 13.048 11.29-17.946c0.092-0.14 0.026-0.317-0.115-0.392zM30.79 30.821l9.822 4.801c0.568 0.28 1.035 0 1.035-0.634v-21.425l-10.857 17.257zM17.176 9.555v25.447c0 0.621-0.779 1.207-1.35 0.927l-11.827-6.107v-25.163c0-0.42 0.431-0.897 1.195-0.521l11.981 5.418z"></path>
</svg>
