<!-- Generated by IcoMoon.io -->
<svg version="1.1" xmlns="http://www.w3.org/2000/svg" width="44" height="40" viewBox="0 0 44 40">
<title>mp-megaphone-1</title>
<path fill="#91908d" d="M36 28.178l-27.015-5.403c-0.832-0.167-1.429-0.896-1.429-1.744v-2.062c0-0.848 0.597-1.577 1.429-1.744l27.015-5.403v16.356zM18.222 29.532c0 1.125-1.033 1.968-2.137 1.74l-3.556-0.731c-0.825-0.171-1.419-0.898-1.419-1.742v-2.044l7.111 1.422v1.355zM36 5.778v2.489l-29.141 5.828c-1.662 0.332-2.859 1.792-2.859 3.488v4.836c0 1.696 1.196 3.156 2.859 3.488l0.697 0.139v4.132c0 1.687 1.186 3.141 2.839 3.483l7.111 1.463c2.206 0.453 4.272-1.232 4.272-3.483v-2.75l14.222 2.844v2.489c0 0.981 0.796 1.778 1.778 1.778s1.778-0.796 1.778-1.778v-28.444c0-0.981-0.796-1.778-1.778-1.778s-1.778 0.796-1.778 1.778v0z"></path>
</svg>
