<!-- Generated by IcoMoon.io -->
<svg version="1.1" xmlns="http://www.w3.org/2000/svg" width="40" height="40" viewBox="0 0 40 40">
<title>mp-microphone-4</title>
<path fill="#91908d" d="M29.663 17.216c-0.197 5.82-4.634 8.617-9.205 8.784l-2.981 2.809c0.323 0.056 0.645 0.009 0.969 0.045v4.013h-4.815v3.132h12.841v-3.132h-4.815v-4.013c5.843-0.64 11.236-5.382 11.236-11.645-0.608 0-2.624-0.003-3.23 0.006v0zM11.579 21.571c-0.726-1.309-1.159-2.795-1.159-4.361h-3.21c0 1.566 0.748 5.008 1.986 6.882l2.384-2.521zM16.841 16.046v-8.232h6.421v1.968l3.21-3.132v-1.968h-12.841c0 12.876-0.165 12.471 0.47 14.038l2.74-2.674zM36 6.214l-29.73 29.003-2.27-2.214 29.729-29.003 2.271 2.214z"></path>
</svg>
