<!-- Generated by IcoMoon.io -->
<svg version="1.1" xmlns="http://www.w3.org/2000/svg" width="40" height="40" viewBox="0 0 40 40">
<title>mp-message_one_point-2</title>
<path fill="#91908d" d="M22.996 19.904c0 1.768-1.432 3.2-3.2 3.2s-3.2-1.432-3.2-3.2c0-1.768 1.432-3.2 3.2-3.2s3.2 1.432 3.2 3.2zM31.907 32.8c-1.6 0-4.485-1.877-9.797-0.958-1.848 0.32-3.72 0.229-5.574-0.266-4.845-1.29-8.547-5.395-9.214-10.214-0.496-3.589 0.534-7.062 2.902-9.781 2.426-2.784 5.965-4.381 9.709-4.381 6.309 0 11.272 4.325 12.44 9.733 1.318 6.093-2.046 5.458 0.4 14.848 0.146 0.562-0.354 1.019-0.866 1.019zM35.868 30.974v0c-2.24-8.6 1.158-7.658-0.368-14.718-1.472-6.808-7.722-12.256-15.568-12.256-9.533-0.002-17.109 8.203-15.781 17.8 0.846 6.114 5.485 11.25 11.56 12.869 2.267 0.603 4.603 0.731 6.944 0.326 4.371-0.757 7.355 1.005 9.251 1.005 2.578 0 4.643-2.406 3.962-5.026z"></path>
</svg>
