<!-- Generated by IcoMoon.io -->
<svg version="1.1" xmlns="http://www.w3.org/2000/svg" width="67" height="40" viewBox="0 0 67 40">
<title>mp-money_round-1</title>
<path fill="#91908d" d="M25.333 20c0-2.947 2.387-5.333 5.333-5.333s5.333 2.387 5.333 5.333c0 2.947-2.387 5.333-5.333 5.333s-5.333-2.387-5.333-5.333zM49.333 30.667h-37.333c-1.472 0-2.667-1.195-2.667-2.667v-16c0-1.472 1.195-2.667 2.667-2.667h37.333c1.472 0 2.667 1.195 2.667 2.667v16c0 1.472-1.195 2.667-2.667 2.667zM4 9.333v21.333c0 2.947 2.387 5.333 5.333 5.333h42.667c2.947 0 5.333-2.387 5.333-5.333v-21.333c0-2.947-2.387-5.333-5.333-5.333h-42.667c-2.947 0-5.333 2.387-5.333 5.333z"></path>
</svg>
