<!-- Generated by IcoMoon.io -->
<svg version="1.1" xmlns="http://www.w3.org/2000/svg" width="40" height="40" viewBox="0 0 40 40">
<title>mp-map_round-</title>
<path fill="#91908d" d="M32.8 30.4c0 0.883-0.88 2.4-1.763 2.4h-11.037v-19.2h11.037c0.883 0 1.763-0.083 1.763 0.8v16zM16.8 30.154l-3.2-3.938v-18.102l3.2 3.749v18.291zM10.4 26.4h-1.763c-0.885 0-1.437-1.517-1.437-2.4v-16c0-0.883 0.552-0.8 1.437-0.8h1.763v19.2zM32.637 10.4h-12.262c-0.936 0-1.826-0.81-2.434-1.522l-3.546-3.955c-0.608-0.712-1.498-0.923-2.435-0.923h-4.923c-1.768 0-3.037 0.632-3.037 2.4v19.2c0 1.768 1.269 4 3.037 4h2.875c0.963 0 1.875 0.034 2.483 0.782l3.28 4.237c0.608 0.747 1.52 1.381 2.483 1.381h14.478c1.766 0 3.363-2.232 3.363-4v-19.2c0-1.768-1.597-2.4-3.363-2.4v0z"></path>
</svg>
