<!-- Generated by IcoMoon.io -->
<svg version="1.1" xmlns="http://www.w3.org/2000/svg" width="67" height="40" viewBox="0 0 67 40">
<title>mp-next_arrow-2</title>
<path fill="#91908d" d="M30.667 20c0 1.472-1.195 2.667-2.667 2.667h-2.667v2.667c0 1.472-1.195 2.667-2.667 2.667s-2.667-1.195-2.667-2.667v-2.667h-2.667c-1.472 0-2.667-1.195-2.667-2.667s1.195-2.667 2.667-2.667h2.667v-2.667c0-1.472 1.195-2.667 2.667-2.667s2.667 1.195 2.667 2.667v2.667h2.667c1.472 0 2.667 1.195 2.667 2.667v0zM38.133 30.4c-0.232 0.173-0.512 0.267-0.8 0.267h-25.333c-1.472 0-2.667-1.195-2.667-2.667v-16c0-1.472 1.195-2.667 2.667-2.667h25.333c0.288 0 0.568 0.093 0.8 0.267l13.867 10.4-13.867 10.4zM55.2 15.733l-14.933-11.2c-0.461-0.347-1.024-0.533-1.6-0.533h-29.333c-2.944 0-5.333 2.387-5.333 5.333v21.333c0 2.947 2.389 5.333 5.333 5.333h29.333c0.576 0 1.139-0.187 1.6-0.533l14.933-11.2c2.845-2.133 2.845-6.4 0-8.533v0z"></path>
</svg>
