<!-- Generated by IcoMoon.io -->
<svg version="1.1" xmlns="http://www.w3.org/2000/svg" width="34" height="40" viewBox="0 0 34 40">
<title>mp-notification_bell-1</title>
<path fill="#91908d" d="M24.4 26.4h-13.6v-9.6c0-4.266 3.4-6.4 6.798-6.4h0.003c3.398 0 6.798 2.134 6.798 6.4v9.6zM19.3 31.2c0 0.883-0.762 1.6-1.7 1.6s-1.7-0.717-1.7-1.6v-1.6h3.4v1.6zM27.8 26.4v-9.6c0-5.685-4.026-8.84-8.5-9.474v-3.326h-3.4v3.326c-4.474 0.634-8.5 3.789-8.5 9.474v9.6h-3.4v3.2h8.5v1.6c0 2.651 2.283 4.8 5.1 4.8s5.1-2.149 5.1-4.8v-1.6h8.5v-3.2h-3.4z"></path>
</svg>
