<!-- Generated by IcoMoon.io -->
<svg version="1.1" xmlns="http://www.w3.org/2000/svg" width="36" height="40" viewBox="0 0 36 40">
<title>mp-notebook_and_pen-7</title>
<path fill="#91908d" d="M31.2 4c-0.883 0-1.6 0.717-1.6 1.6v1.6h3.2v-1.6c0-0.883-0.717-1.6-1.6-1.6v0zM29.6 34.4c0 0.883 0.717 1.6 1.6 1.6s1.6-0.717 1.6-1.6v-24h-3.2v24zM23.2 8.8c0-0.883-0.717-1.6-1.6-1.6h-9.6c-0.883 0-1.6 0.717-1.6 1.6v22.4c0 0.883 0.717 1.6 1.6 1.6h9.6c0.883 0 1.6-0.717 1.6-1.6v-22.4zM26.4 7.2v25.6c0 1.766-1.432 3.2-3.2 3.2h-12.8c-1.768 0-3.2-1.434-3.2-3.2h-1.6c-0.883 0-1.6-0.717-1.6-1.6s0.717-1.6 1.6-1.6h1.6v-3.2h-1.6c-0.883 0-1.6-0.717-1.6-1.6s0.717-1.6 1.6-1.6h1.6v-3.2h-1.6c-0.883 0-1.6-0.717-1.6-1.6s0.717-1.6 1.6-1.6h1.6v-3.2h-1.6c-0.883 0-1.6-0.717-1.6-1.6s0.717-1.6 1.6-1.6h1.6v-3.2c0-1.766 1.432-3.2 3.2-3.2h12.8c1.768 0 3.2 1.434 3.2 3.2v0zM20 12v16c0 0.883-0.717 1.6-1.6 1.6h-3.2c-0.883 0-1.6-0.717-1.6-1.6v-16c0-0.883 0.717-1.6 1.6-1.6h3.2c0.883 0 1.6 0.717 1.6 1.6v0z"></path>
</svg>
