<!-- Generated by IcoMoon.io -->
<svg version="1.1" xmlns="http://www.w3.org/2000/svg" width="50" height="40" viewBox="0 0 50 40">
<title>mp-next-</title>
<path fill="#91908d" d="M30 25.020v-10.62c2.334-1.822 0.8-0.668 7.642-5.722 0.664-0.478 2.358-0.116 2.358 0.818 0 26.294 2.068 24.666-10 15.524zM24.66 31c-0.738 0-14.534-10.032-15.136-10.46-0.592-0.426-0.56-1.232-0.030-1.612l14.278-10.266c0.652-0.468 2.228-0.11 2.228 0.806 0 21.124 0.66 21.532-1.34 21.532zM38.51 4.48c-2.358 0-3.014 0.86-8.514 4.958-0.020-2.932-2.756-4.972-5.336-4.972-1.94 0-4.818 2.708-16.66 11.534v-10c0-1.106-0.896-2-2-2s-2 0.894-2 2v28c0 1.104 0.896 2 2 2s2-0.896 2-2v-10l13.436 9.854c0.908 0.652 2.242 1.046 3.224 1.046 2.558 0 5.26-1.954 5.328-4.844 5.168 3.844 6.030 4.918 8.604 4.918 2.598 0 5.408-2.046 5.408-5.004v-20.474c0-2.958-2.892-5.016-5.49-5.016z"></path>
</svg>
