<!-- Generated by IcoMoon.io -->
<svg version="1.1" xmlns="http://www.w3.org/2000/svg" width="40" height="40" viewBox="0 0 40 40">
<title>mp-object_placement-4</title>
<path fill="#91908d" d="M36 20c0 0.883-0.717 1.6-1.6 1.6h-28.8c-0.883 0-1.6-0.717-1.6-1.6s0.717-1.6 1.6-1.6h28.8c0.883 0 1.6 0.717 1.6 1.6v0zM32.8 31.2c0 0.883-0.717 1.6-1.6 1.6h-22.4c-0.883 0-1.6-0.717-1.6-1.6v-1.6c0-0.883 0.717-1.6 1.6-1.6h22.4c0.883 0 1.6 0.717 1.6 1.6v1.6zM32.8 24.8h-25.6c-1.766 0-3.2 1.432-3.2 3.2v4.8c0 1.768 1.434 3.2 3.2 3.2h25.6c1.768 0 3.2-1.432 3.2-3.2v-4.8c0-1.768-1.432-3.2-3.2-3.2v0zM32.8 10.4c0 0.883-0.717 1.6-1.6 1.6h-22.4c-0.883 0-1.6-0.717-1.6-1.6v-1.6c0-0.883 0.717-1.6 1.6-1.6h22.4c0.883 0 1.6 0.717 1.6 1.6v1.6zM32.8 4h-25.6c-1.766 0-3.2 1.432-3.2 3.2v4.8c0 1.768 1.434 3.2 3.2 3.2h25.6c1.768 0 3.2-1.432 3.2-3.2v-4.8c0-1.768-1.432-3.2-3.2-3.2v0z"></path>
</svg>
