<!-- Generated by IcoMoon.io -->
<svg version="1.1" xmlns="http://www.w3.org/2000/svg" width="40" height="40" viewBox="0 0 40 40">
<title>mp-object_connection_round-3</title>
<path fill="#91908d" d="M13.6 31.2c0 0.883-0.717 1.6-1.6 1.6h-3.2c-0.883 0-1.6-0.717-1.6-1.6v-3.2c0-0.883 0.717-1.6 1.6-1.6h3.2c0.883 0 1.6 0.717 1.6 1.6v3.2zM13.6 23.2h-6.4c-1.768 0-3.2 1.432-3.2 3.2v6.4c0 1.768 1.432 3.2 3.2 3.2h6.4c1.768 0 3.2-1.432 3.2-3.2v-6.4c0-1.768-1.432-3.2-3.2-3.2v0zM31.2 21.6v6.4c0 1.768-1.432 3.2-3.2 3.2h-6.4c-0.883 0-1.6-0.717-1.6-1.6s0.717-1.6 1.6-1.6h4.8c0.883 0 1.6-0.717 1.6-1.6v-4.8c0-0.883 0.717-1.6 1.6-1.6s1.6 0.717 1.6 1.6v0zM32.8 12c0 0.883-0.717 1.6-1.6 1.6h-3.2c-0.883 0-1.6-0.717-1.6-1.6v-3.2c0-0.883 0.717-1.6 1.6-1.6h3.2c0.883 0 1.6 0.717 1.6 1.6v3.2zM32.8 4h-6.4c-1.768 0-3.2 1.432-3.2 3.2v6.4c0 1.768 1.432 3.2 3.2 3.2h6.4c1.768 0 3.2-1.432 3.2-3.2v-6.4c0-1.768-1.432-3.2-3.2-3.2v0z"></path>
</svg>
