<!-- Generated by IcoMoon.io -->
<svg version="1.1" xmlns="http://www.w3.org/2000/svg" width="40" height="40" viewBox="0 0 40 40">
<title>mp-object_connection_round-5</title>
<path fill="#91908d" d="M13.6 28c0-0.883-0.717-1.6-1.6-1.6h-3.2c-0.883 0-1.6 0.717-1.6 1.6v3.2c0 0.883 0.717 1.6 1.6 1.6h3.2c0.883 0 1.6-0.717 1.6-1.6v-3.2zM16.8 26.4v6.4c0 1.768-1.432 3.2-3.2 3.2h-6.4c-1.768 0-3.2-1.432-3.2-3.2v-6.4c0-1.768 1.432-3.2 3.2-3.2h6.4c1.768 0 3.2 1.432 3.2 3.2v0zM32.8 8.8c0-0.883-0.717-1.6-1.6-1.6h-3.2c-0.883 0-1.6 0.717-1.6 1.6v3.2c0 0.883 0.717 1.6 1.6 1.6h3.2c0.883 0 1.6-0.717 1.6-1.6v-3.2zM36 7.2v6.4c0 1.768-1.432 3.2-3.2 3.2h-6.4c-1.768 0-3.2-1.432-3.2-3.2v-6.4c0-1.768 1.432-3.2 3.2-3.2h6.4c1.768 0 3.2 1.432 3.2 3.2v0zM31.2 20h-3.2c-0.883 0-1.6 0.709-1.6 1.592s0.717 1.592 1.6 1.592v3.2c0 0.885-0.717 1.616-1.6 1.616h-3.2c0-1.6-0.717-1.608-1.6-1.608s-1.6 0.709-1.6 1.592v3.2c0 0.885 0.717 1.608 1.6 1.608s1.6 0.008 1.6-1.592h4.8c1.768 0 3.2-1.448 3.2-3.216v-4.8c0.883 0 1.6-0.709 1.6-1.592s-0.717-1.592-1.6-1.592v0zM20 12c0 0.883-0.717 1.6-1.6 1.6s-1.6-0.717-1.6-1.6h-3.2c-0.883 0-1.6 0.717-1.6 1.6v3.2c0.883 0 1.6 0.717 1.6 1.6s-0.717 1.6-1.6 1.6h-3.2c-0.883 0-1.6-0.717-1.6-1.6s0.717-1.6 1.6-1.6v-4.8c0-1.768 1.432-3.2 3.2-3.2h4.8c0-0.883 0.717-1.6 1.6-1.6s1.6 0.717 1.6 1.6v3.2z"></path>
</svg>
