<!-- Generated by IcoMoon.io -->
<svg version="1.1" xmlns="http://www.w3.org/2000/svg" width="40" height="40" viewBox="0 0 40 40">
<title>mp-pinterest-</title>
<path fill="#91908d" d="M19.802 4c-8.763 0-15.802 7.096-15.802 15.934 0 6.56 3.851 12.049 9.429 14.593 0-2.988-0.021-2.602 2.256-12.318-1.251-2.525-0.278-6.694 2.523-6.694 3.888 0 1.246 5.765 0.797 8.033-0.398 1.741 0.93 3.080 2.523 3.080 3.054 0 5.045-3.883 5.045-8.435 0-3.482-2.389-6.026-6.506-6.026-7.32 0-9.176 8.152-6.638 10.711 0.638 0.966 0 1.012 0 2.276-0.443 1.337-3.984-0.607-3.984-5.623 0-4.553 3.718-9.908 11.286-9.908 5.974 0 9.958 4.417 9.958 9.104 0 6.292-3.453 10.845-8.498 10.845-1.726 0-3.32-0.937-3.851-2.009-0.965 3.753-1.16 5.655-2.656 7.765 1.461 0.402 2.922 0.67 4.515 0.67 8.763 0 15.8-7.096 15.8-15.932-0.397-8.972-7.435-16.068-16.198-16.068z"></path>
</svg>
