<!-- Generated by IcoMoon.io -->
<svg version="1.1" xmlns="http://www.w3.org/2000/svg" width="40" height="40" viewBox="0 0 40 40">
<title>mp-profile_image_close_round-</title>
<path fill="#91908d" d="M35.562 33.455c0.584 0.583 0.584 1.526 0 2.108-0.584 0.583-1.53 0.583-2.113 0l-1.056-1.054-1.056 1.054c-0.584 0.583-1.53 0.583-2.114 0-0.583-0.581-0.583-1.525 0-2.108l1.056-1.054-1.056-1.054c-0.583-0.583-0.583-1.526 0-2.108 0.584-0.583 1.53-0.583 2.114 0l1.056 1.054 1.056-1.054c0.583-0.583 1.529-0.583 2.113 0 0.584 0.581 0.584 1.525 0 2.108l-1.056 1.054 1.056 1.054zM19.874 18.807c-0.877-0.072-1.134-0.060-1.877-0.004-2.019-0.434-3.537-2.226-3.537-4.368 0-2.466 2.010-4.472 4.483-4.472 2.472 0 4.483 2.006 4.483 4.472 0 2.147-1.526 3.943-3.552 4.372v0zM7.007 29.43c-0.003-0.031-0.018-0.057-0.018-0.088v-20.87c0-0.823 0.668-1.491 1.494-1.491h10.365c-4.083 0.052-7.376 3.366-7.376 7.449 0 2.154 0.929 4.080 2.392 5.441-3.728 1.728-6.418 5.302-6.857 9.558v0zM19.039 6.981h10.365c0.825 0 1.494 0.668 1.494 1.491v13.416c0 0.823 0.668 1.491 1.494 1.491 0.825 0 1.494-0.668 1.494-1.491v-14.907c0-1.646-1.339-2.981-2.989-2.981h-23.909c-1.651 0-2.989 1.336-2.989 2.981v23.851c0 1.647 1.337 2.981 2.989 2.981h14.943c0.825 0 1.494-0.668 1.494-1.491s-0.669-1.491-1.494-1.491h-11.994c0 0-0.009-0.098-0.009-0.158 0-4.615 3.522-8.415 8.026-8.885 1.494 0.198 4.071-0.428 5.785 1.161 1.494 1.385 3.752-0.832 2.071-2.023-0.571-0.404-1.181-0.762-1.825-1.064 1.482-1.361 2.428-3.278 2.428-5.449 0-4.083-3.295-7.382-7.376-7.434v0z"></path>
</svg>
