<!-- Generated by IcoMoon.io -->
<svg version="1.1" xmlns="http://www.w3.org/2000/svg" width="44" height="40" viewBox="0 0 44 40">
<title>mp-profile_image_minus_round-</title>
<path fill="#91908d" d="M39.2 34.4c0 0.883-0.717 1.6-1.6 1.6h-6.4c-0.883 0-1.6-0.717-1.6-1.6s0.717-1.6 1.6-1.6h6.4c0.883 0 1.6 0.717 1.6 1.6zM20.997 19.893c-0.938-0.077-1.214-0.064-2.008-0.005-2.162-0.466-3.789-2.389-3.789-4.688 0-2.646 2.154-4.8 4.8-4.8s4.8 2.154 4.8 4.8c0 2.304-1.634 4.232-3.803 4.693zM7.219 31.294c-0.002-0.034-0.019-0.061-0.019-0.094v-22.4c0-0.883 0.717-1.6 1.6-1.6h11.098c-4.37 0.056-7.898 3.611-7.898 7.995 0 2.31 0.995 4.379 2.563 5.84-3.992 1.853-6.872 5.691-7.344 10.259zM20.102 7.2h11.098c0.883 0 1.6 0.717 1.6 1.6v14.544c0 0.805 0.653 1.456 1.456 1.456 1.213 0 1.744-0.65 1.744-1.456v-16.144c0-1.768-1.432-3.2-3.2-3.2h-25.6c-1.768 0-3.2 1.432-3.2 3.2v25.6c0 1.766 1.432 3.2 3.2 3.2h16.144c0.805 0 1.456-0.651 1.456-1.456 0-1.213-0.65-1.744-1.456-1.744h-12.984c-0.002 0-0.010-0.106-0.010-0.171 0-9.757 11.818-11.046 14.786-8.288 1.618 1.502 4.010-0.899 2.218-2.171-0.611-0.435-1.264-0.818-1.954-1.142 1.589-1.462 2.6-3.518 2.6-5.848 0-4.382-3.528-7.923-7.898-7.979z"></path>
</svg>
