<!-- Generated by IcoMoon.io -->
<svg version="1.1" xmlns="http://www.w3.org/2000/svg" width="40" height="40" viewBox="0 0 40 40">
<title>mp-play_plus_focus-1</title>
<path fill="#91908d" d="M14.799 23.392l6.755-3.167c1.116-0.524 1.116-2.111 0-2.634l-6.755-3.167c-0.964-0.451-2.071 0.253-2.071 1.318v6.333c0 1.065 1.107 1.769 2.071 1.316v0zM30.182 24.364h2.909v-11.636h-2.909v11.636zM33.091 30.182v-1.455c0-0.804-0.652-1.455-1.455-1.455-0.804 0-1.455 0.65-1.455 1.455v1.455h-1.455c-0.804 0-1.455 0.65-1.455 1.455 0 0.803 0.65 1.455 1.455 1.455h1.455v1.455c0 0.803 0.65 1.455 1.455 1.455 0.803 0 1.455-0.652 1.455-1.455v-1.455h1.455c0.803 0 1.455-0.652 1.455-1.455 0-0.804-0.652-1.455-1.455-1.455h-1.455zM30.182 9.818h2.909v-2.909c0-1.607-1.303-2.909-2.909-2.909h-2.909v2.909h1.455c0.803 0 1.455 0.65 1.455 1.455v1.455zM4 24.364h2.909v-11.636h-2.909v11.636zM6.909 27.273h-2.909v2.909c0 1.606 1.302 2.909 2.909 2.909h2.909v-2.909h-1.455c-0.804 0-1.455-0.652-1.455-1.455v-1.455zM4 9.818h2.909v-1.455c0-0.804 0.65-1.455 1.455-1.455h1.455v-2.909h-2.909c-1.607 0-2.909 1.302-2.909 2.909v2.909zM12.727 33.091h11.636v-2.909h-11.636v2.909zM12.727 6.909h11.636v-2.909h-11.636v2.909z"></path>
</svg>
