<!-- Generated by IcoMoon.io -->
<svg version="1.1" xmlns="http://www.w3.org/2000/svg" width="28" height="40" viewBox="0 0 28 40">
<title>mp-pin_sharp_circle-1</title>
<path fill="#91908d" d="M15.2 17.816c-0.882 0-1.6-0.718-1.6-1.6s0.718-1.6 1.6-1.6c0.882 0 1.6 0.718 1.6 1.6s-0.718 1.6-1.6 1.6zM15.2 11.416c-2.651 0-4.8 2.149-4.8 4.8s2.149 4.8 4.8 4.8c2.651 0 4.8-2.149 4.8-4.8s-2.149-4.8-4.8-4.8zM15.2 31.2c0 0-8-11.2-8-16 0-4.411 3.589-8 8-8s8 3.589 8 8c0 4.8-8 16-8 16zM15.2 4c-6.186 0-11.2 5.014-11.2 11.2s11.2 20.8 11.2 20.8c0 0 11.2-14.614 11.2-20.8s-5.014-11.2-11.2-11.2z"></path>
</svg>
