<!-- Generated by IcoMoon.io -->
<svg version="1.1" xmlns="http://www.w3.org/2000/svg" width="40" height="40" viewBox="0 0 40 40">
<title>mp-phone_desktop-</title>
<path fill="#91908d" d="M32.8 4h-25.6c-1.768 0-3.2 1.432-3.2 3.2v1.6c0 0.883 0.717 1.6 1.6 1.6s1.6-0.717 1.6-1.6c0-0.883 0.717-1.6 1.6-1.6h22.4c0.883 0 1.6 0.717 1.6 1.6v12.8c0 0.883-0.717 1.6-1.6 1.6h-6.4c-1.768 0-3.2 1.432-3.2 3.2v6.4c0 1.768 1.432 3.2 3.2 3.2h4.8c0.883 0 1.6-0.717 1.6-1.6s-0.717-1.6-1.6-1.6h-3.2c-0.883 0-1.6-0.717-1.6-1.6v-3.2c0-0.883 0.717-1.6 1.6-1.6h6.4c1.768 0 3.2-1.432 3.2-3.2v-16c0-1.768-1.432-3.2-3.2-3.2zM16.8 31.2v-14.4c0-0.883-0.717-1.6-1.6-1.6h-6.4c-0.883 0-1.6 0.717-1.6 1.6v14.4c0 0.883 0.717 1.6 1.6 1.6h6.4c0.883 0 1.6-0.717 1.6-1.6zM7.2 12h9.6c1.768 0 3.2 1.432 3.2 3.2v17.6c0 1.768-1.432 3.2-3.2 3.2h-9.6c-1.768 0-3.2-1.432-3.2-3.2v-17.6c0-1.768 1.432-3.2 3.2-3.2zM13.667 28v0c0 0.883-0.717 1.6-1.6 1.6-0.885 0-1.6-0.717-1.6-1.6s0.715-1.6 1.6-1.6c0.883 0 1.6 0.717 1.6 1.6z"></path>
</svg>
