<!-- Generated by IcoMoon.io -->
<svg version="1.1" xmlns="http://www.w3.org/2000/svg" width="47" height="40" viewBox="0 0 47 40">
<title>mp-profile_minus-2</title>
<path fill="#91908d" d="M27.916 29.146c-2.052-2.539-5.229-4.567-8.798-4.591-0.026 0-0.051 0.041-0.079 0.041s-0.053-0.030-0.079-0.030c-3.567 0.024-6.741 2.042-8.792 4.58-1.003 1.239-0.137 3.089 1.457 3.089h14.833c1.594 0 2.46-1.848 1.459-3.089v0zM15.274 17.088c0 2.050 1.647 3.714 3.686 3.757 0.026 0 0.053-0.004 0.079-0.004s0.053 0.004 0.079 0.004c2.039-0.043 3.686-1.707 3.686-3.757 0-2.074-1.688-3.765-3.765-3.765s-3.765 1.69-3.765 3.765v0zM33.083 30.812c0.964 2.494-0.823 5.188-3.496 5.188h-21.82c-2.718 0-4.521-2.782-3.458-5.282 1.628-3.831 4.84-7.258 8.625-8.804-1.128-1.316-1.425-2.963-1.425-4.832 0-4.759 4.416-8.495 9.376-7.315 2.746 0.655 4.936 2.938 5.513 5.702 0.529 2.517-0.224 4.768-1.664 6.449 3.817 1.56 6.852 5.028 8.348 8.894v0zM41.648 5.882c0 1.039-0.843 1.882-1.882 1.882h-11.294c-1.041 0-1.882-0.843-1.882-1.882s0.841-1.882 1.882-1.882h11.294c1.039 0 1.882 0.843 1.882 1.882v0z"></path>
</svg>
