<!-- Generated by IcoMoon.io -->
<svg version="1.1" xmlns="http://www.w3.org/2000/svg" width="42" height="40" viewBox="0 0 42 40">
<title>mp-plus_circle-2</title>
<path fill="#91908d" d="M27.52 20c0 0.883-0.753 1.6-1.68 1.6h-3.36v3.2c0 0.883-0.753 1.6-1.68 1.6s-1.68-0.717-1.68-1.6v-3.2h-3.36c-0.927 0-1.68-0.717-1.68-1.6s0.753-1.6 1.68-1.6h3.36v-3.2c0-0.883 0.753-1.6 1.68-1.6s1.68 0.717 1.68 1.6v3.2h3.36c0.927 0 1.68 0.717 1.68 1.6zM20.8 32.8c-7.41 0-13.44-5.742-13.44-12.8s6.030-12.8 13.44-12.8c7.41 0 13.44 5.742 13.44 12.8s-6.030 12.8-13.44 12.8zM20.8 4c-9.279 0-16.8 7.163-16.8 16s7.521 16 16.8 16c9.279 0 16.8-7.163 16.8-16s-7.521-16-16.8-16z"></path>
</svg>
