<!-- Generated by IcoMoon.io -->
<svg version="1.1" xmlns="http://www.w3.org/2000/svg" width="34" height="40" viewBox="0 0 34 40">
<title>mp-paypal-</title>
<path fill="#91908d" d="M30.361 13.44c-1.943 8.347-7.872 9.76-15.835 9.76l-2.401 12.8h4.396c0.801 0 1.136-0.546 1.284-1.314 1.096-6.93 0.942-5.795 1.042-6.88 0.095-0.605 0.618-1.406 1.232-1.406 5.838 0 9.711-1.688 10.894-7.747 0.42-2.155 0.282-3.818-0.611-5.213zM12.215 22.976l-1.796 9.824h-5.562c-0.526 0-0.929-0.643-0.846-1.162l4.153-26.437c0.109-0.691 0.708-1.202 1.411-1.202h9.974c5.906 0 9.883 2.242 8.963 8.086-1.61 10.41-10.533 9.514-14.593 9.514-0.703 0-1.594 0.685-1.704 1.376z"></path>
</svg>
