<!-- Generated by IcoMoon.io -->
<svg version="1.1" xmlns="http://www.w3.org/2000/svg" width="40" height="40" viewBox="0 0 40 40">
<title>mp-record_focus-</title>
<path fill="#91908d" d="M18.545 13.455c-3.213 0-5.818 2.605-5.818 5.818s2.605 5.818 5.818 5.818c3.213 0 5.818-2.605 5.818-5.818s-2.605-5.818-5.818-5.818v0zM30.182 24.364h2.909v-11.636h-2.909v11.636zM33.091 30.182v-2.909h-2.909v2.909h-2.909v2.909h2.909v2.909h2.909v-2.909h2.909v-2.909h-2.909zM30.182 9.818h2.909v-5.818h-5.818v2.909h2.909v2.909zM4 24.364h2.909v-11.636h-2.909v11.636zM6.909 27.273h-2.909v5.818h5.818v-2.909h-2.909v-2.909zM4 9.818h2.909v-2.909h2.909v-2.909h-5.818v5.818zM12.727 33.091h11.636v-2.909h-11.636v2.909zM12.727 6.909h11.636v-2.909h-11.636v2.909z"></path>
</svg>
