<!-- Generated by IcoMoon.io -->
<svg version="1.1" xmlns="http://www.w3.org/2000/svg" width="27" height="40" viewBox="0 0 27 40">
<title>mp-road_mini-1</title>
<path fill="#91908d" d="M7.556 32.444h14.222v-24.889h-14.222v24.889zM25.333 4v32h-21.333v-32h21.333zM14.667 14.667c0.981 0 1.778-0.796 1.778-1.778s-0.796-1.778-1.778-1.778c-0.981 0-1.778 0.796-1.778 1.778s0.796 1.778 1.778 1.778v0zM14.667 18.222c-0.981 0-1.778 0.796-1.778 1.778s0.796 1.778 1.778 1.778c0.981 0 1.778-0.796 1.778-1.778s-0.796-1.778-1.778-1.778v0zM16.444 27.111c0 0.981-0.796 1.778-1.778 1.778s-1.778-0.796-1.778-1.778c0-0.981 0.796-1.778 1.778-1.778s1.778 0.796 1.778 1.778v0z"></path>
</svg>
