<!-- Generated by IcoMoon.io -->
<svg version="1.1" xmlns="http://www.w3.org/2000/svg" width="40" height="40" viewBox="0 0 40 40">
<title>mp-record-</title>
<path fill="#91908d" d="M32.8 26.4h3.2v-12.8h-3.2v12.8zM32.8 32.8h-3.2v3.2h6.4v-6.4h-3.2v3.2zM29.6 4v3.2h3.2v3.2h3.2v-6.4h-6.4zM4 26.4h3.2v-12.8h-3.2v12.8zM7.2 29.6h-3.2v6.4h6.4v-3.2h-3.2v-3.2zM4 4v6.4h3.2v-3.2h3.2v-3.2h-6.4zM13.6 36h12.8v-3.2h-12.8v3.2zM20 13.6c-3.534 0-6.4 2.866-6.4 6.4s2.866 6.4 6.4 6.4c3.534 0 6.4-2.866 6.4-6.4s-2.866-6.4-6.4-6.4v0zM13.6 7.2h12.8v-3.2h-12.8v3.2z"></path>
</svg>
