<!-- Generated by IcoMoon.io -->
<svg version="1.1" xmlns="http://www.w3.org/2000/svg" width="100" height="40" viewBox="0 0 100 40">
<title>mp-ruler1</title>
<path fill="#91908d" d="M16 20c0-2.208 1.792-4 4-4s4 1.792 4 4c0 2.208-1.792 4-4 4s-4-1.792-4-4v0zM76 24c0 2.208-1.792 4-4 4h-4v-4c0-2.208-1.792-4-4-4s-4 1.792-4 4v4h-8v-4c0-2.208-1.792-4-4-4s-4 1.792-4 4v4h-8v-4c0-2.208-1.792-4-4-4s-4 1.792-4 4v4h-12c-2.208 0-4-1.792-4-4v-8c0-2.208 1.792-4 4-4h56c2.208 0 4 1.792 4 4v8zM76 4h-64c-4.42 0-8 3.58-8 8v16c0 4.42 3.58 8 8 8h64c4.42 0 8-3.58 8-8v-16c0-4.42-3.58-8-8-8v0z"></path>
</svg>
