<!-- Generated by IcoMoon.io -->
<svg version="1.1" xmlns="http://www.w3.org/2000/svg" width="24" height="40" viewBox="0 0 24 40">
<title>mp-road_round-1</title>
<path fill="#91908d" d="M18.4 32.8c0.883 0 1.6-0.717 1.6-1.6v-22.4c0-0.883-0.717-1.6-1.6-1.6h-3.2v4.8c0 0.883-0.717 1.6-1.6 1.6s-1.6-0.717-1.6-1.6v-4.8h-3.2c-0.883 0-1.6 0.717-1.6 1.6v22.4c0 0.883 0.717 1.6 1.6 1.6h3.2v-4.8c0-0.883 0.717-1.6 1.6-1.6s1.6 0.717 1.6 1.6v4.8h3.2zM20 36h-12.8c-1.768 0-3.2-1.432-3.2-3.2v-25.6c0-1.768 1.432-3.2 3.2-3.2h12.8c1.768 0 3.2 1.432 3.2 3.2v25.6c0 1.768-1.432 3.2-3.2 3.2v0zM12 21.6v-3.2c0-0.883 0.717-1.6 1.6-1.6s1.6 0.717 1.6 1.6v3.2c0 0.883-0.717 1.6-1.6 1.6s-1.6-0.717-1.6-1.6v0z"></path>
</svg>
