<!-- Generated by IcoMoon.io -->
<svg version="1.1" xmlns="http://www.w3.org/2000/svg" width="47" height="40" viewBox="0 0 47 40">
<title>mp-reddit-</title>
<path fill="#91908d" d="M28.525 25.172c-1.434 0-2.637-1.178-2.637-2.631 0-1.455 1.203-2.671 2.637-2.671 1.432 0 2.594 1.216 2.594 2.671 0 1.453-1.16 2.631-2.594 2.631zM28.89 30.032c-1.267 1.283-3.253 1.907-6.069 1.907-2.818 0-4.802-0.624-6.067-1.907-0.275-0.279-0.275-0.729 0-1.010 0.273-0.279 0.719-0.279 0.994 0 0.988 1.002 2.647 1.491 5.073 1.491 2.424 0 4.085-0.489 5.075-1.491 0.273-0.279 0.719-0.279 0.994 0 0.275 0.281 0.275 0.731 0 1.010zM14.526 22.541c0-1.453 1.201-2.671 2.633-2.671s2.594 1.218 2.594 2.671c0 1.453-1.161 2.631-2.594 2.631s-2.633-1.178-2.633-2.631zM41.647 19.649c0-2.384-1.912-4.324-4.264-4.324-1.084 0-2.106 0.41-2.889 1.145-2.814-1.858-6.583-3.058-10.756-3.223l2.302-7.127 6.046 1.443c0.002 1.963 1.576 3.557 3.511 3.557s3.511-1.598 3.511-3.56c0-1.963-1.576-3.56-3.511-3.56-1.449 0-2.694 0.893-3.23 2.167-1.303-0.311-5.96-1.424-7.262-1.735l-2.842 8.801c-4.331 0.082-8.256 1.277-11.176 3.179-0.774-0.697-1.775-1.086-2.825-1.086-2.349 0-4.262 1.94-4.262 4.324 0 1.514 0.779 2.902 2.025 3.681-1.135 6.8 6.765 12.671 16.719 12.671 9.912 0 17.786-5.819 16.736-12.585 1.333-0.758 2.167-2.178 2.167-3.767z"></path>
</svg>
