<!-- Generated by IcoMoon.io -->
<svg version="1.1" xmlns="http://www.w3.org/2000/svg" width="42" height="40" viewBox="0 0 42 40">
<title>mp-star_favorite-</title>
<path fill="#91908d" d="M29.258 20.646c-1.673 1.619-2.438 3.949-2.041 6.235l0.734 4.25-3.847-2.006c-1.015-0.53-2.157-0.81-3.303-0.81-1.147 0-2.29 0.28-3.305 0.81l-3.847 2.006 0.736-4.25c0.395-2.286-0.37-4.616-2.043-6.235l-3.111-3.010 4.301-0.621c2.313-0.333 4.311-1.773 5.346-3.853l1.924-3.867 1.924 3.867c1.033 2.080 3.032 3.52 5.344 3.853l4.302 0.621-3.113 3.010zM36.678 19.093c1.804-1.746 0.81-4.787-1.685-5.147l-6.34-0.914c-0.991-0.142-1.848-0.76-2.29-1.651l-2.836-5.699c-0.558-1.122-1.643-1.682-2.727-1.682-1.085 0-2.171 0.56-2.728 1.682l-2.834 5.699c-0.444 0.891-1.3 1.509-2.29 1.651l-6.34 0.914c-2.495 0.36-3.491 3.402-1.687 5.147l4.588 4.437c0.717 0.693 1.045 1.691 0.875 2.67l-1.084 6.266c-0.338 1.95 1.225 3.534 2.997 3.534 0.467 0 0.951-0.11 1.416-0.354l5.67-2.958c0.444-0.23 0.929-0.347 1.416-0.347 0.486 0 0.971 0.117 1.415 0.347l5.672 2.958c0.465 0.243 0.948 0.354 1.415 0.354 1.772 0 3.335-1.584 2.997-3.534l-1.082-6.266c-0.17-0.979 0.156-1.978 0.874-2.67l4.588-4.437z"></path>
</svg>
