<!-- Generated by IcoMoon.io -->
<svg version="1.1" xmlns="http://www.w3.org/2000/svg" width="40" height="40" viewBox="0 0 40 40">
<title>mp-speaker-1</title>
<path fill="#91908d" d="M32.8 30.712c0 0.883-0.717 2.088-1.6 2.088h-3.102c2.077-1.6 3.37-5.107 3.37-8.243 0-4.49-2.646-8.472-6.459-10.259 1.021-1.133 1.659-2.435 1.659-4.080 0-1.173-0.338-1.418-0.888-3.018h5.421c0.883 0 1.6 0.229 1.6 1.112v22.4zM20.267 32.312c-4.411 0-8-3.589-8-8s3.589-8 8-8c4.411 0 8 3.589 8 8s-3.589 8-8 8v0zM8.8 32.8c-0.883 0-1.6-1.205-1.6-2.088v-22.4c0-0.883 0.717-1.112 1.6-1.112h5.954c-0.549 1.6-0.886 1.784-0.886 2.957 0 1.645 0.638 3.008 1.658 4.141-3.811 1.787-6.458 5.83-6.458 10.32 0 3.136 1.291 6.582 3.368 8.182h-3.635zM20.267 6.712c1.763 0 3.2 1.435 3.2 3.2s-1.437 3.2-3.2 3.2c-1.765 0-3.2-1.435-3.2-3.2s1.435-3.2 3.2-3.2v0zM32.8 4h-25.6c-1.768 0-3.2 1.434-3.2 3.2v25.6c0 1.768 1.432 3.2 3.2 3.2h25.6c1.768 0 3.2-1.432 3.2-3.2v-25.6c0-1.766-1.432-3.2-3.2-3.2v0z"></path>
</svg>
