<!-- Generated by IcoMoon.io -->
<svg version="1.1" xmlns="http://www.w3.org/2000/svg" width="40" height="40" viewBox="0 0 40 40">
<title>mp-satellite-</title>
<path fill="#91908d" d="M31.852 26.963l2.26 2.259-6.781 6.778-2.262-2.259 6.783-6.778zM30.349 25.462l-6.783 6.776-2.26-2.259 6.781-6.778 2.262 2.26zM10.001 18.684l-2.262-2.259 6.783-6.778 2.26 2.259-6.781 6.778zM13.044 8.169l-6.781 6.778-2.262-2.259 6.783-6.778 2.26 2.259zM15.652 26.591l-2.26-2.26 6.783-6.776c1.388 1.387 0.871 0.872 2.26 2.259l-6.783 6.778zM26.514 10.334l3.146 3.144-4.089 0.944 0.943-4.088zM24.979 17.837l11.021-2.542-11.304-11.296-2.543 11.013-1.978-1.978-11.304 11.296 6.781 6.778 11.304-11.296-1.978-1.976z"></path>
</svg>
