<!-- Generated by IcoMoon.io -->
<svg version="1.1" xmlns="http://www.w3.org/2000/svg" width="40" height="40" viewBox="0 0 40 40">
<title>mp-script-4</title>
<path fill="#91908d" d="M24.8 18.4c0 0.883-0.717 1.6-1.6 1.6h-6.4c-0.883 0-1.6-0.717-1.6-1.6s0.717-1.6 1.6-1.6h6.4c0.883 0 1.6 0.717 1.6 1.6v0zM16.8 10.4h6.4c0.883 0 1.6 0.717 1.6 1.6s-0.717 1.6-1.6 1.6h-6.4c-0.883 0-1.6-0.717-1.6-1.6s0.717-1.6 1.6-1.6v0zM29.6 10.4v-3.2c1.765 0 3.2 1.435 3.2 3.2h-3.2zM26.4 29.6c0 1.765-1.435 3.2-3.2 3.2v-3.2c0-1.768-1.432-3.2-3.2-3.2h-6.4v-16c0-1.768 1.432-3.2 3.2-3.2h9.6v22.4zM20 32.8h-9.6c-1.765 0-3.2-1.435-3.2-3.2h11.2c0.883 0 1.6 0.717 1.6 1.6v1.6zM29.6 4h-12.8c-3.534 0-6.4 2.866-6.4 6.4v16h-4.8c-0.883 0-1.6 0.717-1.6 1.6v1.6c0 3.534 2.866 6.4 6.4 6.4h12.8c3.534 0 6.4-2.866 6.4-6.4v-16h4.8c0.883 0 1.6-0.717 1.6-1.6v-1.6c0-3.534-2.866-6.4-6.4-6.4v0z"></path>
</svg>
