<!-- Generated by IcoMoon.io -->
<svg version="1.1" xmlns="http://www.w3.org/2000/svg" width="40" height="40" viewBox="0 0 40 40">
<title>mp-share-3</title>
<path fill="#91908d" d="M29.6 32.8c-1.765 0-3.2-1.435-3.2-3.2 0-4.229 6.4-4.23 6.4 0 0 1.765-1.435 3.2-3.2 3.2zM16.6 10.4c0-1.765 1.435-3.2 3.2-3.2s3.2 1.435 3.2 3.2c0 4.229-6.4 4.23-6.4 0zM10.4 32.8c-1.765 0-3.2-1.435-3.2-3.2s1.435-3.2 3.2-3.2c1.765 0 3.2 1.435 3.2 3.2s-1.435 3.2-3.2 3.2zM28.638 23.298l-4.654-8.090c1.347-1.173 2.216-2.882 2.216-4.808 0-3.534-2.866-6.4-6.4-6.4s-6.4 2.866-6.4 6.4c0 1.954 0.894 3.68 2.274 4.854l-4.626 8.011c-3.978-0.405-7.048 2.704-7.048 6.334 0 3.534 2.866 6.4 6.4 6.4s6.4-2.866 6.4-6.4c0-2.155-1.074-4.051-2.706-5.211l4.454-7.715c0.87 0.173 1.709 0.168 2.578-0.014l4.555 7.915c-1.501 1.171-2.482 2.976-2.482 5.026 0 3.534 2.866 6.4 6.4 6.4s6.4-2.866 6.4-6.4c0-3.779-3.315-6.918-7.362-6.302z"></path>
</svg>
