<!-- Generated by IcoMoon.io -->
<svg version="1.1" xmlns="http://www.w3.org/2000/svg" width="40" height="40" viewBox="0 0 40 40">
<title>mp-sun_star-1</title>
<path fill="#91908d" d="M8.686 10.949c-0.626-0.626-0.626-1.638 0-2.262 0.626-0.626 1.638-0.626 2.262 0 0.626 0.624 0.626 1.637 0 2.262-0.624 0.626-1.637 0.626-2.262 0zM31.314 29.051c0.626 0.624 0.626 1.637 0 2.262-0.624 0.624-1.638 0.624-2.262 0-0.626-0.626-0.626-1.638 0-2.262 0.624-0.626 1.638-0.626 2.262 0zM10.949 29.051c0.626 0.624 0.626 1.637 0 2.262-0.624 0.624-1.637 0.624-2.262 0-0.626-0.626-0.626-1.638 0-2.262 0.626-0.626 1.638-0.626 2.262 0zM31.314 8.686c0.626 0.624 0.626 1.637 0 2.262-0.624 0.626-1.638 0.626-2.262 0-0.626-0.626-0.626-1.638 0-2.262 0.624-0.626 1.638-0.626 2.262 0zM7.2 20c0 0.883-0.717 1.6-1.6 1.6s-1.6-0.717-1.6-1.6c0-0.883 0.717-1.6 1.6-1.6s1.6 0.717 1.6 1.6zM36 20c0 0.883-0.717 1.6-1.6 1.6s-1.6-0.717-1.6-1.6c0-0.883 0.717-1.6 1.6-1.6s1.6 0.717 1.6 1.6zM21.6 34.4c0 0.883-0.717 1.6-1.6 1.6s-1.6-0.717-1.6-1.6c0-0.883 0.717-1.6 1.6-1.6s1.6 0.717 1.6 1.6zM18.4 5.6c0-0.883 0.717-1.6 1.6-1.6s1.6 0.717 1.6 1.6c0 0.883-0.717 1.6-1.6 1.6s-1.6-0.717-1.6-1.6zM25.658 25.656c-3.517 3.517-9.518 3.069-12.402-1.341-1.734-2.653-1.67-6.208 0.128-8.818 1.85-2.686 4.869-3.782 7.718-3.389l-4.496 4.498c-0.626 0.624-0.626 1.637 0 2.262 0.624 0.624 1.637 0.624 2.262 0l5.542-5.542c0.901 0.595 1.667 1.362 2.262 2.262l-5.542 5.542c-0.624 0.624-0.624 1.638 0 2.262 0.626 0.626 1.638 0.626 2.262 0l4.498-4.496c0.331 2.398-0.394 4.918-2.234 6.758zM27.92 12.080c-4.374-4.374-11.466-4.374-15.84 0-4.373 4.374-4.373 11.466 0 15.84 4.374 4.373 11.466 4.373 15.84 0 4.373-4.374 4.373-11.466 0-15.84z"></path>
</svg>
