<!-- Generated by IcoMoon.io -->
<svg version="1.1" xmlns="http://www.w3.org/2000/svg" width="40" height="40" viewBox="0 0 40 40">
<title>mp-stats-2</title>
<path fill="#91908d" d="M20 32.771c-6.494 0-11.83-4.851-12.646-11.126l6.246 0.013v-0.011l3.867-3.899c4.269 7.32 3.178 5.448 5.251 9.003l5.133-5.15h4.829c-0.818 6.4-6.186 11.171-12.68 11.171zM20 7.142c6.536 0 11.933 4.858 12.698 11.258h-6.298v0.077l-3.136 3.192-3.595-6.186 0.010-0.008-1.672-2.867-2.259 2.264 0.014-0.010-3.566 3.538h-4.893c0.765-6.4 6.162-11.258 12.698-11.258zM20 4c-8.837 0-16 7.165-16 16 0 8.837 7.163 16 16 16s16-7.163 16-16c0-8.835-7.163-16-16-16z"></path>
</svg>
