<!-- Generated by IcoMoon.io -->
<svg version="1.1" xmlns="http://www.w3.org/2000/svg" width="40" height="40" viewBox="0 0 40 40">
<title>mp-showcase_round-1</title>
<path fill="#91908d" d="M32.8 21.6c0 0.883-0.717 1.6-1.6 1.6h-22.4c-0.883 0-1.6-0.717-1.6-1.6v-9.6c0-0.883 0.717-1.6 1.6-1.6h22.4c0.883 0 1.6 0.717 1.6 1.6v9.6zM32.8 7.2h-11.2v-1.6c0-0.883-0.717-1.6-1.6-1.6s-1.6 0.717-1.6 1.6v1.6h-11.2c-1.768 0-3.2 1.432-3.2 3.2v12.8c0 1.768 1.432 3.2 3.2 3.2h7.669l-3.416 7.33c-0.493 1.059 0.28 2.27 1.446 2.27h0.002c0.619 0 1.182-0.358 1.445-0.92l4.054-8.68v8.005c0 0.88 0.715 1.595 1.595 1.595h0.010c0.88 0 1.595-0.715 1.595-1.595v-8.005l4.054 8.68c0.262 0.562 0.826 0.92 1.445 0.92v0c1.168 0 1.941-1.211 1.448-2.27l-3.416-7.33h7.669c1.768 0 3.2-1.432 3.2-3.2v-12.8c0-1.768-1.432-3.2-3.2-3.2v0z"></path>
</svg>
