<!-- Generated by IcoMoon.io -->
<svg version="1.1" xmlns="http://www.w3.org/2000/svg" width="40" height="40" viewBox="0 0 40 40">
<title>mp-thermometer_c-1</title>
<path fill="#91908d" d="M13.6 10.618v1.586c0 0.876 0.717 1.314 1.6 1.314h3.2c0.872 0 1.574 0.825 1.594 1.688-0.019 0.858-0.722 1.485-1.594 1.485h-1.6l-3.2 0.136c-1.766 0-3.2-1.283-3.2-3.036v-6.482c0-1.751 1.434-3.309 3.2-3.309h4.8c0.883 0 1.6 0.779 1.6 1.655v0.068c0 0.876-0.717 1.45-1.6 1.45h-3.2c-0.883 0-1.6 0.984-1.6 1.859v1.586zM20 15.241c0-0.011-0.006-0.022-0.006-0.035 0-0.011 0.006-0.021 0.006-0.033v0.068zM4 5.859v0c0-0.876 0.717-1.586 1.6-1.586s1.6 0.711 1.6 1.586c0 0.876-0.717 1.586-1.6 1.586s-1.6-0.711-1.6-1.586v0zM28 32.827c-2.646 0-4.8-2.135-4.8-4.759 0-2.065 1.342-3.809 3.2-4.467v-3.737h3.2v3.737c1.858 0.658 3.2 2.402 3.2 4.467 0 2.624-2.154 4.759-4.8 4.759v0zM29.6 9.032v1.586h-3.2v-1.586c0-0.876 0.717-1.586 1.6-1.586s1.6 0.711 1.6 1.586v0zM26.4 16.964h3.2v-3.173h-3.2v3.173zM32.8 21.759v-14.314c0-1.753-1.432-3.446-3.2-3.446h-3.2c-1.768 0-3.2 1.693-3.2 3.446v14.314c-2.294 1.718-3.651 4.604-3.062 7.792 0.571 3.093 3.043 5.633 6.149 6.272 5.166 1.063 9.714-2.821 9.714-7.756 0-2.586-1.267-4.862-3.2-6.309v0z"></path>
</svg>
