<!-- Generated by IcoMoon.io -->
<svg version="1.1" xmlns="http://www.w3.org/2000/svg" width="40" height="40" viewBox="0 0 40 40">
<title>mp-tag_round-1</title>
<path fill="#91908d" d="M22.063 31.482l-14.433-14.457c-0.157-0.157-0.245-0.369-0.245-0.591v-7.426c0-0.923 0.747-1.669 1.666-1.669h7.416c0.222 0 0.433 0.087 0.59 0.244l14.433 14.457c0.65 0.653 0.65 1.709 0 2.36l-7.071 7.082c-0.65 0.653-1.705 0.653-2.356 0v0zM29.505 15.331v0c-0.278-0.279-11.102-11.12-10.823-10.843-0.313-0.312-0.737-0.487-1.18-0.487h-10.117c-1.84 0-3.333 1.494-3.333 3.338 0 10.114-0.287 10.536 0.488 11.314 6.536 6.545 1.83 1.831 16.344 16.37 1.301 1.304 3.411 1.304 4.713 0v0c0.297-0.297 9.532-9.546 9.427-9.441 1.301-1.305 1.301-3.419 0-4.722l-5.519-5.528z"></path>
</svg>
