<!-- Generated by IcoMoon.io -->
<svg version="1.1" xmlns="http://www.w3.org/2000/svg" width="40" height="40" viewBox="0 0 40 40">
<title>mp-tape-1</title>
<path fill="#91908d" d="M24.797 16h1.67v-3.2h-1.67v3.2zM18.397 16h3.2v-3.2h-3.2v3.2zM13.667 16h1.53v-3.2h-1.53v3.2zM26.4 10.4h-12.8c-1.768 0-3.2 1.432-3.2 3.2v1.6c0 1.768 1.432 3.2 3.2 3.2h12.8c1.768 0 3.2-1.432 3.2-3.2v-1.6c0-1.768-1.432-3.2-3.2-3.2v0zM31.27 32.8h-2.741l-1.403-4.211c-0.437-1.307-1.659-2.189-3.037-2.189h-8.187c-1.378 0-2.6 0.882-3.035 2.189l-1.405 4.211h-2.592c-0.883 0-1.6-0.717-1.6-1.6v-22.4c0-0.883 0.717-1.6 1.6-1.6h22.4c0.883 0 1.6 0.717 1.6 1.6v22.4c0 0.883-0.717 1.6-1.6 1.6v0zM14.662 32.8l0.76-2.136c0.226-0.638 0.83-1.064 1.507-1.064h6.226c0.701 0 1.32 0.456 1.528 1.125l0.646 2.075h-10.667zM4 7.2v25.6c0 1.768 1.432 3.2 3.2 3.2h25.6c1.768 0 3.2-1.432 3.2-3.2v-25.6c0-1.768-1.432-3.2-3.2-3.2h-25.6c-1.768 0-3.2 1.432-3.2 3.2v0z"></path>
</svg>
