<!-- Generated by IcoMoon.io -->
<svg version="1.1" xmlns="http://www.w3.org/2000/svg" width="40" height="40" viewBox="0 0 40 40">
<title>mp-trillo-</title>
<path fill="#91908d" d="M31.2 21.701c0 0.829-0.672 1.499-1.499 1.499h-6.6c-0.829 0-1.501-0.67-1.501-1.499v-11.4c0-0.829 0.672-1.501 1.501-1.501h6.6c0.827 0 1.499 0.672 1.499 1.501v11.4zM18.4 29.701c0 0.829-0.672 1.499-1.501 1.499h-6.6c-0.827 0-1.499-0.67-1.499-1.499v-19.4c0-0.829 0.672-1.501 1.499-1.501h6.6c0.829 0 1.501 0.672 1.501 1.501v19.4zM32.875 4h-25.75c-1.726 0-3.125 1.4-3.125 3.126v25.749c0 1.726 1.398 3.126 3.125 3.126h25.75c1.726 0 3.125-1.4 3.125-3.126v-25.749c0-1.726-1.398-3.126-3.125-3.126v0z"></path>
</svg>
