<!-- Generated by IcoMoon.io -->
<svg version="1.1" xmlns="http://www.w3.org/2000/svg" width="40" height="40" viewBox="0 0 40 40">
<title>mp-wordpress-</title>
<path fill="#91908d" d="M34.040 12.323c0.069 0.51 0.107 1.056 0.107 1.645 0 2.813-0.261 2.971-6.104 19.862 4.757-2.774 7.957-7.928 7.957-13.83 0-2.782-0.71-5.398-1.96-7.677v0zM20.282 21.4l-4.802 13.949c3.24 0.954 6.674 0.856 9.834-0.254-0.043-0.069-0.082-0.142-0.114-0.221l-4.918-13.474zM30.802 19.192c0-1.978-0.71-3.347-1.32-4.413-0.81-1.318-1.571-2.434-1.571-3.752 0-1.47 1.117-2.84 2.688-2.84 0.070 0 0.138 0.010 0.206 0.013-2.846-2.608-6.638-4.2-10.805-4.2-5.589 0-10.507 2.867-13.368 7.211 1.019 0.032 2.387 0.045 5.294-0.182 0.862-0.051 0.963 1.216 0.102 1.317 0 0-0.867 0.102-1.832 0.154l5.827 17.331 3.501-10.502-2.493-6.83c-0.861-0.050-1.677-0.152-1.677-0.152-0.862-0.051-0.762-1.37 0.101-1.318 3.307 0.254 5 0.274 8.478 0 0.862-0.051 0.965 1.216 0.102 1.318 0 0-0.869 0.102-1.832 0.152l5.782 17.2c2.283-7.629 2.814-8.906 2.814-10.506v0zM4 20c0 6.333 3.68 11.806 9.018 14.4l-7.632-20.912c-0.888 1.99-1.386 4.192-1.386 6.512v0z"></path>
</svg>
