<!-- Generated by IcoMoon.io -->
<svg version="1.1" xmlns="http://www.w3.org/2000/svg" width="32" height="40" viewBox="0 0 32 40">
<title>mp-wheelchair-</title>
<path fill="#91908d" d="M24.8 32.8c-0.882 0-1.6-0.718-1.6-1.6s0.718-1.6 1.6-1.6c0.882 0 1.6 0.718 1.6 1.6s-0.718 1.6-1.6 1.6zM10.4 32.8c-1.765 0-3.2-1.435-3.2-3.2s1.435-3.2 3.2-3.2c1.765 0 3.2 1.435 3.2 3.2s-1.435 3.2-3.2 3.2zM26.4 26.694v-5.094h-14.4v-3.2h6.4v-3.2h-6.4v-11.2h-8v3.2h4.8v16.226c-3.2 0.714-4.8 3.195-4.8 6.174 0 3.534 2.866 6.4 6.4 6.4s6.4-2.866 6.4-6.4c0-1.923-0.866-3.627-2.208-4.8h8.608v1.894c-1.6 0.661-3.2 2.419-3.2 4.506 0 2.651 2.149 4.8 4.8 4.8s4.8-2.149 4.8-4.8c0-2.086-1.6-3.845-3.2-4.506z"></path>
</svg>
