<!-- Generated by IcoMoon.io -->
<svg version="1.1" xmlns="http://www.w3.org/2000/svg" width="42" height="40" viewBox="0 0 42 40">
<title>mp-wifi-7</title>
<path fill="#91908d" d="M30.442 24.364h2.909v-11.636h-2.909v11.636zM33.351 30.182v-2.909h-2.909v2.909h-2.909v2.909h2.909v2.909h2.909v-2.909h2.909v-2.909h-2.909zM30.442 9.818h2.909v-5.818h-5.818v2.909h2.909v2.909zM4.26 24.364h2.909v-11.636h-2.909v11.636zM7.169 27.273h-2.909v5.818h5.818v-2.909h-2.909v-2.909zM7.169 6.909h2.909v-2.909h-5.818v5.818h2.909v-2.909zM12.988 33.091h11.636v-2.909h-11.636v2.909zM12.988 6.909h11.636v-2.909h-11.636v2.909zM16.957 23.913l2.057 2.057 2.057-2.057c-1.136-1.136-2.977-1.136-4.113 0v0zM12.842 19.799l2.058 2.057c2.268-2.269 5.959-2.269 8.227 0l2.058-2.057c-3.409-3.408-8.934-3.408-12.343 0v0zM29.299 15.684l-2.057 2.058c-4.537-4.538-11.92-4.538-16.457 0l-2.057-2.058c5.68-5.68 14.89-5.68 20.57 0v0z"></path>
</svg>
