<!-- Generated by IcoMoon.io -->
<svg version="1.1" xmlns="http://www.w3.org/2000/svg" width="42" height="40" viewBox="0 0 42 40">
<title>mp-zoom_in-1</title>
<path fill="#91908d" d="M19.12 15.148h3.36c0.927 0 1.68 0.719 1.68 1.604s-0.753 1.604-1.68 1.604h-3.36v3.208c0 0.885-0.753 1.604-1.68 1.604s-1.68-0.719-1.68-1.604v-3.208h-3.36c-0.927 0-1.68-0.719-1.68-1.604s0.753-1.604 1.68-1.604h3.36v-3.208c0-0.885 0.753-1.604 1.68-1.604s1.68 0.719 1.68 1.604v3.208zM37.108 35.53v0c-0.655 0.627-1.72 0.627-2.376 0l-6.636-6.336 2.376-2.268 6.636 6.336c0.657 0.626 0.657 1.642 0 2.268v0zM17.44 26.456c-5.557 0-10.080-4.316-10.080-9.624 0-5.306 4.523-9.624 10.080-9.624s10.080 4.318 10.080 9.624c0 5.308-4.523 9.624-10.080 9.624v0zM17.44 4c-7.422 0-13.44 5.746-13.44 12.832 0 7.088 6.018 12.832 13.44 12.832s13.44-5.744 13.44-12.832c0-7.086-6.018-12.832-13.44-12.832v0z"></path>
</svg>
