<!-- Generated by IcoMoon.io -->
<svg version="1.1" xmlns="http://www.w3.org/2000/svg" width="24" height="24" viewBox="0 0 24 24">
<title>mp17</title>
<path fill="#91908d" d="M14.813 13.612h1.2v1.2h-1.2v-1.2zM14.813 17.212v-1.2h1.575q0.337 0 0.581-0.244t0.244-0.581v-1.987q0-0.338-0.244-0.563t-0.581-0.225h-2.775v4.8h1.2zM14.4 10.387v-1.2h-0.787v-2.4h-1.2v2.4h-1.2v-2.4h-1.2v3.6h2.4v1.2h1.2v-1.2h0.787zM12 17.212v-4.012q0-0.338-0.225-0.563t-0.563-0.225h-3.6q-0.337 0-0.581 0.225t-0.244 0.563v4.013h1.2v-3.6h0.825v2.4h1.2v-2.4h0.787v3.6h1.2zM17.587 4.8q0.638 0 1.125 0.487t0.488 1.125v11.175q0 0.637-0.488 1.125t-1.125 0.488h-11.175q-0.638 0-1.125-0.488t-0.488-1.125v-11.175q0-0.637 0.488-1.125t1.125-0.487h11.175z"></path>
</svg>
