<!-- Generated by IcoMoon.io -->
<svg version="1.1" xmlns="http://www.w3.org/2000/svg" width="40" height="40" viewBox="0 0 40 40">
<title>mt-all_inclusive</title>
<path fill="#91908d" d="M27.051 14.251q2.4 0 4.075 1.7t1.675 4.051-1.675 4.051-4.075 1.7h-0.051q-0.949 0-2.125-0.5t-1.925-1.2l-1.349-1.2 1.6-1.4 1.251 1.051q1.1 1.1 2.6 1.1t2.551-1.049 1.049-2.549-1.049-2.551-2.551-1.051-2.551 1.051q-3.551 3.1-4.5 4l-3 2.649q-1.651 1.649-4.051 1.649t-4.075-1.7-1.675-4.051 1.675-4.051 4.075-1.7h0.051q1 0 2.175 0.5t1.875 1.2l1.349 1.2-1.651 1.4-1.2-1.051q-1.1-1.1-2.6-1.1t-2.549 1.049-1.049 2.551 1.049 2.551 2.549 1.049 2.549-1.049q3.551-3.1 4.5-4l3-2.651q1.649-1.651 4.051-1.651z"></path>
</svg>
