<!-- Generated by IcoMoon.io -->
<svg version="1.1" xmlns="http://www.w3.org/2000/svg" width="40" height="40" viewBox="0 0 40 40">
<title>mt-anchor</title>
<path fill="#91908d" d="M25.351 23.2l1.649 1.651q-0.551 0.9-1.475 1.649t-2.1 1.251-2.375 0.7v-9.5h3.2v-2.151h-3.2v-1.251q0.949-0.349 1.551-1.175t0.6-1.825q0-0.9-0.425-1.625t-1.149-1.149-1.625-0.425-1.625 0.425-1.151 1.149-0.425 1.625q0 1 0.6 1.825t1.549 1.175v1.251h-3.2v2.151h3.2v9.5q-1.2-0.2-2.375-0.7t-2.1-1.251-1.475-1.649l1.651-1.651-4.251-3.2v3.2q0 1.551 0.875 2.9t2.3 2.375 3.1 1.6 3.325 0.575 3.325-0.575 3.1-1.6 2.3-2.375 0.875-2.9v-3.2zM20 11.451q0.449 0 0.751 0.325t0.3 0.775q0 0.4-0.3 0.725t-0.751 0.325-0.751-0.325-0.3-0.725q0-0.449 0.3-0.775t0.751-0.325z"></path>
</svg>
