<!-- Generated by IcoMoon.io -->
<svg version="1.1" xmlns="http://www.w3.org/2000/svg" width="40" height="40" viewBox="0 0 40 40">
<title>mt-attach_file</title>
<path fill="#91908d" d="M24.8 13.6h1.6v12.251q0 2.449-1.7 4.175t-4.149 1.725-4.175-1.725-1.725-4.175v-13.3q0-1.751 1.275-3.025t3.025-1.275 3 1.275 1.251 3.025v11.2q0 1.1-0.775 1.875t-1.875 0.775-1.9-0.775-0.8-1.875v-10.151h1.6v10.151q0 0.449 0.325 0.751t0.775 0.3 0.751-0.3 0.3-0.751v-11.2q0-1.1-0.775-1.9t-1.875-0.8-1.9 0.8-0.8 1.9v13.3q0 1.751 1.275 3.025t3.025 1.275 3-1.275 1.251-3.025v-12.251z"></path>
</svg>
