<!-- Generated by IcoMoon.io -->
<svg version="1.1" xmlns="http://www.w3.org/2000/svg" width="40" height="40" viewBox="0 0 40 40">
<title>mt-attractions</title>
<path fill="#91908d" d="M11.3 17.4q-0.649-0.5-0.8-1.275t0.251-1.475 1.175-0.951 1.475 0.051q0.751-0.8 2.075-1.551t2.425-1q0.1-0.8 0.7-1.325t1.4-0.525 1.4 0.525 0.7 1.325q2.549 0.6 4.449 2.549 0.3-0.151 0.849-0.151 1.251 0 1.851 1.051 0.4 0.7 0.251 1.475t-0.8 1.275q0.351 1.1 0.351 2.6t-0.351 2.6q0.651 0.5 0.8 1.275t-0.251 1.475-1.2 0.949-1.5-0.051q-0.751 0.751-1.4 1.2l1.4 3.2h-1.951l-1.049-2.3q-0.651 0.3-1.451 0.449-0.1 0.8-0.7 1.325t-1.4 0.525-1.4-0.525-0.7-1.325q-0.149-0.051-0.475-0.125t-0.575-0.151-0.449-0.175l-1.051 2.3h-2l1.449-3.2q-0.6-0.449-1.349-1.2-0.751 0.3-1.525 0.051t-1.175-0.949-0.251-1.475 0.8-1.275q-0.349-1.1-0.349-2.6t0.349-2.6zM12.7 17.849q-0.251 0.9-0.251 2 0 1.251 0.351 2.3 1.149 0.1 1.649 1.049 0.5 0.9 0.1 1.9 0.449 0.4 0.949 0.8l1.6-3.6q-0.8-0.949-0.8-2.3 0-1.5 1.075-2.549t2.625-1.049 2.625 1.049 1.075 2.549q0 1.251-0.851 2.351l1.6 3.549q0.351-0.251 0.951-0.849-0.4-1 0.2-1.925t1.551-0.975q0.4-1.2 0.4-2.3 0-0.9-0.3-2-1.2-0.1-1.7-1.051-0.6-1 0-2.1-1.5-1.649-3.7-2.2-0.6 1.1-1.849 1.1t-1.849-1.1q-2.1 0.551-3.7 2.2 0.6 1.1 0 2.1-0.5 0.949-1.751 1.049zM18.349 27.2q0.651-0.8 1.651-0.8t1.649 0.8q0.4-0.1 1.2-0.4l-1.5-3.4q-0.6 0.251-1.351 0.251-0.8 0-1.4-0.251l-1.5 3.4q0.8 0.3 1.251 0.4z"></path>
</svg>
