<!-- Generated by IcoMoon.io -->
<svg version="1.1" xmlns="http://www.w3.org/2000/svg" width="40" height="40" viewBox="0 0 40 40">
<title>mt-add_location_alt</title>
<path fill="#91908d" d="M28.551 8.251v3.2h3.2v2.149h-3.2v3.2h-2.151v-3.2h-3.2v-2.151h3.2v-3.2h2.151zM20 21.051q0.9 0 1.525-0.625t0.625-1.475q0-0.9-0.625-1.525t-1.525-0.625-1.525 0.625-0.625 1.525q0 0.851 0.625 1.475t1.525 0.625zM22.149 10.651v4h3.2v3.2h3.1q0.1 0.7 0.1 1.3 0 5.3-8.551 12.6-8.551-7.3-8.551-12.6 0-2 0.7-3.6t1.9-2.751 2.725-1.775 3.225-0.625q1.1 0 2.151 0.251z"></path>
</svg>
