<!-- Generated by IcoMoon.io -->
<svg version="1.1" xmlns="http://www.w3.org/2000/svg" width="40" height="40" viewBox="0 0 40 40">
<title>mt-agriculture</title>
<path fill="#91908d" d="M28 20q0.751 0 1.425 0.225t1.225 0.575v-5.051q0-0.9-0.625-1.525t-1.475-0.625h-6.751l-1.1-1.149 1.5-1.5-0.751-0.751-3.8 3.751 0.8 0.8 1.5-1.5 1.1 1.1v2.451q0 0.9-0.625 1.525t-1.475 0.625h-0.6q0.751 0.851 1.2 1.925t0.449 2.325q0 0.251-0.025 0.525t-0.075 0.525h3.349q0.149-1.2 0.8-2.149t1.675-1.525 2.275-0.575zM28 21.051q-1.051 0-1.875 0.525t-1.351 1.351-0.525 1.875 0.525 1.875 1.351 1.349 1.875 0.525 1.875-0.525 1.351-1.349 0.525-1.875-0.525-1.875-1.351-1.351-1.875-0.525zM28 26.4q-0.649 0-1.125-0.475t-0.475-1.125 0.475-1.125 1.125-0.475 1.125 0.475 0.475 1.125-0.475 1.125-1.125 0.475zM11.451 16.8h5.351q0-0.9-0.625-1.525t-1.525-0.625h-3.2q-0.4 0-0.725 0.325t-0.325 0.775q0 0.4 0.325 0.725t0.725 0.325zM17.7 21.949l-0.2-0.5 1-0.4q-0.751-1.7-2.5-2.6l-0.4 0.951-0.5-0.2 0.451-0.949q-0.951-0.4-1.951-0.4-0.4 0-0.825 0.075t-0.775 0.225l0.349 0.949-0.5 0.2-0.4-1q-1.7 0.751-2.6 2.5l0.949 0.4-0.2 0.5-0.949-0.451q-0.4 0.951-0.4 1.951 0 0.4 0.075 0.825t0.225 0.775l0.949-0.349 0.2 0.5-1 0.4q0.751 1.7 2.5 2.6l0.4-0.951 0.5 0.2-0.449 0.949q0.949 0.4 1.949 0.4 0.4 0 0.825-0.075t0.775-0.225l-0.349-0.949 0.5-0.2 0.4 1q1.7-0.751 2.6-2.5l-0.949-0.4 0.2-0.5 0.951 0.449q0.4-0.949 0.4-1.949 0-0.4-0.075-0.825t-0.225-0.775zM14.849 26.149q-0.849 0.351-1.675 0.225t-1.5-0.625-1.025-1.3q-0.349-0.849-0.225-1.675t0.625-1.5 1.3-1.025q0.851-0.349 1.675-0.225t1.5 0.625 1.025 1.3q0.349 0.851 0.225 1.675t-0.625 1.5-1.3 1.025z"></path>
</svg>
