<!-- Generated by IcoMoon.io -->
<svg version="1.1" xmlns="http://www.w3.org/2000/svg" width="40" height="40" viewBox="0 0 40 40">
<title>mt-app_registration</title>
<path fill="#91908d" d="M17.849 11.451h4.3v4.3h-4.3v-4.3zM11.451 24.251h4.3v4.3h-4.3v-4.3zM11.451 17.849h4.3v4.3h-4.3v-4.3zM11.451 11.451h4.3v4.3h-4.3v-4.3zM22.149 20.449v-2.6h-4.3v4.3h2.6zM29.449 19.251l-1.251-1.251q-0.1-0.151-0.275-0.151t-0.325 0.151l-0.951 0.949 1.9 1.851 0.9-0.951q0.151-0.1 0.151-0.3t-0.151-0.3zM18.949 26.649v1.9h1.851l7.1-7.149-1.849-1.849zM24.251 11.451h4.3v4.3h-4.3v-4.3z"></path>
</svg>
