<!-- Generated by IcoMoon.io -->
<svg version="1.1" xmlns="http://www.w3.org/2000/svg" width="40" height="40" viewBox="0 0 40 40">
<title>mt-animation</title>
<path fill="#91908d" d="M23.2 9.349q-2.149 0-3.925 1.1t-2.725 2.9q-2.1 1.151-3.2 3.2-1.8 0.949-2.9 2.725t-1.1 3.925q0 1.551 0.575 2.9t1.6 2.375 2.375 1.6 2.9 0.575q2.149 0 3.925-1.1t2.725-2.9q2.1-1.149 3.2-3.2 1.8-0.949 2.9-2.725t1.1-3.925q0-1.551-0.575-2.9t-1.6-2.375-2.375-1.6-2.9-0.575zM16.8 28.551q-1.451 0-2.675-0.725t-1.949-1.949-0.725-2.675q0-0.9 0.3-1.725t0.8-1.475q0 1.549 0.575 2.9t1.6 2.375 2.375 1.6 2.9 0.575q-0.651 0.5-1.475 0.8t-1.725 0.3zM20 25.351q-1.449 0-2.675-0.725t-1.949-1.949-0.725-2.675q0-0.9 0.3-1.725t0.8-1.475q0 1.549 0.575 2.9t1.6 2.375 2.375 1.6 2.9 0.575q-0.649 0.5-1.475 0.8t-1.725 0.3zM25 21.8q-0.9 0.349-1.8 0.349-1.449 0-2.675-0.725t-1.951-1.951-0.725-2.675q0-0.9 0.349-1.8 0.9-0.349 1.8-0.349 1.449 0 2.675 0.725t1.949 1.949 0.725 2.675q0 0.9-0.351 1.8zM27.449 20q0-1.551-0.575-2.9t-1.6-2.375-2.375-1.6-2.9-0.575q0.651-0.5 1.475-0.8t1.725-0.3q1.451 0 2.675 0.725t1.949 1.949 0.725 2.675q0 0.9-0.3 1.725t-0.8 1.475z"></path>
</svg>
