<!-- Generated by IcoMoon.io -->
<svg version="1.1" xmlns="http://www.w3.org/2000/svg" width="40" height="40" viewBox="0 0 40 40">
<title>mt-bakery_dining</title>
<path fill="#91908d" d="M21.9 23.2h-3.8l-0.8-7.349q-0.051-0.5 0.251-0.849t0.7-0.349h3.5q0.4 0 0.7 0.349t0.251 0.849zM16.4 17.2l0.7 6h-1.9l-2.249-4.349q-0.5-0.949 0.4-1.5l1.7-0.949q0.4-0.251 0.849 0t0.5 0.8zM23.6 17.2q0.1-0.549 0.5-0.8t0.851 0l1.7 0.951q0.9 0.549 0.351 1.5l-2.2 4.349h-1.9zM12.251 24.649q-0.251 0.149-0.6 0.149-0.6 0-0.9-0.6l-0.251-0.5q-0.251-0.6 0.049-1.049l0.9-1.351q0.251-0.449 0.851-0.449t0.851 0.449l1.049 1.9zM27.751 24.649l-1.949-1.451q0.349-0.649 1.051-1.9 0.251-0.451 0.849-0.451t0.849 0.451l0.851 1.349q0.351 0.5 0.1 1.051l-0.251 0.5q-0.251 0.6-0.9 0.6-0.349 0-0.6-0.149z"></path>
</svg>
