<!-- Generated by IcoMoon.io -->
<svg version="1.1" xmlns="http://www.w3.org/2000/svg" width="40" height="40" viewBox="0 0 40 40">
<title>mt-blur_on</title>
<path fill="#91908d" d="M22.149 16.251q0.649 0 1.125 0.475t0.475 1.125-0.475 1.125-1.125 0.475-1.125-0.475-0.475-1.125 0.475-1.125 1.125-0.475zM22.149 20.551q0.649 0 1.125 0.475t0.475 1.125-0.475 1.125-1.125 0.475-1.125-0.475-0.475-1.125 0.475-1.125 1.125-0.475zM17.849 25.351q0.451 0 0.775 0.3t0.325 0.751-0.325 0.751-0.775 0.3-0.751-0.3-0.3-0.751 0.3-0.751 0.751-0.3zM17.849 16.251q0.651 0 1.125 0.475t0.475 1.125-0.475 1.125-1.125 0.475-1.125-0.475-0.475-1.125 0.475-1.125 1.125-0.475zM22.149 29.051q0.5 0 0.5 0.551t-0.5 0.549q-0.549 0-0.549-0.549t0.549-0.551zM22.149 25.351q0.451 0 0.751 0.3t0.3 0.751-0.3 0.751-0.751 0.3-0.775-0.3-0.325-0.751 0.325-0.751 0.775-0.3zM29.6 21.6q0.549 0 0.549 0.549 0 0.5-0.549 0.5t-0.551-0.5q0-0.549 0.551-0.549zM26.4 12.551q0.451 0 0.751 0.3t0.3 0.751-0.3 0.751-0.751 0.3-0.751-0.3-0.3-0.751 0.3-0.751 0.751-0.3zM26.4 16.8q0.451 0 0.751 0.3t0.3 0.751-0.3 0.775-0.751 0.325-0.751-0.325-0.3-0.775 0.3-0.751 0.751-0.3zM26.4 25.351q0.451 0 0.751 0.3t0.3 0.751-0.3 0.751-0.751 0.3-0.751-0.3-0.3-0.751 0.3-0.751 0.751-0.3zM26.4 21.051q0.451 0 0.751 0.325t0.3 0.775-0.3 0.751-0.751 0.3-0.751-0.3-0.3-0.751 0.3-0.775 0.751-0.325zM17.849 20.551q0.651 0 1.125 0.475t0.475 1.125-0.475 1.125-1.125 0.475-1.125-0.475-0.475-1.125 0.475-1.125 1.125-0.475zM17.849 14.651q-0.449 0-0.751-0.3t-0.3-0.751 0.3-0.751 0.751-0.3 0.775 0.3 0.325 0.751-0.325 0.751-0.775 0.3zM17.849 10.951q-0.5 0-0.5-0.549t0.5-0.551q0.551 0 0.551 0.551t-0.551 0.549zM17.849 29.051q0.551 0 0.551 0.551t-0.551 0.549q-0.5 0-0.5-0.549t0.5-0.551zM10.4 21.6q0.549 0 0.549 0.549 0 0.5-0.549 0.5t-0.551-0.5q0-0.549 0.551-0.549zM22.149 10.951q-0.549 0-0.549-0.549t0.549-0.551q0.5 0 0.5 0.551t-0.5 0.549zM22.149 14.651q-0.451 0-0.775-0.3t-0.325-0.751 0.325-0.751 0.775-0.3 0.751 0.3 0.3 0.751-0.3 0.751-0.751 0.3zM29.6 18.4q-0.551 0-0.551-0.551 0-0.5 0.551-0.5t0.549 0.5q0 0.551-0.549 0.551zM13.6 12.551q0.451 0 0.751 0.3t0.3 0.751-0.3 0.751-0.751 0.3-0.751-0.3-0.3-0.751 0.3-0.751 0.751-0.3zM10.4 17.349q0.549 0 0.549 0.5 0 0.551-0.549 0.551t-0.551-0.551q0-0.5 0.551-0.5zM13.6 16.8q0.451 0 0.751 0.3t0.3 0.751-0.3 0.775-0.751 0.325-0.751-0.325-0.3-0.775 0.3-0.751 0.751-0.3zM13.6 25.351q0.451 0 0.751 0.3t0.3 0.751-0.3 0.751-0.751 0.3-0.751-0.3-0.3-0.751 0.3-0.751 0.751-0.3zM13.6 21.051q0.451 0 0.751 0.325t0.3 0.775-0.3 0.751-0.751 0.3-0.751-0.3-0.3-0.751 0.3-0.775 0.751-0.325z"></path>
</svg>
