<!-- Generated by IcoMoon.io -->
<svg version="1.1" xmlns="http://www.w3.org/2000/svg" width="40" height="40" viewBox="0 0 40 40">
<title>mt-backup_table</title>
<path fill="#91908d" d="M28.551 13.6v14.949h-14.951v2.1h14.951q0.849 0 1.475-0.625t0.625-1.475v-14.949h-2.1zM24.251 9.349h-12.8q-0.851 0-1.475 0.625t-0.625 1.475v12.8q0 0.9 0.625 1.525t1.475 0.625h12.8q0.9 0 1.525-0.625t0.625-1.525v-12.8q0-0.851-0.625-1.475t-1.525-0.625zM16.8 24.251h-5.351v-5.3h5.351v5.3zM24.251 24.251h-5.3v-5.3h5.3v5.3zM24.251 16.8h-12.8v-5.351h12.8v5.351z"></path>
</svg>
