<!-- Generated by IcoMoon.io -->
<svg version="1.1" xmlns="http://www.w3.org/2000/svg" width="40" height="40" viewBox="0 0 40 40">
<title>mt-block_flipped</title>
<path fill="#91908d" d="M30.649 20q0-2.2-0.825-4.125t-2.3-3.4-3.4-2.3-4.125-0.825-4.125 0.825-3.4 2.3-2.3 3.4-0.825 4.125 0.825 4.125 2.3 3.4 3.4 2.3 4.125 0.825 4.125-0.825 3.4-2.3 2.3-3.4 0.825-4.125zM13.3 14.751l11.949 11.949q-2.149 1.851-5.251 1.851-1.751 0-3.3-0.675t-2.725-1.851-1.849-2.725-0.675-3.3q0-3.1 1.851-5.251zM28.551 20q0 3.1-1.851 5.251l-11.949-11.949q2.151-1.851 5.251-1.851 1.751 0 3.3 0.675t2.725 1.849 1.851 2.725 0.675 3.3z"></path>
</svg>
