<!-- Generated by IcoMoon.io -->
<svg version="1.1" xmlns="http://www.w3.org/2000/svg" width="40" height="40" viewBox="0 0 40 40">
<title>mt-bubble_chart</title>
<path fill="#91908d" d="M18.3 16.6q0-2.149 1.475-3.649t3.625-1.5 3.649 1.5 1.5 3.649-1.5 3.625-3.649 1.475-3.625-1.475-1.475-3.625zM20.851 26.4q0-0.9 0.625-1.525t1.525-0.625 1.5 0.625 0.6 1.525-0.6 1.525-1.5 0.625-1.525-0.625-0.625-1.525zM11.451 22.551q0-1.4 1-2.4t2.449-1q1.4 0 2.4 0.975t1 2.425-1 2.425-2.4 0.975q-1.449 0-2.449-1t-1-2.4z"></path>
</svg>
