<!-- Generated by IcoMoon.io -->
<svg version="1.1" xmlns="http://www.w3.org/2000/svg" width="40" height="40" viewBox="0 0 40 40">
<title>mt-border_inner</title>
<path fill="#91908d" d="M27.449 25.351v-2.151h2.151v2.151h-2.151zM27.449 29.6v-2.151h2.151v2.151h-2.151zM21.051 10.4v8.549h8.551v2.1h-8.551v8.551h-2.1v-8.551h-8.549v-2.1h8.549v-8.549h2.1zM23.2 29.6v-2.151h2.151v2.151h-2.151zM27.449 10.4h2.151v2.149h-2.151v-2.149zM27.449 16.8v-2.151h2.151v2.151h-2.151zM25.351 10.4v2.149h-2.151v-2.149h2.151zM12.551 10.4v2.149h-2.149v-2.149h2.149zM16.8 10.4v2.149h-2.151v-2.149h2.151zM10.4 25.351v-2.151h2.149v2.151h-2.149zM12.551 14.651v2.151h-2.149v-2.151h2.149zM14.651 29.6v-2.151h2.151v2.151h-2.151zM10.4 29.6v-2.151h2.149v2.151h-2.149z"></path>
</svg>
