<!-- Generated by IcoMoon.io -->
<svg version="1.1" xmlns="http://www.w3.org/2000/svg" width="40" height="40" viewBox="0 0 40 40">
<title>mt-block</title>
<path fill="#91908d" d="M20 28.551q3.5 0 6.025-2.525t2.525-6.025q0-1.2-0.525-2.751t-1.275-2.5l-12 12q2.251 1.8 5.251 1.8zM11.451 20q0 1.2 0.525 2.751t1.275 2.5l12-12q-2.251-1.8-5.251-1.8-3.5 0-6.025 2.525t-2.525 6.025zM20 9.349q4.4 0 7.525 3.125t3.125 7.525-3.125 7.525-7.525 3.125-7.525-3.125-3.125-7.525 3.125-7.525 7.525-3.125z"></path>
</svg>
