<!-- Generated by IcoMoon.io -->
<svg version="1.1" xmlns="http://www.w3.org/2000/svg" width="40" height="40" viewBox="0 0 40 40">
<title>mt-contact_support</title>
<path fill="#91908d" d="M20.551 21.051q0-1.151 1.6-2.551t1.6-2.751q0-1.751-1.275-3.025t-3.025-1.275-3 1.275-1.251 3.025h2.149q0-0.849 0.625-1.5t1.475-0.651 1.5 0.651 0.649 1.5q0 0.7-0.5 1.251t-1.1 0.9-1.1 1.175-0.5 1.975h2.151zM20.551 24.8v-2.151h-2.151v2.151h2.151zM19.449 9.349q3.751 0 6.425 2.651t2.675 6.4q0 3.651-2.351 7.025t-6.2 5.225v-3.2h-0.551q-3.751 0-6.4-2.649t-2.651-6.4 2.651-6.4 6.4-2.651z"></path>
</svg>
