<!-- Generated by IcoMoon.io -->
<svg version="1.1" xmlns="http://www.w3.org/2000/svg" width="40" height="40" viewBox="0 0 40 40">
<title>mt-calculate</title>
<path fill="#91908d" d="M27.449 10.4h-14.9q-0.9 0-1.525 0.625t-0.625 1.525v14.9q0 0.9 0.625 1.525t1.525 0.625h14.9q0.9 0 1.525-0.625t0.625-1.525v-14.9q0-0.9-0.625-1.525t-1.525-0.625zM21.1 14.751l1.149-1.151 1.5 1.5 1.5-1.5 1.1 1.151-1.5 1.5 1.5 1.5-1.1 1.1-1.5-1.449-1.5 1.5-1.149-1.151 1.5-1.5zM13.849 15.449h5.349v1.6h-5.349v-1.6zM19.449 24.251h-2.1v2.149h-1.6v-2.149h-2.151v-1.6h2.151v-2.1h1.6v2.1h2.1v1.6zM26.4 25.6h-5.349v-1.6h5.349v1.6zM26.4 22.949h-5.349v-1.6h5.349v1.6z"></path>
</svg>
