<!-- Generated by IcoMoon.io -->
<svg version="1.1" xmlns="http://www.w3.org/2000/svg" width="40" height="40" viewBox="0 0 40 40">
<title>mt-cast_connected</title>
<path fill="#91908d" d="M29.6 10.4q0.849 0 1.5 0.649t0.649 1.5v14.9q0 0.849-0.649 1.5t-1.5 0.651h-7.451v-2.151h7.451v-14.9h-19.2v3.2h-2.151v-3.2q0-0.849 0.651-1.5t1.5-0.651h19.2zM8.251 17.849q4.849 0 8.3 3.451t3.449 8.3h-2.151q0-4-2.825-6.8t-6.775-2.8v-2.151zM27.449 14.651v10.7h-6q-1-3.151-3.375-5.551t-5.525-3.4v-1.751h14.9zM8.251 22.149q3.1 0 5.3 2.175t2.2 5.275h-2.151q0-2.2-1.575-3.775t-3.775-1.575v-2.1zM8.251 26.4q1.3 0 2.251 0.951t0.951 2.251h-3.2v-3.2z"></path>
</svg>
