<!-- Generated by IcoMoon.io -->
<svg version="1.1" xmlns="http://www.w3.org/2000/svg" width="40" height="40" viewBox="0 0 40 40">
<title>mt-cloud_queue</title>
<path fill="#91908d" d="M27.449 26.4q1.3 0 2.251-0.949t0.949-2.251-0.949-2.251-2.251-0.949h-1.6v-0.551q0-2.449-1.7-4.149t-4.151-1.7q-2 0-3.549 1.2t-2.1 3.049h-0.751q-1.751 0-3 1.275t-1.251 3.025 1.251 3 3 1.249h13.849zM27.851 17.9q2.049 0.151 3.5 1.675t1.449 3.625q0 2.2-1.575 3.775t-3.775 1.575h-13.849q-2.651 0-4.525-1.875t-1.875-4.525q0-2.349 1.675-4.225t4.025-2.125q1.051-1.951 2.949-3.151t4.149-1.2q2.7 0 5.025 1.9t2.825 4.551z"></path>
</svg>
