<!-- Generated by IcoMoon.io -->
<svg version="1.1" xmlns="http://www.w3.org/2000/svg" width="40" height="40" viewBox="0 0 40 40">
<title>mt-camera_enhance</title>
<path fill="#91908d" d="M20 25.351l-1.349-2.951-2.9-1.349 2.9-1.3 1.349-2.949 1.351 2.949 2.9 1.3-2.9 1.349zM20 26.4q2.2 0 3.775-1.575t1.575-3.775-1.575-3.751-3.775-1.551-3.775 1.551-1.575 3.751 1.575 3.775 3.775 1.575zM16.8 10.4h6.4l1.949 2.149h3.4q0.849 0 1.475 0.625t0.625 1.475v12.8q0 0.849-0.625 1.5t-1.475 0.651h-17.1q-0.851 0-1.475-0.651t-0.625-1.5v-12.8q0-0.851 0.625-1.475t1.475-0.625h3.4z"></path>
</svg>
