<!-- Generated by IcoMoon.io -->
<svg version="1.1" xmlns="http://www.w3.org/2000/svg" width="40" height="40" viewBox="0 0 40 40">
<title>mt-cloud_circle</title>
<path fill="#91908d" d="M24.8 24.251q1.1 0 1.875-0.775t0.775-1.875-0.775-1.875-1.875-0.775h-0.551q0-1.751-1.251-3.025t-3-1.275q-1.349 0-2.551 0.949t-1.549 2.3l-0.151-0.049q-1.3 0-2.251 0.949t-0.949 2.251 0.949 2.251 2.251 0.949h9.049zM20 9.349q4.4 0 7.525 3.125t3.125 7.525-3.125 7.525-7.525 3.125-7.525-3.125-3.125-7.525 3.125-7.525 7.525-3.125z"></path>
</svg>
