<!-- Generated by IcoMoon.io -->
<svg version="1.1" xmlns="http://www.w3.org/2000/svg" width="40" height="40" viewBox="0 0 40 40">
<title>mt-departure_board</title>
<path fill="#91908d" d="M24.8 11.451v4.549l3.051 1.8-0.8 1.3-3.851-2.3v-5.351h1.6zM24.251 21.051q2.2 0 3.775-1.551t1.575-3.751-1.575-3.775-3.775-1.575-3.751 1.575-1.551 3.775 1.551 3.751 3.751 1.551zM21.6 27.449q0.7 0 1.149-0.475t0.449-1.125-0.449-1.125-1.149-0.475-1.149 0.475-0.449 1.125 0.449 1.125 1.149 0.475zM10.4 21.051h8.651q-2.251-2.151-2.251-5.3h-6.4v5.3zM12 27.449q0.7 0 1.151-0.475t0.449-1.125-0.449-1.125-1.151-0.475-1.151 0.475-0.449 1.125 0.449 1.125 1.151 0.475zM24.251 8.251q3.1 0 5.3 2.2t2.2 5.3q0 2.8-1.851 4.875t-4.549 2.475v3.3q0 1.351-1.1 2.351v1.9q0 0.451-0.3 0.775t-0.751 0.325h-1.049q-0.451 0-0.775-0.325t-0.325-0.775v-1.049h-8.5v1.049q0 0.451-0.325 0.775t-0.775 0.325h-1.051q-0.449 0-0.751-0.325t-0.3-0.775v-1.9q-1.1-1-1.1-2.351v-10.649q0-2.549 2.2-3.425t6.349-0.875q0.2 0 0.651 0.025t0.651 0.025q2.251-3.251 6.151-3.251z"></path>
</svg>
