<!-- Generated by IcoMoon.io -->
<svg version="1.1" xmlns="http://www.w3.org/2000/svg" width="40" height="40" viewBox="0 0 40 40">
<title>mt-domain_disabled</title>
<path fill="#91908d" d="M20 27.449h4.251l-2.1-2.1h-2.151v2.1zM17.849 23.2v-2.149h-2.1v2.149h2.1zM17.849 27.449v-2.1h-2.1v2.1h2.1zM13.6 18.949v-2.149h-2.149v2.149h2.149zM13.6 23.2v-2.149h-2.149v2.149h2.149zM13.6 27.449v-2.1h-2.149v2.1h2.149zM8.6 9.1l22.4 22.3-1.4 1.4-3.2-3.2h-17.049v-17.051l-2.049-2.049zM24.251 18.949h2.149v2.1h-2.149v-2.1zM15.751 12.551v0.949l-3.1-3.1h7.349v4.251h10.649v13.8l-2.1-2.151v-9.5h-8.551v0.951l-3.1-3.1h0.951v-2.1h-2.1z"></path>
</svg>
