<!-- Generated by IcoMoon.io -->
<svg version="1.1" xmlns="http://www.w3.org/2000/svg" width="40" height="40" viewBox="0 0 40 40">
<title>mt-dirty_lens</title>
<path fill="#91908d" d="M21 27.449h7.551v-12.8h-17.1v12.8h7.749l0.2-1.5t-0.4-1.1q-0.251-0.151-0.5 0t-0.475 0.475-0.5 0.625-0.651 0.449-0.825-0.1q-0.451-0.349-0.475-0.6t0.175-0.5 0.449-0.575 0.4-0.751-0.049-1.025q-0.051-0.351-0.451-0.375t-0.849 0-0.825-0.151-0.425-0.825q-0.051-0.4 0.2-0.6t0.575-0.3 0.575-0.251 0.251-0.451q0.049-0.3-0.1-0.525l-0.3-0.449t-0.151-0.475 0.3-0.549q0.2-0.2 0.5-0.251t0.449 0q0.349 0.151 0.651 0.451t0.625 0.575 0.675 0.4 0.751-0.125q0.351-0.2 0.251-0.525t-0.349-0.7-0.451-0.725-0.125-0.649 0.675-0.451q0.651-0.2 0.975 0.125t0.549 0.849 0.5 1 0.775 0.625q0.551 0.151 0.975-0.149t0.775-0.775 0.7-1 0.7-0.849 0.725-0.325 0.875 0.6q0.449 0.651 0.4 1.075t-0.451 0.751-0.975 0.575-1.1 0.5-0.8 0.575-0.125 0.825q0.1 0.3 0.375 0.3t0.625-0.175 0.725-0.275 0.7 0.025 0.525 0.675q0.2 0.6-0.075 0.875t-0.8 0.349-1.075 0.1-0.951 0.1-0.349 0.325q0 0.351 0.375 0.525t0.825 0.351 0.649 0.475-0.1 0.949q-0.4 0.6-0.825 0.675t-0.9-0.125-0.9-0.449-0.8-0.325-0.675 0.325q-0.3 0.449-0.149 1.125t0.3 1.325v0zM28.551 12.551q0.849 0 1.475 0.625t0.625 1.475v12.8q0 0.9-0.625 1.525t-1.475 0.625h-17.1q-0.851 0-1.475-0.625t-0.625-1.525v-12.8q0-0.851 0.625-1.475t1.475-0.625h3.4l1.951-2.149h6.4l1.951 2.149h3.4zM26.551 26.4q-0.4 0-0.651-0.251t-0.251-0.649 0.251-0.649 0.651-0.251 0.649 0.251 0.251 0.649-0.251 0.649-0.649 0.251z"></path>
</svg>
