<!-- Generated by IcoMoon.io -->
<svg version="1.1" xmlns="http://www.w3.org/2000/svg" width="40" height="40" viewBox="0 0 40 40">
<title>mt-device_unknown</title>
<path fill="#91908d" d="M19.051 23.751h1.9v1.9h-1.9v-1.9zM20 14.349q1.6 0 2.675 1.075t1.075 2.625q0 1.251-1.4 2.5t-1.4 2.251h-1.9q0-1.051 0.425-1.775t0.975-1.049 0.975-0.825 0.425-1.1q0-0.751-0.549-1.3t-1.3-0.549-1.3 0.549-0.551 1.3h-1.9q0-1.551 1.075-2.625t2.675-1.075zM25.351 27.449v-14.9h-10.7v14.9h10.7zM25.351 8.251q0.849 0 1.475 0.651t0.625 1.5v19.2q0 0.849-0.625 1.5t-1.475 0.649h-10.7q-0.851 0-1.475-0.649t-0.625-1.5v-19.2q0-0.851 0.625-1.5t1.475-0.651h10.7z"></path>
</svg>
