<!-- Generated by IcoMoon.io -->
<svg version="1.1" xmlns="http://www.w3.org/2000/svg" width="40" height="40" viewBox="0 0 40 40">
<title>mt-dns</title>
<path fill="#91908d" d="M14.651 16.8q0.849 0 1.5-0.651t0.651-1.5-0.651-1.475-1.5-0.625-1.475 0.625-0.625 1.475 0.625 1.5 1.475 0.651zM28.551 10.4q0.449 0 0.751 0.3t0.3 0.751v6.4q0 0.451-0.3 0.775t-0.751 0.325h-17.1q-0.451 0-0.751-0.325t-0.3-0.775v-6.4q0-0.449 0.3-0.751t0.751-0.3h17.1zM14.651 27.449q0.849 0 1.5-0.625t0.651-1.475-0.651-1.5-1.5-0.651-1.475 0.651-0.625 1.5 0.625 1.475 1.475 0.625zM28.551 21.051q0.449 0 0.751 0.325t0.3 0.775v6.4q0 0.449-0.3 0.751t-0.751 0.3h-17.1q-0.451 0-0.751-0.3t-0.3-0.751v-6.4q0-0.451 0.3-0.775t0.751-0.325h17.1z"></path>
</svg>
