<!-- Generated by IcoMoon.io -->
<svg version="1.1" xmlns="http://www.w3.org/2000/svg" width="40" height="40" viewBox="0 0 40 40">
<title>mt-dry</title>
<path fill="#91908d" d="M23.9 12.4l-0.1-0.1q-0.949-1.049-0.7-2.351l0.1-0.6h-2l-0.1 0.451q-0.3 2.249 1.4 3.951l0.1 0.049q0.949 1.051 0.7 2.349l-0.1 0.651h2l0.1-0.449q0.151-1.1-0.225-2.125t-1.175-1.825zM28.149 12.4l-0.049-0.1q-1-1.049-0.751-2.351l0.1-0.6h-2l-0.051 0.451q-0.349 2.249 1.351 3.951l0.1 0.049q0.949 1.051 0.7 2.349l-0.1 0.651h2.051l0.051-0.449q0.149-1.1-0.2-2.125t-1.2-1.825zM16.949 12.551l-7.7 7.251q-1 0.9-1 2.3v6.451q0 0.849 0.451 1.575t1.175 1.175 1.575 0.449h14.7q0.551 0 0.925-0.4t0.375-0.951-0.375-0.949-0.925-0.4h-6.149v-1.049h8.251q0.551 0 0.949-0.4t0.4-0.949-0.4-0.925-0.949-0.375h-8.251v-1.1h9.351q0.549 0 0.925-0.375t0.375-0.925-0.375-0.949-0.925-0.4h-9.351v-1.049h7.2q0.551 0 0.949-0.4t0.4-0.949-0.4-0.951-0.949-0.4h-10.549q0.349-0.6 0.725-1.225t0.625-1.075l0.251-0.449q0.151-0.3 0.151-0.6 0-0.4-0.3-0.751l-0.175-0.175t-0.4-0.425-0.4-0.425l-0.175-0.175z"></path>
</svg>
