<!-- Generated by IcoMoon.io -->
<svg version="1.1" xmlns="http://www.w3.org/2000/svg" width="40" height="40" viewBox="0 0 40 40">
<title>mt-developer_board</title>
<path fill="#91908d" d="M20 18.949h4.251v6.4h-4.251v-6.4zM13.6 14.651h5.349v5.349h-5.349v-5.349zM20 14.651h4.251v3.2h-4.251v-3.2zM13.6 21.051h5.349v4.3h-5.349v-4.3zM26.4 27.449v-14.9h-14.949v14.9h14.949zM30.649 16.8h-2.1v2.149h2.1v2.1h-2.1v2.149h2.1v2.151h-2.1v2.1q0 0.851-0.651 1.5t-1.5 0.651h-14.949q-0.851 0-1.475-0.651t-0.625-1.5v-14.9q0-0.851 0.625-1.5t1.475-0.651h14.949q0.851 0 1.5 0.651t0.651 1.5v2.1h2.1v2.151z"></path>
</svg>
