<!-- Generated by IcoMoon.io -->
<svg version="1.1" xmlns="http://www.w3.org/2000/svg" width="40" height="40" viewBox="0 0 40 40">
<title>mt-dry_cleaning</title>
<path fill="#91908d" d="M27 22.149q0.449 0 0.449-0.451 0-0.349-0.251-0.449l-7.2-3.2-7.2 3.2q-0.251 0.1-0.251 0.4 0 0.5 0.449 0.5h1.651v-1.1h10.7v1.1h1.649zM28.051 19.3q1.551 0.649 1.551 2.349v0.051q0 1.1-0.751 1.825t-1.851 0.725h-1.649v6.4h-10.7v-6.4h-1.649q-1.1 0-1.851-0.725t-0.751-1.825v-0.051q0-1.649 1.549-2.3l7-3.149v-0.651q-1.1-0.4-1.7-1.425t-0.4-2.225q0.2-0.949 0.9-1.625t1.649-0.875q1.5-0.249 2.651 0.7t1.149 2.451h-2.149q0-0.449-0.3-0.775t-0.751-0.325-0.751 0.325-0.3 0.775 0.3 0.751 0.751 0.3 0.751 0.3 0.3 0.751v1.551z"></path>
</svg>
