<!-- Generated by IcoMoon.io -->
<svg version="1.1" xmlns="http://www.w3.org/2000/svg" width="40" height="40" viewBox="0 0 40 40">
<title>mt-elevator</title>
<path fill="#91908d" d="M27.449 10.4h-14.9q-0.9 0-1.525 0.625t-0.625 1.525v14.9q0 0.9 0.625 1.525t1.525 0.625h14.9q0.9 0 1.525-0.625t0.625-1.525v-14.9q0-0.9-0.625-1.525t-1.525-0.625zM16.251 13.6q0.551 0 0.949 0.4t0.4 0.949-0.4 0.925-0.949 0.375-0.925-0.375-0.375-0.925 0.375-0.949 0.925-0.4zM18.949 22.149h-1.1v4.249h-3.2v-4.249h-1.051v-2.7q0-0.849 0.625-1.475t1.525-0.625h1.051q0.9 0 1.525 0.625t0.625 1.475v2.7zM23.751 25.351l-2.7-4.3h5.349zM21.051 18.949l2.7-4.3 2.649 4.3h-5.349z"></path>
</svg>
