<!-- Generated by IcoMoon.io -->
<svg version="1.1" xmlns="http://www.w3.org/2000/svg" width="40" height="40" viewBox="0 0 40 40">
<title>mt-exposure_zero</title>
<path fill="#91908d" d="M22.149 18q0-2-0.549-2.849-0.2-0.3-0.7-0.6-0.351-0.2-0.9-0.2t-0.9 0.2q-0.5 0.3-0.7 0.6-0.549 0.849-0.549 2.849v2.851q0 2.8 1.251 3.549 0.349 0.2 0.9 0.2 1.049 0 1.6-0.851 0.6-0.9 0.6-2.9v-2.849h-0.049zM15.6 18.349q0-5.8 4.4-5.8 3.251 0 4.1 3.1 0.351 1.3 0.351 2.7v2.2h-0.051q0 2.949-1.2 4.5-0.7 0.8-1.4 1.051-0.8 0.3-1.8 0.3t-1.8-0.3q-0.7-0.251-1.4-1.051-1.2-1.351-1.2-4.5v-2.2z"></path>
</svg>
