<!-- Generated by IcoMoon.io -->
<svg version="1.1" xmlns="http://www.w3.org/2000/svg" width="40" height="40" viewBox="0 0 40 40">
<title>mt-emoji_emotions</title>
<path fill="#91908d" d="M23.751 18.949q0.649 0 1.125-0.475t0.475-1.125-0.475-1.125-1.125-0.475-1.125 0.475-0.475 1.125 0.475 1.125 1.125 0.475zM20 26.4q1.8 0 3.251-1.175t2.1-3.075h-10.7q0.649 1.9 2.1 3.075t3.249 1.175zM16.251 15.751q-0.651 0-1.125 0.475t-0.475 1.125 0.475 1.125 1.125 0.475 1.125-0.475 0.475-1.125-0.475-1.125-1.125-0.475zM20 9.349q4.4 0 7.525 3.125t3.125 7.525-3.125 7.525-7.525 3.125-7.525-3.125-3.125-7.525 3.125-7.525 7.525-3.125z"></path>
</svg>
