<!-- Generated by IcoMoon.io -->
<svg version="1.1" xmlns="http://www.w3.org/2000/svg" width="40" height="40" viewBox="0 0 40 40">
<title>mt-electric_rickshaw</title>
<path fill="#91908d" d="M29.6 19.151v-1.6q0-0.751-0.5-1.351l-4.2-5.049q-0.649-0.751-1.649-0.751h-12.851q-0.9 0-1.525 0.625t-0.625 1.525v8.5q0 0.9 0.625 1.525t1.525 0.625h0.2q0.351 0.951 1.149 1.551t1.851 0.6 1.849-0.6 1.151-1.551h8.949q0.3 0.951 1.125 1.551t1.875 0.6q0.9 0 1.625-0.451t1.151-1.175 0.425-1.575q0-1.049-0.6-1.875t-1.549-1.125zM26.851 16.8h-2.6v-3.051zM10.4 12.551h4.251v4.251h-4.251v-4.251zM13.6 23.2q-0.449 0-0.751-0.325t-0.3-0.725q0-0.451 0.3-0.775t0.751-0.325 0.751 0.325 0.3 0.775q0 0.4-0.3 0.725t-0.751 0.325zM16.8 21.051v-2.1h3.2v-2.149h-3.2v-4.251h5.349v8.5h-5.349zM28.551 23.2q-0.449 0-0.775-0.325t-0.325-0.725q0-0.451 0.325-0.775t0.775-0.325q0.4 0 0.725 0.325t0.325 0.775q0 0.4-0.325 0.725t-0.725 0.325zM14.651 28.551h4.3v-2.151l6.4 3.2h-4.3v2.149z"></path>
</svg>
