<!-- Generated by IcoMoon.io -->
<svg version="1.1" xmlns="http://www.w3.org/2000/svg" width="40" height="40" viewBox="0 0 40 40">
<title>mt-find_in_page</title>
<path fill="#91908d" d="M16.8 21.051q0-1.3 0.949-2.251t2.251-0.951 2.251 0.951 0.949 2.251-0.949 2.251-2.251 0.949-2.251-0.949-0.949-2.251zM28.551 28.1l-4.1-4.1q0.9-1.4 0.9-2.949 0-2.2-1.575-3.751t-3.775-1.551-3.775 1.551-1.575 3.751 1.575 3.775 3.775 1.575q1.549 0 2.949-0.9l4.7 4.751q-0.549 0.4-1.251 0.4h-12.8q-0.849 0-1.5-0.625t-0.651-1.475l0.051-17.1q0-0.849 0.625-1.475t1.475-0.625h8.549l6.4 6.4v12.349z"></path>
</svg>
