<!-- Generated by IcoMoon.io -->
<svg version="1.1" xmlns="http://www.w3.org/2000/svg" width="40" height="40" viewBox="0 0 40 40">
<title>mt-folder_shared</title>
<path fill="#91908d" d="M27.449 25.351v-1.1q0-0.949-1.475-1.525t-2.775-0.575-2.775 0.575-1.475 1.525v1.1h8.5zM23.2 16.8q-0.849 0-1.5 0.649t-0.649 1.5 0.649 1.475 1.5 0.625 1.5-0.625 0.651-1.475-0.651-1.5-1.5-0.649zM28.551 13.6q0.849 0 1.475 0.651t0.625 1.5v10.649q0 0.851-0.625 1.5t-1.475 0.651h-17.1q-0.851 0-1.475-0.651t-0.625-1.5v-12.8q0-0.851 0.625-1.5t1.475-0.649h6.4l2.151 2.149h8.551z"></path>
</svg>
