<!-- Generated by IcoMoon.io -->
<svg version="1.1" xmlns="http://www.w3.org/2000/svg" width="40" height="40" viewBox="0 0 40 40">
<title>mt-format_list_bulleted</title>
<path fill="#91908d" d="M14.651 12.551h14.951v2.1h-14.951v-2.1zM14.651 21.051v-2.1h14.951v2.1h-14.951zM14.651 27.449v-2.1h14.951v2.1h-14.951zM11.451 24.8q0.649 0 1.125 0.475t0.475 1.125-0.475 1.125-1.125 0.475-1.125-0.475-0.475-1.125 0.475-1.125 1.125-0.475zM11.451 12q0.649 0 1.125 0.449t0.475 1.149-0.475 1.151-1.125 0.449-1.125-0.449-0.475-1.151 0.475-1.149 1.125-0.451zM11.451 18.4q0.649 0 1.125 0.449t0.475 1.151-0.475 1.149-1.125 0.451-1.125-0.451-0.475-1.151 0.475-1.149 1.125-0.451z"></path>
</svg>
