<!-- Generated by IcoMoon.io -->
<svg version="1.1" xmlns="http://www.w3.org/2000/svg" width="40" height="40" viewBox="0 0 40 40">
<title>mt-fit_screen</title>
<path fill="#91908d" d="M26.4 15.751v8.5h-12.8v-8.5h12.8zM14.651 26.4v2.151h-3.2q-0.851 0-1.475-0.651t-0.625-1.5v-2.149h2.1v2.149h3.2zM28.551 24.251h2.1v2.149q0 0.851-0.625 1.5t-1.475 0.651h-3.2v-2.151h3.2v-2.149zM11.451 15.751h-2.1v-2.151q0-0.849 0.625-1.5t1.475-0.649h3.2v2.149h-3.2v2.151zM25.351 11.451h3.2q0.849 0 1.475 0.649t0.625 1.5v2.151h-2.1v-2.151h-3.2v-2.149z"></path>
</svg>
