<!-- Generated by IcoMoon.io -->
<svg version="1.1" xmlns="http://www.w3.org/2000/svg" width="40" height="40" viewBox="0 0 40 40">
<title>mt-family_restroom</title>
<path fill="#91908d" d="M24.251 11.451q0-0.851 0.625-1.475t1.525-0.625 1.525 0.625 0.625 1.475q0 0.9-0.625 1.525t-1.525 0.625-1.525-0.625-0.625-1.525zM28.551 30.649v-6.4h2.649l-2.7-8.1q-0.251-0.7-0.8-1.1t-1.251-0.4h-0.1q-0.7 0-1.251 0.4t-0.8 1.1l-0.9 2.751q0.851 0.449 1.4 1.325t0.551 1.925v8.5h3.2zM20.551 19.449q0.649 0 1.125-0.449t0.475-1.151q0-0.651-0.475-1.125t-1.125-0.475q-0.7 0-1.151 0.475t-0.451 1.125q0 0.7 0.451 1.151t1.151 0.449zM13.051 13.6q0.9 0 1.525-0.625t0.625-1.525q0-0.851-0.625-1.475t-1.525-0.625q-0.851 0-1.475 0.625t-0.625 1.475q0 0.9 0.625 1.525t1.475 0.625zM15.2 30.649v-7.449h1.6v-6.4q0-0.9-0.625-1.525t-1.525-0.625h-3.2q-0.849 0-1.475 0.625t-0.625 1.525v6.4h1.6v7.449h4.251zM22.149 30.649v-4.251h1.049v-4.249q0-0.649-0.475-1.125t-1.125-0.475h-2.151q-0.651 0-1.125 0.475t-0.475 1.125v4.249h1.1v4.251h3.2z"></path>
</svg>
