<!-- Generated by IcoMoon.io -->
<svg version="1.1" xmlns="http://www.w3.org/2000/svg" width="40" height="40" viewBox="0 0 40 40">
<title>mt-facebook</title>
<path fill="#91908d" d="M30.649 20q0-2.2-0.825-4.125t-2.3-3.4-3.4-2.3-4.125-0.825-4.125 0.825-3.4 2.3-2.3 3.4-0.825 4.125q0 1.949 0.625 3.675t1.8 3.125 2.725 2.349 3.349 1.3v-7.251h-2.1v-3.2h2.1v-2.651q0-1.051 0.525-1.9t1.349-1.349 1.875-0.5h2.649v3.2h-2.1q-0.451 0-0.775 0.325t-0.325 0.725v2.151h3.2v3.2h-3.2v7.4q2.049-0.2 3.8-1.1t3.049-2.325 2.025-3.251 0.725-3.925z"></path>
</svg>
