<!-- Generated by IcoMoon.io -->
<svg version="1.1" xmlns="http://www.w3.org/2000/svg" width="40" height="40" viewBox="0 0 40 40">
<title>mt-gradient</title>
<path fill="#91908d" d="M27.449 18.949v-6.4h-14.9v6.4h2.1v2.1h2.151v2.149h2.149v-2.149h2.1v2.149h2.149v-2.149h2.151v-2.1h2.1zM25.351 26.4v-2.149h-2.151v2.149h2.151zM21.051 26.4v-2.149h-2.1v2.149h2.1zM16.8 26.4v-2.149h-2.151v2.149h2.151zM27.449 10.4q0.851 0 1.5 0.649t0.651 1.5v14.9q0 0.849-0.651 1.5t-1.5 0.651h-14.9q-0.851 0-1.5-0.651t-0.651-1.5v-14.9q0-0.849 0.651-1.5t1.5-0.649h14.9zM14.651 16.8h2.151v2.149h-2.151v-2.149zM23.2 16.8h2.151v2.149h-2.151v-2.149zM18.949 16.8h2.1v2.149h2.149v2.1h-2.149v-2.1h-2.1v2.1h-2.149v-2.1h2.149v-2.149zM25.351 21.051v2.149h2.1v-2.149h-2.1zM14.651 21.051h-2.1v2.149h2.1v-2.149z"></path>
</svg>
