<!-- Generated by IcoMoon.io -->
<svg version="1.1" xmlns="http://www.w3.org/2000/svg" width="40" height="40" viewBox="0 0 40 40">
<title>mt-grain</title>
<path fill="#91908d" d="M17.849 11.451q0.849 0 1.5 0.649t0.651 1.5-0.651 1.5-1.5 0.651-1.475-0.651-0.625-1.5 0.625-1.5 1.475-0.649zM22.149 15.751q0.851 0 1.475 0.625t0.625 1.475-0.625 1.5-1.475 0.651-1.5-0.651-0.651-1.5 0.651-1.475 1.5-0.625zM26.4 20q0.851 0 1.5 0.649t0.651 1.5-0.651 1.475-1.5 0.625-1.5-0.625-0.649-1.475 0.649-1.5 1.5-0.651zM22.149 24.251q0.851 0 1.475 0.649t0.625 1.5-0.625 1.5-1.475 0.651-1.5-0.651-0.651-1.5 0.651-1.5 1.5-0.649zM26.4 15.751q-0.849 0-1.5-0.651t-0.649-1.5 0.649-1.5 1.5-0.649 1.5 0.649 0.651 1.5-0.651 1.5-1.5 0.651zM13.6 24.251q0.851 0 1.5 0.649t0.651 1.5-0.651 1.5-1.5 0.651-1.5-0.651-0.649-1.5 0.649-1.5 1.5-0.649zM13.6 15.751q0.851 0 1.5 0.625t0.651 1.475-0.651 1.5-1.5 0.651-1.5-0.651-0.649-1.5 0.649-1.475 1.5-0.625zM17.849 20q0.849 0 1.5 0.649t0.651 1.5-0.651 1.475-1.5 0.625-1.475-0.625-0.625-1.475 0.625-1.5 1.475-0.651z"></path>
</svg>
