<!-- Generated by IcoMoon.io -->
<svg version="1.1" xmlns="http://www.w3.org/2000/svg" width="40" height="40" viewBox="0 0 40 40">
<title>mt-group_work</title>
<path fill="#91908d" d="M24.251 25.851q1.1 0 1.9-0.775t0.8-1.875-0.8-1.875-1.9-0.775-1.875 0.775-0.775 1.875 0.775 1.875 1.875 0.775zM17.349 15.751q0 1.1 0.775 1.875t1.875 0.775 1.875-0.775 0.775-1.875-0.775-1.9-1.875-0.8-1.875 0.8-0.775 1.9zM15.751 25.851q1.1 0 1.875-0.775t0.775-1.875-0.775-1.875-1.875-0.775-1.9 0.775-0.8 1.875 0.8 1.875 1.9 0.775zM20 9.349q4.4 0 7.525 3.125t3.125 7.525-3.125 7.525-7.525 3.125-7.525-3.125-3.125-7.525 3.125-7.525 7.525-3.125z"></path>
</svg>
