<!-- Generated by IcoMoon.io -->
<svg version="1.1" xmlns="http://www.w3.org/2000/svg" width="40" height="40" viewBox="0 0 40 40">
<title>mt-history</title>
<path fill="#91908d" d="M20 15.751h1.6v4.5l3.751 2.251-0.8 1.3-4.551-2.751v-5.3zM21.051 10.4q3.949 0 6.775 2.8t2.825 6.8-2.825 6.8-6.775 2.8q-1.651 0-3.625-0.825t-3.125-1.975l1.5-1.551q2.2 2.2 5.251 2.2 3.1 0 5.3-2.175t2.2-5.275-2.2-5.275-5.3-2.175-5.275 2.175-2.175 5.275h3.2l-4.3 4.3-0.1-0.149-4.149-4.151h3.2q0-4 2.825-6.8t6.775-2.8z"></path>
</svg>
