<!-- Generated by IcoMoon.io -->
<svg version="1.1" xmlns="http://www.w3.org/2000/svg" width="40" height="40" viewBox="0 0 40 40">
<title>mt-how_to_vote</title>
<path fill="#91908d" d="M20.8 9.651q0.3-0.3 0.751-0.3 0.549 0 0.751 0.3l5.3 5.3q0.3 0.3 0.3 0.751t-0.3 0.751l-6.8 6.751q-0.3 0.3-0.751 0.3t-0.751-0.3l-5.3-5.251q-0.3-0.3-0.3-0.751t0.3-0.751zM25.351 15.7l-3.8-3.8-5.251 5.3 3.751 3.751zM26.4 21.051l3.2 3.2v4.3q0 0.9-0.625 1.5t-1.525 0.6h-14.949q-0.849 0-1.475-0.625t-0.625-1.475v-4.3l3.2-3.2h0.9l2.1 2.149h-2.151l-1.9 2.151h14.9l-1.849-2.151h-2.051l2.1-2.149h0.751z"></path>
</svg>
