<!-- Generated by IcoMoon.io -->
<svg version="1.1" xmlns="http://www.w3.org/2000/svg" width="40" height="40" viewBox="0 0 40 40">
<title>mt-help_outline</title>
<path fill="#91908d" d="M20 13.6q1.751 0 3 1.251t1.251 3q0 1.349-1.6 2.775t-1.6 2.575h-2.1q0-1.149 0.5-1.975t1.1-1.2 1.1-0.925 0.5-1.251q0-0.851-0.649-1.475t-1.5-0.625-1.5 0.625-0.651 1.475h-2.1q0-1.751 1.251-3t3-1.251zM20 28.551q3.5 0 6.025-2.525t2.525-6.025-2.525-6.025-6.025-2.525-6.025 2.525-2.525 6.025 2.525 6.025 6.025 2.525zM20 9.349q4.4 0 7.525 3.125t3.125 7.525-3.125 7.525-7.525 3.125-7.525-3.125-3.125-7.525 3.125-7.525 7.525-3.125zM18.949 26.4v-2.149h2.1v2.149h-2.1z"></path>
</svg>
