<!-- Generated by IcoMoon.io -->
<svg version="1.1" xmlns="http://www.w3.org/2000/svg" width="40" height="40" viewBox="0 0 40 40">
<title>mt-integration_instructions</title>
<path fill="#91908d" d="M27.449 10.4h-4.449q-0.351-0.951-1.149-1.551t-1.851-0.6-1.849 0.6-1.151 1.551h-4.449q-0.251 0-0.449 0.049-0.6 0.1-1.049 0.6-0.3 0.3-0.5 0.651-0.151 0.4-0.151 0.851v14.9q0 0.449 0.151 0.849 0.149 0.351 0.5 0.7 0.451 0.449 1.049 0.549 0.2 0.051 0.449 0.051h14.9q0.9 0 1.525-0.625t0.625-1.525v-14.9q0-0.9-0.625-1.525t-1.525-0.625zM18.949 22.3l-1.5 1.549-3.849-3.851 3.849-3.849 1.5 1.549-2.349 2.3zM20 11.751q-0.349 0-0.575-0.251t-0.225-0.549q0-0.351 0.225-0.575t0.575-0.225 0.575 0.225 0.225 0.575q0 0.3-0.225 0.549t-0.575 0.251zM22.551 23.851l-1.5-1.549 2.349-2.3-2.349-2.3 1.5-1.549 3.849 3.849z"></path>
</svg>
