<!-- Generated by IcoMoon.io -->
<svg version="1.1" xmlns="http://www.w3.org/2000/svg" width="40" height="40" viewBox="0 0 40 40">
<title>mt-important_devices</title>
<path fill="#91908d" d="M19.949 16.8h3.251l-2.649 1.9 1 3.1-2.6-1.951-2.649 1.951 1-3.1-2.651-1.9h3.251l1.049-3.2zM28.551 9.349q0.9 0 1.5 0.6t0.6 1.5v5.351h-2.1v-5.351h-19.2v12.8h13.851v2.149h-2.149v2.151h2.149v2.1h-8.551v-2.1h2.149v-2.151h-7.449q-0.9 0-1.525-0.625t-0.625-1.525v-12.8q0-0.9 0.625-1.5t1.525-0.6h19.2zM31.751 28.551v-7.5h-5.351v7.5h5.351zM31.751 18.949q0.449 0 0.751 0.3t0.3 0.751v9.6q0 0.449-0.3 0.751t-0.751 0.3h-5.351q-0.449 0-0.751-0.3t-0.3-0.751v-9.6q0-0.449 0.3-0.751t0.751-0.3h5.351z"></path>
</svg>
