<!-- Generated by IcoMoon.io -->
<svg version="1.1" xmlns="http://www.w3.org/2000/svg" width="40" height="40" viewBox="0 0 40 40">
<title>mt-liquor</title>
<path fill="#91908d" d="M28.551 28.551v-2.151h-7.5v2.151h7.5zM21.051 18.349v1.651h7.5v-1.651l-1.051-0.349q-0.9-0.3-1.525-1.2t-0.625-1.851v-0.3h-1.1v0.3q0 2.3-2.149 3.049zM24.251 11.451v1.1h1.1v-1.1h-1.1zM29.2 16.3q1.449 0.5 1.449 2.049v10.2q0 0.849-0.625 1.475t-1.475 0.625h-7.5q-0.851 0-1.475-0.625t-0.625-1.475v-10.2q0-1.549 1.451-2.049l1-0.3q0.751-0.251 0.751-1.051v-4.549q0-0.451 0.3-0.751t0.751-0.3h3.2q0.451 0 0.751 0.3t0.3 0.751v4.549q0 0.7 0.751 1zM12.551 15.751v3.2h2.1v-3.2h-2.1zM10.4 22.149v-8.551h6.4v8.551q0 1.049-0.6 1.851t-1.549 1.149v3.4h2.151v2.1h-6.4v-2.1h2.149v-3.4q-0.951-0.351-1.549-1.149t-0.6-1.851z"></path>
</svg>
