<!-- Generated by IcoMoon.io -->
<svg version="1.1" xmlns="http://www.w3.org/2000/svg" width="40" height="40" viewBox="0 0 40 40">
<title>mt-loyalty</title>
<path fill="#91908d" d="M25.6 23.5q0.8-0.8 0.8-1.9t-0.775-1.875-1.875-0.775q-1.151 0-1.9 0.751l-0.8 0.8-0.751-0.8q-0.751-0.751-1.9-0.751-1.1 0-1.875 0.775t-0.775 1.875q0 1.149 0.751 1.9l4.549 4.551zM13.051 14.651q0.649 0 1.125-0.475t0.475-1.125-0.475-1.125-1.125-0.475-1.125 0.475-0.475 1.125 0.475 1.125 1.125 0.475zM30.051 19.551q0.6 0.6 0.6 1.5t-0.6 1.5l-7.5 7.5q-0.6 0.6-1.5 0.6t-1.5-0.6l-9.6-9.6q-0.6-0.6-0.6-1.5v-7.5q0-0.849 0.625-1.475t1.475-0.625h7.5q0.9 0 1.5 0.6z"></path>
</svg>
