<!-- Generated by IcoMoon.io -->
<svg version="1.1" xmlns="http://www.w3.org/2000/svg" width="40" height="40" viewBox="0 0 40 40">
<title>mt-local_fire_department</title>
<path fill="#91908d" d="M22.9 26q-0.251 0.251-0.625 0.449t-0.675 0.3q-0.9 0.3-1.775 0.025t-1.475-0.775q-0.1-0.1-0.075-0.2t0.125-0.151q0.951-0.3 1.5-0.949t0.751-1.4q0.149-0.7-0.049-1.351t-0.3-1.351q-0.1-0.549-0.075-1.075t0.225-1.025q0-0.1 0.1-0.1t0.149 0.051q0.3 0.651 0.775 1.151t1 0.951 0.949 0.975 0.525 1.225q0.049 0.3 0.049 0.549 0.051 0.751-0.251 1.5t-0.849 1.2zM25.9 17.449q-0.6-0.549-1.249-1t-1.251-1.049q-1.2-1.2-1.575-2.8t0.125-3.251q0.1-0.251-0.075-0.425t-0.425-0.075q-0.6 0.251-1.125 0.6t-1.025 0.7q-1.551 1.3-2.451 3.075t-1.025 3.8 0.625 3.975q0 0.1 0.025 0.2t0.025 0.2q0 0.451-0.4 0.649t-0.8-0.149q-0.1-0.149-0.151-0.251-0.8-1-1.075-2.275t-0.075-2.525q0.051-0.3-0.225-0.451t-0.475 0.1q-1 1.3-1.451 2.875t-0.351 3.175q0 0.449 0.075 0.925t0.225 0.925q0.349 1.2 0.949 2.2 0.951 1.6 2.549 2.675t3.449 1.325q1.951 0.251 3.925-0.2t3.475-1.8q1.1-1.051 1.725-2.425t0.675-2.875-0.551-2.9q-0.051-0.1-0.075-0.175t-0.075-0.175q-0.451-0.849-1-1.551-0.2-0.3-0.425-0.549t-0.525-0.5z"></path>
</svg>
