<!-- Generated by IcoMoon.io -->
<svg version="1.1" xmlns="http://www.w3.org/2000/svg" width="40" height="40" viewBox="0 0 40 40">
<title>mt-local_florist</title>
<path fill="#91908d" d="M20 13.051q-1.1 0-1.875 0.8t-0.775 1.9 0.775 1.875 1.875 0.775 1.875-0.775 0.775-1.875-0.775-1.9-1.875-0.8zM13.151 18.151q0-1.651 1.549-2.4-1.549-0.751-1.549-2.4 0-1.1 0.8-1.9t1.9-0.8q0.751 0 1.5 0.5v-0.2q0-1.1 0.775-1.9t1.875-0.8 1.875 0.8 0.775 1.9v0.2q0.8-0.5 1.5-0.5 1.1 0 1.9 0.8t0.8 1.9q0 1.651-1.551 2.4 1.551 0.751 1.551 2.4 0 1.1-0.8 1.875t-1.9 0.775q-0.851 0-1.5-0.449v0.2q0 1.1-0.775 1.875t-1.875 0.775-1.875-0.775-0.775-1.875v-0.2q-0.7 0.449-1.5 0.449-1.1 0-1.9-0.775t-0.8-1.875zM20 30.649q-4 0-6.8-2.825t-2.8-6.775q4 0 6.8 2.825t2.8 6.775zM20 30.649q0-3.949 2.8-6.775t6.8-2.825q0 3.949-2.8 6.775t-6.8 2.825z"></path>
</svg>
