<!-- Generated by IcoMoon.io -->
<svg version="1.1" xmlns="http://www.w3.org/2000/svg" width="40" height="40" viewBox="0 0 40 40">
<title>mt-local_movies</title>
<path fill="#91908d" d="M26.4 16.8v-2.151h-2.149v2.151h2.149zM26.4 21.051v-2.1h-2.149v2.1h2.149zM26.4 25.351v-2.151h-2.149v2.151h2.149zM15.751 16.8v-2.151h-2.151v2.151h2.151zM15.751 21.051v-2.1h-2.151v2.1h2.151zM15.751 25.351v-2.151h-2.151v2.151h2.151zM26.4 10.4h2.151v19.2h-2.151v-2.151h-2.149v2.151h-8.5v-2.151h-2.151v2.151h-2.149v-19.2h2.149v2.149h2.151v-2.149h8.5v2.149h2.149v-2.149z"></path>
</svg>
