<!-- Generated by IcoMoon.io -->
<svg version="1.1" xmlns="http://www.w3.org/2000/svg" width="40" height="40" viewBox="0 0 40 40">
<title>mt-miscellaneous_services</title>
<path fill="#91908d" d="M22.3 21.8l1.5-2.551q0.149-0.3-0.1-0.5l-1.549-1.2q0.049-0.4 0.049-0.751t-0.049-0.751l1.549-1.2q0.251-0.251 0.1-0.5l-1.5-2.6q-0.151-0.251-0.451-0.151l-1.851 0.751q-0.6-0.451-1.251-0.751l-0.3-1.951q-0.049-0.3-0.349-0.3h-3q-0.3 0-0.349 0.3l-0.3 2q-0.7 0.251-1.251 0.7l-1.851-0.751q-0.3-0.1-0.449 0.2l-1.5 2.549q-0.2 0.3 0.049 0.5l1.6 1.2q-0.051 0.4-0.051 0.751t0.051 0.751l-1.6 1.2q-0.251 0.251-0.049 0.5l1.5 2.6q0.149 0.251 0.449 0.149l1.851-0.751q0.6 0.449 1.251 0.751l0.3 1.949q0.051 0.3 0.349 0.3h3q0.3 0 0.349-0.3l0.3-2q0.7-0.251 1.251-0.7l1.851 0.751q0.3 0.1 0.451-0.2zM16.6 18.949q-0.9 0-1.525-0.625t-0.625-1.525 0.625-1.525 1.525-0.625 1.525 0.625 0.625 1.525-0.625 1.525-1.525 0.625zM30.6 27.1l-1.051-0.751q0-0.151 0.025-0.251t0.025-0.251q0-0.251-0.051-0.451l1-0.8q0.2-0.149 0.051-0.3l-0.951-1.651q-0.049-0.2-0.3-0.1l-1.151 0.449q-0.4-0.3-0.849-0.449l-0.151-1.251q-0.051-0.251-0.251-0.251h-1.9q-0.2 0-0.251 0.2l-0.151 1.3q-0.251 0.049-0.449 0.175t-0.351 0.275l-1.2-0.5q-0.2-0.051-0.3 0.1l-0.951 1.7q-0.1 0.149 0.051 0.3l1 0.8q-0.051 0.2-0.051 0.451t0.051 0.449l-1 0.8q-0.149 0.149-0.051 0.3l0.951 1.651q0.1 0.2 0.3 0.1l1.2-0.449q0.351 0.3 0.8 0.449l0.151 1.251q0.049 0.2 0.251 0.2h1.9q0.251 0 0.251-0.2l0.2-1.251 0.4-0.2t0.4-0.251l1.2 0.449q0.149 0.1 0.251-0.1l1-1.651q0.1-0.149-0.051-0.3zM26 27.3q-0.6 0-1.025-0.425t-0.425-1.025 0.425-1.025 1.025-0.425 1.025 0.425 0.425 1.025-0.425 1.025-1.025 0.425z"></path>
</svg>
