<!-- Generated by IcoMoon.io -->
<svg version="1.1" xmlns="http://www.w3.org/2000/svg" width="40" height="40" viewBox="0 0 40 40">
<title>mt-next_week</title>
<path fill="#91908d" d="M18.949 26.949l4.251-4.3-4.251-4.251-1.1 1.049 3.2 3.2-3.2 3.2zM17.849 12.551v2.1h4.3v-2.1h-4.3zM22.149 10.4q0.851 0 1.475 0.625t0.625 1.525v2.1h4.3q0.849 0 1.475 0.651t0.625 1.5v11.751q0 0.849-0.625 1.475t-1.475 0.625h-17.1q-0.851 0-1.475-0.625t-0.625-1.475v-11.751q0-0.851 0.625-1.5t1.475-0.651h4.3v-2.1q0-0.851 0.625-1.5t1.475-0.649h4.3z"></path>
</svg>
