<!-- Generated by IcoMoon.io -->
<svg version="1.1" xmlns="http://www.w3.org/2000/svg" width="40" height="40" viewBox="0 0 40 40">
<title>mt-not_listed_location</title>
<path fill="#91908d" d="M20.949 20.949q0-1 1.4-2.251t1.4-2.449q0-1.551-1.1-2.625t-2.651-1.075-2.651 1.075-1.1 2.625h1.9q0-0.751 0.549-1.3t1.3-0.549 1.3 0.549 0.551 1.3q0 0.6-0.425 1.1t-0.975 0.825-0.975 1.025-0.425 1.751h1.9zM20.949 24v-1.851h-1.9v1.851h1.9zM20 9.349q3.1 0 5.275 2.175t2.175 5.275q0 1.549-0.775 3.549t-1.875 3.751-2.175 3.275-1.825 2.425l-0.8 0.849q-0.3-0.349-0.8-0.925t-1.8-2.3-2.275-3.351-1.775-3.675-0.8-3.6q0-3.1 2.175-5.275t5.275-2.175z"></path>
</svg>
