<!-- Generated by IcoMoon.io -->
<svg version="1.1" xmlns="http://www.w3.org/2000/svg" width="40" height="40" viewBox="0 0 40 40">
<title>mt-no_stroller</title>
<path fill="#91908d" d="M13.6 26.4q0.9 0 1.525 0.625t0.625 1.525q0 0.849-0.625 1.475t-1.525 0.625-1.525-0.625-0.625-1.475q0-0.9 0.625-1.525t1.525-0.625zM27.1 10.4q-0.9 0-1.525 0.375t-1.075 0.875-0.8 0.9l-3.751 4.4 5.4 5.351v-8.4q0.449-0.551 0.825-0.951t0.925-0.4q0.6 0 1.025 0.449t0.425 1.1v0.551h2.1v-0.551q0-1-0.475-1.849t-1.275-1.349-1.8-0.5zM18.6 18.6l-8.4-8.4-1.5 1.5 8.5 8.5-2.849 3.351q-0.3 0.349-0.251 0.751t0.325 0.7 0.725 0.3h7.1l1.251 1.251q-0.6 0.2-0.975 0.751t-0.375 1.251q0 0.849 0.625 1.475t1.475 0.625q0.7 0 1.251-0.375t0.751-0.975l2.051 2 1.5-1.5-5.1-5.1zM21.551 12.551q0.251-0.251 0.5-0.551t0.549-0.6q-1.951-0.951-4.151-0.975t-4.149 0.825l4.5 4.551z"></path>
</svg>
