<!-- Generated by IcoMoon.io -->
<svg version="1.1" xmlns="http://www.w3.org/2000/svg" width="40" height="40" viewBox="0 0 40 40">
<title>mt-pool</title>
<path fill="#91908d" d="M22.149 13.051q0-1.1 0.775-1.875t1.875-0.775 1.875 0.775 0.775 1.875-0.775 1.9-1.875 0.8-1.875-0.8-0.775-1.9zM16.449 20q-0.6 0-1.251-0.4-0.2-0.151-0.8-0.4l3.451-3.449-1.051-1.1q-1.6-1.6-4.251-1.6v-2.649q2.051 0 3.349 0.475t2.5 1.675l6.849 6.8q-0.3 0.2-0.449 0.251-0.649 0.4-1.251 0.4-0.551 0-1.2-0.4-1.1-0.651-2.351-0.651t-2.349 0.651q-0.651 0.4-1.2 0.4zM30.649 24.8q-1.149 0-2.3-0.7-0.551-0.351-1.251-0.351-0.651 0-1.2 0.351-1.149 0.7-2.349 0.7-1.149 0-2.3-0.7-0.549-0.351-1.251-0.351-0.649 0-1.2 0.351-1.151 0.7-2.349 0.7-1.151 0-2.3-0.7-0.551-0.351-1.251-0.351-0.651 0-1.2 0.351-1.149 0.7-2.351 0.7v-2.151q0.649 0 1.2-0.349 1.149-0.7 2.351-0.7 1.151 0 2.3 0.7 0.551 0.349 1.251 0.349 0.651 0 1.2-0.349 1.151-0.7 2.349-0.7 1.151 0 2.3 0.7 0.551 0.349 1.251 0.349 0.649 0 1.2-0.349 1.151-0.7 2.351-0.7 1.149 0 2.3 0.7 0.551 0.349 1.251 0.349v2.151zM30.649 29.6q-1.149 0-2.3-0.7-0.551-0.349-1.251-0.349-0.651 0-1.2 0.349-1.149 0.7-2.349 0.7-1.149 0-2.3-0.7-0.549-0.349-1.251-0.349-0.649 0-1.2 0.349-1.151 0.7-2.349 0.7t-2.351-0.7q-0.551-0.349-1.2-0.349-0.7 0-1.251 0.349-1.151 0.7-2.3 0.7v-2.151q0.649 0 1.2-0.349 1.149-0.7 2.349-0.7 1.151 0 2.3 0.7 0.551 0.349 1.251 0.349 0.651 0 1.2-0.349 1.151-0.7 2.349-0.7t2.351 0.7q0.549 0.349 1.2 0.349 0.7 0 1.251-0.349 1.151-0.7 2.3-0.7 1.2 0 2.349 0.7 0.551 0.349 1.2 0.349v2.151z"></path>
</svg>
