<!-- Generated by IcoMoon.io -->
<svg version="1.1" xmlns="http://www.w3.org/2000/svg" width="40" height="40" viewBox="0 0 40 40">
<title>mt-photo_filter</title>
<path fill="#91908d" d="M21.351 18.651l2.9 1.349-2.9 1.351-1.351 2.9-1.349-2.9-2.9-1.351 2.9-1.349 1.349-2.9zM25.351 17.849l-1-2.2-2.2-1 2.2-1 1-2.2 1 2.2 2.2 1-2.2 1zM27.5 17.849h2.1v9.6q0 0.851-0.625 1.5t-1.475 0.651h-14.949q-0.851 0-1.5-0.651t-0.649-1.5v-14.9q0-0.851 0.649-1.5t1.5-0.651h9.6v2.151h-9.6v14.9h14.951v-9.6z"></path>
</svg>
