<!-- Generated by IcoMoon.io -->
<svg version="1.1" xmlns="http://www.w3.org/2000/svg" width="40" height="40" viewBox="0 0 40 40">
<title>mt-pets</title>
<path fill="#91908d" d="M25.7 23.051l0.851 0.849t0.425 0.451 0.4 0.475 0.375 0.475 0.325 0.5 0.251 0.551 0.151 0.575 0.049 0.6-0.025 0.625q-0.551 2.1-2.5 2.5-0.351 0.051-2.425-0.2t-3.475-0.251h-0.2q-1.4 0-3.475 0.251t-2.425 0.2q-1.949-0.4-2.5-2.5-0.151-1 0.349-2.051t0.925-1.5 1.525-1.549q0.5-0.549 1.325-1.549t1.325-1.551q0.9-1.1 1.851-1.4 0.2-0.1 0.349-0.1 0.3-0.051 0.849-0.051 0.6 0 0.851 0.051 0.149 0 0.349 0.1 0.951 0.3 1.851 1.4 0.449 0.551 1.3 1.551t1.351 1.549zM25.351 17.349q0-1.1 0.775-1.9t1.875-0.8 1.875 0.8 0.775 1.9-0.775 1.875-1.875 0.775-1.875-0.775-0.775-1.875zM20.551 13.051q0-1.1 0.775-1.875t1.875-0.775 1.875 0.775 0.775 1.875-0.775 1.9-1.875 0.8-1.875-0.8-0.775-1.9zM14.151 13.051q0-1.1 0.775-1.875t1.875-0.775 1.875 0.775 0.775 1.875-0.775 1.9-1.875 0.8-1.875-0.8-0.775-1.9zM9.349 17.349q0-1.1 0.775-1.9t1.875-0.8 1.875 0.8 0.775 1.9-0.775 1.875-1.875 0.775-1.875-0.775-0.775-1.875z"></path>
</svg>
