<!-- Generated by IcoMoon.io -->
<svg version="1.1" xmlns="http://www.w3.org/2000/svg" width="40" height="40" viewBox="0 0 40 40">
<title>mt-perm_data_setting</title>
<path fill="#91908d" d="M27.449 29.051q0.651 0 1.125-0.475t0.475-1.125-0.475-1.125-1.125-0.475-1.125 0.475-0.475 1.125 0.475 1.125 1.125 0.475zM31.4 28l1.151 0.851q0.1 0.1 0.1 0.251l-0.049 0.049v0.051l-1.051 1.849q-0.151 0.251-0.349 0.151l-1.3-0.551q-0.151 0.151-0.9 0.5l-0.2 1.451q0 0.2-0.3 0.2h-2.1q-0.3 0-0.3-0.2l-0.2-1.451q-0.4-0.2-0.9-0.5l-1.3 0.551q-0.251 0.1-0.351-0.151l-1.051-1.849v-0.051l-0.049-0.049q0-0.151 0.1-0.251l1.149-0.851q0-0.1-0.025-0.3t-0.025-0.251 0.025-0.251 0.025-0.251l-1.149-0.9q-0.149-0.151-0.051-0.351l1.051-1.849q0.1-0.2 0.351-0.1l1.3 0.551q0.6-0.4 0.9-0.551l0.2-1.4q0-0.2 0.3-0.2h2.1q0.3 0 0.3 0.2l0.2 1.4q0.2 0.1 0.9 0.551l1.3-0.551q0.251-0.1 0.349 0.1l1.051 1.849v0.051q0.049 0.051 0.049 0.1 0 0.1-0.1 0.2l-1.151 0.9q0.051 0.151 0.051 0.5 0 0.1-0.025 0.3t-0.025 0.251zM27.449 19.449q-3.3 0-5.651 2.351t-2.349 5.651q0 0.4 0.1 1.1h-12.349l21.349-21.349-0.051 12.349q-0.7-0.1-1.049-0.1z"></path>
</svg>
