<!-- Generated by IcoMoon.io -->
<svg version="1.1" xmlns="http://www.w3.org/2000/svg" width="40" height="40" viewBox="0 0 40 40">
<title>mt-pending</title>
<path fill="#91908d" d="M20 9.349q-2.2 0-4.125 0.825t-3.4 2.3-2.3 3.4-0.825 4.125 0.825 4.125 2.3 3.4 3.4 2.3 4.125 0.825 4.125-0.825 3.4-2.3 2.3-3.4 0.825-4.125-0.825-4.125-2.3-3.4-3.4-2.3-4.125-0.825zM14.651 21.6q-0.651 0-1.125-0.475t-0.475-1.125 0.475-1.125 1.125-0.475q0.7 0 1.151 0.475t0.449 1.125-0.449 1.125-1.151 0.475zM20 21.6q-0.651 0-1.125-0.475t-0.475-1.125 0.475-1.125 1.125-0.475 1.125 0.475 0.475 1.125-0.475 1.125-1.125 0.475zM25.351 21.6q-0.7 0-1.151-0.475t-0.449-1.125 0.449-1.125 1.151-0.475q0.649 0 1.125 0.475t0.475 1.125-0.475 1.125-1.125 0.475z"></path>
</svg>
