<!-- Generated by IcoMoon.io -->
<svg version="1.1" xmlns="http://www.w3.org/2000/svg" width="40" height="40" viewBox="0 0 40 40">
<title>mt-psychology</title>
<path fill="#91908d" d="M21.051 16.349q-0.6 0-1.051 0.451t-0.449 1.049q0 0.651 0.449 1.1t1.051 0.451q0.649 0 1.1-0.451t0.451-1.1q0-0.6-0.451-1.049t-1.1-0.451zM21.051 10.4q-1.5 0-2.8 0.549t-2.325 1.525-1.625 2.251-0.7 2.775l-2.049 2.7q-0.2 0.3-0.049 0.575t0.5 0.275h1.6v3.2q0 0.9 0.625 1.525t1.525 0.625h1.049v3.2h7.451v-5q1.9-0.9 3.1-2.7t1.2-4.051q0-1.551-0.6-2.9t-1.625-2.375-2.375-1.6-2.9-0.575zM24.251 17.849v0.451l0.9 0.7q0.1 0.1 0.049 0.251l-0.849 1.5q-0.1 0.149-0.3 0.1l-1.051-0.451q-0.3 0.251-0.7 0.4l-0.149 1.149q-0.049 0.2-0.251 0.2h-1.7q-0.149 0-0.2-0.2l-0.151-1.149q-0.4-0.151-0.751-0.4l-1.049 0.451q-0.151 0.049-0.251-0.1l-0.851-1.5q-0.1-0.151 0.051-0.251l0.9-0.7q0-0.1-0.025-0.225t-0.025-0.225 0.025-0.2 0.025-0.2l-0.9-0.7q-0.151-0.1-0.051-0.3l0.851-1.449q0.1-0.151 0.251-0.1l1.1 0.451q0.349-0.3 0.7-0.451l0.149-1.1q0.049-0.2 0.2-0.2h1.7q0.2 0 0.251 0.2l0.149 1.1q0.351 0.151 0.7 0.451l1.051-0.451q0.2-0.049 0.3 0.1l0.849 1.449q0.1 0.2-0.049 0.3l-0.951 0.7q0.051 0.151 0.051 0.4z"></path>
</svg>
