<!-- Generated by IcoMoon.io -->
<svg version="1.1" xmlns="http://www.w3.org/2000/svg" width="40" height="40" viewBox="0 0 40 40">
<title>mt-pan_tool</title>
<path fill="#91908d" d="M31.751 13.051v15.5q0 1.751-1.275 3t-3.025 1.251h-7.751q-1.8 0-3.051-1.251l-8.4-8.551q1.349-1.3 1.4-1.3 0.351-0.3 0.851-0.3 0.349 0 0.649 0.149l4.6 2.6v-12.7q0-0.649 0.475-1.125t1.125-0.475 1.125 0.475 0.475 1.125v7.5h1.049v-10.149q0-0.7 0.449-1.149t1.151-0.451 1.149 0.451 0.451 1.149v10.149h1.049v-9.1q0-0.649 0.475-1.125t1.125-0.475 1.125 0.475 0.475 1.125v9.1h1.1v-5.9q0-0.651 0.475-1.125t1.125-0.475 1.125 0.475 0.475 1.125z"></path>
</svg>
