<!-- Generated by IcoMoon.io -->
<svg version="1.1" xmlns="http://www.w3.org/2000/svg" width="40" height="40" viewBox="0 0 40 40">
<title>mt-public</title>
<path fill="#91908d" d="M26.3 25.751q2.251-2.4 2.251-5.751 0-2.651-1.475-4.8t-3.875-3.1v0.451q0 0.849-0.649 1.475t-1.5 0.625h-2.1v2.151q0 0.449-0.325 0.751t-0.775 0.3h-2.1v2.151h6.4q0.451 0 0.751 0.3t0.3 0.751v3.2h1.051q1.5 0 2.049 1.5zM18.949 28.449v-2.051q-0.849 0-1.5-0.649t-0.649-1.5v-1.051l-5.1-5.1q-0.251 1-0.251 1.9 0 3.251 2.175 5.649t5.325 2.8zM20 9.349q4.4 0 7.525 3.125t3.125 7.525-3.125 7.525-7.525 3.125-7.525-3.125-3.125-7.525 3.125-7.525 7.525-3.125z"></path>
</svg>
