<!-- Generated by IcoMoon.io -->
<svg version="1.1" xmlns="http://www.w3.org/2000/svg" width="40" height="40" viewBox="0 0 40 40">
<title>mt-qr_code</title>
<path fill="#91908d" d="M10.4 18.949h8.549v-8.549h-8.549v8.549zM12.551 12.551h4.251v4.251h-4.251v-4.251zM10.4 29.6h8.549v-8.551h-8.549v8.551zM12.551 23.2h4.251v4.251h-4.251v-4.251zM21.051 10.4v8.549h8.551v-8.549h-8.551zM27.449 16.8h-4.251v-4.251h4.251v4.251zM27.449 27.449h2.151v2.151h-2.151v-2.151zM21.051 21.051h2.149v2.149h-2.149v-2.149zM23.2 23.2h2.151v2.151h-2.151v-2.151zM21.051 25.351h2.149v2.1h-2.149v-2.1zM23.2 27.449h2.151v2.151h-2.151v-2.151zM25.351 25.351h2.1v2.1h-2.1v-2.1zM25.351 21.051h2.1v2.149h-2.1v-2.149zM27.449 23.2h2.151v2.151h-2.151v-2.151z"></path>
</svg>
