<!-- Generated by IcoMoon.io -->
<svg version="1.1" xmlns="http://www.w3.org/2000/svg" width="40" height="40" viewBox="0 0 40 40">
<title>mt-recommend</title>
<path fill="#91908d" d="M26.4 19.849v-0.9q0-0.449-0.3-0.775t-0.751-0.325h-4.9l0.6-3.6v-0.251q0-0.449-0.3-0.751l-0.751-0.7-4.9 5.3q-0.451 0.349-0.451 1v5.4q0 0.9 0.625 1.525t1.525 0.625h5.949q0.9 0 1.3-0.849l2.251-5.251q0.1-0.2 0.1-0.449zM20 9.349q4.4 0 7.525 3.125t3.125 7.525-3.125 7.525-7.525 3.125-7.525-3.125-3.125-7.525 3.125-7.525 7.525-3.125z"></path>
</svg>
