<!-- Generated by IcoMoon.io -->
<svg version="1.1" xmlns="http://www.w3.org/2000/svg" width="40" height="40" viewBox="0 0 40 40">
<title>mt-rounded_corner</title>
<path fill="#91908d" d="M29.6 15.751v5.3h-2.151v-5.3q0-1.3-0.949-2.251t-2.251-0.949h-5.3v-2.149h5.3q2.2 0 3.775 1.575t1.575 3.775zM10.4 29.6v-2.151h2.149v2.151h-2.149zM14.651 29.6v-2.151h2.151v2.151h-2.151zM18.949 29.6v-2.151h2.1v2.151h-2.1zM14.651 12.551v-2.149h2.151v2.149h-2.151zM10.4 12.551v-2.149h2.149v2.149h-2.149zM10.4 16.8v-2.151h2.149v2.151h-2.149zM10.4 25.351v-2.151h2.149v2.151h-2.149zM10.4 21.051v-2.1h2.149v2.1h-2.149zM27.449 25.351v-2.151h2.151v2.151h-2.151zM27.449 27.449h2.151v2.151h-2.151v-2.151z"></path>
</svg>
