<!-- Generated by IcoMoon.io -->
<svg version="1.1" xmlns="http://www.w3.org/2000/svg" width="40" height="40" viewBox="0 0 40 40">
<title>mt-receipt</title>
<path fill="#91908d" d="M10.4 30.649v-21.3l1.6 1.6 1.6-1.6 1.6 1.6 1.6-1.6 1.6 1.6 1.6-1.6 1.6 1.6 1.6-1.6 1.6 1.6 1.6-1.6 1.6 1.6 1.6-1.6v21.3l-1.6-1.6-1.6 1.6-1.6-1.6-1.6 1.6-1.6-1.6-1.6 1.6-1.6-1.6-1.6 1.6-1.6-1.6-1.6 1.6-1.6-1.6zM26.4 16.8v-2.151h-12.8v2.151h12.8zM26.4 21.051v-2.1h-12.8v2.1h12.8zM26.4 25.351v-2.151h-12.8v2.151h12.8z"></path>
</svg>
