<!-- Generated by IcoMoon.io -->
<svg version="1.1" xmlns="http://www.w3.org/2000/svg" width="40" height="40" viewBox="0 0 40 40">
<title>mt-replay_30</title>
<path fill="#91908d" d="M21.5 23.4q0 0.351 0.551 0.351 0.2 0 0.3-0.1l0.2-0.251q0.1-0.2 0.1-0.3v-2.151q0-0.049-0.049-0.149t-0.049-0.151q0-0.1-0.2-0.225t-0.3-0.125q-0.2 0-0.351 0.149l-0.2 0.2q-0.1 0.2-0.1 0.3v2.151q0.1 0.2 0.1 0.3zM23.5 22.351q0 0.649-0.1 0.851l-0.3 0.649q-0.351 0.3-0.551 0.3-0.1 0-0.325 0.051t-0.325 0.051q-0.351 0-1.149-0.4-0.1-0.049-0.3-0.649-0.149-0.451-0.149-0.851v-0.751q0-0.549 0.149-0.849l0.3-0.651q0.351-0.3 0.551-0.3 0.1 0 0.3-0.049t0.3-0.051q0.451 0 0.651 0.1 0.1 0.051 0.275 0.151t0.275 0.149 0.3 0.649q0.1 0.3 0.1 0.851v0.751zM17.849 21.6q0.751 0 0.751-0.649v-0.2q-0.1-0.1-0.1-0.2t-0.2-0.1h-0.551q-0.1 0.1-0.2 0.1t-0.1 0.2v0.2h-1.1q0-0.4 0.275-0.775t0.625-0.375q0.049 0 0.251-0.049t0.251-0.051q0.6 0 1.2 0.3 0.4 0.2 0.4 0.949v0.351q-0.1 0.2-0.1 0.3 0 0.2-0.2 0.2-0.1 0-0.349 0.251 0.449 0.251 0.551 0.4 0.2 0.4 0.2 0.649 0 0.451-0.1 0.549-0.051 0.051-0.151 0.2t-0.151 0.2q-0.2 0.2-0.549 0.2-0.1 0-0.325 0.051t-0.325 0.049q-0.4 0-0.5-0.1-0.051-0.051-0.251-0.1t-0.3-0.1q-0.449-0.251-0.449-1.051h0.9v0.2q0.1 0.1 0.1 0.2t0.2 0.1h0.551q0.1-0.1 0.2-0.1t0.1-0.2v-0.549q-0.1-0.1-0.1-0.2t-0.2-0.1h-0.651v-0.751h0.4zM20 12.551q3.551 0 6.051 2.5t2.5 6q0 3.549-2.525 6.051t-6.025 2.5-6.025-2.5-2.525-6.051h2.149q0 2.649 1.9 4.525t4.5 1.875 4.5-1.875 1.9-4.525-1.9-4.525-4.5-1.875v4.3l-5.349-5.349 5.349-5.351v4.3z"></path>
</svg>
