<!-- Generated by IcoMoon.io -->
<svg version="1.1" xmlns="http://www.w3.org/2000/svg" width="40" height="40" viewBox="0 0 40 40">
<title>mt-repeat_one_on</title>
<path fill="#91908d" d="M21.051 23.2v-6.4h-1.051l-2.151 1.049v1.1h1.6v4.251h1.6zM25.351 25.351h-10.7v-3.2l-4.251 4.251 4.251 4.251v-3.2h12.8v-6.4h-2.1v4.3zM14.651 14.651h10.7v3.2l4.251-4.251-4.251-4.251v3.2h-12.8v6.4h2.1v-4.3zM29.6 8.251q0.849 0 1.5 0.651t0.649 1.5v19.2q0 0.849-0.649 1.5t-1.5 0.649h-19.2q-0.851 0-1.5-0.649t-0.651-1.5v-19.2q0-0.851 0.651-1.5t1.5-0.651h19.2z"></path>
</svg>
