<!-- Generated by IcoMoon.io -->
<svg version="1.1" xmlns="http://www.w3.org/2000/svg" width="40" height="40" viewBox="0 0 40 40">
<title>mt-rule_folder</title>
<path fill="#91908d" d="M28.551 13.6h-8.551l-2.151-2.149h-6.4q-0.851 0-1.475 0.625t-0.625 1.525v12.8q0 0.9 0.625 1.525t1.475 0.625h17.1q0.849 0 1.475-0.625t0.625-1.525v-10.649q0-0.9-0.625-1.525t-1.475-0.625zM15.551 24.251l-3-3 1.5-1.5 1.5 1.5 3.751-3.8 1.5 1.551zM25.751 21.051l1.7 1.7-1.5 1.5-1.7-1.7-1.7 1.7-1.5-1.5 1.7-1.7-1.7-1.7 1.5-1.5 1.7 1.7 1.7-1.7 1.5 1.5z"></path>
</svg>
