<!-- Generated by IcoMoon.io -->
<svg version="1.1" xmlns="http://www.w3.org/2000/svg" width="40" height="40" viewBox="0 0 40 40">
<title>mt-settings_overscan</title>
<path fill="#91908d" d="M29.6 27.5v-15h-19.2v15h19.2zM29.6 10.4q0.849 0 1.5 0.649t0.649 1.5v14.9q0 0.849-0.649 1.5t-1.5 0.651h-19.2q-0.851 0-1.5-0.651t-0.651-1.5v-14.9q0-0.849 0.651-1.5t1.5-0.649h19.2zM22.149 24.251l-2.151 2.7-2.149-2.7h4.3zM13.6 17.849v4.3l-2.649-2.151zM26.4 17.849l2.651 2.151-2.651 2.149v-4.3zM20 13.051l2.149 2.7h-4.3z"></path>
</svg>
