<!-- Generated by IcoMoon.io -->
<svg version="1.1" xmlns="http://www.w3.org/2000/svg" width="40" height="40" viewBox="0 0 40 40">
<title>mt-settings_power</title>
<path fill="#91908d" d="M23.2 32.8v-2.151h2.151v2.151h-2.151zM24.851 11.951q3.7 2.6 3.7 7 0 3.5-2.5 6t-6.051 2.5-6.051-2.5-2.5-6q0-1.849 1.075-3.9t2.625-3.1l1.5 1.5q-3.051 1.9-3.051 5.5 0 2.651 1.875 4.525t4.525 1.875 4.525-1.875 1.875-4.525q0-1.5-0.9-3.1t-2.2-2.349zM21.051 9.349v10.651h-2.1v-10.651h2.1zM18.949 32.8v-2.151h2.1v2.151h-2.1zM14.651 32.8v-2.151h2.151v2.151h-2.151z"></path>
</svg>
