<!-- Generated by IcoMoon.io -->
<svg version="1.1" xmlns="http://www.w3.org/2000/svg" width="40" height="40" viewBox="0 0 40 40">
<title>mt-sentiment_neutral</title>
<path fill="#91908d" d="M20 28.551q3.5 0 6.025-2.525t2.525-6.025-2.525-6.025-6.025-2.525-6.025 2.525-2.525 6.025 2.525 6.025 6.025 2.525zM20 9.349q4.4 0 7.525 3.125t3.125 7.525-3.125 7.525-7.525 3.125-7.525-3.125-3.125-7.525 3.125-7.525 7.525-3.125zM14.651 17.349q0-0.651 0.475-1.125t1.125-0.475 1.125 0.475 0.475 1.125-0.475 1.125-1.125 0.475-1.125-0.475-0.475-1.125zM22.149 17.349q0-0.651 0.475-1.125t1.125-0.475 1.125 0.475 0.475 1.125-0.475 1.125-1.125 0.475-1.125-0.475-0.475-1.125zM16.8 23.751h6.4v1.051h-6.4v-1.051z"></path>
</svg>
