<!-- Generated by IcoMoon.io -->
<svg version="1.1" xmlns="http://www.w3.org/2000/svg" width="40" height="40" viewBox="0 0 40 40">
<title>mt-scatter_plot</title>
<path fill="#91908d" d="M21.7 25.949q0-1.3 0.951-2.251t2.251-0.949 2.249 0.949 0.951 2.251-0.951 2.251-2.249 0.949-2.251-0.949-0.951-2.251zM15.751 13.6q0-1.3 0.949-2.251t2.251-0.949 2.251 0.949 0.951 2.251-0.951 2.251-2.251 0.951-2.251-0.951-0.949-2.251zM11.451 22.149q0-1.3 0.951-2.251t2.251-0.951 2.251 0.951 0.949 2.251-0.949 2.251-2.251 0.951-2.251-0.951-0.951-2.251z"></path>
</svg>
