<!-- Generated by IcoMoon.io -->
<svg version="1.1" xmlns="http://www.w3.org/2000/svg" width="40" height="40" viewBox="0 0 40 40">
<title>mt-stroller</title>
<path fill="#91908d" d="M22.149 28.551q0-0.9 0.625-1.525t1.475-0.625q0.9 0 1.525 0.625t0.625 1.525q0 0.849-0.625 1.475t-1.525 0.625q-0.851 0-1.475-0.625t-0.625-1.475zM11.451 28.551q0-0.9 0.625-1.525t1.525-0.625 1.525 0.625 0.625 1.525q0 0.849-0.625 1.475t-1.525 0.625-1.525-0.625-0.625-1.475zM30.649 14.651v-0.551q0-1-0.475-1.849t-1.275-1.349-1.8-0.5q-0.9 0-1.525 0.375t-1.075 0.875-0.8 0.9l-9.4 11q-0.3 0.349-0.251 0.775t0.325 0.725 0.775 0.3h8.049q0.9 0 1.525-0.625t0.625-1.525v-9.3q0.449-0.551 0.825-0.949t0.925-0.4q0.6 0 1.025 0.451t0.425 1.1v0.551h2.1zM22.449 11.549q-1-0.549-2.175-0.849t-2.425-0.3q-1.551 0-2.975 0.475t-2.625 1.375l5.2 5.2z"></path>
</svg>
