<!-- Generated by IcoMoon.io -->
<svg version="1.1" xmlns="http://www.w3.org/2000/svg" width="40" height="40" viewBox="0 0 40 40">
<title>mt-sports</title>
<path fill="#91908d" d="M16.8 20q0-0.9 0.625-1.525t1.525-0.625 1.5 0.625 0.6 1.525-0.6 1.525-1.5 0.625-1.525-0.625-0.625-1.525zM18.949 23.2q1.3 0 2.251-0.949t0.951-2.251-0.951-2.251-2.251-0.949-2.251 0.949-0.949 2.251 0.949 2.251 2.251 0.949zM12 16.8q0.551 0 0.551-0.551 0-0.5-0.551-0.5t-0.549 0.5q0 0.551 0.549 0.551zM19.2 13.6h11.449v4.3h-4.3q-0.5 0-0.825 0.349t-0.275 0.851q0.149 1.149-0.051 2.2-0.4 2-1.949 3.4t-3.6 1.649q-0.1 0-0.349 0.025t-0.351 0.025q-2.649 0-4.525-1.875t-1.875-4.525v-0.3q0-0.351 0.1-0.851-0.4 0.1-0.651 0.1-1.1 0-1.875-0.8t-0.775-1.9 0.775-1.875 1.875-0.775q0.9 0 1.6 0.525t0.951 1.325q1.949-1.849 4.649-1.849z"></path>
</svg>
