<!-- Generated by IcoMoon.io -->
<svg version="1.1" xmlns="http://www.w3.org/2000/svg" width="40" height="40" viewBox="0 0 40 40">
<title>mt-set_meal</title>
<path fill="#91908d" d="M29.649 25.949l-19.149 1-0.1-1.6 19.2-1zM29.6 28h-19.2v1.6h19.2v-1.6zM30.649 12.551v7.449q0 0.9-0.625 1.525t-1.475 0.625h-17.1q-0.849 0-1.475-0.625t-0.625-1.525v-7.451q0-0.9 0.625-1.525t1.475-0.625h17.1q0.849 0 1.475 0.625t0.625 1.525zM28.551 13.6q-1.351 0-2.325 0.7t-1.125 1.7q-0.251-0.3-0.8-0.8t-1.4-0.975-2.049-0.825-2.7-0.349q-1.9 0-3.251 0.5t-2.225 1.125-1.3 1.1l-0.425 0.475 0.425 0.5t1.3 1.125 2.225 1.1 3.251 0.475q1.5 0 2.7-0.325t2.049-0.825 1.4-0.975 0.8-0.775q0.149 1 1.125 1.7t2.325 0.7v-5.351z"></path>
</svg>
