<!-- Generated by IcoMoon.io -->
<svg version="1.1" xmlns="http://www.w3.org/2000/svg" width="40" height="40" viewBox="0 0 40 40">
<title>mt-settings_display</title>
<path fill="#91908d" d="M20 16.8v6.4q1.3 0 2.251-0.949t0.949-2.251-0.949-2.251-2.251-0.951zM15.751 24.251v-2.649l-1.6-1.6 1.6-1.6v-2.651h2.651l1.6-1.6 1.6 1.6h2.649v2.651l1.6 1.6-1.6 1.6v2.649h-2.649l-1.6 1.6-1.6-1.6h-2.651zM29.6 27.5v-15h-19.2v15h19.2zM29.6 10.4q0.849 0 1.5 0.649t0.649 1.5v14.9q0 0.849-0.649 1.5t-1.5 0.651h-19.2q-0.851 0-1.5-0.651t-0.651-1.5v-14.9q0-0.849 0.651-1.5t1.5-0.649h19.2z"></path>
</svg>
