<!-- Generated by IcoMoon.io -->
<svg version="1.1" xmlns="http://www.w3.org/2000/svg" width="40" height="40" viewBox="0 0 40 40">
<title>mt-settings_input_component</title>
<path fill="#91908d" d="M25.351 24.251v-2.1h6.4v2.1q0 1.051-0.6 1.851t-1.549 1.149v4.5h-2.151v-4.5q-2.1-0.751-2.1-3zM21.051 9.349v4.251h2.149v6.4h-6.4v-6.4h2.149v-4.251q0-0.449 0.3-0.775t0.751-0.325 0.751 0.325 0.3 0.775zM29.6 13.6h2.149v6.4h-6.4v-6.4h2.1v-4.251q0-0.449 0.325-0.775t0.775-0.325 0.751 0.325 0.3 0.775v4.251zM8.251 24.251v-2.1h6.4v2.1q0 2.251-2.1 3v4.5h-2.149v-4.5q-0.951-0.351-1.551-1.149t-0.6-1.851zM16.8 24.251v-2.1h6.4v2.1q0 1.051-0.6 1.851t-1.549 1.149v4.5h-2.1v-4.5q-0.949-0.351-1.549-1.149t-0.6-1.851zM12.551 9.349v4.251h2.1v6.4h-6.4v-6.4h2.151v-4.251q0-0.449 0.3-0.775t0.751-0.325 0.775 0.325 0.325 0.775z"></path>
</svg>
