<!-- Generated by IcoMoon.io -->
<svg version="1.1" xmlns="http://www.w3.org/2000/svg" width="40" height="40" viewBox="0 0 40 40">
<title>mt-sports_hockey</title>
<path fill="#91908d" d="M21.7 20.9l1.5 3.351h4.251v4.3l-5-0.051q-0.649 0-0.949-0.551l-1.5-3.3q-0.349-0.7-0.949-2.049t-0.751-1.7l-4.351-9.449h3.6l2.449 5.551q0.1-0.251 0.325-0.725t0.275-0.575l1.849-4.251h3.6zM29.6 24.251q0.449 0 0.751 0.325t0.3 0.775v3.2h-2.1v-4.3h1.051zM16.8 24.251l0.9-2.051 1.7 3.7-0.9 2.051q-0.3 0.551-0.949 0.551l-5 0.051v-4.3h4.251zM9.349 25.351q0-0.451 0.3-0.775t0.751-0.325h1.049v4.3h-2.1v-3.2z"></path>
</svg>
