<!-- Generated by IcoMoon.io -->
<svg version="1.1" xmlns="http://www.w3.org/2000/svg" width="40" height="40" viewBox="0 0 40 40">
<title>mt-subway</title>
<path fill="#91908d" d="M26.4 24.149v-7.349q0-1.9-1.649-2.549t-4.751-0.651q-2.949 0-4.675 0.651t-1.725 2.551v7.349q0 1.149 0.825 1.975t1.975 0.825l-1.2 1.2v0.4h1.8l1.6-1.6h3l1.6 1.6h1.6v-0.4l-1.2-1.2q1.151 0 1.975-0.825t0.825-1.975zM26.2 10.2q2.151 0.8 3.3 2.5t1.149 3.949v14h-21.3v-14q0-2.251 1.149-3.949t3.3-2.5q2.151-0.851 6.2-0.851t6.2 0.851zM14.7 16.8h10.651v5.349h-10.651v-5.349zM15.2 24.251q0-0.449 0.3-0.751t0.751-0.3 0.775 0.3 0.325 0.751-0.325 0.775-0.775 0.325-0.751-0.325-0.3-0.775zM22.649 24.251q0-0.449 0.325-0.751t0.775-0.3 0.751 0.3 0.3 0.751-0.3 0.775-0.751 0.325-0.775-0.325-0.325-0.775z"></path>
</svg>
