<!-- Generated by IcoMoon.io -->
<svg version="1.1" xmlns="http://www.w3.org/2000/svg" width="40" height="40" viewBox="0 0 40 40">
<title>mt-storefront</title>
<path fill="#91908d" d="M12.551 27.449h14.949v-6.4h-0.251q-1.5 0-2.4-1-1 1-2.4 1-1.351 0-2.449-1-1 1-2.351 1-1.5 0-2.5-1-0.9 1-2.349 1h-0.251v6.4zM11.5 17.2q-0.151 0.7 0.3 1.251 0.351 0.5 1 0.5 1.051 0 1.251-1.251l0.649-5.149h-2.1zM16.251 17.5q0 0.551 0.375 1t0.925 0.449q0.6 0 1-0.425t0.4-0.975v-5h-2.1l-0.6 4.8v0.149zM21.051 12.551v5q0 0.549 0.4 0.975t0.9 0.425q0.649 0 1.075-0.475t0.325-1.125l-0.6-4.8h-2.1zM27.351 12.5l-2.051 0.051 0.649 5.149q0.051 0.5 0.4 0.875t0.849 0.375q0.6 0 1-0.5 0.449-0.549 0.3-1.251zM30.551 16.7q0.4 1.751-0.651 3.051l-0.3 0.3v7.4q0 0.849-0.651 1.5t-1.5 0.651h-14.9q-0.849 0-1.5-0.651t-0.649-1.5v-7.4l-0.3-0.3q-1.051-1.3-0.651-3.051l1.1-4.7q0.151-0.7 0.751-1.149t1.3-0.451h14.8q0.7 0 1.275 0.451t0.775 1.149z"></path>
</svg>
