<!-- Generated by IcoMoon.io -->
<svg version="1.1" xmlns="http://www.w3.org/2000/svg" width="40" height="40" viewBox="0 0 40 40">
<title>mt-sports_mma</title>
<path fill="#91908d" d="M23.2 17.849v-3.2h-8.549v3.2h8.549zM26.4 14.651q0.451 0 0.751 0.325t0.3 0.775v2.949q0 0.3-0.051 0.451l-0.849 4.251q-0.2 0.851-1 0.851h-11.1q-0.851 0-1-0.851l-0.851-4.251q-0.051-0.151-0.051-0.451v-6.149q0-0.851 0.625-1.5t1.475-0.651h8.549q0.851 0 1.5 0.651t0.649 1.5v3.2q0-0.449 0.3-0.775t0.751-0.325zM14.651 28.551v-3.2h10.7v3.2q0 0.449-0.325 0.751t-0.775 0.3h-8.5q-0.451 0-0.775-0.3t-0.325-0.751z"></path>
</svg>
