<!-- Generated by IcoMoon.io -->
<svg version="1.1" xmlns="http://www.w3.org/2000/svg" width="40" height="40" viewBox="0 0 40 40">
<title>mt-tapas</title>
<path fill="#91908d" d="M30.649 17.849v-9.6h-8.5v9.6q0 1.5 0.9 2.625t2.3 1.525v7.6h-2.151v2.149h6.4v-2.149h-2.151v-7.6q1.4-0.4 2.3-1.525t0.9-2.625zM28.551 10.4v3.2h-4.3v-3.2h4.3zM20.551 19.449q0 1.1-0.8 1.9t-1.9 0.8h-2.1v9.6h-2.151v-9.6h-2.149q-1.1 0-1.875-0.8t-0.775-1.9 0.775-1.875 1.875-0.775h2.149v-1.051h-2.149q-1.1 0-1.875-0.8t-0.775-1.9 0.775-1.875 1.875-0.775h2.149v-2.151h2.151v2.151h2.1q1.1 0 1.9 0.775t0.8 1.875-0.8 1.9-1.9 0.8h-2.1v1.051h2.1q1.1 0 1.9 0.775t0.8 1.875z"></path>
</svg>
