<!-- Generated by IcoMoon.io -->
<svg version="1.1" xmlns="http://www.w3.org/2000/svg" width="40" height="40" viewBox="0 0 40 40">
<title>mt-tram</title>
<path fill="#91908d" d="M25.351 22.149v-5.349h-10.7v5.349h10.7zM20 26.949q0.7 0 1.149-0.475t0.451-1.125-0.451-1.125-1.151-0.475-1.149 0.475-0.451 1.125 0.451 1.125 1.149 0.475zM27.449 25.251q0 1.4-0.725 2.351t-2.025 0.949h0.1l1.6 1.6v0.5h-2.149l-2.1-2.1h-4.049l-2.1 2.1h-2.4v-0.5l1.7-1.7q-1.151-0.251-1.951-1.151t-0.8-2.049v-9q0-2.051 1.7-2.825t4.651-0.875l0.849-1.6h-5.1v-1.6h10.7v1.6h-3.5l-0.8 1.6q3.149 0.1 4.775 0.849t1.625 2.851v9z"></path>
</svg>
