<!-- Generated by IcoMoon.io -->
<svg version="1.1" xmlns="http://www.w3.org/2000/svg" width="40" height="40" viewBox="0 0 40 40">
<title>mt-traffic</title>
<path fill="#91908d" d="M20 16.8q0.9 0 1.525-0.625t0.625-1.525-0.625-1.5-1.525-0.6-1.525 0.6-0.625 1.5 0.625 1.525 1.525 0.625zM20 22.149q0.851-0.049 1.475-0.675t0.625-1.475-0.625-1.475-1.475-0.675h-0.051q-0.9 0-1.525 0.625t-0.625 1.525 0.625 1.525 1.525 0.625h0.051zM20 27.449q0.851-0.051 1.475-0.649t0.625-1.449-0.625-1.475-1.475-0.675h-0.051q-0.9 0-1.525 0.625t-0.625 1.525 0.625 1.5 1.525 0.6h0.051zM28.551 17.849q0 1.5-0.9 2.625t-2.3 1.525v1.2h3.2q0 1.5-0.9 2.6t-2.3 1.5v1.251q0 0.449-0.325 0.751t-0.775 0.3h-8.5q-0.451 0-0.775-0.3t-0.325-0.751v-1.251q-1.4-0.4-2.3-1.5t-0.9-2.6h3.2v-1.2q-1.4-0.4-2.3-1.525t-0.9-2.625h3.2v-1.2q-1.4-0.4-2.3-1.5t-0.9-2.6h3.2v-1.1q0-0.451 0.325-0.751t0.775-0.3h8.5q0.451 0 0.775 0.3t0.325 0.751v1.1h3.2q0 1.5-0.9 2.6t-2.3 1.5v1.2h3.2z"></path>
</svg>
