<!-- Generated by IcoMoon.io -->
<svg version="1.1" xmlns="http://www.w3.org/2000/svg" width="40" height="40" viewBox="0 0 40 40">
<title>mt-timer</title>
<path fill="#91908d" d="M20 28.551q3.1 0 5.275-2.2t2.175-5.3-2.175-5.275-5.275-2.175-5.275 2.175-2.175 5.275 2.175 5.3 5.275 2.2zM27.5 15.1q0.851 1.1 1.475 2.825t0.625 3.125q0 3.949-2.8 6.775t-6.8 2.825-6.8-2.825-2.8-6.775 2.8-6.775 6.8-2.825q1.351 0 3.125 0.649t2.875 1.5l1.5-1.551q0.8 0.651 1.5 1.5zM18.949 22.149v-6.4h2.1v6.4h-2.1zM23.2 8.251v2.151h-6.4v-2.151h6.4z"></path>
</svg>
