<!-- Generated by IcoMoon.io -->
<svg version="1.1" xmlns="http://www.w3.org/2000/svg" width="40" height="40" viewBox="0 0 40 40">
<title>mt-theater_comedy</title>
<path fill="#91908d" d="M27.449 15.8q0.449 0 0.775-0.3t0.325-0.751-0.325-0.751-0.775-0.3-0.751 0.3-0.3 0.751 0.3 0.751 0.751 0.3zM22.149 15.8q0.451 0 0.751-0.3t0.3-0.751-0.3-0.751-0.751-0.3-0.775 0.3-0.325 0.751 0.325 0.751 0.775 0.3zM18.949 10.4h11.7v6.951q0 2.451-1.7 4.149t-4.151 1.7q-1.351 0-2.649-0.649v-3.1h5.3q0-0.649-0.775-1.125t-1.875-0.475-1.875 0.475-0.775 1.125v-2.649h-3.2v-6.4zM12.551 21.051q-0.449 0-0.775 0.325t-0.325 0.775 0.325 0.751 0.775 0.3 0.751-0.3 0.3-0.751-0.3-0.775-0.751-0.325zM17.849 21.051q-0.449 0-0.751 0.325t-0.3 0.775 0.3 0.751 0.751 0.3 0.775-0.3 0.325-0.751-0.325-0.775-0.775-0.325zM15.2 26.949q1.1 0 1.875-0.475t0.775-1.125h-5.3q0 0.649 0.775 1.125t1.875 0.475zM9.349 24.8v-6.951h11.7v6.951q0 2.449-1.7 4.151t-4.151 1.7-4.151-1.7-1.7-4.149z"></path>
</svg>
