<!-- Generated by IcoMoon.io -->
<svg version="1.1" xmlns="http://www.w3.org/2000/svg" width="40" height="40" viewBox="0 0 40 40">
<title>mt-visibility_off</title>
<path fill="#91908d" d="M19.849 16.8h0.151q1.3 0 2.251 0.949t0.949 2.251v0.2zM15.251 17.651q-0.6 1.2-0.6 2.349 0 2.2 1.575 3.775t3.775 1.575q1.149 0 2.351-0.6l-1.649-1.649q-0.4 0.1-0.7 0.1-1.3 0-2.251-0.949t-0.951-2.251q0-0.3 0.1-0.7zM9.349 11.751l1.351-1.349 18.9 18.9-1.351 1.349q-0.251-0.251-1.575-1.549t-2.025-2q-2.149 0.9-4.651 0.9-3.951 0-7.149-2.2t-4.6-5.8q0.551-1.3 1.725-2.875t2.275-2.425q-0.6-0.6-1.675-1.7t-1.225-1.251zM20 14.651q-1 0-1.949 0.4l-2.3-2.3q1.949-0.751 4.251-0.751 3.949 0 7.125 2.2t4.575 5.8q-1.2 2.949-3.649 5.051l-3.1-3.1q0.4-0.949 0.4-1.949 0-2.2-1.575-3.775t-3.775-1.575z"></path>
</svg>
