<!-- Generated by IcoMoon.io -->
<svg version="1.1" xmlns="http://www.w3.org/2000/svg" width="40" height="40" viewBox="0 0 40 40">
<title>mt-vibration</title>
<path fill="#91908d" d="M24.251 27.449v-14.9h-8.5v14.9h8.5zM24.8 10.4q0.7 0 1.149 0.449t0.449 1.149v16q0 0.7-0.449 1.149t-1.149 0.451h-9.6q-0.7 0-1.149-0.451t-0.449-1.149v-16q0-0.7 0.449-1.151t1.149-0.449h9.6zM27.449 25.351v-10.7h2.151v10.7h-2.151zM30.649 16.8h2.151v6.4h-2.151v-6.4zM10.4 25.351v-10.7h2.149v10.7h-2.149zM7.2 23.2v-6.4h2.149v6.4h-2.149z"></path>
</svg>
