<!-- Generated by IcoMoon.io -->
<svg version="1.1" xmlns="http://www.w3.org/2000/svg" width="40" height="40" viewBox="0 0 40 40">
<title>mt-voice_over_off</title>
<path fill="#91908d" d="M28.6 9.349q3.1 3.251 3.1 7.525t-3.1 7.375l-1.751-1.7q2.2-2.551 2.2-5.825t-2.2-5.675zM25.1 12.9q1.6 1.751 1.6 3.951t-1.6 3.8l-1.8-1.8q0.7-0.951 0.7-2.075t-0.7-2.075zM11.751 10.4l17.851 17.849-1.351 1.351-3.149-3.151q0.1 0.251 0.175 0.5t0.075 0.5v2.151h-17.1v-2.151q0-1.9 2.925-3.075t5.625-1.175q0.549 0 1.225 0.075t1.449 0.225 1.5 0.349 1.425 0.5 1.251 0.651l-4.6-4.6q-1.049 0.649-2.251 0.649-1.751 0-3-1.251t-1.251-3q0-1.2 0.651-2.251l-2.8-2.8zM21.051 17l-4.451-4.449h0.2q1.751 0 3 1.251t1.251 3v0.2z"></path>
</svg>
