<!-- Generated by IcoMoon.io -->
<svg version="1.1" xmlns="http://www.w3.org/2000/svg" width="40" height="40" viewBox="0 0 40 40">
<title>mt-wb_auto</title>
<path fill="#91908d" d="M18.2 24.251h2l-3.4-9.6h-2.151l-3.4 9.6h2.049l0.751-2.1h3.4zM30.649 14.651h1.951l-2.2 9.6h-1.849l-1.6-6.5-1.6 6.5h-1.9l-0.1-0.449q-1.051 2.149-3.1 3.449t-4.5 1.3q-3.551 0-6.049-2.525t-2.5-6.025 2.5-6.025 6.049-2.525q4.1 0 6.649 3.2h0.8l1.3 6.751 1.6-6.751h1.7l1.6 6.751zM14.5 20.7l1.251-3.9 1.2 3.9h-2.449z"></path>
</svg>
