<!-- Generated by IcoMoon.io -->
<svg version="1.1" xmlns="http://www.w3.org/2000/svg" width="40" height="40" viewBox="0 0 40 40">
<title>mt-wifi_lock</title>
<path fill="#91908d" d="M30.649 24.251v-1.6q0-0.649-0.475-1.125t-1.125-0.475-1.125 0.475-0.475 1.125v1.6h3.2zM31.751 24.251q0.449 0 0.751 0.325t0.3 0.775v4.251q0 0.449-0.3 0.751t-0.751 0.3h-5.351q-0.449 0-0.751-0.3t-0.3-0.751v-4.251q0-0.451 0.3-0.775t0.751-0.325v-1.6q0-1.1 0.775-1.875t1.875-0.775 1.9 0.775 0.8 1.875v1.6zM29.051 17.349q-2.2 0-3.751 1.551t-1.551 3.749v3.049l-3.751 4.949-12.8-17.049q5.6-4.251 12.8-4.251t12.8 4.251l-2.851 3.8q-0.3-0.049-0.9-0.049z"></path>
</svg>
