<!-- Generated by IcoMoon.io -->
<svg version="1.1" xmlns="http://www.w3.org/2000/svg" width="40" height="40" viewBox="0 0 40 40">
<title>mt-whatshot</title>
<path fill="#91908d" d="M19.7 27.449q2.151 0 3.625-1.475t1.475-3.625q0-2.2-0.6-4.3-1.549 2.051-4.949 2.751-3 0.649-3 3.3 0 1.4 1 2.375t2.449 0.975zM21.6 7.9q3.2 2.6 5.075 6.325t1.875 7.925q0 3.5-2.5 6t-6.051 2.5-6.051-2.5-2.5-6q0-5.4 3.449-9.5v0.4q0 1.649 1.1 2.8t2.751 1.149q1.6 0 2.625-1.125t1.025-2.825q0-1-0.2-2.3t-0.4-2.051z"></path>
</svg>
