<!-- Generated by IcoMoon.io -->
<svg version="1.1" xmlns="http://www.w3.org/2000/svg" width="24" height="24" viewBox="0 0 24 24">
<title>online_prediction</title>
<path fill="#91908d" d="M14.813 11.587q0 0.6-0.3 1.144t-0.713 1.031-0.712 0.938-0.3 0.9h-1.575q0-0.45-0.3-0.9t-0.713-0.938-0.712-1.031-0.3-1.144q0-0.75 0.394-1.387t1.012-1.013 1.406-0.375 1.406 0.375 1.013 1.013 0.394 1.387zM12.788 16.388h-1.575v1.2h1.575v-1.2zM19.987 12q0-1.65-0.619-3.113t-1.706-2.55l-0.863 0.862q0.938 0.9 1.463 2.156t0.525 2.644-0.525 2.644-1.463 2.156l0.863 0.863q1.087-1.087 1.706-2.55t0.619-3.113zM5.213 12q0-1.387 0.525-2.644t1.462-2.156l-0.862-0.862q-1.088 1.087-1.706 2.55t-0.619 3.113 0.619 3.112 1.706 2.55l0.862-0.863q-0.938-0.9-1.462-2.156t-0.525-2.644zM16.388 12q0 0.9-0.338 1.706t-0.938 1.406l0.863 0.862q0.75-0.788 1.181-1.8t0.431-2.175-0.431-2.175-1.181-1.8l-0.863 0.863q0.6 0.6 0.938 1.406t0.338 1.706zM8.025 15.975l0.863-0.863q-0.6-0.6-0.938-1.406t-0.337-1.706 0.337-1.706 0.938-1.406l-0.863-0.863q-0.75 0.788-1.181 1.8t-0.431 2.175 0.431 2.175 1.181 1.8z"></path>
</svg>
