<!-- Generated by IcoMoon.io -->
<svg version="1.1" xmlns="http://www.w3.org/2000/svg" width="24" height="24" viewBox="0 0 24 24">
<title>outbox</title>
<path fill="#91908d" d="M17.587 4.8h-11.212q-0.637 0-1.106 0.469t-0.469 1.144v11.175q0 0.675 0.469 1.144t1.106 0.469h11.212q0.675 0 1.144-0.469t0.469-1.144v-11.175q0-0.675-0.469-1.144t-1.144-0.469zM17.587 14.4h-3.188q0 0.675-0.319 1.219t-0.862 0.863-1.219 0.319-1.219-0.319-0.863-0.863-0.319-1.219h-3.225v-7.987h11.212v7.987zM8.813 11.212h1.575v2.4h3.225v-2.4h1.575l-3.188-3.225z"></path>
</svg>
