<!-- Generated by IcoMoon.io -->
<svg version="1.1" xmlns="http://www.w3.org/2000/svg" width="24" height="24" viewBox="0 0 24 24">
<title>panorama_photosphere</title>
<path fill="#91908d" d="M20.4 9.225q0.413 0.225 0.413 0.637v4.275q0 0.45-0.413 0.675-0.375 0.188-1.125 0.487-0.825 1.838-2.325 3.019t-3.225 1.5-3.45 0-3.225-1.5-2.325-3.019q-0.375-0.15-1.125-0.525-0.413-0.188-0.413-0.637v-4.275q0-0.45 0.413-0.637 0.75-0.375 1.125-0.525 0.938-2.1 2.906-3.394t4.369-1.294 4.369 1.294 2.906 3.394q0.375 0.15 1.125 0.525zM12 5.438q-3.188 0-5.137 2.512 5.1-1.5 10.275 0-2.025-2.512-5.138-2.512zM12 18.563q1.313 0 2.813-0.731t2.325-1.781q-5.213 1.5-10.275 0 1.987 2.513 5.137 2.513zM19.538 13.8v-3.6q-7.575-3.563-15.075 0v3.6q0.037 0 0.112 0.037t0.113 0.038q2.925 1.462 7.313 1.462 2.85 0 4.837-0.6 1.875-0.525 2.7-0.938z"></path>
</svg>
