<!-- Generated by IcoMoon.io -->
<svg version="1.1" xmlns="http://www.w3.org/2000/svg" width="24" height="24" viewBox="0 0 24 24">
<title>party_mode</title>
<path fill="#91908d" d="M12 16.013q1.65 0 2.831-1.181t1.181-2.831q0-0.338-0.075-0.788h-1.688q0.15 0.525 0.15 0.788 0 0.975-0.713 1.688t-1.688 0.712h-3.188q1.238 1.613 3.188 1.613zM12 7.988q-1.65 0-2.831 1.181t-1.181 2.831q0 0.337 0.075 0.788h1.688q-0.15-0.525-0.15-0.788 0-0.975 0.712-1.688t1.688-0.712h3.188q-1.237-1.613-3.188-1.613zM18.413 5.588q0.637 0 1.106 0.487t0.469 1.125v9.6q0 0.638-0.469 1.125t-1.106 0.488h-12.825q-0.638 0-1.106-0.488t-0.469-1.125v-9.6q0-0.638 0.469-1.125t1.106-0.487h2.55l1.463-1.575h4.8l1.463 1.575h2.55z"></path>
</svg>
