<!-- Generated by IcoMoon.io -->
<svg version="1.1" xmlns="http://www.w3.org/2000/svg" width="24" height="24" viewBox="0 0 24 24">
<title>perm_phone_msg</title>
<path fill="#91908d" d="M12 4.8h7.2v5.588h-4.8l-2.4 2.4v-7.988zM18.413 14.813q0.337 0 0.563 0.225t0.225 0.563v2.813q0 0.337-0.225 0.563t-0.563 0.225q-5.625 0-9.619-3.994t-3.994-9.619q0-0.338 0.225-0.563t0.563-0.225h2.813q0.338 0 0.563 0.225t0.225 0.563v0.037q0 1.537 0.45 2.813 0.15 0.487-0.188 0.825l-1.762 1.762q0.75 1.425 2.306 2.981t2.981 2.306l1.763-1.763q0.263-0.262 0.563-0.262 0.112 0 0.263 0.075 1.35 0.45 2.85 0.45z"></path>
</svg>
