<!-- Generated by IcoMoon.io -->
<svg version="1.1" xmlns="http://www.w3.org/2000/svg" width="24" height="24" viewBox="0 0 24 24">
<title>perm_data_setting</title>
<path fill="#91908d" d="M17.587 18.788q0.488 0 0.844-0.356t0.356-0.844-0.356-0.844-0.844-0.356-0.844 0.356-0.356 0.844 0.356 0.844 0.844 0.356zM20.55 18l0.863 0.638q0.075 0.075 0.075 0.188l-0.037 0.037v0.038l-0.788 1.387q-0.113 0.188-0.262 0.113l-0.975-0.413q-0.113 0.113-0.675 0.375l-0.15 1.088q0 0.15-0.225 0.15h-1.575q-0.225 0-0.225-0.15l-0.15-1.088q-0.3-0.15-0.675-0.375l-0.975 0.413q-0.188 0.075-0.263-0.113l-0.788-1.387v-0.038l-0.037-0.037q0-0.113 0.075-0.188l0.862-0.638q0-0.075-0.019-0.225t-0.019-0.188 0.019-0.188 0.019-0.188l-0.862-0.675q-0.112-0.113-0.038-0.263l0.788-1.387q0.075-0.15 0.263-0.075l0.975 0.413q0.45-0.3 0.675-0.413l0.15-1.050q0-0.15 0.225-0.15h1.575q0.225 0 0.225 0.15l0.15 1.050q0.15 0.075 0.675 0.413l0.975-0.413q0.188-0.075 0.262 0.075l0.788 1.387v0.038q0.037 0.038 0.037 0.075 0 0.075-0.075 0.15l-0.863 0.675q0.038 0.113 0.038 0.375 0 0.075-0.019 0.225t-0.019 0.188zM17.587 11.587q-2.475 0-4.238 1.763t-1.762 4.238q0 0.3 0.075 0.825h-9.262l16.012-16.012-0.038 9.262q-0.525-0.075-0.787-0.075z"></path>
</svg>
