<!-- Generated by IcoMoon.io -->
<svg version="1.1" xmlns="http://www.w3.org/2000/svg" width="24" height="24" viewBox="0 0 24 24">
<title>person_outline</title>
<path fill="#91908d" d="M12 12.788q1.2 0 2.625 0.337t2.606 1.125 1.181 1.763v2.4h-12.825v-2.4q0-0.975 1.181-1.763t2.606-1.125 2.625-0.337zM12 5.588q1.313 0 2.25 0.956t0.938 2.269-0.938 2.25-2.25 0.938-2.25-0.938-0.938-2.25 0.938-2.269 2.25-0.956zM12 14.325q-1.65 0-3.262 0.619t-1.613 1.069v0.862h9.75v-0.862q0-0.45-1.612-1.069t-3.263-0.619zM12 7.125q-0.712 0-1.2 0.488t-0.488 1.2 0.488 1.181 1.2 0.469 1.2-0.469 0.487-1.181-0.487-1.2-1.2-0.488z"></path>
</svg>
