<!-- Generated by IcoMoon.io -->
<svg version="1.1" xmlns="http://www.w3.org/2000/svg" width="24" height="24" viewBox="0 0 24 24">
<title>person_add_disabled</title>
<path fill="#91908d" d="M7.2 10.387h0.713l-0.713-0.712v0.712zM11.512 13.987l-1.988-1.988h-2.325v2.4h-1.612v-2.4h-2.4v-1.613h2.4v-2.325l-3.188-3.188 0.975-1.050 16.8 16.725-1.050 1.050-3.188-3.188h-7.95v-1.613q0-0.937 1.012-1.669t2.512-1.144zM20.813 18.413h-0.75l-4.8-4.725q1.95 0.112 3.75 0.975t1.8 2.137v1.613zM11.212 8.813q0-1.313 0.938-2.269t2.25-0.956 2.25 0.956 0.938 2.269-0.938 2.25-2.25 0.938-2.25-0.938-0.938-2.25z"></path>
</svg>
