<!-- Generated by IcoMoon.io -->
<svg version="1.1" xmlns="http://www.w3.org/2000/svg" width="24" height="24" viewBox="0 0 24 24">
<title>pest_control</title>
<path fill="#91908d" d="M19.2 14.4v-1.612h-2.438q-0.075-0.488-0.188-0.9l2.063-1.2-0.788-1.388-1.913 1.088-0.375-0.525t-0.413-0.487q0-0.15 0.019-0.281t0.019-0.281q0-0.975-0.525-1.763l1.35-1.313-1.125-1.125-1.388 1.388q-0.675-0.375-1.256-0.394t-1.031 0.113-0.713 0.281l-1.387-1.388-1.125 1.125 1.35 1.313q-0.525 0.788-0.525 1.763 0 0.15 0.019 0.281t0.019 0.281q-0.45 0.487-0.788 1.012l-1.912-1.088-0.787 1.388 2.062 1.2q-0.113 0.412-0.188 0.9h-2.438v1.612h2.438q0.075 0.488 0.188 0.9l-2.063 1.2 0.788 1.388 1.913-1.088q0.637 1.088 1.669 1.744t2.269 0.656 2.269-0.656 1.669-1.744l1.913 1.088 0.788-1.388-2.063-1.163q0.112-0.45 0.188-0.938h2.438zM12.788 16.013h-1.575v-4.8h1.575v4.8z"></path>
</svg>
