<!-- Generated by IcoMoon.io -->
<svg version="1.1" xmlns="http://www.w3.org/2000/svg" width="24" height="24" viewBox="0 0 24 24">
<title>post_add</title>
<path fill="#91908d" d="M7.988 14.4h6.413v1.613h-6.413v-1.613zM7.988 12h6.413v1.612h-6.413v-1.613zM7.988 9.6h6.413v1.612h-6.413v-1.612zM17.587 4.012v2.4h2.4v1.575h-2.4v2.4h-1.575v-2.4h-2.4v-1.575h2.4v-2.4h1.575zM16.013 17.775v-5.775h1.575v5.587q0 0.638-0.469 1.125t-1.106 0.488h-9.6q-0.638 0-1.125-0.488t-0.487-1.125v-9.6q0-0.637 0.487-1.106t1.125-0.469h5.587v1.575h-5.587v9.787h9.6z"></path>
</svg>
