<!-- Generated by IcoMoon.io -->
<svg version="1.1" xmlns="http://www.w3.org/2000/svg" width="24" height="24" viewBox="0 0 24 24">
<title>qr_code_2</title>
<path fill="#91908d" d="M14.4 19.2h-1.612v-1.613h1.612v1.613zM12.788 13.612h-1.575v3.975h1.575v-3.975zM19.2 12h-1.613v3.188h1.613v-3.188zM17.587 10.387h-1.575v1.613h1.575v-1.613zM7.988 12h-1.575v1.612h1.575v-1.613zM6.413 10.387h-1.612v1.613h1.612v-1.613zM12 6.413h1.612v-1.612h-1.613v1.612zM6 6v2.4h2.4v-2.4h-2.4zM9.6 9.6h-4.8v-4.8h4.8v4.8zM6 15.6v2.4h2.4v-2.4h-2.4zM9.6 19.2h-4.8v-4.8h4.8v4.8zM15.6 6v2.4h2.4v-2.4h-2.4zM19.2 9.6h-4.8v-4.8h4.8v4.8zM17.587 17.587v-2.4h-3.188v1.612h1.613v2.4h3.188v-1.613h-1.613zM16.013 12h-3.225v1.612h3.225v-1.613zM12.788 10.387h-4.8v1.613h1.613v1.612h1.612v-1.613h1.575v-1.612zM13.612 9.6v-1.613h-1.613v-1.575h-1.612v3.188h3.225zM7.8 6.6h-1.2v1.2h1.2v-1.2zM7.8 16.2h-1.2v1.2h1.2v-1.2zM17.4 6.6h-1.2v1.2h1.2v-1.2z"></path>
</svg>
