<!-- Generated by IcoMoon.io -->
<svg version="1.1" xmlns="http://www.w3.org/2000/svg" width="24" height="24" viewBox="0 0 24 24">
<title>room_preferences</title>
<path fill="#91908d" d="M13.612 11.4v-4.2h2.4v3.188h1.575v-4.8h-3.975v-0.787h-7.2v12.787h-1.613v1.613h7.425q-0.488-0.675-0.75-1.481t-0.262-1.706q0-1.425 0.656-2.625t1.744-1.988zM10.387 11.212h1.613v1.575h-1.613v-1.575zM19.763 15.487l0.9-0.787-0.788-1.388-1.163 0.375q-0.375-0.3-0.862-0.487l-0.263-1.2h-1.575l-0.263 1.2q-0.487 0.188-0.862 0.487l-1.163-0.375-0.788 1.388 0.9 0.787q-0.075 0.487 0 1.013l-0.9 0.788 0.788 1.387 1.163-0.375q0.375 0.3 0.862 0.488l0.263 1.2h1.575l0.263-1.162q0.487-0.188 0.862-0.525l1.163 0.413 0.788-1.387-0.9-0.825q0.037-0.3 0.037-0.506t-0.037-0.506zM16.8 17.587q-0.675 0-1.144-0.469t-0.469-1.106q0-0.675 0.469-1.144t1.144-0.469 1.144 0.469 0.469 1.144q0 0.637-0.469 1.106t-1.144 0.469z"></path>
</svg>
