<!-- Generated by IcoMoon.io -->
<svg version="1.1" xmlns="http://www.w3.org/2000/svg" width="24" height="24" viewBox="0 0 24 24">
<title>rounded_corner</title>
<path fill="#91908d" d="M19.2 8.813v3.975h-1.613v-3.975q0-0.975-0.712-1.688t-1.688-0.712h-3.975v-1.612h3.975q1.65 0 2.831 1.181t1.181 2.831zM4.8 19.2v-1.613h1.612v1.613h-1.612zM7.988 19.2v-1.613h1.613v1.613h-1.613zM11.212 19.2v-1.613h1.575v1.613h-1.575zM7.988 6.413v-1.612h1.613v1.612h-1.613zM4.8 6.413v-1.612h1.612v1.612h-1.612zM4.8 9.6v-1.613h1.612v1.613h-1.612zM4.8 16.013v-1.613h1.612v1.613h-1.612zM4.8 12.788v-1.575h1.612v1.575h-1.612zM17.587 16.013v-1.613h1.613v1.613h-1.613zM17.587 17.587h1.613v1.613h-1.613v-1.613z"></path>
</svg>
