<!-- Generated by IcoMoon.io -->
<svg version="1.1" xmlns="http://www.w3.org/2000/svg" width="24" height="24" viewBox="0 0 24 24">
<title>rowing</title>
<path fill="#91908d" d="M19.2 19.2l-2.4 2.4-2.4-2.4v-1.2l-5.663-5.663q-0.262 0.038-0.75 0.038v-1.725q0.975 0.038 2.025-0.431t1.725-1.181l1.125-1.238q0.6-0.6 1.313-0.6h0.038q0.712 0 1.256 0.525t0.544 1.275v4.613q0 0.975-0.75 1.725l-2.85-2.85v-1.838q-0.75 0.638-1.838 1.125l5.025 5.025h1.2zM14.4 3.188q0.638 0 1.125 0.488t0.488 1.125-0.488 1.125-1.125 0.487-1.125-0.487-0.487-1.125 0.487-1.125 1.125-0.488zM9.188 13.987l2.025 2.025h-1.612l-2.813 2.775-1.2-1.2z"></path>
</svg>
