<!-- Generated by IcoMoon.io -->
<svg version="1.1" xmlns="http://www.w3.org/2000/svg" width="24" height="24" viewBox="0 0 24 24">
<title>search_off</title>
<path fill="#91908d" d="M14.813 13.612h-0.638l-0.225-0.225q0.6-0.675 0.919-1.556t0.319-1.819q0-1.088-0.394-2.025t-1.106-1.65-1.669-1.125-2.006-0.412q-1.388 0-2.531 0.637t-1.856 1.725-0.787 2.438h1.612q0.075-0.9 0.581-1.631t1.275-1.144 1.706-0.412q0.975 0 1.8 0.487t1.313 1.294 0.487 1.819q0 0.975-0.487 1.8t-1.313 1.313-1.8 0.487q-0.113 0-0.206-0.019t-0.206-0.019v1.612h0.412q0.938 0 1.819-0.319t1.556-0.919l0.225 0.225v0.638l3.975 3.975 1.2-1.2zM7.575 11.063l-1.987 1.987-1.95-1.988-0.6 0.563 1.987 1.988-1.988 1.95 0.6 0.6 1.95-1.988 1.987 1.988 0.563-0.6-1.987-1.95 1.987-1.988z"></path>
</svg>
