<!-- Generated by IcoMoon.io -->
<svg version="1.1" xmlns="http://www.w3.org/2000/svg" width="24" height="24" viewBox="0 0 24 24">
<title>settings_display</title>
<path fill="#91908d" d="M12 9.6v4.8q0.975 0 1.688-0.712t0.712-1.688-0.712-1.688-1.688-0.713zM8.813 15.188v-1.987l-1.2-1.2 1.2-1.2v-1.988h1.988l1.2-1.2 1.2 1.2h1.987v1.988l1.2 1.2-1.2 1.2v1.987h-1.987l-1.2 1.2-1.2-1.2h-1.988zM19.2 17.625v-11.25h-14.4v11.25h14.4zM19.2 4.8q0.637 0 1.125 0.487t0.487 1.125v11.175q0 0.637-0.487 1.125t-1.125 0.488h-14.4q-0.638 0-1.125-0.488t-0.488-1.125v-11.175q0-0.637 0.488-1.125t1.125-0.487h14.4z"></path>
</svg>
