<!-- Generated by IcoMoon.io -->
<svg version="1.1" xmlns="http://www.w3.org/2000/svg" width="24" height="24" viewBox="0 0 24 24">
<title>settings_voice</title>
<path fill="#91908d" d="M17.587 10.387q0 2.025-1.406 3.563t-3.394 1.838v2.625h-1.575v-2.625q-1.988-0.3-3.394-1.838t-1.406-3.563h1.35q0 1.763 1.256 2.925t2.981 1.163 2.981-1.163 1.256-2.925h1.35zM14.4 21.6v-1.613h1.613v1.613h-1.613zM11.212 21.6v-1.613h1.575v1.613h-1.575zM12 12.788q-0.975 0-1.688-0.713t-0.712-1.688v-4.8q0-0.975 0.712-1.687t1.688-0.712 1.688 0.712 0.712 1.687v4.8q0 0.975-0.712 1.688t-1.688 0.713zM7.988 21.6v-1.613h1.613v1.613h-1.613z"></path>
</svg>
