<!-- Generated by IcoMoon.io -->
<svg version="1.1" xmlns="http://www.w3.org/2000/svg" width="24" height="24" viewBox="0 0 24 24">
<title>sports_kabaddi</title>
<path fill="#91908d" d="M11.4 10.837q1.238 1.238 2.888 1.238l0.112 1.65q-2.325 0-4.050-1.65l-0.563-0.563-1.875 1.912 1.688 1.688v4.8h-1.613v-4.125l-1.012-0.938v1.762l-3.413 3.375-1.125-1.125 2.925-2.887-0.863-2.362q0-0.037-0.037-0.131t-0.056-0.169-0.019-0.15q-0.075-0.675 0.487-1.238l2.662-2.662q0.488-0.488 1.125-0.488 0.563 0 0.9 0.262 0.225 0.225 1.838 1.8zM11.212 9.113q-0.6-0.113-1.012-0.675t-0.262-1.2q0.113-0.863 0.975-1.2 0.225-0.075 0.337-0.075 0.075 0 0.15-0.037h0.113q0.075 0 0.169 0.019t0.131 0.019q0.375 0 0.825 0.45t0.469 1.088-0.469 1.162q-0.225 0.225-0.525 0.338-0.037 0-0.131 0.056t-0.169 0.056q-0.113 0.037-0.3 0.037-0.037 0-0.15-0.019t-0.15-0.019zM21.6 11.887h-1.613v-2.7l-1.425-0.563 0.712 3.563t0.825 4.163 0.713 3.563h-1.688l-1.463-6.413-1.65 1.612v4.8h-1.612v-6q0.675-0.638 1.688-1.612l-0.488-2.4q-0.675 0.75-1.688 1.313-1.125-0.112-1.987-0.975 1.875-0.338 2.7-1.838l0.825-1.312q0.75-1.2 2.1-0.638l4.050 1.688v3.75zM13.987 4.313q0-0.675 0.469-1.144t1.144-0.469 1.144 0.469 0.469 1.144-0.469 1.125-1.144 0.45-1.144-0.45-0.469-1.125z"></path>
</svg>
