<!-- Generated by IcoMoon.io -->
<svg version="1.1" xmlns="http://www.w3.org/2000/svg" width="24" height="24" viewBox="0 0 24 24">
<title>sports_golf</title>
<path fill="#91908d" d="M7.988 17.587v-1.575h8.025v1.575h-1.613q-0.638 0-1.125 0.488t-0.487 1.125v0.787h-1.575v-0.787q0-0.638-0.488-1.125t-1.125-0.488h-1.613zM11.212 7.2q0-0.337 0.225-0.563t0.563-0.225 0.563 0.225 0.225 0.563-0.225 0.563-0.563 0.225-0.563-0.225-0.225-0.563zM12.788 8.813q0-0.337 0.244-0.581t0.581-0.244 0.563 0.244 0.225 0.581-0.225 0.563-0.563 0.225-0.581-0.225-0.244-0.563zM9.6 8.813q0-0.337 0.225-0.581t0.563-0.244 0.581 0.244 0.244 0.581-0.244 0.563-0.581 0.225-0.563-0.225-0.225-0.563zM12 5.588q-1.65 0-2.831 1.181t-1.181 2.831 1.181 2.831 2.831 1.181 2.831-1.181 1.181-2.831-1.181-2.831-2.831-1.181zM12 15.188q-2.325 0-3.956-1.631t-1.631-3.956 1.631-3.956 3.956-1.631 3.956 1.631 1.631 3.956-1.631 3.956-3.956 1.631z"></path>
</svg>
