<!-- Generated by IcoMoon.io -->
<svg version="1.1" xmlns="http://www.w3.org/2000/svg" width="24" height="24" viewBox="0 0 24 24">
<title>storefront</title>
<path fill="#91908d" d="M6.413 17.587h11.212v-4.8h-0.188q-1.125 0-1.8-0.75-0.75 0.75-1.8 0.75-1.013 0-1.837-0.75-0.75 0.75-1.763 0.75-1.125 0-1.875-0.75-0.675 0.75-1.762 0.75h-0.188v4.8zM5.625 9.9q-0.113 0.525 0.225 0.938 0.263 0.375 0.75 0.375 0.788 0 0.938-0.938l0.487-3.862h-1.575zM9.188 10.125q0 0.413 0.281 0.75t0.694 0.337q0.45 0 0.75-0.319t0.3-0.731v-3.75h-1.575l-0.45 3.6v0.112zM12.788 6.413v3.75q0 0.412 0.3 0.731t0.675 0.319q0.487 0 0.806-0.356t0.244-0.844l-0.45-3.6h-1.575zM17.513 6.375l-1.538 0.038 0.487 3.862q0.038 0.375 0.3 0.656t0.637 0.281q0.45 0 0.75-0.375 0.337-0.412 0.225-0.938zM19.913 9.525q0.3 1.313-0.488 2.288l-0.225 0.225v5.55q0 0.637-0.488 1.125t-1.125 0.488h-11.175q-0.637 0-1.125-0.488t-0.487-1.125v-5.55l-0.225-0.225q-0.788-0.975-0.488-2.288l0.825-3.525q0.113-0.525 0.563-0.862t0.975-0.338h11.1q0.525 0 0.956 0.338t0.581 0.862z"></path>
</svg>
