<!-- Generated by IcoMoon.io -->
<svg version="1.1" xmlns="http://www.w3.org/2000/svg" width="24" height="24" viewBox="0 0 24 24">
<title>supervised_user_circle</title>
<path fill="#91908d" d="M12 18.413q1.987 0 3.619-1.144t2.344-2.944q-1.125-0.9-3.075-0.9-1.088 0-2.306 0.469t-1.219 1.219v3.262q0.225 0.038 0.638 0.038zM10.087 15.112q0-1.313 1.5-2.138-0.938-0.188-1.5-0.188-1.012 0-2.287 0.356t-1.838 0.994q0.525 1.425 1.612 2.475t2.513 1.5v-3zM10.087 7.8q-0.787 0-1.35 0.563t-0.563 1.35 0.563 1.331 1.35 0.544 1.331-0.544 0.544-1.331-0.544-1.35-1.331-0.563zM14.888 9.075q-0.638 0-1.088 0.45t-0.45 1.088 0.45 1.088 1.088 0.45 1.088-0.45 0.45-1.087-0.45-1.088-1.088-0.45zM12 4.012q3.3 0 5.644 2.344t2.344 5.644-2.344 5.644-5.644 2.344q-3.338 0-5.681-2.344t-2.344-5.644 2.344-5.644 5.681-2.344z"></path>
</svg>
