<!-- Generated by IcoMoon.io -->
<svg version="1.1" xmlns="http://www.w3.org/2000/svg" width="40" height="40" viewBox="0 0 40 40">
<title>th-clip</title>
<path fill="#91908d" d="M26.628 11.97v15.996h-1.882v-15.996c0-2.054-1.504-4.265-4.808-4.265-3.654 0-4.629 2.68-4.629 4.265v15.287h0.013v2.743c0 1.167 1.304 2.27 2.684 2.27 1.589 0 2.95-1.286 2.95-2.336v-0.508h-0.006l0.015-14.338c0-1.645-0.465-1.645-0.877-1.645-0.695 0-1.030 0.066-1.030 1.549v9.687h-1.882v-9.687c0-0.849 0-3.432 2.912-3.432 1.259 0 2.76 0.612 2.76 3.529l-0.013 12.104h0.004v2.743c0 2.208-2.304 4.218-4.832 4.218-2.432 0-4.567-1.941-4.567-4.152v-0.139h-0.013v-17.892c0-2.961 2.037-6.148 6.511-6.148 4.392 0.002 6.69 3.093 6.69 6.148z"></path>
</svg>
