<!-- Generated by IcoMoon.io -->
<svg version="1.1" xmlns="http://www.w3.org/2000/svg" width="40" height="40" viewBox="0 0 40 40">
<title>th-desktop</title>
<path fill="#91908d" d="M7.765 24.706h24.471v-15.059h-24.471v15.059zM9.647 11.529h20.706v11.294h-20.706v-11.294zM33.176 5.882h-26.353c-1.557 0-2.824 1.201-2.824 2.679v19.113c0 1.478 1.267 2.679 2.824 2.679h26.353c1.557 0 2.824-1.201 2.824-2.679v-19.113c0-1.478-1.267-2.679-2.824-2.679zM34.118 27.674c0 0.44-0.424 0.796-0.941 0.796h-26.353c-0.518 0-0.941-0.356-0.941-0.796v-19.113c0-0.44 0.424-0.796 0.941-0.796h26.353c0.518 0 0.941 0.356 0.941 0.796v19.113zM13.412 32.235h13.176v1.882h-13.176v-1.882z"></path>
</svg>
