<!-- Generated by IcoMoon.io -->
<svg version="1.1" xmlns="http://www.w3.org/2000/svg" width="40" height="40" viewBox="0 0 40 40">
<title>th-eraser</title>
<path fill="#91908d" d="M29.31 11.908l-9.781-5.649c-1.299-0.747-3.106-0.265-3.855 1.035l-11.294 19.563c-0.779 1.348-0.314 3.078 1.035 3.859l5.984 3.433 8.201-0.034 10.744-18.351c0.777-1.348 0.314-3.078-1.035-3.857zM18.519 32.237l-6.622 0.026-5.544-3.179c-0.45-0.262-0.604-0.836-0.344-1.288l5.176-8.968 11.345 6.551-4.011 6.857zM28.715 14.818l-5.235 8.941-11.354-6.556 5.176-8.968c0.168-0.29 0.482-0.471 0.817-0.471 0.166 0 0.324 0.041 0.469 0.124l9.781 5.647c0.45 0.262 0.604 0.838 0.346 1.282zM36 32.235v1.882h-13.176v-1.882h13.176z"></path>
</svg>
