<!-- Generated by IcoMoon.io -->
<svg version="1.1" xmlns="http://www.w3.org/2000/svg" width="40" height="40" viewBox="0 0 40 40">
<title>th-fullscreen</title>
<path fill="#91908d" d="M34.11 25.368l0.008 8.749-8.751-0.008 0.002-1.882 5.534 0.006-10.903-10.901-10.903 10.903 5.534-0.006 0.002 1.882-8.751 0.006 0.008-8.751 1.882 0.002-0.006 5.532 10.903-10.901-10.903-10.903 0.006 5.532-1.882 0.002-0.008-8.749 8.751 0.008-0.002 1.882-5.534-0.006 10.903 10.903 10.903-10.903-5.534 0.006-0.002-1.882 8.751-0.008-0.008 8.751-1.882-0.002 0.006-5.532-10.903 10.901 10.903 10.903-0.006-5.532 1.882-0.002z"></path>
</svg>
