<!-- Generated by IcoMoon.io -->
<svg version="1.1" xmlns="http://www.w3.org/2000/svg" width="40" height="40" viewBox="0 0 40 40">
<title>th-harddrive</title>
<path fill="#91908d" d="M30.605 9.64h-21.207l-5.399 8.233v12.488h32v-12.365l-5.395-8.356zM10.417 11.522h19.162l3.656 5.662h-26.53l3.712-5.662zM5.882 28.478v-9.412h28.235v9.412h-28.235zM29.412 20.949c-1.557 0-2.824 1.267-2.824 2.824s1.267 2.824 2.824 2.824 2.824-1.267 2.824-2.824-1.267-2.824-2.824-2.824zM29.412 24.713c-0.518 0-0.941-0.424-0.941-0.941s0.424-0.941 0.941-0.941 0.941 0.424 0.941 0.941-0.424 0.941-0.941 0.941z"></path>
</svg>
