<!-- Generated by IcoMoon.io -->
<svg version="1.1" xmlns="http://www.w3.org/2000/svg" width="40" height="40" viewBox="0 0 40 40">
<title>th-joomla</title>
<path fill="#91908d" d="M22.784 26.609l-2.961 2.98-0.587 0.587c-1.726 1.705-4.137 2.295-6.332 1.745-0.414 1.805-2.022 3.138-3.942 3.138-2.216 0-4.021-1.805-4.021-4.040 0-1.899 1.314-3.509 3.098-3.919-0.568-2.217 0.019-4.649 1.745-6.374l0.235-0.235 2.961 2.982-0.215 0.215c-0.981 0.96-0.96 2.528 0 3.507 0.96 0.962 2.53 0.962 3.49 0l0.589-0.587 2.961-2.982 3.157-3.136 2.961 2.982-3.14 3.138zM19.471 10.334l-2.98 2.978-0.237-0.235c-0.96-0.96-2.53-0.96-3.49 0-0.96 0.962-0.96 2.551 0 3.511l6.686 6.686-2.959 2.98-3.157-3.138-2.961-2.978-0.589-0.587c-1.805-1.784-2.353-4.354-1.668-6.648-1.803-0.392-3.136-1.999-3.136-3.921 0-2.236 1.805-4.040 4.021-4.040 2.020 0 3.667 1.47 3.979 3.373 2.176-0.51 4.55 0.1 6.255 1.783l0.235 0.237zM31.529 12.981c0.648 2.253 0.077 4.783-1.705 6.568l-0.235 0.235-2.961-2.982 0.235-0.233c0.96-0.962 0.96-2.532 0-3.492s-2.53-0.96-3.49 0l-6.707 6.709-2.98-2.982 3.157-3.138 2.98-2.978 0.568-0.589c1.784-1.783 4.333-2.353 6.609-1.685 0.273-1.963 1.96-3.473 4-3.473 2.216 0 4.021 1.805 4.021 4.040-0.002 2.039-1.53 3.725-3.492 4zM31.038 35.059c-1.96 0-3.588-1.391-3.96-3.236-2.274 0.704-4.883 0.158-6.686-1.647l-0.215-0.235 2.961-2.98 0.235 0.233c0.96 0.962 2.53 0.962 3.49 0 0.96-0.96 0.96-2.528 0-3.49l-0.587-0.589-6.12-6.116 2.98-2.982 6.118 6.12 0.57 0.587c1.705 1.705 2.313 4.119 1.764 6.313 1.961 0.275 3.471 1.943 3.471 3.979 0 2.236-1.803 4.041-4.021 4.041z"></path>
</svg>
