<!-- Generated by IcoMoon.io -->
<svg version="1.1" xmlns="http://www.w3.org/2000/svg" width="40" height="40" viewBox="0 0 40 40">
<title>th-layout-width-default-alt</title>
<path fill="#91908d" d="M7.765 34.118h1.882v1.882h-1.882v-1.882zM22.824 36h1.882v-1.882h-1.882v1.882zM26.588 36h1.882v-1.882h-1.882v1.882zM11.529 36h1.882v-1.882h-1.882v1.882zM15.294 36h1.882v-1.882h-1.882v1.882zM19.059 36h1.882v-1.882h-1.882v1.882zM30.353 36h1.882v-1.882h-1.882v1.882zM30.353 9.647h1.882v-1.882h-1.882v1.882zM30.353 13.412h1.882v-1.882h-1.882v1.882zM30.353 28.471h1.882v-1.882h-1.882v1.882zM30.353 17.176h1.882v-1.882h-1.882v1.882zM30.353 20.941h1.882v-1.882h-1.882v1.882zM30.353 32.235h1.882v-1.882h-1.882v1.882zM30.353 24.706h1.882v-1.882h-1.882v1.882zM30.353 4v1.882h1.882v-1.882h-1.882zM26.588 5.882h1.882v-1.882h-1.882v1.882zM15.294 5.882h1.882v-1.882h-1.882v1.882zM19.059 5.882h1.882v-1.882h-1.882v1.882zM22.824 5.882h1.882v-1.882h-1.882v1.882zM11.529 5.882h1.882v-1.882h-1.882v1.882zM7.765 5.882h1.882v-1.882h-1.882v1.882zM7.765 28.471h1.882v-1.882h-1.882v1.882zM7.765 32.235h1.882v-1.882h-1.882v1.882zM7.765 24.706h1.882v-1.882h-1.882v1.882zM7.765 9.647h1.882v-1.882h-1.882v1.882zM7.765 13.412h1.882v-1.882h-1.882v1.882zM7.765 17.176h1.882v-1.882h-1.882v1.882zM7.765 20.941h1.882v-1.882h-1.882v1.882z"></path>
</svg>
