<!-- Generated by IcoMoon.io -->
<svg version="1.1" xmlns="http://www.w3.org/2000/svg" width="40" height="40" viewBox="0 0 40 40">
<title>th-layout-grid2-thumb</title>
<path fill="#91908d" d="M4 7.765h5.647v5.647h-5.647v-5.647zM20.941 13.412h5.647v-5.647h-5.647v5.647zM4 28.471h5.647v-5.647h-5.647v5.647zM20.941 28.471h5.647v-5.647h-5.647v5.647zM11.529 9.647h7.529v-1.882h-7.529v1.882zM11.529 13.412h7.529v-1.882h-7.529v1.882zM28.471 7.765v1.882h7.529v-1.882h-7.529zM28.471 13.412h7.529v-1.882h-7.529v1.882zM17.176 15.292h-5.647v1.882h5.647v-1.882zM34.118 15.292h-5.647v1.882h5.647v-1.882zM11.529 24.706h7.529v-1.882h-7.529v1.882zM11.529 28.471h7.529v-1.882h-7.529v1.882zM28.471 24.706h7.529v-1.882h-7.529v1.882zM28.471 28.471h7.529v-1.882h-7.529v1.882zM11.529 32.233h5.647v-1.882h-5.647v1.882zM28.471 32.233h5.647v-1.882h-5.647v1.882z"></path>
</svg>
