<!-- Generated by IcoMoon.io -->
<svg version="1.1" xmlns="http://www.w3.org/2000/svg" width="40" height="40" viewBox="0 0 40 40">
<title>th-map-alt</title>
<path fill="#91908d" d="M32.235 11.529v0.13l-0.024-0.109-1.911 0.416c-0.262-3.394-3.076-6.084-6.536-6.084-3.465 0-6.285 2.701-6.539 6.103l-1.931-0.42v-0.036h-11.294v20.706h10.067l9.781 2.784 10.27-3.021v-20.469h-1.882zM23.765 7.765c2.596 0 4.706 2.112 4.706 4.706 0 3.4-3.236 7.923-4.706 9.801-1.47-1.879-4.706-6.402-4.706-9.801 0-2.594 2.11-4.706 4.706-4.706zM15.294 13.491l2.035 0.442c0.776 4.271 4.529 9.013 5.495 10.176v8.663l-7.529-2.144v-17.137zM5.882 13.412h7.529v16.973l-7.529-0.032v-16.941zM24.706 32.806v-8.698c0.968-1.165 4.73-5.92 5.498-10.195l2.031-0.44v17.118l-7.529 2.216zM26.321 12.627c0-1.41-1.146-2.556-2.556-2.556s-2.556 1.146-2.556 2.556 1.146 2.558 2.556 2.558 2.556-1.146 2.556-2.558zM23.091 12.627c0-0.373 0.303-0.674 0.674-0.674s0.674 0.303 0.674 0.674-0.303 0.676-0.674 0.676-0.674-0.303-0.674-0.676z"></path>
</svg>
