<!-- Generated by IcoMoon.io -->
<svg version="1.1" xmlns="http://www.w3.org/2000/svg" width="40" height="40" viewBox="0 0 40 40">
<title>th-mouse</title>
<path fill="#91908d" d="M20 4c-5.709 0-10.353 4.644-10.353 10.353v11.294c0 5.709 4.644 10.353 10.353 10.353s10.353-4.644 10.353-10.353v-11.294c0-5.709-4.644-10.353-10.353-10.353zM28.471 25.647c0 4.67-3.8 8.471-8.471 8.471s-8.471-3.8-8.471-8.471v-11.294c0-4.67 3.8-8.471 8.471-8.471s8.471 3.8 8.471 8.471v11.294zM20 10.588c-1.557 0-2.824 1.267-2.824 2.824v3.765c0 1.557 1.267 2.824 2.824 2.824s2.824-1.267 2.824-2.824v-3.765c0-1.557-1.267-2.824-2.824-2.824zM20.941 17.176c0 0.52-0.422 0.941-0.941 0.941s-0.941-0.422-0.941-0.941v-3.765c0-0.52 0.422-0.941 0.941-0.941s0.941 0.422 0.941 0.941v3.765z"></path>
</svg>
