<!-- Generated by IcoMoon.io -->
<svg version="1.1" xmlns="http://www.w3.org/2000/svg" width="40" height="40" viewBox="0 0 40 40">
<title>th-mouse-alt</title>
<path fill="#91908d" d="M20 4c-5.709 0-10.353 4.644-10.353 10.353v11.294c0 5.709 4.644 10.353 10.353 10.353s10.353-4.644 10.353-10.353v-11.294c0-5.709-4.644-10.353-10.353-10.353zM28.471 14.353v0.941h-7.529v-9.316c4.224 0.474 7.529 4.026 7.529 8.375zM19.059 5.978v9.316h-7.529v-0.941c0-4.348 3.305-7.9 7.529-8.375zM20 34.118c-4.67 0-8.471-3.8-8.471-8.471v-8.471h16.941v8.471c0 4.67-3.8 8.471-8.471 8.471z"></path>
</svg>
