<!-- Generated by IcoMoon.io -->
<svg version="1.1" xmlns="http://www.w3.org/2000/svg" width="40" height="40" viewBox="0 0 40 40">
<title>th-notepad</title>
<path fill="#91908d" d="M5.882 4v32h28.235v-32h-28.235zM32.235 34.118h-24.471v-28.235h3.765v2.056c-1.094 0.39-1.882 1.425-1.882 2.65 0 1.557 1.267 2.824 2.824 2.824s2.824-1.267 2.824-2.824c0-1.225-0.789-2.261-1.882-2.65v-2.056h5.647v2.056c-1.094 0.39-1.882 1.425-1.882 2.65 0 1.557 1.267 2.824 2.824 2.824s2.824-1.267 2.824-2.824c0-1.225-0.789-2.261-1.882-2.65v-2.056h5.647v2.056c-1.094 0.39-1.882 1.425-1.882 2.65 0 1.557 1.267 2.824 2.824 2.824s2.824-1.267 2.824-2.824c0-1.225-0.789-2.261-1.882-2.65v-2.056h3.765v28.235zM13.412 10.588c0 0.518-0.424 0.941-0.941 0.941s-0.941-0.424-0.941-0.941 0.424-0.941 0.941-0.941 0.941 0.424 0.941 0.941zM20.941 10.588c0 0.518-0.424 0.941-0.941 0.941s-0.941-0.424-0.941-0.941 0.424-0.941 0.941-0.941 0.941 0.424 0.941 0.941zM28.471 10.588c0 0.518-0.424 0.941-0.941 0.941s-0.941-0.424-0.941-0.941 0.424-0.941 0.941-0.941 0.941 0.424 0.941 0.941z"></path>
</svg>
