<!-- Generated by IcoMoon.io -->
<svg version="1.1" xmlns="http://www.w3.org/2000/svg" width="40" height="40" viewBox="0 0 40 40">
<title>th-plug</title>
<path fill="#91908d" d="M9.647 11.529v9.438c0 5.175 4.646 9.385 10.353 9.385s10.353-4.211 10.353-9.385v-9.438h-20.706zM28.471 20.968c0 4.137-3.8 7.503-8.471 7.503s-8.471-3.366-8.471-7.503v-7.556h16.941v7.556zM17.207 9.647h-1.882v-5.647h1.882v5.647zM24.676 9.647h-1.882v-5.647h1.882v5.647zM19.059 30.353h1.882v5.647h-1.882v-5.647zM24.706 19.059h-9.412v-1.882h9.412v1.882zM24.706 22.824h-9.412v-1.882h9.412v1.882z"></path>
</svg>
