<!-- Generated by IcoMoon.io -->
<svg version="1.1" xmlns="http://www.w3.org/2000/svg" width="40" height="40" viewBox="0 0 40 40">
<title>th-palette</title>
<path fill="#91908d" d="M20 4.941c-8.303 0-15.059 6.756-15.059 15.059 0 8.058 6.31 14.658 14.364 15.025l2.424 0.111-5.126-5.126c-0.533-0.533-0.826-1.242-0.826-1.997s0.294-1.463 0.826-1.997c1.065-1.065 2.927-1.065 3.992 0l7 7 0.64-0.42c4.273-2.797 6.822-7.507 6.822-12.597 0-8.303-6.756-15.059-15.059-15.059zM27.831 30.588l-5.901-5.901c-1.775-1.777-4.879-1.777-6.654 0-0.888 0.888-1.378 2.071-1.378 3.328s0.489 2.44 1.378 3.328l1.395 1.395c-5.696-1.474-9.847-6.626-9.847-12.738 0-7.266 5.911-13.176 13.176-13.176s13.176 5.911 13.176 13.176c0 4.198-1.984 8.104-5.346 10.588zM25.647 16.235c-2.076 0-3.765 1.688-3.765 3.765s1.688 3.765 3.765 3.765 3.765-1.688 3.765-3.765-1.688-3.765-3.765-3.765zM25.647 21.882c-1.037 0-1.882-0.845-1.882-1.882s0.845-1.882 1.882-1.882 1.882 0.845 1.882 1.882-0.845 1.882-1.882 1.882zM20 15.294c-1.559 0-2.824-1.263-2.824-2.824s1.265-2.824 2.824-2.824c1.56 0 2.824 1.263 2.824 2.824s-1.263 2.824-2.824 2.824zM14.824 15.089c0 1.039-0.843 1.882-1.882 1.882s-1.882-0.843-1.882-1.882 0.843-1.882 1.882-1.882 1.882 0.841 1.882 1.882z"></path>
</svg>
