<!-- Generated by IcoMoon.io -->
<svg version="1.1" xmlns="http://www.w3.org/2000/svg" width="40" height="40" viewBox="0 0 40 40">
<title>th-quote-left</title>
<path fill="#91908d" d="M28.789 18.332c-1.382 0-2.667 0.427-3.731 1.152 2.315-6.536 7.512-7.304 7.782-7.337l-0.232-1.867c-0.096 0.011-9.649 1.325-10.472 14.541l0.028 0.002c0 0.051-0.015 0.102-0.015 0.152 0 3.661 2.98 6.641 6.641 6.641s6.641-2.98 6.641-6.641-2.982-6.643-6.643-6.643zM28.789 29.734c-2.626 0-4.759-2.135-4.759-4.759s2.135-4.759 4.759-4.759 4.759 2.135 4.759 4.759-2.135 4.759-4.759 4.759zM11.027 18.332c-1.382 0-2.665 0.427-3.729 1.152 2.315-6.536 7.511-7.304 7.78-7.337l-0.232-1.867c-0.096 0.011-9.647 1.325-10.473 14.541l0.028 0.002c0 0.051-0.015 0.102-0.015 0.152 0 3.661 2.98 6.641 6.641 6.641s6.641-2.98 6.641-6.641-2.978-6.643-6.641-6.643zM11.027 29.734c-2.626 0-4.759-2.135-4.759-4.759s2.135-4.759 4.759-4.759 4.759 2.135 4.759 4.759-2.133 4.759-4.759 4.759z"></path>
</svg>
