<!-- Generated by IcoMoon.io -->
<svg version="1.1" xmlns="http://www.w3.org/2000/svg" width="40" height="40" viewBox="0 0 40 40">
<title>th-rocket</title>
<path fill="#91908d" d="M26.588 24.706c0-1.882 0-9.412 0-11.294 0-9.412-5.647-9.412-5.647-9.412s-5.647 0-5.647 9.412 0 3.765 0 11.294c0 0-3.765 0-3.765 11.294 0 0 4.478-4.471 8.117-5.449 0.008 1.096 0.584 1.978 1.295 1.978s1.288-0.885 1.295-1.978c3.639 0.979 8.117 5.449 8.117 5.449 0-11.294-3.765-11.294-3.765-11.294zM20.941 5.884c0.489 0.040 3.138 0.508 3.665 5.645h-7.33c0.527-5.137 3.176-5.606 3.665-5.645zM20.941 28.471c-2.392 0-5.161 1.634-7.298 3.232 0.495-3.992 1.617-4.949 1.869-5.114h1.664v-13.176h7.529v13.176h1.664c0.252 0.166 1.374 1.122 1.869 5.114-2.136-1.598-4.905-3.232-7.298-3.232z"></path>
</svg>
