<!-- Generated by IcoMoon.io -->
<svg version="1.1" xmlns="http://www.w3.org/2000/svg" width="40" height="40" viewBox="0 0 40 40">
<title>th-server</title>
<path fill="#91908d" d="M36 10.588c0-4.279-8.245-6.588-16-6.588s-16 2.31-16 6.588c0 0.28 0.045 0.599 0.151 0.941h-0.151v17.882c0 4.279 8.245 6.588 16 6.588s16-2.31 16-6.588v-17.882h-0.151c0.105-0.343 0.151-0.661 0.151-0.941zM20 5.882c8.081 0 14.118 2.485 14.118 4.706 0 0.749-0.73 1.572-2.057 2.313-2.671 1.498-7.179 2.392-12.060 2.392s-9.389-0.894-12.060-2.392c-1.327-0.742-2.057-1.564-2.057-2.313 0-2.221 6.037-4.706 14.118-4.706zM20 34.118c-8.081 0-14.118-2.485-14.118-4.706v-3.074c0.329 0.254 0.691 0.51 1.137 0.759 2.94 1.645 7.793 2.628 12.981 2.628 0.649 0 1.293-0.015 1.926-0.045 4.444-0.209 8.48-1.143 11.053-2.583v0c0-0.002 0.002-0.002 0.002-0.002 0.444-0.25 0.809-0.504 1.137-0.759v3.076c0 2.221-6.037 4.706-14.118 4.706zM32.060 25.453c-2.673 1.496-7.179 2.391-12.060 2.391-0.61 0-1.216-0.015-1.811-0.041-4.168-0.192-7.912-1.039-10.249-2.347v0c-1.325-0.745-2.057-1.568-2.057-2.317v-3.076c0.329 0.254 0.693 0.51 1.139 0.759 2.938 1.645 7.791 2.628 12.979 2.628s10.040-0.983 12.979-2.628c0.446-0.248 0.809-0.504 1.139-0.759v3.076c0 0.749-0.732 1.572-2.057 2.315zM32.058 19.177c-2.671 1.496-7.177 2.391-12.058 2.391s-9.387-0.894-12.058-2.391c-1.327-0.742-2.059-1.566-2.059-2.315v-3.076c0.329 0.256 0.691 0.51 1.137 0.76 2.94 1.647 7.791 2.63 12.981 2.63s10.040-0.983 12.981-2.63c0.446-0.25 0.808-0.504 1.137-0.76v3.076c0 0.749-0.732 1.574-2.059 2.315z"></path>
</svg>
