<!-- Generated by IcoMoon.io -->
<svg version="1.1" xmlns="http://www.w3.org/2000/svg" width="40" height="40" viewBox="0 0 40 40">
<title>th-save-alt</title>
<path fill="#91908d" d="M33.176 4h-23.838l-5.338 5.225v23.951c0 1.557 1.267 2.824 2.824 2.824h26.353c1.557 0 2.824-1.267 2.824-2.824v-26.353c0-1.557-1.267-2.824-2.824-2.824zM28.471 5.882v3.765h-15.059v-3.765h15.059zM9.647 34.118v-1.882h20.706v1.882h-20.706zM34.118 33.176c0 0.518-0.422 0.941-0.941 0.941h-0.941v-3.765h-24.471v3.765h-0.941c-0.52 0-0.941-0.424-0.941-0.941v-23.16l4.224-4.134h1.423v5.647h18.824v-5.647h2.824c0.52 0 0.941 0.424 0.941 0.941v26.353zM20 13.412c-3.633 0-6.588 2.955-6.588 6.588s2.955 6.588 6.588 6.588 6.588-2.955 6.588-6.588-2.955-6.588-6.588-6.588zM20 24.706c-2.594 0-4.706-2.11-4.706-4.706s2.112-4.706 4.706-4.706 4.706 2.11 4.706 4.706-2.112 4.706-4.706 4.706z"></path>
</svg>
