<!-- Generated by IcoMoon.io -->
<svg version="1.1" xmlns="http://www.w3.org/2000/svg" width="40" height="40" viewBox="0 0 40 40">
<title>th-save</title>
<path fill="#91908d" d="M30.662 4h-23.838c-1.557 0-2.824 1.267-2.824 2.824v26.353c0 1.557 1.267 2.824 2.824 2.824h26.353c1.557 0 2.824-1.267 2.824-2.824v-23.951l-5.338-5.225zM19.059 5.882v7.529h5.647v-7.529h1.882v9.412h-15.059v-9.412h7.529zM9.647 34.118v-11.294h20.706v11.294h-20.706zM34.118 33.176c0 0.518-0.424 0.941-0.941 0.941h-0.941v-13.176h-24.471v13.176h-0.941c-0.52 0-0.941-0.424-0.941-0.941v-26.353c0-0.518 0.422-0.941 0.941-0.941h2.824v11.294h18.824v-11.294h1.423l4.224 4.134v23.16z"></path>
</svg>
