<!-- Generated by IcoMoon.io -->
<svg version="1.1" xmlns="http://www.w3.org/2000/svg" width="40" height="40" viewBox="0 0 40 40">
<title>th-shopping-cart</title>
<path fill="#91908d" d="M9.176 27.529c-1.816 0-3.294 1.478-3.294 3.294s1.478 3.294 3.294 3.294 3.294-1.478 3.294-3.294-1.478-3.294-3.294-3.294zM9.176 32.235c-0.779 0-1.412-0.634-1.412-1.412s0.632-1.412 1.412-1.412 1.412 0.634 1.412 1.412-0.632 1.412-1.412 1.412zM25.176 27.529c-1.816 0-3.294 1.478-3.294 3.294s1.478 3.294 3.294 3.294 3.294-1.478 3.294-3.294-1.478-3.294-3.294-3.294zM25.176 32.235c-0.779 0-1.412-0.634-1.412-1.412s0.632-1.412 1.412-1.412 1.412 0.634 1.412 1.412-0.632 1.412-1.412 1.412zM29.169 7.765l-0.568 3.765h-24.74l2.104 15.127h22.424l1.954-14.048 0.444-2.961h5.212v-1.882h-6.831zM28.331 13.412l-0.262 1.882h-21.786l-0.262-1.882h22.31zM7.603 24.774l-1.056-7.597h21.261l-1.056 7.597h-19.149z"></path>
</svg>
