<!-- Generated by IcoMoon.io -->
<svg version="1.1" xmlns="http://www.w3.org/2000/svg" width="40" height="40" viewBox="0 0 40 40">
<title>th-sharethis-alt</title>
<path fill="#91908d" d="M35.059 29.412c0 3.117-2.53 5.647-5.647 5.647h-18.824c-3.117 0-5.647-2.53-5.647-5.647v-18.824c0-3.117 2.53-5.647 5.647-5.647h18.824c3.117 0 5.647 2.53 5.647 5.647v18.824zM25.862 21.668c-1.097 0-2.097 0.431-2.842 1.137l-4.725-2.353c0.019-0.158 0.038-0.294 0.038-0.452s-0.019-0.294-0.040-0.452l4.725-2.351c0.745 0.706 1.745 1.137 2.842 1.137 2.295 0 4.177-1.88 4.177-4.196 0-2.295-1.882-4.177-4.177-4.177-2.313 0-4.196 1.882-4.196 4.177 0 0.156 0.019 0.294 0.040 0.45l-4.725 2.353c-0.744-0.687-1.743-1.118-2.84-1.118-2.295 0-4.177 1.862-4.177 4.177s1.882 4.177 4.177 4.177c1.097 0 2.097-0.431 2.842-1.118l4.725 2.353c-0.021 0.156-0.040 0.294-0.040 0.45 0 2.295 1.882 4.177 4.196 4.177 2.295 0 4.177-1.882 4.177-4.177 0-2.313-1.882-4.194-4.177-4.194z"></path>
</svg>
