<!-- Generated by IcoMoon.io -->
<svg version="1.1" xmlns="http://www.w3.org/2000/svg" width="40" height="40" viewBox="0 0 40 40">
<title>th-tablet</title>
<path fill="#91908d" d="M21.412 31.294c0 0.781-0.631 1.412-1.412 1.412s-1.412-0.631-1.412-1.412 0.631-1.412 1.412-1.412 1.412 0.631 1.412 1.412zM34.118 6.824v26.353c0 1.557-1.176 2.824-2.62 2.824h-22.995c-1.444 0-2.62-1.267-2.62-2.824v-26.353c0-1.557 1.176-2.824 2.62-2.824h22.997c1.442 0 2.618 1.267 2.618 2.824zM32.235 6.824c0-0.51-0.337-0.941-0.738-0.941h-22.995c-0.401 0-0.738 0.431-0.738 0.941v26.353c0 0.51 0.337 0.941 0.738 0.941h22.997c0.399 0 0.736-0.431 0.736-0.941v-26.353zM9.647 7.765h20.706v20.706h-20.706v-20.706zM11.529 26.588h16.941v-16.941h-16.941v16.941z"></path>
</svg>
