<!-- Generated by IcoMoon.io -->
<svg version="1.1" xmlns="http://www.w3.org/2000/svg" width="40" height="40" viewBox="0 0 40 40">
<title>th-vector</title>
<path fill="#91908d" d="M32.122 15.294c-1.943-1.218-4.168-1.882-6.475-1.882-1.464 0-2.878 0.271-4.215 0.76l4.836-4.836c0.382 0.192 0.806 0.311 1.261 0.311 1.557 0 2.824-1.267 2.824-2.824s-1.267-2.824-2.824-2.824-2.824 1.267-2.824 2.824c0 0.414 0.094 0.806 0.256 1.16l-7.36 7.358c-0.152-0.026-0.309-0.047-0.471-0.047-1.557 0-2.824 1.267-2.824 2.824 0 0.16 0.021 0.316 0.047 0.471l-6.374 6.374c-0.354-0.162-0.744-0.256-1.158-0.256-1.557 0-2.824 1.267-2.824 2.824s1.267 2.824 2.824 2.824 2.824-1.267 2.824-2.824c0-0.456-0.119-0.879-0.311-1.259l4.838-4.838c-0.493 1.346-0.762 2.773-0.762 4.215 0 2.765 1.152 5.148 1.882 6.383v3.97h5.647v-5.647h-4.397c-0.787-1.555-1.25-3.224-1.25-4.706 0-1.67 0.414-3.32 1.182-4.791 0.213 0.051 0.429 0.085 0.655 0.085 1.557 0 2.824-1.267 2.824-2.824 0-0.339-0.070-0.659-0.179-0.96 3.095-2.129 7.241-2.387 10.577-0.702v4.486h5.647v-5.647h-3.878zM27.529 5.882c0.52 0 0.941 0.422 0.941 0.941s-0.422 0.941-0.941 0.941-0.941-0.422-0.941-0.941 0.422-0.941 0.941-0.941zM6.824 28.471c-0.52 0-0.941-0.422-0.941-0.941s0.422-0.941 0.941-0.941 0.941 0.422 0.941 0.941-0.422 0.941-0.941 0.941zM17.176 32.235h1.882v1.882h-1.882v-1.882zM17.131 19.059c-0.52 0-0.941-0.422-0.941-0.941s0.422-0.941 0.941-0.941 0.941 0.422 0.941 0.941-0.422 0.941-0.941 0.941zM34.118 19.059h-1.882v-1.882h1.882v1.882z"></path>
</svg>
