<!-- Generated by IcoMoon.io -->
<svg version="1.1" xmlns="http://www.w3.org/2000/svg" width="40" height="40" viewBox="0 0 40 40">
<title>th-widgetized</title>
<path fill="#91908d" d="M7.765 4h1.882v1.882h-1.882v-1.882zM11.529 5.882h1.882v-1.882h-1.882v1.882zM15.294 5.882h1.882v-1.882h-1.882v1.882zM19.059 5.882h1.882v-1.882h-1.882v1.882zM22.824 5.882h1.882v-1.882h-1.882v1.882zM26.588 5.882h1.882v-1.882h-1.882v1.882zM30.353 5.882h1.882v-1.882h-1.882v1.882zM7.765 20.941h1.882v-1.882h-1.882v1.882zM11.529 20.941h1.882v-1.882h-1.882v1.882zM15.294 20.941h1.882v-1.882h-1.882v1.882zM22.824 20.941h1.882v-1.882h-1.882v1.882zM26.588 20.941h1.882v-1.882h-1.882v1.882zM30.353 20.941h1.882v-1.882h-1.882v1.882zM7.765 36h1.882v-1.882h-1.882v1.882zM11.529 36h1.882v-1.882h-1.882v1.882zM15.294 36h1.882v-1.882h-1.882v1.882zM19.059 36h1.882v-1.882h-1.882v1.882zM22.824 36h1.882v-1.882h-1.882v1.882zM26.588 36h1.882v-1.882h-1.882v1.882zM30.353 36h1.882v-1.882h-1.882v1.882zM34.118 4v1.882h1.882v-1.882h-1.882zM34.118 9.647h1.882v-1.882h-1.882v1.882zM34.118 13.412h1.882v-1.882h-1.882v1.882zM34.118 17.176h1.882v-1.882h-1.882v1.882zM34.118 20.941h1.882v-1.882h-1.882v1.882zM34.118 24.706h1.882v-1.882h-1.882v1.882zM34.118 28.471h1.882v-1.882h-1.882v1.882zM34.118 32.235h1.882v-1.882h-1.882v1.882zM19.059 9.647h1.882v-1.882h-1.882v1.882zM19.059 13.412h1.882v-1.882h-1.882v1.882zM19.059 17.176h1.882v-1.882h-1.882v1.882zM19.059 20.941h1.882v-1.882h-1.882v1.882zM19.059 24.706h1.882v-1.882h-1.882v1.882zM19.059 28.471h1.882v-1.882h-1.882v1.882zM19.059 32.235h1.882v-1.882h-1.882v1.882zM34.118 36h1.882v-1.882h-1.882v1.882zM4 5.882h1.882v-1.882h-1.882v1.882zM4 9.647h1.882v-1.882h-1.882v1.882zM4 13.412h1.882v-1.882h-1.882v1.882zM4 17.176h1.882v-1.882h-1.882v1.882zM4 20.941h1.882v-1.882h-1.882v1.882zM4 24.706h1.882v-1.882h-1.882v1.882zM4 28.471h1.882v-1.882h-1.882v1.882zM4 32.235h1.882v-1.882h-1.882v1.882zM4 36h1.882v-1.882h-1.882v1.882z"></path>
</svg>
