<!-- Generated by IcoMoon.io -->
<svg version="1.1" xmlns="http://www.w3.org/2000/svg" width="40" height="40" viewBox="0 0 40 40">
<title>th-world</title>
<path fill="#91908d" d="M20.030 4c-8.823 0-16 7.177-16 16s7.177 16 16 16 16-7.177 16-16-7.179-16-16-16zM5.96 20.941h5.528c0.083 1.928 0.397 3.823 0.966 5.647h-4.9c-0.905-1.705-1.461-3.62-1.594-5.647zM11.488 19.059h-5.528c0.134-2.027 0.689-3.942 1.594-5.647h4.894c-0.567 1.824-0.879 3.72-0.96 5.647zM14.441 13.412h11.098c0.621 1.816 0.983 3.712 1.071 5.647h-13.24c0.087-1.935 0.45-3.831 1.071-5.647zM13.37 20.941h13.242c-0.092 1.935-0.454 3.831-1.077 5.647h-11.089c-0.623-1.816-0.986-3.712-1.077-5.647zM28.495 20.941h5.606c-0.134 2.027-0.689 3.942-1.594 5.647h-4.977c0.568-1.824 0.883-3.72 0.966-5.647zM28.495 19.059c-0.081-1.928-0.393-3.823-0.96-5.647h4.971c0.904 1.705 1.459 3.62 1.594 5.647h-5.606zM31.298 11.529h-4.431c-0.738-1.798-1.724-3.497-2.918-5.082 2.97 0.86 5.53 2.673 7.349 5.082zM21.080 5.935c1.551 1.688 2.793 3.576 3.712 5.594h-9.604c0.917-2.016 2.157-3.902 3.708-5.591 0.375-0.028 0.749-0.056 1.133-0.056 0.354 0 0.702 0.028 1.050 0.053zM16.015 6.472c-1.184 1.577-2.167 3.27-2.899 5.058h-4.356c1.798-2.385 4.324-4.186 7.255-5.058zM8.76 28.471h4.361c0.736 1.79 1.722 3.484 2.912 5.062-2.938-0.868-5.472-2.671-7.273-5.062zM18.92 34.061c-1.555-1.688-2.801-3.575-3.723-5.591h9.589c-0.922 2.018-2.168 3.906-3.725 5.594-0.341 0.024-0.683 0.053-1.030 0.053-0.376 0-0.744-0.028-1.111-0.056zM23.928 33.559c1.197-1.585 2.191-3.288 2.931-5.088h4.439c-1.822 2.415-4.39 4.23-7.369 5.088z"></path>
</svg>
