<!-- Generated by IcoMoon.io -->
<svg version="1.1" xmlns="http://www.w3.org/2000/svg" width="24" height="24" viewBox="0 0 24 24">
<title>timer_10</title>
<path fill="#91908d" d="M12.712 12.975v-2.025q0-1.35-0.375-1.988-0.262-0.563-1.125-0.563-0.375 0-0.675 0.113-0.863 0.525-0.863 2.475v1.988q0 0.9 0.075 1.237 0.038 0.188 0.338 0.788t1.125 0.6 1.125-0.6q0.225-0.45 0.3-0.788t0.075-1.237zM8.1 11.212q0-4.087 3.112-4.087 1.537 0 2.25 0.9 0.825 1.050 0.825 3.188v1.538q0 4.125-3.075 4.125-3.113 0-3.113-4.125v-1.538zM18.75 10.762q-1.125 0-1.125 0.863 0 0.525 0.712 0.75 0.225 0.075 0.712 0.188 0.338 0.075 1.050 0.3 0.3 0.112 0.825 0.45 0.3 0.188 0.488 0.6 0.188 0.375 0.188 0.787 0 1.388-1.65 1.95-0.45 0.15-1.125 0.15-2.138 0-2.775-1.462-0.187-0.45-0.187-0.825h1.537q0 0.525 0.413 0.825t1.013 0.3q1.237 0 1.237-0.862 0-0.225-0.112-0.394t-0.225-0.225-0.375-0.169-0.919-0.281-0.881-0.244q-0.3-0.112-0.75-0.413-0.712-0.487-0.712-1.35 0-1.425 1.575-1.95 0.45-0.15 1.087-0.15 1.313 0 2.063 0.637 0.75 0.6 0.75 1.575h-1.575q0-0.788-0.675-0.938-0.45-0.113-0.563-0.113zM2.4 8.587l3.787-1.387h0.225v9.6h-1.612v-7.687l-2.4 0.825v-1.35z"></path>
</svg>
