<!-- Generated by IcoMoon.io -->
<svg version="1.1" xmlns="http://www.w3.org/2000/svg" width="24" height="24" viewBox="0 0 24 24">
<title>traffic</title>
<path fill="#91908d" d="M12 9.6q0.675 0 1.144-0.469t0.469-1.144-0.469-1.125-1.144-0.45-1.144 0.45-0.469 1.125 0.469 1.144 1.144 0.469zM12 13.612q0.638-0.037 1.106-0.506t0.469-1.106-0.469-1.106-1.106-0.506h-0.038q-0.675 0-1.144 0.469t-0.469 1.144 0.469 1.144 1.144 0.469h0.038zM12 17.587q0.638-0.038 1.106-0.487t0.469-1.087-0.469-1.106-1.106-0.506h-0.038q-0.675 0-1.144 0.469t-0.469 1.144 0.469 1.125 1.144 0.45h0.038zM18.413 10.387q0 1.125-0.675 1.969t-1.725 1.144v0.9h2.4q0 1.125-0.675 1.95t-1.725 1.125v0.938q0 0.337-0.244 0.563t-0.581 0.225h-6.375q-0.338 0-0.581-0.225t-0.244-0.563v-0.938q-1.050-0.3-1.725-1.125t-0.675-1.95h2.4v-0.9q-1.050-0.3-1.725-1.144t-0.675-1.969h2.4v-0.9q-1.050-0.3-1.725-1.125t-0.675-1.95h2.4v-0.825q0-0.338 0.244-0.563t0.581-0.225h6.375q0.338 0 0.581 0.225t0.244 0.563v0.825h2.4q0 1.125-0.675 1.95t-1.725 1.125v0.9h2.4z"></path>
</svg>
