<!-- Generated by IcoMoon.io -->
<svg version="1.1" xmlns="http://www.w3.org/2000/svg" width="40" height="40" viewBox="0 0 40 40">
<title>ul-at</title>
<path fill="#91908d" d="M20 9.334c0 0 0 0-0.001 0-5.891 0-10.666 4.776-10.666 10.666s4.776 10.666 10.666 10.666c1.964 0 3.804-0.53 5.384-1.457l-0.050 0.027c0.342-0.182 0.572-0.537 0.572-0.945 0-0.589-0.478-1.066-1.066-1.066-0.212 0-0.41 0.062-0.577 0.169l0.004-0.002c-1.224 0.718-2.696 1.143-4.266 1.143-4.713 0-8.534-3.821-8.534-8.534s3.821-8.534 8.534-8.534c4.712 0 8.532 3.819 8.534 8.531v0.8c0 1.031-0.836 1.866-1.866 1.866s-1.866-0.836-1.866-1.866v0-4.534c0-0.589-0.478-1.066-1.066-1.066v0c-0.007 0-0.015 0-0.024 0-0.51 0-0.936 0.358-1.042 0.836l-0.002 0.007c-0.745-0.521-1.669-0.835-2.665-0.842h-0.002c-0.017 0-0.038 0-0.058 0-2.651 0-4.8 2.149-4.8 4.8s2.149 4.8 4.8 4.8c1.419 0 2.694-0.616 3.574-1.595l0.004-0.005c0.737 0.947 1.877 1.551 3.158 1.551 2.19 0 3.967-1.764 3.989-3.949v-0.802c0-5.891-4.776-10.666-10.666-10.666v0zM20 22.666c-1.473 0-2.666-1.194-2.666-2.666s1.194-2.666 2.666-2.666c1.473 0 2.666 1.194 2.666 2.666v0c0 1.473-1.194 2.666-2.666 2.666v0z"></path>
</svg>
