<!-- Generated by IcoMoon.io -->
<svg version="1.1" xmlns="http://www.w3.org/2000/svg" width="40" height="40" viewBox="0 0 40 40">
<title>ul-adjust-alt</title>
<path fill="#91908d" d="M29.418 15.008v0c0.002-0.013 0.004-0.027 0.004-0.042s-0.002-0.030-0.005-0.044v0.002c-0.876-1.599-2.094-2.91-3.564-3.868l-0.041-0.025c-1.619-1.063-3.604-1.696-5.737-1.696-0.027 0-0.054 0-0.081 0h0.004c-0.589 0-1.066 0.478-1.066 1.066v0 19.2c0 0.589 0.478 1.066 1.066 1.066v0h0.298c5.758-0.17 10.362-4.878 10.362-10.662 0-1.828-0.46-3.549-1.27-5.053l0.028 0.057zM21.066 11.53c0.988 0.128 1.884 0.406 2.706 0.812l-0.050-0.022-2.656 4.608zM21.066 21.194l4.448-7.702c0.654 0.558 1.212 1.201 1.665 1.918l0.021 0.034-6.134 10.624zM22.304 28.202l5.962-10.336c0.167 0.64 0.264 1.374 0.266 2.132v0.002c0 0.010 0 0.022 0 0.035 0 3.881-2.61 7.151-6.17 8.154l-0.060 0.014z"></path>
</svg>
