<!-- Generated by IcoMoon.io -->
<svg version="1.1" xmlns="http://www.w3.org/2000/svg" width="40" height="40" viewBox="0 0 40 40">
<title>ul-angle-double-right</title>
<path fill="#91908d" d="M16.224 16.042c-0.198-0.203-0.474-0.329-0.778-0.329-0.6 0-1.086 0.486-1.086 1.086 0 0.294 0.118 0.562 0.308 0.758v0l2.496 2.442-2.496 2.442c-0.195 0.194-0.315 0.462-0.315 0.758s0.121 0.564 0.315 0.758v0c0.194 0.195 0.462 0.315 0.758 0.315s0.564-0.121 0.758-0.315l3.2-3.2c0.195-0.194 0.315-0.462 0.315-0.758s-0.121-0.564-0.315-0.758v0zM25.29 19.242l-3.2-3.2c-0.194-0.194-0.462-0.314-0.758-0.314-0.591 0-1.071 0.479-1.071 1.071 0 0.296 0.12 0.563 0.314 0.758v0l2.454 2.442-2.454 2.442c-0.195 0.194-0.315 0.462-0.315 0.758s0.121 0.564 0.315 0.758v0c0.194 0.195 0.462 0.315 0.758 0.315s0.564-0.121 0.758-0.315l3.2-3.2c0.208-0.195 0.338-0.472 0.338-0.778 0-0.286-0.112-0.545-0.295-0.737l0.001 0.001z"></path>
</svg>
