<!-- Generated by IcoMoon.io -->
<svg version="1.1" xmlns="http://www.w3.org/2000/svg" width="40" height="40" viewBox="0 0 40 40">
<title>ul-adobe-alt</title>
<path fill="#91908d" d="M18.13 9.763c-0.194-0.287-0.518-0.473-0.886-0.473 0 0 0 0-0.001 0h-7.92c0 0 0 0 0 0-0.589 0-1.066 0.478-1.066 1.066 0 0 0 0 0 0v0 19.287c0 0.589 0.478 1.066 1.067 1.066 0.443 0 0.823-0.27 0.984-0.654l0.002-0.007 7.92-19.287c0.050-0.12 0.080-0.258 0.080-0.405 0-0.222-0.067-0.427-0.183-0.598l0.002 0.004zM10.391 24.238v-12.814h5.262zM30.658 9.29h-8.018c-0.589 0-1.066 0.478-1.066 1.066 0 0.15 0.030 0.291 0.086 0.421l-0.002-0.007 8.018 19.039c0.166 0.387 0.542 0.653 0.982 0.653v0c0.075 0 0.148-0.008 0.218-0.022l-0.007 0.001c0.491-0.102 0.855-0.531 0.856-1.046v-19.039c0 0 0 0 0 0 0-0.589-0.478-1.066-1.066-1.066 0 0 0 0 0 0v0zM29.591 24.115l-5.346-12.692h5.346zM21.013 17.354c-0.155-0.403-0.538-0.685-0.987-0.69h-0.011c0 0 0 0 0 0-0.446 0-0.828 0.274-0.987 0.662l-0.002 0.007-3.263 8.139c-0.049 0.118-0.077 0.254-0.077 0.397 0 0.589 0.478 1.066 1.066 1.066 0 0 0 0 0 0h2.405l1.624 3.19c0.18 0.349 0.538 0.583 0.95 0.583 0 0 0 0 0 0h2.787c0.589 0 1.066-0.478 1.066-1.067 0-0.135-0.026-0.265-0.071-0.384l0.002 0.007zM22.385 28.578l-1.624-3.19c-0.18-0.349-0.538-0.583-0.95-0.583 0 0 0 0 0 0h-1.482l1.658-4.134 2.989 7.906z"></path>
</svg>
