<!-- Generated by IcoMoon.io -->
<svg version="1.1" xmlns="http://www.w3.org/2000/svg" width="40" height="40" viewBox="0 0 40 40">
<title>ul-annoyed-alt</title>
<path fill="#91908d" d="M22.838 21.664l-4.47 1.6c-0.414 0.153-0.703 0.544-0.703 1.002 0 0.585 0.471 1.060 1.054 1.066h0.001c0.13 0 0.255-0.023 0.37-0.066l-0.007 0.002 4.48-1.6c0.429-0.145 0.732-0.543 0.732-1.013 0-0.589-0.478-1.066-1.066-1.066-0.141 0-0.275 0.027-0.398 0.077l0.007-0.002zM18.57 16.33c-0.193-0.192-0.458-0.31-0.752-0.31s-0.559 0.118-0.752 0.31v0c-0.194 0.195-0.462 0.315-0.758 0.315s-0.564-0.121-0.758-0.315v0c-0.193-0.192-0.458-0.31-0.752-0.31s-0.559 0.118-0.752 0.31v0c-0.195 0.194-0.315 0.462-0.315 0.758s0.121 0.564 0.315 0.758v0c0.579 0.578 1.378 0.936 2.262 0.936s1.682-0.358 2.262-0.936v0c0.189-0.192 0.306-0.456 0.306-0.747 0-0.312-0.134-0.593-0.347-0.788l-0.001-0.001zM26.038 16.33c-0.193-0.192-0.458-0.31-0.752-0.31s-0.559 0.118-0.752 0.31v0c-0.194 0.195-0.462 0.315-0.758 0.315s-0.564-0.121-0.758-0.315v0c-0.193-0.192-0.458-0.31-0.752-0.31s-0.559 0.118-0.752 0.31v0c-0.195 0.194-0.315 0.462-0.315 0.758s0.121 0.564 0.315 0.758v0c0.579 0.578 1.378 0.936 2.262 0.936s1.682-0.358 2.262-0.936v0c0.189-0.192 0.306-0.456 0.306-0.747 0-0.312-0.134-0.593-0.347-0.788l-0.001-0.001zM20 9.334c-5.891 0-10.666 4.776-10.666 10.666s4.776 10.666 10.666 10.666c5.891 0 10.666-4.776 10.666-10.666v0c0-5.891-4.776-10.666-10.666-10.666v0zM20 28.534c-4.713 0-8.534-3.821-8.534-8.534s3.821-8.534 8.534-8.534c4.713 0 8.534 3.821 8.534 8.534v0c0 4.713-3.821 8.534-8.534 8.534v0z"></path>
</svg>
