<!-- Generated by IcoMoon.io -->
<svg version="1.1" xmlns="http://www.w3.org/2000/svg" width="40" height="40" viewBox="0 0 40 40">
<title>ul-bitcoin-sign</title>
<path fill="#91908d" d="M27.466 16.8c0-2.357-1.91-4.266-4.266-4.266v0-2.134c0-0.589-0.478-1.066-1.066-1.066s-1.066 0.478-1.066 1.066v0 2.134h-2.134v-2.134c0-0.589-0.478-1.066-1.066-1.066s-1.066 0.478-1.066 1.066v0 2.134h-3.2c-0.589 0-1.066 0.478-1.066 1.066s0.478 1.066 1.066 1.066v0h1.066v10.666h-1.066c-0.589 0-1.066 0.478-1.066 1.066s0.478 1.066 1.066 1.066v0h3.2v2.134c0 0.589 0.478 1.066 1.066 1.066s1.066-0.478 1.066-1.066v0-2.134h2.134v2.134c0 0.589 0.478 1.066 1.066 1.066s1.066-0.478 1.066-1.066v0-2.134c2.345-0.015 4.239-1.92 4.239-4.266 0-1.272-0.557-2.414-1.44-3.196l-0.005-0.004c0.898-0.782 1.465-1.924 1.472-3.198v-0.002zM23.2 25.334h-6.4v-4.266h6.4c1.178 0 2.134 0.955 2.134 2.134s-0.955 2.134-2.134 2.134v0zM23.2 18.934h-6.4v-4.266h6.4c1.178 0 2.134 0.955 2.134 2.134s-0.955 2.134-2.134 2.134v0z"></path>
</svg>
