<!-- Generated by IcoMoon.io -->
<svg version="1.1" xmlns="http://www.w3.org/2000/svg" width="40" height="40" viewBox="0 0 40 40">
<title>ul-bell-slash</title>
<path fill="#91908d" d="M19.008 13.728c0.29-0.082 0.623-0.128 0.966-0.128 0.009 0 0.018 0 0.026 0h-0.002c2.357 0 4.266 1.91 4.266 4.266v0 1.43c0 0.589 0.478 1.066 1.066 1.066s1.066-0.478 1.066-1.066v0-1.43c-0.003-3.155-2.289-5.775-5.295-6.298l-0.038-0.006v-1.162c0-0.589-0.478-1.066-1.066-1.066s-1.066 0.478-1.066 1.066v0 1.174l-0.48 0.086c-0.461 0.126-0.794 0.542-0.794 1.034 0 0.591 0.479 1.071 1.071 1.071 0.098 0 0.194-0.014 0.285-0.038l-0.007 0.002zM30.358 28.842l-19.2-19.2c-0.194-0.194-0.462-0.314-0.758-0.314-0.591 0-1.071 0.479-1.071 1.071 0 0.296 0.12 0.563 0.314 0.758v0l4.394 4.384c-0.277 0.69-0.438 1.489-0.438 2.325 0 0 0 0 0 0v0 3.392c-1.25 0.451-2.13 1.626-2.134 3.007v2.134c0 0.589 0.478 1.066 1.066 1.066v0h3.35c0.509 1.828 2.159 3.148 4.118 3.148s3.609-1.319 4.11-3.118l0.007-0.030h1.846l2.88 2.89c0.194 0.195 0.462 0.315 0.758 0.315s0.564-0.121 0.758-0.315v0c0.195-0.194 0.315-0.462 0.315-0.758s-0.121-0.564-0.315-0.758v0zM15.734 17.866c-0.008-0.088-0.012-0.19-0.012-0.294s0.005-0.206 0.013-0.306l-0.001 0.013 3.83 3.786h-3.83zM20 28.534c-0.781-0.005-1.461-0.428-1.83-1.057l-0.006-0.010h3.67c-0.374 0.638-1.054 1.062-1.834 1.066h-0.001zM13.6 25.334v-1.066c0-0.589 0.478-1.066 1.066-1.066v0h7.030l2.134 2.134z"></path>
</svg>
