<!-- Generated by IcoMoon.io -->
<svg version="1.1" xmlns="http://www.w3.org/2000/svg" width="40" height="40" viewBox="0 0 40 40">
<title>ul-bus-school</title>
<path fill="#91908d" d="M8.266 20.534v4.266c0 0.589 0.478 1.066 1.066 1.066v0h1.066c0 1.767 1.433 3.2 3.2 3.2s3.2-1.433 3.2-3.2v0h6.4c0 1.767 1.433 3.2 3.2 3.2s3.2-1.433 3.2-3.2v0h1.066c0.589 0 1.066-0.478 1.066-1.066v0-10.666c0-1.767-1.433-3.2-3.2-3.2v0h-12.33c-1.402 0.002-2.593 0.907-3.022 2.164l-0.006 0.022-1.536 4.598-2.89 1.93c-0.29 0.193-0.478 0.517-0.48 0.885v0zM29.6 17.334h-2.134v-4.266h1.066c0.589 0 1.066 0.478 1.066 1.066v0zM25.334 25.866c0-0.589 0.478-1.066 1.066-1.066s1.066 0.478 1.066 1.066c0 0.589-0.478 1.066-1.066 1.066v0c-0.589 0-1.066-0.478-1.066-1.066v0zM23.2 19.466h6.4v4.266h-0.832c-0.587-0.645-1.43-1.048-2.368-1.048s-1.781 0.403-2.366 1.045l-0.002 0.002h-0.832zM23.2 13.066h2.134v4.266h-2.134zM18.934 19.466h2.134v4.266h-2.134zM18.934 13.066h2.134v4.266h-2.134zM16.8 17.334h-2.784l1.174-3.542c0.146-0.426 0.544-0.726 1.010-0.726 0.001 0 0.002 0 0.003 0h0.597zM12.534 25.866c0-0.589 0.478-1.066 1.066-1.066s1.066 0.478 1.066 1.066c0 0.589-0.478 1.066-1.066 1.066v0c-0.589 0-1.066-0.478-1.066-1.066v0zM10.4 21.066l2.454-1.6h3.946v4.266h-0.832c-0.587-0.645-1.43-1.048-2.368-1.048s-1.781 0.403-2.366 1.045l-0.002 0.002h-0.832z"></path>
</svg>
