<!-- Generated by IcoMoon.io -->
<svg version="1.1" xmlns="http://www.w3.org/2000/svg" width="40" height="40" viewBox="0 0 40 40">
<title>ul-backspace</title>
<path fill="#91908d" d="M27.466 12.534h-9.782c-0.883 0.001-1.682 0.359-2.262 0.938v0l-5.782 5.77c-0.195 0.194-0.315 0.462-0.315 0.758s0.121 0.564 0.315 0.758v0l5.782 5.77c0.578 0.579 1.378 0.938 2.261 0.938h9.782c1.767 0 3.2-1.433 3.2-3.2v0-8.534c0-1.767-1.433-3.2-3.2-3.2v0zM28.534 24.266c0 0.589-0.478 1.066-1.066 1.066v0h-9.782c-0.294-0.004-0.561-0.122-0.758-0.31l-5.023-5.023 5.024-5.024c0.197-0.188 0.463-0.305 0.757-0.31h9.782c0.589 0 1.066 0.478 1.066 1.066v0zM25.024 17.11c-0.194-0.195-0.462-0.315-0.758-0.315s-0.564 0.121-0.758 0.315v0l-1.376 1.386-1.376-1.386c-0.194-0.194-0.462-0.314-0.758-0.314-0.591 0-1.071 0.479-1.071 1.071 0 0.296 0.12 0.563 0.314 0.758v0l1.386 1.376-1.386 1.376c-0.195 0.194-0.315 0.462-0.315 0.758s0.121 0.564 0.315 0.758v0c0.194 0.195 0.462 0.315 0.758 0.315s0.564-0.121 0.758-0.315v0l1.376-1.386 1.376 1.386c0.194 0.195 0.462 0.315 0.758 0.315s0.564-0.121 0.758-0.315v0c0.195-0.194 0.315-0.462 0.315-0.758s-0.121-0.564-0.315-0.758v0l-1.386-1.376 1.386-1.376c0.195-0.194 0.315-0.462 0.315-0.758s-0.121-0.564-0.315-0.758v0z"></path>
</svg>
