<!-- Generated by IcoMoon.io -->
<svg version="1.1" xmlns="http://www.w3.org/2000/svg" width="40" height="40" viewBox="0 0 40 40">
<title>ul-brush-alt</title>
<path fill="#91908d" d="M20 26.4c-0.589 0-1.066 0.478-1.066 1.066s0.478 1.066 1.066 1.066c0.589 0 1.066-0.478 1.066-1.066v0c0-0.589-0.478-1.066-1.066-1.066v0zM26.4 8.266h-12.8c-0.589 0-1.066 0.478-1.066 1.066v0 9.6c0 1.767 1.433 3.2 3.2 3.2v0h1.066v2.528c-0.662 0.748-1.066 1.738-1.066 2.822 0 2.357 1.91 4.266 4.266 4.266s4.266-1.91 4.266-4.266c0-1.084-0.405-2.074-1.070-2.826l0.004 0.005v-2.528h1.066c1.767 0 3.2-1.433 3.2-3.2v0-9.6c0-0.589-0.478-1.066-1.066-1.066v0zM20 29.6c-1.171-0.009-2.117-0.961-2.117-2.134 0-0.625 0.269-1.187 0.697-1.577l0.002-0.002c0.216-0.195 0.351-0.477 0.352-0.789v-2.966h2.134v2.966c0.001 0.313 0.136 0.594 0.351 0.789l0.001 0.001c0.43 0.392 0.698 0.954 0.698 1.578 0 1.173-0.946 2.124-2.116 2.134h-0.001zM25.334 18.934c0 0.589-0.478 1.066-1.066 1.066v0h-8.534c-0.589 0-1.066-0.478-1.066-1.066v0-1.066h10.666zM25.334 15.734h-10.666v-5.334h10.666z"></path>
</svg>
