<!-- Generated by IcoMoon.io -->
<svg version="1.1" xmlns="http://www.w3.org/2000/svg" width="40" height="40" viewBox="0 0 40 40">
<title>ul-bitcoin-alt</title>
<path fill="#91908d" d="M24.591 19.19c0.459-0.67 0.734-1.498 0.734-2.39 0-2.355-1.909-4.264-4.264-4.264-0.001 0-0.002 0-0.002 0v0-1.066c0-0.589-0.478-1.066-1.066-1.066s-1.066 0.478-1.066 1.066v0 1.066h-2.134v-1.066c0-0.589-0.478-1.066-1.066-1.066s-1.066 0.478-1.066 1.066v0 1.066h-1.066c-0.589 0-1.066 0.478-1.066 1.066s0.478 1.066 1.066 1.066v0h1.066v10.666h-1.066c-0.589 0-1.066 0.478-1.066 1.066s0.478 1.066 1.066 1.066v0h1.066v1.066c0 0.589 0.478 1.066 1.066 1.066s1.066-0.478 1.066-1.066v0-1.066h2.134v1.066c0 0.589 0.478 1.066 1.066 1.066s1.066-0.478 1.066-1.066v0-1.066h2.134c0.003 0 0.007 0 0.011 0 2.35 0 4.256-1.906 4.256-4.256 0-1.853-1.184-3.429-2.837-4.014l-0.030-0.009zM16.791 14.669h4.266c1.178 0 2.134 0.955 2.134 2.134s-0.955 2.134-2.134 2.134h-4.266zM23.191 25.335h-6.4v-4.266h6.4c1.178 0 2.134 0.955 2.134 2.134s-0.955 2.134-2.134 2.134v0z"></path>
</svg>
