<!-- Generated by IcoMoon.io -->
<svg version="1.1" xmlns="http://www.w3.org/2000/svg" width="40" height="40" viewBox="0 0 40 40">
<title>ul-bold</title>
<path fill="#91908d" d="M24.8 17.334c0-2.062-1.671-3.734-3.734-3.734v0h-4.8c-0.589 0-1.066 0.478-1.066 1.066v0 10.666c0 0.589 0.478 1.066 1.066 1.066v0h4.8c0.005 0 0.010 0 0.016 0 2.056 0 3.722-1.666 3.722-3.722 0-1.050-0.435-1.999-1.135-2.676l-0.001-0.001c0.695-0.677 1.128-1.621 1.13-2.666v-0.001zM21.066 24.266h-3.734v-3.2h3.734c0.884 0 1.6 0.716 1.6 1.6s-0.716 1.6-1.6 1.6v0zM21.066 18.934h-3.734v-3.2h3.734c0.884 0 1.6 0.716 1.6 1.6s-0.716 1.6-1.6 1.6v0z"></path>
</svg>
