<!-- Generated by IcoMoon.io -->
<svg version="1.1" xmlns="http://www.w3.org/2000/svg" width="40" height="40" viewBox="0 0 40 40">
<title>ul-bed</title>
<path fill="#91908d" d="M14.666 20.534c1.767 0 3.2-1.433 3.2-3.2s-1.433-3.2-3.2-3.2c-1.767 0-3.2 1.433-3.2 3.2v0c0 1.767 1.433 3.2 3.2 3.2v0zM14.666 16.266c0.589 0 1.066 0.478 1.066 1.066s-0.478 1.066-1.066 1.066c-0.589 0-1.066-0.478-1.066-1.066v0c0-0.589 0.478-1.066 1.066-1.066v0zM28.534 14.134h-8.534c-0.589 0-1.066 0.478-1.066 1.066v0 6.4h-8.534v-8.534c0-0.589-0.478-1.066-1.066-1.066s-1.066 0.478-1.066 1.066v0 13.866c0 0.589 0.478 1.066 1.066 1.066s1.066-0.478 1.066-1.066v0-3.2h19.2v3.2c0 0.589 0.478 1.066 1.066 1.066s1.066-0.478 1.066-1.066v0-9.6c0-1.767-1.433-3.2-3.2-3.2v0zM29.6 21.6h-8.534v-5.334h7.466c0.589 0 1.066 0.478 1.066 1.066v0z"></path>
</svg>
