<!-- Generated by IcoMoon.io -->
<svg version="1.1" xmlns="http://www.w3.org/2000/svg" width="40" height="40" viewBox="0 0 40 40">
<title>ul-border-inner</title>
<path fill="#91908d" d="M15.734 12.534c0.589 0 1.066-0.478 1.066-1.066s-0.478-1.066-1.066-1.066c-0.589 0-1.066 0.478-1.066 1.066v0c0 0.589 0.478 1.066 1.066 1.066v0zM11.466 16.8c0.589 0 1.066-0.478 1.066-1.066s-0.478-1.066-1.066-1.066c-0.589 0-1.066 0.478-1.066 1.066v0c0 0.589 0.478 1.066 1.066 1.066v0zM11.466 12.534c0.589 0 1.066-0.478 1.066-1.066s-0.478-1.066-1.066-1.066c-0.589 0-1.066 0.478-1.066 1.066v0c0 0.589 0.478 1.066 1.066 1.066v0zM11.466 27.466c-0.589 0-1.066 0.478-1.066 1.066s0.478 1.066 1.066 1.066c0.589 0 1.066-0.478 1.066-1.066v0c0-0.589-0.478-1.066-1.066-1.066v0zM28.534 12.534c0.589 0 1.066-0.478 1.066-1.066s-0.478-1.066-1.066-1.066c-0.589 0-1.066 0.478-1.066 1.066v0c0 0.589 0.478 1.066 1.066 1.066v0zM28.534 16.8c0.589 0 1.066-0.478 1.066-1.066s-0.478-1.066-1.066-1.066c-0.589 0-1.066 0.478-1.066 1.066v0c0 0.589 0.478 1.066 1.066 1.066v0zM24.266 12.534c0.589 0 1.066-0.478 1.066-1.066s-0.478-1.066-1.066-1.066c-0.589 0-1.066 0.478-1.066 1.066v0c0 0.589 0.478 1.066 1.066 1.066v0zM28.534 27.466c-0.589 0-1.066 0.478-1.066 1.066s0.478 1.066 1.066 1.066c0.589 0 1.066-0.478 1.066-1.066v0c0-0.589-0.478-1.066-1.066-1.066v0zM11.466 23.2c-0.589 0-1.066 0.478-1.066 1.066s0.478 1.066 1.066 1.066c0.589 0 1.066-0.478 1.066-1.066v0c0-0.589-0.478-1.066-1.066-1.066v0zM28.534 23.2c-0.589 0-1.066 0.478-1.066 1.066s0.478 1.066 1.066 1.066c0.589 0 1.066-0.478 1.066-1.066v0c0-0.589-0.478-1.066-1.066-1.066v0zM24.266 27.466c-0.589 0-1.066 0.478-1.066 1.066s0.478 1.066 1.066 1.066c0.589 0 1.066-0.478 1.066-1.066v0c0-0.589-0.478-1.066-1.066-1.066v0zM29.6 20c0-0.589-0.478-1.066-1.066-1.066v0h-7.466v-7.466c0-0.589-0.478-1.066-1.066-1.066s-1.066 0.478-1.066 1.066v0 7.466h-7.466c-0.589 0-1.066 0.478-1.066 1.066s0.478 1.066 1.066 1.066v0h7.466v7.466c0 0.589 0.478 1.066 1.066 1.066s1.066-0.478 1.066-1.066v0-7.466h7.466c0.589 0 1.066-0.478 1.066-1.066v0zM15.734 27.466c-0.589 0-1.066 0.478-1.066 1.066s0.478 1.066 1.066 1.066c0.589 0 1.066-0.478 1.066-1.066v0c0-0.589-0.478-1.066-1.066-1.066v0z"></path>
</svg>
