<!-- Generated by IcoMoon.io -->
<svg version="1.1" xmlns="http://www.w3.org/2000/svg" width="40" height="40" viewBox="0 0 40 40">
<title>ul-code-branch</title>
<path fill="#91908d" d="M25.334 13.664c-1.766 0.001-3.198 1.434-3.198 3.2 0 1.324 0.804 2.46 1.95 2.946l0.021 0.008c-0.33 0.777-1.087 1.312-1.969 1.312-0.002 0-0.003 0-0.005 0h-4.266c-0.789 0.003-1.525 0.225-2.152 0.608l0.018-0.010v-6.122c1.254-0.453 2.134-1.632 2.134-3.017 0-1.767-1.433-3.2-3.2-3.2s-3.2 1.433-3.2 3.2c0 1.385 0.88 2.565 2.111 3.010l0.022 0.007v8.918c-1.245 0.457-2.117 1.632-2.117 3.011 0 1.767 1.433 3.2 3.2 3.2s3.2-1.433 3.2-3.2c0-1.327-0.807-2.465-1.958-2.95l-0.021-0.008c0.33-0.775 1.083-1.31 1.962-1.312h4.267c2.038-0.001 3.743-1.43 4.166-3.342l0.006-0.028c1.273-0.442 2.17-1.631 2.17-3.030 0-1.746-1.399-3.166-3.138-3.199h-0.003zM14.666 11.53c0.589 0 1.066 0.478 1.066 1.066s-0.478 1.066-1.066 1.066c-0.589 0-1.066-0.478-1.066-1.066v0c0-0.589 0.478-1.066 1.066-1.066v0zM14.666 28.598c-0.589 0-1.066-0.478-1.066-1.066s0.478-1.066 1.066-1.066c0.589 0 1.066 0.478 1.066 1.066v0c0 0.589-0.478 1.066-1.066 1.066v0zM25.334 17.93c-0.589 0-1.066-0.478-1.066-1.066s0.478-1.066 1.066-1.066c0.589 0 1.066 0.478 1.066 1.066v0c0 0.589-0.478 1.066-1.066 1.066v0z"></path>
</svg>
