<!-- Generated by IcoMoon.io -->
<svg version="1.1" xmlns="http://www.w3.org/2000/svg" width="40" height="40" viewBox="0 0 40 40">
<title>ul-confused</title>
<path fill="#91908d" d="M16.8 16.8c-0.589 0-1.066 0.478-1.066 1.066s0.478 1.066 1.066 1.066c0.589 0 1.066-0.478 1.066-1.066v0c0-0.589-0.478-1.066-1.066-1.066v0zM22.838 21.664l-4.47 1.6c-0.414 0.153-0.703 0.544-0.703 1.002 0 0.585 0.471 1.060 1.054 1.066h0.001c0.13 0 0.255-0.023 0.37-0.066l-0.007 0.002 4.48-1.6c0.429-0.145 0.732-0.543 0.732-1.013 0-0.589-0.478-1.066-1.066-1.066-0.141 0-0.275 0.027-0.398 0.077l0.007-0.002zM23.2 16.8c-0.589 0-1.066 0.478-1.066 1.066s0.478 1.066 1.066 1.066c0.589 0 1.066-0.478 1.066-1.066v0c0-0.589-0.478-1.066-1.066-1.066v0zM20 9.334c-5.891 0-10.666 4.776-10.666 10.666s4.776 10.666 10.666 10.666c5.891 0 10.666-4.776 10.666-10.666v0c0-5.891-4.776-10.666-10.666-10.666v0zM20 28.534c-4.713 0-8.534-3.821-8.534-8.534s3.821-8.534 8.534-8.534c4.713 0 8.534 3.821 8.534 8.534v0c0 4.713-3.821 8.534-8.534 8.534v0z"></path>
</svg>
