<!-- Generated by IcoMoon.io -->
<svg version="1.1" xmlns="http://www.w3.org/2000/svg" width="40" height="40" viewBox="0 0 40 40">
<title>ul-comment-alt-block</title>
<path fill="#91908d" d="M27.466 13.6h-4.266c-0.589 0-1.066 0.478-1.066 1.066s0.478 1.066 1.066 1.066v0h4.266c0.589 0 1.066 0.478 1.066 1.066v0 10.368l-1.674-1.546c-0.19-0.178-0.445-0.287-0.725-0.288h-9.334c-0.589 0-1.066-0.478-1.066-1.066v0-1.066c0-0.589-0.478-1.066-1.066-1.066s-1.066 0.478-1.066 1.066v0 1.066c0 1.767 1.433 3.2 3.2 3.2v0h8.918l3.2 2.912c0.179 0.169 0.418 0.276 0.68 0.288h0.002c0.154-0.002 0.301-0.033 0.434-0.088l-0.008 0.003c0.38-0.169 0.64-0.543 0.64-0.978 0-0.002 0-0.002 0-0.004v0-12.8c0-1.767-1.433-3.2-3.2-3.2v0zM18.442 18.442c0.968-0.966 1.567-2.301 1.567-3.776 0-2.946-2.388-5.334-5.334-5.334s-5.334 2.388-5.334 5.334c0 2.942 2.382 5.328 5.323 5.334h0.001c0.003 0 0.006 0 0.010 0 1.47 0 2.802-0.595 3.766-1.558v0zM11.466 14.666c0-1.767 1.433-3.2 3.2-3.2v0c0.498 0.005 0.966 0.122 1.384 0.328l-0.018-0.008-4.266 4.266c-0.189-0.396-0.299-0.86-0.299-1.35 0-0.013 0-0.026 0-0.038v0.002zM17.546 13.29c0.199 0.402 0.317 0.875 0.32 1.375v0.001c-0.008 1.762-1.438 3.186-3.2 3.186-0.496 0-0.966-0.113-1.385-0.314l0.019 0.008z"></path>
</svg>
