<!-- Generated by IcoMoon.io -->
<svg version="1.1" xmlns="http://www.w3.org/2000/svg" width="40" height="40" viewBox="0 0 40 40">
<title>ul-create-dashboard</title>
<path fill="#91908d" d="M17.866 21.066h-6.4c-0.589 0-1.066 0.478-1.066 1.066v0 6.4c0 0.589 0.478 1.066 1.066 1.066v0h6.4c0.589 0 1.066-0.478 1.066-1.066v0-6.4c0-0.589-0.478-1.066-1.066-1.066v0zM16.8 27.466h-4.266v-4.266h4.266zM28.534 10.4h-6.4c-0.589 0-1.066 0.478-1.066 1.066v0 6.4c0 0.589 0.478 1.066 1.066 1.066v0h6.4c0.589 0 1.066-0.478 1.066-1.066v0-6.4c0-0.589-0.478-1.066-1.066-1.066v0zM27.466 16.8h-4.266v-4.266h4.266zM28.534 24.266h-2.134v-2.134c0-0.589-0.478-1.066-1.066-1.066s-1.066 0.478-1.066 1.066v0 2.134h-2.134c-0.589 0-1.066 0.478-1.066 1.066s0.478 1.066 1.066 1.066v0h2.134v2.134c0 0.589 0.478 1.066 1.066 1.066s1.066-0.478 1.066-1.066v0-2.134h2.134c0.589 0 1.066-0.478 1.066-1.066s-0.478-1.066-1.066-1.066v0zM17.866 10.4h-6.4c-0.589 0-1.066 0.478-1.066 1.066v0 6.4c0 0.589 0.478 1.066 1.066 1.066v0h6.4c0.589 0 1.066-0.478 1.066-1.066v0-6.4c0-0.589-0.478-1.066-1.066-1.066v0zM16.8 16.8h-4.266v-4.266h4.266z"></path>
</svg>
