<!-- Generated by IcoMoon.io -->
<svg version="1.1" xmlns="http://www.w3.org/2000/svg" width="40" height="40" viewBox="0 0 40 40">
<title>ul-car-sideview</title>
<path fill="#91908d" d="M27.466 17.334h-0.342l-1.334-3.328c-0.486-1.185-1.63-2.004-2.965-2.006h-6.4c-0.002 0-0.006 0-0.009 0-1.545 0-2.834 1.094-3.134 2.55l-0.003 0.021-0.554 2.762h-0.192c-1.767 0-3.2 1.433-3.2 3.2v0 3.2c0 0.589 0.478 1.066 1.066 1.066v0h1.066c0 1.767 1.433 3.2 3.2 3.2s3.2-1.433 3.2-3.2v0h4.266c0 1.767 1.433 3.2 3.2 3.2s3.2-1.433 3.2-3.2v0h1.066c0.589 0 1.066-0.478 1.066-1.066v0-3.2c0-1.767-1.433-3.2-3.2-3.2v0zM21.066 14.134h1.76c0.443 0.004 0.822 0.278 0.978 0.665l0.002 0.007 1.014 2.528h-3.754zM15.37 14.986c0.102-0.49 0.531-0.854 1.045-0.854 0.007 0 0.015 0 0.022 0h2.495v3.2h-4.032zM14.666 25.866c-0.589 0-1.066-0.478-1.066-1.066s0.478-1.066 1.066-1.066c0.589 0 1.066 0.478 1.066 1.066v0c0 0.589-0.478 1.066-1.066 1.066v0zM25.334 25.866c-0.589 0-1.066-0.478-1.066-1.066s0.478-1.066 1.066-1.066c0.589 0 1.066 0.478 1.066 1.066v0c0 0.589-0.478 1.066-1.066 1.066v0zM28.534 22.666h-0.832c-0.587-0.645-1.43-1.048-2.368-1.048s-1.781 0.403-2.366 1.045l-0.002 0.002h-5.93c-0.587-0.645-1.43-1.048-2.368-1.048s-1.781 0.403-2.366 1.045l-0.002 0.002h-0.832v-2.134c0-0.589 0.478-1.066 1.066-1.066v0h14.934c0.589 0 1.066 0.478 1.066 1.066v0z"></path>
</svg>
