<!-- Generated by IcoMoon.io -->
<svg version="1.1" xmlns="http://www.w3.org/2000/svg" width="40" height="40" viewBox="0 0 40 40">
<title>ul-cloud-question</title>
<path fill="#91908d" d="M26.848 15.968c-1.18-2.663-3.8-4.487-6.846-4.487-3.784 0-6.91 2.815-7.4 6.465l-0.004 0.038c-1.892 0.464-3.273 2.146-3.273 4.15 0 2.357 1.91 4.266 4.266 4.266 0.003 0 0.006 0 0.010 0h2.133c0.589 0 1.066-0.478 1.066-1.066s-0.478-1.066-1.066-1.066v0h-2.134c-1.178 0-2.134-0.955-2.134-2.134s0.955-2.134 2.134-2.134v0c0.589 0 1.066-0.478 1.066-1.066v0c0.006-2.941 2.392-5.322 5.334-5.322 2.326 0 4.305 1.49 5.034 3.567l0.011 0.038c0.126 0.37 0.44 0.646 0.826 0.714l0.006 0.001c1.512 0.268 2.647 1.568 2.656 3.135v0.001c0 1.767-1.433 3.2-3.2 3.2v0c-0.589 0-1.066 0.478-1.066 1.066s0.478 1.066 1.066 1.066v0c2.924-0.028 5.284-2.405 5.284-5.333 0-2.387-1.569-4.409-3.732-5.089l-0.038-0.010zM20.982 27.062c-0.023-0.070-0.055-0.13-0.097-0.182l0.001 0.002-0.128-0.17c-0.1-0.091-0.217-0.166-0.344-0.221l-0.008-0.003c-0.122-0.053-0.264-0.083-0.414-0.083-0.292 0-0.557 0.118-0.75 0.307v0l-0.128 0.17c-0.041 0.052-0.073 0.112-0.094 0.177l-0.002 0.004c-0.029 0.055-0.051 0.12-0.063 0.188l-0.001 0.004c-0.002 0.032-0.003 0.069-0.003 0.106s0.002 0.074 0.004 0.112v-0.005c-0.002 0.030-0.004 0.066-0.004 0.102s0.002 0.071 0.004 0.106v-0.005c0.011 0.076 0.034 0.144 0.066 0.206l-0.002-0.003c0.023 0.070 0.055 0.13 0.097 0.182l-0.001-0.002 0.128 0.17c0.197 0.188 0.463 0.305 0.757 0.31h0.001c0.147-0.002 0.286-0.033 0.412-0.088l-0.007 0.002c0.135-0.058 0.252-0.133 0.353-0.225l-0.001 0.001 0.128-0.17c0.041-0.052 0.073-0.112 0.094-0.177l0.002-0.004c0.030-0.058 0.053-0.127 0.063-0.199l0.001-0.003c0.012-0.060 0.019-0.13 0.022-0.201v-0.002c0.002-0.032 0.003-0.069 0.003-0.106s-0.002-0.074-0.004-0.112v0.005c-0.020-0.073-0.050-0.137-0.087-0.194l0.002 0.002zM20 18.934c-0.001 0-0.002 0-0.002 0-1.178 0-2.208 0.637-2.763 1.585l-0.008 0.015c-0.090 0.154-0.144 0.338-0.144 0.534 0 0.394 0.214 0.739 0.534 0.924l0.005 0.002c0.151 0.087 0.333 0.139 0.526 0.139 0.393 0 0.736-0.213 0.922-0.529l0.002-0.005c0.188-0.321 0.531-0.534 0.924-0.534 0.002 0 0.003 0 0.005 0v0c0.589 0 1.066 0.478 1.066 1.066s-0.478 1.066-1.066 1.066v0c-0.589 0-1.066 0.478-1.066 1.066s0.478 1.066 1.066 1.066v0c1.767 0 3.2-1.433 3.2-3.2s-1.433-3.2-3.2-3.2v0z"></path>
</svg>
