<!-- Generated by IcoMoon.io -->
<svg version="1.1" xmlns="http://www.w3.org/2000/svg" width="40" height="40" viewBox="0 0 40 40">
<title>ul-cloud-sun-rain</title>
<path fill="#91908d" d="M15.2 23.2c-0.589 0-1.066 0.478-1.066 1.066v0 1.066c0 0.589 0.478 1.066 1.066 1.066s1.066-0.478 1.066-1.066v0-1.066c0-0.589-0.478-1.066-1.066-1.066v0zM30.666 14.666h-1.174c-0.154-0.711-0.424-1.34-0.792-1.898l0.013 0.021 0.886-0.822c0.194-0.194 0.314-0.462 0.314-0.758 0-0.591-0.479-1.071-1.071-1.071-0.296 0-0.563 0.12-0.758 0.314v0l-0.822 0.832c-0.551-0.366-1.2-0.638-1.897-0.774l-0.034-0.006v-1.174c0-0.589-0.478-1.066-1.066-1.066s-1.066 0.478-1.066 1.066v0 1.174c-0.711 0.154-1.34 0.424-1.898 0.792l0.021-0.013-0.822-0.832c-0.194-0.194-0.462-0.314-0.758-0.314-0.591 0-1.071 0.479-1.071 1.071 0 0.296 0.12 0.563 0.314 0.758v0l0.832 0.822c-0.404 0.608-0.694 1.327-0.818 2.102l-0.004 0.031c-0.496-0.154-1.067-0.246-1.659-0.256h-0.005c-0.001 0-0.002 0-0.004 0-3.207 0-5.863 2.359-6.328 5.437l-0.004 0.035c-1.588 0.453-2.732 1.891-2.732 3.597 0 1.522 0.911 2.831 2.218 3.413l0.024 0.010c0.126 0.051 0.273 0.082 0.426 0.086h0.001c0.002 0 0.006 0 0.009 0 0.589 0 1.066-0.478 1.066-1.066 0-0.438-0.264-0.814-0.642-0.978l-0.007-0.002c-0.569-0.247-0.96-0.804-0.96-1.453 0-0.003 0-0.006 0-0.010v0.001c0-0.884 0.716-1.6 1.6-1.6v0c0.589 0 1.066-0.478 1.066-1.066v0c0.011-2.348 1.917-4.247 4.266-4.247 1.857 0 3.436 1.186 4.023 2.842l0.010 0.030c0.126 0.37 0.44 0.646 0.826 0.714l0.006 0.001c1.202 0.183 2.112 1.209 2.112 2.448 0 0.858-0.437 1.614-1.101 2.058l-0.009 0.006c-0.294 0.194-0.484 0.523-0.484 0.896 0 0.591 0.479 1.071 1.071 1.071 0.218 0 0.422-0.066 0.59-0.178l-0.004 0.002c1.23-0.845 2.026-2.243 2.026-3.829 0-0.011 0-0.023 0-0.034v0.002c-0.004-0.746-0.181-1.45-0.492-2.075l0.012 0.027c0.492-0.164 0.919-0.373 1.311-0.631l-0.021 0.013 0.822 0.832c0.197 0.228 0.486 0.371 0.809 0.371 0.297 0 0.566-0.122 0.759-0.318v0c0.195-0.194 0.315-0.462 0.315-0.758s-0.121-0.564-0.315-0.758v0l-0.832-0.822c0.348-0.554 0.602-1.203 0.721-1.899l0.005-0.031h1.174c0.589 0 1.066-0.478 1.066-1.066s-0.478-1.066-1.066-1.066v0zM26.538 17.994c-0.579 0.58-1.38 0.938-2.264 0.938-0.002 0-0.006 0-0.008 0h-0.063c-0.307-0.198-0.66-0.365-1.035-0.482l-0.031-0.009c-0.489-1.039-1.215-1.896-2.113-2.525l-0.020-0.014c0-0.064 0-0.106 0-0.17 0-0.002 0-0.005 0-0.008 0-0.879 0.354-1.675 0.928-2.254v0c0.59-0.557 1.389-0.899 2.266-0.899s1.676 0.342 2.268 0.901l-0.002-0.002c0.582 0.579 0.941 1.381 0.941 2.266s-0.36 1.687-0.941 2.266v0zM15.2 28.534c-0.589 0-1.066 0.478-1.066 1.066v0 1.066c0 0.589 0.478 1.066 1.066 1.066s1.066-0.478 1.066-1.066v0-1.066c0-0.589-0.478-1.066-1.066-1.066v0zM19.466 27.466c-0.589 0-1.066 0.478-1.066 1.066v0 1.066c0 0.589 0.478 1.066 1.066 1.066s1.066-0.478 1.066-1.066v0-1.066c0-0.589-0.478-1.066-1.066-1.066v0zM19.466 22.134c-0.589 0-1.066 0.478-1.066 1.066v0 1.066c0 0.589 0.478 1.066 1.066 1.066s1.066-0.478 1.066-1.066v0-1.066c0-0.589-0.478-1.066-1.066-1.066v0z"></path>
</svg>
