<!-- Generated by IcoMoon.io -->
<svg version="1.1" xmlns="http://www.w3.org/2000/svg" width="40" height="40" viewBox="0 0 40 40">
<title>ul-copy-alt</title>
<path fill="#91908d" d="M24.266 28.534h-8.534c-1.767 0-3.2-1.433-3.2-3.2v0-10.666c0-0.589-0.478-1.066-1.066-1.066s-1.066 0.478-1.066 1.066v0 10.666c0 2.946 2.388 5.334 5.334 5.334v0h8.534c0.589 0 1.066-0.478 1.066-1.066s-0.478-1.066-1.066-1.066v0zM29.6 16.736c-0.013-0.107-0.035-0.205-0.067-0.298l0.003 0.010v-0.096c-0.054-0.114-0.122-0.214-0.203-0.299l-6.399-6.399c-0.086-0.081-0.184-0.148-0.292-0.2l-0.007-0.003h-0.096l-0.342-0.118h-4.33c-1.767 0-3.2 1.433-3.2 3.2v0 10.666c0 1.767 1.433 3.2 3.2 3.2v0h8.534c1.767 0 3.2-1.433 3.2-3.2v0-6.4s0 0 0-0.064zM23.2 12.97l2.762 2.762h-1.696c-0.589 0-1.066-0.478-1.066-1.066v0zM27.466 23.2c0 0.589-0.478 1.066-1.066 1.066v0h-8.534c-0.589 0-1.066-0.478-1.066-1.066v0-10.666c0-0.589 0.478-1.066 1.066-1.066v0h3.2v3.2c0 1.767 1.433 3.2 3.2 3.2v0h3.2z"></path>
</svg>
