<!-- Generated by IcoMoon.io -->
<svg version="1.1" xmlns="http://www.w3.org/2000/svg" width="40" height="40" viewBox="0 0 40 40">
<title>ul-chart-line</title>
<path fill="#91908d" d="M14.666 24.266c0.884 0 1.6-0.716 1.6-1.6v0c0.002-0.024 0.004-0.052 0.004-0.080s-0.002-0.056-0.004-0.083v0.003l2.976-2.976h0.49l1.718 1.718s0 0.054 0 0.086c0 0.884 0.716 1.6 1.6 1.6s1.6-0.716 1.6-1.6v0-0.086l3.882-3.914c0.884 0 1.6-0.716 1.6-1.6s-0.716-1.6-1.6-1.6c-0.884 0-1.6 0.716-1.6 1.6v0c-0.002 0.024-0.004 0.052-0.004 0.080s0.002 0.056 0.004 0.083v-0.003l-3.85 3.85h-0.17l-1.846-1.878c0-0.884-0.716-1.6-1.6-1.6s-1.6 0.716-1.6 1.6v0l-3.2 3.2c-0.884 0-1.6 0.716-1.6 1.6s0.716 1.6 1.6 1.6v0zM29.066 28.534h-18.134v-18.134c0-0.589-0.478-1.066-1.066-1.066s-1.066 0.478-1.066 1.066v0 19.2c0 0.589 0.478 1.066 1.066 1.066v0h19.2c0.589 0 1.066-0.478 1.066-1.066s-0.478-1.066-1.066-1.066v0z"></path>
</svg>
