<!-- Generated by IcoMoon.io -->
<svg version="1.1" xmlns="http://www.w3.org/2000/svg" width="40" height="40" viewBox="0 0 40 40">
<title>ul-comment-alt-info</title>
<path fill="#91908d" d="M12.534 18.934c0.589 0 1.066-0.478 1.066-1.066v0-4.266c0-0.589-0.478-1.066-1.066-1.066s-1.066 0.478-1.066 1.066v0 4.266c0 0.589 0.478 1.066 1.066 1.066v0zM11.776 11.158c0.193 0.19 0.457 0.307 0.749 0.307 0.15 0 0.291-0.030 0.421-0.086l-0.007 0.002c0.135-0.058 0.252-0.133 0.353-0.225l-0.001 0.001c0.091-0.1 0.166-0.217 0.221-0.344l0.003-0.008c0.054-0.112 0.086-0.243 0.086-0.382 0-0.008 0-0.016 0-0.024v0.001c0-0.002 0-0.004 0-0.006 0-0.293-0.118-0.558-0.31-0.751v0c-0.193-0.19-0.457-0.307-0.749-0.307-0.15 0-0.291 0.030-0.421 0.086l0.007-0.002c-0.137 0.054-0.254 0.13-0.352 0.224v0c-0.191 0.193-0.31 0.458-0.31 0.751 0 0.002 0 0.004 0 0.006v0c0.002 0.147 0.033 0.286 0.088 0.412l-0.002-0.007c0.058 0.135 0.133 0.252 0.225 0.353l-0.001-0.001zM25.334 13.6h-8.534c-0.589 0-1.066 0.478-1.066 1.066s0.478 1.066 1.066 1.066v0h8.534c0.589 0 1.066 0.478 1.066 1.066v0 10.368l-1.674-1.546c-0.19-0.178-0.445-0.287-0.725-0.288h-9.334c-0.589 0-1.066-0.478-1.066-1.066v0-2.134c0-0.589-0.478-1.066-1.066-1.066s-1.066 0.478-1.066 1.066v0 2.134c0 1.767 1.433 3.2 3.2 3.2v0h8.918l3.2 2.912c0.179 0.169 0.418 0.276 0.68 0.288h0.002c0.154-0.002 0.301-0.033 0.434-0.088l-0.008 0.003c0.38-0.169 0.64-0.543 0.64-0.978 0-0.002 0-0.002 0-0.004v0-12.8c0-1.767-1.433-3.2-3.2-3.2v0z"></path>
</svg>
