<!-- Generated by IcoMoon.io -->
<svg version="1.1" xmlns="http://www.w3.org/2000/svg" width="40" height="40" viewBox="0 0 40 40">
<title>ul-corner-up-left</title>
<path fill="#91908d" d="M22.87 14.272h-7.466l3.114-3.114c0.195-0.194 0.315-0.462 0.315-0.758s-0.121-0.564-0.315-0.758v0c-0.193-0.192-0.458-0.31-0.752-0.31s-0.559 0.118-0.752 0.31v0l-4.896 4.938c-0.098 0.098-0.178 0.215-0.232 0.345l-0.002 0.007c-0.050 0.12-0.080 0.259-0.080 0.406s0.030 0.286 0.082 0.412l-0.002-0.007c0.062 0.135 0.14 0.252 0.235 0.353l-0.001-0.001 4.938 4.97c0.19 0.194 0.454 0.316 0.746 0.32h0.001c0.002 0 0.004 0 0.006 0 0.589 0 1.066-0.478 1.066-1.066 0-0.296-0.121-0.564-0.315-0.758v0l-3.114-3.158h7.466c1.767 0 3.2 1.433 3.2 3.2v0 9.994c0 0.589 0.478 1.066 1.066 1.066s1.066-0.478 1.066-1.066v0-9.994c0 0 0 0 0 0 0-2.946-2.388-5.334-5.334-5.334-0.015 0-0.030 0-0.045 0h0.002z"></path>
</svg>
