<!-- Generated by IcoMoon.io -->
<svg version="1.1" xmlns="http://www.w3.org/2000/svg" width="40" height="40" viewBox="0 0 40 40">
<title>ul-channel</title>
<path fill="#91908d" d="M28.534 24.266c-0.693 0.004-1.333 0.227-1.854 0.604l0.010-0.006-2.614-1.546c0.118-0.353 0.188-0.759 0.192-1.182v-0.002c-0.006-1.972-1.35-3.628-3.17-4.11l-0.030-0.006v-2.474c1.254-0.453 2.134-1.632 2.134-3.017 0-1.767-1.433-3.2-3.2-3.2s-3.2 1.433-3.2 3.2c0 1.385 0.88 2.565 2.111 3.010l0.022 0.007v2.474c-1.85 0.49-3.194 2.146-3.2 4.117v0.001c0.004 0.425 0.074 0.831 0.2 1.212l-0.008-0.028-2.614 1.546c-0.513-0.37-1.153-0.594-1.845-0.598h-0.001c-1.767 0-3.2 1.433-3.2 3.2s1.433 3.2 3.2 3.2c1.767 0 3.2-1.433 3.2-3.2v0c-0.004-0.306-0.050-0.598-0.134-0.876l0.006 0.022 2.454-1.462c0.771 0.766 1.834 1.241 3.008 1.241s2.237-0.474 3.008-1.241v0l2.454 1.462c-0.074 0.256-0.116 0.55-0.116 0.854 0 1.767 1.433 3.2 3.2 3.2s3.2-1.433 3.2-3.2c0-1.767-1.433-3.2-3.2-3.2-0.004 0-0.009 0-0.013 0h0.001zM11.466 28.534c-0.589 0-1.066-0.478-1.066-1.066s0.478-1.066 1.066-1.066c0.589 0 1.066 0.478 1.066 1.066v0c0 0.589-0.478 1.066-1.066 1.066v0zM20 11.466c0.589 0 1.066 0.478 1.066 1.066s-0.478 1.066-1.066 1.066c-0.589 0-1.066-0.478-1.066-1.066v0c0-0.589 0.478-1.066 1.066-1.066v0zM20 24.266c-1.178 0-2.134-0.955-2.134-2.134s0.955-2.134 2.134-2.134c1.178 0 2.134 0.955 2.134 2.134v0c0 1.178-0.955 2.134-2.134 2.134v0zM28.534 28.534c-0.589 0-1.066-0.478-1.066-1.066s0.478-1.066 1.066-1.066c0.589 0 1.066 0.478 1.066 1.066v0c0 0.589-0.478 1.066-1.066 1.066v0z"></path>
</svg>
