<!-- Generated by IcoMoon.io -->
<svg version="1.1" xmlns="http://www.w3.org/2000/svg" width="40" height="40" viewBox="0 0 40 40">
<title>ul-chat-info</title>
<path fill="#91908d" d="M27.776 11.158c0.194 0.195 0.462 0.315 0.758 0.315s0.564-0.121 0.758-0.315v0c0.091-0.1 0.166-0.217 0.221-0.344l0.003-0.008c0.052-0.119 0.083-0.258 0.086-0.405v-0.001c0-0.002 0-0.004 0-0.006 0-0.293-0.118-0.558-0.31-0.751v0l-0.16-0.128c-0.055-0.038-0.118-0.070-0.186-0.094l-0.006-0.002c-0.122-0.053-0.264-0.083-0.414-0.083-0.292 0-0.557 0.118-0.75 0.307v0c-0.191 0.193-0.31 0.458-0.31 0.751 0 0.002 0 0.004 0 0.006v0c0.002 0.147 0.033 0.286 0.088 0.412l-0.002-0.007c0.058 0.135 0.133 0.252 0.225 0.353l-0.001-0.001zM28.534 12.534c-0.589 0-1.066 0.478-1.066 1.066v0 4.266c0 0.589 0.478 1.066 1.066 1.066s1.066-0.478 1.066-1.066v0-4.266c0-0.589-0.478-1.066-1.066-1.066v0zM28.598 21.066c-0.038-0.005-0.082-0.007-0.126-0.007-0.543 0-0.991 0.406-1.058 0.93l-0.001 0.006c-0.478 3.705-3.612 6.538-7.409 6.538-0.002 0-0.003 0-0.005 0h-5.962l0.682-0.672c0.192-0.193 0.31-0.458 0.31-0.752s-0.118-0.559-0.31-0.752v0c-1.358-1.352-2.198-3.223-2.198-5.29 0-4.124 3.343-7.466 7.466-7.466 0.004 0 0.008 0 0.012 0h-0.001c0.003 0 0.007 0 0.011 0 1.367 0 2.648 0.373 3.746 1.022l-0.034-0.018c0.129 0.060 0.28 0.094 0.439 0.094 0.589 0 1.066-0.478 1.066-1.066 0-0.354-0.172-0.666-0.436-0.861l-0.003-0.002c-1.368-0.818-3.018-1.302-4.78-1.302-0.003 0-0.006 0-0.010 0h0.001c-5.288 0.018-9.569 4.309-9.569 9.6 0 2.277 0.792 4.368 2.116 6.014l-0.014-0.018-1.824 1.782c-0.19 0.193-0.307 0.457-0.307 0.749 0 0.15 0.030 0.291 0.086 0.421l-0.002-0.007c0.163 0.39 0.541 0.659 0.981 0.662h8.534c4.881 0 8.911-3.642 9.52-8.358l0.005-0.048c0.006-0.041 0.009-0.088 0.009-0.136 0-0.543-0.406-0.992-0.931-1.058l-0.006-0.001z"></path>
</svg>
