<!-- Generated by IcoMoon.io -->
<svg version="1.1" xmlns="http://www.w3.org/2000/svg" width="40" height="40" viewBox="0 0 40 40">
<title>ul-calendar-slash</title>
<path fill="#91908d" d="M19.638 14.666h3.562v1.066c0 0.589 0.478 1.066 1.066 1.066s1.066-0.478 1.066-1.066v0-1.066h1.066c0.589 0 1.066 0.478 1.066 1.066v0 3.2h-1.43c-0.589 0-1.066 0.478-1.066 1.066s0.478 1.066 1.066 1.066v0h1.43v1.43c0 0.589 0.478 1.066 1.066 1.066s1.066-0.478 1.066-1.066v0-6.762c0-1.767-1.433-3.2-3.2-3.2v0h-1.066v-1.066c0-0.589-0.478-1.066-1.066-1.066s-1.066 0.478-1.066 1.066v0 1.066h-3.562c-0.589 0-1.066 0.478-1.066 1.066s0.478 1.066 1.066 1.066v0zM30.358 28.842l-19.2-19.2c-0.194-0.194-0.462-0.314-0.758-0.314-0.591 0-1.071 0.479-1.071 1.071 0 0.296 0.12 0.563 0.314 0.758v0l2.038 2.026c-0.778 0.588-1.277 1.51-1.28 2.549v10.667c0 1.767 1.433 3.2 3.2 3.2v0h12.8c0.501-0.003 0.974-0.121 1.394-0.328l-0.018 0.008 1.066 1.066c0.194 0.195 0.462 0.315 0.758 0.315s0.564-0.121 0.758-0.315v0c0.192-0.193 0.31-0.458 0.31-0.752s-0.118-0.559-0.31-0.752v0zM12.534 15.734c0.005-0.454 0.294-0.841 0.697-0.99l0.007-0.002 4.192 4.192h-4.896zM13.6 27.466c-0.589 0-1.066-0.478-1.066-1.066v0-5.334h7.030l6.4 6.4z"></path>
</svg>
