<!-- Generated by IcoMoon.io -->
<svg version="1.1" xmlns="http://www.w3.org/2000/svg" width="40" height="40" viewBox="0 0 40 40">
<title>ul-comment-slash</title>
<path fill="#91908d" d="M18.070 12.778c0.574-0.156 1.234-0.246 1.915-0.246 0.006 0 0.011 0 0.017 0h-0.001c4.124 0 7.466 3.343 7.466 7.466v0c0 0.005 0 0.010 0 0.016 0 0.681-0.090 1.34-0.258 1.968l0.012-0.053c-0.024 0.085-0.038 0.182-0.038 0.283 0 0.489 0.329 0.901 0.778 1.027l0.007 0.002c0.042 0.005 0.090 0.008 0.138 0.008s0.097-0.003 0.145-0.009l-0.006 0.001c0.011 0.001 0.024 0.001 0.037 0.001 0.49 0 0.904-0.331 1.029-0.782l0.002-0.007c0.183-0.698 0.289-1.499 0.289-2.326 0-0.045 0-0.090-0.001-0.134v0.007c0-5.302-4.298-9.6-9.6-9.6v0c-0.012 0-0.026 0-0.039 0-0.87 0-1.712 0.117-2.513 0.336l0.066-0.015c-0.441 0.138-0.755 0.542-0.755 1.020 0 0.104 0.015 0.204 0.042 0.299l-0.002-0.007c0.131 0.451 0.541 0.775 1.026 0.775 0.086 0 0.17-0.010 0.25-0.030l-0.007 0.002zM30.358 28.842l-19.2-19.2c-0.194-0.194-0.462-0.314-0.758-0.314-0.591 0-1.071 0.479-1.071 1.071 0 0.296 0.12 0.563 0.314 0.758v0l2.89 2.848c-1.31 1.627-2.102 3.718-2.102 5.994s0.792 4.368 2.116 6.014l-0.014-0.018-1.824 1.782c-0.19 0.193-0.307 0.457-0.307 0.749 0 0.15 0.030 0.291 0.086 0.421l-0.002-0.007c0.163 0.39 0.541 0.659 0.981 0.662h8.534c2.28-0.010 4.371-0.813 6.012-2.147l-0.018 0.014 2.848 2.858c0.194 0.195 0.462 0.315 0.758 0.315s0.564-0.121 0.758-0.315v0c0.186-0.192 0.3-0.453 0.3-0.742s-0.114-0.55-0.3-0.742v0zM20 27.466h-5.962l0.682-0.672c0.192-0.193 0.31-0.458 0.31-0.752s-0.118-0.559-0.31-0.752v0c-1.351-1.351-2.187-3.218-2.187-5.28 0-1.69 0.561-3.248 1.507-4.499l-0.014 0.018 10.442 10.442c-1.23 0.93-2.784 1.491-4.469 1.494h-0.001z"></path>
</svg>
