<!-- Generated by IcoMoon.io -->
<svg version="1.1" xmlns="http://www.w3.org/2000/svg" width="40" height="40" viewBox="0 0 40 40">
<title>ul-corner-up-right</title>
<path fill="#91908d" d="M28.118 14.934c-0.057-0.137-0.136-0.254-0.234-0.352l-4.938-4.938c-0.193-0.192-0.458-0.31-0.752-0.31s-0.559 0.118-0.752 0.31v0c-0.195 0.194-0.315 0.462-0.315 0.758s0.121 0.564 0.315 0.758l3.114 3.114h-8.534c-2.357 0-4.266 1.91-4.266 4.266v0 11.062c0 0.589 0.478 1.066 1.066 1.066s1.066-0.478 1.066-1.066v0-11.062c0-1.178 0.955-2.134 2.134-2.134v0h8.534l-3.114 3.114c-0.195 0.194-0.315 0.462-0.315 0.758 0 0.589 0.478 1.066 1.066 1.066 0.002 0 0.004 0 0.006 0v0c0.293-0.004 0.556-0.126 0.746-0.32v0l4.938-4.928c0.095-0.103 0.174-0.223 0.231-0.354l0.003-0.008c0.050-0.118 0.078-0.256 0.078-0.4s-0.029-0.282-0.081-0.407l0.002 0.007z"></path>
</svg>
