<!-- Generated by IcoMoon.io -->
<svg version="1.1" xmlns="http://www.w3.org/2000/svg" width="40" height="40" viewBox="0 0 40 40">
<title>ul-comment-add</title>
<path fill="#91908d" d="M12.534 15.734c0 0.589 0.478 1.066 1.066 1.066s1.066-0.478 1.066-1.066v0-1.066h1.066c0.589 0 1.066-0.478 1.066-1.066s-0.478-1.066-1.066-1.066v0h-1.066v-1.066c0-0.589-0.478-1.066-1.066-1.066s-1.066 0.478-1.066 1.066v0 1.066h-1.066c-0.589 0-1.066 0.478-1.066 1.066s0.478 1.066 1.066 1.066v0h1.066zM26.4 12.534h-6.4c-0.589 0-1.066 0.478-1.066 1.066s0.478 1.066 1.066 1.066v0h6.4c0.589 0 1.066 0.478 1.066 1.066v0 10.368l-1.674-1.546c-0.19-0.178-0.445-0.287-0.725-0.288h-9.334c-0.589 0-1.066-0.478-1.066-1.066v0-3.2c0-0.589-0.478-1.066-1.066-1.066s-1.066 0.478-1.066 1.066v0 3.2c0 1.767 1.433 3.2 3.2 3.2v0h8.918l3.2 2.912c0.179 0.169 0.418 0.276 0.68 0.288h0.002c0.154-0.002 0.301-0.033 0.434-0.088l-0.008 0.003c0.38-0.169 0.64-0.543 0.64-0.978 0-0.002 0-0.002 0-0.004v0-12.8c0-1.767-1.433-3.2-3.2-3.2v0z"></path>
</svg>
