<!-- Generated by IcoMoon.io -->
<svg version="1.1" xmlns="http://www.w3.org/2000/svg" width="40" height="40" viewBox="0 0 40 40">
<title>ul-dropbox</title>
<path fill="#91908d" d="M30.25 19.798l-3.466-2.698 3.478-2.73c0.25-0.197 0.408-0.499 0.408-0.839 0-0.027-0.001-0.054-0.003-0.082v0.003c-0.036-0.362-0.238-0.67-0.529-0.85l-0.005-0.002-5.482-3.126c-0.15-0.086-0.331-0.137-0.523-0.137-0.27 0-0.517 0.101-0.705 0.266l0.001-0.001-3.424 2.986-3.424-2.986c-0.186-0.165-0.434-0.265-0.704-0.265-0.192 0-0.373 0.051-0.528 0.14l0.006-0.002-5.482 3.126c-0.294 0.183-0.497 0.491-0.533 0.849l-0.001 0.005c-0.002 0.023-0.003 0.050-0.003 0.078 0 0.339 0.158 0.642 0.406 0.838l0.002 0.002 3.478 2.73-3.466 2.656c-0.255 0.197-0.418 0.503-0.418 0.847 0 0.025 0.001 0.050 0.002 0.074v-0.003c0.026 0.366 0.231 0.678 0.528 0.85l0.005 0.002 3.638 2.134v2.634c0.002 0.382 0.204 0.717 0.507 0.904l0.005 0.002 5.43 3.338c0.153 0.090 0.337 0.143 0.534 0.143s0.38-0.053 0.538-0.146l-0.005 0.002 5.43-3.338c0.308-0.19 0.51-0.524 0.512-0.906v-2.646l3.638-2.080c0.302-0.176 0.508-0.488 0.533-0.85v-0.003c0.003-0.030 0.005-0.066 0.005-0.102 0-0.326-0.146-0.618-0.377-0.814l-0.002-0.002zM24.266 11.702l3.446 1.962-2.72 2.134-3.2-1.962zM23.104 17.162l-3.104 2.134-3.104-2.134 3.104-1.91zM12.31 13.664l3.424-1.962 2.464 2.134-3.2 1.962zM12.31 20.48l2.666-2.048 3.2 2.218-2.368 1.846zM24.352 25.664l-4.352 2.688-4.362-2.688v-0.854c0.076 0.019 0.164 0.030 0.254 0.030 0.247 0 0.474-0.084 0.654-0.225l-0.002 0.002 3.456-2.666 3.456 2.666c0.178 0.139 0.404 0.223 0.65 0.224v0c0.038 0.005 0.083 0.008 0.128 0.008s0.090-0.003 0.133-0.008l-0.005 0.001zM24.192 22.464l-2.378-1.814 3.2-2.218 2.678 2.070z"></path>
</svg>
