<!-- Generated by IcoMoon.io -->
<svg version="1.1" xmlns="http://www.w3.org/2000/svg" width="40" height="40" viewBox="0 0 40 40">
<title>ul-drill</title>
<path fill="#91908d" d="M27.466 11.466h-10.666c-0.589 0-1.066 0.478-1.066 1.066v0 2.134h-5.334c-0.589 0-1.066 0.478-1.066 1.066s0.478 1.066 1.066 1.066v0h5.334v4.266c0 0.589 0.478 1.066 1.066 1.066s1.066-0.478 1.066-1.066v0-1.066h4.266v7.466c0 0.589 0.478 1.066 1.066 1.066v0h2.134c1.767 0 3.2-1.433 3.2-3.2v0-5.526c1.25-0.451 2.13-1.626 2.134-3.007v-2.134c0-1.767-1.433-3.2-3.2-3.2v0zM26.4 25.334c0 0.589-0.478 1.066-1.066 1.066v0h-1.066v-6.4h2.134zM28.534 16.8c0 0.589-0.478 1.066-1.066 1.066v0h-9.6v-4.266h6.4v1.066c0 0.589 0.478 1.066 1.066 1.066s1.066-0.478 1.066-1.066v0-1.066h1.066c0.589 0 1.066 0.478 1.066 1.066v0z"></path>
</svg>
