<!-- Generated by IcoMoon.io -->
<svg version="1.1" xmlns="http://www.w3.org/2000/svg" width="40" height="40" viewBox="0 0 40 40">
<title>ul-dashboard</title>
<path fill="#91908d" d="M27.561 12.485c-0.008-0.008-0.010-0.019-0.018-0.027s-0.019-0.010-0.028-0.018c-1.925-1.919-4.581-3.106-7.514-3.106s-5.59 1.186-7.514 3.106v0c-0.009 0.008-0.019 0.010-0.028 0.018s-0.010 0.019-0.018 0.027c-1.919 1.929-3.106 4.588-3.106 7.525 0 5.891 4.776 10.666 10.666 10.666s10.666-4.776 10.666-10.666c0-2.937-1.186-5.596-3.106-7.525l0.001 0.001zM20 28.534c-2.684-0.001-5.078-1.243-6.638-3.183l-0.013-0.017h4.283c0.582 0.655 1.427 1.066 2.368 1.066s1.786-0.411 2.365-1.063l0.003-0.003h4.283c-1.574 1.957-3.967 3.199-6.65 3.2v0zM18.934 23.2c0-0.589 0.478-1.066 1.066-1.066s1.066 0.478 1.066 1.066c0 0.589-0.478 1.066-1.066 1.066v0c-0.589-0.001-1.066-0.478-1.066-1.066v0zM27.904 23.202l-0.011-0.002h-4.694c-0.004-1.38-0.883-2.554-2.111-2.997l-0.022-0.007v-3.397c0-0.589-0.478-1.066-1.066-1.066s-1.066 0.478-1.066 1.066v0 3.397c-1.25 0.45-2.129 1.623-2.134 3.003v0.001l-4.704 0.002c-0.259-0.621-0.454-1.342-0.55-2.094l-0.005-0.042h0.993c0.589 0 1.066-0.478 1.066-1.066s-0.478-1.066-1.066-1.066v0h-0.993c0.205-1.59 0.822-3.006 1.741-4.176l-0.014 0.018 0.698 0.698c0.193 0.193 0.46 0.312 0.754 0.312 0.589 0 1.066-0.478 1.066-1.066 0-0.294-0.119-0.561-0.313-0.754l-0.698-0.698c1.151-0.904 2.567-1.522 4.114-1.722l0.042-0.005v0.993c0 0.589 0.478 1.066 1.066 1.066s1.066-0.478 1.066-1.066v0-0.993c1.59 0.205 3.006 0.822 4.175 1.741l-0.018-0.014-0.698 0.698c-0.193 0.193-0.313 0.46-0.313 0.754 0 0.589 0.478 1.066 1.066 1.066 0.294 0 0.561-0.119 0.754-0.312l0.698-0.698c0.905 1.151 1.522 2.568 1.722 4.115l0.005 0.042h-0.993c-0.589 0-1.066 0.478-1.066 1.066s0.478 1.066 1.066 1.066v0h0.993c-0.101 0.794-0.295 1.515-0.575 2.192l0.021-0.056z"></path>
</svg>
