<!-- Generated by IcoMoon.io -->
<svg version="1.1" xmlns="http://www.w3.org/2000/svg" width="40" height="40" viewBox="0 0 40 40">
<title>ul-dollar-alt</title>
<path fill="#91908d" d="M22.134 18.934h-1.066v-4.266h2.134c0.589 0 1.066 0.478 1.066 1.066v0c0 0.589 0.478 1.066 1.066 1.066s1.066-0.478 1.066-1.066v0c0-1.767-1.433-3.2-3.2-3.2v0h-2.134v-2.134c0-0.589-0.478-1.066-1.066-1.066s-1.066 0.478-1.066 1.066v0 2.134h-1.066c-2.357 0-4.266 1.91-4.266 4.266s1.91 4.266 4.266 4.266v0h1.066v4.266h-2.134c-0.589 0-1.066-0.478-1.066-1.066v0c0-0.589-0.478-1.066-1.066-1.066s-1.066 0.478-1.066 1.066v0c0 1.767 1.433 3.2 3.2 3.2v0h2.134v2.134c0 0.589 0.478 1.066 1.066 1.066s1.066-0.478 1.066-1.066v0-2.134h1.066c2.357 0 4.266-1.91 4.266-4.266s-1.91-4.266-4.266-4.266v0zM18.934 18.934h-1.066c-1.178 0-2.134-0.955-2.134-2.134s0.955-2.134 2.134-2.134v0h1.066zM22.134 25.334h-1.066v-4.266h1.066c1.178 0 2.134 0.955 2.134 2.134s-0.955 2.134-2.134 2.134v0z"></path>
</svg>
