<!-- Generated by IcoMoon.io -->
<svg version="1.1" xmlns="http://www.w3.org/2000/svg" width="40" height="40" viewBox="0 0 40 40">
<title>ul-dumbbell</title>
<path fill="#91908d" d="M25.846 14.186v0 0l-3.030-3.030c-0.194-0.195-0.462-0.315-0.758-0.315s-0.564 0.121-0.758 0.315v0c-0.192 0.193-0.31 0.458-0.31 0.752s0.118 0.559 0.31 0.752l2.262 2.262-8.64 8.64-2.262-2.262c-0.193-0.192-0.458-0.31-0.752-0.31s-0.559 0.118-0.752 0.31v0c-0.195 0.194-0.315 0.462-0.315 0.758s0.121 0.564 0.315 0.758l5.994 5.994c0.193 0.197 0.461 0.318 0.757 0.32v0c0.002 0 0.004 0 0.006 0 0.589 0 1.066-0.478 1.066-1.066 0-0.296-0.121-0.564-0.315-0.758l-2.23-2.23 8.64-8.64 2.262 2.262c0.193 0.191 0.458 0.31 0.752 0.31 0.59 0 1.067-0.478 1.067-1.067 0-0.296-0.121-0.564-0.315-0.758v0zM11.158 25.824c-0.194-0.194-0.462-0.314-0.758-0.314-0.591 0-1.071 0.479-1.071 1.071 0 0.296 0.12 0.563 0.314 0.758l3.018 3.018c0.193 0.191 0.458 0.31 0.751 0.31 0.002 0 0.004 0 0.006 0v0c0.002 0 0.004 0 0.006 0 0.293 0 0.558-0.118 0.751-0.31v0c0.195-0.194 0.315-0.462 0.315-0.758s-0.121-0.564-0.315-0.758v0zM30.358 12.662l-3.018-3.018c-0.194-0.194-0.462-0.314-0.758-0.314-0.591 0-1.071 0.479-1.071 1.071 0 0.296 0.12 0.563 0.314 0.758l3.018 3.018c0.194 0.195 0.462 0.315 0.758 0.315s0.564-0.121 0.758-0.315v0c0.195-0.194 0.315-0.462 0.315-0.758s-0.121-0.564-0.315-0.758v0z"></path>
</svg>
