<!-- Generated by IcoMoon.io -->
<svg version="1.1" xmlns="http://www.w3.org/2000/svg" width="40" height="40" viewBox="0 0 40 40">
<title>ul-data-sharing</title>
<path fill="#91908d" d="M29.088 11.328c-0.879-1.807-2.702-3.031-4.81-3.031-2.162 0-4.024 1.286-4.861 3.136l-0.014 0.034h-4.736c-1.767 0-3.2 1.433-3.2 3.2v0 4.266c0 0.589 0.478 1.066 1.066 1.066s1.066-0.478 1.066-1.066v0-4.266c0-0.589 0.478-1.066 1.066-1.066v0h2.966c-0.512 0.562-0.827 1.31-0.832 2.132v0.001c0 1.767 1.433 3.2 3.2 3.2v0h7.818c0.008 0 0.018 0 0.028 0 2.156 0 3.904-1.748 3.904-3.904 0-1.712-1.102-3.166-2.635-3.694l-0.027-0.008zM27.818 16.8h-7.818c-0.589 0-1.066-0.478-1.066-1.066s0.478-1.066 1.066-1.066v0c0.589 0 1.066-0.478 1.066-1.066v0c0-0.010 0-0.023 0-0.036 0-1.767 1.433-3.2 3.2-3.2 1.398 0 2.587 0.897 3.022 2.147l0.007 0.022c0.126 0.37 0.44 0.646 0.826 0.714l0.006 0.001c0.841 0.143 1.472 0.866 1.472 1.736 0 0.012 0 0.024 0 0.036v-0.002c0 0.984-0.798 1.782-1.782 1.782v0zM27.466 21.066c-0.589 0-1.066 0.478-1.066 1.066v0 3.2c0 0.589-0.478 1.066-1.066 1.066v0h-2.41c-0.426-1.069-1.278-1.89-2.341-2.264l-0.027-0.008c-0.874-1.823-2.705-3.060-4.825-3.060-2.625 0-4.806 1.896-5.25 4.393l-0.005 0.032c-1.289 0.433-2.201 1.63-2.201 3.040 0 1.765 1.429 3.196 3.193 3.2h7.819c1.907 0 3.495-1.368 3.836-3.176l0.004-0.024h2.208c1.767 0 3.2-1.433 3.2-3.2v0-3.2c0-0.589-0.478-1.066-1.066-1.066v0zM19.286 29.6h-7.818c-0.589 0-1.066-0.478-1.066-1.066s0.478-1.066 1.066-1.066v0c0.589 0 1.066-0.478 1.066-1.066v0c0-0.010 0-0.023 0-0.036 0-1.767 1.433-3.2 3.2-3.2 1.398 0 2.587 0.897 3.022 2.147l0.007 0.022c0.126 0.37 0.44 0.646 0.826 0.714l0.006 0.001c0.841 0.143 1.472 0.866 1.472 1.736 0 0.012 0 0.024 0 0.036v-0.002c0 0.984-0.798 1.782-1.782 1.782v0z"></path>
</svg>
