<!-- Generated by IcoMoon.io -->
<svg version="1.1" xmlns="http://www.w3.org/2000/svg" width="40" height="40" viewBox="0 0 40 40">
<title>ul-dice-six</title>
<path fill="#91908d" d="M16.8 18.934c-0.589 0-1.066 0.478-1.066 1.066s0.478 1.066 1.066 1.066c0.589 0 1.066-0.478 1.066-1.066v0c0-0.589-0.478-1.066-1.066-1.066v0zM16.8 23.2c-0.589 0-1.066 0.478-1.066 1.066s0.478 1.066 1.066 1.066c0.589 0 1.066-0.478 1.066-1.066v0c0-0.589-0.478-1.066-1.066-1.066v0zM16.8 14.666c-0.589 0-1.066 0.478-1.066 1.066s0.478 1.066 1.066 1.066c0.589 0 1.066-0.478 1.066-1.066v0c0-0.589-0.478-1.066-1.066-1.066v0zM23.2 14.666c-0.589 0-1.066 0.478-1.066 1.066s0.478 1.066 1.066 1.066c0.589 0 1.066-0.478 1.066-1.066v0c0-0.589-0.478-1.066-1.066-1.066v0zM25.334 9.334h-10.666c-2.946 0-5.334 2.388-5.334 5.334v0 10.666c0 2.946 2.388 5.334 5.334 5.334v0h10.666c2.946 0 5.334-2.388 5.334-5.334v0-10.666c0-2.946-2.388-5.334-5.334-5.334v0zM28.534 25.334c0 1.767-1.433 3.2-3.2 3.2v0h-10.666c-1.767 0-3.2-1.433-3.2-3.2v0-10.666c0-1.767 1.433-3.2 3.2-3.2v0h10.666c1.767 0 3.2 1.433 3.2 3.2v0zM23.2 18.934c-0.589 0-1.066 0.478-1.066 1.066s0.478 1.066 1.066 1.066c0.589 0 1.066-0.478 1.066-1.066v0c0-0.589-0.478-1.066-1.066-1.066v0zM23.2 23.2c-0.589 0-1.066 0.478-1.066 1.066s0.478 1.066 1.066 1.066c0.589 0 1.066-0.478 1.066-1.066v0c0-0.589-0.478-1.066-1.066-1.066v0z"></path>
</svg>
