<!-- Generated by IcoMoon.io -->
<svg version="1.1" xmlns="http://www.w3.org/2000/svg" width="40" height="40" viewBox="0 0 40 40">
<title>ul-envelope-info</title>
<path fill="#91908d" d="M29.6 21.6c-0.589 0-1.066 0.478-1.066 1.066v0 4.266c0 0.589-0.478 1.066-1.066 1.066v0h-14.934c-0.589 0-1.066-0.478-1.066-1.066v0-10.23l6.272 6.272c0.579 0.578 1.378 0.936 2.262 0.936s1.682-0.358 2.262-0.936v0l3.83-3.818c0.194-0.194 0.314-0.462 0.314-0.758 0-0.591-0.479-1.071-1.071-1.071-0.296 0-0.563 0.12-0.758 0.314v0l-3.818 3.83c-0.194 0.195-0.462 0.315-0.758 0.315s-0.564-0.121-0.758-0.315l-6.272-6.272h12.362c0.589 0 1.066-0.478 1.066-1.066s-0.478-1.066-1.066-1.066v0h-12.8c-1.767 0-3.2 1.433-3.2 3.2v0 10.666c0 1.767 1.433 3.2 3.2 3.2v0h14.934c1.767 0 3.2-1.433 3.2-3.2v0-4.266c0-0.589-0.478-1.066-1.066-1.066v0zM29.6 12c0.294-0.004 0.561-0.122 0.758-0.31l-0.001 0.001 0.128-0.17c0.041-0.052 0.073-0.112 0.094-0.177l0.002-0.004c0.036-0.055 0.066-0.119 0.084-0.187l0.001-0.005c0.002-0.032 0.004-0.069 0.004-0.106s-0.002-0.074-0.004-0.111v0.005c-0.004-0.294-0.122-0.561-0.31-0.758l0.001 0.001c-0.194-0.195-0.462-0.315-0.758-0.315s-0.564 0.121-0.758 0.315v0c-0.195 0.194-0.315 0.462-0.315 0.758s0.121 0.564 0.315 0.758v0c0.197 0.188 0.463 0.305 0.757 0.31h0.001zM29.6 13.066c-0.589 0-1.066 0.478-1.066 1.066v0 4.266c0 0.589 0.478 1.066 1.066 1.066s1.066-0.478 1.066-1.066v0-4.266c0-0.589-0.478-1.066-1.066-1.066v0z"></path>
</svg>
