<!-- Generated by IcoMoon.io -->
<svg version="1.1" xmlns="http://www.w3.org/2000/svg" width="40" height="40" viewBox="0 0 40 40">
<title>ul-envelope-question</title>
<path fill="#91908d" d="M25.088 12.928c0.151 0.087 0.333 0.139 0.526 0.139 0.393 0 0.736-0.213 0.922-0.529l0.002-0.005c0.188-0.321 0.531-0.534 0.924-0.534 0.002 0 0.003 0 0.005 0v0c0.589 0 1.066 0.478 1.066 1.066s-0.478 1.066-1.066 1.066v0c-0.589 0-1.066 0.478-1.066 1.066s0.478 1.066 1.066 1.066v0c1.766-0.001 3.198-1.434 3.198-3.2s-1.433-3.2-3.2-3.2c-1.178 0-2.208 0.637-2.763 1.585l-0.008 0.015c-0.090 0.154-0.144 0.338-0.144 0.534 0 0.394 0.214 0.739 0.534 0.924l0.005 0.002zM29.6 21.6c-0.589 0-1.066 0.478-1.066 1.066v0 4.266c0 0.589-0.478 1.066-1.066 1.066v0h-14.934c-0.589 0-1.066-0.478-1.066-1.066v0-10.23l6.272 6.282c0.579 0.578 1.378 0.936 2.262 0.936s1.682-0.358 2.262-0.936l1.75-1.75c0.194-0.194 0.314-0.462 0.314-0.758 0-0.591-0.479-1.071-1.071-1.071-0.296 0-0.563 0.12-0.758 0.314l-1.75 1.75c-0.192 0.189-0.456 0.305-0.746 0.305s-0.554-0.116-0.747-0.305v0l-6.282-6.272h8.096c0.589 0 1.066-0.478 1.066-1.066s-0.478-1.066-1.066-1.066v0h-8.534c-1.767 0-3.2 1.433-3.2 3.2v0 10.666c0 1.767 1.433 3.2 3.2 3.2v0h14.934c1.767 0 3.2-1.433 3.2-3.2v0-4.266c0-0.589-0.478-1.066-1.066-1.066v0zM26.71 17.642c-0.195 0.194-0.315 0.462-0.315 0.758s0.121 0.564 0.315 0.758v0l0.16 0.128c0.055 0.038 0.118 0.070 0.186 0.094l0.006 0.002c0.055 0.029 0.12 0.051 0.188 0.063l0.004 0.001h0.214c0.002 0 0.004 0 0.006 0 0.589 0 1.066-0.478 1.066-1.066 0-0.296-0.121-0.564-0.315-0.758v0c-0.192-0.189-0.456-0.305-0.746-0.305-0.302 0-0.574 0.125-0.767 0.326v0z"></path>
</svg>
