<!-- Generated by IcoMoon.io -->
<svg version="1.1" xmlns="http://www.w3.org/2000/svg" width="40" height="40" viewBox="0 0 40 40">
<title>ul-envelope-redo</title>
<path fill="#91908d" d="M29.066 22.41c-0.589 0-1.066 0.478-1.066 1.066v0 4.266c0 0.589-0.478 1.066-1.066 1.066v0h-14.934c-0.589 0-1.066-0.478-1.066-1.066v0-10.23l6.272 6.272c0.576 0.577 1.371 0.935 2.25 0.938h0.001c0.002 0 0.006 0 0.008 0 0.9 0 1.714-0.372 2.295-0.97l0.001-0.001c0.186-0.192 0.3-0.453 0.3-0.742s-0.114-0.55-0.3-0.742v0c-0.194-0.198-0.464-0.321-0.762-0.321s-0.569 0.123-0.762 0.321v0c-0.192 0.189-0.456 0.305-0.746 0.305s-0.554-0.116-0.747-0.305v0l-6.304-6.262h4.896c0.589 0 1.066-0.478 1.066-1.066s-0.478-1.066-1.066-1.066v0h-5.334c-1.767 0-3.2 1.433-3.2 3.2v0 10.666c0 1.767 1.433 3.2 3.2 3.2v0h14.934c1.767 0 3.2-1.433 3.2-3.2v0-4.266c0-0.589-0.478-1.066-1.066-1.066v0zM30.134 10.678c-0.589 0-1.066 0.478-1.066 1.066v0 0c-0.88-0.666-1.994-1.066-3.2-1.066-2.946 0-5.334 2.388-5.334 5.334s2.388 5.334 5.334 5.334v0c1.354-0.005 2.588-0.514 3.526-1.349l-0.006 0.005c0.225-0.197 0.366-0.485 0.366-0.806 0-0.59-0.479-1.070-1.070-1.070-0.27 0-0.517 0.1-0.706 0.266l0.002-0.001c-0.562 0.5-1.307 0.806-2.123 0.806-1.767 0-3.2-1.433-3.2-3.2s1.433-3.2 3.2-3.2c0.949 0 1.801 0.413 2.387 1.069l0.002 0.003h-1.312c-0.589 0-1.066 0.478-1.066 1.066s0.478 1.066 1.066 1.066v0h3.2c0.589 0 1.066-0.478 1.066-1.066v0-3.2c-0.006-0.585-0.482-1.056-1.066-1.056 0 0 0 0 0 0v0z"></path>
</svg>
