<!-- Generated by IcoMoon.io -->
<svg version="1.1" xmlns="http://www.w3.org/2000/svg" width="40" height="40" viewBox="0 0 40 40">
<title>ul-envelope-alt</title>
<path fill="#91908d" d="M27.466 11.466h-14.934c-1.767 0-3.2 1.433-3.2 3.2v0 10.666c0 1.767 1.433 3.2 3.2 3.2v0h14.934c1.767 0 3.2-1.433 3.2-3.2v0-10.666c0-1.767-1.433-3.2-3.2-3.2v0zM12.534 13.6h14.934c0.589 0 1.066 0.478 1.066 1.066v0l-8.534 5.206-8.534-5.206c0-0.589 0.478-1.066 1.066-1.066v0zM28.534 25.334c0 0.589-0.478 1.066-1.066 1.066v0h-14.934c-0.589 0-1.066-0.478-1.066-1.066v0-8.234l7.978 4.874c0.153 0.090 0.337 0.143 0.534 0.143s0.38-0.053 0.538-0.146l-0.005 0.002 8.022-4.874z"></path>
</svg>
