<!-- Generated by IcoMoon.io -->
<svg version="1.1" xmlns="http://www.w3.org/2000/svg" width="40" height="40" viewBox="0 0 40 40">
<title>ul-envelope-heart</title>
<path fill="#91908d" d="M29.066 21.066c-0.589 0-1.066 0.478-1.066 1.066v0 4.266c0 0.589-0.478 1.066-1.066 1.066v0h-14.934c-0.589 0-1.066-0.478-1.066-1.066v0-10.23l6.272 6.282c0.578 0.573 1.373 0.927 2.25 0.928v0c0.002 0 0.006 0 0.008 0 0.895 0 1.704-0.367 2.285-0.959l0.001-0.001 0.95-0.938c0.123-0.171 0.197-0.386 0.197-0.617 0-0.589-0.478-1.066-1.066-1.066-0.234 0-0.45 0.075-0.626 0.203l0.003-0.002-0.992 0.97c-0.192 0.189-0.456 0.305-0.746 0.305s-0.554-0.116-0.747-0.305v0l-6.282-6.304h4.896c0.589 0 1.066-0.478 1.066-1.066s-0.478-1.066-1.066-1.066v0h-5.334c-1.767 0-3.2 1.433-3.2 3.2v0 10.666c0 1.767 1.433 3.2 3.2 3.2v0h14.934c1.767 0 3.2-1.433 3.2-3.2v0-4.266c0-0.589-0.478-1.066-1.066-1.066v0zM30.186 11.466c-0.638-0.615-1.507-0.995-2.466-0.995-0.613 0-1.189 0.155-1.692 0.428l0.018-0.010c-0.482-0.27-1.058-0.429-1.67-0.429-1.914 0-3.466 1.552-3.466 3.466 0 0.949 0.382 1.809 0.999 2.435v0l3.424 3.328c0.197 0.188 0.463 0.305 0.757 0.31h0.001c0.002 0 0.004 0 0.006 0 0.293 0 0.558-0.118 0.751-0.31l3.382-3.382c0.594-0.623 0.961-1.468 0.961-2.399 0-0.953-0.383-1.816-1.003-2.444v0zM28.682 14.794l-2.634 2.634-2.624-2.634c-0.238-0.242-0.384-0.573-0.384-0.938 0-0.739 0.599-1.339 1.339-1.339 0.374 0 0.712 0.153 0.954 0.4v0c0.194 0.195 0.462 0.315 0.758 0.315s0.564-0.121 0.758-0.315v0c0.244-0.231 0.574-0.374 0.938-0.374s0.694 0.142 0.939 0.374l-0.001-0.001c0.224 0.239 0.362 0.562 0.362 0.917 0 0.376-0.154 0.716-0.404 0.96v0z"></path>
</svg>
