<!-- Generated by IcoMoon.io -->
<svg version="1.1" xmlns="http://www.w3.org/2000/svg" width="40" height="40" viewBox="0 0 40 40">
<title>ul-exit</title>
<path fill="#91908d" d="M11.466 20c0 0.589 0.478 1.066 1.066 1.066v0h8.096l-2.454 2.442c-0.195 0.194-0.315 0.462-0.315 0.758s0.121 0.564 0.315 0.758v0c0.194 0.195 0.462 0.315 0.758 0.315s0.564-0.121 0.758-0.315l4.266-4.266c0.094-0.098 0.17-0.215 0.222-0.345l0.002-0.007c0.050-0.12 0.080-0.259 0.080-0.406s-0.030-0.286-0.082-0.412l0.002 0.007c-0.054-0.137-0.13-0.254-0.224-0.352v0l-4.266-4.266c-0.194-0.194-0.462-0.314-0.758-0.314-0.591 0-1.071 0.479-1.071 1.071 0 0.296 0.12 0.563 0.314 0.758v0l2.454 2.442h-8.096c-0.589 0-1.066 0.478-1.066 1.066v0zM25.334 9.334h-10.666c-1.767 0-3.2 1.433-3.2 3.2v0 3.2c0 0.589 0.478 1.066 1.066 1.066s1.066-0.478 1.066-1.066v0-3.2c0-0.589 0.478-1.066 1.066-1.066v0h10.666c0.589 0 1.066 0.478 1.066 1.066v0 14.934c0 0.589-0.478 1.066-1.066 1.066v0h-10.666c-0.589 0-1.066-0.478-1.066-1.066v0-3.2c0-0.589-0.478-1.066-1.066-1.066s-1.066 0.478-1.066 1.066v0 3.2c0 1.767 1.433 3.2 3.2 3.2v0h10.666c1.767 0 3.2-1.433 3.2-3.2v0-14.934c0-1.767-1.433-3.2-3.2-3.2v0z"></path>
</svg>
