<!-- Generated by IcoMoon.io -->
<svg version="1.1" xmlns="http://www.w3.org/2000/svg" width="40" height="40" viewBox="0 0 40 40">
<title>ul-envelope-exclamation</title>
<path fill="#91908d" d="M29.6 21.6c-0.589 0-1.066 0.478-1.066 1.066v0 4.266c0 0.589-0.478 1.066-1.066 1.066v0h-14.934c-0.589 0-1.066-0.478-1.066-1.066v0-10.23l6.272 6.272c0.579 0.578 1.378 0.936 2.262 0.936s1.682-0.358 2.262-0.936v0l3.83-3.818c0.194-0.194 0.314-0.462 0.314-0.758 0-0.591-0.479-1.071-1.071-1.071-0.296 0-0.563 0.12-0.758 0.314v0l-3.818 3.83c-0.194 0.195-0.462 0.315-0.758 0.315s-0.564-0.121-0.758-0.315l-6.272-6.272h12.362c0.589 0 1.066-0.478 1.066-1.066s-0.478-1.066-1.066-1.066v0h-12.8c-1.767 0-3.2 1.433-3.2 3.2v0 10.666c0 1.767 1.433 3.2 3.2 3.2v0h14.934c1.767 0 3.2-1.433 3.2-3.2v0-4.266c0-0.589-0.478-1.066-1.066-1.066v0zM29.6 9.866c-0.589 0-1.066 0.478-1.066 1.066v0 4.266c0 0.589 0.478 1.066 1.066 1.066s1.066-0.478 1.066-1.066v0-4.266c0-0.589-0.478-1.066-1.066-1.066v0zM29.386 17.334c-0.072 0.013-0.137 0.035-0.196 0.066l0.004-0.002c-0.074 0.026-0.137 0.058-0.194 0.098l0.002-0.002-0.16 0.128c-0.188 0.197-0.305 0.463-0.31 0.757v0.001c-0.002 0.030-0.004 0.066-0.004 0.102s0.002 0.071 0.004 0.106v-0.005c0.011 0.076 0.034 0.144 0.066 0.206l-0.002-0.003c0.026 0.074 0.058 0.137 0.098 0.194l-0.002-0.002c0.042 0.060 0.084 0.112 0.13 0.162l-0.002-0.002c0.194 0.195 0.462 0.315 0.758 0.315s0.564-0.121 0.758-0.315v0l0.128-0.16c0.038-0.055 0.070-0.118 0.094-0.186l0.002-0.006c0.030-0.058 0.053-0.127 0.063-0.199l0.001-0.003c0.002-0.030 0.004-0.066 0.004-0.102s-0.002-0.071-0.004-0.106v0.005c0-0.006 0-0.014 0-0.022 0-0.589-0.478-1.066-1.066-1.066-0.075 0-0.15 0.008-0.221 0.023l0.007-0.002z"></path>
</svg>
