<!-- Generated by IcoMoon.io -->
<svg version="1.1" xmlns="http://www.w3.org/2000/svg" width="40" height="40" viewBox="0 0 40 40">
<title>ul-expand-from-corner</title>
<path fill="#91908d" d="M18.934 20h-8.534c-0.589 0-1.066 0.478-1.066 1.066v0 8.534c0 0.589 0.478 1.066 1.066 1.066v0h8.534c0.589 0 1.066-0.478 1.066-1.066v0-8.534c0-0.589-0.478-1.066-1.066-1.066v0zM17.866 28.534h-6.4v-6.4h6.4zM30.582 9.994c-0.11-0.262-0.314-0.466-0.569-0.574l-0.007-0.002c-0.119-0.052-0.258-0.083-0.405-0.086h-6.401c-0.589 0-1.066 0.478-1.066 1.066s0.478 1.066 1.066 1.066v0h3.83l-5.654 5.642c-0.195 0.194-0.315 0.462-0.315 0.758s0.121 0.564 0.315 0.758v0c0.194 0.195 0.462 0.315 0.758 0.315s0.564-0.121 0.758-0.315v0l5.642-5.654v3.83c0 0.589 0.478 1.066 1.066 1.066s1.066-0.478 1.066-1.066v0-6.4c-0.002-0.147-0.033-0.286-0.088-0.412l0.002 0.007z"></path>
</svg>
