<!-- Generated by IcoMoon.io -->
<svg version="1.1" xmlns="http://www.w3.org/2000/svg" width="40" height="40" viewBox="0 0 40 40">
<title>ul-envelope-share</title>
<path fill="#91908d" d="M28.534 22.134c-0.589 0-1.066 0.478-1.066 1.066v0 4.266c0 0.589-0.478 1.066-1.066 1.066v0h-14.934c-0.589 0-1.066-0.478-1.066-1.066v0-10.23l6.272 6.282c0.578 0.573 1.373 0.927 2.25 0.928v0c0.9-0.005 1.714-0.37 2.304-0.96l1.834-1.834c0.194-0.194 0.314-0.462 0.314-0.758 0-0.591-0.479-1.071-1.071-1.071-0.296 0-0.563 0.12-0.758 0.314l-1.866 1.866c-0.192 0.189-0.456 0.305-0.746 0.305s-0.554-0.116-0.747-0.305v0l-6.282-6.272h5.962c0.589 0 1.066-0.478 1.066-1.066s-0.478-1.066-1.066-1.066v0h-6.4c-1.767 0-3.2 1.433-3.2 3.2v0 10.666c0 1.767 1.433 3.2 3.2 3.2v0h14.934c1.767 0 3.2-1.433 3.2-3.2v0-4.266c0-0.589-0.478-1.066-1.066-1.066v0zM28.534 15.734c-0.474 0.002-0.911 0.158-1.264 0.42l0.006-0.004-1.866-0.854 2.058-0.938c0.304 0.187 0.671 0.302 1.065 0.31h0.002c1.178 0 2.134-0.955 2.134-2.134s-0.955-2.134-2.134-2.134c-1.178 0-2.134 0.955-2.134 2.134v0l-2.026 0.928c-0.326-0.235-0.732-0.381-1.17-0.394h-0.003c-1.178 0-2.134 0.955-2.134 2.134s0.955 2.134 2.134 2.134v0c0 0 0.001 0 0.001 0 0.36 0 0.698-0.095 0.99-0.261l-0.010 0.005 2.24 1.066c0.142 1.053 1.035 1.856 2.115 1.856 1.178 0 2.134-0.955 2.134-2.134s-0.955-2.134-2.134-2.134c-0.001 0-0.002 0-0.003 0v0z"></path>
</svg>
