<!-- Generated by IcoMoon.io -->
<svg version="1.1" xmlns="http://www.w3.org/2000/svg" width="40" height="40" viewBox="0 0 40 40">
<title>ul-folder-download</title>
<path fill="#91908d" d="M21.376 21.91l-0.31 0.32v-2.762c0-0.589-0.478-1.066-1.066-1.066s-1.066 0.478-1.066 1.066v0 2.762l-0.31-0.32c-0.194-0.194-0.462-0.314-0.758-0.314-0.591 0-1.071 0.479-1.071 1.071 0 0.296 0.12 0.563 0.314 0.758l2.134 2.134c0.098 0.094 0.215 0.17 0.345 0.222l0.007 0.002c0.119 0.054 0.258 0.086 0.406 0.086s0.286-0.031 0.412-0.088l-0.006 0.002c0.137-0.054 0.254-0.13 0.352-0.224v0l2.134-2.134c0.194-0.194 0.314-0.462 0.314-0.758 0-0.591-0.479-1.071-1.071-1.071-0.296 0-0.563 0.12-0.758 0.314v0zM27.466 13.066h-6.698l-0.342-1.066c-0.453-1.254-1.632-2.134-3.017-2.134-0.004 0-0.009 0-0.013 0h-4.863c-1.767 0-3.2 1.433-3.2 3.2v0 13.866c0 1.767 1.433 3.2 3.2 3.2v0h14.934c1.767 0 3.2-1.433 3.2-3.2v0-10.666c0-1.767-1.433-3.2-3.2-3.2v0zM28.534 26.934c0 0.589-0.478 1.066-1.066 1.066v0h-14.934c-0.589 0-1.066-0.478-1.066-1.066v0-13.866c0-0.589 0.478-1.066 1.066-1.066v0h4.864c0.001 0 0.002 0 0.002 0 0.467 0 0.864 0.3 1.008 0.718l0.002 0.007 0.576 1.75c0.146 0.426 0.544 0.726 1.010 0.726 0.001 0 0.002 0 0.003 0h7.466c0.589 0 1.066 0.478 1.066 1.066v0z"></path>
</svg>
