<!-- Generated by IcoMoon.io -->
<svg version="1.1" xmlns="http://www.w3.org/2000/svg" width="40" height="40" viewBox="0 0 40 40">
<title>ul-folder-plus</title>
<path fill="#91908d" d="M22.134 20.534h-1.066v-1.066c0-0.589-0.478-1.066-1.066-1.066s-1.066 0.478-1.066 1.066v0 1.066h-1.066c-0.589 0-1.066 0.478-1.066 1.066s0.478 1.066 1.066 1.066v0h1.066v1.066c0 0.589 0.478 1.066 1.066 1.066s1.066-0.478 1.066-1.066v0-1.066h1.066c0.589 0 1.066-0.478 1.066-1.066s-0.478-1.066-1.066-1.066v0zM27.466 13.066h-6.698l-0.342-1.066c-0.453-1.254-1.632-2.134-3.017-2.134-0.004 0-0.009 0-0.013 0h-4.863c-1.767 0-3.2 1.433-3.2 3.2v0 13.866c0 1.767 1.433 3.2 3.2 3.2v0h14.934c1.767 0 3.2-1.433 3.2-3.2v0-10.666c0-1.767-1.433-3.2-3.2-3.2v0zM28.534 26.934c0 0.589-0.478 1.066-1.066 1.066v0h-14.934c-0.589 0-1.066-0.478-1.066-1.066v0-13.866c0-0.589 0.478-1.066 1.066-1.066v0h4.864c0.001 0 0.002 0 0.002 0 0.467 0 0.864 0.3 1.008 0.718l0.002 0.007 0.576 1.75c0.146 0.426 0.544 0.726 1.010 0.726 0.001 0 0.002 0 0.003 0h7.466c0.589 0 1.066 0.478 1.066 1.066v0z"></path>
</svg>
