<!-- Generated by IcoMoon.io -->
<svg version="1.1" xmlns="http://www.w3.org/2000/svg" width="40" height="40" viewBox="0 0 40 40">
<title>ul-facebook-messenger-alt</title>
<path fill="#91908d" d="M19.99 8.267c-0.122-0.005-0.267-0.007-0.412-0.007-6.253 0-11.322 5.069-11.322 11.322 0 0.035 0 0.070 0.001 0.104v-0.006c-0.001 0.042-0.001 0.092-0.001 0.142 0 3.263 1.401 6.199 3.634 8.24l0.009 0.008 0.055 1.803c0.034 1.034 0.88 1.859 1.918 1.859 0 0 0 0 0 0v0c0.281 0 0.547-0.060 0.787-0.167l-0.012 0.005 2.049-0.903c0.979 0.271 2.104 0.427 3.265 0.427 0.010 0 0.021 0 0.031 0h-0.002c0.123 0.005 0.267 0.007 0.412 0.007 6.254 0 11.323-5.070 11.323-11.323 0-0.034 0-0.069-0.001-0.103v0.006c0-0.029 0.001-0.063 0.001-0.098 0-6.254-5.070-11.323-11.323-11.323-0.145 0-0.289 0.002-0.433 0.008l0.021-0.001zM19.99 28.961c-0.009 0-0.020 0-0.030 0-0.99 0-1.946-0.137-2.854-0.392l0.074 0.018c-0.15-0.042-0.322-0.066-0.5-0.066-0.281 0-0.548 0.061-0.789 0.169l0.012-0.005-1.828 0.806-0.048-1.593c-0.023-0.542-0.266-1.022-0.64-1.358l-0.002-0.002c-1.843-1.664-2.997-4.062-2.997-6.729 0-0.046 0-0.090 0.001-0.136v0.007c0-0.015 0-0.033 0-0.050 0-5.102 4.135-9.237 9.237-9.237 0.128 0 0.255 0.002 0.382 0.008l-0.018-0.001c0.094-0.003 0.205-0.006 0.315-0.006 5.128 0 9.286 4.158 9.286 9.286s-4.158 9.286-9.286 9.286c-0.111 0-0.222-0.002-0.331-0.006l0.016 0.001zM23.974 16.358l-2.466 2.938-3.57-2.194c-0.158-0.099-0.351-0.158-0.558-0.158-0.327 0-0.62 0.148-0.816 0.38l-0.002 0.002-3.255 3.879c-0.157 0.184-0.252 0.425-0.252 0.688 0 0.589 0.478 1.066 1.066 1.066 0.328 0 0.622-0.148 0.818-0.382l0.002-0.002 2.665-3.174 3.57 2.193c0.159 0.099 0.352 0.158 0.558 0.158 0.327 0 0.62-0.147 0.815-0.379l0.002-0.002 3.058-3.644c0.158-0.185 0.254-0.426 0.254-0.69 0-0.589-0.478-1.066-1.066-1.066-0.33 0-0.624 0.15-0.819 0.384l-0.002 0.002z"></path>
</svg>
