<!-- Generated by IcoMoon.io -->
<svg version="1.1" xmlns="http://www.w3.org/2000/svg" width="40" height="40" viewBox="0 0 40 40">
<title>ul-file-network</title>
<path fill="#91908d" d="M29.6 27.466h-6.592c-0.33-0.908-1.033-1.611-1.919-1.934l-0.022-0.007v-2.326h3.2c1.767 0 3.2-1.433 3.2-3.2v0-4.266s0 0 0-0.064c-0.013-0.107-0.035-0.205-0.067-0.298l0.003 0.010v-0.096c-0.054-0.114-0.122-0.214-0.203-0.299l-6.399-6.399c-0.086-0.081-0.184-0.148-0.292-0.2l-0.007-0.003c-0.014-0.002-0.031-0.003-0.048-0.003s-0.034 0.002-0.050 0.004h0.002c-0.102-0.059-0.221-0.101-0.347-0.117l-0.005-0.001h-4.32c-1.767 0-3.2 1.433-3.2 3.2v0 8.534c0 1.767 1.433 3.2 3.2 3.2v0h3.2v2.326c-0.908 0.33-1.611 1.033-1.934 1.919l-0.007 0.022h-6.592c-0.589 0-1.066 0.478-1.066 1.066s0.478 1.066 1.066 1.066v0h6.592c0.459 1.24 1.633 2.108 3.008 2.108s2.549-0.868 3.001-2.086l0.007-0.022h6.592c0.589 0 1.066-0.478 1.066-1.066s-0.478-1.066-1.066-1.066v0zM21.066 11.904l2.762 2.762h-1.696c-0.589 0-1.066-0.478-1.066-1.066v0zM15.734 21.066c-0.589 0-1.066-0.478-1.066-1.066v0-8.534c0-0.589 0.478-1.066 1.066-1.066v0h3.2v3.2c0 1.767 1.433 3.2 3.2 3.2v0h3.2v3.2c0 0.589-0.478 1.066-1.066 1.066v0zM20 29.6c-0.589 0-1.066-0.478-1.066-1.066s0.478-1.066 1.066-1.066c0.589 0 1.066 0.478 1.066 1.066v0c0 0.589-0.478 1.066-1.066 1.066v0z"></path>
</svg>
