<!-- Generated by IcoMoon.io -->
<svg version="1.1" xmlns="http://www.w3.org/2000/svg" width="40" height="40" viewBox="0 0 40 40">
<title>ul-file-landscape-alt</title>
<path fill="#91908d" d="M30.666 18.87c-0.013-0.107-0.035-0.205-0.067-0.298l0.003 0.010v-0.096c-0.054-0.114-0.122-0.214-0.203-0.299l-6.399-6.399c-0.086-0.081-0.184-0.148-0.292-0.2l-0.007-0.003h-0.106c-0.095-0.052-0.206-0.093-0.323-0.116l-0.007-0.002h-10.73c-1.767 0-3.2 1.433-3.2 3.2v0 10.666c0 1.767 1.433 3.2 3.2 3.2v0h14.934c1.767 0 3.2-1.433 3.2-3.2v0-6.4s0 0 0-0.064zM24.266 15.104l2.762 2.762h-1.696c-0.589 0-1.066-0.478-1.066-1.066v0zM28.534 25.334c0 0.589-0.478 1.066-1.066 1.066v0h-14.934c-0.589 0-1.066-0.478-1.066-1.066v0-10.666c0-0.589 0.478-1.066 1.066-1.066v0h9.6v3.2c0 1.767 1.433 3.2 3.2 3.2v0h3.2zM14.666 20h4.266c0.589 0 1.066-0.478 1.066-1.066s-0.478-1.066-1.066-1.066v0h-4.266c-0.589 0-1.066 0.478-1.066 1.066s0.478 1.066 1.066 1.066v0zM14.666 22.134c-0.589 0-1.066 0.478-1.066 1.066s0.478 1.066 1.066 1.066v0h10.666c0.589 0 1.066-0.478 1.066-1.066s-0.478-1.066-1.066-1.066v0z"></path>
</svg>
