<!-- Generated by IcoMoon.io -->
<svg version="1.1" xmlns="http://www.w3.org/2000/svg" width="40" height="40" viewBox="0 0 40 40">
<title>ul-file-question</title>
<path fill="#91908d" d="M20.608 25.642c-0.193-0.192-0.458-0.31-0.752-0.31s-0.559 0.118-0.752 0.31v0c-0.097 0.098-0.176 0.215-0.232 0.345l-0.003 0.007c-0.047 0.12-0.074 0.26-0.074 0.406s0.027 0.285 0.077 0.413l-0.002-0.008c0.062 0.135 0.14 0.252 0.235 0.353l-0.001-0.001c0.095 0.094 0.209 0.169 0.334 0.222l0.007 0.002c0.122 0.054 0.266 0.085 0.416 0.086v0c0.587-0.003 1.062-0.479 1.062-1.066 0-0.146-0.030-0.286-0.082-0.412l0.002 0.007c-0.054-0.138-0.134-0.255-0.234-0.352v0zM28.534 16.736c-0.013-0.107-0.035-0.205-0.067-0.298l0.003 0.010v-0.096c-0.054-0.114-0.122-0.214-0.203-0.299l-6.399-6.399c-0.086-0.081-0.184-0.148-0.292-0.2l-0.007-0.003h-0.096c-0.102-0.059-0.221-0.101-0.347-0.117l-0.005-0.001h-6.454c-1.767 0-3.2 1.433-3.2 3.2v0 14.934c0 1.767 1.433 3.2 3.2 3.2v0h10.666c1.767 0 3.2-1.433 3.2-3.2v0-10.666s0 0 0-0.064zM22.134 12.97l2.762 2.762h-1.696c-0.589 0-1.066-0.478-1.066-1.066v0zM26.4 27.466c0 0.589-0.478 1.066-1.066 1.066v0h-10.666c-0.589 0-1.066-0.478-1.066-1.066v0-14.934c0-0.589 0.478-1.066 1.066-1.066v0h5.334v3.2c0 1.767 1.433 3.2 3.2 3.2v0h3.2zM19.862 17.866c-0.001 0-0.002 0-0.002 0-1.178 0-2.208 0.637-2.763 1.585l-0.008 0.015c-0.105 0.162-0.166 0.36-0.166 0.572 0 0.589 0.478 1.066 1.066 1.066 0.408 0 0.763-0.23 0.942-0.566l0.003-0.006c0.188-0.321 0.531-0.534 0.924-0.534 0.002 0 0.003 0 0.005 0v0c0.589 0 1.066 0.478 1.066 1.066s-0.478 1.066-1.066 1.066v0c-0.589 0-1.066 0.478-1.066 1.066s0.478 1.066 1.066 1.066v0c1.767 0 3.2-1.433 3.2-3.2s-1.433-3.2-3.2-3.2v0z"></path>
</svg>
