<!-- Generated by IcoMoon.io -->
<svg version="1.1" xmlns="http://www.w3.org/2000/svg" width="40" height="40" viewBox="0 0 40 40">
<title>ul-football</title>
<path fill="#91908d" d="M28.608 13.718c-1.157-1.585-2.71-2.816-4.517-3.558l-0.070-0.026c-1.19-0.498-2.572-0.787-4.022-0.787-5.886 0-10.659 4.768-10.666 10.653v0.001c0 0.202 0 0.406 0 0.598 0.101 1.758 0.615 3.376 1.446 4.786l-0.027-0.050c1.374 2.382 3.578 4.154 6.207 4.941l0.075 0.019c0.845 0.238 1.814 0.374 2.817 0.374 0.052 0 0.105 0 0.157-0.001h-0.008c0.014 0 0.030 0 0.046 0 0.693 0 1.37-0.070 2.023-0.203l-0.065 0.011c4.455-0.885 7.873-4.45 8.526-8.913l0.007-0.058c0.076-0.449 0.122-0.969 0.128-1.498v-0.006c0-0.013 0-0.028 0-0.043 0-2.35-0.773-4.519-2.078-6.267l0.020 0.027zM26.474 14.538l-1.142 3.050-1.728 0.47-2.538-1.802v-1.974l2.656-1.93c1.106 0.541 2.037 1.278 2.784 2.174l0.011 0.014zM22.134 19.648l-0.832 2.486h-2.614l-0.822-2.486 2.134-1.526zM20 11.466c0.422 0.005 0.832 0.039 1.232 0.102l-0.048-0.006-1.184 0.854-1.184-0.854c0.352-0.057 0.762-0.091 1.179-0.096h0.005zM12.406 16.128l0.426 1.408-1.206 0.842c0.166-0.847 0.437-1.601 0.801-2.297l-0.022 0.046zM13.866 25.91l1.472 0.054 0.394 1.418c-0.711-0.424-1.324-0.911-1.864-1.47l-0.002-0.002zM15.734 23.84l-3.36-0.118c-0.401-0.77-0.694-1.666-0.827-2.612l-0.005-0.044 2.656-1.856 1.536 0.662 0.95 2.944zM16.65 17.942l-1.664-0.746-0.97-3.2c0.64-0.653 1.382-1.202 2.203-1.621l0.048-0.022 2.666 1.93v1.974zM21.066 28.458c-0.305 0.038-0.658 0.060-1.015 0.060-0.634 0-1.252-0.069-1.847-0.198l0.057 0.010-0.886-3.114 0.886-0.95h3.274l0.714 1.066zM23.638 27.712l0.49-1.312 1.45 0.074c-0.57 0.482-1.219 0.896-1.921 1.216l-0.052 0.022zM27.328 24.384l-3.318-0.118-0.758-1.174 0.95-2.944 1.61-0.438 2.518 2.134c-0.222 0.961-0.578 1.809-1.055 2.574l0.021-0.035zM27.382 18.166l0.512-1.366c0.283 0.664 0.483 1.434 0.562 2.239l0.002 0.033z"></path>
</svg>
