<!-- Generated by IcoMoon.io -->
<svg version="1.1" xmlns="http://www.w3.org/2000/svg" width="40" height="40" viewBox="0 0 40 40">
<title>ul-file-shield-alt</title>
<path fill="#91908d" d="M18.4 28.534h-5.334c-0.589 0-1.066-0.478-1.066-1.066v0-14.934c0-0.589 0.478-1.066 1.066-1.066v0h5.334v3.2c0 1.767 1.433 3.2 3.2 3.2v0h3.2c0 0.589 0.478 1.066 1.066 1.066s1.066-0.478 1.066-1.066v0-1.066s0 0 0-0.064c-0.013-0.107-0.035-0.205-0.067-0.298l0.003 0.010v-0.096c-0.054-0.114-0.122-0.214-0.203-0.299l-6.399-6.399c-0.086-0.081-0.184-0.148-0.292-0.2l-0.007-0.003c-0.014-0.002-0.031-0.003-0.048-0.003s-0.034 0.002-0.050 0.004h0.002l-0.342-0.118h-6.464c-1.767 0-3.2 1.433-3.2 3.2v0 14.934c0 1.767 1.433 3.2 3.2 3.2v0h5.334c0.589 0 1.066-0.478 1.066-1.066s-0.478-1.066-1.066-1.066v0zM20.534 12.97l2.762 2.762h-1.696c-0.589 0-1.066-0.478-1.066-1.066v0zM15.2 15.734c-0.589 0-1.066 0.478-1.066 1.066s0.478 1.066 1.066 1.066v0h1.066c0.589 0 1.066-0.478 1.066-1.066s-0.478-1.066-1.066-1.066v0zM29.738 21.984c-0.182-0.148-0.416-0.238-0.671-0.238-0.080 0-0.158 0.009-0.232 0.026l0.007-0.002c-0.183 0.040-0.394 0.063-0.61 0.063-0.653 0-1.257-0.212-1.746-0.57l0.008 0.006c-0.174-0.128-0.393-0.206-0.63-0.206s-0.455 0.077-0.632 0.207l0.003-0.002c-0.482 0.353-1.086 0.564-1.74 0.564-0.215 0-0.424-0.023-0.626-0.066l0.019 0.003c-0.067-0.015-0.145-0.024-0.224-0.024-0.589 0-1.066 0.478-1.066 1.066 0 0.008 0 0.017 0 0.025v-0.002 2.496c0 0.003 0 0.007 0 0.010 0 1.6 0.766 3.021 1.95 3.917l0.012 0.009 1.664 1.184c0.176 0.133 0.398 0.214 0.64 0.214s0.464-0.080 0.642-0.215l-0.002 0.002 1.664-1.238c1.186-0.896 1.949-2.299 1.962-3.88v-2.53c-0.002-0.331-0.155-0.626-0.393-0.82l-0.002-0.002zM28 25.334c0 0.010 0 0.022 0 0.033 0 0.889-0.414 1.68-1.061 2.192l-0.006 0.005-1.066 0.768-1.066-0.768c-0.652-0.516-1.067-1.308-1.067-2.197 0-0.011 0-0.023 0-0.034v0.002-1.366c0.786-0.036 1.516-0.25 2.159-0.6l-0.026 0.013c0.618 0.338 1.346 0.55 2.122 0.586l0.011 0.001zM18.4 24.32h-3.2c-0.589 0-1.066 0.478-1.066 1.066s0.478 1.066 1.066 1.066v0h3.2c0.589 0 1.066-0.478 1.066-1.066s-0.478-1.066-1.066-1.066v0zM19.466 20.054h-4.266c-0.589 0-1.066 0.478-1.066 1.066s0.478 1.066 1.066 1.066v0h4.266c0.589 0 1.066-0.478 1.066-1.066s-0.478-1.066-1.066-1.066v0z"></path>
</svg>
