<!-- Generated by IcoMoon.io -->
<svg version="1.1" xmlns="http://www.w3.org/2000/svg" width="40" height="40" viewBox="0 0 40 40">
<title>ul-favorite</title>
<path fill="#91908d" d="M30.666 17.514c-0.138-0.393-0.49-0.677-0.914-0.714h-0.004l-6.070-0.886-2.72-5.514c-0.177-0.359-0.54-0.602-0.96-0.602s-0.783 0.242-0.958 0.595l-0.002 0.006-2.72 5.504-6.070 0.896c-0.407 0.059-0.736 0.342-0.862 0.718l-0.002 0.007c-0.030 0.094-0.046 0.201-0.046 0.312 0 0.295 0.12 0.562 0.313 0.755v0l4.406 4.266-1.066 6.058c-0.015 0.067-0.024 0.144-0.024 0.223 0 0.589 0.478 1.066 1.066 1.066 0.193 0 0.374-0.051 0.53-0.141l-0.005 0.002 5.44-2.848 5.44 2.848c0.14 0.081 0.308 0.128 0.487 0.128 0.001 0 0.002 0 0.003 0v0c0.001 0 0.002 0 0.004 0 0.235 0 0.452-0.076 0.629-0.205l-0.003 0.002c0.271-0.196 0.446-0.511 0.446-0.867 0-0.070-0.007-0.139-0.020-0.206l0.001 0.006-1.066-6.058 4.406-4.266c0.231-0.197 0.377-0.488 0.377-0.814 0-0.098-0.013-0.192-0.038-0.282l0.002 0.007zM24.106 21.782c-0.2 0.194-0.323 0.465-0.323 0.765 0 0.062 0.005 0.122 0.015 0.18l-0.001-0.006 0.768 4.48-4.010-2.134c-0.146-0.074-0.318-0.118-0.502-0.118s-0.355 0.043-0.508 0.12l0.006-0.003-4.010 2.134 0.768-4.48c0.009-0.052 0.014-0.112 0.014-0.174 0-0.3-0.124-0.571-0.323-0.765l-3.2-3.2 4.49-0.65c0.358-0.051 0.654-0.274 0.808-0.581l0.003-0.006 1.898-4.064 2.006 4.074c0.156 0.313 0.453 0.535 0.805 0.586l4.496 0.651z"></path>
</svg>
