<!-- Generated by IcoMoon.io -->
<svg version="1.1" xmlns="http://www.w3.org/2000/svg" width="40" height="40" viewBox="0 0 40 40">
<title>ul-file-exclamation</title>
<path fill="#91908d" d="M20.982 24.928c-0.026-0.074-0.058-0.137-0.098-0.194l0.002 0.002c-0.042-0.060-0.084-0.112-0.13-0.162l0.002 0.002c-0.193-0.19-0.457-0.307-0.749-0.307-0.15 0-0.291 0.030-0.421 0.086l0.007-0.002c-0.137 0.054-0.254 0.13-0.352 0.224v0c-0.044 0.048-0.086 0.1-0.125 0.155l-0.003 0.005c-0.038 0.055-0.070 0.118-0.094 0.186l-0.002 0.006c-0.029 0.055-0.051 0.12-0.063 0.188l-0.001 0.004c-0.002 0.032-0.003 0.069-0.003 0.106s0.002 0.074 0.004 0.112v-0.005c0 0.007 0 0.015 0 0.023 0 0.139 0.031 0.27 0.088 0.388l-0.002-0.006c0.058 0.135 0.133 0.252 0.225 0.353l-0.001-0.001c0.189 0.188 0.449 0.305 0.735 0.31h0.001c0.007 0 0.015 0 0.023 0 0.139 0 0.27-0.031 0.388-0.088l-0.006 0.002c0.269-0.099 0.477-0.307 0.574-0.57l0.002-0.006c0.054-0.112 0.086-0.243 0.086-0.382 0-0.008 0-0.016 0-0.024v0.001c0.002-0.032 0.003-0.069 0.003-0.106s-0.002-0.074-0.004-0.112v0.005c-0.020-0.073-0.050-0.137-0.087-0.194l0.002 0.002zM28.534 16.736c-0.013-0.107-0.035-0.205-0.067-0.298l0.003 0.010v-0.096c-0.054-0.114-0.122-0.214-0.203-0.299l-6.399-6.399c-0.086-0.081-0.184-0.148-0.292-0.2l-0.007-0.003h-0.096c-0.102-0.059-0.221-0.101-0.347-0.117l-0.005-0.001h-6.454c-1.767 0-3.2 1.433-3.2 3.2v0 14.934c0 1.767 1.433 3.2 3.2 3.2v0h10.666c1.767 0 3.2-1.433 3.2-3.2v0-10.666s0 0 0-0.064zM22.134 12.97l2.762 2.762h-1.696c-0.589 0-1.066-0.478-1.066-1.066v0zM26.4 27.466c0 0.589-0.478 1.066-1.066 1.066v0h-10.666c-0.589 0-1.066-0.478-1.066-1.066v0-14.934c0-0.589 0.478-1.066 1.066-1.066v0h5.334v3.2c0 1.767 1.433 3.2 3.2 3.2v0h3.2zM20 18.934c-0.589 0-1.066 0.478-1.066 1.066v0 2.134c0 0.589 0.478 1.066 1.066 1.066s1.066-0.478 1.066-1.066v0-2.134c0-0.589-0.478-1.066-1.066-1.066v0z"></path>
</svg>
