<!-- Generated by IcoMoon.io -->
<svg version="1.1" xmlns="http://www.w3.org/2000/svg" width="40" height="40" viewBox="0 0 40 40">
<title>ul-film</title>
<path fill="#91908d" d="M29.6 9.334c-0.589 0-1.066 0.478-1.066 1.066v0 2.134h-2.134v-2.134c0-0.589-0.478-1.066-1.066-1.066s-1.066 0.478-1.066 1.066v0 1.066h-8.534v-1.066c0-0.589-0.478-1.066-1.066-1.066s-1.066 0.478-1.066 1.066v0 2.134h-2.134v-2.134c0-0.589-0.478-1.066-1.066-1.066s-1.066 0.478-1.066 1.066v0 19.2c0 0.589 0.478 1.066 1.066 1.066s1.066-0.478 1.066-1.066v0-2.134h2.134v2.134c0 0.589 0.478 1.066 1.066 1.066s1.066-0.478 1.066-1.066v0-1.066h8.534v1.066c0 0.589 0.478 1.066 1.066 1.066s1.066-0.478 1.066-1.066v0-2.134h2.134v2.134c0 0.589 0.478 1.066 1.066 1.066s1.066-0.478 1.066-1.066v0-19.2c0-0.589-0.478-1.066-1.066-1.066v0zM13.6 25.334h-2.134v-2.134h2.134zM13.6 21.066h-2.134v-2.134h2.134zM13.6 16.8h-2.134v-2.134h2.134zM24.266 26.4h-8.534v-5.334h8.534zM24.266 18.934h-8.534v-5.334h8.534zM28.534 25.334h-2.134v-2.134h2.134zM28.534 21.066h-2.134v-2.134h2.134zM28.534 16.8h-2.134v-2.134h2.134z"></path>
</svg>
