<!-- Generated by IcoMoon.io -->
<svg version="1.1" xmlns="http://www.w3.org/2000/svg" width="40" height="40" viewBox="0 0 40 40">
<title>ul-file-bookmark-alt</title>
<path fill="#91908d" d="M15.2 17.866h1.066c0.589 0 1.066-0.478 1.066-1.066s-0.478-1.066-1.066-1.066v0h-1.066c-0.589 0-1.066 0.478-1.066 1.066s0.478 1.066 1.066 1.066v0zM19.466 24.266h-4.266c-0.589 0-1.066 0.478-1.066 1.066s0.478 1.066 1.066 1.066v0h4.266c0.589 0 1.066-0.478 1.066-1.066s-0.478-1.066-1.066-1.066v0zM19.466 20h-4.266c-0.589 0-1.066 0.478-1.066 1.066s0.478 1.066 1.066 1.066v0h4.266c0.589 0 1.066-0.478 1.066-1.066s-0.478-1.066-1.066-1.066v0zM26.848 17.206c0.053-0.122 0.083-0.264 0.083-0.414 0-0.292-0.118-0.557-0.307-0.75v0l-6.4-6.4c-0.086-0.081-0.184-0.148-0.292-0.2l-0.007-0.003c-0.014-0.002-0.031-0.003-0.048-0.003s-0.034 0.002-0.050 0.004h0.002l-0.298-0.106h-6.464c-1.767 0-3.2 1.433-3.2 3.2v0 14.934c0 1.767 1.433 3.2 3.2 3.2v0h6.4c0.589 0 1.066-0.478 1.066-1.066s-0.478-1.066-1.066-1.066v0h-6.4c-0.589 0-1.066-0.478-1.066-1.066v0-14.934c0-0.589 0.478-1.066 1.066-1.066v0h5.334v3.2c0 1.767 1.433 3.2 3.2 3.2v0h4.266c0.441-0.002 0.818-0.271 0.978-0.654l0.002-0.007zM21.6 15.734c-0.589 0-1.066-0.478-1.066-1.066v0-1.696l2.762 2.762zM29.066 20h-5.334c-0.589 0-1.066 0.478-1.066 1.066v0 8.534c0.001 0.405 0.227 0.756 0.56 0.936l0.006 0.003c0.142 0.074 0.31 0.118 0.487 0.118 0.215 0 0.416-0.064 0.583-0.174l-0.004 0.002 2.102-1.386 2.134 1.386c0.153 0.090 0.338 0.143 0.534 0.143 0.576 0 1.045-0.456 1.066-1.026v-8.535c0-0.589-0.478-1.066-1.066-1.066v0zM28 27.594l-1.002-0.672c-0.167-0.114-0.374-0.183-0.598-0.183s-0.43 0.068-0.601 0.186l0.004-0.002-1.002 0.672v-5.462h3.2z"></path>
</svg>
