<!-- Generated by IcoMoon.io -->
<svg version="1.1" xmlns="http://www.w3.org/2000/svg" width="40" height="40" viewBox="0 0 40 40">
<title>ul-glass-martini-alt</title>
<path fill="#91908d" d="M30.432 11.062c0.144-0.18 0.231-0.411 0.231-0.663 0-0.166-0.038-0.323-0.106-0.463l0.002 0.006c-0.175-0.362-0.538-0.606-0.96-0.608h-19.2c-0.422 0.002-0.785 0.246-0.958 0.602l-0.002 0.006c-0.065 0.134-0.103 0.291-0.103 0.457 0 0.251 0.087 0.482 0.233 0.665l-0.002-0.002 9.366 11.712v5.76h-6.134c-0.589 0-1.066 0.478-1.066 1.066s0.478 1.066 1.066 1.066v0h14.4c0.589 0 1.066-0.478 1.066-1.066s-0.478-1.066-1.066-1.066v0h-6.134v-5.76zM12.618 11.466h14.762l-2.56 3.2h-9.6zM20 20.694l-3.114-3.894h6.23z"></path>
</svg>
