<!-- Generated by IcoMoon.io -->
<svg version="1.1" xmlns="http://www.w3.org/2000/svg" width="40" height="40" viewBox="0 0 40 40">
<title>ul-graph-bar</title>
<path fill="#91908d" d="M13.6 21.066h-4.266c-0.589 0-1.066 0.478-1.066 1.066v0 8.534c0 0.589 0.478 1.066 1.066 1.066v0h4.266c0.589 0 1.066-0.478 1.066-1.066v0-8.534c0-0.589-0.478-1.066-1.066-1.066v0zM12.534 29.6h-2.134v-6.4h2.134zM30.666 16.8h-4.266c-0.589 0-1.066 0.478-1.066 1.066v0 12.8c0 0.589 0.478 1.066 1.066 1.066v0h4.266c0.589 0 1.066-0.478 1.066-1.066v0-12.8c0-0.589-0.478-1.066-1.066-1.066v0zM29.6 29.6h-2.134v-10.666h2.134zM22.134 8.266h-4.266c-0.589 0-1.066 0.478-1.066 1.066v0 21.334c0 0.589 0.478 1.066 1.066 1.066v0h4.266c0.589 0 1.066-0.478 1.066-1.066v0-21.334c0-0.589-0.478-1.066-1.066-1.066v0zM21.066 29.6h-2.134v-19.2h2.134z"></path>
</svg>
