<!-- Generated by IcoMoon.io -->
<svg version="1.1" xmlns="http://www.w3.org/2000/svg" width="40" height="40" viewBox="0 0 40 40">
<title>ul-glass-martini</title>
<path fill="#91908d" d="M26.4 28.534h-5.334v-5.398c4.822-0.554 8.531-4.612 8.534-9.536v0c0-0.012 0-0.026 0-0.040 0-1.29-0.262-2.519-0.738-3.637l0.023 0.061c-0.058-0.133-0.138-0.246-0.234-0.341v0l-0.118-0.086c-0.065-0.054-0.138-0.1-0.218-0.136l-0.006-0.002c-0.087-0.042-0.188-0.071-0.294-0.085l-0.005-0.001h-16.010c-0.113 0.006-0.218 0.028-0.316 0.066l0.007-0.002c-0.086 0.050-0.159 0.1-0.23 0.154l0.006-0.004-0.128 0.096c-0.098 0.095-0.177 0.209-0.232 0.334l-0.002 0.007c-0.446 1.050-0.704 2.27-0.704 3.55 0 0.023 0 0.046 0 0.070v-0.003c0.002 4.924 3.712 8.982 8.489 9.532l0.045 0.004v5.398h-5.334c-0.589 0-1.066 0.478-1.066 1.066s0.478 1.066 1.066 1.066v0h12.8c0.589 0 1.066-0.478 1.066-1.066s-0.478-1.066-1.066-1.066v0zM12.534 13.6c0-0.006 0-0.013 0-0.020 0-0.754 0.113-1.481 0.323-2.165l-0.014 0.052h14.314c0.196 0.633 0.31 1.359 0.31 2.113 0 0.007 0 0.014 0 0.022v-0.001c0 4.124-3.343 7.466-7.466 7.466s-7.466-3.343-7.466-7.466v0z"></path>
</svg>
