<!-- Generated by IcoMoon.io -->
<svg version="1.1" xmlns="http://www.w3.org/2000/svg" width="40" height="40" viewBox="0 0 40 40">
<title>ul-globe</title>
<path fill="#91908d" d="M30.038 16.416s0 0 0-0.054c-1.54-4.119-5.442-6.998-10.016-6.998s-8.476 2.879-9.992 6.925l-0.024 0.074s0 0 0 0.054c-0.398 1.066-0.63 2.298-0.63 3.584s0.23 2.518 0.653 3.657l-0.024-0.073s0 0 0 0.054c1.54 4.119 5.442 6.998 10.016 6.998s8.476-2.879 9.992-6.925l0.024-0.074s0 0 0-0.054c0.398-1.066 0.63-2.298 0.63-3.584s-0.23-2.518-0.653-3.657l0.024 0.073zM11.744 22.134c-0.176-0.64-0.278-1.375-0.278-2.134s0.102-1.494 0.291-2.192l-0.014 0.058h1.984c-0.082 0.641-0.128 1.382-0.128 2.134s0.046 1.493 0.137 2.22l-0.009-0.087zM12.618 24.266h1.494c0.279 1.046 0.643 1.957 1.101 2.811l-0.034-0.070c-1.047-0.72-1.906-1.636-2.538-2.702l-0.022-0.039zM14.112 15.734h-1.494c0.646-1.103 1.494-2.019 2.501-2.723l0.027-0.018c-0.413 0.784-0.767 1.697-1.015 2.651l-0.020 0.090zM18.934 28.214c-1.284-0.95-2.211-2.318-2.583-3.901l-0.009-0.046h2.592zM18.934 22.134h-3.050c-0.095-0.641-0.15-1.381-0.15-2.134s0.054-1.492 0.159-2.216l-0.010 0.082h3.050zM18.934 15.734h-2.592c0.381-1.628 1.308-2.997 2.574-3.934l0.018-0.013zM27.382 15.734h-1.494c-0.279-1.046-0.643-1.957-1.101-2.811l0.034 0.070c1.047 0.72 1.906 1.636 2.538 2.702l0.022 0.039zM21.066 11.786c1.284 0.95 2.211 2.318 2.583 3.901l0.009 0.046h-2.592zM21.066 28.214v-3.946h2.592c-0.381 1.628-1.308 2.997-2.574 3.934l-0.018 0.013zM24.118 22.134h-3.050v-4.266h3.050c0.095 0.641 0.15 1.381 0.15 2.134s-0.054 1.492-0.159 2.216l0.010-0.082zM24.854 27.008c0.423-0.785 0.788-1.696 1.046-2.65l0.021-0.090h1.494c-0.654 1.106-1.513 2.022-2.531 2.722l-0.029 0.018zM28.256 22.134h-1.984c0.082-0.63 0.128-1.358 0.128-2.097 0-0.013 0-0.026 0-0.038v0.002c0-0.009 0-0.018 0-0.029 0-0.742-0.046-1.473-0.137-2.19l0.009 0.086h1.984c0.176 0.64 0.278 1.375 0.278 2.134s-0.102 1.494-0.291 2.192l0.014-0.058z"></path>
</svg>
