<!-- Generated by IcoMoon.io -->
<svg version="1.1" xmlns="http://www.w3.org/2000/svg" width="40" height="40" viewBox="0 0 40 40">
<title>ul-horizontal-align-left</title>
<path fill="#91908d" d="M29.6 17.866h-5.334v-3.2c0-0.589-0.478-1.066-1.066-1.066v0h-11.734v-3.2c0-0.589-0.478-1.066-1.066-1.066s-1.066 0.478-1.066 1.066v0 19.2c0 0.589 0.478 1.066 1.066 1.066s1.066-0.478 1.066-1.066v0-3.2h18.134c0.589 0 1.066-0.478 1.066-1.066v0-6.4c0-0.589-0.478-1.066-1.066-1.066v0zM11.466 15.734h10.666v2.134h-10.666zM28.534 24.266h-17.066v-4.266h17.066z"></path>
</svg>
