<!-- Generated by IcoMoon.io -->
<svg version="1.1" xmlns="http://www.w3.org/2000/svg" width="40" height="40" viewBox="0 0 40 40">
<title>ul-heartbeat</title>
<path fill="#91908d" d="M29.6 18.304h-2.666c-0.297 0.002-0.565 0.123-0.757 0.32v0l-1.322 1.376-2.986-3.402c-0.195-0.208-0.472-0.338-0.778-0.338s-0.583 0.13-0.778 0.337l-1.814 1.814h-1.696c-0.589 0-1.066 0.478-1.066 1.066s0.478 1.066 1.066 1.066v0h2.134c0.002 0 0.004 0 0.006 0 0.293 0 0.558-0.118 0.751-0.31v0l1.376-1.43 2.986 3.402c0.189 0.215 0.462 0.353 0.766 0.362h0.002c0.002 0 0.004 0 0.006 0 0.293 0 0.558-0.118 0.751-0.31v0l1.814-1.824h2.208c0.589 0 1.066-0.478 1.066-1.066s-0.478-1.066-1.066-1.066v0zM21.718 23.958l-2.026 2.026c-0.194 0.195-0.462 0.315-0.758 0.315s-0.564-0.121-0.758-0.315l-5.558-5.558c-0.713-0.712-1.154-1.697-1.154-2.784s0.441-2.072 1.154-2.784v0c0.712-0.71 1.694-1.148 2.778-1.148s2.067 0.438 2.778 1.149v0c0.194 0.195 0.462 0.315 0.758 0.315s0.564-0.121 0.758-0.315v0c0.722-0.687 1.701-1.11 2.778-1.11s2.057 0.423 2.78 1.112l-0.002-0.002c0.232 0.234 0.436 0.497 0.608 0.781l0.010 0.019c0.196 0.267 0.51 0.439 0.862 0.439 0.589 0 1.066-0.478 1.066-1.066 0-0.159-0.035-0.31-0.098-0.446l0.002 0.006c-0.278-0.456-0.588-0.851-0.939-1.206l0.001 0.001c-1.099-1.111-2.623-1.8-4.309-1.8-1.321 0-2.542 0.422-3.538 1.14l0.018-0.012c-0.982-0.714-2.211-1.142-3.542-1.142-3.346 0-6.058 2.713-6.058 6.058 0 0.004 0 0.009 0 0.013v-0.001c0 0.001 0 0.002 0 0.002 0 1.668 0.682 3.177 1.781 4.264l5.558 5.558c0.579 0.578 1.378 0.936 2.262 0.936s1.682-0.358 2.262-0.936l2.006-2.006c0.192-0.193 0.31-0.458 0.31-0.752s-0.118-0.559-0.31-0.752v0c-0.192-0.186-0.453-0.3-0.742-0.3s-0.55 0.114-0.742 0.3v0z"></path>
</svg>
