<!-- Generated by IcoMoon.io -->
<svg version="1.1" xmlns="http://www.w3.org/2000/svg" width="40" height="40" viewBox="0 0 40 40">
<title>ul-image-lock</title>
<path fill="#91908d" d="M28.534 12.726v-1.258c0-1.767-1.433-3.2-3.2-3.2s-3.2 1.433-3.2 3.2v0 1.258c-1.25 0.451-2.13 1.626-2.134 3.007v2.134c0 1.767 1.433 3.2 3.2 3.2v0h4.266c1.767 0 3.2-1.433 3.2-3.2v0-2.134c-0.004-1.382-0.882-2.557-2.111-3.001l-0.022-0.007zM24.266 11.466c0-0.589 0.478-1.066 1.066-1.066s1.066 0.478 1.066 1.066v0 1.066h-2.134zM28.534 17.866c0 0.589-0.478 1.066-1.066 1.066v0h-4.266c-0.589 0-1.066-0.478-1.066-1.066v0-2.134c0-0.589 0.478-1.066 1.066-1.066v0h4.266c0.589 0 1.066 0.478 1.066 1.066v0zM27.466 23.2c-0.589 0-1.066 0.478-1.066 1.066v0 3.2c-0.002 0.214-0.074 0.41-0.194 0.568l0.002-0.002-8.97-8.97c-0.546-0.517-1.283-0.834-2.096-0.834s-1.55 0.318-2.098 0.835l-1.577 1.577v-5.974c0-0.589 0.478-1.066 1.066-1.066v0h5.334c0.589 0 1.066-0.478 1.066-1.066s-0.478-1.066-1.066-1.066v0h-5.334c-1.767 0-3.2 1.433-3.2 3.2v0 12.8c0 1.767 1.433 3.2 3.2 3.2v0h12.8c1.767 0 3.2-1.433 3.2-3.2v0-3.2c0-0.589-0.478-1.066-1.066-1.066v0zM12.534 28.534c-0.589 0-1.066-0.478-1.066-1.066v0-3.808l3.094-3.094c0.151-0.144 0.356-0.233 0.582-0.233s0.43 0.089 0.582 0.233l7.968 7.968z"></path>
</svg>
