<!-- Generated by IcoMoon.io -->
<svg version="1.1" xmlns="http://www.w3.org/2000/svg" width="40" height="40" viewBox="0 0 40 40">
<title>ul-image-check</title>
<path fill="#91908d" d="M30.358 9.654c-0.193-0.192-0.458-0.31-0.752-0.31s-0.559 0.118-0.752 0.31v0l-3.606 3.52-1.302-1.28c-0.192-0.189-0.456-0.305-0.746-0.305-0.59 0-1.067 0.478-1.067 1.067 0 0.298 0.122 0.569 0.321 0.762v0l2.048 2.006c0.192 0.189 0.456 0.305 0.746 0.305s0.554-0.116 0.747-0.305v0l4.352-4.266c0.195-0.194 0.315-0.462 0.315-0.758 0-0.29-0.116-0.554-0.305-0.747v0zM27.466 16.8c-0.589 0-1.066 0.478-1.066 1.066v0 4.682l-1.578-1.578c-0.535-0.538-1.277-0.872-2.096-0.872s-1.561 0.334-2.096 0.872l-0.747 0.747-2.646-2.656c-0.538-0.534-1.278-0.863-2.096-0.863s-1.558 0.33-2.096 0.863l-1.578 1.578v-5.974c0-0.589 0.478-1.066 1.066-1.066v0h6.4c0.589 0 1.066-0.478 1.066-1.066s-0.478-1.066-1.066-1.066v0h-6.4c-1.767 0-3.2 1.433-3.2 3.2v0 12.8c0 1.767 1.433 3.2 3.2 3.2v0h12.8c1.767 0 3.2-1.433 3.2-3.2v0-9.6c0-0.589-0.478-1.066-1.066-1.066v0zM12.534 28.534c-0.589 0-1.066-0.478-1.066-1.066v0-3.808l3.094-3.094c0.151-0.144 0.356-0.233 0.582-0.233s0.43 0.089 0.582 0.233l3.381 3.381 4.576 4.586zM26.4 27.466c-0.002 0.214-0.074 0.41-0.194 0.568l0.002-0.002-4.81-4.832 0.746-0.746c0.15-0.15 0.358-0.242 0.586-0.242s0.436 0.093 0.586 0.242v0l3.082 3.114z"></path>
</svg>
