<!-- Generated by IcoMoon.io -->
<svg version="1.1" xmlns="http://www.w3.org/2000/svg" width="40" height="40" viewBox="0 0 40 40">
<title>ul-image-question</title>
<path fill="#91908d" d="M27.466 21.066c-0.589 0-1.066 0.478-1.066 1.066v0 0.416l-1.578-1.578c-0.535-0.538-1.277-0.872-2.096-0.872s-1.561 0.334-2.096 0.872l-0.747 0.747-2.646-2.656c-0.546-0.517-1.283-0.834-2.096-0.834s-1.55 0.318-2.098 0.835l-1.577 1.577v-5.974c0-0.589 0.478-1.066 1.066-1.066v0h8.534c0.589 0 1.066-0.478 1.066-1.066s-0.478-1.066-1.066-1.066v0h-8.534c-1.767 0-3.2 1.433-3.2 3.2v0 12.8c0 1.767 1.433 3.2 3.2 3.2v0h12.8c1.767 0 3.2-1.433 3.2-3.2v0-5.334c0-0.589-0.478-1.066-1.066-1.066v0zM12.534 28.534c-0.589 0-1.066-0.478-1.066-1.066v0-3.808l3.094-3.094c0.151-0.144 0.356-0.233 0.582-0.233s0.43 0.089 0.582 0.233l3.381 3.381 4.576 4.586zM26.4 27.466c-0.010 0.213-0.080 0.407-0.194 0.569l0.002-0.003-4.81-4.832 0.746-0.746c0.15-0.15 0.358-0.242 0.586-0.242s0.436 0.093 0.586 0.242v0l3.082 3.114zM27.466 9.334c-0.001 0-0.002 0-0.002 0-1.178 0-2.208 0.637-2.763 1.585l-0.008 0.015c-0.090 0.154-0.144 0.338-0.144 0.534 0 0.394 0.214 0.739 0.534 0.924l0.005 0.002c0.151 0.087 0.333 0.139 0.526 0.139 0.393 0 0.736-0.213 0.922-0.529l0.002-0.005c0.187-0.326 0.532-0.541 0.928-0.541 0.589 0 1.066 0.478 1.066 1.066 0 0.002 0 0.006 0 0.008v-0.001c0 0.589-0.478 1.066-1.066 1.066v0c-0.589 0-1.066 0.478-1.066 1.066s0.478 1.066 1.066 1.066v0c1.767 0 3.2-1.433 3.2-3.2s-1.433-3.2-3.2-3.2v0zM27.872 16.886c-0.131-0.062-0.286-0.099-0.449-0.099-0.060 0-0.119 0.005-0.176 0.014l0.006-0.001-0.192 0.064-0.192 0.096-0.16 0.138c-0.191 0.193-0.31 0.458-0.31 0.751 0 0.006 0 0.012 0 0.018v-0.001c0 0.002 0 0.004 0 0.006 0 0.293 0.118 0.558 0.31 0.751v0c0.194 0.195 0.462 0.315 0.758 0.315s0.564-0.121 0.758-0.315v0c0.191-0.193 0.31-0.458 0.31-0.751 0-0.002 0-0.004 0-0.006v0c-0.002-0.441-0.271-0.818-0.654-0.978l-0.007-0.002z"></path>
</svg>
