<!-- Generated by IcoMoon.io -->
<svg version="1.1" xmlns="http://www.w3.org/2000/svg" width="40" height="40" viewBox="0 0 40 40">
<title>ul-image-alt-slash</title>
<path fill="#91908d" d="M30.358 28.842l-0.992-0.992-0.096-0.106-0.064-0.074-0.534-0.534-0.138-0.074-5.526-5.546-0.096-0.086-3.414-3.424-0.106-0.138-8.234-8.224c-0.194-0.194-0.462-0.314-0.758-0.314-0.591 0-1.071 0.479-1.071 1.071 0 0.296 0.12 0.563 0.314 0.758l1.066 1.066c-0.195 0.402-0.31 0.874-0.31 1.373 0 0.001 0 0.002 0 0.003v0 12.8c0 1.767 1.433 3.2 3.2 3.2v0h12.8c0.495-0.006 0.96-0.128 1.372-0.338l-0.018 0.008s0 0 0.054 0l1.014 1.066c0.194 0.195 0.462 0.315 0.758 0.315s0.564-0.121 0.758-0.315v0c0.195-0.194 0.316-0.462 0.316-0.758 0-0.286-0.112-0.545-0.295-0.736l0.001 0.001zM12.534 14.038l3.456 3.456c-0.274 0.142-0.509 0.313-0.715 0.513l0.001-0.001-2.742 2.752zM13.6 27.466c-0.589 0-1.066-0.478-1.066-1.066v0-2.624l4.266-4.266c0.154-0.142 0.36-0.23 0.586-0.23s0.433 0.087 0.587 0.23l-0.001-0.001 7.99 7.958zM17.504 12.534h8.896c0.589 0 1.066 0.478 1.066 1.066v0 6.336c-0.194-0.194-0.462-0.314-0.758-0.314-0.591 0-1.071 0.479-1.071 1.071 0 0.296 0.12 0.563 0.314 0.758l1.856 1.856c0.194 0.195 0.462 0.315 0.758 0.315s0.564-0.121 0.758-0.315v0c0.191-0.193 0.31-0.458 0.31-0.751 0-0.006 0-0.012 0-0.018v0.001-8.938c0-1.767-1.433-3.2-3.2-3.2v0h-8.928c-0.589 0-1.066 0.478-1.066 1.066s0.478 1.066 1.066 1.066v0z"></path>
</svg>
