<!-- Generated by IcoMoon.io -->
<svg version="1.1" xmlns="http://www.w3.org/2000/svg" width="40" height="40" viewBox="0 0 40 40">
<title>ul-image-broken</title>
<path fill="#91908d" d="M30.358 22.71l-2.666-2.71c-0.194-0.195-0.462-0.315-0.758-0.315s-0.564 0.121-0.758 0.315v0l-2.976 3.030-2.976-3.030c-0.194-0.195-0.462-0.315-0.758-0.315s-0.564 0.121-0.758 0.315v0l-2.442 2.496-2.442-2.496c-0.194-0.195-0.462-0.315-0.758-0.315s-0.564 0.121-0.758 0.315l-2.666 2.666c-0.094 0.098-0.17 0.215-0.222 0.345l-0.002 0.007c-0.052 0.119-0.083 0.258-0.086 0.405v4.043c0 1.767 1.433 3.2 3.2 3.2v0h14.934c1.767 0 3.2-1.433 3.2-3.2v0-4c-0.002-0.147-0.033-0.286-0.088-0.412l0.002 0.007c-0.054-0.137-0.13-0.254-0.224-0.352v0zM28.534 27.466c0 0.589-0.478 1.066-1.066 1.066v0h-14.934c-0.589 0-1.066-0.478-1.066-1.066v0-3.562l1.6-1.6 2.442 2.454c0.194 0.195 0.462 0.315 0.758 0.315s0.564-0.121 0.758-0.315v0l2.442-2.454 2.976 3.030c0.194 0.195 0.462 0.315 0.758 0.315s0.564-0.121 0.758-0.315v0l2.976-2.986 1.6 1.6zM27.466 9.334h-14.934c-1.767 0-3.2 1.433-3.2 3.2v0 5.61c-0.006 0.043-0.008 0.094-0.008 0.144s0.003 0.101 0.009 0.15l-0.001-0.006s0 0.074 0 0.106c0.162 0.396 0.544 0.67 0.99 0.67 0.308 0 0.585-0.13 0.78-0.339l0.001-0.001 1.962-1.898 2.442 2.454c0.194 0.195 0.462 0.315 0.758 0.315s0.564-0.121 0.758-0.315v0l2.442-2.454 2.976 3.030c0.194 0.195 0.462 0.315 0.758 0.315s0.564-0.121 0.758-0.315v0l2.976-2.986 1.888 1.898c0.195 0.209 0.473 0.339 0.781 0.339 0.446 0 0.829-0.274 0.988-0.663l0.002-0.007c0.002-0.014 0.004-0.031 0.004-0.048s-0.002-0.034-0.004-0.050v0.002c0.036-0.088 0.058-0.19 0.064-0.297v-5.656c0 0 0 0 0 0 0-1.763-1.426-3.194-3.189-3.2h-0.001zM28.534 15.562l-0.842-0.896c-0.194-0.195-0.462-0.315-0.758-0.315s-0.564 0.121-0.758 0.315v0l-2.976 3.030-2.976-3.030c-0.194-0.195-0.462-0.315-0.758-0.315s-0.564 0.121-0.758 0.315v0l-2.442 2.496-2.442-2.496c-0.194-0.195-0.462-0.315-0.758-0.315s-0.564 0.121-0.758 0.315v0l-0.842 0.896v-3.030c0-0.589 0.478-1.066 1.066-1.066v0h14.934c0.589 0 1.066 0.478 1.066 1.066v0z"></path>
</svg>
