<!-- Generated by IcoMoon.io -->
<svg version="1.1" xmlns="http://www.w3.org/2000/svg" width="40" height="40" viewBox="0 0 40 40">
<title>ul-image</title>
<path fill="#91908d" d="M27.466 11.466h-14.934c-1.767 0-3.2 1.433-3.2 3.2v0 10.666c0 1.767 1.433 3.2 3.2 3.2v0h14.934c1.767 0 3.2-1.433 3.2-3.2v0-10.666c0-1.767-1.433-3.2-3.2-3.2v0zM12.534 26.4c-0.589 0-1.066-0.478-1.066-1.066v0-2.582l3.52-3.51c0.192-0.189 0.456-0.305 0.746-0.305s0.554 0.116 0.747 0.305l7.157 7.157zM28.534 25.334c0 0.589-0.478 1.066-1.066 1.066v0h-0.822l-4.064-4.086 0.938-0.938c0.192-0.189 0.456-0.305 0.746-0.305s0.554 0.116 0.747 0.305v0l3.52 3.51zM28.534 21.878l-2.006-1.994c-0.586-0.563-1.383-0.91-2.262-0.91s-1.676 0.347-2.262 0.911l-0.938 0.938-3.072-3.072c-0.586-0.563-1.383-0.91-2.262-0.91s-1.676 0.347-2.262 0.911l0.001-0.001-2.006 1.994v-5.078c0-0.589 0.478-1.066 1.066-1.066v0h14.934c0.589 0 1.066 0.478 1.066 1.066v0z"></path>
</svg>
