<!-- Generated by IcoMoon.io -->
<svg version="1.1" xmlns="http://www.w3.org/2000/svg" width="40" height="40" viewBox="0 0 40 40">
<title>ul-location-point</title>
<path fill="#91908d" d="M26.4 11.978c-1.638-1.638-3.901-2.651-6.4-2.651-4.998 0-9.051 4.052-9.051 9.051 0 2.499 1.013 4.762 2.651 6.4v0l5.622 5.632c0.194 0.195 0.462 0.315 0.758 0.315s0.564-0.121 0.758-0.315v0l5.664-5.686c1.631-1.631 2.64-3.885 2.64-6.374s-1.009-4.742-2.64-6.374v0zM24.874 23.2l-4.874 4.896-4.874-4.896c-1.246-1.246-2.016-2.969-2.016-4.87 0-3.806 3.085-6.89 6.89-6.89s6.89 3.085 6.89 6.89c0 1.902-0.77 3.623-2.016 4.87v0zM16.8 15.104c-0.831 0.834-1.345 1.983-1.345 3.254s0.514 2.42 1.345 3.254v0c0.832 0.834 1.982 1.35 3.254 1.35 2.522 0 4.57-2.031 4.597-4.546v-0.002c0-0.010 0-0.023 0-0.036 0-1.258-0.514-2.397-1.344-3.217l-0.001-0.001c-0.834-0.852-1.995-1.381-3.28-1.381-1.258 0-2.398 0.507-3.227 1.327v0zM21.802 20.096c-0.451 0.458-1.078 0.742-1.77 0.742-1.373 0-2.486-1.113-2.486-2.486s1.113-2.486 2.486-2.486c1.373 0 2.486 1.113 2.486 2.486 0 0.002 0 0.004 0 0.006v0c-0.017 0.685-0.308 1.298-0.767 1.738l-0.001 0.001z"></path>
</svg>
