<!-- Generated by IcoMoon.io -->
<svg version="1.1" xmlns="http://www.w3.org/2000/svg" width="40" height="40" viewBox="0 0 40 40">
<title>ul-laptop-connection</title>
<path fill="#91908d" d="M29.6 26.4h-6.592c-0.33-0.908-1.033-1.611-1.919-1.934l-0.022-0.007v-3.392h7.466c0.589 0 1.066-0.478 1.066-1.066s-0.478-1.066-1.066-1.066v0h-1.066v-6.4c0-1.767-1.433-3.2-3.2-3.2v0h-8.534c-1.767 0-3.2 1.433-3.2 3.2v0 6.4h-1.066c-0.589 0-1.066 0.478-1.066 1.066s0.478 1.066 1.066 1.066v0h7.466v3.392c-0.908 0.33-1.611 1.033-1.934 1.919l-0.007 0.022h-6.592c-0.589 0-1.066 0.478-1.066 1.066s0.478 1.066 1.066 1.066v0h6.592c0.459 1.24 1.633 2.108 3.008 2.108s2.549-0.868 3.001-2.086l0.007-0.022h6.592c0.589 0 1.066-0.478 1.066-1.066s-0.478-1.066-1.066-1.066v0zM14.666 18.934v-6.4c0-0.589 0.478-1.066 1.066-1.066v0h8.534c0.589 0 1.066 0.478 1.066 1.066v0 6.4zM20 28.534c-0.589 0-1.066-0.478-1.066-1.066s0.478-1.066 1.066-1.066c0.589 0 1.066 0.478 1.066 1.066v0c0 0.589-0.478 1.066-1.066 1.066v0z"></path>
</svg>
