<!-- Generated by IcoMoon.io -->
<svg version="1.1" xmlns="http://www.w3.org/2000/svg" width="40" height="40" viewBox="0 0 40 40">
<title>ul-lamp</title>
<path fill="#91908d" d="M26.4 10.166c-0.111-0.48-0.534-0.832-1.041-0.832-0.009 0-0.018 0-0.027 0h-10.665c-0.008 0-0.017 0-0.026 0-0.506 0-0.93 0.352-1.039 0.825l-2.135 9.607c-0.017 0.070-0.026 0.15-0.026 0.234 0 0.256 0.090 0.491 0.241 0.675l-0.002-0.002c0.197 0.242 0.495 0.395 0.829 0.395 0.009 0 0.018 0 0.026 0h4.201c0.041 0.318 0.064 0.686 0.064 1.060 0 0.002 0 0.005 0 0.007v0c0 0.011 0 0.025 0 0.038 0 2.605-1.046 4.965-2.742 6.683l0.001-0.001c-0.189 0.192-0.305 0.456-0.305 0.746 0 0.587 0.475 1.064 1.062 1.066h10.368c0.587-0.002 1.062-0.479 1.062-1.066 0-0.291-0.116-0.554-0.305-0.747v0c-1.694-1.717-2.742-4.078-2.742-6.682 0-0.014 0-0.026 0-0.040v0.002c0-0.002 0-0.004 0-0.006 0-0.374 0.023-0.742 0.069-1.103l-0.005 0.043h1.002v2.134c0 0.589 0.478 1.066 1.066 1.066s1.066-0.478 1.066-1.066v0-2.134h1.066c0.001 0 0.002 0 0.004 0 0.334 0 0.631-0.153 0.827-0.393l0.002-0.002c0.149-0.182 0.239-0.417 0.239-0.673 0-0.082-0.010-0.163-0.027-0.241l0.002 0.007zM17.034 28.534c1.19-1.794 1.898-3.998 1.898-6.367 0-0.011 0-0.022 0-0.034v0.002c0-0.352 0-0.714-0.054-1.066h2.24c0 0.352-0.054 0.714-0.054 1.066 0 0.010 0 0.021 0 0.033 0 2.37 0.709 4.573 1.926 6.41l-0.027-0.043zM13.834 18.934l1.686-7.466h8.96l1.654 7.466z"></path>
</svg>
