<!-- Generated by IcoMoon.io -->
<svg version="1.1" xmlns="http://www.w3.org/2000/svg" width="40" height="40" viewBox="0 0 40 40">
<title>ul-letter-chinese-a</title>
<path fill="#91908d" d="M28.534 12.534h-7.466v-1.066c0-0.589-0.478-1.066-1.066-1.066s-1.066 0.478-1.066 1.066v0 1.066h-7.466c-0.589 0-1.066 0.478-1.066 1.066s0.478 1.066 1.066 1.066v0h12.674c-0.512 3.329-2.021 6.239-4.207 8.486l0.003-0.003c-1.518-1.556-2.71-3.436-3.462-5.526l-0.034-0.107c-0.15-0.419-0.544-0.714-1.007-0.714-0.59 0-1.067 0.478-1.067 1.067 0 0.126 0.022 0.246 0.062 0.358l-0.002-0.007c0.886 2.477 2.225 4.597 3.93 6.36l-0.005-0.005c-1.723 1.37-3.792 2.385-6.051 2.898l-0.102 0.019c-0.483 0.109-0.838 0.534-0.838 1.042 0 0.589 0.477 1.066 1.065 1.067v0c0.081 0 0.16-0.009 0.237-0.026l-0.007 0.002c2.806-0.632 5.26-1.866 7.316-3.564l-0.030 0.024c2.031 1.672 4.488 2.906 7.181 3.518l0.117 0.022c0.066 0.014 0.142 0.023 0.22 0.023 0.589 0 1.066-0.478 1.066-1.066 0-0.506-0.352-0.93-0.825-1.039l-0.007-0.002c-2.369-0.532-4.445-1.546-6.208-2.94l0.032 0.025c2.524-2.618 4.245-6.026 4.757-9.818l0.010-0.090h2.248c0.589 0 1.066-0.478 1.066-1.066s-0.478-1.066-1.066-1.066v0z"></path>
</svg>
