<!-- Generated by IcoMoon.io -->
<svg version="1.1" xmlns="http://www.w3.org/2000/svg" width="40" height="40" viewBox="0 0 40 40">
<title>ul-lock-access</title>
<path fill="#91908d" d="M29.6 9.334h-6.4c-0.589 0-1.066 0.478-1.066 1.066s0.478 1.066 1.066 1.066v0h5.334v5.334c0 0.589 0.478 1.066 1.066 1.066s1.066-0.478 1.066-1.066v0-6.4c0-0.589-0.478-1.066-1.066-1.066v0zM29.6 22.134c-0.589 0-1.066 0.478-1.066 1.066v0 5.334h-5.334c-0.589 0-1.066 0.478-1.066 1.066s0.478 1.066 1.066 1.066v0h6.4c0.589 0 1.066-0.478 1.066-1.066v0-6.4c0-0.589-0.478-1.066-1.066-1.066v0zM20 13.6c-1.767 0-3.2 1.433-3.2 3.2v0 1.066c-1.178 0-2.134 0.955-2.134 2.134v0 4.266c0 1.178 0.955 2.134 2.134 2.134v0h6.4c1.178 0 2.134-0.955 2.134-2.134v0-4.266c0-1.178-0.955-2.134-2.134-2.134v0-1.066c0-1.767-1.433-3.2-3.2-3.2v0zM18.934 16.8c0-0.589 0.478-1.066 1.066-1.066s1.066 0.478 1.066 1.066v0 1.066h-2.134zM23.2 24.266h-6.4v-4.266h6.4zM10.4 17.866c0.589 0 1.066-0.478 1.066-1.066v0-5.334h5.334c0.589 0 1.066-0.478 1.066-1.066s-0.478-1.066-1.066-1.066v0h-6.4c-0.589 0-1.066 0.478-1.066 1.066v0 6.4c0 0.589 0.478 1.066 1.066 1.066v0zM16.8 28.534h-5.334v-5.334c0-0.589-0.478-1.066-1.066-1.066s-1.066 0.478-1.066 1.066v0 6.4c0 0.589 0.478 1.066 1.066 1.066v0h6.4c0.589 0 1.066-0.478 1.066-1.066s-0.478-1.066-1.066-1.066v0z"></path>
</svg>
