<!-- Generated by IcoMoon.io -->
<svg version="1.1" xmlns="http://www.w3.org/2000/svg" width="40" height="40" viewBox="0 0 40 40">
<title>ul-layers-alt</title>
<path fill="#91908d" d="M29.6 9.334h-12.8c-0.589 0-1.066 0.478-1.066 1.066v0 4.266h-2.134c-0.589 0-1.066 0.478-1.066 1.066v0 4.266h-2.134c-0.589 0-1.066 0.478-1.066 1.066v0 8.534c0 0.589 0.478 1.066 1.066 1.066v0h8.534c0.589 0 1.066-0.478 1.066-1.066v0-2.134h4.266c0.589 0 1.066-0.478 1.066-1.066v0-2.134h4.266c0.589 0 1.066-0.478 1.066-1.066v0-12.8c0-0.589-0.478-1.066-1.066-1.066v0zM17.866 28.534h-6.4v-6.4h6.4zM23.2 25.334h-3.2v-4.266c0-0.589-0.478-1.066-1.066-1.066v0h-4.266v-3.2h8.534zM28.534 22.134h-3.2v-6.4c0-0.589-0.478-1.066-1.066-1.066v0h-6.4v-3.2h10.666z"></path>
</svg>
