<!-- Generated by IcoMoon.io -->
<svg version="1.1" xmlns="http://www.w3.org/2000/svg" width="40" height="40" viewBox="0 0 40 40">
<title>ul-laptop-cloud</title>
<path fill="#91908d" d="M12 17.866h5.866c1.764-0.004 3.193-1.435 3.193-3.2 0-1.354-0.841-2.512-2.030-2.979l-0.022-0.007c-0.722-1.394-2.152-2.33-3.802-2.33-2.048 0-3.759 1.443-4.172 3.369l-0.005 0.028c-0.962 0.417-1.624 1.358-1.624 2.454 0 1.447 1.153 2.626 2.591 2.666h0.004zM12 14.666c0.589 0 1.066-0.478 1.066-1.066v0c0.009-1.172 0.96-2.118 2.134-2.118 0.928 0 1.718 0.593 2.011 1.421l0.005 0.015c0.129 0.366 0.442 0.637 0.826 0.703l0.006 0.001c0.504 0.090 0.882 0.522 0.886 1.045v0c0 0.589-0.478 1.066-1.066 1.066v0h-5.866c-0.294 0-0.534-0.238-0.534-0.534s0.238-0.534 0.534-0.534v0zM29.6 24.266h-1.066v-7.466c0-1.767-1.433-3.2-3.2-3.2v0h-1.066c-0.589 0-1.066 0.478-1.066 1.066s0.478 1.066 1.066 1.066v0h1.066c0.589 0 1.066 0.478 1.066 1.066v0 7.466h-12.8v-3.2c0-0.589-0.478-1.066-1.066-1.066s-1.066 0.478-1.066 1.066v0 3.2h-1.066c-0.589 0-1.066 0.478-1.066 1.066v0 2.134c0 1.767 1.433 3.2 3.2 3.2v0h14.934c1.767 0 3.2-1.433 3.2-3.2v0-2.134c0-0.589-0.478-1.066-1.066-1.066v0zM28.534 27.466c0 0.589-0.478 1.066-1.066 1.066v0h-14.934c-0.589 0-1.066-0.478-1.066-1.066v0-1.066h17.066z"></path>
</svg>
