<!-- Generated by IcoMoon.io -->
<svg version="1.1" xmlns="http://www.w3.org/2000/svg" width="40" height="40" viewBox="0 0 40 40">
<title>ul-mobile-android</title>
<path fill="#91908d" d="M20.758 24.576l-0.16-0.128c-0.055-0.038-0.118-0.070-0.186-0.094l-0.006-0.002-0.192-0.086c-0.066-0.014-0.141-0.022-0.218-0.022-0.294 0-0.559 0.118-0.753 0.31v0c-0.091 0.1-0.166 0.217-0.221 0.344l-0.003 0.008c-0.051 0.121-0.082 0.262-0.082 0.409 0 0.589 0.478 1.066 1.066 1.066 0.145 0 0.283-0.029 0.409-0.081l-0.007 0.002c0.134-0.066 0.25-0.144 0.354-0.236l-0.002 0.002c0.19-0.193 0.307-0.457 0.307-0.749 0-0.15-0.030-0.291-0.086-0.421l0.002 0.007c-0.056-0.128-0.131-0.238-0.224-0.33v0zM24.266 9.334h-8.534c-1.767 0-3.2 1.433-3.2 3.2v0 14.934c0 1.767 1.433 3.2 3.2 3.2v0h8.534c1.767 0 3.2-1.433 3.2-3.2v0-14.934c0-1.767-1.433-3.2-3.2-3.2v0zM25.334 27.466c0 0.589-0.478 1.066-1.066 1.066v0h-8.534c-0.589 0-1.066-0.478-1.066-1.066v0-14.934c0-0.589 0.478-1.066 1.066-1.066v0h8.534c0.589 0 1.066 0.478 1.066 1.066v0z"></path>
</svg>
