<!-- Generated by IcoMoon.io -->
<svg version="1.1" xmlns="http://www.w3.org/2000/svg" width="40" height="40" viewBox="0 0 40 40">
<title>ul-map-marker-edit</title>
<path fill="#91908d" d="M29.024 17.472c-0.454-4.623-4.322-8.205-9.026-8.205-5.007 0-9.066 4.059-9.066 9.066 0 2.51 1.020 4.782 2.668 6.423v0l5.654 5.664c0.194 0.195 0.462 0.315 0.758 0.315s0.564-0.121 0.758-0.315v0l5.632-5.664c1.647-1.635 2.667-3.901 2.667-6.405 0-0.31-0.016-0.617-0.046-0.918l0.003 0.038zM24.906 23.254l-4.906 4.906-4.906-4.906c-1.253-1.253-2.027-2.983-2.027-4.895 0-0.237 0.012-0.471 0.035-0.702l-0.002 0.029c0.214-2.155 1.377-4.001 3.058-5.136l0.025-0.016c1.074-0.722 2.396-1.153 3.818-1.153s2.745 0.43 3.843 1.169l-0.025-0.016c1.701 1.147 2.862 2.984 3.080 5.101l0.002 0.030c0.022 0.208 0.034 0.449 0.034 0.693 0 1.913-0.775 3.644-2.030 4.897v0zM21.91 13.866c-0.194-0.195-0.462-0.315-0.758-0.315s-0.564 0.121-0.758 0.315l-3.818 3.818c-0.19 0.192-0.308 0.455-0.31 0.746v2.635c0 0.589 0.478 1.066 1.066 1.066v0h2.582c0.002 0 0.004 0 0.006 0 0.293 0 0.558-0.118 0.751-0.31l3.818-3.818c0.192-0.193 0.31-0.458 0.31-0.752s-0.118-0.559-0.31-0.752v0zM19.478 20h-1.066v-1.066l2.752-2.752 1.066 1.066z"></path>
</svg>
