<!-- Generated by IcoMoon.io -->
<svg version="1.1" xmlns="http://www.w3.org/2000/svg" width="40" height="40" viewBox="0 0 40 40">
<title>ul-music-tune-slash</title>
<path fill="#91908d" d="M20 15.018c0.589 0 1.066-0.478 1.066-1.066v0-0.586l6.4-1.6v3.136l-4.586 1.152c-0.536 0.066-0.946 0.518-0.946 1.066 0 0.594 0.481 1.074 1.074 1.074 0.045 0 0.090-0.002 0.134-0.008l-0.006 0.001h0.256l5.398-1.386h0.074l0.202-0.096 0.16-0.106c0.051-0.048 0.097-0.1 0.137-0.157l0.002-0.003c0.040-0.046 0.075-0.099 0.105-0.155l0.002-0.005c0.030-0.055 0.053-0.12 0.063-0.189l0.001-0.003c0.005-0.030 0.007-0.066 0.007-0.102s-0.002-0.071-0.008-0.105l0.001 0.004c0.036-0.040 0.059-0.091 0.064-0.149v-5.334c0-0.010 0.001-0.020 0.001-0.031 0-0.589-0.478-1.066-1.066-1.066-0.091 0-0.179 0.011-0.264 0.033l0.007-0.002-8.534 2.134c-0.47 0.118-0.811 0.538-0.811 1.035 0 0.011 0 0.022 0.001 0.033v-0.002 1.418c0 0.589 0.478 1.066 1.066 1.066v0zM30.358 28.886l-19.2-19.2c-0.178-0.139-0.406-0.223-0.653-0.223-0.589 0-1.066 0.478-1.066 1.066 0 0.236 0.077 0.454 0.207 0.631l-0.002-0.003 9.29 9.28v3.136c-0.467-0.234-1.017-0.371-1.599-0.374h-0.001c-2.062 0-3.734 1.671-3.734 3.734s1.671 3.734 3.734 3.734c2.062 0 3.734-1.671 3.734-3.734v0-4.362l7.776 7.786c0.194 0.195 0.462 0.315 0.758 0.315s0.564-0.121 0.758-0.315v0c0.195-0.194 0.315-0.462 0.315-0.758s-0.121-0.564-0.315-0.758v0zM17.334 28.534c-0.884 0-1.6-0.716-1.6-1.6s0.716-1.6 1.6-1.6c0.884 0 1.6 0.716 1.6 1.6v0c0 0.884-0.716 1.6-1.6 1.6v0z"></path>
</svg>
