<!-- Generated by IcoMoon.io -->
<svg version="1.1" xmlns="http://www.w3.org/2000/svg" width="40" height="40" viewBox="0 0 40 40">
<title>ul-map-marker-slash</title>
<path fill="#91908d" d="M18.538 13.056c0.438-0.106 0.94-0.168 1.457-0.168 3.534 0 6.4 2.866 6.4 6.4 0 0.514-0.061 1.013-0.174 1.491l0.009-0.043c-0.019 0.076-0.030 0.163-0.030 0.253 0 0.502 0.346 0.922 0.813 1.036l0.007 0.002c0.037 0.005 0.079 0.008 0.122 0.008s0.086-0.003 0.127-0.009l-0.005 0.001c0.010 0 0.020 0.001 0.031 0.001 0.498 0 0.917-0.342 1.034-0.804l0.002-0.007c0.144-0.586 0.226-1.26 0.226-1.952 0-4.713-3.821-8.534-8.534-8.534-0.69 0-1.36 0.082-2.002 0.236l0.058-0.012c-0.49 0.115-0.849 0.549-0.849 1.066 0 0.605 0.49 1.094 1.094 1.094 0.087 0 0.172-0.010 0.253-0.030l-0.007 0.002zM30.358 28.608l-19.2-19.2c-0.194-0.195-0.462-0.315-0.758-0.315s-0.564 0.121-0.758 0.315v0c-0.192 0.193-0.31 0.458-0.31 0.752s0.118 0.559 0.31 0.752l3.424 3.424c-0.998 1.379-1.597 3.105-1.597 4.97 0 2.353 0.953 4.484 2.493 6.027l5.28 5.28c0.194 0.195 0.462 0.315 0.758 0.315s0.564-0.121 0.758-0.315l4.266-4.266 3.798 3.798c0.194 0.194 0.462 0.315 0.758 0.315 0.59 0 1.067-0.478 1.067-1.067 0-0.294-0.118-0.559-0.31-0.752v0zM20.128 21.398c-0.041 0.002-0.088 0.004-0.136 0.004-0.583 0-1.111-0.234-1.496-0.613v0c-0.39-0.387-0.633-0.923-0.633-1.516 0-0.041 0.001-0.082 0.003-0.122v0.006zM20 28.33l-4.522-4.522c-1.153-1.158-1.865-2.754-1.865-4.516 0-1.269 0.369-2.451 1.006-3.446l-0.015 0.026 1.568 1.568c-0.267 0.542-0.423 1.178-0.423 1.852 0 1.17 0.471 2.23 1.234 3.002v0c0.771 0.776 1.838 1.257 3.018 1.258h0.001c0.673-0.003 1.307-0.164 1.87-0.448l-0.024 0.011 1.686 1.686z"></path>
</svg>
