<!-- Generated by IcoMoon.io -->
<svg version="1.1" xmlns="http://www.w3.org/2000/svg" width="40" height="40" viewBox="0 0 40 40">
<title>ul-monitor</title>
<path fill="#91908d" d="M27.466 9.334h-14.934c-1.767 0-3.2 1.433-3.2 3.2v0 10.666c0 1.767 1.433 3.2 3.2 3.2v0h2.816l-0.618 1.066c-0.18 0.306-0.286 0.674-0.286 1.066s0.106 0.761 0.291 1.077l-0.006-0.010c0.376 0.642 1.062 1.066 1.847 1.066 0.006 0 0.014 0 0.020 0h6.89c0.785-0.001 1.47-0.425 1.84-1.057l0.006-0.010c0.18-0.306 0.286-0.674 0.286-1.066s-0.106-0.761-0.291-1.077l0.006 0.010-0.63-1.066h2.762c1.767 0 3.2-1.433 3.2-3.2v0-10.666c0-1.767-1.433-3.2-3.2-3.2v0zM16.554 28.534l1.312-2.134h4.266l1.28 2.134zM28.534 23.2c0 0.589-0.478 1.066-1.066 1.066v0h-14.934c-0.589 0-1.066-0.478-1.066-1.066v0-1.066h17.066zM28.534 20h-17.066v-7.466c0-0.589 0.478-1.066 1.066-1.066v0h14.934c0.589 0 1.066 0.478 1.066 1.066v0z"></path>
</svg>
