<!-- Generated by IcoMoon.io -->
<svg version="1.1" xmlns="http://www.w3.org/2000/svg" width="40" height="40" viewBox="0 0 40 40">
<title>ul-map-marker-info</title>
<path fill="#91908d" d="M20 17.866c-0.589 0-1.066 0.478-1.066 1.066v0 2.134c0 0.589 0.478 1.066 1.066 1.066s1.066-0.478 1.066-1.066v0-2.134c0-0.589-0.478-1.066-1.066-1.066v0zM29.024 17.526c-0.433-4.643-4.31-8.25-9.030-8.25-1.866 0-3.599 0.563-5.040 1.529l0.033-0.021c-2.215 1.496-3.725 3.891-4.007 6.649l-0.003 0.039c-0.027 0.264-0.043 0.57-0.043 0.881 0 2.504 1.020 4.77 2.666 6.404l0.001 0.001 5.654 5.664c0.194 0.195 0.462 0.315 0.758 0.315s0.564-0.121 0.758-0.315v0l5.632-5.664c1.647-1.635 2.667-3.901 2.667-6.405 0-0.31-0.016-0.617-0.046-0.918l0.003 0.038zM24.906 23.254l-4.906 4.906-4.906-4.906c-1.253-1.253-2.027-2.983-2.027-4.895 0-0.237 0.012-0.471 0.035-0.702l-0.002 0.029c0.214-2.155 1.377-4.001 3.058-5.136l0.025-0.016c1.074-0.722 2.396-1.153 3.818-1.153s2.745 0.43 3.843 1.169l-0.025-0.016c1.701 1.147 2.862 2.984 3.080 5.101l0.002 0.030c0.022 0.208 0.034 0.449 0.034 0.693 0 1.913-0.775 3.644-2.030 4.897v0zM20.982 15.274c-0.023-0.070-0.055-0.13-0.097-0.182l0.001 0.002-0.128-0.16c-0.191-0.182-0.45-0.293-0.734-0.293-0.084 0-0.166 0.010-0.243 0.028l0.007-0.002h-0.192l-0.192 0.096-0.16 0.138-0.128 0.16c-0.041 0.052-0.073 0.112-0.094 0.177l-0.002 0.004c-0.030 0.058-0.053 0.127-0.063 0.199l-0.001 0.003c-0.014 0.072-0.022 0.155-0.022 0.24 0 0.017 0 0.034 0.001 0.050v-0.002c0 0.007 0 0.016 0 0.024 0 0.142 0.031 0.277 0.088 0.398l-0.002-0.006c0.058 0.132 0.133 0.245 0.225 0.342l-0.001-0.001c0.098 0.097 0.215 0.176 0.345 0.232l0.007 0.003c0.12 0.047 0.26 0.074 0.406 0.074s0.285-0.027 0.413-0.077l-0.008 0.002c0.135-0.062 0.252-0.14 0.353-0.235l-0.001 0.001c0.091-0.097 0.166-0.21 0.221-0.334l0.003-0.007c0.054-0.122 0.085-0.266 0.086-0.416v0c0.002-0.030 0.004-0.066 0.004-0.102s-0.002-0.071-0.004-0.106v0.005c-0.010-0.096-0.041-0.182-0.087-0.259l0.002 0.003z"></path>
</svg>
