<!-- Generated by IcoMoon.io -->
<svg version="1.1" xmlns="http://www.w3.org/2000/svg" width="40" height="40" viewBox="0 0 40 40">
<title>ul-mouse-alt</title>
<path fill="#91908d" d="M20 13.6c-0.589 0-1.066 0.478-1.066 1.066v0 2.134c0 0.589 0.478 1.066 1.066 1.066s1.066-0.478 1.066-1.066v0-2.134c0-0.589-0.478-1.066-1.066-1.066v0zM20 9.334c-4.124 0-7.466 3.343-7.466 7.466v0 6.4c0 4.124 3.343 7.466 7.466 7.466s7.466-3.343 7.466-7.466v0-6.4c0-4.124-3.343-7.466-7.466-7.466v0zM25.334 23.2c0 2.946-2.388 5.334-5.334 5.334s-5.334-2.388-5.334-5.334v0-6.4c0-2.946 2.388-5.334 5.334-5.334s5.334 2.388 5.334 5.334v0z"></path>
</svg>
