<!-- Generated by IcoMoon.io -->
<svg version="1.1" xmlns="http://www.w3.org/2000/svg" width="40" height="40" viewBox="0 0 40 40">
<title>ul-notes</title>
<path fill="#91908d" d="M24.266 22.134h-8.534c-0.589 0-1.066 0.478-1.066 1.066s0.478 1.066 1.066 1.066v0h8.534c0.589 0 1.066-0.478 1.066-1.066s-0.478-1.066-1.066-1.066v0zM24.266 17.866h-6.4c-0.589 0-1.066 0.478-1.066 1.066s0.478 1.066 1.066 1.066v0h6.4c0.589 0 1.066-0.478 1.066-1.066s-0.478-1.066-1.066-1.066v0zM28.534 11.466h-3.2v-1.066c0-0.589-0.478-1.066-1.066-1.066s-1.066 0.478-1.066 1.066v0 1.066h-2.134v-1.066c0-0.589-0.478-1.066-1.066-1.066s-1.066 0.478-1.066 1.066v0 1.066h-2.134v-1.066c0-0.589-0.478-1.066-1.066-1.066s-1.066 0.478-1.066 1.066v0 1.066h-3.2c-0.589 0-1.066 0.478-1.066 1.066v0 14.934c0 1.767 1.433 3.2 3.2 3.2v0h12.8c1.767 0 3.2-1.433 3.2-3.2v0-14.934c0-0.589-0.478-1.066-1.066-1.066v0zM27.466 27.466c0 0.589-0.478 1.066-1.066 1.066v0h-12.8c-0.589 0-1.066-0.478-1.066-1.066v0-13.866h2.134v1.066c0 0.589 0.478 1.066 1.066 1.066s1.066-0.478 1.066-1.066v0-1.066h2.134v1.066c0 0.589 0.478 1.066 1.066 1.066s1.066-0.478 1.066-1.066v0-1.066h2.134v1.066c0 0.589 0.478 1.066 1.066 1.066s1.066-0.478 1.066-1.066v0-1.066h2.134z"></path>
</svg>
