<!-- Generated by IcoMoon.io -->
<svg version="1.1" xmlns="http://www.w3.org/2000/svg" width="40" height="40" viewBox="0 0 40 40">
<title>ul-notion</title>
<path fill="#91908d" d="M23.609 7.258l-14.8 1.046c-1.194 0.099-1.61 0.846-1.61 1.742v15.529c0 0.698 0.259 1.294 0.882 2.091l3.479 4.33c0.571 0.698 1.090 0.846 2.182 0.797l17.187-0.995c1.454-0.099 1.87-0.746 1.87-1.842v-17.47c0-0.566-0.234-0.73-0.922-1.211-0.038-0.026-0.077-0.054-0.118-0.082l-4.724-3.186c-1.142-0.796-1.61-0.896-3.427-0.746zM14.134 12.198c-1.403 0.091-1.722 0.111-2.519-0.51l-2.026-1.543c-0.206-0.199-0.103-0.448 0.416-0.498l14.228-0.995c1.194-0.1 1.817 0.299 2.285 0.647l2.441 1.693c0.104 0.050 0.363 0.348 0.051 0.348l-14.875 0.858zM12.497 29.805v-14.831c0-0.647 0.208-0.946 0.83-0.996l16.876-0.946c0.573-0.050 0.832 0.299 0.832 0.946v14.732c0 0.647-0.104 1.196-1.039 1.245l-16.149 0.897c-0.934 0.050-1.35-0.249-1.35-1.046zM28.438 15.769c0.103 0.449 0 0.896-0.468 0.946l-0.778 0.149v10.95c-0.675 0.348-1.298 0.547-1.818 0.547-0.831 0-1.039-0.249-1.662-0.995l-5.090-7.665v7.416l1.61 0.349c0 0 0 0.895-1.299 0.895l-3.582 0.199c-0.104-0.199 0-0.697 0.363-0.796l0.934-0.249v-9.805l-1.298-0.1c-0.104-0.448 0.155-1.094 0.882-1.145l3.843-0.249 5.297 7.764v-6.869l-1.35-0.149c-0.104-0.548 0.311-0.946 0.83-0.995l3.584-0.2z"></path>
</svg>
