<!-- Generated by IcoMoon.io -->
<svg version="1.1" xmlns="http://www.w3.org/2000/svg" width="40" height="40" viewBox="0 0 40 40">
<title>ul-object-group</title>
<path fill="#91908d" d="M24.266 17.866h-2.134v-2.134c0-0.589-0.478-1.066-1.066-1.066v0h-5.334c-0.589 0-1.066 0.478-1.066 1.066v0 5.334c0 0.589 0.478 1.066 1.066 1.066v0h2.134v2.134c0 0.589 0.478 1.066 1.066 1.066v0h5.334c0.589 0 1.066-0.478 1.066-1.066v0-5.334c0-0.589-0.478-1.066-1.066-1.066v0zM17.866 18.934v1.066h-1.066v-3.2h3.2v1.066h-1.066c-0.589 0-1.066 0.478-1.066 1.066v0zM23.2 23.2h-3.2v-3.2h3.2zM29.6 26.698v-13.398c0.658-0.371 1.096-1.067 1.096-1.864 0-1.178-0.955-2.134-2.134-2.134-0.798 0-1.493 0.438-1.859 1.086l-0.006 0.010h-13.398c-0.371-0.658-1.067-1.096-1.864-1.096-1.178 0-2.134 0.955-2.134 2.134 0 0.798 0.438 1.493 1.086 1.859l0.010 0.006v13.398c-0.658 0.371-1.096 1.067-1.096 1.864 0 1.178 0.955 2.134 2.134 2.134 0.798 0 1.493-0.438 1.859-1.086l0.006-0.010h13.398c0.371 0.658 1.067 1.096 1.864 1.096 1.178 0 2.134-0.955 2.134-2.134 0-0.798-0.438-1.493-1.086-1.859l-0.010-0.006zM27.466 26.698c-0.322 0.185-0.583 0.446-0.762 0.758l-0.006 0.010h-13.398c-0.185-0.322-0.446-0.583-0.758-0.762l-0.010-0.006v-13.398c0.322-0.185 0.583-0.446 0.762-0.758l0.006-0.010h13.398c0.185 0.322 0.446 0.583 0.758 0.762l0.010 0.006z"></path>
</svg>
