<!-- Generated by IcoMoon.io -->
<svg version="1.1" xmlns="http://www.w3.org/2000/svg" width="40" height="40" viewBox="0 0 40 40">
<title>ul-parcel</title>
<path fill="#91908d" d="M14.666 22.134h2.134c0.589 0 1.066-0.478 1.066-1.066s-0.478-1.066-1.066-1.066v0h-2.134c-0.589 0-1.066 0.478-1.066 1.066s0.478 1.066 1.066 1.066v0zM21.066 24.266h-6.4c-0.589 0-1.066 0.478-1.066 1.066s0.478 1.066 1.066 1.066v0h6.4c0.589 0 1.066-0.478 1.066-1.066s-0.478-1.066-1.066-1.066v0zM27.466 9.334h-14.934c-1.767 0-3.2 1.433-3.2 3.2v0 14.934c0 1.767 1.433 3.2 3.2 3.2v0h14.934c1.767 0 3.2-1.433 3.2-3.2v0-14.934c0-1.767-1.433-3.2-3.2-3.2v0zM22.134 11.466v3.51l-1.61-0.896c-0.153-0.090-0.337-0.143-0.534-0.143s-0.38 0.053-0.538 0.146l0.005-0.002-1.59 0.896v-3.51zM28.534 27.466c0 0.589-0.478 1.066-1.066 1.066v0h-14.934c-0.589 0-1.066-0.478-1.066-1.066v0-14.934c0-0.589 0.478-1.066 1.066-1.066v0h3.2v5.334c0.002 0.39 0.214 0.73 0.528 0.914l0.005 0.002c0.153 0.090 0.337 0.143 0.534 0.143s0.38-0.053 0.538-0.146l-0.005 0.002 2.666-1.482 2.678 1.494c0.15 0.086 0.33 0.138 0.522 0.138v0c0.589 0 1.066-0.478 1.066-1.066v0-5.334h3.2c0.589 0 1.066 0.478 1.066 1.066v0z"></path>
</svg>
