<!-- Generated by IcoMoon.io -->
<svg version="1.1" xmlns="http://www.w3.org/2000/svg" width="40" height="40" viewBox="0 0 40 40">
<title>ul-pathfinder-unite</title>
<path fill="#91908d" d="M29.6 15.242h-4.842v-4.842c0-0.589-0.478-1.066-1.066-1.066v0h-13.29c-0.589 0-1.066 0.478-1.066 1.066v0 13.29c0 0.589 0.478 1.066 1.066 1.066v0h4.842v4.842c0 0.589 0.478 1.066 1.066 1.066v0h13.29c0.589 0 1.066-0.478 1.066-1.066v0-13.29c0-0.589-0.478-1.066-1.066-1.066v0zM28.534 28.534h-11.158v-4.842c0-0.589-0.478-1.066-1.066-1.066v0h-4.842v-11.158h11.158v4.842c0 0.589 0.478 1.066 1.066 1.066v0h4.842z"></path>
</svg>
