<!-- Generated by IcoMoon.io -->
<svg version="1.1" xmlns="http://www.w3.org/2000/svg" width="40" height="40" viewBox="0 0 40 40">
<title>ul-processor</title>
<path fill="#91908d" d="M22.134 16.8h-4.266c-0.589 0-1.066 0.478-1.066 1.066v0 4.266c0 0.589 0.478 1.066 1.066 1.066v0h4.266c0.589 0 1.066-0.478 1.066-1.066v0-4.266c0-0.589-0.478-1.066-1.066-1.066v0zM21.066 21.066h-2.134v-2.134h2.134zM29.6 21.066c0.589 0 1.066-0.478 1.066-1.066s-0.478-1.066-1.066-1.066v0h-2.134v-2.134h2.134c0.589 0 1.066-0.478 1.066-1.066s-0.478-1.066-1.066-1.066v0h-2.326c-0.33-0.908-1.033-1.611-1.919-1.934l-0.022-0.007v-2.326c0-0.589-0.478-1.066-1.066-1.066s-1.066 0.478-1.066 1.066v0 2.134h-2.134v-2.134c0-0.589-0.478-1.066-1.066-1.066s-1.066 0.478-1.066 1.066v0 2.134h-2.134v-2.134c0-0.589-0.478-1.066-1.066-1.066s-1.066 0.478-1.066 1.066v0 2.326c-0.908 0.33-1.611 1.033-1.934 1.919l-0.007 0.022h-2.326c-0.589 0-1.066 0.478-1.066 1.066s0.478 1.066 1.066 1.066v0h2.134v2.134h-2.134c-0.589 0-1.066 0.478-1.066 1.066s0.478 1.066 1.066 1.066v0h2.134v2.134h-2.134c-0.589 0-1.066 0.478-1.066 1.066s0.478 1.066 1.066 1.066v0h2.326c0.33 0.908 1.033 1.611 1.919 1.934l0.022 0.007v2.326c0 0.589 0.478 1.066 1.066 1.066s1.066-0.478 1.066-1.066v0-2.134h2.134v2.134c0 0.589 0.478 1.066 1.066 1.066s1.066-0.478 1.066-1.066v0-2.134h2.134v2.134c0 0.589 0.478 1.066 1.066 1.066s1.066-0.478 1.066-1.066v0-2.326c0.908-0.33 1.611-1.033 1.934-1.919l0.007-0.022h2.326c0.589 0 1.066-0.478 1.066-1.066s-0.478-1.066-1.066-1.066v0h-2.134v-2.134zM25.334 24.266c0 0.589-0.478 1.066-1.066 1.066v0h-8.534c-0.589 0-1.066-0.478-1.066-1.066v0-8.534c0-0.589 0.478-1.066 1.066-1.066v0h8.534c0.589 0 1.066 0.478 1.066 1.066v0z"></path>
</svg>
