<!-- Generated by IcoMoon.io -->
<svg version="1.1" xmlns="http://www.w3.org/2000/svg" width="40" height="40" viewBox="0 0 40 40">
<title>ul-picture</title>
<path fill="#91908d" d="M28.534 11.466c0.587-0.002 1.062-0.479 1.062-1.066 0-0.291-0.116-0.554-0.305-0.747v0c-0.194-0.195-0.462-0.315-0.758-0.315s-0.564 0.121-0.758 0.315v0c-0.094 0.095-0.169 0.209-0.222 0.334l-0.002 0.007c-0.054 0.112-0.086 0.243-0.086 0.382 0 0.008 0 0.016 0 0.024v-0.001c0 0.589 0.478 1.066 1.066 1.066v0zM28.534 21.066c-0.589 0-1.066 0.478-1.066 1.066v0 0.416l-1.578-1.578c-0.535-0.538-1.277-0.872-2.096-0.872s-1.561 0.334-2.096 0.872l-0.747 0.747-2.646-2.656c-0.546-0.517-1.283-0.834-2.096-0.834s-1.55 0.318-2.098 0.835l-1.577 1.577v-5.974c0-0.589 0.478-1.066 1.066-1.066v0h10.666c0.589 0 1.066-0.478 1.066-1.066s-0.478-1.066-1.066-1.066v0h-10.666c-1.767 0-3.2 1.433-3.2 3.2v0 12.8c0 1.767 1.433 3.2 3.2 3.2v0h12.8c1.767 0 3.2-1.433 3.2-3.2v0-5.334c0-0.589-0.478-1.066-1.066-1.066v0zM13.6 28.534c-0.589 0-1.066-0.478-1.066-1.066v0-3.808l3.094-3.094c0.151-0.144 0.356-0.233 0.582-0.233s0.43 0.089 0.582 0.233l3.381 3.381 4.576 4.586zM27.466 27.466c-0.010 0.213-0.080 0.407-0.194 0.569l0.002-0.003-4.81-4.832 0.746-0.746c0.15-0.15 0.358-0.242 0.586-0.242s0.436 0.093 0.586 0.242v0l3.082 3.114zM28.534 12.534c-0.589 0-1.066 0.478-1.066 1.066v0 4.266c0 0.589 0.478 1.066 1.066 1.066s1.066-0.478 1.066-1.066v0-4.266c0-0.589-0.478-1.066-1.066-1.066v0z"></path>
</svg>
