<!-- Generated by IcoMoon.io -->
<svg version="1.1" xmlns="http://www.w3.org/2000/svg" width="40" height="40" viewBox="0 0 40 40">
<title>ul-postcard</title>
<path fill="#91908d" d="M25.334 18.934h1.066c0.589 0 1.066-0.478 1.066-1.066v0-1.066c0-0.589-0.478-1.066-1.066-1.066v0h-1.066c-0.589 0-1.066 0.478-1.066 1.066v0 1.066c0 0.589 0.478 1.066 1.066 1.066v0zM13.6 20h5.334c0.589 0 1.066-0.478 1.066-1.066s-0.478-1.066-1.066-1.066v0h-5.334c-0.589 0-1.066 0.478-1.066 1.066s0.478 1.066 1.066 1.066v0zM30.666 11.466h-21.334c-0.589 0-1.066 0.478-1.066 1.066v0 14.934c0 0.589 0.478 1.066 1.066 1.066v0h21.334c0.589 0 1.066-0.478 1.066-1.066v0-14.934c0-0.589-0.478-1.066-1.066-1.066v0zM29.6 26.4h-19.2v-12.8h19.2zM13.6 24.266h5.334c0.589 0 1.066-0.478 1.066-1.066s-0.478-1.066-1.066-1.066v0h-5.334c-0.589 0-1.066 0.478-1.066 1.066s0.478 1.066 1.066 1.066v0z"></path>
</svg>
