<!-- Generated by IcoMoon.io -->
<svg version="1.1" xmlns="http://www.w3.org/2000/svg" width="40" height="40" viewBox="0 0 40 40">
<title>ul-panorama-h-alt</title>
<path fill="#91908d" d="M30.090 13.418c-0.065-0.436-0.386-0.782-0.803-0.884l-0.007-0.002h-0.118c-2.753-0.676-5.912-1.064-9.162-1.064s-6.41 0.388-9.436 1.12l0.273-0.056h-0.118c-0.416 0.098-0.734 0.43-0.81 0.847l-0.001 0.006c-0.366 1.978-0.576 4.255-0.576 6.582s0.21 4.602 0.611 6.813l-0.035-0.231c0.077 0.423 0.394 0.755 0.803 0.852l0.007 0.002h0.118c2.744 0.694 5.899 1.106 9.146 1.13h0.016c3.251-0.002 6.411-0.391 9.437-1.122l-0.274 0.056h0.118c0.416-0.098 0.734-0.43 0.81-0.847l0.001-0.006c0.368-1.983 0.579-4.266 0.579-6.598s-0.21-4.614-0.614-6.829l0.035 0.231zM28.106 25.514c-2.436 0.559-5.234 0.88-8.106 0.88s-5.67-0.321-8.359-0.928l0.253 0.048c-0.275-1.658-0.432-3.568-0.432-5.514s0.157-3.857 0.459-5.718l-0.027 0.204c2.436-0.559 5.234-0.88 8.106-0.88s5.67 0.321 8.359 0.928l-0.253-0.048c0.275 1.658 0.432 3.568 0.432 5.514s-0.157 3.857-0.459 5.718l0.027-0.204z"></path>
</svg>
