<!-- Generated by IcoMoon.io -->
<svg version="1.1" xmlns="http://www.w3.org/2000/svg" width="40" height="40" viewBox="0 0 40 40">
<title>ul-presentation-line</title>
<path fill="#91908d" d="M29.6 22.134h-1.066v-11.734c0-0.589-0.478-1.066-1.066-1.066v0h-14.934c-0.589 0-1.066 0.478-1.066 1.066v0 11.734h-1.066c-0.589 0-1.066 0.478-1.066 1.066s0.478 1.066 1.066 1.066v0h8.534v1.226l-4.854 3.2c-0.306 0.191-0.506 0.526-0.506 0.907 0 0.589 0.478 1.066 1.066 1.066 0.009 0 0.018 0 0.026 0h-0.002c0.003 0 0.007 0 0.011 0 0.215 0 0.415-0.068 0.578-0.183l-0.003 0.002 3.68-2.432v1.546c0 0.589 0.478 1.066 1.066 1.066s1.066-0.478 1.066-1.066v0-1.546l3.68 2.432c0.16 0.114 0.36 0.182 0.575 0.182 0.004 0 0.008 0 0.012 0h-0.001c0.586-0.005 1.058-0.481 1.058-1.066 0-0.367-0.186-0.691-0.468-0.883l-0.004-0.002-4.854-3.2v-1.248h8.534c0.589 0 1.066-0.478 1.066-1.066s-0.478-1.066-1.066-1.066v0zM26.4 22.134h-12.8v-10.666h12.8zM16.8 20c0.369-0.002 0.693-0.19 0.883-0.476l0.002-0.004 1.418-2.134 1.206 1.216c0.194 0.194 0.461 0.314 0.757 0.314 0.038 0 0.075-0.002 0.112-0.006l-0.005 0.001c0.327-0.037 0.606-0.218 0.776-0.476l0.002-0.004 2.134-3.2c0.080-0.146 0.126-0.319 0.126-0.504 0-0.589-0.478-1.066-1.066-1.066-0.335 0-0.634 0.154-0.829 0.395l-0.002 0.002-1.418 2.134-1.206-1.216c-0.194-0.194-0.461-0.314-0.757-0.314-0.038 0-0.075 0.002-0.112 0.006l0.005-0.001c-0.327 0.037-0.606 0.218-0.776 0.476l-0.002 0.004-2.134 3.2c-0.11 0.165-0.175 0.367-0.175 0.586 0 0.368 0.186 0.693 0.47 0.884l0.004 0.002c0.16 0.114 0.36 0.182 0.575 0.182 0.004 0 0.008 0 0.012 0h-0.001z"></path>
</svg>
