<!-- Generated by IcoMoon.io -->
<svg version="1.1" xmlns="http://www.w3.org/2000/svg" width="40" height="40" viewBox="0 0 40 40">
<title>ul-plane-fly</title>
<path fill="#91908d" d="M31.734 17.142c0.021-0.081 0.032-0.173 0.032-0.268 0-0.199-0.051-0.386-0.142-0.549l0.003 0.006c-0.926-1.585-2.618-2.633-4.556-2.633-0.974 0-1.886 0.265-2.668 0.726l0.025-0.014-2.294 1.322-5.334-2.506c-0.142-0.075-0.311-0.119-0.49-0.119s-0.348 0.044-0.497 0.122l0.006-0.003-3.2 1.846c-0.314 0.183-0.523 0.514-0.534 0.894v0.002c0 0.009-0.001 0.019-0.001 0.030 0 0.375 0.194 0.706 0.487 0.895l0.004 0.002 3.52 2.218-1.856 1.066-5.098 0.618c-0.53 0.067-0.936 0.516-0.936 1.058 0 0.322 0.143 0.611 0.369 0.807l0.002 0.001 3.776 3.264c0.574 0.548 1.352 0.885 2.21 0.885 0.58 0 1.124-0.154 1.593-0.424l-0.015 0.008 15.062-8.608c0.258-0.135 0.449-0.366 0.531-0.643l0.002-0.007zM15.168 24.608c-0.148 0.083-0.326 0.132-0.514 0.132-0.3 0-0.572-0.124-0.766-0.324v0l-2.026-1.738 2.912-0.352c0.152-0.020 0.289-0.069 0.41-0.142l-0.005 0.002 3.584-2.058c0.316-0.185 0.527-0.521 0.534-0.906v-0.001c0-0.004 0-0.008 0-0.013 0-0.38-0.198-0.713-0.497-0.902l-0.004-0.002-3.52-2.23 1.174-0.672 5.334 2.474c0.142 0.075 0.311 0.119 0.49 0.119s0.348-0.044 0.497-0.122l-0.006 0.003 2.73-1.578c0.45-0.257 0.99-0.409 1.565-0.409 0.769 0 1.474 0.271 2.026 0.722l-0.006-0.005z"></path>
</svg>
