<!-- Generated by IcoMoon.io -->
<svg version="1.1" xmlns="http://www.w3.org/2000/svg" width="40" height="40" viewBox="0 0 40 40">
<title>ul-pen</title>
<path fill="#91908d" d="M30.666 14.922c0-0.002 0-0.004 0-0.006 0-0.293-0.118-0.558-0.31-0.751l-4.522-4.522c-0.193-0.191-0.458-0.31-0.751-0.31-0.002 0-0.004 0-0.006 0v0c-0.002 0-0.004 0-0.006 0-0.293 0-0.558 0.118-0.751 0.31l-14.678 14.678c-0.191 0.193-0.31 0.458-0.31 0.751 0 0.002 0 0.004 0 0.006v0 4.522c0 0.589 0.478 1.066 1.066 1.066v0h4.522c0.018 0.001 0.038 0.002 0.058 0.002 0.294 0 0.56-0.118 0.753-0.311v0l11.594-11.658 3.030-2.966c0.094-0.1 0.173-0.217 0.231-0.344l0.003-0.008c0.005-0.038 0.008-0.083 0.008-0.128s-0.003-0.090-0.008-0.133l0.001 0.005c0.002-0.022 0.004-0.048 0.004-0.074s-0.002-0.052-0.004-0.078v0.003zM14.486 28.534h-3.018v-3.018l10.592-10.592 3.018 3.018zM26.582 16.438l-3.018-3.018 1.514-1.504 3.008 3.008z"></path>
</svg>
