<!-- Generated by IcoMoon.io -->
<svg version="1.1" xmlns="http://www.w3.org/2000/svg" width="40" height="40" viewBox="0 0 40 40">
<title>ul-plane</title>
<path fill="#91908d" d="M30.4 20c-0.002-0.413-0.237-0.77-0.581-0.946l-6.534-3.267v-4.266c0-1.814-1.471-3.286-3.286-3.286s-3.286 1.471-3.286 3.286v0 4.266l-6.528 3.264c-0.35 0.179-0.586 0.537-0.586 0.949v3.552c0 0.002 0 0.006 0 0.009 0 0.362 0.18 0.682 0.455 0.874l0.003 0.002c0.169 0.117 0.378 0.186 0.603 0.186 0.136 0 0.266-0.026 0.386-0.072l-0.007 0.002 5.674-2.134v3.978l-1.942 0.64c-0.426 0.146-0.726 0.544-0.726 1.010 0 0.001 0 0.002 0 0.003v0 2.614c0.002 0.297 0.123 0.565 0.32 0.757v0c0.192 0.19 0.455 0.308 0.746 0.31h9.782c0.589 0 1.066-0.478 1.066-1.066v0-2.666c0-0.001 0-0.002 0-0.002 0-0.467-0.3-0.864-0.718-1.008l-1.959-0.589v-3.968l5.674 2.134c0.112 0.044 0.242 0.070 0.378 0.070 0.226 0 0.434-0.070 0.606-0.189l-0.003 0.002c0.278-0.195 0.458-0.515 0.458-0.877 0-0.003 0-0.006 0-0.010v0.001zM22.602 19.894c-0.114-0.046-0.246-0.072-0.386-0.072-0.227 0-0.438 0.071-0.61 0.192l0.003-0.002c-0.278 0.195-0.458 0.514-0.458 0.874v6.23c0 0.47 0.306 0.87 0.729 1.011l0.007 0.002 1.93 0.64v0.832h-7.648v-0.832l1.93-0.64c0.43-0.143 0.736-0.542 0.736-1.014v-6.23c-0.001-0.361-0.181-0.68-0.455-0.873l-0.003-0.002c-0.17-0.118-0.38-0.19-0.606-0.19-0.138 0-0.271 0.026-0.393 0.074l0.007-0.002-5.664 2.134v-1.366l6.518-3.264c0.354-0.176 0.594-0.534 0.598-0.949v-4.897c0-0.636 0.516-1.152 1.152-1.152s1.152 0.516 1.152 1.152v0 4.896c0.003 0.415 0.243 0.773 0.591 0.946l6.524 3.267v1.354z"></path>
</svg>
