<!-- Generated by IcoMoon.io -->
<svg version="1.1" xmlns="http://www.w3.org/2000/svg" width="40" height="40" viewBox="0 0 40 40">
<title>ul-paint-tool</title>
<path fill="#91908d" d="M26.4 8.266h-8.534c-1.767 0-3.2 1.433-3.2 3.2v0h-1.066c-1.767 0-3.2 1.433-3.2 3.2v0 3.2c0 1.767 1.433 3.2 3.2 3.2v0h6.4c0.589 0 1.066 0.478 1.066 1.066v0 1.066c-1.178 0-2.134 0.955-2.134 2.134v0 4.266c0 1.178 0.955 2.134 2.134 2.134v0h2.134c1.178 0 2.134-0.955 2.134-2.134v0-4.266c0-1.178-0.955-2.134-2.134-2.134v0-1.066c0-1.767-1.433-3.2-3.2-3.2v0h-6.4c-0.589 0-1.066-0.478-1.066-1.066v0-3.2c0-0.589 0.478-1.066 1.066-1.066v0h1.066c0 1.767 1.433 3.2 3.2 3.2v0h8.534c1.767 0 3.2-1.433 3.2-3.2v0-2.134c0-1.767-1.433-3.2-3.2-3.2v0zM23.2 25.334v4.266h-2.134v-4.266zM27.466 13.6c0 0.589-0.478 1.066-1.066 1.066v0h-8.534c-0.589 0-1.066-0.478-1.066-1.066v0-2.134c0-0.589 0.478-1.066 1.066-1.066v0h8.534c0.589 0 1.066 0.478 1.066 1.066v0z"></path>
</svg>
