<!-- Generated by IcoMoon.io -->
<svg version="1.1" xmlns="http://www.w3.org/2000/svg" width="40" height="40" viewBox="0 0 40 40">
<title>ul-plus7</title>
<path fill="#91908d" d="M18.934 14.666v2.134c0 0.589 0.478 1.066 1.066 1.066s1.066-0.478 1.066-1.066v0-1.066h2.966l-1.898 9.386c-0.016 0.069-0.025 0.149-0.025 0.23 0 0.522 0.376 0.958 0.872 1.049l0.006 0.001h0.214c0.006 0 0.014 0 0.022 0 0.514 0 0.942-0.363 1.044-0.846l0.002-0.007 2.134-10.666c0.013-0.062 0.020-0.134 0.020-0.206 0-0.259-0.092-0.496-0.246-0.681l0.002 0.002c-0.197-0.242-0.495-0.394-0.829-0.394-0.005 0-0.010 0-0.015 0h-5.333c-0.589 0-1.066 0.478-1.066 1.066v0zM26.4 12.534h1.066v1.066c0 0.589 0.478 1.066 1.066 1.066s1.066-0.478 1.066-1.066v0-1.066h1.066c0.589 0 1.066-0.478 1.066-1.066s-0.478-1.066-1.066-1.066v0h-1.066v-1.066c0-0.589-0.478-1.066-1.066-1.066s-1.066 0.478-1.066 1.066v0 1.066h-1.066c-0.589 0-1.066 0.478-1.066 1.066s0.478 1.066 1.066 1.066v0zM14.666 14.666v10.666c0 0.589 0.478 1.066 1.066 1.066s1.066-0.478 1.066-1.066v0-10.666c0-0.589-0.478-1.066-1.066-1.066s-1.066 0.478-1.066 1.066v0zM30.24 16.8c-0.49 0.102-0.854 0.531-0.854 1.045 0 0.075 0.008 0.15 0.023 0.221l-0.002-0.007c0.126 0.582 0.198 1.25 0.198 1.936 0 5.302-4.298 9.6-9.6 9.6s-9.6-4.298-9.6-9.6c0-5.302 4.298-9.6 9.6-9.6 0.686 0 1.354 0.072 1.999 0.208l-0.062-0.011c0.064 0.014 0.138 0.021 0.214 0.021 0.601 0 1.088-0.487 1.088-1.088 0-0.526-0.372-0.963-0.867-1.066l-0.007-0.001c-0.634-0.124-1.364-0.195-2.11-0.195-0.090 0-0.181 0.001-0.271 0.003h0.014c-6.48 0-11.734 5.253-11.734 11.734s5.253 11.734 11.734 11.734c6.48 0 11.734-5.253 11.734-11.734v0c0-0.010 0-0.022 0-0.033 0-0.819-0.086-1.618-0.248-2.389l0.014 0.075c-0.094-0.501-0.528-0.874-1.049-0.874-0.074 0-0.146 0.007-0.217 0.022l0.007-0.001z"></path>
</svg>
