<!-- Generated by IcoMoon.io -->
<svg version="1.1" xmlns="http://www.w3.org/2000/svg" width="40" height="40" viewBox="0 0 40 40">
<title>ul-pause</title>
<path fill="#91908d" d="M24.266 9.334c-1.767 0-3.2 1.433-3.2 3.2v0 14.934c0 1.767 1.433 3.2 3.2 3.2s3.2-1.433 3.2-3.2v0-14.934c0-1.767-1.433-3.2-3.2-3.2v0zM25.334 27.466c0 0.589-0.478 1.066-1.066 1.066s-1.066-0.478-1.066-1.066v0-14.934c0-0.589 0.478-1.066 1.066-1.066s1.066 0.478 1.066 1.066v0zM15.734 9.334c-1.767 0-3.2 1.433-3.2 3.2v0 14.934c0 1.767 1.433 3.2 3.2 3.2s3.2-1.433 3.2-3.2v0-14.934c0-1.767-1.433-3.2-3.2-3.2v0zM16.8 27.466c0 0.589-0.478 1.066-1.066 1.066s-1.066-0.478-1.066-1.066v0-14.934c0-0.589 0.478-1.066 1.066-1.066s1.066 0.478 1.066 1.066v0z"></path>
</svg>
