<!-- Generated by IcoMoon.io -->
<svg version="1.1" xmlns="http://www.w3.org/2000/svg" width="40" height="40" viewBox="0 0 40 40">
<title>ul-right-indent-alt</title>
<path fill="#91908d" d="M11.082 17.398c-0.184-0.154-0.422-0.246-0.682-0.246-0.59 0-1.068 0.478-1.068 1.068 0 0.33 0.149 0.624 0.384 0.82l0.002 0.002 1.152 0.96-1.152 0.96c-0.237 0.197-0.386 0.492-0.386 0.821 0 0.261 0.094 0.499 0.249 0.685l-0.002-0.002c0.197 0.237 0.492 0.386 0.821 0.386 0.261 0 0.499-0.094 0.685-0.249l-0.002 0.002 2.134-1.782c0.237-0.197 0.386-0.492 0.386-0.822s-0.15-0.624-0.384-0.82l-0.002-0.002zM16.8 12.534c-0.589 0-1.066 0.478-1.066 1.066v0 12.8c0 0.589 0.478 1.066 1.066 1.066s1.066-0.478 1.066-1.066v0-12.8c0-0.589-0.478-1.066-1.066-1.066v0zM21.066 14.666h8.534c0.589 0 1.066-0.478 1.066-1.066s-0.478-1.066-1.066-1.066v0h-8.534c-0.589 0-1.066 0.478-1.066 1.066s0.478 1.066 1.066 1.066v0zM29.6 25.334h-8.534c-0.589 0-1.066 0.478-1.066 1.066s0.478 1.066 1.066 1.066v0h8.534c0.589 0 1.066-0.478 1.066-1.066s-0.478-1.066-1.066-1.066v0zM29.6 16.8h-8.534c-0.589 0-1.066 0.478-1.066 1.066s0.478 1.066 1.066 1.066v0h8.534c0.589 0 1.066-0.478 1.066-1.066s-0.478-1.066-1.066-1.066v0zM29.6 21.066h-8.534c-0.589 0-1.066 0.478-1.066 1.066s0.478 1.066 1.066 1.066v0h8.534c0.589 0 1.066-0.478 1.066-1.066s-0.478-1.066-1.066-1.066v0z"></path>
</svg>
