<!-- Generated by IcoMoon.io -->
<svg version="1.1" xmlns="http://www.w3.org/2000/svg" width="40" height="40" viewBox="0 0 40 40">
<title>ul-rainbow</title>
<path fill="#91908d" d="M12.534 20c-0.589 0-1.066 0.478-1.066 1.066s0.478 1.066 1.066 1.066v0c2.946 0 5.334 2.388 5.334 5.334v0c0 0.589 0.478 1.066 1.066 1.066s1.066-0.478 1.066-1.066v0c0-4.124-3.343-7.466-7.466-7.466v0zM12.534 11.466c-0.589 0-1.066 0.478-1.066 1.066s0.478 1.066 1.066 1.066v0c7.658 0 13.866 6.208 13.866 13.866v0c0 0.589 0.478 1.066 1.066 1.066s1.066-0.478 1.066-1.066v0c0-8.837-7.163-16-16-16v0zM12.534 15.734c-0.589 0-1.066 0.478-1.066 1.066s0.478 1.066 1.066 1.066v0c5.302 0 9.6 4.298 9.6 9.6v0c0 0.589 0.478 1.066 1.066 1.066s1.066-0.478 1.066-1.066v0c0-6.48-5.253-11.734-11.734-11.734v0z"></path>
</svg>
