<!-- Generated by IcoMoon.io -->
<svg version="1.1" xmlns="http://www.w3.org/2000/svg" width="40" height="40" viewBox="0 0 40 40">
<title>ul-rope-way</title>
<path fill="#91908d" d="M27.466 14.134h-6.4v-2.666h4.928c0.589 0 1.066-0.478 1.066-1.066s-0.478-1.066-1.066-1.066v0h-11.99c-0.589 0-1.066 0.478-1.066 1.066s0.478 1.066 1.066 1.066v0h4.928v2.666h-6.4c-1.767 0-3.2 1.433-3.2 3.2v0 10.134c0 1.767 1.433 3.2 3.2 3.2v0h14.934c1.767 0 3.2-1.433 3.2-3.2v0-10.134c0-1.767-1.433-3.2-3.2-3.2v0zM18.934 28.534h-6.4c-0.589 0-1.066-0.478-1.066-1.066v0-4h7.466c-0.003 0.021-0.005 0.045-0.005 0.070s0.002 0.049 0.005 0.072v-0.002 4.8c-0.002 0.019-0.004 0.042-0.004 0.064s0.002 0.045 0.004 0.066v-0.002zM28.534 27.466c0 0.589-0.478 1.066-1.066 1.066v0h-6.4c0.002-0.019 0.004-0.042 0.004-0.064s-0.002-0.045-0.004-0.066v0.002-4.8c0.003-0.021 0.005-0.045 0.005-0.070s-0.002-0.049-0.005-0.072v0.002h7.466zM28.534 21.334h-17.066v-4c0-0.589 0.478-1.066 1.066-1.066v0h14.934c0.589 0 1.066 0.478 1.066 1.066v0z"></path>
</svg>
