<!-- Generated by IcoMoon.io -->
<svg version="1.1" xmlns="http://www.w3.org/2000/svg" width="40" height="40" viewBox="0 0 40 40">
<title>ul-snowflake</title>
<path fill="#91908d" d="M29.77 24.406l-2.134-1.226 0.95-0.256c0.476-0.114 0.825-0.535 0.825-1.039 0-0.589-0.478-1.066-1.066-1.066-0.111 0-0.219 0.017-0.32 0.049l0.007-0.002-3.008 0.81-2.89-1.674 2.89-1.674 3.008 0.81h0.278c0.042 0.006 0.090 0.009 0.138 0.009 0.594 0 1.076-0.482 1.076-1.076 0-0.545-0.406-0.996-0.931-1.066l-0.006-0.001-0.95-0.202 2.134-1.226c0.323-0.188 0.537-0.533 0.537-0.928 0-0.591-0.479-1.070-1.070-1.070-0.196 0-0.38 0.053-0.538 0.145l0.005-0.002-2.304 1.344 0.32-1.184c0.030-0.094 0.047-0.201 0.047-0.313 0-0.589-0.478-1.066-1.066-1.066-0.503 0-0.925 0.349-1.038 0.818l-0.002 0.007-0.874 3.2-2.72 1.632v-3.338l2.208-2.208c0.192-0.193 0.31-0.458 0.31-0.752s-0.118-0.559-0.31-0.752v0c-0.194-0.195-0.462-0.315-0.758-0.315s-0.564 0.121-0.758 0.315l-0.694 0.694v-2.464c0-0.589-0.478-1.066-1.066-1.066s-1.066 0.478-1.066 1.066v0 2.634l-0.864-0.864c-0.194-0.195-0.462-0.315-0.758-0.315s-0.564 0.121-0.758 0.315v0c-0.192 0.193-0.31 0.458-0.31 0.752s0.118 0.559 0.31 0.752l2.378 2.378v3.2l-2.742-1.622-0.874-3.2c-0.114-0.476-0.535-0.825-1.039-0.825-0.589 0-1.066 0.478-1.066 1.066 0 0.111 0.017 0.219 0.049 0.32l-0.002-0.007 0.342 1.142-2.304-1.322c-0.153-0.090-0.337-0.142-0.534-0.142-0.591 0-1.070 0.479-1.070 1.070 0 0.395 0.214 0.74 0.532 0.926l0.005 0.002 2.134 1.206-0.896 0.278c-0.531 0.071-0.937 0.522-0.937 1.066 0 0.594 0.482 1.076 1.076 1.076 0.049 0 0.097-0.003 0.144-0.010l-0.006 0.001h0.278l3.008-0.81 2.838 1.6-2.89 1.674-3.008-0.81c-0.11-0.042-0.238-0.066-0.371-0.066-0.589 0-1.066 0.478-1.066 1.066 0 0.543 0.406 0.992 0.931 1.058l0.006 0.001 0.95 0.256-2.134 1.226c-0.323 0.188-0.537 0.533-0.537 0.928 0 0.591 0.479 1.070 1.070 1.070 0.196 0 0.38-0.053 0.538-0.145l-0.005 0.002 2.25-1.322-0.32 1.184c-0.030 0.094-0.048 0.203-0.048 0.315 0 0.489 0.328 0.9 0.776 1.026l0.007 0.002c0.042 0.005 0.090 0.008 0.138 0.008s0.097-0.003 0.145-0.009l-0.006 0.001c0.011 0.001 0.024 0.001 0.037 0.001 0.49 0 0.904-0.331 1.029-0.782l0.002-0.007 0.874-3.2 2.698-1.632v3.338l-2.208 2.208c-0.192 0.193-0.31 0.458-0.31 0.752s0.118 0.559 0.31 0.752v0c0.193 0.197 0.461 0.318 0.757 0.32v0c0.297-0.002 0.565-0.123 0.757-0.32l0.694-0.694v2.464c0 0.589 0.478 1.066 1.066 1.066s1.066-0.478 1.066-1.066v0-2.634l0.864 0.864c0.194 0.195 0.462 0.315 0.758 0.315s0.564-0.121 0.758-0.315v0c0.192-0.193 0.31-0.458 0.31-0.752s-0.118-0.559-0.31-0.752l-2.378-2.378v-3.2l2.742 1.59 0.874 3.2c0.126 0.458 0.539 0.79 1.030 0.79 0.013 0 0.026 0 0.038-0.001h-0.002c0.042 0.005 0.090 0.008 0.138 0.008s0.097-0.003 0.145-0.009l-0.006 0.001c0.461-0.125 0.795-0.539 0.795-1.031 0-0.1-0.014-0.197-0.039-0.288l0.002 0.007-0.384-1.142 2.282 1.322c0.153 0.090 0.337 0.142 0.534 0.142 0.591 0 1.070-0.479 1.070-1.070 0-0.395-0.214-0.74-0.532-0.926l-0.005-0.002z"></path>
</svg>
