<!-- Generated by IcoMoon.io -->
<svg version="1.1" xmlns="http://www.w3.org/2000/svg" width="40" height="40" viewBox="0 0 40 40">
<title>ul-stopwatch-slash</title>
<path fill="#91908d" d="M18.506 13.206c-0.51 0.094-0.892 0.536-0.892 1.066 0 0.598 0.486 1.084 1.084 1.084 0.068 0 0.134-0.006 0.198-0.018l-0.006 0.001c0.319-0.058 0.687-0.093 1.064-0.096h0.003c3.534 0 6.4 2.866 6.4 6.4v0c-0.003 0.379-0.038 0.748-0.102 1.106l0.006-0.040c-0.010 0.057-0.017 0.122-0.017 0.189 0 0.52 0.371 0.953 0.863 1.047l0.006 0.001h0.192c0.005 0 0.011 0 0.018 0 0.522 0 0.955-0.374 1.048-0.868l0.001-0.006c0.094-0.439 0.152-0.946 0.16-1.466v-0.006c-0.006-1.985-0.687-3.809-1.827-5.255l0.014 0.018 0.97-0.96c0.194-0.194 0.314-0.462 0.314-0.758 0-0.591-0.479-1.071-1.071-1.071-0.296 0-0.563 0.12-0.758 0.314v0l-0.96 0.97c-1.425-1.114-3.242-1.788-5.215-1.792h-0.001c-0.005 0-0.010 0-0.015 0-0.522 0-1.034 0.050-1.528 0.147l0.050-0.008zM17.866 12h4.266c0.589 0 1.066-0.478 1.066-1.066s-0.478-1.066-1.066-1.066v0h-4.266c-0.589 0-1.066 0.478-1.066 1.066s0.478 1.066 1.066 1.066v0zM21.59 21.686s0-0.054 0-0.086 0-0.054 0-0.086l1.43-1.418c0.194-0.194 0.314-0.462 0.314-0.758 0-0.591-0.479-1.071-1.071-1.071-0.296 0-0.563 0.12-0.758 0.314l-1.418 1.418h-0.17l-6.624-6.624c-0.194-0.194-0.462-0.314-0.758-0.314-0.591 0-1.071 0.479-1.071 1.071 0 0.296 0.12 0.563 0.314 0.758l1.482 1.482c-1.106 1.425-1.774 3.239-1.774 5.209 0 4.713 3.821 8.534 8.534 8.534 1.97 0 3.784-0.667 5.228-1.789l-0.019 0.014 1.482 1.482c0.194 0.195 0.462 0.315 0.758 0.315s0.564-0.121 0.758-0.315v0c0.195-0.194 0.315-0.462 0.315-0.758s-0.121-0.564-0.315-0.758v0zM20 28c-0.006 0-0.011 0-0.018 0-3.534 0-6.4-2.866-6.4-6.4 0-1.402 0.45-2.698 1.214-3.752l-0.013 0.018 3.626 3.616s0 0.054 0 0.086c0 0.010 0 0.021 0 0.032 0 0.88 0.71 1.594 1.589 1.6h0.086l3.616 3.626c-1.027 0.734-2.309 1.174-3.694 1.174-0.002 0-0.006 0-0.008 0h0.001z"></path>
</svg>
