<!-- Generated by IcoMoon.io -->
<svg version="1.1" xmlns="http://www.w3.org/2000/svg" width="40" height="40" viewBox="0 0 40 40">
<title>ul-server-network</title>
<path fill="#91908d" d="M15.734 13.6c0.589 0 1.066-0.478 1.066-1.066s-0.478-1.066-1.066-1.066c-0.589 0-1.066 0.478-1.066 1.066v0c0 0.589 0.478 1.066 1.066 1.066v0zM29.6 27.466h-6.592c-0.33-0.908-1.033-1.611-1.919-1.934l-0.022-0.007v-2.326h4.266c1.767 0 3.2-1.433 3.2-3.2v0-2.134c-0.005-0.823-0.32-1.572-0.834-2.136l0.002 0.002c0.512-0.562 0.827-1.31 0.832-2.132v-2.134c0-1.767-1.433-3.2-3.2-3.2v0h-10.666c-1.767 0-3.2 1.433-3.2 3.2v0 2.134c0.005 0.823 0.32 1.572 0.834 2.136l-0.002-0.002c-0.512 0.562-0.827 1.31-0.832 2.132v2.134c0 1.767 1.433 3.2 3.2 3.2v0h4.266v2.326c-0.908 0.33-1.611 1.033-1.934 1.919l-0.007 0.022h-6.592c-0.589 0-1.066 0.478-1.066 1.066s0.478 1.066 1.066 1.066v0h6.592c0.459 1.24 1.633 2.108 3.008 2.108s2.549-0.868 3.001-2.086l0.007-0.022h6.592c0.589 0 1.066-0.478 1.066-1.066s-0.478-1.066-1.066-1.066v0zM13.6 11.466c0-0.589 0.478-1.066 1.066-1.066v0h10.666c0.589 0 1.066 0.478 1.066 1.066v0 2.134c0 0.589-0.478 1.066-1.066 1.066v0h-10.666c-0.589 0-1.066-0.478-1.066-1.066v0zM14.666 21.066c-0.589 0-1.066-0.478-1.066-1.066v0-2.134c0-0.589 0.478-1.066 1.066-1.066v0h10.666c0.589 0 1.066 0.478 1.066 1.066v0 2.134c0 0.589-0.478 1.066-1.066 1.066v0zM20 29.6c-0.589 0-1.066-0.478-1.066-1.066s0.478-1.066 1.066-1.066c0.589 0 1.066 0.478 1.066 1.066v0c0 0.589-0.478 1.066-1.066 1.066v0zM15.734 17.866c-0.589 0-1.066 0.478-1.066 1.066s0.478 1.066 1.066 1.066c0.589 0 1.066-0.478 1.066-1.066v0c0-0.589-0.478-1.066-1.066-1.066v0z"></path>
</svg>
