<!-- Generated by IcoMoon.io -->
<svg version="1.1" xmlns="http://www.w3.org/2000/svg" width="40" height="40" viewBox="0 0 40 40">
<title>ul-step-forward</title>
<path fill="#91908d" d="M16.49 14.976c-0.194-0.194-0.462-0.314-0.758-0.314-0.591 0-1.071 0.479-1.071 1.071 0 0.296 0.12 0.563 0.314 0.758v0l3.52 3.51-3.52 3.51c-0.195 0.194-0.315 0.462-0.315 0.758s0.121 0.564 0.315 0.758v0c0.194 0.195 0.462 0.315 0.758 0.315s0.564-0.121 0.758-0.315l4.266-4.266c0.195-0.194 0.315-0.462 0.315-0.758s-0.121-0.564-0.315-0.758v0zM24.266 14.666c-0.589 0-1.066 0.478-1.066 1.066v0 8.534c0 0.589 0.478 1.066 1.066 1.066s1.066-0.478 1.066-1.066v0-8.534c0-0.589-0.478-1.066-1.066-1.066v0z"></path>
</svg>
