<!-- Generated by IcoMoon.io -->
<svg version="1.1" xmlns="http://www.w3.org/2000/svg" width="40" height="40" viewBox="0 0 40 40">
<title>ul-stopwatch</title>
<path fill="#91908d" d="M26.72 16.362l0.97-0.96c0.194-0.194 0.314-0.462 0.314-0.758 0-0.591-0.479-1.071-1.071-1.071-0.296 0-0.563 0.12-0.758 0.314v0l-0.96 0.97c-1.427-1.113-3.246-1.784-5.222-1.784s-3.794 0.671-5.241 1.798l0.019-0.014-0.97-0.982c-0.194-0.193-0.462-0.312-0.758-0.312-0.594 0-1.075 0.481-1.075 1.075 0 0.298 0.122 0.568 0.318 0.762v0l0.982 0.97c-1.124 1.422-1.802 3.239-1.802 5.216 0 0.004 0 0.007 0 0.011v-0.001c0 0.006 0 0.014 0 0.022 0 4.713 3.821 8.534 8.534 8.534s8.534-3.821 8.534-8.534c0-1.992-0.682-3.825-1.827-5.278l0.014 0.018zM20 28c-3.534 0-6.4-2.866-6.4-6.4s2.866-6.4 6.4-6.4c3.534 0 6.4 2.866 6.4 6.4v0c0 3.534-2.866 6.4-6.4 6.4v0zM17.866 12h4.266c0.589 0 1.066-0.478 1.066-1.066s-0.478-1.066-1.066-1.066v0h-4.266c-0.589 0-1.066 0.478-1.066 1.066s0.478 1.066 1.066 1.066v0zM21.066 18.4c0-0.589-0.478-1.066-1.066-1.066s-1.066 0.478-1.066 1.066v0 2.016c-0.328 0.294-0.534 0.719-0.534 1.193 0 0.884 0.716 1.6 1.6 1.6s1.6-0.716 1.6-1.6c0-0.473-0.206-0.898-0.532-1.191l-0.002-0.002z"></path>
</svg>
