<!-- Generated by IcoMoon.io -->
<svg version="1.1" xmlns="http://www.w3.org/2000/svg" width="40" height="40" viewBox="0 0 40 40">
<title>ul-search-plus</title>
<path fill="#91908d" d="M23.2 17.866h-3.2v-3.2c0-0.589-0.478-1.066-1.066-1.066s-1.066 0.478-1.066 1.066v0 3.2h-3.2c-0.589 0-1.066 0.478-1.066 1.066s0.478 1.066 1.066 1.066v0h3.2v3.2c0 0.589 0.478 1.066 1.066 1.066s1.066-0.478 1.066-1.066v0-3.2h3.2c0.589 0 1.066-0.478 1.066-1.066s-0.478-1.066-1.066-1.066v0zM30.358 28.842l-3.958-3.926c1.315-1.629 2.111-3.725 2.111-6.006 0-5.302-4.298-9.6-9.6-9.6s-9.6 4.298-9.6 9.6c0 5.302 4.298 9.6 9.6 9.6 2.282 0 4.378-0.796 6.025-2.126l-0.018 0.014 3.926 3.926c0.194 0.195 0.462 0.315 0.758 0.315s0.564-0.121 0.758-0.315v0c0.186-0.192 0.3-0.453 0.3-0.742s-0.114-0.55-0.3-0.742v0zM18.934 26.4c-4.124 0-7.466-3.343-7.466-7.466s3.343-7.466 7.466-7.466c4.124 0 7.466 3.343 7.466 7.466v0c0 4.124-3.343 7.466-7.466 7.466v0z"></path>
</svg>
