<!-- Generated by IcoMoon.io -->
<svg version="1.1" xmlns="http://www.w3.org/2000/svg" width="40" height="40" viewBox="0 0 40 40">
<title>ul-sign-alt</title>
<path fill="#91908d" d="M30.432 19.872l-2.134-2.666c-0.196-0.246-0.495-0.404-0.832-0.406h-6.4v-6.4c0-0.589-0.478-1.066-1.066-1.066s-1.066 0.478-1.066 1.066v0 1.066h-6.4c-0.337 0.002-0.636 0.158-0.83 0.403l-0.002 0.002-2.134 2.666c-0.143 0.18-0.23 0.41-0.23 0.662s0.086 0.482 0.231 0.663l-0.002-0.002 2.134 2.666c0.196 0.246 0.495 0.404 0.832 0.406h6.4v9.6h-2.134c-0.589 0-1.066 0.478-1.066 1.066s0.478 1.066 1.066 1.066v0h6.4c0.589 0 1.066-0.478 1.066-1.066s-0.478-1.066-1.066-1.066v0h-2.134v-4.266h6.4c0.337-0.002 0.636-0.158 0.83-0.403l0.002-0.002 2.134-2.666c0.143-0.18 0.23-0.41 0.23-0.662s-0.086-0.482-0.231-0.663l0.002 0.002zM18.934 16.8h-5.888l-1.28-1.6 1.28-1.6h5.888zM26.954 22.134h-5.888v-3.2h5.888l1.28 1.6z"></path>
</svg>
