<!-- Generated by IcoMoon.io -->
<svg version="1.1" xmlns="http://www.w3.org/2000/svg" width="40" height="40" viewBox="0 0 40 40">
<title>ul-server-alt</title>
<path fill="#91908d" d="M15.734 25.334c-0.589 0-1.066 0.478-1.066 1.066s0.478 1.066 1.066 1.066c0.589 0 1.066-0.478 1.066-1.066v0c0-0.589-0.478-1.066-1.066-1.066v0zM15.734 18.934c-0.589 0-1.066 0.478-1.066 1.066s0.478 1.066 1.066 1.066c0.589 0 1.066-0.478 1.066-1.066v0c0-0.589-0.478-1.066-1.066-1.066v0zM15.734 12.534c-0.589 0-1.066 0.478-1.066 1.066s0.478 1.066 1.066 1.066c0.589 0 1.066-0.478 1.066-1.066v0c0-0.589-0.478-1.066-1.066-1.066v0zM28.534 12.534c0-1.767-1.433-3.2-3.2-3.2v0h-10.666c-1.767 0-3.2 1.433-3.2 3.2v0 2.134c0.005 0.823 0.32 1.572 0.834 2.136l-0.002-0.002c-0.512 0.562-0.827 1.31-0.832 2.132v2.134c0.005 0.823 0.32 1.572 0.834 2.136l-0.002-0.002c-0.512 0.562-0.827 1.31-0.832 2.132v2.134c0 1.767 1.433 3.2 3.2 3.2v0h10.666c1.767 0 3.2-1.433 3.2-3.2v0-2.134c-0.005-0.823-0.32-1.572-0.834-2.136l0.002 0.002c0.512-0.562 0.827-1.31 0.832-2.132v-2.134c-0.005-0.823-0.32-1.572-0.834-2.136l0.002 0.002c0.512-0.562 0.827-1.31 0.832-2.132v-0.001zM26.4 27.466c0 0.589-0.478 1.066-1.066 1.066v0h-10.666c-0.589 0-1.066-0.478-1.066-1.066v0-2.134c0-0.589 0.478-1.066 1.066-1.066v0h10.666c0.589 0 1.066 0.478 1.066 1.066v0zM26.4 21.066c0 0.589-0.478 1.066-1.066 1.066v0h-10.666c-0.589 0-1.066-0.478-1.066-1.066v0-2.134c0-0.589 0.478-1.066 1.066-1.066v0h10.666c0.589 0 1.066 0.478 1.066 1.066v0zM26.4 14.666c0 0.589-0.478 1.066-1.066 1.066v0h-10.666c-0.589 0-1.066-0.478-1.066-1.066v0-2.134c0-0.589 0.478-1.066 1.066-1.066v0h10.666c0.589 0 1.066 0.478 1.066 1.066v0z"></path>
</svg>
