<!-- Generated by IcoMoon.io -->
<svg version="1.1" xmlns="http://www.w3.org/2000/svg" width="40" height="40" viewBox="0 0 40 40">
<title>ul-stethoscope</title>
<path fill="#91908d" d="M27.466 15.734c-0.002 0-0.005 0-0.008 0-1.763 0-3.192 1.429-3.192 3.192 0 1.383 0.88 2.562 2.111 3.004l0.022 0.007v1.797c0 2.651-2.149 4.8-4.8 4.8s-4.8-2.149-4.8-4.8v0-0.63c3.043-0.53 5.328-3.15 5.334-6.303v-6.401c0-0.589-0.478-1.066-1.066-1.066v0h-2.134c-0.589 0-1.066 0.478-1.066 1.066s0.478 1.066 1.066 1.066v0h1.066v5.334c0 2.357-1.91 4.266-4.266 4.266s-4.266-1.91-4.266-4.266v0-5.334h1.066c0.589 0 1.066-0.478 1.066-1.066s-0.478-1.066-1.066-1.066v0h-2.134c-0.589 0-1.066 0.478-1.066 1.066v0 6.4c0.006 3.154 2.29 5.774 5.295 6.298l0.038 0.006v0.63c0 3.829 3.104 6.934 6.934 6.934s6.934-3.104 6.934-6.934v0-1.797c1.253-0.45 2.134-1.628 2.134-3.011 0-1.763-1.429-3.192-3.192-3.192-0.002 0-0.006 0-0.008 0h0.001zM27.466 20c-0.589 0-1.066-0.478-1.066-1.066s0.478-1.066 1.066-1.066c0.589 0 1.066 0.478 1.066 1.066v0c-0.001 0.589-0.478 1.066-1.066 1.066v0z"></path>
</svg>
