<!-- Generated by IcoMoon.io -->
<svg version="1.1" xmlns="http://www.w3.org/2000/svg" width="40" height="40" viewBox="0 0 40 40">
<title>ul-shopping-basket</title>
<path fill="#91908d" d="M22.134 26.4c0.589 0 1.066-0.478 1.066-1.066v0-2.134c0-0.589-0.478-1.066-1.066-1.066s-1.066 0.478-1.066 1.066v0 2.134c0 0.589 0.478 1.066 1.066 1.066v0zM17.866 26.4c0.589 0 1.066-0.478 1.066-1.066v0-2.134c0-0.589-0.478-1.066-1.066-1.066s-1.066 0.478-1.066 1.066v0 2.134c0 0.589 0.478 1.066 1.066 1.066v0zM27.466 13.6h-1.472l-1.846-3.68c-0.165-0.389-0.543-0.657-0.985-0.657-0.589 0-1.066 0.478-1.066 1.066 0 0.203 0.057 0.393 0.155 0.554l-0.002-0.005 1.354 2.72h-7.21l1.354-2.72c0.052-0.121 0.082-0.262 0.082-0.41 0-0.589-0.478-1.066-1.066-1.066-0.386 0-0.724 0.205-0.911 0.512l-0.002 0.005-1.846 3.68h-1.472c-1.746 0.027-3.151 1.45-3.151 3.2 0 1.398 0.898 2.588 2.147 3.023l0.022 0.007 0.79 7.958c0.168 1.624 1.53 2.88 3.184 2.88 0.006 0 0.011 0 0.017 0h8.938c0.005 0 0.010 0 0.016 0 1.654 0 3.016-1.256 3.183-2.866l0.001-0.014 0.79-7.958c1.272-0.442 2.17-1.631 2.17-3.030 0-1.758-1.417-3.184-3.17-3.2h-0.002zM25.536 27.574c-0.056 0.542-0.51 0.96-1.062 0.96-0.002 0-0.004 0-0.006 0h-8.938c-0.002 0-0.003 0-0.006 0-0.551 0-1.006-0.418-1.061-0.955v-0.005l-0.758-7.574h12.586zM27.466 17.866h-14.934c-0.589 0-1.066-0.478-1.066-1.066s0.478-1.066 1.066-1.066v0h14.934c0.589 0 1.066 0.478 1.066 1.066s-0.478 1.066-1.066 1.066v0z"></path>
</svg>
