<!-- Generated by IcoMoon.io -->
<svg version="1.1" xmlns="http://www.w3.org/2000/svg" width="40" height="40" viewBox="0 0 40 40">
<title>ul-sort-amount-up</title>
<path fill="#91908d" d="M13.29 13.91c-0.098-0.094-0.215-0.17-0.345-0.222l-0.007-0.002c-0.12-0.050-0.259-0.080-0.406-0.080s-0.286 0.030-0.412 0.082l0.007-0.002c-0.137 0.054-0.254 0.13-0.352 0.224v0l-2.134 2.134c-0.194 0.194-0.314 0.462-0.314 0.758 0 0.591 0.479 1.071 1.071 1.071 0.296 0 0.563-0.12 0.758-0.314v0l0.31-0.32v8.096c0 0.589 0.478 1.066 1.066 1.066s1.066-0.478 1.066-1.066v0-8.096l0.31 0.32c0.194 0.195 0.462 0.315 0.758 0.315s0.564-0.121 0.758-0.315v0c0.195-0.194 0.315-0.462 0.315-0.758s-0.121-0.564-0.315-0.758v0zM18.934 15.734h10.666c0.589 0 1.066-0.478 1.066-1.066s-0.478-1.066-1.066-1.066v0h-10.666c-0.589 0-1.066 0.478-1.066 1.066s0.478 1.066 1.066 1.066v0zM29.6 24.266h-10.666c-0.589 0-1.066 0.478-1.066 1.066s0.478 1.066 1.066 1.066v0h10.666c0.589 0 1.066-0.478 1.066-1.066s-0.478-1.066-1.066-1.066v0zM29.6 18.934h-10.666c-0.589 0-1.066 0.478-1.066 1.066s0.478 1.066 1.066 1.066v0h10.666c0.589 0 1.066-0.478 1.066-1.066s-0.478-1.066-1.066-1.066v0z"></path>
</svg>
