<!-- Generated by IcoMoon.io -->
<svg version="1.1" xmlns="http://www.w3.org/2000/svg" width="40" height="40" viewBox="0 0 40 40">
<title>ul-skip-forward</title>
<path fill="#91908d" d="M27.466 10.4c-1.767 0-3.2 1.433-3.2 3.2v0 3.030l-9.6-5.728c-0.501-0.304-1.107-0.484-1.754-0.484s-1.254 0.18-1.77 0.492l0.015-0.009c-1.098 0.632-1.824 1.798-1.824 3.134 0 0.004 0 0.009 0 0.013v-0.001 11.904c0 0.018-0.001 0.038-0.001 0.059 0 1.341 0.732 2.51 1.818 3.131l0.018 0.010c0.49 0.282 1.076 0.448 1.702 0.448 0.006 0 0.011 0 0.016 0h-0.001c0.658-0.005 1.273-0.19 1.797-0.51l-0.015 0.009 9.6-5.728v3.030c0 1.767 1.433 3.2 3.2 3.2s3.2-1.433 3.2-3.2v0-12.8c0-1.767-1.433-3.2-3.2-3.2v0zM23.542 21.312l-9.942 5.952c-0.194 0.12-0.43 0.191-0.682 0.191s-0.488-0.071-0.688-0.195l0.006 0.003c-0.462-0.26-0.768-0.747-0.768-1.306 0-0.002 0-0.005 0-0.007v0-11.904c0-0.010 0-0.022 0-0.034 0-0.554 0.302-1.038 0.75-1.296l0.007-0.004c0.19-0.11 0.418-0.178 0.66-0.182h0.001c0.004 0 0.009 0 0.014 0 0.26 0 0.502 0.075 0.706 0.206l9.946 5.949c0.44 0.278 0.728 0.762 0.728 1.312s-0.288 1.034-0.722 1.308l-0.006 0.004zM28.534 26.4c0 0.589-0.478 1.066-1.066 1.066s-1.066-0.478-1.066-1.066v0-12.8c0-0.589 0.478-1.066 1.066-1.066s1.066 0.478 1.066 1.066v0z"></path>
</svg>
