<!-- Generated by IcoMoon.io -->
<svg version="1.1" xmlns="http://www.w3.org/2000/svg" width="40" height="40" viewBox="0 0 40 40">
<title>ul-syringe</title>
<path fill="#91908d" d="M30.358 9.642c-0.194-0.195-0.462-0.315-0.758-0.315s-0.564 0.121-0.758 0.315l-2.262 2.262-0.758-0.746c-0.193-0.192-0.458-0.31-0.752-0.31s-0.559 0.118-0.752 0.31l-1.504 1.504-0.758-0.758c-0.194-0.195-0.462-0.315-0.758-0.315s-0.564 0.121-0.758 0.315v0l-8.288 8.298-0.79-0.746c-0.17-0.12-0.382-0.192-0.611-0.192-0.589 0-1.066 0.478-1.066 1.066 0 0.237 0.077 0.456 0.208 0.633l-0.002-0.003 3.766 3.776-1.846 1.856-0.758-0.768c-0.194-0.194-0.462-0.314-0.758-0.314-0.591 0-1.071 0.479-1.071 1.071 0 0.296 0.12 0.563 0.314 0.758l3.018 3.018c0.193 0.191 0.458 0.31 0.751 0.31 0.002 0 0.004 0 0.006 0v0c0.002 0 0.004 0 0.006 0 0.293 0 0.558-0.118 0.751-0.31v0c0.195-0.194 0.315-0.462 0.315-0.758s-0.121-0.564-0.315-0.758v0l-0.758-0.746 1.856-1.856 3.766 3.766c0.193 0.197 0.461 0.318 0.757 0.32v0c0.587-0.002 1.062-0.479 1.062-1.066 0-0.296-0.121-0.564-0.315-0.758v0l-0.746-0.758 8.298-8.288c0.195-0.194 0.315-0.462 0.315-0.758s-0.121-0.564-0.315-0.758l-0.758-0.758 1.504-1.45c0.192-0.193 0.31-0.458 0.31-0.752s-0.118-0.559-0.31-0.752v0l-0.746-0.758 2.262-2.262c0.211-0.195 0.343-0.474 0.343-0.784s-0.132-0.589-0.342-0.783l-0.001-0.001zM15.274 23.2l-1.514-1.482 1.504-1.514 1.536 1.514zM18.282 26.218l-1.482-1.482 1.482-1.536 1.514 1.514zM21.302 23.2l-4.502-4.502 4.522-4.522 0.758 0.746 3.766 3.776zM25.824 15.734l-1.504-1.558 0.758-0.758 1.494 1.494z"></path>
</svg>
