<!-- Generated by IcoMoon.io -->
<svg version="1.1" xmlns="http://www.w3.org/2000/svg" width="40" height="40" viewBox="0 0 40 40">
<title>ul-scenery</title>
<path fill="#91908d" d="M27.466 9.334h-14.934c-1.767 0-3.2 1.433-3.2 3.2v0 14.934c0 1.767 1.433 3.2 3.2 3.2v0h14.934c0.186-0.002 0.367-0.022 0.542-0.057l-0.019 0.003 0.32-0.074h0.128l0.394-0.15 0.138-0.074c0.106-0.064 0.224-0.118 0.33-0.192 0.15-0.111 0.282-0.222 0.406-0.342l-0.002 0.002 0.074-0.096c0.102-0.103 0.197-0.215 0.282-0.333l0.102-0.147c0.068-0.106 0.132-0.229 0.186-0.357l0.006-0.016c0.026-0.045 0.051-0.098 0.072-0.153l0.002-0.007c0.054-0.128 0.086-0.266 0.128-0.406v-0.16c0.057-0.189 0.095-0.408 0.106-0.634v-14.94c0-1.767-1.433-3.2-3.2-3.2v0zM12.534 28.534c-0.589 0-1.066-0.478-1.066-1.066v0-4.598l3.51-3.52c0.194-0.195 0.462-0.315 0.758-0.315s0.564 0.121 0.758 0.315v0l9.174 9.184zM28.534 27.466c-0.001 0.138-0.029 0.27-0.078 0.391l0.002-0.007c-0.027 0.058-0.056 0.106-0.088 0.153l0.002-0.003c-0.030 0.048-0.062 0.090-0.097 0.129l0.001-0.001-5.706-5.706 0.938-0.938c0.194-0.195 0.462-0.315 0.758-0.315s0.564 0.121 0.758 0.315v0l3.51 3.52zM28.534 21.984l-2.006-1.984c-0.588-0.558-1.385-0.902-2.262-0.902s-1.674 0.343-2.262 0.903l-0.937 0.937-3.072-3.072c-0.588-0.558-1.385-0.902-2.262-0.902s-1.674 0.343-2.262 0.903l0.002-0.002-2.006 1.984v-7.318c0-0.589 0.478-1.066 1.066-1.066v0h14.934c0.589 0 1.066 0.478 1.066 1.066v0zM21.6 13.6c-0.884 0-1.6 0.716-1.6 1.6s0.716 1.6 1.6 1.6c0.884 0 1.6-0.716 1.6-1.6v0c0-0.884-0.716-1.6-1.6-1.6v0z"></path>
</svg>
