<!-- Generated by IcoMoon.io -->
<svg version="1.1" xmlns="http://www.w3.org/2000/svg" width="40" height="40" viewBox="0 0 40 40">
<title>ul-slider-h</title>
<path fill="#91908d" d="M29.6 18.934h-3.397c-0.446-1.253-1.622-2.134-3.003-2.134s-2.557 0.881-2.997 2.111l-0.007 0.022h-9.797c-0.589 0-1.066 0.478-1.066 1.066s0.478 1.066 1.066 1.066v0h9.797c0.446 1.253 1.622 2.134 3.003 2.134s2.557-0.881 2.997-2.111l0.007-0.022h3.397c0.589 0 1.066-0.478 1.066-1.066s-0.478-1.066-1.066-1.066v0zM23.2 21.066c-0.589 0-1.066-0.478-1.066-1.066s0.478-1.066 1.066-1.066c0.589 0 1.066 0.478 1.066 1.066v0c-0.001 0.589-0.478 1.066-1.066 1.066v0z"></path>
</svg>
