<!-- Generated by IcoMoon.io -->
<svg version="1.1" xmlns="http://www.w3.org/2000/svg" width="40" height="40" viewBox="0 0 40 40">
<title>ul-sim-card</title>
<path fill="#91908d" d="M25.334 10.934h-10.666c-2.062 0-3.734 1.671-3.734 3.734v0 10.666c0 2.062 1.671 3.734 3.734 3.734v0h10.666c2.062 0 3.734-1.671 3.734-3.734v0-10.666c0-2.062-1.671-3.734-3.734-3.734v0zM18.4 13.066h3.2v3.2h-3.2zM16.266 26.934h-1.6c-0.884 0-1.6-0.716-1.6-1.6v0-1.6h3.2zM21.6 26.934h-3.2v-3.2h3.2zM26.934 25.334c0 0.884-0.716 1.6-1.6 1.6v0h-1.6v-3.2h3.2zM26.934 21.6h-13.866v-6.934c0-0.884 0.716-1.6 1.6-1.6v0h1.6v4.266c0 0.589 0.478 1.066 1.066 1.066v0h9.6zM26.934 16.266h-3.2v-3.2h1.6c0.884 0 1.6 0.716 1.6 1.6v0z"></path>
</svg>
