<!-- Generated by IcoMoon.io -->
<svg version="1.1" xmlns="http://www.w3.org/2000/svg" width="40" height="40" viewBox="0 0 40 40">
<title>ul-thunderstorm</title>
<path fill="#91908d" d="M21.6 23.2h-2.422l1.546-2.666c0.090-0.153 0.142-0.337 0.142-0.534 0-0.591-0.479-1.070-1.070-1.070-0.395 0-0.74 0.214-0.926 0.532l-0.002 0.005-2.464 4.266c-0.090 0.153-0.143 0.337-0.143 0.534s0.053 0.38 0.146 0.538l-0.002-0.005c0.188 0.321 0.531 0.534 0.924 0.534 0.002 0 0.003 0 0.005 0h2.421l-1.546 2.666c-0.090 0.153-0.142 0.337-0.142 0.534 0 0.591 0.479 1.070 1.070 1.070 0.395 0 0.74-0.214 0.926-0.532l0.002-0.005 2.464-4.266c0.090-0.153 0.143-0.337 0.143-0.534s-0.053-0.38-0.146-0.538l0.002 0.005c-0.188-0.321-0.531-0.534-0.924-0.534-0.002 0-0.003 0-0.005 0v0zM26.848 14.89c-1.181-2.662-3.8-4.485-6.846-4.485-3.787 0-6.915 2.819-7.401 6.474l-0.004 0.038c-1.892 0.464-3.273 2.146-3.273 4.15 0 2.357 1.91 4.266 4.266 4.266 0.003 0 0.006 0 0.010 0h-0.001c0.589 0 1.066-0.478 1.066-1.066s-0.478-1.066-1.066-1.066v0c-1.178 0-2.134-0.955-2.134-2.134s0.955-2.134 2.134-2.134v0c0.589 0 1.066-0.478 1.066-1.066v0c0.006-2.941 2.392-5.322 5.334-5.322 2.326 0 4.305 1.49 5.034 3.567l0.011 0.038c0.129 0.366 0.442 0.637 0.826 0.703l0.006 0.001c1.5 0.284 2.619 1.585 2.619 3.147 0 1.754-1.412 3.179-3.162 3.2h-0.002c-0.589 0-1.066 0.478-1.066 1.066s0.478 1.066 1.066 1.066v0c2.939-0.008 5.318-2.393 5.318-5.334 0-2.4-1.586-4.43-3.766-5.099l-0.038-0.010z"></path>
</svg>
