<!-- Generated by IcoMoon.io -->
<svg version="1.1" xmlns="http://www.w3.org/2000/svg" width="40" height="40" viewBox="0 0 40 40">
<title>ul-table</title>
<path fill="#91908d" d="M29.6 9.334h-19.2c-0.589 0-1.066 0.478-1.066 1.066v0 19.2c0 0.589 0.478 1.066 1.066 1.066v0h19.2c0.589 0 1.066-0.478 1.066-1.066v0-19.2c0-0.589-0.478-1.066-1.066-1.066v0zM15.734 28.534h-4.266v-4.266h4.266zM15.734 22.134h-4.266v-4.266h4.266zM15.734 15.734h-4.266v-4.266h4.266zM22.134 28.534h-4.266v-4.266h4.266zM22.134 22.134h-4.266v-4.266h4.266zM22.134 15.734h-4.266v-4.266h4.266zM28.534 28.534h-4.266v-4.266h4.266zM28.534 22.134h-4.266v-4.266h4.266zM28.534 15.734h-4.266v-4.266h4.266z"></path>
</svg>
