<!-- Generated by IcoMoon.io -->
<svg version="1.1" xmlns="http://www.w3.org/2000/svg" width="40" height="40" viewBox="0 0 40 40">
<title>ul-tv-retro-slash</title>
<path fill="#91908d" d="M19.594 15.648c0.119 0.052 0.258 0.083 0.405 0.086h6.401c0.589 0 1.066 0.478 1.066 1.066v0 5.696c0 0.589 0.478 1.066 1.066 1.066s1.066-0.478 1.066-1.066v0-5.696c0-1.767-1.433-3.2-3.2-3.2v0h-3.83l2.454-2.442c0.194-0.194 0.314-0.462 0.314-0.758 0-0.591-0.479-1.071-1.071-1.071-0.296 0-0.563 0.12-0.758 0.314l-4.266 4.266c-0.094 0.098-0.17 0.215-0.222 0.345l-0.002 0.007c-0.050 0.12-0.080 0.259-0.080 0.406s0.030 0.286 0.082 0.412l-0.002-0.007c0.11 0.262 0.314 0.466 0.569 0.574l0.007 0.002zM30.358 28.842l-19.2-19.2c-0.194-0.194-0.462-0.314-0.758-0.314-0.591 0-1.071 0.479-1.071 1.071 0 0.296 0.12 0.563 0.314 0.758v0l2.71 2.698c-1.156 0.499-1.951 1.629-1.952 2.944v8.534c0 1.767 1.433 3.2 3.2 3.2v0 1.066c0 0.589 0.478 1.066 1.066 1.066s1.066-0.478 1.066-1.066v0-1.066h8.534v1.066c0 0.589 0.478 1.066 1.066 1.066s1.066-0.478 1.066-1.066v0-1.066c0.203-0.006 0.398-0.029 0.586-0.068l-0.022 0.004 1.878 1.888c0.194 0.195 0.462 0.315 0.758 0.315s0.564-0.121 0.758-0.315v0c0.195-0.194 0.315-0.462 0.315-0.758s-0.121-0.564-0.315-0.758v0zM13.6 26.4c-0.589 0-1.066-0.478-1.066-1.066v0-8.534c0-0.589 0.478-1.066 1.066-1.066v0h0.63l10.666 10.666z"></path>
</svg>
