<!-- Generated by IcoMoon.io -->
<svg version="1.1" xmlns="http://www.w3.org/2000/svg" width="40" height="40" viewBox="0 0 40 40">
<title>ul-tumblr</title>
<path fill="#91908d" d="M25.11 26.4c-0.509 0.217-1.1 0.351-1.719 0.373h-0.009c-0.061 0.007-0.131 0.011-0.202 0.011-1.031 0-1.866-0.836-1.866-1.866 0-0.098 0.007-0.194 0.022-0.288l-0.002 0.010v-6.646h4.266v-3.2h-4.266v-5.462h-3.114c-0.084 0.006-0.15 0.075-0.15 0.16 0 0 0 0 0 0v0c-0.144 2.63-1.827 4.833-4.158 5.734l-0.045 0.015v2.752h2.134v6.976c0 2.378 1.76 5.77 6.4 5.696 1.568 0 3.318-0.682 3.702-1.248z"></path>
</svg>
