<!-- Generated by IcoMoon.io -->
<svg version="1.1" xmlns="http://www.w3.org/2000/svg" width="40" height="40" viewBox="0 0 40 40">
<title>ul-tag</title>
<path fill="#91908d" d="M29.728 18.624l-8.97-8.982c-0.193-0.191-0.458-0.31-0.751-0.31-0.002 0-0.004 0-0.006 0h-9.6c-0.589 0-1.066 0.478-1.066 1.066v0 9.6c0 0.002 0 0.004 0 0.006 0 0.293 0.118 0.558 0.31 0.751v0l8.982 8.97c0.579 0.578 1.378 0.936 2.262 0.936s1.682-0.358 2.262-0.936v0l6.582-6.528c0.578-0.579 0.936-1.378 0.936-2.262s-0.358-1.682-0.936-2.262v0zM28.224 21.632v0l-6.592 6.582c-0.193 0.192-0.458 0.31-0.752 0.31s-0.559-0.118-0.752-0.31v0l-8.662-8.65v-8.096h8.096l8.662 8.662c0.191 0.193 0.31 0.458 0.31 0.751 0 0.002 0 0.004 0 0.006v0c-0.002 0.291-0.119 0.555-0.31 0.746v0z"></path>
</svg>
