<!-- Generated by IcoMoon.io -->
<svg version="1.1" xmlns="http://www.w3.org/2000/svg" width="40" height="40" viewBox="0 0 40 40">
<title>ul-user-circle</title>
<path fill="#91908d" d="M20 9.334c-5.882 0.011-10.646 4.782-10.646 10.666 0 2.784 1.066 5.319 2.814 7.218l-0.007-0.008c1.955 2.114 4.743 3.434 7.84 3.434s5.885-1.319 7.834-3.427l0.006-0.007c1.74-1.892 2.806-4.426 2.806-7.21 0-5.884-4.764-10.655-10.646-10.666h-0.001zM20 28.534c-2.302-0.003-4.39-0.918-5.922-2.402l0.002 0.002c0.983-2.348 3.262-3.968 5.92-3.968s4.937 1.62 5.904 3.926l0.016 0.042c-1.53 1.482-3.618 2.397-5.919 2.4h-0.001zM17.866 17.866c0-1.178 0.955-2.134 2.134-2.134s2.134 0.955 2.134 2.134c0 1.178-0.955 2.134-2.134 2.134v0c-1.178 0-2.134-0.955-2.134-2.134v0zM27.37 24.266c-0.96-1.622-2.396-2.876-4.114-3.585l-0.057-0.021c0.662-0.748 1.066-1.738 1.066-2.822 0-2.357-1.91-4.266-4.266-4.266s-4.266 1.91-4.266 4.266c0 1.084 0.405 2.074 1.070 2.826l-0.004-0.005c-1.774 0.73-3.21 1.983-4.149 3.566l-0.022 0.039c-0.729-1.222-1.161-2.694-1.162-4.266v-0.001c0-4.713 3.821-8.534 8.534-8.534s8.534 3.821 8.534 8.534v0c-0.002 1.574-0.434 3.046-1.184 4.306l0.022-0.039z"></path>
</svg>
