<!-- Generated by IcoMoon.io -->
<svg version="1.1" xmlns="http://www.w3.org/2000/svg" width="40" height="40" viewBox="0 0 40 40">
<title>ul-vuejs-alt</title>
<path fill="#91908d" d="M31.592 10.799c-0.187-0.322-0.53-0.535-0.924-0.535l-9.196-0.004c-0.359 0-0.677 0.178-0.87 0.45l-0.002 0.003-0.596 0.849-0.602-0.851c-0.195-0.274-0.512-0.451-0.87-0.451 0 0 0 0 0 0l-3.898-0.001-5.305 0.029c-0.586 0.003-1.062 0.479-1.062 1.066 0 0.199 0.054 0.385 0.15 0.545l-0.002-0.005 10.687 18.246c0.189 0.318 0.53 0.527 0.92 0.527h0.001c0.391 0 0.733-0.21 0.918-0.524l0.002-0.005 10.646-18.27c0.091-0.154 0.145-0.339 0.145-0.537 0-0.196-0.053-0.379-0.144-0.537l0.002 0.005zM17.978 12.393l1.158 1.635c0.195 0.274 0.512 0.451 0.87 0.451 0 0 0.001 0 0.001 0h0.002c0.358-0.001 0.676-0.178 0.869-0.45l0.002-0.003 1.147-1.634 1.454-0.001-3.46 5.818-3.494-5.818zM20.018 27.486l-8.83-15.075 2.848-0.016 5.070 8.446c0.19 0.312 0.528 0.518 0.914 0.518h0.006c0.387-0.001 0.726-0.208 0.912-0.517l0.002-0.005 5.022-8.444 2.847 0.003z"></path>
</svg>
