<!-- Generated by IcoMoon.io -->
<svg version="1.1" xmlns="http://www.w3.org/2000/svg" width="40" height="40" viewBox="0 0 40 40">
<title>ul-video</title>
<path fill="#91908d" d="M30.166 14.826c-0.153-0.090-0.337-0.143-0.534-0.143s-0.38 0.053-0.538 0.146l0.005-0.002-3.766 1.856c-0.065-1.716-1.472-3.082-3.198-3.082-0.001 0-0.002 0-0.002 0h-9.6c-1.767 0-3.2 1.433-3.2 3.2v0 6.4c0 1.767 1.433 3.2 3.2 3.2v0h9.6c0.001 0 0.002 0 0.002 0 1.726 0 3.133-1.366 3.198-3.077v-0.006l3.798 1.898c0.137 0.071 0.298 0.114 0.469 0.118h0.001c0.001 0 0.002 0 0.003 0 0.208 0 0.402-0.059 0.566-0.162l-0.005 0.002c0.303-0.192 0.502-0.525 0.502-0.905 0-0.001 0-0.002 0-0.002v0-8.534c0-0.001 0-0.002 0-0.002 0-0.379-0.198-0.713-0.497-0.902l-0.004-0.002zM23.2 23.2c0 0.589-0.478 1.066-1.066 1.066v0h-9.6c-0.589 0-1.066-0.478-1.066-1.066v0-6.4c0-0.589 0.478-1.066 1.066-1.066v0h9.6c0.589 0 1.066 0.478 1.066 1.066v0zM28.534 22.538l-3.2-1.6v-1.878l3.2-1.6z"></path>
</svg>
