<!-- Generated by IcoMoon.io -->
<svg version="1.1" xmlns="http://www.w3.org/2000/svg" width="40" height="40" viewBox="0 0 40 40">
<title>ul-vertical-align-bottom</title>
<path fill="#91908d" d="M29.6 28.534h-3.2v-11.734c0-0.589-0.478-1.066-1.066-1.066v0h-3.2v-5.334c0-0.589-0.478-1.066-1.066-1.066v0h-6.4c-0.589 0-1.066 0.478-1.066 1.066v0 18.134h-3.2c-0.589 0-1.066 0.478-1.066 1.066s0.478 1.066 1.066 1.066v0h19.2c0.589 0 1.066-0.478 1.066-1.066s-0.478-1.066-1.066-1.066v0zM20 28.534h-4.266v-17.066h4.266zM24.266 28.534h-2.134v-10.666h2.134z"></path>
</svg>
