<!-- Generated by IcoMoon.io -->
<svg version="1.1" xmlns="http://www.w3.org/2000/svg" width="40" height="40" viewBox="0 0 40 40">
<title>ul-volume-mute</title>
<path fill="#91908d" d="M20.458 11.574c-0.125-0.055-0.27-0.088-0.423-0.088-0.242 0-0.466 0.081-0.646 0.218l0.002-0.002-5.098 4.032h-3.894c-0.589 0-1.066 0.478-1.066 1.066v0 6.4c0 0.589 0.478 1.066 1.066 1.066v0h3.894l5.046 4.032c0.179 0.145 0.41 0.233 0.661 0.234v0c0.005 0 0.010 0 0.016 0 0.162 0 0.314-0.039 0.448-0.11l-0.006 0.002c0.362-0.175 0.606-0.538 0.608-0.96v-14.934c-0.002-0.422-0.246-0.785-0.602-0.958l-0.006-0.002zM18.934 25.248l-3.606-2.88c-0.179-0.145-0.41-0.233-0.661-0.234h-3.2v-4.266h3.2c0.251-0.002 0.482-0.090 0.663-0.236l-0.002 0.002 3.606-2.88zM28.438 20l1.92-1.91c0.194-0.194 0.314-0.462 0.314-0.758 0-0.591-0.479-1.071-1.071-1.071-0.296 0-0.563 0.12-0.758 0.314v0l-1.91 1.92-1.91-1.92c-0.194-0.194-0.462-0.314-0.758-0.314-0.591 0-1.071 0.479-1.071 1.071 0 0.296 0.12 0.563 0.314 0.758v0l1.92 1.91-1.92 1.91c-0.195 0.194-0.315 0.462-0.315 0.758s0.121 0.564 0.315 0.758v0c0.194 0.195 0.462 0.315 0.758 0.315s0.564-0.121 0.758-0.315v0l1.91-1.92 1.91 1.92c0.194 0.195 0.462 0.315 0.758 0.315s0.564-0.121 0.758-0.315v0c0.195-0.194 0.315-0.462 0.315-0.758s-0.121-0.564-0.315-0.758v0z"></path>
</svg>
