<!-- Generated by IcoMoon.io -->
<svg version="1.1" xmlns="http://www.w3.org/2000/svg" width="40" height="40" viewBox="0 0 40 40">
<title>ul-wheelchair-alt</title>
<path fill="#91908d" d="M28.534 24.458v-0.192c-0.004-1.382-0.882-2.557-2.111-3.001l-0.022-0.007v-6.592h1.066c0.589 0 1.066-0.478 1.066-1.066s-0.478-1.066-1.066-1.066v0h-12.8c0-1.767-1.433-3.2-3.2-3.2v0h-1.066c-0.589 0-1.066 0.478-1.066 1.066s0.478 1.066 1.066 1.066v0h1.066c0.589 0 1.066 0.478 1.066 1.066v0 7.914c-1.899 0.844-3.2 2.714-3.2 4.888 0 2.946 2.388 5.334 5.334 5.334s5.334-2.388 5.334-5.334c0-0.001 0-0.002 0-0.003v0c0-0.002 0-0.005 0-0.007 0-0.77-0.165-1.501-0.462-2.159l0.014 0.034h5.782c0.589 0 1.066 0.478 1.066 1.066v0 0.192c-1.254 0.453-2.134 1.632-2.134 3.017 0 1.767 1.433 3.2 3.2 3.2s3.2-1.433 3.2-3.2c0-1.385-0.88-2.565-2.111-3.010l-0.022-0.007zM14.666 28.534c-1.767 0-3.2-1.433-3.2-3.2s1.433-3.2 3.2-3.2c1.767 0 3.2 1.433 3.2 3.2v0c0 1.767-1.433 3.2-3.2 3.2v0zM24.266 21.066h-6.4c-0.872-0.666-1.977-1.066-3.175-1.066-0.009 0-0.018 0-0.026 0h0.002v-1.066h9.6zM24.266 16.8h-9.6v-2.134h9.6zM27.466 28.534c-0.589 0-1.066-0.478-1.066-1.066s0.478-1.066 1.066-1.066c0.589 0 1.066 0.478 1.066 1.066v0c0 0.589-0.478 1.066-1.066 1.066v0zM14.666 24.266c-0.589 0-1.066 0.478-1.066 1.066s0.478 1.066 1.066 1.066c0.589 0 1.066-0.478 1.066-1.066v0c0-0.589-0.478-1.066-1.066-1.066v0z"></path>
</svg>
