<!-- Generated by IcoMoon.io -->
<svg version="1.1" xmlns="http://www.w3.org/2000/svg" width="40" height="40" viewBox="0 0 40 40">
<title>ul-youtube</title>
<path fill="#91908d" d="M31.734 17.558c0.003-0.094 0.006-0.203 0.006-0.313 0-1.493-0.361-2.902-1-4.143l0.024 0.051c-0.458-0.546-1.093-0.929-1.815-1.064l-0.019-0.003c-2.263-0.218-4.894-0.342-7.553-0.342-0.483 0-0.966 0.004-1.447 0.012l0.072-0.001c-0.43-0.008-0.936-0.013-1.444-0.013-2.623 0-5.219 0.121-7.781 0.357l0.329-0.025c-0.61 0.114-1.14 0.394-1.558 0.79l0.002-0.002c-0.96 0.886-1.066 2.4-1.174 3.68-0.074 1.034-0.116 2.24-0.116 3.456s0.042 2.422 0.125 3.618l-0.009-0.162c0.034 0.774 0.149 1.504 0.336 2.205l-0.016-0.071c0.138 0.563 0.401 1.052 0.76 1.454l-0.003-0.003c0.422 0.418 0.964 0.713 1.57 0.829l0.019 0.003c1.773 0.231 3.823 0.363 5.904 0.363 0.362 0 0.723-0.004 1.083-0.012l-0.054 0.001c3.734 0.054 7.008 0 10.88-0.298 0.641-0.112 1.199-0.409 1.633-0.833l-0.001 0.001c0.29-0.29 0.514-0.648 0.646-1.048l0.006-0.018c0.352-1.044 0.555-2.246 0.555-3.497 0-0.046 0-0.091-0.001-0.137v0.007c0.042-0.598 0.042-4.202 0.042-4.842zM17.59 23.040v-6.602l6.314 3.318c-1.77 0.982-4.106 2.090-6.314 3.286z"></path>
</svg>
