<!-- Generated by IcoMoon.io -->
<svg version="1.1" xmlns="http://www.w3.org/2000/svg" width="40" height="40" viewBox="0 0 40 40">
<title>ut-hand</title>
<path fill="none" stroke-linejoin="round" stroke-linecap="round" stroke-miterlimit="10" stroke-width="2.7448" stroke="#91908d" d="M23.657 18.159v-11.054c0-1.103-0.895-2.007-2.008-2.007-1.111 0-2.007 0.904-2.007 2.007v11.054"></path>
<path fill="none" stroke-linejoin="round" stroke-linecap="round" stroke-miterlimit="10" stroke-width="2.7448" stroke="#91908d" d="M27.674 19.499v-11.052c0-1.112-0.895-2.008-2.007-2.008-1.107 0-2.009 0.895-2.009 2.008v9.712"></path>
<path fill="none" stroke-linejoin="round" stroke-linecap="round" stroke-miterlimit="10" stroke-width="2.7448" stroke="#91908d" d="M19.642 18.159v-8.372c0-1.112-0.902-2.009-2.007-2.009-1.113 0-2.008 0.897-2.008 2.009v11.72l-2.716-3.715c-0.804-1.235-2.374-1.655-3.524-0.942-1.145 0.726-1.426 2.306-0.634 3.546 0 0 6.615 14.506 13.427 14.506 8.146 0 9.517-7.222 9.517-9.379v-13.061c0-1.104-0.905-2.008-2.015-2.008-1.104 0-2.008 0.904-2.008 2.008v7.037"></path>
</svg>
