<!-- Generated by IcoMoon.io -->
<svg version="1.1" xmlns="http://www.w3.org/2000/svg" width="40" height="40" viewBox="0 0 40 40">
<title>ut-key</title>
<path fill="none" stroke-linejoin="round" stroke-linecap="round" stroke-miterlimit="10" stroke-width="2.8002" stroke="#91908d" d="M25.925 14.096c1.064 1.065 2.79 1.064 3.854 0s1.064-2.789 0-3.854c-1.064-1.065-2.79-1.065-3.854 0s-1.064 2.79 0 3.854z"></path>
<path fill="none" stroke-linejoin="round" stroke-linecap="round" stroke-miterlimit="10" stroke-width="2.8002" stroke="#91908d" d="M5.12 30.845v4.013h4.014l12.769-12.759c3.356 1.688 7.553 1.13 10.355-1.672 3.497-3.497 3.497-9.166 0-12.663s-9.167-3.498-12.664-0.001c-2.788 2.789-3.353 6.957-1.696 10.305l-4.75 4.749h-4.014v4.014"></path>
<path fill="none" stroke-linejoin="round" stroke-linecap="round" stroke-miterlimit="10" stroke-width="2.8002" stroke="#91908d" d="M5.12 30.845v-4.014h4.014"></path>
</svg>
