<!-- Generated by IcoMoon.io -->
<svg version="1.1" xmlns="http://www.w3.org/2000/svg" width="40" height="40" viewBox="0 0 40 40">
<title>ut-touch</title>
<path fill="none" stroke-linejoin="round" stroke-linecap="round" stroke-miterlimit="10" stroke-width="2.5818" stroke="#91908d" d="M13.551 17.014c-2.368-0.865-4.059-3.137-4.059-5.804 0-3.411 2.767-6.178 6.179-6.178 3.41 0 6.177 2.766 6.177 6.178 0 2.666-1.691 4.939-4.057 5.804"></path>
<path fill="none" stroke-linejoin="round" stroke-linecap="round" stroke-miterlimit="10" stroke-width="2.5818" stroke="#91908d" d="M30.508 18.616c0-1.171-0.949-2.12-2.119-2.12s-2.12 0.948-2.12 2.12c0-1.171-0.949-2.12-2.12-2.12s-2.121 0.948-2.121 2.12c0-1.171-0.948-2.12-2.119-2.12-1.17 0-2.119 0.948-2.119 2.12v-7.406c0-1.171-0.949-2.121-2.12-2.121s-2.121 0.95-2.121 2.121v15.278c0 4.684 3.797 8.478 8.479 8.478 4.684 0 8.48-3.795 8.48-8.478v0 0-7.872z"></path>
<path fill="none" stroke-linejoin="round" stroke-linecap="round" stroke-miterlimit="10" stroke-width="2.5818" stroke="#91908d" d="M17.79 18.616v2.265"></path>
<path fill="none" stroke-linejoin="round" stroke-linecap="round" stroke-miterlimit="10" stroke-width="2.5818" stroke="#91908d" d="M22.028 18.616v2.265"></path>
<path fill="none" stroke-linejoin="round" stroke-linecap="round" stroke-miterlimit="10" stroke-width="2.5818" stroke="#91908d" d="M26.27 18.616v2.265"></path>
</svg>
