<!-- Generated by IcoMoon.io -->
<svg version="1.1" xmlns="http://www.w3.org/2000/svg" width="24" height="24" viewBox="0 0 24 24">
<title>video_settings</title>
<path fill="#91908d" d="M4.8 7.2h14.4v4.012h1.612v-4.012q0-0.675-0.469-1.144t-1.144-0.469h-14.4q-0.675 0-1.144 0.469t-0.469 1.144v9.6q0 0.675 0.469 1.144t1.144 0.469h7.2v-1.613h-7.2v-9.6zM14.4 12l-4.8-3.188v6.375zM20.55 17.138q0.075-0.375 0.038-0.675l0.863-0.675q0.112-0.112 0.037-0.263l-0.825-1.425q-0.075-0.15-0.262-0.112l-1.013 0.413q-0.263-0.188-0.6-0.338l-0.15-1.088q-0.038-0.188-0.225-0.188h-1.65q-0.15 0-0.188 0.188l-0.15 1.088q-0.188 0.075-0.337 0.15t-0.263 0.188l-1.050-0.413q-0.15-0.075-0.225 0.075l-0.825 1.463q-0.075 0.15 0.038 0.225l0.862 0.713q-0.037 0.375 0 0.675l-0.862 0.675q-0.15 0.112-0.038 0.262l0.825 1.425q0.075 0.15 0.225 0.112l1.013-0.412q0.3 0.188 0.6 0.337l0.188 1.087q0 0.15 0.188 0.15h1.65q0.188 0 0.188-0.15l0.188-1.087 0.3-0.15t0.262-0.188l1.050 0.412q0.15 0.038 0.225-0.112l0.825-1.425q0.112-0.15-0.038-0.262zM17.587 18q-0.487 0-0.844-0.356t-0.356-0.844 0.356-0.844 0.844-0.356q0.525 0 0.863 0.356t0.337 0.844-0.337 0.844-0.863 0.356z"></path>
</svg>
