<!-- Generated by IcoMoon.io -->
<svg version="1.1" xmlns="http://www.w3.org/2000/svg" width="24" height="24" viewBox="0 0 24 24">
<title>view_comfy</title>
<path fill="#91908d" d="M16.8 6.413h3.188v3.188h-3.188v-3.188zM16.8 17.587v-3.188h3.188v3.188h-3.188zM12.788 17.587v-3.188h3.225v3.188h-3.225zM8.813 17.587v-3.188h3.188v3.188h-3.188zM4.8 17.587v-3.188h3.188v3.188h-3.188zM16.8 13.612v-3.225h3.188v3.225h-3.188zM12.788 6.413h3.225v3.188h-3.225v-3.188zM8.813 9.6v-3.188h3.188v3.188h-3.188zM12.788 13.612v-3.225h3.225v3.225h-3.225zM8.813 13.612v-3.225h3.188v3.225h-3.188zM4.8 13.612v-3.225h3.188v3.225h-3.188zM4.8 9.6v-3.188h3.188v3.188h-3.188z"></path>
</svg>
