<!-- Generated by IcoMoon.io -->
<svg version="1.1" xmlns="http://www.w3.org/2000/svg" width="24" height="24" viewBox="0 0 24 24">
<title>view_week</title>
<path fill="#91908d" d="M12.788 6.413q0.337 0 0.581 0.225t0.244 0.563v9.6q0 0.338-0.244 0.563t-0.581 0.225h-2.4q-0.338 0-0.563-0.225t-0.225-0.563v-9.6q0-0.337 0.225-0.563t0.563-0.225h2.4zM18.413 6.413q0.337 0 0.563 0.225t0.225 0.563v9.6q0 0.338-0.225 0.563t-0.563 0.225h-2.4q-0.338 0-0.581-0.225t-0.244-0.563v-9.6q0-0.337 0.244-0.563t0.581-0.225h2.4zM7.2 6.413q0.338 0 0.563 0.225t0.225 0.563v9.6q0 0.338-0.225 0.563t-0.563 0.225h-2.4q-0.338 0-0.563-0.225t-0.225-0.563v-9.6q0-0.337 0.225-0.563t0.563-0.225h2.4z"></path>
</svg>
