<!-- Generated by IcoMoon.io -->
<svg version="1.1" xmlns="http://www.w3.org/2000/svg" width="24" height="24" viewBox="0 0 24 24">
<title>voicemail</title>
<path fill="#91908d" d="M17.212 14.4q1.163 0 1.969-0.825t0.806-1.988-0.806-1.969-1.969-0.806-1.987 0.806-0.825 1.969 0.825 1.988 1.987 0.825zM6.788 14.4q1.163 0 1.987-0.825t0.825-1.988-0.825-1.969-1.987-0.806-1.969 0.806-0.806 1.969 0.806 1.988 1.969 0.825zM17.212 7.2q1.837 0 3.113 1.275t1.275 3.112-1.275 3.131-3.113 1.294h-10.425q-1.837 0-3.112-1.294t-1.275-3.131 1.275-3.112 3.112-1.275 3.131 1.275 1.294 3.112q0 1.613-1.012 2.813h3.6q-1.012-1.2-1.012-2.813 0-1.837 1.294-3.112t3.131-1.275z"></path>
</svg>
