<!-- Generated by IcoMoon.io -->
<svg version="1.1" xmlns="http://www.w3.org/2000/svg" width="24" height="24" viewBox="0 0 24 24">
<title>vpn_lock</title>
<path fill="#91908d" d="M10.387 19.163v-1.575q-0.637 0-1.106-0.469t-0.469-1.106v-0.825l-3.863-3.825q-0.15 0.6-0.15 1.425 0 2.438 1.612 4.256t3.975 2.119zM17.55 12h1.613q0.038 0.263 0.038 0.788 0 3.337-2.344 5.681t-5.644 2.344q-3.338 0-5.681-2.344t-2.344-5.681q0-3.3 2.344-5.644t5.681-2.344q1.162 0 2.4 0.375v2.025q0 0.637-0.487 1.125t-1.125 0.488h-1.613v1.575q0 0.338-0.225 0.581t-0.563 0.244h-1.613v1.575h4.8q0.337 0 0.581 0.244t0.244 0.581v2.4h0.787q1.162 0 1.537 1.087 1.65-1.763 1.65-4.313 0-0.525-0.038-0.788zM19.35 5.588v-0.375q0-0.563-0.394-0.975t-0.956-0.413-0.956 0.413-0.394 0.975v0.375h2.7zM19.987 5.588q0.338 0 0.581 0.244t0.244 0.581v3.188q0 0.337-0.244 0.563t-0.581 0.225h-3.975q-0.338 0-0.581-0.225t-0.244-0.563v-3.188q0-0.337 0.244-0.581t0.581-0.244v-0.375q0-0.825 0.581-1.425t1.406-0.6 1.406 0.6 0.581 1.425v0.375z"></path>
</svg>
