<!-- Generated by IcoMoon.io -->
<svg version="1.1" xmlns="http://www.w3.org/2000/svg" width="24" height="24" viewBox="0 0 24 24">
<title>work_off</title>
<path fill="#91908d" d="M13.65 7.2v-1.65h-3.262v1.65h3.262zM19.987 8.775v8.25l-11.137-11.212v-0.262q0-0.675 0.45-1.125t1.125-0.413h3.225q0.675-0.037 1.125 0.413t0.45 1.125v1.65h3.225q0.675-0.038 1.125 0.431t0.412 1.144zM20.813 19.8l-1.013 1.013-1.65-1.65h-12.525q-0.675 0-1.125-0.469t-0.45-1.144v-8.775q0-0.675 0.45-1.144t1.125-0.469h0.525l-2.175-2.175 1.012-1.012z"></path>
</svg>
