<!-- Generated by IcoMoon.io -->
<svg version="1.1" xmlns="http://www.w3.org/2000/svg" width="280" height="280" viewBox="0 0 280 280">
<title>mi-attachment</title>
<path fill="#91908d" d="M87.5 227.5c-9.333 0-17.5-3.5-24.5-10.5-14-14-14-36.167 0-49 4.667-4.667 11.667-4.667 16.333 0s4.667 11.667 0 16.333c-4.667 4.667-4.667 11.667 0 16.333s11.667 4.667 16.333 0c4.667-4.667 11.667-4.667 16.333 0s4.667 11.667 0 16.333c-7 7-16.333 10.5-24.5 10.5z"></path>
<path fill="#91908d" d="M235.667 155.167c-3.5 0-5.833-1.167-8.167-3.5-4.667-4.667-4.667-11.667 0-16.333 14-14 14-36.167 0-49-12.833-12.833-36.167-12.833-49 0-4.667 4.667-11.667 4.667-16.333 0s-4.667-11.667 0-16.333c10.5-11.667 24.5-17.5 40.833-17.5s30.333 5.833 40.833 16.333c22.167 22.167 22.167 59.5 0 82.833-2.333 2.333-5.833 3.5-8.167 3.5z"></path>
<path fill="#91908d" d="M70 187.833c-3.5 0-5.833-1.167-8.167-3.5-4.667-4.667-4.667-11.667 0-16.333l99.167-99.167c4.667-4.667 11.667-4.667 16.333 0s4.667 11.667 0 16.333l-99.167 99.167c-1.167 2.333-4.667 3.5-8.167 3.5z"></path>
<path fill="#91908d" d="M136.5 254.333c-3.5 0-5.833-1.167-8.167-3.5-4.667-4.667-4.667-11.667 0-16.333l99.167-99.167c4.667-4.667 11.667-4.667 16.333 0s4.667 11.667 0 16.333l-99.167 99.167c-2.333 2.333-4.667 3.5-8.167 3.5z"></path>
<path fill="#91908d" d="M103.833 220.5c-3.5 0-5.833-1.167-8.167-3.5-4.667-4.667-4.667-11.667 0-16.333l99.167-99.167c4.667-4.667 11.667-4.667 16.333 0s4.667 11.667 0 16.333l-99.167 99.167c-2.333 3.5-5.833 3.5-8.167 3.5z"></path>
<path fill="#91908d" d="M37.333 155.167c-3.5 0-5.833-1.167-8.167-3.5-4.667-4.667-4.667-11.667 0-16.333l131.833-131.833c4.667-4.667 11.667-4.667 16.333 0s4.667 11.667 0 16.333l-131.833 131.833c-2.333 2.333-4.667 3.5-8.167 3.5z"></path>
<path fill="#91908d" d="M87.5 274.167c-21 0-42-8.167-57.167-23.333s-23.333-36.167-23.333-57.167 8.167-42 23.333-57.167c4.667-4.667 11.667-4.667 16.333 0s4.667 11.667 0 16.333c-10.5 10.5-17.5 25.667-17.5 40.833s5.833 30.333 17.5 40.833c22.167 22.167 59.5 22.167 82.833 0 4.667-4.667 11.667-4.667 16.333 0s4.667 11.667 0 16.333c-17.5 16.333-37.333 23.333-58.333 23.333z"></path>
</svg>
