<!-- Generated by IcoMoon.io -->
<svg version="1.1" xmlns="http://www.w3.org/2000/svg" width="280" height="280" viewBox="0 0 280 280">
<title>mi-alt</title>
<path fill="#91908d" d="M268.333 210h-116.667c-4.667 0-8.167-2.333-10.5-5.833l-54.833-99.167h-74.667c-7 0-11.667-4.667-11.667-11.667s4.667-11.667 11.667-11.667h81.667c4.667 0 8.167 2.333 10.5 5.833l54.833 99.167h109.667c7 0 11.667 4.667 11.667 11.667s-4.667 11.667-11.667 11.667z"></path>
<path fill="#91908d" d="M268.333 105h-116.667c-7 0-11.667-4.667-11.667-11.667s4.667-11.667 11.667-11.667h116.667c7 0 11.667 4.667 11.667 11.667s-4.667 11.667-11.667 11.667z"></path>
</svg>
