<!-- Generated by IcoMoon.io -->
<svg version="1.1" xmlns="http://www.w3.org/2000/svg" width="280" height="280" viewBox="0 0 280 280">
<title>mi-bar-chart</title>
<path fill="#91908d" d="M280 280h-221.667c-25.667 0-46.667-21-46.667-46.667v-221.667c0-7 4.667-11.667 11.667-11.667s11.667 4.667 11.667 11.667v221.667c0 12.833 10.5 23.333 23.333 23.333h221.667c7 0 11.667 4.667 11.667 11.667s-4.667 11.667-11.667 11.667z"></path>
<path fill="#91908d" d="M70 233.333c-7 0-11.667-4.667-11.667-11.667v-58.333c0-7 4.667-11.667 11.667-11.667s11.667 4.667 11.667 11.667v58.333c0 7-4.667 11.667-11.667 11.667z"></path>
<path fill="#91908d" d="M116.667 233.333c-7 0-11.667-4.667-11.667-11.667v-105c0-7 4.667-11.667 11.667-11.667s11.667 4.667 11.667 11.667v105c0 7-4.667 11.667-11.667 11.667z"></path>
<path fill="#91908d" d="M163.333 233.333c-7 0-11.667-4.667-11.667-11.667v-81.667c0-7 4.667-11.667 11.667-11.667s11.667 4.667 11.667 11.667v81.667c0 7-4.667 11.667-11.667 11.667z"></path>
<path fill="#91908d" d="M210 233.333c-7 0-11.667-4.667-11.667-11.667v-140c0-7 4.667-11.667 11.667-11.667s11.667 4.667 11.667 11.667v140c0 7-4.667 11.667-11.667 11.667z"></path>
<path fill="#91908d" d="M256.667 233.333c-7 0-11.667-4.667-11.667-11.667v-70c0-7 4.667-11.667 11.667-11.667s11.667 4.667 11.667 11.667v70c0 7-4.667 11.667-11.667 11.667z"></path>
</svg>
