<!-- Generated by IcoMoon.io -->
<svg version="1.1" xmlns="http://www.w3.org/2000/svg" width="280" height="280" viewBox="0 0 280 280">
<title>mi-clock</title>
<path fill="#91908d" d="M140 280c-77 0-140-63-140-140s63-140 140-140 140 63 140 140-63 140-140 140zM140 23.333c-64.167 0-116.667 52.5-116.667 116.667s52.5 116.667 116.667 116.667 116.667-52.5 116.667-116.667-52.5-116.667-116.667-116.667z"></path>
<path fill="#91908d" d="M140 151.667c-7 0-11.667-4.667-11.667-11.667v-81.667c0-7 4.667-11.667 11.667-11.667s11.667 4.667 11.667 11.667v81.667c0 7-4.667 11.667-11.667 11.667z"></path>
<path fill="#91908d" d="M186.667 198.333c-3.5 0-5.833-1.167-8.167-3.5l-46.667-46.667c-4.667-4.667-4.667-11.667 0-16.333s11.667-4.667 16.333 0l46.667 46.667c4.667 4.667 4.667 11.667 0 16.333-2.333 2.333-4.667 3.5-8.167 3.5z"></path>
</svg>
