<!-- Generated by IcoMoon.io -->
<svg version="1.1" xmlns="http://www.w3.org/2000/svg" width="280" height="280" viewBox="0 0 280 280">
<title>mi-corner-arrow</title>
<path fill="#91908d" d="M210 140c-3.5 0-5.833-1.167-8.167-3.5-4.667-4.667-4.667-11.667 0-16.333l58.333-58.333c4.667-4.667 11.667-4.667 16.333 0s4.667 11.667 0 16.333l-58.333 58.333c-2.333 2.333-4.667 3.5-8.167 3.5z"></path>
<path fill="#91908d" d="M268.333 81.667c-3.5 0-5.833-1.167-8.167-3.5l-58.333-58.333c-4.667-4.667-4.667-11.667 0-16.333s11.667-4.667 16.333 0l58.333 58.333c4.667 4.667 4.667 11.667 0 16.333-2.333 2.333-4.667 3.5-8.167 3.5z"></path>
<path fill="#91908d" d="M70 280c-3.5 0-5.833-1.167-8.167-3.5l-58.333-58.333c-4.667-4.667-4.667-11.667 0-16.333s11.667-4.667 16.333 0l58.333 58.333c4.667 4.667 4.667 11.667 0 16.333-2.333 2.333-4.667 3.5-8.167 3.5z"></path>
<path fill="#91908d" d="M70 280c-3.5 0-5.833-1.167-8.167-3.5-4.667-4.667-4.667-11.667 0-16.333l58.333-58.333c4.667-4.667 11.667-4.667 16.333 0s4.667 11.667 0 16.333l-58.333 58.333c-2.333 2.333-4.667 3.5-8.167 3.5z"></path>
<path fill="#91908d" d="M70 280c-7 0-11.667-4.667-11.667-11.667v-128.333c0-45.5 36.167-81.667 81.667-81.667h128.333c7 0 11.667 4.667 11.667 11.667s-4.667 11.667-11.667 11.667h-128.333c-32.667 0-58.333 25.667-58.333 58.333v128.333c0 7-4.667 11.667-11.667 11.667z"></path>
</svg>
