<!-- Generated by IcoMoon.io -->
<svg version="1.1" xmlns="http://www.w3.org/2000/svg" width="280" height="280" viewBox="0 0 280 280">
<title>mi-cube</title>
<path fill="#91908d" d="M140 116.667c-1.167 0-2.333 0-3.5-1.167l-128.333-46.667c-4.667-1.167-8.167-5.833-8.167-10.5s3.5-9.333 8.167-10.5l128.333-46.667c2.333-1.167 5.833-1.167 8.167 0l128.333 46.667c3.5 1.167 7 5.833 7 10.5s-3.5 9.333-8.167 10.5l-128.333 46.667c-1.167 1.167-2.333 1.167-3.5 1.167zM45.5 58.333l94.5 33.833 94.5-33.833-94.5-33.833-94.5 33.833z"></path>
<path fill="#91908d" d="M140 280c-1.167 0-2.333 0-3.5-1.167l-128.333-46.667c-5.833-2.333-9.333-9.333-7-15.167s9.333-9.333 15.167-7l123.667 45.5 124.833-45.5c5.833-2.333 12.833 1.167 15.167 7s-1.167 12.833-7 15.167l-128.333 46.667c-2.333 1.167-3.5 1.167-4.667 1.167z"></path>
<path fill="#91908d" d="M140 280c-7 0-11.667-4.667-11.667-11.667v-163.333c0-7 4.667-11.667 11.667-11.667s11.667 4.667 11.667 11.667v163.333c0 7-4.667 11.667-11.667 11.667z"></path>
<path fill="#91908d" d="M268.333 233.333c-7 0-11.667-4.667-11.667-11.667v-163.333c0-7 4.667-11.667 11.667-11.667s11.667 4.667 11.667 11.667v163.333c0 7-4.667 11.667-11.667 11.667z"></path>
<path fill="#91908d" d="M11.667 233.333c-7 0-11.667-4.667-11.667-11.667v-163.333c0-7 4.667-11.667 11.667-11.667s11.667 4.667 11.667 11.667v163.333c0 7-4.667 11.667-11.667 11.667z"></path>
</svg>
