<!-- Generated by IcoMoon.io -->
<svg version="1.1" xmlns="http://www.w3.org/2000/svg" width="280" height="280" viewBox="0 0 280 280">
<title>mi-collapse</title>
<path fill="#91908d" d="M93.333 105h-46.667c-7 0-11.667-4.667-11.667-11.667s4.667-11.667 11.667-11.667h46.667c7 0 11.667 4.667 11.667 11.667s-4.667 11.667-11.667 11.667z"></path>
<path fill="#91908d" d="M93.333 105c-7 0-11.667-4.667-11.667-11.667v-46.667c0-7 4.667-11.667 11.667-11.667s11.667 4.667 11.667 11.667v46.667c0 7-4.667 11.667-11.667 11.667z"></path>
<path fill="#91908d" d="M93.333 105c-3.5 0-5.833-1.167-8.167-3.5l-81.667-81.667c-4.667-4.667-4.667-11.667 0-16.333s11.667-4.667 16.333 0l81.667 81.667c4.667 4.667 4.667 11.667 0 16.333-2.333 2.333-4.667 3.5-8.167 3.5z"></path>
<path fill="#91908d" d="M233.333 105h-46.667c-7 0-11.667-4.667-11.667-11.667s4.667-11.667 11.667-11.667h46.667c7 0 11.667 4.667 11.667 11.667s-4.667 11.667-11.667 11.667z"></path>
<path fill="#91908d" d="M186.667 105c-7 0-11.667-4.667-11.667-11.667v-46.667c0-7 4.667-11.667 11.667-11.667s11.667 4.667 11.667 11.667v46.667c0 7-4.667 11.667-11.667 11.667z"></path>
<path fill="#91908d" d="M186.667 105c-3.5 0-5.833-1.167-8.167-3.5-4.667-4.667-4.667-11.667 0-16.333l81.667-81.667c4.667-4.667 11.667-4.667 16.333 0s4.667 11.667 0 16.333l-81.667 81.667c-2.333 2.333-4.667 3.5-8.167 3.5z"></path>
<path fill="#91908d" d="M93.333 198.333h-46.667c-7 0-11.667-4.667-11.667-11.667s4.667-11.667 11.667-11.667h46.667c7 0 11.667 4.667 11.667 11.667s-4.667 11.667-11.667 11.667z"></path>
<path fill="#91908d" d="M93.333 245c-7 0-11.667-4.667-11.667-11.667v-46.667c0-7 4.667-11.667 11.667-11.667s11.667 4.667 11.667 11.667v46.667c0 7-4.667 11.667-11.667 11.667z"></path>
<path fill="#91908d" d="M11.667 280c-3.5 0-5.833-1.167-8.167-3.5-4.667-4.667-4.667-11.667 0-16.333l81.667-81.667c4.667-4.667 11.667-4.667 16.333 0s4.667 11.667 0 16.333l-81.667 81.667c-2.333 2.333-4.667 3.5-8.167 3.5z"></path>
<path fill="#91908d" d="M233.333 198.333h-46.667c-7 0-11.667-4.667-11.667-11.667s4.667-11.667 11.667-11.667h46.667c7 0 11.667 4.667 11.667 11.667s-4.667 11.667-11.667 11.667z"></path>
<path fill="#91908d" d="M186.667 245c-7 0-11.667-4.667-11.667-11.667v-46.667c0-7 4.667-11.667 11.667-11.667s11.667 4.667 11.667 11.667v46.667c0 7-4.667 11.667-11.667 11.667z"></path>
<path fill="#91908d" d="M268.333 280c-3.5 0-5.833-1.167-8.167-3.5l-81.667-81.667c-4.667-4.667-4.667-11.667 0-16.333s11.667-4.667 16.333 0l81.667 81.667c4.667 4.667 4.667 11.667 0 16.333-2.333 2.333-4.667 3.5-8.167 3.5z"></path>
</svg>
