<!-- Generated by IcoMoon.io -->
<svg version="1.1" xmlns="http://www.w3.org/2000/svg" width="280" height="280" viewBox="0 0 280 280">
<title>mi-edit</title>
<path fill="#91908d" d="M212.333 280h-168c-24.5 0-44.333-19.833-44.333-44.333v-168c0-24.5 19.833-44.333 44.333-44.333h84c7 0 11.667 4.667 11.667 11.667s-4.667 11.667-11.667 11.667h-84c-11.667 0-21 9.333-21 21v166.833c0 11.667 9.333 21 21 21h166.833c11.667 0 21-9.333 21-21v-82.833c0-7 4.667-11.667 11.667-11.667s11.667 4.667 11.667 11.667v84c1.167 24.5-18.667 44.333-43.167 44.333z"></path>
<path fill="#91908d" d="M70 221.667c-3.5 0-5.833-1.167-8.167-3.5s-3.5-7-3.5-10.5l11.667-58.333c0-2.333 1.167-4.667 3.5-5.833l140-140c4.667-4.667 11.667-4.667 16.333 0l46.667 46.667c4.667 4.667 4.667 11.667 0 16.333l-140 140c-1.167 1.167-3.5 2.333-5.833 3.5l-58.333 11.667c-1.167 0-1.167 0-2.333 0zM92.167 157.5l-7 37.333 37.333-7 129.5-129.5-30.333-30.333-129.5 129.5z"></path>
</svg>
