<!-- Generated by IcoMoon.io -->
<svg version="1.1" xmlns="http://www.w3.org/2000/svg" width="280" height="280" viewBox="0 0 280 280">
<title>mi-earth</title>
<path fill="#91908d" d="M140 280c-77 0-140-63-140-140s63-140 140-140 140 63 140 140-63 140-140 140zM140 23.333c-64.167 0-116.667 52.5-116.667 116.667s52.5 116.667 116.667 116.667 116.667-52.5 116.667-116.667-52.5-116.667-116.667-116.667z"></path>
<path fill="#91908d" d="M75.833 262.5c-3.5 0-5.833-1.167-8.167-3.5-4.667-4.667-4.667-11.667 0-16.333l4.667-4.667 9.333-28-8.167-16.333-32.667-22.167c-3.5-1.167-5.833-4.667-5.833-8.167v-35c0-4.667 3.5-9.333 8.167-10.5l32.667-10.5 14-14-35-49c-3.5-5.833-2.333-14 2.333-17.5 5.833-3.5 12.833-2.333 16.333 2.333l40.833 57.167c3.5 4.667 2.333 10.5-1.167 15.167l-23.333 23.333c-1.167 1.167-2.333 2.333-4.667 2.333l-26.833 9.333v19.833l30.333 19.833c1.167 1.167 3.5 2.333 3.5 4.667l11.667 23.333c1.167 3.5 1.167 7 0 9.333l-11.667 35c0 1.167-1.167 3.5-2.333 4.667l-5.833 5.833c-2.333 2.333-5.833 3.5-8.167 3.5z"></path>
<path fill="#91908d" d="M186.667 221.667c-2.333 0-3.5 0-4.667-1.167l-23.333-11.667c-2.333-1.167-4.667-3.5-4.667-4.667l-11.667-23.333c-1.167-3.5-1.167-7 0-10.5l10.5-21v-21c0-7 4.667-11.667 11.667-11.667h17.5l31.5-42c0 0 1.167-1.167 1.167-1.167l18.667-19.833c4.667-4.667 11.667-4.667 16.333 0s4.667 11.667 0 16.333l-19.833 19.833-35 45.5c-1.167 3.5-4.667 4.667-8.167 4.667h-11.667v11.667c0 2.333 0 3.5-1.167 4.667l-9.333 18.667 7 15.167 12.833 5.833 16.333-16.333 10.5-22.167c2.333-3.5 5.833-5.833 9.333-7 4.667 0 8.167 1.167 10.5 4.667l22.167 32.667 4.667 2.333c5.833 2.333 8.167 10.5 4.667 15.167-2.333 5.833-10.5 8.167-15.167 4.667l-7-3.5c-2.333-1.167-3.5-2.333-4.667-3.5l-11.667-18.667-2.333 5.833c0 1.167-1.167 2.333-2.333 3.5l-23.333 23.333c-3.5 3.5-5.833 4.667-9.333 4.667z"></path>
</svg>
