<!-- Generated by IcoMoon.io -->
<svg version="1.1" xmlns="http://www.w3.org/2000/svg" width="280" height="280" viewBox="0 0 280 280">
<title>mi-fork-knife</title>
<path fill="#91908d" d="M93.333 116.667v0c-25.667 0-46.667-21-46.667-46.667v-58.333c0-7 4.667-11.667 11.667-11.667h70c7 0 11.667 4.667 11.667 11.667v58.333c0 25.667-21 46.667-46.667 46.667zM70 23.333v46.667c0 12.833 10.5 23.333 23.333 23.333v0c12.833 0 23.333-10.5 23.333-23.333v-46.667h-46.667z"></path>
<path fill="#91908d" d="M93.333 280c-7 0-11.667-4.667-11.667-11.667v-151.667c0-7 4.667-11.667 11.667-11.667s11.667 4.667 11.667 11.667v151.667c0 7-4.667 11.667-11.667 11.667z"></path>
<path fill="#91908d" d="M175 280c-7 0-11.667-4.667-11.667-11.667v-256.667c0-7 4.667-11.667 11.667-11.667s11.667 4.667 11.667 11.667v256.667c0 7-4.667 11.667-11.667 11.667z"></path>
<path fill="#91908d" d="M221.667 175h-46.667c-7 0-11.667-4.667-11.667-11.667v-151.667c0-7 4.667-11.667 11.667-11.667 32.667 0 58.333 25.667 58.333 58.333v105c0 7-4.667 11.667-11.667 11.667zM186.667 151.667h23.333v-93.333c0-15.167-9.333-28-23.333-32.667v126z"></path>
</svg>
