<!-- Generated by IcoMoon.io -->
<svg version="1.1" xmlns="http://www.w3.org/2000/svg" width="280" height="280" viewBox="0 0 280 280">
<title>mi-fire</title>
<path fill="#91908d" d="M140 280c-58.333 0-105-46.667-105-105 0-46.667 28-95.667 39.667-114.333 7-10.5 39.667-60.667 65.333-60.667 7 0 11.667 4.667 11.667 11.667s-4.667 11.667-11.667 11.667c-16.333 2.333-81.667 86.333-81.667 151.667 0 45.5 36.167 81.667 81.667 81.667s81.667-36.167 81.667-81.667c0-9.333-1.167-18.667-3.5-30.333-5.833-22.167-16.333-47.833-31.5-71.167-3.5-5.833-2.333-12.833 3.5-16.333s12.833-2.333 16.333 3.5c16.333 25.667 28 53.667 35 78.167 2.333 12.833 3.5 25.667 3.5 36.167 0 58.333-46.667 105-105 105z"></path>
<path fill="#91908d" d="M175 115.5c-3.5 0-7-1.167-9.333-3.5-24.5-28-37.333-63-37.333-100.333 0-7 4.667-11.667 11.667-11.667s11.667 4.667 11.667 11.667c0 31.5 11.667 61.833 31.5 85.167 4.667 4.667 3.5 11.667-1.167 16.333-1.167 1.167-4.667 2.333-7 2.333z"></path>
<path fill="#91908d" d="M175 115.5c-3.5 0-5.833-1.167-8.167-3.5-4.667-4.667-4.667-11.667 0-16.333 8.167-9.333 15.167-19.833 17.5-31.5 1.167-5.833 8.167-9.333 14-8.167s10.5 8.167 8.167 14c-3.5 15.167-12.833 30.333-23.333 42-2.333 2.333-5.833 3.5-8.167 3.5z"></path>
<path fill="#91908d" d="M140 280c-32.667 0-58.333-25.667-58.333-58.333 0-36.167 36.167-93.333 58.333-93.333 7 0 11.667 4.667 11.667 11.667 0 5.833-4.667 10.5-10.5 11.667-8.167 4.667-36.167 42-36.167 70 0 19.833 15.167 35 35 35s35-15.167 35-35c0-3.5-1.167-8.167-2.333-14-2.333-10.5-8.167-22.167-15.167-33.833-3.5-5.833-2.333-12.833 3.5-16.333s12.833-2.333 16.333 3.5c8.167 12.833 15.167 28 18.667 40.833 1.167 7 2.333 12.833 2.333 19.833 0 32.667-25.667 58.333-58.333 58.333z"></path>
<path fill="#91908d" d="M157.5 198.333c-3.5 0-7-1.167-9.333-3.5-12.833-16.333-19.833-35-19.833-54.833 0-7 4.667-11.667 11.667-11.667s11.667 4.667 11.667 11.667c0 14 4.667 28 14 38.5 4.667 4.667 3.5 11.667-1.167 16.333-1.167 2.333-4.667 3.5-7 3.5z"></path>
<path fill="#91908d" d="M157.5 198.333c-3.5 0-5.833-1.167-8.167-3.5-4.667-4.667-4.667-11.667 0-16.333 3.5-3.5 5.833-8.167 7-12.833 1.167-5.833 8.167-10.5 14-8.167 5.833 1.167 10.5 8.167 8.167 14-2.333 9.333-7 17.5-14 23.333-1.167 2.333-4.667 3.5-7 3.5z"></path>
</svg>
