<!-- Generated by IcoMoon.io -->
<svg version="1.1" xmlns="http://www.w3.org/2000/svg" width="280" height="280" viewBox="0 0 280 280">
<title>mi-form</title>
<path fill="#91908d" d="M256.667 70h-233.333c-12.833 0-23.333-10.5-23.333-23.333v-23.333c0-12.833 10.5-23.333 23.333-23.333h233.333c12.833 0 23.333 10.5 23.333 23.333v23.333c0 12.833-10.5 23.333-23.333 23.333zM256.667 46.667v0zM23.333 23.333v23.333h233.333v-23.333h-233.333z"></path>
<path fill="#91908d" d="M256.667 175h-233.333c-12.833 0-23.333-10.5-23.333-23.333v-23.333c0-12.833 10.5-23.333 23.333-23.333h233.333c12.833 0 23.333 10.5 23.333 23.333v23.333c0 12.833-10.5 23.333-23.333 23.333zM256.667 151.667v0zM23.333 128.333v23.333h233.333v-23.333h-233.333z"></path>
<path fill="#91908d" d="M128.333 268.333h-105c-5.833 0-11.667-5.833-11.667-11.667v-23.333c0-5.833 5.833-11.667 11.667-11.667h105c7 0 11.667 5.833 11.667 11.667v23.333c0 5.833-4.667 11.667-11.667 11.667z"></path>
<path fill="#91908d" d="M128.333 280h-105c-12.833 0-23.333-10.5-23.333-23.333v-23.333c0-12.833 10.5-23.333 23.333-23.333h105c12.833 0 23.333 10.5 23.333 23.333v23.333c0 12.833-10.5 23.333-23.333 23.333zM128.333 256.667v0zM23.333 233.333v23.333h105v-23.333h-105z"></path>
</svg>
