<!-- Generated by IcoMoon.io -->
<svg version="1.1" xmlns="http://www.w3.org/2000/svg" width="280" height="280" viewBox="0 0 280 280">
<title>mi-folder-add</title>
<path fill="#91908d" d="M131.833 233.333h-120.167c-7 0-11.667-4.667-11.667-11.667v-210c0-7 4.667-11.667 11.667-11.667h81.667c7 0 11.667 4.667 11.667 11.667v11.667h128.333c7 0 11.667 4.667 11.667 11.667v46.667c0 7-4.667 11.667-11.667 11.667s-11.667-4.667-11.667-11.667v-35h-128.333c-7 0-11.667-4.667-11.667-11.667v-11.667h-58.333v186.667h108.5c7 0 11.667 4.667 11.667 11.667s-4.667 11.667-11.667 11.667z"></path>
<path fill="#91908d" d="M128.333 233.333h-116.667c-3.5 0-7-1.167-9.333-4.667-2.333-2.333-2.333-5.833-2.333-9.333l35-140c1.167-5.833 5.833-9.333 11.667-9.333h221.667c3.5 0 7 1.167 9.333 4.667 2.333 2.333 2.333 7 2.333 10.5l-19.833 68.833c-1.167 5.833-8.167 9.333-14 8.167s-9.333-8.167-8.167-14l15.167-54.833h-197.167l-29.167 116.667h101.5c7 0 11.667 4.667 11.667 11.667s-4.667 11.667-11.667 11.667z"></path>
<path fill="#91908d" d="M233.333 210h-70c-7 0-11.667-4.667-11.667-11.667s4.667-11.667 11.667-11.667h70c7 0 11.667 4.667 11.667 11.667s-4.667 11.667-11.667 11.667z"></path>
<path fill="#91908d" d="M198.333 245c-7 0-11.667-4.667-11.667-11.667v-70c0-7 4.667-11.667 11.667-11.667s11.667 4.667 11.667 11.667v70c0 7-4.667 11.667-11.667 11.667z"></path>
<path fill="#91908d" d="M198.333 280c-45.5 0-81.667-36.167-81.667-81.667s36.167-81.667 81.667-81.667 81.667 36.167 81.667 81.667-36.167 81.667-81.667 81.667zM198.333 140c-32.667 0-58.333 25.667-58.333 58.333s25.667 58.333 58.333 58.333 58.333-25.667 58.333-58.333-25.667-58.333-58.333-58.333z"></path>
</svg>
