<!-- Generated by IcoMoon.io -->
<svg version="1.1" xmlns="http://www.w3.org/2000/svg" width="280" height="280" viewBox="0 0 280 280">
<title>mi-files</title>
<path fill="#91908d" d="M186.667 233.333h-140c-7 0-11.667-4.667-11.667-11.667v-210c0-7 4.667-11.667 11.667-11.667h140c7 0 11.667 4.667 11.667 11.667v210c0 7-4.667 11.667-11.667 11.667zM58.333 210h116.667v-186.667h-116.667v186.667z"></path>
<path fill="#91908d" d="M233.333 280h-140c-7 0-11.667-4.667-11.667-11.667v-46.667c0-7 4.667-11.667 11.667-11.667s11.667 4.667 11.667 11.667v35h116.667v-186.667h-35c-7 0-11.667-4.667-11.667-11.667s4.667-11.667 11.667-11.667h46.667c7 0 11.667 4.667 11.667 11.667v210c0 7-4.667 11.667-11.667 11.667z"></path>
</svg>
