<!-- Generated by IcoMoon.io -->
<svg version="1.1" xmlns="http://www.w3.org/2000/svg" width="280" height="280" viewBox="0 0 280 280">
<title>mi-grid</title>
<path fill="#91908d" d="M116.667 128.333h-105c-7 0-11.667-4.667-11.667-11.667v-105c0-7 4.667-11.667 11.667-11.667h105c7 0 11.667 4.667 11.667 11.667v105c0 7-4.667 11.667-11.667 11.667zM23.333 105h81.667v-81.667h-81.667v81.667z"></path>
<path fill="#91908d" d="M268.333 128.333h-105c-7 0-11.667-4.667-11.667-11.667v-105c0-7 4.667-11.667 11.667-11.667h105c7 0 11.667 4.667 11.667 11.667v105c0 7-4.667 11.667-11.667 11.667zM175 105h81.667v-81.667h-81.667v81.667z"></path>
<path fill="#91908d" d="M116.667 280h-105c-7 0-11.667-4.667-11.667-11.667v-105c0-7 4.667-11.667 11.667-11.667h105c7 0 11.667 4.667 11.667 11.667v105c0 7-4.667 11.667-11.667 11.667zM23.333 256.667h81.667v-81.667h-81.667v81.667z"></path>
<path fill="#91908d" d="M268.333 280h-105c-7 0-11.667-4.667-11.667-11.667v-105c0-7 4.667-11.667 11.667-11.667h105c7 0 11.667 4.667 11.667 11.667v105c0 7-4.667 11.667-11.667 11.667zM175 256.667h81.667v-81.667h-81.667v81.667z"></path>
</svg>
