<!-- Generated by IcoMoon.io -->
<svg version="1.1" xmlns="http://www.w3.org/2000/svg" width="280" height="280" viewBox="0 0 280 280">
<title>mi-home</title>
<path fill="#91908d" d="M221.667 280h-163.333c-7 0-11.667-4.667-11.667-11.667v-105h-35c-4.667 0-9.333-2.333-10.5-7-2.333-4.667-1.167-9.333 2.333-12.833l128.333-140c4.667-4.667 12.833-4.667 17.5 0l128.333 140c3.5 3.5 3.5 8.167 2.333 12.833-2.333 4.667-7 7-11.667 7h-35v105c0 7-4.667 11.667-11.667 11.667zM70 256.667h140v-105c0-7 4.667-11.667 11.667-11.667h19.833l-101.5-110.833-101.5 110.833h19.833c7 0 11.667 4.667 11.667 11.667v105z"></path>
<path fill="#91908d" d="M163.333 280h-46.667c-7 0-11.667-4.667-11.667-11.667v-70c0-7 4.667-11.667 11.667-11.667h46.667c7 0 11.667 4.667 11.667 11.667v70c0 7-4.667 11.667-11.667 11.667zM128.333 256.667h23.333v-46.667h-23.333v46.667z"></path>
<path fill="#91908d" d="M140 151.667c-19.833 0-35-15.167-35-35s15.167-35 35-35 35 15.167 35 35-15.167 35-35 35zM140 105c-7 0-11.667 4.667-11.667 11.667s4.667 11.667 11.667 11.667 11.667-4.667 11.667-11.667-4.667-11.667-11.667-11.667z"></path>
</svg>
