<!-- Generated by IcoMoon.io -->
<svg version="1.1" xmlns="http://www.w3.org/2000/svg" width="280" height="280" viewBox="0 0 280 280">
<title>mi-hide-sidebar-horiz</title>
<path fill="#91908d" d="M233.333 280h-186.667c-25.667 0-46.667-21-46.667-46.667v-186.667c0-25.667 21-46.667 46.667-46.667h186.667c25.667 0 46.667 21 46.667 46.667v186.667c0 25.667-21 46.667-46.667 46.667zM46.667 23.333c-12.833 0-23.333 10.5-23.333 23.333v186.667c0 12.833 10.5 23.333 23.333 23.333h186.667c12.833 0 23.333-10.5 23.333-23.333v-186.667c0-12.833-10.5-23.333-23.333-23.333h-186.667z"></path>
<path fill="#91908d" d="M93.333 280c-7 0-11.667-4.667-11.667-11.667v-256.667c0-7 4.667-11.667 11.667-11.667s11.667 4.667 11.667 11.667v256.667c0 7-4.667 11.667-11.667 11.667z"></path>
<path fill="#91908d" d="M163.333 151.667c-3.5 0-5.833-1.167-8.167-3.5-4.667-4.667-4.667-11.667 0-16.333l35-35c4.667-4.667 11.667-4.667 16.333 0s4.667 11.667 0 16.333l-35 35c-2.333 2.333-4.667 3.5-8.167 3.5z"></path>
<path fill="#91908d" d="M198.333 186.667c-3.5 0-5.833-1.167-8.167-3.5l-35-35c-4.667-4.667-4.667-11.667 0-16.333s11.667-4.667 16.333 0l35 35c4.667 4.667 4.667 11.667 0 16.333-2.333 2.333-4.667 3.5-8.167 3.5z"></path>
</svg>
