<!-- Generated by IcoMoon.io -->
<svg version="1.1" xmlns="http://www.w3.org/2000/svg" width="280" height="280" viewBox="0 0 280 280">
<title>mi-juice</title>
<path fill="#91908d" d="M198.333 280h-116.667c-5.833 0-10.5-4.667-11.667-10.5l-23.333-186.667c0-3.5 1.167-7 2.333-9.333 2.333-2.333 5.833-3.5 9.333-3.5h163.333c3.5 0 7 1.167 8.167 3.5 2.333 3.5 3.5 5.833 3.5 9.333l-23.333 186.667c-1.167 5.833-5.833 10.5-11.667 10.5zM92.167 256.667h95.667l21-163.333h-137.667l21 163.333z"></path>
<path fill="#91908d" d="M140 245c-1.167 0-2.333 0-3.5-1.167-5.833-2.333-9.333-9.333-7-15.167l81.667-221.667c2.333-5.833 9.333-9.333 15.167-7s9.333 9.333 7 15.167l-81.667 221.667c-2.333 5.833-7 8.167-11.667 8.167z"></path>
<path fill="#91908d" d="M175 186.667c-5.833 0-9.333 0-14-1.167-12.833-1.167-23.333-3.5-31.5-7-9.333-1.167-15.167-3.5-24.5-3.5-8.167 0-19.833 2.333-32.667 4.667-5.833 1.167-12.833-2.333-14-8.167s2.333-12.833 8.167-14c10.5-2.333 25.667-5.833 38.5-5.833 11.667 0 22.167 2.333 30.333 5.833 8.167 2.333 16.333 4.667 26.833 5.833 11.667 1.167 29.167 0 45.5-2.333 5.833-1.167 12.833 3.5 14 9.333s-3.5 12.833-9.333 14c-12.833 1.167-25.667 2.333-37.333 2.333z"></path>
</svg>
