<!-- Generated by IcoMoon.io -->
<svg version="1.1" xmlns="http://www.w3.org/2000/svg" width="280" height="280" viewBox="0 0 280 280">
<title>mi-link</title>
<path fill="#91908d" d="M166.833 184.333c-16.333 0-32.667-7-44.333-18.667-16.333-16.333-22.167-37.333-17.5-58.333 0-7 5.833-11.667 11.667-9.333 5.833 1.167 10.5 7 9.333 14-2.333 12.833 1.167 26.833 10.5 36.167 10.5 10.5 24.5 14 37.333 11.667 7-1.167 14-4.667 18.667-9.333 1.167-1.167 1.167-1.167 2.333-1.167l33.833-33.833c15.167-15.167 15.167-40.833 0-57.167-16.333-16.333-42-16.333-58.333-1.167l-17.5 17.5c0 0-1.167 1.167-1.167 1.167-3.5 4.667-11.667 5.833-16.333 2.333s-5.833-11.667-2.333-16.333c2.333-2.333 3.5-3.5 4.667-3.5l17.5-17.5c24.5-24.5 65.333-24.5 89.833 0 25.667 25.667 25.667 65.333 1.167 91l-33.833 33.833c-1.167 1.167-2.333 2.333-3.5 3.5-8.167 7-17.5 11.667-29.167 14-4.667 0-9.333 1.167-12.833 1.167z"></path>
<path fill="#91908d" d="M92.167 257.833c-16.333 0-32.667-5.833-45.5-18.667-25.667-25.667-25.667-65.333-1.167-91l33.833-33.833c2.333 0 2.333-1.167 3.5-2.333 8.167-7 17.5-11.667 29.167-14 21-4.667 42 2.333 58.333 17.5 16.333 16.333 22.167 37.333 17.5 58.333-1.167 5.833-7 10.5-14 9.333-5.833-1.167-10.5-7-9.333-14 2.333-12.833-1.167-26.833-10.5-36.167-10.5-10.5-24.5-14-37.333-11.667-7 1.167-14 4.667-18.667 9.333-1.167 1.167-1.167 1.167-2.333 1.167l-33.833 33.833c-15.167 15.167-15.167 40.833 0 57.167 16.333 16.333 42 16.333 58.333 1.167l17.5-17.5c0 0 1.167-1.167 1.167-1.167 3.5-4.667 11.667-5.833 16.333-2.333s5.833 11.667 2.333 16.333c-1.167 1.167-2.333 2.333-3.5 3.5l-17.5 17.5c-11.667 11.667-28 17.5-44.333 17.5z"></path>
</svg>
