<!-- Generated by IcoMoon.io -->
<svg version="1.1" xmlns="http://www.w3.org/2000/svg" width="280" height="280" viewBox="0 0 280 280">
<title>mi-lamp</title>
<path fill="#91908d" d="M233.333 163.333c0 0 0 0 0 0h-186.667c-3.5 0-7-1.167-9.333-4.667-2.333-2.333-2.333-5.833-2.333-9.333l35-140c1.167-5.833 5.833-9.333 11.667-9.333h116.667c5.833 0 10.5 3.5 11.667 9.333l35 137.667c0 1.167 0 2.333 0 4.667 0 7-4.667 11.667-11.667 11.667zM61.833 140h156.333l-29.167-116.667h-98l-29.167 116.667z"></path>
<path fill="#91908d" d="M198.333 280h-116.667c-7 0-11.667-4.667-11.667-11.667s4.667-11.667 11.667-11.667h116.667c7 0 11.667 4.667 11.667 11.667s-4.667 11.667-11.667 11.667z"></path>
<path fill="#91908d" d="M140 280c-7 0-11.667-4.667-11.667-11.667v-116.667c0-7 4.667-11.667 11.667-11.667s11.667 4.667 11.667 11.667v116.667c0 7-4.667 11.667-11.667 11.667z"></path>
</svg>
