<!-- Generated by IcoMoon.io -->
<svg version="1.1" xmlns="http://www.w3.org/2000/svg" width="280" height="280" viewBox="0 0 280 280">
<title>mi-loading</title>
<path fill="#91908d" d="M140 58.333c-7 0-11.667-4.667-11.667-11.667v-35c0-7 4.667-11.667 11.667-11.667s11.667 4.667 11.667 11.667v35c0 7-4.667 11.667-11.667 11.667z"></path>
<path fill="#91908d" d="M140 280c-7 0-11.667-4.667-11.667-11.667v-35c0-7 4.667-11.667 11.667-11.667s11.667 4.667 11.667 11.667v35c0 7-4.667 11.667-11.667 11.667z"></path>
<path fill="#91908d" d="M46.667 151.667h-35c-7 0-11.667-4.667-11.667-11.667s4.667-11.667 11.667-11.667h35c7 0 11.667 4.667 11.667 11.667s-4.667 11.667-11.667 11.667z"></path>
<path fill="#91908d" d="M268.333 151.667h-35c-7 0-11.667-4.667-11.667-11.667s4.667-11.667 11.667-11.667h35c7 0 11.667 4.667 11.667 11.667s-4.667 11.667-11.667 11.667z"></path>
<path fill="#91908d" d="M220.5 105c-3.5 0-8.167-2.333-10.5-5.833-3.5-5.833-1.167-12.833 4.667-16.333l30.333-17.5c5.833-3.5 12.833-1.167 16.333 4.667s1.167 12.833-4.667 16.333l-30.333 17.5c-1.167 1.167-3.5 1.167-5.833 1.167z"></path>
<path fill="#91908d" d="M29.167 215.833c-3.5 0-8.167-2.333-10.5-5.833-3.5-5.833-1.167-12.833 4.667-16.333l30.333-17.5c5.833-3.5 12.833-1.167 16.333 4.667s1.167 12.833-4.667 16.333l-30.333 17.5c-2.333 1.167-4.667 1.167-5.833 1.167z"></path>
<path fill="#91908d" d="M186.667 71.167c-2.333 0-3.5 0-5.833-1.167-5.833-3.5-7-10.5-4.667-16.333l17.5-30.333c3.5-5.833 10.5-7 16.333-4.667 5.833 3.5 7 10.5 4.667 16.333l-17.5 30.333c-2.333 3.5-7 5.833-10.5 5.833z"></path>
<path fill="#91908d" d="M75.833 262.5c-2.333 0-3.5 0-5.833-1.167-5.833-3.5-7-10.5-4.667-16.333l17.5-30.333c3.5-4.667 10.5-7 16.333-3.5s7 10.5 4.667 16.333l-17.5 29.167c-2.333 3.5-7 5.833-10.5 5.833z"></path>
<path fill="#91908d" d="M59.5 105c-2.333 0-4.667 0-5.833-1.167l-30.333-17.5c-5.833-3.5-8.167-10.5-4.667-16.333s10.5-7 16.333-4.667l30.333 17.5c5.833 3.5 7 10.5 3.5 16.333-1.167 3.5-5.833 5.833-9.333 5.833z"></path>
<path fill="#91908d" d="M250.833 215.833c-2.333 0-3.5 0-5.833-1.167l-30.333-17.5c-5.833-3.5-7-10.5-4.667-16.333 3.5-5.833 10.5-7 16.333-4.667l30.333 17.5c5.833 3.5 7 10.5 4.667 16.333-2.333 3.5-5.833 5.833-10.5 5.833z"></path>
<path fill="#91908d" d="M93.333 71.167c-3.5 0-8.167-2.333-10.5-5.833l-17.5-30.333c-2.333-5.833-1.167-12.833 4.667-16.333s12.833-1.167 16.333 4.667l17.5 30.333c2.333 5.833 1.167 12.833-4.667 15.167-2.333 1.167-3.5 2.333-5.833 2.333z"></path>
<path fill="#91908d" d="M204.167 262.5c-3.5 0-8.167-2.333-10.5-5.833l-17.5-30.333c-3.5-5.833-1.167-12.833 4.667-16.333s12.833-1.167 16.333 4.667l17.5 30.333c3.5 5.833 1.167 12.833-4.667 16.333-2.333 1.167-3.5 1.167-5.833 1.167z"></path>
</svg>
