<!-- Generated by IcoMoon.io -->
<svg version="1.1" xmlns="http://www.w3.org/2000/svg" width="280" height="280" viewBox="0 0 280 280">
<title>mi-mail-open</title>
<path fill="#91908d" d="M268.333 280h-256.667c-7 0-11.667-4.667-11.667-11.667v-163.333c0-7 4.667-11.667 11.667-11.667h256.667c7 0 11.667 4.667 11.667 11.667v163.333c0 7-4.667 11.667-11.667 11.667zM23.333 256.667h233.333v-140h-233.333v140z"></path>
<path fill="#91908d" d="M140 198.333c-3.5 0-8.167-2.333-9.333-5.833-3.5-5.833-2.333-12.833 3.5-16.333l128.333-81.667c5.833-3.5 12.833-2.333 16.333 3.5s2.333 12.833-3.5 16.333l-128.333 81.667c-2.333 1.167-4.667 2.333-7 2.333z"></path>
<path fill="#91908d" d="M140 198.333c-2.333 0-4.667-1.167-5.833-2.333l-128.333-81.667c-5.833-3.5-7-10.5-3.5-15.167 3.5-5.833 10.5-7 15.167-3.5l128.333 81.667c5.833 3.5 7 10.5 3.5 16.333-1.167 2.333-5.833 4.667-9.333 4.667z"></path>
<path fill="#91908d" d="M11.667 116.667c-3.5 0-7-1.167-9.333-4.667-3.5-5.833-2.333-12.833 2.333-16.333l128.333-93.333c4.667-3.5 12.833-2.333 16.333 2.333s2.333 12.833-2.333 16.333l-128.333 93.333c-2.333 1.167-4.667 2.333-7 2.333z"></path>
<path fill="#91908d" d="M268.333 116.667c-2.333 0-4.667-1.167-7-2.333l-128.333-93.333c-4.667-3.5-5.833-11.667-2.333-16.333s10.5-5.833 16.333-2.333l128.333 93.333c4.667 3.5 5.833 11.667 2.333 16.333-2.333 3.5-5.833 4.667-9.333 4.667z"></path>
</svg>
