<!-- Generated by IcoMoon.io -->
<svg version="1.1" xmlns="http://www.w3.org/2000/svg" width="280" height="280" viewBox="0 0 280 280">
<title>mi-menu-circle</title>
<path fill="#91908d" d="M140 280c-77 0-140-63-140-140s63-140 140-140 140 63 140 140-63 140-140 140zM140 23.333c-64.167 0-116.667 52.5-116.667 116.667s52.5 116.667 116.667 116.667 116.667-52.5 116.667-116.667-52.5-116.667-116.667-116.667z"></path>
<path fill="#91908d" d="M186.667 105h-93.333c-7 0-11.667-4.667-11.667-11.667s4.667-11.667 11.667-11.667h93.333c7 0 11.667 4.667 11.667 11.667s-4.667 11.667-11.667 11.667z"></path>
<path fill="#91908d" d="M186.667 151.667h-93.333c-7 0-11.667-4.667-11.667-11.667s4.667-11.667 11.667-11.667h93.333c7 0 11.667 4.667 11.667 11.667s-4.667 11.667-11.667 11.667z"></path>
<path fill="#91908d" d="M186.667 198.333h-93.333c-7 0-11.667-4.667-11.667-11.667s4.667-11.667 11.667-11.667h93.333c7 0 11.667 4.667 11.667 11.667s-4.667 11.667-11.667 11.667z"></path>
</svg>
