<!-- Generated by IcoMoon.io -->
<svg version="1.1" xmlns="http://www.w3.org/2000/svg" width="280" height="280" viewBox="0 0 280 280">
<title>mi-network</title>
<path fill="#91908d" d="M35 280c-19.833 0-35-15.167-35-35s15.167-35 35-35 35 15.167 35 35-15.167 35-35 35zM35 233.333c-7 0-11.667 4.667-11.667 11.667s4.667 11.667 11.667 11.667 11.667-4.667 11.667-11.667-4.667-11.667-11.667-11.667z"></path>
<path fill="#91908d" d="M245 280c-19.833 0-35-15.167-35-35s15.167-35 35-35 35 15.167 35 35-15.167 35-35 35zM245 233.333c-7 0-11.667 4.667-11.667 11.667s4.667 11.667 11.667 11.667 11.667-4.667 11.667-11.667-4.667-11.667-11.667-11.667z"></path>
<path fill="#91908d" d="M140 280c-19.833 0-35-15.167-35-35s15.167-35 35-35 35 15.167 35 35-15.167 35-35 35zM140 233.333c-7 0-11.667 4.667-11.667 11.667s4.667 11.667 11.667 11.667 11.667-4.667 11.667-11.667-4.667-11.667-11.667-11.667z"></path>
<path fill="#91908d" d="M140 70c-19.833 0-35-15.167-35-35s15.167-35 35-35 35 15.167 35 35-15.167 35-35 35zM140 23.333c-7 0-11.667 4.667-11.667 11.667s4.667 11.667 11.667 11.667 11.667-4.667 11.667-11.667-4.667-11.667-11.667-11.667z"></path>
<path fill="#91908d" d="M245 233.333c-7 0-11.667-4.667-11.667-11.667v-58.333c0-7-4.667-11.667-11.667-11.667h-163.333c-7 0-11.667 4.667-11.667 11.667v58.333c0 7-4.667 11.667-11.667 11.667s-11.667-4.667-11.667-11.667v-58.333c0-19.833 15.167-35 35-35h163.333c19.833 0 35 15.167 35 35v58.333c0 7-4.667 11.667-11.667 11.667z"></path>
<path fill="#91908d" d="M140 233.333c-7 0-11.667-4.667-11.667-11.667v-81.667c0-7 4.667-11.667 11.667-11.667s11.667 4.667 11.667 11.667v81.667c0 7-4.667 11.667-11.667 11.667z"></path>
<path fill="#91908d" d="M140 151.667c-7 0-11.667-4.667-11.667-11.667v-81.667c0-7 4.667-11.667 11.667-11.667s11.667 4.667 11.667 11.667v81.667c0 7-4.667 11.667-11.667 11.667z"></path>
</svg>
