<!-- Generated by IcoMoon.io -->
<svg version="1.1" xmlns="http://www.w3.org/2000/svg" width="280" height="280" viewBox="0 0 280 280">
<title>mi-new-file</title>
<path fill="#91908d" d="M233.333 93.333h-70c-7 0-11.667-4.667-11.667-11.667v-70h23.333v58.333h58.333v23.333z"></path>
<path fill="#91908d" d="M233.333 280h-186.667c-7 0-11.667-4.667-11.667-11.667v-256.667c0-7 4.667-11.667 11.667-11.667h116.667c3.5 0 5.833 1.167 8.167 3.5l70 70c2.333 2.333 3.5 4.667 3.5 8.167v186.667c0 7-4.667 11.667-11.667 11.667zM58.333 256.667h163.333v-170.333l-63-63h-100.333v233.333z"></path>
</svg>
