<!-- Generated by IcoMoon.io -->
<svg version="1.1" xmlns="http://www.w3.org/2000/svg" width="280" height="280" viewBox="0 0 280 280">
<title>mi-pin-point</title>
<path fill="#91908d" d="M186.667 198.333c-3.5 0-5.833-1.167-8.167-3.5l-93.333-93.333c-2.333-2.333-3.5-7-3.5-10.5 1.167-3.5 3.5-7 7-8.167l79.333-33.833 32.667-44.333c2.333-2.333 4.667-4.667 8.167-4.667s7 1.167 9.333 3.5l58.333 58.333c2.333 2.333 3.5 5.833 3.5 9.333s-2.333 7-4.667 8.167l-44.333 32.667-33.833 79.333c-1.167 3.5-4.667 5.833-8.167 7-1.167 0-1.167 0-2.333 0zM114.333 96.833l68.833 68.833 28-65.333c1.167-2.333 2.333-3.5 3.5-4.667l36.167-26.833-39.667-39.667-26.833 36.167c-1.167 1.167-2.333 3.5-4.667 3.5l-65.333 28z"></path>
<path fill="#91908d" d="M11.667 280c-3.5 0-5.833-1.167-8.167-3.5-4.667-4.667-4.667-10.5-1.167-15.167l112-144.667c3.5-4.667 11.667-5.833 16.333-2.333s5.833 11.667 2.333 16.333l-57.167 73.5 73.5-57.167c4.667-3.5 12.833-3.5 16.333 2.333 3.5 4.667 3.5 12.833-2.333 16.333l-144.667 112c-2.333 1.167-4.667 2.333-7 2.333z"></path>
</svg>
