<!-- Generated by IcoMoon.io -->
<svg version="1.1" xmlns="http://www.w3.org/2000/svg" width="280" height="280" viewBox="0 0 280 280">
<title>mi-padding</title>
<path fill="#91908d" d="M186.667 70h-93.333c-7 0-11.667-4.667-11.667-11.667s4.667-11.667 11.667-11.667h93.333c7 0 11.667 4.667 11.667 11.667s-4.667 11.667-11.667 11.667z"></path>
<path fill="#91908d" d="M186.667 233.333h-93.333c-7 0-11.667-4.667-11.667-11.667s4.667-11.667 11.667-11.667h93.333c7 0 11.667 4.667 11.667 11.667s-4.667 11.667-11.667 11.667z"></path>
<path fill="#91908d" d="M221.667 198.333c-7 0-11.667-4.667-11.667-11.667v-93.333c0-7 4.667-11.667 11.667-11.667s11.667 4.667 11.667 11.667v93.333c0 7-4.667 11.667-11.667 11.667z"></path>
<path fill="#91908d" d="M58.333 198.333c-7 0-11.667-4.667-11.667-11.667v-93.333c0-7 4.667-11.667 11.667-11.667s11.667 4.667 11.667 11.667v93.333c0 7-4.667 11.667-11.667 11.667z"></path>
<path fill="#91908d" d="M268.333 280h-256.667c-7 0-11.667-4.667-11.667-11.667v-256.667c0-7 4.667-11.667 11.667-11.667h256.667c7 0 11.667 4.667 11.667 11.667v256.667c0 7-4.667 11.667-11.667 11.667zM23.333 256.667h233.333v-233.333h-233.333v233.333z"></path>
</svg>
