<!-- Generated by IcoMoon.io -->
<svg version="1.1" xmlns="http://www.w3.org/2000/svg" width="280" height="280" viewBox="0 0 280 280">
<title>mi-smile</title>
<path fill="#91908d" d="M140 280c-77 0-140-63-140-140s63-140 140-140 140 63 140 140-63 140-140 140zM140 23.333c-64.167 0-116.667 52.5-116.667 116.667s52.5 116.667 116.667 116.667 116.667-52.5 116.667-116.667-52.5-116.667-116.667-116.667z"></path>
<path fill="#91908d" d="M81.667 151.667c-19.833 0-35-15.167-35-35s15.167-35 35-35 35 15.167 35 35-15.167 35-35 35zM81.667 105c-7 0-11.667 4.667-11.667 11.667s4.667 11.667 11.667 11.667 11.667-4.667 11.667-11.667-4.667-11.667-11.667-11.667z"></path>
<path fill="#91908d" d="M198.333 151.667c-19.833 0-35-15.167-35-35s15.167-35 35-35 35 15.167 35 35-15.167 35-35 35zM198.333 105c-7 0-11.667 4.667-11.667 11.667s4.667 11.667 11.667 11.667 11.667-4.667 11.667-11.667-4.667-11.667-11.667-11.667z"></path>
<path fill="#91908d" d="M140 233.333c-28 0-54.833-12.833-72.333-33.833-3.5-4.667-3.5-12.833 1.167-16.333s12.833-3.5 16.333 1.167c14 16.333 33.833 25.667 54.833 25.667s40.833-9.333 53.667-25.667c3.5-4.667 11.667-5.833 16.333-1.167 4.667 3.5 5.833 11.667 1.167 16.333-16.333 21-43.167 33.833-71.167 33.833z"></path>
</svg>
