<!-- Generated by IcoMoon.io -->
<svg version="1.1" xmlns="http://www.w3.org/2000/svg" width="280" height="280" viewBox="0 0 280 280">
<title>mi-sign</title>
<path fill="#91908d" d="M221.667 140h-210c-4.667 0-8.167-2.333-10.5-5.833s-2.333-8.167 0-11.667l31.5-52.5-31.5-52.5c-1.167-3.5-1.167-8.167 0-11.667 2.333-3.5 5.833-5.833 10.5-5.833h210c3.5 0 7 1.167 9.333 4.667l46.667 58.333c3.5 4.667 3.5 10.5 0 14l-46.667 58.333c-2.333 3.5-5.833 4.667-9.333 4.667zM32.667 116.667h184.333l37.333-46.667-37.333-46.667h-184.333l24.5 40.833c2.333 3.5 2.333 8.167 0 11.667l-24.5 40.833z"></path>
<path fill="#91908d" d="M151.667 280h-35c-7 0-11.667-4.667-11.667-11.667v-140c0-7 4.667-11.667 11.667-11.667h35c7 0 11.667 4.667 11.667 11.667v140c0 7-4.667 11.667-11.667 11.667zM128.333 256.667h11.667v-116.667h-11.667v116.667z"></path>
</svg>
