<!-- Generated by IcoMoon.io -->
<svg version="1.1" xmlns="http://www.w3.org/2000/svg" width="280" height="280" viewBox="0 0 280 280">
<title>mi-tag</title>
<path fill="#91908d" d="M233.333 268.333h-93.333c-3.5 0-5.833-1.167-8.167-3.5l-128.333-128.333c-4.667-4.667-4.667-11.667 0-16.333l93.333-93.333c4.667-4.667 11.667-4.667 16.333 0l128.333 128.333c2.333 2.333 3.5 4.667 3.5 8.167v93.333c0 7-4.667 11.667-11.667 11.667zM144.667 245h77v-77l-116.667-116.667-77 77 116.667 116.667z"></path>
<path fill="#91908d" d="M227.5 245c-28 0-49-25.667-50.167-26.833-3.5-4.667-3.5-12.833 2.333-16.333 4.667-3.5 12.833-3.5 16.333 2.333 4.667 5.833 19.833 19.833 33.833 18.667 12.833-1.167 22.167-16.333 29.167-28 2.333-5.833 9.333-8.167 15.167-4.667 5.833 2.333 8.167 9.333 4.667 15.167-12.833 24.5-28 38.5-46.667 40.833-2.333-2.333-3.5-1.167-4.667-1.167z"></path>
<path fill="#91908d" d="M70 140c-3.5 0-5.833-1.167-8.167-3.5-4.667-4.667-4.667-11.667 0-16.333l35-35c4.667-4.667 11.667-4.667 16.333 0s4.667 11.667 0 16.333l-35 35c-2.333 2.333-4.667 3.5-8.167 3.5z"></path>
<path fill="#91908d" d="M175 175c-3.5 0-5.833-1.167-8.167-3.5l-70-70c-4.667-4.667-4.667-11.667 0-16.333s11.667-4.667 16.333 0l70 70c4.667 4.667 4.667 11.667 0 16.333-2.333 2.333-4.667 3.5-8.167 3.5z"></path>
<path fill="#91908d" d="M140 210c-3.5 0-5.833-1.167-8.167-3.5-4.667-4.667-4.667-11.667 0-16.333l35-35c4.667-4.667 11.667-4.667 16.333 0s4.667 11.667 0 16.333l-35 35c-2.333 2.333-4.667 3.5-8.167 3.5z"></path>
<path fill="#91908d" d="M140 210c-3.5 0-5.833-1.167-8.167-3.5l-70-70c-4.667-4.667-4.667-11.667 0-16.333s11.667-4.667 16.333 0l70 70c4.667 4.667 4.667 11.667 0 16.333-2.333 2.333-4.667 3.5-8.167 3.5z"></path>
</svg>
