<!-- Generated by IcoMoon.io -->
<svg version="1.1" xmlns="http://www.w3.org/2000/svg" width="280" height="280" viewBox="0 0 280 280">
<title>mi-tv</title>
<path fill="#91908d" d="M245 210h-210c-7 0-11.667-4.667-11.667-11.667v-140c0-7 4.667-11.667 11.667-11.667h210c7 0 11.667 4.667 11.667 11.667v140c0 7-4.667 11.667-11.667 11.667zM46.667 186.667h186.667v-116.667h-186.667v116.667z"></path>
<path fill="#91908d" d="M245 256.667h-210c-7 0-11.667-4.667-11.667-11.667v-46.667c0-7 4.667-11.667 11.667-11.667h210c7 0 11.667 4.667 11.667 11.667v46.667c0 7-4.667 11.667-11.667 11.667zM46.667 233.333h186.667v-23.333h-186.667v23.333z"></path>
<path fill="#91908d" d="M140 70c-3.5 0-5.833-1.167-8.167-3.5-4.667-4.667-4.667-11.667 0-16.333l46.667-46.667c4.667-4.667 11.667-4.667 16.333 0s4.667 11.667 0 16.333l-46.667 46.667c-2.333 2.333-4.667 3.5-8.167 3.5z"></path>
<path fill="#91908d" d="M140 70c-3.5 0-5.833-1.167-8.167-3.5l-35-35c-4.667-4.667-4.667-11.667 0-16.333s11.667-4.667 16.333 0l35 35c4.667 4.667 4.667 11.667 0 16.333-2.333 2.333-4.667 3.5-8.167 3.5z"></path>
<path fill="#91908d" d="M70 280c-7 0-11.667-4.667-11.667-11.667v-23.333c0-7 4.667-11.667 11.667-11.667s11.667 4.667 11.667 11.667v23.333c0 7-4.667 11.667-11.667 11.667z"></path>
<path fill="#91908d" d="M210 280c-7 0-11.667-4.667-11.667-11.667v-23.333c0-7 4.667-11.667 11.667-11.667s11.667 4.667 11.667 11.667v23.333c0 7-4.667 11.667-11.667 11.667z"></path>
</svg>
