<!-- Generated by IcoMoon.io -->
<svg version="1.1" xmlns="http://www.w3.org/2000/svg" width="280" height="280" viewBox="0 0 280 280">
<title>mi-update</title>
<path fill="#91908d" d="M140 256.667c-64.167 0-116.667-52.5-116.667-116.667 0-7 4.667-11.667 11.667-11.667s11.667 4.667 11.667 11.667c0 51.333 42 93.333 93.333 93.333s93.333-42 93.333-93.333-42-93.333-93.333-93.333c-31.5 0-60.667 15.167-77 42-4.667 4.667-11.667 5.833-16.333 2.333-5.833-3.5-7-10.5-3.5-16.333 21-31.5 58.333-51.333 96.833-51.333 64.167 0 116.667 52.5 116.667 116.667s-52.5 116.667-116.667 116.667z"></path>
<path fill="#91908d" d="M140 151.667c-7 0-11.667-4.667-11.667-11.667v-58.333c0-7 4.667-11.667 11.667-11.667s11.667 4.667 11.667 11.667v58.333c0 7-4.667 11.667-11.667 11.667z"></path>
<path fill="#91908d" d="M175 186.667c-3.5 0-5.833-1.167-8.167-3.5l-35-35c-4.667-4.667-4.667-11.667 0-16.333s11.667-4.667 16.333 0l35 35c4.667 4.667 4.667 11.667 0 16.333-2.333 2.333-4.667 3.5-8.167 3.5z"></path>
<path fill="#91908d" d="M93.333 93.333h-46.667c-7 0-11.667-4.667-11.667-11.667v-46.667c0-7 4.667-11.667 11.667-11.667s11.667 4.667 11.667 11.667v35h35c7 0 11.667 4.667 11.667 11.667s-4.667 11.667-11.667 11.667z"></path>
</svg>
