<!-- Generated by IcoMoon.io -->
<svg version="1.1" xmlns="http://www.w3.org/2000/svg" width="280" height="280" viewBox="0 0 280 280">
<title>mt-airline_seat_flat_angled</title>
<path fill="#91908d" d="M259.583 166.717l-8.050 22.050-144.2-52.15 24.267-66.034 99.867 36.050c24.5 8.867 37.1 35.7 28.117 60.084v0zM17.5 141.633l75.833 27.3v52.733h93.333v-19.017l52.733 19.017 8.050-22.050-221.9-80.033-8.050 22.050zM85.167 119c17.383-8.4 24.733-29.284 16.45-46.667-8.4-17.383-29.283-24.733-46.783-16.333-17.383 8.283-24.733 29.167-16.333 46.667 8.283 17.384 29.167 24.734 46.667 16.334v0z"></path>
</svg>
