<!-- Generated by IcoMoon.io -->
<svg version="1.1" xmlns="http://www.w3.org/2000/svg" width="280" height="280" viewBox="0 0 280 280">
<title>mt-all_inclusive</title>
<path fill="#91908d" d="M217 77.235c-16.8 0-32.667 6.533-43.983 17.85l-33.017 29.283-17.733 15.633h0.117l-31.383 27.883c-7.467 7.467-17.383 11.55-28 11.55-21.817 0-39.55-17.617-39.55-39.433s17.733-39.433 39.55-39.433c10.617 0 20.533 4.083 28.467 12.017l13.183 11.666 17.617-15.633-14.7-12.95c-11.9-11.9-27.767-18.433-44.567-18.433-34.767 0-63 28.233-63 62.766s28.233 62.767 63 62.767c16.8 0 32.667-6.533 43.983-17.85l33.017-29.167 0.117 0.117 17.617-15.867h-0.117l31.383-27.883c7.467-7.467 17.383-11.55 28-11.55 21.817 0 39.55 17.616 39.55 39.433s-17.733 39.433-39.55 39.433c-10.5 0-20.533-4.083-28.467-12.017l-13.3-11.783-17.617 15.633 14.817 13.067c11.9 11.783 27.65 18.317 44.567 18.317 34.767 0 63-28.117 63-62.767s-28.233-62.65-63-62.65v0z"></path>
</svg>
