<!-- Generated by IcoMoon.io -->
<svg version="1.1" xmlns="http://www.w3.org/2000/svg" width="280" height="280" viewBox="0 0 280 280">
<title>mt-all_out</title>
<path fill="#91908d" d="M189.117 48.533l46.667 46.667v-46.667h-46.667zM235.783 188.533l-46.667 46.667h46.667v-46.667zM95.783 235.2l-46.667-46.667v46.667h46.667zM49.116 95.2l46.667-46.667h-46.667v46.667zM200.2 84.117c-31.85-31.85-83.651-31.85-115.501 0s-31.85 83.65 0 115.5c31.85 31.85 83.651 31.85 115.501 0s31.85-83.533 0-115.5v0zM187.367 186.783c-24.85 24.85-64.983 24.85-89.834 0s-24.85-64.983 0-89.833c24.851-24.85 64.984-24.85 89.834 0s24.85 64.983 0 89.833v0z"></path>
</svg>
