<!-- Generated by IcoMoon.io -->
<svg version="1.1" xmlns="http://www.w3.org/2000/svg" width="280" height="280" viewBox="0 0 280 280">
<title>mt-archive</title>
<path fill="#91908d" d="M239.633 61.017l-16.217-19.6c-3.15-3.967-7.933-6.417-13.417-6.417h-140c-5.483 0-10.267 2.45-13.533 6.417l-16.1 19.6c-3.383 3.967-5.367 9.217-5.367 14.817v145.833c0 12.833 10.5 23.333 23.333 23.333h163.333c12.833 0 23.333-10.5 23.333-23.333v-145.833c0-5.6-1.983-10.85-5.367-14.817v0zM140 204.167l-64.167-64.167h40.833v-23.333h46.667v23.333h40.833l-64.167 64.167zM59.733 58.333l9.45-11.667h140l10.967 11.667h-160.417z"></path>
</svg>
