<!-- Generated by IcoMoon.io -->
<svg version="1.1" xmlns="http://www.w3.org/2000/svg" width="280" height="280" viewBox="0 0 280 280">
<title>mt-airline_seat_legroom_extra</title>
<path fill="#91908d" d="M46.667 140v-105h-23.333v105c0 32.2 26.133 58.333 58.333 58.333h70v-23.333h-70c-19.367 0-35-15.633-35-35v0zM266.35 201.133c-4.433-8.4-15.050-11.317-23.683-7.35l-12.717 5.833-39.783-81.433c-3.967-7.933-12.017-13.067-20.883-13.067l-40.95-0.117v-70h-70v93.333c0 19.367 15.633 35 35 35h81.667l39.783 81.667 43.4-19.833c8.983-4.2 12.833-15.167 8.167-24.033v0z"></path>
</svg>
