<!-- Generated by IcoMoon.io -->
<svg version="1.1" xmlns="http://www.w3.org/2000/svg" width="280" height="280" viewBox="0 0 280 280">
<title>mt-airline_seat_recline_extra</title>
<path fill="#91908d" d="M62.417 65.798c-10.5-7.467-13.067-21.933-5.717-32.55 7.35-10.5 21.933-13.067 32.55-5.717 10.5 7.467 13.067 21.933 5.717 32.55-7.467 10.5-21.933 13.067-32.55 5.717v0zM186.667 221.665h-82.483c-17.267 0-31.967-12.6-34.533-29.633l-22.983-110.367h-23.333l23.217 113.867c4.433 28.467 28.933 49.467 57.75 49.467h82.367v-23.333zM189.35 174.999h-56.933l-12.017-47.833c18.433 10.383 38.267 17.967 60.083 14.233v-24.85c-19.017 3.617-40.133-3.15-54.717-14.583l-19.133-14.817c-2.683-2.1-5.717-3.5-8.867-4.433-3.733-1.050-7.7-1.4-11.55-0.7h-0.233c-14.35 2.567-23.917 16.217-21.467 30.45l15.75 69.067c3.267 16.567 17.617 28.467 34.417 28.467h79.917l44.567 35 17.5-17.5-67.317-52.5z"></path>
</svg>
