<!-- Generated by IcoMoon.io -->
<svg version="1.1" xmlns="http://www.w3.org/2000/svg" width="280" height="280" viewBox="0 0 280 280">
<title>mt-account_circle</title>
<path fill="#91908d" d="M140 23.333c-64.4 0-116.667 52.267-116.667 116.667s52.267 116.667 116.667 116.667c64.4 0 116.667-52.267 116.667-116.667s-52.267-116.667-116.667-116.667v0zM140 58.333c19.367 0 35 15.633 35 35s-15.633 35-35 35c-19.367 0-35-15.633-35-35s15.633-35 35-35v0zM140 224c-29.167 0-54.95-14.933-70-37.567 0.35-23.217 46.667-35.933 70-35.933 23.217 0 69.65 12.717 70 35.933-15.050 22.633-40.833 37.567-70 37.567v0z"></path>
</svg>
