<!-- Generated by IcoMoon.io -->
<svg version="1.1" xmlns="http://www.w3.org/2000/svg" width="280" height="280" viewBox="0 0 280 280">
<title>mt-content_paste</title>
<path fill="#91908d" d="M221.667 23.333h-48.767c-4.9-13.533-17.733-23.333-32.9-23.333s-28 9.8-32.9 23.333h-48.767c-12.833 0-23.333 10.5-23.333 23.333v186.667c0 12.833 10.5 23.333 23.333 23.333h163.333c12.833 0 23.333-10.5 23.333-23.333v-186.667c0-12.833-10.5-23.333-23.333-23.333v0zM140 23.333c6.417 0 11.667 5.25 11.667 11.667s-5.25 11.667-11.667 11.667c-6.417 0-11.667-5.25-11.667-11.667s5.25-11.667 11.667-11.667v0zM221.667 233.333h-163.333v-186.667h23.333v35h116.667v-35h23.333v186.667z"></path>
</svg>
