<!-- Generated by IcoMoon.io -->
<svg version="1.1" xmlns="http://www.w3.org/2000/svg" width="280" height="280" viewBox="0 0 280 280">
<title>mt-content_cut</title>
<path fill="#91908d" d="M112.467 89.133c2.683-5.833 4.2-12.25 4.2-19.133 0-25.783-20.883-46.667-46.667-46.667s-46.667 20.883-46.667 46.667c0 25.783 20.883 46.667 46.667 46.667 6.883 0 13.3-1.517 19.133-4.2l27.533 27.533-27.533 27.533c-5.833-2.683-12.25-4.2-19.133-4.2-25.783 0-46.667 20.883-46.667 46.667s20.883 46.667 46.667 46.667c25.783 0 46.667-20.883 46.667-46.667 0-6.883-1.517-13.3-4.2-19.133l27.533-27.533 81.667 81.667h35v-11.667l-144.2-144.2zM70 93.333c-12.833 0-23.333-10.383-23.333-23.333s10.5-23.333 23.333-23.333c12.833 0 23.333 10.383 23.333 23.333s-10.5 23.333-23.333 23.333v0zM70 233.333c-12.833 0-23.333-10.383-23.333-23.333s10.5-23.333 23.333-23.333c12.833 0 23.333 10.383 23.333 23.333s-10.5 23.333-23.333 23.333v0zM140 145.833c-3.267 0-5.833-2.567-5.833-5.833s2.567-5.833 5.833-5.833c3.267 0 5.833 2.567 5.833 5.833s-2.567 5.833-5.833 5.833v0zM221.667 35l-70 70 23.333 23.333 81.667-81.667v-11.667h-35z"></path>
</svg>
