<!-- Generated by IcoMoon.io -->
<svg version="1.1" xmlns="http://www.w3.org/2000/svg" width="280" height="280" viewBox="0 0 280 280">
<title>mt-control_point</title>
<path fill="#91908d" d="M151.667 81.667h-23.333v46.667h-46.667v23.333h46.667v46.667h23.333v-46.667h46.667v-23.333h-46.667v-46.667zM140 23.333c-64.283 0-116.667 52.383-116.667 116.667s52.383 116.667 116.667 116.667c64.283 0 116.667-52.383 116.667-116.667s-52.383-116.667-116.667-116.667v0zM140 233.333c-51.45 0-93.333-41.883-93.333-93.333s41.883-93.333 93.333-93.333c51.45 0 93.333 41.883 93.333 93.333s-41.883 93.333-93.333 93.333v0z"></path>
</svg>
