<!-- Generated by IcoMoon.io -->
<svg version="1.1" xmlns="http://www.w3.org/2000/svg" width="280" height="280" viewBox="0 0 280 280">
<title>mt-dns</title>
<path fill="#91908d" d="M233.333 151.667h-186.667c-6.417 0-11.667 5.25-11.667 11.667v70c0 6.417 5.25 11.667 11.667 11.667h186.667c6.417 0 11.667-5.25 11.667-11.667v-70c0-6.417-5.25-11.667-11.667-11.667v0zM81.667 221.667c-12.833 0-23.333-10.5-23.333-23.333s10.5-23.333 23.333-23.333c12.833 0 23.333 10.5 23.333 23.333s-10.5 23.333-23.333 23.333v0zM233.333 35h-186.667c-6.417 0-11.667 5.25-11.667 11.667v70c0 6.417 5.25 11.667 11.667 11.667h186.667c6.417 0 11.667-5.25 11.667-11.667v-70c0-6.417-5.25-11.667-11.667-11.667v0zM81.667 105c-12.833 0-23.333-10.5-23.333-23.333s10.5-23.333 23.333-23.333c12.833 0 23.333 10.5 23.333 23.333s-10.5 23.333-23.333 23.333v0z"></path>
</svg>
