<!-- Generated by IcoMoon.io -->
<svg version="1.1" xmlns="http://www.w3.org/2000/svg" width="280" height="280" viewBox="0 0 280 280">
<title>mt-donut_small</title>
<path fill="#91908d" d="M128.333 106.867v-83.533c-58.333 5.833-105 55.883-105 116.667s46.667 110.833 105 116.667v-83.533c-11.667-4.783-23.333-17.733-23.333-33.133s11.667-28.35 23.333-33.133v0zM173.367 128.333h83.3c-5.6-55.417-46.667-99.517-105-105v83.533c11.667 3.5 17.733 11.433 21.7 21.467v0zM151.667 173.133v83.533c58.333-5.483 99.4-49.583 105-105h-83.3c-3.967 10.033-10.033 17.967-21.7 21.467v0z"></path>
</svg>
