<!-- Generated by IcoMoon.io -->
<svg version="1.1" xmlns="http://www.w3.org/2000/svg" width="280" height="280" viewBox="0 0 280 280">
<title>mt-donut_large</title>
<path fill="#91908d" d="M128.333 59.267v-35.933c-58.333 5.833-105 56.117-105 116.667s46.667 110.833 105 116.667v-35.933c-35-5.6-70-39.667-70-80.733s35-75.133 70-80.733v0zM221.317 128.333h35.35c-5.483-58.333-46.667-99.517-105-105v35.933c35 5.017 64.633 34.067 69.65 69.067v0zM151.667 220.733v35.933c58.333-5.483 99.517-46.667 105-105h-35.35c-5.017 35-34.65 64.050-69.65 69.067v0z"></path>
</svg>
