<!-- Generated by IcoMoon.io -->
<svg version="1.1" xmlns="http://www.w3.org/2000/svg" width="280" height="280" viewBox="0 0 280 280">
<title>mt-error_outline</title>
<path fill="#91908d" d="M128.333 175h23.333v23.333h-23.333v-23.333zM128.333 81.667h23.333v70h-23.333v-70zM139.883 23.333c-64.4 0-116.55 52.267-116.55 116.667s52.15 116.667 116.55 116.667c64.517 0 116.783-52.267 116.783-116.667s-52.267-116.667-116.783-116.667v0zM140 233.333c-51.567 0-93.333-41.767-93.333-93.333s41.767-93.333 93.333-93.333c51.567 0 93.333 41.767 93.333 93.333s-41.767 93.333-93.333 93.333v0z"></path>
</svg>
