<!-- Generated by IcoMoon.io -->
<svg version="1.1" xmlns="http://www.w3.org/2000/svg" width="280" height="280" viewBox="0 0 280 280">
<title>mt-face</title>
<path fill="#91908d" d="M105 137.083c-8.050 0-14.583 6.533-14.583 14.583s6.533 14.583 14.583 14.583c8.050 0 14.583-6.533 14.583-14.583s-6.533-14.583-14.583-14.583v0zM175 137.083c-8.050 0-14.583 6.533-14.583 14.583s6.533 14.583 14.583 14.583c8.050 0 14.583-6.533 14.583-14.583s-6.533-14.583-14.583-14.583v0zM140 23.333c-64.4 0-116.667 52.267-116.667 116.667s52.267 116.667 116.667 116.667c64.4 0 116.667-52.267 116.667-116.667s-52.267-116.667-116.667-116.667v0zM140 233.333c-51.45 0-93.333-41.883-93.333-93.333 0-3.383 0.233-6.767 0.583-10.033 27.533-12.25 49.35-34.767 60.783-62.65 21.117 29.867 55.883 49.35 95.2 49.35 9.1 0 17.85-1.050 26.25-3.033 2.45 8.283 3.85 17.15 3.85 26.367 0 51.45-41.883 93.333-93.333 93.333v0z"></path>
</svg>
