<!-- Generated by IcoMoon.io -->
<svg version="1.1" xmlns="http://www.w3.org/2000/svg" width="280" height="280" viewBox="0 0 280 280">
<title>mt-filter_8</title>
<path fill="#91908d" d="M35 58.333h-23.333v186.667c0 12.833 10.5 23.333 23.333 23.333h186.667v-23.333h-186.667v-186.667zM245 11.667h-163.333c-12.833 0-23.333 10.5-23.333 23.333v163.333c0 12.833 10.5 23.333 23.333 23.333h163.333c12.833 0 23.333-10.5 23.333-23.333v-163.333c0-12.833-10.5-23.333-23.333-23.333v0zM245 198.333h-163.333v-163.333h163.333v163.333zM151.667 175h23.333c12.833 0 23.333-10.383 23.333-23.333v-17.5c0-9.683-7.817-17.5-17.5-17.5 9.683 0 17.5-7.817 17.5-17.5v-17.5c0-12.95-10.5-23.333-23.333-23.333h-23.333c-12.833 0-23.333 10.383-23.333 23.333v17.5c0 9.683 7.817 17.5 17.5 17.5-9.683 0-17.5 7.817-17.5 17.5v17.5c0 12.95 10.5 23.333 23.333 23.333v0zM151.667 81.667h23.333v23.333h-23.333v-23.333zM151.667 128.333h23.333v23.333h-23.333v-23.333z"></path>
</svg>
