<!-- Generated by IcoMoon.io -->
<svg version="1.1" xmlns="http://www.w3.org/2000/svg" width="280" height="280" viewBox="0 0 280 280">
<title>mt-find_in_page</title>
<path fill="#91908d" d="M233.333 228.55v-135.217l-70-70h-93.333c-12.833 0-23.217 10.5-23.217 23.333l-0.117 186.667c0 12.833 10.383 23.333 23.217 23.333h140.117c5.25 0 9.917-1.75 13.883-4.667l-51.683-51.683c-9.333 6.067-20.3 9.683-32.2 9.683-32.2 0-58.333-26.133-58.333-58.333s26.133-58.333 58.333-58.333c32.2 0 58.333 26.133 58.333 58.333 0 11.9-3.617 22.867-9.683 32.083l44.683 44.8zM105 151.667c0 19.367 15.633 35 35 35s35-15.633 35-35c0-19.367-15.633-35-35-35s-35 15.633-35 35v0z"></path>
</svg>
