<!-- Generated by IcoMoon.io -->
<svg version="1.1" xmlns="http://www.w3.org/2000/svg" width="280" height="280" viewBox="0 0 280 280">
<title>mt-hdr_weak</title>
<path fill="#91908d" d="M58.333 93.333c-25.783 0-46.667 20.883-46.667 46.667s20.883 46.667 46.667 46.667c25.783 0 46.667-20.883 46.667-46.667s-20.883-46.667-46.667-46.667v0zM198.333 70c-38.617 0-70 31.383-70 70s31.383 70 70 70c38.617 0 70-31.383 70-70s-31.383-70-70-70v0zM198.333 186.667c-25.783 0-46.667-20.883-46.667-46.667s20.883-46.667 46.667-46.667c25.783 0 46.667 20.883 46.667 46.667s-20.883 46.667-46.667 46.667v0z"></path>
</svg>
