<!-- Generated by IcoMoon.io -->
<svg version="1.1" xmlns="http://www.w3.org/2000/svg" width="280" height="280" viewBox="0 0 280 280">
<title>mt-linked_camera</title>
<path fill="#91908d" d="M177.333 163.331c0 20.619-16.715 37.333-37.333 37.333s-37.333-16.715-37.333-37.333c0-20.619 16.715-37.333 37.333-37.333s37.333 16.715 37.333 37.333z"></path>
<path fill="#91908d" d="M186.667 38.85c30.1 0 54.483 24.383 54.483 54.483h15.517c0-38.617-31.383-70-70-70v15.517zM186.667 70c12.95 0 23.333 10.383 23.333 23.333h15.517c0-21.467-17.383-38.85-38.85-38.85v15.517z"></path>
<path fill="#91908d" d="M198.333 105c0-12.95-10.383-23.333-23.333-23.333v-35h-70l-21.35 23.333h-36.983c-12.833 0-23.333 10.5-23.333 23.333v140c0 12.833 10.5 23.333 23.333 23.333h186.667c12.833 0 23.333-10.5 23.333-23.333v-128.333h-58.333zM140 221.667c-32.2 0-58.333-26.133-58.333-58.333s26.133-58.333 58.333-58.333c32.2 0 58.333 26.133 58.333 58.333s-26.133 58.333-58.333 58.333v0z"></path>
</svg>
