<!-- Generated by IcoMoon.io -->
<svg version="1.1" xmlns="http://www.w3.org/2000/svg" width="280" height="280" viewBox="0 0 280 280">
<title>mt-lock</title>
<path fill="#91908d" d="M210 93.333h-11.667v-23.333c0-32.2-26.133-58.333-58.333-58.333s-58.333 26.133-58.333 58.333v23.333h-11.667c-12.833 0-23.333 10.5-23.333 23.333v116.667c0 12.833 10.5 23.333 23.333 23.333h140c12.833 0 23.333-10.5 23.333-23.333v-116.667c0-12.833-10.5-23.333-23.333-23.333v0zM140 198.333c-12.833 0-23.333-10.5-23.333-23.333s10.5-23.333 23.333-23.333c12.833 0 23.333 10.5 23.333 23.333s-10.5 23.333-23.333 23.333v0zM176.167 93.333h-72.333v-23.333c0-19.95 16.217-36.167 36.167-36.167s36.167 16.217 36.167 36.167v23.333z"></path>
</svg>
