<!-- Generated by IcoMoon.io -->
<svg version="1.1" xmlns="http://www.w3.org/2000/svg" width="280" height="280" viewBox="0 0 280 280">
<title>mt-lightbulb_outline</title>
<path fill="#91908d" d="M105 245c0 6.417 5.25 11.667 11.667 11.667h46.667c6.417 0 11.667-5.25 11.667-11.667v-11.667h-70v11.667zM140 23.333c-45.033 0-81.667 36.633-81.667 81.667 0 27.767 13.883 52.15 35 66.967v26.367c0 6.417 5.25 11.667 11.667 11.667h70c6.417 0 11.667-5.25 11.667-11.667v-26.367c21.117-14.817 35-39.2 35-66.967 0-45.033-36.633-81.667-81.667-81.667v0zM173.25 152.833l-9.917 7v26.833h-46.667v-26.833l-9.917-7c-15.75-10.967-25.083-28.817-25.083-47.833 0-32.2 26.133-58.333 58.333-58.333s58.333 26.133 58.333 58.333c0 19.017-9.333 36.867-25.083 47.833v0z"></path>
</svg>
