<!-- Generated by IcoMoon.io -->
<svg version="1.1" xmlns="http://www.w3.org/2000/svg" width="280" height="280" viewBox="0 0 280 280">
<title>mt-more_vert</title>
<path fill="#91908d" d="M140 93.333c12.833 0 23.333-10.5 23.333-23.333s-10.5-23.333-23.333-23.333c-12.833 0-23.333 10.5-23.333 23.333s10.5 23.333 23.333 23.333v0zM140 116.667c-12.833 0-23.333 10.5-23.333 23.333s10.5 23.333 23.333 23.333c12.833 0 23.333-10.5 23.333-23.333s-10.5-23.333-23.333-23.333v0zM140 186.667c-12.833 0-23.333 10.5-23.333 23.333s10.5 23.333 23.333 23.333c12.833 0 23.333-10.5 23.333-23.333s-10.5-23.333-23.333-23.333v0z"></path>
</svg>
