<!-- Generated by IcoMoon.io -->
<svg version="1.1" xmlns="http://www.w3.org/2000/svg" width="280" height="280" viewBox="0 0 280 280">
<title>mt-money_off</title>
<path fill="#91908d" d="M145.835 80.5c20.767 0 28.467 9.917 29.167 24.5h25.783c-0.817-20.067-13.067-38.5-37.45-44.45v-25.55h-35v25.2c-6.183 1.4-12.017 3.5-17.267 6.3l17.151 17.15c4.783-1.983 10.617-3.15 17.617-3.15v0zM62.184 47.367l-14.817 14.817 40.133 40.133c0 24.267 18.2 37.45 45.617 45.617l40.95 40.95c-3.967 5.6-12.25 10.617-28.233 10.617-24.033 0-33.484-10.733-34.767-24.5h-25.667c1.4 25.55 20.533 39.9 42.934 44.683v25.317h35v-25.083c11.2-2.1 21.233-6.417 28.583-13.067l25.9 25.9 14.817-14.817-170.451-170.567z"></path>
</svg>
