<!-- Generated by IcoMoon.io -->
<svg version="1.1" xmlns="http://www.w3.org/2000/svg" width="280" height="280" viewBox="0 0 280 280">
<title>mt-mmt-off</title>
<path fill="#91908d" d="M221.667 128.333h-19.833c0 8.633-1.867 16.683-5.017 23.917l14.35 14.35c6.533-11.433 10.5-24.383 10.5-38.267v0zM174.767 130.317c0-0.7 0.233-1.283 0.233-1.983v-70c0-19.367-15.633-35-35-35s-35 15.633-35 35v2.1l69.767 69.883zM49.817 35l-14.817 14.817 70.117 70.117v8.4c0 19.367 15.517 35 34.883 35 2.567 0 5.133-0.35 7.583-0.933l19.367 19.367c-8.283 3.85-17.5 6.067-26.95 6.067-32.2 0-61.833-24.5-61.833-59.5h-19.833c0 39.783 31.733 72.683 70 78.4v38.267h23.333v-38.267c10.617-1.517 20.65-5.25 29.633-10.5l48.883 48.767 14.817-14.817-195.183-195.183z"></path>
</svg>
