<!-- Generated by IcoMoon.io -->
<svg version="1.1" xmlns="http://www.w3.org/2000/svg" width="280" height="280" viewBox="0 0 280 280">
<title>mt-not_interested</title>
<path fill="#91908d" d="M140 23.333c-64.4 0-116.667 52.267-116.667 116.667s52.267 116.667 116.667 116.667c64.4 0 116.667-52.267 116.667-116.667s-52.267-116.667-116.667-116.667v0zM140 233.333c-51.567 0-93.333-41.767-93.333-93.333 0-21.583 7.35-41.417 19.717-57.167l130.783 130.783c-15.75 12.367-35.583 19.717-57.167 19.717v0zM213.617 197.167l-130.783-130.783c15.75-12.367 35.583-19.717 57.167-19.717 51.567 0 93.333 41.767 93.333 93.333 0 21.583-7.35 41.417-19.717 57.167v0z"></path>
</svg>
