<!-- Generated by IcoMoon.io -->
<svg version="1.1" xmlns="http://www.w3.org/2000/svg" width="280" height="280" viewBox="0 0 280 280">
<title>mt-notifications_off</title>
<path fill="#91908d" d="M233.333 218.050l-171.85-177.333-14.817 14.817 32.667 32.667v0.117c-6.067 11.55-9.333 25.2-9.333 39.9v58.333l-23.333 23.333v11.667h160.183l23.333 23.333 14.817-14.817-11.667-12.017zM140 256.667c12.95 0 23.333-10.383 23.333-23.333h-46.667c0 12.95 10.383 23.333 23.333 23.333v0zM210 171.267v-42.933c0-35.933-19.133-65.8-52.5-73.733v-7.933c0-9.683-7.817-17.5-17.5-17.5s-17.5 7.817-17.5 17.5v7.933c-1.75 0.35-3.383 0.933-4.9 1.4-1.167 0.35-2.333 0.817-3.5 1.283h-0.117c-0.117 0-0.117 0-0.233 0.117-2.683 1.050-5.367 2.333-7.933 3.617 0 0-0.117 0-0.117 0.117l104.3 110.133z"></path>
</svg>
