<!-- Generated by IcoMoon.io -->
<svg version="1.1" xmlns="http://www.w3.org/2000/svg" width="280" height="280" viewBox="0 0 280 280">
<title>mt-print</title>
<path fill="#91908d" d="M221.667 93.333h-163.333c-19.367 0-35 15.633-35 35v70h46.667v46.667h140v-46.667h46.667v-70c0-19.367-15.633-35-35-35v0zM186.667 221.667h-93.333v-58.333h93.333v58.333zM221.667 140c-6.417 0-11.667-5.25-11.667-11.667s5.25-11.667 11.667-11.667c6.417 0 11.667 5.25 11.667 11.667s-5.25 11.667-11.667 11.667v0zM210 35h-140v46.667h140v-46.667z"></path>
</svg>
