<!-- Generated by IcoMoon.io -->
<svg version="1.1" xmlns="http://www.w3.org/2000/svg" width="280" height="280" viewBox="0 0 280 280">
<title>mt-phone_iphone</title>
<path fill="#91908d" d="M180.833 11.667h-93.333c-16.1 0-29.167 13.067-29.167 29.167v198.333c0 16.1 13.067 29.167 29.167 29.167h93.333c16.1 0 29.167-13.067 29.167-29.167v-198.333c0-16.1-13.067-29.167-29.167-29.167v0zM134.167 256.667c-9.683 0-17.5-7.817-17.5-17.5s7.817-17.5 17.5-17.5c9.683 0 17.5 7.817 17.5 17.5s-7.817 17.5-17.5 17.5v0zM186.667 210h-105v-163.333h105v163.333z"></path>
</svg>
