<!-- Generated by IcoMoon.io -->
<svg version="1.1" xmlns="http://www.w3.org/2000/svg" width="280" height="280" viewBox="0 0 280 280">
<title>mt-pageview</title>
<path fill="#91908d" d="M134.167 105c-16.1 0-29.167 13.067-29.167 29.167s13.067 29.167 29.167 29.167c16.1 0 29.167-13.067 29.167-29.167s-13.067-29.167-29.167-29.167v0zM233.333 46.667h-186.667c-12.833 0-23.333 10.5-23.333 23.333v140c0 12.833 10.5 23.333 23.333 23.333h186.667c12.833 0 23.333-10.5 23.333-23.333v-140c0-12.833-10.5-23.333-23.333-23.333v0zM195.883 212.45l-33.95-33.95c-8.050 5.133-17.617 8.167-27.883 8.167-28.933 0-52.383-23.45-52.383-52.5s23.45-52.5 52.5-52.5c29.050 0 52.5 23.45 52.5 52.5 0 10.267-3.033 19.717-8.167 27.883l33.95 33.833-16.567 16.567z"></path>
</svg>
