<!-- Generated by IcoMoon.io -->
<svg version="1.1" xmlns="http://www.w3.org/2000/svg" width="280" height="280" viewBox="0 0 280 280">
<title>mt-photo_size_select_large</title>
<path fill="#91908d" d="M245 175h23.333v23.333h-23.333v-23.333zM245 128.333h23.333v23.333h-23.333v-23.333zM268.333 221.667h-23.333v23.333c11.667 0 23.333-11.667 23.333-23.333v0zM151.667 35h23.333v23.333h-23.333v-23.333zM245 81.667h23.333v23.333h-23.333v-23.333zM245 35v23.333h23.333c0-11.667-11.667-23.333-23.333-23.333v0zM11.667 81.667h23.333v23.333h-23.333v-23.333zM198.333 35h23.333v23.333h-23.333v-23.333zM198.333 221.667h23.333v23.333h-23.333v-23.333zM35 35c-11.667 0-23.333 11.667-23.333 23.333h23.333v-23.333zM105 35h23.333v23.333h-23.333v-23.333zM58.333 35h23.333v23.333h-23.333v-23.333zM11.667 128.333v93.333c0 12.833 10.5 23.333 23.333 23.333h140v-116.667h-163.333zM35 221.667l29.167-37.45 20.883 25.083 29.167-37.567 37.45 49.933h-116.667z"></path>
</svg>
