<!-- Generated by IcoMoon.io -->
<svg version="1.1" xmlns="http://www.w3.org/2000/svg" width="280" height="280" viewBox="0 0 280 280">
<title>mt-queue_play_next</title>
<path fill="#91908d" d="M245 35h-210c-12.95 0-23.333 10.383-23.333 23.333v140c0 12.833 10.383 23.333 23.333 23.333h58.333v23.333h93.333v-23.333h23.333v-23.333h-175v-140h210v93.333h23.333v-93.333c0-12.95-10.5-23.333-23.333-23.333v0zM151.667 116.667v-35h-23.333v35h-35v23.333h35v35h23.333v-35h35v-23.333h-35zM280 210l-52.5 52.5-17.5-17.5 35-35-35-35 17.5-17.5 52.5 52.5z"></path>
</svg>
