<!-- Generated by IcoMoon.io -->
<svg version="1.1" xmlns="http://www.w3.org/2000/svg" width="280" height="280" viewBox="0 0 280 280">
<title>mt-record_voice_over</title>
<path fill="#91908d" d="M151.667 105c0 25.773-20.893 46.667-46.667 46.667s-46.667-20.893-46.667-46.667c0-25.773 20.893-46.667 46.667-46.667s46.667 20.893 46.667 46.667z"></path>
<path fill="#91908d" d="M105 175c-31.15 0-93.333 15.633-93.333 46.667v23.333h186.667v-23.333c0-31.033-62.183-46.667-93.333-46.667v0zM195.533 62.533l-19.6 19.717c9.8 13.767 9.8 31.617 0 45.383l19.6 19.717c23.567-23.567 23.567-59.15 0-84.817v0zM234.15 23.333l-19.017 19.017c32.317 35.233 32.317 88.2 0 125.3l19.017 19.017c45.5-45.383 45.617-116.083 0-163.333v0z"></path>
</svg>
