<!-- Generated by IcoMoon.io -->
<svg version="1.1" xmlns="http://www.w3.org/2000/svg" width="280" height="280" viewBox="0 0 280 280">
<title>mt-receipt</title>
<path fill="#91908d" d="M210 198.333h-140v-23.333h140v23.333zM210 151.667h-140v-23.333h140v23.333zM210 105h-140v-23.333h140v23.333zM35 256.667l17.5-17.5 17.5 17.5 17.5-17.5 17.5 17.5 17.5-17.5 17.5 17.5 17.5-17.5 17.5 17.5 17.5-17.5 17.5 17.5 17.5-17.5 17.5 17.5v-233.333l-17.5 17.5-17.5-17.5-17.5 17.5-17.5-17.5-17.5 17.5-17.5-17.5-17.5 17.5-17.5-17.5-17.5 17.5-17.5-17.5-17.5 17.5-17.5-17.5v233.333z"></path>
</svg>
