<!-- Generated by IcoMoon.io -->
<svg version="1.1" xmlns="http://www.w3.org/2000/svg" width="280" height="280" viewBox="0 0 280 280">
<title>mt-shopping_basket</title>
<path fill="#91908d" d="M200.783 105l-51.1-76.533c-2.217-3.267-5.95-4.9-9.683-4.9s-7.467 1.633-9.683 5.017l-51.1 76.417h-55.883c-6.417 0-11.667 5.25-11.667 11.666 0 1.050 0.117 2.1 0.467 3.15l29.633 108.15c2.683 9.8 11.667 17.033 22.4 17.033h151.667c10.733 0 19.717-7.233 22.517-17.033l29.633-108.15 0.35-3.15c0-6.416-5.25-11.666-11.667-11.666h-55.883zM105 105l35-51.333 35 51.333h-70zM140 198.333c-12.833 0-23.333-10.5-23.333-23.333s10.5-23.333 23.333-23.333c12.833 0 23.333 10.5 23.333 23.333s-10.5 23.333-23.333 23.333v0z"></path>
</svg>
