<!-- Generated by IcoMoon.io -->
<svg version="1.1" xmlns="http://www.w3.org/2000/svg" width="280" height="280" viewBox="0 0 280 280">
<title>mt-supervisor_account</title>
<path fill="#91908d" d="M192.5 140c16.1 0 29.050-13.067 29.050-29.167s-12.95-29.167-29.050-29.167c-16.1 0-29.167 13.067-29.167 29.167s13.067 29.167 29.167 29.167v0zM105 128.333c19.367 0 34.883-15.633 34.883-35s-15.517-35-34.883-35c-19.367 0-35 15.633-35 35s15.633 35 35 35v0zM192.5 163.333c-21.35 0-64.167 10.733-64.167 32.083v26.25h128.333v-26.25c0-21.35-42.817-32.083-64.167-32.083v0zM105 151.667c-27.183 0-81.667 13.65-81.667 40.833v29.167h81.667v-26.25c0-9.917 3.85-27.3 27.65-40.483-10.15-2.1-19.95-3.267-27.65-3.267v0z"></path>
</svg>
