<!-- Generated by IcoMoon.io -->
<svg version="1.1" xmlns="http://www.w3.org/2000/svg" width="280" height="280" viewBox="0 0 280 280">
<title>mt-settings_overscan</title>
<path fill="#91908d" d="M140.117 64.167l-23.45 29.167h46.667l-23.217-29.167zM210 116.667v46.667l29.167-23.217-29.167-23.45zM70 116.667l-29.167 23.45 29.167 23.217v-46.667zM163.333 186.667h-46.667l23.45 29.167 23.217-29.167zM245 35h-210c-12.833 0-23.333 10.5-23.333 23.333v163.333c0 12.833 10.5 23.333 23.333 23.333h210c12.833 0 23.333-10.5 23.333-23.333v-163.333c0-12.833-10.5-23.333-23.333-23.333v0zM245 221.783h-210v-163.567h210v163.567z"></path>
</svg>
