<!-- Generated by IcoMoon.io -->
<svg version="1.1" xmlns="http://www.w3.org/2000/svg" width="280" height="280" viewBox="0 0 280 280">
<title>mt-settings_input_svideo</title>
<path fill="#91908d" d="M93.333 134.167c0-9.683-7.817-17.5-17.5-17.5s-17.5 7.817-17.5 17.5c0 9.683 7.817 17.5 17.5 17.5s17.5-7.817 17.5-17.5v0zM175 75.833c0-9.683-7.817-17.5-17.5-17.5h-35c-9.683 0-17.5 7.817-17.5 17.5s7.817 17.5 17.5 17.5h35c9.683 0 17.5-7.817 17.5-17.5v0zM99.167 175c-9.683 0-17.5 7.817-17.5 17.5s7.817 17.5 17.5 17.5c9.683 0 17.5-7.817 17.5-17.5s-7.817-17.5-17.5-17.5v0zM140 11.667c-70.817 0-128.333 57.517-128.333 128.333s57.517 128.333 128.333 128.333c70.817 0 128.333-57.517 128.333-128.333s-57.517-128.333-128.333-128.333v0zM140 245c-57.867 0-105-47.133-105-105s47.133-105 105-105c57.867 0 105 47.133 105 105s-47.133 105-105 105v0zM204.167 116.667c-9.683 0-17.5 7.817-17.5 17.5s7.817 17.5 17.5 17.5c9.683 0 17.5-7.817 17.5-17.5s-7.817-17.5-17.5-17.5v0zM180.833 175c-9.683 0-17.5 7.817-17.5 17.5s7.817 17.5 17.5 17.5c9.683 0 17.5-7.817 17.5-17.5s-7.817-17.5-17.5-17.5v0z"></path>
</svg>
