<!-- Generated by IcoMoon.io -->
<svg version="1.1" xmlns="http://www.w3.org/2000/svg" width="280" height="280" viewBox="0 0 280 280">
<title>mt-shop_two</title>
<path fill="#91908d" d="M35 105h-23.333v128.333c0 12.95 10.383 23.333 23.333 23.333h163.333c12.95 0 23.333-10.383 23.333-23.333h-186.667v-128.333zM210 58.333v-23.333c0-12.95-10.383-23.333-23.333-23.333h-46.667c-12.95 0-23.333 10.383-23.333 23.333v23.333h-58.333v128.333c0 12.95 10.383 23.333 23.333 23.333h163.333c12.95 0 23.333-10.383 23.333-23.333v-128.333h-58.333zM140 35h46.667v23.333h-46.667v-23.333zM140 175v-81.667l64.167 35-64.167 46.667z"></path>
</svg>
