<!-- Generated by IcoMoon.io -->
<svg version="1.1" xmlns="http://www.w3.org/2000/svg" width="280" height="280" viewBox="0 0 280 280">
<title>mt-settings_brightness</title>
<path fill="#91908d" d="M245 35h-210c-12.833 0-23.333 10.5-23.333 23.333v163.333c0 12.833 10.5 23.333 23.333 23.333h210c12.833 0 23.333-10.5 23.333-23.333v-163.333c0-12.833-10.5-23.333-23.333-23.333v0zM245 221.783h-210v-163.567h210v163.567zM93.333 186.667h29.167l17.5 17.5 17.5-17.5h29.167v-29.167l17.5-17.5-17.5-17.5v-29.167h-29.167l-17.5-17.5-17.5 17.5h-29.167v29.167l-17.5 17.5 17.5 17.5v29.167zM140 105c19.367 0 35 15.633 35 35s-15.633 35-35 35v-70z"></path>
</svg>
