<!-- Generated by IcoMoon.io -->
<svg version="1.1" xmlns="http://www.w3.org/2000/svg" width="280" height="280" viewBox="0 0 280 280">
<title>mt-thumb_down</title>
<path fill="#91908d" d="M175 35h-105c-9.683 0-17.967 5.833-21.467 14.233l-35.233 82.25c-1.050 2.683-1.633 5.483-1.633 8.517v22.283l0.117 0.117-0.117 0.933c0 12.833 10.5 23.333 23.333 23.333h73.617l-11.083 53.317-0.35 3.733c0 4.783 1.983 9.217 5.133 12.367l12.367 12.25 76.883-76.883c4.2-4.2 6.767-10.033 6.767-16.45v-116.667c0-12.833-10.5-23.333-23.333-23.333v0zM221.667 35v140h46.667v-140h-46.667z"></path>
</svg>
