<!-- Generated by IcoMoon.io -->
<svg version="1.1" xmlns="http://www.w3.org/2000/svg" width="292" height="280" viewBox="0 0 292 280">
<title>mt-timer_10</title>
<path fill="#91908d" d="M0 90.065v19.6l35-11.667v112h23.333v-140h-2.917l-55.417 20.067zM277.433 167.649c-1.633-3.267-4.083-6.183-7.35-8.633s-7.117-4.55-11.783-6.183c-4.667-1.633-9.917-3.15-15.75-4.433-4.083-0.817-7.467-1.75-10.15-2.683s-4.783-1.867-6.417-2.917c-1.633-1.050-2.683-2.217-3.267-3.5s-0.933-2.8-0.933-4.55c0-1.633 0.35-3.267 1.050-4.783s1.75-2.917 3.15-3.967c1.4-1.167 3.15-2.1 5.25-2.8s4.667-1.050 7.467-1.050c2.917 0 5.483 0.467 7.7 1.283s4.083 1.983 5.6 3.383c1.517 1.4 2.567 3.033 3.383 4.9 0.7 1.867 1.167 3.733 1.167 5.717h22.75c0-4.55-0.933-8.75-2.8-12.717s-4.55-7.35-8.050-10.267c-3.5-2.917-7.7-5.133-12.717-6.883s-10.733-2.567-17.033-2.567c-5.95 0-11.433 0.817-16.217 2.45s-8.983 3.85-12.367 6.65c-3.383 2.8-5.95 6.067-7.817 9.8s-2.683 7.583-2.683 11.783c0 4.2 0.933 8.050 2.683 11.2 1.75 3.267 4.2 6.067 7.467 8.517 3.15 2.45 7 4.433 11.433 6.183 4.433 1.633 9.45 3.033 14.817 4.2 4.55 0.933 8.283 1.983 11.083 3.033s5.017 2.217 6.65 3.383c1.517 1.167 2.567 2.567 3.15 3.967s0.817 2.917 0.817 4.55c0 3.733-1.517 6.65-4.667 8.983s-7.7 3.383-13.65 3.383c-2.567 0-5.017-0.233-7.467-0.933-2.45-0.583-4.667-1.517-6.533-2.8-1.983-1.283-3.5-3.033-4.783-5.133s-1.983-4.783-2.1-7.817h-22.050c0 4.2 0.933 8.283 2.8 12.25s4.55 7.583 8.167 10.85c3.617 3.15 8.050 5.717 13.417 7.7s11.433 2.917 18.433 2.917c6.183 0 11.783-0.7 16.8-2.217s9.333-3.617 12.95-6.3c3.617-2.683 6.3-5.95 8.283-9.683s2.917-7.817 2.917-12.367c-0.233-4.667-1.050-8.633-2.8-11.9v0zM161.233 82.249c-3.967-4.667-8.75-8.167-14.35-10.267-5.483-2.1-11.783-3.15-18.55-3.15s-12.95 1.050-18.55 3.15c-5.6 2.1-10.383 5.483-14.35 10.267s-7 10.85-9.217 18.55c-2.1 7.583-3.267 16.917-3.267 27.883v22.4c0 10.967 1.050 20.3 3.267 27.883 2.217 7.7 5.25 13.883 9.333 18.667 3.967 4.783 8.75 8.283 14.35 10.383s11.783 3.267 18.55 3.267c6.883 0 13.067-1.050 18.55-3.267 5.6-2.1 10.267-5.6 14.233-10.383s7-10.967 9.1-18.667c2.1-7.583 3.267-16.917 3.267-27.883v-22.4c0-10.967-1.050-20.3-3.267-27.883-2.1-7.7-5.133-13.883-9.1-18.55v0zM150.5 154.232c0 7-0.467 12.95-1.4 17.85s-2.333 8.867-4.2 11.9c-1.867 3.033-4.2 5.25-6.883 6.65s-5.95 2.1-9.567 2.1c-3.5 0-6.767-0.7-9.567-2.1s-5.133-3.617-7-6.65c-1.867-3.033-3.383-7-4.433-11.9s-1.517-10.85-1.517-17.85v-29.167c0-7 0.467-12.95 1.517-17.733s2.45-8.633 4.433-11.667c1.867-2.917 4.2-5.017 7-6.417 2.8-1.283 5.95-1.983 9.45-1.983 3.617 0 6.767 0.7 9.45 1.983 2.8 1.283 5.133 3.383 7 6.417 1.867 2.917 3.383 6.767 4.317 11.55s1.517 10.733 1.517 17.733v29.283h-0.117z"></path>
</svg>
