<!-- Generated by IcoMoon.io -->
<svg version="1.1" xmlns="http://www.w3.org/2000/svg" width="280" height="280" viewBox="0 0 280 280">
<title>mt-timer</title>
<path fill="#91908d" d="M175 11.667h-70v23.333h70v-23.333zM128.333 163.333h23.333v-70h-23.333v70zM222.017 86.217l16.567-16.567c-5.017-5.95-10.5-11.55-16.45-16.45l-16.567 16.567c-18.083-14.467-40.833-23.1-65.567-23.1-57.983 0-105 47.017-105 105s46.9 105 105 105c58.1 0 105-47.017 105-105 0-24.733-8.633-47.483-22.983-65.45v0zM140 233.333c-45.15 0-81.667-36.517-81.667-81.667s36.517-81.667 81.667-81.667c45.15 0 81.667 36.517 81.667 81.667s-36.517 81.667-81.667 81.667v0z"></path>
</svg>
