<!-- Generated by IcoMoon.io -->
<svg version="1.1" xmlns="http://www.w3.org/2000/svg" width="280" height="280" viewBox="0 0 280 280">
<title>mt-thumb_up</title>
<path fill="#91908d" d="M11.667 245h46.667v-140h-46.667v140zM268.333 116.667c0-12.833-10.5-23.333-23.333-23.333h-73.617l11.083-53.317 0.35-3.733c0-4.783-1.983-9.217-5.133-12.367l-12.367-12.25-76.767 76.883c-4.317 4.2-6.883 10.033-6.883 16.45v116.667c0 12.833 10.5 23.333 23.333 23.333h105c9.683 0 17.967-5.833 21.467-14.233l35.233-82.25c1.050-2.683 1.633-5.483 1.633-8.517v-22.283l-0.117-0.117 0.117-0.933z"></path>
</svg>
