<!-- Generated by IcoMoon.io -->
<svg version="1.1" xmlns="http://www.w3.org/2000/svg" width="280" height="280" viewBox="0 0 280 280">
<title>mt-thumbs_up_down</title>
<path fill="#91908d" d="M140 70c0-6.417-5.25-11.667-11.667-11.667h-60.433l7.7-37.1 0.233-2.683c0-3.617-1.517-6.883-3.85-9.333l-9.217-9.217-57.633 57.633c-3.15 3.15-5.133 7.583-5.133 12.367v75.833c0 9.683 7.817 17.5 17.5 17.5h78.75c7.233 0 13.417-4.433 16.1-10.617l26.367-61.717c0.817-1.983 1.283-4.2 1.283-6.417v-14.583zM262.5 116.667h-78.75c-7.233 0-13.417 4.433-16.1 10.617l-26.367 61.717c-0.817 1.983-1.283 4.2-1.283 6.417v14.583c0 6.417 5.25 11.667 11.667 11.667h60.433l-7.7 37.1-0.233 2.8c0 3.617 1.517 6.883 3.85 9.333l9.217 9.1 57.633-57.633c3.15-3.15 5.133-7.583 5.133-12.367v-75.833c0-9.683-7.817-17.5-17.5-17.5v0z"></path>
</svg>
