<!-- Generated by IcoMoon.io -->
<svg version="1.1" xmlns="http://www.w3.org/2000/svg" width="280" height="280" viewBox="0 0 280 280">
<title>mt-unarchive</title>
<path fill="#91908d" d="M239.75 60.9l-16.217-19.6c-3.267-3.85-8.050-6.3-13.533-6.3h-140c-5.483 0-10.267 2.45-13.417 6.417l-16.217 19.483c-3.383 4.083-5.367 9.217-5.367 14.933v145.833c0 12.833 10.383 23.333 23.333 23.333h163.333c12.833 0 23.333-10.5 23.333-23.333v-145.833c0-5.717-1.983-10.85-5.25-14.933v0zM140 110.833l64.167 64.167h-40.833v23.333h-46.667v-23.333h-40.833l64.167-64.167zM59.733 58.333l9.567-11.667h140l10.85 11.667h-160.417z"></path>
</svg>
