<!-- Generated by IcoMoon.io -->
<svg version="1.1" xmlns="http://www.w3.org/2000/svg" width="280" height="280" viewBox="0 0 280 280">
<title>mt-vpn_lock</title>
<path fill="#91908d" d="M256.667 46.667v-5.833c0-16.1-13.067-29.167-29.167-29.167s-29.167 13.067-29.167 29.167v5.833c-6.417 0-11.667 5.25-11.667 11.667v46.667c0 6.417 5.25 11.667 11.667 11.667h58.333c6.417 0 11.667-5.25 11.667-11.667v-46.667c0-6.417-5.25-11.667-11.667-11.667v0zM247.333 46.667h-39.667v-5.833c0-10.967 8.867-19.833 19.833-19.833s19.833 8.867 19.833 19.833v5.833zM220.733 140c0.467 3.85 0.933 7.7 0.933 11.667 0 24.267-9.333 46.317-24.5 62.883-3.033-9.45-11.667-16.217-22.167-16.217h-11.667v-35c0-6.417-5.25-11.667-11.667-11.667h-70v-23.333h23.333c6.417 0 11.667-5.25 11.667-11.667v-23.333h23.333c12.833 0 23.333-10.5 23.333-23.333v-29.633c-11.083-3.5-22.75-5.367-35-5.367-64.4 0-116.667 52.267-116.667 116.667s52.267 116.667 116.667 116.667c64.4 0 116.667-52.267 116.667-116.667 0-3.967-0.233-7.817-0.583-11.667h-23.683zM116.667 244.183c-46.083-5.717-81.667-44.917-81.667-92.517 0-7.233 0.933-14.117 2.45-20.883l55.883 55.883v11.667c0 12.833 10.5 23.333 23.333 23.333v22.517z"></path>
</svg>
