<!-- Generated by IcoMoon.io -->
<svg version="1.1" xmlns="http://www.w3.org/2000/svg" width="280" height="280" viewBox="0 0 280 280">
<title>mt-watch</title>
<path fill="#91908d" d="M233.333 140c0-29.633-13.883-56.117-35.467-73.15l-11.2-66.85h-93.333l-11.083 66.85c-21.7 17.033-35.583 43.4-35.583 73.15s13.883 56.117 35.583 73.15l11.083 66.85h93.333l11.2-66.85c21.583-17.033 35.467-43.517 35.467-73.15v0zM70 140c0-38.617 31.383-70 70-70s70 31.383 70 70c0 38.617-31.383 70-70 70s-70-31.383-70-70v0z"></path>
</svg>
