<!-- Generated by IcoMoon.io -->
<svg version="1.1" xmlns="http://www.w3.org/2000/svg" width="280" height="280" viewBox="0 0 280 280">
<title>mt-weekend</title>
<path fill="#91908d" d="M245 116.667c-12.833 0-23.333 10.5-23.333 23.333v35h-163.333v-35c0-12.833-10.5-23.333-23.333-23.333s-23.333 10.5-23.333 23.333v58.333c0 12.833 10.5 23.333 23.333 23.333h210c12.833 0 23.333-10.5 23.333-23.333v-58.333c0-12.833-10.5-23.333-23.333-23.333v0zM210 58.333h-140c-12.833 0-23.333 10.5-23.333 23.333v25.083c13.533 4.783 23.333 17.617 23.333 32.9v23.683h140v-23.683c0-15.167 9.8-28 23.333-32.9v-25.083c0-12.833-10.5-23.333-23.333-23.333v0z"></path>
</svg>
