<!-- Generated by IcoMoon.io -->
<svg version="1.1" xmlns="http://www.w3.org/2000/svg" width="280" height="280" viewBox="0 0 280 280">
<title>ul-arrows-v</title>
<path fill="#91908d" d="M178.383 190.050l-26.717 26.833v-153.767l26.717 26.833c2.114 2.131 5.045 3.451 8.283 3.451s6.169-1.32 8.283-3.45l0.001-0.001c2.131-2.114 3.451-5.045 3.451-8.283s-1.32-6.169-3.45-8.283l-46.668-46.668c-1.077-1.032-2.356-1.862-3.771-2.422l-0.079-0.028c-1.311-0.553-2.834-0.875-4.433-0.875s-3.123 0.322-4.51 0.904l0.077-0.029c-1.494 0.588-2.773 1.418-3.854 2.454l0.004-0.004-46.667 46.667c-2.12 2.12-3.431 5.048-3.431 8.283 0 6.47 5.245 11.714 11.714 11.714 3.235 0 6.164-1.311 8.283-3.431v0l26.717-26.833v153.767l-26.717-26.833c-2.12-2.12-5.048-3.431-8.283-3.431-6.47 0-11.714 5.245-11.714 11.714 0 3.235 1.311 6.164 3.431 8.283l46.667 46.667c1.077 1.032 2.356 1.862 3.771 2.422l0.079 0.028c1.305 0.591 2.829 0.936 4.433 0.936s3.129-0.345 4.502-0.964l-0.069 0.028c1.494-0.588 2.773-1.418 3.854-2.454l-0.004 0.004 46.667-46.667c2.12-2.12 3.431-5.048 3.431-8.283 0-6.47-5.245-11.714-11.714-11.714-3.235 0-6.164 1.311-8.283 3.431v0z"></path>
</svg>
