<!-- Generated by IcoMoon.io -->
<svg version="1.1" xmlns="http://www.w3.org/2000/svg" width="280" height="280" viewBox="0 0 280 280">
<title>ul-arrow-down-left</title>
<path fill="#91908d" d="M198.333 186.667h-88.55l96.833-96.717c2.12-2.12 3.431-5.048 3.431-8.283 0-6.47-5.245-11.714-11.714-11.714-3.235 0-6.164 1.311-8.283 3.431v0l-96.717 96.833v-88.55c0-6.443-5.223-11.667-11.667-11.667s-11.667 5.223-11.667 11.667v0 116.667c0.020 1.606 0.361 3.127 0.963 4.509l-0.029-0.075c1.209 2.86 3.44 5.091 6.223 6.271l0.077 0.029c1.306 0.572 2.827 0.913 4.426 0.933h116.674c6.443 0 11.667-5.223 11.667-11.667s-5.223-11.667-11.667-11.667v0z"></path>
</svg>
