<!-- Generated by IcoMoon.io -->
<svg version="1.1" xmlns="http://www.w3.org/2000/svg" width="280" height="280" viewBox="0 0 280 280">
<title>ul-arrow-compress-h</title>
<path fill="#91908d" d="M140 58.333c-6.443 0-11.667 5.223-11.667 11.667v0 140c0 6.443 5.223 11.667 11.667 11.667s11.667-5.223 11.667-11.667v0-140c0-6.443-5.223-11.667-11.667-11.667v0zM124.95 131.717l-29.167-29.167c-2.12-2.12-5.048-3.431-8.283-3.431-6.47 0-11.714 5.245-11.714 11.714 0 3.235 1.311 6.164 3.431 8.283v0l9.333 9.217h-53.55c-6.443 0-11.667 5.223-11.667 11.667s5.223 11.667 11.667 11.667v0h53.55l-9.333 9.217c-2.131 2.114-3.451 5.045-3.451 8.283s1.32 6.169 3.45 8.283l0.001 0.001c2.114 2.131 5.045 3.451 8.283 3.451s6.169-1.32 8.283-3.45l29.168-29.168c1.032-1.077 1.862-2.356 2.422-3.771l0.028-0.079c0.591-1.305 0.936-2.829 0.936-4.433s-0.345-3.129-0.964-4.502l0.028 0.069c-0.588-1.494-1.418-2.773-2.454-3.854l0.004 0.004zM245 128.333h-53.55l9.333-9.217c2.12-2.12 3.431-5.048 3.431-8.283 0-6.47-5.245-11.714-11.714-11.714-3.235 0-6.164 1.311-8.283 3.431l-29.167 29.167c-2.131 2.114-3.451 5.045-3.451 8.283s1.32 6.169 3.45 8.283l29.168 29.168c2.114 2.131 5.045 3.451 8.283 3.451s6.169-1.32 8.283-3.45l0.001-0.001c2.131-2.114 3.451-5.045 3.451-8.283s-1.32-6.169-3.45-8.283l-0.001-0.001-9.333-9.217h53.55c6.443 0 11.667-5.223 11.667-11.667s-5.223-11.667-11.667-11.667v0z"></path>
</svg>
