<!-- Generated by IcoMoon.io -->
<svg version="1.1" xmlns="http://www.w3.org/2000/svg" width="280" height="280" viewBox="0 0 280 280">
<title>ul-bolt-slash</title>
<path fill="#91908d" d="M101.15 49.35c0.89 0.244 1.912 0.383 2.966 0.383 3.044 0 5.815-1.165 7.892-3.074l-0.008 0.008h59.5l-14.817 55.3c-0.261 0.92-0.411 1.977-0.411 3.069 0 2.675 0.9 5.14 2.415 7.108l-0.020-0.027c2.148 2.772 5.475 4.541 9.215 4.55h42.118l-13.183 14.467c-1.864 2.060-3.005 4.804-3.005 7.815 0 3.418 1.47 6.493 3.812 8.626l0.009 0.008c2.057 1.874 4.802 3.025 7.815 3.033h0.002c3.422-0.008 6.496-1.488 8.624-3.84l0.009-0.010 30.917-33.95c1.867-2.060 3.010-4.807 3.010-7.821 0-6.443-5.223-11.667-11.667-11.667-0.115 0-0.229 0.002-0.343 0.005l0.017-0h-52.967l15.283-55.3c0.242-0.887 0.381-1.906 0.381-2.957 0-2.725-0.934-5.232-2.5-7.217l0.019 0.025c-2.154-2.781-5.494-4.554-9.248-4.554-0.112 0-0.224 0.002-0.335 0.005l0.016-0h-81.667c-0.119-0.004-0.259-0.007-0.399-0.007-5.367 0-9.888 3.624-11.248 8.558l-0.019 0.082v3.033c-0.282 0.956-0.445 2.055-0.445 3.191 0 5.228 3.439 9.654 8.179 11.136l0.083 0.022zM252.817 236.717l-210-210c-1.901-1.399-4.289-2.239-6.873-2.239-6.443 0-11.667 5.223-11.667 11.667 0 2.701 0.918 5.188 2.459 7.165l-0.019-0.026 50.4 50.050-14.7 55.3c-0.242 0.887-0.381 1.906-0.381 2.957 0 2.725 0.934 5.232 2.5 7.217l-0.019-0.025c2.148 2.772 5.475 4.541 9.215 4.55h44.802l-21.117 78.633c-0.255 0.911-0.402 1.957-0.402 3.037 0 4.411 2.448 8.249 6.058 10.233l0.060 0.030c1.602 0.882 3.511 1.4 5.542 1.4 0.021 0 0.041 0 0.062-0h-0.003c3.422-0.008 6.496-1.488 8.624-3.84l0.009-0.010 56.583-62.3 62.767 62.767c2.114 2.131 5.045 3.451 8.283 3.451s6.169-1.32 8.283-3.45l0.001-0.001c2.131-2.114 3.451-5.045 3.451-8.283s-1.32-6.169-3.45-8.283l-0.001-0.001zM88.9 140l7.35-27.3 27.3 27.3zM132.417 201.6l11.667-41.533 14 13.883z"></path>
</svg>
