<!-- Generated by IcoMoon.io -->
<svg version="1.1" xmlns="http://www.w3.org/2000/svg" width="280" height="280" viewBox="0 0 280 280">
<title>ul-bolt</title>
<path fill="#91908d" d="M231.817 100.333c-1.77-3.996-5.61-6.78-10.123-6.999l-0.027-0.001h-53.433l14.817-55.3c0.261-0.92 0.411-1.977 0.411-3.069 0-2.675-0.9-5.14-2.415-7.108l0.020 0.027c-2.148-2.772-5.475-4.541-9.215-4.55h-81.668c-0.119-0.004-0.259-0.007-0.399-0.007-5.367 0-9.888 3.624-11.248 8.558l-0.019 0.082-31.267 116.667c-0.261 0.92-0.411 1.977-0.411 3.069 0 2.675 0.9 5.14 2.415 7.108l-0.020-0.027c2.154 2.779 5.493 4.55 9.245 4.55 0.031 0 0.062 0 0.093-0h45.145l-21.117 78.633c-0.261 0.921-0.412 1.978-0.412 3.071 0 6.443 5.223 11.667 11.667 11.667 3.449 0 6.549-1.497 8.685-3.877l0.010-0.011 127.167-140c1.892-2.067 3.052-4.832 3.052-7.868 0-1.669-0.35-3.255-0.981-4.691l0.029 0.075zM117.6 201.6l12.483-46.667c0.261-0.92 0.411-1.977 0.411-3.069 0-2.675-0.9-5.14-2.415-7.108l0.020 0.027c-2.148-2.772-5.475-4.541-9.215-4.55h-44.802l24.967-93.567h57.517l-14.817 55.3c-0.256 0.912-0.403 1.959-0.403 3.040 0 6.443 5.223 11.667 11.667 11.667 0.142 0 0.283-0.002 0.424-0.008l-0.020 0.001h41.65z"></path>
</svg>
