<!-- Generated by IcoMoon.io -->
<svg version="1.1" xmlns="http://www.w3.org/2000/svg" width="280" height="280" viewBox="0 0 280 280">
<title>ul-box</title>
<path fill="#91908d" d="M239.050 87.733c-0.032-0.14-0.050-0.301-0.050-0.467s0.018-0.326 0.053-0.482l-0.003 0.015c-0.027-0.123-0.042-0.264-0.042-0.408s0.016-0.285 0.045-0.421l-0.002 0.013v-1.050l-0.7-1.75c-0.296-0.492-0.644-0.914-1.045-1.279l-0.005-0.004-1.050-0.933h-0.583l-45.967-29.050-43.4-26.833c-0.957-0.765-2.085-1.364-3.313-1.732l-0.070-0.018h-0.933c-0.474-0.083-1.019-0.13-1.575-0.13s-1.101 0.048-1.632 0.139l0.057-0.008h-1.167c-1.455 0.328-2.741 0.851-3.91 1.55l0.060-0.033-87.15 54.25-1.050 0.817-1.050 0.933-1.167 0.817-0.583 0.7-0.7 1.75v1.75c-0.054 0.351-0.085 0.755-0.085 1.167s0.031 0.816 0.091 1.211l-0.005-0.044v101.85c0 0.007 0 0.015 0 0.023 0 4.152 2.169 7.797 5.435 9.865l0.048 0.028 87.5 54.133 1.75 0.7h0.933c0.906 0.298 1.95 0.469 3.033 0.469s2.127-0.172 3.104-0.489l-0.071 0.020h0.933l1.75-0.7 86.8-53.317c3.314-2.096 5.483-5.741 5.483-9.893 0-0.008 0-0.016 0-0.025v0.001-101.85s0.233-0.817 0.233-1.283zM140 48.65l20.767 12.833-65.217 40.367-20.883-12.833zM128.333 223.65l-64.167-39.2v-74.55l64.167 39.667zM140 129.033l-22.283-13.417 65.217-40.483 22.4 13.883zM215.833 184.1l-64.167 39.9v-74.433l64.167-39.667z"></path>
</svg>
