<!-- Generated by IcoMoon.io -->
<svg version="1.1" xmlns="http://www.w3.org/2000/svg" width="280" height="280" viewBox="0 0 280 280">
<title>ul-bus</title>
<path fill="#91908d" d="M99.167 198.333c6.443 0 11.667-5.223 11.667-11.667v0c0.027-0.349 0.043-0.756 0.043-1.167s-0.016-0.818-0.046-1.22l0.003 0.054c-0.14-0.788-0.384-1.493-0.72-2.142l0.020 0.042c-0.279-0.801-0.634-1.495-1.070-2.13l0.020 0.030-1.4-1.75c-1.077-1.032-2.356-1.862-3.771-2.422l-0.079-0.028c-1.456-0.701-3.164-1.111-4.97-1.111-0.718 0-1.42 0.065-2.102 0.189l0.071-0.011-2.1 0.7-2.1 1.050c-0.654 0.463-1.224 0.923-1.765 1.414l0.015-0.014-1.4 1.75c-0.416 0.605-0.771 1.299-1.031 2.038l-0.019 0.062c-0.316 0.607-0.56 1.312-0.693 2.055l-0.007 0.045c-0.027 0.349-0.043 0.756-0.043 1.167s0.016 0.818 0.046 1.22l-0.003-0.054c0 6.443 5.223 11.667 11.667 11.667v0zM192.5 198.333c6.443 0 11.667-5.223 11.667-11.667v0c0.027-0.349 0.043-0.756 0.043-1.167s-0.016-0.818-0.046-1.22l0.003 0.054c-0.14-0.788-0.384-1.493-0.72-2.142l0.020 0.042c-0.279-0.801-0.634-1.495-1.070-2.13l0.020 0.030-1.4-1.75c-1.094-0.997-2.367-1.822-3.762-2.417l-0.088-0.033c-1.311-0.553-2.834-0.875-4.433-0.875s-3.123 0.322-4.51 0.904l0.077-0.029c-1.483 0.628-2.756 1.453-3.861 2.46l0.011-0.010-1.4 1.75c-0.416 0.605-0.771 1.299-1.031 2.038l-0.019 0.062c-0.316 0.607-0.56 1.312-0.693 2.055l-0.007 0.045c-0.027 0.349-0.043 0.756-0.043 1.167s0.016 0.818 0.046 1.22l-0.003-0.054c0.014 3.187 1.303 6.070 3.384 8.167l-0.001-0.001c2 2.045 4.743 3.357 7.791 3.499l0.026 0.001zM157.5 58.333h-23.333c-6.443 0-11.667 5.223-11.667 11.667s5.223 11.667 11.667 11.667v0h23.333c6.443 0 11.667-5.223 11.667-11.667s-5.223-11.667-11.667-11.667v0zM215.833 23.333h-140c-19.33 0-35 15.67-35 35v0 140c0.044 15.109 9.654 27.961 23.090 32.823l0.244 0.077v13.767c0 6.443 5.223 11.667 11.667 11.667s11.667-5.223 11.667-11.667v0-11.667h116.667v11.667c0 6.443 5.223 11.667 11.667 11.667s11.667-5.223 11.667-11.667v0-13.767c13.68-4.939 23.289-17.791 23.333-32.895v-140.005c0-19.33-15.67-35-35-35v0zM227.5 198.333c0 6.443-5.223 11.667-11.667 11.667v0h-140c-6.443 0-11.667-5.223-11.667-11.667v0-35h163.333zM227.5 140h-163.333v-81.667c0-6.443 5.223-11.667 11.667-11.667v0h140c6.443 0 11.667 5.223 11.667 11.667v0z"></path>
</svg>
