<!-- Generated by IcoMoon.io -->
<svg version="1.1" xmlns="http://www.w3.org/2000/svg" width="280" height="280" viewBox="0 0 280 280">
<title>ul-books</title>
<path fill="#91908d" d="M262.15 219.567l-11.667-45.033-36.75-135.217c-1.371-5.029-5.898-8.665-11.274-8.665-1.052 0-2.072 0.139-3.041 0.4l0.081-0.019-45.15 11.667c-2.112-2.334-5.138-3.807-8.509-3.85h-116.674c-6.443 0-11.667 5.223-11.667 11.667v0 186.667c0 6.443 5.223 11.667 11.667 11.667v0h116.667c6.443 0 11.667-5.223 11.667-11.667v0-93.333l25.667 95.9c1.38 5.016 5.9 8.64 11.267 8.64 0.141 0 0.28-0.002 0.419-0.007l-0.020 0.001c0.455 0.055 0.982 0.086 1.517 0.086s1.061-0.031 1.58-0.092l-0.063 0.006 56.35-15.050c3.064-0.838 5.569-2.811 7.087-5.427l0.030-0.056c0.752-1.542 1.192-3.356 1.192-5.272 0-1.070-0.137-2.107-0.395-3.096l0.019 0.085zM75.483 225.983h-35v-23.333h35zM75.483 179.317h-35v-70h35zM75.483 85.983h-35v-23.333h35zM133.817 225.983h-35v-23.333h35zM133.817 179.317h-35v-70h35zM133.817 85.983h-35v-23.333h35zM160.067 65.683l33.833-9.1 6.067 22.517-33.833 9.1zM190.283 178.383l-18.083-67.667 33.833-9.1 18.083 67.667zM201.95 223.417l-6.067-22.517 33.833-9.1 6.067 22.517z"></path>
</svg>
