<!-- Generated by IcoMoon.io -->
<svg version="1.1" xmlns="http://www.w3.org/2000/svg" width="280" height="280" viewBox="0 0 280 280">
<title>ul-cloud-wind</title>
<path fill="#91908d" d="M58.333 210c-6.443 0-11.667 5.223-11.667 11.667s5.223 11.667 11.667 11.667c6.443 0 11.667-5.223 11.667-11.667v0c0-6.443-5.223-11.667-11.667-11.667v0zM221.667 163.333h-81.667c-6.443 0-11.667 5.223-11.667 11.667s5.223 11.667 11.667 11.667v0h81.667c6.443 0 11.667 5.223 11.667 11.667s-5.223 11.667-11.667 11.667v0c-6.443 0-11.667 5.223-11.667 11.667s5.223 11.667 11.667 11.667v0c19.33 0 35-15.67 35-35s-15.67-35-35-35v0zM163.333 128.333c0 6.443 5.223 11.667 11.667 11.667v0h46.667c19.33 0 35-15.67 35-35v0c0-6.443-5.223-11.667-11.667-11.667s-11.667 5.223-11.667 11.667v0c0 6.443-5.223 11.667-11.667 11.667v0h-46.667c-6.443 0-11.667 5.223-11.667 11.667v0zM116.667 175c0-6.443-5.223-11.667-11.667-11.667v0h-35c-12.887 0-23.333-10.447-23.333-23.333s10.447-23.333 23.333-23.333v0c6.443 0 11.667-5.223 11.667-11.667v0c0.072-32.162 26.161-58.207 58.333-58.207 25.446 0 47.086 16.293 55.059 39.015l0.125 0.409c1.606 4.668 5.96 7.962 11.083 7.962 6.459 0 11.695-5.236 11.695-11.695 0-1.336-0.224-2.62-0.637-3.816l0.025 0.082c-11.284-32.478-41.627-55.374-77.318-55.374-41.427 0-75.65 30.846-80.953 70.824l-0.045 0.416c-20.69 5.079-35.798 23.467-35.798 45.384 0 25.773 20.893 46.667 46.667 46.667 0.034 0 0.069 0 0.104 0h34.995c6.443 0 11.667-5.223 11.667-11.667v0zM116.667 128.333c0 6.443 5.223 11.667 11.667 11.667s11.667-5.223 11.667-11.667c0-6.443-5.223-11.667-11.667-11.667v0c-6.443 0-11.667 5.223-11.667 11.667v0zM163.333 210h-58.333c-6.443 0-11.667 5.223-11.667 11.667s5.223 11.667 11.667 11.667v0h58.333c6.443 0 11.667 5.223 11.667 11.667v0c0 6.443 5.223 11.667 11.667 11.667s11.667-5.223 11.667-11.667v0c0-19.33-15.67-35-35-35v0z"></path>
</svg>
