<!-- Generated by IcoMoon.io -->
<svg version="1.1" xmlns="http://www.w3.org/2000/svg" width="280" height="280" viewBox="0 0 280 280">
<title>ul-calendar-slash</title>
<path fill="#91908d" d="M136.033 81.667h38.967v11.667c0 6.443 5.223 11.667 11.667 11.667s11.667-5.223 11.667-11.667v0-11.667h11.667c6.443 0 11.667 5.223 11.667 11.667v0 35h-15.633c-6.443 0-11.667 5.223-11.667 11.667s5.223 11.667 11.667 11.667v0h15.633v15.633c0 6.443 5.223 11.667 11.667 11.667s11.667-5.223 11.667-11.667v0-73.967c0-19.33-15.67-35-35-35v0h-11.667v-11.667c0-6.443-5.223-11.667-11.667-11.667s-11.667 5.223-11.667 11.667v0 11.667h-38.967c-6.443 0-11.667 5.223-11.667 11.667s5.223 11.667 11.667 11.667v0zM253.283 236.717l-210-210c-2.12-2.12-5.048-3.431-8.283-3.431-6.47 0-11.714 5.245-11.714 11.714 0 3.235 1.311 6.164 3.431 8.283v0l22.283 22.167c-8.509 6.43-13.961 16.516-14 27.877v116.673c0 19.33 15.67 35 35 35v0h140c5.481-0.034 10.654-1.322 15.255-3.591l-0.205 0.091 11.667 11.667c2.114 2.131 5.045 3.451 8.283 3.451s6.169-1.32 8.283-3.45l0.001-0.001c2.097-2.109 3.393-5.016 3.393-8.225s-1.296-6.116-3.393-8.226l0.001 0.001zM58.333 93.333c0.054-4.972 3.209-9.193 7.619-10.824l0.081-0.026 45.85 45.85h-53.55zM70 221.667c-6.443 0-11.667-5.223-11.667-11.667v0-58.333h76.883l70 70z"></path>
</svg>
