<!-- Generated by IcoMoon.io -->
<svg version="1.1" xmlns="http://www.w3.org/2000/svg" width="280" height="280" viewBox="0 0 280 280">
<title>ul-closed-captioning</title>
<path fill="#91908d" d="M131.133 153.3c-1.689-1.006-3.724-1.601-5.899-1.601-4.282 0-8.026 2.307-10.055 5.747l-0.030 0.054c-2.064 3.47-5.795 5.759-10.060 5.759-3.283 0-6.25-1.357-8.37-3.539l-0.003-0.003c-2.087-1.981-3.385-4.776-3.385-7.874 0-0.062 0.001-0.124 0.002-0.186v0.009-23.333c0-0.018-0-0.038-0-0.059 0-6.443 5.223-11.667 11.667-11.667 4.413 0 8.254 2.451 10.236 6.065l0.030 0.061c2.080 3.396 5.771 5.628 9.982 5.628 2.216 0 4.288-0.618 6.053-1.691l-0.052 0.029c3.426-2.074 5.68-5.78 5.68-10.014 0-2.251-0.638-4.354-1.742-6.136l0.029 0.050c-1.58-2.608-3.354-4.865-5.368-6.884l0.001 0.001c-6.34-6.406-15.13-10.375-24.848-10.383h-0.002c-19.33 0-35 15.67-35 35v0 23.333c0.092 19.26 15.726 34.838 35 34.838 12.821 0 24.032-6.894 30.128-17.177l0.089-0.162c0.993-1.681 1.58-3.703 1.58-5.863 0-4.226-2.247-7.928-5.612-9.974l-0.052-0.029zM201.133 153.3c-1.689-1.006-3.724-1.601-5.899-1.601-4.282 0-8.026 2.307-10.055 5.747l-0.030 0.054c-2.064 3.47-5.795 5.759-10.060 5.759-3.283 0-6.25-1.357-8.37-3.539l-0.003-0.003c-2.087-1.981-3.385-4.776-3.385-7.874 0-0.062 0.001-0.124 0.002-0.186v0.009-23.333c0-0.018-0-0.038-0-0.059 0-6.443 5.223-11.667 11.667-11.667 4.413 0 8.254 2.451 10.236 6.065l0.030 0.061c2.080 3.396 5.771 5.628 9.982 5.628 2.216 0 4.288-0.618 6.053-1.691l-0.052 0.029c3.426-2.074 5.68-5.78 5.68-10.014 0-2.251-0.638-4.354-1.742-6.136l0.029 0.050c-1.58-2.608-3.354-4.865-5.368-6.884l0.001 0.001c-6.34-6.406-15.13-10.375-24.848-10.383h-0.002c-19.33 0-35 15.67-35 35v0 23.333c0.092 19.26 15.726 34.838 35 34.838 12.821 0 24.032-6.894 30.128-17.177l0.089-0.162c0.993-1.681 1.58-3.703 1.58-5.863 0-4.226-2.247-7.928-5.612-9.974l-0.052-0.029zM140 23.333c-64.433 0-116.667 52.233-116.667 116.667s52.233 116.667 116.667 116.667c64.433 0 116.667-52.233 116.667-116.667v0c0-64.433-52.233-116.667-116.667-116.667v0zM140 233.333c-51.547 0-93.333-41.787-93.333-93.333s41.787-93.333 93.333-93.333c51.547 0 93.333 41.787 93.333 93.333v0c0 51.547-41.787 93.333-93.333 93.333v0z"></path>
</svg>
