<!-- Generated by IcoMoon.io -->
<svg version="1.1" xmlns="http://www.w3.org/2000/svg" width="280" height="280" viewBox="0 0 280 280">
<title>ul-chart-line</title>
<path fill="#91908d" d="M81.667 186.667c9.665 0 17.5-7.835 17.5-17.5v0c0.027-0.262 0.043-0.567 0.043-0.875s-0.016-0.613-0.046-0.913l0.003 0.038 32.55-32.55h5.367l18.783 18.783s0 0.583 0 0.933c0 9.665 7.835 17.5 17.5 17.5s17.5-7.835 17.5-17.5v0-0.933l42.467-42.817c9.665 0 17.5-7.835 17.5-17.5s-7.835-17.5-17.5-17.5c-9.665 0-17.5 7.835-17.5 17.5v0c-0.027 0.262-0.043 0.567-0.043 0.875s0.016 0.613 0.046 0.913l-0.003-0.038-42.117 42.117h-1.867l-20.183-20.533c0-9.665-7.835-17.5-17.5-17.5s-17.5 7.835-17.5 17.5v0l-35 35c-9.665 0-17.5 7.835-17.5 17.5s7.835 17.5 17.5 17.5v0zM239.167 233.333h-198.333v-198.333c0-6.443-5.223-11.667-11.667-11.667s-11.667 5.223-11.667 11.667v0 210c0 6.443 5.223 11.667 11.667 11.667v0h210c6.443 0 11.667-5.223 11.667-11.667s-5.223-11.667-11.667-11.667v0z"></path>
</svg>
