<!-- Generated by IcoMoon.io -->
<svg version="1.1" xmlns="http://www.w3.org/2000/svg" width="280" height="280" viewBox="0 0 280 280">
<title>ul-card-atm</title>
<path fill="#91908d" d="M221.667 52.5h-163.333c-19.33 0-35 15.67-35 35v0 105c0 19.33 15.67 35 35 35v0h163.333c19.33 0 35-15.67 35-35v0-105c0-19.33-15.67-35-35-35v0zM233.333 192.5c0 6.443-5.223 11.667-11.667 11.667v0h-163.333c-6.443 0-11.667-5.223-11.667-11.667v0-105c0-6.443 5.223-11.667 11.667-11.667v0h163.333c6.443 0 11.667 5.223 11.667 11.667v0zM186.667 122.5c-6.507 0.047-12.58 1.862-17.775 4.988l0.158-0.088c-5.105-3.079-11.27-4.9-17.86-4.9-19.33 0-35 15.67-35 35s15.67 35 35 35c6.59 0 12.755-1.821 18.018-4.988l-0.158 0.088c5.105 3.078 11.269 4.899 17.859 4.899 19.33 0 35-15.67 35-35s-15.67-35-35-35c-0.085 0-0.17 0-0.255 0.001h0.013zM153.65 169.167c-0.297 0.027-0.643 0.042-0.992 0.042s-0.695-0.015-1.036-0.045l0.044 0.003c-6.443 0-11.667-5.223-11.667-11.667s5.223-11.667 11.667-11.667v0c0.297-0.027 0.643-0.042 0.992-0.042s0.695 0.015 1.036 0.045l-0.044-0.003c-1.254 3.331-1.98 7.18-1.98 11.2s0.726 7.869 2.054 11.426l-0.074-0.226zM186.667 169.167c-6.443 0-11.667-5.223-11.667-11.667s5.223-11.667 11.667-11.667c6.443 0 11.667 5.223 11.667 11.667v0c0 6.443-5.223 11.667-11.667 11.667v0z"></path>
</svg>
