<!-- Generated by IcoMoon.io -->
<svg version="1.1" xmlns="http://www.w3.org/2000/svg" width="280" height="280" viewBox="0 0 280 280">
<title>ul-comparison</title>
<path fill="#91908d" d="M245 233.333h-198.333v-6.3l58.333-58.333 44.333 44.333c2.109 2.097 5.016 3.393 8.225 3.393s6.116-1.296 8.226-3.393l87.499-87.499c2.131-2.114 3.451-5.045 3.451-8.283s-1.32-6.169-3.45-8.283l-0.001-0.001c-2.109-2.097-5.016-3.393-8.225-3.393s-6.116 1.296-8.226 3.393l-79.333 79.333-44.217-44.333c-2.109-2.097-5.016-3.393-8.225-3.393s-6.116 1.296-8.226 3.393l0.001-0.001-50.167 50.050v-60.317l58.333-58.333 32.667 32.667c2.109 2.097 5.016 3.393 8.225 3.393s6.116-1.296 8.226-3.393l55.883-55.883 25.55 25.55c2.11 2.095 5.016 3.39 8.225 3.39 6.447 0 11.673-5.226 11.673-11.673 0-3.238-1.318-6.168-3.447-8.283l-0.001-0.001-33.95-33.717c-2.109-2.097-5.016-3.393-8.225-3.393s-6.116 1.296-8.226 3.393l-55.999 55.999-32.55-32.667c-2.109-2.097-5.016-3.393-8.225-3.393s-6.116 1.296-8.226 3.393l-49.933 49.933v-65.683c0-6.443-5.223-11.667-11.667-11.667s-11.667 5.223-11.667 11.667v0 210c0 6.443 5.223 11.667 11.667 11.667v0h210c6.443 0 11.667-5.223 11.667-11.667s-5.223-11.667-11.667-11.667v0z"></path>
</svg>
