<!-- Generated by IcoMoon.io -->
<svg version="1.1" xmlns="http://www.w3.org/2000/svg" width="280" height="280" viewBox="0 0 280 280">
<title>ul-chart-pie</title>
<path fill="#91908d" d="M140 23.333c-0.063 0-0.137-0-0.211-0-64.433 0-116.667 52.233-116.667 116.667s52.233 116.667 116.667 116.667c21.232 0 41.14-5.672 58.29-15.583l-0.562 0.3h1.4c35.464-20.464 58.949-58.184 58.949-101.39 0-64.433-52.233-116.667-116.667-116.667-0.422 0-0.843 0.002-1.264 0.007l0.064-0.001zM151.667 47.483c42.25 5.51 75.34 38.6 80.8 80.379l0.050 0.471h-80.85zM140 233.333c-51.272-0.361-92.696-42.008-92.696-93.331 0-47.208 35.049-86.23 80.544-92.464l0.486-0.054v92.517c0.050 1.48 0.345 2.876 0.846 4.17l-0.030-0.087v1.75l46.667 80.15c-10.562 4.641-22.873 7.345-35.815 7.35h-0.002zM196.35 214.2l-36.167-62.533h72.333c-3.363 25.648-16.709 47.663-35.942 62.368l-0.225 0.165z"></path>
</svg>
