<!-- Generated by IcoMoon.io -->
<svg version="1.1" xmlns="http://www.w3.org/2000/svg" width="280" height="280" viewBox="0 0 280 280">
<title>ul-cloud-drizzle</title>
<path fill="#91908d" d="M140 221.667c-6.443 0-11.667 5.223-11.667 11.667v0 11.667c0 6.443 5.223 11.667 11.667 11.667s11.667-5.223 11.667-11.667v0-11.667c0-6.443-5.223-11.667-11.667-11.667v0zM93.333 128.333c-6.443 0-11.667 5.223-11.667 11.667v0 11.667c0 6.443 5.223 11.667 11.667 11.667s11.667-5.223 11.667-11.667v0-11.667c0-6.443-5.223-11.667-11.667-11.667v0zM93.333 186.667c-6.443 0-11.667 5.223-11.667 11.667v0 11.667c0 6.443 5.223 11.667 11.667 11.667s11.667-5.223 11.667-11.667v0-11.667c0-6.443-5.223-11.667-11.667-11.667v0zM140 163.333c-6.443 0-11.667 5.223-11.667 11.667v0 11.667c0 6.443 5.223 11.667 11.667 11.667s11.667-5.223 11.667-11.667v0-11.667c0-6.443-5.223-11.667-11.667-11.667v0zM214.9 72.567c-12.908-29.127-41.566-49.078-74.883-49.078-41.387 0-75.584 30.787-80.938 70.709l-0.046 0.419c-20.641 5.115-35.7 23.479-35.7 45.36 0 0.008 0 0.017 0 0.025v-0.001c-0 0.044-0 0.095-0 0.147 0 13.837 6.022 26.267 15.588 34.813l0.045 0.040c2.093 2.013 4.943 3.253 8.082 3.253 6.443 0 11.667-5.223 11.667-11.667 0-3.662-1.687-6.93-4.327-9.069l-0.022-0.017c-4.737-4.287-7.701-10.459-7.701-17.322 0-0.062 0-0.125 0.001-0.187v0.010c0-12.887 10.447-23.333 23.333-23.333v0c6.443 0 11.667-5.223 11.667-11.667v0c0.072-32.162 26.161-58.207 58.333-58.207 25.446 0 47.086 16.293 55.059 39.015l0.125 0.409c1.378 4.054 4.813 7.063 9.030 7.806l0.070 0.010c16.539 2.931 28.954 17.151 29.050 34.29v0.010c0.005 0.21 0.007 0.457 0.007 0.705 0 8.708-3.279 16.65-8.669 22.66l0.028-0.032c-1.601 1.981-2.57 4.53-2.57 7.305 0 6.443 5.223 11.667 11.667 11.667 3.182 0 6.067-1.274 8.172-3.34l-0.002 0.002c8.965-10.204 14.434-23.671 14.434-38.415 0-26.213-17.29-48.388-41.088-55.742l-0.413-0.11zM186.667 128.333c-6.443 0-11.667 5.223-11.667 11.667v0 11.667c0 6.443 5.223 11.667 11.667 11.667s11.667-5.223 11.667-11.667v0-11.667c0-6.443-5.223-11.667-11.667-11.667v0zM186.667 186.667c-6.443 0-11.667 5.223-11.667 11.667v0 11.667c0 6.443 5.223 11.667 11.667 11.667s11.667-5.223 11.667-11.667v0-11.667c0-6.443-5.223-11.667-11.667-11.667v0zM140 105c-6.443 0-11.667 5.223-11.667 11.667v0 11.667c0 6.443 5.223 11.667 11.667 11.667s11.667-5.223 11.667-11.667v0-11.667c0-6.443-5.223-11.667-11.667-11.667v0z"></path>
</svg>
