<!-- Generated by IcoMoon.io -->
<svg version="1.1" xmlns="http://www.w3.org/2000/svg" width="280" height="280" viewBox="0 0 280 280">
<title>ul-comment-lock</title>
<path fill="#91908d" d="M220.733 188.183c-1.677-0.988-3.694-1.572-5.848-1.572-4.318 0-8.088 2.346-10.105 5.832l-0.030 0.056c-14.36 24.543-40.569 40.779-70.576 40.833h-65.224l7.467-7.35c2.097-2.109 3.393-5.016 3.393-8.225s-1.296-6.116-3.393-8.226l0.001 0.001c-14.876-14.795-24.083-35.277-24.083-57.91 0-41.543 31.019-75.841 71.159-80.997l0.407-0.043c5.859-0.723 10.35-5.671 10.35-11.667 0-6.489-5.261-11.75-11.75-11.75-0.493 0-0.98 0.030-1.457 0.089l0.057-0.006c-52.177 6.641-92.107 50.76-92.107 104.205 0 24.993 8.732 47.947 23.312 65.976l-0.155-0.198-19.6 19.483c-2.078 2.105-3.362 5-3.362 8.194 0 1.633 0.336 3.187 0.941 4.598l-0.029-0.076c1.785 4.263 5.912 7.209 10.73 7.233h93.337c38.641-0.019 72.399-20.907 90.615-52.005l0.268-0.495c0.988-1.677 1.572-3.694 1.572-5.848 0-4.318-2.346-8.088-5.832-10.105l-0.056-0.030zM227.5 72.1v-13.767c0-19.33-15.67-35-35-35s-35 15.67-35 35v0 13.767c-13.68 4.939-23.289 17.791-23.333 32.895v23.339c0 19.33 15.67 35 35 35v0h46.667c19.33 0 35-15.67 35-35v0-23.333c-0.044-15.109-9.654-27.961-23.090-32.823l-0.244-0.077zM180.833 58.333c0-6.443 5.223-11.667 11.667-11.667s11.667 5.223 11.667 11.667v0 11.667h-23.333zM227.5 128.333c0 6.443-5.223 11.667-11.667 11.667v0h-46.667c-6.443 0-11.667-5.223-11.667-11.667v0-23.333c0-6.443 5.223-11.667 11.667-11.667v0h46.667c6.443 0 11.667 5.223 11.667 11.667v0z"></path>
</svg>
