<!-- Generated by IcoMoon.io -->
<svg version="1.1" xmlns="http://www.w3.org/2000/svg" width="280" height="280" viewBox="0 0 280 280">
<title>ul-chart-pie-alt</title>
<path fill="#91908d" d="M221.667 140h-81.667v-81.667c0-7-4.667-11.667-11.667-11.667-58.333 0-105 46.667-105 105s46.667 105 105 105 105-46.667 105-105c0-7-4.667-11.667-11.667-11.667zM140 232.167c-44.333 7-86.333-24.5-92.167-68.833-7-44.333 24.5-86.333 68.833-92.167v80.5c0 7 4.667 11.667 11.667 11.667h80.5c-4.667 36.167-32.667 64.167-68.833 68.833zM175 23.333c-7 0-11.667 4.667-11.667 11.667v70c0 7 4.667 11.667 11.667 11.667h70c7 0 11.667-4.667 11.667-11.667 0-45.5-36.167-81.667-81.667-81.667zM186.667 93.333v-45.5c23.333 4.667 40.833 22.167 45.5 45.5h-45.5z"></path>
</svg>
