<!-- Generated by IcoMoon.io -->
<svg version="1.1" xmlns="http://www.w3.org/2000/svg" width="280" height="280" viewBox="0 0 280 280">
<title>ul-corner-up-left</title>
<path fill="#91908d" d="M171.383 77.35h-81.667l34.067-34.067c2.131-2.114 3.451-5.045 3.451-8.283s-1.32-6.169-3.45-8.283l-0.001-0.001c-2.109-2.097-5.016-3.393-8.225-3.393s-6.116 1.296-8.226 3.393l0.001-0.001-53.55 54.017c-1.076 1.071-1.944 2.351-2.538 3.773l-0.028 0.077c-0.553 1.311-0.875 2.834-0.875 4.433s0.322 3.123 0.904 4.51l-0.029-0.077c0.672 1.483 1.533 2.755 2.573 3.857l-0.006-0.007 54.017 54.367c2.081 2.123 4.964 3.453 8.158 3.5h0.009c0.020 0 0.044 0 0.068 0 6.443 0 11.667-5.223 11.667-11.667 0-3.239-1.32-6.169-3.451-8.283l-0.001-0.001-34.067-34.533h81.667c19.33 0 35 15.67 35 35v0 109.317c0 6.443 5.223 11.667 11.667 11.667s11.667-5.223 11.667-11.667v0-109.317c0-0.001 0-0.001 0-0.002 0-32.217-26.117-58.333-58.333-58.333-0.164 0-0.328 0.001-0.492 0.002l0.025-0z"></path>
</svg>
