<!-- Generated by IcoMoon.io -->
<svg version="1.1" xmlns="http://www.w3.org/2000/svg" width="280" height="280" viewBox="0 0 280 280">
<title>ul-cloud-unlock</title>
<path fill="#91908d" d="M163.333 180.833h-35v-11.667c-0.002-0.089-0.004-0.194-0.004-0.299 0-6.443 5.223-11.667 11.667-11.667 4.416 0 8.259 2.454 10.24 6.072l0.030 0.061c2.080 3.396 5.771 5.628 9.982 5.628 2.216 0 4.288-0.618 6.053-1.691l-0.052 0.029c3.312-2.096 5.478-5.74 5.478-9.89 0-2.111-0.561-4.091-1.542-5.8l0.030 0.057c-1.58-2.608-3.354-4.865-5.368-6.884l0.001 0.001c-6.309-6.491-15.099-10.542-24.836-10.616h-0.014c-19.33 0-35 15.67-35 35v0 13.767c-13.567 5.026-23.062 17.854-23.062 32.901 0 19.234 15.516 34.845 34.714 34.999h46.681c19.33 0 35-15.67 35-35s-15.67-35-35-35v0zM163.333 227.5h-46.667c-6.443 0-11.667-5.223-11.667-11.667s5.223-11.667 11.667-11.667v0h46.667c6.443 0 11.667 5.223 11.667 11.667s-5.223 11.667-11.667 11.667v0zM214.9 78.4c-12.908-29.127-41.566-49.078-74.883-49.078-41.387 0-75.584 30.787-80.938 70.709l-0.046 0.419c-20.602 5.143-35.623 23.488-35.623 45.341 0 20.227 12.868 37.448 30.865 43.923l0.325 0.102c1.114 0.356 2.396 0.568 3.726 0.583h0.008c0.561 0.094 1.207 0.148 1.867 0.148 6.525 0 11.815-5.29 11.815-11.815 0-5.866-4.275-10.734-9.88-11.657l-0.069-0.009c-8.841-3.258-15.092-11.478-15.399-21.197l-0.001-0.036c0-12.887 10.447-23.333 23.333-23.333v0c6.443 0 11.667-5.223 11.667-11.667v0c0.072-32.162 26.161-58.207 58.333-58.207 25.446 0 47.086 16.293 55.059 39.015l0.125 0.409c1.378 4.054 4.813 7.063 9.030 7.806l0.070 0.010c16.465 3.061 28.766 17.314 28.766 34.441 0 12.724-6.789 23.861-16.943 29.988l-0.157 0.088c-3.535 2.059-5.873 5.832-5.873 10.15 0 6.465 5.241 11.707 11.707 11.707 2.147 0 4.159-0.578 5.889-1.587l-0.056 0.030c17.494-10.289 29.050-29.020 29.050-50.451 0-0.023 0-0.046 0-0.070v0.004c-0.077-26.244-17.472-48.404-41.354-55.659l-0.413-0.108z"></path>
</svg>
