<!-- Generated by IcoMoon.io -->
<svg version="1.1" xmlns="http://www.w3.org/2000/svg" width="280" height="280" viewBox="0 0 280 280">
<title>ul-comment-alt-upload</title>
<path fill="#91908d" d="M64.167 128.333c0 6.443 5.223 11.667 11.667 11.667s11.667-5.223 11.667-11.667v0-65.217l15.050 15.167c2.114 2.131 5.045 3.451 8.283 3.451s6.169-1.32 8.283-3.45l0.001-0.001c2.131-2.114 3.451-5.045 3.451-8.283s-1.32-6.169-3.45-8.283l-35.001-35.001c-1.077-1.032-2.356-1.862-3.771-2.422l-0.079-0.028c-1.311-0.553-2.834-0.875-4.433-0.875s-3.123 0.322-4.51 0.904l0.077-0.029c-1.494 0.588-2.773 1.418-3.854 2.454l0.004-0.004-35 35c-2.12 2.12-3.431 5.048-3.431 8.283 0 6.47 5.245 11.714 11.714 11.714 3.235 0 6.164-1.311 8.283-3.431v0l15.050-15.167zM215.833 70h-58.333c-6.443 0-11.667 5.223-11.667 11.667s5.223 11.667 11.667 11.667v0h58.333c6.443 0 11.667 5.223 11.667 11.667v0 113.4l-18.317-16.917c-2.071-1.943-4.861-3.139-7.931-3.15h-102.085c-6.443 0-11.667-5.223-11.667-11.667v0-11.667c0-6.443-5.223-11.667-11.667-11.667s-11.667 5.223-11.667 11.667v0 11.667c0 19.33 15.67 35 35 35v0h97.533l35 31.85c2.071 1.943 4.861 3.139 7.931 3.15h0.002c1.686-0.019 3.287-0.36 4.752-0.964l-0.085 0.031c4.155-1.847 7-5.937 7-10.693 0-0.014 0-0.028 0-0.043v0.002-140c0-0.001 0-0.002 0-0.003 0-19.33-15.67-35-35-35-0.164 0-0.328 0.001-0.491 0.003l0.025-0z"></path>
</svg>
