<!-- Generated by IcoMoon.io -->
<svg version="1.1" xmlns="http://www.w3.org/2000/svg" width="280" height="280" viewBox="0 0 280 280">
<title>ul-clinic-medical</title>
<path fill="#91908d" d="M128.333 140v11.667h-11.667c-6.443 0-11.667 5.223-11.667 11.667s5.223 11.667 11.667 11.667v0h11.667v11.667c0 6.443 5.223 11.667 11.667 11.667s11.667-5.223 11.667-11.667v0-11.667h11.667c6.443 0 11.667-5.223 11.667-11.667s-5.223-11.667-11.667-11.667v0h-11.667v-11.667c0-6.443-5.223-11.667-11.667-11.667s-11.667 5.223-11.667 11.667v0zM252.747 119.612l-105-93.333c-2.049-1.83-4.768-2.948-7.747-2.948s-5.698 1.118-7.759 2.958l0.011-0.010-105 93.333c-2.409 2.147-3.918 5.258-3.918 8.722 0 6.443 5.223 11.666 11.666 11.666 2.979 0 5.697-1.117 7.759-2.954l-0.011 0.010 3.919-3.483v111.428c0 0.001 0 0.002 0 0.003 0 6.442 5.222 11.664 11.664 11.664 0.001 0 0.002 0 0.003 0h163.333c0.001 0 0.002 0 0.003 0 6.442 0 11.664-5.222 11.664-11.664 0-0.001 0-0.002 0-0.003v0-111.428l3.919 3.484c2.050 1.827 4.768 2.944 7.747 2.944 6.443 0 11.666-5.223 11.666-11.666 0-3.464-1.51-6.575-3.907-8.711l-0.011-0.010zM210 233.333h-140v-120.503l70-62.222 70 62.222z"></path>
</svg>
