<!-- Generated by IcoMoon.io -->
<svg version="1.1" xmlns="http://www.w3.org/2000/svg" width="280" height="280" viewBox="0 0 280 280">
<title>ul-comment-alt-shield</title>
<path fill="#91908d" d="M76.65 140c2.544-0.017 4.892-0.846 6.8-2.24l-0.033 0.023 18.9-13.533c13.372-9.631 22.041-25.070 22.283-42.545l0.001-0.038v-39.317c-0.025-3.619-1.693-6.843-4.296-8.967l-0.021-0.017c-1.986-1.617-4.548-2.596-7.337-2.596-0.872 0-1.722 0.096-2.54 0.277l0.078-0.014c-2.137 0.464-4.592 0.73-7.109 0.73-7.517 0-14.481-2.37-20.184-6.403l0.11 0.074c-1.856-1.302-4.162-2.081-6.65-2.081s-4.794 0.779-6.687 2.106l0.037-0.025c-5.594 3.96-12.558 6.33-20.075 6.33-2.517 0-4.972-0.266-7.338-0.771l0.229 0.041c-0.702-0.15-1.509-0.236-2.336-0.236-6.443 0-11.667 5.223-11.667 11.667 0 0.083 0.001 0.166 0.002 0.249l-0-0.012v38.967c0 0.005 0 0.010 0 0.016 0 17.714 8.676 33.401 22.011 43.044l0.155 0.107 19.017 12.95c1.816 1.384 4.116 2.217 6.611 2.217 0.014 0 0.027 0 0.041 0h-0.002zM52.033 81.667v-26.6c9.042-0.392 17.456-2.719 24.955-6.575l-0.338 0.158c7.159 3.711 15.575 6.041 24.496 6.413l0.12 0.004v26.6c-0.339 9.606-5.146 18.022-12.396 23.273l-0.087 0.060-11.667 8.633-12.6-8.633c-7.337-5.312-12.144-13.728-12.482-23.282l-0.001-0.052zM216.3 70h-58.333c-6.443 0-11.667 5.223-11.667 11.667s5.223 11.667 11.667 11.667v0h58.333c6.443 0 11.667 5.223 11.667 11.667v0 113.4l-17.967-16.917c-1.978-1.949-4.696-3.152-7.695-3.152-0.084 0-0.168 0.001-0.251 0.003l0.012-0h-102.433c-6.443 0-11.667-5.223-11.667-11.667v0-11.667c0-6.443-5.223-11.667-11.667-11.667s-11.667 5.223-11.667 11.667v0 11.667c0 19.33 15.67 35 35 35v0h97.533l35 31.85c2.043 1.917 4.787 3.108 7.808 3.15h0.008c1.726-0.018 3.367-0.359 4.873-0.966l-0.090 0.032c4.092-1.872 6.884-5.931 6.884-10.641 0-0.033 0-0.065-0-0.097v0.005-140c0-0.001 0-0.001 0-0.002 0-19.33-15.67-35-35-35-0.123 0-0.246 0.001-0.369 0.002l0.019-0z"></path>
</svg>
