<!-- Generated by IcoMoon.io -->
<svg version="1.1" xmlns="http://www.w3.org/2000/svg" width="280" height="280" viewBox="0 0 280 280">
<title>ul-camera-change</title>
<path fill="#91908d" d="M143.383 60.783l17.5 17.5c2.114 2.131 5.045 3.451 8.283 3.451s6.169-1.32 8.283-3.45l0.001-0.001c1.993-2.089 3.22-4.925 3.22-8.047 0-2.244-0.634-4.341-1.732-6.12l0.029 0.050h42.7c6.443 0 11.667-5.223 11.667-11.667s-5.223-11.667-11.667-11.667v0h-42.7c1.069-1.729 1.703-3.825 1.703-6.069 0-3.122-1.227-5.958-3.224-8.052l0.004 0.005c-2.114-2.131-5.045-3.451-8.283-3.451s-6.169 1.32-8.283 3.45l-17.501 17.501c-1.032 1.077-1.862 2.356-2.422 3.771l-0.028 0.079c-0.553 1.311-0.875 2.834-0.875 4.433s0.322 3.123 0.904 4.51l-0.029-0.077c0.588 1.494 1.418 2.773 2.454 3.854l-0.004-0.004zM267.4 106.4c-0.588-1.494-1.418-2.773-2.454-3.854l0.004 0.004-17.5-17.5c-2.114-2.131-5.045-3.451-8.283-3.451s-6.169 1.32-8.283 3.45l-0.001 0.001c-1.993 2.089-3.22 4.925-3.22 8.047 0 2.244 0.634 4.341 1.732 6.12l-0.029-0.050h-42.7c-6.443 0-11.667 5.223-11.667 11.667s5.223 11.667 11.667 11.667v0h42.7c-1.069 1.729-1.703 3.825-1.703 6.069 0 3.122 1.227 5.958 3.224 8.052l-0.004-0.005c2.114 2.131 5.045 3.451 8.283 3.451s6.169-1.32 8.283-3.45l17.501-17.501c1.032-1.077 1.862-2.356 2.422-3.771l0.028-0.079c0.553-1.311 0.875-2.834 0.875-4.433s-0.322-3.123-0.904-4.51l0.029 0.077zM128.333 116.667c-25.773 0-46.667 20.893-46.667 46.667s20.893 46.667 46.667 46.667c25.773 0 46.667-20.893 46.667-46.667v0c0-25.773-20.893-46.667-46.667-46.667v0zM128.333 186.667c-12.887 0-23.333-10.447-23.333-23.333s10.447-23.333 23.333-23.333c12.887 0 23.333 10.447 23.333 23.333v0c0 12.887-10.447 23.333-23.333 23.333v0zM233.333 151.667c-6.443 0-11.667 5.223-11.667 11.667v0 58.333c0 6.443-5.223 11.667-11.667 11.667v0h-163.333c-6.443 0-11.667-5.223-11.667-11.667v0-93.333c0-6.443 5.223-11.667 11.667-11.667v0h23.333c0.17 0.009 0.37 0.014 0.57 0.014 5.156 0 9.53-3.344 11.073-7.982l0.024-0.082 6.3-18.9c1.503-4.532 5.589-7.791 10.471-8.049l0.029-0.001h18.2c6.443 0 11.667-5.223 11.667-11.667s-5.223-11.667-11.667-11.667v0h-18.2c-0.004 0-0.008 0-0.013 0-15.408 0-28.491 9.956-33.165 23.787l-0.072 0.247-3.617 10.967h-14.933c-19.33 0-35 15.67-35 35v0 93.333c0 19.33 15.67 35 35 35v0h163.333c19.33 0 35-15.67 35-35v0-58.333c0-6.443-5.223-11.667-11.667-11.667v0z"></path>
</svg>
