<!-- Generated by IcoMoon.io -->
<svg version="1.1" xmlns="http://www.w3.org/2000/svg" width="280" height="280" viewBox="0 0 280 280">
<title>ul-clock-two</title>
<path fill="#91908d" d="M140 23.333c-64.433 0-116.667 52.233-116.667 116.667s52.233 116.667 116.667 116.667c64.433 0 116.667-52.233 116.667-116.667v0c-0.074-64.404-52.263-116.593-116.66-116.667h-0.007zM140 233.333c-51.547 0-93.333-41.787-93.333-93.333s41.787-93.333 93.333-93.333c51.547 0 93.333 41.787 93.333 93.333v0c-0.061 51.522-41.811 93.273-93.327 93.333h-0.006zM164.478 112.394l-12.812 7.4v-38.128c0-6.443-5.223-11.667-11.667-11.667s-11.667 5.223-11.667 11.667v0 58.333c0.002 6.444 5.226 11.667 11.669 11.667 2.146 0 4.158-0.58 5.885-1.591l-0.055 0.030 30.312-17.5c3.516-2.054 5.84-5.81 5.84-10.109 0-6.444-5.224-11.668-11.668-11.668-2.15 0-4.164 0.581-5.893 1.596l0.055-0.030z"></path>
</svg>
