<!-- Generated by IcoMoon.io -->
<svg version="1.1" xmlns="http://www.w3.org/2000/svg" width="280" height="280" viewBox="0 0 280 280">
<title>ul-comment-alt-question</title>
<path fill="#91908d" d="M73.383 120.167c-2.101 2.11-3.399 5.019-3.399 8.232 0 6.443 5.223 11.667 11.667 11.667 1.605 0 3.134-0.324 4.526-0.91l-0.077 0.029c1.483-0.672 2.755-1.533 3.857-2.573l-0.007 0.006c1.021-1.045 1.848-2.284 2.422-3.656l0.028-0.077c0.593-1.234 0.939-2.683 0.939-4.212 0-0.119-0.002-0.237-0.006-0.355l0.001 0.017c-0.014-3.187-1.303-6.070-3.384-8.167l0.001 0.001c-2.114-2.131-5.045-3.451-8.283-3.451s-6.169 1.32-8.283 3.45l-0.001 0.001zM81.667 58.333c6.443 0 11.667 5.223 11.667 11.667s-5.223 11.667-11.667 11.667v0c-6.443 0-11.667 5.223-11.667 11.667s5.223 11.667 11.667 11.667v0c19.32-0.013 34.978-15.678 34.978-35 0-19.33-15.67-35-35-35-12.887 0-24.147 6.964-30.221 17.335l-0.089 0.165c-0.988 1.677-1.572 3.694-1.572 5.848 0 4.318 2.346 8.088 5.832 10.105l0.056 0.030c1.656 0.957 3.642 1.521 5.761 1.521 4.297 0 8.052-2.323 10.076-5.783l0.030-0.055c2.055-3.512 5.808-5.834 10.104-5.834 0.016 0 0.033 0 0.049 0h-0.002zM221.667 70h-70c-6.443 0-11.667 5.223-11.667 11.667s5.223 11.667 11.667 11.667v0h70c6.443 0 11.667 5.223 11.667 11.667v0 113.4l-18.317-16.917c-2.071-1.943-4.861-3.139-7.931-3.15h-102.085c-6.443 0-11.667-5.223-11.667-11.667v0-11.667c0-6.443-5.223-11.667-11.667-11.667s-11.667 5.223-11.667 11.667v0 11.667c0 19.33 15.67 35 35 35v0h97.533l35 31.85c1.959 1.842 4.564 3.017 7.441 3.149l0.026 0.001c1.686-0.019 3.287-0.36 4.752-0.964l-0.085 0.031c4.155-1.847 7-5.937 7-10.693 0-0.014 0-0.028 0-0.043v0.002-140c0-19.33-15.67-35-35-35v0z"></path>
</svg>
