<!-- Generated by IcoMoon.io -->
<svg version="1.1" xmlns="http://www.w3.org/2000/svg" width="280" height="280" viewBox="0 0 280 280">
<title>ul-dice-five</title>
<path fill="#91908d" d="M198.333 23.333h-116.667c-32.217 0-58.333 26.117-58.333 58.333v0 116.667c0 32.217 26.117 58.333 58.333 58.333v0h116.667c32.217 0 58.333-26.117 58.333-58.333v0-116.667c0-32.217-26.117-58.333-58.333-58.333v0zM233.333 198.333c0 19.33-15.67 35-35 35v0h-116.667c-19.33 0-35-15.67-35-35v0-116.667c0-19.33 15.67-35 35-35v0h116.667c19.33 0 35 15.67 35 35v0zM93.333 175c-6.443 0-11.667 5.223-11.667 11.667s5.223 11.667 11.667 11.667c6.443 0 11.667-5.223 11.667-11.667v0c0-6.443-5.223-11.667-11.667-11.667v0zM140 128.333c-6.443 0-11.667 5.223-11.667 11.667s5.223 11.667 11.667 11.667c6.443 0 11.667-5.223 11.667-11.667v0c0-6.443-5.223-11.667-11.667-11.667v0zM93.333 81.667c-6.443 0-11.667 5.223-11.667 11.667s5.223 11.667 11.667 11.667c6.443 0 11.667-5.223 11.667-11.667v0c0-6.443-5.223-11.667-11.667-11.667v0zM186.667 175c-6.443 0-11.667 5.223-11.667 11.667s5.223 11.667 11.667 11.667c6.443 0 11.667-5.223 11.667-11.667v0c0-6.443-5.223-11.667-11.667-11.667v0zM186.667 81.667c-6.443 0-11.667 5.223-11.667 11.667s5.223 11.667 11.667 11.667c6.443 0 11.667-5.223 11.667-11.667v0c0-6.443-5.223-11.667-11.667-11.667v0z"></path>
</svg>
