<!-- Generated by IcoMoon.io -->
<svg version="1.1" xmlns="http://www.w3.org/2000/svg" width="280" height="280" viewBox="0 0 280 280">
<title>ul-dumbbell</title>
<path fill="#91908d" d="M203.933 76.417v0 0l-33.133-33.133c-2.114-2.131-5.045-3.451-8.283-3.451s-6.169 1.32-8.283 3.45l-0.001 0.001c-2.097 2.109-3.393 5.016-3.393 8.225s1.296 6.116 3.393 8.226l24.733 24.733-94.5 94.5-24.733-24.733c-2.109-2.097-5.016-3.393-8.225-3.393s-6.116 1.296-8.226 3.393l0.001-0.001c-2.131 2.114-3.451 5.045-3.451 8.283s1.32 6.169 3.45 8.283l65.568 65.568c2.108 2.149 5.038 3.486 8.281 3.5h0.003c0.020 0 0.044 0 0.068 0 6.443 0 11.667-5.223 11.667-11.667 0-3.239-1.32-6.169-3.451-8.283l-24.384-24.384 94.5-94.5 24.733 24.733c2.11 2.095 5.016 3.39 8.225 3.39 6.447 0 11.673-5.226 11.673-11.673 0-3.238-1.318-6.168-3.447-8.283l-0.001-0.001zM43.283 203.7c-2.12-2.12-5.048-3.431-8.283-3.431-6.47 0-11.714 5.245-11.714 11.714 0 3.235 1.311 6.164 3.431 8.283l33.017 33.017c2.108 2.091 5.011 3.384 8.216 3.384 0.024 0 0.047 0 0.071-0h-0.004c0.020 0 0.044 0 0.068 0 3.205 0 6.108-1.292 8.217-3.384l-0.001 0.001c2.131-2.114 3.451-5.045 3.451-8.283s-1.32-6.169-3.45-8.283l-0.001-0.001zM253.283 59.733l-33.017-33.017c-2.12-2.12-5.048-3.431-8.283-3.431-6.47 0-11.714 5.245-11.714 11.714 0 3.235 1.311 6.164 3.431 8.283l33.017 33.017c2.114 2.131 5.045 3.451 8.283 3.451s6.169-1.32 8.283-3.45l0.001-0.001c2.131-2.114 3.451-5.045 3.451-8.283s-1.32-6.169-3.45-8.283l-0.001-0.001z"></path>
</svg>
