<!-- Generated by IcoMoon.io -->
<svg version="1.1" xmlns="http://www.w3.org/2000/svg" width="280" height="280" viewBox="0 0 280 280">
<title>ul-dialpad</title>
<path fill="#91908d" d="M81.667 26.25h-46.667c-4.806 0.065-8.685 3.944-8.75 8.744v46.673c0.065 4.806 3.944 8.685 8.744 8.75h46.673c4.806-0.065 8.685-3.944 8.75-8.744v-46.673c-0.065-4.806-3.944-8.685-8.744-8.75h-0.006zM72.917 72.917h-29.167v-29.167h29.167zM245 26.25h-46.667c-4.806 0.065-8.685 3.944-8.75 8.744v46.673c0.065 4.806 3.944 8.685 8.744 8.75h46.673c4.806-0.065 8.685-3.944 8.75-8.744v-46.673c-0.065-4.806-3.944-8.685-8.744-8.75h-0.006zM236.25 72.917h-29.167v-29.167h29.167zM163.333 26.25h-46.667c-4.806 0.065-8.685 3.944-8.75 8.744v46.673c0.065 4.806 3.944 8.685 8.744 8.75h46.673c4.806-0.065 8.685-3.944 8.75-8.744v-46.673c-0.065-4.806-3.944-8.685-8.744-8.75h-0.006zM154.583 72.917h-29.167v-29.167h29.167zM81.667 107.917h-46.667c-4.806 0.065-8.685 3.944-8.75 8.744v46.673c0.065 4.806 3.944 8.685 8.744 8.75h46.673c4.806-0.065 8.685-3.944 8.75-8.744v-46.673c-0.065-4.806-3.944-8.685-8.744-8.75h-0.006zM72.917 154.583h-29.167v-29.167h29.167zM163.333 107.917h-46.667c-4.806 0.065-8.685 3.944-8.75 8.744v46.673c0.065 4.806 3.944 8.685 8.744 8.75h46.673c4.806-0.065 8.685-3.944 8.75-8.744v-46.673c-0.065-4.806-3.944-8.685-8.744-8.75h-0.006zM154.583 154.583h-29.167v-29.167h29.167zM245 107.917h-46.667c-4.806 0.065-8.685 3.944-8.75 8.744v46.673c0.065 4.806 3.944 8.685 8.744 8.75h46.673c4.806-0.065 8.685-3.944 8.75-8.744v-46.673c-0.065-4.806-3.944-8.685-8.744-8.75h-0.006zM236.25 154.583h-29.167v-29.167h29.167zM163.333 189.583h-46.667c-4.806 0.065-8.685 3.944-8.75 8.744v46.673c0.065 4.806 3.944 8.685 8.744 8.75h46.673c4.806-0.065 8.685-3.944 8.75-8.744v-46.673c-0.065-4.806-3.944-8.685-8.744-8.75h-0.006zM154.583 236.25h-29.167v-29.167h29.167z"></path>
</svg>
