<!-- Generated by IcoMoon.io -->
<svg version="1.1" xmlns="http://www.w3.org/2000/svg" width="280" height="280" viewBox="0 0 280 280">
<title>ul-envelopes</title>
<path fill="#91908d" d="M198.333 252.35h-140c-19.33 0-35-15.67-35-35v0-93.333c0-6.443-5.223-11.667-11.667-11.667s-11.667 5.223-11.667 11.667v0 93.333c0 32.217 26.117 58.333 58.333 58.333v0h140c6.443 0 11.667-5.223 11.667-11.667s-5.223-11.667-11.667-11.667v0zM245 42.35h-163.333c-19.33 0-35 15.67-35 35v0 116.667c0 19.33 15.67 35 35 35v0h163.333c19.33 0 35-15.67 35-35v0-116.667c0-19.33-15.67-35-35-35v0zM240.217 65.683l-68.6 68.6c-2.114 2.131-5.045 3.451-8.283 3.451s-6.169-1.32-8.283-3.45l-68.601-68.601zM256.667 194.017c0 6.443-5.223 11.667-11.667 11.667v0h-163.333c-6.443 0-11.667-5.223-11.667-11.667v0-112.35l68.6 68.6c6.332 6.325 15.076 10.236 24.733 10.236s18.401-3.911 24.734-10.236l68.6-68.6z"></path>
</svg>
