<!-- Generated by IcoMoon.io -->
<svg version="1.1" xmlns="http://www.w3.org/2000/svg" width="280" height="280" viewBox="0 0 280 280">
<title>ul-expand-arrows</title>
<path fill="#91908d" d="M245 93.333c6.443 0 11.667-5.223 11.667-11.667v0-46.667c-0.020-1.606-0.361-3.127-0.963-4.509l0.029 0.075c-1.209-2.86-3.44-5.091-6.223-6.271l-0.077-0.029c-1.306-0.572-2.827-0.913-4.426-0.933h-46.674c-6.443 0-11.667 5.223-11.667 11.667s5.223 11.667 11.667 11.667v0h18.55l-76.883 76.883-76.883-76.883h18.55c6.443 0 11.667-5.223 11.667-11.667s-5.223-11.667-11.667-11.667v0h-46.667c-1.606 0.020-3.127 0.361-4.509 0.962l0.075-0.029c-2.86 1.209-5.091 3.44-6.271 6.223l-0.029 0.077c-0.572 1.306-0.913 2.827-0.933 4.426v46.674c0 6.443 5.223 11.667 11.667 11.667s11.667-5.223 11.667-11.667v0-18.55l76.883 76.883-76.883 76.883v-18.55c0-6.443-5.223-11.667-11.667-11.667s-11.667 5.223-11.667 11.667v0 46.667c0.020 1.606 0.361 3.127 0.962 4.509l-0.029-0.075c1.209 2.86 3.44 5.091 6.223 6.271l0.077 0.029c1.306 0.572 2.827 0.913 4.426 0.933h46.674c6.443 0 11.667-5.223 11.667-11.667s-5.223-11.667-11.667-11.667v0h-18.55l76.883-76.883 76.883 76.883h-18.55c-6.443 0-11.667 5.223-11.667 11.667s5.223 11.667 11.667 11.667v0h46.667c1.606-0.020 3.127-0.361 4.509-0.962l-0.075 0.029c2.86-1.209 5.091-3.44 6.271-6.223l0.029-0.077c0.572-1.306 0.913-2.827 0.933-4.426v-46.674c0-6.443-5.223-11.667-11.667-11.667s-11.667 5.223-11.667 11.667v0 18.55l-76.883-76.883 76.883-76.883v18.55c0 6.443 5.223 11.667 11.667 11.667v0z"></path>
</svg>
