<!-- Generated by IcoMoon.io -->
<svg version="1.1" xmlns="http://www.w3.org/2000/svg" width="280" height="280" viewBox="0 0 280 280">
<title>ul-focus-target</title>
<path fill="#91908d" d="M35 105c6.443 0 11.667-5.223 11.667-11.667v0-35c0-6.443 5.223-11.667 11.667-11.667v0h35c6.443 0 11.667-5.223 11.667-11.667s-5.223-11.667-11.667-11.667v0h-35c-19.33 0-35 15.67-35 35v0 35c0 6.443 5.223 11.667 11.667 11.667v0zM93.333 233.333h-35c-6.443 0-11.667-5.223-11.667-11.667v0-35c0-6.443-5.223-11.667-11.667-11.667s-11.667 5.223-11.667 11.667v0 35c0 19.33 15.67 35 35 35v0h35c6.443 0 11.667-5.223 11.667-11.667s-5.223-11.667-11.667-11.667v0zM198.333 151.667c6.443 0 11.667-5.223 11.667-11.667s-5.223-11.667-11.667-11.667v0h-13.3c-4.373-16.364-17.003-28.993-33.040-33.292l-0.326-0.074v-13.3c0-6.443-5.223-11.667-11.667-11.667s-11.667 5.223-11.667 11.667v0 13.3c-16.364 4.373-28.993 17.003-33.292 33.040l-0.074 0.326h-13.3c-6.443 0-11.667 5.223-11.667 11.667s5.223 11.667 11.667 11.667v0h13.3c4.373 16.364 17.003 28.993 33.040 33.292l0.326 0.074v13.3c0 6.443 5.223 11.667 11.667 11.667s11.667-5.223 11.667-11.667v0-13.3c16.364-4.373 28.993-17.003 33.292-33.040l0.074-0.326zM140 163.333c-12.887 0-23.333-10.447-23.333-23.333s10.447-23.333 23.333-23.333c12.887 0 23.333 10.447 23.333 23.333v0c0 12.887-10.447 23.333-23.333 23.333v0zM245 175c-6.443 0-11.667 5.223-11.667 11.667v0 35c0 6.443-5.223 11.667-11.667 11.667v0h-35c-6.443 0-11.667 5.223-11.667 11.667s5.223 11.667 11.667 11.667v0h35c19.33 0 35-15.67 35-35v0-35c0-6.443-5.223-11.667-11.667-11.667v0zM221.667 23.333h-35c-6.443 0-11.667 5.223-11.667 11.667s5.223 11.667 11.667 11.667v0h35c6.443 0 11.667 5.223 11.667 11.667v0 35c0 6.443 5.223 11.667 11.667 11.667s11.667-5.223 11.667-11.667v0-35c0-19.33-15.67-35-35-35v0z"></path>
</svg>
