<!-- Generated by IcoMoon.io -->
<svg version="1.1" xmlns="http://www.w3.org/2000/svg" width="280" height="280" viewBox="0 0 280 280">
<title>ul-film</title>
<path fill="#91908d" d="M245 23.333c-6.443 0-11.667 5.223-11.667 11.667v0 23.333h-23.333v-23.333c0-6.443-5.223-11.667-11.667-11.667s-11.667 5.223-11.667 11.667v0 11.667h-93.333v-11.667c0-6.443-5.223-11.667-11.667-11.667s-11.667 5.223-11.667 11.667v0 23.333h-23.333v-23.333c0-6.443-5.223-11.667-11.667-11.667s-11.667 5.223-11.667 11.667v0 210c0 6.443 5.223 11.667 11.667 11.667s11.667-5.223 11.667-11.667v0-23.333h23.333v23.333c0 6.443 5.223 11.667 11.667 11.667s11.667-5.223 11.667-11.667v0-11.667h93.333v11.667c0 6.443 5.223 11.667 11.667 11.667s11.667-5.223 11.667-11.667v0-23.333h23.333v23.333c0 6.443 5.223 11.667 11.667 11.667s11.667-5.223 11.667-11.667v0-210c0-6.443-5.223-11.667-11.667-11.667v0zM70 198.333h-23.333v-23.333h23.333zM70 151.667h-23.333v-23.333h23.333zM70 105h-23.333v-23.333h23.333zM186.667 210h-93.333v-58.333h93.333zM186.667 128.333h-93.333v-58.333h93.333zM233.333 198.333h-23.333v-23.333h23.333zM233.333 151.667h-23.333v-23.333h23.333zM233.333 105h-23.333v-23.333h23.333z"></path>
</svg>
