<!-- Generated by IcoMoon.io -->
<svg version="1.1" xmlns="http://www.w3.org/2000/svg" width="280" height="280" viewBox="0 0 280 280">
<title>ul-file-graph</title>
<path fill="#91908d" d="M105 116.667h11.667c6.443 0 11.667-5.223 11.667-11.667s-5.223-11.667-11.667-11.667v0h-11.667c-6.443 0-11.667 5.223-11.667 11.667s5.223 11.667 11.667 11.667v0zM165.789 144.506l-19.522 25.105-10.128-9.114c-2.058-1.858-4.798-2.996-7.804-2.996-3.676 0-6.954 1.7-9.092 4.357l-0.017 0.023-23.333 29.167c-1.608 1.983-2.582 4.537-2.582 7.319 0 6.442 5.222 11.664 11.664 11.664 3.69 0 6.98-1.714 9.118-4.389l0.018-0.023 15.609-19.511 10.254 9.228c2.058 1.859 4.799 2.996 7.806 2.996 3.732 0 7.056-1.753 9.191-4.48l0.019-0.025 27.224-35c1.532-1.955 2.456-4.45 2.456-7.161 0-6.444-5.223-11.667-11.667-11.667-3.733 0-7.057 1.753-9.192 4.481l-0.019 0.025zM233.188 104.28c-0.164-2.93-1.375-5.549-3.263-7.514l0.004 0.004-0.017-0.022-70.014-70.010c-0.944-0.913-2.049-1.669-3.265-2.22l-0.073-0.030c-0.349-0.163-0.712-0.256-1.079-0.385-0.916-0.333-1.976-0.558-3.078-0.626l-0.033-0.002c-0.246-0.015-0.454-0.142-0.704-0.142h-70c-19.321 0.022-34.978 15.679-35 34.998v163.335c0.022 19.321 15.679 34.978 34.998 35h116.669c19.321-0.022 34.978-15.679 35-34.998v-116.669c0-0.256-0.128-0.468-0.145-0.72zM163.333 63.164l30.169 30.169h-18.503c-6.44-0.009-11.658-5.227-11.667-11.666v-0.001zM210 221.667c-0.009 6.44-5.227 11.658-11.666 11.667h-116.668c-6.44-0.009-11.658-5.227-11.667-11.666v-163.334c0.009-6.44 5.227-11.658 11.666-11.667h58.334v35c0.022 19.321 15.679 34.978 34.998 35h35.002z"></path>
</svg>
