<!-- Generated by IcoMoon.io -->
<svg version="1.1" xmlns="http://www.w3.org/2000/svg" width="280" height="280" viewBox="0 0 280 280">
<title>ul-folder-slash</title>
<path fill="#91908d" d="M253.283 236.717l-210-210c-2.12-2.12-5.048-3.431-8.283-3.431-6.47 0-11.714 5.245-11.714 11.714 0 3.235 1.311 6.164 3.431 8.283v0l16.333 16.217c-4.975 5.97-8.009 13.71-8.050 22.158v128.342c0 19.33 15.67 35 35 35v0h140c5.481-0.034 10.654-1.322 15.255-3.591l-0.205 0.091 11.667 11.667c2.114 2.131 5.045 3.451 8.283 3.451s6.169-1.32 8.283-3.45l0.001-0.001c2.097-2.109 3.393-5.016 3.393-8.225s-1.296-6.116-3.393-8.226l0.001 0.001zM70 221.667c-6.443 0-11.667-5.223-11.667-11.667v0-128.333c0.031-1.971 0.546-3.815 1.43-5.427l-0.030 0.061 145.483 145.367zM123.9 70c4.81 0.27 8.82 3.416 10.358 7.735l0.025 0.081 6.3 19.133c1.57 4.71 5.936 8.046 11.083 8.050h58.334c6.443 0 11.667 5.223 11.667 11.667v0 50.633c0 6.443 5.223 11.667 11.667 11.667s11.667-5.223 11.667-11.667v0-50.633c0-19.33-15.67-35-35-35v0h-49.933l-3.733-11.667c-4.741-13.187-16.816-22.589-31.182-23.33l-0.085-0.004c-0.174-0.009-0.378-0.014-0.583-0.014-6.451 0-11.681 5.23-11.681 11.681 0 6.246 4.902 11.347 11.070 11.665l0.028 0.001z"></path>
</svg>
