<!-- Generated by IcoMoon.io -->
<svg version="1.1" xmlns="http://www.w3.org/2000/svg" width="280" height="280" viewBox="0 0 280 280">
<title>ul-glass-martini-alt</title>
<path fill="#91908d" d="M254.1 42.233c1.574-1.971 2.526-4.499 2.526-7.25 0-1.817-0.415-3.537-1.156-5.070l0.030 0.070c-1.915-3.955-5.893-6.637-10.498-6.65h-210.002c-4.607 0.013-8.585 2.695-10.47 6.581l-0.030 0.069c-0.711 1.463-1.126 3.183-1.126 5 0 2.751 0.952 5.279 2.544 7.273l-0.018-0.024 102.433 128.1v63h-67.083c-6.443 0-11.667 5.223-11.667 11.667s5.223 11.667 11.667 11.667v0h157.5c6.443 0 11.667-5.223 11.667-11.667s-5.223-11.667-11.667-11.667v0h-67.083v-63zM59.267 46.667h161.467l-28 35h-105zM140 147.583l-34.067-42.583h68.133z"></path>
</svg>
