<!-- Generated by IcoMoon.io -->
<svg version="1.1" xmlns="http://www.w3.org/2000/svg" width="280" height="280" viewBox="0 0 280 280">
<title>ul-game-structure</title>
<path fill="#91908d" d="M245 210h-23.333v-35c0-6.443-5.223-11.667-11.667-11.667v0h-58.333v-31.617l13.183 6.883c1.569 0.837 3.431 1.329 5.408 1.329 6.443 0 11.667-5.223 11.667-11.667 0-0.675-0.057-1.337-0.168-1.981l0.010 0.069-4.667-27.65 20.067-19.717c2.17-2.121 3.516-5.077 3.516-8.347 0-1.183-0.176-2.326-0.504-3.402l0.022 0.083c-1.397-4.192-4.994-7.282-9.387-7.926l-0.063-0.008-27.417-4.317-12.833-25.2c-1.933-3.927-5.907-6.581-10.5-6.581s-8.567 2.654-10.47 6.513l-0.030 0.068-12.833 25.2-27.883 4.083c-4.456 0.651-8.053 3.742-9.426 7.851l-0.024 0.082c-0.306 0.994-0.482 2.136-0.482 3.32 0 3.27 1.346 6.226 3.513 8.345l0.002 0.002 20.533 19.95-4.667 27.65c-0.1 0.575-0.158 1.237-0.158 1.912 0 6.443 5.223 11.667 11.667 11.667 1.977 0 3.839-0.492 5.471-1.36l-0.063 0.031 13.183-6.883v31.617h-58.333c-6.443 0-11.667 5.223-11.667 11.667v0 35h-23.333c-6.443 0-11.667 5.223-11.667 11.667v0 23.333c0 6.443 5.223 11.667 11.667 11.667s11.667-5.223 11.667-11.667v0-11.667h46.667v11.667c0 6.443 5.223 11.667 11.667 11.667s11.667-5.223 11.667-11.667v0-23.333c0-6.443-5.223-11.667-11.667-11.667v0h-23.333v-23.333h116.667v23.333h-23.333c-6.443 0-11.667 5.223-11.667 11.667v0 23.333c0 6.443 5.223 11.667 11.667 11.667s11.667-5.223 11.667-11.667v0-11.667h46.667v11.667c0 6.443 5.223 11.667 11.667 11.667s11.667-5.223 11.667-11.667v0-23.333c0-6.443-5.223-11.667-11.667-11.667v0zM140 100.683c-2.011 0.010-3.898 0.528-5.544 1.43l0.061-0.030-9.333 4.9 1.75-10.5c0.099-0.57 0.155-1.227 0.155-1.897 0-3.282-1.355-6.247-3.536-8.367l-0.003-0.003-7.583-7.467 10.5-1.517c3.894-0.535 7.133-2.925 8.836-6.234l0.031-0.066 4.667-9.567 4.667 9.567c1.733 3.375 4.972 5.765 8.806 6.293l0.061 0.007 10.5 1.517-7.583 7.467c-2.184 2.122-3.539 5.088-3.539 8.369 0 0.67 0.057 1.327 0.165 1.966l-0.010-0.069 1.75 10.5-9.333-4.9c-1.585-0.872-3.473-1.39-5.48-1.4h-0.003z"></path>
</svg>
