<!-- Generated by IcoMoon.io -->
<svg version="1.1" xmlns="http://www.w3.org/2000/svg" width="280" height="280" viewBox="0 0 280 280">
<title>ul-gold</title>
<path fill="#91908d" d="M93.333 128.333h93.333c3.619-0.025 6.843-1.693 8.967-4.296l0.017-0.021c1.777-2.037 2.861-4.718 2.861-7.654 0-0.717-0.065-1.419-0.189-2.101l0.011 0.071-11.667-58.333c-1.122-5.365-5.813-9.336-11.431-9.336-0.083 0-0.165 0.001-0.247 0.002l0.012-0h-70c-0.070-0.002-0.153-0.002-0.235-0.002-5.618 0-10.309 3.971-11.418 9.26l-0.013 0.076-11.667 58.333c-0.14 0.678-0.22 1.457-0.22 2.256 0 2.831 1.008 5.427 2.686 7.447l-0.016-0.019c2.156 2.643 5.413 4.318 9.061 4.318 0.055 0 0.109-0 0.164-0.001h-0.008zM114.567 70h50.867l7 35h-64.867zM256.667 161c-1.122-5.365-5.813-9.336-11.431-9.336-0.083 0-0.165 0.001-0.247 0.002l0.012-0h-70c-0.070-0.002-0.153-0.002-0.235-0.002-5.618 0-10.309 3.971-11.418 9.26l-0.013 0.076-11.667 58.333c-0.14 0.678-0.22 1.457-0.22 2.256 0 2.831 1.008 5.427 2.686 7.447l-0.016-0.019c2.156 2.643 5.413 4.318 9.061 4.318 0.055 0 0.109-0 0.164-0.001h93.325c3.619-0.025 6.843-1.693 8.967-4.296l0.017-0.021c1.777-2.037 2.861-4.718 2.861-7.654 0-0.717-0.065-1.419-0.189-2.101l0.011 0.071zM177.567 210l7-35h50.867l7 35zM105 151.667h-70c-0.070-0.002-0.153-0.002-0.235-0.002-5.618 0-10.309 3.971-11.418 9.26l-0.013 0.076-11.667 58.333c-0.14 0.678-0.22 1.457-0.22 2.256 0 2.831 1.008 5.427 2.686 7.447l-0.016-0.019c2.156 2.643 5.413 4.318 9.061 4.318 0.055 0 0.109-0 0.164-0.001h93.325c3.619-0.025 6.843-1.693 8.967-4.296l0.017-0.021c1.777-2.037 2.861-4.718 2.861-7.654 0-0.717-0.065-1.419-0.189-2.101l0.011 0.071-11.667-58.333c-1.122-5.365-5.813-9.336-11.431-9.336-0.083 0-0.165 0.001-0.247 0.002l0.012-0zM37.567 210l7-35h50.867l7 35z"></path>
</svg>
