<!-- Generated by IcoMoon.io -->
<svg version="1.1" xmlns="http://www.w3.org/2000/svg" width="280" height="280" viewBox="0 0 280 280">
<title>ul-headphones</title>
<path fill="#91908d" d="M140 35c-64.433 0-116.667 52.233-116.667 116.667v0 81.667c0 6.443 5.223 11.667 11.667 11.667v0h35c19.33 0 35-15.67 35-35v0-23.333c0-19.33-15.67-35-35-35v0h-23.333c0-51.547 41.787-93.333 93.333-93.333s93.333 41.787 93.333 93.333v0h-23.333c-19.33 0-35 15.67-35 35v0 23.333c0 19.33 15.67 35 35 35v0h35c6.443 0 11.667-5.223 11.667-11.667v0-81.667c0-64.433-52.233-116.667-116.667-116.667v0zM70 175c6.443 0 11.667 5.223 11.667 11.667v0 23.333c0 6.443-5.223 11.667-11.667 11.667v0h-23.333v-46.667zM233.333 221.667h-23.333c-6.443 0-11.667-5.223-11.667-11.667v0-23.333c0-6.443 5.223-11.667 11.667-11.667v0h23.333z"></path>
</svg>
