<!-- Generated by IcoMoon.io -->
<svg version="1.1" xmlns="http://www.w3.org/2000/svg" width="280" height="280" viewBox="0 0 280 280">
<title>ul-heart-sign</title>
<path fill="#91908d" d="M235.2 58.333c-13.252-13.12-31.49-21.225-51.62-21.225-16.406 0-31.554 5.384-43.775 14.481l0.195-0.139c-12.029-9.027-27.209-14.456-43.656-14.456-40.4 0-73.15 32.75-73.15 73.15 0 20.29 8.261 38.65 21.602 51.902l0.004 0.004 70 70.583c6.332 6.325 15.076 10.236 24.733 10.236s18.401-3.911 24.734-10.236l-0 0 70-70.583c13.598-13.294 22.030-31.824 22.030-52.323 0-20.036-8.055-38.19-21.104-51.402l0.007 0.007zM218.75 145.367l-70 70c-2.114 2.131-5.045 3.451-8.283 3.451s-6.169-1.32-8.283-3.45l-70.001-70.001c-8.826-9.017-14.273-21.372-14.273-35s5.447-25.983 14.282-35.009l-0.009 0.009c8.992-8.881 21.355-14.367 35-14.367s26.008 5.486 35.005 14.372l-0.005-0.005c2.114 2.131 5.045 3.451 8.283 3.451s6.169-1.32 8.283-3.45l0.001-0.001c8.427-6.752 19.246-10.836 31.019-10.836 27.513 0 49.817 22.304 49.817 49.817 0 11.773-4.084 22.592-10.912 31.117l0.076-0.099z"></path>
</svg>
