<!-- Generated by IcoMoon.io -->
<svg version="1.1" xmlns="http://www.w3.org/2000/svg" width="280" height="280" viewBox="0 0 280 280">
<title>ul-image-lock</title>
<path fill="#91908d" d="M233.333 60.433v-13.767c0-19.33-15.67-35-35-35s-35 15.67-35 35v0 13.767c-13.68 4.939-23.289 17.791-23.333 32.895v23.339c0 19.33 15.67 35 35 35v0h46.667c19.33 0 35-15.67 35-35v0-23.333c-0.044-15.109-9.654-27.961-23.090-32.823l-0.244-0.077zM186.667 46.667c0-6.443 5.223-11.667 11.667-11.667s11.667 5.223 11.667 11.667v0 11.667h-23.333zM233.333 116.667c0 6.443-5.223 11.667-11.667 11.667v0h-46.667c-6.443 0-11.667-5.223-11.667-11.667v0-23.333c0-6.443 5.223-11.667 11.667-11.667v0h46.667c6.443 0 11.667 5.223 11.667 11.667v0zM221.667 175c-6.443 0-11.667 5.223-11.667 11.667v0 35c-0.018 2.335-0.804 4.484-2.119 6.209l0.019-0.025-98.117-98.117c-5.964-5.649-14.039-9.122-22.925-9.122s-16.961 3.473-22.94 9.137l0.015-0.014-17.267 17.267v-65.333c0-6.443 5.223-11.667 11.667-11.667v0h58.333c6.443 0 11.667-5.223 11.667-11.667s-5.223-11.667-11.667-11.667v0h-58.333c-19.33 0-35 15.67-35 35v0 140c0 19.33 15.67 35 35 35v0h140c19.33 0 35-15.67 35-35v0-35c0-6.443-5.223-11.667-11.667-11.667v0zM58.333 233.333c-6.443 0-11.667-5.223-11.667-11.667v0-41.65l33.833-33.833c1.65-1.575 3.891-2.544 6.358-2.544s4.708 0.969 6.362 2.548l87.146 87.146z"></path>
</svg>
