<!-- Generated by IcoMoon.io -->
<svg version="1.1" xmlns="http://www.w3.org/2000/svg" width="280" height="280" viewBox="0 0 280 280">
<title>ul-laptop-connection</title>
<path fill="#91908d" d="M245 210h-72.1c-3.608-9.934-11.299-17.625-20.99-21.156l-0.243-0.077v-37.1h81.667c6.443 0 11.667-5.223 11.667-11.667s-5.223-11.667-11.667-11.667v0h-11.667v-70c0-19.33-15.67-35-35-35v0h-93.333c-19.33 0-35 15.67-35 35v0 70h-11.667c-6.443 0-11.667 5.223-11.667 11.667s5.223 11.667 11.667 11.667v0h81.667v37.1c-9.934 3.608-17.625 11.299-21.156 20.99l-0.077 0.243h-72.1c-6.443 0-11.667 5.223-11.667 11.667s5.223 11.667 11.667 11.667v0h72.1c5.026 13.566 17.854 23.059 32.9 23.059s27.874-9.493 32.821-22.817l0.079-0.242h72.1c6.443 0 11.667-5.223 11.667-11.667s-5.223-11.667-11.667-11.667v0zM81.667 128.333v-70c0-6.443 5.223-11.667 11.667-11.667v0h93.333c6.443 0 11.667 5.223 11.667 11.667v0 70zM140 233.333c-6.443 0-11.667-5.223-11.667-11.667s5.223-11.667 11.667-11.667c6.443 0 11.667 5.223 11.667 11.667v0c0 6.443-5.223 11.667-11.667 11.667v0z"></path>
</svg>
