<!-- Generated by IcoMoon.io -->
<svg version="1.1" xmlns="http://www.w3.org/2000/svg" width="280" height="280" viewBox="0 0 280 280">
<title>ul-medical-drip</title>
<path fill="#91908d" d="M198.333 70h-23.333v-23.333h23.333c6.443 0 11.667-5.223 11.667-11.667s-5.223-11.667-11.667-11.667v0h-93.333c-32.217 0-58.333 26.117-58.333 58.333v0 163.333c0 6.443 5.223 11.667 11.667 11.667s11.667-5.223 11.667-11.667v0-163.333c0-19.33 15.67-35 35-35v0h46.667v23.333h-23.333c-19.33 0-35 15.67-35 35v0 57.517c0 0.004 0 0.008 0 0.013 0 12.114 6.155 22.791 15.508 29.074l0.126 0.080 19.367 12.95v5.367c0 12.887 10.447 23.333 23.333 23.333v0 11.667c0 6.443 5.223 11.667 11.667 11.667s11.667-5.223 11.667-11.667v0-11.667c12.887 0 23.333-10.447 23.333-23.333v0-5.367l19.367-12.95c9.479-6.363 15.633-17.039 15.633-29.154 0-0.005 0-0.009 0-0.014v0.001-57.517c0-19.33-15.67-35-35-35v0zM186.667 128.333h23.333v11.667h-11.667c-6.443 0-11.667 5.223-11.667 11.667s5.223 11.667 11.667 11.667v0h11.667c-0.268 3.7-2.223 6.893-5.093 8.841l-0.041 0.026-24.5 16.45c-3.211 2.083-5.318 5.632-5.366 9.676v11.674h-23.333v-11.667c-0.022-4.032-2.085-7.577-5.207-9.656l-0.043-0.027-24.5-16.45c-3.165-2.107-5.228-5.652-5.25-9.68v-57.52c0-6.443 5.223-11.667 11.667-11.667v0h70c6.443 0 11.667 5.223 11.667 11.667v0h-23.333c-6.443 0-11.667 5.223-11.667 11.667s5.223 11.667 11.667 11.667v0z"></path>
</svg>
