<!-- Generated by IcoMoon.io -->
<svg version="1.1" xmlns="http://www.w3.org/2000/svg" width="280" height="280" viewBox="0 0 280 280">
<title>ul-missed-call</title>
<path fill="#91908d" d="M70 87.383c6.443 0 11.667-5.223 11.667-11.667v0-6.883l33.6 33.6c6.332 6.325 15.076 10.236 24.733 10.236s18.401-3.911 24.734-10.236l53.55-53.55c2.097-2.109 3.393-5.016 3.393-8.225s-1.296-6.116-3.393-8.226l0.001 0.001c-2.114-2.131-5.045-3.451-8.283-3.451s-6.169 1.32-8.283 3.45l-53.434 53.434c-2.114 2.131-5.045 3.451-8.283 3.451s-6.169-1.32-8.283-3.45l-0.001-0.001-33.6-33.483h6.883c6.443 0 11.667-5.223 11.667-11.667s-5.223-11.667-11.667-11.667v0h-35c-4.796 0.004-8.915 2.901-10.704 7.041l-0.029 0.076c-0.562 1.344-0.902 2.903-0.933 4.538l-0 0.012v35c0 6.443 5.223 11.667 11.667 11.667v0zM255.967 173.25c-31.714-24.665-72.103-39.543-115.967-39.543s-84.253 14.878-116.395 39.864l0.429-0.32c-6.874 5.574-11.326 13.902-11.665 23.278l-0.002 0.056c-0.046 0.635-0.073 1.376-0.073 2.123 0 8.611 3.507 16.403 9.171 22.025l0.002 0.002 20.533 21c5.658 5.656 13.473 9.154 22.105 9.154 6.857 0 13.198-2.207 18.352-5.95l-0.090 0.062 5.483-3.733c3.287-2.161 7.112-4.3 11.088-6.172l0.579-0.245c7.64-3.435 12.864-10.979 12.864-19.744 0-2.54-0.439-4.977-1.244-7.24l0.047 0.151-1.050-2.8c9.139-2.445 19.63-3.849 30.45-3.849s21.311 1.404 31.303 4.040l-0.853-0.191-1.050 2.8c-0.759 2.112-1.198 4.55-1.198 7.089 0 8.764 5.224 16.309 12.728 19.689l0.136 0.055c4.555 2.116 8.38 4.256 12.030 6.64l-0.364-0.223 5.483 3.733c4.92 3.644 11.109 5.834 17.809 5.834 0.056 0 0.111-0 0.166-0.001h-0.008c0.012 0 0.025 0 0.039 0 8.724 0 16.626-3.521 22.363-9.218l-0.002 0.002 21.117-21.233c5.081-5.509 8.197-12.898 8.197-21.014 0-1.063-0.054-2.114-0.158-3.15l0.011 0.13c-0.593-9.446-5.28-17.689-12.291-23.044l-0.076-0.056zM242.667 204.050l-21 21.117c-1.446 1.505-3.475 2.44-5.723 2.44-1.602 0-3.093-0.475-4.34-1.291l0.030 0.019c-2.217-1.633-4.433-3.15-6.883-4.667-3.475-2.247-7.638-4.614-11.931-6.761l-0.786-0.356 4.667-12.717c0.44-1.179 0.694-2.542 0.694-3.964 0-5.018-3.168-9.296-7.613-10.943l-0.081-0.026c-14.747-5.54-31.79-8.748-49.583-8.748s-34.836 3.207-50.585 9.074l1.001-0.327c-4.526 1.673-7.694 5.951-7.694 10.969 0 1.422 0.254 2.785 0.72 4.045l-0.026-0.081 4.667 12.833c-5.052 2.362-9.259 4.695-13.292 7.275l0.459-0.275-6.767 4.667c-1.245 0.903-2.804 1.444-4.489 1.444-2.297 0-4.36-1.006-5.771-2.602l-0.007-0.008-21-21.117c-1.442-1.419-2.335-3.391-2.335-5.572 0-0.051 0.001-0.101 0.001-0.152v0.008c0.208-2.506 1.431-4.692 3.25-6.17l0.016-0.013c27.832-21.606 63.261-34.638 101.733-34.638s73.901 13.031 102.113 34.921l-0.379-0.283c1.836 1.491 3.058 3.677 3.265 6.151l0.002 0.032c0.001 0.043 0.001 0.094 0.001 0.145 0 2.181-0.893 4.153-2.334 5.571l-0.001 0.001z"></path>
</svg>
