<!-- Generated by IcoMoon.io -->
<svg version="1.1" xmlns="http://www.w3.org/2000/svg" width="280" height="280" viewBox="0 0 280 280">
<title>ul-mobile-android-alt</title>
<path fill="#91908d" d="M186.667 23.333h-93.333c-19.33 0-35 15.67-35 35v0 163.333c0 19.33 15.67 35 35 35v0h93.333c19.33 0 35-15.67 35-35v0-163.333c0-19.33-15.67-35-35-35v0zM198.333 221.667c0 6.443-5.223 11.667-11.667 11.667v0h-93.333c-6.443 0-11.667-5.223-11.667-11.667v0-11.667h116.667zM198.333 186.667h-116.667v-128.333c0-6.443 5.223-11.667 11.667-11.667v0h93.333c6.443 0 11.667 5.223 11.667 11.667v0z"></path>
</svg>
