<!-- Generated by IcoMoon.io -->
<svg version="1.1" xmlns="http://www.w3.org/2000/svg" width="280" height="280" viewBox="0 0 280 280">
<title>ul-map-marker-question</title>
<path fill="#91908d" d="M145.133 152.95l-1.983-1.283c-1.313-0.555-2.838-0.878-4.44-0.878-3.235 0-6.163 1.317-8.276 3.444l-0.001 0.001c-1.102 1.016-1.974 2.262-2.542 3.665l-0.024 0.068c-0.587 1.342-0.93 2.906-0.933 4.549v0.001c0.020 1.606 0.361 3.127 0.962 4.509l-0.029-0.075c1.279 2.814 3.486 5.021 6.222 6.268l0.078 0.032c1.306 0.572 2.827 0.913 4.426 0.933h0.007c1.647-0.032 3.206-0.372 4.634-0.964l-0.084 0.031c1.454-0.636 2.693-1.501 3.731-2.564l0.002-0.002c2.097-2.109 3.393-5.016 3.393-8.225s-1.296-6.116-3.393-8.226l0.001 0.001zM138.6 70c-0.107-0.001-0.234-0.002-0.361-0.002-11.551 0-21.677 6.104-27.326 15.264l-0.079 0.138c-1.142 1.772-1.821 3.936-1.821 6.259 0 6.443 5.223 11.667 11.667 11.667 4.466 0 8.346-2.51 10.307-6.196l0.031-0.063c1.651-2.275 4.301-3.738 7.293-3.738 0.102 0 0.204 0.002 0.305 0.005l-0.015-0c4.832 0 8.75 3.918 8.75 8.75s-3.918 8.75-8.75 8.75v0c-6.443 0-11.667 5.223-11.667 11.667s5.223 11.667 11.667 11.667v0c17.719 0 32.083-14.364 32.083-32.083s-14.364-32.083-32.083-32.083v0zM238.7 112.933c-4.732-50.786-47.141-90.231-98.763-90.231-20.401 0-39.364 6.161-55.128 16.723l0.358-0.226c-24.225 16.364-40.743 42.556-43.831 72.725l-0.035 0.425c-0.3 2.888-0.471 6.239-0.471 9.63 0 27.386 11.153 52.166 29.165 70.047l0.006 0.006 61.833 61.95c2.114 2.131 5.045 3.451 8.283 3.451s6.169-1.32 8.283-3.45l0.001-0.001 61.6-61.95c18.018-17.887 29.171-42.667 29.171-70.053 0-3.391-0.171-6.743-0.505-10.046l0.034 0.416zM193.667 175.583l-53.667 53.667-53.667-53.667c-13.701-13.702-22.176-32.63-22.176-53.538 0-2.592 0.13-5.154 0.385-7.68l-0.026 0.318c2.347-23.568 15.057-43.757 33.445-56.177l0.272-0.173c11.744-7.899 26.205-12.608 41.767-12.608s30.023 4.709 42.038 12.78l-0.271-0.171c18.606 12.546 31.299 32.639 33.689 55.789l0.027 0.328c0.242 2.271 0.38 4.907 0.38 7.574 0 20.918-8.483 39.855-22.196 53.559l-0.001 0.001z"></path>
</svg>
