<!-- Generated by IcoMoon.io -->
<svg version="1.1" xmlns="http://www.w3.org/2000/svg" width="280" height="280" viewBox="0 0 280 280">
<title>ul-outgoing-call</title>
<path fill="#91908d" d="M226.8 151.667c-2.567 0-5.25-0.817-7.817-1.4-5.989-1.33-11.098-2.895-16.035-4.806l0.752 0.256c-2.373-0.891-5.115-1.406-7.977-1.406-9.151 0-17.072 5.268-20.895 12.937l-0.061 0.135-2.567 5.25c-11.838-6.655-22.036-14.399-31.041-23.341l0.008 0.008c-8.934-8.998-16.678-19.195-22.965-30.324l-0.368-0.709 4.9-3.267c7.804-3.884 13.072-11.805 13.072-20.956 0-2.862-0.515-5.605-1.459-8.138l0.053 0.161c-1.605-4.123-3.168-9.23-4.39-14.469l-0.16-0.814c-0.583-2.567-1.050-5.25-1.4-7.933-2.941-16.605-17.262-29.054-34.491-29.054-0.179 0-0.357 0.001-0.536 0.004l0.027-0h-35c-0.098-0.001-0.213-0.002-0.329-0.002-19.33 0-35 15.67-35 35 0 1.688 0.119 3.347 0.35 4.971l-0.022-0.186c13.151 100.556 92.086 179.252 191.635 191.919l1.098 0.114h4.433c0.015 0 0.033 0 0.051 0 8.956 0 17.126-3.364 23.316-8.897l-0.034 0.030c7.174-6.437 11.667-15.738 11.667-26.088 0-0.057 0-0.114-0-0.171v0.009-35c-0.307-16.889-12.53-30.834-28.601-33.8l-0.215-0.033zM232.633 221.667c-0.005 3.481-1.533 6.604-3.954 8.739l-0.013 0.011c-2.154 1.868-4.985 3.006-8.082 3.006-0.523 0-1.039-0.033-1.545-0.096l0.060 0.006c-89.882-11.852-160.195-82.444-171.515-171.451l-0.102-0.982c-0.047-0.412-0.074-0.89-0.074-1.373 0-3.13 1.131-5.996 3.006-8.212l-0.015 0.019c2.146-2.434 5.269-3.962 8.749-3.967h35.001c0.077-0.002 0.168-0.003 0.259-0.003 5.576 0 10.239 3.912 11.393 9.142l0.014 0.077q0.7 4.783 1.75 9.45c1.564 7.082 3.411 13.128 5.668 18.969l-0.301-0.886-16.333 7.583c-4.047 1.889-6.801 5.925-6.801 10.604 0 1.783 0.4 3.472 1.115 4.984l-0.030-0.071c17.13 36.11 45.557 64.536 80.644 81.229l1.023 0.438c1.311 0.553 2.834 0.875 4.433 0.875s3.123-0.322 4.51-0.904l-0.077 0.029c2.965-1.081 5.315-3.242 6.62-5.996l0.030-0.071 7.233-16.333c4.885 1.839 11.048 3.683 17.354 5.155l1.079 0.212q4.667 1.050 9.45 1.75c5.307 1.168 9.219 5.831 9.219 11.407 0 0.091-0.001 0.182-0.003 0.273l0-0.013zM255.033 31.267c-1.209-2.86-3.44-5.091-6.223-6.271l-0.077-0.029c-1.306-0.572-2.827-0.913-4.426-0.933h-46.674c-6.443 0-11.667 5.223-11.667 11.667s5.223 11.667 11.667 11.667v0h18.433l-38.383 38.5c-2.097 2.109-3.393 5.016-3.393 8.225s1.296 6.116 3.393 8.226l-0.001-0.001c2.109 2.097 5.016 3.393 8.225 3.393s6.116-1.296 8.226-3.393l-0.001 0.001 38.5-38.383v18.433c0 6.443 5.223 11.667 11.667 11.667s11.667-5.223 11.667-11.667v0-46.667c-0.020-1.606-0.361-3.127-0.963-4.509l0.029 0.075z"></path>
</svg>
