<!-- Generated by IcoMoon.io -->
<svg version="1.1" xmlns="http://www.w3.org/2000/svg" width="280" height="280" viewBox="0 0 280 280">
<title>ul-plane-arrival</title>
<path fill="#91908d" d="M246.4 189.35c-4.187-15.007-13.811-27.289-26.564-34.852l-0.27-0.148-24.617-14.35-5.6-63.817c-0.33-3.885-2.518-7.196-5.663-9.070l-0.054-0.030-35-20.067c-1.673-0.983-3.686-1.563-5.833-1.563s-4.16 0.581-5.888 1.593l0.055-0.030c-3.521 1.95-5.903 5.579-6.066 9.778l-0.001 0.022-1.75 45.5-20.417-11.667-33.367-44.917c-2.152-2.834-5.523-4.645-9.317-4.645-5.651 0-10.364 4.018-11.437 9.353l-0.013 0.075-10.15 53.783c-0.626 2.477-0.985 5.319-0.985 8.246 0 12.765 6.834 23.935 17.043 30.049l0.159 0.088 164.033 94.617c1.693 1.012 3.734 1.611 5.915 1.611 4.191 0 7.866-2.21 9.923-5.528l0.029-0.050c4.931-8.286 7.845-18.27 7.845-28.935 0-5.354-0.734-10.536-2.108-15.451l0.096 0.403zM224.467 210l-152.133-87.5c-3.374-2.085-5.588-5.763-5.588-9.958 0-1.149 0.166-2.259 0.476-3.308l-0.021 0.083 5.367-28.467 19.367 25.667c0.945 1.274 2.11 2.327 3.446 3.12l0.054 0.030 39.083 22.633c1.675 0.985 3.69 1.567 5.841 1.567 6.297 0 11.429-4.989 11.659-11.23l0.001-0.021 1.867-45.5 12.717 7.35 5.6 63.817c0.356 3.905 2.589 7.221 5.777 9.070l0.056 0.030 29.867 17.617c7.752 4.531 13.464 11.839 15.812 20.529l0.055 0.238c0.757 2.592 1.192 5.569 1.192 8.647 0 1.974-0.179 3.906-0.521 5.782l0.030-0.196z"></path>
</svg>
