<!-- Generated by IcoMoon.io -->
<svg version="1.1" xmlns="http://www.w3.org/2000/svg" width="280" height="280" viewBox="0 0 280 280">
<title>ul-post-stamp</title>
<path fill="#91908d" d="M262.5 64.167c6.443 0 11.667-5.223 11.667-11.667v0-35c0-6.443-5.223-11.667-11.667-11.667v0h-35c-6.443 0-11.667 5.223-11.667 11.667v0c0 3.222-2.612 5.833-5.833 5.833s-5.833-2.612-5.833-5.833v0c0-6.443-5.223-11.667-11.667-11.667v0h-35c-6.443 0-11.667 5.223-11.667 11.667v0c0 3.222-2.612 5.833-5.833 5.833s-5.833-2.612-5.833-5.833v0c0-6.443-5.223-11.667-11.667-11.667v0h-35c-6.443 0-11.667 5.223-11.667 11.667v0c0 3.222-2.612 5.833-5.833 5.833s-5.833-2.612-5.833-5.833v0c0-6.443-5.223-11.667-11.667-11.667v0h-35c-6.443 0-11.667 5.223-11.667 11.667v0 35c0 6.443 5.223 11.667 11.667 11.667v0c3.222 0 5.833 2.612 5.833 5.833s-2.612 5.833-5.833 5.833v0c-6.443 0-11.667 5.223-11.667 11.667v0 35c0 6.443 5.223 11.667 11.667 11.667v0c3.222 0 5.833 2.612 5.833 5.833s-2.612 5.833-5.833 5.833v0c-6.443 0-11.667 5.223-11.667 11.667v0 35c0 6.443 5.223 11.667 11.667 11.667v0c3.222 0 5.833 2.612 5.833 5.833s-2.612 5.833-5.833 5.833v0c-6.443 0-11.667 5.223-11.667 11.667v0 35c0 6.443 5.223 11.667 11.667 11.667v0h35c6.443 0 11.667-5.223 11.667-11.667v0c0-3.222 2.612-5.833 5.833-5.833s5.833 2.612 5.833 5.833v0c0 6.443 5.223 11.667 11.667 11.667v0h35c6.443 0 11.667-5.223 11.667-11.667v0c0-3.222 2.612-5.833 5.833-5.833s5.833 2.612 5.833 5.833v0c0 6.443 5.223 11.667 11.667 11.667v0h35c6.443 0 11.667-5.223 11.667-11.667v0c0-3.222 2.612-5.833 5.833-5.833s5.833 2.612 5.833 5.833v0c0 6.443 5.223 11.667 11.667 11.667v0h35c6.443 0 11.667-5.223 11.667-11.667v0-35c0-6.443-5.223-11.667-11.667-11.667v0c-3.222 0-5.833-2.612-5.833-5.833s2.612-5.833 5.833-5.833v0c6.443 0 11.667-5.223 11.667-11.667v0-35c0-6.443-5.223-11.667-11.667-11.667v0c-3.222 0-5.833-2.612-5.833-5.833s2.612-5.833 5.833-5.833v0c6.443 0 11.667-5.223 11.667-11.667v0-35c0-6.443-5.223-11.667-11.667-11.667v0c-3.222 0-5.833-2.612-5.833-5.833s2.612-5.833 5.833-5.833v0zM250.833 43.283c-10.369 4.624-17.466 14.842-17.466 26.717s7.097 22.093 17.28 26.643l0.185 0.074v16.567c-10.369 4.624-17.466 14.842-17.466 26.717s7.097 22.093 17.28 26.643l0.185 0.074v16.567c-10.369 4.624-17.466 14.842-17.466 26.717s7.097 22.093 17.28 26.643l0.185 0.074v14.117h-14.117c-4.624-10.369-14.842-17.466-26.717-17.466s-22.093 7.097-26.643 17.28l-0.074 0.185h-16.567c-4.624-10.369-14.842-17.466-26.717-17.466s-22.093 7.097-26.643 17.28l-0.074 0.185h-16.567c-4.624-10.369-14.842-17.466-26.717-17.466s-22.093 7.097-26.643 17.28l-0.074 0.185h-14.117v-14.117c10.369-4.624 17.466-14.842 17.466-26.717s-7.097-22.093-17.28-26.643l-0.185-0.074v-16.567c10.369-4.624 17.466-14.842 17.466-26.717s-7.097-22.093-17.28-26.643l-0.185-0.074v-16.567c10.369-4.624 17.466-14.842 17.466-26.717s-7.097-22.093-17.28-26.643l-0.185-0.074v-14.117h14.117c4.624 10.369 14.842 17.466 26.717 17.466s22.093-7.097 26.643-17.28l0.074-0.185h16.567c4.624 10.369 14.842 17.466 26.717 17.466s22.093-7.097 26.643-17.28l0.074-0.185h16.567c4.624 10.369 14.842 17.466 26.717 17.466s22.093-7.097 26.643-17.28l0.074-0.185h14.117zM140 58.333c-45.103 0-81.667 36.564-81.667 81.667s36.564 81.667 81.667 81.667v0c0.052 0 0.114 0 0.175 0 14.979 0 29.006-4.073 41.035-11.173l-0.377 0.206c3.749-1.991 6.259-5.871 6.259-10.338 0-6.443-5.223-11.667-11.667-11.667-2.323 0-4.487 0.679-6.305 1.849l0.046-0.028c-8.367 4.913-18.428 7.815-29.167 7.815-32.217 0-58.333-26.117-58.333-58.333s26.117-58.333 58.333-58.333c32.217 0 58.333 26.117 58.333 58.333 0 0.001 0 0.001 0 0.002v0 5.833c0 5.348-4.335 9.683-9.683 9.683v0c-0 0-0.001 0-0.001 0-5.371 0-9.734-4.321-9.799-9.677v-33.023c-0.165-6.315-5.324-11.371-11.663-11.371-3.672 0-6.948 1.696-9.086 4.348l-0.017 0.022c-5.22-2.915-11.447-4.641-18.076-4.667h-0.008c-21.456 0-38.85 17.394-38.85 38.85s17.394 38.85 38.85 38.85v0c0.002 0 0.004 0 0.006 0 9.724 0 18.601-3.627 25.351-9.602l-0.040 0.035c5.974 5.871 14.173 9.496 23.218 9.496 18.192 0 32.96-14.661 33.132-32.813v-5.966c0-45.103-36.564-81.667-81.667-81.667v0zM140 155.517c-8.57 0-15.517-6.947-15.517-15.517s6.947-15.517 15.517-15.517c8.57 0 15.517 6.947 15.517 15.517v0c0 0.035 0.001 0.076 0.001 0.117 0 8.505-6.895 15.4-15.4 15.4-0.041 0-0.082-0-0.123-0.001h0.006z"></path>
</svg>
