<!-- Generated by IcoMoon.io -->
<svg version="1.1" xmlns="http://www.w3.org/2000/svg" width="280" height="280" viewBox="0 0 280 280">
<title>ul-presentation-lines-alt</title>
<path fill="#91908d" d="M118.65 123.083c1.883 2.873 4.934 4.846 8.463 5.245l0.053 0.005c0.352 0.038 0.761 0.059 1.175 0.059 3.234 0 6.161-1.316 8.274-3.442l0.001-0.001 13.183-13.3 15.517 23.333c2.135 3.049 5.631 5.017 9.586 5.017 0.034 0 0.068-0 0.103-0.001h-0.005c0.037 0.001 0.081 0.001 0.126 0.001 2.356 0 4.538-0.743 6.326-2.007l-0.034 0.023c3.142-2.123 5.181-5.672 5.181-9.697 0-2.383-0.714-4.599-1.941-6.446l0.027 0.043-23.333-35c-1.883-2.873-4.934-4.846-8.463-5.245l-0.053-0.005c-0.352-0.038-0.761-0.059-1.175-0.059-3.234 0-6.161 1.316-8.274 3.442l-0.001 0.001-13.183 13.3-15.517-23.333c-2.009-3.69-5.857-6.152-10.281-6.152-6.443 0-11.667 5.223-11.667 11.667 0 2.781 0.973 5.336 2.598 7.34l-0.017-0.022zM245 163.333h-11.667v-116.667h11.667c6.443 0 11.667-5.223 11.667-11.667s-5.223-11.667-11.667-11.667v0h-210c-6.443 0-11.667 5.223-11.667 11.667s5.223 11.667 11.667 11.667v0h11.667v116.667h-11.667c-6.443 0-11.667 5.223-11.667 11.667s5.223 11.667 11.667 11.667v0h93.333v13.417l-53.083 35c-3.339 2.092-5.526 5.75-5.526 9.92 0 6.443 5.223 11.667 11.667 11.667 0.097 0 0.194-0.001 0.29-0.004l-0.014 0c0.037 0.001 0.081 0.001 0.126 0.001 2.356 0 4.538-0.743 6.326-2.007l-0.034 0.023 40.25-26.6v16.917c0 6.443 5.223 11.667 11.667 11.667s11.667-5.223 11.667-11.667v0-16.917l40.25 26.6c1.753 1.241 3.935 1.984 6.291 1.984 0.044 0 0.088-0 0.132-0.001h-0.007c6.404-0.051 11.577-5.255 11.577-11.666 0-4.017-2.030-7.559-5.119-9.658l-0.041-0.026-53.083-35v-13.65h93.333c6.443 0 11.667-5.223 11.667-11.667s-5.223-11.667-11.667-11.667v0zM210 163.333h-140v-116.667h140z"></path>
</svg>
