<!-- Generated by IcoMoon.io -->
<svg version="1.1" xmlns="http://www.w3.org/2000/svg" width="280" height="280" viewBox="0 0 280 280">
<title>ul-print</title>
<path fill="#91908d" d="M81.667 116.667c-6.443 0-11.667 5.223-11.667 11.667s5.223 11.667 11.667 11.667c6.443 0 11.667-5.223 11.667-11.667v0c0-6.443-5.223-11.667-11.667-11.667v0zM221.667 70h-11.667v-35c0-6.443-5.223-11.667-11.667-11.667v0h-116.667c-6.443 0-11.667 5.223-11.667 11.667v0 35h-11.667c-19.33 0-35 15.67-35 35v0 70c0 19.33 15.67 35 35 35v0h11.667v35c0 6.443 5.223 11.667 11.667 11.667v0h116.667c6.443 0 11.667-5.223 11.667-11.667v0-35h11.667c19.33 0 35-15.67 35-35v0-70c0-19.33-15.67-35-35-35v0zM93.333 46.667h93.333v23.333h-93.333zM186.667 233.333h-93.333v-46.667h93.333zM233.333 175c0 6.443-5.223 11.667-11.667 11.667v0h-11.667v-11.667c0-6.443-5.223-11.667-11.667-11.667v0h-116.667c-6.443 0-11.667 5.223-11.667 11.667v0 11.667h-11.667c-6.443 0-11.667-5.223-11.667-11.667v0-70c0-6.443 5.223-11.667 11.667-11.667v0h163.333c6.443 0 11.667 5.223 11.667 11.667v0z"></path>
</svg>
