<!-- Generated by IcoMoon.io -->
<svg version="1.1" xmlns="http://www.w3.org/2000/svg" width="280" height="280" viewBox="0 0 280 280">
<title>ul-pen</title>
<path fill="#91908d" d="M256.667 84.467c0-0.020 0-0.044 0-0.068 0-3.205-1.292-6.108-3.384-8.217l-49.466-49.466c-2.108-2.091-5.011-3.384-8.216-3.384-0.024 0-0.047 0-0.071 0h0.004c-0.020 0-0.044-0-0.068-0-3.205 0-6.108 1.292-8.217 3.384l-160.532 160.532c-2.091 2.108-3.384 5.011-3.384 8.216 0 0.024 0 0.047 0 0.071v-0.004 49.467c0 6.443 5.223 11.667 11.667 11.667v0h49.467c0.189 0.011 0.411 0.017 0.634 0.017 3.213 0 6.123-1.299 8.233-3.401l-0 0 126.817-127.517 33.133-32.433c1.033-1.095 1.894-2.367 2.531-3.763l0.036-0.087c0.054-0.42 0.084-0.906 0.084-1.4s-0.031-0.98-0.090-1.457l0.006 0.057c0.026-0.245 0.041-0.529 0.041-0.817s-0.015-0.572-0.044-0.852l0.003 0.035zM79.683 233.333h-33.017v-33.017l115.85-115.85 33.017 33.017zM211.983 101.033l-33.017-33.017 16.567-16.45 32.9 32.9z"></path>
</svg>
