<!-- Generated by IcoMoon.io -->
<svg version="1.1" xmlns="http://www.w3.org/2000/svg" width="280" height="280" viewBox="0 0 280 280">
<title>ul-polygon</title>
<path fill="#91908d" d="M255.15 134.167l-52.5-90.883c-2.055-3.512-5.808-5.834-10.104-5.834-0.016 0-0.033 0-0.049 0h-104.998c-0.014 0-0.030 0-0.046 0-4.296 0-8.049 2.321-10.074 5.778l-0.030 0.055-52.5 90.883c-0.983 1.673-1.563 3.686-1.563 5.833s0.581 4.16 1.593 5.888l-0.030-0.055 52.5 90.883c2.055 3.512 5.808 5.834 10.104 5.834 0.016 0 0.033 0 0.049 0h104.998c0.014 0 0.030 0 0.046 0 4.296 0 8.049-2.321 10.074-5.778l0.030-0.055 52.5-90.883c0.983-1.673 1.563-3.686 1.563-5.833s-0.581-4.16-1.593-5.888l0.030 0.055zM185.15 219.217h-90.883l-45.85-79.217 45.85-79.217h91.467l45.85 79.217z"></path>
</svg>
