<!-- Generated by IcoMoon.io -->
<svg version="1.1" xmlns="http://www.w3.org/2000/svg" width="280" height="280" viewBox="0 0 280 280">
<title>ul-pump</title>
<path fill="#91908d" d="M239.633 73.383l-34.417-34.417c-2.12-2.12-5.048-3.431-8.283-3.431-6.47 0-11.714 5.245-11.714 11.714 0 3.235 1.311 6.164 3.431 8.283l11.667 11.667-9.683 29.050c-1.129 3.289-1.781 7.080-1.781 11.022 0 9.688 3.936 18.456 10.296 24.794l0.001 0.001 34.417 35v54.6c0 6.443-5.223 11.667-11.667 11.667s-11.667-5.223-11.667-11.667v0-23.333c0-19.33-15.67-35-35-35v0h-11.9v-105c0-19.33-15.67-35-35-35v0h-70c-19.33 0-35 15.67-35 35v0 163.333c0 19.33 15.67 35 35 35v0h70c19.33 0 35-15.67 35-35v0-35h11.667c6.443 0 11.667 5.223 11.667 11.667v0 23.333c0 19.33 15.67 35 35 35s35-15.67 35-35v0-106.983c0-0.031 0-0.068 0-0.104 0-16.082-6.508-30.645-17.035-41.197l0.001 0.001zM140 221.667c0 6.443-5.223 11.667-11.667 11.667v0h-70c-6.443 0-11.667-5.223-11.667-11.667v0-81.667h93.333zM140 116.667h-93.333v-58.333c0-6.443 5.223-11.667 11.667-11.667v0h70c6.443 0 11.667 5.223 11.667 11.667v0zM233.333 133.233l-17.967-17.967c-2.063-2.103-3.337-4.987-3.337-8.168 0-1.249 0.196-2.452 0.56-3.581l-0.023 0.083 5.95-17.967 4.55 4.667c6.256 6.247 10.159 14.849 10.266 24.363l0 0.021z"></path>
</svg>
