<!-- Generated by IcoMoon.io -->
<svg version="1.1" xmlns="http://www.w3.org/2000/svg" width="280" height="280" viewBox="0 0 280 280">
<title>ul-pause</title>
<path fill="#91908d" d="M186.667 23.333c-19.33 0-35 15.67-35 35v0 163.333c0 19.33 15.67 35 35 35s35-15.67 35-35v0-163.333c0-19.33-15.67-35-35-35v0zM198.333 221.667c0 6.443-5.223 11.667-11.667 11.667s-11.667-5.223-11.667-11.667v0-163.333c0-6.443 5.223-11.667 11.667-11.667s11.667 5.223 11.667 11.667v0zM93.333 23.333c-19.33 0-35 15.67-35 35v0 163.333c0 19.33 15.67 35 35 35s35-15.67 35-35v0-163.333c0-19.33-15.67-35-35-35v0zM105 221.667c0 6.443-5.223 11.667-11.667 11.667s-11.667-5.223-11.667-11.667v0-163.333c0-6.443 5.223-11.667 11.667-11.667s11.667 5.223 11.667 11.667v0z"></path>
</svg>
