<!-- Generated by IcoMoon.io -->
<svg version="1.1" xmlns="http://www.w3.org/2000/svg" width="280" height="280" viewBox="0 0 280 280">
<title>ul-record-audio</title>
<path fill="#91908d" d="M140 23.333c-64.433 0-116.667 52.233-116.667 116.667s52.233 116.667 116.667 116.667c64.433 0 116.667-52.233 116.667-116.667v0c0-64.433-52.233-116.667-116.667-116.667v0zM140 233.333c-51.547 0-93.333-41.787-93.333-93.333s41.787-93.333 93.333-93.333c51.547 0 93.333 41.787 93.333 93.333v0c0 51.547-41.787 93.333-93.333 93.333v0zM140 70c-38.66 0-70 31.34-70 70s31.34 70 70 70c38.66 0 70-31.34 70-70v0c0-38.66-31.34-70-70-70v0zM140 186.667c-25.773 0-46.667-20.893-46.667-46.667s20.893-46.667 46.667-46.667c25.773 0 46.667 20.893 46.667 46.667v0c0 25.773-20.893 46.667-46.667 46.667v0z"></path>
</svg>
