<!-- Generated by IcoMoon.io -->
<svg version="1.1" xmlns="http://www.w3.org/2000/svg" width="280" height="280" viewBox="0 0 280 280">
<title>ul-repeat</title>
<path fill="#91908d" d="M64.167 204.167h-17.5v-128.333h91l-9.333 9.217c-2.13 2.115-3.448 5.045-3.448 8.283 0 6.447 5.226 11.673 11.673 11.673 3.209 0 6.115-1.295 8.226-3.391l29.166-29.166c2.131-2.114 3.451-5.045 3.451-8.283s-1.32-6.169-3.45-8.283l-29.168-29.168c-2.109-2.097-5.016-3.393-8.225-3.393s-6.116 1.296-8.226 3.393l0.001-0.001c-2.131 2.114-3.451 5.045-3.451 8.283s1.32 6.169 3.45 8.283l9.218 9.218h-102.55c-6.443 0-11.667 5.223-11.667 11.667v0 151.667c0 6.443 5.223 11.667 11.667 11.667v0h29.167c6.443 0 11.667-5.223 11.667-11.667s-5.223-11.667-11.667-11.667v0zM245 52.5h-29.167c-6.443 0-11.667 5.223-11.667 11.667s5.223 11.667 11.667 11.667v0h17.5v128.333h-97.65l9.217-9.217c2.131-2.114 3.451-5.045 3.451-8.283s-1.32-6.169-3.45-8.283l-0.001-0.001c-2.109-2.097-5.016-3.393-8.225-3.393s-6.116 1.296-8.226 3.393l-29.166 29.166c-2.131 2.114-3.451 5.045-3.451 8.283s1.32 6.169 3.45 8.283l29.168 29.168c2.11 2.095 5.016 3.39 8.225 3.39 6.447 0 11.673-5.226 11.673-11.673 0-3.238-1.318-6.168-3.447-8.283l-9.217-9.217h109.317c6.443 0 11.667-5.223 11.667-11.667v0-151.667c0-6.443-5.223-11.667-11.667-11.667v0z"></path>
</svg>
