<!-- Generated by IcoMoon.io -->
<svg version="1.1" xmlns="http://www.w3.org/2000/svg" width="280" height="280" viewBox="0 0 280 280">
<title>ul-rotate-360</title>
<path fill="#91908d" d="M140 70c-66.5 0-116.667 25.083-116.667 58.333 0 28.583 37.217 51.1 89.95 56.933l-4.9 4.783c-2.131 2.114-3.451 5.045-3.451 8.283s1.32 6.169 3.45 8.283l0.001 0.001c2.114 2.131 5.045 3.451 8.283 3.451s6.169-1.32 8.283-3.45l23.334-23.334c1.032-1.077 1.862-2.356 2.422-3.771l0.028-0.079c0.553-1.311 0.875-2.834 0.875-4.433s-0.322-3.123-0.904-4.51l0.029 0.077c-0.588-1.494-1.418-2.773-2.454-3.854l0.004 0.004-23.333-23.333c-2.12-2.12-5.048-3.431-8.283-3.431-6.47 0-11.714 5.245-11.714 11.714 0 3.235 1.311 6.164 3.431 8.283v0l1.4 1.283c-39.783-5.6-63.117-21.233-63.117-32.9 0-14.233 36.4-35 93.333-35s93.333 20.767 93.333 35c0 9.683-16.917 23.333-49.117 30.333-5.431 1.068-9.472 5.791-9.472 11.458 0 0.859 0.093 1.696 0.269 2.502l-0.014-0.077c1.157 5.321 5.826 9.248 11.413 9.248 0.875 0 1.728-0.096 2.548-0.279l-0.078 0.014c42.583-9.333 67.783-29.167 67.783-53.2 0-33.25-50.167-58.333-116.667-58.333z"></path>
</svg>
