<!-- Generated by IcoMoon.io -->
<svg version="1.1" xmlns="http://www.w3.org/2000/svg" width="280" height="280" viewBox="0 0 280 280">
<title>ul-schedule</title>
<path fill="#91908d" d="M140 163.333c6.443 0 11.667-5.223 11.667-11.667s-5.223-11.667-11.667-11.667c-6.443 0-11.667 5.223-11.667 11.667v0c0 6.443 5.223 11.667 11.667 11.667v0zM198.333 163.333c6.443 0 11.667-5.223 11.667-11.667s-5.223-11.667-11.667-11.667c-6.443 0-11.667 5.223-11.667 11.667v0c0 6.443 5.223 11.667 11.667 11.667v0zM140 210c6.443 0 11.667-5.223 11.667-11.667s-5.223-11.667-11.667-11.667c-6.443 0-11.667 5.223-11.667 11.667v0c0 6.443 5.223 11.667 11.667 11.667v0zM198.333 210c6.443 0 11.667-5.223 11.667-11.667s-5.223-11.667-11.667-11.667c-6.443 0-11.667 5.223-11.667 11.667v0c0 6.443 5.223 11.667 11.667 11.667v0zM81.667 163.333c6.443 0 11.667-5.223 11.667-11.667s-5.223-11.667-11.667-11.667c-6.443 0-11.667 5.223-11.667 11.667v0c0 6.443 5.223 11.667 11.667 11.667v0zM221.667 46.667h-11.667v-11.667c0-6.443-5.223-11.667-11.667-11.667s-11.667 5.223-11.667 11.667v0 11.667h-93.333v-11.667c0-6.443-5.223-11.667-11.667-11.667s-11.667 5.223-11.667 11.667v0 11.667h-11.667c-19.33 0-35 15.67-35 35v0 140c0 19.33 15.67 35 35 35v0h163.333c19.33 0 35-15.67 35-35v0-140c0-19.33-15.67-35-35-35v0zM233.333 221.667c0 6.443-5.223 11.667-11.667 11.667v0h-163.333c-6.443 0-11.667-5.223-11.667-11.667v0-105h186.667zM233.333 93.333h-186.667v-11.667c0-6.443 5.223-11.667 11.667-11.667v0h163.333c6.443 0 11.667 5.223 11.667 11.667v0zM81.667 210c6.443 0 11.667-5.223 11.667-11.667s-5.223-11.667-11.667-11.667c-6.443 0-11.667 5.223-11.667 11.667v0c0 6.443 5.223 11.667 11.667 11.667v0z"></path>
</svg>
