<!-- Generated by IcoMoon.io -->
<svg version="1.1" xmlns="http://www.w3.org/2000/svg" width="280" height="280" viewBox="0 0 280 280">
<title>ul-sanitizer-alt</title>
<path fill="#91908d" d="M163.333 175h-23.333c-6.443 0-11.667 5.223-11.667 11.667s5.223 11.667 11.667 11.667v0h23.333c6.443 0 11.667-5.223 11.667-11.667s-5.223-11.667-11.667-11.667v0zM186.667 93.333v-35c0-6.443-5.223-11.667-11.667-11.667v0h-11.667v-11.667h11.667c6.443 0 11.667-5.223 11.667-11.667s-5.223-11.667-11.667-11.667v0h-55.582c-0.053-0-0.116-0-0.18-0-20.922 0-39.044 11.991-47.868 29.475l-0.141 0.307c-0.769 1.514-1.22 3.301-1.22 5.193 0 6.444 5.224 11.668 11.668 11.668 4.532 0 8.461-2.584 10.393-6.359l0.031-0.066c5.080-10.087 15.353-16.885 27.214-16.885 0.036 0 0.071 0 0.107 0h20.576v11.667h-11.667c-6.443 0-11.667 5.223-11.667 11.667v0 35c-19.321 0.022-34.978 15.679-35 34.998v105.002c0.022 19.321 15.679 34.978 34.998 35h70.002c19.321-0.022 34.978-15.679 35-34.998v-105.002c-0.022-19.321-15.679-34.978-34.998-35h-0.002zM140 70h23.333v23.333h-23.333zM198.333 233.333c-0.009 6.44-5.227 11.658-11.666 11.667h-70.001c-6.44-0.009-11.658-5.227-11.667-11.666v-105.001c0.009-6.44 5.227-11.658 11.666-11.667h70.001c6.44 0.009 11.658 5.227 11.667 11.666v0.001z"></path>
</svg>
