<!-- Generated by IcoMoon.io -->
<svg version="1.1" xmlns="http://www.w3.org/2000/svg" width="280" height="280" viewBox="0 0 280 280">
<title>ul-shield-plus</title>
<path fill="#91908d" d="M163.333 128.333h-11.667v-11.667c0-6.443-5.223-11.667-11.667-11.667s-11.667 5.223-11.667 11.667v0 11.667h-11.667c-6.443 0-11.667 5.223-11.667 11.667s5.223 11.667 11.667 11.667v0h11.667v11.667c0 6.443 5.223 11.667 11.667 11.667s11.667-5.223 11.667-11.667v0-11.667h11.667c6.443 0 11.667-5.223 11.667-11.667s-5.223-11.667-11.667-11.667v0zM229.027 42.582c-1.999-1.623-4.574-2.606-7.379-2.606-0.84 0-1.66 0.088-2.45 0.256l0.077-0.014c-5.788 1.279-12.435 2.013-19.254 2.013-19.971 0-38.474-6.288-53.636-16.991l0.293 0.196c-1.861-1.315-4.177-2.102-6.677-2.102s-4.816 0.787-6.713 2.127l0.037-0.025c-14.865 10.51-33.363 16.799-53.331 16.799-6.823 0-13.475-0.734-19.881-2.128l0.614 0.112c-0.72-0.158-1.548-0.249-2.396-0.249-6.441 0-11.663 5.222-11.663 11.663 0 0.002 0 0.005 0 0.007v-0 86.998c0.037 35.083 17.239 66.14 43.658 85.231l0.308 0.212 42.589 30.415c1.883 1.357 4.236 2.171 6.779 2.171s4.896-0.813 6.814-2.194l-0.034 0.024 42.588-30.42c26.728-19.3 43.93-50.357 43.966-85.433v-87.004c0-3.645-1.67-6.9-4.286-9.041l-0.021-0.016zM210 138.639c-0.032 27.283-13.408 51.436-33.951 66.286l-0.24 0.165-35.809 25.572-35.809-25.566c-20.782-15.018-34.158-39.172-34.191-66.451v-73.509c3.013 0.278 6.516 0.436 10.056 0.436 22.146 0 42.844-6.199 60.454-16.955l-0.51 0.29c17.1 10.467 37.798 16.666 59.944 16.666 3.54 0 7.043-0.158 10.502-0.468l-0.447 0.032z"></path>
</svg>
