<!-- Generated by IcoMoon.io -->
<svg version="1.1" xmlns="http://www.w3.org/2000/svg" width="280" height="280" viewBox="0 0 280 280">
<title>ul-share-alt</title>
<path fill="#91908d" d="M210 163.333c-14.476 0.099-27.373 6.773-35.867 17.183l-0.067 0.084-59.5-27.417c1.33-3.936 2.098-8.47 2.098-13.183s-0.768-9.247-2.185-13.483l0.087 0.3 59.5-27.417c8.621 10.35 21.513 16.889 35.932 16.889 25.773 0 46.667-20.893 46.667-46.667s-20.893-46.667-46.667-46.667c-25.773 0-46.667 20.893-46.667 46.667 0 0.133 0.001 0.265 0.002 0.398v-0.020c0.038 2.954 0.334 5.813 0.865 8.588l-0.048-0.305-61.6 28.35c-8.406-8.225-19.923-13.3-32.626-13.3-25.773 0-46.667 20.893-46.667 46.667s20.893 46.667 46.667 46.667c12.703 0 24.219-5.075 32.634-13.308l-0.008 0.008 61.6 28.35c-0.483 2.471-0.778 5.33-0.816 8.251l-0 0.033c0 25.773 20.893 46.667 46.667 46.667s46.667-20.893 46.667-46.667c0-25.773-20.893-46.667-46.667-46.667v0zM210 46.667c12.887 0 23.333 10.447 23.333 23.333s-10.447 23.333-23.333 23.333c-12.887 0-23.333-10.447-23.333-23.333v0c0-12.887 10.447-23.333 23.333-23.333v0zM70 163.333c-12.887 0-23.333-10.447-23.333-23.333s10.447-23.333 23.333-23.333c12.887 0 23.333 10.447 23.333 23.333v0c0 12.887-10.447 23.333-23.333 23.333v0zM210 233.333c-12.887 0-23.333-10.447-23.333-23.333s10.447-23.333 23.333-23.333c12.887 0 23.333 10.447 23.333 23.333v0c0 12.887-10.447 23.333-23.333 23.333v0z"></path>
</svg>
