<!-- Generated by IcoMoon.io -->
<svg version="1.1" xmlns="http://www.w3.org/2000/svg" width="280" height="280" viewBox="0 0 280 280">
<title>ul-signin</title>
<path fill="#91908d" d="M233.333 140c0-6.443-5.223-11.667-11.667-11.667v0h-88.55l26.833-26.717c2.12-2.12 3.431-5.048 3.431-8.283 0-6.47-5.245-11.714-11.714-11.714-3.235 0-6.164 1.311-8.283 3.431l-46.667 46.667c-1.032 1.077-1.862 2.356-2.422 3.771l-0.028 0.079c-0.553 1.311-0.875 2.834-0.875 4.433s0.322 3.123 0.904 4.51l-0.029-0.077c0.588 1.494 1.418 2.773 2.454 3.854l-0.004-0.004 46.667 46.667c2.114 2.131 5.045 3.451 8.283 3.451s6.169-1.32 8.283-3.45l0.001-0.001c2.131-2.114 3.451-5.045 3.451-8.283s-1.32-6.169-3.45-8.283l-0.001-0.001-26.833-26.717h88.55c6.443 0 11.667-5.223 11.667-11.667v0zM198.333 23.333h-116.667c-19.33 0-35 15.67-35 35v0 163.333c0 19.33 15.67 35 35 35v0h116.667c19.33 0 35-15.67 35-35v0-35c0-6.443-5.223-11.667-11.667-11.667s-11.667 5.223-11.667 11.667v0 35c0 6.443-5.223 11.667-11.667 11.667v0h-116.667c-6.443 0-11.667-5.223-11.667-11.667v0-163.333c0-6.443 5.223-11.667 11.667-11.667v0h116.667c6.443 0 11.667 5.223 11.667 11.667v0 35c0 6.443 5.223 11.667 11.667 11.667s11.667-5.223 11.667-11.667v0-35c0-19.33-15.67-35-35-35v0z"></path>
</svg>
