<!-- Generated by IcoMoon.io -->
<svg version="1.1" xmlns="http://www.w3.org/2000/svg" width="280" height="280" viewBox="0 0 280 280">
<title>ul-servers</title>
<path fill="#91908d" d="M175 198.333c-6.443 0-11.667 5.223-11.667 11.667s5.223 11.667 11.667 11.667c6.443 0 11.667-5.223 11.667-11.667v0c0-6.443-5.223-11.667-11.667-11.667v0zM128.333 198.333h-23.333c-6.443 0-11.667 5.223-11.667 11.667s5.223 11.667 11.667 11.667v0h23.333c6.443 0 11.667-5.223 11.667-11.667s-5.223-11.667-11.667-11.667v0zM128.333 128.333h-23.333c-6.443 0-11.667 5.223-11.667 11.667s5.223 11.667 11.667 11.667v0h23.333c6.443 0 11.667-5.223 11.667-11.667s-5.223-11.667-11.667-11.667v0zM175 128.333c-6.443 0-11.667 5.223-11.667 11.667s5.223 11.667 11.667 11.667c6.443 0 11.667-5.223 11.667-11.667v0c0-6.443-5.223-11.667-11.667-11.667v0zM268.333 93.333c0-19.33-15.67-35-35-35v0h-11.667c0-19.33-15.67-35-35-35v0h-93.333c-19.33 0-35 15.67-35 35v0h-11.667c-19.33 0-35 15.67-35 35v0 23.333c0.056 9.003 3.502 17.192 9.125 23.361l-0.025-0.028c-5.598 6.142-9.044 14.33-9.1 23.322v23.344c0 19.33 15.67 35 35 35v0h11.667c0 19.33 15.67 35 35 35v0h93.333c19.33 0 35-15.67 35-35v0h11.667c19.33 0 35-15.67 35-35v0-23.333c-0.056-9.003-3.502-17.192-9.125-23.361l0.025 0.028c5.598-6.142 9.044-14.33 9.1-23.322v-0.011zM58.333 198.333h-11.667c-6.443 0-11.667-5.223-11.667-11.667v0-23.333c0-6.443 5.223-11.667 11.667-11.667v0h11.667c0.056 9.003 3.502 17.192 9.125 23.361l-0.025-0.028c-5.598 6.142-9.044 14.33-9.1 23.322v0.011zM58.333 128.333h-11.667c-6.443 0-11.667-5.223-11.667-11.667v0-23.333c0-6.443 5.223-11.667 11.667-11.667v0h11.667c0.056 9.003 3.502 17.192 9.125 23.361l-0.025-0.028c-5.598 6.142-9.044 14.33-9.1 23.322v0.011zM198.333 221.667c0 6.443-5.223 11.667-11.667 11.667v0h-93.333c-6.443 0-11.667-5.223-11.667-11.667v0-23.333c0-6.443 5.223-11.667 11.667-11.667v0h93.333c6.443 0 11.667 5.223 11.667 11.667v0zM198.333 151.667c0 6.443-5.223 11.667-11.667 11.667v0h-93.333c-6.443 0-11.667-5.223-11.667-11.667v0-23.333c0-6.443 5.223-11.667 11.667-11.667v0h93.333c6.443 0 11.667 5.223 11.667 11.667v0zM198.333 81.667c0 6.443-5.223 11.667-11.667 11.667v0h-93.333c-6.443 0-11.667-5.223-11.667-11.667v0-23.333c0-6.443 5.223-11.667 11.667-11.667v0h93.333c6.443 0 11.667 5.223 11.667 11.667v0zM245 186.667c0 6.443-5.223 11.667-11.667 11.667v0h-11.667c-0.056-9.003-3.502-17.192-9.125-23.361l0.025 0.028c5.598-6.142 9.044-14.33 9.1-23.322v-0.011h11.667c6.443 0 11.667 5.223 11.667 11.667v0zM245 116.667c0 6.443-5.223 11.667-11.667 11.667v0h-11.667c-0.056-9.003-3.502-17.192-9.125-23.361l0.025 0.028c5.598-6.142 9.044-14.33 9.1-23.322v-0.011h11.667c6.443 0 11.667 5.223 11.667 11.667v0zM175 58.333c-6.443 0-11.667 5.223-11.667 11.667s5.223 11.667 11.667 11.667c6.443 0 11.667-5.223 11.667-11.667v0c0-6.443-5.223-11.667-11.667-11.667v0zM128.333 58.333h-23.333c-6.443 0-11.667 5.223-11.667 11.667s5.223 11.667 11.667 11.667v0h23.333c6.443 0 11.667-5.223 11.667-11.667s-5.223-11.667-11.667-11.667v0z"></path>
</svg>
