<!-- Generated by IcoMoon.io -->
<svg version="1.1" xmlns="http://www.w3.org/2000/svg" width="280" height="280" viewBox="0 0 280 280">
<title>ul-search</title>
<path fill="#91908d" d="M253.283 236.717l-43.283-42.933c14.384-17.817 23.090-40.739 23.090-65.694 0-57.99-47.010-105-105-105s-105 47.010-105 105c0 57.99 47.010 105 105 105 24.955 0 47.877-8.706 65.894-23.246l-0.2 0.156 42.933 42.933c2.114 2.131 5.045 3.451 8.283 3.451s6.169-1.32 8.283-3.45l0.001-0.001c2.028-2.096 3.278-4.956 3.278-8.108s-1.25-6.012-3.281-8.112l0.003 0.003zM128.333 210c-45.103 0-81.667-36.564-81.667-81.667s36.564-81.667 81.667-81.667c45.103 0 81.667 36.564 81.667 81.667v0c0 45.103-36.564 81.667-81.667 81.667v0z"></path>
</svg>
