<!-- Generated by IcoMoon.io -->
<svg version="1.1" xmlns="http://www.w3.org/2000/svg" width="280" height="280" viewBox="0 0 280 280">
<title>ul-scaling-right</title>
<path fill="#91908d" d="M255.733 30.567c-1.209-2.86-3.44-5.091-6.223-6.271l-0.077-0.029c-1.306-0.572-2.827-0.913-4.426-0.933h-46.674c-6.443 0-11.667 5.223-11.667 11.667s5.223 11.667 11.667 11.667v0h18.55l-76.883 76.883-24.733-24.85c-2.12-2.12-5.048-3.431-8.283-3.431-6.47 0-11.714 5.245-11.714 11.714 0 3.235 1.311 6.164 3.431 8.283v0l24.85 24.733-76.883 76.883v-18.55c0-6.443-5.223-11.667-11.667-11.667s-11.667 5.223-11.667 11.667v0 46.667c0.020 1.606 0.361 3.127 0.962 4.509l-0.029-0.075c1.209 2.86 3.44 5.091 6.223 6.271l0.077 0.029c1.306 0.572 2.827 0.913 4.426 0.933h46.674c6.443 0 11.667-5.223 11.667-11.667s-5.223-11.667-11.667-11.667v0h-18.55l76.883-76.883 24.733 24.85c2.108 2.091 5.011 3.384 8.216 3.384 0.024 0 0.047 0 0.071-0h-0.004c0.020 0 0.044 0 0.068 0 3.205 0 6.108-1.292 8.217-3.384l-0.001 0.001c2.131-2.114 3.451-5.045 3.451-8.283s-1.32-6.169-3.45-8.283l-0.001-0.001-24.85-24.733 76.883-76.883v18.55c0 6.443 5.223 11.667 11.667 11.667s11.667-5.223 11.667-11.667v0-46.667c-0.020-1.606-0.361-3.127-0.963-4.509l0.029 0.075z"></path>
</svg>
