<!-- Generated by IcoMoon.io -->
<svg version="1.1" xmlns="http://www.w3.org/2000/svg" width="280" height="280" viewBox="0 0 280 280">
<title>ul-sign-in-alt</title>
<path fill="#91908d" d="M239.167 176.167c-1.513-0.768-3.298-1.218-5.189-1.218-4.549 0-8.489 2.603-10.414 6.401l-0.031 0.066c-15.606 31.012-47.182 51.916-83.641 51.916-51.547 0-93.333-41.787-93.333-93.333s41.787-93.333 93.333-93.333c0.038 0 0.075 0 0.113 0h-0.006c0.119-0.001 0.26-0.001 0.401-0.001 36.318 0 67.748 20.927 82.891 51.38l0.242 0.538c1.97 3.878 5.93 6.489 10.5 6.489 6.483 0 11.739-5.256 11.739-11.739 0-1.914-0.458-3.72-1.27-5.317l0.031 0.067c-19.534-38.685-58.962-64.75-104.479-64.75-64.433 0-116.667 52.233-116.667 116.667s52.233 116.667 116.667 116.667c45.516 0 84.944-26.065 104.173-64.083l0.306-0.667c0.783-1.525 1.241-3.327 1.241-5.237 0-4.604-2.667-8.585-6.539-10.483l-0.069-0.030zM245 128.333h-111.883l26.833-26.717c2.12-2.12 3.431-5.048 3.431-8.283 0-6.47-5.245-11.714-11.714-11.714-3.235 0-6.164 1.311-8.283 3.431l-46.667 46.667c-1.032 1.077-1.862 2.356-2.422 3.771l-0.028 0.079c-0.553 1.311-0.875 2.834-0.875 4.433s0.322 3.123 0.904 4.51l-0.029-0.077c0.588 1.494 1.418 2.773 2.454 3.854l-0.004-0.004 46.667 46.667c2.114 2.131 5.045 3.451 8.283 3.451s6.169-1.32 8.283-3.45l0.001-0.001c2.131-2.114 3.451-5.045 3.451-8.283s-1.32-6.169-3.45-8.283l-0.001-0.001-26.833-26.717h111.883c6.443 0 11.667-5.223 11.667-11.667s-5.223-11.667-11.667-11.667v0z"></path>
</svg>
