<!-- Generated by IcoMoon.io -->
<svg version="1.1" xmlns="http://www.w3.org/2000/svg" width="280" height="280" viewBox="0 0 280 280">
<title>ul-shopping-cart</title>
<path fill="#91908d" d="M99.167 221.667c-9.665 0-17.5 7.835-17.5 17.5s7.835 17.5 17.5 17.5c9.665 0 17.5-7.835 17.5-17.5v0c0-9.665-7.835-17.5-17.5-17.5v0zM221.667 186.667h-140c-6.443 0-11.667-5.223-11.667-11.667s5.223-11.667 11.667-11.667v0h99.064c15.888-0.053 29.29-10.638 33.593-25.135l0.063-0.249 18.497-64.742c0.285-0.961 0.449-2.064 0.449-3.206 0-6.443-5.223-11.667-11.666-11.668h-143.044c-4.955-13.657-17.783-23.253-32.863-23.333h-10.759c-6.443 0-11.667 5.223-11.667 11.667s5.223 11.667 11.667 11.667v0h10.75c5.295 0.019 9.76 3.546 11.195 8.376l0.021 0.083 1.815 6.355 0.003 0.059 19.141 66.992c-17.652 1.954-31.257 16.788-31.257 34.8 0 19.33 15.67 35 35 35.001h140c6.443 0 11.667-5.223 11.667-11.667s-5.223-11.667-11.667-11.667v0zM206.2 81.667l-14.247 49.868c-1.455 4.918-5.924 8.448-11.22 8.465h-78.598l-2.974-10.409-13.685-47.924zM192.5 221.667c-9.665 0-17.5 7.835-17.5 17.5s7.835 17.5 17.5 17.5c9.665 0 17.5-7.835 17.5-17.5v0c0-9.665-7.835-17.5-17.5-17.5v0z"></path>
</svg>
