<!-- Generated by IcoMoon.io -->
<svg version="1.1" xmlns="http://www.w3.org/2000/svg" width="280" height="280" viewBox="0 0 280 280">
<title>ul-step-forward</title>
<path fill="#91908d" d="M101.617 85.050c-2.12-2.12-5.048-3.431-8.283-3.431-6.47 0-11.714 5.245-11.714 11.714 0 3.235 1.311 6.164 3.431 8.283v0l38.5 38.383-38.5 38.383c-2.131 2.114-3.451 5.045-3.451 8.283s1.32 6.169 3.45 8.283l0.001 0.001c2.114 2.131 5.045 3.451 8.283 3.451s6.169-1.32 8.283-3.45l46.668-46.668c2.131-2.114 3.451-5.045 3.451-8.283s-1.32-6.169-3.45-8.283l-0.001-0.001zM186.667 81.667c-6.443 0-11.667 5.223-11.667 11.667v0 93.333c0 6.443 5.223 11.667 11.667 11.667s11.667-5.223 11.667-11.667v0-93.333c0-6.443-5.223-11.667-11.667-11.667v0z"></path>
</svg>
