<!-- Generated by IcoMoon.io -->
<svg version="1.1" xmlns="http://www.w3.org/2000/svg" width="280" height="280" viewBox="0 0 280 280">
<title>ul-snapchat-alt</title>
<path fill="#91908d" d="M256.097 182.166c-14.86-3.541-27.123-12.724-34.646-25.105l-0.138-0.244c-2.127-3.111-5.659-5.127-9.661-5.127-6.443 0-11.667 5.223-11.667 11.667 0 2.441 0.749 4.707 2.031 6.58l-0.026-0.040c7.328 11.071 16.699 20.188 27.648 27.010l0.379 0.22c-1.572 0.296-3.281 0.581-5.15 0.877-6.766 1.477-11.869 7.097-12.55 14.016l-0.005 0.066c-3.574-0.64-7.688-1.006-11.887-1.006-4.103 0-8.124 0.349-12.036 1.020l0.419-0.059c-8.805 1.985-16.498 5.874-22.931 11.225l0.088-0.071c-6.548 5.827-15.058 9.579-24.426 10.157l-0.115 0.006h-3.042c-9.494-0.586-18.012-4.346-24.604-10.221l0.040 0.036c-6.255-5.211-13.827-9.066-22.137-11.003l-0.365-0.072c-3.535-0.594-7.607-0.933-11.759-0.933-4.252 0-8.421 0.356-12.479 1.040l0.438-0.061c-0.655-6.956-5.689-12.572-12.288-14.096l-0.107-0.021c-1.834-0.285-3.521-0.57-5.070-0.866 8.13-4.755 15.049-10.574 20.848-17.376l0.093-0.112c2.597-2.997 5.039-6.305 7.213-9.797l0.192-0.332c1.11-1.753 1.77-3.888 1.77-6.177 0-6.442-5.223-11.665-11.665-11.665-4.146 0-7.786 2.163-9.855 5.421l-0.028 0.048c-1.681 2.716-3.405 5.064-5.294 7.266l0.065-0.077c-7.322 9.113-17.656 15.543-29.473 17.782l-0.309 0.049c-6.868 1.118-12.047 7.007-12.047 14.106 0 0.108 0.001 0.215 0.004 0.323l-0-0.016c0 0.008 0 0.018 0 0.027 0 2.245 0.495 4.375 1.383 6.286l-0.039-0.092c3.68 8.351 13.478 13.627 32.482 17.204l0.365 1.515c0.33 1.378 0.672 2.78 1.071 4.056 1.812 6.413 7.612 11.035 14.492 11.035 0.148 0 0.296-0.002 0.444-0.006l-0.022 0.001c2.527-0.066 4.939-0.432 7.242-1.064l-0.212 0.049c3.252-0.69 6.989-1.085 10.819-1.085 2.723 0 5.399 0.2 8.015 0.585l-0.296-0.036c5.068 1.528 9.448 4 13.143 7.235l-0.040-0.035c10.272 8.529 23.451 13.884 37.861 14.41l0.113 0.003h3.042c14.613-0.553 27.865-5.96 38.293-14.643l-0.103 0.083c3.672-3.209 8.095-5.659 12.965-7.051l0.24-0.059c2.12-0.392 4.558-0.616 7.050-0.616 0.081 0 0.162 0 0.243 0.001h-0.013c0.026 0 0.057 0 0.088 0 3.919 0 7.733 0.453 11.392 1.308l-0.337-0.066c2.128 0.418 4.602 0.685 7.129 0.74l0.049 0.001c0.118 0.003 0.256 0.005 0.395 0.005 6.712 0 12.37-4.512 14.106-10.669l0.025-0.103c0.444-1.424 0.786-2.791 1.105-4.136l0.364-1.447c18.947-3.566 28.779-8.807 32.288-16.805 0.848-1.626 1.386-3.537 1.48-5.564l0.001-0.031c0.029-0.345 0.046-0.747 0.046-1.153 0-7.176-5.207-13.136-12.048-14.308l-0.086-0.012zM44.354 130.065c0.656 0.13 1.409 0.205 2.18 0.205 4.313 0 8.083-2.33 10.117-5.8l0.030-0.055c4.322 2.247 9.4 3.674 14.783 3.939l0.085 0.003c0.082 0.001 0.18 0.002 0.277 0.002 5.626 0 10.734-2.219 14.496-5.83l-0.007 0.007c2.286-2.136 3.711-5.17 3.711-8.536 0-0.24-0.007-0.477-0.021-0.713l0.002 0.033-0.422-7.018c-0.69-4.745-1.085-10.224-1.085-15.794 0-9.133 1.060-18.019 3.063-26.54l-0.155 0.783c7.895-17.627 25.284-29.685 45.49-29.685 0.274 0 0.547 0.002 0.819 0.007l-0.041-0.001 4.523-0.046c0.197-0.003 0.431-0.004 0.664-0.004 20.226 0 37.633 12.071 45.41 29.403l0.126 0.315c1.848 7.745 2.908 16.637 2.908 25.777 0 5.576-0.394 11.059-1.157 16.424l0.072-0.616-0.114 1.903-0.319 5.173c-0.006 0.137-0.009 0.298-0.009 0.46 0 3.382 1.4 6.437 3.651 8.617l0.003 0.003c3.761 3.631 8.889 5.868 14.539 5.868 0.032 0 0.063 0 0.095-0h-0.005c5.367-0.481 10.285-2.002 14.685-4.361l-0.204 0.1c1.852 4.145 5.938 6.982 10.686 6.984h0.205c6.356-0.116 11.463-5.295 11.463-11.667 0-0.072-0.001-0.144-0.002-0.215l0 0.011c-0.647-8.083-6.224-14.705-13.696-16.897l-0.135-0.034c-2.502-1.054-5.411-1.666-8.463-1.666-3.166 0-6.179 0.659-8.907 1.847l0.144-0.056c0.579-4.249 0.909-9.16 0.909-14.148 0-11.785-1.845-23.14-5.262-33.791l0.217 0.782c-11.536-25.856-37.018-43.552-66.632-43.552-0.347 0-0.693 0.002-1.039 0.007l-4.528 0.045c-0.264-0.004-0.575-0.005-0.887-0.005-29.574 0-55.017 17.684-66.332 43.055l-0.184 0.461c-3.204 9.936-5.051 21.368-5.051 33.231 0 5.127 0.345 10.174 1.013 15.118l-0.064-0.576c-0.399-0.182-0.832-0.387-1.299-0.604-2.471-1.029-5.342-1.626-8.352-1.626-9.919 0-18.323 6.486-21.203 15.448l-0.044 0.157c-0.133 0.662-0.209 1.422-0.209 2.201 0 5.666 4.033 10.391 9.386 11.458l0.074 0.012z"></path>
</svg>
