<!-- Generated by IcoMoon.io -->
<svg version="1.1" xmlns="http://www.w3.org/2000/svg" width="280" height="280" viewBox="0 0 280 280">
<title>ul-spade</title>
<path fill="#91908d" d="M245.7 143.267c-0.089-18.237-7.518-34.722-19.482-46.666l-0.001-0.001-62.883-63.817c-5.974-5.967-14.223-9.657-23.333-9.657s-17.36 3.69-23.334 9.658l0-0-62.883 63.233c-11.965 11.945-19.394 28.43-19.483 46.65v0.017c-0.003 0.243-0.005 0.53-0.005 0.817 0 36.727 29.773 66.5 66.5 66.5 0.084 0 0.168-0 0.251-0.001h-0.013c-3.148 10.615-8.064 19.835-14.471 27.806l0.121-0.156c-1.626 1.99-2.612 4.558-2.612 7.357 0 6.443 5.223 11.667 11.667 11.667 0.139 0 0.277-0.002 0.415-0.007l-0.020 0.001h87.733c0.012 0 0.026 0 0.040 0 6.443 0 11.667-5.223 11.667-11.667 0-2.796-0.983-5.362-2.623-7.371l0.017 0.021c-6.297-7.81-11.215-17.033-14.206-27.085l-0.144-0.565c0.208 0.002 0.454 0.004 0.701 0.004 36.663 0 66.383-29.721 66.383-66.383 0-0.083-0-0.167-0.001-0.25v0.013zM210 173.95c-7.956 7.839-18.885 12.679-30.944 12.679-4.184 0-8.232-0.583-12.067-1.671l0.311 0.075c-0.297-0.027-0.643-0.042-0.992-0.042s-0.695 0.015-1.036 0.045l0.044-0.003h-2.333c-0.99 0.188-1.851 0.43-2.681 0.737l0.114-0.037h-1.75c-0.574 0.378-1.071 0.801-1.512 1.278l-0.005 0.005c-0.76 0.462-1.413 1.003-1.977 1.626l-0.007 0.007c-0.207 0.491-0.441 0.914-0.715 1.306l0.015-0.023c-0.434 0.717-0.901 1.597-1.324 2.502l-0.076 0.181c-0.027 0.314-0.043 0.68-0.043 1.050s0.016 0.736 0.046 1.097l-0.003-0.047c0 0.7 0 1.4 0 2.1v0 0c0.997 13.441 4.42 25.857 9.835 37.136l-0.268-0.62h-45.267c5.251-10.166 8.892-22.019 10.229-34.56l0.038-0.44c0-0.7 0-1.4 0-2.217 0.027-0.314 0.043-0.68 0.043-1.050s-0.016-0.736-0.046-1.097l0.003 0.047c-0.425-1.069-0.935-1.992-1.543-2.839l0.027 0.039c-0.206-0.445-0.44-0.828-0.711-1.182l0.011 0.015c-0.509-0.66-1.129-1.205-1.837-1.617l-0.030-0.016c-0.461-0.447-0.956-0.868-1.477-1.255l-0.040-0.028h-1.633c-0.777-0.369-1.679-0.653-2.624-0.809l-0.060-0.008h-2.217c-0.314-0.027-0.68-0.043-1.050-0.043s-0.736 0.016-1.097 0.046l0.047-0.003c-3.362 0.912-7.223 1.436-11.205 1.436-12.659 0-24.082-5.292-32.178-13.784l-0.017-0.018c-7.824-7.871-12.673-18.707-12.717-30.675v-0.008c0-0.040-0-0.088-0-0.135 0-11.942 4.862-22.747 12.715-30.546l0.002-0.002 63-63.233c1.701-1.657 4.027-2.679 6.592-2.679s4.891 1.022 6.594 2.681l-0.002-0.002 63.817 63.233c7.855 7.801 12.717 18.607 12.717 30.548 0 0.048 0 0.095-0 0.142v-0.007c-0.084 11.969-4.924 22.793-12.721 30.688l0.004-0.004z"></path>
</svg>
