<!-- Generated by IcoMoon.io -->
<svg version="1.1" xmlns="http://www.w3.org/2000/svg" width="280" height="280" viewBox="0 0 280 280">
<title>ul-toggle-on</title>
<path fill="#91908d" d="M186.667 99.167c-22.552 0-40.833 18.282-40.833 40.833s18.282 40.833 40.833 40.833c22.552 0 40.833-18.282 40.833-40.833v0c0-22.552-18.282-40.833-40.833-40.833v0zM186.667 157.5c-9.665 0-17.5-7.835-17.5-17.5s7.835-17.5 17.5-17.5c9.665 0 17.5 7.835 17.5 17.5v0c0 9.665-7.835 17.5-17.5 17.5v0zM186.667 58.333h-93.333c-45.103 0-81.667 36.564-81.667 81.667s36.564 81.667 81.667 81.667v0h93.333c45.103 0 81.667-36.564 81.667-81.667s-36.564-81.667-81.667-81.667v0zM186.667 198.333h-93.333c-32.217 0-58.333-26.117-58.333-58.333s26.117-58.333 58.333-58.333v0h93.333c32.217 0 58.333 26.117 58.333 58.333s-26.117 58.333-58.333 58.333v0z"></path>
</svg>
