<!-- Generated by IcoMoon.io -->
<svg version="1.1" xmlns="http://www.w3.org/2000/svg" width="280" height="280" viewBox="0 0 280 280">
<title>ul-truck</title>
<path fill="#91908d" d="M11.667 145.833v58.333c0 6.443 5.223 11.667 11.667 11.667v0h11.667c0 19.33 15.67 35 35 35s35-15.67 35-35v0h70c0 19.33 15.67 35 35 35s35-15.67 35-35v0h11.667c6.443 0 11.667-5.223 11.667-11.667v0-140c0-19.33-15.67-35-35-35v0h-105c-19.33 0-35 15.67-35 35v0 23.333h-23.333c-11.411 0-21.547 5.461-27.936 13.912l-0.064 0.088-28 37.333c-0.321 0.47-0.597 1.010-0.801 1.583l-0.016 0.050-0.7 1.283c-0.492 1.208-0.789 2.607-0.816 4.072l-0 0.011zM198.333 215.833c0-6.443 5.223-11.667 11.667-11.667s11.667 5.223 11.667 11.667c0 6.443-5.223 11.667-11.667 11.667v0c-6.443 0-11.667-5.223-11.667-11.667v0zM116.667 64.167c0-6.443 5.223-11.667 11.667-11.667v0h105c6.443 0 11.667 5.223 11.667 11.667v0 128.333h-9.1c-6.426-7.051-15.648-11.459-25.9-11.459s-19.474 4.408-25.875 11.431l-0.025 0.028h-67.433zM93.333 134.167h-46.667l14-18.667c2.151-2.846 5.53-4.667 9.333-4.667v0h23.333zM58.333 215.833c0-6.443 5.223-11.667 11.667-11.667s11.667 5.223 11.667 11.667c0 6.443-5.223 11.667-11.667 11.667v0c-6.443 0-11.667-5.223-11.667-11.667v0zM35 157.5h58.333v32.433c-6.162-5.525-14.348-8.903-23.323-8.903-10.257 0-19.484 4.412-25.885 11.442l-0.025 0.028h-9.1z"></path>
</svg>
