<!-- Generated by IcoMoon.io -->
<svg version="1.1" xmlns="http://www.w3.org/2000/svg" width="280" height="280" viewBox="0 0 280 280">
<title>ul-tornado</title>
<path fill="#91908d" d="M116.667 245h-23.333c-6.443 0-11.667 5.223-11.667 11.667s5.223 11.667 11.667 11.667v0h23.333c6.443 0 11.667-5.223 11.667-11.667s-5.223-11.667-11.667-11.667v0zM128.333 198.333h-58.333c-6.443 0-11.667 5.223-11.667 11.667s5.223 11.667 11.667 11.667v0h58.333c6.443 0 11.667-5.223 11.667-11.667s-5.223-11.667-11.667-11.667v0zM210 23.333c0-6.443-5.223-11.667-11.667-11.667v0h-163.333c-6.443 0-11.667 5.223-11.667 11.667s5.223 11.667 11.667 11.667v0h163.333c6.443 0 11.667-5.223 11.667-11.667v0zM245 58.333h-175c-6.443 0-11.667 5.223-11.667 11.667s5.223 11.667 11.667 11.667v0h175c6.443 0 11.667-5.223 11.667-11.667s-5.223-11.667-11.667-11.667v0zM221.667 105h-105c-6.443 0-11.667 5.223-11.667 11.667s5.223 11.667 11.667 11.667v0h105c6.443 0 11.667-5.223 11.667-11.667s-5.223-11.667-11.667-11.667v0zM163.333 151.667h-70c-6.443 0-11.667 5.223-11.667 11.667s5.223 11.667 11.667 11.667v0h70c6.443 0 11.667-5.223 11.667-11.667s-5.223-11.667-11.667-11.667v0z"></path>
</svg>
