<!-- Generated by IcoMoon.io -->
<svg version="1.1" xmlns="http://www.w3.org/2000/svg" width="280" height="280" viewBox="0 0 280 280">
<title>ul-tumblr-alt</title>
<path fill="#91908d" d="M203.392 239.263l-11.222-33.291c-1.606-4.655-5.95-7.939-11.061-7.939-1.827 0-3.556 0.419-5.096 1.168l0.069-0.030c-4.164 1.655-8.983 2.703-14.021 2.902l-0.084 0.003c-0.412 0.055-0.889 0.087-1.373 0.087-2.369 0-4.561-0.754-6.351-2.034l0.033 0.022c-1.764-2.317-2.826-5.252-2.826-8.436 0-0.347 0.013-0.691 0.037-1.032l-0.003 0.046v-50.723h35.194c0.002 0 0.004 0 0.007 0 6.439 0 11.66-5.22 11.66-11.66 0-0.002 0-0.005 0-0.007v0-45.562c0-0.002 0-0.004 0-0.007 0-6.439-5.22-11.66-11.66-11.66-0.002 0-0.005 0-0.007 0h-35.023v-47.772c0-0.002 0-0.004 0-0.007 0-6.439-5.22-11.66-11.66-11.66-0.002 0-0.005 0-0.007 0h-34.179c-6.928 0.033-12.61 5.32-13.269 12.079l-0.004 0.055c-1.001 24.27-16.414 44.701-37.865 53.034l-0.405 0.139c-4.536 1.665-7.713 5.946-7.713 10.97 0 0.001 0 0.001 0 0.002v0 41.813c0 0.002 0 0.004 0 0.007 0 6.44 5.22 11.66 11.66 11.66 0.002 0 0.005 0 0.007 0h11.951v52.91c0.211 20.436 8.584 38.875 22.009 52.247l0.002 0.002c14.369 13.499 33.766 21.792 55.099 21.792 1.033 0 2.062-0.019 3.086-0.058l-0.148 0.004c0.627 0 1.265 0 1.903-0.012 18.035-0.296 42.212-7.554 49.845-18.753 1.269-1.838 2.027-4.113 2.027-6.566 0-1.336-0.225-2.62-0.639-3.816l0.025 0.082zM151.747 244.983c-1.349 0.114-2.919 0.179-4.504 0.179-14.963 0-28.575-5.784-38.722-15.238l0.034 0.031c-9.166-9.112-14.886-21.681-15.039-35.586l-0-0.029v-64.577c0-0.002 0-0.004 0-0.007 0-6.439-5.22-11.66-11.66-11.66-0.002 0-0.005 0-0.007 0h-11.951v-22.365c23.548-11.714 40.375-33.887 44.489-60.269l0.059-0.457h13.888v47.772c0 0.002 0 0.004 0 0.007 0 6.44 5.22 11.66 11.66 11.66 0.002 0 0.005 0 0.007 0h35.023v22.228h-35.194c-0.002 0-0.004 0-0.007 0-6.439 0-11.66 5.22-11.66 11.66 0 0.002 0 0.005 0 0.007v-0 62.583c-0.013 0.36-0.020 0.783-0.020 1.208 0 9.661 3.816 18.43 10.023 24.883l-0.011-0.011c5.729 5.278 13.409 8.513 21.845 8.513 0.917 0 1.825-0.038 2.722-0.113l-0.117 0.008c4.012-0.157 7.81-0.631 11.499-1.399l-0.448 0.078 4.956 14.686c-7.877 3.688-17.076 5.949-26.774 6.207l-0.092 0.002z"></path>
</svg>
