<!-- Generated by IcoMoon.io -->
<svg version="1.1" xmlns="http://www.w3.org/2000/svg" width="280" height="280" viewBox="0 0 280 280">
<title>ul-volume-up</title>
<path fill="#91908d" d="M145.017 47.833c-1.365-0.606-2.958-0.959-4.632-0.959-2.655 0-5.102 0.887-7.063 2.38l0.028-0.021-55.767 44.1h-42.583c-6.443 0-11.667 5.223-11.667 11.667v0 70c0 6.443 5.223 11.667 11.667 11.667v0h42.583l55.183 44.1c1.963 1.585 4.484 2.55 7.23 2.567h0.004c0.052 0.001 0.114 0.001 0.175 0.001 1.768 0 3.434-0.432 4.9-1.196l-0.059 0.028c3.955-1.915 6.637-5.893 6.65-10.498v-163.335c-0.013-4.607-2.695-8.585-6.581-10.47l-0.069-0.030zM128.333 197.4l-39.433-31.5c-1.963-1.585-4.484-2.55-7.23-2.567h-35.004v-46.667h35c2.749-0.016 5.271-0.982 7.256-2.584l-0.022 0.017 39.433-31.5zM176.633 47.717c-0.491-0.072-1.057-0.114-1.633-0.114-6.506 0-11.781 5.274-11.781 11.781 0 5.93 4.382 10.837 10.084 11.659l0.063 0.007c33.803 5.354 59.339 34.287 59.339 69.183s-25.536 63.829-58.941 69.131l-0.398 0.052c-6.098 0.44-10.878 5.495-10.878 11.667 0 6.459 5.236 11.695 11.695 11.695 0.287 0 0.572-0.010 0.854-0.031l-0.038 0.002h1.633c45.192-7.027 79.373-45.664 79.373-92.283s-34.18-85.256-78.848-92.216l-0.525-0.067zM171.267 161.817c-5.673 0.933-9.948 5.8-9.948 11.667 0 6.525 5.29 11.815 11.815 11.815 0.659 0 1.306-0.054 1.935-0.158l-0.069 0.009c1.337-0.015 2.62-0.227 3.827-0.609l-0.094 0.025c18.259-6.611 31.070-23.801 31.070-43.983s-12.812-37.372-30.746-43.88l-0.325-0.103c-1.114-0.388-2.397-0.612-3.733-0.612-6.459 0-11.695 5.236-11.695 11.695 0 5.123 3.294 9.477 7.88 11.059l0.082 0.025c8.877 3.435 15.058 11.904 15.058 21.817s-6.181 18.381-14.899 21.762l-0.159 0.054z"></path>
</svg>
