<!-- Generated by IcoMoon.io -->
<svg version="1.1" xmlns="http://www.w3.org/2000/svg" width="280" height="280" viewBox="0 0 280 280">
<title>ul-volume-off</title>
<path fill="#91908d" d="M197.517 47.833c-1.365-0.606-2.958-0.959-4.632-0.959-2.655 0-5.102 0.887-7.063 2.38l0.028-0.021-55.767 44.1h-42.583c-6.443 0-11.667 5.223-11.667 11.667v0 70c0 6.443 5.223 11.667 11.667 11.667v0h42.583l55.183 44.1c1.963 1.585 4.484 2.55 7.23 2.567h0.004c0.052 0.001 0.114 0.001 0.175 0.001 1.768 0 3.434-0.432 4.9-1.196l-0.059 0.028c3.955-1.915 6.637-5.893 6.65-10.498v-163.335c-0.013-4.607-2.695-8.585-6.581-10.47l-0.069-0.030zM180.833 197.4l-39.433-31.5c-1.963-1.585-4.484-2.55-7.23-2.567h-35.004v-46.667h35c2.749-0.016 5.271-0.982 7.256-2.584l-0.022 0.017 39.433-31.5z"></path>
</svg>
