<!-- Generated by IcoMoon.io -->
<svg version="1.1" xmlns="http://www.w3.org/2000/svg" width="280" height="280" viewBox="0 0 280 280">
<title>ul-whatsapp</title>
<path fill="#91908d" d="M193.667 163.333c-2.333-1.167-17.5-8.167-19.833-9.333s-4.667-1.167-7 1.167c-2.333 2.333-7 9.333-9.333 11.667-1.167 2.333-3.5 2.333-5.833 1.167-8.167-3.5-16.333-8.167-23.333-14-5.833-5.833-11.667-12.833-16.333-19.833-1.167-2.333 0-4.667 1.167-5.833s2.333-3.5 4.667-4.667c1.167-1.167 2.333-3.5 2.333-4.667 1.167-1.167 1.167-3.5 0-4.667s-7-15.167-9.333-21c-1.167-8.167-3.5-8.167-5.833-8.167-1.167 0-3.5 0-5.833 0s-5.833 2.333-7 3.5c-7 7-10.5 15.167-10.5 24.5 1.167 10.5 4.667 21 11.667 30.333 12.833 18.667 29.167 33.833 49 43.167 5.833 2.333 10.5 4.667 16.333 5.833 5.833 2.333 11.667 2.333 18.667 1.167 8.167-1.167 15.167-7 19.833-14 2.333-4.667 2.333-9.333 1.167-14 0 0-2.333-1.167-4.667-2.333zM222.833 57.167c-45.5-45.5-119-45.5-164.5 0-37.333 37.333-44.333 94.5-18.667 140l-16.333 59.5 61.833-16.333c17.5 9.333 36.167 14 54.833 14v0c64.167 0 115.5-51.333 115.5-115.5 1.167-30.333-11.667-59.5-32.667-81.667zM191.333 220.5c-15.167 9.333-32.667 15.167-51.333 15.167v0c-17.5 0-33.833-4.667-49-12.833l-3.5-2.333-36.167 9.333 9.333-35-2.333-3.5c-28-46.667-14-105 31.5-134.167s103.833-14 131.833 30.333c28 45.5 15.167 105-30.333 133z"></path>
</svg>
