<!-- Generated by IcoMoon.io -->
<svg version="1.1" xmlns="http://www.w3.org/2000/svg" width="280" height="280" viewBox="0 0 280 280">
<title>ul-wordpress-simple</title>
<path fill="#91908d" d="M140 23.333c-0 0-0.001 0-0.001 0-64.434 0-116.668 52.234-116.668 116.668s52.234 116.668 116.668 116.668c64.434 0 116.668-52.234 116.668-116.668 0-0.001 0-0.003 0-0.004v0c-0.076-64.402-52.264-116.59-116.66-116.664h-0.007zM35.108 139.997c0-0.024 0-0.053 0-0.082 0-15.43 3.345-30.078 9.349-43.26l-0.267 0.654 50.036 137.090c-35.277-17.395-59.118-53.104-59.118-94.381 0-0.007 0-0.014 0-0.022v0.001zM140 244.897c-0.001 0-0.002 0-0.003 0-10.562 0-20.759-1.562-30.373-4.467l0.742 0.193 31.475-91.451 32.239 88.332c0.237 0.56 0.488 1.035 0.776 1.485l-0.024-0.040c-10.358 3.768-22.314 5.947-34.779 5.947-0.019 0-0.038 0-0.056 0h0.003zM154.455 90.818c6.315-0.332 12.006-0.996 12.006-0.996 2.217-0.211 3.937-2.063 3.937-4.318 0-2.395-1.941-4.336-4.336-4.336-0.095 0-0.19 0.003-0.283 0.009l0.013-0.001s-16.99 1.334-27.959 1.334c-10.305 0-27.624-1.334-27.624-1.334-0.077-0.005-0.167-0.008-0.258-0.008-2.395 0-4.336 1.941-4.336 4.336 0 2.251 1.716 4.102 3.911 4.315l0.018 0.001s5.349 0.664 11.002 0.996l16.342 44.777-22.96 68.843-38.195-113.62c6.319-0.332 12.004-0.996 12.004-0.996 2.215-0.213 3.932-2.065 3.932-4.317 0-2.395-1.941-4.336-4.336-4.336-0.094 0-0.187 0.003-0.279 0.009l0.013-0.001s-16.986 1.334-27.955 1.334c-1.968 0-4.29-0.048-6.75-0.127 19.026-28.65 51.156-47.278 87.636-47.278 27.343 0 52.242 10.466 70.91 27.61l-0.076-0.069c-0.451-0.028-0.893-0.084-1.357-0.084-9.795 0.301-17.621 8.313-17.621 18.153 0 0.163 0.002 0.325 0.006 0.486l-0.001-0.024c1.182 9.425 4.875 17.818 10.379 24.699l-0.075-0.098c5.293 8.193 8.495 18.172 8.647 28.888l0.001 0.040c-1.2 12.5-4.024 23.996-8.281 34.769l0.299-0.86-10.465 34.957zM192.733 230.662l32.038-92.63c4.864-11.068 7.779-23.953 7.976-37.496l0.001-0.074c0-0.043 0-0.095 0-0.147 0-3.752-0.256-7.444-0.752-11.059l0.047 0.42c8.087 14.524 12.847 31.858 12.847 50.305 0 38.506-20.745 72.166-51.668 90.415l-0.489 0.267z"></path>
</svg>
