<!-- Generated by IcoMoon.io -->
<svg version="1.1" xmlns="http://www.w3.org/2000/svg" width="280" height="280" viewBox="0 0 280 280">
<title>ul-wheel-barrow</title>
<path fill="#91908d" d="M245 23.333h-26.833l-1.867 0.817-1.983 1.283c-0.567 0.452-1.065 0.95-1.502 1.498l-0.014 0.019c-0.432 0.543-0.821 1.155-1.141 1.807l-0.026 0.059c-0.383 0.604-0.701 1.301-0.918 2.041l-0.015 0.059v1.050l-7.933 38.033h-13.3l-36.4-36.283c-6.406-6.161-15.126-9.956-24.733-9.956s-18.328 3.795-24.745 9.967l0.011-0.011-36.4 36.283h-32.2c-0.014 0-0.030 0-0.046 0-4.296 0-8.049 2.321-10.074 5.778l-0.030 0.055c-0.983 1.673-1.563 3.686-1.563 5.833s0.581 4.16 1.593 5.888l-0.030-0.055 46.667 81.667-8.983 17.5c-0.629-0.055-1.361-0.086-2.1-0.086s-1.471 0.031-2.194 0.092l0.094-0.007c-19.33 0-35 15.67-35 35s15.67 35 35 35c19.33 0 35-15.67 35-35v0c-0.040-9.446-3.815-18.002-9.924-24.274l0.007 0.008 11.667-23.333 16.1-1.633 45.967 68.95c6.212 9.275 16.649 15.299 28.493 15.299 0.36 0 0.718-0.005 1.076-0.017l-0.052 0.001c4.743-0.010 9.272-0.908 13.436-2.537l-0.252 0.087c13.17-5.224 22.314-17.854 22.314-32.62 0-2.077-0.181-4.112-0.528-6.090l0.031 0.21-11.667-64.050 20.883-105h14.117c6.443 0 11.667-5.223 11.667-11.667s-5.223-11.667-11.667-11.667v0zM58.333 233.333c-6.443 0-11.667-5.223-11.667-11.667s5.223-11.667 11.667-11.667c6.443 0 11.667 5.223 11.667 11.667v0c0 6.443-5.223 11.667-11.667 11.667v0zM120.167 50.050c2.103-2.062 4.986-3.335 8.167-3.335s6.064 1.273 8.169 3.337l19.948 19.948h-56.233zM88.083 150.967l-33.017-57.633h143.267l-9.567 47.6zM190.867 232.633c-1.263 0.511-2.729 0.807-4.263 0.807-4.050 0-7.619-2.064-9.71-5.198l-0.027-0.043-38.967-58.333 50.983-5.017 9.45 54.717c0.11 0.602 0.173 1.294 0.173 2 0 4.998-3.142 9.261-7.559 10.923l-0.080 0.027z"></path>
</svg>
