<!-- Generated by IcoMoon.io -->
<svg version="1.1" xmlns="http://www.w3.org/2000/svg" width="24" height="24" viewBox="0 0 24 24">
<title>access_alarms</title>
<path fill="#37352f" d="M12 18.413q2.325 0 3.956-1.65t1.631-3.975-1.631-3.956-3.956-1.631-3.956 1.631-1.631 3.956 1.631 3.975 3.956 1.65zM12 5.588q3 0 5.1 2.1t2.1 5.1-2.1 5.1-5.1 2.1-5.1-2.1-2.1-5.1 2.1-5.1 5.1-2.1zM12.413 8.813v4.237l3.188 1.912-0.638 0.975-3.75-2.325v-4.8h1.2zM8.738 5.137l-3.713 3.037-1.013-1.2 3.675-3.038zM19.987 6.975l-1.012 1.2-3.712-3.15 1.050-1.2z"></path>
</svg>
