<!-- Generated by IcoMoon.io -->
<svg version="1.1" xmlns="http://www.w3.org/2000/svg" width="24" height="24" viewBox="0 0 24 24">
<title>account_circle</title>
<path fill="#37352f" d="M12 17.775q1.275 0 2.681-0.75t2.119-1.837q-0.037-1.050-1.687-1.763t-3.113-0.713-3.112 0.694-1.688 1.781q0.712 1.087 2.119 1.837t2.681 0.75zM12 6.413q-0.975 0-1.688 0.712t-0.712 1.688 0.712 1.688 1.688 0.712 1.688-0.712 0.712-1.688-0.712-1.688-1.688-0.712zM12 4.012q3.3 0 5.644 2.344t2.344 5.644-2.344 5.644-5.644 2.344-5.644-2.344-2.344-5.644 2.344-5.644 5.644-2.344z"></path>
</svg>
