<!-- Generated by IcoMoon.io -->
<svg version="1.1" xmlns="http://www.w3.org/2000/svg" width="24" height="24" viewBox="0 0 24 24">
<title>add_alarm</title>
<path fill="#37352f" d="M12.788 9.6v2.4h2.4v1.612h-2.4v2.4h-1.575v-2.4h-2.4v-1.613h2.4v-2.4h1.575zM12 18.413q2.325 0 3.956-1.65t1.631-3.975-1.631-3.956-3.956-1.631-3.956 1.631-1.631 3.956 1.631 3.975 3.956 1.65zM12 5.588q3 0 5.1 2.119t2.1 5.081-2.1 5.081-5.1 2.119-5.1-2.119-2.1-5.081 2.1-5.081 5.1-2.119zM19.987 6.975l-1.012 1.237-3.675-3.112 1.013-1.2zM8.7 5.1l-3.675 3.075-1.013-1.2 3.675-3.075z"></path>
</svg>
