<!-- Generated by IcoMoon.io -->
<svg version="1.1" xmlns="http://www.w3.org/2000/svg" width="24" height="24" viewBox="0 0 24 24">
<title>alternate_email</title>
<path fill="#37352f" d="M12 14.4q0.975 0 1.688-0.712t0.712-1.688-0.712-1.688-1.688-0.712-1.688 0.712-0.712 1.688 0.712 1.688 1.688 0.712zM12 4.012q3.3 0 5.644 2.344t2.344 5.644v1.163q0 1.2-0.806 2.025t-1.969 0.825q-1.462 0-2.362-1.2-1.2 1.2-2.85 1.2t-2.831-1.181-1.181-2.831 1.181-2.831 2.831-1.181 2.831 1.181 1.181 2.831v1.162q0 0.487 0.356 0.862t0.844 0.375 0.844-0.375 0.356-0.862v-1.162q0-2.625-1.894-4.519t-4.519-1.894-4.519 1.894-1.894 4.519 1.894 4.519 4.519 1.894h4.013v1.575h-4.013q-3.3 0-5.644-2.344t-2.344-5.644 2.344-5.644 5.644-2.344z"></path>
</svg>
