<!-- Generated by IcoMoon.io -->
<svg version="1.1" xmlns="http://www.w3.org/2000/svg" width="24" height="24" viewBox="0 0 24 24">
<title>anchor</title>
<path fill="#37352f" d="M16.013 14.4l1.237 1.238q-0.413 0.675-1.106 1.237t-1.575 0.938-1.781 0.525v-7.125h2.4v-1.613h-2.4v-0.938q0.712-0.262 1.163-0.881t0.45-1.369q0-0.675-0.319-1.219t-0.862-0.862-1.219-0.319-1.219 0.319-0.863 0.862-0.319 1.219q0 0.75 0.45 1.369t1.162 0.881v0.938h-2.4v1.613h2.4v7.125q-0.9-0.15-1.781-0.525t-1.575-0.938-1.106-1.237l1.238-1.238-3.188-2.4v2.4q0 1.163 0.656 2.175t1.725 1.781 2.325 1.2 2.494 0.431 2.494-0.431 2.325-1.2 1.725-1.781 0.656-2.175v-2.4zM12 5.588q0.337 0 0.563 0.244t0.225 0.581q0 0.3-0.225 0.544t-0.563 0.244-0.563-0.244-0.225-0.544q0-0.337 0.225-0.581t0.563-0.244z"></path>
</svg>
