<!-- Generated by IcoMoon.io -->
<svg version="1.1" xmlns="http://www.w3.org/2000/svg" width="24" height="24" viewBox="0 0 24 24">
<title>android</title>
<path fill="#37352f" d="M14.4 6.413v-0.825h-0.787v0.825h0.787zM10.387 6.413v-0.825h-0.787v0.825h0.787zM14.813 4.125q1.987 1.425 1.987 3.863h-9.6q0-1.013 0.563-2.138t1.388-1.725l-1.050-1.050q-0.3-0.3 0-0.563t0.563 0l1.2 1.2q0.975-0.525 2.137-0.525 0.975 0 2.1 0.525l1.2-1.2q0.3-0.262 0.563 0t0 0.563zM18.788 8.813q0.487 0 0.844 0.356t0.356 0.844v5.588q0 0.525-0.356 0.862t-0.844 0.337-0.844-0.337-0.356-0.862v-5.588q0-0.488 0.356-0.844t0.844-0.356zM5.213 8.813q0.487 0 0.844 0.356t0.356 0.844v5.588q0 0.525-0.356 0.862t-0.844 0.337-0.844-0.337-0.356-0.862v-5.588q0-0.488 0.356-0.844t0.844-0.356zM7.2 16.8v-7.987h9.6v7.987q0 0.338-0.225 0.563t-0.563 0.225h-0.825v2.813q0 0.525-0.356 0.863t-0.844 0.337-0.844-0.337-0.356-0.863v-2.813h-1.575v2.813q0 0.525-0.356 0.863t-0.844 0.337-0.844-0.337-0.356-0.863v-2.813h-0.825q-0.337 0-0.563-0.225t-0.225-0.563z"></path>
</svg>
