<!-- Generated by IcoMoon.io -->
<svg version="1.1" xmlns="http://www.w3.org/2000/svg" width="24" height="24" viewBox="0 0 24 24">
<title>app_registration</title>
<path fill="#37352f" d="M10.387 5.588h3.225v3.225h-3.225v-3.225zM5.588 15.188h3.225v3.225h-3.225v-3.225zM5.588 10.387h3.225v3.225h-3.225v-3.225zM5.588 5.588h3.225v3.225h-3.225v-3.225zM13.612 12.337v-1.95h-3.225v3.225h1.95zM19.087 11.438l-0.938-0.938q-0.075-0.113-0.206-0.113t-0.244 0.113l-0.713 0.712 1.425 1.388 0.675-0.713q0.113-0.075 0.113-0.225t-0.113-0.225zM11.212 16.987v1.425h1.388l5.325-5.362-1.387-1.387zM15.188 5.588h3.225v3.225h-3.225v-3.225z"></path>
</svg>
