<!-- Generated by IcoMoon.io -->
<svg version="1.1" xmlns="http://www.w3.org/2000/svg" width="24" height="24" viewBox="0 0 24 24">
<title>assignment_late</title>
<path fill="#37352f" d="M12 6.413q0.337 0 0.563-0.244t0.225-0.581-0.225-0.563-0.563-0.225-0.563 0.225-0.225 0.563 0.225 0.581 0.563 0.244zM12.788 13.612v-4.8h-1.575v4.8h1.575zM12.788 16.8v-1.612h-1.575v1.612h1.575zM17.587 4.8q0.638 0 1.125 0.487t0.488 1.125v11.175q0 0.637-0.488 1.125t-1.125 0.488h-11.175q-0.638 0-1.125-0.488t-0.488-1.125v-11.175q0-0.637 0.488-1.125t1.125-0.487h3.338q0.262-0.713 0.863-1.162t1.387-0.45 1.388 0.45 0.862 1.162h3.337z"></path>
</svg>
