<!-- Generated by IcoMoon.io -->
<svg version="1.1" xmlns="http://www.w3.org/2000/svg" width="40" height="40" viewBox="0 0 40 40">
<title>at-brush_flat</title>
<path fill="#37352f" d="M24.974 14.239c0.16-0.493 1.026-3.257 1.026-5.239 0-2.201-1.794-3-3-3h-6c-2.201 0-3 1.794-3 3 0 1.982 0.866 4.746 1.026 5.24-0.508 0.245-1.026 0.742-1.026 1.76 0 2 3 4 3 6s-1 6-1 8c0 4 4 4 4 4s4 0 4-4c0-2-1-6-1-8s3-4 3-6c0-1.018-0.518-1.515-1.026-1.761zM15 9c0 0 0-2 2-2 0.295 0 0.637 0 1 0v2.5c0 0.276 0.224 0.5 0.5 0.5s0.5-0.224 0.5-0.5v-2.5c0.68 0 1.377 0 2 0v4.5c0 0.276 0.224 0.5 0.5 0.5s0.5-0.224 0.5-0.5v-4.5c0.604 0 1 0 1 0s2 0 2 2-1 5-1 5h-8c0 0-1-3-1-5zM20.005 33c-0.502-0.006-3.005-0.177-3.005-3 0-0.917 0.247-2.4 0.486-3.836 0.264-1.584 0.514-3.081 0.514-4.164 0-0.711-0.249-1.37-0.605-2h5.211c-0.357 0.63-0.606 1.289-0.606 2 0 1.083 0.249 2.58 0.514 4.164 0.239 1.436 0.486 2.919 0.486 3.836 0 2.823-2.503 2.994-2.995 3zM23.7 18.4c-0.148 0.198-0.297 0.398-0.442 0.6h-6.516c-0.146-0.202-0.293-0.402-0.442-0.6-0.639-0.852-1.3-1.733-1.3-2.4 0-0.805 0.55-0.988 1-1h7.992c0.461 0.013 1.008 0.197 1.008 1 0 0.667-0.661 1.548-1.3 2.4z"></path>
</svg>
