<!-- Generated by IcoMoon.io -->
<svg version="1.1" xmlns="http://www.w3.org/2000/svg" width="40" height="40" viewBox="0 0 40 40">
<title>at-marker</title>
<path fill="#37352f" d="M25.83 15.45l-1.83-2.75v-1.7c0-0.55-0.45-1-1-1h-1v-2c0-0.38-0.21-0.73-0.55-0.89l-2-1c-0.14-0.070-0.3-0.11-0.45-0.11-0.18 0-0.37 0.050-0.53 0.15-0.29 0.18-0.47 0.5-0.47 0.85v3h-1c-0.55 0-1 0.45-1 1v1.7l-1.83 2.75c-0.11 0.16-0.17 0.36-0.17 0.55v16c0 1.3 1.030 2 2 2h8c1.3 0 2-1.030 2-2v-16c0-0.19-0.060-0.39-0.17-0.55zM19 7l2 1v2h-2v-3zM25 32c0 0 0 1-1 1h-8c0 0-1 0-1-1v-1h10v1zM25 30h-10v-13h10v13zM15 16l2-3v-2h6v2l2 3h-10z"></path>
</svg>
