<!-- Generated by IcoMoon.io -->
<svg version="1.1" xmlns="http://www.w3.org/2000/svg" width="40" height="40" viewBox="0 0 40 40">
<title>at-paint</title>
<path fill="#37352f" d="M29 6h-18c-1.3 0-2 1.030-2 2v4h1v19c0 2.2 1.79 3 3 3h14c1.21 0 3-0.8 3-3v-19h1v-4c0-1.3-1.030-2-2-2zM29 31c0 2-2 2-2 2h-14c0 0-2 0-2-2v-13.010c1.26-0.050 1.97-0.29 2.66-0.52 0.73-0.24 1.42-0.47 2.84-0.47 1.35 0 1.99 0.42 2.72 0.92 0.76 0.5 1.63 1.080 3.28 1.080 1.53 0 2.37-0.49 3.19-0.96 0.81-0.47 1.649-0.94 3.31-1.020v13.98zM29 16.020c-1.93 0.080-2.93 0.65-3.81 1.15-0.77 0.45-1.43 0.83-2.69 0.83-1.35 0-1.99-0.42-2.72-0.92-0.76-0.5-1.63-1.080-3.28-1.080-1.58 0-2.38 0.27-3.16 0.53-0.64 0.21-1.25 0.41-2.34 0.46v-4.99h18v4.020zM30 11h-20v-3c0 0 0-1 1-1h18c0 0 1 0 1 1v3z"></path>
</svg>
