<!-- Generated by IcoMoon.io -->
<svg version="1.1" xmlns="http://www.w3.org/2000/svg" width="24" height="24" viewBox="0 0 24 24">
<title>ballot</title>
<path fill="#37352f" d="M7.988 13.612h2.4v2.4h-2.4v-2.4zM7.2 16.8h4.012v-4.012h-4.012v4.012zM7.988 7.988h2.4v2.4h-2.4v-2.4zM7.2 11.212h4.012v-4.012h-4.012v4.012zM17.587 19.2h-11.175q-0.638 0-1.125-0.488t-0.488-1.125v-11.175q0-0.637 0.488-1.125t1.125-0.487h11.175q0.638 0 1.125 0.487t0.488 1.125v11.175q0 0.637-0.488 1.125t-1.125 0.488zM12.788 15.6h4.012v-1.613h-4.012v1.613zM12.788 10.012h4.012v-1.613h-4.012v1.613z"></path>
</svg>
