<!-- Generated by IcoMoon.io -->
<svg version="1.1" xmlns="http://www.w3.org/2000/svg" width="24" height="24" viewBox="0 0 24 24">
<title>battery_unknown</title>
<path fill="#37352f" d="M13.837 12.563q0.563-0.563 0.563-1.35 0-0.975-0.712-1.688t-1.688-0.712-1.688 0.712-0.712 1.688h1.2q0-0.487 0.337-0.844t0.863-0.356 0.862 0.356 0.338 0.844-0.338 0.825l-0.75 0.75q-0.75 0.75-0.75 1.612h1.275q0-0.6 0.675-1.275zM12.75 16.763v-1.538h-1.5v1.538h1.5zM14.925 5.588q0.45 0 0.769 0.319t0.319 0.769v12.262q0 0.45-0.319 0.75t-0.769 0.3h-5.85q-0.45 0-0.769-0.3t-0.319-0.75v-12.263q0-0.45 0.319-0.769t0.769-0.319h1.313v-1.575h3.225v1.575h1.313z"></path>
</svg>
