<!-- Generated by IcoMoon.io -->
<svg version="1.1" xmlns="http://www.w3.org/2000/svg" width="24" height="24" viewBox="0 0 24 24">
<title>blur_off</title>
<path fill="#37352f" d="M4.8 13.2q0.412 0 0.412 0.412 0 0.375-0.412 0.375t-0.413-0.375q0-0.412 0.413-0.412zM7.2 16.013q0.338 0 0.563 0.225t0.225 0.563-0.225 0.563-0.563 0.225-0.563-0.225-0.225-0.563 0.225-0.563 0.563-0.225zM10.387 18.788q0.413 0 0.413 0.413t-0.413 0.412q-0.375 0-0.375-0.412t0.375-0.413zM4.8 10.012q0.412 0 0.412 0.375 0 0.413-0.412 0.413t-0.413-0.413q0-0.375 0.413-0.375zM7.2 12.788q0.338 0 0.563 0.244t0.225 0.581-0.225 0.563-0.563 0.225-0.563-0.225-0.225-0.563 0.225-0.581 0.563-0.244zM19.2 13.2q0.412 0 0.412 0.412 0 0.375-0.412 0.375t-0.413-0.375q0-0.412 0.413-0.412zM10.387 16.013q0.338 0 0.581 0.225t0.244 0.563-0.244 0.563-0.581 0.225-0.563-0.225-0.225-0.563 0.225-0.563 0.563-0.225zM4.387 6.6l1.013-1.013 13.013 13.013-1.050 1.013-3-3.038q0.038 0.075 0.038 0.225 0 0.337-0.225 0.563t-0.563 0.225-0.581-0.225-0.244-0.563 0.244-0.563 0.581-0.225q0.15 0 0.225 0.038l-2.25-2.25q-0.075 0.413-0.413 0.712t-0.787 0.3q-0.488 0-0.844-0.356t-0.356-0.844q0-0.45 0.3-0.787t0.713-0.412l-2.25-2.25q0.038 0.075 0.038 0.225 0 0.338-0.225 0.581t-0.563 0.244-0.563-0.244-0.225-0.581 0.225-0.563 0.563-0.225l0.225 0.037zM13.612 18.788q0.375 0 0.375 0.413t-0.375 0.412q-0.412 0-0.412-0.412t0.412-0.413zM16.8 7.988q-0.337 0-0.563-0.225t-0.225-0.563 0.225-0.563 0.563-0.225 0.563 0.225 0.225 0.563-0.225 0.563-0.563 0.225zM16.8 11.212q-0.337 0-0.563-0.244t-0.225-0.581 0.225-0.563 0.563-0.225 0.563 0.225 0.225 0.563-0.225 0.581-0.563 0.244zM16.8 14.4q-0.337 0-0.563-0.225t-0.225-0.563 0.225-0.581 0.563-0.244 0.563 0.244 0.225 0.581-0.225 0.563-0.563 0.225zM10.387 7.988q-0.337 0-0.563-0.225t-0.225-0.563 0.225-0.563 0.563-0.225 0.581 0.225 0.244 0.563-0.244 0.563-0.581 0.225zM19.2 10.8q-0.413 0-0.413-0.413 0-0.375 0.413-0.375t0.412 0.375q0 0.413-0.412 0.413zM10.387 5.213q-0.375 0-0.375-0.412t0.375-0.413q0.413 0 0.413 0.413t-0.413 0.412zM13.612 5.213q-0.412 0-0.412-0.412t0.412-0.413q0.375 0 0.375 0.413t-0.375 0.412zM13.425 11.587q-0.375-0.037-0.675-0.337t-0.337-0.675v-0.188q0-0.488 0.356-0.844t0.844-0.356 0.844 0.356 0.356 0.844-0.356 0.844-0.844 0.356h-0.188zM13.612 7.988q-0.338 0-0.581-0.225t-0.244-0.563 0.244-0.563 0.581-0.225 0.563 0.225 0.225 0.563-0.225 0.563-0.563 0.225z"></path>
</svg>
