<!-- Generated by IcoMoon.io -->
<svg version="1.1" xmlns="http://www.w3.org/2000/svg" width="40" height="40" viewBox="0 0 40 40">
<title>bm-arrow-down-square</title>
<path fill="#37352f" d="M34 32c0 1.1-0.896 2-2 2h-24c-1.104 0-2-0.9-2-2v-24c0-1.104 0.896-2 2-2h24c1.104 0 2 0.896 2 2v24zM32 4h-24c-2.209 0-4 1.791-4 4v24c0 2.21 1.791 4 4 4h24c2.209 0 4-1.79 4-4v-24c0-2.209-1.791-4-4-4v0zM25.121 20.465l-4.121 4.125v-10.59c0-0.553-0.447-1-1-1-0.552 0-1 0.447-1 1v10.59l-4.121-4.125c-0.391-0.391-1.024-0.391-1.414 0-0.391 0.39-0.391 1.025 0 1.415l5.656 5.66c0.24 0.24 0.568 0.31 0.879 0.25 0.311 0.060 0.639-0.010 0.879-0.25l5.656-5.66c0.391-0.39 0.391-1.025 0-1.415-0.389-0.391-1.023-0.391-1.414 0v0z"></path>
</svg>
