<!-- Generated by IcoMoon.io -->
<svg version="1.1" xmlns="http://www.w3.org/2000/svg" width="18" height="40" viewBox="0 0 18 40">
<title>bm-arrow-up-down1</title>
<path fill="#37352f" d="M16 28h-3v-16h3c0.643 0 1.293 0.020 1.687-0.38 0.393-0.39 0.393-1.020 0-1.42l-5.94-5.92c-0.21-0.21-0.488-0.3-0.763-0.28-0.274-0.020-0.552 0.070-0.762 0.28l-5.939 5.92c-0.393 0.4-0.393 1.030 0 1.42 0.393 0.4 1.011 0.38 1.717 0.38h3v16h-3c-0.643 0-1.324-0.020-1.717 0.38-0.393 0.39-0.393 1.020 0 1.42l5.939 5.92c0.21 0.21 0.488 0.3 0.762 0.28 0.275 0.020 0.553-0.070 0.763-0.28l5.94-5.92c0.393-0.4 0.393-1.030 0-1.42-0.394-0.4-0.95-0.38-1.687-0.38z"></path>
</svg>
