<!-- Generated by IcoMoon.io -->
<svg version="1.1" xmlns="http://www.w3.org/2000/svg" width="35" height="40" viewBox="0 0 35 40">
<title>bm-arrow-bottom</title>
<path fill="#37352f" d="M28 8h-3v2h3c1.104 0 2 0.896 2 2v20c0 1.104-0.896 2-2 2h-20c-1.104 0-2-0.896-2-2v-20c0-1.104 0.896-2 2-2h3v-2h-3c-2.209 0-4 1.791-4 4v20c0 2.209 1.791 4 4 4h20c2.209 0 4-1.791 4-4v-20c0-2.209-1.791-4-4-4v0zM10.343 22.758l6.899 6.899c0.209 0.208 0.486 0.297 0.758 0.282 0.272 0.015 0.549-0.074 0.758-0.282l6.899-6.899c0.391-0.391 0.391-1.025 0-1.415-0.39-0.39-1.024-0.39-1.415 0l-5.242 5.243v-21.586c0-0.553-0.447-1-1-1-0.552 0-1 0.447-1 1v21.586l-5.243-5.243c-0.39-0.39-1.024-0.39-1.414 0-0.391 0.39-0.391 1.024 0 1.415v0z"></path>
</svg>
