<!-- Generated by IcoMoon.io -->
<svg version="1.1" xmlns="http://www.w3.org/2000/svg" width="43" height="40" viewBox="0 0 43 40">
<title>bm-align-justify</title>
<path fill="#37352f" d="M37.231 13.846h-32c-0.681 0-1.231 0.551-1.231 1.231 0 0.681 0.55 1.231 1.231 1.231h32c0.681 0 1.231-0.55 1.231-1.231 0-0.679-0.55-1.231-1.231-1.231v0zM37.231 23.692h-32c-0.681 0-1.231 0.551-1.231 1.231 0 0.681 0.55 1.231 1.231 1.231h32c0.681 0 1.231-0.55 1.231-1.231 0-0.679-0.55-1.231-1.231-1.231v0zM5.231 6.462h32c0.681 0 1.231-0.55 1.231-1.231 0-0.679-0.55-1.231-1.231-1.231h-32c-0.681 0-1.231 0.551-1.231 1.231 0 0.681 0.55 1.231 1.231 1.231v0zM23.692 33.538h-18.462c-0.681 0-1.231 0.55-1.231 1.231s0.55 1.231 1.231 1.231h18.462c0.681 0 1.231-0.55 1.231-1.231s-0.55-1.231-1.231-1.231v0z"></path>
</svg>
