<!-- Generated by IcoMoon.io -->
<svg version="1.1" xmlns="http://www.w3.org/2000/svg" width="40" height="40" viewBox="0 0 40 40">
<title>bm-browser1</title>
<path fill="#37352f" d="M4 32c0 2.209 1.791 4 4 4h24c2.209 0 4-1.791 4-4v-18h-32v18zM17 10c-0.552 0-1-0.447-1-1 0-0.552 0.448-1 1-1s1 0.448 1 1c0 0.553-0.448 1-1 1v0zM13 10c-0.552 0-1-0.447-1-1 0-0.552 0.448-1 1-1s1 0.448 1 1c0 0.553-0.448 1-1 1v0zM9 10c-0.552 0-1-0.447-1-1 0-0.552 0.448-1 1-1s1 0.448 1 1c0 0.553-0.448 1-1 1v0zM32 4h-24c-2.209 0-4 1.791-4 4v4h32v-4c0-2.209-1.791-4-4-4v0z"></path>
</svg>
