<!-- Generated by IcoMoon.io -->
<svg version="1.1" xmlns="http://www.w3.org/2000/svg" width="49" height="40" viewBox="0 0 49 40">
<title>bm-basket</title>
<path fill="#37352f" d="M37.759 18.769h-6.682v-4.923h7.385l-0.703 4.923zM36.703 26.154h-5.626v-4.923h6.33l-0.704 4.923zM36 31.077c0 1.359-1.103 2.462-2.462 2.462h-2.462v-4.923h5.275l-0.352 2.462zM18.769 13.846h9.846v4.923h-9.846v-4.923zM18.769 21.231h9.846v4.923h-9.846v-4.923zM18.769 28.615h9.846v4.923h-9.846v-4.923zM16.308 18.769h-7.033l-0.352-4.923h7.385v4.923zM16.308 26.154h-6.506l-0.351-4.923h6.857v4.923zM16.308 33.538h-3.692c-1.359 0-2.462-1.103-2.462-2.462l-0.176-2.462h6.33v4.923zM42.154 11.385h-8.032l2.494-4.923h3.077c0.681 0 1.231-0.55 1.231-1.231s-0.55-1.231-1.231-1.231h-4.923l-3.796 7.385h-14.459l-3.899-7.385h-4.923c-0.681 0-1.231 0.55-1.231 1.231s0.55 1.231 1.231 1.231h3.077l2.641 4.923h-8.18c-0.681 0-1.231 0.551-1.231 1.231 0 0.681 0.55 1.231 1.231 1.231h1.231l1.231 17.231c0 2.719 2.204 4.923 4.923 4.923h20.923c2.719 0 4.923-2.204 4.923-4.923l2.462-17.231h1.231c0.681 0 1.231-0.55 1.231-1.231 0-0.679-0.55-1.231-1.231-1.231v0z"></path>
</svg>
