<!-- Generated by IcoMoon.io -->
<svg version="1.1" xmlns="http://www.w3.org/2000/svg" width="46" height="40" viewBox="0 0 46 40">
<title>bm-code1</title>
<path fill="#37352f" d="M40.575 19.423l-7.374-5.961c-0.485-0.473-1.271-0.473-1.755 0-0.485 0.473-0.485 1.238 0 1.712l6.389 5.166-6.389 5.167c-0.485 0.471-0.485 1.238 0 1.711 0.484 0.474 1.27 0.474 1.755 0l7.374-5.961c0.258-0.252 0.368-0.587 0.351-0.917 0.017-0.33-0.092-0.666-0.351-0.917v0zM13.477 25.505l-6.389-5.166 6.389-5.166c0.485-0.474 0.485-1.241 0-1.712-0.484-0.474-1.27-0.474-1.755 0l-7.374 5.961c-0.258 0.251-0.368 0.587-0.351 0.917-0.017 0.33 0.092 0.665 0.351 0.917l7.374 5.961c0.485 0.474 1.271 0.474 1.755 0 0.485-0.473 0.485-1.239 0-1.712v0zM31.028 4.151c-0.59-0.334-1.342-0.135-1.681 0.441l-15.385 29.646c-0.341 0.577-0.199 1.46 0.45 1.648 0.794 0.23 1.342 0.137 1.681-0.441l15.385-29.647c0.34-0.577 0.138-1.313-0.45-1.647v0z"></path>
</svg>
