<!-- Generated by IcoMoon.io -->
<svg version="1.1" xmlns="http://www.w3.org/2000/svg" width="40" height="40" viewBox="0 0 40 40">
<title>bm-checkmark-circle</title>
<path fill="#37352f" d="M26.027 13.070c-0.479-0.28-1.090-0.11-1.366 0.36l-6.395 11.080-3.578-3.3c-0.378-0.4-1.011-0.42-1.414-0.040-0.403 0.37-0.424 1.010-0.046 1.41l4.572 4.22c0.377 0.4 1.010 0.42 1.413 0.040 0.122-0.11 7.18-12.41 7.18-12.41 0.276-0.47 0.112-1.090-0.366-1.36v0zM20 34c-7.732 0-14-6.27-14-14s6.268-14 14-14c7.732 0 14 6.27 14 14s-6.268 14-14 14v0zM20 4c-8.836 0-16 7.16-16 16s7.164 16 16 16c8.836 0 16-7.16 16-16s-7.164-16-16-16v0z"></path>
</svg>
