<!-- Generated by IcoMoon.io -->
<svg version="1.1" xmlns="http://www.w3.org/2000/svg" width="40" height="40" viewBox="0 0 40 40">
<title>bm-chevron-up-square1</title>
<path fill="#37352f" d="M29.718 25.69c-0.393 0.39-1.030 0.39-1.423 0l-8.279-8.314-8.28 8.314c-0.392 0.39-1.029 0.39-1.423 0-0.392-0.4-0.392-1.040 0-1.43l8.941-8.976c0.21-0.211 0.487-0.301 0.762-0.286 0.274-0.015 0.552 0.075 0.761 0.286l8.941 8.976c0.392 0.39 0.392 1.030 0 1.43v0zM32 4h-24c-2.209 0-4 1.791-4 4v24c0 2.21 1.791 4 4 4h24c2.209 0 4-1.79 4-4v-24c0-2.209-1.791-4-4-4v0z"></path>
</svg>
