<!-- Generated by IcoMoon.io -->
<svg version="1.1" xmlns="http://www.w3.org/2000/svg" width="39" height="40" viewBox="0 0 39 40">
<title>bm-cocktail1</title>
<path fill="#37352f" d="M20 21.143l-12.465-14.857h23.874l-11.409 14.857zM34.459 6.003c0.238-0.21 0.398-0.511 0.398-0.861 0-0.493-0.304-0.903-0.725-1.064-0.165-0.070-0.341-0.090-0.517-0.079h-28.411c-0.318-0.021-0.64 0.080-0.883 0.323-0.447 0.449-0.447 1.177 0 1.627l14.536 17.478v10.286h-4.571c-0.632 0-1.143 0.512-1.143 1.143 0 0.632 0.511 1.143 1.143 1.143h11.429c0.632 0 1.143-0.511 1.143-1.143 0-0.631-0.511-1.143-1.143-1.143h-4.571v-10.286l13.317-17.425z"></path>
</svg>
