<!-- Generated by IcoMoon.io -->
<svg version="1.1" xmlns="http://www.w3.org/2000/svg" width="40" height="40" viewBox="0 0 40 40">
<title>bm-comment-3</title>
<path fill="#37352f" d="M28 20c-1.104 0-2-0.896-2-2s0.896-2 2-2c1.104 0 2 0.896 2 2s-0.896 2-2 2v0zM20 20c-1.104 0-2-0.896-2-2s0.896-2 2-2c1.104 0 2 0.896 2 2s-0.896 2-2 2v0zM12 20c-1.104 0-2-0.896-2-2s0.896-2 2-2c1.104 0 2 0.896 2 2s-0.896 2-2 2v0zM20 4c-8.836 0-16 6.269-16 14 0 4.419 2.345 8.354 6 10.919v7.081l7.009-4.253c0.97 0.16 1.968 0.253 2.991 0.253 8.836 0 16-6.268 16-14s-7.164-14-16-14v0z"></path>
</svg>
