<!-- Generated by IcoMoon.io -->
<svg version="1.1" xmlns="http://www.w3.org/2000/svg" width="40" height="40" viewBox="0 0 40 40">
<title>bm-compass</title>
<path fill="#37352f" d="M23.5 21.014l-1.847-1.067 0.988-4.91-3.759 3.31-1.847-1.067 7.87-6.163-1.404 9.897zM17.867 20.533c0-0.883 0.717-1.6 1.6-1.6s1.6 0.717 1.6 1.6c0 0.883-0.717 1.6-1.6 1.6s-1.6-0.717-1.6-1.6v0zM14.031 29.949l1.403-9.897 1.847 1.067-0.988 4.91 3.759-3.31 1.847 1.067-7.869 6.163zM20.006 4.013c-8.833 0-15.994 7.162-15.994 15.994 0 8.833 7.161 15.994 15.994 15.994s15.994-7.161 15.994-15.994c0-8.832-7.161-15.994-15.994-15.994v0z"></path>
</svg>
