<!-- Generated by IcoMoon.io -->
<svg version="1.1" xmlns="http://www.w3.org/2000/svg" width="40" height="40" viewBox="0 0 40 40">
<title>bm-crosshair1</title>
<path fill="#37352f" d="M21.067 33.812v-5.279c0-0.589-0.477-1.067-1.067-1.067s-1.067 0.478-1.067 1.067v5.279c-6.805-0.518-12.229-5.941-12.749-12.746h5.282c0.59 0 1.067-0.477 1.067-1.067s-0.477-1.067-1.067-1.067h-5.282c0.519-6.804 5.943-12.227 12.749-12.746v5.279c0 0.59 0.477 1.067 1.067 1.067s1.067-0.477 1.067-1.067v-5.279c6.805 0.518 12.229 5.941 12.749 12.746h-5.282c-0.59 0-1.067 0.477-1.067 1.067s0.477 1.067 1.067 1.067h5.282c-0.519 6.804-5.943 12.227-12.749 12.746v0zM20 4c-8.836 0-16 7.164-16 16s7.164 16 16 16c8.836 0 16-7.164 16-16s-7.164-16-16-16v0z"></path>
</svg>
