<!-- Generated by IcoMoon.io -->
<svg version="1.1" xmlns="http://www.w3.org/2000/svg" width="49" height="40" viewBox="0 0 49 40">
<title>bm-dinner</title>
<path fill="#37352f" d="M6.462 28.615c0-9.516 7.714-17.231 17.231-17.231s17.231 7.714 17.231 17.231h-34.462zM24.923 8.923v-2.462h2.462c0.681 0 1.231-0.55 1.231-1.231 0-0.679-0.55-1.231-1.231-1.231h-7.385c-0.681 0-1.231 0.551-1.231 1.231 0 0.681 0.55 1.231 1.231 1.231h2.462c0 0-0.009 2.562 0 2.462-10.299 0.639-18.462 9.232-18.462 19.692v1.231c0 0.681 0.55 1.231 1.231 1.231h36.923c0.681 0 1.231-0.55 1.231-1.231v-1.231c0-10.46-8.162-19.054-18.462-19.692v0zM42.154 33.538h-36.923c-0.681 0-1.231 0.551-1.231 1.231 0 0.681 0.55 1.231 1.231 1.231h36.923c0.681 0 1.231-0.55 1.231-1.231 0-0.679-0.55-1.231-1.231-1.231v0z"></path>
</svg>
