<!-- Generated by IcoMoon.io -->
<svg version="1.1" xmlns="http://www.w3.org/2000/svg" width="40" height="40" viewBox="0 0 40 40">
<title>bm-envelope-open</title>
<path fill="#37352f" d="M20 27l-3.258-2.24-10.419 10.861c0.512 0.237 1.076 0.379 1.677 0.379h24c0.601 0 1.165-0.142 1.677-0.379l-10.419-10.861-3.258 2.24zM24.935 23.607l10.355 10.663c0.446-0.646 0.71-1.426 0.71-2.27v-16.683l-11.065 8.29zM35.76 12.851l-15.76-8.851-15.76 8.851 15.76 11.805 15.76-11.805zM4 15v17c0 0.844 0.264 1.624 0.71 2.27l10.356-10.663-11.066-8.607z"></path>
</svg>
