<!-- Generated by IcoMoon.io -->
<svg version="1.1" xmlns="http://www.w3.org/2000/svg" width="41" height="40" viewBox="0 0 41 40">
<title>bm-fill-194</title>
<path fill="#37352f" d="M36 19.982h-16c-0.632 0-1.143 0.513-1.143 1.144 0 0.632 0.511 1.144 1.143 1.144h16c0.632 0 1.143-0.512 1.143-1.144 0-0.631-0.511-1.144-1.143-1.144v0zM36 13.118l-9.143 0.025c-0.632 0-1.143 0.487-1.143 1.119s0.511 1.167 1.143 1.167l9.143-0.024c0.632 0 1.143-0.511 1.143-1.143s-0.511-1.144-1.143-1.144v0zM36 26.847h-16c-0.632 0-1.143 0.512-1.143 1.144s0.511 1.144 1.143 1.144h16c0.632 0 1.143-0.512 1.143-1.144s-0.511-1.144-1.143-1.144v0zM22.286 8.571h13.714c0.632 0 1.143-0.543 1.143-1.174 0-0.633-0.511-1.145-1.143-1.145h-13.714c-0.632 0-1.143 0.512-1.143 1.145 0 0.631 0.511 1.174 1.143 1.174v0zM21.928 15.082c0.448-0.449 0.448-1.178 0-1.63l-7.934-9.129c-0.24-0.24-0.557-0.343-0.87-0.326-0.312-0.017-0.629 0.086-0.869 0.326l-7.934 9.129c-0.448 0.451-0.448 1.181 0 1.63 0.448 0.45 1.175 0.45 1.622 0l6.056-6.967v27.885h2.286v-27.845l6.021 6.927c0.447 0.45 1.174 0.45 1.622 0v0zM36 33.714h-16c-0.632 0-1.143 0.51-1.143 1.142s0.511 1.144 1.143 1.144h16c0.632 0 1.143-0.512 1.143-1.144s-0.511-1.142-1.143-1.142v0z"></path>
</svg>
