<!-- Generated by IcoMoon.io -->
<svg version="1.1" xmlns="http://www.w3.org/2000/svg" width="41" height="40" viewBox="0 0 41 40">
<title>bm-fill-195</title>
<path fill="#37352f" d="M36 17.73h-16c-0.632 0-1.143 0.512-1.143 1.144 0 0.631 0.511 1.126 1.143 1.126l16 0.018c0.632 0 1.143-0.513 1.143-1.144 0-0.632-0.511-1.144-1.143-1.144v0zM36 10.865h-16c-0.632 0-1.143 0.512-1.143 1.144s0.511 1.134 1.143 1.134h16c0.632 0 1.143-0.502 1.143-1.134s-0.511-1.144-1.143-1.144v0zM36 24.595h-9.143c-0.632 0-1.143 0.512-1.143 1.143 0 0.632 0.511 1.119 1.143 1.119h9.143c0.632 0 1.143-0.487 1.143-1.119 0-0.631-0.511-1.143-1.143-1.143v0zM36 31.459h-13.714c-0.632 0-1.143 0.513-1.143 1.144 0 0.632 0.511 1.144 1.143 1.144l13.714-0.033c0.632 0 1.143-0.479 1.143-1.111 0-0.631-0.511-1.144-1.143-1.144v0zM20 6.288l16-0.002c0.632 0 1.143-0.51 1.143-1.142s-0.511-1.144-1.143-1.144h-16c-0.632 0-1.143 0.512-1.143 1.144s0.511 1.144 1.143 1.144v0zM21.928 24.918c-0.448-0.45-1.175-0.45-1.622 0l-6.021 6.927v-27.845h-2.286v27.886l-6.056-6.968c-0.447-0.45-1.174-0.45-1.622 0s-0.448 1.179 0 1.63l7.934 9.129c0.24 0.24 0.557 0.343 0.869 0.326 0.313 0.017 0.63-0.086 0.87-0.326l7.934-9.129c0.448-0.45 0.448-1.179 0-1.63v0z"></path>
</svg>
