<!-- Generated by IcoMoon.io -->
<svg version="1.1" xmlns="http://www.w3.org/2000/svg" width="25" height="40" viewBox="0 0 25 40">
<title>bm-locked1</title>
<path fill="#37352f" d="M20 18.014c-1.673-1.259-3.745-2.014-6-2.014-2.254 0-4.327 0.755-6 2.014v-6.014c0-3.313 2.687-6 6-6s6 2.687 6 6v6.014zM15 29c0 0.553-0.447 1-1 1s-1-0.447-1-1v-4c0-0.552 0.447-1 1-1s1 0.448 1 1v4zM22 20.019v-8.019c0-4.418-3.582-8-8-8s-8 3.582-8 8v8.019c-1.25 1.669-2 3.735-2 5.981 0 5.523 4.478 10 10 10s10-4.477 10-10c0-2.246-0.75-4.312-2-5.981v0z"></path>
</svg>
