<!-- Generated by IcoMoon.io -->
<svg version="1.1" xmlns="http://www.w3.org/2000/svg" width="43" height="40" viewBox="0 0 43 40">
<title>bm-music-note-3</title>
<path fill="#37352f" d="M37.067 4c-0.153 0.052-18.133 4.267-18.133 4.267-0.59 0.144-1.067 0.478-1.067 1.067v14.935c-2.241-1.457-5.843-1.455-9.056 0.254-4.057 2.158-5.92 6.177-4.164 8.98 1.757 2.802 6.468 3.325 10.524 1.168 2.614-1.391 4.419-4.025 4.83-6.138 0.071-0.144 0-18.384 0-18.384l16-3.765v13.618c-2.241-1.457-5.843-1.455-9.056 0.254-4.057 2.158-5.92 6.177-4.164 8.98 1.757 2.802 6.468 3.325 10.524 1.168 2.614-1.391 4.419-4.025 4.83-6.138v-19.2c0-0.59-0.477-1.266-1.067-1.067z"></path>
</svg>
