<!-- Generated by IcoMoon.io -->
<svg version="1.1" xmlns="http://www.w3.org/2000/svg" width="43" height="40" viewBox="0 0 43 40">
<title>bm-misty-moon1</title>
<path fill="#37352f" d="M37.067 25.333h-15.537c-0.279-1.204-0.463-2.444-0.463-3.733 0-7.337 4.782-13.547 11.397-15.71-2.293-1.201-4.896-1.89-7.664-1.89-9.132 0-16.533 7.402-16.533 16.533 0 1.669 0.253 3.28 0.714 4.8h-3.914c-0.59 0-1.067 0.478-1.067 1.067 0 0.59 0.477 1.067 1.067 1.067h32c0.59 0 1.067-0.477 1.067-1.067 0-0.589-0.477-1.067-1.067-1.067v0zM24.267 29.6h-14.933c-0.59 0-1.067 0.477-1.067 1.067s0.477 1.067 1.067 1.067h14.933c0.59 0 1.067-0.477 1.067-1.067s-0.477-1.067-1.067-1.067v0zM22.133 33.867h-10.667c-0.59 0-1.067 0.478-1.067 1.067 0 0.59 0.477 1.067 1.067 1.067h10.667c0.59 0 1.067-0.477 1.067-1.067 0-0.589-0.477-1.067-1.067-1.067v0z"></path>
</svg>
