<!-- Generated by IcoMoon.io -->
<svg version="1.1" xmlns="http://www.w3.org/2000/svg" width="43" height="40" viewBox="0 0 43 40">
<title>bm-megaphone1</title>
<path fill="#37352f" d="M36 29.6l-7.467-5.333v-12.8l7.467-5.333v23.467zM26.4 23.2h-3.2v-10.667h3.2v10.667zM21.067 23.2h-8.533c-2.121 0-6.4-0.621-6.4-5.333s4.209-5.403 6.4-5.333h8.533v10.667zM15.733 32.8c0 0.59-0.478 1.067-1.067 1.067h-1.067c-0.589 0-1.067-0.477-1.067-1.067v-7.467h3.2v7.467zM36 4l-9.6 6.4h-13.867c-4.713 0-8.533 2.754-8.533 7.467 0 3.982 2.711 6.762 6.4 7.467 0.048 0.288 0 8.533 0 8.533 0 1.178 0.956 2.133 2.133 2.133h3.2c1.178 0 2.133-0.956 2.133-2.133v-8.533h8.533l9.6 6.4c1.178 0 2.133-0.956 2.133-2.133v-23.467c0-1.178-0.956-2.133-2.133-2.133v0z"></path>
</svg>
