<!-- Generated by IcoMoon.io -->
<svg version="1.1" xmlns="http://www.w3.org/2000/svg" width="40" height="40" viewBox="0 0 40 40">
<title>bm-map1</title>
<path fill="#37352f" d="M28 21c0 0.553 0.448 1 1 1s1-0.447 1-1v-8c0-0.552-0.448-1-1-1s-1 0.448-1 1v8zM34 30.5l-6-4.5-8 6-8-3-6 3.75v-20l6-3.75 8 3 8-6 6 4.5v20zM28 4l-8 6-8-3-8 5v24l8-5 8 3 8-6 8 6v-24l-8-6zM21 17c-0.552 0-1 0.448-1 1v6c0 0.553 0.448 1 1 1s1-0.447 1-1v-6c0-0.552-0.448-1-1-1v0zM13 14c-0.552 0-1 0.448-1 1v10c0 0.553 0.448 1 1 1s1-0.447 1-1v-10c0-0.552-0.448-1-1-1v0z"></path>
</svg>
