<!-- Generated by IcoMoon.io -->
<svg version="1.1" xmlns="http://www.w3.org/2000/svg" width="53" height="40" viewBox="0 0 53 40">
<title>bm-mail</title>
<path fill="#37352f" d="M44 30.667c0 0.271-0.052 0.527-0.127 0.771l-11.873-12.771 12-9.333v21.333zM8.741 33.261l12.032-12.821 4.56 3.447 4.363-3.468 12.229 12.843c-0.191 0.044-32.993 0.044-33.184 0v0zM6.667 30.667v-21.333l12 9.333-11.873 12.771c-0.075-0.244-0.127-0.5-0.127-0.771v0zM42.667 6.667l-17.333 13.333-17.333-13.333h34.667zM41.333 4h-32c-2.945 0-5.333 2.388-5.333 5.333v21.333c0 2.945 2.388 5.333 5.333 5.333h32c2.945 0 5.333-2.388 5.333-5.333v-21.333c0-2.945-2.388-5.333-5.333-5.333v0z"></path>
</svg>
