<!-- Generated by IcoMoon.io -->
<svg version="1.1" xmlns="http://www.w3.org/2000/svg" width="46" height="40" viewBox="0 0 46 40">
<title>bm-print1</title>
<path fill="#37352f" d="M38.286 28c0 1.262-1.024 2.286-2.286 2.286h-2.286c-0.51-1.969-2.443-3.429-4.571-3.429h-13.714c-2.128 0-4.062 1.459-4.571 3.429h-2.286c-1.262 0-2.286-1.024-2.286-2.286v-2.286c0-1.262 1.024-2.286 2.286-2.286h27.429c1.262 0 2.286 1.024 2.286 2.286v2.286zM36 21.143h-27.429c-2.525 0-4.571 2.047-4.571 4.571v2.286c0 2.525 2.047 4.571 4.571 4.571h2.286c0.51 1.969 2.443 3.429 4.571 3.429h13.714c2.128 0 4.062-1.459 4.571-3.429h2.286c2.525 0 4.571-2.047 4.571-4.571v-2.286c0-2.525-2.047-4.571-4.571-4.571v0zM33.714 8.571c0-2.525-2.047-4.571-4.571-4.571h-13.714c-2.525 0-4.571 2.047-4.571 4.571v10.286h22.857v-10.286z"></path>
</svg>
