<!-- Generated by IcoMoon.io -->
<svg version="1.1" xmlns="http://www.w3.org/2000/svg" width="37" height="40" viewBox="0 0 37 40">
<title>bm-share</title>
<path fill="#37352f" d="M27.385 23.692c-2.178 0-4.080 1.138-5.174 2.846l-6.591-3.766c0.426-0.837 0.688-1.77 0.688-2.772 0-0.619-0.119-1.205-0.289-1.769l6.857-3.918c1.124 1.218 2.721 1.994 4.51 1.994 3.399 0 6.154-2.754 6.154-6.154s-2.754-6.154-6.154-6.154c-3.399 0-6.154 2.754-6.154 6.154 0 0.619 0.119 1.205 0.289 1.77l-6.857 3.916c-1.124-1.217-2.721-1.994-4.51-1.994-3.399 0-6.154 2.754-6.154 6.154s2.754 6.154 6.154 6.154c1.403 0 2.682-0.487 3.717-1.278l7.428 4.305c-0.025 0.222-0.068 0.436-0.068 0.665 0 3.399 2.754 6.154 6.154 6.154s6.154-2.754 6.154-6.154c0-3.399-2.754-6.154-6.154-6.154z"></path>
</svg>
