<!-- Generated by IcoMoon.io -->
<svg version="1.1" xmlns="http://www.w3.org/2000/svg" width="40" height="40" viewBox="0 0 40 40">
<title>bm-settings1</title>
<path fill="#37352f" d="M20 25.333c-2.922 0-5.289-2.387-5.289-5.333s2.367-5.333 5.289-5.333c2.922 0 5.29 2.387 5.29 5.333s-2.368 5.333-5.29 5.333v0zM34.942 23.772l-2.478-1.442c0.139-0.757 0.23-1.531 0.23-2.33 0-0.798-0.092-1.572-0.23-2.33l2.478-1.442c1.012-0.589 1.358-1.894 0.773-2.914l-2.115-3.695c-0.583-1.020-1.878-1.371-2.89-0.781l-2.503 1.456c-1.169-1.003-2.498-1.823-3.975-2.351v-1.81c0-1.178-0.947-2.133-2.116-2.133h-4.23c-1.169 0-2.116 0.956-2.116 2.133v1.81c-1.477 0.528-2.806 1.348-3.975 2.351l-2.503-1.456c-1.011-0.59-2.306-0.239-2.89 0.781l-2.115 3.695c-0.585 1.020-0.238 2.325 0.773 2.914l2.478 1.442c-0.139 0.757-0.23 1.532-0.23 2.33 0 0.799 0.092 1.572 0.23 2.33l-2.478 1.442c-1.011 0.589-1.358 1.894-0.773 2.914l2.115 3.695c0.583 1.020 1.878 1.371 2.89 0.781l2.503-1.456c1.169 1.003 2.498 1.824 3.975 2.351v1.81c0 1.178 0.947 2.133 2.116 2.133h4.23c1.169 0 2.116-0.956 2.116-2.133v-1.81c1.477-0.527 2.806-1.348 3.975-2.351l2.503 1.456c1.011 0.59 2.306 0.239 2.89-0.781l2.115-3.695c0.585-1.020 0.239-2.325-0.773-2.914v0zM20 16.8c-1.753 0-3.173 1.434-3.173 3.2 0 1.767 1.421 3.2 3.173 3.2s3.173-1.433 3.173-3.2c0-1.766-1.421-3.2-3.173-3.2v0z"></path>
</svg>
