<!-- Generated by IcoMoon.io -->
<svg version="1.1" xmlns="http://www.w3.org/2000/svg" width="40" height="40" viewBox="0 0 40 40">
<title>bm-tools</title>
<path fill="#37352f" d="M35.103 9.728c-0.54 0.606-1.436 1.377-2.72 2.551-1.36 1.357-3.285 1.357-4.645 0-1.361-1.359-1.361-3.279 0-4.637 1.253-1.251 2.601-2.733 2.579-2.739-3.643-1.678-8.096-1.029-11.098 1.966-2.736 2.73-3.516 6.661-2.365 10.086l-11.574 11.552c-1.711 1.707-1.711 4.475 0 6.181s4.484 1.707 6.195 0l11.573-11.551c3.435 1.151 7.374 0.37 10.11-2.359 2.997-2.992 3.62-7.419 1.945-11.051z"></path>
</svg>
