<!-- Generated by IcoMoon.io -->
<svg version="1.1" xmlns="http://www.w3.org/2000/svg" width="35" height="40" viewBox="0 0 35 40">
<title>bm-timer1</title>
<path fill="#37352f" d="M17.867 25.333c-1.767 0-3.2-1.433-3.2-3.2 0-1.392 0.894-2.563 2.133-3.004v-5.53c0-0.589 0.477-1.067 1.067-1.067s1.067 0.478 1.067 1.067v5.53c1.239 0.441 2.133 1.612 2.133 3.004 0 1.767-1.433 3.2-3.2 3.2v0zM18.923 8.32l0.011-2.187h4.267c0.59 0 1.067-0.477 1.067-1.067s-0.477-1.067-1.067-1.067h-10.667c-0.59 0-1.067 0.477-1.067 1.067s0.477 1.067 1.067 1.067h4.267v2.133l0.011 0.053c-7.163 0.542-12.811 6.511-12.811 13.813 0 7.659 6.208 13.867 13.867 13.867s13.867-6.208 13.867-13.867c0-7.302-5.648-13.271-12.811-13.813v0z"></path>
</svg>
