<!-- Generated by IcoMoon.io -->
<svg version="1.1" xmlns="http://www.w3.org/2000/svg" width="33" height="40" viewBox="0 0 33 40">
<title>bm-trash</title>
<path fill="#37352f" d="M27 12h-20c-0.552 0-1-0.447-1-1 0-0.552 0.448-1 1-1h20c0.552 0 1 0.448 1 1 0 0.553-0.448 1-1 1v0zM26 32c0 1.104-0.896 2-2 2h-14c-1.104 0-2-0.896-2-2v-18h18v18zM14 7c0-0.553 0.448-1 1-1h4c0.552 0 1 0.447 1 1v1h-6v-1zM28 8h-6v-2c0-1.104-0.896-2-2-2h-6c-1.104 0-2 0.896-2 2v2h-6c-1.104 0-2 0.896-2 2v2c0 1.104 0.896 2 2 2v18c0 2.209 1.791 4 4 4h14c2.209 0 4-1.791 4-4v-18c1.104 0 2-0.896 2-2v-2c0-1.104-0.896-2-2-2v0zM17 32c0.552 0 1-0.447 1-1v-12c0-0.552-0.448-1-1-1s-1 0.448-1 1v12c0 0.553 0.448 1 1 1v0zM12 32c0.552 0 1-0.447 1-1v-12c0-0.552-0.448-1-1-1s-1 0.448-1 1v12c0 0.553 0.448 1 1 1v0zM22 32c0.552 0 1-0.447 1-1v-12c0-0.552-0.448-1-1-1s-1 0.448-1 1v12c0 0.553 0.448 1 1 1v0z"></path>
</svg>
