<!-- Generated by IcoMoon.io -->
<svg version="1.1" xmlns="http://www.w3.org/2000/svg" width="36" height="40" viewBox="0 0 36 40">
<title>bm-wallet1</title>
<path fill="#37352f" d="M31.151 22.424h-4.849c-0.535 0-0.97 0.434-0.97 0.97v3.879c0 0.536 0.434 0.97 0.97 0.97h4.849v4.849c0 0.536-0.434 0.97-0.97 0.97h-23.273c-0.535 0-0.97-0.433-0.97-0.97v-18.424h24.242c0.535 0 0.97 0.433 0.97 0.97v6.788zM31.151 25.333v0.97h-3.879v-1.939h3.879v0.97zM29.212 6.909v5.818h-18.909l18.909-5.818zM31.151 12.727v-6.788c0-0.536-0.229-0.833-0.727-1.030-0.384-0.152-0.757-0.061-1.212 0.060l-25.212 7.758v21.333c0 1.071 0.869 1.939 1.939 1.939h25.212c1.071 0 1.939-0.869 1.939-1.939v-19.394c0-1.071-0.869-1.939-1.939-1.939v0z"></path>
</svg>
