<!-- Generated by IcoMoon.io -->
<svg version="1.1" xmlns="http://www.w3.org/2000/svg" width="40" height="40" viewBox="0 0 40 40">
<title>bm-zoom-in1</title>
<path fill="#37352f" d="M22.519 18.41h-3.997v4c0 0.56-0.447 1-0.999 1s-0.999-0.44-0.999-1v-4h-3.995c-0.551 0-0.999-0.71-0.999-1.27 0-0.55 0.448-0.73 0.999-0.73h3.995v-4c0-0.56 0.448-1 0.999-1 0.552 0 0.999 0.44 0.999 1v4h3.997c0.551 0 0.999 0.45 0.999 1s-0.448 1-0.999 1v0zM35.688 34.25l-8.259-8.13c2.163-2.35 3.491-5.45 3.491-8.87 0-7.32-6.026-13.25-13.46-13.25s-13.46 5.93-13.46 13.25c0 7.31 6.026 13.24 13.46 13.24 3.212 0 6.158-1.11 8.472-2.96l8.293 8.16c0.404 0.4 1.059 0.4 1.463 0 0.405-0.39 0.405-1.040 0-1.44v0z"></path>
</svg>
