<!-- Generated by IcoMoon.io -->
<svg version="1.1" xmlns="http://www.w3.org/2000/svg" width="24" height="24" viewBox="0 0 24 24">
<title>business_center</title>
<path fill="#37352f" d="M13.612 7.988v-1.575h-3.225v1.575h3.225zM18.413 7.988q0.637 0 1.106 0.488t0.469 1.125v2.4q0 0.638-0.469 1.125t-1.106 0.487h-4.8v-1.613h-3.225v1.613h-4.8q-0.675 0-1.125-0.469t-0.45-1.144v-2.4q0-0.637 0.469-1.125t1.106-0.488h3.188v-1.575l1.613-1.613h3.188l1.612 1.613v1.575h3.225zM10.387 15.188h3.225v-0.788h5.588v3.188q0 0.675-0.469 1.144t-1.144 0.469h-11.175q-0.675 0-1.144-0.469t-0.469-1.144v-3.188h5.588v0.788z"></path>
</svg>
