<!-- Generated by IcoMoon.io -->
<svg version="1.1" xmlns="http://www.w3.org/2000/svg" width="24" height="24" viewBox="0 0 24 24">
<title>call</title>
<path fill="#37352f" d="M18.413 14.7q0.337 0 0.563 0.225t0.225 0.563v2.775q0 0.938-0.788 0.938-5.588 0-9.6-4.013t-4.012-9.6q0-0.787 0.938-0.787h2.775q0.338 0 0.563 0.225t0.225 0.563q0 1.462 0.45 2.812 0.15 0.488-0.188 0.825l-1.537 1.35q1.725 3.6 5.513 5.438l1.237-1.575q0.225-0.225 0.563-0.225 0.188 0 0.263 0.038 1.35 0.45 2.812 0.45z"></path>
</svg>
