<!-- Generated by IcoMoon.io -->
<svg version="1.1" xmlns="http://www.w3.org/2000/svg" width="24" height="24" viewBox="0 0 24 24">
<title>camera_enhance</title>
<path fill="#37352f" d="M12 16.013l-1.012-2.213-2.175-1.012 2.175-0.975 1.012-2.212 1.013 2.212 2.175 0.975-2.175 1.012zM12 16.8q1.65 0 2.831-1.181t1.181-2.831-1.181-2.813-2.831-1.163-2.831 1.163-1.181 2.813 1.181 2.831 2.831 1.181zM9.6 4.8h4.8l1.462 1.612h2.55q0.637 0 1.106 0.469t0.469 1.106v9.6q0 0.637-0.469 1.125t-1.106 0.488h-12.825q-0.638 0-1.106-0.488t-0.469-1.125v-9.6q0-0.638 0.469-1.106t1.106-0.469h2.55z"></path>
</svg>
