<!-- Generated by IcoMoon.io -->
<svg version="1.1" xmlns="http://www.w3.org/2000/svg" width="24" height="24" viewBox="0 0 24 24">
<title>cancel_schedule_send</title>
<path fill="#37352f" d="M17.025 13.612l0.563 0.563-1.425 1.425 1.425 1.425-0.563 0.563-1.425-1.425-1.425 1.425-0.563-0.563 1.425-1.425-1.425-1.425 0.563-0.563 1.425 1.425zM15.6 19.987q1.837 0 3.113-1.275t1.275-3.113-1.275-3.112-3.112-1.275-3.112 1.275-1.275 3.112 1.275 3.113 3.112 1.275zM15.6 9.6q2.475 0 4.238 1.762t1.762 4.238-1.762 4.238-4.237 1.762q-2.25 0-3.938-1.481t-1.988-3.694l-6.45 2.775-0.037-5.588 7.2-1.612-7.2-1.613 0.038-5.588 11.4 4.875q0.675-0.075 0.975-0.075z"></path>
</svg>
