<!-- Generated by IcoMoon.io -->
<svg version="1.1" xmlns="http://www.w3.org/2000/svg" width="24" height="24" viewBox="0 0 24 24">
<title>casino</title>
<path fill="#37352f" d="M15.6 9.6q0.525 0 0.862-0.338t0.337-0.863-0.337-0.862-0.862-0.337-0.863 0.337-0.337 0.862 0.337 0.863 0.863 0.338zM15.6 16.8q0.525 0 0.862-0.337t0.337-0.862-0.337-0.863-0.862-0.337-0.863 0.337-0.337 0.863 0.337 0.862 0.863 0.337zM12 13.2q0.525 0 0.862-0.338t0.338-0.862-0.338-0.863-0.863-0.338-0.862 0.338-0.338 0.863 0.338 0.862 0.862 0.338zM8.4 9.6q0.525 0 0.863-0.338t0.338-0.863-0.338-0.862-0.863-0.337-0.862 0.337-0.338 0.862 0.338 0.863 0.862 0.338zM8.4 16.8q0.525 0 0.863-0.337t0.338-0.862-0.338-0.863-0.863-0.337-0.862 0.337-0.338 0.863 0.338 0.862 0.862 0.337zM17.587 4.8q0.638 0 1.125 0.487t0.488 1.125v11.175q0 0.637-0.488 1.125t-1.125 0.488h-11.175q-0.638 0-1.125-0.488t-0.488-1.125v-11.175q0-0.637 0.488-1.125t1.125-0.487h11.175z"></path>
</svg>
