<!-- Generated by IcoMoon.io -->
<svg version="1.1" xmlns="http://www.w3.org/2000/svg" width="24" height="24" viewBox="0 0 24 24">
<title>cast_for_education</title>
<path fill="#37352f" d="M19.2 4.8h-14.4q-0.675 0-1.144 0.469t-0.469 1.144v2.4h1.613v-2.4h14.4v11.175h-5.588v1.613h5.588q0.675 0 1.144-0.469t0.469-1.144v-11.175q0-0.675-0.469-1.144t-1.144-0.469zM3.188 16.8v2.4h2.4q0-0.675-0.319-1.219t-0.863-0.863-1.219-0.319zM3.188 13.612v1.575q1.125 0 2.025 0.544t1.444 1.463 0.544 2.006h1.613q0-1.163-0.45-2.175t-1.219-1.781-1.781-1.2-2.175-0.431zM3.188 10.387v1.613q1.5 0 2.813 0.563t2.288 1.556 1.537 2.288 0.563 2.794h1.612q0-1.838-0.675-3.431t-1.894-2.794-2.812-1.894-3.431-0.694zM11.212 11.288v1.575l2.775 1.538 2.812-1.538v-1.575l-2.812 1.5zM13.987 7.2l-4.387 2.4 4.387 2.4 4.425-2.4z"></path>
</svg>
