<!-- Generated by IcoMoon.io -->
<svg version="1.1" xmlns="http://www.w3.org/2000/svg" width="24" height="24" viewBox="0 0 24 24">
<title>cast_connected</title>
<path fill="#37352f" d="M19.2 4.8q0.637 0 1.125 0.487t0.487 1.125v11.175q0 0.637-0.487 1.125t-1.125 0.488h-5.588v-1.613h5.588v-11.175h-14.4v2.4h-1.613v-2.4q0-0.637 0.488-1.125t1.125-0.488h14.4zM3.188 10.387q3.637 0 6.225 2.588t2.587 6.225h-1.613q0-3-2.119-5.1t-5.081-2.1v-1.613zM17.587 7.988v8.025h-4.5q-0.75-2.363-2.531-4.163t-4.144-2.55v-1.313h11.175zM3.188 13.612q2.325 0 3.975 1.631t1.65 3.956h-1.613q0-1.65-1.181-2.831t-2.831-1.181v-1.575zM3.188 16.8q0.975 0 1.688 0.713t0.713 1.688h-2.4v-2.4z"></path>
</svg>
