<!-- Generated by IcoMoon.io -->
<svg version="1.1" xmlns="http://www.w3.org/2000/svg" width="24" height="24" viewBox="0 0 24 24">
<title>closed_caption_off</title>
<path fill="#37352f" d="M16.8 11.212h-1.2v-0.412h-1.612v2.4h1.612v-0.413h1.2v0.825q0 0.338-0.225 0.563t-0.563 0.225h-2.4q-0.338 0-0.581-0.225t-0.244-0.563v-3.225q0-0.338 0.244-0.563t0.581-0.225h2.4q0.337 0 0.563 0.225t0.225 0.563v0.825zM11.212 11.212h-1.2v-0.412h-1.613v2.4h1.613v-0.413h1.2v0.825q0 0.338-0.244 0.563t-0.581 0.225h-2.4q-0.337 0-0.563-0.225t-0.225-0.563v-3.225q0-0.338 0.225-0.563t0.563-0.225h2.4q0.337 0 0.581 0.225t0.244 0.563v0.825zM17.587 5.588q0.638 0 1.125 0.487t0.488 1.125v9.6q0 0.638-0.488 1.125t-1.125 0.488h-11.175q-0.675 0-1.144-0.469t-0.469-1.144v-9.6q0-0.675 0.469-1.144t1.144-0.469h11.175zM18 6.788h-12v10.425h12v-10.425z"></path>
</svg>
