<!-- Generated by IcoMoon.io -->
<svg version="1.1" xmlns="http://www.w3.org/2000/svg" width="24" height="24" viewBox="0 0 24 24">
<title>contact_phone</title>
<path fill="#37352f" d="M16.688 13.612q-0.3-0.787-0.3-1.613t0.3-1.612h1.313l1.2-1.575-1.575-1.612q-0.675 0.525-1.331 1.462t-0.881 1.725-0.225 1.612 0.225 1.613 0.881 1.725 1.331 1.462l1.575-1.612-1.2-1.575h-1.313zM13.612 16.8v-0.787q0-1.088-1.65-1.781t-3.15-0.694-3.15 0.694-1.65 1.781v0.787h9.6zM8.813 7.2q-0.975 0-1.688 0.713t-0.712 1.688 0.712 1.688 1.688 0.712 1.688-0.712 0.712-1.688-0.712-1.688-1.688-0.713zM19.987 4.8q0.638 0 1.125 0.487t0.488 1.125v11.175q0 0.637-0.488 1.125t-1.125 0.488h-15.975q-0.637 0-1.125-0.488t-0.487-1.125v-11.175q0-0.637 0.487-1.125t1.125-0.487h15.975z"></path>
</svg>
