<!-- Generated by IcoMoon.io -->
<svg version="1.1" xmlns="http://www.w3.org/2000/svg" width="24" height="24" viewBox="0 0 24 24">
<title>control_point_duplicate</title>
<path fill="#37352f" d="M14.4 17.587q2.325 0 3.956-1.631t1.631-3.956-1.631-3.956-3.956-1.631-3.956 1.631-1.631 3.956 1.631 3.956 3.956 1.631zM14.4 4.8q3 0 5.1 2.1t2.1 5.1-2.1 5.1-5.1 2.1-5.1-2.1-2.1-5.1 2.1-5.1 5.1-2.1zM4.012 12q0 1.462 0.938 2.962t2.25 2.1v1.725q-2.1-0.75-3.45-2.625t-1.35-4.163 1.35-4.163 3.45-2.625v1.725q-1.462 0.675-2.325 2.044t-0.863 3.019zM15.188 8.813v2.4h2.4v1.575h-2.4v2.4h-1.575v-2.4h-2.4v-1.575h2.4v-2.4h1.575z"></path>
</svg>
