<!-- Generated by IcoMoon.io -->
<svg version="1.1" xmlns="http://www.w3.org/2000/svg" width="24" height="24" viewBox="0 0 24 24">
<title>contacts</title>
<path fill="#37352f" d="M16.013 16.013v-1.2q0-0.9-1.369-1.462t-2.644-0.563-2.644 0.563-1.369 1.462v1.2h8.025zM12 7.8q-0.75 0-1.275 0.525t-0.525 1.275 0.525 1.275 1.275 0.525 1.275-0.525 0.525-1.275-0.525-1.275-1.275-0.525zM18.413 5.588q0.637 0 1.106 0.487t0.469 1.125v9.6q0 0.638-0.469 1.125t-1.106 0.488h-12.825q-0.638 0-1.106-0.488t-0.469-1.125v-9.6q0-0.638 0.469-1.125t1.106-0.487h12.825zM5.588 21.6v-1.613h12.825v1.613h-12.825zM18.413 2.4v1.612h-12.825v-1.612h12.825z"></path>
</svg>
