<!-- Generated by IcoMoon.io -->
<svg version="1.1" xmlns="http://www.w3.org/2000/svg" width="24" height="24" viewBox="0 0 24 24">
<title>copyright</title>
<path fill="#37352f" d="M12 18.413q2.625 0 4.519-1.894t1.894-4.519-1.894-4.519-4.519-1.894-4.519 1.894-1.894 4.519 1.894 4.519 4.519 1.894zM12 4.012q3.3 0 5.644 2.344t2.344 5.644-2.344 5.644-5.644 2.344-5.644-2.344-2.344-5.644 2.344-5.644 5.644-2.344zM11.887 9.712q-1.5 0-1.5 2.175v0.225q0 2.175 1.5 2.175 0.563 0 0.938-0.319t0.375-0.806h1.425q0 0.938-0.825 1.65-0.787 0.675-1.912 0.675-1.5 0-2.288-0.9t-0.788-2.475v-0.225q0-1.538 0.75-2.4 0.9-1.013 2.325-1.013 1.237 0 1.95 0.713 0.787 0.787 0.787 1.838h-1.425q0-0.262-0.113-0.488-0.188-0.375-0.262-0.45-0.375-0.375-0.938-0.375z"></path>
</svg>
