<!-- Generated by IcoMoon.io -->
<svg version="1.1" xmlns="http://www.w3.org/2000/svg" width="24" height="24" viewBox="0 0 24 24">
<title>countertops</title>
<path fill="#37352f" d="M16.8 10.387v-2.4q0-0.637-0.319-1.181t-0.863-0.881-1.219-0.338-1.219 0.338-0.862 0.881-0.319 1.181h1.612q0-0.3 0.225-0.544t0.563-0.244 0.563 0.244 0.225 0.544v2.4h-6.375q0.637 0 1.106-0.469t0.469-1.106v-3.225h-4.8v3.225q0 0.638 0.469 1.106t1.144 0.469h-3.188v1.612h1.575v6.412h12.825v-6.413h1.575v-1.612h-3.188zM12.788 16.8h-1.575v-4.8h1.575v4.8z"></path>
</svg>
