<!-- Generated by IcoMoon.io -->
<svg version="1.1" xmlns="http://www.w3.org/2000/svg" width="24" height="24" viewBox="0 0 24 24">
<title>delivery_dining</title>
<path fill="#37352f" d="M17.587 16.013q0.337 0 0.581-0.244t0.244-0.581-0.244-0.563-0.581-0.225-0.563 0.225-0.225 0.563 0.225 0.581 0.563 0.244zM17.587 12.788q0.975 0 1.688 0.712t0.712 1.688-0.712 1.688-1.688 0.712-1.688-0.712-0.712-1.688 0.712-1.688 1.688-0.712zM6.413 7.2h3.975v1.613h-3.975v-1.613zM7.988 16.013q0.337 0 0.581-0.244t0.244-0.581h-1.613q0 0.337 0.225 0.581t0.563 0.244zM17.587 7.988v2.7l-3.6 4.5h-3.6q0 0.975-0.713 1.688t-1.688 0.712-1.688-0.712-0.713-1.688h-1.575v-2.4q0-1.313 0.938-2.25t2.25-0.938h3.188v4.012h2.813l2.813-3.488v-2.137h-2.4v-1.575h2.4q0.637 0 1.106 0.469t0.469 1.106z"></path>
</svg>
