<!-- Generated by IcoMoon.io -->
<svg version="1.1" xmlns="http://www.w3.org/2000/svg" width="40" height="40" viewBox="0 0 40 40">
<title>di-archive</title>
<path fill="#37352f" d="M9.461 11.652c0-0.765 0.626-1.391 1.391-1.391h18.261c0.765 0 1.391 0.626 1.391 1.391s-0.626 1.391-1.391 1.391h-18.261c-0.765 0-1.391-0.626-1.391-1.391zM13.148 8.174h13.704c0.661 0 1.217-0.557 1.217-1.217s-0.557-1.217-1.217-1.217h-13.704c-0.661 0-1.217 0.557-1.217 1.217s0.557 1.217 1.217 1.217zM36 13.252v3.791c0 0 0 0 0 0s0 0 0 0 0 0 0 0 0 0 0 0c0 0.139-0.035 0.278-0.070 0.383l-4.452 16.174c-0.174 0.591-0.696 1.009-1.322 1.009h-20.383c-0.626 0-1.183-0.417-1.357-1.043l-4.348-16.139c-0.035-0.070-0.035-0.139-0.070-0.209 0-0.070 0-0.139 0-0.209v-3.757c0-0.765 0.626-1.391 1.391-1.391s1.391 0.626 1.391 1.391v2.574h26.435v-2.574c0-0.765 0.626-1.391 1.391-1.391s1.391 0.626 1.391 1.391zM32.765 18.609h-25.565l3.617 13.217h18.261l3.687-13.217zM15.896 25.565h8.209c0.765 0 1.391-0.626 1.391-1.391s-0.626-1.391-1.391-1.391h-8.209c-0.765 0-1.391 0.626-1.391 1.391s0.626 1.391 1.391 1.391z"></path>
</svg>
