<!-- Generated by IcoMoon.io -->
<svg version="1.1" xmlns="http://www.w3.org/2000/svg" width="40" height="40" viewBox="0 0 40 40">
<title>di-briefcase</title>
<path fill="#37352f" d="M35.583 11.965c-0.243-0.243-0.591-0.313-0.974-0.313h-7.304v-4.174c0-0.765-0.696-1.391-1.461-1.391h-11.687c-0.765 0-1.461 0.626-1.461 1.391v4.174h-7.304c-0.765 0-1.391 0.452-1.391 1.217v19.652c0 0.765 0.626 1.391 1.391 1.391h29.217c0.765 0 1.391-0.626 1.391-1.391v-19.583c0-0.383-0.139-0.696-0.417-0.974zM15.478 8.87h9.043v2.783h-9.043v-2.783zM33.217 14.435v7.304h-9.739v-0.522c0-0.591-0.557-0.87-1.148-0.87h-4.661c-0.591 0-1.148 0.313-1.148 0.87v0.522h-9.739v-7.304h26.435zM21.391 22.435v0.696h-2.783v-0.696h2.783zM6.783 31.13v-7.304h9.739v0.348c0 0.591 0.557 1.043 1.148 1.043h4.696c0.591 0 1.148-0.487 1.148-1.043v-0.348h9.739v7.304h-26.47z"></path>
</svg>
