<!-- Generated by IcoMoon.io -->
<svg version="1.1" xmlns="http://www.w3.org/2000/svg" width="40" height="40" viewBox="0 0 40 40">
<title>di-bluetooth</title>
<path fill="#37352f" d="M22.052 20l6.226-6.157c0.557-0.522 0.557-1.426 0-1.948l-7.304-7.443c-0.383-0.452-0.974-0.557-1.496-0.348s-0.87 0.73-0.87 1.287v11.165l-4.939-4.87c-0.557-0.557-1.426-0.522-1.983 0-0.557 0.557-0.522 1.426 0 1.983l6.435 6.33-6.4 6.365c-0.557 0.557-0.557 1.426 0 1.983 0.278 0.278 0.626 0.417 0.974 0.417s0.696-0.139 0.974-0.417l4.939-4.904v11.165c0 0.557 0.348 1.078 0.87 1.287 0.174 0.070 0.348 0.104 0.522 0.104 0.383 0 0.73-0.139 1.009-0.417l7.304-7.443c0.522-0.557 0.522-1.426 0-1.948l-6.261-6.191zM21.391 8.8l3.93 4.035-3.93 3.896v-7.93zM21.391 31.2v-7.93l3.93 3.93-3.93 4z"></path>
</svg>
