<!-- Generated by IcoMoon.io -->
<svg version="1.1" xmlns="http://www.w3.org/2000/svg" width="40" height="40" viewBox="0 0 40 40">
<title>di-basketball</title>
<path fill="#37352f" d="M20 4c-8.835 0-16 7.165-16 16s7.165 16 16 16 16-7.165 16-16-7.165-16-16-16zM30.087 28.522c-0.904-0.835-2.4-2.574-2.957-5.252 2.713-0.383 4.661-0.939 5.948-1.391-0.348 2.47-1.426 4.765-2.991 6.643zM6.922 21.843c1.287 0.452 3.235 1.009 5.948 1.391-0.522 2.678-2.052 4.452-2.957 5.252-1.565-1.843-2.643-4.139-2.991-6.643zM9.113 12.487c1.113 1.183 3.513 4.174 3.861 7.965-3.374-0.522-5.357-1.287-6.157-1.635 0.243-2.33 1.043-4.487 2.296-6.33zM33.148 18.817c-0.8 0.348-2.748 1.148-6.157 1.635 0.348-3.757 2.783-6.783 3.861-7.965 1.287 1.843 2.087 4 2.296 6.33zM24.209 20.765c-0.87 0.070-1.809 0.104-2.817 0.139v-14.052c2.957 0.313 5.6 1.6 7.652 3.513-1.287 1.357-4.626 5.287-4.835 10.4zM18.609 20.939c-1.009-0.035-1.948-0.070-2.817-0.139-0.243-5.148-3.583-9.043-4.87-10.4 2.052-1.913 4.696-3.2 7.652-3.513v14.052zM15.617 23.548c0.939 0.070 1.913 0.139 2.991 0.139v9.426c-2.504-0.243-4.8-1.217-6.713-2.678 1.252-1.183 3.13-3.443 3.722-6.887zM21.391 23.722c1.043-0.035 2.052-0.070 2.991-0.139 0.626 3.409 2.47 5.704 3.722 6.887-1.878 1.461-4.209 2.435-6.713 2.713v-9.461z"></path>
</svg>
