<!-- Generated by IcoMoon.io -->
<svg version="1.1" xmlns="http://www.w3.org/2000/svg" width="40" height="40" viewBox="0 0 40 40">
<title>di-copy</title>
<path fill="#37352f" d="M20 11.617c-0.243-0.243-0.557-0.313-0.87-0.313h-10.4c-0.696 0-1.6 0.417-1.6 1.078v22.017c0 0.696 0.904 1.565 1.6 1.565h16.487c0.696 0 1.043-0.904 1.043-1.565v-15.861c0-0.313-0.035-0.591-0.278-0.835l-5.983-6.087zM23.443 18.609h-4.487v-4.487l4.487 4.487zM9.913 33.217v-19.478h6.609v5.983c0 0.696 0.626 1.322 1.322 1.322h5.983v12.174h-13.913zM32.661 10.261l-6.052-6.052c-0.209-0.174-0.417-0.209-0.696-0.209h-10.4c-0.591 0-1.078 0.313-1.078 0.87v3.339c0 0.591 0.452 1.043 1.043 1.043s1.043-0.487 1.043-1.043v-2.122h7.304v5.878c0 0.591 0.487 1.078 1.078 1.078h5.878v12.87h-1.426c-0.591 0-1.043 0.452-1.043 1.043s0.487 1.043 1.043 1.043h2.643c0.591 0 0.87-0.522 0.87-1.113v-15.861c0-0.278-0.035-0.557-0.209-0.765zM25.913 6.435l4.487 4.522h-4.487v-4.522z"></path>
</svg>
