<!-- Generated by IcoMoon.io -->
<svg version="1.1" xmlns="http://www.w3.org/2000/svg" width="40" height="40" viewBox="0 0 40 40">
<title>di-contract-2</title>
<path fill="#37352f" d="M18.087 21.843c0.243 0.278 0.417 0.661 0.417 1.009v7.27c0 0.765-0.626 1.322-1.391 1.322h0.035c-0.765 0-1.322-0.522-1.322-1.287v-3.896l-8.696 8.626c-0.278 0.278-0.696 0.417-1.043 0.417s-0.696-0.139-0.974-0.417c-0.557-0.557-0.557-1.461 0-1.983l8.626-8.73h-3.93c-0.765 0-1.391-0.626-1.391-1.391s0.626-1.391 1.391-1.391h7.304c0.383 0 0.73 0.174 0.974 0.452zM34.887 5.113c-0.557-0.557-1.391-0.557-1.948 0l-8.765 8.8v-3.965c0-0.765-0.626-1.426-1.426-1.426v0c-0.765 0-1.391 0.626-1.391 1.391v7.304c0 0.383 0.139 0.696 0.417 0.974s0.626 0.383 0.974 0.383h7.304c0.765 0 1.391-0.626 1.391-1.391s-0.626-1.391-1.391-1.391h-3.965l8.8-8.73c0.557-0.557 0.557-1.426 0-1.948z"></path>
</svg>
