<!-- Generated by IcoMoon.io -->
<svg version="1.1" xmlns="http://www.w3.org/2000/svg" width="40" height="40" viewBox="0 0 40 40">
<title>di-duplicate</title>
<path fill="#37352f" d="M34.609 27.791h-21.009c-0.765 0-1.391-0.626-1.391-1.391v-21.009c0-0.765 0.626-1.391 1.391-1.391h21.009c0.765 0 1.391 0.626 1.391 1.391v20.974c0 0.8-0.626 1.426-1.391 1.426zM14.991 24.974h18.191v-18.157h-18.191v18.157zM27.096 34.33v-3.687c0-0.591-0.487-1.043-1.043-1.043s-1.043 0.487-1.043 1.043v3.27h-18.887v-18.887h3.235c0.591 0 1.043-0.487 1.043-1.043s-0.487-1.043-1.043-1.043h-3.687c-0.904 0-1.67 0.73-1.67 1.67v19.791c0 0.87 0.73 1.6 1.67 1.6h19.791c0.904 0 1.635-0.73 1.635-1.67z"></path>
</svg>
