<!-- Generated by IcoMoon.io -->
<svg version="1.1" xmlns="http://www.w3.org/2000/svg" width="40" height="40" viewBox="0 0 40 40">
<title>di-download</title>
<path fill="#37352f" d="M34.957 24.452v9.461c0 0.974-0.765 1.739-1.739 1.739h-26.435c-0.974 0-1.739-0.765-1.739-1.739v-9.461c0-0.974 0.765-1.739 1.739-1.739s1.739 0.765 1.739 1.739v7.722h22.957v-7.722c0-0.974 0.765-1.739 1.739-1.739s1.739 0.765 1.739 1.739zM18.748 26.609c0.313 0.348 0.765 0.522 1.252 0.522s0.904-0.174 1.252-0.522l6.922-7.096c0.661-0.696 0.661-1.774-0.035-2.47-0.696-0.661-1.774-0.661-2.47 0.035l-3.93 4.070v-15.061c0-0.974-0.765-1.739-1.739-1.739s-1.739 0.765-1.739 1.739v15.061l-3.965-4.035c-0.661-0.696-1.774-0.696-2.47-0.035s-0.696 1.774-0.035 2.47l6.957 7.061z"></path>
</svg>
