<!-- Generated by IcoMoon.io -->
<svg version="1.1" xmlns="http://www.w3.org/2000/svg" width="40" height="40" viewBox="0 0 40 40">
<title>di-device-desktop</title>
<path fill="#37352f" d="M33.357 6.435h-26.713c-1.461 0-2.643 1.183-2.643 2.643v15.409c0 1.461 1.183 2.817 2.643 2.817h8.835v1.426l-2.643 2.122c-0.487 0.383-0.696 1.113-0.487 1.67s0.73 1.043 1.322 1.043h12.522c0.591 0 1.148-0.487 1.357-1.043s0.035-1.252-0.417-1.635l-2.609-2.157v-1.426h8.835c1.461 0 2.643-1.357 2.643-2.817v-15.409c0-1.461-1.183-2.643-2.643-2.643zM22.504 30.365l0.835 0.765h-6.817l0.904-0.8c0.278-0.243 0.487-0.661 0.487-1.043v-1.983h4.174v2.017c0 0.348 0.139 0.8 0.417 1.043zM33.217 24.522h-26.435v-15.304h26.435v15.304z"></path>
</svg>
