<!-- Generated by IcoMoon.io -->
<svg version="1.1" xmlns="http://www.w3.org/2000/svg" width="40" height="40" viewBox="0 0 40 40">
<title>di-device-mobile</title>
<path fill="#37352f" d="M22.365 30.435c0 0.591-0.452 1.043-1.043 1.043h-2.678c-0.591 0-1.043-0.452-1.043-1.043s0.452-1.043 1.043-1.043h2.678c0.591 0 1.043 0.452 1.043 1.043zM29.043 6.643v26.713c0 1.461-1.183 2.643-2.643 2.643h-12.8c-1.461 0-2.643-1.183-2.643-2.643v-26.713c0-1.461 1.183-2.643 2.643-2.643h12.8c1.461 0 2.643 1.183 2.643 2.643zM13.739 6.783v18.435h12.522v-18.435h-12.522zM26.261 33.217v-5.913h-12.522v5.913h12.522z"></path>
</svg>
