<!-- Generated by IcoMoon.io -->
<svg version="1.1" xmlns="http://www.w3.org/2000/svg" width="40" height="40" viewBox="0 0 40 40">
<title>di-export</title>
<path fill="#37352f" d="M29.391 30.609v1.739c0 0.765-0.661 1.217-1.426 1.217h-22.713c-0.765 0-1.252-0.417-1.252-1.217v-17.183c0-0.765 0.487-1.461 1.252-1.461h4.070c0.765 0 1.391 0.626 1.391 1.391s-0.626 1.391-1.391 1.391h-2.539v14.296h19.826v-0.174c0-0.765 0.626-1.391 1.391-1.391s1.391 0.626 1.391 1.391zM35.583 17.635l-8.626 8.8c-0.417 0.417-1.009 0.522-1.53 0.313-0.557-0.243-0.904-0.73-0.904-1.322v-3.791c-2.783-0.070-9.461 0.209-11.896 4.487-0.243 0.452-0.73 0.73-1.217 0.73-0.104 0-0.243 0-0.348-0.035-0.626-0.174-1.043-0.73-1.043-1.357 0-0.209 0-5.6 4.035-9.6 2.539-2.609 5.948-4 10.47-4.243v-3.791c0-0.557 0.348-1.078 0.87-1.287 0.557-0.209 1.148-0.104 1.565 0.313l8.661 8.8c0.522 0.557 0.522 1.426-0.035 1.983zM32.591 16.626l-5.287-5.357v1.704c0 0.765-0.591 1.391-1.391 1.391-4.313 0-7.617 1.148-9.878 3.443-1.043 1.043-1.739 2.191-2.191 3.304 3.27-1.948 7.409-2.296 9.948-2.296 1.322 0 2.191 0.104 2.296 0.104 0.696 0.070 1.217 0.696 1.217 1.391v1.704l5.287-5.391z"></path>
</svg>
