<!-- Generated by IcoMoon.io -->
<svg version="1.1" xmlns="http://www.w3.org/2000/svg" width="40" height="40" viewBox="0 0 40 40">
<title>di-experiment</title>
<path fill="#37352f" d="M35.165 5.426c-0.243-0.452-0.73-0.73-1.217-0.73h-27.896c-0.487 0-0.974 0.278-1.217 0.73s-0.139 1.009 0.139 1.426l10.852 15.93v10.539c0 1.078 0.73 1.983 1.843 1.983h4.661c1.078 0 1.843-0.87 1.843-1.983v-10.539l10.852-15.93c0.278-0.417 0.383-0.974 0.139-1.426zM21.704 21.6c-0.174 0.209-0.313 0.487-0.313 0.765v10.157h-2.783v-10.157c0-0.278-0.139-0.557-0.313-0.765l-3.304-4.835c0.696-0.209 1.53-0.417 2.435-0.383 1.078 0 1.809 0.209 2.609 0.417 0.835 0.209 1.67 0.417 2.852 0.452 0.696 0 1.322-0.035 1.878-0.104l-3.061 4.452zM26.783 14.157c0 0 0 0 0 0-0.035 0-1.496 0.661-3.896 0.626-0.87 0-1.53-0.174-2.261-0.383-0.835-0.209-1.809-0.452-3.2-0.487-1.565 0-2.957 0.383-3.896 0.73l-4.835-7.165h22.643l-4.557 6.678zM23.93 11.861c-0.243-0.243-0.417-0.626-0.417-0.974 0-0.383 0.139-0.73 0.417-0.974 0.243-0.243 0.626-0.417 0.974-0.417 0.383 0 0.73 0.139 0.974 0.417s0.417 0.626 0.417 0.974c0 0.383-0.139 0.73-0.417 0.974s-0.626 0.417-0.974 0.417c-0.348 0-0.73-0.174-0.974-0.417z"></path>
</svg>
