<!-- Generated by IcoMoon.io -->
<svg version="1.1" xmlns="http://www.w3.org/2000/svg" width="40" height="40" viewBox="0 0 40 40">
<title>di-folder-open</title>
<path fill="#37352f" d="M35.687 17.426c-0.278-0.348-0.661-0.557-1.078-0.557h-1.739v-3.791c0-0.661-0.487-1.078-1.148-1.078h-12.174l-1.565-2.574c-0.209-0.348-0.626-0.557-1.043-0.557h-8.974c-0.661 0-1.183 0.383-1.183 1.043v6.957h-1.391c-0.417 0-0.835 0.209-1.078 0.522s-0.383 0.765-0.278 1.183l2.574 11.791c0.139 0.626 0.696 1.113 1.357 1.113h23.757c0.626 0 1.183-0.452 1.357-1.043l2.887-11.826c0.104-0.417 0-0.835-0.278-1.183zM9.217 11.304h7.026l1.565 2.574c0.209 0.348 0.626 0.557 1.043 0.557h11.583v2.435h-21.217v-5.565zM30.609 28.696h-21.53l-1.948-9.043h25.704l-2.226 9.043z"></path>
</svg>
