<!-- Generated by IcoMoon.io -->
<svg version="1.1" xmlns="http://www.w3.org/2000/svg" width="40" height="40" viewBox="0 0 40 40">
<title>di-graph-bar</title>
<path fill="#37352f" d="M29.391 34.957c-1.148 0-2.087-0.939-2.087-2.087v-25.739c0-1.148 0.939-2.087 2.087-2.087s2.087 0.939 2.087 2.087v25.739c0 1.148-0.939 2.087-2.087 2.087zM22.087 32.87v-17.252c0-1.148-0.939-2.087-2.087-2.087s-2.087 0.939-2.087 2.087v17.252c0 1.148 0.939 2.087 2.087 2.087s2.087-0.939 2.087-2.087zM12.696 32.87v-8.765c0-1.148-0.939-2.087-2.087-2.087s-2.087 0.939-2.087 2.087v8.765c0 1.148 0.939 2.087 2.087 2.087s2.087-0.939 2.087-2.087z"></path>
</svg>
