<!-- Generated by IcoMoon.io -->
<svg version="1.1" xmlns="http://www.w3.org/2000/svg" width="40" height="40" viewBox="0 0 40 40">
<title>di-inbox</title>
<path fill="#37352f" d="M36 17.635c0-0.035 0-0.104 0-0.139s0-0.070-0.035-0.139c0-0.035-0.035-0.104-0.035-0.139s-0.035-0.070-0.035-0.139c-0.035-0.035-0.035-0.070-0.070-0.104s-0.070-0.070-0.070-0.139c0 0-0.035-0.035-0.035-0.035l-7.513-9.148c-0.278-0.348-0.661-0.522-1.078-0.522h-14.261c-0.417 0-0.8 0.174-1.078 0.522l-7.478 9.148c0 0-0.035 0.035-0.035 0.035-0.035 0.035-0.070 0.070-0.070 0.139-0.035 0.035-0.035 0.070-0.070 0.104s-0.035 0.070-0.035 0.139c0 0.035-0.035 0.070-0.035 0.139 0 0.035-0.035 0.070-0.035 0.139 0 0.035 0 0.104 0 0.139s0 0.035 0 0.070v12.452c-0.035 1.496 1.217 2.713 2.748 2.713h26.435c1.53 0 2.783-1.217 2.783-2.748v-12.452c0 0 0-0.035 0-0.035zM13.53 9.913h12.904l5.217 6.261h-4.591c-0.383 0-0.765 0.243-1.043 0.522l-3.165 3.652h-5.704l-3.165-3.652c-0.278-0.313-0.626-0.522-1.043-0.522h-4.626l5.217-6.261zM33.217 30.087h-26.435v-11.13h5.53l3.026 3.478c0.348 0.417 0.87 0.696 1.426 0.696h6.47c0.557 0 1.043-0.313 1.426-0.696l3.026-3.478h5.53v11.13z"></path>
</svg>
