<!-- Generated by IcoMoon.io -->
<svg version="1.1" xmlns="http://www.w3.org/2000/svg" width="40" height="40" viewBox="0 0 40 40">
<title>di-jewel</title>
<path fill="#37352f" d="M35.617 14.852l-5.878-6.226c-0.278-0.278-0.626-0.452-1.009-0.452h-17.461c-0.383 0-0.765 0.174-1.009 0.452l-5.878 6.261c-0.522 0.557-0.487 1.391 0.035 1.948l14.609 14.609c0.278 0.278 0.626 0.417 0.974 0.417s0.73-0.139 0.974-0.417l14.609-14.609c0.557-0.557 0.557-1.426 0.035-1.983zM13.53 16.87l2.574 7.513-7.513-7.513h4.939zM21.183 10.957l2.226 3.478h-6.817l2.226-3.478h2.365zM20 28.452v-0.070l-3.896-11.513h7.791l-3.896 11.513v0.070zM26.47 16.87h4.974l-7.548 7.513 2.574-7.513zM31.548 14.435h-5.287l-2.226-3.478h4.070l3.443 3.478zM11.861 10.957h4.070l-2.191 3.478h-5.287l3.409-3.478z"></path>
</svg>
