<!-- Generated by IcoMoon.io -->
<svg version="1.1" xmlns="http://www.w3.org/2000/svg" width="40" height="40" viewBox="0 0 40 40">
<title>di-list</title>
<path fill="#37352f" d="M35.722 9.217c0 1.148-0.939 2.087-2.087 2.087h-19.165c-1.148 0-2.087-0.939-2.087-2.087s0.939-2.087 2.087-2.087h19.165c1.148 0 2.087 0.939 2.087 2.087zM14.47 22.087h10.887c1.148 0 2.087-0.939 2.087-2.087s-0.939-2.087-2.087-2.087h-10.887c-1.148 0-2.087 0.939-2.087 2.087s0.939 2.087 2.087 2.087zM29.843 28.696h-15.374c-1.148 0-2.087 0.939-2.087 2.087s0.939 2.087 2.087 2.087h15.374c1.148 0 2.087-0.939 2.087-2.087s-0.904-2.087-2.087-2.087zM6.365 6.957c-0.591 0-1.183 0.243-1.6 0.661s-0.696 1.009-0.696 1.6 0.243 1.183 0.661 1.6c0.417 0.417 1.009 0.661 1.6 0.661s1.183-0.243 1.6-0.661c0.417-0.417 0.661-1.009 0.661-1.6s-0.243-1.183-0.661-1.6c-0.383-0.417-0.974-0.661-1.565-0.661zM6.365 17.739c-0.591 0-1.183 0.243-1.6 0.661s-0.696 1.009-0.696 1.6 0.243 1.183 0.661 1.6c0.417 0.417 1.009 0.661 1.6 0.661s1.183-0.243 1.6-0.661c0.417-0.417 0.661-1.009 0.661-1.6s-0.243-1.183-0.661-1.6c-0.383-0.417-0.974-0.661-1.565-0.661zM6.365 28.522c-0.591 0-1.183 0.243-1.6 0.661s-0.696 1.009-0.696 1.6 0.243 1.183 0.661 1.6c0.417 0.417 1.009 0.661 1.6 0.661s1.183-0.243 1.6-0.661c0.417-0.417 0.661-1.009 0.661-1.6s-0.243-1.183-0.661-1.6c-0.383-0.417-0.974-0.661-1.565-0.661z"></path>
</svg>
