<!-- Generated by IcoMoon.io -->
<svg version="1.1" xmlns="http://www.w3.org/2000/svg" width="40" height="40" viewBox="0 0 40 40">
<title>di-medical</title>
<path fill="#37352f" d="M35.583 11.965c-0.243-0.243-0.591-0.313-0.974-0.313h-7.304v-4.174c0-0.765-0.696-1.391-1.461-1.391h-11.687c-0.765 0-1.461 0.626-1.461 1.391v4.174h-7.304c-0.765 0-1.391 0.452-1.391 1.217v19.652c0 0.765 0.626 1.391 1.391 1.391h29.217c0.765 0 1.391-0.626 1.391-1.391v-19.583c0-0.383-0.139-0.696-0.417-0.974zM15.478 8.87h9.043v2.783h-9.043v-2.783zM33.217 31.13h-26.435v-16.696h26.435v16.696zM14.33 22.609c0-0.661 0.557-1.217 1.217-1.217h3.061v-3.096c0-0.661 0.557-1.217 1.217-1.217s1.217 0.557 1.217 1.217v3.096h3.409c0.661 0 1.217 0.557 1.217 1.217s-0.557 1.217-1.217 1.217h-3.409v3.27c0 0.661-0.557 1.217-1.217 1.217s-1.217-0.522-1.217-1.217v-3.27h-3.061c-0.661 0-1.217-0.557-1.217-1.217z"></path>
</svg>
