<!-- Generated by IcoMoon.io -->
<svg version="1.1" xmlns="http://www.w3.org/2000/svg" width="40" height="40" viewBox="0 0 40 40">
<title>di-move</title>
<path fill="#37352f" d="M36 20.104c0 0.383-0.139 0.73-0.417 0.974l-4.904 4.87c-0.278 0.278-0.626 0.383-0.974 0.383s-0.73-0.139-0.974-0.417c-0.557-0.557-0.522-1.461 0-1.983l2.539-2.574h-9.878v9.878l2.539-2.539c0.557-0.557 1.426-0.522 1.983 0 0.557 0.557 0.522 1.426 0 1.983l-4.904 4.904c-0.278 0.278-0.626 0.417-1.009 0.417s-0.696-0.139-0.974-0.417l-4.904-4.87c-0.557-0.557-0.557-1.426 0-1.983s1.426-0.557 1.948 0l2.539 2.539v-9.878h-9.843l2.539 2.574c0.557 0.557 0.557 1.461 0 2.017-0.278 0.278-0.626 0.417-0.974 0.417s-0.696-0.139-0.974-0.417l-4.939-4.904c-0.278-0.243-0.417-0.591-0.417-0.974s0.139-0.73 0.417-0.974l4.904-4.904c0.557-0.557 1.426-0.557 1.983 0s0.522 1.391 0 1.948l-2.539 2.435h9.843v-9.878l-2.539 2.539c-0.557 0.557-1.426 0.522-1.948 0-0.557-0.557-0.522-1.426 0-1.983l4.904-4.87c0.557-0.557 1.426-0.557 1.948 0l4.939 4.87c0.557 0.557 0.557 1.426 0 1.983-0.278 0.278-0.626 0.417-0.974 0.417s-0.73-0.139-0.974-0.417l-2.574-2.539v9.878h9.843l-2.539-2.47c-0.557-0.557-0.557-1.357 0-1.913s1.426-0.557 1.983 0l4.904 4.904c0.278 0.243 0.417 0.591 0.417 0.974z"></path>
</svg>
