<!-- Generated by IcoMoon.io -->
<svg version="1.1" xmlns="http://www.w3.org/2000/svg" width="40" height="40" viewBox="0 0 40 40">
<title>di-paperclip</title>
<path fill="#37352f" d="M33.565 16.73c0.487 0.487 0.487 1.252 0 1.739l-13.843 13.809c-2.296 2.33-4.904 3.548-7.409 3.548-0.626 0-1.252-0.070-1.878-0.243-2.435-0.661-4.313-2.539-4.974-5.078-0.835-3.13 0.278-6.539 3.096-9.357l15.443-15.409c2.504-2.504 5.983-1.704 8 0.313 2.748 2.748 1.983 5.983 0.139 7.826l-15.548 15.513c-2.052 2.052-4.383 1.913-5.565 0.696s-1.322-3.478 0.73-5.565l10.504-10.504c0.487-0.487 1.252-0.487 1.739 0s0.487 1.252 0 1.739l-10.574 10.504c-0.904 0.904-1.043 1.774-0.73 2.122 0.348 0.348 1.217 0.209 2.122-0.696l15.548-15.548c1.565-1.565 0.904-3.339-0.139-4.383-1.183-1.183-3.096-1.774-4.557-0.278l-15.374 15.409c-2.191 2.191-3.096 4.73-2.47 6.991 0.452 1.67 1.67 2.922 3.27 3.339 2.157 0.591 4.626-0.383 6.922-2.678l13.843-13.843c0.452-0.417 1.217-0.417 1.704 0.035v0z"></path>
</svg>
