<!-- Generated by IcoMoon.io -->
<svg version="1.1" xmlns="http://www.w3.org/2000/svg" width="40" height="40" viewBox="0 0 40 40">
<title>di-pill</title>
<path fill="#37352f" d="M32.904 7.096c-1.53-1.565-3.583-2.4-5.774-2.4s-4.209 0.835-5.774 2.4l-14.261 14.261c-1.565 1.565-2.4 3.617-2.4 5.774s0.835 4.243 2.4 5.774c1.53 1.53 3.583 2.4 5.774 2.4s4.243-0.835 5.774-2.4l14.296-14.296c1.53-1.53 2.4-3.583 2.4-5.774s-0.87-4.209-2.435-5.739zM16.661 30.957c-1.009 1.009-2.365 1.565-3.791 1.565s-2.783-0.557-3.791-1.565c-1.009-1.009-1.565-2.365-1.565-3.791s0.557-2.783 1.565-3.791l5.809-5.809c1.6 1.043 5.53 3.861 7.617 7.583l-5.843 5.809zM30.957 16.661l-6.678 6.678c-2.226-3.583-5.774-6.296-7.652-7.583l6.713-6.713c1.009-1.009 2.365-1.565 3.791-1.565s2.783 0.557 3.791 1.565v0c1.009 1.009 1.565 2.365 1.565 3.791s-0.522 2.817-1.53 3.826zM24 12.591c0.487 0.487 0.487 1.252 0 1.739l-1.67 1.67c-0.243 0.243-0.557 0.348-0.87 0.348s-0.626-0.104-0.87-0.348c-0.487-0.487-0.487-1.252 0-1.739l1.67-1.67c0.487-0.487 1.252-0.487 1.739 0zM26.783 9.774c0.243 0.243 0.417 0.626 0.417 0.974s-0.139 0.73-0.417 0.974c-0.243 0.243-0.626 0.417-0.974 0.417-0.383 0-0.73-0.139-0.974-0.417s-0.417-0.626-0.417-0.974c0-0.383 0.139-0.73 0.417-0.974 0.278-0.278 0.626-0.417 0.974-0.417 0.383 0 0.73 0.174 0.974 0.417z"></path>
</svg>
