<!-- Generated by IcoMoon.io -->
<svg version="1.1" xmlns="http://www.w3.org/2000/svg" width="40" height="40" viewBox="0 0 40 40">
<title>di-photo-group</title>
<path fill="#37352f" d="M35.896 12.835l-3.304 15.93c-0.104 0.487-0.522 0.835-1.009 0.835-0.070 0-0.139 0-0.209-0.035-0.557-0.104-0.939-0.661-0.8-1.217l3.096-14.887-19.965-4.070-0.487 2.226c-0.139 0.557-0.696 0.904-1.252 0.8-0.557-0.139-0.904-0.696-0.8-1.252l0.73-3.235c0.139-0.557 0.661-0.904 1.217-0.8l21.983 4.452c0.278 0.070 0.522 0.209 0.661 0.452s0.174 0.522 0.139 0.8zM29.391 31.826c0 0.765-0.626 1.391-1.391 1.391h-22.609c-0.765 0-1.391-0.626-1.391-1.391v-17.043c0-0.765 0.626-1.391 1.391-1.391h22.609c0.765 0 1.391 0.626 1.391 1.391v17.043zM6.783 16.174v8.591l5.878-4.765c0.452-0.383 1.183-0.383 1.635 0.035l6.609 5.843 2.748-2.365c0.452-0.383 0.974-0.383 1.426 0l1.148 1.183v-8.522h-19.443zM26.261 30.435v-2.539l-1.948-1.843-2.643 2.365c-0.452 0.383-1.113 0.383-1.565 0l-6.713-5.878-6.609 5.391v2.504h19.478zM20.487 21.843c1.183 0 2.122-0.939 2.122-2.122s-0.974-2.122-2.122-2.122c-1.183 0-2.122 0.939-2.122 2.122-0.035 1.148 0.939 2.122 2.122 2.122z"></path>
</svg>
