<!-- Generated by IcoMoon.io -->
<svg version="1.1" xmlns="http://www.w3.org/2000/svg" width="40" height="40" viewBox="0 0 40 40">
<title>di-pencil</title>
<path fill="#37352f" d="M34.991 6.122l-1.113-1.113c-0.661-0.661-1.496-1.009-2.435-1.009 0 0 0 0 0 0-0.939 0-1.774 0.348-2.435 1.009l-21.983 22.017c-0.139 0.139-0.243 0.278-0.313 0.487l-2.609 6.574c-0.209 0.522-0.104 1.113 0.313 1.496 0.243 0.278 0.626 0.417 0.974 0.417 0.174 0 0.348-0.035 0.522-0.104l6.609-2.574c0.174-0.070 0.348-0.174 0.487-0.313l22.017-22.017c1.322-1.322 1.322-3.513-0.035-4.87zM9.148 28.939l1.948 1.948-3.235 1.252 1.287-3.2zM33.009 9.043l-19.2 19.2-2.017-2.017 19.165-19.235c0.174-0.174 0.383-0.209 0.487-0.209s0.313 0.035 0.487 0.209l1.113 1.113c0.243 0.243 0.243 0.661-0.035 0.939z"></path>
</svg>
