<!-- Generated by IcoMoon.io -->
<svg version="1.1" xmlns="http://www.w3.org/2000/svg" width="40" height="40" viewBox="0 0 40 40">
<title>di-power</title>
<path fill="#37352f" d="M20 20.522c-0.765 0-1.391-0.626-1.391-1.391v-12c0-0.765 0.626-1.391 1.391-1.391s1.391 0.626 1.391 1.391v12c0 0.765-0.591 1.391-1.391 1.391zM33.217 20.974c0-5.078-2.817-9.635-7.339-11.896-0.696-0.348-1.53-0.070-1.878 0.626s-0.070 1.53 0.626 1.878c3.583 1.774 5.809 5.391 5.809 9.391 0 5.809-4.696 10.504-10.435 10.504s-10.435-4.696-10.435-10.504c0-4.035 2.226-7.617 5.809-9.426 0.696-0.348 0.974-1.183 0.626-1.878s-1.183-0.974-1.878-0.626c-4.522 2.296-7.339 6.852-7.339 11.93 0 7.339 5.913 13.287 13.217 13.287s13.217-5.948 13.217-13.287z"></path>
</svg>
