<!-- Generated by IcoMoon.io -->
<svg version="1.1" xmlns="http://www.w3.org/2000/svg" width="40" height="40" viewBox="0 0 40 40">
<title>di-retweet</title>
<path fill="#37352f" d="M35.583 24.626l-4.348 4.313c-0.278 0.278-0.626 0.417-0.974 0.417s-0.73-0.139-0.974-0.417l-4.417-4.313c-0.557-0.557-0.557-1.426-0.035-1.948 0.557-0.557 1.391-0.557 1.913 0l1.913 1.983v-9.183h-12.174c-0.765 0-1.391-0.626-1.391-1.391s0.626-1.391 1.391-1.391h13.739c0.765 0 1.252 0.591 1.252 1.357v10.574l2.087-1.983c0.557-0.557 1.496-0.522 2.052 0 0.522 0.557 0.522 1.426-0.035 1.983zM23.513 26.609h-12.209v-9.217l1.913 1.983c0.278 0.278 0.591 0.417 0.939 0.417s0.696-0.139 0.974-0.417c0.557-0.557 0.522-1.426 0-1.948l-4.383-4.348c-0.557-0.522-1.426-0.522-1.983 0l-4.348 4.313c-0.557 0.557-0.557 1.426 0 1.948 0.557 0.557 1.496 0.557 2.052 0l2.087-1.983v10.574c0 0.765 0.452 1.426 1.252 1.426h13.739c0.765 0 1.391-0.626 1.391-1.391s-0.661-1.357-1.426-1.357z"></path>
</svg>
