<!-- Generated by IcoMoon.io -->
<svg version="1.1" xmlns="http://www.w3.org/2000/svg" width="40" height="40" viewBox="0 0 40 40">
<title>di-shopping-bag</title>
<path fill="#37352f" d="M31.757 12.765c-0.243-0.243-0.591-0.417-0.974-0.417h-3.478v-0.626c0-4.070-3.339-7.374-7.235-7.374h-0.139c-3.896 0-7.235 3.304-7.235 7.374v0.626h-3.478c-0.765 0-1.391 0.661-1.391 1.461v20.452c0 0.765 0.626 1.391 1.391 1.391h21.565c0.765 0 1.391-0.626 1.391-1.391v-20.487c0-0.348-0.139-0.73-0.417-1.009zM15.478 11.722c0-2.539 2.087-4.591 4.452-4.591h0.139c2.365 0 4.452 2.052 4.452 4.591v0.626h-9.043v-0.626zM29.391 32.87h-18.783v-17.739h2.087v2.4c0 0.765 0.626 1.391 1.391 1.391s1.391-0.626 1.391-1.391v-2.4h9.043v2.4c0 0.765 0.626 1.391 1.391 1.391s1.391-0.626 1.391-1.391v-2.4h2.087v17.739z"></path>
</svg>
