<!-- Generated by IcoMoon.io -->
<svg version="1.1" xmlns="http://www.w3.org/2000/svg" width="40" height="40" viewBox="0 0 40 40">
<title>di-trash</title>
<path fill="#37352f" d="M31.27 14.574l-1.078 20.104c-0.035 0.73-0.661 1.322-1.391 1.322h-17.6c-0.73 0-1.357-0.591-1.391-1.322l-1.078-20.104c-0.035-0.765 0.557-1.426 1.322-1.461s1.426 0.557 1.461 1.322l1.009 18.783h14.991l1.009-18.783c0.035-0.765 0.696-1.357 1.461-1.322 0.73 0.035 1.322 0.696 1.287 1.461zM34.957 9.913c0 0.765-0.626 1.391-1.391 1.391h-27.13c-0.765 0-1.391-0.626-1.391-1.391s0.626-1.391 1.391-1.391h7.652v-3.13c0-0.661 0.452-1.043 1.113-1.043h9.6c0.661 0 1.113 0.383 1.113 1.043v3.13h7.652c0.765 0 1.391 0.626 1.391 1.391zM16.522 8.522h6.957v-1.739h-6.957v1.739zM17.113 31.13c0 0 0 0 0 0 0.696 0 1.217-0.661 1.217-1.322l-0.348-15.026c0-0.661-0.557-1.217-1.252-1.217-0.661 0-1.217 0.557-1.183 1.252l0.348 15.061c0 0.661 0.557 1.252 1.217 1.252zM22.852 31.13c0.661 0 1.217-0.557 1.217-1.217l0.348-15.026c0-0.661-0.522-1.252-1.183-1.252-0.696 0-1.217 0.522-1.252 1.183l-0.348 15.026c-0.035 0.696 0.522 1.287 1.217 1.287-0.035 0-0.035 0 0 0z"></path>
</svg>
