<!-- Generated by IcoMoon.io -->
<svg version="1.1" xmlns="http://www.w3.org/2000/svg" width="40" height="40" viewBox="0 0 40 40">
<title>di-toggles</title>
<path fill="#37352f" d="M33.217 20.974v13.635c0 0.765-0.626 1.391-1.391 1.391s-1.391-0.626-1.391-1.391v-13.635c0-0.765 0.626-1.391 1.391-1.391s1.391 0.626 1.391 1.391zM31.826 7.965c0.765 0 1.391-0.626 1.391-1.391v-1.183c0-0.765-0.626-1.391-1.391-1.391s-1.391 0.626-1.391 1.391v1.183c0 0.765 0.626 1.391 1.391 1.391zM12.313 20c0 2.296-1.878 4.174-4.139 4.174s-4.174-1.878-4.174-4.174 1.878-4.174 4.139-4.174 4.174 1.878 4.174 4.174zM9.53 20c0-0.765-0.626-1.391-1.357-1.391s-1.391 0.626-1.391 1.391 0.626 1.391 1.357 1.391 1.391-0.626 1.391-1.391zM24.139 26.852c0 2.296-1.878 4.174-4.139 4.174s-4.139-1.878-4.139-4.174c0-2.296 1.878-4.174 4.139-4.174s4.139 1.843 4.139 4.174zM21.357 26.852c0-0.765-0.626-1.391-1.357-1.391s-1.357 0.626-1.357 1.391c0 0.765 0.626 1.391 1.357 1.391s1.357-0.626 1.357-1.391zM36 13.948c0 2.296-1.878 4.174-4.139 4.174s-4.139-1.878-4.139-4.174 1.878-4.174 4.139-4.174 4.139 1.878 4.139 4.174zM33.217 13.948c0-0.765-0.626-1.391-1.357-1.391s-1.357 0.626-1.357 1.391 0.626 1.391 1.357 1.391 1.357-0.591 1.357-1.391zM20 32.417c-0.765 0-1.391 0.626-1.391 1.391v0.8c0 0.765 0.626 1.391 1.391 1.391s1.391-0.626 1.391-1.391v-0.8c0-0.765-0.626-1.391-1.391-1.391zM20 20.939c0.765 0 1.391-0.626 1.391-1.391v-14.157c0-0.765-0.626-1.391-1.391-1.391s-1.391 0.626-1.391 1.391v14.157c0 0.765 0.626 1.391 1.391 1.391zM8.174 26.017c-0.765 0-1.391 0.626-1.391 1.391v7.2c0 0.765 0.626 1.391 1.391 1.391s1.391-0.626 1.391-1.391v-7.2c0-0.765-0.626-1.391-1.391-1.391zM8.174 14.052c0.765 0 1.391-0.626 1.391-1.391v-7.27c0-0.765-0.626-1.391-1.391-1.391s-1.391 0.626-1.391 1.391v7.27c0 0.765 0.626 1.391 1.391 1.391z"></path>
</svg>
