<!-- Generated by IcoMoon.io -->
<svg version="1.1" xmlns="http://www.w3.org/2000/svg" width="40" height="40" viewBox="0 0 40 40">
<title>di-tag-delete</title>
<path fill="#37352f" d="M34.609 10.957h-20.522c-0.348 0-0.661 0.139-0.904 0.348l-8.696 7.652c-0.313 0.278-0.487 0.661-0.487 1.043 0 0.417 0.174 0.765 0.487 1.043l8.696 7.652c0.243 0.209 0.591 0.348 0.904 0.348h20.522c0.765 0 1.391-0.626 1.391-1.391v-15.304c0-0.765-0.626-1.391-1.391-1.391zM33.217 26.261h-18.609l-7.096-6.261 7.13-6.261h18.574v12.522zM19.339 21.878l1.878-1.878-1.878-1.878c-0.487-0.487-0.487-1.252 0-1.704 0.487-0.487 1.252-0.487 1.704 0l1.878 1.878 1.878-1.878c0.487-0.487 1.252-0.487 1.704 0 0.487 0.487 0.487 1.252 0 1.704l-1.843 1.878 1.878 1.878c0.487 0.487 0.487 1.252 0 1.704-0.243 0.243-0.557 0.348-0.87 0.348s-0.626-0.104-0.87-0.348l-1.878-1.878-1.878 1.878c-0.243 0.243-0.557 0.348-0.87 0.348s-0.626-0.104-0.87-0.348c-0.417-0.452-0.417-1.217 0.035-1.704z"></path>
</svg>
