<!-- Generated by IcoMoon.io -->
<svg version="1.1" xmlns="http://www.w3.org/2000/svg" width="40" height="40" viewBox="0 0 40 40">
<title>di-time-reverse</title>
<path fill="#37352f" d="M36 20c0 7.478-6.052 13.565-13.496 13.565-2.748 0-5.391-0.835-7.652-2.365-0.626-0.452-0.8-1.287-0.348-1.948 0.452-0.626 1.287-0.8 1.948-0.348 1.774 1.217 3.896 1.878 6.052 1.878 5.913 0 10.713-4.835 10.713-10.783s-4.8-10.783-10.713-10.783c-5.774 0-10.504 4.626-10.713 10.4l3.235-3.27c0.557-0.557 1.426-0.557 1.983 0s0.557 1.426 0 1.983l-5.322 5.322c-0.278 0.278-0.626 0.417-0.974 0.417-0.383 0-0.73-0.139-0.974-0.417l-5.322-5.357c-0.557-0.557-0.557-1.426 0-1.983s1.426-0.557 1.983 0l2.643 2.678c0.487-6.991 6.33-12.557 13.461-12.557 7.443 0 13.496 6.087 13.496 13.565zM22.435 12.104c-0.765 0-1.391 0.626-1.391 1.391v6.504c0 0.383 0.174 0.73 0.452 0.974l2.991 2.991c0.278 0.278 0.626 0.417 1.009 0.417 0.348 0 0.73-0.139 0.974-0.417 0.557-0.557 0.522-1.426-0.035-1.983l-2.609-2.574v-5.913c0-0.765-0.626-1.391-1.391-1.391z"></path>
</svg>
