<!-- Generated by IcoMoon.io -->
<svg version="1.1" xmlns="http://www.w3.org/2000/svg" width="40" height="40" viewBox="0 0 40 40">
<title>di-view-list-large</title>
<path fill="#37352f" d="M34.122 18.365h-15.583c-1.043 0-1.878-0.835-1.878-1.878v-4.696c0-1.043 0.835-1.878 1.878-1.878h15.548c1.043 0 1.878 0.835 1.878 1.878v4.696c0.035 1.043-0.8 1.878-1.843 1.878zM19.443 15.583h13.774v-2.887h-13.774v2.887zM34.122 30.087h-15.583c-1.043 0-1.878-0.835-1.878-1.878v-4.696c0-1.043 0.835-1.878 1.878-1.878h15.548c1.043 0 1.878 0.835 1.878 1.878v4.696c0.035 1.043-0.8 1.878-1.843 1.878zM19.443 27.304h13.774v-2.887h-13.774v2.887zM12.243 18.365h-6.296c-1.078 0-1.948-0.87-1.948-1.948v-4.557c0-1.078 0.87-1.948 1.948-1.948h6.296c1.078 0 1.948 0.87 1.948 1.948v4.591c0 1.043-0.87 1.913-1.948 1.913zM6.783 15.583h4.626v-2.887h-4.626v2.887zM12.243 30.087h-6.296c-1.078 0-1.948-0.87-1.948-1.948v-4.591c0-1.078 0.87-1.948 1.948-1.948h6.296c1.078 0 1.948 0.87 1.948 1.948v4.591c0 1.078-0.87 1.948-1.948 1.948zM6.783 27.304h4.626v-2.887h-4.626v2.887z"></path>
</svg>
