<!-- Generated by IcoMoon.io -->
<svg version="1.1" xmlns="http://www.w3.org/2000/svg" width="40" height="40" viewBox="0 0 40 40">
<title>di-wifi</title>
<path fill="#37352f" d="M30.47 18.122c0.696 0.661 0.765 1.739 0.104 2.435-0.348 0.383-0.8 0.557-1.287 0.557-0.417 0-0.835-0.139-1.183-0.452-7.722-7.061-16.035-0.348-16.383-0.070-0.73 0.626-1.843 0.522-2.435-0.209-0.626-0.73-0.522-1.809 0.209-2.435 3.791-3.165 12.974-7.165 20.974 0.174zM20.104 27.791c-0.87 0-1.739 0.348-2.33 0.974-0.626 0.626-0.974 1.461-0.974 2.33s0.348 1.704 0.974 2.33c0.626 0.626 1.461 0.974 2.33 0.974s1.739-0.348 2.33-0.974c0.626-0.626 0.974-1.461 0.974-2.33s-0.348-1.704-0.974-2.33c-0.626-0.626-1.461-0.974-2.33-0.974zM35.409 13.391c-8.243-7.2-16.209-6.817-21.461-5.217-5.6 1.704-9.252 5.043-9.391 5.217-0.696 0.661-0.73 1.739-0.070 2.435s1.774 0.73 2.47 0.070c0.035-0.035 3.2-2.957 8.035-4.417 6.4-1.948 12.487-0.417 18.157 4.522 0.313 0.278 0.73 0.417 1.148 0.417 0.487 0 0.974-0.209 1.322-0.591 0.591-0.696 0.522-1.809-0.209-2.435zM14.261 22.887c-0.765 0.591-0.87 1.67-0.278 2.435s1.704 0.87 2.435 0.278c0.139-0.104 3.826-2.957 6.957-0.035 0.348 0.313 0.765 0.452 1.183 0.452 0.452 0 0.939-0.174 1.287-0.557 0.661-0.696 0.626-1.809-0.104-2.435-4.209-3.896-9.357-1.774-11.478-0.139z"></path>
</svg>
