<!-- Generated by IcoMoon.io -->
<svg version="1.1" xmlns="http://www.w3.org/2000/svg" width="24" height="24" viewBox="0 0 24 24">
<title>directions_off</title>
<path fill="#37352f" d="M9.938 7.65l2.063-2.063 6.413 6.413-2.063 2.063 1.125 1.125 2.063-2.063q0.45-0.45 0.45-1.125t-0.45-1.125l-6.413-6.413q-0.45-0.45-1.125-0.45t-1.125 0.45l-2.063 2.063zM4.65 4.65l-1.125 1.125 3 3.037-2.063 2.063q-0.45 0.45-0.45 1.125t0.45 1.125l6.413 6.413q0.45 0.45 1.125 0.45t1.125-0.45l2.063-2.063 3.038 3 1.125-1.125zM12 18.413l-6.413-6.413 2.063-2.063 1.275 1.275h-0.938v1.575h2.55l1.2 1.2-0.863 0.9 1.125 1.125 0.863-0.9 1.2 1.2zM11.137 8.887l0.863-0.9 4.013 4.012-0.863 0.862z"></path>
</svg>
