<!-- Generated by IcoMoon.io -->
<svg version="1.1" xmlns="http://www.w3.org/2000/svg" width="24" height="24" viewBox="0 0 24 24">
<title>dns</title>
<path fill="#37352f" d="M7.988 9.6q0.637 0 1.125-0.488t0.488-1.125-0.488-1.106-1.125-0.469-1.106 0.469-0.469 1.106 0.469 1.125 1.106 0.488zM18.413 4.8q0.337 0 0.563 0.225t0.225 0.563v4.8q0 0.338-0.225 0.581t-0.563 0.244h-12.825q-0.338 0-0.563-0.244t-0.225-0.581v-4.8q0-0.337 0.225-0.563t0.563-0.225h12.825zM7.988 17.587q0.637 0 1.125-0.469t0.488-1.106-0.488-1.125-1.125-0.488-1.106 0.488-0.469 1.125 0.469 1.106 1.106 0.469zM18.413 12.788q0.337 0 0.563 0.244t0.225 0.581v4.8q0 0.337-0.225 0.563t-0.563 0.225h-12.825q-0.338 0-0.563-0.225t-0.225-0.563v-4.8q0-0.338 0.225-0.581t0.563-0.244h12.825z"></path>
</svg>
