<!-- Generated by IcoMoon.io -->
<svg version="1.1" xmlns="http://www.w3.org/2000/svg" width="24" height="24" viewBox="0 0 24 24">
<title>do_not_touch</title>
<path fill="#37352f" d="M12.788 10.538l-1.988-1.988v-4.35q0-0.412 0.3-0.712t0.712-0.3 0.694 0.3 0.281 0.712v6.338zM18.413 12.6v-6q0-0.413-0.3-0.713t-0.712-0.3-0.712 0.3-0.3 0.713v4.612h-0.787v-6.225q0-0.413-0.3-0.694t-0.712-0.281-0.694 0.281-0.281 0.694v6.337l4.8 4.8v-3.525zM10.012 5.813q0-0.412-0.3-0.713t-0.712-0.3-0.694 0.281-0.281 0.656l1.988 1.987v-1.913zM12.788 10.538l-1.988-1.988v-4.35q0-0.412 0.3-0.712t0.712-0.3 0.694 0.3 0.281 0.712v6.338zM18.413 12.6v-6q0-0.413-0.3-0.713t-0.712-0.3-0.712 0.3-0.3 0.713v4.612h-0.787v-6.225q0-0.413-0.3-0.694t-0.712-0.281-0.694 0.281-0.281 0.694v6.337l4.8 4.8v-3.525zM10.012 5.813q0-0.412-0.3-0.713t-0.712-0.3-0.694 0.281-0.281 0.656l1.988 1.987v-1.913zM19.35 19.35l-14.7-14.7-1.125 1.125 4.5 4.5h-0.037v3.413q-0.45-0.225-0.919-0.506t-0.806-0.469l-0.337-0.188q-0.225-0.112-0.45-0.112-0.3 0-0.563 0.188 0 0.037-0.131 0.169t-0.319 0.3-0.319 0.3l-0.131 0.131 5.438 5.737q0.713 0.75 1.725 0.75h4.838q0.712 0 1.313-0.412h-0.038l0.938 0.9z"></path>
</svg>
