<!-- Generated by IcoMoon.io -->
<svg version="1.1" xmlns="http://www.w3.org/2000/svg" width="41" height="40" viewBox="0 0 41 40">
<title>el-adjustments</title>
<path fill="#37352f" d="M35 4h-29c-0.822 0-2 1.178-2 2v28c0 0.822 1.178 2 2 2h29c0.822 0 2-1.178 2-2v-28c0-0.822-1.178-2-2-2zM36 34c-0.006 0.284-0.716 0.994-1 1h-29c-0.284-0.006-0.994-0.716-1-1v-28c0.006-0.284 0.716-0.994 1-1h29c0.284 0.006 0.994 0.716 1 1v28z"></path>
<path fill="#37352f" d="M20.5 9.5c-1.103 0-2 0.897-2 2s0.897 2 2 2 2-0.897 2-2-0.897-2-2-2zM20.5 12.5c-0.551 0-1-0.449-1-1s0.449-1 1-1 1 0.449 1 1-0.449 1-1 1z"></path>
<path fill="#37352f" d="M28.5 25.5c-1.103 0-2 0.897-2 2s0.897 2 2 2 2-0.897 2-2-0.897-2-2-2zM28.5 28.5c-0.551 0-1-0.449-1-1s0.449-1 1-1 1 0.449 1 1-0.449 1-1 1z"></path>
<path fill="#37352f" d="M12.5 20.5c-1.103 0-2 0.897-2 2s0.897 2 2 2 2-0.897 2-2-0.897-2-2-2zM12.5 23.5c-0.551 0-1-0.449-1-1s0.449-1 1-1 1 0.449 1 1-0.449 1-1 1z"></path>
<path fill="#37352f" d="M12.5 19c0.276 0 0.5-0.224 0.5-0.5v-9c0-0.276-0.224-0.5-0.5-0.5s-0.5 0.224-0.5 0.5v9c0 0.276 0.224 0.5 0.5 0.5z"></path>
<path fill="#37352f" d="M12.5 26c-0.276 0-0.5 0.224-0.5 0.5v3c0 0.276 0.224 0.5 0.5 0.5s0.5-0.224 0.5-0.5v-3c0-0.276-0.224-0.5-0.5-0.5z"></path>
<path fill="#37352f" d="M20.5 15c-0.276 0-0.5 0.224-0.5 0.5v14c0 0.276 0.224 0.5 0.5 0.5s0.5-0.224 0.5-0.5v-14c0-0.276-0.224-0.5-0.5-0.5z"></path>
<path fill="#37352f" d="M28.5 24c0.276 0 0.5-0.224 0.5-0.5v-14c0-0.276-0.224-0.5-0.5-0.5s-0.5 0.224-0.5 0.5v14c0 0.276 0.224 0.5 0.5 0.5z"></path>
</svg>
