<!-- Generated by IcoMoon.io -->
<svg version="1.1" xmlns="http://www.w3.org/2000/svg" width="35" height="40" viewBox="0 0 35 40">
<title>el-lock</title>
<path fill="#37352f" d="M18 4c-5.514 0-10 4.486-10 10v3h-1.5c-1.378 0-2.5 1.122-2.5 2.5v14c0 1.378 1.122 2.5 2.5 2.5h23c1.378 0 2.5-1.122 2.5-2.5v-14c0-1.378-1.122-2.5-2.5-2.5h-1.5v-3c0-5.514-4.486-10-10-10zM9 14c0-4.962 4.038-9 9-9s9 4.038 9 9v3h-3v-3c0-3.309-2.691-6-6-6s-6 2.691-6 6v3h-3v-3zM23 17h-10v-3c0-2.757 2.243-5 5-5s5 2.243 5 5v3zM16.293 25l-5 5h-4.586l5-5h4.586zM22.293 25l-5 5h-4.586l5-5h4.586zM28.293 25l-5 5h-4.586l5-5h4.586zM31 25v5h-6.293l5-5h1.293zM5.293 30h-0.293v-5h5.293l-5 5zM29.5 35h-23c-0.827 0-1.5-0.673-1.5-1.5v-2.5h26v2.5c0 0.827-0.673 1.5-1.5 1.5zM31 19.5v4.5h-26v-4.5c0-0.827 0.673-1.5 1.5-1.5h23c0.827 0 1.5 0.673 1.5 1.5z"></path>
</svg>
