<!-- Generated by IcoMoon.io -->
<svg version="1.1" xmlns="http://www.w3.org/2000/svg" width="46" height="40" viewBox="0 0 46 40">
<title>el-video</title>
<path fill="#37352f" d="M11.5 4h-6c-0.869 0-1.5 0.631-1.5 1.5v29c0 0.869 0.631 1.5 1.5 1.5h34c0.869 0 1.5-0.631 1.5-1.5v-29c0-0.869-0.631-1.5-1.5-1.5h-28zM5 34.5v-29c0-0.313 0.187-0.5 0.5-0.5h5.5v30h-5.5c-0.313 0-0.5-0.187-0.5-0.5zM12 35v-30h21v30h-21zM40 5.5v29c0 0.313-0.187 0.5-0.5 0.5h-5.5v-30h5.5c0.313 0 0.5 0.187 0.5 0.5z"></path>
<path fill="#37352f" d="M18.777 14.084c-0.153-0.102-0.351-0.112-0.514-0.025-0.161 0.087-0.263 0.256-0.263 0.441v12c0 0.185 0.102 0.354 0.264 0.441 0.074 0.039 0.155 0.059 0.236 0.059 0.097 0 0.193-0.028 0.277-0.084l9-6c0.139-0.093 0.223-0.249 0.223-0.416s-0.084-0.323-0.223-0.416l-9-6zM19 25.566v-10.132l7.599 5.066-7.599 5.066z"></path>
<path fill="#37352f" d="M9 12h-2c-0.276 0-0.5 0.224-0.5 0.5s0.224 0.5 0.5 0.5h2c0.276 0 0.5-0.224 0.5-0.5s-0.224-0.5-0.5-0.5z"></path>
<path fill="#37352f" d="M7 9h2c0.276 0 0.5-0.224 0.5-0.5s-0.224-0.5-0.5-0.5h-2c-0.276 0-0.5 0.224-0.5 0.5s0.224 0.5 0.5 0.5z"></path>
<path fill="#37352f" d="M9 16h-2c-0.276 0-0.5 0.224-0.5 0.5s0.224 0.5 0.5 0.5h2c0.276 0 0.5-0.224 0.5-0.5s-0.224-0.5-0.5-0.5z"></path>
<path fill="#37352f" d="M9 20h-2c-0.276 0-0.5 0.224-0.5 0.5s0.224 0.5 0.5 0.5h2c0.276 0 0.5-0.224 0.5-0.5s-0.224-0.5-0.5-0.5z"></path>
<path fill="#37352f" d="M9 24h-2c-0.276 0-0.5 0.224-0.5 0.5s0.224 0.5 0.5 0.5h2c0.276 0 0.5-0.224 0.5-0.5s-0.224-0.5-0.5-0.5z"></path>
<path fill="#37352f" d="M9 28h-2c-0.276 0-0.5 0.224-0.5 0.5s0.224 0.5 0.5 0.5h2c0.276 0 0.5-0.224 0.5-0.5s-0.224-0.5-0.5-0.5z"></path>
<path fill="#37352f" d="M9 32h-2c-0.276 0-0.5 0.224-0.5 0.5s0.224 0.5 0.5 0.5h2c0.276 0 0.5-0.224 0.5-0.5s-0.224-0.5-0.5-0.5z"></path>
<path fill="#37352f" d="M36 13h2c0.276 0 0.5-0.224 0.5-0.5s-0.224-0.5-0.5-0.5h-2c-0.276 0-0.5 0.224-0.5 0.5s0.224 0.5 0.5 0.5z"></path>
<path fill="#37352f" d="M36 9h2c0.276 0 0.5-0.224 0.5-0.5s-0.224-0.5-0.5-0.5h-2c-0.276 0-0.5 0.224-0.5 0.5s0.224 0.5 0.5 0.5z"></path>
<path fill="#37352f" d="M36 17h2c0.276 0 0.5-0.224 0.5-0.5s-0.224-0.5-0.5-0.5h-2c-0.276 0-0.5 0.224-0.5 0.5s0.224 0.5 0.5 0.5z"></path>
<path fill="#37352f" d="M36 21h2c0.276 0 0.5-0.224 0.5-0.5s-0.224-0.5-0.5-0.5h-2c-0.276 0-0.5 0.224-0.5 0.5s0.224 0.5 0.5 0.5z"></path>
<path fill="#37352f" d="M36 25h2c0.276 0 0.5-0.224 0.5-0.5s-0.224-0.5-0.5-0.5h-2c-0.276 0-0.5 0.224-0.5 0.5s0.224 0.5 0.5 0.5z"></path>
<path fill="#37352f" d="M36 29h2c0.276 0 0.5-0.224 0.5-0.5s-0.224-0.5-0.5-0.5h-2c-0.276 0-0.5 0.224-0.5 0.5s0.224 0.5 0.5 0.5z"></path>
<path fill="#37352f" d="M38 32h-2c-0.276 0-0.5 0.224-0.5 0.5s0.224 0.5 0.5 0.5h2c0.276 0 0.5-0.224 0.5-0.5s-0.224-0.5-0.5-0.5z"></path>
</svg>
