<!-- Generated by IcoMoon.io -->
<svg version="1.1" xmlns="http://www.w3.org/2000/svg" width="24" height="24" viewBox="0 0 24 24">
<title>electric_rickshaw</title>
<path fill="#37352f" d="M19.2 11.363v-1.2q0-0.563-0.375-1.013l-3.15-3.787q-0.487-0.563-1.237-0.563h-9.638q-0.675 0-1.144 0.469t-0.469 1.144v6.375q0 0.675 0.469 1.144t1.144 0.469h0.15q0.263 0.713 0.862 1.163t1.388 0.45 1.387-0.45 0.863-1.163h6.712q0.225 0.713 0.844 1.163t1.406 0.45q0.675 0 1.219-0.338t0.863-0.881 0.319-1.181q0-0.787-0.45-1.406t-1.162-0.844zM17.138 9.6h-1.95v-2.288zM4.8 6.413h3.188v3.188h-3.188v-3.188zM7.2 14.4q-0.337 0-0.563-0.244t-0.225-0.544q0-0.338 0.225-0.581t0.563-0.244 0.563 0.244 0.225 0.581q0 0.3-0.225 0.544t-0.563 0.244zM9.6 12.788v-1.575h2.4v-1.612h-2.4v-3.188h4.012v6.375h-4.012zM18.413 14.4q-0.337 0-0.581-0.244t-0.244-0.544q0-0.338 0.244-0.581t0.581-0.244q0.3 0 0.544 0.244t0.244 0.581q0 0.3-0.244 0.544t-0.544 0.244zM7.988 18.413h3.225v-1.613l4.8 2.4h-3.225v1.612z"></path>
</svg>
