<!-- Generated by IcoMoon.io -->
<svg version="1.1" xmlns="http://www.w3.org/2000/svg" width="24" height="24" viewBox="0 0 24 24">
<title>event_busy</title>
<path fill="#37352f" d="M17.587 17.587v-8.775h-11.175v8.775h11.175zM17.587 4.8q0.638 0 1.125 0.487t0.488 1.125v11.175q0 0.637-0.488 1.125t-1.125 0.488h-11.175q-0.675 0-1.144-0.469t-0.469-1.144v-11.175q0-0.637 0.469-1.125t1.144-0.487h0.787v-1.613h1.613v1.613h6.375v-1.613h1.612v1.613h0.788zM9.863 16.013l-0.863-0.863 1.95-1.95-1.95-1.95 0.863-0.863 1.95 1.95 1.95-1.95 0.825 0.863-1.95 1.95 1.95 1.95-0.825 0.862-1.95-1.95z"></path>
</svg>
