<!-- Generated by IcoMoon.io -->
<svg version="1.1" xmlns="http://www.w3.org/2000/svg" width="24" height="24" viewBox="0 0 24 24">
<title>extension</title>
<path fill="#37352f" d="M18.788 11.212q0.825 0 1.425 0.581t0.6 1.406-0.6 1.406-1.425 0.581h-1.2v3.225q0 0.637-0.469 1.106t-1.106 0.469h-3.038v-1.2q0-0.9-0.638-1.519t-1.537-0.619-1.538 0.619-0.637 1.519v1.2h-3.038q-0.637 0-1.106-0.469t-0.469-1.106v-3.038h1.2q0.9 0 1.519-0.638t0.619-1.537-0.619-1.538-1.519-0.637h-1.2v-3.037q0-0.637 0.469-1.106t1.106-0.469h3.225v-1.2q0-0.825 0.581-1.425t1.406-0.6 1.406 0.6 0.581 1.425v1.2h3.225q0.638 0 1.106 0.469t0.469 1.106v3.225h1.2z"></path>
</svg>
