<!-- Generated by IcoMoon.io -->
<svg version="1.1" xmlns="http://www.w3.org/2000/svg" width="24" height="24" viewBox="0 0 24 24">
<title>filter_center_focus</title>
<path fill="#37352f" d="M12 9.6q0.975 0 1.688 0.712t0.712 1.688-0.712 1.688-1.688 0.712-1.688-0.712-0.712-1.688 0.712-1.688 1.688-0.712zM17.587 17.587v-3.188h1.613v3.188q0 0.638-0.488 1.125t-1.125 0.488h-3.188v-1.613h3.188zM17.587 4.8q0.638 0 1.125 0.487t0.488 1.125v3.188h-1.613v-3.188h-3.188v-1.612h3.188zM6.413 6.413v3.188h-1.612v-3.188q0-0.638 0.487-1.125t1.125-0.487h3.188v1.612h-3.188zM6.413 14.4v3.188h3.188v1.613h-3.188q-0.638 0-1.125-0.488t-0.487-1.125v-3.188h1.612z"></path>
</svg>
