<!-- Generated by IcoMoon.io -->
<svg version="1.1" xmlns="http://www.w3.org/2000/svg" width="24" height="24" viewBox="0 0 24 24">
<title>filter_tilt_shift</title>
<path fill="#37352f" d="M6.938 18.188l1.125-1.125q1.35 1.050 3.15 1.275v1.613q-1.012-0.113-2.269-0.638t-2.006-1.125zM12.788 18.337q1.762-0.225 3.113-1.275l1.163 1.125q-1.913 1.538-4.275 1.763v-1.613zM17.063 15.938q1.087-1.35 1.275-3.112h1.613q-0.113 0.975-0.638 2.231t-1.125 2.006zM14.4 12q0 0.975-0.712 1.688t-1.688 0.712-1.688-0.712-0.712-1.688 0.712-1.688 1.688-0.712 1.688 0.712 0.712 1.688zM5.662 12.788q0.188 1.762 1.275 3.113l-1.125 1.163q-1.537-1.913-1.762-4.275h1.612zM6.938 8.063q-1.050 1.387-1.275 3.15h-1.612q0.112-1.012 0.637-2.269t1.125-2.006zM18.337 11.212q-0.225-1.8-1.275-3.15l1.125-1.125q1.538 1.913 1.763 4.275h-1.613zM17.063 5.813l-1.125 1.125q-1.388-1.050-3.15-1.275v-1.612q1.012 0.112 2.269 0.637t2.006 1.125zM11.212 5.662q-1.8 0.225-3.15 1.275l-1.125-1.125q1.913-1.537 4.275-1.762v1.612z"></path>
</svg>
