<!-- Generated by IcoMoon.io -->
<svg version="1.1" xmlns="http://www.w3.org/2000/svg" width="24" height="24" viewBox="0 0 24 24">
<title>flip_to_front</title>
<path fill="#37352f" d="M7.988 19.2v-1.613h1.613v1.613h-1.613zM11.212 19.2v-1.613h1.575v1.613h-1.575zM17.587 14.4v-7.987h-7.987v7.987h7.987zM17.587 4.8q0.638 0 1.125 0.487t0.488 1.125v7.988q0 0.638-0.488 1.125t-1.125 0.488h-7.987q-0.675 0-1.144-0.469t-0.469-1.144v-7.988q0-0.675 0.469-1.144t1.144-0.469h7.987zM14.4 19.2v-1.613h1.613v1.613h-1.613zM4.8 9.6v-1.613h1.612v1.613h-1.612zM6.413 19.2q-0.675 0-1.144-0.469t-0.469-1.144h1.612v1.613zM4.8 16.013v-1.613h1.612v1.613h-1.612zM4.8 12.788v-1.575h1.612v1.575h-1.612z"></path>
</svg>
