<!-- Generated by IcoMoon.io -->
<svg version="1.1" xmlns="http://www.w3.org/2000/svg" width="24" height="24" viewBox="0 0 24 24">
<title>flip_camera_ios</title>
<path fill="#37352f" d="M15.6 14.813l1.987-2.025h-1.575q0-1.65-1.181-2.813t-2.831-1.163q-0.975 0-1.875 0.488l0.563 0.563q0.525-0.262 1.313-0.262 1.313 0 2.25 0.938t0.938 2.25h-1.575zM12 16.8q0.975 0 1.875-0.487l-0.563-0.6q-0.6 0.3-1.313 0.3-1.313 0-2.25-0.956t-0.938-2.269h1.575l-1.988-1.988-1.987 1.988h1.575q0 1.65 1.181 2.831t2.831 1.181zM18.413 6.413q0.637 0 1.106 0.469t0.469 1.106v9.6q0 0.637-0.469 1.125t-1.106 0.488h-12.825q-0.638 0-1.106-0.488t-0.469-1.125v-9.6q0-0.638 0.469-1.106t1.106-0.469h2.55l1.463-1.612h4.8l1.463 1.612h2.55z"></path>
</svg>
