<!-- Generated by IcoMoon.io -->
<svg version="1.1" xmlns="http://www.w3.org/2000/svg" width="24" height="24" viewBox="0 0 24 24">
<title>flip</title>
<path fill="#37352f" d="M17.587 19.2v-1.613h1.613q0 0.637-0.488 1.125t-1.125 0.488zM17.587 12.788v-1.575h1.613v1.575h-1.613zM14.4 6.413v-1.612h1.613v1.612h-1.613zM17.587 16.013v-1.613h1.613v1.613h-1.613zM11.212 20.813v-17.625h1.575v17.625h-1.575zM17.587 4.8q0.638 0 1.125 0.487t0.488 1.125h-1.613v-1.612zM4.8 6.413q0-0.638 0.487-1.125t1.125-0.487h3.188v1.612h-3.188v11.175h3.188v1.613h-3.188q-0.638 0-1.125-0.488t-0.487-1.125v-11.175zM17.587 9.6v-1.613h1.613v1.613h-1.613zM14.4 19.2v-1.613h1.613v1.613h-1.613z"></path>
</svg>
