<!-- Generated by IcoMoon.io -->
<svg version="1.1" xmlns="http://www.w3.org/2000/svg" width="24" height="24" viewBox="0 0 24 24">
<title>format_shapes</title>
<path fill="#37352f" d="M10.95 12.6h2.1l-1.050-3.075zM13.388 13.612h-2.813l-0.563 1.575h-1.313l2.738-7.2h1.125l2.7 7.2h-1.275zM17.587 6.413h1.613v-1.612h-1.613v1.612zM19.2 19.2v-1.613h-1.613v1.613h1.613zM16.013 17.587v-1.575h1.575v-8.025h-1.575v-1.575h-8.025v1.575h-1.575v8.025h1.575v1.575h8.025zM6.413 19.2v-1.613h-1.612v1.613h1.612zM4.8 4.8v1.612h1.612v-1.612h-1.612zM20.813 7.988h-1.612v8.025h1.612v4.8h-4.8v-1.612h-8.025v1.612h-4.8v-4.8h1.613v-8.025h-1.613v-4.8h4.8v1.613h8.025v-1.613h4.8v4.8z"></path>
</svg>
