<!-- Generated by IcoMoon.io -->
<svg version="1.1" xmlns="http://www.w3.org/2000/svg" width="24" height="24" viewBox="0 0 24 24">
<title>g</title>
<path fill="#37352f" d="M16.013 12.788h1.575v1.612h-3.975v-4.8h5.588q0-0.675-0.469-1.144t-1.144-0.469h-3.975q-0.675 0-1.144 0.469t-0.469 1.144v4.8q0 0.675 0.469 1.144t1.144 0.469h3.975q0.675 0 1.144-0.469t0.469-1.144v-3.188h-3.188v1.575zM4.8 12.788h4.012v1.612h-4.012v1.613h4.012q0.637 0 1.106-0.469t0.469-1.144v-1.612q0-0.638-0.469-1.106t-1.106-0.469h-2.4v-1.612h3.975v-1.613h-5.588v4.8z"></path>
</svg>
