<!-- Generated by IcoMoon.io -->
<svg version="1.1" xmlns="http://www.w3.org/2000/svg" width="24" height="24" viewBox="0 0 24 24">
<title>g_translate</title>
<path fill="#37352f" d="M19.612 18.788v-11.175q0-0.338-0.244-0.581t-0.581-0.244h-7.238l1.050 3.038h1.162v-1.012h1.013v1.012h3.637v1.050h-1.537q-0.563 1.875-1.913 3.375l2.625 2.625-0.75 0.712-2.475-2.475 0.825 2.475-1.575 2.025h5.175q0.338 0 0.581-0.244t0.244-0.581zM12.938 10.875l0.638 1.875 0.675 0.9q1.163-1.275 1.65-2.775h-2.962zM7.988 15.188q1.725 0 2.794-1.087t1.069-2.813q0-0.038-0.113-0.825h-3.75v1.388h2.363q-0.075 0.712-0.675 1.313t-1.688 0.6q-1.050 0-1.781-0.75t-0.731-1.8q0-1.087 0.731-1.838t1.781-0.75q1.012 0 1.65 0.637l1.050-1.012q-1.163-1.050-2.7-1.050-1.65 0-2.813 1.181t-1.162 2.831 1.162 2.813 2.813 1.163zM19.2 5.588q0.637 0 1.125 0.487t0.487 1.125v12q0 0.637-0.487 1.125t-1.125 0.487h-7.2l-0.788-2.4h-6.412q-0.637 0-1.125-0.488t-0.488-1.125v-12q0-0.638 0.488-1.125t1.125-0.488h5.588l0.825 2.4h7.988z"></path>
</svg>
