<!-- Generated by IcoMoon.io -->
<svg version="1.1" xmlns="http://www.w3.org/2000/svg" width="24" height="24" viewBox="0 0 24 24">
<title>grass</title>
<path fill="#37352f" d="M12 18.413h-7.988v-1.613h4.575q-0.412-1.688-1.65-2.925t-2.925-1.65q0.375-0.112 0.769-0.169t0.806-0.056q1.35 0 2.513 0.506t2.025 1.369 1.369 2.025 0.506 2.512zM19.987 12.225q-0.375-0.113-0.769-0.169t-0.806-0.056q-1.763 0-3.225 0.862t-2.288 2.287q0.188 0.375 0.319 0.788t0.206 0.862q0.15 0.788 0.15 1.613h6.412v-1.613h-4.612q0.45-1.687 1.688-2.925t2.925-1.65zM14.925 11.212q0.45-1.237 1.294-2.269t1.969-1.744q-1.275 0.075-2.4 0.581t-1.969 1.369-1.331 2.006-0.487 2.456v0 0q1.162-1.538 2.925-2.4zM11.55 9.488q-0.525-1.313-1.5-2.325t-2.287-1.575q0.863 1.125 1.35 2.494t0.488 2.869q0 0.15-0.019 0.262t-0.019 0.225q0.262 0.15 0.506 0.319t0.469 0.356q0.15-0.712 0.394-1.369t0.619-1.256z"></path>
</svg>
