<!-- Generated by IcoMoon.io -->
<svg version="1.1" xmlns="http://www.w3.org/2000/svg" width="24" height="24" viewBox="0 0 24 24">
<title>group</title>
<path fill="#37352f" d="M15.188 12.788q1.050 0 2.288 0.3t2.288 0.975 1.050 1.538v1.987h-4.8v-1.987q0-1.65-1.575-2.775 0.263-0.037 0.75-0.037zM8.813 12.788q1.050 0 2.288 0.3t2.269 0.975 1.031 1.538v1.987h-11.212v-1.987q0-0.863 1.050-1.538t2.287-0.975 2.288-0.3zM8.813 11.212q-0.975 0-1.688-0.712t-0.712-1.688 0.712-1.688 1.688-0.712 1.669 0.712 0.694 1.688-0.694 1.688-1.669 0.712zM15.188 11.212q-0.975 0-1.688-0.712t-0.712-1.688 0.712-1.688 1.688-0.712 1.688 0.712 0.712 1.688-0.712 1.688-1.688 0.712z"></path>
</svg>
