<!-- Generated by IcoMoon.io -->
<svg version="1.1" xmlns="http://www.w3.org/2000/svg" width="24" height="24" viewBox="0 0 24 24">
<title>groups</title>
<path fill="#37352f" d="M12 12.6q0.975 0 1.837 0.206t1.538 0.506 1.050 0.9 0.375 1.275v1.312h-9.6v-1.275q0-0.712 0.375-1.313t1.050-0.9 1.537-0.506 1.837-0.206zM5.588 12.788q0.675 0 1.144-0.469t0.469-1.106q0-0.675-0.469-1.144t-1.144-0.469q-0.638 0-1.106 0.469t-0.469 1.144q0 0.638 0.469 1.106t1.106 0.469zM6.488 13.688q-0.188-0.038-0.413-0.056t-0.487-0.019q-0.6 0-1.144 0.113t-1.069 0.337q-0.45 0.188-0.712 0.6t-0.263 0.9v1.237h3.6v-1.275q0-0.975 0.488-1.837zM18.413 12.788q0.637 0 1.106-0.469t0.469-1.106q0-0.675-0.469-1.144t-1.106-0.469q-0.675 0-1.144 0.469t-0.469 1.144q0 0.638 0.469 1.106t1.144 0.469zM21.6 15.563q0-0.487-0.263-0.9t-0.712-0.6q-0.525-0.225-1.069-0.337t-1.144-0.113q-0.263 0-0.488 0.019t-0.412 0.056q0.487 0.862 0.487 1.837v1.275h3.6v-1.237zM12 7.2q0.675 0 1.219 0.319t0.862 0.863 0.319 1.219-0.319 1.219-0.862 0.862-1.219 0.319-1.219-0.319-0.863-0.862-0.319-1.219 0.319-1.219 0.863-0.863 1.219-0.319z"></path>
</svg>
