<!-- Generated by IcoMoon.io -->
<svg version="1.1" xmlns="http://www.w3.org/2000/svg" width="24" height="24" viewBox="0 0 24 24">
<title>high_quality</title>
<path fill="#37352f" d="M13.987 13.2v-2.4h1.612v2.4h-1.612zM16.8 13.612v-3.225q0-0.338-0.225-0.563t-0.563-0.225h-2.4q-0.338 0-0.581 0.225t-0.244 0.563v3.225q0 0.338 0.244 0.563t0.581 0.225h0.6v1.2h1.2v-1.2h0.6q0.337 0 0.563-0.225t0.225-0.563zM11.212 14.4v-4.8h-1.2v1.987h-1.613v-1.987h-1.2v4.8h1.2v-1.612h1.613v1.612h1.2zM17.587 5.588q0.638 0 1.125 0.487t0.488 1.125v9.6q0 0.638-0.488 1.125t-1.125 0.488h-11.175q-0.675 0-1.144-0.469t-0.469-1.144v-9.6q0-0.675 0.469-1.144t1.144-0.469h11.175z"></path>
</svg>
