<!-- Generated by IcoMoon.io -->
<svg version="1.1" xmlns="http://www.w3.org/2000/svg" width="24" height="24" viewBox="0 0 24 24">
<title>hot_tub</title>
<path fill="#37352f" d="M14.138 7.087q1.237 1.2 1.013 2.962l-0.038 0.338h-1.537l0.112-0.45q0.188-1.012-0.6-1.8-1.275-1.275-1.050-3l0.037-0.338h1.537l-0.075 0.488q-0.188 1.013 0.525 1.763zM17.325 7.087q1.275 1.237 1.050 2.962l-0.075 0.338h-1.5l0.075-0.45q0.188-1.012-0.525-1.762l-0.075-0.037q-1.275-1.275-1.050-3l0.075-0.338h1.5l-0.075 0.488q-0.188 1.013 0.525 1.763zM17.587 18.413v-4.8h-1.575v4.8h1.575zM14.4 18.413v-4.8h-1.612v4.8h1.612zM11.212 18.413v-4.8h-1.612v4.8h1.612zM7.988 18.413v-4.8h-1.575v4.8h1.575zM11.325 12h8.662v6.413q0 0.637-0.469 1.106t-1.106 0.469h-12.825q-0.637 0-1.106-0.469t-0.469-1.106v-6.413h2.4v-0.6q0-0.75 0.544-1.275t1.256-0.525q0.75 0 1.35 0.6l1.088 1.238q0.15 0.188 0.675 0.562zM6.413 7.2q0-0.675 0.45-1.144t1.125-0.469 1.144 0.469 0.469 1.144-0.469 1.144-1.144 0.469-1.125-0.469-0.45-1.144z"></path>
</svg>
