<!-- Generated by IcoMoon.io -->
<svg version="1.1" xmlns="http://www.w3.org/2000/svg" width="40" height="40" viewBox="0 0 40 40">
<title>io-alarm-outline</title>
<path fill="none" stroke-linejoin="miter" stroke-linecap="butt" stroke-miterlimit="10" stroke-width="2.5" stroke="#37352f" d="M30.004 21c0-5.523-4.477-10-10-10s-10 4.477-10 10c0 5.523 4.477 10 10 10v0c5.523 0 10-4.477 10-10v0z"></path>
<path fill="none" stroke-linejoin="miter" stroke-linecap="butt" stroke-miterlimit="10" stroke-width="2.5" stroke="#37352f" d="M12.882 9.701c-0.503-0.433-1.162-0.697-1.882-0.701h-0.001l-0.174 0.005c-1.597 0.096-2.826 1.495-2.821 3.183 0 0.826 0.291 1.211 0.68 1.702 0.048 0.062 0.12 0.104 0.201 0.111l0.001 0h0.055c0.065-0.001 0.122-0.033 0.158-0.081l0-0.001 3.798-3.731c0.060-0.061 0.097-0.144 0.097-0.236 0-0.005-0-0.010-0-0.014l0 0.001c-0.003-0.095-0.046-0.179-0.113-0.237l-0-0z"></path>
<path fill="none" stroke-linejoin="miter" stroke-linecap="butt" stroke-miterlimit="10" stroke-width="2.5" stroke="#37352f" d="M27.117 9.701c0.503-0.433 1.162-0.697 1.882-0.701h0.001l0.174 0.005c1.597 0.096 2.826 1.495 2.821 3.183 0 0.826-0.291 1.211-0.68 1.702-0.048 0.062-0.12 0.103-0.201 0.11l-0.001 0h-0.055c-0.065-0.001-0.122-0.033-0.158-0.081l-0-0.001-3.798-3.73c-0.060-0.061-0.097-0.144-0.097-0.236 0-0.005 0-0.010 0-0.014l-0 0.001c0.003-0.095 0.046-0.179 0.113-0.237l0-0z"></path>
<path fill="none" stroke-linejoin="round" stroke-linecap="round" stroke-miterlimit="4" stroke-width="2.5" stroke="#37352f" d="M20.004 14v7h-5"></path>
<path fill="none" stroke-linejoin="round" stroke-linecap="round" stroke-miterlimit="4" stroke-width="2.5" stroke="#37352f" d="M30.004 31l-2.5-2.5"></path>
<path fill="none" stroke-linejoin="round" stroke-linecap="round" stroke-miterlimit="4" stroke-width="2.5" stroke="#37352f" d="M10.004 31l2.5-2.5"></path>
</svg>
