<!-- Generated by IcoMoon.io -->
<svg version="1.1" xmlns="http://www.w3.org/2000/svg" width="40" height="40" viewBox="0 0 40 40">
<title>io-at-circle</title>
<path fill="#37352f" d="M19.966 7.046c-7.178 0-13 5.819-13 13s5.82 13 13 13 13-5.82 13-13-5.822-13-13-13zM27.767 19.75c-0.178 2.039-1.049 3.106-1.75 3.641s-1.542 0.77-2.267 0.64c-0.698-0.128-1.287-0.52-1.671-1.066l-0.006-0.008c-0.698 0.679-1.652 1.098-2.704 1.098-0.016 0-0.032-0-0.048-0l0.002 0c-0.007 0-0.016 0-0.025 0-0.943 0-1.792-0.404-2.382-1.050l-0.002-0.002c-0.711-0.776-1.063-1.898-0.958-3.077 0.188-2.188 1.932-3.587 3.554-3.842 1.7-0.268 3.264 0.409 3.931 1.216l0.241 0.291-0.396 3.149c-0.074 0.896 0.205 1.468 0.768 1.569 0.149 0.026 0.506-0.008 0.898-0.308 0.42-0.322 0.946-1 1.069-2.404 0.147-1.659-0.272-3.074-1.203-4.093-0.968-1.056-2.443-1.615-4.264-1.615-3.375 0-6.363 2.777-6.661 6.188-0.143 1.637 0.354 3.167 1.4 4.308 1.022 1.116 2.457 1.734 4.041 1.734 1.188 0 1.913-0.128 3.093-0.549 0.087-0.032 0.188-0.051 0.294-0.051 0.483 0 0.875 0.392 0.875 0.875 0 0.378-0.24 0.7-0.575 0.822l-0.006 0.002c-1.364 0.486-2.292 0.65-3.68 0.65-2.080 0-3.973-0.816-5.331-2.298-1.378-1.507-2.039-3.511-1.853-5.643 0.182-2.083 1.153-4.039 2.736-5.508s3.598-2.281 5.669-2.281c2.325 0 4.246 0.755 5.554 2.183 1.256 1.369 1.844 3.297 1.659 5.429z"></path>
<path fill="#37352f" d="M19.786 17.813c-0.927 0.146-1.973 0.99-2.084 2.266-0.063 0.691 0.125 1.326 0.504 1.742 0.271 0.298 0.661 0.485 1.094 0.485 0.009 0 0.018-0 0.026-0l-0.001 0c1.269 0 2.171-0.934 2.297-2.379 0.004-0.048 0.012-0.093 0.023-0.135l-0.001 0.006 0.2-1.591c-0.451-0.271-0.996-0.431-1.577-0.431-0.17 0-0.336 0.014-0.499 0.040l0.018-0.002z"></path>
</svg>
