<!-- Generated by IcoMoon.io -->
<svg version="1.1" xmlns="http://www.w3.org/2000/svg" width="40" height="40" viewBox="0 0 40 40">
<title>io-analytics</title>
<path fill="#37352f" d="M32.5 12c-1.38 0-2.499 1.119-2.499 2.5 0 0.328 0.063 0.642 0.178 0.929l-0.006-0.017-5.261 5.261c-0.27-0.11-0.584-0.173-0.913-0.173s-0.642 0.064-0.929 0.179l0.017-0.006-3.761-3.761c0.11-0.271 0.173-0.585 0.173-0.914 0-1.381-1.119-2.5-2.5-2.5s-2.5 1.119-2.5 2.5c0 0.329 0.064 0.643 0.179 0.931l-0.006-0.017-6.261 6.261c-0.271-0.109-0.584-0.173-0.913-0.173-1.381 0-2.5 1.119-2.5 2.5s1.119 2.5 2.5 2.5c1.381 0 2.5-1.119 2.5-2.5 0-0.329-0.063-0.642-0.179-0.93l0.006 0.017 6.261-6.261c0.27 0.11 0.584 0.173 0.912 0.173s0.642-0.064 0.929-0.179l-0.017 0.006 3.761 3.761c-0.11 0.271-0.173 0.585-0.173 0.914 0 1.381 1.119 2.5 2.5 2.5s2.5-1.119 2.5-2.5c0-0.329-0.064-0.643-0.179-0.931l0.006 0.017 5.261-5.261c0.271 0.11 0.585 0.173 0.914 0.173 1.381 0 2.5-1.119 2.5-2.5s-1.119-2.5-2.5-2.5c-0.001 0-0.001 0-0.002 0h0z"></path>
</svg>
