<!-- Generated by IcoMoon.io -->
<svg version="1.1" xmlns="http://www.w3.org/2000/svg" width="40" height="40" viewBox="0 0 40 40">
<title>io-barcode</title>
<path fill="#37352f" d="M30.196 10h-0.008l-2.191 0.021-16.007-0.021-2.296 0.021c-1.511 0.003-2.694 1.234-2.694 2.804v14.392c0 1.572 1.188 2.804 2.7 2.804h0.009l2.294-0.021 16.006 0.021 2.192-0.021c1.546-0.005 2.797-1.258 2.799-2.804v-14.391c-0.002-1.548-1.256-2.803-2.804-2.804h-0zM13 24c0 0.552-0.448 1-1 1s-1-0.448-1-1v0-8c0-0.552 0.448-1 1-1s1 0.448 1 1v0zM17 26c0 0.552-0.448 1-1 1s-1-0.448-1-1v0-12c0-0.552 0.448-1 1-1s1 0.448 1 1v0zM21 25c0 0.552-0.448 1-1 1s-1-0.448-1-1v0-10c0-0.552 0.448-1 1-1s1 0.448 1 1v0zM25 26c0 0.552-0.448 1-1 1s-1-0.448-1-1v0-12c0-0.552 0.448-1 1-1s1 0.448 1 1v0zM29 24c0 0.552-0.448 1-1 1s-1-0.448-1-1v0-8c0-0.552 0.448-1 1-1s1 0.448 1 1v0z"></path>
</svg>
