<!-- Generated by IcoMoon.io -->
<svg version="1.1" xmlns="http://www.w3.org/2000/svg" width="40" height="40" viewBox="0 0 40 40">
<title>io-bed</title>
<path fill="#37352f" d="M31 18.419c-0.587-0.265-1.274-0.419-1.996-0.419-0.001 0-0.003 0-0.005 0h-18c-0.001 0-0.003 0-0.005 0-0.722 0-1.408 0.154-2.027 0.431l0.032-0.013c-1.78 0.792-2.998 2.545-3 4.582v7c0 0.552 0.448 1 1 1s1-0.448 1-1v0-0.5c0.003-0.275 0.225-0.497 0.5-0.5h23c0.275 0.003 0.497 0.225 0.5 0.5v0.5c0 0.552 0.448 1 1 1s1-0.448 1-1v0-7c-0.002-2.037-1.221-3.789-2.968-4.569l-0.032-0.013z"></path>
<path fill="#37352f" d="M27.5 9h-15c-1.933 0-3.5 1.567-3.5 3.5v0 4.5c0 0.138 0.112 0.25 0.25 0.25 0.025 0 0.049-0.004 0.071-0.010l-0.002 0c0.502-0.152 1.078-0.24 1.676-0.24 0.002 0 0.004 0 0.005 0h0.264c0 0 0.001 0 0.002 0 0.128 0 0.234-0.096 0.248-0.221l0-0.001c0.115-1.004 0.96-1.777 1.986-1.778h3.5c1.026 0 1.872 0.773 1.987 1.769l0.001 0.009c0.015 0.125 0.12 0.222 0.248 0.222 0.001 0 0.001 0 0.002 0h1.529c0 0 0.001 0 0.002 0 0.128 0 0.234-0.096 0.248-0.221l0-0.001c0.115-1.004 0.959-1.776 1.984-1.778h3.5c1.026 0 1.872 0.773 1.987 1.769l0.001 0.009c0.015 0.125 0.12 0.222 0.248 0.222 0.001 0 0.001 0 0.002 0h0.262c0.001 0 0.002 0 0.003 0 0.598 0 1.175 0.088 1.72 0.252l-0.042-0.011c0.021 0.006 0.045 0.010 0.069 0.010 0.138 0 0.25-0.112 0.25-0.25 0-0 0-0 0-0v0-4.5c0-1.933-1.567-3.5-3.5-3.5v0z"></path>
</svg>
