<!-- Generated by IcoMoon.io -->
<svg version="1.1" xmlns="http://www.w3.org/2000/svg" width="40" height="40" viewBox="0 0 40 40">
<title>io-beer-sharp</title>
<path fill="#37352f" d="M32 17h-5v-0.359c0.622-0.701 1.002-1.63 1.002-2.647 0-2.173-1.734-3.941-3.894-3.994l-0.005-0c-0.339-1.159-0.935-2.154-1.725-2.957l0.001 0.001c-1.234-1.262-2.953-2.044-4.856-2.044-0.008 0-0.016 0-0.024 0h0.001c-1.869 0-3.611 0.768-4.938 2.167-0.317-0.105-0.682-0.165-1.061-0.165-1.933 0-3.5 1.567-3.5 3.5 0 0.549 0.126 1.068 0.351 1.53l-0.009-0.021c-0.062 0.054-0.119 0.109-0.177 0.166-0.721 0.719-1.166 1.713-1.166 2.812 0 0.009 0 0.019 0 0.028v-0.001c0.001 1.153 0.501 2.19 1.295 2.906l0.004 0.003c0.206 0.188 0.436 0.358 0.683 0.502l0.019 0.010v15.562c0 0.552 0.448 1 1 1v0h16c0.552 0 1-0.448 1-1v0-3h5c0.552 0 1-0.448 1-1v0-12c0-0.552-0.448-1-1-1v0zM15 31h-2v-12h2zM19 31h-2v-12h2zM23 31h-2v-12h2zM24 16c-0.521 0-1.284-0.324-1.668-0.707l-0.293-0.293h-8.74l-0.237 0.658c-0.363 1-1.177 1.276-1.796 1.331-0.057 0.005-0.123 0.009-0.19 0.009-0.551 0-1.053-0.209-1.431-0.552l0.002 0.002c-0.395-0.355-0.643-0.867-0.645-1.437v-0c-0-0.004-0-0.008-0-0.013 0-0.549 0.223-1.047 0.583-1.406l0-0c0.010-0.011 0.021-0.020 0.031-0.031 0.357-0.346 0.844-0.559 1.382-0.559 0.001 0 0.001 0 0.001 0h-0c0.006 0 0.57 0.021 1.025 0.363l0.8 0.6 1.2-1.6-0.8-0.6c-0.617-0.454-1.386-0.736-2.219-0.762l-0.006-0c-0.31 0-0.612 0.036-0.902 0.102l0.027-0.005c-0.077-0.175-0.122-0.379-0.122-0.593 0-0.828 0.672-1.5 1.5-1.5 0.495 0 0.934 0.24 1.207 0.609l0.003 0.004 0.014 0.022 0.025 0.029c0.124 0.161 0.229 0.345 0.307 0.544l0.005 0.015 0.351 0.938 1.875-0.702-0.351-0.938c-0.164-0.424-0.374-0.79-0.632-1.118l0.007 0.009c-0.024-0.033-0.049-0.063-0.074-0.094 0.909-0.855 2.050-1.321 3.26-1.321 0.004 0 0.009-0 0.014-0 1.347 0 2.565 0.555 3.437 1.448l0.001 0.001c0.88 0.902 1.423 2.137 1.423 3.499 0 0.328-0.032 0.649-0.092 0.959l0.005-0.032-0.187 0.982 1.964 0.375 0.187-0.982c0.072-0.362 0.117-0.781 0.122-1.21l0-0.005c0.931 0.183 1.624 0.993 1.624 1.964 0 1.104-0.895 2-1.999 2h-0zM31 29h-4v-10h4z"></path>
</svg>
