<!-- Generated by IcoMoon.io -->
<svg version="1.1" xmlns="http://www.w3.org/2000/svg" width="40" height="40" viewBox="0 0 40 40">
<title>io-bag-handle-outline</title>
<path fill="none" stroke-linejoin="round" stroke-linecap="round" stroke-miterlimit="4" stroke-width="2.5" stroke="#37352f" d="M9 15c-0.552 0-1 0.448-1 1v0 13.5c0 1.89 1.61 3.5 3.5 3.5h17c1.89 0 3.5-1.532 3.5-3.422v-13.578c0-0.552-0.448-1-1-1v0z"></path>
<path fill="none" stroke-linejoin="round" stroke-linecap="round" stroke-miterlimit="4" stroke-width="2.5" stroke="#37352f" d="M14 15v-2c0-3.314 2.686-6 6-6v0 0c3.314 0 6 2.686 6 6v0 2"></path>
<path fill="none" stroke-linejoin="round" stroke-linecap="round" stroke-miterlimit="4" stroke-width="2.5" stroke="#37352f" d="M14 18v1c0 3.314 2.686 6 6 6v0 0c3.314 0 6-2.686 6-6v0-1"></path>
</svg>
