<!-- Generated by IcoMoon.io -->
<svg version="1.1" xmlns="http://www.w3.org/2000/svg" width="40" height="40" viewBox="0 0 40 40">
<title>io-body</title>
<path fill="#37352f" d="M23.5 7.5c0 1.933-1.567 3.5-3.5 3.5s-3.5-1.567-3.5-3.5c0-1.933 1.567-3.5 3.5-3.5s3.5 1.567 3.5 3.5z"></path>
<path fill="#37352f" d="M31.313 12h-22.625c-0.932 0-1.688 0.756-1.688 1.688s0.756 1.687 1.688 1.687v0h6.367c0.432 0 0.938 0.193 1.224 0.938 0.334 0.864 0.171 2.534-0.036 3.827l-0.27 1.528c0 0.001 0 0.002 0 0.003 0 0.007-0.003 0.014-0.008 0.019v0l-2.162 12.301c-0.016 0.089-0.026 0.192-0.026 0.297 0 0.839 0.603 1.538 1.4 1.686l0.011 0.002c0.089 0.016 0.19 0.026 0.295 0.026 0.838 0 1.534-0.609 1.668-1.409l0.001-0.010 1.494-8.55s0.479-2.031 1.354-2.031c0.889 0 1.359 2.031 1.359 2.031l1.494 8.557c0.136 0.816 0.836 1.43 1.681 1.43 0.94 0 1.703-0.762 1.703-1.703 0-0.116-0.012-0.229-0.034-0.339l0.002 0.011-2.163-12.301c0-0.001 0-0.002 0-0.003 0-0.007-0.003-0.014-0.007-0.019l0 0-0.271-1.528c-0.206-1.293-0.37-2.963-0.036-3.827 0.285-0.742 0.807-0.938 1.205-0.938h6.379c0.932 0 1.688-0.756 1.688-1.688s-0.756-1.688-1.688-1.688v0z"></path>
</svg>
