<!-- Generated by IcoMoon.io -->
<svg version="1.1" xmlns="http://www.w3.org/2000/svg" width="40" height="40" viewBox="0 0 40 40">
<title>io-basket-sharp</title>
<path fill="#37352f" d="M25.2 17.6l-5.2-6.933-5.2 6.933-1.6-1.2 6-8c0.184-0.244 0.474-0.4 0.8-0.4s0.616 0.156 0.798 0.398l0.002 0.002 6 8z"></path>
<path fill="#37352f" d="M31.599 16h-23.199c-0 0-0 0-0 0-0.414 0-0.75 0.336-0.75 0.75 0 0.061 0.007 0.121 0.021 0.178l-0.001-0.005 3.366 14.202h17.926l3.366-14.202c0.013-0.052 0.020-0.112 0.020-0.173 0-0.414-0.336-0.75-0.75-0.75-0 0-0 0-0 0v0zM20 25.979c-1.297-0.006-2.346-1.059-2.346-2.357 0-1.302 1.055-2.357 2.357-2.357s2.357 1.055 2.357 2.357c0 0.001 0 0.002 0 0.003v-0c-0.008 1.302-1.065 2.354-2.367 2.354-0 0-0 0-0.001 0h0z"></path>
</svg>
