<!-- Generated by IcoMoon.io -->
<svg version="1.1" xmlns="http://www.w3.org/2000/svg" width="40" height="40" viewBox="0 0 40 40">
<title>io-bug-outline</title>
<path fill="none" stroke-linejoin="round" stroke-linecap="round" stroke-miterlimit="4" stroke-width="2.5" stroke="#37352f" d="M27.125 27.625c1.806 1.47 2.875 2.879 2.875 5.375"></path>
<path fill="none" stroke-linejoin="round" stroke-linecap="round" stroke-miterlimit="4" stroke-width="2.5" stroke="#37352f" d="M12.875 27.625c-1.806 1.47-2.875 2.879-2.875 5.375"></path>
<path fill="none" stroke-linejoin="round" stroke-linecap="round" stroke-miterlimit="4" stroke-width="2.5" stroke="#37352f" d="M28 17c1.806-1.47 2-3.504 2-6"></path>
<path fill="none" stroke-linejoin="round" stroke-linecap="round" stroke-miterlimit="4" stroke-width="2.5" stroke="#37352f" d="M12 16.875c-1.806-1.47-2-3.379-2-5.875"></path>
<path fill="none" stroke-linejoin="round" stroke-linecap="round" stroke-miterlimit="4" stroke-width="2.5" stroke="#37352f" d="M33 22.008h-5"></path>
<path fill="none" stroke-linejoin="round" stroke-linecap="round" stroke-miterlimit="4" stroke-width="2.5" stroke="#37352f" d="M12 22.008h-5"></path>
<path fill="none" stroke-linejoin="round" stroke-linecap="round" stroke-miterlimit="4" stroke-width="2.5" stroke="#37352f" d="M20 16v16"></path>
<path fill="none" stroke-linejoin="round" stroke-linecap="round" stroke-miterlimit="4" stroke-width="2.5" stroke="#37352f" d="M20 32v0c-4.4 0-8-3.6-8-8v-6.004c0-4.067 3.6-6 8-6v0c4.4 0 8 1.6 8 6v6.004c0 4.4-3.6 8-8 8z"></path>
<path fill="none" stroke-linejoin="round" stroke-linecap="round" stroke-miterlimit="4" stroke-width="2.5" stroke="#37352f" d="M15.214 12.97c-0.119-0.289-0.196-0.625-0.214-0.976l-0-0.007c0.007-2.751 2.236-4.979 4.986-4.987h0.027c2.751 0.007 4.979 2.236 4.987 4.986v0.001c-0.013 0.325-0.084 0.631-0.201 0.911l0.006-0.017"></path>
</svg>
