<!-- Generated by IcoMoon.io -->
<svg version="1.1" xmlns="http://www.w3.org/2000/svg" width="40" height="40" viewBox="0 0 40 40">
<title>io-bonfire</title>
<path fill="#37352f" d="M21.086 27.023c-0.051-0.577-0.554-1.027-1.159-1.027-0.003-0-0.006-0-0.009-0-0.542 0-0.997 0.37-1.127 0.871l-0.002 0.008-1.137 5.522c-0.036 0.147-0.057 0.317-0.058 0.491v0.001c0 1.246 1.042 2.111 2.333 2.111s2.334-0.865 2.334-2.111c-0.001-0.21-0.030-0.414-0.084-0.607l0.004 0.016z"></path>
<path fill="#37352f" d="M29.691 29.493c-0.11-0.097-0.232-0.187-0.36-0.266l-0.012-0.007-4.346-3.033c-0.423-0.265-0.875-0.258-1.203 0.063-0.162 0.154-0.263 0.371-0.263 0.612 0 0.172 0.051 0.332 0.14 0.465l-0.002-0.003 3.281 4.313c0.079 0.109 0.161 0.204 0.25 0.293l0 0c0.569 0.635 1.83 0.67 2.523 0 0.684-0.685 0.676-1.899-0.009-2.437z"></path>
<path fill="#37352f" d="M32.956 24.996h-4.401c-0.284 0-0.555 0.209-0.555 0.509s0.184 0.491 0.432 0.572l4.152 1.284c0.603 0.138 1.416-0.397 1.416-1.067 0-0.852-0.475-1.299-1.044-1.299z"></path>
<path fill="#37352f" d="M12.014 25.505c0-0.309-0.284-0.509-0.591-0.509h-4.401c-0.554 0-1.022 0.599-1.022 1.269s0.789 1.235 1.394 1.097l4.214-1.284c0.274-0.082 0.406-0.265 0.406-0.572z"></path>
<path fill="#37352f" d="M15.034 26.191l-4.347 3.022c-0.142 0.081-0.265 0.17-0.376 0.273l0.001-0.001c-0.323 0.301-0.525 0.73-0.525 1.205s0.202 0.904 0.524 1.204l0.001 0.001c0.328 0.31 0.773 0.501 1.261 0.501s0.933-0.191 1.262-0.502l-0.001 0.001c0.091-0.088 0.174-0.183 0.246-0.286l0.004-0.006 3.284-4.289c0.219-0.348 0.183-0.78-0.125-1.063-0.167-0.156-0.392-0.252-0.64-0.252-0.215 0-0.414 0.073-0.572 0.194l0.002-0.002z"></path>
<path fill="#37352f" d="M22.341 19.149c0.625-0.339 1.216-0.659 1.769-1.010 2.654-1.683 3.889-3.688 3.889-6.313 0-4.041-3.504-6.525-6.801-6.813-0.406-0.036-0.938-0.026-1.244 0.242s-0.368 0.785-0.384 1.194c-0.086 2.101-1.774 3.688-3.562 5.366-1.75 1.644-3.558 3.343-3.919 5.688-0.526 3.418 1.359 5.419 2.529 6.308 0.331 0.254 0.751 0.407 1.206 0.407h0c0.164-0 0.324-0.020 0.477-0.057l-0.014 0.003c0.589-0.141 1.066-0.53 1.324-1.048l0.005-0.011c0.932-1.899 2.861-2.945 4.726-3.956z"></path>
<path fill="#37352f" d="M12.739 13.786c0.764-0.985 1.687-1.855 2.586-2.697 1.245-1.17 2.363-2.224 2.906-3.366-0.765-0.461-1.71-0.71-2.907-0.71-1.112 0-1.274 0.324-1.274 1.191 0 0.785-0.408 1.284-0.896 1.916-0.541 0.699-1.153 1.491-1.153 2.683 0 0.639 0.081 1.173 0.263 1.648q0.219-0.332 0.476-0.665z"></path>
<path fill="#37352f" d="M24.646 18.984c-0.583 0.37-1.188 0.697-1.828 1.044-1.807 0.98-3.513 1.905-4.305 3.517-0.040 0.082-0.078 0.156-0.117 0.226-0.040 0.071-0.064 0.155-0.064 0.245 0 0.207 0.125 0.384 0.304 0.46l0.003 0.001c0.769 0.319 1.571 0.517 2.432 0.517 0.014 0 0.030 0 0.046 0 1.883 0 3.592-0.748 4.846-1.963l-0.002 0.002c1.259-1.222 2.039-2.93 2.039-4.82 0-0.012-0-0.025-0-0.037v0.002c-0-0.332-0.031-0.656-0.088-0.971l0.005 0.033c-0.043-0.237-0.247-0.414-0.492-0.414-0.146 0-0.278 0.063-0.37 0.163l-0 0c-0.636 0.717-1.433 1.375-2.408 1.993z"></path>
</svg>
