<!-- Generated by IcoMoon.io -->
<svg version="1.1" xmlns="http://www.w3.org/2000/svg" width="40" height="40" viewBox="0 0 40 40">
<title>io-cube-outline</title>
<path fill="none" stroke-linejoin="round" stroke-linecap="round" stroke-miterlimit="4" stroke-width="2.5" stroke="#37352f" d="M32 25.336v-10.673c-0.001-0.733-0.396-1.373-0.984-1.721l-0.009-0.005-9.5-5.529c-0.432-0.256-0.952-0.407-1.508-0.407s-1.076 0.151-1.521 0.414l0.014-0.008-9.499 5.529c-0.597 0.353-0.992 0.993-0.993 1.726v10.673c0 0.733 0.395 1.374 0.984 1.722l0.009 0.005 9.5 5.529c0.432 0.255 0.952 0.406 1.508 0.406s1.075-0.151 1.521-0.414l-0.014 0.008 9.5-5.529c0.597-0.353 0.992-0.994 0.992-1.727v-0z"></path>
<path fill="none" stroke-linejoin="round" stroke-linecap="round" stroke-miterlimit="4" stroke-width="2.5" stroke="#37352f" d="M8.313 13.624l11.688 6.875 11.688-6.875"></path>
<path fill="none" stroke-linejoin="round" stroke-linecap="round" stroke-miterlimit="4" stroke-width="2.5" stroke="#37352f" d="M20 32.999v-12.5"></path>
</svg>
