<!-- Generated by IcoMoon.io -->
<svg version="1.1" xmlns="http://www.w3.org/2000/svg" width="40" height="40" viewBox="0 0 40 40">
<title>io-cash-sharp</title>
<path fill="#37352f" d="M7 27h26v2h-26v-2z"></path>
<path fill="#37352f" d="M9 30h22v2h-22v-2z"></path>
<path fill="#37352f" d="M34 15c-3.312-0.004-5.996-2.688-6-6v-1h-16v1c-0.004 3.312-2.688 5.996-6 6h-1v4h1c3.312 0.004 5.996 2.688 6 6v1h16v-1c0.004-3.312 2.688-5.996 6-6h1v-4zM20 23c-3.314 0-6-2.686-6-6s2.686-6 6-6c3.314 0 6 2.686 6 6v0c-0.004 3.312-2.688 5.996-6 6h-0z"></path>
<path fill="#37352f" d="M10 9v-1h-5v5h1c2.208-0.003 3.997-1.792 4-4v-0z"></path>
<path fill="#37352f" d="M6 21h-1v5h5v-1c-0.002-2.208-1.792-3.998-4-4h-0z"></path>
<path fill="#37352f" d="M34 13h1v-5h-5v1c0.002 2.208 1.792 3.997 4 4h0z"></path>
<path fill="#37352f" d="M30 25v1h5v-5h-1c-2.208 0.002-3.998 1.792-4 4v0z"></path>
<path fill="#37352f" d="M24 17c0 2.209-1.791 4-4 4s-4-1.791-4-4c0-2.209 1.791-4 4-4s4 1.791 4 4z"></path>
</svg>
