<!-- Generated by IcoMoon.io -->
<svg version="1.1" xmlns="http://www.w3.org/2000/svg" width="40" height="40" viewBox="0 0 40 40">
<title>io-car-sport</title>
<path fill="#37352f" d="M34.891 21.264c-0.225-2.526-0.596-3.017-0.736-3.202-0.322-0.428-0.837-0.707-1.382-1v0c-0.072-0.039-0.12-0.113-0.12-0.199 0-0.061 0.024-0.116 0.063-0.156l-0 0c0.177-0.18 0.287-0.427 0.287-0.699 0-0.030-0.001-0.059-0.004-0.088l0 0.004c-0.050-0.52-0.484-0.923-1.013-0.923-0.003 0-0.007 0-0.010 0h-0.974c-0.044 0-0.088 0.003-0.13 0.009l0.005-0.001c-0.025-0.011-0.054-0.021-0.084-0.029l-0.004-0.001c-0.578-1.221-1.368-2.892-3.007-3.708-2.431-1.209-6.908-1.271-7.783-1.271s-5.352 0.063-7.78 1.269c-1.639 0.816-2.429 2.487-3.007 3.708l-0.005 0.010c-0.032 0.005-0.060 0.012-0.087 0.022l0.003-0.001c-0.037-0.005-0.081-0.008-0.125-0.008h-0.977c-0.003-0-0.006-0-0.009-0-0.529 0-0.963 0.403-1.012 0.919l-0 0.004c-0.002 0.023-0.003 0.050-0.003 0.077 0 0.274 0.111 0.522 0.29 0.702l-0-0c0.039 0.040 0.063 0.095 0.063 0.156 0 0.086-0.048 0.16-0.119 0.198l-0.001 0.001c-0.545 0.295-1.062 0.574-1.382 1-0.14 0.188-0.51 0.677-0.736 3.203-0.125 1.421-0.144 2.892-0.046 3.84 0.206 1.969 0.591 3.159 0.607 3.208 0.122 0.363 0.437 0.629 0.82 0.679l0.005 0.001v0.013c0 0.552 0.448 1 1 1v0h3.5c0.552 0 1-0.448 1-1v0 0c0.538 0 0.913-0.096 1.309-0.199 0.505-0.143 1.101-0.251 1.713-0.304l0.037-0.003c1.907-0.182 3.803-0.244 4.941-0.244 1.115 0 3.095 0.063 5.005 0.244 0.651 0.056 1.25 0.165 1.827 0.325l-0.070-0.016c0.38 0.098 0.741 0.188 1.24 0.197v0c0 0.552 0.448 1 1 1v0h3.5c0.552 0 1-0.448 1-1v0-0.008c0.389-0.049 0.705-0.316 0.825-0.672l0.002-0.007c0.016-0.049 0.402-1.239 0.608-3.208 0.098-0.948 0.081-2.417-0.046-3.841zM11.021 15.832c0.5-1.063 1.072-2.265 2.090-2.772 1.471-0.732 4.521-1.063 6.889-1.063s5.418 0.328 6.889 1.063c1.018 0.507 1.587 1.71 2.090 2.772l0.063 0.136c0.030 0.063 0.048 0.136 0.048 0.214 0 0.276-0.224 0.5-0.5 0.5-0.005 0-0.009-0-0.014-0h0.001c-2.077-0.056-6.452-0.236-8.577-0.236s-6.5 0.184-8.58 0.241c-0.004 0-0.008 0-0.013 0-0.276 0-0.5-0.224-0.5-0.5 0-0.078 0.018-0.151 0.049-0.217l-0.001 0.003c0.022-0.046 0.045-0.093 0.066-0.14zM11.766 20.809c-0.958 0.122-2.066 0.191-3.19 0.191-0.017 0-0.035-0-0.052-0h0.003c-0.663 0-1.346-0.188-1.473-0.777-0.087-0.397-0.078-0.62-0.031-0.844 0.039-0.191 0.102-0.329 0.414-0.378 0.813-0.125 1.267 0.032 2.597 0.424 0.882 0.259 1.518 0.605 1.881 0.879 0.182 0.135 0.085 0.488-0.149 0.506zM25.602 25.934c-0.823 0.094-2.468 0.059-5.584 0.059s-4.761 0.034-5.583-0.059c-0.849-0.094-1.931-0.897-1.192-1.612 0.492-0.471 1.639-0.824 3.168-1.022s2.175-0.3 3.601-0.3 2.008 0.063 3.601 0.301 2.798 0.595 3.167 1.022c0.674 0.765-0.331 1.512-1.179 1.615zM32.946 20.222c-0.125 0.593-0.813 0.777-1.473 0.777-0.002 0-0.004 0-0.007 0-1.161 0-2.307-0.069-3.432-0.205l0.136 0.013c-0.191-0.018-0.28-0.354-0.086-0.506 0.357-0.281 1-0.619 1.881-0.879 1.33-0.392 2.097-0.549 2.756-0.418 0.161 0.032 0.246 0.204 0.256 0.313 0.017 0.111 0.027 0.238 0.027 0.368 0 0.19-0.021 0.376-0.061 0.554l0.003-0.017z"></path>
</svg>
