<!-- Generated by IcoMoon.io -->
<svg version="1.1" xmlns="http://www.w3.org/2000/svg" width="40" height="40" viewBox="0 0 40 40">
<title>io-car-sport-outline</title>
<path fill="none" stroke-linejoin="round" stroke-linecap="round" stroke-miterlimit="4" stroke-width="2.5" stroke="#37352f" d="M33.357 18.663c-0.458-0.608-2.16-1.027-2.88-2.121s-1.309-3.464-3.142-4.375-5.335-1.166-7.335-1.166-5.5 0.25-7.335 1.164-2.422 3.283-3.142 4.375-2.422 1.515-2.88 2.123-0.781 4.453-0.584 6.337 0.563 3 0.563 3h5.375c0.88 0 1.166-0.331 2.966-0.5 1.975-0.188 3.912-0.25 5.038-0.25s3.125 0.063 5.099 0.25c1.8 0.171 2.096 0.5 2.966 0.5h5.313s0.366-1.115 0.562-3-0.127-5.729-0.583-6.337z"></path>
<path fill="none" stroke-linejoin="round" stroke-linecap="round" stroke-miterlimit="4" stroke-width="2.5" stroke="#37352f" d="M29 28h3.5v1h-3.5v-1z"></path>
<path fill="none" stroke-linejoin="round" stroke-linecap="round" stroke-miterlimit="4" stroke-width="2.5" stroke="#37352f" d="M7.5 28h3.5v1h-3.5v-1z"></path>
<path fill="#37352f" d="M26.779 23.323c-0.369-0.427-1.573-0.783-3.167-1.022s-2.175-0.301-3.6-0.301-2.073 0.103-3.601 0.301-2.674 0.551-3.166 1.022c-0.738 0.715 0.343 1.517 1.192 1.615 0.822 0.094 2.467 0.059 5.582 0.059s4.759 0.034 5.582-0.059c0.848-0.103 1.851-0.85 1.178-1.615z"></path>
<path fill="#37352f" d="M30.973 19.191c-0.007-0.103-0.091-0.183-0.193-0.188h-0c-0.738-0.026-1.488 0.026-2.817 0.418-0.719 0.213-1.345 0.535-1.895 0.952l0.015-0.011c-0.143 0.111-0.092 0.412 0.087 0.444 0.99 0.123 2.137 0.193 3.301 0.194h0.001c0.662 0 1.345-0.187 1.472-0.777 0.037-0.184 0.058-0.396 0.058-0.612 0-0.148-0.010-0.294-0.029-0.437l0.002 0.017z"></path>
<path fill="#37352f" d="M9.027 19.191c0.007-0.103 0.091-0.183 0.193-0.188h0c0.738-0.026 1.488 0.026 2.817 0.418 0.719 0.213 1.345 0.535 1.895 0.952l-0.015-0.011c0.143 0.111 0.092 0.412-0.087 0.444-0.99 0.123-2.137 0.193-3.301 0.194h-0.001c-0.662 0-1.345-0.187-1.472-0.777-0.037-0.184-0.058-0.396-0.058-0.612 0-0.148 0.010-0.294 0.029-0.437l-0.002 0.017z"></path>
<path fill="none" stroke-linejoin="round" stroke-linecap="round" stroke-miterlimit="4" stroke-width="2.5" stroke="#37352f" d="M31 16h1"></path>
<path fill="none" stroke-linejoin="round" stroke-linecap="round" stroke-miterlimit="4" stroke-width="2.5" stroke="#37352f" d="M8 16h1"></path>
<path fill="none" stroke-linejoin="round" stroke-linecap="round" stroke-miterlimit="4" stroke-width="2.5" stroke="#37352f" d="M8.875 17.188s2.897-0.75 11.125-0.75 11.125 0.75 11.125 0.75"></path>
</svg>
