<!-- Generated by IcoMoon.io -->
<svg version="1.1" xmlns="http://www.w3.org/2000/svg" width="40" height="40" viewBox="0 0 40 40">
<title>io-color-wand-outline</title>
<path fill="none" stroke-linejoin="miter" stroke-linecap="butt" stroke-miterlimit="10" stroke-width="2.5" stroke="#37352f" d="M15.143 15.143l-0 0c0.769-0.769 2.017-0.769 2.786 0l13.928 13.928c0.769 0.769 0.769 2.017 0 2.786l0-0c-0.769 0.769-2.017 0.769-2.786 0l-13.928-13.928c-0.769-0.769-0.769-2.017 0-2.786z"></path>
<path fill="#37352f" d="M15.149 15.149v0c-0.358 0.358-0.579 0.852-0.579 1.398s0.221 1.041 0.579 1.398l2.804 2.804 2.797-2.797-2.804-2.804c-0.358-0.358-0.852-0.579-1.398-0.579s-1.041 0.221-1.398 0.579v0z"></path>
<path stroke-linejoin="miter" stroke-linecap="round" stroke-miterlimit="10" stroke-width="2.5" stroke="#37352f" fill="#37352f" d="M7 16h3"></path>
<path stroke-linejoin="miter" stroke-linecap="round" stroke-miterlimit="10" stroke-width="2.5" stroke="#37352f" fill="#37352f" d="M9.636 9.636l2.121 2.121"></path>
<path stroke-linejoin="miter" stroke-linecap="round" stroke-miterlimit="10" stroke-width="2.5" stroke="#37352f" fill="#37352f" d="M16 7v3"></path>
<path stroke-linejoin="miter" stroke-linecap="round" stroke-miterlimit="10" stroke-width="2.5" stroke="#37352f" fill="#37352f" d="M22.364 9.636l-2.121 2.121"></path>
<path stroke-linejoin="miter" stroke-linecap="round" stroke-miterlimit="10" stroke-width="2.5" stroke="#37352f" fill="#37352f" d="M11.758 20.242l-2.121 2.121"></path>
</svg>
