<!-- Generated by IcoMoon.io -->
<svg version="1.1" xmlns="http://www.w3.org/2000/svg" width="40" height="40" viewBox="0 0 40 40">
<title>io-cut-sharp</title>
<path fill="#37352f" d="M34 12h-3l-12.434 4.404-3.696-1.974c0.063-0.282 0.099-0.607 0.099-0.939 0-2.491-2.019-4.51-4.51-4.51s-4.51 2.019-4.51 4.51c0 2.491 2.019 4.51 4.51 4.51 1.065 0 2.043-0.369 2.814-0.986l-0.009 0.007 3.262 1.983-0.528 2.309-2.728 1.672c-0.758-0.606-1.73-0.972-2.788-0.972-2.476 0-4.484 2.007-4.484 4.484s2.007 4.484 4.484 4.484c2.476 0 4.484-2.007 4.484-4.484 0-0.404-0.053-0.796-0.154-1.168l0.007 0.031 19.178-11.36zM10.468 16c-1.381 0-2.5-1.119-2.5-2.5s1.119-2.5 2.5-2.5c1.381 0 2.5 1.119 2.5 2.5v0c0 1.381-1.119 2.5-2.5 2.5v0zM10.468 29c-1.381 0-2.5-1.119-2.5-2.5s1.119-2.5 2.5-2.5c1.381 0 2.5 1.119 2.5 2.5v0c0 1.381-1.119 2.5-2.5 2.5v0zM19.968 20c-0.552 0-1-0.448-1-1s0.448-1 1-1c0.552 0 1 0.448 1 1v0c0 0.552-0.448 1-1 1v0z"></path>
<path fill="#37352f" d="M25.487 20.242l-5.234 3.011 10.747 3.747h2.999l0.001-2-8.513-4.758z"></path>
</svg>
