<!-- Generated by IcoMoon.io -->
<svg version="1.1" xmlns="http://www.w3.org/2000/svg" width="40" height="40" viewBox="0 0 40 40">
<title>io-cloudy</title>
<path fill="#37352f" d="M27.5 31h-16.25c-2.023 0-3.764-0.536-5.037-1.548-1.448-1.153-2.213-2.865-2.213-4.952 0-3.598 2.625-5.661 5.473-6.297 0.382-0.089 0.677-0.389 0.756-0.768l0.001-0.007c0.48-2.293 1.528-4.259 3.074-5.75 1.722-1.658 4.068-2.679 6.652-2.679 0.016 0 0.031 0 0.047 0h-0.002c2.219 0 4.265 0.731 5.917 2.113 1.112 0.942 2.002 2.111 2.603 3.439l0.025 0.061c0.132 0.291 0.391 0.505 0.704 0.571l0.007 0.001c1.688 0.351 3.192 1.083 4.324 2.116 1.583 1.442 2.42 3.413 2.42 5.699 0 2.25-0.899 4.305-2.531 5.787-1.572 1.427-3.692 2.213-5.969 2.213z"></path>
</svg>
