<!-- Generated by IcoMoon.io -->
<svg version="1.1" xmlns="http://www.w3.org/2000/svg" width="40" height="40" viewBox="0 0 40 40">
<title>io-car</title>
<path fill="#37352f" d="M31.98 17.799c-0.016-0.073-0.038-0.138-0.065-0.199l0.003 0.006-2.361-5.51c-0.544-1.273-1.869-2.096-3.376-2.096h-12.361c-1.506 0-2.831 0.823-3.375 2.096l-2.364 5.51c-0.051 0.115-0.081 0.249-0.081 0.39 0 0.001 0 0.003 0 0.004v-0 11c0 0.552 0.448 1 1 1v0h2c0.552 0 1-0.448 1-1v0-1h16v1c0 0.552 0.448 1 1 1v0h2c0.552 0 1-0.448 1-1v0-11c0-0 0-0.001 0-0.001 0-0.071-0.007-0.14-0.021-0.206l0.001 0.007zM13 24c-1.105 0-2-0.895-2-2s0.895-2 2-2c1.105 0 2 0.895 2 2v0c0 1.105-0.895 2-2 2v0zM27 24c-1.105 0-2-0.895-2-2s0.895-2 2-2c1.105 0 2 0.895 2 2v0c0 1.105-0.895 2-2 2v0zM10.516 17l1.764-4.116c0.226-0.529 0.844-0.884 1.539-0.884h12.361c0.694 0 1.313 0.356 1.539 0.884l1.764 4.116z"></path>
</svg>
