<!-- Generated by IcoMoon.io -->
<svg version="1.1" xmlns="http://www.w3.org/2000/svg" width="40" height="40" viewBox="0 0 40 40">
<title>io-code-slash</title>
<path fill="#37352f" d="M14 28.313c-0 0-0.001 0-0.001 0-0.331 0-0.634-0.123-0.864-0.326l0.001 0.001-8-7c-0.275-0.242-0.448-0.594-0.448-0.988s0.173-0.746 0.446-0.986l0.001-0.001 8-7c0.23-0.202 0.533-0.325 0.864-0.325 0.725 0 1.313 0.588 1.313 1.313 0 0.393-0.173 0.746-0.447 0.987l-0.001 0.001-6.872 6.012 6.871 6.012c0.276 0.242 0.449 0.595 0.449 0.988 0 0.725-0.588 1.313-1.313 1.313-0 0-0 0-0.001 0h0z"></path>
<path fill="#37352f" d="M26 28.313c-0 0-0.001 0-0.001 0-0.725 0-1.313-0.588-1.313-1.313 0-0.393 0.173-0.746 0.447-0.987l0.001-0.001 6.872-6.012-6.871-6.012c-0.275-0.242-0.448-0.595-0.448-0.988 0-0.725 0.588-1.313 1.313-1.313 0.332 0 0.635 0.123 0.866 0.326l-0.001-0.001 8 7c0.275 0.242 0.448 0.594 0.448 0.988s-0.173 0.746-0.446 0.986l-0.001 0.001-8 7c-0.229 0.202-0.531 0.325-0.862 0.325-0.001 0-0.002 0-0.002 0h0z"></path>
<path fill="#37352f" d="M17 31.313c-0.725-0-1.312-0.588-1.312-1.313 0-0.134 0.020-0.263 0.057-0.384l-0.002 0.009 6-20c0.154-0.566 0.664-0.975 1.268-0.975 0.725 0 1.313 0.588 1.313 1.313 0 0.147-0.024 0.289-0.069 0.421l0.003-0.009-6 20c-0.167 0.546-0.666 0.937-1.257 0.938h-0z"></path>
</svg>
