<!-- Generated by IcoMoon.io -->
<svg version="1.1" xmlns="http://www.w3.org/2000/svg" width="40" height="40" viewBox="0 0 40 40">
<title>io-cloudy-sharp</title>
<path fill="#37352f" d="M27.5 31h-16.25c-2.023 0-3.764-0.536-5.037-1.548-1.448-1.153-2.213-2.865-2.213-4.952 0-3.866 3.027-5.959 6.109-6.415 0.408-2.574 1.5-4.775 3.194-6.404 1.723-1.659 4.069-2.681 6.654-2.681 0.015 0 0.029 0 0.044 0h-0.002c2.219 0 4.265 0.731 5.918 2.112 1.241 1.051 2.207 2.387 2.803 3.909l0.023 0.066c1.891 0.301 3.591 1.074 4.836 2.21 1.583 1.444 2.42 3.416 2.42 5.702 0 2.25-0.899 4.305-2.531 5.787-1.572 1.428-3.692 2.213-5.969 2.213z"></path>
</svg>
