<!-- Generated by IcoMoon.io -->
<svg version="1.1" xmlns="http://www.w3.org/2000/svg" width="40" height="40" viewBox="0 0 40 40">
<title>io-caret-down-circle</title>
<path fill="#37352f" d="M33 20c0-7.179-5.821-13-13-13s-13 5.821-13 13 5.821 13 13 13 13-5.821 13-13zM25.402 18.889l-4.633 5.568c-0.185 0.221-0.46 0.36-0.769 0.36s-0.584-0.14-0.767-0.359l-0.001-0.002-4.633-5.568c-0.144-0.172-0.231-0.395-0.231-0.639 0-0.552 0.447-1 0.999-1h9.268c0.552 0 0.999 0.448 0.999 1 0 0.244-0.087 0.467-0.232 0.641l0.001-0.002z"></path>
</svg>
