<!-- Generated by IcoMoon.io -->
<svg version="1.1" xmlns="http://www.w3.org/2000/svg" width="40" height="40" viewBox="0 0 40 40">
<title>io-cloud</title>
<path fill="#37352f" d="M28.75 31h-16.25c-2.277 0-4.397-0.786-5.969-2.213-1.632-1.482-2.531-3.537-2.531-5.787 0-2.286 0.837-4.258 2.42-5.701 1.132-1.033 2.639-1.766 4.324-2.117 0.32-0.068 0.579-0.281 0.708-0.566l0.003-0.006c0.626-1.389 1.516-2.558 2.614-3.488l0.014-0.012c1.652-1.379 3.699-2.11 5.918-2.11 0.012-0 0.027-0 0.042-0 2.585 0 4.932 1.022 6.658 2.684l-0.003-0.003c1.546 1.488 2.594 3.455 3.074 5.75 0.081 0.385 0.375 0.685 0.751 0.773l0.007 0.001c2.847 0.633 5.472 2.696 5.472 6.294 0 2.087-0.765 3.799-2.213 4.952-1.273 1.012-3.014 1.548-5.037 1.548z"></path>
</svg>
