<!-- Generated by IcoMoon.io -->
<svg version="1.1" xmlns="http://www.w3.org/2000/svg" width="40" height="40" viewBox="0 0 40 40">
<title>io-cut</title>
<path fill="#37352f" d="M10.468 18c0.001 0 0.002 0 0.003 0 1.061 0 2.036-0.369 2.803-0.986l-0.009 0.007 2.594 1.056 0.426-0.789c0.083-0.151 0.172-0.281 0.273-0.402l-0.003 0.004 0.889-0.901-2.573-1.559c0.062-0.279 0.097-0.6 0.097-0.929 0-2.485-2.015-4.5-4.5-4.5s-4.5 2.015-4.5 4.5c0 2.485 2.015 4.5 4.5 4.5v0zM10.468 11c1.381 0 2.5 1.119 2.5 2.5s-1.119 2.5-2.5 2.5c-1.381 0-2.5-1.119-2.5-2.5v0c0-1.381 1.119-2.5 2.5-2.5v0z"></path>
<path fill="#37352f" d="M34 14.563l-0.345-0.786c-0.28-0.651-0.921-1-2.049-1.116-0.633-0.063-1.684-0.077-3.106 0.238-1.25 0.278-7.634 1.762-10.309 3.664-1.266 0.899-1.504 2.104-1.691 3.073-0.174 0.884-0.313 1.582-1.125 2.187-0.938 0.696-1.704 1.024-2.099 1.163-0.758-0.606-1.73-0.972-2.788-0.972-2.476 0-4.484 2.007-4.484 4.484s2.007 4.484 4.484 4.484c2.476 0 4.484-2.007 4.484-4.484 0-0.404-0.053-0.796-0.154-1.168l0.007 0.031zM19.968 20c-0.552 0-1-0.448-1-1s0.448-1 1-1c0.552 0 1 0.448 1 1v0c0 0.552-0.448 1-1 1v0zM10.468 29c-1.381 0-2.5-1.119-2.5-2.5s1.119-2.5 2.5-2.5c1.381 0 2.5 1.119 2.5 2.5v0c0 1.381-1.119 2.5-2.5 2.5v0z"></path>
<path fill="#37352f" d="M25.487 20.242l-5.234 3.011 1.953 0.926c1.169 0.566 4.277 2.071 7.452 2.258 0.243 0.014 0.467 0.021 0.674 0.021 1.293-0.002 1.981-0.334 2.403-0.584l1.266-0.875z"></path>
</svg>
