<!-- Generated by IcoMoon.io -->
<svg version="1.1" xmlns="http://www.w3.org/2000/svg" width="40" height="40" viewBox="0 0 40 40">
<title>io-chatbubble-sharp</title>
<path fill="#37352f" d="M33.701 16.907c-0.646-3.041-2.36-5.808-4.826-7.792-2.409-1.941-5.507-3.115-8.879-3.115-0.002 0-0.005 0-0.007 0h0c-3.807 0-7.364 1.467-10.022 4.131-2.569 2.577-3.978 5.981-3.966 9.58 0 2.764 0.832 5.333 2.259 7.472l-0.031-0.049 0.272 0.378-1.5 6.489 7.175-1.785s0.144 0.048 0.25 0.089 1.021 0.391 1.991 0.663c0.806 0.225 2.484 0.563 3.798 0.563 3.728 0 7.209-1.444 9.802-4.066 2.569-2.602 3.984-6.061 3.984-9.744 0-0.001 0-0.002 0-0.003 0-0.995-0.109-1.964-0.315-2.896l0.016 0.089z"></path>
</svg>
