<!-- Generated by IcoMoon.io -->
<svg version="1.1" xmlns="http://www.w3.org/2000/svg" width="40" height="40" viewBox="0 0 40 40">
<title>io-dice</title>
<path fill="#37352f" d="M31.555 12.086l-9.545-5.547c-0.576-0.34-1.27-0.541-2.010-0.541s-1.434 0.201-2.029 0.551l0.019-0.010-9.544 5.547c-0.074 0.044-0.124 0.124-0.124 0.216s0.049 0.171 0.122 0.215l0.001 0.001 11.43 6.724c0.036 0.022 0.080 0.035 0.127 0.035s0.091-0.013 0.128-0.035l-0.001 0.001 11.427-6.724c0.074-0.044 0.123-0.124 0.123-0.215s-0.049-0.172-0.123-0.215l-0.001-0.001zM20 13.5c-0.828 0-1.5-0.447-1.5-1s0.672-1 1.5-1 1.5 0.447 1.5 1-0.672 1-1.5 1z"></path>
<path fill="#37352f" d="M18.875 20.926l-11.5-6.708c-0.036-0.021-0.079-0.034-0.125-0.034-0.138 0-0.25 0.112-0.25 0.25v0 10.87c0.002 1.098 0.594 2.058 1.476 2.579l0.014 0.008 10.135 6.077c0.036 0.021 0.079 0.034 0.125 0.034 0.138 0 0.25-0.112 0.25-0.25v0-12.609c-0-0.092-0.050-0.172-0.124-0.216l-0.001-0.001zM10 27c-0.553 0-1-0.672-1-1.5s0.447-1.5 1-1.5 1 0.672 1 1.5-0.447 1.5-1 1.5zM16 25c-0.552 0-1-0.672-1-1.5s0.448-1.5 1-1.5 1 0.672 1 1.5-0.447 1.5-1 1.5z"></path>
<path fill="#37352f" d="M32.625 14.219l-11.5 6.753c-0.075 0.044-0.125 0.124-0.125 0.216v12.562c0 0.138 0.112 0.25 0.25 0.25 0.046 0 0.089-0.012 0.126-0.034l-0.001 0.001 10.134-6.077c0.896-0.528 1.488-1.488 1.491-2.585v-10.867c0-0 0-0.001 0-0.002 0-0.138-0.112-0.25-0.25-0.25-0.046 0-0.089 0.012-0.126 0.034l0.001-0.001zM24 30.5c-0.553 0-1-0.672-1-1.5s0.447-1.5 1-1.5 1 0.672 1 1.5-0.448 1.5-1 1.5zM24 25c-0.553 0-1-0.672-1-1.5s0.447-1.5 1-1.5 1 0.672 1 1.5-0.448 1.5-1 1.5zM30 27c-0.553 0-1-0.672-1-1.5s0.447-1.5 1-1.5 1 0.672 1 1.5-0.447 1.5-1 1.5zM30 21.5c-0.553 0-1-0.672-1-1.5s0.447-1.5 1-1.5 1 0.672 1 1.5-0.447 1.5-1 1.5z"></path>
</svg>
