<!-- Generated by IcoMoon.io -->
<svg version="1.1" xmlns="http://www.w3.org/2000/svg" width="40" height="40" viewBox="0 0 40 40">
<title>io-duplicate-outline</title>
<path fill="none" stroke-linejoin="round" stroke-linecap="butt" stroke-miterlimit="4" stroke-width="2.5" stroke="#37352f" d="M15.563 12h13.875c1.968 0 3.563 1.595 3.563 3.563v13.875c0 1.968-1.595 3.563-3.563 3.563h-13.875c-1.967 0-3.563-1.595-3.563-3.563v-13.875c0-1.967 1.595-3.563 3.563-3.563z"></path>
<path fill="none" stroke-linejoin="round" stroke-linecap="round" stroke-miterlimit="4" stroke-width="2.5" stroke="#37352f" d="M27.969 12l0.031-1.5c-0.006-1.931-1.569-3.494-3.499-3.5h-13.501c-2.206 0.007-3.993 1.794-4 3.999v13.501c0.006 1.931 1.569 3.494 3.499 3.5h1.501"></path>
<path fill="none" stroke-linejoin="round" stroke-linecap="round" stroke-miterlimit="4" stroke-width="2.5" stroke="#37352f" d="M22.5 17.5v10"></path>
<path fill="none" stroke-linejoin="round" stroke-linecap="round" stroke-miterlimit="4" stroke-width="2.5" stroke="#37352f" d="M27.5 22.5h-10"></path>
</svg>
