<!-- Generated by IcoMoon.io -->
<svg version="1.1" xmlns="http://www.w3.org/2000/svg" width="40" height="40" viewBox="0 0 40 40">
<title>io-document-text</title>
<path fill="#37352f" d="M30.75 18h-8.75c-1.657 0-3-1.343-3-3v0-8.75c0-0.138-0.112-0.25-0.25-0.25v0h-5.75c-2.209 0-4 1.791-4 4v0 20c0 2.209 1.791 4 4 4v0h14c2.209 0 4-1.791 4-4v0-11.75c0-0.138-0.112-0.25-0.25-0.25v0zM25 28h-10c-0.552 0-1-0.448-1-1s0.448-1 1-1v0h10c0.552 0 1 0.448 1 1s-0.448 1-1 1v0zM25 23h-10c-0.552 0-1-0.448-1-1s0.448-1 1-1v0h10c0.552 0 1 0.448 1 1s-0.448 1-1 1v0z"></path>
<path fill="#37352f" d="M30.201 15.787l-8.988-8.988c-0.023-0.022-0.054-0.036-0.088-0.036-0.069 0-0.125 0.056-0.125 0.124v8.113c0 0.552 0.448 1 1 1v0h8.113c0.069-0 0.124-0.056 0.124-0.125 0-0.034-0.014-0.066-0.036-0.088v0z"></path>
</svg>
