<!-- Generated by IcoMoon.io -->
<svg version="1.1" xmlns="http://www.w3.org/2000/svg" width="40" height="40" viewBox="0 0 40 40">
<title>io-document-sharp</title>
<path fill="#37352f" d="M19 17.5v-11.5h-9.25c-0.414 0-0.75 0.336-0.75 0.75v0 26.5c0 0.414 0.336 0.75 0.75 0.75v0h20.5c0.414 0 0.75-0.336 0.75-0.75v0-15.25h-11.5c-0.276 0-0.5-0.224-0.5-0.5v0z"></path>
<path fill="#37352f" d="M21 6.606v9.144c0 0.138 0.112 0.25 0.25 0.25v0h9.144c0 0 0 0 0 0 0.069 0 0.125-0.056 0.125-0.125 0-0.034-0.014-0.066-0.036-0.088v0l-9.27-9.27c-0.023-0.022-0.054-0.036-0.088-0.036-0.069 0-0.125 0.056-0.125 0.125 0 0 0 0 0 0v0z"></path>
</svg>
