<!-- Generated by IcoMoon.io -->
<svg version="1.1" xmlns="http://www.w3.org/2000/svg" width="40" height="40" viewBox="0 0 40 40">
<title>io-earth</title>
<path fill="#37352f" d="M29.899 10.109c-2.538-2.563-6.058-4.149-9.948-4.149-7.732 0-14 6.268-14 14 0 3.89 1.587 7.41 4.148 9.947l0.001 0.001c2.538 2.563 6.058 4.149 9.948 4.149 7.732 0 14-6.268 14-14 0-3.89-1.587-7.41-4.148-9.947l-0.001-0.001zM8 20.008c0-0.001 0-0.003 0-0.005 0-1.117 0.153-2.198 0.439-3.224l-0.020 0.084c0.459 0.988 1.125 1.841 1.578 2.854 0.586 1.303 2.158 0.941 2.852 2.082 0.616 1.013-0.042 2.294 0.419 3.354 0.335 0.769 1.125 0.938 1.67 1.5 0.557 0.568 0.545 1.345 0.63 2.085 0.11 0.983 0.274 1.859 0.495 2.712l-0.029-0.133c0 0.006 0 0.013 0.005 0.019-4.677-1.643-8.039-6.101-8.039-11.33zM20 32.008c-0.707-0-1.399-0.061-2.072-0.178l0.072 0.010c0.007-0.169 0.010-0.328 0.027-0.438 0.152-0.994 0.649-1.966 1.321-2.709 0.663-0.734 1.572-1.23 2.132-2.062 0.549-0.813 0.713-1.906 0.487-2.856-0.333-1.402-2.239-1.871-3.266-2.631-0.591-0.438-1.116-1.114-1.892-1.169-0.357-0.025-0.657 0.052-1.011-0.039-0.325-0.084-0.58-0.259-0.926-0.214-0.647 0.085-1.055 0.776-1.75 0.683-0.659-0.088-1.339-0.86-1.489-1.488-0.193-0.808 0.446-1.069 1.131-1.141 0.286-0.030 0.606-0.063 0.881 0.043 0.361 0.134 0.532 0.488 0.856 0.666 0.608 0.334 0.731-0.199 0.638-0.739-0.139-0.809-0.302-1.138 0.419-1.695 0.5-0.384 0.927-0.661 0.848-1.351-0.047-0.405-0.269-0.588-0.063-0.991 0.157-0.307 0.587-0.584 0.868-0.767 0.724-0.473 3.103-0.437 2.131-1.76-0.286-0.388-0.813-1.082-1.313-1.177-0.625-0.118-0.902 0.579-1.338 0.887-0.45 0.318-1.326 0.679-1.777 0.188-0.606-0.662 0.402-0.879 0.625-1.341 0.103-0.216 0-0.515-0.174-0.797q0.338-0.143 0.688-0.264c0.139 0.104 0.31 0.172 0.496 0.187l0.004 0c0.418 0.027 0.813-0.199 1.177 0.086 0.405 0.313 0.697 0.707 1.234 0.805 0.52 0.094 1.071-0.209 1.199-0.741 0.078-0.324 0-0.666-0.075-1 2.448 0.015 4.719 0.765 6.605 2.040l-0.042-0.027c-0.125-0.048-0.274-0.042-0.459 0.044-0.379 0.176-0.917 0.625-0.961 1.070-0.051 0.505 0.694 0.576 1.048 0.576 0.531 0 1.069-0.237 0.898-0.851-0.074-0.266-0.176-0.543-0.339-0.711 0.422 0.294 0.789 0.584 1.137 0.894l-0.012-0.011c-0.006 0.006-0.011 0.011-0.017 0.017-0.36 0.375-0.778 0.672-1.024 1.128-0.174 0.321-0.369 0.474-0.721 0.557-0.194 0.046-0.415 0.063-0.578 0.193-0.452 0.356-0.195 1.213 0.234 1.469 0.542 0.324 1.346 0.172 1.754-0.291 0.319-0.363 0.507-0.992 1.082-0.991 0.001 0 0.001 0 0.002 0 0.263 0 0.501 0.105 0.674 0.276l-0-0c0.238 0.246 0.191 0.476 0.241 0.784 0.089 0.546 0.571 0.25 0.864-0.026 0.182 0.314 0.375 0.699 0.547 1.096l0.030 0.077c-0.322 0.464-0.579 0.971-1.354 0.429-0.464-0.324-0.75-0.795-1.333-0.941-0.509-0.125-1.031 0.005-1.534 0.092-0.572 0.099-1.25 0.143-1.684 0.576-0.419 0.418-0.641 0.976-1.087 1.396-0.863 0.813-1.227 1.699-0.669 2.848 0.538 1.104 1.662 1.704 2.875 1.625 1.192-0.079 2.43-0.771 2.396 0.961-0.013 0.613 0.116 1.037 0.304 1.607 0.174 0.525 0.162 1.034 0.202 1.576 0.042 0.688 0.148 1.33 0.312 1.948l-0.016-0.069c-2.213 2.831-5.628 4.633-9.464 4.633h-0z"></path>
</svg>
