<!-- Generated by IcoMoon.io -->
<svg version="1.1" xmlns="http://www.w3.org/2000/svg" width="40" height="40" viewBox="0 0 40 40">
<title>io-extension-puzzle</title>
<path fill="#37352f" d="M25.571 34h-4.446c-0.621 0-1.125-0.504-1.125-1.125v0-1.732c0-0.002 0-0.004 0-0.006 0-0.557-0.233-1.060-0.606-1.416l-0.001-0.001c-0.486-0.474-1.193-0.738-1.931-0.719-1.335 0.031-2.463 1.206-2.463 2.566v1.308c0 0.621-0.504 1.125-1.125 1.125v0h-4.399c-1.92 0-3.476-1.556-3.476-3.476v0-4.399c0-0.621 0.504-1.125 1.125-1.125v0h1.732c0.572 0 1.129-0.245 1.568-0.688 0.471-0.475 0.763-1.129 0.763-1.851 0-0.007-0-0.013-0-0.020v0.001c-0.019-1.324-1.109-2.442-2.381-2.442h-1.682c-0.621 0-1.125-0.504-1.125-1.125v0-4.399c0-1.92 1.556-3.476 3.476-3.476v0h3.453c0.276 0 0.5-0.224 0.5-0.5v0-0.405c0 0 0 0 0 0 0-2.262 1.834-4.096 4.096-4.096 0.025 0 0.051 0 0.076 0.001l-0.004-0c2.218 0.039 4.023 1.899 4.023 4.146v0.354c0 0.276 0.224 0.5 0.5 0.5v0h3.453c1.894 0 3.429 1.535 3.429 3.429v0 3.453c0 0.276 0.224 0.5 0.5 0.5v0h0.354c2.286 0 4.146 1.813 4.146 4.040 0 2.288-1.837 4.15-4.095 4.15h-0.405c-0.276 0-0.5 0.224-0.5 0.5v0 3.5c0 1.894-1.535 3.429-3.429 3.429v0z"></path>
</svg>
