<!-- Generated by IcoMoon.io -->
<svg version="1.1" xmlns="http://www.w3.org/2000/svg" width="40" height="40" viewBox="0 0 40 40">
<title>io-flag-outline</title>
<path fill="none" stroke-linejoin="miter" stroke-linecap="round" stroke-miterlimit="10" stroke-width="2.5" stroke="#37352f" d="M9 33v-24.741c0.001-0.183 0.1-0.343 0.248-0.43l0.002-0.001c0.488-0.286 1.808-0.827 4.75-0.827 4 0 9.063 3 12 3 1.744-0.005 3.403-0.367 4.908-1.017l-0.081 0.031c0.014-0.006 0.031-0.010 0.048-0.010 0.069 0 0.125 0.056 0.125 0.125 0 0 0 0 0 0v0 13.71c-0 0.101-0.061 0.189-0.148 0.227l-0.002 0.001c-0.515 0.226-2.33 0.932-4.851 0.932-3 0-8-2-12-2s-5 1-5 1"></path>
</svg>
