<!-- Generated by IcoMoon.io -->
<svg version="1.1" xmlns="http://www.w3.org/2000/svg" width="40" height="40" viewBox="0 0 40 40">
<title>io-flask</title>
<path fill="#37352f" d="M32.27 26.813l-7.807-12.368c-0.29-0.454-0.462-1.008-0.462-1.602 0-0 0-0.001 0-0.001v0-4.843h0.972c0.538 0 1-0.414 1.027-0.952 0.001-0.014 0.001-0.031 0.001-0.048 0-0.552-0.448-1-1-1-0 0-0 0-0.001 0h-9.972c-0.538 0-1 0.414-1.027 0.952-0.001 0.014-0.001 0.031-0.001 0.048 0 0.552 0.448 1 1 1h1v4.843c0 0.001 0 0.001 0 0.002 0 0.593-0.173 1.147-0.47 1.612l0.007-0.012-7.807 12.368c-0.461 0.707-0.734 1.572-0.734 2.501 0 0.822 0.214 1.594 0.59 2.262l-0.012-0.023c0.829 1.522 2.449 2.447 4.184 2.447h16.484c1.736 0 3.356-0.926 4.184-2.451 0.363-0.645 0.577-1.416 0.577-2.238 0-0.928-0.274-1.793-0.744-2.517l0.011 0.018zM17.229 15.512c0.484-0.756 0.771-1.678 0.771-2.667 0-0.001 0-0.002 0-0.003v0-4.592c0-0.138 0.112-0.25 0.25-0.25v0h3.5c0.138 0 0.25 0.112 0.25 0.25v0 4.592c0 0.001 0 0.001 0 0.002 0 0.989 0.288 1.912 0.784 2.688l-0.012-0.020 3.613 5.721c0.048 0.076 0.077 0.168 0.077 0.267 0 0.276-0.224 0.5-0.5 0.5-0 0-0.001 0-0.001 0h-11.921c-0 0-0 0-0 0-0.276 0-0.5-0.224-0.5-0.5 0-0.099 0.029-0.191 0.078-0.269l-0.001 0.002z"></path>
</svg>
