<!-- Generated by IcoMoon.io -->
<svg version="1.1" xmlns="http://www.w3.org/2000/svg" width="40" height="40" viewBox="0 0 40 40">
<title>io-finger-print</title>
<path fill="#37352f" d="M7.955 16.625c-0.003 0-0.006 0-0.009 0-0.174 0-0.337-0.046-0.477-0.128l0.005 0.002c-0.284-0.162-0.473-0.463-0.473-0.809 0-0.173 0.048-0.336 0.13-0.474l-0.002 0.004c1.205-2.011 4.871-6.706 12.871-6.706 3.467 0 6.508 0.911 9.033 2.706 2.079 1.473 3.244 3.141 3.799 3.944 0.104 0.147 0.165 0.33 0.165 0.528 0 0.321-0.164 0.604-0.412 0.77l-0.003 0.002c-0.151 0.101-0.336 0.161-0.535 0.161-0.326 0-0.615-0.161-0.791-0.408l-0.002-0.003c-1.004-1.444-4.067-5.839-11.254-5.839-7.016 0-10.188 4.044-11.221 5.779-0.165 0.284-0.467 0.471-0.813 0.471-0.004 0-0.008-0-0.012-0h0.001z"></path>
<path fill="#37352f" d="M24.031 35c-0.003 0-0.007 0-0.011 0-0.080 0-0.158-0.010-0.232-0.028l0.007 0.001c-5.803-1.437-7.97-7.239-8.058-7.48l-0.014-0.053c-0.048-0.168-1.212-4.146 0.576-6.476 0.819-1.063 2.066-1.607 3.711-1.607 1.53 0 2.634 0.476 3.392 1.46 0.625 0.804 0.875 1.795 1.117 2.75 0.508 1.989 0.875 3.033 2.987 3.141 0.928 0.047 1.537-0.496 1.883-0.958 0.934-1.259 1.097-3.312 0.393-5.125-0.905-2.339-4.117-6.75-9.78-6.75-2.417 0-4.639 0.777-6.42 2.237-1.474 1.209-2.643 2.917-3.205 4.672-1.043 3.268 0.325 8.404 0.338 8.451 0.020 0.072 0.031 0.154 0.031 0.239 0 0.435-0.3 0.8-0.704 0.9l-0.006 0.001c-0.074 0.021-0.159 0.032-0.247 0.032-0.436 0-0.804-0.29-0.922-0.688l-0.002-0.007c-0.063-0.234-1.524-5.713-0.319-9.489 1.313-4.092 5.363-8.217 11.458-8.217 2.817 0 5.478 0.958 7.699 2.766 1.72 1.406 3.125 3.295 3.86 5.183 0.934 2.411 0.684 5.116-0.637 6.884-0.88 1.179-2.133 1.795-3.521 1.728-3.616-0.181-4.266-2.706-4.74-4.547-0.488-1.889-0.799-2.799-2.661-2.799-1.022 0-1.741 0.281-2.188 0.864-0.609 0.797-0.657 2.043-0.589 2.946 0.049 0.684 0.162 1.319 0.335 1.929l-0.016-0.067c0.149 0.375 2.086 5.125 6.724 6.274 0.413 0.1 0.716 0.467 0.716 0.905 0 0.081-0.010 0.159-0.030 0.233l0.001-0.006c-0.117 0.407-0.486 0.701-0.924 0.701-0 0-0.001 0-0.001 0h0z"></path>
<path fill="#37352f" d="M16.582 34.571c-0.001 0-0.001 0-0.002 0-0.273 0-0.519-0.113-0.695-0.294l-0-0c-2.322-2.438-3.636-5.163-4.131-8.571v-0.018c-0.277-2.256 0.129-5.451 2.119-7.647 1.469-1.621 3.535-2.444 6.129-2.444 3.068 0 5.478 1.426 6.981 4.118 1.091 1.956 1.307 3.904 1.313 3.984 0.003 0.026 0.004 0.056 0.004 0.087 0 0.49-0.375 0.893-0.853 0.938l-0.004 0c-0.031 0.004-0.067 0.006-0.103 0.006-0.485 0-0.886-0.362-0.946-0.831l-0.001-0.005c-0.179-1.246-0.572-2.369-1.141-3.379l0.025 0.048c-1.165-2.056-2.938-3.101-5.282-3.101-2.025 0-3.609 0.609-4.699 1.812-1.571 1.734-1.875 4.406-1.659 6.174 0.433 3.014 1.591 5.411 3.636 7.554 0.159 0.165 0.256 0.389 0.256 0.637 0 0.271-0.117 0.514-0.303 0.682l-0.001 0.001c-0.169 0.154-0.395 0.249-0.643 0.25h-0z"></path>
<path fill="#37352f" d="M27.281 31.886c-2.031 0-3.758-0.563-5.14-1.681-2.776-2.237-3.087-5.88-3.101-6.034-0.002-0.022-0.003-0.048-0.003-0.074 0-0.527 0.427-0.954 0.954-0.954 0.501 0 0.912 0.386 0.951 0.877l0 0.003c0.007 0.054 0.284 3.034 2.424 4.75 1.266 1.011 2.959 1.412 5.044 1.178 0.034-0.004 0.074-0.007 0.114-0.007 0.483 0 0.881 0.36 0.942 0.826l0.001 0.005c0.004 0.031 0.006 0.067 0.006 0.103 0 0.484-0.369 0.883-0.842 0.928l-0.004 0c-0.404 0.050-0.872 0.078-1.347 0.079h-0z"></path>
<path fill="#37352f" d="M28.886 7.049c-0.793-0.516-3.603-2.049-8.886-2.049-5.546 0-8.363 1.694-8.986 2.125-0.043 0.027-0.081 0.056-0.115 0.088l0-0c-0.004 0.004-0.008 0.006-0.014 0.006h-0c-0.195 0.171-0.317 0.419-0.318 0.697v0c0.007 0.514 0.426 0.928 0.941 0.928 0.006 0 0.011-0 0.017-0h-0.001c0.208-0 0.4-0.065 0.558-0.176l-0.003 0.002c0.027-0.020 2.451-1.801 7.923-1.801s7.909 1.775 7.936 1.788c0.157 0.117 0.354 0.188 0.568 0.188 0.003 0 0.006 0 0.008-0h-0c0.004 0 0.009 0 0.014 0 0.516 0 0.935-0.415 0.941-0.93v-0.001c0-0 0-0 0-0 0-0.389-0.238-0.722-0.576-0.861l-0.006-0.002z"></path>
</svg>
