<!-- Generated by IcoMoon.io -->
<svg version="1.1" xmlns="http://www.w3.org/2000/svg" width="40" height="40" viewBox="0 0 40 40">
<title>io-football-sharp</title>
<path fill="#37352f" d="M20 7c-7.168 0-13 5.832-13 13s5.832 13 13 13 13-5.832 13-13-5.832-13-13-13zM28.79 25.505h-2.923l-1.056-1.812 0.938-3.778 1.863-0.79 2.666 2.294c-0.216 1.537-0.742 2.918-1.512 4.127l0.025-0.042zM12.388 19.125l1.862 0.792 0.938 3.777-1.056 1.813h-2.922c-0.746-1.167-1.271-2.547-1.481-4.029l-0.006-0.055zM27.955 13.346l-1.151 3.271-1.945 0.824-3.547-2.974v-2.188l2.741-1.826c1.553 0.673 2.859 1.656 3.888 2.879l0.013 0.016zM15.946 10.45l2.741 1.826v2.188l-3.547 2.976-1.945-0.824-1.151-3.271c1.043-1.239 2.348-2.222 3.834-2.869l0.067-0.026zM17.599 30.094l-1.256-3.166 1-1.719h5.313l1.004 1.721-1.25 3.163c-0.723 0.179-1.552 0.282-2.406 0.282s-1.684-0.103-2.477-0.297l0.071 0.015z"></path>
</svg>
