<!-- Generated by IcoMoon.io -->
<svg version="1.1" xmlns="http://www.w3.org/2000/svg" width="40" height="40" viewBox="0 0 40 40">
<title>io-female</title>
<path fill="#37352f" d="M30.875 15.875c0-5.996-4.879-10.875-10.875-10.875s-10.875 4.879-10.875 10.875c0 5.531 4.15 10.111 9.5 10.788v1.962h-2.25c-0.759 0-1.375 0.616-1.375 1.375s0.616 1.375 1.375 1.375v0h2.25v2.25c0 0.759 0.616 1.375 1.375 1.375s1.375-0.616 1.375-1.375v0-2.25h2.25c0.759 0 1.375-0.616 1.375-1.375s-0.616-1.375-1.375-1.375v0h-2.25v-1.962c5.35-0.678 9.5-5.258 9.5-10.788zM11.875 15.875c0-4.48 3.645-8.125 8.125-8.125s8.125 3.645 8.125 8.125-3.645 8.125-8.125 8.125-8.125-3.645-8.125-8.125z"></path>
</svg>
