<!-- Generated by IcoMoon.io -->
<svg version="1.1" xmlns="http://www.w3.org/2000/svg" width="40" height="40" viewBox="0 0 40 40">
<title>io-flash-off-outline</title>
<path fill="#37352f" d="M31 32c-0 0-0.001 0-0.002 0-0.276 0-0.525-0.112-0.705-0.293l-22-22c-0.17-0.179-0.275-0.422-0.275-0.689 0-0.552 0.448-1 1-1 0.267 0 0.51 0.105 0.689 0.275l22 22c0.181 0.181 0.293 0.431 0.293 0.707 0 0.552-0.447 1-0.999 1h-0z"></path>
<path fill="#37352f" d="M22.396 9.268l-1.38 7.553c-0.010 0.054-0.016 0.117-0.016 0.18 0 0.327 0.157 0.617 0.399 0.8l0.003 0.002c0.168 0.124 0.379 0.198 0.608 0.198 0.005 0 0.009-0 0.014-0h5.882l-2.398 2.964c-0.035 0.043-0.056 0.097-0.056 0.157 0 0.069 0.028 0.131 0.073 0.177v0l1.067 1.067c0.045 0.045 0.108 0.073 0.177 0.073 0.078 0 0.148-0.036 0.194-0.092l0-0 3.8-4.697c0.147-0.176 0.236-0.404 0.236-0.653 0-0.087-0.011-0.171-0.031-0.251l0.001 0.007c-0.115-0.435-0.505-0.75-0.968-0.75-0 0-0 0-0.001 0h-6.801l1.763-9.648c0.003-0.019 0.006-0.037 0.008-0.056 0.006-0.044 0.009-0.094 0.009-0.146 0-0.637-0.516-1.153-1.153-1.153-0.366 0-0.693 0.171-0.904 0.438l-0.002 0.002-5.786 7.154c-0.035 0.043-0.056 0.098-0.056 0.157 0 0.069 0.028 0.132 0.073 0.177l1.067 1.066c0.045 0.045 0.108 0.073 0.177 0.073 0.078 0 0.148-0.036 0.194-0.092l0-0z"></path>
<path fill="#37352f" d="M17.611 30.723l1.375-7.544c0.010-0.054 0.016-0.116 0.016-0.179 0-0.327-0.157-0.618-0.4-0.8l-0.003-0.002c-0.168-0.123-0.379-0.198-0.608-0.198-0.004 0-0.009 0-0.013 0h-5.881l2.397-2.964c0.035-0.043 0.056-0.097 0.056-0.157 0-0.069-0.028-0.131-0.073-0.177v0l-1.067-1.067c-0.045-0.045-0.108-0.073-0.177-0.073-0.078 0-0.148 0.036-0.194 0.092l-0 0-3.803 4.698c-0.147 0.176-0.236 0.404-0.236 0.653 0 0.087 0.011 0.171 0.031 0.251l-0.001-0.007c0.115 0.435 0.505 0.75 0.968 0.75 0 0 0 0 0.001 0h6.802l-1.756 9.648v0.007c-0.011 0.059-0.017 0.126-0.017 0.195 0 0.634 0.514 1.148 1.148 1.148 0.364 0 0.688-0.169 0.898-0.433l0.002-0.002 5.788-7.154c0.035-0.043 0.056-0.098 0.056-0.157 0-0.069-0.028-0.132-0.073-0.177l-1.067-1.066c-0.045-0.045-0.108-0.073-0.177-0.073-0.078 0-0.148 0.036-0.194 0.092l-0 0z"></path>
</svg>
