<!-- Generated by IcoMoon.io -->
<svg version="1.1" xmlns="http://www.w3.org/2000/svg" width="40" height="40" viewBox="0 0 40 40">
<title>io-fitness-sharp</title>
<path fill="#37352f" d="M34 21h-2.334c-0.376 0.778-0.756 1.433-1.177 2.058l0.037-0.058h3.474z"></path>
<path fill="#37352f" d="M6 19v2h2.334c-0.273-0.552-0.536-1.215-0.748-1.9l-0.027-0.1z"></path>
<path fill="#37352f" d="M23 20.236l-3.233 6.466-3-10-2.149 4.297h-6.284c0.625 1.308 1.469 2.588 2.539 3.855 2.508 2.966 5.891 4.984 8.562 6.77l0.563 0.375 0.563-0.375c2.674-1.786 6.057-3.804 8.563-6.77 0.47-0.549 0.931-1.154 1.357-1.784l0.045-0.071h-6.144z"></path>
<path fill="#37352f" d="M17.233 11.297l3 10 2.767-5.534 2.618 5.236h6.048c0.842-1.698 1.335-3.697 1.335-5.811 0-0.052-0-0.104-0.001-0.156l0 0.008c-0.039-3.882-3.154-7.041-6.942-7.041-3.007 0-5.006 1.75-6.058 3.013-1.051-1.263-3.051-3.013-6.058-3.013-3.789 0-6.903 3.159-6.943 7.041-0.001 0.046-0.001 0.101-0.001 0.156 0 1.356 0.205 2.665 0.584 3.897l-0.025-0.094h5.823z"></path>
</svg>
