<!-- Generated by IcoMoon.io -->
<svg version="1.1" xmlns="http://www.w3.org/2000/svg" width="40" height="40" viewBox="0 0 40 40">
<title>io-fish</title>
<path fill="#37352f" d="M36 20c0-1.034-0.892-2.922-2.851-4.625-1.072-0.927-2.32-1.689-3.68-2.227l-0.088-0.031c-0.021-0.008-0.044-0.012-0.069-0.012-0.077 0-0.144 0.044-0.176 0.109l-0.001 0.001c-0.009 0.018-0.019 0.036-0.029 0.054l-0.599 0.994c-0.969 1.646-1.542 3.626-1.542 5.739 0 2.117 0.574 4.099 1.576 5.801l-0.029-0.054 0.014 0.024 0.546 1c0.043 0.078 0.125 0.13 0.219 0.13 0.032 0 0.063-0.006 0.091-0.017l-0.002 0.001c4.596-1.798 6.619-5.294 6.619-6.887zM30.13 19.991c-0.039 0.005-0.084 0.008-0.13 0.008-0.552 0-1-0.448-1-1s0.448-1 1-1c0.552 0 1 0.448 1 1 0 0.046-0.003 0.091-0.009 0.135l0.001-0.005c-0.060 0.45-0.412 0.801-0.857 0.861l-0.005 0.001z"></path>
<path fill="#37352f" d="M24.966 20c0-0.001 0-0.003 0-0.005 0-2.485 0.675-4.812 1.852-6.808l-0.034 0.063 0.008-0.013 0.289-0.479c0.023-0.037 0.037-0.082 0.037-0.13 0-0.12-0.084-0.22-0.197-0.244l-0.002-0c-0.702-0.155-1.542-0.275-2.399-0.334l-0.055-0.003c-0.102-0.007-0.194-0.043-0.269-0.101l0.001 0.001c-1.205-0.916-3.594-2.519-6.029-2.931-0.049-0.009-0.106-0.013-0.163-0.013-0.552 0-1 0.448-1 1 0 0.098 0.014 0.192 0.040 0.282l-0.002-0.007 0.664 2.323c0.006 0.021 0.010 0.044 0.010 0.069 0 0.106-0.066 0.197-0.159 0.233l-0.002 0.001c-2.303 0.856-4.287 2.422-5.734 3.616-0.086 0.070-0.196 0.113-0.317 0.113-0.119 0-0.227-0.041-0.313-0.11l0.001 0.001q-0.295-0.234-0.606-0.462c-2.478-1.809-5.388-2.048-5.511-2.056-0.023-0.002-0.049-0.003-0.075-0.003-0.552 0-1 0.448-1 1 0 0.076 0.009 0.151 0.025 0.222l-0.001-0.007c0.026 0.121 0.574 2.543 1.981 4.476 0.061 0.083 0.097 0.186 0.097 0.298s-0.037 0.216-0.098 0.3l0.001-0.001c-1.407 1.932-1.955 4.355-1.981 4.476-0.015 0.065-0.023 0.139-0.023 0.215 0 0.552 0.448 1 1 1 0.026 0 0.053-0.001 0.079-0.003l-0.003 0c0.125-0.009 3.033-0.25 5.507-2.055q0.303-0.223 0.592-0.451c0.085-0.068 0.193-0.109 0.312-0.109 0.121 0 0.232 0.043 0.318 0.114l-0.001-0.001c1.453 1.199 3.441 2.767 5.75 3.625 0.095 0.037 0.161 0.128 0.161 0.234 0 0.024-0.003 0.048-0.010 0.070l0-0.002-0.666 2.324c-0.024 0.082-0.038 0.177-0.038 0.275 0 0.552 0.448 1 1 1 0.058 0 0.114-0.005 0.169-0.014l-0.006 0.001c1.073-0.181 3.242-0.804 6.003-2.927 0.075-0.058 0.169-0.095 0.271-0.103l0.002-0c0.911-0.061 1.75-0.179 2.569-0.352l-0.117 0.021c0.114-0.025 0.199-0.125 0.199-0.245 0-0.044-0.011-0.085-0.031-0.121l0.001 0.001-0.282-0.518c-1.139-1.931-1.811-4.254-1.811-6.735 0-0.003 0-0.006 0-0.008v0z"></path>
</svg>
