<!-- Generated by IcoMoon.io -->
<svg version="1.1" xmlns="http://www.w3.org/2000/svg" width="40" height="40" viewBox="0 0 40 40">
<title>io-filter</title>
<path fill="#37352f" d="M33.5 14.5h-27c-0.828 0-1.5-0.672-1.5-1.5s0.672-1.5 1.5-1.5v0h27c0.828 0 1.5 0.672 1.5 1.5s-0.672 1.5-1.5 1.5v0z"></path>
<path fill="#37352f" d="M28.5 21.5h-17c-0.828 0-1.5-0.672-1.5-1.5s0.672-1.5 1.5-1.5v0h17c0.828 0 1.5 0.672 1.5 1.5s-0.672 1.5-1.5 1.5v0z"></path>
<path fill="#37352f" d="M22.5 28.5h-5c-0.828 0-1.5-0.672-1.5-1.5s0.672-1.5 1.5-1.5v0h5c0.828 0 1.5 0.672 1.5 1.5s-0.672 1.5-1.5 1.5v0z"></path>
</svg>
