<!-- Generated by IcoMoon.io -->
<svg version="1.1" xmlns="http://www.w3.org/2000/svg" width="40" height="40" viewBox="0 0 40 40">
<title>io-globe</title>
<path fill="#37352f" d="M25.297 25.531c0.369-1.294 0.614-2.797 0.707-4.24 0-0.004 0-0.010 0-0.015 0-0.152-0.123-0.276-0.276-0.276-0.001 0-0.002 0-0.004 0h-4.441c-0.001 0-0.002 0-0.002 0-0.152 0-0.275 0.123-0.277 0.274v3.456c0.002 0.145 0.115 0.264 0.258 0.274l0.001 0c1.357 0.112 2.612 0.364 3.809 0.745l-0.121-0.033c0.024 0.007 0.052 0.012 0.080 0.012 0.125 0 0.23-0.082 0.266-0.195l0.001-0.002z"></path>
<path fill="#37352f" d="M24.224 27.582c-0.837-0.256-1.826-0.456-2.842-0.562l-0.070-0.006c-0.009-0.001-0.020-0.002-0.031-0.002-0.15 0-0.273 0.12-0.276 0.269v4.078c0.005 0.151 0.128 0.271 0.279 0.271 0.053 0 0.102-0.015 0.144-0.040l-0.001 0.001c0.994-0.579 1.812-1.553 2.553-2.839 0.121-0.21 0.306-0.572 0.417-0.793 0.017-0.034 0.027-0.074 0.027-0.117 0-0.124-0.084-0.228-0.198-0.259l-0.002-0z"></path>
<path fill="#37352f" d="M18.706 27.025c-1.083 0.105-2.071 0.299-3.024 0.58l0.114-0.029c-0.165 0.047-0.234 0.275-0.159 0.424 0.112 0.223 0.25 0.507 0.368 0.719 0.813 1.438 1.678 2.344 2.578 2.871 0.041 0.025 0.090 0.040 0.143 0.040 0.151 0 0.274-0.12 0.279-0.27v-4.080c-0.001-0.143-0.117-0.258-0.26-0.258-0.014 0-0.027 0.001-0.040 0.003l0.001-0z"></path>
<path fill="#37352f" d="M18.725 21h-4.441c-0.001 0-0.002-0-0.004-0-0.152 0-0.276 0.123-0.276 0.276 0 0.005 0 0.010 0 0.015l-0-0.001c0.092 1.441 0.336 2.948 0.704 4.24 0.035 0.116 0.142 0.2 0.267 0.2 0.029 0 0.057-0.004 0.084-0.013l-0.002 0.001c1.076-0.348 2.331-0.599 3.626-0.706l0.061-0.004c0.144-0.010 0.258-0.128 0.259-0.274v-3.459c-0.001-0.152-0.125-0.275-0.277-0.275-0.001 0-0.002 0-0.003 0h0z"></path>
<path fill="#37352f" d="M21.313 12.986c1.077-0.103 2.064-0.305 3.011-0.599l-0.104 0.028c0.115-0.032 0.199-0.136 0.199-0.259 0-0.042-0.010-0.082-0.027-0.117l0.001 0.002c-0.112-0.223-0.267-0.542-0.386-0.756-0.768-1.375-1.634-2.334-2.578-2.875-0.041-0.025-0.090-0.039-0.143-0.039-0.151 0-0.274 0.12-0.28 0.27v4.077c0.004 0.15 0.126 0.27 0.277 0.27 0.011 0 0.021-0.001 0.031-0.002l-0.001 0z"></path>
<path fill="#37352f" d="M21.284 19h4.441c0.001 0 0.003 0 0.005 0 0.152 0 0.274-0.123 0.274-0.274 0-0.004-0-0.008-0-0.012l0 0.001c-0.093-1.423-0.329-2.988-0.697-4.264-0.036-0.115-0.142-0.197-0.266-0.197-0.030 0-0.058 0.005-0.085 0.013l0.002-0.001c-1.188 0.359-2.424 0.652-3.693 0.75-0.143 0.008-0.257 0.126-0.259 0.27v3.445c0.003 0.15 0.125 0.27 0.275 0.27 0.002 0 0.003 0 0.005-0h-0z"></path>
<path fill="#37352f" d="M18.582 8.41c-0.964 0.536-1.823 1.527-2.592 2.898-0.119 0.213-0.262 0.507-0.375 0.729-0.016 0.034-0.026 0.073-0.026 0.115 0 0.124 0.083 0.228 0.196 0.259l0.002 0c0.845 0.272 1.834 0.475 2.853 0.569l0.055 0.004c0.009 0.001 0.019 0.002 0.030 0.002 0.15 0 0.273-0.12 0.277-0.269v-4.077c-0.006-0.15-0.129-0.269-0.28-0.269-0.052 0-0.1 0.014-0.142 0.039l0.001-0.001z"></path>
<path fill="#37352f" d="M18.745 15.016c-1.269-0.097-2.507-0.39-3.693-0.75-0.025-0.008-0.053-0.013-0.083-0.013-0.125 0-0.23 0.082-0.266 0.195l-0.001 0.002c-0.368 1.276-0.605 2.841-0.697 4.264-0 0.004-0 0.008-0 0.012 0 0.152 0.123 0.274 0.274 0.274 0.002 0 0.003 0 0.005-0h4.441c0.001 0 0.003 0 0.004 0 0.151 0 0.273-0.121 0.275-0.271v-3.443c-0.002-0.144-0.116-0.262-0.259-0.27l-0.001-0z"></path>
<path fill="#37352f" d="M29.899 10.101c-2.538-2.563-6.058-4.149-9.948-4.149-7.732 0-14 6.268-14 14 0 3.89 1.587 7.41 4.148 9.947l0.001 0.001c2.538 2.563 6.058 4.149 9.948 4.149 7.732 0 14-6.268 14-14 0-3.89-1.587-7.41-4.148-9.947l-0.001-0.001zM15.037 30.928c-0.25-0.345-0.508-0.747-0.745-1.162l-0.035-0.067c-0.125-0.231-0.302-0.579-0.421-0.821-0.075-0.156-0.231-0.261-0.412-0.261-0.086 0-0.166 0.024-0.234 0.065l0.002-0.001c-0.269 0.151-0.625 0.358-0.883 0.527-0.55-0.421-1.033-0.881-1.462-1.388l-0.011-0.014c0.544-0.389 1.166-0.77 1.814-1.107l0.086-0.041c0.116-0.063 0.173-0.134 0.136-0.261-0.454-1.509-0.768-3.262-0.877-5.071l-0.003-0.065c-0.006-0.144-0.124-0.259-0.269-0.261h-3.546c-0 0-0.001 0-0.001 0-0.062 0-0.114-0.046-0.124-0.106l-0-0.001c-0.034-0.242-0.053-0.522-0.053-0.806 0-0.031 0-0.062 0.001-0.093l-0 0.005c-0-0.026-0.001-0.056-0.001-0.086 0-0.285 0.020-0.565 0.058-0.839l-0.004 0.032c0.009-0.061 0.061-0.106 0.124-0.106 0.001 0 0.001 0 0.001 0h3.546c0.143 0 0.261-0.083 0.268-0.227 0.111-1.865 0.423-3.611 0.917-5.279l-0.042 0.165c0.007-0.023 0.011-0.050 0.011-0.077 0-0.105-0.059-0.196-0.146-0.242l-0.001-0.001c-0.725-0.374-1.335-0.745-1.917-1.153l0.052 0.035c0.44-0.524 0.914-0.99 1.427-1.41l0.019-0.015c0.255 0.168 0.588 0.357 0.854 0.507 0.070 0.041 0.154 0.064 0.244 0.064 0.194 0 0.362-0.112 0.443-0.275l0.001-0.003c0.117-0.242 0.25-0.511 0.379-0.742 0.274-0.489 0.533-0.895 0.812-1.287l-0.029 0.042c1.443-0.696 3.138-1.103 4.928-1.103 0.020 0 0.039 0 0.059 0h-0.003c1.809 0 3.494 0.438 5.033 1.154 0.242 0.335 0.49 0.723 0.717 1.124l0.033 0.063c0.162 0.291 0.334 0.648 0.479 0.958 0.044 0.091 0.136 0.154 0.242 0.154 0.047 0 0.091-0.012 0.129-0.033l-0.001 0.001c0.336-0.182 0.701-0.391 1.021-0.602 0.534 0.438 1.008 0.909 1.436 1.421l0.014 0.017c-0.517 0.364-1.111 0.723-1.73 1.042l-0.086 0.040c-0.088 0.046-0.148 0.137-0.148 0.242 0 0.028 0.004 0.055 0.012 0.080l-0.001-0.002c0.461 1.501 0.771 3.239 0.863 5.035l0.002 0.053c0.007 0.143 0.125 0.257 0.269 0.257h0l3.539-0.004c0 0 0.001 0 0.001 0 0.062 0 0.114 0.046 0.124 0.106l0 0.001c0.035 0.269 0.055 0.579 0.055 0.894s-0.020 0.626-0.058 0.931l0.004-0.036c-0.009 0.061-0.061 0.108-0.124 0.108-0 0-0.001 0-0.001 0h-3.542c-0.145 0.002-0.263 0.116-0.269 0.26l-0 0.001c-0.107 1.852-0.417 3.587-0.908 5.244l0.041-0.162c-0.007 0.024-0.011 0.051-0.011 0.078 0 0.106 0.059 0.198 0.147 0.245l0.001 0.001c0.313 0.162 0.661 0.343 0.961 0.526s0.597 0.38 0.883 0.584c-0.439 0.526-0.909 0.996-1.42 1.419l-0.018 0.014c-0.153-0.101-0.334-0.215-0.49-0.309-0.107-0.063-0.306-0.173-0.416-0.235-0.239-0.134-0.492-0.034-0.612 0.213s-0.302 0.599-0.429 0.828c-0.268 0.478-0.524 0.877-0.799 1.26l0.027-0.040c-1.539 0.721-3.162 1.073-4.971 1.073s-3.423-0.352-4.963-1.072z"></path>
</svg>
