<!-- Generated by IcoMoon.io -->
<svg version="1.1" xmlns="http://www.w3.org/2000/svg" width="40" height="40" viewBox="0 0 40 40">
<title>io-grid-outline</title>
<path fill="none" stroke-linejoin="round" stroke-linecap="round" stroke-miterlimit="4" stroke-width="2.5" stroke="#37352f" d="M8.25 7h8.5c0.69 0 1.25 0.56 1.25 1.25v8.5c0 0.69-0.56 1.25-1.25 1.25h-8.5c-0.69 0-1.25-0.56-1.25-1.25v-8.5c0-0.69 0.56-1.25 1.25-1.25z"></path>
<path fill="none" stroke-linejoin="round" stroke-linecap="round" stroke-miterlimit="4" stroke-width="2.5" stroke="#37352f" d="M23.25 7h8.5c0.69 0 1.25 0.56 1.25 1.25v8.5c0 0.69-0.56 1.25-1.25 1.25h-8.5c-0.69 0-1.25-0.56-1.25-1.25v-8.5c0-0.69 0.56-1.25 1.25-1.25z"></path>
<path fill="none" stroke-linejoin="round" stroke-linecap="round" stroke-miterlimit="4" stroke-width="2.5" stroke="#37352f" d="M8.25 22h8.5c0.69 0 1.25 0.56 1.25 1.25v8.5c0 0.69-0.56 1.25-1.25 1.25h-8.5c-0.69 0-1.25-0.56-1.25-1.25v-8.5c0-0.69 0.56-1.25 1.25-1.25z"></path>
<path fill="none" stroke-linejoin="round" stroke-linecap="round" stroke-miterlimit="4" stroke-width="2.5" stroke="#37352f" d="M23.25 22h8.5c0.69 0 1.25 0.56 1.25 1.25v8.5c0 0.69-0.56 1.25-1.25 1.25h-8.5c-0.69 0-1.25-0.56-1.25-1.25v-8.5c0-0.69 0.56-1.25 1.25-1.25z"></path>
</svg>
