<!-- Generated by IcoMoon.io -->
<svg version="1.1" xmlns="http://www.w3.org/2000/svg" width="40" height="40" viewBox="0 0 40 40">
<title>io-heart-dislike-circle-outline</title>
<path fill="none" stroke-linejoin="miter" stroke-linecap="butt" stroke-miterlimit="10" stroke-width="2.5" stroke="#37352f" d="M32 20c0-6.625-5.375-12-12-12s-12 5.375-12 12 5.375 12 12 12 12-5.375 12-12z"></path>
<path fill="#37352f" d="M24.825 22.606c1.143-1.462 1.691-2.964 1.674-4.586-0.019-1.941-1.576-3.521-3.471-3.521-1.275 0-2.188 0.665-2.757 1.276-0.068 0.073-0.165 0.119-0.272 0.119s-0.204-0.046-0.272-0.119l-0-0c-0.569-0.611-1.482-1.276-2.757-1.276l-0.096 0.001c-0.136 0.002-0.246 0.113-0.246 0.25 0 0.069 0.028 0.132 0.074 0.178l0 0 7.75 7.701c0.045 0.046 0.107 0.075 0.176 0.075 0.080 0 0.15-0.038 0.195-0.097l0-0.001z"></path>
<path fill="#37352f" d="M13.927 17.813c-0.045-0.045-0.108-0.073-0.176-0.073-0.136 0-0.246 0.108-0.25 0.242v0c0 0.013 0 0.027 0 0.040-0.018 1.694 0.582 3.258 1.831 4.781 0.586 0.715 1.65 1.858 4.106 3.526 0.157 0.109 0.352 0.174 0.563 0.174s0.405-0.065 0.566-0.176l-0.003 0.002c0.322-0.218 0.619-0.428 0.894-0.625 0.063-0.046 0.103-0.119 0.103-0.202 0-0.069-0.028-0.132-0.074-0.177v0z"></path>
<path fill="#37352f" d="M25 27c-0 0-0.001 0-0.002 0-0.276 0-0.525-0.112-0.705-0.293l-11-11c-0.17-0.179-0.275-0.422-0.275-0.689 0-0.552 0.448-1 1-1 0.267 0 0.51 0.105 0.689 0.275l11 11c0.181 0.181 0.293 0.431 0.293 0.707 0 0.552-0.447 1-0.999 1h-0z"></path>
</svg>
