<!-- Generated by IcoMoon.io -->
<svg version="1.1" xmlns="http://www.w3.org/2000/svg" width="40" height="40" viewBox="0 0 40 40">
<title>io-heart-dislike-circle</title>
<path fill="#37352f" d="M20 7c-7.168 0-13 5.832-13 13s5.832 13 13 13 13-5.832 13-13-5.832-13-13-13zM21.456 25.699c-0.276 0.2-0.572 0.409-0.894 0.625-0.157 0.109-0.352 0.174-0.563 0.174s-0.405-0.065-0.566-0.176l0.003 0.002c-2.456-1.668-3.52-2.813-4.106-3.526-1.25-1.523-1.849-3.088-1.831-4.781 0-0.013 0-0.027 0-0.040 0.004-0.135 0.114-0.243 0.25-0.243 0.069 0 0.131 0.028 0.176 0.073l7.559 7.512c0.046 0.045 0.074 0.108 0.074 0.177 0 0.083-0.040 0.156-0.102 0.201l-0.001 0.001zM25.706 26.707c-0.181 0.181-0.431 0.293-0.707 0.293s-0.526-0.112-0.707-0.293l-11-11c-0.17-0.179-0.275-0.422-0.275-0.689 0-0.552 0.448-1 1-1 0.267 0 0.51 0.105 0.689 0.275l11 11c0.181 0.181 0.293 0.431 0.293 0.707s-0.112 0.526-0.292 0.707v0zM24.825 22.606c-0.045 0.061-0.117 0.1-0.197 0.1-0.070 0-0.133-0.029-0.178-0.076l-0-0-7.75-7.701c-0.046-0.045-0.075-0.108-0.075-0.178 0-0.138 0.112-0.25 0.25-0.25h0.097c1.275 0 2.188 0.665 2.757 1.276 0.068 0.073 0.165 0.119 0.272 0.119s0.204-0.046 0.272-0.119l0-0c0.569-0.611 1.482-1.276 2.757-1.276 1.894 0 3.451 1.579 3.471 3.521 0.016 1.621-0.532 3.123-1.675 4.585z"></path>
</svg>
