<!-- Generated by IcoMoon.io -->
<svg version="1.1" xmlns="http://www.w3.org/2000/svg" width="40" height="40" viewBox="0 0 40 40">
<title>io-hardware-chip</title>
<path fill="#37352f" d="M14.5 14h11c0.276 0 0.5 0.224 0.5 0.5v11c0 0.276-0.224 0.5-0.5 0.5h-11c-0.276 0-0.5-0.224-0.5-0.5v-11c0-0.276 0.224-0.5 0.5-0.5z"></path>
<path fill="#37352f" d="M33 16c0.552 0 1-0.448 1-1s-0.448-1-1-1v0h-1v-2c-0.002-2.208-1.792-3.998-4-4h-2v-1c0-0.552-0.448-1-1-1s-1 0.448-1 1v0 1h-3v-1c0-0.552-0.448-1-1-1s-1 0.448-1 1v0 1h-3v-1c0-0.552-0.448-1-1-1s-1 0.448-1 1v0 1h-2c-2.208 0.003-3.998 1.792-4 4v2h-1c-0.552 0-1 0.448-1 1s0.448 1 1 1v0h1v3h-1c-0.552 0-1 0.448-1 1s0.448 1 1 1v0h1v3h-1c-0.552 0-1 0.448-1 1s0.448 1 1 1v0h1v2c0.002 2.208 1.792 3.997 4 4h2v1c0 0.552 0.448 1 1 1s1-0.448 1-1v0-1h3v1c0 0.552 0.448 1 1 1s1-0.448 1-1v0-1h3v1c0 0.552 0.448 1 1 1s1-0.448 1-1v0-1h2c2.208-0.002 3.997-1.792 4-4v-2h1c0.552 0 1-0.448 1-1s-0.448-1-1-1v0h-1v-3h1c0.552 0 1-0.448 1-1s-0.448-1-1-1v0h-1v-3zM28 26c0 1.105-0.895 2-2 2v0h-12c-1.105 0-2-0.895-2-2v0-12c0-1.105 0.895-2 2-2v0h12c1.105 0 2 0.895 2 2v0z"></path>
</svg>
