<!-- Generated by IcoMoon.io -->
<svg version="1.1" xmlns="http://www.w3.org/2000/svg" width="40" height="40" viewBox="0 0 40 40">
<title>io-heart-circle-outline</title>
<path fill="none" stroke-linejoin="miter" stroke-linecap="butt" stroke-miterlimit="10" stroke-width="2.5" stroke="#37352f" d="M32 20c0-6.625-5.375-12-12-12s-12 5.375-12 12 5.375 12 12 12 12-5.375 12-12z"></path>
<path fill="#37352f" d="M20 26.5c-0.21-0-0.405-0.065-0.566-0.176l0.003 0.002c-2.456-1.668-3.52-2.813-4.106-3.526-1.25-1.523-1.849-3.087-1.831-4.781 0.019-1.941 1.576-3.521 3.471-3.521 1.275 0 2.188 0.664 2.756 1.276 0.069 0.072 0.165 0.117 0.273 0.117s0.204-0.045 0.272-0.117l0-0c0.569-0.611 1.481-1.276 2.756-1.276 1.894 0 3.451 1.579 3.471 3.521 0.017 1.694-0.582 3.258-1.831 4.781-0.586 0.715-1.65 1.858-4.106 3.526-0.157 0.108-0.352 0.173-0.561 0.174h-0z"></path>
</svg>
