<!-- Generated by IcoMoon.io -->
<svg version="1.1" xmlns="http://www.w3.org/2000/svg" width="40" height="40" viewBox="0 0 40 40">
<title>io-hand-right-outline</title>
<path fill="none" stroke-linejoin="round" stroke-linecap="round" stroke-miterlimit="4" stroke-width="2.5" stroke="#37352f" d="M31 24v-11c0-1.105-0.895-2-2-2v0 0c-1.105 0-2 0.895-2 2v0 7"></path>
<path fill="none" stroke-linejoin="round" stroke-linecap="round" stroke-miterlimit="4" stroke-width="2.5" stroke="#37352f" d="M27 20v-11c0-1.105-0.895-2-2-2v0 0c-1.105 0-2 0.895-2 2v0 10"></path>
<path fill="none" stroke-linejoin="round" stroke-linecap="round" stroke-miterlimit="4" stroke-width="2.5" stroke="#37352f" d="M19 19.063v-9.063c0-1.105-0.895-2-2-2v0 0c-1.105 0-2 0.895-2 2v0 14"></path>
<path fill="none" stroke-linejoin="round" stroke-linecap="round" stroke-miterlimit="4" stroke-width="2.5" stroke="#37352f" d="M23 19v-12c0-1.105-0.895-2-2-2v0 0c-1.105 0-2 0.895-2 2v0 12"></path>
<path fill="none" stroke-linejoin="round" stroke-linecap="round" stroke-miterlimit="4" stroke-width="2.5" stroke="#37352f" d="M31 24c0 7.337-4 11-9.5 11s-7.732-2.475-9-5.5l-3.292-9c-0.416-1.128-0.228-2.174 0.742-2.725v0c0.97-0.551 2.244-0.267 2.769 0.73l2.281 5.495"></path>
</svg>
