<!-- Generated by IcoMoon.io -->
<svg version="1.1" xmlns="http://www.w3.org/2000/svg" width="40" height="40" viewBox="0 0 40 40">
<title>io-heart-circle-sharp</title>
<path fill="#37352f" d="M20 7c-7.168 0-13 5.832-13 13s5.832 13 13 13 13-5.832 13-13-5.832-13-13-13zM24.668 22.801c-0.531 0.648-2.481 2.405-4.668 3.969-2.188-1.563-4.137-3.322-4.668-3.969-1.25-1.523-1.849-3.088-1.831-4.781 0.019-1.941 1.576-3.521 3.471-3.521 1.375 0 2.331 0.776 2.887 1.422l0.142 0.172 0.142-0.172c0.546-0.654 1.509-1.422 2.887-1.422 1.894 0 3.451 1.579 3.471 3.521 0.017 1.693-0.582 3.258-1.831 4.781z"></path>
</svg>
