<!-- Generated by IcoMoon.io -->
<svg version="1.1" xmlns="http://www.w3.org/2000/svg" width="40" height="40" viewBox="0 0 40 40">
<title>io-images-sharp</title>
<path fill="#37352f" d="M9 12.25v20.5c0 0.69 0.56 1.25 1.25 1.25v0h24.5c0.69 0 1.25-0.56 1.25-1.25v0-20.5c0-0.69-0.56-1.25-1.25-1.25v0h-24.5c-0.69 0-1.25 0.56-1.25 1.25v0zM27.321 14.833c1.58 0.010 2.858 1.293 2.858 2.875 0 1.588-1.287 2.875-2.875 2.875s-2.875-1.287-2.875-2.875v0c0.007-1.589 1.297-2.875 2.887-2.875 0.002 0 0.004 0 0.006 0h-0zM10.983 32.083v-5.967l7.672-6.887 5.861 5.834-7.063 7.021zM34 32.083h-13.813l9.036-9 4.776 4.079z"></path>
<path fill="#37352f" d="M5.25 6c-0.69 0-1.25 0.56-1.25 1.25v0 21.5c0 0.69 0.56 1.25 1.25 1.25v0h1.75v-19.75c0-0.69 0.56-1.25 1.25-1.25v0h23.75v-1.75c0-0.69-0.56-1.25-1.25-1.25v0z"></path>
</svg>
