<!-- Generated by IcoMoon.io -->
<svg version="1.1" xmlns="http://www.w3.org/2000/svg" width="40" height="40" viewBox="0 0 40 40">
<title>io-invert-mode</title>
<path fill="none" stroke-linejoin="miter" stroke-linecap="butt" stroke-miterlimit="10" stroke-width="2.5" stroke="#37352f" d="M33 20c0 7.18-5.82 13-13 13s-13-5.82-13-13c0-7.18 5.82-13 13-13s13 5.82 13 13z"></path>
<path fill="#37352f" d="M20 15v10c2.761 0 5-2.239 5-5s-2.239-5-5-5v0z"></path>
<path fill="#37352f" d="M20 7v8c-2.761 0-5 2.239-5 5s2.239 5 5 5v0 8c-7.18 0-13-5.82-13-13s5.82-13 13-13z"></path>
</svg>
