<!-- Generated by IcoMoon.io -->
<svg version="1.1" xmlns="http://www.w3.org/2000/svg" width="40" height="40" viewBox="0 0 40 40">
<title>io-logo-firefox</title>
<path fill="#37352f" d="M33.466 16.164v-0.004c-0.014-0.047-0.028-0.095-0.043-0.142-0.003-0.012-0.007-0.024-0.011-0.035-0.027-0.090-0.054-0.18-0.083-0.269l-0.004-0.012c-0.207-0.642-0.419-1.171-0.661-1.682l0.036 0.085c-0.265-0.581-0.534-1.069-0.835-1.535l0.029 0.047c-1.191-1.892-2.759-3.441-4.61-4.574l-0.062-0.035c-2.054-1.26-4.541-2.006-7.202-2.006-0.008 0-0.015 0-0.023 0h0.001c-0.438 0-0.875 0.021-1.301 0.063-1.508 0.159-4.049 0.701-6.111 2.511 7.506-3.832 17.533 0.783 16.68 9.364-0.304 3.063-2.904 5.167-5.324 5.522-0.209 0.034-0.45 0.053-0.696 0.053-0.213 0-0.423-0.014-0.628-0.042l0.024 0.003c-5.912-0.822-5.55-5.667-3.754-7.739-2.375-0.015-4.217 2.924-3.322 5.813v0c-2.059-3.824 0.022-9.813 4.433-11.625-5.184-0.75-10.044 1.763-11.606 6.129 0.207-1.739 0.597-3.319 1.156-4.818l-0.047 0.143s-2.826 2.234-3.403 6.931c-0.009 0.073-0.017 0.145-0.024 0.218-0.003 0.025-0.006 0.050-0.008 0.076q-0.033 0.328-0.050 0.661c0 0.017 0 0.034 0 0.051-0.004 0.093-0.008 0.188-0.011 0.279v0.078c0 0.11-0.004 0.22-0.004 0.331 0 7.732 6.268 14 14 14s13.996-6.267 13.996-13.999c0-0.002 0-0.005 0-0.007 0-1.364-0.195-2.682-0.559-3.928l0.025 0.099z"></path>
</svg>
