<!-- Generated by IcoMoon.io -->
<svg version="1.1" xmlns="http://www.w3.org/2000/svg" width="40" height="40" viewBox="0 0 40 40">
<title>io-logo-ionic</title>
<path fill="#37352f" d="M20 13.619c-3.524 0-6.381 2.857-6.381 6.381s2.857 6.381 6.381 6.381c3.524 0 6.381-2.857 6.381-6.381v0c-0.005-3.522-2.859-6.377-6.381-6.381h-0z"></path>
<path fill="#37352f" d="M32.069 11.278c0 1.606-1.302 2.908-2.908 2.908s-2.907-1.302-2.907-2.908c0-1.606 1.302-2.908 2.907-2.908s2.908 1.302 2.908 2.908z"></path>
<path fill="#37352f" d="M32.741 14.2l-0.122-0.268-0.194 0.22c-0.468 0.53-1.057 0.943-1.724 1.197l-0.030 0.010-0.188 0.069 0.076 0.183c0.555 1.292 0.878 2.795 0.878 4.374 0 0.005 0 0.010 0 0.015v-0.001c0 6.307-5.131 11.438-11.438 11.438s-11.437-5.13-11.437-11.438 5.13-11.438 11.437-11.438c0.007-0 0.015-0 0.024-0 1.773 0 3.451 0.408 4.945 1.136l-0.067-0.029 0.179 0.081 0.078-0.183c0.297-0.679 0.736-1.246 1.283-1.686l0.009-0.007 0.229-0.183-0.261-0.129c-1.855-0.984-4.055-1.563-6.391-1.563-0.010 0-0.020 0-0.030 0h0.002c-7.719 0-14 6.281-14 14s6.281 14 14 14 14-6.281 14-14c0-0.007 0-0.015 0-0.023 0-2.095-0.464-4.082-1.295-5.863l0.036 0.085z"></path>
</svg>
