<!-- Generated by IcoMoon.io -->
<svg version="1.1" xmlns="http://www.w3.org/2000/svg" width="40" height="40" viewBox="0 0 40 40">
<title>io-location</title>
<path fill="#37352f" d="M22 16c0 1.105-0.895 2-2 2s-2-0.895-2-2c0-1.105 0.895-2 2-2s2 0.895 2 2z"></path>
<path fill="#37352f" d="M20 6c-5.514 0-10 4.291-10 9.563 0 2.511 1.144 5.849 3.401 9.924 1.812 3.271 3.909 6.229 5 7.701 0.365 0.494 0.946 0.811 1.601 0.811s1.235-0.317 1.597-0.806l0.004-0.005c1.089-1.472 3.188-4.43 5-7.701 2.253-4.073 3.398-7.412 3.398-9.924 0-5.272-4.486-9.563-10-9.563zM20 20c-2.209 0-4-1.791-4-4s1.791-4 4-4c2.209 0 4 1.791 4 4v0c-0.002 2.208-1.792 3.998-4 4h-0z"></path>
</svg>
