<!-- Generated by IcoMoon.io -->
<svg version="1.1" xmlns="http://www.w3.org/2000/svg" width="40" height="40" viewBox="0 0 40 40">
<title>io-logo-apple-appstore</title>
<path fill="#37352f" d="M20 6c-7.734 0-14 6.266-14 14s6.266 14 14 14 14-6.266 14-14-6.266-14-14-14zM14.688 26.118c-0.171 0.288-0.481 0.478-0.835 0.478-0.002 0-0.005 0-0.007-0h0c-0.002 0-0.005 0-0.008 0-0.179 0-0.345-0.050-0.487-0.137l0.004 0.002c-0.29-0.171-0.482-0.481-0.482-0.837 0-0.18 0.049-0.349 0.135-0.493l-0.002 0.004 0.956-1.589c0.097-0.162 0.271-0.269 0.47-0.269 0 0 0.001 0 0.001 0h0.141c0.693 0 1.178 0.417 1.319 0.821zM22.778 22.993l-10.417 0.007c-0.001 0-0.003 0-0.004 0-0.534 0-0.966-0.433-0.966-0.966 0-0.015 0-0.030 0.001-0.045l-0 0.002c0.020-0.525 0.478-0.922 1-0.922h3.015l3.574-6.084-1.158-1.972c-0.261-0.449-0.145-1.042 0.302-1.324 0.149-0.098 0.332-0.156 0.528-0.156 0.355 0 0.666 0.19 0.836 0.475l0.002 0.004 0.619 1.057h0.007l0.619-1.057c0.173-0.288 0.483-0.477 0.838-0.477 0.195 0 0.377 0.057 0.529 0.156l-0.004-0.002c0.444 0.283 0.559 0.875 0.296 1.326l-4.726 8.056v0.007h3.601c0.451 0 1.017 0.242 1.246 0.633l0.020 0.041c0.202 0.343 0.316 0.579 0.316 0.922-0.004 0.118-0.030 0.228-0.075 0.329l0.002-0.005zM27.637 23h-1.694v0.007l1.239 2.107c0.089 0.145 0.141 0.321 0.141 0.508 0 0.351-0.184 0.66-0.46 0.835l-0.004 0.002c-0.144 0.089-0.318 0.142-0.505 0.142v0c-0.355-0-0.667-0.189-0.839-0.472l-0.002-0.004-2.968-5.054-1.468-2.509c-0.211-0.35-0.336-0.772-0.336-1.223 0-0.422 0.109-0.819 0.301-1.164l-0.006 0.012c0.29-0.512 0.512-0.646 0.512-0.646l3.264 5.521h2.807c0.525 0 0.976 0.404 1 0.922 0 0.011 0.001 0.024 0.001 0.038 0 0.54-0.438 0.978-0.978 0.978-0.001 0-0.002 0-0.003 0h0z"></path>
</svg>
