<!-- Generated by IcoMoon.io -->
<svg version="1.1" xmlns="http://www.w3.org/2000/svg" width="40" height="40" viewBox="0 0 40 40">
<title>io-language</title>
<path fill="#37352f" d="M33.896 31.1l-5.625-13.625c-0.212-0.503-0.701-0.85-1.271-0.85s-1.059 0.347-1.268 0.841l-0.003 0.009-5.625 13.625c-0.067 0.157-0.107 0.339-0.107 0.531 0 0.759 0.616 1.375 1.375 1.375 0.572 0 1.063-0.35 1.27-0.847l0.003-0.009 1.146-2.774h6.417l1.146 2.774c0.212 0.504 0.701 0.851 1.271 0.851 0 0 0 0 0 0v0c0.759-0 1.374-0.616 1.374-1.375 0-0.189-0.038-0.37-0.108-0.534l0.003 0.009zM24.927 26.625l2.073-5.022 2.073 5.022z"></path>
<path fill="#37352f" d="M20.74 25.433c0.163-0.223 0.261-0.503 0.261-0.806 0-0.456-0.222-0.86-0.563-1.11l-0.004-0.003c-0.012-0.009-0.938-0.696-2.281-2.171 2.478-3.355 3.882-7.172 4.454-8.968h2.017c0.759 0 1.375-0.616 1.375-1.375s-0.616-1.375-1.375-1.375v0h-7.25v-1.25c0-0.759-0.616-1.375-1.375-1.375s-1.375 0.616-1.375 1.375v0 1.25h-7.25c-0.759 0-1.375 0.616-1.375 1.375s0.616 1.375 1.375 1.375v0h12.328c-0.595 1.684-1.691 4.344-3.362 6.773-1.963-2.605-2.693-4.291-2.698-4.304-0.217-0.492-0.7-0.829-1.262-0.829-0.759 0-1.375 0.616-1.375 1.375 0 0.186 0.037 0.364 0.104 0.526l-0.003-0.009c0.036 0.086 0.909 2.139 3.304 5.246 0.057 0.074 0.114 0.147 0.171 0.219-2.453 2.772-4.859 4.491-5.866 5.046-0.43 0.238-0.717 0.689-0.717 1.207 0 0.759 0.616 1.375 1.375 1.375 0.241 0 0.468-0.062 0.666-0.171l-0.007 0.004c0.135-0.074 3.037-1.681 6.352-5.349 1.407 1.505 2.375 2.215 2.433 2.256 0.224 0.164 0.504 0.262 0.808 0.262 0.456 0 0.861-0.222 1.111-0.565l0.003-0.004z"></path>
</svg>
