<!-- Generated by IcoMoon.io -->
<svg version="1.1" xmlns="http://www.w3.org/2000/svg" width="40" height="40" viewBox="0 0 40 40">
<title>io-logo-google</title>
<path fill="#37352f" d="M33.572 17.842l-0.141-0.599h-13.027v5.514h7.784c-0.808 3.837-4.558 5.858-7.621 5.858-2.229 0-4.578-0.938-6.133-2.444-1.6-1.576-2.596-3.76-2.612-6.177l-0-0.003c0-2.323 1.044-4.646 2.563-6.174s3.813-2.383 6.093-2.383c2.612 0 4.484 1.387 5.184 2.019l3.918-3.898c-1.149-1.010-4.307-3.555-9.228-3.555v0c-3.797 0-7.438 1.454-10.099 4.107-2.626 2.612-3.986 6.389-3.986 9.893s1.286 7.093 3.831 9.725c2.719 2.807 6.571 4.275 10.536 4.275 3.608 0 7.028-1.414 9.466-3.979 2.396-2.525 3.636-6.019 3.636-9.681 0-1.542-0.155-2.457-0.162-2.497z"></path>
</svg>
