<!-- Generated by IcoMoon.io -->
<svg version="1.1" xmlns="http://www.w3.org/2000/svg" width="40" height="40" viewBox="0 0 40 40">
<title>io-logo-instagram</title>
<path fill="#37352f" d="M25.833 8.333c3.218 0.010 5.824 2.616 5.834 5.833v11.667c-0.010 3.218-2.616 5.824-5.833 5.834h-11.667c-3.218-0.010-5.824-2.616-5.834-5.833v-11.667c0.010-3.218 2.616-5.824 5.833-5.834h11.667zM25.833 6h-11.666c-4.492 0-8.167 3.675-8.167 8.167v11.666c0 4.492 3.675 8.167 8.167 8.167h11.666c4.492 0 8.167-3.675 8.167-8.167v-11.666c0-4.492-3.675-8.167-8.167-8.167z"></path>
<path fill="#37352f" d="M27.583 14.167c-0.966 0-1.75-0.784-1.75-1.75s0.784-1.75 1.75-1.75c0.966 0 1.75 0.784 1.75 1.75v0c0 0.001 0 0.002 0 0.004 0 0.964-0.782 1.746-1.746 1.746-0.001 0-0.003 0-0.004 0h0z"></path>
<path fill="#37352f" d="M20 15.333c2.577 0 4.667 2.089 4.667 4.667s-2.089 4.667-4.667 4.667c-2.577 0-4.667-2.089-4.667-4.667v0c0.003-2.576 2.091-4.664 4.667-4.667h0zM20 13c-3.866 0-7 3.134-7 7s3.134 7 7 7c3.866 0 7-3.134 7-7v0c0-3.866-3.134-7-7-7v0z"></path>
</svg>
