<!-- Generated by IcoMoon.io -->
<svg version="1.1" xmlns="http://www.w3.org/2000/svg" width="40" height="40" viewBox="0 0 40 40">
<title>io-logo-github</title>
<path fill="#37352f" d="M20 6c-7.731 0-14 6.431-14 14.356 0 6.344 4.013 11.719 9.575 13.619 0.070 0.016 0.15 0.025 0.233 0.025 0.002 0 0.003 0 0.005 0h-0c0.519 0 0.719-0.381 0.719-0.712 0-0.344-0.012-1.244-0.019-2.444-0.423 0.104-0.91 0.165-1.41 0.169l-0.003 0c-2.694 0-3.306-2.094-3.306-2.094-0.637-1.656-1.556-2.1-1.556-2.1-1.219-0.856-0.006-0.881 0.088-0.881h0.006c1.406 0.125 2.144 1.488 2.144 1.488 0.7 1.225 1.638 1.569 2.475 1.569 0.583-0.012 1.132-0.149 1.624-0.385l-0.024 0.010c0.125-0.925 0.487-1.556 0.887-1.919-3.106-0.363-6.375-1.594-6.375-7.094 0-1.569 0.544-2.85 1.438-3.85-0.144-0.362-0.625-1.825 0.137-3.8 0.081-0.020 0.175-0.032 0.271-0.032 0.015 0 0.029 0 0.043 0.001l-0.002-0c0.506 0 1.65 0.194 3.538 1.506 1.051-0.306 2.258-0.481 3.506-0.481s2.455 0.176 3.598 0.504l-0.092-0.023c1.887-1.313 3.031-1.506 3.537-1.506 0.012-0 0.027-0.001 0.041-0.001 0.096 0 0.19 0.012 0.279 0.034l-0.008-0.002c0.762 1.975 0.281 3.438 0.137 3.8 0.894 1.006 1.437 2.287 1.437 3.85 0 5.513-3.275 6.725-6.394 7.081 0.5 0.444 0.95 1.319 0.95 2.656 0 1.919-0.019 3.469-0.019 3.937 0 0.337 0.194 0.719 0.712 0.719 0.002 0 0.003 0 0.005 0 0.087 0 0.171-0.009 0.253-0.026l-0.008 0.001c5.569-1.9 9.575-7.281 9.575-13.619 0-7.925-6.269-14.356-14-14.356z"></path>
</svg>
