<!-- Generated by IcoMoon.io -->
<svg version="1.1" xmlns="http://www.w3.org/2000/svg" width="40" height="40" viewBox="0 0 40 40">
<title>io-logo-android</title>
<path fill="#37352f" d="M27.807 16.438l2.654-4.598c0.045-0.077 0.072-0.17 0.072-0.269 0-0.198-0.106-0.37-0.265-0.464l-0.003-0.001c-0.077-0.046-0.17-0.073-0.27-0.073-0.197 0-0.369 0.107-0.461 0.266l-0.001 0.003-2.687 4.657c-2.052-0.938-4.361-1.459-6.845-1.459s-4.793 0.522-6.845 1.459l-2.688-4.657c-0.095-0.161-0.268-0.268-0.465-0.268-0.297 0-0.538 0.241-0.538 0.538 0 0.099 0.027 0.193 0.074 0.272l-0.001-0.003 2.648 4.598c-4.575 2.477-7.676 7.111-8.188 12.534h32c-0.512-5.424-3.613-10.057-8.193-12.534zM12.653 24.478c-0.741 0-1.341-0.601-1.341-1.341s0.601-1.341 1.341-1.341c0.741 0 1.341 0.601 1.341 1.341v0c-0 0.741-0.601 1.341-1.341 1.341h-0zM27.341 24.478c-0.738-0.003-1.336-0.602-1.336-1.341 0-0.741 0.601-1.341 1.341-1.341s1.341 0.601 1.341 1.341v0c-0 0.741-0.601 1.341-1.342 1.341-0.001 0-0.002 0-0.003 0h0z"></path>
</svg>
