<!-- Generated by IcoMoon.io -->
<svg version="1.1" xmlns="http://www.w3.org/2000/svg" width="40" height="40" viewBox="0 0 40 40">
<title>io-mic-off</title>
<path fill="none" stroke-linejoin="miter" stroke-linecap="round" stroke-miterlimit="10" stroke-width="2.5" stroke="#37352f" d="M31 29l-21-21"></path>
<path fill="#37352f" d="M29 19v-1.972c0-0.538-0.414-1-0.952-1.027-0.014-0.001-0.031-0.001-0.048-0.001-0.552 0-1 0.448-1 1v0 2c0 0.001 0 0.002 0 0.004 0 0.539-0.061 1.063-0.177 1.567l0.009-0.047c-0.002 0.008-0.003 0.017-0.003 0.027 0 0.034 0.014 0.065 0.036 0.088v0l1.412 1.412c0.023 0.023 0.054 0.037 0.088 0.037 0.053 0 0.099-0.034 0.117-0.081l0-0.001c0.327-0.893 0.517-1.923 0.517-2.998 0-0.003 0-0.005 0-0.008v0z"></path>
<path fill="#37352f" d="M20 26c-3.861-0.013-6.987-3.139-7-6.999v-1.973c0-0.538-0.414-1-0.952-1.027-0.014-0.001-0.031-0.001-0.048-0.001-0.552 0-1 0.448-1 1v0 2c0 4.625 3.506 8.445 8 8.944v3.056h-2.972c-0.538 0-1 0.414-1.027 0.952-0.001 0.014-0.001 0.031-0.001 0.048 0 0.552 0.448 1 1 1h7.972c0.538 0 1-0.414 1.027-0.952 0.001-0.014 0.001-0.031 0.001-0.048 0-0.552-0.448-1-1-1h-3v-3.056c1.21-0.138 2.31-0.497 3.297-1.037l-0.047 0.023c0.078-0.043 0.131-0.125 0.131-0.22 0-0.069-0.028-0.132-0.074-0.177v0l-1.15-1.149c-0.034-0.034-0.081-0.055-0.132-0.055-0.029 0-0.057 0.007-0.082 0.019l0.001-0.001c-0.86 0.411-1.87 0.652-2.936 0.652-0.003 0-0.005 0-0.008 0h0z"></path>
<path fill="#37352f" d="M20.071 7c-0.027-0.001-0.059-0.001-0.091-0.001-1.75 0-3.288 0.902-4.176 2.267l-0.012 0.019c-0.025 0.038-0.040 0.085-0.040 0.135 0 0.069 0.028 0.132 0.074 0.177v0l8.961 8.964c0.023 0.022 0.054 0.036 0.088 0.036 0.069 0 0.125-0.056 0.125-0.125 0-0 0-0 0-0v0-6.417c0-2.744-2.188-5.019-4.929-5.057z"></path>
<path fill="#37352f" d="M15.213 17.438c-0.023-0.022-0.054-0.036-0.088-0.036-0.069 0-0.125 0.056-0.125 0.125 0 0 0 0 0 0v0 1.411c0.001 1.387 0.561 2.644 1.466 3.557l-0-0c0.895 0.929 2.149 1.506 3.539 1.506 0.471 0 0.927-0.066 1.359-0.19l-0.035 0.009c0.053-0.015 0.091-0.063 0.091-0.12 0-0.035-0.014-0.066-0.037-0.089v0z"></path>
</svg>
