<!-- Generated by IcoMoon.io -->
<svg version="1.1" xmlns="http://www.w3.org/2000/svg" width="40" height="40" viewBox="0 0 40 40">
<title>io-musical-notes</title>
<path fill="#37352f" d="M30.365 6.336c-0.27-0.21-0.613-0.336-0.986-0.336-0.152 0-0.298 0.021-0.437 0.060l0.011-0.003-12.457 3.349c-0.868 0.239-1.495 1.021-1.495 1.95 0 0.007 0 0.014 0 0.021v-0.001 14.125c0 0.421-0.272 0.785-0.694 0.927l-0.008 0.003-3.25 1.125c-1.243 0.416-2.048 1.57-2.048 2.939-0 0.008-0 0.018-0 0.028 0 1.159 0.568 2.186 1.442 2.816l0.010 0.007c0.556 0.407 1.252 0.653 2.007 0.654h0c0.397-0.001 0.779-0.068 1.134-0.191l-0.025 0.007 0.024-0.008 1.365-0.496c1.192-0.407 2.035-1.513 2.043-2.817v-13.251c0-0.456 0.298-0.826 0.76-0.942l0.013-0.004 10.914-2.915c0.019-0.005 0.040-0.008 0.063-0.008 0.138 0 0.25 0.111 0.25 0.249v8.871c0 0.422-0.266 0.774-0.694 0.918l-0.016 0.006-3.181 1.132c-1.235 0.415-2.11 1.563-2.11 2.915 0 0.011 0 0.021 0 0.031v-0.002c-0 0.010-0 0.023-0 0.035 0 1.161 0.568 2.189 1.442 2.821l0.010 0.007c0.554 0.405 1.249 0.647 2 0.647 0.4 0 0.784-0.069 1.141-0.195l-0.024 0.007 0.023-0.008 1.365-0.497c1.192-0.406 2.035-1.512 2.043-2.817v-19.871c0-0.003 0-0.006 0-0.009 0-0.521-0.247-0.984-0.631-1.278l-0.004-0.003z"></path>
</svg>
