<!-- Generated by IcoMoon.io -->
<svg version="1.1" xmlns="http://www.w3.org/2000/svg" width="40" height="40" viewBox="0 0 40 40">
<title>io-medal-outline</title>
<path fill="none" stroke-linejoin="round" stroke-linecap="round" stroke-miterlimit="4" stroke-width="2.5" stroke="#37352f" d="M27 26c0 3.866-3.134 7-7 7s-7-3.134-7-7c0-3.866 3.134-7 7-7s7 3.134 7 7z"></path>
<path fill="none" stroke-linejoin="round" stroke-linecap="round" stroke-miterlimit="4" stroke-width="2.5" stroke="#37352f" d="M23 26c0 1.657-1.343 3-3 3s-3-1.343-3-3c0-1.657 1.343-3 3-3s3 1.343 3 3z"></path>
<path fill="none" stroke-linejoin="round" stroke-linecap="round" stroke-miterlimit="4" stroke-width="2.5" stroke="#37352f" d="M13.188 24.188l-6.572-10.23c-0.199-0.306-0.317-0.68-0.317-1.081 0-0.326 0.078-0.634 0.216-0.906l-0.005 0.011 1.938-3.875c0.335-0.661 1.010-1.107 1.789-1.107 0 0 0 0 0.001 0h19.527c0.779 0 1.453 0.445 1.784 1.094l0.005 0.011 1.938 3.875c0.133 0.261 0.211 0.568 0.211 0.894 0 0.402-0.118 0.776-0.322 1.089l0.005-0.008-6.571 10.231"></path>
<path fill="none" stroke-linejoin="round" stroke-linecap="round" stroke-miterlimit="4" stroke-width="2.5" stroke="#37352f" d="M27.188 13h-20.875"></path>
<path fill="none" stroke-linejoin="round" stroke-linecap="round" stroke-miterlimit="4" stroke-width="2.5" stroke="#37352f" d="M30.796 7.287l-7.734 12.338"></path>
<path fill="none" stroke-linejoin="round" stroke-linecap="round" stroke-miterlimit="4" stroke-width="2.5" stroke="#37352f" d="M12.784 13l4.153 6.625"></path>
</svg>
