<!-- Generated by IcoMoon.io -->
<svg version="1.1" xmlns="http://www.w3.org/2000/svg" width="40" height="40" viewBox="0 0 40 40">
<title>io-man</title>
<path fill="#37352f" d="M23.5 7.5c0 1.933-1.567 3.5-3.5 3.5s-3.5-1.567-3.5-3.5c0-1.933 1.567-3.5 3.5-3.5s3.5 1.567 3.5 3.5z"></path>
<path fill="#37352f" d="M23 12h-6c-2.206 0.007-3.993 1.794-4 3.999v6.721c0 0.678 0.527 1.255 1.204 1.279 0.014 0.001 0.030 0.001 0.046 0.001 0.69 0 1.25-0.56 1.25-1.25 0-0 0-0 0-0v0-6.233c-0-0.002-0-0.004-0-0.006 0-0.267 0.204-0.486 0.465-0.509l0.002-0c0.010-0.001 0.021-0.001 0.033-0.001 0.276 0 0.5 0.224 0.5 0.5 0 0 0 0.001 0 0.001v-0 18.061c0 0.794 0.644 1.438 1.438 1.438v0 0c0.794 0 1.438-0.644 1.438-1.438v0-8.916c-0-0.003-0-0.006-0-0.009 0-0.333 0.255-0.607 0.581-0.637l0.003-0c0.013-0.001 0.027-0.001 0.042-0.001 0.345 0 0.625 0.28 0.625 0.625 0 0.001 0 0.001 0 0.001v-0 8.938c0 0.794 0.644 1.438 1.438 1.438v0 0c0.794 0 1.438-0.644 1.438-1.438v0-18.046c-0-0.002-0-0.004-0-0.006 0-0.267 0.204-0.486 0.465-0.509l0.002-0c0.010-0.001 0.021-0.001 0.033-0.001 0.276 0 0.5 0.224 0.5 0.5 0 0 0 0.001 0 0.001v-0 6.22c0 0.678 0.527 1.255 1.204 1.279 0.014 0.001 0.030 0.001 0.046 0.001 0.69 0 1.25-0.56 1.25-1.25 0-0.001 0-0.001 0-0.002v0-6.75c-0.007-2.206-1.794-3.993-3.999-4h-0.001z"></path>
</svg>
