<!-- Generated by IcoMoon.io -->
<svg version="1.1" xmlns="http://www.w3.org/2000/svg" width="40" height="40" viewBox="0 0 40 40">
<title>io-male</title>
<path fill="#37352f" d="M31.625 7h-5.625c-0.759 0-1.375 0.616-1.375 1.375s0.616 1.375 1.375 1.375v0h2.306l-3.774 3.774c-4.262-3.304-10.438-3-14.346 0.911v0c-4.24 4.241-4.24 11.139 0.003 15.377 1.969 1.963 4.687 3.177 7.688 3.177s5.718-1.214 7.688-3.178l-0 0c3.911-3.911 4.214-10.084 0.911-14.346l3.777-3.772v2.306c0 0.759 0.616 1.375 1.375 1.375s1.375-0.616 1.375-1.375v0-5.625c0-0.759-0.616-1.375-1.375-1.375v0zM23.62 27.87c-1.471 1.468-3.502 2.376-5.745 2.376s-4.274-0.908-5.745-2.376l0 0c-3.168-3.168-3.168-8.323 0-11.49s8.322-3.168 11.49 0 3.168 8.323 0 11.49z"></path>
</svg>
