<!-- Generated by IcoMoon.io -->
<svg version="1.1" xmlns="http://www.w3.org/2000/svg" width="40" height="40" viewBox="0 0 40 40">
<title>io-man-outline</title>
<path fill="none" stroke-linejoin="miter" stroke-linecap="round" stroke-miterlimit="10" stroke-width="2.5" stroke="#37352f" d="M17 17v16.5c-0 0.005-0 0.011-0 0.017 0 0.819 0.664 1.483 1.483 1.483 0.006 0 0.012-0 0.018-0h-0.001c0.005 0 0.011 0 0.017 0 0.819 0 1.483-0.664 1.483-1.483 0-0.006-0-0.012-0-0.018v0.001"></path>
<path fill="none" stroke-linejoin="miter" stroke-linecap="round" stroke-miterlimit="10" stroke-width="2.5" stroke="#37352f" d="M20 25v8.5c-0 0.005-0 0.011-0 0.017 0 0.819 0.664 1.483 1.483 1.483 0.006 0 0.012-0 0.018-0h-0.001c0.005 0 0.011 0 0.017 0 0.819 0 1.483-0.664 1.483-1.483 0-0.006-0-0.012-0-0.018v0.001-16.5"></path>
<path fill="none" stroke-linejoin="miter" stroke-linecap="round" stroke-miterlimit="10" stroke-width="2.5" stroke="#37352f" d="M17 16v5.5c0 0.005 0 0.011 0 0.018 0 0.819-0.664 1.482-1.483 1.482-0.006 0-0.012-0-0.019-0h0.001c-0.005 0-0.011 0-0.018 0-0.819 0-1.482-0.664-1.482-1.482 0-0.006 0-0.012 0-0.019v0.001-5.5c0-1.657 1.343-3 3-3v0h6c1.657 0 3 1.343 3 3v0 5.5c0 0.005 0 0.011 0 0.018 0 0.819-0.664 1.482-1.483 1.482-0.006 0-0.012-0-0.019-0h0.001c-0.005 0-0.011 0-0.018 0-0.819 0-1.482-0.664-1.482-1.483 0-0.006 0-0.012 0-0.019v0.001-5.5"></path>
<path fill="none" stroke-linejoin="miter" stroke-linecap="round" stroke-miterlimit="10" stroke-width="2.5" stroke="#37352f" d="M22.5 7.5c0 1.381-1.119 2.5-2.5 2.5s-2.5-1.119-2.5-2.5c0-1.381 1.119-2.5 2.5-2.5s2.5 1.119 2.5 2.5z"></path>
</svg>
