<!-- Generated by IcoMoon.io -->
<svg version="1.1" xmlns="http://www.w3.org/2000/svg" width="40" height="40" viewBox="0 0 40 40">
<title>io-notifications-off-sharp</title>
<path fill="#37352f" d="M6.586 8l1.414-1.414 25.414 25.414-1.414 1.414-25.414-25.414z"></path>
<path fill="#37352f" d="M20 34c2.037-0.002 3.789-1.221 4.569-2.968l0.013-0.032h-9.163c0.792 1.779 2.544 2.998 4.581 3h0z"></path>
<path fill="#37352f" d="M11 18.217v3.783l-3 4v3h16.758l-13.516-13.516c-0.154 0.801-0.242 1.723-0.242 2.665 0 0.024 0 0.047 0 0.071v-0.004z"></path>
<path fill="#37352f" d="M32 26l-3-4v-3.783c0-4.404-1.71-8.241-6-9.217l-0.5-3h-5l-0.5 3c-0.996 0.22-1.875 0.614-2.646 1.151l0.024-0.016 17.625 17.625z"></path>
</svg>
