<!-- Generated by IcoMoon.io -->
<svg version="1.1" xmlns="http://www.w3.org/2000/svg" width="40" height="40" viewBox="0 0 40 40">
<title>io-notifications-off-circle-sharp</title>
<path fill="#37352f" d="M20 7c-7.168 0-13 5.832-13 13s5.832 13 13 13 13-5.832 13-13-5.832-13-13-13zM13 23.25l1.75-2.25v-2.019c-0-0.013-0-0.028-0-0.043 0-0.547 0.053-1.081 0.155-1.598l-0.009 0.052 6.974 7.607h-8.87zM20.011 28c-1.411 0-2.511-0.641-2.511-2h5c-0.019 1.336-1.091 2-2.489 2zM25.854 27.766l-13.188-14.187 1.48-1.345 13.187 14.188zM27 24.678l-0.020-0.024-9.719-10.602c0.283-0.138 0.613-0.255 0.958-0.332l0.031-0.006 0.25-1.714h3l0.25 1.714c2.5 0.558 3.5 2.75 3.5 5.267v2.019l1.75 2.25z"></path>
</svg>
