<!-- Generated by IcoMoon.io -->
<svg version="1.1" xmlns="http://www.w3.org/2000/svg" width="40" height="40" viewBox="0 0 40 40">
<title>io-newspaper-sharp</title>
<path fill="#37352f" d="M33.25 11h-3.25v19c0 1.105 0.895 2 2 2v0 0c1.105 0 2-0.895 2-2v0-18.25c0-0.414-0.336-0.75-0.75-0.75v0z"></path>
<path fill="#37352f" d="M30.947 33.859c-1.711-0.481-2.945-2.026-2.947-3.859v-23.25c0-0.414-0.336-0.75-0.75-0.75v0h-20.5c-0.414 0-0.75 0.336-0.75 0.75v0 23.75c0 1.933 1.567 3.5 3.5 3.5v0h21.428c0.001 0 0.002 0 0.003 0 0.039 0 0.071-0.032 0.071-0.071 0-0.034-0.023-0.062-0.055-0.069l-0-0zM10 17v-6h6v6zM24 29h-14v-2h14zM24 25h-14v-2h14zM24 21h-14v-2h14zM24 17h-6v-2h6zM24 13h-6v-2h6z"></path>
</svg>
