<!-- Generated by IcoMoon.io -->
<svg version="1.1" xmlns="http://www.w3.org/2000/svg" width="40" height="40" viewBox="0 0 40 40">
<title>io-notifications-circle-outline</title>
<path fill="none" stroke-linejoin="miter" stroke-linecap="butt" stroke-miterlimit="10" stroke-width="2.5" stroke="#37352f" d="M32 20c0-6.625-5.375-12-12-12s-12 5.375-12 12 5.375 12 12 12 12-5.375 12-12z"></path>
<path fill="#37352f" d="M26.825 23.563c-1.021-1.209-1.741-1.717-1.741-5.050 0-3.054-1.611-4.139-2.938-4.667-0.185-0.079-0.327-0.228-0.395-0.413l-0.002-0.005c-0.232-0.766-0.883-1.428-1.75-1.428s-1.519 0.662-1.75 1.429c-0.069 0.19-0.211 0.339-0.391 0.416l-0.005 0.002c-1.328 0.529-2.938 1.613-2.938 4.667 0 3.333-0.721 3.841-1.742 5.050-0.423 0.5-0.041 1.437 0.699 1.437h12.251c0.736-0.001 1.121-0.938 0.7-1.438z"></path>
<path fill="#37352f" d="M17.765 26c-0 0-0.001 0-0.001 0-0.138 0-0.25 0.112-0.25 0.25 0 0.009 0.001 0.018 0.001 0.027l-0-0.001c0.141 1.17 1.179 1.724 2.485 1.724 1.292 0 2.321-0.572 2.479-1.72 0.001-0.009 0.002-0.019 0.002-0.030 0-0.138-0.112-0.25-0.25-0.25-0.001 0-0.001 0-0.002 0h0z"></path>
</svg>
