<!-- Generated by IcoMoon.io -->
<svg version="1.1" xmlns="http://www.w3.org/2000/svg" width="40" height="40" viewBox="0 0 40 40">
<title>io-options</title>
<path fill="#37352f" d="M8 13h14.172c0.425 1.175 1.53 1.999 2.828 1.999s2.404-0.824 2.821-1.978l0.007-0.021h4.172c0.552 0 1-0.448 1-1s-0.448-1-1-1v0h-4.172c-0.425-1.175-1.53-1.999-2.828-1.999s-2.404 0.824-2.821 1.978l-0.007 0.021h-14.172c-0.552 0-1 0.448-1 1s0.448 1 1 1v0z"></path>
<path fill="#37352f" d="M32 27h-4.172c-0.425-1.175-1.53-1.999-2.828-1.999s-2.404 0.824-2.821 1.978l-0.007 0.021h-14.172c-0.552 0-1 0.448-1 1s0.448 1 1 1v0h14.172c0.425 1.175 1.53 1.999 2.828 1.999s2.404-0.824 2.821-1.978l0.007-0.021h4.172c0.552 0 1-0.448 1-1s-0.448-1-1-1v0z"></path>
<path fill="#37352f" d="M32 19h-14.172c-0.425-1.175-1.53-1.999-2.828-1.999s-2.404 0.824-2.821 1.978l-0.007 0.021h-4.172c-0.552 0-1 0.448-1 1s0.448 1 1 1v0h4.172c0.425 1.175 1.53 1.999 2.828 1.999s2.404-0.824 2.821-1.978l0.007-0.021h14.172c0.552 0 1-0.448 1-1s-0.448-1-1-1v0z"></path>
</svg>
