<!-- Generated by IcoMoon.io -->
<svg version="1.1" xmlns="http://www.w3.org/2000/svg" width="40" height="40" viewBox="0 0 40 40">
<title>io-open</title>
<path fill="#37352f" d="M18 23c-0.552-0-1-0.448-1-1 0-0.276 0.112-0.526 0.293-0.707l9.871-9.871c-0.48-0.266-1.052-0.422-1.661-0.422-0.001 0-0.002 0-0.003 0h-15c-1.932 0.002-3.498 1.568-3.5 3.5v15c0.002 1.932 1.568 3.498 3.5 3.5h15c1.932-0.002 3.498-1.568 3.5-3.5v-15c0-0.001 0-0.002 0-0.003 0-0.609-0.156-1.181-0.431-1.679l0.009 0.018-9.871 9.871c-0.18 0.181-0.43 0.293-0.705 0.293-0.001 0-0.001 0-0.002 0h0z"></path>
<path fill="#37352f" d="M32 7h-7c-0.552 0-1 0.448-1 1s0.448 1 1 1v0h4.586l-2.421 2.422c0.601 0.331 1.083 0.813 1.405 1.396l0.009 0.018 2.422-2.421v4.586c0 0.552 0.448 1 1 1s1-0.448 1-1v0-7c0-0.552-0.448-1-1-1v0z"></path>
</svg>
