<!-- Generated by IcoMoon.io -->
<svg version="1.1" xmlns="http://www.w3.org/2000/svg" width="40" height="40" viewBox="0 0 40 40">
<title>io-person-circle</title>
<path fill="#37352f" d="M20 7c-7.168 0-13 5.832-13 13s5.832 13 13 13 13-5.832 13-13-5.832-13-13-13zM16.861 14.301c0.792-0.839 1.906-1.301 3.139-1.301s2.337 0.465 3.132 1.309c0.806 0.855 1.197 2.004 1.105 3.239-0.185 2.453-2.085 4.453-4.237 4.453s-4.056-2-4.237-4.453c-0.092-1.245 0.299-2.397 1.098-3.246zM20 31c-0.002 0-0.005 0-0.007 0-3.085 0-5.872-1.274-7.865-3.324l-0.002-0.003c0.592-0.838 1.323-1.534 2.165-2.071l0.031-0.019c1.593-1.021 3.609-1.584 5.679-1.584s4.086 0.563 5.677 1.584c0.874 0.555 1.605 1.252 2.182 2.066l0.016 0.024c-1.995 2.053-4.782 3.326-7.867 3.326-0.003 0-0.006 0-0.009 0h0z"></path>
</svg>
