<!-- Generated by IcoMoon.io -->
<svg version="1.1" xmlns="http://www.w3.org/2000/svg" width="40" height="40" viewBox="0 0 40 40">
<title>io-power</title>
<path fill="#37352f" d="M20 33c-7.168 0-13-5.842-13-13.022 0-3.903 1.703-7.563 4.672-10.034 0.237-0.2 0.546-0.321 0.883-0.321 0.759 0 1.375 0.616 1.375 1.375 0 0.425-0.193 0.804-0.495 1.057l-0.002 0.002c-2.341 1.95-3.683 4.838-3.683 7.922 0 5.664 4.598 10.272 10.25 10.272s10.25-4.608 10.25-10.272c-0-3.18-1.449-6.022-3.722-7.902l-0.017-0.014c-0.323-0.254-0.529-0.645-0.529-1.084 0-0.759 0.616-1.375 1.375-1.375 0.347 0 0.664 0.128 0.905 0.34l-0.002-0.001c2.903 2.401 4.739 6.003 4.739 10.034 0 0 0 0.001 0 0.001v-0c0 7.18-5.832 13.022-13 13.022z"></path>
<path fill="#37352f" d="M20 21c-0.759 0-1.375-0.616-1.375-1.375v0-11.25c0-0.759 0.616-1.375 1.375-1.375s1.375 0.616 1.375 1.375v0 11.25c0 0.759-0.616 1.375-1.375 1.375v0z"></path>
</svg>
