<!-- Generated by IcoMoon.io -->
<svg version="1.1" xmlns="http://www.w3.org/2000/svg" width="40" height="40" viewBox="0 0 40 40">
<title>io-people-circle</title>
<path fill="#37352f" d="M20.181 7c-7.311-0.099-13.28 5.87-13.181 13.181 0.098 7.012 5.807 12.721 12.819 12.819 7.312 0.1 13.28-5.869 13.18-13.18-0.096-7.013-5.806-12.723-12.817-12.82zM19.951 16.507c0.013-0.075 0.027-0.15 0.044-0.224 0.168-0.761 0.526-1.422 1.020-1.953l-0.002 0.002c0.806-0.858 1.947-1.332 3.216-1.332 0.006-0 0.012-0 0.019-0 0.555 0 1.087 0.098 1.579 0.276l-0.032-0.010c0.648 0.235 1.198 0.602 1.64 1.073l0.002 0.002c0.645 0.695 1.061 1.611 1.124 2.621l0.001 0.012c0.008 0.107 0.013 0.231 0.013 0.356s-0.005 0.25-0.014 0.373l0.001-0.016c-0.052 0.713-0.236 1.372-0.527 1.969l0.014-0.032q-0.047 0.099-0.099 0.197c-0.069 0.129-0.144 0.256-0.224 0.379-0.169 0.258-0.347 0.482-0.542 0.69l0.002-0.003c-0.82 0.875-1.87 1.358-2.957 1.358-0.429-0-0.841-0.073-1.224-0.207l0.026 0.008c-0.157-0.053-0.283-0.105-0.406-0.162l0.024 0.010c-0.539-0.255-0.996-0.593-1.377-1.005l-0.003-0.003c-0.784-0.848-1.291-1.962-1.374-3.192l-0.001-0.016q-0.017-0.242-0.011-0.48c0.005-0.249 0.029-0.488 0.070-0.721l-0.004 0.028zM10.593 18.028c0.033-0.474 0.15-0.913 0.335-1.313l-0.010 0.023c0.061-0.134 0.119-0.242 0.183-0.347l-0.009 0.016c0.135-0.226 0.284-0.422 0.451-0.599l-0.002 0.002c0.249-0.266 0.538-0.491 0.857-0.667l0.018-0.009c0.141-0.079 0.309-0.156 0.482-0.22l0.025-0.008c0.392-0.142 0.845-0.224 1.318-0.224 0.271 0 0.536 0.027 0.792 0.079l-0.026-0.004c0.765 0.151 1.424 0.53 1.922 1.061l0.002 0.002c0.587 0.633 0.951 1.48 0.963 2.411l0 0.002c0.003 0.132 0 0.264-0.009 0.399-0.042 0.548-0.176 1.054-0.386 1.518l0.011-0.028c-0.112 0.251-0.232 0.465-0.368 0.667l0.010-0.015c-0.271 0.405-0.597 0.748-0.974 1.028l-0.011 0.008c-0.094 0.067-0.191 0.129-0.292 0.192-0.179 0.108-0.385 0.207-0.601 0.283l-0.024 0.007c-0.302 0.109-0.65 0.172-1.012 0.173h-0c-0.058 0-0.116 0-0.174-0.005-0.127-0.007-0.245-0.021-0.36-0.041l0.018 0.003c-0.134-0.023-0.247-0.050-0.357-0.083l0.023 0.006c-0.189-0.055-0.349-0.116-0.503-0.189l0.020 0.009c-0.052-0.024-0.104-0.050-0.155-0.077-1.125-0.593-1.973-1.822-2.139-3.258-0.008-0.066-0.014-0.131-0.018-0.198-0.007-0.087-0.010-0.189-0.010-0.292 0-0.109 0.004-0.217 0.012-0.324l-0.001 0.014zM13.963 29.191c-1.658-1.104-2.976-2.596-3.842-4.351l-0.029-0.065c-0.016-0.032-0.026-0.071-0.026-0.111 0-0.093 0.051-0.174 0.126-0.217l0.001-0.001c1.161-0.653 2.644-1.009 4.046-1.009 1.063 0 1.919 0.125 2.668 0.367 0.201 0.068 0.344 0.255 0.344 0.475 0 0.155-0.070 0.293-0.181 0.385l-0.001 0.001c-1.459 1.188-2.4 2.659-2.842 4.422v0c-0.019 0.076-0.087 0.132-0.168 0.132-0.036 0-0.069-0.011-0.096-0.029l0.001 0zM20 31c-0.003 0-0.007 0-0.011 0-1.476 0-2.883-0.292-4.168-0.822l0.073 0.027c-0.091-0.039-0.155-0.127-0.155-0.231 0-0.017 0.002-0.033 0.005-0.049l-0 0.002c0.025-0.128 0.053-0.245 0.077-0.343 0.445-1.777 1.547-3.25 3.187-4.261 1.456-0.897 3.313-1.391 5.22-1.391 1.948 0 3.75 0.474 5.217 1.369v0c0.048 0.031 0.080 0.084 0.080 0.144 0 0.031-0.009 0.061-0.023 0.086l0-0.001c-1.941 3.291-5.468 5.466-9.502 5.469h-0.001z"></path>
<path fill="#37352f" d="M14.063 22.455c-0.127-0.007-0.245-0.021-0.36-0.041l0.018 0.003c0.097 0.018 0.215 0.032 0.335 0.038l0.008 0z"></path>
<path fill="#37352f" d="M12.415 15.133c-0.337 0.185-0.626 0.411-0.873 0.674l-0.002 0.002c-0.166 0.176-0.314 0.372-0.441 0.582l-0.009 0.015c0.135-0.226 0.284-0.422 0.451-0.599l-0.002 0.002c0.249-0.266 0.538-0.491 0.857-0.667l0.018-0.009z"></path>
<path fill="#37352f" d="M17.511 20.118c0.199-0.436 0.333-0.942 0.374-1.475l0.001-0.015c0.009-0.134 0.012-0.267 0.009-0.399q0.005 0.197-0.009 0.399c-0.042 0.548-0.176 1.054-0.386 1.518l0.011-0.028z"></path>
<path fill="#37352f" d="M12.415 15.133c0.141-0.079 0.309-0.156 0.482-0.22l0.025-0.008c-0.198 0.071-0.365 0.148-0.525 0.237l0.018-0.009z"></path>
<path fill="#37352f" d="M13.388 22.339c-0.189-0.055-0.349-0.116-0.503-0.189l0.020 0.009c0.133 0.064 0.293 0.126 0.459 0.175l0.024 0.006z"></path>
<path fill="#37352f" d="M10.611 18.824c0.166 1.437 1.016 2.664 2.139 3.258-1.126-0.593-1.973-1.822-2.139-3.258z"></path>
<path fill="#37352f" d="M19.896 17.688c0.084 1.246 0.591 2.359 1.378 3.211l-0.003-0.004c0.383 0.414 0.841 0.753 1.353 0.996l0.027 0.011c-0.539-0.255-0.996-0.593-1.377-1.005l-0.003-0.003c-0.784-0.848-1.291-1.962-1.374-3.192l-0.001-0.016q-0.017-0.243-0.011-0.48-0.006 0.234 0.011 0.48z"></path>
<path fill="#37352f" d="M23.031 22.051c-0.157-0.053-0.283-0.105-0.406-0.162l0.024 0.010c0.098 0.047 0.224 0.099 0.353 0.143l0.028 0.008z"></path>
<path fill="#37352f" d="M19.996 16.284c0.168-0.761 0.526-1.422 1.020-1.953l-0.002 0.002c-0.492 0.528-0.85 1.189-1.013 1.923l-0.005 0.028z"></path>
<path fill="#37352f" d="M27.438 14.341c0.645 0.695 1.061 1.611 1.124 2.621l0.001 0.012c-0.064-1.023-0.48-1.938-1.128-2.636l0.002 0.003c-0.444-0.473-0.994-0.84-1.613-1.066l-0.029-0.009c0.648 0.235 1.198 0.602 1.64 1.073l0.002 0.002z"></path>
<path fill="#37352f" d="M28.563 17.688v0c-0.052 0.713-0.236 1.372-0.527 1.969l0.014-0.032c0.277-0.565 0.46-1.224 0.511-1.92l0.001-0.018z"></path>
<path fill="#37352f" d="M19.885 17.204c0.005-0.25 0.029-0.49 0.070-0.725l-0.004 0.028c-0.037 0.206-0.061 0.446-0.066 0.691l-0 0.005z"></path>
<path fill="#37352f" d="M27.949 19.823c-0.069 0.129-0.144 0.256-0.224 0.379 0.080-0.122 0.154-0.249 0.224-0.379z"></path>
<path fill="#37352f" d="M16.93 15.816c0.587 0.633 0.951 1.48 0.963 2.411l0 0.002c-0.012-0.934-0.376-1.781-0.965-2.416l0.002 0.002c-0.5-0.533-1.159-0.911-1.901-1.059l-0.023-0.004c0.765 0.151 1.424 0.53 1.922 1.061l0.002 0.002z"></path>
<path fill="#37352f" d="M15.875 22c-0.179 0.108-0.385 0.207-0.601 0.283l-0.024 0.007c0.24-0.084 0.446-0.182 0.64-0.299l-0.015 0.009z"></path>
<path fill="#37352f" d="M10.593 18.028c0.033-0.474 0.15-0.913 0.335-1.313l-0.010 0.023c-0.175 0.377-0.292 0.816-0.324 1.278l-0.001 0.012z"></path>
<path fill="#37352f" d="M16.168 21.805c-0.094 0.070-0.192 0.133-0.293 0.195 0.101-0.063 0.198-0.125 0.293-0.195z"></path>
<path fill="#37352f" d="M17.511 20.118c-0.112 0.251-0.232 0.465-0.368 0.667l0.010-0.015c0.126-0.186 0.246-0.4 0.347-0.624l0.011-0.027z"></path>
<path fill="#37352f" d="M10.918 16.738c0.061-0.134 0.119-0.242 0.183-0.347l-0.009 0.016c-0.054 0.089-0.112 0.198-0.165 0.309l-0.009 0.022z"></path>
<path fill="#37352f" d="M16.168 21.805c0.388-0.287 0.714-0.63 0.976-1.021l0.009-0.015c-0.271 0.405-0.597 0.748-0.974 1.028l-0.011 0.008z"></path>
</svg>
