<!-- Generated by IcoMoon.io -->
<svg version="1.1" xmlns="http://www.w3.org/2000/svg" width="40" height="40" viewBox="0 0 40 40">
<title>io-planet-sharp</title>
<path fill="#37352f" d="M9.063 21.169c0.585 5.518 5.266 9.831 10.938 9.831 0.004 0 0.008 0 0.012 0 1.614 0 3.146-0.35 4.524-0.977l-0.069 0.028c-2.519-1.033-5.253-2.386-7.986-3.96-2.67-1.537-5.242-3.247-7.42-4.921z"></path>
<path fill="#37352f" d="M34.795 25.219c-0.531-0.707-1.25-1.488-2.125-2.313-0.19 0.82-0.426 1.529-0.719 2.208l0.032-0.083c1.795 1.844 2.075 2.834 2.011 3.028-0.125 0.139-1.066 0.431-3.634-0.221q-0.552-0.14-1.208-0.341-0.422-0.13-0.862-0.281v0c0.44-0.502 0.843-1.059 1.193-1.652l0.028-0.051c0.011-0.018 0.022-0.036 0.033-0.055 0.916-1.567 1.457-3.45 1.457-5.459v-0c0-0.002 0-0.005 0-0.007 0-0.416-0.023-0.826-0.067-1.23l0.004 0.050c-0.598-5.511-5.275-9.812-10.938-9.812-0.002 0-0.004 0-0.006 0-2.51 0-4.822 0.843-6.67 2.262l0.026-0.019c-1.154 0.884-2.11 1.96-2.836 3.188l-0.028 0.052c-0.010 0.018-0.021 0.036-0.032 0.054-0.318 0.542-0.61 1.172-0.841 1.831l-0.023 0.077q-0.349-0.304-0.674-0.604c-0.337-0.313-0.636-0.602-0.901-0.875-1.848-1.891-2.068-2.851-2.010-3.028 0.135-0.152 1.131-0.409 3.633 0.222 0.467-0.612 0.959-1.155 1.492-1.653l0.008-0.007c-1.179-0.351-2.237-0.584-3.128-0.687-1.921-0.22-3.178 0.158-3.737 1.126-0.202 0.349-0.397 0.943-0.17 1.787 0.336 1.254 1.532 2.775 3.225 4.369 0.539 0.508 1.129 1.023 1.758 1.54 0.457 0.375 0.937 0.754 1.431 1.13q0.494 0.375 1.009 0.75t1.044 0.736c1.588 1.101 3.266 2.157 4.912 3.106q0.896 0.516 1.79 1t1.773 0.926c1.369 0.688 2.709 1.308 3.991 1.839q0.824 0.343 1.613 0.635c0.743 0.276 1.461 0.519 2.144 0.724l0.069 0.021c1.608 0.479 2.964 0.731 4.030 0.75h0.109c1.352 0 2.269-0.399 2.724-1.188 0.568-0.976 0.255-2.27-0.929-3.844z"></path>
</svg>
