<!-- Generated by IcoMoon.io -->
<svg version="1.1" xmlns="http://www.w3.org/2000/svg" width="40" height="40" viewBox="0 0 40 40">
<title>io-play-back-circle</title>
<path fill="#37352f" d="M7 20c0 7.168 5.832 13 13 13s13-5.832 13-13-5.832-13-13-13-13 5.832-13 13zM11.327 19.419l7.153-4.321c0.099-0.060 0.218-0.096 0.346-0.096 0.372 0 0.674 0.302 0.674 0.674 0 0.001 0 0.003 0 0.004v-0 3.332l6.48-3.914c0.099-0.060 0.218-0.096 0.346-0.096 0.372 0 0.674 0.302 0.674 0.674 0 0.001 0 0.003 0 0.004v-0 8.641c0 0.001 0 0.003 0 0.004 0 0.372-0.302 0.674-0.674 0.674-0.128 0-0.247-0.036-0.349-0.097l0.003 0.002-6.48-3.914v3.332c0 0.001 0 0.003 0 0.004 0 0.372-0.302 0.674-0.674 0.674-0.128 0-0.247-0.036-0.349-0.097l0.003 0.002-7.153-4.321c-0.197-0.122-0.326-0.336-0.326-0.581s0.129-0.46 0.324-0.58l0.003-0.002z"></path>
</svg>
