<!-- Generated by IcoMoon.io -->
<svg version="1.1" xmlns="http://www.w3.org/2000/svg" width="40" height="40" viewBox="0 0 40 40">
<title>io-people-sharp</title>
<path fill="#37352f" d="M18 15.5c0 2.485-2.015 4.5-4.5 4.5s-4.5-2.015-4.5-4.5c0-2.485 2.015-4.5 4.5-4.5s4.5 2.015 4.5 4.5z"></path>
<path fill="#37352f" d="M18.625 22.5c-1.76-0.894-3.702-1.25-5.125-1.25-2.786 0-8.5 1.709-8.5 5.125v2.625h9.375v-1.004c0-1.188 0.5-2.378 1.375-3.371 0.698-0.793 1.676-1.528 2.875-2.125z"></path>
<path fill="#37352f" d="M25.25 22c-3.254 0-9.75 2.010-9.75 6v3h19.5v-3c0-3.99-6.496-6-9.75-6z"></path>
<path fill="#37352f" d="M30.75 14.5c0 3.038-2.462 5.5-5.5 5.5s-5.5-2.462-5.5-5.5c0-3.038 2.462-5.5 5.5-5.5s5.5 2.462 5.5 5.5z"></path>
</svg>
