<!-- Generated by IcoMoon.io -->
<svg version="1.1" xmlns="http://www.w3.org/2000/svg" width="40" height="40" viewBox="0 0 40 40">
<title>io-print-sharp</title>
<path fill="#37352f" d="M29 10v-2.5c0-0.276-0.224-0.5-0.5-0.5v0h-17c-0.276 0-0.5 0.224-0.5 0.5v0 2.5z"></path>
<path fill="#37352f" d="M29.5 11h-19c-1.933 0-3.5 1.567-3.5 3.5v0 13c0 0.276 0.224 0.5 0.5 0.5v0h3.5v4.5c0 0.276 0.224 0.5 0.5 0.5v0h17c0.276 0 0.5-0.224 0.5-0.5v0-4.5h3.5c0.276 0 0.5-0.224 0.5-0.5v0-13c0-1.933-1.567-3.5-3.5-3.5v0zM26.5 30.25c0 0.138-0.112 0.25-0.25 0.25v0h-12.5c-0.138 0-0.25-0.112-0.25-0.25v0-9.5c0-0.138 0.112-0.25 0.25-0.25v0h12.5c0.138 0 0.25 0.112 0.25 0.25v0zM28.625 16.995c-0.036 0.003-0.078 0.005-0.12 0.005-0.828 0-1.5-0.672-1.5-1.5s0.672-1.5 1.5-1.5c0.828 0 1.5 0.672 1.5 1.5 0 0.042-0.002 0.084-0.005 0.126l0-0.005c-0.061 0.734-0.641 1.314-1.37 1.375l-0.005 0z"></path>
</svg>
