<!-- Generated by IcoMoon.io -->
<svg version="1.1" xmlns="http://www.w3.org/2000/svg" width="40" height="40" viewBox="0 0 40 40">
<title>io-pulse</title>
<path fill="#37352f" d="M31 21c-1.298 0.002-2.402 0.826-2.821 1.979l-0.007 0.021h-2.451l-1.772-5.316c-0.137-0.401-0.51-0.684-0.949-0.684-0.454 0-0.838 0.303-0.96 0.718l-0.002 0.007-2.782 9.735-3.271-19.625c-0.082-0.477-0.492-0.835-0.986-0.835-0.466 0-0.857 0.319-0.968 0.75l-0.002 0.007-3.811 15.243h-3.219c-0.552 0-1 0.448-1 1s0.448 1 1 1v0h4c0.466-0 0.858-0.319 0.969-0.751l0.001-0.007 2.834-11.336 3.21 19.258c0.078 0.459 0.459 0.808 0.927 0.836l0.003 0c0.019 0 0.037 0 0.057 0 0.454-0 0.837-0.303 0.959-0.718l0.002-0.007 3.112-10.893 0.978 2.934c0.136 0.401 0.51 0.684 0.949 0.684 0 0 0 0 0 0h3.172c0.424 1.175 1.53 2 2.828 2 1.657 0 3-1.343 3-3s-1.343-3-3-3c-0 0-0 0-0 0v0z"></path>
</svg>
