<!-- Generated by IcoMoon.io -->
<svg version="1.1" xmlns="http://www.w3.org/2000/svg" width="40" height="40" viewBox="0 0 40 40">
<title>io-refresh-circle-sharp</title>
<path fill="#37352f" d="M20 7c-7.168 0-13 5.832-13 13 0 7.179 5.821 13 13 13 7.168 0 13-5.832 13-13 0-7.179-5.821-13-13-13zM25.875 20.688c0 3.245-2.63 5.875-5.875 5.875s-5.875-2.63-5.875-5.875c0-3.245 2.63-5.875 5.875-5.875v0h0.263l-1.5-1.5 1.237-1.238 3.738 3.738-3.738 3.738-1.238-1.238 1.745-1.745c-0.15-0.005-0.32-0.005-0.508-0.005-2.278 0-4.125 1.847-4.125 4.125s1.847 4.125 4.125 4.125c2.278 0 4.125-1.847 4.125-4.125v0-0.875h1.75z"></path>
</svg>
