<!-- Generated by IcoMoon.io -->
<svg version="1.1" xmlns="http://www.w3.org/2000/svg" width="40" height="40" viewBox="0 0 40 40">
<title>io-rainy-outline</title>
<path fill="none" stroke-linejoin="round" stroke-linecap="butt" stroke-miterlimit="4" stroke-width="2.5" stroke="#37352f" d="M11.163 14.178c0.429-0.068 0.764-0.4 0.836-0.822l0.001-0.006c0.756-4.589 4.102-7.35 8-7.35 3.621 0 6.039 2.359 7.012 4.859 0.128 0.322 0.412 0.558 0.757 0.616l0.006 0.001c3.125 0.509 5.725 2.596 5.725 6.224 0 3.712-3.038 6.3-6.75 6.3h-14.625c-3.094 0-5.625-1.544-5.625-4.95 0-3.029 2.417-4.514 4.663-4.872z"></path>
<path fill="none" stroke-linejoin="round" stroke-linecap="round" stroke-miterlimit="4" stroke-width="2.5" stroke="#37352f" d="M13 28l-2 3"></path>
<path fill="none" stroke-linejoin="round" stroke-linecap="round" stroke-miterlimit="4" stroke-width="2.5" stroke="#37352f" d="M18 28l-4 6"></path>
<path fill="none" stroke-linejoin="round" stroke-linecap="round" stroke-miterlimit="4" stroke-width="2.5" stroke="#37352f" d="M23 28l-2 3"></path>
<path fill="none" stroke-linejoin="round" stroke-linecap="round" stroke-miterlimit="4" stroke-width="2.5" stroke="#37352f" d="M28 28l-4 6"></path>
</svg>
