<!-- Generated by IcoMoon.io -->
<svg version="1.1" xmlns="http://www.w3.org/2000/svg" width="40" height="40" viewBox="0 0 40 40">
<title>io-radio-outline</title>
<path fill="#37352f" d="M22 20.001c0 1.105-0.895 2-2 2s-2-0.895-2-2c0-1.105 0.895-2 2-2s2 0.895 2 2z"></path>
<path fill="none" stroke-linejoin="round" stroke-linecap="round" stroke-miterlimit="4" stroke-width="2.5" stroke="#37352f" d="M15.516 16.016c-0.94 1.054-1.514 2.453-1.514 3.985s0.574 2.931 1.52 3.991l-0.005-0.006"></path>
<path fill="none" stroke-linejoin="round" stroke-linecap="round" stroke-miterlimit="4" stroke-width="2.5" stroke="#37352f" d="M24.486 23.986c0.94-1.054 1.514-2.453 1.514-3.985s-0.574-2.931-1.52-3.991l0.005 0.006"></path>
<path fill="none" stroke-linejoin="round" stroke-linecap="round" stroke-miterlimit="4" stroke-width="2.5" stroke="#37352f" d="M12.33 12.83c-1.753 1.871-2.829 4.395-2.829 7.17s1.076 5.299 2.835 7.176l-0.005-0.006"></path>
<path fill="none" stroke-linejoin="round" stroke-linecap="round" stroke-miterlimit="4" stroke-width="2.5" stroke="#37352f" d="M27.67 27.17c1.753-1.871 2.829-4.395 2.829-7.17s-1.076-5.299-2.835-7.176l0.005 0.006"></path>
<path fill="none" stroke-linejoin="round" stroke-linecap="round" stroke-miterlimit="4" stroke-width="2.5" stroke="#37352f" d="M31.188 30c2.366-2.643 3.812-6.153 3.812-10s-1.446-7.357-3.825-10.014l0.013 0.014"></path>
<path fill="none" stroke-linejoin="round" stroke-linecap="round" stroke-miterlimit="4" stroke-width="2.5" stroke="#37352f" d="M8.813 10c-2.366 2.643-3.812 6.153-3.812 10s1.446 7.357 3.825 10.014l-0.013-0.014"></path>
</svg>
