<!-- Generated by IcoMoon.io -->
<svg version="1.1" xmlns="http://www.w3.org/2000/svg" width="40" height="40" viewBox="0 0 40 40">
<title>io-rose</title>
<path fill="#37352f" d="M30.847 11.468c-0.18-0.283-0.492-0.468-0.847-0.468-0.078 0-0.154 0.009-0.226 0.026l0.007-0.001c-1.165 0.262-2.316 0.562-3.421 0.889-2.191 0.649-4.333 1.495-6.741 2.662-1.164 0.566-1.625 0.834-3 1.633l-0.281 0.167c-2.059 1.188-3.568 2.5-4.612 4.018-1.146 1.662-1.726 3.607-1.726 5.772 0 2.546 0.982 4.819 2.765 6.398 1.798 1.594 4.301 2.437 7.235 2.437 2.922 0 5.431-0.896 7.25-2.589 1.772-1.647 2.75-3.962 2.75-6.518 0-1.563-0.387-2.938-0.761-4.264-0.787-2.793-1.466-5.206 1.544-9.008 0.135-0.169 0.216-0.385 0.216-0.621 0-0.197-0.057-0.381-0.155-0.536l0.002 0.004z"></path>
<path fill="#37352f" d="M17.688 11.472c-3.159-1.717-7.346-2.429-7.523-2.458-0.049-0.008-0.105-0.013-0.162-0.013-0.43 0-0.796 0.271-0.938 0.652l-0.002 0.007c-0.035 0.099-0.056 0.214-0.056 0.334 0 0.28 0.112 0.533 0.293 0.719l-0-0c1.99 2.111 2.054 4.299 1.791 6.539-0.001 0.010-0.002 0.021-0.002 0.033 0 0.11 0.064 0.205 0.157 0.25l0.002 0.001c0.035 0.017 0.076 0.027 0.119 0.027 0.078 0 0.148-0.032 0.198-0.083l0-0c1.024-1.032 2.273-1.97 3.775-2.837l0.28-0.163c1.381-0.804 1.896-1.104 3.131-1.704l0.168-0.081c0.085-0.041 0.142-0.127 0.142-0.225 0-0.082-0.040-0.155-0.101-0.201l-0.001-0c-0.364-0.267-0.779-0.531-1.212-0.766l-0.059-0.029z"></path>
<path fill="#37352f" d="M18.641 9.716c0.215 0.117 0.443 0.25 0.681 0.393 0.696 0.43 1.301 0.892 1.856 1.406l-0.008-0.007c0.045 0.042 0.104 0.067 0.17 0.067 0.035 0 0.068-0.007 0.099-0.020l-0.002 0.001c1.132-0.501 2.577-1.032 4.056-1.484l0.298-0.078q0.438-0.129 0.88-0.25c0.107-0.030 0.184-0.127 0.184-0.241 0-0.040-0.009-0.078-0.026-0.112l0.001 0.001c-0.517-1.052-0.917-1.806-0.947-1.862-0.172-0.318-0.502-0.53-0.883-0.53v0c-0.119 0-2.080 0.022-4.804 1.331-0.66 0.319-1.2 0.621-1.721 0.949l0.072-0.042c-0.072 0.045-0.119 0.123-0.119 0.213 0 0.095 0.053 0.178 0.131 0.22l0.001 0.001z"></path>
<path fill="#37352f" d="M17.083 7.799c0.456-0.298 0.921-0.576 1.391-0.832 0.039-0.022 0.065-0.063 0.065-0.11 0-0.041-0.020-0.077-0.050-0.1l-0-0c-1.625-1.223-3.108-1.688-3.197-1.714-0.087-0.028-0.188-0.044-0.292-0.044-0.329 0-0.621 0.159-0.804 0.405l-0.002 0.003c-0.425 0.584-0.826 1.247-1.169 1.944l-0.036 0.080c-0.008 0.016-0.013 0.035-0.013 0.055 0 0.058 0.039 0.106 0.092 0.121l0.001 0c0.851 0.223 1.838 0.518 2.851 0.893 0.013 0.005 0.028 0.008 0.044 0.008 0.025 0 0.049-0.008 0.069-0.021l-0 0z"></path>
</svg>
