<!-- Generated by IcoMoon.io -->
<svg version="1.1" xmlns="http://www.w3.org/2000/svg" width="40" height="40" viewBox="0 0 40 40">
<title>io-speedometer-outline</title>
<path fill="#37352f" d="M24.381 18.494l-2.969 4.719c-0.123 0.17-0.268 0.314-0.432 0.434l-0.006 0.004c-0.3 0.212-0.674 0.338-1.077 0.338-1.039 0-1.882-0.843-1.882-1.882 0-0.622 0.301-1.173 0.766-1.515l0.005-0.004 4.719-2.969c0.102-0.072 0.229-0.115 0.366-0.115s0.264 0.043 0.368 0.116l-0.002-0.001c0.159 0.116 0.261 0.301 0.261 0.51 0 0.137-0.044 0.264-0.118 0.367l0.001-0.002z"></path>
<path fill="none" stroke-linejoin="round" stroke-linecap="round" stroke-miterlimit="4" stroke-width="2.5" stroke="#37352f" d="M20 8c-7.731 0-14 6.262-14 13.994 0 0.006 0 0.013 0 0.019 0 3.561 1.335 6.811 3.531 9.276l-0.012-0.014c0.069 0.075 0.131 0.15 0.2 0.219 0.289 0.312 0.7 0.506 1.156 0.506 0.46 0 0.873-0.197 1.161-0.511l0.001-0.001c1.984-2.151 4.816-3.494 7.962-3.494s5.979 1.343 7.956 3.486l0.007 0.007c0.289 0.315 0.703 0.512 1.162 0.512 0.457 0 0.868-0.194 1.156-0.505l0.201-0.22c2.184-2.451 3.519-5.701 3.519-9.262 0-0.007 0-0.014 0-0.020v0.001c0-7.731-6.269-13.994-14-13.994z"></path>
<path fill="none" stroke-linejoin="miter" stroke-linecap="round" stroke-miterlimit="10" stroke-width="2.5" stroke="#37352f" d="M20 12v2"></path>
<path fill="none" stroke-linejoin="miter" stroke-linecap="round" stroke-miterlimit="10" stroke-width="2.5" stroke="#37352f" d="M30 22h-2"></path>
<path fill="none" stroke-linejoin="miter" stroke-linecap="round" stroke-miterlimit="10" stroke-width="2.5" stroke="#37352f" d="M12 22h-2"></path>
<path fill="none" stroke-linejoin="miter" stroke-linecap="round" stroke-miterlimit="10" stroke-width="2.5" stroke="#37352f" d="M14.343 16.343l-1.414-1.414"></path>
<path fill="none" stroke-linejoin="miter" stroke-linecap="round" stroke-miterlimit="10" stroke-width="2.5" stroke="#37352f" d="M25.657 16.343l1.414-1.414"></path>
</svg>
