<!-- Generated by IcoMoon.io -->
<svg version="1.1" xmlns="http://www.w3.org/2000/svg" width="40" height="40" viewBox="0 0 40 40">
<title>io-scan-sharp</title>
<path fill="#37352f" d="M28.25 33.125h-4.25v-2.75h4.25c1.174 0 2.125-0.951 2.125-2.125v0-4.25h2.75v4.25c-0.003 2.691-2.184 4.872-4.875 4.875h-0z"></path>
<path fill="#37352f" d="M33.125 16h-2.75v-4.25c0-1.174-0.951-2.125-2.125-2.125v0h-4.25v-2.75h4.25c2.691 0.003 4.872 2.184 4.875 4.875v0z"></path>
<path fill="#37352f" d="M16 33.125h-4.25c-2.691-0.003-4.872-2.184-4.875-4.875v-4.25h2.75v4.25c0 1.174 0.951 2.125 2.125 2.125v0h4.25z"></path>
<path fill="#37352f" d="M9.625 16h-2.75v-4.25c0.003-2.691 2.184-4.872 4.875-4.875h4.25v2.75h-4.25c-1.174 0-2.125 0.951-2.125 2.125v0z"></path>
</svg>
