<!-- Generated by IcoMoon.io -->
<svg version="1.1" xmlns="http://www.w3.org/2000/svg" width="40" height="40" viewBox="0 0 40 40">
<title>io-skull-outline</title>
<path fill="none" stroke-linejoin="miter" stroke-linecap="round" stroke-miterlimit="10" stroke-width="2.5" stroke="#37352f" d="M32 18.102v6.188c-0 1.674-1.028 3.108-2.488 3.704l-0.027 0.010-1.48 0.592c-0.622 0.254-1.081 0.795-1.216 1.454l-0.002 0.013-0.625 3.134c-0.095 0.462-0.498 0.804-0.981 0.804-0.001 0-0.001 0-0.002 0h-10.36c-0 0-0 0-0 0-0.483 0-0.886-0.342-0.979-0.797l-0.001-0.006-0.627-3.134c-0.137-0.671-0.596-1.211-1.205-1.46l-0.013-0.005-1.48-0.592c-1.486-0.606-2.514-2.040-2.514-3.714v0-6.292c0-6.62 5.361-11.988 11.978-12s12.022 5.491 12.022 12.103z"></path>
<path fill="none" stroke-linejoin="miter" stroke-linecap="round" stroke-miterlimit="10" stroke-width="2.5" stroke="#37352f" d="M17 21.5c0 1.381-1.119 2.5-2.5 2.5s-2.5-1.119-2.5-2.5c0-1.381 1.119-2.5 2.5-2.5s2.5 1.119 2.5 2.5z"></path>
<path fill="none" stroke-linejoin="miter" stroke-linecap="round" stroke-miterlimit="10" stroke-width="2.5" stroke="#37352f" d="M28 21.5c0 1.381-1.119 2.5-2.5 2.5s-2.5-1.119-2.5-2.5c0-1.381 1.119-2.5 2.5-2.5s2.5 1.119 2.5 2.5z"></path>
<path fill="none" stroke-linejoin="round" stroke-linecap="round" stroke-miterlimit="4" stroke-width="2.5" stroke="#37352f" d="M20 25l-1 3h2l-1-3z"></path>
<path fill="none" stroke-linejoin="round" stroke-linecap="round" stroke-miterlimit="4" stroke-width="2.5" stroke="#37352f" d="M20 32v2"></path>
<path fill="none" stroke-linejoin="round" stroke-linecap="round" stroke-miterlimit="4" stroke-width="2.5" stroke="#37352f" d="M17 32v2"></path>
<path fill="none" stroke-linejoin="round" stroke-linecap="round" stroke-miterlimit="4" stroke-width="2.5" stroke="#37352f" d="M23 32v2"></path>
</svg>
