<!-- Generated by IcoMoon.io -->
<svg version="1.1" xmlns="http://www.w3.org/2000/svg" width="40" height="40" viewBox="0 0 40 40">
<title>io-shirt</title>
<path fill="#37352f" d="M20 10c2.067 0 3.794-1.611 4-3.625 0.019-0.188-0.188-0.375-0.375-0.375v0c-0.107 0-0.208 0.021-0.302 0.058l0.005-0.002c-0.013 0.005-1.319 0.506-3.329 0.506s-3.319-0.5-3.329-0.506c-0.099-0.035-0.213-0.056-0.331-0.056h-0.004c-0.188 0.010-0.337 0.165-0.337 0.355 0 0.007 0 0.014 0.001 0.021l-0-0.001c0.209 2.010 1.938 3.625 4 3.625z"></path>
<path fill="#37352f" d="M34.331 9.619l-8.081-2.829c-0.025-0.009-0.053-0.014-0.082-0.014-0.124 0-0.228 0.091-0.247 0.21l-0 0.001c-0.491 2.862-2.953 5.012-5.918 5.012s-5.427-2.15-5.913-4.977l-0.005-0.036c-0.019-0.121-0.122-0.213-0.247-0.213-0.031 0-0.061 0.006-0.089 0.016l0.002-0.001-8.081 2.829c-0.393 0.141-0.67 0.51-0.67 0.944 0 0.066 0.006 0.131 0.019 0.194l-0.001-0.006 1.039 5.5c0.084 0.428 0.432 0.755 0.865 0.806l0.005 0 3.055 0.345c0.251 0.029 0.444 0.24 0.444 0.497 0 0.005-0 0.011-0 0.016l0-0.001-0.458 15.056c-0 0.009-0.001 0.020-0.001 0.031 0 0.396 0.23 0.738 0.563 0.9l0.006 0.003c0.132 0.061 0.287 0.097 0.45 0.097 0.005 0 0.010-0 0.014-0h17.999c0.004 0 0.009 0 0.014 0 0.163 0 0.318-0.036 0.457-0.1l-0.007 0.003c0.339-0.165 0.569-0.507 0.569-0.902 0-0.011-0-0.022-0.001-0.033l0 0.002-0.458-15.056c-0-0.004-0-0.010-0-0.015 0-0.256 0.193-0.468 0.442-0.497l0.002-0 3.055-0.345c0.438-0.051 0.786-0.378 0.869-0.8l0.001-0.006 1.039-5.5c0.011-0.056 0.018-0.121 0.018-0.187 0-0.434-0.276-0.803-0.663-0.942l-0.007-0.002z"></path>
</svg>
