<!-- Generated by IcoMoon.io -->
<svg version="1.1" xmlns="http://www.w3.org/2000/svg" width="40" height="40" viewBox="0 0 40 40">
<title>io-stats-chart</title>
<path fill="#37352f" d="M10.5 35h-2c-0.828 0-1.5-0.672-1.5-1.5v0-9c0-0.828 0.672-1.5 1.5-1.5v0h2c0.828 0 1.5 0.672 1.5 1.5v0 9c0 0.828-0.672 1.5-1.5 1.5v0z"></path>
<path fill="#37352f" d="M24.5 35h-2c-0.828 0-1.5-0.672-1.5-1.5v0-15c0-0.828 0.672-1.5 1.5-1.5v0h2c0.828 0 1.5 0.672 1.5 1.5v0 15c0 0.828-0.672 1.5-1.5 1.5v0z"></path>
<path fill="#37352f" d="M31.5 35h-2c-0.828 0-1.5-0.672-1.5-1.5v0-22c0-0.828 0.672-1.5 1.5-1.5v0h2c0.828 0 1.5 0.672 1.5 1.5v0 22c0 0.828-0.672 1.5-1.5 1.5v0z"></path>
<path fill="#37352f" d="M17.5 35h-2c-0.828 0-1.5-0.672-1.5-1.5v0-27c0-0.828 0.672-1.5 1.5-1.5v0h2c0.828 0 1.5 0.672 1.5 1.5v0 27c0 0.828-0.672 1.5-1.5 1.5v0z"></path>
</svg>
