<!-- Generated by IcoMoon.io -->
<svg version="1.1" xmlns="http://www.w3.org/2000/svg" width="40" height="40" viewBox="0 0 40 40">
<title>io-tennisball-sharp</title>
<path fill="#37352f" d="M19.4 34c0.088-0.403 0.16-0.892 0.199-1.39l0.002-0.039c0.022-0.288 0.033-0.582 0.033-0.875 0-6.25-5.084-11.333-11.332-11.333-0.815 0-1.61 0.087-2.376 0.25l0.074-0.013c0.321 7.268 6.132 13.078 13.37 13.398l0.030 0.001z"></path>
<path fill="#37352f" d="M21.789 18.211c-2.534-2.522-4.102-6.012-4.102-9.868 0-0.014 0-0.029 0-0.043v0.002c0-0 0-0.001 0-0.001 0-0.759 0.060-1.504 0.174-2.23l-0.010 0.080c-6.033 0.965-10.734 5.666-11.69 11.618l-0.011 0.080c0.641-0.103 1.38-0.161 2.133-0.161 0.006 0 0.013 0 0.019 0h-0.001c0.011-0 0.025-0 0.038-0 3.858 0 7.349 1.569 9.87 4.104l0.001 0.001c2.534 2.522 4.102 6.012 4.102 9.868 0 0.013-0 0.027-0 0.040v-0.002c0 0.359-0.014 0.721-0.041 1.077s-0.069 0.719-0.125 1.075c6.034-0.965 10.736-5.665 11.692-11.619l0.011-0.080c-0.641 0.103-1.38 0.161-2.133 0.161-0.006 0-0.013 0-0.019 0h0.001c-0.012 0-0.026 0-0.041 0-3.856 0-7.346-1.568-9.867-4.101l-0.001-0.001z"></path>
<path fill="#37352f" d="M31.698 19.634c0.001 0 0.002 0 0.003 0 0.814 0 1.607-0.086 2.373-0.248l-0.074 0.013c-0.321-7.267-6.132-13.078-13.37-13.398l-0.030-0.001c-0.149 0.691-0.235 1.485-0.235 2.298 0 0.001 0 0.002 0 0.004v-0c0 6.249 5.084 11.333 11.333 11.333z"></path>
</svg>
