<!-- Generated by IcoMoon.io -->
<svg version="1.1" xmlns="http://www.w3.org/2000/svg" width="40" height="40" viewBox="0 0 40 40">
<title>io-tablet-portrait</title>
<path fill="#37352f" d="M28 36h-16c-2.208-0.002-3.997-1.792-4-4v-24c0.003-2.208 1.792-3.998 4-4h16c2.208 0.002 3.997 1.792 4 4v24c-0.002 2.208-1.792 3.998-4 4h-0zM12 6c-1.105 0-2 0.895-2 2v0 24c0 1.105 0.895 2 2 2v0h16c1.105 0 2-0.895 2-2v0-24c0-1.105-0.895-2-2-2v0z"></path>
<path fill="#37352f" d="M28 4c2.208 0.002 3.997 1.792 4 4v24c-0.002 2.208-1.792 3.997-4 4h-16c-2.208-0.003-3.997-1.792-4-4v-24c0.003-2.208 1.792-3.997 4-4h16zM12 34h16c1.105 0 2-0.895 2-2v0-24c0-1.105-0.895-2-2-2v0h-16c-1.105 0-2 0.895-2 2v0 24c0 1.105 0.895 2 2 2v0zM12 33c-0.552 0-1-0.448-1-1v0-24c0-0.552 0.448-1 1-1v0h16c0.552 0 1 0.448 1 1v0 24c0 0.552-0.448 1-1 1v0z"></path>
</svg>
