<!-- Generated by IcoMoon.io -->
<svg version="1.1" xmlns="http://www.w3.org/2000/svg" width="40" height="40" viewBox="0 0 40 40">
<title>io-transgender</title>
<path fill="#37352f" d="M32.625 6h-4.25c-0.759 0-1.375 0.616-1.375 1.375s0.616 1.375 1.375 1.375v0h0.931l-3.723 3.723c-1.538-1.154-3.479-1.848-5.583-1.848s-4.044 0.694-5.607 1.865l0.024-0.017-0.473-0.473 1.653-1.653c0.249-0.249 0.403-0.593 0.403-0.973 0-0.76-0.616-1.375-1.375-1.375-0.38 0-0.724 0.154-0.973 0.403l-1.653 1.653-1.306-1.306h0.931c0.759 0 1.375-0.616 1.375-1.375s-0.616-1.375-1.375-1.375v0h-4.25c-0.759 0-1.375 0.616-1.375 1.375v0 4.25c0 0.759 0.616 1.375 1.375 1.375s1.375-0.616 1.375-1.375v0-0.931l1.306 1.306-1.651 1.651c-0.256 0.25-0.416 0.599-0.416 0.985 0 0.759 0.616 1.375 1.375 1.375 0.386 0 0.735-0.159 0.985-0.415l1.652-1.652 0.473 0.473c-1.154 1.535-1.848 3.472-1.848 5.572 0 0.004 0 0.007 0 0.011v-0.001c0 5.169 4.206 9.375 9.375 9.375 0.003 0 0.007 0 0.010 0 2.104 0 4.044-0.697 5.605-1.872l-0.024 0.017 1.471 1.473-1.659 1.659c-0.249 0.249-0.403 0.593-0.403 0.972 0 0.76 0.616 1.375 1.375 1.375 0.38 0 0.724-0.154 0.972-0.403l1.656-1.656 2.648 2.655c0.249 0.25 0.593 0.404 0.974 0.404 0.76 0 1.375-0.616 1.375-1.375 0-0.379-0.153-0.722-0.402-0.971l-2.652-2.654 1.649-1.649c0.249-0.249 0.403-0.593 0.403-0.973 0-0.76-0.616-1.375-1.375-1.375-0.38 0-0.724 0.154-0.973 0.403l-1.647 1.647-1.472-1.476c1.15-1.536 1.841-3.474 1.841-5.573 0-2.103-0.694-4.044-1.866-5.607l0.017 0.024 3.723-3.726v0.931c0 0.759 0.616 1.375 1.375 1.375s1.375-0.616 1.375-1.375v0-4.25c0-0.759-0.616-1.375-1.375-1.375v0zM13.375 20c0-3.659 2.966-6.625 6.625-6.625s6.625 2.966 6.625 6.625c0 3.659-2.966 6.625-6.625 6.625v0c-3.657-0.004-6.621-2.968-6.625-6.625v-0z"></path>
</svg>
