<!-- Generated by IcoMoon.io -->
<svg version="1.1" xmlns="http://www.w3.org/2000/svg" width="40" height="40" viewBox="0 0 40 40">
<title>io-trash-bin</title>
<path fill="#37352f" d="M8 7h24c1.105 0 2 0.895 2 2v1c0 1.105-0.895 2-2 2h-24c-1.105 0-2-0.895-2-2v-1c0-1.105 0.895-2 2-2z"></path>
<path fill="#37352f" d="M8.653 14c-0.001 0-0.002 0-0.003 0-0.276 0-0.5 0.224-0.5 0.5 0 0.018 0.001 0.036 0.003 0.054l-0-0.002 1.644 15.785c-0 0.002-0 0.004-0 0.007s0 0.005 0 0.007l-0-0c0.182 1.499 1.446 2.649 2.979 2.649 0 0 0.001 0 0.001 0h14.443c1.533-0 2.798-1.15 2.978-2.635l0.001-0.014v-0.013l1.642-15.786c0.002-0.016 0.003-0.034 0.003-0.052 0-0.276-0.224-0.5-0.5-0.5-0.001 0-0.002 0-0.003 0h0zM24.207 25.293c0.187 0.182 0.303 0.436 0.303 0.717 0 0.552-0.448 1-1 1-0.281 0-0.536-0.116-0.717-0.303l-2.793-2.793-2.793 2.793c-0.18 0.175-0.426 0.283-0.697 0.283-0.552 0-1-0.448-1-1 0-0.271 0.108-0.517 0.283-0.697l2.793-2.793-2.793-2.793c-0.175-0.18-0.282-0.426-0.282-0.697 0-0.552 0.448-1 1-1 0.271 0 0.517 0.108 0.697 0.283l2.793 2.792 2.792-2.793c0.18-0.175 0.426-0.283 0.697-0.283 0.552 0 1 0.448 1 1 0 0.271-0.108 0.517-0.283 0.697l-2.793 2.793z"></path>
</svg>
