<!-- Generated by IcoMoon.io -->
<svg version="1.1" xmlns="http://www.w3.org/2000/svg" width="40" height="40" viewBox="0 0 40 40">
<title>io-tv-sharp</title>
<path fill="#37352f" d="M34.5 28h-29c-0.276 0-0.5-0.224-0.5-0.5v0-18c0-0.276 0.224-0.5 0.5-0.5v0h29c0.276 0 0.5 0.224 0.5 0.5v0 18c0 0.276-0.224 0.5-0.5 0.5v0z"></path>
<path fill="#37352f" d="M11.25 29h17.5c0.138 0 0.25 0.112 0.25 0.25v1.5c0 0.138-0.112 0.25-0.25 0.25h-17.5c-0.138 0-0.25-0.112-0.25-0.25v-1.5c0-0.138 0.112-0.25 0.25-0.25z"></path>
</svg>
