<!-- Generated by IcoMoon.io -->
<svg version="1.1" xmlns="http://www.w3.org/2000/svg" width="40" height="40" viewBox="0 0 40 40">
<title>io-thumbs-up-sharp</title>
<path fill="#37352f" d="M32.5 16l-9.75-0.75 1.437-5.588c0.375-1.662-0.049-2.617-1.404-3.038l-2.168-0.616c-0.019-0.005-0.041-0.008-0.064-0.008-0.088 0-0.166 0.046-0.21 0.115l-0.001 0.001-8.063 12.646c-0.089 0.144-0.246 0.238-0.426 0.238h-6.852v12.999h7.351c0 0 0 0 0.001 0 0.339 0 0.665 0.056 0.969 0.16l-0.021-0.006 4.769 1.589c0.472 0.163 1.016 0.257 1.581 0.257h11.121c1.188 0 1.969-0.845 2.202-2.010l2.028-8.891v-4.599c0-1.379-1.125-2.375-2.5-2.5z"></path>
</svg>
