<!-- Generated by IcoMoon.io -->
<svg version="1.1" xmlns="http://www.w3.org/2000/svg" width="40" height="40" viewBox="0 0 40 40">
<title>io-umbrella</title>
<path fill="#37352f" d="M29.899 11.101c-2.21-2.223-5.167-3.702-8.463-4.029l-0.058-0.005c-0.203-0.022-0.369-0.161-0.429-0.348l-0.001-0.004c-0.122-0.416-0.5-0.715-0.949-0.715s-0.827 0.299-0.947 0.708l-0.002 0.007c-0.061 0.19-0.227 0.329-0.428 0.351l-0.002 0c-7.106 0.724-12.606 6.669-12.621 13.902v0.002c-0 0.005-0 0.011-0 0.016 0 0.353 0.178 0.664 0.449 0.848l0.004 0.002c0.154 0.102 0.344 0.163 0.547 0.163 0.276 0 0.526-0.112 0.707-0.293v0c0.587-0.587 1.397-0.949 2.293-0.949 0.894 0 1.703 0.361 2.289 0.946l-0-0c0.181 0.184 0.433 0.298 0.711 0.298 0.274 0 0.522-0.11 0.702-0.289l-0 0c0.707-0.704 1.683-1.139 2.759-1.139 0.879 0 1.691 0.29 2.344 0.78l-0.010-0.007c0.125 0.095 0.206 0.244 0.206 0.412 0 0 0 0 0 0v0 9.214c0 0.537-0.413 1-0.949 1.027-0.015 0.001-0.033 0.001-0.051 0.001-0.552 0-1-0.448-1-1 0 0 0-0 0-0v0c0-0 0-0 0-0 0-0.552-0.448-1-1-1-0.006 0-0.013 0-0.019 0h0.001c-0.563 0.010-0.994 0.507-0.981 1.069 0.040 1.613 1.345 2.908 2.958 2.931l0.002 0c1.68 0.021 3.039-1.371 3.039-3.051v-9.192c0-0 0-0 0-0 0-0.168 0.080-0.317 0.204-0.411l0.001-0.001c0.643-0.482 1.454-0.772 2.334-0.772 1.074 0 2.047 0.433 2.754 1.134l-0-0c0.181 0.181 0.431 0.293 0.707 0.293s0.526-0.112 0.707-0.293v0c0.587-0.587 1.398-0.949 2.293-0.949s1.706 0.363 2.293 0.949l-0-0c0.181 0.181 0.431 0.293 0.707 0.293 0.19 0 0.367-0.053 0.519-0.145l-0.004 0.002c0.293-0.184 0.486-0.505 0.486-0.872 0-0.006-0-0.012-0-0.017v0.001c0-0.002 0-0.005 0-0.007 0-3.854-1.568-7.342-4.1-9.861l-0.001-0.001z"></path>
</svg>
