<!-- Generated by IcoMoon.io -->
<svg version="1.1" xmlns="http://www.w3.org/2000/svg" width="40" height="40" viewBox="0 0 40 40">
<title>io-videocam-outline</title>
<path fill="none" stroke-linejoin="round" stroke-linecap="round" stroke-miterlimit="4" stroke-width="2.5" stroke="#37352f" d="M27.424 23.299l5.169 3.639c0.119 0.054 0.259 0.086 0.406 0.086 0.552 0 1-0.448 1-1v0-12.048c0-0.552-0.448-1-1-1-0.147 0-0.287 0.032-0.413 0.089l0.006-0.003-5.169 3.639c-0.258 0.183-0.424 0.481-0.424 0.817v0 4.963c0 0.337 0.166 0.634 0.421 0.815l0.003 0.002z"></path>
<path fill="none" stroke-linejoin="miter" stroke-linecap="butt" stroke-miterlimit="10" stroke-width="2.5" stroke="#37352f" d="M20.75 28h-11.5c-1.793-0.005-3.245-1.457-3.25-3.249v-9.501c0.005-1.793 1.457-3.245 3.249-3.25h11.531c1.776 0.006 3.214 1.444 3.22 3.219v9.531c-0.005 1.793-1.457 3.245-3.249 3.25h-0.001z"></path>
</svg>
