<!-- Generated by IcoMoon.io -->
<svg version="1.1" xmlns="http://www.w3.org/2000/svg" width="40" height="40" viewBox="0 0 40 40">
<title>io-woman</title>
<path fill="#37352f" d="M23.484 7.5c0 1.933-1.567 3.5-3.5 3.5s-3.5-1.567-3.5-3.5c0-1.933 1.567-3.5 3.5-3.5s3.5 1.567 3.5 3.5z"></path>
<path fill="#37352f" d="M28.664 21.369l-0.646-2.151s0-0.004 0-0.007l-1.404-4.679h-0.003l-0.157-0.528c-0.356-1.169-1.424-2.005-2.687-2.005h-7.5c-0 0-0.001 0-0.001 0-1.263 0-2.332 0.836-2.681 1.985l-0.005 0.020-0.157 0.528h-0.004l-1.404 4.679s0 0.004 0 0.007l-0.648 2.151c-0.195 0.649 0.144 1.354 0.786 1.571 0.12 0.042 0.259 0.067 0.403 0.067 0.562 0 1.038-0.371 1.195-0.882l0.002-0.009 1.734-5.78c0.071-0.195 0.255-0.331 0.471-0.331 0.274 0 0.497 0.221 0.5 0.495v0c-0 0.036-0.004 0.070-0.011 0.104l0.001-0.003-2.733 9.112c-0.027 0.086-0.042 0.185-0.042 0.288 0 0.552 0.448 1 1 1h1.812v7.168c0 1.029 0.658 1.832 1.5 1.832s1.5-0.803 1.5-1.832v-7.168h1v7.168c0 1.029 0.658 1.832 1.5 1.832s1.5-0.803 1.5-1.832v-7.168h1.875c0 0 0 0 0 0 0.552 0 1-0.448 1-1 0-0.103-0.015-0.201-0.044-0.295l0.002 0.007-2.734-9.113c-0.006-0.029-0.010-0.062-0.010-0.096 0-0.001 0-0.002 0-0.003v0c0.002-0.275 0.225-0.497 0.5-0.497 0.216 0 0.4 0.137 0.47 0.329l0.001 0.003 0.136 0.452 1.598 5.328c0.16 0.518 0.635 0.889 1.197 0.889 0.144 0 0.283-0.024 0.412-0.069l-0.009 0.003c0.642-0.215 0.981-0.919 0.786-1.569z"></path>
</svg>
