<!-- Generated by IcoMoon.io -->
<svg version="1.1" xmlns="http://www.w3.org/2000/svg" width="40" height="40" viewBox="0 0 40 40">
<title>io-wallet</title>
<path fill="#37352f" d="M9.969 10.5h20c0.001 0 0.002 0 0.003 0 0.245 0 0.487 0.016 0.724 0.047l-0.028-0.003c-0.295-2.014-2.011-3.543-4.084-3.543-0.269 0-0.532 0.026-0.787 0.075l0.026-0.004-16.467 2.808c-1.062 0.208-1.959 0.8-2.559 1.621l-0.008 0.012c0.882-0.634 1.983-1.013 3.172-1.013 0.002 0 0.005 0 0.007 0h-0z"></path>
<path fill="#37352f" d="M29.969 12h-20c-2.208 0.003-3.998 1.792-4 4v12c0.002 2.208 1.792 3.997 4 4h20c2.208-0.002 3.998-1.792 4-4v-12c-0.002-2.208-1.792-3.998-4-4h-0zM27 24c-1.105 0-2-0.895-2-2s0.895-2 2-2c1.105 0 2 0.895 2 2v0c0 1.105-0.895 2-2 2v0z"></path>
<path fill="#37352f" d="M6 20.219v-6.219c0-1.354 0.75-3.625 3.353-4.117 2.209-0.414 4.397-0.414 4.397-0.414s1.438 1 0.25 1-1.156 1.531 0 1.531 0 1.469 0 1.469l-4.656 5.281z"></path>
</svg>
