<!-- Generated by IcoMoon.io -->
<svg version="1.1" xmlns="http://www.w3.org/2000/svg" width="40" height="40" viewBox="0 0 40 40">
<title>io-woman-sharp</title>
<path fill="#37352f" d="M23.484 7.5c0 1.933-1.567 3.5-3.5 3.5s-3.5-1.567-3.5-3.5c0-1.933 1.567-3.5 3.5-3.5s3.5 1.567 3.5 3.5z"></path>
<path fill="#37352f" d="M23.392 15.962h0.003l0.479-0.144 2.299 7.662 2.875-0.863-1.013-3.385c0-0.008 0-0.015-0.004-0.023l-1.052-3.507-0.294-0.984-0.056-0.188h-0.003l-0.157-0.528c-0.355-1.169-1.423-2.005-2.687-2.005-0 0-0.001 0-0.001 0h-7.578c-0 0-0.001 0-0.001 0-1.263 0-2.332 0.836-2.681 1.985l-0.005 0.020-0.157 0.528h-0.004l-0.056 0.188-0.294 0.984-1.053 3.508c0 0.008 0 0.015-0.004 0.023l-1.013 3.385 2.875 0.863 2.298-7.662 0.471 0.141-3.312 11.040h3.219v9h3.25v-9h0.5v9h3.25v-9h3.219z"></path>
</svg>
