<!-- Generated by IcoMoon.io -->
<svg version="1.1" xmlns="http://www.w3.org/2000/svg" width="40" height="40" viewBox="0 0 40 40">
<title>io-walk-sharp</title>
<path stroke-linejoin="round" stroke-linecap="square" stroke-miterlimit="4" stroke-width="2.5" stroke="#37352f" fill="#37352f" d="M23.693 34.086l-3.559-7.195-2.813-3.598c-0.399-0.664-0.635-1.466-0.635-2.323v-8.096h0.983c1.39 0.003 2.517 1.129 2.518 2.52v10.158"></path>
<path fill="none" stroke-linejoin="round" stroke-linecap="square" stroke-miterlimit="4" stroke-width="2.5" stroke="#37352f" d="M12.011 22.219v-4.673l4.059-4.069"></path>
<path fill="#37352f" d="M27.522 22.483l-5.247-3.524v-2.793l6.543 4.559-1.296 1.757z"></path>
<path fill="#37352f" d="M14.946 35.161l-1.339-1.682 5.021-5.096 0.971 2.004-4.652 4.774z"></path>
<path stroke-linejoin="round" stroke-linecap="square" stroke-miterlimit="4" stroke-width="1.25" stroke="#37352f" fill="#37352f" d="M22.525 8.201c0 1.29-1.046 2.336-2.336 2.336s-2.336-1.046-2.336-2.336c0-1.29 1.046-2.336 2.336-2.336s2.336 1.046 2.336 2.336z"></path>
</svg>
