<!-- Generated by IcoMoon.io -->
<svg version="1.1" xmlns="http://www.w3.org/2000/svg" width="40" height="40" viewBox="0 0 40 40">
<title>io-warning-outline</title>
<path fill="none" stroke-linejoin="round" stroke-linecap="round" stroke-miterlimit="4" stroke-width="2.5" stroke="#37352f" d="M9.348 31.891h21.304c1.104-0 2-0.896 2-2 0-0.347-0.089-0.674-0.244-0.959l0.005 0.010-10.651-19.781c-0.756-1.402-2.767-1.402-3.522 0l-10.651 19.781c-0.151 0.274-0.239 0.601-0.239 0.948 0 1.104 0.895 2 2 2h0z"></path>
<path fill="none" stroke-linejoin="round" stroke-linecap="round" stroke-miterlimit="4" stroke-width="2.5" stroke="#37352f" d="M19.641 16.212l0.359 7.625 0.358-7.622c0-0.005 0-0.011 0-0.016 0-0.198-0.161-0.359-0.359-0.359-0.001 0-0.002 0-0.004 0h0c-0.197 0.002-0.355 0.162-0.355 0.359 0 0.005 0 0.009 0 0.014l-0-0.001z"></path>
<path fill="#37352f" d="M20 28.828c-0.69 0-1.25-0.56-1.25-1.25s0.56-1.25 1.25-1.25c0.69 0 1.25 0.56 1.25 1.25v0c0 0.69-0.56 1.25-1.25 1.25v0z"></path>
</svg>
