<!-- Generated by IcoMoon.io -->
<svg version="1.1" xmlns="http://www.w3.org/2000/svg" width="40" height="40" viewBox="0 0 40 40">
<title>io-wine</title>
<path fill="#37352f" d="M29.91 9.932v-0.932c0-0.552-0.448-1-1-1v0h-17.82c-0.552 0-1 0.448-1 1v0 0.932c-0.091 0.711-0.603 5.671 2.308 9.043 1.554 1.8 3.772 2.803 6.602 2.991v8.033h-5c-0.552 0-1 0.448-1 1s0.448 1 1 1v0h12c0.552 0 1-0.448 1-1s-0.448-1-1-1v0h-5v-8.033c2.829-0.187 5.047-1.191 6.602-2.991 2.911-3.372 2.398-8.332 2.308-9.043zM12.079 10.146c0.007-0.044 0.011-0.094 0.011-0.145 0-0 0-0 0-0v0h15.82c0 0 0 0 0 0 0 0.051 0.004 0.102 0.012 0.151l-0.001-0.005c0.052 0.428 0.081 0.924 0.081 1.427s-0.029 0.999-0.087 1.486l0.006-0.059h-15.839c-0.052-0.433-0.082-0.935-0.082-1.444 0-0.497 0.028-0.987 0.084-1.469l-0.006 0.059z"></path>
</svg>
