<!-- Generated by IcoMoon.io -->
<svg version="1.1" xmlns="http://www.w3.org/2000/svg" width="40" height="40" viewBox="0 0 40 40">
<title>io-watch-outline</title>
<path fill="none" stroke-linejoin="round" stroke-linecap="butt" stroke-miterlimit="4" stroke-width="2.5" stroke="#37352f" d="M15 11h10c2.209 0 4 1.791 4 4v10c0 2.209-1.791 4-4 4h-10c-2.209 0-4-1.791-4-4v-10c0-2.209 1.791-4 4-4z"></path>
<path fill="none" stroke-linejoin="round" stroke-linecap="butt" stroke-miterlimit="4" stroke-width="2.5" stroke="#37352f" d="M15 11v-4.5c0-0.276 0.224-0.5 0.5-0.5v0h9c0.276 0 0.5 0.224 0.5 0.5v0 4.5"></path>
<path fill="none" stroke-linejoin="round" stroke-linecap="butt" stroke-miterlimit="4" stroke-width="2.5" stroke="#37352f" d="M25 29v4.5c0 0.276-0.224 0.5-0.5 0.5v0h-9c-0.276 0-0.5-0.224-0.5-0.5v0-4.5"></path>
</svg>
