<!-- Generated by IcoMoon.io -->
<svg version="1.1" xmlns="http://www.w3.org/2000/svg" width="40" height="40" viewBox="0 0 40 40">
<title>io-walk-outline</title>
<path fill="none" stroke-linejoin="round" stroke-linecap="round" stroke-miterlimit="4" stroke-width="2.5" stroke="#37352f" d="M23.638 34.145l-3.548-7.171-2.806-3.587c-0.398-0.662-0.633-1.461-0.633-2.316v0-8.071h0.979c0 0 0 0 0.001 0 1.388 0 2.514 1.125 2.514 2.514v11.46"></path>
<path fill="none" stroke-linejoin="round" stroke-linecap="round" stroke-miterlimit="4" stroke-width="2.5" stroke="#37352f" d="M11.994 22.316v-4.657s2.329-4.658 4.658-4.658"></path>
<path fill="none" stroke-linejoin="round" stroke-linecap="round" stroke-miterlimit="4" stroke-width="2.5" stroke="#37352f" d="M27.131 21.151l-4.131-2.714"></path>
<path fill="none" stroke-linejoin="round" stroke-linecap="round" stroke-miterlimit="4" stroke-width="2.5" stroke="#37352f" d="M14.658 33.898l3.342-4.898"></path>
<path fill="none" stroke-linejoin="round" stroke-linecap="round" stroke-miterlimit="4" stroke-width="2.5" stroke="#37352f" d="M22.474 8.343c0 1.286-1.043 2.329-2.329 2.329s-2.329-1.043-2.329-2.329c0-1.286 1.043-2.329 2.329-2.329s2.329 1.043 2.329 2.329z"></path>
</svg>
