<!-- Generated by IcoMoon.io -->
<svg version="1.1" xmlns="http://www.w3.org/2000/svg" width="40" height="40" viewBox="0 0 40 40">
<title>io-wifi-sharp</title>
<path fill="none" stroke-linejoin="round" stroke-linecap="square" stroke-miterlimit="4" stroke-width="3.2813" stroke="#37352f" d="M24.793 24c-1.263-1.127-2.939-1.815-4.775-1.815s-3.512 0.689-4.782 1.822l0.007-0.006"></path>
<path fill="none" stroke-linejoin="round" stroke-linecap="square" stroke-miterlimit="4" stroke-width="3.2813" stroke="#37352f" d="M28.609 20.188c-2.242-2.101-5.266-3.391-8.591-3.391s-6.349 1.29-8.598 3.397l0.007-0.006"></path>
<path fill="none" stroke-linejoin="round" stroke-linecap="square" stroke-miterlimit="4" stroke-width="3.2813" stroke="#37352f" d="M32 15.97c-3.167-2.835-7.372-4.568-11.982-4.568s-8.815 1.733-12 4.583l0.017-0.015"></path>
<path fill="#37352f" d="M22.792 28l-2.792 3.062-2.771-3.062c0.655-0.821 1.656-1.343 2.779-1.343s2.124 0.522 2.773 1.336l0.006 0.007z"></path>
</svg>
