<!-- Generated by IcoMoon.io -->
<svg version="1.1" xmlns="http://www.w3.org/2000/svg" width="24" height="24" viewBox="0 0 24 24">
<title>k4</title>
<path fill="#37352f" d="M16.8 14.4l-1.8-2.4 1.8-2.4h-1.387l-1.425 1.8v-1.8h-1.2v4.8h1.2v-1.8l1.425 1.8h1.387zM11.212 13.612v-3.225q0-0.338-0.244-0.563t-0.581-0.225h-2.775v1.2h2.4v0.788h-1.613v0.825h1.613v0.788h-2.4v1.2h2.775q0.337 0 0.581-0.225t0.244-0.563zM17.587 4.8q0.638 0 1.125 0.487t0.488 1.125v11.175q0 0.637-0.488 1.125t-1.125 0.488h-11.175q-0.638 0-1.125-0.488t-0.488-1.125v-11.175q0-0.637 0.488-1.125t1.125-0.487h11.175z"></path>
</svg>
