<!-- Generated by IcoMoon.io -->
<svg version="1.1" xmlns="http://www.w3.org/2000/svg" width="24" height="24" viewBox="0 0 24 24">
<title>keyboard_hide</title>
<path fill="#37352f" d="M12 20.813l-3.188-3.225h6.375zM17.587 8.813v-1.613h-1.575v1.613h1.575zM17.587 11.212v-1.612h-1.575v1.612h1.575zM15.188 8.813v-1.613h-1.575v1.613h1.575zM15.188 11.212v-1.612h-1.575v1.612h1.575zM15.188 14.4v-1.612h-6.375v1.612h6.375zM7.988 8.813v-1.613h-1.575v1.613h1.575zM7.988 11.212v-1.612h-1.575v1.612h1.575zM8.813 9.6v1.612h1.575v-1.612h-1.575zM8.813 7.2v1.613h1.575v-1.613h-1.575zM11.212 9.6v1.612h1.575v-1.612h-1.575zM11.212 7.2v1.613h1.575v-1.613h-1.575zM18.413 4.8q0.637 0 1.106 0.487t0.469 1.125v7.988q0 0.638-0.469 1.125t-1.106 0.488h-12.825q-0.638 0-1.106-0.488t-0.469-1.125v-7.988q0-0.637 0.469-1.125t1.106-0.487h12.825z"></path>
</svg>
