<!-- Generated by IcoMoon.io -->
<svg version="1.1" xmlns="http://www.w3.org/2000/svg" width="24" height="24" viewBox="0 0 24 24">
<title>leak_add</title>
<path fill="#37352f" d="M13.612 19.2q0-2.325 1.631-3.956t3.956-1.631v1.575q-1.65 0-2.831 1.181t-1.181 2.831h-1.575zM16.8 19.2q0-0.975 0.713-1.688t1.688-0.713v2.4h-2.4zM10.387 19.2q0-3.638 2.588-6.225t6.225-2.588v1.612q-3 0-5.1 2.1t-2.1 5.1h-1.613zM10.387 4.8q0 2.325-1.631 3.956t-3.956 1.631v-1.575q1.65 0 2.831-1.181t1.181-2.831h1.575zM13.612 4.8q0 3.637-2.588 6.225t-6.225 2.588v-1.612q3 0 5.1-2.1t2.1-5.1h1.612zM7.2 4.8q0 0.975-0.712 1.688t-1.688 0.712v-2.4h2.4z"></path>
</svg>
