<!-- Generated by IcoMoon.io -->
<svg version="1.1" xmlns="http://www.w3.org/2000/svg" width="40" height="40" viewBox="0 0 40 40">
<title>li-basic_elaboration_cloud_noaccess</title>
<path fill="none" stroke-linejoin="miter" stroke-linecap="butt" stroke-miterlimit="10" stroke-width="1.25" stroke="#37352f" d="M24.5 29h7c2.283 0 4-1.791 4-4s-1.717-4-4-4c0-5.523-4.76-10-10.467-10-5.050 0-9.633 3.366-10.533 8 0 0-0.416 0-0.834 0-2.854 0-5.166 2.239-5.166 5s2.146 5 5 5h15"></path>
<path fill="none" stroke-linejoin="miter" stroke-linecap="butt" stroke-miterlimit="10" stroke-width="1.25" stroke="#37352f" d="M24.5 21c0 2.485-2.015 4.5-4.5 4.5s-4.5-2.015-4.5-4.5c0-2.485 2.015-4.5 4.5-4.5s4.5 2.015 4.5 4.5z"></path>
<path fill="none" stroke-linejoin="miter" stroke-linecap="butt" stroke-miterlimit="10" stroke-width="1.25" stroke="#37352f" d="M16.917 17.917l6.166 6.166"></path>
</svg>
