<!-- Generated by IcoMoon.io -->
<svg version="1.1" xmlns="http://www.w3.org/2000/svg" width="40" height="40" viewBox="0 0 40 40">
<title>li-basic_server_cloud</title>
<path fill="none" stroke-linejoin="miter" stroke-linecap="butt" stroke-miterlimit="10" stroke-width="1.25" stroke="#37352f" d="M6.5 24.5l3-20h21l3 20"></path>
<path fill="none" stroke-linejoin="miter" stroke-linecap="butt" stroke-miterlimit="10" stroke-width="1.25" stroke="#37352f" d="M6.5 24.5h27v11h-27v-11z"></path>
<path fill="none" stroke-linejoin="miter" stroke-linecap="butt" stroke-miterlimit="10" stroke-width="1.25" stroke="#37352f" d="M29.5 30c0 0.828-0.672 1.5-1.5 1.5s-1.5-0.672-1.5-1.5c0-0.828 0.672-1.5 1.5-1.5s1.5 0.672 1.5 1.5z"></path>
<path fill="none" stroke-linejoin="miter" stroke-linecap="butt" stroke-miterlimit="10" stroke-width="1.25" stroke="#37352f" d="M21.444 17.5h2.056c0.944 0 1.5-0.5 1.5-1.5 0-0.5-0.5-1.5-1.5-1.5 0-1.802-1.639-3-3.5-3-1.648 0-3.206 1.489-3.5 3v0c-1 0-1.5 1-1.5 1.5 0 1 0.5 1.5 1.5 1.5h5.217"></path>
</svg>
