<!-- Generated by IcoMoon.io -->
<svg version="1.1" xmlns="http://www.w3.org/2000/svg" width="40" height="40" viewBox="0 0 40 40">
<title>li-basic_settings</title>
<path fill="none" stroke-linejoin="miter" stroke-linecap="butt" stroke-miterlimit="10" stroke-width="1.25" stroke="#37352f" d="M22 21l2.5 2.5"></path>
<path fill="none" stroke-linejoin="miter" stroke-linecap="butt" stroke-miterlimit="10" stroke-width="1.25" stroke="#37352f" d="M35.5 31.5l-3 3-9.5-9.5 3-3 9.5 9.5z"></path>
<path fill="none" stroke-linejoin="miter" stroke-linecap="butt" stroke-miterlimit="10" stroke-width="1.25" stroke="#37352f" d="M10 12l3-3-5-3-1 1z"></path>
<path fill="none" stroke-linejoin="miter" stroke-linecap="butt" stroke-miterlimit="10" stroke-width="1.25" stroke="#37352f" d="M18 17l-6.5-6.5"></path>
<path fill="none" stroke-linejoin="miter" stroke-linecap="butt" stroke-miterlimit="10" stroke-width="1.25" stroke="#37352f" d="M33 10.25l-4 1.875-2-2.063 1.75-4.031c-5-0.001-6.25 2.469-6.25 4.969v2l-16.75 17-0.875 3 1.063 1 3.031-0.75 17.031-16.75h2c2.5 0 5-1.25 5-6.25v0z"></path>
</svg>
