<!-- Generated by IcoMoon.io -->
<svg version="1.1" xmlns="http://www.w3.org/2000/svg" width="40" height="40" viewBox="0 0 40 40">
<title>li-basic_cards_hearts</title>
<path fill="none" stroke-linejoin="miter" stroke-linecap="butt" stroke-miterlimit="10" stroke-width="1.25" stroke="#37352f" d="M26 33.5l-14-7 10-20 13.5 7z"></path>
<path fill="none" stroke-linejoin="miter" stroke-linecap="butt" stroke-miterlimit="10" stroke-width="1.25" stroke="#37352f" d="M19.949 11.002l-1.949-4.002-13.5 7 9 19.5 6.5-3.018"></path>
<path fill="none" stroke-linejoin="miter" stroke-linecap="butt" stroke-miterlimit="10" stroke-width="1.25" stroke="#37352f" d="M23 8.5l-0.5 1"></path>
<path fill="none" stroke-linejoin="miter" stroke-linecap="butt" stroke-miterlimit="10" stroke-width="1.25" stroke="#37352f" d="M7.5 15.5l-0.5-1"></path>
<path fill="none" stroke-linejoin="miter" stroke-linecap="butt" stroke-miterlimit="10" stroke-width="1.25" stroke="#37352f" d="M25.5 30.5l-0.5 1"></path>
<path fill="none" stroke-linejoin="miter" stroke-linecap="butt" stroke-miterlimit="10" stroke-width="1.25" stroke="#37352f" d="M20.5 16.5c-1.424 2.641 1.5 7.5 1.5 7.5s5.576 0.14 7-2.5c0.59-1.094 0.689-2.859-0.5-3.5-1.094-0.59-2.91-0.594-3.5 0.5 0.59-1.094 0.094-2.41-1-3-1.188-0.641-2.909-0.094-3.5 1z"></path>
</svg>
