<!-- Generated by IcoMoon.io -->
<svg version="1.1" xmlns="http://www.w3.org/2000/svg" width="40" height="40" viewBox="0 0 40 40">
<title>li-ecommerce_receipt_bath</title>
<path fill="none" stroke-linejoin="miter" stroke-linecap="butt" stroke-miterlimit="10" stroke-width="1.25" stroke="#37352f" d="M30 35.499v-31h-13l-7 7v24.001l2-1 2 1 2-1 2 1 2-1 2 1 2-1 2 1 2-1z"></path>
<path fill="none" stroke-linejoin="miter" stroke-linecap="butt" stroke-miterlimit="10" stroke-width="1.25" stroke="#37352f" d="M10 11.499h7v-7"></path>
<path fill="none" stroke-linejoin="miter" stroke-linecap="butt" stroke-miterlimit="10" stroke-width="1.25" stroke="#37352f" d="M17 28v-13"></path>
<path fill="none" stroke-linejoin="miter" stroke-linecap="butt" stroke-miterlimit="10" stroke-width="1.25" stroke="#37352f" d="M17 15.5h2.5c0 0 3 0 3 3 0 2.5-3 2.5-3 2.5h-2.5"></path>
<path fill="none" stroke-linejoin="miter" stroke-linecap="butt" stroke-miterlimit="10" stroke-width="1.25" stroke="#37352f" d="M17.5 21h2.5c0 0 3.5-0.113 3.5 3.5 0 3-3.5 3-3.5 3h-3"></path>
<path fill="none" stroke-linejoin="miter" stroke-linecap="butt" stroke-miterlimit="10" stroke-width="1.25" stroke="#37352f" d="M20 14v15"></path>
</svg>
