<!-- Generated by IcoMoon.io -->
<svg version="1.1" xmlns="http://www.w3.org/2000/svg" width="40" height="40" viewBox="0 0 40 40">
<title>li-ecommerce_ticket</title>
<path fill="none" stroke-linejoin="miter" stroke-linecap="butt" stroke-miterlimit="10" stroke-width="1.25" stroke="#37352f" d="M32.5 13c-0.752 0.752-1.352 1-2.5 1-2.295 0-4-1.705-4-4 0-1.148 0.248-1.748 1-2.5l-3-3-19.5 19.5 3 3c0.752-0.752 1.353-1 2.5-1 2.295 0 4 1.705 4 4 0 1.147-0.248 1.748-1 2.5l3 3 19.5-19.5-3-3z"></path>
<path fill="none" stroke-linejoin="miter" stroke-linecap="butt" stroke-miterlimit="10" stroke-width="1.25" stroke="#37352f" d="M17 11.5l2 2"></path>
<path fill="none" stroke-linejoin="miter" stroke-linecap="butt" stroke-miterlimit="10" stroke-width="1.25" stroke="#37352f" d="M26.5 21l2 2"></path>
<path fill="none" stroke-linejoin="miter" stroke-linecap="butt" stroke-miterlimit="10" stroke-width="1.25" stroke="#37352f" d="M20 14.5l2 2"></path>
<path fill="none" stroke-linejoin="miter" stroke-linecap="butt" stroke-miterlimit="10" stroke-width="1.25" stroke="#37352f" d="M23.5 18l2 2"></path>
</svg>
