<!-- Generated by IcoMoon.io -->
<svg version="1.1" xmlns="http://www.w3.org/2000/svg" width="24" height="24" viewBox="0 0 24 24">
<title>lightbulb_outline</title>
<path fill="#37352f" d="M14.288 12.862q1.725-1.2 1.725-3.262 0-1.65-1.181-2.831t-2.831-1.181-2.831 1.181-1.181 2.831q0 0.862 0.506 1.8t1.219 1.463l0.675 0.487v1.837h3.225v-1.837zM12 4.012q2.325 0 3.956 1.631t1.631 3.956q0 2.925-2.4 4.575v1.838q0 0.337-0.225 0.563t-0.563 0.225h-4.8q-0.338 0-0.563-0.225t-0.225-0.563v-1.838q-2.4-1.65-2.4-4.575 0-2.325 1.631-3.956t3.956-1.631zM9.6 19.2v-0.788h4.8v0.788q0 0.337-0.225 0.563t-0.563 0.225h-3.225q-0.338 0-0.563-0.225t-0.225-0.563z"></path>
</svg>
