<!-- Generated by IcoMoon.io -->
<svg version="1.1" xmlns="http://www.w3.org/2000/svg" width="24" height="24" viewBox="0 0 24 24">
<title>list_alt</title>
<path fill="#37352f" d="M7.988 14.4h1.613v1.613h-1.613v-1.613zM7.988 11.212h1.613v1.575h-1.613v-1.575zM7.988 7.988h1.613v1.613h-1.613v-1.613zM11.212 14.4h4.8v1.613h-4.8v-1.613zM11.212 11.212h4.8v1.575h-4.8v-1.575zM11.212 7.988h4.8v1.613h-4.8v-1.613zM18.487 4.8q0.263 0 0.488 0.206t0.225 0.506v12.975q0 0.263-0.225 0.488t-0.488 0.225h-12.975q-0.3 0-0.506-0.225t-0.206-0.488v-12.975q0-0.713 0.713-0.713h12.975zM17.587 6.413h-11.175v11.175h11.175v-11.175z"></path>
</svg>
