<!-- Generated by IcoMoon.io -->
<svg version="1.1" xmlns="http://www.w3.org/2000/svg" width="24" height="24" viewBox="0 0 24 24">
<title>live_help</title>
<path fill="#37352f" d="M14.438 10.613q0.75-0.75 0.75-1.8 0-1.313-0.938-2.269t-2.25-0.956-2.25 0.956-0.938 2.269h1.575q0-0.637 0.488-1.125t1.125-0.488 1.125 0.488 0.487 1.125-0.487 1.125l-0.975 1.012q-0.938 1.012-0.938 2.25v0.412h1.575q0-1.275 0.938-2.287zM12.788 16.8v-1.612h-1.575v1.612h1.575zM17.587 4.012q0.638 0 1.125 0.469t0.488 1.106v11.212q0 0.638-0.488 1.125t-1.125 0.488h-3.188l-2.4 2.4-2.4-2.4h-3.188q-0.675 0-1.144-0.469t-0.469-1.144v-11.212q0-0.675 0.469-1.125t1.144-0.45h11.175z"></path>
</svg>
