<!-- Generated by IcoMoon.io -->
<svg version="1.1" xmlns="http://www.w3.org/2000/svg" width="24" height="24" viewBox="0 0 24 24">
<title>local_atm</title>
<path fill="#37352f" d="M18.413 16.8v-9.6h-12.825v9.6h12.825zM18.413 5.588q0.675 0 1.125 0.469t0.45 1.144v9.6q0 0.675-0.45 1.144t-1.125 0.469h-12.825q-0.675 0-1.125-0.469t-0.45-1.144v-9.6q0-0.675 0.45-1.144t1.125-0.469h12.825zM11.212 16.013v-0.825h-1.612v-1.575h3.187v-0.825h-2.4q-0.338 0-0.563-0.225t-0.225-0.563v-2.4q0-0.337 0.225-0.563t0.563-0.225h0.825v-0.825h1.575v0.825h1.612v1.575h-3.188v0.825h2.4q0.337 0 0.563 0.225t0.225 0.563v2.4q0 0.338-0.225 0.563t-0.563 0.225h-0.825v0.825h-1.575z"></path>
</svg>
