<!-- Generated by IcoMoon.io -->
<svg version="1.1" xmlns="http://www.w3.org/2000/svg" width="24" height="24" viewBox="0 0 24 24">
<title>location_pin</title>
<path fill="#37352f" d="M12 4.012v0q-1.163 0-2.175 0.431t-1.781 1.2-1.2 1.781-0.431 2.175q0 1.050 0.281 2.025t0.844 1.837q0.563 0.938 1.256 1.763t1.256 1.762q0.3 0.45 0.506 0.881t0.431 0.919q0.113 0.225 0.225 0.506t0.3 0.488 0.488 0.206v0q0.3 0 0.487-0.206t0.3-0.488 0.225-0.506q0.225-0.487 0.431-0.919t0.506-0.881q0.563-0.9 1.256-1.744t1.256-1.781q0.563-0.862 0.844-1.837t0.281-2.025q0-1.162-0.431-2.175t-1.2-1.781-1.781-1.2-2.175-0.431zM12 11.813q-0.825 0-1.406-0.6t-0.581-1.425 0.581-1.406 1.406-0.581 1.406 0.581 0.581 1.406-0.581 1.425-1.406 0.6z"></path>
</svg>
