<!-- Generated by IcoMoon.io -->
<svg version="1.1" xmlns="http://www.w3.org/2000/svg" width="24" height="24" viewBox="0 0 24 24">
<title>loupe</title>
<path fill="#37352f" d="M12 18.413q2.625 0 4.519-1.894t1.894-4.519-1.894-4.519-4.519-1.894-4.519 1.894-1.894 4.519 1.894 4.519 4.519 1.894zM12 4.012q3.3 0 5.644 2.344t2.344 5.644v6.413q0 0.637-0.469 1.106t-1.106 0.469h-6.413q-3.3 0-5.644-2.344t-2.344-5.644 2.344-5.644 5.644-2.344zM12.788 7.988v3.225h3.225v1.575h-3.225v3.225h-1.575v-3.225h-3.225v-1.575h3.225v-3.225h1.575z"></path>
</svg>
