<!-- Generated by IcoMoon.io -->
<svg version="1.1" xmlns="http://www.w3.org/2000/svg" width="24" height="24" viewBox="0 0 24 24">
<title>luggage</title>
<path fill="#37352f" d="M16.013 7.2h-1.613v-2.4q0-0.338-0.244-0.563t-0.544-0.225h-3.225q-0.3 0-0.544 0.225t-0.244 0.563v2.4h-1.612q-0.638 0-1.106 0.469t-0.469 1.144v8.775q0 0.675 0.469 1.144t1.106 0.469q0 0.337 0.244 0.563t0.581 0.225q0.3 0 0.544-0.225t0.244-0.563h4.8q0 0.337 0.244 0.563t0.544 0.225q0.337 0 0.581-0.225t0.244-0.563q0.637 0 1.106-0.469t0.469-1.144v-8.775q0-0.675-0.469-1.144t-1.106-0.469zM10.012 16.8h-1.2v-7.2h1.2v7.2zM12.6 16.8h-1.2v-7.2h1.2v7.2zM13.2 7.2h-2.4v-1.987h2.4v1.987zM15.188 16.8h-1.2v-7.2h1.2v7.2z"></path>
</svg>
