<!-- Generated by IcoMoon.io -->
<svg version="1.1" xmlns="http://www.w3.org/2000/svg" width="24" height="24" viewBox="0 0 24 24">
<title>maps_ugc</title>
<path fill="#37352f" d="M12 4.012q-1.65 0-3.094 0.619t-2.55 1.725-1.725 2.55-0.619 3.094q0 0.938 0.206 1.8t0.544 1.65l-1.575 5.363 5.363-1.575q0.787 0.338 1.65 0.544t1.8 0.206q1.65 0 3.094-0.619t2.55-1.725 1.725-2.55 0.619-3.094-0.619-3.094-1.725-2.55-2.55-1.725-3.094-0.619zM15.188 12.788h-2.4v2.4h-1.575v-2.4h-2.4v-1.575h2.4v-2.4h1.575v2.4h2.4v1.575z"></path>
</svg>
