<!-- Generated by IcoMoon.io -->
<svg version="1.1" xmlns="http://www.w3.org/2000/svg" width="40" height="40" viewBox="0 0 40 40">
<title>mi-arrow-up</title>
<path fill="#37352f" d="M26.667 17.333c-0.4 0-0.667-0.133-0.933-0.4l-6.667-6.667c-0.533-0.533-0.533-1.333 0-1.867s1.333-0.533 1.867 0l6.667 6.667c0.533 0.533 0.533 1.333 0 1.867-0.267 0.267-0.533 0.4-0.933 0.4z"></path>
<path fill="#37352f" d="M13.333 17.333c-0.4 0-0.667-0.133-0.933-0.4-0.533-0.533-0.533-1.333 0-1.867l6.667-6.667c0.533-0.533 1.333-0.533 1.867 0s0.533 1.333 0 1.867l-6.667 6.667c-0.267 0.267-0.533 0.4-0.933 0.4z"></path>
<path fill="#37352f" d="M20 32c-0.8 0-1.333-0.533-1.333-1.333v-21.333c0-0.8 0.533-1.333 1.333-1.333s1.333 0.533 1.333 1.333v21.333c0 0.8-0.533 1.333-1.333 1.333z"></path>
</svg>
