<!-- Generated by IcoMoon.io -->
<svg version="1.1" xmlns="http://www.w3.org/2000/svg" width="40" height="40" viewBox="0 0 40 40">
<title>mi-bluetooth</title>
<path fill="#37352f" d="M20 21.333c-0.133 0-0.4 0-0.533-0.133-0.533-0.133-0.8-0.667-0.8-1.2v-13.333c0-0.533 0.267-1.067 0.8-1.2 0.533-0.267 1.067-0.133 1.467 0.267l6.667 6.667c0.533 0.533 0.533 1.333 0 1.867l-6.667 6.667c-0.267 0.267-0.533 0.4-0.933 0.4zM21.333 9.867v6.933l3.467-3.467-3.467-3.467z"></path>
<path fill="#37352f" d="M20 34.667c-0.133 0-0.4 0-0.533-0.133-0.533-0.133-0.8-0.667-0.8-1.2v-13.333c0-0.533 0.267-1.067 0.8-1.2 0.533-0.267 1.067-0.133 1.467 0.267l6.667 6.667c0.533 0.533 0.533 1.333 0 1.867l-6.667 6.667c-0.267 0.267-0.533 0.4-0.933 0.4zM21.333 23.2v6.933l3.467-3.467-3.467-3.467z"></path>
<path fill="#37352f" d="M20 21.333c-0.4 0-0.667-0.133-0.933-0.4l-6.667-6.667c-0.533-0.533-0.533-1.333 0-1.867s1.333-0.533 1.867 0l6.667 6.667c0.533 0.533 0.533 1.333 0 1.867-0.267 0.267-0.533 0.4-0.933 0.4z"></path>
<path fill="#37352f" d="M13.333 28c-0.4 0-0.667-0.133-0.933-0.4-0.533-0.533-0.533-1.333 0-1.867l6.667-6.667c0.533-0.533 1.333-0.533 1.867 0s0.533 1.333 0 1.867l-6.667 6.667c-0.267 0.267-0.533 0.4-0.933 0.4z"></path>
</svg>
