<!-- Generated by IcoMoon.io -->
<svg version="1.1" xmlns="http://www.w3.org/2000/svg" width="40" height="40" viewBox="0 0 40 40">
<title>mi-brush</title>
<path fill="#37352f" d="M17.333 28c-0.8 0-1.333-0.533-1.333-1.333 0-0.4-0.133-0.667-0.133-0.933-0.267-0.667-0.8-1.2-1.467-1.467-1.867-0.8-3.733 0.533-3.733 2.4 0 0.8-0.533 1.333-1.333 1.333s-1.333-0.533-1.333-1.333c0-2.933 2.4-5.333 5.333-5.333 0.667 0 1.333 0.133 2 0.4 1.333 0.533 2.4 1.6 2.933 2.933 0.267 0.533 0.4 1.333 0.4 2 0 0.8-0.667 1.333-1.333 1.333z"></path>
<path fill="#37352f" d="M5.333 36c-0.8 0-1.333-0.533-1.333-1.333s0.533-1.333 1.333-1.333c5.733 0 10.667-3.067 10.667-6.667 0-0.8 0.533-1.333 1.333-1.333s1.333 0.533 1.333 1.333c0 5.2-6 9.333-13.333 9.333z"></path>
<path fill="#37352f" d="M5.333 36c-0.8 0-1.333-0.533-1.333-1.333s0.533-1.333 1.333-1.333c1.067 0 2.667-2.533 2.667-6.667 0-0.8 0.533-1.333 1.333-1.333s1.333 0.533 1.333 1.333c0 5.333-2.267 9.333-5.333 9.333z"></path>
<path fill="#37352f" d="M17.067 26.533c-0.133 0-0.267 0-0.267 0-0.4-0.133-0.8-0.4-0.933-0.8-0.267-0.667-0.8-1.2-1.467-1.467-0.4-0.133-0.667-0.533-0.8-0.933s0-0.933 0.267-1.2l14.933-16.8c1.733-1.733 4.4-1.6 5.867 0 0.933 0.667 1.333 1.733 1.333 2.8s-0.4 2.133-1.2 2.933l-16.933 15.067c-0.267 0.267-0.533 0.4-0.8 0.4zM16.933 22.667c0.133 0.133 0.267 0.267 0.4 0.4l15.6-13.867c0.267-0.267 0.4-0.667 0.4-1.067s-0.133-0.8-0.4-1.067c-0.667-0.667-1.6-0.667-2.133 0l-13.867 15.6z"></path>
</svg>
