<!-- Generated by IcoMoon.io -->
<svg version="1.1" xmlns="http://www.w3.org/2000/svg" width="40" height="40" viewBox="0 0 40 40">
<title>mi-dollar</title>
<path fill="#37352f" d="M20 36c-8.8 0-16-7.2-16-16s7.2-16 16-16 16 7.2 16 16-7.2 16-16 16zM20 6.667c-7.333 0-13.333 6-13.333 13.333s6 13.333 13.333 13.333 13.333-6 13.333-13.333-6-13.333-13.333-13.333z"></path>
<path fill="#37352f" d="M20 21.333c-2.533 0-4.667-1.6-5.2-3.733-0.133-0.267-0.133-0.533-0.133-0.933 0-2.533 2.4-4.667 5.333-4.667s5.333 2.133 5.333 4.667c0 0.4 0 0.667-0.133 0.933-0.133 0.667-0.933 1.2-1.6 0.933-0.667-0.133-1.2-0.933-0.933-1.6 0-0.133 0-0.267 0-0.4 0-0.933-1.2-1.867-2.667-1.867s-2.667 0.933-2.667 2c0 0.133 0 0.267 0 0.4 0.267 0.933 1.333 1.6 2.667 1.6 0.8 0 1.333 0.533 1.333 1.333s-0.533 1.333-1.333 1.333z"></path>
<path fill="#37352f" d="M20 28c-2.933 0-5.333-2.133-5.333-4.667 0-0.4 0-0.667 0.133-0.933 0.133-0.667 0.933-1.2 1.6-0.933 0.667 0.133 1.2 0.933 0.933 1.6 0 0.133 0 0.267 0 0.4 0 1.067 1.2 2 2.667 2s2.667-0.933 2.667-2c0-0.133 0-0.267 0-0.4-0.267-0.933-1.333-1.6-2.667-1.6-0.8 0-1.333-0.533-1.333-1.333s0.533-1.333 1.333-1.333c2.533 0 4.667 1.6 5.2 3.733 0.133 0.133 0.133 0.4 0.133 0.8 0 2.533-2.4 4.667-5.333 4.667z"></path>
<path fill="#37352f" d="M20 30.667c-0.8 0-1.333-0.533-1.333-1.333v-2.667c0-0.8 0.533-1.333 1.333-1.333s1.333 0.533 1.333 1.333v2.667c0 0.8-0.533 1.333-1.333 1.333z"></path>
<path fill="#37352f" d="M20 14.667c-0.8 0-1.333-0.533-1.333-1.333v-2.667c0-0.8 0.533-1.333 1.333-1.333s1.333 0.533 1.333 1.333v2.667c0 0.8-0.533 1.333-1.333 1.333z"></path>
<path fill="#37352f" d="M24 18.667c-0.4 0-0.667-0.133-0.933-0.4s-0.4-0.533-0.4-0.933 0.133-0.667 0.4-0.933c0.533-0.533 1.333-0.533 1.867 0 0.267 0.267 0.4 0.533 0.4 0.933s-0.133 0.667-0.4 0.933c-0.267 0.267-0.533 0.4-0.933 0.4z"></path>
</svg>
