<!-- Generated by IcoMoon.io -->
<svg version="1.1" xmlns="http://www.w3.org/2000/svg" width="40" height="40" viewBox="0 0 40 40">
<title>mi-eye</title>
<path fill="#37352f" d="M20 25.333c-2.933 0-5.333-2.4-5.333-5.333s2.4-5.333 5.333-5.333 5.333 2.4 5.333 5.333-2.4 5.333-5.333 5.333zM20 17.333c-1.467 0-2.667 1.2-2.667 2.667s1.2 2.667 2.667 2.667 2.667-1.2 2.667-2.667-1.2-2.667-2.667-2.667z"></path>
<path fill="#37352f" d="M20 30.667c-10 0-15.6-9.6-15.867-10s-0.267-0.933 0-1.333c0.267-0.4 5.867-10 15.867-10s15.6 9.6 15.867 10c0.267 0.4 0.267 0.933 0 1.333s-5.867 10-15.867 10zM6.933 20c1.333 2 6 8 13.067 8s11.733-6 13.067-8c-1.333-2-6-8-13.067-8s-11.733 6-13.067 8z"></path>
</svg>
