<!-- Generated by IcoMoon.io -->
<svg version="1.1" xmlns="http://www.w3.org/2000/svg" width="40" height="40" viewBox="0 0 40 40">
<title>mi-quote</title>
<path fill="#37352f" d="M12 21.333c-3.733 0-6.667-2.933-6.667-6.667s2.933-6.667 6.667-6.667 6.667 2.933 6.667 6.667-2.933 6.667-6.667 6.667zM12 10.667c-2.267 0-4 1.733-4 4s1.733 4 4 4 4-1.733 4-4-1.733-4-4-4z"></path>
<path fill="#37352f" d="M8 32c-0.8 0-1.333-0.533-1.333-1.333s0.533-1.333 1.333-1.333c7.867 0 8-14.533 8-14.667 0-0.8 0.533-1.333 1.333-1.333s1.333 0.533 1.333 1.333c0 0.667-0.133 17.333-10.667 17.333z"></path>
<path fill="#37352f" d="M28 21.333c-3.733 0-6.667-2.933-6.667-6.667s2.933-6.667 6.667-6.667 6.667 2.933 6.667 6.667-2.933 6.667-6.667 6.667zM28 10.667c-2.267 0-4 1.733-4 4s1.733 4 4 4 4-1.733 4-4-1.733-4-4-4z"></path>
<path fill="#37352f" d="M24 32c-0.8 0-1.333-0.533-1.333-1.333s0.533-1.333 1.333-1.333c7.867 0 8-14.533 8-14.667 0-0.8 0.533-1.333 1.333-1.333s1.333 0.533 1.333 1.333c0 0.667-0.133 17.333-10.667 17.333z"></path>
</svg>
