<!-- Generated by IcoMoon.io -->
<svg version="1.1" xmlns="http://www.w3.org/2000/svg" width="40" height="40" viewBox="0 0 40 40">
<title>mi-settings</title>
<path fill="#37352f" d="M22.8 35.867l-0.133-1.6c-0.133-1.333-1.333-2.267-2.667-2.267s-2.4 0.933-2.667 2.267l-0.267 1.467-1.467-0.4c-2.533-0.667-4.933-2.133-6.933-4l-1.067-1.067 1.2-0.933c1.067-0.8 1.333-2.267 0.667-3.467-0.667-1.067-2.133-1.6-3.333-1.2l-1.467 0.533-0.133-1.2c-0.4-1.333-0.533-2.667-0.533-4s0.133-2.667 0.533-4l0.4-1.467 1.467 0.533c1.2 0.533 2.667 0 3.333-1.2s0.4-2.667-0.667-3.467l-1.333-0.8 1.067-1.067c2-1.867 4.267-3.2 6.933-4l1.467-0.4 0.133 1.6c0.133 1.333 1.333 2.267 2.667 2.267s2.4-0.933 2.667-2.267l0.267-1.467 1.467 0.4c2.533 0.667 4.933 2.133 6.933 4l1.067 1.067-1.2 0.933c-1.067 0.8-1.333 2.267-0.667 3.467 0.533 0.8 1.333 1.333 2.267 1.333v0c0.4 0 0.667 0 0.933-0.133l1.467-0.533 0.267 1.2c0.267 1.333 0.533 2.667 0.533 4s-0.133 2.667-0.533 4l-0.4 1.467-1.467-0.533c-1.2-0.533-2.667 0-3.333 1.2s-0.4 2.667 0.667 3.467l1.2 0.933-1.067 1.067c-1.867 1.867-4.267 3.2-6.933 4l-1.333 0.267zM20 29.333c2.133 0 4 1.2 4.8 3.067 1.2-0.533 2.4-1.2 3.467-2-1.2-1.6-1.333-3.867-0.267-5.733 1.067-1.733 3.067-2.8 5.067-2.667 0.267-0.667 0.267-1.333 0.267-2s0-1.333-0.133-2c-0.133 0-0.267 0-0.533 0v0c-1.867 0-3.733-1.067-4.667-2.667-1.067-1.867-0.933-4.133 0.267-5.733-1.067-0.8-2.267-1.6-3.467-2-0.8 1.867-2.667 3.067-4.8 3.067s-4-1.2-4.8-3.067c-1.333 0.4-2.533 1.2-3.6 2 1.2 1.6 1.333 3.867 0.267 5.733-1.067 1.733-3.067 2.8-5.067 2.667-0.133 0.667-0.133 1.333-0.133 2s0 1.333 0.133 2c2-0.133 4 0.8 5.067 2.667s0.933 4.133-0.267 5.733c1.067 0.8 2.267 1.6 3.467 2 0.933-1.867 2.8-3.067 4.933-3.067z"></path>
<path fill="#37352f" d="M20 25.333c-2.933 0-5.333-2.4-5.333-5.333s2.4-5.333 5.333-5.333 5.333 2.4 5.333 5.333-2.4 5.333-5.333 5.333zM20 17.333c-1.467 0-2.667 1.2-2.667 2.667s1.2 2.667 2.667 2.667 2.667-1.2 2.667-2.667-1.2-2.667-2.667-2.667z"></path>
</svg>
