<!-- Generated by IcoMoon.io -->
<svg version="1.1" xmlns="http://www.w3.org/2000/svg" width="40" height="40" viewBox="0 0 40 40">
<title>mi-update</title>
<path fill="#37352f" d="M20 33.333c-7.333 0-13.333-6-13.333-13.333 0-0.8 0.533-1.333 1.333-1.333s1.333 0.533 1.333 1.333c0 5.867 4.8 10.667 10.667 10.667s10.667-4.8 10.667-10.667-4.8-10.667-10.667-10.667c-3.6 0-6.933 1.733-8.8 4.8-0.533 0.533-1.333 0.667-1.867 0.267-0.667-0.4-0.8-1.2-0.4-1.867 2.4-3.6 6.667-5.867 11.067-5.867 7.333 0 13.333 6 13.333 13.333s-6 13.333-13.333 13.333z"></path>
<path fill="#37352f" d="M20 21.333c-0.8 0-1.333-0.533-1.333-1.333v-6.667c0-0.8 0.533-1.333 1.333-1.333s1.333 0.533 1.333 1.333v6.667c0 0.8-0.533 1.333-1.333 1.333z"></path>
<path fill="#37352f" d="M24 25.333c-0.4 0-0.667-0.133-0.933-0.4l-4-4c-0.533-0.533-0.533-1.333 0-1.867s1.333-0.533 1.867 0l4 4c0.533 0.533 0.533 1.333 0 1.867-0.267 0.267-0.533 0.4-0.933 0.4z"></path>
<path fill="#37352f" d="M14.667 14.667h-5.333c-0.8 0-1.333-0.533-1.333-1.333v-5.333c0-0.8 0.533-1.333 1.333-1.333s1.333 0.533 1.333 1.333v4h4c0.8 0 1.333 0.533 1.333 1.333s-0.533 1.333-1.333 1.333z"></path>
</svg>
