<!-- Generated by IcoMoon.io -->
<svg version="1.1" xmlns="http://www.w3.org/2000/svg" width="40" height="40" viewBox="0 0 40 40">
<title>mi-wand</title>
<path fill="#37352f" d="M8 36c-0.4 0-0.667-0.133-0.933-0.4l-2.667-2.667c-0.533-0.533-0.533-1.333 0-1.867s1.333-0.533 1.867 0l2.667 2.667c0.533 0.533 0.533 1.333 0 1.867-0.267 0.267-0.533 0.4-0.933 0.4z"></path>
<path fill="#37352f" d="M8 36c-0.4 0-0.667-0.133-0.933-0.4-0.533-0.533-0.533-1.333 0-1.867l26.667-26.667c0.533-0.533 1.333-0.533 1.867 0s0.533 1.333 0 1.867l-26.667 26.667c-0.267 0.267-0.533 0.4-0.933 0.4z"></path>
<path fill="#37352f" d="M34.667 9.333c-0.4 0-0.667-0.133-0.933-0.4l-2.667-2.667c-0.533-0.533-0.533-1.333 0-1.867s1.333-0.533 1.867 0l2.667 2.667c0.533 0.533 0.533 1.333 0 1.867-0.267 0.267-0.533 0.4-0.933 0.4z"></path>
<path fill="#37352f" d="M5.333 33.333c-0.4 0-0.667-0.133-0.933-0.4-0.533-0.533-0.533-1.333 0-1.867l26.667-26.667c0.533-0.533 1.333-0.533 1.867 0s0.533 1.333 0 1.867l-26.667 26.667c-0.267 0.267-0.533 0.4-0.933 0.4z"></path>
<path fill="#37352f" d="M29.333 14.667c-0.4 0-0.667-0.133-0.933-0.4l-2.667-2.667c-0.533-0.533-0.533-1.333 0-1.867s1.333-0.533 1.867 0l2.667 2.667c0.533 0.533 0.533 1.333 0 1.867-0.267 0.267-0.533 0.4-0.933 0.4z"></path>
<path fill="#37352f" d="M24 28c-0.8 0-1.333-0.533-1.333-1.333v-2.667c0-0.8 0.533-1.333 1.333-1.333s1.333 0.533 1.333 1.333v2.667c0 0.8-0.533 1.333-1.333 1.333z"></path>
<path fill="#37352f" d="M24 9.333c-0.8 0-1.333-0.533-1.333-1.333v-2.667c0-0.8 0.533-1.333 1.333-1.333s1.333 0.533 1.333 1.333v2.667c0 0.8-0.533 1.333-1.333 1.333z"></path>
<path fill="#37352f" d="M16 17.333h-2.667c-0.8 0-1.333-0.533-1.333-1.333s0.533-1.333 1.333-1.333h2.667c0.8 0 1.333 0.533 1.333 1.333s-0.533 1.333-1.333 1.333z"></path>
<path fill="#37352f" d="M34.667 17.333h-2.667c-0.8 0-1.333-0.533-1.333-1.333s0.533-1.333 1.333-1.333h2.667c0.8 0 1.333 0.533 1.333 1.333s-0.533 1.333-1.333 1.333z"></path>
<path fill="#37352f" d="M18.4 11.733c-0.4 0-0.667-0.133-0.933-0.4l-2.933-2.933c-0.533-0.533-0.533-1.333 0-1.867s1.333-0.533 1.867 0l2.8 2.8c0.533 0.533 0.533 1.333 0 1.867-0.133 0.4-0.533 0.533-0.8 0.533z"></path>
<path fill="#37352f" d="M32.533 25.867c-0.4 0-0.667-0.133-0.933-0.4l-2.8-2.8c-0.533-0.533-0.533-1.333 0-1.867s1.333-0.533 1.867 0l2.8 2.8c0.533 0.533 0.533 1.333 0 1.867-0.267 0.267-0.667 0.4-0.933 0.4z"></path>
</svg>
