<!-- Generated by IcoMoon.io -->
<svg version="1.1" xmlns="http://www.w3.org/2000/svg" width="24" height="24" viewBox="0 0 24 24">
<title>mic_off</title>
<path fill="#37352f" d="M5.813 4.8l13.388 13.387-1.013 1.013-3.337-3.338q-0.825 0.525-2.063 0.713v2.625h-1.575v-2.625q-1.987-0.3-3.394-1.819t-1.406-3.544h1.35q0 1.763 1.256 2.906t2.981 1.144q0.938 0 1.837-0.412l-1.313-1.313q-0.3 0.075-0.525 0.075-0.975 0-1.688-0.712t-0.713-1.688v-0.6l-4.8-4.8zM14.4 11.325l-4.8-4.762v-0.15q0-0.975 0.712-1.688t1.688-0.713 1.688 0.713 0.712 1.688v4.913zM17.587 11.212q0 1.388-0.712 2.625l-0.975-1.012q0.337-0.75 0.337-1.613h1.35z"></path>
</svg>
