<!-- Generated by IcoMoon.io -->
<svg version="1.1" xmlns="http://www.w3.org/2000/svg" width="24" height="24" viewBox="0 0 24 24">
<title>microwave</title>
<path fill="#37352f" d="M7.837 10.875l-1.125-1.125q0.188-0.225 0.694-0.581t1.181-0.356q0.488 0 0.844 0.169t0.619 0.356q0.375 0.263 0.563 0.263 0.225 0 0.45-0.188t0.3-0.3l1.125 1.125q-0.225 0.262-0.713 0.619t-1.162 0.356q-0.488 0-0.844-0.188t-0.619-0.338q-0.188-0.15-0.319-0.225t-0.244-0.075q-0.225 0-0.45 0.188t-0.3 0.3zM8.587 14.4q0.113 0 0.244 0.075t0.319 0.188q0.263 0.188 0.619 0.356t0.844 0.169q0.675 0 1.162-0.356t0.713-0.581l-1.125-1.125q-0.075 0.112-0.319 0.3t-0.431 0.188-0.563-0.262q-0.262-0.188-0.619-0.375t-0.844-0.188q-0.675 0-1.181 0.356t-0.694 0.619l1.125 1.125q0.075-0.112 0.3-0.3t0.45-0.188zM19.987 7.2v9.6q0 0.675-0.469 1.144t-1.106 0.469h-12.825q-0.637 0-1.106-0.469t-0.469-1.144v-9.6q0-0.675 0.469-1.144t1.106-0.469h12.825q0.637 0 1.106 0.469t0.469 1.144zM13.612 7.2h-8.025v9.6h8.025v-9.6zM17.587 15.188q0-0.3-0.225-0.544t-0.563-0.244-0.563 0.244-0.225 0.544q0 0.337 0.225 0.581t0.563 0.244 0.563-0.244 0.225-0.581zM17.587 12q0-0.337-0.225-0.563t-0.563-0.225-0.563 0.225-0.225 0.563 0.225 0.563 0.563 0.225 0.563-0.225 0.225-0.563zM17.587 7.988h-1.575v1.613h1.575v-1.613z"></path>
</svg>
