<!-- Generated by IcoMoon.io -->
<svg version="1.1" xmlns="http://www.w3.org/2000/svg" width="40" height="40" viewBox="0 0 40 40">
<title>mp-arrow_left_circle-4</title>
<path fill="#37352f" d="M27.329 8.137c1.247-1.247 3.275-1.247 4.521 0 1.247 1.247 1.247 3.277 0 4.522-1.245 1.247-3.274 1.247-4.521 0-1.247-1.246-1.247-3.275 0-4.522v0zM4.002 32.807c0.003 1.761 1.429 3.185 3.187 3.189l3.219 0.005c0.884 0.002 1.6-0.723 1.602-1.607 0-0.883-0.716-1.609-1.599-1.609h-0.958l16.904-16.901c2.858 1.682 6.73 0.988 8.701-2.164 1.253-2.002 1.255-4.641 0.005-6.643-2.279-3.652-7.147-4.052-9.995-1.203-2.105 2.106-2.411 5.304-0.969 7.756l-16.903 16.911v-0.958c0-0.883-0.707-1.596-1.589-1.596h-0.008c-0.882 0-1.602 0.716-1.6 1.601l0.002 3.219z"></path>
</svg>
