<!-- Generated by IcoMoon.io -->
<svg version="1.1" xmlns="http://www.w3.org/2000/svg" width="48" height="40" viewBox="0 0 48 40">
<title>mp-arrow_up-6</title>
<path fill="#37352f" d="M31.429 19.717v-11.151l-4.021 3.933c-0.573 0.561-1.49 0.561-2.065 0.002l-0.105-0.104c-0.59-0.574-0.596-1.521-0.015-2.103 1.95-1.954 3.531-3.546 5.374-5.397 1.19-1.193 3.128-1.196 4.32-0.003 1.854 1.858 3.537 3.547 5.426 5.437 0.567 0.568 0.581 1.486 0.027 2.066l-0.002 0.002c-0.578 0.606-1.542 0.613-2.127 0.015l-3.765-3.848v11.151c0 8.416-6.822 15.238-15.238 15.238v0c-8.416 0-15.238-6.822-15.238-15.238v-15.238h3.048v15.238c0 6.732 5.458 12.19 12.19 12.19v0c6.732 0 12.19-5.458 12.19-12.19z"></path>
</svg>
