<!-- Generated by IcoMoon.io -->
<svg version="1.1" xmlns="http://www.w3.org/2000/svg" width="40" height="40" viewBox="0 0 40 40">
<title>mp-arrow_inside-</title>
<path fill="#37352f" d="M35.588 35.288c0.567-0.628 0.546-1.599-0.046-2.202l-14.443-14.69-14.373-13.948c-0.626-0.608-1.624-0.595-2.24 0.022l-0.014 0.018c-0.624 0.625-0.623 1.639 0 2.263l28.685 28.725c0.647 0.648 1.7 0.62 2.314-0.058l0.118-0.131zM30.536 13.599c-0.711 0-1.067-0.852-0.564-1.356l5.502-5.509c0.624-0.624 0.624-1.634 0.002-2.258v0c-0.624-0.624-1.635-0.624-2.259 0.002l-5.5 5.509c-0.503 0.504-1.364 0.147-1.364-0.566v-3.801c0-0.883-0.698-1.615-1.579-1.615h0.008c-0.881 0-1.622 0.732-1.622 1.615v7.999c0 1.765 1.431 3.179 3.192 3.179h7.986c0.881 0 1.595-0.702 1.595-1.586v-0.002c0-0.883-0.714-1.61-1.595-1.61h-3.802zM5.599 26.392c-0.881 0-1.598-0.712-1.598-1.594v0.003c0-0.883 0.717-1.607 1.598-1.607h7.986c1.761 0 3.188 1.444 3.188 3.209v8c0 0.884-0.69 1.583-1.571 1.583h-0.008c-0.881 0-1.614-0.699-1.614-1.583v-3.806c0-0.712-0.859-1.070-1.362-0.566l-5.492 5.501c-0.623 0.624-1.633 0.624-2.258 0v-0.002c-0.624-0.624-0.624-1.639 0-2.264l5.489-5.501c0.503-0.504 0.147-1.374-0.564-1.374h-3.795z"></path>
</svg>
