<!-- Generated by IcoMoon.io -->
<svg version="1.1" xmlns="http://www.w3.org/2000/svg" width="40" height="40" viewBox="0 0 40 40">
<title>mp-arrow_right_circle-1</title>
<path fill="#37352f" d="M7.2 29.603c0-1.765 1.435-3.2 3.2-3.2s3.2 1.435 3.2 3.2c0 1.765-1.435 3.2-3.2 3.2s-3.2-1.435-3.2-3.2zM16.574 31.206h13.315l-1.81 1.808 2.262 2.262 5.658-5.658-0.016-0.016 0.016-0.016-5.658-5.656-2.262 2.264 1.81 1.811h-13.315c-0.714-3.2-3.195-4.802-6.174-4.802-3.534 0-6.4 2.864-6.4 6.4 0 3.534 2.866 6.4 6.4 6.4 2.979 0 5.461-1.598 6.174-4.798zM7.2 10.392c0-1.765 1.435-3.2 3.2-3.2s3.2 1.435 3.2 3.2c0 1.765-1.435 3.2-3.2 3.2s-3.2-1.435-3.2-3.2zM16.574 12.006h13.315l-1.81 1.803 2.262 2.258 5.658-5.658-0.016-0.018 0.016-0.014-5.658-5.658-2.262 2.27 1.81 1.816h-13.315c-0.714-3.2-3.195-4.806-6.174-4.806-3.534 0-6.4 2.861-6.4 6.395s2.866 6.406 6.4 6.406c2.979 0 5.461-1.595 6.174-4.795z"></path>
</svg>
