<!-- Generated by IcoMoon.io -->
<svg version="1.1" xmlns="http://www.w3.org/2000/svg" width="36" height="40" viewBox="0 0 36 40">
<title>mp-arrow_up-3</title>
<path fill="#37352f" d="M30.117 27.757l-2.36 2.259c-0.511 0.483-1.326 0.122-1.326-0.581v-23.835c0-0.883-0.743-1.6-1.627-1.6h0.013c-0.884 0-1.588 0.717-1.588 1.6v23.811c0 0.706-0.874 1.066-1.382 0.576l-2.341-2.246c-0.637-0.608-1.657-0.581-2.259 0.064l-0.008 0.003c-0.596 0.637-0.565 1.637 0.069 2.235l5.344 5.083c1.238 1.17 3.175 1.163 4.408-0.011l5.248-5.038c0.628-0.598 0.658-1.589 0.067-2.224l-0.016-0.016c-0.597-0.643-1.603-0.678-2.243-0.080zM4.44 12.164l-0.016-0.016c-0.591-0.635-0.56-1.626 0.067-2.224l5.248-5.038c1.233-1.176 3.17-1.181 4.409-0.013l5.344 5.085c0.634 0.598 0.666 1.597 0.070 2.234l-0.005 0.005c-0.602 0.645-1.616 0.672-2.253 0.062l-2.326-2.245c-0.509-0.49-1.358-0.13-1.358 0.576v23.811c0 0.883-0.716 1.6-1.601 1.6-0.884 0-1.601-0.717-1.601-1.6v-23.835c0-0.702-0.841-1.064-1.351-0.581l-2.386 2.259c-0.64 0.598-1.646 0.563-2.243-0.080z"></path>
</svg>
