<!-- Generated by IcoMoon.io -->
<svg version="1.1" xmlns="http://www.w3.org/2000/svg" width="40" height="40" viewBox="0 0 40 40">
<title>mp-arrow_up-17</title>
<path fill="#37352f" d="M32.8 28c0-0.883-0.717-1.6-1.6-1.6h-22.4c-0.883 0-1.6 0.717-1.6 1.6v3.2c0 0.883 0.717 1.6 1.6 1.6h22.4c0.883 0 1.6-0.717 1.6-1.6v-3.2zM36 26.4v6.4c0 1.768-1.432 3.2-3.2 3.2h-25.6c-1.766 0-3.2-1.432-3.2-3.2v-6.4c0-1.768 1.434-3.2 3.2-3.2h25.6c1.768 0 3.2 1.432 3.2 3.2v0zM12.448 12.564c-0.597-0.603-0.597-1.584 0-2.187 0.818-0.829 4.57-4.632 5.397-5.47 1.19-1.208 3.123-1.208 4.314 0l5.4 5.47c0.595 0.605 0.6 1.584 0.005 2.187-0.597 0.605-1.554 0.605-2.149 0l-2.549-2.603c-0.482-0.486-1.266-0.142-1.266 0.547v7.946c0 0.854-0.757 1.547-1.6 1.547s-1.6-0.693-1.6-1.547v-7.942c0-0.69-0.784-1.034-1.266-0.547l-2.528 2.6c-0.597 0.605-1.563 0.605-2.158 0v0z"></path>
</svg>
