<!-- Generated by IcoMoon.io -->
<svg version="1.1" xmlns="http://www.w3.org/2000/svg" width="29" height="40" viewBox="0 0 29 40">
<title>mp-arrow_right_double-2</title>
<path fill="#37352f" d="M14.147 24.567c-0.447-0.44-1.17-0.44-1.616 0-0.447 0.44-0.447 1.151 0 1.59l1.922 1.755c0.36 0.354 0.105 0.823-0.405 0.823h-6.621c-0.631 0-1.143-0.23-1.143-0.851v-15.739c0-0.622 0.512-1.397 1.143-1.397h14.621c0.51 0 0.765 0.742 0.405 1.096l-1.922 1.96c-0.447 0.438-0.447 1.185 0 1.623 0.446 0.44 1.169 0.456 1.616 0.017l4.041-3.966c0.893-0.878 0.893-2.297 0-3.175-0.626-0.612-3.41-3.351-4.041-3.972-0.447-0.44-1.17-0.438-1.616 0-0.447 0.44-0.447 1.151 0 1.591l1.922 1.755c0.36 0.354 0.105 0.823-0.405 0.823h-15.763c-1.262 0-2.286 1.279-2.286 2.522v17.988c0 1.241 1.024 1.975 2.286 1.975h7.763c0.51 0 0.765 0.742 0.405 1.096l-1.922 1.96c-0.447 0.438-0.447 1.185 0 1.623 0.446 0.44 1.169 0.456 1.616 0.017 0.63-0.618 3.416-3.354 4.041-3.962 0.893-0.878 0.893-2.299 0-3.177l-4.041-3.973z"></path>
</svg>
