<!-- Generated by IcoMoon.io -->
<svg version="1.1" xmlns="http://www.w3.org/2000/svg" width="40" height="40" viewBox="0 0 40 40">
<title>mp-arrow_left_down_right_up-2</title>
<path fill="#37352f" d="M4 32.8c0 1.768 0.99 3.2 2.758 3.2h8c0.883 0 1.6-0.717 1.6-1.6s-0.717-1.6-1.6-1.6h-3.806c-0.712 0-1.069-0.862-0.565-1.366l4.84-4.84c0.624-0.624 0.624-1.637 0-2.262-0.626-0.624-1.638-0.624-2.262 0l-4.619 4.84c-0.504 0.504-1.146 0.147-1.146-0.565v-3.806c0-0.883-0.938-1.6-1.821-1.6h0.11c-0.883 0-1.49 0.717-1.49 1.6v8zM24.358 4c-0.883 0-1.6 0.717-1.6 1.6s0.717 1.6 1.6 1.6h3.806c0.712 0 1.069 0.862 0.565 1.366l-4.84 4.84c-0.624 0.624-0.624 1.637 0 2.262 0.626 0.624 1.638 0.624 2.262 0l5.061-4.84c0.504-0.504 1.587-0.147 1.587 0.565v3.806c0 0.883 0.496 1.6 1.379 1.6h0.11c0.883 0 1.71-0.717 1.71-1.6v-8c0-1.768-1.874-3.2-3.642-3.2h-8z"></path>
</svg>
