<!-- Generated by IcoMoon.io -->
<svg version="1.1" xmlns="http://www.w3.org/2000/svg" width="40" height="40" viewBox="0 0 40 40">
<title>mp-arrow_inside-2</title>
<path fill="#37352f" d="M21.6 5.6c0-0.883-0.717-1.6-1.6-1.6s-1.6 0.717-1.6 1.6v28.8c0 0.883 0.717 1.6 1.6 1.6s1.6-0.717 1.6-1.6v-28.8zM34.4 18.4h-3.418c-0.712 0-1.069-0.861-0.565-1.366l2.69-2.69c0.626-0.626 0.626-1.638 0-2.262v-0.002c-0.626-0.624-1.638-0.624-2.262 0l-5.659 5.659c-1.248 1.248-1.248 3.274 0 4.522 1.877 1.877 3.461 3.461 5.659 5.659 0.624 0.624 1.637 0.624 2.262 0 0.624-0.624 0.624-1.637 0-2.262l-2.693-2.691c-0.504-0.504-0.147-1.366 0.566-1.366h3.419c0.883 0 1.6-0.717 1.6-1.6v0c0-0.883-0.717-1.6-1.6-1.6v0zM9.155 12.080c-0.626-0.624-1.638-0.624-2.264 0.002-0.624 0.624-0.624 1.637 0 2.262l2.69 2.69c0.504 0.506 0.147 1.366-0.565 1.366h-3.416c-0.883 0-1.6 0.717-1.6 1.6s0.717 1.6 1.6 1.6h3.419c0.712 0 1.069 0.862 0.565 1.366l-2.693 2.691c-0.624 0.626-0.624 1.638 0 2.262 0.626 0.626 1.638 0.626 2.262 0l5.659-5.659c1.248-1.248 1.248-3.274 0-4.522-0.909-0.909-1.096-1.096-5.658-5.659v0z"></path>
</svg>
