<!-- Generated by IcoMoon.io -->
<svg version="1.1" xmlns="http://www.w3.org/2000/svg" width="40" height="40" viewBox="0 0 40 40">
<title>mp-basketball-2</title>
<path fill="#37352f" d="M30.4 27.434c-1.498-2.090-2.39-4.638-2.398-7.398 1.595 0.278 3.174 0.653 4.741 1.098-0.206 2.338-1.045 4.491-2.342 6.301v0zM21.6 32.69v-13.307c1.075 0.037 2.149 0.107 3.221 0.218-0.005 0.134-0.021 0.266-0.021 0.4 0 3.709 1.274 7.112 3.39 9.826-1.834 1.531-4.102 2.55-6.59 2.864v0zM21.6 7.31c2.488 0.314 4.757 1.333 6.59 2.864-1.414 1.813-2.446 3.936-2.976 6.253-1.203-0.126-2.406-0.206-3.614-0.245v-8.872zM30.4 12.566c1.091 1.522 1.854 3.288 2.192 5.202-1.386-0.362-2.779-0.672-4.186-0.912 0.398-1.565 1.078-3.014 1.994-4.29v0zM18.4 16.182c-1.208 0.038-2.411 0.118-3.614 0.245-0.53-2.317-1.562-4.44-2.976-6.253 1.834-1.531 4.102-2.55 6.59-2.864v8.872zM18.4 32.69c-2.488-0.314-4.757-1.333-6.59-2.864 2.117-2.714 3.39-6.117 3.39-9.826 0-0.134-0.016-0.266-0.021-0.4 1.072-0.11 2.146-0.181 3.221-0.218v13.307zM7.258 21.133c1.566-0.445 3.146-0.819 4.741-1.098-0.008 2.76-0.901 5.309-2.398 7.398-1.298-1.81-2.136-3.963-2.342-6.301v0zM9.6 12.566c0.915 1.275 1.595 2.725 1.994 4.29-1.406 0.24-2.8 0.55-4.186 0.912 0.338-1.914 1.101-3.68 2.192-5.202v0zM32.61 10.174c-0.659-0.845-1.397-1.622-2.21-2.318-2.798-2.398-6.426-3.856-10.4-3.856s-7.602 1.458-10.4 3.856c-0.813 0.696-1.55 1.474-2.21 2.318-2.117 2.714-3.39 6.117-3.39 9.826s1.274 7.112 3.39 9.826c0.659 0.845 1.397 1.622 2.21 2.318 2.798 2.398 6.426 3.856 10.4 3.856s7.602-1.458 10.4-3.856c0.813-0.696 1.55-1.474 2.21-2.318 2.117-2.714 3.39-6.117 3.39-9.826s-1.274-7.112-3.39-9.826v0z"></path>
</svg>
