<!-- Generated by IcoMoon.io -->
<svg version="1.1" xmlns="http://www.w3.org/2000/svg" width="40" height="40" viewBox="0 0 40 40">
<title>mp-bug_spider-2</title>
<path fill="#37352f" d="M26.4 10.4c0-1.768-1.432-3.2-3.2-3.2h-6.4c-1.768 0-3.2 1.432-3.2 3.2v19.2c0 1.768 1.432 3.2 3.2 3.2h6.4c1.768 0 3.2-1.432 3.2-3.2v-19.2zM29.6 13.6v1.6h4.8c0.883 0 1.6 0.717 1.6 1.6s-0.717 1.6-1.6 1.6h-4.8v3.2h4.8c0.883 0 1.6 0.717 1.6 1.6s-0.717 1.6-1.6 1.6h-4.8v1.6c3.534 0 6.4 2.866 6.4 6.4v1.6c0 0.883-0.717 1.6-1.6 1.6s-1.6-0.717-1.6-1.6v-1.6c0-1.768-1.432-3.2-3.2-3.2 0 3.534-2.866 6.4-6.4 6.4h-6.4c-3.534 0-6.4-2.866-6.4-6.4-1.768 0-3.2 1.432-3.2 3.2v1.6c0 0.883-0.717 1.6-1.6 1.6s-1.6-0.717-1.6-1.6v-1.6c0-3.534 2.866-6.4 6.4-6.4v-1.6h-4.8c-0.883 0-1.6-0.717-1.6-1.6s0.717-1.6 1.6-1.6h4.8v-3.2h-4.8c-0.883 0-1.6-0.717-1.6-1.6s0.717-1.6 1.6-1.6h4.8v-1.6c-3.534 0-6.4-2.866-6.4-6.4v-1.6c0-0.883 0.717-1.6 1.6-1.6s1.6 0.717 1.6 1.6v1.6c0 1.768 1.432 3.2 3.2 3.2 0-3.534 2.866-6.4 6.4-6.4h6.4c3.534 0 6.4 2.866 6.4 6.4 1.768 0 3.2-1.432 3.2-3.2v-1.6c0-0.883 0.717-1.6 1.6-1.6s1.6 0.717 1.6 1.6v1.6c0 3.534-2.866 6.4-6.4 6.4v0zM23.2 26.4c-0.883 0-1.6 0.717-1.6 1.6s0.717 1.6 1.6 1.6c0.883 0 1.6-0.717 1.6-1.6s-0.717-1.6-1.6-1.6v0zM18.4 28c0 0.883-0.717 1.6-1.6 1.6s-1.6-0.717-1.6-1.6c0-0.883 0.717-1.6 1.6-1.6s1.6 0.717 1.6 1.6v0z"></path>
</svg>
