<!-- Generated by IcoMoon.io -->
<svg version="1.1" xmlns="http://www.w3.org/2000/svg" width="40" height="40" viewBox="0 0 40 40">
<title>mp-cannon-1</title>
<path fill="#37352f" d="M24.8 15.2h3.2c0.883 0 1.6-0.717 1.6-1.6s-0.717-1.6-1.6-1.6h-3.2c-0.883 0-1.6 0.717-1.6 1.6s0.717 1.6 1.6 1.6v0zM34.4 4c-0.883 0-1.6 0.717-1.6 1.6v3.2c0 0.883 0.717 1.6 1.6 1.6s1.6-0.717 1.6-1.6v-3.2c0-0.883-0.717-1.6-1.6-1.6v0zM29.131 11.179c0.626 0.626 1.638 0.626 2.262 0 0.626-0.624 0.626-1.638 0-2.262l-2.262-2.262c-0.624-0.626-1.638-0.626-2.262 0-0.626 0.624-0.626 1.637 0 2.262l2.262 2.262zM32.8 20h-12.059c1.186 1.322 2.008 2.971 2.315 4.8h9.744v-4.8zM20 26.4c0-3.53-2.87-6.4-6.4-6.4s-6.4 2.87-6.4 6.4c0 3.53 2.87 6.4 6.4 6.4s6.4-2.87 6.4-6.4v0zM32.8 16.8h3.2v11.2h-12.944c-0.763 4.539-4.701 8-9.456 8-5.302 0-9.6-4.298-9.6-9.6 0-1.578 0.387-3.062 1.062-4.376-0.645-0.544-1.062-1.347-1.062-2.258 0-1.638 1.328-2.966 2.966-2.966 0.91 0 1.714 0.418 2.258 1.062 1.314-0.675 2.798-1.062 4.376-1.062h19.2zM16.8 26.4c0 1.768-1.432 3.2-3.2 3.2s-3.2-1.432-3.2-3.2c0-1.768 1.432-3.2 3.2-3.2s3.2 1.432 3.2 3.2v0z"></path>
</svg>
