<!-- Generated by IcoMoon.io -->
<svg version="1.1" xmlns="http://www.w3.org/2000/svg" width="40" height="40" viewBox="0 0 40 40">
<title>mp-coffee-</title>
<path fill="#37352f" d="M7.606 12.889c0.995 0 1.803-0.796 1.803-1.778v-5.333c0-0.981-0.808-1.778-1.803-1.778s-1.803 0.796-1.803 1.778v5.333c0 0.981 0.808 1.778 1.803 1.778v0zM29.239 20h-3.606v5.333h3.606c4.206 0 4.206-5.333 0-5.333v0zM22.028 20h-12.62c-0.995 0-1.803 0.796-1.803 1.778v3.25c0 3.714 2.753 7.031 6.503 7.383 4.302 0.405 7.92-2.919 7.92-7.077v-5.333zM29.239 28.888h-4.235c-1.621 4.514-6.22 7.637-11.477 7.038-5.511-0.629-9.528-5.495-9.528-10.967v-4.96c0-1.964 1.614-3.556 3.606-3.556h21.634c9.014 0 9.014 12.444 0 12.444v0zM22.028 12.889c0.995 0 1.803-0.796 1.803-1.778v-5.333c0-0.981-0.808-1.778-1.803-1.778s-1.803 0.796-1.803 1.778v5.333c0 0.981 0.808 1.778 1.803 1.778v0zM13.014 11.111v-5.333c0-0.981 0.808-1.778 1.803-1.778s1.803 0.796 1.803 1.778v5.333c0 0.981-0.808 1.778-1.803 1.778s-1.803-0.796-1.803-1.778v0z"></path>
</svg>
