<!-- Generated by IcoMoon.io -->
<svg version="1.1" xmlns="http://www.w3.org/2000/svg" width="40" height="40" viewBox="0 0 40 40">
<title>mp-cloud_up-2</title>
<path fill="#37352f" d="M20.010 13.608l-5.927 5.929 2.261 2.262 2.067-2.068v16.269h3.198v-16.269l2.067 2.068 2.261-2.262-5.927-5.929zM33.25 24.327c-2.809 2.417-5.589 2.076-8.443 2.076v-3.199c2.969 0 4.352 0.218 5.959-0.881 3.866-2.644 1.85-8.87-2.921-8.699-2.131-10.566-18.751-6.991-15.449 3.888-4.205-3.344-9.139 5.692-0.209 5.692h3.028v3.199h-4.475c-5.334 0-8.621-5.694-5.567-10.048 1.46-2.079 3.749-2.593 3.749-2.593 1.055-8.178 10.389-12.496 17.302-7.868 2.967 1.988 4.093 4.893 4.093 4.893 5.938 1.804 7.729 9.414 2.934 13.539v0z"></path>
</svg>
