<!-- Generated by IcoMoon.io -->
<svg version="1.1" xmlns="http://www.w3.org/2000/svg" width="40" height="40" viewBox="0 0 40 40">
<title>mp-connection_pattern-1</title>
<path fill="#37352f" d="M32.274 32.274c-0.626 0.626-1.643 0.626-2.269 0s-0.626-1.643 0-2.269c0.626-0.626 1.643-0.626 2.269 0s0.626 1.643 0 2.269zM21.134 21.134c-0.626 0.626-1.643 0.626-2.269 0s-0.626-1.643 0-2.269c0.626-0.626 1.643-0.626 2.269 0s0.626 1.643 0 2.269zM9.948 32.321c-0.626 0.626-1.643 0.626-2.269 0s-0.626-1.643 0-2.269c0.626-0.626 1.643-0.626 2.269 0s0.626 1.643 0 2.269zM9.995 9.995c-0.624 0.626-1.643 0.626-2.269 0s-0.626-1.643 0-2.269c0.626-0.626 1.645-0.626 2.269 0 0.626 0.626 0.626 1.643 0 2.269zM30.052 7.679c0.626-0.626 1.643-0.626 2.269 0s0.626 1.643 0 2.269c-0.626 0.626-1.643 0.626-2.269 0s-0.626-1.643 0-2.269zM29.079 26.809l-4.748-4.748c0.791-1.476 0.619-2.816 0-4.121l4.795-4.796c1.788 0.85 3.984 0.555 5.464-0.926 1.881-1.879 1.881-4.928 0-6.807-1.879-1.881-4.928-1.881-6.807 0-1.479 1.479-1.776 3.676-0.926 5.464l-4.796 4.796c-1.305-0.621-2.644-0.793-4.121 0l-4.748-4.748c0.666-1.605 0.554-3.986-0.926-5.465-1.881-1.881-4.929-1.881-6.809 0-1.881 1.881-1.881 4.928 0 6.809 1.479 1.479 3.861 1.592 5.465 0.926l4.748 4.748c-0.793 1.476-0.621 2.816 0 4.121l-4.796 4.796c-1.788-0.85-3.984-0.554-5.464 0.926-1.881 1.879-1.881 4.928 0 6.807 1.879 1.881 4.928 1.881 6.807 0 1.481-1.479 1.776-3.676 0.926-5.464l4.796-4.795c1.305 0.619 2.644 0.791 4.121 0l4.748 4.748c-0.664 1.603-0.554 3.984 0.927 5.464 1.879 1.881 4.928 1.881 6.807 0 1.881-1.879 1.881-4.928 0-6.807-1.479-1.481-3.861-1.593-5.464-0.928z"></path>
</svg>
