<!-- Generated by IcoMoon.io -->
<svg version="1.1" xmlns="http://www.w3.org/2000/svg" width="40" height="40" viewBox="0 0 40 40">
<title>mp-cart-</title>
<path fill="#37352f" d="M36 4h-9.6v19.2h-16v-9.6h9.6v-3.2h-12.8v16.294c-1.861 0.661-3.2 2.419-3.2 4.506 0 2.651 2.149 4.8 4.8 4.8s4.8-2.149 4.8-4.8c0-2.086-1.339-3.845-3.2-4.506v-0.294h16v0.294c-1.861 0.661-3.2 2.419-3.2 4.506 0 2.651 2.149 4.8 4.8 4.8s4.8-2.149 4.8-4.8c0-2.086-1.339-3.845-3.2-4.506v-19.494h6.4v-3.2zM8.8 29.522l0.528 0.187c0.534 0.19 1.072 0.725 1.072 1.491 0 0.882-0.718 1.6-1.6 1.6s-1.6-0.718-1.6-1.6c0-0.766 0.538-1.301 1.072-1.491l0.528-0.187zM28 29.522l0.528 0.187c0.534 0.19 1.072 0.725 1.072 1.491 0 0.882-0.718 1.6-1.6 1.6s-1.6-0.718-1.6-1.6c0-0.766 0.538-1.301 1.072-1.491l0.528-0.187z"></path>
</svg>
