<!-- Generated by IcoMoon.io -->
<svg version="1.1" xmlns="http://www.w3.org/2000/svg" width="40" height="40" viewBox="0 0 40 40">
<title>mp-cart-1</title>
<path fill="#37352f" d="M27.968 32.8c-0.881 0-1.599-0.718-1.599-1.6s0.718-1.6 1.599-1.6c0.881 0 1.599 0.718 1.599 1.6s-0.718 1.6-1.599 1.6v0zM10.415 23.2v-9.6h15.99v9.6h-15.99zM8.78 32.8c-0.881 0-1.599-0.718-1.599-1.6s0.718-1.6 1.599-1.6c0.881 0 1.599 0.718 1.599 1.6s-0.718 1.6-1.599 1.6v0zM29.604 7.2h6.396v-3.2h-9.594v6.4h-19.189v16.294c-1.599 0.661-3.217 2.419-3.217 4.506 0 2.651 2.14 4.8 4.789 4.8s4.81-2.149 4.81-4.8c0-2.086-1.585-3.845-3.184-4.506v-0.294h15.99v0.294c-1.599 0.661-3.217 2.419-3.217 4.506 0 2.651 2.14 4.8 4.789 4.8s4.81-2.149 4.81-4.8c0-2.086-1.585-3.845-3.184-4.506v-19.494z"></path>
</svg>
