<!-- Generated by IcoMoon.io -->
<svg version="1.1" xmlns="http://www.w3.org/2000/svg" width="43" height="40" viewBox="0 0 43 40">
<title>mp-call-1</title>
<path fill="#37352f" d="M25.334 8.267h12.8v-4.267h-12.8v4.267zM35.597 31.202c-0.017 0.049-0.047 0.141-0.081 0.245 0.038-0.117 0.068-0.205 0.081-0.245v0zM35.426 31.718c0.032-0.096 0.062-0.188 0.090-0.271-0.026 0.077-0.051 0.158-0.092 0.277-0.092 0.282-0.143 0.433-0.166 0.508 0.032-0.096 0.098-0.299 0.166-0.508-0.99 3.002-4.858 4.497-7.622 4.247-3.776-0.339-7.885-2.342-11.004-4.548-4.585-3.243-8.877-8.26-11.381-13.583-1.769-3.761-2.165-8.384 0.467-11.812 0.973-1.269 2.022-1.946 3.605-2.022 2.191-0.107 2.5 1.146 3.251 3.102 0.561 1.459 1.31 2.95 1.728 4.465 0.783 2.829-1.952 2.944-2.298 5.257-0.218 1.457 1.549 3.411 2.349 4.45 1.562 2.033 3.441 3.791 5.562 5.126 1.214 0.764 3.177 2.144 4.567 1.382 2.14-1.171 1.937-4.785 4.934-3.563 1.551 0.634 3.051 1.542 4.533 2.34 2.287 1.231 2.18 2.507 1.31 5.152v0z"></path>
</svg>
