<!-- Generated by IcoMoon.io -->
<svg version="1.1" xmlns="http://www.w3.org/2000/svg" width="40" height="40" viewBox="0 0 40 40">
<title>mp-cloud_down-2</title>
<path fill="#37352f" d="M21.619 29.869v-16.292h-3.203v16.292l-2.071-2.071-2.264 2.265 5.937 5.937 5.937-5.937-2.264-2.265-2.071 2.071zM27.657 26.39h-2.835v-3.203h3.033c6.816 0 6.326-9.821 0.010-9.594-2.247-11.135-18.625-6.483-15.475 3.894-2.354-1.871-5.708 0.248-5.117 3.162 0.602 2.957 3.861 2.539 6.779 2.539h1.161v3.203c-4.33 0-6.502 0.384-8.888-1.56-2.761-2.247-2.948-5.968-1.171-8.502 1.462-2.082 3.755-2.596 3.755-2.596 1.451-11.237 16.884-13.404 21.394-3.011-0.010-0.021 0 0.022 0.037 0.032 8.723 2.651 7 15.637-2.684 15.637v0z"></path>
</svg>
