<!-- Generated by IcoMoon.io -->
<svg version="1.1" xmlns="http://www.w3.org/2000/svg" width="57" height="40" viewBox="0 0 57 40">
<title>mp-cloud_plus-1</title>
<path fill="#37352f" d="M38.38 17.695h-2.292v-2.288c0-1.263-1.027-2.288-2.292-2.288s-2.292 1.025-2.292 2.288v2.288h-2.292c-1.265 0-2.292 1.025-2.292 2.288s1.027 2.288 2.292 2.288h2.292v2.288c0 1.263 1.027 2.288 2.292 2.288s2.292-1.025 2.292-2.288v-2.288h2.292c1.265 0 2.292-1.025 2.292-2.288s-1.027-2.288-2.292-2.288zM44.819 17.176c-2.993-12.253-19.913-10.166-21.751-1.11-0.309 1.517-0.516 3.009-0.653 4.203-0.131 1.151-1.128 2.002-2.287 2.002-1.302 0-2.345-1.071-2.31-2.368l0.048-1.75c-0.752-0.284-1.556-0.458-2.404-0.458-4.208 0-7.545 3.794-6.761 8.134 0.601 3.327 3.75 5.594 7.135 5.594l17.963-0.011c7.149-0.114 12.842-6.782 11.022-14.237zM49.714 19.983c0 8.761-6.75 15.868-15.918 16.005 0 0-0.044 0.002-0.069 0.005 0.025 0 0.046 0.007 0.069 0.007h-18.336c-6.328 0-11.46-5.123-11.46-11.441s5.132-11.441 11.46-11.441c1.24 0 2.411 0.247 3.53 0.611 6.778-15.939 30.724-11.198 30.724 6.253zM33.796 31.387v0.025c-0.062 0.002-0.121 0.011-0.183 0.011 0.126 0 0.183-0.032 0.183-0.037z"></path>
</svg>
