<!-- Generated by IcoMoon.io -->
<svg version="1.1" xmlns="http://www.w3.org/2000/svg" width="57" height="40" viewBox="0 0 57 40">
<title>mp-cloud_plus-</title>
<path fill="#37352f" d="M36.088 13.143h-4.584v4.571h-4.584v4.571h4.584v4.571h4.584v-4.571h4.584v-4.571h-4.584v-4.571zM44.819 17.195c-1.045-4.274-4.609-7.673-8.955-8.441-5.806-1.024-11.857 2.711-12.796 7.333-0.309 1.515-0.516 3.006-0.653 4.199-0.131 1.15-1.128 2-2.287 2-1.302 0-2.345-1.070-2.31-2.366l0.048-1.749c-0.752-0.283-1.556-0.457-2.404-0.457-4.208 0-7.545 3.79-6.761 8.126 0.601 3.323 3.75 5.589 7.135 5.589l17.963-0.011c7.149-0.114 12.842-6.775 11.022-14.222v0zM49.714 20c0 8.752-6.75 15.851-15.918 15.989 0 0-0.044 0.002-0.069 0.005 0.025 0 0.046 0.007 0.069 0.007h-18.336c-6.328 0-11.46-5.118-11.46-11.429s5.132-11.429 11.46-11.429c1.24 0 2.411 0.247 3.53 0.61 2.441-5.733 8.105-9.753 14.742-9.753 8.861 0 15.982 7.163 15.982 16v0zM33.796 31.392v0.025c-0.062 0.002-0.121 0.011-0.183 0.011 0.126 0 0.183-0.032 0.183-0.037v0z"></path>
</svg>
