<!-- Generated by IcoMoon.io -->
<svg version="1.1" xmlns="http://www.w3.org/2000/svg" width="40" height="40" viewBox="0 0 40 40">
<title>mp-clock-</title>
<path fill="#37352f" d="M32.8 20c0-7.058-5.742-12.8-12.8-12.8s-12.8 5.742-12.8 12.8c0 7.058 5.742 12.8 12.8 12.8s12.8-5.742 12.8-12.8zM36 20c0 8.837-7.163 16-16 16s-16-7.163-16-16c0-8.837 7.163-16 16-16s16 7.163 16 16zM29.6 21.6c0 0.883-0.717 1.6-1.6 1.6h-6.4c-1.768 0-3.2-1.432-3.2-3.2v-8c0-0.883 0.717-1.6 1.6-1.6s1.6 0.717 1.6 1.6v6.4c0 0.88 0.72 1.6 1.6 1.6h4.8c0.883 0 1.6 0.717 1.6 1.6z"></path>
</svg>
