<!-- Generated by IcoMoon.io -->
<svg version="1.1" xmlns="http://www.w3.org/2000/svg" width="40" height="40" viewBox="0 0 40 40">
<title>mp-clouds-3</title>
<path fill="#37352f" d="M13.198 31.006c0.626 0.626 0.626 1.638 0 2.262l-2.264 2.262c-0.626 0.626-1.64 0.626-2.264 0-0.626-0.624-0.626-1.637 0-2.262l2.264-2.262c0.624-0.626 1.638-0.626 2.264 0zM30.535 31.006c0.626 0.626 0.626 1.638 0 2.262l-2.264 2.262c-0.624 0.626-1.638 0.626-2.264 0-0.626-0.624-0.626-1.637 0-2.262l2.264-2.262c0.626-0.626 1.64-0.626 2.264 0zM21.866 31.006c0.626 0.626 0.626 1.638 0 2.262l-2.264 2.262c-0.626 0.626-1.64 0.626-2.264 0-0.626-0.624-0.626-1.637 0-2.262l2.264-2.262c0.626-0.626 1.64-0.626 2.264 0zM27.919 23.2h-17.316c-2.491 0-4.171-2.435-3.044-4.635 0.873-1.706 3.151-2.398 4.837-1.059-0.97-3.195 0.144-6.413 2.446-8.387 1.393-1.195 3.201-1.918 5.18-1.918 3.926 0 7.13 2.874 7.845 6.416 0.027 0 0.053-0.005 0.080-0.008 0.026-0.003 0.053-0.008 0.080-0.008 6.208 0 6.516 9.6-0.109 9.6zM30.343 10.781c-0.010-0.003-0.016-0.008-0.022-0.013-0.006-0.006-0.011-0.013-0.014-0.021-1.732-3.987-5.697-6.747-10.284-6.747-2.85 0-5.449 1.064-7.423 2.814-1.976 1.752-3.327 4.19-3.683 6.941-0.002 0.013-0.006 0.024-0.014 0.034-0.008 0.008-0.019 0.014-0.030 0.018-1.524 0.379-2.834 1.298-3.71 2.544-2.984 4.248 0.104 10.050 5.575 10.050h16.922c9.568 0 11.493-12.946 2.683-15.619z"></path>
</svg>
