<!-- Generated by IcoMoon.io -->
<svg version="1.1" xmlns="http://www.w3.org/2000/svg" width="40" height="40" viewBox="0 0 40 40">
<title>mp-celsius-</title>
<path fill="#37352f" d="M36 34.4c0 0.883-0.717 1.6-1.6 1.6h-1.6c-8.837 0-16-7.163-16-16s7.163-16 16-16h1.6c0.883 0 1.6 0.717 1.6 1.6s-0.717 1.6-1.6 1.6h-1.6c-7.069 0-12.8 5.731-12.8 12.8s5.731 12.8 12.8 12.8h1.6c0.883 0 1.6 0.717 1.6 1.6zM8.8 10.4c-0.883 0-1.6-0.717-1.6-1.6s0.717-1.6 1.6-1.6c0.883 0 1.6 0.717 1.6 1.6s-0.717 1.6-1.6 1.6zM10.4 4h-3.2c-1.768 0-3.2 1.432-3.2 3.2v3.2c0 1.766 1.432 3.2 3.2 3.2h3.2c1.768 0 3.2-1.434 3.2-3.2v-3.2c0-1.768-1.432-3.2-3.2-3.2z"></path>
</svg>
