<!-- Generated by IcoMoon.io -->
<svg version="1.1" xmlns="http://www.w3.org/2000/svg" width="40" height="40" viewBox="0 0 40 40">
<title>mp-contrast-1</title>
<path fill="#37352f" d="M29.051 29.050c-4.99 4.99-13.112 4.99-18.102 0s-4.99-13.112 0-18.102c0.024-0.022 0.048-0.046 0.072-0.069l18.101 18.099c-0.024 0.024-0.046 0.048-0.070 0.072zM32.088 30.482c4.166-4.795 5.005-11.478 2.514-17.034-0.734-1.766-1.798-3.416-3.218-4.834-1.418-1.419-3.067-2.483-4.835-3.218-5.555-2.49-12.237-1.651-17.030 2.514-0.262 0.226-0.517 0.459-0.762 0.704h0.002c-0.024 0.024-0.048 0.046-0.072 0.070-6.248 6.248-6.248 16.379 0 22.627s16.379 6.248 22.627 0c0.024-0.024 0.046-0.048 0.070-0.072v0.002c0.245-0.245 0.478-0.498 0.704-0.76z"></path>
</svg>
