<!-- Generated by IcoMoon.io -->
<svg version="1.1" xmlns="http://www.w3.org/2000/svg" width="40" height="40" viewBox="0 0 40 40">
<title>mp-cloud_connection-2</title>
<path fill="#37352f" d="M6.323 24.83c2.384 1.944 4.554 1.56 8.88 1.56v-3.203c-3.379 0-7.278 0.679-7.931-2.539-0.59-2.902 2.754-5.037 5.11-3.162-0.466-1.536-0.445-2.454-0.245-3.641 1.47-8.692 13.957-8.926 15.706-0.253 6.309-0.227 6.789 9.594 0.021 9.594h-3.061v3.203h2.834c9.562 0 11.483-12.961 2.68-15.637-0.037-0.010-0.046-0.053-0.037-0.032-4.506-10.393-19.925-8.226-21.374 3.011-0.006 0.059-0.094 0.062-0.045 0.051-4.998 1.244-6.645 7.697-2.538 11.047v0zM36.003 32.797v3.203h-32v-3.203h14.4v-19.22h3.2v19.22h14.4z"></path>
</svg>
