<!-- Generated by IcoMoon.io -->
<svg version="1.1" xmlns="http://www.w3.org/2000/svg" width="40" height="40" viewBox="0 0 40 40">
<title>mp-duplicate_round-</title>
<path fill="#37352f" d="M31.2 26.4h-1.6v-12.8c0-1.768-1.432-3.2-3.2-3.2h-12.8v-1.6c0-0.883 0.717-1.6 1.6-1.6h16c0.883 0 1.6 0.717 1.6 1.6v16c0 0.883-0.717 1.6-1.6 1.6v0zM26.4 26.4h-11.2c-0.883 0-1.6-0.717-1.6-1.6v-11.2h11.2c0.883 0 1.6 0.717 1.6 1.6v11.2zM24.8 32.8h-16c-0.883 0-1.6-0.717-1.6-1.6v-16c0-0.883 0.717-1.6 1.6-1.6h1.6v12.8c0 1.768 1.432 3.2 3.2 3.2h12.8v1.6c0 0.883-0.717 1.6-1.6 1.6v0zM32.8 4h-19.2c-1.768 0-3.2 1.432-3.2 3.2v3.2h-3.2c-1.768 0-3.2 1.432-3.2 3.2v19.2c0 1.768 1.432 3.2 3.2 3.2h19.2c1.768 0 3.2-1.432 3.2-3.2v-3.2h3.2c1.768 0 3.2-1.432 3.2-3.2v-19.2c0-1.768-1.432-3.2-3.2-3.2v0z"></path>
</svg>
