<!-- Generated by IcoMoon.io -->
<svg version="1.1" xmlns="http://www.w3.org/2000/svg" width="42" height="40" viewBox="0 0 42 40">
<title>mp-double_window-</title>
<path fill="#37352f" d="M32.054 13.6h-1.174v8.008c0 4.192-3.988 7.992-8.392 7.992h-8.408v1.118c0 2.917 2.483 5.282 5.546 5.282h12.429c3.063 0 5.546-2.365 5.546-5.282v-11.837c0-2.917-2.483-5.282-5.546-5.282zM21.974 26.4h-12.429c-3.063 0-5.546-2.365-5.546-5.282v-11.837c0-2.917 2.483-5.282 5.546-5.282h12.429c3.063 0 5.546 2.365 5.546 5.282v11.837c0 2.917-2.483 5.282-5.546 5.282z"></path>
</svg>
