<!-- Generated by IcoMoon.io -->
<svg version="1.1" xmlns="http://www.w3.org/2000/svg" width="40" height="40" viewBox="0 0 40 40">
<title>mp-directory_plus-</title>
<path fill="#37352f" d="M16.095 28.001h-4.095v-4c0-0.736-0.597-1.333-1.333-1.333s-1.333 0.597-1.333 1.333v4h-4c-0.728 0-1.323 0.585-1.333 1.313-0.011 0.744 0.589 1.353 1.333 1.353h4v4c0 0.736 0.597 1.333 1.333 1.333s1.333-0.597 1.333-1.333v-4h4.095c0.729 0 1.323-0.585 1.333-1.313 0.011-0.744-0.589-1.353-1.333-1.353zM36 12.001v16c0 1.472-1.213 2.667-2.687 2.667h-12c-0.736 0-1.333-0.597-1.333-1.333s0.597-1.333 1.333-1.333h10.667c0.737 0 1.353-0.597 1.353-1.333v-13.899c0-0.424-0.364-0.768-0.788-0.768h-9.085c-1.019 0-1.948-0.58-2.396-1.495l-1.513-3.092c-0.224-0.457-0.688-0.747-1.197-0.747h-5.040c-0.736 0-1.313 0.597-1.313 1.333v10.667c0 0.736-0.597 1.333-1.333 1.333s-1.333-0.597-1.333-1.333v-11.435c0-1.777 1.435-3.232 3.212-3.232h6.352c1.011 0 1.933 0.571 2.385 1.473l1.193 2.385c0.451 0.904 1.375 1.475 2.385 1.475h8.452c1.473 0 2.687 1.193 2.687 2.667z"></path>
</svg>
