<!-- Generated by IcoMoon.io -->
<svg version="1.1" xmlns="http://www.w3.org/2000/svg" width="40" height="40" viewBox="0 0 40 40">
<title>mp-directory_information-1</title>
<path fill="#37352f" d="M32.8 15.201c0-0.883-0.397-1.6-1.28-1.6h-11.2c-1.768 0-3.52-1.434-3.52-3.2v-1.6c0-0.883-0.397-1.6-1.28-1.6h-6.4c-0.883 0-1.92 0.717-1.92 1.6v22.4c0 0.883 1.037 1.6 1.92 1.6h9.28v-8c0-0.883 0.717-1.6 1.6-1.6s1.6 0.717 1.6 1.6v8h9.92c0.883 0 1.28-0.717 1.28-1.6v-16zM36 13.601v19.2c0 1.766-1.112 3.2-2.88 3.2h-25.6c-1.768 0-3.52-1.434-3.52-3.2v-25.6c0-1.768 1.752-3.2 3.52-3.2h9.6c1.768 0 2.88 1.432 2.88 3.2v1.6c0 0.883 1.037 1.6 1.92 1.6h11.2c1.768 0 2.88 1.432 2.88 3.2v0zM21.635 18.367c0 0.883-0.717 1.6-1.6 1.6s-1.6-0.717-1.6-1.6c0-0.883 0.717-1.6 1.6-1.6s1.6 0.717 1.6 1.6v0z"></path>
</svg>
