<!-- Generated by IcoMoon.io -->
<svg version="1.1" xmlns="http://www.w3.org/2000/svg" width="40" height="40" viewBox="0 0 40 40">
<title>mp-directory_plus-1</title>
<path fill="#37352f" d="M16.095 28.001h-4.095v-4c0-0.736-0.597-1.333-1.333-1.333s-1.333 0.597-1.333 1.333v4h-4c-0.728 0-1.323 0.585-1.333 1.313-0.011 0.744 0.589 1.353 1.333 1.353h4v4c0 0.736 0.597 1.333 1.333 1.333s1.333-0.597 1.333-1.333v-4h4.095c0.729 0 1.323-0.585 1.333-1.313 0.011-0.744-0.589-1.353-1.333-1.353zM36 12.001v16.267c0 1.325-1.095 2.4-2.42 2.4h-12.267c-0.736 0-1.333-0.597-1.333-1.333s0.597-1.333 1.333-1.333h10.933c0.589 0 1.087-0.477 1.087-1.067v-13.6c0-0.736-0.616-1.333-1.353-1.333h-9.333c-1.472 0-2.647-1.195-2.647-2.667v-1.6c0-0.589-0.497-1.067-1.087-1.067h-5.6c-0.736 0-1.313 0.597-1.313 1.333v10.667c0 0.736-0.597 1.333-1.333 1.333s-1.333-0.597-1.333-1.333v-11.733c0-1.62 1.293-2.933 2.913-2.933h7.733c1.473 0 2.687 1.193 2.687 2.667v1.067c0 0.88 0.7 1.6 1.58 1.6h9.067c1.473 0 2.687 1.193 2.687 2.667z"></path>
</svg>
