<!-- Generated by IcoMoon.io -->
<svg version="1.1" xmlns="http://www.w3.org/2000/svg" width="42" height="40" viewBox="0 0 42 40">
<title>mp-download-5</title>
<path fill="#37352f" d="M22.48 23.352v-12.952h-3.36v12.952l-4.034-3.883-2.169 2.325 7.883 7.474 7.98-7.067-1.724-2.731-4.576 3.883zM34.24 26.4h3.36v-12.8h-3.36v12.8zM34.24 32.8h-3.36v3.2h6.72v-6.4h-3.36v3.2zM30.88 4v3.2h3.36v3.2h3.36v-6.4h-6.72zM4 26.4h3.36v-12.8h-3.36v12.8zM7.36 29.6h-3.36v6.4h6.72v-3.2h-3.36v-3.2zM4 4v6.4h3.36v-3.2h3.36v-3.2h-6.72zM14.080 36h13.44v-3.2h-13.44v3.2zM14.080 7.2h13.44v-3.2h-13.44v3.2z"></path>
</svg>
