<!-- Generated by IcoMoon.io -->
<svg version="1.1" xmlns="http://www.w3.org/2000/svg" width="40" height="40" viewBox="0 0 40 40">
<title>mp-dice-5</title>
<path fill="#37352f" d="M26.4 16.968c-1.766 0-3.2 1.432-3.2 3.2s1.434 3.2 3.2 3.2c1.766 0 3.2-1.432 3.2-3.2s-1.434-3.2-3.2-3.2v0zM13.6 16.968c-1.766 0-3.2 1.432-3.2 3.2s1.434 3.2 3.2 3.2c1.766 0 3.2-1.432 3.2-3.2s-1.434-3.2-3.2-3.2v0zM32.8 8.8c0-0.883-0.717-1.6-1.6-1.6h-22.4c-0.883 0-1.6 0.717-1.6 1.6v22.4c0 0.885 0.717 1.6 1.6 1.6h22.4c0.883 0 1.6-0.715 1.6-1.6v-22.4zM36 7.2v25.6c0 1.768-1.434 3.2-3.2 3.2h-25.6c-1.766 0-3.2-1.432-3.2-3.2v-25.6c0-1.766 1.434-3.2 3.2-3.2h25.6c1.766 0 3.2 1.434 3.2 3.2v0zM13.6 8.968c-1.766 0-3.2 1.432-3.2 3.2s1.434 3.2 3.2 3.2c1.766 0 3.2-1.432 3.2-3.2s-1.434-3.2-3.2-3.2v0zM13.6 24.968c-1.766 0-3.2 1.432-3.2 3.2s1.434 3.2 3.2 3.2c1.766 0 3.2-1.432 3.2-3.2s-1.434-3.2-3.2-3.2v0zM26.4 8.968c-1.766 0-3.2 1.432-3.2 3.2s1.434 3.2 3.2 3.2c1.766 0 3.2-1.432 3.2-3.2s-1.434-3.2-3.2-3.2v0zM29.6 28.168c0 1.768-1.434 3.2-3.2 3.2s-3.2-1.432-3.2-3.2c0-1.768 1.434-3.2 3.2-3.2s3.2 1.432 3.2 3.2v0z"></path>
</svg>
