<!-- Generated by IcoMoon.io -->
<svg version="1.1" xmlns="http://www.w3.org/2000/svg" width="40" height="40" viewBox="0 0 40 40">
<title>mp-dice-2</title>
<path fill="#37352f" d="M18.4 24.968c0 1.768-1.434 3.2-3.2 3.2s-3.2-1.432-3.2-3.2c0-1.768 1.434-3.2 3.2-3.2s3.2 1.432 3.2 3.2v0zM28 15.368c0 1.768-1.434 3.2-3.2 3.2s-3.2-1.432-3.2-3.2c0-1.768 1.434-3.2 3.2-3.2s3.2 1.432 3.2 3.2v0zM32.8 31.2c0 0.885-0.717 1.6-1.6 1.6h-22.4c-0.883 0-1.6-0.715-1.6-1.6v-22.4c0-0.883 0.717-1.6 1.6-1.6h22.4c0.883 0 1.6 0.717 1.6 1.6v22.4zM32.8 4h-25.6c-1.766 0-3.2 1.434-3.2 3.2v25.6c0 1.768 1.434 3.2 3.2 3.2h25.6c1.768 0 3.2-1.432 3.2-3.2v-25.6c0-1.766-1.432-3.2-3.2-3.2v0z"></path>
</svg>
