<!-- Generated by IcoMoon.io -->
<svg version="1.1" xmlns="http://www.w3.org/2000/svg" width="40" height="40" viewBox="0 0 40 40">
<title>mp-emoji_happy_square_round-7</title>
<path fill="#37352f" d="M29.6 15.2c0 0.883-0.717 1.6-1.6 1.6h-3.2c-0.883 0-1.6-0.717-1.6-1.6s0.717-1.6 1.6-1.6h3.2c0.883 0 1.6 0.717 1.6 1.6v0zM16.8 15.2c0 0.883-0.717 1.6-1.6 1.6h-3.2c-0.883 0-1.6-0.717-1.6-1.6s0.717-1.6 1.6-1.6h3.2c0.883 0 1.6 0.717 1.6 1.6v0zM29.6 24.136v1.6c0 2.125-1.739 3.864-3.864 3.864h-11.139c-2.309 0-4.197-1.888-4.197-4.197v-1.267c0-0.883 0-1.558 1.6-1.558v0.042c1.6 0 1.6 0.798 1.6 1.683v0.165c0 0.885 0.717 1.933 1.6 1.933h8.936c1.245 0 2.264-1.019 2.264-2.264 0-0.883 0.717-1.6 1.6-1.6s1.6 0.717 1.6 1.6v0zM32.8 31.2c0 0.883-0.717 1.6-1.6 1.6h-22.4c-0.883 0-1.6-0.717-1.6-1.6v-22.4c0-0.883 0.717-1.6 1.6-1.6h22.4c0.883 0 1.6 0.717 1.6 1.6v22.4zM36 7.2c0-1.768-1.432-3.2-3.2-3.2h-25.6c-1.768 0-3.2 1.432-3.2 3.2v25.6c0 1.768 1.432 3.2 3.2 3.2h25.6c1.768 0 3.2-1.432 3.2-3.2v-25.6z"></path>
</svg>
