<!-- Generated by IcoMoon.io -->
<svg version="1.1" xmlns="http://www.w3.org/2000/svg" width="67" height="40" viewBox="0 0 67 40">
<title>mp-emoji_surprised_simple_glasses-</title>
<path fill="#37352f" d="M52 9.524h-10.667v8.287c0 1.525 1.195 2.762 2.667 2.762h8v-11.049zM20 9.524h-10.667v11.049h8c1.472 0 2.667-1.237 2.667-2.762v-8.287zM57.333 4v22.098h-16c-2.947 0-5.333-2.472-5.333-5.524v-11.049h-10.667v11.049c0 3.052-2.387 5.524-5.333 5.524h-16v-22.098h53.333zM36 30.476c0 3.052-2.387 5.524-5.333 5.524s-5.333-2.472-5.333-5.524c0-3.052 2.387-5.524 5.333-5.524s5.333 2.472 5.333 5.524v0z"></path>
</svg>
