<!-- Generated by IcoMoon.io -->
<svg version="1.1" xmlns="http://www.w3.org/2000/svg" width="40" height="40" viewBox="0 0 40 40">
<title>mp-emoji_sad-5</title>
<path fill="#37352f" d="M28 13.6c0.883 0 1.6 0.717 1.6 1.6s-0.717 1.6-1.6 1.6h-3.2c-0.883 0-1.6-0.717-1.6-1.6s0.717-1.6 1.6-1.6h3.2zM15.2 16.8h-3.2c-0.883 0-1.6-0.717-1.6-1.6s0.717-1.6 1.6-1.6h3.2c0.883 0 1.6 0.717 1.6 1.6s-0.717 1.6-1.6 1.6v0zM27.829 27.598c0.187 0.958-0.608 2.002-1.586 2.002h-12.486c-0.978 0-1.773-1.208-1.586-2.166 1.611-8.221 14.046-8.054 15.658 0.165v0zM32.8 30.55c0 0.885-0.717 2.25-1.6 2.25h-22.4c-0.883 0-1.6-1.365-1.6-2.25v-11.2c0-7.058 5.742-12.15 12.8-12.15s12.8 5.093 12.8 12.15v11.2zM32.8 9.781c-3.363-4.49-7.275-5.781-12.8-5.781-5.528 0-9.438 1.293-12.8 5.781-2 2.67-3.2 5.976-3.2 9.57v12.8c0 1.768 1.432 3.85 3.2 3.85h25.6c1.768 0 3.2-2.082 3.2-3.85v-12.8c0-3.594-1.2-6.899-3.2-9.57v0z"></path>
</svg>
