<!-- Generated by IcoMoon.io -->
<svg version="1.1" xmlns="http://www.w3.org/2000/svg" width="40" height="40" viewBox="0 0 40 40">
<title>mp-emoji_sad-10</title>
<path fill="#37352f" d="M29.6 15.2v3.2c0 0.883-0.717 1.6-1.6 1.6h-3.2c-0.88 0-1.6-0.72-1.6-1.6v-3.2c0-0.883 0.717-1.6 1.6-1.6h3.2c0.883 0 1.6 0.717 1.6 1.6v0zM12 20c-0.88 0-1.6-0.72-1.6-1.6v-3.2c0-0.883 0.717-1.6 1.6-1.6h3.2c0.883 0 1.6 0.717 1.6 1.6v3.2c0 0.883-0.717 1.6-1.6 1.6h-3.2zM28 29.6h-16c0-11.2 16-11.2 16 0v0zM32.8 9.765v9.571c0 7.058-5.742 13.464-12.8 13.464s-12.8-6.406-12.8-13.464v-11.2c0-0.883 0.717-0.936 1.6-0.936h22.4c0.883 0 1.6 0.053 1.6 0.936v1.629zM32.8 4h-25.6c-1.768 0-3.2 0.768-3.2 2.536v12.8c0 3.594 1.2 6.899 3.2 9.571 0.918 1.226 2.005 2.31 3.229 3.229 2.672 2 5.978 3.864 9.571 3.864s6.899-1.864 9.571-3.864c1.224-0.918 2.31-2.005 3.229-3.229 2-2.672 3.2-5.978 3.2-9.571v-12.8c0-1.768-1.432-2.536-3.2-2.536v0z"></path>
</svg>
