<!-- Generated by IcoMoon.io -->
<svg version="1.1" xmlns="http://www.w3.org/2000/svg" width="34" height="40" viewBox="0 0 34 40">
<title>mp-evernote-</title>
<path fill="#37352f" d="M9.781 10.198c0.174 0 0.316-0.141 0.316-0.31 0.005-2.598-0.321-3.667 0.412-5.022-0.011 0.002-0.023 0.008-0.034 0.019l-5.94 5.786c-0.011 0.010-0.018 0.022-0.021 0.035 1.531-0.746 2.682-0.507 5.268-0.507zM29.754 31.402c-1.472 4.485-2.727 4.598-6.289 4.598-4.545 0-5.935-0.662-5.935-4.234 0-3.934 1.884-4.018 5.085-3.93 0.459 0.010-0.028 0.451-0.028 1.213 0 0.766 0.301 1.069-0.112 1.069-0.927 0-2.175-0.128-2.175 1.114 0 1.534 0.751 1.488 2.718 1.488 2.426 0 2.89-0.293 2.89-2.464 0-3.57-1.027-4.104-2.443-4.264-1.566-0.181-3.107-0.387-3.851-0.645-1.882-0.656-1.821-3.747-1.821-3.747 0 1.6-0.524 3.742-0.938 4.552-0.589 1.218-1.579 0.75-3.157 0.552-1.583-0.198-4.955-0.89-6.432-1.51-0.663-0.302-0.887-0.589-1.225-1.275-0.84-1.702-2.024-8.317-2.042-10.018-0.002-0.678 0.070-1.344 0.477-1.882 1.011-1.336 3.151-0.947 5.445-0.947 0.666-0.002 1.203-0.531 1.205-1.184 0-2.874-0.264-3.808 0.366-4.694 0.366-0.515 1.024-0.85 1.619-1.013 0.747-0.206 3.662-0.386 5.546 0.36 0.708 0.28 1.34 1.090 1.472 1.974 1.097-0.032 2.913-0.046 4.458 0.133 1.92 0.221 3.449 0.499 4.201 0.766 0.699 0.248 1.472 0.877 1.715 2.154 0.633 3.331 1.47 15.079-0.751 21.834z"></path>
</svg>
