<!-- Generated by IcoMoon.io -->
<svg version="1.1" xmlns="http://www.w3.org/2000/svg" width="40" height="40" viewBox="0 0 40 40">
<title>mp-email-3</title>
<path fill="#37352f" d="M10.4 8.138c0-0.883 0.717-0.938 1.6-0.938h16c0.883 0 1.6 0.054 1.6 0.938v1.998l-8.885 4.443c-0.45 0.224-0.981 0.224-1.43 0l-8.885-4.443v-1.998zM7.642 12.334l10.928 5.464c0.901 0.451 1.96 0.451 2.861 0l10.928-5.464c0.27-0.134 0.442-0.411 0.442-0.715v-5.082c0-1.768-1.432-2.538-3.2-2.538h-19.2c-1.768 0-3.2 0.77-3.2 2.538v5.082c0 0.304 0.171 0.581 0.442 0.715v0zM32.8 30.538c0 0.883-0.717 2.262-1.6 2.262h-22.4c-0.883 0-1.6-1.379-1.6-2.262v-10.352c0-0.594 0.626-0.981 1.158-0.715 6.682 3.341 4.629 2.315 10.232 5.117 0.888 0.445 1.934 0.451 2.827 0.016 5.554-2.694 3.219-1.568 10.237-4.938 0.53-0.256 1.146 0.131 1.146 0.722v10.15zM31.37 16.029l-10.654 5.328c-0.45 0.224-0.981 0.224-1.43 0l-10.654-5.328c-2.126-1.062-4.63 0.485-4.63 2.862v13.246c0 1.768 1.432 3.862 3.2 3.862h25.6c1.768 0 3.2-2.094 3.2-3.862v-13.246c0-2.378-2.504-3.925-4.63-2.862v0z"></path>
</svg>
