<!-- Generated by IcoMoon.io -->
<svg version="1.1" xmlns="http://www.w3.org/2000/svg" width="40" height="40" viewBox="0 0 40 40">
<title>mp-folder-1</title>
<path fill="#37352f" d="M32.8 16.801h-25.6v-8c0-0.883 0.717-1.6 1.6-1.6h6.4c0.883 0 1.6 0.717 1.6 1.6v1.6c0 1.768 1.432 3.2 3.2 3.2h11.2c0.883 0 1.6 0.717 1.6 1.6v1.6zM32.8 31.201c0 0.883-0.717 1.6-1.6 1.6h-22.4c-0.883 0-1.6-0.717-1.6-1.6v-11.2h25.6v11.2zM32.8 10.401h-11.2c-0.883 0-1.6-0.717-1.6-1.6v-1.6c0-1.768-1.432-3.2-3.2-3.2h-9.6c-1.768 0-3.2 1.432-3.2 3.2v25.6c0 1.768 1.432 3.2 3.2 3.2h25.6c1.768 0 3.2-1.432 3.2-3.2v-19.2c0-1.768-1.432-3.2-3.2-3.2v0z"></path>
</svg>
