<!-- Generated by IcoMoon.io -->
<svg version="1.1" xmlns="http://www.w3.org/2000/svg" width="40" height="40" viewBox="0 0 40 40">
<title>mp-file_gif-</title>
<path fill="#37352f" d="M26.4 23.201v12.8h3.2v-3.2h6.4v-3.2h-6.4v-3.2h6.4v-3.2h-9.6zM4 29.601c0 3.534 2.866 6.4 6.4 6.4h3.2v-6.4h-3.2v3.368c-1.768 0-3.2-1.517-3.2-3.285 0-1.766 1.432-3.283 3.2-3.283h3.2v-3.2h-3.2c-3.534 0-6.4 2.866-6.4 6.4v0zM15.2 23.201v3.2h3.2v6.4h-3.2v3.2h9.6v-3.2h-3.2v-6.4h3.2v-3.2h-9.6zM36 14.302v5.699h-3.2v-3.2h-9.6v-9.6h-16v12.8h-3.2v-16h22.366l9.634 10.301z"></path>
</svg>
