<!-- Generated by IcoMoon.io -->
<svg version="1.1" xmlns="http://www.w3.org/2000/svg" width="40" height="40" viewBox="0 0 40 40">
<title>mp-file_missing-1</title>
<path fill="#37352f" d="M34.411 19.996c-0.878 0-1.59 0.717-1.59 1.599s0.712 1.599 1.59 1.599c0.878 0 1.59-0.717 1.59-1.599s-0.712-1.599-1.59-1.599v0zM21.691 32.792c-0.878 0-1.59 0.717-1.59 1.599s0.712 1.599 1.59 1.599c0.878 0 1.59-0.717 1.59-1.599s-0.712-1.599-1.59-1.599v0zM28.051 32.792c-0.878 0-1.59 0.717-1.59 1.599s0.712 1.599 1.59 1.599c0.878 0 1.59-0.717 1.59-1.599s-0.712-1.599-1.59-1.599v0zM34.411 32.792c-0.878 0-1.59 0.717-1.59 1.599s0.712 1.599 1.59 1.599c0.878 0 1.59-0.717 1.59-1.599s-0.712-1.599-1.59-1.599v0zM8.972 32.792c-0.878 0-1.59-0.717-1.59-1.599s-0.712-1.599-1.59-1.599h-0.102c-0.878 0-1.69 0.717-1.69 1.599v1.599h0.1c0 1.599 1.475 3.199 3.231 3.199h1.641c0.878 0 1.59-0.717 1.59-1.599s-0.712-1.599-1.59-1.599v0zM5.792 7.2c0.878 0 1.59-0.717 1.59-1.599s-0.712-1.599-1.59-1.599c-0.878 0-1.59 0.717-1.59 1.599s0.712 1.599 1.59 1.599v0zM34.411 26.394c-0.878 0-1.59 0.717-1.59 1.599s0.712 1.599 1.59 1.599c0.878 0 1.59-0.717 1.59-1.599s-0.712-1.599-1.59-1.599v0zM12.152 4.001c-0.878 0-1.59 0.717-1.59 1.599s0.712 1.599 1.59 1.599c0.878 0 1.59-0.717 1.59-1.599s-0.712-1.599-1.59-1.599v0zM18.512 4.001c-0.878 0-1.59 0.717-1.59 1.599s0.712 1.599 1.59 1.599c0.878 0 1.59-0.717 1.59-1.599s-0.712-1.599-1.59-1.599v0zM5.792 13.598c0.878 0 1.59-0.717 1.59-1.599s-0.712-1.599-1.59-1.599c-0.878 0-1.59 0.717-1.59 1.599s0.712 1.599 1.59 1.599v0zM5.792 26.394c0.878 0 1.59-0.717 1.59-1.599s-0.712-1.599-1.59-1.599c-0.878 0-1.59 0.717-1.59 1.599s0.712 1.599 1.59 1.599v0zM15.332 32.792c-0.878 0-1.59 0.717-1.59 1.599s0.712 1.599 1.59 1.599c0.878 0 1.59-0.717 1.59-1.599s-0.712-1.599-1.59-1.599v0zM34.411 16.797c0.878 0 1.388-0.717 1.388-1.599 0-0.709 0.108-1.591-0.366-2.068l-8.557-8.66c-0.585-0.589-1.149-0.469-2.005-0.469-0.878 0-1.792 0.717-1.792 1.599v7.998c0 1.766 1.625 3.199 3.382 3.199h7.95zM4.202 18.396c0-0.883 0.712-1.599 1.59-1.599s1.59 0.717 1.59 1.599c0 0.883-0.712 1.599-1.59 1.599s-1.59-0.717-1.59-1.599v0z"></path>
</svg>
