<!-- Generated by IcoMoon.io -->
<svg version="1.1" xmlns="http://www.w3.org/2000/svg" width="40" height="40" viewBox="0 0 40 40">
<title>mp-file_png-</title>
<path fill="#37352f" d="M21.6 29.768l-3.2-6.568h-3.2v12.8h3.2v-6.232l3.2 6.232h3.2v-12.8h-3.2v6.568zM26.4 29.6c0 3.534 2.866 6.4 6.4 6.4h3.2v-6.4h-3.2v3.368c-1.768 0-3.2-1.517-3.2-3.283 0-1.768 1.432-3.285 3.2-3.285h3.2v-3.2h-3.2c-3.534 0-6.4 2.866-6.4 6.4v0zM10.4 28.168c0-0.883-0.717-1.6-1.6-1.6h-1.6v3.2h1.6c0.883 0 1.6-0.717 1.6-1.6v0zM13.6 28c0 2.651-2.149 4.8-4.8 4.8h-1.6v3.2h-3.2v-12.8h4.8c2.651 0 4.8 2.149 4.8 4.8v0zM36 14.301v5.699h-3.2v-3.2h-9.6v-9.6h-16v12.8h-3.2v-16h22.366l9.634 10.301z"></path>
</svg>
