<!-- Generated by IcoMoon.io -->
<svg version="1.1" xmlns="http://www.w3.org/2000/svg" width="40" height="40" viewBox="0 0 40 40">
<title>mp-football-</title>
<path fill="#37352f" d="M20 22.263l-2.264-2.262 2.264-2.264 2.262 2.264-2.262 2.262zM13.211 20l6.789 6.787 6.787-6.787-6.787-6.789-6.789 6.789zM31.779 25.007l-2.179-1.534-6.4 4.856 1.174 3.685c-1.368 0.501-2.837 0.787-4.374 0.787-1.557 0-3.043-0.293-4.424-0.805l1.224-4.019-6.4-4.504-2.136 1.621c-0.682-1.562-1.064-3.283-1.064-5.093 0-1.656 0.326-3.234 0.901-4.686l2.299 1.691 6.4-5.094-1.208-3.912c1.376-0.507 2.858-0.798 4.408-0.798 1.571 0 3.069 0.298 4.461 0.818l-1.261 4.278 6.4 4.709 2.259-1.798c0.602 1.482 0.941 3.098 0.941 4.794 0 1.776-0.365 3.467-1.021 5.006v0zM27.256 30.533l-0.339-1.045 2.754-2.013 0.464 0.314c-0.813 1.054-1.779 1.984-2.878 2.744v0zM9.928 27.872l0.542-0.397 2.613 1.758-0.392 1.259c-1.048-0.731-1.976-1.616-2.763-2.621v0zM12.698 9.503l0.386 1.282-2.754 2.218-0.67-0.514c0.842-1.155 1.866-2.168 3.038-2.986v0zM30.275 12.4l-0.746 0.602-2.613-1.997 0.429-1.47c1.125 0.792 2.112 1.762 2.93 2.866v0zM34.443 13.151c-0.682-1.435-1.568-2.747-2.624-3.907-0.683-0.75-1.435-1.434-2.248-2.043-1.27-0.95-2.682-1.715-4.205-2.258-1.68-0.6-3.48-0.942-5.366-0.942-1.882 0-3.678 0.341-5.355 0.938-1.526 0.542-2.942 1.309-4.216 2.262-0.784 0.587-1.51 1.242-2.174 1.962-1.142 1.237-2.093 2.651-2.802 4.205-0.923 2.022-1.453 4.264-1.453 6.634 0 2.541 0.608 4.934 1.662 7.067 0.648 1.314 1.47 2.523 2.44 3.603 0.702 0.784 1.482 1.496 2.326 2.13 1.272 0.952 2.688 1.718 4.213 2.261 1.677 0.597 3.475 0.939 5.358 0.939 1.878 0 3.672-0.341 5.347-0.934 1.53-0.544 2.949-1.31 4.224-2.266 0.806-0.605 1.554-1.282 2.232-2.026 1.059-1.158 1.946-2.47 2.629-3.902 0.995-2.085 1.568-4.408 1.568-6.872 0-2.454-0.57-4.771-1.557-6.85v0z"></path>
</svg>
