<!-- Generated by IcoMoon.io -->
<svg version="1.1" xmlns="http://www.w3.org/2000/svg" width="44" height="40" viewBox="0 0 44 40">
<title>mp-file_minus-</title>
<path fill="#37352f" d="M38.73 13.093l-8.661-8.626c-0.299-0.299-0.706-0.467-1.13-0.467h-18.578c-1.746 0-3.162 1.416-3.162 3.162v20.838c0 0.883 0.717 1.6 1.6 1.6 0.885 0 1.6-0.717 1.6-1.6v-19.2c0-0.883 0.717-1.6 1.6-1.6h14.4v6.438c0 1.746 1.416 3.162 3.162 3.162h6.438v14.4c0 0.883-0.715 1.6-1.6 1.6h-16c-0.883 0-1.6 0.717-1.6 1.6s0.717 1.6 1.6 1.6h17.638c1.747 0 3.162-1.416 3.162-3.162v-18.613c0-0.424-0.17-0.834-0.47-1.133zM13.6 34.4c0 0.883-0.715 1.6-1.6 1.6h-6.4c-0.883 0-1.6-0.717-1.6-1.6s0.717-1.6 1.6-1.6h6.4c0.885 0 1.6 0.717 1.6 1.6z"></path>
</svg>
