<!-- Generated by IcoMoon.io -->
<svg version="1.1" xmlns="http://www.w3.org/2000/svg" width="40" height="40" viewBox="0 0 40 40">
<title>mp-game_of_thrones-</title>
<path fill="#37352f" d="M21.6 20c0 0.883-0.717 1.6-1.6 1.6s-1.6-0.717-1.6-1.6c0-0.883 0.717-1.6 1.6-1.6s1.6 0.717 1.6 1.6v0zM27.2 19.064l3.448-6.154c1.357 2.030 2.152 4.469 2.152 7.090 0 0.955-0.114 1.883-0.312 2.778l-5.288-3.714zM26.181 31.202l-0.406-5.728 6.192-0.971c-1.078 2.858-3.141 5.234-5.786 6.699v0zM22.373 22.766c0.086 1.213 0.171 2.406 0.259 3.645-0.997-0.946-1.659-1.573-2.632-2.494-0.978 0.925-1.635 1.549-2.632 2.494 0.088-1.238 0.173-2.432 0.259-3.645-2.317-0.362-2.158-0.338-3.704-0.579 1.174-0.827 1.891-1.33 3.082-2.165-1.45-2.587-1.224-2.184-1.821-3.25 1.018 0.32 0.421 0.133 3.518 1.106 0.285-0.736 1.002-2.602 1.298-3.37 0.296 0.768 1.013 2.634 1.298 3.37 3.098-0.973 2.501-0.786 3.518-1.106-0.597 1.066-0.165 0.293-1.821 3.25 1.19 0.835 1.907 1.338 3.082 2.165-1.229 0.192-0.608 0.094-3.704 0.579v0zM20 32.8c-1.408 0-2.758-0.237-4.026-0.659l4.026-3.816 4.026 3.816c-1.267 0.422-2.618 0.659-4.026 0.659v0zM13.819 31.202c-2.645-1.466-4.707-3.842-5.786-6.699l6.192 0.971-0.406 5.728zM7.2 20c0-2.621 0.795-5.059 2.152-7.090l3.448 6.154-5.288 3.714c-0.198-0.894-0.312-1.822-0.312-2.778v0zM19.371 7.232l-2.576 6.693-6.646-2.088c2.224-2.678 5.522-4.424 9.222-4.605v0zM29.851 11.837l-6.646 2.088-2.576-6.693c3.701 0.181 6.998 1.926 9.222 4.605v0zM20 4c-8.837 0-16 7.163-16 16s7.163 16 16 16c8.837 0 16-7.163 16-16s-7.163-16-16-16v0z"></path>
</svg>
