<!-- Generated by IcoMoon.io -->
<svg version="1.1" xmlns="http://www.w3.org/2000/svg" width="42" height="40" viewBox="0 0 42 40">
<title>mp-gallery_grid_view-1</title>
<path fill="#37352f" d="M34.24 31.2c0 0.883-0.753 1.6-1.68 1.6h-5.040c-0.927 0-1.68-0.717-1.68-1.6v-4.8c0-0.883 0.753-1.6 1.68-1.6h5.040c0.927 0 1.68 0.717 1.68 1.6v4.8zM34.24 21.6h-8.4c-1.856 0-3.36 1.432-3.36 3.2v8c0 1.768 1.504 3.2 3.36 3.2h8.4c1.856 0 3.36-1.432 3.36-3.2v-8c0-1.768-1.504-3.2-3.36-3.2v0zM34.24 13.6c0 0.883-0.753 1.6-1.68 1.6h-5.040c-0.927 0-1.68-0.717-1.68-1.6v-4.8c0-0.883 0.753-1.6 1.68-1.6h5.040c0.927 0 1.68 0.717 1.68 1.6v4.8zM34.24 4h-8.4c-1.856 0-3.36 1.432-3.36 3.2v8c0 1.768 1.504 3.2 3.36 3.2h8.4c1.856 0 3.36-1.432 3.36-3.2v-8c0-1.768-1.504-3.2-3.36-3.2v0zM15.76 31.2c0 0.883-0.753 1.6-1.68 1.6h-5.040c-0.927 0-1.68-0.717-1.68-1.6v-22.4c0-0.883 0.753-1.6 1.68-1.6h5.040c0.927 0 1.68 0.717 1.68 1.6v22.4zM15.76 4h-8.4c-1.856 0-3.36 1.432-3.36 3.2v25.6c0 1.768 1.504 3.2 3.36 3.2h8.4c1.856 0 3.36-1.432 3.36-3.2v-25.6c0-1.768-1.504-3.2-3.36-3.2v0z"></path>
</svg>
