<!-- Generated by IcoMoon.io -->
<svg version="1.1" xmlns="http://www.w3.org/2000/svg" width="67" height="40" viewBox="0 0 67 40">
<title>mp-game_controller_round-2</title>
<path fill="#37352f" d="M52 12c0-1.472-1.195-2.667-2.667-2.667h-37.333c-1.472 0-2.667 1.195-2.667 2.667v16c0 1.472 1.195 2.667 2.667 2.667h37.333c1.472 0 2.667-1.195 2.667-2.667v-16zM33.333 4h18.667c2.947 0 5.333 2.387 5.333 5.333v21.333c0 2.947-2.387 5.333-5.333 5.333h-42.667c-2.947 0-5.333-2.387-5.333-5.333v-21.333c0-2.947 2.387-5.333 5.333-5.333h24zM41.333 22.667h5.333v-5.333h-5.333v5.333zM33.333 17.333c-1.472 0-2.667 1.195-2.667 2.667s1.195 2.667 2.667 2.667c1.472 0 2.667-1.195 2.667-2.667s-1.195-2.667-2.667-2.667v0zM22.667 17.333h2.667v5.333h-2.667v2.667h-5.333v-2.667h-2.667v-5.333h2.667v-2.667h5.333v2.667z"></path>
</svg>
