<!-- Generated by IcoMoon.io -->
<svg version="1.1" xmlns="http://www.w3.org/2000/svg" width="40" height="40" viewBox="0 0 40 40">
<title>mp-game_controller-1</title>
<path fill="#37352f" d="M10.67 21.6h-3.47v-3.2h3.47l1.6 1.6-1.6 1.6zM14.541 17.73l-0.008 0.008-2.538-2.538h-7.995v9.6h7.995l4.81-4.808-2.264-2.262zM32.8 21.6h-3.47l-1.6-1.6 1.6-1.6h3.47v3.2zM32.805 15.2h-4.8l-4.81 4.808 2.264 2.262 0.008-0.008 2.538 2.538h7.995v-9.6h-3.195zM21.6 29.334v3.466h-3.2v-3.466l1.6-1.6 1.6 1.6zM17.733 25.462l0.006 0.008-2.539 2.538v7.992h9.6v-7.992l-4.806-4.808-2.261 2.262zM18.4 10.675v-3.475h3.2v3.475l-1.6 1.6-1.6-1.6zM22.275 14.546l-0.010-0.008 2.534-2.538v-8h-9.6v8l4.81 4.808 2.266-2.262z"></path>
</svg>
