<!-- Generated by IcoMoon.io -->
<svg version="1.1" xmlns="http://www.w3.org/2000/svg" width="40" height="40" viewBox="0 0 40 40">
<title>mp-game_controller_round-1</title>
<path fill="#37352f" d="M32.8 21.6c0-0.883-0.717-1.6-1.6-1.6h-22.4c-0.883 0-1.6 0.717-1.6 1.6v9.6c0 0.883 0.717 1.6 1.6 1.6h22.4c0.883 0 1.6-0.717 1.6-1.6v-9.6zM36 20v12.8c0 1.768-1.432 3.2-3.2 3.2h-25.6c-1.768 0-3.2-1.432-3.2-3.2v-12.8c0-1.768 1.432-3.2 3.2-3.2h11.2v-6.4c0-1.768 1.432-3.2 3.2-3.2h3.2c0.883 0 1.6-0.717 1.6-1.6v-1.6h3.2v3.2c0 1.768-1.432 3.2-3.2 3.2h-3.2c-0.883 0-1.6 0.717-1.6 1.6v4.8h11.2c1.768 0 3.2 1.432 3.2 3.2v0zM26.4 28h3.2v-3.2h-3.2v3.2zM21.6 24.8c-0.883 0-1.6 0.717-1.6 1.6s0.717 1.6 1.6 1.6c0.883 0 1.6-0.717 1.6-1.6s-0.717-1.6-1.6-1.6v0zM15.2 24.8h1.6v3.2h-1.6v1.6h-3.2v-1.6h-1.6v-3.2h1.6v-1.6h3.2v1.6z"></path>
</svg>
