<!-- Generated by IcoMoon.io -->
<svg version="1.1" xmlns="http://www.w3.org/2000/svg" width="40" height="40" viewBox="0 0 40 40">
<title>mp-hospital-3</title>
<path fill="#37352f" d="M16.8 13.6c-0.883 0-1.6 0.717-1.6 1.6v9.6c0 0.883 0.717 1.6 1.6 1.6s1.6-0.717 1.6-1.6v-3.2h3.2v3.2c0 0.883 0.717 1.6 1.6 1.6s1.6-0.717 1.6-1.6v-9.6c0-0.883-0.717-1.6-1.6-1.6s-1.6 0.717-1.6 1.6v3.2h-3.2v-3.2c0-0.883-0.717-1.6-1.6-1.6zM34.4 13.6c-0.883 0-1.6 0.717-1.6 1.6v9.6c0 0.883 0.717 1.6 1.6 1.6s1.6-0.717 1.6-1.6v-9.6c0-0.883-0.717-1.6-1.6-1.6zM34.4 29.6c-0.883 0-1.6 0.717-1.6 1.6s-0.717 1.6-1.6 1.6c-0.883 0-1.6 0.717-1.6 1.6s0.717 1.6 1.6 1.6h1.6c1.768 0 3.2-1.434 3.2-3.2v-1.6c0-0.883-0.717-1.6-1.6-1.6zM32.8 4h-1.6c-0.883 0-1.6 0.717-1.6 1.6s0.717 1.6 1.6 1.6c0.883 0 1.6 0.717 1.6 1.6s0.717 1.6 1.6 1.6c0.883 0 1.6-0.717 1.6-1.6v-1.6c0-1.768-1.432-3.2-3.2-3.2zM5.6 26.4c0.883 0 1.6-0.717 1.6-1.6v-9.6c0-0.883-0.717-1.6-1.6-1.6s-1.6 0.717-1.6 1.6v9.6c0 0.883 0.717 1.6 1.6 1.6zM8.8 32.8c-0.883 0-1.6-0.717-1.6-1.6s-0.717-1.6-1.6-1.6c-0.883 0-1.6 0.717-1.6 1.6v1.6c0 1.766 1.432 3.2 3.2 3.2h1.6c0.883 0 1.6-0.717 1.6-1.6s-0.717-1.6-1.6-1.6zM8.8 4h-1.6c-1.768 0-3.2 1.432-3.2 3.2v1.6c0 0.883 0.717 1.6 1.6 1.6s1.6-0.717 1.6-1.6c0-0.883 0.717-1.6 1.6-1.6s1.6-0.717 1.6-1.6c0-0.883-0.717-1.6-1.6-1.6zM24.8 32.8h-9.6c-0.883 0-1.6 0.717-1.6 1.6s0.717 1.6 1.6 1.6h9.6c0.883 0 1.6-0.717 1.6-1.6s-0.717-1.6-1.6-1.6zM26.4 5.6c0 0.883-0.717 1.6-1.6 1.6h-9.6c-0.883 0-1.6-0.717-1.6-1.6s0.717-1.6 1.6-1.6h9.6c0.883 0 1.6 0.717 1.6 1.6z"></path>
</svg>
