<!-- Generated by IcoMoon.io -->
<svg version="1.1" xmlns="http://www.w3.org/2000/svg" width="84" height="40" viewBox="0 0 84 40">
<title>mp-header-</title>
<path fill="#37352f" d="M14.080 4c5.568 0 10.080 4.298 10.080 9.6s-4.512 9.6-10.080 9.6c-5.568 0-10.080-4.298-10.080-9.6s4.512-9.6 10.080-9.6v0zM14.080 10.4c-1.851 0-3.36 1.437-3.36 3.2s1.509 3.2 3.36 3.2c1.851 0 3.36-1.437 3.36-3.2s-1.509-3.2-3.36-3.2v0zM4 36h67.2v-6.4h-67.2v6.4zM30.88 10.4h40.32v-6.4h-40.32v6.4zM30.88 23.2h40.32v-6.4h-40.32v6.4z"></path>
</svg>
