<!-- Generated by IcoMoon.io -->
<svg version="1.1" xmlns="http://www.w3.org/2000/svg" width="36" height="40" viewBox="0 0 36 40">
<title>mp-home-2</title>
<path fill="#37352f" d="M29.053 31.305c0 0.93-0.802 1.327-1.789 1.327h-1.789c-0.988 0-1.789-0.397-1.789-1.327v-1.684c0-1.861-1.602-3.725-3.579-3.725h-3.579c-1.977 0-3.579 1.864-3.579 3.725v1.684c0 0.93-0.802 1.327-1.789 1.327h-1.789c-0.988 0-1.789-0.397-1.789-1.327v-13.58c0-0.224 0.095-0.438 0.261-0.596l9.193-8.65c0.7-0.659 1.832-0.659 2.53 0l9.228 8.684c0.166 0.158 0.261 0.372 0.261 0.595v13.548zM32.632 16.842c0-0.446-0.188-0.872-0.521-1.189l-11.272-10.661c-1.396-1.319-3.663-1.324-5.064-0.010l-11.249 10.552c-0.336 0.317-0.526 0.744-0.526 1.192v16.263c0 1.861 1.602 3.011 3.579 3.011h5.368c1.977 0 3.579-1.15 3.579-3.011v-1.684c0-0.93 0.802-1.684 1.789-1.684s1.789 0.755 1.789 1.684v1.684c0 1.861 1.602 3.011 3.579 3.011h5.368c1.977 0 3.579-1.15 3.579-3.011v-16.147z"></path>
</svg>
