<!-- Generated by IcoMoon.io -->
<svg version="1.1" xmlns="http://www.w3.org/2000/svg" width="40" height="40" viewBox="0 0 40 40">
<title>mp-inbox_up-</title>
<path fill="#37352f" d="M31.2 20v-4.469l1.6 4.469h-1.6zM32.8 32.8h-25.6v-9.6h6.4v6.4h12.8v-6.4h6.4v9.6zM8.8 15.531v4.469h-1.6l1.6-4.469zM12 7.2h16v12.8h-4.8v6.4h-1.654l-0.053-11.646 3.006 3.006 2.262-2.262-6.787-6.789c-3.453 3.453-1.992 1.992-6.869 6.869l2.229 2.296 3.12-3.12-0.035 11.646h-1.619v-6.4h-4.8v-12.8zM32.8 10.4h-1.6v-6.4h-22.4v6.4h-1.6l-3.2 9.931v15.669h32v-15.669l-3.2-9.931z"></path>
</svg>
