<!-- Generated by IcoMoon.io -->
<svg version="1.1" xmlns="http://www.w3.org/2000/svg" width="40" height="40" viewBox="0 0 40 40">
<title>mp-inbox_close-</title>
<path fill="#37352f" d="M17.738 18.125l-2.262-2.262 2.262-2.262-2.262-2.264 2.262-2.262 2.262 2.262 2.262-2.262 2.264 2.262-2.264 2.264 2.264 2.262-2.264 2.262-2.262-2.262-2.262 2.262zM31.2 20v-4.934l1.6 4.934h-1.6zM32.8 32.8h-25.6v-9.6h6.4v6.4h12.8v-6.4h6.4v9.6zM8.8 15.066v4.934h-1.6l1.6-4.934zM12 7.2h16v12.8h-4.8v6.4h-6.4v-6.4h-4.8v-12.8zM32.8 10.4h-1.6v-6.4h-22.4v6.4h-1.6l-3.2 9.466v16.134h32v-16.134l-3.2-9.466z"></path>
</svg>
