<!-- Generated by IcoMoon.io -->
<svg version="1.1" xmlns="http://www.w3.org/2000/svg" width="40" height="40" viewBox="0 0 40 40">
<title>mp-inbox_down-</title>
<path fill="#37352f" d="M31.2 20v-4.8l1.6 4.8h-1.6zM32.8 32.8h-25.6v-9.6h6.4v6.4h12.8v-6.4h6.4v9.6zM8.8 15.2v4.8h-1.6l1.6-4.8zM12 7.2h6.422l0.048 6.858-3.005-3.006-2.264 2.264c5.65 5.648 4.525 4.523 6.789 6.787 2.386-2.386 4.475-4.475 6.869-6.869l-2.229-2.296-3.12 3.12 0.032-6.858h6.458v12.8h-4.8v6.4h-6.4v-6.4h-4.8v-12.8zM32.8 10.4h-1.6v-6.4h-22.4v6.4h-1.6l-3.2 9.6v16h32v-16l-3.2-9.6z"></path>
</svg>
