<!-- Generated by IcoMoon.io -->
<svg version="1.1" xmlns="http://www.w3.org/2000/svg" width="28" height="40" viewBox="0 0 28 40">
<title>mp-lock_circle_close-</title>
<path fill="#37352f" d="M15.2 23.2c0.883 0 1.6 0.717 1.6 1.6s-0.717 1.6-1.6 1.6c-0.883 0-1.6-0.717-1.6-1.6s0.717-1.6 1.6-1.6v0zM15.2 29.6c2.646 0 4.8-2.154 4.8-4.8s-2.154-4.8-4.8-4.8c-2.646 0-4.8 2.154-4.8 4.8s2.154 4.8 4.8 4.8v0zM7.2 32.8v-16h16v16h-16zM12 10.4c0-1.765 1.435-3.2 3.2-3.2s3.2 1.6 3.2 3.2v3.2h-6.4v-3.2zM21.6 13.6v-3.2c0-3.2-2.866-6.4-6.4-6.4s-6.4 2.866-6.4 6.4v3.2h-4.8v22.4h22.4v-22.4h-4.8z"></path>
</svg>
