<!-- Generated by IcoMoon.io -->
<svg version="1.1" xmlns="http://www.w3.org/2000/svg" width="42" height="40" viewBox="0 0 42 40">
<title>mp-menu_navigation_grid-1</title>
<path fill="#37352f" d="M32.56 21.6h-5.040c-2.784 0-5.040 2.149-5.040 4.8v4.8c0 2.651 2.256 4.8 5.040 4.8h5.040c2.784 0 5.040-2.149 5.040-4.8v-4.8c0-2.651-2.256-4.8-5.040-4.8zM14.080 21.6h-5.040c-2.784 0-5.040 2.149-5.040 4.8v4.8c0 2.651 2.256 4.8 5.040 4.8h5.040c2.784 0 5.040-2.149 5.040-4.8v-4.8c0-2.651-2.256-4.8-5.040-4.8zM32.56 4h-5.040c-2.784 0-5.040 2.149-5.040 4.8v4.8c0 2.651 2.256 4.8 5.040 4.8h5.040c2.784 0 5.040-2.149 5.040-4.8v-4.8c0-2.651-2.256-4.8-5.040-4.8zM19.12 8.8v4.8c0 2.651-2.256 4.8-5.040 4.8h-5.040c-2.784 0-5.040-2.149-5.040-4.8v-4.8c0-2.651 2.256-4.8 5.040-4.8h5.040c2.784 0 5.040 2.149 5.040 4.8z"></path>
</svg>
