<!-- Generated by IcoMoon.io -->
<svg version="1.1" xmlns="http://www.w3.org/2000/svg" width="40" height="40" viewBox="0 0 40 40">
<title>mp-message_one_point-1</title>
<path fill="#37352f" d="M23.513 16.866c0 1.754-1.432 3.175-3.2 3.175s-3.2-1.421-3.2-3.175c0-1.754 1.432-3.175 3.2-3.175s3.2 1.421 3.2 3.175zM25.055 25.279c-1.81 0.259-3.438 1.387-4.354 3.006l-0.702 1.243-0.701-1.238c-0.917-1.619-2.544-2.738-4.354-2.997-4.611-0.659-7.938-4.778-7.736-9.405 0.211-4.891 4.677-8.713 10.384-8.713h5.92l-0.254 0.127c5.051 0 9.328 3.919 9.533 8.65 0.2 4.627-3.125 8.669-7.736 9.327zM23.258 4h-5.666c-7.494 0-13.296 5.169-13.581 11.751-0.277 6.357 4.374 11.747 10.477 12.618 0.856 0.122 1.595 0.694 2.019 1.443l3.491 6.188 3.493-6.161c0.424-0.751 1.163-1.284 2.021-1.408 6.101-0.871 10.75-6.326 10.475-12.682-0.285-6.583-6.086-11.75-12.73-11.75z"></path>
</svg>
