<!-- Generated by IcoMoon.io -->
<svg version="1.1" xmlns="http://www.w3.org/2000/svg" width="44" height="40" viewBox="0 0 44 40">
<title>mp-message_one_point-</title>
<path fill="#37352f" d="M18.222 18.384c0-1.961 1.591-3.549 3.556-3.549s3.556 1.588 3.556 3.549c0 1.961-1.591 3.549-3.556 3.549s-3.556-1.588-3.556-3.549v0zM36 27.071h-10.553c-1.275 2.408-0.729 1.464-2.878 5.030-0.192 0.288-0.459 0.406-0.651 0.406-0.188 0-0.453-0.030-0.645-0.314-0.992-1.445-0.439-0.504-2.857-5.122h-10.86v-19.522h28.444v19.522zM4 4v26.621h12.526c1.408 2.68 2.377 5.379 5.392 5.379 3.25 0 3.78-2.346 5.399-5.379h12.238v-26.621h-35.556z"></path>
</svg>
