<!-- Generated by IcoMoon.io -->
<svg version="1.1" xmlns="http://www.w3.org/2000/svg" width="14" height="40" viewBox="0 0 14 40">
<title>mp-menu_option-</title>
<path fill="#37352f" d="M9.6 32.8c-1.029 0-1.867-0.718-1.867-1.6s0.838-1.6 1.867-1.6c1.029 0 1.867 0.718 1.867 1.6s-0.838 1.6-1.867 1.6zM9.6 26.4c-3.093 0-5.6 2.149-5.6 4.8s2.507 4.8 5.6 4.8c3.093 0 5.6-2.149 5.6-4.8s-2.507-4.8-5.6-4.8zM9.6 21.6c-1.029 0-1.867-0.718-1.867-1.6s0.838-1.6 1.867-1.6c1.029 0 1.867 0.718 1.867 1.6s-0.838 1.6-1.867 1.6zM9.6 15.2c-3.093 0-5.6 2.149-5.6 4.8s2.507 4.8 5.6 4.8c3.093 0 5.6-2.149 5.6-4.8s-2.507-4.8-5.6-4.8zM9.6 7.2c1.029 0 1.867 0.718 1.867 1.6s-0.838 1.6-1.867 1.6c-1.029 0-1.867-0.718-1.867-1.6s0.838-1.6 1.867-1.6zM9.6 13.6c3.093 0 5.6-2.149 5.6-4.8s-2.507-4.8-5.6-4.8c-3.093 0-5.6 2.149-5.6 4.8s2.507 4.8 5.6 4.8z"></path>
</svg>
