<!-- Generated by IcoMoon.io -->
<svg version="1.1" xmlns="http://www.w3.org/2000/svg" width="40" height="40" viewBox="0 0 40 40">
<title>mp-maze-</title>
<path fill="#37352f" d="M21.6 4v3.247c6.304 0.796 11.2 6.206 11.2 12.754 0 6.547-4.896 11.956-11.2 12.752v3.247c8.085-0.807 14.4-7.661 14.4-15.999 0-8.34-6.315-15.194-14.4-16.001zM14.667 23.473l2.352-2.325c-0.136-0.359-0.219-0.745-0.219-1.15 0-1.777 1.432-3.219 3.2-3.219 0.405 0 0.787 0.079 1.142 0.216l2.347-2.369c-1.003-0.669-2.194-1.098-3.49-1.098-2.973 0-5.458 1.568-6.173 4.784h-3.283c0.253-1.608 0.882-2.846 1.747-4.035l-2.296-2.266c-1.742 2.195-2.795 4.967-2.795 7.991 0 6.547 4.896 11.956 11.2 12.752v3.247c-8.085-0.807-14.4-7.661-14.4-15.999 0-8.34 6.315-15.194 14.4-16.001v3.247c-2.28 0.288-4.37 1.176-6.115 2.505l2.302 2.303c1.544-1.069 3.394-1.745 5.413-1.745 4.755 0 8.693 3.176 9.456 8h-3.283c-0.123 0-0.317-0.884-0.539-1.312l-2.48 2.533c0.022 0.154 0.046 0.306 0.046 0.466 0 1.777-1.432 3.213-3.2 3.213-0.16 0-0.312-0.029-0.466-0.051l-2.501 2.504c0.886 0.473 1.893 0.728 2.966 0.728 2.973 0 5.458-1.648 6.173-4.865h3.283c-0.763 4.824-4.701 8.041-9.456 8.041s-8.693-3.216-9.456-8.041h3.283c0.178 0 0.464 1.367 0.84 1.946z"></path>
</svg>
