<!-- Generated by IcoMoon.io -->
<svg version="1.1" xmlns="http://www.w3.org/2000/svg" width="40" height="40" viewBox="0 0 40 40">
<title>mp-moon-2</title>
<path fill="#37352f" d="M11.743 9.2c-0.539-0.702-0.407-1.709 0.295-2.248 0.702-0.54 1.709-0.407 2.248 0.295 0.54 0.702 0.407 1.709-0.295 2.248s-1.709 0.407-2.248-0.295zM15.299 13.346c0.54 0.702 0.407 1.709-0.295 2.248-0.702 0.54-1.709 0.407-2.248-0.295s-0.407-1.708 0.295-2.248c0.702-0.539 1.709-0.407 2.248 0.295zM6.657 14.709c-0.54-0.702-0.407-1.709 0.295-2.248s1.708-0.407 2.248 0.295c0.539 0.702 0.407 1.709-0.295 2.248-0.702 0.54-1.709 0.407-2.248-0.295zM19.966 32.793c-4.902 0-9.167-2.766-11.325-6.818 9.922 0.842 18.178-7.387 17.335-17.335 4.052 2.158 6.818 6.423 6.818 11.325 0 7.073-5.755 12.828-12.828 12.828zM21.335 4c5.936 11.138-6.25 23.242-17.335 17.335 0.688 8.112 7.493 14.665 15.966 14.665 8.856 0 16.034-7.179 16.034-16.034 0-8.477-6.558-15.278-14.665-15.966z"></path>
</svg>
