<!-- Generated by IcoMoon.io -->
<svg version="1.1" xmlns="http://www.w3.org/2000/svg" width="44" height="40" viewBox="0 0 44 40">
<title>mp-money-2</title>
<path fill="#37352f" d="M11.111 11.111h-3.556v-7.111h28.444v7.111h-3.556v-3.556h-21.333v3.556zM25.333 25.333c0 1.964-1.591 3.556-3.556 3.556s-3.556-1.591-3.556-3.556c0-1.964 1.591-3.556 3.556-3.556s3.556 1.591 3.556 3.556v0zM36 21.168l-2.946-2.946h2.946v2.946zM36 32.444h-2.946l2.946-2.946v2.946zM15.529 32.444l-7.111-7.111 7.111-7.111h12.498l7.111 7.111-7.111 7.111h-12.498zM7.556 32.444v-2.946l2.946 2.946h-2.946zM7.556 18.222h2.946l-2.946 2.946v-2.946zM4 36h35.556v-21.333h-35.556v21.333z"></path>
</svg>
