<!-- Generated by IcoMoon.io -->
<svg version="1.1" xmlns="http://www.w3.org/2000/svg" width="40" height="40" viewBox="0 0 40 40">
<title>mp-object_connection_round-1</title>
<path fill="#37352f" d="M13.6 28c0-0.883-0.717-1.6-1.6-1.6h-3.2c-0.883 0-1.6 0.717-1.6 1.6v3.2c0 0.883 0.717 1.6 1.6 1.6h3.2c0.883 0 1.6-0.717 1.6-1.6v-3.2zM16.8 26.4v6.4c0 1.768-1.432 3.2-3.2 3.2h-6.4c-1.768 0-3.2-1.432-3.2-3.2v-6.4c0-1.768 1.432-3.2 3.2-3.2h6.4c1.768 0 3.2 1.432 3.2 3.2v0zM29.6 20.016c-0.883 0-1.6 0.715-1.6 1.6v4.8c0 0.883-0.717 1.584-1.6 1.584h-4.8c-0.883 0-1.6 0.717-1.6 1.6s0.717 1.6 1.6 1.6h6.4c1.768 0 3.2-1.418 3.2-3.184v-6.4c0-0.885-0.717-1.6-1.6-1.6v0zM32.8 8.8c0-0.883-0.717-1.6-1.6-1.6h-3.2c-0.883 0-1.6 0.717-1.6 1.6v3.2c0 0.883 0.717 1.6 1.6 1.6h3.2c0.883 0 1.6-0.717 1.6-1.6v-3.2zM36 7.2v6.4c0 1.768-1.432 3.2-3.2 3.2h-6.4c-1.768 0-3.2-1.432-3.2-3.2v-6.4c0-1.768 1.432-3.2 3.2-3.2h6.4c1.768 0 3.2 1.432 3.2 3.2v0zM20 10.4c0 0.883-0.717 1.6-1.6 1.6h-4.8c-0.883 0-1.6 0.731-1.6 1.616v4.8c0 0.883-0.717 1.6-1.6 1.6s-1.6-0.717-1.6-1.6v-6.4c0-1.768 1.432-3.216 3.2-3.216h6.4c0.883 0 1.6 0.717 1.6 1.6v0z"></path>
</svg>
