<!-- Generated by IcoMoon.io -->
<svg version="1.1" xmlns="http://www.w3.org/2000/svg" width="28" height="40" viewBox="0 0 28 40">
<title>mp-pin_sharp_plus-</title>
<path fill="#37352f" d="M20 15.2c0 0.883-0.717 1.6-1.6 1.6h-1.6v1.6c0 0.883-0.717 1.6-1.6 1.6s-1.6-0.717-1.6-1.6v-1.6h-1.6c-0.883 0-1.6-0.717-1.6-1.6s0.717-1.6 1.6-1.6h1.6v-1.6c0-0.883 0.717-1.6 1.6-1.6s1.6 0.717 1.6 1.6v1.6h1.6c0.883 0 1.6 0.717 1.6 1.6zM15.2 31.2c0 0-8-11.2-8-16 0-4.411 3.589-8 8-8s8 3.589 8 8c0 4.8-8 16-8 16zM15.2 4c-6.186 0-11.2 5.014-11.2 11.2s11.2 20.8 11.2 20.8c0 0 11.2-14.614 11.2-20.8s-5.014-11.2-11.2-11.2z"></path>
</svg>
