<!-- Generated by IcoMoon.io -->
<svg version="1.1" xmlns="http://www.w3.org/2000/svg" width="40" height="40" viewBox="0 0 40 40">
<title>mp-profile_image-1</title>
<path fill="#37352f" d="M32.8 32.8h-0.059c0.243-4.645-2.675-9.97-7.949-12.125 0.958-1.118 1.558-2.574 1.558-4.162 0-3.536-2.866-6.411-6.4-6.411s-6.4 2.861-6.4 6.395c0 1.589 0.611 3.021 1.57 4.139-4.507 1.84-7.92 6.166-7.92 11.282v-24.718h25.6v25.6zM16.75 16.493c0-1.765 1.435-3.2 3.2-3.2s3.2 1.435 3.2 3.2c0 1.741-1.4 3.157-3.133 3.194-0.022 0-0.045-0.003-0.067-0.003-0.024 0-0.045 0.003-0.069 0.003-1.731-0.037-3.131-1.453-3.131-3.194v0zM29.541 32.8h-19.181c-0.002 0-0.010-0.184-0.010-0.25 0-5.058 3.99-9.558 9.667-9.654 5.262 0.037 9.533 4.384 9.533 9.654 0 0.066-0.008 0.25-0.010 0.25v0zM4 36h32v-32h-32v32z"></path>
</svg>
