<!-- Generated by IcoMoon.io -->
<svg version="1.1" xmlns="http://www.w3.org/2000/svg" width="36" height="40" viewBox="0 0 36 40">
<title>mp-profile_plus-3</title>
<path fill="#37352f" d="M24.364 12.727c0-3.209-2.609-5.818-5.818-5.818s-5.818 2.609-5.818 5.818c0 3.209 2.609 5.818 5.818 5.818s5.818-2.609 5.818-5.818v0zM33.091 33.091h-7.273v-2.909h4.049c-1.201-5.507-5.817-8.727-11.322-8.727s-10.121 3.22-11.322 8.727h4.049v2.909h-7.273c0-6.625 3.757-11.567 9.079-13.567-1.987-1.599-3.261-4.048-3.261-6.797 0-4.82 3.907-8.727 8.727-8.727s8.727 3.907 8.727 8.727c0 2.749-1.274 5.199-3.261 6.797 5.322 2 9.079 6.941 9.079 13.567v0zM20 30.182h2.909v2.909h-2.909v2.909h-2.909v-2.909h-2.909v-2.909h2.909v-2.909h2.909v2.909z"></path>
</svg>
