<!-- Generated by IcoMoon.io -->
<svg version="1.1" xmlns="http://www.w3.org/2000/svg" width="40" height="40" viewBox="0 0 40 40">
<title>mp-profile_round-</title>
<path fill="#37352f" d="M30.5 32.8h-20.999c-1.13 0-1.965-1.115-1.539-2.141 1.978-4.742 6.625-7.459 12.037-7.459 5.414 0 10.061 2.717 12.039 7.459 0.426 1.026-0.408 2.141-1.539 2.141zM13.467 13.6c0-3.53 2.932-6.4 6.533-6.4 3.603 0 6.533 2.87 6.533 6.4s-2.93 6.4-6.533 6.4c-3.601 0-6.533-2.87-6.533-6.4zM35.929 32.218c-1.187-5.374-4.901-9.341-9.79-11.141 2.59-2.043 4.101-5.347 3.546-8.965-0.644-4.197-4.207-7.555-8.509-8.045-5.939-0.677-10.976 3.851-10.976 9.533 0 3.024 1.431 5.718 3.662 7.477-4.89 1.8-8.602 5.766-9.791 11.141-0.431 1.954 1.176 3.782 3.216 3.782h25.427c2.042 0 3.649-1.829 3.216-3.782z"></path>
</svg>
