<!-- Generated by IcoMoon.io -->
<svg version="1.1" xmlns="http://www.w3.org/2000/svg" width="28" height="40" viewBox="0 0 28 40">
<title>mp-pin_fill_rounded_circle-1</title>
<path fill="#37352f" d="M20 16.216c0-2.651-2.149-4.8-4.8-4.8s-4.8 2.149-4.8 4.8c0 2.651 2.149 4.8 4.8 4.8s4.8-2.149 4.8-4.8zM26.4 15.2c0 6.186-5.014 20.8-11.2 20.8s-11.2-14.614-11.2-20.8c0-6.186 5.014-11.2 11.2-11.2s11.2 5.014 11.2 11.2zM16.8 16.216c0 0.882-0.718 1.6-1.6 1.6s-1.6-0.718-1.6-1.6c0-0.882 0.718-1.6 1.6-1.6s1.6 0.718 1.6 1.6z"></path>
</svg>
