<!-- Generated by IcoMoon.io -->
<svg version="1.1" xmlns="http://www.w3.org/2000/svg" width="40" height="40" viewBox="0 0 40 40">
<title>mp-profile-</title>
<path fill="#37352f" d="M20 20c-3.53 0-6.4-2.87-6.4-6.4s2.87-6.4 6.4-6.4c3.53 0 6.4 2.87 6.4 6.4s-2.87 6.4-6.4 6.4zM26.013 21.077c2.186-1.758 3.587-4.453 3.587-7.477 0-5.302-4.298-9.6-9.6-9.6s-9.6 4.298-9.6 9.6c0 3.024 1.402 5.718 3.587 7.477-5.854 2.2-9.987 7.635-9.987 14.923h3.2c0-8 5.742-12.8 12.8-12.8s12.8 4.8 12.8 12.8h3.2c0-7.288-4.133-12.723-9.987-14.923z"></path>
</svg>
