<!-- Generated by IcoMoon.io -->
<svg version="1.1" xmlns="http://www.w3.org/2000/svg" width="36" height="40" viewBox="0 0 36 40">
<title>mp-profile_plus_round-</title>
<path fill="#37352f" d="M24.485 12.727c0-3.209-2.664-5.818-5.939-5.818s-5.939 2.609-5.939 5.818c0 3.209 2.664 5.818 5.939 5.818s5.939-2.609 5.939-5.818zM30.103 33.091h-2.649c-0.82 0-1.485-0.652-1.485-1.455s0.665-1.455 1.485-1.455h0.637c1.027 0 1.786-1.014 1.397-1.946-1.798-4.311-6.021-6.781-10.943-6.781s-9.145 2.47-10.943 6.781c-0.389 0.932 0.37 1.946 1.397 1.946h0.637c0.82 0 1.485 0.652 1.485 1.455s-0.665 1.455-1.485 1.455h-2.649c-1.856 0-3.317-1.663-2.924-3.439 1.081-4.886 4.456-8.492 8.901-10.128-2.028-1.599-3.329-4.048-3.329-6.797 0-5.165 4.579-9.281 9.976-8.666 3.911 0.445 7.151 3.498 7.737 7.313 0.505 3.289-0.869 6.292-3.225 8.15 4.445 1.636 7.82 5.242 8.901 10.128 0.393 1.776-1.068 3.439-2.924 3.439zM23 31.636c0 0.803-0.665 1.455-1.485 1.455h-1.182c0 1.455 0.154 2.909-1.485 2.909-0.821 0-1.485-0.652-1.485-1.455v-1.455h-1.788c-0.82 0-1.485-0.652-1.485-1.455s0.665-1.455 1.485-1.455h1.788v-1.455c0-0.803 0.664-1.455 1.485-1.455 0.82 0 1.485 0.652 1.485 1.455v1.455h1.182c0.82 0 1.485 0.652 1.485 1.455z"></path>
</svg>
