<!-- Generated by IcoMoon.io -->
<svg version="1.1" xmlns="http://www.w3.org/2000/svg" width="47" height="40" viewBox="0 0 47 40">
<title>mp-profile_minus-1</title>
<path fill="#37352f" d="M41.646 5.882c0 1.039-0.843 1.882-1.882 1.882h-11.294c-1.039 0-1.882-0.843-1.882-1.882s0.843-1.882 1.882-1.882h11.294c1.039 0 1.882 0.843 1.882 1.882zM19.007 20.757c-0.026 0-0.053-0.004-0.079-0.004-0.028 0-0.053 0.004-0.081 0.004-2.039-0.043-3.684-1.707-3.684-3.757 0-2.076 1.688-3.765 3.765-3.765 2.074 0 3.765 1.688 3.765 3.765 0 2.050-1.647 3.714-3.686 3.757zM24.622 21.873c1.562-1.822 2.315-4.358 1.504-7.098-0.747-2.53-2.874-4.525-5.446-5.107-4.92-1.109-9.282 2.601-9.282 7.332 0 1.869 0.706 3.558 1.832 4.873-4.862 1.986-8.454 6.592-9.212 11.994-0.158 1.128 0.742 2.133 1.88 2.133 0.93 0 1.717-0.683 1.848-1.606 0.776-5.472 5.451-9.833 11.1-9.873 0.028 0 0.053 0.008 0.081 0.008 0.026 0 0.051-0.008 0.079-0.008 5.649 0.040 10.325 4.401 11.1 9.875 0.132 0.92 0.919 1.604 1.85 1.604 1.137 0 2.037-1.005 1.879-2.133-0.759-5.402-4.35-10.007-9.214-11.994z"></path>
</svg>
