<!-- Generated by IcoMoon.io -->
<svg version="1.1" xmlns="http://www.w3.org/2000/svg" width="32" height="40" viewBox="0 0 32 40">
<title>mp-periscope-</title>
<path fill="#37352f" d="M16.8 24.12c-4.289 0-7.767-3.395-7.767-7.582 0-1.659 0.547-3.194 1.475-4.443 0.1 1.605 1.459 2.875 3.127 2.875 1.732 0 3.137-1.371 3.137-3.062 0-1.208-0.718-2.25-1.76-2.747 0.575-0.133 1.172-0.205 1.788-0.205 4.289 0 7.767 3.395 7.767 7.582s-3.478 7.582-7.767 7.582zM16.8 4c-7.070 0-12.8 5.595-12.8 12.496 0 9.293 10.235 19.504 12.8 19.504s12.8-10.211 12.8-19.504c0-6.901-5.73-12.496-12.8-12.496z"></path>
</svg>
