<!-- Generated by IcoMoon.io -->
<svg version="1.1" xmlns="http://www.w3.org/2000/svg" width="40" height="40" viewBox="0 0 40 40">
<title>mp-patreon-</title>
<path fill="#37352f" d="M4 19.535c0-12.928 16.511-21.097 27.066-11.025 5.651 5.375 6.628 14.242 1.996 20.721-5.745 7.87-13.251 6.709-20.417 6.709v-15.341c0.067-3.388 1.196-6.31 5.32-7.706 3.592-1.062 7.781 0.93 9.045 4.715 1.331 4.053-0.598 6.774-2.86 8.436-2.26 1.661-5.785 1.661-8.112 0.067v5.246c5.022 2.399 12.97-0.486 15.495-7.040 1.729-4.583 0.531-9.896-3.060-13.217-4.322-3.521-9.045-4.383-14.097-1.926-3.525 1.794-5.985 5.447-6.585 9.431v17.335h-3.724l-0.067-16.405z"></path>
</svg>
