<!-- Generated by IcoMoon.io -->
<svg version="1.1" xmlns="http://www.w3.org/2000/svg" width="53" height="40" viewBox="0 0 53 40">
<title>mp-planet-</title>
<path fill="#37352f" d="M7.598 12.738c0 1.206 0.951 2.184 2.123 2.184s2.123-0.979 2.123-2.184c0-1.206-0.951-2.185-2.123-2.185s-2.123 0.979-2.123 2.185v0zM7.598 8.369c1.172 0 2.123-0.979 2.123-2.185s-0.951-2.184-2.123-2.184c-1.172 0-2.123 0.979-2.123 2.184s0.951 2.185 2.123 2.185v0zM13.967 10.554c1.172 0 2.123-0.979 2.123-2.184s-0.951-2.185-2.123-2.185c-1.172 0-2.123 0.979-2.123 2.185s0.951 2.184 2.123 2.184v0zM36.341 21.002c-0.329 0.181-1.042 0.596-1.027 0.636 0.367-0.216 0.686-0.424 1.027-0.636v0zM36.341 21.002c2.151-1.339 3.773-2.589 4.76-3.567-2.556-0.188-5.169 0.232-7.668 0.754 0.836 1.033 1.458 2.184 1.881 3.449 1.308-0.767 1.337-0.806 1.028-0.636v0zM31.464 23.689c-0.856-3.755-4.817-6.023-8.369-4.673-3.465 1.315-5.135 5.603-3.516 9.013 4.065-1.042 8.176-2.556 11.884-4.341v0zM25.97 26.022c-0.038 0.015-0.076 0.028-0.113 0.041 0.030-0.011 0.079-0.028 0.113-0.041v0zM30.522 28.879c-2.295 0.981-4.632 1.839-7.012 2.571 1.301 0.393 2.698 0.352 3.974-0.131-0.161 0.061-0.255 0.096 0 0 0.085-0.031 0.121-0.046 0.178-0.066-0.062 0.022-0.123 0.046-0.178 0.066 1.255-0.474 2.297-1.328 3.038-2.44v0zM15.323 28.93c-0.406-1.136-0.565-2.294-0.599-3.441-2.376 1.444-4.291 2.978-5.346 4.022 1.993 0.149 3.995-0.26 5.944-0.581v0zM46.363 15.438c0.977 2.737-3.435 7.069-10.564 10.916-0.957 8.895-11.763 12.884-17.973 6.556-2.516 0.511-14.563 2.825-13.791-2.689 0.291-2.067 2.352-3.888 3.802-5.127 2.507-2.145 5.375-3.858 8.288-5.341 2.509-4.5 7.812-6.591 12.598-4.9 3.46-0.97 7.052-1.737 10.649-1.818 2.030-0.048 6.104-0.085 6.991 2.403v0zM46.476 15.753c0.1 0.282 0.161 0.454 0.191 0.54-0.036-0.107-0.113-0.317-0.191-0.54v0zM26.237 25.922v0zM46.344 15.381c0.006 0.022 0.011 0.033 0.019 0.057 0.045 0.124 0.079 0.218 0.113 0.315-0.047-0.129-0.091-0.258-0.132-0.371v0z"></path>
</svg>
