<!-- Generated by IcoMoon.io -->
<svg version="1.1" xmlns="http://www.w3.org/2000/svg" width="47" height="40" viewBox="0 0 47 40">
<title>mp-profile_minus-</title>
<path fill="#37352f" d="M26.588 7.761h15.059v-3.761h-15.059v3.761zM19.138 20.739c-0.026 0-0.053-0.004-0.079-0.004s-0.053 0.004-0.079 0.004c-2.039-0.043-3.686-1.706-3.686-3.753 0-2.074 1.688-3.761 3.765-3.761s3.765 1.687 3.765 3.761c0 2.048-1.647 3.71-3.686 3.753v0zM24.755 21.854c1.128-1.314 1.833-3.001 1.833-4.868 0-4.154-3.371-7.522-7.529-7.522s-7.529 3.368-7.529 7.522c0 1.867 0.706 3.554 1.833 4.868-5.491 2.24-9.363 7.819-9.363 14.112 0 0.075 0.009 0 0.011 0h3.753c0-6.194 5.024-11.423 11.215-11.467 0.026 0 0.051 0.008 0.079 0.008s0.053-0.008 0.079-0.008c6.191 0.043 11.215 5.273 11.215 11.467h3.765c0-6.294-3.872-11.871-9.363-14.112v0z"></path>
</svg>
