<!-- Generated by IcoMoon.io -->
<svg version="1.1" xmlns="http://www.w3.org/2000/svg" width="24" height="40" viewBox="0 0 24 40">
<title>mp-refrigerator_round-1</title>
<path fill="#37352f" d="M12 10.4v0c0 0.883-0.717 1.6-1.6 1.6s-1.6-0.717-1.6-1.6c0-0.883 0.717-1.6 1.6-1.6s1.6 0.717 1.6 1.6v0zM12 20v0c0 0.883-0.717 1.6-1.6 1.6s-1.6-0.717-1.6-1.6c0-0.883 0.717-1.6 1.6-1.6s1.6 0.717 1.6 1.6v0zM7.2 13.6v-4.8c0-0.883 0.717-1.6 1.6-1.6h9.6c0.883 0 1.6 0.717 1.6 1.6v4.8h-12.8zM18.4 29.6h-9.6c-0.883 0-1.6-0.717-1.6-1.6v-11.2h12.8v11.2c0 0.883-0.717 1.6-1.6 1.6v0zM7.2 4c-1.768 0-3.2 1.432-3.2 3.2v22.4c0 1.768 1.432 3.2 3.2 3.2v1.6c0 0.883 0.717 1.6 1.6 1.6s1.6-0.717 1.6-1.6v-1.6h6.4v1.6c0 0.883 0.717 1.6 1.6 1.6s1.6-0.717 1.6-1.6v-1.6c1.768 0 3.2-1.432 3.2-3.2v-22.4c0-1.768-1.432-3.2-3.2-3.2h-12.8z"></path>
</svg>
