<!-- Generated by IcoMoon.io -->
<svg version="1.1" xmlns="http://www.w3.org/2000/svg" width="42" height="40" viewBox="0 0 42 40">
<title>mp-rss_missing_plus_round-</title>
<path fill="#37352f" d="M31.897 12.837c-0.803 0-1.455 0.649-1.455 1.448v8.686c0 0.799 0.652 1.448 1.455 1.448s1.455-0.649 1.455-1.448v-8.686c0-0.799-0.652-1.448-1.455-1.448v0zM28.988 7.046c0.803 0 1.455 0.649 1.455 1.448s0.652 1.448 1.455 1.448c0.803 0 1.455-0.649 1.455-1.448v-1.448c0-1.6-1.302-3.047-2.909-3.047h-1.455c-0.803 0-1.455 0.724-1.455 1.524 0 0.799 0.652 1.523 1.455 1.523v0zM5.715 24.418c0.803 0 1.455-0.649 1.455-1.448v-8.686c0-0.799-0.652-1.448-1.455-1.448s-1.455 0.649-1.455 1.448v8.686c0 0.799 0.652 1.448 1.455 1.448v0zM8.624 30.209c-0.803 0-1.455-0.649-1.455-1.448s-0.652-1.448-1.455-1.448c-0.803 0-1.455 0.649-1.455 1.448v1.448c0 1.6 1.302 2.743 2.909 2.743h1.455c0.803 0 1.455-0.572 1.455-1.371 0-0.801-0.652-1.372-1.455-1.372v0zM8.624 3.999h-1.455c-1.607 0-2.909 1.448-2.909 3.047v1.448c0 0.799 0.652 1.448 1.455 1.448s1.455-0.649 1.455-1.448c0-0.799 0.652-1.448 1.455-1.448s1.455-0.724 1.455-1.523c0-0.801-0.652-1.524-1.455-1.524v0zM34.806 30.057h-1.455v-1.296c0-0.799-0.652-1.448-1.455-1.448s-1.455 0.649-1.455 1.448v1.296h-1.455c-0.803 0-1.455 0.649-1.455 1.448 0 1.6 1.455 1.448 2.909 1.448v1.6c0 0.799 0.652 1.448 1.455 1.448s1.455-0.649 1.455-1.448v-1.6c1.455 0 2.909 0.152 2.909-1.448 0-0.799-0.652-1.448-1.455-1.448v0zM23.169 30.057h-8.727c-0.803 0-1.455 0.649-1.455 1.448 0 0.801 0.652 1.448 1.455 1.448h8.727c0.803 0 1.455-0.647 1.455-1.448 0-0.799-0.652-1.448-1.455-1.448v0zM14.442 6.894h8.727c0.803 0 1.455-0.647 1.455-1.448 0-0.799-0.652-1.448-1.455-1.448h-8.727c-0.803 0-1.455 0.649-1.455 1.448 0 0.801 0.652 1.448 1.455 1.448v0zM14.493 25.787c0-1.6-1.302-2.895-2.909-2.895v1.448c0 0.799 0.652 1.448 1.455 1.448h1.455zM17.382 25.714h2.909c0-4.343-4.394-8.609-8.758-8.609v2.895c2.909 0 5.849 2.819 5.849 5.714v0zM26.026 24.124c0.097 0.864-0.569 1.589-1.441 1.589h-1.364c0-5.791-5.869-11.507-11.687-11.507v-1.358c0-0.869 0.791-1.543 1.66-1.448 6.727 0.748 12.081 6.028 12.833 12.723v0z"></path>
</svg>
