<!-- Generated by IcoMoon.io -->
<svg version="1.1" xmlns="http://www.w3.org/2000/svg" width="40" height="40" viewBox="0 0 40 40">
<title>mp-rss-</title>
<path fill="#37352f" d="M11.658 24.968v3.2h3.2c0-1.768-1.432-3.2-3.2-3.2v0zM18.058 28h3.2c0-4.8-4.458-9.432-9.258-9.432v3.2c3.2 0 6.058 3.032 6.058 6.232v0zM12 12.168v3.2c6.4 0 12.458 6.232 12.458 12.632h3.2c0-8-7.658-15.832-15.658-15.832v0zM32.8 26.4h3.2v-12.8h-3.2v12.8zM32.8 32.8h-3.2v3.2h6.4v-6.4h-3.2v3.2zM29.6 4v3.2h3.2v3.2h3.2v-6.4h-6.4zM4 26.4h3.2v-12.8h-3.2v12.8zM7.2 29.6h-3.2v6.4h6.4v-3.2h-3.2v-3.2zM4 4v6.4h3.2v-3.2h3.2v-3.2h-6.4zM13.6 36h12.8v-3.2h-12.8v3.2zM13.6 7.2h12.8v-3.2h-12.8v3.2z"></path>
</svg>
