<!-- Generated by IcoMoon.io -->
<svg version="1.1" xmlns="http://www.w3.org/2000/svg" width="40" height="40" viewBox="0 0 40 40">
<title>mp-shaded-1</title>
<path fill="#37352f" d="M32.8 13.875l-18.811 18.925h-4.526l23.338-23.45v4.525zM32.8 22.926l-9.762 9.874h-4.525l14.286-14.4v4.526zM32.8 31.199c0 0.885-0.717 1.6-1.6 1.6h-3.635l5.235-5.349v3.749zM7.2 25.899l18.811-18.699h4.526l-23.338 23.224v-4.525zM7.2 16.847l9.762-9.648h4.525l-14.286 14.173v-4.525zM7.2 8.799c0-0.883 0.717-1.6 1.6-1.6h3.635l-5.235 5.122v-3.522zM32.8 3.999h-25.6c-1.766 0-3.2 1.434-3.2 3.2v25.6c0 1.768 1.434 3.2 3.2 3.2h25.6c1.766 0 3.2-1.432 3.2-3.2v-25.6c0-1.766-1.434-3.2-3.2-3.2v0z"></path>
</svg>
