<!-- Generated by IcoMoon.io -->
<svg version="1.1" xmlns="http://www.w3.org/2000/svg" width="42" height="40" viewBox="0 0 42 40">
<title>mp-shopping_cart_round-</title>
<path fill="#37352f" d="M28.382 32.557h-15.050c-0.824 0-1.526-0.608-1.661-1.439l-2.011-12.333h22.666l-2.289 12.371c-0.152 0.813-0.845 1.401-1.656 1.401v0zM32.632 15.341l-5.94-10.481c-0.463-0.816-1.484-1.098-2.285-0.63v0c-0.81 0.472-1.088 1.527-0.621 2.35l4.957 8.761h-15.8l4.965-8.754c0.463-0.819 0.192-1.866-0.606-2.345l-0.015-0.009c-0.803-0.479-1.836-0.2-2.301 0.623l-5.932 10.484h-3.368c-0.931 0-1.684 0.771-1.684 1.722s0.753 1.722 1.684 1.722h0.561l2.338 14.339c0.271 1.66 1.676 2.877 3.323 2.877h17.871c1.647 0 3.053-1.217 3.323-2.877l2.338-14.339h0.563c0.93 0 1.684-0.771 1.684-1.722s-0.755-1.722-1.684-1.722h-3.368z"></path>
</svg>
