<!-- Generated by IcoMoon.io -->
<svg version="1.1" xmlns="http://www.w3.org/2000/svg" width="42" height="40" viewBox="0 0 42 40">
<title>mp-settings-3</title>
<path fill="#37352f" d="M17.218 21.112c-2.621 2.495-6.871 2.495-9.492 0l-2.743-2.612c-1.31-1.248-1.31-3.27 0-4.518s3.436-1.248 4.747 0c1.826 1.738 3.827 1.578 5.114 0.351 1.297-1.235 1.453-3.136-0.378-4.878-1.31-1.248-1.31-3.272 0-4.52 1.312-1.248 3.436-1.248 4.747 0l2.75 2.619c2.621 2.495 2.621 6.542 0 9.038l14.607 13.91c3.139 2.988-1.609 7.504-4.745 4.518l-14.607-13.909z"></path>
</svg>
