<!-- Generated by IcoMoon.io -->
<svg version="1.1" xmlns="http://www.w3.org/2000/svg" width="40" height="40" viewBox="0 0 40 40">
<title>mp-speaker-</title>
<path fill="#37352f" d="M32.8 32.8h-4.702c2.077-3.2 3.37-5.264 3.37-8.4 0-4.488-2.646-8.549-6.459-10.336 1.021-1.134 1.659-2.318 1.659-3.965 0-1.171-0.338-2.899-0.888-2.899h7.021v25.6zM20.267 32c-4.411 0-8-3.589-8-8s3.589-8 8-8c4.411 0 8 3.589 8 8s-3.589 8-8 8v0zM7.2 32.8v-25.6h7.554c-0.549 0-0.886 1.629-0.886 2.8 0 1.645 0.638 2.93 1.658 4.064-3.811 1.787-6.458 5.947-6.458 10.437 0 3.134 1.291 5.099 3.368 8.299h-5.235zM20.267 6.4c1.763 0 3.2 1.435 3.2 3.2s-1.437 3.2-3.2 3.2c-1.765 0-3.2-1.435-3.2-3.2s1.435-3.2 3.2-3.2v0zM4 36h32v-32h-32v32z"></path>
</svg>
