<!-- Generated by IcoMoon.io -->
<svg version="1.1" xmlns="http://www.w3.org/2000/svg" width="42" height="40" viewBox="0 0 42 40">
<title>mp-shopping_cart_close-</title>
<path fill="#37352f" d="M25.605 23.564l-2.381 2.387 2.381 2.387-2.381 2.389-2.381-2.389-2.383 2.389-2.381-2.389 2.381-2.387-2.381-2.387 2.381-2.387 2.383 2.387 2.381-2.387 2.381 2.387zM29.777 32.624h-17.871l-2.247-13.504h22.668l-2.55 13.504zM32.632 15.744l-6.777-11.723-2.917 1.668 5.804 10.056h-15.8l5.804-10.035-2.917-1.708-6.776 11.744h-5.053v3.376h2.245l2.808 16.88h23.579l2.806-16.88h2.247v-3.376h-5.053z"></path>
</svg>
