<!-- Generated by IcoMoon.io -->
<svg version="1.1" xmlns="http://www.w3.org/2000/svg" width="42" height="40" viewBox="0 0 42 40">
<title>mp-settings-</title>
<path fill="#37352f" d="M22.48 20c0 0.883-0.753 1.6-1.68 1.6s-1.68-0.717-1.68-1.6c0-0.883 0.753-1.6 1.68-1.6s1.68 0.717 1.68 1.6zM28.898 22.173c-0.744 2.67-3.012 4.83-5.816 5.539-6.384 1.613-12.072-3.805-10.379-9.885 0.744-2.67 3.012-4.83 5.816-5.539 6.384-1.613 12.072 3.805 10.379 9.885zM35.92 18.4h-2.782c-0.405 0-0.961-0.026-0.958-0.411 0.008-1.422-0.48-3.445-1.559-4.552-0.276-0.283-0.195-0.542 0.091-0.814l1.967-1.773c0.657-0.626 0.657-1.589 0-2.213-0.655-0.626-1.72-0.6-2.376 0.024l-1.967 1.886c-0.286 0.272-0.727 0.306-1.065 0.094-1.226-0.771-2.612-1.326-4.103-1.616-0.396-0.078-0.689-0.39-0.689-0.776v-2.65c0-0.883-0.753-1.6-1.68-1.6s-1.68 0.717-1.68 1.6v2.65c0 0.386-0.292 0.701-0.689 0.779-1.49 0.29-2.876 0.846-4.103 1.618-0.338 0.213-0.78 0.186-1.065-0.086l-1.967-1.874c-0.655-0.626-1.72-0.626-2.376 0-0.657 0.624-0.657 1.638 0 2.262l1.967 1.874c0.286 0.272 0.329 0.702 0.091 1.014-0.83 1.093-1.361 2.262-1.599 4.307-0.045 0.382-0.512 0.256-0.917 0.256h-2.782c-0.927 0-1.68 0.717-1.68 1.6s0.753 1.6 1.68 1.6h2.782c0.405 0 0.895 0.141 0.976 0.517 0.304 1.419 0.732 2.478 1.541 3.646 0.223 0.322 0.195 0.942-0.091 1.214l-1.967 1.973c-0.657 0.626-0.657 1.688 0 2.314 0.655 0.624 1.72 0.65 2.376 0.024l1.967-1.861c0.286-0.272 0.727-0.293 1.065-0.080 1.226 0.77 2.612 1.331 4.103 1.621 0.396 0.078 0.689 0.397 0.689 0.782v2.65c0 0.883 0.753 1.6 1.68 1.6s1.68-0.717 1.68-1.6v-2.65c0-0.386 0.292-0.701 0.689-0.779 1.49-0.29 2.876-0.848 4.103-1.618 0.338-0.213 0.78-0.186 1.065 0.086l1.967 1.874c0.655 0.626 1.72 0.626 2.376 0 0.657-0.624 0.657-1.638 0-2.262l-1.967-1.874c-0.286-0.272-0.314-0.693-0.091-1.014 0.808-1.168 1.247-1.821 1.698-3.107 0.129-0.365 0.413-1.456 0.818-1.456h2.782c0.927 0 1.68-0.717 1.68-1.6s-0.753-1.6-1.68-1.6z"></path>
</svg>
