<!-- Generated by IcoMoon.io -->
<svg version="1.1" xmlns="http://www.w3.org/2000/svg" width="57" height="40" viewBox="0 0 57 40">
<title>mp-toggle_button-1</title>
<path fill="#37352f" d="M25.925 19.845c0-3.787 3.070-6.857 6.857-6.857s6.857 3.070 6.857 6.857c0 3.787-3.070 6.857-6.857 6.857s-6.857-3.070-6.857-6.857v0zM45.143 22.286c0 5.049-4.094 9.143-9.143 9.143h-18.286c-5.049 0-9.143-4.094-9.143-9.143v-4.571c0-5.049 4.094-9.143 9.143-9.143h18.286c5.049 0 9.143 4.094 9.143 9.143v4.571zM49.714 17.714c0-7.575-6.139-13.714-13.714-13.714h-18.286c-7.575 0-13.714 6.139-13.714 13.714v4.571c0 7.575 6.139 13.714 13.714 13.714h18.286c7.575 0 13.714-6.139 13.714-13.714v-4.571z"></path>
</svg>
