<!-- Generated by IcoMoon.io -->
<svg version="1.1" xmlns="http://www.w3.org/2000/svg" width="29" height="40" viewBox="0 0 29 40">
<title>mp-tap_click_force_touch-</title>
<path fill="#37352f" d="M24.409 23.186l-8.529-0.698-0.014-8.844c0-0.619-0.579-1.753-1.983-1.753-1.090 0-1.983 0.786-1.983 1.753v14.895l-1.645-2.090c-0.697-0.88-2.115-0.991-2.973-0.23-0.666 0.593-0.758 1.524-0.221 2.211l4.264 7.031c0.369 0.475 0.978 0.538 1.627 0.538h9.55c1.884 0 3.506-0.961 3.875-2.599l0.656-6.311c0.391-1.734-0.735-3.346-2.625-3.905zM5.975 17.151c-1.090 0-1.975-0.784-1.975-1.753v-2.192c0-12.274 19.751-12.274 19.751 0v2.192c0 0.97-0.885 1.753-1.975 1.753s-1.975-0.784-1.975-1.753v-2.192c0-7.014-11.851-7.014-11.851 0v2.192c0 0.97-0.885 1.753-1.975 1.753z"></path>
</svg>
