<!-- Generated by IcoMoon.io -->
<svg version="1.1" xmlns="http://www.w3.org/2000/svg" width="40" height="40" viewBox="0 0 40 40">
<title>mp-tenis_round-</title>
<path fill="#37352f" d="M27.206 25.515l-12.717-12.717c2.755-5.973 10.85-7.432 15.499-2.782s3.19 12.744-2.782 15.499v0zM23.548 26.383c-5.483 0.194-10.122-4.445-9.928-9.928l9.928 9.928zM8.332 31.671v0c-0.626-0.626-0.626-1.638 0-2.262l4.768-4.768c0.658 0.845 1.418 1.605 2.262 2.262l-4.768 4.768c-0.626 0.624-1.638 0.624-2.262 0v0zM24.417 4.057c-9.637-0.901-16.688 9.054-13 17.741l-6.48 6.48c-1.25 1.25-1.25 3.275 0 4.525l2.264 2.262c1.25 1.25 3.275 1.25 4.525 0l6.478-6.478c8.253 3.504 18.014-2.678 17.794-12.107-0.15-6.389-5.219-11.827-11.581-12.422v0z"></path>
</svg>
