<!-- Generated by IcoMoon.io -->
<svg version="1.1" xmlns="http://www.w3.org/2000/svg" width="40" height="40" viewBox="0 0 40 40">
<title>mp-umbrella_round-1</title>
<path fill="#37352f" d="M31.694 25.569l-4.676-2.889c1.387-2.951 2.535-7.209 2.497-11.136 3.332 3.768 4.119 9.511 2.179 14.025zM24.285 20.99l-6.842-4.227c1.957-2.599 5.217-5.439 8.789-6.938 0.356 3.926-0.599 8.192-1.948 11.166zM14.712 15.074l-4.674-2.889c3.158-4.069 8.368-5.787 13.178-4.528-3.424 1.788-6.317 4.344-8.504 7.417zM29.015 6.83c-0.107-0.073-0.212-0.15-0.321-0.221-0.131-0.086-0.251-0.182-0.383-0.265-0.126-0.078-0.259-0.137-0.385-0.212-0.128-0.073-0.257-0.142-0.386-0.212-7.426-4.045-16.739-1.521-21.155 5.912-0.279 0.471-0.53 0.951-0.757 1.436l12.218 7.551-7.096 10.532c-0.457 0.769-1.438 1.014-2.193 0.549-0.753-0.466-0.994-1.467-0.538-2.237l0.827-1.392c0.457-0.769 0.217-1.77-0.538-2.236-0.753-0.467-1.735-0.221-2.192 0.549l-1.655 2.784c-0.913 1.539-0.431 3.542 1.078 4.473l2.73 1.687c1.509 0.933 3.472 0.441 4.385-1.098l7.923-11.924 12.218 7.551c0.045 0.028 0.618-0.879 0.897-1.348 4.419-7.441 2.292-17.041-4.677-21.878z"></path>
</svg>
