<!-- Generated by IcoMoon.io -->
<svg version="1.1" xmlns="http://www.w3.org/2000/svg" width="47" height="40" viewBox="0 0 47 40">
<title>mp-video_camera_round-</title>
<path fill="#37352f" d="M37.882 23.411v4.625l-4.203-2.704 4.203-2.321v0.399zM26.588 30.182c0 1.071-0.843 1.939-1.882 1.939h-15.059c-1.039 0-1.882-0.869-1.882-1.939v-7.758c0-1.071 0.843-1.939 1.882-1.939h15.059c1.039 0 1.882 0.869 1.882 1.939v7.758zM11.736 11.758c1.039 0 1.882 0.871 1.882 1.939s-0.843 1.939-1.882 1.939c-1.037 0-1.882-0.871-1.882-1.939s0.845-1.939 1.882-1.939v0zM21.148 7.879c2.076 0 3.765 1.74 3.765 3.879s-1.688 3.879-3.765 3.879c-2.074 0-3.765-1.74-3.765-3.879s1.69-3.879 3.765-3.879v0zM38.767 17.489l-8.414 5.411v-3.384c0-1.897-1.167-3.471-2.914-3.807 0.672-1.16 1.161-2.502 1.161-3.951 0-4.284-3.332-7.758-7.49-7.758-3.044 0-5.63 1.87-6.818 4.546-0.776-0.411-1.632-0.667-2.566-0.667-3.119 0-5.641 2.605-5.641 5.818 0 0.811 0.008 1.583 0.299 2.283-1.312 0.607-2.385 1.957-2.385 3.536v11.636c0 2.141 1.999 4.849 4.079 4.849h18.824c2.078 0 3.45-2.707 3.45-4.849v-3.384l8.414 5.411c1.256 0.807 2.88-0.122 2.88-1.645v-12.401c0-1.522-1.624-2.451-2.88-1.645v0z"></path>
</svg>
