<!-- Generated by IcoMoon.io -->
<svg version="1.1" xmlns="http://www.w3.org/2000/svg" width="52" height="40" viewBox="0 0 52 40">
<title>mp-wifi-6</title>
<path fill="#37352f" d="M20.352 32.661l2.224 2.36c1.23 1.305 3.221 1.305 4.448 0l2.224-2.36c-2.457-2.607-6.439-2.607-8.895 0zM11.457 23.221l4.448 4.72c4.904-5.208 12.887-5.208 17.793 0l4.448-4.72c-7.37-7.825-19.319-7.825-26.688 0zM44.678 16.284l-2.085 2.213c-9.826-10.429-25.757-10.429-35.587 0l-2.085-2.213c-1.334-1.415-1.198-3.759 0.277-5.011 11.437-9.698 27.77-9.698 39.207 0 1.475 1.252 1.607 3.595 0.274 5.011z"></path>
</svg>
