<!-- Generated by IcoMoon.io -->
<svg version="1.1" xmlns="http://www.w3.org/2000/svg" width="40" height="40" viewBox="0 0 40 40">
<title>mt-all_inbox</title>
<path fill="#37352f" d="M23.2 24.251h6.4v3.2q0 0.851-0.651 1.5t-1.5 0.651h-14.9q-0.849 0-1.5-0.651t-0.649-1.5v-3.2h6.4q0 1.3 0.951 2.251t2.249 0.949 2.251-0.949 0.949-2.251zM27.449 16.8v-4.251h-14.9v4.251h4.251q0 1.3 0.949 2.251t2.251 0.949 2.251-0.949 0.949-2.251h4.251zM27.449 10.4q0.851 0 1.5 0.649t0.651 1.5v7.449q0 0.851-0.651 1.5t-1.5 0.649h-14.9q-0.851 0-1.5-0.649t-0.651-1.5v-7.449q0-0.851 0.651-1.5t1.5-0.649h14.9z"></path>
</svg>
