<!-- Generated by IcoMoon.io -->
<svg version="1.1" xmlns="http://www.w3.org/2000/svg" width="40" height="40" viewBox="0 0 40 40">
<title>mt-auto_delete</title>
<path fill="#37352f" d="M23.2 9.349h-3.751l-1.049-1.1h-5.349l-1.051 1.1h-3.751v2.1h14.949v-2.1zM24.251 16.8q-1.1 0-2.1 0.3v-4.551h-12.8v12.8q0 0.849 0.625 1.475t1.475 0.625h6.1q0.849 1.9 2.675 3.1t4.025 1.2q1.551 0 2.9-0.6t2.375-1.625 1.625-2.375 0.6-2.9-0.6-2.9-1.625-2.375-2.375-1.6-2.9-0.575zM24.251 29.6q-1.449 0-2.675-0.725t-1.925-1.925-0.7-2.7q0-1.449 0.7-2.675t1.925-1.925 2.675-0.7q1.5 0 2.7 0.7t1.925 1.925 0.725 2.675q0 1.5-0.725 2.7t-1.925 1.925-2.7 0.725zM24.8 20h-1.6v5.351l3.851 2.2 0.849-1.251-3.1-1.8v-4.5z"></path>
</svg>
