<!-- Generated by IcoMoon.io -->
<svg version="1.1" xmlns="http://www.w3.org/2000/svg" width="40" height="40" viewBox="0 0 40 40">
<title>mt-airline_seat_flat_angled</title>
<path fill="#37352f" d="M15 18.1q-0.5 0.3-1.4 0.3-0.849 0-1.7-0.525t-1.2-1.275q-0.3-0.5-0.3-1.4 0-0.849 0.525-1.7t1.275-1.2q0.5-0.3 1.4-0.3 0.851 0 1.7 0.525t1.2 1.275q0.3 0.7 0.3 1.4 0 0.851-0.525 1.7t-1.275 1.2zM8.8 20.149l0.751-2 20.251 7.3-0.7 2-4.851-1.7v1.7h-8.5v-4.8zM30.949 22.449l-0.751 2-13.2-4.751 2.251-6.049 9.1 3.3q1.149 0.4 2 1.575t0.849 2.425q0 0.851-0.251 1.5z"></path>
</svg>
