<!-- Generated by IcoMoon.io -->
<svg version="1.1" xmlns="http://www.w3.org/2000/svg" width="40" height="40" viewBox="0 0 40 40">
<title>mt-airline_seat_legroom_reduced</title>
<path fill="#37352f" d="M12.551 20q0 1.3 0.949 2.251t2.251 0.949h4.251v2.151h-4.251q-2.2 0-3.775-1.575t-1.575-3.775v-9.6h2.149v9.6zM28.5 27.7q0.149 0.751-0.325 1.325t-1.225 0.575h-4.8v-3.2l1.049-4.249h-6.4q-1.3 0-2.251-0.951t-0.951-2.251v-8.549h6.4v6.4h5.351q0.849 0 1.475 0.649t0.625 1.5l-2.1 7.449h1.5q0.6 0 1.075 0.375t0.575 0.925z"></path>
</svg>
