<!-- Generated by IcoMoon.io -->
<svg version="1.1" xmlns="http://www.w3.org/2000/svg" width="40" height="40" viewBox="0 0 40 40">
<title>mt-add_shopping_cart</title>
<path fill="#37352f" d="M14.849 22.949q0 0.251 0.251 0.251h12.349v2.151h-12.8q-0.849 0-1.475-0.651t-0.625-1.5q0-0.5 0.251-1l1.449-2.649-3.849-8.1h-2.151v-2.1h3.5q1 2.1 2 4.251 0.251 0.451 1.151 2.375t1.4 2.975h7.5q3.751-6.8 4.1-7.5l1.851 1.051-4.1 7.449q-0.6 1.1-1.849 1.1h-7.949l-0.951 1.751zM25.351 26.4q0.849 0 1.475 0.651t0.625 1.5-0.625 1.475-1.475 0.625-1.5-0.625-0.649-1.475 0.649-1.5 1.5-0.651zM14.651 26.4q0.849 0 1.5 0.651t0.651 1.5-0.651 1.475-1.5 0.625-1.475-0.625-0.625-1.475 0.625-1.5 1.475-0.651zM18.949 16.8v-3.2h-3.2v-2.151h3.2v-3.2h2.1v3.2h3.2v2.151h-3.2v3.2h-2.1z"></path>
</svg>
