<!-- Generated by IcoMoon.io -->
<svg version="1.1" xmlns="http://www.w3.org/2000/svg" width="40" height="40" viewBox="0 0 40 40">
<title>mt-art_track</title>
<path fill="#37352f" d="M18.4 23.2l-2.4-3.2-1.849 2.4-1.351-1.6-1.851 2.4h7.451zM20 16.8v6.4q0 0.851-0.651 1.5t-1.5 0.651h-6.4q-0.851 0-1.475-0.651t-0.625-1.5v-6.4q0-0.849 0.625-1.5t1.475-0.649h6.4q0.849 0 1.5 0.649t0.651 1.5zM22.149 25.351v-2.151h8.5v2.151h-8.5zM30.649 14.651v2.151h-8.5v-2.151h8.5zM30.649 21.051h-8.5v-2.1h8.5v2.1z"></path>
</svg>
