<!-- Generated by IcoMoon.io -->
<svg version="1.1" xmlns="http://www.w3.org/2000/svg" width="40" height="40" viewBox="0 0 40 40">
<title>mt-arrow_circle_up</title>
<path fill="#37352f" d="M20 28.551q-1.751 0-3.3-0.675t-2.725-1.851-1.849-2.725-0.675-3.3 0.675-3.3 1.849-2.725 2.725-1.851 3.3-0.675 3.3 0.675 2.725 1.851 1.851 2.725 0.675 3.3-0.675 3.3-1.851 2.725-2.725 1.851-3.3 0.675zM20 30.649q2.2 0 4.125-0.825t3.4-2.3 2.3-3.4 0.825-4.125-0.825-4.125-2.3-3.4-3.4-2.3-4.125-0.825-4.125 0.825-3.4 2.3-2.3 3.4-0.825 4.125 0.825 4.125 2.3 3.4 3.4 2.3 4.125 0.825v0zM18.949 20v4.251h2.1v-4.251h3.2l-4.251-4.251-4.251 4.251h3.2z"></path>
</svg>
