<!-- Generated by IcoMoon.io -->
<svg version="1.1" xmlns="http://www.w3.org/2000/svg" width="40" height="40" viewBox="0 0 40 40">
<title>mt-add_call</title>
<path fill="#37352f" d="M29.6 13.6v2.151h-3.2v3.2h-2.149v-3.2h-3.2v-2.151h3.2v-3.2h2.149v3.2h3.2zM28.551 23.751q0.449 0 0.751 0.3t0.3 0.751v3.751q0 0.449-0.3 0.751t-0.751 0.3q-7.5 0-12.825-5.325t-5.325-12.825q0-0.451 0.3-0.751t0.751-0.3h3.751q0.451 0 0.751 0.3t0.3 0.751q0 2 0.6 3.8 0.2 0.649-0.251 1.1l-2.349 2.349q2.349 4.6 7.049 7.051l2.349-2.351q0.451-0.449 1.1-0.251 1.8 0.6 3.8 0.6z"></path>
</svg>
