<!-- Generated by IcoMoon.io -->
<svg version="1.1" xmlns="http://www.w3.org/2000/svg" width="40" height="40" viewBox="0 0 40 40">
<title>mt-border_top</title>
<path fill="#37352f" d="M23.2 21.051v-2.1h2.151v2.1h-2.151zM27.449 29.6v-2.151h2.151v2.151h-2.151zM18.949 16.8v-2.151h2.1v2.151h-2.1zM23.2 29.6v-2.151h2.151v2.151h-2.151zM27.449 25.351v-2.151h2.151v2.151h-2.151zM10.4 10.4h19.2v2.149h-19.2v-2.149zM27.449 21.051v-2.1h2.151v2.1h-2.151zM27.449 16.8v-2.151h2.151v2.151h-2.151zM18.949 25.351v-2.151h2.1v2.151h-2.1zM10.4 16.8v-2.151h2.149v2.151h-2.149zM10.4 21.051v-2.1h2.149v2.1h-2.149zM10.4 29.6v-2.151h2.149v2.151h-2.149zM10.4 25.351v-2.151h2.149v2.151h-2.149zM18.949 29.6v-2.151h2.1v2.151h-2.1zM18.949 21.051v-2.1h2.1v2.1h-2.1zM14.651 21.051v-2.1h2.151v2.1h-2.151zM14.651 29.6v-2.151h2.151v2.151h-2.151z"></path>
</svg>
