<!-- Generated by IcoMoon.io -->
<svg version="1.1" xmlns="http://www.w3.org/2000/svg" width="40" height="40" viewBox="0 0 40 40">
<title>mt-bus_alert</title>
<path fill="#37352f" d="M23.2 17.849h2.151v2.151h-2.151v-2.151zM23.2 11.451h2.151v5.351h-2.151v-5.351zM24.251 21.051q2.2 0 3.775-1.551t1.575-3.751-1.575-3.775-3.775-1.575-3.751 1.575-1.551 3.775 1.551 3.751 3.751 1.551zM21.6 27.449q0.7 0 1.149-0.475t0.449-1.125-0.449-1.125-1.149-0.475-1.149 0.475-0.449 1.125 0.449 1.125 1.149 0.475zM10.4 21.051h8.651q-2.251-2.151-2.251-5.3h-6.4v5.3zM12 27.449q0.7 0 1.151-0.475t0.449-1.125-0.449-1.125-1.151-0.475-1.151 0.475-0.449 1.125 0.449 1.125 1.151 0.475zM24.251 8.251q3.1 0.049 5.275 2.251t2.175 5.251q0 2.651-1.849 4.8t-4.5 2.549v3.3q0 1.351-1.1 2.351v1.9q0 0.451-0.3 0.775t-0.751 0.325h-1.049q-0.451 0-0.775-0.325t-0.325-0.775v-1.049h-8.5v1.049q0 0.451-0.325 0.775t-0.775 0.325h-1.051q-0.449 0-0.751-0.325t-0.3-0.775v-1.9q-1.1-1-1.1-2.351v-10.649q0-2.549 2.2-3.425t6.349-0.875q0.2 0 0.651 0.025t0.651 0.025q0.949-1.351 2.725-2.3t3.425-0.951z"></path>
</svg>
