<!-- Generated by IcoMoon.io -->
<svg version="1.1" xmlns="http://www.w3.org/2000/svg" width="40" height="40" viewBox="0 0 40 40">
<title>mt-business</title>
<path fill="#37352f" d="M26.4 23.2v2.151h-2.149v-2.151h2.149zM26.4 18.949v2.1h-2.149v-2.1h2.149zM28.551 27.449v-10.649h-8.551v2.149h2.149v2.1h-2.151v2.149h2.151v2.151h-2.151v2.1h8.549zM17.849 14.651v-2.1h-2.1v2.1h2.1zM17.849 18.949v-2.149h-2.1v2.149h2.1zM17.849 23.2v-2.149h-2.1v2.149h2.1zM17.849 27.449v-2.1h-2.1v2.1h2.1zM13.6 14.651v-2.1h-2.149v2.1h2.149zM13.6 18.949v-2.149h-2.149v2.149h2.149zM13.6 23.2v-2.149h-2.149v2.149h2.149zM13.6 27.449v-2.1h-2.149v2.1h2.149zM20 14.651h10.649v14.951h-21.3v-19.2h10.649v4.251z"></path>
</svg>
