<!-- Generated by IcoMoon.io -->
<svg version="1.1" xmlns="http://www.w3.org/2000/svg" width="40" height="40" viewBox="0 0 40 40">
<title>mt-battery_unknown</title>
<path fill="#37352f" d="M22.449 20.751q0.751-0.751 0.751-1.8 0-1.3-0.949-2.251t-2.251-0.949-2.251 0.949-0.949 2.251h1.6q0-0.649 0.449-1.125t1.151-0.475 1.149 0.475 0.451 1.125-0.451 1.1l-1 1q-1 1-1 2.149h1.7q0-0.8 0.9-1.7zM21 26.351v-2.051h-2v2.051h2zM23.9 11.451q0.6 0 1.025 0.425t0.425 1.025v16.349q0 0.6-0.425 1t-1.025 0.4h-7.8q-0.6 0-1.025-0.4t-0.425-1v-16.351q0-0.6 0.425-1.025t1.025-0.425h1.751v-2.1h4.3v2.1h1.751z"></path>
</svg>
