<!-- Generated by IcoMoon.io -->
<svg version="1.1" xmlns="http://www.w3.org/2000/svg" width="40" height="40" viewBox="0 0 40 40">
<title>mt-batch_prediction</title>
<path fill="#37352f" d="M25.351 15.751h-10.7q-0.851 0-1.475 0.625t-0.625 1.475v10.7q0 0.849 0.625 1.475t1.475 0.625h10.7q0.849 0 1.475-0.625t0.625-1.475v-10.7q0-0.851-0.625-1.475t-1.475-0.625zM21.051 29.051h-2.1v-1.6h2.1v1.6zM21.051 26.4h-2.1q0-0.6-0.4-1.2t-0.951-1.251-0.951-1.375-0.4-1.525q0-1 0.525-1.851t1.351-1.349 1.875-0.5 1.875 0.5 1.351 1.349 0.525 1.851q0 0.8-0.4 1.525t-0.951 1.375-0.949 1.251-0.4 1.2zM26.4 14.151h-12.8q0-0.7 0.475-1.151t1.125-0.449h9.6q0.651 0 1.125 0.449t0.475 1.151v0zM25.351 10.951h-10.7q0-0.7 0.475-1.149t1.125-0.451h7.5q0.649 0 1.125 0.451t0.475 1.149v0z"></path>
</svg>
