<!-- Generated by IcoMoon.io -->
<svg version="1.1" xmlns="http://www.w3.org/2000/svg" width="40" height="40" viewBox="0 0 40 40">
<title>mt-car_repair</title>
<path fill="#37352f" d="M11.451 25.351h17.1v2.1h-7.5v3.2h-2.1v-3.2h-7.5v-2.1zM25.6 11.049q0.149 0.3 1.849 5.4v6.951q0 0.851-0.8 0.851h-0.5q-0.8 0-0.8-0.851v-1.251h-10.7v1.251q0 0.851-0.8 0.851h-0.5q-0.8 0-0.8-0.851v-6.951q1.449-4.3 1.649-5 0-0.049 0.1-0.175t0.1-0.225l0.049-0.049q0.2-0.251 0.451-0.4t0.4-0.2h9.251q0.6 0.049 1 0.6 0.051 0 0.051 0.051zM15.3 11.451l-1.4 4.3h12.2l-1.451-4.3h-9.349zM14.2 18.7q0 0.551 0.375 0.925t0.925 0.375 0.925-0.375 0.375-0.925-0.375-0.925-0.925-0.375-0.925 0.375-0.375 0.925zM24.5 20q0.551 0 0.925-0.375t0.375-0.925-0.375-0.925-0.925-0.375-0.925 0.375-0.375 0.925 0.375 0.925 0.925 0.375z"></path>
</svg>
