<!-- Generated by IcoMoon.io -->
<svg version="1.1" xmlns="http://www.w3.org/2000/svg" width="40" height="40" viewBox="0 0 40 40">
<title>mt-contact_page</title>
<path fill="#37352f" d="M22.149 9.349h-8.551q-0.9 0-1.525 0.625t-0.625 1.475v17.1q0 0.849 0.625 1.475t1.525 0.625h12.8q0.9 0 1.525-0.625t0.625-1.475v-12.8zM20 17.849q0.9 0 1.525 0.625t0.625 1.525-0.625 1.525-1.525 0.625-1.525-0.625-0.625-1.525 0.625-1.525 1.525-0.625zM24.251 26.4h-8.5v-0.6q0-0.649 0.349-1.2t0.951-0.8q0.649-0.3 1.4-0.449t1.551-0.151 1.551 0.151 1.4 0.449q0.6 0.251 0.951 0.8t0.351 1.2v0.6z"></path>
</svg>
