<!-- Generated by IcoMoon.io -->
<svg version="1.1" xmlns="http://www.w3.org/2000/svg" width="40" height="40" viewBox="0 0 40 40">
<title>mt-camera_rear</title>
<path fill="#37352f" d="M20 13.6q0.851 0 1.475-0.649t0.625-1.5-0.625-1.475-1.475-0.625-1.5 0.625-0.651 1.475 0.625 1.5 1.525 0.649zM25.351 7.2q0.849 0 1.475 0.649t0.625 1.5v14.9q0 0.851-0.625 1.5t-1.475 0.649h-7.5l3.2 3.2-3.2 3.2v-2.151h-5.3v-2.1h5.3v-2.151h-3.2q-0.851 0-1.475-0.649t-0.625-1.5v-14.9q0-0.849 0.625-1.5t1.475-0.649h10.7zM22.149 28.551h5.3v2.1h-5.3v-2.1z"></path>
</svg>
