<!-- Generated by IcoMoon.io -->
<svg version="1.1" xmlns="http://www.w3.org/2000/svg" width="40" height="40" viewBox="0 0 40 40">
<title>mt-color_lens</title>
<path fill="#37352f" d="M25.851 20q0.649 0 1.125-0.449t0.475-1.151-0.475-1.151-1.125-0.449-1.125 0.449-0.475 1.151 0.475 1.151 1.125 0.449zM22.649 15.751q0.649 0 1.125-0.475t0.475-1.125-0.475-1.125-1.125-0.475-1.125 0.475-0.475 1.125 0.475 1.125 1.125 0.475zM17.349 15.751q0.651 0 1.125-0.475t0.475-1.125-0.475-1.125-1.125-0.475-1.125 0.475-0.475 1.125 0.475 1.125 1.125 0.475zM14.151 20q0.651 0 1.125-0.449t0.475-1.151-0.475-1.151-1.125-0.449-1.125 0.449-0.475 1.151 0.475 1.151 1.125 0.449zM20 10.4q3.949 0 6.775 2.5t2.825 6.049q0 2.2-1.575 3.751t-3.775 1.551h-1.851q-0.7 0-1.149 0.475t-0.449 1.125q0 0.549 0.4 1.049t0.4 1.1q0 0.7-0.451 1.149t-1.151 0.451q-4 0-6.8-2.8t-2.8-6.8 2.8-6.8 6.8-2.8z"></path>
</svg>
