<!-- Generated by IcoMoon.io -->
<svg version="1.1" xmlns="http://www.w3.org/2000/svg" width="40" height="40" viewBox="0 0 40 40">
<title>mt-checkroom</title>
<path fill="#37352f" d="M30.251 26.6l-9.2-6.851v-1q0.9-0.251 1.549-0.9t0.951-1.525 0.1-1.875q-0.2-1.049-0.975-1.849t-1.825-1.049q-1.2-0.251-2.251 0.175t-1.7 1.375-0.649 2.1h2.149q0-0.649 0.475-1.125t1.125-0.475 1.125 0.475 0.475 1.125-0.475 1.125-1.175 0.475q-0.4 0-0.7 0.3t-0.3 0.751v1.9l-9.2 6.851q-0.4 0.3-0.425 0.775t0.275 0.825 0.8 0.351h19.2q0.5 0 0.8-0.351t0.275-0.825-0.425-0.775zM13.6 26.4l6.4-4.8 6.4 4.8h-12.8z"></path>
</svg>
