<!-- Generated by IcoMoon.io -->
<svg version="1.1" xmlns="http://www.w3.org/2000/svg" width="40" height="40" viewBox="0 0 40 40">
<title>mt-do_not_step</title>
<path fill="#37352f" d="M8.7 11.7l8.4 8.449q0.349 0.351 0 0.7-0.151 0.2-0.349 0.2-0.251 0-0.4-0.2l-1.8-1.8q-0.2 0.651-0.5 1.2l1.5 1.5q0.149 0.151 0.149 0.375t-0.149 0.375-0.4 0.151q-0.2 0-0.349-0.151l-1.351-1.349q-0.4 0.449-0.849 0.849l1.4 1.351q0.149 0.149 0.149 0.375t-0.149 0.375q-0.2 0.149-0.4 0.149-0.251 0-0.349-0.149l-1.5-1.451q-0.551 0.351-1.1 0.625t-1 0.425q-0.6 0.251-1 0.8t-0.4 1.251v2.8h10.149l3.551-3.551 6.349 6.3 1.5-1.5-19.6-19.6zM26.949 23.949l-1.5-1.549 4.751-4.751 1.551 1.5zM29.449 16.9l-4.751 4.749-7.6-7.551 4.8-4.751z"></path>
</svg>
