<!-- Generated by IcoMoon.io -->
<svg version="1.1" xmlns="http://www.w3.org/2000/svg" width="40" height="40" viewBox="0 0 40 40">
<title>mt-directions_train</title>
<path fill="#37352f" d="M26.4 17.849v-5.3h-12.8v5.3h12.8zM20 25.351q0.851 0 1.5-0.651t0.649-1.5-0.649-1.5-1.5-0.649-1.5 0.649-0.651 1.5 0.651 1.5 1.5 0.651zM11.451 23.751v-11.2q0-2.549 2.2-3.425t6.349-0.875 6.351 0.875 2.2 3.425v11.2q0 1.551-1.1 2.625t-2.649 1.075l1.6 1.6v0.551h-12.8v-0.551l1.6-1.6q-1.549 0-2.649-1.075t-1.1-2.625z"></path>
</svg>
