<!-- Generated by IcoMoon.io -->
<svg version="1.1" xmlns="http://www.w3.org/2000/svg" width="40" height="40" viewBox="0 0 40 40">
<title>mt-emoji_events</title>
<path fill="#37352f" d="M27.449 15.751v-1.1h-2.1v4.1q2.1-0.751 2.1-3zM14.651 18.751v-4.1h-2.1v1.1q0 2.251 2.1 3zM27.449 12.551q0.851 0 1.5 0.625t0.651 1.475v1.1q0 2-1.351 3.5t-3.349 1.751q-0.451 1.1-1.575 2t-2.275 1.149v3.3h4.3v2.151h-10.7v-2.151h4.3v-3.3q-1.149-0.251-2.275-1.149t-1.575-2q-2-0.251-3.349-1.751t-1.349-3.5v-1.1q0-0.851 0.649-1.475t1.5-0.625h2.1v-2.149h10.7v2.149h2.1z"></path>
</svg>
