<!-- Generated by IcoMoon.io -->
<svg version="1.1" xmlns="http://www.w3.org/2000/svg" width="40" height="40" viewBox="0 0 40 40">
<title>mt-electric_car</title>
<path fill="#37352f" d="M27.4 9.349q-0.2-0.5-0.6-0.8t-0.949-0.3h-11.7q-0.551 0-0.949 0.3t-0.6 0.8l-2.2 6.4v8.5q0 0.449 0.325 0.775t0.725 0.325h1.1q0.4 0 0.725-0.325t0.325-0.775v-1.051h12.8v1.051q0 0.449 0.325 0.775t0.725 0.325h1.1q0.4 0 0.725-0.325t0.325-0.775v-8.5zM14.151 20q-0.7 0-1.151-0.475t-0.449-1.125 0.449-1.125 1.151-0.475q0.651 0 1.125 0.475t0.475 1.125-0.475 1.125-1.125 0.475zM25.851 20q-0.651 0-1.125-0.475t-0.475-1.125 0.475-1.125 1.125-0.475q0.7 0 1.149 0.475t0.449 1.125-0.449 1.125-1.149 0.475zM12.551 14.651l1.6-4.8h11.7l1.6 4.8h-14.9zM14.651 28.551h4.3v-2.151l6.4 3.2h-4.3v2.149z"></path>
</svg>
