<!-- Generated by IcoMoon.io -->
<svg version="1.1" xmlns="http://www.w3.org/2000/svg" width="40" height="40" viewBox="0 0 40 40">
<title>mt-favorite_outline</title>
<path fill="#37352f" d="M20.1 27q2.4-2.149 3.549-3.251t2.5-2.6 1.875-2.651 0.525-2.251q0-1.6-1.075-2.649t-2.675-1.051q-1.251 0-2.325 0.7t-1.475 1.8h-2q-0.4-1.1-1.475-1.8t-2.325-0.7q-1.6 0-2.675 1.051t-1.075 2.649q0 1.1 0.525 2.251t1.875 2.651 2.5 2.6 3.549 3.251l0.1 0.1zM24.8 10.4q2.5 0 4.175 1.7t1.675 4.151q0 1.449-0.549 2.825t-2.025 3.075-2.675 2.851-3.849 3.551l-1.551 1.4-1.551-1.349q-3.449-3.1-4.975-4.651t-2.825-3.649-1.3-4.051q0-2.449 1.675-4.149t4.175-1.7q2.9 0 4.8 2.249 1.9-2.251 4.8-2.251z"></path>
</svg>
