<!-- Generated by IcoMoon.io -->
<svg version="1.1" xmlns="http://www.w3.org/2000/svg" width="40" height="40" viewBox="0 0 40 40">
<title>mt-filter_tilt_shift</title>
<path fill="#37352f" d="M13.251 28.251l1.5-1.5q1.8 1.4 4.2 1.7v2.151q-1.349-0.151-3.025-0.851t-2.675-1.5zM21.051 28.449q2.349-0.3 4.151-1.7l1.551 1.5q-2.551 2.051-5.7 2.351v-2.151zM26.751 25.251q1.449-1.8 1.7-4.149h2.151q-0.151 1.3-0.851 2.975t-1.5 2.675zM23.2 20q0 1.3-0.949 2.251t-2.251 0.949-2.251-0.949-0.949-2.251 0.949-2.251 2.251-0.949 2.251 0.949 0.949 2.251zM11.549 21.051q0.251 2.349 1.7 4.151l-1.5 1.551q-2.049-2.551-2.349-5.7h2.149zM13.251 14.751q-1.4 1.849-1.7 4.2h-2.149q0.149-1.349 0.849-3.025t1.5-2.675zM28.449 18.949q-0.3-2.4-1.7-4.2l1.5-1.5q2.051 2.551 2.351 5.7h-2.151zM26.751 11.751l-1.5 1.5q-1.851-1.4-4.2-1.7v-2.149q1.349 0.149 3.025 0.849t2.675 1.5zM18.949 11.549q-2.4 0.3-4.2 1.7l-1.5-1.5q2.551-2.049 5.7-2.349v2.149z"></path>
</svg>
