<!-- Generated by IcoMoon.io -->
<svg version="1.1" xmlns="http://www.w3.org/2000/svg" width="40" height="40" viewBox="0 0 40 40">
<title>mt-format_shapes</title>
<path fill="#37352f" d="M18.6 20.8h2.8l-1.4-4.1zM21.851 22.149h-3.751l-0.751 2.1h-1.751l3.651-9.6h1.5l3.6 9.6h-1.7zM27.449 12.551h2.151v-2.149h-2.151v2.149zM29.6 29.6v-2.151h-2.151v2.151h2.151zM25.351 27.449v-2.1h2.1v-10.7h-2.1v-2.1h-10.7v2.1h-2.1v10.7h2.1v2.1h10.7zM12.551 29.6v-2.151h-2.149v2.151h2.149zM10.4 10.4v2.149h2.149v-2.149h-2.149zM31.751 14.651h-2.149v10.7h2.149v6.4h-6.4v-2.149h-10.7v2.149h-6.4v-6.4h2.151v-10.7h-2.151v-6.4h6.4v2.151h10.7v-2.151h6.4v6.4z"></path>
</svg>
