<!-- Generated by IcoMoon.io -->
<svg version="1.1" xmlns="http://www.w3.org/2000/svg" width="40" height="40" viewBox="0 0 40 40">
<title>mt-goat</title>
<path fill="#37352f" d="M32.751 16.9q0.051 0.049 0.051 0.125t-0.051 0.125l-1.251 1.6q-0.1 0.1-0.2 0.1l-0.751-0.151-0.351 1.1q-0.1 0.2-0.325 0.2t-0.325-0.2l-0.7-1.5-1.151-0.251-2.349 5.6 0.849 6.8q0 0.2-0.2 0.2h-1q-0.1 0-0.2-0.149l-1-4.051-0.5-0.849-1.251 4.9q0 0.149-0.2 0.149h-1.049q-0.2 0-0.2-0.2l1.151-6.751h-6.751l-1.751 3.3 0.4 3.4q0.1 0.251-0.2 0.251h-1q-0.151 0-0.2-0.1l-1.4-5.1-1.7 1.949 0.3 3q0.1 0.251-0.2 0.251h-1.1q-0.2 0-0.2-0.1l-0.651-2.8 1.051-4.1v-7.2q-1.149-0.451-1.149-1.5h13.7q2.4 0.049 4.751-1.651-0.4-1.1 0.3-1.8 1.4 1 1.8 1.251 0.349 0.2 0.575-0.075t0.125-0.625q-0.449-1.4-2.251-2.1-0.051 0-0.151-0.049-0.6-0.149-0.5-0.4 0-0.151 0.2-0.151 1.449 0.2 2.475 1.125t1.375 1.775l0.2 0.151q0.151 0.2 0.325 0.4t0.3 0.575 0.075 0.775q0 0.251 0.1 0.349z"></path>
</svg>
