<!-- Generated by IcoMoon.io -->
<svg version="1.1" xmlns="http://www.w3.org/2000/svg" width="40" height="40" viewBox="0 0 40 40">
<title>mt-group</title>
<path fill="#37352f" d="M24.251 21.051q1.4 0 3.051 0.4t3.051 1.3 1.4 2.051v2.649h-6.4v-2.649q0-2.2-2.1-3.7 0.351-0.049 1-0.049zM15.751 21.051q1.4 0 3.051 0.4t3.025 1.3 1.375 2.051v2.649h-14.949v-2.649q0-1.151 1.4-2.051t3.049-1.3 3.051-0.4zM15.751 18.949q-1.3 0-2.251-0.949t-0.949-2.251 0.949-2.251 2.251-0.949 2.225 0.949 0.925 2.251-0.925 2.251-2.225 0.949zM24.251 18.949q-1.3 0-2.251-0.949t-0.949-2.251 0.949-2.251 2.251-0.949 2.251 0.949 0.949 2.251-0.949 2.251-2.251 0.949z"></path>
</svg>
