<!-- Generated by IcoMoon.io -->
<svg version="1.1" xmlns="http://www.w3.org/2000/svg" width="40" height="40" viewBox="0 0 40 40">
<title>mt-hearing_disabled</title>
<path fill="#37352f" d="M13.651 10.6q0.9-0.6 1.949-0.925t2.251-0.325q1.6 0 2.951 0.575t2.375 1.575 1.6 2.375 0.575 2.925q0 2.1-1.151 4.151 0 0.051-0.025 0.075l-0.075 0.075-1.549-1.6q0.649-1.4 0.649-2.7 0-1.5-0.7-2.7t-1.925-1.925-2.725-0.725q-0.7 0-1.375 0.2t-1.275 0.549zM25.551 22.551l1.551 1.5q1.149-1.5 1.825-3.351t0.675-3.9q0-2.451-0.925-4.575t-2.525-3.725l-1.5 1.5q1.3 1.3 2.051 3.049t0.751 3.751q0 1.6-0.5 3.075t-1.4 2.675zM17.849 14.151q-0.3 0-0.6 0.049l3.2 3.251q0.1-0.349 0.1-0.649 0-1.1-0.8-1.875t-1.9-0.775zM29.8 29.8l-19.6-19.6-1.5 1.5 2.251 2.251q-0.251 0.649-0.4 1.375t-0.151 1.475h2.151q0-0.3 0.025-0.575t0.075-0.525l7.049 7.051q-0.7 0.5-1.349 1.2t-1.049 1.851q-0.4 1.2-0.825 1.725t-1.025 0.825q-0.3 0.2-0.8 0.2-0.849 0-1.475-0.625t-0.625-1.525h-2.151q0 1.2 0.575 2.151t1.549 1.525 2.125 0.575q0.951 0 1.751-0.349 1.1-0.551 1.775-1.449t1.175-2.351q0.251-0.8 0.7-1.251t1.1-0.949q0.051 0 0.051-0.025t0.051-0.025l7.049 7.051z"></path>
</svg>
