<!-- Generated by IcoMoon.io -->
<svg version="1.1" xmlns="http://www.w3.org/2000/svg" width="40" height="40" viewBox="0 0 40 40">
<title>mt-healing</title>
<path fill="#37352f" d="M24.949 28.9l3.9-3.9-3.9-3.851-3.849 3.9zM22.149 18.949q-0.451 0-0.775 0.3t-0.325 0.751 0.325 0.751 0.775 0.3 0.751-0.3 0.3-0.751-0.3-0.751-0.751-0.3zM20 23.2q0.449 0 0.751-0.3t0.3-0.751-0.3-0.775-0.751-0.325-0.751 0.325-0.3 0.775 0.3 0.751 0.751 0.3zM17.849 21.051q0.451 0 0.775-0.3t0.325-0.751-0.325-0.751-0.775-0.3-0.751 0.3-0.3 0.751 0.3 0.751 0.751 0.3zM15 18.9l3.849-3.9-3.849-3.849-3.9 3.9zM20 16.8q-0.449 0-0.751 0.3t-0.3 0.751 0.3 0.775 0.751 0.325 0.751-0.325 0.3-0.775-0.3-0.751-0.751-0.3zM26.1 20l4.251 4.251q0.349 0.351 0.349 0.751t-0.349 0.751l-4.6 4.649q-0.3 0.3-0.751 0.3-0.5 0-0.8-0.3l-4.2-4.251-4.251 4.251q-0.3 0.3-0.751 0.3t-0.751-0.3l-4.651-4.649q-0.3-0.3-0.3-0.751t0.3-0.751l4.251-4.251-4.251-4.2q-0.3-0.3-0.3-0.8 0-0.449 0.3-0.751l4.651-4.6q0.3-0.3 0.751-0.3t0.751 0.3l4.251 4.251 4.2-4.251q0.3-0.3 0.8-0.3 0.449 0 0.751 0.3l4.6 4.6q0.3 0.3 0.3 0.751 0 0.5-0.3 0.8z"></path>
</svg>
