<!-- Generated by IcoMoon.io -->
<svg version="1.1" xmlns="http://www.w3.org/2000/svg" width="40" height="40" viewBox="0 0 40 40">
<title>mt-history_toggle_off</title>
<path fill="#37352f" d="M23.3 27.851l1.049 1.849q-1.549 0.751-3.3 0.9v-2.151q1.2-0.151 2.251-0.6zM11.549 21.051h-2.149q0.149 1.751 0.9 3.3l1.851-1.049q-0.451-1.051-0.6-2.251zM23.3 12.151l1.049-1.851q-1.549-0.751-3.3-0.9v2.149q1.2 0.149 2.251 0.6zM28.449 18.949h2.151q-0.151-1.751-0.9-3.3l-1.849 1.049q0.449 1.051 0.6 2.251zM16.7 27.851l-1.049 1.849q1.549 0.751 3.3 0.9v-2.151q-1.2-0.151-2.251-0.6zM18.949 11.549v-2.149q-1.751 0.149-3.3 0.9l1.049 1.851q1.051-0.451 2.251-0.6zM26.8 14.849l1.849-1.1q-1.049-1.4-2.449-2.4l-1.051 1.851q0.951 0.7 1.651 1.649zM12.151 16.7l-1.851-1.049q-0.751 1.549-0.9 3.3h2.149q0.149-1.2 0.6-2.251zM28.449 21.051q-0.149 1.2-0.6 2.251l1.849 1.049q0.751-1.549 0.9-3.3h-2.151zM25.149 26.8l1.1 1.849q1.4-1.049 2.4-2.449l-1.849-1.051q-0.7 0.951-1.649 1.651zM14.849 13.2l-1.049-1.851q-1.451 1.051-2.451 2.451l1.851 1.051q0.7-0.9 1.649-1.651zM13.2 25.149l-1.851 1.049q1.051 1.4 2.451 2.449l1.051-1.849q-0.9-0.7-1.651-1.649zM21.051 14.651h-2.1v5.8l4.549 4.551 1.5-1.5-3.949-3.949v-4.9z"></path>
</svg>
