<!-- Generated by IcoMoon.io -->
<svg version="1.1" xmlns="http://www.w3.org/2000/svg" width="40" height="40" viewBox="0 0 40 40">
<title>mt-help_center</title>
<path fill="#37352f" d="M27.449 10.4h-14.9q-0.9 0-1.525 0.625t-0.625 1.525v14.9q0 0.9 0.625 1.525t1.525 0.625h14.9q0.9 0 1.525-0.625t0.625-1.525v-14.9q0-0.9-0.625-1.525t-1.525-0.625zM20 26.4q-0.551 0-0.949-0.4t-0.4-0.949 0.4-0.951 0.949-0.4q0.6 0 0.975 0.4t0.375 0.951-0.375 0.949-0.975 0.4zM23.2 18.5q-0.6 0.9-1.125 1.325t-0.825 0.975q-0.149 0.251-0.2 0.525t-0.051 1.025h-1.949v-1t0.349-1.151q0.349-0.7 1-1.175t1.049-1.125q0.351-0.4 0.3-1t-0.475-1.049-1.275-0.451-1.3 0.525-0.6 1.075l-1.751-0.751q0.349-1.049 1.275-1.849t2.375-0.8q1.151 0 1.975 0.475t1.225 1.125q0.351 0.6 0.451 1.549t-0.451 1.751z"></path>
</svg>
