<!-- Generated by IcoMoon.io -->
<svg version="1.1" xmlns="http://www.w3.org/2000/svg" width="40" height="40" viewBox="0 0 40 40">
<title>mt-highlight_alt</title>
<path fill="#37352f" d="M25.351 12.551h-2.151v-2.149h2.151v2.149zM23.2 29.6h2.151v-2.751l2.751 2.751 1.5-1.5-2.751-2.751h2.751v-2.151h-6.4v6.4zM27.449 16.8h2.151v-2.151h-2.151v2.151zM27.449 21.051h2.151v-2.1h-2.151v2.1zM18.949 29.6h2.1v-2.151h-2.1v2.151zM14.651 12.551h2.151v-2.149h-2.151v2.149zM10.4 25.351h2.149v-2.151h-2.149v2.151zM12.551 29.6v-2.151h-2.149q0 0.9 0.625 1.525t1.525 0.625zM27.449 10.4v2.149h2.151q0-0.9-0.625-1.525t-1.525-0.625zM18.949 12.551h2.1v-2.149h-2.1v2.149zM10.4 16.8h2.149v-2.151h-2.149v2.151zM14.651 29.6h2.151v-2.151h-2.151v2.151zM10.4 21.051h2.149v-2.1h-2.149v2.1zM10.4 12.551h2.149v-2.149q-0.9 0-1.525 0.625t-0.625 1.525z"></path>
</svg>
