<!-- Generated by IcoMoon.io -->
<svg version="1.1" xmlns="http://www.w3.org/2000/svg" width="40" height="40" viewBox="0 0 40 40">
<title>mt-icecream</title>
<path fill="#37352f" d="M14.5 21.051q-1.251-0.1-2.151-1.025t-0.9-2.175q0-1.151 0.775-2.049t1.925-1.1q0.2-2.251 1.875-3.8t3.975-1.549 3.975 1.549 1.875 3.8q1.149 0.2 1.925 1.1t0.775 2.049q0 1.251-0.875 2.175t-2.125 1.025l-5.5 10.7zM16.6 20.449l3.451 6.6 3.4-6.6q-0.049-0.049-0.175-0.149t-0.175-0.149q-1.451 0.9-3.1 0.9t-3.1-0.9q-0.049 0.049-0.1 0.125t-0.1 0.125-0.1 0.049z"></path>
</svg>
