<!-- Generated by IcoMoon.io -->
<svg version="1.1" xmlns="http://www.w3.org/2000/svg" width="40" height="40" viewBox="0 0 40 40">
<title>mt-invert_colors_off</title>
<path fill="#37352f" d="M20 12.651l-2.449 2.4-1.5-1.5 3.949-3.951 6.051 6.051q1.9 1.9 2.349 4.575t-0.649 5.025l-7.751-7.7v-4.9zM20 28.1v-5.151l-5.1-5.1q-1.3 1.7-1.3 3.849 0 1.1 0.551 2.4t1.349 2.1q1.9 1.9 4.5 1.9zM29.251 29.449l0.351 0.4-1.351 1.349-2.9-2.9q-2.351 1.9-5.351 1.9-1.449 0-3.225-0.725t-2.825-1.775-1.775-2.8-0.725-3.2q0-1.251 0.549-2.849t1.351-2.549l-2.949-2.951 1.351-1.349q14.949 14.951 17.5 17.451z"></path>
</svg>
