<!-- Generated by IcoMoon.io -->
<svg version="1.1" xmlns="http://www.w3.org/2000/svg" width="40" height="40" viewBox="0 0 40 40">
<title>mt-image_aspect_ratio</title>
<path fill="#37352f" d="M28.551 26.4v-12.8h-17.1v12.8h17.1zM28.551 11.451q0.849 0 1.475 0.649t0.625 1.5v12.8q0 0.851-0.625 1.5t-1.475 0.651h-17.1q-0.851 0-1.475-0.651t-0.625-1.5v-12.8q0-0.851 0.625-1.5t1.475-0.649h17.1zM20 17.849v2.151h-2.151v-2.151h2.151zM15.751 17.849v2.151h-2.151v-2.151h2.151zM24.251 22.149v2.1h-2.1v-2.1h2.1zM24.251 17.849v2.151h-2.1v-2.151h2.1z"></path>
</svg>
