<!-- Generated by IcoMoon.io -->
<svg version="1.1" xmlns="http://www.w3.org/2000/svg" width="40" height="40" viewBox="0 0 40 40">
<title>mt-insights</title>
<path fill="#37352f" d="M29.6 15.751q-0.751 0-1.275 0.425t-0.751 1.049-0.025 1.175l-3.8 3.8q-0.551-0.149-1.1 0l-2.7-2.7q0.149-0.6-0.051-1.225t-0.725-1.049-1.325-0.425q-0.751 0-1.275 0.425t-0.725 1.049-0.051 1.225l-4.849 4.849q-0.6-0.2-1.2 0.025t-1.049 0.751-0.451 1.275q0 0.9 0.625 1.525t1.525 0.625q0.751 0 1.275-0.449t0.751-1.051 0.025-1.2l4.849-4.849q0.551 0.149 1.1 0l2.751 2.7q-0.2 0.6 0 1.225t0.725 1.051 1.325 0.425q0.751 0 1.275-0.425t0.751-1.051 0.025-1.225l3.8-3.751q0.6 0.151 1.2-0.049t1.051-0.725 0.449-1.325q0-0.849-0.625-1.475t-1.525-0.625zM23.2 16.8l1-2.2 2.2-1-2.2-1-1-2.2-1 2.2-2.2 1 2.2 1zM10.951 18.949l0.5-2.149 2.149-0.551-2.149-0.5-0.5-2.149-0.549 2.149-2.149 0.5 2.151 0.551z"></path>
</svg>
