<!-- Generated by IcoMoon.io -->
<svg version="1.1" xmlns="http://www.w3.org/2000/svg" width="40" height="40" viewBox="0 0 40 40">
<title>mt-insert_emoticon</title>
<path fill="#37352f" d="M20 25.851q-1.849 0-3.325-1.025t-2.125-2.675h10.9q-0.649 1.651-2.125 2.675t-3.325 1.025zM16.251 18.949q-0.651 0-1.125-0.475t-0.475-1.125 0.475-1.125 1.125-0.475 1.125 0.475 0.475 1.125-0.475 1.125-1.125 0.475zM23.751 18.949q-0.649 0-1.125-0.475t-0.475-1.125 0.475-1.125 1.125-0.475 1.125 0.475 0.475 1.125-0.475 1.125-1.125 0.475zM20 28.551q3.5 0 6.025-2.525t2.525-6.025-2.525-6.025-6.025-2.525-6.025 2.525-2.525 6.025 2.525 6.025 6.025 2.525zM20 9.349q4.4 0 7.525 3.125t3.125 7.525-3.125 7.525-7.525 3.125-7.525-3.125-3.125-7.525 3.125-7.525 7.525-3.125z"></path>
</svg>
