<!-- Generated by IcoMoon.io -->
<svg version="1.1" xmlns="http://www.w3.org/2000/svg" width="40" height="40" viewBox="0 0 40 40">
<title>mt-link</title>
<path fill="#37352f" d="M25.351 14.651q2.2 0 3.751 1.575t1.549 3.775-1.549 3.775-3.751 1.575h-4.3v-2.051h4.3q1.349 0 2.325-0.975t0.975-2.325-0.975-2.325-2.325-0.975h-4.3v-2.049h4.3zM15.751 21.051v-2.1h8.5v2.1h-8.5zM11.349 20q0 1.351 0.975 2.325t2.325 0.975h4.3v2.051h-4.3q-2.2 0-3.751-1.575t-1.549-3.775 1.549-3.775 3.751-1.575h4.3v2.049h-4.3q-1.349 0-2.325 0.975t-0.975 2.325z"></path>
</svg>
