<!-- Generated by IcoMoon.io -->
<svg version="1.1" xmlns="http://www.w3.org/2000/svg" width="40" height="40" viewBox="0 0 40 40">
<title>mt-luggage</title>
<path fill="#37352f" d="M25.351 13.6h-2.151v-3.2q0-0.451-0.325-0.751t-0.725-0.3h-4.3q-0.4 0-0.725 0.3t-0.325 0.751v3.2h-2.149q-0.851 0-1.475 0.625t-0.625 1.525v11.7q0 0.9 0.625 1.525t1.475 0.625q0 0.449 0.325 0.751t0.775 0.3q0.4 0 0.725-0.3t0.325-0.751h6.4q0 0.449 0.325 0.751t0.725 0.3q0.449 0 0.775-0.3t0.325-0.751q0.849 0 1.475-0.625t0.625-1.525v-11.7q0-0.9-0.625-1.525t-1.475-0.625zM17.349 26.4h-1.6v-9.6h1.6v9.6zM20.8 26.4h-1.6v-9.6h1.6v9.6zM21.6 13.6h-3.2v-2.649h3.2v2.649zM24.251 26.4h-1.6v-9.6h1.6v9.6z"></path>
</svg>
