<!-- Generated by IcoMoon.io -->
<svg version="1.1" xmlns="http://www.w3.org/2000/svg" width="40" height="40" viewBox="0 0 40 40">
<title>mt-loop</title>
<path fill="#37352f" d="M20 26.4v-3.2l4.251 4.251-4.251 4.3v-3.2q-3.5 0-6.025-2.525t-2.525-6.025q0-2.5 1.351-4.551l1.549 1.551q-0.751 1.349-0.751 3 0 2.649 1.875 4.525t4.525 1.875zM20 11.451q3.5 0 6.025 2.525t2.525 6.025q0 2.5-1.349 4.551l-1.551-1.551q0.751-1.351 0.751-3 0-2.651-1.875-4.525t-4.525-1.875v3.2l-4.251-4.251 4.251-4.3v3.2z"></path>
</svg>
