<!-- Generated by IcoMoon.io -->
<svg version="1.1" xmlns="http://www.w3.org/2000/svg" width="40" height="40" viewBox="0 0 40 40">
<title>mt-lock_open</title>
<path fill="#37352f" d="M26.4 28.551v-10.7h-12.8v10.7h12.8zM26.4 15.751q0.851 0 1.5 0.625t0.651 1.475v10.7q0 0.849-0.651 1.475t-1.5 0.625h-12.8q-0.851 0-1.5-0.625t-0.649-1.475v-10.7q0-0.851 0.649-1.475t1.5-0.625h9.7v-2.149q0-1.351-0.975-2.325t-2.325-0.975-2.325 0.975-0.975 2.325h-2.049q0-2.2 1.575-3.775t3.775-1.575 3.775 1.575 1.575 3.775v2.149h1.049zM20 25.351q-0.849 0-1.5-0.651t-0.651-1.5 0.651-1.5 1.5-0.649 1.5 0.649 0.649 1.5-0.649 1.5-1.5 0.651z"></path>
</svg>
