<!-- Generated by IcoMoon.io -->
<svg version="1.1" xmlns="http://www.w3.org/2000/svg" width="40" height="40" viewBox="0 0 40 40">
<title>mt-link_off</title>
<path fill="#37352f" d="M9.349 11.751l1.351-1.349 17.851 17.849-1.351 1.351-4.3-4.251h-1.851v-1.851l-2.4-2.449h-2.9v-2.1h0.751l-2.2-2.2q-1.251 0.151-2.1 1.075t-0.851 2.175q0 1.351 0.975 2.325t2.325 0.975h4.3v2.051h-4.3q-2.2 0-3.751-1.575t-1.549-3.775q0-1.5 0.951-2.951t2.349-2zM24.251 18.949v2.1h-0.2l-2.1-2.1h2.3zM25.351 14.651q2.2 0 3.751 1.575t1.549 3.775q0 3.251-2.9 4.751l-1.551-1.551q1.051-0.251 1.751-1.149t0.7-2.051q0-1.349-0.975-2.325t-2.325-0.975h-4.3v-2.049h4.3z"></path>
</svg>
