<!-- Generated by IcoMoon.io -->
<svg version="1.1" xmlns="http://www.w3.org/2000/svg" width="40" height="40" viewBox="0 0 40 40">
<title>mt-list_alt</title>
<path fill="#37352f" d="M14.651 23.2h2.151v2.151h-2.151v-2.151zM14.651 18.949h2.151v2.1h-2.151v-2.1zM14.651 14.651h2.151v2.151h-2.151v-2.151zM18.949 23.2h6.4v2.151h-6.4v-2.151zM18.949 18.949h6.4v2.1h-6.4v-2.1zM18.949 14.651h6.4v2.151h-6.4v-2.151zM28.649 10.4q0.351 0 0.651 0.275t0.3 0.675v17.3q0 0.351-0.3 0.651t-0.651 0.3h-17.3q-0.4 0-0.675-0.3t-0.275-0.651v-17.3q0-0.951 0.951-0.951h17.3zM27.449 12.551h-14.9v14.9h14.9v-14.9z"></path>
</svg>
