<!-- Generated by IcoMoon.io -->
<svg version="1.1" xmlns="http://www.w3.org/2000/svg" width="40" height="40" viewBox="0 0 40 40">
<title>mt-moped</title>
<path fill="#37352f" d="M27.449 14.651q0-0.851-0.625-1.475t-1.475-0.625h-3.2v2.1h3.2v2.849l-3.751 4.649h-3.751v-5.349h-4.251q-1.2 0-2.149 0.575t-1.525 1.551-0.575 2.125v3.2h2.1q0 0.9 0.449 1.625t1.175 1.151 1.575 0.425q0.9 0 1.625-0.425t1.151-1.151 0.425-1.625h4.8l4.8-6v-3.6zM14.651 25.351q-0.4 0-0.725-0.325t-0.325-0.775h2.151q0 0.449-0.325 0.775t-0.775 0.325zM12.551 13.6h5.3v2.151h-5.3v-2.151zM27.449 21.051q-0.849 0-1.575 0.449t-1.175 1.175-0.449 1.575q0 0.9 0.449 1.625t1.175 1.149 1.575 0.425q0.9 0 1.625-0.425t1.151-1.149 0.425-1.625q0-0.851-0.425-1.575t-1.151-1.175-1.625-0.449zM27.449 25.351q-0.4 0-0.725-0.325t-0.325-0.775q0-0.4 0.325-0.725t0.725-0.325q0.449 0 0.775 0.325t0.325 0.725q0 0.449-0.325 0.775t-0.775 0.325z"></path>
</svg>
