<!-- Generated by IcoMoon.io -->
<svg version="1.1" xmlns="http://www.w3.org/2000/svg" width="40" height="40" viewBox="0 0 40 40">
<title>mt-mp9</title>
<path fill="#37352f" d="M23.751 22.149h1.6v1.6h-1.6v-1.6zM26.949 24.251v-2.649q0-0.451-0.325-0.751t-0.775-0.3h-3.7v6.4h1.6v-1.6h2.1q0.449 0 0.775-0.325t0.325-0.775zM20 26.949v-5.349q0-0.451-0.3-0.751t-0.751-0.3h-4.8q-0.449 0-0.775 0.3t-0.325 0.751v5.351h1.6v-4.8h1.1v3.2h1.6v-3.2h1.049v4.8h1.6zM14.651 13.051v1.6h1.6v4.8h1.6v-6.4h-3.2zM21.6 15.751v-1.6h1.6v1.6h-1.6zM20 17.849v1.6h3.751q0.449 0 0.751-0.3t0.3-0.751v-4.251q0-0.449-0.3-0.775t-0.751-0.325h-2.7q-0.451 0-0.751 0.325t-0.3 0.775v1.6q0 0.451 0.3 0.751t0.751 0.3h2.149v1.049h-3.2zM27.449 10.4q0.851 0 1.5 0.649t0.651 1.5v14.9q0 0.849-0.651 1.5t-1.5 0.651h-14.9q-0.851 0-1.5-0.651t-0.651-1.5v-14.9q0-0.849 0.651-1.5t1.5-0.649h14.9z"></path>
</svg>
