<!-- Generated by IcoMoon.io -->
<svg version="1.1" xmlns="http://www.w3.org/2000/svg" width="40" height="40" viewBox="0 0 40 40">
<title>mt-mark_chat_unread</title>
<path fill="#37352f" d="M30.649 14.651v9.6q0 0.9-0.625 1.525t-1.475 0.625h-14.949l-4.251 4.251v-19.2q0-0.851 0.625-1.475t1.475-0.625h10.8q-0.051 0.251-0.075 0.525t-0.025 0.525q0 1.449 0.7 2.675t1.925 1.949 2.675 0.725q0.9 0 1.725-0.3t1.475-0.8zM24.251 10.4q0 0.9 0.449 1.625t1.175 1.149 1.575 0.425q0.9 0 1.625-0.425t1.151-1.149 0.425-1.625-0.425-1.625-1.151-1.149-1.625-0.425q-0.849 0-1.575 0.425t-1.175 1.149-0.449 1.625z"></path>
</svg>
