<!-- Generated by IcoMoon.io -->
<svg version="1.1" xmlns="http://www.w3.org/2000/svg" width="40" height="40" viewBox="0 0 40 40">
<title>mt-money_off</title>
<path fill="#37352f" d="M12.9 11.549l15.551 15.6-1.349 1.351-2.351-2.4q-0.949 0.849-2.6 1.2v2.3h-3.2v-2.3q-1.649-0.351-2.751-1.4t-1.2-2.7h2.349q0.2 2.251 3.2 2.251 1.849 0 2.549-1l-3.751-3.7q-4.151-1.251-4.151-4.2l-3.649-3.651zM20.551 14.551q-0.951 0-1.651 0.3l-1.551-1.551q0.7-0.351 1.6-0.6v-2.3h3.2v2.351q1.6 0.4 2.475 1.5t0.925 2.549h-2.351q-0.1-2.251-2.649-2.251z"></path>
</svg>
