<!-- Generated by IcoMoon.io -->
<svg version="1.1" xmlns="http://www.w3.org/2000/svg" width="40" height="40" viewBox="0 0 40 40">
<title>mt-money</title>
<path fill="#37352f" d="M11.451 26.4h17.1v-12.8h-17.1v12.8zM9.349 11.451h21.3v17.1h-21.3v-17.1zM25.351 22.149v-4.3h-1.1v4.3h1.1zM26.4 15.751q0.451 0 0.751 0.3t0.3 0.751v6.4q0 0.449-0.3 0.751t-0.751 0.3h-3.2q-0.449 0-0.751-0.3t-0.3-0.751v-6.4q0-0.449 0.3-0.751t0.751-0.3h3.2zM18.949 22.149v-4.3h-1.1v4.3h1.1zM20 15.751q0.449 0 0.751 0.3t0.3 0.751v6.4q0 0.449-0.3 0.751t-0.751 0.3h-3.2q-0.451 0-0.751-0.3t-0.3-0.751v-6.4q0-0.449 0.3-0.751t0.751-0.3h3.2zM12.551 15.751h2.1v8.5h-2.1v-8.5z"></path>
</svg>
