<!-- Generated by IcoMoon.io -->
<svg version="1.1" xmlns="http://www.w3.org/2000/svg" width="40" height="40" viewBox="0 0 40 40">
<title>mt-notifications_on</title>
<path fill="#37352f" d="M20 30.649q-0.9 0-1.525-0.625t-0.625-1.475h4.251q0 0.9-0.6 1.5t-1.5 0.6zM26.4 18.949v5.3l2.151 2.149v1.051h-17.1v-1.051l2.151-2.149v-5.3q0-2.5 1.275-4.349t3.525-2.4v-0.751q0-0.649 0.451-1.125t1.149-0.475 1.151 0.475 0.449 1.125v0.751q2.251 0.551 3.525 2.4t1.275 4.349zM28.5 18.4q-0.1-1.8-1.2-3.8t-2.551-3.049l1.5-1.5q4.149 3.2 4.4 8.349h-2.149zM15.3 11.549q-1.451 1.049-2.575 3.049t-1.225 3.8h-2.151q0.251-5.151 4.4-8.349z"></path>
</svg>
