<!-- Generated by IcoMoon.io -->
<svg version="1.1" xmlns="http://www.w3.org/2000/svg" width="40" height="40" viewBox="0 0 40 40">
<title>mt-not_accessible</title>
<path fill="#37352f" d="M22.149 19l-3.651-3.651q0.551-0.6 1.3-0.651 0.4-0.049 0.7 0.025t0.6 0.225l0.3 0.2t0.351 0.3l1.4 1.551q0.751 0.849 1.925 1.4t2.375 0.549v2.1q-1.4 0-2.851-0.6t-2.451-1.449zM20 13.6q0.9 0 1.525-0.625t0.625-1.525q0-0.851-0.625-1.475t-1.525-0.625-1.525 0.625-0.625 1.475q0 0.9 0.625 1.525t1.525 0.625zM10.2 10.2l-1.5 1.5 9.151 9.2v2.3q0 0.9 0.625 1.525t1.525 0.625h2.3l6 5.949 1.5-1.5zM17.849 28.551q-0.849 0-1.575-0.449t-1.175-1.175-0.449-1.575q0-1.051 0.6-1.875t1.551-1.175v-2.2q-1.2 0.251-2.175 1t-1.525 1.851-0.549 2.4q0 1.449 0.7 2.675t1.925 1.925 2.675 0.7q1.3 0 2.4-0.549t1.851-1.525 1-2.175h-2.2q-0.351 0.951-1.175 1.551t-1.875 0.6z"></path>
</svg>
