<!-- Generated by IcoMoon.io -->
<svg version="1.1" xmlns="http://www.w3.org/2000/svg" width="40" height="40" viewBox="0 0 40 40">
<title>mt-no_meals</title>
<path fill="#37352f" d="M24.251 22.149v-8.551q0-0.7 0.425-1.449t1.149-1.4 1.7-1.025 2.075-0.375v17.251l-2.151-2.151v-2.3h-3.2zM29.051 32.051l-11.151-11.151q-0.3 0.1-0.551 0.125t-0.549 0.025v9.6h-2.151v-9.6q-1.151 0-2.125-0.575t-1.549-1.525-0.575-2.151v-3.4l-2.451-2.449 1.5-1.5 21.1 21.1zM13.8 16.8l-1.251-1.251v1.251h1.251zM16.8 9.349h-2.151v2.3l2.151 2.149v-4.451zM21.051 16.8v-7.451h-2.1v6.551l1.951 2q0.1-0.3 0.125-0.551t0.025-0.549z"></path>
</svg>
