<!-- Generated by IcoMoon.io -->
<svg version="1.1" xmlns="http://www.w3.org/2000/svg" width="40" height="40" viewBox="0 0 40 40">
<title>mt-no_flash</title>
<path fill="#37352f" d="M22.051 22.051l-12.251-12.251-1.5 1.549 5.649 5.649-0.2 0.251h-2.7q-0.7 0-1.2 0.5t-0.5 1.2v10q0 0.7 0.5 1.2t1.2 0.5h13.651q0.6 0 1.051-0.349t0.6-0.949l2.3 2.349 1.551-1.5-3.8-3.8zM17.849 28.551q-1.151 0-2.125-0.575t-1.549-1.551-0.575-2.175q0-1 0.451-1.9t1.251-1.5 1.751-0.751l1.7 1.649q-0.449-0.149-0.9-0.149-1.1 0-1.875 0.775t-0.775 1.875 0.775 1.9 1.875 0.8 1.9-0.8 0.8-1.9q0-0.4-0.2-0.851l1.7 1.649q-0.2 1-0.8 1.775t-1.475 1.251-1.925 0.475zM26.4 23.4l-7.649-7.651h1.851l1.4 1.5h2.7q0.7 0 1.2 0.5t0.5 1.2v4.451zM28.949 13.151h1.7l-3.2 5.8v-4.3h-1.051v-5.3h4.251z"></path>
</svg>
