<!-- Generated by IcoMoon.io -->
<svg version="1.1" xmlns="http://www.w3.org/2000/svg" width="40" height="40" viewBox="0 0 40 40">
<title>mt-no_photography</title>
<path fill="#37352f" d="M18.849 15.849l-3.651-3.7 1.6-1.751h6.4l1.951 2.151h3.4q0.849 0 1.475 0.625t0.625 1.475v13l-5.449-5.449q0.151-0.549 0.151-1.149 0-1.451-0.725-2.675t-1.949-1.925-2.675-0.7q-0.549 0-1.149 0.1zM29.051 32.051l-2.449-2.449h-15.151q-0.849 0-1.475-0.625t-0.625-1.525v-12.8q0-0.449 0.2-0.875t0.5-0.675l-2.1-2.151 1.5-1.5 21.1 21.1zM22.649 25.649l-1.6-1.6q-0.251 0.1-0.5 0.149t-0.551 0.049q-0.9 0-1.625-0.425t-1.149-1.149-0.425-1.625q0-0.251 0.051-0.525t0.149-0.525l-1.6-1.6q-0.751 1.251-0.751 2.649 0 1.5 0.725 2.7t1.951 1.925 2.675 0.725q0.751 0 1.4-0.2t1.251-0.551z"></path>
</svg>
