<!-- Generated by IcoMoon.io -->
<svg version="1.1" xmlns="http://www.w3.org/2000/svg" width="40" height="40" viewBox="0 0 40 40">
<title>mt-nightlight_round</title>
<path fill="#37352f" d="M20 20q0-1.9 0.725-3.575t2-2.925 2.925-1.9q0.5-0.2 0.625-0.625t-0.1-0.849-0.725-0.525q-0.849-0.2-1.775-0.251t-1.925 0.1q-1.8 0.2-3.375 1.025t-2.8 2.1-2 2.875-0.975 3.4q-0.251 2.4 0.475 4.525t2.225 3.775 3.525 2.575 4.375 0.925q1.151 0 2.251-0.251 0.551-0.1 0.751-0.5t0.075-0.849-0.575-0.651q-1.751-0.7-3.025-1.975t-1.975-2.925-0.7-3.5v0z"></path>
</svg>
