<!-- Generated by IcoMoon.io -->
<svg version="1.1" xmlns="http://www.w3.org/2000/svg" width="40" height="40" viewBox="0 0 40 40">
<title>mt-outbox</title>
<path fill="#37352f" d="M27.449 10.4h-14.949q-0.849 0-1.475 0.625t-0.625 1.525v14.9q0 0.9 0.625 1.525t1.475 0.625h14.949q0.9 0 1.525-0.625t0.625-1.525v-14.9q0-0.9-0.625-1.525t-1.525-0.625zM27.449 23.2h-4.251q0 0.9-0.425 1.625t-1.149 1.151-1.625 0.425-1.625-0.425-1.151-1.151-0.425-1.625h-4.3v-10.649h14.949v10.649zM15.751 18.949h2.1v3.2h4.3v-3.2h2.1l-4.251-4.3z"></path>
</svg>
