<!-- Generated by IcoMoon.io -->
<svg version="1.1" xmlns="http://www.w3.org/2000/svg" width="40" height="40" viewBox="0 0 40 40">
<title>mt-online_prediction</title>
<path fill="#37352f" d="M23.751 19.449q0 0.8-0.4 1.525t-0.951 1.375-0.949 1.251-0.4 1.2h-2.1q0-0.6-0.4-1.2t-0.951-1.251-0.949-1.375-0.4-1.525q0-1 0.525-1.849t1.349-1.351 1.875-0.5 1.875 0.5 1.351 1.351 0.525 1.849zM21.051 25.851h-2.1v1.6h2.1v-1.6zM30.649 20q0-2.2-0.825-4.151t-2.275-3.4l-1.151 1.149q1.251 1.2 1.951 2.875t0.7 3.525-0.7 3.525-1.951 2.875l1.151 1.151q1.449-1.449 2.275-3.4t0.825-4.151zM10.951 20q0-1.849 0.7-3.525t1.949-2.875l-1.149-1.149q-1.451 1.449-2.275 3.4t-0.825 4.151 0.825 4.149 2.275 3.4l1.149-1.151q-1.251-1.2-1.949-2.875t-0.7-3.525zM25.851 20q0 1.2-0.451 2.275t-1.251 1.875l1.151 1.149q1-1.051 1.575-2.4t0.575-2.9-0.575-2.9-1.575-2.4l-1.151 1.151q0.8 0.8 1.251 1.875t0.451 2.275zM14.7 25.3l1.151-1.151q-0.8-0.8-1.251-1.875t-0.449-2.275 0.449-2.275 1.251-1.875l-1.151-1.151q-1 1.051-1.575 2.4t-0.575 2.9 0.575 2.9 1.575 2.4z"></path>
</svg>
