<!-- Generated by IcoMoon.io -->
<svg version="1.1" xmlns="http://www.w3.org/2000/svg" width="40" height="40" viewBox="0 0 40 40">
<title>mt-person_outline</title>
<path fill="#37352f" d="M20 21.051q1.6 0 3.5 0.449t3.475 1.5 1.575 2.351v3.2h-17.1v-3.2q0-1.3 1.575-2.351t3.475-1.5 3.5-0.449zM20 11.451q1.751 0 3 1.275t1.251 3.025-1.251 3-3 1.251-3-1.251-1.251-3 1.251-3.025 3-1.275zM20 23.1q-2.2 0-4.349 0.825t-2.151 1.425v1.149h13v-1.149q0-0.6-2.149-1.425t-4.351-0.825zM20 13.5q-0.949 0-1.6 0.651t-0.651 1.6 0.651 1.575 1.6 0.625 1.6-0.625 0.649-1.575-0.649-1.6-1.6-0.651z"></path>
</svg>
