<!-- Generated by IcoMoon.io -->
<svg version="1.1" xmlns="http://www.w3.org/2000/svg" width="40" height="40" viewBox="0 0 40 40">
<title>mt-phonelink_setup</title>
<path fill="#37352f" d="M26.4 8.3q0.851 0 1.5 0.625t0.651 1.475v19.2q0 0.849-0.651 1.5t-1.5 0.649h-10.649q-0.849 0-1.5-0.649t-0.649-1.5v-3.2h2.149v1.051h10.649v-14.9h-10.649v1.051h-2.149v-3.2q0-0.851 0.649-1.5t1.5-0.651zM14.651 21.851q0.8 0 1.375-0.525t0.575-1.325-0.575-1.325-1.375-0.525-1.351 0.525-0.551 1.325 0.551 1.325 1.351 0.525zM18.751 20.5l1.151 0.9q0.2 0.2 0.1 0.351l-1.1 1.851q-0.1 0.2-0.349 0.1l-1.351-0.5q-0.4 0.251-0.949 0.5l-0.2 1.4q0 0.251-0.251 0.251h-2.2q-0.3 0-0.3-0.251l-0.2-1.4q-0.551-0.251-0.949-0.5l-1.351 0.5q-0.251 0.1-0.349-0.1l-1.049-1.851q-0.049-0.051-0.025-0.175t0.075-0.175l1.151-0.9q0-0.051-0.025-0.225t-0.025-0.275 0.025-0.251 0.025-0.251l-1.151-0.9q-0.151-0.151-0.1-0.351l1.1-1.849q0.1-0.2 0.349-0.1l1.351 0.5q0.4-0.251 0.949-0.5l0.2-1.4q0-0.251 0.251-0.251h2.2q0.251 0 0.251 0.251l0.251 1.4q0.2 0.1 0.9 0.549l1.4-0.549q0.2-0.1 0.3 0.1l1.1 1.849q0.049 0.051 0.025 0.175t-0.075 0.175l-1.149 0.9q0 0.051 0.025 0.225t0.025 0.275-0.025 0.275-0.025 0.225z"></path>
</svg>
