<!-- Generated by IcoMoon.io -->
<svg version="1.1" xmlns="http://www.w3.org/2000/svg" width="40" height="40" viewBox="0 0 40 40">
<title>mt-published_with_changes</title>
<path fill="#37352f" d="M26.051 17.349l-7.551 7.549-4.551-4.5 1.551-1.5 3 3 6.051-6.049zM11.451 20q0-1.849 0.775-3.475t2.025-2.775l2.551 2.5v-6.4h-6.4l2.349 2.351q-1.549 1.449-2.475 3.475t-0.925 4.325q0 2.1 0.725 3.925t2.025 3.251 3.049 2.325 3.8 1.1v-2.151q-1.6-0.2-2.949-0.925t-2.375-1.875-1.6-2.575-0.575-3.075zM30.649 20q0-2.1-0.725-3.925t-2.025-3.249-3.049-2.325-3.8-1.1v2.151q1.6 0.2 2.949 0.925t2.375 1.875 1.6 2.575 0.575 3.075q0 1.851-0.775 3.475t-2.025 2.775l-2.551-2.5v6.4h6.4l-2.351-2.349q1.551-1.449 2.475-3.475t0.925-4.325z"></path>
</svg>
