<!-- Generated by IcoMoon.io -->
<svg version="1.1" xmlns="http://www.w3.org/2000/svg" width="40" height="40" viewBox="0 0 40 40">
<title>mt-pest_control_rodent</title>
<path fill="#37352f" d="M29.949 25.751l-2.551-2.3q0.251-1.251-0.225-2.275t-1.4-1.625-2.025-0.6q-0.5 0-1.125 0.175t-1.225 0.625-1 1.175-0.4 1.725q0 0.8 0.3 1.475t0.8 1.175l-0.751 0.749q-0.651-0.649-1.025-1.525t-0.375-1.875q0-1.351 0.7-2.449t1.8-1.751q-1.2-0.6-2.451-0.6t-2.349 0.551-1.849 1.475-1.051 2.125q-1-0.3-1.649-1.149t-0.651-1.9q0-0.9 0.451-1.625t1.175-1.151 1.575-0.425h2.7q1.1 0 1.875-0.8t0.775-1.9-0.775-1.875-1.875-0.775h-1.6q-0.451 0-0.775 0.325t-0.325 0.725q0 0.451 0.325 0.775t0.775 0.325h1.6q0.2 0 0.349 0.151t0.151 0.349q0 0.251-0.151 0.4t-0.349 0.149h-2.7q-1.449 0-2.675 0.725t-1.925 1.925-0.7 2.7q0 1.251 0.549 2.349t1.525 1.851 2.175 1v0.049q0 1.5 0.725 2.725t1.951 1.949 2.725 0.725h9.451q0.751 0 1.275-0.4t0.775-1.025 0.125-1.275-0.675-1.149zM26.4 27.449q-0.449 0-0.751-0.3t-0.3-0.751 0.3-0.751 0.751-0.3 0.751 0.3 0.3 0.751-0.3 0.751-0.751 0.3z"></path>
</svg>
