<!-- Generated by IcoMoon.io -->
<svg version="1.1" xmlns="http://www.w3.org/2000/svg" width="40" height="40" viewBox="0 0 40 40">
<title>mt-preview</title>
<path fill="#37352f" d="M27.449 10.4h-14.9q-0.9 0-1.525 0.625t-0.625 1.525v14.9q0 0.9 0.625 1.525t1.525 0.625h14.9q0.9 0 1.525-0.625t0.625-1.525v-14.9q0-0.9-0.625-1.525t-1.525-0.625zM27.449 27.449h-14.9v-12.8h14.9v12.8zM21.6 21.051q0 0.7-0.475 1.149t-1.125 0.451-1.125-0.451-0.475-1.149q0-0.651 0.475-1.125t1.125-0.475 1.125 0.475 0.475 1.125zM20 16.8q-1.449 0-2.725 0.549t-2.225 1.5-1.451 2.2q0.5 1.251 1.451 2.225t2.225 1.525 2.725 0.551 2.725-0.551 2.225-1.525 1.449-2.225q-0.5-1.251-1.449-2.2t-2.225-1.5-2.725-0.549zM20 23.751q-1.1 0-1.875-0.8t-0.775-1.9 0.775-1.875 1.875-0.775 1.875 0.775 0.775 1.875-0.775 1.9-1.875 0.8z"></path>
</svg>
