<!-- Generated by IcoMoon.io -->
<svg version="1.1" xmlns="http://www.w3.org/2000/svg" width="40" height="40" viewBox="0 0 40 40">
<title>mt-phonelink_ring</title>
<path fill="#37352f" d="M22.149 28.551v-17.1h-10.7v17.1h10.7zM22.149 8.251q0.851 0 1.475 0.651t0.625 1.5v19.2q0 0.849-0.625 1.5t-1.475 0.649h-10.7q-0.851 0-1.475-0.649t-0.625-1.5v-19.2q0-0.851 0.625-1.5t1.475-0.651h10.7zM26.4 17.651q1 1.049 1 2.349t-1 2.251l-1.049-1.1q0.9-1.251 0-2.451zM28.649 15.4q2 1.9 2 4.575t-2 4.525l-1.1-1.1q1.449-1.549 1.449-3.525t-1.449-3.375z"></path>
</svg>
