<!-- Generated by IcoMoon.io -->
<svg version="1.1" xmlns="http://www.w3.org/2000/svg" width="40" height="40" viewBox="0 0 40 40">
<title>mt-people_outline</title>
<path fill="#37352f" d="M24.8 14.151q-0.851 0-1.5 0.625t-0.651 1.475 0.651 1.5 1.5 0.651 1.5-0.651 0.649-1.5-0.649-1.475-1.5-0.625zM24.8 20q-1.551 0-2.651-1.1t-1.1-2.651 1.1-2.625 2.651-1.075 2.649 1.075 1.1 2.625-1.1 2.651-2.649 1.1zM15.2 14.151q-0.849 0-1.5 0.625t-0.649 1.475 0.649 1.5 1.5 0.651 1.5-0.651 0.651-1.5-0.651-1.475-1.5-0.625zM15.2 20q-1.549 0-2.649-1.1t-1.1-2.651 1.1-2.625 2.649-1.075 2.651 1.075 1.1 2.625-1.1 2.651-2.651 1.1zM30.149 25.851v-1.3q0-0.5-1.775-1.2t-3.575-0.7q-1.3 0-3.2 0.6 0.549 0.649 0.549 1.3v1.3h8zM20.551 25.851v-1.3q0-0.5-1.775-1.2t-3.575-0.7-3.575 0.7-1.775 1.2v1.3h10.7zM24.8 21.051q2.149 0 4.551 0.975t2.4 2.525v2.9h-23.5v-2.9q0-1.551 2.4-2.525t4.549-0.975q2.351 0 4.8 1.1 2.449-1.1 4.8-1.1z"></path>
</svg>
