<!-- Generated by IcoMoon.io -->
<svg version="1.1" xmlns="http://www.w3.org/2000/svg" width="40" height="40" viewBox="0 0 40 40">
<title>mt-photo_size_select_small</title>
<path fill="#37352f" d="M14.651 10.4v2.149h-2.1v-2.149h2.1zM18.949 10.4v2.149h-2.149v-2.149h2.149zM10.4 18.949v2.1h-2.151v-2.1h2.151zM10.4 10.4v2.149h-2.151q0-0.8 0.675-1.475t1.475-0.675zM27.449 27.449v2.151h-2.1v-2.151h2.1zM27.449 10.4v2.149h-2.1v-2.149h2.1zM23.2 27.449v2.151h-2.149v-2.151h2.149zM10.4 14.651v2.151h-2.151v-2.151h2.151zM10.4 29.6q-0.851 0-1.5-0.651t-0.651-1.5v-4.251h10.7v6.4h-8.549zM29.6 10.4q0.8 0 1.475 0.675t0.675 1.475h-2.151v-2.149zM31.751 14.651v2.151h-2.149v-2.151h2.149zM23.2 10.4v2.149h-2.149v-2.149h2.149zM31.751 27.449q0 0.8-0.675 1.475t-1.475 0.675v-2.151h2.149zM31.751 18.949v2.1h-2.149v-2.1h2.149zM31.751 23.2v2.151h-2.149v-2.151h2.149z"></path>
</svg>
