<!-- Generated by IcoMoon.io -->
<svg version="1.1" xmlns="http://www.w3.org/2000/svg" width="40" height="40" viewBox="0 0 40 40">
<title>mt-perm_contact_calendar</title>
<path fill="#37352f" d="M26.4 26.4v-1.049q0-1.451-2.2-2.375t-4.2-0.925-4.2 0.925-2.2 2.375v1.049h12.8zM20 13.6q-1.3 0-2.251 0.951t-0.949 2.251 0.949 2.251 2.251 0.949 2.251-0.949 0.949-2.251-0.949-2.251-2.251-0.951zM27.449 10.4q0.851 0 1.5 0.649t0.651 1.5v14.9q0 0.849-0.651 1.5t-1.5 0.651h-14.9q-0.9 0-1.525-0.625t-0.625-1.525v-14.9q0-0.9 0.625-1.525t1.525-0.625h1.049v-2.151h2.151v2.151h8.5v-2.151h2.149v2.151h1.051z"></path>
</svg>
