<!-- Generated by IcoMoon.io -->
<svg version="1.1" xmlns="http://www.w3.org/2000/svg" width="40" height="40" viewBox="0 0 40 40">
<title>mt-panorama_horizontal</title>
<path fill="#37352f" d="M30.051 11.451q0.6 0 0.6 0.7v15.7q0 0.7-0.6 0.7-0.1 0-0.3-0.1-4.8-1.751-9.751-1.751t-9.751 1.751q-0.2 0.1-0.3 0.1-0.6 0-0.6-0.7v-15.7q0-0.7 0.6-0.7 0.1 0 0.3 0.1 4.8 1.749 9.751 1.749t9.751-1.751q0.2-0.1 0.3-0.1zM28.551 14.2q-3.9 1.2-8.551 1.2-4.4 0-8.551-1.2v11.6q4.1-1.2 8.551-1.2 4.4 0 8.551 1.2v-11.6z"></path>
</svg>
