<!-- Generated by IcoMoon.io -->
<svg version="1.1" xmlns="http://www.w3.org/2000/svg" width="40" height="40" viewBox="0 0 40 40">
<title>mt-person_add_alt</title>
<path fill="#37352f" d="M21.051 15.751q0-1.2-0.575-2.175t-1.525-1.551-2.149-0.575-2.151 0.575-1.525 1.551-0.575 2.175q0 1.151 0.575 2.125t1.525 1.551 2.151 0.575 2.149-0.575 1.525-1.551 0.575-2.125zM18.949 15.751q0 0.849-0.625 1.475t-1.525 0.625-1.525-0.625-0.625-1.475q0-0.9 0.625-1.525t1.525-0.625 1.525 0.625 0.625 1.525zM8.251 26.4v2.151h17.1v-2.151q0-0.849-0.6-1.525t-1.575-1.2-2.125-0.851-2.275-0.5-1.975-0.175-1.975 0.175-2.275 0.5-2.125 0.851-1.575 1.2-0.6 1.525zM10.4 26.4q0.1-0.3 0.675-0.649t1.525-0.7 2.025-0.575 2.175-0.225 2.175 0.225 2 0.575 1.525 0.7 0.7 0.649h-12.8zM28.551 23.2v-3.2h3.2v-2.151h-3.2v-3.2h-2.151v3.2h-3.2v2.149h3.2v3.2h2.151z"></path>
</svg>
