<!-- Generated by IcoMoon.io -->
<svg version="1.1" xmlns="http://www.w3.org/2000/svg" width="40" height="40" viewBox="0 0 40 40">
<title>mt-plagiarism</title>
<path fill="#37352f" d="M22.149 9.349h-8.551q-0.9 0-1.525 0.625t-0.625 1.475v17.1q0 0.849 0.625 1.475t1.525 0.625h12.8q0.9 0 1.525-0.625t0.625-1.475v-12.8zM23.251 27.949l-2-2q-1.1 0.551-2.3 0.4t-2.1-1.051q-0.751-0.7-1-1.675t0-1.925 1-1.649q0.7-0.751 1.651-1t1.925 0 1.675 1q0.9 0.9 1.049 2.1t-0.4 2.3l2 2zM21.051 16.8v-5.851l5.9 5.851h-5.9zM17.849 22.649q0-0.649 0.475-1.125t1.125-0.475q0.7 0 1.151 0.475t0.449 1.125q0 0.7-0.449 1.149t-1.151 0.449q-0.651 0-1.125-0.449t-0.475-1.149z"></path>
</svg>
