<!-- Generated by IcoMoon.io -->
<svg version="1.1" xmlns="http://www.w3.org/2000/svg" width="40" height="40" viewBox="0 0 40 40">
<title>mt-pages</title>
<path fill="#37352f" d="M27.449 10.4q0.851 0 1.5 0.649t0.651 1.5v6.4h-5.349l1.1-4.3-4.3 1.1v-5.351h6.4zM25.351 25.351l-1.1-4.3h5.351v6.4q0 0.849-0.651 1.5t-1.5 0.651h-6.4v-5.351zM15.751 21.051l-1.1 4.3 4.3-1.1v5.351h-6.4q-0.851 0-1.5-0.651t-0.651-1.5v-6.4h5.349zM10.4 12.551q0-0.851 0.649-1.5t1.5-0.649h6.4v5.349l-4.3-1.1 1.1 4.3h-5.351v-6.4z"></path>
</svg>
