<!-- Generated by IcoMoon.io -->
<svg version="1.1" xmlns="http://www.w3.org/2000/svg" width="40" height="40" viewBox="0 0 40 40">
<title>mt-phonelink_erase</title>
<path fill="#37352f" d="M27.449 8.251q0.851 0 1.5 0.651t0.651 1.5v19.2q0 0.849-0.651 1.5t-1.5 0.649h-10.649q-0.851 0-1.5-0.649t-0.651-1.5v-3.2h2.151v2.151h10.649v-17.1h-10.649v2.149h-2.151v-3.2q0-0.851 0.651-1.5t1.5-0.651h10.649zM21.051 15.949l-4.251 4.251 4.251 4.3-1.051 1.051-4.251-4.251-4.3 4.251-1.049-1.051 4.251-4.3-4.251-4.251 1.049-1.049 4.3 4.251 4.251-4.251z"></path>
</svg>
