<!-- Generated by IcoMoon.io -->
<svg version="1.1" xmlns="http://www.w3.org/2000/svg" width="40" height="40" viewBox="0 0 40 40">
<title>mt-qr_code_scanner</title>
<path fill="#37352f" d="M17.349 14.151v3.2h-3.2v-3.2h3.2zM18.949 12.551h-6.4v6.4h6.4v-6.4zM17.349 22.649v3.2h-3.2v-3.2h3.2zM18.949 21.051h-6.4v6.4h6.4v-6.4zM25.851 14.151v3.2h-3.2v-3.2h3.2zM27.449 12.551h-6.4v6.4h6.4v-6.4zM21.051 21.051h1.6v1.6h-1.6v-1.6zM22.649 22.649h1.6v1.6h-1.6v-1.6zM24.251 21.051h1.6v1.6h-1.6v-1.6zM21.051 24.251h1.6v1.6h-1.6v-1.6zM22.649 25.851h1.6v1.6h-1.6v-1.6zM24.251 24.251h1.6v1.6h-1.6v-1.6zM25.851 22.649h1.6v1.6h-1.6v-1.6zM25.851 25.851h1.6v1.6h-1.6v-1.6zM30.649 14.651h-2.1v-3.2h-3.2v-2.1h5.3v5.3zM30.649 30.649v-5.3h-2.1v3.2h-3.2v2.1h5.3zM9.349 30.649h5.3v-2.1h-3.2v-3.2h-2.1v5.3zM9.349 9.349v5.3h2.1v-3.2h3.2v-2.1h-5.3z"></path>
</svg>
