<!-- Generated by IcoMoon.io -->
<svg version="1.1" xmlns="http://www.w3.org/2000/svg" width="40" height="40" viewBox="0 0 40 40">
<title>mt-rv_hookup</title>
<path fill="#37352f" d="M25.351 9.349l3.2 3.2-3.2 3.2v-2.151h-8.551v-2.149h8.551v-2.1zM26.4 22.149v-3.2h-4.249v3.2h4.249zM18.949 28.551q0.451 0 0.751-0.325t0.3-0.775-0.3-0.751-0.751-0.3-0.775 0.3-0.325 0.751 0.325 0.775 0.775 0.325zM28.551 25.351h2.1v2.1h-8.5q0 1.3-0.949 2.251t-2.251 0.949-2.251-0.949-0.949-2.251h-2.151q-0.851 0-1.5-0.625t-0.651-1.475v-3.2h7.5v-3.2h-4.3v2.1l-3.2-3.2 3.2-3.2v2.151h11.751q0.851 0 1.5 0.651t0.651 1.5v6.4z"></path>
</svg>
