<!-- Generated by IcoMoon.io -->
<svg version="1.1" xmlns="http://www.w3.org/2000/svg" width="40" height="40" viewBox="0 0 40 40">
<title>mt-replay_circle_filled</title>
<path fill="#37352f" d="M26.4 20q0-2.651-1.875-4.525t-4.525-1.875v-3.2l-4.251 4.249 4.251 4.3v-3.2q1.751 0 3 1.251t1.251 3-1.251 3-3 1.251-3-1.251-1.251-3h-2.151q0 2.649 1.875 4.525t4.525 1.875 4.525-1.875 1.875-4.525zM20 9.349q4.4 0 7.525 3.125t3.125 7.525-3.125 7.525-7.525 3.125-7.525-3.125-3.125-7.525 3.125-7.525 7.525-3.125z"></path>
</svg>
