<!-- Generated by IcoMoon.io -->
<svg version="1.1" xmlns="http://www.w3.org/2000/svg" width="40" height="40" viewBox="0 0 40 40">
<title>mt-receipt_long</title>
<path fill="#37352f" d="M28 10.951l-1.6-1.6-1.6 1.6-1.6-1.6-1.6 1.6-1.6-1.6-1.6 1.6-1.6-1.6-1.6 1.6-1.6-1.6v14.9h-3.2v3.2q0 0.9 0.425 1.625t1.151 1.151 1.625 0.425h12.8q0.9 0 1.625-0.425t1.151-1.151 0.425-1.625v-18.1zM27.449 27.449q0 0.449-0.3 0.775t-0.751 0.325-0.751-0.325-0.3-0.775v-3.2h-9.6v-11.7h11.7v14.9zM16.8 14.651h6.4v2.151h-6.4v-2.151zM24.251 14.651h2.149v2.151h-2.149v-2.151zM16.8 17.849h6.4v2.151h-6.4v-2.151zM24.251 17.849h2.149v2.151h-2.149v-2.151z"></path>
</svg>
