<!-- Generated by IcoMoon.io -->
<svg version="1.1" xmlns="http://www.w3.org/2000/svg" width="40" height="40" viewBox="0 0 40 40">
<title>mt-request_quote</title>
<path fill="#37352f" d="M22.149 9.349h-8.551q-0.9 0-1.5 0.625t-0.6 1.475l-0.049 17.1q0 0.849 0.625 1.475t1.525 0.625h12.8q0.9 0 1.525-0.625t0.625-1.475v-12.8zM23.2 20h-4.251v1.051h3.2q0.4 0 0.725 0.325t0.325 0.775v3.2q0 0.4-0.325 0.725t-0.725 0.325h-1.1v1.051h-2.1v-1.051h-2.151v-2.149h4.251v-1.051h-3.2q-0.4 0-0.725-0.325t-0.325-0.725v-3.2q0-0.449 0.325-0.775t0.725-0.325h1.1v-1.049h2.1v1.049h2.149v2.151zM21.051 15.751v-4.8l4.8 4.8h-4.8z"></path>
</svg>
