<!-- Generated by IcoMoon.io -->
<svg version="1.1" xmlns="http://www.w3.org/2000/svg" width="40" height="40" viewBox="0 0 40 40">
<title>mt-rotate_right</title>
<path fill="#37352f" d="M25.2 23.7q0.851-1.149 1.1-2.649h2.149q-0.3 2.3-1.7 4.151zM21.051 26.3q1.5-0.251 2.649-1.1l1.551 1.551q-1.8 1.4-4.2 1.7v-2.149zM28.449 18.949h-2.149q-0.251-1.5-1.1-2.649l1.551-1.5q1.449 1.8 1.7 4.149zM23.8 13.1l-4.851 4.751v-4.149q-2.3 0.4-3.825 2.175t-1.525 4.125 1.525 4.125 3.825 2.175v2.149q-3.149-0.4-5.325-2.8t-2.175-5.649 2.175-5.649 5.325-2.8v-3.3z"></path>
</svg>
