<!-- Generated by IcoMoon.io -->
<svg version="1.1" xmlns="http://www.w3.org/2000/svg" width="40" height="40" viewBox="0 0 40 40">
<title>mt-radio_button_on</title>
<path fill="#37352f" d="M20 28.551q3.5 0 6.025-2.525t2.525-6.025-2.525-6.025-6.025-2.525-6.025 2.525-2.525 6.025 2.525 6.025 6.025 2.525zM20 9.349q4.4 0 7.525 3.125t3.125 7.525-3.125 7.525-7.525 3.125-7.525-3.125-3.125-7.525 3.125-7.525 7.525-3.125zM20 14.651q2.2 0 3.775 1.575t1.575 3.775-1.575 3.775-3.775 1.575-3.775-1.575-1.575-3.775 1.575-3.775 3.775-1.575z"></path>
</svg>
