<!-- Generated by IcoMoon.io -->
<svg version="1.1" xmlns="http://www.w3.org/2000/svg" width="40" height="40" viewBox="0 0 40 40">
<title>mt-rotate_90_degrees_ccw</title>
<path fill="#37352f" d="M27.851 14.3q1.149 1.149 1.975 3.125t0.825 3.625-0.825 3.649-1.975 3.151q-2.751 2.8-6.8 2.8-2.451 0-4.6-1.2l1.6-1.551q1.5 0.651 3.049 0.651 1.251 0 2.8-0.651t2.451-1.549 1.549-2.475 0.651-2.825-0.651-2.8-1.549-2.449q-2.2-2.2-5.3-2.2v3.449l-4.5-4.5 4.5-4.549v3.451h0.049q1.649 0 3.625 0.849t3.125 2zM11.151 20.949l3.9 3.9 3.9-3.9-3.9-3.9zM15.051 14.051l6.9 6.9-6.9 6.9-6.949-6.9z"></path>
</svg>
