<!-- Generated by IcoMoon.io -->
<svg version="1.1" xmlns="http://www.w3.org/2000/svg" width="40" height="40" viewBox="0 0 40 40">
<title>mt-settings</title>
<path fill="#37352f" d="M20 23.751q1.551 0 2.649-1.1t1.1-2.651-1.1-2.649-2.651-1.1-2.649 1.1-1.1 2.649 1.1 2.651 2.649 1.1zM27.949 21.051l2.251 1.751q0.351 0.251 0.1 0.7l-2.151 3.7q-0.2 0.351-0.649 0.2l-2.651-1.049q-1.049 0.751-1.8 1.049l-0.4 2.8q-0.1 0.449-0.5 0.449h-4.3q-0.4 0-0.5-0.449l-0.4-2.8q-0.951-0.4-1.8-1.049l-2.649 1.049q-0.449 0.151-0.649-0.2l-2.151-3.7q-0.251-0.449 0.1-0.7l2.251-1.751q-0.049-0.351-0.049-1.051t0.049-1.051l-2.251-1.751q-0.349-0.251-0.1-0.7l2.151-3.7q0.2-0.351 0.649-0.2l2.649 1.051q1.051-0.751 1.8-1.051l0.4-2.8q0.1-0.451 0.5-0.451h4.3q0.4 0 0.5 0.451l0.4 2.8q0.951 0.4 1.8 1.051l2.651-1.051q0.449-0.151 0.649 0.2l2.151 3.7q0.251 0.449-0.1 0.7l-2.251 1.751q0.051 0.351 0.051 1.051t-0.051 1.051z"></path>
</svg>
