<!-- Generated by IcoMoon.io -->
<svg version="1.1" xmlns="http://www.w3.org/2000/svg" width="40" height="40" viewBox="0 0 40 40">
<title>mt-soap</title>
<path fill="#37352f" d="M16.949 12.551l-7.7 7.251q-1 0.9-1 2.3v6.451q0 0.849 0.451 1.575t1.175 1.175 1.575 0.449h14.7q0.551 0 0.925-0.4t0.375-0.951-0.375-0.949-0.925-0.4h-6.149v-1.049h8.251q0.551 0 0.949-0.4t0.4-0.949-0.4-0.925-0.949-0.375h-8.251v-1.1h9.351q0.549 0 0.925-0.375t0.375-0.925-0.375-0.949-0.925-0.4h-9.351v-1.049h7.2q0.551 0 0.949-0.4t0.4-0.949-0.4-0.951-0.949-0.4h-10.549q0.349-0.6 0.725-1.225t0.625-1.075l0.251-0.449q0.151-0.3 0.151-0.6 0-0.4-0.3-0.751l-0.175-0.175t-0.4-0.425-0.4-0.425l-0.175-0.175zM22.149 13.849q0.3 0 0.549 0.251t0.251 0.551q0 0.349-0.251 0.575t-0.549 0.225q-0.351 0-0.575-0.225t-0.225-0.575q0-0.3 0.225-0.551t0.575-0.251zM22.149 12.251q-1 0-1.7 0.7t-0.7 1.7 0.7 1.7 1.7 0.7 1.7-0.7 0.7-1.7-0.7-1.7-1.7-0.7v0zM28.251 13.051q0.251 0 0.4 0.175t0.151 0.375-0.151 0.375-0.4 0.175q-0.2 0-0.351-0.175t-0.149-0.375 0.149-0.375 0.351-0.175zM28.251 11.451q-0.851 0-1.475 0.625t-0.625 1.525 0.625 1.525 1.475 0.625q0.9 0 1.525-0.625t0.625-1.525-0.625-1.525-1.525-0.625v0zM24.8 8.251q-0.651 0-1.125 0.475t-0.475 1.125q0 0.7 0.475 1.151t1.125 0.451 1.125-0.451 0.475-1.151q0-0.649-0.475-1.125t-1.125-0.475z"></path>
</svg>
