<!-- Generated by IcoMoon.io -->
<svg version="1.1" xmlns="http://www.w3.org/2000/svg" width="40" height="40" viewBox="0 0 40 40">
<title>mt-signal_wifi_4_bar_lock</title>
<path fill="#37352f" d="M23.751 22.649v2.8l-3.751 4.7-12.349-15.5 0.3-0.251q0.3-0.2 0.625-0.425t0.875-0.575 1.175-0.651 1.425-0.675 1.7-0.651 1.875-0.525 2.1-0.375 2.275-0.125 2.275 0.125 2.1 0.375 1.875 0.525 1.7 0.651 1.425 0.675 1.175 0.651 0.875 0.575 0.625 0.425l0.3 0.251-2.2 2.8q-0.3-0.1-1.1-0.1-2.251 0-3.775 1.525t-1.525 3.775zM30.649 24.251v-1.6q0-0.649-0.475-1.125t-1.125-0.475-1.125 0.475-0.475 1.125v1.6h3.2zM31.751 24.251q0.4 0 0.725 0.351t0.325 0.751v4.251q0 0.4-0.325 0.725t-0.725 0.325h-5.351q-0.4 0-0.725-0.325t-0.325-0.725v-4.251q0-0.4 0.325-0.751t0.725-0.351v-1.6q0-1.149 0.751-1.9t1.9-0.751 1.925 0.775 0.775 1.875v1.6z"></path>
</svg>
