<!-- Generated by IcoMoon.io -->
<svg version="1.1" xmlns="http://www.w3.org/2000/svg" width="40" height="40" viewBox="0 0 40 40">
<title>mt-schedule_send</title>
<path fill="#37352f" d="M24.251 29.6q2.2 0 3.775-1.575t1.575-3.775-1.575-3.775-3.775-1.575q-2.149 0-3.725 1.551t-1.575 3.751v0.1q0 2.2 1.551 3.751t3.751 1.551zM24.251 16.8q3.1 0 5.3 2.2t2.2 5.251-2.225 5.275-5.275 2.225q-2.551 0-4.525-1.525t-2.625-3.925l-7.751 3.3v-7.451l9.6-2.149-9.6-2.151v-7.451zM24.8 20.551v3.449l2.4 1.6-0.8 1.349-3.2-2.149v-4.251h1.6z"></path>
</svg>
