<!-- Generated by IcoMoon.io -->
<svg version="1.1" xmlns="http://www.w3.org/2000/svg" width="40" height="40" viewBox="0 0 40 40">
<title>mt-settings_input_antenna</title>
<path fill="#37352f" d="M20 8.251q4.851 0 8.3 3.451t3.449 8.3h-2.149q0-4-2.8-6.8t-6.8-2.8-6.8 2.8-2.8 6.8h-2.149q0-4.849 3.451-8.3t8.3-3.451zM21.051 22.449v3.5l3.649 3.651-1.5 1.5-3.2-3.2-3.2 3.2-1.5-1.5 3.649-3.651v-3.5q-1.6-0.649-1.6-2.449 0-1.1 0.775-1.875t1.875-0.775 1.875 0.775 0.775 1.875q0 1.8-1.6 2.449zM20 12.551q3.1 0 5.275 2.175t2.175 5.275h-2.1q0-2.2-1.575-3.775t-3.775-1.575-3.775 1.575-1.575 3.775h-2.1q0-3.1 2.175-5.275t5.275-2.175z"></path>
</svg>
