<!-- Generated by IcoMoon.io -->
<svg version="1.1" xmlns="http://www.w3.org/2000/svg" width="40" height="40" viewBox="0 0 40 40">
<title>mt-sports_golf</title>
<path fill="#37352f" d="M14.651 27.449v-2.1h10.7v2.1h-2.151q-0.851 0-1.5 0.651t-0.649 1.5v1.049h-2.1v-1.049q0-0.851-0.651-1.5t-1.5-0.651h-2.151zM18.949 13.6q0-0.449 0.3-0.751t0.751-0.3 0.751 0.3 0.3 0.751-0.3 0.751-0.751 0.3-0.751-0.3-0.3-0.751zM21.051 15.751q0-0.449 0.325-0.775t0.775-0.325 0.751 0.325 0.3 0.775-0.3 0.751-0.751 0.3-0.775-0.3-0.325-0.751zM16.8 15.751q0-0.449 0.3-0.775t0.751-0.325 0.775 0.325 0.325 0.775-0.325 0.751-0.775 0.3-0.751-0.3-0.3-0.751zM20 11.451q-2.2 0-3.775 1.575t-1.575 3.775 1.575 3.775 3.775 1.575 3.775-1.575 1.575-3.775-1.575-3.775-3.775-1.575zM20 24.251q-3.1 0-5.275-2.175t-2.175-5.275 2.175-5.275 5.275-2.175 5.275 2.175 2.175 5.275-2.175 5.275-5.275 2.175z"></path>
</svg>
