<!-- Generated by IcoMoon.io -->
<svg version="1.1" xmlns="http://www.w3.org/2000/svg" width="40" height="40" viewBox="0 0 40 40">
<title>mt-support</title>
<path fill="#37352f" d="M20 9.349q-2.2 0-4.125 0.825t-3.4 2.3-2.3 3.4-0.825 4.125 0.825 4.125 2.3 3.4 3.4 2.3 4.125 0.825 4.125-0.825 3.4-2.3 2.3-3.4 0.825-4.125-0.825-4.125-2.3-3.4-3.4-2.3-4.125-0.825zM27.949 16.949l-2.949 1.2q-0.4-1.1-1.225-1.925t-1.925-1.225l1.2-2.951q1.7 0.651 2.975 1.925t1.925 2.975zM20 23.2q-0.9 0-1.625-0.425t-1.151-1.149-0.425-1.625 0.425-1.625 1.151-1.151 1.625-0.425 1.625 0.425 1.149 1.151 0.425 1.625-0.425 1.625-1.149 1.149-1.625 0.425zM16.949 12.051l1.251 2.949q-1.1 0.4-1.949 1.225t-1.251 1.975l-2.949-1.251q0.649-1.7 1.925-2.975t2.975-1.925zM12.051 23.051l2.949-1.2q0.4 1.1 1.225 1.925t1.975 1.225l-1.251 2.949q-1.7-0.651-2.975-1.925t-1.925-2.975zM23.051 27.949l-1.2-2.949q1.1-0.4 1.925-1.225t1.225-1.975l2.949 1.251q-0.651 1.7-1.925 2.975t-2.975 1.925z"></path>
</svg>
