<!-- Generated by IcoMoon.io -->
<svg version="1.1" xmlns="http://www.w3.org/2000/svg" width="40" height="40" viewBox="0 0 40 40">
<title>mt-sports_volleyball</title>
<path fill="#37352f" d="M30.6 18.751l-9.551-5.5v-3.849q3.7 0.4 6.4 3.025t3.151 6.325zM15.8 29.8l9.551-5.5 3.3 1.949q-3.2 4.4-8.651 4.4-2.2 0-4.2-0.849zM21.051 15.7l9.551 5.5q-0.2 1.651-0.9 3.151l-8.649-4.951v-3.7zM20 21.251l3.2 1.851-9.549 5.451q-1.251-0.9-2.3-2.351zM18.949 19.4l-3.2 1.849v-11q1.551-0.7 3.2-0.849v10zM13.6 11.5v10.949l-3.3 1.951q-0.951-2.149-0.951-4.4 0-5.3 4.251-8.5z"></path>
</svg>
