<!-- Generated by IcoMoon.io -->
<svg version="1.1" xmlns="http://www.w3.org/2000/svg" width="40" height="40" viewBox="0 0 40 40">
<title>mt-sports_basketball</title>
<path fill="#37352f" d="M16.751 21.051h2.2v9.551q-1.549-0.151-3.475-1.075t-3.075-2.075q1.551-0.849 2.825-2.751t1.525-3.649zM25.449 21.051h5.151q-0.251 2.5-1.651 4.7-1.251-0.6-2.251-1.975t-1.251-2.725zM11.049 25.751q-1.451-2.251-1.649-4.7h5.149q-0.251 1.349-1.251 2.725t-2.251 1.975zM23.251 21.051q0.251 1.751 1.525 3.649t2.825 2.751q-1.1 1.151-3.025 2.075t-3.525 1.075v-9.551h2.2zM16.751 18.949q-0.251-1.751-1.525-3.649t-2.825-2.751q1.1-1.151 3.025-2.075t3.525-1.075v9.549h-2.2zM23.251 18.949h-2.2v-9.549q1.549 0.151 3.475 1.075t3.075 2.075q-1.551 0.849-2.825 2.751t-1.525 3.649zM14.551 18.949h-5.149q0.251-2.5 1.649-4.7 1.251 0.6 2.251 1.975t1.251 2.725zM25.449 18.949q0.251-1.349 1.251-2.725t2.251-1.975q1.4 2.2 1.651 4.7h-5.151z"></path>
</svg>
