<!-- Generated by IcoMoon.io -->
<svg version="1.1" xmlns="http://www.w3.org/2000/svg" width="40" height="40" viewBox="0 0 40 40">
<title>mt-sports_motorsports</title>
<path fill="#37352f" d="M30.6 19.151q0.349 3.8-2.175 6.6t-6.275 2.8h-10.7q-0.851 0-1.475-0.651t-0.625-1.5v-0.849q0-0.951 0.2-2.351h8.7q1.551 0 2.7-1.149t1.151-2.7q0-2.549-2.3-3.549l-5.1-2.151q2.7-1.951 6.349-2.151 3.6-0.251 6.4 1.975t3.149 5.675zM20 19.349q0 0.7-0.5 1.2t-1.2 0.5h-8.3q0.951-3.5 3-5.8l5.949 2.5q1.051 0.4 1.051 1.6z"></path>
</svg>
