<!-- Generated by IcoMoon.io -->
<svg version="1.1" xmlns="http://www.w3.org/2000/svg" width="40" height="40" viewBox="0 0 40 40">
<title>mt-shuffle_on</title>
<path fill="#37352f" d="M23 21.5l-1.5 1.5 3.351 3.351-2.2 2.2h5.9v-5.9l-2.2 2.2zM22.649 11.451l2.2 2.2-13.4 13.4 1.5 1.5 13.4-13.4 2.2 2.2v-5.9h-5.9zM18.5 17l-5.551-5.549-1.5 1.5 5.551 5.551zM29.6 8.251q0.849 0 1.5 0.651t0.649 1.5v19.2q0 0.849-0.649 1.5t-1.5 0.649h-19.2q-0.851 0-1.5-0.649t-0.651-1.5v-19.2q0-0.851 0.651-1.5t1.5-0.651h19.2z"></path>
</svg>
