<!-- Generated by IcoMoon.io -->
<svg version="1.1" xmlns="http://www.w3.org/2000/svg" width="40" height="40" viewBox="0 0 40 40">
<title>mt-two_wheeler</title>
<path fill="#37352f" d="M13.051 20.551q-0.851 0-1.475 0.625t-0.625 1.475 0.625 1.5 1.475 0.651 1.5-0.651 0.649-1.5-0.649-1.475-1.5-0.625zM26.949 18.949q1.551 0 2.625 1.075t1.075 2.625-1.075 2.649-2.625 1.1-2.649-1.1-1.1-2.649q0-1.649 1.251-2.751l-0.449-0.549-2.949 4.9h-3.2l-1.1-1q-0.251 1.351-1.3 2.251t-2.4 0.9q-1.549 0-2.625-1.1t-1.075-2.649q0-0.6 0.2-1.175t0.525-1.025 0.825-0.8 1.049-0.549l-1-0.851h-1.6v-0.9h3.9l2.251 1.4 3.6-1.4h3.251l-1.3-1.6h-2.1v-1.1h3.049l1.3 1.651 3.1-1.2v2.251h-2.251l1.4 1.849q0.251-0.049 0.475-0.125t0.451-0.1 0.475-0.025zM26.949 20.551q-0.849 0-1.5 0.625t-0.649 1.475 0.649 1.5 1.5 0.651 1.475-0.651 0.625-1.5-0.625-1.475-1.475-0.625z"></path>
</svg>
