<!-- Generated by IcoMoon.io -->
<svg version="1.1" xmlns="http://www.w3.org/2000/svg" width="40" height="40" viewBox="0 0 40 40">
<title>mt-translate</title>
<path fill="#37352f" d="M24.149 25.351h3.451l-1.751-4.651zM26.949 17.849l4.8 12.8h-2.149l-1.2-3.2h-5.049l-1.2 3.2h-2.149l4.8-12.8h2.149zM20.949 23.251l-0.849 2.2-3.3-3.3-5.349 5.3-1.5-1.5 5.451-5.349q-2-2.2-3.2-4.849h2.149q1.051 2 2.451 3.549 2.3-2.551 3.4-5.7h-11.949v-2.151h7.5v-2.1h2.1v2.1h7.5v2.151h-3.151q-0.5 1.6-1.649 3.625t-2.3 3.325l-0.051 0.049z"></path>
</svg>
