<!-- Generated by IcoMoon.io -->
<svg version="1.1" xmlns="http://www.w3.org/2000/svg" width="40" height="40" viewBox="0 0 40 40">
<title>mt-thumb_down_alt</title>
<path fill="#37352f" d="M9.5 19.051l2.849-6.551q0.651-1.049 1.851-1.049h8.651q1.049 0 1.775 0.725t0.725 1.775v8.351q0 0.9-0.651 1.549l-6.849 6.8-0.451-0.5q-0.6-0.6-0.949-1.3-0.151-0.351-0.1-0.7l1-4.949h-5.9q-0.851 0-1.475-0.649t-0.625-1.5v-1.151q0-0.5 0.149-0.849zM30.649 11.451v11.749h-2.1q-0.449 0-0.775-0.3t-0.325-0.751v-9.6q0-0.451 0.325-0.775t0.775-0.325h2.1z"></path>
</svg>
