<!-- Generated by IcoMoon.io -->
<svg version="1.1" xmlns="http://www.w3.org/2000/svg" width="40" height="40" viewBox="0 0 40 40">
<title>mt-track_changes</title>
<path fill="#37352f" d="M27.551 12.449q3.1 3.1 3.1 7.551 0 4.4-3.125 7.525t-7.525 3.125-7.525-3.125-3.125-7.525 3.125-7.525 7.525-3.125h1.051v8.8q1.1 0.6 1.1 1.849 0 0.851-0.649 1.5t-1.5 0.649-1.5-0.649-0.651-1.5q0-1.251 1.1-1.849v-2.251q-1.4 0.4-2.3 1.5t-0.9 2.6q0 1.751 1.251 3t3 1.251 3-1.251 1.251-3q0-1.651-1.251-3l1.5-1.5q1.9 1.9 1.9 4.5 0 2.649-1.875 4.525t-4.525 1.875-4.525-1.875-1.875-4.525q0-2.349 1.525-4.125t3.825-2.175v-2.149q-3.149 0.4-5.325 2.8t-2.175 5.649q0 3.5 2.525 6.025t6.025 2.525 6.025-2.525 2.525-6.025q0-1.449-0.725-3.225t-1.775-2.825z"></path>
</svg>
