<!-- Generated by IcoMoon.io -->
<svg version="1.1" xmlns="http://www.w3.org/2000/svg" width="40" height="40" viewBox="0 0 40 40">
<title>mt-taxi_alert</title>
<path fill="#37352f" d="M31.751 15.751q0-1.751-0.751-3.275t-2.075-2.575-3.025-1.451q-1.7-0.349-3.349 0.025t-2.951 1.425-2.049 2.649h-2.9v2.1h-2.651q-0.5 0-0.925 0.3t-0.575 0.8l-2.251 6.4v8.5q0 0.451 0.325 0.775t0.775 0.325h1.051q0.449 0 0.751-0.325t0.3-0.775v-1.049h12.8v1.049q0 0.451 0.325 0.775t0.775 0.325h1.049q0.451 0 0.751-0.325t0.3-0.775v-8.2q1.949-0.9 3.125-2.725t1.175-3.975zM12 16.251h4.849q0.151 2.849 2.2 4.8h-8.651zM12 26.4q-0.651 0-1.125-0.475t-0.475-1.125 0.475-1.125 1.125-0.475 1.125 0.475 0.475 1.125-0.475 1.125-1.125 0.475zM23.751 26.4q-0.7 0-1.149-0.475t-0.451-1.125 0.451-1.125 1.149-0.475q0.649 0 1.125 0.475t0.475 1.125-0.475 1.125-1.125 0.475zM26.851 20.4l-0.4 0.2q-0.251 0.1-0.449 0.2l-0.5 0.1-0.2 0.049q-2.3 0.5-4.2-0.949-1.9-1.4-2.149-3.751v-1l0.049-0.2v-0.3l0.051-0.2 0.049-0.251 0.1-0.251 0.049-0.149q0.451-1.2 1.351-2.051t2.1-1.225 2.5-0.175q1.249 0.251 2.249 1t1.575 1.875 0.575 2.375q0 1.5-0.725 2.751t-2.025 1.951v0zM23.2 11.451h2.151v5.351h-2.151v-5.351zM23.2 17.849h2.151v2.151h-2.151v-2.151z"></path>
</svg>
