<!-- Generated by IcoMoon.io -->
<svg version="1.1" xmlns="http://www.w3.org/2000/svg" width="40" height="40" viewBox="0 0 40 40">
<title>mt-update_disabled</title>
<path fill="#37352f" d="M16.449 13.449l-1.549-1.549q1.1-0.7 2.4-1.1t2.7-0.4q2.2 0 4.1 0.925t3.2 2.425l2.3-2.3v6.4h-6.4l2.551-2.551q-1-1.251-2.5-2t-3.251-0.751q-0.951 0-1.851 0.225t-1.7 0.675zM21.051 14.651h-2.1v1.251l2.1 2.151v-3.4zM28.3 31.3l-3.2-3.2q-1.1 0.7-2.4 1.1t-2.7 0.4q-2 0-3.725-0.751t-3.049-2.075-2.075-3.049-0.751-3.725q0-1.4 0.4-2.7t1.1-2.4l-3.2-3.2 1.5-1.5 19.6 19.6zM23.551 26.551l-10.1-10.1q-0.449 0.8-0.675 1.7t-0.225 1.849q0 1.551 0.575 2.9t1.6 2.375 2.375 1.6 2.9 0.575q0.949 0 1.851-0.225t1.7-0.675zM29.551 21.051h-2.151q-0.2 1.3-0.849 2.5l1.6 1.549q0.551-0.9 0.9-1.925t0.5-2.125z"></path>
</svg>
