<!-- Generated by IcoMoon.io -->
<svg version="1.1" xmlns="http://www.w3.org/2000/svg" width="40" height="40" viewBox="0 0 40 40">
<title>mt-volume_off</title>
<path fill="#37352f" d="M20 11.451v4.5l-2.251-2.249zM11.751 10.4l17.851 17.849-1.351 1.351-2.2-2.2q-1.651 1.4-3.9 1.951v-2.2q1.251-0.349 2.4-1.251l-4.551-4.549v7.2l-5.349-5.349h-4.251v-6.4h5.049l-5.049-5.049zM27.449 20q0-2.551-1.475-4.5t-3.825-2.651v-2.2q3.249 0.7 5.351 3.325t2.1 6.025q0 2.351-1.1 4.449l-1.6-1.649q0.551-1.351 0.551-2.8zM24.8 20q0 0.449-0.051 0.649l-2.6-2.6v-2.351q1.1 0.551 1.875 1.8t0.775 2.5z"></path>
</svg>
