<!-- Generated by IcoMoon.io -->
<svg version="1.1" xmlns="http://www.w3.org/2000/svg" width="40" height="40" viewBox="0 0 40 40">
<title>mt-wb_incandescent</title>
<path fill="#37352f" d="M25.6 26.551l1.5-1.451 1.9 1.9-1.5 1.5zM28.551 18.4h3.2v2.151h-3.2v-2.151zM23.2 13.949q1.451 0.851 2.325 2.3t0.875 3.2q0 2.651-1.875 4.525t-4.525 1.875-4.525-1.875-1.875-4.525q0-1.751 0.875-3.2t2.325-2.3v-5.151h6.4v5.151zM11.451 18.4v2.151h-3.2v-2.151h3.2zM18.949 31.149v-3.149h2.1v3.149h-2.1zM11 27l1.9-1.949 1.5 1.5-1.9 1.949z"></path>
</svg>
