<!-- Generated by IcoMoon.io -->
<svg version="1.1" xmlns="http://www.w3.org/2000/svg" width="40" height="40" viewBox="0 0 40 40">
<title>mt-wb_sunny</title>
<path fill="#37352f" d="M11 27l1.9-1.949 1.5 1.5-1.9 1.949zM18.949 31.149v-3.149h2.1v3.149h-2.1zM20 13.051q2.649 0 4.525 1.875t1.875 4.525-1.875 4.525-4.525 1.875-4.525-1.875-1.875-4.525 1.875-4.525 4.525-1.875zM28.551 18.4h3.2v2.151h-3.2v-2.151zM25.6 26.551l1.5-1.451 1.9 1.9-1.5 1.5zM29 11.951l-1.9 1.9-1.5-1.5 1.9-1.9zM21.051 7.8v3.149h-2.1v-3.149h2.1zM11.451 18.4v2.151h-3.2v-2.151h3.2zM14.4 12.349l-1.5 1.5-1.9-1.9 1.5-1.5z"></path>
</svg>
