<!-- Generated by IcoMoon.io -->
<svg version="1.1" xmlns="http://www.w3.org/2000/svg" width="40" height="40" viewBox="0 0 40 40">
<title>mt-wifi_tethering</title>
<path fill="#37352f" d="M20 10.4q4.4 0 7.525 3.1t3.125 7.551q0 2.9-1.425 5.375t-3.875 3.875l-1.1-1.851q1.951-1.149 3.125-3.125t1.175-4.275q0-3.5-2.5-6t-6.051-2.5-6.049 2.5-2.5 6q0 2.351 1.151 4.3t3.1 3.1l-1.051 1.851q-2.449-1.4-3.875-3.875t-1.425-5.375q0-4.451 3.125-7.551t7.525-3.1zM26.4 21.051q0 1.751-0.875 3.225t-2.325 2.325l-1.049-1.851q2.1-1.251 2.1-3.7 0-1.751-1.251-3t-3-1.251-3 1.251-1.251 3q0 2.449 2.1 3.7l-1.049 1.851q-1.451-0.851-2.325-2.325t-0.875-3.225q0-2.651 1.875-4.525t4.525-1.875 4.525 1.875 1.875 4.525zM20 18.949q0.851 0 1.5 0.625t0.649 1.475-0.649 1.5-1.5 0.649-1.5-0.649-0.651-1.5 0.651-1.475 1.5-0.625z"></path>
</svg>
