<!-- Generated by IcoMoon.io -->
<svg version="1.1" xmlns="http://www.w3.org/2000/svg" width="24" height="24" viewBox="0 0 24 24">
<title>music_video</title>
<path fill="#37352f" d="M8.813 14.4q0-0.975 0.712-1.688t1.688-0.712q0.263 0 0.788 0.15v-4.95h4.013v1.613h-2.4v5.625q0 0.975-0.712 1.669t-1.688 0.694-1.688-0.712-0.712-1.688zM19.2 17.587v-11.175h-14.4v11.175h14.4zM19.2 4.8q0.637 0 1.125 0.487t0.487 1.125v11.175q0 0.637-0.487 1.125t-1.125 0.488h-14.4q-0.638 0-1.125-0.488t-0.488-1.125v-11.175q0-0.637 0.488-1.125t1.125-0.487h14.4z"></path>
</svg>
