<!-- Generated by IcoMoon.io -->
<svg version="1.1" xmlns="http://www.w3.org/2000/svg" width="24" height="24" viewBox="0 0 24 24">
<title>nat</title>
<path fill="#37352f" d="M7.837 12.788h3.375v-1.575h-3.375q-0.225-0.712-0.844-1.162t-1.406-0.45q-0.638 0-1.181 0.319t-0.881 0.863-0.338 1.219 0.338 1.219 0.881 0.862 1.181 0.319q0.788 0 1.406-0.45t0.844-1.163zM5.588 12.788q-0.3 0-0.544-0.225t-0.244-0.563 0.244-0.563 0.544-0.225q0.338 0 0.581 0.225t0.244 0.563-0.244 0.563-0.581 0.225zM20.813 12l-3.225-2.4v1.612h-3.225q-0.15-1.537-0.825-2.85t-1.744-2.287-2.456-1.519-2.925-0.544v1.575q1.313 0 2.475 0.506t2.044 1.387 1.369 2.044 0.487 2.475-0.487 2.475-1.369 2.044-2.044 1.388-2.475 0.506v1.575q1.538 0 2.925-0.544t2.456-1.519 1.744-2.288 0.825-2.85h3.225v1.612z"></path>
</svg>
