<!-- Generated by IcoMoon.io -->
<svg version="1.1" xmlns="http://www.w3.org/2000/svg" width="24" height="24" viewBox="0 0 24 24">
<title>network_locked</title>
<path fill="#37352f" d="M19.2 15.188v-1.2q0-0.487-0.338-0.844t-0.862-0.356-0.863 0.356-0.337 0.844v1.2h2.4zM19.987 15.188q0.338 0 0.581 0.244t0.244 0.581v3.188q0 0.337-0.244 0.563t-0.581 0.225h-3.975q-0.338 0-0.581-0.225t-0.244-0.563v-3.188q0-0.338 0.244-0.581t0.581-0.244v-1.2q0-0.825 0.581-1.406t1.406-0.581 1.406 0.581 0.581 1.406v1.2zM18 10.387q-1.5 0-2.55 1.050t-1.050 2.55v0.225q-0.788 0.713-0.788 1.8v2.4h-10.425l15.225-15.225v7.237q-0.075 0-0.206-0.019t-0.206-0.019z"></path>
</svg>
