<!-- Generated by IcoMoon.io -->
<svg version="1.1" xmlns="http://www.w3.org/2000/svg" width="24" height="24" viewBox="0 0 24 24">
<title>nfc</title>
<path fill="#37352f" d="M16.8 7.2v9.6h-9.6v-9.6h3.188v1.612h-1.575v6.375h6.375v-6.375h-2.4v1.8q0.825 0.45 0.825 1.387 0 0.638-0.487 1.125t-1.125 0.487-1.125-0.487-0.488-1.125q0-0.938 0.825-1.387v-1.8q0-0.637 0.469-1.125t1.106-0.488h4.013zM18.413 18.413v-12.825h-12.825v12.825h12.825zM18.413 4.012q0.637 0 1.106 0.469t0.469 1.106v12.825q0 0.637-0.469 1.106t-1.106 0.469h-12.825q-0.638 0-1.106-0.469t-0.469-1.106v-12.825q0-0.638 0.469-1.106t1.106-0.469h12.825z"></path>
</svg>
