<!-- Generated by IcoMoon.io -->
<svg version="1.1" xmlns="http://www.w3.org/2000/svg" width="24" height="24" viewBox="0 0 24 24">
<title>no_meals</title>
<path fill="#37352f" d="M15.188 13.612v-6.413q0-0.525 0.319-1.087t0.862-1.050 1.275-0.769 1.556-0.281v12.938l-1.613-1.613v-1.725h-2.4zM18.788 21.038l-8.363-8.363q-0.225 0.075-0.413 0.094t-0.412 0.019v7.2h-1.613v-7.2q-0.863 0-1.594-0.431t-1.162-1.144-0.431-1.613v-2.55l-1.838-1.837 1.125-1.125 15.825 15.825zM7.35 9.6l-0.938-0.938v0.938h0.938zM9.6 4.012h-1.613v1.725l1.613 1.612v-3.338zM12.788 9.6v-5.588h-1.575v4.913l1.463 1.5q0.075-0.225 0.094-0.413t0.019-0.412z"></path>
</svg>
