<!-- Generated by IcoMoon.io -->
<svg version="1.1" xmlns="http://www.w3.org/2000/svg" width="24" height="24" viewBox="0 0 24 24">
<title>outdoor_grill</title>
<path fill="#37352f" d="M13.913 7.988q0.262-1.013-0.338-1.613-0.938-0.975-0.713-2.363h0.788q-0.188 0.938 0.375 1.613 0.638 0.712 0.75 1.219t-0.038 1.144h-0.825zM11.925 7.988q0.225-1.013-0.375-1.613-0.938-0.975-0.713-2.363h0.788q-0.188 0.938 0.375 1.613 0.638 0.712 0.75 1.219t-0.038 1.144h-0.787zM9.938 7.988q0.225-1.013-0.375-1.613-0.938-0.975-0.712-2.363h0.787q-0.188 0.938 0.375 1.613 0.637 0.712 0.75 1.219t-0.037 1.144h-0.788zM16.013 16.8q-0.338 0-0.581 0.225t-0.244 0.563 0.244 0.581 0.581 0.244 0.563-0.244 0.225-0.581-0.225-0.563-0.563-0.225zM16.013 19.987q-0.788 0-1.388-0.45t-0.862-1.163h-5.1l-0.788 1.275q-0.188 0.337-0.675 0.337-0.3 0-0.45-0.113-0.337-0.188-0.337-0.675 0-0.3 0.112-0.45l3.188-4.837q-1.5-0.675-2.4-2.044t-0.9-3.056h11.175q0 1.5-0.956 3t-2.306 2.1l0.45 0.712q-0.75 0.3-1.275 0.975l-0.787-1.237q-0.188 0.037-0.713 0.037t-0.713-0.037l-1.575 2.437h4.050q0.263-0.712 0.862-1.162t1.388-0.45q0.975 0 1.688 0.713t0.712 1.688-0.712 1.688-1.688 0.712z"></path>
</svg>
