<!-- Generated by IcoMoon.io -->
<svg version="1.1" xmlns="http://www.w3.org/2000/svg" width="24" height="24" viewBox="0 0 24 24">
<title>pageview</title>
<path fill="#37352f" d="M15.825 16.95l1.125-1.125-2.325-2.325q0.563-0.938 0.563-1.913 0-1.5-1.050-2.55t-2.55-1.050-2.55 1.050-1.050 2.55 1.050 2.55 2.55 1.050q0.975 0 1.912-0.563zM18.413 5.588q0.637 0 1.106 0.487t0.469 1.125v9.6q0 0.638-0.469 1.125t-1.106 0.488h-12.825q-0.638 0-1.106-0.488t-0.469-1.125v-9.6q0-0.638 0.469-1.125t1.106-0.487h12.825zM11.587 9.6q0.825 0 1.425 0.581t0.6 1.406-0.6 1.425-1.425 0.6-1.406-0.6-0.581-1.425 0.581-1.406 1.406-0.581z"></path>
</svg>
