<!-- Generated by IcoMoon.io -->
<svg version="1.1" xmlns="http://www.w3.org/2000/svg" width="24" height="24" viewBox="0 0 24 24">
<title>panorama_horizontal</title>
<path fill="#37352f" d="M19.538 5.588q0.45 0 0.45 0.525v11.775q0 0.525-0.45 0.525-0.075 0-0.225-0.075-3.6-1.313-7.313-1.313t-7.313 1.313q-0.15 0.075-0.225 0.075-0.45 0-0.45-0.525v-11.775q0-0.525 0.45-0.525 0.075 0 0.225 0.075 3.6 1.312 7.313 1.312t7.313-1.313q0.15-0.075 0.225-0.075zM18.413 7.65q-2.925 0.9-6.413 0.9-3.3 0-6.413-0.9v8.7q3.075-0.9 6.413-0.9 3.3 0 6.413 0.9v-8.7z"></path>
</svg>
