<!-- Generated by IcoMoon.io -->
<svg version="1.1" xmlns="http://www.w3.org/2000/svg" width="24" height="24" viewBox="0 0 24 24">
<title>perm_contact_calendar</title>
<path fill="#37352f" d="M16.8 16.8v-0.787q0-1.088-1.65-1.781t-3.15-0.694-3.15 0.694-1.65 1.781v0.787h9.6zM12 7.2q-0.975 0-1.688 0.713t-0.712 1.688 0.712 1.688 1.688 0.712 1.688-0.712 0.712-1.688-0.712-1.688-1.688-0.713zM17.587 4.8q0.638 0 1.125 0.487t0.488 1.125v11.175q0 0.637-0.488 1.125t-1.125 0.488h-11.175q-0.675 0-1.144-0.469t-0.469-1.144v-11.175q0-0.675 0.469-1.144t1.144-0.469h0.787v-1.613h1.613v1.613h6.375v-1.613h1.612v1.613h0.788z"></path>
</svg>
