<!-- Generated by IcoMoon.io -->
<svg version="1.1" xmlns="http://www.w3.org/2000/svg" width="24" height="24" viewBox="0 0 24 24">
<title>person_add_alt</title>
<path fill="#37352f" d="M12.788 8.813q0-0.9-0.431-1.631t-1.144-1.163-1.612-0.431-1.613 0.431-1.144 1.163-0.431 1.631q0 0.863 0.431 1.594t1.144 1.163 1.613 0.431 1.612-0.431 1.144-1.163 0.431-1.594zM11.212 8.813q0 0.637-0.469 1.106t-1.144 0.469-1.144-0.469-0.469-1.106q0-0.675 0.469-1.144t1.144-0.469 1.144 0.469 0.469 1.144zM3.188 16.8v1.613h12.825v-1.613q0-0.637-0.45-1.144t-1.181-0.9-1.594-0.638-1.706-0.375-1.481-0.131-1.481 0.131-1.706 0.375-1.594 0.638-1.181 0.9-0.45 1.144zM4.8 16.8q0.075-0.225 0.506-0.487t1.144-0.525 1.519-0.431 1.631-0.169 1.631 0.169 1.5 0.431 1.144 0.525 0.525 0.487h-9.6zM18.413 14.4v-2.4h2.4v-1.613h-2.4v-2.4h-1.613v2.4h-2.4v1.612h2.4v2.4h1.613z"></path>
</svg>
