<!-- Generated by IcoMoon.io -->
<svg version="1.1" xmlns="http://www.w3.org/2000/svg" width="24" height="24" viewBox="0 0 24 24">
<title>person_add_alt_1</title>
<path fill="#37352f" d="M12.788 8.813q0-0.9-0.431-1.631t-1.144-1.163-1.612-0.431-1.613 0.431-1.144 1.163-0.431 1.631q0 0.863 0.431 1.594t1.144 1.163 1.613 0.431 1.612-0.431 1.144-1.163 0.431-1.594zM14.4 10.387v1.613h2.4v2.4h1.613v-2.4h2.4v-1.613h-2.4v-2.4h-1.613v2.4h-2.4zM3.188 16.8v1.613h12.825v-1.613q0-0.637-0.45-1.144t-1.181-0.9-1.594-0.638-1.706-0.375-1.481-0.131-1.481 0.131-1.706 0.375-1.594 0.638-1.181 0.9-0.45 1.144z"></path>
</svg>
