<!-- Generated by IcoMoon.io -->
<svg version="1.1" xmlns="http://www.w3.org/2000/svg" width="24" height="24" viewBox="0 0 24 24">
<title>pest_control_rodent</title>
<path fill="#37352f" d="M19.462 16.313l-1.913-1.725q0.188-0.938-0.169-1.706t-1.050-1.219-1.519-0.45q-0.375 0-0.844 0.131t-0.919 0.469-0.75 0.881-0.3 1.294q0 0.6 0.225 1.106t0.6 0.881l-0.563 0.562q-0.488-0.487-0.769-1.144t-0.281-1.406q0-1.013 0.525-1.837t1.35-1.313q-0.9-0.45-1.838-0.45t-1.762 0.413-1.387 1.106-0.788 1.594q-0.75-0.225-1.237-0.862t-0.488-1.425q0-0.675 0.338-1.219t0.881-0.863 1.181-0.319h2.025q0.825 0 1.406-0.6t0.581-1.425-0.581-1.406-1.406-0.581h-1.2q-0.338 0-0.581 0.244t-0.244 0.544q0 0.338 0.244 0.581t0.581 0.244h1.2q0.15 0 0.262 0.113t0.113 0.262q0 0.188-0.113 0.3t-0.262 0.112h-2.025q-1.087 0-2.006 0.544t-1.444 1.444-0.525 2.025q0 0.938 0.412 1.762t1.144 1.388 1.631 0.75v0.037q0 1.125 0.544 2.044t1.463 1.462 2.044 0.544h7.088q0.563 0 0.956-0.3t0.581-0.769 0.094-0.956-0.506-0.862zM16.8 17.587q-0.337 0-0.563-0.225t-0.225-0.563 0.225-0.563 0.563-0.225 0.563 0.225 0.225 0.563-0.225 0.563-0.563 0.225z"></path>
</svg>
