<!-- Generated by IcoMoon.io -->
<svg version="1.1" xmlns="http://www.w3.org/2000/svg" width="24" height="24" viewBox="0 0 24 24">
<title>photo_size_select_small</title>
<path fill="#37352f" d="M7.988 4.8v1.612h-1.575v-1.612h1.575zM11.212 4.8v1.612h-1.612v-1.612h1.612zM4.8 11.212v1.575h-1.613v-1.575h1.613zM4.8 4.8v1.612h-1.613q0-0.6 0.506-1.106t1.106-0.506zM17.587 17.587v1.613h-1.575v-1.613h1.575zM17.587 4.8v1.612h-1.575v-1.612h1.575zM14.4 17.587v1.613h-1.612v-1.613h1.612zM4.8 7.988v1.613h-1.613v-1.613h1.613zM4.8 19.2q-0.638 0-1.125-0.488t-0.488-1.125v-3.188h8.025v4.8h-6.412zM19.2 4.8q0.6 0 1.106 0.506t0.506 1.106h-1.613v-1.612zM20.813 7.988v1.613h-1.612v-1.613h1.612zM14.4 4.8v1.612h-1.612v-1.612h1.612zM20.813 17.587q0 0.6-0.506 1.106t-1.106 0.506v-1.613h1.612zM20.813 11.212v1.575h-1.612v-1.575h1.612zM20.813 14.4v1.613h-1.612v-1.613h1.612z"></path>
</svg>
