<!-- Generated by IcoMoon.io -->
<svg version="1.1" xmlns="http://www.w3.org/2000/svg" width="24" height="24" viewBox="0 0 24 24">
<title>photo_filter</title>
<path fill="#37352f" d="M13.013 10.988l2.175 1.012-2.175 1.013-1.013 2.175-1.012-2.175-2.175-1.013 2.175-1.012 1.012-2.175zM16.013 10.387l-0.75-1.65-1.65-0.75 1.65-0.75 0.75-1.65 0.75 1.65 1.65 0.75-1.65 0.75zM17.625 10.387h1.575v7.2q0 0.638-0.469 1.125t-1.106 0.488h-11.212q-0.638 0-1.125-0.488t-0.487-1.125v-11.175q0-0.638 0.487-1.125t1.125-0.488h7.2v1.613h-7.2v11.175h11.213v-7.2z"></path>
</svg>
