<!-- Generated by IcoMoon.io -->
<svg version="1.1" xmlns="http://www.w3.org/2000/svg" width="24" height="24" viewBox="0 0 24 24">
<title>plagiarism</title>
<path fill="#37352f" d="M13.612 4.012h-6.413q-0.675 0-1.144 0.469t-0.469 1.106v12.825q0 0.637 0.469 1.106t1.144 0.469h9.6q0.675 0 1.144-0.469t0.469-1.106v-9.6zM14.438 17.962l-1.5-1.5q-0.825 0.413-1.725 0.3t-1.575-0.788q-0.563-0.525-0.75-1.256t0-1.444 0.75-1.237q0.525-0.563 1.238-0.75t1.444 0 1.256 0.75q0.675 0.675 0.787 1.575t-0.3 1.725l1.5 1.5zM12.788 9.6v-4.388l4.425 4.388h-4.425zM10.387 13.987q0-0.487 0.356-0.844t0.844-0.356q0.525 0 0.863 0.356t0.337 0.844q0 0.525-0.337 0.862t-0.863 0.337q-0.488 0-0.844-0.337t-0.356-0.862z"></path>
</svg>
