<!-- Generated by IcoMoon.io -->
<svg version="1.1" xmlns="http://www.w3.org/2000/svg" width="24" height="24" viewBox="0 0 24 24">
<title>policy</title>
<path fill="#37352f" d="M9.6 12q0-0.975 0.712-1.688t1.688-0.712 1.688 0.712 0.712 1.688-0.712 1.688-1.688 0.712-1.688-0.712-0.712-1.688zM19.2 6.413v4.8q0 2.85-1.538 5.325l-2.325-2.325q0.675-1.012 0.675-2.212 0-0.675-0.338-1.519t-0.825-1.331-1.331-0.825-1.519-0.337-1.5 0.337-1.313 0.825-0.844 1.331-0.356 1.519 0.356 1.5 0.844 1.313 1.313 0.844 1.5 0.356q1.2 0 2.213-0.675l2.475 2.512q-1.95 2.288-4.688 2.963-3.075-0.75-5.137-3.506t-2.063-6.094v-4.8l7.2-3.225z"></path>
</svg>
