<!-- Generated by IcoMoon.io -->
<svg version="1.1" xmlns="http://www.w3.org/2000/svg" width="24" height="24" viewBox="0 0 24 24">
<title>pool</title>
<path fill="#37352f" d="M13.612 6.788q0-0.825 0.581-1.406t1.406-0.581 1.406 0.581 0.581 1.406-0.581 1.425-1.406 0.6-1.406-0.6-0.581-1.425zM9.337 12q-0.45 0-0.938-0.3-0.15-0.113-0.6-0.3l2.588-2.587-0.788-0.825q-1.2-1.2-3.188-1.2v-1.987q1.538 0 2.512 0.356t1.875 1.256l5.137 5.1q-0.225 0.15-0.337 0.188-0.487 0.3-0.938 0.3-0.413 0-0.9-0.3-0.825-0.488-1.763-0.488t-1.762 0.488q-0.488 0.3-0.9 0.3zM19.987 15.6q-0.862 0-1.725-0.525-0.413-0.263-0.938-0.263-0.488 0-0.9 0.263-0.862 0.525-1.762 0.525-0.862 0-1.725-0.525-0.412-0.263-0.938-0.263-0.487 0-0.9 0.263-0.863 0.525-1.762 0.525-0.863 0-1.725-0.525-0.413-0.263-0.938-0.263-0.488 0-0.9 0.263-0.862 0.525-1.763 0.525v-1.613q0.487 0 0.9-0.262 0.862-0.525 1.763-0.525 0.863 0 1.725 0.525 0.413 0.262 0.938 0.262 0.488 0 0.9-0.262 0.863-0.525 1.762-0.525 0.863 0 1.725 0.525 0.413 0.262 0.938 0.262 0.487 0 0.9-0.262 0.863-0.525 1.763-0.525 0.862 0 1.725 0.525 0.413 0.262 0.938 0.262v1.613zM19.987 19.2q-0.862 0-1.725-0.525-0.413-0.262-0.938-0.262-0.488 0-0.9 0.262-0.862 0.525-1.762 0.525-0.862 0-1.725-0.525-0.412-0.262-0.938-0.262-0.487 0-0.9 0.262-0.863 0.525-1.762 0.525t-1.763-0.525q-0.413-0.262-0.9-0.262-0.525 0-0.938 0.262-0.863 0.525-1.725 0.525v-1.613q0.487 0 0.9-0.262 0.862-0.525 1.762-0.525 0.863 0 1.725 0.525 0.413 0.262 0.938 0.262 0.488 0 0.9-0.262 0.863-0.525 1.762-0.525t1.763 0.525q0.412 0.262 0.9 0.262 0.525 0 0.938-0.262 0.863-0.525 1.725-0.525 0.9 0 1.762 0.525 0.413 0.262 0.9 0.262v1.613z"></path>
</svg>
