<!-- Generated by IcoMoon.io -->
<svg version="1.1" xmlns="http://www.w3.org/2000/svg" width="24" height="24" viewBox="0 0 24 24">
<title>qr_code</title>
<path fill="#37352f" d="M4.8 11.212h6.412v-6.412h-6.412v6.412zM6.413 6.413h3.188v3.188h-3.188v-3.188zM4.8 19.2h6.412v-6.413h-6.412v6.413zM6.413 14.4h3.188v3.188h-3.188v-3.188zM12.788 4.8v6.412h6.413v-6.412h-6.413zM17.587 9.6h-3.188v-3.188h3.188v3.188zM17.587 17.587h1.613v1.613h-1.613v-1.613zM12.788 12.788h1.612v1.612h-1.612v-1.612zM14.4 14.4h1.613v1.613h-1.613v-1.613zM12.788 16.013h1.612v1.575h-1.612v-1.575zM14.4 17.587h1.613v1.613h-1.613v-1.613zM16.013 16.013h1.575v1.575h-1.575v-1.575zM16.013 12.788h1.575v1.612h-1.575v-1.612zM17.587 14.4h1.613v1.613h-1.613v-1.613z"></path>
</svg>
