<!-- Generated by IcoMoon.io -->
<svg version="1.1" xmlns="http://www.w3.org/2000/svg" width="24" height="24" viewBox="0 0 24 24">
<title>remove_red_eye</title>
<path fill="#37352f" d="M12 9.6q0.975 0 1.688 0.712t0.712 1.688-0.712 1.688-1.688 0.712-1.688-0.712-0.712-1.688 0.712-1.688 1.688-0.712zM12 16.013q1.65 0 2.831-1.181t1.181-2.831-1.181-2.831-2.831-1.181-2.831 1.181-1.181 2.831 1.181 2.831 2.831 1.181zM12 6q2.962 0 5.362 1.65t3.45 4.35q-1.050 2.7-3.45 4.35t-5.362 1.65-5.362-1.65-3.45-4.35q1.050-2.7 3.45-4.35t5.362-1.65z"></path>
</svg>
