<!-- Generated by IcoMoon.io -->
<svg version="1.1" xmlns="http://www.w3.org/2000/svg" width="24" height="24" viewBox="0 0 24 24">
<title>rice_bowl</title>
<path fill="#37352f" d="M19.987 12v0q0-1.65-0.619-3.094t-1.725-2.55-2.55-1.725-3.094-0.619-3.094 0.619-2.55 1.725-1.725 2.55-0.619 3.094q0 1.462 0.6 2.756t1.687 2.288 2.512 1.556v1.387h6.375v-1.387q1.425-0.563 2.513-1.556t1.688-2.288 0.6-2.756zM18.413 12h-3.225v-5.55q1.462 0.863 2.344 2.325t0.881 3.225zM13.612 5.813v6.188h-3.225v-6.188q0.412-0.113 0.806-0.169t0.806-0.056 0.806 0.056 0.806 0.169zM5.588 12q0-1.762 0.881-3.225t2.344-2.325v5.55h-3.225z"></path>
</svg>
