<!-- Generated by IcoMoon.io -->
<svg version="1.1" xmlns="http://www.w3.org/2000/svg" width="24" height="24" viewBox="0 0 24 24">
<title>router</title>
<path fill="#37352f" d="M14.4 16.8v-1.612h-1.612v1.612h1.612zM11.587 16.8v-1.612h-1.575v1.612h1.575zM8.813 16.8v-1.612h-1.613v1.612h1.613zM17.587 12.788q0.638 0 1.125 0.487t0.488 1.125v3.188q0 0.638-0.488 1.125t-1.125 0.488h-11.175q-0.638 0-1.125-0.488t-0.488-1.125v-3.188q0-0.637 0.488-1.125t1.125-0.487h7.987v-3.188h1.613v3.188h1.575zM17.85 7.762l-0.638 0.637q-0.788-0.787-2.025-0.787-1.2 0-1.987 0.787l-0.638-0.637q1.125-1.125 2.625-1.125 1.538 0 2.663 1.125zM18.563 7.125q-1.538-1.35-3.375-1.35-1.8 0-3.337 1.35l-0.638-0.637q1.688-1.688 3.975-1.688 2.325 0 4.013 1.688z"></path>
</svg>
