<!-- Generated by IcoMoon.io -->
<svg version="1.1" xmlns="http://www.w3.org/2000/svg" width="24" height="24" viewBox="0 0 24 24">
<title>sanitizer</title>
<path fill="#37352f" d="M14.813 7.613q0-0.263 0.169-0.6t0.412-0.656 0.431-0.544l0.188-0.225 0.169 0.225t0.413 0.544 0.431 0.656 0.188 0.6q0 0.488-0.356 0.844t-0.844 0.356q-0.525 0-0.863-0.356t-0.337-0.844zM18 14.4q0.825 0 1.406-0.581t0.581-1.406q0-0.525-0.3-1.144t-0.694-1.181-0.694-0.919l-0.3-0.356-0.3 0.356t-0.694 0.919-0.694 1.181-0.3 1.144q0 0.825 0.581 1.406t1.406 0.581zM12.788 13.612h-1.575v-1.613h-1.612v1.613h-1.613v1.575h1.613v1.612h1.612v-1.612h1.575v-1.575zM15.188 12v7.987h-9.6v-7.987q0-1.2 0.525-2.194t1.444-1.669 2.044-0.862v-1.688h-1.613v-1.575h4.8q0.675 0 1.294 0.206t1.106 0.581l-1.125 1.162q-0.3-0.188-0.619-0.281t-0.656-0.094h-1.575v1.687q1.125 0.188 2.025 0.862t1.425 1.669 0.525 2.194z"></path>
</svg>
