<!-- Generated by IcoMoon.io -->
<svg version="1.1" xmlns="http://www.w3.org/2000/svg" width="24" height="24" viewBox="0 0 24 24">
<title>screen_search_desktop</title>
<path fill="#37352f" d="M10.087 15.825h3.825v1.463h-3.825v-1.463zM18.413 16.8q0.637 0 1.106-0.469t0.469-1.144v-7.988q0-0.675-0.469-1.144t-1.106-0.469h-12.825q-0.638 0-1.106 0.469t-0.469 1.144v7.988q0 0.675 0.469 1.144t1.106 0.469h-3.188v1.613h19.2v-1.613h-3.188zM5.588 15.188v-7.988h12.825v8.025zM9.675 10.35q0-0.6 0.431-1.031t1.069-0.431q0.6 0 1.050 0.431t0.45 1.031q0 0.637-0.45 1.069t-1.050 0.431q-0.637 0-1.069-0.431t-0.431-1.069zM15.3 13.763l-1.987-1.988q0.413-0.637 0.413-1.425 0-0.713-0.338-1.294t-0.919-0.919-1.294-0.337-1.294 0.337-0.938 0.919-0.356 1.294 0.356 1.294 0.938 0.937 1.294 0.356q0.75 0 1.387-0.413l1.987 1.988zM2.4 2.4h19.2v19.2h-19.2v-19.2z"></path>
</svg>
