<!-- Generated by IcoMoon.io -->
<svg version="1.1" xmlns="http://www.w3.org/2000/svg" width="24" height="24" viewBox="0 0 24 24">
<title>sentiment_neutral</title>
<path fill="#37352f" d="M12 18.413q2.625 0 4.519-1.894t1.894-4.519-1.894-4.519-4.519-1.894-4.519 1.894-1.894 4.519 1.894 4.519 4.519 1.894zM12 4.012q3.3 0 5.644 2.344t2.344 5.644-2.344 5.644-5.644 2.344-5.644-2.344-2.344-5.644 2.344-5.644 5.644-2.344zM7.988 10.012q0-0.488 0.356-0.844t0.844-0.356 0.844 0.356 0.356 0.844-0.356 0.844-0.844 0.356-0.844-0.356-0.356-0.844zM13.612 10.012q0-0.488 0.356-0.844t0.844-0.356 0.844 0.356 0.356 0.844-0.356 0.844-0.844 0.356-0.844-0.356-0.356-0.844zM9.6 14.813h4.8v0.788h-4.8v-0.788z"></path>
</svg>
