<!-- Generated by IcoMoon.io -->
<svg version="1.1" xmlns="http://www.w3.org/2000/svg" width="24" height="24" viewBox="0 0 24 24">
<title>sim_card</title>
<path fill="#37352f" d="M16.013 14.4v-3.188h-1.613v3.188h1.613zM12.788 12.788v-1.575h-1.575v1.575h1.575zM12.788 17.587v-3.188h-1.575v3.188h1.575zM9.6 14.4v-3.188h-1.613v3.188h1.613zM16.013 17.587v-1.575h-1.613v1.575h1.613zM9.6 17.587v-1.575h-1.613v1.575h1.613zM18.375 5.588l0.038 12.825q0 0.637-0.488 1.106t-1.125 0.469h-9.6q-0.637 0-1.125-0.469t-0.488-1.106v-9.6l4.8-4.8h6.412q0.638 0 1.106 0.469t0.469 1.106z"></path>
</svg>
