<!-- Generated by IcoMoon.io -->
<svg version="1.1" xmlns="http://www.w3.org/2000/svg" width="24" height="24" viewBox="0 0 24 24">
<title>sports_tennis</title>
<path fill="#37352f" d="M16.8 14.4q1.313 0 2.25 0.938t0.938 2.25-0.938 2.269-2.25 0.956-2.25-0.938-0.938-2.287q0-1.313 0.938-2.25t2.25-0.938zM16.8 16.013q-0.675 0-1.125 0.45-0.487 0.488-0.487 1.125t0.487 1.125 1.125 0.488q0.675 0 1.125-0.45 0.488-0.487 0.488-1.144t-0.488-1.144q-0.45-0.45-1.125-0.45zM10.65 11.738q0.938 0.937 2.531 0.694t2.869-1.519 1.519-2.869-0.694-2.531-2.512-0.675-2.85 1.537-1.538 2.85 0.675 2.512zM18 4.387q1.388 1.425 1.163 3.656t-1.988 3.994q-0.938 0.938-2.156 1.481t-2.231 0.544h-1.219t-0.638 0.019-0.694 0.094-0.619 0.188-0.656 0.319-0.563 0.469l-3.375 3.375-1.162-1.125 3.412-3.375q0.263-0.263 0.469-0.563t0.319-0.656 0.188-0.638 0.094-0.713 0.019-0.637v-1.219q0-0.975 0.544-2.194t1.481-2.156q1.763-1.762 3.994-2.025t3.619 1.163z"></path>
</svg>
