<!-- Generated by IcoMoon.io -->
<svg version="1.1" xmlns="http://www.w3.org/2000/svg" width="24" height="24" viewBox="0 0 24 24">
<title>stroller</title>
<path fill="#37352f" d="M13.612 18.413q0-0.675 0.469-1.144t1.106-0.469q0.675 0 1.144 0.469t0.469 1.144q0 0.637-0.469 1.106t-1.144 0.469q-0.638 0-1.106-0.469t-0.469-1.106zM5.588 18.413q0-0.675 0.469-1.144t1.144-0.469 1.144 0.469 0.469 1.144q0 0.637-0.469 1.106t-1.144 0.469-1.144-0.469-0.469-1.106zM19.987 7.988v-0.413q0-0.75-0.356-1.387t-0.956-1.012-1.35-0.375q-0.675 0-1.144 0.281t-0.806 0.656-0.6 0.675l-7.050 8.25q-0.225 0.262-0.188 0.581t0.244 0.544 0.581 0.225h6.037q0.675 0 1.144-0.469t0.469-1.144v-6.975q0.337-0.413 0.619-0.712t0.694-0.3q0.45 0 0.769 0.338t0.319 0.825v0.413h1.575zM13.837 5.662q-0.75-0.412-1.631-0.637t-1.819-0.225q-1.163 0-2.231 0.356t-1.969 1.031l3.9 3.9z"></path>
</svg>
