<!-- Generated by IcoMoon.io -->
<svg version="1.1" xmlns="http://www.w3.org/2000/svg" width="24" height="24" viewBox="0 0 24 24">
<title>swap_calls</title>
<path fill="#37352f" d="M16.8 5.588l3.188 3.225h-2.4v5.587q0 1.313-0.938 2.25t-2.25 0.938-2.25-0.938-0.938-2.25v-5.587q0-0.637-0.487-1.125t-1.125-0.488-1.125 0.488-0.488 1.125v5.587h2.4l-3.188 3.188-3.188-3.188h2.4v-5.587q0-1.313 0.938-2.269t2.25-0.956 2.25 0.956 0.938 2.269v5.587q0 0.638 0.487 1.125t1.125 0.488 1.125-0.488 0.487-1.125v-5.587h-2.4z"></path>
</svg>
