<!-- Generated by IcoMoon.io -->
<svg version="1.1" xmlns="http://www.w3.org/2000/svg" width="40" height="40" viewBox="0 0 40 40">
<title>th-anchor</title>
<path fill="#37352f" d="M32.783 27.703l-2.955-5.886-5.886 2.952 0.843 1.685 3.522-1.768c-0.702 3.59-3.682 6.334-7.366 6.748v-14.257h2.824v-1.882h-2.824v-1.978c2.146-0.437 3.765-2.336 3.765-4.61 0-2.596-2.112-4.706-4.706-4.706s-4.706 2.11-4.706 4.706c0 2.274 1.619 4.173 3.765 4.61v1.978h-2.824v1.882h2.824v14.257c-3.68-0.414-6.66-3.155-7.364-6.739l3.501 1.758 0.843-1.685-5.886-2.952-2.955 5.886 1.683 0.845 1.225-2.443c1.304 4.226 5.246 7.307 9.894 7.307 4.638 0 8.576-3.068 9.886-7.279l1.214 2.415 1.683-0.845zM17.176 8.706c0-1.557 1.267-2.824 2.824-2.824s2.824 1.267 2.824 2.824-1.267 2.824-2.824 2.824-2.824-1.267-2.824-2.824z"></path>
</svg>
