<!-- Generated by IcoMoon.io -->
<svg version="1.1" xmlns="http://www.w3.org/2000/svg" width="40" height="40" viewBox="0 0 40 40">
<title>th-arrow</title>
<path fill="#37352f" d="M29.606 25.363l-1.329-1.333 3.095-3.089h-10.43v10.43l3.089-3.095 1.333 1.329-5.363 5.374-5.363-5.374 1.333-1.329 3.089 3.095v-10.43h-10.43l3.095 3.089-1.329 1.333-5.374-5.363 5.374-5.363 1.329 1.333-3.095 3.089h10.43v-10.43l-3.089 3.095-1.333-1.329 5.363-5.374 5.363 5.374-1.333 1.329-3.089-3.095v10.43h10.43l-3.095-3.089 1.329-1.333 5.374 5.363-5.374 5.363z"></path>
</svg>
