<!-- Generated by IcoMoon.io -->
<svg version="1.1" xmlns="http://www.w3.org/2000/svg" width="40" height="40" viewBox="0 0 40 40">
<title>th-comment</title>
<path fill="#37352f" d="M33.176 4h-26.353c-1.557 0-2.824 1.267-2.824 2.824v18.824c0 1.557 1.267 2.824 2.824 2.824h0.941v7.721l8.824-7.721h16.587c1.557 0 2.824-1.267 2.824-2.824v-18.824c0-1.557-1.267-2.824-2.824-2.824zM34.118 25.647c0 0.518-0.422 0.941-0.941 0.941h-17.295l-6.234 5.455v-5.455h-2.824c-0.52 0-0.941-0.424-0.941-0.941v-18.824c0-0.518 0.422-0.941 0.941-0.941h26.353c0.52 0 0.941 0.424 0.941 0.941v18.824z"></path>
</svg>
