<!-- Generated by IcoMoon.io -->
<svg version="1.1" xmlns="http://www.w3.org/2000/svg" width="40" height="40" viewBox="0 0 40 40">
<title>th-flickr</title>
<path fill="#37352f" d="M17.732 20c0 3.791-3.076 6.865-6.863 6.865-3.793 0-6.869-3.074-6.869-6.865s3.076-6.865 6.869-6.865c3.787 0 6.863 3.074 6.863 6.865zM36 20c0 3.791-3.076 6.865-6.869 6.865-3.787 0-6.863-3.076-6.863-6.865s3.076-6.865 6.863-6.865c3.793 0 6.869 3.074 6.869 6.865zM34.118 20c0-2.748-2.236-4.983-4.986-4.983-2.746 0-4.981 2.236-4.981 4.983s2.234 4.983 4.981 4.983c2.75 0 4.986-2.234 4.986-4.983z"></path>
</svg>
