<!-- Generated by IcoMoon.io -->
<svg version="1.1" xmlns="http://www.w3.org/2000/svg" width="40" height="40" viewBox="0 0 40 40">
<title>th-github</title>
<path fill="#37352f" d="M28.616 24.922c0 1.404-0.732 3.693-2.462 3.693-1.732 0-2.464-2.289-2.464-3.693 0-1.402 0.732-3.693 2.464-3.693 1.73 0 2.462 2.291 2.462 3.693zM13.847 21.229c-1.73 0-2.462 2.291-2.462 3.693 0 1.404 0.732 3.693 2.462 3.693s2.462-2.289 2.462-3.693c0-1.402-0.732-3.693-2.462-3.693zM36 21.538c0 2.136-0.211 4.405-1.173 6.366-2.539 5.135-9.519 5.634-14.519 5.634-5.077 0-12.48-0.44-15.115-5.634-0.983-1.943-1.193-4.23-1.193-6.366 0-2.808 0.77-5.461 2.616-7.614-0.346-1.058-0.52-2.174-0.52-3.272 0-1.442 0.326-2.882 0.981-4.192 3.038 0 4.981 1.327 7.288 3.134 1.943-0.461 3.942-0.672 5.943-0.672 1.807 0 3.635 0.194 5.385 0.616 2.289-1.788 4.23-3.078 7.23-3.078 0.655 1.308 0.981 2.75 0.981 4.192 0 1.097-0.173 2.193-0.52 3.232 1.847 2.172 2.615 4.845 2.615 7.654zM31.691 24.922c0-2.942-1.786-5.538-4.922-5.538-1.269 0-2.479 0.232-3.75 0.405-1 0.154-1.999 0.211-3.019 0.211s-2.020-0.056-3.019-0.211c-1.25-0.173-2.481-0.405-3.75-0.405-3.134 0-4.922 2.596-4.922 5.538 0 5.884 5.384 6.788 10.076 6.788h3.232c4.693 0.002 10.074-0.904 10.074-6.788z"></path>
</svg>
