<!-- Generated by IcoMoon.io -->
<svg version="1.1" xmlns="http://www.w3.org/2000/svg" width="40" height="40" viewBox="0 0 40 40">
<title>th-gift</title>
<path fill="#37352f" d="M18.756 14.562l-0.064 0.373 1.267-0.162c0.008 0 0.040-0.006 0.058-0.008l1.199 0.152-0.058-0.341c2.052-0.38 6.227-1.365 8.612-3.407 0.93-0.794 1.442-1.864 1.442-3.012s-0.512-2.217-1.442-3.014c-1.773-1.521-4.821-1.519-6.594 0-1.532 1.312-2.558 3.249-3.221 4.947-0.663-1.694-1.688-3.625-3.221-4.934-1.771-1.517-4.815-1.515-6.586 0-0.93 0.794-1.442 1.862-1.442 3.006s0.512 2.21 1.442 3.002c2.385 2.037 6.56 3.017 8.608 3.396zM24.399 6.575c0.548-0.469 1.282-0.727 2.072-0.727 0.789 0 1.527 0.258 2.072 0.727 0.506 0.431 0.783 0.994 0.783 1.583 0 0.587-0.277 1.148-0.783 1.581-1.943 1.662-5.513 2.551-7.465 2.933 0.461-1.672 1.474-4.516 3.32-6.097zM11.369 6.588c0.548-0.467 1.282-0.725 2.072-0.725 0.789 0 1.525 0.258 2.071 0.725 1.837 1.568 2.85 4.399 3.313 6.067-1.95-0.378-5.512-1.261-7.456-2.921-0.504-0.429-0.781-0.986-0.781-1.57 0-0.585 0.277-1.144 0.781-1.576zM36 15.294h-32v7.529h1.882v13.176h28.235v-13.176h1.882v-7.529zM17.131 17.176h5.658l2.007 10.999-3.102-1.289-2.449 2.268-2.114-11.977zM5.882 17.176h9.336l0.664 3.765h-10.001v-3.765zM32.235 34.118h-24.471v-11.294h8.452l1.773 10.057 4.096-3.793 5.18 2.155-1.534-8.42h6.504v11.294zM34.118 20.941h-8.73l-0.687-3.765h9.417v3.765z"></path>
</svg>
