<!-- Generated by IcoMoon.io -->
<svg version="1.1" xmlns="http://www.w3.org/2000/svg" width="40" height="40" viewBox="0 0 40 40">
<title>th-hand-point-right</title>
<path fill="#37352f" d="M35.853 18.106c0 1.56-1.295 2.831-2.889 2.831h-4.376c0.111 0.305 0.171 0.634 0.171 0.975 0 1.489-1.184 2.711-2.68 2.816 0.109 0.297 0.168 0.616 0.168 0.949 0 1.562-1.297 2.835-2.891 2.835h-0.256c0.092 0.273 0.141 0.565 0.141 0.872 0 1.572-1.299 2.852-2.891 2.852h-5.995c-1.261 0-2.927-0.606-4.397-1.141-0.954-0.348-2.035-0.742-2.464-0.742h-1.609c-0.52 0-0.941-0.422-0.941-0.941s0.422-0.941 0.941-0.941h1.609c0.759 0 1.796 0.376 3.106 0.855 1.325 0.482 2.825 1.028 3.755 1.028h5.995c0.548 0 1.009-0.444 1.009-0.971 0-0.55-0.493-0.855-0.979-0.872-0.512-0.019-0.917-0.444-0.907-0.958s0.429-0.924 0.941-0.924h2.94c0.557 0 1.009-0.427 1.009-0.952 0-0.497-0.412-0.909-0.937-0.943-0.51-0.032-0.9-0.459-0.885-0.969 0.017-0.508 0.431-0.911 0.941-0.911h2.387c0.555 0 1.007-0.424 1.007-0.941 0-0.488-0.382-0.919-0.87-0.981-0.491-0.064-0.849-0.501-0.817-0.994 0.034-0.497 0.442-0.881 0.939-0.881h6.835c0.555 0 1.007-0.425 1.007-0.949 0-0.525-0.452-0.952-1.007-0.952h-11.633c-0.388 0-0.736-0.237-0.877-0.599s-0.043-0.772 0.241-1.035l2.28-2.095c0.866-0.864 0.7-1.139 0.54-1.408-0.279-0.469-0.904-0.631-1.397-0.354l-13.359 6.187c-0.168 0.098-0.331 0.309-0.397 0.559-0.104 0.42-0.478 0.712-0.911 0.712h-1.566c-0.52 0-0.941-0.422-0.941-0.941s0.422-0.941 0.941-0.941h0.939c0.252-0.439 0.619-0.806 1.079-1.062l13.361-6.189c1.304-0.734 3.072-0.275 3.868 1.064 1.080 1.801-0.326 3.204-0.853 3.731l-0.531 0.489h9.218c1.592 0 2.889 1.272 2.889 2.835z"></path>
</svg>
