<!-- Generated by IcoMoon.io -->
<svg version="1.1" xmlns="http://www.w3.org/2000/svg" width="40" height="40" viewBox="0 0 40 40">
<title>th-hand-drag</title>
<path fill="#37352f" d="M30.283 14.541v11c0 1.463-0.721 2.336-1.248 2.972-0.44 0.535-0.67 0.834-0.67 1.306v3.356c0 0.52-0.422 0.941-0.941 0.941s-0.941-0.422-0.941-0.941v-3.356c0-1.173 0.612-1.912 1.103-2.505 0.456-0.552 0.817-0.986 0.817-1.771v-11.002c0-0.587-0.504-1.141-1.037-1.141-0.619 0-0.751 0.096-0.757 0.1-0.124 0.168-0.12 1.071-0.119 1.8 0.002 0.356 0.004 0.753-0.004 1.19-0.008 0.516-0.401 0.9-0.949 0.928-0.516-0.004-0.934-0.424-0.934-0.941v-3.991c0-0.578-0.418-1.013-0.971-1.013-0.508 0-0.881 0.378-0.926 0.919v3.77c0 0.52-0.422 0.941-0.941 0.941s-0.941-0.422-0.941-0.941v0-3.785c0-0.006-0.004-0.011-0.004-0.019v-1.455c0-0.124-0.026-1.208-0.892-1.208-0.847 0-0.975 0.757-0.975 1.208v1.323c0 0.053-0.021 0.102-0.030 0.152v4.883c0 0.52-0.422 0.941-0.941 0.941s-0.941-0.422-0.941-0.941v0-5.052c-0.090-0.365-0.354-0.734-0.877-0.734-0.538 0-0.992 0.491-0.992 1.073v6.306c0 0.013-0.011 0.024-0.011 0.038v2.072c0 0.52-0.422 0.941-0.941 0.941s-0.941-0.422-0.941-0.941v-1.57c-0.331-0.12-0.811-0.218-1.086-0.156-0.222 0.043-0.446 0.239-0.585 0.51-0.111 0.213-0.26 0.653-0.017 1.199l3.196 6.997c0.030 0.066 0.051 0.134 0.066 0.203 0.105 0.518 0.587 0.858 1.107 0.811 0.262-0.034 0.529 0.056 0.728 0.235 0.198 0.179 0.312 0.433 0.312 0.7v3.283c0 0.52-0.422 0.941-0.941 0.941s-0.941-0.422-0.941-0.941v-2.421c-1.009-0.262-1.824-1.056-2.084-2.118l-3.16-6.918c-0.414-0.934-0.39-1.963 0.060-2.837 0.403-0.777 1.107-1.335 1.884-1.493 0.395-0.081 0.93-0.058 1.459 0.049v-1.355c0-0.019 0.009-0.036 0.011-0.055v-3.482c0-1.63 1.291-2.955 2.874-2.955 0.376 0 0.738 0.075 1.065 0.211 0.375-1.212 1.38-1.99 2.697-1.99 1.257 0 2.244 0.794 2.615 1.997 0.335-0.141 0.702-0.218 1.090-0.218 1.297 0 2.368 0.836 2.724 2.018 0.344-0.075 0.695-0.092 1.009-0.092 1.585 0 2.921 1.384 2.921 3.023z"></path>
</svg>
