<!-- Generated by IcoMoon.io -->
<svg version="1.1" xmlns="http://www.w3.org/2000/svg" width="40" height="40" viewBox="0 0 40 40">
<title>th-heart-broken</title>
<path fill="#37352f" d="M4.288 15.814c-0.198-0.789-0.288-1.459-0.288-2.104 0-4.67 3.8-8.471 8.471-8.471 3.273 0 6.12 1.867 7.529 4.591 1.41-2.724 4.256-4.591 7.529-4.591 4.67 0 8.471 3.8 8.471 8.471 0 0.644-0.088 1.295-0.277 2.054l-0.213 0.693c-0.152 0.623-0.429 1.357-0.853 2.257l-1.702-0.802c0.369-0.787 0.606-1.41 0.744-1.96l0.211-0.695c0.137-0.555 0.207-1.062 0.207-1.547 0-3.633-2.955-6.588-6.588-6.588s-6.588 2.957-6.588 6.588h-1.882c0-3.633-2.955-6.588-6.588-6.588s-6.588 2.957-6.588 6.588c0 0.488 0.072 1.009 0.218 1.594l0.188 0.595c0.177 0.54 0.442 1.163 0.83 1.944l-1.687 0.84c-0.429-0.866-0.727-1.568-0.937-2.208l-0.207-0.661zM19.998 32.632c-1.517-1.192-5.839-4.768-9.367-9.436l-1.5 1.137c4.506 5.961 10.078 10.074 10.312 10.246l0.561 0.41 0.557-0.414c0.243-0.179 5.999-4.469 10.421-10.236l-1.493-1.146c-3.479 4.535-7.942 8.218-9.491 9.44zM30.677 17.958l-5.331 3.765-5.331-3.765-5.333 3.765-5.34-3.763-5.884 4.145 1.084 1.54 4.8-3.384 5.34 3.767 5.333-3.765 5.331 3.765 5.331-3.765 4.779 3.381 1.088-1.536-5.867-4.149z"></path>
</svg>
