<!-- Generated by IcoMoon.io -->
<svg version="1.1" xmlns="http://www.w3.org/2000/svg" width="40" height="40" viewBox="0 0 40 40">
<title>th-hand-point-down</title>
<path fill="#37352f" d="M29.888 25.276c-1.8 1.086-3.204-0.326-3.731-0.855l-0.489-0.531v9.22c0 1.594-1.271 2.889-2.833 2.889s-2.833-1.295-2.833-2.889v-4.376c-0.305 0.111-0.632 0.171-0.973 0.171-1.487 0-2.711-1.184-2.816-2.68-0.297 0.111-0.617 0.169-0.951 0.169-1.562 0-2.833-1.297-2.833-2.893v-0.256c-0.273 0.092-0.565 0.141-0.872 0.141-1.572 0-2.852-1.297-2.852-2.889v-5.997c0-1.261 0.606-2.927 1.141-4.395 0.348-0.954 0.742-2.037 0.742-2.464v-1.611c0-0.52 0.422-0.941 0.941-0.941s0.941 0.422 0.941 0.941v1.609c0 0.76-0.376 1.798-0.855 3.11-0.482 1.323-1.028 2.822-1.028 3.752v5.997c0 0.546 0.444 1.007 0.971 1.007 0.55 0 0.855-0.493 0.872-0.979 0.019-0.508 0.435-0.907 0.941-0.907 0.006 0 0.011 0 0.017 0 0.512 0.009 0.924 0.429 0.924 0.941v2.94c0 0.557 0.427 1.011 0.951 1.011 0.497 0 0.911-0.414 0.945-0.941 0.030-0.506 0.442-0.885 0.968-0.881 0.508 0.017 0.911 0.433 0.911 0.941v2.387c0 0.555 0.424 1.007 0.941 1.007 0.488 0 0.917-0.38 0.981-0.868 0.064-0.491 0.503-0.873 0.994-0.819 0.495 0.032 0.881 0.442 0.881 0.939v6.835c0 0.555 0.427 1.007 0.951 1.007s0.951-0.452 0.951-1.007v-11.633c0-0.388 0.237-0.736 0.599-0.877 0.356-0.141 0.77-0.045 1.035 0.239l2.097 2.28c0.864 0.87 1.143 0.702 1.408 0.54 0.463-0.275 0.623-0.911 0.354-1.393l-6.189-13.361c-0.1-0.171-0.309-0.335-0.559-0.397-0.418-0.105-0.712-0.48-0.712-0.913v-1.566c0-0.52 0.422-0.941 0.941-0.941s0.941 0.422 0.941 0.941v0.939c0.439 0.252 0.806 0.621 1.062 1.080l6.189 13.361c0.74 1.306 0.279 3.070-1.064 3.866z"></path>
</svg>
