<!-- Generated by IcoMoon.io -->
<svg version="1.1" xmlns="http://www.w3.org/2000/svg" width="40" height="40" viewBox="0 0 40 40">
<title>th-hand-point-left</title>
<path fill="#37352f" d="M34.912 29.412c0 0.52-0.422 0.941-0.941 0.941h-1.609c-0.427 0-1.51 0.393-2.464 0.742-1.47 0.535-3.136 1.141-4.397 1.141h-5.995c-1.594 0-2.891-1.28-2.891-2.854 0-0.307 0.049-0.599 0.141-0.872h-0.254c-1.594 0-2.891-1.272-2.891-2.835 0-0.333 0.058-0.651 0.168-0.949-1.496-0.104-2.68-1.325-2.68-2.814 0-0.341 0.060-0.668 0.171-0.975h-4.378c-1.594 0-2.889-1.271-2.889-2.831 0-1.562 1.295-2.835 2.889-2.835h9.218l-0.501-0.461c-0.557-0.555-1.963-1.958-0.881-3.761 0.796-1.336 2.56-1.798 3.93-1.030l13.229 6.121c0.504 0.28 0.887 0.655 1.143 1.097h0.941c0.52 0 0.941 0.422 0.941 0.941s-0.422 0.941-0.941 0.941h-1.564c-0.431 0-0.808-0.292-0.913-0.712-0.064-0.25-0.228-0.461-0.461-0.593l-13.229-6.12c-0.553-0.309-1.18-0.151-1.459 0.318-0.162 0.271-0.328 0.546 0.565 1.438l2.251 2.067c0.286 0.264 0.38 0.672 0.239 1.035s-0.489 0.599-0.877 0.599h-11.633c-0.553 0-1.005 0.427-1.005 0.952 0 0.523 0.452 0.949 1.007 0.949h6.835c0.497 0 0.907 0.384 0.939 0.881 0.032 0.495-0.326 0.93-0.817 0.994-0.488 0.062-0.868 0.495-0.868 0.983 0 0.518 0.452 0.941 1.007 0.941h2.387c0.508 0 0.926 0.405 0.941 0.911 0.015 0.51-0.376 0.937-0.883 0.969-0.527 0.034-0.939 0.446-0.939 0.943 0 0.525 0.454 0.952 1.009 0.952h2.94c0.514 0 0.932 0.412 0.941 0.924s-0.395 0.939-0.907 0.958c-0.486 0.017-0.979 0.322-0.979 0.872 0 0.525 0.463 0.969 1.009 0.969h5.995c0.93 0 2.43-0.546 3.753-1.028 1.31-0.478 2.347-0.855 3.106-0.855h1.609c0.521 0 0.943 0.422 0.943 0.941z"></path>
</svg>
