<!-- Generated by IcoMoon.io -->
<svg version="1.1" xmlns="http://www.w3.org/2000/svg" width="40" height="40" viewBox="0 0 40 40">
<title>th-layout-grid4</title>
<path fill="#37352f" d="M5.882 11.529h5.647v-5.647h-5.647v5.647zM7.765 7.765h1.882v1.882h-1.882v-1.882zM13.412 11.529h5.647v-5.647h-5.647v5.647zM15.294 7.765h1.882v1.882h-1.882v-1.882zM20.941 11.529h5.647v-5.647h-5.647v5.647zM22.824 7.765h1.882v1.882h-1.882v-1.882zM28.471 5.882v5.647h5.647v-5.647h-5.647zM32.235 9.647h-1.882v-1.882h1.882v1.882zM5.882 19.059h5.647v-5.647h-5.647v5.647zM7.765 15.294h1.882v1.882h-1.882v-1.882zM13.412 19.059h5.647v-5.647h-5.647v5.647zM15.294 15.294h1.882v1.882h-1.882v-1.882zM20.941 19.059h5.647v-5.647h-5.647v5.647zM22.824 15.294h1.882v1.882h-1.882v-1.882zM28.471 19.059h5.647v-5.647h-5.647v5.647zM30.353 15.294h1.882v1.882h-1.882v-1.882zM5.882 26.588h5.647v-5.647h-5.647v5.647zM7.765 22.824h1.882v1.882h-1.882v-1.882zM13.412 26.588h5.647v-5.647h-5.647v5.647zM15.294 22.824h1.882v1.882h-1.882v-1.882zM20.941 26.588h5.647v-5.647h-5.647v5.647zM22.824 22.824h1.882v1.882h-1.882v-1.882zM28.471 26.588h5.647v-5.647h-5.647v5.647zM30.353 22.824h1.882v1.882h-1.882v-1.882zM5.882 34.118h5.647v-5.647h-5.647v5.647zM7.765 30.353h1.882v1.882h-1.882v-1.882zM13.412 34.118h5.647v-5.647h-5.647v5.647zM15.294 30.353h1.882v1.882h-1.882v-1.882zM20.941 34.118h5.647v-5.647h-5.647v5.647zM22.824 30.353h1.882v1.882h-1.882v-1.882zM28.471 34.118h5.647v-5.647h-5.647v5.647zM30.353 30.353h1.882v1.882h-1.882v-1.882z"></path>
</svg>
