<!-- Generated by IcoMoon.io -->
<svg version="1.1" xmlns="http://www.w3.org/2000/svg" width="40" height="40" viewBox="0 0 40 40">
<title>th-layout-accordion-list</title>
<path fill="#37352f" d="M11.529 4v16.941h24.471v-16.941h-24.471zM34.118 19.059h-20.706v-13.176h20.706v13.176zM4 9.647h5.647v-5.647h-5.647v5.647zM5.882 5.882h1.882v1.882h-1.882v-1.882zM11.529 28.471h24.471v-5.647h-24.471v5.647zM13.412 24.706h20.706v1.882h-20.706v-1.882zM4 28.471h5.647v-5.647h-5.647v5.647zM5.882 24.706h1.882v1.882h-1.882v-1.882zM11.529 36h24.471v-5.647h-24.471v5.647zM13.412 32.235h20.706v1.882h-20.706v-1.882zM4 36h5.647v-5.647h-5.647v5.647zM5.882 32.235h1.882v1.882h-1.882v-1.882z"></path>
</svg>
