<!-- Generated by IcoMoon.io -->
<svg version="1.1" xmlns="http://www.w3.org/2000/svg" width="40" height="40" viewBox="0 0 40 40">
<title>th-lock</title>
<path fill="#37352f" d="M21.882 24.653c0 0.689-0.39 1.265-0.941 1.592v4.055h-1.882v-4.053c-0.553-0.328-0.941-0.904-0.941-1.594 0-1.039 0.841-1.882 1.882-1.882 1.037 0 1.882 0.841 1.882 1.882zM32.169 19.925v13.327c0 1.557-1.267 2.824-2.824 2.824h-18.803c-1.557 0-2.824-1.267-2.824-2.824v-13.327c0-1.557 1.267-2.824 2.824-2.824h0.045v-3.742c0-5.19 4.222-9.412 9.412-9.412s9.412 4.222 9.412 9.412v3.75c1.527 0.034 2.758 1.282 2.758 2.816zM12.471 17.101h15.059v-3.742c0-4.152-3.377-7.529-7.529-7.529s-7.529 3.377-7.529 7.529v3.742zM30.287 19.925c0-0.497-0.39-0.892-0.875-0.928v0.008h-18.824v-0.021h-0.045c-0.518 0-0.941 0.422-0.941 0.941v13.327c0 0.52 0.424 0.941 0.941 0.941h18.803c0.518 0 0.941-0.422 0.941-0.941v-13.327z"></path>
</svg>
