<!-- Generated by IcoMoon.io -->
<svg version="1.1" xmlns="http://www.w3.org/2000/svg" width="40" height="40" viewBox="0 0 40 40">
<title>th-microphone</title>
<path fill="#37352f" d="M20 26.588c4.67 0 8.471-3.8 8.471-8.471v-5.647c0-4.35-3.305-7.9-7.529-8.375v-0.096h-1.882v0.096c-4.224 0.474-7.529 4.024-7.529 8.375v5.647c0 4.67 3.8 8.471 8.471 8.471zM15.294 7.876v3.654h1.882v-4.984c0.587-0.28 1.216-0.471 1.882-0.567v5.551h1.882v-5.551c0.666 0.096 1.295 0.284 1.882 0.567v4.984h1.882v-3.654c1.161 1.188 1.882 2.807 1.882 4.595v0.941h-13.176v-0.941c0-1.788 0.721-3.409 1.882-4.595zM13.412 15.294h13.176v2.824c0 3.633-2.955 6.588-6.588 6.588s-6.588-2.955-6.588-6.588v-2.824zM32.235 17.176v6.118c0 3.891-3.8 7.059-8.471 7.059h-2.824v5.647h-1.882v-5.647h-2.824c-4.67 0-8.471-3.168-8.471-7.059v-6.118h1.882v6.118c0 2.856 2.955 5.176 6.588 5.176h7.529c3.633 0 6.588-2.321 6.588-5.176v-6.118h1.882z"></path>
</svg>
