<!-- Generated by IcoMoon.io -->
<svg version="1.1" xmlns="http://www.w3.org/2000/svg" width="40" height="40" viewBox="0 0 40 40">
<title>th-pin-alt</title>
<path fill="#37352f" d="M14.172 24.497l1.331 1.331-9.897 9.896-1.331-1.331 9.897-9.896zM36 15.712l-4.126 1.199-6.931 9.875 0.808 2.104-2.927 2.927-14.641-14.641 2.929-2.929 2.104 0.808 9.873-6.931 0.467-1.608 0.73-2.517 11.714 11.712zM32.42 14.793l-7.213-7.211-0.309 1.067-0.184 0.636-11.238 7.887-1.899-0.728-0.732 0.732 11.979 11.979 0.732-0.734-0.367-0.964-0.36-0.936 0.578-0.821 7.309-10.417 0.636-0.184 1.067-0.307z"></path>
</svg>
