<!-- Generated by IcoMoon.io -->
<svg version="1.1" xmlns="http://www.w3.org/2000/svg" width="40" height="40" viewBox="0 0 40 40">
<title>th-pencil-alt</title>
<path fill="#37352f" d="M35.057 7.469l-2.641-2.641c-1.065-1.065-2.927-1.065-3.994 0l-14.185 14.185-3.241 9.952 9.88-3.322 14.182-14.182c0.533-0.533 0.826-1.242 0.826-1.997s-0.294-1.463-0.826-1.995zM14.511 24.25l1.201-3.684 3.614 3.612-3.656 1.229-1.16-1.158zM16.86 19.051l7.503-7.503 3.972 3.972-7.503 7.503-3.972-3.972zM25.694 10.217l1.372-1.372 3.972 3.972-1.372 1.372-3.972-3.972zM33.726 10.131l-1.355 1.357-3.972-3.972 1.355-1.357c0.358-0.356 0.977-0.356 1.331 0l2.641 2.641c0.177 0.179 0.275 0.414 0.275 0.666s-0.098 0.486-0.275 0.664zM32.235 18.118h1.882v17.882h-30.118v-28.235h14.118v1.882h-12.235v24.471h26.353v-16z"></path>
</svg>
