<!-- Generated by IcoMoon.io -->
<svg version="1.1" xmlns="http://www.w3.org/2000/svg" width="40" height="40" viewBox="0 0 40 40">
<title>th-shopping-cart-full</title>
<path fill="#37352f" d="M9.176 27.529c-1.816 0-3.294 1.478-3.294 3.294s1.478 3.294 3.294 3.294 3.294-1.478 3.294-3.294-1.478-3.294-3.294-3.294zM9.176 32.235c-0.777 0-1.412-0.634-1.412-1.412s0.634-1.412 1.412-1.412 1.412 0.634 1.412 1.412-0.634 1.412-1.412 1.412zM25.176 27.529c-1.816 0-3.294 1.478-3.294 3.294s1.478 3.294 3.294 3.294 3.294-1.478 3.294-3.294-1.478-3.294-3.294-3.294zM25.176 32.235c-0.777 0-1.412-0.634-1.412-1.412s0.634-1.412 1.412-1.412 1.412 0.634 1.412 1.412-0.634 1.412-1.412 1.412zM29.167 7.765l-0.567 3.765h-24.74l2.103 15.127h22.426l1.963-14.118 0.435-2.891h5.212v-1.882h-6.833zM26.75 24.774h-19.147l-1.581-11.362h22.31l-1.581 11.362zM24.706 22.824h-15.059v-7.471h1.882v5.589h11.294v-5.591h1.882v7.473zM11.529 9.589h-1.882v-3.706h15.059v3.588h-1.882v-1.705h-11.294v1.824z"></path>
</svg>
