<!-- Generated by IcoMoon.io -->
<svg version="1.1" xmlns="http://www.w3.org/2000/svg" width="40" height="40" viewBox="0 0 40 40">
<title>th-sharethis</title>
<path fill="#37352f" d="M35.059 28.787c0 3.469-2.805 6.272-6.274 6.272-3.471 0-6.274-2.803-6.274-6.272 0-0.218 0.019-0.452 0.038-0.666l-7.059-3.531c-1.116 1.039-2.628 1.687-4.275 1.687-3.471 0-6.274-2.803-6.274-6.276 0-3.469 2.803-6.272 6.274-6.272 1.647 0 3.157 0.646 4.275 1.685l7.059-3.528c-0.019-0.218-0.038-0.452-0.038-0.666 0-3.473 2.803-6.276 6.274-6.276 3.469 0 6.274 2.803 6.274 6.276 0 3.471-2.805 6.274-6.274 6.274-1.647 0-3.157-0.648-4.275-1.687l-7.059 3.529c0.019 0.216 0.040 0.452 0.040 0.666 0 0.216-0.021 0.452-0.040 0.666l7.059 3.533c1.118-1.041 2.63-1.688 4.275-1.688 3.469-0.004 6.274 2.799 6.274 6.274z"></path>
</svg>
