<!-- Generated by IcoMoon.io -->
<svg version="1.1" xmlns="http://www.w3.org/2000/svg" width="40" height="40" viewBox="0 0 40 40">
<title>th-signal</title>
<path fill="#37352f" d="M25.647 11.529c0-3.113-2.534-5.647-5.647-5.647s-5.647 2.534-5.647 5.647c0 2.792 2.040 5.101 4.706 5.551v15.155h-3.765v1.882h9.412v-1.882h-3.765v-15.155c2.665-0.45 4.706-2.76 4.706-5.551zM16.235 11.529c0-2.076 1.688-3.765 3.765-3.765s3.765 1.688 3.765 3.765-1.688 3.765-3.765 3.765-3.765-1.688-3.765-3.765zM12.478 8.126c-0.712 0.866-1.086 1.89-1.086 2.963s0.375 2.097 1.086 2.963l-1.457 1.197c-0.988-1.207-1.512-2.645-1.512-4.158s0.523-2.953 1.512-4.158l1.457 1.193zM7.765 11.091c0 2.031 0.728 3.945 2.106 5.53l-1.419 1.235c-1.658-1.905-2.569-4.311-2.569-6.765s0.911-4.86 2.569-6.767l1.419 1.235c-1.378 1.587-2.106 3.501-2.106 5.532zM30.49 11.091c0 1.515-0.523 2.952-1.513 4.158l-1.455-1.195c0.712-0.866 1.086-1.89 1.086-2.963s-0.375-2.097-1.086-2.963l1.455-1.195c0.99 1.205 1.513 2.643 1.513 4.158zM34.118 11.091c0 2.456-0.911 4.86-2.569 6.767l-1.419-1.235c1.378-1.589 2.106-3.501 2.106-5.532s-0.728-3.945-2.106-5.53l1.419-1.235c1.658 1.905 2.569 4.309 2.569 6.765z"></path>
</svg>
