<!-- Generated by IcoMoon.io -->
<svg version="1.1" xmlns="http://www.w3.org/2000/svg" width="40" height="40" viewBox="0 0 40 40">
<title>th-trash</title>
<path fill="#37352f" d="M24.584 7.795c-0.41-1.636-1.88-2.854-3.642-2.854-1.754 0-3.219 1.21-3.635 2.854h-6.718v1.882h20.706v-1.882h-6.711zM20.941 6.824c0.719 0 1.327 0.416 1.647 0.971h-3.262c0.324-0.57 0.913-0.971 1.615-0.971zM28.471 11.529h1.882v19.795c0 1.557-1.267 2.824-2.824 2.824h-13.176c-1.557 0-2.824-1.267-2.824-2.824v-19.795h1.882v19.795c0 0.518 0.422 0.941 0.941 0.941h13.176c0.52 0 0.941-0.424 0.941-0.941v-19.795zM19.059 13.412v15.059h-1.882v-15.059h1.882zM24.706 13.412v15.059h-1.882v-15.059h1.882z"></path>
</svg>
