<!-- Generated by IcoMoon.io -->
<svg version="1.1" xmlns="http://www.w3.org/2000/svg" width="40" height="40" viewBox="0 0 40 40">
<title>th-themify-favicon-alt</title>
<path fill="#37352f" d="M15.475 7.482c-18.044 5.64-10.007 18.104-7.64 19.336 4.011 2.080-2.168 6.728-2.168 6.728s5.303-1.551 12.055-2.244c8.117-0.828 17.235-2.010 18.056-6.526 1.504-8.269-4.512-22.225-20.301-17.293zM22.824 13.412c1.039 0 1.882 0.841 1.882 1.882 0 1.037-0.843 1.882-1.882 1.882-1.041 0-1.882-0.845-1.882-1.882 0-1.041 0.841-1.882 1.882-1.882zM13.412 14.353c1.039 0 1.882 0.845 1.882 1.882s-0.843 1.882-1.882 1.882-1.882-0.845-1.882-1.882 0.843-1.882 1.882-1.882zM10.965 21.788c6.024 5.391 18.071-1.788 18.071-1.788-10.432 11.561-18.071 1.788-18.071 1.788z"></path>
</svg>
