<!-- Generated by IcoMoon.io -->
<svg version="1.1" xmlns="http://www.w3.org/2000/svg" width="40" height="40" viewBox="0 0 40 40">
<title>th-user</title>
<path fill="#37352f" d="M36 35.036c-0.119-5.058-5.229-9.41-12.275-10.558v-2.586c0.926-0.89 1.585-2.272 2.016-3.45 0.625-0.312 1.175-1.009 1.495-1.944 0.448-1.295 0.275-2.49-0.388-3.066 0.053-0.448 0.087-0.905 0.028-1.361-0.149-1.248 0.122-1.954 0.365-2.575 0.2-0.521 0.431-1.112 0.2-1.779-0.832-2.396-3.251-3.716-6.81-3.716l-0.497 0.009c-2.472 0.088-3.213 1.129-3.71 2.099-0.062 0.117-0.145 0.275-0.145 0.284-3.223 0.288-3.194 2.953-3.17 5.096l0.006 0.695c0 0.386 0.017 0.789 0.049 1.203-0.8 0.565-0.949 1.892-0.337 3.27 0.348 0.781 0.851 1.372 1.41 1.679 0.457 1.269 1.176 2.767 2.219 3.699v2.415c-7.149 1.109-12.337 5.472-12.456 10.588l-0.023 0.964h32.043l-0.021-0.964zM5.984 34.118c0.738-3.942 5.382-7.192 11.524-7.913l0.83-0.098v-5.018l-0.407-0.282c-0.74-0.512-1.489-1.783-2.052-3.484l-0.156-0.529-0.553-0.096c-0.1-0.036-0.392-0.288-0.621-0.806-0.141-0.316-0.196-0.587-0.211-0.781l0.96 0.269-0.181-1.41c-0.079-0.621-0.12-1.225-0.12-1.788l-0.006-0.715c-0.028-2.524 0.096-3.076 1.455-3.198 1.026-0.090 1.416-0.845 1.649-1.297 0.282-0.55 0.527-1.022 2.108-1.080l0.427-0.008c1.56 0 4.29 0.318 5.024 2.413 0 0.081-0.098 0.333-0.169 0.518-0.273 0.704-0.685 1.768-0.478 3.488 0.045 0.354-0.013 0.798-0.075 1.271l-0.168 1.515 0.83-0.090c0.015 0.196-0.008 0.506-0.141 0.888-0.183 0.544-0.456 0.824-0.446 0.855h-0.678l-0.215 0.644c-0.533 1.606-1.224 2.818-1.899 3.328l-0.373 0.282v5.131l0.824 0.104c6.044 0.755 10.618 3.996 11.351 7.891h-28.034z"></path>
</svg>
