<!-- Generated by IcoMoon.io -->
<svg version="1.1" xmlns="http://www.w3.org/2000/svg" width="40" height="40" viewBox="0 0 40 40">
<title>th-unlink</title>
<path fill="#37352f" d="M8.017 13.673l2.639-4.87c2.044-3.102 6.14-3.944 9.169-1.937l-1.037 1.568c-2.163-1.429-5.088-0.828-6.52 1.335l-2.639 4.87c-1.47 2.236-0.873 5.161 1.293 6.59 2.152 1.416 4.536 1.030 6.236-1.013l1.446 1.207c-1.397 1.679-3.189 2.545-5.041 2.545-1.233 0-2.49-0.384-3.678-1.167-3.031-2.003-3.87-6.097-1.867-9.128zM11.607 19.123l-0.245 0.243 1.327 1.335 0.247-0.245c1.835-1.835 4.821-1.835 6.654 0s1.835 4.821 0 6.654l-5.69 5.692c-1.835 1.835-4.821 1.835-6.654 0s-1.835-4.821 0-6.654l1.992-1.993-1.331-1.331-1.992 1.995c-2.568 2.568-2.568 6.748 0 9.316 1.286 1.286 2.97 1.926 4.659 1.926s3.373-0.642 4.659-1.926l5.69-5.692c2.568-2.568 2.568-6.748 0-9.316-2.573-2.573-6.752-2.568-9.316-0.004zM24.636 17.176h7.669v-1.882h-7.669v1.882zM23.755 19.712l3.672 2.121 0.941-1.628-3.672-2.121-0.941 1.628zM24.235 6.176l-2.974 5.152 1.628 0.941 2.974-5.15-1.628-0.943zM33.867 9.129l-0.941-1.628-9.397 5.425 0.941 1.628 9.397-5.425z"></path>
</svg>
