<!-- Generated by IcoMoon.io -->
<svg version="1.1" xmlns="http://www.w3.org/2000/svg" width="40" height="40" viewBox="0 0 40 40">
<title>th-widget</title>
<path fill="#37352f" d="M7.765 4h1.882v1.882h-1.882v-1.882zM13.412 4h-1.882v1.882h1.882v-1.882zM17.176 4h-1.882v1.882h1.882v-1.882zM20.941 4h-1.882v1.882h1.882v-1.882zM24.706 4h-1.882v1.882h1.882v-1.882zM28.471 4h-1.882v1.882h1.882v-1.882zM30.353 5.882h1.882v-1.882h-1.882v1.882zM7.765 36h1.882v-1.882h-1.882v1.882zM11.529 36h1.882v-1.882h-1.882v1.882zM15.294 36h1.882v-1.882h-1.882v1.882zM19.059 36h1.882v-1.882h-1.882v1.882zM22.824 36h1.882v-1.882h-1.882v1.882zM26.588 36h1.882v-1.882h-1.882v1.882zM30.353 36h1.882v-1.882h-1.882v1.882zM34.118 4v1.882h1.882v-1.882h-1.882zM34.118 9.647h1.882v-1.882h-1.882v1.882zM34.118 13.412h1.882v-1.882h-1.882v1.882zM34.118 17.176h1.882v-1.882h-1.882v1.882zM34.118 20.941h1.882v-1.882h-1.882v1.882zM34.118 24.706h1.882v-1.882h-1.882v1.882zM34.118 28.471h1.882v-1.882h-1.882v1.882zM34.118 32.235h1.882v-1.882h-1.882v1.882zM34.118 36h1.882v-1.882h-1.882v1.882zM4 5.882h1.882v-1.882h-1.882v1.882zM4 9.647h1.882v-1.882h-1.882v1.882zM4 13.412h1.882v-1.882h-1.882v1.882zM4 17.176h1.882v-1.882h-1.882v1.882zM4 20.941h1.882v-1.882h-1.882v1.882zM4 24.706h1.882v-1.882h-1.882v1.882zM4 28.471h1.882v-1.882h-1.882v1.882zM4 32.235h1.882v-1.882h-1.882v1.882zM4 36h1.882v-1.882h-1.882v1.882zM29.346 18.925c0.040 0.352 0.066 0.71 0.066 1.075s-0.026 0.723-0.066 1.075l-0.070 0.617-2.709 0.813c-0.047 0.122-0.096 0.243-0.151 0.363l1.338 2.488-0.386 0.486c-0.448 0.563-0.962 1.077-1.527 1.527l-0.486 0.388-2.488-1.34c-0.119 0.053-0.241 0.104-0.363 0.151l-0.811 2.707-0.616 0.072c-0.354 0.041-0.713 0.066-1.079 0.066s-0.725-0.024-1.079-0.066l-0.616-0.072-0.813-2.707c-0.122-0.047-0.243-0.096-0.363-0.151l-2.49 1.338-0.486-0.386c-0.563-0.448-1.077-0.962-1.525-1.527l-0.384-0.484 1.338-2.488c-0.055-0.122-0.104-0.243-0.151-0.365l-2.709-0.813-0.070-0.617c-0.040-0.352-0.066-0.71-0.066-1.075s0.026-0.723 0.066-1.075l0.070-0.617 2.709-0.813c0.047-0.122 0.096-0.243 0.151-0.363l-1.338-2.488 0.384-0.486c0.446-0.561 0.96-1.075 1.527-1.527l0.486-0.388 2.488 1.34c0.119-0.055 0.241-0.104 0.363-0.151l0.813-2.707 0.616-0.072c0.708-0.083 1.449-0.083 2.157 0l0.616 0.072 0.813 2.707c0.122 0.045 0.243 0.096 0.363 0.151l2.488-1.34 0.486 0.388c0.563 0.448 1.077 0.962 1.525 1.525l0.386 0.486-1.338 2.49c0.053 0.119 0.104 0.241 0.151 0.361l2.709 0.815 0.070 0.617zM27.529 20c0-0.085-0.002-0.169-0.006-0.254l-2.453-0.736-0.143-0.489c-0.098-0.329-0.232-0.655-0.397-0.964l-0.239-0.446 1.208-2.246c-0.117-0.124-0.237-0.247-0.363-0.363l-2.244 1.208-0.45-0.241c-0.309-0.166-0.634-0.301-0.966-0.399l-0.489-0.145-0.734-2.449c-0.168-0.008-0.341-0.008-0.508 0l-0.734 2.451-0.489 0.145c-0.335 0.1-0.659 0.233-0.964 0.397l-0.446 0.243-2.248-1.21c-0.126 0.119-0.247 0.239-0.363 0.363l1.208 2.246-0.241 0.446c-0.166 0.309-0.301 0.632-0.399 0.968l-0.145 0.488-2.449 0.734c-0.004 0.085-0.006 0.169-0.006 0.254s0.002 0.169 0.006 0.252l2.451 0.736 0.145 0.489c0.098 0.333 0.233 0.659 0.399 0.968l0.239 0.446-1.208 2.246c0.117 0.124 0.237 0.247 0.363 0.363l2.246-1.208 0.446 0.239c0.309 0.166 0.634 0.301 0.966 0.399l0.489 0.145 0.736 2.451c0.168 0.008 0.341 0.008 0.508 0l0.736-2.449 0.488-0.145c0.333-0.098 0.659-0.233 0.968-0.399l0.446-0.239 2.244 1.208c0.126-0.117 0.247-0.239 0.363-0.363l-1.208-2.246 0.239-0.446c0.166-0.309 0.301-0.632 0.399-0.968l0.145-0.488 2.449-0.736c0.004-0.087 0.006-0.171 0.006-0.256z"></path>
</svg>
