<!-- Generated by IcoMoon.io -->
<svg version="1.1" xmlns="http://www.w3.org/2000/svg" width="24" height="24" viewBox="0 0 24 24">
<title>thumbs_up_down</title>
<path fill="#37352f" d="M20.4 10.387q0.525 0 0.863 0.356t0.337 0.844v5.212q0 0.525-0.337 0.863l-3.975 3.938-0.637-0.637q-0.263-0.263-0.263-0.638 0.112-0.525 0.319-1.5t0.244-1.237h-4.163q-0.337 0-0.563-0.225t-0.225-0.563v-1.013q0-0.112 0.075-0.412l1.837-4.238q0.338-0.75 1.088-0.75h5.4zM12 7.2v1.012q0 0.113-0.075 0.413l-1.838 4.237q-0.337 0.75-1.087 0.75h-5.4q-0.525 0-0.862-0.356t-0.337-0.844v-5.212q0-0.525 0.337-0.862l3.975-3.938 0.638 0.637q0.262 0.262 0.262 0.637-0.113 0.525-0.319 1.5t-0.244 1.238h4.162q0.338 0 0.563 0.225t0.225 0.563z"></path>
</svg>
