<!-- Generated by IcoMoon.io -->
<svg version="1.1" xmlns="http://www.w3.org/2000/svg" width="24" height="24" viewBox="0 0 24 24">
<title>touch_app</title>
<path fill="#37352f" d="M17.475 15.112q0.712 0.338 0.712 1.088v0.15l-0.6 4.238q-0.038 0.45-0.375 0.731t-0.788 0.281h-5.437q-0.488 0-0.825-0.337l-3.975-3.975 0.637-0.637q0.263-0.263 0.638-0.263 0.038 0 0.094 0.019t0.094 0.019l2.737 0.563v-8.587q0-0.525 0.356-0.863t0.844-0.338 0.844 0.338 0.356 0.863v4.8h0.637q0.113 0 0.413 0.075zM9.6 11.4q-1.613-1.050-1.613-3 0-1.5 1.050-2.55t2.55-1.050 2.55 1.050 1.050 2.55q0 1.988-1.575 3v-3q0-0.825-0.6-1.406t-1.425-0.581-1.406 0.581-0.581 1.406v3z"></path>
</svg>
