<!-- Generated by IcoMoon.io -->
<svg version="1.1" xmlns="http://www.w3.org/2000/svg" width="40" height="40" viewBox="0 0 40 40">
<title>ul-analysis</title>
<path fill="#37352f" d="M30.358 14.976c-0.194-0.195-0.462-0.315-0.758-0.315s-0.564 0.121-0.758 0.315v0l-6.71 6.72-4.576-4.586c-0.194-0.195-0.462-0.315-0.758-0.315s-0.564 0.121-0.758 0.315l-6.4 6.4c-0.195 0.194-0.315 0.462-0.315 0.758s0.121 0.564 0.315 0.758v0c0.194 0.195 0.462 0.315 0.758 0.315s0.564-0.121 0.758-0.315v0l5.642-5.654 4.576 4.586c0.194 0.195 0.462 0.315 0.758 0.315s0.564-0.121 0.758-0.315l7.466-7.466c0.195-0.194 0.315-0.462 0.315-0.758s-0.121-0.564-0.315-0.758v0z"></path>
</svg>
