<!-- Generated by IcoMoon.io -->
<svg version="1.1" xmlns="http://www.w3.org/2000/svg" width="40" height="40" viewBox="0 0 40 40">
<title>ul-arrow-circle-left</title>
<path fill="#37352f" d="M16.042 19.242c-0.094 0.098-0.17 0.215-0.222 0.345l-0.002 0.007c-0.050 0.12-0.080 0.259-0.080 0.406s0.030 0.286 0.082 0.412l-0.002-0.007c0.054 0.137 0.13 0.254 0.224 0.352v0l3.2 3.2c0.194 0.194 0.462 0.314 0.758 0.314 0.591 0 1.071-0.479 1.071-1.071 0-0.296-0.12-0.563-0.314-0.758v0l-1.386-1.376h3.83c0.589 0 1.066-0.478 1.066-1.066s-0.478-1.066-1.066-1.066v0h-3.83l1.386-1.376c0.195-0.194 0.315-0.462 0.315-0.758s-0.121-0.564-0.315-0.758v0c-0.194-0.195-0.462-0.315-0.758-0.315s-0.564 0.121-0.758 0.315v0zM9.334 20c0 5.891 4.776 10.666 10.666 10.666s10.666-4.776 10.666-10.666c0-5.891-4.776-10.666-10.666-10.666v0c-5.891 0-10.666 4.776-10.666 10.666v0zM28.534 20c0 4.713-3.821 8.534-8.534 8.534s-8.534-3.821-8.534-8.534c0-4.713 3.821-8.534 8.534-8.534v0c4.713 0 8.534 3.821 8.534 8.534v0z"></path>
</svg>
