<!-- Generated by IcoMoon.io -->
<svg version="1.1" xmlns="http://www.w3.org/2000/svg" width="40" height="40" viewBox="0 0 40 40">
<title>ul-arrow-down</title>
<path fill="#37352f" d="M26.090 19.242c-0.194-0.195-0.462-0.315-0.758-0.315s-0.564 0.121-0.758 0.315v0l-3.51 3.52v-8.096c0-0.589-0.478-1.066-1.066-1.066s-1.066 0.478-1.066 1.066v0 8.096l-3.51-3.52c-0.194-0.194-0.462-0.314-0.758-0.314-0.591 0-1.071 0.479-1.071 1.071 0 0.296 0.12 0.563 0.314 0.758l5.334 5.334c0.098 0.094 0.215 0.17 0.345 0.222l0.007 0.002c0.119 0.054 0.258 0.086 0.406 0.086s0.286-0.031 0.412-0.088l-0.006 0.002c0.137-0.054 0.254-0.13 0.352-0.224v0l5.334-5.334c0.195-0.194 0.315-0.462 0.315-0.758s-0.121-0.564-0.315-0.758v0z"></path>
</svg>
