<!-- Generated by IcoMoon.io -->
<svg version="1.1" xmlns="http://www.w3.org/2000/svg" width="40" height="40" viewBox="0 0 40 40">
<title>ul-ambulance</title>
<path fill="#37352f" d="M18.4 17.334h-1.066v-1.066c0-0.589-0.478-1.066-1.066-1.066s-1.066 0.478-1.066 1.066v0 1.066h-1.066c-0.589 0-1.066 0.478-1.066 1.066s0.478 1.066 1.066 1.066v0h1.066v1.066c0 0.589 0.478 1.066 1.066 1.066s1.066-0.478 1.066-1.066v0-1.066h1.066c0.589 0 1.066-0.478 1.066-1.066s-0.478-1.066-1.066-1.066v0zM31.658 19.626l-0.064-0.118c-0.020-0.057-0.046-0.106-0.076-0.151l0.002 0.002-2.56-3.414c-0.59-0.781-1.517-1.28-2.56-1.28v0h-2.134v-1.066c0-1.767-1.433-3.2-3.2-3.2v0h-9.6c-1.767 0-3.2 1.433-3.2 3.2v0 11.734c0 0.589 0.478 1.066 1.066 1.066v0h1.066c0 1.767 1.433 3.2 3.2 3.2s3.2-1.433 3.2-3.2v0h6.4c0 1.767 1.433 3.2 3.2 3.2s3.2-1.433 3.2-3.2v0h1.066c0.589 0 1.066-0.478 1.066-1.066v0-5.334c-0.002-0.135-0.030-0.263-0.078-0.381l0.002 0.007zM13.6 27.466c-0.589 0-1.066-0.478-1.066-1.066s0.478-1.066 1.066-1.066c0.589 0 1.066 0.478 1.066 1.066v0c0 0.589-0.478 1.066-1.066 1.066v0zM22.134 24.266h-6.166c-0.587-0.645-1.43-1.048-2.368-1.048s-1.781 0.403-2.366 1.045l-0.002 0.002h-0.832v-10.666c0-0.589 0.478-1.066 1.066-1.066v0h9.6c0.589 0 1.066 0.478 1.066 1.066v0zM24.266 16.8h2.134c0.348 0 0.657 0.166 0.851 0.424l0.002 0.002 1.28 1.706h-4.266zM26.4 27.466c-0.589 0-1.066-0.478-1.066-1.066s0.478-1.066 1.066-1.066c0.589 0 1.066 0.478 1.066 1.066v0c0 0.589-0.478 1.066-1.066 1.066v0zM29.6 24.266h-0.832c-0.587-0.646-1.431-1.049-2.369-1.049-0.821 0-1.569 0.309-2.135 0.817l0.003-0.002v-2.966h5.334z"></path>
</svg>
