<!-- Generated by IcoMoon.io -->
<svg version="1.1" xmlns="http://www.w3.org/2000/svg" width="40" height="40" viewBox="0 0 40 40">
<title>ul-archway</title>
<path fill="#37352f" d="M30.666 28.534h-1.066v-12.8h1.066c0.589 0 1.066-0.478 1.066-1.066s-0.478-1.066-1.066-1.066v0h-1.066v-3.2c0-0.589-0.478-1.066-1.066-1.066v0h-17.066c-0.589 0-1.066 0.478-1.066 1.066v0 3.2h-1.066c-0.589 0-1.066 0.478-1.066 1.066s0.478 1.066 1.066 1.066v0h1.066v12.8h-1.066c-0.589 0-1.066 0.478-1.066 1.066s0.478 1.066 1.066 1.066v0h21.334c0.589 0 1.066-0.478 1.066-1.066s-0.478-1.066-1.066-1.066v0zM23.2 28.534h-6.4v-3.766c0-0.005 0-0.010 0-0.015 0-2.393 1.269-4.49 3.171-5.654l0.029-0.017c1.931 1.181 3.2 3.278 3.2 5.67 0 0.006 0 0.010 0 0.016v-0.001zM27.466 28.534h-2.134v-3.766c0-0.011 0-0.025 0-0.038 0-3.406-1.954-6.357-4.803-7.79l-0.050-0.023c-0.14-0.072-0.305-0.114-0.48-0.114s-0.34 0.042-0.486 0.117l0.006-0.003c-2.899 1.456-4.854 4.406-4.854 7.813 0 0.014 0 0.026 0 0.040v-0.002 3.766h-2.134v-12.8h14.934zM27.466 13.6h-14.934v-2.134h14.934z"></path>
</svg>
