<!-- Generated by IcoMoon.io -->
<svg version="1.1" xmlns="http://www.w3.org/2000/svg" width="40" height="40" viewBox="0 0 40 40">
<title>ul-book-reader</title>
<path fill="#37352f" d="M28.726 18.070c-0.679-0.129-1.462-0.203-2.26-0.203-0.023 0-0.046 0-0.069 0h0.003c-0.448 0-0.886 0-1.322 0.086-0.546-0.722-1.225-1.314-2.005-1.743l-0.033-0.017c0.661-0.72 1.066-1.683 1.066-2.741v0c0-2.274-1.843-4.118-4.118-4.118s-4.118 1.843-4.118 4.118v0c0.001 1.058 0.406 2.022 1.070 2.744l-0.002-0.003c-0.809 0.45-1.486 1.035-2.026 1.734l-0.011 0.015c-0.416-0.074-0.854-0.074-1.302-0.074-0.825 0.003-1.628 0.085-2.406 0.237l0.080-0.013c-0.501 0.094-0.875 0.528-0.875 1.050 0 0.006 0 0.012 0 0.018v-0.001 8.8c0 0.001 0 0.001 0 0.002 0 0.329 0.149 0.622 0.382 0.818l0.002 0.002c0.184 0.156 0.425 0.251 0.687 0.251 0.066 0 0.131-0.006 0.194-0.018l-0.006 0.001c0.576-0.131 1.243-0.216 1.927-0.234h0.014c0.003 0 0.007 0 0.011 0 2.16 0 4.168 0.649 5.841 1.763l-0.038-0.024 0.138 0.054c0.132 0.058 0.286 0.094 0.447 0.096h0.001c0.107-0.002 0.21-0.021 0.305-0.055l-0.006 0.002h0.074l0.138-0.054c1.647-1.116 3.679-1.782 5.866-1.782 0.008 0 0.015 0 0.023 0h-0.001c0.689 0.003 1.359 0.073 2.008 0.203l-0.066-0.011c0.056 0.010 0.121 0.017 0.187 0.017 0.262 0 0.503-0.095 0.689-0.253l-0.002 0.002c0.235-0.197 0.384-0.491 0.384-0.819 0-0.001 0-0.002 0-0.002v0-8.8c-0.002-0.519-0.375-0.951-0.868-1.044l-0.006-0.001zM20 11.466c1.031 0.078 1.838 0.934 1.838 1.978s-0.807 1.901-1.832 1.978l-0.006 0.001c-1.031-0.078-1.838-0.934-1.838-1.978s0.807-1.901 1.832-1.978l0.006-0.001zM18.934 27.818c-1.564-0.741-3.398-1.173-5.334-1.174v0c-0.352 0-0.704 0-1.066 0.054v-6.698c0.342-0.041 0.74-0.064 1.142-0.064 0.546 0 1.082 0.042 1.604 0.125l-0.058-0.007h0.118c1.355 0.254 2.562 0.73 3.641 1.392l-0.046-0.026zM20 19.574c-0.406-0.24-0.89-0.483-1.39-0.694l-0.082-0.031h-0.064c-0.352-0.138-0.704-0.278-1.066-0.384 0.708-0.567 1.614-0.915 2.6-0.928h0.003c0.986 0.006 1.893 0.347 2.612 0.914l-0.009-0.007c-0.998 0.315-1.859 0.698-2.666 1.165l0.064-0.034zM27.466 26.698c-0.371-0.039-0.802-0.062-1.237-0.062-1.873 0-3.648 0.416-5.239 1.161l0.076-0.032v-6.4c1.034-0.619 2.244-1.075 3.534-1.293l0.062-0.009h0.214c0.463-0.076 0.997-0.119 1.541-0.119 0.37 0 0.736 0.020 1.095 0.059l-0.045-0.004z"></path>
</svg>
