<!-- Generated by IcoMoon.io -->
<svg version="1.1" xmlns="http://www.w3.org/2000/svg" width="40" height="40" viewBox="0 0 40 40">
<title>ul-ban</title>
<path fill="#37352f" d="M20 9.334c-5.891 0-10.666 4.776-10.666 10.666s4.776 10.666 10.666 10.666c5.891 0 10.666-4.776 10.666-10.666v0c0-5.891-4.776-10.666-10.666-10.666v0zM20 28.534c-4.713 0-8.534-3.821-8.534-8.534v0c0-0.003 0-0.007 0-0.010 0-1.977 0.679-3.795 1.816-5.234l-0.014 0.018 11.958 11.958c-1.422 1.124-3.239 1.802-5.216 1.802-0.004 0-0.007 0-0.011 0h0.001zM26.73 25.226l-11.958-11.958c1.422-1.124 3.239-1.802 5.216-1.802 0.004 0 0.007 0 0.011 0h-0.001c4.713 0 8.534 3.821 8.534 8.534v0c0 0.003 0 0.007 0 0.010 0 1.977-0.679 3.795-1.816 5.234l0.014-0.018z"></path>
</svg>
