<!-- Generated by IcoMoon.io -->
<svg version="1.1" xmlns="http://www.w3.org/2000/svg" width="40" height="40" viewBox="0 0 40 40">
<title>ul-bag-slash</title>
<path fill="#37352f" d="M27.466 13.6h-3.2v-1.066c0-1.178-0.955-2.134-2.134-2.134v0h-4.266c-0.002 0-0.006 0-0.009 0-0.23 0-0.45 0.039-0.656 0.111l0.014-0.004c-0.432 0.143-0.738 0.543-0.738 1.015 0 0.122 0.020 0.238 0.058 0.347l-0.002-0.007c0.148 0.424 0.544 0.722 1.010 0.722 0.116 0 0.227-0.018 0.331-0.053l-0.007 0.002h4.266v1.066h-1.43c-0.589 0-1.066 0.478-1.066 1.066s0.478 1.066 1.066 1.066v0h6.762c0.589 0 1.066 0.478 1.066 1.066v0 1.366l-2.742 0.918c-0.427 0.146-0.729 0.543-0.729 1.012 0 0.122 0.021 0.241 0.059 0.35l-0.002-0.007c0.146 0.426 0.544 0.726 1.010 0.726 0.001 0 0.002 0 0.003 0v0c0.122-0.002 0.24-0.022 0.35-0.056l-0.009 0.002 2.058-0.694v3.146c0 0.589 0.478 1.066 1.066 1.066s1.066-0.478 1.066-1.066v0-6.762c0-1.767-1.433-3.2-3.2-3.2v0zM11.158 9.642c-0.194-0.194-0.462-0.314-0.758-0.314-0.591 0-1.071 0.479-1.071 1.071 0 0.296 0.12 0.563 0.314 0.758v0l2.486 2.442c-1.584 0.208-2.794 1.55-2.794 3.174 0 0.009 0 0.018 0 0.027v-0.002 9.6c0 1.767 1.433 3.2 3.2 3.2v0h14.934c0.203-0.006 0.398-0.029 0.586-0.068l-0.022 0.004 0.81 0.822c0.194 0.195 0.462 0.315 0.758 0.315s0.564-0.121 0.758-0.315v0c0.195-0.194 0.315-0.462 0.315-0.758s-0.121-0.564-0.315-0.758v0zM11.466 16.8c0-0.589 0.478-1.066 1.066-1.066v0h1.696l4.266 4.266h-1.526l-5.504-1.834zM12.534 27.466c-0.589 0-1.066-0.478-1.066-1.066v0-5.984l4.992 1.718c0.051 0.007 0.11 0.011 0.17 0.011s0.119-0.004 0.178-0.012l-0.006 0.001h3.83l5.334 5.334z"></path>
</svg>
