<!-- Generated by IcoMoon.io -->
<svg version="1.1" xmlns="http://www.w3.org/2000/svg" width="40" height="40" viewBox="0 0 40 40">
<title>ul-backpack</title>
<path fill="#37352f" d="M21.066 17.866h-2.134c-0.589 0-1.066 0.478-1.066 1.066s0.478 1.066 1.066 1.066v0h2.134c0.589 0 1.066-0.478 1.066-1.066s-0.478-1.066-1.066-1.066v0zM26.4 17.866c-0.006-1.972-1.35-3.628-3.17-4.11l-0.030-0.006v-1.216c0-1.767-1.433-3.2-3.2-3.2s-3.2 1.433-3.2 3.2v0 1.216c-1.85 0.49-3.194 2.146-3.2 4.117v0.001c-2.357 0-4.266 1.91-4.266 4.266v0 3.2c0 1.767 1.433 3.2 3.2 3.2v0h1.258c0.451 1.25 1.626 2.13 3.007 2.134h6.401c1.382-0.004 2.557-0.882 3.001-2.111l0.007-0.022h1.258c1.767 0 3.2-1.433 3.2-3.2v0-3.2c0-2.357-1.91-4.266-4.266-4.266v0zM13.6 26.4h-1.066c-0.589 0-1.066-0.478-1.066-1.066v0-3.2c0-1.178 0.955-2.134 2.134-2.134v0zM18.934 12.534c0-0.589 0.478-1.066 1.066-1.066s1.066 0.478 1.066 1.066v0 1.066h-2.134zM24.266 27.466c0 0.589-0.478 1.066-1.066 1.066v0h-6.4c-0.589 0-1.066-0.478-1.066-1.066v0-1.066c0-1.178 0.955-2.134 2.134-2.134v0h4.266c1.178 0 2.134 0.955 2.134 2.134v0zM24.266 22.73c-0.609-0.372-1.345-0.594-2.132-0.598h-4.268c-0.789 0.003-1.525 0.225-2.152 0.608l0.018-0.010v-4.864c0-1.178 0.955-2.134 2.134-2.134v0h4.266c1.178 0 2.134 0.955 2.134 2.134v0zM28.534 25.334c0 0.589-0.478 1.066-1.066 1.066v0h-1.066v-6.4c1.178 0 2.134 0.955 2.134 2.134v0z"></path>
</svg>
