<!-- Generated by IcoMoon.io -->
<svg version="1.1" xmlns="http://www.w3.org/2000/svg" width="40" height="40" viewBox="0 0 40 40">
<title>ul-baby-carriage</title>
<path fill="#37352f" d="M27.466 24.266c-1.767 0-3.2 1.433-3.2 3.2s1.433 3.2 3.2 3.2c1.767 0 3.2-1.433 3.2-3.2v0c0-1.767-1.433-3.2-3.2-3.2v0zM27.466 28.534c-0.589 0-1.066-0.478-1.066-1.066s0.478-1.066 1.066-1.066c0.589 0 1.066 0.478 1.066 1.066v0c0 0.589-0.478 1.066-1.066 1.066v0zM16.8 24.266c-1.767 0-3.2 1.433-3.2 3.2s1.433 3.2 3.2 3.2c1.767 0 3.2-1.433 3.2-3.2v0c0-1.767-1.433-3.2-3.2-3.2v0zM16.8 28.534c-0.589 0-1.066-0.478-1.066-1.066s0.478-1.066 1.066-1.066c0.589 0 1.066 0.478 1.066 1.066v0c0 0.589-0.478 1.066-1.066 1.066v0zM30.666 16.266c-0.006-3.826-3.106-6.927-6.933-6.934h-0.534c-0.589 0-1.066 0.478-1.066 1.066v0 5.334h-6.912l-1.334-3.574c-0.156-0.409-0.544-0.694-0.999-0.694-0.002 0-0.002 0-0.004 0h-2.485c-0.589 0-1.066 0.478-1.066 1.066s0.478 1.066 1.066 1.066v0h1.75l1.334 3.594 0.544 1.462v0.096c1.007 2.622 3.505 4.449 6.429 4.449 0.027 0 0.055 0 0.082-0.001h3.196c0.003 0 0.007 0 0.010 0 3.823 0 6.922-3.099 6.922-6.922 0-0.004 0-0.007 0-0.011v0.001zM27.126 19.658c-0.864 0.87-2.061 1.408-3.383 1.408-0.003 0-0.006 0-0.010 0h-3.199c-0.004 0-0.010 0-0.014 0-1.991 0-3.698-1.221-4.411-2.955l-0.011-0.032c-0.002-0.010-0.003-0.021-0.003-0.032s0.002-0.022 0.004-0.033v0.001l-0.086-0.15h12.246c-0.246 0.703-0.633 1.303-1.13 1.791l-0.001 0.001zM24.266 15.734v-4.266c2.253 0.242 4.025 2.014 4.265 4.246l0.002 0.021z"></path>
</svg>
