<!-- Generated by IcoMoon.io -->
<svg version="1.1" xmlns="http://www.w3.org/2000/svg" width="40" height="40" viewBox="0 0 40 40">
<title>ul-bright</title>
<path fill="#37352f" d="M20 15.734c-2.357 0-4.266 1.91-4.266 4.266s1.91 4.266 4.266 4.266c2.357 0 4.266-1.91 4.266-4.266v0c0-2.357-1.91-4.266-4.266-4.266v0zM20 22.134c-1.178 0-2.134-0.955-2.134-2.134s0.955-2.134 2.134-2.134c1.178 0 2.134 0.955 2.134 2.134v0c0 1.178-0.955 2.134-2.134 2.134v0zM30.358 19.242l-2.506-2.442v-3.584c0-0.589-0.478-1.066-1.066-1.066v0h-3.53l-2.496-2.506c-0.194-0.195-0.462-0.315-0.758-0.315s-0.564 0.121-0.758 0.315v0l-2.442 2.506h-3.584c-0.589 0-1.066 0.478-1.066 1.066v0 3.584l-2.506 2.442c-0.195 0.194-0.315 0.462-0.315 0.758s0.121 0.564 0.315 0.758v0l2.506 2.496v3.53c0 0.589 0.478 1.066 1.066 1.066v0h3.584l2.496 2.506c0.194 0.195 0.462 0.315 0.758 0.315s0.564-0.121 0.758-0.315v0l2.496-2.506h3.53c0.589 0 1.066-0.478 1.066-1.066v0-3.53l2.506-2.496c0.179-0.19 0.29-0.448 0.29-0.731 0-0.31-0.132-0.588-0.342-0.783l-0.001-0.001zM26.038 22.058c-0.197 0.193-0.318 0.461-0.32 0.757v2.902h-2.902c-0.297 0.002-0.565 0.123-0.757 0.32l-2.059 2.059-2.058-2.058c-0.193-0.197-0.461-0.318-0.757-0.32h-2.902v-2.902c-0.002-0.297-0.123-0.565-0.32-0.757l-2.059-2.059 2.058-2.058c0.197-0.193 0.318-0.461 0.32-0.757v-2.902h2.902c0.297-0.002 0.565-0.123 0.757-0.32l2.059-2.059 2.058 2.058c0.193 0.197 0.461 0.318 0.757 0.32h2.902v2.902c0.002 0.297 0.123 0.565 0.32 0.757l2.059 2.059z"></path>
</svg>
