<!-- Generated by IcoMoon.io -->
<svg version="1.1" xmlns="http://www.w3.org/2000/svg" width="40" height="40" viewBox="0 0 40 40">
<title>ul-bring-front</title>
<path fill="#37352f" d="M19.242 25.654l-1.376 1.376v-12.362c0-0.589-0.478-1.066-1.066-1.066s-1.066 0.478-1.066 1.066v0 12.374l-1.376-1.386c-0.194-0.195-0.462-0.315-0.758-0.315s-0.564 0.121-0.758 0.315v0c-0.192 0.193-0.31 0.458-0.31 0.752s0.118 0.559 0.31 0.752l3.2 3.2c0.194 0.195 0.462 0.315 0.758 0.315s0.564-0.121 0.758-0.315l3.2-3.2c0.192-0.193 0.31-0.458 0.31-0.752s-0.118-0.559-0.31-0.752v0c-0.194-0.195-0.462-0.315-0.758-0.315s-0.564 0.121-0.758 0.315v0zM30.666 10.4c0-0.589-0.478-1.066-1.066-1.066v0h-19.2c-0.589 0-1.066 0.478-1.066 1.066v0 6.4c0 0.589 0.478 1.066 1.066 1.066v0h2.134c0.589 0 1.066-0.478 1.066-1.066s-0.478-1.066-1.066-1.066v0h-1.066v-4.266h17.066v4.266h-7.466c-0.589 0-1.066 0.478-1.066 1.066s0.478 1.066 1.066 1.066v0h1.066v5.334c0 0.589 0.478 1.066 1.066 1.066v0h6.4c0.589 0 1.066-0.478 1.066-1.066v0-6.4zM28.534 22.134h-4.266v-4.266h4.266z"></path>
</svg>
