<!-- Generated by IcoMoon.io -->
<svg version="1.1" xmlns="http://www.w3.org/2000/svg" width="40" height="40" viewBox="0 0 40 40">
<title>ul-comment-medical</title>
<path fill="#37352f" d="M20 9.334c-5.891 0-10.666 4.776-10.666 10.666v0c0 0.012 0 0.026 0 0.040 0 2.558 0.91 4.903 2.425 6.73l-0.014-0.018-2.134 2.134c-0.19 0.193-0.307 0.457-0.307 0.749 0 0.15 0.030 0.291 0.086 0.421l-0.002-0.007c0.174 0.369 0.542 0.619 0.969 0.619 0.016 0 0.031 0 0.047-0.001h9.598c5.891 0 10.666-4.776 10.666-10.666s-4.776-10.666-10.666-10.666v0zM20 28.534h-7.030l0.992-0.992c0.192-0.193 0.31-0.458 0.31-0.752s-0.118-0.559-0.31-0.752v0c-1.546-1.545-2.502-3.679-2.502-6.038 0-4.713 3.821-8.534 8.534-8.534s8.534 3.821 8.534 8.534c0 4.71-3.817 8.53-8.526 8.534v0zM22.134 18.934h-1.066v-1.066c0-0.589-0.478-1.066-1.066-1.066s-1.066 0.478-1.066 1.066v0 1.066h-1.066c-0.589 0-1.066 0.478-1.066 1.066s0.478 1.066 1.066 1.066v0h1.066v1.066c0 0.589 0.478 1.066 1.066 1.066s1.066-0.478 1.066-1.066v0-1.066h1.066c0.589 0 1.066-0.478 1.066-1.066s-0.478-1.066-1.066-1.066v0z"></path>
</svg>
