<!-- Generated by IcoMoon.io -->
<svg version="1.1" xmlns="http://www.w3.org/2000/svg" width="40" height="40" viewBox="0 0 40 40">
<title>ul-calender</title>
<path fill="#37352f" d="M27.466 11.466h-2.134v-1.066c0-0.589-0.478-1.066-1.066-1.066s-1.066 0.478-1.066 1.066v0 1.066h-6.4v-1.066c0-0.589-0.478-1.066-1.066-1.066s-1.066 0.478-1.066 1.066v0 1.066h-2.134c-1.767 0-3.2 1.433-3.2 3.2v0 12.8c0 1.767 1.433 3.2 3.2 3.2v0h14.934c1.767 0 3.2-1.433 3.2-3.2v0-12.8c0-1.767-1.433-3.2-3.2-3.2v0zM28.534 27.466c0 0.589-0.478 1.066-1.066 1.066v0h-14.934c-0.589 0-1.066-0.478-1.066-1.066v0-7.466h17.066zM28.534 17.866h-17.066v-3.2c0-0.589 0.478-1.066 1.066-1.066v0h2.134v1.066c0 0.589 0.478 1.066 1.066 1.066s1.066-0.478 1.066-1.066v0-1.066h6.4v1.066c0 0.589 0.478 1.066 1.066 1.066s1.066-0.478 1.066-1.066v0-1.066h2.134c0.589 0 1.066 0.478 1.066 1.066v0z"></path>
</svg>
