<!-- Generated by IcoMoon.io -->
<svg version="1.1" xmlns="http://www.w3.org/2000/svg" width="40" height="40" viewBox="0 0 40 40">
<title>ul-clapper-board</title>
<path fill="#37352f" d="M27.466 9.334h-14.934c-1.767 0-3.2 1.433-3.2 3.2v0 14.934c0 1.767 1.433 3.2 3.2 3.2v0h14.934c1.767 0 3.2-1.433 3.2-3.2v0-14.934c0-1.767-1.433-3.2-3.2-3.2v0zM24.362 11.466l-4.266 4.266h-4.458l4.266-4.266zM11.466 12.534c0-0.589 0.478-1.066 1.066-1.066v0h4.362l-4.266 4.266h-1.162zM28.534 27.466c0 0.589-0.478 1.066-1.066 1.066v0h-14.934c-0.589 0-1.066-0.478-1.066-1.066v0-9.6h17.066zM28.534 15.734h-5.43l4.266-4.266h0.096c0.589 0 1.066 0.478 1.066 1.066v0z"></path>
</svg>
