<!-- Generated by IcoMoon.io -->
<svg version="1.1" xmlns="http://www.w3.org/2000/svg" width="40" height="40" viewBox="0 0 40 40">
<title>ul-cloud-heart</title>
<path fill="#37352f" d="M26.848 15.434c-1.18-2.663-3.8-4.487-6.846-4.487-3.784 0-6.91 2.815-7.4 6.465l-0.004 0.038c-1.884 0.47-3.257 2.147-3.257 4.146 0 1.85 1.177 3.424 2.822 4.016l0.030 0.010c0.102 0.033 0.219 0.052 0.341 0.054h0.001c0.051 0.009 0.11 0.014 0.17 0.014 0.597 0 1.080-0.484 1.080-1.080 0-0.536-0.391-0.982-0.903-1.066l-0.006-0.001c-0.808-0.298-1.38-1.050-1.408-1.938v-0.003c0-1.178 0.955-2.134 2.134-2.134v0c0.589 0 1.066-0.478 1.066-1.066v0c0.006-2.941 2.392-5.322 5.334-5.322 2.326 0 4.305 1.49 5.034 3.567l0.011 0.038c0.126 0.37 0.44 0.646 0.826 0.714l0.006 0.001c1.506 0.28 2.63 1.583 2.63 3.149 0 1.163-0.621 2.182-1.549 2.742l-0.014 0.008c-0.323 0.188-0.537 0.533-0.537 0.928 0 0.591 0.479 1.070 1.070 1.070 0.196 0 0.38-0.053 0.538-0.145l-0.005 0.002c1.599-0.941 2.656-2.654 2.656-4.613 0-0.002 0-0.004 0-0.006v0c-0.007-2.399-1.598-4.426-3.781-5.089l-0.038-0.010zM20 20.886c-0.419-0.222-0.916-0.351-1.442-0.351-0.865 0-1.649 0.35-2.216 0.917v0c-0.562 0.565-0.908 1.343-0.908 2.202s0.347 1.638 0.908 2.203v0l2.902 2.902c0.194 0.195 0.462 0.315 0.758 0.315s0.564-0.121 0.758-0.315l2.902-2.902c0.562-0.565 0.908-1.343 0.908-2.202s-0.347-1.638-0.908-2.203v0c-0.567-0.566-1.35-0.917-2.216-0.917-0.527 0-1.024 0.13-1.46 0.36l0.017-0.008zM22.134 24.342l-2.134 2.134-2.134-2.134c-0.178-0.171-0.288-0.411-0.288-0.677 0-0.006 0-0.012 0-0.018v0.001c0-0.004 0-0.008 0-0.012 0-0.267 0.11-0.509 0.288-0.681v0c0.178-0.178 0.422-0.287 0.694-0.287s0.516 0.11 0.694 0.287v0c0.194 0.195 0.462 0.315 0.758 0.315s0.564-0.121 0.758-0.315v0c0.18-0.172 0.424-0.278 0.694-0.278s0.514 0.106 0.694 0.278v0c0.178 0.173 0.288 0.414 0.288 0.681 0 0.004 0 0.009 0 0.013v-0.001c-0.001 0.274-0.12 0.522-0.309 0.693l-0.001 0.001z"></path>
</svg>
