<!-- Generated by IcoMoon.io -->
<svg version="1.1" xmlns="http://www.w3.org/2000/svg" width="40" height="40" viewBox="0 0 40 40">
<title>ul-compress</title>
<path fill="#37352f" d="M24.266 16.8h5.334c0.589 0 1.066-0.478 1.066-1.066s-0.478-1.066-1.066-1.066v0h-4.266v-4.266c0-0.589-0.478-1.066-1.066-1.066s-1.066 0.478-1.066 1.066v0 5.334c0 0.589 0.478 1.066 1.066 1.066v0zM15.734 23.2h-5.334c-0.589 0-1.066 0.478-1.066 1.066s0.478 1.066 1.066 1.066v0h4.266v4.266c0 0.589 0.478 1.066 1.066 1.066s1.066-0.478 1.066-1.066v0-5.334c0-0.589-0.478-1.066-1.066-1.066v0zM15.734 9.334c-0.589 0-1.066 0.478-1.066 1.066v0 4.266h-4.266c-0.589 0-1.066 0.478-1.066 1.066s0.478 1.066 1.066 1.066v0h5.334c0.589 0 1.066-0.478 1.066-1.066v0-5.334c0-0.589-0.478-1.066-1.066-1.066v0zM29.6 23.2h-5.334c-0.589 0-1.066 0.478-1.066 1.066v0 5.334c0 0.589 0.478 1.066 1.066 1.066s1.066-0.478 1.066-1.066v0-4.266h4.266c0.589 0 1.066-0.478 1.066-1.066s-0.478-1.066-1.066-1.066v0z"></path>
</svg>
