<!-- Generated by IcoMoon.io -->
<svg version="1.1" xmlns="http://www.w3.org/2000/svg" width="40" height="40" viewBox="0 0 40 40">
<title>ul-chart-down</title>
<path fill="#37352f" d="M29.6 18.934c-0.589 0-1.066 0.478-1.066 1.066v0 2.762l-6.71-6.72c-0.194-0.195-0.462-0.315-0.758-0.315s-0.564 0.121-0.758 0.315v0l-3.51 3.52-5.642-5.654c-0.194-0.194-0.462-0.314-0.758-0.314-0.591 0-1.071 0.479-1.071 1.071 0 0.296 0.12 0.563 0.314 0.758l6.4 6.4c0.194 0.195 0.462 0.315 0.758 0.315s0.564-0.121 0.758-0.315v0l3.51-3.52 5.962 5.962h-2.762c-0.589 0-1.066 0.478-1.066 1.066s0.478 1.066 1.066 1.066v0h5.334c0.147-0.002 0.286-0.033 0.412-0.088l-0.007 0.002c0.262-0.11 0.466-0.314 0.574-0.569l0.002-0.007c0.052-0.119 0.083-0.258 0.086-0.405v-5.334c0-0.589-0.478-1.066-1.066-1.066v0z"></path>
</svg>
