<!-- Generated by IcoMoon.io -->
<svg version="1.1" xmlns="http://www.w3.org/2000/svg" width="40" height="40" viewBox="0 0 40 40">
<title>ul-comment-alt-heart</title>
<path fill="#37352f" d="M20 13.974c-0.434-0.227-0.949-0.361-1.494-0.361-0.888 0-1.693 0.353-2.282 0.926l0.001-0.001c-0.578 0.579-0.936 1.378-0.936 2.262s0.358 1.682 0.936 2.262v0l3.018 3.072c0.194 0.195 0.462 0.315 0.758 0.315s0.564-0.121 0.758-0.315l3.018-3.018c0.578-0.579 0.936-1.378 0.936-2.262s-0.358-1.682-0.936-2.262v0c-0.593-0.594-1.412-0.962-2.318-0.962-0.531 0-1.034 0.126-1.477 0.351l0.018-0.009zM22.262 17.558l-2.262 2.262-2.262-2.262c-0.195-0.194-0.315-0.462-0.315-0.758s0.121-0.564 0.315-0.758v0c0.193-0.192 0.458-0.31 0.752-0.31s0.559 0.118 0.752 0.31v0c0.194 0.195 0.462 0.315 0.758 0.315s0.564-0.121 0.758-0.315v0c0.193-0.192 0.458-0.31 0.752-0.31s0.559 0.118 0.752 0.31v0c0.195 0.194 0.315 0.462 0.315 0.758s-0.121 0.564-0.315 0.758v0zM27.466 9.334h-14.934c-1.767 0-3.2 1.433-3.2 3.2v0 10.666c0 1.767 1.433 3.2 3.2 3.2v0h12.362l3.946 3.958c0.193 0.191 0.458 0.31 0.751 0.31 0.002 0 0.004 0 0.006 0v0c0.007 0 0.015 0 0.023 0 0.139 0 0.27-0.031 0.388-0.088l-0.006 0.002c0.39-0.163 0.659-0.541 0.662-0.981v-17.067c0-1.767-1.433-3.2-3.2-3.2v0zM28.534 27.030l-2.442-2.454c-0.193-0.191-0.458-0.31-0.751-0.31-0.002 0-0.004 0-0.006 0h-12.8c-0.589 0-1.066-0.478-1.066-1.066v0-10.666c0-0.589 0.478-1.066 1.066-1.066v0h14.934c0.589 0 1.066 0.478 1.066 1.066v0z"></path>
</svg>
