<!-- Generated by IcoMoon.io -->
<svg version="1.1" xmlns="http://www.w3.org/2000/svg" width="40" height="40" viewBox="0 0 40 40">
<title>ul-comment-redo</title>
<path fill="#37352f" d="M27.466 22.134c-0.081-0.022-0.173-0.034-0.268-0.034-0.495 0-0.911 0.338-1.032 0.794l-0.002 0.007c-0.846 3.26-3.762 5.63-7.232 5.632h-5.963l0.682-0.672c0.192-0.193 0.31-0.458 0.31-0.752s-0.118-0.559-0.31-0.752v0c-1.358-1.352-2.198-3.223-2.198-5.29 0-3.464 2.359-6.378 5.559-7.221l0.052-0.012c0.465-0.122 0.802-0.539 0.802-1.034 0-0.59-0.478-1.069-1.069-1.069-0.094 0-0.186 0.012-0.274 0.035l0.007-0.002c-4.162 1.112-7.178 4.849-7.178 9.29 0 2.282 0.796 4.378 2.126 6.025l-0.014-0.018-1.824 1.782c-0.19 0.193-0.307 0.457-0.307 0.749 0 0.15 0.030 0.291 0.086 0.421l-0.002-0.007c0.163 0.39 0.541 0.659 0.981 0.662h8.534c0.002 0 0.004 0 0.006 0 4.449 0 8.191-3.026 9.28-7.133l0.015-0.067c0.027-0.090 0.042-0.192 0.042-0.298 0-0.498-0.342-0.917-0.803-1.034l-0.007-0.002zM29.6 9.334c-0.589 0-1.066 0.478-1.066 1.066v0 0c-0.881-0.668-1.996-1.070-3.204-1.070-2.946 0-5.334 2.388-5.334 5.334s2.388 5.334 5.334 5.334c1.354 0 2.59-0.504 3.53-1.335l-0.006 0.005c0.286-0.194 0.472-0.518 0.472-0.886 0-0.589-0.478-1.066-1.066-1.066-0.314 0-0.596 0.135-0.791 0.351l-0.001 0.001c-0.561 0.497-1.303 0.8-2.117 0.8-1.767 0-3.2-1.433-3.2-3.2 0-1.762 1.423-3.19 3.182-3.2h0.001c0.944 0.002 1.791 0.412 2.376 1.064l0.002 0.003h-1.312c-0.589 0-1.066 0.478-1.066 1.066s0.478 1.066 1.066 1.066v0h3.2c0.589 0 1.066-0.478 1.066-1.066v0-3.2c0-0.589-0.478-1.066-1.066-1.066v0z"></path>
</svg>
