<!-- Generated by IcoMoon.io -->
<svg version="1.1" xmlns="http://www.w3.org/2000/svg" width="40" height="40" viewBox="0 0 40 40">
<title>ul-clipboard</title>
<path fill="#37352f" d="M25.334 11.466h-1.258c-0.451-1.25-1.626-2.13-3.007-2.134h-2.134c-1.382 0.004-2.557 0.882-3.001 2.111l-0.007 0.022h-1.258c-1.767 0-3.2 1.433-3.2 3.2v0 12.8c0 1.767 1.433 3.2 3.2 3.2v0h10.666c1.767 0 3.2-1.433 3.2-3.2v0-12.8c0-1.767-1.433-3.2-3.2-3.2v0zM17.866 12.534c0-0.589 0.478-1.066 1.066-1.066v0h2.134c0.589 0 1.066 0.478 1.066 1.066v0 1.066h-4.266zM26.4 27.466c0 0.589-0.478 1.066-1.066 1.066v0h-10.666c-0.589 0-1.066-0.478-1.066-1.066v0-12.8c0-0.589 0.478-1.066 1.066-1.066v0h1.066v1.066c0 0.589 0.478 1.066 1.066 1.066v0h6.4c0.589 0 1.066-0.478 1.066-1.066v0-1.066h1.066c0.589 0 1.066 0.478 1.066 1.066v0z"></path>
</svg>
