<!-- Generated by IcoMoon.io -->
<svg version="1.1" xmlns="http://www.w3.org/2000/svg" width="40" height="40" viewBox="0 0 40 40">
<title>ul-comment-alt-share</title>
<path fill="#37352f" d="M28 14.134h-5.334c-0.589 0-1.066 0.478-1.066 1.066s0.478 1.066 1.066 1.066v0h5.334c0.589 0 1.066 0.478 1.066 1.066v0 10.368l-1.674-1.546c-0.19-0.178-0.445-0.287-0.725-0.288h-9.334c-0.589 0-1.066-0.478-1.066-1.066v0-2.134c0-0.589-0.478-1.066-1.066-1.066s-1.066 0.478-1.066 1.066v0 2.134c0 1.767 1.433 3.2 3.2 3.2v0h8.918l3.2 2.912c0.19 0.178 0.445 0.287 0.725 0.288v0c0.154-0.002 0.301-0.033 0.434-0.088l-0.008 0.003c0.38-0.169 0.64-0.543 0.64-0.978 0-0.002 0-0.002 0-0.004v0-12.8c0 0 0 0 0 0 0-1.767-1.433-3.2-3.2-3.2-0.015 0-0.030 0-0.045 0h0.002zM17.334 19.466c0.002 0 0.005 0 0.007 0 1.178 0 2.134-0.955 2.134-2.134s-0.955-2.134-2.134-2.134c-0.476 0-0.916 0.156-1.271 0.42l0.006-0.004-1.866-0.854 2.038-0.938c0.304 0.187 0.671 0.302 1.065 0.31h0.002c1.178 0 2.134-0.955 2.134-2.134s-0.955-2.134-2.134-2.134c-1.178 0-2.134 0.955-2.134 2.134v0l-2.026 0.928c-0.321-0.231-0.718-0.377-1.148-0.394h-0.004c-1.178 0-2.134 0.955-2.134 2.134s0.955 2.134 2.134 2.134v0c0.364-0.004 0.705-0.098 1.003-0.262l-0.011 0.006 2.23 1.066c0.142 1.052 1.033 1.854 2.112 1.856v0z"></path>
</svg>
