<!-- Generated by IcoMoon.io -->
<svg version="1.1" xmlns="http://www.w3.org/2000/svg" width="40" height="40" viewBox="0 0 40 40">
<title>ul-comment-alt-lock</title>
<path fill="#37352f" d="M20 17.866v-2.134c-0.004-1.382-0.882-2.557-2.111-3.001l-0.022-0.007v-1.258c0-1.767-1.433-3.2-3.2-3.2s-3.2 1.433-3.2 3.2v0 1.258c-1.25 0.451-2.13 1.626-2.134 3.007v2.134c0 1.767 1.433 3.2 3.2 3.2v0h4.266c1.767 0 3.2-1.433 3.2-3.2v0zM13.6 11.466c0-0.589 0.478-1.066 1.066-1.066s1.066 0.478 1.066 1.066v0 1.066h-2.134zM11.466 17.866v-2.134c0-0.589 0.478-1.066 1.066-1.066v0h4.266c0.589 0 1.066 0.478 1.066 1.066v0 2.134c0 0.589-0.478 1.066-1.066 1.066v0h-4.266c-0.589 0-1.066-0.478-1.066-1.066v0zM27.466 14.666h-4.266c-0.589 0-1.066 0.478-1.066 1.066s0.478 1.066 1.066 1.066v0h4.266c0.589 0 1.066 0.478 1.066 1.066v0 10.368l-1.674-1.546c-0.19-0.178-0.445-0.287-0.725-0.288h-9.334c-0.589 0-1.066-0.478-1.066-1.066v0-1.066c0-0.589-0.478-1.066-1.066-1.066s-1.066 0.478-1.066 1.066v0 1.066c0 1.767 1.433 3.2 3.2 3.2v0h8.918l3.2 2.912c0.179 0.169 0.418 0.276 0.68 0.288h0.002c0.154-0.002 0.301-0.033 0.434-0.088l-0.008 0.003c0.38-0.169 0.64-0.543 0.64-0.978 0-0.002 0-0.002 0-0.004v0-12.8c0-1.767-1.433-3.2-3.2-3.2v0z"></path>
</svg>
