<!-- Generated by IcoMoon.io -->
<svg version="1.1" xmlns="http://www.w3.org/2000/svg" width="40" height="40" viewBox="0 0 40 40">
<title>ul-cloud-slash</title>
<path fill="#37352f" d="M25.024 24.576v0l-13.866-13.866c-0.194-0.194-0.462-0.314-0.758-0.314-0.591 0-1.071 0.479-1.071 1.071 0 0.296 0.12 0.563 0.314 0.758v0l3.584 3.574c-0.297 0.619-0.517 1.338-0.625 2.094l-0.005 0.040c-2.063 0.324-3.622 2.089-3.622 4.218 0 2.357 1.91 4.266 4.266 4.266 0.126 0 0.251-0.006 0.374-0.016l-0.016 0.001h10.23l2.88 2.89c0.194 0.195 0.462 0.315 0.758 0.315s0.564-0.121 0.758-0.315v0c0.195-0.194 0.315-0.462 0.315-0.758s-0.121-0.564-0.315-0.758v0zM13.6 24.266c-1.178 0-2.134-0.955-2.134-2.134s0.955-2.134 2.134-2.134v0c0.589 0 1.066-0.478 1.066-1.066v0c0.001-0.529 0.079-1.039 0.223-1.521l-0.010 0.038 6.816 6.816zM26.848 15.968c-1.177-2.67-3.798-4.499-6.848-4.502v0c-0.010 0-0.022 0-0.034 0-0.875 0-1.714 0.157-2.49 0.443l0.050-0.016c-0.373 0.171-0.627 0.542-0.627 0.972 0 0.589 0.478 1.066 1.066 1.066 0.094 0 0.186-0.012 0.272-0.035l-0.007 0.002c0.519-0.19 1.118-0.298 1.743-0.298 0.010 0 0.019 0 0.029 0h-0.002c2.329 0.002 4.309 1.496 5.034 3.578l0.011 0.038c0.126 0.37 0.44 0.646 0.826 0.714l0.006 0.001c1.511 0.274 2.642 1.581 2.642 3.151 0 0.741-0.252 1.423-0.674 1.966l0.006-0.007c-0.143 0.18-0.23 0.41-0.23 0.661 0 0.336 0.155 0.635 0.398 0.831l0.002 0.002c0.179 0.145 0.41 0.233 0.661 0.234v0c0.337-0.002 0.636-0.158 0.83-0.403l0.002-0.002c0.706-0.896 1.133-2.042 1.133-3.286 0-2.398-1.583-4.427-3.762-5.098l-0.038-0.010z"></path>
</svg>
