<!-- Generated by IcoMoon.io -->
<svg version="1.1" xmlns="http://www.w3.org/2000/svg" width="40" height="40" viewBox="0 0 40 40">
<title>ul-cloud-share</title>
<path fill="#37352f" d="M22.666 23.2c1.178 0 2.134-0.955 2.134-2.134s-0.955-2.134-2.134-2.134c-1.178 0-2.134 0.955-2.134 2.134v0l-2.026 0.928c-0.33-0.221-0.737-0.352-1.174-0.352v0c-1.178 0-2.134 0.955-2.134 2.134s0.955 2.134 2.134 2.134v0c0 0 0.001 0 0.001 0 0.36 0 0.698-0.095 0.99-0.261l-0.010 0.005 2.24 1.066c0.127 1.068 1.027 1.888 2.119 1.888 1.178 0 2.134-0.955 2.134-2.134s-0.955-2.134-2.134-2.134c-0.477 0-0.917 0.156-1.271 0.42l0.006-0.004-1.866-0.854 2.038-0.938c0.284 0.15 0.621 0.238 0.978 0.238 0.038 0 0.077-0.001 0.115-0.003h-0.006zM26.848 14.902c-1.18-2.663-3.8-4.487-6.846-4.487-3.784 0-6.91 2.815-7.4 6.465l-0.004 0.038c-1.884 0.47-3.257 2.147-3.257 4.146 0 1.85 1.177 3.424 2.822 4.016l0.030 0.010c0.102 0.033 0.219 0.052 0.341 0.054h0.001c0.051 0.009 0.11 0.014 0.17 0.014 0.597 0 1.080-0.484 1.080-1.080 0-0.536-0.391-0.982-0.903-1.066l-0.006-0.001c-0.808-0.298-1.38-1.050-1.408-1.938v-0.003c0-1.178 0.955-2.134 2.134-2.134v0c0.589 0 1.066-0.478 1.066-1.066v0c0.006-2.941 2.392-5.322 5.334-5.322 2.326 0 4.305 1.49 5.034 3.567l0.011 0.038c0.126 0.37 0.44 0.646 0.826 0.714l0.006 0.001c1.506 0.28 2.63 1.583 2.63 3.149 0 1.163-0.621 2.182-1.549 2.742l-0.014 0.008c-0.323 0.188-0.537 0.533-0.537 0.928 0 0.591 0.479 1.070 1.070 1.070 0.196 0 0.38-0.053 0.538-0.145l-0.005 0.002c1.599-0.941 2.656-2.654 2.656-4.613 0-0.002 0-0.004 0-0.006v0c-0.007-2.399-1.598-4.426-3.781-5.089l-0.038-0.010z"></path>
</svg>
