<!-- Generated by IcoMoon.io -->
<svg version="1.1" xmlns="http://www.w3.org/2000/svg" width="40" height="40" viewBox="0 0 40 40">
<title>ul-comment-block</title>
<path fill="#37352f" d="M27.466 22.134c-0.081-0.022-0.173-0.034-0.268-0.034-0.495 0-0.911 0.338-1.032 0.794l-0.002 0.007c-0.846 3.26-3.762 5.63-7.232 5.632h-5.963l0.682-0.672c0.192-0.193 0.31-0.458 0.31-0.752s-0.118-0.559-0.31-0.752v0c-1.358-1.352-2.198-3.223-2.198-5.29 0-3.464 2.359-6.378 5.559-7.221l0.052-0.012c0.465-0.122 0.802-0.539 0.802-1.034 0-0.59-0.478-1.069-1.069-1.069-0.094 0-0.186 0.012-0.274 0.035l0.007-0.002c-4.162 1.112-7.178 4.849-7.178 9.29 0 2.282 0.796 4.378 2.126 6.025l-0.014-0.018-1.824 1.782c-0.19 0.193-0.307 0.457-0.307 0.749 0 0.15 0.030 0.291 0.086 0.421l-0.002-0.007c0.163 0.39 0.541 0.659 0.981 0.662h8.534c0.002 0 0.004 0 0.006 0 4.449 0 8.191-3.026 9.28-7.133l0.015-0.067c0.027-0.090 0.042-0.192 0.042-0.298 0-0.498-0.342-0.917-0.803-1.034l-0.007-0.002zM29.11 10.89c-0.966-0.968-2.301-1.567-3.776-1.567-2.946 0-5.334 2.388-5.334 5.334s2.388 5.334 5.334 5.334c2.942 0 5.328-2.382 5.334-5.323v-0.001c0-0.003 0-0.006 0-0.010 0-1.47-0.595-2.802-1.558-3.766v0zM22.134 14.666c0-1.767 1.433-3.2 3.2-3.2v0c0.501 0.003 0.974 0.121 1.394 0.328l-0.018-0.008-4.266 4.266c-0.195-0.402-0.31-0.874-0.31-1.373 0-0.005 0-0.010 0-0.014v0.001zM27.594 16.928c-0.588 0.56-1.386 0.904-2.263 0.904-0.494 0-0.963-0.109-1.383-0.305l0.020 0.009 4.266-4.266c0.189 0.396 0.299 0.861 0.299 1.35 0 0.017 0 0.033 0 0.049v-0.002c-0.001 0.883-0.359 1.682-0.938 2.262v0z"></path>
</svg>
