<!-- Generated by IcoMoon.io -->
<svg version="1.1" xmlns="http://www.w3.org/2000/svg" width="40" height="40" viewBox="0 0 40 40">
<title>ul-calculator</title>
<path fill="#37352f" d="M20.758 25.642c-0.050-0.046-0.106-0.089-0.166-0.126l-0.005-0.002c-0.052-0.041-0.112-0.073-0.177-0.094l-0.004-0.002c-0.058-0.030-0.127-0.053-0.199-0.063l-0.003-0.001c-0.062-0.014-0.133-0.022-0.205-0.022-0.146 0-0.284 0.031-0.409 0.088l0.006-0.002c-0.269 0.099-0.477 0.307-0.574 0.57l-0.002 0.006c-0.054 0.112-0.086 0.243-0.086 0.382 0 0.008 0 0.016 0 0.024v-0.001c0 0.004 0 0.009 0 0.013 0 0.142 0.027 0.276 0.078 0.399l-0.002-0.007c0.066 0.134 0.144 0.25 0.236 0.354l-0.002-0.002c0.193 0.191 0.458 0.31 0.751 0.31 0.002 0 0.004 0 0.006 0v0c0.007 0 0.015 0 0.023 0 0.139 0 0.27-0.031 0.388-0.088l-0.006 0.002c0.135-0.058 0.252-0.133 0.353-0.225l-0.001 0.001c0.191-0.193 0.31-0.458 0.31-0.751 0-0.002 0-0.004 0-0.006v0c-0.002-0.147-0.033-0.286-0.088-0.412l0.002 0.007c-0.054-0.137-0.13-0.254-0.224-0.352v0zM16.32 21.248c-0.052-0.041-0.112-0.073-0.177-0.094l-0.004-0.002c-0.058-0.038-0.126-0.067-0.198-0.085l-0.004-0.001c-0.062-0.015-0.134-0.024-0.208-0.024s-0.146 0.009-0.214 0.025l0.006-0.002-0.192 0.064-0.192 0.096-0.16 0.128c-0.191 0.201-0.31 0.473-0.31 0.773 0 0.002 0 0.004 0 0.006v0c0 0.002 0 0.004 0 0.006 0 0.293 0.118 0.558 0.31 0.751v0c0.1 0.091 0.217 0.166 0.344 0.221l0.008 0.003c0.12 0.050 0.259 0.080 0.406 0.080 0.587 0 1.064-0.474 1.066-1.061v0c-0.004-0.294-0.122-0.561-0.31-0.758l0.001 0.001zM16.49 25.642c-0.098-0.094-0.215-0.17-0.345-0.222l-0.007-0.002c-0.131-0.062-0.286-0.099-0.449-0.099-0.060 0-0.119 0.005-0.176 0.014l0.006-0.001-0.192 0.064c-0.074 0.026-0.137 0.058-0.194 0.098l0.002-0.002c-0.060 0.042-0.112 0.084-0.162 0.13l0.002-0.002c-0.094 0.098-0.17 0.215-0.222 0.345l-0.002 0.007c-0.054 0.119-0.086 0.258-0.086 0.406s0.031 0.286 0.088 0.412l-0.002-0.006c0.058 0.135 0.133 0.252 0.225 0.353l-0.001-0.001c0.191 0.201 0.459 0.326 0.757 0.33h0.001c0.007 0 0.015 0 0.023 0 0.139 0 0.27-0.031 0.388-0.088l-0.006 0.002c0.135-0.058 0.252-0.133 0.353-0.225l-0.001 0.001c0.091-0.1 0.166-0.217 0.221-0.344l0.003-0.008c0.054-0.119 0.086-0.258 0.086-0.406s-0.031-0.286-0.088-0.412l0.002 0.006c-0.054-0.137-0.13-0.254-0.224-0.352v0zM19.594 21.152c-0.137 0.054-0.254 0.13-0.352 0.224v0c-0.188 0.197-0.305 0.463-0.31 0.757v0.001c0.003 0.587 0.479 1.062 1.066 1.062 0.146 0 0.286-0.030 0.412-0.082l-0.007 0.002c0.135-0.058 0.252-0.133 0.353-0.225l-0.001 0.001c0.191-0.193 0.31-0.458 0.31-0.751 0-0.002 0-0.004 0-0.006v0c-0.004-0.294-0.122-0.561-0.31-0.758l0.001 0.001c-0.193-0.19-0.457-0.307-0.749-0.307-0.15 0-0.291 0.030-0.421 0.086l0.007-0.002zM25.024 25.642c-0.1-0.091-0.217-0.166-0.344-0.221l-0.008-0.003c-0.122-0.053-0.264-0.083-0.414-0.083-0.292 0-0.557 0.118-0.75 0.307v0c-0.094 0.098-0.17 0.215-0.222 0.345l-0.002 0.007c-0.054 0.119-0.086 0.258-0.086 0.406s0.031 0.286 0.088 0.412l-0.002-0.006c0.058 0.135 0.133 0.252 0.225 0.353l-0.001-0.001c0.193 0.191 0.458 0.31 0.751 0.31 0.002 0 0.004 0 0.006 0v0c0.007 0 0.015 0 0.023 0 0.139 0 0.27-0.031 0.388-0.088l-0.006 0.002c0.135-0.058 0.252-0.133 0.353-0.225l-0.001 0.001c0.19-0.193 0.307-0.457 0.307-0.749 0-0.15-0.030-0.291-0.086-0.421l0.002 0.007c-0.054-0.137-0.13-0.254-0.224-0.352v0zM24.266 12.534h-8.534c-0.589 0-1.066 0.478-1.066 1.066v0 4.266c0 0.589 0.478 1.066 1.066 1.066v0h8.534c0.589 0 1.066-0.478 1.066-1.066v0-4.266c0-0.589-0.478-1.066-1.066-1.066v0zM23.2 16.8h-6.4v-2.134h6.4zM26.4 8.266h-12.8c-1.767 0-3.2 1.433-3.2 3.2v0 17.066c0 1.767 1.433 3.2 3.2 3.2v0h12.8c1.767 0 3.2-1.433 3.2-3.2v0-17.066c0-1.767-1.433-3.2-3.2-3.2v0zM27.466 28.534c0 0.589-0.478 1.066-1.066 1.066v0h-12.8c-0.589 0-1.066-0.478-1.066-1.066v0-17.066c0-0.589 0.478-1.066 1.066-1.066v0h12.8c0.589 0 1.066 0.478 1.066 1.066v0zM24.854 21.248c-0.052-0.041-0.112-0.073-0.177-0.094l-0.004-0.002c-0.058-0.030-0.127-0.053-0.199-0.063l-0.003-0.001c-0.062-0.015-0.134-0.024-0.208-0.024s-0.146 0.009-0.214 0.025l0.006-0.002-0.192 0.064-0.192 0.096-0.16 0.128c-0.188 0.197-0.305 0.463-0.31 0.757v0.001c0.003 0.587 0.479 1.062 1.066 1.062 0.146 0 0.286-0.030 0.412-0.082l-0.007 0.002c0.135-0.058 0.252-0.133 0.353-0.225l-0.001 0.001c0.191-0.193 0.31-0.458 0.31-0.751 0-0.002 0-0.004 0-0.006v0c-0.004-0.294-0.122-0.561-0.31-0.758l0.001 0.001z"></path>
</svg>
