<!-- Generated by IcoMoon.io -->
<svg version="1.1" xmlns="http://www.w3.org/2000/svg" width="40" height="40" viewBox="0 0 40 40">
<title>ul-check</title>
<path fill="#37352f" d="M27.158 14.89c-0.194-0.195-0.462-0.315-0.758-0.315s-0.564 0.121-0.758 0.315v0l-7.946 7.958-3.338-3.35c-0.196-0.19-0.463-0.306-0.758-0.306-0.602 0-1.090 0.488-1.090 1.090 0 0.308 0.127 0.586 0.333 0.784l4.096 4.096c0.194 0.195 0.462 0.315 0.758 0.315s0.564-0.121 0.758-0.315l8.704-8.704c0.211-0.195 0.343-0.474 0.343-0.784s-0.132-0.589-0.342-0.783l-0.001-0.001z"></path>
</svg>
