<!-- Generated by IcoMoon.io -->
<svg version="1.1" xmlns="http://www.w3.org/2000/svg" width="40" height="40" viewBox="0 0 40 40">
<title>ul-comment-upload</title>
<path fill="#37352f" d="M27.466 22.134c-0.081-0.022-0.173-0.034-0.268-0.034-0.495 0-0.911 0.338-1.032 0.794l-0.002 0.007c-0.846 3.26-3.762 5.63-7.232 5.632h-5.963l0.682-0.672c0.192-0.193 0.31-0.458 0.31-0.752s-0.118-0.559-0.31-0.752v0c-1.358-1.352-2.198-3.223-2.198-5.29 0-4.124 3.343-7.466 7.466-7.466 0.004 0 0.008 0 0.012 0h-0.001c0.589 0 1.066-0.478 1.066-1.066s-0.478-1.066-1.066-1.066v0c-5.288 0.018-9.569 4.309-9.569 9.6 0 2.277 0.792 4.368 2.116 6.014l-0.014-0.018-1.824 1.782c-0.19 0.193-0.307 0.457-0.307 0.749 0 0.15 0.030 0.291 0.086 0.421l-0.002-0.007c0.163 0.39 0.541 0.659 0.981 0.662h8.534c0.002 0 0.004 0 0.006 0 4.449 0 8.191-3.026 9.28-7.133l0.015-0.067c0.027-0.090 0.042-0.192 0.042-0.298 0-0.498-0.342-0.917-0.803-1.034l-0.007-0.002zM30.358 12.81l-3.2-3.2c-0.098-0.094-0.215-0.17-0.345-0.222l-0.007-0.002c-0.12-0.050-0.259-0.080-0.406-0.080s-0.286 0.030-0.412 0.082l0.007-0.002c-0.137 0.054-0.254 0.13-0.352 0.224v0l-3.2 3.2c-0.194 0.194-0.314 0.462-0.314 0.758 0 0.591 0.479 1.071 1.071 1.071 0.296 0 0.563-0.12 0.758-0.314v0l1.376-1.354v5.962c0 0.589 0.478 1.066 1.066 1.066s1.066-0.478 1.066-1.066v0-5.962l1.376 1.386c0.194 0.195 0.462 0.315 0.758 0.315s0.564-0.121 0.758-0.315v0c0.195-0.194 0.315-0.462 0.315-0.758s-0.121-0.564-0.315-0.758v0z"></path>
</svg>
