<!-- Generated by IcoMoon.io -->
<svg version="1.1" xmlns="http://www.w3.org/2000/svg" width="40" height="40" viewBox="0 0 40 40">
<title>ul-cloud-wifi</title>
<path fill="#37352f" d="M16.266 13.536c1.074-0.619 2.361-0.984 3.734-0.984s2.66 0.365 3.77 1.004l-0.037-0.019c0.154 0.090 0.338 0.144 0.534 0.144 0.394 0 0.739-0.214 0.924-0.534l0.002-0.005c0.087-0.151 0.139-0.333 0.139-0.526 0-0.393-0.213-0.736-0.529-0.922l-0.005-0.002c-1.38-0.794-3.035-1.263-4.8-1.263s-3.42 0.469-4.847 1.289l0.047-0.025c-0.322 0.188-0.534 0.531-0.534 0.924 0 0.194 0.051 0.375 0.142 0.532l-0.002-0.005c0.187 0.324 0.532 0.538 0.926 0.538 0.197 0 0.382-0.054 0.54-0.146l-0.005 0.002zM26.848 19.158c-0.127-0.298-0.256-0.547-0.4-0.786l0.016 0.028c-0.19-0.309-0.527-0.511-0.911-0.511-0.208 0-0.402 0.059-0.566 0.162l0.005-0.002c-0.306 0.191-0.507 0.526-0.507 0.908 0 0.205 0.058 0.396 0.158 0.558l-0.002-0.005c0.151 0.255 0.288 0.551 0.395 0.862l0.010 0.034c0.126 0.37 0.44 0.646 0.826 0.714l0.006 0.001c1.516 0.269 2.653 1.574 2.656 3.146v0c0 1.767-1.433 3.2-3.2 3.2v0h-12.096c-0.894-0.142-1.597-0.822-1.769-1.693l-0.002-0.014c-0.027-0.129-0.043-0.276-0.043-0.427 0-1.178 0.955-2.134 2.134-2.134 0.015 0 0.030 0 0.046 0.001h-0.002c0.589 0 1.066-0.478 1.066-1.066v0c0-0.003 0-0.008 0-0.012 0-0.974 0.266-1.886 0.728-2.668l-0.014 0.024c0.090-0.154 0.144-0.338 0.144-0.534 0-0.394-0.214-0.739-0.534-0.924l-0.005-0.002c-0.151-0.087-0.333-0.139-0.526-0.139-0.393 0-0.736 0.213-0.922 0.529l-0.002 0.005c-0.477 0.798-0.809 1.735-0.935 2.738l-0.004 0.035c-0.918 0.229-1.697 0.73-2.266 1.412l-0.006 0.006c-0.633 0.74-1.018 1.708-1.018 2.766 0 2.162 1.609 3.95 3.695 4.229l0.022 0.002h12.31c2.939-0.008 5.318-2.393 5.318-5.334 0-2.4-1.586-4.43-3.766-5.099l-0.038-0.010zM23.062 16.8s0 0 0-0.064c0.053-0.062 0.099-0.132 0.136-0.207l0.002-0.006c0.045-0.114 0.071-0.245 0.071-0.382 0-0.45-0.278-0.834-0.672-0.991l-0.007-0.002c-0.545-0.209-1.176-0.354-1.833-0.404l-0.023-0.002c-0.106 0-0.214 0-0.32 0-0.13-0.010-0.28-0.016-0.432-0.016s-0.302 0.006-0.452 0.018l0.020-0.002c-0.050-0.002-0.107-0.004-0.166-0.004s-0.116 0.002-0.174 0.005h0.008c-0.68 0.052-1.311 0.196-1.902 0.421l0.046-0.015c-0.381 0.168-0.642 0.543-0.642 0.978 0 0.143 0.028 0.28 0.079 0.405l-0.002-0.007c0.040 0.078 0.082 0.144 0.13 0.206l-0.002-0.003c-0.002 0.018-0.002 0.038-0.002 0.058s0.001 0.041 0.003 0.062v-0.002c0.188 0.319 0.53 0.53 0.922 0.53 0.199 0 0.385-0.054 0.544-0.149l-0.005 0.002c0.461-0.262 1.013-0.416 1.6-0.416s1.139 0.154 1.616 0.425l-0.016-0.009c0.152 0.089 0.334 0.141 0.53 0.141 0.406 0 0.76-0.227 0.94-0.562l0.003-0.006zM18.934 20c0 0.589 0.478 1.066 1.066 1.066s1.066-0.478 1.066-1.066c0-0.589-0.478-1.066-1.066-1.066v0c-0.589 0-1.066 0.478-1.066 1.066v0z"></path>
</svg>
