<!-- Generated by IcoMoon.io -->
<svg version="1.1" xmlns="http://www.w3.org/2000/svg" width="40" height="40" viewBox="0 0 40 40">
<title>ul-cell</title>
<path fill="#37352f" d="M30.122 12.246l-4.79-2.73c-0.153-0.090-0.337-0.143-0.534-0.143s-0.38 0.053-0.538 0.146l0.005-0.002-4.266 2.432-4.266-2.432c-0.153-0.090-0.337-0.143-0.534-0.143s-0.38 0.053-0.538 0.146l0.005-0.002-4.79 2.73c-0.326 0.186-0.543 0.532-0.544 0.928v5.462c0.001 0.396 0.218 0.742 0.538 0.926l0.006 0.002 4.266 2.422v4.842c0.001 0.396 0.218 0.742 0.538 0.926l0.006 0.002 4.8 2.73c0.153 0.090 0.337 0.143 0.534 0.143s0.38-0.053 0.538-0.146l-0.005 0.002 4.778-2.73c0.326-0.186 0.543-0.532 0.544-0.928v-4.842l4.266-2.422c0.326-0.186 0.543-0.532 0.544-0.928v-5.462c-0.006-0.4-0.23-0.747-0.56-0.925l-0.006-0.003zM11.466 18.016v-4.266l3.734-2.134 3.734 2.134v4.266l-3.734 2.134zM23.734 26.208l-3.734 2.134-3.734-2.134v-4.266l3.734-2.134 3.734 2.134zM28.534 18.016l-3.734 2.134-3.734-2.134v-4.266l3.734-2.134 3.734 2.134z"></path>
</svg>
