<!-- Generated by IcoMoon.io -->
<svg version="1.1" xmlns="http://www.w3.org/2000/svg" width="40" height="40" viewBox="0 0 40 40">
<title>ul-chat</title>
<path fill="#37352f" d="M26.4 9.334h-12.8c-1.767 0-3.2 1.433-3.2 3.2v0 11.734c0 1.767 1.433 3.2 3.2 3.2v0h2.762l2.88 2.89c0.193 0.191 0.458 0.31 0.751 0.31 0.002 0 0.004 0 0.006 0v0c0 0 0 0 0 0 0.266 0 0.508-0.097 0.694-0.257l-0.002 0.001 3.434-2.944h2.272c1.767 0 3.2-1.433 3.2-3.2v0-11.734c0-1.767-1.433-3.2-3.2-3.2v0zM27.466 24.266c0 0.589-0.478 1.066-1.066 1.066v0h-2.666c0 0 0 0 0 0-0.266 0-0.508 0.097-0.694 0.257l0.002-0.001-2.986 2.56-2.496-2.506c-0.193-0.191-0.458-0.31-0.751-0.31-0.002 0-0.004 0-0.006 0h-3.2c-0.589 0-1.066-0.478-1.066-1.066v0-11.734c0-0.589 0.478-1.066 1.066-1.066v0h12.8c0.589 0 1.066 0.478 1.066 1.066v0z"></path>
</svg>
