<!-- Generated by IcoMoon.io -->
<svg version="1.1" xmlns="http://www.w3.org/2000/svg" width="40" height="40" viewBox="0 0 40 40">
<title>ul-cloud-download</title>
<path fill="#37352f" d="M22.442 25.642l-1.376 1.386v-5.962c0-0.589-0.478-1.066-1.066-1.066s-1.066 0.478-1.066 1.066v0 5.962l-1.376-1.386c-0.194-0.194-0.462-0.314-0.758-0.314-0.591 0-1.071 0.479-1.071 1.071 0 0.296 0.12 0.563 0.314 0.758l3.2 3.2c0.098 0.094 0.215 0.17 0.345 0.222l0.007 0.002c0.119 0.054 0.258 0.086 0.406 0.086s0.286-0.031 0.412-0.088l-0.006 0.002c0.137-0.054 0.254-0.13 0.352-0.224v0l3.2-3.2c0.194-0.194 0.314-0.462 0.314-0.758 0-0.591-0.479-1.071-1.071-1.071-0.296 0-0.563 0.12-0.758 0.314v0zM26.848 13.834c-1.18-2.663-3.8-4.487-6.846-4.487-3.784 0-6.91 2.815-7.4 6.465l-0.004 0.038c-1.892 0.464-3.273 2.146-3.273 4.15 0 2.357 1.91 4.266 4.266 4.266 0.003 0 0.006 0 0.010 0h-0.001c0.589 0 1.066-0.478 1.066-1.066s-0.478-1.066-1.066-1.066v0c-1.178 0-2.134-0.955-2.134-2.134s0.955-2.134 2.134-2.134v0c0.589 0 1.066-0.478 1.066-1.066v0c0.006-2.941 2.392-5.322 5.334-5.322 2.326 0 4.305 1.49 5.034 3.567l0.011 0.038c0.126 0.37 0.44 0.646 0.826 0.714l0.006 0.001c1.494 0.29 2.606 1.587 2.606 3.144 0 1.465-0.984 2.7-2.327 3.079l-0.022 0.006c-0.465 0.122-0.802 0.539-0.802 1.034 0 0.59 0.478 1.069 1.069 1.069 0.094 0 0.186-0.012 0.274-0.035l-0.007 0.002c2.304-0.623 3.971-2.695 3.971-5.156 0-2.395-1.578-4.421-3.752-5.095l-0.038-0.010z"></path>
</svg>
