<!-- Generated by IcoMoon.io -->
<svg version="1.1" xmlns="http://www.w3.org/2000/svg" width="40" height="40" viewBox="0 0 40 40">
<title>ul-cube</title>
<path fill="#37352f" d="M29.034 15.062s0 0 0-0.086l-0.064-0.16c-0.024-0.036-0.048-0.067-0.075-0.097l0.001 0.001c-0.030-0.048-0.062-0.090-0.097-0.129l0.001 0.001-0.096-0.074-0.17-0.086-8-4.938c-0.161-0.102-0.356-0.162-0.566-0.162s-0.405 0.061-0.57 0.165l0.004-0.002-7.936 4.938-0.096 0.086-0.096 0.074c-0.034 0.038-0.066 0.080-0.094 0.124l-0.002 0.004c-0.026 0.029-0.051 0.060-0.073 0.093l-0.002 0.003-0.064 0.16s0 0 0 0.086c-0.005 0.042-0.008 0.090-0.008 0.138s0.003 0.097 0.009 0.145l-0.001-0.006v9.322c0 0.001 0 0.002 0 0.002 0 0.379 0.198 0.713 0.497 0.902l0.004 0.002 8 4.938c0.046 0.029 0.099 0.051 0.157 0.063l0.003 0.001s0.054 0 0.086 0c0.083 0.027 0.178 0.043 0.278 0.043s0.194-0.016 0.284-0.045l-0.006 0.002s0.054 0 0.086 0c0.061-0.013 0.114-0.035 0.162-0.066l-0.002 0.002 7.946-4.938c0.303-0.192 0.502-0.525 0.502-0.905 0-0.001 0-0.002 0-0.002v0-9.322c0.005-0.042 0.008-0.090 0.008-0.138s-0.003-0.097-0.009-0.145l0.001 0.006zM18.934 27.69l-5.866-3.626v-6.806l5.866 3.616zM20 19.030l-5.974-3.69 5.974-3.68 5.974 3.68zM26.934 24.064l-5.866 3.626v-6.816l5.866-3.616z"></path>
</svg>
