<!-- Generated by IcoMoon.io -->
<svg version="1.1" xmlns="http://www.w3.org/2000/svg" width="40" height="40" viewBox="0 0 40 40">
<title>ul-cloud-data-connection</title>
<path fill="#37352f" d="M29.6 26.934h-6.592c-0.33-0.908-1.033-1.611-1.919-1.934l-0.022-0.007v-3.392h3.382c0.045 0.002 0.098 0.002 0.152 0.002 2.551 0 4.618-2.068 4.618-4.618 0-2.111-1.417-3.892-3.351-4.442l-0.033-0.008c-1.029-2.24-3.253-3.767-5.834-3.767-3.219 0-5.883 2.377-6.333 5.471l-0.004 0.034c-1.585 0.455-2.726 1.892-2.726 3.594 0 2.060 1.669 3.73 3.728 3.734h4.267v3.392c-0.908 0.33-1.611 1.033-1.934 1.919l-0.007 0.022h-6.592c-0.589 0-1.066 0.478-1.066 1.066s0.478 1.066 1.066 1.066v0h6.592c0.459 1.24 1.633 2.108 3.008 2.108s2.549-0.868 3.001-2.086l0.007-0.022h6.592c0.589 0 1.066-0.478 1.066-1.066s-0.478-1.066-1.066-1.066v0zM14.666 19.466c-0.884 0-1.6-0.716-1.6-1.6s0.716-1.6 1.6-1.6v0c0.589 0 1.066-0.478 1.066-1.066v0c0-0.003 0-0.008 0-0.012 0-2.357 1.91-4.266 4.266-4.266 1.868 0 3.456 1.201 4.034 2.873l0.009 0.030c0.126 0.37 0.44 0.646 0.826 0.714l0.006 0.001c1.175 0.202 2.058 1.213 2.058 2.43 0 0.004 0 0.009 0 0.013v-0.001c-0.006 1.37-1.115 2.479-2.485 2.486h-0.001zM20 29.066c-0.589 0-1.066-0.478-1.066-1.066s0.478-1.066 1.066-1.066c0.589 0 1.066 0.478 1.066 1.066v0c0 0.589-0.478 1.066-1.066 1.066v0z"></path>
</svg>
