<!-- Generated by IcoMoon.io -->
<svg version="1.1" xmlns="http://www.w3.org/2000/svg" width="40" height="40" viewBox="0 0 40 40">
<title>ul-database-alt</title>
<path fill="#37352f" d="M15.734 25.334c-0.589 0-1.066 0.478-1.066 1.066s0.478 1.066 1.066 1.066c0.589 0 1.066-0.478 1.066-1.066v0c0-0.589-0.478-1.066-1.066-1.066v0zM15.734 18.934c-0.589 0-1.066 0.478-1.066 1.066s0.478 1.066 1.066 1.066c0.589 0 1.066-0.478 1.066-1.066v0c0-0.589-0.478-1.066-1.066-1.066v0zM24.266 9.334h-8.534c-2.357 0-4.266 1.91-4.266 4.266v0 12.8c0 2.357 1.91 4.266 4.266 4.266v0h8.534c2.357 0 4.266-1.91 4.266-4.266v0-12.8c0-2.357-1.91-4.266-4.266-4.266v0zM26.4 26.4c0 1.178-0.955 2.134-2.134 2.134v0h-8.534c-1.178 0-2.134-0.955-2.134-2.134v0-2.73c0.609 0.372 1.345 0.594 2.132 0.598h8.534c0.789-0.003 1.525-0.225 2.152-0.608l-0.018 0.010zM26.4 20c0 1.178-0.955 2.134-2.134 2.134v0h-8.534c-1.178 0-2.134-0.955-2.134-2.134v0-2.73c0.609 0.372 1.345 0.594 2.132 0.598h8.534c0.789-0.003 1.525-0.225 2.152-0.608l-0.018 0.010zM24.266 15.734h-8.534c-1.178 0-2.134-0.955-2.134-2.134s0.955-2.134 2.134-2.134v0h8.534c1.178 0 2.134 0.955 2.134 2.134s-0.955 2.134-2.134 2.134v0z"></path>
</svg>
