<!-- Generated by IcoMoon.io -->
<svg version="1.1" xmlns="http://www.w3.org/2000/svg" width="40" height="40" viewBox="0 0 40 40">
<title>ul-dialpad-alt</title>
<path fill="#37352f" d="M12.534 17.066c-1.62 0-2.934 1.314-2.934 2.934s1.314 2.934 2.934 2.934c1.62 0 2.934-1.314 2.934-2.934v0c0-1.62-1.314-2.934-2.934-2.934v0zM12.534 21.334c-0.736 0-1.334-0.597-1.334-1.334s0.597-1.334 1.334-1.334c0.736 0 1.334 0.597 1.334 1.334v0c0 0.736-0.597 1.334-1.334 1.334v0zM20 17.066c-1.62 0-2.934 1.314-2.934 2.934s1.314 2.934 2.934 2.934c1.62 0 2.934-1.314 2.934-2.934v0c0-1.62-1.314-2.934-2.934-2.934v0zM20 21.334c-0.736 0-1.334-0.597-1.334-1.334s0.597-1.334 1.334-1.334c0.736 0 1.334 0.597 1.334 1.334v0c0 0.736-0.597 1.334-1.334 1.334v0zM27.466 15.466c1.62 0 2.934-1.314 2.934-2.934s-1.314-2.934-2.934-2.934c-1.62 0-2.934 1.314-2.934 2.934v0c0 1.62 1.314 2.934 2.934 2.934v0zM27.466 11.2c0.736 0 1.334 0.597 1.334 1.334s-0.597 1.334-1.334 1.334c-0.736 0-1.334-0.597-1.334-1.334v0c0-0.736 0.597-1.334 1.334-1.334v0zM27.466 17.066c-1.62 0-2.934 1.314-2.934 2.934s1.314 2.934 2.934 2.934c1.62 0 2.934-1.314 2.934-2.934v0c0-1.62-1.314-2.934-2.934-2.934v0zM27.466 21.334c-0.736 0-1.334-0.597-1.334-1.334s0.597-1.334 1.334-1.334c0.736 0 1.334 0.597 1.334 1.334v0c0 0.736-0.597 1.334-1.334 1.334v0zM12.534 9.6c-1.62 0-2.934 1.314-2.934 2.934s1.314 2.934 2.934 2.934c1.62 0 2.934-1.314 2.934-2.934v0c0-1.62-1.314-2.934-2.934-2.934v0zM12.534 13.866c-0.736 0-1.334-0.597-1.334-1.334s0.597-1.334 1.334-1.334c0.736 0 1.334 0.597 1.334 1.334v0c0 0.736-0.597 1.334-1.334 1.334v0zM20 24.534c-1.62 0-2.934 1.314-2.934 2.934s1.314 2.934 2.934 2.934c1.62 0 2.934-1.314 2.934-2.934v0c0-1.62-1.314-2.934-2.934-2.934v0zM20 28.8c-0.736 0-1.334-0.597-1.334-1.334s0.597-1.334 1.334-1.334c0.736 0 1.334 0.597 1.334 1.334v0c0 0.736-0.597 1.334-1.334 1.334v0zM20 9.6c-1.62 0-2.934 1.314-2.934 2.934s1.314 2.934 2.934 2.934c1.62 0 2.934-1.314 2.934-2.934v0c0-1.62-1.314-2.934-2.934-2.934v0zM20 13.866c-0.736 0-1.334-0.597-1.334-1.334s0.597-1.334 1.334-1.334c0.736 0 1.334 0.597 1.334 1.334v0c0 0.736-0.597 1.334-1.334 1.334v0z"></path>
</svg>
