<!-- Generated by IcoMoon.io -->
<svg version="1.1" xmlns="http://www.w3.org/2000/svg" width="40" height="40" viewBox="0 0 40 40">
<title>ul-desert</title>
<path fill="#37352f" d="M26.4 9.334c-2.357 0-4.266 1.91-4.266 4.266s1.91 4.266 4.266 4.266c2.357 0 4.266-1.91 4.266-4.266v0c0-2.357-1.91-4.266-4.266-4.266v0zM26.4 15.734c-1.178 0-2.134-0.955-2.134-2.134s0.955-2.134 2.134-2.134c1.178 0 2.134 0.955 2.134 2.134v0c0 1.178-0.955 2.134-2.134 2.134v0zM23.2 28.534h-2.134v-2.134c0-0.589-0.478-1.066-1.066-1.066s-1.066 0.478-1.066 1.066v0 2.134h-2.134v-3.606l3.68-1.846c0.35-0.179 0.586-0.537 0.586-0.949v-4.267c0-0.589-0.478-1.066-1.066-1.066s-1.066 0.478-1.066 1.066v0 3.606l-2.134 1.066v-6.806c0-0.589-0.478-1.066-1.066-1.066s-1.066 0.478-1.066 1.066v0 8.938l-2.134-1.066v-2.538c0-0.589-0.478-1.066-1.066-1.066s-1.066 0.478-1.066 1.066v0 3.2c0.002 0.413 0.237 0.77 0.581 0.946l0.006 0.003 3.68 1.846v1.472h-4.266c-0.589 0-1.066 0.478-1.066 1.066s0.478 1.066 1.066 1.066v0h12.8c0.589 0 1.066-0.478 1.066-1.066s-0.478-1.066-1.066-1.066v0z"></path>
</svg>
