<!-- Generated by IcoMoon.io -->
<svg version="1.1" xmlns="http://www.w3.org/2000/svg" width="40" height="40" viewBox="0 0 40 40">
<title>ul-download-alt</title>
<path fill="#37352f" d="M16.042 21.376c-0.195 0.194-0.315 0.462-0.315 0.758s0.121 0.564 0.315 0.758l3.2 3.2c0.194 0.195 0.462 0.315 0.758 0.315s0.564-0.121 0.758-0.315l3.2-3.2c0.194-0.194 0.314-0.462 0.314-0.758 0-0.591-0.479-1.071-1.071-1.071-0.296 0-0.563 0.12-0.758 0.314v0l-1.376 1.386v-12.362c0-0.589-0.478-1.066-1.066-1.066s-1.066 0.478-1.066 1.066v0 12.362l-1.376-1.386c-0.194-0.195-0.462-0.315-0.758-0.315s-0.564 0.121-0.758 0.315v0zM26.4 16.8h-2.134c-0.589 0-1.066 0.478-1.066 1.066s0.478 1.066 1.066 1.066v0h2.134c0.589 0 1.066 0.478 1.066 1.066v0 7.466c0 0.589-0.478 1.066-1.066 1.066v0h-12.8c-0.589 0-1.066-0.478-1.066-1.066v0-7.466c0-0.589 0.478-1.066 1.066-1.066v0h2.134c0.589 0 1.066-0.478 1.066-1.066s-0.478-1.066-1.066-1.066v0h-2.134c-1.767 0-3.2 1.433-3.2 3.2v0 7.466c0 1.767 1.433 3.2 3.2 3.2v0h12.8c1.767 0 3.2-1.433 3.2-3.2v0-7.466c0-1.767-1.433-3.2-3.2-3.2v0z"></path>
</svg>
