<!-- Generated by IcoMoon.io -->
<svg version="1.1" xmlns="http://www.w3.org/2000/svg" width="40" height="40" viewBox="0 0 40 40">
<title>ul-desktop-alt-slash</title>
<path fill="#37352f" d="M30.358 28.842l-19.2-19.2c-0.194-0.194-0.462-0.314-0.758-0.314-0.591 0-1.071 0.479-1.071 1.071 0 0.296 0.12 0.563 0.314 0.758v0l1.066 1.066c-0.195 0.402-0.31 0.874-0.31 1.373 0 0.001 0 0.002 0 0.003v0 8.534c0 1.767 1.433 3.2 3.2 3.2v0h3.2v2.134h-3.2c-0.589 0-1.066 0.478-1.066 1.066s0.478 1.066 1.066 1.066v0h12.8c0.454-0.005 0.841-0.294 0.99-0.697l0.002-0.007 1.45 1.462c0.194 0.195 0.462 0.315 0.758 0.315s0.564-0.121 0.758-0.315v0c0.195-0.194 0.315-0.462 0.315-0.758s-0.121-0.564-0.315-0.758v0zM12.534 14.038l4.896 4.896h-4.896zM21.066 27.466h-2.134v-2.134h2.134zM13.6 23.2c-0.589 0-1.066-0.478-1.066-1.066v0-1.066h7.030l2.134 2.134zM23.2 27.466v-2.134h0.63l2.134 2.134zM17.504 12.534h8.896c0.589 0 1.066 0.478 1.066 1.066v0 5.334h-1.43c-0.589 0-1.066 0.478-1.066 1.066s0.478 1.066 1.066 1.066v0h1.43v1.066c0.003 0.018 0.004 0.038 0.004 0.058s-0.002 0.041-0.005 0.061v-0.002c-0.014 0.064-0.022 0.138-0.022 0.214 0 0.514 0.363 0.942 0.846 1.044l0.007 0.002h0.214c0.006 0 0.014 0 0.022 0 0.514 0 0.942-0.363 1.044-0.846l0.002-0.007c0.015-0.115 0.025-0.249 0.025-0.385 0-0.049-0.001-0.097-0.003-0.145v0.007-8.534c0-1.767-1.433-3.2-3.2-3.2v0h-8.896c-0.589 0-1.066 0.478-1.066 1.066s0.478 1.066 1.066 1.066v0z"></path>
</svg>
