<!-- Generated by IcoMoon.io -->
<svg version="1.1" xmlns="http://www.w3.org/2000/svg" width="40" height="40" viewBox="0 0 40 40">
<title>ul-diary</title>
<path fill="#37352f" d="M25.334 9.334h-12.8c-0.589 0-1.066 0.478-1.066 1.066v0 17.066c0 0.589 0.478 1.066 1.066 1.066v0h1.066v1.066c0 0.589 0.478 1.066 1.066 1.066v0 0c0.589 0 1.066-0.478 1.066-1.066v0-1.066h9.6c1.767 0 3.2-1.433 3.2-3.2v0-12.8c0-1.767-1.433-3.2-3.2-3.2v0zM22.134 26.4h-8.534v-14.934h8.534zM26.4 25.334c0 0.589-0.478 1.066-1.066 1.066v0h-1.066v-14.934h1.066c0.589 0 1.066 0.478 1.066 1.066v0z"></path>
</svg>
