<!-- Generated by IcoMoon.io -->
<svg version="1.1" xmlns="http://www.w3.org/2000/svg" width="40" height="40" viewBox="0 0 40 40">
<title>ul-expand-arrows-alt</title>
<path fill="#37352f" d="M17.11 21.376l-5.642 5.654v-1.696c0-0.589-0.478-1.066-1.066-1.066s-1.066 0.478-1.066 1.066v0 4.266c0.002 0.147 0.033 0.286 0.088 0.412l-0.002-0.007c0.11 0.262 0.314 0.466 0.569 0.574l0.007 0.002c0.119 0.052 0.258 0.083 0.405 0.086h4.267c0.589 0 1.066-0.478 1.066-1.066s-0.478-1.066-1.066-1.066v0h-1.696l5.654-5.642c0.194-0.194 0.314-0.462 0.314-0.758 0-0.591-0.479-1.071-1.071-1.071-0.296 0-0.563 0.12-0.758 0.314v0zM12.97 11.466h1.696c0.589 0 1.066-0.478 1.066-1.066s-0.478-1.066-1.066-1.066v0h-4.266c-0.147 0.002-0.286 0.033-0.412 0.088l0.007-0.002c-0.262 0.11-0.466 0.314-0.574 0.569l-0.002 0.007c-0.052 0.119-0.083 0.258-0.086 0.405v4.267c0 0.589 0.478 1.066 1.066 1.066s1.066-0.478 1.066-1.066v0-1.696l5.642 5.654c0.194 0.195 0.462 0.315 0.758 0.315s0.564-0.121 0.758-0.315v0c0.195-0.194 0.315-0.462 0.315-0.758s-0.121-0.564-0.315-0.758v0zM29.6 24.266c-0.589 0-1.066 0.478-1.066 1.066v0 1.696l-5.642-5.654c-0.194-0.194-0.462-0.314-0.758-0.314-0.591 0-1.071 0.479-1.071 1.071 0 0.296 0.12 0.563 0.314 0.758v0l5.654 5.642h-1.696c-0.589 0-1.066 0.478-1.066 1.066s0.478 1.066 1.066 1.066v0h4.266c0.147-0.002 0.286-0.033 0.412-0.088l-0.007 0.002c0.262-0.11 0.466-0.314 0.574-0.569l0.002-0.007c0.052-0.119 0.083-0.258 0.086-0.405v-4.267c0-0.589-0.478-1.066-1.066-1.066v0zM30.582 9.994c-0.11-0.262-0.314-0.466-0.569-0.574l-0.007-0.002c-0.119-0.052-0.258-0.083-0.405-0.086h-4.267c-0.589 0-1.066 0.478-1.066 1.066s0.478 1.066 1.066 1.066v0h1.696l-5.654 5.642c-0.195 0.194-0.315 0.462-0.315 0.758s0.121 0.564 0.315 0.758v0c0.194 0.195 0.462 0.315 0.758 0.315s0.564-0.121 0.758-0.315v0l5.642-5.654v1.696c0 0.589 0.478 1.066 1.066 1.066s1.066-0.478 1.066-1.066v0-4.266c-0.002-0.147-0.033-0.286-0.088-0.412l0.002 0.007z"></path>
</svg>
