<!-- Generated by IcoMoon.io -->
<svg version="1.1" xmlns="http://www.w3.org/2000/svg" width="40" height="40" viewBox="0 0 40 40">
<title>ul-exchange</title>
<path fill="#37352f" d="M26.4 17.866c0-0.589-0.478-1.066-1.066-1.066v0h-12.362l2.454-2.442c0.194-0.194 0.314-0.462 0.314-0.758 0-0.591-0.479-1.071-1.071-1.071-0.296 0-0.563 0.12-0.758 0.314l-4.266 4.266c-0.19 0.193-0.307 0.457-0.307 0.749 0 0.15 0.030 0.291 0.086 0.421l-0.002-0.007c0.163 0.39 0.541 0.659 0.981 0.662h14.934c0.589 0 1.066-0.478 1.066-1.066v0zM30.582 21.728c-0.163-0.39-0.541-0.659-0.981-0.662h-14.934c-0.589 0-1.066 0.478-1.066 1.066s0.478 1.066 1.066 1.066v0h12.362l-2.454 2.442c-0.195 0.194-0.315 0.462-0.315 0.758s0.121 0.564 0.315 0.758v0c0.194 0.195 0.462 0.315 0.758 0.315s0.564-0.121 0.758-0.315l4.266-4.266c0.19-0.193 0.307-0.457 0.307-0.749 0-0.15-0.030-0.291-0.086-0.421l0.002 0.007z"></path>
</svg>
