<!-- Generated by IcoMoon.io -->
<svg version="1.1" xmlns="http://www.w3.org/2000/svg" width="40" height="40" viewBox="0 0 40 40">
<title>ul-euro</title>
<path fill="#37352f" d="M27.68 25.77c-1.13 1.623-2.962 2.691-5.046 2.762h-0.010c-2.858 0-5.334-2.134-6.4-5.334h5.91c0.589 0 1.066-0.478 1.066-1.066s-0.478-1.066-1.066-1.066v0h-6.346c0-0.352-0.054-0.714-0.054-1.066s0-0.714 0.054-1.066h6.346c0.589 0 1.066-0.478 1.066-1.066s-0.478-1.066-1.066-1.066v0h-5.898c1.066-3.2 3.53-5.334 6.4-5.334 2.090 0.075 3.917 1.142 5.031 2.742l0.014 0.021c0.188 0.32 0.53 0.531 0.922 0.531 0.589 0 1.066-0.478 1.066-1.066 0-0.279-0.107-0.534-0.283-0.724l0.001 0.001c-1.511-2.162-3.966-3.574-6.753-3.637h-0.010c-4.010 0-7.466 3.030-8.608 7.466h-2.55c-0.589 0-1.066 0.478-1.066 1.066s0.478 1.066 1.066 1.066v0h2.186c0 0.352 0 0.714 0 1.066s0 0.714 0 1.066h-2.186c-0.589 0-1.066 0.478-1.066 1.066s0.478 1.066 1.066 1.066v0h2.55c1.162 4.438 4.598 7.466 8.608 7.466 2.797-0.062 5.252-1.475 6.745-3.61l0.018-0.027c0.090-0.154 0.144-0.338 0.144-0.536 0-0.589-0.478-1.066-1.066-1.066-0.31 0-0.589 0.132-0.784 0.343l-0.001 0.001z"></path>
</svg>
