<!-- Generated by IcoMoon.io -->
<svg version="1.1" xmlns="http://www.w3.org/2000/svg" width="40" height="40" viewBox="0 0 40 40">
<title>ul-exclamation-circle</title>
<path fill="#37352f" d="M20 22.134c-0.736 0-1.334 0.597-1.334 1.334s0.597 1.334 1.334 1.334c0.736 0 1.334-0.597 1.334-1.334v0c0-0.736-0.597-1.334-1.334-1.334v0zM20 20.534c0.589 0 1.066-0.478 1.066-1.066v0-3.2c0-0.589-0.478-1.066-1.066-1.066s-1.066 0.478-1.066 1.066v0 3.2c0 0.589 0.478 1.066 1.066 1.066v0zM20 9.334c-5.891 0-10.666 4.776-10.666 10.666s4.776 10.666 10.666 10.666c5.891 0 10.666-4.776 10.666-10.666v0c-0.006-5.888-4.778-10.66-10.666-10.666h-0.001zM20 28.534c-4.713 0-8.534-3.821-8.534-8.534s3.821-8.534 8.534-8.534c4.713 0 8.534 3.821 8.534 8.534v0c-0.006 4.71-3.822 8.528-8.533 8.534h-0.001z"></path>
</svg>
