<!-- Generated by IcoMoon.io -->
<svg version="1.1" xmlns="http://www.w3.org/2000/svg" width="40" height="40" viewBox="0 0 40 40">
<title>ul-file-slash</title>
<path fill="#37352f" d="M30.358 28.842l-19.2-19.2c-0.194-0.194-0.462-0.314-0.758-0.314-0.591 0-1.071 0.479-1.071 1.071 0 0.296 0.12 0.563 0.314 0.758v0l1.824 1.814v14.496c0 1.767 1.433 3.2 3.2 3.2v0h10.666c1.039-0.003 1.962-0.502 2.543-1.272l0.006-0.008 0.96 0.97c0.194 0.195 0.462 0.315 0.758 0.315s0.564-0.121 0.758-0.315v0c0.195-0.194 0.315-0.462 0.315-0.758s-0.121-0.564-0.315-0.758v0zM25.334 28.534h-10.666c-0.589 0-1.066-0.478-1.066-1.066v0-12.362l12.726 12.726c-0.151 0.41-0.538 0.699-0.991 0.704h-0.001zM16.438 11.466h3.562v3.2c0 1.767 1.433 3.2 3.2 3.2v0h3.2v3.562c0 0.589 0.478 1.066 1.066 1.066s1.066-0.478 1.066-1.066v0-4.63s0 0 0-0.064c-0.013-0.107-0.035-0.205-0.067-0.298l0.003 0.010v-0.096c-0.054-0.114-0.122-0.214-0.203-0.299l-6.399-6.399c-0.086-0.081-0.184-0.148-0.292-0.2l-0.007-0.003h-0.096l-0.342-0.118h-4.694c-0.589 0-1.066 0.478-1.066 1.066s0.478 1.066 1.066 1.066v0zM22.134 12.97l2.762 2.762h-1.696c-0.589 0-1.066-0.478-1.066-1.066v0z"></path>
</svg>
