<!-- Generated by IcoMoon.io -->
<svg version="1.1" xmlns="http://www.w3.org/2000/svg" width="40" height="40" viewBox="0 0 40 40">
<title>ul-flip-h-alt</title>
<path fill="#37352f" d="M21.29 13.28c0.038 0.005 0.083 0.008 0.128 0.008s0.090-0.003 0.133-0.008l-0.005 0.001 2.070-0.522c0.469-0.119 0.81-0.538 0.81-1.035 0-0.090-0.011-0.178-0.033-0.263l0.002 0.007c-0.119-0.469-0.538-0.81-1.035-0.81-0.090 0-0.178 0.011-0.263 0.033l0.007-0.002-2.038 0.49c-0.536 0.066-0.946 0.518-0.946 1.066 0 0.594 0.481 1.074 1.074 1.074 0.045 0 0.090-0.002 0.134-0.008l-0.006 0.001zM17.344 16.8h-2.134c-0.589 0-1.066 0.478-1.066 1.066s0.478 1.066 1.066 1.066v0h2.134c0.589 0 1.066-0.478 1.066-1.066s-0.478-1.066-1.066-1.066v0zM21.61 16.8c-0.589 0-1.066 0.478-1.066 1.066s0.478 1.066 1.066 1.066v0h2.134c0.589 0 1.066-0.478 1.066-1.066s-0.478-1.066-1.066-1.066v0zM15.082 14.826h0.256l2.070-0.512c0.478-0.119 0.826-0.544 0.826-1.050 0-0.598-0.484-1.082-1.082-1.082-0.091 0-0.179 0.011-0.263 0.032l0.007-0.002-2.070 0.512c-0.536 0.066-0.946 0.518-0.946 1.066 0 0.594 0.481 1.074 1.074 1.074 0.045 0 0.090-0.002 0.134-0.008l-0.006 0.001zM11.466 18.41c0.589 0 1.066-0.478 1.066-1.066v0-2.134c0-0.589-0.478-1.066-1.066-1.066s-1.066 0.478-1.066 1.066v0 2.134c0 0.589 0.478 1.066 1.066 1.066v0zM29.194 9.558c-0.184-0.155-0.424-0.25-0.686-0.25-0.082 0-0.162 0.010-0.239 0.027l0.007-0.002-1.066 0.256c-0.469 0.119-0.81 0.538-0.81 1.035 0 0.090 0.011 0.178 0.033 0.263l-0.002-0.007c0.118 0.47 0.538 0.811 1.035 0.811 0.011 0 0.022 0 0.033-0.001h-0.002c0.119 0.469 0.538 0.81 1.035 0.81 0.578 0 1.048-0.459 1.066-1.032v-1.068c0-0.002 0-0.004 0-0.006 0-0.338-0.158-0.64-0.403-0.835l-0.002-0.002zM28.534 14.666c-0.589 0-1.066 0.478-1.066 1.066v0 1.216c-0.315 0.19-0.522 0.529-0.522 0.918 0 0.589 0.478 1.066 1.066 1.066h0.522c0.589 0 1.066-0.478 1.066-1.066v0-2.134c0-0.589-0.478-1.066-1.066-1.066v0zM28.534 21.066h-17.066c-0.589 0-1.066 0.478-1.066 1.066v0 3.2c0 0.010-0.001 0.020-0.001 0.031 0 0.498 0.342 0.917 0.804 1.034l0.007 0.002 17.066 4.266c0.038 0.005 0.083 0.008 0.128 0.008s0.090-0.003 0.133-0.008l-0.005 0.001c0.589 0 1.066-0.478 1.066-1.066v0-7.466c0-0.589-0.478-1.066-1.066-1.066v0zM27.466 28.234l-14.934-3.734v-1.302h14.934z"></path>
</svg>
