<!-- Generated by IcoMoon.io -->
<svg version="1.1" xmlns="http://www.w3.org/2000/svg" width="40" height="40" viewBox="0 0 40 40">
<title>ul-fast-mail</title>
<path fill="#37352f" d="M12.31 18.4h-2.134c-0.589 0-1.066 0.478-1.066 1.066s0.478 1.066 1.066 1.066v0h2.134c0.589 0 1.066-0.478 1.066-1.066s-0.478-1.066-1.066-1.066v0zM30.208 15.37v-0.064c-0.591-0.719-1.481-1.174-2.477-1.174-0.018 0-0.036 0-0.054 0.001h-8.456c-0.009 0-0.018 0-0.029 0-0.807 0-1.545 0.299-2.108 0.793l0.004-0.003c-0.536 0.474-0.907 1.125-1.022 1.86l-0.002 0.018-0.938 5.334c-0.030 0.166-0.048 0.357-0.048 0.553 0 0.787 0.284 1.508 0.756 2.066l-0.004-0.005c0.59 0.698 1.464 1.139 2.442 1.142h8.47c0.014 0 0.031 0 0.048 0 1.571 0 2.878-1.133 3.149-2.626l0.003-0.019 0.938-5.334c0.027-0.157 0.043-0.338 0.043-0.522 0-0.767-0.27-1.47-0.719-2.022l0.005 0.006zM27.286 16.266l-3.626 2.944c-0.182 0.147-0.415 0.236-0.67 0.236-0.319 0-0.606-0.141-0.802-0.363l-0.001-0.001-2.486-2.816zM27.798 22.848c-0.090 0.506-0.526 0.886-1.051 0.886-0.006 0-0.011 0-0.016 0h-8.458c-0.326-0.003-0.615-0.151-0.81-0.382l-0.002-0.002c-0.155-0.184-0.25-0.424-0.25-0.686 0-0.063 0.006-0.125 0.016-0.185l-0.001 0.006 0.854-4.832 2.506 2.838c0.59 0.667 1.447 1.086 2.402 1.086 0.766 0 1.469-0.269 2.019-0.718l-0.006 0.005 3.67-2.998zM13.376 14.134h-3.2c-0.589 0-1.066 0.478-1.066 1.066s0.478 1.066 1.066 1.066v0h3.2c0.589 0 1.066-0.478 1.066-1.066s-0.478-1.066-1.066-1.066v0z"></path>
</svg>
