<!-- Generated by IcoMoon.io -->
<svg version="1.1" xmlns="http://www.w3.org/2000/svg" width="40" height="40" viewBox="0 0 40 40">
<title>ul-flower</title>
<path fill="#37352f" d="M28.192 14.538c-0.633-0.339-1.385-0.539-2.183-0.539-0.481 0-0.944 0.072-1.381 0.206l0.034-0.009c-0.122-2.477-2.16-4.438-4.656-4.438s-4.534 1.962-4.655 4.427l-0.001 0.011c-0.412-0.129-0.886-0.203-1.378-0.203-0.785 0-1.526 0.19-2.179 0.525l0.027-0.013c-1.494 0.797-2.493 2.345-2.493 4.126 0 2.030 1.298 3.758 3.11 4.397l0.033 0.010c-0.528 0.743-0.846 1.667-0.854 2.665v0.002c0.005 0.286 0.032 0.562 0.079 0.832l-0.005-0.032c0.377 2.21 2.278 3.872 4.567 3.872 0.003 0 0.006 0 0.010 0h-0.001c0.102 0.007 0.222 0.012 0.342 0.012s0.239-0.004 0.357-0.013l-0.016 0.001c1.256-0.203 2.326-0.878 3.042-1.833l0.009-0.012c0.731 0.951 1.8 1.61 3.024 1.799l0.026 0.003c0.102 0.007 0.222 0.012 0.342 0.012s0.239-0.004 0.357-0.013l-0.016 0.001c2.566-0.003 4.646-2.084 4.646-4.65 0-1.003-0.318-1.932-0.858-2.692l0.010 0.014c1.856-0.639 3.166-2.37 3.166-4.407 0-1.784-1.005-3.334-2.479-4.114l-0.026-0.012zM18.23 12.47c0.459-0.44 1.083-0.711 1.77-0.711s1.312 0.271 1.771 0.712l-0.001-0.001c0.468 0.469 0.758 1.116 0.758 1.831 0 0.363-0.074 0.709-0.21 1.022l0.006-0.017-0.278 0.63-0.704 0.618c-0.4-0.142-0.861-0.227-1.341-0.234h-0.003c-0.622 0.001-1.212 0.134-1.744 0.374l0.027-0.011-0.598-1.376c-0.135-0.302-0.214-0.653-0.214-1.023 0-0.71 0.29-1.352 0.758-1.814v0zM11.722 19.766c-0.143-0.307-0.226-0.666-0.226-1.046 0-1.396 1.132-2.528 2.528-2.528 0.63 0 1.206 0.23 1.649 0.611l-0.003-0.002 0.522 0.458 0.374 0.854c-0.514 0.682-0.826 1.541-0.832 2.473v0.002c-0.006 0.072-0.010 0.155-0.010 0.24s0.003 0.168 0.010 0.251l-0.001-0.011h-0.586l-0.896 0.086c-0.079 0.009-0.172 0.014-0.266 0.014-0.986 0-1.839-0.564-2.256-1.386l-0.006-0.014zM18.762 26.25c-0.264 1.142-1.272 1.98-2.477 1.98-1.234 0-2.263-0.882-2.491-2.050l-0.002-0.016c-0.005-0.067-0.008-0.145-0.008-0.224s0.002-0.157 0.008-0.234l-0.001 0.010c0.008-0.909 0.503-1.7 1.236-2.127l0.012-0.006 0.544-0.384 0.97-0.106c0.605 0.834 1.487 1.435 2.51 1.669l0.029 0.006zM20 22.72c-1.178 0-2.134-0.955-2.134-2.134s0.955-2.134 2.134-2.134c1.178 0 2.134 0.955 2.134 2.134v0c0 1.178-0.955 2.134-2.134 2.134v0zM26.208 26.154c-0.208 1.198-1.24 2.098-2.482 2.098-0.133 0-0.263-0.010-0.39-0.030l0.014 0.002c-1.059-0.154-1.898-0.939-2.13-1.956l-0.003-0.017-0.15-0.64 0.224-0.982c1.001-0.333 1.817-0.996 2.336-1.858l0.010-0.019 0.534 0.32h0.096l0.704 0.416c0.77 0.446 1.28 1.266 1.28 2.205 0 0.163-0.015 0.323-0.045 0.478l0.002-0.016zM28.278 19.754c-0.424 0.844-1.281 1.414-2.271 1.418h-0.257l-0.682-0.106-0.8-0.438c-0.002-1.082-0.406-2.070-1.070-2.821l0.004 0.005 0.458-0.394 0.672-0.618c0.444-0.397 1.034-0.638 1.68-0.638 1.396 0 2.528 1.132 2.528 2.528 0 0.407-0.097 0.792-0.267 1.134l0.006-0.014z"></path>
</svg>
