<!-- Generated by IcoMoon.io -->
<svg version="1.1" xmlns="http://www.w3.org/2000/svg" width="40" height="40" viewBox="0 0 40 40">
<title>ul-file-import</title>
<path fill="#37352f" d="M18.934 28.534h-5.334c-0.589 0-1.066-0.478-1.066-1.066v0-14.934c0-0.589 0.478-1.066 1.066-1.066v0h5.334v3.2c0 1.767 1.433 3.2 3.2 3.2v0h3.2v2.134c0 0.589 0.478 1.066 1.066 1.066s1.066-0.478 1.066-1.066v0-3.2s0 0 0-0.064c-0.013-0.107-0.035-0.205-0.067-0.298l0.003 0.010v-0.096c-0.058-0.118-0.125-0.22-0.204-0.311l-6.398-6.398c-0.090-0.078-0.191-0.146-0.301-0.199l-0.008-0.004c-0.014-0.002-0.031-0.003-0.048-0.003s-0.034 0.002-0.050 0.004h0.002l-0.33-0.106h-6.464c-1.767 0-3.2 1.433-3.2 3.2v0 14.934c0 1.767 1.433 3.2 3.2 3.2v0h5.334c0.589 0 1.066-0.478 1.066-1.066s-0.478-1.066-1.066-1.066v0zM21.066 12.97l2.762 2.762h-1.696c-0.589 0-1.066-0.478-1.066-1.066v0zM27.466 23.2h-5.962l1.386-1.376c0.194-0.194 0.314-0.462 0.314-0.758 0-0.591-0.479-1.071-1.071-1.071-0.296 0-0.563 0.12-0.758 0.314l-3.2 3.2c-0.091 0.1-0.166 0.217-0.221 0.344l-0.003 0.008c-0.050 0.12-0.080 0.259-0.080 0.406s0.030 0.286 0.082 0.412l-0.002-0.007c0.052 0.138 0.128 0.254 0.224 0.352l3.2 3.2c0.194 0.195 0.462 0.315 0.758 0.315s0.564-0.121 0.758-0.315v0c0.195-0.194 0.315-0.462 0.315-0.758s-0.121-0.564-0.315-0.758v0l-1.386-1.376h5.962c0.589 0 1.066-0.478 1.066-1.066s-0.478-1.066-1.066-1.066v0z"></path>
</svg>
