<!-- Generated by IcoMoon.io -->
<svg version="1.1" xmlns="http://www.w3.org/2000/svg" width="40" height="40" viewBox="0 0 40 40">
<title>ul-folder-network</title>
<path fill="#37352f" d="M29.6 26.4h-6.592c-0.33-0.908-1.033-1.611-1.919-1.934l-0.022-0.007v-2.326h3.914c1.37-0.006 2.479-1.115 2.486-2.485v-5.697c-0.006-1.37-1.115-2.479-2.485-2.486h-4.267l-0.138-0.438c-0.338-0.979-1.242-1.674-2.312-1.696h-3.202c-0.010 0-0.021 0-0.032 0-1.375 0-2.49 1.111-2.496 2.485v7.83c0.006 1.37 1.115 2.479 2.485 2.486h3.915v2.326c-0.908 0.33-1.611 1.033-1.934 1.919l-0.007 0.022h-6.592c-0.589 0-1.066 0.478-1.066 1.066s0.478 1.066 1.066 1.066v0h6.592c0.459 1.24 1.633 2.108 3.008 2.108s2.549-0.868 3.001-2.086l0.007-0.022h6.592c0.589 0 1.066-0.478 1.066-1.066s-0.478-1.066-1.066-1.066v0zM15.018 20c-0.194 0-0.352-0.158-0.352-0.352v-7.83c0-0.194 0.158-0.352 0.352-0.352v0h3.2c0.002 0 0.004 0 0.006 0 0.156 0 0.289 0.102 0.334 0.243l0.001 0.002 0.384 1.162c0.146 0.426 0.543 0.726 1.011 0.726 0.016 0 0.032 0 0.047-0.001h4.979c0.194 0 0.352 0.158 0.352 0.352v0 5.696c0 0.194-0.158 0.352-0.352 0.352v0zM20 28.534c-0.589 0-1.066-0.478-1.066-1.066s0.478-1.066 1.066-1.066c0.589 0 1.066 0.478 1.066 1.066v0c0 0.589-0.478 1.066-1.066 1.066v0z"></path>
</svg>
