<!-- Generated by IcoMoon.io -->
<svg version="1.1" xmlns="http://www.w3.org/2000/svg" width="40" height="40" viewBox="0 0 40 40">
<title>ul-folder-question</title>
<path fill="#37352f" d="M20.608 24.586c-0.046-0.054-0.098-0.1-0.157-0.137l-0.003-0.002-0.182-0.096-0.202-0.086c-0.060-0.012-0.13-0.019-0.201-0.019-0.297 0-0.566 0.122-0.759 0.318v0c-0.098 0.095-0.177 0.209-0.232 0.334l-0.002 0.007c-0.047 0.116-0.075 0.251-0.075 0.393 0 0.008 0 0.016 0 0.025v-0.001c0.002 0.291 0.119 0.555 0.31 0.746v0c0.095 0.098 0.209 0.177 0.334 0.232l0.007 0.002c0.116 0.047 0.251 0.075 0.393 0.075 0.008 0 0.016 0 0.025 0h-0.001c0.004 0 0.009 0 0.013 0 0.142 0 0.276-0.027 0.399-0.078l-0.007 0.002c0.133-0.058 0.246-0.138 0.341-0.234v0c0.194-0.19 0.316-0.454 0.32-0.746v-0.001c0-0.15-0.032-0.294-0.088-0.423l0.002 0.007c-0.057-0.126-0.136-0.233-0.234-0.319l-0.001-0.001zM19.862 16.8c-0.001 0-0.002 0-0.002 0-1.178 0-2.208 0.637-2.763 1.585l-0.008 0.015c-0.105 0.162-0.166 0.36-0.166 0.572 0 0.589 0.478 1.066 1.066 1.066 0.408 0 0.763-0.23 0.942-0.566l0.003-0.006c0.187-0.326 0.532-0.541 0.928-0.541 0.589 0 1.066 0.478 1.066 1.066 0 0.002 0 0.006 0 0.008v-0.001c0 0.589-0.478 1.066-1.066 1.066v0c-0.589 0-1.066 0.478-1.066 1.066s0.478 1.066 1.066 1.066v0c1.767 0 3.2-1.433 3.2-3.2s-1.433-3.2-3.2-3.2v0zM27.466 13.066h-6.698l-0.342-1.066c-0.453-1.254-1.632-2.134-3.017-2.134-0.004 0-0.009 0-0.013 0h-4.863c-1.767 0-3.2 1.433-3.2 3.2v0 13.866c0 1.767 1.433 3.2 3.2 3.2v0h14.934c1.767 0 3.2-1.433 3.2-3.2v0-10.666c0-1.767-1.433-3.2-3.2-3.2v0zM28.534 26.934c0 0.589-0.478 1.066-1.066 1.066v0h-14.934c-0.589 0-1.066-0.478-1.066-1.066v0-13.866c0-0.589 0.478-1.066 1.066-1.066v0h4.864c0.001 0 0.002 0 0.002 0 0.467 0 0.864 0.3 1.008 0.718l0.002 0.007 0.576 1.75c0.146 0.426 0.544 0.726 1.010 0.726 0.001 0 0.002 0 0.003 0h7.466c0.589 0 1.066 0.478 1.066 1.066v0z"></path>
</svg>
