<!-- Generated by IcoMoon.io -->
<svg version="1.1" xmlns="http://www.w3.org/2000/svg" width="40" height="40" viewBox="0 0 40 40">
<title>ul-facebook-messenger</title>
<path fill="#37352f" d="M20 9.334c-0.111-0.004-0.242-0.006-0.374-0.006-5.685 0-10.294 4.609-10.294 10.294 0 0.021 0 0.042 0 0.063v-0.003c-0.001 0.038-0.001 0.082-0.001 0.126 0 2.985 1.29 5.669 3.342 7.525l0.009 0.008c0.166 0.149 0.274 0.359 0.288 0.595v1.901c0.020 0.462 0.398 0.828 0.863 0.828 0.124 0 0.242-0.026 0.348-0.073l-0.006 0.002 2.134-0.928c0.084-0.033 0.181-0.051 0.282-0.051s0.198 0.019 0.288 0.054l-0.006-0.002c0.917 0.258 1.97 0.406 3.058 0.406 0.013 0 0.025 0 0.038 0h-0.002c0.005 0 0.010 0 0.016 0 5.726 0 10.368-4.642 10.368-10.368 0-5.721-4.633-10.359-10.351-10.368h-0.001zM26.4 17.29l-3.126 4.97c-0.288 0.452-0.786 0.747-1.354 0.747-0.362 0-0.697-0.121-0.965-0.323l0.004 0.003-2.496-1.866c-0.106-0.080-0.239-0.128-0.384-0.128s-0.278 0.048-0.386 0.129l0.002-0.001-3.37 2.56c-0.084 0.065-0.19 0.104-0.306 0.104-0.277 0-0.502-0.225-0.502-0.502 0-0.102 0.030-0.198 0.083-0.277l-0.001 0.002 3.126-4.97c0.288-0.452 0.786-0.747 1.354-0.747 0.362 0 0.697 0.121 0.965 0.323l-0.004-0.003 2.496 1.866c0.106 0.080 0.239 0.128 0.384 0.128s0.278-0.048 0.386-0.129l-0.002 0.001 3.37-2.56c0.084-0.065 0.19-0.104 0.306-0.104 0.277 0 0.502 0.225 0.502 0.502 0 0.102-0.030 0.198-0.083 0.277l0.001-0.002z"></path>
</svg>
