<!-- Generated by IcoMoon.io -->
<svg version="1.1" xmlns="http://www.w3.org/2000/svg" width="40" height="40" viewBox="0 0 40 40">
<title>ul-files-landscapes</title>
<path fill="#37352f" d="M31.734 17.802c-0.013-0.107-0.035-0.205-0.067-0.298l0.003 0.010v-0.096c-0.054-0.114-0.122-0.214-0.203-0.299l-6.399-6.399c-0.086-0.081-0.184-0.148-0.292-0.2l-0.007-0.003h-0.096c-0.102-0.059-0.221-0.101-0.347-0.117l-0.005-0.001h-8.586c-1.767 0-3.2 1.433-3.2 3.2v0 1.066h-1.066c-1.767 0-3.2 1.433-3.2 3.2v0 8.534c0 1.767 1.433 3.2 3.2 3.2v0h12.8c1.767 0 3.2-1.433 3.2-3.2v0-1.066h1.066c1.767 0 3.2-1.433 3.2-3.2v0-4.266s0 0 0-0.064zM25.334 14.038l2.762 2.762h-1.696c-0.589 0-1.066-0.478-1.066-1.066v0zM25.334 26.4c0 0.589-0.478 1.066-1.066 1.066v0h-12.8c-0.589 0-1.066-0.478-1.066-1.066v0-8.534c0-0.589 0.478-1.066 1.066-1.066v0h1.066v5.334c0 1.767 1.433 3.2 3.2 3.2v0h9.6zM29.6 22.134c0 0.589-0.478 1.066-1.066 1.066v0h-12.8c-0.589 0-1.066-0.478-1.066-1.066v0-8.534c0-0.589 0.478-1.066 1.066-1.066v0h7.466v3.2c0 1.767 1.433 3.2 3.2 3.2v0h3.2z"></path>
</svg>
