<!-- Generated by IcoMoon.io -->
<svg version="1.1" xmlns="http://www.w3.org/2000/svg" width="40" height="40" viewBox="0 0 40 40">
<title>ul-fast-mail-alt</title>
<path fill="#37352f" d="M23.936 16.8c-0.141-0.738-0.524-1.368-1.062-1.82l-0.005-0.004c-0.559-0.49-1.297-0.79-2.105-0.79-0.010 0-0.020 0-0.030 0h-8.414c-0.014 0-0.032 0-0.049 0-0.957 0-1.815 0.42-2.402 1.085l-0.003 0.003v0.064c-0.461 0.55-0.74 1.266-0.74 2.047 0 0.17 0.014 0.337 0.038 0.499l-0.002-0.018 0.938 5.334c0.274 1.513 1.58 2.646 3.152 2.646 0.017 0 0.034 0 0.051-0.001h8.467c0.978-0.002 1.854-0.443 2.438-1.137l0.004-0.005c0.442-0.545 0.71-1.246 0.71-2.011 0-0.198-0.018-0.391-0.052-0.579l0.003 0.019zM20.298 16.266l-2.496 2.816c-0.196 0.22-0.481 0.358-0.797 0.358-0.257 0-0.493-0.091-0.677-0.242l0.002 0.002-3.616-2.934zM22.538 23.35c-0.195 0.233-0.486 0.381-0.81 0.384h-8.47c-0.005 0-0.010 0-0.015 0-0.525 0-0.962-0.379-1.050-0.879l-0.001-0.006-0.864-4.982 3.658 2.986c0.546 0.446 1.251 0.718 2.019 0.718 0.953 0 1.808-0.416 2.394-1.077l0.003-0.003 2.518-2.838 0.854 4.832c0.010 0.054 0.015 0.115 0.015 0.178 0 0.262-0.094 0.502-0.251 0.687l0.002-0.002zM29.824 18.4h-2.134c-0.589 0-1.066 0.478-1.066 1.066s0.478 1.066 1.066 1.066v0h2.134c0.589 0 1.066-0.478 1.066-1.066s-0.478-1.066-1.066-1.066v0zM29.824 16.266c0.589 0 1.066-0.478 1.066-1.066s-0.478-1.066-1.066-1.066v0h-3.2c-0.589 0-1.066 0.478-1.066 1.066s0.478 1.066 1.066 1.066v0z"></path>
</svg>
