<!-- Generated by IcoMoon.io -->
<svg version="1.1" xmlns="http://www.w3.org/2000/svg" width="40" height="40" viewBox="0 0 40 40">
<title>ul-folder-exclamation</title>
<path fill="#37352f" d="M20.982 24.394c-0.026-0.074-0.058-0.137-0.098-0.194l0.002 0.002c-0.042-0.060-0.084-0.112-0.13-0.162l0.002 0.002-0.16-0.128-0.192-0.096c-0.058-0.030-0.127-0.053-0.199-0.063l-0.003-0.001c-0.063-0.013-0.135-0.021-0.21-0.021-0.293 0-0.558 0.118-0.75 0.309v0l-0.128 0.16c-0.038 0.055-0.070 0.118-0.094 0.186l-0.002 0.006c-0.029 0.055-0.051 0.12-0.063 0.188l-0.001 0.004c-0.002 0.032-0.004 0.069-0.004 0.106s0.002 0.074 0.004 0.111v-0.005c0.002 0.147 0.033 0.286 0.088 0.412l-0.002-0.007c0.058 0.135 0.133 0.252 0.225 0.353l-0.001-0.001c0.194 0.194 0.461 0.315 0.757 0.315 0.146 0 0.286-0.030 0.413-0.083l-0.007 0.002c0.134-0.066 0.25-0.144 0.354-0.236l-0.002 0.002c0.090-0.102 0.169-0.218 0.23-0.343l0.004-0.009c0.035-0.101 0.055-0.218 0.055-0.339 0-0.023-0.001-0.046-0.002-0.070v0.003c0.002-0.032 0.004-0.069 0.004-0.106s-0.002-0.074-0.004-0.111v0.005c-0.020-0.073-0.050-0.137-0.087-0.194l0.002 0.002zM20 18.4c-0.589 0-1.066 0.478-1.066 1.066v0 2.134c0 0.589 0.478 1.066 1.066 1.066s1.066-0.478 1.066-1.066v0-2.134c0-0.589-0.478-1.066-1.066-1.066v0zM27.466 13.066h-6.698l-0.342-1.066c-0.453-1.254-1.632-2.134-3.017-2.134-0.004 0-0.009 0-0.013 0h-4.863c-1.767 0-3.2 1.433-3.2 3.2v0 13.866c0 1.767 1.433 3.2 3.2 3.2v0h14.934c1.767 0 3.2-1.433 3.2-3.2v0-10.666c0-1.767-1.433-3.2-3.2-3.2v0zM28.534 26.934c0 0.589-0.478 1.066-1.066 1.066v0h-14.934c-0.589 0-1.066-0.478-1.066-1.066v0-13.866c0-0.589 0.478-1.066 1.066-1.066v0h4.864c0.001 0 0.002 0 0.002 0 0.467 0 0.864 0.3 1.008 0.718l0.002 0.007 0.576 1.75c0.146 0.426 0.544 0.726 1.010 0.726 0.001 0 0.002 0 0.003 0h7.466c0.589 0 1.066 0.478 1.066 1.066v0z"></path>
</svg>
