<!-- Generated by IcoMoon.io -->
<svg version="1.1" xmlns="http://www.w3.org/2000/svg" width="40" height="40" viewBox="0 0 40 40">
<title>ul-glass-martini-alt-slash</title>
<path fill="#37352f" d="M28.224 24.576l-14.934-14.934c-0.194-0.194-0.462-0.314-0.758-0.314-0.591 0-1.071 0.479-1.071 1.071 0 0.296 0.12 0.563 0.314 0.758v0l2.454 2.442h-1.696c-0.422 0.002-0.785 0.246-0.958 0.602l-0.002 0.006c-0.055 0.125-0.088 0.27-0.088 0.423 0 0.242 0.081 0.466 0.218 0.646l-0.002-0.002 7.232 9.098v4.16h-4.534c-0.589 0-1.066 0.478-1.066 1.066s0.478 1.066 1.066 1.066v0h11.2c0.589 0 1.066-0.478 1.066-1.066s-0.478-1.066-1.066-1.066v0h-4.534v-4.16l1.75-2.134 3.894 3.894c0.194 0.195 0.462 0.315 0.758 0.315s0.564-0.121 0.758-0.315v0c0.208-0.195 0.338-0.472 0.338-0.778s-0.13-0.583-0.337-0.778l-0.001-0.001zM14.752 15.734h1.61l2.016 2.016h-2.016zM20 22.294l-1.93-2.41h2.442l0.79 0.79zM22.838 15.734h2.41l-0.672 0.842c-0.146 0.181-0.234 0.413-0.234 0.666 0 0.333 0.153 0.63 0.391 0.826l0.002 0.002c0.181 0.146 0.414 0.234 0.667 0.234 0.002 0 0.003 0 0.005 0v0c0.001 0 0.002 0 0.004 0 0.334 0 0.631-0.153 0.827-0.393l0.002-0.002 2.058-2.582c0.134-0.177 0.216-0.401 0.216-0.643 0-0.153-0.032-0.298-0.090-0.43l0.002 0.007c-0.16-0.383-0.528-0.65-0.958-0.662h-4.631c-0.589 0-1.066 0.478-1.066 1.066s0.478 1.066 1.066 1.066v0z"></path>
</svg>
