<!-- Generated by IcoMoon.io -->
<svg version="1.1" xmlns="http://www.w3.org/2000/svg" width="40" height="40" viewBox="0 0 40 40">
<title>ul-google-hangouts-alt</title>
<path fill="#37352f" d="M16.791 15.403c-1.178 0-2.134 0.955-2.134 2.134s0.955 2.134 2.134 2.134v0l0.016-0.002v0.535c-0.001 0.294-0.239 0.533-0.534 0.534v0c-0.589 0-1.066 0.478-1.066 1.066s0.478 1.066 1.066 1.066v0c1.472-0.002 2.666-1.194 2.666-2.666v-2.667c-0.007-0.061-0.018-0.115-0.034-0.167l0.002 0.007c-0.082-1.105-0.998-1.97-2.117-1.973v0zM19.99 8.269c-5.766 0-10.44 4.674-10.44 10.44 0 5.39 4.085 9.826 9.327 10.382l0.046 0.004v1.575c0 0 0 0.001 0 0.001 0 0.589 0.477 1.066 1.066 1.066 0.091 0 0.179-0.011 0.263-0.033l-0.007 0.002c5.463-1.386 9.537-6.002 10.094-11.651l0.005-0.055c0.056-0.404 0.088-0.871 0.088-1.346 0-5.734-4.649-10.383-10.383-10.383-0.020 0-0.041 0-0.061 0h0.003zM28.223 19.768c-0.418 4.33-3.234 7.91-7.090 9.425l-0.077 0.026v-1.138c0 0 0-0.001 0-0.001 0-0.589-0.478-1.066-1.066-1.066 0 0-0.001 0-0.001 0v0c-4.587-0.001-8.305-3.719-8.305-8.306s3.719-8.306 8.306-8.306 8.306 3.719 8.306 8.306v0c-0.003 0.377-0.030 0.744-0.080 1.104l0.005-0.044zM23.191 15.403c-1.178 0-2.134 0.955-2.134 2.134s0.955 2.134 2.134 2.134v0l0.016-0.002v0.535c-0.001 0.294-0.239 0.533-0.534 0.534v0c-0.589 0-1.066 0.478-1.066 1.066s0.478 1.066 1.066 1.066v0c1.472-0.002 2.666-1.194 2.666-2.666v-2.667c-0.007-0.061-0.018-0.115-0.034-0.167l0.002 0.007c-0.082-1.105-0.998-1.97-2.117-1.973v0z"></path>
</svg>
