<!-- Generated by IcoMoon.io -->
<svg version="1.1" xmlns="http://www.w3.org/2000/svg" width="40" height="40" viewBox="0 0 40 40">
<title>ul-home-alt</title>
<path fill="#37352f" d="M28.534 15.734v0l-6.4-5.61c-0.563-0.506-1.312-0.815-2.134-0.815s-1.57 0.309-2.136 0.818l0.003-0.002-6.4 5.61c-0.656 0.589-1.066 1.439-1.066 2.386 0 0.009 0 0.018 0 0.027v-0.002 9.322c0 1.767 1.433 3.2 3.2 3.2v0h12.8c1.767 0 3.2-1.433 3.2-3.2v0-9.334c0-0.005 0-0.010 0-0.015 0-0.946-0.41-1.797-1.064-2.382l-0.003-0.002zM22.134 28.534h-4.266v-5.334c0-0.589 0.478-1.066 1.066-1.066v0h2.134c0.589 0 1.066 0.478 1.066 1.066v0zM27.466 27.466c0 0.589-0.478 1.066-1.066 1.066v0h-2.134v-5.334c0-1.767-1.433-3.2-3.2-3.2v0h-2.134c-1.767 0-3.2 1.433-3.2 3.2v0 5.334h-2.134c-0.589 0-1.066-0.478-1.066-1.066v0-9.334c0.001-0.318 0.14-0.604 0.362-0.799l0.001-0.001 6.4-5.6c0.187-0.165 0.434-0.266 0.704-0.266s0.517 0.101 0.705 0.266l-0.001-0.001 6.4 5.6c0.222 0.196 0.362 0.482 0.362 0.8v0z"></path>
</svg>
