<!-- Generated by IcoMoon.io -->
<svg version="1.1" xmlns="http://www.w3.org/2000/svg" width="40" height="40" viewBox="0 0 40 40">
<title>ul-heart-rate</title>
<path fill="#37352f" d="M29.6 18.934h-4.202c-0.034-0.005-0.073-0.007-0.112-0.007s-0.078 0.002-0.116 0.008l0.004-0.001h-0.182c-0.062 0.035-0.114 0.070-0.163 0.109l0.003-0.002c-0.065 0.043-0.12 0.085-0.173 0.13l0.002-0.002c-0.034 0.041-0.065 0.086-0.094 0.134l-0.002 0.005c-0.046 0.062-0.088 0.131-0.124 0.205l-0.004 0.008-1.706 4.704-4.448-12.054c-0.153-0.414-0.544-0.702-1.002-0.702s-0.85 0.29-1 0.695l-0.002 0.007-2.464 6.762h-3.414c-0.589 0-1.066 0.478-1.066 1.066s0.478 1.066 1.066 1.066v0h4.586c0.065-0.032 0.121-0.067 0.173-0.108l-0.002 0.002c0.065-0.043 0.12-0.085 0.173-0.13l-0.002 0.002 0.096-0.138c0.048-0.062 0.091-0.132 0.126-0.206l0.002-0.006 1.728-4.832 4.438 12.182c0.153 0.414 0.544 0.704 1.002 0.704v0c0.459 0 0.85-0.29 1-0.697l0.002-0.007 2.454-6.762h3.424c0.589 0 1.066-0.478 1.066-1.066s-0.478-1.066-1.066-1.066v0z"></path>
</svg>
