<!-- Generated by IcoMoon.io -->
<svg version="1.1" xmlns="http://www.w3.org/2000/svg" width="40" height="40" viewBox="0 0 40 40">
<title>ul-heart-break</title>
<path fill="#37352f" d="M28.704 12.118c-1.21-1.21-2.882-1.959-4.73-1.959-1.496 0-2.878 0.491-3.992 1.322l0.018-0.013c-1.1-0.826-2.488-1.322-3.991-1.322-3.694 0-6.688 2.994-6.688 6.688 0 1.855 0.755 3.534 1.975 4.746v0l7.946 7.958c0.194 0.195 0.462 0.315 0.758 0.315s0.564-0.121 0.758-0.315v0l7.946-7.958c1.211-1.21 1.961-2.883 1.961-4.73s-0.749-3.52-1.96-4.73v0zM27.2 20.064l-7.2 7.2-7.2-7.2c-0.845-0.826-1.369-1.977-1.369-3.251 0-2.51 2.034-4.544 4.544-4.544 1.032 0 1.983 0.344 2.746 0.923l-0.011-0.008-1.824 4.266c-0.061 0.13-0.096 0.282-0.096 0.442s0.035 0.313 0.099 0.45l-0.002-0.006c0.138 0.278 0.386 0.485 0.686 0.564l0.007 0.002 2.954 0.746-1.494 3.082c-0.069 0.138-0.11 0.299-0.11 0.47 0 0.419 0.242 0.782 0.594 0.956l0.006 0.003c0.136 0.067 0.296 0.106 0.465 0.106 0.002 0 0.003 0 0.005 0v0c0.001 0 0.002 0 0.002 0 0.418 0 0.78-0.241 0.955-0.591l2.137-4.273c0.066-0.134 0.104-0.292 0.104-0.458s-0.038-0.325-0.106-0.465l0.002 0.006c-0.144-0.287-0.398-0.5-0.707-0.585l-0.008-0.002-3.018-0.758 1.546-3.616c0.817-0.79 1.93-1.276 3.158-1.276 2.51 0 4.545 2.035 4.545 4.545 0 1.283-0.531 2.442-1.386 3.268l-0.002 0.002z"></path>
</svg>
