<!-- Generated by IcoMoon.io -->
<svg version="1.1" xmlns="http://www.w3.org/2000/svg" width="40" height="40" viewBox="0 0 40 40">
<title>ul-heart-alt</title>
<path fill="#37352f" d="M28.704 12.118c-1.21-1.21-2.882-1.959-4.73-1.959-1.496 0-2.878 0.491-3.992 1.322l0.018-0.013c-1.1-0.826-2.488-1.322-3.991-1.322-3.694 0-6.688 2.994-6.688 6.688 0 1.855 0.755 3.534 1.975 4.746l7.947 7.947c0.194 0.195 0.462 0.315 0.758 0.315s0.564-0.121 0.758-0.315l7.946-7.946c1.211-1.21 1.961-2.883 1.961-4.73s-0.749-3.52-1.96-4.73v0zM27.2 20.074l-7.2 7.19-7.2-7.19c-0.822-0.826-1.33-1.964-1.33-3.222 0-2.509 2.024-4.546 4.529-4.565h0.002c1.25 0.003 2.382 0.512 3.2 1.333v0c0.194 0.195 0.462 0.315 0.758 0.315s0.564-0.121 0.758-0.315v0c0.794-0.691 1.839-1.113 2.982-1.113 2.515 0 4.554 2.039 4.554 4.554 0 1.157-0.431 2.213-1.142 3.016l0.004-0.005z"></path>
</svg>
