<!-- Generated by IcoMoon.io -->
<svg version="1.1" xmlns="http://www.w3.org/2000/svg" width="40" height="40" viewBox="0 0 40 40">
<title>ul-image-redo</title>
<path fill="#37352f" d="M30.134 8.8c-0.589 0-1.066 0.478-1.066 1.066v0 0c-0.881-0.668-1.996-1.070-3.204-1.070-2.946 0-5.334 2.388-5.334 5.334s2.388 5.334 5.334 5.334c1.354 0 2.59-0.504 3.53-1.335l-0.006 0.005c0.225-0.197 0.366-0.485 0.366-0.806 0-0.59-0.479-1.070-1.070-1.070-0.27 0-0.517 0.1-0.706 0.266l0.002-0.001c-0.562 0.498-1.304 0.801-2.118 0.801-1.767 0-3.2-1.433-3.2-3.2s1.433-3.2 3.2-3.2c0.946 0 1.796 0.41 2.382 1.062l0.002 0.003h-1.312c-0.589 0-1.066 0.478-1.066 1.066s0.478 1.066 1.066 1.066v0h3.2c0.589 0 1.066-0.478 1.066-1.066v0-3.2c-0.006-0.585-0.482-1.056-1.066-1.056 0 0 0 0 0 0v0zM26.934 21.6c-0.589 0-1.066 0.478-1.066 1.066v0 0.416l-1.6-1.578c-0.535-0.538-1.277-0.872-2.096-0.872s-1.561 0.334-2.096 0.872l-0.747 0.747-2.624-2.656c-0.538-0.534-1.278-0.863-2.096-0.863s-1.558 0.33-2.096 0.863l-1.578 1.578v-5.974c0-0.589 0.478-1.066 1.066-1.066v0h5.334c0.589 0 1.066-0.478 1.066-1.066s-0.478-1.066-1.066-1.066v0h-5.334c-1.767 0-3.2 1.433-3.2 3.2v0 12.8c0 1.767 1.433 3.2 3.2 3.2v0h12.8c1.767 0 3.2-1.433 3.2-3.2v0-5.334c0-0.589-0.478-1.066-1.066-1.066v0zM12 29.066c-0.589 0-1.066-0.478-1.066-1.066v0-3.808l3.094-3.126c0.151-0.144 0.356-0.233 0.582-0.233s0.43 0.089 0.582 0.233l3.381 3.381 4.63 4.618zM25.866 28c-0.010 0.213-0.080 0.407-0.194 0.569l0.002-0.003-4.81-4.81 0.746-0.746c0.15-0.15 0.358-0.242 0.586-0.242s0.436 0.093 0.586 0.242v0l3.082 3.094z"></path>
</svg>
