<!-- Generated by IcoMoon.io -->
<svg version="1.1" xmlns="http://www.w3.org/2000/svg" width="40" height="40" viewBox="0 0 40 40">
<title>ul-instagram-alt</title>
<path fill="#37352f" d="M20 17.354c-1.461 0-2.646 1.184-2.646 2.646s1.184 2.646 2.646 2.646c1.461 0 2.646-1.184 2.646-2.646v0c0-1.461-1.184-2.646-2.646-2.646v0zM30.592 14.742c-0.006-0.868-0.17-1.695-0.464-2.458l0.016 0.047c-0.442-1.144-1.33-2.032-2.446-2.465l-0.029-0.010c-0.715-0.278-1.543-0.442-2.408-0.448h-0.002c-1.376-0.074-1.782-0.074-5.258-0.074s-3.882 0-5.258 0.074c-0.868 0.006-1.695 0.17-2.458 0.464l0.047-0.016c-1.144 0.442-2.032 1.33-2.465 2.446l-0.010 0.029c-0.278 0.715-0.442 1.543-0.448 2.408v0.002c-0.074 1.376-0.074 1.782-0.074 5.258s0 3.882 0.074 5.258c0.013 0.872 0.176 1.703 0.465 2.472l-0.017-0.050c0.225 0.583 0.555 1.082 0.97 1.493v0c0.414 0.418 0.916 0.749 1.475 0.961l0.029 0.010c0.715 0.278 1.543 0.442 2.408 0.448h0.002c1.376 0.074 1.782 0.074 5.258 0.074s3.882 0 5.258-0.074c0.868-0.006 1.695-0.17 2.458-0.464l-0.047 0.016c0.588-0.222 1.090-0.553 1.504-0.97v0c0.416-0.412 0.746-0.91 0.961-1.465l0.010-0.029c0.278-0.718 0.442-1.55 0.448-2.418v-0.002c0.074-1.376 0.074-1.782 0.074-5.258s0-3.882-0.074-5.258zM27.882 23.274c-0.038 0.7-0.186 1.354-0.43 1.961l0.014-0.041c-0.427 1.037-1.235 1.845-2.245 2.262l-0.027 0.010c-0.571 0.217-1.232 0.352-1.922 0.373h-0.009c-0.842 0-1.066 0-3.264 0s-2.422 0-3.264 0c-0.698-0.021-1.359-0.156-1.973-0.387l0.042 0.014c-0.549-0.207-1.015-0.52-1.396-0.916l-0.001-0.002c-0.377-0.373-0.674-0.825-0.866-1.329l-0.009-0.026c-0.218-0.573-0.35-1.234-0.362-1.926v-0.006c0-0.842 0-1.066 0-3.264s0-2.422 0-3.264c0.012-0.696 0.144-1.358 0.376-1.971l-0.014 0.040c0.207-0.549 0.52-1.015 0.916-1.396l0.002-0.001c0.374-0.374 0.826-0.671 1.329-0.866l0.026-0.009c0.571-0.217 1.232-0.352 1.922-0.373h0.009c0.842 0 1.066 0 3.264 0s2.422 0 3.264 0c0.698 0.021 1.359 0.156 1.973 0.387l-0.042-0.014c0.549 0.207 1.015 0.52 1.396 0.916l0.001 0.002c0.377 0.373 0.674 0.825 0.866 1.329l0.009 0.026c0.217 0.571 0.352 1.232 0.373 1.922v0.009c0 0.842 0 1.066 0 3.264s0.074 2.422 0.042 3.264zM26.176 15.338c-0.263-0.699-0.805-1.241-1.486-1.498l-0.018-0.006c-0.417-0.149-0.897-0.235-1.398-0.235-0.026 0-0.053 0-0.078 0.001h0.004c-0.832 0-1.066 0-3.2 0s-2.368 0-3.2 0c-0.53 0.006-1.035 0.106-1.501 0.287l0.029-0.010c-0.69 0.251-1.229 0.773-1.498 1.434l-0.006 0.017c-0.142 0.422-0.225 0.907-0.225 1.412 0 0.021 0 0.042 0.001 0.063v-0.003c0 0.832 0 1.066 0 3.2s0 2.368 0 3.2c0.011 0.531 0.112 1.036 0.288 1.503l-0.010-0.031c0.263 0.699 0.805 1.241 1.486 1.498l0.018 0.006c0.42 0.159 0.905 0.259 1.411 0.277h0.008c0.832 0 1.066 0 3.2 0s2.368 0 3.2 0c0.53-0.006 1.035-0.106 1.501-0.287l-0.029 0.010c0.699-0.263 1.241-0.805 1.498-1.486l0.006-0.018c0.17-0.437 0.272-0.942 0.278-1.47v-0.002c0-0.832 0-1.066 0-3.2s0-2.368 0-3.2c0-0.001 0-0.002 0-0.002 0-0.529-0.102-1.034-0.287-1.497l0.010 0.027zM20 24.074c0 0 0 0 0 0-2.245 0-4.064-1.819-4.064-4.064 0-0.004 0-0.007 0-0.011v0.001c0-2.25 1.824-4.074 4.074-4.074s4.074 1.824 4.074 4.074c0 2.25-1.824 4.074-4.074 4.074-0.004 0-0.007 0-0.011 0h0.001zM24.266 16.726c-0.485-0.053-0.859-0.46-0.859-0.954s0.374-0.902 0.854-0.954h0.004c0.485 0.053 0.859 0.46 0.859 0.954s-0.374 0.902-0.854 0.954h-0.004z"></path>
</svg>
