<!-- Generated by IcoMoon.io -->
<svg version="1.1" xmlns="http://www.w3.org/2000/svg" width="40" height="40" viewBox="0 0 40 40">
<title>ul-image-slash</title>
<path fill="#37352f" d="M28 11.466h-10.134c-0.589 0-1.066 0.478-1.066 1.066s0.478 1.066 1.066 1.066v0h10.134c0.589 0 1.066 0.478 1.066 1.066v0 7.21l-2.006-2.006c-0.334-0.332-0.74-0.591-1.194-0.75l-0.022-0.007c-0.102-0.035-0.219-0.056-0.342-0.056-0.59 0-1.070 0.478-1.070 1.070 0 0.469 0.301 0.866 0.721 1.011l0.007 0.002c0.153 0.049 0.282 0.134 0.383 0.245l0.001 0.001 3.53 3.51c-0.003 0.024-0.005 0.052-0.005 0.080s0.002 0.056 0.005 0.083v-0.003c-0.002 0.024-0.004 0.052-0.004 0.080s0.002 0.056 0.004 0.083v-0.003c0.043 0.073 0.089 0.135 0.14 0.194l-0.001-0.002c0.027 0.045 0.059 0.083 0.095 0.117h0.001c0.062 0.058 0.132 0.107 0.208 0.147l0.006 0.002c0.034 0.024 0.073 0.045 0.113 0.062l0.004 0.002c0.116 0.054 0.251 0.085 0.394 0.086v0c0.589 0 1.066-0.478 1.066-1.066v0-10.090c0-0.001 0-0.001 0-0.002 0-1.734-1.378-3.145-3.099-3.198h-0.005zM10.624 9.642c-0.194-0.194-0.462-0.314-0.758-0.314-0.591 0-1.071 0.479-1.071 1.071 0 0.296 0.12 0.563 0.314 0.758l1.482 1.482c-0.451 0.547-0.725 1.255-0.726 2.026v10.666c0 1.767 1.433 3.2 3.2 3.2v0h13.43l1.814 1.824c0.194 0.195 0.462 0.315 0.758 0.315s0.564-0.121 0.758-0.315v0c0.195-0.194 0.315-0.462 0.315-0.758s-0.121-0.564-0.315-0.758v0zM12 14.666c0.003-0.18 0.050-0.349 0.13-0.496l-0.002 0.006 2.902 2.89c-0.414 0.16-0.769 0.388-1.068 0.674l0.002-0.002-1.962 2.006zM13.066 26.4c-0.589 0-1.066-0.478-1.066-1.066v0-2.582l3.52-3.51c0.192-0.189 0.456-0.305 0.746-0.305s0.554 0.116 0.747 0.305l7.157 7.157z"></path>
</svg>
