<!-- Generated by IcoMoon.io -->
<svg version="1.1" xmlns="http://www.w3.org/2000/svg" width="40" height="40" viewBox="0 0 40 40">
<title>ul-image-plus</title>
<path fill="#37352f" d="M27.466 17.866c-0.589 0-1.066 0.478-1.066 1.066v0 3.606l-1.578-1.578c-0.538-0.534-1.278-0.863-2.096-0.863s-1.558 0.33-2.096 0.863v0l-0.746 0.758-2.646-2.656c-0.538-0.534-1.278-0.863-2.096-0.863s-1.558 0.33-2.096 0.863v0l-1.578 1.59v-5.984c0-0.589 0.478-1.066 1.066-1.066v0h8.534c0.589 0 1.066-0.478 1.066-1.066s-0.478-1.066-1.066-1.066v0h-8.534c-1.767 0-3.2 1.433-3.2 3.2v0 13.034c0.006 1.635 1.33 2.959 2.965 2.966h13.27c0.305-0.002 0.598-0.049 0.875-0.134l-0.022 0.006c1.241-0.356 2.134-1.481 2.134-2.814 0-0.005 0-0.009 0-0.014v0.001-8.778c0 0 0 0 0 0 0-0.589-0.478-1.066-1.066-1.066-0.007 0-0.015 0-0.022 0h0.001zM12.534 28.534c-0.589 0-1.066-0.478-1.066-1.066v0-3.808l3.082-3.082c0.15-0.15 0.358-0.242 0.586-0.242s0.436 0.093 0.586 0.242v0l7.968 7.958zM26.4 27.466c-0.007 0.217-0.078 0.415-0.194 0.579l0.002-0.003-4.822-4.842 0.758-0.746c0.149-0.152 0.357-0.246 0.586-0.246s0.438 0.094 0.586 0.246v0l3.082 3.104zM29.6 11.466h-1.066v-1.066c0-0.589-0.478-1.066-1.066-1.066s-1.066 0.478-1.066 1.066v0 1.066h-1.066c-0.589 0-1.066 0.478-1.066 1.066s0.478 1.066 1.066 1.066v0h1.066v1.066c0 0.589 0.478 1.066 1.066 1.066s1.066-0.478 1.066-1.066v0-1.066h1.066c0.589 0 1.066-0.478 1.066-1.066s-0.478-1.066-1.066-1.066v0z"></path>
</svg>
