<!-- Generated by IcoMoon.io -->
<svg version="1.1" xmlns="http://www.w3.org/2000/svg" width="40" height="40" viewBox="0 0 40 40">
<title>ul-jackhammer</title>
<path fill="#37352f" d="M27.306 23.936c-0.193-0.192-0.458-0.31-0.752-0.31s-0.559 0.118-0.752 0.31l-2.198 2.198c-0.191 0.193-0.31 0.458-0.31 0.751 0 0.49 0.331 0.904 0.782 1.028l0.007 0.002 0.278 0.074-0.854 0.854c-0.195 0.194-0.315 0.462-0.315 0.758s0.121 0.564 0.315 0.758v0c0.194 0.195 0.462 0.315 0.758 0.315s0.564-0.121 0.758-0.315l2.134-2.134c0.198-0.194 0.322-0.464 0.322-0.763 0-0.108-0.016-0.213-0.046-0.311l0.002 0.007c-0.101-0.37-0.386-0.657-0.75-0.755l-0.285-0.066 0.886-0.896c0.198-0.194 0.321-0.464 0.321-0.762 0-0.288-0.114-0.55-0.3-0.742v0zM15.638 27.99l0.278-0.074c0.458-0.126 0.79-0.539 0.79-1.030 0-0.293-0.118-0.558-0.31-0.751l-2.198-2.198c-0.186-0.159-0.428-0.257-0.694-0.257-0.589 0-1.066 0.478-1.066 1.066 0 0.266 0.097 0.509 0.258 0.695l-0.001-0.002 0.886 0.896-0.278 0.064c-0.37 0.101-0.657 0.386-0.755 0.75l-0.002 0.007c-0.028 0.091-0.044 0.195-0.044 0.303 0 0.299 0.123 0.57 0.322 0.763l2.134 2.134c0.194 0.195 0.462 0.315 0.758 0.315s0.564-0.121 0.758-0.315v0c0.195-0.194 0.315-0.462 0.315-0.758s-0.121-0.564-0.315-0.758v0zM29.6 11.466c-0.589 0-1.066 0.478-1.066 1.066v0h-3.2c0-1.767-1.433-3.2-3.2-3.2v0h-4.266c-1.767 0-3.2 1.433-3.2 3.2v0h-3.2c0-0.589-0.478-1.066-1.066-1.066s-1.066 0.478-1.066 1.066v0 2.134c0 0.589 0.478 1.066 1.066 1.066s1.066-0.478 1.066-1.066v0h3.2v2.134c0 0.001 0 0.001 0 0.002 0 1.385 0.88 2.565 2.111 3.010l0.022 0.007v1.248c0 1.178 0.955 2.134 2.134 2.134v0 6.4c0 0.589 0.478 1.066 1.066 1.066s1.066-0.478 1.066-1.066v0-6.4c1.178 0 2.134-0.955 2.134-2.134v0-1.248c1.254-0.453 2.134-1.632 2.134-3.017 0-0.001 0-0.001 0-0.002v0-2.134h3.2c0 0.589 0.478 1.066 1.066 1.066s1.066-0.478 1.066-1.066v0-2.134c0-0.589-0.478-1.066-1.066-1.066v0zM23.2 16.8c0 0.589-0.478 1.066-1.066 1.066v0c-0.589 0-1.066 0.478-1.066 1.066v0 2.134h-2.134v-2.134c0-0.589-0.478-1.066-1.066-1.066v0c-0.589 0-1.066-0.478-1.066-1.066v0-4.266c0-0.589 0.478-1.066 1.066-1.066v0h4.266c0.589 0 1.066 0.478 1.066 1.066v0zM20 13.6c-0.589 0-1.066 0.478-1.066 1.066v0 1.066c0 0.589 0.478 1.066 1.066 1.066s1.066-0.478 1.066-1.066v0-1.066c0-0.589-0.478-1.066-1.066-1.066v0z"></path>
</svg>
