<!-- Generated by IcoMoon.io -->
<svg version="1.1" xmlns="http://www.w3.org/2000/svg" width="40" height="40" viewBox="0 0 40 40">
<title>ul-keyboard-show</title>
<path fill="#37352f" d="M14.358 18.176c-0.194-0.195-0.462-0.315-0.758-0.315-0.589 0-1.066 0.478-1.066 1.066 0 0.002 0 0.004 0 0.006v0c0 0.004 0 0.008 0 0.013 0 0.589 0.478 1.066 1.066 1.066s1.066-0.478 1.066-1.066c0-0.151-0.031-0.294-0.088-0.425l0.002 0.007c-0.054-0.137-0.13-0.254-0.224-0.352v0zM17.11 15.424c0.193 0.191 0.458 0.31 0.751 0.31 0.002 0 0.004 0 0.006 0v0c0.002 0 0.004 0 0.006 0 0.293 0 0.558-0.118 0.751-0.31v0c0.091-0.1 0.166-0.217 0.221-0.344l0.003-0.008c0.052-0.119 0.083-0.258 0.086-0.405v-0.001c-0.004-0.294-0.122-0.561-0.31-0.758l0.001 0.001-0.16-0.128-0.192-0.096c-0.058-0.038-0.126-0.067-0.198-0.085l-0.004-0.001c-0.063-0.013-0.135-0.021-0.21-0.021-0.293 0-0.558 0.118-0.75 0.309v0c-0.094 0.098-0.17 0.215-0.222 0.345l-0.002 0.007c-0.054 0.119-0.086 0.258-0.086 0.406s0.031 0.286 0.088 0.412l-0.002-0.006c0.055 0.144 0.131 0.267 0.225 0.374l-0.001-0.002zM14.198 13.782c-0.055-0.038-0.118-0.070-0.186-0.094l-0.006-0.002-0.192-0.086c-0.066-0.014-0.141-0.022-0.218-0.022-0.294 0-0.559 0.118-0.753 0.31v0c-0.094 0.098-0.17 0.215-0.222 0.345l-0.002 0.007c-0.054 0.119-0.086 0.258-0.086 0.406s0.031 0.286 0.088 0.412l-0.002-0.006c0.058 0.135 0.133 0.252 0.225 0.353l-0.001-0.001c0.1 0.091 0.217 0.166 0.344 0.221l0.008 0.003c0.118 0.064 0.256 0.103 0.404 0.106h0.001c0.002 0 0.004 0 0.006 0 0.293 0 0.558-0.118 0.751-0.31v0c0.091-0.1 0.166-0.217 0.221-0.344l0.003-0.008c0.052-0.119 0.083-0.258 0.086-0.405v-0.001c-0.004-0.294-0.122-0.561-0.31-0.758l0.001 0.001zM20.758 26.71c-0.194-0.195-0.462-0.315-0.758-0.315s-0.564 0.121-0.758 0.315l-2.134 2.134c-0.194 0.194-0.314 0.462-0.314 0.758 0 0.591 0.479 1.071 1.071 1.071 0.296 0 0.563-0.12 0.758-0.314v0l1.376-1.386 1.376 1.386c0.194 0.195 0.462 0.315 0.758 0.315s0.564-0.121 0.758-0.315v0c0.195-0.194 0.315-0.462 0.315-0.758s-0.121-0.564-0.315-0.758v0zM27.158 18.176c-0.194-0.195-0.462-0.315-0.758-0.315s-0.564 0.121-0.758 0.315v0c-0.094 0.098-0.17 0.215-0.222 0.345l-0.002 0.007c-0.048 0.118-0.076 0.254-0.076 0.396 0 0.589 0.478 1.066 1.066 1.066 0.143 0 0.279-0.028 0.403-0.079l-0.007 0.002c0.135-0.058 0.252-0.133 0.353-0.225l-0.001 0.001c0.191-0.193 0.31-0.458 0.31-0.751 0-0.002 0-0.004 0-0.006v0c0-0.007 0-0.015 0-0.023 0-0.139-0.031-0.27-0.088-0.388l0.002 0.006c-0.054-0.137-0.13-0.254-0.224-0.352v0zM22.134 17.866h-4.266c-0.589 0-1.066 0.478-1.066 1.066s0.478 1.066 1.066 1.066v0h4.266c0.589 0 1.066-0.478 1.066-1.066s-0.478-1.066-1.066-1.066v0zM28.534 9.334h-17.066c-1.767 0-3.2 1.433-3.2 3.2v0 8.534c0 1.767 1.433 3.2 3.2 3.2v0h17.066c1.767 0 3.2-1.433 3.2-3.2v0-8.534c0-1.767-1.433-3.2-3.2-3.2v0zM29.6 21.066c0 0.589-0.478 1.066-1.066 1.066v0h-17.066c-0.589 0-1.066-0.478-1.066-1.066v0-8.534c0-0.589 0.478-1.066 1.066-1.066v0h17.066c0.589 0 1.066 0.478 1.066 1.066v0zM25.994 13.686c-0.138 0.052-0.254 0.128-0.352 0.224v0c-0.188 0.197-0.305 0.463-0.31 0.757v0.001c0.002 0.147 0.033 0.286 0.088 0.412l-0.002-0.007c0.058 0.135 0.133 0.252 0.225 0.353l-0.001-0.001c0.193 0.191 0.458 0.31 0.751 0.31 0.002 0 0.004 0 0.006 0v0c0.002 0 0.004 0 0.006 0 0.293 0 0.558-0.118 0.751-0.31v0c0.091-0.1 0.166-0.217 0.221-0.344l0.003-0.008c0.052-0.119 0.083-0.258 0.086-0.405v-0.001c-0.004-0.294-0.122-0.561-0.31-0.758l0.001 0.001c-0.193-0.19-0.457-0.307-0.749-0.307-0.15 0-0.291 0.030-0.421 0.086l0.007-0.002zM22.73 13.782l-0.192-0.096-0.192-0.086c-0.062-0.013-0.132-0.020-0.204-0.020-0.15 0-0.292 0.031-0.422 0.086l0.007-0.002c-0.138 0.052-0.254 0.128-0.352 0.224v0c-0.094 0.098-0.17 0.215-0.222 0.345l-0.002 0.007c-0.054 0.119-0.086 0.258-0.086 0.406s0.031 0.286 0.088 0.412l-0.002-0.006c0.058 0.135 0.133 0.252 0.225 0.353l-0.001-0.001c0.191 0.201 0.459 0.326 0.757 0.33h0.001c0.002 0 0.004 0 0.006 0 0.293 0 0.558-0.118 0.751-0.31v0c0.091-0.1 0.166-0.217 0.221-0.344l0.003-0.008c0.052-0.119 0.083-0.258 0.086-0.405v-0.001c-0.004-0.294-0.122-0.561-0.31-0.758l0.001 0.001z"></path>
</svg>
