<!-- Generated by IcoMoon.io -->
<svg version="1.1" xmlns="http://www.w3.org/2000/svg" width="40" height="40" viewBox="0 0 40 40">
<title>ul-lightbulb-alt</title>
<path fill="#37352f" d="M25.43 10.208c-1.462-1.209-3.355-1.942-5.421-1.942-0.603 0-1.192 0.062-1.761 0.182l0.055-0.010c-3.39 0.702-6.012 3.342-6.679 6.687l-0.009 0.054c-0.095 0.48-0.15 1.032-0.15 1.596 0 2.097 0.75 4.018 1.995 5.511l-0.011-0.014c0.724 0.814 1.178 1.881 1.216 3.054v3.208c0 1.767 1.433 3.2 3.2 3.2v0h4.266c1.767 0 3.2-1.433 3.2-3.2v0-2.998c0.038-1.304 0.524-2.488 1.308-3.41l-0.006 0.008c1.182-1.452 1.897-3.325 1.897-5.365 0-2.643-1.202-5.006-3.089-6.57l-0.014-0.011zM23.2 28.534c0 0.589-0.478 1.066-1.066 1.066v0h-4.266c-0.589 0-1.066-0.478-1.066-1.066v0-1.066h6.4zM24.982 20.81c-1.034 1.22-1.692 2.786-1.781 4.504l-0.001 0.018h-2.134v-3.2c0-0.589-0.478-1.066-1.066-1.066s-1.066 0.478-1.066 1.066v0 3.2h-2.134c-0.030-1.706-0.671-3.255-1.714-4.446l0.007 0.008c-0.925-1.102-1.486-2.536-1.486-4.101 0-3.075 2.169-5.644 5.061-6.26l0.042-0.007c0.388-0.083 0.834-0.131 1.29-0.131 3.534 0 6.4 2.866 6.4 6.4 0 0.002 0 0.002 0 0.004v0c0 0.010 0 0.022 0 0.034 0 1.514-0.535 2.903-1.427 3.987l0.009-0.011z"></path>
</svg>
