<!-- Generated by IcoMoon.io -->
<svg version="1.1" xmlns="http://www.w3.org/2000/svg" width="40" height="40" viewBox="0 0 40 40">
<title>ul-list-ul</title>
<path fill="#37352f" d="M11.158 24.576c-0.098-0.094-0.215-0.17-0.345-0.222l-0.007-0.002c-0.12-0.050-0.259-0.080-0.406-0.080s-0.286 0.030-0.412 0.082l0.007-0.002c-0.137 0.054-0.254 0.13-0.352 0.224v0c-0.094 0.098-0.17 0.215-0.222 0.345l-0.002 0.007c-0.053 0.122-0.083 0.264-0.083 0.414 0 0.292 0.118 0.557 0.307 0.75v0c0.1 0.091 0.217 0.166 0.344 0.221l0.008 0.003c0.119 0.054 0.258 0.086 0.406 0.086s0.286-0.031 0.412-0.088l-0.006 0.002c0.135-0.058 0.252-0.133 0.353-0.225l-0.001 0.001c0.19-0.193 0.307-0.457 0.307-0.749 0-0.15-0.030-0.291-0.086-0.421l0.002 0.007c-0.054-0.137-0.13-0.254-0.224-0.352v0zM14.666 15.734h14.934c0.589 0 1.066-0.478 1.066-1.066s-0.478-1.066-1.066-1.066v0h-14.934c-0.589 0-1.066 0.478-1.066 1.066s0.478 1.066 1.066 1.066v0zM11.158 19.242c-0.193-0.19-0.457-0.307-0.749-0.307-0.15 0-0.291 0.030-0.421 0.086l0.007-0.002c-0.135 0.058-0.252 0.133-0.353 0.225l0.001-0.001c-0.094 0.098-0.17 0.215-0.222 0.345l-0.002 0.007c-0.054 0.119-0.086 0.258-0.086 0.406s0.031 0.286 0.088 0.412l-0.002-0.006c0.058 0.135 0.133 0.252 0.225 0.353l-0.001-0.001c0.1 0.091 0.217 0.166 0.344 0.221l0.008 0.003c0.119 0.054 0.258 0.086 0.406 0.086s0.286-0.031 0.412-0.088l-0.006 0.002c0.135-0.058 0.252-0.133 0.353-0.225l-0.001 0.001c0.091-0.1 0.166-0.217 0.221-0.344l0.003-0.008c0.054-0.119 0.086-0.258 0.086-0.406s-0.031-0.286-0.088-0.412l0.002 0.006c-0.054-0.137-0.13-0.254-0.224-0.352v0zM29.6 18.934h-14.934c-0.589 0-1.066 0.478-1.066 1.066s0.478 1.066 1.066 1.066v0h14.934c0.589 0 1.066-0.478 1.066-1.066s-0.478-1.066-1.066-1.066v0zM11.158 13.91c-0.098-0.094-0.215-0.17-0.345-0.222l-0.007-0.002c-0.122-0.053-0.264-0.083-0.414-0.083-0.292 0-0.557 0.118-0.75 0.307v0c-0.091 0.1-0.166 0.217-0.221 0.344l-0.003 0.008c-0.054 0.119-0.086 0.258-0.086 0.406s0.031 0.286 0.088 0.412l-0.002-0.006c0.058 0.135 0.133 0.252 0.225 0.353l-0.001-0.001c0.1 0.091 0.217 0.166 0.344 0.221l0.008 0.003c0.122 0.053 0.264 0.083 0.414 0.083 0.292 0 0.557-0.118 0.75-0.307v0c0.091-0.1 0.166-0.217 0.221-0.344l0.003-0.008c0.054-0.119 0.086-0.258 0.086-0.406s-0.031-0.286-0.088-0.412l0.002 0.006c-0.058-0.135-0.133-0.252-0.225-0.353l0.001 0.001zM29.6 24.266h-14.934c-0.589 0-1.066 0.478-1.066 1.066s0.478 1.066 1.066 1.066v0h14.934c0.589 0 1.066-0.478 1.066-1.066s-0.478-1.066-1.066-1.066v0z"></path>
</svg>
