<!-- Generated by IcoMoon.io -->
<svg version="1.1" xmlns="http://www.w3.org/2000/svg" width="40" height="40" viewBox="0 0 40 40">
<title>ul-label</title>
<path fill="#37352f" d="M30.358 19.242l-5.334-5.334c-0.193-0.191-0.458-0.31-0.751-0.31-0.002 0-0.004 0-0.006 0h-11.733c-1.767 0-3.2 1.433-3.2 3.2v0 6.4c0 1.767 1.433 3.2 3.2 3.2v0h11.734c0.002 0 0.004 0 0.006 0 0.293 0 0.558-0.118 0.751-0.31l5.334-5.334c0.195-0.194 0.315-0.462 0.315-0.758s-0.121-0.564-0.315-0.758v0zM23.83 24.266h-11.296c-0.589 0-1.066-0.478-1.066-1.066v0-6.4c0-0.589 0.478-1.066 1.066-1.066v0h11.296l4.266 4.266z"></path>
</svg>
