<!-- Generated by IcoMoon.io -->
<svg version="1.1" xmlns="http://www.w3.org/2000/svg" width="40" height="40" viewBox="0 0 40 40">
<title>ul-letter-hindi-a</title>
<path fill="#37352f" d="M28.557 10.4h-5.334c-0.589 0-1.066 0.478-1.066 1.066s0.478 1.066 1.066 1.066v0h1.6v6.4h-5.28c0.678-0.876 1.090-1.99 1.094-3.199v-0.001c0-2.946-2.388-5.334-5.334-5.334-1.964 0-3.679 1.061-4.605 2.642l-0.014 0.025c-0.091 0.154-0.146 0.34-0.146 0.538 0 0.589 0.478 1.066 1.066 1.066 0.394 0 0.739-0.214 0.923-0.533l0.002-0.005c0.563-0.963 1.594-1.601 2.772-1.601 1.767 0 3.2 1.433 3.2 3.2s-1.433 3.2-3.2 3.2v0c-0.589 0-1.066 0.478-1.066 1.066s0.478 1.066 1.066 1.066v0c1.767 0 3.199 1.433 3.199 3.2s-1.433 3.2-3.2 3.2c-1.178 0-2.208-0.637-2.763-1.585l-0.008-0.015c-0.188-0.319-0.53-0.53-0.922-0.53-0.589 0-1.066 0.478-1.066 1.066 0 0.195 0.053 0.378 0.144 0.536l-0.002-0.005c0.939 1.606 2.655 2.666 4.618 2.666 2.946 0 5.334-2.388 5.334-5.334v0c-0.004-1.21-0.415-2.324-1.103-3.212l0.009 0.012h5.28v7.466c0 0.589 0.478 1.066 1.066 1.066s1.066-0.478 1.066-1.066v0-16h1.6c0.589 0 1.066-0.478 1.066-1.066s-0.478-1.066-1.066-1.066v0z"></path>
</svg>
