<!-- Generated by IcoMoon.io -->
<svg version="1.1" xmlns="http://www.w3.org/2000/svg" width="40" height="40" viewBox="0 0 40 40">
<title>ul-luggage-cart</title>
<path fill="#37352f" d="M9.334 21.6v2.134c0 0.589 0.478 1.066 1.066 1.066v0h10.666c0 1.767 1.433 3.2 3.2 3.2s3.2-1.433 3.2-3.2v0h2.134c0.589 0 1.066-0.478 1.066-1.066v0-8.534c0-1.767-1.433-3.2-3.2-3.2v0h-10.666c-1.767 0-3.2 1.433-3.2 3.2v0 7.466h-2.134v-1.066c0-0.589-0.478-1.066-1.066-1.066s-1.066 0.478-1.066 1.066v0zM23.2 24.8c0-0.589 0.478-1.066 1.066-1.066s1.066 0.478 1.066 1.066c0 0.589-0.478 1.066-1.066 1.066v0c-0.589 0-1.066-0.478-1.066-1.066v0zM15.734 18.4h12.8v4.266h-1.898c-0.587-0.645-1.43-1.048-2.368-1.048s-1.781 0.403-2.366 1.045l-0.002 0.002h-6.166zM15.734 15.2c0-0.589 0.478-1.066 1.066-1.066v0h10.666c0.589 0 1.066 0.478 1.066 1.066v0 1.066h-12.8z"></path>
</svg>
