<!-- Generated by IcoMoon.io -->
<svg version="1.1" xmlns="http://www.w3.org/2000/svg" width="40" height="40" viewBox="0 0 40 40">
<title>ul-left-indent</title>
<path fill="#37352f" d="M10.4 14.666h19.2c0.589 0 1.066-0.478 1.066-1.066s-0.478-1.066-1.066-1.066v0h-19.2c-0.589 0-1.066 0.478-1.066 1.066s0.478 1.066 1.066 1.066v0zM10.4 18.934h10.666c0.589 0 1.066-0.478 1.066-1.066s-0.478-1.066-1.066-1.066v0h-10.666c-0.589 0-1.066 0.478-1.066 1.066s0.478 1.066 1.066 1.066v0zM30.422 17.536c-0.197-0.233-0.49-0.379-0.816-0.379-0.263 0-0.504 0.095-0.69 0.253l0.002-0.002-2.134 1.77c-0.237 0.197-0.386 0.492-0.386 0.822s0.15 0.624 0.384 0.82l0.002 0.002 2.134 1.77c0.182 0.157 0.421 0.254 0.682 0.256h0.001c0.001 0 0.001 0 0.002 0 0.329 0 0.622-0.149 0.818-0.382l0.002-0.002c0.154-0.183 0.247-0.422 0.247-0.683 0-0.33-0.15-0.624-0.384-0.82l-0.002-0.002-1.152-0.96 1.152-0.96c0.237-0.197 0.386-0.492 0.386-0.821 0-0.261-0.094-0.499-0.249-0.685l0.002 0.002zM29.6 25.334h-19.2c-0.589 0-1.066 0.478-1.066 1.066s0.478 1.066 1.066 1.066v0h19.2c0.589 0 1.066-0.478 1.066-1.066s-0.478-1.066-1.066-1.066v0zM10.4 23.2h10.666c0.589 0 1.066-0.478 1.066-1.066s-0.478-1.066-1.066-1.066v0h-10.666c-0.589 0-1.066 0.478-1.066 1.066s0.478 1.066 1.066 1.066v0z"></path>
</svg>
