<!-- Generated by IcoMoon.io -->
<svg version="1.1" xmlns="http://www.w3.org/2000/svg" width="40" height="40" viewBox="0 0 40 40">
<title>ul-master-card</title>
<path fill="#37352f" d="M23.482 12.826c-0.001 0-0.002 0-0.003 0-1.282 0-2.484 0.338-3.523 0.93l0.035-0.018c-1.008-0.574-2.215-0.912-3.501-0.912-3.963 0-7.176 3.213-7.176 7.176s3.213 7.176 7.176 7.176c1.286 0 2.493-0.338 3.537-0.93l-0.035 0.018c1.006 0.571 2.21 0.908 3.493 0.908 3.962 0 7.174-3.212 7.174-7.174s-3.212-7.174-7.174-7.174c-0.001 0-0.002 0-0.002 0v0zM18.119 24.754c-0.481 0.178-1.037 0.284-1.617 0.29h-0.003c-2.785 0-5.042-2.258-5.042-5.042s2.258-5.042 5.042-5.042v0c0.582 0.007 1.138 0.113 1.654 0.302l-0.034-0.011c-1.126 1.256-1.814 2.923-1.814 4.752s0.688 3.496 1.819 4.758l-0.006-0.006zM19.991 23.626c-0.957-0.914-1.551-2.199-1.551-3.624s0.595-2.71 1.55-3.622l0.002-0.002c0.957 0.914 1.551 2.199 1.551 3.624s-0.595 2.71-1.55 3.622l-0.002 0.002zM23.482 25.045c-0.582-0.007-1.138-0.113-1.654-0.302l0.034 0.011c1.126-1.256 1.814-2.923 1.814-4.752s-0.688-3.496-1.819-4.758l0.006 0.006c0.481-0.178 1.037-0.284 1.617-0.29h0.003c2.785 0 5.042 2.258 5.042 5.042s-2.258 5.042-5.042 5.042v0z"></path>
</svg>
