<!-- Generated by IcoMoon.io -->
<svg version="1.1" xmlns="http://www.w3.org/2000/svg" width="40" height="40" viewBox="0 0 40 40">
<title>ul-money-insert</title>
<path fill="#37352f" d="M18.358 13.6l0.576-0.63v3.83c0 0.589 0.478 1.066 1.066 1.066s1.066-0.478 1.066-1.066v0-3.83l0.576 0.586c0.196 0.221 0.482 0.359 0.798 0.359 0.297 0 0.566-0.121 0.758-0.317v0c0.195-0.194 0.315-0.462 0.315-0.758s-0.121-0.564-0.315-0.758l-2.442-2.442c-0.098-0.094-0.215-0.17-0.345-0.222l-0.007-0.002c-0.12-0.050-0.259-0.080-0.406-0.080s-0.286 0.030-0.412 0.082l0.007-0.002c-0.137 0.054-0.254 0.13-0.352 0.224v0l-2.442 2.4c-0.199 0.199-0.322 0.474-0.322 0.778 0 0.608 0.493 1.101 1.101 1.101 0.304 0 0.579-0.123 0.778-0.322v0zM20 20c-1.767 0-3.2 1.433-3.2 3.2s1.433 3.2 3.2 3.2c1.767 0 3.2-1.433 3.2-3.2v0c0-1.767-1.433-3.2-3.2-3.2v0zM20 24.266c-0.589 0-1.066-0.478-1.066-1.066s0.478-1.066 1.066-1.066c0.589 0 1.066 0.478 1.066 1.066v0c0 0.589-0.478 1.066-1.066 1.066v0zM12.534 23.2c0 0.589 0.478 1.066 1.066 1.066s1.066-0.478 1.066-1.066c0-0.589-0.478-1.066-1.066-1.066v0c-0.589 0-1.066 0.478-1.066 1.066v0zM27.466 23.2c0-0.589-0.478-1.066-1.066-1.066s-1.066 0.478-1.066 1.066c0 0.589 0.478 1.066 1.066 1.066v0c0.589 0 1.066-0.478 1.066-1.066v0zM28.534 15.734h-4.266c-0.589 0-1.066 0.478-1.066 1.066s0.478 1.066 1.066 1.066v0h4.266c0.589 0 1.066 0.478 1.066 1.066v0 8.534c0 0.589-0.478 1.066-1.066 1.066v0h-17.066c-0.589 0-1.066-0.478-1.066-1.066v0-8.534c0-0.589 0.478-1.066 1.066-1.066v0h4.266c0.589 0 1.066-0.478 1.066-1.066s-0.478-1.066-1.066-1.066v0h-4.266c-1.767 0-3.2 1.433-3.2 3.2v0 8.534c0 1.767 1.433 3.2 3.2 3.2v0h17.066c1.767 0 3.2-1.433 3.2-3.2v0-8.534c0-1.767-1.433-3.2-3.2-3.2v0z"></path>
</svg>
