<!-- Generated by IcoMoon.io -->
<svg version="1.1" xmlns="http://www.w3.org/2000/svg" width="40" height="40" viewBox="0 0 40 40">
<title>ul-medical-square-full</title>
<path fill="#37352f" d="M29.6 9.334h-19.2c-0.589 0-1.066 0.478-1.066 1.066v0 19.2c0 0.589 0.478 1.066 1.066 1.066v0h19.2c0.589 0 1.066-0.478 1.066-1.066v0-19.2c0-0.589-0.478-1.066-1.066-1.066v0zM28.534 28.534h-17.066v-17.066h17.066zM14.666 22.976h2.134v2.134c0 0.589 0.478 1.066 1.066 1.066v0h4.266c0.589 0 1.066-0.478 1.066-1.066v0-2.134h2.134c0.589 0 1.066-0.478 1.066-1.066v0-4.266c0-0.589-0.478-1.066-1.066-1.066v0h-2.134v-2.134c0-0.589-0.478-1.066-1.066-1.066v0h-4.266c-0.589 0-1.066 0.478-1.066 1.066v0 2.134h-2.134c-0.589 0-1.066 0.478-1.066 1.066v0 4.266c0 0.589 0.478 1.066 1.066 1.066v0zM15.734 18.71h2.134c0.589 0 1.066-0.478 1.066-1.066v0-2.134h2.134v2.134c0 0.589 0.478 1.066 1.066 1.066v0h2.134v2.134h-2.134c-0.589 0-1.066 0.478-1.066 1.066v0 2.134h-2.134v-2.134c0-0.589-0.478-1.066-1.066-1.066v0h-2.134z"></path>
</svg>
