<!-- Generated by IcoMoon.io -->
<svg version="1.1" xmlns="http://www.w3.org/2000/svg" width="40" height="40" viewBox="0 0 40 40">
<title>ul-moneybag</title>
<path fill="#37352f" d="M20 18.934c-1.767 0-3.2 1.433-3.2 3.2s1.433 3.2 3.2 3.2c1.767 0 3.2-1.433 3.2-3.2v0c0-1.767-1.433-3.2-3.2-3.2v0zM20 23.2c-0.589 0-1.066-0.478-1.066-1.066s0.478-1.066 1.066-1.066c0.589 0 1.066 0.478 1.066 1.066v0c0 0.589-0.478 1.066-1.066 1.066v0zM27.466 13.6h-3.2v-1.066c0-1.767-1.433-3.2-3.2-3.2v0h-2.134c-1.767 0-3.2 1.433-3.2 3.2v0 1.066h-3.2c-1.767 0-3.2 1.433-3.2 3.2v0 10.666c0 1.767 1.433 3.2 3.2 3.2v0h14.934c1.767 0 3.2-1.433 3.2-3.2v0-10.666c0-1.767-1.433-3.2-3.2-3.2v0zM17.866 12.534c0-0.589 0.478-1.066 1.066-1.066v0h2.134c0.589 0 1.066 0.478 1.066 1.066v0 1.066h-4.266zM11.466 16.8c0-0.589 0.478-1.066 1.066-1.066v0h1.066c0 1.178-0.955 2.134-2.134 2.134v0zM12.534 28.534c-0.589 0-1.066-0.478-1.066-1.066v0-1.066c1.178 0 2.134 0.955 2.134 2.134v0zM28.534 27.466c0 0.589-0.478 1.066-1.066 1.066v0h-1.066c0-1.178 0.955-2.134 2.134-2.134v0zM28.534 24.266c-2.357 0-4.266 1.91-4.266 4.266v0h-8.534c0-2.357-1.91-4.266-4.266-4.266v0-4.266c2.357 0 4.266-1.91 4.266-4.266v0h8.534c0 2.357 1.91 4.266 4.266 4.266v0zM28.534 17.866c-1.178 0-2.134-0.955-2.134-2.134v0h1.066c0.589 0 1.066 0.478 1.066 1.066v0z"></path>
</svg>
