<!-- Generated by IcoMoon.io -->
<svg version="1.1" xmlns="http://www.w3.org/2000/svg" width="40" height="40" viewBox="0 0 40 40">
<title>ul-microphone</title>
<path fill="#37352f" d="M20 23.2c2.357 0 4.266-1.91 4.266-4.266v0-6.4c0-2.357-1.91-4.266-4.266-4.266s-4.266 1.91-4.266 4.266v0 6.4c0 2.357 1.91 4.266 4.266 4.266v0zM17.866 12.534c0-1.178 0.955-2.134 2.134-2.134s2.134 0.955 2.134 2.134v0 6.4c0 1.178-0.955 2.134-2.134 2.134s-2.134-0.955-2.134-2.134v0zM28.534 18.934c0-0.589-0.478-1.066-1.066-1.066s-1.066 0.478-1.066 1.066v0c0 3.534-2.866 6.4-6.4 6.4s-6.4-2.866-6.4-6.4v0c0-0.589-0.478-1.066-1.066-1.066s-1.066 0.478-1.066 1.066v0c0.004 4.334 3.238 7.91 7.424 8.454l0.043 0.005v2.208h-2.134c-0.589 0-1.066 0.478-1.066 1.066s0.478 1.066 1.066 1.066v0h6.4c0.589 0 1.066-0.478 1.066-1.066s-0.478-1.066-1.066-1.066v0h-2.134v-2.208c4.229-0.548 7.462-4.125 7.466-8.458v-0.001z"></path>
</svg>
