<!-- Generated by IcoMoon.io -->
<svg version="1.1" xmlns="http://www.w3.org/2000/svg" width="40" height="40" viewBox="0 0 40 40">
<title>ul-message</title>
<path fill="#37352f" d="M28.896 17.142l-14.934-7.466c-0.415-0.211-0.906-0.335-1.426-0.335-1.767 0-3.2 1.433-3.2 3.2 0 0.469 0.101 0.914 0.282 1.315l-0.008-0.020 2.56 5.728c0.056 0.129 0.088 0.279 0.088 0.438s-0.032 0.308-0.091 0.445l0.003-0.007-2.56 5.728c-0.174 0.382-0.277 0.83-0.277 1.302 0 1.767 1.432 3.199 3.199 3.2v0c0.525-0.006 1.020-0.131 1.459-0.35l-0.019 0.009 14.934-7.466c1.054-0.538 1.762-1.616 1.762-2.858s-0.709-2.32-1.744-2.85l-0.018-0.009zM27.946 20.95l-14.934 7.466c-0.135 0.066-0.294 0.105-0.462 0.105-0.589 0-1.066-0.478-1.066-1.066 0-0.154 0.033-0.3 0.091-0.432l-0.002 0.007 2.55-5.728c0.028-0.062 0.057-0.14 0.082-0.219l0.004-0.015h7.35c0.589 0 1.066-0.478 1.066-1.066s-0.478-1.066-1.066-1.066v0h-7.35c-0.029-0.095-0.058-0.173-0.090-0.248l0.006 0.014-2.55-5.728c-0.056-0.126-0.088-0.271-0.088-0.425 0-0.589 0.478-1.066 1.066-1.066 0.168 0 0.326 0.038 0.468 0.108l-0.006-0.002 14.934 7.466c0.347 0.181 0.58 0.538 0.58 0.95s-0.233 0.769-0.574 0.946l-0.006 0.003z"></path>
</svg>
