<!-- Generated by IcoMoon.io -->
<svg version="1.1" xmlns="http://www.w3.org/2000/svg" width="40" height="40" viewBox="0 0 40 40">
<title>ul-mobile-vibrate</title>
<path fill="#37352f" d="M17.738 22.262l-0.16-0.128-0.192-0.106-0.192-0.054c-0.063-0.013-0.135-0.021-0.21-0.021-0.293 0-0.558 0.118-0.75 0.309v0c-0.103 0.094-0.183 0.213-0.233 0.346l-0.002 0.006c-0.054 0.119-0.086 0.258-0.086 0.406s0.031 0.286 0.088 0.412l-0.002-0.006c0.117 0.258 0.318 0.459 0.569 0.573l0.007 0.003c0.119 0.052 0.258 0.083 0.405 0.086h0.001c0.15-0.003 0.293-0.034 0.424-0.088l-0.008 0.003c0.134-0.054 0.249-0.134 0.341-0.234l0.001-0.001c0.098-0.095 0.177-0.209 0.232-0.334l0.002-0.007c0.047-0.116 0.074-0.251 0.074-0.392 0-0.005 0-0.009 0-0.014v0.001c0-0.007 0-0.015 0-0.023 0-0.139-0.031-0.27-0.088-0.388l0.002 0.006c-0.052-0.138-0.128-0.254-0.224-0.352v0zM10.944 16.544c0.297-0.002 0.565-0.123 0.757-0.32l4.523-4.523c0.192-0.193 0.31-0.458 0.31-0.752s-0.118-0.559-0.31-0.752v0c-0.193-0.192-0.458-0.31-0.752-0.31s-0.559 0.118-0.752 0.31l-4.522 4.522c-0.192 0.193-0.31 0.458-0.31 0.752s0.118 0.559 0.31 0.752v0c0.19 0.194 0.454 0.316 0.746 0.32h0.001zM29.802 23.776c-0.193-0.192-0.458-0.31-0.752-0.31s-0.559 0.118-0.752 0.31l-4.522 4.522c-0.195 0.194-0.315 0.462-0.315 0.758 0 0.587 0.475 1.064 1.062 1.066v0c0.297-0.002 0.565-0.123 0.757-0.32v0l4.522-4.47c0.208-0.195 0.338-0.472 0.338-0.778s-0.13-0.583-0.337-0.778l-0.001-0.001zM29.984 17.738c0-0.002 0-0.005 0-0.008 0-0.879-0.354-1.675-0.928-2.254l-4.533-4.533c-0.588-0.558-1.385-0.902-2.262-0.902s-1.674 0.343-2.262 0.903l-9.054 9.054c-0.578 0.579-0.936 1.378-0.936 2.262s0.358 1.682 0.936 2.262l4.534 4.534c0.579 0.578 1.378 0.936 2.262 0.936s1.682-0.358 2.262-0.936l9.056-9.056c0.574-0.578 0.928-1.374 0.928-2.254 0-0.002 0-0.006 0-0.008v0.001zM27.542 18.496l-9.046 9.046c-0.194 0.195-0.462 0.315-0.758 0.315s-0.564-0.121-0.758-0.315l-4.522-4.522c-0.195-0.194-0.315-0.462-0.315-0.758s0.121-0.564 0.315-0.758l9.046-9.046c0.194-0.195 0.462-0.315 0.758-0.315s0.564 0.121 0.758 0.315l4.522 4.522c0.195 0.194 0.315 0.462 0.315 0.758s-0.121 0.564-0.315 0.758v0z"></path>
</svg>
