<!-- Generated by IcoMoon.io -->
<svg version="1.1" xmlns="http://www.w3.org/2000/svg" width="40" height="40" viewBox="0 0 40 40">
<title>ul-money-bill-stack</title>
<path fill="#37352f" d="M28.534 8.266h-17.066c-1.767 0-3.2 1.433-3.2 3.2v0 17.066c0 1.767 1.433 3.2 3.2 3.2v0h17.066c1.767 0 3.2-1.433 3.2-3.2v0-17.066c0-1.767-1.433-3.2-3.2-3.2v0zM15.734 29.6h-4.266c-0.589 0-1.066-0.478-1.066-1.066v0-1.258c0.317 0.118 0.683 0.189 1.066 0.192h4.268zM15.734 25.334h-4.266c-0.589 0-1.066-0.478-1.066-1.066v0-1.258c0.317 0.118 0.683 0.189 1.066 0.192h4.268zM15.734 21.066h-4.266c-0.589 0-1.066-0.478-1.066-1.066v0-8.534c0-0.589 0.478-1.066 1.066-1.066v0h4.266zM22.134 29.6h-4.266v-6.4h4.266zM22.134 21.066h-4.266v-10.666h4.266zM29.6 28.534c0 0.589-0.478 1.066-1.066 1.066v0h-4.266v-2.134h4.266c0.383-0.003 0.75-0.074 1.089-0.199l-0.022 0.007zM29.6 24.266c0 0.589-0.478 1.066-1.066 1.066v0h-4.266v-2.134h4.266c0.383-0.003 0.75-0.074 1.089-0.199l-0.022 0.007zM29.6 20c0 0.589-0.478 1.066-1.066 1.066v0h-4.266v-10.666h4.266c0.589 0 1.066 0.478 1.066 1.066v0zM26.4 14.666c-0.589 0-1.066 0.478-1.066 1.066s0.478 1.066 1.066 1.066c0.589 0 1.066-0.478 1.066-1.066v0c0-0.589-0.478-1.066-1.066-1.066v0zM13.6 16.8c0.589 0 1.066-0.478 1.066-1.066s-0.478-1.066-1.066-1.066c-0.589 0-1.066 0.478-1.066 1.066v0c0 0.589 0.478 1.066 1.066 1.066v0z"></path>
</svg>
