<!-- Generated by IcoMoon.io -->
<svg version="1.1" xmlns="http://www.w3.org/2000/svg" width="40" height="40" viewBox="0 0 40 40">
<title>ul-meeting-board</title>
<path fill="#37352f" d="M14.666 17.866h2.134c0.589 0 1.066-0.478 1.066-1.066s-0.478-1.066-1.066-1.066v0h-2.134c-0.589 0-1.066 0.478-1.066 1.066s0.478 1.066 1.066 1.066v0zM29.6 11.466h-8.534v-1.066c0-0.589-0.478-1.066-1.066-1.066s-1.066 0.478-1.066 1.066v0 1.066h-8.534c-0.589 0-1.066 0.478-1.066 1.066v0 10.666c0 1.767 1.433 3.2 3.2 3.2v0h4.896l-2.454 2.442c-0.195 0.194-0.315 0.462-0.315 0.758s0.121 0.564 0.315 0.758v0c0.194 0.195 0.462 0.315 0.758 0.315s0.564-0.121 0.758-0.315v0l2.442-2.454v1.696c0 0.589 0.478 1.066 1.066 1.066s1.066-0.478 1.066-1.066v0-1.696l2.442 2.454c0.194 0.195 0.462 0.315 0.758 0.315s0.564-0.121 0.758-0.315v0c0.195-0.194 0.315-0.462 0.315-0.758s-0.121-0.564-0.315-0.758v0l-2.454-2.442h4.896c1.767 0 3.2-1.433 3.2-3.2v0-10.666c0-0.589-0.478-1.066-1.066-1.066v0zM28.534 23.2c0 0.589-0.478 1.066-1.066 1.066v0h-14.934c-0.589 0-1.066-0.478-1.066-1.066v0-9.6h17.066zM14.666 22.134h6.4c0.589 0 1.066-0.478 1.066-1.066s-0.478-1.066-1.066-1.066v0h-6.4c-0.589 0-1.066 0.478-1.066 1.066s0.478 1.066 1.066 1.066v0z"></path>
</svg>
