<!-- Generated by IcoMoon.io -->
<svg version="1.1" xmlns="http://www.w3.org/2000/svg" width="40" height="40" viewBox="0 0 40 40">
<title>ul-mars</title>
<path fill="#37352f" d="M28.982 11.594c-0.11-0.262-0.314-0.466-0.569-0.574l-0.007-0.002c-0.119-0.052-0.258-0.083-0.405-0.086h-4.267c-0.589 0-1.066 0.478-1.066 1.066s0.478 1.066 1.066 1.066v0h1.696l-2.56 2.56c-1.231-0.93-2.787-1.489-4.474-1.489-4.124 0-7.466 3.343-7.466 7.466s3.343 7.466 7.466 7.466c4.124 0 7.466-3.343 7.466-7.466 0-1.686-0.559-3.242-1.502-4.493l0.014 0.019 2.56-2.56v1.696c0 0.589 0.478 1.066 1.066 1.066s1.066-0.478 1.066-1.066v0-4.266c-0.002-0.147-0.033-0.286-0.088-0.412l0.002 0.007zM22.134 25.334c-0.969 0.988-2.318 1.6-3.809 1.6-2.946 0-5.334-2.388-5.334-5.334s2.388-5.334 5.334-5.334c1.491 0 2.84 0.612 3.808 1.599l0.001 0.001c0.942 0.962 1.525 2.279 1.525 3.734s-0.582 2.772-1.526 3.734l0.001-0.001z"></path>
</svg>
