<!-- Generated by IcoMoon.io -->
<svg version="1.1" xmlns="http://www.w3.org/2000/svg" width="40" height="40" viewBox="0 0 40 40">
<title>ul-ninja</title>
<path fill="#37352f" d="M27.936 12.896l-0.064-0.074c-1.957-2.135-4.759-3.469-7.872-3.469s-5.915 1.334-7.865 3.461l-0.007 0.008-0.064 0.074c-1.694 1.881-2.73 4.383-2.73 7.127 0 5.891 4.776 10.666 10.666 10.666s10.666-4.776 10.666-10.666c0-0.008 0-0.016 0-0.025v0.002c0-0.002 0-0.003 0-0.006 0-2.735-1.037-5.228-2.738-7.107l0.008 0.009zM20 11.466c0.006 0 0.014 0 0.022 0 1.504 0 2.916 0.395 4.137 1.089l-0.042-0.022h-8.234c1.179-0.671 2.591-1.066 4.095-1.066 0.008 0 0.015 0 0.023 0h-0.001zM13.344 14.666h13.312c0.946 1.175 1.592 2.631 1.798 4.224l0.005 0.042h-16.918c0.21-1.636 0.856-3.091 1.815-4.283l-0.013 0.017zM20 28.534c-4.334-0.004-7.91-3.238-8.454-7.424l-0.005-0.043h16.918c-0.548 4.229-4.125 7.462-8.458 7.466h-0.001zM15.734 15.734c-0.589 0-1.066 0.478-1.066 1.066s0.478 1.066 1.066 1.066c0.589 0 1.066-0.478 1.066-1.066v0c0-0.589-0.478-1.066-1.066-1.066v0zM22.134 15.734c-0.589 0-1.066 0.478-1.066 1.066s0.478 1.066 1.066 1.066c0.589 0 1.066-0.478 1.066-1.066v0c0-0.589-0.478-1.066-1.066-1.066v0zM18.934 26.326c0.15 0.086 0.33 0.138 0.522 0.138v0c0.396-0.001 0.742-0.218 0.926-0.538l0.002-0.006c0.556-0.993 1.602-1.654 2.802-1.654 0.005 0 0.010 0 0.015 0h-0.001c0.589 0 1.066-0.478 1.066-1.066s-0.478-1.066-1.066-1.066v0c0 0 0 0 0 0-1.994 0-3.732 1.094-4.647 2.714l-0.014 0.026c-0.087 0.151-0.139 0.333-0.139 0.526 0 0.393 0.213 0.736 0.529 0.922l0.005 0.002z"></path>
</svg>
