<!-- Generated by IcoMoon.io -->
<svg version="1.1" xmlns="http://www.w3.org/2000/svg" width="40" height="40" viewBox="0 0 40 40">
<title>ul-no-entry</title>
<path fill="#37352f" d="M29.6 28.534h-1.322l-4.682-16.854c-0.386-1.363-1.62-2.346-3.082-2.346h-1.066c-1.446 0.021-2.658 0.997-3.034 2.324l-0.006 0.022-4.682 16.854h-1.322c-0.589 0-1.066 0.478-1.066 1.066s0.478 1.066 1.066 1.066v0h19.2c0.589 0 1.066-0.478 1.066-1.066s-0.478-1.066-1.066-1.066v0zM18.464 12.246c0.13-0.454 0.541-0.779 1.027-0.779 0.014 0 0.028 0 0.042 0.001h1.065c0.012-0.001 0.026-0.001 0.039-0.001 0.487 0 0.898 0.326 1.026 0.772l0.002 0.007 0.842 3.488h-5.014zM16.896 17.866h6.208l1.162 4.266h-8.534zM13.942 28.534l1.184-4.266h9.75l1.184 4.266z"></path>
</svg>
