<!-- Generated by IcoMoon.io -->
<svg version="1.1" xmlns="http://www.w3.org/2000/svg" width="40" height="40" viewBox="0 0 40 40">
<title>ul-octagon</title>
<path fill="#37352f" d="M30.358 15.274l-5.622-5.632c-0.197-0.188-0.463-0.305-0.757-0.31h-7.958c-0.294 0.004-0.561 0.122-0.758 0.31l0.001-0.001-5.622 5.632c-0.19 0.192-0.308 0.455-0.31 0.746v7.958c0.002 0.291 0.119 0.555 0.31 0.746v0l5.622 5.632c0.197 0.188 0.463 0.305 0.757 0.31h7.958c0.294-0.004 0.561-0.122 0.758-0.31l-0.001 0.001 5.622-5.632c0.19-0.192 0.308-0.455 0.31-0.746v-7.958c-0.002-0.291-0.119-0.555-0.31-0.746v0zM28.534 23.53l-5.002 5.002h-7.062l-5.002-5.002v-7.062l5.002-5.002h7.062l5.002 5.002z"></path>
</svg>
