<!-- Generated by IcoMoon.io -->
<svg version="1.1" xmlns="http://www.w3.org/2000/svg" width="40" height="40" viewBox="0 0 40 40">
<title>ul-parking-square</title>
<path fill="#37352f" d="M20 13.6h-3.2c-0.589 0-1.066 0.478-1.066 1.066v0 10.666c0 0.589 0.478 1.066 1.066 1.066s1.066-0.478 1.066-1.066v0-3.2h2.134c2.357 0 4.266-1.91 4.266-4.266s-1.91-4.266-4.266-4.266v0zM20 20h-2.134v-4.266h2.134c1.178 0 2.134 0.955 2.134 2.134s-0.955 2.134-2.134 2.134v0zM27.466 9.334h-14.934c-1.767 0-3.2 1.433-3.2 3.2v0 14.934c0 1.767 1.433 3.2 3.2 3.2v0h14.934c1.767 0 3.2-1.433 3.2-3.2v0-14.934c0-1.767-1.433-3.2-3.2-3.2v0zM28.534 27.466c0 0.589-0.478 1.066-1.066 1.066v0h-14.934c-0.589 0-1.066-0.478-1.066-1.066v0-14.934c0-0.589 0.478-1.066 1.066-1.066v0h14.934c0.589 0 1.066 0.478 1.066 1.066v0z"></path>
</svg>
