<!-- Generated by IcoMoon.io -->
<svg version="1.1" xmlns="http://www.w3.org/2000/svg" width="40" height="40" viewBox="0 0 40 40">
<title>ul-play</title>
<path fill="#37352f" d="M26.976 16.8l-10.304-5.91c-0.523-0.307-1.153-0.489-1.824-0.489-2.014 0-3.648 1.634-3.648 3.648 0 0.014 0 0.029 0 0.043v-0.002 11.862c0 2.014 1.634 3.648 3.648 3.648v0c0.672-0.001 1.301-0.183 1.842-0.5l-0.018 0.010 10.304-5.91c1.096-0.643 1.821-1.815 1.821-3.158s-0.725-2.514-1.803-3.148l-0.017-0.010zM25.91 21.27l-10.304 5.994c-0.218 0.126-0.479 0.2-0.758 0.2s-0.539-0.074-0.765-0.204l0.007 0.004c-0.456-0.266-0.758-0.754-0.758-1.312 0 0 0 0 0 0v0-11.904c0 0 0 0 0 0 0-0.558 0.302-1.045 0.75-1.308l0.007-0.004c0.218-0.123 0.478-0.198 0.756-0.202h0.002c0.278 0.006 0.538 0.080 0.766 0.207l-0.008-0.004 10.304 5.952c0.456 0.266 0.758 0.754 0.758 1.312s-0.302 1.046-0.75 1.308l-0.007 0.004z"></path>
</svg>
