<!-- Generated by IcoMoon.io -->
<svg version="1.1" xmlns="http://www.w3.org/2000/svg" width="40" height="40" viewBox="0 0 40 40">
<title>ul-px</title>
<path fill="#37352f" d="M14.666 23.35c0.037 0.177 0.099 0.334 0.185 0.476l-0.004-0.006c0.359 0.864 0.861 1.602 1.482 2.218l0.001 0.001c0.625 0.618 1.364 1.122 2.183 1.475l0.046 0.018c0.782 0.35 1.694 0.555 2.654 0.555 0.019 0 0.039 0 0.058 0h-0.003c0.014 0 0.031 0 0.049 0 0.966 0 1.885-0.204 2.714-0.572l-0.043 0.017c0.862-0.372 1.598-0.875 2.219-1.494v0c0.627-0.618 1.135-1.354 1.487-2.174l0.017-0.044c0.312-0.763 0.493-1.65 0.493-2.578 0-0.062-0.001-0.122-0.002-0.183v0.009c-0.002-0.986-0.202-1.924-0.562-2.778l0.018 0.047c-0.369-0.861-0.877-1.594-1.503-2.207l-0.001-0.001c-1.25-1.265-2.985-2.048-4.902-2.048-0.013 0-0.026 0-0.038 0h0.002c-0.998 0.010-1.942 0.225-2.797 0.605l0.045-0.018c-0.49 0.22-0.911 0.462-1.303 0.741l0.023-0.016c-0.456 0.305-0.854 0.635-1.215 1.002l-0.001 0.001v-5.75h9.654c0.234 0 0.362-0.224 0.362-0.662s-0.138-0.65-0.374-0.65h-10.442c-0.006 0-0.013-0.001-0.019-0.001-0.12 0-0.228 0.054-0.3 0.138l-0.001 0.001c-0.079 0.078-0.128 0.186-0.128 0.305 0 0.002 0 0.003 0 0.005v0 8.086c0.008 0.133 0.078 0.249 0.18 0.319l0.002 0.001c0.124 0.090 0.271 0.156 0.43 0.19l0.008 0.002c0.069 0.022 0.147 0.034 0.23 0.034s0.161-0.013 0.235-0.036l-0.006 0.002c0.098-0.029 0.182-0.069 0.26-0.12l-0.004 0.002c0.055-0.054 0.105-0.113 0.147-0.178l0.002-0.004c0.282-0.398 0.584-0.746 0.915-1.064l0.002-0.002c0.999-1.027 2.395-1.665 3.939-1.665 0.036 0 0.073 0 0.109 0.001h-0.006c0.022 0 0.048-0.001 0.074-0.001 1.57 0 2.987 0.659 3.988 1.715l0.002 0.002c1.040 1.004 1.686 2.411 1.686 3.969 0 0.011 0 0.022 0 0.034v-0.002c-0.007 0.771-0.167 1.504-0.451 2.17l0.014-0.037c-0.57 1.448-1.67 2.583-3.057 3.186l-0.037 0.014c-0.643 0.27-1.391 0.426-2.176 0.426-0.008 0-0.015 0-0.023 0h0.001c-0.013 0-0.028 0-0.043 0-1.050 0-2.030-0.298-2.86-0.814l0.023 0.014v-4.96c0.006-0.738 0.293-1.41 0.759-1.911l-0.002 0.002c0.498-0.583 1.234-0.95 2.056-0.95 0.027 0 0.054 0.001 0.082 0.001h-0.004c0.035-0.002 0.076-0.002 0.118-0.002 0.789 0 1.502 0.323 2.015 0.845v0.001c0.495 0.493 0.802 1.174 0.802 1.928 0 0.031-0.001 0.062-0.002 0.093v-0.005c0 0.003 0 0.007 0 0.011 0 1.608-1.304 2.912-2.912 2.912-0.015 0-0.030 0-0.045 0h-0.36l-0.394-0.074h-0.16c-0.224-0.064-0.394 0.106-0.522 0.512s-0.074 0.64 0.15 0.726c0.395 0.122 0.849 0.192 1.319 0.192 0.005 0 0.010 0 0.014 0h-0.001c0.016 0 0.034 0 0.053 0 1.15 0 2.189-0.474 2.933-1.237l0.001-0.001c0.765-0.74 1.239-1.775 1.239-2.922 0-0.042-0.001-0.083-0.002-0.125v0.006c0.001-0.024 0.001-0.053 0.001-0.081 0-1.134-0.475-2.158-1.237-2.882l-0.002-0.002c-0.738-0.758-1.766-1.227-2.906-1.227-0.029 0-0.057 0-0.085 0.001h0.004c-0.022-0.001-0.049-0.001-0.075-0.001-1.147 0-2.186 0.47-2.932 1.227l-0.001 0.001c-0.742 0.691-1.208 1.672-1.216 2.761v4.054c-0.49-0.559-0.882-1.218-1.139-1.942l-0.013-0.042c-0.086-0.224-0.32-0.266-0.714-0.138s-0.586 0.31-0.512 0.522zM21.334 11.616c-0.054-0.001-0.116-0.002-0.179-0.002-1.222 0-2.385 0.252-3.44 0.706l0.057-0.022c-0.128 0.010-0.23 0.108-0.245 0.234v0.002c0.006 0.166 0.040 0.323 0.099 0.468l-0.003-0.009c0.15 0.374 0.32 0.512 0.534 0.438 0.926-0.371 2.001-0.586 3.126-0.586v0c0.020 0 0.043 0 0.066 0 1.165 0 2.271 0.247 3.27 0.693l-0.051-0.020c0.946 0.418 1.759 0.947 2.473 1.586l-0.009-0.008c0.048 0.052 0.116 0.084 0.192 0.086v0c0.096 0 0.256-0.106 0.458-0.31l0.202-0.202c0.040-0.061 0.064-0.135 0.064-0.215 0-0.003 0-0.006 0-0.009v0.001c-0.007-0.086-0.047-0.16-0.106-0.213v0c-0.789-0.743-1.714-1.351-2.734-1.78l-0.061-0.022c-1.108-0.499-2.4-0.797-3.76-0.81h-0.005zM19.616 22.186c0.017 0.147 0.097 0.273 0.212 0.351l0.002 0.001c0.092 0.107 0.223 0.178 0.371 0.192h0.002c0.003 0 0.007 0 0.012 0 0.065 0 0.125-0.024 0.17-0.065v0l0.778-0.778 0.746 0.726c0.053 0.068 0.133 0.113 0.223 0.118h0.001c0.154-0.020 0.287-0.094 0.383-0.202l0.001-0.001c0.214-0.224 0.246-0.416 0.074-0.586l-0.746-0.746 0.79-0.79c0.128-0.128 0.086-0.31-0.138-0.522s-0.426-0.288-0.566-0.15l-0.778 0.768-0.768-0.79c-0.045-0.030-0.1-0.050-0.159-0.054h-0.001c-0.147 0.026-0.274 0.103-0.362 0.212l-0.001 0.001c-0.246 0.234-0.298 0.406-0.17 0.534l0.79 0.79-0.79 0.768c-0.066 0.056-0.113 0.134-0.128 0.222v0.002zM28.074 27.062c-0.111-0.109-0.242-0.198-0.386-0.263l-0.009-0.003c-0.026-0.008-0.056-0.013-0.087-0.013-0.082 0-0.158 0.034-0.211 0.088v0l-0.074 0.074c-0.75 0.746-1.638 1.354-2.622 1.782l-0.055 0.022c-0.97 0.419-2.099 0.663-3.285 0.663-2.331 0-4.442-0.942-5.974-2.466v0c-0.782-0.739-1.414-1.63-1.846-2.626l-0.020-0.051c-0.222-0.537-0.41-1.17-0.534-1.826l-0.010-0.062c0-0.224-0.266-0.31-0.672-0.246s-0.598 0.214-0.566 0.426c0.128 0.842 0.351 1.599 0.663 2.309l-0.023-0.058c0.525 1.199 1.245 2.219 2.13 3.069l0.003 0.003c0.858 0.886 1.882 1.605 3.022 2.109l0.062 0.024c1.112 0.479 2.406 0.758 3.766 0.758 0.004 0 0.007 0 0.011 0h-0.001c1.363-0.003 2.661-0.281 3.841-0.782l-0.065 0.025c1.202-0.528 2.225-1.247 3.080-2.13l0.066-0.066c0.096-0.234 0.022-0.47-0.256-0.758z"></path>
</svg>
