<!-- Generated by IcoMoon.io -->
<svg version="1.1" xmlns="http://www.w3.org/2000/svg" width="40" height="40" viewBox="0 0 40 40">
<title>ul-paypal</title>
<path fill="#37352f" d="M28.999 14.778c-0.184-0.206-0.384-0.389-0.601-0.551l-0.010-0.007c0.026-0.192 0.041-0.413 0.041-0.638 0-1.289-0.484-2.465-1.28-3.356l0.004 0.005c-1.156-1.303-3.127-1.963-5.858-1.963h-6.628c-0.999 0.002-1.828 0.731-1.986 1.686l-0.002 0.012-2.762 17.5c-0.014 0.081-0.022 0.174-0.022 0.269 0 0.903 0.732 1.635 1.635 1.635 0.002 0 0.002 0 0.004 0h2.842l-0.087 0.555c-0.012 0.074-0.019 0.158-0.019 0.245 0 0.864 0.7 1.564 1.564 1.565h3.45c0.005 0 0.010 0 0.015 0 0.928 0 1.698-0.673 1.851-1.557l0.002-0.011 0.683-4.3 0.011-0.058h0.318c4.301 0 6.987-2.126 7.771-6.147 0.136-0.455 0.214-0.978 0.214-1.519 0-1.273-0.433-2.444-1.159-3.375l0.009 0.012zM15.565 21.818l-0.762 4.838-0.092 0.58h-2.598l2.658-16.835h6.525c2.065 0 3.538 0.431 4.258 1.242 0.475 0.55 0.766 1.273 0.766 2.063 0 0.303-0.042 0.597-0.122 0.874l0.006-0.022-0.020 0.12c-0.013 0.082-0.025 0.162-0.046 0.262-0.218 1.578-0.999 2.942-2.13 3.908l-0.009 0.007c-1.134 0.798-2.545 1.275-4.066 1.275-0.152 0-0.303-0.005-0.453-0.014l0.021 0.001h-1.945c-0.002 0-0.004 0-0.006 0-1 0-1.829 0.732-1.98 1.69l-0.002 0.011zM27.841 19.252c-0.587 3.017-2.392 4.422-5.677 4.422h-0.516c-0.004 0-0.010 0-0.014 0-0.929 0-1.7 0.674-1.851 1.56l-0.002 0.011-0.693 4.346-2.59 0.010 0.51-3.236 0.652-4.11h1.834c0.167 0 0.315-0.025 0.478-0.031 0.382-0.014 0.764-0.028 1.123-0.073 0.219-0.027 0.42-0.077 0.63-0.116 0.29-0.054 0.582-0.107 0.854-0.182 0.203-0.057 0.393-0.13 0.586-0.198 0.255-0.090 0.506-0.186 0.744-0.298 0.179-0.084 0.35-0.178 0.519-0.274 0.256-0.146 0.469-0.284 0.674-0.432l-0.021 0.014c0.152-0.11 0.301-0.222 0.442-0.342 0.206-0.178 0.392-0.358 0.569-0.549l0.004-0.005c0.121-0.129 0.244-0.254 0.355-0.392 0.17-0.214 0.338-0.455 0.494-0.706l0.018-0.033c0.082-0.13 0.172-0.251 0.247-0.388 0.192-0.342 0.379-0.748 0.535-1.169l0.020-0.062c0.010-0.026 0.022-0.047 0.031-0.073 0.004-0.012 0.010-0.022 0.014-0.034 0.106 0.366 0.166 0.787 0.166 1.222 0 0.396-0.050 0.781-0.145 1.148l0.007-0.032z"></path>
</svg>
