<!-- Generated by IcoMoon.io -->
<svg version="1.1" xmlns="http://www.w3.org/2000/svg" width="40" height="40" viewBox="0 0 40 40">
<title>ul-pentagon</title>
<path fill="#37352f" d="M30.23 16.982l-9.6-6.976c-0.174-0.128-0.393-0.206-0.63-0.206s-0.455 0.077-0.632 0.207l0.003-0.002-9.6 6.976c-0.266 0.196-0.438 0.509-0.438 0.862 0 0.119 0.019 0.234 0.056 0.341l-0.002-0.007 3.67 11.286c0.143 0.431 0.543 0.738 1.014 0.738 0.018 0 0.037-0.001 0.054-0.002h11.806c0.015 0.001 0.034 0.002 0.052 0.002 0.471 0 0.871-0.306 1.012-0.73l0.002-0.007 3.67-11.286c0.028-0.090 0.044-0.195 0.044-0.303 0-0.371-0.19-0.698-0.478-0.89l-0.004-0.002zM25.162 28.064h-10.326l-3.2-9.814 8.362-6.058 8.342 6.058z"></path>
</svg>
