<!-- Generated by IcoMoon.io -->
<svg version="1.1" xmlns="http://www.w3.org/2000/svg" width="40" height="40" viewBox="0 0 40 40">
<title>ul-phone-slash</title>
<path fill="#37352f" d="M12.438 21.174c0.192 0.303 0.525 0.502 0.905 0.502 0.001 0 0.002 0 0.002 0v0c0.009 0 0.020 0.001 0.030 0.001 0.589 0 1.066-0.478 1.066-1.066 0-0.228-0.071-0.438-0.193-0.612l0.002 0.003c-1.334-2.087-2.266-4.559-2.624-7.214l-0.010-0.094c-0.007-0.047-0.012-0.102-0.012-0.158 0-0.271 0.102-0.519 0.269-0.708l-0.001 0.001c0.196-0.222 0.482-0.362 0.8-0.362h3.2c0.006 0 0.014 0 0.022 0 0.514 0 0.942 0.363 1.044 0.846l0.002 0.007c0 0.246 0.086 0.47 0.138 0.714v0.138c0.143 0.639 0.315 1.188 0.528 1.717l-0.026-0.074-1.482 0.704c-0.258 0.122-0.456 0.337-0.552 0.601l-0.002 0.007c-0.052 0.122-0.082 0.262-0.082 0.41s0.030 0.29 0.085 0.418l-0.002-0.007c0.106 0.224 0.214 0.448 0.342 0.682 0.187 0.324 0.532 0.538 0.926 0.538 0.197 0 0.382-0.054 0.54-0.146l-0.005 0.002c0.322-0.187 0.536-0.531 0.536-0.926 0-0.027-0.001-0.054-0.003-0.081v0.003l0.608-0.224c0.738-0.346 1.241-1.083 1.241-1.938 0-0.254-0.044-0.497-0.126-0.722l0.005 0.015c-0.151-0.38-0.294-0.843-0.403-1.32l-0.013-0.066v-0.106c0-0.214-0.086-0.426-0.118-0.618-0.246-1.544-1.568-2.71-3.162-2.71-0.002 0-0.004 0-0.006 0h-3.2c-0.014 0-0.030 0-0.046 0-0.946 0-1.797 0.411-2.383 1.064l-0.002 0.003c-0.495 0.561-0.798 1.302-0.798 2.114 0 0.154 0.011 0.305 0.032 0.452l-0.002-0.017c0.401 3.090 1.441 5.874 2.982 8.307l-0.049-0.083zM28.022 20.95l-0.64-0.118h-0.086c-0.554-0.119-1.029-0.262-1.486-0.439l0.068 0.023c-0.214-0.079-0.462-0.126-0.72-0.126-0.835 0-1.558 0.48-1.909 1.18l-0.006 0.012-0.224 0.49c-0.774-0.452-1.445-0.935-2.064-1.474l0.016 0.014 9.386-9.376c0.194-0.194 0.314-0.462 0.314-0.758 0-0.591-0.479-1.071-1.071-1.071-0.296 0-0.563 0.12-0.758 0.314l-19.2 19.2c-0.195 0.194-0.315 0.462-0.315 0.758s0.121 0.564 0.315 0.758v0c0.194 0.195 0.462 0.315 0.758 0.315s0.564-0.121 0.758-0.315v0l4.896-4.906c2.951 2.66 6.712 4.474 10.871 5.034l0.105 0.011c0.064 0.005 0.138 0.008 0.214 0.008s0.15-0.003 0.223-0.009l-0.010 0.001c0.005 0 0.011 0 0.017 0 0.813 0 1.555-0.303 2.12-0.803l-0.003 0.003c0.656-0.589 1.066-1.439 1.066-2.385 0-0.006 0-0.010 0-0.016v0.001-3.2c-0.012-1.558-1.135-2.849-2.615-3.122l-0.020-0.003zM28.534 27.35c-0.001 0.318-0.14 0.604-0.362 0.799l-0.001 0.001c-0.187 0.166-0.435 0.268-0.706 0.268-0.055 0-0.11-0.004-0.163-0.013l0.006 0.001c-3.783-0.508-7.122-2.11-9.767-4.474l0.018 0.015 1.888-1.888c1.042 0.912 2.228 1.699 3.511 2.317l0.094 0.041c0.122 0.052 0.262 0.082 0.41 0.082s0.29-0.030 0.418-0.085l-0.007 0.002c0.271-0.099 0.486-0.297 0.606-0.548l0.002-0.006 0.662-1.504c0.465 0.18 1.035 0.353 1.621 0.485l0.086 0.016h0.118l0.736 0.138c0.48 0.111 0.832 0.534 0.832 1.041 0 0.009 0 0.018 0 0.027v-0.002z"></path>
</svg>
