<!-- Generated by IcoMoon.io -->
<svg version="1.1" xmlns="http://www.w3.org/2000/svg" width="40" height="40" viewBox="0 0 40 40">
<title>ul-palette</title>
<path fill="#37352f" d="M15.114 23.776c-0.192 0.193-0.31 0.458-0.31 0.752s0.118 0.559 0.31 0.752v0c0.194 0.195 0.462 0.315 0.758 0.315s0.564-0.121 0.758-0.315v0c0.192-0.193 0.31-0.458 0.31-0.752s-0.118-0.559-0.31-0.752v0c-0.194-0.195-0.462-0.315-0.758-0.315s-0.564 0.121-0.758 0.315v0zM15.114 14.72c-0.192 0.193-0.31 0.458-0.31 0.752s0.118 0.559 0.31 0.752v0c0.194 0.195 0.462 0.315 0.758 0.315s0.564-0.121 0.758-0.315v0c0.192-0.193 0.31-0.458 0.31-0.752s-0.118-0.559-0.31-0.752v0c-0.194-0.195-0.462-0.315-0.758-0.315s-0.564 0.121-0.758 0.315v0zM20.394 25.386c-0.589 0-1.066 0.478-1.066 1.066s0.478 1.066 1.066 1.066c0.589 0 1.066-0.478 1.066-1.066v0c0.001-0.016 0.002-0.034 0.002-0.054 0-0.589-0.478-1.066-1.066-1.066-0.001 0-0.001 0-0.002 0v0zM13.994 18.986c-0.589 0-1.066 0.478-1.066 1.066s0.478 1.066 1.066 1.066c0.589 0 1.066-0.478 1.066-1.066v0c0.001-0.016 0.002-0.034 0.002-0.054 0-0.589-0.478-1.066-1.066-1.066-0.001 0-0.001 0-0.002 0v0zM20.394 12.586c-0.589 0-1.066 0.478-1.066 1.066s0.478 1.066 1.066 1.066c0.589 0 1.066-0.478 1.066-1.066v0c0.001-0.016 0.002-0.034 0.002-0.054 0-0.589-0.478-1.066-1.066-1.066-0.001 0-0.001 0-0.002 0v0zM24.17 14.774c-0.194 0.194-0.314 0.461-0.314 0.757 0 0.589 0.478 1.066 1.066 1.066s1.066-0.478 1.066-1.066c0-0.296-0.12-0.563-0.314-0.757v0c-0.195-0.208-0.472-0.338-0.779-0.338-0.28 0-0.535 0.108-0.726 0.285l0.001-0.001zM30.89 14.774c-1.97-3.875-5.927-6.484-10.494-6.484-6.48 0-11.734 5.253-11.734 11.734s5.253 11.734 11.734 11.734c0.75 0 1.483-0.070 2.194-0.205l-0.073 0.011c1.118-0.215 2.056-0.857 2.658-1.746l0.010-0.014c0.468-0.697 0.747-1.554 0.747-2.478 0-0.328-0.035-0.647-0.102-0.955l0.006 0.030c-0.064-0.318-0.102-0.687-0.106-1.063v-0.003c0.010-2.164 1.308-4.023 3.166-4.85l0.034-0.014c1.030-0.469 1.817-1.322 2.189-2.371l0.009-0.029c0.146-0.412 0.23-0.887 0.23-1.382 0-0.706-0.172-1.373-0.476-1.96l0.011 0.024zM29.078 17.376c-0.189 0.52-0.57 0.932-1.054 1.158l-0.013 0.006c-2.618 1.193-4.407 3.784-4.416 6.794v0.001c0.002 0.53 0.056 1.045 0.158 1.543l-0.009-0.050c0.034 0.146 0.052 0.315 0.052 0.488 0 0.474-0.143 0.914-0.388 1.28l0.006-0.008c-0.288 0.445-0.746 0.759-1.279 0.852l-0.011 0.002c-0.517 0.102-1.11 0.16-1.718 0.16-0.003 0-0.007 0-0.010 0h0.001c-0.002 0-0.003 0-0.005 0-5.302 0-9.6-4.298-9.6-9.6 0-0.105 0.002-0.21 0.005-0.314v0.015c0.178-4.976 4.094-8.982 9.017-9.3l0.029-0.002h0.544c3.746 0.001 6.991 2.148 8.572 5.278l0.025 0.055c0.134 0.271 0.212 0.59 0.212 0.927 0 0.249-0.042 0.487-0.121 0.709l0.005-0.015zM20.394 18.934c-0.589 0-1.066 0.478-1.066 1.066s0.478 1.066 1.066 1.066c0.589 0 1.066-0.478 1.066-1.066v0c0-0.589-0.478-1.066-1.066-1.066v0z"></path>
</svg>
