<!-- Generated by IcoMoon.io -->
<svg version="1.1" xmlns="http://www.w3.org/2000/svg" width="40" height="40" viewBox="0 0 40 40">
<title>ul-panorama-h</title>
<path fill="#37352f" d="M30.176 12.704c-0.167-0.114-0.374-0.183-0.598-0.183-0.17 0-0.332 0.040-0.475 0.111l0.006-0.003c-2.582 1.108-5.587 1.752-8.743 1.752-0.129 0-0.258-0.001-0.386-0.003h0.019c-0.121 0.002-0.264 0.004-0.407 0.004-3.156 0-6.162-0.645-8.893-1.809l0.148 0.056c-0.137-0.069-0.298-0.109-0.469-0.109-0.223 0-0.43 0.069-0.602 0.186l0.004-0.002c-0.273 0.196-0.448 0.512-0.448 0.869 0 0.010 0 0.019 0 0.028v-0.002 12.8c0.001 0.374 0.194 0.704 0.486 0.894l0.004 0.002c0.167 0.114 0.374 0.183 0.598 0.183 0.17 0 0.332-0.040 0.475-0.111l-0.006 0.003c2.582-1.108 5.587-1.752 8.743-1.752 0.129 0 0.258 0.001 0.386 0.003h-0.019c0.121-0.002 0.264-0.004 0.407-0.004 3.156 0 6.162 0.645 8.893 1.809l-0.148-0.056c0.132 0.059 0.286 0.095 0.447 0.096h0.001c0.214-0.001 0.414-0.064 0.58-0.173l-0.004 0.002c0.297-0.192 0.49-0.522 0.49-0.896v-12.8c-0.001-0.374-0.194-0.704-0.486-0.894l-0.004-0.002zM28.534 24.822c-2.474-0.846-5.326-1.334-8.29-1.334-0.086 0-0.17 0.001-0.256 0.001h0.013c-0.072-0.001-0.158-0.001-0.242-0.001-2.965 0-5.816 0.489-8.477 1.389l0.186-0.054v-9.6c2.474 0.846 5.326 1.334 8.29 1.334 0.086 0 0.17-0.001 0.256-0.001h-0.013c0.072 0.001 0.158 0.001 0.242 0.001 2.965 0 5.816-0.489 8.477-1.389l-0.186 0.054z"></path>
</svg>
