<!-- Generated by IcoMoon.io -->
<svg version="1.1" xmlns="http://www.w3.org/2000/svg" width="40" height="40" viewBox="0 0 40 40">
<title>ul-panorama-v</title>
<path fill="#37352f" d="M25.622 20c-0.002-0.131-0.004-0.286-0.004-0.44 0-3.145 0.645-6.14 1.81-8.858l-0.056 0.146c0.069-0.137 0.109-0.298 0.109-0.469 0-0.223-0.069-0.43-0.186-0.602l0.002 0.004c-0.196-0.273-0.512-0.448-0.869-0.448-0.010 0-0.019 0-0.028 0h-12.798c-0.374 0.001-0.704 0.194-0.894 0.486l-0.002 0.004c-0.114 0.167-0.183 0.374-0.183 0.598 0 0.17 0.040 0.332 0.111 0.475l-0.003-0.006c1.108 2.572 1.753 5.566 1.753 8.71 0 0.14-0.002 0.281-0.004 0.42v-0.021c0.002 0.131 0.004 0.286 0.004 0.44 0 3.145-0.645 6.14-1.81 8.858l0.056-0.146c-0.069 0.137-0.109 0.298-0.109 0.469 0 0.223 0.069 0.43 0.186 0.602l-0.002-0.004c0.196 0.273 0.512 0.448 0.869 0.448 0.010 0 0.019 0 0.028 0h12.798c0.374-0.001 0.704-0.194 0.894-0.486l0.002-0.004c0.114-0.167 0.183-0.374 0.183-0.598 0-0.17-0.040-0.332-0.111-0.475l0.003 0.006c-1.108-2.572-1.753-5.566-1.753-8.71 0-0.14 0.002-0.281 0.004-0.42v0.021zM24.822 28.534h-9.6c0.846-2.474 1.334-5.326 1.334-8.29 0-0.086-0.001-0.17-0.001-0.256v0.013c0-0.035 0-0.076 0-0.117 0-3.011-0.504-5.906-1.432-8.602l0.055 0.186h9.6c-0.846 2.474-1.334 5.326-1.334 8.29 0 0.086 0.001 0.17 0.001 0.256v-0.013c0 0.035 0 0.076 0 0.117 0 3.011 0.504 5.906 1.432 8.602l-0.055-0.186z"></path>
</svg>
