<!-- Generated by IcoMoon.io -->
<svg version="1.1" xmlns="http://www.w3.org/2000/svg" width="40" height="40" viewBox="0 0 40 40">
<title>ul-rotate-360</title>
<path fill="#37352f" d="M20 13.6c-6.080 0-10.666 2.294-10.666 5.334 0 2.614 3.402 4.672 8.224 5.206l-0.448 0.438c-0.195 0.194-0.315 0.462-0.315 0.758s0.121 0.564 0.315 0.758v0c0.194 0.195 0.462 0.315 0.758 0.315s0.564-0.121 0.758-0.315l2.134-2.134c0.094-0.098 0.17-0.215 0.222-0.345l0.002-0.007c0.050-0.12 0.080-0.259 0.080-0.406s-0.030-0.286-0.082-0.412l0.002 0.007c-0.054-0.137-0.13-0.254-0.224-0.352v0l-2.134-2.134c-0.194-0.194-0.462-0.314-0.758-0.314-0.591 0-1.071 0.479-1.071 1.071 0 0.296 0.12 0.563 0.314 0.758v0l0.128 0.118c-3.638-0.512-5.77-1.942-5.77-3.008 0-1.302 3.328-3.2 8.534-3.2s8.534 1.898 8.534 3.2c0 0.886-1.546 2.134-4.49 2.774-0.497 0.098-0.866 0.53-0.866 1.048 0 0.078 0.009 0.155 0.025 0.229l-0.002-0.007c0.106 0.486 0.533 0.846 1.043 0.846 0.080 0 0.158-0.009 0.233-0.026l-0.007 0.002c3.894-0.854 6.198-2.666 6.198-4.864 0-3.040-4.586-5.334-10.666-5.334z"></path>
</svg>
