<!-- Generated by IcoMoon.io -->
<svg version="1.1" xmlns="http://www.w3.org/2000/svg" width="40" height="40" viewBox="0 0 40 40">
<title>ul-raindrops</title>
<path fill="#37352f" d="M18.4 15.734c0-3.722-3.52-6.122-3.67-6.218-0.167-0.114-0.374-0.183-0.598-0.183s-0.43 0.068-0.601 0.186l0.004-0.002c-0.15 0.106-3.67 2.538-3.67 6.218 0 2.357 1.91 4.266 4.266 4.266s4.266-1.91 4.266-4.266v0zM14.134 17.866c-1.178 0-2.134-0.955-2.134-2.134v0c0.157-1.61 0.951-3.009 2.122-3.959l0.010-0.009c1.187 0.956 1.982 2.357 2.131 3.945l0.002 0.023c0 1.178-0.955 2.134-2.134 2.134v0zM26.464 9.514c-0.167-0.114-0.374-0.183-0.598-0.183s-0.43 0.068-0.601 0.186l0.004-0.002c-0.15 0.106-3.67 2.538-3.67 6.218 0 2.357 1.91 4.266 4.266 4.266s4.266-1.91 4.266-4.266v0c0-3.722-3.52-6.122-3.67-6.218zM25.866 17.866c-1.178 0-2.134-0.955-2.134-2.134v0c0.157-1.61 0.951-3.009 2.122-3.959l0.010-0.009c1.187 0.956 1.982 2.357 2.131 3.945l0.002 0.023c0 1.178-0.955 2.134-2.134 2.134v0zM21.13 20.182c-0.167-0.114-0.374-0.183-0.598-0.183s-0.43 0.068-0.601 0.186l0.004-0.002c-0.15 0.106-3.67 2.538-3.67 6.218 0 2.357 1.91 4.266 4.266 4.266s4.266-1.91 4.266-4.266v0c0-3.722-3.52-6.122-3.67-6.218zM20.534 28.534c-1.178 0-2.134-0.955-2.134-2.134v0c0.157-1.61 0.951-3.009 2.122-3.959l0.010-0.009c1.187 0.956 1.982 2.357 2.131 3.945l0.002 0.023c0 1.178-0.955 2.134-2.134 2.134v0z"></path>
</svg>
