<!-- Generated by IcoMoon.io -->
<svg version="1.1" xmlns="http://www.w3.org/2000/svg" width="40" height="40" viewBox="0 0 40 40">
<title>ul-robot</title>
<path fill="#37352f" d="M16.8 23.2c-0.589 0-1.066 0.478-1.066 1.066s0.478 1.066 1.066 1.066c0.589 0 1.066-0.478 1.066-1.066v0c0-0.589-0.478-1.066-1.066-1.066v0zM9.334 22.134c-0.589 0-1.066 0.478-1.066 1.066v0 2.134c0 0.589 0.478 1.066 1.066 1.066s1.066-0.478 1.066-1.066v0-2.134c0-0.589-0.478-1.066-1.066-1.066v0zM30.666 22.134c-0.589 0-1.066 0.478-1.066 1.066v0 2.134c0 0.589 0.478 1.066 1.066 1.066s1.066-0.478 1.066-1.066v0-2.134c0-0.589-0.478-1.066-1.066-1.066v0zM25.334 14.666h-4.266v-1.366c0.638-0.374 1.062-1.054 1.066-1.834v-0.001c0-1.178-0.955-2.134-2.134-2.134s-2.134 0.955-2.134 2.134v0c0.005 0.781 0.428 1.461 1.057 1.83l0.010 0.006v1.366h-4.266c-1.767 0-3.2 1.433-3.2 3.2v0 9.6c0 1.767 1.433 3.2 3.2 3.2v0h10.666c1.767 0 3.2-1.433 3.2-3.2v0-9.6c0-1.767-1.433-3.2-3.2-3.2v0zM21.834 16.8l-0.534 2.134h-2.602l-0.534-2.134zM26.4 27.466c0 0.589-0.478 1.066-1.066 1.066v0h-10.666c-0.589 0-1.066-0.478-1.066-1.066v0-9.6c0-0.589 0.478-1.066 1.066-1.066v0h1.302l0.832 3.456c0.118 0.47 0.538 0.811 1.035 0.811 0.011 0 0.022 0 0.033-0.001h4.265c0.010 0 0.020 0.001 0.031 0.001 0.498 0 0.917-0.342 1.034-0.804l0.002-0.007 0.832-3.456h1.302c0.589 0 1.066 0.478 1.066 1.066v0zM23.2 23.2c-0.589 0-1.066 0.478-1.066 1.066s0.478 1.066 1.066 1.066c0.589 0 1.066-0.478 1.066-1.066v0c0-0.589-0.478-1.066-1.066-1.066v0z"></path>
</svg>
