<!-- Generated by IcoMoon.io -->
<svg version="1.1" xmlns="http://www.w3.org/2000/svg" width="40" height="40" viewBox="0 0 40 40">
<title>ul-reddit-alien-alt</title>
<path fill="#37352f" d="M22.571 25.192c-0.588 0.435-1.328 0.697-2.129 0.697-0.14 0-0.278-0.008-0.414-0.023l0.017 0.002c-0.119 0.014-0.258 0.022-0.398 0.022-0.799 0-1.538-0.261-2.135-0.703l0.010 0.007c-0.193-0.191-0.458-0.31-0.752-0.31-0.59 0-1.067 0.478-1.067 1.067 0 0.293 0.118 0.558 0.309 0.751v0c0.949 0.82 2.194 1.32 3.556 1.32 0.168 0 0.334-0.007 0.498-0.022l-0.021 0.002c0.142 0.014 0.308 0.021 0.476 0.021 1.363 0 2.609-0.499 3.566-1.325l-0.007 0.006c0.194-0.194 0.315-0.461 0.315-0.757 0-0.59-0.478-1.067-1.067-1.067-0.295 0-0.562 0.12-0.756 0.314v0zM17.014 23.202c0.589 0 1.066-0.478 1.066-1.066s-0.478-1.066-1.066-1.066-1.066 0.478-1.066 1.066c0 0 0 0 0 0v0c0.001 0.589 0.478 1.066 1.067 1.066v0zM23.414 21.069c0 0 0 0 0 0-0.589 0-1.066 0.478-1.066 1.066s0.478 1.066 1.066 1.066c0.589 0 1.066-0.478 1.066-1.066v0c-0.001-0.589-0.478-1.066-1.066-1.067v0zM31.734 19.766c0-0.002 0-0.006 0-0.010 0-2.222-1.801-4.023-4.023-4.023-1.315 0-2.482 0.631-3.217 1.606l-0.007 0.010c-0.95-0.253-2.061-0.434-3.202-0.508l-0.051-0.002 0.913-6.086 2.226 0.757c0.022 1.749 1.445 3.158 3.197 3.158 1.766 0 3.197-1.431 3.197-3.197 0-0.010 0-0.022 0-0.032v0.002-0.024c-0.044-1.74-1.456-3.135-3.198-3.152h-0.002c-1.010 0.008-1.906 0.486-2.482 1.225l-0.006 0.007-3.454-1.174c-0.103-0.036-0.222-0.058-0.345-0.058-0.533 0-0.974 0.391-1.053 0.902l-0.001 0.006-1.148 7.654c-1.293 0.058-2.513 0.245-3.686 0.548l0.123-0.027c-0.74-0.991-1.91-1.626-3.228-1.626-2.219 0-4.018 1.799-4.018 4.018 0 0.786 0.226 1.521 0.617 2.141l-0.010-0.017c-0.377 0.695-0.601 1.52-0.607 2.398v0.002c0 4.186 5.154 7.466 11.734 7.466s11.734-3.28 11.734-7.466c-0.006-0.879-0.23-1.704-0.62-2.426l0.014 0.027c0.376-0.598 0.602-1.323 0.606-2.101v-0.002zM27.566 10.4c0.589 0 1.066 0.478 1.066 1.066s-0.478 1.066-1.066 1.066c-0.589 0-1.066-0.478-1.066-1.066v0c0.010-0.585 0.482-1.057 1.066-1.066h0.001zM12.299 17.866c0.348 0.005 0.672 0.103 0.949 0.271l-0.008-0.005c-1.083 0.472-2.016 1.072-2.836 1.795l0.011-0.010c-0.004-0.051-0.015-0.102-0.015-0.153 0.002-1.048 0.85-1.898 1.899-1.899v0zM20 29.6c-5.204 0-9.6-2.442-9.6-5.334s4.396-5.334 9.6-5.334 9.6 2.442 9.6 5.334-4.396 5.334-9.6 5.334zM29.585 19.918c-0.809-0.714-1.741-1.314-2.756-1.759l-0.068-0.026c0.269-0.163 0.593-0.262 0.939-0.266h0.002c1.048 0.002 1.898 0.85 1.899 1.899v0c0 0.051-0.010 0.102-0.015 0.153z"></path>
</svg>
