<!-- Generated by IcoMoon.io -->
<svg version="1.1" xmlns="http://www.w3.org/2000/svg" width="40" height="40" viewBox="0 0 40 40">
<title>ul-redo</title>
<path fill="#37352f" d="M29.6 18.934c-0.589 0-1.066 0.478-1.066 1.066v0c0 0.016 0 0.035 0 0.054 0 4.742-3.844 8.586-8.586 8.586s-8.586-3.844-8.586-8.586c0-4.742 3.844-8.586 8.586-8.586 2.445 0 4.651 1.022 6.215 2.662l0.003 0.003h-2.56c-0.589 0-1.066 0.478-1.066 1.066s0.478 1.066 1.066 1.066v0h4.832c0.589 0 1.066-0.478 1.066-1.066v0-4.8c0-0.589-0.478-1.066-1.066-1.066s-1.066 0.478-1.066 1.066v0 1.888c-1.912-1.83-4.51-2.956-7.37-2.956-5.891 0-10.666 4.776-10.666 10.666s4.776 10.666 10.666 10.666c5.89 0 10.666-4.774 10.666-10.665v0c0-0.589-0.478-1.066-1.066-1.066v0z"></path>
</svg>
