<!-- Generated by IcoMoon.io -->
<svg version="1.1" xmlns="http://www.w3.org/2000/svg" width="40" height="40" viewBox="0 0 40 40">
<title>ul-rupee-sign</title>
<path fill="#37352f" d="M26.4 14.666h-2.358c-0.221-0.818-0.588-1.532-1.076-2.146l0.009 0.012h3.424c0.589 0 1.066-0.478 1.066-1.066s-0.478-1.066-1.066-1.066v0h-11.734c-0.589 0-1.066 0.478-1.066 1.066s0.478 1.066 1.066 1.066v0h3.734c1.475 0.006 2.749 0.866 3.35 2.111l0.010 0.022h-7.094c-0.589 0-1.066 0.478-1.066 1.066s0.478 1.066 1.066 1.066v0h7.466c-0.27 1.814-1.813 3.192-3.679 3.2h-3.787c-0.022-0.002-0.048-0.004-0.074-0.004s-0.052 0.002-0.078 0.004h0.003c-0.032-0.006-0.069-0.008-0.106-0.008s-0.074 0.003-0.11 0.009l0.004-0.001c-0.078 0.026-0.145 0.063-0.205 0.108l0.002-0.002-0.128 0.074c-0.058 0.052-0.107 0.112-0.147 0.178l-0.002 0.003c-0.033 0.043-0.065 0.092-0.093 0.143l-0.003 0.006c-0.005 0.029-0.007 0.062-0.007 0.096s0.002 0.067 0.007 0.1l-0.001-0.004c-0.073 0.101-0.12 0.226-0.128 0.361v0.002s0 0 0 0c-0.002 0.022-0.004 0.048-0.004 0.074s0.002 0.052 0.004 0.078v-0.003c-0.006 0.032-0.008 0.069-0.008 0.106s0.003 0.074 0.009 0.11l-0.001-0.004c0.026 0.078 0.063 0.145 0.108 0.205l-0.002-0.002s0 0.086 0.074 0.128l6.4 7.466c0.197 0.229 0.487 0.374 0.81 0.374 0.589 0 1.066-0.478 1.066-1.066 0-0.266-0.097-0.508-0.258-0.694l0.001 0.002-4.81-5.706h1.408c0.007 0 0.016 0 0.024 0 3.052 0 5.56-2.331 5.841-5.31l0.002-0.023h2.134c0.589 0 1.066-0.478 1.066-1.066s-0.478-1.066-1.066-1.066v0z"></path>
</svg>
