<!-- Generated by IcoMoon.io -->
<svg version="1.1" xmlns="http://www.w3.org/2000/svg" width="40" height="40" viewBox="0 0 40 40">
<title>ul-sad</title>
<path fill="#37352f" d="M16.118 23.552c-0.234 0.197-0.381 0.49-0.381 0.817 0 0.258 0.091 0.494 0.243 0.678l-0.002-0.002c0.197 0.237 0.492 0.386 0.821 0.386 0.261 0 0.499-0.094 0.685-0.249l-0.002 0.002c0.682-0.554 1.561-0.889 2.518-0.889s1.835 0.335 2.525 0.894l-0.007-0.006c0.183 0.153 0.421 0.246 0.681 0.246 0.001 0 0.002 0 0.002 0v0c0.585-0.006 1.056-0.481 1.056-1.066 0-0.324-0.144-0.614-0.372-0.81l-0.002-0.001c-1.053-0.851-2.407-1.367-3.882-1.367s-2.83 0.515-3.894 1.376l0.012-0.009zM17.024 18.442c0.193 0.192 0.458 0.31 0.752 0.31s0.559-0.118 0.752-0.31v0c0.192-0.193 0.31-0.458 0.31-0.752s-0.118-0.559-0.31-0.752v0c-0.588-0.558-1.385-0.902-2.262-0.902s-1.674 0.343-2.262 0.903l0.002-0.002c-0.229 0.197-0.373 0.486-0.373 0.81 0 0.589 0.478 1.066 1.066 1.066 0.323 0 0.614-0.144 0.809-0.371l0.001-0.002c0.194-0.195 0.462-0.315 0.758-0.315s0.564 0.121 0.758 0.315v0zM20 9.334c-5.891 0-10.666 4.776-10.666 10.666s4.776 10.666 10.666 10.666c5.891 0 10.666-4.776 10.666-10.666v0c0-5.891-4.776-10.666-10.666-10.666v0zM20 28.534c-4.713 0-8.534-3.821-8.534-8.534s3.821-8.534 8.534-8.534c4.713 0 8.534 3.821 8.534 8.534v0c0 4.713-3.821 8.534-8.534 8.534v0zM25.994 16.938c-0.588-0.558-1.385-0.902-2.262-0.902s-1.674 0.343-2.262 0.903l0.002-0.002c-0.159 0.186-0.257 0.428-0.257 0.694 0 0.589 0.478 1.066 1.066 1.066 0.266 0 0.509-0.097 0.695-0.258l-0.002 0.001c0.194-0.195 0.462-0.315 0.758-0.315s0.564 0.121 0.758 0.315v0c0.193 0.192 0.458 0.31 0.752 0.31s0.559-0.118 0.752-0.31v0c0.192-0.193 0.31-0.458 0.31-0.752s-0.118-0.559-0.31-0.752v0z"></path>
</svg>
