<!-- Generated by IcoMoon.io -->
<svg version="1.1" xmlns="http://www.w3.org/2000/svg" width="40" height="40" viewBox="0 0 40 40">
<title>ul-scaling-right</title>
<path fill="#37352f" d="M30.582 9.994c-0.11-0.262-0.314-0.466-0.569-0.574l-0.007-0.002c-0.119-0.052-0.258-0.083-0.405-0.086h-4.267c-0.589 0-1.066 0.478-1.066 1.066s0.478 1.066 1.066 1.066v0h1.696l-7.030 7.030-2.262-2.272c-0.194-0.194-0.462-0.314-0.758-0.314-0.591 0-1.071 0.479-1.071 1.071 0 0.296 0.12 0.563 0.314 0.758v0l2.272 2.262-7.030 7.030v-1.696c0-0.589-0.478-1.066-1.066-1.066s-1.066 0.478-1.066 1.066v0 4.266c0.002 0.147 0.033 0.286 0.088 0.412l-0.002-0.007c0.11 0.262 0.314 0.466 0.569 0.574l0.007 0.002c0.119 0.052 0.258 0.083 0.405 0.086h4.267c0.589 0 1.066-0.478 1.066-1.066s-0.478-1.066-1.066-1.066v0h-1.696l7.030-7.030 2.262 2.272c0.193 0.191 0.458 0.31 0.751 0.31 0.002 0 0.004 0 0.006 0v0c0.002 0 0.004 0 0.006 0 0.293 0 0.558-0.118 0.751-0.31v0c0.195-0.194 0.315-0.462 0.315-0.758s-0.121-0.564-0.315-0.758v0l-2.272-2.262 7.030-7.030v1.696c0 0.589 0.478 1.066 1.066 1.066s1.066-0.478 1.066-1.066v0-4.266c-0.002-0.147-0.033-0.286-0.088-0.412l0.002 0.007z"></path>
</svg>
