<!-- Generated by IcoMoon.io -->
<svg version="1.1" xmlns="http://www.w3.org/2000/svg" width="40" height="40" viewBox="0 0 40 40">
<title>ul-shield-exclamation</title>
<path fill="#37352f" d="M20.982 23.2c-0.023-0.070-0.055-0.13-0.097-0.182l0.001 0.002-0.128-0.16c-0.194-0.195-0.462-0.315-0.758-0.315s-0.564 0.121-0.758 0.315v0c-0.050 0.046-0.093 0.098-0.126 0.157l-0.002 0.003c-0.041 0.052-0.073 0.112-0.094 0.177l-0.002 0.004c-0.029 0.058-0.051 0.126-0.063 0.198l-0.001 0.005c-0.002 0.030-0.004 0.066-0.004 0.102s0.002 0.071 0.004 0.106v-0.005c0 0.007 0 0.016 0 0.024 0 0.142 0.031 0.277 0.088 0.398l-0.002-0.006c0.166 0.388 0.543 0.655 0.984 0.655 0.145 0 0.283-0.029 0.41-0.082l-0.007 0.002c0.135-0.062 0.252-0.14 0.353-0.235l-0.001 0.001c0.094-0.095 0.169-0.209 0.222-0.334l0.002-0.007c0.054-0.122 0.085-0.266 0.086-0.416v0c0.002-0.030 0.004-0.066 0.004-0.102s-0.002-0.071-0.004-0.106v0.005c-0.027-0.078-0.063-0.145-0.108-0.205l0.002 0.002zM20 15.050c-0.589 0-1.066 0.478-1.066 1.066v0 3.2c0 0.589 0.478 1.066 1.066 1.066s1.066-0.478 1.066-1.066v0-3.2c0-0.589-0.478-1.066-1.066-1.066v0zM28.138 11.094c-0.182-0.148-0.416-0.238-0.671-0.238-0.080 0-0.158 0.009-0.232 0.026l0.007-0.002c-0.526 0.115-1.13 0.182-1.75 0.182-1.829 0-3.522-0.575-4.911-1.554l0.027 0.018c-0.17-0.119-0.381-0.19-0.608-0.19s-0.438 0.071-0.611 0.193l0.003-0.002c-1.362 0.961-3.056 1.536-4.884 1.536-0.62 0-1.224-0.066-1.806-0.191l0.056 0.010c-0.068-0.015-0.146-0.024-0.225-0.024-0.255 0-0.49 0.090-0.673 0.239l0.002-0.002c-0.242 0.197-0.394 0.495-0.394 0.828 0 0.002 0 0.002 0 0.004v0 7.946c0 0.002 0 0.004 0 0.006 0 3.209 1.574 6.050 3.993 7.794l0.028 0.019 3.894 2.774c0.172 0.124 0.386 0.198 0.618 0.198s0.446-0.074 0.622-0.2l-0.003 0.002 3.894-2.774c2.447-1.762 4.022-4.604 4.022-7.813 0-0.002 0-0.004 0-0.006v0-7.946c0-0.001 0-0.002 0-0.004 0-0.334-0.153-0.631-0.393-0.827l-0.002-0.002zM26.4 19.872c0 0.002 0 0.003 0 0.005 0 2.495-1.223 4.704-3.103 6.060l-0.022 0.015-3.274 2.336-3.274-2.336c-1.902-1.371-3.126-3.58-3.126-6.075 0-0.002 0-0.004 0-0.006v0-6.72c0.273 0.025 0.59 0.039 0.91 0.039 2.028 0 3.923-0.566 5.538-1.548l-0.047 0.026c1.567 0.956 3.462 1.522 5.49 1.522 0.32 0 0.637-0.014 0.95-0.042l-0.041 0.003z"></path>
</svg>
