<!-- Generated by IcoMoon.io -->
<svg version="1.1" xmlns="http://www.w3.org/2000/svg" width="40" height="40" viewBox="0 0 40 40">
<title>ul-slack-alt</title>
<path fill="#37352f" d="M31.734 17.334c-0.002-2.061-1.673-3.73-3.733-3.734v0c-0.583 0.003-1.133 0.141-1.622 0.384l0.022-0.010v-1.974c0-0.002 0-0.004 0-0.006 0-2.058-1.669-3.728-3.728-3.728-1.048 0-1.994 0.432-2.671 1.128l-0.001 0.001c-0.678-0.704-1.628-1.142-2.681-1.142-2.054 0-3.719 1.665-3.719 3.719 0 0.592 0.138 1.151 0.384 1.648l-0.010-0.022h-1.974c-0.002 0-0.004 0-0.006 0-2.058 0-3.728 1.669-3.728 3.728 0 1.048 0.432 1.994 1.128 2.671l0.001 0.001c-0.704 0.678-1.142 1.628-1.142 2.681 0 2.054 1.665 3.719 3.719 3.719 0.592 0 1.151-0.138 1.648-0.384l-0.022 0.010v1.974c0 0.002 0 0.004 0 0.006 0 2.058 1.669 3.728 3.728 3.728 1.048 0 1.994-0.432 2.671-1.128l0.001-0.001c0.678 0.704 1.628 1.142 2.681 1.142 2.054 0 3.719-1.665 3.719-3.719 0-0.592-0.138-1.151-0.384-1.648l0.010 0.022h1.974c0.002 0 0.004 0 0.006 0 2.058 0 3.728-1.669 3.728-3.728 0-1.048-0.432-1.994-1.128-2.671l-0.001-0.001c0.696-0.676 1.128-1.621 1.129-2.666v0zM21.066 12c0-0.884 0.716-1.6 1.6-1.6s1.6 0.716 1.6 1.6v0 5.334c0 0.884-0.716 1.6-1.6 1.6s-1.6-0.716-1.6-1.6v0zM13.6 22.666c0 0.884-0.716 1.6-1.6 1.6s-1.6-0.716-1.6-1.6c0-0.884 0.716-1.6 1.6-1.6v0h1.6zM18.934 28c0 0.884-0.716 1.6-1.6 1.6s-1.6-0.716-1.6-1.6v0-5.334c0-0.884 0.716-1.6 1.6-1.6s1.6 0.716 1.6 1.6v0zM17.334 18.934h-5.334c-0.884 0-1.6-0.716-1.6-1.6s0.716-1.6 1.6-1.6v0h5.334c0.884 0 1.6 0.716 1.6 1.6s-0.716 1.6-1.6 1.6v0zM18.934 13.6h-1.6c-0.884 0-1.6-0.716-1.6-1.6s0.716-1.6 1.6-1.6c0.884 0 1.6 0.716 1.6 1.6v0zM20 20.062c-0.021-0.021-0.041-0.042-0.062-0.062 0.021-0.021 0.042-0.041 0.062-0.062 0.021 0.021 0.041 0.042 0.062 0.062-0.021 0.021-0.042 0.041-0.062 0.062zM22.666 29.6c-0.883-0.001-1.599-0.717-1.6-1.6v-1.6h1.6c0.884 0 1.6 0.716 1.6 1.6s-0.716 1.6-1.6 1.6v0zM28 24.266h-5.334c-0.884 0-1.6-0.716-1.6-1.6s0.716-1.6 1.6-1.6v0h5.334c0.884 0 1.6 0.716 1.6 1.6s-0.716 1.6-1.6 1.6v0zM28 18.934h-1.6v-1.6c0-0.884 0.716-1.6 1.6-1.6s1.6 0.716 1.6 1.6c0 0.884-0.716 1.6-1.6 1.6v0z"></path>
</svg>
