<!-- Generated by IcoMoon.io -->
<svg version="1.1" xmlns="http://www.w3.org/2000/svg" width="40" height="40" viewBox="0 0 40 40">
<title>ul-slack</title>
<path fill="#37352f" d="M9.334 22.848c0 1.178 0.955 2.134 2.134 2.134s2.134-0.955 2.134-2.134v0-2.134h-2.134c-1.178 0-2.134 0.955-2.134 2.134v0zM22.816 19.286c1.178 0 2.134-0.955 2.134-2.134v0-5.686c0-1.178-0.955-2.134-2.134-2.134s-2.134 0.955-2.134 2.134v0 5.686c0 0 0 0 0 0 0 1.178 0.955 2.134 2.134 2.134 0.007 0 0.015 0 0.022 0h-0.001zM30.624 17.152c0-1.178-0.955-2.134-2.134-2.134s-2.134 0.955-2.134 2.134v0 2.134h2.134c0.013 0 0.028 0.001 0.042 0.001 1.178 0 2.134-0.955 2.134-2.134 0 0 0 0 0-0.001v0zM17.162 20.714c-1.178 0-2.134 0.955-2.134 2.134v0 5.686c0 1.178 0.955 2.134 2.134 2.134s2.134-0.955 2.134-2.134v0-5.686c0-1.178-0.955-2.134-2.134-2.134v0zM22.838 26.4h-2.134v2.134c0 1.178 0.955 2.134 2.134 2.134s2.134-0.955 2.134-2.134c0-1.178-0.955-2.134-2.134-2.134v0zM28.534 20.714h-5.696c-1.178 0-2.134 0.955-2.134 2.134s0.955 2.134 2.134 2.134v0h5.696c1.178 0 2.134-0.955 2.134-2.134s-0.955-2.134-2.134-2.134v0zM17.162 15.018h-5.696c-1.178 0-2.134 0.955-2.134 2.134s0.955 2.134 2.134 2.134v0h5.696c1.178 0 2.134-0.955 2.134-2.134s-0.955-2.134-2.134-2.134v0zM17.162 9.334c-1.178 0-2.134 0.955-2.134 2.134s0.955 2.134 2.134 2.134v0h2.134v-2.134c0-1.178-0.955-2.134-2.134-2.134v0z"></path>
</svg>
