<!-- Generated by IcoMoon.io -->
<svg version="1.1" xmlns="http://www.w3.org/2000/svg" width="40" height="40" viewBox="0 0 40 40">
<title>ul-save</title>
<path fill="#37352f" d="M29.29 17.11l-6.4-6.4c-0.095-0.094-0.209-0.169-0.334-0.222l-0.007-0.002c-0.123-0.051-0.266-0.082-0.415-0.086h-8.534c-1.767 0-3.2 1.433-3.2 3.2v0 12.8c0 1.767 1.433 3.2 3.2 3.2v0h12.8c1.767 0 3.2-1.433 3.2-3.2v0-8.534c0-0.002 0-0.004 0-0.006 0-0.293-0.118-0.558-0.31-0.751v0zM16.8 12.534h4.266v2.134h-4.266zM23.2 27.466h-6.4v-3.2c0-0.589 0.478-1.066 1.066-1.066v0h4.266c0.589 0 1.066 0.478 1.066 1.066v0zM27.466 26.4c0 0.589-0.478 1.066-1.066 1.066v0h-1.066v-3.2c0-1.767-1.433-3.2-3.2-3.2v0h-4.266c-1.767 0-3.2 1.433-3.2 3.2v0 3.2h-1.066c-0.589 0-1.066-0.478-1.066-1.066v0-12.8c0-0.589 0.478-1.066 1.066-1.066v0h1.066v3.2c0 0.589 0.478 1.066 1.066 1.066v0h6.4c0.589 0 1.066-0.478 1.066-1.066v0-1.696l4.266 4.266z"></path>
</svg>
