<!-- Generated by IcoMoon.io -->
<svg version="1.1" xmlns="http://www.w3.org/2000/svg" width="40" height="40" viewBox="0 0 40 40">
<title>ul-sync-slash</title>
<path fill="#37352f" d="M28.406 23.734h-4.8c-0.589 0-1.066 0.478-1.066 1.066s0.478 1.066 1.066 1.066v0h2.56c-1.552 1.637-3.738 2.658-6.164 2.666h-0.002c-1.202-0.002-2.346-0.248-3.384-0.694l0.056 0.022-1.59 1.59c1.42 0.766 3.108 1.216 4.902 1.216 0.006 0 0.011 0 0.017 0h-0.001c2.85-0.008 5.434-1.133 7.342-2.958l-0.004 0.004v1.888c0 0.589 0.478 1.066 1.066 1.066s1.066-0.478 1.066-1.066v0-4.8c0-0.589-0.478-1.066-1.066-1.066v0zM26.73 14.774v0l3.658-3.658c0.194-0.194 0.314-0.462 0.314-0.758 0-0.591-0.479-1.071-1.071-1.071-0.296 0-0.563 0.12-0.758 0.314l-2.134 2.134c-1.806-1.494-4.147-2.4-6.699-2.4-0.015 0-0.030 0-0.045 0h0.002c-2.85 0.008-5.434 1.133-7.342 2.958l0.004-0.004v-1.888c0-0.589-0.478-1.066-1.066-1.066s-1.066 0.478-1.066 1.066v0 4.8c0 0.589 0.478 1.066 1.066 1.066v0h4.8c0.589 0 1.066-0.478 1.066-1.066s-0.478-1.066-1.066-1.066v0h-2.56c1.546-1.642 3.735-2.666 6.163-2.666 1.977 0 3.796 0.678 5.236 1.815l-0.018-0.014-11.946 11.946c-1.123-1.422-1.802-3.239-1.802-5.216v0c0-0.589-0.478-1.066-1.066-1.066s-1.066 0.478-1.066 1.066v0c0 0.005 0 0.010 0 0.017 0 2.564 0.914 4.914 2.435 6.742l-0.014-0.017-2.134 2.134c-0.195 0.194-0.315 0.462-0.315 0.758s0.121 0.564 0.315 0.758v0c0.194 0.195 0.462 0.315 0.758 0.315s0.564-0.121 0.758-0.315l3.658-3.658zM27.862 16.672c0.424 0.982 0.67 2.126 0.672 3.327v0.001c0 0.589 0.478 1.066 1.066 1.066s1.066-0.478 1.066-1.066v0c0-0.005 0-0.010 0-0.016 0-1.793-0.45-3.481-1.243-4.957l0.027 0.056z"></path>
</svg>
