<!-- Generated by IcoMoon.io -->
<svg version="1.1" xmlns="http://www.w3.org/2000/svg" width="40" height="40" viewBox="0 0 40 40">
<title>ul-subway-alt</title>
<path fill="#37352f" d="M23.2 25.334h1.066c0.589 0 1.066-0.478 1.066-1.066s-0.478-1.066-1.066-1.066v0h-1.066c-0.589 0-1.066 0.478-1.066 1.066s0.478 1.066 1.066 1.066v0zM29.6 25.334v-8.534c0-1.767-1.433-3.2-3.2-3.2v0h-5.334v-2.134h4.266c0.589 0 1.066-0.478 1.066-1.066s-0.478-1.066-1.066-1.066v0h-10.666c-0.589 0-1.066 0.478-1.066 1.066s0.478 1.066 1.066 1.066v0h4.266v2.134h-5.334c-1.767 0-3.2 1.433-3.2 3.2v0 8.534c0.003 1.039 0.502 1.962 1.272 2.543l0.008 0.006-0.97 0.96c-0.195 0.194-0.315 0.462-0.315 0.758s0.121 0.564 0.315 0.758v0c0.194 0.195 0.462 0.315 0.758 0.315s0.564-0.121 0.758-0.315v0l1.814-1.824h11.926l1.814 1.824c0.194 0.195 0.462 0.315 0.758 0.315s0.564-0.121 0.758-0.315v0c0.195-0.194 0.315-0.462 0.315-0.758s-0.121-0.564-0.315-0.758v0l-0.97-0.96c0.778-0.588 1.277-1.51 1.28-2.549v-0.001zM12.534 16.8c0-0.589 0.478-1.066 1.066-1.066v0h5.334v4.266h-6.4zM27.466 25.334c0 0.589-0.478 1.066-1.066 1.066v0h-12.8c-0.589 0-1.066-0.478-1.066-1.066v0-3.2h14.934zM27.466 20h-6.4v-4.266h5.334c0.589 0 1.066 0.478 1.066 1.066v0zM15.734 25.334h1.066c0.589 0 1.066-0.478 1.066-1.066s-0.478-1.066-1.066-1.066v0h-1.066c-0.589 0-1.066 0.478-1.066 1.066s0.478 1.066 1.066 1.066v0z"></path>
</svg>
