<!-- Generated by IcoMoon.io -->
<svg version="1.1" xmlns="http://www.w3.org/2000/svg" width="40" height="40" viewBox="0 0 40 40">
<title>ul-telegram-alt</title>
<path fill="#37352f" d="M30.949 9.79c-0.376-0.314-0.864-0.506-1.398-0.506-0.295 0-0.577 0.058-0.834 0.165l0.014-0.006-19.116 7.718c-0.799 0.335-1.35 1.111-1.35 2.015 0 0.946 0.603 1.752 1.446 2.053l0.015 0.005 3.866 1.345 2.155 7.127c0.032 0.102 0.075 0.192 0.129 0.273l-0.002-0.004c0.008 0.013 0.020 0.022 0.029 0.034 0.064 0.089 0.138 0.165 0.223 0.228l0.002 0.002c0.025 0.018 0.048 0.036 0.074 0.053 0.095 0.064 0.206 0.114 0.324 0.144l0.007 0.002 0.013 0.001 0.007 0.003c0.065 0.014 0.139 0.022 0.215 0.022v0c0.007 0 0.013-0.003 0.020-0.003 0.115-0.002 0.226-0.022 0.329-0.058l-0.007 0.002c0.024-0.008 0.045-0.022 0.068-0.032 0.083-0.035 0.155-0.076 0.221-0.124l-0.003 0.002c-0.338 0.278-0.285 0.233-0.232 0.188l0.394-0.325 2.882-3.182 4.299 3.33c0.362 0.283 0.822 0.454 1.324 0.455v0c1.050-0.002 1.926-0.741 2.139-1.727l0.002-0.014 3.48-17.084c0.028-0.13 0.044-0.281 0.044-0.435 0-0.669-0.303-1.267-0.78-1.664l-0.003-0.003zM17.195 22.918c-0.143 0.143-0.246 0.327-0.29 0.533l-0.001 0.007-0.33 1.604-0.836-2.766 4.336-2.258zM26.050 28.576l-5.080-3.935c-0.178-0.139-0.406-0.223-0.653-0.223-0.313 0-0.594 0.134-0.79 0.349l-0.001 0.001-0.923 1.019 0.326-1.586 7.555-7.555c0.194-0.193 0.313-0.46 0.313-0.754 0-0.589-0.478-1.066-1.066-1.066-0.18 0-0.35 0.045-0.499 0.124l0.006-0.003-10.843 5.646-3.973-1.454 19.177-7.672z"></path>
</svg>
