<!-- Generated by IcoMoon.io -->
<svg version="1.1" xmlns="http://www.w3.org/2000/svg" width="40" height="40" viewBox="0 0 40 40">
<title>ul-tumblr-square</title>
<path fill="#37352f" d="M9.334 9.334v21.334h21.334v-21.334zM21.674 26.24c-0.112 0.012-0.242 0.019-0.374 0.019-1.983 0-3.595-1.592-3.626-3.568v-4.355h-1.344v-1.718c1.47-0.581 2.51-1.95 2.602-3.573l0.001-0.011c0-0.053 0.043-0.096 0.096-0.096v0h1.942v3.382h2.666v2.016h-2.656v4.15c-0.005 0.040-0.007 0.086-0.007 0.133 0 0.654 0.53 1.184 1.184 1.184 0.037 0 0.073-0.002 0.108-0.005h-0.005c0.389-0.018 0.753-0.102 1.088-0.242l-0.021 0.008 0.64 1.898c-0.604 0.486-1.379 0.779-2.224 0.779-0.025 0-0.049 0-0.073-0.001h0.004z"></path>
</svg>
