<!-- Generated by IcoMoon.io -->
<svg version="1.1" xmlns="http://www.w3.org/2000/svg" width="40" height="40" viewBox="0 0 40 40">
<title>ul-traffic-barrier</title>
<path fill="#37352f" d="M29.6 12.534h-1.066v-1.066c0-0.589-0.478-1.066-1.066-1.066s-1.066 0.478-1.066 1.066v0 1.066h-12.8v-1.066c0-0.589-0.478-1.066-1.066-1.066s-1.066 0.478-1.066 1.066v0 1.066h-1.066c-0.589 0-1.066 0.478-1.066 1.066v0 6.4c0 0.589 0.478 1.066 1.066 1.066v0h1.066v7.466c0 0.589 0.478 1.066 1.066 1.066s1.066-0.478 1.066-1.066v0-7.466h12.8v7.466c0 0.589 0.478 1.066 1.066 1.066s1.066-0.478 1.066-1.066v0-7.466h1.066c0.589 0 1.066-0.478 1.066-1.066v0-6.4c0-0.589-0.478-1.066-1.066-1.066v0zM11.466 17.354v-2.688h2.688zM12.896 18.934l4.266-4.266h3.552l-4.266 4.266zM19.456 18.934l4.266-4.266h3.392l-4.266 4.266zM28.534 18.934h-2.678l2.678-2.678z"></path>
</svg>
