<!-- Generated by IcoMoon.io -->
<svg version="1.1" xmlns="http://www.w3.org/2000/svg" width="40" height="40" viewBox="0 0 40 40">
<title>ul-temperature-half</title>
<path fill="#37352f" d="M21.066 23.498v-5.098c0-0.589-0.478-1.066-1.066-1.066s-1.066 0.478-1.066 1.066v0 5.098c-0.638 0.374-1.062 1.054-1.066 1.834v0.001c0 1.178 0.955 2.134 2.134 2.134s2.134-0.955 2.134-2.134v0c-0.005-0.781-0.428-1.461-1.057-1.83l-0.010-0.006zM24.8 21.066v-8c0-2.651-2.149-4.8-4.8-4.8s-4.8 2.149-4.8 4.8v0 8c-0.994 1.122-1.602 2.608-1.602 4.234 0 3.047 2.13 5.598 4.982 6.242l0.043 0.008c0.406 0.097 0.878 0.162 1.362 0.181l0.014 0.001c0.009 0 0.019 0 0.030 0 3.534 0 6.4-2.866 6.4-6.4 0-1.642-0.618-3.14-1.635-4.273l0.006 0.006zM22.666 28.608c-0.751 0.669-1.746 1.077-2.838 1.077-2.362 0-4.277-1.914-4.277-4.277 0-1.271 0.554-2.413 1.435-3.196l0.004-0.004c0.197-0.193 0.318-0.461 0.32-0.757v-8.384c0-1.473 1.194-2.666 2.666-2.666s2.666 1.194 2.666 2.666v0 8.47c0.002 0.297 0.123 0.565 0.32 0.757v0c0.803 0.777 1.302 1.865 1.302 3.069 0 1.344-0.622 2.543-1.593 3.325l-0.008 0.006z"></path>
</svg>
