<!-- Generated by IcoMoon.io -->
<svg version="1.1" xmlns="http://www.w3.org/2000/svg" width="40" height="40" viewBox="0 0 40 40">
<title>ul-taxi</title>
<path fill="#37352f" d="M25.738 22.752c-0.122-0.053-0.265-0.084-0.414-0.084-0.072 0-0.143 0.007-0.211 0.021l0.007-0.001c-0.072 0.013-0.137 0.035-0.196 0.066l0.004-0.002c-0.074 0.026-0.137 0.058-0.194 0.098l0.002-0.002-0.16 0.128c-0.188 0.197-0.305 0.463-0.31 0.757v0.001c0 0.002 0 0.004 0 0.006 0 0.293 0.118 0.558 0.31 0.751v0c0.1 0.094 0.217 0.173 0.344 0.231l0.008 0.003c0.12 0.050 0.259 0.080 0.406 0.080 0.296 0 0.563-0.121 0.757-0.315v0c0.091-0.1 0.166-0.217 0.221-0.344l0.003-0.008c0.054-0.112 0.086-0.243 0.086-0.382 0-0.008 0-0.016 0-0.024v0.001c-0.004-0.294-0.122-0.561-0.31-0.758l0.001 0.001c-0.098-0.096-0.214-0.172-0.345-0.222l-0.007-0.002zM28.534 18.592v-3.392c0-1.767-1.433-3.2-3.2-3.2v0h-0.832l-0.822-2.474c-0.146-0.426-0.544-0.726-1.010-0.726-0.001 0-0.002 0-0.003 0h-5.333c-0.001 0-0.002 0-0.002 0-0.467 0-0.864 0.3-1.008 0.718l-0.002 0.007-0.822 2.474h-0.832c-1.767 0-3.2 1.433-3.2 3.2v0 3.392c-1.25 0.451-2.13 1.626-2.134 3.007v6.401c0 0.589 0.478 1.066 1.066 1.066v0h1.066v1.066c0 0.589 0.478 1.066 1.066 1.066s1.066-0.478 1.066-1.066v0-1.066h12.8v1.066c0 0.589 0.478 1.066 1.066 1.066s1.066-0.478 1.066-1.066v0-1.066h1.066c0.589 0 1.066-0.478 1.066-1.066v0-6.4c-0.004-1.382-0.882-2.557-2.111-3.001l-0.022-0.007zM18.102 10.934h3.798l0.352 1.066h-4.502zM13.6 15.2c0-0.589 0.478-1.066 1.066-1.066v0h10.666c0.589 0 1.066 0.478 1.066 1.066v0 3.2h-12.8zM28.534 26.934h-17.066v-5.334c0-0.589 0.478-1.066 1.066-1.066v0h14.934c0.589 0 1.066 0.478 1.066 1.066v0zM14.262 22.752c-0.137 0.054-0.254 0.13-0.352 0.224v0c-0.188 0.197-0.305 0.463-0.31 0.757v0.001c0 0.002 0 0.003 0 0.006 0 0.589 0.478 1.066 1.066 1.066 0.146 0 0.286-0.030 0.412-0.082l-0.007 0.002c0.135-0.062 0.252-0.14 0.353-0.235l-0.001 0.001c0.191-0.193 0.31-0.458 0.31-0.751 0-0.002 0-0.004 0-0.006v0c-0.004-0.294-0.122-0.561-0.31-0.758l0.001 0.001c-0.193-0.19-0.457-0.307-0.749-0.307-0.15 0-0.291 0.030-0.421 0.086l0.007-0.002zM21.066 22.666h-2.134c-0.589 0-1.066 0.478-1.066 1.066s0.478 1.066 1.066 1.066v0h2.134c0.589 0 1.066-0.478 1.066-1.066s-0.478-1.066-1.066-1.066v0z"></path>
</svg>
