<!-- Generated by IcoMoon.io -->
<svg version="1.1" xmlns="http://www.w3.org/2000/svg" width="40" height="40" viewBox="0 0 40 40">
<title>ul-thumbs-down</title>
<path fill="#37352f" d="M27.466 9.334h-13.578c-1.563 0.001-2.865 1.122-3.143 2.604l-0.003 0.020-1.354 7.466c-0.034 0.173-0.052 0.372-0.052 0.576 0 1.767 1.432 3.199 3.199 3.2h4.864l-0.598 1.526c-0.175 0.457-0.277 0.985-0.277 1.536 0 2.433 1.972 4.406 4.406 4.406 0.007 0 0.014 0 0.022 0h-0.001c0.43-0.001 0.8-0.256 0.968-0.622l0.002-0.006 3.040-6.838h2.506c1.767 0 3.2-1.433 3.2-3.2v0-7.466c0-1.767-1.433-3.2-3.2-3.2v0zM23.2 21.91l-2.902 6.528c-0.942-0.291-1.614-1.154-1.614-2.174 0-0.284 0.052-0.556 0.147-0.806l-0.005 0.016 0.566-1.526c0.086-0.222 0.135-0.478 0.135-0.746 0-1.177-0.953-2.131-2.13-2.134h-4.864c-0.001 0-0.001 0-0.002 0-0.329 0-0.622-0.149-0.818-0.382l-0.002-0.002c-0.162-0.186-0.26-0.43-0.26-0.698 0-0.062 0.006-0.123 0.016-0.183l-0.001 0.006 1.354-7.466c0.094-0.501 0.528-0.875 1.050-0.875 0.006 0 0.012 0 0.018 0h9.311zM28.534 20c0 0.589-0.478 1.066-1.066 1.066v0h-2.134v-9.6h2.134c0.589 0 1.066 0.478 1.066 1.066v0z"></path>
</svg>
