<!-- Generated by IcoMoon.io -->
<svg version="1.1" xmlns="http://www.w3.org/2000/svg" width="40" height="40" viewBox="0 0 40 40">
<title>ul-user-exclamation</title>
<path fill="#37352f" d="M22.72 20.234c1.114-0.968 1.814-2.386 1.814-3.968 0 0 0 0 0 0v0c0-2.946-2.388-5.334-5.334-5.334s-5.334 2.388-5.334 5.334v0c0.014 1.59 0.733 3.009 1.859 3.962l0.008 0.006c-2.978 1.373-5.010 4.331-5.014 7.765v0.001c0 0.589 0.478 1.066 1.066 1.066s1.066-0.478 1.066-1.066v0c0-3.534 2.866-6.4 6.4-6.4s6.4 2.866 6.4 6.4v0c0 0.589 0.478 1.066 1.066 1.066s1.066-0.478 1.066-1.066v0c-0.014-3.445-2.066-6.407-5.013-7.743l-0.054-0.022zM19.2 19.466c-1.767 0-3.2-1.433-3.2-3.2s1.433-3.2 3.2-3.2c1.767 0 3.2 1.433 3.2 3.2v0c0 1.767-1.433 3.2-3.2 3.2v0zM28.266 14.134c-0.589 0-1.066 0.478-1.066 1.066v0 2.134c0 0.589 0.478 1.066 1.066 1.066s1.066-0.478 1.066-1.066v0-2.134c0-0.589-0.478-1.066-1.066-1.066v0zM27.466 19.776c-0.188 0.197-0.305 0.463-0.31 0.757v0.001c0 0.002 0 0.004 0 0.006 0 0.293 0.118 0.558 0.31 0.751v0c0.1 0.091 0.217 0.166 0.344 0.221l0.008 0.003c0.119 0.054 0.258 0.086 0.406 0.086s0.286-0.031 0.412-0.088l-0.006 0.002c0.269-0.099 0.477-0.307 0.574-0.57l0.002-0.006c0.054-0.112 0.086-0.243 0.086-0.382 0-0.008 0-0.016 0-0.024v0.001c0-0.002 0-0.004 0-0.006 0-0.589-0.478-1.066-1.066-1.066-0.296 0-0.564 0.121-0.758 0.315v0z"></path>
</svg>
