<!-- Generated by IcoMoon.io -->
<svg version="1.1" xmlns="http://www.w3.org/2000/svg" width="40" height="40" viewBox="0 0 40 40">
<title>ul-user-location</title>
<path fill="#37352f" d="M22.656 18.784c0.394-0.536 0.63-1.209 0.63-1.937 0-1.82-1.476-3.296-3.296-3.296s-3.296 1.476-3.296 3.296c0 0.728 0.236 1.401 0.636 1.946l-0.006-0.010c-0.462 0.298-0.856 0.65-1.187 1.058l-0.007 0.009c-0.143 0.184-0.23 0.418-0.23 0.672 0 0.607 0.492 1.098 1.098 1.098 0.353 0 0.666-0.166 0.867-0.424l0.002-0.002c0.514-0.65 1.302-1.063 2.186-1.066h0.001c0.885 0.003 1.672 0.417 2.182 1.061l0.005 0.006c0.197 0.242 0.495 0.394 0.828 0.394 0.002 0 0.002 0 0.004 0v0c0.587-0.002 1.062-0.479 1.062-1.066 0-0.251-0.086-0.482-0.231-0.663l0.002 0.002c-0.352-0.423-0.765-0.781-1.226-1.065l-0.022-0.012zM20 18.006v0c-0.642-0.001-1.162-0.521-1.162-1.162s0.521-1.162 1.162-1.162c0.627 0 1.138 0.497 1.162 1.118v0.002c0.001 0.013 0.001 0.028 0.001 0.042 0 0.642-0.521 1.162-1.162 1.162 0 0-0.001 0-0.001 0v0zM29.024 17.472c-0.457-4.62-4.323-8.199-9.025-8.199-1.867 0-3.602 0.565-5.045 1.532l0.033-0.021c-2.215 1.496-3.725 3.891-4.007 6.649l-0.003 0.039c-0.027 0.264-0.043 0.57-0.043 0.881 0 2.504 1.020 4.77 2.666 6.404l0.001 0.001 5.654 5.664c0.194 0.195 0.462 0.315 0.758 0.315s0.564-0.121 0.758-0.315v0l5.632-5.664c1.647-1.635 2.667-3.901 2.667-6.405 0-0.31-0.016-0.617-0.046-0.918l0.003 0.038zM24.906 23.254l-4.906 4.906-4.906-4.906c-1.253-1.253-2.027-2.983-2.027-4.895 0-0.237 0.012-0.471 0.035-0.702l-0.002 0.029c0.214-2.155 1.377-4.001 3.058-5.136l0.025-0.016c1.074-0.722 2.396-1.153 3.818-1.153s2.745 0.43 3.843 1.169l-0.025-0.016c1.701 1.147 2.862 2.984 3.080 5.101l0.002 0.030c0.022 0.208 0.034 0.449 0.034 0.693 0 1.913-0.775 3.644-2.030 4.897v0z"></path>
</svg>
