<!-- Generated by IcoMoon.io -->
<svg version="1.1" xmlns="http://www.w3.org/2000/svg" width="40" height="40" viewBox="0 0 40 40">
<title>ul-upload</title>
<path fill="#37352f" d="M16.49 15.424l2.442-2.454v10.23c0 0.589 0.478 1.066 1.066 1.066s1.066-0.478 1.066-1.066v0-10.23l2.442 2.454c0.194 0.195 0.462 0.315 0.758 0.315s0.564-0.121 0.758-0.315v0c0.195-0.194 0.315-0.462 0.315-0.758s-0.121-0.564-0.315-0.758l-4.266-4.266c-0.098-0.094-0.215-0.17-0.345-0.222l-0.007-0.002c-0.12-0.050-0.259-0.080-0.406-0.080s-0.286 0.030-0.412 0.082l0.007-0.002c-0.137 0.054-0.254 0.13-0.352 0.224v0l-4.266 4.266c-0.194 0.194-0.314 0.462-0.314 0.758 0 0.591 0.479 1.071 1.071 1.071 0.296 0 0.563-0.12 0.758-0.314v0zM29.6 20c-0.589 0-1.066 0.478-1.066 1.066v0 6.4c0 0.589-0.478 1.066-1.066 1.066v0h-14.934c-0.589 0-1.066-0.478-1.066-1.066v0-6.4c0-0.589-0.478-1.066-1.066-1.066s-1.066 0.478-1.066 1.066v0 6.4c0 1.767 1.433 3.2 3.2 3.2v0h14.934c1.767 0 3.2-1.433 3.2-3.2v0-6.4c0-0.589-0.478-1.066-1.066-1.066v0z"></path>
</svg>
