<!-- Generated by IcoMoon.io -->
<svg version="1.1" xmlns="http://www.w3.org/2000/svg" width="40" height="40" viewBox="0 0 40 40">
<title>ul-volleyball</title>
<path fill="#37352f" d="M29.162 14.56c-0.025-0.041-0.049-0.075-0.076-0.108l0.002 0.002c-1.904-3.095-5.273-5.128-9.116-5.128-1.698 0-3.303 0.397-4.728 1.102l0.062-0.028h-0.074c-3.462 1.81-5.783 5.375-5.783 9.483 0 3.672 1.855 6.91 4.679 8.829l0.038 0.024 0.352 0.214 0.106 0.074c1.525 0.981 3.374 1.585 5.361 1.642h0.239c5.789-0.131 10.432-4.856 10.432-10.664 0-2.008-0.555-3.886-1.52-5.49l0.027 0.048zM27.466 15.798c0.262 0.445 0.497 0.96 0.677 1.5l0.017 0.058c-0.954-0.322-2.053-0.512-3.194-0.522h-0.006c-0.050-0.010-0.107-0.016-0.166-0.016s-0.116 0.006-0.171 0.017l0.006-0.001c-1.382 0.019-2.691 0.303-3.887 0.804l0.069-0.026c-0.756-0.478-1.403-1.044-1.953-1.694l-0.010-0.013c1.261-0.751 2.78-1.196 4.403-1.196 1.547 0 3 0.404 4.259 1.112l-0.044-0.022zM20 11.466c0.013 0 0.028 0 0.043 0 1.556 0 3.014 0.424 4.262 1.162l-0.039-0.022c-0.318-0.046-0.689-0.073-1.064-0.074h-0.002c-2.052 0.004-3.967 0.587-5.592 1.594l0.046-0.026c-0.294-0.596-0.53-1.289-0.674-2.015l-0.009-0.054c0.898-0.357 1.939-0.564 3.029-0.566h0.001zM13.6 14.358c0.423-0.47 0.888-0.886 1.393-1.251l0.026-0.018c0.75 2.798 2.545 5.087 4.93 6.469l0.050 0.027c-0.083 1.132-0.377 2.177-0.843 3.122l0.022-0.050c-3.279-1.235-5.571-4.344-5.578-7.989v-0.001c0-0.106 0-0.202 0-0.31zM11.466 20c0.002-0.903 0.142-1.772 0.401-2.589l-0.017 0.061c0.883 3.17 3.11 5.698 6.011 6.97l0.069 0.027c-0.838 0.978-1.884 1.754-3.071 2.262l-0.054 0.021c-2.034-1.572-3.333-4.010-3.338-6.751v-0.001zM19.85 28.534c-1.004-0.015-1.958-0.206-2.841-0.542l0.057 0.019c1.408-0.878 2.564-2.030 3.419-3.39l0.026-0.044c0.942-1.48 1.534-3.266 1.621-5.182l0.001-0.023c0.555-0.19 1.201-0.326 1.869-0.382l0.030-0.002c0.161 0.619 0.253 1.33 0.253 2.062 0 3.21-1.772 6.005-4.391 7.462l-0.043 0.022zM24.352 27.338c1.279-1.731 2.048-3.908 2.048-6.264 0-0.003 0-0.006 0-0.009v0.001c-0.005-0.712-0.074-1.405-0.203-2.077l0.011 0.071c0.87 0.157 1.646 0.416 2.367 0.77l-0.052-0.023c0 0.064 0 0.128 0 0.192-0.002 3.101-1.658 5.814-4.132 7.306l-0.038 0.022z"></path>
</svg>
