<!-- Generated by IcoMoon.io -->
<svg version="1.1" xmlns="http://www.w3.org/2000/svg" width="40" height="40" viewBox="0 0 40 40">
<title>ul-vertical-distribute-bottom</title>
<path fill="#37352f" d="M29.6 26.4h-1.066v-5.334c0-0.589-0.478-1.066-1.066-1.066v0h-14.934c-0.589 0-1.066 0.478-1.066 1.066v0 5.334h-1.066c-0.589 0-1.066 0.478-1.066 1.066s0.478 1.066 1.066 1.066v0h19.2c0.589 0 1.066-0.478 1.066-1.066s-0.478-1.066-1.066-1.066v0zM26.4 26.4h-12.8v-4.266h12.8zM10.4 17.866h19.2c0.589 0 1.066-0.478 1.066-1.066s-0.478-1.066-1.066-1.066v0h-2.134v-3.2c0-0.589-0.478-1.066-1.066-1.066v0h-12.8c-0.589 0-1.066 0.478-1.066 1.066v0 3.2h-2.134c-0.589 0-1.066 0.478-1.066 1.066s0.478 1.066 1.066 1.066v0zM14.666 13.6h10.666v2.134h-10.666z"></path>
</svg>
