<!-- Generated by IcoMoon.io -->
<svg version="1.1" xmlns="http://www.w3.org/2000/svg" width="40" height="40" viewBox="0 0 40 40">
<title>ul-wordpress-simple</title>
<path fill="#37352f" d="M20 9.334c0 0 0 0 0 0-5.891 0-10.666 4.776-10.666 10.666s4.776 10.666 10.666 10.666c5.891 0 10.666-4.776 10.666-10.666 0 0 0 0 0 0v0c-0.007-5.888-4.778-10.66-10.666-10.666h-0.001zM10.41 20c0-0.002 0-0.005 0-0.007 0-1.41 0.306-2.75 0.854-3.955l-0.025 0.060 4.574 12.534c-3.226-1.59-5.405-4.855-5.405-8.629 0-0.001 0-0.002 0-0.002v0zM20 29.59c0 0 0 0 0 0-0.966 0-1.898-0.142-2.777-0.408l0.068 0.018 2.878-8.362 2.947 8.076c0.022 0.051 0.045 0.094 0.071 0.136l-0.002-0.004c-0.947 0.345-2.040 0.544-3.18 0.544-0.002 0-0.003 0-0.005 0v0zM21.322 15.503c0.578-0.030 1.098-0.091 1.098-0.091 0.202-0.019 0.36-0.189 0.36-0.394 0-0.219-0.178-0.397-0.397-0.397-0.009 0-0.018 0-0.026 0.001h0.001s-1.554 0.122-2.556 0.122c-0.942 0-2.526-0.122-2.526-0.122-0.007-0.001-0.015-0.001-0.023-0.001-0.219 0-0.397 0.178-0.397 0.397 0 0.206 0.157 0.375 0.358 0.394h0.002s0.489 0.061 1.006 0.091l1.494 4.094-2.099 6.294-3.492-10.388c0.578-0.030 1.098-0.091 1.098-0.091 0.202-0.019 0.359-0.189 0.359-0.394 0-0.219-0.178-0.397-0.397-0.397-0.009 0-0.017 0-0.026 0.001h0.001s-1.553 0.122-2.556 0.122c-0.18 0-0.392-0.005-0.617-0.012 1.739-2.619 4.677-4.322 8.013-4.322 2.5 0 4.777 0.957 6.483 2.524l-0.007-0.006c-0.042-0.002-0.082-0.008-0.124-0.008-0.895 0.027-1.611 0.76-1.611 1.66 0 0.015 0 0.030 0.001 0.045v-0.002c0.108 0.862 0.446 1.629 0.949 2.258l-0.007-0.009c0.484 0.749 0.777 1.662 0.79 2.641v0.004c-0.11 1.143-0.368 2.194-0.757 3.179l0.027-0.078-0.957 3.196zM24.822 28.289l2.929-8.469c0.445-1.012 0.711-2.19 0.73-3.428v-0.006c0-0.004 0-0.009 0-0.014 0-0.343-0.023-0.681-0.069-1.011l0.004 0.038c0.739 1.328 1.174 2.913 1.174 4.599 0 3.521-1.897 6.598-4.724 8.266l-0.045 0.025z"></path>
</svg>
