<!-- Generated by IcoMoon.io -->
<svg version="1.1" xmlns="http://www.w3.org/2000/svg" width="40" height="40" viewBox="0 0 40 40">
<title>ul-whatsapp</title>
<path fill="#37352f" d="M24.906 22.134c-0.214-0.106-1.6-0.746-1.814-0.854s-0.426-0.106-0.64 0.106c-0.214 0.214-0.64 0.854-0.854 1.066-0.106 0.214-0.32 0.214-0.534 0.106-0.746-0.32-1.494-0.746-2.134-1.28-0.534-0.534-1.066-1.174-1.494-1.814-0.106-0.214 0-0.426 0.106-0.534s0.214-0.32 0.426-0.426c0.106-0.106 0.214-0.32 0.214-0.426 0.106-0.106 0.106-0.32 0-0.426s-0.64-1.386-0.854-1.92c-0.106-0.746-0.32-0.746-0.534-0.746-0.106 0-0.32 0-0.534 0s-0.534 0.214-0.64 0.32c-0.64 0.64-0.96 1.386-0.96 2.24 0.106 0.96 0.426 1.92 1.066 2.774 1.174 1.706 2.666 3.094 4.48 3.946 0.534 0.214 0.96 0.426 1.494 0.534 0.534 0.214 1.066 0.214 1.706 0.106 0.746-0.106 1.386-0.64 1.814-1.28 0.214-0.426 0.214-0.854 0.106-1.28 0 0-0.214-0.106-0.426-0.214zM27.574 12.426c-4.16-4.16-10.88-4.16-15.040 0-3.414 3.414-4.054 8.64-1.706 12.8l-1.494 5.44 5.654-1.494c1.6 0.854 3.306 1.28 5.014 1.28v0c5.866 0 10.56-4.694 10.56-10.56 0.106-2.774-1.066-5.44-2.986-7.466zM24.694 27.36c-1.386 0.854-2.986 1.386-4.694 1.386v0c-1.6 0-3.094-0.426-4.48-1.174l-0.32-0.214-3.306 0.854 0.854-3.2-0.214-0.32c-2.56-4.266-1.28-9.6 2.88-12.266s9.494-1.28 12.054 2.774c2.56 4.16 1.386 9.6-2.774 12.16z"></path>
</svg>
