<!-- Generated by IcoMoon.io -->
<svg version="1.1" xmlns="http://www.w3.org/2000/svg" width="40" height="40" viewBox="0 0 40 40">
<title>ul-wordpress</title>
<path fill="#37352f" d="M11.111 20c-0.001 3.406 1.946 6.513 5.010 8l-4.24-11.617c-0.508 1.138-0.77 2.371-0.77 3.618zM20.156 20.778l-2.667 7.75c1.791 0.527 3.702 0.478 5.463-0.142-0.025-0.039-0.046-0.080-0.064-0.122l-2.732-7.486zM26.001 19.551c-0.012-0.87-0.266-1.718-0.733-2.451-0.478-0.601-0.78-1.322-0.873-2.085-0.022-0.847 0.646-1.552 1.493-1.578 0.039 0 0.077 0.005 0.115 0.007-3.619-3.315-9.241-3.069-12.556 0.55-0.321 0.35-0.613 0.726-0.874 1.122 0.209 0.006 0.406 0.011 0.572 0.011 0.93 0 2.369-0.113 2.369-0.113 0.202-0.012 0.376 0.143 0.388 0.346 0.011 0.197-0.135 0.368-0.331 0.387 0 0-0.482 0.056-1.017 0.085l3.237 9.628 1.946-5.834-1.385-3.794c-0.479-0.028-0.932-0.085-0.932-0.085-0.202-0.019-0.35-0.199-0.33-0.401 0.019-0.197 0.19-0.343 0.387-0.331 0 0 1.467 0.113 2.341 0.113 0.93 0 2.37-0.113 2.37-0.113 0.202-0.012 0.377 0.142 0.388 0.346 0.011 0.198-0.135 0.368-0.332 0.387 0 0-0.482 0.056-1.017 0.085l3.212 9.555 0.917-2.906c0.358-0.94 0.576-1.927 0.646-2.93zM27.86 16.65c-0.015 1.095-0.245 2.177-0.676 3.184l-2.715 7.85c4.164-2.422 5.641-7.72 3.331-11.947 0.041 0.303 0.061 0.608 0.060 0.914zM20 9.334c-5.891 0-10.666 4.776-10.666 10.666s4.776 10.666 10.666 10.666 10.666-4.776 10.666-10.666-4.776-10.666-10.666-10.666zM23.902 29.239c-3.122 1.321-6.699 0.974-9.508-0.924-1.612-1.089-2.874-2.621-3.634-4.412-1.322-3.122-0.974-6.7 0.925-9.508 1.088-1.612 2.621-2.874 4.412-3.634 3.122-1.321 6.699-0.974 9.508 0.924 1.612 1.089 2.874 2.621 3.634 4.412 1.322 3.122 0.974 6.7-0.925 9.508-1.088 1.612-2.621 2.874-4.412 3.634z"></path>
</svg>
