<!-- Generated by IcoMoon.io -->
<svg version="1.1" xmlns="http://www.w3.org/2000/svg" width="40" height="40" viewBox="0 0 40 40">
<title>ul-watch</title>
<path fill="#37352f" d="M25.334 14.432v-4.032c0-0.589-0.478-1.066-1.066-1.066v0h-8.534c-0.589 0-1.066 0.478-1.066 1.066v0 4.032c-0.652 0.585-1.062 1.428-1.066 2.367v6.401c0.005 0.94 0.415 1.783 1.064 2.366l0.003 0.002v4.032c0 0.589 0.478 1.066 1.066 1.066v0h8.534c0.589 0 1.066-0.478 1.066-1.066v0-4.032c0.652-0.585 1.062-1.428 1.066-2.367v-6.401c-0.005-0.94-0.415-1.783-1.064-2.366l-0.003-0.002zM16.8 11.466h6.4v2.134h-6.4zM23.2 28.534h-6.4v-2.134h6.4zM24.266 23.2c0 0.589-0.478 1.066-1.066 1.066v0h-6.4c-0.589 0-1.066-0.478-1.066-1.066v0-6.4c0-0.589 0.478-1.066 1.066-1.066v0h6.4c0.589 0 1.066 0.478 1.066 1.066v0z"></path>
</svg>
