<!-- Generated by IcoMoon.io -->
<svg version="1.1" xmlns="http://www.w3.org/2000/svg" width="40" height="40" viewBox="0 0 40 40">
<title>ut-fingerprint</title>
<path fill="none" stroke-linejoin="round" stroke-linecap="round" stroke-miterlimit="10" stroke-width="2.6307" stroke="#37352f" d="M7.47 28.112v6.835"></path>
<path fill="none" stroke-linejoin="round" stroke-linecap="round" stroke-miterlimit="10" stroke-width="2.6307" stroke="#37352f" d="M26.423 6.821c-1.878-1.124-4.075-1.769-6.423-1.769-6.92 0-12.53 5.61-12.53 12.531v5.161"></path>
<path fill="none" stroke-linejoin="round" stroke-linecap="round" stroke-miterlimit="10" stroke-width="2.6307" stroke="#37352f" d="M32.53 34.948v-17.365c0-2.287-0.612-4.429-1.681-6.276"></path>
<path fill="none" stroke-linejoin="round" stroke-linecap="round" stroke-miterlimit="10" stroke-width="2.6307" stroke="#37352f" d="M12.12 22.428v4.884"></path>
<path fill="none" stroke-linejoin="round" stroke-linecap="round" stroke-miterlimit="10" stroke-width="2.6307" stroke="#37352f" d="M27.879 22.554v-4.885c0-4.352-3.527-7.88-7.879-7.88s-7.88 3.528-7.88 7.88"></path>
<path fill="none" stroke-linejoin="round" stroke-linecap="round" stroke-miterlimit="10" stroke-width="2.6307" stroke="#37352f" d="M13.929 31.404c1.445 1.745 3.629 2.855 6.071 2.855 1.246 0 2.424-0.288 3.474-0.804"></path>
<path fill="none" stroke-linejoin="round" stroke-linecap="round" stroke-miterlimit="10" stroke-width="2.6307" stroke="#37352f" d="M27.879 34.948v-6.329"></path>
<path fill="none" stroke-linejoin="round" stroke-linecap="round" stroke-miterlimit="10" stroke-width="2.6307" stroke="#37352f" d="M23.317 20.785v-2.155c0-1.832-1.484-3.316-3.317-3.316-1.831 0-3.316 1.484-3.316 3.316"></path>
<path fill="none" stroke-linejoin="round" stroke-linecap="round" stroke-miterlimit="10" stroke-width="2.6307" stroke="#37352f" d="M16.684 23.648v2.155c0 1.831 1.484 3.316 3.316 3.316 1.831 0 3.317-1.485 3.317-3.316"></path>
</svg>
