<!-- Generated by IcoMoon.io -->
<svg version="1.1" xmlns="http://www.w3.org/2000/svg" width="40" height="40" viewBox="0 0 40 40">
<title>ut-phone</title>
<path fill="none" stroke-linejoin="round" stroke-linecap="round" stroke-miterlimit="10" stroke-width="2.7061" stroke="#37352f" d="M29.070 29.405l-0.664-1.109c-1.114-1.836-2.903-4.391-4.873-3.572l-1.179 0.505c-0.858 0.355-3.035 2.047-5.5-3.232-2.369-5.073 0.645-5.803 1.503-6.155l1.183-0.498c1.968-0.823 1.455-3.912 0.924-5.994l-0.316-1.259c-0.541-2.080-1.373-3.605-3.335-2.782 0 0-4.316 1.695-5.772 4.578-1.756 3.461-1.398 8.206 1.082 14.098 2.459 5.894 5.593 9.476 9.296 10.652 3.072 0.976 7.31-0.912 7.31-0.912 1.957-0.824 1.456-2.479 0.341-4.321z"></path>
</svg>
