<!-- Generated by IcoMoon.io -->
<svg version="1.1" xmlns="http://www.w3.org/2000/svg" width="40" height="40" viewBox="0 0 40 40">
<title>ut-researcher</title>
<path fill="none" stroke-linejoin="round" stroke-linecap="round" stroke-miterlimit="10" stroke-width="2.5731" stroke="#37352f" d="M16.848 11.866c0 3.265-2.646 5.91-5.909 5.91-3.264 0-5.91-2.645-5.91-5.91s2.646-5.91 5.91-5.91c3.263 0 5.909 2.646 5.909 5.91z"></path>
<path fill="none" stroke-linejoin="round" stroke-linecap="round" stroke-miterlimit="10" stroke-width="2.5731" stroke="#37352f" d="M15.117 16.045l3.638 3.638"></path>
<path fill="none" stroke-linejoin="round" stroke-linecap="round" stroke-miterlimit="10" stroke-width="2.5731" stroke="#37352f" d="M32.782 10.69c0 2.523-2.043 4.566-4.567 4.566-2.521 0-4.567-2.044-4.567-4.566s2.046-4.567 4.567-4.567c2.523 0 4.567 2.044 4.567 4.567z"></path>
<path fill="none" stroke-linejoin="round" stroke-linecap="round" stroke-miterlimit="10" stroke-width="2.5731" stroke="#37352f" d="M21.497 34.044v-9.937c0-2.431 1.988-4.421 4.42-4.421h4.633c2.431 0 4.42 1.989 4.42 4.421v9.937"></path>
</svg>
