<!-- Generated by IcoMoon.io -->
<svg version="1.1" xmlns="http://www.w3.org/2000/svg" width="40" height="40" viewBox="0 0 40 40">
<title>ut-search</title>
<path fill="none" stroke-linejoin="round" stroke-linecap="round" stroke-miterlimit="10" stroke-width="2.4618" stroke="#37352f" d="M4.985 30.494v-9.622h10.481v9.622"></path>
<path fill="none" stroke-linejoin="round" stroke-linecap="round" stroke-miterlimit="10" stroke-width="2.4618" stroke="#37352f" d="M17.851 11.706h-10.095l-2.771 9.167h12.866z"></path>
<path fill="none" stroke-linejoin="round" stroke-linecap="round" stroke-miterlimit="10" stroke-width="2.4618" stroke="#37352f" d="M9.669 7.184h5.796v4.522h-5.796v-4.522z"></path>
<path fill="none" stroke-linejoin="round" stroke-linecap="round" stroke-miterlimit="10" stroke-width="2.4618" stroke="#37352f" d="M8.219 7.184h8.696"></path>
<path fill="none" stroke-linejoin="round" stroke-linecap="round" stroke-miterlimit="10" stroke-width="2.4618" stroke="#37352f" d="M35.015 30.494v-9.622h-10.48v9.622"></path>
<path fill="none" stroke-linejoin="round" stroke-linecap="round" stroke-miterlimit="10" stroke-width="2.4618" stroke="#37352f" d="M22.15 11.706h10.095l2.77 9.167h-12.865z"></path>
<path fill="none" stroke-linejoin="round" stroke-linecap="round" stroke-miterlimit="10" stroke-width="2.4618" stroke="#37352f" d="M24.535 7.184h5.797v4.522h-5.797v-4.522z"></path>
<path fill="none" stroke-linejoin="round" stroke-linecap="round" stroke-miterlimit="10" stroke-width="2.4618" stroke="#37352f" d="M31.78 7.184h-8.695"></path>
<path fill="none" stroke-linejoin="round" stroke-linecap="round" stroke-miterlimit="10" stroke-width="2.4618" stroke="#37352f" d="M17.851 13.998h4.299v4.583h-4.299v-4.583z"></path>
<path fill="none" stroke-linejoin="round" stroke-linecap="round" stroke-miterlimit="10" stroke-width="2.4618" stroke="#37352f" d="M15.465 30.493c0 1.283-2.346 2.323-5.241 2.323s-5.24-1.040-5.24-2.323c0-1.283 2.346-2.323 5.24-2.323s5.241 1.041 5.241 2.323z"></path>
<path fill="none" stroke-linejoin="round" stroke-linecap="round" stroke-miterlimit="10" stroke-width="2.4618" stroke="#37352f" d="M35.015 30.493c0 1.283-2.347 2.323-5.24 2.323s-5.24-1.040-5.24-2.323c0-1.283 2.346-2.323 5.24-2.323s5.24 1.041 5.24 2.323z"></path>
</svg>
