<!-- Generated by IcoMoon.io -->
<svg version="1.1" xmlns="http://www.w3.org/2000/svg" width="24" height="24" viewBox="0 0 24 24">
<title>waves</title>
<path fill="#37352f" d="M16.013 8.887q1.087 0 2.362 0.637 0.9 0.45 1.612 0.45v1.575q-1.087 0-2.362-0.637-0.975-0.488-1.612-0.488-0.675 0-1.65 0.488-1.275 0.637-2.362 0.637t-2.363-0.637q-0.975-0.488-1.65-0.488-0.638 0-1.612 0.488-1.275 0.637-2.363 0.637v-1.575q0.713 0 1.613-0.45 1.275-0.637 2.362-0.637t2.362 0.637q0.9 0.45 1.65 0.45t1.65-0.45q1.275-0.637 2.363-0.637zM18.375 5.963q0.975 0.487 1.612 0.487v1.537q-1.087 0-2.362-0.637-0.975-0.488-1.612-0.488-0.675 0-1.65 0.488-1.275 0.637-2.362 0.637t-2.363-0.637q-0.975-0.488-1.65-0.488-0.638 0-1.612 0.488-1.275 0.637-2.363 0.637v-1.538q0.637 0 1.613-0.487 1.275-0.638 2.362-0.638t2.362 0.638q0.975 0.487 1.65 0.487t1.65-0.487q1.275-0.638 2.363-0.638t2.362 0.638zM16.013 12.45q1.087 0 2.362 0.638 0.9 0.45 1.612 0.45v1.575q-1.087 0-2.362-0.638-0.975-0.487-1.612-0.487-0.675 0-1.65 0.487-1.275 0.638-2.362 0.638t-2.363-0.638q-0.975-0.487-1.65-0.487-0.638 0-1.612 0.487-1.275 0.638-2.363 0.638v-1.575q0.713 0 1.613-0.45 1.275-0.638 2.362-0.638t2.362 0.638q0.9 0.45 1.65 0.45t1.65-0.45q1.275-0.638 2.363-0.638zM16.013 15.975q1.012 0 2.362 0.675 0.9 0.45 1.612 0.45v1.575q-1.087 0-2.362-0.637-0.975-0.488-1.612-0.488-0.675 0-1.65 0.488-1.275 0.637-2.362 0.637t-2.363-0.637q-0.975-0.488-1.65-0.488-0.638 0-1.612 0.488-1.275 0.637-2.363 0.637v-1.575q0.713 0 1.613-0.45 1.35-0.675 2.362-0.675t2.362 0.675q0.9 0.45 1.65 0.45t1.65-0.45q1.35-0.675 2.363-0.675z"></path>
</svg>
