<!-- Generated by IcoMoon.io -->
<svg version="1.1" xmlns="http://www.w3.org/2000/svg" width="24" height="24" viewBox="0 0 24 24">
<title>weekend</title>
<path fill="#37352f" d="M16.8 6.413q0.638 0 1.125 0.469t0.488 1.106v1.725q-0.712 0.263-1.163 0.863t-0.45 1.387v1.65h-9.6v-1.65q0-0.787-0.45-1.387t-1.163-0.863v-1.725q0-0.637 0.487-1.106t1.125-0.469h9.6zM19.2 10.387q0.637 0 1.125 0.488t0.487 1.125v4.013q0 0.637-0.487 1.106t-1.125 0.469h-14.4q-0.638 0-1.125-0.469t-0.488-1.106v-4.013q0-0.637 0.488-1.125t1.125-0.488 1.125 0.488 0.487 1.125v2.4h11.175v-2.4q0-0.637 0.488-1.125t1.125-0.488z"></path>
</svg>
