<!-- Generated by IcoMoon.io -->
<svg version="1.1" xmlns="http://www.w3.org/2000/svg" width="24" height="24" viewBox="0 0 24 24">
<title>whatshot</title>
<path fill="#37352f" d="M11.775 17.587q1.613 0 2.719-1.106t1.106-2.719q0-1.65-0.45-3.225-1.162 1.538-3.712 2.063-2.25 0.487-2.25 2.475 0 1.050 0.75 1.781t1.837 0.731zM13.2 2.925q2.4 1.95 3.806 4.744t1.406 5.944q0 2.625-1.875 4.5t-4.538 1.875-4.538-1.875-1.875-4.5q0-4.050 2.587-7.125v0.3q0 1.237 0.825 2.1t2.063 0.862q1.2 0 1.969-0.844t0.769-2.119q0-0.75-0.15-1.725t-0.3-1.538z"></path>
</svg>
