<!-- Generated by IcoMoon.io -->
<svg version="1.1" xmlns="http://www.w3.org/2000/svg" width="32" height="32" viewBox="0 0 32 32">
<title>as-3d_modelling_round-</title>
<path d="M4.324 20.915l8.635-12.778c0.459-0.618 1.442-0.293 1.442 0.477v17.682c0 0.618-0.672 1.003-1.205 0.691l-8.635-4.904c-0.411-0.242-0.522-0.786-0.237-1.168zM27.439 22.083l-8.634 4.904c-0.534 0.312-1.205-0.074-1.205-0.691v-17.682c0-0.77 0.981-1.094 1.442-0.477l8.635 12.778c0.283 0.382 0.173 0.926-0.238 1.168zM17.601 0.841c-0.771-1.122-2.429-1.122-3.2 0l-14.016 20.006c-0.691 0.928-0.422 2.25 0.576 2.835l13.44 7.718 0.677 0.365c0.576 0.31 1.269 0.31 1.845 0l0.678-0.365 13.44-7.718c0.997-0.586 1.266-1.907 0.576-2.835l-14.016-20.006z"></path>
</svg>
