<!-- Generated by IcoMoon.io -->
<svg version="1.1" xmlns="http://www.w3.org/2000/svg" width="32" height="32" viewBox="0 0 32 32">
<title>as-arrow_in_down-1</title>
<path d="M22.838 10.677l-0.005-0.006c-0.6-0.645-1.61-0.68-2.253-0.078l-1.634 1.531c-0.512 0.478-1.347 0.115-1.347-0.584v-9.939c0-0.885-0.717-1.6-1.6-1.6s-1.6 0.715-1.6 1.6v9.915c0 0.704-0.843 1.064-1.352 0.578l-1.558-1.485c-0.638-0.611-1.653-0.582-2.256 0.062-0.598 0.638-0.568 1.642 0.069 2.243l4.557 4.301c1.238 1.17 3.174 1.165 4.405-0.010l4.506-4.298c0.629-0.6 0.659-1.594 0.069-2.23zM32 29.155c0 1.565-1.088 2.845-3.379 2.845h-25.776c-1.571 0-2.845-1.274-2.845-2.845v-10.312c0-1.488 1.131-2.843 3.021-2.843h1.79c0.877 0 1.589 0.71 1.589 1.589v0.021c0 0.878-0.712 1.59-1.589 1.59h-0.022c-0.877 0-1.589 0.71-1.589 1.589v6.421c0 0.878 0.712 1.59 1.589 1.59h22.422c0.877 0 1.589-0.712 1.589-1.59v-6.421c0-0.878-0.712-1.589-1.589-1.589h-0.022c-0.877 0-1.589-0.712-1.589-1.59v-0.021c0-0.878 0.712-1.589 1.589-1.589h1.966c1.571 0 2.845 1.274 2.845 2.843v10.312z"></path>
</svg>
