<!-- Generated by IcoMoon.io -->
<svg version="1.1" xmlns="http://www.w3.org/2000/svg" width="32" height="32" viewBox="0 0 32 32">
<title>as-arrow_left-10</title>
<path d="M28.772 27.2c0 0.883-0.723 1.6-1.614 1.6h-3.228c-0.891 0-1.614-0.717-1.614-1.6v-22.4c0-0.883 0.723-1.6 1.614-1.6h3.228c0.891 0 1.614 0.717 1.614 1.6v22.4zM28.772 0h-6.456c-1.783 0-3.228 1.432-3.228 3.2v25.6c0 1.768 1.444 3.2 3.228 3.2h6.456c1.783 0 3.228-1.432 3.228-3.2v-25.6c0-1.768-1.444-3.2-3.228-3.2zM14.578 14.4h-8.014c-0.696 0-1.044-0.979-0.552-1.459l2.626-2.646c0.608-0.595 0.608-1.602 0-2.197-0.61-0.595-1.598-0.616-2.206-0.019l-5.518 5.387c-1.218 1.19-1.218 3.117 0 4.307 0.862 0.84 4.653 4.547 5.516 5.392 0.61 0.597 1.598 0.597 2.208 0s0.61-1.563 0-2.158l-2.623-2.334c-0.492-0.482-0.144-1.072 0.552-1.072h8.011c0.862 0 1.561-0.757 1.561-1.6s-0.699-1.6-1.561-1.6z"></path>
</svg>
