<!-- Generated by IcoMoon.io -->
<svg version="1.1" xmlns="http://www.w3.org/2000/svg" width="16" height="32" viewBox="0 0 16 32">
<title>as-arrow_down-</title>
<path d="M13.315 23.757l-2.368 2.259c-0.511 0.483-1.333 0.122-1.333-0.581v-23.835c0-0.883-0.731-1.6-1.615-1.6h0.013c-0.884 0-1.602 0.717-1.602 1.6v23.811c0 0.706-0.868 1.066-1.376 0.576l-2.339-2.246c-0.638-0.608-1.657-0.581-2.259 0.064l-0.006 0.003c-0.596 0.637-0.567 1.635 0.069 2.235l5.348 5.083c1.239 1.17 3.177 1.163 4.411-0.011l5.252-5.038c0.628-0.598 0.659-1.589 0.067-2.224l-0.016-0.018c-0.598-0.642-1.604-0.677-2.245-0.078z"></path>
</svg>
