<!-- Generated by IcoMoon.io -->
<svg version="1.1" xmlns="http://www.w3.org/2000/svg" width="32" height="32" viewBox="0 0 32 32">
<title>as-arrow_right_double-3</title>
<path d="M22.719 20.575c-0.447-0.439-1.17-0.439-1.616 0-0.447 0.439-0.447 1.15 0 1.588l1.922 1.754c0.36 0.354 0.105 0.822-0.405 0.822h-3.507c-0.023 0-4.378-4.217-4.394-4.233-0.447-0.438-1.17-0.404-1.616 0.035-0.447 0.438-0.447 1.167 0 1.605l1.922 1.762c0.36 0.354 0.105 0.831-0.405 0.831h-6.621c-0.631 0-1.143-0.23-1.143-0.85v-15.727c0-0.621 0.512-1.396 1.143-1.396h6.621c0.51 0 0.765 0.741 0.405 1.095l-1.922 1.958c-0.447 0.438-0.447 1.184 0 1.622 0.446 0.439 1.169 0.456 1.616 0.017l4.041-4.099c0.143-0.142 0.255-0.593 0.353-0.593h3.507c0.51 0 0.765 0.741 0.405 1.095l-1.922 1.958c-0.447 0.438-0.447 1.184 0 1.622 0.446 0.439 1.169 0.456 1.616 0.017l4.041-3.963c0.893-0.877 0.893-2.295 0-3.172-0.626-0.611-3.41-3.349-4.041-3.969-0.447-0.439-1.17-0.438-1.616 0-0.447 0.439-0.447 1.15 0 1.59l1.922 1.754c0.36 0.354 0.105 0.822-0.405 0.822h-3.507c-0.098 0-0.21-0.188-0.353-0.329-0.627-0.511-3.459-3.304-4.041-3.869-0.447-0.439-1.17-0.422-1.616 0.017-0.447 0.438-0.447 1.158 0 1.597l1.922 1.757c0.36 0.354 0.105 0.827-0.405 0.827h-7.763c-1.262 0-2.286 1.278-2.286 2.52v17.974c0 1.24 1.024 1.974 2.286 1.974h7.763c0.51 0 0.765 0.741 0.405 1.095l-1.922 1.958c-0.447 0.438-0.447 1.184 0 1.622 0.446 0.439 1.169 0.456 1.616 0.017 4.111-4.031 3.44-3.307 4.041-4.095 0.143-0.142 0.255-0.598 0.353-0.598h3.507c0.51 0 0.765 0.741 0.405 1.095l-1.922 1.958c-0.447 0.438-0.447 1.184 0 1.622 0.446 0.439 1.169 0.456 1.616 0.017 0.63-0.618 3.416-3.351 4.041-3.959 0.893-0.877 0.893-2.297 0-3.175l-4.041-3.97z"></path>
</svg>
