<!-- Generated by IcoMoon.io -->
<svg version="1.1" xmlns="http://www.w3.org/2000/svg" width="32" height="32" viewBox="0 0 32 32">
<title>as-arrow_right_up-2</title>
<path d="M18.984 19.249l8.524-8.902c0.503-0.521 1.3-0.152 1.3 0.584v3.826c0 0.914 0.776 2.482 1.656 2.482h-0.030c0.882 0 1.565-1.569 1.565-2.482v-8.275c0-1.829-1.308-2.482-3.070-2.482h-7.978c-0.881 0-1.717 0.328-1.717 1.241v0.207c0 0.914 0.836 1.862 1.717 1.862h3.901c0.712 0 1.068 0.478 0.565 1l-7.56 7.633c-0.622 0.647-1.632 0.543-2.256-0.103l-0.657-0.735c-1.246-1.293-3.266-1.317-4.514-0.025l-10.048 10.105c-0.624 0.645-0.295 1.686-0.295 2.334v-0.003c1.596 0.647 1.928 0.645 2.551-0.002l8.773-8.947c0.624-0.647 1.707-0.647 2.331 0l0.689 0.679c1.245 1.296 3.305 1.297 4.553 0.003z"></path>
</svg>
