<!-- Generated by IcoMoon.io -->
<svg version="1.1" xmlns="http://www.w3.org/2000/svg" width="32" height="32" viewBox="0 0 32 32">
<title>as-basketball-1</title>
<path d="M26.4 23.398c-1.21-1.688-2.018-4.234-2.29-5.834h4.579c-0.272 1.6-1.080 4.146-2.29 5.834zM17.6 28.69v-11.125h3.28c0.307 3.2 1.501 5.925 3.31 8.243-1.834 1.531-4.102 2.568-6.59 2.882zM17.6 3.31c2.488 0.314 4.757 1.315 6.59 2.846-1.81 2.318-3.003 5.008-3.31 8.208h-3.28v-11.054zM28.69 14.365h-4.579c0.272-1.6 1.080-4.146 2.29-5.834 1.21 1.688 2.018 4.234 2.29 5.834zM14.4 14.365h-3.28c-0.307-3.2-1.501-5.89-3.31-8.208 1.834-1.531 4.102-2.533 6.59-2.846v11.054zM14.4 28.69c-2.488-0.314-4.757-1.35-6.59-2.882 1.81-2.318 3.003-5.043 3.31-8.243h3.28v11.125zM3.31 17.565h4.579c-0.272 1.6-1.080 4.146-2.29 5.834-1.21-1.688-2.018-4.234-2.29-5.834zM5.6 8.531c1.21 1.688 2.018 4.234 2.29 5.834h-4.579c0.272-1.6 1.080-4.146 2.29-5.834zM28.61 6.174c-0.659-0.845-1.397-1.622-2.21-2.318-2.798-2.398-6.426-3.856-10.4-3.856s-7.602 1.458-10.4 3.856c-0.813 0.696-1.55 1.474-2.21 2.318-2.117 2.714-3.39 6.117-3.39 9.826s1.274 7.112 3.39 9.826c0.659 0.845 1.397 1.622 2.21 2.318 2.798 2.398 6.426 3.856 10.4 3.856s7.602-1.458 10.4-3.856c0.813-0.696 1.55-1.474 2.21-2.318 2.117-2.714 3.39-6.117 3.39-9.826s-1.274-7.112-3.39-9.826z"></path>
</svg>
