<!-- Generated by IcoMoon.io -->
<svg version="1.1" xmlns="http://www.w3.org/2000/svg" width="19" height="32" viewBox="0 0 19 32">
<title>as-balloon-1</title>
<path d="M13.059 16.034c-4.29-0.045-2.71-0.043-6.92 0-1.37-1.744-2.939-5.17-2.939-6.672 0-3.397 2.87-6.162 6.4-6.162 3.528 0 6.4 2.765 6.4 6.162 0 1.502-1.571 4.928-2.941 6.672zM9.6 0c-5.302 0-9.6 4.192-9.6 9.362 0 2.859 2.728 8.168 4.8 9.886l3.2-0.034v12.786h3.2v-12.786l3.2 0.034c2.070-1.718 4.8-7.027 4.8-9.886 0-5.17-4.299-9.362-9.6-9.362z"></path>
</svg>
