<!-- Generated by IcoMoon.io -->
<svg version="1.1" xmlns="http://www.w3.org/2000/svg" width="32" height="32" viewBox="0 0 32 32">
<title>as-cart_round-1</title>
<path d="M24 28.8c-0.882 0-1.6-0.718-1.6-1.6s0.718-1.6 1.6-1.6c0.882 0 1.6 0.718 1.6 1.6s-0.718 1.6-1.6 1.6zM6.4 19.2v-8c0-0.883 0.717-1.6 1.6-1.6h14.4v9.6h-16zM4.8 28.8c-0.882 0-1.6-0.718-1.6-1.6s0.718-1.6 1.6-1.6c0.882 0 1.6 0.718 1.6 1.6s-0.718 1.6-1.6 1.6zM6.4 6.4c-1.768 0-3.2 1.432-3.2 3.2v13.094c-2.139 0.76-3.59 2.971-3.107 5.466 0.366 1.883 1.918 3.414 3.805 3.758 3.048 0.554 5.702-1.773 5.702-4.718 0-2.086-1.339-3.845-3.2-4.506v-0.294h16v0.294c-2.139 0.76-3.59 2.971-3.107 5.466 0.366 1.883 1.918 3.414 3.805 3.758 3.048 0.554 5.702-1.773 5.702-4.718 0-2.086-1.339-3.845-3.2-4.506v-17.894c0-0.883 0.717-1.6 1.6-1.6h3.2c0.883 0 1.6-0.717 1.6-1.6s-0.717-1.6-1.6-1.6h-4.8c-1.768 0-3.2 1.432-3.2 3.2v3.2h-16z"></path>
</svg>
