<!-- Generated by IcoMoon.io -->
<svg version="1.1" xmlns="http://www.w3.org/2000/svg" width="32" height="32" viewBox="0 0 32 32">
<title>as-clouds-4</title>
<path d="M23.993 28.768c0 0.901-0.717 1.632-1.601 1.632s-1.601-0.731-1.601-1.632c0-0.901 0.717-1.632 1.601-1.632s1.601 0.731 1.601 1.632zM17.589 28.768c0 0.901-0.717 1.632-1.601 1.632s-1.601-0.731-1.601-1.632c0-0.901 0.717-1.632 1.601-1.632s1.601 0.731 1.601 1.632zM11.184 28.768c0 0.901-0.717 1.632-1.601 1.632s-1.601-0.731-1.601-1.632c0-0.901 0.717-1.632 1.601-1.632s1.601 0.731 1.601 1.632zM26.758 20.252c-1.752 1.221-1.495 0.899-20.19 0.899-0.777 0-1.529-0.258-2.126-0.712-3.396-2.572 0.581-7.801 3.92-5.097-3.149-10.576 13.227-15.302 15.472-3.966 4.789-0.176 6.773 6.195 2.925 8.875zM26.308 8.483c-0.037-0.011-0.046-0.056-0.037-0.034-4.509-10.591-19.939-8.381-21.389 3.068-0.002 0.013-0.006 0.024-0.014 0.034-0.008 0.008-0.019 0.015-0.030 0.018-7.221 1.831-6.161 12.846 1.865 12.846 18.038 0 19.407 0.632 22.544-2.117 4.797-4.206 3.015-11.973-2.938-13.816z"></path>
</svg>
