<!-- Generated by IcoMoon.io -->
<svg version="1.1" xmlns="http://www.w3.org/2000/svg" width="32" height="32" viewBox="0 0 32 32">
<title>as-chess-</title>
<path d="M16 22.4h6.4v-6.4h-6.4v6.4zM9.6 16h6.4v-6.4h-6.4v6.4zM28.8 9.6h-6.4v6.4h6.4v6.4h-6.4v6.4h-6.4v-6.4h-6.4v6.4h-4.8c-0.883 0-1.6-0.549-1.6-1.432v-4.968h6.4v-6.4h-6.4v-6.4h6.4v-6.4h6.4v6.4h6.4v-6.4h4.8c0.883 0 1.6 0.883 1.6 1.768v4.632zM28.8 0h-25.6c-1.768 0-3.2 1.432-3.2 3.2v25.6c0 1.766 1.432 3.2 3.2 3.2h25.6c1.768 0 3.2-1.434 3.2-3.2v-25.6c0-1.768-1.432-3.2-3.2-3.2z"></path>
</svg>
