<!-- Generated by IcoMoon.io -->
<svg version="1.1" xmlns="http://www.w3.org/2000/svg" width="32" height="32" viewBox="0 0 32 32">
<title>as-cook-1</title>
<path d="M23.996 17.6h-0.037c-1.722 0-3.16 1.576-3.16 3.298v1.502h-9.6v-1.456c0-1.662-1.331-3.123-2.992-3.048-2.203 0.098-4.165-1.294-4.778-3.291-1.57-5.118 4.925-8.565 8.253-4.547-2.76-5.762 6.022-9.845 8.675-4.042 0.589 1.286 0.603 2.699-0.040 4.042 0.875-1.056 2.178-1.746 3.651-1.755l0.030-0.002c1.469-0.15 2.963 0.301 3.786 1.526 2.573 3.834-0.142 7.773-3.789 7.773zM11.199 28.8h9.6v-3.2h-9.6v3.2zM23.455 5.155c-1.15-3.010-4.043-5.155-7.456-5.155-3.411 0-6.304 2.146-7.454 5.155-4.875-0.334-8.546 3.514-8.546 7.944 0 4.419 3.582 8.002 8 8.002v10.899h16v-10.899c4.419 0 8-3.582 8-8.002 0-4.422-3.662-8.28-8.544-7.944z"></path>
</svg>
