<!-- Generated by IcoMoon.io -->
<svg version="1.1" xmlns="http://www.w3.org/2000/svg" width="32" height="32" viewBox="0 0 32 32">
<title>as-call-3</title>
<path d="M31.993 3.216c0-1.766-1.437-3.203-3.203-3.203-1.246-0.008 0.078-0.003-8.014-0.013-0.883 0-1.616 0.702-1.614 1.586 0 0.883 0.686 1.571 1.57 1.571l3.843 0.038c0.714 0 1.050 0.842 0.546 1.346l-5.81 5.81c-0.624 0.626-0.624 1.638 0 2.262 0.626 0.626 1.638 0.626 2.264 0l5.811-5.811c0.504-0.504 1.386-0.126 1.386 0.586l0.008 3.818c0 0.883 0.75 1.634 1.635 1.634 0.883 0 1.587-0.73 1.587-1.613l-0.008-8.010zM22.586 24.925c-1.112-0.598-2.237-1.28-3.4-1.755-2.246-0.917-2.094 1.794-3.701 2.672-1.043 0.571-2.514-0.464-3.424-1.037-1.59-1.002-3-2.32-4.173-3.845-0.598-0.779-1.925-2.245-1.762-3.338 0.259-1.734 2.312-1.821 1.725-3.942-0.314-1.136-0.875-2.254-1.296-3.349-0.565-1.467-0.795-2.406-2.44-2.326-1.186 0.058-1.974 0.565-2.704 1.517-1.973 2.571-1.675 6.038-0.349 8.859 1.877 3.992 5.096 7.755 8.536 10.187 2.339 1.654 5.421 3.157 8.253 3.411 2.074 0.187 4.974-0.934 5.717-3.186-0.053 0.157-0.102 0.309-0.126 0.381 0.019-0.056 0.056-0.17 0.126-0.381 0.074-0.227 0.112-0.341 0.128-0.392-0.021 0.067-0.074 0.224-0.126 0.387 0.653-1.986 0.731-2.941-0.984-3.864zM23.442 29.174c-0.016 0.050-0.019 0.058 0 0v0zM23.697 28.402c0.013-0.038 0.014-0.042 0 0v0z"></path>
</svg>
