<!-- Generated by IcoMoon.io -->
<svg version="1.1" xmlns="http://www.w3.org/2000/svg" width="32" height="32" viewBox="0 0 32 32">
<title>as-camera-</title>
<path d="M16 15.2c-3.534 0-6.4 2.866-6.4 6.4s2.866 6.4 6.4 6.4c3.534 0 6.4-2.866 6.4-6.4s-2.866-6.4-6.4-6.4zM11.2 9.6h9.6v-3.2h-9.6v3.2zM24 3.2h-16v6.4h-8v19.2h6.4v-3.2h-3.2v-12.8h25.6v12.8h-3.2v3.2h6.4v-19.2h-1.6v-3.2h-3.2v3.2h-3.2v-6.4zM16 18.4c1.765 0 3.2 1.435 3.2 3.2s-1.435 3.2-3.2 3.2c-1.765 0-3.2-1.435-3.2-3.2s1.435-3.2 3.2-3.2z"></path>
</svg>
