<!-- Generated by IcoMoon.io -->
<svg version="1.1" xmlns="http://www.w3.org/2000/svg" width="32" height="32" viewBox="0 0 32 32">
<title>as-curling-</title>
<path d="M3.406 19.2c0.744-3.646 3.972-6.4 7.834-6.4h9.595c3.86 0 7.091 2.754 7.835 6.4h-25.264zM20.835 28.8h-9.595c-3.862 0-7.091-2.754-7.834-6.4h25.264c-0.744 3.646-3.974 6.4-7.835 6.4zM20.776 9.6v-6.701c0-1.602-1.538-2.899-3.139-2.899h-8.297c-0.883 0-1.599 0.717-1.599 1.6s0.716 1.6 1.599 1.6h6.397c0.884 0 1.599 0.717 1.599 1.6s-0.715 1.6-1.599 1.6h-3.198c-0.883 0-1.358 0.717-1.358 1.6v1.6c-6.397 0-14.735 8.174-9.566 16.523 2.322 3.75 6.445 5.877 10.854 5.877h6.862c7.035 0 12.474-4.72 12.664-10.837 0.197-6.352-4.822-11.563-11.218-11.563z"></path>
</svg>
