<!-- Generated by IcoMoon.io -->
<svg version="1.1" xmlns="http://www.w3.org/2000/svg" width="32" height="32" viewBox="0 0 32 32">
<title>as-clouds_sun-2</title>
<path d="M3.905 7.72c-0.521-0.52-0.521-1.363 0-1.882 0.521-0.52 1.365-0.52 1.885 0 0.521 0.519 0.521 1.361 0 1.882-0.52 0.52-1.364 0.52-1.885 0zM20.876 7.72c-0.521-0.52-0.521-1.363 0-1.882 0.52-0.52 1.365-0.52 1.885 0 0.521 0.519 0.521 1.361 0 1.882-0.52 0.52-1.365 0.52-1.885 0zM2.667 15.248c0 0.734-0.597 1.331-1.333 1.331s-1.333-0.596-1.333-1.331c0-0.735 0.597-1.331 1.333-1.331s1.333 0.596 1.333 1.331zM12 3.272c0-0.735 0.597-1.331 1.333-1.331s1.333 0.596 1.333 1.331c0 0.735-0.597 1.331-1.333 1.331s-1.333-0.596-1.333-1.331zM26.303 27.821c-1.497 1.021-1.469 0.733-16.813 0.733-0.647 0-1.273-0.212-1.771-0.58-2.776-2.059 0.415-6.417 3.264-4.157-1.361-4.472 2.079-8.569 6.347-8.569 3.279 0 5.949 2.427 6.537 5.336 3.985-0.144 5.645 5.047 2.436 7.237zM13.333 8.594c2.836 0 5.247 1.783 6.209 4.279-0.711-0.173-1.445-0.287-2.209-0.287-2.373 0-4.537 0.884-6.181 2.341-1.375 1.216-2.379 2.836-2.847 4.669-1.016-1.167-1.639-2.684-1.639-4.349 0-3.669 2.991-6.653 6.667-6.653zM25.928 18.224c-0.008-0.001-0.013-0.005-0.019-0.011-0.005-0.004-0.009-0.009-0.012-0.016-0.703-1.614-1.853-2.986-3.289-3.972-0.511-4.663-4.467-8.293-9.275-8.293-5.155 0-9.333 4.17-9.333 9.315 0 2.396 0.924 4.567 2.416 6.215-4.479 2.926-2.351 9.752 3.185 9.752 14.745 0 16.117 0.552 18.773-1.727 3.996-3.429 2.511-9.762-2.447-11.264z"></path>
</svg>
