<!-- Generated by IcoMoon.io -->
<svg version="1.1" xmlns="http://www.w3.org/2000/svg" width="32" height="32" viewBox="0 0 32 32">
<title>as-car_front_view-1</title>
<path d="M6.4 19.2v-14.4c0-0.883 0.717-1.6 1.6-1.6h16c0.883 0 1.6 0.717 1.6 1.6v14.4h-19.2zM22.4 24c0-0.883 0.717-1.6 1.6-1.6s1.6 0.717 1.6 1.6c0 0.883-0.717 1.6-1.6 1.6s-1.6-0.717-1.6-1.6zM6.4 24c0-0.883 0.717-1.6 1.6-1.6s1.6 0.717 1.6 1.6c0 0.883-0.717 1.6-1.6 1.6s-1.6-0.717-1.6-1.6zM32 14.4c0-0.883-0.717-1.6-1.6-1.6h-1.6v-9.6c0-1.768-1.432-3.2-3.2-3.2h-19.2c-1.768 0-3.2 1.432-3.2 3.2v9.6h-1.6c-0.883 0-1.6 0.717-1.6 1.6s0.717 1.6 1.6 1.6h1.6v3.2c-1.768 0-3.2 1.432-3.2 3.2v3.2c0 1.768 1.432 3.2 3.2 3.2v1.6c0 0.883 0.717 1.6 1.6 1.6h3.2c0.883 0 1.6-0.717 1.6-1.6v-1.6h12.8v1.6c0 0.883 0.717 1.6 1.6 1.6h3.2c0.883 0 1.6-0.717 1.6-1.6v-1.6c1.768 0 3.2-1.432 3.2-3.2v-3.2c0-1.768-1.432-3.2-3.2-3.2v-3.2h1.6c0.883 0 1.6-0.717 1.6-1.6z"></path>
</svg>
