<!-- Generated by IcoMoon.io -->
<svg version="1.1" xmlns="http://www.w3.org/2000/svg" width="32" height="32" viewBox="0 0 32 32">
<title>as-clouds-2</title>
<path d="M11.199 27.195v3.203c0 0.884-0.717 1.602-1.599 1.602s-1.599-0.718-1.599-1.602v-3.203c0-0.884 0.717-1.602 1.599-1.602s1.599 0.718 1.599 1.602zM23.994 27.195v3.203c0 0.884-0.716 1.602-1.599 1.602s-1.599-0.718-1.599-1.602v-3.203c0-0.884 0.716-1.602 1.599-1.602s1.599 0.718 1.599 1.602zM17.596 27.195v3.203c0 0.884-0.716 1.602-1.599 1.602s-1.599-0.718-1.599-1.602v-3.203c0-0.884 0.716-1.602 1.599-1.602s1.599 0.718 1.599 1.602zM23.885 19.187h-17.297c-0.776 0-1.527-0.255-2.124-0.698-3.362-2.502 0.565-7.669 3.915-5.002-3.296-10.872 13.32-14.487 15.455-3.894 0.027 0 0.053-0.005 0.080-0.008 0.026-0.005 0.053-0.008 0.080-0.008 2.185 0 4.035 1.526 4.608 3.479 0.884 3.016-1.321 6.131-4.717 6.131zM30.568 9.846c-1.019-1.459-2.516-2.561-4.261-3.093-0.010-0.002-0.016-0.006-0.022-0.011-0.006-0.006-0.011-0.013-0.014-0.021-4.504-10.393-19.917-8.226-21.366 3.011-0.002 0.013-0.006 0.024-0.014 0.032-0.008 0.010-0.019 0.016-0.030 0.019-4.997 1.244-6.644 7.698-2.537 11.046 1.204 0.984 2.765 1.56 4.4 1.56h16.904c6.748 0 10.647-7.238 6.941-12.544z"></path>
</svg>
