<!-- Generated by IcoMoon.io -->
<svg version="1.1" xmlns="http://www.w3.org/2000/svg" width="32" height="32" viewBox="0 0 32 32">
<title>as-camera_minus-</title>
<path d="M0 29.091h8.727v-2.909h-8.727v2.909zM17.455 25.455c-1.604 0-2.909-1.305-2.909-2.909s1.305-2.909 2.909-2.909c1.604 0 2.909 1.305 2.909 2.909s-1.305 2.909-2.909 2.909zM17.455 16.727c-3.213 0-5.818 2.605-5.818 5.818s2.605 5.818 5.818 5.818c3.213 0 5.818-2.605 5.818-5.818s-2.605-5.818-5.818-5.818zM13.091 8.727h8.727v-2.909h-8.727v2.909zM30.545 8.727v-2.909h-2.909v2.909h-2.909v-5.818h-14.545v5.818h-7.273v11.636h2.909v-8.727h23.273v14.545h-2.909v2.909h5.818v-20.364h-1.455z"></path>
</svg>
