<!-- Generated by IcoMoon.io -->
<svg version="1.1" xmlns="http://www.w3.org/2000/svg" width="32" height="32" viewBox="0 0 32 32">
<title>as-cloud_close-3</title>
<path d="M23.126 11.458l-2.269 2.265-2.269-2.265-2.27 2.265 2.27 2.265-2.27 2.266 2.27 2.265 2.269-2.265 2.269 2.265 2.269-2.265-2.269-2.266 2.269-2.265-2.269-2.265zM28.571 14.024c-2.094-8.577-13.938-7.117-15.224-0.778-0.217 1.062-0.361 2.108-0.457 2.944-0.091 0.806-0.789 1.4-1.603 1.4-0.91 0-1.64-0.75-1.616-1.658l0.034-1.225c-0.526-0.197-1.089-0.32-1.683-0.32-2.946 0-5.282 2.656-4.733 5.694 0.42 2.329 2.625 3.916 4.995 3.916l12.574-0.006c5.004-0.080 8.99-4.748 7.714-9.966zM32 15.988c0 6.133-4.725 11.108-11.143 11.204 0 0-0.030 0.002-0.048 0.005 0.016 0 0.032 0.003 0.048 0.003h-12.835c-4.431 0-8.022-3.585-8.022-8.009 0-4.422 3.591-8.009 8.022-8.009 0.868 0 1.688 0.175 2.471 0.429 4.744-11.158 21.507-7.841 21.507 4.376zM20.857 23.971v0.019c-0.043 0-0.085 0.006-0.13 0.006 0.088 0 0.13-0.022 0.13-0.026z"></path>
</svg>
