<!-- Generated by IcoMoon.io -->
<svg version="1.1" xmlns="http://www.w3.org/2000/svg" width="32" height="32" viewBox="0 0 32 32">
<title>as-car_round-5</title>
<path d="M28.8 20.8h-0.446c-0.878-0.976-2.538-1.6-3.954-1.6-0.565 0-0.4 0.115-2 0.294v-1.894h5.6c0.883 0 0.8 0.717 0.8 1.6v1.6zM24.8 25.6c-0.882 0-1.6-0.718-1.6-1.6s0.718-1.6 1.6-1.6c0.882 0 1.6 0.718 1.6 1.6s-0.718 1.6-1.6 1.6zM19.2 14.4h-6.4v-8h5.6c0.883 0 0.8 0.717 0.8 1.6v6.4zM19.2 20.8h-6.846c-0.878-0.976-2.138-1.6-3.554-1.6s-2.675 0.624-3.554 1.6h-2.046v-3.2h16v3.2zM8.8 25.6c-0.882 0-1.6-0.718-1.6-1.6s0.718-1.6 1.6-1.6c0.882 0 1.6 0.718 1.6 1.6s-0.718 1.6-1.6 1.6zM3.2 8c0-0.883 0.717-1.6 1.6-1.6h4.8v8h-6.4v-6.4zM29.6 14.4h-7.2v-8c0-1.768-0.632-3.2-2.4-3.2h-16c-1.768 0-4 1.432-4 3.2v14.4c0 1.768 1.832 3.2 3.6 3.2 0 2.651 2.349 4.8 5 4.8s5-2.149 5-4.8h6.4c0 2.651 2.149 4.8 4.8 4.8s4.4-2.149 4.4-4.8c1.768 0 2.8-1.432 2.8-3.2v-3.2c0-1.768-0.632-3.2-2.4-3.2z"></path>
</svg>
