<!-- Generated by IcoMoon.io -->
<svg version="1.1" xmlns="http://www.w3.org/2000/svg" width="32" height="32" viewBox="0 0 32 32">
<title>as-directory_favorite-</title>
<path d="M28.8 11.201c0-0.883-0.397-1.6-1.28-1.6h-11.2c-1.768 0-3.52-1.434-3.52-3.2v-1.6c0-0.883-0.397-1.6-1.28-1.6h-6.4c-0.883 0-1.92 0.717-1.92 1.6v22.4c0 0.883 1.037 1.6 1.92 1.6h22.4c0.883 0 1.28-0.717 1.28-1.6v-16zM32 9.601v19.2c0 1.766-1.112 3.2-2.88 3.2h-25.6c-1.768 0-3.52-1.434-3.52-3.2v-25.6c0-1.768 1.752-3.2 3.52-3.2h9.6c1.768 0 2.88 1.432 2.88 3.2v1.6c0 0.883 1.037 1.6 1.92 1.6h11.2c1.768 0 2.88 1.432 2.88 3.2zM22.314 18.85l-1.824 1.778c-0.285 0.278-0.416 0.678-0.347 1.070l0.43 2.51c0.133 0.782-0.488 1.418-1.192 1.418-0.186 0-0.378-0.045-0.563-0.142l-2.254-1.186c-0.176-0.093-0.37-0.139-0.563-0.139s-0.387 0.046-0.563 0.139l-2.254 1.186c-0.186 0.098-0.378 0.142-0.563 0.142-0.704 0-1.325-0.635-1.192-1.418l0.43-2.51c0.069-0.392-0.062-0.792-0.347-1.070l-1.824-1.778c-0.718-0.699-0.322-1.918 0.67-2.064l2.522-0.365c0.394-0.058 0.734-0.306 0.91-0.662l1.126-2.285c0.222-0.45 0.653-0.674 1.085-0.674s0.862 0.224 1.085 0.674l1.126 2.285c0.178 0.357 0.517 0.605 0.912 0.662l2.52 0.365c0.992 0.146 1.389 1.365 0.67 2.064z"></path>
</svg>
