<!-- Generated by IcoMoon.io -->
<svg version="1.1" xmlns="http://www.w3.org/2000/svg" width="32" height="32" viewBox="0 0 32 32">
<title>as-directory_love_favorite-1</title>
<path d="M22.082 18.569c-0.088 1.862-1.011 3.155-2.349 4.382-0.634 0.582-1.278 1.152-1.925 1.722-1.206 1.066-3.016 1.066-4.229 0.006-0.693-0.605-1.384-1.21-2.058-1.835-1.314-1.221-2.168-2.522-2.232-4.358-0.053-1.51 0.674-2.928 2.165-3.442 1.563-0.539 3.027 0.133 3.982 1.346 0.125 0.158 0.373 0.154 0.498-0.003 0.886-1.134 2.213-1.797 3.699-1.427 1.68 0.418 2.526 1.962 2.448 3.61zM28.8 27.201c0 0.883-0.397 1.6-1.28 1.6h-22.4c-0.885 0-1.92-0.717-1.92-1.6v-22.4c0-0.883 1.035-1.6 1.92-1.6h6.4c0.883 0 1.28 0.717 1.28 1.6v1.6c0 1.768 1.752 3.2 3.52 3.2h11.2c0.883 0 1.28 0.717 1.28 1.6v16zM29.12 6.401h-11.2c-0.885 0-1.92-0.717-1.92-1.6v-1.6c0-1.766-1.114-3.2-2.88-3.2h-9.6c-1.768 0-3.52 1.434-3.52 3.2v25.6c0 1.768 1.752 3.2 3.52 3.2h25.6c1.766 0 2.88-1.432 2.88-3.2v-19.2c0-1.766-1.114-3.2-2.88-3.2z"></path>
</svg>
