<!-- Generated by IcoMoon.io -->
<svg version="1.1" xmlns="http://www.w3.org/2000/svg" width="32" height="32" viewBox="0 0 32 32">
<title>as-eyes-</title>
<path d="M22.406 22.45c-1.704 0-3.246-0.682-4.393-1.774 1.575-2.862 1.575-6.431 0-9.293 0.592-0.563 1.29-1.013 2.063-1.318-1.68 2.406-0.768 5.849 1.872 7.105 2.575 1.226 5.71-0.146 6.599-2.854 1.12 4.025-1.954 8.133-6.141 8.133zM25.607 12.82c0 1.605-3.201 1.605-3.201 0s3.201-1.605 3.201 0zM13.996 20.677c-2.897 2.756-7.685 2.146-9.811-1.234-2.108-3.356-0.589-7.927 3.087-9.377-1.636 2.343-0.823 5.677 1.69 7.009 2.582 1.369 5.87 0.018 6.781-2.757 0.637 2.29-0.022 4.719-1.748 6.359zM11.203 11.215c1.6 0 1.6 3.21 0 3.21s-1.6-3.21 0-3.21zM22.406 6.4c-2.463 0-4.702 0.937-6.402 2.467-6.080-5.468-16.004-0.984-16.004 7.163s9.924 12.632 16.004 7.163c5.094 4.582 13.442 2.313 15.54-4.199 1.973-6.123-2.729-12.595-9.139-12.595z"></path>
</svg>
