<!-- Generated by IcoMoon.io -->
<svg version="1.1" xmlns="http://www.w3.org/2000/svg" width="32" height="32" viewBox="0 0 32 32">
<title>as-emoji_happy-6</title>
<path d="M24 9.6c0.883 0 1.6 0.717 1.6 1.6v3.2c0 0.883-0.717 1.6-1.6 1.6h-3.2c-0.88 0-1.6-0.72-1.6-1.6v-3.2c0-0.883 0.717-1.6 1.6-1.6h3.2zM11.2 14.4h-3.2c-0.883 0-1.6-0.717-1.6-1.6s0.717-1.6 1.6-1.6h3.2c0.883 0 1.6 0.717 1.6 1.6s-0.717 1.6-1.6 1.6zM23.829 19.269c-1.611 8.221-14.046 8.054-15.658-0.166-0.187-0.958 0.608-1.502 1.586-1.502h0.027c0.762 0 1.386 0.384 1.56 1.126 1.104 4.677 8.208 4.51 9.312-0.166 0.174-0.742 0.798-0.96 1.56-0.96h0.027c0.978 0 1.773 0.71 1.586 1.669zM28.8 26.584c0 0.885-0.717 2.216-1.6 2.216h-22.4c-0.883 0-1.6-1.331-1.6-2.216v-11.2c0-7.058 5.742-12.184 12.8-12.184s12.8 5.126 12.8 12.184v11.2zM16 0c-10.954 0-16 8.11-16 15.384v12.8c0 1.768 1.432 3.816 3.2 3.816h25.6c1.768 0 3.2-2.048 3.2-3.816v-12.8c0-7.136-4.883-15.384-16-15.384z"></path>
</svg>
