<!-- Generated by IcoMoon.io -->
<svg version="1.1" xmlns="http://www.w3.org/2000/svg" width="32" height="32" viewBox="0 0 32 32">
<title>as-emoji_surprised_square_round_glasses-</title>
<path d="M19.2 21.736c0 1.768-1.432 3.2-3.2 3.2s-3.2-1.432-3.2-3.2c0-1.768 1.432-3.2 3.2-3.2s3.2 1.432 3.2 3.2zM19.2 6.4h-16v-1.6c0-0.883 0.717-1.6 1.6-1.6h22.4c0.883 0 1.6 0.717 1.6 1.6v1.6h-9.6zM22.4 16h6.4v-6.4h-6.4v6.4zM28.8 26.536c0 0.883-0.717 2.264-1.6 2.264h-22.4c-0.883 0-1.6-1.381-1.6-2.264v-7.336h9.6v-9.6h6.4v9.6h9.6v7.336zM3.2 16h6.4v-6.4h-6.4v6.4zM28.8 0h-25.6c-1.768 0-3.2 1.432-3.2 3.2v24.936c0 2.125 1.739 3.864 3.864 3.864h24.936c1.768 0 3.2-1.432 3.2-3.2v-25.6c0-1.768-1.432-3.2-3.2-3.2z"></path>
</svg>
