<!-- Generated by IcoMoon.io -->
<svg version="1.1" xmlns="http://www.w3.org/2000/svg" width="32" height="32" viewBox="0 0 32 32">
<title>as-emoji_sad-5</title>
<path d="M24 9.6c0.883 0 1.6 0.717 1.6 1.6v3.2c0 0.883-0.717 1.6-1.6 1.6h-3.2c-0.88 0-1.6-0.72-1.6-1.6v-3.2c0-0.883 0.717-1.6 1.6-1.6h3.2zM8 16c-0.88 0-1.6-0.72-1.6-1.6v-3.2c0-0.883 0.717-1.6 1.6-1.6h3.2c0.883 0 1.6 0.717 1.6 1.6v3.2c0 0.883-0.717 1.6-1.6 1.6h-3.2zM24 25.6h-16c0-11.2 16-11.2 16 0zM28.8 26.584c0 0.885-0.717 2.216-1.6 2.216h-22.4c-0.883 0-1.6-1.331-1.6-2.216v-11.2c0-7.058 5.742-12.184 12.8-12.184s12.8 5.126 12.8 12.184v11.2zM28.8 5.813c-3.322-4.434-7.253-5.813-12.8-5.813-5.552 0-9.482 1.382-12.8 5.813-2 2.672-3.2 5.978-3.2 9.571v12.8c0 1.768 1.432 3.816 3.2 3.816h25.6c1.768 0 3.2-2.048 3.2-3.816v-12.8c0-3.594-1.2-6.899-3.2-9.571z"></path>
</svg>
