<!-- Generated by IcoMoon.io -->
<svg version="1.1" xmlns="http://www.w3.org/2000/svg" width="32" height="32" viewBox="0 0 32 32">
<title>as-emoji_neutral-7</title>
<path d="M9.905 24.381h12.19v-3.048h-12.19v3.048zM3.81 6.095v-2.156c0-0.841 0.683-0.891 1.524-0.891h21.333c0.841 0 1.524 0.050 1.524 0.891v2.156h-24.381zM23.619 15.238c-0.841 0-1.524-1.361-1.524-2.202v-3.893h6.095v6.095h-4.571zM16 28.062c-5.684 0-10.458-5.205-11.802-9.777h5.707c1.684 0 3.048-2.043 3.048-3.726v-5.417h6.095v5.417c0 1.682 1.364 3.726 3.048 3.726h5.707c-1.344 4.571-6.118 9.777-11.802 9.777zM9.905 9.143v3.893c0 0.841-0.683 2.202-1.524 2.202h-4.571v-6.095h6.095zM28.19 0h-24.381c-1.684 0-3.048 0.731-3.048 2.415v15.87h0.311c1.591 5.309 3.723 7.115 5.812 8.68 2.545 1.906 5.693 3.55 9.115 3.55 5.237 0 10.968-4.803 12.19-6.435 1.332-1.778 2.28-4.271 2.737-5.795h0.311v-15.87c0-1.684-1.364-2.415-3.048-2.415z"></path>
</svg>
