<!-- Generated by IcoMoon.io -->
<svg version="1.1" xmlns="http://www.w3.org/2000/svg" width="32" height="32" viewBox="0 0 32 32">
<title>as-emoji_minecraft-2</title>
<path d="M24 16h-4.8v-4.8c0-0.883 0.717-1.6 1.6-1.6h3.2c0.883 0 1.6 0.717 1.6 1.6v3.2c0 0.883-0.717 1.6-1.6 1.6zM12.8 16h-4.8c-0.88 0-1.6-0.72-1.6-1.6v-3.2c0-0.883 0.717-1.6 1.6-1.6h3.2c0.883 0 1.6 0.717 1.6 1.6v4.8zM28.8 26.56c0 0.883-0.717 2.24-1.6 2.24h-4.8v-8.664c0-0.883-0.717-1.6-1.6-1.6s-1.6-0.717-1.6-1.6v-0.936h-6.4v0.936c0 0.883-0.717 1.6-1.6 1.6s-1.6 0.717-1.6 1.6v8.664h-4.8c-0.883 0-1.6-1.357-1.6-2.24v-11.2c0-7.058 5.742-12.16 12.8-12.16s12.8 5.102 12.8 12.16v11.2zM12.8 28.8v-2.264c0-0.883 0.717-0.936 1.6-0.936h3.2c0.883 0 1.6 0.053 1.6 0.936v2.264h-6.4zM28.8 5.789c-3.33-4.446-7.222-5.789-12.8-5.789-5.589 0-9.474 1.347-12.8 5.789-2 2.672-3.2 5.978-3.2 9.571v12.8c0 1.768 1.432 3.84 3.2 3.84h25.6c1.768 0 3.2-2.072 3.2-3.84v-12.8c0-3.594-1.2-6.899-3.2-9.571z"></path>
</svg>
