<!-- Generated by IcoMoon.io -->
<svg version="1.1" xmlns="http://www.w3.org/2000/svg" width="32" height="32" viewBox="0 0 32 32">
<title>as-file_jar-</title>
<path d="M31.56 9.671l-8.72-9.173c-0.302-0.317-0.722-0.498-1.16-0.498h-18.48c-1.766 0-3.2 1.434-3.2 3.2v11.2c0 0.883 0.717 1.6 1.6 1.6 0.885 0 1.6-0.717 1.6-1.6v-9.6c0-0.883 0.717-1.6 1.6-1.6h14.4v6.4c0 1.768 1.434 3.2 3.2 3.2h6.4v1.6c0 0.883 0.717 1.6 1.6 1.6 0.885 0 1.6-0.717 1.6-1.6v-3.627c0-0.41-0.157-0.805-0.44-1.102zM28.793 24c0-0.883-0.715-1.6-1.6-1.6h-1.6v3.2h1.6c0.885 0 1.6-0.715 1.6-1.6zM29.953 27.919l1.005 2.011c0.475 0.952-0.216 2.070-1.28 2.070-0.542 0-1.037-0.306-1.28-0.79l-1.205-2.41h-1.594v1.6c0 0.883-0.715 1.6-1.6 1.6-0.883 0-1.6-0.717-1.6-1.6v-9.6c0-0.883 0.717-1.6 1.6-1.6h2.958c2.499 0 4.754 1.808 5.010 4.294 0.189 1.827-0.656 3.466-2.014 4.424zM17.6 23.2c0-0.442-0.358-0.8-0.8-0.8h-1.6c-0.442 0-0.8 0.358-0.8 0.8v2.4h3.2v-2.4zM20.8 20.8v9.6c0 0.883-0.715 1.6-1.6 1.6-0.883 0-1.6-0.717-1.6-1.6v-1.6h-3.2v1.6c0 0.883-0.715 1.6-1.6 1.6-0.883 0-1.6-0.717-1.6-1.6v-9.6c0-0.883 0.717-1.6 1.6-1.6h6.4c0.885 0 1.6 0.717 1.6 1.6zM9.6 20.8v8c0 1.768-1.432 3.2-3.2 3.2h-4.8c-0.883 0-1.6-0.717-1.6-1.6s0.717-1.6 1.6-1.6h3.2c0.885 0 1.6-0.717 1.6-1.6v-6.4c0-0.883 0.717-1.6 1.6-1.6 0.885 0 1.6 0.717 1.6 1.6z"></path>
</svg>
