<!-- Generated by IcoMoon.io -->
<svg version="1.1" xmlns="http://www.w3.org/2000/svg" width="32" height="32" viewBox="0 0 32 32">
<title>as-file_iso-</title>
<path d="M31.551 9.838l-8.725-9.256c-0.301-0.318-0.725-0.581-1.163-0.581h-18.48c-1.768 0-3.184 1.6-3.184 3.366v11.2c0 0.883 0.709 1.434 1.592 1.434h0.005c0.883 0 1.603-0.55 1.603-1.434v-9.6c0-0.883 0.701-1.766 1.584-1.766h14.416v6.566c0 1.768 1.416 3.034 3.184 3.034h6.416v1.766c0 0.883 0.709 1.434 1.592 1.434h0.005c0.883 0 1.603-0.55 1.603-1.434v-3.627c0-0.411-0.165-0.805-0.448-1.102zM28.799 23.202c0-0.443-0.357-0.8-0.8-0.8h-1.6c-0.442 0-0.8 0.357-0.8 0.8v4.8c0 0.442 0.358 0.8 0.8 0.8h1.6c0.443 0 0.8-0.358 0.8-0.8v-4.8zM31.999 20.802v9.6c0 0.883-0.715 1.6-1.6 1.6h-6.4c-0.883 0-1.6-0.717-1.6-1.6v-9.6c0-0.885 0.717-1.6 1.6-1.6h6.4c0.885 0 1.6 0.715 1.6 1.6zM8.017 19.202h-6.4c-0.877 0-1.6 0.787-1.613 1.662 0.013 0.872 0.736 1.538 1.613 1.538h1.582v6.4h-1.582c-0.877 0-1.6 0.787-1.613 1.662 0.013 0.872 0.736 1.538 1.613 1.538h6.4c0.883 0 1.582-0.634 1.582-1.517v-0.042c0-0.885-0.699-1.642-1.582-1.642h-1.618v-6.4h1.618c0.883 0 1.582-0.634 1.582-1.517v-0.042c0-0.885-0.699-1.642-1.582-1.642zM-0.001 20.885c0-0.008 0.005-0.014 0.005-0.021 0-0.008-0.005-0.014-0.005-0.021v0.042zM-0.001 30.485c0-0.008 0.005-0.014 0.005-0.021 0-0.008-0.005-0.014-0.005-0.021v0.042zM11.199 30.485c0-0.008 0.005-0.014 0.005-0.021 0-0.008-0.005-0.014-0.005-0.021v0.042zM20.799 20.843v0.042c0 0.883-0.699 1.517-1.582 1.517h-4c-0.442 0-0.8 0.357-0.8 0.8 0 0.442 0.358 0.8 0.8 0.8h2.434c1.749 0 3.149 1.584 3.149 3.333v1.667c0 1.749-1.4 3-3.149 3h-4.834c-0.877 0-1.6-0.666-1.613-1.538 0.013-0.875 0.736-1.662 1.613-1.662h4c0.442 0 0.8-0.358 0.8-0.8 0-0.443-0.358-0.8-0.8-0.8h-2.4c-1.768 0-3.218-1.266-3.218-3.034v-1.6c0-1.766 1.45-3.366 3.218-3.366h4.8c0.883 0 1.582 0.757 1.582 1.642z"></path>
</svg>
