<!-- Generated by IcoMoon.io -->
<svg version="1.1" xmlns="http://www.w3.org/2000/svg" width="32" height="32" viewBox="0 0 32 32">
<title>as-file_missing_close-1</title>
<path d="M28.841 17.66h2.909v-2.918h-2.909v2.918zM17.204 29.332h2.909v-2.918h-2.909v2.918zM23.023 29.332h2.909v-2.918h-2.909v2.918zM28.841 29.332h2.909v-2.918h-2.909v2.918zM6.172 23.747l-2.058 2.063-2.057-2.063-2.057 2.063 2.057 2.063-2.057 2.063 2.057 2.064 2.057-2.064 2.058 2.064 2.057-2.064-2.057-2.063 2.057-2.063-2.057-2.063zM2.659 3.071h2.909v-2.918h-2.909v2.918zM28.841 23.496h2.909v-2.918h-2.909v2.918zM8.477 3.071h2.909v-2.918h-2.909v2.918zM14.295 3.071h2.909v-2.918h-2.909v2.918zM2.659 8.907h2.909v-2.918h-2.909v2.918zM2.659 20.578h2.909v-2.918h-2.909v2.918zM11.386 29.332h2.909v-2.918h-2.909v2.918zM23.023 0h-2.659v11.671h11.636v-2.765l-8.977-8.907zM2.659 14.742h2.909v-2.918h-2.909v2.918z"></path>
</svg>
