<!-- Generated by IcoMoon.io -->
<svg version="1.1" xmlns="http://www.w3.org/2000/svg" width="32" height="32" viewBox="0 0 32 32">
<title>as-glasses-1</title>
<path d="M28.8 28.8h-4.8c-0.883 0-1.6-0.717-1.6-1.6v-4.8h6.4v6.4zM8 28.8h-4.8v-6.4h6.4v4.8c0 0.883-0.717 1.6-1.6 1.6zM3.2 0c-1.768 0-3.2 1.432-3.2 3.2v28.8h9.6c1.768 0 3.2-1.432 3.2-3.2v-6.4h6.4v6.4c0 1.768 1.432 3.2 3.2 3.2h9.6v-28.8c0-1.768-1.432-3.2-3.2-3.2h-6.4v3.2h4.8c0.883 0 1.6 0.717 1.6 1.6v14.4h-25.6v-14.4c0-0.883 0.717-1.6 1.6-1.6h4.8v-3.2h-6.4z"></path>
</svg>
