<!-- Generated by IcoMoon.io -->
<svg version="1.1" xmlns="http://www.w3.org/2000/svg" width="32" height="32" viewBox="0 0 32 32">
<title>as-golf-</title>
<path d="M28.621 18.091c-2.623 0.43-5.042 1.65-6.959 3.565-1.965 1.963-3.145 4.41-3.564 6.96 2.623-0.43 5.044-1.65 6.961-3.565 1.963-1.963 3.143-4.411 3.563-6.96zM14.842 28.744c0.421-3.418 1.93-6.726 4.554-9.35 2.625-2.622 5.935-4.128 9.353-4.55-0.259-2.882-1.488-5.693-3.691-7.894-2.144-2.142-4.916-3.427-7.901-3.693-0.421 3.418-1.93 6.726-4.554 9.349s-5.934 4.13-9.353 4.55c0.259 2.883 1.488 5.694 3.691 7.896 2.144 2.142 4.916 3.426 7.901 3.693zM3.378 13.907c2.623-0.429 5.044-1.65 6.961-3.565 1.963-1.962 3.143-4.41 3.563-6.958-2.623 0.429-5.044 1.65-6.961 3.565-1.963 1.962-3.143 4.41-3.563 6.958zM31.877 17.963c-0.42 3.418-1.928 6.726-4.554 9.35-2.625 2.622-5.935 4.128-9.352 4.55-0.655 0.080-1.313 0.136-1.971 0.136-0.412 0-0.823-0.027-1.235-0.059-3.677-0.283-7.276-1.818-10.088-4.627-2.812-2.811-4.349-6.406-4.631-10.080-0.082-1.066-0.054-2.136 0.077-3.198 0.421-3.418 1.928-6.726 4.554-9.349 2.625-2.622 5.934-4.13 9.353-4.55 0.653-0.082 1.311-0.136 1.97-0.136 0.412 0 0.823 0.027 1.235 0.059 3.677 0.282 7.276 1.816 10.088 4.627 2.812 2.81 4.349 6.405 4.631 10.080 0.082 1.066 0.055 2.136-0.077 3.197zM17.235 0.059c-0.412-0.032-0.823-0.059-1.235-0.059-0.658 0-1.316 0.054-1.97 0.136zM0.123 14.035c-0.131 1.062-0.159 2.133-0.077 3.198l0.077-3.198zM31.877 17.963c0.131-1.061 0.159-2.131 0.077-3.197l-0.077 3.197zM17.971 31.864c-0.655 0.080-1.313 0.136-1.971 0.136-0.412 0-0.823-0.027-1.235-0.059z"></path>
</svg>
