<!-- Generated by IcoMoon.io -->
<svg version="1.1" xmlns="http://www.w3.org/2000/svg" width="32" height="32" viewBox="0 0 32 32">
<title>as-game_controller_round-2</title>
<path d="M28.8 17.6c0-0.883-0.717-1.6-1.6-1.6h-22.4c-0.883 0-1.6 0.717-1.6 1.6v9.6c0 0.883 0.717 1.6 1.6 1.6h22.4c0.883 0 1.6-0.717 1.6-1.6v-9.6zM32 16v12.8c0 1.768-1.432 3.2-3.2 3.2h-25.6c-1.768 0-3.2-1.432-3.2-3.2v-12.8c0-1.768 1.432-3.2 3.2-3.2h11.2v-6.4c0-1.768 1.432-3.2 3.2-3.2h3.2c0.883 0 1.6-0.717 1.6-1.6v-1.6h3.2v3.2c0 1.768-1.432 3.2-3.2 3.2h-3.2c-0.883 0-1.6 0.717-1.6 1.6v4.8h11.2c1.768 0 3.2 1.432 3.2 3.2zM22.4 24h3.2v-3.2h-3.2v3.2zM17.6 20.8c-0.883 0-1.6 0.717-1.6 1.6s0.717 1.6 1.6 1.6c0.883 0 1.6-0.717 1.6-1.6s-0.717-1.6-1.6-1.6zM11.2 20.8h1.6v3.2h-1.6v1.6h-3.2v-1.6h-1.6v-3.2h1.6v-1.6h3.2v1.6z"></path>
</svg>
