<!-- Generated by IcoMoon.io -->
<svg version="1.1" xmlns="http://www.w3.org/2000/svg" width="32" height="32" viewBox="0 0 32 32">
<title>as-inbox_down_round-</title>
<path d="M27.2 16v-4.8l1.6 4.8h-1.6zM28.8 27.2c0 0.883-0.717 1.6-1.6 1.6h-22.4c-0.883 0-1.6-0.717-1.6-1.6v-8h4.8c0.883 0 1.6 0.717 1.6 1.6v1.6c0 1.768 1.432 3.2 3.2 3.2h6.4c1.768 0 3.2-1.432 3.2-3.2v-1.6c0-0.883 0.717-1.6 1.6-1.6h4.8v8zM4.8 11.2v4.8h-1.6l1.6-4.8zM8 4.8c0-0.883 0.717-1.6 1.6-1.6h4.822l0.035 4.907c0.005 0.715-0.861 1.077-1.366 0.571l-0.494-0.494c-0.626-0.626-1.638-0.626-2.264 0-0.624 0.624-0.624 1.637 0 2.262 2.003 2.002 2.102 2.102 3.395 3.394 1.25 1.25 3.275 1.25 4.525 0 1.374-1.374 2.146-2.144 3.491-3.491 0.619-0.618 0.626-1.618 0.018-2.246-0.622-0.64-1.648-0.648-2.28-0.016l-0.597 0.597c-0.506 0.506-1.37 0.146-1.365-0.57l0.022-4.914h4.858c0.883 0 1.6 0.717 1.6 1.6v11.2h-1.6c-1.768 0-3.2 1.432-3.2 3.2v1.6c0 0.883-0.717 1.6-1.6 1.6h-3.2c-0.883 0-1.6-0.717-1.6-1.6v-1.6c0-1.768-1.432-3.2-3.2-3.2h-1.6v-11.2zM28.8 6.4h-1.6v-3.2c0-1.768-1.432-3.2-3.2-3.2h-16c-1.768 0-3.2 1.432-3.2 3.2v3.2h-1.6l-3.2 9.6v12.8c0 1.768 1.432 3.2 3.2 3.2h25.6c1.768 0 3.2-1.432 3.2-3.2v-12.8l-3.2-9.6z"></path>
</svg>
