<!-- Generated by IcoMoon.io -->
<svg version="1.1" xmlns="http://www.w3.org/2000/svg" width="32" height="32" viewBox="0 0 32 32">
<title>as-inbox_done-</title>
<path d="M14.869 15.257c-1.637-1.637-2.888-2.888-4.525-4.525l2.262-2.264 2.262 2.264 4.525-4.526 2.264 2.262-6.789 6.789zM27.2 15.999v-4.933l1.6 4.933h-1.6zM28.8 28.799h-25.6v-9.6h6.4v6.4h12.8v-6.4h6.4v9.6zM4.8 11.066v4.933h-1.6l1.6-4.933zM8 3.199h16v12.8h-4.8v6.4h-6.4v-6.4h-4.8v-12.8zM28.8 6.399h-1.6v-6.4h-22.4v6.4h-1.6l-3.2 9.467v16.133h32v-16.133l-3.2-9.467z"></path>
</svg>
