<!-- Generated by IcoMoon.io -->
<svg version="1.1" xmlns="http://www.w3.org/2000/svg" width="32" height="32" viewBox="0 0 32 32">
<title>as-image_picture-2</title>
<path d="M19.2 10.4c0-0.883 0.717-1.6 1.6-1.6s1.6 0.717 1.6 1.6c0 0.883-0.717 1.6-1.6 1.6s-1.6-0.717-1.6-1.6zM20.4 15.6l5.2 6.8h-19.2l7.229-9.901 4.538 6.101 2.234-3zM28.8 24c0 0.883-0.717 1.6-1.6 1.6h-22.4c-0.883 0-1.6-0.717-1.6-1.6v-16c0-0.883 0.717-1.6 1.6-1.6h22.4c0.883 0 1.6 0.717 1.6 1.6v16zM28.8 3.2h-25.6c-1.766 0-3.2 1.432-3.2 3.2v19.2c0 1.766 1.434 3.2 3.2 3.2h25.6c1.768 0 3.2-1.434 3.2-3.2v-19.2c0-1.768-1.432-3.2-3.2-3.2z"></path>
</svg>
