<!-- Generated by IcoMoon.io -->
<svg version="1.1" xmlns="http://www.w3.org/2000/svg" width="32" height="32" viewBox="0 0 32 32">
<title>as-images-</title>
<path d="M17.733 17.067c-1.766 0-3.2-1.432-3.2-3.2s1.434-3.2 3.2-3.2c1.768 0 3.2 1.432 3.2 3.2s-1.432 3.2-3.2 3.2zM3.2 28.8v-8.006l2.55-2.55 5.168 5.568-4.589 4.989h-3.13zM3.2 16.267v-6.667h19.2v16.138l-6.878-6.878-0.026 0.026-0.026-0.026-2.29 2.29-7.405-7.406-0.026 0.026-0.026-0.026-2.525 2.525zM20.138 28.8h-9.283l4.642-4.642 4.642 4.642zM0 32h25.6v-25.6h-25.6v25.6zM32 0h-25.6v3.2h22.4v22.4h3.2v-25.6z"></path>
</svg>
