<!-- Generated by IcoMoon.io -->
<svg version="1.1" xmlns="http://www.w3.org/2000/svg" width="34" height="32" viewBox="0 0 34 32">
<title>as-important_message-1</title>
<path d="M17.604 8.011v11.2c0 0.883-0.717 1.6-1.6 1.6s-1.6-0.717-1.6-1.6v-11.2c0-0.883 0.717-1.6 1.6-1.6s1.6 0.717 1.6 1.6zM17.604 24.011c0 0.883-0.717 1.6-1.6 1.6s-1.6-0.717-1.6-1.6 0.717-1.6 1.6-1.6c0.883 0 1.6 0.717 1.6 1.6zM28.804 27.2c0 0.883-0.717 1.6-1.6 1.6h-22.4c-0.883 0-1.6-0.717-1.6-1.6v-22.4c0-0.883 0.717-1.6 1.6-1.6h22.4c0.883 0 1.6 0.717 1.6 1.6v22.4zM28.804-0h-25.6c-1.768 0-3.2 1.438-3.2 3.205v25.606c0 1.768 1.432 3.189 3.2 3.189h25.6c1.768 0 3.2-1.427 3.2-3.195v-25.594c0-1.768-1.6-3.211-3.2-3.211z"></path>
</svg>
