<!-- Generated by IcoMoon.io -->
<svg version="1.1" xmlns="http://www.w3.org/2000/svg" width="32" height="32" viewBox="0 0 32 32">
<title>as-javascript-</title>
<path d="M24.525 29.491c-2.792 0-4.597-1.331-5.477-3.072l2.448-1.418c0.645 1.053 1.482 1.826 2.965 1.826 1.245 0 2.040-0.622 2.040-1.482 0-1.293-1.725-1.798-2.942-2.32-2.17-0.923-3.61-2.083-3.61-4.533 0-2.254 1.718-3.973 4.405-3.973 1.91 0 3.286 0.666 4.274 2.405l-2.341 1.504c-0.515-0.923-1.074-1.288-1.933-1.288-0.882 0-1.44 0.558-1.44 1.288 0 0.902 0.558 1.267 1.848 1.826 2.702 1.158 4.747 2.069 4.747 5.048 0 2.707-2.126 4.189-4.984 4.189zM17.6 24.958c0 3.115-1.918 4.762-4.582 4.762-2.406 0-3.848-0.92-4.557-2.52h-0.042l2.446-1.71c0.472 0.837 0.898 1.43 1.928 1.43 0.989 0 1.606-0.501 1.606-2.003v-10.517h3.2v10.558zM0 32h32v-32h-32v32z"></path>
</svg>
