<!-- Generated by IcoMoon.io -->
<svg version="1.1" xmlns="http://www.w3.org/2000/svg" width="32" height="32" viewBox="0 0 32 32">
<title>as-list-2</title>
<path d="M1.6 20.8c-0.883 0-1.6 0.717-1.6 1.6s0.717 1.6 1.6 1.6c0.883 0 1.6-0.717 1.6-1.6s-0.717-1.6-1.6-1.6zM1.6 8.010c-0.883 0-1.6 0.717-1.6 1.6 0 0.885 0.717 1.6 1.6 1.6s1.6-0.715 1.6-1.6c0-0.883-0.717-1.6-1.6-1.6zM1.6 14.4c-0.883 0-1.6 0.717-1.6 1.6s0.717 1.6 1.6 1.6c0.883 0 1.6-0.717 1.6-1.6s-0.717-1.6-1.6-1.6zM6.4 24h25.6v-3.2h-25.6v3.2zM6.4 11.2h25.6v-3.2h-25.6v3.2zM6.4 17.6h25.6v-3.2h-25.6v3.2z"></path>
</svg>
