<!-- Generated by IcoMoon.io -->
<svg version="1.1" xmlns="http://www.w3.org/2000/svg" width="22" height="32" viewBox="0 0 22 32">
<title>as-lock_open_cx_round-</title>
<path d="M14.594 24.194c-0.624 0.626-1.638 0.626-2.262 0l-1.131-1.131-1.131 1.131c-0.626 0.626-1.638 0.626-2.264 0-0.624-0.626-0.624-1.638 0-2.262l1.131-1.131-1.131-1.131c-0.624-0.626-0.624-1.638 0-2.264 0.626-0.624 1.638-0.624 2.264 0l1.131 1.131 1.131-1.131c0.624-0.624 1.637-0.624 2.262 0 0.626 0.626 0.626 1.638 0 2.264l-1.131 1.131 1.131 1.131c0.626 0.624 0.626 1.637 0 2.262zM19.2 27.2c0 0.883-0.717 1.6-1.6 1.6h-12.8c-0.885 0-1.6-0.717-1.6-1.6v-12.8c0-0.885 0.715-1.6 1.6-1.6h12.8c0.883 0 1.6 0.715 1.6 1.6v12.8zM17.6 9.6h-9.6v-2.99c0-1.277 0.666-2.512 1.813-3.075 1.952-0.96 3.851 0.291 4.418 1.901 0.211 0.6 0.822 0.965 1.458 0.965 1.088 0 1.899-1.086 1.51-2.101-1.117-2.91-4.406-5.168-7.95-3.973-2.733 0.922-4.448 3.65-4.448 6.534v2.739c-2.651 0-4.8 2.149-4.8 4.8v12.8c0 2.651 2.149 4.8 4.8 4.8h12.8c2.651 0 4.8-2.149 4.8-4.8v-12.8c0-2.651-2.149-4.8-4.8-4.8z"></path>
</svg>
