<!-- Generated by IcoMoon.io -->
<svg version="1.1" xmlns="http://www.w3.org/2000/svg" width="32" height="32" viewBox="0 0 32 32">
<title>as-money_round-2</title>
<path d="M12.8 16c0-1.768 1.432-3.2 3.2-3.2s3.2 1.432 3.2 3.2c0 1.768-1.432 3.2-3.2 3.2s-3.2-1.432-3.2-3.2zM27.2 22.4h-22.4c-0.883 0-1.6-0.717-1.6-1.6v-9.6c0-0.883 0.717-1.6 1.6-1.6h22.4c0.883 0 1.6 0.717 1.6 1.6v9.6c0 0.883-0.717 1.6-1.6 1.6zM0 9.6v12.8c0 1.768 1.432 3.2 3.2 3.2h25.6c1.768 0 3.2-1.432 3.2-3.2v-12.8c0-1.768-1.432-3.2-3.2-3.2h-25.6c-1.768 0-3.2 1.432-3.2 3.2z"></path>
</svg>
