<!-- Generated by IcoMoon.io -->
<svg version="1.1" xmlns="http://www.w3.org/2000/svg" width="32" height="32" viewBox="0 0 32 32">
<title>as-mill-</title>
<path d="M18.413 14.167l3.467-6.294 3.638 6.294h-7.106zM21.88 23.574l-3.467-6.294h7.106l-3.638 6.294zM12.411 25.064l3.33-6.045 3.328 6.045h-6.658zM9.552 23.665l-3.691-6.385h7.206l-3.515 6.385zM9.552 7.782l3.515 6.385h-7.206l3.691-6.385zM19.069 6.382l-3.328 6.045-3.33-6.045h6.658zM30.4 14.167h-1.21l-5.52-9.36 0.542-0.89c0.416-0.758 0.123-1.655-0.654-2.061-0.779-0.406-1.749-0.285-2.166 0.473l-0.608 0.94h-10.088l-0.608-0.917c-0.416-0.758-1.387-0.95-2.165-0.543-0.779 0.406-1.072 1.396-0.654 2.155l0.493 0.73-5.571 9.473h-0.59c-0.883 0-1.6 0.697-1.6 1.557s0.717 1.557 1.6 1.557h0.59l5.571 9.824-0.493 0.989c-0.418 0.758-0.125 1.748 0.654 2.155 0.778 0.406 1.749-0.044 2.165-0.802l0.608-1.267h10.088l0.608 1.291c0.418 0.758 1.387 1.138 2.166 0.732 0.778-0.406 1.070-1.303 0.654-2.061l-0.542-1.148 5.52-9.712h1.21c0.885 0 1.6-0.697 1.6-1.557s-0.715-1.557-1.6-1.557z"></path>
</svg>
