<!-- Generated by IcoMoon.io -->
<svg version="1.1" xmlns="http://www.w3.org/2000/svg" width="34" height="32" viewBox="0 0 34 32">
<title>as-multitasking-1</title>
<path d="M28.804 20.668c0 0.883-0.72 1.733-1.603 1.733h-1.597v-12.928c0-1.77-1.438-3.072-3.208-3.072h-12.792v-1.733c0-0.883 0.714-1.467 1.597-1.467h16c0.883 0 1.603 0.584 1.603 1.467v16zM22.404 27.2c0 0.883-0.717 1.6-1.6 1.6h-16c-0.883 0-1.6-0.717-1.6-1.6v-16c0-0.885 0.717-1.6 1.6-1.6h16c0.883 0 1.6 0.715 1.6 1.6v16zM28.796 0h-19.189c-1.771 0-3.203 1.302-3.203 3.072v3.328h-3.197c-1.771 0-3.203 1.302-3.203 3.072v19.19c0 1.77 1.432 3.338 3.203 3.338h19.189c1.77 0 3.208-1.568 3.208-3.338v-3.062h3.192c1.77 0 3.208-1.568 3.208-3.338v-19.19c0-1.77-1.438-3.072-3.208-3.072z"></path>
</svg>
