<!-- Generated by IcoMoon.io -->
<svg version="1.1" xmlns="http://www.w3.org/2000/svg" width="32" height="32" viewBox="0 0 32 32">
<title>as-mill-half-</title>
<path d="M21.878 17.648l-3.467-6.455h7.106l-3.638 6.455zM12.411 19.176l3.328-6.199 3.33 6.199h-6.658zM9.55 17.739l-3.69-6.546h7.206l-3.517 6.546zM30.4 8h-28.8c-0.883 0-1.6 0.714-1.6 1.597 0 0.881 0.717 1.597 1.6 1.597h0.589l5.571 9.632-0.493 0.792c-0.418 0.777-0.125 1.683 0.654 2.099s1.749 0.343 2.166-0.434l0.608-0.913h10.086l0.608 0.881c0.418 0.778 1.387 0.945 2.166 0.528s1.072-1.446 0.654-2.224l-0.541-0.79 5.518-9.571h1.211c0.883 0 1.6-0.715 1.6-1.597 0-0.883-0.717-1.596-1.6-1.596z"></path>
</svg>
