<!-- Generated by IcoMoon.io -->
<svg version="1.1" xmlns="http://www.w3.org/2000/svg" width="32" height="32" viewBox="0 0 32 32">
<title>as-mouse__window-1</title>
<path d="M3.2 0c-1.766 0-3.2 1.432-3.2 3.2v8c0 0.883 0.717 1.6 1.6 1.6s1.6-0.717 1.6-1.6v-6.4c0-0.883 0.717-1.6 1.6-1.6h22.4c0.883 0 1.6 0.717 1.6 1.6v22.4c0 0.883-0.717 1.6-1.6 1.6h-6.4c-0.883 0-1.6 0.717-1.6 1.6s0.717 1.6 1.6 1.6h8c1.768 0 3.2-1.432 3.2-3.2v-25.6c0-1.768-1.432-3.2-3.2-3.2h-25.6zM14.297 19.78l-3.654 9.931c-0.408 1.108-1.826 1.42-2.661 0.584l-1.968-1.967-3.198 3.198c-0.631 0.632-1.656 0.632-2.287 0l-0.055-0.055c-0.632-0.631-0.632-1.656 0-2.287l3.198-3.198-1.967-1.968c-0.836-0.835-0.524-2.253 0.586-2.661l9.93-3.654c1.294-0.476 2.552 0.783 2.077 2.077z"></path>
</svg>
