<!-- Generated by IcoMoon.io -->
<svg version="1.1" xmlns="http://www.w3.org/2000/svg" width="32" height="32" viewBox="0 0 32 32">
<title>as-moon-3</title>
<path d="M20.829 28.758v0.042h-0.128c-13.37 0-13.519 0.272-15.331-0.914-4.027-2.634-2.020-8.72 2.643-8.72 0.593 0 1.155 0.122 1.681 0.318l-0.034 1.224c-0.054 2.045 2.989 2.238 3.214 0.258 0.274-2.414 0.434-6 5.152-7.672 4.87-1.726 9.367 1.163 10.471 5.397 0.010 0.038 0.027 0.074 0.037 0.112 1.272 5.213-2.707 9.875-7.704 9.955zM21.994 4.63c3.069 1.634 5.392 4.478 6.341 7.888-1.79-1.646-4.114-2.714-6.695-2.909 0.428-1.814 0.49-3.378 0.354-4.979zM17.358 0c1.648 3.090 1.93 6.645 0.892 9.886-3.508 0.814-6.386 3.253-7.77 6.507-3.079-1.005-6.044-0.106-8.052 1.85-0.831-0.246-1.639-0.544-2.39-0.946 0.099 1.173 0.348 2.298 0.687 3.384-2.419 5.342 1.517 11.318 7.288 11.318h12.816c-0.016 0-0.030-0.021-0.048-0.021 0.018-0.003 0.048-0.013 0.048-0.013 7.262-0.109 12.203-6.459 10.926-13.282 1.657-9.518-5.299-17.914-14.397-18.685z"></path>
</svg>
