<!-- Generated by IcoMoon.io -->
<svg version="1.1" xmlns="http://www.w3.org/2000/svg" width="32" height="32" viewBox="0 0 32 32">
<title>as-network_3_round-</title>
<path d="M14.4 14.4h12.8c0.883 0 1.6 0.717 1.6 1.6s-0.717 1.6-1.6 1.6h-12.8c-0.883 0-1.6-0.717-1.6-1.6s0.717-1.6 1.6-1.6zM14.4 25.6h12.8c0.883 0 1.6 0.717 1.6 1.6s-0.717 1.6-1.6 1.6h-12.8c-0.883 0-1.6-0.717-1.6-1.6s0.717-1.6 1.6-1.6zM14.4 3.2h12.8c0.883 0 1.6 0.717 1.6 1.6s-0.717 1.6-1.6 1.6h-12.8c-0.883 0-1.6-0.717-1.6-1.6s0.717-1.6 1.6-1.6zM9.6 6.4c0 1.768 1.432 3.2 3.2 3.2h16c1.768 0 3.2-1.432 3.2-3.2v-3.2c0-1.768-1.432-3.2-3.2-3.2h-16c-1.768 0-3.2 1.432-3.2 3.2h-6.4v-3.2h-3.2v25.598c0 1.768 1.434 3.202 3.202 3.202h6.398c0 1.768 1.432 3.2 3.2 3.2h16c1.768 0 3.2-1.432 3.2-3.2v-3.2c0-1.768-1.432-3.2-3.2-3.2h-16c-1.768 0-3.2 1.432-3.2 3.2h-4.806c-0.88 0-1.594-0.714-1.594-1.594v-6.406h6.4c0 1.768 1.432 3.2 3.2 3.2h16c1.768 0 3.2-1.432 3.2-3.2v-3.2c0-1.768-1.432-3.2-3.2-3.2h-16c-1.768 0-3.2 1.432-3.2 3.2h-6.4v-8h6.4z"></path>
</svg>
