<!-- Generated by IcoMoon.io -->
<svg version="1.1" xmlns="http://www.w3.org/2000/svg" width="26" height="32" viewBox="0 0 26 32">
<title>as-notification_bell-1</title>
<path d="M19.2 22.4h-12.8v-9.6c0-4.266 3.2-6.4 6.398-6.4h0.003c3.198 0 6.398 2.134 6.398 6.4v9.6zM14.4 27.2c0 0.883-0.717 1.6-1.6 1.6s-1.6-0.717-1.6-1.6v-1.6h3.2v1.6zM24 22.4c-0.883 0-1.6-0.717-1.6-1.6v-8c0-5.685-3.789-8.84-8-9.474v-1.726c0-0.883-0.717-1.6-1.6-1.6s-1.6 0.717-1.6 1.6v1.726c-4.211 0.634-8 3.789-8 9.474v8c0 0.883-0.717 1.6-1.6 1.6s-1.6 0.717-1.6 1.6c0 0.883 0.717 1.6 1.6 1.6h6.4v1.6c0 2.651 2.149 4.8 4.8 4.8s4.8-2.149 4.8-4.8v-1.6h6.4c0.883 0 1.6-0.717 1.6-1.6s-0.717-1.6-1.6-1.6z"></path>
</svg>
