<!-- Generated by IcoMoon.io -->
<svg version="1.1" xmlns="http://www.w3.org/2000/svg" width="32" height="32" viewBox="0 0 32 32">
<title>as-next_arrow-6</title>
<path d="M20.48 22.24c-0.139 0.104-0.307 0.16-0.48 0.16h-15.2c-0.883 0-1.6-0.717-1.6-1.6v-9.6c0-0.883 0.717-1.6 1.6-1.6h15.2c0.173 0 0.341 0.056 0.48 0.16l8.32 6.24-8.32 6.24zM30.72 13.44l-8.96-6.72c-0.277-0.208-0.614-0.32-0.96-0.32h-17.6c-1.768 0-3.2 1.432-3.2 3.2v12.8c0 1.768 1.432 3.2 3.2 3.2h17.6c0.346 0 0.683-0.112 0.96-0.32l8.96-6.72c1.707-1.28 1.707-3.84 0-5.12z"></path>
</svg>
