<!-- Generated by IcoMoon.io -->
<svg version="1.1" xmlns="http://www.w3.org/2000/svg" width="32" height="32" viewBox="0 0 32 32">
<title>as-object_connection_round-5</title>
<path d="M9.6 24c0-0.883-0.717-1.6-1.6-1.6h-3.2c-0.883 0-1.6 0.717-1.6 1.6v3.2c0 0.883 0.717 1.6 1.6 1.6h3.2c0.883 0 1.6-0.717 1.6-1.6v-3.2zM12.8 22.4v6.4c0 1.768-1.432 3.2-3.2 3.2h-6.4c-1.768 0-3.2-1.432-3.2-3.2v-6.4c0-1.768 1.432-3.2 3.2-3.2h6.4c1.768 0 3.2 1.432 3.2 3.2zM25.6 16.016c-0.883 0-1.6 0.715-1.6 1.6v4.8c0 0.883-0.717 1.584-1.6 1.584h-4.8c-0.883 0-1.6 0.717-1.6 1.6s0.717 1.6 1.6 1.6h6.4c1.768 0 3.2-1.418 3.2-3.184v-6.4c0-0.885-0.717-1.6-1.6-1.6zM28.8 4.8c0-0.883-0.717-1.6-1.6-1.6h-3.2c-0.883 0-1.6 0.717-1.6 1.6v3.2c0 0.883 0.717 1.6 1.6 1.6h3.2c0.883 0 1.6-0.717 1.6-1.6v-3.2zM32 3.2v6.4c0 1.768-1.432 3.2-3.2 3.2h-6.4c-1.768 0-3.2-1.432-3.2-3.2v-6.4c0-1.768 1.432-3.2 3.2-3.2h6.4c1.768 0 3.2 1.432 3.2 3.2zM16 6.4c0 0.883-0.717 1.6-1.6 1.6h-4.8c-0.883 0-1.6 0.731-1.6 1.616v4.8c0 0.883-0.717 1.6-1.6 1.6s-1.6-0.717-1.6-1.6v-6.4c0-1.768 1.432-3.216 3.2-3.216h6.4c0.883 0 1.6 0.717 1.6 1.6z"></path>
</svg>
