<!-- Generated by IcoMoon.io -->
<svg version="1.1" xmlns="http://www.w3.org/2000/svg" width="32" height="32" viewBox="0 0 32 32">
<title>as-profile_close-2</title>
<path d="M28.531 5.658l3.469 3.394-2.313 2.264-3.469-3.395-3.471 3.395-2.312-2.264 3.47-3.394-3.47-3.394 2.312-2.264 3.471 3.395 3.469-3.395 2.313 2.264-3.469 3.394zM13.153 18.301c-0.023 0-0.046-0.003-0.069-0.003-0.025 0-0.047 0.003-0.070 0.003-1.771-0.037-3.201-1.451-3.201-3.194 0-1.765 1.467-3.2 3.271-3.2 1.802 0 3.271 1.435 3.271 3.2 0 1.742-1.431 3.157-3.202 3.194zM18.031 19.622c0.98-1.12 1.595-2.741 1.595-4.33 0-3.534-2.929-6.493-6.542-6.493-3.614 0-6.542 2.819-6.542 6.354 0 1.589 0.613 3.371 1.591 4.491-4.771 1.906-8.133 5.955-8.133 12.355h3.271c0-6.4 4.364-10.091 9.743-10.128 0.025 0 0.046-0.179 0.070-0.179 0.023 0 0.044 0.274 0.069 0.272 5.379 0.037 9.744 3.635 9.744 10.035h3.271c0-6.4-3.364-10.472-8.137-12.378z"></path>
</svg>
