<!-- Generated by IcoMoon.io -->
<svg version="1.1" xmlns="http://www.w3.org/2000/svg" width="22" height="32" viewBox="0 0 22 32">
<title>as-pin_sharp_circle-</title>
<path d="M11.2 13.816c-0.882 0-1.6-0.718-1.6-1.6s0.718-1.6 1.6-1.6c0.882 0 1.6 0.718 1.6 1.6s-0.718 1.6-1.6 1.6zM11.2 7.416c-2.651 0-4.8 2.149-4.8 4.8s2.149 4.8 4.8 4.8c2.651 0 4.8-2.149 4.8-4.8s-2.149-4.8-4.8-4.8zM11.2 27.2c0 0-8-11.2-8-16 0-4.411 3.589-8 8-8s8 3.589 8 8c0 4.8-8 16-8 16zM11.2 0c-6.186 0-11.2 5.014-11.2 11.2s11.2 20.8 11.2 20.8c0 0 11.2-14.614 11.2-20.8s-5.014-11.2-11.2-11.2z"></path>
</svg>
