<!-- Generated by IcoMoon.io -->
<svg version="1.1" xmlns="http://www.w3.org/2000/svg" width="32" height="32" viewBox="0 0 32 32">
<title>as-projector-3</title>
<path d="M23.435 9.13c-0.475 0.952 0.216 2.070 1.28 2.070 0.542 0 1.037-0.306 1.28-0.79l1.77-3.538c0.475-0.952-0.218-2.072-1.28-2.072-0.542 0-1.038 0.307-1.28 0.792l-1.77 3.538zM7.435 6.872l1.77 3.538c0.242 0.485 0.738 0.79 1.28 0.79 1.062 0 1.755-1.118 1.28-2.070l-1.77-3.538c-0.243-0.485-0.738-0.792-1.28-0.792-1.064 0-1.755 1.12-1.28 2.072zM16 6.4c0 0.885 0.717 1.6 1.6 1.6s1.6-0.715 1.6-1.6v-3.2c0-0.883-0.717-1.6-1.6-1.6s-1.6 0.717-1.6 1.6v3.2zM25.6 24v-3.2h3.2v3.2h-3.2zM12.8 27.2v-9.6h9.6v9.6h-9.6zM3.2 24v-3.2h6.4v3.2h-6.4zM32 17.6h-6.4v-3.2h-16v3.2h-9.6v12.8h3.2v-3.2h6.4v3.2h16v-3.2h3.2v3.2h3.2v-12.8z"></path>
</svg>
