<!-- Generated by IcoMoon.io -->
<svg version="1.1" xmlns="http://www.w3.org/2000/svg" width="32" height="32" viewBox="0 0 32 32">
<title>as-radio_tower-</title>
<path d="M16 18.411l-0.010-0.011-9.59 10.24 2.397 2.56 7.203-7.69 7.203 7.69 2.397-2.56-9.59-10.24-0.010 0.011zM13.818 14.538c1.25 1.25 3.392 1.133 4.525 0.002 1.064-1.066 1.262-3.27-0.155-4.688l-0.005 0.005c-1.25-1.25-3.394-1.133-4.525-0.002-1.064 1.066-1.262 3.27 0.155 4.688l0.005-0.005zM9.288 19.067l2.262-2.262c-2.262-2.262-2.421-6.954-0.158-9.216l-2.262-2.262c-3.395 3.394-3.237 10.347 0.158 13.741zM6.866 3.064l-2.262-2.264c-6.789 6.789-5.498 17.136 0.158 22.794l2.262-2.262c-4.525-4.526-4.683-13.742-0.158-18.267zM20.608 16.805l2.262 2.262c3.395-3.394 3.237-10.347-0.158-13.741l-2.262 2.262c2.262 2.262 2.421 6.954 0.158 9.216zM27.397 23.594l-2.262-2.262c4.525-4.526 4.366-13.742-0.158-18.267l2.262-2.264c5.656 5.658 6.946 16.005 0.158 22.794z"></path>
</svg>
