<!-- Generated by IcoMoon.io -->
<svg version="1.1" xmlns="http://www.w3.org/2000/svg" width="32" height="32" viewBox="0 0 32 32">
<title>as-rss_focus-1</title>
<path d="M19.2 0v3.2h9.6v9.6h3.2v-12.8h-12.8zM28.8 28.8h-9.6v3.2h12.8v-12.8h-3.2v9.6zM3.2 19.2h-3.2v12.8h12.8v-3.2h-9.6v-9.6zM3.2 3.2h9.6v-3.2h-12.8v12.8h3.2v-9.6zM8 20.963v3.2h3.2c0-1.768-1.432-3.2-3.2-3.2zM8 14.563v3.2c3.2 0 6.629 3.037 6.629 6.237h3.2c0-4.8-5.029-9.437-9.829-9.437zM8 8.163c8 0 16.229 6.237 16.229 15.837h-3.2c0-6.4-6.629-12.637-13.029-12.637v-3.2z"></path>
</svg>
