<!-- Generated by IcoMoon.io -->
<svg version="1.1" xmlns="http://www.w3.org/2000/svg" width="32" height="32" viewBox="0 0 32 32">
<title>as-shopping_bag_plus-</title>
<path d="M20.8 20.836c0 0.88-0.717 1.595-1.6 1.595h-1.6v1.697c0 0.882-0.717 1.595-1.6 1.595s-1.6-0.713-1.6-1.595v-1.697h-1.6c-0.883 0-1.6-0.714-1.6-1.595s0.717-1.595 1.6-1.595h1.6v-1.493c0-0.88 0.717-1.595 1.6-1.595s1.6 0.715 1.6 1.595v1.493h1.6c0.883 0 1.6 0.715 1.6 1.595zM28.8 27.215c0 0.88-0.717 1.595-1.6 1.595h-22.4c-0.883 0-1.6-0.715-1.6-1.595v-12.759c0-0.88 0.717-1.595 1.6-1.595h22.4c0.883 0 1.6 0.714 1.6 1.595v12.759zM15.928 3.175c3.614 0 6.754 3.306 7.701 6.496h-15.547c0.715-3.19 4.013-6.496 7.846-6.496zM28.728 9.671h-1.798c-0.978-4.785-5.616-9.671-11.002-9.671-5.552 0-10.304 4.887-11.078 9.671h-1.722c-1.768 0-3.128 1.531-3.128 3.292v15.949c0 1.762 1.36 3.088 3.128 3.088h25.6c1.766 0 3.272-1.325 3.272-3.088v-15.949c0-1.761-1.506-3.292-3.272-3.292z"></path>
</svg>
