<!-- Generated by IcoMoon.io -->
<svg version="1.1" xmlns="http://www.w3.org/2000/svg" width="32" height="32" viewBox="0 0 32 32">
<title>as-ship_round-1</title>
<path d="M17.6 1.603v20.797h12.797c1.267 0 2.030-1.4 1.347-2.466l-11.198-19.197c-0.864-1.342-2.946-0.731-2.946 0.866zM11.469 10.796l-6.611 9.115c-0.709 1.064 0.054 2.488 1.333 2.488h8.21v-10.715c0-1.582-2.053-2.205-2.931-0.888zM31.829 27.915l-1.6 3.2c-0.27 0.542-0.826 0.885-1.43 0.885h-24.795c-0.504 0-0.978-0.237-1.28-0.64l-2.4-3.2c-0.792-1.054-0.038-2.56 1.28-2.56h28.795c1.189 0 1.963 1.253 1.43 2.315z"></path>
</svg>
