<!-- Generated by IcoMoon.io -->
<svg version="1.1" xmlns="http://www.w3.org/2000/svg" width="34" height="32" viewBox="0 0 34 32">
<title>as-save_item-</title>
<path d="M11.004 6.399c0-0.883 0.717-1.6 1.6-1.6s1.6 0.717 1.6 1.6c0 0.883-0.717 1.6-1.6 1.6s-1.6-0.717-1.6-1.6zM28.804 27.2c0 0.883-0.717 1.6-1.6 1.6h-1.6v-6.4c0-1.768-1.432-3.2-3.2-3.2h-12.8c-1.768 0-3.2 1.432-3.2 3.2v6.4h-1.6c-0.883 0-1.6-0.717-1.6-1.6v-15.93c0-0.213 0.085-0.416 0.234-0.565l2.966-2.966v1.861c0 1.768 1.432 3.2 3.2 3.2h12.8c1.768 0 3.2-1.432 3.2-3.2v-6.4h1.6c0.883 0 1.6 0.717 1.6 1.6v22.4zM22.404 28.8h-12.8v-4.8c0-0.883 0.717-1.6 1.6-1.6h9.6c0.883 0 1.6 0.717 1.6 1.6v4.8zM9.604 4.539l1.339-1.339h11.461v4.8c0 0.883-0.717 1.6-1.6 1.6h-9.6c-0.883 0-1.6-0.717-1.6-1.6v-3.461zM28.804-0.001h-18.538c-0.424 0-0.83 0.168-1.131 0.469l-8.662 8.662c-0.301 0.301-0.469 0.707-0.469 1.131v18.538c0 1.768 1.432 3.2 3.2 3.2h25.6c1.768 0 3.2-1.432 3.2-3.2v-25.6c0-1.768-1.432-3.2-3.2-3.2z"></path>
</svg>
