<!-- Generated by IcoMoon.io -->
<svg version="1.1" xmlns="http://www.w3.org/2000/svg" width="34" height="32" viewBox="0 0 34 32">
<title>as-stats-4</title>
<path d="M28.804 27.2c0 0.883-0.717 1.6-1.6 1.6s-1.6-0.717-1.6-1.6v-22.4c0-0.883 0.717-1.6 1.6-1.6s1.6 0.717 1.6 1.6v22.4zM28.804-0.001h-3.2c-1.768 0-3.2 1.432-3.2 3.2v25.6c0 1.768 1.432 3.2 3.2 3.2h3.2c1.768 0 3.2-1.432 3.2-3.2v-25.6c0-1.768-1.432-3.2-3.2-3.2zM17.604 27.2c0 0.883-0.717 1.6-1.6 1.6s-1.6-0.717-1.6-1.6v-16c0-0.883 0.717-1.6 1.6-1.6s1.6 0.717 1.6 1.6v16zM17.604 6.399h-3.2c-1.768 0-3.2 1.432-3.2 3.2v19.2c0 1.768 1.432 3.2 3.2 3.2h3.2c1.768 0 3.2-1.432 3.2-3.2v-19.2c0-1.768-1.432-3.2-3.2-3.2zM6.404 27.2c0 0.883-0.717 1.6-1.6 1.6s-1.6-0.717-1.6-1.6v-6.4c0-0.883 0.717-1.6 1.6-1.6s1.6 0.717 1.6 1.6v6.4zM6.404 15.999h-3.2c-1.768 0-3.2 1.432-3.2 3.2v9.6c0 1.768 1.432 3.2 3.2 3.2h3.2c1.768 0 3.2-1.432 3.2-3.2v-9.6c0-1.768-1.432-3.2-3.2-3.2z"></path>
</svg>
