<!-- Generated by IcoMoon.io -->
<svg version="1.1" xmlns="http://www.w3.org/2000/svg" width="32" height="32" viewBox="0 0 32 32">
<title>as-spiral-</title>
<path d="M22.4 14.4v-3.2c0-0.883-0.717-1.6-1.6-1.6h-9.6c-0.883 0-1.6 0.717-1.6 1.6v9.6c0 0.883 0.717 1.6 1.6 1.6h16c0.883 0 1.6-0.717 1.6-1.6v-16c0-0.883-0.717-1.6-1.6-1.6h-22.4c-0.883 0-1.6 0.717-1.6 1.6v22.4c0 0.883 0.717 1.6 1.6 1.6h25.6c0.883 0 1.6 0.717 1.6 1.6s-0.717 1.6-1.6 1.6h-27.2c-1.766 0-3.2-1.432-3.2-3.2v-25.6c0-1.768 1.434-3.2 3.2-3.2h25.6c1.768 0 3.2 1.432 3.2 3.2v19.2c0 1.768-1.432 3.2-3.2 3.2h-19.2c-1.766 0-3.2-1.432-3.2-3.2v-12.8c0-1.768 1.434-3.2 3.2-3.2h12.8c1.768 0 3.2 1.432 3.2 3.2v6.4c0 1.768-1.432 3.2-3.2 3.2h-6.4c-1.766 0-3.2-1.432-3.2-3.2s1.434-3.2 3.2-3.2c1.768 0 3.2 1.432 3.2 3.2h1.6c0.883 0 1.6-0.717 1.6-1.6z"></path>
</svg>
