<!-- Generated by IcoMoon.io -->
<svg version="1.1" xmlns="http://www.w3.org/2000/svg" width="32" height="32" viewBox="0 0 32 32">
<title>as-shower-</title>
<path d="M28.8 17.6c0-0.883-0.717-1.6-1.6-1.6h-22.4c-0.883 0-1.6 0.717-1.6 1.6s0.717 1.6 1.6 1.6h22.4c0.883 0 1.6-0.717 1.6-1.6zM6.568 12.8h18.336c-1.285-4.395-5.24-6.4-9.168-6.4-3.926 0-7.883 2.005-9.168 6.4zM32 16v3.2c0 1.768-1.696 3.2-3.464 3.2h-25.6c-1.766 0-2.936-1.432-2.936-3.2v-3.2c0-1.6 1.045-3.2 3.282-3.2 1.202-5.515 4.718-8.938 11.118-9.506v-3.294h3.2v3.294c4.8 0.568 9.389 3.99 10.59 9.506 2.528 0 3.81 1.546 3.81 3.2zM27.2 25.6c-0.883 0-1.6 0.717-1.6 1.6v3.2c0 0.883 0.717 1.6 1.6 1.6s1.6-0.717 1.6-1.6v-3.2c0-0.883-0.717-1.6-1.6-1.6zM4.8 25.6c-0.883 0-1.6 0.717-1.6 1.6v3.2c0 0.883 0.717 1.6 1.6 1.6s1.6-0.717 1.6-1.6v-3.2c0-0.883-0.717-1.6-1.6-1.6zM17.6 27.2v3.2c0 0.883-0.717 1.6-1.6 1.6s-1.6-0.717-1.6-1.6v-3.2c0-0.883 0.717-1.6 1.6-1.6s1.6 0.717 1.6 1.6z"></path>
</svg>
