<!-- Generated by IcoMoon.io -->
<svg version="1.1" xmlns="http://www.w3.org/2000/svg" width="32" height="32" viewBox="0 0 32 32">
<title>as-share-1</title>
<path d="M25.6 28.8c-1.765 0-3.2-1.435-3.2-3.2s1.435-3.2 3.2-3.2c1.765 0 3.2 1.435 3.2 3.2s-1.435 3.2-3.2 3.2zM19.426 24h-6.851c-0.384-1.6-1.269-2.75-2.48-3.611l4.454-7.715c0.87 0.173 1.709 0.168 2.578-0.014l4.555 7.915c-1.093 0.853-1.898 1.826-2.256 3.426zM6.4 28.8c-1.765 0-3.2-1.435-3.2-3.2s1.435-3.2 3.2-3.2c1.765 0 3.2 1.435 3.2 3.2s-1.435 3.2-3.2 3.2zM15.8 3.2c1.765 0 3.2 1.435 3.2 3.2s-1.435 3.2-3.2 3.2c-1.765 0-3.2-1.435-3.2-3.2s1.435-3.2 3.2-3.2zM24.638 19.298l-4.654-8.090c1.347-1.173 2.216-2.882 2.216-4.808 0-3.534-2.866-6.4-6.4-6.4s-6.4 2.866-6.4 6.4c0 1.954 0.894 3.68 2.274 4.854l-4.626 8.011c-3.978-0.405-7.048 2.704-7.048 6.334 0 3.534 2.866 6.4 6.4 6.4 2.979 0 5.459-1.6 6.174-4.8h6.851c0.714 3.2 3.195 4.8 6.174 4.8 3.534 0 6.4-2.866 6.4-6.4 0-3.779-3.315-6.918-7.362-6.302z"></path>
</svg>
