<!-- Generated by IcoMoon.io -->
<svg version="1.1" xmlns="http://www.w3.org/2000/svg" width="34" height="32" viewBox="0 0 34 32">
<title>as-star_favorite-</title>
<path d="M26.757 19.53c-0.683 0.693-0.994 1.691-0.834 2.67l1.032 6.266c0.322 1.95-1.166 3.534-2.854 3.534-0.445 0-0.904-0.11-1.349-0.354l-5.4-2.958c-0.422-0.23-0.885-0.346-1.349-0.346-0.462 0-0.925 0.115-1.347 0.346l-5.4 2.958c-0.445 0.243-0.904 0.354-1.349 0.354-1.688 0-3.176-1.584-2.854-3.534l1.032-6.266c0.16-0.979-0.15-1.978-0.834-2.67l-4.37-4.437c-1.718-1.746-0.77-4.787 1.605-5.147l6.038-0.914c0.944-0.142 1.76-0.76 2.181-1.651l2.701-5.699c0.531-1.122 1.565-1.682 2.597-1.682 1.034 0 2.067 0.56 2.598 1.682l2.701 5.699c0.421 0.891 1.237 1.509 2.181 1.651l6.038 0.914c2.374 0.36 3.323 3.402 1.605 5.147l-4.37 4.437z"></path>
</svg>
