<!-- Generated by IcoMoon.io -->
<svg version="1.1" xmlns="http://www.w3.org/2000/svg" width="32" height="32" viewBox="0 0 32 32">
<title>as-swipe_right-</title>
<path d="M6.4 8.8c0-0.883-0.717-1.6-1.6-1.6h-3.2c-0.883 0-1.6 0.717-1.6 1.6s0.717 1.6 1.6 1.6h3.2c0.883 0 1.6-0.717 1.6-1.6zM31.064 6.93l-0.57-0.571-5.088-5.090c-0.626-0.626-1.64-0.626-2.264 0-0.626 0.626-0.626 1.638 0 2.262l2.69 2.498c0.504 0.504 0.147 1.171-0.566 1.171h-8.214c-0.885 0-1.6 0.717-1.6 1.6s0.715 1.6 1.6 1.6h8.218c0.714 0 1.070 1.056 0.566 1.56l-2.693 2.787c-0.624 0.626-0.624 1.686 0 2.312 0.626 0.624 1.638 0.648 2.262 0.024l5.659-5.646c1.248-1.25 1.248-3.258 0-4.507zM21.859 21.668l-0.531 5.691c-0.299 1.496-1.613 2.241-3.138 2.241h-7.736c-0.526 0-1.021 0.072-1.318-0.361l-3.456-6.283c-0.435-0.629-0.36-1.478 0.179-2.017 0.694-0.694 1.845-0.595 2.408 0.208l1.333 1.909v-13.592c0-0.883 0.723-1.6 1.606-1.6 1.138 0 1.606 1.034 1.606 1.6l0.013 8.070 6.907 0.637c1.531 0.509 2.443 1.915 2.126 3.498z"></path>
</svg>
