<!-- Generated by IcoMoon.io -->
<svg version="1.1" xmlns="http://www.w3.org/2000/svg" width="22" height="32" viewBox="0 0 22 32">
<title>as-settings-2</title>
<path d="M17.6 16c-0.565 0-1.6-0.115-1.6-0.294v16.294h3.2v-16.294c0 0.179-1.035 0.294-1.6 0.294zM19.2 3.494v-3.494h-3.2v3.494c-1.6 0.661-3.2 2.419-3.2 4.506 0 2.651 2.149 4.8 4.8 4.8s4.8-2.149 4.8-4.8c0-2.086-1.6-3.845-3.2-4.506zM6.4 16.294v-16.294h-3.2v16.294c0.502-0.179 1.035-0.294 1.6-0.294s1.6 0.115 1.6 0.294zM9.6 24c0 2.086-1.6 3.845-3.2 4.506v3.494h-3.2v-3.494c-1.6-0.661-3.2-2.419-3.2-4.506 0-2.651 2.149-4.8 4.8-4.8s4.8 2.149 4.8 4.8z"></path>
</svg>
