<!-- Generated by IcoMoon.io -->
<svg version="1.1" xmlns="http://www.w3.org/2000/svg" width="32" height="32" viewBox="0 0 32 32">
<title>as-sunset-2</title>
<path d="M29.56 8.403l-2.262-2.262-5.658 5.656 2.262 2.264 5.658-5.658zM14.4 9.6h3.2v-8h-3.2v8zM10.36 11.797l-5.658-5.656-2.262 2.262 5.658 5.658 2.262-2.264zM24 26.888c0-4.411-3.589-7.813-8-7.813s-8 3.464-8 7.875c0 0.171 0.040 0.25 0.051 0.25h15.899c0.010 0 0.050-0.141 0.050-0.312zM32 27.2v3.2h-32v-3.2h4.826c-0.008 0-0.026-0.144-0.026-0.312 0-6.186 5.014-11.013 11.2-11.013s11.2 4.89 11.2 11.075c0 0.168-0.018 0.25-0.026 0.25h4.826zM22.4 27.194c-1.6 0.003 0-0.008 0-0.019v0.019z"></path>
</svg>
