<!-- Generated by IcoMoon.io -->
<svg version="1.1" xmlns="http://www.w3.org/2000/svg" width="32" height="32" viewBox="0 0 32 32">
<title>as-stats-6</title>
<path d="M16 28.771c-6.494 0-11.859-4.851-12.677-11.126l5.885 0.010c0.213 0.002 0.418-0.085 0.568-0.237l2.93-2.938c0.37-0.37 0.99-0.291 1.256 0.162 3.531 6.030 2.824 4.826 3.698 6.309 0.533 0.904 1.774 1.059 2.514 0.317l3.443-3.446c0.15-0.15 0.355-0.221 0.568-0.221h4.496c-0.818 6.4-6.186 11.171-12.68 11.171zM16 3.142c6.536 0 11.933 4.858 12.698 11.258h-6.011c-0.221 0-0.432 0.077-0.582 0.237l-2.133 2.258c-0.368 0.389-1.006 0.312-1.275-0.152l-3.042-5.256 0.016-0.011-0.621-1.069c-0.53-0.907-1.774-1.069-2.517-0.325l-0.787 0.79 0.014-0.024-3.33 3.307c-0.15 0.147-0.352 0.245-0.563 0.245h-4.565c0.765-6.4 6.162-11.258 12.698-11.258zM16 0c-8.837 0-16 7.165-16 16 0 8.837 7.163 16 16 16s16-7.163 16-16c0-8.835-7.163-16-16-16z"></path>
</svg>
