<!-- Generated by IcoMoon.io -->
<svg version="1.1" xmlns="http://www.w3.org/2000/svg" width="32" height="32" viewBox="0 0 32 32">
<title>as-sim_card-1</title>
<path d="M19.199 22.4c0-1.768-1.432-3.2-3.2-3.2l0.002-0.002v-4.8c0-0.883 0.715-1.598 1.598-1.598h1.6c0 1.766 1.434 3.2 3.2 3.2l0.002-0.002v4.8c0 0.885-0.718 1.602-1.602 1.602h-1.6zM25.601 12.8c0-1.768-1.434-3.2-3.2-3.2h-6.4c-1.768 0-3.2 1.432-3.2 3.2v9.6c0 1.768 1.432 3.2 3.2 3.2h6.4c1.766 0 3.2-1.432 3.2-3.2v-9.6zM27.199 28.8h-22.4c-0.883 0-1.598-0.717-1.598-1.602v-15.928c0-0.213 0.083-0.416 0.234-0.566l7.27-7.27c0.15-0.15 0.354-0.234 0.565-0.234h15.93c0.883 0 1.602 0.715 1.602 1.598v22.4c0 0.885-0.718 1.602-1.602 1.602zM9.13 0.474l-8.656 8.658c-0.299 0.299-0.469 0.706-0.469 1.13l-0.005 18.538c-0.002 1.768 1.432 3.202 3.2 3.202h25.598c1.768 0 3.202-1.434 3.202-3.202v-25.598c0-1.768-1.434-3.2-3.202-3.2l-18.538 0.006c-0.424 0-0.83 0.168-1.131 0.467z"></path>
</svg>
