<!-- Generated by IcoMoon.io -->
<svg version="1.1" xmlns="http://www.w3.org/2000/svg" width="32" height="32" viewBox="0 0 32 32">
<title>as-speaker-1</title>
<path d="M21.008 20.475c0 2.651-2.149 4.8-4.8 4.8s-4.8-2.149-4.8-4.8c0-2.651 2.149-4.8 4.8-4.8s4.8 2.149 4.8 4.8zM28.8 28.8h-4.702c2.077-3.2 3.37-5.264 3.37-8.4 0-4.488-2.646-8.549-6.459-10.336 1.021-1.133 1.659-2.318 1.659-3.963 0-1.173-0.338-2.901-0.888-2.901h7.021v25.6zM16.267 28c-4.411 0-8-3.589-8-8s3.589-8 8-8c4.411 0 8 3.589 8 8s-3.589 8-8 8zM3.2 28.8v-25.6h7.555c-0.55 0-0.888 1.629-0.888 2.8 0 1.646 0.638 2.931 1.658 4.064-3.811 1.787-6.458 5.949-6.458 10.437 0 3.136 1.291 5.099 3.368 8.299h-5.235zM16.267 2.4c1.765 0 3.2 1.437 3.2 3.2 0 1.765-1.435 3.2-3.2 3.2s-3.2-1.435-3.2-3.2c0-1.763 1.435-3.2 3.2-3.2zM0 32h32v-32h-32v32z"></path>
</svg>
