<!-- Generated by IcoMoon.io -->
<svg version="1.1" xmlns="http://www.w3.org/2000/svg" width="32" height="32" viewBox="0 0 32 32">
<title>as-stairs-2</title>
<path d="M28.8 27.2c0 0.883-0.717 1.6-1.6 1.6h-22.4c-0.883 0-1.6-0.717-1.6-1.6v-22.4c0-0.883 0.717-1.6 1.6-1.6h3.2c0.883 0 1.6 0.717 1.6 1.6v4.8c0 1.768 1.434 3.2 3.2 3.2h4.8c0.883 0 1.6 0.717 1.6 1.6v4.8c0 1.768 1.434 3.2 3.2 3.2h4.8c0.883 0 1.6 0.717 1.6 1.6v3.2zM28.8 19.2h-4.8c-0.883 0-1.6-0.717-1.6-1.6v-4.8c0-1.768-1.434-3.2-3.2-3.2h-6.4v-6.4c0-1.768-1.434-3.2-3.2-3.2h-6.4c-1.766 0-3.2 1.432-3.2 3.2v25.6c0 1.768 1.434 3.2 3.2 3.2h25.6c1.766 0 3.2-1.432 3.2-3.2v-6.4c0-1.768-1.434-3.2-3.2-3.2z"></path>
</svg>
