<!-- Generated by IcoMoon.io -->
<svg version="1.1" xmlns="http://www.w3.org/2000/svg" width="30" height="32" viewBox="0 0 30 32">
<title>as-star_wars-</title>
<path d="M23.83 4.253c3.965 2.752 6.57 7.341 6.57 12.52 0 8.387-6.829 15.227-15.199 15.227-8.372 0-15.201-6.84-15.201-15.227 0-5.384 2.815-10.13 7.047-12.838-1.406 3.854-3.707 6.299-2.666 10.402 0.878 3.462 3.632 5.757 6.126 5.107 2.144-0.558 3.417-3.115 3.175-6.019-0.239-2.862-1.954-4.434-4.088-6.422l1.556-2.070 3.034 3.163-1.336-4.315 2.524-3.779 2.316 3.717-1.404 4.603 3.033-3.328 1.426 1.912c-1.625 2.037-3.685 3.286-3.728 6.155-0.033 2.248 0.951 5.835 3.055 6.384 2.494 0.65 5.246-1.645 6.126-5.107 0.919-3.622-1.243-6.813-2.365-10.083z"></path>
</svg>
