<!-- Generated by IcoMoon.io -->
<svg version="1.1" xmlns="http://www.w3.org/2000/svg" width="32" height="32" viewBox="0 0 32 32">
<title>as-star-3</title>
<path d="M16 19.2c-1.765 0-3.2-1.435-3.2-3.2s1.435-3.2 3.2-3.2c1.765 0 3.2 1.435 3.2 3.2s-1.435 3.2-3.2 3.2zM16 9.6c-3.534 0-6.4 2.866-6.4 6.4s2.866 6.4 6.4 6.4c3.534 0 6.4-2.866 6.4-6.4s-2.866-6.4-6.4-6.4zM27.606 20.869c-2.87 1.174-2.882 1.179-4.664 1.909-0.678 1.616-0.128 0.302-2.112 5.034-4.142-1.738-3.15-1.322-5.035-2.112-1.606 0.658-0.546 0.224-4.664 1.907-1.174-2.87-1.179-2.882-1.909-4.664-1.614-0.678-0.302-0.128-5.034-2.112 1.738-4.142 1.322-3.15 2.112-5.035-0.328-0.8-0.25-0.61-1.907-4.664 4.099-1.677 2.979-1.219 4.664-1.909 0.672-1.6 0.131-0.31 2.112-5.034 4.142 1.738 3.15 1.322 5.035 2.112 0.8-0.328 0.61-0.25 4.664-1.907 1.672 4.088 1.581 3.864 1.909 4.664 1.614 0.678 0.302 0.128 5.034 2.112-1.888 4.501-1.384 3.301-2.112 5.035 0.328 0.8 0.25 0.61 1.907 4.664zM32 9.458l-6.763-2.837-2.616-6.4-6.4 2.616-6.763-2.837-2.837 6.763-6.4 2.616 2.616 6.4-2.837 6.763 6.763 2.837 2.616 6.4 6.4-2.616 6.763 2.837 2.837-6.763 6.4-2.616-2.616-6.4 2.837-6.763z"></path>
</svg>
