<!-- Generated by IcoMoon.io -->
<svg version="1.1" xmlns="http://www.w3.org/2000/svg" width="32" height="32" viewBox="0 0 32 32">
<title>as-SD-</title>
<path d="M10.4 19.2h-4c-0.883 0-1.6 0.717-1.6 1.6s0.717 1.6 1.6 1.6h4.8c1.768 0 3.2-1.432 3.2-3.2v-1.6c0-1.768-1.432-3.2-3.2-3.2h-2.4c-0.442 0-0.8-0.358-0.8-0.8s0.358-0.8 0.8-0.8h4c0.883 0 1.6-0.717 1.6-1.6s-0.717-1.6-1.6-1.6h-3.619c-1.736 0-3.389 0.974-4.054 2.578-1.144 2.755 0.885 5.422 3.506 5.422h1.768c0.442 0 0.8 0.358 0.8 0.8s-0.358 0.8-0.8 0.8zM24 13.6c0-0.442-0.358-0.8-0.8-0.8h-2.4v6.4h2.4c0.44 0 0.8-0.36 0.8-0.8v-4.8zM24 22.4h-4.8c-0.883 0-1.6-0.717-1.6-1.6v-9.6c0-0.883 0.717-1.6 1.6-1.6h4.8c1.768 0 3.2 1.432 3.2 3.2v6.4c0 1.768-1.432 3.2-3.2 3.2zM0 3.2v1.6c0 0.883 0.717 1.6 1.6 1.6s1.6-0.717 1.6-1.6c0-0.883 0.717-1.6 1.6-1.6h22.4c0.883 0 1.6 0.717 1.6 1.6s0.717 1.6 1.6 1.6c0.883 0 1.6-0.717 1.6-1.6v-1.6c0-1.768-1.432-3.2-3.2-3.2h-25.6c-1.768 0-3.2 1.432-3.2 3.2zM28.8 27.2c0-0.883 0.717-1.6 1.6-1.6s1.6 0.717 1.6 1.6v1.6c0 1.768-1.432 3.2-3.2 3.2h-25.6c-1.768 0-3.2-1.432-3.2-3.2v-1.6c0-0.883 0.717-1.6 1.6-1.6s1.6 0.717 1.6 1.6c0 0.883 0.717 1.6 1.6 1.6h22.4c0.883 0 1.6-0.717 1.6-1.6z"></path>
</svg>
