<!-- Generated by IcoMoon.io -->
<svg version="1.1" xmlns="http://www.w3.org/2000/svg" width="32" height="32" viewBox="0 0 32 32">
<title>as-shopping_bag-1</title>
<path d="M19.394 19.811l-1.131 1.128 1.131 1.128c0.626 0.624 0.626 1.633 0 2.255-0.626 0.624-1.638 0.624-2.262 0l-1.131-1.128-1.131 1.128c-0.626 0.624-1.638 0.624-2.264 0-0.624-0.622-0.624-1.632 0-2.255l1.131-1.128-1.131-1.128c-0.624-0.624-0.624-1.633 0-2.255 0.626-0.624 1.638-0.624 2.264 0l1.131 1.128 1.131-1.128c0.624-0.624 1.637-0.624 2.262 0 0.626 0.622 0.626 1.632 0 2.255zM28.8 27.216c0 0.88-0.717 1.595-1.6 1.595h-22.4c-0.885 0-1.6-0.715-1.6-1.595v-12.758c0-0.882 0.715-1.595 1.6-1.595h22.4c0.883 0 1.6 0.713 1.6 1.595v12.758zM15.854 3.175c3.614 0 6.754 3.308 7.701 6.497h-15.547c0.715-3.19 4.013-6.497 7.846-6.497zM28.654 9.673h-1.798c-0.978-4.784-5.614-9.673-11.002-9.673-5.552 0-10.304 4.888-11.077 9.673h-1.723c-1.768 0-3.054 1.529-3.054 3.292v15.948c0 1.762 1.286 3.088 3.054 3.088h25.6c1.768 0 3.346-1.325 3.346-3.088v-15.948c0-1.762-1.578-3.292-3.346-3.292z"></path>
</svg>
