<!-- Generated by IcoMoon.io -->
<svg version="1.1" xmlns="http://www.w3.org/2000/svg" width="14" height="32" viewBox="0 0 14 32">
<title>as-tie_round-1</title>
<path d="M6.129 27.657l-2.469-2.607c-0.389-0.411-0.538-1.012-0.386-1.571l1.353-6.463c0.186-0.688 0.782-1.024 1.457-1.024h2.232c0.677 0 1.271 0.336 1.457 1.024l1.353 6.532c0.151 0.558 0.003 1.124-0.385 1.535l-2.47 2.591c-0.591 0.624-1.549 0.608-2.142-0.018zM9.46 12.795h-4.518c-1.353 0-2.542 0.809-2.913 2.183l-1.913 8.596c-0.301 1.116-0.006 2.285 0.771 3.106l4.171 4.387c1.183 1.249 3.1 1.241 4.283-0.008l4.171-4.409c0.778-0.82 1.072-2.025 0.771-3.143l-1.911-8.528c-0.373-1.374-1.562-2.185-2.913-2.185zM9.388 5.062c-0.121 0.771-0.753 1.335-1.493 1.335h-1.39c-0.739 0-1.372-0.565-1.493-1.335-0.154-0.976 0.559-1.863 1.493-1.863h1.39c0.936 0 1.648 0.888 1.493 1.863zM12.166 6.924l0.504-3.199c0.307-1.95-1.116-3.725-2.988-3.725h-4.965c-1.872 0-3.296 1.775-2.988 3.725l0.506 3.199c0.242 1.542 1.507 2.672 2.987 2.672h3.956c1.481 0 2.744-1.131 2.988-2.672z"></path>
</svg>
