<!-- Generated by IcoMoon.io -->
<svg version="1.1" xmlns="http://www.w3.org/2000/svg" width="29" height="32" viewBox="0 0 29 32">
<title>as-thermometer_plus-1</title>
<path d="M6.4 6.4h3.2v3.2h-3.2v3.2h-3.2v-3.2h-3.2v-3.2h3.2v-3.2h3.2v3.2zM20.8 28.8c-2.646 0-4.8-2.154-4.8-4.8 0-2.083 1.342-3.842 3.2-4.506v-3.494h3.2v3.494c1.858 0.664 3.2 2.422 3.2 4.506 0 2.646-2.154 4.8-4.8 4.8zM19.2 12.8h3.2v-3.2h-3.2v3.2zM19.2 6.4h3.2v-3.2h-3.2v3.2zM25.6 17.637v-17.637h-9.6v17.637c-1.933 1.459-3.2 3.755-3.2 6.363 0 4.418 3.582 8 8 8s8-3.582 8-8c0-2.608-1.267-4.904-3.2-6.363z"></path>
</svg>
