<!-- Generated by IcoMoon.io -->
<svg version="1.1" xmlns="http://www.w3.org/2000/svg" width="34" height="32" viewBox="0 0 34 32">
<title>as-url-</title>
<path d="M5.185 14.317c-2.865-2.864-2.507-7.747 1.070-10.108 2.602-1.718 6.098-1.202 8.303 1.003l1.023 1.022c0.639 0.638 1.673 0.638 2.31 0 0.639-0.637 0.639-1.671 0-2.309l-0.864-0.864c-3.795-3.793-10.028-4.179-13.935-0.501-4.043 3.806-4.115 10.17-0.216 14.066l1.155 1.155c0.637 0.638 1.673 0.638 2.31 0 0.639-0.637 0.639-1.671 0-2.309l-1.155-1.154zM28.921 14.953l-0.833-0.833c-0.639-0.638-1.673-0.638-2.31 0-0.639 0.637-0.639 1.671 0 2.309l1.022 1.022c2.205 2.204 2.72 5.699 1.003 8.3-2.362 3.576-7.248 3.932-10.111 1.069l-1.155-1.154c-0.639-0.639-1.673-0.639-2.31 0-0.639 0.637-0.639 1.67 0 2.309l1.155 1.154c3.888 3.886 10.23 3.826 14.040-0.184 3.713-3.908 3.311-10.181-0.501-13.993zM22.312 24.512l-14.817-14.812c-0.637-0.638-0.637-1.672 0-2.311 0.639-0.637 1.673-0.637 2.31 0l14.819 14.812c0.637 0.638 0.637 1.672 0 2.311-0.639 0.637-1.673 0.637-2.311 0z"></path>
</svg>
