<!-- Generated by IcoMoon.io -->
<svg version="1.1" xmlns="http://www.w3.org/2000/svg" width="32" height="32" viewBox="0 0 32 32">
<title>as-url-1</title>
<path d="M5.163 5.163c2.54-2.54 6.67-2.54 9.209 0l2.302 2.302 2.302-2.302-2.302-2.302c-3.814-3.814-9.999-3.814-13.813 0s-3.814 9.999 0 13.813l2.302 2.302 2.302-2.302-2.302-2.302c-2.54-2.54-2.54-6.67 0-9.209zM29.139 15.326l-2.302-2.304-2.302 2.304 2.302 2.302c2.538 2.538 2.538 6.67 0 9.209-2.54 2.538-6.671 2.538-9.209 0l-2.302-2.304-2.304 2.304 2.304 2.302c3.814 3.814 9.999 3.814 13.813 0s3.814-9.999 0-13.813zM8.616 6.314l17.071 17.069-2.304 2.304-17.069-17.071 2.302-2.302z"></path>
</svg>
