<!-- Generated by IcoMoon.io -->
<svg version="1.1" xmlns="http://www.w3.org/2000/svg" width="32" height="32" viewBox="0 0 32 32">
<title>as-view_close-</title>
<path d="M30.036 27.88c0.596 0.596 0.596 1.56 0 2.155-0.596 0.596-1.56 0.596-2.155 0l-4.358-4.358c0.972-0.428 1.911-0.931 2.807-1.502l3.706 3.706zM4.151 24.17c0.896 0.571 1.833 1.074 2.807 1.504l-4.357 4.355c-0.594 0.596-1.56 0.596-2.155 0-0.596-0.594-0.596-1.559 0-2.155l3.704-3.704zM0.453 2.606c-0.596-0.594-0.596-1.559 0-2.155 0.594-0.596 1.559-0.596 2.155 0l4.824 4.824c-0.99 0.408-1.944 0.896-2.859 1.451l-4.12-4.12zM25.908 6.722c-0.916-0.553-1.87-1.042-2.86-1.449l4.827-4.827c0.594-0.594 1.56-0.594 2.155 0 0.596 0.596 0.596 1.56 0 2.155l-4.122 4.122zM18.292 15.58c0 1.682-1.365 3.048-3.048 3.048-1.684 0-3.048-1.365-3.048-3.048 0-1.684 1.364-3.048 3.048-3.048 1.682 0 3.048 1.364 3.048 3.048zM15.245 21.339c-4.555 0-8.846-2.168-11.582-5.758 2.737-3.592 7.028-5.76 11.582-5.76s8.846 2.168 11.582 5.76c-2.737 3.59-7.028 5.758-11.582 5.758zM30.483 15.58c-3.048-5.26-8.722-8.808-15.238-8.808s-12.192 3.547-15.238 8.808c3.046 5.259 8.722 8.806 15.238 8.806s12.19-3.547 15.238-8.806z"></path>
</svg>
