<!-- Generated by IcoMoon.io -->
<svg version="1.1" xmlns="http://www.w3.org/2000/svg" width="32" height="32" viewBox="0 0 32 32">
<title>as-whatsapp-</title>
<path d="M25.314 22.594c-0.386 1.092-1.918 1.994-3.141 2.258-0.837 0.178-1.928 0.318-5.605-1.205-4.13-1.711-9.864-7.806-9.864-11.861 0-2.065 1.19-4.469 3.272-4.469 1.002 0 1.222 0.019 1.552 0.81 0.386 0.931 1.326 3.227 1.438 3.462 0.462 0.965-0.47 1.53-1.147 2.37-0.216 0.253-0.461 0.527-0.187 0.997 0.272 0.461 1.213 1.994 2.595 3.225 1.786 1.591 3.234 2.098 3.752 2.314 0.386 0.16 0.846 0.123 1.128-0.178 0.357-0.386 0.8-1.026 1.251-1.656 0.318-0.451 0.723-0.507 1.147-0.347 0.286 0.099 3.926 1.789 4.080 2.060 0.114 0.197 0.114 1.128-0.272 2.22zM16.003 0h-0.008c-8.821 0-15.995 7.177-15.995 16 0 3.499 1.128 6.744 3.046 9.377l-1.994 5.946 6.149-1.965c2.53 1.674 5.549 2.642 8.802 2.642 8.821 0 15.997-7.176 15.997-16s-7.176-16-15.997-16z"></path>
</svg>
