<!-- Generated by IcoMoon.io -->
<svg version="1.1" xmlns="http://www.w3.org/2000/svg" width="22" height="32" viewBox="0 0 22 32">
<title>as-watch-</title>
<path d="M11.622 17.394c-2.030 1.862-2.293 1.632-4.106-0.053-2.8-2.603 0.246-5.4 1.958-3.227 0.062 0.078 0.186 0.077 0.248-0.003 1.699-2.17 4.813 0.611 1.899 3.283zM16 20.8c0 0.885-0.717 1.6-1.6 1.6h-9.6c-0.885 0-1.6-0.715-1.6-1.6v-9.6c0-0.883 0.715-1.6 1.6-1.6h9.6c0.883 0 1.6 0.717 1.6 1.6v9.6zM6.4 28.8h6.4v-3.2h-6.4v3.2zM6.4 6.4h6.4v-3.2h-6.4v3.2zM20.8 14.4h-1.6v-4.8c0-1.766-1.434-3.2-3.2-3.2v-6.4h-12.8v6.4c-1.768 0-3.2 1.434-3.2 3.2v12.8c0 1.768 1.432 3.2 3.2 3.2v6.4h12.8v-6.4c1.766 0 3.2-1.432 3.2-3.2v-4.8h1.6c0.883 0 1.6-0.715 1.6-1.6 0-0.883-0.717-1.6-1.6-1.6z"></path>
</svg>
