<!-- Generated by IcoMoon.io -->
<svg version="1.1" xmlns="http://www.w3.org/2000/svg" width="32" height="32" viewBox="0 0 32 32">
<title>as-wheel-</title>
<path d="M25.971 23.974l-6.958-6.971c0.104-0.317 0.131-0.651 0.131-1.003 0-1.141 0.056-2.134-1.544-2.702v-9.971c6.4 0.835 11.15 6.194 11.15 12.674 0 3.014-1.029 5.784-2.779 7.974zM16 28.8c-6.514 0-11.896-4.896-12.688-11.2h9.933c0.678 1.166 2.008 1.813 3.387 1.536l7.067 7.066c-2.146 1.624-4.808 2.598-7.699 2.598zM14.4 3.296v9.894c0 0.28-0.858 0.698-1.155 1.21h-9.933c0.73-5.811 4.688-10.419 11.088-11.104zM16 0c-8.835 0-16 7.163-16 16s7.165 16 16 16c8.837 0 16-7.163 16-16s-7.163-16-16-16z"></path>
</svg>
