<!-- Generated by IcoMoon.io -->
<svg version="1.1" xmlns="http://www.w3.org/2000/svg" width="22" height="32" viewBox="0 0 22 32">
<title>as-watch-1</title>
<path d="M7.518 17.339c1.813 1.686 2.075 1.917 4.106 0.053 2.909-2.666-0.21-5.44-1.899-3.282-0.062 0.078-0.186 0.080-0.248 0.002-1.712-2.171-4.758 0.624-1.958 3.227zM3.2 22.4v-12.8h12.8v12.8h-12.8zM6.4 28.8v-3.2h6.4v3.2h-6.4zM6.4 6.4v-3.2h6.4v3.2h-6.4zM19.2 14.4v-8h-3.2v-6.4h-12.8v6.4h-3.2v19.2h3.2v6.4h12.8v-6.4h3.2v-8h3.2v-3.2h-3.2z"></path>
</svg>
