<!-- Generated by IcoMoon.io -->
<svg version="1.1" xmlns="http://www.w3.org/2000/svg" width="32" height="32" viewBox="0 0 32 32">
<title>as-wallet-</title>
<path d="M28.8 12.8h-25.6v11.467c0 2.499 2.034 4.533 4.533 4.533h21.067v-16zM3.2 9.6h16v-1.867c0-2.499-2.166-4.533-4.667-4.533h-11.333v6.4zM32 9.6v22.4h-24.267c-4.27 0-7.733-3.462-7.733-7.733v-24.267h14.8c4.27 0 7.6 3.462 7.6 7.733v1.867h9.6zM22.667 20.8c0-0.883 0.715-1.6 1.6-1.6 0.883 0 1.6 0.717 1.6 1.6s-0.717 1.6-1.6 1.6c-0.885 0-1.6-0.717-1.6-1.6z"></path>
</svg>
