<!-- Generated by IcoMoon.io -->
<svg version="1.1" xmlns="http://www.w3.org/2000/svg" width="32" height="32" viewBox="0 0 32 32">
<title>mi-bed</title>
<path d="M30.667 17.333h-18.667c-0.8 0-1.333-0.533-1.333-1.333v-1.333c0-2.933 2.4-5.333 5.333-5.333h10.667c2.933 0 5.333 2.4 5.333 5.333v1.333c0 0.8-0.533 1.333-1.333 1.333zM13.333 14.667h16c0-1.467-1.2-2.667-2.667-2.667h-10.667c-1.467 0-2.667 1.2-2.667 2.667z"></path>
<path d="M30.667 22.667h-29.333c-0.8 0-1.333-0.533-1.333-1.333v-16c0-0.8 0.533-1.333 1.333-1.333s1.333 0.533 1.333 1.333v14.667h26.667v-4c0-0.8 0.533-1.333 1.333-1.333s1.333 0.533 1.333 1.333v5.333c0 0.8-0.533 1.333-1.333 1.333z"></path>
<path d="M25.333 17.333h-22.667c-0.8 0-1.333-0.533-1.333-1.333s0.533-1.333 1.333-1.333h22.667c0.8 0 1.333 0.533 1.333 1.333s-0.533 1.333-1.333 1.333z"></path>
<path d="M12 17.333h-10.667c-0.8 0-1.333-0.533-1.333-1.333v-1.333c0-2.933 2.4-5.333 5.333-5.333h2.667c2.933 0 5.333 2.4 5.333 5.333v1.333c0 0.8-0.533 1.333-1.333 1.333zM2.667 14.667h8c0-1.467-1.2-2.667-2.667-2.667h-2.667c-1.467 0-2.667 1.2-2.667 2.667z"></path>
<path d="M30.667 28h-29.333c-0.8 0-1.333-0.533-1.333-1.333v-5.333c0-0.8 0.533-1.333 1.333-1.333h29.333c0.8 0 1.333 0.533 1.333 1.333v5.333c0 0.8-0.533 1.333-1.333 1.333zM2.667 25.333h26.667v-2.667h-26.667v2.667z"></path>
</svg>
