<!-- Generated by IcoMoon.io -->
<svg version="1.1" xmlns="http://www.w3.org/2000/svg" width="32" height="32" viewBox="0 0 32 32">
<title>mi-calendar</title>
<path d="M28 30.667h-24c-2.267 0-4-1.733-4-4v-18.667c0-2.267 1.733-4 4-4h24c2.267 0 4 1.733 4 4v18.667c0 2.267-1.733 4-4 4zM4 6.667c-0.8 0-1.333 0.533-1.333 1.333v18.667c0 0.8 0.533 1.333 1.333 1.333h24c0.8 0 1.333-0.533 1.333-1.333v-18.667c0-0.8-0.533-1.333-1.333-1.333h-24z"></path>
<path d="M8 9.333c-0.8 0-1.333-0.533-1.333-1.333v-5.333c0-0.8 0.533-1.333 1.333-1.333s1.333 0.533 1.333 1.333v5.333c0 0.8-0.533 1.333-1.333 1.333z"></path>
<path d="M24 9.333c-0.8 0-1.333-0.533-1.333-1.333v-5.333c0-0.8 0.533-1.333 1.333-1.333s1.333 0.533 1.333 1.333v5.333c0 0.8-0.533 1.333-1.333 1.333z"></path>
<path d="M30.667 14.667h-29.333c-0.8 0-1.333-0.533-1.333-1.333s0.533-1.333 1.333-1.333h29.333c0.8 0 1.333 0.533 1.333 1.333s-0.533 1.333-1.333 1.333z"></path>
<path d="M9.333 18.667c0 0.736-0.597 1.333-1.333 1.333s-1.333-0.597-1.333-1.333c0-0.736 0.597-1.333 1.333-1.333s1.333 0.597 1.333 1.333z"></path>
<path d="M8 20.667c-1.067 0-2-0.933-2-2s0.933-2 2-2 2 0.933 2 2-0.933 2-2 2zM8 18c-0.4 0-0.667 0.267-0.667 0.667s0.267 0.667 0.667 0.667 0.667-0.267 0.667-0.667-0.267-0.667-0.667-0.667z"></path>
<path d="M9.333 24c0 0.736-0.597 1.333-1.333 1.333s-1.333-0.597-1.333-1.333c0-0.736 0.597-1.333 1.333-1.333s1.333 0.597 1.333 1.333z"></path>
<path d="M8 26c-1.067 0-2-0.933-2-2s0.933-2 2-2 2 0.933 2 2-0.933 2-2 2zM8 23.333c-0.4 0-0.667 0.267-0.667 0.667s0.267 0.667 0.667 0.667 0.667-0.267 0.667-0.667-0.267-0.667-0.667-0.667z"></path>
<path d="M14.667 24c0 0.736-0.597 1.333-1.333 1.333s-1.333-0.597-1.333-1.333c0-0.736 0.597-1.333 1.333-1.333s1.333 0.597 1.333 1.333z"></path>
<path d="M13.333 26c-1.067 0-2-0.933-2-2s0.933-2 2-2 2 0.933 2 2-0.933 2-2 2zM13.333 23.333c-0.4 0-0.667 0.267-0.667 0.667s0.267 0.667 0.667 0.667 0.667-0.267 0.667-0.667-0.267-0.667-0.667-0.667z"></path>
<path d="M14.667 18.667c0 0.736-0.597 1.333-1.333 1.333s-1.333-0.597-1.333-1.333c0-0.736 0.597-1.333 1.333-1.333s1.333 0.597 1.333 1.333z"></path>
<path d="M13.333 20.667c-1.067 0-2-0.933-2-2s0.933-2 2-2 2 0.933 2 2-0.933 2-2 2zM13.333 18c-0.4 0-0.667 0.267-0.667 0.667s0.267 0.667 0.667 0.667 0.667-0.267 0.667-0.667-0.267-0.667-0.667-0.667z"></path>
<path d="M20 18.667c0 0.736-0.597 1.333-1.333 1.333s-1.333-0.597-1.333-1.333c0-0.736 0.597-1.333 1.333-1.333s1.333 0.597 1.333 1.333z"></path>
<path d="M18.667 20.667c-1.067 0-2-0.933-2-2s0.933-2 2-2 2 0.933 2 2-0.933 2-2 2zM18.667 18c-0.4 0-0.667 0.267-0.667 0.667s0.267 0.667 0.667 0.667 0.667-0.267 0.667-0.667-0.267-0.667-0.667-0.667z"></path>
<path d="M20 24c0 0.736-0.597 1.333-1.333 1.333s-1.333-0.597-1.333-1.333c0-0.736 0.597-1.333 1.333-1.333s1.333 0.597 1.333 1.333z"></path>
<path d="M18.667 26c-1.067 0-2-0.933-2-2s0.933-2 2-2 2 0.933 2 2-0.933 2-2 2zM18.667 23.333c-0.4 0-0.667 0.267-0.667 0.667s0.267 0.667 0.667 0.667 0.667-0.267 0.667-0.667-0.267-0.667-0.667-0.667z"></path>
<path d="M25.333 24c0 0.736-0.597 1.333-1.333 1.333s-1.333-0.597-1.333-1.333c0-0.736 0.597-1.333 1.333-1.333s1.333 0.597 1.333 1.333z"></path>
<path d="M24 26c-1.067 0-2-0.933-2-2s0.933-2 2-2 2 0.933 2 2-0.933 2-2 2zM24 23.333c-0.4 0-0.667 0.267-0.667 0.667s0.267 0.667 0.667 0.667 0.667-0.267 0.667-0.667-0.267-0.667-0.667-0.667z"></path>
<path d="M25.333 18.667c0 0.736-0.597 1.333-1.333 1.333s-1.333-0.597-1.333-1.333c0-0.736 0.597-1.333 1.333-1.333s1.333 0.597 1.333 1.333z"></path>
<path d="M24 20.667c-1.067 0-2-0.933-2-2s0.933-2 2-2 2 0.933 2 2-0.933 2-2 2zM24 18c-0.4 0-0.667 0.267-0.667 0.667s0.267 0.667 0.667 0.667 0.667-0.267 0.667-0.667-0.267-0.667-0.667-0.667z"></path>
</svg>
