<!-- Generated by IcoMoon.io -->
<svg version="1.1" xmlns="http://www.w3.org/2000/svg" width="32" height="32" viewBox="0 0 32 32">
<title>mi-glasses</title>
<path d="M6.667 28c-3.733 0-6.667-2.933-6.667-6.667s2.933-6.667 6.667-6.667 6.667 2.933 6.667 6.667-2.933 6.667-6.667 6.667zM6.667 17.333c-2.267 0-4 1.733-4 4s1.733 4 4 4 4-1.733 4-4-1.733-4-4-4z"></path>
<path d="M25.333 28c-3.733 0-6.667-2.933-6.667-6.667s2.933-6.667 6.667-6.667 6.667 2.933 6.667 6.667-2.933 6.667-6.667 6.667zM25.333 17.333c-2.267 0-4 1.733-4 4s1.733 4 4 4 4-1.733 4-4-1.733-4-4-4z"></path>
<path d="M20.133 21.867c-0.4 0-0.8-0.133-1.067-0.533-0.8-0.8-1.867-1.333-3.067-1.333s-2.267 0.533-3.067 1.467c-0.533 0.533-1.333 0.667-1.867 0.133s-0.667-1.333-0.133-1.867c1.333-1.467 3.067-2.4 5.067-2.4s3.867 0.8 5.067 2.4c0.533 0.533 0.4 1.467-0.133 1.867-0.267 0.133-0.533 0.267-0.8 0.267z"></path>
<path d="M1.333 22.667c-0.8 0-1.333-0.533-1.333-1.333 0-5.2 0.533-17.333 5.333-17.333 2.933 0 4 2.4 4 4 0 0.8-0.533 1.333-1.333 1.333s-1.333-0.533-1.333-1.333c0-0.667-0.267-1.333-1.333-1.333-1.2 0-2.667 6.8-2.667 14.667 0 0.8-0.533 1.333-1.333 1.333z"></path>
<path d="M30.667 22.667c-0.8 0-1.333-0.533-1.333-1.333 0-10.133-1.867-14.667-2.667-14.667-1.067 0-1.333 0.8-1.333 1.333 0 0.667-0.667 1.333-1.333 1.333 0 0 0 0 0 0-0.667 0-1.333-0.533-1.333-1.333 0-1.6 1.067-4 4-4 4.8 0 5.333 12.133 5.333 17.333 0 0.8-0.533 1.333-1.333 1.333z"></path>
</svg>
