<!-- Generated by IcoMoon.io -->
<svg version="1.1" xmlns="http://www.w3.org/2000/svg" width="32" height="32" viewBox="0 0 32 32">
<title>mi-image</title>
<path d="M30.667 32h-29.333c-0.8 0-1.333-0.533-1.333-1.333v-29.333c0-0.8 0.533-1.333 1.333-1.333h29.333c0.8 0 1.333 0.533 1.333 1.333v29.333c0 0.8-0.533 1.333-1.333 1.333zM2.667 29.333h26.667v-26.667h-26.667v26.667z"></path>
<path d="M30.667 25.333h-29.333c-0.8 0-1.333-0.533-1.333-1.333s0.533-1.333 1.333-1.333h29.333c0.8 0 1.333 0.533 1.333 1.333s-0.533 1.333-1.333 1.333z"></path>
<path d="M1.333 22.667c-0.4 0-0.667-0.133-0.933-0.4-0.533-0.533-0.533-1.333 0-1.867l8-8c0.533-0.533 1.333-0.533 1.867 0s0.533 1.333 0 1.867l-8 8c-0.267 0.267-0.533 0.4-0.933 0.4z"></path>
<path d="M14.667 20c-0.4 0-0.667-0.133-0.933-0.4l-5.333-5.333c-0.533-0.533-0.533-1.333 0-1.867s1.333-0.533 1.867 0l5.333 5.333c0.533 0.533 0.533 1.333 0 1.867-0.267 0.267-0.533 0.4-0.933 0.4z"></path>
<path d="M12 17.333c-0.4 0-0.667-0.133-0.933-0.4-0.533-0.533-0.533-1.333 0-1.867l6.667-6.667c0.533-0.533 1.333-0.533 1.867 0s0.533 1.333 0 1.867l-6.667 6.667c-0.267 0.267-0.533 0.4-0.933 0.4z"></path>
<path d="M30 22c-0.4 0-0.667-0.133-0.933-0.4l-11.333-11.333c-0.533-0.533-0.533-1.333 0-1.867s1.333-0.533 1.867 0l11.333 11.333c0.533 0.533 0.533 1.333 0 1.867-0.267 0.267-0.533 0.4-0.933 0.4z"></path>
<path d="M4 9.333c-1.333 0-2.533-0.533-3.6-1.333-0.533-0.533-0.533-1.333-0.133-1.867 0.533-0.533 1.333-0.533 1.867-0.133s1.2 0.667 1.867 0.667c1.467 0 2.667-1.2 2.667-2.667 0-0.667-0.267-1.333-0.667-1.733-0.533-0.533-0.4-1.333 0.133-1.867s1.333-0.533 1.867 0c0.8 1.067 1.333 2.267 1.333 3.6 0 2.933-2.4 5.333-5.333 5.333z"></path>
</svg>
