<!-- Generated by IcoMoon.io -->
<svg version="1.1" xmlns="http://www.w3.org/2000/svg" width="32" height="32" viewBox="0 0 32 32">
<title>mi-light-bulb</title>
<path d="M20 25.333h-8c-0.8 0-1.333-0.533-1.333-1.333v-0.667c0-1.867-0.8-3.733-2.267-5.2-2.133-2.133-3.2-4.933-3.067-7.867 0.267-5.6 4.933-10.133 10.533-10.267h0.133c5.867 0 10.667 4.8 10.667 10.667 0 2.8-1.067 5.6-3.2 7.6-1.467 1.333-2.133 3.2-2.133 5.067v0.667c0 0.8-0.533 1.333-1.333 1.333zM13.333 22.667h5.333c0.133-2.4 1.2-4.533 2.933-6.4 1.6-1.467 2.4-3.467 2.4-5.6 0-4.4-3.6-8-8-8h-0.133c-4.133 0.133-7.733 3.467-7.867 7.733-0.133 2.133 0.8 4.267 2.267 5.867 1.867 1.867 2.933 4.133 3.067 6.4z"></path>
<path d="M16 32v0c-2.933 0-5.333-2.4-5.333-5.333v-2.667c0-0.8 0.533-1.333 1.333-1.333h8c0.8 0 1.333 0.533 1.333 1.333v2.667c0 2.933-2.4 5.333-5.333 5.333zM13.333 25.333v1.333c0 1.467 1.2 2.667 2.667 2.667v0c1.467 0 2.667-1.2 2.667-2.667v-1.333h-5.333z"></path>
<path d="M12 12c-0.8 0-1.333-0.533-1.333-1.333 0-2.933 2.4-5.333 5.333-5.333 0.8 0 1.333 0.533 1.333 1.333s-0.533 1.333-1.333 1.333c-1.467 0-2.667 1.2-2.667 2.667 0 0.8-0.533 1.333-1.333 1.333z"></path>
</svg>
