<!-- Generated by IcoMoon.io -->
<svg version="1.1" xmlns="http://www.w3.org/2000/svg" width="32" height="32" viewBox="0 0 32 32">
<title>mi-leaf</title>
<path d="M16 25.333c-8.933 0-10.667-3.467-10.667-9.333 0-8.667 9.467-15.467 9.867-15.733s1.067-0.267 1.6 0c0.4 0.267 9.867 7.067 9.867 15.733 0 2.267 0 9.333-10.667 9.333zM16 3.067c-2.133 1.6-8 6.933-8 12.933 0 4.8 0.667 6.667 8 6.667s8-3.467 8-6.667c0-6-5.867-11.333-8-12.933z"></path>
<path d="M18.667 32c-0.4 0-0.8-0.267-1.067-0.533-4.8-7.333-3.467-17.333-3.067-21.067 0.133-0.533 0.133-0.933 0.133-1.067 0-0.667 0.667-1.333 1.333-1.333 0 0 0 0 0 0 0.667 0 1.333 0.533 1.333 1.333 0 0.267 0 0.667-0.133 1.333-0.533 3.467-1.733 12.8 2.533 19.2 0.4 0.667 0.267 1.467-0.4 1.867-0.133 0.133-0.4 0.267-0.667 0.267z"></path>
</svg>
