<!-- Generated by IcoMoon.io -->
<svg version="1.1" xmlns="http://www.w3.org/2000/svg" width="32" height="32" viewBox="0 0 32 32">
<title>mi-list</title>
<path d="M5.333 9.333c-2.267 0-4-1.733-4-4s1.733-4 4-4 4 1.733 4 4-1.733 4-4 4zM5.333 4c-0.8 0-1.333 0.533-1.333 1.333s0.533 1.333 1.333 1.333 1.333-0.533 1.333-1.333-0.533-1.333-1.333-1.333z"></path>
<path d="M5.333 10c-2.533 0-4.667-2.133-4.667-4.667s2.133-4.667 4.667-4.667 4.667 2.133 4.667 4.667-2.133 4.667-4.667 4.667zM5.333 2c-1.867 0-3.333 1.467-3.333 3.333s1.467 3.333 3.333 3.333 3.333-1.467 3.333-3.333-1.467-3.333-3.333-3.333zM5.333 7.333c-1.067 0-2-0.933-2-2s0.933-2 2-2 2 0.933 2 2-0.933 2-2 2zM5.333 4.667c-0.4 0-0.667 0.267-0.667 0.667s0.267 0.667 0.667 0.667 0.667-0.267 0.667-0.667-0.267-0.667-0.667-0.667z"></path>
<path d="M5.333 30.667c-2.267 0-4-1.733-4-4s1.733-4 4-4 4 1.733 4 4-1.733 4-4 4zM5.333 25.333c-0.8 0-1.333 0.533-1.333 1.333s0.533 1.333 1.333 1.333 1.333-0.533 1.333-1.333-0.533-1.333-1.333-1.333z"></path>
<path d="M5.333 31.333c-2.533 0-4.667-2.133-4.667-4.667s2.133-4.667 4.667-4.667 4.667 2.133 4.667 4.667-2.133 4.667-4.667 4.667zM5.333 23.333c-1.867 0-3.333 1.467-3.333 3.333s1.467 3.333 3.333 3.333 3.333-1.467 3.333-3.333-1.467-3.333-3.333-3.333zM5.333 28.667c-1.067 0-2-0.933-2-2s0.933-2 2-2 2 0.933 2 2-0.933 2-2 2zM5.333 26c-0.4 0-0.667 0.267-0.667 0.667s0.267 0.667 0.667 0.667 0.667-0.267 0.667-0.667-0.267-0.667-0.667-0.667z"></path>
<path d="M5.333 20c-2.267 0-4-1.733-4-4s1.733-4 4-4 4 1.733 4 4-1.733 4-4 4zM5.333 14.667c-0.8 0-1.333 0.533-1.333 1.333s0.533 1.333 1.333 1.333 1.333-0.533 1.333-1.333-0.533-1.333-1.333-1.333z"></path>
<path d="M5.333 20.667c-2.533 0-4.667-2.133-4.667-4.667s2.133-4.667 4.667-4.667 4.667 2.133 4.667 4.667-2.133 4.667-4.667 4.667zM5.333 12.667c-1.867 0-3.333 1.467-3.333 3.333s1.467 3.333 3.333 3.333 3.333-1.467 3.333-3.333-1.467-3.333-3.333-3.333zM5.333 18c-1.067 0-2-0.933-2-2s0.933-2 2-2 2 0.933 2 2-0.933 2-2 2zM5.333 15.333c-0.4 0-0.667 0.267-0.667 0.667s0.267 0.667 0.667 0.667 0.667-0.267 0.667-0.667-0.267-0.667-0.667-0.667z"></path>
<path d="M29.333 8h-16c-0.8 0-1.333-0.533-1.333-1.333s0.533-1.333 1.333-1.333h16c0.8 0 1.333 0.533 1.333 1.333s-0.533 1.333-1.333 1.333z"></path>
<path d="M29.333 8h-16c-1.067 0-2-0.933-2-2s0.933-2 2-2h16c1.067 0 2 0.933 2 2s-0.933 2-2 2zM13.333 5.333c-0.4 0-0.667 0.267-0.667 0.667s0.267 0.667 0.667 0.667h16c0.4 0 0.667-0.267 0.667-0.667s-0.267-0.667-0.667-0.667h-16z"></path>
<path d="M21.333 18.667h-8c-0.8 0-1.333-0.533-1.333-1.333s0.533-1.333 1.333-1.333h8c0.8 0 1.333 0.533 1.333 1.333s-0.533 1.333-1.333 1.333z"></path>
<path d="M21.333 18.667h-8c-1.067 0-2-0.933-2-2s0.933-2 2-2h8c1.067 0 2 0.933 2 2s-0.933 2-2 2zM13.333 16c-0.4 0-0.667 0.267-0.667 0.667s0.267 0.667 0.667 0.667h8c0.4 0 0.667-0.267 0.667-0.667s-0.267-0.667-0.667-0.667h-8z"></path>
<path d="M25.333 29.333h-12c-0.8 0-1.333-0.533-1.333-1.333s0.533-1.333 1.333-1.333h12c0.8 0 1.333 0.533 1.333 1.333s-0.533 1.333-1.333 1.333z"></path>
<path d="M25.333 29.333h-12c-1.067 0-2-0.933-2-2s0.933-2 2-2h12c1.067 0 2 0.933 2 2s-0.933 2-2 2zM13.333 26.667c-0.4 0-0.667 0.267-0.667 0.667s0.267 0.667 0.667 0.667h12c0.4 0 0.667-0.267 0.667-0.667s-0.267-0.667-0.667-0.667h-12z"></path>
</svg>
