<!-- Generated by IcoMoon.io -->
<svg version="1.1" xmlns="http://www.w3.org/2000/svg" width="32" height="32" viewBox="0 0 32 32">
<title>mi-music</title>
<path d="M5.333 32c-2.933 0-5.333-2.4-5.333-5.333s2.4-5.333 5.333-5.333 5.333 2.4 5.333 5.333-2.4 5.333-5.333 5.333zM5.333 24c-1.467 0-2.667 1.2-2.667 2.667s1.2 2.667 2.667 2.667 2.667-1.2 2.667-2.667-1.2-2.667-2.667-2.667z"></path>
<path d="M26.667 32c-2.933 0-5.333-2.4-5.333-5.333s2.4-5.333 5.333-5.333 5.333 2.4 5.333 5.333-2.4 5.333-5.333 5.333zM26.667 24c-1.467 0-2.667 1.2-2.667 2.667s1.2 2.667 2.667 2.667 2.667-1.2 2.667-2.667-1.2-2.667-2.667-2.667z"></path>
<path d="M9.333 28c-0.8 0-1.333-0.533-1.333-1.333v-25.333c0-0.8 0.533-1.333 1.333-1.333s1.333 0.533 1.333 1.333v25.333c0 0.8-0.533 1.333-1.333 1.333z"></path>
<path d="M30.667 2.667h-21.333c-0.8 0-1.333-0.533-1.333-1.333s0.533-1.333 1.333-1.333h21.333c0.8 0 1.333 0.533 1.333 1.333s-0.533 1.333-1.333 1.333z"></path>
<path d="M30.667 28c-0.8 0-1.333-0.533-1.333-1.333v-25.333c0-0.8 0.533-1.333 1.333-1.333s1.333 0.533 1.333 1.333v25.333c0 0.8-0.533 1.333-1.333 1.333z"></path>
<path d="M30.667 8h-21.333c-0.8 0-1.333-0.533-1.333-1.333s0.533-1.333 1.333-1.333h21.333c0.8 0 1.333 0.533 1.333 1.333s-0.533 1.333-1.333 1.333z"></path>
</svg>
