<!-- Generated by IcoMoon.io -->
<svg version="1.1" xmlns="http://www.w3.org/2000/svg" width="32" height="32" viewBox="0 0 32 32">
<title>mi-move-vertical</title>
<path d="M16 32c-0.4 0-0.667-0.133-0.933-0.4l-4-4c-0.533-0.533-0.533-1.333 0-1.867s1.333-0.533 1.867 0l4 4c0.533 0.533 0.533 1.333 0 1.867-0.267 0.267-0.533 0.4-0.933 0.4z"></path>
<path d="M16 32c-0.4 0-0.667-0.133-0.933-0.4-0.533-0.533-0.533-1.333 0-1.867l4-4c0.533-0.533 1.333-0.533 1.867 0s0.533 1.333 0 1.867l-4 4c-0.267 0.267-0.533 0.4-0.933 0.4z"></path>
<path d="M20 6.667c-0.4 0-0.667-0.133-0.933-0.4l-4-4c-0.533-0.533-0.533-1.333 0-1.867s1.333-0.533 1.867 0l4 4c0.533 0.533 0.533 1.333 0 1.867-0.267 0.267-0.533 0.4-0.933 0.4z"></path>
<path d="M12 6.667c-0.4 0-0.667-0.133-0.933-0.4-0.533-0.533-0.533-1.333 0-1.867l4-4c0.533-0.533 1.333-0.533 1.867 0s0.533 1.333 0 1.867l-4 4c-0.267 0.267-0.533 0.4-0.933 0.4z"></path>
<path d="M16 32c-0.8 0-1.333-0.533-1.333-1.333v-29.333c0-0.8 0.533-1.333 1.333-1.333s1.333 0.533 1.333 1.333v29.333c0 0.8-0.533 1.333-1.333 1.333z"></path>
</svg>
