<!-- Generated by IcoMoon.io -->
<svg version="1.1" xmlns="http://www.w3.org/2000/svg" width="32" height="32" viewBox="0 0 32 32">
<title>mi-move</title>
<path d="M24 21.333c-0.4 0-0.667-0.133-0.933-0.4-0.533-0.533-0.533-1.333 0-1.867l4-4c0.533-0.533 1.333-0.533 1.867 0s0.533 1.333 0 1.867l-4 4c-0.267 0.267-0.533 0.4-0.933 0.4z"></path>
<path d="M28 17.333c-0.4 0-0.667-0.133-0.933-0.4l-4-4c-0.533-0.533-0.533-1.333 0-1.867s1.333-0.533 1.867 0l4 4c0.533 0.533 0.533 1.333 0 1.867-0.267 0.267-0.533 0.4-0.933 0.4z"></path>
<path d="M2.667 17.333c-0.4 0-0.667-0.133-0.933-0.4-0.533-0.533-0.533-1.333 0-1.867l4-4c0.533-0.533 1.333-0.533 1.867 0s0.533 1.333 0 1.867l-4 4c-0.267 0.267-0.533 0.4-0.933 0.4z"></path>
<path d="M6.667 21.333c-0.4 0-0.667-0.133-0.933-0.4l-4-4c-0.533-0.533-0.533-1.333 0-1.867s1.333-0.533 1.867 0l4 4c0.533 0.533 0.533 1.333 0 1.867-0.267 0.267-0.533 0.4-0.933 0.4z"></path>
<path d="M28 17.333h-25.333c-0.8 0-1.333-0.533-1.333-1.333s0.533-1.333 1.333-1.333h25.333c0.8 0 1.333 0.533 1.333 1.333s-0.533 1.333-1.333 1.333z"></path>
<path d="M16 30.667c-0.4 0-0.667-0.133-0.933-0.4l-4-4c-0.533-0.533-0.533-1.333 0-1.867s1.333-0.533 1.867 0l4 4c0.533 0.533 0.533 1.333 0 1.867-0.267 0.267-0.533 0.4-0.933 0.4z"></path>
<path d="M16 30.667c-0.4 0-0.667-0.133-0.933-0.4-0.533-0.533-0.533-1.333 0-1.867l4-4c0.533-0.533 1.333-0.533 1.867 0s0.533 1.333 0 1.867l-4 4c-0.267 0.267-0.533 0.4-0.933 0.4z"></path>
<path d="M20 9.333c-0.4 0-0.667-0.133-0.933-0.4l-4-4c-0.533-0.533-0.533-1.333 0-1.867s1.333-0.533 1.867 0l4 4c0.533 0.533 0.533 1.333 0 1.867-0.267 0.267-0.533 0.4-0.933 0.4z"></path>
<path d="M12 9.333c-0.4 0-0.667-0.133-0.933-0.4-0.533-0.533-0.533-1.333 0-1.867l4-4c0.533-0.533 1.333-0.533 1.867 0s0.533 1.333 0 1.867l-4 4c-0.267 0.267-0.533 0.4-0.933 0.4z"></path>
<path d="M16 30.667c-0.8 0-1.333-0.533-1.333-1.333v-25.333c0-0.8 0.533-1.333 1.333-1.333s1.333 0.533 1.333 1.333v25.333c0 0.8-0.533 1.333-1.333 1.333z"></path>
</svg>
