<!-- Generated by IcoMoon.io -->
<svg version="1.1" xmlns="http://www.w3.org/2000/svg" width="32" height="32" viewBox="0 0 32 32">
<title>mi-network</title>
<path d="M4 32c-2.267 0-4-1.733-4-4s1.733-4 4-4 4 1.733 4 4-1.733 4-4 4zM4 26.667c-0.8 0-1.333 0.533-1.333 1.333s0.533 1.333 1.333 1.333 1.333-0.533 1.333-1.333-0.533-1.333-1.333-1.333z"></path>
<path d="M28 32c-2.267 0-4-1.733-4-4s1.733-4 4-4 4 1.733 4 4-1.733 4-4 4zM28 26.667c-0.8 0-1.333 0.533-1.333 1.333s0.533 1.333 1.333 1.333 1.333-0.533 1.333-1.333-0.533-1.333-1.333-1.333z"></path>
<path d="M16 32c-2.267 0-4-1.733-4-4s1.733-4 4-4 4 1.733 4 4-1.733 4-4 4zM16 26.667c-0.8 0-1.333 0.533-1.333 1.333s0.533 1.333 1.333 1.333 1.333-0.533 1.333-1.333-0.533-1.333-1.333-1.333z"></path>
<path d="M16 8c-2.267 0-4-1.733-4-4s1.733-4 4-4 4 1.733 4 4-1.733 4-4 4zM16 2.667c-0.8 0-1.333 0.533-1.333 1.333s0.533 1.333 1.333 1.333 1.333-0.533 1.333-1.333-0.533-1.333-1.333-1.333z"></path>
<path d="M28 26.667c-0.8 0-1.333-0.533-1.333-1.333v-6.667c0-0.8-0.533-1.333-1.333-1.333h-18.667c-0.8 0-1.333 0.533-1.333 1.333v6.667c0 0.8-0.533 1.333-1.333 1.333s-1.333-0.533-1.333-1.333v-6.667c0-2.267 1.733-4 4-4h18.667c2.267 0 4 1.733 4 4v6.667c0 0.8-0.533 1.333-1.333 1.333z"></path>
<path d="M16 26.667c-0.8 0-1.333-0.533-1.333-1.333v-9.333c0-0.8 0.533-1.333 1.333-1.333s1.333 0.533 1.333 1.333v9.333c0 0.8-0.533 1.333-1.333 1.333z"></path>
<path d="M16 17.333c-0.8 0-1.333-0.533-1.333-1.333v-9.333c0-0.8 0.533-1.333 1.333-1.333s1.333 0.533 1.333 1.333v9.333c0 0.8-0.533 1.333-1.333 1.333z"></path>
</svg>
