<!-- Generated by IcoMoon.io -->
<svg version="1.1" xmlns="http://www.w3.org/2000/svg" width="32" height="32" viewBox="0 0 32 32">
<title>mi-phone</title>
<path d="M24 30.933c-1.867 0-4-0.533-6.4-1.733-2.933-1.467-5.867-3.6-8.667-6.4-2.667-2.667-4.933-5.733-6.4-8.667-2.267-4.667-2.4-8.533-0.133-10.667 0.533-0.533 1.333-0.533 1.867 0s0.533 1.333 0 1.867c-1.333 1.333-1.067 4.267 0.667 7.733 1.333 2.667 3.333 5.467 5.867 8s5.333 4.533 8 5.867c3.467 1.733 6.4 2 7.733 0.667 0.533-0.533 1.333-0.533 1.867 0s0.533 1.333 0 1.867c-1.067 0.933-2.533 1.467-4.4 1.467z"></path>
<path d="M10.4 14.267c-0.533 0-0.933-0.267-1.2-0.8-0.4-0.667-0.133-1.467 0.533-1.733l3.067-1.467c0.533-0.267 1.2-0.933 1.067-1.733 0-0.4-0.267-0.667-0.533-0.933l-4.4-4.533c-0.4-0.4-1.067-0.533-1.733-0.4-0.267 0.133-0.533 0.267-0.8 0.4l-2.133 2.267c-0.533 0.533-1.333 0.533-1.867 0s-0.533-1.333 0-1.867l2.133-2.133c0.533-0.533 1.2-0.933 1.867-1.067 1.6-0.4 3.2 0 4.4 1.067l4.4 4.4c0.667 0.667 1.067 1.6 1.2 2.533 0.267 1.733-0.8 3.6-2.533 4.533l-3.067 1.467c0-0.133-0.267 0-0.4 0z"></path>
<path d="M27.333 29.733c-0.4 0-0.667-0.133-0.933-0.4-0.533-0.533-0.533-1.333 0-1.867l2.133-2.133c0.267-0.267 0.4-0.4 0.4-0.8 0.133-0.667 0-1.333-0.4-1.733l-4.4-4.4c-0.267-0.267-0.667-0.4-0.933-0.533-0.8-0.133-1.467 0.4-1.733 1.067l-1.467 3.067c-0.267 0.667-1.067 0.933-1.733 0.533-0.667-0.267-0.933-1.067-0.533-1.733l1.467-3.067c0.933-1.733 2.667-2.8 4.533-2.533 0.933 0.133 1.733 0.533 2.4 1.2l4.4 4.4c1.2 1.2 1.6 2.8 1.067 4.4-0.267 0.667-0.533 1.333-1.067 1.867l-2.267 2.267c-0.267 0.267-0.533 0.4-0.933 0.4z"></path>
<path d="M18.8 22.667c-0.267 0-0.533-0.133-0.8-0.267-1.6-1.2-3.2-2.533-4.8-4-1.6-1.6-2.933-3.2-4-4.8-0.4-0.533-0.267-1.333 0.4-1.867 0.667-0.4 1.467-0.267 1.867 0.267 1.067 1.467 2.267 3.067 3.733 4.4s2.933 2.667 4.4 3.733c0.667 0.4 0.8 1.2 0.267 1.867-0.133 0.533-0.533 0.667-1.067 0.667z"></path>
</svg>
