<!-- Generated by IcoMoon.io -->
<svg version="1.1" xmlns="http://www.w3.org/2000/svg" width="32" height="32" viewBox="0 0 32 32">
<title>mi-padding</title>
<path d="M21.333 8h-10.667c-0.8 0-1.333-0.533-1.333-1.333s0.533-1.333 1.333-1.333h10.667c0.8 0 1.333 0.533 1.333 1.333s-0.533 1.333-1.333 1.333z"></path>
<path d="M21.333 26.667h-10.667c-0.8 0-1.333-0.533-1.333-1.333s0.533-1.333 1.333-1.333h10.667c0.8 0 1.333 0.533 1.333 1.333s-0.533 1.333-1.333 1.333z"></path>
<path d="M25.333 22.667c-0.8 0-1.333-0.533-1.333-1.333v-10.667c0-0.8 0.533-1.333 1.333-1.333s1.333 0.533 1.333 1.333v10.667c0 0.8-0.533 1.333-1.333 1.333z"></path>
<path d="M6.667 22.667c-0.8 0-1.333-0.533-1.333-1.333v-10.667c0-0.8 0.533-1.333 1.333-1.333s1.333 0.533 1.333 1.333v10.667c0 0.8-0.533 1.333-1.333 1.333z"></path>
<path d="M30.667 32h-29.333c-0.8 0-1.333-0.533-1.333-1.333v-29.333c0-0.8 0.533-1.333 1.333-1.333h29.333c0.8 0 1.333 0.533 1.333 1.333v29.333c0 0.8-0.533 1.333-1.333 1.333zM2.667 29.333h26.667v-26.667h-26.667v26.667z"></path>
</svg>
