<!-- Generated by IcoMoon.io -->
<svg version="1.1" xmlns="http://www.w3.org/2000/svg" width="32" height="32" viewBox="0 0 32 32">
<title>mi-paint-brush</title>
<path d="M30.667 13.333h-29.333c-0.8 0-1.333-0.533-1.333-1.333v-10.667c0-0.8 0.533-1.333 1.333-1.333h6.667c0.8 0 1.333 0.533 1.333 1.333s-0.533 1.333-1.333 1.333h-5.333v8h26.667v-8h-16c-0.8 0-1.333-0.533-1.333-1.333s0.533-1.333 1.333-1.333h17.333c0.8 0 1.333 0.533 1.333 1.333v10.667c0 0.8-0.533 1.333-1.333 1.333z"></path>
<path d="M30.667 18.667h-29.333c-0.8 0-1.333-0.533-1.333-1.333v-5.333c0-0.8 0.533-1.333 1.333-1.333h29.333c0.8 0 1.333 0.533 1.333 1.333v5.333c0 0.8-0.533 1.333-1.333 1.333zM2.667 16h26.667v-2.667h-26.667v2.667z"></path>
<path d="M16 32v0c-2.267 0-4-1.733-4-4v-10.667c0-0.8 0.533-1.333 1.333-1.333h5.333c0.8 0 1.333 0.533 1.333 1.333v10.667c0 2.267-1.733 4-4 4zM14.667 18.667v9.333c0 0.667 0.533 1.333 1.333 1.333v0c0.667 0 1.333-0.533 1.333-1.333v-9.333h-2.667z"></path>
<path d="M10.667 6.667c-0.4 0-0.8-0.267-1.067-0.533l-2.667-4c-0.4-0.667-0.267-1.467 0.267-1.867 0.667-0.4 1.467-0.267 1.867 0.267l2.667 4c0.4 0.667 0.267 1.467-0.267 1.867-0.267 0.133-0.533 0.267-0.8 0.267z"></path>
<path d="M10.667 6.667c-0.267 0-0.533-0.133-0.8-0.267-0.533-0.4-0.667-1.2-0.267-1.867l2.667-4c0.4-0.667 1.2-0.8 1.867-0.4s0.8 1.2 0.4 1.867l-2.667 4c-0.4 0.4-0.8 0.667-1.2 0.667z"></path>
<path d="M10.667 13.333c-0.8 0-1.333-0.533-1.333-1.333v-6.667c0-0.8 0.533-1.333 1.333-1.333s1.333 0.533 1.333 1.333v6.667c0 0.8-0.533 1.333-1.333 1.333z"></path>
<path d="M17.333 13.333c-0.8 0-1.333-0.533-1.333-1.333v-10.667c0-0.8 0.533-1.333 1.333-1.333s1.333 0.533 1.333 1.333v10.667c0 0.8-0.533 1.333-1.333 1.333z"></path>
<path d="M21.333 13.333c-0.8 0-1.333-0.533-1.333-1.333v-10.667c0-0.8 0.533-1.333 1.333-1.333s1.333 0.533 1.333 1.333v10.667c0 0.8-0.533 1.333-1.333 1.333z"></path>
<path d="M26.667 13.333c-0.8 0-1.333-0.533-1.333-1.333v-10.667c0-0.8 0.533-1.333 1.333-1.333s1.333 0.533 1.333 1.333v10.667c0 0.8-0.533 1.333-1.333 1.333z"></path>
</svg>
