<!-- Generated by IcoMoon.io -->
<svg version="1.1" xmlns="http://www.w3.org/2000/svg" width="32" height="32" viewBox="0 0 32 32">
<title>mi-pencil-ruler</title>
<path d="M12 25.333h-5.333l2.667 5.333z"></path>
<path d="M9.333 32c-0.533 0-0.933-0.267-1.2-0.8l-2.667-5.333c-0.267-0.4-0.133-0.933 0-1.333 0.267-0.267 0.8-0.533 1.2-0.533h5.333c0.4 0 0.933 0.267 1.2 0.667s0.267 0.933 0 1.333l-2.667 5.333c-0.267 0.4-0.667 0.667-1.2 0.667zM8.8 26.667l0.533 1.067 0.533-1.067h-1.067z"></path>
<path d="M12 26.667h-5.333c-0.8 0-1.333-0.533-1.333-1.333v-21.333c0-2.133 1.733-4 4-4s4 1.733 4 4v21.333c0 0.8-0.533 1.333-1.333 1.333zM8 24h2.667v-20c0-0.667-0.533-1.333-1.333-1.333s-1.333 0.533-1.333 1.333v20z"></path>
<path d="M25.333 32h-8c-0.8 0-1.333-0.533-1.333-1.333v-29.333c0-0.8 0.533-1.333 1.333-1.333h8c0.8 0 1.333 0.533 1.333 1.333v29.333c0 0.8-0.533 1.333-1.333 1.333zM18.667 29.333h5.333v-26.667h-5.333v26.667z"></path>
<path d="M25.333 9.333h-2.667c-0.8 0-1.333-0.533-1.333-1.333s0.533-1.333 1.333-1.333h2.667c0.8 0 1.333 0.533 1.333 1.333s-0.533 1.333-1.333 1.333z"></path>
<path d="M25.333 14.667h-2.667c-0.8 0-1.333-0.533-1.333-1.333s0.533-1.333 1.333-1.333h2.667c0.8 0 1.333 0.533 1.333 1.333s-0.533 1.333-1.333 1.333z"></path>
<path d="M25.333 20h-2.667c-0.8 0-1.333-0.533-1.333-1.333s0.533-1.333 1.333-1.333h2.667c0.8 0 1.333 0.533 1.333 1.333s-0.533 1.333-1.333 1.333z"></path>
<path d="M25.333 25.333h-2.667c-0.8 0-1.333-0.533-1.333-1.333s0.533-1.333 1.333-1.333h2.667c0.8 0 1.333 0.533 1.333 1.333s-0.533 1.333-1.333 1.333z"></path>
</svg>
