<!-- Generated by IcoMoon.io -->
<svg version="1.1" xmlns="http://www.w3.org/2000/svg" width="32" height="32" viewBox="0 0 32 32">
<title>mi-skull</title>
<path d="M13.333 32c-0.8 0-1.333-0.533-1.333-1.333v-4c0-0.8 0.533-1.333 1.333-1.333s1.333 0.533 1.333 1.333v4c0 0.8-0.533 1.333-1.333 1.333z"></path>
<path d="M18.667 32c-0.8 0-1.333-0.533-1.333-1.333v-4c0-0.8 0.533-1.333 1.333-1.333s1.333 0.533 1.333 1.333v4c0 0.8-0.533 1.333-1.333 1.333z"></path>
<path d="M22.667 32h-13.333c-0.8 0-1.333-0.533-1.333-1.333v-6.667c-3.333-2.533-5.333-6.4-5.333-10.667 0-7.333 6-13.333 13.333-13.333s13.333 6 13.333 13.333c0 4.267-2 8.133-5.333 10.667v6.667c0 0.8-0.533 1.333-1.333 1.333zM10.667 29.333h10.667v-6c0-0.4 0.267-0.8 0.533-1.067 2.933-2 4.8-5.333 4.8-8.8 0-5.867-4.8-10.667-10.667-10.667s-10.667 4.8-10.667 10.667c0 3.6 1.733 6.933 4.8 8.8 0.267 0.133 0.533 0.533 0.533 1.067v6z"></path>
<path d="M22.667 18.667c-0.4 0-0.667-0.133-0.933-0.4l-4-4c-0.533-0.533-0.533-1.333 0-1.867s1.333-0.533 1.867 0l4 4c0.533 0.533 0.533 1.333 0 1.867-0.267 0.267-0.533 0.4-0.933 0.4z"></path>
<path d="M18.667 18.667c-0.4 0-0.667-0.133-0.933-0.4-0.533-0.533-0.533-1.333 0-1.867l4-4c0.533-0.533 1.333-0.533 1.867 0s0.533 1.333 0 1.867l-4 4c-0.267 0.267-0.533 0.4-0.933 0.4z"></path>
<path d="M13.333 18.667c-0.4 0-0.667-0.133-0.933-0.4l-4-4c-0.533-0.533-0.533-1.333 0-1.867s1.333-0.533 1.867 0l4 4c0.533 0.533 0.533 1.333 0 1.867-0.267 0.267-0.533 0.4-0.933 0.4z"></path>
<path d="M9.333 18.667c-0.4 0-0.667-0.133-0.933-0.4-0.533-0.533-0.533-1.333 0-1.867l4-4c0.533-0.533 1.333-0.533 1.867 0s0.533 1.333 0 1.867l-4 4c-0.267 0.267-0.533 0.4-0.933 0.4z"></path>
</svg>
