<!-- Generated by IcoMoon.io -->
<svg version="1.1" xmlns="http://www.w3.org/2000/svg" width="32" height="32" viewBox="0 0 32 32">
<title>mi-truck</title>
<path d="M6.667 29.333c-2.267 0-4-1.733-4-4s1.733-4 4-4 4 1.733 4 4-1.733 4-4 4zM6.667 24c-0.8 0-1.333 0.533-1.333 1.333s0.533 1.333 1.333 1.333 1.333-0.533 1.333-1.333-0.533-1.333-1.333-1.333z"></path>
<path d="M25.333 29.333c-2.267 0-4-1.733-4-4s1.733-4 4-4 4 1.733 4 4-1.733 4-4 4zM25.333 24c-0.8 0-1.333 0.533-1.333 1.333s0.533 1.333 1.333 1.333 1.333-0.533 1.333-1.333-0.533-1.333-1.333-1.333z"></path>
<path d="M30.667 26.667h-2.667c-0.8 0-1.333-0.533-1.333-1.333s0.533-1.333 1.333-1.333h1.333v-6.4l-2.267-6.933h-5.733c-0.8 0-1.333-0.533-1.333-1.333v-4h-17.333v18.667h1.333c0.8 0 1.333 0.533 1.333 1.333s-0.533 1.333-1.333 1.333h-2.667c-0.8 0-1.333-0.533-1.333-1.333v-21.333c0-0.8 0.533-1.333 1.333-1.333h20c0.8 0 1.333 0.533 1.333 1.333v4h5.333c0.533 0 1.067 0.4 1.2 0.933l2.667 8c0 0.133 0.133 0.267 0.133 0.4v8c0 0.8-0.533 1.333-1.333 1.333z"></path>
<path d="M22.667 26.667h-13.333c-0.8 0-1.333-0.533-1.333-1.333s0.533-1.333 1.333-1.333h13.333c0.8 0 1.333 0.533 1.333 1.333s-0.533 1.333-1.333 1.333z"></path>
<path d="M21.333 26.667c-0.8 0-1.333-0.533-1.333-1.333v-16c0-0.8 0.533-1.333 1.333-1.333s1.333 0.533 1.333 1.333v16c0 0.8-0.533 1.333-1.333 1.333z"></path>
<path d="M30.667 18.667h-9.333c-0.8 0-1.333-0.533-1.333-1.333s0.533-1.333 1.333-1.333h9.333c0.8 0 1.333 0.533 1.333 1.333s-0.533 1.333-1.333 1.333z"></path>
</svg>
