<!-- Generated by IcoMoon.io -->
<svg version="1.1" xmlns="http://www.w3.org/2000/svg" width="32" height="32" viewBox="0 0 32 32">
<title>mi-thumbs-up</title>
<path d="M24.667 31.733c-0.133 0-0.267 0-0.4 0l-11.333-0.8c-2.8-0.267-4.933-2.533-4.933-5.333v-24.267c0-0.4 0.267-0.8 0.533-1.067 0.4-0.267 0.933-0.4 1.333-0.133 4.533 1.867 7.2 6.4 6.533 11.067l-0.133 0.667 8.667-0.667c0.133 0 0.4 0 0.533 0 1.467 0 2.933 0.667 3.867 1.733 1.067 1.067 1.467 2.533 1.467 4l-0.667 9.867c-0.4 2.667-2.667 4.933-5.467 4.933zM10.667 3.6v22c0 1.333 1.067 2.533 2.4 2.667l11.333 0.8c0.133 0 0.133 0 0.267 0 1.333 0 2.533-1.067 2.667-2.533l0.667-9.867c0-0.8-0.133-1.467-0.667-2-0.533-0.667-1.333-0.933-2.267-0.8l-10.267 0.8c-0.4 0-0.8-0.133-1.067-0.4s-0.4-0.667-0.4-1.067l0.267-2.267c0.533-2.933-0.667-5.733-2.933-7.333z"></path>
<path d="M9.333 32h-6.667c-0.8 0-1.333-0.533-1.333-1.333v-18.667c0-0.8 0.533-1.333 1.333-1.333h6.667c0.8 0 1.333 0.533 1.333 1.333v18.667c0 0.8-0.533 1.333-1.333 1.333zM4 29.333h4v-16h-4v16z"></path>
</svg>
