<!-- Generated by IcoMoon.io -->
<svg version="1.1" xmlns="http://www.w3.org/2000/svg" width="32" height="32" viewBox="0 0 32 32">
<title>mt-autorenew</title>
<path d="M16 8v4l5.333-5.333-5.333-5.333v4c-5.893 0-10.667 4.773-10.667 10.667 0 2.093 0.613 4.040 1.653 5.68l1.947-1.947c-0.6-1.107-0.933-2.387-0.933-3.733 0-4.413 3.587-8 8-8v0zM25.013 10.32l-1.947 1.947c0.587 1.12 0.933 2.387 0.933 3.733 0 4.413-3.587 8-8 8v-4l-5.333 5.333 5.333 5.333v-4c5.893 0 10.667-4.773 10.667-10.667 0-2.093-0.613-4.040-1.653-5.68v0z"></path>
</svg>
