<!-- Generated by IcoMoon.io -->
<svg version="1.1" xmlns="http://www.w3.org/2000/svg" width="32" height="32" viewBox="0 0 32 32">
<title>mt-border_inner</title>
<path d="M4 28h2.667v-2.667h-2.667v2.667zM9.333 28h2.667v-2.667h-2.667v2.667zM6.667 9.333h-2.667v2.667h2.667v-2.667zM4 22.667h2.667v-2.667h-2.667v2.667zM12 4h-2.667v2.667h2.667v-2.667zM6.667 4h-2.667v2.667h2.667v-2.667zM22.667 4h-2.667v2.667h2.667v-2.667zM25.333 12h2.667v-2.667h-2.667v2.667zM25.333 4v2.667h2.667v-2.667h-2.667zM20 28h2.667v-2.667h-2.667v2.667zM17.333 4h-2.667v10.667h-10.667v2.667h10.667v10.667h2.667v-10.667h10.667v-2.667h-10.667v-10.667zM25.333 28h2.667v-2.667h-2.667v2.667zM25.333 22.667h2.667v-2.667h-2.667v2.667z"></path>
</svg>
