<!-- Generated by IcoMoon.io -->
<svg version="1.1" xmlns="http://www.w3.org/2000/svg" width="32" height="32" viewBox="0 0 32 32">
<title>mt-blur_off</title>
<path d="M18.667 9.333c0.733 0 1.333-0.6 1.333-1.333s-0.6-1.333-1.333-1.333c-0.733 0-1.333 0.6-1.333 1.333s0.6 1.333 1.333 1.333v0zM18.4 15.307l0.267 0.027c1.107 0 2-0.893 2-2s-0.893-2-2-2c-1.107 0-2 0.893-2 2l0.027 0.267c0.12 0.893 0.813 1.587 1.707 1.707v0zM18.667 4.667c0.373 0 0.667-0.293 0.667-0.667s-0.293-0.667-0.667-0.667c-0.373 0-0.667 0.293-0.667 0.667s0.293 0.667 0.667 0.667v0zM13.333 4.667c0.373 0 0.667-0.293 0.667-0.667s-0.293-0.667-0.667-0.667c-0.373 0-0.667 0.293-0.667 0.667s0.293 0.667 0.667 0.667v0zM28 14c0.373 0 0.667-0.293 0.667-0.667s-0.293-0.667-0.667-0.667c-0.373 0-0.667 0.293-0.667 0.667s0.293 0.667 0.667 0.667v0zM13.333 9.333c0.733 0 1.333-0.6 1.333-1.333s-0.6-1.333-1.333-1.333c-0.733 0-1.333 0.6-1.333 1.333s0.6 1.333 1.333 1.333v0zM24 20c0.733 0 1.333-0.6 1.333-1.333s-0.6-1.333-1.333-1.333c-0.733 0-1.333 0.6-1.333 1.333s0.6 1.333 1.333 1.333v0zM24 14.667c0.733 0 1.333-0.6 1.333-1.333s-0.6-1.333-1.333-1.333c-0.733 0-1.333 0.6-1.333 1.333s0.6 1.333 1.333 1.333v0zM24 9.333c0.733 0 1.333-0.6 1.333-1.333s-0.6-1.333-1.333-1.333c-0.733 0-1.333 0.6-1.333 1.333s0.6 1.333 1.333 1.333v0zM18.667 27.333c-0.373 0-0.667 0.293-0.667 0.667s0.293 0.667 0.667 0.667c0.373 0 0.667-0.293 0.667-0.667s-0.293-0.667-0.667-0.667v0zM3.333 7.027l5.040 5.040-0.373-0.067c-0.733 0-1.333 0.6-1.333 1.333s0.6 1.333 1.333 1.333c0.733 0 1.333-0.6 1.333-1.333 0-0.133-0.040-0.253-0.080-0.373l3.747 3.747c-0.947 0.147-1.667 0.973-1.667 1.96 0 1.107 0.893 2 2 2 0.987 0 1.813-0.72 1.96-1.667l3.747 3.747c-0.12-0.040-0.24-0.080-0.373-0.080-0.733 0-1.333 0.6-1.333 1.333s0.6 1.333 1.333 1.333c0.733 0 1.333-0.6 1.333-1.333 0-0.133-0.040-0.253-0.080-0.373l5.040 5.040 1.707-1.693-21.64-21.64-1.693 1.693zM13.333 22.667c-0.733 0-1.333 0.6-1.333 1.333s0.6 1.333 1.333 1.333c0.733 0 1.333-0.6 1.333-1.333s-0.6-1.333-1.333-1.333v0zM28 18c-0.373 0-0.667 0.293-0.667 0.667s0.293 0.667 0.667 0.667c0.373 0 0.667-0.293 0.667-0.667s-0.293-0.667-0.667-0.667v0zM8 17.333c-0.733 0-1.333 0.6-1.333 1.333s0.6 1.333 1.333 1.333c0.733 0 1.333-0.6 1.333-1.333s-0.6-1.333-1.333-1.333v0zM4 12.667c-0.373 0-0.667 0.293-0.667 0.667s0.293 0.667 0.667 0.667c0.373 0 0.667-0.293 0.667-0.667s-0.293-0.667-0.667-0.667v0zM13.333 27.333c-0.373 0-0.667 0.293-0.667 0.667s0.293 0.667 0.667 0.667c0.373 0 0.667-0.293 0.667-0.667s-0.293-0.667-0.667-0.667v0zM8 22.667c-0.733 0-1.333 0.6-1.333 1.333s0.6 1.333 1.333 1.333c0.733 0 1.333-0.6 1.333-1.333s-0.6-1.333-1.333-1.333v0zM4 18c-0.373 0-0.667 0.293-0.667 0.667s0.293 0.667 0.667 0.667c0.373 0 0.667-0.293 0.667-0.667s-0.293-0.667-0.667-0.667v0z"></path>
</svg>
