<!-- Generated by IcoMoon.io -->
<svg version="1.1" xmlns="http://www.w3.org/2000/svg" width="32" height="32" viewBox="0 0 32 32">
<title>mt-bug_report</title>
<path d="M26.667 10.667h-3.747c-0.6-1.040-1.427-1.933-2.427-2.613l2.173-2.173-1.88-1.88-2.893 2.893c-0.613-0.147-1.24-0.227-1.893-0.227s-1.28 0.080-1.88 0.227l-2.907-2.893-1.88 1.88 2.16 2.173c-0.987 0.68-1.813 1.573-2.413 2.613h-3.747v2.667h2.787c-0.067 0.44-0.12 0.88-0.12 1.333v1.333h-2.667v2.667h2.667v1.333c0 0.453 0.053 0.893 0.12 1.333h-2.787v2.667h3.747c1.387 2.387 3.96 4 6.92 4s5.533-1.613 6.92-4h3.747v-2.667h-2.787c0.067-0.44 0.12-0.88 0.12-1.333v-1.333h2.667v-2.667h-2.667v-1.333c0-0.453-0.053-0.893-0.12-1.333h2.787v-2.667zM18.667 21.333h-5.333v-2.667h5.333v2.667zM18.667 16h-5.333v-2.667h5.333v2.667z"></path>
</svg>
