<!-- Generated by IcoMoon.io -->
<svg version="1.1" xmlns="http://www.w3.org/2000/svg" width="32" height="32" viewBox="0 0 32 32">
<title>mt-child_friendly</title>
<path d="M17.333 2.667v10.667h10.667c0-5.893-4.773-10.667-10.667-10.667v0zM25.76 21.187c1.4-1.8 2.24-4.067 2.24-6.52h-19.413l-1.267-2.667h-4.653v2.667h2.96c-5.493-14.667 2.52 5.427 2.827 5.893-1.467 0.787-2.453 2.333-2.453 4.107 0 2.573 2.093 4.667 4.667 4.667 2.347 0 4.293-1.733 4.613-4h2.773c0.32 2.267 2.267 4 4.613 4 2.573 0 4.667-2.093 4.667-4.667 0-1.387-0.613-2.627-1.573-3.48v0zM10.667 26.667c-1.107 0-2-0.893-2-2s0.893-2 2-2c1.107 0 2 0.893 2 2s-0.893 2-2 2v0zM22.667 26.667c-1.107 0-2-0.893-2-2s0.893-2 2-2c1.107 0 2 0.893 2 2s-0.893 2-2 2v0z"></path>
</svg>
