<!-- Generated by IcoMoon.io -->
<svg version="1.1" xmlns="http://www.w3.org/2000/svg" width="32" height="32" viewBox="0 0 32 32">
<title>mt-copyright</title>
<path d="M13.44 14.48c0.067-0.44 0.213-0.827 0.4-1.16s0.453-0.613 0.787-0.827c0.32-0.2 0.72-0.293 1.213-0.307 0.307 0.013 0.587 0.067 0.84 0.173 0.267 0.12 0.507 0.28 0.693 0.48s0.333 0.44 0.453 0.707c0.12 0.267 0.173 0.56 0.187 0.853h2.387c-0.027-0.627-0.147-1.2-0.373-1.72s-0.533-0.973-0.933-1.347c-0.4-0.373-0.88-0.667-1.44-0.88s-1.173-0.307-1.853-0.307c-0.867 0-1.627 0.147-2.267 0.453s-1.173 0.707-1.6 1.227c-0.427 0.52-0.747 1.12-0.947 1.813s-0.32 1.413-0.32 2.187v0.36c0 0.773 0.107 1.493 0.307 2.187s0.52 1.293 0.947 1.8c0.427 0.507 0.96 0.92 1.6 1.213s1.4 0.453 2.267 0.453c0.627 0 1.213-0.107 1.76-0.307s1.027-0.48 1.44-0.84c0.413-0.36 0.747-0.773 0.987-1.253s0.387-0.987 0.4-1.533h-2.387c-0.013 0.28-0.080 0.533-0.2 0.773s-0.28 0.44-0.48 0.613c-0.2 0.173-0.427 0.307-0.693 0.4-0.253 0.093-0.52 0.12-0.8 0.133-0.48-0.013-0.88-0.107-1.187-0.307-0.333-0.213-0.6-0.493-0.787-0.827s-0.333-0.733-0.4-1.173c-0.067-0.44-0.107-0.893-0.107-1.333v-0.36c0-0.467 0.040-0.907 0.107-1.347v0zM16 2.667c-7.36 0-13.333 5.973-13.333 13.333s5.973 13.333 13.333 13.333c7.36 0 13.333-5.973 13.333-13.333s-5.973-13.333-13.333-13.333v0zM16 26.667c-5.88 0-10.667-4.787-10.667-10.667s4.787-10.667 10.667-10.667c5.88 0 10.667 4.787 10.667 10.667s-4.787 10.667-10.667 10.667v0z"></path>
</svg>
