<!-- Generated by IcoMoon.io -->
<svg version="1.1" xmlns="http://www.w3.org/2000/svg" width="32" height="32" viewBox="0 0 32 32">
<title>mt-call_end</title>
<path d="M16 12c-2.133 0-4.2 0.333-6.133 0.96v4.133c0 0.52-0.307 0.987-0.747 1.2-1.307 0.653-2.493 1.493-3.547 2.467-0.24 0.24-0.573 0.373-0.933 0.373-0.373 0-0.707-0.147-0.947-0.387l-3.307-3.307c-0.24-0.227-0.387-0.56-0.387-0.933s0.147-0.707 0.387-0.947c4.067-3.853 9.56-6.227 15.613-6.227s11.547 2.373 15.613 6.227c0.24 0.24 0.387 0.573 0.387 0.947s-0.147 0.707-0.387 0.947l-3.307 3.307c-0.24 0.24-0.573 0.387-0.947 0.387-0.36 0-0.693-0.147-0.933-0.373-1.053-0.987-2.253-1.813-3.56-2.467-0.44-0.213-0.747-0.667-0.747-1.2v-4.133c-1.92-0.64-3.987-0.973-6.12-0.973v0z"></path>
</svg>
