<!-- Generated by IcoMoon.io -->
<svg version="1.1" xmlns="http://www.w3.org/2000/svg" width="32" height="32" viewBox="0 0 32 32">
<title>mt-do_not_disturb</title>
<path d="M16 2.667c-7.36 0-13.333 5.973-13.333 13.333s5.973 13.333 13.333 13.333c7.36 0 13.333-5.973 13.333-13.333s-5.973-13.333-13.333-13.333v0zM16 26.667c-5.893 0-10.667-4.773-10.667-10.667 0-2.467 0.84-4.733 2.253-6.533l14.947 14.947c-1.8 1.413-4.067 2.253-6.533 2.253v0zM24.413 22.533l-14.947-14.947c1.8-1.413 4.067-2.253 6.533-2.253 5.893 0 10.667 4.773 10.667 10.667 0 2.467-0.84 4.733-2.253 6.533v0z"></path>
</svg>
