<!-- Generated by IcoMoon.io -->
<svg version="1.1" xmlns="http://www.w3.org/2000/svg" width="32" height="32" viewBox="0 0 32 32">
<title>mt-dns</title>
<path d="M26.667 17.333h-21.333c-0.733 0-1.333 0.6-1.333 1.333v8c0 0.733 0.6 1.333 1.333 1.333h21.333c0.733 0 1.333-0.6 1.333-1.333v-8c0-0.733-0.6-1.333-1.333-1.333v0zM9.333 25.333c-1.467 0-2.667-1.2-2.667-2.667s1.2-2.667 2.667-2.667c1.467 0 2.667 1.2 2.667 2.667s-1.2 2.667-2.667 2.667v0zM26.667 4h-21.333c-0.733 0-1.333 0.6-1.333 1.333v8c0 0.733 0.6 1.333 1.333 1.333h21.333c0.733 0 1.333-0.6 1.333-1.333v-8c0-0.733-0.6-1.333-1.333-1.333v0zM9.333 12c-1.467 0-2.667-1.2-2.667-2.667s1.2-2.667 2.667-2.667c1.467 0 2.667 1.2 2.667 2.667s-1.2 2.667-2.667 2.667v0z"></path>
</svg>
