<!-- Generated by IcoMoon.io -->
<svg version="1.1" xmlns="http://www.w3.org/2000/svg" width="32" height="32" viewBox="0 0 32 32">
<title>mt-fiber_pin</title>
<path d="M7.333 14h2.667v1.333h-2.667v-1.333zM26.667 5.333h-21.333c-1.48 0-2.653 1.187-2.653 2.667l-0.013 16c0 1.48 1.187 2.667 2.667 2.667h21.333c1.48 0 2.667-1.187 2.667-2.667v-16c0-1.48-1.187-2.667-2.667-2.667v0zM12 15.333c0 1.133-0.867 2-2 2h-2.667v2.667h-2v-8h4.667c1.133 0 2 0.867 2 2v1.333zM16.667 20h-2v-8h2v8zM26.667 20h-1.6l-3.4-4.667v4.667h-1.667v-8h1.667l3.333 4.667v-4.667h1.667v8z"></path>
</svg>
