<!-- Generated by IcoMoon.io -->
<svg version="1.1" xmlns="http://www.w3.org/2000/svg" width="32" height="32" viewBox="0 0 32 32">
<title>mt-fiber_new</title>
<path d="M26.667 5.333h-21.333c-1.48 0-2.653 1.187-2.653 2.667l-0.013 16c0 1.48 1.187 2.667 2.667 2.667h21.333c1.48 0 2.667-1.187 2.667-2.667v-16c0-1.48-1.187-2.667-2.667-2.667v0zM11.333 20h-1.6l-3.4-4.667v4.667h-1.667v-8h1.667l3.333 4.667v-4.667h1.667v8zM18 13.68h-3.333v1.493h3.333v1.68h-3.333v1.48h3.333v1.667h-5.333v-8h5.333v1.68zM27.333 18.667c0 0.733-0.6 1.333-1.333 1.333h-5.333c-0.733 0-1.333-0.6-1.333-1.333v-6.667h1.667v6.013h1.507v-4.693h1.667v4.68h1.493v-6h1.667v6.667z"></path>
</svg>
