<!-- Generated by IcoMoon.io -->
<svg version="1.1" xmlns="http://www.w3.org/2000/svg" width="32" height="32" viewBox="0 0 32 32">
<title>mt-filter_vintage</title>
<path d="M24.933 16.533c-0.373-0.213-0.76-0.387-1.147-0.533 0.387-0.147 0.773-0.32 1.147-0.533 2.56-1.48 3.987-4.16 4-6.92-2.387-1.373-5.427-1.48-8 0-0.373 0.213-0.72 0.467-1.040 0.72 0.067-0.413 0.107-0.84 0.107-1.267 0-2.96-1.613-5.533-4-6.92-2.387 1.387-4 3.96-4 6.92 0 0.427 0.040 0.853 0.107 1.267-0.32-0.267-0.667-0.52-1.040-0.733-2.56-1.48-5.6-1.373-8 0 0 2.76 1.427 5.44 4 6.92 0.373 0.213 0.76 0.387 1.147 0.533-0.387 0.147-0.773 0.32-1.147 0.533-2.56 1.48-3.987 4.16-4 6.92 2.387 1.373 5.427 1.48 8 0 0.373-0.213 0.72-0.467 1.040-0.72-0.067 0.427-0.107 0.853-0.107 1.28 0 2.96 1.613 5.533 4 6.92 2.387-1.387 4-3.96 4-6.92 0-0.427-0.040-0.853-0.107-1.267 0.32 0.267 0.667 0.507 1.040 0.72 2.56 1.48 5.6 1.373 8 0-0.013-2.76-1.44-5.44-4-6.92v0zM16 21.333c-2.947 0-5.333-2.387-5.333-5.333s2.387-5.333 5.333-5.333c2.947 0 5.333 2.387 5.333 5.333s-2.387 5.333-5.333 5.333v0z"></path>
</svg>
