<!-- Generated by IcoMoon.io -->
<svg version="1.1" xmlns="http://www.w3.org/2000/svg" width="32" height="32" viewBox="0 0 32 32">
<title>mt-group_work</title>
<path d="M16 2.667c-7.36 0-13.333 5.973-13.333 13.333s5.973 13.333 13.333 13.333c7.36 0 13.333-5.973 13.333-13.333s-5.973-13.333-13.333-13.333v0zM10.667 23.333c-1.84 0-3.333-1.493-3.333-3.333s1.493-3.333 3.333-3.333c1.84 0 3.333 1.493 3.333 3.333s-1.493 3.333-3.333 3.333v0zM12.667 10.667c0-1.84 1.493-3.333 3.333-3.333s3.333 1.493 3.333 3.333c0 1.84-1.493 3.333-3.333 3.333s-3.333-1.493-3.333-3.333v0zM21.333 23.333c-1.84 0-3.333-1.493-3.333-3.333s1.493-3.333 3.333-3.333c1.84 0 3.333 1.493 3.333 3.333s-1.493 3.333-3.333 3.333v0z"></path>
</svg>
