<!-- Generated by IcoMoon.io -->
<svg version="1.1" xmlns="http://www.w3.org/2000/svg" width="32" height="32" viewBox="0 0 32 32">
<title>mt-gradient</title>
<path d="M14.667 12h2.667v2.667h-2.667v-2.667zM12 14.667h2.667v2.667h-2.667v-2.667zM17.333 14.667h2.667v2.667h-2.667v-2.667zM20 12h2.667v2.667h-2.667v-2.667zM9.333 12h2.667v2.667h-2.667v-2.667zM25.333 4h-18.667c-1.467 0-2.667 1.2-2.667 2.667v18.667c0 1.467 1.2 2.667 2.667 2.667h18.667c1.467 0 2.667-1.2 2.667-2.667v-18.667c0-1.467-1.2-2.667-2.667-2.667v0zM12 24h-2.667v-2.667h2.667v2.667zM17.333 24h-2.667v-2.667h2.667v2.667zM22.667 24h-2.667v-2.667h2.667v2.667zM25.333 14.667h-2.667v2.667h2.667v2.667h-2.667v-2.667h-2.667v2.667h-2.667v-2.667h-2.667v2.667h-2.667v-2.667h-2.667v2.667h-2.667v-2.667h2.667v-2.667h-2.667v-8h18.667v8z"></path>
</svg>
