<!-- Generated by IcoMoon.io -->
<svg version="1.1" xmlns="http://www.w3.org/2000/svg" width="32" height="32" viewBox="0 0 32 32">
<title>mt-hdr_off</title>
<path d="M24.133 19.333v-2.667h1.467l1.2 2.667h2l-1.2-2.8c0.667-0.267 1.2-1.067 1.2-1.867v-1.333c0-1.067-0.933-2-2-2h-4.667v6.533l1.467 1.467h0.533zM24.133 13.333h2.667v1.333h-2.667v-1.333zM18.133 13.333v0.533l2 2v-2.533c0-1.067-0.933-2-2-2h-2.533l2 2h0.533zM13.467 12l-9.333-9.333-1.467 1.333 7.333 7.333h-0.533v2.667h-2.667v-2.667h-2v8h2v-3.333h2.667v3.333h2v-6.533l2 2v4.533h4.533l10.133 10.133 1.467-1.467-16.133-16z"></path>
</svg>
