<!-- Generated by IcoMoon.io -->
<svg version="1.1" xmlns="http://www.w3.org/2000/svg" width="32" height="32" viewBox="0 0 32 32">
<title>mt-invert_colors_off</title>
<path d="M27.533 27.827l-3.133-3.133-8.4-8.387-4.747-4.76-1.893-1.88-3.667-3.667-1.693 1.693 3.707 3.707c-3.4 4.187-3.147 10.347 0.747 14.253 2.080 2.080 4.813 3.12 7.547 3.12 2.387 0 4.76-0.787 6.707-2.373l3.6 3.6 1.693-1.693-0.467-0.48zM16 26.12c-2.133 0-4.147-0.827-5.653-2.347-1.52-1.52-2.347-3.52-2.347-5.653 0-1.76 0.573-3.427 1.613-4.8l6.387 6.373v6.427zM16 6.8v6.107l9.667 9.68c1.827-3.947 1.12-8.76-2.133-12.013l-7.533-7.547-4.933 4.933 1.88 1.88 3.053-3.040z"></path>
</svg>
