<!-- Generated by IcoMoon.io -->
<svg version="1.1" xmlns="http://www.w3.org/2000/svg" width="32" height="32" viewBox="0 0 32 32">
<title>mt-linked_camera</title>
<path d="M20.267 18.666c0 2.356-1.91 4.267-4.267 4.267s-4.267-1.91-4.267-4.267c0-2.356 1.91-4.267 4.267-4.267s4.267 1.91 4.267 4.267z"></path>
<path d="M21.333 4.44c3.44 0 6.227 2.787 6.227 6.227h1.773c0-4.413-3.587-8-8-8v1.773zM21.333 8c1.48 0 2.667 1.187 2.667 2.667h1.773c0-2.453-1.987-4.44-4.44-4.44v1.773z"></path>
<path d="M22.667 12c0-1.48-1.187-2.667-2.667-2.667v-4h-8l-2.44 2.667h-4.227c-1.467 0-2.667 1.2-2.667 2.667v16c0 1.467 1.2 2.667 2.667 2.667h21.333c1.467 0 2.667-1.2 2.667-2.667v-14.667h-6.667zM16 25.333c-3.68 0-6.667-2.987-6.667-6.667s2.987-6.667 6.667-6.667c3.68 0 6.667 2.987 6.667 6.667s-2.987 6.667-6.667 6.667v0z"></path>
</svg>
