<!-- Generated by IcoMoon.io -->
<svg version="1.1" xmlns="http://www.w3.org/2000/svg" width="32" height="32" viewBox="0 0 32 32">
<title>mt-money_off</title>
<path d="M16.667 9.2c2.373 0 3.253 1.133 3.333 2.8h2.947c-0.093-2.293-1.493-4.4-4.28-5.080v-2.92h-4v2.88c-0.707 0.16-1.373 0.4-1.973 0.72l1.96 1.96c0.547-0.227 1.213-0.36 2.013-0.36v0zM7.107 5.413l-1.693 1.693 4.587 4.587c0 2.773 2.080 4.28 5.213 5.213l4.68 4.68c-0.453 0.64-1.4 1.213-3.227 1.213-2.747 0-3.827-1.227-3.973-2.8h-2.933c0.16 2.92 2.347 4.56 4.907 5.107v2.893h4v-2.867c1.28-0.24 2.427-0.733 3.267-1.493l2.96 2.96 1.693-1.693-19.48-19.493z"></path>
</svg>
