<!-- Generated by IcoMoon.io -->
<svg version="1.1" xmlns="http://www.w3.org/2000/svg" width="32" height="32" viewBox="0 0 32 32">
<title>mt-no_encryption</title>
<path d="M28 29.040l-22.373-22.373-1.627 1.627 2.72 2.72c-0.827 0.453-1.387 1.32-1.387 2.32v13.333c0 1.467 1.2 2.667 2.667 2.667h16c0.307 0 0.6-0.067 0.88-0.16l1.493 1.493 1.627-1.627zM11.867 8c0-2.28 1.853-4.133 4.133-4.133s4.133 1.853 4.133 4.133v2.667h-7.253l13.787 13.787v-11.12c0-1.467-1.2-2.667-2.667-2.667h-1.333v-2.667c0-3.68-2.987-6.667-6.667-6.667-3.413 0-6.187 2.573-6.587 5.867l2.453 2.453v-1.653z"></path>
</svg>
