<!-- Generated by IcoMoon.io -->
<svg version="1.1" xmlns="http://www.w3.org/2000/svg" width="32" height="32" viewBox="0 0 32 32">
<title>mt-perm_contact_calendar</title>
<path d="M25.333 4h-1.333v-2.667h-2.667v2.667h-10.667v-2.667h-2.667v2.667h-1.333c-1.48 0-2.667 1.2-2.667 2.667v18.667c0 1.467 1.187 2.667 2.667 2.667h18.667c1.467 0 2.667-1.2 2.667-2.667v-18.667c0-1.467-1.2-2.667-2.667-2.667v0zM16 8c2.213 0 4 1.787 4 4s-1.787 4-4 4c-2.213 0-4-1.787-4-4s1.787-4 4-4v0zM24 24h-16v-1.333c0-2.667 5.333-4.133 8-4.133s8 1.467 8 4.133v1.333z"></path>
</svg>
