<!-- Generated by IcoMoon.io -->
<svg version="1.1" xmlns="http://www.w3.org/2000/svg" width="32" height="32" viewBox="0 0 32 32">
<title>mt-phonelink_setup</title>
<path d="M15.733 16.667v-1.333l1.467-1.067c0.133-0.133 0.133-0.267 0.133-0.4l-1.333-2.267c-0.133-0.133-0.267-0.267-0.4-0.133l-1.733 0.533c-0.4-0.267-0.8-0.533-1.2-0.667l-0.267-1.733c0-0.133-0.133-0.267-0.4-0.267h-2.667c-0.133 0-0.267 0.133-0.4 0.267l-0.267 1.733c-0.4 0.133-0.8 0.4-1.2 0.667l-1.733-0.667c-0.133 0-0.267 0-0.4 0.133l-1.333 2.267c-0.133 0.133 0 0.267 0.133 0.4l1.467 1.067v1.333l-1.467 1.067c-0.133 0.267-0.133 0.4-0.133 0.533l1.333 2.267c0.133 0.133 0.267 0.267 0.4 0.133l1.867-0.533c0.4 0.267 0.8 0.533 1.2 0.667l0.267 1.733c-0.133 0.133 0.133 0.267 0.267 0.267h2.667c0.133 0 0.267-0.133 0.4-0.267l0.267-1.733c0.4-0.133 0.8-0.4 1.2-0.667l1.733 0.667c0.133 0 0.267 0 0.4-0.133l1.333-2.267c0.133-0.133 0-0.267-0.133-0.4l-1.467-1.2zM10.667 18.667c-1.467 0-2.667-1.2-2.667-2.667s1.2-2.667 2.667-2.667c1.467 0 2.667 1.2 2.667 2.667s-1.2 2.667-2.667 2.667v0zM25.333 1.333h-13.333c-1.467 0-2.667 1.2-2.667 2.667v4h2.667v-2.667h13.333v21.333h-13.333v-2.667h-2.667v4c0 1.467 1.2 2.667 2.667 2.667h13.333c1.467 0 2.667-1.2 2.667-2.667v-24c0-1.467-1.2-2.667-2.667-2.667v0z"></path>
</svg>
