<!-- Generated by IcoMoon.io -->
<svg version="1.1" xmlns="http://www.w3.org/2000/svg" width="32" height="32" viewBox="0 0 32 32">
<title>mt-perm_camera_mic</title>
<path d="M26.667 6.667h-4.227l-2.44-2.667h-8l-2.44 2.667h-4.227c-1.467 0-2.667 1.2-2.667 2.667v16c0 1.467 1.2 2.667 2.667 2.667h9.333v-2.787c-3.773-0.64-6.667-3.92-6.667-7.88h2.667c0 2.947 2.387 5.333 5.333 5.333s5.333-2.387 5.333-5.333h2.667c0 3.96-2.893 7.24-6.667 7.88v2.787h9.333c1.467 0 2.667-1.2 2.667-2.667v-16c0-1.467-1.2-2.667-2.667-2.667v0zM18.667 17.333c0 1.467-1.2 2.667-2.667 2.667s-2.667-1.2-2.667-2.667v-5.333c0-1.467 1.2-2.667 2.667-2.667s2.667 1.2 2.667 2.667v5.333z"></path>
</svg>
