<!-- Generated by IcoMoon.io -->
<svg version="1.1" xmlns="http://www.w3.org/2000/svg" width="32" height="32" viewBox="0 0 32 32">
<title>mt-pets</title>
<path d="M9.333 12.667c0 1.841-1.492 3.333-3.333 3.333s-3.333-1.492-3.333-3.333c0-1.841 1.492-3.333 3.333-3.333s3.333 1.492 3.333 3.333z"></path>
<path d="M15.333 7.333c0 1.841-1.492 3.333-3.333 3.333s-3.333-1.492-3.333-3.333c0-1.841 1.492-3.333 3.333-3.333s3.333 1.492 3.333 3.333z"></path>
<path d="M23.333 7.333c0 1.841-1.492 3.333-3.333 3.333s-3.333-1.492-3.333-3.333c0-1.841 1.492-3.333 3.333-3.333s3.333 1.492 3.333 3.333z"></path>
<path d="M29.333 12.667c0 1.841-1.492 3.333-3.333 3.333s-3.333-1.492-3.333-3.333c0-1.841 1.492-3.333 3.333-3.333s3.333 1.492 3.333 3.333z"></path>
<path d="M23.12 19.813c-1.16-1.36-2.133-2.52-3.307-3.88-0.613-0.72-1.4-1.44-2.333-1.76-0.147-0.053-0.293-0.093-0.44-0.12-0.333-0.053-0.693-0.053-1.040-0.053s-0.707 0-1.053 0.067c-0.147 0.027-0.293 0.067-0.44 0.12-0.933 0.32-1.707 1.040-2.333 1.76-1.16 1.36-2.133 2.52-3.307 3.88-1.747 1.747-3.893 3.68-3.493 6.387 0.387 1.36 1.36 2.707 3.107 3.093 0.973 0.2 4.080-0.587 7.387-0.587h0.24c3.307 0 6.413 0.773 7.387 0.587 1.747-0.387 2.72-1.747 3.107-3.093 0.413-2.72-1.733-4.653-3.48-6.4v0z"></path>
</svg>
