<!-- Generated by IcoMoon.io -->
<svg version="1.1" xmlns="http://www.w3.org/2000/svg" width="32" height="32" viewBox="0 0 32 32">
<title>mt-people_outline</title>
<path d="M22 17.333c-1.6 0-4.093 0.453-6 1.333-1.907-0.893-4.4-1.333-6-1.333-2.893 0-8.667 1.44-8.667 4.333v3.667h29.333v-3.667c0-2.893-5.773-4.333-8.667-4.333v0zM16.667 23.333h-13.333v-1.667c0-0.72 3.413-2.333 6.667-2.333s6.667 1.613 6.667 2.333v1.667zM28.667 23.333h-10v-1.667c0-0.613-0.267-1.147-0.693-1.627 1.173-0.4 2.613-0.707 4.027-0.707 3.253 0 6.667 1.613 6.667 2.333v1.667zM10 16c2.573 0 4.667-2.093 4.667-4.667s-2.093-4.667-4.667-4.667c-2.573 0-4.667 2.093-4.667 4.667s2.093 4.667 4.667 4.667v0zM10 8.667c1.467 0 2.667 1.2 2.667 2.667s-1.2 2.667-2.667 2.667c-1.467 0-2.667-1.2-2.667-2.667s1.2-2.667 2.667-2.667v0zM22 16c2.573 0 4.667-2.093 4.667-4.667s-2.093-4.667-4.667-4.667c-2.573 0-4.667 2.093-4.667 4.667s2.093 4.667 4.667 4.667v0zM22 8.667c1.467 0 2.667 1.2 2.667 2.667s-1.2 2.667-2.667 2.667c-1.467 0-2.667-1.2-2.667-2.667s1.2-2.667 2.667-2.667v0z"></path>
</svg>
