<!-- Generated by IcoMoon.io -->
<svg version="1.1" xmlns="http://www.w3.org/2000/svg" width="32" height="32" viewBox="0 0 32 32">
<title>mt-recent_actors</title>
<path d="M28 6.667v18.667h2.667v-18.667h-2.667zM22.667 25.333h2.667v-18.667h-2.667v18.667zM18.667 6.667h-16c-0.733 0-1.333 0.6-1.333 1.333v16c0 0.733 0.6 1.333 1.333 1.333h16c0.733 0 1.333-0.6 1.333-1.333v-16c0-0.733-0.6-1.333-1.333-1.333v0zM10.667 10.333c1.653 0 3 1.347 3 3s-1.347 3-3 3c-1.653 0-3-1.347-3-3s1.347-3 3-3v0zM16.667 22.667h-12v-1c0-2 4-3 6-3s6 1 6 3v1z"></path>
</svg>
