<!-- Generated by IcoMoon.io -->
<svg version="1.1" xmlns="http://www.w3.org/2000/svg" width="32" height="32" viewBox="0 0 32 32">
<title>mt-router</title>
<path d="M26.933 7.867l1.067-1.067c-1.867-1.867-4.267-2.8-6.667-2.8s-4.8 0.933-6.667 2.8l1.067 1.067c1.6-1.467 3.6-2.267 5.6-2.267s4 0.8 5.6 2.267v0zM25.733 8.933c-1.2-1.2-2.8-1.867-4.4-1.867s-3.2 0.667-4.4 1.867l1.067 1.067c0.933-0.933 2.133-1.333 3.333-1.333s2.4 0.4 3.333 1.333l1.067-1.067zM25.333 17.333h-2.667v-5.333h-2.667v5.333h-13.333c-1.467 0-2.667 1.2-2.667 2.667v5.333c0 1.467 1.2 2.667 2.667 2.667h18.667c1.467 0 2.667-1.2 2.667-2.667v-5.333c0-1.467-1.2-2.667-2.667-2.667v0zM10.667 24h-2.667v-2.667h2.667v2.667zM15.333 24h-2.667v-2.667h2.667v2.667zM20 24h-2.667v-2.667h2.667v2.667z"></path>
</svg>
