<!-- Generated by IcoMoon.io -->
<svg version="1.1" xmlns="http://www.w3.org/2000/svg" width="32" height="32" viewBox="0 0 32 32">
<title>mt-rotate_90_degrees_ccw</title>
<path d="M9.787 8.546l-8.64 8.653 8.653 8.64 8.653-8.64-8.667-8.653zM4.92 17.2l4.88-4.88 4.867 4.88-4.88 4.88-4.867-4.88zM25.813 8.853c-2.333-2.347-5.413-3.52-8.48-3.52v-4.32l-5.653 5.653 5.653 5.653v-4.32c2.387 0 4.773 0.907 6.6 2.733 3.64 3.64 3.64 9.56 0 13.2-1.827 1.827-4.213 2.733-6.6 2.733-1.293 0-2.587-0.28-3.787-0.813l-1.987 1.987c1.8 0.987 3.787 1.493 5.773 1.493 3.067 0 6.147-1.173 8.48-3.52 4.693-4.68 4.693-12.28 0-16.96v0z"></path>
</svg>
