<!-- Generated by IcoMoon.io -->
<svg version="1.1" xmlns="http://www.w3.org/2000/svg" width="32" height="32" viewBox="0 0 32 32">
<title>mt-settings_bluetooth</title>
<path d="M14.667 32h2.667v-2.667h-2.667v2.667zM9.333 32h2.667v-2.667h-2.667v2.667zM20 32h2.667v-2.667h-2.667v2.667zM23.613 7.613l-7.613-7.613h-1.333v10.12l-6.12-6.12-1.88 1.88 7.453 7.453-7.453 7.453 1.88 1.88 6.12-6.12v10.12h1.333l7.613-7.613-5.733-5.72 5.733-5.72zM17.333 5.107l2.507 2.507-2.507 2.507v-5.013zM19.84 19.053l-2.507 2.507v-5.013l2.507 2.507z"></path>
</svg>
