<!-- Generated by IcoMoon.io -->
<svg version="1.1" xmlns="http://www.w3.org/2000/svg" width="32" height="32" viewBox="0 0 32 32">
<title>mt-speaker_phone</title>
<path d="M9.333 9.427l1.907 1.907c1.213-1.213 2.907-1.973 4.76-1.973s3.547 0.76 4.76 1.973l1.907-1.907c-1.707-1.707-4.067-2.76-6.667-2.76s-4.96 1.053-6.667 2.76v0zM16 1.333c-4.027 0-7.68 1.64-10.333 4.28l1.88 1.88c2.16-2.16 5.16-3.493 8.453-3.493s6.293 1.333 8.453 3.493l1.88-1.88c-2.653-2.64-6.307-4.28-10.333-4.28v0zM19.813 13.347l-7.627-0.013c-0.84 0-1.52 0.68-1.52 1.52v12.947c0 0.84 0.68 1.52 1.52 1.52h7.613c0.84 0 1.52-0.68 1.52-1.52v-12.947c0.013-0.84-0.667-1.507-1.507-1.507v0zM20 26.667h-8v-10.667h8v10.667z"></path>
</svg>
