<!-- Generated by IcoMoon.io -->
<svg version="1.1" xmlns="http://www.w3.org/2000/svg" width="32" height="32" viewBox="0 0 32 32">
<title>mt-screen_lock_portrait</title>
<path d="M13.333 21.333h5.333c0.733 0 1.333-0.6 1.333-1.333v-4c0-0.733-0.6-1.333-1.333-1.333v-1.333c0-1.48-1.2-2.667-2.667-2.667-1.48 0-2.667 1.2-2.667 2.667v1.333c-0.733 0-1.333 0.6-1.333 1.333v4c0 0.733 0.6 1.333 1.333 1.333v0zM14.4 13.333c0-0.88 0.72-1.6 1.6-1.6s1.6 0.72 1.6 1.6v1.333h-3.2v-1.333zM22.667 1.333h-13.333c-1.467 0-2.667 1.2-2.667 2.667v24c0 1.467 1.2 2.667 2.667 2.667h13.333c1.467 0 2.667-1.2 2.667-2.667v-24c0-1.467-1.2-2.667-2.667-2.667v0zM22.667 25.333h-13.333v-18.667h13.333v18.667z"></path>
</svg>
