<!-- Generated by IcoMoon.io -->
<svg version="1.1" xmlns="http://www.w3.org/2000/svg" width="32" height="32" viewBox="0 0 32 32">
<title>mt-screen_rotation</title>
<path d="M21.973 3.36c4.36 2.067 7.48 6.293 7.96 11.307h2c-0.68-8.213-7.547-14.667-15.933-14.667l-0.88 0.040 5.080 5.080 1.773-1.76zM13.64 2.333c-0.787-0.787-2.053-0.787-2.827 0l-8.48 8.48c-0.787 0.787-0.787 2.053 0 2.827l16.027 16.027c0.787 0.787 2.053 0.787 2.827 0l8.48-8.48c0.787-0.787 0.787-2.053 0-2.827l-16.027-16.027zM19.773 28.253l-16.027-16.027 8.48-8.48 16.027 16.027-8.48 8.48zM10.027 28.64c-4.36-2.053-7.48-6.293-7.96-11.307h-2c0.68 8.213 7.547 14.667 15.933 14.667l0.88-0.040-5.080-5.080-1.773 1.76z"></path>
</svg>
