<!-- Generated by IcoMoon.io -->
<svg version="1.1" xmlns="http://www.w3.org/2000/svg" width="32" height="32" viewBox="0 0 32 32">
<title>mt-strikethrough_s</title>
<path d="M9.653 11.667c-0.347-0.64-0.52-1.373-0.52-2.227 0-0.813 0.173-1.547 0.533-2.227 0.347-0.667 0.84-1.24 1.48-1.72 0.64-0.467 1.4-0.84 2.267-1.107 0.88-0.253 1.853-0.387 2.907-0.387 1.080 0 2.053 0.147 2.947 0.453 0.88 0.293 1.64 0.72 2.253 1.253 0.627 0.533 1.107 1.173 1.44 1.907s0.507 1.533 0.507 2.413h-4.013c0-0.413-0.067-0.787-0.2-1.133-0.12-0.36-0.32-0.653-0.587-0.907s-0.6-0.44-1-0.587c-0.4-0.133-0.88-0.213-1.413-0.213-0.52 0-0.987 0.053-1.373 0.173s-0.707 0.28-0.96 0.48c-0.253 0.213-0.453 0.453-0.587 0.733s-0.2 0.573-0.2 0.88c0 0.64 0.333 1.173 0.987 1.613 0.507 0.333 1.027 0.64 1.88 0.933h-6.147c-0.067-0.107-0.147-0.227-0.2-0.333v0zM28 16v-2.667h-24v2.667h12.827c0.24 0.093 0.533 0.187 0.733 0.267 0.493 0.227 0.88 0.453 1.16 0.68s0.467 0.48 0.573 0.76c0.093 0.267 0.147 0.573 0.147 0.92 0 0.307-0.067 0.6-0.187 0.88-0.12 0.267-0.307 0.507-0.56 0.707s-0.56 0.347-0.947 0.467c-0.387 0.107-0.84 0.173-1.347 0.173-0.573 0-1.107-0.053-1.573-0.173s-0.88-0.307-1.213-0.56c-0.333-0.253-0.6-0.587-0.787-1s-0.333-1.013-0.333-1.613h-3.96c0 0.733 0.107 1.507 0.32 2.107s0.493 1.133 0.867 1.613c0.373 0.467 0.8 0.88 1.307 1.227 0.493 0.347 1.040 0.64 1.627 0.867s1.2 0.4 1.84 0.52c0.64 0.107 1.28 0.173 1.92 0.173 1.067 0 2.040-0.12 2.907-0.373s1.613-0.6 2.227-1.053c0.613-0.453 1.093-1.027 1.427-1.693s0.507-1.427 0.507-2.28c0-0.8-0.133-1.52-0.413-2.147-0.067-0.147-0.147-0.307-0.227-0.44h5.16v-0.027z"></path>
</svg>
