<!-- Generated by IcoMoon.io -->
<svg version="1.1" xmlns="http://www.w3.org/2000/svg" width="32" height="32" viewBox="0 0 32 32">
<title>mt-settings_applications</title>
<path d="M16 13.333c-1.467 0-2.667 1.2-2.667 2.667s1.2 2.667 2.667 2.667c1.467 0 2.667-1.2 2.667-2.667s-1.2-2.667-2.667-2.667v0zM25.333 4h-18.667c-1.48 0-2.667 1.2-2.667 2.667v18.667c0 1.467 1.187 2.667 2.667 2.667h18.667c1.48 0 2.667-1.2 2.667-2.667v-18.667c0-1.467-1.187-2.667-2.667-2.667v0zM23 16c0 0.307-0.027 0.613-0.067 0.907l1.973 1.547c0.173 0.147 0.227 0.4 0.107 0.6l-1.867 3.227c-0.12 0.2-0.36 0.28-0.573 0.2l-2.32-0.933c-0.48 0.373-1.013 0.68-1.573 0.92l-0.347 2.467c-0.040 0.227-0.24 0.4-0.467 0.4h-3.733c-0.227 0-0.427-0.173-0.467-0.387l-0.347-2.467c-0.573-0.24-1.093-0.547-1.573-0.92l-2.32 0.933c-0.213 0.080-0.453 0-0.573-0.2l-1.867-3.227c-0.12-0.2-0.067-0.453 0.107-0.6l1.973-1.547c-0.040-0.307-0.067-0.613-0.067-0.92s0.027-0.613 0.067-0.907l-1.973-1.547c-0.173-0.147-0.227-0.4-0.107-0.6l1.867-3.227c0.12-0.2 0.36-0.28 0.573-0.2l2.32 0.933c0.48-0.373 1.013-0.68 1.573-0.92l0.347-2.467c0.040-0.227 0.24-0.4 0.467-0.4h3.733c0.227 0 0.427 0.173 0.467 0.387l0.347 2.467c0.573 0.24 1.093 0.547 1.573 0.92l2.32-0.933c0.213-0.080 0.453 0 0.573 0.2l1.867 3.227c0.12 0.2 0.067 0.453-0.107 0.6l-1.973 1.547c0.040 0.307 0.067 0.613 0.067 0.92v0z"></path>
</svg>
