<!-- Generated by IcoMoon.io -->
<svg version="1.1" xmlns="http://www.w3.org/2000/svg" width="32" height="32" viewBox="0 0 32 32">
<title>mt-wb_incandescent</title>
<path d="M4.733 24.72l1.88 1.88 2.387-2.4-1.88-1.88-2.387 2.4zM14.667 29.933h2.667v-3.933h-2.667v3.933zM5.333 14h-4v2.667h4v-2.667zM20 8.413v-6.413h-8v6.413c-2.387 1.387-4 3.96-4 6.92 0 4.413 3.587 8 8 8s8-3.587 8-8c0-2.96-1.613-5.533-4-6.92v0zM26.667 14v2.667h4v-2.667h-4zM22.987 24.213l2.387 2.4 1.88-1.88-2.4-2.387-1.867 1.867z"></path>
</svg>
