<!-- Generated by IcoMoon.io -->
<svg version="1.1" xmlns="http://www.w3.org/2000/svg" width="32" height="32" viewBox="0 0 32 32">
<title>ul-angle-double-right</title>
<path d="M11.28 11.053c-0.247-0.254-0.592-0.411-0.973-0.411-0.75 0-1.358 0.608-1.358 1.358 0 0.368 0.147 0.702 0.385 0.947l-0-0 3.12 3.053-3.12 3.053c-0.244 0.242-0.394 0.577-0.394 0.947s0.151 0.705 0.394 0.947l0 0c0.242 0.244 0.577 0.394 0.947 0.394s0.705-0.151 0.947-0.394l4-4c0.244-0.242 0.394-0.577 0.394-0.947s-0.151-0.705-0.394-0.947l-0-0zM22.613 15.053l-4-4c-0.242-0.242-0.577-0.392-0.947-0.392-0.739 0-1.339 0.599-1.339 1.339 0 0.37 0.15 0.704 0.392 0.947v0l3.067 3.053-3.067 3.053c-0.244 0.242-0.394 0.577-0.394 0.947s0.151 0.705 0.394 0.947l0 0c0.242 0.244 0.577 0.394 0.947 0.394s0.705-0.151 0.947-0.394l4-4c0.26-0.244 0.422-0.59 0.422-0.973 0-0.357-0.14-0.681-0.369-0.921l0 0.001z"></path>
</svg>
