<!-- Generated by IcoMoon.io -->
<svg version="1.1" xmlns="http://www.w3.org/2000/svg" width="32" height="32" viewBox="0 0 32 32">
<title>ul-analytics</title>
<path d="M6.667 16c-0.736 0-1.333 0.597-1.333 1.333v0 10.667c0 0.736 0.597 1.333 1.333 1.333s1.333-0.597 1.333-1.333v0-10.667c0-0.736-0.597-1.333-1.333-1.333v0zM13.333 2.667c-0.736 0-1.333 0.597-1.333 1.333v0 24c0 0.736 0.597 1.333 1.333 1.333s1.333-0.597 1.333-1.333v0-24c0-0.736-0.597-1.333-1.333-1.333v0zM26.667 21.333c-0.736 0-1.333 0.597-1.333 1.333v0 5.333c0 0.736 0.597 1.333 1.333 1.333s1.333-0.597 1.333-1.333v0-5.333c0-0.736-0.597-1.333-1.333-1.333v0zM20 10.667c-0.736 0-1.333 0.597-1.333 1.333v0 16c0 0.736 0.597 1.333 1.333 1.333s1.333-0.597 1.333-1.333v0-16c0-0.736-0.597-1.333-1.333-1.333v0z"></path>
</svg>
