<!-- Generated by IcoMoon.io -->
<svg version="1.1" xmlns="http://www.w3.org/2000/svg" width="32" height="32" viewBox="0 0 32 32">
<title>ul-browser</title>
<path d="M25.333 2.667h-13.333c-2.209 0-4 1.791-4 4v0 1.333h-1.333c-2.209 0-4 1.791-4 4v0 13.333c0 2.209 1.791 4 4 4v0h13.333c2.209 0 4-1.791 4-4v0-1.333h1.333c2.209 0 4-1.791 4-4v0-13.333c0-2.209-1.791-4-4-4v0zM21.333 25.333c0 0.736-0.597 1.333-1.333 1.333v0h-13.333c-0.736 0-1.333-0.597-1.333-1.333v0-9.333h16zM21.333 13.333h-16v-1.333c0-0.736 0.597-1.333 1.333-1.333v0h13.333c0.736 0 1.333 0.597 1.333 1.333v0zM26.667 20c0 0.736-0.597 1.333-1.333 1.333v0h-1.333v-9.333c-0.004-0.479-0.092-0.937-0.249-1.361l0.009 0.028h2.907zM26.667 8h-16v-1.333c0-0.736 0.597-1.333 1.333-1.333v0h13.333c0.736 0 1.333 0.597 1.333 1.333v0z"></path>
</svg>
