<!-- Generated by IcoMoon.io -->
<svg version="1.1" xmlns="http://www.w3.org/2000/svg" width="32" height="32" viewBox="0 0 32 32">
<title>ul-bath</title>
<path d="M29.333 16h-22.667v-7.453c-0-0.008-0-0.017-0-0.026 0-0.998 0.555-1.866 1.373-2.313l0.014-0.007c0.366-0.202 0.803-0.321 1.267-0.321 0.093 0 0.184 0.005 0.274 0.014l-0.011-0.001c-0.149 0.436-0.235 0.938-0.235 1.46 0 1.28 0.516 2.439 1.352 3.28l1.414 1.414c0.241 0.241 0.575 0.391 0.943 0.391s0.701-0.149 0.943-0.391l4.714-4.714c0.241-0.241 0.391-0.575 0.391-0.943s-0.149-0.701-0.391-0.943l-1.414-1.414c-0.842-0.839-2.004-1.357-3.287-1.357-1.036 0-1.992 0.338-2.766 0.909l0.013-0.009c-0.574-0.231-1.24-0.365-1.937-0.365-2.94 0-5.323 2.383-5.323 5.323 0 0.004 0 0.008 0 0.012v-0.001 7.453h-1.333c-0.736 0-1.333 0.597-1.333 1.333s0.597 1.333 1.333 1.333v0h1.333v4c0.005 1.725 1.104 3.192 2.639 3.745l0.028 0.009v1.579c0 0.736 0.597 1.333 1.333 1.333s1.333-0.597 1.333-1.333v0-1.333h13.333v1.333c0 0.736 0.597 1.333 1.333 1.333s1.333-0.597 1.333-1.333v0-1.579c1.563-0.562 2.661-2.029 2.667-3.754v-4.001h1.333c0.736 0 1.333-0.597 1.333-1.333s-0.597-1.333-1.333-1.333v0zM12.586 5.919c0.362-0.361 0.862-0.585 1.414-0.585s1.052 0.223 1.414 0.585l0.471 0.471-2.828 2.828-0.471-0.471c-0.361-0.362-0.585-0.862-0.585-1.414s0.223-1.052 0.585-1.414l-0 0zM25.333 22.667c-0 0.736-0.597 1.333-1.333 1.333h-16c-0.736-0-1.333-0.597-1.333-1.333v-4h18.667z"></path>
</svg>
