<!-- Generated by IcoMoon.io -->
<svg version="1.1" xmlns="http://www.w3.org/2000/svg" width="32" height="32" viewBox="0 0 32 32">
<title>ul-bug</title>
<path d="M25.333 18.667h2.667c0.736 0 1.333-0.597 1.333-1.333s-0.597-1.333-1.333-1.333v0h-2.667v-1.333c-0.013-0.651-0.114-1.273-0.293-1.862l0.013 0.049c2.513-0.983 4.263-3.378 4.28-6.185v-0.002c0-0.736-0.597-1.333-1.333-1.333s-1.333 0.597-1.333 1.333v0c-0.003 1.798-1.191 3.318-2.825 3.819l-0.028 0.007c-0.654-0.833-1.485-1.498-2.439-1.943l-0.041-0.017c0.007-0.080 0.010-0.173 0.010-0.267s-0.004-0.187-0.011-0.279l0.001 0.012c0-2.946-2.388-5.333-5.333-5.333s-5.333 2.388-5.333 5.333v0c-0.007 0.080-0.010 0.173-0.010 0.267s0.004 0.187 0.011 0.279l-0.001-0.012c-1.016 0.456-1.865 1.121-2.523 1.947l-0.010 0.014c-1.637-0.526-2.8-2.035-2.8-3.816 0-0.004 0-0.008 0-0.011v0.001c0-0.736-0.597-1.333-1.333-1.333s-1.333 0.597-1.333 1.333v0c0.017 2.809 1.767 5.204 4.235 6.171l0.045 0.016c-0.166 0.54-0.267 1.162-0.28 1.806l-0 0.007v1.333h-2.667c-0.736 0-1.333 0.597-1.333 1.333s0.597 1.333 1.333 1.333v0h2.667v1.333c0.001 0.652 0.069 1.287 0.197 1.901l-0.011-0.061c-2.466 1.008-4.175 3.383-4.187 6.158v0.002c0 0.736 0.597 1.333 1.333 1.333s1.333-0.597 1.333-1.333v0c0.008-1.628 0.987-3.026 2.388-3.643l0.026-0.010c1.598 2.982 4.693 4.975 8.253 4.975s6.655-1.994 8.229-4.925l0.024-0.050c1.426 0.628 2.406 2.025 2.413 3.652v0.001c0 0.736 0.597 1.333 1.333 1.333s1.333-0.597 1.333-1.333v0c-0.012-2.777-1.721-5.152-4.142-6.144l-0.044-0.016c0.117-0.553 0.185-1.188 0.187-1.839v-0.001zM14.667 26.533c-3.065-0.642-5.333-3.322-5.333-6.532 0-0 0-0.001 0-0.001v0-5.333c0-2.209 1.791-4 4-4v0h1.333zM13.333 8c0-1.473 1.194-2.667 2.667-2.667s2.667 1.194 2.667 2.667v0zM22.667 20c0 0 0 0.001 0 0.001 0 3.21-2.269 5.89-5.29 6.524l-0.043 0.008v-15.867h1.333c2.209 0 4 1.791 4 4v0z"></path>
</svg>
