<!-- Generated by IcoMoon.io -->
<svg version="1.1" xmlns="http://www.w3.org/2000/svg" width="32" height="32" viewBox="0 0 32 32">
<title>ul-bitcoin-sign</title>
<path d="M25.333 12c0-2.946-2.388-5.333-5.333-5.333v0-2.667c0-0.736-0.597-1.333-1.333-1.333s-1.333 0.597-1.333 1.333v0 2.667h-2.667v-2.667c0-0.736-0.597-1.333-1.333-1.333s-1.333 0.597-1.333 1.333v0 2.667h-4c-0.736 0-1.333 0.597-1.333 1.333s0.597 1.333 1.333 1.333v0h1.333v13.333h-1.333c-0.736 0-1.333 0.597-1.333 1.333s0.597 1.333 1.333 1.333v0h4v2.667c0 0.736 0.597 1.333 1.333 1.333s1.333-0.597 1.333-1.333v0-2.667h2.667v2.667c0 0.736 0.597 1.333 1.333 1.333s1.333-0.597 1.333-1.333v0-2.667c2.931-0.019 5.299-2.4 5.299-5.333 0-1.59-0.696-3.018-1.8-3.995l-0.006-0.005c1.123-0.977 1.831-2.405 1.84-3.998v-0.002zM20 22.667h-8v-5.333h8c1.473 0 2.667 1.194 2.667 2.667s-1.194 2.667-2.667 2.667v0zM20 14.667h-8v-5.333h8c1.473 0 2.667 1.194 2.667 2.667s-1.194 2.667-2.667 2.667v0z"></path>
</svg>
