<!-- Generated by IcoMoon.io -->
<svg version="1.1" xmlns="http://www.w3.org/2000/svg" width="32" height="32" viewBox="0 0 32 32">
<title>ul-css3-simple</title>
<path d="M27.696 4.486c-0.246-0.298-0.616-0.486-1.029-0.486h-18.667c-0.736 0-1.333 0.597-1.333 1.333s0.597 1.333 1.333 1.333v0h17.048l-1.041 5.333h-17.34c-0.736 0-1.333 0.597-1.333 1.333s0.597 1.333 1.333 1.333v0h16.82l-1.55 7.94-8.431 2.662-7.214-2.266 0.271-1.42c0.015-0.075 0.024-0.162 0.024-0.25 0-0.736-0.597-1.334-1.334-1.334-0.648 0-1.188 0.462-1.308 1.075l-0.001 0.008-0.494 2.587c-0.015 0.075-0.024 0.161-0.024 0.249 0 0.594 0.388 1.097 0.924 1.27l0.009 0.003 8.747 2.747c0.119 0.039 0.257 0.061 0.4 0.061s0.282-0.023 0.411-0.064l-0.009 0.003 9.587-3.027c0.463-0.15 0.81-0.533 0.905-1.008l0.001-0.009 3.574-18.307c0.016-0.077 0.025-0.165 0.025-0.255 0-0.323-0.115-0.619-0.306-0.85l0.002 0.002z"></path>
</svg>
