<!-- Generated by IcoMoon.io -->
<svg version="1.1" xmlns="http://www.w3.org/2000/svg" width="32" height="32" viewBox="0 0 32 32">
<title>ul-cloud-sun-meatball</title>
<path d="M16.667 22.56h-1.027l0.52-0.893c0.112-0.191 0.178-0.421 0.178-0.667 0-0.739-0.599-1.338-1.338-1.338-0.494 0-0.925 0.267-1.157 0.665l-0.003 0.006-0.507 0.893-0.507-0.893c-0.235-0.404-0.666-0.671-1.16-0.671-0.739 0-1.338 0.599-1.338 1.338 0 0.245 0.066 0.475 0.181 0.673l-0.003-0.006 0.52 0.893h-1.027c-0.736 0-1.333 0.597-1.333 1.333s0.597 1.333 1.333 1.333v0h1.027l-0.52 0.88c-0.112 0.191-0.178 0.421-0.178 0.667 0 0.739 0.599 1.338 1.338 1.338 0.494 0 0.925-0.267 1.157-0.665l0.003-0.006 0.507-0.88 0.507 0.88c0.235 0.404 0.666 0.671 1.16 0.671 0.739 0 1.338-0.599 1.338-1.338 0-0.245-0.066-0.475-0.181-0.673l0.003 0.006-0.52-0.88h1.027c0.736 0 1.333-0.597 1.333-1.333s-0.597-1.333-1.333-1.333v0zM28 10.56h-1.067c-0.15-0.641-0.389-1.206-0.707-1.717l0.014 0.024 0.747-0.747c0.199-0.232 0.321-0.535 0.321-0.867 0-0.736-0.597-1.333-1.333-1.333-0.332 0-0.636 0.121-0.869 0.322l0.002-0.001-0.747 0.747c-0.487-0.304-1.052-0.543-1.655-0.686l-0.038-0.008v-1.067c0-0.736-0.597-1.333-1.333-1.333s-1.333 0.597-1.333 1.333v0 1.067c-0.636 0.148-1.197 0.387-1.702 0.707l0.022-0.013-0.76-0.747c-0.232-0.199-0.535-0.321-0.867-0.321-0.736 0-1.333 0.597-1.333 1.333 0 0.332 0.121 0.636 0.322 0.869l-0.001-0.002 0.747 0.747c-0.12 0.213-0.213 0.44-0.32 0.653-0.631-0.185-1.356-0.292-2.106-0.293h-0.001c-0.004 0-0.009 0-0.015 0-3.985 0-7.29 2.914-7.899 6.728l-0.006 0.046c-1.986 0.576-3.414 2.379-3.414 4.515 0 0.016 0 0.031 0 0.047l-0-0.002c0.001 1.52 0.735 2.869 1.868 3.711l0.012 0.009c0.229 0.192 0.528 0.309 0.854 0.309 0.736 0 1.333-0.597 1.333-1.333 0-0.469-0.242-0.882-0.608-1.119l-0.005-0.003c-0.48-0.359-0.787-0.925-0.787-1.563 0-0.004 0-0.007 0-0.011v0.001c0-1.105 0.895-2 2-2v0c0.736 0 1.333-0.597 1.333-1.333v0c0.014-2.935 2.396-5.309 5.333-5.309 2.321 0 4.295 1.482 5.029 3.552l0.012 0.037c0.161 0.458 0.553 0.796 1.032 0.879l0.008 0.001c1.485 0.252 2.601 1.528 2.601 3.065 0 1.273-0.765 2.367-1.861 2.847l-0.020 0.008c-0.478 0.21-0.806 0.679-0.806 1.224 0 0.194 0.041 0.378 0.116 0.544l-0.003-0.008c0.211 0.475 0.679 0.8 1.222 0.8 0.002 0 0.003 0 0.005 0h-0c0 0 0.001 0 0.001 0 0.193 0 0.376-0.044 0.54-0.123l-0.007 0.003c2.058-0.913 3.467-2.938 3.467-5.293 0-0.014-0-0.029-0-0.043v0.002c-0.003-0.75-0.15-1.464-0.414-2.118l0.014 0.038 0.173 0.173c0.24 0.238 0.569 0.385 0.933 0.387h0c0.002 0 0.005 0 0.008 0 0.366 0 0.698-0.148 0.939-0.387l-0 0c0.244-0.242 0.394-0.577 0.394-0.947s-0.151-0.705-0.394-0.947l-0.747-0.747c0.304-0.483 0.543-1.044 0.686-1.642l0.008-0.038h1.067c0.736 0 1.333-0.597 1.333-1.333s-0.597-1.333-1.333-1.333v0zM23.547 14.080v0c-0.223 0.227-0.489 0.411-0.784 0.54l-0.016 0.006c-0.407-0.276-0.875-0.507-1.374-0.669l-0.039-0.011c-0.642-1.353-1.607-2.463-2.798-3.262l-0.029-0.018c0.15-0.362 0.358-0.672 0.614-0.934l-0 0.001c0.575-0.537 1.349-0.866 2.2-0.866s1.625 0.33 2.202 0.868l-0.002-0.002c0.557 0.563 0.901 1.338 0.901 2.193s-0.344 1.63-0.901 2.194l0-0z"></path>
</svg>
