<!-- Generated by IcoMoon.io -->
<svg version="1.1" xmlns="http://www.w3.org/2000/svg" width="32" height="32" viewBox="0 0 32 32">
<title>ul-crop-alt-rotate-right</title>
<path d="M21.333 5.333h-0.787l0.4-0.387c0.242-0.242 0.392-0.577 0.392-0.947 0-0.739-0.599-1.339-1.339-1.339-0.37 0-0.704 0.15-0.947 0.392l-2.667 2.667c-0.244 0.242-0.394 0.577-0.394 0.947s0.151 0.705 0.394 0.947l2.667 2.667c0.242 0.244 0.577 0.394 0.947 0.394s0.705-0.151 0.947-0.394l0-0c0.244-0.242 0.394-0.577 0.394-0.947s-0.151-0.705-0.394-0.947l-0-0-0.4-0.387h0.787c2.209 0 4 1.791 4 4v0 2.667c0 0.736 0.597 1.333 1.333 1.333s1.333-0.597 1.333-1.333v0-2.667c0-3.682-2.985-6.667-6.667-6.667v0zM21.333 24h-1.333v-9.333c0-0.736-0.597-1.333-1.333-1.333v0h-9.333v-1.333c0-0.736-0.597-1.333-1.333-1.333s-1.333 0.597-1.333 1.333v0 1.333h-1.333c-0.736 0-1.333 0.597-1.333 1.333s0.597 1.333 1.333 1.333v0h1.333v9.333c0 0.736 0.597 1.333 1.333 1.333v0h9.333v1.333c0 0.736 0.597 1.333 1.333 1.333s1.333-0.597 1.333-1.333v0-1.333h1.333c0.736 0 1.333-0.597 1.333-1.333s-0.597-1.333-1.333-1.333v0zM17.333 24h-8v-8h8z"></path>
</svg>
