<!-- Generated by IcoMoon.io -->
<svg version="1.1" xmlns="http://www.w3.org/2000/svg" width="32" height="32" viewBox="0 0 32 32">
<title>ul-cloud-drizzle</title>
<path d="M16 25.333c-0.736 0-1.333 0.597-1.333 1.333v0 1.333c0 0.736 0.597 1.333 1.333 1.333s1.333-0.597 1.333-1.333v0-1.333c0-0.736-0.597-1.333-1.333-1.333v0zM10.667 14.667c-0.736 0-1.333 0.597-1.333 1.333v0 1.333c0 0.736 0.597 1.333 1.333 1.333s1.333-0.597 1.333-1.333v0-1.333c0-0.736-0.597-1.333-1.333-1.333v0zM10.667 21.333c-0.736 0-1.333 0.597-1.333 1.333v0 1.333c0 0.736 0.597 1.333 1.333 1.333s1.333-0.597 1.333-1.333v0-1.333c0-0.736-0.597-1.333-1.333-1.333v0zM16 18.667c-0.736 0-1.333 0.597-1.333 1.333v0 1.333c0 0.736 0.597 1.333 1.333 1.333s1.333-0.597 1.333-1.333v0-1.333c0-0.736-0.597-1.333-1.333-1.333v0zM24.56 8.293c-1.475-3.329-4.75-5.609-8.558-5.609-4.73 0-8.638 3.519-9.25 8.081l-0.005 0.048c-2.359 0.585-4.080 2.683-4.080 5.184 0 0.001 0 0.002 0 0.003v-0c-0 0.005-0 0.011-0 0.017 0 1.581 0.688 3.002 1.782 3.979l0.005 0.005c0.239 0.23 0.565 0.372 0.924 0.372 0.736 0 1.333-0.597 1.333-1.333 0-0.419-0.193-0.792-0.494-1.036l-0.003-0.002c-0.541-0.49-0.88-1.195-0.88-1.98 0-0.007 0-0.014 0-0.021v0.001c0-1.473 1.194-2.667 2.667-2.667v0c0.736 0 1.333-0.597 1.333-1.333v0c0.008-3.676 2.99-6.652 6.667-6.652 2.908 0 5.381 1.862 6.292 4.459l0.014 0.047c0.157 0.463 0.55 0.807 1.032 0.892l0.008 0.001c1.89 0.335 3.309 1.96 3.32 3.919v0.001c0.001 0.024 0.001 0.052 0.001 0.081 0 0.995-0.375 1.903-0.991 2.59l0.003-0.004c-0.183 0.226-0.294 0.518-0.294 0.835 0 0.736 0.597 1.333 1.333 1.333 0.364 0 0.693-0.146 0.934-0.382l-0 0c1.025-1.166 1.65-2.705 1.65-4.39 0-2.996-1.976-5.53-4.696-6.371l-0.047-0.013zM21.333 14.667c-0.736 0-1.333 0.597-1.333 1.333v0 1.333c0 0.736 0.597 1.333 1.333 1.333s1.333-0.597 1.333-1.333v0-1.333c0-0.736-0.597-1.333-1.333-1.333v0zM21.333 21.333c-0.736 0-1.333 0.597-1.333 1.333v0 1.333c0 0.736 0.597 1.333 1.333 1.333s1.333-0.597 1.333-1.333v0-1.333c0-0.736-0.597-1.333-1.333-1.333v0zM16 12c-0.736 0-1.333 0.597-1.333 1.333v0 1.333c0 0.736 0.597 1.333 1.333 1.333s1.333-0.597 1.333-1.333v0-1.333c0-0.736-0.597-1.333-1.333-1.333v0z"></path>
</svg>
