<!-- Generated by IcoMoon.io -->
<svg version="1.1" xmlns="http://www.w3.org/2000/svg" width="32" height="32" viewBox="0 0 32 32">
<title>ul-clipboard-blank</title>
<path d="M22.667 5.333h-1.333c0-1.473-1.194-2.667-2.667-2.667v0h-5.333c-1.473 0-2.667 1.194-2.667 2.667v0h-1.333c-2.209 0-4 1.791-4 4v0 16c0 2.209 1.791 4 4 4v0h13.333c2.209 0 4-1.791 4-4v0-16c0-2.209-1.791-4-4-4v0zM13.333 5.333h5.333v2.667h-5.333v-2.667zM24 25.333c0 0.736-0.597 1.333-1.333 1.333v0h-13.333c-0.736 0-1.333-0.597-1.333-1.333v0-16c0-0.736 0.597-1.333 1.333-1.333v0h1.333c0 1.473 1.194 2.667 2.667 2.667v0h5.333c1.473 0 2.667-1.194 2.667-2.667v0h1.333c0.736 0 1.333 0.597 1.333 1.333v0z"></path>
</svg>
