<!-- Generated by IcoMoon.io -->
<svg version="1.1" xmlns="http://www.w3.org/2000/svg" width="32" height="32" viewBox="0 0 32 32">
<title>ul-cell</title>
<path d="M28.653 6.307l-5.987-3.413c-0.191-0.112-0.421-0.179-0.667-0.179s-0.475 0.066-0.673 0.182l0.006-0.003-5.333 3.040-5.333-3.040c-0.191-0.112-0.421-0.179-0.667-0.179s-0.475 0.066-0.673 0.182l0.006-0.003-5.987 3.413c-0.408 0.233-0.679 0.665-0.68 1.16v6.827c0.001 0.495 0.272 0.927 0.673 1.157l0.007 0.003 5.333 3.027v6.053c0.001 0.495 0.272 0.927 0.673 1.157l0.007 0.003 6 3.413c0.191 0.112 0.421 0.179 0.667 0.179s0.475-0.066 0.673-0.182l-0.006 0.003 5.973-3.413c0.408-0.233 0.679-0.665 0.68-1.16v-6.053l5.333-3.027c0.408-0.233 0.679-0.665 0.68-1.16v-6.827c-0.007-0.5-0.288-0.934-0.7-1.157l-0.007-0.003zM5.333 13.52v-5.333l4.667-2.667 4.667 2.667v5.333l-4.667 2.667zM20.667 23.76l-4.667 2.667-4.667-2.667v-5.333l4.667-2.667 4.667 2.667zM26.667 13.52l-4.667 2.667-4.667-2.667v-5.333l4.667-2.667 4.667 2.667z"></path>
</svg>
