<!-- Generated by IcoMoon.io -->
<svg version="1.1" xmlns="http://www.w3.org/2000/svg" width="32" height="32" viewBox="0 0 32 32">
<title>ul-database</title>
<path d="M10.667 22c-0.736 0-1.333 0.597-1.333 1.333s0.597 1.333 1.333 1.333c0.736 0 1.333-0.597 1.333-1.333v0c0-0.736-0.597-1.333-1.333-1.333v0zM16 2.667c-5.333 0-10.667 1.827-10.667 5.333v16c0 3.507 5.333 5.333 10.667 5.333s10.667-1.827 10.667-5.333v-16c0-3.507-5.333-5.333-10.667-5.333zM24 24c0 0.947-3.040 2.667-8 2.667s-8-1.72-8-2.667v-4.36c2.204 1.073 4.796 1.7 7.534 1.7 0.164 0 0.328-0.002 0.491-0.007l-0.024 0.001c0.139 0.004 0.302 0.006 0.466 0.006 2.738 0 5.329-0.627 7.638-1.745l-0.105 0.046zM24 16c0 0.947-3.040 2.667-8 2.667s-8-1.72-8-2.667v-4.36c2.204 1.073 4.796 1.7 7.534 1.7 0.164 0 0.328-0.002 0.491-0.007l-0.024 0.001c0.139 0.004 0.302 0.006 0.466 0.006 2.738 0 5.329-0.627 7.638-1.745l-0.105 0.046zM16 10.667c-4.96 0-8-1.72-8-2.667s3.040-2.667 8-2.667 8 1.72 8 2.667-3.040 2.667-8 2.667zM10.667 14c-0.736 0-1.333 0.597-1.333 1.333s0.597 1.333 1.333 1.333c0.736 0 1.333-0.597 1.333-1.333v0c0-0.736-0.597-1.333-1.333-1.333v0z"></path>
</svg>
