<!-- Generated by IcoMoon.io -->
<svg version="1.1" xmlns="http://www.w3.org/2000/svg" width="32" height="32" viewBox="0 0 32 32">
<title>ul-discord</title>
<path d="M13.518 14.173h-0c-0.775 0-1.404 0.629-1.404 1.404s0.629 1.404 1.404 1.404c0.775 0 1.404-0.629 1.404-1.404s-0.628-1.404-1.404-1.404v0zM18.523 14.173c-0.039-0.003-0.084-0.005-0.129-0.005-0.844 0-1.528 0.684-1.528 1.528s0.684 1.528 1.528 1.528c0.844 0 1.528-0.684 1.528-1.528 0-0 0-0 0-0v0c0.001-0.019 0.001-0.040 0.001-0.062 0-0.786-0.62-1.426-1.397-1.46l-0.003-0zM25.188 2.667h-18.377c-1.554 0.004-2.812 1.264-2.812 2.818 0 0.002 0 0.005 0 0.007v-0 18.542c0 0.002 0 0.004 0 0.007 0 1.554 1.258 2.814 2.811 2.818h15.552l-0.727-2.537 1.755 1.632 1.66 1.536 2.949 2.606v-24.603c0-0.002 0-0.005 0-0.007 0-1.554-1.258-2.814-2.811-2.818h-0zM19.895 20.578v0s-0.494-0.59-0.905-1.111c1.022-0.246 1.881-0.828 2.474-1.621l0.008-0.011c-0.454 0.307-0.974 0.579-1.524 0.791l-0.054 0.018c-0.572 0.252-1.239 0.456-1.934 0.582l-0.055 0.008c-0.523 0.101-1.125 0.159-1.74 0.159-0.641 0-1.267-0.063-1.873-0.183l0.061 0.010c-0.772-0.153-1.447-0.357-2.094-0.617l0.077 0.028c-0.396-0.153-0.725-0.31-1.042-0.487l0.041 0.021c-0.041-0.027-0.082-0.041-0.123-0.069-0.021-0.011-0.040-0.024-0.055-0.041l-0-0c-0.247-0.137-0.384-0.233-0.384-0.233 0.581 0.788 1.41 1.363 2.37 1.612l0.030 0.007c-0.411 0.521-0.919 1.138-0.919 1.138-0.040 0.001-0.087 0.002-0.134 0.002-1.664 0-3.136-0.817-4.039-2.072l-0.010-0.015c0.048-2.925 0.773-5.669 2.023-8.099l-0.048 0.103c1.055-0.835 2.386-1.365 3.837-1.439l0.016-0.001 0.137 0.165c-1.387 0.35-2.597 0.972-3.623 1.81l0.017-0.013s0.302-0.165 0.809-0.398c0.907-0.425 1.959-0.73 3.065-0.859l0.048-0.005c0.069-0.015 0.149-0.025 0.231-0.027l0.002-0c0.45-0.062 0.97-0.097 1.499-0.097 0.448 0 0.89 0.025 1.325 0.075l-0.053-0.005c1.539 0.18 2.936 0.646 4.184 1.346l-0.056-0.029c-0.958-0.785-2.101-1.385-3.351-1.727l-0.064-0.015 0.192-0.219c1.468 0.075 2.798 0.605 3.868 1.451l-0.014-0.011c1.202 2.326 1.927 5.071 1.975 7.98l0 0.016c-0.921 1.27-2.4 2.086-4.070 2.086-0.045 0-0.089-0.001-0.134-0.002l0.007 0z"></path>
</svg>
