<!-- Generated by IcoMoon.io -->
<svg version="1.1" xmlns="http://www.w3.org/2000/svg" width="32" height="32" viewBox="0 0 32 32">
<title>ul-dialpad-alt</title>
<path d="M6.667 12.333c-2.025 0-3.667 1.642-3.667 3.667s1.642 3.667 3.667 3.667c2.025 0 3.667-1.642 3.667-3.667v0c0-2.025-1.642-3.667-3.667-3.667v0zM6.667 17.667c-0.92 0-1.667-0.746-1.667-1.667s0.746-1.667 1.667-1.667c0.92 0 1.667 0.746 1.667 1.667v0c0 0.92-0.746 1.667-1.667 1.667v0zM16 12.333c-2.025 0-3.667 1.642-3.667 3.667s1.642 3.667 3.667 3.667c2.025 0 3.667-1.642 3.667-3.667v0c0-2.025-1.642-3.667-3.667-3.667v0zM16 17.667c-0.92 0-1.667-0.746-1.667-1.667s0.746-1.667 1.667-1.667c0.92 0 1.667 0.746 1.667 1.667v0c0 0.92-0.746 1.667-1.667 1.667v0zM25.333 10.333c2.025 0 3.667-1.642 3.667-3.667s-1.642-3.667-3.667-3.667c-2.025 0-3.667 1.642-3.667 3.667v0c0 2.025 1.642 3.667 3.667 3.667v0zM25.333 5c0.92 0 1.667 0.746 1.667 1.667s-0.746 1.667-1.667 1.667c-0.92 0-1.667-0.746-1.667-1.667v0c0-0.92 0.746-1.667 1.667-1.667v0zM25.333 12.333c-2.025 0-3.667 1.642-3.667 3.667s1.642 3.667 3.667 3.667c2.025 0 3.667-1.642 3.667-3.667v0c0-2.025-1.642-3.667-3.667-3.667v0zM25.333 17.667c-0.92 0-1.667-0.746-1.667-1.667s0.746-1.667 1.667-1.667c0.92 0 1.667 0.746 1.667 1.667v0c0 0.92-0.746 1.667-1.667 1.667v0zM6.667 3c-2.025 0-3.667 1.642-3.667 3.667s1.642 3.667 3.667 3.667c2.025 0 3.667-1.642 3.667-3.667v0c0-2.025-1.642-3.667-3.667-3.667v0zM6.667 8.333c-0.92 0-1.667-0.746-1.667-1.667s0.746-1.667 1.667-1.667c0.92 0 1.667 0.746 1.667 1.667v0c0 0.92-0.746 1.667-1.667 1.667v0zM16 21.667c-2.025 0-3.667 1.642-3.667 3.667s1.642 3.667 3.667 3.667c2.025 0 3.667-1.642 3.667-3.667v0c0-2.025-1.642-3.667-3.667-3.667v0zM16 27c-0.92 0-1.667-0.746-1.667-1.667s0.746-1.667 1.667-1.667c0.92 0 1.667 0.746 1.667 1.667v0c0 0.92-0.746 1.667-1.667 1.667v0zM16 3c-2.025 0-3.667 1.642-3.667 3.667s1.642 3.667 3.667 3.667c2.025 0 3.667-1.642 3.667-3.667v0c0-2.025-1.642-3.667-3.667-3.667v0zM16 8.333c-0.92 0-1.667-0.746-1.667-1.667s0.746-1.667 1.667-1.667c0.92 0 1.667 0.746 1.667 1.667v0c0 0.92-0.746 1.667-1.667 1.667v0z"></path>
</svg>
