<!-- Generated by IcoMoon.io -->
<svg version="1.1" xmlns="http://www.w3.org/2000/svg" width="32" height="32" viewBox="0 0 32 32">
<title>ul-download-alt</title>
<path d="M11.053 17.72c-0.244 0.242-0.394 0.577-0.394 0.947s0.151 0.705 0.394 0.947l4 4c0.242 0.244 0.577 0.394 0.947 0.394s0.705-0.151 0.947-0.394l4-4c0.242-0.242 0.392-0.577 0.392-0.947 0-0.739-0.599-1.339-1.339-1.339-0.37 0-0.704 0.15-0.947 0.392v0l-1.72 1.733v-15.453c0-0.736-0.597-1.333-1.333-1.333s-1.333 0.597-1.333 1.333v0 15.453l-1.72-1.733c-0.242-0.244-0.577-0.394-0.947-0.394s-0.705 0.151-0.947 0.394l-0 0zM24 12h-2.667c-0.736 0-1.333 0.597-1.333 1.333s0.597 1.333 1.333 1.333v0h2.667c0.736 0 1.333 0.597 1.333 1.333v0 9.333c0 0.736-0.597 1.333-1.333 1.333v0h-16c-0.736 0-1.333-0.597-1.333-1.333v0-9.333c0-0.736 0.597-1.333 1.333-1.333v0h2.667c0.736 0 1.333-0.597 1.333-1.333s-0.597-1.333-1.333-1.333v0h-2.667c-2.209 0-4 1.791-4 4v0 9.333c0 2.209 1.791 4 4 4v0h16c2.209 0 4-1.791 4-4v0-9.333c0-2.209-1.791-4-4-4v0z"></path>
</svg>
