<!-- Generated by IcoMoon.io -->
<svg version="1.1" xmlns="http://www.w3.org/2000/svg" width="32" height="32" viewBox="0 0 32 32">
<title>ul-eye-slash</title>
<path d="M14.587 8.107c0.421-0.068 0.906-0.107 1.4-0.107 0.005 0 0.009 0 0.014 0h-0.001c4.24 0 8.227 3.053 10.547 8-0.409 0.863-0.809 1.58-1.249 2.268l0.049-0.081c-0.134 0.204-0.213 0.455-0.213 0.724 0 0.003 0 0.007 0 0.010v-0.001c0.008 0.73 0.602 1.32 1.333 1.32 0.485 0 0.91-0.259 1.143-0.647l0.003-0.006c0.565-0.871 1.105-1.879 1.561-2.931l0.053-0.136c0.069-0.155 0.108-0.336 0.108-0.527s-0.040-0.371-0.112-0.535l0.003 0.009c-2.693-6.253-7.76-10.133-13.227-10.133-0.015-0-0.034-0-0.052-0-0.641 0-1.269 0.058-1.878 0.17l0.063-0.010c-0.643 0.112-1.126 0.666-1.126 1.333 0 0.747 0.606 1.352 1.352 1.352 0.080 0 0.159-0.007 0.235-0.020l-0.008 0.001zM4.947 3.053c-0.242-0.242-0.577-0.392-0.947-0.392-0.739 0-1.339 0.599-1.339 1.339 0 0.37 0.15 0.704 0.392 0.947v0l4.133 4.12c-1.843 1.775-3.333 3.902-4.365 6.274l-0.049 0.126c-0.070 0.157-0.111 0.34-0.111 0.533s0.041 0.376 0.115 0.542l-0.003-0.008c2.693 6.253 7.76 10.133 13.227 10.133 2.51-0.018 4.838-0.782 6.778-2.081l-0.045 0.028 4.32 4.333c0.242 0.244 0.577 0.394 0.947 0.394s0.705-0.151 0.947-0.394l0-0c0.244-0.242 0.394-0.577 0.394-0.947s-0.151-0.705-0.394-0.947l-0-0zM13.427 15.307l3.267 3.267c-0.199 0.059-0.428 0.093-0.665 0.093-0.010 0-0.020-0-0.030-0h0.002c-1.473 0-2.667-1.194-2.667-2.667v0c-0-0.008-0-0.018-0-0.028 0-0.237 0.034-0.466 0.098-0.682l-0.004 0.017zM16 24c-4.24 0-8.227-3.053-10.533-8 0.905-1.97 2.117-3.647 3.593-5.047l0.007-0.007 2.36 2.387c-0.413 0.74-0.656 1.623-0.656 2.563 0 2.946 2.388 5.333 5.333 5.333 0.94 0 1.823-0.243 2.59-0.67l-0.027 0.014 2.12 2.093c-1.37 0.82-3.019 1.313-4.781 1.333l-0.006 0z"></path>
</svg>
