<!-- Generated by IcoMoon.io -->
<svg version="1.1" xmlns="http://www.w3.org/2000/svg" width="32" height="32" viewBox="0 0 32 32">
<title>ul-export</title>
<path d="M11.613 10.28l3.053-3.067v12.787c0 0.736 0.597 1.333 1.333 1.333s1.333-0.597 1.333-1.333v0-12.787l3.053 3.067c0.242 0.244 0.577 0.394 0.947 0.394s0.705-0.151 0.947-0.394l0-0c0.244-0.242 0.394-0.577 0.394-0.947s-0.151-0.705-0.394-0.947l-5.333-5.333c-0.123-0.118-0.269-0.213-0.431-0.277l-0.009-0.003c-0.15-0.063-0.324-0.1-0.507-0.1s-0.357 0.037-0.515 0.103l0.009-0.003c-0.171 0.067-0.317 0.162-0.44 0.28l0-0-5.333 5.333c-0.242 0.242-0.392 0.577-0.392 0.947 0 0.739 0.599 1.339 1.339 1.339 0.37 0 0.704-0.15 0.947-0.392v0zM28 18.667c-0.736 0-1.333 0.597-1.333 1.333v0 5.333c0 0.736-0.597 1.333-1.333 1.333v0h-18.667c-0.736 0-1.333-0.597-1.333-1.333v0-5.333c0-0.736-0.597-1.333-1.333-1.333s-1.333 0.597-1.333 1.333v0 5.333c0 2.209 1.791 4 4 4v0h18.667c2.209 0 4-1.791 4-4v0-5.333c0-0.736-0.597-1.333-1.333-1.333v0z"></path>
</svg>
