<!-- Generated by IcoMoon.io -->
<svg version="1.1" xmlns="http://www.w3.org/2000/svg" width="32" height="32" viewBox="0 0 32 32">
<title>ul-expand-arrows</title>
<path d="M28 10.667c0.736 0 1.333-0.597 1.333-1.333v0-5.333c-0.002-0.184-0.041-0.357-0.11-0.515l0.003 0.009c-0.138-0.327-0.393-0.582-0.711-0.717l-0.009-0.003c-0.149-0.065-0.323-0.104-0.506-0.107h-5.334c-0.736 0-1.333 0.597-1.333 1.333s0.597 1.333 1.333 1.333v0h2.12l-8.787 8.787-8.787-8.787h2.12c0.736 0 1.333-0.597 1.333-1.333s-0.597-1.333-1.333-1.333v0h-5.333c-0.184 0.002-0.357 0.041-0.515 0.11l0.009-0.003c-0.327 0.138-0.582 0.393-0.717 0.711l-0.003 0.009c-0.065 0.149-0.104 0.323-0.107 0.506v5.334c0 0.736 0.597 1.333 1.333 1.333s1.333-0.597 1.333-1.333v0-2.12l8.787 8.787-8.787 8.787v-2.12c0-0.736-0.597-1.333-1.333-1.333s-1.333 0.597-1.333 1.333v0 5.333c0.002 0.184 0.041 0.357 0.11 0.515l-0.003-0.009c0.138 0.327 0.393 0.582 0.711 0.717l0.009 0.003c0.149 0.065 0.323 0.104 0.506 0.107h5.334c0.736 0 1.333-0.597 1.333-1.333s-0.597-1.333-1.333-1.333v0h-2.12l8.787-8.787 8.787 8.787h-2.12c-0.736 0-1.333 0.597-1.333 1.333s0.597 1.333 1.333 1.333v0h5.333c0.184-0.002 0.357-0.041 0.515-0.11l-0.009 0.003c0.327-0.138 0.582-0.393 0.717-0.711l0.003-0.009c0.065-0.149 0.104-0.323 0.107-0.506v-5.334c0-0.736-0.597-1.333-1.333-1.333s-1.333 0.597-1.333 1.333v0 2.12l-8.787-8.787 8.787-8.787v2.12c0 0.736 0.597 1.333 1.333 1.333v0z"></path>
</svg>
