<!-- Generated by IcoMoon.io -->
<svg version="1.1" xmlns="http://www.w3.org/2000/svg" width="32" height="32" viewBox="0 0 32 32">
<title>ul-eye</title>
<path d="M29.227 15.467c-2.693-6.253-7.76-10.133-13.227-10.133s-10.533 3.88-13.227 10.133c-0.070 0.157-0.111 0.34-0.111 0.533s0.041 0.376 0.115 0.542l-0.003-0.008c2.693 6.253 7.76 10.133 13.227 10.133s10.533-3.88 13.227-10.133c0.070-0.157 0.111-0.34 0.111-0.533s-0.041-0.376-0.115-0.542l0.003 0.008zM16 24c-4.227 0-8.227-3.053-10.533-8 2.307-4.947 6.307-8 10.533-8s8.227 3.053 10.533 8c-2.307 4.947-6.307 8-10.533 8zM16 10.667c-2.946 0-5.333 2.388-5.333 5.333s2.388 5.333 5.333 5.333c2.946 0 5.333-2.388 5.333-5.333v0c0-2.946-2.388-5.333-5.333-5.333v0zM16 18.667c-1.473 0-2.667-1.194-2.667-2.667s1.194-2.667 2.667-2.667c1.473 0 2.667 1.194 2.667 2.667v0c0 1.473-1.194 2.667-2.667 2.667v0z"></path>
</svg>
