<!-- Generated by IcoMoon.io -->
<svg version="1.1" xmlns="http://www.w3.org/2000/svg" width="32" height="32" viewBox="0 0 32 32">
<title>ul-flask</title>
<path d="M26.813 23.32l-6.813-11.68v-6.307h1.333c0.736 0 1.333-0.597 1.333-1.333s-0.597-1.333-1.333-1.333v0h-10.667c-0.736 0-1.333 0.597-1.333 1.333s0.597 1.333 1.333 1.333v0h1.333v6.307l-6.813 11.68c-0.342 0.577-0.544 1.272-0.544 2.013 0 2.208 1.789 3.998 3.997 4h14.667c2.208-0.002 3.997-1.792 3.997-4 0-0.742-0.202-1.436-0.554-2.032l0.010 0.019zM14.48 12.653c0.113-0.187 0.182-0.412 0.187-0.652l0-0.001v-6.667h2.667v6.667c0.003 0.246 0.072 0.476 0.19 0.673l-0.003-0.006 1.147 2h-5.333zM24.507 25.987c-0.233 0.399-0.659 0.664-1.146 0.667h-14.667c-0.488-0.003-0.913-0.268-1.143-0.66l-0.003-0.006c-0.112-0.191-0.179-0.421-0.179-0.667s0.066-0.475 0.182-0.673l-0.003 0.006 4.227-7.32h8.467l4.267 7.333c0.112 0.191 0.179 0.421 0.179 0.667s-0.066 0.475-0.182 0.673l0.003-0.006zM13.333 20c-0.736 0-1.333 0.597-1.333 1.333s0.597 1.333 1.333 1.333c0.736 0 1.333-0.597 1.333-1.333v0c0-0.736-0.597-1.333-1.333-1.333v0zM18.667 21.333c-0.736 0-1.333 0.597-1.333 1.333s0.597 1.333 1.333 1.333c0.736 0 1.333-0.597 1.333-1.333v0c0-0.736-0.597-1.333-1.333-1.333v0z"></path>
</svg>
