<!-- Generated by IcoMoon.io -->
<svg version="1.1" xmlns="http://www.w3.org/2000/svg" width="32" height="32" viewBox="0 0 32 32">
<title>ul-file-copy-alt</title>
<path d="M21.333 26.667h-10.667c-2.209 0-4-1.791-4-4v0-13.333c0-0.736-0.597-1.333-1.333-1.333s-1.333 0.597-1.333 1.333v0 13.333c0 3.682 2.985 6.667 6.667 6.667v0h10.667c0.736 0 1.333-0.597 1.333-1.333s-0.597-1.333-1.333-1.333v0zM13.333 17.333c0 0.736 0.597 1.333 1.333 1.333v0h6.667c0.736 0 1.333-0.597 1.333-1.333s-0.597-1.333-1.333-1.333v0h-6.667c-0.736 0-1.333 0.597-1.333 1.333v0zM28 11.92c-0.015-0.134-0.044-0.256-0.084-0.372l0.004 0.012v-0.12c-0.068-0.143-0.153-0.267-0.254-0.374l0.001 0.001-8-8c-0.107-0.101-0.23-0.185-0.365-0.25l-0.009-0.004c-0.018-0.003-0.039-0.004-0.060-0.004s-0.042 0.002-0.062 0.005l0.002-0c-0.127-0.074-0.276-0.126-0.434-0.146l-0.006-0.001h-5.4c-2.209 0-4 1.791-4 4v0 13.333c0 2.209 1.791 4 4 4v0h10.667c2.209 0 4-1.791 4-4v0-8s0 0 0-0.080zM20 7.213l3.453 3.453h-2.12c-0.736 0-1.333-0.597-1.333-1.333v0zM25.333 20c0 0.736-0.597 1.333-1.333 1.333v0h-10.667c-0.736 0-1.333-0.597-1.333-1.333v0-13.333c0-0.736 0.597-1.333 1.333-1.333v0h4v4c0.004 0.479 0.092 0.937 0.249 1.361l-0.009-0.028h-2.907c-0.736 0-1.333 0.597-1.333 1.333s0.597 1.333 1.333 1.333v0h10.667z"></path>
</svg>
