<!-- Generated by IcoMoon.io -->
<svg version="1.1" xmlns="http://www.w3.org/2000/svg" width="32" height="32" viewBox="0 0 32 32">
<title>ul-folder-open</title>
<path d="M30.373 13.827c-0.246-0.302-0.619-0.493-1.035-0.493-0.002 0-0.003 0-0.005 0h-2.666v-1.333c0-2.209-1.791-4-4-4v0h-8.373l-0.427-1.333c-0.566-1.567-2.040-2.667-3.771-2.667-0.005 0-0.011 0-0.016 0h-4.746c-2.209 0-4 1.791-4 4v0 16c0 2.209 1.791 4 4 4v0h19.2c1.897-0.006 3.483-1.331 3.888-3.107l0.005-0.027 2.24-9.907c0.017-0.080 0.027-0.172 0.027-0.267 0-0.332-0.121-0.635-0.322-0.869l0.001 0.002zM7.16 24.293c-0.139 0.6-0.668 1.040-1.301 1.040-0.011 0-0.023-0-0.034-0l0.002 0h-0.493c-0.736 0-1.333-0.597-1.333-1.333v0-16c0-0.736 0.597-1.333 1.333-1.333v0h4.747c0.021-0.001 0.045-0.002 0.069-0.002 0.584 0 1.081 0.376 1.261 0.899l0.003 0.009 0.72 2.187c0.176 0.512 0.642 0.879 1.197 0.907l0.003 0h9.333c0.736 0 1.333 0.597 1.333 1.333v0 1.333h-13.333c-0.010-0-0.021-0-0.033-0-0.633 0-1.162 0.44-1.299 1.031l-0.002 0.009zM25.827 24.293c-0.139 0.6-0.668 1.040-1.301 1.040-0.011 0-0.023-0-0.034-0l0.002 0h-14.88c0.064-0.135 0.115-0.291 0.145-0.455l0.002-0.012 1.973-8.867h16z"></path>
</svg>
