<!-- Generated by IcoMoon.io -->
<svg version="1.1" xmlns="http://www.w3.org/2000/svg" width="32" height="32" viewBox="0 0 32 32">
<title>ul-google-hangouts</title>
<path d="M27.259 12.073c-0.411-2.259-1.439-4.228-2.903-5.785l0.005 0.006c-0.634-0.682-1.343-1.279-2.119-1.784l-0.043-0.026c-1.381-0.907-3.028-1.529-4.8-1.74l-0.054-0.005c-0.238-0.013-0.459-0.039-0.675-0.077l0.033 0.005h-1.513c-0.016 0.038-0.051 0.024-0.079 0.027-0.389 0.034-0.777 0.079-1.162 0.152-2.818 0.511-5.219 2.009-6.884 4.116l-0.018 0.024c-1.393 1.713-2.291 3.877-2.451 6.244l-0.002 0.034c-0.021 0.258-0.032 0.558-0.032 0.86 0 0.89 0.102 1.757 0.294 2.588l-0.015-0.077c0.205 0.906 0.491 1.702 0.861 2.45l-0.028-0.064c0.033 0.065 0.065 0.13 0.098 0.195 0.629 1.238 1.424 2.294 2.372 3.191l0.005 0.005c2.002 1.897 4.702 3.074 7.677 3.11l0.007 0c0.134 0.002 0.17 0.035 0.169 0.171-0.006 1.165-0.004 2.33-0.003 3.494 0 0.045 0.004 0.090 0.006 0.146 0.038-0.015 0.061-0.024 0.084-0.035 2.294-1.075 4.267-2.398 6.008-3.973l-0.021 0.018q0.534-0.486 1.025-1.017c0.14-0.151 0.28-0.305 0.42-0.456 0.217-0.232 0.405-0.492 0.61-0.737 0.237-0.282 0.449-0.582 0.659-0.884 0.428-0.603 0.836-1.291 1.186-2.012l0.038-0.087c0.176-0.372 0.343-0.747 0.492-1.13 0.005-0.006 0.010-0.013 0.014-0.021l0-0.001c0.372-0.944 0.653-2.043 0.794-3.186l0.007-0.066c0.048-0.388 0.079-0.779 0.099-1.17 0.009-0.164 0.014-0.355 0.014-0.548 0-0.692-0.065-1.368-0.188-2.024l0.011 0.067zM15.006 15.833c0 0.002 0 0.005 0 0.008 0 0.991-0.431 1.881-1.117 2.492l-0.003 0.003c-0.038 0.035-0.075 0.072-0.112 0.108-0.352 0.282-0.767 0.502-1.22 0.634l-0.025 0.006c-0.162 0.044-0.365 0.083-0.571 0.11l-0.026 0.003c-0.013 0.002-0.027 0.003-0.042 0.003-0.129 0-0.237-0.086-0.271-0.204l-0-0.002 0.002-1.291c0.008-0.127-0.043-0.262 0.058-0.374 0.047-0.054 0.11-0.094 0.182-0.112l0.002-0.001c0.248-0.046 0.468-0.124 0.672-0.231l-0.013 0.006c0.36-0.21 0.621-0.556 0.715-0.965l0.002-0.010c0.016-0.067 0.032-0.134 0.047-0.201q-1.361-0.002-2.722-0.004c-0.008 0-0.018 0-0.028 0-0.073 0-0.143-0.009-0.211-0.026l0.006 0.001c-0.231-0.063-0.4-0.268-0.409-0.513l-0-0.001q-0.003-2.058 0.002-4.116c-0.008-0.038-0.013-0.082-0.013-0.126 0-0.179 0.076-0.341 0.197-0.455l0-0c0.090-0.083 0.21-0.134 0.341-0.136h0q2.001-0 4.002-0.001c0.306 0.001 0.553 0.249 0.553 0.555 0 0.053-0.007 0.104-0.021 0.153l0.001-0.004c0.015 0.047 0.024 0.101 0.024 0.157 0 0.017-0.001 0.033-0.002 0.049l0-0.002c0 1.495 0.009 2.991-0.003 4.486zM22.076 15.839c-0.014 1.388-0.855 2.575-2.053 3.095l-0.022 0.009c-0.031 0.013-0.061 0.031-0.091 0.046l-0.051 0.014-0.029 0.016c-0.215 0.066-0.48 0.126-0.751 0.168l-0.034 0.004c-0.021 0.006-0.046 0.009-0.072 0.009-0.159 0-0.288-0.129-0.288-0.288 0-0.004 0-0.007 0-0.011l-0 0.001c-0.002-0.143-0.003-0.287-0.004-0.43l0.007-0.77c-0.001-0.057-0.003-0.113-0.003-0.169 0-0.197 0.076-0.28 0.321-0.336 0.327-0.057 0.613-0.197 0.847-0.398l-0.002 0.002c0.266-0.255 0.448-0.596 0.502-0.977l0.001-0.009-2.514-0.005c-0.091-0-0.182 0.001-0.274-0-0.006 0-0.012 0-0.019 0-0.309 0-0.559-0.25-0.559-0.559 0-0.010 0-0.020 0.001-0.029l-0 0.001q0.001-2.033 0.003-4.065l-0.002-0.039c-0.006-0.032-0.010-0.068-0.010-0.105 0-0.21 0.112-0.394 0.279-0.495l0.003-0.001c0.078-0.049 0.172-0.078 0.273-0.078 0.004 0 0.007 0 0.011 0h-0.001q1.988-0.001 3.976-0.001c0.305 0.001 0.552 0.249 0.552 0.555 0 0.053-0.007 0.104-0.021 0.153l0.001-0.004c0.015 0.047 0.024 0.101 0.024 0.157 0 0.017-0.001 0.033-0.002 0.049l0-0.002q0 2.246-0 4.493z"></path>
</svg>
