<!-- Generated by IcoMoon.io -->
<svg version="1.1" xmlns="http://www.w3.org/2000/svg" width="32" height="32" viewBox="0 0 32 32">
<title>ul-graph-bar</title>
<path d="M8 17.333h-5.333c-0.736 0-1.333 0.597-1.333 1.333v0 10.667c0 0.736 0.597 1.333 1.333 1.333v0h5.333c0.736 0 1.333-0.597 1.333-1.333v0-10.667c0-0.736-0.597-1.333-1.333-1.333v0zM6.667 28h-2.667v-8h2.667zM29.333 12h-5.333c-0.736 0-1.333 0.597-1.333 1.333v0 16c0 0.736 0.597 1.333 1.333 1.333v0h5.333c0.736 0 1.333-0.597 1.333-1.333v0-16c0-0.736-0.597-1.333-1.333-1.333v0zM28 28h-2.667v-13.333h2.667zM18.667 1.333h-5.333c-0.736 0-1.333 0.597-1.333 1.333v0 26.667c0 0.736 0.597 1.333 1.333 1.333v0h5.333c0.736 0 1.333-0.597 1.333-1.333v0-26.667c0-0.736-0.597-1.333-1.333-1.333v0zM17.333 28h-2.667v-24h2.667z"></path>
</svg>
