<!-- Generated by IcoMoon.io -->
<svg version="1.1" xmlns="http://www.w3.org/2000/svg" width="32" height="32" viewBox="0 0 32 32">
<title>ul-html5-alt</title>
<path d="M28.624 3.1c-0.245-0.267-0.595-0.433-0.984-0.434h-23.28c-0.736 0-1.333 0.597-1.333 1.334 0 0.042 0.002 0.083 0.006 0.123l-0-0.005 2.027 22.667c0.051 0.56 0.442 1.016 0.962 1.164l0.009 0.002 9.6 2.667c0.107 0.031 0.23 0.049 0.357 0.049v0c0.127-0 0.249-0.018 0.366-0.050l-0.009 0.002 9.626-2.667c0.53-0.151 0.92-0.607 0.972-1.161l0-0.005 2.027-22.667c0.003-0.035 0.005-0.077 0.005-0.118 0-0.347-0.133-0.664-0.351-0.901l0.001 0.001zM24.367 25.628l-8.38 2.322-8.355-2.321-1.815-20.296h20.365zM10.426 17.333h9.193l-0.436 4.361-3.424 1.223-4.218-1.507c-0.134-0.050-0.289-0.078-0.45-0.078-0.736 0-1.334 0.597-1.334 1.334 0 0.576 0.365 1.067 0.877 1.253l0.009 0.003 4.667 1.667c0.134 0.049 0.288 0.077 0.449 0.077s0.315-0.028 0.458-0.080l-0.009 0.003 4.667-1.667c0.479-0.175 0.825-0.603 0.878-1.117l0-0.006 0.667-6.667c0.004-0.040 0.007-0.085 0.007-0.132 0-0.737-0.597-1.334-1.333-1.334h-9.46l-0.4-4h10.527c0.736 0 1.333-0.597 1.333-1.333s-0.597-1.333-1.333-1.333v0h-12c-0.736 0-1.333 0.598-1.333 1.334 0 0.046 0.002 0.092 0.007 0.138l-0-0.006 0.667 6.667c0.070 0.677 0.637 1.201 1.327 1.201v0z"></path>
</svg>
