<!-- Generated by IcoMoon.io -->
<svg version="1.1" xmlns="http://www.w3.org/2000/svg" width="32" height="32" viewBox="0 0 32 32">
<title>ul-history-alt</title>
<path d="M15.253 2.667c-3.562 0.010-6.793 1.416-9.178 3.698l0.005-0.005v-2.36c0-0.736-0.597-1.333-1.333-1.333s-1.333 0.597-1.333 1.333v0 6c0 0.736 0.597 1.333 1.333 1.333v0h6c0.736 0 1.333-0.597 1.333-1.333s-0.597-1.333-1.333-1.333v0h-3.2c1.948-2.055 4.698-3.333 7.746-3.333 5.891 0 10.667 4.776 10.667 10.667s-4.776 10.667-10.667 10.667c-0.014 0-0.028-0-0.041-0h0.002c-0.736 0-1.333 0.597-1.333 1.333s0.597 1.333 1.333 1.333v0c7.364 0 13.333-5.97 13.333-13.333s-5.97-13.333-13.333-13.333v0zM15.253 10.667c-0.736 0-1.333 0.597-1.333 1.333v0 4c0 0.736 0.597 1.333 1.333 1.333v0h2.667c0.736 0 1.333-0.597 1.333-1.333s-0.597-1.333-1.333-1.333v0h-1.333v-2.667c0-0.736-0.597-1.333-1.333-1.333v0z"></path>
</svg>
