<!-- Generated by IcoMoon.io -->
<svg version="1.1" xmlns="http://www.w3.org/2000/svg" width="32" height="32" viewBox="0 0 32 32">
<title>ul-images</title>
<path d="M24 20v-13.333c0-2.209-1.791-4-4-4v0h-13.333c-2.209 0-4 1.791-4 4v0 13.333c0 2.209 1.791 4 4 4v0h13.333c2.209 0 4-1.791 4-4v0zM5.333 6.667c0-0.736 0.597-1.333 1.333-1.333v0h13.333c0.736 0 1.333 0.597 1.333 1.333v0 5.813l-1.44-1.453c-0.618-0.618-1.471-1-2.413-1h-0c-0.942 0.003-1.794 0.385-2.413 1l-1.213 1.213-1.080-1.080c-0.705-0.694-1.672-1.122-2.74-1.122s-2.035 0.428-2.74 1.123l0-0.001-1.96 1.973zM5.493 20.6c-0.099-0.173-0.158-0.379-0.16-0.599v-3.107l3.84-3.84c0.22-0.221 0.524-0.357 0.86-0.357s0.64 0.137 0.86 0.357l0 0 1.107 1.080zM16.96 12.92c0.127-0.139 0.31-0.227 0.513-0.227 0.003 0 0.005 0 0.008 0h-0c0.002-0 0.005-0 0.007-0 0.203 0 0.386 0.087 0.512 0.226l0 0.001 3.333 3.32v3.76c0 0.736-0.597 1.333-1.333 1.333v0h-11.467zM28 8c-0.736 0-1.333 0.597-1.333 1.333v0 13.333c0 2.209-1.791 4-4 4v0h-13.333c-0.736 0-1.333 0.597-1.333 1.333s0.597 1.333 1.333 1.333v0h13.333c3.682 0 6.667-2.985 6.667-6.667v0-13.333c0-0.736-0.597-1.333-1.333-1.333v0z"></path>
</svg>
