<!-- Generated by IcoMoon.io -->
<svg version="1.1" xmlns="http://www.w3.org/2000/svg" width="32" height="32" viewBox="0 0 32 32">
<title>ul-intercom-alt</title>
<path d="M13.322 20.001c0 0 0.001 0 0.001 0 0.736 0 1.333-0.597 1.333-1.333 0-0 0-0.001 0-0.001v0-10.667c0-0.736-0.597-1.333-1.333-1.333s-1.333 0.597-1.333 1.333v0 10.667c0 0 0 0 0 0.001 0 0.736 0.597 1.333 1.333 1.333 0 0 0.001 0 0.001 0h-0zM18.655 20.001c0 0 0 0 0.001 0 0.736 0 1.333-0.597 1.333-1.333 0-0 0-0.001 0-0.001v0-10.667c0-0.736-0.597-1.333-1.333-1.333s-1.333 0.597-1.333 1.333v0 10.667c0 0 0 0 0 0.001 0 0.736 0.597 1.333 1.333 1.333 0 0 0.001 0 0.001 0h-0zM7.988 17.334c0 0 0 0 0.001 0 0.736 0 1.333-0.597 1.333-1.333 0-0 0-0.001 0-0.001v0-5.333c0-0.736-0.597-1.333-1.333-1.333s-1.333 0.597-1.333 1.333v0 5.333c0 0 0 0 0 0.001 0 0.736 0.597 1.333 1.333 1.333 0 0 0.001 0 0.001 0h-0zM26.655 1.334h-21.333c-2.208 0.002-3.998 1.792-4 4v21.334c0.002 2.208 1.792 3.997 4 4h21.334c2.208-0.003 3.997-1.792 4-4v-21.334c-0.003-2.208-1.792-3.998-4-4h-0zM27.988 26.667c-0 0.736-0.597 1.333-1.333 1.333h-21.333c-0.736-0-1.333-0.597-1.333-1.333v-21.333c0.001-0.736 0.597-1.333 1.333-1.333h21.333c0.736 0 1.333 0.597 1.333 1.333v0zM23.13 20.545c-1.88 1.332-4.222 2.129-6.749 2.129-0.138 0-0.276-0.002-0.413-0.007l0.020 0.001c-0.097 0.003-0.212 0.004-0.327 0.004-2.549 0-4.912-0.796-6.854-2.153l0.039 0.026c-0.23-0.195-0.53-0.313-0.858-0.313-0.737 0-1.334 0.597-1.334 1.334 0 0.409 0.184 0.775 0.473 1.019l0.002 0.002c2.343 1.72 5.285 2.753 8.468 2.753 0.137 0 0.274-0.002 0.411-0.006l-0.020 0c0.116 0.003 0.253 0.005 0.391 0.005 3.183 0 6.124-1.033 8.508-2.781l-0.040 0.028c0.292-0.246 0.476-0.612 0.476-1.021 0-0.736-0.597-1.334-1.334-1.334-0.328 0-0.628 0.118-0.86 0.314l0.002-0.002zM23.988 9.334c-0 0-0 0-0.001 0-0.736 0-1.333 0.597-1.333 1.333 0 0 0 0.001 0 0.001v-0 5.333c0 0.736 0.597 1.333 1.333 1.333s1.333-0.597 1.333-1.333v0-5.333c0-0 0-0.001 0-0.001 0-0.736-0.597-1.333-1.333-1.333-0 0-0.001 0-0.001 0h0z"></path>
</svg>
