<!-- Generated by IcoMoon.io -->
<svg version="1.1" xmlns="http://www.w3.org/2000/svg" width="32" height="32" viewBox="0 0 32 32">
<title>ul-inbox</title>
<path d="M25.408 2.667h-18.667c-2.208 0.002-3.998 1.792-4 4v18.667c0.002 2.208 1.792 3.997 4 4h18.667c2.208-0.003 3.997-1.792 4-4v-18.667c-0.003-2.208-1.792-3.998-4-4h-0zM6.741 5.333h18.667c0.736 0.001 1.333 0.597 1.333 1.333v10.667h-3.286c-0.001 0-0.001 0-0.002 0-0.921 0-1.732 0.467-2.211 1.178l-0.006 0.010-1.875 2.813h-6.573l-1.875-2.813c-0.484-0.72-1.296-1.188-2.217-1.188-0.001 0-0.002 0-0.002 0h-3.286v-10.667c0.001-0.736 0.597-1.333 1.333-1.333h0zM25.408 26.667h-18.667c-0.736-0.001-1.333-0.597-1.333-1.333v-5.333h3.286l1.875 2.813c0.484 0.72 1.296 1.188 2.217 1.188 0.001 0 0.002 0 0.002 0h6.573c0.001 0 0.001 0 0.002 0 0.921 0 1.732-0.467 2.211-1.178l0.006-0.010 1.875-2.813h3.286v5.333c-0.001 0.736-0.597 1.333-1.333 1.333h-0z"></path>
</svg>
