<!-- Generated by IcoMoon.io -->
<svg version="1.1" xmlns="http://www.w3.org/2000/svg" width="32" height="32" viewBox="0 0 32 32">
<title>ul-image-check</title>
<path d="M28.947 3.067c-0.241-0.24-0.573-0.388-0.94-0.388s-0.699 0.148-0.94 0.388l0-0-4.507 4.4-1.627-1.6c-0.24-0.236-0.57-0.381-0.933-0.381-0.737 0-1.334 0.597-1.334 1.334 0 0.373 0.153 0.711 0.401 0.953l0 0 2.56 2.507c0.24 0.236 0.57 0.381 0.933 0.381s0.693-0.145 0.934-0.381l-0 0 5.44-5.333c0.244-0.242 0.394-0.577 0.394-0.947 0-0.363-0.145-0.693-0.381-0.933l0 0zM25.333 12c-0.736 0-1.333 0.597-1.333 1.333v0 5.853l-1.973-1.973c-0.669-0.673-1.596-1.090-2.62-1.090s-1.951 0.417-2.62 1.090l-0.934 0.934-3.307-3.32c-0.672-0.667-1.598-1.079-2.62-1.079s-1.948 0.412-2.62 1.079l0-0-1.973 1.973v-7.467c0-0.736 0.597-1.333 1.333-1.333v0h8c0.736 0 1.333-0.597 1.333-1.333s-0.597-1.333-1.333-1.333v0h-8c-2.209 0-4 1.791-4 4v0 16c0 2.209 1.791 4 4 4v0h16c2.209 0 4-1.791 4-4v0-12c0-0.736-0.597-1.333-1.333-1.333v0zM6.667 26.667c-0.736 0-1.333-0.597-1.333-1.333v0-4.76l3.867-3.867c0.189-0.18 0.445-0.291 0.727-0.291s0.538 0.111 0.727 0.291l4.226 4.226 5.72 5.733zM24 25.333c-0.002 0.267-0.092 0.512-0.242 0.71l0.002-0.003-6.013-6.040 0.933-0.933c0.188-0.187 0.447-0.303 0.733-0.303s0.545 0.116 0.733 0.303l-0-0 3.853 3.893z"></path>
</svg>
