<!-- Generated by IcoMoon.io -->
<svg version="1.1" xmlns="http://www.w3.org/2000/svg" width="32" height="32" viewBox="0 0 32 32">
<title>ul-image-minus</title>
<path d="M28 5.344h-5.333c-0.736 0-1.333 0.597-1.333 1.333s0.597 1.333 1.333 1.333v0h5.333c0.736 0 1.333-0.597 1.333-1.333s-0.597-1.333-1.333-1.333v0zM25.333 10.667c-0.736 0-1.333 0.597-1.333 1.333v0 7.189l-1.974-1.974c-0.671-0.669-1.596-1.083-2.619-1.083s-1.948 0.414-2.619 1.083l-0.931 0.931-3.315-3.315c-0.67-0.669-1.595-1.083-2.616-1.083s-1.946 0.414-2.616 1.083l-1.977 1.977v-7.475c0.001-0.736 0.597-1.332 1.333-1.333h10.667c0.736 0 1.333-0.597 1.333-1.333s-0.597-1.333-1.333-1.333v0h-10.667c-2.208 0.003-3.998 1.792-4 4v16c0.002 2.208 1.792 3.997 4 4h16c2.208-0.003 3.997-1.792 4-4v-13.334c0-0.736-0.597-1.333-1.333-1.333v0zM6.667 26.667c-0.736-0.001-1.332-0.597-1.333-1.333v-4.755l3.863-3.863c0.19-0.18 0.448-0.29 0.731-0.29s0.54 0.11 0.731 0.291l-0.001-0 4.224 4.223c0.011 0.012 0.015 0.029 0.027 0.041l5.687 5.687zM24 25.333c-0.007 0.269-0.095 0.517-0.241 0.72l0.003-0.004-6.018-6.018 0.931-0.931c0.188-0.187 0.447-0.303 0.733-0.303s0.545 0.116 0.733 0.303l3.859 3.859z"></path>
</svg>
