<!-- Generated by IcoMoon.io -->
<svg version="1.1" xmlns="http://www.w3.org/2000/svg" width="32" height="32" viewBox="0 0 32 32">
<title>ul-keyhole-square</title>
<path d="M25.333 2.667h-18.667c-2.209 0-4 1.791-4 4v0 18.667c0 2.209 1.791 4 4 4v0h18.667c2.209 0 4-1.791 4-4v0-18.667c0-2.209-1.791-4-4-4v0zM26.667 25.333c0 0.736-0.597 1.333-1.333 1.333v0h-18.667c-0.736 0-1.333-0.597-1.333-1.333v0-18.667c0-0.736 0.597-1.333 1.333-1.333v0h18.667c0.736 0 1.333 0.597 1.333 1.333v0zM16 10.667c-1.473 0-2.667 1.194-2.667 2.667v0c0.006 0.976 0.535 1.826 1.321 2.287l0.013 0.007v4.373c0 0.736 0.597 1.333 1.333 1.333s1.333-0.597 1.333-1.333v0-4.373c0.798-0.467 1.327-1.318 1.333-2.292v-0.001c0-1.473-1.194-2.667-2.667-2.667v0z"></path>
</svg>
