<!-- Generated by IcoMoon.io -->
<svg version="1.1" xmlns="http://www.w3.org/2000/svg" width="32" height="32" viewBox="0 0 32 32">
<title>ul-layers</title>
<path d="M3.333 14.080l12 6.933c0.191 0.112 0.421 0.179 0.667 0.179s0.475-0.066 0.673-0.182l-0.006 0.003 12-6.933c0.4-0.235 0.664-0.663 0.664-1.153s-0.264-0.918-0.658-1.15l-0.006-0.003-12-6.933c-0.191-0.112-0.421-0.179-0.667-0.179s-0.475 0.066-0.673 0.182l0.006-0.003-12 6.933c-0.4 0.235-0.664 0.663-0.664 1.153s0.264 0.918 0.658 1.15l0.006 0.003zM16 7.533l9.333 5.333-9.333 5.4-9.333-5.347zM27.333 17.92l-11.333 6.547-11.333-6.547c-0.193-0.115-0.426-0.183-0.674-0.183-0.489 0-0.917 0.264-1.149 0.657l-0.003 0.006c-0.113 0.192-0.18 0.422-0.18 0.668 0 0.493 0.268 0.924 0.667 1.155l0.006 0.003 12 6.933c0.191 0.112 0.421 0.179 0.667 0.179s0.475-0.066 0.673-0.182l-0.006 0.003 12-6.933c0.405-0.234 0.673-0.665 0.673-1.158 0-0.246-0.067-0.477-0.183-0.675l0.003 0.006c-0.235-0.399-0.663-0.663-1.153-0.663-0.248 0-0.481 0.068-0.68 0.186l0.006-0.003z"></path>
</svg>
