<!-- Generated by IcoMoon.io -->
<svg version="1.1" xmlns="http://www.w3.org/2000/svg" width="32" height="32" viewBox="0 0 32 32">
<title>ul-location-pin-alt</title>
<path d="M16 14.4c1.473 0 2.667-1.194 2.667-2.667s-1.194-2.667-2.667-2.667c-1.473 0-2.667 1.194-2.667 2.667v0c0 1.473 1.194 2.667 2.667 2.667v0zM15.053 23.613c0.242 0.244 0.577 0.394 0.947 0.394s0.705-0.151 0.947-0.394l0-0 5.453-5.467c1.639-1.639 2.653-3.902 2.653-6.403 0-5-4.053-9.053-9.053-9.053s-9.053 4.053-9.053 9.053c0 2.501 1.014 4.765 2.653 6.403l0 0zM9.64 11.12c0.195-1.982 1.267-3.679 2.817-4.719l0.023-0.015c0.992-0.66 2.21-1.052 3.52-1.052s2.528 0.393 3.544 1.067l-0.024-0.015c1.738 1.169 2.867 3.128 2.867 5.351 0 1.767-0.713 3.368-1.867 4.529l-4.52 4.52-4.52-4.52c-1.157-1.152-1.872-2.746-1.872-4.507 0-0.225 0.012-0.448 0.035-0.667l-0.002 0.027zM25.333 26.667h-18.667c-0.736 0-1.333 0.597-1.333 1.333s0.597 1.333 1.333 1.333v0h18.667c0.736 0 1.333-0.597 1.333-1.333s-0.597-1.333-1.333-1.333v0z"></path>
</svg>
