<!-- Generated by IcoMoon.io -->
<svg version="1.1" xmlns="http://www.w3.org/2000/svg" width="32" height="32" viewBox="0 0 32 32">
<title>ul-lira-sign</title>
<path d="M24 16c-0.736 0-1.333 0.597-1.333 1.333v0c-0.006 5.152-4.181 9.327-9.333 9.333h-0.001v-11.819l6.956-1.546c0.6-0.138 1.041-0.668 1.041-1.301 0-0.736-0.597-1.333-1.333-1.333-0.101 0-0.2 0.011-0.295 0.033l0.009-0.002-6.378 1.417v-2.602l6.956-1.546c0.603-0.136 1.047-0.667 1.047-1.302 0-0.736-0.597-1.333-1.333-1.333-0.104 0-0.204 0.012-0.301 0.034l0.009-0.002-6.378 1.417v-2.782c0-0.736-0.597-1.333-1.333-1.333s-1.333 0.597-1.333 1.333v0 3.375l-2.956 0.657c-0.603 0.136-1.047 0.667-1.047 1.302 0 0.736 0.597 1.333 1.333 1.333 0.103 0 0.204-0.012 0.301-0.034l-0.009 0.002 2.378-0.528v2.602l-2.956 0.657c-0.603 0.136-1.047 0.667-1.047 1.302 0 0.736 0.597 1.333 1.333 1.333 0.103 0 0.204-0.012 0.301-0.034l-0.009 0.002 2.378-0.528v12.56c0 0.736 0.597 1.333 1.333 1.333v0h1.333c6.624-0.008 11.992-5.376 12-11.999v-0.001c0-0.736-0.597-1.333-1.333-1.333v0z"></path>
</svg>
