<!-- Generated by IcoMoon.io -->
<svg version="1.1" xmlns="http://www.w3.org/2000/svg" width="32" height="32" viewBox="0 0 32 32">
<title>ul-language</title>
<path d="M28.074 16h-2.667c-0.736 0-1.333 0.597-1.333 1.333s0.597 1.333 1.333 1.333v0 2.667h-1.579c0.151-0.396 0.241-0.853 0.246-1.331l0-0.002c0-0 0-0 0-0.001 0-2.209-1.791-3.999-3.999-3.999-1.473 0-2.76 0.796-3.454 1.982l-0.010 0.019c-0.114 0.192-0.181 0.424-0.181 0.671 0 0.736 0.597 1.333 1.333 1.333 0.493 0 0.924-0.268 1.154-0.666l0.003-0.006c0.235-0.401 0.663-0.665 1.154-0.666h0c0.736 0 1.333 0.597 1.333 1.333s-0.597 1.333-1.333 1.333v0c-0.736 0-1.333 0.597-1.333 1.333s0.597 1.333 1.333 1.333v0c0.736 0 1.333 0.597 1.333 1.333s-0.597 1.333-1.333 1.333v0c-0.49-0.001-0.919-0.265-1.15-0.66l-0.003-0.006c-0.234-0.405-0.665-0.672-1.158-0.672-0.736 0-1.333 0.597-1.333 1.333 0 0.247 0.067 0.479 0.185 0.677l-0.003-0.006c0.704 1.204 1.991 2.001 3.464 2.001 2.209 0 3.999-1.791 3.999-3.999 0-0 0-0 0-0.001v0c-0.005-0.48-0.095-0.938-0.255-1.361l0.009 0.027h1.579v4c0 0.736 0.597 1.333 1.333 1.333s1.333-0.597 1.333-1.333v0-9.333c0.736 0 1.333-0.597 1.333-1.333s-0.597-1.333-1.333-1.333v0zM12.115 14.99c0.15 0.584 0.672 1.009 1.293 1.009 0.736 0 1.333-0.597 1.333-1.333 0-0.115-0.015-0.226-0.042-0.333l0.002 0.009-2.342-9.373c-0.341-1.333-1.532-2.303-2.95-2.303s-2.608 0.97-2.945 2.282l-0.005 0.021-2.344 9.373c-0.025 0.097-0.040 0.209-0.040 0.324 0 0.736 0.597 1.333 1.333 1.333 0.621 0 1.143-0.425 1.291-1l0.002-0.009 0.748-2.99h3.919zM8.115 9.333l0.929-3.716c0.058-0.148 0.199-0.25 0.364-0.25s0.306 0.103 0.363 0.248l0.001 0.003 0.929 3.716zM18.741 9.333h1.333c0.736 0.001 1.333 0.597 1.333 1.333v1.333c0 0.736 0.597 1.333 1.333 1.333s1.333-0.597 1.333-1.333v0-1.333c-0.003-2.208-1.792-3.998-4-4h-1.334c-0.736 0-1.333 0.597-1.333 1.333s0.597 1.333 1.333 1.333v0zM13.408 21.333h-1.333c-0.736-0.001-1.333-0.597-1.333-1.333v-1.333c0-0.736-0.597-1.333-1.333-1.333s-1.333 0.597-1.333 1.333v0 1.333c0.002 2.208 1.792 3.997 4 4h1.334c0.736 0 1.333-0.597 1.333-1.333s-0.597-1.333-1.333-1.333v0z"></path>
</svg>
