<!-- Generated by IcoMoon.io -->
<svg version="1.1" xmlns="http://www.w3.org/2000/svg" width="32" height="32" viewBox="0 0 32 32">
<title>ul-lightbulb</title>
<path d="M23.267 16.613c1.3-1.591 2.088-3.646 2.088-5.884 0-2.904-1.326-5.498-3.406-7.21l-0.016-0.013c-1.604-1.294-3.666-2.077-5.912-2.077-0.702 0-1.386 0.077-2.044 0.222l0.063-0.012c-4.217 0.957-7.318 4.673-7.318 9.113 0 2.18 0.747 4.185 1.999 5.773l-0.015-0.020c0.854 1.032 1.389 2.356 1.44 3.802l0 0.011v0.387c-0.49 0.474-0.799 1.133-0.813 1.864l-0 0.003v2.667c0 1.473 1.194 2.667 2.667 2.667v0 1.333c0 0.736 0.597 1.333 1.333 1.333s1.333-0.597 1.333-1.333v0-1.333h2.667v1.333c0 0.736 0.597 1.333 1.333 1.333s1.333-0.597 1.333-1.333v0-1.333c1.473 0 2.667-1.194 2.667-2.667v0-2.667c0-0.001 0-0.002 0-0.002 0-0.726-0.29-1.384-0.76-1.865l0 0v-0.573c0.042-1.351 0.549-2.576 1.366-3.528l-0.006 0.008zM12 25.24v-2.667h8v2.667zM21.187 14.947c-1.137 1.335-1.859 3.056-1.946 4.942l-0.001 0.018h-6.493c-0.135-1.931-0.868-3.669-2.012-5.055l0.012 0.015c-0.905-1.128-1.453-2.578-1.453-4.155 0-3.176 2.221-5.834 5.195-6.504l0.045-0.008c0.441-0.104 0.947-0.163 1.467-0.163 3.682 0 6.667 2.985 6.667 6.667 0 0.020-0 0.040-0 0.060l0-0.003c0 0.011 0 0.023 0 0.036 0 1.58-0.559 3.030-1.489 4.162l0.009-0.011z"></path>
</svg>
