<!-- Generated by IcoMoon.io -->
<svg version="1.1" xmlns="http://www.w3.org/2000/svg" width="32" height="32" viewBox="0 0 32 32">
<title>ul-modem</title>
<path d="M28.64 17.507c-0.009-0.098-0.032-0.189-0.069-0.272l0.002 0.006c-0.031-0.087-0.067-0.162-0.11-0.232l0.003 0.005c-0.040-0.081-0.084-0.151-0.135-0.216l0.002 0.002-0.213-0.173-0.12-0.12-19.627-11.333c-0.191-0.112-0.421-0.178-0.667-0.178-0.739 0-1.338 0.599-1.338 1.338 0 0.494 0.267 0.925 0.665 1.157l0.006 0.003 15.32 8.84h-17.693c-0.736 0-1.333 0.597-1.333 1.333v0 5.333c0 2.209 1.791 4 4 4v0h17.333c2.209 0 4-1.791 4-4v0-5.333s-0.027-0.107-0.027-0.16zM25.973 23c0 0.736-0.597 1.333-1.333 1.333v0h-17.307c-0.736 0-1.333-0.597-1.333-1.333v0-4h20zM21.973 23c0.736 0 1.333-0.597 1.333-1.333s-0.597-1.333-1.333-1.333c-0.736 0-1.333 0.597-1.333 1.333v0c0 0 0 0 0 0 0 0.736 0.597 1.333 1.333 1.333 0.009 0 0.019-0 0.028-0l-0.001 0z"></path>
</svg>
