<!-- Generated by IcoMoon.io -->
<svg version="1.1" xmlns="http://www.w3.org/2000/svg" width="32" height="32" viewBox="0 0 32 32">
<title>ul-moneybag</title>
<path d="M16 14.667c-2.209 0-4 1.791-4 4s1.791 4 4 4c2.209 0 4-1.791 4-4v0c0-2.209-1.791-4-4-4v0zM16 20c-0.736 0-1.333-0.597-1.333-1.333s0.597-1.333 1.333-1.333c0.736 0 1.333 0.597 1.333 1.333v0c0 0.736-0.597 1.333-1.333 1.333v0zM25.333 8h-4v-1.333c0-2.209-1.791-4-4-4v0h-2.667c-2.209 0-4 1.791-4 4v0 1.333h-4c-2.209 0-4 1.791-4 4v0 13.333c0 2.209 1.791 4 4 4v0h18.667c2.209 0 4-1.791 4-4v0-13.333c0-2.209-1.791-4-4-4v0zM13.333 6.667c0-0.736 0.597-1.333 1.333-1.333v0h2.667c0.736 0 1.333 0.597 1.333 1.333v0 1.333h-5.333zM5.333 12c0-0.736 0.597-1.333 1.333-1.333v0h1.333c0 1.473-1.194 2.667-2.667 2.667v0zM6.667 26.667c-0.736 0-1.333-0.597-1.333-1.333v0-1.333c1.473 0 2.667 1.194 2.667 2.667v0zM26.667 25.333c0 0.736-0.597 1.333-1.333 1.333v0h-1.333c0-1.473 1.194-2.667 2.667-2.667v0zM26.667 21.333c-2.946 0-5.333 2.388-5.333 5.333v0h-10.667c0-2.946-2.388-5.333-5.333-5.333v0-5.333c2.946 0 5.333-2.388 5.333-5.333v0h10.667c0 2.946 2.388 5.333 5.333 5.333v0zM26.667 13.333c-1.473 0-2.667-1.194-2.667-2.667v0h1.333c0.736 0 1.333 0.597 1.333 1.333v0z"></path>
</svg>
