<!-- Generated by IcoMoon.io -->
<svg version="1.1" xmlns="http://www.w3.org/2000/svg" width="32" height="32" viewBox="0 0 32 32">
<title>ul-microscope</title>
<path d="M26.667 28.007h-6.912c0.083-0.227 0.15-0.493 0.188-0.768l0.002-0.021c3.952-1.621 6.691-5.426 6.722-9.874l0-0.004c0-0.005 0-0.010 0-0.015 0-2.79-1.079-5.329-2.842-7.221l0.006 0.006 0.85-0.85c0.143-0.142 0.253-0.317 0.319-0.511l0.003-0.009 0.944-2.829c0.044-0.126 0.069-0.271 0.069-0.422 0-0.368-0.149-0.701-0.39-0.942l-2.829-2.829c-0.241-0.242-0.574-0.391-0.942-0.391-0.151 0-0.296 0.025-0.431 0.071l0.009-0.003-2.828 0.943c-0.204 0.069-0.379 0.18-0.521 0.322l-8.483 8.484c-0.241 0.241-0.391 0.575-0.391 0.943s0.149 0.701 0.391 0.943v0l-1.888 1.888c-0.241 0.241-0.391 0.575-0.391 0.943s0.149 0.701 0.391 0.943l2.829 2.828c0.241 0.241 0.575 0.391 0.943 0.391s0.701-0.149 0.943-0.391l1.885-1.885 0.003 0.003c0.241 0.241 0.575 0.391 0.943 0.391s0.701-0.149 0.943-0.391l5.746-5.749c1.275 1.404 2.056 3.276 2.056 5.332 0 0.004 0 0.008 0 0.012v-0.001c-0.018 3.18-1.874 5.922-4.558 7.22l-0.048 0.021c-0.708-1.152-1.962-1.908-3.392-1.908-1.464 0-2.743 0.793-3.431 1.973l-0.010 0.019c-0.576-0.224-1.067-0.473-1.53-0.762l0.038 0.022c0.541-0.17 0.928-0.665 0.931-1.252v-0c0-0 0-0 0-0 0-0.736-0.597-1.333-1.333-1.333-0 0-0 0-0 0h-5.333c-0.736 0-1.333 0.597-1.333 1.333s0.597 1.333 1.333 1.333v0h1.775c1.317 1.474 2.984 2.607 4.873 3.272l0.082 0.025c0.044 0.267 0.107 0.504 0.191 0.731l-0.009-0.027h-6.912c-0.736 0-1.333 0.597-1.333 1.333s0.597 1.333 1.333 1.333v0h21.333c0.736 0 1.333-0.597 1.333-1.333s-0.597-1.333-1.333-1.333v0zM11.482 16.802l-0.944-0.943 0.944-0.943 0.943 0.943zM22.572 7.598l-7.316 7.321-2.829-2.832 7.318-7.318 1.749-0.583 1.663 1.663zM16 28.007c-0.736 0-1.333-0.597-1.333-1.333s0.597-1.333 1.333-1.333c0.736 0 1.333 0.597 1.333 1.333v0c-0.001 0.736-0.597 1.333-1.333 1.333h-0z"></path>
</svg>
