<!-- Generated by IcoMoon.io -->
<svg version="1.1" xmlns="http://www.w3.org/2000/svg" width="32" height="32" viewBox="0 0 32 32">
<title>ul-presentation-line</title>
<path d="M28 18.667h-1.333v-14.667c0-0.736-0.597-1.333-1.333-1.333v0h-18.667c-0.736 0-1.333 0.597-1.333 1.333v0 14.667h-1.333c-0.736 0-1.333 0.597-1.333 1.333s0.597 1.333 1.333 1.333v0h10.667v1.533l-6.067 4c-0.382 0.239-0.632 0.657-0.632 1.134 0 0.736 0.597 1.333 1.333 1.333 0.011 0 0.022-0 0.033-0l-0.002 0c0.004 0 0.009 0 0.014 0 0.269 0 0.519-0.085 0.723-0.229l-0.004 0.003 4.6-3.040v1.933c0 0.736 0.597 1.333 1.333 1.333s1.333-0.597 1.333-1.333v0-1.933l4.6 3.040c0.2 0.142 0.45 0.227 0.719 0.227 0.005 0 0.010-0 0.015-0h-0.001c0.732-0.006 1.323-0.601 1.323-1.333 0-0.459-0.232-0.864-0.585-1.104l-0.005-0.003-6.067-4v-1.56h10.667c0.736 0 1.333-0.597 1.333-1.333s-0.597-1.333-1.333-1.333v0zM24 18.667h-16v-13.333h16zM12 16c0.461-0.002 0.866-0.238 1.104-0.595l0.003-0.005 1.773-2.667 1.507 1.52c0.242 0.243 0.576 0.393 0.946 0.393 0.047 0 0.094-0.002 0.14-0.007l-0.006 0.001c0.409-0.046 0.758-0.272 0.97-0.595l0.003-0.005 2.667-4c0.1-0.182 0.158-0.399 0.158-0.63 0-0.736-0.597-1.333-1.333-1.333-0.419 0-0.792 0.193-1.036 0.494l-0.002 0.002-1.773 2.667-1.507-1.52c-0.242-0.243-0.576-0.393-0.946-0.393-0.047 0-0.094 0.002-0.14 0.007l0.006-0.001c-0.409 0.046-0.758 0.272-0.97 0.595l-0.003 0.005-2.667 4c-0.137 0.206-0.219 0.459-0.219 0.732 0 0.46 0.233 0.866 0.587 1.105l0.005 0.003c0.2 0.142 0.45 0.227 0.719 0.227 0.005 0 0.010-0 0.015-0h-0.001z"></path>
</svg>
