<!-- Generated by IcoMoon.io -->
<svg version="1.1" xmlns="http://www.w3.org/2000/svg" width="32" height="32" viewBox="0 0 32 32">
<title>ul-pizza-slice</title>
<path d="M11.347 16.64c-0.736 0-1.333 0.597-1.333 1.333s0.597 1.333 1.333 1.333c0.736 0 1.333-0.597 1.333-1.333v0c0-0.736-0.597-1.333-1.333-1.333v0zM11.347 10.667c-0.736 0-1.333 0.597-1.333 1.333s0.597 1.333 1.333 1.333c0.736 0 1.333-0.597 1.333-1.333v0c0-0.736-0.597-1.333-1.333-1.333v0zM16 13.333c-0.736 0-1.333 0.597-1.333 1.333v0 1.333c0 0.736 0.597 1.333 1.333 1.333s1.333-0.597 1.333-1.333v0-1.333c0-0.736-0.597-1.333-1.333-1.333v0zM27.333 11.427v0c-0.573-0.335-1.261-0.533-1.995-0.533-0.381 0-0.751 0.053-1.1 0.153l0.028-0.007c-0.559 0.153-1.046 0.41-1.46 0.752l0.007-0.005-15.467-8.947c-0.191-0.112-0.421-0.179-0.667-0.179s-0.475 0.066-0.673 0.182l0.006-0.003c-0.408 0.233-0.679 0.665-0.68 1.16v17.56c-1.564 0.539-2.667 1.998-2.667 3.714 0 0.021 0 0.041 0 0.062l-0-0.003c0 0 0 0.001 0 0.001 0 2.172 1.731 3.939 3.888 3.998l0.005 0h0.773c9.161-0.022 17.151-5.017 21.416-12.427l0.064-0.12c0.309-0.554 0.491-1.216 0.491-1.921 0-1.456-0.777-2.73-1.94-3.429l-0.018-0.010zM8 6.307l13.187 7.613c-2.916 4.307-7.693 7.164-13.15 7.412l-0.036 0.001zM26.493 15.48c-3.874 6.734-11.029 11.195-19.226 11.195-0.211 0-0.422-0.003-0.632-0.009l0.031 0.001c-0.736 0-1.333-0.597-1.333-1.333v0c0-0.002-0-0.005-0-0.008 0-0.373 0.153-0.71 0.4-0.952l0-0c0.239-0.231 0.566-0.373 0.925-0.373 0.003 0 0.006 0 0.008 0h0.68c7.18-0.003 13.445-3.92 16.777-9.732l0.050-0.094c0.164-0.292 0.438-0.505 0.765-0.585l0.008-0.002c0.106-0.030 0.227-0.048 0.353-0.048 0.238 0 0.461 0.062 0.654 0.171l-0.007-0.003c0.421 0.23 0.702 0.669 0.702 1.174 0 0.218-0.052 0.425-0.146 0.606l0.003-0.008z"></path>
</svg>
