<!-- Generated by IcoMoon.io -->
<svg version="1.1" xmlns="http://www.w3.org/2000/svg" width="32" height="32" viewBox="0 0 32 32">
<title>ul-plane-arrival</title>
<path d="M28.16 21.64c-0.479-1.715-1.578-3.119-3.036-3.983l-0.031-0.017-2.813-1.64-0.64-7.293c-0.038-0.444-0.288-0.822-0.647-1.037l-0.006-0.003-4-2.293c-0.191-0.112-0.421-0.179-0.667-0.179s-0.475 0.066-0.673 0.182l0.006-0.003c-0.402 0.223-0.675 0.638-0.693 1.117l-0 0.003-0.2 5.2-2.333-1.333-3.813-5.133c-0.246-0.324-0.631-0.531-1.065-0.531-0.646 0-1.184 0.459-1.307 1.069l-0.001 0.009-1.16 6.147c-0.072 0.283-0.113 0.608-0.113 0.942 0 1.459 0.781 2.735 1.948 3.434l0.018 0.010 18.747 10.813c0.193 0.116 0.427 0.184 0.676 0.184 0.479 0 0.899-0.253 1.134-0.632l0.003-0.006c0.564-0.947 0.897-2.088 0.897-3.307 0-0.612-0.084-1.204-0.241-1.766l0.011 0.046zM25.653 24l-17.387-10c-0.386-0.238-0.639-0.659-0.639-1.138 0-0.131 0.019-0.258 0.054-0.378l-0.002 0.009 0.613-3.253 2.213 2.933c0.108 0.146 0.241 0.266 0.394 0.357l0.006 0.003 4.467 2.587c0.191 0.113 0.422 0.179 0.668 0.179 0.72 0 1.306-0.57 1.332-1.283l0-0.002 0.213-5.2 1.453 0.84 0.64 7.293c0.041 0.446 0.296 0.825 0.66 1.037l0.006 0.003 3.413 2.013c0.886 0.518 1.539 1.353 1.807 2.346l0.006 0.027c0.086 0.296 0.136 0.636 0.136 0.988 0 0.226-0.020 0.446-0.060 0.661l0.003-0.022z"></path>
</svg>
