<!-- Generated by IcoMoon.io -->
<svg version="1.1" xmlns="http://www.w3.org/2000/svg" width="32" height="32" viewBox="0 0 32 32">
<title>ul-slack</title>
<path d="M2.667 19.56c0 1.473 1.194 2.667 2.667 2.667s2.667-1.194 2.667-2.667v0-2.667h-2.667c-1.473 0-2.667 1.194-2.667 2.667v0zM19.52 15.107c1.473 0 2.667-1.194 2.667-2.667v0-7.107c0-1.473-1.194-2.667-2.667-2.667s-2.667 1.194-2.667 2.667v0 7.107c0 0 0 0 0 0 0 1.473 1.194 2.667 2.667 2.667 0.009 0 0.019-0 0.028-0h-0.001zM29.28 12.44c0-1.473-1.194-2.667-2.667-2.667s-2.667 1.194-2.667 2.667v0 2.667h2.667c0.016 0 0.035 0.001 0.053 0.001 1.473 0 2.667-1.194 2.667-2.667 0-0 0-0 0-0.001v0zM12.453 16.893c-1.473 0-2.667 1.194-2.667 2.667v0 7.107c0 1.473 1.194 2.667 2.667 2.667s2.667-1.194 2.667-2.667v0-7.107c0-1.473-1.194-2.667-2.667-2.667v0zM19.547 24h-2.667v2.667c0 1.473 1.194 2.667 2.667 2.667s2.667-1.194 2.667-2.667c0-1.473-1.194-2.667-2.667-2.667v0zM26.667 16.893h-7.12c-1.473 0-2.667 1.194-2.667 2.667s1.194 2.667 2.667 2.667v0h7.12c1.473 0 2.667-1.194 2.667-2.667s-1.194-2.667-2.667-2.667v0zM12.453 9.773h-7.12c-1.473 0-2.667 1.194-2.667 2.667s1.194 2.667 2.667 2.667v0h7.12c1.473 0 2.667-1.194 2.667-2.667s-1.194-2.667-2.667-2.667v0zM12.453 2.667c-1.473 0-2.667 1.194-2.667 2.667s1.194 2.667 2.667 2.667v0h2.667v-2.667c0-1.473-1.194-2.667-2.667-2.667v0z"></path>
</svg>
