<!-- Generated by IcoMoon.io -->
<svg version="1.1" xmlns="http://www.w3.org/2000/svg" width="32" height="32" viewBox="0 0 32 32">
<title>ul-server-network</title>
<path d="M10.667 8c0.736 0 1.333-0.597 1.333-1.333s-0.597-1.333-1.333-1.333c-0.736 0-1.333 0.597-1.333 1.333v0c0 0.736 0.597 1.333 1.333 1.333v0zM28 25.333h-8.24c-0.412-1.135-1.291-2.014-2.399-2.418l-0.028-0.009v-2.907h5.333c2.209 0 4-1.791 4-4v0-2.667c-0.006-1.029-0.4-1.965-1.043-2.67l0.003 0.003c0.64-0.702 1.034-1.638 1.040-2.665v-2.668c0-2.209-1.791-4-4-4v0h-13.333c-2.209 0-4 1.791-4 4v0 2.667c0.006 1.029 0.4 1.965 1.043 2.67l-0.003-0.003c-0.64 0.702-1.034 1.638-1.040 2.665v2.668c0 2.209 1.791 4 4 4v0h5.333v2.907c-1.135 0.412-2.014 1.291-2.418 2.399l-0.009 0.028h-8.24c-0.736 0-1.333 0.597-1.333 1.333s0.597 1.333 1.333 1.333v0h8.24c0.574 1.55 2.040 2.635 3.76 2.635s3.186-1.085 3.751-2.608l0.009-0.028h8.24c0.736 0 1.333-0.597 1.333-1.333s-0.597-1.333-1.333-1.333v0zM8 5.333c0-0.736 0.597-1.333 1.333-1.333v0h13.333c0.736 0 1.333 0.597 1.333 1.333v0 2.667c0 0.736-0.597 1.333-1.333 1.333v0h-13.333c-0.736 0-1.333-0.597-1.333-1.333v0zM9.333 17.333c-0.736 0-1.333-0.597-1.333-1.333v0-2.667c0-0.736 0.597-1.333 1.333-1.333v0h13.333c0.736 0 1.333 0.597 1.333 1.333v0 2.667c0 0.736-0.597 1.333-1.333 1.333v0zM16 28c-0.736 0-1.333-0.597-1.333-1.333s0.597-1.333 1.333-1.333c0.736 0 1.333 0.597 1.333 1.333v0c0 0.736-0.597 1.333-1.333 1.333v0zM10.667 13.333c-0.736 0-1.333 0.597-1.333 1.333s0.597 1.333 1.333 1.333c0.736 0 1.333-0.597 1.333-1.333v0c0-0.736-0.597-1.333-1.333-1.333v0z"></path>
</svg>
