<!-- Generated by IcoMoon.io -->
<svg version="1.1" xmlns="http://www.w3.org/2000/svg" width="32" height="32" viewBox="0 0 32 32">
<title>ul-step-backward-alt</title>
<path d="M25.333 4c-2.209 0-4 1.791-4 4v0 16c0 2.209 1.791 4 4 4s4-1.791 4-4v0-16c0-2.209-1.791-4-4-4v0zM26.667 24c0 0.736-0.597 1.333-1.333 1.333s-1.333-0.597-1.333-1.333v0-16c0-0.736 0.597-1.333 1.333-1.333s1.333 0.597 1.333 1.333v0zM16.84 7.507c-0.504-0.302-1.111-0.48-1.76-0.48s-1.256 0.178-1.776 0.489l0.016-0.009-8.893 5.333c-1.064 0.655-1.762 1.812-1.762 3.133s0.699 2.479 1.746 3.124l0.016 0.009 8.893 5.333c0.503 0.306 1.11 0.487 1.76 0.487s1.257-0.181 1.775-0.495l-0.015 0.009c1.084-0.634 1.805-1.784 1.827-3.104l0-0.003v-10.667c-0.001-1.344-0.728-2.517-1.809-3.151l-0.017-0.009zM16 21.333c0 0.006 0 0.014 0 0.022 0 0.354-0.191 0.662-0.476 0.829l-0.005 0.002c-0.12 0.073-0.265 0.117-0.42 0.117s-0.3-0.043-0.424-0.119l0.004 0.002-8.88-5.333c-0.283-0.183-0.467-0.497-0.467-0.853s0.184-0.67 0.463-0.851l0.004-0.002 8.88-5.333c0.122-0.074 0.269-0.119 0.426-0.12h0c0 0 0 0 0 0 0.152 0 0.294 0.040 0.417 0.109l-0.004-0.002c0.289 0.169 0.481 0.478 0.481 0.832 0 0.012-0 0.024-0.001 0.037l0-0.002z"></path>
</svg>
