<!-- Generated by IcoMoon.io -->
<svg version="1.1" xmlns="http://www.w3.org/2000/svg" width="32" height="32" viewBox="0 0 32 32">
<title>ul-tachometer-fast-alt</title>
<path d="M16 6.667c-7.364 0-13.333 5.97-13.333 13.333 0 2.455 0.663 4.754 1.82 6.73l-0.034-0.063c0.235 0.404 0.666 0.671 1.16 0.671 0.739 0 1.338-0.599 1.338-1.338 0-0.245-0.066-0.475-0.181-0.673l0.003 0.006c-0.905-1.525-1.44-3.362-1.44-5.323 0-0.003 0-0.007 0-0.010v0.001c0.002-5.889 4.777-10.662 10.667-10.662 5.891 0 10.667 4.776 10.667 10.667 0 1.962-0.53 3.8-1.454 5.38l0.027-0.050c-0.113 0.192-0.18 0.422-0.18 0.668 0 0.493 0.268 0.924 0.667 1.155l0.006 0.003c0.189 0.109 0.416 0.174 0.658 0.174 0.491 0 0.92-0.266 1.152-0.661l0.003-0.006c1.123-1.912 1.786-4.212 1.786-6.667 0-7.364-5.969-13.333-13.333-13.333h-0zM19.787 14.347l-2.067 2.053c-0.501-0.252-1.091-0.4-1.716-0.4-0.001 0-0.003 0-0.004 0h0c-2.209 0-4 1.791-4 4s1.791 4 4 4c2.209 0 4-1.791 4-4v0c-0.001-0.622-0.149-1.209-0.41-1.729l0.010 0.022 2.067-2.053c0.244-0.242 0.394-0.577 0.394-0.947s-0.151-0.705-0.394-0.947l-0-0c-0.241-0.24-0.573-0.388-0.94-0.388s-0.699 0.148-0.94 0.388l0-0zM16 21.333c-0.736 0-1.333-0.597-1.333-1.333s0.597-1.333 1.333-1.333v0c0.002 0 0.005-0 0.008-0 0.36 0 0.686 0.142 0.926 0.374l-0-0c0.247 0.242 0.4 0.579 0.4 0.952 0 0.003 0 0.005-0 0.008v-0c0 0.736-0.597 1.333-1.333 1.333v0z"></path>
</svg>
