<!-- Generated by IcoMoon.io -->
<svg version="1.1" xmlns="http://www.w3.org/2000/svg" width="32" height="32" viewBox="0 0 32 32">
<title>ul-tv-retro-slash</title>
<path d="M15.493 10.56c0.149 0.065 0.323 0.104 0.506 0.107h8.001c0.736 0 1.333 0.597 1.333 1.333v0 7.12c0 0.736 0.597 1.333 1.333 1.333s1.333-0.597 1.333-1.333v0-7.12c0-2.209-1.791-4-4-4v0h-4.787l3.067-3.053c0.242-0.242 0.392-0.577 0.392-0.947 0-0.739-0.599-1.339-1.339-1.339-0.37 0-0.704 0.15-0.947 0.392l-5.333 5.333c-0.118 0.123-0.213 0.269-0.277 0.431l-0.003 0.009c-0.063 0.15-0.1 0.324-0.1 0.507s0.037 0.357 0.103 0.515l-0.003-0.009c0.138 0.327 0.393 0.582 0.711 0.717l0.009 0.003zM28.947 27.053l-24-24c-0.242-0.242-0.577-0.392-0.947-0.392-0.739 0-1.339 0.599-1.339 1.339 0 0.37 0.15 0.704 0.392 0.947v0l3.387 3.373c-1.445 0.624-2.439 2.036-2.44 3.68v10.667c0 2.209 1.791 4 4 4v0 1.333c0 0.736 0.597 1.333 1.333 1.333s1.333-0.597 1.333-1.333v0-1.333h10.667v1.333c0 0.736 0.597 1.333 1.333 1.333s1.333-0.597 1.333-1.333v0-1.333c0.254-0.007 0.497-0.036 0.733-0.085l-0.027 0.005 2.347 2.36c0.242 0.244 0.577 0.394 0.947 0.394s0.705-0.151 0.947-0.394l0-0c0.244-0.242 0.394-0.577 0.394-0.947s-0.151-0.705-0.394-0.947l-0-0zM8 24c-0.736 0-1.333-0.597-1.333-1.333v0-10.667c0-0.736 0.597-1.333 1.333-1.333v0h0.787l13.333 13.333z"></path>
</svg>
