<!-- Generated by IcoMoon.io -->
<svg version="1.1" xmlns="http://www.w3.org/2000/svg" width="32" height="32" viewBox="0 0 32 32">
<title>ul-tumblr-square</title>
<path d="M2.667 2.667v26.667h26.667v-26.667zM18.093 23.8c-0.14 0.015-0.303 0.024-0.467 0.024-2.479 0-4.494-1.99-4.533-4.46l-0-0.004v-5.44h-1.68v-2.147c1.838-0.726 3.137-2.438 3.253-4.466l0.001-0.014c0-0.066 0.054-0.12 0.12-0.12v0h2.427v4.227h3.333v2.52h-3.32v5.187c-0.006 0.050-0.009 0.107-0.009 0.166 0 0.817 0.663 1.48 1.48 1.48 0.046 0 0.091-0.002 0.135-0.006l-0.006 0c0.486-0.023 0.941-0.128 1.36-0.303l-0.026 0.010 0.8 2.373c-0.755 0.607-1.724 0.974-2.78 0.974-0.031 0-0.061-0-0.091-0.001l0.005 0z"></path>
</svg>
