<!-- Generated by IcoMoon.io -->
<svg version="1.1" xmlns="http://www.w3.org/2000/svg" width="32" height="32" viewBox="0 0 32 32">
<title>ul-user-location</title>
<path d="M19.32 14.48c0.492-0.67 0.787-1.511 0.787-2.421 0-2.275-1.845-4.12-4.12-4.12s-4.12 1.845-4.12 4.12c0 0.91 0.295 1.751 0.795 2.433l-0.008-0.012c-0.577 0.372-1.070 0.813-1.484 1.322l-0.009 0.011c-0.179 0.23-0.287 0.522-0.287 0.84 0 0.759 0.615 1.373 1.373 1.373 0.441 0 0.833-0.208 1.084-0.53l0.002-0.003c0.643-0.812 1.627-1.329 2.733-1.333h0.001c1.106 0.004 2.090 0.521 2.728 1.326l0.006 0.007c0.246 0.302 0.619 0.493 1.035 0.493 0.002 0 0.003 0 0.005 0h-0c0.734-0.003 1.327-0.599 1.327-1.333 0-0.314-0.108-0.602-0.289-0.829l0.002 0.003c-0.44-0.529-0.956-0.976-1.533-1.331l-0.027-0.015zM16 13.507v0c-0.802-0.001-1.452-0.651-1.452-1.453s0.651-1.453 1.453-1.453c0.784 0 1.423 0.621 1.452 1.397l0 0.003c0.001 0.016 0.001 0.035 0.001 0.053 0 0.803-0.651 1.453-1.453 1.453-0 0-0.001 0-0.001 0h0zM27.28 12.84c-0.571-5.775-5.404-10.249-11.281-10.249-2.334 0-4.503 0.706-6.306 1.915l0.041-0.026c-2.769 1.87-4.656 4.864-5.009 8.311l-0.004 0.049c-0.034 0.33-0.054 0.713-0.054 1.101 0 3.13 1.275 5.962 3.333 8.005l0.001 0.001 7.067 7.080c0.242 0.244 0.577 0.394 0.947 0.394s0.705-0.151 0.947-0.394l0-0 7.040-7.080c2.059-2.044 3.334-4.876 3.334-8.006 0-0.388-0.020-0.771-0.058-1.148l0.004 0.048zM22.133 20.067l-6.133 6.133-6.133-6.133c-1.566-1.566-2.534-3.729-2.534-6.119 0-0.296 0.015-0.589 0.044-0.878l-0.003 0.036c0.268-2.694 1.721-5.001 3.822-6.42l0.031-0.020c1.342-0.903 2.995-1.441 4.773-1.441s3.431 0.538 4.804 1.461l-0.031-0.020c2.126 1.434 3.577 3.73 3.85 6.376l0.003 0.037c0.028 0.26 0.043 0.561 0.043 0.866 0 2.391-0.969 4.555-2.537 6.121l-0 0z"></path>
</svg>
