<!-- Generated by IcoMoon.io -->
<svg version="1.1" xmlns="http://www.w3.org/2000/svg" width="32" height="32" viewBox="0 0 32 32">
<title>ul-user-check</title>
<path d="M17.733 16.293c1.392-1.21 2.267-2.983 2.267-4.96 0-0 0-0 0-0v0c0-3.682-2.985-6.667-6.667-6.667s-6.667 2.985-6.667 6.667v0c0 0 0 0 0 0 0 1.977 0.875 3.75 2.259 4.953l0.008 0.007c-3.723 1.716-6.262 5.414-6.267 9.706v0.001c0 0.736 0.597 1.333 1.333 1.333s1.333-0.597 1.333-1.333v0c0-4.418 3.582-8 8-8s8 3.582 8 8v0c0 0.736 0.597 1.333 1.333 1.333s1.333-0.597 1.333-1.333v0c-0.004-4.292-2.543-7.991-6.201-9.679l-0.066-0.027zM13.333 15.333c-2.209 0-4-1.791-4-4s1.791-4 4-4c2.209 0 4 1.791 4 4v0c0 2.209-1.791 4-4 4v0zM28.947 12.173c-0.242-0.244-0.577-0.394-0.947-0.394s-0.705 0.151-0.947 0.394l-2.667 2.667-0.827-0.84c-0.242-0.244-0.577-0.394-0.947-0.394s-0.705 0.151-0.947 0.394l-0 0c-0.24 0.241-0.388 0.573-0.388 0.94s0.148 0.699 0.388 0.94l1.787 1.787c0.241 0.24 0.573 0.388 0.94 0.388s0.699-0.148 0.94-0.388l3.56-3.56c0.272-0.245 0.442-0.599 0.442-0.992 0-0.367-0.149-0.7-0.389-0.941l0 0z"></path>
</svg>
