<!-- Generated by IcoMoon.io -->
<svg version="1.1" xmlns="http://www.w3.org/2000/svg" width="32" height="32" viewBox="0 0 32 32">
<title>ul-video-slash</title>
<path d="M10.28 8.387v0l-5.333-5.333c-0.242-0.242-0.577-0.392-0.947-0.392-0.739 0-1.339 0.599-1.339 1.339 0 0.37 0.15 0.704 0.392 0.947v0l3.107 3.053c-1.98 0.26-3.493 1.937-3.493 3.968 0 0.011 0 0.023 0 0.034v-0.002 8c0 2.209 1.791 4 4 4v0h12c0.966-0.005 1.851-0.351 2.54-0.925l-0.006 0.005 5.853 5.867c0.242 0.244 0.577 0.394 0.947 0.394s0.705-0.151 0.947-0.394l0-0c0.244-0.242 0.394-0.577 0.394-0.947s-0.151-0.705-0.394-0.947l-0-0zM18.667 21.333h-12c-0.736 0-1.333-0.597-1.333-1.333v0-8c0-0.736 0.597-1.333 1.333-1.333v0h2.12l10.493 10.507c-0.177 0.098-0.388 0.156-0.612 0.16h-0.001zM28.707 9.533c-0.191-0.112-0.421-0.179-0.667-0.179s-0.475 0.066-0.673 0.182l0.006-0.003-4.707 2.32c-0.081-2.145-1.84-3.853-3.997-3.853-0.001 0-0.002 0-0.003 0h-1.787c-0.736 0-1.333 0.597-1.333 1.333s0.597 1.333 1.333 1.333v0h1.787c0.736 0 1.333 0.597 1.333 1.333v0 2c-0.002 0.038-0.004 0.082-0.004 0.127s0.001 0.089 0.004 0.133l-0-0.006c0.009 0.098 0.032 0.189 0.069 0.272l-0.002-0.006s0.067 0.080 0.093 0.133c0.058 0.107 0.124 0.199 0.201 0.281l-0.001-0.001s0.133 0.080 0.2 0.133l0.227 0.147c0.046 0.007 0.099 0.010 0.153 0.010s0.107-0.004 0.159-0.011l-0.006 0.001c0.028 0.003 0.060 0.005 0.093 0.005s0.065-0.002 0.097-0.005l-0.004 0c0.038 0.002 0.082 0.004 0.127 0.004s0.089-0.001 0.133-0.004l-0.006 0c0.098-0.009 0.189-0.032 0.272-0.069l-0.006 0.002 4.867-2.32v7.627c0 0.736 0.597 1.333 1.333 1.333s1.333-0.597 1.333-1.333v0-9.787c0-0.001 0-0.002 0-0.003 0-0.475-0.248-0.891-0.621-1.127l-0.005-0.003z"></path>
</svg>
