<!-- Generated by IcoMoon.io -->
<svg version="1.1" xmlns="http://www.w3.org/2000/svg" width="32" height="32" viewBox="0 0 32 32">
<title>ul-volleyball</title>
<path d="M27.453 9.2c-0.031-0.051-0.061-0.094-0.095-0.135l0.002 0.002c-2.38-3.869-6.591-6.41-11.395-6.41-2.122 0-4.129 0.496-5.91 1.378l0.078-0.035h-0.093c-4.327 2.263-7.229 6.719-7.229 11.854 0 4.59 2.319 8.638 5.849 11.036l0.047 0.030 0.44 0.267 0.133 0.093c1.906 1.226 4.218 1.981 6.701 2.053l0.019 0h0.28c7.236-0.165 13.040-6.070 13.040-13.33 0-2.51-0.694-4.858-1.9-6.863l0.034 0.060zM25.333 10.747c0.328 0.556 0.621 1.2 0.846 1.875l0.021 0.072c-1.192-0.402-2.566-0.64-3.993-0.653l-0.007-0c-0.062-0.013-0.134-0.020-0.207-0.020s-0.145 0.007-0.214 0.021l0.007-0.001c-1.727 0.024-3.364 0.379-4.859 1.005l0.086-0.032c-0.945-0.598-1.754-1.305-2.441-2.118l-0.013-0.015c1.576-0.939 3.475-1.495 5.504-1.495 1.934 0 3.75 0.505 5.324 1.39l-0.055-0.028zM16 5.333c0.016-0 0.035-0 0.054-0 1.945 0 3.767 0.53 5.328 1.453l-0.049-0.027c-0.398-0.057-0.861-0.091-1.33-0.093h-0.003c-2.565 0.005-4.959 0.734-6.99 1.993l0.057-0.033c-0.367-0.745-0.662-1.611-0.842-2.519l-0.011-0.068c1.123-0.446 2.424-0.705 3.786-0.707h0.001zM8 8.947c0.529-0.587 1.11-1.108 1.741-1.564l0.032-0.022c0.937 3.498 3.181 6.359 6.163 8.086l0.063 0.034c-0.104 1.415-0.471 2.721-1.054 3.902l0.027-0.062c-4.099-1.544-6.964-5.43-6.973-9.986v-0.001c0-0.133 0-0.253 0-0.387zM5.333 16c0.003-1.129 0.178-2.215 0.501-3.236l-0.021 0.076c1.104 3.963 3.887 7.122 7.514 8.713l0.086 0.034c-1.048 1.223-2.355 2.192-3.839 2.827l-0.068 0.026c-2.542-1.965-4.166-5.012-4.173-8.439v-0.001zM15.813 26.667c-1.255-0.019-2.448-0.257-3.551-0.677l0.071 0.024c1.76-1.097 3.205-2.537 4.274-4.238l0.032-0.055c1.178-1.85 1.918-4.082 2.026-6.478l0.001-0.029c0.694-0.237 1.501-0.407 2.336-0.477l0.038-0.003c0.201 0.774 0.316 1.662 0.316 2.578 0 4.012-2.215 7.506-5.489 9.328l-0.054 0.028zM21.44 25.173c1.599-2.164 2.56-4.885 2.56-7.83 0-0.004 0-0.007 0-0.011v0.001c-0.006-0.89-0.093-1.756-0.254-2.596l0.014 0.089c1.087 0.196 2.057 0.52 2.959 0.962l-0.065-0.029c0 0.080 0 0.16 0 0.24-0.003 3.876-2.072 7.267-5.165 9.133l-0.048 0.027z"></path>
</svg>
