<!-- Generated by IcoMoon.io -->
<svg version="1.1" xmlns="http://www.w3.org/2000/svg" width="32" height="32" viewBox="0 0 32 32">
<title>ul-vuejs-alt</title>
<path d="M30.49 4.499c-0.234-0.403-0.663-0.669-1.155-0.669l-11.495-0.005c-0.449 0-0.846 0.222-1.088 0.562l-0.003 0.004-0.745 1.061-0.753-1.064c-0.244-0.343-0.64-0.564-1.088-0.564-0 0-0 0-0 0l-4.873-0.001-6.631 0.036c-0.733 0.004-1.327 0.599-1.327 1.333 0 0.249 0.068 0.481 0.187 0.681l-0.003-0.006 13.359 22.807c0.236 0.397 0.663 0.659 1.15 0.659h0.001c0.488-0 0.916-0.263 1.148-0.655l0.003-0.006 13.307-22.837c0.114-0.192 0.181-0.424 0.181-0.671 0-0.245-0.066-0.474-0.18-0.671l0.003 0.006zM13.473 6.491l1.447 2.044c0.244 0.343 0.64 0.564 1.088 0.564 0 0 0 0 0.001 0h0.002c0.448-0.001 0.845-0.223 1.086-0.562l0.003-0.004 1.434-2.042 1.817-0.001-4.325 7.272-4.367-7.272zM16.023 25.357l-11.037-18.844 3.56-0.020 6.338 10.557c0.237 0.39 0.66 0.647 1.143 0.647h0.003l0.001-0 0.001 0h0.003c0.484-0.001 0.907-0.26 1.14-0.646l0.003-0.006 6.277-10.555 3.559 0.004z"></path>
</svg>
