<!-- Generated by IcoMoon.io -->
<svg version="1.1" xmlns="http://www.w3.org/2000/svg" width="40" height="40" viewBox="0 0 40 40">
<title>android-phone-slash</title>
<path fill="#91908d" d="M19.053 27.613c0.242 0.244 0.577 0.394 0.947 0.394s0.705-0.151 0.947-0.394l0-0c0.114-0.125 0.208-0.271 0.276-0.43l0.004-0.010c0.068-0.149 0.107-0.323 0.107-0.507s-0.039-0.358-0.11-0.515l0.003 0.008c-0.072-0.169-0.166-0.315-0.281-0.441l0.001 0.001c-0.242-0.244-0.577-0.394-0.947-0.394s-0.705 0.151-0.947 0.394l-0 0c-0.114 0.125-0.208 0.271-0.276 0.43l-0.004 0.010c-0.068 0.149-0.107 0.323-0.107 0.507s0.039 0.358 0.11 0.515l-0.003-0.008c0.072 0.169 0.166 0.315 0.281 0.441l-0.001-0.001zM15.547 9.333h9.787c0.736 0 1.333 0.597 1.333 1.333v0 9.787c0 0.736 0.597 1.333 1.333 1.333s1.333-0.597 1.333-1.333v0-9.787c0-2.209-1.791-4-4-4v0h-9.787c-0.736 0-1.333 0.597-1.333 1.333s0.597 1.333 1.333 1.333v0zM32.947 31.053l-24-24c-0.242-0.242-0.577-0.392-0.947-0.392-0.739 0-1.339 0.599-1.339 1.339 0 0.37 0.15 0.704 0.392 0.947v0l3.613 3.6v16.787c0 2.209 1.791 4 4 4v0h10.667c1.644-0.001 3.056-0.995 3.67-2.414l0.010-0.026 2.040 2.053c0.242 0.244 0.577 0.394 0.947 0.394s0.705-0.151 0.947-0.394l0-0c0.244-0.242 0.394-0.577 0.394-0.947s-0.151-0.705-0.394-0.947l-0-0zM26.667 29.333c0 0.736-0.597 1.333-1.333 1.333v0h-10.667c-0.736 0-1.333-0.597-1.333-1.333v0-14.12l13.333 13.333z"></path>
</svg>
