<!-- Generated by IcoMoon.io -->
<svg version="1.1" xmlns="http://www.w3.org/2000/svg" width="40" height="40" viewBox="0 0 40 40">
<title>angle-double-left</title>
<path fill="#91908d" d="M19.28 15.053c-0.242-0.244-0.577-0.394-0.947-0.394s-0.705 0.151-0.947 0.394l-4 4c-0.244 0.242-0.394 0.577-0.394 0.947s0.151 0.705 0.394 0.947l4 4c0.242 0.244 0.577 0.394 0.947 0.394s0.705-0.151 0.947-0.394l0-0c0.244-0.242 0.394-0.577 0.394-0.947s-0.151-0.705-0.394-0.947l-0-0-3.067-3.053 3.067-3.053c0.244-0.242 0.394-0.577 0.394-0.947s-0.151-0.705-0.394-0.947l-0-0zM23.547 20l3.12-3.053c0.242-0.242 0.392-0.577 0.392-0.947 0-0.739-0.599-1.339-1.339-1.339-0.37 0-0.704 0.15-0.947 0.392l-4 4c-0.244 0.242-0.394 0.577-0.394 0.947s0.151 0.705 0.394 0.947l4 4c0.242 0.244 0.577 0.394 0.947 0.394s0.705-0.151 0.947-0.394l0-0c0.244-0.242 0.394-0.577 0.394-0.947s-0.151-0.705-0.394-0.947l-0-0z"></path>
</svg>
