<!-- Generated by IcoMoon.io -->
<svg version="1.1" xmlns="http://www.w3.org/2000/svg" width="40" height="40" viewBox="0 0 40 40">
<title>bitcoin</title>
<path fill="#91908d" d="M18.848 20.156l-0.794 3.22c0.981 0.246 4.005 1.228 4.452-0.588 0.467-1.895-2.677-2.385-3.658-2.632zM19.931 15.761l-0.72 2.921c0.817 0.206 3.334 1.045 3.742-0.607 0.425-1.724-2.205-2.108-3.021-2.314zM20 6.667c-7.364 0-13.333 5.97-13.333 13.333s5.97 13.333 13.333 13.333c7.364 0 13.333-5.97 13.333-13.333v0c0-7.364-5.97-13.333-13.333-13.333v0zM25.811 18.101c-0.060 1.062-0.825 1.93-1.832 2.145l-0.015 0.003c0.95 0.394 1.605 1.314 1.605 2.387 0 0.423-0.102 0.823-0.283 1.175l0.007-0.014c-0.781 2.256-2.636 2.447-5.102 1.975l-0.599 2.426-1.446-0.365 0.591-2.394c-0.375-0.094-0.758-0.194-1.153-0.303l-0.593 2.405-1.445-0.365 0.599-2.431c-0.338-0.088-0.681-0.18-1.031-0.269l-1.882-0.475 0.718-1.675s1.066 0.287 1.051 0.265c0.048 0.016 0.103 0.025 0.16 0.025 0.236 0 0.435-0.155 0.502-0.369l0.001-0.004 1.623-6.584c0.003-0.024 0.004-0.052 0.004-0.080 0-0.394-0.294-0.72-0.674-0.771l-0.004-0c0.023-0.015-1.051-0.264-1.051-0.264l0.385-1.563 1.995 0.504-0.002 0.008c0.3 0.075 0.609 0.147 0.924 0.22l0.593-2.403 1.446 0.365-0.581 2.355c0.388 0.090 0.779 0.18 1.159 0.276l0.577-2.34 1.447 0.365-0.592 2.403c1.826 0.636 3.162 1.59 2.9 3.364z"></path>
</svg>
