<!-- Generated by IcoMoon.io -->
<svg version="1.1" xmlns="http://www.w3.org/2000/svg" width="40" height="40" viewBox="0 0 40 40">
<title>bookmark</title>
<path fill="#91908d" d="M25.333 6.667h-10.667c-2.209 0-4 1.791-4 4v0 21.333c0 0.002 0 0.003 0 0.005 0 0.491 0.265 0.92 0.66 1.151l0.006 0.003c0.191 0.112 0.421 0.179 0.667 0.179s0.475-0.066 0.673-0.182l-0.006 0.003 7.333-4.24 7.333 4.24c0.189 0.109 0.416 0.173 0.657 0.173 0.003 0 0.006 0 0.010-0h-0.001c0.003 0 0.006 0 0.009 0 0.242 0 0.468-0.064 0.664-0.177l-0.006 0.003c0.401-0.235 0.667-0.664 0.667-1.155 0-0.002 0-0.004 0-0.006v0-21.333c0-2.209-1.791-4-4-4v0zM26.667 29.693l-6-3.467c-0.191-0.112-0.421-0.179-0.667-0.179s-0.475 0.066-0.673 0.182l0.006-0.003-6 3.467v-19.027c0-0.736 0.597-1.333 1.333-1.333v0h10.667c0.736 0 1.333 0.597 1.333 1.333v0z"></path>
</svg>
