<!-- Generated by IcoMoon.io -->
<svg version="1.1" xmlns="http://www.w3.org/2000/svg" width="40" height="40" viewBox="0 0 40 40">
<title>book-reader</title>
<path fill="#91908d" d="M30.907 17.587c-0.849-0.161-1.827-0.254-2.825-0.254-0.029 0-0.057 0-0.086 0l0.004-0c-0.56 0-1.107 0-1.653 0.107-0.682-0.903-1.531-1.642-2.506-2.179l-0.041-0.021c0.826-0.9 1.332-2.104 1.333-3.426v-0c0-2.842-2.304-5.147-5.147-5.147s-5.147 2.304-5.147 5.147v0c0.001 1.323 0.508 2.527 1.337 3.43l-0.003-0.004c-1.011 0.562-1.858 1.294-2.533 2.168l-0.014 0.019c-0.52-0.093-1.067-0.093-1.627-0.093-1.031 0.004-2.035 0.106-3.007 0.296l0.1-0.016c-0.626 0.118-1.094 0.66-1.094 1.312 0 0.008 0 0.015 0 0.023v-0.001 11c0 0.001 0 0.001 0 0.002 0 0.411 0.186 0.778 0.478 1.023l0.002 0.002c0.23 0.195 0.531 0.314 0.859 0.314 0.083 0 0.164-0.008 0.242-0.022l-0.008 0.001c0.72-0.164 1.554-0.27 2.409-0.293l0.018-0c0.004 0 0.009 0 0.014 0 2.7 0 5.21 0.811 7.301 2.204l-0.048-0.030 0.173 0.067c0.165 0.073 0.357 0.117 0.559 0.12h0.001c0.134-0.002 0.262-0.026 0.381-0.069l-0.008 0.003h0.093l0.173-0.067c2.059-1.395 4.599-2.227 7.333-2.227 0.010 0 0.019 0 0.029 0h-0.001c0.861 0.004 1.699 0.091 2.51 0.254l-0.083-0.014c0.070 0.013 0.151 0.021 0.234 0.021 0.328 0 0.629-0.119 0.861-0.316l-0.002 0.002c0.294-0.246 0.48-0.614 0.48-1.024 0-0.001 0-0.002 0-0.002v0-11c-0.002-0.649-0.469-1.189-1.085-1.305l-0.008-0.001zM20 9.333c1.289 0.098 2.298 1.168 2.298 2.473s-1.009 2.376-2.29 2.473l-0.008 0.001c-1.289-0.098-2.298-1.168-2.298-2.473s1.009-2.376 2.29-2.473l0.008-0.001zM18.667 29.773c-1.955-0.926-4.248-1.466-6.667-1.467h-0c-0.44 0-0.88 0-1.333 0.067v-8.373c0.428-0.051 0.925-0.080 1.427-0.080 0.682 0 1.352 0.053 2.005 0.156l-0.072-0.009h0.147c1.694 0.318 3.202 0.912 4.551 1.74l-0.058-0.033zM20 19.467c-0.507-0.3-1.112-0.604-1.737-0.868l-0.103-0.039h-0.080c-0.44-0.173-0.88-0.347-1.333-0.48 0.885-0.709 2.017-1.144 3.25-1.16l0.004-0c1.233 0.008 2.366 0.434 3.265 1.142l-0.011-0.009c-1.247 0.394-2.324 0.873-3.333 1.456l0.080-0.043zM29.333 28.373c-0.464-0.049-1.002-0.078-1.546-0.078-2.341 0-4.56 0.52-6.549 1.451l0.095-0.040v-8c1.293-0.774 2.805-1.344 4.417-1.616l0.077-0.011h0.267c0.579-0.095 1.246-0.149 1.926-0.149 0.463 0 0.92 0.025 1.369 0.074l-0.056-0.005z"></path>
</svg>
