<!-- Generated by IcoMoon.io -->
<svg version="1.1" xmlns="http://www.w3.org/2000/svg" width="40" height="40" viewBox="0 0 40 40">
<title>bus-school</title>
<path fill="#91908d" d="M5.333 20.667v5.333c0 0.736 0.597 1.333 1.333 1.333v0h1.333c0 2.209 1.791 4 4 4s4-1.791 4-4v0h8c0 2.209 1.791 4 4 4s4-1.791 4-4v0h1.333c0.736 0 1.333-0.597 1.333-1.333v0-13.333c0-2.209-1.791-4-4-4v0h-15.413c-1.753 0.003-3.241 1.134-3.778 2.705l-0.008 0.028-1.92 5.747-3.613 2.413c-0.362 0.241-0.598 0.646-0.6 1.106v0zM32 16.667h-2.667v-5.333h1.333c0.736 0 1.333 0.597 1.333 1.333v0zM26.667 27.333c0-0.736 0.597-1.333 1.333-1.333s1.333 0.597 1.333 1.333c0 0.736-0.597 1.333-1.333 1.333v0c-0.736 0-1.333-0.597-1.333-1.333v0zM24 19.333h8v5.333h-1.040c-0.734-0.806-1.788-1.31-2.96-1.31s-2.226 0.504-2.957 1.306l-0.003 0.003h-1.040zM24 11.333h2.667v5.333h-2.667zM18.667 19.333h2.667v5.333h-2.667zM18.667 11.333h2.667v5.333h-2.667zM16 16.667h-3.48l1.467-4.427c0.183-0.532 0.68-0.907 1.263-0.907 0.001 0 0.002 0 0.004 0h0.746zM10.667 27.333c0-0.736 0.597-1.333 1.333-1.333s1.333 0.597 1.333 1.333c0 0.736-0.597 1.333-1.333 1.333v0c-0.736 0-1.333-0.597-1.333-1.333v0zM8 21.333l3.067-2h4.933v5.333h-1.040c-0.734-0.806-1.788-1.31-2.96-1.31s-2.226 0.504-2.957 1.306l-0.003 0.003h-1.040z"></path>
</svg>
