<!-- Generated by IcoMoon.io -->
<svg version="1.1" xmlns="http://www.w3.org/2000/svg" width="40" height="40" viewBox="0 0 40 40">
<title>cloud-wind</title>
<path fill="#91908d" d="M10.667 28c-0.736 0-1.333 0.597-1.333 1.333s0.597 1.333 1.333 1.333c0.736 0 1.333-0.597 1.333-1.333v0c0-0.736-0.597-1.333-1.333-1.333v0zM29.333 22.667h-9.333c-0.736 0-1.333 0.597-1.333 1.333s0.597 1.333 1.333 1.333v0h9.333c0.736 0 1.333 0.597 1.333 1.333s-0.597 1.333-1.333 1.333v0c-0.736 0-1.333 0.597-1.333 1.333s0.597 1.333 1.333 1.333v0c2.209 0 4-1.791 4-4s-1.791-4-4-4v0zM22.667 18.667c0 0.736 0.597 1.333 1.333 1.333v0h5.333c2.209 0 4-1.791 4-4v0c0-0.736-0.597-1.333-1.333-1.333s-1.333 0.597-1.333 1.333v0c0 0.736-0.597 1.333-1.333 1.333v0h-5.333c-0.736 0-1.333 0.597-1.333 1.333v0zM17.333 24c0-0.736-0.597-1.333-1.333-1.333v0h-4c-1.473 0-2.667-1.194-2.667-2.667s1.194-2.667 2.667-2.667v0c0.736 0 1.333-0.597 1.333-1.333v0c0.008-3.676 2.99-6.652 6.667-6.652 2.908 0 5.381 1.862 6.292 4.459l0.014 0.047c0.184 0.533 0.681 0.91 1.267 0.91 0.738 0 1.337-0.598 1.337-1.337 0-0.153-0.026-0.299-0.073-0.436l0.003 0.009c-1.29-3.712-4.757-6.328-8.836-6.328-4.735 0-8.646 3.525-9.252 8.094l-0.005 0.048c-2.365 0.58-4.091 2.682-4.091 5.187 0 2.946 2.388 5.333 5.333 5.333 0.004 0 0.008 0 0.012 0h3.999c0.736 0 1.333-0.597 1.333-1.333v0zM17.333 18.667c0 0.736 0.597 1.333 1.333 1.333s1.333-0.597 1.333-1.333c0-0.736-0.597-1.333-1.333-1.333v0c-0.736 0-1.333 0.597-1.333 1.333v0zM22.667 28h-6.667c-0.736 0-1.333 0.597-1.333 1.333s0.597 1.333 1.333 1.333v0h6.667c0.736 0 1.333 0.597 1.333 1.333v0c0 0.736 0.597 1.333 1.333 1.333s1.333-0.597 1.333-1.333v0c0-2.209-1.791-4-4-4v0z"></path>
</svg>
