<!-- Generated by IcoMoon.io -->
<svg version="1.1" xmlns="http://www.w3.org/2000/svg" width="40" height="40" viewBox="0 0 40 40">
<title>cloud-lock</title>
<path fill="#91908d" d="M28.56 12.96c-1.475-3.329-4.75-5.609-8.558-5.609-4.73 0-8.638 3.519-9.25 8.081l-0.005 0.048c-2.355 0.588-4.071 2.684-4.071 5.182 0 2.312 1.471 4.28 3.527 5.020l0.037 0.012c0.127 0.041 0.274 0.065 0.426 0.067h0.001c0.064 0.011 0.138 0.017 0.213 0.017 0.746 0 1.35-0.605 1.35-1.35 0-0.67-0.489-1.227-1.129-1.332l-0.008-0.001c-1.010-0.372-1.725-1.312-1.76-2.422l-0-0.004c0-1.473 1.194-2.667 2.667-2.667v0c0.736 0 1.333-0.597 1.333-1.333v0c0.008-3.676 2.99-6.652 6.667-6.652 2.908 0 5.381 1.862 6.292 4.459l0.014 0.047c0.157 0.463 0.55 0.807 1.032 0.892l0.008 0.001c1.882 0.35 3.288 1.979 3.288 3.936 0 1.454-0.776 2.727-1.936 3.427l-0.018 0.010c-0.404 0.235-0.671 0.666-0.671 1.16 0 0.739 0.599 1.338 1.338 1.338 0.245 0 0.475-0.066 0.673-0.181l-0.006 0.003c1.999-1.176 3.32-3.317 3.32-5.766 0-0.003 0-0.005 0-0.008v0c-0.009-2.999-1.997-5.532-4.726-6.361l-0.047-0.012zM24 24.96v-1.627c0-2.209-1.791-4-4-4s-4 1.791-4 4v0 1.573c-1.551 0.574-2.636 2.041-2.636 3.76 0 2.198 1.773 3.982 3.967 4h5.335c2.196-0.018 3.969-1.802 3.969-4 0-1.72-1.085-3.186-2.608-3.751l-0.028-0.009zM18.667 23.333c0-0.736 0.597-1.333 1.333-1.333s1.333 0.597 1.333 1.333v0 1.333h-2.667zM22.667 30h-5.333c-0.736 0-1.333-0.597-1.333-1.333s0.597-1.333 1.333-1.333v0h5.333c0.736 0 1.333 0.597 1.333 1.333s-0.597 1.333-1.333 1.333v0z"></path>
</svg>
