<!-- Generated by IcoMoon.io -->
<svg version="1.1" xmlns="http://www.w3.org/2000/svg" width="40" height="40" viewBox="0 0 40 40">
<title>comment-alt-redo</title>
<path fill="#91908d" d="M17.733 18.333c0.358-0.243 0.59-0.648 0.59-1.107 0-0.736-0.597-1.333-1.333-1.333-0.392 0-0.745 0.169-0.989 0.439l-0.001 0.001c-0.701 0.621-1.629 1-2.646 1-2.209 0-4-1.791-4-4 0-2.202 1.779-3.988 3.978-4h0.001c1.18 0.002 2.239 0.515 2.97 1.33l0.003 0.004h-1.64c-0.736 0-1.333 0.597-1.333 1.333s0.597 1.333 1.333 1.333v0h4c0.736 0 1.333-0.597 1.333-1.333v0-4c0-0.736-0.597-1.333-1.333-1.333s-1.333 0.597-1.333 1.333v0 0c-1.101-0.835-2.495-1.337-4.005-1.337-3.682 0-6.667 2.985-6.667 6.667s2.985 6.667 6.667 6.667c1.692 0 3.237-0.63 4.412-1.669l-0.007 0.006zM29.333 12h-5.333c-0.736 0-1.333 0.597-1.333 1.333s0.597 1.333 1.333 1.333v0h5.333c0.736 0 1.333 0.597 1.333 1.333v0 12.96l-2.093-1.933c-0.237-0.222-0.556-0.359-0.906-0.36h-11.667c-0.736 0-1.333-0.597-1.333-1.333v0-1.333c0-0.736-0.597-1.333-1.333-1.333s-1.333 0.597-1.333 1.333v0 1.333c0 2.209 1.791 4 4 4v0h11.147l4 3.64c0.224 0.211 0.522 0.345 0.85 0.36l0.003 0c0.193-0.002 0.376-0.041 0.543-0.11l-0.010 0.004c0.475-0.211 0.8-0.679 0.8-1.222 0-0.002 0-0.003 0-0.005v0-16c0-2.209-1.791-4-4-4v0z"></path>
</svg>
