<!-- Generated by IcoMoon.io -->
<svg version="1.1" xmlns="http://www.w3.org/2000/svg" width="40" height="40" viewBox="0 0 40 40">
<title>comment-lock</title>
<path fill="#91908d" d="M29.227 25.507c-0.192-0.113-0.422-0.18-0.668-0.18-0.493 0-0.924 0.268-1.155 0.667l-0.003 0.006c-1.641 2.805-4.636 4.661-8.066 4.667h-7.454l0.853-0.84c0.24-0.241 0.388-0.573 0.388-0.94s-0.148-0.699-0.388-0.94l0 0c-1.7-1.691-2.752-4.032-2.752-6.618 0-4.748 3.545-8.668 8.133-9.257l0.047-0.005c0.67-0.083 1.183-0.648 1.183-1.333 0-0.742-0.601-1.343-1.343-1.343-0.056 0-0.112 0.003-0.167 0.010l0.007-0.001c-5.963 0.759-10.527 5.801-10.527 11.909 0 2.856 0.998 5.48 2.664 7.54l-0.018-0.023-2.24 2.227c-0.238 0.241-0.384 0.571-0.384 0.936 0 0.187 0.038 0.364 0.108 0.526l-0.003-0.009c0.204 0.487 0.676 0.824 1.226 0.827h10.667c4.416-0.002 8.274-2.389 10.356-5.943l0.031-0.057c0.113-0.192 0.18-0.422 0.18-0.668 0-0.493-0.268-0.924-0.667-1.155l-0.006-0.003zM30 12.24v-1.573c0-2.209-1.791-4-4-4s-4 1.791-4 4v0 1.573c-1.563 0.564-2.662 2.033-2.667 3.759v2.667c0 2.209 1.791 4 4 4v0h5.333c2.209 0 4-1.791 4-4v0-2.667c-0.005-1.727-1.103-3.196-2.639-3.751l-0.028-0.009zM24.667 10.667c0-0.736 0.597-1.333 1.333-1.333s1.333 0.597 1.333 1.333v0 1.333h-2.667zM30 18.667c0 0.736-0.597 1.333-1.333 1.333v0h-5.333c-0.736 0-1.333-0.597-1.333-1.333v0-2.667c0-0.736 0.597-1.333 1.333-1.333v0h5.333c0.736 0 1.333 0.597 1.333 1.333v0z"></path>
</svg>
