<!-- Generated by IcoMoon.io -->
<svg version="1.1" xmlns="http://www.w3.org/2000/svg" width="40" height="40" viewBox="0 0 40 40">
<title>comment-alt-shield</title>
<path fill="#91908d" d="M12.76 20c0.291-0.002 0.559-0.097 0.777-0.256l-0.004 0.003 2.16-1.547c1.528-1.101 2.519-2.865 2.547-4.862l0-0.004v-4.493c-0.003-0.414-0.194-0.782-0.491-1.025l-0.002-0.002c-0.227-0.185-0.52-0.297-0.839-0.297-0.1 0-0.197 0.011-0.29 0.032l0.009-0.002c-0.244 0.053-0.525 0.083-0.812 0.083-0.859 0-1.655-0.271-2.307-0.732l0.013 0.008c-0.212-0.149-0.476-0.238-0.76-0.238s-0.548 0.089-0.764 0.241l0.004-0.003c-0.639 0.453-1.435 0.723-2.294 0.723-0.288 0-0.568-0.030-0.839-0.088l0.026 0.005c-0.080-0.017-0.172-0.027-0.267-0.027-0.736 0-1.333 0.597-1.333 1.333 0 0.009 0 0.019 0 0.028l-0-0.001v4.453c0 0.001 0 0.001 0 0.002 0 2.024 0.992 3.817 2.516 4.919l0.018 0.012 2.173 1.48c0.208 0.158 0.47 0.253 0.756 0.253 0.002 0 0.003 0 0.005 0h-0zM9.947 13.333v-3.040c1.033-0.045 1.995-0.311 2.852-0.751l-0.039 0.018c0.818 0.424 1.78 0.69 2.8 0.733l0.014 0v3.040c-0.039 1.098-0.588 2.060-1.417 2.66l-0.010 0.007-1.333 0.987-1.44-0.987c-0.839-0.607-1.388-1.569-1.426-2.661l-0-0.006zM28.72 12h-6.667c-0.736 0-1.333 0.597-1.333 1.333s0.597 1.333 1.333 1.333v0h6.667c0.736 0 1.333 0.597 1.333 1.333v0 12.96l-2.053-1.933c-0.226-0.223-0.537-0.36-0.879-0.36-0.010 0-0.019 0-0.029 0l0.001-0h-11.707c-0.736 0-1.333-0.597-1.333-1.333v0-1.333c0-0.736-0.597-1.333-1.333-1.333s-1.333 0.597-1.333 1.333v0 1.333c0 2.209 1.791 4 4 4v0h11.147l4 3.64c0.233 0.219 0.547 0.355 0.892 0.36h0.001c0.197-0.002 0.385-0.041 0.557-0.11l-0.010 0.004c0.468-0.214 0.787-0.678 0.787-1.216 0-0.004 0-0.007-0-0.011v0.001-16c0-0 0-0 0-0 0-2.209-1.791-4-4-4-0.014 0-0.028 0-0.042 0l0.002-0z"></path>
</svg>
