<!-- Generated by IcoMoon.io -->
<svg version="1.1" xmlns="http://www.w3.org/2000/svg" width="40" height="40" viewBox="0 0 40 40">
<title>comment-alt-heart</title>
<path fill="#91908d" d="M20 12.467c-0.543-0.284-1.186-0.451-1.868-0.451-1.11 0-2.116 0.441-2.853 1.158l0.001-0.001c-0.723 0.724-1.17 1.723-1.17 2.827s0.447 2.103 1.17 2.827l-0-0 3.773 3.84c0.242 0.244 0.577 0.394 0.947 0.394s0.705-0.151 0.947-0.394l3.773-3.773c0.723-0.724 1.17-1.723 1.17-2.827s-0.447-2.103-1.17-2.827l0 0c-0.741-0.742-1.765-1.202-2.897-1.202-0.664 0-1.292 0.158-1.846 0.439l0.023-0.011zM22.827 16.947l-2.827 2.827-2.827-2.827c-0.244-0.242-0.394-0.577-0.394-0.947s0.151-0.705 0.394-0.947l0-0c0.241-0.24 0.573-0.388 0.94-0.388s0.699 0.148 0.94 0.388l-0-0c0.242 0.244 0.577 0.394 0.947 0.394s0.705-0.151 0.947-0.394l0-0c0.241-0.24 0.573-0.388 0.94-0.388s0.699 0.148 0.94 0.388l-0-0c0.244 0.242 0.394 0.577 0.394 0.947s-0.151 0.705-0.394 0.947l-0 0zM29.333 6.667h-18.667c-2.209 0-4 1.791-4 4v0 13.333c0 2.209 1.791 4 4 4v0h15.453l4.933 4.947c0.241 0.239 0.573 0.387 0.939 0.387 0.003 0 0.005 0 0.008-0h-0c0.009 0 0.019 0 0.029 0 0.174 0 0.338-0.039 0.485-0.11l-0.007 0.003c0.487-0.204 0.824-0.676 0.827-1.226v-21.334c0-2.209-1.791-4-4-4v0zM30.667 28.787l-3.053-3.067c-0.241-0.239-0.573-0.387-0.939-0.387-0.003 0-0.005 0-0.008 0h-16c-0.736 0-1.333-0.597-1.333-1.333v0-13.333c0-0.736 0.597-1.333 1.333-1.333v0h18.667c0.736 0 1.333 0.597 1.333 1.333v0z"></path>
</svg>
