<!-- Generated by IcoMoon.io -->
<svg version="1.1" xmlns="http://www.w3.org/2000/svg" width="40" height="40" viewBox="0 0 40 40">
<title>copy-alt</title>
<path fill="#91908d" d="M25.333 30.667h-10.667c-2.209 0-4-1.791-4-4v0-13.333c0-0.736-0.597-1.333-1.333-1.333s-1.333 0.597-1.333 1.333v0 13.333c0 3.682 2.985 6.667 6.667 6.667v0h10.667c0.736 0 1.333-0.597 1.333-1.333s-0.597-1.333-1.333-1.333v0zM32 15.92c-0.016-0.134-0.044-0.256-0.084-0.372l0.004 0.012v-0.12c-0.068-0.143-0.153-0.267-0.254-0.374l0.001 0.001-8-8c-0.107-0.101-0.23-0.185-0.365-0.25l-0.009-0.004h-0.12l-0.427-0.147h-5.413c-2.209 0-4 1.791-4 4v0 13.333c0 2.209 1.791 4 4 4v0h10.667c2.209 0 4-1.791 4-4v0-8s0 0 0-0.080zM24 11.213l3.453 3.453h-2.12c-0.736 0-1.333-0.597-1.333-1.333v0zM29.333 24c0 0.736-0.597 1.333-1.333 1.333v0h-10.667c-0.736 0-1.333-0.597-1.333-1.333v0-13.333c0-0.736 0.597-1.333 1.333-1.333v0h4v4c0 2.209 1.791 4 4 4v0h4z"></path>
</svg>
