<!-- Generated by IcoMoon.io -->
<svg version="1.1" xmlns="http://www.w3.org/2000/svg" width="40" height="40" viewBox="0 0 40 40">
<title>corner-left-down</title>
<path fill="#91908d" d="M32 9.747h-12.493c-3.682 0-6.667 2.985-6.667 6.667v0 9.333l-3.893-3.947c-0.242-0.244-0.577-0.394-0.947-0.394s-0.705 0.151-0.947 0.394l-0 0c-0.24 0.241-0.388 0.573-0.388 0.94s0.148 0.699 0.388 0.94l6.173 6.173c0.122 0.123 0.269 0.222 0.431 0.29l0.009 0.003c0.149 0.068 0.323 0.107 0.507 0.107s0.358-0.039 0.515-0.11l-0.008 0.003c0.169-0.077 0.315-0.175 0.441-0.294l-0.001 0.001 6.213-6.173c0.199-0.232 0.321-0.535 0.321-0.867 0-0.736-0.597-1.333-1.333-1.333-0.332 0-0.636 0.121-0.869 0.322l0.002-0.001-3.947 3.893v-9.333c0-2.209 1.791-4 4-4v0h12.493c0.736 0 1.333-0.597 1.333-1.333s-0.597-1.333-1.333-1.333v0z"></path>
</svg>
