<!-- Generated by IcoMoon.io -->
<svg version="1.1" xmlns="http://www.w3.org/2000/svg" width="40" height="40" viewBox="0 0 40 40">
<title>crockery</title>
<path fill="#91908d" d="M28 20.2v-12.2c0-0.736-0.597-1.333-1.333-1.333s-1.333 0.597-1.333 1.333v0 12.2c-2.33 0.692-4 2.814-4 5.327 0 0.002 0 0.005 0 0.007v-0c0 2.733 2.027 7.733 5.333 7.733s5.333-5 5.333-7.733c0-0.002 0-0.004 0-0.007 0-2.512-1.67-4.634-3.961-5.317l-0.039-0.010zM26.667 30.667c-1.067 0-2.667-3.027-2.667-5.067-0.002-0.037-0.003-0.080-0.003-0.124 0-1.503 1.179-2.731 2.662-2.809l0.007-0c1.491 0.079 2.669 1.307 2.669 2.81 0 0.044-0.001 0.087-0.003 0.13l0-0.006c0 2.040-1.6 5.067-2.667 5.067zM17.333 6.667c-0.736 0-1.333 0.597-1.333 1.333v0 7.28l-1.333 0.893v-8.173c0-0.736-0.597-1.333-1.333-1.333s-1.333 0.597-1.333 1.333v0 8.173l-1.333-0.893v-7.28c0-0.736-0.597-1.333-1.333-1.333s-1.333 0.597-1.333 1.333v0 8c0.002 0.461 0.238 0.866 0.595 1.104l0.005 0.003 3.4 2.28v12.613c0 0.736 0.597 1.333 1.333 1.333s1.333-0.597 1.333-1.333v0-12.613l3.4-2.28c0.362-0.241 0.598-0.646 0.6-1.106v-8c0-0.736-0.597-1.333-1.333-1.333v0z"></path>
</svg>
