<!-- Generated by IcoMoon.io -->
<svg version="1.1" xmlns="http://www.w3.org/2000/svg" width="40" height="40" viewBox="0 0 40 40">
<title>directions</title>
<path fill="#91908d" d="M32.16 17.173l-9.333-9.333c-0.735-0.698-1.731-1.128-2.827-1.128s-2.092 0.429-2.828 1.129l0.002-0.002-9.333 9.333c-0.723 0.724-1.17 1.723-1.17 2.827s0.447 2.103 1.17 2.827l9.333 9.333c0.724 0.723 1.723 1.17 2.827 1.17s2.103-0.447 2.827-1.17l9.333-9.333c0.723-0.724 1.17-1.723 1.17-2.827s-0.447-2.103-1.17-2.827l0 0zM30.28 20.947l-9.333 9.333c-0.242 0.244-0.577 0.394-0.947 0.394s-0.705-0.151-0.947-0.394l-9.333-9.333c-0.244-0.242-0.394-0.577-0.394-0.947s0.151-0.705 0.394-0.947l9.333-9.333c0.242-0.244 0.577-0.394 0.947-0.394s0.705 0.151 0.947 0.394l9.333 9.333c0.244 0.242 0.394 0.577 0.394 0.947s-0.151 0.705-0.394 0.947l-0 0zM22.947 16.387c-0.242-0.242-0.577-0.392-0.947-0.392-0.739 0-1.339 0.599-1.339 1.339 0 0.37 0.15 0.704 0.392 0.947v0l0.4 0.387h-4.787c-0.736 0-1.333 0.597-1.333 1.333v0 2.667c0 0.736 0.597 1.333 1.333 1.333s1.333-0.597 1.333-1.333v0-1.333h3.453l-0.4 0.387c-0.244 0.242-0.394 0.577-0.394 0.947s0.151 0.705 0.394 0.947l0 0c0.242 0.244 0.577 0.394 0.947 0.394s0.705-0.151 0.947-0.394l2.667-2.667c0.244-0.242 0.394-0.577 0.394-0.947s-0.151-0.705-0.394-0.947l-0-0z"></path>
</svg>
