<!-- Generated by IcoMoon.io -->
<svg version="1.1" xmlns="http://www.w3.org/2000/svg" width="40" height="40" viewBox="0 0 40 40">
<title>dizzy-meh</title>
<path fill="#91908d" d="M16 19.613l0.387-0.4 0.387 0.4c0.242 0.244 0.577 0.394 0.947 0.394s0.705-0.151 0.947-0.394l0-0c0.244-0.242 0.394-0.577 0.394-0.947s-0.151-0.705-0.394-0.947l-0-0-0.4-0.387 0.4-0.387c0.238-0.244 0.384-0.578 0.384-0.947 0-0.75-0.608-1.358-1.358-1.358-0.382 0-0.726 0.157-0.973 0.411l-0 0-0.387 0.4-0.333-0.4c-0.247-0.254-0.592-0.411-0.973-0.411-0.75 0-1.358 0.608-1.358 1.358 0 0.368 0.147 0.702 0.385 0.947l-0-0 0.4 0.387-0.4 0.387c-0.244 0.242-0.394 0.577-0.394 0.947s0.151 0.705 0.394 0.947l0 0c0.242 0.244 0.577 0.394 0.947 0.394s0.705-0.151 0.947-0.394l0-0zM24 22.667h-8c-0.736 0-1.333 0.597-1.333 1.333s0.597 1.333 1.333 1.333v0h8c0.736 0 1.333-0.597 1.333-1.333s-0.597-1.333-1.333-1.333v0zM20 6.667c-7.364 0-13.333 5.97-13.333 13.333s5.97 13.333 13.333 13.333c7.364 0 13.333-5.97 13.333-13.333v0c0-7.364-5.97-13.333-13.333-13.333v0zM20 30.667c-5.891 0-10.667-4.776-10.667-10.667s4.776-10.667 10.667-10.667c5.891 0 10.667 4.776 10.667 10.667v0c0 5.891-4.776 10.667-10.667 10.667v0zM26.667 15.053c-0.242-0.244-0.577-0.394-0.947-0.394s-0.705 0.151-0.947 0.394l-0 0-0.387 0.4-0.387-0.4c-0.242-0.242-0.577-0.392-0.947-0.392-0.739 0-1.339 0.599-1.339 1.339 0 0.37 0.15 0.704 0.392 0.947v0l0.4 0.387-0.4 0.387c-0.244 0.242-0.394 0.577-0.394 0.947s0.151 0.705 0.394 0.947l0 0c0.242 0.244 0.577 0.394 0.947 0.394s0.705-0.151 0.947-0.394l0-0 0.387-0.4 0.387 0.4c0.242 0.244 0.577 0.394 0.947 0.394s0.705-0.151 0.947-0.394l0-0c0.244-0.242 0.394-0.577 0.394-0.947s-0.151-0.705-0.394-0.947l-0-0-0.4-0.387 0.4-0.387c0.244-0.242 0.394-0.577 0.394-0.947s-0.151-0.705-0.394-0.947l-0-0z"></path>
</svg>
