<!-- Generated by IcoMoon.io -->
<svg version="1.1" xmlns="http://www.w3.org/2000/svg" width="40" height="40" viewBox="0 0 40 40">
<title>envelope-minus</title>
<path fill="#91908d" d="M32 14.667c-0.736 0-1.333 0.597-1.333 1.333v0 10.667c0 0.736-0.597 1.333-1.333 1.333v0h-18.667c-0.736 0-1.333-0.597-1.333-1.333v0-12.787l7.84 7.84c0.724 0.723 1.723 1.17 2.827 1.17s2.103-0.447 2.827-1.17l-0 0 4.787-4.773c0.242-0.242 0.392-0.577 0.392-0.947 0-0.739-0.599-1.339-1.339-1.339-0.37 0-0.704 0.15-0.947 0.392v0l-4.773 4.787c-0.242 0.244-0.577 0.394-0.947 0.394s-0.705-0.151-0.947-0.394l-7.84-7.84h10.12c0.736 0 1.333-0.597 1.333-1.333s-0.597-1.333-1.333-1.333v0h-10.667c-2.209 0-4 1.791-4 4v0 13.333c0 2.209 1.791 4 4 4v0h18.667c2.209 0 4-1.791 4-4v0-10.667c0-0.736-0.597-1.333-1.333-1.333v0zM26.667 12h5.333c0.736 0 1.333-0.597 1.333-1.333s-0.597-1.333-1.333-1.333v0h-5.333c-0.736 0-1.333 0.597-1.333 1.333s0.597 1.333 1.333 1.333v0z"></path>
</svg>
