<!-- Generated by IcoMoon.io -->
<svg version="1.1" xmlns="http://www.w3.org/2000/svg" width="40" height="40" viewBox="0 0 40 40">
<title>euro-circle</title>
<path fill="#91908d" d="M20 5.333c-8.1 0-14.667 6.566-14.667 14.667s6.566 14.667 14.667 14.667c8.1 0 14.667-6.566 14.667-14.667v0c0-8.1-6.566-14.667-14.667-14.667v0zM20 32c-6.627 0-12-5.373-12-12s5.373-12 12-12c6.627 0 12 5.373 12 12v0c0 6.627-5.373 12-12 12v0zM20.787 14.227c1.435 0.038 2.696 0.749 3.485 1.827l0.009 0.013c0.246 0.32 0.629 0.525 1.060 0.525 0.304 0 0.585-0.102 0.81-0.274l-0.003 0.002c0.319-0.246 0.523-0.629 0.523-1.059 0-0.311-0.107-0.597-0.285-0.824l0.002 0.003c-1.286-1.728-3.309-2.844-5.594-2.88l-0.006-0c-3.185 0.096-5.859 2.183-6.825 5.054l-0.015 0.052h-1.947c-0.736 0-1.333 0.597-1.333 1.333s0.597 1.333 1.333 1.333v0h1.333c0 0.227 0 0.44 0 0.667s0 0.44 0 0.667h-1.333c-0.736 0-1.333 0.597-1.333 1.333s0.597 1.333 1.333 1.333v0h1.947c0.981 2.924 3.655 5.011 6.829 5.106l0.011 0c2.291-0.036 4.314-1.152 5.587-2.861l0.013-0.019c0.262-0.244 0.426-0.591 0.426-0.977 0-0.736-0.597-1.333-1.333-1.333-0.524 0-0.978 0.302-1.195 0.742l-0.004 0.008c-0.797 1.091-2.058 1.802-3.487 1.84l-0.006 0c-1.7-0.069-3.153-1.059-3.881-2.481l-0.012-0.026h3.107c0.736 0 1.333-0.597 1.333-1.333s-0.597-1.333-1.333-1.333v0h-3.933c-0.033-0.192-0.057-0.422-0.066-0.655l-0-0.011c0.010-0.245 0.034-0.474 0.071-0.699l-0.004 0.033h3.933c0.736 0 1.333-0.597 1.333-1.333s-0.597-1.333-1.333-1.333v0h-3.107c0.756-1.421 2.206-2.385 3.886-2.44l0.007-0z"></path>
</svg>
