<!-- Generated by IcoMoon.io -->
<svg version="1.1" xmlns="http://www.w3.org/2000/svg" width="40" height="40" viewBox="0 0 40 40">
<title>exchange-alt</title>
<path fill="#91908d" d="M32.947 16.387l-5.333-5.333c-0.242-0.242-0.577-0.392-0.947-0.392-0.739 0-1.339 0.599-1.339 1.339 0 0.37 0.15 0.704 0.392 0.947v0l3.067 3.053h-15.453c-0.736 0-1.333 0.597-1.333 1.333s0.597 1.333 1.333 1.333v0h18.667c0.551-0.003 1.023-0.339 1.223-0.818l0.003-0.009c0.066-0.153 0.104-0.33 0.104-0.517 0-0.365-0.147-0.696-0.384-0.937l0 0zM26.667 21.333h-18.667c-0.551 0.003-1.023 0.339-1.223 0.818l-0.003 0.009c-0.066 0.153-0.104 0.33-0.104 0.517 0 0.365 0.147 0.696 0.384 0.937l-0-0 5.333 5.333c0.242 0.244 0.577 0.394 0.947 0.394s0.705-0.151 0.947-0.394l0-0c0.244-0.242 0.394-0.577 0.394-0.947s-0.151-0.705-0.394-0.947l-0-0-3.067-3.053h15.453c0.736 0 1.333-0.597 1.333-1.333s-0.597-1.333-1.333-1.333v0z"></path>
</svg>
