<!-- Generated by IcoMoon.io -->
<svg version="1.1" xmlns="http://www.w3.org/2000/svg" width="40" height="40" viewBox="0 0 40 40">
<title>filter</title>
<path fill="#91908d" d="M29.333 6.667h-18.667c-2.209 0-4 1.791-4 4v0 1.56c0 0 0 0.001 0 0.001 0 0.578 0.123 1.128 0.343 1.624l-0.010-0.025v0.080c0.199 0.445 0.463 0.825 0.787 1.147l8.213 8.16v8.787c0 0.001 0 0.002 0 0.003 0 0.474 0.248 0.891 0.621 1.127l0.005 0.003c0.2 0.126 0.442 0.2 0.702 0.2 0.001 0 0.003 0 0.004 0h-0c0.219-0.001 0.426-0.055 0.607-0.15l-0.007 0.004 5.333-2.667c0.437-0.224 0.732-0.671 0.733-1.186v-6.12l8.16-8.16c0.323-0.322 0.588-0.702 0.777-1.123l0.009-0.024v-0.080c0.228-0.468 0.369-1.015 0.387-1.594l0-0.006v-1.56c0-2.209-1.791-4-4-4v0zM21.72 21.72c-0.239 0.241-0.387 0.573-0.387 0.939 0 0.003 0 0.005 0 0.008v-0 5.84l-2.667 1.333v-7.173c0-0.002 0-0.005 0-0.008 0-0.366-0.148-0.698-0.387-0.939l0 0-7.067-7.053h17.573zM30.667 12h-21.333v-1.333c0-0.736 0.597-1.333 1.333-1.333v0h18.667c0.736 0 1.333 0.597 1.333 1.333v0z"></path>
</svg>
