<!-- Generated by IcoMoon.io -->
<svg version="1.1" xmlns="http://www.w3.org/2000/svg" width="40" height="40" viewBox="0 0 40 40">
<title>flask-potion</title>
<path fill="#91908d" d="M29.24 19.56c0.003-0.020 0.004-0.043 0.004-0.067s-0.001-0.047-0.004-0.069l0 0.003c-1.015-2.38-2.866-4.24-5.176-5.242l-0.064-0.025v-4.827h1.333c0.736 0 1.333-0.597 1.333-1.333s-0.597-1.333-1.333-1.333v0h-10.667c-0.736 0-1.333 0.597-1.333 1.333s0.597 1.333 1.333 1.333v0h1.333v4.827c-2.363 1.053-4.197 2.935-5.163 5.268l-0.024 0.065c-0.003 0.020-0.004 0.043-0.004 0.067s0.001 0.047 0.004 0.069l-0-0.003c-0.481 1.13-0.76 2.444-0.76 3.824 0 5.523 4.477 10 10 10s10-4.477 10-10c0-1.38-0.279-2.694-0.785-3.89l0.025 0.066zM17.747 16.347c0.538-0.179 0.92-0.678 0.92-1.267v-5.747h2.667v5.747c0 0.588 0.382 1.087 0.911 1.264l0.009 0.003c1.368 0.452 2.517 1.256 3.376 2.307l0.010 0.013h-11.28c0.87-1.064 2.019-1.868 3.336-2.305l0.051-0.015zM20 30.667c-4.047-0.008-7.326-3.286-7.333-7.333v-0.001c0.002-0.714 0.109-1.402 0.306-2.050l-0.013 0.050h14.080c0.184 0.598 0.291 1.286 0.293 1.999v0.001c-0.008 4.047-3.286 7.326-7.333 7.333h-0.001zM22.667 25.333c-0.736 0-1.333 0.597-1.333 1.333s0.597 1.333 1.333 1.333c0.736 0 1.333-0.597 1.333-1.333v0c0-0.736-0.597-1.333-1.333-1.333v0zM17.333 24c-0.736 0-1.333 0.597-1.333 1.333s0.597 1.333 1.333 1.333c0.736 0 1.333-0.597 1.333-1.333v0c0-0.736-0.597-1.333-1.333-1.333v0z"></path>
</svg>
