<!-- Generated by IcoMoon.io -->
<svg version="1.1" xmlns="http://www.w3.org/2000/svg" width="40" height="40" viewBox="0 0 40 40">
<title>flower</title>
<path fill="#91908d" d="M30.24 13.173c-0.791-0.424-1.731-0.674-2.729-0.674-0.601 0-1.18 0.090-1.726 0.258l0.042-0.011c-0.153-3.096-2.7-5.548-5.82-5.548s-5.667 2.452-5.819 5.534l-0.001 0.014c-0.515-0.161-1.108-0.254-1.723-0.254-0.981 0-1.908 0.237-2.724 0.656l0.034-0.016c-1.867 0.996-3.116 2.931-3.116 5.158 0 2.538 1.623 4.698 3.888 5.496l0.041 0.013c-0.66 0.929-1.058 2.084-1.067 3.331v0.002c0.006 0.358 0.040 0.703 0.099 1.040l-0.006-0.040c0.471 2.763 2.847 4.84 5.709 4.84 0.004 0 0.008 0 0.012 0h-0.001c0.128 0.009 0.277 0.015 0.427 0.015s0.299-0.005 0.446-0.016l-0.020 0.001c1.57-0.254 2.908-1.097 3.802-2.291l0.011-0.015c0.914 1.189 2.25 2.013 3.78 2.249l0.033 0.004c0.128 0.009 0.277 0.015 0.427 0.015s0.299-0.005 0.446-0.016l-0.020 0.001c3.208-0.004 5.807-2.605 5.807-5.813 0-1.254-0.397-2.415-1.072-3.365l0.012 0.018c2.32-0.799 3.958-2.963 3.958-5.509 0-2.23-1.256-4.167-3.099-5.142l-0.032-0.015zM17.787 10.587c0.574-0.55 1.354-0.889 2.213-0.889s1.64 0.339 2.214 0.89l-0.001-0.001c0.585 0.586 0.947 1.395 0.947 2.289 0 0.454-0.093 0.886-0.262 1.278l0.008-0.021-0.347 0.787-0.88 0.773c-0.5-0.177-1.076-0.284-1.676-0.293l-0.004-0c-0.777 0.001-1.515 0.168-2.18 0.467l0.034-0.014-0.747-1.72c-0.169-0.377-0.268-0.816-0.268-1.279 0-0.887 0.363-1.69 0.948-2.267l0-0zM9.653 19.707c-0.179-0.384-0.283-0.833-0.283-1.307 0-1.745 1.415-3.16 3.16-3.16 0.787 0 1.507 0.288 2.061 0.764l-0.004-0.003 0.653 0.573 0.467 1.067c-0.642 0.852-1.032 1.926-1.040 3.091v0.002c-0.008 0.090-0.012 0.194-0.012 0.3s0.004 0.21 0.013 0.314l-0.001-0.014h-0.733l-1.12 0.107c-0.099 0.011-0.215 0.017-0.332 0.017-1.232 0-2.299-0.705-2.82-1.733l-0.008-0.018zM18.453 27.813c-0.33 1.427-1.59 2.475-3.096 2.475-1.543 0-2.829-1.102-3.114-2.562l-0.003-0.020c-0.006-0.084-0.010-0.181-0.010-0.28s0.003-0.196 0.010-0.293l-0.001 0.013c0.010-1.136 0.629-2.125 1.545-2.659l0.015-0.008 0.68-0.48 1.213-0.133c0.756 1.043 1.859 1.794 3.138 2.086l0.036 0.007zM20 23.4c-1.473 0-2.667-1.194-2.667-2.667s1.194-2.667 2.667-2.667c1.473 0 2.667 1.194 2.667 2.667v0c0 1.473-1.194 2.667-2.667 2.667v0zM27.76 27.693c-0.26 1.498-1.55 2.622-3.103 2.622-0.166 0-0.329-0.013-0.488-0.038l0.018 0.002c-1.324-0.192-2.373-1.174-2.663-2.445l-0.004-0.021-0.187-0.8 0.28-1.227c1.251-0.416 2.271-1.245 2.92-2.323l0.013-0.024 0.667 0.4h0.12l0.88 0.52c0.963 0.557 1.6 1.582 1.6 2.756 0 0.204-0.019 0.404-0.056 0.598l0.003-0.020zM30.347 19.693c-0.53 1.055-1.601 1.767-2.839 1.773h-0.321l-0.853-0.133-1-0.547c-0.002-1.352-0.507-2.587-1.338-3.526l0.005 0.006 0.573-0.493 0.84-0.773c0.555-0.496 1.292-0.798 2.1-0.798 1.745 0 3.16 1.415 3.16 3.16 0 0.509-0.121 0.99-0.334 1.417l0.008-0.018z"></path>
</svg>
