<!-- Generated by IcoMoon.io -->
<svg version="1.1" xmlns="http://www.w3.org/2000/svg" width="40" height="40" viewBox="0 0 40 40">
<title>focus-target</title>
<path fill="#91908d" d="M8 16c0.736 0 1.333-0.597 1.333-1.333v0-4c0-0.736 0.597-1.333 1.333-1.333v0h4c0.736 0 1.333-0.597 1.333-1.333s-0.597-1.333-1.333-1.333v0h-4c-2.209 0-4 1.791-4 4v0 4c0 0.736 0.597 1.333 1.333 1.333v0zM14.667 30.667h-4c-0.736 0-1.333-0.597-1.333-1.333v0-4c0-0.736-0.597-1.333-1.333-1.333s-1.333 0.597-1.333 1.333v0 4c0 2.209 1.791 4 4 4v0h4c0.736 0 1.333-0.597 1.333-1.333s-0.597-1.333-1.333-1.333v0zM26.667 21.333c0.736 0 1.333-0.597 1.333-1.333s-0.597-1.333-1.333-1.333v0h-1.52c-0.5-1.87-1.943-3.314-3.776-3.805l-0.037-0.009v-1.52c0-0.736-0.597-1.333-1.333-1.333s-1.333 0.597-1.333 1.333v0 1.52c-1.87 0.5-3.314 1.943-3.805 3.776l-0.009 0.037h-1.52c-0.736 0-1.333 0.597-1.333 1.333s0.597 1.333 1.333 1.333v0h1.52c0.5 1.87 1.943 3.314 3.776 3.805l0.037 0.009v1.52c0 0.736 0.597 1.333 1.333 1.333s1.333-0.597 1.333-1.333v0-1.52c1.87-0.5 3.314-1.943 3.805-3.776l0.009-0.037zM20 22.667c-1.473 0-2.667-1.194-2.667-2.667s1.194-2.667 2.667-2.667c1.473 0 2.667 1.194 2.667 2.667v0c0 1.473-1.194 2.667-2.667 2.667v0zM32 24c-0.736 0-1.333 0.597-1.333 1.333v0 4c0 0.736-0.597 1.333-1.333 1.333v0h-4c-0.736 0-1.333 0.597-1.333 1.333s0.597 1.333 1.333 1.333v0h4c2.209 0 4-1.791 4-4v0-4c0-0.736-0.597-1.333-1.333-1.333v0zM29.333 6.667h-4c-0.736 0-1.333 0.597-1.333 1.333s0.597 1.333 1.333 1.333v0h4c0.736 0 1.333 0.597 1.333 1.333v0 4c0 0.736 0.597 1.333 1.333 1.333s1.333-0.597 1.333-1.333v0-4c0-2.209-1.791-4-4-4v0z"></path>
</svg>
