<!-- Generated by IcoMoon.io -->
<svg version="1.1" xmlns="http://www.w3.org/2000/svg" width="40" height="40" viewBox="0 0 40 40">
<title>folder-question</title>
<path fill="#91908d" d="M20.76 25.733c-0.057-0.067-0.123-0.125-0.196-0.171l-0.004-0.002-0.227-0.12-0.253-0.107c-0.075-0.015-0.162-0.024-0.251-0.024-0.371 0-0.707 0.152-0.949 0.397l-0 0c-0.122 0.119-0.221 0.261-0.29 0.418l-0.003 0.009c-0.059 0.145-0.094 0.314-0.094 0.491 0 0.010 0 0.020 0 0.031l-0-0.001c0.002 0.364 0.149 0.694 0.387 0.933l-0-0c0.119 0.122 0.261 0.221 0.418 0.29l0.009 0.003c0.145 0.059 0.314 0.094 0.491 0.094 0.010 0 0.020-0 0.031-0l-0.001 0c0.005 0 0.011 0 0.016 0 0.177 0 0.345-0.034 0.499-0.097l-0.009 0.003c0.166-0.073 0.308-0.172 0.426-0.293l0-0c0.243-0.238 0.395-0.567 0.4-0.932v-0.001c-0-0.188-0.040-0.367-0.11-0.529l0.003 0.009c-0.071-0.158-0.17-0.291-0.292-0.399l-0.001-0.001zM19.827 16c-0.001 0-0.002 0-0.003 0-1.473 0-2.76 0.796-3.454 1.981l-0.010 0.019c-0.131 0.203-0.208 0.45-0.208 0.715 0 0.736 0.597 1.333 1.333 1.333 0.51 0 0.954-0.287 1.178-0.708l0.004-0.007c0.234-0.407 0.665-0.676 1.16-0.676 0.736 0 1.333 0.597 1.333 1.333 0 0.003 0 0.007-0 0.010v-0.001c0 0.736-0.597 1.333-1.333 1.333v0c-0.736 0-1.333 0.597-1.333 1.333s0.597 1.333 1.333 1.333v0c2.209 0 4-1.791 4-4s-1.791-4-4-4v0zM29.333 11.333h-8.373l-0.427-1.333c-0.566-1.567-2.040-2.667-3.771-2.667-0.005 0-0.011 0-0.016 0h-6.079c-2.209 0-4 1.791-4 4v0 17.333c0 2.209 1.791 4 4 4v0h18.667c2.209 0 4-1.791 4-4v0-13.333c0-2.209-1.791-4-4-4v0zM30.667 28.667c0 0.736-0.597 1.333-1.333 1.333v0h-18.667c-0.736 0-1.333-0.597-1.333-1.333v0-17.333c0-0.736 0.597-1.333 1.333-1.333v0h6.080c0.001 0 0.002 0 0.003 0 0.584 0 1.080 0.375 1.26 0.897l0.003 0.009 0.72 2.187c0.183 0.532 0.68 0.907 1.263 0.907 0.001 0 0.002 0 0.004 0h9.333c0.736 0 1.333 0.597 1.333 1.333v0z"></path>
</svg>
