<!-- Generated by IcoMoon.io -->
<svg version="1.1" xmlns="http://www.w3.org/2000/svg" width="40" height="40" viewBox="0 0 40 40">
<title>glass-martini-alt-slash</title>
<path fill="#91908d" d="M30.28 25.72l-18.667-18.667c-0.242-0.242-0.577-0.392-0.947-0.392-0.739 0-1.339 0.599-1.339 1.339 0 0.37 0.15 0.704 0.392 0.947v0l3.067 3.053h-2.12c-0.527 0.002-0.981 0.308-1.197 0.752l-0.003 0.008c-0.069 0.156-0.11 0.338-0.11 0.529 0 0.303 0.101 0.583 0.272 0.807l-0.002-0.003 9.040 11.373v5.2h-5.667c-0.736 0-1.333 0.597-1.333 1.333s0.597 1.333 1.333 1.333v0h14c0.736 0 1.333-0.597 1.333-1.333s-0.597-1.333-1.333-1.333v0h-5.667v-5.2l2.187-2.667 4.867 4.867c0.242 0.244 0.577 0.394 0.947 0.394s0.705-0.151 0.947-0.394l0-0c0.26-0.244 0.422-0.59 0.422-0.973s-0.162-0.729-0.421-0.973l-0.001-0.001zM13.44 14.667h2.013l2.52 2.52h-2.52zM20 22.867l-2.413-3.013h3.053l0.987 0.987zM23.547 14.667h3.013l-0.84 1.053c-0.182 0.226-0.292 0.516-0.292 0.832 0 0.416 0.191 0.788 0.489 1.032l0.002 0.002c0.226 0.183 0.517 0.293 0.834 0.293 0.002 0 0.004 0 0.006 0h-0c0.001 0 0.003 0 0.005 0 0.417 0 0.789-0.191 1.034-0.491l0.002-0.002 2.573-3.227c0.168-0.221 0.27-0.501 0.27-0.804 0-0.191-0.040-0.373-0.113-0.538l0.003 0.009c-0.2-0.479-0.66-0.813-1.198-0.827l-0.002-0h-5.787c-0.736 0-1.333 0.597-1.333 1.333s0.597 1.333 1.333 1.333v0z"></path>
</svg>
