<!-- Generated by IcoMoon.io -->
<svg version="1.1" xmlns="http://www.w3.org/2000/svg" width="40" height="40" viewBox="0 0 40 40">
<title>google</title>
<path fill="#91908d" d="M34.136 17.339c-0.116-0.627-0.659-1.096-1.312-1.096h-12.558c-0 0-0 0-0 0-0.736 0-1.333 0.597-1.333 1.333 0 0 0 0 0 0v-0 5.158c0 0 0 0 0 0 0 0.736 0.597 1.333 1.333 1.333 0 0 0 0 0 0h5.283c-0.385 0.642-0.891 1.172-1.491 1.572l-0.018 0.011c-1.023 0.658-2.272 1.049-3.613 1.049-0.057 0-0.113-0.001-0.17-0.002l0.008 0c-2.891-0.034-5.33-1.927-6.182-4.537l-0.013-0.047-0-0.002c-0.222-0.63-0.35-1.355-0.35-2.111s0.128-1.482 0.364-2.157l-0.014 0.046 0-0.002c0.865-2.656 3.305-4.548 6.191-4.582l0.004-0c0.040-0.001 0.087-0.002 0.134-0.002 1.569 0 2.994 0.619 4.043 1.627l-0.002-0.002c0.239 0.229 0.564 0.37 0.922 0.37 0.368 0 0.702-0.149 0.943-0.39l3.824-3.824c0.241-0.241 0.391-0.574 0.391-0.943 0-0.385-0.163-0.731-0.424-0.975l-0.001-0.001c-2.527-2.373-5.937-3.831-9.688-3.831-0.050 0-0.1 0-0.149 0.001l0.008-0c-0.013-0-0.028-0-0.043-0-5.686 0-10.613 3.251-13.023 7.995l-0.038 0.083-0.002 0.002c-0.983 1.909-1.56 4.166-1.56 6.557 0 0.010 0 0.020 0 0.030v-0.002c0.004 2.401 0.579 4.667 1.599 6.67l-0.039-0.084 0.002 0.002c2.449 4.828 7.376 8.078 13.062 8.078 0.015 0 0.030-0 0.045-0h-0.002c0.106 0.003 0.23 0.004 0.355 0.004 3.608 0 6.898-1.361 9.384-3.598l-0.013 0.011 0.001-0.001 0.001-0.001 0-0c2.721-2.62 4.411-6.295 4.411-10.364 0-0.146-0.002-0.291-0.006-0.436l0.001 0.021c0-0.003 0-0.006 0-0.010 0-1.045-0.096-2.067-0.28-3.058l0.016 0.103zM20.267 8c0.033-0 0.073-0.001 0.113-0.001 2.569 0 4.943 0.837 6.864 2.253l-0.032-0.022-1.938 1.938c-1.37-0.959-3.070-1.532-4.905-1.532-0.036 0-0.072 0-0.107 0.001l0.005-0c-3.42 0.018-6.396 1.904-7.962 4.688l-0.024 0.046-2.206-1.71c2.139-3.42 5.885-5.661 10.154-5.661 0.013 0 0.026 0 0.039 0h-0.002zM8.906 23.871c-0.405-1.154-0.639-2.485-0.639-3.871s0.234-2.717 0.665-3.956l-0.026 0.084 2.376 1.842c-0.145 0.609-0.228 1.309-0.228 2.028s0.083 1.419 0.24 2.090l-0.012-0.062zM20.267 32c-0.011 0-0.024 0-0.037 0-4.269 0-8.015-2.241-10.125-5.611l-0.029-0.050 2.206-1.711c1.589 2.832 4.565 4.718 7.983 4.736h0.003c0.034 0 0.074 0.001 0.114 0.001 1.564 0 3.041-0.37 4.349-1.027l-0.056 0.025 2.256 1.751c-1.814 1.185-4.035 1.889-6.42 1.889-0.086 0-0.171-0.001-0.256-0.003l0.013 0zM28.968 28.319l-2.080-1.615c0.932-1.005 1.593-2.273 1.859-3.681l0.007-0.047c0.014-0.073 0.022-0.158 0.022-0.244 0-0.736-0.597-1.333-1.333-1.333-0 0-0 0-0.001 0h-5.842v-2.491h10.065c0.046 0.461 0.068 0.927 0.068 1.395 0.003 0.096 0.004 0.209 0.004 0.322 0 2.933-1.046 5.622-2.786 7.713l0.016-0.020z"></path>
</svg>
