<!-- Generated by IcoMoon.io -->
<svg version="1.1" xmlns="http://www.w3.org/2000/svg" width="40" height="40" viewBox="0 0 40 40">
<title>grin-tongue-wink</title>
<path fill="#91908d" d="M20 6.667c-7.364 0-13.333 5.97-13.333 13.333s5.97 13.333 13.333 13.333c7.364 0 13.333-5.97 13.333-13.333v0c0-7.364-5.97-13.333-13.333-13.333v0zM20 30.667c-5.891 0-10.667-4.776-10.667-10.667s4.776-10.667 10.667-10.667c5.891 0 10.667 4.776 10.667 10.667v0c0 5.891-4.776 10.667-10.667 10.667v0zM27.493 16.173c-0.735-0.698-1.731-1.128-2.827-1.128s-2.092 0.429-2.828 1.129l0.002-0.002c-0.199 0.232-0.321 0.535-0.321 0.867 0 0.736 0.597 1.333 1.333 1.333 0.332 0 0.636-0.121 0.869-0.322l-0.002 0.001c0.242-0.244 0.577-0.394 0.947-0.394s0.705 0.151 0.947 0.394l0 0c0.241 0.24 0.573 0.388 0.94 0.388s0.699-0.148 0.94-0.388l-0 0c0.24-0.241 0.388-0.573 0.388-0.94s-0.148-0.699-0.388-0.94l0 0zM16 18.667c0.736 0 1.333-0.597 1.333-1.333s-0.597-1.333-1.333-1.333c-0.736 0-1.333 0.597-1.333 1.333v0c0 0.736 0.597 1.333 1.333 1.333v0zM24 21.333h-8c-0.736 0-1.333 0.597-1.333 1.333s0.597 1.333 1.333 1.333v0c0 2.209 1.791 4 4 4s4-1.791 4-4v0c0.736 0 1.333-0.597 1.333-1.333s-0.597-1.333-1.333-1.333v0zM20 25.333c-0.736 0-1.333-0.597-1.333-1.333v0h2.667c0 0.736-0.597 1.333-1.333 1.333v0z"></path>
</svg>
