<!-- Generated by IcoMoon.io -->
<svg version="1.1" xmlns="http://www.w3.org/2000/svg" width="40" height="40" viewBox="0 0 40 40">
<title>head-side</title>
<path fill="#91908d" d="M21.641 6.671c-0.112-0.005-0.243-0.007-0.374-0.007-2.688 0-5.123 1.079-6.898 2.827l0.001-0.001c-1.873 1.807-3.036 4.339-3.036 7.143 0 0.012 0 0.024 0 0.036v-0.002 0.040l-2.539 5.391c-0.081 0.167-0.128 0.362-0.128 0.569 0 0.736 0.597 1.333 1.333 1.333 0 0 0.001 0 0.001 0h1.333v2.667c0.002 1.472 1.195 2.665 2.666 2.667h1.334v2.667c0 0.736 0.597 1.333 1.333 1.333s1.333-0.597 1.333-1.333v0-2.667c0.736 0 1.333-0.597 1.333-1.333s-0.597-1.333-1.333-1.333v0h-4v-4c0-0 0-0 0-0 0-0.736-0.597-1.333-1.333-1.333-0 0-0 0-0 0h-0.565l1.786-3.792c0.080-0.166 0.127-0.36 0.127-0.566 0-0.019-0-0.037-0.001-0.056l0 0.003c0-0.014-0.013-0.242-0.014-0.255-0-0.008-0-0.017-0-0.026 0-2.056 0.853-3.913 2.224-5.235l0.002-0.002c1.324-1.281 3.13-2.070 5.121-2.070 0.075 0 0.149 0.001 0.223 0.003l-0.011-0c3.978 0.256 7.108 3.545 7.108 7.565 0 0.045-0 0.090-0.001 0.135l0-0.007-2.622 10.006c-0.028 0.102-0.044 0.22-0.044 0.342 0 0.132 0.019 0.259 0.054 0.38l-0.002-0.010 1.333 4.622c0.166 0.561 0.677 0.964 1.281 0.964h0c0.132-0.001 0.259-0.020 0.379-0.055l-0.010 0.002c0.561-0.166 0.964-0.677 0.964-1.281 0-0.132-0.019-0.259-0.055-0.379l0.002 0.009-1.232-4.267 2.573-9.688c0.028-0.102 0.044-0.22 0.044-0.342v-0.304c0-0.033 0.001-0.072 0.001-0.111 0-5.468-4.276-9.937-9.666-10.247l-0.027-0.001z"></path>
</svg>
