<!-- Generated by IcoMoon.io -->
<svg version="1.1" xmlns="http://www.w3.org/2000/svg" width="40" height="40" viewBox="0 0 40 40">
<title>headphone-slash</title>
<path fill="#91908d" d="M29.426 11.914c-2.404-2.426-5.737-3.928-9.42-3.928-1.099 0-2.168 0.134-3.189 0.386l0.091-0.019c-0.598 0.14-1.037 0.669-1.037 1.3 0 0.736 0.597 1.333 1.333 1.333 0.102 0 0.202-0.012 0.298-0.033l-0.009 0.002c0.746-0.186 1.601-0.292 2.482-0.292 5.898 0 10.68 4.775 10.692 10.67v0.001h-0.453c-0.736 0-1.333 0.597-1.333 1.333s0.597 1.333 1.333 1.333v0h0.453v0.453c0 0.736 0.597 1.333 1.333 1.333s1.333-0.597 1.333-1.333v0-3.12c0-0.015 0-0.033 0-0.051 0-3.664-1.494-6.978-3.907-9.368l-0.001-0.001zM8.943 7.057c-0.24-0.236-0.57-0.382-0.934-0.382-0.736 0-1.333 0.597-1.333 1.333 0 0.364 0.146 0.694 0.382 0.934l3.247 3.247c-2.253 2.375-3.638 5.592-3.638 9.133 0 0.004 0 0.008 0 0.012v-0.001 9.333c0 0.736 0.597 1.333 1.333 1.333v0h4c2.208-0.003 3.997-1.792 4-4v-2.667c-0.003-2.208-1.792-3.997-4-4h-2.667c0-0.002 0-0.004 0-0.006 0-2.805 1.088-5.356 2.865-7.255l-0.006 0.006 11.807 11.807v2.115c0.002 2.208 1.792 3.998 4 4h2.115l0.943 0.943c0.241 0.238 0.572 0.385 0.937 0.385 0.736 0 1.333-0.597 1.333-1.333 0-0.365-0.147-0.696-0.385-0.937l0 0zM12 24c0.736 0.001 1.332 0.597 1.333 1.333v2.667c-0.001 0.736-0.597 1.332-1.333 1.333h-2.667v-5.333z"></path>
</svg>
