<!-- Generated by IcoMoon.io -->
<svg version="1.1" xmlns="http://www.w3.org/2000/svg" width="40" height="40" viewBox="0 0 40 40">
<title>instagram</title>
<path fill="#91908d" d="M27.12 11.28v0c-0.884 0-1.6 0.716-1.6 1.6s0.716 1.6 1.6 1.6c0.884 0 1.6-0.716 1.6-1.6v0c0-0.884-0.716-1.6-1.6-1.6v0zM33.253 14.507c-0.028-1.17-0.251-2.28-0.636-3.31l0.023 0.070c-0.358-0.923-0.884-1.71-1.546-2.359l-0.001-0.001c-0.645-0.667-1.434-1.19-2.317-1.519l-0.043-0.014c-0.959-0.374-2.070-0.602-3.229-0.626l-0.011-0c-1.413-0.080-1.867-0.080-5.493-0.080s-4.080 0-5.493 0.080c-1.17 0.025-2.281 0.253-3.306 0.649l0.066-0.023c-0.925 0.347-1.713 0.87-2.359 1.532l-0.001 0.001c-0.667 0.645-1.19 1.434-1.519 2.317l-0.014 0.043c-0.374 0.959-0.602 2.070-0.626 3.229l-0 0.011c-0.080 1.413-0.080 1.867-0.080 5.493s0 4.080 0.080 5.493c0.025 1.17 0.253 2.281 0.649 3.306l-0.023-0.066c0.344 0.926 0.867 1.715 1.532 2.358l0.002 0.002c0.647 0.664 1.435 1.186 2.316 1.519l0.044 0.015c0.959 0.374 2.070 0.602 3.229 0.626l0.011 0c1.413 0.080 1.867 0.080 5.493 0.080s4.080 0 5.493-0.080c1.17-0.025 2.281-0.253 3.306-0.649l-0.066 0.023c0.926-0.344 1.715-0.867 2.358-1.532l0.002-0.002c0.666-0.648 1.193-1.435 1.532-2.316l0.015-0.044c0.363-0.96 0.585-2.070 0.613-3.228l0-0.012c0-1.413 0.080-1.867 0.080-5.493s0-4.080-0.080-5.493zM30.853 25.333c-0.011 0.893-0.176 1.744-0.47 2.532l0.017-0.052c-0.225 0.602-0.566 1.115-0.999 1.532l-0.001 0.001c-0.422 0.43-0.933 0.77-1.504 0.99l-0.029 0.010c-0.736 0.277-1.587 0.443-2.475 0.453l-0.005 0c-1.333 0.067-1.827 0.080-5.333 0.080s-4 0-5.333-0.080c-0.043 0.001-0.093 0.001-0.143 0.001-0.875 0-1.715-0.147-2.497-0.417l0.054 0.016c-0.573-0.241-1.061-0.58-1.465-0.999l-0.001-0.001c-0.432-0.418-0.769-0.931-0.978-1.506l-0.009-0.028c-0.31-0.747-0.504-1.614-0.533-2.522l-0-0.012c0-1.333-0.080-1.827-0.080-5.333s0-4 0.080-5.333c0.006-0.912 0.177-1.781 0.484-2.584l-0.017 0.051c0.246-0.58 0.603-1.070 1.049-1.463l0.004-0.004c0.399-0.45 0.888-0.811 1.44-1.056l0.027-0.011c0.753-0.28 1.623-0.446 2.53-0.453l0.003-0c1.333 0 1.827-0.080 5.333-0.080s4 0 5.333 0.080c0.893 0.011 1.744 0.176 2.532 0.47l-0.052-0.017c0.627 0.237 1.158 0.601 1.584 1.064l0.003 0.003c0.427 0.401 0.767 0.891 0.99 1.439l0.010 0.027c0.284 0.753 0.449 1.623 0.453 2.532v0.002c0.067 1.333 0.080 1.827 0.080 5.333s-0.013 4-0.080 5.333zM20 13.16c-3.772 0.008-6.827 3.067-6.827 6.84 0 3.778 3.062 6.84 6.84 6.84s6.84-3.062 6.84-6.84v0c0-0.004 0-0.009 0-0.013 0-3.77-3.056-6.827-6.827-6.827-0.009 0-0.019 0-0.028 0h0.001zM20 24.44c-2.452 0-4.44-1.988-4.44-4.44s1.988-4.44 4.44-4.44c2.452 0 4.44 1.988 4.44 4.44v0c0 2.452-1.988 4.44-4.44 4.44v0z"></path>
</svg>
