<!-- Generated by IcoMoon.io -->
<svg version="1.1" xmlns="http://www.w3.org/2000/svg" width="40" height="40" viewBox="0 0 40 40">
<title>java-script</title>
<path fill="#91908d" d="M23.304 23.844c-0.157 0.016-0.34 0.026-0.525 0.026-0.871 0-1.693-0.206-2.422-0.571l0.031 0.014c-0.402-0.324-0.67-0.8-0.714-1.34l-0-0.007c-0.002-0.162-0.134-0.293-0.296-0.293-0.002 0-0.004 0-0.007 0h0c-0.422-0.005-0.844-0.004-1.266-0.001-0.009-0.001-0.019-0.001-0.029-0.001-0.144 0-0.263 0.109-0.28 0.249l-0 0.001c-0.003 0.049-0.004 0.106-0.004 0.163 0 0.907 0.388 1.724 1.006 2.294l0.002 0.002c0.816 0.641 1.84 1.051 2.957 1.117l0.014 0.001c0.372 0.046 0.802 0.072 1.238 0.072 0.757 0 1.496-0.078 2.209-0.227l-0.070 0.012c0.886-0.169 1.652-0.599 2.236-1.205l0.001-0.001c0.434-0.531 0.696-1.217 0.696-1.964 0-0.362-0.062-0.709-0.175-1.032l0.007 0.022c-0.296-0.711-0.89-1.246-1.623-1.455l-0.018-0.004c-1.708-0.599-3.552-0.554-5.293-1.009-0.302-0.095-0.672-0.198-0.806-0.518-0.040-0.111-0.063-0.239-0.063-0.372 0-0.365 0.172-0.69 0.439-0.899l0.003-0.002c0.486-0.283 1.070-0.449 1.692-0.449 0.037 0 0.075 0.001 0.112 0.002l-0.005-0c0.152-0.015 0.33-0.024 0.509-0.024 0.721 0 1.41 0.141 2.040 0.396l-0.036-0.013c0.476 0.284 0.815 0.756 0.914 1.311l0.002 0.012c0.005 0.168 0.137 0.303 0.303 0.314l0.001 0c0.419 0.009 0.838 0.002 1.257 0.003 0.011 0.001 0.023 0.002 0.036 0.002 0.14 0 0.258-0.095 0.293-0.224l0.001-0.002c0-0.006 0-0.014 0-0.021 0-1.178-0.628-2.21-1.568-2.778l-0.014-0.008c-0.963-0.456-2.093-0.721-3.285-0.721-0.355 0-0.704 0.024-1.046 0.069l0.040-0.004v-0c-1.119 0.047-2.128 0.481-2.906 1.17l0.005-0.004c-0.48 0.516-0.774 1.21-0.774 1.972 0 0.376 0.071 0.735 0.202 1.064l-0.007-0.020c0.312 0.683 0.894 1.197 1.606 1.411l0.018 0.005c1.702 0.615 3.567 0.417 5.286 0.961 0.335 0.114 0.725 0.287 0.827 0.66 0.024 0.095 0.038 0.204 0.038 0.316 0 0.37-0.152 0.705-0.398 0.945l-0 0c-0.594 0.374-1.316 0.596-2.090 0.596-0.106 0-0.211-0.004-0.315-0.012l0.014 0.001zM31.063 12.583q-4.984-2.819-9.971-5.632c-0.314-0.179-0.691-0.284-1.092-0.284s-0.777 0.106-1.103 0.29l0.011-0.006q-4.967 2.805-9.935 5.61c-0.639 0.353-1.066 1.021-1.072 1.789v11.3c0.011 0.782 0.455 1.458 1.102 1.801l0.011 0.005c0.951 0.518 1.876 1.088 2.844 1.572 0.557 0.304 1.221 0.482 1.926 0.482 0.626 0 1.219-0.141 1.75-0.393l-0.025 0.011c0.804-0.51 1.331-1.395 1.331-2.404 0-0.055-0.002-0.11-0.005-0.165l0 0.008c0.007-3.729 0.001-7.458 0.003-11.187 0.002-0.014 0.004-0.030 0.004-0.046 0-0.157-0.124-0.286-0.279-0.293l-0.001-0c-0.423-0.007-0.847-0.004-1.27-0.001-0.007-0.001-0.016-0.001-0.025-0.001-0.154 0-0.279 0.125-0.279 0.279 0 0.002 0 0.005 0 0.007v-0c-0.006 3.705 0.001 7.411-0.003 11.117 0 0.001 0 0.003 0 0.005 0 0.534-0.333 0.99-0.803 1.171l-0.009 0.003c-0.173 0.053-0.373 0.084-0.579 0.084-0.398 0-0.769-0.114-1.083-0.31l0.009 0.005q-1.322-0.747-2.644-1.493c-0.108-0.052-0.181-0.16-0.181-0.286 0-0.010 0-0.020 0.001-0.029l-0 0.001q0-5.592 0-11.183c-0.001-0.009-0.001-0.019-0.001-0.029 0-0.142 0.086-0.264 0.208-0.317l0.002-0.001q4.951-2.789 9.9-5.583c0.054-0.038 0.122-0.060 0.194-0.060s0.14 0.023 0.196 0.061l-0.001-0.001q4.951 2.789 9.901 5.581c0.124 0.055 0.209 0.178 0.209 0.32 0 0.010-0 0.020-0.001 0.030l0-0.001q-0.001 5.591-0.001 11.182c0.001 0.009 0.001 0.019 0.001 0.029 0 0.126-0.072 0.235-0.177 0.288l-0.002 0.001q-4.875 2.757-9.756 5.505c-0.155 0.087-0.339 0.226-0.521 0.121-0.852-0.482-1.694-0.983-2.543-1.47-0.046-0.035-0.104-0.056-0.167-0.056-0.051 0-0.1 0.014-0.141 0.039l0.001-0.001c-0.334 0.2-0.722 0.385-1.128 0.533l-0.048 0.015c-0.184 0.075-0.411 0.096-0.537 0.267 0.159 0.172 0.35 0.312 0.564 0.41l0.011 0.004q1.49 0.863 2.981 1.724c0.328 0.209 0.727 0.333 1.156 0.333 0.386 0 0.748-0.101 1.063-0.277l-0.011 0.006q4.968-2.801 9.936-5.605c0.658-0.349 1.101-1.024 1.114-1.805l0-0.002v-11.299c-0.006-0.754-0.418-1.41-1.027-1.763l-0.010-0.005z"></path>
</svg>
