<!-- Generated by IcoMoon.io -->
<svg version="1.1" xmlns="http://www.w3.org/2000/svg" width="40" height="40" viewBox="0 0 40 40">
<title>link-broken</title>
<path fill="#91908d" d="M10.347 18.12c0.052 0.007 0.112 0.011 0.173 0.011 0.743 0 1.345-0.602 1.345-1.345 0-0.681-0.507-1.245-1.164-1.333l-0.007-0.001-2.347-0.587c-0.117-0.037-0.251-0.059-0.391-0.059-0.736 0-1.333 0.597-1.333 1.333 0 0.629 0.436 1.156 1.022 1.297l0.009 0.002 2.347 0.627c0.098 0.034 0.211 0.053 0.329 0.053 0.006 0 0.012-0 0.018-0h-0.001zM15.493 10.667c0.158 0.573 0.674 0.987 1.288 0.987 0.016 0 0.032-0 0.048-0.001l-0.002 0c0.052 0.009 0.112 0.014 0.173 0.014s0.121-0.005 0.18-0.015l-0.006 0.001c0.568-0.161 0.978-0.675 0.978-1.285 0-0.121-0.016-0.239-0.047-0.351l0.002 0.009-0.627-2.347c-0.142-0.595-0.669-1.031-1.299-1.031-0.736 0-1.333 0.597-1.333 1.333 0 0.139 0.021 0.274 0.061 0.4l-0.003-0.009zM21.933 24c-0.243-0.256-0.586-0.415-0.967-0.415s-0.723 0.159-0.966 0.414l-0.001 0.001-4.667 4.747c-0.529 0.508-1.248 0.82-2.040 0.82s-1.511-0.313-2.041-0.821l0.001 0.001c-0.527-0.52-0.853-1.242-0.853-2.040s0.326-1.52 0.852-2.040l0-0 4.747-4.667c0.286-0.246 0.466-0.608 0.466-1.013 0-0.736-0.597-1.333-1.333-1.333-0.404 0-0.767 0.18-1.011 0.464l-0.001 0.002-4.787 4.653c-1.010 1.010-1.635 2.405-1.635 3.947 0 3.083 2.499 5.581 5.581 5.581 1.541 0 2.937-0.625 3.947-1.635l4.707-4.707c0.264-0.244 0.429-0.593 0.429-0.98s-0.165-0.736-0.428-0.979l-0.001-0.001zM10.907 12.787c0.24 0.238 0.569 0.385 0.933 0.387h0c0.002 0 0.005 0 0.008 0 0.366 0 0.698-0.148 0.939-0.387l-0 0c0.24-0.241 0.388-0.573 0.388-0.94s-0.148-0.699-0.388-0.94l-1.72-1.72c-0.232-0.199-0.535-0.321-0.867-0.321-0.736 0-1.333 0.597-1.333 1.333 0 0.332 0.121 0.636 0.322 0.869l-0.001-0.002zM32.347 22.56l-2.347-0.627c-0.13-0.046-0.28-0.073-0.436-0.073-0.736 0-1.333 0.597-1.333 1.333 0 0.655 0.472 1.199 1.094 1.312l0.008 0.001 2.347 0.627h0.347c0.052 0.007 0.112 0.011 0.173 0.011 0.743 0 1.345-0.602 1.345-1.345 0-0.681-0.507-1.245-1.164-1.333l-0.007-0.001zM24.507 29.333c-0.16-0.57-0.675-0.981-1.286-0.981-0.126 0-0.248 0.017-0.363 0.050l0.009-0.002c-0.568 0.161-0.978 0.675-0.978 1.285 0 0.121 0.016 0.239 0.047 0.351l-0.002-0.009 0.627 2.347c0.158 0.573 0.674 0.987 1.288 0.987 0.016 0 0.032-0 0.048-0.001l-0.002 0c0.052 0.006 0.112 0.010 0.173 0.010s0.121-0.004 0.181-0.011l-0.007 0.001c0.576-0.156 0.994-0.674 0.994-1.289 0-0.125-0.017-0.246-0.049-0.36l0.002 0.009zM29.093 27.24c-0.232-0.199-0.535-0.321-0.867-0.321-0.736 0-1.333 0.597-1.333 1.333 0 0.332 0.121 0.636 0.322 0.869l-0.001-0.002 1.72 1.72c0.241 0.24 0.573 0.388 0.94 0.388s0.699-0.148 0.94-0.388l-0 0c0.24-0.241 0.388-0.573 0.388-0.94s-0.148-0.699-0.388-0.94l0 0zM32.267 13.333c0.001-0.031 0.001-0.067 0.001-0.104 0-3.063-2.483-5.547-5.547-5.547-1.544 0-2.941 0.631-3.947 1.65l-0.001 0.001-4.707 4.747c-0.245 0.246-0.396 0.585-0.396 0.96 0 0.752 0.61 1.362 1.362 1.362 0.378 0 0.72-0.154 0.967-0.402l0-0 4.667-4.747c0.529-0.508 1.248-0.82 2.040-0.82s1.511 0.313 2.041 0.821l-0.001-0.001c0.527 0.52 0.853 1.242 0.853 2.040s-0.326 1.52-0.852 2.040l-0 0-4.747 4.667c-0.24 0.241-0.388 0.573-0.388 0.94s0.148 0.699 0.388 0.94l-0-0c0.241 0.24 0.573 0.388 0.94 0.388s0.699-0.148 0.94-0.388l-0 0 4.787-4.653c0.985-1.002 1.594-2.376 1.6-3.892v-0.001z"></path>
</svg>
