<!-- Generated by IcoMoon.io -->
<svg version="1.1" xmlns="http://www.w3.org/2000/svg" width="40" height="40" viewBox="0 0 40 40">
<title>lock-access</title>
<path fill="#91908d" d="M32 6.667h-8c-0.736 0-1.333 0.597-1.333 1.333s0.597 1.333 1.333 1.333v0h6.667v6.667c0 0.736 0.597 1.333 1.333 1.333s1.333-0.597 1.333-1.333v0-8c0-0.736-0.597-1.333-1.333-1.333v0zM32 22.667c-0.736 0-1.333 0.597-1.333 1.333v0 6.667h-6.667c-0.736 0-1.333 0.597-1.333 1.333s0.597 1.333 1.333 1.333v0h8c0.736 0 1.333-0.597 1.333-1.333v0-8c0-0.736-0.597-1.333-1.333-1.333v0zM20 12c-2.209 0-4 1.791-4 4v0 1.333c-1.473 0-2.667 1.194-2.667 2.667v0 5.333c0 1.473 1.194 2.667 2.667 2.667v0h8c1.473 0 2.667-1.194 2.667-2.667v0-5.333c0-1.473-1.194-2.667-2.667-2.667v0-1.333c0-2.209-1.791-4-4-4v0zM18.667 16c0-0.736 0.597-1.333 1.333-1.333s1.333 0.597 1.333 1.333v0 1.333h-2.667zM24 25.333h-8v-5.333h8zM8 17.333c0.736 0 1.333-0.597 1.333-1.333v0-6.667h6.667c0.736 0 1.333-0.597 1.333-1.333s-0.597-1.333-1.333-1.333v0h-8c-0.736 0-1.333 0.597-1.333 1.333v0 8c0 0.736 0.597 1.333 1.333 1.333v0zM16 30.667h-6.667v-6.667c0-0.736-0.597-1.333-1.333-1.333s-1.333 0.597-1.333 1.333v0 8c0 0.736 0.597 1.333 1.333 1.333v0h8c0.736 0 1.333-0.597 1.333-1.333s-0.597-1.333-1.333-1.333v0z"></path>
</svg>
