<!-- Generated by IcoMoon.io -->
<svg version="1.1" xmlns="http://www.w3.org/2000/svg" width="40" height="40" viewBox="0 0 40 40">
<title>megaphone</title>
<path fill="#91908d" d="M30.655 6.669c-0 0-0.001 0-0.001 0-0.736 0-1.333 0.597-1.333 1.333 0 0 0 0.001 0 0.001v-0 0.849c-2.217 2.733-5.571 4.47-9.331 4.484h-8.002c-2.208 0.003-3.998 1.792-4 4v2.667c0.002 2.208 1.792 3.997 4 4h0.645l-3.204 7.475c-0.068 0.155-0.108 0.336-0.108 0.526 0 0.736 0.597 1.332 1.332 1.332 0 0 0.001 0 0.001 0h5.333c0 0 0.001 0 0.001 0 0.546 0 1.016-0.329 1.221-0.8l0.003-0.009 3.632-8.474c3.433 0.259 6.434 1.923 8.459 4.411l0.017 0.022v0.849c0 0.736 0.597 1.333 1.333 1.333s1.333-0.597 1.333-1.333v0-21.333c0-0 0-0.001 0-0.001 0-0.736-0.597-1.333-1.333-1.333-0 0-0.001 0-0.001 0h0zM11.988 21.336c-0.736-0.001-1.333-0.597-1.333-1.333v-2.667c0.001-0.736 0.597-1.333 1.333-1.333h1.333v5.333zM15.109 30.669h-2.432l2.857-6.667h2.432zM29.322 24.698c-2.517-2.085-5.776-3.353-9.331-3.362h-4.002v-5.333h4c3.557-0.009 6.817-1.278 9.358-3.383l-0.025 0.020z"></path>
</svg>
