<!-- Generated by IcoMoon.io -->
<svg version="1.1" xmlns="http://www.w3.org/2000/svg" width="40" height="40" viewBox="0 0 40 40">
<title>money-stack</title>
<path fill="#91908d" d="M33.333 26.667h-26.667c-0.736 0-1.333 0.597-1.333 1.333s0.597 1.333 1.333 1.333v0h26.667c0.736 0 1.333-0.597 1.333-1.333s-0.597-1.333-1.333-1.333v0zM33.333 32h-26.667c-0.736 0-1.333 0.597-1.333 1.333s0.597 1.333 1.333 1.333v0h26.667c0.736 0 1.333-0.597 1.333-1.333s-0.597-1.333-1.333-1.333v0zM12 13.333c-0.736 0-1.333 0.597-1.333 1.333s0.597 1.333 1.333 1.333c0.736 0 1.333-0.597 1.333-1.333v0c0-0.736-0.597-1.333-1.333-1.333v0zM30.667 5.333h-21.333c-2.209 0-4 1.791-4 4v0 10.667c0 2.209 1.791 4 4 4v0h21.333c2.209 0 4-1.791 4-4v0-10.667c0-2.209-1.791-4-4-4v0zM32 20c0 0.736-0.597 1.333-1.333 1.333v0h-21.333c-0.736 0-1.333-0.597-1.333-1.333v0-10.667c0-0.736 0.597-1.333 1.333-1.333v0h21.333c0.736 0 1.333 0.597 1.333 1.333v0zM20 10.667c-2.209 0-4 1.791-4 4s1.791 4 4 4c2.209 0 4-1.791 4-4v0c0-2.209-1.791-4-4-4v0zM20 16c-0.736 0-1.333-0.597-1.333-1.333s0.597-1.333 1.333-1.333c0.736 0 1.333 0.597 1.333 1.333v0c0 0.736-0.597 1.333-1.333 1.333v0zM28 13.333c-0.736 0-1.333 0.597-1.333 1.333s0.597 1.333 1.333 1.333c0.736 0 1.333-0.597 1.333-1.333v0c0-0.736-0.597-1.333-1.333-1.333v0z"></path>
</svg>
