<!-- Generated by IcoMoon.io -->
<svg version="1.1" xmlns="http://www.w3.org/2000/svg" width="40" height="40" viewBox="0 0 40 40">
<title>mountains</title>
<path fill="#91908d" d="M33.133 27.293l-6.667-10.667c-0.239-0.381-0.657-0.631-1.133-0.631s-0.894 0.25-1.13 0.625l-0.003 0.006-1.333 2.173-4.387-7.467c-0.237-0.394-0.661-0.653-1.147-0.653s-0.91 0.259-1.143 0.647l-0.003 0.006-9.333 16c-0.112 0.191-0.179 0.421-0.179 0.667 0 0.734 0.592 1.329 1.325 1.333h24c0.001 0 0.002 0 0.003 0 0.736 0 1.333-0.597 1.333-1.333 0-0.262-0.076-0.506-0.206-0.712l0.003 0.005zM17.933 26.667h-7.613l7.013-12 3.907 6.667zM21.067 26.667l2.933-4.573 1.333-2.24 4.267 6.813z"></path>
</svg>
