<!-- Generated by IcoMoon.io -->
<svg version="1.1" xmlns="http://www.w3.org/2000/svg" width="40" height="40" viewBox="0 0 40 40">
<title>mouse</title>
<path fill="#91908d" d="M20 6.667c-5.155 0-9.333 4.179-9.333 9.333v0 8c0 5.155 4.179 9.333 9.333 9.333s9.333-4.179 9.333-9.333v0-8c0-5.155-4.179-9.333-9.333-9.333v0zM13.333 16c0-0 0-0.001 0-0.001 0-3.21 2.269-5.89 5.29-6.524l0.043-0.008v7.867h-5.333zM26.667 24c0 3.682-2.985 6.667-6.667 6.667s-6.667-2.985-6.667-6.667v0-4h13.333zM26.667 17.333h-5.333v-7.867c3.065 0.642 5.333 3.322 5.333 6.532 0 0 0 0.001 0 0.001v-0z"></path>
</svg>
