<!-- Generated by IcoMoon.io -->
<svg version="1.1" xmlns="http://www.w3.org/2000/svg" width="40" height="40" viewBox="0 0 40 40">
<title>notion</title>
<path fill="#91908d" d="M24.511 4.073l-18.5 1.307c-1.492 0.124-2.012 1.058-2.012 2.177v19.411c0 0.872 0.324 1.618 1.103 2.614l4.349 5.413c0.714 0.872 1.363 1.058 2.727 0.996l21.484-1.244c1.817-0.124 2.337-0.933 2.337-2.302v-21.837c0-0.708-0.292-0.912-1.152-1.514-0.047-0.033-0.096-0.067-0.147-0.103l-5.905-3.982c-1.428-0.995-2.012-1.12-4.284-0.933zM12.667 10.247c-1.754 0.114-2.153 0.139-3.149-0.637l-2.533-1.929c-0.258-0.249-0.129-0.56 0.52-0.622l17.785-1.244c1.492-0.125 2.271 0.374 2.856 0.809l3.051 2.116c0.13 0.062 0.454 0.435 0.064 0.435l-18.594 1.073zM10.621 32.256v-18.539c0-0.809 0.26-1.182 1.038-1.245l21.095-1.182c0.716-0.062 1.040 0.374 1.040 1.182v18.415c0 0.809-0.13 1.495-1.299 1.556l-20.186 1.121c-1.168 0.062-1.687-0.311-1.687-1.308zM30.548 14.711c0.129 0.561 0 1.12-0.585 1.183l-0.973 0.186v13.687c-0.844 0.435-1.623 0.684-2.272 0.684-1.039 0-1.299-0.311-2.077-1.244l-6.362-9.581v9.27l2.013 0.436c0 0 0 1.119-1.624 1.119l-4.478 0.249c-0.13-0.249 0-0.871 0.454-0.995l1.168-0.311v-12.256l-1.622-0.125c-0.13-0.56 0.194-1.368 1.103-1.431l4.804-0.311 6.621 9.705v-8.586l-1.688-0.186c-0.13-0.685 0.389-1.183 1.038-1.244l4.48-0.25z"></path>
</svg>
