<!-- Generated by IcoMoon.io -->
<svg version="1.1" xmlns="http://www.w3.org/2000/svg" width="40" height="40" viewBox="0 0 40 40">
<title>octagon</title>
<path fill="#91908d" d="M32.947 14.093l-7.027-7.040c-0.246-0.235-0.579-0.381-0.946-0.387h-9.948c-0.368 0.005-0.701 0.152-0.947 0.387l0.001-0.001-7.027 7.040c-0.238 0.24-0.385 0.569-0.387 0.933v9.947c0.002 0.364 0.149 0.694 0.387 0.933l-0-0 7.027 7.040c0.246 0.235 0.579 0.381 0.946 0.387h9.948c0.368-0.005 0.701-0.152 0.947-0.387l-0.001 0.001 7.027-7.040c0.238-0.24 0.385-0.569 0.387-0.933v-9.947c-0.002-0.364-0.149-0.694-0.387-0.933l0 0zM30.667 24.413l-6.253 6.253h-8.827l-6.253-6.253v-8.827l6.253-6.253h8.827l6.253 6.253z"></path>
</svg>
