<!-- Generated by IcoMoon.io -->
<svg version="1.1" xmlns="http://www.w3.org/2000/svg" width="40" height="40" viewBox="0 0 40 40">
<title>picture</title>
<path fill="#91908d" d="M30.667 9.333c0.734-0.003 1.328-0.599 1.328-1.333 0-0.364-0.145-0.693-0.381-0.934l0 0c-0.242-0.244-0.577-0.394-0.947-0.394s-0.705 0.151-0.947 0.394l-0 0c-0.117 0.119-0.211 0.261-0.277 0.418l-0.003 0.009c-0.068 0.14-0.107 0.304-0.107 0.478 0 0.010 0 0.020 0 0.030l-0-0.001c0 0.736 0.597 1.333 1.333 1.333v0zM30.667 21.333c-0.736 0-1.333 0.597-1.333 1.333v0 0.52l-1.973-1.973c-0.669-0.673-1.596-1.090-2.62-1.090s-1.951 0.417-2.62 1.090l-0.934 0.934-3.307-3.32c-0.682-0.646-1.604-1.043-2.62-1.043s-1.938 0.397-2.622 1.044l0.002-0.002-1.973 1.973v-7.467c0-0.736 0.597-1.333 1.333-1.333v0h13.333c0.736 0 1.333-0.597 1.333-1.333s-0.597-1.333-1.333-1.333v0h-13.333c-2.209 0-4 1.791-4 4v0 16c0 2.209 1.791 4 4 4v0h16c2.209 0 4-1.791 4-4v0-6.667c0-0.736-0.597-1.333-1.333-1.333v0zM12 30.667c-0.736 0-1.333-0.597-1.333-1.333v0-4.76l3.867-3.867c0.189-0.18 0.445-0.291 0.727-0.291s0.538 0.111 0.727 0.291l4.226 4.226 5.72 5.733zM29.333 29.333c-0.012 0.266-0.1 0.509-0.243 0.711l0.003-0.004-6.013-6.040 0.933-0.933c0.188-0.187 0.447-0.303 0.733-0.303s0.545 0.116 0.733 0.303l-0-0 3.853 3.893zM30.667 10.667c-0.736 0-1.333 0.597-1.333 1.333v0 5.333c0 0.736 0.597 1.333 1.333 1.333s1.333-0.597 1.333-1.333v0-5.333c0-0.736-0.597-1.333-1.333-1.333v0z"></path>
</svg>
