<!-- Generated by IcoMoon.io -->
<svg version="1.1" xmlns="http://www.w3.org/2000/svg" width="40" height="40" viewBox="0 0 40 40">
<title>plane</title>
<path fill="#91908d" d="M33 20c-0.002-0.516-0.296-0.963-0.726-1.183l-0.008-0.004-8.16-4.080v-5.333c0-2.268-1.839-4.107-4.107-4.107s-4.107 1.839-4.107 4.107v0 5.333l-8.16 4.080c-0.437 0.224-0.732 0.671-0.733 1.186v4.44c-0 0.003-0 0.007-0 0.011 0 0.452 0.225 0.852 0.569 1.093l0.004 0.003c0.211 0.146 0.472 0.233 0.754 0.233 0.17 0 0.333-0.032 0.482-0.090l-0.009 0.003 7.093-2.667v4.973l-2.427 0.8c-0.532 0.183-0.907 0.68-0.907 1.263 0 0.001 0 0.002 0 0.004v-0 3.267c0.002 0.371 0.154 0.706 0.4 0.946l0 0c0.24 0.238 0.569 0.385 0.933 0.387h12.227c0.736 0 1.333-0.597 1.333-1.333v0-3.333c0-0.001 0-0.002 0-0.003 0-0.584-0.375-1.080-0.897-1.26l-2.449-0.736v-4.96l7.093 2.667c0.14 0.055 0.303 0.087 0.473 0.087 0.282 0 0.543-0.087 0.758-0.236l-0.004 0.003c0.348-0.244 0.573-0.644 0.573-1.096 0-0.004-0-0.008-0-0.012v0.001zM23.253 19.867c-0.143-0.057-0.308-0.090-0.482-0.090-0.284 0-0.547 0.089-0.763 0.24l0.004-0.003c-0.348 0.244-0.573 0.642-0.573 1.093v7.787c0 0.588 0.382 1.087 0.911 1.264l0.009 0.003 2.413 0.8v1.040h-9.56v-1.040l2.413-0.8c0.538-0.179 0.92-0.678 0.92-1.267v-7.787c-0.001-0.451-0.226-0.85-0.569-1.091l-0.004-0.003c-0.212-0.148-0.475-0.237-0.758-0.237-0.173 0-0.339 0.033-0.491 0.093l0.009-0.003-7.080 2.667v-1.707l8.147-4.080c0.443-0.22 0.742-0.668 0.747-1.186v-6.121c0-0.795 0.645-1.44 1.44-1.44s1.44 0.645 1.44 1.44v0 6.12c0.004 0.519 0.304 0.966 0.739 1.183l0.008 0.004 8.147 4.080v1.693z"></path>
</svg>
