<!-- Generated by IcoMoon.io -->
<svg version="1.1" xmlns="http://www.w3.org/2000/svg" width="40" height="40" viewBox="0 0 40 40">
<title>plane-departure</title>
<path fill="#91908d" d="M33.333 10.773c0-0.002 0-0.004 0-0.006 0-2.268-1.839-4.107-4.107-4.107-1.135 0-2.163 0.461-2.907 1.206l-3.747 3.747-8.653-2.88c-0.119-0.039-0.257-0.061-0.4-0.061-0.364 0-0.693 0.146-0.934 0.382l0-0-3.173 3.147c-0.238 0.241-0.385 0.572-0.385 0.937 0 0.533 0.312 0.992 0.764 1.206l0.008 0.003 6.907 3.133-3.467 3.467-2.28-1.147c-0.183-0.101-0.402-0.161-0.635-0.161-0.353 0-0.674 0.137-0.913 0.361l0.001-0.001-2.36 2.413c-0.24 0.241-0.388 0.573-0.388 0.94s0.148 0.699 0.388 0.94l8.653 8.653c0.241 0.24 0.573 0.388 0.94 0.388s0.699-0.148 0.94-0.388l-0 0 2.413-2.36c0.244-0.242 0.395-0.577 0.395-0.948 0-0.218-0.053-0.425-0.146-0.606l0.004 0.008-1.147-2.28 3.467-3.467 3.133 6.907c0.217 0.46 0.677 0.772 1.209 0.772 0.366 0 0.697-0.147 0.937-0.385l3.147-3.147c0.236-0.24 0.381-0.57 0.381-0.934 0-0.143-0.022-0.28-0.064-0.409l0.003 0.009-2.88-8.653 3.693-3.773c0.741-0.737 1.2-1.757 1.2-2.884 0-0.008-0-0.016-0-0.023v0.001zM30.24 11.8l-4.32 4.32c-0.236 0.24-0.381 0.57-0.381 0.934 0 0.143 0.022 0.28 0.064 0.409l-0.003-0.009 2.88 8.64-1.2 1.2-3.133-6.893c-0.181-0.393-0.537-0.678-0.965-0.759l-0.008-0.001c-0.072-0.014-0.155-0.022-0.239-0.022-0.37 0-0.706 0.151-0.947 0.395l-5.493 5.547c-0.242 0.241-0.391 0.575-0.391 0.943 0 0.215 0.051 0.418 0.141 0.598l-0.004-0.008 1.093 2.24-0.747 0.747-6.707-6.72 0.787-0.693 2.28 1.147c0.172 0.087 0.375 0.138 0.59 0.138 0.368 0 0.702-0.149 0.943-0.391v0l5.52-5.547c0.244-0.242 0.394-0.576 0.394-0.946 0-0.536-0.316-0.998-0.773-1.21l-0.008-0.003-6.947-3.133 1.2-1.2 8.64 2.88c0.119 0.039 0.257 0.061 0.4 0.061 0.364 0 0.693-0.146 0.934-0.382l4.32-4.32c0.259-0.265 0.62-0.429 1.020-0.429s0.761 0.164 1.020 0.429l0 0c0.263 0.244 0.427 0.592 0.427 0.978 0 0.012-0 0.025-0.001 0.037l0-0.002c0.001 0.016 0.001 0.035 0.001 0.054 0 0.377-0.148 0.72-0.388 0.973l0.001-0.001z"></path>
</svg>
