<!-- Generated by IcoMoon.io -->
<svg version="1.1" xmlns="http://www.w3.org/2000/svg" width="40" height="40" viewBox="0 0 40 40">
<title>plus7</title>
<path fill="#91908d" d="M18.667 13.333v2.667c0 0.736 0.597 1.333 1.333 1.333s1.333-0.597 1.333-1.333v0-1.333h3.707l-2.373 11.733c-0.020 0.086-0.031 0.186-0.031 0.288 0 0.653 0.47 1.197 1.090 1.311l0.008 0.001h0.267c0.008 0 0.017 0 0.027 0 0.642 0 1.178-0.454 1.305-1.058l0.002-0.009 2.667-13.333c0.016-0.078 0.025-0.167 0.025-0.258 0-0.324-0.115-0.62-0.307-0.851l0.002 0.002c-0.246-0.302-0.619-0.493-1.036-0.493-0.006 0-0.012 0-0.019 0h-6.666c-0.736 0-1.333 0.597-1.333 1.333v0zM28 10.667h1.333v1.333c0 0.736 0.597 1.333 1.333 1.333s1.333-0.597 1.333-1.333v0-1.333h1.333c0.736 0 1.333-0.597 1.333-1.333s-0.597-1.333-1.333-1.333v0h-1.333v-1.333c0-0.736-0.597-1.333-1.333-1.333s-1.333 0.597-1.333 1.333v0 1.333h-1.333c-0.736 0-1.333 0.597-1.333 1.333s0.597 1.333 1.333 1.333v0zM13.333 13.333v13.333c0 0.736 0.597 1.333 1.333 1.333s1.333-0.597 1.333-1.333v0-13.333c0-0.736-0.597-1.333-1.333-1.333s-1.333 0.597-1.333 1.333v0zM32.8 16c-0.613 0.128-1.067 0.664-1.067 1.306 0 0.094 0.010 0.187 0.029 0.276l-0.002-0.009c0.157 0.728 0.247 1.563 0.247 2.42 0 6.627-5.373 12-12 12s-12-5.373-12-12c0-6.627 5.373-12 12-12 0.857 0 1.693 0.090 2.499 0.26l-0.078-0.014c0.080 0.017 0.172 0.026 0.267 0.026 0.751 0 1.36-0.609 1.36-1.36 0-0.657-0.465-1.204-1.084-1.332l-0.009-0.001c-0.793-0.155-1.705-0.244-2.638-0.244-0.113 0-0.226 0.001-0.339 0.004l0.017-0c-8.1 0-14.667 6.566-14.667 14.667s6.566 14.667 14.667 14.667c8.1 0 14.667-6.566 14.667-14.667v0c0-0.012 0-0.027 0-0.041 0-1.024-0.107-2.023-0.31-2.986l0.017 0.094c-0.118-0.626-0.66-1.093-1.311-1.093-0.093 0-0.183 0.009-0.271 0.027l0.009-0.001z"></path>
</svg>
