<!-- Generated by IcoMoon.io -->
<svg version="1.1" xmlns="http://www.w3.org/2000/svg" width="40" height="40" viewBox="0 0 40 40">
<title>polygon</title>
<path fill="#91908d" d="M33.16 19.333l-6-10.387c-0.235-0.401-0.664-0.667-1.155-0.667-0.002 0-0.004 0-0.006 0h-12c-0.002 0-0.003 0-0.005 0-0.491 0-0.92 0.265-1.151 0.66l-0.003 0.006-6 10.387c-0.112 0.191-0.179 0.421-0.179 0.667s0.066 0.475 0.182 0.673l-0.003-0.006 6 10.387c0.235 0.401 0.664 0.667 1.155 0.667 0.002 0 0.004 0 0.006 0h12c0.002 0 0.003 0 0.005 0 0.491 0 0.92-0.265 1.151-0.66l0.003-0.006 6-10.387c0.112-0.191 0.179-0.421 0.179-0.667s-0.066-0.475-0.182-0.673l0.003 0.006zM25.16 29.053h-10.387l-5.24-9.053 5.24-9.053h10.453l5.24 9.053z"></path>
</svg>
