<!-- Generated by IcoMoon.io -->
<svg version="1.1" xmlns="http://www.w3.org/2000/svg" width="40" height="40" viewBox="0 0 40 40">
<title>prescription-bottle</title>
<path fill="#91908d" d="M29.333 6.667h-18.667c-1.473 0-2.667 1.194-2.667 2.667v0 2.667c0 1.473 1.194 2.667 2.667 2.667v0 14.667c0 2.209 1.791 4 4 4v0h10.667c2.209 0 4-1.791 4-4v0-14.667c1.473 0 2.667-1.194 2.667-2.667v0-2.667c0-1.473-1.194-2.667-2.667-2.667v0zM26.667 25.333h-8v-5.333h8zM26.667 17.333h-9.333c-0.736 0-1.333 0.597-1.333 1.333v0 8c0 0.736 0.597 1.333 1.333 1.333v0h9.333v1.333c0 0.736-0.597 1.333-1.333 1.333v0h-10.667c-0.736 0-1.333-0.597-1.333-1.333v0-14.667h13.333zM10.667 12v-2.667h18.667v2.667z"></path>
</svg>
