<!-- Generated by IcoMoon.io -->
<svg version="1.1" xmlns="http://www.w3.org/2000/svg" width="40" height="40" viewBox="0 0 40 40">
<title>puzzle-piece</title>
<path fill="#91908d" d="M26.667 33.333h-16c-2.209 0-4-1.791-4-4v0-13.333c0-2.209 1.791-4 4-4v0h1.333c0.059-2.9 2.424-5.227 5.332-5.227 1.82 0 3.427 0.912 4.389 2.303l0.012 0.018c0.575 0.81 0.923 1.817 0.933 2.904l0 0.003h4c0.736 0 1.333 0.597 1.333 1.333v0 4c2.9 0.059 5.227 2.424 5.227 5.332 0 1.82-0.912 3.427-2.303 4.389l-0.018 0.012c-0.81 0.575-1.817 0.923-2.904 0.933l-0.003 0v4c0 0.736-0.597 1.333-1.333 1.333v0zM10.667 14.667c-0.736 0-1.333 0.597-1.333 1.333v0 13.333c0 0.736 0.597 1.333 1.333 1.333v0h14.667v-4.24c0-0.002-0-0.005-0-0.007 0-0.446 0.219-0.841 0.556-1.083l0.004-0.003c0.215-0.155 0.484-0.248 0.774-0.248 0.157 0 0.308 0.027 0.449 0.077l-0.009-0.003c0.264 0.111 0.57 0.175 0.891 0.175 0.539 0 1.037-0.181 1.434-0.486l-0.006 0.004c0.646-0.399 1.103-1.049 1.238-1.811l0.002-0.016c0.015-0.108 0.024-0.232 0.024-0.359 0-0.676-0.252-1.294-0.667-1.764l0.002 0.003c-0.466-0.563-1.164-0.918-1.946-0.918-0.342 0-0.667 0.068-0.964 0.191l0.017-0.006c-0.131 0.047-0.282 0.074-0.439 0.074-0.29 0-0.559-0.093-0.778-0.25l0.004 0.003c-0.341-0.245-0.56-0.64-0.56-1.086 0-0.003 0-0.005 0-0.008v0-4.24h-4.267c-0.023 0.001-0.049 0.002-0.075 0.002-0.736 0-1.333-0.597-1.333-1.333 0-0.158 0.028-0.31 0.078-0.451l-0.003 0.009c0.111-0.264 0.175-0.57 0.175-0.891 0-0.539-0.181-1.037-0.486-1.434l0.004 0.006c-0.458-0.768-1.284-1.275-2.229-1.275-0.686 0-1.309 0.267-1.772 0.702l0.001-0.001c-0.487 0.483-0.789 1.153-0.789 1.893 0 0.037 0.001 0.075 0.002 0.112l-0-0.005c0.003 0.322 0.067 0.629 0.179 0.91l-0.006-0.017c0.047 0.131 0.075 0.282 0.075 0.44 0 0.736-0.597 1.333-1.333 1.333-0.003 0-0.006 0-0.008-0h0z"></path>
</svg>
