<!-- Generated by IcoMoon.io -->
<svg version="1.1" xmlns="http://www.w3.org/2000/svg" width="40" height="40" viewBox="0 0 40 40">
<title>sanitizer</title>
<path fill="#91908d" d="M21.333 20c-2.209 0-4 1.791-4 4s1.791 4 4 4c2.209 0 4-1.791 4-4v0c-0.002-2.208-1.792-3.998-4-4h-0zM21.333 25.333c-0.736 0-1.333-0.597-1.333-1.333s0.597-1.333 1.333-1.333c0.736 0 1.333 0.597 1.333 1.333v0c-0.001 0.736-0.597 1.332-1.333 1.333h-0zM29.067 14.133l-3.734-2.8v-3.334h1.333c0.736 0 1.333-0.597 1.333-1.333s-0.597-1.333-1.333-1.333v0h-11.124c-0.005-0-0.012-0-0.018-0-1.835 0-3.496 0.746-4.695 1.952l-1.105 1.105c-0.246 0.242-0.399 0.579-0.399 0.951 0 0.736 0.597 1.333 1.333 1.333 0.372 0 0.709-0.153 0.951-0.399l1.105-1.105c0.726-0.721 1.724-1.168 2.828-1.171h1.792v3.333l-3.734 2.8c-0.973 0.74-1.596 1.897-1.599 3.199v16.001c0 0.736 0.597 1.333 1.333 1.333v0h16c0.736 0 1.333-0.597 1.333-1.333v0-16c-0.003-1.303-0.626-2.46-1.59-3.193l-0.010-0.007zM20 8h2.667v2.667h-2.667zM28 32h-13.333v-14.667c0.001-0.435 0.209-0.82 0.53-1.065l0.003-0.002 3.911-2.933h4.444l3.911 2.933c0.325 0.246 0.533 0.632 0.534 1.067v0z"></path>
</svg>
