<!-- Generated by IcoMoon.io -->
<svg version="1.1" xmlns="http://www.w3.org/2000/svg" width="40" height="40" viewBox="0 0 40 40">
<title>star</title>
<path fill="#91908d" d="M33.333 16.893c-0.173-0.491-0.613-0.846-1.142-0.893l-0.005-0-7.587-1.107-3.4-6.893c-0.221-0.449-0.675-0.752-1.2-0.752s-0.979 0.303-1.197 0.744l-0.003 0.008-3.4 6.88-7.587 1.12c-0.509 0.074-0.92 0.428-1.077 0.897l-0.003 0.009c-0.037 0.117-0.058 0.251-0.058 0.39 0 0.369 0.15 0.702 0.391 0.944l0 0 5.507 5.333-1.333 7.573c-0.015 0.075-0.024 0.161-0.024 0.249 0 0.445 0.218 0.839 0.553 1.081l0.004 0.003c0.215 0.155 0.484 0.249 0.775 0.249 0.229 0 0.444-0.058 0.632-0.159l-0.007 0.004 6.827-3.56 6.8 3.573c0.175 0.101 0.385 0.16 0.609 0.16 0.001 0 0.003 0 0.004 0h-0c0.001 0 0.003 0 0.005 0 0.294 0 0.565-0.095 0.786-0.256l-0.004 0.003c0.339-0.245 0.557-0.639 0.557-1.084 0-0.088-0.009-0.174-0.025-0.258l0.001 0.008-1.333-7.573 5.507-5.333c0.289-0.246 0.471-0.61 0.471-1.017 0-0.122-0.016-0.24-0.047-0.352l0.002 0.009zM25.133 22.227c-0.251 0.243-0.406 0.582-0.406 0.958 0 0.081 0.007 0.16 0.021 0.236l-0.001-0.008 0.96 5.587-5.013-2.667c-0.181-0.099-0.397-0.156-0.627-0.156s-0.445 0.058-0.634 0.16l0.007-0.004-5.013 2.667 0.96-5.587c0.013-0.069 0.020-0.148 0.020-0.228 0-0.376-0.156-0.716-0.406-0.958l-4-4 5.613-0.813c0.447-0.064 0.818-0.342 1.010-0.726l0.004-0.008 2.373-5.080 2.507 5.093c0.195 0.391 0.566 0.669 1.006 0.733l0.007 0.001 5.613 0.813z"></path>
</svg>
