<!-- Generated by IcoMoon.io -->
<svg version="1.1" xmlns="http://www.w3.org/2000/svg" width="40" height="40" viewBox="0 0 40 40">
<title>step-backward</title>
<path fill="#91908d" d="M31.040 8.573c-0.627-0.377-1.384-0.6-2.193-0.6s-1.566 0.223-2.213 0.611l0.020-0.011-11.987 7.213v-3.787c0-2.209-1.791-4-4-4s-4 1.791-4 4v0 16c0 2.209 1.791 4 4 4s4-1.791 4-4v0-3.787l12 7.16c0.639 0.391 1.412 0.624 2.239 0.627h0.001c0.79-0.001 1.53-0.213 2.167-0.584l-0.021 0.011c1.379-0.788 2.294-2.25 2.294-3.926 0-0.026-0-0.052-0.001-0.078l0 0.004v-14.867c0-0.016 0-0.035 0-0.053 0-1.681-0.92-3.147-2.285-3.922l-0.022-0.012zM12 28c0 0.736-0.597 1.333-1.333 1.333s-1.333-0.597-1.333-1.333v0-16c0-0.736 0.597-1.333 1.333-1.333s1.333 0.597 1.333 1.333v0zM30.667 27.44c0 0.013 0 0.027 0 0.042 0 0.693-0.378 1.298-0.938 1.62l-0.009 0.005c-0.243 0.15-0.538 0.239-0.853 0.239s-0.61-0.089-0.86-0.244l0.007 0.004-12.44-7.467c-0.55-0.347-0.91-0.952-0.91-1.64s0.36-1.293 0.902-1.635l0.008-0.005 12.427-7.44c0.248-0.159 0.551-0.253 0.876-0.253 0.006 0 0.012 0 0.018 0h-0.001c0.305 0.005 0.589 0.088 0.835 0.231l-0.008-0.004c0.57 0.327 0.947 0.932 0.947 1.624 0 0.015-0 0.030-0.001 0.044l0-0.002z"></path>
</svg>
