<!-- Generated by IcoMoon.io -->
<svg version="1.1" xmlns="http://www.w3.org/2000/svg" width="40" height="40" viewBox="0 0 40 40">
<title>sync-exclamation</title>
<path fill="#91908d" d="M19.053 24.947c0.242 0.244 0.577 0.394 0.947 0.394 0.736 0 1.333-0.597 1.333-1.333 0-0.003 0-0.005-0-0.008v0c-0.005-0.368-0.152-0.701-0.387-0.947l0.001 0.001c-0.241-0.238-0.571-0.384-0.936-0.384-0.187 0-0.364 0.038-0.526 0.108l0.009-0.003c-0.171 0.067-0.317 0.162-0.44 0.28l0-0c-0.235 0.246-0.381 0.579-0.387 0.946v0.001c0 0.002-0 0.005-0 0.008 0 0.366 0.148 0.698 0.387 0.939l-0-0zM30.547 24.68h-6.040c-0.736 0-1.333 0.597-1.333 1.333s0.597 1.333 1.333 1.333v0h3.2c-1.945 2.030-4.679 3.292-7.707 3.292-5.881 0-10.651-4.76-10.667-10.637v-0.002c0-0.736-0.597-1.333-1.333-1.333s-1.333 0.597-1.333 1.333v0c0.021 7.348 5.982 13.297 13.333 13.297 3.557 0 6.789-1.393 9.179-3.663l-0.006 0.005v2.36c0 0.736 0.597 1.333 1.333 1.333s1.333-0.597 1.333-1.333v0-6c-0.007-0.717-0.579-1.298-1.291-1.32l-0.002-0zM20 6.667c-3.562 0.010-6.793 1.416-9.178 3.698l0.005-0.005v-2.36c0-0.736-0.597-1.333-1.333-1.333s-1.333 0.597-1.333 1.333v0 6c0 0.736 0.597 1.333 1.333 1.333v0h6c0.736 0 1.333-0.597 1.333-1.333s-0.597-1.333-1.333-1.333v0h-3.2c1.945-2.030 4.679-3.292 7.707-3.292 5.877 0 10.643 4.752 10.667 10.623v0.002c0 0.736 0.597 1.333 1.333 1.333s1.333-0.597 1.333-1.333v0c0-7.364-5.97-13.333-13.333-13.333v0zM20 21.333c0.736 0 1.333-0.597 1.333-1.333v0-4c0-0.736-0.597-1.333-1.333-1.333s-1.333 0.597-1.333 1.333v0 4c0 0.736 0.597 1.333 1.333 1.333v0z"></path>
</svg>
