<!-- Generated by IcoMoon.io -->
<svg version="1.1" xmlns="http://www.w3.org/2000/svg" width="40" height="40" viewBox="0 0 40 40">
<title>telegram-alt</title>
<path fill="#91908d" d="M33.686 7.237c-0.47-0.393-1.080-0.632-1.747-0.632-0.369 0-0.721 0.073-1.042 0.206l0.018-0.007-23.895 9.647c-0.999 0.419-1.688 1.389-1.688 2.519 0 1.183 0.754 2.19 1.808 2.566l0.019 0.006 4.833 1.681 2.694 8.909c0.040 0.128 0.094 0.24 0.161 0.341l-0.003-0.005c0.010 0.016 0.025 0.028 0.036 0.043 0.080 0.111 0.173 0.206 0.279 0.285l0.003 0.002c0.031 0.023 0.060 0.045 0.093 0.066 0.119 0.080 0.257 0.142 0.405 0.18l0.009 0.002 0.016 0.001 0.009 0.004c0.081 0.017 0.174 0.027 0.269 0.027h0c0.009 0 0.016-0.004 0.025-0.004 0.144-0.003 0.282-0.028 0.411-0.073l-0.009 0.003c0.030-0.010 0.056-0.027 0.085-0.040 0.104-0.044 0.194-0.095 0.276-0.155l-0.004 0.003c-0.422 0.347-0.356 0.291-0.29 0.235l0.493-0.406 3.603-3.978 5.374 4.163c0.452 0.354 1.028 0.568 1.655 0.569h0c1.312-0.002 2.408-0.926 2.674-2.159l0.003-0.018 4.35-21.355c0.035-0.163 0.055-0.351 0.055-0.544 0-0.836-0.379-1.584-0.975-2.080l-0.004-0.004zM16.494 23.648c-0.179 0.179-0.308 0.409-0.362 0.666l-0.001 0.009-0.413 2.005-1.045-3.457 5.42-2.823zM27.563 30.72l-6.35-4.919c-0.223-0.174-0.508-0.279-0.816-0.279-0.391 0-0.743 0.168-0.987 0.436l-0.001 0.001-1.154 1.274 0.408-1.982 9.444-9.444c0.242-0.241 0.391-0.575 0.391-0.943 0-0.736-0.597-1.333-1.333-1.333-0.225 0-0.438 0.056-0.624 0.155l0.007-0.004-13.554 7.057-4.966-1.817 23.971-9.59z"></path>
</svg>
