<!-- Generated by IcoMoon.io -->
<svg version="1.1" xmlns="http://www.w3.org/2000/svg" width="40" height="40" viewBox="0 0 40 40">
<title>traffic-light</title>
<path fill="#91908d" d="M20 11.333c-1.105 0-2 0.895-2 2s0.895 2 2 2c1.105 0 2-0.895 2-2v0c0-1.105-0.895-2-2-2v0zM33.333 15.333h-0.72c1.27-1.407 2.049-3.279 2.053-5.332v-0.001c0-0.736-0.597-1.333-1.333-1.333v0h-5.573c-0.564-1.563-2.033-2.662-3.759-2.667h-8.001c-1.727 0.005-3.196 1.103-3.751 2.639l-0.009 0.028h-5.573c-0.736 0-1.333 0.597-1.333 1.333v0c0.005 2.055 0.783 3.926 2.060 5.34l-0.006-0.007h-0.72c-0.736 0-1.333 0.597-1.333 1.333v0c0.005 2.055 0.783 3.926 2.060 5.34l-0.006-0.007h-0.72c-0.736 0-1.333 0.597-1.333 1.333v0c0.008 4.017 2.975 7.339 6.837 7.901l0.043 0.005c0.537 1.611 2.027 2.753 3.786 2.76h8.001c1.759-0.007 3.25-1.149 3.779-2.732l0.008-0.028c3.905-0.568 6.872-3.89 6.88-7.906v-0.001c0-0.736-0.597-1.333-1.333-1.333v0h-0.72c1.27-1.407 2.049-3.279 2.053-5.332v-0.001c0-0.736-0.597-1.333-1.333-1.333v0zM12 28.493c-1.879-0.498-3.329-1.948-3.818-3.789l-0.008-0.037h3.827zM12 21.827c-1.879-0.498-3.329-1.948-3.818-3.789l-0.008-0.037h3.827zM12 15.16c-0.954-0.241-1.778-0.705-2.442-1.336l0.002 0.002c-0.628-0.662-1.093-1.486-1.325-2.402l-0.008-0.038h3.773zM25.333 30c0 0.736-0.597 1.333-1.333 1.333v0h-8c-0.736 0-1.333-0.597-1.333-1.333v0-20c0-0.736 0.597-1.333 1.333-1.333v0h8c0.736 0 1.333 0.597 1.333 1.333v0zM30.44 27.107c-0.663 0.628-1.486 1.093-2.402 1.325l-0.038 0.008v-3.773h3.827c-0.256 0.958-0.739 1.781-1.387 2.441l0.001-0.001zM30.44 20.44c-0.663 0.628-1.486 1.093-2.402 1.325l-0.038 0.008v-3.773h3.827c-0.256 0.958-0.739 1.781-1.387 2.441l0.001-0.001zM30.44 13.773c-0.663 0.628-1.486 1.093-2.402 1.325l-0.038 0.008v-3.773h3.827c-0.256 0.958-0.739 1.781-1.387 2.441l0.001-0.001zM20 24.667c-1.105 0-2 0.895-2 2s0.895 2 2 2c1.105 0 2-0.895 2-2v0c0-1.105-0.895-2-2-2v0zM20 18c-1.105 0-2 0.895-2 2s0.895 2 2 2c1.105 0 2-0.895 2-2v0c0-1.105-0.895-2-2-2v0z"></path>
</svg>
