<!-- Generated by IcoMoon.io -->
<svg version="1.1" xmlns="http://www.w3.org/2000/svg" width="40" height="40" viewBox="0 0 40 40">
<title>trash-alt</title>
<path fill="#91908d" d="M17.333 28c0.736 0 1.333-0.597 1.333-1.333v0-8c0-0.736-0.597-1.333-1.333-1.333s-1.333 0.597-1.333 1.333v0 8c0 0.736 0.597 1.333 1.333 1.333v0zM30.667 12h-5.333v-1.333c0-2.209-1.791-4-4-4v0h-2.667c-2.209 0-4 1.791-4 4v0 1.333h-5.333c-0.736 0-1.333 0.597-1.333 1.333s0.597 1.333 1.333 1.333v0h1.333v14.667c0 2.209 1.791 4 4 4v0h10.667c2.209 0 4-1.791 4-4v0-14.667h1.333c0.736 0 1.333-0.597 1.333-1.333s-0.597-1.333-1.333-1.333v0zM17.333 10.667c0-0.736 0.597-1.333 1.333-1.333v0h2.667c0.736 0 1.333 0.597 1.333 1.333v0 1.333h-5.333zM26.667 29.333c0 0.736-0.597 1.333-1.333 1.333v0h-10.667c-0.736 0-1.333-0.597-1.333-1.333v0-14.667h13.333zM22.667 28c0.736 0 1.333-0.597 1.333-1.333v0-8c0-0.736-0.597-1.333-1.333-1.333s-1.333 0.597-1.333 1.333v0 8c0 0.736 0.597 1.333 1.333 1.333v0z"></path>
</svg>
