<!-- Generated by IcoMoon.io -->
<svg version="1.1" xmlns="http://www.w3.org/2000/svg" width="40" height="40" viewBox="0 0 40 40">
<title>twitter</title>
<path fill="#91908d" d="M33.333 11.733c-0.916 0.409-1.979 0.709-3.091 0.848l-0.055 0.006c1.133-0.685 1.986-1.737 2.402-2.988l0.011-0.039c-1.002 0.607-2.167 1.069-3.41 1.321l-0.070 0.012c-1.002-1.084-2.431-1.761-4.019-1.761-3.019 0-5.467 2.447-5.467 5.467 0 0.455 0.055 0.896 0.16 1.318l-0.008-0.038c-4.555-0.237-8.56-2.404-11.245-5.692l-0.022-0.028c-0.461 0.791-0.733 1.742-0.733 2.756 0 0.001 0 0.003 0 0.004v-0c0 0.003 0 0.007 0 0.010 0 1.884 0.955 3.544 2.407 4.524l0.019 0.012c-0.914-0.026-1.765-0.275-2.507-0.694l0.027 0.014v0.067c0.014 2.63 1.883 4.819 4.365 5.327l0.035 0.006c-0.438 0.138-0.941 0.221-1.464 0.227l-0.003 0c-0.366-0.004-0.721-0.038-1.066-0.099l0.039 0.006c0.725 2.184 2.728 3.739 5.101 3.787l0.006 0c-1.838 1.457-4.189 2.339-6.745 2.347h-0.002c-0.010 0-0.022 0-0.035 0-0.458 0-0.909-0.029-1.351-0.086l0.052 0.005c2.363 1.547 5.258 2.467 8.368 2.467 0.007 0 0.013 0 0.020 0h-0.001c0.048 0.001 0.104 0.001 0.16 0.001 8.535 0 15.453-6.919 15.453-15.453 0-0.042-0-0.085-0.001-0.127l0 0.006c0-0.227 0-0.467 0-0.707 1.048-0.787 1.933-1.723 2.641-2.786l0.026-0.041z"></path>
</svg>
