<!-- Generated by IcoMoon.io -->
<svg version="1.1" xmlns="http://www.w3.org/2000/svg" width="40" height="40" viewBox="0 0 40 40">
<title>user-minus</title>
<path fill="#91908d" d="M32 18h-5.333c-0.736 0-1.333 0.597-1.333 1.333s0.597 1.333 1.333 1.333v0h5.333c0.736 0 1.333-0.597 1.333-1.333s-0.597-1.333-1.333-1.333v0zM21.733 20.293c1.392-1.21 2.267-2.983 2.267-4.96 0-0 0-0 0-0v0c0-3.682-2.985-6.667-6.667-6.667s-6.667 2.985-6.667 6.667v0c0 0 0 0 0 0 0 1.977 0.875 3.75 2.259 4.953l0.008 0.007c-3.723 1.716-6.262 5.414-6.267 9.706v0.001c0 0.736 0.597 1.333 1.333 1.333s1.333-0.597 1.333-1.333v0c0-4.418 3.582-8 8-8s8 3.582 8 8v0c0 0.736 0.597 1.333 1.333 1.333s1.333-0.597 1.333-1.333v0c-0.004-4.292-2.543-7.991-6.201-9.679l-0.066-0.027zM17.333 19.333c-2.209 0-4-1.791-4-4s1.791-4 4-4c2.209 0 4 1.791 4 4v0c0 2.209-1.791 4-4 4v0z"></path>
</svg>
