<!-- Generated by IcoMoon.io -->
<svg version="1.1" xmlns="http://www.w3.org/2000/svg" width="40" height="40" viewBox="0 0 40 40">
<title>user-circle</title>
<path fill="#91908d" d="M20 6.667c-7.353 0.014-13.308 5.978-13.308 13.333 0 3.48 1.333 6.649 3.517 9.023l-0.009-0.010c2.444 2.643 5.929 4.292 9.8 4.292s7.356-1.649 9.792-4.284l0.008-0.009c2.175-2.365 3.508-5.533 3.508-9.013 0-7.355-5.955-13.319-13.307-13.333h-0.001zM20 30.667c-2.877-0.004-5.487-1.148-7.403-3.003l0.003 0.003c1.229-2.935 4.078-4.96 7.4-4.96s6.171 2.025 7.38 4.908l0.020 0.053c-1.913 1.852-4.523 2.996-7.399 3h-0.001zM17.333 17.333c0-1.473 1.194-2.667 2.667-2.667s2.667 1.194 2.667 2.667c0 1.473-1.194 2.667-2.667 2.667v0c-1.473 0-2.667-1.194-2.667-2.667v0zM29.213 25.333c-1.2-2.028-2.995-3.595-5.142-4.481l-0.071-0.026c0.828-0.935 1.333-2.172 1.333-3.528 0-2.946-2.388-5.333-5.333-5.333s-5.333 2.388-5.333 5.333c0 1.355 0.506 2.592 1.338 3.533l-0.005-0.006c-2.218 0.912-4.013 2.479-5.186 4.457l-0.027 0.049c-0.911-1.527-1.451-3.367-1.453-5.333v-0.001c0-5.891 4.776-10.667 10.667-10.667s10.667 4.776 10.667 10.667v0c-0.002 1.967-0.542 3.807-1.48 5.382l0.027-0.049z"></path>
</svg>
