<!-- Generated by IcoMoon.io -->
<svg version="1.1" xmlns="http://www.w3.org/2000/svg" width="40" height="40" viewBox="0 0 40 40">
<title>vertical-distribution-top</title>
<path fill="#91908d" d="M8 12h1.333v6.667c0 0.736 0.597 1.333 1.333 1.333v0h18.667c0.736 0 1.333-0.597 1.333-1.333v0-6.667h1.333c0.736 0 1.333-0.597 1.333-1.333s-0.597-1.333-1.333-1.333v0h-24c-0.736 0-1.333 0.597-1.333 1.333s0.597 1.333 1.333 1.333v0zM12 12h16v5.333h-16zM32 22.667h-24c-0.736 0-1.333 0.597-1.333 1.333s0.597 1.333 1.333 1.333v0h2.667v4c0 0.736 0.597 1.333 1.333 1.333v0h16c0.736 0 1.333-0.597 1.333-1.333v0-4h2.667c0.736 0 1.333-0.597 1.333-1.333s-0.597-1.333-1.333-1.333v0zM26.667 28h-13.333v-2.667h13.333z"></path>
</svg>
