<!-- Generated by IcoMoon.io -->
<svg version="1.1" xmlns="http://www.w3.org/2000/svg" width="40" height="40" viewBox="0 0 40 40">
<title>video</title>
<path fill="#91908d" d="M32.707 13.533c-0.191-0.112-0.421-0.179-0.667-0.179s-0.475 0.066-0.673 0.182l0.006-0.003-4.707 2.32c-0.081-2.145-1.84-3.853-3.997-3.853-0.001 0-0.002 0-0.003 0h-12c-2.209 0-4 1.791-4 4v0 8c0 2.209 1.791 4 4 4v0h12c0.001 0 0.002 0 0.003 0 2.158 0 3.916-1.708 3.997-3.846l0-0.007 4.747 2.373c0.171 0.089 0.372 0.143 0.586 0.147h0.001c0.001 0 0.003 0 0.004 0 0.26 0 0.503-0.074 0.708-0.203l-0.006 0.003c0.379-0.24 0.627-0.656 0.627-1.131 0-0.001 0-0.002 0-0.003v0-10.667c0-0.001 0-0.002 0-0.003 0-0.474-0.248-0.891-0.621-1.127l-0.005-0.003zM24 24c0 0.736-0.597 1.333-1.333 1.333v0h-12c-0.736 0-1.333-0.597-1.333-1.333v0-8c0-0.736 0.597-1.333 1.333-1.333v0h12c0.736 0 1.333 0.597 1.333 1.333v0zM30.667 23.173l-4-2v-2.347l4-2z"></path>
</svg>
