<!-- Generated by IcoMoon.io -->
<svg version="1.1" xmlns="http://www.w3.org/2000/svg" width="40" height="40" viewBox="0 0 40 40">
<title>vk-alt</title>
<path fill="#91908d" d="M24.992 22.039c-0.385-0.416-0.812-0.783-1.277-1.098l-0.026-0.016c1.882-1.465 3.24-3.523 3.798-5.891l0.014-0.071c0.022-0.091 0.035-0.196 0.035-0.304 0-0.736-0.597-1.333-1.333-1.333-0.634 0-1.165 0.443-1.3 1.037l-0.002 0.009c-0.533 2.281-2.009 4.143-3.985 5.183l-0.043 0.021v-4.905c-0.009-0.106-0.030-0.204-0.061-0.298l0.003 0.009c-0.010-0.086-0.026-0.163-0.048-0.237l0.002 0.010c-0.060-0.127-0.135-0.237-0.223-0.333l0.001 0.001c-0.024-0.028-0.036-0.066-0.062-0.092-0.094-0.087-0.202-0.162-0.32-0.219l-0.008-0.003c-0.034-0.018-0.059-0.049-0.095-0.064-0.092-0.032-0.199-0.055-0.31-0.064l-0.005-0c-0.057-0.018-0.126-0.032-0.196-0.041l-0.006-0.001-0.876-0.003c-0.002 0-0.004 0-0.006 0-0.733 0-1.327 0.594-1.327 1.327 0 0.568 0.356 1.052 0.857 1.242l0.009 0.003v6.521c-2.047-2.122-3.478-4.851-4-7.89l-0.013-0.089c-0.11-0.634-0.657-1.111-1.314-1.111-0.736 0-1.333 0.597-1.333 1.333 0 0.079 0.007 0.156 0.020 0.231l-0.001-0.008c0.822 4.778 3.453 8.825 7.147 11.489l0.052 0.036c0.048 0.029 0.104 0.058 0.162 0.083l0.009 0.003c0.039 0.024 0.087 0.048 0.135 0.069l0.008 0.003c0.138 0.057 0.298 0.091 0.466 0.094l0.001 0c0.206-0.003 0.4-0.053 0.573-0.139l-0.008 0.003c0.013-0.006 0.029-0.003 0.042-0.010 0.123-0.065 0.228-0.143 0.32-0.234l-0 0c0.019-0.018 0.032-0.041 0.050-0.061 0.083-0.091 0.154-0.195 0.21-0.308l0.003-0.008c0.019-0.038 0.035-0.075 0.050-0.115 0.056-0.136 0.090-0.295 0.093-0.461l0-0.001 0.001-2.835c0.855 0.256 1.583 0.721 2.15 1.336l2.2 2.399c0.245 0.267 0.595 0.434 0.984 0.434 0.736 0 1.333-0.597 1.333-1.333 0-0.349-0.134-0.667-0.354-0.904l0.001 0.001zM24.097 5.333h-8.18c-8.21 0-10.583 2.371-10.583 10.569v8.181c0 8.21 2.37 10.583 10.57 10.583h8.18c8.21 0 10.583-2.371 10.583-10.569v-8.181c0-8.21-2.37-10.583-10.57-10.583zM32 24.098c0 6.72-1.184 7.902-7.917 7.902h-8.18c-6.721 0-7.903-1.184-7.903-7.917v-8.181c0-6.72 1.184-7.902 7.917-7.902h8.18c6.721 0 7.903 1.184 7.903 7.917z"></path>
</svg>
