<!-- Generated by IcoMoon.io -->
<svg version="1.1" xmlns="http://www.w3.org/2000/svg" width="40" height="40" viewBox="0 0 40 40">
<title>volume-up</title>
<path fill="#91908d" d="M20.573 9.467c-0.156-0.069-0.338-0.11-0.529-0.11-0.303 0-0.583 0.101-0.807 0.272l0.003-0.002-6.373 5.040h-4.867c-0.736 0-1.333 0.597-1.333 1.333v0 8c0 0.736 0.597 1.333 1.333 1.333v0h4.867l6.307 5.040c0.224 0.181 0.512 0.291 0.826 0.293h0c0.006 0 0.013 0 0.020 0 0.202 0 0.392-0.049 0.56-0.137l-0.007 0.003c0.452-0.219 0.758-0.673 0.76-1.2v-18.667c-0.002-0.527-0.308-0.981-0.752-1.197l-0.008-0.003zM18.667 26.56l-4.507-3.6c-0.224-0.181-0.512-0.291-0.826-0.293h-4v-5.333h4c0.314-0.002 0.602-0.112 0.829-0.295l-0.003 0.002 4.507-3.6zM24.187 9.453c-0.056-0.008-0.121-0.013-0.187-0.013-0.744 0-1.346 0.603-1.346 1.346 0 0.678 0.501 1.238 1.152 1.332l0.007 0.001c3.863 0.612 6.782 3.918 6.782 7.907s-2.918 7.295-6.736 7.901l-0.045 0.006c-0.697 0.050-1.243 0.628-1.243 1.333 0 0.738 0.598 1.337 1.337 1.337 0.033 0 0.065-0.001 0.098-0.004l-0.004 0h0.187c5.165-0.803 9.071-5.219 9.071-10.547s-3.906-9.744-9.011-10.539l-0.060-0.008zM23.573 22.493c-0.648 0.107-1.137 0.663-1.137 1.333 0 0.746 0.605 1.35 1.35 1.35 0.075 0 0.149-0.006 0.221-0.018l-0.008 0.001c0.153-0.002 0.299-0.026 0.437-0.070l-0.011 0.003c2.087-0.756 3.551-2.72 3.551-5.027s-1.464-4.271-3.514-5.015l-0.037-0.012c-0.127-0.044-0.274-0.070-0.427-0.070-0.738 0-1.337 0.598-1.337 1.337 0 0.586 0.376 1.083 0.901 1.264l0.009 0.003c1.015 0.393 1.721 1.361 1.721 2.493s-0.706 2.101-1.703 2.487l-0.018 0.006z"></path>
</svg>
