<!-- Generated by IcoMoon.io -->
<svg version="1.1" xmlns="http://www.w3.org/2000/svg" width="40" height="40" viewBox="0 0 40 40">
<title>volume-off</title>
<path fill="#91908d" d="M26.573 9.467c-0.156-0.069-0.338-0.11-0.529-0.11-0.303 0-0.583 0.101-0.807 0.272l0.003-0.002-6.373 5.040h-4.867c-0.736 0-1.333 0.597-1.333 1.333v0 8c0 0.736 0.597 1.333 1.333 1.333v0h4.867l6.307 5.040c0.224 0.181 0.512 0.291 0.826 0.293h0c0.006 0 0.013 0 0.020 0 0.202 0 0.392-0.049 0.56-0.137l-0.007 0.003c0.452-0.219 0.758-0.673 0.76-1.2v-18.667c-0.002-0.527-0.308-0.981-0.752-1.197l-0.008-0.003zM24.667 26.56l-4.507-3.6c-0.224-0.181-0.512-0.291-0.826-0.293h-4v-5.333h4c0.314-0.002 0.602-0.112 0.829-0.295l-0.003 0.002 4.507-3.6z"></path>
</svg>
