<!-- Generated by IcoMoon.io -->
<svg version="1.1" xmlns="http://www.w3.org/2000/svg" width="40" height="40" viewBox="0 0 40 40">
<title>watch-alt</title>
<path fill="#91908d" d="M26.667 15.48l-1.333-7.693c-0.106-0.639-0.655-1.12-1.316-1.12-0.006 0-0.012 0-0.018 0h-7.999c-0.005-0-0.011-0-0.017-0-0.661 0-1.21 0.481-1.315 1.112l-0.001 0.008-1.333 7.693c-0.876 1.264-1.399 2.831-1.399 4.52s0.523 3.256 1.417 4.547l-0.017-0.027 1.333 7.693c0.106 0.639 0.655 1.12 1.316 1.12 0.006 0 0.012-0 0.018-0h7.999c0.005 0 0.011 0 0.017 0 0.661 0 1.21-0.481 1.315-1.112l0.001-0.008 1.333-7.693c0.876-1.264 1.399-2.831 1.399-4.52s-0.523-3.256-1.417-4.547l0.017 0.027zM17.133 9.333h5.733l0.587 3.453c-1.010-0.495-2.198-0.784-3.453-0.784s-2.443 0.289-3.501 0.805l0.047-0.021zM22.867 30.667h-5.733l-0.587-3.453c1.010 0.495 2.198 0.784 3.453 0.784s2.443-0.289 3.501-0.805l-0.047 0.021zM20 25.333c-2.946 0-5.333-2.388-5.333-5.333s2.388-5.333 5.333-5.333c2.946 0 5.333 2.388 5.333 5.333v0c0 2.946-2.388 5.333-5.333 5.333v0z"></path>
</svg>
