<!-- Generated by IcoMoon.io -->
<svg version="1.1" xmlns="http://www.w3.org/2000/svg" width="40" height="40" viewBox="0 0 40 40">
<title>wheel-barrow</title>
<path fill="#91908d" d="M32 6.667h-3.067l-0.213 0.093-0.227 0.147c-0.065 0.052-0.122 0.109-0.172 0.171l-0.002 0.002c-0.049 0.062-0.094 0.132-0.13 0.207l-0.003 0.007c-0.044 0.069-0.080 0.149-0.105 0.233l-0.002 0.007v0.12l-0.907 4.347h-1.52l-4.16-4.147c-0.732-0.704-1.729-1.138-2.827-1.138s-2.095 0.434-2.828 1.139l0.001-0.001-4.16 4.147h-3.68c-0.002 0-0.003 0-0.005 0-0.491 0-0.92 0.265-1.151 0.66l-0.003 0.006c-0.112 0.191-0.179 0.421-0.179 0.667s0.066 0.475 0.182 0.673l-0.003-0.006 5.333 9.333-1.027 2c-0.072-0.006-0.156-0.010-0.24-0.010s-0.168 0.004-0.251 0.011l0.011-0.001c-2.209 0-4 1.791-4 4s1.791 4 4 4c2.209 0 4-1.791 4-4v0c-0.005-1.079-0.436-2.057-1.134-2.774l0.001 0.001 1.333-2.667 1.84-0.187 5.253 7.88c0.71 1.060 1.903 1.748 3.256 1.748 0.041 0 0.082-0.001 0.123-0.002l-0.006 0c0.542-0.001 1.060-0.104 1.536-0.29l-0.029 0.010c1.505-0.597 2.55-2.041 2.55-3.728 0-0.237-0.021-0.47-0.060-0.696l0.004 0.024-1.333-7.32 2.387-12h1.613c0.736 0 1.333-0.597 1.333-1.333s-0.597-1.333-1.333-1.333v0zM10.667 30.667c-0.736 0-1.333-0.597-1.333-1.333s0.597-1.333 1.333-1.333c0.736 0 1.333 0.597 1.333 1.333v0c0 0.736-0.597 1.333-1.333 1.333v0zM17.733 9.72c0.24-0.236 0.57-0.381 0.933-0.381s0.693 0.145 0.934 0.381l2.28 2.28h-6.427zM14.067 21.253l-3.773-6.587h16.373l-1.093 5.44zM25.813 30.587c-0.144 0.058-0.312 0.092-0.487 0.092-0.463 0-0.871-0.236-1.11-0.594l-0.003-0.005-4.453-6.667 5.827-0.573 1.080 6.253c0.013 0.069 0.020 0.148 0.020 0.229 0 0.571-0.359 1.058-0.864 1.248l-0.009 0.003z"></path>
</svg>
