<!-- Generated by IcoMoon.io -->
<svg version="1.1" xmlns="http://www.w3.org/2000/svg" width="32" height="32" viewBox="0 0 32 32">
<title>as-arrow_all-</title>
<path fill="#ebebeb" d="M28.8 32c1.768 0 3.2-1.12 3.2-2.886v-8c0-0.885-0.717-1.6-1.6-1.6s-1.6 0.715-1.6 1.6v3.805c0 0.714-0.862 1.070-1.366 0.566l-4.84-4.84c-0.624-0.626-1.637-0.626-2.262 0-0.624 0.624-0.624 1.637 0 2.262l4.84 4.683c0.504 0.504 0.147 1.21-0.565 1.21h-3.806c-0.883 0-1.6 0.874-1.6 1.757v-0.078c0 0.883 0.717 1.522 1.6 1.522h8zM0 11.514c0 0.883 0.717 1.6 1.6 1.6s1.6-0.717 1.6-1.6v-3.806c0-0.714 0.862-1.070 1.366-0.566l4.84 4.842c0.624 0.624 1.637 0.624 2.262 0 0.624-0.626 0.624-1.638 0-2.264l-4.84-4.997c-0.504-0.504-0.147-1.522 0.565-1.522h3.806c0.883 0 1.6-0.56 1.6-1.443v-0.078c0-0.883-0.717-1.678-1.6-1.678h-8c-1.768 0-3.2 1.746-3.2 3.514v8zM32 3.2c0-1.768-1.12-3.2-2.886-3.2h-8c-0.885 0-1.6 0.717-1.6 1.6s0.715 1.6 1.6 1.6h3.805c0.714 0 1.070 0.862 0.566 1.366l-4.84 4.84c-0.626 0.624-0.626 1.637 0 2.262 0.624 0.624 1.637 0.624 2.262 0l4.683-4.84c0.504-0.504 1.21-0.147 1.21 0.565v3.806c0 0.883 0.874 1.6 1.757 1.6h-0.078c0.883 0 1.522-0.717 1.522-1.6v-8zM3.514 32c-1.768 0-3.514-1.432-3.514-3.2v-8c0-0.883 0.795-1.6 1.678-1.6h0.078c0.883 0 1.443 0.717 1.443 1.6v3.806c0 0.712 1.018 1.069 1.522 0.565l4.997-4.84c0.626-0.624 1.638-0.624 2.262 0 0.626 0.626 0.626 1.638 0 2.262l-4.84 4.84c-0.504 0.504-0.147 1.366 0.566 1.366h3.806c0.883 0 1.6 0.717 1.6 1.6s-0.717 1.6-1.6 1.6h-8z"></path>
</svg>
