<!-- Generated by IcoMoon.io -->
<svg version="1.1" xmlns="http://www.w3.org/2000/svg" width="29" height="32" viewBox="0 0 29 32">
<title>as-at_sign-2</title>
<path fill="#ebebeb" d="M19.2 22.4h-8c-0.883 0-1.6-0.717-1.6-1.6v-9.6c0-0.883 0.717-1.6 1.6-1.6h6.4c0.883 0 1.6 0.717 1.6 1.6v11.2zM19.2 6.4h-9.6c-1.766 0-3.2 1.432-3.2 3.2v12.8c0 1.768 1.434 3.2 3.2 3.2h16c1.766 0 3.2-1.432 3.2-3.2v-19.2c0-1.768-1.434-3.2-3.2-3.2h-22.4c-1.766 0-3.2 1.432-3.2 3.2v25.6c0 1.768 1.434 3.2 3.2 3.2h24c0.883 0 1.6-0.717 1.6-1.6s-0.717-1.6-1.6-1.6h-22.4c-0.883 0-1.6-0.717-1.6-1.6v-22.4c0-0.883 0.717-1.6 1.6-1.6h19.2c0.883 0 1.6 0.717 1.6 1.6v16c0 0.883-0.717 1.6-1.6 1.6h-1.6v-12.8c0-1.768-1.434-3.2-3.2-3.2z"></path>
</svg>
