<!-- Generated by IcoMoon.io -->
<svg version="1.1" xmlns="http://www.w3.org/2000/svg" width="32" height="32" viewBox="0 0 32 32">
<title>as-arrow_up-18</title>
<path fill="#ebebeb" d="M28.8 27.2c0 0.883-0.717 1.6-1.6 1.6h-22.4c-0.883 0-1.6-0.717-1.6-1.6v-3.2c0-0.883 0.717-1.6 1.6-1.6h22.4c0.883 0 1.6 0.717 1.6 1.6v3.2zM0 22.4v6.4c0 1.768 1.432 3.2 3.2 3.2h25.6c1.768 0 3.2-1.432 3.2-3.2v-6.4c0-1.768-1.432-3.2-3.2-3.2h-11.2v-12.469c0-0.714 0.862-1.070 1.365-0.566l2.693 2.693c0.624 0.626 1.638 0.626 2.262 0 0.624-0.624 0.624-1.637 0-2.262l-5.659-5.659c-1.25-1.248-3.274-1.248-4.522 0-0.285 0.285 0.414-0.414-5.659 5.659-0.624 0.624-0.624 1.638 0 2.262 0.626 0.626 1.638 0.626 2.264 0l2.69-2.69c0.504-0.504 1.366-0.147 1.366 0.566v12.466h-11.2c-1.768 0-3.2 1.432-3.2 3.2z"></path>
</svg>
