<!-- Generated by IcoMoon.io -->
<svg version="1.1" xmlns="http://www.w3.org/2000/svg" width="32" height="32" viewBox="0 0 32 32">
<title>as-arrow_right_outside-</title>
<path fill="#ebebeb" d="M30.806 30.683c0.6-0.664 0.578-1.68-0.050-2.317l-13.752-13.966-13.736-13.298c-0.632-0.611-1.638-0.603-2.259 0.019-0.63 0.629-0.629 1.648 0 2.278l27.35 27.344c0.683 0.683 1.798 0.656 2.446-0.061zM26.651 3.2l-6.301 6.208c-0.634 0.624-0.634 1.637 0 2.261 0.634 0.626 1.59 0.626 2.224 0.002l6.226-6.205v5.734c0 0.883 0.808 1.6 1.706 1.6h-0.032c0.896 0 1.526-0.717 1.526-1.6v-8.003c0-1.765-1.259-3.197-3.051-3.197h-8.125c-0.896 0-1.624 0.717-1.624 1.6s0.728 1.6 1.624 1.6h5.827zM5.317 28.8l6.301-6.208c0.635-0.624 0.635-1.637 0.002-2.262-0.635-0.624-1.574-0.626-2.21 0l-6.21 6.205v-5.734c0-0.883-0.84-1.6-1.736-1.6h0.032c-0.898 0-1.496 0.717-1.496 1.6v8.003c0 1.765 1.227 3.197 3.021 3.197h8.123c0.898 0 1.624-0.717 1.624-1.6s-0.726-1.6-1.624-1.6h-5.827z"></path>
</svg>
