<!-- Generated by IcoMoon.io -->
<svg version="1.1" xmlns="http://www.w3.org/2000/svg" width="32" height="32" viewBox="0 0 32 32">
<title>as-arrow_circle-1</title>
<path fill="#ebebeb" d="M8.663 8.678c-1.246 1.248-3.273 1.248-4.517 0-1.246-1.248-1.246-3.278 0-4.525 1.244-1.248 3.271-1.248 4.517 0 1.246 1.246 1.246 3.277 0 4.525zM23.345 4.129c1.244-1.248 3.271-1.248 4.517 0 1.246 1.246 1.246 3.277 0 4.525s-3.273 1.248-4.517 0c-1.246-1.248-1.246-3.278 0-4.525zM28.83 26.581l-10.54-10.56 4.108-4.114c1.632 0.626 5.632 1.125 7.734-0.981 2.495-2.499 2.49-6.557-0.005-9.056s-6.532-2.49-9.027 0.010c-2.102 2.106-2.715 5.002-0.961 7.768l-4.103 4.112-4.126-4.133c0.626-1.637 1.124-5.642-0.977-7.749-2.495-2.499-6.545-2.493-9.040 0.006s-2.485 6.543 0.010 9.042c2.102 2.107 4.993 2.722 7.754 0.963l4.122 4.13-10.564 10.583-0.011-2.57-3.199-0.018-0.003 7.986h8.005l0.011-3.166-2.544 0.021 10.561-10.599 10.546 10.544h-2.565l-0.016 3.2h7.946v-7.955l-3.15-0.011 0.035 2.547z"></path>
</svg>
