<!-- Generated by IcoMoon.io -->
<svg version="1.1" xmlns="http://www.w3.org/2000/svg" width="32" height="32" viewBox="0 0 32 32">
<title>as-amazon-</title>
<path fill="#ebebeb" d="M26.287 23.187c0.599-0.155 1.987-0.404 2.577-0.275 0.83 0.074 1.33 0.211 1.496 0.412 0.352 0.522-0.175 2.352-0.416 2.948-0.212 0.525-1.204 2.209-1.717 2.209-0.157 0-0.276-0.115-0.195-0.329 1.885-4.388 1.042-4.272-1.745-4.032-0.36 0.044-1.679 0.308-1.524 0 0-0.364 1.16-0.839 1.524-0.932zM13.155 15.205c0 0.714 0.18 1.285 0.539 1.714 1.030 1.228 2.91 0.57 3.7-0.89 0.434-0.745 0.885-2.201 0.885-4.088-1.524 0-2.008 0.074-2.562 0.22-1.626 0.457-2.563 1.472-2.563 3.044zM8.39 15.754c0-2.571 1.384-4.372 3.518-5.266 1.885-0.795 4.486-1.012 6.371-1.125 0-2.26-0.309-4.060-2.686-4.060-0.763 0-2.127 0.846-2.438 2.257-0.075 0.365-0.259 0.628-0.555 0.682l-3.186-0.358c-0.386-0.090-0.535-0.302-0.443-0.667 0.643-3.331 3.441-4.753 6.622-4.931 1.524 0 3.828-0.020 5.624 1.619 1.941 1.923 1.634 4.346 1.634 10.616 0 1.506 0.023 1.65 1.053 2.988 0.207 0.308 0.226 0.6-0.076 0.824-1.533 1.317-2.366 2.029-2.496 2.139-0.222 0.164-0.492 0.183-0.806 0.054-1.364-1.157-1.036-1.088-1.885-2.139-1.72 1.856-3.072 2.359-5.374 2.359-2.737 0-4.876-1.691-4.876-4.992zM0.494 23.543c4.617 2.652 9.641 3.978 15.072 3.978 3.619 0 7.194-0.668 10.722-2.003 0.535-0.211 1.099-0.623 1.426-0.164 0.157 0.22 0.107 0.421-0.152 0.603-3.418 2.444-8.181 3.758-12.329 3.758-5.868 0-11.089-2.156-15.070-5.705-0.355-0.291-0.072-0.72 0.332-0.466z"></path>
</svg>
