<!-- Generated by IcoMoon.io -->
<svg version="1.1" xmlns="http://www.w3.org/2000/svg" width="32" height="32" viewBox="0 0 32 32">
<title>as-arrow_right-14</title>
<path fill="#ebebeb" d="M9.6 27.2c0 0.883-0.717 1.6-1.6 1.6h-3.2c-0.883 0-1.6-0.717-1.6-1.6v-22.4c0-0.883 0.717-1.6 1.6-1.6h3.2c0.883 0 1.6 0.717 1.6 1.6v22.4zM9.6 0h-6.4c-1.768 0-3.2 1.432-3.2 3.2v25.6c0 1.768 1.432 3.2 3.2 3.2h6.4c1.768 0 3.2-1.432 3.2-3.2v-11.2h12.469c0.714 0 1.070 0.861 0.566 1.365l-2.693 2.693c-0.626 0.624-0.626 1.638 0 2.262 0.624 0.624 1.637 0.624 2.262 0l5.659-5.659c1.248-1.25 1.248-3.274 0-4.522-0.262-0.262 1.064 1.064-5.659-5.659-0.624-0.624-1.638-0.624-2.262 0-0.626 0.626-0.626 1.638 0 2.264l2.69 2.69c0.504 0.504 0.147 1.366-0.566 1.366h-12.466v-11.2c0-1.768-1.432-3.2-3.2-3.2z"></path>
</svg>
