<!-- Generated by IcoMoon.io -->
<svg version="1.1" xmlns="http://www.w3.org/2000/svg" width="32" height="32" viewBox="0 0 32 32">
<title>as-arrow_left-12</title>
<path fill="#ebebeb" d="M2.667 7.26c0 4.010 3.283 7.26 7.333 7.26h12c2.577 0 4.667 2.068 4.667 4.62s-2.089 4.62-4.667 4.62h-13.724c-0.593 0-0.891-0.711-0.471-1.127l2.243-2.22c0.52-0.515 0.52-1.35 0-1.866-0.521-0.515-1.365-0.515-1.887 0l-4.713 4.667c-1.041 1.031-1.041 2.702 0 3.733l4.713 4.667c0.521 0.515 1.365 0.515 1.887 0 0.52-0.516 0.52-1.352 0-1.866l-2.243-2.22c-0.42-0.416-0.123-1.127 0.471-1.127h13.724c4.051 0 7.333-3.25 7.333-7.26s-3.283-7.26-7.333-7.26h-12c-2.577 0-4.667-2.068-4.667-4.62s2.089-4.62 4.667-4.62h18c0.736 0 1.333-0.591 1.333-1.32s-0.597-1.32-1.333-1.32h-18c-4.051 0-7.333 3.25-7.333 7.26z"></path>
</svg>
