<!-- Generated by IcoMoon.io -->
<svg version="1.1" xmlns="http://www.w3.org/2000/svg" width="32" height="32" viewBox="0 0 32 32">
<title>as-arrow_right_double-5</title>
<path fill="#ebebeb" d="M22.719 20.566c-0.447-0.44-1.17-0.438-1.616 0-0.447 0.44-0.447 1.151 0 1.591l1.922 1.755c0.36 0.354 0.105 0.823-0.405 0.823h-6.621c-5.038 0-9.12-3.94-9.139-8.892 0.019-4.952 4.102-9.096 9.139-9.096h6.621c0.51 0 0.765 0.742 0.405 1.096l-1.922 1.958c-0.447 0.44-0.447 1.185 0 1.625 0.446 0.44 1.169 0.456 1.616 0.017l4.041-3.966c0.893-0.878 0.893-2.297 0-3.175-0.626-0.612-3.41-3.351-4.041-3.972-0.447-0.44-1.17-0.438-1.616 0-0.447 0.44-0.447 1.151 0 1.591l1.922 1.755c0.36 0.354 0.105 0.823-0.405 0.823h-6.621c-6.311 0-11.429 5.238-11.429 11.447v0.034c0 6.209 5.118 11.123 11.429 11.123l6.621-0.119c0.51 0 0.765 0.742 0.405 1.096l-1.922 1.96c-0.447 0.438-0.447 1.185 0 1.623 0.446 0.44 1.169 0.456 1.616 0.017 0.63-0.618 3.416-3.354 4.041-3.962 0.893-0.878 0.893-2.299 0-3.177l-4.041-3.974z"></path>
</svg>
