<!-- Generated by IcoMoon.io -->
<svg version="1.1" xmlns="http://www.w3.org/2000/svg" width="32" height="32" viewBox="0 0 32 32">
<title>as-brightness-1</title>
<path fill="#ebebeb" d="M22.788 22.788c-0.624 0.626 1.638 3.901 2.262 4.525 0.626 0.626 1.638 0.626 2.262 0 0.626-0.624 0.626-1.637 0-2.262-0.624-0.624-3.899-2.888-4.525-2.262zM4.686 4.686c-0.624 0.626-0.624 1.638 0 2.264 0.626 0.624 3.901 2.886 4.526 2.262 0.624-0.626-1.638-3.901-2.262-4.526-0.626-0.624-1.638-0.624-2.264 0zM4.686 25.051c-0.624 0.626-0.624 1.638 0 2.262 0.626 0.626 1.638 0.626 2.264 0 0.624-0.624 2.886-3.899 2.262-4.525-0.626-0.626-3.901 1.638-4.526 2.262zM27.313 6.95c0.626-0.626 0.626-1.638 0-2.264-0.624-0.624-1.637-0.624-2.262 0-0.624 0.626-2.886 3.901-2.262 4.526 0.626 0.624 3.901-1.638 4.525-2.262zM15.999 25.599c-0.883 0-1.6 3.917-1.6 4.8 0 0.885 0.717 1.6 1.6 1.6 0.885 0 1.6-0.715 1.6-1.6 0-0.883-0.715-4.8-1.6-4.8zM15.999 6.399c0.885 0 1.6-3.915 1.6-4.8 0-0.883-0.715-1.6-1.6-1.6-0.883 0-1.6 0.717-1.6 1.6 0 0.885 0.717 4.8 1.6 4.8zM30.399 14.399c-0.883 0-4.8 0.717-4.8 1.6 0 0.885 3.917 1.6 4.8 1.6 0.885 0 1.6-0.715 1.6-1.6 0-0.883-0.715-1.6-1.6-1.6zM6.399 15.999c0-0.883-3.915-1.6-4.8-1.6-0.883 0-1.6 0.717-1.6 1.6 0 0.885 0.717 1.6 1.6 1.6 0.885 0 4.8-0.715 4.8-1.6zM22.399 15.999c0 3.534-2.864 6.4-6.4 6.4-3.534 0-6.4-2.866-6.4-6.4s2.866-6.4 6.4-6.4c3.536 0 6.4 2.866 6.4 6.4z"></path>
</svg>
