<!-- Generated by IcoMoon.io -->
<svg version="1.1" xmlns="http://www.w3.org/2000/svg" width="32" height="32" viewBox="0 0 32 32">
<title>as-bomb-</title>
<path fill="#ebebeb" d="M20.926 28.8c-4.361 0-7.909-3.589-7.909-8 0-1.938 0.712-3.693 1.849-5.078l1.039-1.051c1.37-1.15 3.105-1.87 5.021-1.87 4.361 0 7.909 3.589 7.909 8s-3.548 8-7.909 8zM12.155 13.939l-2.238-2.262 2.238-2.262 2.237 2.262-0.378 0.382c-0.639 0.517-1.218 1.102-1.729 1.749l-0.13 0.131zM20.926 9.6c-1.235 0-2.42 0.213-3.529 0.59l-5.242-5.302-2.419 2.262-3.409-3.264v-3.886h-6.328v3.2h3.532l0.003 2.021 4.145 4.194-2.237 2.262 5.127 5.186c-0.456 1.227-0.717 2.55-0.717 3.938 0 6.186 4.958 11.2 11.073 11.2s11.073-5.014 11.073-11.2-4.958-11.2-11.073-11.2z"></path>
</svg>
