<!-- Generated by IcoMoon.io -->
<svg version="1.1" xmlns="http://www.w3.org/2000/svg" width="32" height="32" viewBox="0 0 32 32">
<title>as-bug_plus-</title>
<path fill="#ebebeb" d="M19.2 11.2c0.883 0 1.6 0.717 1.6 1.6s-0.717 1.6-1.6 1.6h-1.6v1.6c0 0.883-0.717 1.6-1.6 1.6s-1.6-0.717-1.6-1.6v-1.6h-1.6c-0.883 0-1.6-0.717-1.6-1.6s0.717-1.6 1.6-1.6h1.6v-1.6c0-0.883 0.717-1.6 1.6-1.6s1.6 0.717 1.6 1.6v1.6h1.6zM16 22.4c-3.469 0-6.4-4.397-6.4-9.6s2.931-9.6 6.4-9.6c3.469 0 6.4 4.397 6.4 9.6s-2.931 9.6-6.4 9.6zM16 28.8c-0.882 0-1.6-0.718-1.6-1.6s0.718-1.6 1.6-1.6c0.882 0 1.6 0.718 1.6 1.6s-0.718 1.6-1.6 1.6zM32 3.2v-1.6c0-0.883-0.717-1.6-1.6-1.6s-1.6 0.717-1.6 1.6v1.6c0 1.768-1.432 3.2-3.2 3.2h-1.294c-1.661-3.822-4.754-6.4-8.306-6.4s-6.645 2.578-8.306 6.4h-1.294c-1.768 0-3.2-1.432-3.2-3.2v-1.6c0-0.883-0.717-1.6-1.6-1.6s-1.6 0.717-1.6 1.6v1.6c0 3.534 2.866 6.4 6.4 6.4h0.315c-0.198 1.024-0.315 2.093-0.315 3.2h-4.8c-0.883 0-1.6 0.717-1.6 1.6s0.717 1.6 1.6 1.6h5.115c0.219 1.136 0.549 2.21 0.979 3.2h-1.294c-3.534 0-6.4 2.866-6.4 6.4v1.6c0 0.883 0.717 1.6 1.6 1.6s1.6-0.717 1.6-1.6v-1.6c0-1.768 1.432-3.2 3.2-3.2h3.2v-0.078c0.73 0.872 1.557 1.6 2.462 2.144-0.541 0.776-0.862 1.717-0.862 2.734 0 2.651 2.149 4.8 4.8 4.8s4.8-2.149 4.8-4.8c0-1.018-0.322-1.958-0.862-2.734 0.906-0.544 1.733-1.272 2.462-2.144v0.078h3.2c1.768 0 3.2 1.432 3.2 3.2v1.6c0 0.883 0.717 1.6 1.6 1.6s1.6-0.717 1.6-1.6v-1.6c0-3.534-2.866-6.4-6.4-6.4h-1.294c0.43-0.99 0.76-2.064 0.979-3.2h5.115c0.883 0 1.6-0.717 1.6-1.6s-0.717-1.6-1.6-1.6h-4.8c0-1.107-0.117-2.176-0.315-3.2h0.315c3.534 0 6.4-2.866 6.4-6.4z"></path>
</svg>
