<!-- Generated by IcoMoon.io -->
<svg version="1.1" xmlns="http://www.w3.org/2000/svg" width="32" height="32" viewBox="0 0 32 32">
<title>as-book-</title>
<path fill="#ebebeb" d="M28.8 24c0 0.883-0.717 1.6-1.6 1.6h-9.6v-22.4h9.6c0.883 0 1.6 0.717 1.6 1.6v19.2zM14.4 25.6h-9.6c-0.883 0-1.6-0.717-1.6-1.6v-19.2c0-0.883 0.717-1.6 1.6-1.6h9.6v22.4zM28.8 0h-25.6c-1.768 0-3.2 1.432-3.2 3.2v22.4c0 1.766 1.432 3.2 3.2 3.2h11.2v1.6c0 0.883 0.717 1.6 1.6 1.6s1.6-0.717 1.6-1.6v-1.6h11.2c1.768 0 3.2-1.434 3.2-3.2v-22.4c0-1.768-1.432-3.2-3.2-3.2z"></path>
</svg>
