<!-- Generated by IcoMoon.io -->
<svg version="1.1" xmlns="http://www.w3.org/2000/svg" width="32" height="32" viewBox="0 0 32 32">
<title>as-clouds_sun-1</title>
<path fill="#ebebeb" d="M28.573 18.837c-2.076-8.491-13.923-7.179-15.226-0.778-0.215 1.061-0.361 2.106-0.456 2.941-0.091 0.805-0.791 1.4-1.603 1.4-0.91 0-1.641-0.75-1.617-1.658l0.034-1.224c-3.445-1.293-7.082 1.682-6.416 5.368 0.42 2.326 2.625 3.914 4.995 3.914l12.574-0.008c5.004-0.080 8.99-4.742 7.716-9.955zM8.022 16c0.868 0 1.689 0.173 2.471 0.427 1.709-4.013 5.673-6.827 10.318-6.827-1.33-0.998-2.973-1.6-4.767-1.6-4.423 0-8.022 3.587-8.022 8zM32 20.8c0 6.125-4.725 11.094-11.143 11.19 0 0-0.030 0.003-0.046 0.005 0.016 0 0.030 0.005 0.046 0.005h-12.835c-4.43 0-8.022-3.582-8.022-8 0-3.293 1.996-6.114 4.845-7.342-0.395-6.477 4.776-11.858 11.199-11.858 4.356 0 8.123 2.477 9.987 6.090 3.554 1.877 5.968 5.608 5.968 9.91zM6.968 6.949c0.627-0.626 0.627-1.638 0-2.264-0.626-0.624-1.641-0.624-2.269 0-0.626 0.626-0.626 1.638 0 2.264 0.627 0.624 1.643 0.624 2.269 0zM27.389 6.949c0.627-0.626 0.627-1.638 0-2.264-0.626-0.624-1.641-0.624-2.269 0-0.626 0.626-0.626 1.638 0 2.264 0.627 0.624 1.643 0.624 2.269 0zM1.604 17.6c0.887 0 1.604-0.717 1.604-1.6 0-0.885-0.717-1.6-1.604-1.6-0.886 0-1.604 0.715-1.604 1.6 0 0.883 0.719 1.6 1.604 1.6zM14.44 1.6c0-0.885 0.719-1.6 1.604-1.6 0.887 0 1.604 0.715 1.604 1.6 0 0.883-0.717 1.6-1.604 1.6-0.886 0-1.604-0.717-1.604-1.6z"></path>
</svg>
