<!-- Generated by IcoMoon.io -->
<svg version="1.1" xmlns="http://www.w3.org/2000/svg" width="32" height="32" viewBox="0 0 32 32">
<title>as-connection_pattern-2</title>
<path fill="#ebebeb" d="M27.2 17.6c-0.882 0-1.6-0.718-1.6-1.6s0.718-1.6 1.6-1.6c0.882 0 1.6 0.718 1.6 1.6s-0.718 1.6-1.6 1.6zM16 17.6c-0.882 0-1.6-0.718-1.6-1.6s0.718-1.6 1.6-1.6c0.882 0 1.6 0.718 1.6 1.6s-0.718 1.6-1.6 1.6zM16 28.8c-0.882 0-1.6-0.718-1.6-1.6s0.718-1.6 1.6-1.6c0.882 0 1.6 0.718 1.6 1.6s-0.718 1.6-1.6 1.6zM16 3.2c0.882 0 1.6 0.718 1.6 1.6s-0.718 1.6-1.6 1.6c-0.882 0-1.6-0.718-1.6-1.6s0.718-1.6 1.6-1.6zM4.8 17.6c-0.882 0-1.6-0.718-1.6-1.6s0.718-1.6 1.6-1.6c0.882 0 1.6 0.718 1.6 1.6s-0.718 1.6-1.6 1.6zM27.2 11.2c-2.086 0-3.845 1.6-4.506 3.2h-2.189c-0.482-1.6-1.549-2.424-2.906-2.906v-2.189c1.861-0.661 3.2-2.419 3.2-4.506 0-2.651-2.149-4.8-4.8-4.8s-4.8 2.149-4.8 4.8c0 2.086 1.339 3.845 3.2 4.506v2.189c-1.357 0.482-2.424 1.306-2.906 2.906h-2.189c-0.661-1.6-2.419-3.2-4.506-3.2-2.651 0-4.8 2.149-4.8 4.8s2.149 4.8 4.8 4.8c2.086 0 3.845-1.6 4.506-3.2h2.189c0.482 1.6 1.549 2.424 2.906 2.906v2.189c-1.861 0.661-3.2 2.419-3.2 4.506 0 2.651 2.149 4.8 4.8 4.8s4.8-2.149 4.8-4.8c0-2.086-1.339-3.845-3.2-4.506v-2.189c1.357-0.482 2.424-1.306 2.906-2.906h2.189c0.661 1.6 2.419 3.2 4.506 3.2 2.651 0 4.8-2.149 4.8-4.8s-2.149-4.8-4.8-4.8z"></path>
</svg>
