<!-- Generated by IcoMoon.io -->
<svg version="1.1" xmlns="http://www.w3.org/2000/svg" width="32" height="32" viewBox="0 0 32 32">
<title>as-cloud_plus-3</title>
<path fill="#ebebeb" d="M22.462 11.2h-3.209v3.2h-3.209v3.2h3.209v3.2h3.209v-3.2h3.209v-3.2h-3.209v-3.2zM28.573 14.037c-0.732-2.992-3.226-5.371-6.268-5.909-4.064-0.717-8.3 1.898-8.957 5.133-0.217 1.061-0.361 2.104-0.457 2.939-0.091 0.805-0.789 1.4-1.601 1.4-0.911 0-1.641-0.749-1.617-1.656l0.034-1.224c-0.526-0.198-1.089-0.32-1.683-0.32-2.946 0-5.282 2.653-4.733 5.688 0.42 2.326 2.625 3.912 4.995 3.912l12.574-0.008c5.004-0.080 8.99-4.742 7.716-9.955zM32 16c0 6.126-4.725 11.096-11.143 11.192 0 0-0.030 0.002-0.048 0.003 0.018 0 0.032 0.005 0.048 0.005h-12.835c-4.43 0-8.022-3.582-8.022-8s3.592-8 8.022-8c0.868 0 1.688 0.173 2.471 0.427 1.709-4.013 5.673-6.827 10.32-6.827 6.203 0 11.188 5.014 11.188 11.2zM20.857 23.974v0.018c-0.043 0.002-0.085 0.008-0.128 0.008 0.088 0 0.128-0.022 0.128-0.026z"></path>
</svg>
