<!-- Generated by IcoMoon.io -->
<svg version="1.1" xmlns="http://www.w3.org/2000/svg" width="32" height="32" viewBox="0 0 32 32">
<title>as-car_round-</title>
<path fill="#ebebeb" d="M28.8 24h-1.15c-0.878-0.974-2.186-1.6-3.602-1.6-0.565 0-1.648 0.115-1.648 0.294v-1.894h4.894c0.885 0 1.506 0.717 1.506 1.6v1.6zM24.094 28.8c-0.882 0-1.6-0.718-1.6-1.6s0.718-1.6 1.6-1.6c0.883 0 1.6 0.718 1.6 1.6s-0.717 1.6-1.6 1.6zM12.8 17.6v-14.4h3.462c0.816 0 1.501 0.613 1.59 1.424l1.442 12.976h-6.494zM19.2 24h-3.931c-0.328-1.264-1.038-2.365-1.987-3.2h5.918v3.2zM11.85 27.2c-0.555 0.952-1.576 1.6-2.755 1.6s-2.2-0.648-2.754-1.6c-0.277-0.472-0.446-1.014-0.446-1.6s0.17-1.128 0.446-1.6c0.555-0.952 1.574-1.6 2.754-1.6s2.2 0.648 2.755 1.6c0.275 0.472 0.445 1.014 0.445 1.6s-0.17 1.128-0.445 1.6zM3.294 22.93v-2.13h1.586c-0.666 0.589-1.208 1.312-1.586 2.13zM3.2 4.8c0-0.883 0.811-1.6 1.694-1.6h4.706v14.4h-6.4v-12.8zM29.269 17.6h-6.774l-1.366-15.030c-0.131-1.454-1.352-2.57-2.814-2.57h-15.392c-1.562 0-2.922 1.266-2.922 2.827v21.546c0 1.562 1.312 2.827 2.874 2.827h0.024c0.714 2.755 3.206 4.8 6.186 4.8s5.472-2.045 6.186-4.8h4.026c0 2.651 2.149 4.8 4.8 4.8s4.8-2.149 4.8-4.8h0.374c1.56 0 2.731-1.266 2.731-2.827v-3.946c0-1.562-1.171-2.827-2.731-2.827z"></path>
</svg>
