<!-- Generated by IcoMoon.io -->
<svg version="1.1" xmlns="http://www.w3.org/2000/svg" width="32" height="32" viewBox="0 0 32 32">
<title>as-chart-</title>
<path fill="#ebebeb" d="M21.334 3.861c3.026 1.074 5.429 3.781 6.501 6.81h-6.501v-6.81zM21.334 14.227h10.667c0-7.859-6.368-14.227-14.222-14.227v10.671c0 1.963 1.591 3.557 3.556 3.557zM12.046 28.241c-4.146-0.806-7.472-4.133-8.279-8.282-1.349-6.955 4.007-11.521 6.9-12.543v6.811c0 3.921 3.189 7.114 7.111 7.114h6.501c-1.518 3.683-6.073 8.097-12.233 6.9zM14.222 14.227v-10.671c-8.788 0-15.714 7.973-13.945 17.082 1.077 5.547 5.547 10.016 11.092 11.094 9.518 1.851 17.076-6.239 17.076-13.948h-10.667c-1.964 0-3.556-1.593-3.556-3.557z"></path>
</svg>
