<!-- Generated by IcoMoon.io -->
<svg version="1.1" xmlns="http://www.w3.org/2000/svg" width="32" height="32" viewBox="0 0 32 32">
<title>as-cloud_connection-3</title>
<path fill="#ebebeb" d="M6.739 22.4c2.192 0 4.475 0.413 4.475-1.6 0-2.955-4.333-0.512-6.733-2.298-3.327-2.474 0.513-7.702 3.914-4.997-0.961-3.166 0.114-6.387 2.443-8.387 4.648-3.994 11.82-1.387 13.006 4.498 4.809-0.173 6.755 6.078 2.921 8.702-2.747 1.878-5.959-0.251-5.959 2.482 0 0.883 0.716 1.6 1.599 1.6 1.599 0 4.235 0.17 6.844-2.077 4.795-4.126 3.004-11.739-2.934-13.544 0 0-1.126-2.906-4.093-4.894-1.776-1.19-3.914-1.885-6.213-1.885-5.692 0-10.38 4.254-11.089 9.755 0 0-2.289 0.514-3.749 2.594-3.054 4.355 0.233 10.051 5.567 10.051zM31.999 30.4c0 0.883-0.716 1.6-1.599 1.6h-28.779c-0.883 0-1.599-0.717-1.599-1.6s0.716-1.6 1.599-1.6h12.791v-17.6c0-0.883 0.676-1.6 1.559-1.6h0.013c0.884 0 1.626 0.717 1.626 1.6v17.6h12.791c0.883 0 1.599 0.717 1.599 1.6z"></path>
</svg>
