<!-- Generated by IcoMoon.io -->
<svg version="1.1" xmlns="http://www.w3.org/2000/svg" width="32" height="32" viewBox="0 0 32 32">
<title>as-cut2</title>
<path fill="#ebebeb" d="M24 32c0.883 0 1.6-0.717 1.6-1.6v-1.6c0-0.883-0.717-1.6-1.6-1.6s-1.6 0.717-1.6 1.6v1.6c0 0.883 0.717 1.6 1.6 1.6zM25.6 22.4h-14.4c-0.883 0-1.6-0.717-1.6-1.6v-8c0-0.883-0.717-1.6-1.6-1.6s-1.6 0.717-1.6 1.6v9.6c0 1.768 1.432 3.2 3.2 3.2h20.8c0.883 0 1.6-0.717 1.6-1.6s-0.717-1.6-1.6-1.6h-4.8zM9.6 9.6h11.2c0.883 0 1.6 0.717 1.6 1.6v8c0 0.883 0.717 1.6 1.6 1.6s1.6-0.717 1.6-1.6v-9.6c0-1.768-1.432-3.2-3.2-3.2h-20.8c-0.883 0-1.6 0.717-1.6 1.6s0.717 1.6 1.6 1.6h8zM9.6 1.6v1.6c0 0.883-0.717 1.6-1.6 1.6s-1.6-0.717-1.6-1.6v-1.6c0-0.883 0.717-1.6 1.6-1.6s1.6 0.717 1.6 1.6z"></path>
</svg>
