<!-- Generated by IcoMoon.io -->
<svg version="1.1" xmlns="http://www.w3.org/2000/svg" width="32" height="32" viewBox="0 0 32 32">
<title>as-cloud_down-</title>
<path fill="#ebebeb" d="M22.392 24.75c0-0.628-1.636-0.621-2.259 0.005l-1.17 1.178c-0.503 0.506-1.365 0.151-1.365-0.565v-14.118c0-0.88-0.638-1.591-1.51-1.602-0.876 0.011-1.686 0.723-1.686 1.602v14.118c0 0.716-0.861 1.074-1.365 0.568l-1.17-1.509c-0.623-0.626-1.619-0.332-2.242-0.332h-0.010c-0.623 1.606-0.628 1.976-0.003 2.603l4.129 4.319c1.248 1.254 3.271 1.337 4.519 0.083l4.131-4.11c0.625-0.628 0-1.623 0-2.249v0.010zM16.071 9.645c0.006 0 0.011 0.003 0.018 0.003s0.011-0.003 0.017-0.003h-0.035zM22.392 22.489c-0.882 0-1.598-0.719-1.598-1.605s0.716-1.606 1.598-1.606h1.428c6.807 0 6.313-9.845 0.010-9.617-2.154-10.725-18.69-6.854-15.44 3.903-3.32-2.652-7.305 2.481-3.912 5.014 2.398 1.792 6.729-0.66 6.729 2.306 0 2.020-2.282 1.605-4.472 1.605-5.33 0-8.616-5.716-5.564-10.086 1.459-2.087 3.747-2.603 3.747-2.603 1.055-8.209 10.383-12.544 17.292-7.898 2.966 1.996 4.090 4.911 4.090 4.911 1.743 0.533 3.239 1.638 4.257 3.1 3.427 4.923 0.764 12.575-8.165 12.575z"></path>
</svg>
