<!-- Generated by IcoMoon.io -->
<svg version="1.1" xmlns="http://www.w3.org/2000/svg" width="32" height="32" viewBox="0 0 32 32">
<title>as-clock-2</title>
<path fill="#ebebeb" d="M28.8 16c0-7.058-5.742-12.8-12.8-12.8s-12.8 5.742-12.8 12.8c0 7.058 5.742 12.8 12.8 12.8s12.8-5.742 12.8-12.8zM32 16c0 8.837-7.163 16-16 16s-16-7.163-16-16c0-8.837 7.163-16 16-16s16 7.163 16 16zM25.6 17.6c0 0.883-0.717 1.6-1.6 1.6h-6.4c-1.768 0-3.2-1.432-3.2-3.2v-8c0-0.883 0.717-1.6 1.6-1.6s1.6 0.717 1.6 1.6v6.4c0 0.88 0.72 1.6 1.6 1.6h4.8c0.883 0 1.6 0.717 1.6 1.6z"></path>
</svg>
