<!-- Generated by IcoMoon.io -->
<svg version="1.1" xmlns="http://www.w3.org/2000/svg" width="32" height="32" viewBox="0 0 32 32">
<title>as-car-7</title>
<path fill="#ebebeb" d="M28.8 24h-1.246c-0.878-0.976-2.138-1.6-3.554-1.6-0.565 0-1.098 0.115-1.6 0.294v-1.894h6.4v3.2zM24 28.8c-0.882 0-1.6-0.718-1.6-1.6s0.718-1.6 1.6-1.6c0.882 0 1.6 0.718 1.6 1.6s-0.718 1.6-1.6 1.6zM12.8 17.6v-14.4h6.4v14.4h-6.4zM19.2 24h-7.646c-0.878-0.976-2.138-1.6-3.554-1.6s-2.675 0.624-3.554 1.6h-1.246v-3.2h16v3.2zM8 28.8c-0.882 0-1.6-0.718-1.6-1.6s0.718-1.6 1.6-1.6c0.882 0 1.6 0.718 1.6 1.6s-0.718 1.6-1.6 1.6zM3.2 17.6v-14.4h6.4v14.4h-6.4zM22.4 17.6v-17.6h-22.4v27.2h3.2c0 2.651 2.149 4.8 4.8 4.8s4.8-2.149 4.8-4.8h6.4c0 2.651 2.149 4.8 4.8 4.8s4.8-2.149 4.8-4.8h3.2v-9.6h-9.6z"></path>
</svg>
