<!-- Generated by IcoMoon.io -->
<svg version="1.1" xmlns="http://www.w3.org/2000/svg" width="32" height="32" viewBox="0 0 32 32">
<title>as-control-1</title>
<path fill="#ebebeb" d="M28.8 9.6h-6.4v-6.4h4.8c0.883 0 1.6 0.717 1.6 1.6v4.8zM28.8 22.4v4.8c0 0.883-0.717 1.6-1.6 1.6h-4.8v-6.4h6.4zM12.8 19.2h6.4v-6.4h-6.4v6.4zM9.6 28.8h-4.8c-0.883 0-1.6-0.717-1.6-1.6v-4.8h6.4v6.4zM3.2 9.6v-4.8c0-0.883 0.717-1.6 1.6-1.6h4.8v6.4h-6.4zM28.8 0h-9.6v9.6h-6.4v-9.6h-9.6c-1.768 0-3.2 1.432-3.2 3.2v9.6h9.6v6.4h-9.6v9.6c0 1.768 1.432 3.2 3.2 3.2h9.6v-9.6h6.4v9.6h9.6c1.768 0 3.2-1.432 3.2-3.2v-9.6h-9.6v-6.4h9.6v-9.6c0-1.768-1.432-3.2-3.2-3.2z"></path>
</svg>
