<!-- Generated by IcoMoon.io -->
<svg version="1.1" xmlns="http://www.w3.org/2000/svg" width="32" height="32" viewBox="0 0 32 32">
<title>as-cart_empty-</title>
<path fill="#ebebeb" d="M32 0h-9.6v19.2h-19.2v3.494c-1.861 0.661-3.2 2.419-3.2 4.506 0 2.651 2.149 4.8 4.8 4.8s4.8-2.149 4.8-4.8c0-2.086-1.339-3.845-3.2-4.506v-0.294h16v0.294c-1.861 0.661-3.2 2.419-3.2 4.506 0 2.651 2.149 4.8 4.8 4.8s4.8-2.149 4.8-4.8c0-2.086-1.339-3.845-3.2-4.506v-19.494h6.4v-3.2zM4.8 25.522l0.528 0.187c0.534 0.19 1.072 0.725 1.072 1.491 0 0.882-0.718 1.6-1.6 1.6s-1.6-0.718-1.6-1.6c0-0.766 0.538-1.301 1.072-1.491l0.528-0.187zM24 25.522c0.875 0.31 1.6 0.621 1.6 1.678 0 0.882-0.718 1.6-1.6 1.6s-1.6-0.718-1.6-1.6c0-1.058 0.725-1.368 1.6-1.678z"></path>
</svg>
