<!-- Generated by IcoMoon.io -->
<svg version="1.1" xmlns="http://www.w3.org/2000/svg" width="32" height="32" viewBox="0 0 32 32">
<title>as-cloud_minus-</title>
<path fill="#ebebeb" d="M26.313 10.785c0 0-1.125-2.907-4.094-4.894-6.851-4.587-16.25-0.387-17.315 7.869-0.008 0.061-0.096 0.064-0.046 0.051-3.046 0.758-5.237 3.678-4.802 7.046 0.586 4.539 6.344 6.864 6.344 3.859 0-1.848-0.672-1.269-1.938-2.21-3.336-2.48 0.507-7.706 3.917-4.997-2.093-6.893 5.2-12.629 11.322-9.386 2.182 1.155 3.688 3.258 4.139 5.498 4.538-0.163 7.23 6.030 2.534 8.866-0.475 0.286-0.774 0.802-0.774 1.357 0 1.179 1.266 1.997 2.296 1.424 0.483-0.267 0.938-0.581 1.354-0.939 4.795-4.123 3.013-11.738-2.936-13.544zM22.399 25.076v-0.091c0 0.011-0.005 0.019-0.005 0.029 0 0.021 0.005 0.042 0.005 0.062zM22.394 25.014c-0.018 0.866-0.722 1.392-1.594 1.392h-9.602c-2.491 0-1.744-3.2 0-3.2h9.602c0.862 0 1.562 0.941 1.594 1.808z"></path>
</svg>
