<!-- Generated by IcoMoon.io -->
<svg version="1.1" xmlns="http://www.w3.org/2000/svg" width="32" height="32" viewBox="0 0 32 32">
<title>as-clouds-5</title>
<path fill="#ebebeb" d="M20.774 24.003v-0.033h-12.523c-2.36 0-4.556-1.563-4.974-3.886-0.546-3.031 1.78-5.671 4.714-5.671 0.591 0 1.152 0.128 1.676 0.324l-0.034 1.226c-0.024 0.906 0.703 1.655 1.611 1.655 0.809 0 1.504-0.593 1.595-1.397 0.096-0.836 0.24-1.878 0.455-2.937 0.655-3.231 4.874-5.842 8.921-5.125 3.030 0.537 5.515 2.912 6.243 5.901 1.269 5.206-2.891 9.863-7.685 9.943zM27.297 25.078c2.817-2.029 4.575-5.326 4.575-9.057 0-3.722-1.809-7.009-4.591-9.043l4.251-4.251c0.625-0.623 0.625-1.635 0-2.26-0.623-0.623-1.635-0.623-2.26 0l-4.963 4.963c-1.123-0.38-2.324-0.596-3.58-0.596-3.73 0-6.997 1.844-9.024 4.652l-8.977-8.979c-0.623-0.623-1.636-0.623-2.26 0-0.625 0.625-0.625 1.636 0 2.261l8.538 8.538c-1.588-0.238-3.337 0.024-5.32 1.43-2.29 1.624-3.848 4.188-3.671 6.988 0.168 2.643 1.63 4.92 3.75 6.248l-3.298 3.298c-0.625 0.625-0.625 1.636 0 2.261 0.623 0.623 1.636 0.623 2.26 0l4.412-4.433c0.283 0.030 0.559 0.066 0.85 0.066h12.784c-0.016 0-0.030 0.016-0.048 0.016 0.018-0.002 0.048 0.006 0.048 0.006 1.25-0.019 2.432-0.224 3.532-0.588l4.927 4.93c0.623 0.625 1.636 0.625 2.26 0.002 0.625-0.625 0.625-1.635 0-2.26l-4.195-4.193z"></path>
</svg>
