<!-- Generated by IcoMoon.io -->
<svg version="1.1" xmlns="http://www.w3.org/2000/svg" width="32" height="32" viewBox="0 0 32 32">
<title>as-clock-</title>
<path fill="#ebebeb" d="M25.595 15.926c-0.014 0.874-0.723 1.674-1.598 1.674h-6.565c-1.675 0-3.032-1.557-3.032-3.234v-6.565c0-0.883 0.715-1.6 1.598-1.6 0.885 0 1.602 0.717 1.602 1.6v4.8c0 0.885 0.714 1.798 1.597 1.798h4.8c0.875 0 1.584 0.656 1.598 1.526zM25.595 15.926c0-0.008 0.005-0.016 0.005-0.026v0.050c0-0.008-0.005-0.016-0.005-0.024zM15.998 6.202v0zM28.8 27.2c0 0.883-0.717 1.6-1.6 1.6h-22.4c-0.883 0-1.6-0.717-1.6-1.6v-22.4c0-0.883 0.717-1.6 1.6-1.6h22.4c0.883 0 1.6 0.717 1.6 1.6v22.4zM28.8 0h-25.6c-1.766 0-3.2 1.434-3.2 3.2v25.6c0 1.768 1.434 3.2 3.2 3.2h25.6c1.768 0 3.2-1.432 3.2-3.2v-25.6c0-1.766-1.432-3.2-3.2-3.2z"></path>
</svg>
