<!-- Generated by IcoMoon.io -->
<svg version="1.1" xmlns="http://www.w3.org/2000/svg" width="26" height="32" viewBox="0 0 26 32">
<title>as-drink-1</title>
<path fill="#ebebeb" d="M10.718 20.539c-0.658-0.611-1.085-1.261-1.117-2.179-0.026-0.755 0.338-1.464 1.083-1.722 0.781-0.269 1.514 0.067 1.992 0.674 0.062 0.078 0.186 0.077 0.248-0.002 0.443-0.566 1.106-0.898 1.85-0.714 0.84 0.21 1.262 0.981 1.224 1.805-0.045 0.931-0.506 1.578-1.174 2.19-0.317 0.291-0.64 0.578-0.962 0.862-0.605 0.533-1.509 0.533-2.115 0.002-0.346-0.301-0.693-0.603-1.029-0.917zM16.456 28.8h-7.31l-2.214-14.4h11.739l-2.214 14.4zM14.4 11.2v-8h6.4v-3.2h-9.6v11.2h-11.2v3.2h3.693l2.707 17.6h12.8l2.709-17.6h3.691v-3.2h-11.2z"></path>
</svg>
