<!-- Generated by IcoMoon.io -->
<svg version="1.1" xmlns="http://www.w3.org/2000/svg" width="34" height="32" viewBox="0 0 34 32">
<title>as-download-1</title>
<path fill="#ebebeb" d="M17.604 19.352v-12.952h-3.2v12.952l-3.842-3.883-2.066 2.325 7.507 7.474 7.6-7.067-1.642-2.731-4.358 3.883zM28.804 22.4h3.2v-12.8h-3.2v12.8zM28.804 28.8h-3.2v3.2h6.4v-6.4h-3.2v3.2zM25.604-0.001v3.2h3.2v3.2h3.2v-6.4h-6.4zM0.004 22.4h3.2v-12.8h-3.2v12.8zM3.204 25.6h-3.2v6.4h6.4v-3.2h-3.2v-3.2zM0.004-0.001v6.4h3.2v-3.2h3.2v-3.2h-6.4zM9.604 32h12.8v-3.2h-12.8v3.2zM9.604 3.2h12.8v-3.2h-12.8v3.2z"></path>
</svg>
