<!-- Generated by IcoMoon.io -->
<svg version="1.1" xmlns="http://www.w3.org/2000/svg" width="32" height="32" viewBox="0 0 32 32">
<title>as-directory_missing-3</title>
<path fill="#ebebeb" d="M28.8 22.4h3.2v-3.2h-3.2v3.2zM19.2 6.4h-2.501l-0.699-1.397v4.597h3.2v-3.2zM28.8 16h3.2v-3.2h-3.2v3.2zM12.8 0h-3.2v3.2h2.266l0.934 1.91v-5.11zM28.8 28.8h-3.2v3.2h6.4v-6.4h-3.2v3.2zM6.4 0h-6.4v6.4h3.2v-3.2h3.2v-3.2zM0 32h3.2v-3.2h-3.2v3.2zM28.8 6.4v3.2h3.2v-3.2h-3.2zM0 19.2h3.2v-3.2h-3.2v3.2zM0 12.8h3.2v-3.2h-3.2v3.2zM0 25.6h3.2v-3.2h-3.2v3.2zM12.8 32h3.2v-3.2h-3.2v3.2zM6.4 32h3.2v-3.2h-3.2v3.2zM19.2 32h3.2v-3.2h-3.2v3.2zM22.4 9.6h3.2v-3.2h-3.2v3.2z"></path>
</svg>
