<!-- Generated by IcoMoon.io -->
<svg version="1.1" xmlns="http://www.w3.org/2000/svg" width="32" height="32" viewBox="0 0 32 32">
<title>as-emoji_sad_square_round-1</title>
<path fill="#ebebeb" d="M19.2 11.2c0-0.883 0.717-1.6 1.6-1.6h3.2c0.883 0 1.6 0.717 1.6 1.6v3.2c0 0.88-0.72 1.6-1.6 1.6h-3.2c-0.88 0-1.6-0.72-1.6-1.6v-3.2zM12.8 14.4c0 0.883-0.717 1.6-1.6 1.6h-3.2c-0.883 0-1.6-0.717-1.6-1.6v-3.2c0-0.883 0.717-1.6 1.6-1.6h3.2c0.883 0 1.6 0.717 1.6 1.6v3.2zM25.6 21.902v1.434c0 0.883-0.717 1.642-1.6 1.642v0.042c-0.883 0-1.6-0.634-1.6-1.517v0.165c0-0.883-0.717-1.267-1.6-1.267h-9.6c-0.883 0-1.6 0.384-1.6 1.267v-0.331c0 0.883-0.717 1.6-1.6 1.6s-1.6-0.717-1.6-1.6v-1.434c0-1.768 1.434-2.707 3.2-2.707v0.005h12.8c1.6 0 3.2 0.934 3.2 2.702zM28.8 27.2c0 0.883-0.717 1.6-1.6 1.6h-22.4c-0.883 0-1.6-0.717-1.6-1.6v-22.4c0-0.883 0.717-1.6 1.6-1.6h22.4c0.883 0 1.6 0.717 1.6 1.6v22.4zM32 3.2c0-1.768-1.432-3.2-3.2-3.2h-25.6c-1.768 0-3.2 1.432-3.2 3.2v25.6c0 1.768 1.432 3.2 3.2 3.2h25.6c1.768 0 3.2-1.432 3.2-3.2v-25.6z"></path>
</svg>
