<!-- Generated by IcoMoon.io -->
<svg version="1.1" xmlns="http://www.w3.org/2000/svg" width="32" height="32" viewBox="0 0 32 32">
<title>as-emoji_neutral_circle-4</title>
<path fill="#ebebeb" d="M25.6 21.464c0 0.883-0.717 1.6-1.6 1.6h-16c-0.883 0-1.6-0.717-1.6-1.6s0.717-1.6 1.6-1.6h16c0.883 0 1.6 0.717 1.6 1.6zM16 28.8c-7.058 0-12.8-5.742-12.8-12.8 0-2.542 0.754-4.907 2.037-6.901l2.101 2.101-1.6 1.6c-0.626 0.624-0.626 1.638 0 2.262 0.624 0.626 1.637 0.626 2.262 0l1.6-1.6 1.6 1.6c0.626 0.626 1.638 0.626 2.262 0 0.626-0.624 0.626-1.638 0-2.262l-1.6-1.6 1.6-1.6c0.626-0.626 0.626-1.638 0-2.262-0.624-0.626-1.637-0.626-2.262 0l-1.6 1.6-2.299-2.299c2.286-2.126 5.339-3.438 8.699-3.438s6.413 1.312 8.699 3.438l-2.299 2.299-1.6-1.6c-0.626-0.626-1.638-0.626-2.262 0-0.626 0.624-0.626 1.637 0 2.262l1.6 1.6-1.6 1.6c-0.626 0.624-0.626 1.638 0 2.262 0.624 0.626 1.637 0.626 2.262 0l1.6-1.6 1.6 1.6c0.626 0.626 1.638 0.626 2.262 0 0.626-0.624 0.626-1.638 0-2.262l-1.6-1.6 2.101-2.101c1.283 1.994 2.037 4.358 2.037 6.901 0 7.058-5.742 12.8-12.8 12.8zM16 0c-8.837 0-16 7.163-16 16s7.163 16 16 16c8.837 0 16-7.163 16-16s-7.163-16-16-16z"></path>
</svg>
