<!-- Generated by IcoMoon.io -->
<svg version="1.1" xmlns="http://www.w3.org/2000/svg" width="32" height="32" viewBox="0 0 32 32">
<title>as-emoji_happy_square-6</title>
<path fill="#ebebeb" d="M20.8 17.6c0 6.4-9.6 6.4-9.6 0h-3.2c0 9.6 16 9.6 16 0h-3.2zM24.662 10.536l2.731-2.731-2.262-2.262-2.731 2.731-2.731-2.731-2.262 2.262 2.731 2.731-2.731 2.731 2.262 2.262 2.731-2.731 2.731 2.731 2.262-2.262-2.731-2.731zM11.862 10.536l2.731-2.731-2.262-2.262-2.731 2.731-2.731-2.731-2.262 2.262 2.731 2.731-2.731 2.731 2.262 2.262 2.731-2.731 2.731 2.731 2.262-2.262-2.731-2.731zM3.2 28.8v-25.6h25.6v25.6h-25.6zM0 32h32v-32h-32v32z"></path>
</svg>
