<!-- Generated by IcoMoon.io -->
<svg version="1.1" xmlns="http://www.w3.org/2000/svg" width="32" height="32" viewBox="0 0 32 32">
<title>as-emoji_surprised_simple_glasses-1</title>
<path fill="#ebebeb" d="M28.8 9.715h-6.4v4.972c0 0.915 0.717 1.657 1.6 1.657h4.8v-6.629zM9.6 9.715h-6.4v6.629h4.8c0.883 0 1.6-0.742 1.6-1.657v-4.972zM32 6.4v13.259h-9.6c-1.768 0-3.2-1.483-3.2-3.315v-6.629h-6.4v6.629c0 1.831-1.432 3.315-3.2 3.315h-9.6v-13.259h32zM19.2 22.285c0 1.831-1.432 3.315-3.2 3.315s-3.2-1.483-3.2-3.315c0-1.831 1.432-3.315 3.2-3.315s3.2 1.483 3.2 3.315z"></path>
</svg>
