<!-- Generated by IcoMoon.io -->
<svg version="1.1" xmlns="http://www.w3.org/2000/svg" width="32" height="32" viewBox="0 0 32 32">
<title>as-emoji_neutral-10</title>
<path fill="#ebebeb" d="M12.8 25.567h6.4v-3.196h-6.4v3.196zM19.2 6.392h-16v-2.261c0-0.882 0.717-0.935 1.6-0.935h22.4c0.883 0 1.6 0.053 1.6 0.935v2.261h-9.6zM24 15.979c-0.883 0-1.6-1.427-1.6-2.309v-4.083h6.4v6.392h-4.8zM16 29.427c-5.968 0-10.981-5.459-12.392-10.252h5.992c1.768 0 3.2-2.143 3.2-3.907v-5.681h6.4v5.681c0 1.764 1.432 3.907 3.2 3.907h5.992c-1.411 4.794-6.424 10.252-12.392 10.252zM9.6 9.588v4.083c0 0.882-0.717 2.309-1.6 2.309h-4.8v-6.392h6.4zM28.8 0h-25.6c-1.768 0-3.2 0.767-3.2 2.533v16.642h0.326c0.48 1.598 1.475 4.19 2.874 6.055 0.918 1.224 2.005 2.132 3.229 3.047 2.672 1.999 5.978 3.723 9.571 3.723s6.899-1.858 9.571-3.856c1.224-0.917 2.31-1.668 3.229-2.892 1.398-1.865 2.394-4.479 2.874-6.077h0.326v-16.642c0-1.766-1.432-2.533-3.2-2.533z"></path>
</svg>
