<!-- Generated by IcoMoon.io -->
<svg version="1.1" xmlns="http://www.w3.org/2000/svg" width="32" height="32" viewBox="0 0 32 32">
<title>as-emoji_surprised_missing-</title>
<path fill="#ebebeb" d="M28.8 22.4h3.2v-12.8h-3.2v12.8zM28.8 28.8h-3.2v3.2h6.4v-6.4h-3.2v3.2zM25.6 0v3.2h3.2v3.2h3.2v-6.4h-6.4zM0 22.4h3.2v-12.8h-3.2v12.8zM3.2 25.6h-3.2v6.4h6.4v-3.2h-3.2v-3.2zM3.2 3.2h3.2v-3.2h-6.4v6.4h3.2v-3.2zM9.6 32h12.8v-3.2h-12.8v3.2zM9.6 3.2h12.8v-3.2h-12.8v3.2zM16.267 18.835c-1.768 0-3.2 1.434-3.2 3.2 0 1.768 1.432 3.2 3.2 3.2 1.766 0 3.2-1.432 3.2-3.2 0-1.766-1.434-3.2-3.2-3.2zM19.2 16h6.4v-6.4h-6.4v6.4zM6.4 16h6.4v-6.4h-6.4v6.4z"></path>
</svg>
