<!-- Generated by IcoMoon.io -->
<svg version="1.1" xmlns="http://www.w3.org/2000/svg" width="32" height="32" viewBox="0 0 32 32">
<title>as-emoji_neutral-9</title>
<path fill="#ebebeb" d="M19.2 23.969c0 0.882-0.717 1.598-1.6 1.598h-3.2c-0.883 0-1.6-0.716-1.6-1.598s0.717-1.598 1.6-1.598h3.2c0.883 0 1.6 0.716 1.6 1.598zM19.2 6.392h-16v-2.261c0-0.882 0.717-0.935 1.6-0.935h22.4c0.883 0 1.6 0.053 1.6 0.935v2.261h-9.6zM22.4 15.979h6.4v-6.392h-6.4v6.392zM16 29.427c-5.968 0-10.981-5.459-12.392-10.252h9.192v-9.588h6.4v9.588h9.192c-1.411 4.794-6.424 10.252-12.392 10.252zM3.2 15.979h6.4v-6.392h-6.4v6.392zM28.8 0h-25.6c-1.768 0-3.2 0.767-3.2 2.533v16.642h0.326c0.48 1.598 1.475 4.19 2.874 6.055 0.918 1.224 2.005 2.132 3.229 3.047 2.672 1.999 5.978 3.723 9.571 3.723s6.899-1.858 9.571-3.856c1.224-0.917 2.31-1.668 3.229-2.892 1.398-1.865 2.394-4.479 2.874-6.077h0.326v-16.642c0-1.766-1.432-2.533-3.2-2.533z"></path>
</svg>
