<!-- Generated by IcoMoon.io -->
<svg version="1.1" xmlns="http://www.w3.org/2000/svg" width="32" height="32" viewBox="0 0 32 32">
<title>as-emoji_sad-6</title>
<path fill="#ebebeb" d="M24 9.6c0.883 0 1.6 0.717 1.6 1.6v3.2c0 0.883-0.717 1.6-1.6 1.6h-3.2c-0.88 0-1.6-0.72-1.6-1.6v-3.2c0-0.883 0.717-1.6 1.6-1.6h3.2zM11.2 16h-3.2c-0.88 0-1.6-0.72-1.6-1.6v-3.2c0-0.883 0.717-1.6 1.6-1.6h3.2c0.883 0 1.6 0.717 1.6 1.6v3.2c0 0.883-0.717 1.6-1.6 1.6zM23.829 23.598c0.187 0.958-0.608 2.002-1.586 2.002h-0.027c-0.762 0-1.386-0.717-1.56-1.458-1.106-4.678-8.206-4.843-9.312-0.166-0.174 0.742-0.798 1.624-1.56 1.624h-0.027c-0.978 0-1.773-1.208-1.586-2.166 1.611-8.221 14.046-8.054 15.658 0.165zM28.8 26.536c0 0.883-0.717 2.264-1.6 2.264h-22.4c-0.883 0-1.6-1.381-1.6-2.264v-11.2c0-7.058 5.742-12.136 12.8-12.136s12.8 5.078 12.8 12.136v11.2zM28.8 5.765c-3.376-4.509-7.275-5.765-12.8-5.765-5.526 0-9.424 1.258-12.8 5.765-2 2.672-3.2 5.978-3.2 9.571v12.8c0 1.768 1.432 3.864 3.2 3.864h25.6c1.768 0 3.2-2.096 3.2-3.864v-12.8c0-3.594-1.2-6.899-3.2-9.571z"></path>
</svg>
