<!-- Generated by IcoMoon.io -->
<svg version="1.1" xmlns="http://www.w3.org/2000/svg" width="32" height="32" viewBox="0 0 32 32">
<title>as-emoji_minecraft-3</title>
<path fill="#ebebeb" d="M24 16h-4.8v-4.8c0-0.883 0.717-1.6 1.6-1.6h3.2c0.883 0 1.6 0.717 1.6 1.6v3.2c0 0.883-0.717 1.6-1.6 1.6zM12.8 12.112v3.888h-4.8c-0.88 0-1.6-0.72-1.6-1.6v-3.2c0-0.883 0.717-1.6 1.6-1.6h3.2c0.883 0 1.6 0.717 1.6 1.6v0.912zM28.8 5.765v9.571c0 4.725-2.581 8.851-6.4 11.069v-6.293c0-0.883-0.717-1.6-1.6-1.6s-1.6-0.717-1.6-1.6v-0.912h-6.4v0.912c0 0.883-0.717 1.6-1.6 1.6s-1.6 0.717-1.6 1.6v6.293c-3.819-2.218-6.4-6.344-6.4-11.069v-11.2c0-0.883 0.717-0.936 1.6-0.936h22.4c0.883 0 1.6 0.053 1.6 0.936v1.629zM12.8 27.715v-1.203c0-0.883 0.717-0.912 1.6-0.912h3.2c0.883 0 1.6 0.029 1.6 0.912v1.203c-1.026 0.264-2.093 1.085-3.2 1.085s-2.174-0.821-3.2-1.085zM28.8 0h-25.6c-1.768 0-3.2 0.768-3.2 2.536v12.8c0 3.594 1.2 6.899 3.2 9.571 0.918 1.226 2.005 2.31 3.229 3.229 2.672 2 5.978 3.864 9.571 3.864s6.899-1.864 9.571-3.864c1.224-0.918 2.31-2.003 3.229-3.229 2-2.672 3.2-5.978 3.2-9.571v-12.8c0-1.768-1.432-2.536-3.2-2.536z"></path>
</svg>
