<!-- Generated by IcoMoon.io -->
<svg version="1.1" xmlns="http://www.w3.org/2000/svg" width="35" height="32" viewBox="0 0 35 32">
<title>as-file_missing_minus-</title>
<path fill="#ebebeb" d="M33.6 16.001c-0.883 0-1.6 0.717-1.6 1.6s0.717 1.6 1.6 1.6c0.883 0 1.6-0.717 1.6-1.6s-0.717-1.6-1.6-1.6zM20.8 28.801c-0.883 0-1.6 0.717-1.6 1.6s0.717 1.6 1.6 1.6c0.883 0 1.6-0.717 1.6-1.6s-0.717-1.6-1.6-1.6zM27.2 28.801c-0.883 0-1.6 0.717-1.6 1.6s0.717 1.6 1.6 1.6c0.883 0 1.6-0.717 1.6-1.6s-0.717-1.6-1.6-1.6zM33.6 28.801c-0.883 0-1.6 0.717-1.6 1.6s0.717 1.6 1.6 1.6c0.883 0 1.6-0.717 1.6-1.6s-0.717-1.6-1.6-1.6zM8 28.801h-6.4c-0.883 0-1.6 0.717-1.6 1.6s0.717 1.6 1.6 1.6h6.4c0.883 0 1.6-0.717 1.6-1.6s-0.717-1.6-1.6-1.6zM4.8 3.201c0.883 0 1.6-0.717 1.6-1.6s-0.717-1.6-1.6-1.6c-0.883 0-1.6 0.717-1.6 1.6s0.717 1.6 1.6 1.6zM33.6 22.401c-0.883 0-1.6 0.717-1.6 1.6s0.717 1.6 1.6 1.6c0.883 0 1.6-0.717 1.6-1.6s-0.717-1.6-1.6-1.6zM11.2 0.001c-0.883 0-1.6 0.717-1.6 1.6s0.717 1.6 1.6 1.6c0.883 0 1.6-0.717 1.6-1.6s-0.717-1.6-1.6-1.6zM17.6 0.001c-0.883 0-1.6 0.717-1.6 1.6s0.717 1.6 1.6 1.6c0.883 0 1.6-0.717 1.6-1.6s-0.717-1.6-1.6-1.6zM4.8 9.601c0.883 0 1.6-0.717 1.6-1.6s-0.717-1.6-1.6-1.6c-0.883 0-1.6 0.717-1.6 1.6s0.717 1.6 1.6 1.6zM4.8 22.401c0.883 0 1.6-0.717 1.6-1.6s-0.717-1.6-1.6-1.6c-0.883 0-1.6 0.717-1.6 1.6s0.717 1.6 1.6 1.6zM14.4 28.801c-0.883 0-1.6 0.717-1.6 1.6s0.717 1.6 1.6 1.6c0.883 0 1.6-0.717 1.6-1.6s-0.717-1.6-1.6-1.6zM34.731 9.132l-8.662-8.662c-0.301-0.301-0.707-0.469-1.131-0.469h-0.938c-0.883 0-1.6 0.717-1.6 1.6v8c0 1.766 1.432 3.2 3.2 3.2h8c0.883 0 1.6-0.717 1.6-1.6v-0.938c0-0.424-0.168-0.83-0.469-1.131zM3.2 14.401c0-0.883 0.717-1.6 1.6-1.6s1.6 0.717 1.6 1.6c0 0.883-0.717 1.6-1.6 1.6s-1.6-0.717-1.6-1.6z"></path>
</svg>
