<!-- Generated by IcoMoon.io -->
<svg version="1.1" xmlns="http://www.w3.org/2000/svg" width="32" height="32" viewBox="0 0 32 32">
<title>as-file_rar-1</title>
<path fill="#ebebeb" d="M32 10.301v5.699h-3.2v-3.2h-9.6v-9.6h-16v12.8h-3.2v-16h22.366l9.634 10.301zM27.198 25.769h-1.6v-3.2h1.6c0.883 0 1.6 0.715 1.6 1.6 0 0.883-0.717 1.6-1.6 1.6zM31.998 24.084c0-2.65-2.149-4.883-4.8-4.883h-4.798v12.8h3.2v-3.2h1.598l1.6 3.2h3.2l-2.042-4.040c1.232-0.869 2.042-2.254 2.042-3.877zM4.797 25.769h-1.6v-3.2h1.6c0.883 0 1.6 0.715 1.6 1.6 0 0.883-0.717 1.6-1.6 1.6zM9.597 24.084c0-2.65-2.149-4.883-4.8-4.883h-4.797v12.8h3.2v-3.2h1.597l1.6 3.2h3.2l-2.042-4.040c1.232-0.869 2.042-2.254 2.042-3.877zM14.4 25.769h3.2v-3.2h-3.2v3.2zM11.2 19.201v12.8h3.2v-3.2h3.2v3.2h3.2v-12.8h-9.6z"></path>
</svg>
