<!-- Generated by IcoMoon.io -->
<svg version="1.1" xmlns="http://www.w3.org/2000/svg" width="32" height="32" viewBox="0 0 32 32">
<title>as-file_love_favorite-</title>
<path fill="#ebebeb" d="M6.867 23.69c-0.103 0.132-0.309 0.135-0.413 0.003-2.854-3.628-7.921 1.043-3.259 5.387 2.998 2.796 3.479 3.176 6.835 0.091 4.84-4.451-0.345-9.085-3.162-5.481zM6.791 19.364c-0.011 0-0.021-0.005-0.033-0.005-0.011 0-0.020 0.005-0.032 0.005h0.065zM31.708 8.361l-7.080-7.235c-0.25-0.248-0.587-0.458-0.94-0.458h-15.466c-1.453 0-2.893 1.251-2.893 2.708v14.791c0 0.727 0.706 1.177 1.429 1.191 0.718-0.015 1.235-0.465 1.235-1.191v-13.354c0-0.737 0.858-1.474 1.593-1.474h11.727v5.513c0 1.457 1.44 2.5 2.893 2.5h5.099v12.158c0 0.738-0.336 1.197-1.071 1.197h-11.988c-0.73 0-1.576 0.657-1.59 1.387 0.015 0.728 0.86 1.283 1.59 1.283h13.352c1.453 0 2.371-1.043 2.371-2.5v-15.534c0-0.355-0.011-0.732-0.261-0.982zM14.653 26.075c0 0.005 0.003 0.011 0.003 0.017 0 0.005-0.003 0.011-0.003 0.017v-0.035z"></path>
</svg>
