<!-- Generated by IcoMoon.io -->
<svg version="1.1" xmlns="http://www.w3.org/2000/svg" width="32" height="32" viewBox="0 0 32 32">
<title>as-file_missing_close-</title>
<path fill="#ebebeb" d="M29.964 15.716c-0.787 0-1.426 0.639-1.426 1.426s0.639 1.426 1.426 1.426c0.787 0 1.426-0.639 1.426-1.426s-0.639-1.426-1.426-1.426zM18.556 27.125c-0.787 0-1.426 0.639-1.426 1.426s0.639 1.426 1.426 1.426c0.787 0 1.426-0.639 1.426-1.426s-0.639-1.426-1.426-1.426zM24.26 27.125c-0.787 0-1.426 0.639-1.426 1.426s0.639 1.426 1.426 1.426c0.787 0 1.426-0.639 1.426-1.426s-0.639-1.426-1.426-1.426zM29.964 27.125c-0.787 0-1.426 0.639-1.426 1.426s0.639 1.426 1.426 1.426c0.787 0 1.426-0.639 1.426-1.426s-0.639-1.426-1.426-1.426zM7.32 25.526c-0.556-0.558-1.459-0.558-2.016 0l-1.008 1.008-1.008-1.008c-0.558-0.558-1.46-0.558-2.016 0-0.558 0.556-0.558 1.459 0 2.016l1.008 1.008-1.008 1.008c-0.558 0.558-0.558 1.46 0 2.016 0.556 0.558 1.459 0.558 2.016 0l1.008-1.008 1.008 1.008c0.558 0.558 1.46 0.558 2.016 0 0.558-0.556 0.558-1.459 0-2.016l-1.008-1.008 1.008-1.008c0.558-0.558 0.558-1.46 0-2.016zM4.295 4.307c0.787 0 1.426-0.639 1.426-1.426s-0.639-1.426-1.426-1.426c-0.787 0-1.426 0.639-1.426 1.426s0.639 1.426 1.426 1.426zM29.964 21.42c-0.787 0-1.426 0.639-1.426 1.426s0.639 1.426 1.426 1.426c0.787 0 1.426-0.639 1.426-1.426s-0.639-1.426-1.426-1.426zM9.999 1.455c-0.787 0-1.426 0.639-1.426 1.426s0.639 1.426 1.426 1.426c0.787 0 1.426-0.639 1.426-1.426s-0.639-1.426-1.426-1.426zM15.703 1.455c-0.787 0-1.426 0.639-1.426 1.426s0.639 1.426 1.426 1.426c0.787 0 1.426-0.639 1.426-1.426s-0.639-1.426-1.426-1.426zM4.295 10.012c0.787 0 1.426-0.639 1.426-1.426s-0.639-1.426-1.426-1.426c-0.787 0-1.426 0.639-1.426 1.426s0.639 1.426 1.426 1.426zM4.295 21.42c0.787 0 1.426-0.639 1.426-1.426s-0.639-1.426-1.426-1.426c-0.787 0-1.426 0.639-1.426 1.426s0.639 1.426 1.426 1.426zM12.851 27.125c-0.787 0-1.426 0.639-1.426 1.426s0.639 1.426 1.426 1.426c0.787 0 1.426-0.639 1.426-1.426s-0.639-1.426-1.426-1.426zM30.973 9.594l-7.721-7.721c-0.513-0.513-1.097-0.418-1.844-0.418-0.787 0-1.426 0.639-1.426 1.426v7.13c0 1.574 1.276 2.852 2.852 2.852h7.13c0.787 0 1.426-0.639 1.426-1.426 0-0.747 0.095-1.331-0.418-1.844zM2.869 14.29c0-0.787 0.639-1.426 1.426-1.426s1.426 0.639 1.426 1.426c0 0.787-0.639 1.426-1.426 1.426s-1.426-0.639-1.426-1.426z"></path>
</svg>
