<!-- Generated by IcoMoon.io -->
<svg version="1.1" xmlns="http://www.w3.org/2000/svg" width="32" height="32" viewBox="0 0 32 32">
<title>as-flower-</title>
<path fill="#ebebeb" d="M28.736 16.715c-0.002 0.015-0.005 0.030-0.011 0.068-0.005 0.024-0.003 0.018 0 0.002-0.547 2.986-4.015 4.399-6.332 2.585 0.725-1.528 0.96-3.269 0.622-4.944 1.136-0.56 2.11-1.41 2.832-2.472 1.983 0.577 3.259 2.713 2.879 4.829 0.003-0.019 0.008-0.046 0.011-0.068zM19.961 28.646c-2.496 0-4.434-2.514-3.936-5.067 1.541-0.019 3.124-0.622 4.338-1.614 1 0.816 2.25 1.364 3.508 1.538 0.561 2.59-1.376 5.143-3.91 5.143zM15.138 20.118c-5.026-1.123-3.433-9.392 1.607-8.235 5.026 1.152 3.435 9.37-1.607 8.235zM10.186 20.617c0.686 0.931 1.681 1.738 2.7 2.239-0.368 1.824-0.059 3.716 0.825 5.33-4.862 2.56-8.296-5.239-3.525-7.569zM6.039 20.047c-2.314-0.673-3.57-3.414-2.61-5.712 1.021-2.443 4.023-3.301 6.064-1.703-0.726 1.526-0.96 3.269-0.622 4.944-1.136 0.558-2.112 1.408-2.832 2.472zM7.873 8.494c0 0-0.005 0-0.005 0.002-0.005-0.002-0.003-0.002-0.008-0.003 0.005 0.002 0.010 0.002 0.013 0.002zM11.706 3.366c2.572-0.138 4.672 2.401 4.153 5.053-1.54 0.020-3.123 0.624-4.336 1.614-0.685-0.558-1.5-1.005-2.334-1.258-0.178-0.054-1.011-0.265-1.257-0.285-0.537-2.504 1.385-4.996 3.774-5.124zM21.7 11.384c-0.686-0.931-1.681-1.74-2.7-2.239 0.368-1.824 0.058-3.716-0.826-5.331 4.863-2.558 8.296 5.239 3.526 7.571zM27.071 8.838c1.033-6.407-5.923-11.233-11.128-7.574-5.207-3.659-12.162 1.165-11.128 7.574-6.419 2.259-6.419 12.066 0 14.325-1.033 6.407 5.921 11.231 11.128 7.574 5.206 3.657 12.162-1.167 11.128-7.574 6.585-2.318 6.559-12.017 0-14.325z"></path>
</svg>
