<!-- Generated by IcoMoon.io -->
<svg version="1.1" xmlns="http://www.w3.org/2000/svg" width="32" height="32" viewBox="0 0 32 32">
<title>as-file_missing_done-</title>
<path fill="#ebebeb" d="M30.048 15.365c-0.754 0-1.365 0.62-1.365 1.383s0.612 1.383 1.365 1.383 1.365-0.619 1.365-1.383c0-0.763-0.612-1.383-1.365-1.383zM19.127 26.427c-0.754 0-1.365 0.62-1.365 1.383s0.611 1.383 1.365 1.383c0.754 0 1.365-0.62 1.365-1.383s-0.612-1.383-1.365-1.383zM24.587 26.427c-0.754 0-1.365 0.62-1.365 1.383s0.612 1.383 1.365 1.383c0.754 0 1.365-0.62 1.365-1.383s-0.612-1.383-1.365-1.383zM30.048 26.427c-0.754 0-1.365 0.62-1.365 1.383s0.612 1.383 1.365 1.383c0.754 0 1.365-0.62 1.365-1.383s-0.612-1.383-1.365-1.383zM9.736 23.494c-0.532-0.541-1.396-0.541-1.93 0l-3.695 3.743-0.965-0.978c-0.534-0.541-1.398-0.541-1.93 0l-0.011 0.011c-0.53 0.535-0.534 1.402-0.011 1.944l1.907 1.977c0.532 0.55 1.405 0.556 1.943 0.011l4.693-4.754c0.534-0.541 0.534-1.416 0-1.955zM5.476 4.302c0.754 0 1.365-0.619 1.365-1.383s-0.612-1.383-1.365-1.383c-0.754 0-1.365 0.619-1.365 1.383s0.612 1.383 1.365 1.383zM30.048 20.896c-0.754 0-1.365 0.62-1.365 1.383s0.612 1.383 1.365 1.383c0.754 0 1.365-0.62 1.365-1.383s-0.612-1.383-1.365-1.383zM10.936 1.537c-0.754 0-1.365 0.619-1.365 1.383s0.612 1.383 1.365 1.383c0.754 0 1.365-0.619 1.365-1.383s-0.612-1.383-1.365-1.383zM16.397 1.537c-0.754 0-1.365 0.619-1.365 1.383s0.612 1.383 1.365 1.383c0.754 0 1.365-0.619 1.365-1.383s-0.611-1.383-1.365-1.383zM5.476 9.834c0.754 0 1.365-0.62 1.365-1.383s-0.612-1.383-1.365-1.383c-0.754 0-1.365 0.62-1.365 1.383s0.612 1.383 1.365 1.383zM5.476 20.896c0.754 0 1.365-0.619 1.365-1.383s-0.612-1.383-1.365-1.383-1.365 0.62-1.365 1.383c0 0.763 0.612 1.383 1.365 1.383zM13.666 26.427c-0.754 0-1.365 0.62-1.365 1.383s0.612 1.383 1.365 1.383c0.754 0 1.365-0.62 1.365-1.383s-0.612-1.383-1.365-1.383zM31.013 9.429l-7.391-7.56c-0.257-0.259-0.603-0.477-0.965-0.477h-0.8c-0.754 0-1.365 0.765-1.365 1.528v6.914c0 1.527 1.222 2.62 2.73 2.62h6.826c0.754 0 1.365-0.474 1.365-1.238v-0.81c0-0.366-0.143-0.718-0.4-0.978zM4.111 13.982c0-0.763 0.612-1.383 1.365-1.383s1.365 0.62 1.365 1.383c0 0.763-0.612 1.383-1.365 1.383s-1.365-0.619-1.365-1.383z"></path>
</svg>
