<!-- Generated by IcoMoon.io -->
<svg version="1.1" xmlns="http://www.w3.org/2000/svg" width="32" height="32" viewBox="0 0 32 32">
<title>as-folder_minus_minus_fill-</title>
<path fill="#ebebeb" d="M19.2 20.801h-6.4c-0.883 0-1.6-0.717-1.6-1.6s0.717-1.6 1.6-1.6h6.4c0.883 0 1.6 0.717 1.6 1.6s-0.717 1.6-1.6 1.6zM28.8 6.401h-11.2c-0.883 0-1.6-0.517-1.6-1.4v-1.6c0-1.768-1.432-3.4-3.2-3.4h-9.6c-1.768 0-3.2 1.632-3.2 3.4v25.6c0 1.768 1.432 3 3.2 3h25.6c1.768 0 3.2-1.232 3.2-3v-19.2c0-1.768-1.432-3.4-3.2-3.4z"></path>
</svg>
