<!-- Generated by IcoMoon.io -->
<svg version="1.1" xmlns="http://www.w3.org/2000/svg" width="32" height="32" viewBox="0 0 32 32">
<title>as-file_rss-1</title>
<path fill="#ebebeb" d="M22.367 0.001h-22.366v16h3.2v-12.8h16v9.6h9.6v3.2h3.2v-5.699l-9.634-10.301zM6.394 24.169c0-0.885-0.717-1.6-1.6-1.6h-1.6v3.2h1.6c0.883 0 1.6-0.717 1.6-1.6zM7.552 27.961l2.042 4.040h-3.2l-1.6-3.2h-1.594v3.2h-3.2v-12.8h4.794c2.651 0 4.8 2.232 4.8 4.883 0 1.622-0.81 3.008-2.042 3.877zM25.594 19.201c-1.768 0-3.194 1.6-3.194 3.368v1.6c0 1.766 1.426 3.032 3.194 3.032h2.4c0.442 0 0.8 0.358 0.8 0.8s-0.358 0.8-0.8 0.8h-5.594v3.2h6.427c1.749 0 3.173-1.25 3.173-3v-1.666c0-1.749-1.424-3.334-3.173-3.334h-2.434c-0.442 0-0.8-0.358-0.8-0.8s0.358-0.8 0.8-0.8h5.606v-3.2h-6.406zM20.8 19.201v3.2h-5.6c-0.442 0-0.8 0.358-0.8 0.8s0.358 0.8 0.8 0.8h2.434c1.749 0 3.166 1.586 3.166 3.334v1.666c0 1.75-1.418 3-3.166 3h-6.434v-3.2h5.6c0.442 0 0.8-0.358 0.8-0.8s-0.358-0.8-0.8-0.8h-2.4c-1.768 0-3.2-1.266-3.2-3.032v-1.6c0-1.768 1.432-3.368 3.2-3.368h6.4z"></path>
</svg>
