<!-- Generated by IcoMoon.io -->
<svg version="1.1" xmlns="http://www.w3.org/2000/svg" width="32" height="32" viewBox="0 0 32 32">
<title>as-file_cpp-1</title>
<path fill="#ebebeb" d="M22.367 0.001h-22.366v16h3.2v-12.8h16v9.6h9.6v3.2h3.2v-5.699l-9.634-10.301zM28.8 24.167c0-0.883-0.717-1.6-1.6-1.6h-1.6v3.2h1.6c0.883 0 1.6-0.715 1.6-1.6zM32 24.001c0 2.651-2.149 4.8-4.8 4.8h-1.6v3.2h-3.2v-12.8h4.8c2.651 0 4.8 2.149 4.8 4.8zM17.6 24.167c0-0.883-0.717-1.6-1.6-1.6h-1.6v3.2h1.6c0.883 0 1.6-0.715 1.6-1.6zM20.8 24.001c0 2.651-2.149 4.8-4.8 4.8h-1.6v3.2h-3.2v-12.8h4.8c2.651 0 4.8 2.149 4.8 4.8zM6.4 19.201h3.2v3.2h-3.2c-1.768 0-3.2 1.434-3.2 3.2s1.432 3.2 3.2 3.2h3.2v3.2h-3.2c-3.534 0-6.4-2.866-6.4-6.4s2.866-6.4 6.4-6.4z"></path>
</svg>
