<!-- Generated by IcoMoon.io -->
<svg version="1.1" xmlns="http://www.w3.org/2000/svg" width="32" height="32" viewBox="0 0 32 32">
<title>as-folder-3</title>
<path fill="#ebebeb" d="M28.8 12.801h-25.6v-8c0-0.883 0.539-1.6 1.422-1.6h5.368c0.611 0 1.168 0.347 1.437 0.896l1.818 3.71c0.538 1.098 1.651 1.794 2.874 1.794h10.904c0.883 0 1.778 0.717 1.778 1.6v1.6zM28.8 27.201c0 0.883-0.894 1.6-1.778 1.6h-22.4c-0.883 0-1.422-0.717-1.422-1.6v-11.2h25.6v11.2zM28.622 6.401h-10.822c-1.213 0-2.32-0.685-2.862-1.77l-1.43-2.861c-0.542-1.085-1.651-1.77-2.862-1.77h-7.622c-1.768 0-3.022 1.432-3.022 3.2v25.6c0 1.768 1.254 3.2 3.022 3.2h25.6c1.766 0 3.378-1.432 3.378-3.2v-19.2c0-1.768-1.611-3.2-3.378-3.2z"></path>
</svg>
