<!-- Generated by IcoMoon.io -->
<svg version="1.1" xmlns="http://www.w3.org/2000/svg" width="32" height="32" viewBox="0 0 32 32">
<title>as-file_missing-1</title>
<path fill="#ebebeb" d="M28.978 17.887h2.783v-2.84h-2.783v2.84zM17.848 29.249h2.783v-2.84h-2.783v2.84zM23.413 29.249h2.783v-2.84h-2.783v2.84zM28.978 29.249h2.783v-2.84h-2.783v2.84zM3.935 27.241l-1.967-2.008-1.967 2.008 3.89 4.063c6.045-6.171 2.66-2.715 6.763-6.904l-1.967-2.008-4.751 4.849zM3.935 3.685h2.783v-2.84h-2.783v2.84zM28.978 23.568h2.783v-2.84h-2.783v2.84zM9.5 3.685h2.783v-2.84h-2.783v2.84zM15.065 3.685h2.783v-2.84h-2.783v2.84zM3.935 9.366h2.783v-2.84h-2.783v2.84zM3.935 20.728h2.783v-2.84h-2.783v2.84zM12.282 29.249h2.783v-2.84h-2.783v2.84zM23.413 0.696h-2.543v11.362h11.13v-2.691l-8.587-8.67zM3.935 15.047h2.783v-2.841h-2.783v2.841z"></path>
</svg>
