<!-- Generated by IcoMoon.io -->
<svg version="1.1" xmlns="http://www.w3.org/2000/svg" width="32" height="32" viewBox="0 0 32 32">
<title>as-file_doc-1</title>
<path fill="#ebebeb" d="M22.367 0.001h-22.366v16h3.2v-12.8h16v9.6h9.6v3.2h3.2v-5.699l-9.634-10.301zM14.4 24.001v3.2c0 0.883 0.717 1.6 1.6 1.6s1.6-0.717 1.6-1.6v-3.2c0-0.883-0.717-1.6-1.6-1.6s-1.6 0.717-1.6 1.6zM11.2 28.801v-6.4c0-1.768 1.432-3.2 3.2-3.2h3.2c1.766 0 3.2 1.432 3.2 3.2v6.4c0 1.768-1.434 3.2-3.2 3.2h-3.2c-1.768 0-3.2-1.432-3.2-3.2zM6.4 24.169c0-0.885-0.717-1.768-1.6-1.768h-1.6v6.4h1.6c0.883 0 1.6-0.549 1.6-1.432v-3.2zM9.6 24.001v3.2c0 2.651-2.149 4.8-4.8 4.8h-4.8v-12.8h4.8c2.64 0 4.8 2.16 4.8 4.8zM28.8 19.201h3.2v3.2h-3.2c-1.768 0-3.2 1.432-3.2 3.2 0 1.766 1.432 3.2 3.2 3.2h3.2v3.2h-3.2c-3.534 0-6.4-2.866-6.4-6.4s2.866-6.4 6.4-6.4z"></path>
</svg>
