<!-- Generated by IcoMoon.io -->
<svg version="1.1" xmlns="http://www.w3.org/2000/svg" width="32" height="32" viewBox="0 0 32 32">
<title>as-file_png-</title>
<path fill="#ebebeb" d="M32 10.94v3.627c0 0.883-0.758 1.434-1.643 1.434h-0.042c-0.885 0-1.515-0.55-1.515-1.434v-1.766h-6.571c-1.768 0-3.029-1.266-3.029-3.034v-6.566h-14.571c-0.883 0-1.429 0.883-1.429 1.766v9.6c0 0.883-0.758 1.434-1.643 1.434h-0.042c-0.885 0-1.515-0.55-1.515-1.434v-11.2c0-1.766 1.261-3.366 3.029-3.366h18.48c0.438 0 0.901 0.262 1.203 0.581l8.762 9.256c0.283 0.298 0.526 0.693 0.526 1.102zM19.157 19.201c-0.006 0-0.013 0.005-0.021 0.005s-0.014-0.005-0.021-0.005h0.042zM20.8 20.968v9.6c0 0.883-0.888 1.434-1.771 1.434h-1.106c-0.302 0-0.494-0.088-0.63-0.358l-2.893-5.875v4.8c0 0.883-0.758 1.434-1.643 1.434h-0.042c-0.885 0-1.515-0.55-1.515-1.434v-9.6c0-0.883 0.546-1.766 1.429-1.766h1.106c0.302 0 0.666 0.254 0.802 0.525l3.064 6.042v-4.8c0-0.875 0.664-1.747 1.536-1.762 0.875 0.014 1.664 0.886 1.664 1.762zM30.357 25.601c-0.006 0-0.013 0.005-0.021 0.005s-0.014-0.005-0.021-0.005h0.042zM32 20.843v0.042c0 0.883-0.888 1.517-1.771 1.517h-1.429c-1.594 0-2.986 1.173-3.242 2.746-0.326 2.005 1.642 3.821 3.242 3.821v-1.6c0-0.875 0.664-1.747 1.536-1.762 0.875 0.014 1.664 0.886 1.664 1.762v3.2c0 0.883-0.888 1.434-1.771 1.434h-1.325c-3.342 0-6.328-2.445-6.645-5.771-0.365-3.818 2.627-7.029 6.37-7.029h1.6c0.883 0 1.771 0.758 1.771 1.642zM4.629 25.768h-1.6v-3.2h1.6c0.883 0 1.6 0.717 1.6 1.6s-0.717 1.6-1.6 1.6zM4.357 19.201h-2.928c-0.883 0-1.429 0.883-1.429 1.766v9.6c0 0.883 0.63 1.434 1.515 1.434h0.042c0.885 0 1.643-0.55 1.643-1.434v-1.766h1.429c2.736 0 4.938-2.29 4.794-5.059-0.136-2.595-2.466-4.541-5.066-4.541z"></path>
</svg>
