<!-- Generated by IcoMoon.io -->
<svg version="1.1" xmlns="http://www.w3.org/2000/svg" width="32" height="32" viewBox="0 0 32 32">
<title>as-file_pdf-</title>
<path fill="#ebebeb" d="M31.543 9.838l-8.728-9.256c-0.302-0.318-0.73-0.581-1.168-0.581h-18.48c-1.768 0-3.166 1.6-3.166 3.366v11.2c0 0.883 0.699 1.434 1.582 1.434h0.008c0.885 0 1.61-0.55 1.61-1.434v-9.6c0-0.883 0.683-1.766 1.566-1.766h14.434v6.566c0 1.768 1.398 3.034 3.166 3.034h6.434v1.766c0 0.883 0.699 1.434 1.582 1.434h0.008c0.885 0 1.61-0.55 1.61-1.434v-3.627c0-0.411-0.174-0.805-0.458-1.102zM6.367 24.168c0-0.883-0.717-1.6-1.6-1.6h-1.6v3.2h1.6c0.883 0 1.6-0.717 1.6-1.6zM9.561 23.742c0.144 2.768-2.058 5.059-4.794 5.059h-1.566v1.766c0 0.883-0.725 1.434-1.61 1.434h-0.008c-0.883 0-1.582-0.55-1.582-1.434v-9.6c0-0.883 0.683-1.766 1.566-1.766h2.928c2.6 0 4.93 1.946 5.066 4.541zM17.601 24.168c0-0.883-0.75-1.766-1.634-1.766h-1.566v6.4h1.566c0.883 0 1.634-0.55 1.634-1.434v-3.2zM20.801 24.002v3.2c0 2.64-2.16 4.8-4.8 4.8h-3.368c-0.792 0-1.432-0.642-1.432-1.434v-9.8c0-0.866 0.701-1.566 1.566-1.566h3.234c2.64 0 4.8 2.16 4.8 4.8zM32.001 20.843v0.042c0 0.883-0.75 1.517-1.634 1.517h-4.766v3.2h4.766c0.883 0 1.634 0.757 1.634 1.642v0.042c0 0.883-0.75 1.517-1.634 1.517h-4.766v1.766c0 0.883-0.725 1.434-1.61 1.434h-0.008c-0.883 0-1.582-0.55-1.582-1.434v-9.6c0-0.883 0.683-1.766 1.566-1.766h6.4c0.883 0 1.634 0.757 1.634 1.642z"></path>
</svg>
