<!-- Generated by IcoMoon.io -->
<svg version="1.1" xmlns="http://www.w3.org/2000/svg" width="32" height="32" viewBox="0 0 32 32">
<title>as-file_svg-</title>
<path fill="#ebebeb" d="M31.56 9.671l-8.72-9.173c-0.302-0.317-0.722-0.498-1.16-0.498h-18.48c-1.766 0-3.2 1.434-3.2 3.2v11.2c0 0.883 0.717 1.6 1.6 1.6 0.885 0 1.6-0.717 1.6-1.6v-9.6c0-0.883 0.717-1.6 1.6-1.6h14.4v6.4c0 1.768 1.434 3.2 3.2 3.2h6.4v1.6c0 0.883 0.717 1.6 1.6 1.6 0.885 0 1.6-0.717 1.6-1.6v-3.627c0-0.41-0.157-0.805-0.44-1.102zM19.001 19.2c-0.8 0-1.475 0.597-1.574 1.39l-1.027 8.21h-0.8l-1.026-8.21c-0.099-0.794-0.774-1.39-1.576-1.39-0.955 0-1.693 0.837-1.574 1.786l1.202 9.613c0.099 0.802 0.781 1.402 1.587 1.402h3.574c0.808 0 1.488-0.6 1.589-1.402l1.202-9.613c0.118-0.949-0.621-1.786-1.576-1.786zM28.971 22.4h1.429c0.885 0 1.6-0.717 1.6-1.6s-0.715-1.6-1.6-1.6h-1.6c-3.742 0-6.733 3.211-6.37 7.029 0.317 3.328 3.302 5.771 6.645 5.771h1.325c0.885 0 1.6-0.717 1.6-1.6v-3.2c0-0.883-0.715-1.6-1.6-1.6-0.883 0-1.6 0.717-1.6 1.6v1.6c-1.942 0-3.482-1.733-3.155-3.738 0.256-1.573 1.733-2.662 3.326-2.662zM3.2 23.2c0 0.442 0.358 0.8 0.8 0.8h2.434c1.749 0 3.166 1.418 3.166 3.166v1.667c0 1.749-1.418 3.166-3.166 3.166h-4.834c-0.883 0-1.6-0.717-1.6-1.6s0.717-1.6 1.6-1.6h4c0.442 0 0.8-0.358 0.8-0.8s-0.358-0.8-0.8-0.8h-2.4c-1.766 0-3.2-1.432-3.2-3.2v-1.6c0-1.766 1.434-3.2 3.2-3.2h4.8c0.885 0 1.6 0.717 1.6 1.6s-0.715 1.6-1.6 1.6h-4c-0.442 0-0.8 0.358-0.8 0.8z"></path>
</svg>
