<!-- Generated by IcoMoon.io -->
<svg version="1.1" xmlns="http://www.w3.org/2000/svg" width="32" height="32" viewBox="0 0 32 32">
<title>as-file_py-</title>
<path fill="#ebebeb" d="M6.4 24.001c0-0.883-0.717-1.6-1.6-1.6h-1.6v3.2h1.6c0.883 0 1.6-0.717 1.6-1.6zM9.594 23.743c0.144 2.768-2.058 5.058-4.794 5.058h-1.6v1.6c0 0.883-0.717 1.6-1.6 1.6s-1.6-0.717-1.6-1.6v-9.6c0-0.883 0.717-1.6 1.6-1.6h2.928c2.6 0 4.93 1.946 5.066 4.542zM19.2 19.201c-0.883 0-1.6 0.717-1.6 1.6v1.6c0 0.883-0.717 1.6-1.6 1.6s-1.6-0.717-1.6-1.6v-1.6c0-0.883-0.717-1.6-1.6-1.6s-1.6 0.717-1.6 1.6v3.2c0 1.768 1.432 3.2 3.2 3.2v3.2c0 0.883 0.717 1.6 1.6 1.6s1.6-0.717 1.6-1.6v-3.2c1.768 0 3.2-1.432 3.2-3.2v-3.2c0-0.883-0.717-1.6-1.6-1.6zM32 9.577v19.224c0 1.768-1.432 3.2-3.2 3.2h-3.2c-0.883 0-1.6-0.717-1.6-1.6s0.717-1.6 1.6-1.6h1.6c0.883 0 1.6-0.717 1.6-1.6v-14.4h-6.4c-1.768 0-3.2-1.432-3.2-3.2v-6.4h-14.4c-0.883 0-1.6 0.717-1.6 1.6v9.6c0 0.883-0.717 1.6-1.6 1.6s-1.6-0.717-1.6-1.6v-11.2c0-1.768 1.432-3.2 3.2-3.2h18.542c0.402 0 0.789 0.15 1.083 0.424l8.659 7.976c0.328 0.302 0.515 0.73 0.515 1.176z"></path>
</svg>
