<!-- Generated by IcoMoon.io -->
<svg version="1.1" xmlns="http://www.w3.org/2000/svg" width="32" height="32" viewBox="0 0 32 32">
<title>as-file_missing_love_favorite-</title>
<path fill="#ebebeb" d="M6.559 24.353c-0.102 0.132-0.306 0.135-0.409 0.003-2.842-3.644-7.844 1.051-3.231 5.386 2.973 2.796 3.449 3.175 6.776 0.091 4.823-4.471-0.337-9.092-3.135-5.479zM30.383 14.825c-0.729 0-1.321 0.598-1.321 1.335 0 0.738 0.592 1.335 1.321 1.335s1.321-0.597 1.321-1.335c0-0.737-0.592-1.335-1.321-1.335zM19.818 25.506c-0.729 0-1.321 0.598-1.321 1.335 0 0.738 0.592 1.335 1.321 1.335s1.321-0.597 1.321-1.335c0-0.737-0.592-1.335-1.321-1.335zM25.101 25.506c-0.729 0-1.321 0.598-1.321 1.335 0 0.738 0.592 1.335 1.321 1.335s1.321-0.597 1.321-1.335c0-0.737-0.592-1.335-1.321-1.335zM30.383 25.506c-0.729 0-1.321 0.598-1.321 1.335 0 0.738 0.592 1.335 1.321 1.335s1.321-0.597 1.321-1.335c0-0.737-0.592-1.335-1.321-1.335zM6.613 4.144c0.729 0 1.321-0.597 1.321-1.335 0-0.737-0.592-1.335-1.321-1.335s-1.321 0.598-1.321 1.335c0 0.738 0.592 1.335 1.321 1.335zM30.383 20.166c-0.729 0-1.321 0.598-1.321 1.335 0 0.738 0.592 1.335 1.321 1.335s1.321-0.597 1.321-1.335c0-0.737-0.592-1.335-1.321-1.335zM11.895 1.473c-0.729 0-1.321 0.598-1.321 1.335 0 0.738 0.592 1.335 1.321 1.335s1.321-0.597 1.321-1.335c0-0.737-0.592-1.335-1.321-1.335zM17.177 1.473c-0.729 0-1.321 0.598-1.321 1.335 0 0.738 0.592 1.335 1.321 1.335s1.321-0.597 1.321-1.335c0-0.737-0.592-1.335-1.321-1.335zM6.613 9.484c0.729 0 1.321-0.597 1.321-1.335 0-0.737-0.592-1.335-1.321-1.335s-1.321 0.598-1.321 1.335c0 0.738 0.592 1.335 1.321 1.335zM6.613 20.166c0.729 0 1.321-0.597 1.321-1.335 0-0.737-0.592-1.335-1.321-1.335s-1.321 0.598-1.321 1.335c0 0.738 0.592 1.335 1.321 1.335zM14.536 25.506c-0.729 0-1.321 0.598-1.321 1.335 0 0.738 0.592 1.335 1.321 1.335s1.321-0.597 1.321-1.335c0-0.737-0.592-1.335-1.321-1.335zM31.317 9.093l-7.15-7.298c-0.547-0.554-0.92-0.461-1.707-0.461-0.729 0-1.321 0.737-1.321 1.474v6.676c0 1.475 1.183 2.531 2.641 2.531h6.603c0.729 0 1.321-0.458 1.321-1.196 0-0.7 0.088-1.246-0.387-1.726zM5.292 13.49c0-0.737 0.592-1.335 1.321-1.335s1.321 0.598 1.321 1.335c0 0.738-0.592 1.335-1.321 1.335s-1.321-0.597-1.321-1.335z"></path>
</svg>
