<!-- Generated by IcoMoon.io -->
<svg version="1.1" xmlns="http://www.w3.org/2000/svg" width="32" height="32" viewBox="0 0 32 32">
<title>as-gallery_grid_view-2</title>
<path fill="#ebebeb" d="M28.8 27.2c0 0.883-0.717 1.6-1.6 1.6h-4.8c-0.883 0-1.6-0.717-1.6-1.6v-4.8c0-0.883 0.717-1.6 1.6-1.6h4.8c0.883 0 1.6 0.717 1.6 1.6v4.8zM28.8 17.6h-8c-1.768 0-3.2 1.432-3.2 3.2v8c0 1.768 1.432 3.2 3.2 3.2h8c1.768 0 3.2-1.432 3.2-3.2v-8c0-1.768-1.432-3.2-3.2-3.2zM28.8 9.6c0 0.883-0.717 1.6-1.6 1.6h-4.8c-0.883 0-1.6-0.717-1.6-1.6v-4.8c0-0.883 0.717-1.6 1.6-1.6h4.8c0.883 0 1.6 0.717 1.6 1.6v4.8zM28.8 0h-8c-1.768 0-3.2 1.432-3.2 3.2v8c0 1.768 1.432 3.2 3.2 3.2h8c1.768 0 3.2-1.432 3.2-3.2v-8c0-1.768-1.432-3.2-3.2-3.2zM11.2 27.2c0 0.883-0.717 1.6-1.6 1.6h-4.8c-0.883 0-1.6-0.717-1.6-1.6v-22.4c0-0.883 0.717-1.6 1.6-1.6h4.8c0.883 0 1.6 0.717 1.6 1.6v22.4zM11.2 0h-8c-1.768 0-3.2 1.432-3.2 3.2v25.6c0 1.768 1.432 3.2 3.2 3.2h8c1.768 0 3.2-1.432 3.2-3.2v-25.6c0-1.768-1.432-3.2-3.2-3.2z"></path>
</svg>
