<!-- Generated by IcoMoon.io -->
<svg version="1.1" xmlns="http://www.w3.org/2000/svg" width="32" height="32" viewBox="0 0 32 32">
<title>as-google_chrome-</title>
<path fill="#ebebeb" d="M9.576 13.506c1.312-3.159 4.28-4.732 6.521-4.735-0.040 0.005 0.233 0.040 14.289 0.040-4.95-9.521-14.276-8.797-14.276-8.797-9.433 0.371-13.127 7.263-13.127 7.263l6.507 6.395 0.086-0.165zM9.297 18.127c-1.875-3.255-5.344-9.164-6.314-10.851-6.336 8.985-0.61 16.857-0.61 16.857 4.872 7.731 12.186 7.853 12.659 7.853l2.111-8.763c-3.564 0.527-6.9-1.703-7.847-5.097zM30.386 8.81l-8.714 2.723c1.396 1.822 2.585 6.062-0.223 9.315-1.845 3.202-5.425 9.42-6.417 11.138 10.587 0.403 14.909-8.106 14.909-8.106 4.22-8.044 0.684-14.58 0.445-15.070zM21.988 16.221c0 3.253-2.633 5.895-5.885 5.895-3.247 0-5.885-2.642-5.885-5.895s2.633-5.895 5.885-5.895c3.247 0 5.885 2.637 5.885 5.895z"></path>
</svg>
