<!-- Generated by IcoMoon.io -->
<svg version="1.1" xmlns="http://www.w3.org/2000/svg" width="30" height="32" viewBox="0 0 30 32">
<title>as-google_wallet-</title>
<path fill="#ebebeb" d="M9.039 10.885c-2.134-1.888-3.991-2.901-4.174-3-1.598-0.862-3.594-0.298-4.463 1.283s-0.281 3.522 1.315 4.382c0.065 0.035 5.486 2.986 7.103 8.28 2.232-3.64 1.061-8.499 0.22-10.946zM27.314 1.838c-0.879-1.672-2.961-2.323-4.649-1.451-1.688 0.87-2.344 2.933-1.465 4.605 0.055 0.102 5.292 10.323-0.205 22.168-0.795 1.712-0.037 3.739 1.691 4.526 1.728 0.789 3.775 0.038 4.571-1.675 6.892-14.85 0.339-27.635 0.056-28.173zM20.533 23.939c-0.405-2.475-1.241-4.581-2.244-6.355-0.112 3.067-0.898 6.346-3.025 9.344-1.039 1.466-3.092 1.832-4.583 0.794-1.488-1.035-1.845-3.067-0.801-4.539 1.948-2.746 2.94-7.488 0.027-14.499-0.824-1.765-0.065-3.638 1.489-4.394 1.074-0.522 2.381-0.362 3.276 0.128 0.267 0.146 3.389 1.918 6.498 5.501 0.792 3.355 1.266 8.408-0.638 14.021z"></path>
</svg>
