<!-- Generated by IcoMoon.io -->
<svg version="1.1" xmlns="http://www.w3.org/2000/svg" width="32" height="32" viewBox="0 0 32 32">
<title>as-ghost-</title>
<path fill="#ebebeb" d="M28.8 15.721c0-6.833-5.742-12.526-12.8-12.526s-12.8 5.694-12.8 12.526v10.774c0 0.882 0.717 1.639 1.6 1.639s1.6-0.674 1.6-1.556c0-0.883 0.717-1.514 1.6-1.514s1.6 0.88 1.6 1.762c0 0.883 0.717 1.93 1.6 1.93h1.6c0.883 0 1.6-0.963 1.6-1.847 0-0.882 0.717-1.845 1.6-1.845s1.6 0.88 1.6 1.762c0 0.883 0.717 1.93 1.6 1.93h1.6c0.883 0 1.6-1.046 1.6-1.93 0-0.882 0.717-1.928 1.6-1.928s1.6 0.716 1.6 1.598c0 0.882 0.717 1.597 1.6 1.597s1.6-0.716 1.6-1.597v-10.774zM32 15.721v12.371c0 1.764-1.432 3.858-3.2 3.858h-1.218c-0.883 0-1.802-0.529-2.365-1.208-0.29-0.35-0.726-0.821-1.218-0.821s-0.928 0.388-1.218 0.738c-0.563 0.679-1.482 1.291-2.365 1.291h-0.835c-0.883 0-1.802-0.529-2.365-1.208-0.29-0.35-0.726-0.821-1.218-0.821s-0.928 0.388-1.218 0.738c-1.557 1.874-4.229 1.679-5.549 0.062-0.293-0.356-0.736-0.834-1.234-0.834s-0.941 0.395-1.234 0.751c-0.565 0.693-1.494 1.312-2.389 1.312h-1.178c-1.768 0-3.2-2.094-3.2-3.858v-12.371c0-8.607 7.163-15.721 16-15.721s16 7.114 16 15.721zM22.4 13.715v3.195c0 0.882 0.717 1.598 1.6 1.598s1.6-0.716 1.6-1.598v-3.195c0-0.882-0.717-1.598-1.6-1.598s-1.6 0.716-1.6 1.598zM9.6 13.715v3.195c0 0.882-0.717 1.598-1.6 1.598s-1.6-0.716-1.6-1.598v-3.195c0-0.882 0.717-1.598 1.6-1.598s1.6 0.716 1.6 1.598z"></path>
</svg>
