<!-- Generated by IcoMoon.io -->
<svg version="1.1" xmlns="http://www.w3.org/2000/svg" width="27" height="32" viewBox="0 0 27 32">
<title>as-hangouts-</title>
<path fill="#ebebeb" d="M18.248 19.587c-0.398 0.109-0.452 0.158-1.029 0.243-0.241 0.037-0.423-0.101-0.426-0.347-0.006-0.462-0.002-1.184 0-1.642 0-0.237 0.090-0.338 0.382-0.403 0.869-0.202 1.429-0.656 1.603-1.659-1.242-0.003-3.315-0.006-3.315-0.006-0.408-0.006-0.685-0.291-0.685-0.704 0-0.064 0.005-4.861 0-4.925-0.054-0.52 0.292-0.816 0.661-0.816 1.576 0 3.152 0.002 4.728-0.002 0.419 0 0.766 0.427 0.633 0.845 0.041 0.102 0.025 5.518 0.025 5.637-0.002 1.52-0.758 2.853-2.576 3.779 0.027 0.032 0.057 0.042 0.090 0.043-0.033-0.002-0.065-0.011-0.090-0.043zM8.762 19.837c-0.184 0.027-0.304-0.075-0.373-0.243 0-0.517 0.002-1.032 0.002-1.549 0.017-0.28-0.078-0.491 0.289-0.584 1.004-0.256 1.437-0.562 1.692-1.682-0.166 0-3.352 0.011-3.512-0.034-0.276-0.077-0.487-0.331-0.487-0.616-0.002-1.646 0.002-3.294 0.003-4.939-0.049-0.574 0.271-0.862 0.625-0.862 1.587 0 3.173 0.002 4.76 0 0.42-0.002 0.767 0.426 0.633 0.845 0.052 0.125 0.025 5.49 0.024 5.627-0.014 1.885-1.264 3.685-3.655 4.037zM26.988 11.288c-1.069-5.875-5.764-11.288-14.351-11.288 0 0-1.145 0.15-1.476 0.214-6.25 1.195-10.666 6.315-11.123 12.501-0.577 7.8 5.472 14.611 13.363 14.71 0.16 0.002 0.203 0.042 0.201 0.206-0.002 0.362-0.013 4.014 0.003 4.368 3.69-1.517 8.188-5.211 10.449-8.499 2.844-4.136 3.564-8.736 2.933-12.213z"></path>
</svg>
