<!-- Generated by IcoMoon.io -->
<svg version="1.1" xmlns="http://www.w3.org/2000/svg" width="32" height="32" viewBox="0 0 32 32">
<title>as-helmet-1</title>
<path fill="#ebebeb" d="M21.543 27.769c-1.081 0.518-2.295-0.24-2.295-1.446v-2.008l9.502-9.599c0.609 5.589-2.524 10.811-7.206 13.053zM12.364 12.907l8.605-8.655c1.026 0.439 1.978 1.018 2.847 1.699l-6.916 6.957h-4.536zM3.547 12.907c2.528-7.234 7.952-10.246 13.821-9.599l-9.542 9.599h-4.279zM27.813 11.095l-8.565 8.655v-4.562l6.895-6.957c0.677 0.874 1.232 1.831 1.67 2.864zM31.776 13.401c-1.091-6.685-6.451-12.079-13.097-13.176-8.919-1.473-16.777 4.464-18.435 12.682l-0.006 0.031c-0.314 1.575-0.316 3.196-0.003 4.769l1.039 5.221c0.146 0.74 0.792 1.273 1.541 1.273 0.993 0 1.737-0.913 1.543-1.892l-0.845-4.245c-0.197-0.999 0.561-1.929 1.573-1.929h9.271c0.887 0 1.684 0.721 1.684 1.613v11.5c0 1.696 1.485 3.036 3.137 2.702 0.010-0.003 0-0.005 0.011-0.006 8.133-1.662 14.055-9.539 12.587-18.542z"></path>
</svg>
