<!-- Generated by IcoMoon.io -->
<svg version="1.1" xmlns="http://www.w3.org/2000/svg" width="32" height="32" viewBox="0 0 32 32">
<title>as-helmet-</title>
<path fill="#ebebeb" d="M25.030 25.26c-1.042 1.050-2.197 1.891-3.49 2.51-1.083 0.518-2.296-0.24-2.296-1.446v-10.235c0-1.783-1.514-3.183-3.286-3.183h-12.411c2.542-7.273 8.025-10.303 14.016-9.583 5.669 0.682 10.31 5.264 11.096 10.953 0.569 4.122-0.775 8.112-3.629 10.983zM16.037 29.248c0 1.694 1.485 3.035 3.137 2.701 0.011-0.002 0.002-0.003 0.011-0.006 3.142-0.64 5.942-2.205 8.123-4.401 3.486-3.506 5.369-8.62 4.469-14.141-1.091-6.686-6.453-12.079-13.1-13.176-8.918-1.471-16.774 4.466-18.432 12.682l-0.006 0.032c-0.314 1.57-0.318 3.188-0.005 4.761l1.041 5.229c0.146 0.739 0.792 1.271 1.541 1.271 0.993 0 1.737-0.913 1.543-1.892l-0.845-4.245c-0.197-0.999 0.561-1.93 1.573-1.93h9.269c0.885 0 1.682 0.723 1.682 1.613v11.501z"></path>
</svg>
