<!-- Generated by IcoMoon.io -->
<svg version="1.1" xmlns="http://www.w3.org/2000/svg" width="32" height="32" viewBox="0 0 32 32">
<title>as-inbox_empty_round-</title>
<path fill="#ebebeb" d="M22.4 22.4v-1.6c0-0.883 0.717-1.6 1.6-1.6h4.8v8c0 0.883-0.717 1.6-1.6 1.6h-22.4c-0.883 0-1.6-0.717-1.6-1.6v-8h4.8c0.883 0 1.6 0.717 1.6 1.6v1.6c0 1.768 1.432 3.2 3.2 3.2h6.4c1.768 0 3.2-1.432 3.2-3.2zM19.2 19.2v3.2h-6.4v-3.2c0-1.768-1.432-3.2-3.2-3.2h-6.4l2.56-12.8h20.48l2.56 12.8h-6.4c-1.768 0-3.2 1.432-3.2 3.2zM32 16l-2.942-14.714c-0.15-0.749-0.806-1.286-1.57-1.286h-22.976c-0.763 0-1.419 0.538-1.57 1.286l-2.942 14.714v12.8c0 1.768 1.432 3.2 3.2 3.2h25.6c1.768 0 3.2-1.432 3.2-3.2v-12.8z"></path>
</svg>
