<!-- Generated by IcoMoon.io -->
<svg version="1.1" xmlns="http://www.w3.org/2000/svg" width="34" height="32" viewBox="0 0 34 32">
<title>as-list-</title>
<path fill="#ebebeb" d="M4.804 22.4c2.651 0 4.8 2.149 4.8 4.8s-2.149 4.8-4.8 4.8c-2.651 0-4.8-2.149-4.8-4.8s2.149-4.8 4.8-4.8zM4.804 25.6c-0.882 0-1.6 0.718-1.6 1.6s0.718 1.6 1.6 1.6c0.882 0 1.6-0.718 1.6-1.6s-0.718-1.6-1.6-1.6zM4.804-0c2.651 0 4.8 2.149 4.8 4.8s-2.149 4.8-4.8 4.8c-2.651 0-4.8-2.149-4.8-4.8s2.149-4.8 4.8-4.8zM4.804 3.2c-0.882 0-1.6 0.718-1.6 1.6s0.718 1.6 1.6 1.6c0.882 0 1.6-0.718 1.6-1.6s-0.718-1.6-1.6-1.6zM4.804 11.2c2.651 0 4.8 2.149 4.8 4.8s-2.149 4.8-4.8 4.8c-2.651 0-4.8-2.149-4.8-4.8s2.149-4.8 4.8-4.8zM4.804 14.4c-0.882 0-1.6 0.718-1.6 1.6s0.718 1.6 1.6 1.6c0.882 0 1.6-0.718 1.6-1.6s-0.718-1.6-1.6-1.6zM12.804 28.8h19.2v-3.2h-19.2v3.2zM12.804 6.4h19.2v-3.2h-19.2v3.2zM12.804 17.6h19.2v-3.2h-19.2v3.2z"></path>
</svg>
