<!-- Generated by IcoMoon.io -->
<svg version="1.1" xmlns="http://www.w3.org/2000/svg" width="32" height="32" viewBox="0 0 32 32">
<title>as-money_round-1</title>
<path fill="#ebebeb" d="M12.8 16c0-1.768 1.432-3.2 3.2-3.2s3.2 1.432 3.2 3.2c0 1.768-1.432 3.2-3.2 3.2s-3.2-1.432-3.2-3.2zM26.149 9.6c2.606 0 2.651 0.614 2.651 2.651l-2.651-2.651zM26.149 22.4l2.651-2.651c0 2.603-0.608 2.651-2.651 2.651zM3.2 19.749l2.651 2.651c-2.603 0-2.651-0.608-2.651-2.651zM5.851 9.6l-2.651 2.651c0-2.606 0.614-2.651 2.651-2.651zM21.624 9.6l6.4 6.4-6.4 6.4h-11.248l-6.4-6.4 6.4-6.4h11.248zM28.8 6.4h-25.6c-1.768 0-3.2 1.432-3.2 3.2v12.8c0 1.768 1.432 3.2 3.2 3.2h25.6c1.768 0 3.2-1.432 3.2-3.2v-12.8c0-1.768-1.432-3.2-3.2-3.2z"></path>
</svg>
