<!-- Generated by IcoMoon.io -->
<svg version="1.1" xmlns="http://www.w3.org/2000/svg" width="32" height="32" viewBox="0 0 32 32">
<title>as-magnet-</title>
<path fill="#ebebeb" d="M28.8 6.4h-3.2v-1.6c0-0.883 0.717-1.6 1.6-1.6s1.6 0.717 1.6 1.6v1.6zM28.8 16c0 17.067-25.6 17.067-25.6 0v-6.4h3.2v6.4c0 12.8 19.2 12.8 19.2 0v-6.4h3.2v6.4zM4.8 3.2c0.883 0 1.6 0.717 1.6 1.6v1.6h-3.2v-1.6c0-0.883 0.717-1.6 1.6-1.6zM28.8 0h-3.2c-1.768 0-3.2 1.432-3.2 3.2v12.8c0 8.533-12.8 8.533-12.8 0v-12.8c0-1.768-1.432-3.2-3.2-3.2h-3.2c-1.768 0-3.2 1.432-3.2 3.2v12.8c0 21.333 32 21.333 32 0v-12.8c0-1.768-1.432-3.2-3.2-3.2z"></path>
</svg>
