<!-- Generated by IcoMoon.io -->
<svg version="1.1" xmlns="http://www.w3.org/2000/svg" width="19" height="32" viewBox="0 0 19 32">
<title>as-mouse-3</title>
<path fill="#ebebeb" d="M11.2 8v6.4c0 0.883-0.717 1.6-1.6 1.6s-1.6-0.717-1.6-1.6v-6.4c0-0.883 0.717-1.6 1.6-1.6s1.6 0.717 1.6 1.6zM14.4 28.8h-9.6c-0.883 0-1.6-0.717-1.6-1.6v-22.4c0-0.883 0.717-1.6 1.6-1.6h9.6c0.883 0 1.6 0.717 1.6 1.6v22.4c0 0.883-0.717 1.6-1.6 1.6zM16 0h-12.8c-1.768 0-3.2 1.432-3.2 3.2v25.6c0 1.768 1.432 3.2 3.2 3.2h12.8c1.768 0 3.2-1.432 3.2-3.2v-25.6c0-1.768-1.432-3.2-3.2-3.2z"></path>
</svg>
