<!-- Generated by IcoMoon.io -->
<svg version="1.1" xmlns="http://www.w3.org/2000/svg" width="10" height="32" viewBox="0 0 10 32">
<title>as-menu_option-2</title>
<path fill="#ebebeb" d="M4.8 28.8c-0.882 0-1.6-0.718-1.6-1.6s0.718-1.6 1.6-1.6c0.882 0 1.6 0.718 1.6 1.6s-0.718 1.6-1.6 1.6zM4.8 22.4c-2.651 0-4.8 2.149-4.8 4.8s2.149 4.8 4.8 4.8c2.651 0 4.8-2.149 4.8-4.8s-2.149-4.8-4.8-4.8zM4.8 17.6c-0.882 0-1.6-0.718-1.6-1.6s0.718-1.6 1.6-1.6c0.882 0 1.6 0.718 1.6 1.6s-0.718 1.6-1.6 1.6zM4.8 11.2c-2.651 0-4.8 2.149-4.8 4.8s2.149 4.8 4.8 4.8c2.651 0 4.8-2.149 4.8-4.8s-2.149-4.8-4.8-4.8zM4.8 3.2c0.882 0 1.6 0.718 1.6 1.6s-0.718 1.6-1.6 1.6c-0.882 0-1.6-0.718-1.6-1.6s0.718-1.6 1.6-1.6zM4.8 9.6c2.651 0 4.8-2.149 4.8-4.8s-2.149-4.8-4.8-4.8c-2.651 0-4.8 2.149-4.8 4.8s2.149 4.8 4.8 4.8z"></path>
</svg>
