<!-- Generated by IcoMoon.io -->
<svg version="1.1" xmlns="http://www.w3.org/2000/svg" width="32" height="32" viewBox="0 0 32 32">
<title>as-music-5</title>
<path fill="#ebebeb" d="M32 3.282v15.284c0 3.61-2.715 6.776-6.234 6.868-3.872 0.1-6.992-3.328-6.518-7.375 0.326-2.795 2.462-5.145 5.165-5.642 1.608-0.297 3.133 0.025 4.387 0.768v-8.262c0-0.906-0.717-1.641-1.6-1.641h-12.8c-0.883 0-1.6 0.735-1.6 1.641v20.207c0 3.61-2.715 6.776-6.234 6.868-3.872 0.1-6.992-3.328-6.518-7.375 0.326-2.795 2.462-5.144 5.165-5.642 1.608-0.297 3.133 0.025 4.387 0.768v-16.467c0-1.813 1.434-3.282 3.2-3.282h16c1.768 0 3.2 1.469 3.2 3.282z"></path>
</svg>
