<!-- Generated by IcoMoon.io -->
<svg version="1.1" xmlns="http://www.w3.org/2000/svg" width="32" height="32" viewBox="0 0 32 32">
<title>as-message_one_point-2</title>
<path fill="#ebebeb" d="M12.8 14.546c0-1.765 1.432-3.194 3.2-3.194s3.2 1.43 3.2 3.194c0 1.765-1.432 3.194-3.2 3.194s-3.2-1.43-3.2-3.194zM28.8 22.364h-9.498c-1.147 2.168-0.656 1.318-2.59 4.527-0.173 0.259-0.413 0.366-0.586 0.366-0.17 0-0.408-0.027-0.581-0.283-0.893-1.3-0.395-0.454-2.571-4.61h-9.774v-17.57h25.6v17.57zM0 1.6v23.959h11.274c1.267 2.412 2.139 4.841 4.853 4.841 2.925 0 3.402-2.112 4.859-4.841h11.014v-23.959h-32z"></path>
</svg>
