<!-- Generated by IcoMoon.io -->
<svg version="1.1" xmlns="http://www.w3.org/2000/svg" width="32" height="32" viewBox="0 0 32 32">
<title>as-money_round-</title>
<path fill="#ebebeb" d="M3.2 6.4v-1.6c0-1.768 1.432-3.2 3.2-3.2h19.2c1.768 0 3.2 1.432 3.2 3.2v1.6c0 0.883-0.717 1.6-1.6 1.6s-1.6-0.717-1.6-1.6c0-0.883-0.717-1.6-1.6-1.6h-16c-0.883 0-1.6 0.717-1.6 1.6s-0.717 1.6-1.6 1.6c-0.883 0-1.6-0.717-1.6-1.6zM19.2 20.8c0 1.768-1.432 3.2-3.2 3.2s-3.2-1.432-3.2-3.2c0-1.768 1.432-3.2 3.2-3.2s3.2 1.432 3.2 3.2zM28.8 17.051l-2.651-2.651c2.606 0 2.651 0.614 2.651 2.651zM26.149 27.2l2.651-2.651c0 2.603-0.608 2.651-2.651 2.651zM10.376 27.2l-6.4-6.4 6.4-6.4h11.248l6.4 6.4-6.4 6.4h-11.248zM3.2 24.549l2.651 2.651c-2.603 0-2.651-0.608-2.651-2.651zM5.851 14.4l-2.651 2.651c0-2.606 0.614-2.651 2.651-2.651zM28.8 11.2h-25.6c-1.768 0-3.2 1.432-3.2 3.2v12.8c0 1.768 1.432 3.2 3.2 3.2h25.6c1.768 0 3.2-1.432 3.2-3.2v-12.8c0-1.768-1.432-3.2-3.2-3.2z"></path>
</svg>
