<!-- Generated by IcoMoon.io -->
<svg version="1.1" xmlns="http://www.w3.org/2000/svg" width="32" height="32" viewBox="0 0 32 32">
<title>as-message-2</title>
<path fill="#ebebeb" d="M19.259 0h-5.666c-7.494 0-13.296 5.074-13.582 11.71-0.275 6.406 4.376 11.771 10.477 12.65 0.858 0.123 1.597 0.666 2.019 1.421l3.493 6.221 3.491-6.219c0.424-0.755 1.165-1.299 2.021-1.422 6.102-0.88 10.752-6.243 10.477-12.65-0.286-6.637-6.088-11.71-12.73-11.71zM19.102 3.194c5.051 0 9.405 3.882 9.611 8.65 0.2 4.664-3.086 8.683-7.696 9.347-3.072 0.443-4.142 2.674-5.027 4.274-0.893-1.6-1.97-3.827-5.048-4.272-4.611-0.664-7.936-4.682-7.734-9.344 0.211-4.93 4.677-8.648 10.386-8.648h5.606z"></path>
</svg>
