<!-- Generated by IcoMoon.io -->
<svg version="1.1" xmlns="http://www.w3.org/2000/svg" width="29" height="32" viewBox="0 0 29 32">
<title>as-notebook_and_pen-</title>
<path fill="#ebebeb" d="M27.2 0c-0.883 0-1.6 0.717-1.6 1.6v1.6h3.2v-1.6c0-0.883-0.717-1.6-1.6-1.6zM25.6 30.4c0 0.883 0.717 1.6 1.6 1.6s1.6-0.717 1.6-1.6v-24h-3.2v24zM19.2 4.8c0-0.883-0.717-1.6-1.6-1.6h-9.6c-0.883 0-1.6 0.717-1.6 1.6v22.4c0 0.883 0.717 1.6 1.6 1.6h9.6c0.883 0 1.6-0.717 1.6-1.6v-22.4zM22.4 3.2v25.6c0 1.766-1.432 3.2-3.2 3.2h-12.8c-1.768 0-3.2-1.434-3.2-3.2h-1.6c-0.883 0-1.6-0.717-1.6-1.6s0.717-1.6 1.6-1.6h1.6v-3.2h-1.6c-0.883 0-1.6-0.717-1.6-1.6s0.717-1.6 1.6-1.6h1.6v-3.2h-1.6c-0.883 0-1.6-0.717-1.6-1.6s0.717-1.6 1.6-1.6h1.6v-3.2h-1.6c-0.883 0-1.6-0.717-1.6-1.6s0.717-1.6 1.6-1.6h1.6v-3.2c0-1.766 1.432-3.2 3.2-3.2h12.8c1.768 0 3.2 1.434 3.2 3.2zM16 8v16c0 0.883-0.717 1.6-1.6 1.6h-3.2c-0.883 0-1.6-0.717-1.6-1.6v-16c0-0.883 0.717-1.6 1.6-1.6h3.2c0.883 0 1.6 0.717 1.6 1.6z"></path>
</svg>
