<!-- Generated by IcoMoon.io -->
<svg version="1.1" xmlns="http://www.w3.org/2000/svg" width="32" height="32" viewBox="0 0 32 32">
<title>as-network_2_round-1</title>
<path fill="#ebebeb" d="M14.251 25.6h1.6v3.2h-1.6c-0.883 0-1.6-0.717-1.6-1.6s0.717-1.6 1.6-1.6zM19.2 25.6h7.851c0.883 0 1.6 0.717 1.6 1.6s-0.717 1.6-1.6 1.6h-7.851v-3.2zM14.251 14.4h1.6v3.2h-1.6c-0.883 0-1.6-0.717-1.6-1.6s0.717-1.6 1.6-1.6zM19.2 14.4h7.851c0.883 0 1.6 0.717 1.6 1.6s-0.717 1.6-1.6 1.6h-7.851v-3.2zM9.451 17.6c0 1.768 1.432 3.2 3.2 3.2h16c1.768 0 3.349-1.432 3.349-3.2v-3.2c0-1.768-1.581-3.2-3.349-3.2h-16c-1.768 0-3.2 1.432-3.2 3.2h-6.251v-14.4h-3.2v25.598c0 1.768 1.285 3.202 3.053 3.202h6.398c0 1.768 1.432 3.2 3.2 3.2h16c1.768 0 3.349-1.432 3.349-3.2v-3.2c0-1.768-1.581-3.2-3.349-3.2h-16c-1.768 0-3.2 1.432-3.2 3.2h-4.806c-0.88 0-1.445-0.714-1.445-1.594v-6.406h6.251z"></path>
</svg>
