<!-- Generated by IcoMoon.io -->
<svg version="1.1" xmlns="http://www.w3.org/2000/svg" width="32" height="32" viewBox="0 0 32 32">
<title>as-object_connection_round-</title>
<path fill="#ebebeb" d="M20.8 22.4c0-0.883 0.717-1.6 1.6-1.6h4.8c0.883 0 1.6 0.717 1.6 1.6v4.8c0 0.883-0.717 1.6-1.6 1.6h-4.8c-0.883 0-1.6-0.717-1.6-1.6v-4.8zM20.8 4.8c0-0.883 0.717-1.6 1.6-1.6h4.8c0.883 0 1.6 0.717 1.6 1.6v4.8c0 0.883-0.717 1.6-1.6 1.6h-4.8c-0.883 0-1.6-0.717-1.6-1.6v-4.8zM17.448 11.2c0 1.768 1.434 3.2 3.2 3.2h8c1.768 0 3.352-1.432 3.352-3.2v-8c0-1.768-1.584-3.2-3.352-3.2h-8c-1.766 0-3.048 1.432-3.048 3.2v4.8h-14.4v-8h-3.2v25.6c0 1.768 1.357 3.2 3.125 3.2h14.323c0 1.768 1.434 3.2 3.2 3.2h8c1.768 0 3.352-1.432 3.352-3.2v-8c0-1.768-1.584-3.2-3.352-3.2h-8c-1.766 0-3.048 1.432-3.048 3.2v4.8h-12.952c-0.883 0-1.448-0.717-1.448-1.6v-12.8h14.248z"></path>
</svg>
