<!-- Generated by IcoMoon.io -->
<svg version="1.1" xmlns="http://www.w3.org/2000/svg" width="32" height="32" viewBox="0 0 32 32">
<title>as-previous-1</title>
<path fill="#ebebeb" d="M27.605 16.858c-7.965 5.726-5.358 3.853-11.422 8.213-0.522 0.373-1.782 0.086-1.782-0.645v-16.426c0-0.688 1.144-1.010 1.653-0.643 5.99 4.246 3.418 2.413 11.528 8.211 0.474 0.341 0.448 0.986 0.024 1.29zM11.2 20.478c-1.867 1.459-0.64 0.534-6.112 4.578-0.533 0.382-1.888 0.094-1.888-0.653v-16.379c0-0.699 1.314-1.029 1.834-0.654 5.426 4.043 4.179 3.109 6.166 4.614v8.494zM30.4 3.2c-0.883 0-1.6 0.717-1.6 1.6v7.68l-5.939-4.267c-4.902-3.523-5.419-4.213-7.389-4.213-2.046 0-4.208 1.603-4.262 3.915-4.165-3.078-4.813-3.904-6.883-3.904-2.078 0-4.326 1.646-4.326 4.013v16.379c0 3.194 4.21 5.184 6.901 3.253l4.302-3.206c0.021 3.176 4.038 5.142 6.717 3.219 5.989-4.246 3.509-2.478 10.88-7.75v7.282c0 0.883 0.717 1.6 1.6 1.6s1.6-0.717 1.6-1.6v-22.4c0-0.883-0.717-1.6-1.6-1.6z"></path>
</svg>
