<!-- Generated by IcoMoon.io -->
<svg version="1.1" xmlns="http://www.w3.org/2000/svg" width="32" height="32" viewBox="0 0 32 32">
<title>as-profile_round-2</title>
<path fill="#ebebeb" d="M26 27.503h-19.999c-1.076 0-1.871-1.062-1.465-2.039 1.884-4.517 6.309-7.104 11.464-7.104 5.156 0 9.582 2.587 11.466 7.104 0.406 0.977-0.389 2.039-1.465 2.039zM9.777 9.218c0-3.362 2.792-6.095 6.222-6.095 3.431 0 6.222 2.734 6.222 6.095s-2.791 6.095-6.222 6.095c-3.43 0-6.222-2.734-6.222-6.095zM31.17 26.949c-1.131-5.118-4.668-8.896-9.324-10.61 2.467-1.946 3.906-5.093 3.377-8.538-0.613-3.997-4.007-7.195-8.104-7.662-5.656-0.645-10.453 3.668-10.453 9.079 0 2.88 1.363 5.446 3.487 7.121-4.657 1.714-8.193 5.492-9.325 10.61-0.411 1.861 1.12 3.602 3.063 3.602h24.216c1.944 0 3.475-1.742 3.063-3.602z"></path>
</svg>
