<!-- Generated by IcoMoon.io -->
<svg version="1.1" xmlns="http://www.w3.org/2000/svg" width="32" height="32" viewBox="0 0 32 32">
<title>as-python-</title>
<path fill="#ebebeb" d="M20.39 29.533c-0.771 0-1.395-0.627-1.395-1.403s0.624-1.401 1.395-1.401c0.771 0 1.395 0.626 1.395 1.401s-0.624 1.403-1.395 1.403zM16.115 32c8.125 0 7.618-3.542 7.618-3.542l-0.010-3.669h-7.752v-1.102h10.83c0 0 5.198 0.593 5.198-7.646s-4.536-7.948-4.536-7.948h-2.709v3.825c0 0 0.146 4.56-4.464 4.56h-7.69c0 0-4.32-0.069-4.32 4.198v7.054c0 0-0.656 4.27 7.834 4.27zM11.611 2.467c0.771 0 1.394 0.627 1.394 1.402s-0.622 1.401-1.394 1.401c-0.771 0-1.395-0.626-1.395-1.401s0.624-1.402 1.395-1.402zM15.885 0c-8.123 0-7.616 3.542-7.616 3.542l0.010 3.669h7.752v1.102h-10.832c0 0-5.198-0.593-5.198 7.646s4.538 7.949 4.538 7.949h2.707v-3.825c0 0-0.146-4.56 4.466-4.56h7.688c0 0 4.32 0.069 4.32-4.198v-7.054c0 0 0.656-4.27-7.834-4.27z"></path>
</svg>
