<!-- Generated by IcoMoon.io -->
<svg version="1.1" xmlns="http://www.w3.org/2000/svg" width="22" height="32" viewBox="0 0 22 32">
<title>as-pin_rounded_close-</title>
<path fill="#ebebeb" d="M14.594 10.419l-1.131 1.131 1.131 1.131c0.626 0.626 0.626 1.638 0 2.262-0.626 0.626-1.638 0.626-2.262 0l-1.131-1.131-1.131 1.131c-0.626 0.626-1.638 0.626-2.264 0-0.624-0.624-0.624-1.637 0-2.262l1.131-1.131-1.131-1.131c-0.624-0.626-0.624-1.638 0-2.262 0.626-0.626 1.638-0.626 2.264 0l1.131 1.131 1.131-1.131c0.624-0.626 1.637-0.626 2.262 0 0.626 0.624 0.626 1.637 0 2.262zM11.2 28.8c-2.917 0-8-11.184-8-17.6 0-4.411 3.589-8 8-8s8 3.589 8 8c0 6.416-5.085 17.6-8 17.6zM11.2 0c-6.186 0-11.2 5.014-11.2 11.2s5.014 20.8 11.2 20.8c6.186 0 11.2-14.614 11.2-20.8s-5.014-11.2-11.2-11.2z"></path>
</svg>
