<!-- Generated by IcoMoon.io -->
<svg version="1.1" xmlns="http://www.w3.org/2000/svg" width="32" height="32" viewBox="0 0 32 32">
<title>as-pac-man-</title>
<path fill="#ebebeb" d="M13.758 16.020c2.756-2.76 1.987-1.99 10.089-10.106-5.073-3.97-12.287-3.581-16.891 1.030-4.982 4.99-4.997 13.096-0.014 18.086 4.599 4.606 11.856 4.952 16.864 1.053-2.636-2.64-4.299-4.306-10.048-10.064zM18.275 16.020l10.166 10.182c-8.425 8.438-18.223 6.637-23.761 1.090-6.238-6.248-6.241-16.381-0.002-22.63 5.859-5.869 15.199-6.163 21.408-1.069 0.842 0.691 1.519 1.408 2.355 2.245l-10.166 10.182zM32 15.865c0 1.766-1.43 3.2-3.195 3.2s-3.195-1.434-3.195-3.2c0-1.768 1.43-3.2 3.195-3.2s3.195 1.432 3.195 3.2z"></path>
</svg>
