<!-- Generated by IcoMoon.io -->
<svg version="1.1" xmlns="http://www.w3.org/2000/svg" width="32" height="32" viewBox="0 0 32 32">
<title>as-profile-2</title>
<path fill="#ebebeb" d="M16 18.36c5.768 0 10.603 3.374 11.861 9.143h-23.723c1.259-5.769 6.094-9.143 11.861-9.143zM9.905 9.217c0-3.362 2.734-6.095 6.095-6.095s6.095 2.734 6.095 6.095c0 3.362-2.734 6.095-6.095 6.095s-6.095-2.734-6.095-6.095zM21.726 16.338c2.082-1.675 3.416-4.241 3.416-7.121 0-5.050-4.093-9.143-9.143-9.143s-9.143 4.093-9.143 9.143c0 2.88 1.335 5.446 3.416 7.121-5.576 2.095-9.512 7.271-9.512 14.213h30.476c0-6.941-3.936-12.117-9.512-14.213z"></path>
</svg>
