<!-- Generated by IcoMoon.io -->
<svg version="1.1" xmlns="http://www.w3.org/2000/svg" width="32" height="32" viewBox="0 0 32 32">
<title>as-rss_missing_plus_round-</title>
<path fill="#ebebeb" d="M26.684 9.148c-0.768 0-1.391 0.62-1.391 1.385v8.308c0 0.764 0.623 1.385 1.391 1.385s1.391-0.62 1.391-1.385v-8.308c0-0.764-0.623-1.385-1.391-1.385zM23.901 3.61c0.768 0 1.391 0.62 1.391 1.385s0.623 1.385 1.391 1.385c0.768 0 1.391-0.62 1.391-1.385v-1.385c0-1.53-1.245-2.915-2.783-2.915h-1.391c-0.768 0-1.391 0.692-1.391 1.458 0 0.764 0.623 1.457 1.391 1.457zM1.64 20.226c0.768 0 1.391-0.62 1.391-1.385v-8.308c0-0.764-0.623-1.385-1.391-1.385s-1.391 0.62-1.391 1.385v8.308c0 0.764 0.623 1.385 1.391 1.385zM4.423 25.765c-0.768 0-1.391-0.62-1.391-1.385s-0.623-1.385-1.391-1.385-1.391 0.62-1.391 1.385v1.385c0 1.53 1.245 2.624 2.783 2.624h1.391c0.768 0 1.391-0.547 1.391-1.311 0-0.766-0.623-1.313-1.391-1.313zM4.423 0.695h-1.391c-1.537 0-2.783 1.385-2.783 2.915v1.385c0 0.764 0.623 1.385 1.391 1.385s1.391-0.62 1.391-1.385c0-0.764 0.623-1.385 1.391-1.385s1.391-0.692 1.391-1.457c0-0.766-0.623-1.458-1.391-1.458zM29.466 25.619h-1.391v-1.239c0-0.764-0.623-1.385-1.391-1.385s-1.391 0.62-1.391 1.385v1.239h-1.391c-0.768 0-1.391 0.62-1.391 1.385 0 1.53 1.391 1.385 2.783 1.385v1.53c0 0.764 0.623 1.385 1.391 1.385s1.391-0.62 1.391-1.385v-1.53c1.391 0 2.783 0.145 2.783-1.385 0-0.764-0.623-1.385-1.391-1.385zM18.336 25.619h-8.348c-0.768 0-1.391 0.62-1.391 1.385 0 0.766 0.623 1.385 1.391 1.385h8.348c0.768 0 1.391-0.619 1.391-1.385 0-0.764-0.623-1.385-1.391-1.385zM9.988 3.464h8.348c0.768 0 1.391-0.619 1.391-1.385 0-0.764-0.623-1.385-1.391-1.385h-8.348c-0.768 0-1.391 0.62-1.391 1.385 0 0.766 0.623 1.385 1.391 1.385zM10.037 21.536c0-1.53-1.245-2.769-2.783-2.769v1.385c0 0.764 0.623 1.385 1.391 1.385h1.391zM12.8 21.465h2.783c0-4.154-4.203-8.235-8.377-8.235v2.769c2.783 0 5.594 2.696 5.594 5.465zM21.069 19.945c0.093 0.827-0.544 1.52-1.379 1.52h-1.305c0-5.539-5.614-11.007-11.179-11.007v-1.299c0-0.831 0.757-1.476 1.587-1.385 6.435 0.716 11.556 5.766 12.276 12.17z"></path>
</svg>
