<!-- Generated by IcoMoon.io -->
<svg version="1.1" xmlns="http://www.w3.org/2000/svg" width="32" height="32" viewBox="0 0 32 32">
<title>as-radio_signal-</title>
<path fill="#ebebeb" d="M18.292 13.821c-0.037-0.041-0.064-0.086-0.104-0.126l-0.006 0.005c-1.25-1.228-3.392-1.113-4.523-0.002s-1.128 3.332 0.003 4.444c0.014 0.014 0.032 0.024 0.046 0.038 0.038 0.039 0.066 0.087 0.106 0.126l0.005-0.006c1.25 1.228 3.392 1.115 4.523 0.002 1.131-1.112 1.128-3.332-0.003-4.444-0.014-0.014-0.032-0.022-0.046-0.036zM11.391 11.472l-2.262-2.225c-3.394 3.337-3.235 10.171 0.158 13.506l2.262-2.223c-2.262-2.224-2.421-6.834-0.158-9.057zM6.866 7.024l-2.262-2.223c-6.789 6.672-5.499 16.841 0.158 22.4l2.262-2.224c-4.525-4.447-4.683-13.504-0.158-17.953zM22.713 9.247l-2.262 2.225c2.262 2.223 2.421 6.834 0.158 9.057l2.262 2.223c3.394-3.335 3.235-10.169-0.158-13.506zM27.396 27.2l-2.262-2.224c4.526-4.447 4.368-13.504-0.158-17.953l2.262-2.223c5.658 5.56 6.947 15.73 0.158 22.4z"></path>
</svg>
