<!-- Generated by IcoMoon.io -->
<svg version="1.1" xmlns="http://www.w3.org/2000/svg" width="32" height="32" viewBox="0 0 32 32">
<title>as-ruler3</title>
<path fill="#ebebeb" d="M10.286 21.714c0.632 0.632 0.632 1.655 0 2.285-0.632 0.632-1.655 0.632-2.285 0-0.632-0.63-0.632-1.653 0-2.285 0.63-0.632 1.653-0.632 2.285 0zM25.142 11.428l-2.285-2.285-2.285 2.285 2.285 2.285-2.285 2.285-2.285-2.285-2.285 2.285 2.285 2.287-2.285 2.285-2.287-2.285-2.285 2.285 2.285 2.285-4.571 4.572-4.572-4.572 18.286-18.286 4.572 4.572-2.287 2.285zM29.715 6.858l-6.858-6.858-22.857 22.857 9.143 9.143 22.857-22.857-2.285-2.285z"></path>
</svg>
