<!-- Generated by IcoMoon.io -->
<svg version="1.1" xmlns="http://www.w3.org/2000/svg" width="32" height="32" viewBox="0 0 32 32">
<title>as-script-5</title>
<path fill="#ebebeb" d="M26.4 6.4v-3.2c1.765 0 3.2 1.435 3.2 3.2h-3.2zM22.4 25.6c0 1.765 0 3.2-3.2 3.2v-6.4h-9.6v-16c0-1.765 2.235-3.2 4-3.2h8.8v22.4zM16 28.8h-8.8c-1.765 0-3.2-1.435-3.2-3.2h12v3.2zM26.4 0h-12.8c-3.534 0-7.2 2.866-7.2 6.4v16h-6.4v3.2c0 3.534 3.666 6.4 7.2 6.4h12.8c3.534 0 5.6-2.866 5.6-6.4v-16h6.4v-3.2c0-3.534-2.066-6.4-5.6-6.4z"></path>
</svg>
