<!-- Generated by IcoMoon.io -->
<svg version="1.1" xmlns="http://www.w3.org/2000/svg" width="32" height="32" viewBox="0 0 32 32">
<title>as-stats-8</title>
<path fill="#ebebeb" d="M28.8 14.4h-5.939c-0.213 0-0.416 0.085-0.566 0.234l-2.242 2.243c-0.37 0.37-0.99 0.29-1.256-0.162-3.554-6.067-3.042-5.192-3.736-6.379-0.53-0.904-1.771-1.062-2.512-0.322l-0.798 0.797 0.013 0.022-3.333 3.333c-0.15 0.149-0.354 0.234-0.566 0.234h-4.664v-9.6c0-0.883 0.717-1.6 1.6-1.6h22.4c0.883 0 1.6 0.717 1.6 1.6v9.6zM28.8 27.2c0 0.883-0.717 1.6-1.6 1.6h-22.4c-0.883 0-1.6-0.717-1.6-1.6v-9.6h5.992c0.213 0 0.416-0.085 0.566-0.234l2.944-2.946c0.37-0.371 0.99-0.291 1.256 0.162 3.517 6.003 2.816 4.802 3.71 6.342 0.526 0.907 1.77 1.070 2.512 0.33l3.437-3.421c0.149-0.15 0.352-0.234 0.563-0.234h4.619v9.6zM28.8 0h-25.6c-1.768 0-3.2 1.432-3.2 3.2v25.6c0 1.766 1.432 3.2 3.2 3.2h25.6c1.768 0 3.2-1.434 3.2-3.2v-25.6c0-1.768-1.432-3.2-3.2-3.2z"></path>
</svg>
