<!-- Generated by IcoMoon.io -->
<svg version="1.1" xmlns="http://www.w3.org/2000/svg" width="32" height="32" viewBox="0 0 32 32">
<title>as-slack-</title>
<path fill="#ebebeb" d="M31.896 16.888l-0.035-0.116c-0.373-1.114-1.434-1.856-2.64-1.846-0.304 0.003-0.606 0.053-0.899 0.151l-3.142 1.069-2.029-6.063c2.96-1.017 3.022-1.038 3.022-1.038 1.261-0.427 2.315-1.756 1.891-3.246l-0.035-0.109c-0.381-1.141-1.421-1.873-2.646-1.864-0.275 0.002-0.552 0.042-0.827 0.122l-3.107 1.048-1.034-3.085c-0.237-0.71-0.736-1.283-1.402-1.616-0.397-0.198-0.821-0.298-1.258-0.295-0.293 0.003-0.586 0.053-0.869 0.148-1.411 0.48-2.198 1.981-1.789 3.422l0.037 0.127 4.768 14.243-5.957 2.026-2.018-6.029c2.032-0.698 3.757-1.291 5.251-1.804l-1.014-5.358-5.962 2.009-1.027-3.069c-0.384-1.151-1.454-1.917-2.662-1.907-0.294 0.002-0.586 0.051-0.867 0.146-1.411 0.478-2.197 1.981-1.787 3.422 0.011 0.042 0.026 0.084 0.038 0.126l1.024 3.063 3.747 11.197-3.002 1.020c-1.418 0.48-2.205 1.992-1.794 3.439 0.013 0.044 0.026 0.085 0.040 0.127 0.368 1.101 1.384 1.807 2.587 1.798v0.002c0.322-0.003 0.645-0.060 0.962-0.166l2.949-1.014 1.045 3.124c0.386 1.151 1.456 1.918 2.664 1.909 0.293-0.003 0.584-0.051 0.864-0.146 1.414-0.48 2.2-1.983 1.79-3.425-0.011-0.040-0.024-0.084-0.038-0.124l-1.054-3.151 5.95-2.045 1.064 3.18c0.384 1.149 1.454 1.915 2.662 1.907 0.294-0.003 0.586-0.053 0.866-0.146 1.411-0.478 2.197-1.983 1.773-3.478l-0.022-0.072-1.072-3.204 3.301-1.135c0 0 1.022-0.447 1.347-0.954 0.435-0.682 0.565-1.548 0.346-2.318zM5.999 15.973c-0.765 0.262-1.533 0.526-2.355 0.808-0.302 0.103-0.611 0.155-0.92 0.158-1.195 0.010-2.206-0.707-2.579-1.823-0.014-0.043-0.027-0.085-0.038-0.127-0.406-1.431 0.382-2.928 1.794-3.407l2.966-0.999 1.133 5.392z"></path>
</svg>
