<!-- Generated by IcoMoon.io -->
<svg version="1.1" xmlns="http://www.w3.org/2000/svg" width="32" height="32" viewBox="0 0 32 32">
<title>as-stairs-1</title>
<path fill="#ebebeb" d="M28.8 8c0 0.883-0.717 1.6-1.6 1.6h-4.8c-1.766 0-3.2 1.432-3.2 3.2v4.8c0 0.883-0.717 1.6-1.6 1.6h-4.8c-1.766 0-3.2 1.432-3.2 3.2v4.8c0 0.883-0.717 1.6-1.6 1.6h-3.2c-0.883 0-1.6-0.717-1.6-1.6v-22.4c0-0.883 0.717-1.6 1.6-1.6h22.4c0.883 0 1.6 0.717 1.6 1.6v3.2zM28.8 0h-25.6c-1.766 0-3.2 1.432-3.2 3.2v25.6c0 1.768 1.434 3.2 3.2 3.2h6.4c1.766 0 3.2-1.432 3.2-3.197v-4.805c0-0.883 0.715-1.598 1.598-1.598h4.802c1.768 0 3.2-1.432 3.2-3.2v-4.802c0-0.883 0.715-1.598 1.598-1.598h4.802c1.768 0 3.2-1.432 3.2-3.2v-6.4c0-1.768-1.432-3.2-3.2-3.2z"></path>
</svg>
