<!-- Generated by IcoMoon.io -->
<svg version="1.1" xmlns="http://www.w3.org/2000/svg" width="32" height="32" viewBox="0 0 32 32">
<title>as-swipe_left-</title>
<path fill="#ebebeb" d="M30.4 8.048h-3.2c-0.883 0-1.6 0.715-1.6 1.596s0.717 1.596 1.6 1.596h3.2c0.883 0 1.6-0.715 1.6-1.596s-0.717-1.596-1.6-1.596zM6.165 12.797c-0.504-0.503-0.147-1.556 0.566-1.556h8.218c0.885 0 1.6-0.715 1.6-1.596s-0.715-1.596-1.6-1.596h-8.214c-0.714 0-1.070-0.666-0.566-1.168l2.69-2.656c0.626-0.624 0.626-1.552 0-2.176-0.624-0.624-1.638-0.581-2.264 0.042l-5.088 5.098-0.57 0.581c-1.248 1.247-1.248 3.276 0 4.521l5.659 5.657c0.624 0.624 1.637 0.642 2.262 0.019 0.624-0.624 0.624-1.764 0-2.388l-2.693-2.781zM31.339 22.481l-0.531 5.678c-0.299 1.492-1.613 2.236-3.138 2.236h-7.736c-0.526 0-1.013 0.072-1.31-0.361l-3.45-6.268c-0.434-0.627-0.344-1.475 0.195-2.013 0.694-0.693 1.874-0.594 2.438 0.208l1.392 1.904v-13.56c0-0.881 0.662-1.596 1.547-1.596 1.136 0 1.547 1.031 1.547 1.596l0.011 8.052 6.909 0.635c1.531 0.508 2.442 1.911 2.125 3.49z"></path>
</svg>
