<!-- Generated by IcoMoon.io -->
<svg version="1.1" xmlns="http://www.w3.org/2000/svg" width="32" height="32" viewBox="0 0 32 32">
<title>as-sketch-</title>
<path fill="#ebebeb" d="M6.781 6.16l1.858 4.503h-4.266l2.408-4.503zM21.735 13.959h4.789l-8.766 9.639 3.978-9.639zM13.986 23.62l-9.026-9.662h5.038l3.987 9.662zM12.109 10.662l-2.040-4.945h11.595l-2.040 4.945h-7.515zM18.264 13.959l-2.397 5.81-2.398-5.81h4.795zM27.616 10.662h-4.522l1.883-4.565 2.638 4.565zM31.66 11.097l-4.566-8.269c-0.186-0.29-0.435-0.429-0.722-0.429-0.302 0-0.648 0.021-1.006 0.021h-18.664c-0.354 0-0.694-0.013-0.994-0.013-0.304 0-0.566 0.109-0.757 0.42l-4.634 8.775c-0.49 0.803-0.406 1.731 0.206 2.438l13.91 14.847c0.41 0.475 0.974 0.712 1.539 0.712 0.574 0 1.149-0.242 1.562-0.73l13.955-15.246c0.611-0.722 0.68-1.729 0.17-2.527z"></path>
</svg>
