<!-- Generated by IcoMoon.io -->
<svg version="1.1" xmlns="http://www.w3.org/2000/svg" width="34" height="32" viewBox="0 0 34 32">
<title>as-settings-</title>
<path fill="#ebebeb" d="M17.604 15.999c0 0.883-0.717 1.6-1.6 1.6s-1.6-0.717-1.6-1.6c0-0.883 0.717-1.6 1.6-1.6s1.6 0.717 1.6 1.6zM23.716 18.172c-0.709 2.67-2.869 4.83-5.539 5.539-6.080 1.613-11.498-3.805-9.885-9.885 0.709-2.67 2.869-4.83 5.539-5.539 6.080-1.613 11.498 3.805 9.885 9.885zM30.404 14.399h-2.65c-0.386 0-0.915-0.026-0.912-0.411 0.008-1.422-0.458-3.445-1.485-4.552-0.262-0.283-0.186-0.542 0.086-0.814l1.874-1.773c0.626-0.626 0.626-1.589 0-2.213-0.624-0.626-1.638-0.6-2.262 0.024l-1.874 1.886c-0.272 0.272-0.693 0.306-1.014 0.094-1.168-0.771-2.488-1.326-3.907-1.616-0.378-0.078-0.656-0.39-0.656-0.776v-2.65c0-0.883-0.717-1.6-1.6-1.6s-1.6 0.717-1.6 1.6v2.65c0 0.386-0.278 0.701-0.656 0.779-1.419 0.29-2.739 0.846-3.907 1.618-0.322 0.213-0.742 0.186-1.014-0.086l-1.874-1.874c-0.624-0.626-1.638-0.626-2.262 0-0.626 0.624-0.626 1.638 0 2.262l1.874 1.874c0.272 0.272 0.314 0.702 0.086 1.014-0.79 1.093-1.296 2.262-1.523 4.307-0.043 0.382-0.488 0.256-0.874 0.256h-2.65c-0.883 0-1.6 0.717-1.6 1.6s0.717 1.6 1.6 1.6h2.65c0.386 0 0.853 0.141 0.93 0.517 0.29 1.419 0.698 2.478 1.467 3.646 0.213 0.322 0.186 0.942-0.086 1.214l-1.874 1.973c-0.626 0.626-0.626 1.688 0 2.314 0.624 0.624 1.638 0.65 2.262 0.024l1.874-1.861c0.272-0.272 0.693-0.293 1.014-0.080 1.168 0.77 2.488 1.331 3.907 1.621 0.378 0.078 0.656 0.397 0.656 0.782v2.65c0 0.883 0.717 1.6 1.6 1.6s1.6-0.717 1.6-1.6v-2.65c0-0.386 0.278-0.701 0.656-0.779 1.419-0.29 2.739-0.848 3.907-1.618 0.322-0.213 0.742-0.186 1.014 0.086l1.874 1.874c0.624 0.626 1.638 0.626 2.262 0 0.626-0.624 0.626-1.638 0-2.262l-1.874-1.874c-0.272-0.272-0.299-0.693-0.086-1.014 0.77-1.168 1.187-1.821 1.618-3.107 0.123-0.365 0.394-1.456 0.779-1.456h2.65c0.883 0 1.6-0.717 1.6-1.6s-0.717-1.6-1.6-1.6z"></path>
</svg>
