<!-- Generated by IcoMoon.io -->
<svg version="1.1" xmlns="http://www.w3.org/2000/svg" width="32" height="32" viewBox="0 0 32 32">
<title>as-shopping_cart_close_round-</title>
<path fill="#ebebeb" d="M12.607 22.085l1.131-1.14-1.131-1.14c-0.625-0.631-0.625-1.651 0-2.28 0.625-0.63 1.638-0.63 2.261 0l1.131 1.14 1.131-1.14c0.625-0.63 1.638-0.63 2.263 0 0.624 0.629 0.624 1.65 0 2.28l-1.131 1.14 1.131 1.14c0.624 0.63 0.624 1.651 0 2.28-0.625 0.631-1.638 0.631-2.263 0l-1.131-1.14-1.131 1.14c-0.624 0.631-1.636 0.631-2.261 0-0.625-0.629-0.625-1.65 0-2.28zM24.732 26.662c-0.142 0.761-0.803 1.313-1.571 1.313h-14.292c-0.782 0-1.449-0.569-1.579-1.346l-1.91-11.553h21.525l-2.175 11.587zM30.394 11.85h-3.199l-5.635-10.131c-0.441-0.771-1.42-1.18-2.185-0.735s-1.027 1.65-0.585 2.42l4.712 8.446h-15.003l4.712-8.519c0.441-0.771 0.179-1.903-0.585-2.348s-1.743 0.037-2.185 0.808l-5.636 10.059h-3.199c-1.913 0-2.546 3.225 0.534 3.225l2.22 13.43c0.258 1.554 1.591 2.694 3.155 2.694h16.971c1.564 0 2.898-1.14 3.156-2.694l2.22-13.43c3.084 0 2.442-3.225 0.532-3.225z"></path>
</svg>
