<!-- Generated by IcoMoon.io -->
<svg version="1.1" xmlns="http://www.w3.org/2000/svg" width="29" height="32" viewBox="0 0 29 32">
<title>as-thermometer-3</title>
<path fill="#ebebeb" d="M3.2 9.6h3.2v-3.2h-3.2v3.2zM3.2 3.2h-3.2v9.6h9.6v-9.6h-6.4zM20.8 28.8c-2.646 0-4.8-2.154-4.8-4.8 0-2.083 1.342-3.842 3.2-4.504v-3.496h3.2v3.496c1.858 0.662 3.2 2.421 3.2 4.504 0 2.646-2.154 4.8-4.8 4.8zM19.2 12.8h3.2v-3.2h-3.2v3.2zM19.2 6.4h3.2v-3.2h-3.2v3.2zM25.6 17.635v-17.635h-9.6v17.635c-1.933 1.462-3.2 3.757-3.2 6.365 0 4.418 3.582 8 8 8s8-3.582 8-8c0-2.608-1.267-4.902-3.2-6.365z"></path>
</svg>
