<!-- Generated by IcoMoon.io -->
<svg version="1.1" xmlns="http://www.w3.org/2000/svg" width="32" height="32" viewBox="0 0 32 32">
<title>as-thermometer_down-1</title>
<path fill="#ebebeb" d="M0 11.669l2.392-2.262 2.316 2.069v-11.475h3.217v11.2l2.374-1.931 2.421 2.4-6.385 5.056-6.336-5.056zM23.868 28.8c-2.661 0-4.367-2.154-4.367-4.8 0-2.083 1.293-3.938 2.902-4.6v-3.4h3.217v3.494c1.608 0.664 3.145 2.422 3.145 4.506 0 2.646-2.236 4.8-4.897 4.8zM22.514 12.8h3.217v-3.2h-3.217v3.2zM22.514 6.4h3.217v-3.2h-3.217v3.2zM28.837 17.637v-17.637h-9.652v17.637c-1.609 1.459-3.29 3.755-3.29 6.363 0 4.418 3.566 8 8.008 8s8.096-3.582 8.096-8c0-2.608-1.554-4.904-3.163-6.363z"></path>
</svg>
