<!-- Generated by IcoMoon.io -->
<svg version="1.1" xmlns="http://www.w3.org/2000/svg" width="32" height="32" viewBox="0 0 32 32">
<title>as-toggle_button-</title>
<path fill="#ebebeb" d="M15.347 15.891c0-2.651 2.149-4.8 4.8-4.8s4.8 2.149 4.8 4.8c0 2.651-2.149 4.8-4.8 4.8s-4.8-2.149-4.8-4.8zM28.8 17.6c0 3.534-2.866 6.4-6.4 6.4h-12.8c-3.534 0-6.4-2.866-6.4-6.4v-3.2c0-3.534 2.866-6.4 6.4-6.4h12.8c3.534 0 6.4 2.866 6.4 6.4v3.2zM32 14.4c0-5.302-4.298-9.6-9.6-9.6h-12.8c-5.302 0-9.6 4.298-9.6 9.6v3.2c0 5.302 4.298 9.6 9.6 9.6h12.8c5.302 0 9.6-4.298 9.6-9.6v-3.2z"></path>
</svg>
