<!-- Generated by IcoMoon.io -->
<svg version="1.1" xmlns="http://www.w3.org/2000/svg" width="32" height="32" viewBox="0 0 32 32">
<title>as-tenis_round-</title>
<path fill="#ebebeb" d="M22.863 20.49l-12.111-12.111c2.624-5.688 10.333-7.078 14.761-2.65s3.038 12.137-2.65 14.761zM19.38 21.317c-5.222 0.184-9.64-4.233-9.455-9.455l9.455 9.455zM4.888 26.354c-0.596-0.596-0.596-1.56 0-2.155l4.541-4.541c0.626 0.805 1.35 1.528 2.155 2.155l-4.541 4.541c-0.596 0.594-1.56 0.594-2.155 0zM20.207 0.054c-9.178-0.858-15.893 8.623-12.381 16.896l-6.171 6.171c-1.19 1.19-1.19 3.119 0 4.309l2.156 2.155c1.19 1.19 3.119 1.19 4.309 0l6.17-6.17c7.86 3.337 17.157-2.551 16.946-11.531-0.143-6.085-4.971-11.264-11.029-11.831z"></path>
</svg>
