<!-- Generated by IcoMoon.io -->
<svg version="1.1" xmlns="http://www.w3.org/2000/svg" width="32" height="32" viewBox="0 0 32 32">
<title>as-touch_id-</title>
<path fill="#ebebeb" d="M14.393 3.233v-3.233c-5.737 0.598-11.129 4.824-13.336 9.647h3.562c1.9-3.216 5.517-5.874 9.775-6.414zM0 15.733c0 0.005 0.003 0.346 0.008 0.346h-0.008v4.737c0 0.888 0.716 1.608 1.599 1.608s1.599-0.72 1.599-1.608v-4.737h-0.008c0-0.897 0.106-1.608 0.286-3.216h-3.261c-0.13 1.608-0.216 1.981-0.216 2.87zM26.111 3.544c-2.368-1.949-5.305-3.222-8.519-3.544v3.241c2.329 0.297 4.465 1.219 6.234 2.602l2.285-2.299zM12.533 10.681c1.463-1.011 2.898-1.259 4.428-1.023l1.395-3.007c-2.987-0.762-5.788-0.058-8.084 1.756l2.261 2.274zM6.397 16.079h3.199c0-1.608 0.307-2.047 0.803-2.955l-2.314-2.304c-1.063 1.569-1.687 3.652-1.687 5.259zM9.595 19.295h-3.199c0 5.94 4.798 11.832 11.195 12.699v-3.253c-4.798-0.833-7.996-5.116-7.996-9.446zM31.985 19.208c0-3.544 0.453-8.395-3.611-13.389l-2.287 2.298c3.056 3.952 2.7 7.499 2.7 11.091 0 1.028-0.163 2.016-0.459 2.947l2.458 2.471c0.763-1.651 1.199-3.483 1.199-5.419zM20.79 28.75v3.25c3.199-0.421 6.228-2.108 8.252-4.574l-2.284-2.293c-1.444 1.876-2.77 3.203-5.968 3.618zM19.191 19.208v0.053c0 2.060 3.198 1.941 3.198-0.119 0-3.060 0.435-5.894-2.492-8.184l1.387-2.967c4.87 3.245 4.304 8.088 4.304 11.303 0 6.432-9.595 6.432-9.595 0-1.599 0-3.199-1.484-3.199-3.259 0-1.777 1.431-3.259 3.198-3.259s3.199 1.439 3.199 3.216v3.216z"></path>
</svg>
