<!-- Generated by IcoMoon.io -->
<svg version="1.1" xmlns="http://www.w3.org/2000/svg" width="32" height="32" viewBox="0 0 32 32">
<title>as-video_camera_round-</title>
<path fill="#ebebeb" d="M28.8 18.9v3.932l-3.573-2.298 3.573-1.973v0.34zM19.2 24.655c0 0.91-0.717 1.648-1.6 1.648h-12.8c-0.883 0-1.6-0.739-1.6-1.648v-6.594c0-0.91 0.717-1.648 1.6-1.648h12.8c0.883 0 1.6 0.738 1.6 1.648v6.594zM6.576 8.994c0.883 0 1.6 0.74 1.6 1.649s-0.717 1.648-1.6 1.648c-0.882 0-1.6-0.74-1.6-1.648s0.718-1.649 1.6-1.649zM14.576 5.697c1.765 0 3.2 1.479 3.2 3.297s-1.435 3.297-3.2 3.297c-1.763 0-3.2-1.479-3.2-3.297s1.437-3.297 3.2-3.297zM29.552 13.865l-7.152 4.599v-2.877c0-1.612-0.992-2.951-2.477-3.236 0.571-0.986 0.987-2.127 0.987-3.358 0-3.642-2.832-6.594-6.366-6.594-2.587 0-4.786 1.589-5.795 3.864-0.659-0.349-1.387-0.567-2.181-0.567-2.651 0-4.795 2.214-4.795 4.945 0 0.689 0.006 1.345 0.254 1.94-1.115 0.516-2.027 1.663-2.027 3.005v9.891c0 1.82 1.699 4.121 3.467 4.121h16c1.766 0 2.933-2.301 2.933-4.121v-2.876l7.152 4.599c1.067 0.686 2.448-0.104 2.448-1.398v-10.54c0-1.294-1.381-2.084-2.448-1.398z"></path>
</svg>
