<!-- Generated by IcoMoon.io -->
<svg version="1.1" xmlns="http://www.w3.org/2000/svg" width="32" height="32" viewBox="0 0 32 32">
<title>as-video_camera-</title>
<path fill="#ebebeb" d="M28.8 19.611v3.976l-3.573-2.324 3.573-1.996v0.344zM3.2 26.265v-10.004h16v10.004h-16zM6.685 8.896c0.883 0 1.6 0.747 1.6 1.667 0 0.919-0.717 1.667-1.6 1.667-0.882 0-1.6-0.749-1.6-1.667 0-0.92 0.718-1.667 1.6-1.667zM14.685 5.561c1.765 0 3.2 1.496 3.2 3.335 0 1.837-1.435 3.335-3.2 3.335-1.763 0-3.2-1.497-3.2-3.335 0-1.839 1.437-3.335 3.2-3.335zM22.4 19.171v-6.244h-2.202c0.549-1.667 0.886-2.463 0.886-3.683 0-3.683-2.866-6.844-6.4-6.844-2.586 0-4.802 1.521-5.811 3.821-0.659-0.355-1.395-0.617-2.189-0.617-2.651 0-4.8 2.566-4.8 5.329 0 0.587 0.115 0.327 0.294 1.994h-2.179v16.673h22.4v-6.244l9.6 6.244v-16.673l-9.6 6.244z"></path>
</svg>
