<!-- Generated by IcoMoon.io -->
<svg version="1.1" xmlns="http://www.w3.org/2000/svg" width="32" height="32" viewBox="0 0 32 32">
<title>as-volume_low-</title>
<path fill="#ebebeb" d="M30.4 10.085c0.883 0 1.6 0.733 1.6 1.636v9.814c0 0.903-0.717 1.636-1.6 1.636s-1.6-0.733-1.6-1.636v-9.814c0-0.903 0.717-1.636 1.6-1.636zM6.4 19.898h-1.6c-0.883 0-1.6-0.733-1.6-1.636v-3.271c0-0.903 0.717-1.636 1.6-1.636h1.6v6.542zM9.6 11.289c4.267-2.182 7.629-3.899 11.634-5.947 0.533-0.271 1.166 0.119 1.166 0.728v19.48c0 0.608-0.634 0.999-1.166 0.728-4.003-2.048-7.366-3.767-11.634-5.947v-9.042zM0 13.356v6.542c0 1.807 1.432 3.271 3.2 3.271h2.667l15.229 6.943c2.117 0.965 4.504-0.618 4.504-2.988v-22.249c0-2.463-2.562-4.042-4.691-2.893l-15.042 8.103h-2.667c-1.768 0-3.2 1.464-3.2 3.271z"></path>
</svg>
