<!-- Generated by IcoMoon.io -->
<svg version="1.1" xmlns="http://www.w3.org/2000/svg" width="32" height="32" viewBox="0 0 32 32">
<title>as-view_minus-</title>
<path fill="#ebebeb" d="M24 5.6h-1.6c-0.883 0-1.6-0.717-1.6-1.6s0.717-1.6 1.6-1.6h6.4c0.883 0 1.6 0.717 1.6 1.6s-0.717 1.6-1.6 1.6h-4.8zM19.2 20.354c0 1.766-1.432 3.2-3.2 3.2s-3.2-1.434-3.2-3.2c0-1.768 1.432-3.2 3.2-3.2s3.2 1.432 3.2 3.2zM16 26.4c-4.782 0-9.288-2.277-12.162-6.046 2.874-3.771 7.379-6.048 12.162-6.048s9.288 2.277 12.162 6.048c-2.874 3.77-7.379 6.046-12.162 6.046zM16 11.106c-6.842 0-12.802 3.725-16 9.248 3.198 5.522 9.158 9.246 16 9.246s12.802-3.725 16-9.246c-3.198-5.523-9.158-9.248-16-9.248z"></path>
</svg>
