<!-- Generated by IcoMoon.io -->
<svg version="1.1" xmlns="http://www.w3.org/2000/svg" width="32" height="32" viewBox="0 0 32 32">
<title>as-wifi_focus-1</title>
<path fill="#ebebeb" d="M19.2 0v3.2h9.6v9.6h3.2v-12.8h-12.8zM28.8 28.8h-9.6v3.2h12.8v-12.8h-3.2v9.6zM3.2 19.2h-3.2v12.8h12.8v-3.2h-9.6v-9.6zM3.2 3.2h9.6v-3.2h-12.8v12.8h3.2v-9.6zM13.966 21.904l2.262 2.264 2.262-2.264c-1.25-1.25-3.275-1.25-4.525 0zM9.44 17.379l2.264 2.262c2.494-2.494 6.555-2.494 9.050 0l2.264-2.262c-3.75-3.749-9.827-3.749-13.578 0zM25.28 15.117c-4.99-4.99-13.112-4.99-18.102 0l-2.262-2.262c6.248-6.25 16.379-6.25 22.627 0l-2.262 2.262z"></path>
</svg>
