<!-- Generated by IcoMoon.io -->
<svg version="1.1" xmlns="http://www.w3.org/2000/svg" width="32" height="32" viewBox="0 0 32 32">
<title>as-wifi-2</title>
<path fill="#ebebeb" d="M5.271 21.333v0.013c-2.912 0-5.271 2.661-5.271 5.328s2.635 5.325 5.271 5.325c2.912 0 5.27-2.659 5.27-5.325v-0.008c0-2.947-2.359-5.333-5.271-5.333zM5.271 10.667v5.333c5.27 0 10.918 5.333 10.918 10.667h5.271c0-8-8.283-16-16.188-16zM32 26.667h-5.27c0-10.667-10.918-21.333-21.459-21.333v-5.333c13.176 0 26.729 10.667 26.729 26.667z"></path>
</svg>
