<!-- Generated by IcoMoon.io -->
<svg version="1.1" xmlns="http://www.w3.org/2000/svg" width="32" height="32" viewBox="0 0 32 32">
<title>as-zoom_out-1</title>
<path fill="#ebebeb" d="M6.282 13.748h12.554v-3.055h-12.554v3.055zM30.481 28.392l-2.221 2.16-6.657-6.482 2.219-2.16 6.659 6.482zM12.559 21.463c-5.193 0-9.416-4.111-9.416-9.166 0-5.053 4.223-9.166 9.416-9.166 5.191 0 9.416 4.112 9.416 9.166 0 5.055-4.225 9.166-9.416 9.166zM12.559 0.076c-6.935 0-12.555 5.472-12.555 12.221s5.62 12.221 12.555 12.221c6.933 0 12.555-5.472 12.555-12.221s-5.621-12.221-12.555-12.221z"></path>
</svg>
