<!-- Generated by IcoMoon.io -->
<svg version="1.1" xmlns="http://www.w3.org/2000/svg" width="32" height="32" viewBox="0 0 32 32">
<title>mi-battery-high</title>
<path fill="#ebebeb" d="M20 6.667h-8c-0.8 0-1.333-0.533-1.333-1.333v-4c0-0.8 0.533-1.333 1.333-1.333h8c0.8 0 1.333 0.533 1.333 1.333v4c0 0.8-0.533 1.333-1.333 1.333zM13.333 4h5.333v-1.333h-5.333v1.333z"></path>
<path fill="#ebebeb" d="M24 32h-16c-0.8 0-1.333-0.533-1.333-1.333v-25.333c0-0.8 0.533-1.333 1.333-1.333h16c0.8 0 1.333 0.533 1.333 1.333v25.333c0 0.8-0.533 1.333-1.333 1.333zM9.333 29.333h13.333v-22.667h-13.333v22.667z"></path>
<path fill="#ebebeb" d="M8 14.667c-0.667 0-1.2-0.4-1.333-1.067-0.133-0.8 0.4-1.467 1.067-1.6l16-2.667c0.667-0.133 1.467 0.4 1.6 1.067s-0.4 1.467-1.067 1.6l-16 2.667c-0.133 0-0.133 0-0.267 0z"></path>
</svg>
