<!-- Generated by IcoMoon.io -->
<svg version="1.1" xmlns="http://www.w3.org/2000/svg" width="32" height="32" viewBox="0 0 32 32">
<title>mi-drawer</title>
<path fill="#ebebeb" d="M28 32h-24c-0.8 0-1.333-0.533-1.333-1.333v-14.667c0-0.8 0.533-1.333 1.333-1.333h24c0.8 0 1.333 0.533 1.333 1.333v14.667c0 0.8-0.533 1.333-1.333 1.333zM5.333 29.333h21.333v-12h-21.333v12z"></path>
<path fill="#ebebeb" d="M18.667 22.667h-5.333c-0.8 0-1.333-0.533-1.333-1.333s0.533-1.333 1.333-1.333h5.333c0.8 0 1.333 0.533 1.333 1.333s-0.533 1.333-1.333 1.333z"></path>
<path fill="#ebebeb" d="M28 17.333h-24c-0.8 0-1.333-0.533-1.333-1.333v-14.667c0-0.8 0.533-1.333 1.333-1.333h24c0.8 0 1.333 0.533 1.333 1.333v14.667c0 0.8-0.533 1.333-1.333 1.333zM5.333 14.667h21.333v-12h-21.333v12z"></path>
<path fill="#ebebeb" d="M18.667 8h-5.333c-0.8 0-1.333-0.533-1.333-1.333s0.533-1.333 1.333-1.333h5.333c0.8 0 1.333 0.533 1.333 1.333s-0.533 1.333-1.333 1.333z"></path>
</svg>
