<!-- Generated by IcoMoon.io -->
<svg version="1.1" xmlns="http://www.w3.org/2000/svg" width="32" height="32" viewBox="0 0 32 32">
<title>mi-folder</title>
<path fill="#ebebeb" d="M26.667 29.333h-25.333c-0.8 0-1.333-0.533-1.333-1.333v-24c0-0.8 0.533-1.333 1.333-1.333h9.333c0.8 0 1.333 0.533 1.333 1.333v1.333h14.667c0.8 0 1.333 0.533 1.333 1.333v5.333c0 0.8-0.533 1.333-1.333 1.333s-1.333-0.533-1.333-1.333v-4h-14.667c-0.8 0-1.333-0.533-1.333-1.333v-1.333h-6.667v21.333h24c0.8 0 1.333 0.533 1.333 1.333s-0.533 1.333-1.333 1.333z"></path>
<path fill="#ebebeb" d="M26.667 29.333h-25.333c-0.4 0-0.8-0.133-1.067-0.533s-0.267-0.667-0.267-1.067l4-16c0.133-0.667 0.667-1.067 1.333-1.067h25.333c0.4 0 0.8 0.133 1.067 0.533s0.267 0.667 0.267 1.067l-4 16c-0.133 0.667-0.667 1.067-1.333 1.067zM3.067 26.667h22.533l3.333-13.333h-22.533l-3.333 13.333z"></path>
</svg>
