<!-- Generated by IcoMoon.io -->
<svg version="1.1" xmlns="http://www.w3.org/2000/svg" width="32" height="32" viewBox="0 0 32 32">
<title>mi-glass</title>
<path fill="#ebebeb" d="M16 20v0c-4.533 0-8-3.6-8-8v-10.667c0-0.8 0.533-1.333 1.333-1.333h13.333c0.8 0 1.333 0.533 1.333 1.333v10.667c0 4.4-3.6 8-8 8zM10.667 2.667v9.333c0 2.933 2.4 5.333 5.333 5.333v0c2.933 0 5.333-2.4 5.333-5.333v-9.333h-10.667z"></path>
<path fill="#ebebeb" d="M20 32h-8c-0.8 0-1.333-0.533-1.333-1.333s0.533-1.333 1.333-1.333h8c0.8 0 1.333 0.533 1.333 1.333s-0.533 1.333-1.333 1.333z"></path>
<path fill="#ebebeb" d="M16 32c0 0 0 0 0 0-0.8 0-1.333-0.667-1.333-1.333v-12c0-0.667 0.667-1.333 1.333-1.333 0 0 0 0 0 0 0.8 0 1.333 0.667 1.333 1.333v12c0 0.8-0.667 1.333-1.333 1.333z"></path>
<path fill="#ebebeb" d="M22.667 9.333c0 0-0.133 0-0.133 0l-13.333-1.333c-0.667-0.133-1.2-0.667-1.2-1.467 0.133-0.667 0.667-1.2 1.467-1.2l13.333 1.333c0.667 0.133 1.333 0.667 1.2 1.467-0.133 0.667-0.667 1.2-1.333 1.2z"></path>
</svg>
