<!-- Generated by IcoMoon.io -->
<svg version="1.1" xmlns="http://www.w3.org/2000/svg" width="32" height="32" viewBox="0 0 32 32">
<title>mi-grid</title>
<path fill="#ebebeb" d="M13.333 14.667h-12c-0.8 0-1.333-0.533-1.333-1.333v-12c0-0.8 0.533-1.333 1.333-1.333h12c0.8 0 1.333 0.533 1.333 1.333v12c0 0.8-0.533 1.333-1.333 1.333zM2.667 12h9.333v-9.333h-9.333v9.333z"></path>
<path fill="#ebebeb" d="M30.667 14.667h-12c-0.8 0-1.333-0.533-1.333-1.333v-12c0-0.8 0.533-1.333 1.333-1.333h12c0.8 0 1.333 0.533 1.333 1.333v12c0 0.8-0.533 1.333-1.333 1.333zM20 12h9.333v-9.333h-9.333v9.333z"></path>
<path fill="#ebebeb" d="M13.333 32h-12c-0.8 0-1.333-0.533-1.333-1.333v-12c0-0.8 0.533-1.333 1.333-1.333h12c0.8 0 1.333 0.533 1.333 1.333v12c0 0.8-0.533 1.333-1.333 1.333zM2.667 29.333h9.333v-9.333h-9.333v9.333z"></path>
<path fill="#ebebeb" d="M30.667 32h-12c-0.8 0-1.333-0.533-1.333-1.333v-12c0-0.8 0.533-1.333 1.333-1.333h12c0.8 0 1.333 0.533 1.333 1.333v12c0 0.8-0.533 1.333-1.333 1.333zM20 29.333h9.333v-9.333h-9.333v9.333z"></path>
</svg>
