<!-- Generated by IcoMoon.io -->
<svg version="1.1" xmlns="http://www.w3.org/2000/svg" width="32" height="32" viewBox="0 0 32 32">
<title>mi-home</title>
<path fill="#ebebeb" d="M25.333 32h-18.667c-0.8 0-1.333-0.533-1.333-1.333v-12h-4c-0.533 0-1.067-0.267-1.2-0.8-0.267-0.533-0.133-1.067 0.267-1.467l14.667-16c0.533-0.533 1.467-0.533 2 0l14.667 16c0.4 0.4 0.4 0.933 0.267 1.467-0.267 0.533-0.8 0.8-1.333 0.8h-4v12c0 0.8-0.533 1.333-1.333 1.333zM8 29.333h16v-12c0-0.8 0.533-1.333 1.333-1.333h2.267l-11.6-12.667-11.6 12.667h2.267c0.8 0 1.333 0.533 1.333 1.333v12z"></path>
<path fill="#ebebeb" d="M18.667 32h-5.333c-0.8 0-1.333-0.533-1.333-1.333v-8c0-0.8 0.533-1.333 1.333-1.333h5.333c0.8 0 1.333 0.533 1.333 1.333v8c0 0.8-0.533 1.333-1.333 1.333zM14.667 29.333h2.667v-5.333h-2.667v5.333z"></path>
<path fill="#ebebeb" d="M16 17.333c-2.267 0-4-1.733-4-4s1.733-4 4-4 4 1.733 4 4-1.733 4-4 4zM16 12c-0.8 0-1.333 0.533-1.333 1.333s0.533 1.333 1.333 1.333 1.333-0.533 1.333-1.333-0.533-1.333-1.333-1.333z"></path>
</svg>
