<!-- Generated by IcoMoon.io -->
<svg version="1.1" xmlns="http://www.w3.org/2000/svg" width="32" height="32" viewBox="0 0 32 32">
<title>mi-map</title>
<path fill="#ebebeb" d="M22.667 32c-0.267 0-0.533-0.133-0.8-0.267-0.267-0.267-0.533-0.667-0.533-1.067v-26.667c0-0.533 0.267-1.067 0.8-1.2l6.667-2.667c0.4-0.133 0.933-0.133 1.2 0.133 0.4 0.267 0.667 0.667 0.667 1.067v26.667c0 0.533-0.267 1.067-0.8 1.2l-6.667 2.667c-0.133 0.133-0.4 0.133-0.533 0.133zM24 4.933v23.733l4-1.6v-23.733l-4 1.6z"></path>
<path fill="#ebebeb" d="M9.333 32c-0.267 0-0.533-0.133-0.8-0.267-0.267-0.267-0.533-0.667-0.533-1.067v-26.667c0-0.533 0.267-1.067 0.8-1.2l6.667-2.667c0.4-0.133 0.933-0.133 1.2 0.133s0.667 0.667 0.667 1.067v26.667c0 0.533-0.267 1.067-0.8 1.2l-6.667 2.667c-0.133 0.133-0.4 0.133-0.533 0.133zM10.667 4.933v23.733l4-1.6v-23.733l-4 1.6z"></path>
<path fill="#ebebeb" d="M22.667 32c-0.133 0-0.4 0-0.533-0.133l-6.667-2.667c-0.533-0.133-0.8-0.667-0.8-1.2v-26.667c0-0.4 0.267-0.8 0.533-1.067s0.8-0.267 1.2-0.133l6.667 2.667c0.667 0.133 0.933 0.667 0.933 1.2v26.667c0 0.4-0.267 0.8-0.533 1.067-0.267 0.133-0.533 0.267-0.8 0.267zM17.333 27.067l4 1.6v-23.733l-4-1.6v23.733z"></path>
<path fill="#ebebeb" d="M9.333 32c-0.133 0-0.4 0-0.533-0.133l-6.667-2.667c-0.533-0.133-0.8-0.667-0.8-1.2v-26.667c0-0.4 0.267-0.8 0.533-1.067 0.4-0.267 0.933-0.4 1.333-0.133l6.667 2.667c0.533 0.133 0.8 0.667 0.8 1.2v26.667c0 0.4-0.267 0.8-0.533 1.067-0.267 0.133-0.533 0.267-0.8 0.267zM4 27.067l4 1.6v-23.733l-4-1.6v23.733z"></path>
</svg>
