<!-- Generated by IcoMoon.io -->
<svg version="1.1" xmlns="http://www.w3.org/2000/svg" width="32" height="32" viewBox="0 0 32 32">
<title>mi-mouse</title>
<path fill="#ebebeb" d="M16 32c-5.467 0-12-2.8-12-16 0-7.867 0-16 12-16s12 8.133 12 16c0 13.2-6.533 16-12 16zM16 2.667c-9.333 0-9.333 5.067-9.333 13.333 0 3.333 0 13.333 9.333 13.333s9.333-10 9.333-13.333c0-8.267 0-13.333-9.333-13.333z"></path>
<path fill="#ebebeb" d="M16 13.333c-0.8 0-1.333-0.533-1.333-1.333v-10.667c0-0.8 0.533-1.333 1.333-1.333s1.333 0.533 1.333 1.333v10.667c0 0.8-0.533 1.333-1.333 1.333z"></path>
<path fill="#ebebeb" d="M16 13.333c-3.733 0-7.2-0.267-10.533-0.933-0.667-0.133-1.2-0.8-1.067-1.6s0.8-1.2 1.6-1.067c3.067 0.667 6.533 0.933 10 0.933s6.933-0.267 10-0.933c0.667-0.133 1.467 0.4 1.6 1.067s-0.4 1.467-1.067 1.6c-3.333 0.667-6.8 0.933-10.533 0.933z"></path>
</svg>
