<!-- Generated by IcoMoon.io -->
<svg version="1.1" xmlns="http://www.w3.org/2000/svg" width="32" height="32" viewBox="0 0 32 32">
<title>mi-new-file</title>
<path fill="#ebebeb" d="M26.667 10.667h-8c-0.8 0-1.333-0.533-1.333-1.333v-8h2.667v6.667h6.667v2.667z"></path>
<path fill="#ebebeb" d="M26.667 32h-21.333c-0.8 0-1.333-0.533-1.333-1.333v-29.333c0-0.8 0.533-1.333 1.333-1.333h13.333c0.4 0 0.667 0.133 0.933 0.4l8 8c0.267 0.267 0.4 0.533 0.4 0.933v21.333c0 0.8-0.533 1.333-1.333 1.333zM6.667 29.333h18.667v-19.467l-7.2-7.2h-11.467v26.667z"></path>
</svg>
