<!-- Generated by IcoMoon.io -->
<svg version="1.1" xmlns="http://www.w3.org/2000/svg" width="32" height="32" viewBox="0 0 32 32">
<title>mi-projector</title>
<path fill="#ebebeb" d="M22.667 29.333h-21.333c-0.8 0-1.333-0.533-1.333-1.333v-16c0-0.8 0.533-1.333 1.333-1.333h21.333c0.8 0 1.333 0.533 1.333 1.333v3.467l6.267-2.133c0.4-0.133 0.8-0.133 1.2 0.133s0.533 0.8 0.533 1.2v10.667c0 0.4-0.267 0.8-0.533 1.067-0.4 0.267-0.8 0.267-1.2 0.133l-6.267-2v3.467c0 0.8-0.533 1.333-1.333 1.333zM2.667 26.667h18.667v-4c0-0.4 0.267-0.8 0.533-1.067 0.4-0.267 0.8-0.267 1.2-0.133l6.267 2.133v-6.933l-6.267 2.133c-0.4 0.133-0.8 0.133-1.2-0.133-0.267-0.533-0.533-0.933-0.533-1.333v-4h-18.667v13.333z"></path>
<path fill="#ebebeb" d="M8 13.333c-2.933 0-5.333-2.4-5.333-5.333s2.4-5.333 5.333-5.333 5.333 2.4 5.333 5.333-2.4 5.333-5.333 5.333zM8 5.333c-1.467 0-2.667 1.2-2.667 2.667s1.2 2.667 2.667 2.667 2.667-1.2 2.667-2.667-1.2-2.667-2.667-2.667z"></path>
<path fill="#ebebeb" d="M16 13.333c-2.933 0-5.333-2.4-5.333-5.333s2.4-5.333 5.333-5.333 5.333 2.4 5.333 5.333-2.4 5.333-5.333 5.333zM16 5.333c-1.467 0-2.667 1.2-2.667 2.667s1.2 2.667 2.667 2.667 2.667-1.2 2.667-2.667-1.2-2.667-2.667-2.667z"></path>
<path fill="#ebebeb" d="M16 21.333h-8c-0.8 0-1.333-0.533-1.333-1.333s0.533-1.333 1.333-1.333h8c0.8 0 1.333 0.533 1.333 1.333s-0.533 1.333-1.333 1.333z"></path>
</svg>
