<!-- Generated by IcoMoon.io -->
<svg version="1.1" xmlns="http://www.w3.org/2000/svg" width="32" height="32" viewBox="0 0 32 32">
<title>mi-question</title>
<path fill="#ebebeb" d="M16 32c-8.8 0-16-7.2-16-16s7.2-16 16-16 16 7.2 16 16-7.2 16-16 16zM16 2.667c-7.333 0-13.333 6-13.333 13.333s6 13.333 13.333 13.333 13.333-6 13.333-13.333-6-13.333-13.333-13.333z"></path>
<path fill="#ebebeb" d="M16 21.333c-0.8 0-1.333-0.533-1.333-1.333v-0.933c0-2 1.067-3.733 2.667-4.667 1.067-0.533 1.6-1.733 1.333-2.8-0.133-1.067-1.067-2-2.133-2.133-0.8-0.133-1.6 0-2.267 0.533-0.533 0.4-0.933 1.2-0.933 2s-0.533 1.333-1.333 1.333-1.333-0.533-1.333-1.333c0-1.6 0.667-3.067 1.867-4.133s2.8-1.467 4.4-1.2c2.133 0.4 3.867 2.133 4.267 4.267 0.4 2.267-0.667 4.533-2.667 5.6-0.8 0.4-1.2 1.333-1.2 2.4v1.067c0 0.8-0.533 1.333-1.333 1.333z"></path>
<path fill="#ebebeb" d="M17.333 24c0 0.736-0.597 1.333-1.333 1.333s-1.333-0.597-1.333-1.333c0-0.736 0.597-1.333 1.333-1.333s1.333 0.597 1.333 1.333z"></path>
<path fill="#ebebeb" d="M16 26c-1.067 0-2-0.933-2-2s0.933-2 2-2 2 0.933 2 2-0.933 2-2 2zM16 23.333c-0.4 0-0.667 0.267-0.667 0.667s0.267 0.667 0.667 0.667 0.667-0.267 0.667-0.667-0.267-0.667-0.667-0.667z"></path>
</svg>
