<!-- Generated by IcoMoon.io -->
<svg version="1.1" xmlns="http://www.w3.org/2000/svg" width="32" height="32" viewBox="0 0 32 32">
<title>mi-selection</title>
<path fill="#ebebeb" d="M30.667 20c-0.8 0-1.333-0.533-1.333-1.333v-6.667c0-0.8 0.533-1.333 1.333-1.333s1.333 0.533 1.333 1.333v6.667c0 0.8-0.533 1.333-1.333 1.333z"></path>
<path fill="#ebebeb" d="M18.667 32h-6.667c-0.8 0-1.333-0.533-1.333-1.333s0.533-1.333 1.333-1.333h6.667c0.8 0 1.333 0.533 1.333 1.333s-0.533 1.333-1.333 1.333z"></path>
<path fill="#ebebeb" d="M1.333 20c-0.8 0-1.333-0.533-1.333-1.333v-6.667c0-0.8 0.533-1.333 1.333-1.333s1.333 0.533 1.333 1.333v6.667c0 0.8-0.533 1.333-1.333 1.333z"></path>
<path fill="#ebebeb" d="M30.667 8c-0.8 0-1.333-0.533-1.333-1.333v-1.333c0-1.467-1.2-2.667-2.667-2.667h-2.667c-0.8 0-1.333-0.533-1.333-1.333s0.533-1.333 1.333-1.333h2.667c2.933 0 5.333 2.4 5.333 5.333v1.333c0 0.8-0.533 1.333-1.333 1.333z"></path>
<path fill="#ebebeb" d="M1.333 8c-0.8 0-1.333-0.533-1.333-1.333v-1.333c0-2.933 2.4-5.333 5.333-5.333h1.333c0.8 0 1.333 0.533 1.333 1.333s-0.533 1.333-1.333 1.333h-1.333c-1.467 0-2.667 1.2-2.667 2.667v1.333c0 0.8-0.533 1.333-1.333 1.333z"></path>
<path fill="#ebebeb" d="M18.667 2.667h-6.667c-0.8 0-1.333-0.533-1.333-1.333s0.533-1.333 1.333-1.333h6.667c0.8 0 1.333 0.533 1.333 1.333s-0.533 1.333-1.333 1.333z"></path>
<path fill="#ebebeb" d="M6.667 32h-1.333c-2.933 0-5.333-2.4-5.333-5.333v-2.667c0-0.8 0.533-1.333 1.333-1.333s1.333 0.533 1.333 1.333v2.667c0 1.467 1.2 2.667 2.667 2.667h1.333c0.8 0 1.333 0.533 1.333 1.333s-0.533 1.333-1.333 1.333z"></path>
<path fill="#ebebeb" d="M26.667 32h-2.667c-0.8 0-1.333-0.533-1.333-1.333s0.533-1.333 1.333-1.333h2.667c1.467 0 2.667-1.2 2.667-2.667v-2.667c0-0.8 0.533-1.333 1.333-1.333s1.333 0.533 1.333 1.333v2.667c0 2.933-2.4 5.333-5.333 5.333z"></path>
</svg>
