<!-- Generated by IcoMoon.io -->
<svg version="1.1" xmlns="http://www.w3.org/2000/svg" width="32" height="32" viewBox="0 0 32 32">
<title>mi-shapes</title>
<path fill="#ebebeb" d="M21.333 32c0 0 0 0 0 0h-16c-0.533 0-0.933-0.267-1.2-0.667s-0.267-0.933 0-1.333l8-12c0.533-0.8 1.733-0.8 2.267 0l7.867 11.867c0.267 0.267 0.4 0.533 0.4 0.933 0 0.667-0.533 1.2-1.333 1.2zM7.867 29.333h11.067l-5.6-8.267-5.467 8.267z"></path>
<path fill="#ebebeb" d="M30.667 22.667h-10.667c-0.8 0-1.333-0.533-1.333-1.333v-10.667c0-0.8 0.533-1.333 1.333-1.333h10.667c0.8 0 1.333 0.533 1.333 1.333v10.667c0 0.8-0.533 1.333-1.333 1.333zM21.333 20h8v-8h-8v8z"></path>
<path fill="#ebebeb" d="M8.667 17.333c-4.8 0-8.667-3.867-8.667-8.667s3.867-8.667 8.667-8.667 8.667 3.867 8.667 8.667-3.867 8.667-8.667 8.667zM8.667 2.667c-3.333 0-6 2.667-6 6s2.667 6 6 6 6-2.667 6-6-2.667-6-6-6z"></path>
</svg>
