<!-- Generated by IcoMoon.io -->
<svg version="1.1" xmlns="http://www.w3.org/2000/svg" width="32" height="32" viewBox="0 0 32 32">
<title>mi-sad</title>
<path fill="#ebebeb" d="M16 32c-8.8 0-16-7.2-16-16s7.2-16 16-16 16 7.2 16 16-7.2 16-16 16zM16 2.667c-7.333 0-13.333 6-13.333 13.333s6 13.333 13.333 13.333 13.333-6 13.333-13.333-6-13.333-13.333-13.333z"></path>
<path fill="#ebebeb" d="M9.333 17.333c-2.267 0-4-1.733-4-4s1.733-4 4-4 4 1.733 4 4-1.733 4-4 4zM9.333 12c-0.8 0-1.333 0.533-1.333 1.333s0.533 1.333 1.333 1.333 1.333-0.533 1.333-1.333-0.533-1.333-1.333-1.333z"></path>
<path fill="#ebebeb" d="M22.667 17.333c-2.267 0-4-1.733-4-4s1.733-4 4-4 4 1.733 4 4-1.733 4-4 4zM22.667 12c-0.8 0-1.333 0.533-1.333 1.333s0.533 1.333 1.333 1.333 1.333-0.533 1.333-1.333-0.533-1.333-1.333-1.333z"></path>
<path fill="#ebebeb" d="M21.867 25.333c-0.267 0-0.533-0.133-0.8-0.267-1.467-1.2-3.2-1.733-5.067-1.733s-3.6 0.667-5.067 1.733c-0.533 0.4-1.467 0.4-1.867-0.133s-0.4-1.467 0.133-1.867c1.867-1.6 4.267-2.4 6.667-2.4s4.8 0.8 6.667 2.4c0.533 0.4 0.667 1.333 0.133 1.867 0 0.267-0.4 0.4-0.8 0.4z"></path>
</svg>
