<!-- Generated by IcoMoon.io -->
<svg version="1.1" xmlns="http://www.w3.org/2000/svg" width="32" height="32" viewBox="0 0 32 32">
<title>mi-scales</title>
<path fill="#ebebeb" d="M5.333 21.333c-2.933 0-5.333-2.4-5.333-5.333 0-2.4 3.467-10.8 4.133-12.533 0.133-0.533 0.667-0.8 1.2-0.8s1.067 0.267 1.2 0.8c0.667 1.733 4.133 10.133 4.133 12.533 0 2.933-2.4 5.333-5.333 5.333zM5.333 7.6c-1.333 3.6-2.667 7.333-2.667 8.4 0 1.467 1.2 2.667 2.667 2.667s2.667-1.2 2.667-2.667c0-1.067-1.333-4.8-2.667-8.4z"></path>
<path fill="#ebebeb" d="M26.667 21.333c-2.933 0-5.333-2.4-5.333-5.333 0-2.4 3.467-10.8 4.133-12.533 0.133-0.533 0.667-0.8 1.2-0.8s1.067 0.267 1.2 0.8c0.667 1.733 4.133 10.133 4.133 12.533 0 2.933-2.4 5.333-5.333 5.333zM26.667 7.6c-1.333 3.467-2.667 7.333-2.667 8.4 0 1.467 1.2 2.667 2.667 2.667s2.667-1.2 2.667-2.667c0-1.067-1.333-4.8-2.667-8.4z"></path>
<path fill="#ebebeb" d="M26.667 5.333h-21.333c-0.8 0-1.333-0.533-1.333-1.333s0.533-1.333 1.333-1.333h21.333c0.8 0 1.333 0.533 1.333 1.333s-0.533 1.333-1.333 1.333z"></path>
<path fill="#ebebeb" d="M16 29.333c-0.8 0-1.333-0.533-1.333-1.333v-24c0-0.8 0.533-1.333 1.333-1.333s1.333 0.533 1.333 1.333v24c0 0.8-0.533 1.333-1.333 1.333z"></path>
<path fill="#ebebeb" d="M24 29.333h-16c-0.8 0-1.333-0.533-1.333-1.333s0.533-1.333 1.333-1.333h16c0.8 0 1.333 0.533 1.333 1.333s-0.533 1.333-1.333 1.333z"></path>
<path fill="#ebebeb" d="M9.333 17.333h-8c-0.8 0-1.333-0.533-1.333-1.333s0.533-1.333 1.333-1.333h8c0.8 0 1.333 0.533 1.333 1.333s-0.533 1.333-1.333 1.333z"></path>
<path fill="#ebebeb" d="M30.667 17.333h-8c-0.8 0-1.333-0.533-1.333-1.333s0.533-1.333 1.333-1.333h8c0.8 0 1.333 0.533 1.333 1.333s-0.533 1.333-1.333 1.333z"></path>
</svg>
