<!-- Generated by IcoMoon.io -->
<svg version="1.1" xmlns="http://www.w3.org/2000/svg" width="32" height="32" viewBox="0 0 32 32">
<title>mt-access_alarm</title>
<path fill="#ebebeb" d="M29.333 7.627l-6.133-5.147-1.72 2.040 6.133 5.147 1.72-2.040zM10.507 4.52l-1.707-2.040-6.133 5.133 1.72 2.040 6.12-5.133zM16.667 10.667h-2v8l6.333 3.8 1-1.64-5.333-3.16v-7zM16 5.333c-6.627 0-12 5.373-12 12s5.36 12 12 12c6.627 0 12-5.373 12-12s-5.373-12-12-12v0zM16 26.667c-5.16 0-9.333-4.173-9.333-9.333s4.173-9.333 9.333-9.333c5.16 0 9.333 4.173 9.333 9.333s-4.173 9.333-9.333 9.333v0z"></path>
</svg>
