<!-- Generated by IcoMoon.io -->
<svg version="1.1" xmlns="http://www.w3.org/2000/svg" width="32" height="32" viewBox="0 0 32 32">
<title>mt-add_a_photo</title>
<path fill="#ebebeb" d="M4 5.333v-4h2.667v4h4v2.667h-4v4h-2.667v-4h-4v-2.667h4zM8 13.333v-4h4v-4h9.333l2.44 2.667h4.227c1.467 0 2.667 1.2 2.667 2.667v16c0 1.467-1.2 2.667-2.667 2.667h-21.333c-1.467 0-2.667-1.2-2.667-2.667v-13.333h4zM17.333 25.333c3.68 0 6.667-2.987 6.667-6.667s-2.987-6.667-6.667-6.667c-3.68 0-6.667 2.987-6.667 6.667s2.987 6.667 6.667 6.667v0zM13.067 18.667c0 2.36 1.907 4.267 4.267 4.267s4.267-1.907 4.267-4.267c0-2.36-1.907-4.267-4.267-4.267s-4.267 1.907-4.267 4.267v0z"></path>
</svg>
