<!-- Generated by IcoMoon.io -->
<svg version="1.1" xmlns="http://www.w3.org/2000/svg" width="32" height="32" viewBox="0 0 32 32">
<title>mt-add_alert</title>
<path fill="#ebebeb" d="M13.347 28.013c0 1.467 1.187 2.653 2.653 2.653s2.653-1.187 2.653-2.653h-5.307zM25.173 22.427v-7.76c0-4.333-3-7.96-7.053-8.92v-0.96c0-1.173-0.947-2.12-2.12-2.12s-2.12 0.947-2.12 2.12v0.96c-4.053 0.96-7.053 4.587-7.053 8.92v7.76l-2.827 2.827v1.413h24v-1.413l-2.827-2.827zM21.333 17.347h-4v4h-2.667v-4h-4v-2.68h4v-4h2.667v4h4v2.68z"></path>
</svg>
