<!-- Generated by IcoMoon.io -->
<svg version="1.1" xmlns="http://www.w3.org/2000/svg" width="32" height="32" viewBox="0 0 32 32">
<title>mt-attach_money</title>
<path fill="#ebebeb" d="M15.733 14.533c-3.027-0.787-4-1.6-4-2.867 0-1.453 1.347-2.467 3.6-2.467 2.373 0 3.253 1.133 3.333 2.8h2.947c-0.093-2.293-1.493-4.4-4.28-5.080v-2.92h-4v2.88c-2.587 0.56-4.667 2.24-4.667 4.813 0 3.080 2.547 4.613 6.267 5.507 3.333 0.8 4 1.973 4 3.213 0 0.92-0.653 2.387-3.6 2.387-2.747 0-3.827-1.227-3.973-2.8h-2.933c0.16 2.92 2.347 4.56 4.907 5.107v2.893h4v-2.867c2.6-0.493 4.667-2 4.667-4.733 0-3.787-3.24-5.080-6.267-5.867v0z"></path>
</svg>
