<!-- Generated by IcoMoon.io -->
<svg version="1.1" xmlns="http://www.w3.org/2000/svg" width="32" height="32" viewBox="0 0 32 32">
<title>mt-all_out</title>
<path fill="#ebebeb" d="M21.613 5.547l5.333 5.333v-5.333h-5.333zM26.947 21.547l-5.333 5.333h5.333v-5.333zM10.947 26.88l-5.333-5.333v5.333h5.333zM5.613 10.88l5.333-5.333h-5.333v5.333zM22.88 9.613c-3.64-3.64-9.56-3.64-13.2 0s-3.64 9.56 0 13.2c3.64 3.64 9.56 3.64 13.2 0s3.64-9.547 0-13.2v0zM21.413 21.347c-2.84 2.84-7.427 2.84-10.267 0s-2.84-7.427 0-10.267c2.84-2.84 7.427-2.84 10.267 0s2.84 7.427 0 10.267v0z"></path>
</svg>
