<!-- Generated by IcoMoon.io -->
<svg version="1.1" xmlns="http://www.w3.org/2000/svg" width="32" height="32" viewBox="0 0 32 32">
<title>mt-assignment_late</title>
<path fill="#ebebeb" d="M25.333 4h-5.573c-0.56-1.547-2.027-2.667-3.76-2.667s-3.2 1.12-3.76 2.667h-5.573c-1.467 0-2.667 1.2-2.667 2.667v18.667c0 1.467 1.2 2.667 2.667 2.667h18.667c1.467 0 2.667-1.2 2.667-2.667v-18.667c0-1.467-1.2-2.667-2.667-2.667v0zM17.333 24h-2.667v-2.667h2.667v2.667zM17.333 18.667h-2.667v-8h2.667v8zM16 6.667c-0.733 0-1.333-0.6-1.333-1.333s0.6-1.333 1.333-1.333c0.733 0 1.333 0.6 1.333 1.333s-0.6 1.333-1.333 1.333v0z"></path>
</svg>
