<!-- Generated by IcoMoon.io -->
<svg version="1.1" xmlns="http://www.w3.org/2000/svg" width="32" height="32" viewBox="0 0 32 32">
<title>mt-attachment</title>
<path fill="#ebebeb" d="M2.667 16.667c0-4.053 3.28-7.333 7.333-7.333h14c2.947 0 5.333 2.387 5.333 5.333s-2.387 5.333-5.333 5.333h-11.333c-1.84 0-3.333-1.493-3.333-3.333s1.493-3.333 3.333-3.333h10v2.667h-10.12c-0.733 0-0.733 1.333 0 1.333h11.453c1.467 0 2.667-1.2 2.667-2.667s-1.2-2.667-2.667-2.667h-14c-2.573 0-4.667 2.093-4.667 4.667s2.093 4.667 4.667 4.667h12.667v2.667h-12.667c-4.053 0-7.333-3.28-7.333-7.333v0z"></path>
</svg>
