<!-- Generated by IcoMoon.io -->
<svg version="1.1" xmlns="http://www.w3.org/2000/svg" width="32" height="32" viewBox="0 0 32 32">
<title>mt-battery_unknown</title>
<path fill="#ebebeb" d="M20.893 5.333h-2.227v-2.667h-5.333v2.667h-2.227c-0.973 0-1.773 0.8-1.773 1.773v20.44c0 0.987 0.8 1.787 1.773 1.787h9.773c0.987 0 1.787-0.8 1.787-1.773v-20.453c0-0.973-0.8-1.773-1.773-1.773v0zM17.267 23.933h-2.533v-2.533h2.533v2.533zM18.173 17.867c0 0-1.107 1.533-1.107 2.133h-2.133c0-1.107 0.613-2.027 1.24-2.667l1.24-1.253c0.321-0.321 0.535-0.758 0.579-1.236 0.005-0.059 0.008-0.118 0.008-0.178 0-1.107-0.893-2-2-2s-2 0.893-2 2h-2c0-2.213 1.787-4 4-4s4 1.787 4 4c0 0.88-0.933 2.253-0.933 2.253s-0.893 0.947-0.893 0.947z"></path>
</svg>
