<!-- Generated by IcoMoon.io -->
<svg version="1.1" xmlns="http://www.w3.org/2000/svg" width="32" height="32" viewBox="0 0 32 32">
<title>mt-beach_access</title>
<path fill="#ebebeb" d="M17.503 19.414l1.907-1.907 8.587 8.591-1.903 1.903-8.591-8.587zM23.227 11.774l3.813-3.813c-5.267-5.267-13.8-5.28-19.067-0.027 5.24-1.733 11.080-0.333 15.253 3.84v0zM7.933 7.974c-5.253 5.267-5.24 13.8 0.027 19.067l3.813-3.813c-4.173-4.173-5.573-10.013-3.84-15.253v0zM7.96 7.947l-0.013 0.013c-0.507 4.013 1.56 9.173 5.733 13.36l7.64-7.64c-4.173-4.173-9.347-6.24-13.36-5.733v0z"></path>
</svg>
