<!-- Generated by IcoMoon.io -->
<svg version="1.1" xmlns="http://www.w3.org/2000/svg" width="32" height="32" viewBox="0 0 32 32">
<title>mt-child_care</title>
<path fill="#ebebeb" d="M21 14c0 0.92-0.746 1.667-1.667 1.667s-1.667-0.746-1.667-1.667c0-0.92 0.746-1.667 1.667-1.667s1.667 0.746 1.667 1.667z"></path>
<path fill="#ebebeb" d="M14.333 14c0 0.92-0.746 1.667-1.667 1.667s-1.667-0.746-1.667-1.667c0-0.92 0.746-1.667 1.667-1.667s1.667 0.746 1.667 1.667z"></path>
<path fill="#ebebeb" d="M30.587 16.88c0.053-0.28 0.080-0.573 0.080-0.88s-0.027-0.6-0.080-0.88c-0.333-2.013-1.813-3.653-3.747-4.227-0.707-1.493-1.707-2.8-2.92-3.88-2.107-1.88-4.88-3.013-7.92-3.013s-5.813 1.133-7.92 3.013c-1.227 1.080-2.227 2.4-2.92 3.88-1.933 0.573-3.413 2.2-3.747 4.227-0.053 0.28-0.080 0.573-0.080 0.88s0.027 0.6 0.080 0.88c0.333 2.013 1.813 3.653 3.747 4.227 0.693 1.48 1.693 2.787 2.893 3.853 2.107 1.893 4.893 3.040 7.947 3.040s5.84-1.147 7.96-3.040c1.2-1.067 2.2-2.387 2.893-3.853 1.92-0.573 3.4-2.2 3.733-4.227v0zM25.333 18.667c-0.133 0-0.253-0.027-0.387-0.040-0.267 0.893-0.653 1.72-1.147 2.48-1.667 2.547-4.533 4.227-7.8 4.227s-6.133-1.68-7.8-4.227c-0.493-0.76-0.88-1.587-1.147-2.48-0.133 0.013-0.253 0.040-0.387 0.040-1.467 0-2.667-1.2-2.667-2.667s1.2-2.667 2.667-2.667c0.133 0 0.253 0.027 0.387 0.040 0.267-0.893 0.653-1.72 1.147-2.48 1.667-2.547 4.533-4.227 7.8-4.227s6.133 1.68 7.8 4.227c0.493 0.76 0.88 1.587 1.147 2.48 0.133-0.013 0.253-0.040 0.387-0.040 1.467 0 2.667 1.2 2.667 2.667s-1.2 2.667-2.667 2.667v0zM10 18.667c1.013 2.36 3.32 4 6 4s4.987-1.64 6-4h-12z"></path>
</svg>
