<!-- Generated by IcoMoon.io -->
<svg version="1.1" xmlns="http://www.w3.org/2000/svg" width="32" height="32" viewBox="0 0 32 32">
<title>mt-crop_rotate</title>
<path fill="#ebebeb" d="M9.96 28.653c-4.36-2.080-7.48-6.307-7.96-11.32h-2c0.68 8.213 7.547 14.667 15.933 14.667 0.307 0 0.587-0.027 0.88-0.040l-5.080-5.093-1.773 1.787zM16.067 0c-0.307 0-0.587 0.027-0.88 0.053l5.080 5.080 1.773-1.773c4.36 2.067 7.48 6.293 7.96 11.307h2c-0.68-8.213-7.547-14.667-15.933-14.667v0zM21.333 18.667h2.667v-8c0-1.48-1.2-2.667-2.667-2.667h-8v2.667h8v8zM10.667 21.333v-16h-2.667v2.667h-2.667v2.667h2.667v10.667c0 1.467 1.187 2.667 2.667 2.667h10.667v2.667h2.667v-2.667h2.667v-2.667h-16z"></path>
</svg>
