<!-- Generated by IcoMoon.io -->
<svg version="1.1" xmlns="http://www.w3.org/2000/svg" width="32" height="32" viewBox="0 0 32 32">
<title>mt-closed_caption</title>
<path fill="#ebebeb" d="M25.333 5.333h-18.667c-1.48 0-2.667 1.2-2.667 2.667v16c0 1.467 1.187 2.667 2.667 2.667h18.667c1.467 0 2.667-1.2 2.667-2.667v-16c0-1.467-1.2-2.667-2.667-2.667v0zM14.667 14.667h-2v-0.667h-2.667v4h2.667v-0.667h2v1.333c0 0.733-0.6 1.333-1.333 1.333h-4c-0.733 0-1.333-0.6-1.333-1.333v-5.333c0-0.733 0.6-1.333 1.333-1.333h4c0.733 0 1.333 0.6 1.333 1.333v1.333zM24 14.667h-2v-0.667h-2.667v4h2.667v-0.667h2v1.333c0 0.733-0.6 1.333-1.333 1.333h-4c-0.733 0-1.333-0.6-1.333-1.333v-5.333c0-0.733 0.6-1.333 1.333-1.333h4c0.733 0 1.333 0.6 1.333 1.333v1.333z"></path>
</svg>
