<!-- Generated by IcoMoon.io -->
<svg version="1.1" xmlns="http://www.w3.org/2000/svg" width="32" height="32" viewBox="0 0 32 32">
<title>mt-directions_subway</title>
<path fill="#ebebeb" d="M16 2.667c-5.893 0-10.667 0.667-10.667 5.333v12.667c0 2.573 2.093 4.667 4.667 4.667l-2 2v0.667h16v-0.667l-2-2c2.573 0 4.667-2.093 4.667-4.667v-12.667c0-4.667-4.773-5.333-10.667-5.333v0zM10 22.667c-1.107 0-2-0.893-2-2s0.893-2 2-2c1.107 0 2 0.893 2 2s-0.893 2-2 2v0zM14.667 14.667h-6.667v-6.667h6.667v6.667zM22 22.667c-1.107 0-2-0.893-2-2s0.893-2 2-2c1.107 0 2 0.893 2 2s-0.893 2-2 2v0zM24 14.667h-6.667v-6.667h6.667v6.667z"></path>
</svg>
