<!-- Generated by IcoMoon.io -->
<svg version="1.1" xmlns="http://www.w3.org/2000/svg" width="32" height="32" viewBox="0 0 32 32">
<title>mt-directions_boat</title>
<path fill="#ebebeb" d="M26.667 28c-1.853 0-3.707-0.627-5.333-1.76-3.253 2.28-7.413 2.28-10.667 0-1.627 1.133-3.48 1.76-5.333 1.76h-2.667v2.667h2.667c1.84 0 3.653-0.467 5.333-1.32 3.36 1.72 7.307 1.72 10.667 0 1.68 0.867 3.493 1.32 5.333 1.32h2.667v-2.667h-2.667zM5.267 25.333h0.067c2.133 0 4.027-1.173 5.333-2.667 1.307 1.493 3.2 2.667 5.333 2.667s4.027-1.173 5.333-2.667c1.307 1.493 3.2 2.667 5.333 2.667h0.067l2.52-8.907c0.107-0.347 0.080-0.72-0.080-1.040s-0.453-0.56-0.8-0.667l-1.707-0.56v-6.16c0-1.467-1.2-2.667-2.667-2.667h-4v-4h-8v4h-4c-1.467 0-2.667 1.2-2.667 2.667v6.16l-1.72 0.56c-0.347 0.107-0.64 0.347-0.8 0.667s-0.2 0.693-0.080 1.040l2.533 8.907zM8 8h16v5.293l-8-2.627-8 2.627v-5.293z"></path>
</svg>
