<!-- Generated by IcoMoon.io -->
<svg version="1.1" xmlns="http://www.w3.org/2000/svg" width="32" height="32" viewBox="0 0 32 32">
<title>mt-domain</title>
<path fill="#ebebeb" d="M16 9.333v-5.333h-13.333v24h26.667v-18.667h-13.333zM8 25.333h-2.667v-2.667h2.667v2.667zM8 20h-2.667v-2.667h2.667v2.667zM8 14.667h-2.667v-2.667h2.667v2.667zM8 9.333h-2.667v-2.667h2.667v2.667zM13.333 25.333h-2.667v-2.667h2.667v2.667zM13.333 20h-2.667v-2.667h2.667v2.667zM13.333 14.667h-2.667v-2.667h2.667v2.667zM13.333 9.333h-2.667v-2.667h2.667v2.667zM26.667 25.333h-10.667v-2.667h2.667v-2.667h-2.667v-2.667h2.667v-2.667h-2.667v-2.667h10.667v13.333zM24 14.667h-2.667v2.667h2.667v-2.667zM24 20h-2.667v2.667h2.667v-2.667z"></path>
</svg>
