<!-- Generated by IcoMoon.io -->
<svg version="1.1" xmlns="http://www.w3.org/2000/svg" width="32" height="32" viewBox="0 0 32 32">
<title>mt-format_shapes</title>
<path fill="#ebebeb" d="M30.667 9.333v-8h-8v2.667h-13.333v-2.667h-8v8h2.667v13.333h-2.667v8h8v-2.667h13.333v2.667h8v-8h-2.667v-13.333h2.667zM4 4h2.667v2.667h-2.667v-2.667zM6.667 28h-2.667v-2.667h2.667v2.667zM22.667 25.333h-13.333v-2.667h-2.667v-13.333h2.667v-2.667h13.333v2.667h2.667v13.333h-2.667v2.667zM28 28h-2.667v-2.667h2.667v2.667zM25.333 6.667v-2.667h2.667v2.667h-2.667zM18.307 18.667h-4.653l-0.973 2.667h-2.16l4.533-12h1.867l4.547 12h-2.173l-0.987-2.667zM14.253 16.987h3.48l-1.733-5.107-1.747 5.107z"></path>
</svg>
