<!-- Generated by IcoMoon.io -->
<svg version="1.1" xmlns="http://www.w3.org/2000/svg" width="32" height="32" viewBox="0 0 32 32">
<title>mt-filter_center_focus</title>
<path fill="#ebebeb" d="M6.667 20h-2.667v5.333c0 1.467 1.2 2.667 2.667 2.667h5.333v-2.667h-5.333v-5.333zM6.667 6.667h5.333v-2.667h-5.333c-1.467 0-2.667 1.2-2.667 2.667v5.333h2.667v-5.333zM25.333 4h-5.333v2.667h5.333v5.333h2.667v-5.333c0-1.467-1.2-2.667-2.667-2.667v0zM25.333 25.333h-5.333v2.667h5.333c1.467 0 2.667-1.2 2.667-2.667v-5.333h-2.667v5.333zM16 12c-2.213 0-4 1.787-4 4s1.787 4 4 4c2.213 0 4-1.787 4-4s-1.787-4-4-4v0z"></path>
</svg>
