<!-- Generated by IcoMoon.io -->
<svg version="1.1" xmlns="http://www.w3.org/2000/svg" width="32" height="32" viewBox="0 0 32 32">
<title>mt-fiber_dvr</title>
<path fill="#ebebeb" d="M23.333 14h2.667v1.333h-2.667v-1.333zM6 14h2.667v4h-2.667v-4zM28 4h-24c-1.48 0-2.667 1.187-2.667 2.667v18.667c0 1.467 1.187 2.667 2.667 2.667h24c1.48 0 2.667-1.2 2.667-2.667v-18.667c0-1.48-1.187-2.667-2.667-2.667v0zM10.667 18c0 1.133-0.867 2-2 2h-4.667v-8h4.667c1.133 0 2 0.867 2 2v4zM16.827 20h-2l-2.333-8h2l1.333 4.573 1.333-4.573h2l-2.333 8zM28 15.333c0 0.8-0.533 1.533-1.2 1.867l1.2 2.8h-2l-1.133-2.667h-1.533v2.667h-2v-8h4.667c1.133 0 2 0.867 2 2v1.333z"></path>
</svg>
