<!-- Generated by IcoMoon.io -->
<svg version="1.1" xmlns="http://www.w3.org/2000/svg" width="32" height="32" viewBox="0 0 32 32">
<title>mt-favorite_border</title>
<path fill="#ebebeb" d="M22 4c-2.32 0-4.547 1.080-6 2.787-1.453-1.707-3.68-2.787-6-2.787-4.107 0-7.333 3.227-7.333 7.333 0 5.040 4.533 9.147 11.4 15.387l1.933 1.747 1.933-1.76c6.867-6.227 11.4-10.333 11.4-15.373 0-4.107-3.227-7.333-7.333-7.333v0zM16.133 24.733l-0.133 0.133-0.133-0.133c-6.347-5.747-10.533-9.547-10.533-13.4 0-2.667 2-4.667 4.667-4.667 2.053 0 4.053 1.32 4.76 3.147h2.493c0.693-1.827 2.693-3.147 4.747-3.147 2.667 0 4.667 2 4.667 4.667 0 3.853-4.187 7.653-10.533 13.4v0z"></path>
</svg>
