<!-- Generated by IcoMoon.io -->
<svg version="1.1" xmlns="http://www.w3.org/2000/svg" width="32" height="32" viewBox="0 0 32 32">
<title>mt-grid_off</title>
<path fill="#ebebeb" d="M10.667 5.333v1.933l2.667 2.667v-4.6h5.333v5.333h-4.6l2.667 2.667h1.933v1.933l2.667 2.667v-4.6h5.333v5.333h-4.6l2.667 2.667h1.933v1.933l2.667 2.667v-20.6c0-1.467-1.2-2.667-2.667-2.667h-20.6l2.667 2.667h1.933zM21.333 5.333h5.333v5.333h-5.333v-5.333zM1.693 1.693l-1.693 1.707 2.667 2.667v20.6c0 1.467 1.2 2.667 2.667 2.667h20.613l2.667 2.667 1.693-1.693-28.613-28.613zM13.333 16.733l1.933 1.933h-1.933v-1.933zM5.333 8.733l1.933 1.933h-1.933v-1.933zM10.667 26.667h-5.333v-5.333h5.333v5.333zM10.667 18.667h-5.333v-5.333h4.6l0.733 0.733v4.6zM18.667 26.667h-5.333v-5.333h4.6l0.733 0.72v4.613zM21.333 26.667v-1.947l1.947 1.947h-1.947z"></path>
</svg>
