<!-- Generated by IcoMoon.io -->
<svg version="1.1" xmlns="http://www.w3.org/2000/svg" width="32" height="32" viewBox="0 0 32 32">
<title>mt-high_quality</title>
<path fill="#ebebeb" d="M25.333 5.333h-18.667c-1.48 0-2.667 1.2-2.667 2.667v16c0 1.467 1.187 2.667 2.667 2.667h18.667c1.467 0 2.667-1.2 2.667-2.667v-16c0-1.467-1.2-2.667-2.667-2.667v0zM14.667 20h-2v-2.667h-2.667v2.667h-2v-8h2v3.333h2.667v-3.333h2v8zM24 18.667c0 0.733-0.6 1.333-1.333 1.333h-1v2h-2v-2h-1c-0.733 0-1.333-0.6-1.333-1.333v-5.333c0-0.733 0.6-1.333 1.333-1.333h4c0.733 0 1.333 0.6 1.333 1.333v5.333zM19.333 18h2.667v-4h-2.667v4z"></path>
</svg>
