<!-- Generated by IcoMoon.io -->
<svg version="1.1" xmlns="http://www.w3.org/2000/svg" width="32" height="32" viewBox="0 0 32 32">
<title>mt-lightbulb_outline</title>
<path fill="#ebebeb" d="M12 28c0 0.733 0.6 1.333 1.333 1.333h5.333c0.733 0 1.333-0.6 1.333-1.333v-1.333h-8v1.333zM16 2.667c-5.147 0-9.333 4.187-9.333 9.333 0 3.173 1.587 5.96 4 7.653v3.013c0 0.733 0.6 1.333 1.333 1.333h8c0.733 0 1.333-0.6 1.333-1.333v-3.013c2.413-1.693 4-4.48 4-7.653 0-5.147-4.187-9.333-9.333-9.333v0zM19.8 17.467l-1.133 0.8v3.067h-5.333v-3.067l-1.133-0.8c-1.8-1.253-2.867-3.293-2.867-5.467 0-3.68 2.987-6.667 6.667-6.667s6.667 2.987 6.667 6.667c0 2.173-1.067 4.213-2.867 5.467v0z"></path>
</svg>
