<!-- Generated by IcoMoon.io -->
<svg version="1.1" xmlns="http://www.w3.org/2000/svg" width="32" height="32" viewBox="0 0 32 32">
<title>mt-local_car_wash</title>
<path fill="#ebebeb" d="M22.667 6.666c1.107 0 2-0.893 2-2 0-1.333-2-3.6-2-3.6s-2 2.267-2 3.6c0 1.107 0.893 2 2 2v0zM16 6.666c1.107 0 2-0.893 2-2 0-1.333-2-3.6-2-3.6s-2 2.267-2 3.6c0 1.107 0.893 2 2 2v0zM9.333 6.666c1.107 0 2-0.893 2-2 0-1.333-2-3.6-2-3.6s-2 2.267-2 3.6c0 1.107 0.893 2 2 2v0zM25.227 10.68c-0.267-0.787-1.013-1.347-1.893-1.347h-14.667c-0.88 0-1.613 0.56-1.893 1.347l-2.773 7.987v10.667c0 0.733 0.6 1.333 1.333 1.333h1.333c0.733 0 1.333-0.6 1.333-1.333v-1.333h16v1.333c0 0.733 0.6 1.333 1.333 1.333h1.333c0.733 0 1.333-0.6 1.333-1.333v-10.667l-2.773-7.987zM8.667 24c-1.107 0-2-0.893-2-2s0.893-2 2-2c1.107 0 2 0.893 2 2s-0.893 2-2 2v0zM23.333 24c-1.107 0-2-0.893-2-2s0.893-2 2-2c1.107 0 2 0.893 2 2s-0.893 2-2 2v0zM6.667 17.333l2-6h14.667l2 6h-18.667z"></path>
</svg>
