<!-- Generated by IcoMoon.io -->
<svg version="1.1" xmlns="http://www.w3.org/2000/svg" width="32" height="32" viewBox="0 0 32 32">
<title>mt-lock_open</title>
<path fill="#ebebeb" d="M16 22.667c1.467 0 2.667-1.2 2.667-2.667s-1.2-2.667-2.667-2.667c-1.467 0-2.667 1.2-2.667 2.667s1.2 2.667 2.667 2.667v0zM24 10.667h-1.333v-2.667c0-3.68-2.987-6.667-6.667-6.667s-6.667 2.987-6.667 6.667h2.533c0-2.28 1.853-4.133 4.133-4.133s4.133 1.853 4.133 4.133v2.667h-12.133c-1.467 0-2.667 1.2-2.667 2.667v13.333c0 1.467 1.2 2.667 2.667 2.667h16c1.467 0 2.667-1.2 2.667-2.667v-13.333c0-1.467-1.2-2.667-2.667-2.667v0zM24 26.667h-16v-13.333h16v13.333z"></path>
</svg>
