<!-- Generated by IcoMoon.io -->
<svg version="1.1" xmlns="http://www.w3.org/2000/svg" width="32" height="32" viewBox="0 0 32 32">
<title>mt-local_laundry_service</title>
<path fill="#ebebeb" d="M12.227 22.44c2.080 2.080 5.467 2.080 7.547 0s2.080-5.467 0-7.547l-7.547 7.547zM24 2.68l-16-0.013c-1.48 0-2.667 1.187-2.667 2.667v21.333c0 1.48 1.187 2.667 2.667 2.667h16c1.48 0 2.667-1.187 2.667-2.667v-21.333c0-1.48-1.187-2.653-2.667-2.653v0zM13.333 5.333c0.733 0 1.333 0.6 1.333 1.333s-0.6 1.333-1.333 1.333c-0.733 0-1.333-0.6-1.333-1.333s0.6-1.333 1.333-1.333v0zM9.333 5.333c0.733 0 1.333 0.6 1.333 1.333s-0.6 1.333-1.333 1.333c-0.733 0-1.333-0.6-1.333-1.333s0.6-1.333 1.333-1.333v0zM16 26.667c-4.413 0-8-3.587-8-8s3.587-8 8-8c4.413 0 8 3.587 8 8s-3.587 8-8 8v0z"></path>
</svg>
