<!-- Generated by IcoMoon.io -->
<svg version="1.1" xmlns="http://www.w3.org/2000/svg" width="32" height="32" viewBox="0 0 32 32">
<title>mt-local_shipping</title>
<path fill="#ebebeb" d="M26.667 10.667h-4v-5.333h-18.667c-1.467 0-2.667 1.2-2.667 2.667v14.667h2.667c0 2.213 1.787 4 4 4s4-1.787 4-4h8c0 2.213 1.787 4 4 4s4-1.787 4-4h2.667v-6.667l-4-5.333zM8 24.667c-1.107 0-2-0.893-2-2s0.893-2 2-2c1.107 0 2 0.893 2 2s-0.893 2-2 2v0zM26 12.667l2.613 3.333h-5.947v-3.333h3.333zM24 24.667c-1.107 0-2-0.893-2-2s0.893-2 2-2c1.107 0 2 0.893 2 2s-0.893 2-2 2v0z"></path>
</svg>
