<!-- Generated by IcoMoon.io -->
<svg version="1.1" xmlns="http://www.w3.org/2000/svg" width="32" height="32" viewBox="0 0 32 32">
<title>mt-monochrome_photos</title>
<path fill="#ebebeb" d="M26.667 6.667h-4.267l-2.4-2.667h-8l-2.4 2.667h-4.267c-1.467 0-2.667 1.2-2.667 2.667v16c0 1.467 1.2 2.667 2.667 2.667h21.333c1.467 0 2.667-1.2 2.667-2.667v-16c0-1.467-1.2-2.667-2.667-2.667v0zM26.667 25.333h-10.667v-1.333c-3.733 0-6.667-2.933-6.667-6.667s2.933-6.667 6.667-6.667v-1.333h10.667v16zM22.667 17.333c0-3.733-2.933-6.667-6.667-6.667v2.4c2.4 0 4.267 1.867 4.267 4.267s-1.867 4.267-4.267 4.267v2.4c3.733 0 6.667-2.933 6.667-6.667v0zM11.733 17.333c0 2.4 1.867 4.267 4.267 4.267v-8.533c-2.4 0-4.267 1.867-4.267 4.267v0z"></path>
</svg>
