<!-- Generated by IcoMoon.io -->
<svg version="1.1" xmlns="http://www.w3.org/2000/svg" width="32" height="32" viewBox="0 0 32 32">
<title>mt-party_mode</title>
<path fill="#ebebeb" d="M26.667 5.333h-4.227l-2.44-2.667h-8l-2.44 2.667h-4.227c-1.467 0-2.667 1.2-2.667 2.667v16c0 1.467 1.2 2.667 2.667 2.667h21.333c1.467 0 2.667-1.2 2.667-2.667v-16c0-1.467-1.2-2.667-2.667-2.667v0zM16 9.333c2.173 0 4.080 1.053 5.307 2.667h-5.307c-2.213 0-4 1.787-4 4 0 0.467 0.093 0.92 0.24 1.333h-2.773c-0.080-0.427-0.133-0.88-0.133-1.333 0-3.68 2.987-6.667 6.667-6.667v0zM16 22.667c-2.173 0-4.080-1.053-5.307-2.667h5.307c2.213 0 4-1.787 4-4 0-0.467-0.093-0.92-0.24-1.333h2.773c0.093 0.427 0.133 0.88 0.133 1.333 0 3.68-2.987 6.667-6.667 6.667v0z"></path>
</svg>
