<!-- Generated by IcoMoon.io -->
<svg version="1.1" xmlns="http://www.w3.org/2000/svg" width="32" height="32" viewBox="0 0 32 32">
<title>mt-phonelink_ring</title>
<path fill="#ebebeb" d="M26.8 10.267l-1.333 1.333c2.4 2.4 2.4 6.133 0 8.667l1.333 1.333c3.333-3.067 3.333-8.133 0-11.333v0zM24 13.067l-1.333 1.333c0.667 0.933 0.667 2.133 0 3.067l1.333 1.333c1.6-1.6 1.6-4 0-5.733v0zM18.667 1.333h-13.333c-1.467 0-2.667 1.2-2.667 2.667v24c0 1.467 1.2 2.667 2.667 2.667h13.333c1.467 0 2.667-1.2 2.667-2.667v-24c0-1.467-1.2-2.667-2.667-2.667v0zM18.667 26.667h-13.333v-21.333h13.333v21.333z"></path>
</svg>
