<!-- Generated by IcoMoon.io -->
<svg version="1.1" xmlns="http://www.w3.org/2000/svg" width="32" height="32" viewBox="0 0 32 32">
<title>mt-person_pin_circle</title>
<path fill="#ebebeb" d="M16 2.667c-5.147 0-9.333 4.187-9.333 9.333 0 7 9.333 17.333 9.333 17.333s9.333-10.333 9.333-17.333c0-5.147-4.187-9.333-9.333-9.333v0zM16 5.333c1.467 0 2.667 1.2 2.667 2.667 0 1.48-1.2 2.667-2.667 2.667s-2.667-1.187-2.667-2.667c0-1.467 1.2-2.667 2.667-2.667v0zM16 18.667c-2.227 0-4.187-1.133-5.333-2.867 0.027-1.76 3.56-2.733 5.333-2.733s5.307 0.973 5.333 2.733c-1.147 1.733-3.107 2.867-5.333 2.867v0z"></path>
</svg>
