<!-- Generated by IcoMoon.io -->
<svg version="1.1" xmlns="http://www.w3.org/2000/svg" width="32" height="32" viewBox="0 0 32 32">
<title>mt-panorama_wide_angle</title>
<path fill="#ebebeb" d="M16 8c3.267 0 6.28 0.267 9.72 0.853 0.627 2.373 0.947 4.773 0.947 7.147s-0.32 4.773-0.947 7.147c-3.44 0.587-6.453 0.853-9.72 0.853s-6.28-0.267-9.72-0.853c-0.627-2.373-0.947-4.773-0.947-7.147s0.32-4.773 0.947-7.147c3.44-0.587 6.453-0.853 9.72-0.853v0zM16 5.333c-3.64 0-6.96 0.32-10.6 0.96l-1.24 0.213-0.333 1.2c-0.773 2.76-1.16 5.533-1.16 8.293s0.387 5.533 1.16 8.293l0.333 1.187 1.24 0.213c3.64 0.653 6.96 0.973 10.6 0.973s6.96-0.32 10.6-0.96l1.24-0.213 0.333-1.187c0.773-2.773 1.16-5.547 1.16-8.307s-0.387-5.533-1.16-8.293l-0.333-1.187-1.24-0.213c-3.64-0.653-6.96-0.973-10.6-0.973v0z"></path>
</svg>
