<!-- Generated by IcoMoon.io -->
<svg version="1.1" xmlns="http://www.w3.org/2000/svg" width="32" height="32" viewBox="0 0 32 32">
<title>mt-photo_filter</title>
<path fill="#ebebeb" d="M22.84 11.867l0.787-1.733 1.733-0.8-1.733-0.787-0.787-1.733-0.787 1.733-1.747 0.787 1.747 0.8 0.787 1.733zM16.52 8.707l-1.573 3.48-3.48 1.573 3.48 1.573 1.573 3.48 1.587-3.48 3.467-1.573-3.467-1.573-1.587-3.48zM25.36 13.333v12h-18.693v-18.667h12v-2.667h-11.973c-1.467 0-2.667 1.2-2.667 2.667v18.667c0 1.467 1.2 2.667 2.667 2.667h18.667c1.467 0 2.667-1.2 2.667-2.667v-12h-2.667z"></path>
</svg>
