<!-- Generated by IcoMoon.io -->
<svg version="1.1" xmlns="http://www.w3.org/2000/svg" width="32" height="32" viewBox="0 0 32 32">
<title>mt-panorama_horizontal</title>
<path fill="#ebebeb" d="M26.667 8.72v14.547c-3.467-1.027-7.040-1.547-10.667-1.547s-7.2 0.52-10.667 1.547v-14.547c3.467 1.027 7.040 1.547 10.667 1.547 3.627 0.013 7.2-0.507 10.667-1.547v0zM28.573 5.333c-0.133 0-0.267 0.027-0.413 0.080-3.92 1.467-8.040 2.187-12.16 2.187s-8.24-0.733-12.16-2.187c-0.147-0.053-0.293-0.080-0.413-0.080-0.453 0-0.76 0.307-0.76 0.84v19.667c0 0.52 0.307 0.827 0.76 0.827 0.133 0 0.267-0.027 0.413-0.080 3.92-1.467 8.040-2.187 12.16-2.187s8.24 0.733 12.16 2.187c0.147 0.053 0.28 0.080 0.413 0.080 0.44 0 0.76-0.307 0.76-0.84v-19.653c0-0.533-0.32-0.84-0.76-0.84v0z"></path>
</svg>
