<!-- Generated by IcoMoon.io -->
<svg version="1.1" xmlns="http://www.w3.org/2000/svg" width="32" height="32" viewBox="0 0 32 32">
<title>mt-speaker_group</title>
<path fill="#ebebeb" d="M24.267 1.333h-11.2c-1.32 0-2.4 1.080-2.4 2.4v19.2c0 1.32 1.080 2.387 2.4 2.387l11.2 0.013c1.32 0 2.4-1.080 2.4-2.4v-19.2c0-1.32-1.080-2.4-2.4-2.4v0zM18.667 4c1.467 0 2.667 1.187 2.667 2.667s-1.2 2.667-2.667 2.667c-1.467 0-2.667-1.187-2.667-2.667s1.2-2.667 2.667-2.667v0zM18.667 22c-2.947 0-5.333-2.387-5.333-5.333s2.387-5.333 5.333-5.333c2.947 0 5.333 2.387 5.333 5.333s-2.387 5.333-5.333 5.333v0z"></path>
<path fill="#ebebeb" d="M22 16.667c0 1.841-1.492 3.333-3.333 3.333s-3.333-1.492-3.333-3.333c0-1.841 1.492-3.333 3.333-3.333s3.333 1.492 3.333 3.333z"></path>
<path fill="#ebebeb" d="M8 6.667h-2.667v21.333c0 1.467 1.187 2.667 2.667 2.667h13.333v-2.667h-13.333v-21.333z"></path>
</svg>
