<!-- Generated by IcoMoon.io -->
<svg version="1.1" xmlns="http://www.w3.org/2000/svg" width="32" height="32" viewBox="0 0 32 32">
<title>mt-sim_card</title>
<path fill="#ebebeb" d="M26.653 5.333c0-1.467-1.187-2.667-2.653-2.667h-10.667l-8 8v16c0 1.467 1.2 2.667 2.667 2.667h16.013c1.467 0 2.653-1.2 2.653-2.667l-0.013-21.333zM12 25.333h-2.667v-2.667h2.667v2.667zM22.667 25.333h-2.667v-2.667h2.667v2.667zM12 20h-2.667v-5.333h2.667v5.333zM17.333 25.333h-2.667v-5.333h2.667v5.333zM17.333 17.333h-2.667v-2.667h2.667v2.667zM22.667 20h-2.667v-5.333h2.667v5.333z"></path>
</svg>
