<!-- Generated by IcoMoon.io -->
<svg version="1.1" xmlns="http://www.w3.org/2000/svg" width="32" height="32" viewBox="0 0 32 32">
<title>mt-swap_calls</title>
<path fill="#ebebeb" d="M24 5.333l-5.333 5.333h4v9.333c0 1.467-1.2 2.667-2.667 2.667s-2.667-1.2-2.667-2.667v-9.333c0-2.947-2.387-5.333-5.333-5.333s-5.333 2.387-5.333 5.333v9.333h-4l5.333 5.333 5.333-5.333h-4v-9.333c0-1.467 1.2-2.667 2.667-2.667s2.667 1.2 2.667 2.667v9.333c0 2.947 2.387 5.333 5.333 5.333s5.333-2.387 5.333-5.333v-9.333h4l-5.333-5.333z"></path>
</svg>
