<!-- Generated by IcoMoon.io -->
<svg version="1.1" xmlns="http://www.w3.org/2000/svg" width="32" height="32" viewBox="0 0 32 32">
<title>mt-sync_problem</title>
<path fill="#ebebeb" d="M4 16c0 2.947 1.213 5.6 3.147 7.52l-3.147 3.147h8v-8l-2.987 2.987c-1.44-1.453-2.347-3.44-2.347-5.653 0-3.48 2.227-6.44 5.333-7.533v-2.787c-4.6 1.187-8 5.347-8 10.32v0zM14.667 22.667h2.667v-2.667h-2.667v2.667zM28 5.333h-8v8l2.987-2.987c1.44 1.453 2.347 3.44 2.347 5.653 0 3.48-2.227 6.44-5.333 7.533v2.787c4.6-1.187 8-5.347 8-10.32 0-2.947-1.213-5.6-3.147-7.52l3.147-3.147zM14.667 17.333h2.667v-8h-2.667v8z"></path>
</svg>
