<!-- Generated by IcoMoon.io -->
<svg version="1.1" xmlns="http://www.w3.org/2000/svg" width="32" height="32" viewBox="0 0 32 32">
<title>mt-settings_input_svideo</title>
<path fill="#ebebeb" d="M10.667 15.333c0-1.107-0.893-2-2-2s-2 0.893-2 2c0 1.107 0.893 2 2 2s2-0.893 2-2v0zM20 8.667c0-1.107-0.893-2-2-2h-4c-1.107 0-2 0.893-2 2s0.893 2 2 2h4c1.107 0 2-0.893 2-2v0zM11.333 20c-1.107 0-2 0.893-2 2s0.893 2 2 2c1.107 0 2-0.893 2-2s-0.893-2-2-2v0zM16 1.333c-8.093 0-14.667 6.573-14.667 14.667s6.573 14.667 14.667 14.667c8.093 0 14.667-6.573 14.667-14.667s-6.573-14.667-14.667-14.667v0zM16 28c-6.613 0-12-5.387-12-12s5.387-12 12-12c6.613 0 12 5.387 12 12s-5.387 12-12 12v0zM23.333 13.333c-1.107 0-2 0.893-2 2s0.893 2 2 2c1.107 0 2-0.893 2-2s-0.893-2-2-2v0zM20.667 20c-1.107 0-2 0.893-2 2s0.893 2 2 2c1.107 0 2-0.893 2-2s-0.893-2-2-2v0z"></path>
</svg>
