<!-- Generated by IcoMoon.io -->
<svg version="1.1" xmlns="http://www.w3.org/2000/svg" width="32" height="32" viewBox="0 0 32 32">
<title>mt-timeline</title>
<path fill="#ebebeb" d="M30.667 10.667c0 1.467-1.2 2.667-2.667 2.667-0.24 0-0.467-0.027-0.68-0.093l-4.747 4.733c0.067 0.213 0.093 0.453 0.093 0.693 0 1.467-1.2 2.667-2.667 2.667s-2.667-1.2-2.667-2.667c0-0.24 0.027-0.48 0.093-0.693l-3.4-3.4c-0.213 0.067-0.453 0.093-0.693 0.093s-0.48-0.027-0.693-0.093l-6.067 6.080c0.067 0.213 0.093 0.44 0.093 0.68 0 1.467-1.2 2.667-2.667 2.667s-2.667-1.2-2.667-2.667c0-1.467 1.2-2.667 2.667-2.667 0.24 0 0.467 0.027 0.68 0.093l6.080-6.067c-0.067-0.213-0.093-0.453-0.093-0.693 0-1.467 1.2-2.667 2.667-2.667s2.667 1.2 2.667 2.667c0 0.24-0.027 0.48-0.093 0.693l3.4 3.4c0.213-0.067 0.453-0.093 0.693-0.093s0.48 0.027 0.693 0.093l4.733-4.747c-0.067-0.213-0.093-0.44-0.093-0.68 0-1.467 1.2-2.667 2.667-2.667s2.667 1.2 2.667 2.667v0z"></path>
</svg>
