<!-- Generated by IcoMoon.io -->
<svg version="1.1" xmlns="http://www.w3.org/2000/svg" width="32" height="32" viewBox="0 0 32 32">
<title>mt-timer_off</title>
<path fill="#ebebeb" d="M25.387 6.067l-1.893 1.893c-2.067-1.64-4.667-2.627-7.493-2.627-2.44 0-4.707 0.733-6.6 1.973l1.947 1.947c1.36-0.787 2.96-1.253 4.653-1.253 5.16 0 9.333 4.173 9.333 9.333 0 1.693-0.467 3.293-1.253 4.653l1.933 1.933c1.253-1.88 1.987-4.147 1.987-6.587 0-2.827-0.987-5.427-2.627-7.48l1.893-1.893-1.88-1.893zM20 1.333h-8v2.667h8v-2.667zM14.667 12.587l2.667 2.667v-4.587h-2.667v1.92zM4.027 5.333l-1.693 1.693 3.667 3.68c-1.267 1.893-2 4.173-2 6.627 0 6.627 5.36 12 12 12 2.453 0 4.733-0.733 6.64-2l3.333 3.333 1.693-1.693-23.64-23.64zM16 26.667c-5.16 0-9.333-4.173-9.333-9.333 0-1.707 0.467-3.307 1.267-4.693l12.747 12.747c-1.373 0.813-2.973 1.28-4.68 1.28v0z"></path>
</svg>
