<!-- Generated by IcoMoon.io -->
<svg version="1.1" xmlns="http://www.w3.org/2000/svg" width="32" height="32" viewBox="0 0 32 32">
<title>mt-voicemail</title>
<path fill="#ebebeb" d="M24.667 8c-4.053 0-7.333 3.28-7.333 7.333 0 1.773 0.627 3.4 1.68 4.667h-6.027c1.053-1.267 1.68-2.893 1.68-4.667 0-4.053-3.28-7.333-7.333-7.333s-7.333 3.28-7.333 7.333c0 4.053 3.28 7.333 7.333 7.333h17.333c4.053 0 7.333-3.28 7.333-7.333s-3.28-7.333-7.333-7.333v0zM7.333 20c-2.573 0-4.667-2.093-4.667-4.667s2.093-4.667 4.667-4.667c2.573 0 4.667 2.093 4.667 4.667s-2.093 4.667-4.667 4.667v0zM24.667 20c-2.573 0-4.667-2.093-4.667-4.667s2.093-4.667 4.667-4.667c2.573 0 4.667 2.093 4.667 4.667s-2.093 4.667-4.667 4.667v0z"></path>
</svg>
