<!-- Generated by IcoMoon.io -->
<svg version="1.1" xmlns="http://www.w3.org/2000/svg" width="32" height="32" viewBox="0 0 32 32">
<title>mt-visibility_off</title>
<path fill="#ebebeb" d="M16 9.333c3.68 0 6.667 2.987 6.667 6.667 0 0.867-0.173 1.68-0.48 2.44l3.893 3.893c2.013-1.68 3.6-3.853 4.573-6.333-2.307-5.853-8-10-14.667-10-1.867 0-3.653 0.333-5.307 0.933l2.88 2.88c0.76-0.307 1.573-0.48 2.44-0.48v0zM2.667 5.693l3.653 3.653c-2.213 1.72-3.947 4.013-4.987 6.653 2.307 5.853 8 10 14.667 10 2.067 0 4.040-0.4 5.84-1.12l0.56 0.56 3.907 3.893 1.693-1.693-23.64-23.64-1.693 1.693zM10.040 13.067l2.067 2.067c-0.067 0.28-0.107 0.573-0.107 0.867 0 2.213 1.787 4 4 4 0.293 0 0.587-0.040 0.867-0.107l2.067 2.067c-0.893 0.44-1.88 0.707-2.933 0.707-3.68 0-6.667-2.987-6.667-6.667 0-1.053 0.267-2.040 0.707-2.933v0zM15.787 12.027l4.2 4.2 0.027-0.213c0-2.213-1.787-4-4-4l-0.227 0.013z"></path>
</svg>
