<!-- Generated by IcoMoon.io -->
<svg version="1.1" xmlns="http://www.w3.org/2000/svg" width="32" height="32" viewBox="0 0 32 32">
<title>mt-whatshot</title>
<path fill="#ebebeb" d="M18 0.894c-17.867-0.893 0.987 3.533 0.987 6.4 0 2.747-1.8 4.973-4.547 4.973-2.76 0-4.84-2.227-4.84-4.973l0.040-0.48c-2.693 3.2-4.307 7.347-4.307 11.853 0 5.893 4.773 10.667 10.667 10.667s10.667-4.773 10.667-10.667c0-7.187-3.453-13.6-8.667-17.773v0zM15.613 25.334c-2.373 0-4.293-1.867-4.293-4.187 0-2.16 1.4-3.68 3.747-4.16 2.36-0.48 4.8-1.613 6.16-3.44 0.52 1.72 0.787 3.533 0.787 5.387 0 3.533-2.867 6.4-6.4 6.4v0z"></path>
</svg>
