<!-- Generated by IcoMoon.io -->
<svg version="1.1" xmlns="http://www.w3.org/2000/svg" width="32" height="32" viewBox="0 0 32 32">
<title>mt-youtube_searched_for</title>
<path fill="#ebebeb" d="M22.68 18.667h-1.067l-0.36-0.36c1.307-1.52 2.093-3.48 2.093-5.64 0-4.787-3.88-8.667-8.667-8.667s-8.667 4-8.667 8.667h-3.347l5.12 5.333 5.547-5.333h-4.653c0-3.333 2.693-6 6-6s6 2.68 6 6c0 3.307-2.693 6-6 6-0.867 0-1.68-0.187-2.427-0.507l-1.973 1.973c1.293 0.76 2.787 1.2 4.4 1.2 2.147 0 4.107-0.787 5.627-2.093l0.36 0.36v1.053l6.68 6.653 1.987-1.973-6.653-6.667z"></path>
</svg>
