<!-- Generated by IcoMoon.io -->
<svg version="1.1" xmlns="http://www.w3.org/2000/svg" width="32" height="32" viewBox="0 0 32 32">
<title>ul-archive-alt</title>
<path fill="#ebebeb" d="M13.333 17.333h5.333c0.736 0 1.333-0.597 1.333-1.333s-0.597-1.333-1.333-1.333v0h-5.333c-0.736 0-1.333 0.597-1.333 1.333s0.597 1.333 1.333 1.333v0zM25.333 4h-18.667c-2.196 0.018-3.969 1.802-3.969 4 0 1.72 1.085 3.186 2.608 3.751l0.028 0.009v12.24c0 2.209 1.791 4 4 4v0h13.333c2.209 0 4-1.791 4-4v0-12.24c1.551-0.574 2.636-2.040 2.636-3.76 0-2.198-1.773-3.982-3.967-4h-0.002zM24 24c0 0.736-0.597 1.333-1.333 1.333v0h-13.333c-0.736 0-1.333-0.597-1.333-1.333v0-12h16zM25.333 9.333h-18.667c-0.736 0-1.333-0.597-1.333-1.333s0.597-1.333 1.333-1.333v0h18.667c0.736 0 1.333 0.597 1.333 1.333s-0.597 1.333-1.333 1.333v0z"></path>
</svg>
