<!-- Generated by IcoMoon.io -->
<svg version="1.1" xmlns="http://www.w3.org/2000/svg" width="32" height="32" viewBox="0 0 32 32">
<title>ul-adobe-alt</title>
<path fill="#ebebeb" d="M13.663 3.204c-0.242-0.359-0.647-0.591-1.107-0.591-0 0-0 0-0.001 0h-9.9c-0 0-0 0-0 0-0.736 0-1.333 0.597-1.333 1.333 0 0 0 0 0 0v-0 24.109c0 0.736 0.597 1.333 1.334 1.333 0.554 0 1.029-0.337 1.23-0.818l0.003-0.009 9.9-24.109c0.063-0.15 0.1-0.323 0.1-0.506 0-0.277-0.084-0.534-0.229-0.748l0.003 0.005zM3.989 21.297v-16.018h6.577zM29.322 2.613h-10.023c-0.736 0-1.333 0.597-1.333 1.333 0 0.187 0.038 0.364 0.108 0.526l-0.003-0.009 10.023 23.799c0.207 0.484 0.678 0.816 1.228 0.816v0c0.094-0 0.185-0.010 0.273-0.028l-0.009 0.002c0.614-0.128 1.069-0.664 1.070-1.307v-23.799c0-0 0-0 0-0 0-0.736-0.597-1.333-1.333-1.333-0 0-0 0-0 0h0zM27.989 21.144l-6.682-15.865h6.682zM17.266 12.693c-0.194-0.504-0.673-0.856-1.234-0.862h-0.014c-0 0-0 0-0 0-0.558 0-1.035 0.342-1.234 0.828l-0.003 0.009-4.079 10.174c-0.061 0.147-0.096 0.317-0.096 0.496 0 0.736 0.597 1.333 1.333 1.333 0 0 0 0 0 0h3.006l2.030 3.987c0.225 0.436 0.672 0.729 1.188 0.729 0 0 0 0 0 0h3.484c0.736-0 1.333-0.597 1.333-1.334 0-0.169-0.032-0.331-0.089-0.48l0.003 0.009zM18.981 26.722l-2.030-3.987c-0.225-0.436-0.672-0.729-1.188-0.729-0 0-0 0-0 0h-1.853l2.072-5.167 3.736 9.883z"></path>
</svg>
