<!-- Generated by IcoMoon.io -->
<svg version="1.1" xmlns="http://www.w3.org/2000/svg" width="32" height="32" viewBox="0 0 32 32">
<title>ul-brightness-plus</title>
<path fill="#ebebeb" d="M18.667 14.667h-1.333v-1.333c0-0.736-0.597-1.333-1.333-1.333s-1.333 0.597-1.333 1.333v0 1.333h-1.333c-0.736 0-1.333 0.597-1.333 1.333s0.597 1.333 1.333 1.333v0h1.333v1.333c0 0.736 0.597 1.333 1.333 1.333s1.333-0.597 1.333-1.333v0-1.333h1.333c0.736 0 1.333-0.597 1.333-1.333s-0.597-1.333-1.333-1.333v0zM28.947 15.053l-3.133-3.053v-4.48c0-0.736-0.597-1.333-1.333-1.333v0h-4.413l-3.12-3.133c-0.242-0.244-0.577-0.394-0.947-0.394s-0.705 0.151-0.947 0.394l-0 0-3.053 3.133h-4.48c-0.736 0-1.333 0.597-1.333 1.333v0 4.48l-3.133 3.053c-0.244 0.242-0.394 0.577-0.394 0.947s0.151 0.705 0.394 0.947l0 0 3.133 3.12v4.413c0 0.736 0.597 1.333 1.333 1.333v0h4.48l3.12 3.133c0.242 0.244 0.577 0.394 0.947 0.394s0.705-0.151 0.947-0.394l0-0 3.12-3.133h4.413c0.736 0 1.333-0.597 1.333-1.333v0-4.413l3.133-3.12c0.224-0.238 0.362-0.56 0.362-0.914 0-0.387-0.165-0.735-0.428-0.979l-0.001-0.001zM23.547 18.573c-0.246 0.241-0.398 0.576-0.4 0.946v3.627h-3.627c-0.371 0.002-0.706 0.154-0.946 0.4l-2.574 2.574-2.573-2.573c-0.241-0.246-0.576-0.398-0.946-0.4h-3.627v-3.627c-0.002-0.371-0.154-0.706-0.4-0.946l-2.574-2.574 2.573-2.573c0.246-0.241 0.398-0.576 0.4-0.946v-3.627h3.627c0.371-0.002 0.706-0.154 0.946-0.4l2.574-2.574 2.573 2.573c0.241 0.246 0.576 0.398 0.946 0.4h3.627v3.627c0.002 0.371 0.154 0.706 0.4 0.946l2.574 2.574z"></path>
</svg>
