<!-- Generated by IcoMoon.io -->
<svg version="1.1" xmlns="http://www.w3.org/2000/svg" width="32" height="32" viewBox="0 0 32 32">
<title>ul-brush-alt</title>
<path fill="#ebebeb" d="M16 24c-0.736 0-1.333 0.597-1.333 1.333s0.597 1.333 1.333 1.333c0.736 0 1.333-0.597 1.333-1.333v0c0-0.736-0.597-1.333-1.333-1.333v0zM24 1.333h-16c-0.736 0-1.333 0.597-1.333 1.333v0 12c0 2.209 1.791 4 4 4v0h1.333v3.16c-0.828 0.935-1.333 2.172-1.333 3.528 0 2.946 2.388 5.333 5.333 5.333s5.333-2.388 5.333-5.333c0-1.355-0.506-2.592-1.338-3.533l0.005 0.006v-3.16h1.333c2.209 0 4-1.791 4-4v0-12c0-0.736-0.597-1.333-1.333-1.333v0zM16 28c-1.464-0.011-2.646-1.201-2.646-2.667 0-0.781 0.336-1.484 0.871-1.971l0.002-0.002c0.27-0.244 0.439-0.596 0.44-0.986v-3.707h2.667v3.707c0.001 0.391 0.17 0.742 0.439 0.986l0.001 0.001c0.537 0.49 0.873 1.192 0.873 1.973 0 1.466-1.182 2.655-2.645 2.667h-0.001zM22.667 14.667c0 0.736-0.597 1.333-1.333 1.333v0h-10.667c-0.736 0-1.333-0.597-1.333-1.333v0-1.333h13.333zM22.667 10.667h-13.333v-6.667h13.333z"></path>
</svg>
