<!-- Generated by IcoMoon.io -->
<svg version="1.1" xmlns="http://www.w3.org/2000/svg" width="32" height="32" viewBox="0 0 32 32">
<title>ul-book</title>
<path fill="#ebebeb" d="M20 8h-8c-0.736 0-1.333 0.597-1.333 1.333v0 5.333c0 0.736 0.597 1.333 1.333 1.333v0h8c0.736 0 1.333-0.597 1.333-1.333v0-5.333c0-0.736-0.597-1.333-1.333-1.333v0zM18.667 13.333h-5.333v-2.667h5.333zM22.667 2.667h-16c-0.736 0-1.333 0.597-1.333 1.333v0 24c0 0.736 0.597 1.333 1.333 1.333v0h16c2.209 0 4-1.791 4-4v0-18.667c0-2.209-1.791-4-4-4v0zM24 25.333c0 0.736-0.597 1.333-1.333 1.333v0h-14.667v-21.333h14.667c0.736 0 1.333 0.597 1.333 1.333v0z"></path>
</svg>
