<!-- Generated by IcoMoon.io -->
<svg version="1.1" xmlns="http://www.w3.org/2000/svg" width="32" height="32" viewBox="0 0 32 32">
<title>ul-backpack</title>
<path fill="#ebebeb" d="M17.333 13.333h-2.667c-0.736 0-1.333 0.597-1.333 1.333s0.597 1.333 1.333 1.333v0h2.667c0.736 0 1.333-0.597 1.333-1.333s-0.597-1.333-1.333-1.333v0zM24 13.333c-0.008-2.465-1.687-4.535-3.963-5.138l-0.037-0.008v-1.52c0-2.209-1.791-4-4-4s-4 1.791-4 4v0 1.52c-2.313 0.612-3.992 2.682-4 5.146v0.001c-2.946 0-5.333 2.388-5.333 5.333v0 4c0 2.209 1.791 4 4 4v0h1.573c0.564 1.563 2.033 2.662 3.759 2.667h8.001c1.727-0.005 3.196-1.103 3.751-2.639l0.009-0.028h1.573c2.209 0 4-1.791 4-4v0-4c0-2.946-2.388-5.333-5.333-5.333v0zM8 24h-1.333c-0.736 0-1.333-0.597-1.333-1.333v0-4c0-1.473 1.194-2.667 2.667-2.667v0zM14.667 6.667c0-0.736 0.597-1.333 1.333-1.333s1.333 0.597 1.333 1.333v0 1.333h-2.667zM21.333 25.333c0 0.736-0.597 1.333-1.333 1.333v0h-8c-0.736 0-1.333-0.597-1.333-1.333v0-1.333c0-1.473 1.194-2.667 2.667-2.667v0h5.333c1.473 0 2.667 1.194 2.667 2.667v0zM21.333 19.413c-0.761-0.465-1.681-0.742-2.665-0.747h-5.335c-0.986 0.004-1.906 0.281-2.69 0.76l0.023-0.013v-6.080c0-1.473 1.194-2.667 2.667-2.667v0h5.333c1.473 0 2.667 1.194 2.667 2.667v0zM26.667 22.667c0 0.736-0.597 1.333-1.333 1.333v0h-1.333v-8c1.473 0 2.667 1.194 2.667 2.667v0z"></path>
</svg>
