<!-- Generated by IcoMoon.io -->
<svg version="1.1" xmlns="http://www.w3.org/2000/svg" width="32" height="32" viewBox="0 0 32 32">
<title>ul-book-alt</title>
<path fill="#ebebeb" d="M24 2.667h-13.333c-2.946 0-5.333 2.388-5.333 5.333v0 16c0 2.946 2.388 5.333 5.333 5.333v0h13.333c1.473 0 2.667-1.194 2.667-2.667v0-21.333c0-1.473-1.194-2.667-2.667-2.667v0zM8 8c0-1.473 1.194-2.667 2.667-2.667v0h13.333v13.333h-13.333c-0.986 0.004-1.906 0.281-2.69 0.76l0.023-0.013zM10.667 26.667c-1.473 0-2.667-1.194-2.667-2.667s1.194-2.667 2.667-2.667v0h13.333v5.333zM13.333 10.667h5.333c0.736 0 1.333-0.597 1.333-1.333s-0.597-1.333-1.333-1.333v0h-5.333c-0.736 0-1.333 0.597-1.333 1.333s0.597 1.333 1.333 1.333v0z"></path>
</svg>
