<!-- Generated by IcoMoon.io -->
<svg version="1.1" xmlns="http://www.w3.org/2000/svg" width="32" height="32" viewBox="0 0 32 32">
<title>ul-caret-right</title>
<path fill="#ebebeb" d="M26 14.84l-18.667-10.773c-0.191-0.112-0.421-0.179-0.667-0.179s-0.475 0.066-0.673 0.182l0.006-0.003c-0.401 0.235-0.667 0.664-0.667 1.155 0 0.002 0 0.004 0 0.006v-0 21.547c0 0.002 0 0.003 0 0.005 0 0.491 0.265 0.92 0.66 1.151l0.006 0.003c0.191 0.112 0.421 0.179 0.667 0.179s0.475-0.066 0.673-0.182l-0.006 0.003 18.667-10.773c0.407-0.234 0.676-0.665 0.676-1.16s-0.269-0.926-0.669-1.157l-0.006-0.003zM8 24.467v-16.933l14.667 8.467z"></path>
</svg>
