<!-- Generated by IcoMoon.io -->
<svg version="1.1" xmlns="http://www.w3.org/2000/svg" width="32" height="32" viewBox="0 0 32 32">
<title>ul-chat</title>
<path fill="#ebebeb" d="M24 2.667h-16c-2.209 0-4 1.791-4 4v0 14.667c0 2.209 1.791 4 4 4v0h3.453l3.6 3.613c0.241 0.239 0.573 0.387 0.939 0.387 0.003 0 0.005 0 0.008-0h-0c0 0 0 0 0 0 0.332 0 0.635-0.121 0.868-0.322l-0.002 0.002 4.293-3.68h2.84c2.209 0 4-1.791 4-4v0-14.667c0-2.209-1.791-4-4-4v0zM25.333 21.333c0 0.736-0.597 1.333-1.333 1.333v0h-3.333c-0 0-0 0-0 0-0.332 0-0.635 0.121-0.868 0.322l0.002-0.002-3.733 3.2-3.12-3.133c-0.241-0.239-0.573-0.387-0.939-0.387-0.003 0-0.005 0-0.008 0h-4c-0.736 0-1.333-0.597-1.333-1.333v0-14.667c0-0.736 0.597-1.333 1.333-1.333v0h16c0.736 0 1.333 0.597 1.333 1.333v0z"></path>
</svg>
