<!-- Generated by IcoMoon.io -->
<svg version="1.1" xmlns="http://www.w3.org/2000/svg" width="32" height="32" viewBox="0 0 32 32">
<title>ul-coffee</title>
<path fill="#ebebeb" d="M12 22.667h5.333c3.682 0 6.667-2.985 6.667-6.667v0-1.333h1.333c2.209 0 4-1.791 4-4s-1.791-4-4-4v0h-1.333v-1.333c0-0.736-0.597-1.333-1.333-1.333v0h-16c-0.736 0-1.333 0.597-1.333 1.333v0 10.667c0 3.682 2.985 6.667 6.667 6.667v0zM24 9.333h1.333c0.736 0 1.333 0.597 1.333 1.333s-0.597 1.333-1.333 1.333v0h-1.333zM8 6.667h13.333v9.333c0 2.209-1.791 4-4 4v0h-5.333c-2.209 0-4-1.791-4-4v0zM28 25.333h-24c-0.736 0-1.333 0.597-1.333 1.333s0.597 1.333 1.333 1.333v0h24c0.736 0 1.333-0.597 1.333-1.333s-0.597-1.333-1.333-1.333v0z"></path>
</svg>
