<!-- Generated by IcoMoon.io -->
<svg version="1.1" xmlns="http://www.w3.org/2000/svg" width="32" height="32" viewBox="0 0 32 32">
<title>ul-corner-down-left</title>
<path fill="#ebebeb" d="M24.92 2.667c-0.736 0-1.333 0.597-1.333 1.333v0 13.827c0 1.473-1.194 2.667-2.667 2.667v0h-10.667l3.893-3.893c0.217-0.236 0.35-0.553 0.35-0.901 0-0.736-0.597-1.333-1.333-1.333-0.321 0-0.616 0.114-0.846 0.303l0.002-0.002-6.173 6.213c-0.118 0.125-0.216 0.271-0.289 0.43l-0.004 0.010c-0.063 0.15-0.1 0.324-0.1 0.507s0.037 0.357 0.103 0.515l-0.003-0.009c0.071 0.171 0.17 0.318 0.293 0.44l6.173 6.173c0.24 0.238 0.569 0.385 0.933 0.387h0c0.002 0 0.005 0 0.008 0 0.366 0 0.698-0.148 0.939-0.387l-0 0c0.244-0.242 0.394-0.577 0.394-0.947s-0.151-0.705-0.394-0.947l-3.893-3.893h10.667c2.946 0 5.333-2.388 5.333-5.333v0-13.827c0-0 0-0.001 0-0.001 0-0.736-0.597-1.333-1.333-1.333-0.019 0-0.037 0-0.056 0.001l0.003-0z"></path>
</svg>
