<!-- Generated by IcoMoon.io -->
<svg version="1.1" xmlns="http://www.w3.org/2000/svg" width="32" height="32" viewBox="0 0 32 32">
<title>ul-comment-alt-download</title>
<path fill="#ebebeb" d="M8.16 15.893c0.149 0.068 0.323 0.107 0.507 0.107s0.358-0.039 0.515-0.11l-0.008 0.003c0.171-0.067 0.317-0.162 0.44-0.28l-0 0 4-4c0.242-0.242 0.392-0.577 0.392-0.947 0-0.739-0.599-1.339-1.339-1.339-0.37 0-0.704 0.15-0.947 0.392v0l-1.72 1.733v-7.453c0-0.736-0.597-1.333-1.333-1.333s-1.333 0.597-1.333 1.333v0 7.453l-1.72-1.733c-0.242-0.242-0.577-0.392-0.947-0.392-0.739 0-1.339 0.599-1.339 1.339 0 0.37 0.15 0.704 0.392 0.947l4 4c0.123 0.118 0.269 0.213 0.431 0.277l0.009 0.003zM24.667 8h-6.667c-0.736 0-1.333 0.597-1.333 1.333s0.597 1.333 1.333 1.333v0h6.667c0.736 0 1.333 0.597 1.333 1.333v0 12.96l-2.093-1.933c-0.237-0.222-0.556-0.359-0.906-0.36h-11.667c-0.736 0-1.333-0.597-1.333-1.333v0-1.333c0-0.736-0.597-1.333-1.333-1.333s-1.333 0.597-1.333 1.333v0 1.333c0 2.209 1.791 4 4 4v0h11.147l4 3.64c0.237 0.222 0.556 0.359 0.906 0.36h0c0.193-0.002 0.376-0.041 0.543-0.11l-0.010 0.004c0.475-0.211 0.8-0.679 0.8-1.222 0-0.002 0-0.003 0-0.005v0-16c0-0 0-0 0-0 0-2.209-1.791-4-4-4-0.019 0-0.037 0-0.056 0l0.003-0z"></path>
</svg>
