<!-- Generated by IcoMoon.io -->
<svg version="1.1" xmlns="http://www.w3.org/2000/svg" width="32" height="32" viewBox="0 0 32 32">
<title>ul-chart-pie-alt</title>
<path fill="#ebebeb" d="M25.333 16h-9.333v-9.333c0-0.8-0.533-1.333-1.333-1.333-6.667 0-12 5.333-12 12s5.333 12 12 12 12-5.333 12-12c0-0.8-0.533-1.333-1.333-1.333zM16 26.533c-5.067 0.8-9.867-2.8-10.533-7.867-0.8-5.067 2.8-9.867 7.867-10.533v9.2c0 0.8 0.533 1.333 1.333 1.333h9.2c-0.533 4.133-3.733 7.333-7.867 7.867zM20 2.667c-0.8 0-1.333 0.533-1.333 1.333v8c0 0.8 0.533 1.333 1.333 1.333h8c0.8 0 1.333-0.533 1.333-1.333 0-5.2-4.133-9.333-9.333-9.333zM21.333 10.667v-5.2c2.667 0.533 4.667 2.533 5.2 5.2h-5.2z"></path>
</svg>
