<!-- Generated by IcoMoon.io -->
<svg version="1.1" xmlns="http://www.w3.org/2000/svg" width="32" height="32" viewBox="0 0 32 32">
<title>ul-comment-shield</title>
<path fill="#ebebeb" d="M28.933 3.813c-0.227-0.185-0.52-0.297-0.839-0.297-0.1 0-0.197 0.011-0.29 0.032l0.009-0.002c-0.244 0.053-0.525 0.083-0.812 0.083-0.859 0-1.655-0.271-2.307-0.732l0.013 0.008c-0.213-0.152-0.479-0.242-0.767-0.242s-0.553 0.091-0.771 0.245l0.004-0.003c-0.639 0.453-1.435 0.723-2.294 0.723-0.288 0-0.568-0.030-0.839-0.088l0.026 0.005c-0.085-0.019-0.182-0.030-0.281-0.030-0.319 0-0.612 0.112-0.841 0.299l0.002-0.002c-0.3 0.245-0.491 0.613-0.493 1.026v4.494c0.005 2.027 1.001 3.82 2.529 4.921l0.018 0.012 2.16 1.547c0.216 0.158 0.487 0.252 0.78 0.252s0.564-0.094 0.784-0.255l-0.004 0.003 2.16-1.547c1.546-1.114 2.542-2.907 2.547-4.933v-4.494c-0.003-0.414-0.194-0.782-0.491-1.025l-0.002-0.002zM26.76 9.333c-0.039 1.098-0.588 2.060-1.417 2.66l-0.010 0.007-1.333 0.987-1.453-0.987c-0.839-0.607-1.388-1.569-1.427-2.661l-0-0.006v-3.040c1.056-0.035 2.042-0.302 2.919-0.751l-0.039 0.018c0.818 0.424 1.78 0.69 2.8 0.733l0.014 0zM25.24 18.667c-0.097-0.025-0.208-0.040-0.322-0.040-0.618 0-1.137 0.42-1.289 0.99l-0.002 0.009c-1.059 4.078-4.707 7.040-9.047 7.040-0.002 0-0.004 0-0.006 0h-7.44l0.867-0.84c0.224-0.238 0.362-0.56 0.362-0.913s-0.138-0.675-0.363-0.914l0.001 0.001c-1.729-1.695-2.801-4.056-2.801-6.667 0-5.155 4.179-9.333 9.333-9.333 0.015 0 0.029 0 0.044 0h-0.002c0.736 0 1.333-0.597 1.333-1.333s-0.597-1.333-1.333-1.333v0c-6.61 0.022-11.961 5.386-11.961 12 0 2.846 0.99 5.46 2.645 7.517l-0.018-0.023-2.267 2.227c-0.244 0.242-0.394 0.577-0.394 0.947 0 0.734 0.594 1.33 1.327 1.333h10.667c0.002 0 0.005 0 0.008 0 5.561 0 10.239-3.783 11.6-8.916l0.019-0.084c0.034-0.112 0.053-0.24 0.053-0.372 0-0.623-0.427-1.146-1.004-1.292l-0.009-0.002z"></path>
</svg>
