<!-- Generated by IcoMoon.io -->
<svg version="1.1" xmlns="http://www.w3.org/2000/svg" width="32" height="32" viewBox="0 0 32 32">
<title>ul-chart-pie</title>
<path fill="#ebebeb" d="M16 2.667c-0.007 0-0.016-0-0.024-0-7.364 0-13.333 5.97-13.333 13.333s5.97 13.333 13.333 13.333c2.427 0 4.702-0.648 6.662-1.781l-0.064 0.034h0.16c4.053-2.339 6.737-6.65 6.737-11.587 0-7.364-5.97-13.333-13.333-13.333-0.048 0-0.096 0-0.144 0.001l0.007-0zM17.333 5.427c4.829 0.63 8.61 4.411 9.234 9.186l0.006 0.054h-9.24zM16 26.667c-5.86-0.041-10.594-4.801-10.594-10.666 0-5.395 4.006-9.855 9.205-10.567l0.056-0.006v10.573c0.006 0.169 0.039 0.329 0.097 0.477l-0.003-0.010v0.2l5.333 9.16c-1.207 0.53-2.614 0.839-4.093 0.84h-0zM22.44 24.48l-4.133-7.147h8.267c-0.384 2.931-1.91 5.447-4.108 7.128l-0.026 0.019z"></path>
</svg>
