<!-- Generated by IcoMoon.io -->
<svg version="1.1" xmlns="http://www.w3.org/2000/svg" width="32" height="32" viewBox="0 0 32 32">
<title>ul-comment-alt-search</title>
<path fill="#ebebeb" d="M25.333 8h-6.667c-0.736 0-1.333 0.597-1.333 1.333s0.597 1.333 1.333 1.333v0h6.667c0.736 0 1.333 0.597 1.333 1.333v0 12.96l-2.093-1.933c-0.237-0.222-0.556-0.359-0.906-0.36h-11.667c-0.736 0-1.333-0.597-1.333-1.333v0-2.667c0-0.736-0.597-1.333-1.333-1.333s-1.333 0.597-1.333 1.333v0 2.667c0 2.209 1.791 4 4 4v0h11.147l4 3.64c0.224 0.211 0.522 0.345 0.85 0.36l0.003 0c0.193-0.002 0.376-0.041 0.543-0.11l-0.010 0.004c0.475-0.211 0.8-0.679 0.8-1.222 0-0.002 0-0.003 0-0.005v0-16c0-2.209-1.791-4-4-4v0zM11.427 13.333l2.293 2.307c0.242 0.244 0.577 0.394 0.947 0.394s0.705-0.151 0.947-0.394l0-0c0.244-0.242 0.394-0.577 0.394-0.947s-0.151-0.705-0.394-0.947l-0-0-2.28-2.32c0.536-0.857 0.858-1.897 0.867-3.011v-0.002c0-3.185-2.582-5.767-5.767-5.767s-5.767 2.582-5.767 5.767v0c0 0 0 0 0 0 0 3.176 2.571 5.752 5.746 5.76h0.001c0.002 0 0.005 0 0.007 0 1.111 0 2.149-0.313 3.032-0.854l-0.025 0.014zM5.333 8.413c0-0.001 0-0.001 0-0.002 0-0.849 0.347-1.618 0.906-2.171l0-0c0.562-0.575 1.346-0.932 2.213-0.932s1.651 0.357 2.213 0.932l0.001 0.001c0.579 0.561 0.938 1.345 0.938 2.213s-0.359 1.653-0.937 2.213l-0.001 0.001c-0.565 0.593-1.36 0.963-2.242 0.963-1.708 0-3.093-1.385-3.093-3.093 0-0.043 0.001-0.086 0.003-0.129l-0 0.006z"></path>
</svg>
