<!-- Generated by IcoMoon.io -->
<svg version="1.1" xmlns="http://www.w3.org/2000/svg" width="32" height="32" viewBox="0 0 32 32">
<title>ul-cloud-exclamation</title>
<path fill="#ebebeb" d="M16.947 25.053c-0.125-0.114-0.271-0.208-0.43-0.276l-0.010-0.004c-0.153-0.066-0.33-0.104-0.517-0.104-0.365 0-0.696 0.147-0.937 0.384l0-0c-0.235 0.246-0.381 0.579-0.387 0.946v0.001c0 0.002-0 0.005-0 0.008 0 0.366 0.148 0.698 0.387 0.939l-0-0c0.125 0.114 0.271 0.208 0.43 0.276l0.010 0.004c0.147 0.060 0.317 0.095 0.495 0.095 0.736 0 1.333-0.597 1.333-1.333 0-0.178-0.035-0.349-0.099-0.504l0.003 0.009c-0.067-0.171-0.162-0.317-0.28-0.44l0 0zM16 16.667c-0.736 0-1.333 0.597-1.333 1.333v0 4c0 0.736 0.597 1.333 1.333 1.333s1.333-0.597 1.333-1.333v0-4c0-0.736-0.597-1.333-1.333-1.333v0zM24.56 10.28c-1.476-3.327-4.75-5.606-8.557-5.606-4.734 0-8.644 3.524-9.251 8.092l-0.005 0.048c-2.365 0.58-4.091 2.682-4.091 5.187 0 2.946 2.388 5.333 5.333 5.333 0.004 0 0.008 0 0.012 0h2.666c0.736 0 1.333-0.597 1.333-1.333s-0.597-1.333-1.333-1.333v0h-2.667c-1.473 0-2.667-1.194-2.667-2.667s1.194-2.667 2.667-2.667v0c0.736 0 1.333-0.597 1.333-1.333v0c0.008-3.676 2.99-6.652 6.667-6.652 2.908 0 5.381 1.862 6.292 4.459l0.014 0.047c0.161 0.458 0.553 0.796 1.032 0.879l0.008 0.001c1.875 0.355 3.274 1.981 3.274 3.934 0 2.193-1.765 3.974-3.952 4l-0.002 0h-1.333c-0.736 0-1.333 0.597-1.333 1.333s0.597 1.333 1.333 1.333v0h1.333c3.674-0.010 6.648-2.991 6.648-6.667 0-3-1.982-5.537-4.708-6.374l-0.047-0.012z"></path>
</svg>
