<!-- Generated by IcoMoon.io -->
<svg version="1.1" xmlns="http://www.w3.org/2000/svg" width="32" height="32" viewBox="0 0 32 32">
<title>ul-comments-alt</title>
<path fill="#ebebeb" d="M25.333 10.667h-1.333v-4c0-2.209-1.791-4-4-4v0h-13.333c-2.209 0-4 1.791-4 4v0 16c0.003 0.551 0.339 1.023 0.818 1.223l0.009 0.003c0.14 0.068 0.304 0.107 0.478 0.107 0.010 0 0.020-0 0.030-0l-0.002 0c0.002 0 0.005 0 0.008 0 0.366 0 0.698-0.148 0.939-0.387l-0 0 3.747-3.76h1.973v1.92c0 2.209 1.791 4 4 4v0h9.227l3.16 3.173c0.241 0.239 0.573 0.387 0.939 0.387 0.003 0 0.005 0 0.008-0h-0c0.009 0 0.019 0 0.029 0 0.174 0 0.338-0.039 0.485-0.11l-0.007 0.003c0.487-0.204 0.824-0.676 0.827-1.226v-13.334c0-2.209-1.791-4-4-4v0zM10.667 14.667v2.52h-2.52c-0.002 0-0.005-0-0.008-0-0.366 0-0.698 0.148-0.939 0.387l0-0-1.867 1.88v-12.787c0-0.736 0.597-1.333 1.333-1.333v0h13.333c0.736 0 1.333 0.597 1.333 1.333v0 4h-6.667c-2.209 0-4 1.791-4 4v0zM26.667 24.787l-1.333-1.333c-0.241-0.246-0.576-0.398-0.946-0.4h-9.72c-0.736 0-1.333-0.597-1.333-1.333v0-7.053c0-0.736 0.597-1.333 1.333-1.333v0h10.667c0.736 0 1.333 0.597 1.333 1.333v0z"></path>
</svg>
