<!-- Generated by IcoMoon.io -->
<svg version="1.1" xmlns="http://www.w3.org/2000/svg" width="32" height="32" viewBox="0 0 32 32">
<title>ul-comment-alt-question</title>
<path fill="#ebebeb" d="M8.387 13.733c-0.24 0.241-0.388 0.574-0.388 0.941 0 0.736 0.597 1.333 1.333 1.333 0.183 0 0.358-0.037 0.517-0.104l-0.009 0.003c0.169-0.077 0.315-0.175 0.441-0.294l-0.001 0.001c0.117-0.119 0.211-0.261 0.277-0.418l0.003-0.009c0.068-0.141 0.107-0.307 0.107-0.481 0-0.014-0-0.027-0.001-0.041l0 0.002c-0.002-0.364-0.149-0.694-0.387-0.933l0 0c-0.242-0.244-0.577-0.394-0.947-0.394s-0.705 0.151-0.947 0.394l-0 0zM9.333 6.667c0.736 0 1.333 0.597 1.333 1.333s-0.597 1.333-1.333 1.333v0c-0.736 0-1.333 0.597-1.333 1.333s0.597 1.333 1.333 1.333v0c2.208-0.001 3.997-1.792 3.997-4s-1.791-4-4-4c-1.473 0-2.76 0.796-3.454 1.981l-0.010 0.019c-0.113 0.192-0.18 0.422-0.18 0.668 0 0.493 0.268 0.924 0.667 1.155l0.006 0.003c0.189 0.109 0.416 0.174 0.658 0.174 0.491 0 0.92-0.266 1.152-0.661l0.003-0.006c0.235-0.401 0.664-0.667 1.155-0.667 0.002 0 0.004 0 0.006 0h-0zM25.333 8h-8c-0.736 0-1.333 0.597-1.333 1.333s0.597 1.333 1.333 1.333v0h8c0.736 0 1.333 0.597 1.333 1.333v0 12.96l-2.093-1.933c-0.237-0.222-0.556-0.359-0.906-0.36h-11.667c-0.736 0-1.333-0.597-1.333-1.333v0-1.333c0-0.736-0.597-1.333-1.333-1.333s-1.333 0.597-1.333 1.333v0 1.333c0 2.209 1.791 4 4 4v0h11.147l4 3.64c0.224 0.211 0.522 0.345 0.85 0.36l0.003 0c0.193-0.002 0.376-0.041 0.543-0.11l-0.010 0.004c0.475-0.211 0.8-0.679 0.8-1.222 0-0.002 0-0.003 0-0.005v0-16c0-2.209-1.791-4-4-4v0z"></path>
</svg>
