<!-- Generated by IcoMoon.io -->
<svg version="1.1" xmlns="http://www.w3.org/2000/svg" width="32" height="32" viewBox="0 0 32 32">
<title>ul-cloud-rain</title>
<path fill="#ebebeb" d="M16.747 16.893c-0.209-0.143-0.468-0.229-0.747-0.229s-0.537 0.085-0.751 0.232l0.005-0.003c-0.147 0.107-3.587 2.48-3.587 6.107 0 2.393 1.94 4.333 4.333 4.333s4.333-1.94 4.333-4.333v0c0-3.667-3.44-6.013-3.587-6.107zM16 24.667c-0.92 0-1.667-0.746-1.667-1.667v0c0.117-1.311 0.736-2.457 1.661-3.262l0.006-0.005c0.936 0.805 1.557 1.954 1.666 3.249l0.001 0.018c0 0.92-0.746 1.667-1.667 1.667v0zM24.56 10.293c-1.475-3.329-4.75-5.609-8.558-5.609-4.73 0-8.638 3.519-9.25 8.081l-0.005 0.048c-2.35 0.591-4.062 2.685-4.062 5.18 0 2.784 2.134 5.070 4.855 5.312l0.020 0.001h0.107c0.001 0 0.003 0 0.004 0 0.699 0 1.272-0.538 1.329-1.222l0-0.005c0.003-0.033 0.005-0.072 0.005-0.111 0-0.7-0.54-1.275-1.227-1.329l-0.005-0c-1.366-0.12-2.431-1.254-2.44-2.639v-0.001c0-1.473 1.194-2.667 2.667-2.667v0c0.736 0 1.333-0.597 1.333-1.333v0c0.008-3.676 2.99-6.652 6.667-6.652 2.908 0 5.381 1.862 6.292 4.459l0.014 0.047c0.157 0.463 0.55 0.807 1.032 0.892l0.008 0.001c1.878 0.353 3.28 1.98 3.28 3.935 0 1.746-1.119 3.231-2.679 3.777l-0.028 0.009c-0.514 0.193-0.873 0.68-0.873 1.251 0 0.736 0.597 1.333 1.333 1.333 0.13 0 0.256-0.019 0.375-0.054l-0.009 0.002c2.67-0.911 4.556-3.397 4.556-6.324 0-2.996-1.976-5.53-4.695-6.37l-0.047-0.013z"></path>
</svg>
