<!-- Generated by IcoMoon.io -->
<svg version="1.1" xmlns="http://www.w3.org/2000/svg" width="32" height="32" viewBox="0 0 32 32">
<title>ul-cloud-redo</title>
<path fill="#ebebeb" d="M20 16.667c-0.54 0.004-1.003 0.328-1.21 0.792l-0.003 0.008c-0.796-0.499-1.764-0.794-2.801-0.794-2.946 0-5.333 2.388-5.333 5.333s2.388 5.333 5.333 5.333c1.358 0 2.598-0.508 3.539-1.344l-0.006 0.005c0.304-0.246 0.497-0.62 0.497-1.038 0-0.736-0.597-1.333-1.333-1.333-0.359 0-0.684 0.142-0.924 0.372l0-0c-0.467 0.413-1.084 0.666-1.76 0.667h-0c-1.454-0.024-2.624-1.209-2.624-2.666 0-1.473 1.194-2.667 2.667-2.667 0.474 0 0.918 0.123 1.304 0.34l-0.013-0.007h-0.293c-0.736 0-1.333 0.597-1.333 1.333s0.597 1.333 1.333 1.333v0h2.96c0.736 0 1.333-0.597 1.333-1.333v0-3c0-0.736-0.597-1.333-1.333-1.333v0zM24.56 10.293c-1.475-3.329-4.75-5.609-8.558-5.609-4.73 0-8.638 3.519-9.25 8.081l-0.005 0.048c-2.355 0.588-4.071 2.684-4.071 5.182 0 2.312 1.471 4.28 3.527 5.020l0.037 0.012c0.127 0.041 0.274 0.065 0.426 0.067h0.001c0.064 0.011 0.138 0.017 0.213 0.017 0.746 0 1.35-0.605 1.35-1.35 0-0.67-0.489-1.227-1.129-1.332l-0.008-0.001c-1.010-0.372-1.725-1.312-1.76-2.422l-0-0.004c0-1.473 1.194-2.667 2.667-2.667v0c0.736 0 1.333-0.597 1.333-1.333v0c0.008-3.676 2.99-6.652 6.667-6.652 2.908 0 5.381 1.862 6.292 4.459l0.014 0.047c0.157 0.463 0.55 0.807 1.032 0.892l0.008 0.001c1.882 0.35 3.288 1.979 3.288 3.936 0 1.454-0.776 2.727-1.936 3.427l-0.018 0.010c-0.404 0.235-0.671 0.666-0.671 1.16 0 0.739 0.599 1.338 1.338 1.338 0.245 0 0.475-0.066 0.673-0.181l-0.006 0.003c1.999-1.176 3.32-3.317 3.32-5.766 0-0.003 0-0.005 0-0.008v0c-0.009-2.999-1.997-5.532-4.726-6.361l-0.047-0.012z"></path>
</svg>
