<!-- Generated by IcoMoon.io -->
<svg version="1.1" xmlns="http://www.w3.org/2000/svg" width="32" height="32" viewBox="0 0 32 32">
<title>ul-diary</title>
<path fill="#ebebeb" d="M22.667 2.667h-16c-0.736 0-1.333 0.597-1.333 1.333v0 21.333c0 0.736 0.597 1.333 1.333 1.333v0h1.333v1.333c0 0.736 0.597 1.333 1.333 1.333v0 0c0.736 0 1.333-0.597 1.333-1.333v0-1.333h12c2.209 0 4-1.791 4-4v0-16c0-2.209-1.791-4-4-4v0zM18.667 24h-10.667v-18.667h10.667zM24 22.667c0 0.736-0.597 1.333-1.333 1.333v0h-1.333v-18.667h1.333c0.736 0 1.333 0.597 1.333 1.333v0z"></path>
</svg>
