<!-- Generated by IcoMoon.io -->
<svg version="1.1" xmlns="http://www.w3.org/2000/svg" width="32" height="32" viewBox="0 0 32 32">
<title>ul-ear</title>
<path fill="#ebebeb" d="M16 10.667c0.736 0.001 1.333 0.597 1.333 1.333v0c0 0.736 0.597 1.333 1.333 1.333s1.333-0.597 1.333-1.333v0c-0.001-2.208-1.791-3.997-3.999-3.997s-3.999 1.791-3.999 3.999c0 1.171 0.503 2.225 1.305 2.956l0.003 0.003c0.013 0.012 0.215 0.227 0.258 0.286 0.145 0.209 0.232 0.467 0.232 0.746s-0.087 0.538-0.235 0.75l0.003-0.004c-0.146 0.211-0.234 0.472-0.234 0.754 0 0.736 0.597 1.333 1.333 1.333 0.454 0 0.855-0.227 1.096-0.574l0.003-0.004c0.438-0.63 0.701-1.412 0.701-2.254 0-0.847-0.265-1.632-0.716-2.277l0.008 0.013c-0.216-0.271-0.431-0.513-0.656-0.744l0.002 0.002c-0.078-0.072-0.148-0.151-0.208-0.238l-0.003-0.005c-0.142-0.209-0.227-0.466-0.227-0.744 0-0.737 0.597-1.334 1.333-1.334h0zM16 2.667c-5.155 0-9.333 4.179-9.333 9.334 0 0.859 0.116 1.69 0.333 2.48l-0.015-0.066c0.159 0.571 0.675 0.983 1.286 0.983 0.736 0 1.333-0.597 1.333-1.333 0-0.121-0.016-0.238-0.046-0.349l0.002 0.009c-0.144-0.517-0.227-1.112-0.227-1.725 0-3.682 2.985-6.667 6.667-6.667s6.667 2.985 6.667 6.667v0c-0.006 1.263-0.355 2.443-0.957 3.454l0.017-0.031-4.751 9.91c-0.47 0.802-1.327 1.332-2.308 1.333h-0c-1.465-0.020-2.647-1.202-2.667-2.665l-0-0.002c0-0 0-0 0-0 0-0.491 0.133-0.95 0.365-1.344l-0.007 0.012c0.113-0.192 0.179-0.422 0.179-0.668 0-0.737-0.597-1.334-1.334-1.334-0.491 0-0.92 0.265-1.152 0.66l-0.003 0.006c-0.45 0.766-0.716 1.686-0.716 2.669 0 2.945 2.387 5.332 5.332 5.332 2 0 3.742-1.101 4.655-2.729l0.014-0.027 4.751-9.91c0.786-1.339 1.25-2.948 1.25-4.666 0-5.155-4.179-9.334-9.333-9.334h-0z"></path>
</svg>
