<!-- Generated by IcoMoon.io -->
<svg version="1.1" xmlns="http://www.w3.org/2000/svg" width="32" height="32" viewBox="0 0 32 32">
<title>ul-expand-right</title>
<path fill="#ebebeb" d="M11.333 18.8l-6 6v-2.133c0-0.8-0.533-1.333-1.333-1.333s-1.333 0.533-1.333 1.333v5.333c0 0.133 0 0.4 0.133 0.533 0.133 0.267 0.4 0.533 0.667 0.667 0.133 0.133 0.4 0.133 0.533 0.133h5.333c0.8 0 1.333-0.533 1.333-1.333s-0.533-1.333-1.333-1.333h-2.133l6-6c0.533-0.533 0.533-1.333 0-1.867s-1.333-0.533-1.867 0zM28.933 3.067c0 0 0 0 0 0-0.267-0.267-0.667-0.4-0.933-0.4h-5.333c-0.8 0-1.333 0.533-1.333 1.333s0.533 1.333 1.333 1.333h2.133l-6 6c-0.533 0.533-0.533 1.333 0 1.867v0c0.267 0.267 0.533 0.4 0.933 0.4s0.667-0.133 0.933-0.4l6-6v2.133c0 0.8 0.533 1.333 1.333 1.333s1.333-0.533 1.333-1.333v-5.333c0-0.267-0.133-0.667-0.4-0.933zM20.667 18.8l-7.467-7.467c-0.533-0.533-1.333-0.533-1.867 0s-0.533 1.333 0 1.867l7.6 7.6c0.267 0.267 0.533 0.4 0.933 0.4s0.667-0.133 0.933-0.4c0.4-0.533 0.4-1.467-0.133-2 0 0 0 0 0 0z"></path>
</svg>
