<!-- Generated by IcoMoon.io -->
<svg version="1.1" xmlns="http://www.w3.org/2000/svg" width="32" height="32" viewBox="0 0 32 32">
<title>ul-envelope-alt</title>
<path fill="#ebebeb" d="M25.333 5.333h-18.667c-2.209 0-4 1.791-4 4v0 13.333c0 2.209 1.791 4 4 4v0h18.667c2.209 0 4-1.791 4-4v0-13.333c0-2.209-1.791-4-4-4v0zM6.667 8h18.667c0.736 0 1.333 0.597 1.333 1.333v0l-10.667 6.507-10.667-6.507c0-0.736 0.597-1.333 1.333-1.333v0zM26.667 22.667c0 0.736-0.597 1.333-1.333 1.333v0h-18.667c-0.736 0-1.333-0.597-1.333-1.333v0-10.293l9.973 6.093c0.191 0.112 0.421 0.179 0.667 0.179s0.475-0.066 0.673-0.182l-0.006 0.003 10.027-6.093z"></path>
</svg>
