<!-- Generated by IcoMoon.io -->
<svg version="1.1" xmlns="http://www.w3.org/2000/svg" width="32" height="32" viewBox="0 0 32 32">
<title>ul-exclamation-triangle</title>
<path fill="#ebebeb" d="M16 21.333c-0.736 0-1.333 0.597-1.333 1.333s0.597 1.333 1.333 1.333c0.736 0 1.333-0.597 1.333-1.333v0c0-0.736-0.597-1.333-1.333-1.333v0zM30.227 23.293l-10.733-18.667c-0.697-1.233-2-2.051-3.493-2.051s-2.796 0.819-3.483 2.032l-0.010 0.020-10.667 18.667c-0.351 0.583-0.559 1.287-0.559 2.040 0 2.2 1.775 3.984 3.971 4h21.495c0.012 0 0.026 0 0.039 0 2.209 0 4-1.791 4-4 0-0.753-0.208-1.457-0.57-2.058l0.010 0.018zM27.92 25.96c-0.233 0.409-0.666 0.68-1.162 0.68-0.004 0-0.008-0-0.012-0h-21.493c-0.003 0-0.007 0-0.011 0-0.496 0-0.929-0.271-1.159-0.674l-0.003-0.007c-0.112-0.191-0.179-0.421-0.179-0.667s0.066-0.475 0.182-0.673l-0.003 0.006 10.667-18.667c0.226-0.434 0.672-0.725 1.187-0.725s0.961 0.291 1.183 0.718l0.003 0.007 10.733 18.667c0.139 0.207 0.222 0.462 0.222 0.736 0 0.228-0.057 0.443-0.158 0.631l0.003-0.007zM16 10.667c-0.736 0-1.333 0.597-1.333 1.333v0 5.333c0 0.736 0.597 1.333 1.333 1.333s1.333-0.597 1.333-1.333v0-5.333c0-0.736-0.597-1.333-1.333-1.333v0z"></path>
</svg>
