<!-- Generated by IcoMoon.io -->
<svg version="1.1" xmlns="http://www.w3.org/2000/svg" width="32" height="32" viewBox="0 0 32 32">
<title>ul-file-heart</title>
<path fill="#ebebeb" d="M26.667 11.92c-0.015-0.134-0.044-0.256-0.084-0.372l0.004 0.012v-0.12c-0.068-0.143-0.153-0.267-0.254-0.374l0.001 0.001-8-8c-0.107-0.101-0.23-0.185-0.365-0.25l-0.009-0.004h-0.133c-0.119-0.065-0.258-0.116-0.404-0.145l-0.009-0.002h-8.080c-2.209 0-4 1.791-4 4v0 18.667c0 2.209 1.791 4 4 4v0h13.333c2.209 0 4-1.791 4-4v0-13.333s0 0 0-0.080zM18.667 7.213l3.453 3.453h-2.12c-0.736 0-1.333-0.597-1.333-1.333v0zM24 25.333c0 0.736-0.597 1.333-1.333 1.333v0h-13.333c-0.736 0-1.333-0.597-1.333-1.333v0-18.667c0-0.736 0.597-1.333 1.333-1.333v0h6.667v4c0 2.209 1.791 4 4 4v0h4zM16 15.12c-0.538-0.299-1.18-0.474-1.862-0.474-2.15 0-3.893 1.743-3.893 3.893 0 1.096 0.453 2.086 1.181 2.793l0.001 0.001 3.627 3.627c0.242 0.244 0.577 0.394 0.947 0.394s0.705-0.151 0.947-0.394l3.627-3.627c0.73-0.708 1.182-1.698 1.182-2.794 0-2.15-1.743-3.893-3.893-3.893-0.683 0-1.324 0.176-1.882 0.484l0.020-0.010zM18.667 17.693c0.222 0.222 0.359 0.528 0.359 0.867s-0.137 0.645-0.359 0.867l-2.667 2.667-2.667-2.667c-0.222-0.222-0.359-0.528-0.359-0.867s0.137-0.645 0.359-0.867l-0 0c0.222-0.222 0.528-0.359 0.867-0.359s0.645 0.137 0.867 0.359l-0-0c0.242 0.244 0.577 0.394 0.947 0.394s0.705-0.151 0.947-0.394l0-0c0.221-0.214 0.522-0.345 0.853-0.345s0.633 0.132 0.854 0.346l-0-0z"></path>
</svg>
