<!-- Generated by IcoMoon.io -->
<svg version="1.1" xmlns="http://www.w3.org/2000/svg" width="32" height="32" viewBox="0 0 32 32">
<title>ul-flip-v-alt</title>
<path fill="#ebebeb" d="M6.587 16.32c-0.093-0.023-0.2-0.037-0.31-0.037-0.636 0-1.168 0.445-1.301 1.041l-0.002 0.009-0.653 2.587c-0.018 0.082-0.028 0.176-0.028 0.272 0 0.633 0.441 1.163 1.032 1.299l0.009 0.002c0.096 0.025 0.206 0.039 0.319 0.039 0.622 0 1.145-0.426 1.292-1.003l0.002-0.009 0.653-2.587c0.023-0.093 0.037-0.2 0.037-0.31 0-0.636-0.445-1.168-1.041-1.301l-0.009-0.002zM29.253 26.347l-5.333-21.333c-0.145-0.573-0.647-0.994-1.251-1.013l-0.002-0h-4c-0.736 0-1.333 0.597-1.333 1.333v0 21.333c0 0.736 0.597 1.333 1.333 1.333v0h9.333c0.002 0 0.005 0 0.007 0 0.423 0 0.8-0.197 1.044-0.504l0.002-0.003c0.194-0.23 0.312-0.53 0.312-0.857 0-0.103-0.012-0.203-0.034-0.299l0.002 0.009zM20 25.333v-18.667h1.627l4.667 18.667zM8.533 8.56c-0.1-0.027-0.214-0.042-0.332-0.042-0.623 0-1.147 0.428-1.293 1.006l-0.002 0.009-0.64 2.587c-0.025 0.096-0.039 0.206-0.039 0.319 0 0.622 0.426 1.145 1.003 1.292l0.009 0.002h0.32c0.012 0 0.025 0.001 0.039 0.001 0.623 0 1.146-0.427 1.293-1.005l0.002-0.009 0.64-2.587c0.018-0.083 0.029-0.178 0.029-0.275 0-0.628-0.435-1.155-1.020-1.296l-0.009-0.002zM10.013 6.667h2.667c0.736 0 1.333-0.597 1.333-1.333s-0.597-1.333-1.333-1.333v0h-2.667c-0.736 0-1.333 0.597-1.333 1.333s0.597 1.333 1.333 1.333v0zM5.653 25.333c0.006-0.048 0.010-0.104 0.010-0.16 0-0.742-0.601-1.343-1.343-1.343-0.685 0-1.251 0.513-1.333 1.176l-0.001 0.007-0.32 1.333c-0.026 0.098-0.041 0.211-0.041 0.328 0 0.31 0.106 0.595 0.283 0.822l-0.002-0.003c0.246 0.31 0.624 0.507 1.047 0.507 0.016 0 0.033-0 0.049-0.001l-0.002 0h1.333c0.048 0.006 0.104 0.010 0.16 0.010 0.742 0 1.343-0.601 1.343-1.343 0-0.685-0.513-1.251-1.176-1.333l-0.007-0.001zM13.333 8.68c-0.736 0-1.333 0.597-1.333 1.333v0 2.667c0 0.736 0.597 1.333 1.333 1.333s1.333-0.597 1.333-1.333v0-2.667c0-0.736-0.597-1.333-1.333-1.333v0zM13.333 16.68c-0.736 0-1.333 0.597-1.333 1.333v0 2.667c0 0.736 0.597 1.333 1.333 1.333s1.333-0.597 1.333-1.333v0-2.667c0-0.736-0.597-1.333-1.333-1.333v0zM13.333 24.68c-0.485 0-0.91 0.26-1.143 0.647l-0.003 0.006h-1.52c-0.736 0-1.333 0.597-1.333 1.333s0.597 1.333 1.333 1.333v0h2.667c0.736 0 1.333-0.597 1.333-1.333v0-0.653c0-0.736-0.597-1.333-1.333-1.333v0z"></path>
</svg>
