<!-- Generated by IcoMoon.io -->
<svg version="1.1" xmlns="http://www.w3.org/2000/svg" width="32" height="32" viewBox="0 0 32 32">
<title>ul-folder-info</title>
<path fill="#ebebeb" d="M16 18c-0.736 0-1.333 0.597-1.333 1.333v0 2.667c0 0.736 0.597 1.333 1.333 1.333s1.333-0.597 1.333-1.333v0-2.667c0-0.736-0.597-1.333-1.333-1.333v0zM25.333 7.333h-8.373l-0.427-1.333c-0.566-1.567-2.040-2.667-3.771-2.667-0.005 0-0.011 0-0.016 0h-6.079c-2.209 0-4 1.791-4 4v0 17.333c0 2.209 1.791 4 4 4v0h18.667c2.209 0 4-1.791 4-4v0-13.333c0-2.209-1.791-4-4-4v0zM26.667 24.667c0 0.736-0.597 1.333-1.333 1.333v0h-18.667c-0.736 0-1.333-0.597-1.333-1.333v0-17.333c0-0.736 0.597-1.333 1.333-1.333v0h6.080c0.001 0 0.002 0 0.003 0 0.584 0 1.080 0.375 1.26 0.897l0.003 0.009 0.72 2.187c0.183 0.532 0.68 0.907 1.263 0.907 0.001 0 0.002 0 0.004 0h9.333c0.736 0 1.333 0.597 1.333 1.333v0zM16.947 14.387c-0.241-0.238-0.571-0.384-0.936-0.384-0.187 0-0.364 0.038-0.526 0.108l0.009-0.003c-0.172 0.065-0.318 0.16-0.44 0.28l0-0c-0.235 0.246-0.381 0.579-0.387 0.946v0.001c0.002 0.364 0.149 0.694 0.387 0.933l-0-0c0.242 0.244 0.577 0.394 0.947 0.394s0.705-0.151 0.947-0.394l0-0c0.238-0.24 0.385-0.569 0.387-0.933v-0c-0.002-0.184-0.041-0.357-0.11-0.515l0.003 0.009c-0.065-0.172-0.16-0.318-0.28-0.44l0 0z"></path>
</svg>
