<!-- Generated by IcoMoon.io -->
<svg version="1.1" xmlns="http://www.w3.org/2000/svg" width="32" height="32" viewBox="0 0 32 32">
<title>ul-file-graph</title>
<path fill="#ebebeb" d="M12 13.333h1.333c0.736 0 1.333-0.597 1.333-1.333s-0.597-1.333-1.333-1.333v0h-1.333c-0.736 0-1.333 0.597-1.333 1.333s0.597 1.333 1.333 1.333v0zM18.947 16.515l-2.231 2.869-1.158-1.042c-0.235-0.212-0.548-0.342-0.892-0.342-0.42 0-0.795 0.194-1.039 0.498l-0.002 0.003-2.667 3.333c-0.184 0.227-0.295 0.519-0.295 0.837 0 0.736 0.597 1.333 1.333 1.333 0.422 0 0.798-0.196 1.042-0.502l0.002-0.003 1.784-2.23 1.172 1.055c0.235 0.212 0.548 0.342 0.892 0.342 0.427 0 0.806-0.2 1.050-0.512l0.002-0.003 3.111-4c0.175-0.223 0.281-0.509 0.281-0.818 0-0.736-0.597-1.333-1.333-1.333-0.427 0-0.806 0.2-1.051 0.512l-0.002 0.003zM26.65 11.918c-0.019-0.335-0.157-0.634-0.373-0.859l0 0-0.002-0.003-8.002-8.001c-0.108-0.104-0.234-0.191-0.373-0.254l-0.008-0.003c-0.040-0.019-0.081-0.029-0.123-0.044-0.105-0.038-0.226-0.064-0.352-0.072l-0.004-0c-0.028-0.002-0.052-0.016-0.080-0.016h-8c-2.208 0.002-3.998 1.792-4 4v18.667c0.003 2.208 1.792 3.997 4 4h13.334c2.208-0.003 3.997-1.792 4-4v-13.334c0-0.029-0.015-0.054-0.017-0.082zM18.667 7.219l3.448 3.448h-2.115c-0.736-0.001-1.332-0.597-1.333-1.333v-0zM24 25.333c-0.001 0.736-0.597 1.332-1.333 1.333h-13.333c-0.736-0.001-1.332-0.597-1.333-1.333v-18.667c0.001-0.736 0.597-1.332 1.333-1.333h6.667v4c0.003 2.208 1.792 3.998 4 4h4z"></path>
</svg>
