<!-- Generated by IcoMoon.io -->
<svg version="1.1" xmlns="http://www.w3.org/2000/svg" width="32" height="32" viewBox="0 0 32 32">
<title>ul-grin</title>
<path fill="#ebebeb" d="M12 14.667c0.736 0 1.333-0.597 1.333-1.333s-0.597-1.333-1.333-1.333c-0.736 0-1.333 0.597-1.333 1.333v0c0 0.736 0.597 1.333 1.333 1.333v0zM16 2.667c-7.364 0-13.333 5.97-13.333 13.333s5.97 13.333 13.333 13.333c7.364 0 13.333-5.97 13.333-13.333v0c0-7.364-5.97-13.333-13.333-13.333v0zM16 26.667c-5.891 0-10.667-4.776-10.667-10.667s4.776-10.667 10.667-10.667c5.891 0 10.667 4.776 10.667 10.667v0c0 5.891-4.776 10.667-10.667 10.667v0zM20 17.333h-8c-0.736 0-1.333 0.597-1.333 1.333v0c0 2.946 2.388 5.333 5.333 5.333s5.333-2.388 5.333-5.333v0c0-0.736-0.597-1.333-1.333-1.333v0zM16 21.333c-0.981-0.001-1.837-0.531-2.3-1.321l-0.007-0.013h4.613c-0.469 0.802-1.326 1.332-2.307 1.333h-0zM20 12c-0.736 0-1.333 0.597-1.333 1.333s0.597 1.333 1.333 1.333c0.736 0 1.333-0.597 1.333-1.333v0c0-0.736-0.597-1.333-1.333-1.333v0z"></path>
</svg>
