<!-- Generated by IcoMoon.io -->
<svg version="1.1" xmlns="http://www.w3.org/2000/svg" width="32" height="32" viewBox="0 0 32 32">
<title>ul-heart-break</title>
<path fill="#ebebeb" d="M26.88 6.147c-1.513-1.513-3.603-2.449-5.912-2.449-1.87 0-3.597 0.614-4.99 1.652l0.022-0.016c-1.375-1.032-3.11-1.652-4.989-1.652-4.617 0-8.36 3.743-8.36 8.36 0 2.319 0.944 4.417 2.469 5.932l0 0 9.933 9.947c0.242 0.244 0.577 0.394 0.947 0.394s0.705-0.151 0.947-0.394l0-0 9.933-9.947c1.514-1.513 2.45-3.604 2.45-5.913s-0.936-4.4-2.45-5.913l-0-0zM25 16.080l-9 9-9-9c-1.056-1.032-1.711-2.471-1.711-4.064 0-3.137 2.543-5.68 5.68-5.68 1.29 0 2.479 0.43 3.432 1.154l-0.014-0.010-2.28 5.333c-0.076 0.162-0.12 0.353-0.12 0.553s0.044 0.391 0.124 0.562l-0.003-0.008c0.173 0.348 0.483 0.606 0.857 0.705l0.009 0.002 3.693 0.933-1.867 3.853c-0.086 0.172-0.137 0.374-0.137 0.588 0 0.524 0.302 0.977 0.742 1.195l0.008 0.003c0.17 0.084 0.37 0.133 0.581 0.133 0.002 0 0.004 0 0.006 0h-0c0.001 0 0.002 0 0.003 0 0.523 0 0.975-0.301 1.194-0.739l0.003-0.008 2.667-5.333c0.082-0.168 0.13-0.365 0.13-0.573s-0.048-0.406-0.133-0.581l0.003 0.008c-0.18-0.359-0.498-0.625-0.884-0.731l-0.010-0.002-3.773-0.947 1.933-4.52c1.021-0.987 2.413-1.595 3.947-1.595 3.138 0 5.681 2.544 5.681 5.681 0 1.604-0.664 3.052-1.733 4.085l-0.002 0.002z"></path>
</svg>
