<!-- Generated by IcoMoon.io -->
<svg version="1.1" xmlns="http://www.w3.org/2000/svg" width="32" height="32" viewBox="0 0 32 32">
<title>ul-headphones-alt</title>
<path fill="#ebebeb" d="M26.667 17.573v-2.907c0-5.891-4.776-10.667-10.667-10.667s-10.667 4.776-10.667 10.667v0 2.907c-1.563 0.564-2.662 2.033-2.667 3.759v2.667c0 2.209 1.791 4 4 4v0h4c0.736 0 1.333-0.597 1.333-1.333v0-8c0-0.736-0.597-1.333-1.333-1.333v0h-2.667v-2.667c0-4.418 3.582-8 8-8s8 3.582 8 8v0 2.667h-2.667c-0.736 0-1.333 0.597-1.333 1.333v0 8c0 0.736 0.597 1.333 1.333 1.333v0h4c2.209 0 4-1.791 4-4v0-2.667c-0.005-1.727-1.103-3.196-2.639-3.751l-0.028-0.009zM9.333 20v5.333h-2.667c-0.736 0-1.333-0.597-1.333-1.333v0-2.667c0-0.736 0.597-1.333 1.333-1.333v0zM26.667 24c0 0.736-0.597 1.333-1.333 1.333v0h-2.667v-5.333h2.667c0.736 0 1.333 0.597 1.333 1.333v0z"></path>
</svg>
