<!-- Generated by IcoMoon.io -->
<svg version="1.1" xmlns="http://www.w3.org/2000/svg" width="32" height="32" viewBox="0 0 32 32">
<title>ul-image-alt-slash</title>
<path fill="#ebebeb" d="M28.947 27.053l-1.24-1.24-0.12-0.133-0.080-0.093-0.667-0.667-0.173-0.093-6.907-6.933-0.12-0.107-4.267-4.28-0.133-0.173-10.293-10.28c-0.242-0.242-0.577-0.392-0.947-0.392-0.739 0-1.339 0.599-1.339 1.339 0 0.37 0.15 0.704 0.392 0.947l1.333 1.333c-0.244 0.502-0.387 1.092-0.387 1.716 0 0.002 0 0.003 0 0.004v-0 16c0 2.209 1.791 4 4 4v0h16c0.619-0.008 1.2-0.16 1.715-0.423l-0.022 0.010s0 0 0.067 0l1.267 1.333c0.242 0.244 0.577 0.394 0.947 0.394s0.705-0.151 0.947-0.394l0-0c0.244-0.242 0.395-0.577 0.395-0.947 0-0.357-0.14-0.681-0.369-0.92l0 0.001zM6.667 8.547l4.32 4.32c-0.342 0.178-0.636 0.391-0.894 0.641l0.001-0.001-3.427 3.44zM8 25.333c-0.736 0-1.333-0.597-1.333-1.333v0-3.28l5.333-5.333c0.192-0.178 0.45-0.287 0.733-0.287s0.541 0.109 0.734 0.288l-0.001-0.001 9.987 9.947zM12.88 6.667h11.12c0.736 0 1.333 0.597 1.333 1.333v0 7.92c-0.242-0.242-0.577-0.392-0.947-0.392-0.739 0-1.339 0.599-1.339 1.339 0 0.37 0.15 0.704 0.392 0.947l2.32 2.32c0.242 0.244 0.577 0.394 0.947 0.394s0.705-0.151 0.947-0.394l0-0c0.239-0.241 0.387-0.573 0.387-0.939 0-0.007-0-0.015-0-0.022v0.001-11.173c0-2.209-1.791-4-4-4v0h-11.16c-0.736 0-1.333 0.597-1.333 1.333s0.597 1.333 1.333 1.333v0z"></path>
</svg>
