<!-- Generated by IcoMoon.io -->
<svg version="1.1" xmlns="http://www.w3.org/2000/svg" width="32" height="32" viewBox="0 0 32 32">
<title>ul-location-arrow</title>
<path fill="#ebebeb" d="M28.2 3.813c-0.7-0.713-1.674-1.155-2.751-1.155-0.447 0-0.877 0.076-1.276 0.216l0.027-0.008-18.867 6.307c-1.56 0.522-2.664 1.969-2.664 3.675 0 1.646 1.028 3.051 2.477 3.61l0.026 0.009 6.987 2.667c0.323 0.126 0.575 0.374 0.704 0.685l0.003 0.008 2.667 7c0.553 1.476 1.952 2.507 3.592 2.507 0.008 0 0.015-0 0.023-0h0.092c1.673-0.031 3.082-1.128 3.579-2.64l0.008-0.027 6.307-18.893c0.128-0.367 0.201-0.789 0.201-1.229 0-1.067-0.434-2.033-1.135-2.731l-0-0zM26.667 6.933l-6.373 18.907c-0.153 0.483-0.596 0.826-1.12 0.827h-0c-0.006 0-0.013 0-0.020 0-0.514 0-0.955-0.316-1.137-0.765l-0.003-0.008-2.667-7c-0.4-1.032-1.198-1.834-2.2-2.231l-0.026-0.009-7-2.667c-0.463-0.173-0.787-0.612-0.787-1.127 0-0.012 0-0.023 0-0.035l-0 0.002c0-0.524 0.344-0.967 0.818-1.118l0.008-0.002 18.907-6.307c0.135-0.057 0.293-0.090 0.458-0.090 0.67 0 1.213 0.543 1.213 1.213 0 0.147-0.026 0.288-0.074 0.418l0.003-0.008z"></path>
</svg>
