<!-- Generated by IcoMoon.io -->
<svg version="1.1" xmlns="http://www.w3.org/2000/svg" width="32" height="32" viewBox="0 0 32 32">
<title>ul-link-h</title>
<path fill="#ebebeb" d="M10.667 16c0 0.736 0.597 1.333 1.333 1.333v0h8c0.736 0 1.333-0.597 1.333-1.333s-0.597-1.333-1.333-1.333v0h-8c-0.736 0-1.333 0.597-1.333 1.333v0zM13.333 20h-4c-2.209 0-4-1.791-4-4s1.791-4 4-4v0h4c0.736 0 1.333-0.597 1.333-1.333s-0.597-1.333-1.333-1.333v0h-4c-3.682 0-6.667 2.985-6.667 6.667s2.985 6.667 6.667 6.667v0h4c0.736 0 1.333-0.597 1.333-1.333s-0.597-1.333-1.333-1.333v0zM22.667 9.333h-4c-0.736 0-1.333 0.597-1.333 1.333s0.597 1.333 1.333 1.333v0h4c2.209 0 4 1.791 4 4s-1.791 4-4 4v0h-4c-0.736 0-1.333 0.597-1.333 1.333s0.597 1.333 1.333 1.333v0h4c3.682 0 6.667-2.985 6.667-6.667s-2.985-6.667-6.667-6.667v0z"></path>
</svg>
