<!-- Generated by IcoMoon.io -->
<svg version="1.1" xmlns="http://www.w3.org/2000/svg" width="32" height="32" viewBox="0 0 32 32">
<title>ul-letter-japanese-a</title>
<path fill="#ebebeb" d="M27.296 15.996c-1.158-1.754-3.108-2.904-5.329-2.938l-0.005-0c-0.017-0.493-0.080-0.963-0.183-1.416l0.010 0.050c-0.144-0.592-0.67-1.025-1.297-1.025-0.736 0-1.333 0.597-1.333 1.333 0 0.109 0.013 0.215 0.038 0.317l-0.002-0.009c0.056 0.234 0.095 0.509 0.11 0.79l0 0.012c-1.616 0.204-3.082 0.589-4.465 1.139l0.122-0.043c0.030-1.605 0.102-3.21 0.262-4.81l0.051-0.51c1.836-0.252 3.41-0.562 4.951-0.952l-0.308 0.066 0.16-0.040c0.59-0.146 1.020-0.671 1.020-1.296 0-0.736-0.597-1.333-1.333-1.333-0.116 0-0.229 0.015-0.337 0.043l0.009-0.002-0.163 0.040c-1.229 0.307-2.474 0.539-3.725 0.734l0.202-2.014c0.004-0.040 0.007-0.086 0.007-0.133 0-0.736-0.597-1.333-1.333-1.333-0.69 0-1.257 0.524-1.326 1.195l-0 0.006-0.262 2.612c-1.245 0.112-2.494 0.187-3.745 0.187-0.736 0-1.333 0.597-1.333 1.333s0.597 1.333 1.333 1.333v0c1.161 0 2.319-0.062 3.476-0.152-0.174 1.744-0.273 3.768-0.273 5.817 0 0.157 0.001 0.315 0.002 0.472l-0-0.024c-0.179 0.098-0.36 0.189-0.537 0.292-0.993 0.573-1.842 1.15-2.646 1.783l0.047-0.035-0.030 0.024c-1.345 1.044-2.508 2.229-3.497 3.553l-0.034 0.048c-0.474 0.65-0.758 1.464-0.758 2.344 0 2.212 1.793 4.006 4.006 4.006 0.24 0 0.476-0.021 0.705-0.062l-0.024 0.004c1.424-0.276 2.691-0.744 3.85-1.385l-0.067 0.034c0.239 0.372 0.651 0.615 1.12 0.615 0.733 0 1.328-0.594 1.328-1.328 0-0.079-0.007-0.157-0.020-0.232l0.001 0.008c-0.032-0.194-0.047-0.389-0.077-0.583 0.642-0.499 1.214-1.003 1.752-1.541l-0 0c1.064-1.060 1.992-2.254 2.757-3.556l0.045-0.082c0.031-0.053 0.056-0.105 0.086-0.158 0.157-0.281 0.306-0.563 0.442-0.847 0.072-0.148 0.136-0.296 0.202-0.444 0.080-0.182 0.156-0.363 0.227-0.545 0.075-0.191 0.146-0.382 0.211-0.573 0.043-0.128 0.081-0.255 0.119-0.383 0.068-0.225 0.136-0.449 0.189-0.672l0.007-0.024c0.017-0 0.038-0 0.058-0 1.319 0 2.489 0.635 3.222 1.616l0.008 0.011c1.358 2.356-1.284 6.636-5.889 9.54-0.378 0.24-0.626 0.656-0.626 1.13 0 0.736 0.597 1.333 1.333 1.333 0.265 0 0.512-0.077 0.72-0.211l-0.005 0.003c5.999-3.781 8.911-9.425 6.775-13.132zM9.061 24.777c-0.064 0.011-0.138 0.017-0.214 0.017-0.74 0-1.34-0.6-1.34-1.34 0-0.291 0.093-0.56 0.25-0.78l-0.003 0.004c0.886-1.179 1.892-2.199 3.018-3.070l0.037-0.027 0.035-0.029c0.472-0.369 0.989-0.719 1.525-1.057 0.081 1.594 0.23 3.182 0.435 4.767-1.072 0.698-2.327 1.224-3.673 1.503l-0.071 0.012zM18.834 15.999c-0.148 0.429-0.291 0.773-0.45 1.108l0.028-0.066c-0.074 0.159-0.157 0.317-0.24 0.476q-0.192 0.371-0.414 0.739c-0.113 0.186-0.229 0.372-0.354 0.557-0.578 0.858-1.195 1.607-1.877 2.293l0.001-0.001c-0.093 0.093-0.191 0.178-0.286 0.268q-0.218-2.13-0.282-4.27c1.129-0.534 2.443-0.964 3.816-1.227l0.104-0.017c-0.016 0.047-0.030 0.093-0.047 0.14z"></path>
</svg>
