<!-- Generated by IcoMoon.io -->
<svg version="1.1" xmlns="http://www.w3.org/2000/svg" width="32" height="32" viewBox="0 0 32 32">
<title>ul-layer-group-slash</title>
<path fill="#ebebeb" d="M13.68 6.667l2.32-1.333 9.333 5.333-4.2 2.44c-0.402 0.235-0.667 0.664-0.667 1.155 0 0.242 0.064 0.469 0.177 0.665l-0.003-0.006c0.234 0.405 0.665 0.673 1.158 0.673 0.246 0 0.477-0.067 0.675-0.183l-0.006 0.003 6.2-3.587c0.407-0.234 0.676-0.665 0.676-1.16s-0.269-0.926-0.669-1.157l-0.006-0.003-12-6.933c-0.191-0.112-0.421-0.179-0.667-0.179s-0.475 0.066-0.673 0.182l0.006-0.003-2.987 1.733c-0.405 0.234-0.673 0.665-0.673 1.158 0 0.246 0.067 0.477 0.183 0.675l-0.003-0.006c0.229 0.422 0.669 0.703 1.175 0.703 0.239 0 0.464-0.063 0.658-0.173l-0.007 0.003zM4.947 3.053c-0.242-0.242-0.577-0.392-0.947-0.392-0.739 0-1.339 0.599-1.339 1.339 0 0.37 0.15 0.704 0.392 0.947v0l3 3.053-2.667 1.56c-0.407 0.234-0.676 0.665-0.676 1.16s0.269 0.926 0.669 1.157l0.006 0.003 12 6.933c0.191 0.112 0.421 0.179 0.667 0.179s0.475-0.066 0.673-0.182l-0.006 0.003 0.133-0.080 1.427 1.427-2.227 1.333-11.387-6.653c-0.191-0.112-0.421-0.178-0.667-0.178-0.739 0-1.338 0.599-1.338 1.338 0 0.494 0.267 0.925 0.665 1.157l0.006 0.003 12 6.933c0.189 0.109 0.416 0.173 0.657 0.173 0.003 0 0.006 0 0.010-0h-0c0.003 0 0.006 0 0.009 0 0.242 0 0.468-0.064 0.664-0.177l-0.006 0.003 3.507-2.027 1.427 1.427-5.6 3.173-11.333-6.493c-0.191-0.112-0.421-0.178-0.667-0.178-0.739 0-1.338 0.599-1.338 1.338 0 0.494 0.267 0.925 0.665 1.157l0.006 0.003 12 6.933c0.191 0.112 0.421 0.179 0.667 0.179s0.475-0.066 0.673-0.182l-0.006 0.003 6.893-4 3.493 3.507c0.242 0.244 0.577 0.394 0.947 0.394s0.705-0.151 0.947-0.394l0-0c0.244-0.242 0.394-0.577 0.394-0.947s-0.151-0.705-0.394-0.947l-0-0zM6.667 10.667l1.333-0.773 3.667 3.667zM27.333 14.84l-2.827 1.627c-0.404 0.235-0.671 0.666-0.671 1.16 0 0.739 0.599 1.338 1.338 1.338 0.245 0 0.475-0.066 0.673-0.181l-0.006 0.003 2.827-1.627c0.404-0.235 0.671-0.666 0.671-1.16 0-0.739-0.599-1.338-1.338-1.338-0.245 0-0.475 0.066-0.673 0.181l0.006-0.003z"></path>
</svg>
