<!-- Generated by IcoMoon.io -->
<svg version="1.1" xmlns="http://www.w3.org/2000/svg" width="32" height="32" viewBox="0 0 32 32">
<title>ul-layer-group</title>
<path fill="#ebebeb" d="M3.333 11.813l12 6.933c0.191 0.112 0.421 0.179 0.667 0.179s0.475-0.066 0.673-0.182l-0.006 0.003 12-6.933c0.399-0.233 0.664-0.659 0.667-1.146v-0c0-0.002 0-0.003 0-0.005 0-0.491-0.265-0.92-0.66-1.151l-0.006-0.003-12-6.92c-0.191-0.112-0.421-0.179-0.667-0.179s-0.475 0.066-0.673 0.182l0.006-0.003-12 6.92c-0.401 0.235-0.667 0.664-0.667 1.155 0 0.002 0 0.004 0 0.006v-0c0.003 0.488 0.268 0.913 0.66 1.143l0.006 0.003zM16 5.333l9.333 5.333-9.333 5.333-9.333-5.333zM27.333 14.893l-11.333 6.44-11.333-6.493c-0.192-0.113-0.422-0.18-0.668-0.18-0.493 0-0.924 0.268-1.155 0.667l-0.003 0.006c-0.109 0.189-0.174 0.416-0.174 0.658 0 0.491 0.266 0.92 0.661 1.152l0.006 0.003 12 6.933c0.191 0.112 0.421 0.179 0.667 0.179s0.475-0.066 0.673-0.182l-0.006 0.003 12-6.933c0.402-0.235 0.667-0.664 0.667-1.155 0-0.242-0.064-0.469-0.177-0.665l0.003 0.006c-0.234-0.405-0.665-0.673-1.158-0.673-0.246 0-0.477 0.067-0.675 0.183l0.006-0.003zM27.333 20.227l-11.333 6.44-11.333-6.493c-0.192-0.113-0.422-0.18-0.668-0.18-0.493 0-0.924 0.268-1.155 0.667l-0.003 0.006c-0.109 0.189-0.174 0.416-0.174 0.658 0 0.491 0.266 0.92 0.661 1.152l0.006 0.003 12 6.933c0.191 0.112 0.421 0.179 0.667 0.179s0.475-0.066 0.673-0.182l-0.006 0.003 12-6.933c0.402-0.235 0.667-0.664 0.667-1.155 0-0.242-0.064-0.469-0.177-0.665l0.003 0.006c-0.234-0.405-0.665-0.673-1.158-0.673-0.246 0-0.477 0.067-0.675 0.183l0.006-0.003z"></path>
</svg>
