<!-- Generated by IcoMoon.io -->
<svg version="1.1" xmlns="http://www.w3.org/2000/svg" width="32" height="32" viewBox="0 0 32 32">
<title>ul-microphone</title>
<path fill="#ebebeb" d="M16 20c2.946 0 5.333-2.388 5.333-5.333v0-8c0-2.946-2.388-5.333-5.333-5.333s-5.333 2.388-5.333 5.333v0 8c0 2.946 2.388 5.333 5.333 5.333v0zM13.333 6.667c0-1.473 1.194-2.667 2.667-2.667s2.667 1.194 2.667 2.667v0 8c0 1.473-1.194 2.667-2.667 2.667s-2.667-1.194-2.667-2.667v0zM26.667 14.667c0-0.736-0.597-1.333-1.333-1.333s-1.333 0.597-1.333 1.333v0c0 4.418-3.582 8-8 8s-8-3.582-8-8v0c0-0.736-0.597-1.333-1.333-1.333s-1.333 0.597-1.333 1.333v0c0.005 5.417 4.047 9.888 9.28 10.568l0.054 0.006v2.76h-2.667c-0.736 0-1.333 0.597-1.333 1.333s0.597 1.333 1.333 1.333v0h8c0.736 0 1.333-0.597 1.333-1.333s-0.597-1.333-1.333-1.333v0h-2.667v-2.76c5.286-0.685 9.328-5.156 9.333-10.573v-0.001z"></path>
</svg>
