<!-- Generated by IcoMoon.io -->
<svg version="1.1" xmlns="http://www.w3.org/2000/svg" width="32" height="32" viewBox="0 0 32 32">
<title>ul-medal</title>
<path fill="#ebebeb" d="M28.507 7.68c-0.096-0.35-0.321-0.636-0.62-0.81l-0.006-0.003-6.933-4c-0.193-0.115-0.426-0.183-0.674-0.183-0.489 0-0.917 0.264-1.149 0.657l-0.003 0.006-3.12 5.413-3.12-5.413c-0.235-0.399-0.663-0.663-1.153-0.663-0.248 0-0.481 0.068-0.68 0.186l0.006-0.003-6.933 4c-0.305 0.177-0.531 0.463-0.624 0.804l-0.002 0.009c-0.027 0.101-0.043 0.217-0.043 0.337 0 0.244 0.066 0.473 0.18 0.669l-0.003-0.006 5.333 9.107c-0.57 1.024-0.921 2.241-0.96 3.535l-0 0.012c-0 0.006-0 0.014-0 0.021 0 4.418 3.582 8 8 8s8-3.582 8-8c0-1.332-0.325-2.587-0.901-3.692l0.021 0.044 5.2-9.013c0.136-0.206 0.217-0.458 0.217-0.729 0-0.101-0.011-0.199-0.032-0.293l0.002 0.009zM6.667 8.507l4.613-2.667 4.293 7.493c-1.908 0.121-3.613 0.901-4.911 2.111l0.005-0.004zM16 26.667c-2.946 0-5.333-2.388-5.333-5.333v0c0-2.946 2.388-5.333 5.333-5.333v0c2.946 0 5.333 2.388 5.333 5.333s-2.388 5.333-5.333 5.333v0zM21.333 15.4c-0.699-0.64-1.522-1.159-2.427-1.515l-0.053-0.018-1.307-2.44 3.227-5.587 4.613 2.667z"></path>
</svg>
