<!-- Generated by IcoMoon.io -->
<svg version="1.1" xmlns="http://www.w3.org/2000/svg" width="32" height="32" viewBox="0 0 32 32">
<title>ul-music-tune-slash</title>
<path fill="#ebebeb" d="M16 9.773c0.736 0 1.333-0.597 1.333-1.333v0-0.733l8-2v3.92l-5.733 1.44c-0.67 0.083-1.183 0.648-1.183 1.333 0 0.742 0.601 1.343 1.343 1.343 0.056 0 0.112-0.003 0.167-0.010l-0.007 0.001h0.32l6.747-1.733h0.093l0.253-0.12 0.2-0.133c0.064-0.060 0.121-0.125 0.171-0.196l0.003-0.004c0.050-0.058 0.094-0.124 0.131-0.194l0.003-0.006c0.038-0.069 0.066-0.15 0.079-0.236l0.001-0.004c0.006-0.038 0.009-0.082 0.009-0.127s-0.003-0.089-0.010-0.131l0.001 0.005c0.045-0.050 0.074-0.114 0.080-0.185l0-0.001v-6.667c0-0.012 0.001-0.025 0.001-0.039 0-0.736-0.597-1.333-1.333-1.333-0.114 0-0.224 0.014-0.33 0.041l0.009-0.002-10.667 2.667c-0.587 0.148-1.014 0.672-1.014 1.295 0 0.014 0 0.027 0.001 0.041l-0-0.002v1.773c0 0.736 0.597 1.333 1.333 1.333v0zM28.947 27.107l-24-24c-0.223-0.174-0.507-0.279-0.816-0.279-0.736 0-1.333 0.597-1.333 1.333 0 0.295 0.096 0.568 0.259 0.789l-0.003-0.004 11.613 11.6v3.92c-0.584-0.292-1.271-0.464-1.999-0.467h-0.001c-2.577 0-4.667 2.089-4.667 4.667s2.089 4.667 4.667 4.667c2.577 0 4.667-2.089 4.667-4.667v0-5.453l9.72 9.733c0.242 0.244 0.577 0.394 0.947 0.394s0.705-0.151 0.947-0.394l0-0c0.244-0.242 0.394-0.577 0.394-0.947s-0.151-0.705-0.394-0.947l-0-0zM12.667 26.667c-1.105 0-2-0.895-2-2s0.895-2 2-2c1.105 0 2 0.895 2 2v0c0 1.105-0.895 2-2 2v0z"></path>
</svg>
