<!-- Generated by IcoMoon.io -->
<svg version="1.1" xmlns="http://www.w3.org/2000/svg" width="32" height="32" viewBox="0 0 32 32">
<title>ul-panorama-h</title>
<path fill="#ebebeb" d="M28.72 6.88c-0.209-0.143-0.468-0.229-0.747-0.229-0.213 0-0.415 0.050-0.594 0.139l0.008-0.003c-3.228 1.385-6.984 2.19-10.929 2.19-0.161 0-0.322-0.001-0.482-0.004l0.024 0c-0.151 0.003-0.33 0.005-0.509 0.005-3.945 0-7.703-0.806-11.116-2.261l0.185 0.070c-0.171-0.086-0.373-0.136-0.586-0.136-0.279 0-0.538 0.086-0.752 0.232l0.005-0.003c-0.341 0.245-0.56 0.64-0.56 1.086 0 0.012 0 0.024 0 0.035l-0-0.002v16c0.001 0.468 0.243 0.88 0.608 1.117l0.005 0.003c0.209 0.143 0.468 0.229 0.747 0.229 0.213 0 0.415-0.050 0.594-0.139l-0.008 0.003c3.228-1.385 6.984-2.19 10.929-2.19 0.161 0 0.322 0.001 0.482 0.004l-0.024-0c0.151-0.003 0.33-0.005 0.509-0.005 3.945 0 7.703 0.806 11.116 2.261l-0.185-0.070c0.165 0.075 0.357 0.119 0.559 0.12h0.001c0.268-0.001 0.517-0.080 0.725-0.216l-0.005 0.003c0.371-0.24 0.613-0.652 0.613-1.12v-16c-0.001-0.468-0.243-0.88-0.608-1.117l-0.005-0.003zM26.667 22.027c-3.093-1.058-6.657-1.668-10.363-1.668-0.107 0-0.213 0-0.32 0.002l0.016-0c-0.090-0.001-0.197-0.001-0.303-0.001-3.706 0-7.27 0.611-10.596 1.736l0.233-0.068v-12c3.093 1.058 6.657 1.668 10.363 1.668 0.107 0 0.213-0.001 0.32-0.002l-0.016 0c0.090 0.001 0.197 0.001 0.303 0.001 3.706 0 7.27-0.611 10.596-1.736l-0.233 0.068z"></path>
</svg>
