<!-- Generated by IcoMoon.io -->
<svg version="1.1" xmlns="http://www.w3.org/2000/svg" width="32" height="32" viewBox="0 0 32 32">
<title>ul-rupee-sign</title>
<path fill="#ebebeb" d="M24 9.333h-2.947c-0.276-1.023-0.735-1.915-1.345-2.682l0.011 0.015h4.28c0.736 0 1.333-0.597 1.333-1.333s-0.597-1.333-1.333-1.333v0h-14.667c-0.736 0-1.333 0.597-1.333 1.333s0.597 1.333 1.333 1.333v0h4.667c1.844 0.007 3.436 1.082 4.188 2.639l0.012 0.028h-8.867c-0.736 0-1.333 0.597-1.333 1.333s0.597 1.333 1.333 1.333v0h9.333c-0.337 2.268-2.266 3.99-4.599 4h-4.734c-0.028-0.003-0.060-0.005-0.093-0.005s-0.065 0.002-0.097 0.005l0.004-0c-0.040-0.007-0.086-0.010-0.133-0.010s-0.093 0.004-0.138 0.011l0.005-0.001c-0.097 0.033-0.181 0.079-0.256 0.135l0.002-0.002-0.16 0.093c-0.072 0.065-0.134 0.14-0.184 0.222l-0.002 0.004c-0.041 0.054-0.081 0.115-0.116 0.179l-0.004 0.008c-0.006 0.036-0.009 0.078-0.009 0.12s0.003 0.084 0.009 0.125l-0.001-0.005c-0.091 0.127-0.15 0.282-0.16 0.451l-0 0.002s0 0 0 0c-0.003 0.028-0.005 0.060-0.005 0.093s0.002 0.065 0.005 0.097l-0-0.004c-0.007 0.040-0.010 0.086-0.010 0.133s0.004 0.093 0.011 0.138l-0.001-0.005c0.033 0.097 0.079 0.181 0.135 0.256l-0.002-0.002s0 0.107 0.093 0.16l8 9.333c0.246 0.286 0.609 0.467 1.013 0.467 0.736 0 1.333-0.597 1.333-1.333 0-0.332-0.121-0.635-0.322-0.868l0.002 0.002-6.013-7.133h1.76c0.009 0 0.020 0 0.030 0 3.815 0 6.95-2.914 7.301-6.637l0.002-0.029h2.667c0.736 0 1.333-0.597 1.333-1.333s-0.597-1.333-1.333-1.333v0z"></path>
</svg>
