<!-- Generated by IcoMoon.io -->
<svg version="1.1" xmlns="http://www.w3.org/2000/svg" width="32" height="32" viewBox="0 0 32 32">
<title>ul-record-audio</title>
<path fill="#ebebeb" d="M16 2.667c-7.364 0-13.333 5.97-13.333 13.333s5.97 13.333 13.333 13.333c7.364 0 13.333-5.97 13.333-13.333v0c0-7.364-5.97-13.333-13.333-13.333v0zM16 26.667c-5.891 0-10.667-4.776-10.667-10.667s4.776-10.667 10.667-10.667c5.891 0 10.667 4.776 10.667 10.667v0c0 5.891-4.776 10.667-10.667 10.667v0zM16 8c-4.418 0-8 3.582-8 8s3.582 8 8 8c4.418 0 8-3.582 8-8v0c0-4.418-3.582-8-8-8v0zM16 21.333c-2.946 0-5.333-2.388-5.333-5.333s2.388-5.333 5.333-5.333c2.946 0 5.333 2.388 5.333 5.333v0c0 2.946-2.388 5.333-5.333 5.333v0z"></path>
</svg>
