<!-- Generated by IcoMoon.io -->
<svg version="1.1" xmlns="http://www.w3.org/2000/svg" width="32" height="32" viewBox="0 0 32 32">
<title>ul-sad-squint</title>
<path fill="#ebebeb" d="M12.107 16.28l2-2c0.244-0.242 0.394-0.577 0.394-0.947s-0.151-0.705-0.394-0.947l-2-2c-0.242-0.242-0.577-0.392-0.947-0.392-0.739 0-1.339 0.599-1.339 1.339 0 0.37 0.15 0.704 0.392 0.947v0l1.067 1.053-1.067 1.053c-0.244 0.242-0.394 0.577-0.394 0.947s0.151 0.705 0.394 0.947l0 0c0.241 0.239 0.573 0.387 0.939 0.387 0.003 0 0.005 0 0.008-0h-0c0.002 0 0.005 0 0.008 0 0.366 0 0.698-0.148 0.939-0.387l-0 0zM11.147 20.44c-0.292 0.246-0.476 0.612-0.476 1.021 0 0.322 0.114 0.617 0.304 0.848l-0.002-0.002c0.246 0.296 0.615 0.482 1.026 0.482 0.326 0 0.624-0.117 0.856-0.311l-0.002 0.002c0.852-0.692 1.951-1.11 3.147-1.11s2.294 0.419 3.156 1.118l-0.009-0.007c0.229 0.192 0.528 0.309 0.854 0.309 0.412 0 0.78-0.187 1.025-0.48l0.002-0.002c0.188-0.228 0.302-0.524 0.302-0.846 0-0.409-0.184-0.775-0.474-1.019l-0.002-0.002c-1.316-1.064-3.009-1.709-4.853-1.709s-3.538 0.644-4.868 1.72l0.015-0.011zM22.107 10.387c-0.242-0.244-0.577-0.394-0.947-0.394s-0.705 0.151-0.947 0.394l-2 2c-0.244 0.242-0.394 0.577-0.394 0.947s0.151 0.705 0.394 0.947l2 2c0.241 0.239 0.573 0.387 0.939 0.387 0.003 0 0.005 0 0.008-0h-0c0.002 0 0.005 0 0.008 0 0.366 0 0.698-0.148 0.939-0.387l-0 0c0.244-0.242 0.394-0.577 0.394-0.947s-0.151-0.705-0.394-0.947l-1.053-1.053 1.053-1.053c0.244-0.242 0.394-0.577 0.394-0.947s-0.151-0.705-0.394-0.947l-0-0zM16 2.667c-7.364 0-13.333 5.97-13.333 13.333s5.97 13.333 13.333 13.333c7.364 0 13.333-5.97 13.333-13.333v0c0-7.364-5.97-13.333-13.333-13.333v0zM16 26.667c-5.891 0-10.667-4.776-10.667-10.667s4.776-10.667 10.667-10.667c5.891 0 10.667 4.776 10.667 10.667v0c0 5.891-4.776 10.667-10.667 10.667v0z"></path>
</svg>
