<!-- Generated by IcoMoon.io -->
<svg version="1.1" xmlns="http://www.w3.org/2000/svg" width="32" height="32" viewBox="0 0 32 32">
<title>ul-sync-slash</title>
<path fill="#ebebeb" d="M26.507 20.667h-6c-0.736 0-1.333 0.597-1.333 1.333s0.597 1.333 1.333 1.333v0h3.2c-1.94 2.046-4.673 3.322-7.705 3.333h-0.002c-1.502-0.002-2.932-0.31-4.23-0.867l0.070 0.027-1.987 1.987c1.775 0.957 3.885 1.52 6.127 1.52 0.007 0 0.014 0 0.021-0h-0.001c3.562-0.010 6.793-1.416 9.178-3.698l-0.005 0.005v2.36c0 0.736 0.597 1.333 1.333 1.333s1.333-0.597 1.333-1.333v0-6c0-0.736-0.597-1.333-1.333-1.333v0zM24.413 9.467v0l4.573-4.573c0.242-0.242 0.392-0.577 0.392-0.947 0-0.739-0.599-1.339-1.339-1.339-0.37 0-0.704 0.15-0.947 0.392l-2.667 2.667c-2.258-1.867-5.184-3-8.374-3-0.019 0-0.037 0-0.056 0h0.003c-3.562 0.010-6.793 1.416-9.178 3.698l0.005-0.005v-2.36c0-0.736-0.597-1.333-1.333-1.333s-1.333 0.597-1.333 1.333v0 6c0 0.736 0.597 1.333 1.333 1.333v0h6c0.736 0 1.333-0.597 1.333-1.333s-0.597-1.333-1.333-1.333v0h-3.2c1.933-2.053 4.669-3.332 7.704-3.332 2.471 0 4.745 0.848 6.545 2.269l-0.022-0.017-14.933 14.933c-1.404-1.777-2.252-4.049-2.253-6.52v-0c0-0.736-0.597-1.333-1.333-1.333s-1.333 0.597-1.333 1.333v0c0 0.006-0 0.013-0 0.021 0 3.205 1.143 6.142 3.044 8.428l-0.017-0.021-2.667 2.667c-0.244 0.242-0.394 0.577-0.394 0.947s0.151 0.705 0.394 0.947l0 0c0.242 0.244 0.577 0.394 0.947 0.394s0.705-0.151 0.947-0.394l4.573-4.573zM25.827 11.84c0.53 1.228 0.838 2.658 0.84 4.159v0.001c0 0.736 0.597 1.333 1.333 1.333s1.333-0.597 1.333-1.333v0c0-0.006 0-0.013 0-0.020 0-2.241-0.563-4.351-1.554-6.196l0.034 0.070z"></path>
</svg>
