<!-- Generated by IcoMoon.io -->
<svg version="1.1" xmlns="http://www.w3.org/2000/svg" width="32" height="32" viewBox="0 0 32 32">
<title>ul-snapchat-square</title>
<path fill="#ebebeb" d="M29.298 8.908c-0.002-0.507-0.050-1.002-0.14-1.483l0.008 0.051c-0.105-0.622-0.294-1.18-0.556-1.694l0.015 0.033c-0.302-0.57-0.671-1.059-1.107-1.479l-0.002-0.002c-0.655-0.642-1.471-1.121-2.382-1.372l-0.039-0.009c-0.694-0.176-1.491-0.276-2.312-0.276-0.087 0-0.174 0.001-0.261 0.003l0.013-0-0.005-0.013h-13.065l-0.001 0.013c-0.033-0-0.071-0-0.11-0-0.478 0-0.951 0.024-1.417 0.071l0.059-0.005c-0.582 0.063-1.113 0.188-1.617 0.368l0.049-0.015c-1.69 0.65-2.97 2.036-3.46 3.755l-0.010 0.040c-0.175 0.693-0.276 1.488-0.276 2.307 0 0.082 0.001 0.163 0.003 0.245l-0-0.012-0.009 13.118v0.001c-0 0.011-0 0.023-0 0.035 0 0.614 0.044 1.217 0.129 1.808l-0.008-0.067c0.098 0.669 0.289 1.274 0.562 1.831l-0.016-0.036c0.398 0.773 0.937 1.419 1.589 1.928l0.013 0.010c0.456 0.366 0.989 0.662 1.567 0.858l0.037 0.011c0.767 0.246 1.65 0.388 2.566 0.388 0.025 0 0.049-0 0.074-0l-0.004 0c0.559 0.003 1.118 0.017 1.677 0.015 4.062-0.017 8.124 0.029 12.187-0.025 0.574-0.013 1.124-0.074 1.659-0.18l-0.061 0.010c1.041-0.188 1.951-0.649 2.682-1.307l-0.005 0.004c0.865-0.755 1.491-1.765 1.761-2.912l0.007-0.038c0.147-0.666 0.231-1.431 0.231-2.216 0-0.041-0-0.082-0.001-0.124l0 0.006v-0.156c0-0.061-0.023-13.311-0.025-13.487zM25.73 21.241c-0.171 0.399-1.032 0.73-2.491 0.955-0.137 0.021-0.195 0.242-0.273 0.605-0.033 0.15-0.066 0.296-0.111 0.45-0.027 0.125-0.136 0.217-0.267 0.217-0.008 0-0.015-0-0.023-0.001l0.001 0h-0.023c-0.15-0.006-0.293-0.024-0.43-0.055l0.016 0.003c-0.328-0.072-0.706-0.114-1.092-0.116h-0.001c-0.279 0.001-0.552 0.025-0.818 0.071l0.029-0.004c-0.577 0.149-1.080 0.414-1.503 0.769l0.006-0.005c-0.706 0.606-1.618 0.99-2.618 1.035l-0.009 0c-0.055 0-0.108-0.002-0.148-0.004-0.032 0.003-0.065 0.004-0.098 0.004-1.009-0.046-1.92-0.43-2.632-1.040l0.006 0.005c-0.418-0.351-0.921-0.616-1.472-0.76l-0.026-0.006c-0.237-0.042-0.51-0.066-0.788-0.067h-0.001c-0.39 0.004-0.767 0.049-1.13 0.131l0.036-0.007c-0.121 0.030-0.263 0.051-0.408 0.059l-0.007 0c-0.010 0.001-0.021 0.002-0.032 0.002-0.136 0-0.25-0.096-0.279-0.223l-0-0.002c-0.046-0.156-0.079-0.307-0.111-0.453-0.080-0.364-0.137-0.586-0.274-0.607-1.458-0.225-2.32-0.556-2.491-0.958-0.017-0.037-0.028-0.080-0.030-0.126l-0-0.001c-0-0.004-0-0.009-0-0.013 0-0.116 0.084-0.212 0.195-0.231l0.001-0c1.245-0.231 2.307-0.888 3.053-1.81l0.008-0.010c0.406-0.468 0.755-1.002 1.026-1.581l0.018-0.042 0.005-0.011c0.096-0.155 0.153-0.344 0.153-0.546 0-0.118-0.020-0.232-0.056-0.338l0.002 0.007c-0.188-0.443-0.81-0.64-1.222-0.771-0.102-0.032-0.199-0.063-0.276-0.094-0.365-0.144-0.965-0.449-0.885-0.869 0.121-0.307 0.415-0.521 0.759-0.521 0.011 0 0.022 0 0.034 0.001l-0.002-0c0.004-0 0.008-0 0.013-0 0.082 0 0.16 0.018 0.23 0.049l-0.004-0.001c0.288 0.151 0.626 0.245 0.985 0.261l0.005 0c0.018 0.001 0.038 0.002 0.059 0.002 0.194 0 0.372-0.066 0.513-0.178l-0.002 0.001q-0.016-0.292-0.035-0.584c-0.063-0.418-0.099-0.9-0.099-1.391 0-0.905 0.122-1.781 0.35-2.613l-0.016 0.069c0.811-1.819 2.603-3.063 4.686-3.063 0.022 0 0.044 0 0.067 0l-0.003-0 0.393-0.004c0.019-0 0.042-0 0.065-0 2.085 0 3.879 1.245 4.679 3.033l0.013 0.032c0.212 0.764 0.334 1.64 0.334 2.546 0 0.492-0.036 0.975-0.105 1.447l0.006-0.054-0.004 0.064c-0.011 0.181-0.022 0.352-0.031 0.518 0.136 0.108 0.309 0.173 0.498 0.173 0.007 0 0.013-0 0.020-0l-0.001 0c0.344-0.027 0.661-0.12 0.946-0.266l-0.014 0.007c0.086-0.038 0.187-0.061 0.293-0.061 0.004 0 0.009 0 0.013 0h-0.001c0.001 0 0.002 0 0.003 0 0.124 0 0.243 0.024 0.351 0.069l-0.001-0c0.255 0.062 0.448 0.269 0.489 0.527l0 0.004c0.004 0.204-0.148 0.508-0.892 0.802-0.076 0.030-0.174 0.061-0.276 0.094-0.412 0.131-1.034 0.328-1.222 0.771-0.034 0.099-0.054 0.213-0.054 0.331 0 0.202 0.057 0.39 0.156 0.55l-0.003-0.004 0.005 0.011c0.763 1.712 2.251 2.983 4.063 3.434l0.041 0.009c0.112 0.019 0.196 0.115 0.196 0.231 0 0.005-0 0.009-0 0.014l0-0.001c-0.003 0.047-0.014 0.090-0.032 0.13l0.001-0.002z"></path>
</svg>
