<!-- Generated by IcoMoon.io -->
<svg version="1.1" xmlns="http://www.w3.org/2000/svg" width="32" height="32" viewBox="0 0 32 32">
<title>ul-shopping-basket</title>
<path fill="#ebebeb" d="M18.667 24c0.736 0 1.333-0.597 1.333-1.333v0-2.667c0-0.736-0.597-1.333-1.333-1.333s-1.333 0.597-1.333 1.333v0 2.667c0 0.736 0.597 1.333 1.333 1.333v0zM13.333 24c0.736 0 1.333-0.597 1.333-1.333v0-2.667c0-0.736-0.597-1.333-1.333-1.333s-1.333 0.597-1.333 1.333v0 2.667c0 0.736 0.597 1.333 1.333 1.333v0zM25.333 8h-1.84l-2.307-4.6c-0.206-0.486-0.679-0.821-1.231-0.821-0.736 0-1.333 0.597-1.333 1.333 0 0.254 0.071 0.491 0.194 0.693l-0.003-0.006 1.693 3.4h-9.013l1.693-3.4c0.065-0.151 0.102-0.328 0.102-0.513 0-0.736-0.597-1.333-1.333-1.333-0.482 0-0.905 0.256-1.139 0.64l-0.003 0.006-2.307 4.6h-1.84c-2.183 0.034-3.939 1.812-3.939 4 0 1.748 1.122 3.235 2.684 3.779l0.028 0.008 0.987 9.947c0.21 2.030 1.912 3.6 3.98 3.6 0.007 0 0.014-0 0.021-0h11.172c0.006 0 0.013 0 0.020 0 2.068 0 3.77-1.57 3.979-3.583l0.001-0.017 0.987-9.947c1.59-0.553 2.712-2.039 2.712-3.787 0-2.197-1.771-3.98-3.963-4h-0.002zM22.92 25.467c-0.070 0.677-0.637 1.2-1.327 1.2-0.002 0-0.005 0-0.007-0h-11.173c-0.002 0-0.004 0-0.007 0-0.689 0-1.257-0.523-1.326-1.194l-0-0.006-0.947-9.467h15.733zM25.333 13.333h-18.667c-0.736 0-1.333-0.597-1.333-1.333s0.597-1.333 1.333-1.333v0h18.667c0.736 0 1.333 0.597 1.333 1.333s-0.597 1.333-1.333 1.333v0z"></path>
</svg>
