<!-- Generated by IcoMoon.io -->
<svg version="1.1" xmlns="http://www.w3.org/2000/svg" width="32" height="32" viewBox="0 0 32 32">
<title>ul-sad-dizzy</title>
<path fill="#ebebeb" d="M12 15.613l0.387-0.4 0.387 0.4c0.242 0.244 0.577 0.394 0.947 0.394s0.705-0.151 0.947-0.394l0-0c0.244-0.242 0.394-0.577 0.394-0.947s-0.151-0.705-0.394-0.947l-0-0-0.4-0.387 0.4-0.387c0.238-0.244 0.384-0.578 0.384-0.947 0-0.75-0.608-1.358-1.358-1.358-0.382 0-0.726 0.157-0.973 0.411l-0 0-0.387 0.4-0.333-0.4c-0.247-0.254-0.592-0.411-0.973-0.411-0.75 0-1.358 0.608-1.358 1.358 0 0.368 0.147 0.702 0.385 0.947l-0-0 0.4 0.387-0.4 0.387c-0.244 0.242-0.394 0.577-0.394 0.947s0.151 0.705 0.394 0.947l0 0c0.242 0.244 0.577 0.394 0.947 0.394s0.705-0.151 0.947-0.394l0-0zM11.2 20.44c-0.292 0.246-0.476 0.612-0.476 1.021 0 0.322 0.114 0.617 0.304 0.848l-0.002-0.002c0.246 0.296 0.615 0.482 1.026 0.482 0.326 0 0.624-0.117 0.856-0.311l-0.002 0.002c0.852-0.692 1.951-1.11 3.147-1.11s2.294 0.419 3.156 1.118l-0.009-0.007c0.229 0.192 0.528 0.309 0.854 0.309 0.412 0 0.78-0.187 1.025-0.48l0.002-0.002c0.188-0.228 0.302-0.524 0.302-0.846 0-0.409-0.184-0.775-0.474-1.019l-0.002-0.002c-1.32-1.078-3.024-1.73-4.88-1.73s-3.56 0.653-4.894 1.741l0.014-0.011zM16 2.667c-7.364 0-13.333 5.97-13.333 13.333s5.97 13.333 13.333 13.333c7.364 0 13.333-5.97 13.333-13.333v0c0-7.364-5.97-13.333-13.333-13.333v0zM16 26.667c-5.891 0-10.667-4.776-10.667-10.667s4.776-10.667 10.667-10.667c5.891 0 10.667 4.776 10.667 10.667v0c0 5.891-4.776 10.667-10.667 10.667v0zM22.667 11.053c-0.242-0.244-0.577-0.394-0.947-0.394s-0.705 0.151-0.947 0.394l-0 0-0.387 0.4-0.387-0.4c-0.242-0.242-0.577-0.392-0.947-0.392-0.739 0-1.339 0.599-1.339 1.339 0 0.37 0.15 0.704 0.392 0.947v0l0.4 0.387-0.4 0.387c-0.244 0.242-0.394 0.577-0.394 0.947s0.151 0.705 0.394 0.947l0 0c0.242 0.244 0.577 0.394 0.947 0.394s0.705-0.151 0.947-0.394l0-0 0.387-0.4 0.387 0.4c0.242 0.244 0.577 0.394 0.947 0.394s0.705-0.151 0.947-0.394l0-0c0.244-0.242 0.394-0.577 0.394-0.947s-0.151-0.705-0.394-0.947l-0-0-0.4-0.387 0.4-0.387c0.244-0.242 0.394-0.577 0.394-0.947s-0.151-0.705-0.394-0.947l-0-0z"></path>
</svg>
