<!-- Generated by IcoMoon.io -->
<svg version="1.1" xmlns="http://www.w3.org/2000/svg" width="32" height="32" viewBox="0 0 32 32">
<title>ul-swiggy</title>
<path fill="#ebebeb" d="M17.171 7.905c0.008-0.001 0.017-0.001 0.026-0.001 0.219 0 0.396 0.177 0.396 0.396 0 0.018-0.001 0.036-0.004 0.054l0-0.002c0.003 0.123 0.005 0.245 0.005 0.368 0.001 0.79-0.003 1.58 0.003 2.37 0.004 0.578 0.106 0.689 0.666 0.759 0.543 0.053 1.174 0.083 1.813 0.083 0.84 0 1.669-0.052 2.482-0.154l-0.097 0.010c0.769-0.055 1.482-0.233 2.14-0.515l-0.043 0.016c0.279-0.088 0.478-0.344 0.478-0.647 0-0.056-0.007-0.11-0.019-0.161l0.001 0.005c-0.561-3.799-3.4-6.804-7.064-7.604l-0.060-0.011c-0.562-0.128-1.207-0.201-1.87-0.201-1.074 0-2.104 0.192-3.056 0.544l0.061-0.020c-1.418 0.503-2.622 1.303-3.587 2.331l-0.004 0.005c-1.473 1.465-2.403 3.475-2.462 5.702l-0 0.011c0.031 2.715 0.782 5.249 2.072 7.426l-0.038-0.069c0.298 0.599 0.905 1.004 1.608 1.004 0.058 0 0.116-0.003 0.172-0.008l-0.007 0.001c0.871-0.021 1.743-0.005 2.615-0.005v-0.005q1.389 0 2.778 0.001c0.332 0.001 0.595 0.080 0.593 0.496-0.006 0.967 0.001 1.934-0.004 2.901-0.002 0.294-0.084 0.576-0.435 0.579-0.352 0.003-0.435-0.279-0.44-0.573-0.007-0.463 0-0.926 0.001-1.389 0.001-0.601-0.098-0.742-0.698-0.852-0.496-0.085-1.068-0.134-1.651-0.134-0.522 0-1.035 0.039-1.536 0.114l0.056-0.007c-0.392 0.032-0.755 0.124-1.090 0.268l0.023-0.009c-0.282 0.133-0.395 0.327-0.258 0.623 0.143 0.308 0.276 0.623 0.444 0.917 1.507 2.52 3.015 4.677 4.657 6.722l-0.089-0.114c0.205 0.266 0.364 0.271 0.575 0.014 0.465-0.569 0.953-1.118 1.413-1.691 1.709-2.056 3.287-4.351 4.65-6.783l0.119-0.23c0.859-1.488 1.546-3.21 1.968-5.035l0.025-0.127c0.069-0.173 0.109-0.373 0.109-0.582 0-0.835-0.637-1.52-1.452-1.597l-0.006-0.001c-0.601-0.139-1.29-0.218-1.999-0.218-0.080 0-0.16 0.001-0.24 0.003l0.012-0c-1.212-0.009-2.424-0.005-3.636-0.004-0.326 0-0.569-0.093-0.569-0.476-0.001-1.348-0.002-2.697 0.002-4.045 0.001-0.288 0.14-0.465 0.453-0.454z"></path>
</svg>
