<!-- Generated by IcoMoon.io -->
<svg version="1.1" xmlns="http://www.w3.org/2000/svg" width="32" height="32" viewBox="0 0 32 32">
<title>ul-table-tennis</title>
<path fill="#ebebeb" d="M27.613 21.467l-2.187-2.187c-0.247-0.23-0.401-0.556-0.401-0.919 0-0.184 0.040-0.358 0.111-0.516l-0.003 0.008c0.445-0.934 0.71-2.028 0.72-3.183l0-0.004c0.003-0.020 0.005-0.043 0.005-0.067s-0.002-0.047-0.005-0.069l0 0.003c0-0.007 0-0.014 0-0.022 0-1.662-0.53-3.2-1.429-4.454l0.016 0.023c-1.79-2.481-4.103-4.474-6.786-5.844l-0.107-0.050c-1.198-0.6-2.61-0.951-4.104-0.951-2.559 0-4.878 1.030-6.564 2.698l0.001-0.001-0.893 0.893c-1.68 1.688-2.719 4.015-2.719 6.585 0 1.511 0.359 2.939 0.997 4.202l-0.024-0.053 0.133 0.227c-0.686 0.711-1.112 1.679-1.12 2.745v0.002c0.017 2.196 1.801 3.97 4 3.97 0.769 0 1.488-0.217 2.097-0.593l-0.017 0.010c0.24 0.187 0.453 0.387 0.693 0.56 0.469 0.33 1.005 0.617 1.576 0.836l0.051 0.017h0.12c0.24 0.093 0.493 0.173 0.76 0.253h0.2c0.37 0.099 0.803 0.171 1.247 0.199l0.020 0.001h0.827c0.28 0 0.547 0 0.827-0.080h0.227c0.711-0.124 1.346-0.333 1.937-0.619l-0.043 0.019c0.147-0.061 0.319-0.097 0.498-0.097 0.361 0 0.689 0.144 0.929 0.377l1.946 1.946c0.815 0.818 1.941 1.326 3.185 1.333h0.001c1.045-0.012 1.986-0.443 2.666-1.133l0.507-0.507c0.728-0.725 1.178-1.727 1.178-2.835 0-1.054-0.408-2.013-1.074-2.727l0.002 0.002zM7.213 21.893c-0.736 0-1.333-0.597-1.333-1.333s0.597-1.333 1.333-1.333c0.736 0 1.333 0.597 1.333 1.333v0c0 0.736-0.597 1.333-1.333 1.333v0zM11.347 22.080l-0.347-0.267c0.133-0.373 0.211-0.804 0.213-1.252v-0.001c0-2.209-1.791-4-4-4v0c-0.173 0-0.333 0-0.507 0l-0.12-0.213c-0.44-0.865-0.697-1.887-0.697-2.968 0-1.833 0.74-3.494 1.938-4.699l0.893-0.893c1.196-1.147 2.822-1.854 4.613-1.854 1.11 0 2.157 0.271 3.077 0.751l-0.037-0.018c2.284 1.158 4.185 2.765 5.65 4.719l0.030 0.041zM25.72 25.24l-0.493 0.507c-0.56 0.56-1.427 0.453-2.147-0.267l-1.947-1.933c-0.723-0.718-1.719-1.162-2.819-1.162-0.592 0-1.154 0.129-1.659 0.359l0.025-0.010c-0.387 0.194-0.836 0.339-1.308 0.41l-0.025 0.003c-0.214 0.043-0.459 0.067-0.71 0.067-0.022 0-0.044-0-0.066-0.001l0.003 0h-0.587l9.16-9.16c0.017 0.154 0.026 0.334 0.026 0.515 0 0.781-0.177 1.521-0.493 2.182l0.013-0.031c-0.22 0.48-0.349 1.042-0.349 1.634 0 1.1 0.444 2.096 1.163 2.819l-0-0 2.187 2.2c0.244 0.242 0.395 0.577 0.395 0.947 0 0.357-0.14 0.681-0.369 0.92l0-0.001z"></path>
</svg>
