<!-- Generated by IcoMoon.io -->
<svg version="1.1" xmlns="http://www.w3.org/2000/svg" width="32" height="32" viewBox="0 0 32 32">
<title>ul-trademark-circle</title>
<path fill="#ebebeb" d="M13.333 12h-4c-0.736 0-1.333 0.597-1.333 1.333s0.597 1.333 1.333 1.333v0h0.667v4c0 0.736 0.597 1.333 1.333 1.333s1.333-0.597 1.333-1.333v0-4h0.667c0.736 0 1.333-0.597 1.333-1.333s-0.597-1.333-1.333-1.333v0zM23.173 12.107c-0.153-0.066-0.33-0.104-0.517-0.104-0.365 0-0.696 0.147-0.937 0.384l0-0-1.72 1.733-1.72-1.733c-0.241-0.238-0.571-0.384-0.936-0.384-0.187 0-0.364 0.038-0.526 0.108l0.009-0.003c-0.487 0.204-0.824 0.676-0.827 1.226v5.334c0 0.736 0.597 1.333 1.333 1.333s1.333-0.597 1.333-1.333v0-2.12l0.387 0.4c0.242 0.244 0.577 0.394 0.947 0.394s0.705-0.151 0.947-0.394l0-0 0.387-0.4v2.12c0 0.736 0.597 1.333 1.333 1.333s1.333-0.597 1.333-1.333v0-5.333c-0.003-0.551-0.339-1.023-0.818-1.223l-0.009-0.003zM16 2.667c-7.364 0-13.333 5.97-13.333 13.333s5.97 13.333 13.333 13.333c7.364 0 13.333-5.97 13.333-13.333v0c0-7.364-5.97-13.333-13.333-13.333v0zM16 26.667c-5.891 0-10.667-4.776-10.667-10.667s4.776-10.667 10.667-10.667c5.891 0 10.667 4.776 10.667 10.667v0c0 5.891-4.776 10.667-10.667 10.667v0z"></path>
</svg>
