<!-- Generated by IcoMoon.io -->
<svg version="1.1" xmlns="http://www.w3.org/2000/svg" width="32" height="32" viewBox="0 0 32 32">
<title>ul-temperature-half</title>
<path fill="#ebebeb" d="M17.333 20.373v-6.373c0-0.736-0.597-1.333-1.333-1.333s-1.333 0.597-1.333 1.333v0 6.373c-0.798 0.467-1.327 1.318-1.333 2.292v0.001c0 1.473 1.194 2.667 2.667 2.667s2.667-1.194 2.667-2.667v0c-0.006-0.976-0.535-1.826-1.321-2.287l-0.013-0.007zM22 17.333v-10c0-3.314-2.686-6-6-6s-6 2.686-6 6v0 10c-1.243 1.403-2.002 3.26-2.002 5.293 0 3.809 2.663 6.997 6.228 7.803l0.054 0.010c0.507 0.121 1.097 0.202 1.702 0.226l0.018 0.001c0.011 0 0.024 0 0.037 0 4.418 0 8-3.582 8-8 0-2.053-0.773-3.925-2.044-5.341l0.007 0.007zM19.333 26.76c-0.939 0.835-2.183 1.346-3.547 1.346-2.952 0-5.346-2.393-5.346-5.346 0-1.589 0.693-3.016 1.794-3.995l0.005-0.005c0.246-0.241 0.398-0.576 0.4-0.946v-10.48c0-1.841 1.492-3.333 3.333-3.333s3.333 1.492 3.333 3.333v0 10.587c0.002 0.371 0.154 0.706 0.4 0.946l0 0c1.004 0.971 1.628 2.331 1.628 3.836 0 1.68-0.777 3.179-1.991 4.156l-0.010 0.008z"></path>
</svg>
