<!-- Generated by IcoMoon.io -->
<svg version="1.1" xmlns="http://www.w3.org/2000/svg" width="32" height="32" viewBox="0 0 32 32">
<title>ul-tear</title>
<path fill="#ebebeb" d="M16.747 2.893c-0.209-0.143-0.468-0.229-0.747-0.229s-0.537 0.085-0.751 0.232l0.005-0.003c-0.4 0.267-9.587 6.667-9.587 16.107 0 5.707 4.626 10.333 10.333 10.333s10.333-4.626 10.333-10.333v0c0-9.6-9.2-15.853-9.587-16.107zM16 26.667c-4.231-0.008-7.659-3.436-7.667-7.666v-0.001c0-6.667 5.613-11.693 7.667-13.333 2.067 1.613 7.667 6.667 7.667 13.333-0.008 4.231-3.436 7.659-7.666 7.667h-0.001z"></path>
</svg>
