<!-- Generated by IcoMoon.io -->
<svg version="1.1" xmlns="http://www.w3.org/2000/svg" width="32" height="32" viewBox="0 0 32 32">
<title>ul-trowel</title>
<path fill="#ebebeb" d="M28.16 3.84c-0.735-0.698-1.731-1.128-2.827-1.128s-2.092 0.429-2.828 1.129l0.002-0.002-3.227 3.213c-0.714 0.722-1.156 1.716-1.156 2.812 0 0.631 0.146 1.227 0.406 1.758l-0.010-0.024-2.867 2.867-2.667-2.667c-0.727-0.744-1.741-1.205-2.862-1.205-1.768 0-3.268 1.147-3.797 2.737l-0.008 0.028-3.547 10.667c-0.131 0.379-0.207 0.815-0.207 1.27 0 1.102 0.446 2.1 1.167 2.824l-0-0c0.728 0.749 1.745 1.214 2.87 1.214 0.022 0 0.044-0 0.067-0.001l-0.003 0c0.021 0 0.046 0.001 0.072 0.001 0.452 0 0.886-0.078 1.288-0.222l-0.027 0.008 10.667-3.547c1.619-0.537 2.765-2.037 2.765-3.805 0-1.121-0.461-2.135-1.205-2.861l-0.001-0.001-2.667-2.667 2.867-2.867c0.507 0.25 1.104 0.396 1.734 0.396 1.097 0 2.090-0.441 2.813-1.156l-0 0 3.213-3.227c0.684-0.716 1.104-1.689 1.104-2.759 0-1.084-0.431-2.068-1.132-2.788l0.001 0.001zM18.267 20.84c0.236 0.24 0.382 0.57 0.382 0.934 0 0.587-0.379 1.085-0.906 1.263l-0.009 0.003-10.64 3.627c-0.117 0.037-0.251 0.058-0.39 0.058-0.369 0-0.702-0.15-0.944-0.391l-0-0c-0.242-0.241-0.391-0.575-0.391-0.944 0-0.139 0.021-0.273 0.061-0.399l-0.003 0.009 3.56-10.667c0.107-0.482 0.463-0.861 0.924-0.998l0.009-0.002c0.046-0.005 0.099-0.008 0.153-0.008s0.107 0.003 0.16 0.009l-0.006-0.001c0.364 0.002 0.694 0.149 0.933 0.387l2.667 2.667-1.16 1.147c-0.244 0.242-0.394 0.577-0.394 0.947s0.151 0.705 0.394 0.947l0 0c0.242 0.244 0.577 0.394 0.947 0.394s0.705-0.151 0.947-0.394l0-0 1.147-1.16zM26.267 7.613l-3.213 3.213c-0.24 0.236-0.57 0.381-0.933 0.381-0.734 0-1.33-0.594-1.333-1.328v-0c0.002-0.364 0.149-0.694 0.387-0.933l-0 0 3.213-3.227c0.242-0.244 0.577-0.394 0.947-0.394s0.705 0.151 0.947 0.394l0 0c0.244 0.242 0.394 0.577 0.394 0.947s-0.151 0.705-0.394 0.947l-0 0z"></path>
</svg>
