<!-- Generated by IcoMoon.io -->
<svg version="1.1" xmlns="http://www.w3.org/2000/svg" width="32" height="32" viewBox="0 0 32 32">
<title>ul-wind-moon</title>
<path fill="#ebebeb" d="M16 25.333h-6.667c-0.736 0-1.333 0.597-1.333 1.333s0.597 1.333 1.333 1.333v0h6.667c0.732 0.010 1.323 0.601 1.333 1.332v0.001c0 0.736 0.597 1.333 1.333 1.333s1.333-0.597 1.333-1.333v0c-0.003-2.208-1.792-3.997-4-4h-0zM18.667 12c0.736 0 1.333-0.597 1.333-1.333s-0.597-1.333-1.333-1.333c-0.736 0-1.333 0.597-1.333 1.333v0c0 0.736 0.597 1.333 1.333 1.333v0zM24 12h2.667c2.208-0.002 3.997-1.792 4-4v-0c0-0.736-0.597-1.333-1.333-1.333s-1.333 0.597-1.333 1.333v0c-0.010 0.732-0.601 1.323-1.332 1.333h-2.668c-0.736 0-1.333 0.597-1.333 1.333s0.597 1.333 1.333 1.333v0zM26.667 20h-2.882c0.73-1.125 1.264-2.448 1.519-3.869l0.010-0.065c0.012-0.068 0.019-0.146 0.019-0.226 0-0.737-0.597-1.334-1.334-1.334-0.153 0-0.299 0.026-0.436 0.073l0.009-0.003c-0.763 0.268-1.644 0.423-2.56 0.423h-0c-4.457-0.002-8.070-3.611-8.079-8.066v-0.001c0.010-0.502 0.057-0.984 0.138-1.455l-0.008 0.057c0.010-0.061 0.015-0.131 0.015-0.203 0-0.736-0.597-1.332-1.332-1.332-0.153 0-0.299 0.026-0.436 0.073l0.009-0.003c-4.29 1.462-7.32 5.457-7.32 10.159 0 2.143 0.629 4.139 1.713 5.813l-0.025-0.042h-1.688c-0.736 0-1.333 0.597-1.333 1.333s0.597 1.333 1.333 1.333v0h6.667c0.736 0 1.333-0.597 1.333-1.333s-0.597-1.333-1.333-1.333v0h-1.559c-1.506-1.462-2.441-3.506-2.441-5.769 0-2.793 1.424-5.253 3.586-6.693l0.029-0.018c0.33 5.67 5.007 10.144 10.73 10.147h0c0.002 0 0.005 0 0.007 0 0.368 0 0.731-0.019 1.090-0.056l-0.045 0.004c-0.436 0.926-1.005 1.716-1.693 2.383l-0.002 0.002h-4.37c-0.736 0-1.333 0.597-1.333 1.333s0.597 1.333 1.333 1.333v0h10.667c0.736 0 1.333 0.597 1.333 1.333s-0.597 1.333-1.333 1.333v0c-0.736 0-1.333 0.597-1.333 1.333s0.597 1.333 1.333 1.333v0c2.209 0 4-1.791 4-4s-1.791-4-4-4v0zM3.494 25.44c-0.17 0.072-0.315 0.166-0.441 0.281l0.001-0.001c-0.238 0.245-0.385 0.578-0.387 0.946v0c-0 0.004-0 0.009-0 0.014 0 0.729 0.591 1.32 1.32 1.32 0.188 0 0.367-0.039 0.529-0.11l-0.008 0.003c0.169-0.072 0.315-0.166 0.441-0.281l-0.001 0.001c0.239-0.24 0.387-0.57 0.387-0.935 0-0.004-0-0.008-0-0.012v0.001c-0.006-0.368-0.152-0.7-0.387-0.947l0.001 0.001c-0.241-0.237-0.572-0.384-0.937-0.384-0.186 0-0.364 0.038-0.525 0.107l0.009-0.003z"></path>
</svg>
