<!-- Generated by IcoMoon.io -->
<svg version="1.1" xmlns="http://www.w3.org/2000/svg" width="32" height="32" viewBox="0 0 32 32">
<title>ul-yen-circle</title>
<path fill="#ebebeb" d="M16 1.333c-8.1 0-14.667 6.566-14.667 14.667s6.566 14.667 14.667 14.667c8.1 0 14.667-6.566 14.667-14.667v0c0-8.1-6.566-14.667-14.667-14.667v0zM16 28c-6.627 0-12-5.373-12-12s5.373-12 12-12c6.627 0 12 5.373 12 12v0c0 6.627-5.373 12-12 12v0zM19.773 8.6l-3.773 5.667-3.773-5.667c-0.242-0.363-0.65-0.598-1.112-0.598-0.276 0-0.533 0.084-0.746 0.228l0.005-0.003c-0.359 0.243-0.592 0.648-0.592 1.108 0 0.272 0.082 0.526 0.222 0.737l-0.003-0.005 2.813 4.227h-0.813c-0.736 0-1.333 0.597-1.333 1.333s0.597 1.333 1.333 1.333v0h2.667l0.067 0.107v1.227h-2.733c-0.736 0-1.333 0.597-1.333 1.333s0.597 1.333 1.333 1.333v0h2.667v3.040c0 0.736 0.597 1.333 1.333 1.333s1.333-0.597 1.333-1.333v0-3.040h2.667c0.736 0 1.333-0.597 1.333-1.333s-0.597-1.333-1.333-1.333v0h-2.667v-1.227l0.067-0.107h2.6c0.736 0 1.333-0.597 1.333-1.333s-0.597-1.333-1.333-1.333v0h-0.813l2.813-4.227c0.137-0.206 0.219-0.459 0.219-0.732 0-0.46-0.233-0.866-0.587-1.105l-0.005-0.003c-0.208-0.141-0.465-0.225-0.741-0.225-0.463 0-0.87 0.236-1.109 0.593l-0.003 0.005z"></path>
</svg>
