<!-- Generated by IcoMoon.io -->
<svg version="1.1" xmlns="http://www.w3.org/2000/svg" width="280" height="280" viewBox="0 0 280 280">
<title>mi-cmd</title>
<path d="M58.333 116.667c-32.667 0-58.333-25.667-58.333-58.333s25.667-58.333 58.333-58.333 58.333 25.667 58.333 58.333c0 7-4.667 11.667-11.667 11.667s-11.667-4.667-11.667-11.667c0-19.833-15.167-35-35-35s-35 15.167-35 35 15.167 35 35 35c7 0 11.667 4.667 11.667 11.667s-4.667 11.667-11.667 11.667z"></path>
<path d="M221.667 116.667c-7 0-11.667-4.667-11.667-11.667s4.667-11.667 11.667-11.667c19.833 0 35-15.167 35-35s-15.167-35-35-35-35 15.167-35 35c0 7-4.667 11.667-11.667 11.667s-11.667-4.667-11.667-11.667c0-32.667 25.667-58.333 58.333-58.333s58.333 25.667 58.333 58.333-25.667 58.333-58.333 58.333z"></path>
<path d="M58.333 280c-32.667 0-58.333-25.667-58.333-58.333s25.667-58.333 58.333-58.333c7 0 11.667 4.667 11.667 11.667s-4.667 11.667-11.667 11.667c-19.833 0-35 15.167-35 35s15.167 35 35 35 35-15.167 35-35c0-7 4.667-11.667 11.667-11.667s11.667 4.667 11.667 11.667c0 32.667-25.667 58.333-58.333 58.333z"></path>
<path d="M221.667 280c-32.667 0-58.333-25.667-58.333-58.333 0-7 4.667-11.667 11.667-11.667s11.667 4.667 11.667 11.667c0 19.833 15.167 35 35 35s35-15.167 35-35-15.167-35-35-35c-7 0-11.667-4.667-11.667-11.667s4.667-11.667 11.667-11.667c32.667 0 58.333 25.667 58.333 58.333s-25.667 58.333-58.333 58.333z"></path>
<path d="M105 233.333c-7 0-11.667-4.667-11.667-11.667v-163.333c0-7 4.667-11.667 11.667-11.667s11.667 4.667 11.667 11.667v163.333c0 7-4.667 11.667-11.667 11.667z"></path>
<path d="M175 233.333c-7 0-11.667-4.667-11.667-11.667v-163.333c0-7 4.667-11.667 11.667-11.667s11.667 4.667 11.667 11.667v163.333c0 7-4.667 11.667-11.667 11.667z"></path>
<path d="M221.667 116.667h-163.333c-7 0-11.667-4.667-11.667-11.667s4.667-11.667 11.667-11.667h163.333c7 0 11.667 4.667 11.667 11.667s-4.667 11.667-11.667 11.667z"></path>
<path d="M221.667 186.667h-163.333c-7 0-11.667-4.667-11.667-11.667s4.667-11.667 11.667-11.667h163.333c7 0 11.667 4.667 11.667 11.667s-4.667 11.667-11.667 11.667z"></path>
</svg>
