<!-- Generated by IcoMoon.io -->
<svg version="1.1" xmlns="http://www.w3.org/2000/svg" width="280" height="280" viewBox="0 0 280 280">
<title>mi-car</title>
<path d="M268.333 221.667h-256.667c-7 0-11.667-4.667-11.667-11.667v-81.667c0-19.833 15.167-35 35-35h210c19.833 0 35 15.167 35 35v81.667c0 7-4.667 11.667-11.667 11.667zM23.333 198.333h233.333v-70c0-7-4.667-11.667-11.667-11.667h-210c-7 0-11.667 4.667-11.667 11.667v70z"></path>
<path d="M245 116.667h-210c-3.5 0-7-1.167-9.333-4.667-2.333-2.333-2.333-7-2.333-10.5l23.333-81.667c2.333-4.667 7-8.167 11.667-8.167h163.333c4.667 0 9.333 3.5 11.667 8.167l23.333 81.667c0 3.5 0 8.167-2.333 10.5-2.333 3.5-5.833 4.667-9.333 4.667zM50.167 93.333h178.5l-16.333-58.333h-144.667l-17.5 58.333z"></path>
<path d="M70 268.333h-58.333c-7 0-11.667-4.667-11.667-11.667v-46.667c0-7 4.667-11.667 11.667-11.667h58.333c7 0 11.667 4.667 11.667 11.667v46.667c0 7-4.667 11.667-11.667 11.667zM23.333 245h35v-23.333h-35v23.333z"></path>
<path d="M268.333 268.333h-58.333c-7 0-11.667-4.667-11.667-11.667v-46.667c0-7 4.667-11.667 11.667-11.667h58.333c7 0 11.667 4.667 11.667 11.667v46.667c0 7-4.667 11.667-11.667 11.667zM221.667 245h35v-23.333h-35v23.333z"></path>
<path d="M80.5 187.833c-3.5 0-7 0-9.333 0s-4.667 0-5.833 0c-17.5-1.167-30.333-14-30.333-30.333s12.833-29.167 29.167-29.167c16.333 0 40.833 24.5 40.833 40.833 0 5.833-2.333 18.667-24.5 18.667zM64.167 151.667c-3.5 0-5.833 2.333-5.833 5.833s2.333 5.833 5.833 5.833c2.333 0 4.667 0 8.167 0 2.333 0 4.667 0 7 0-4.667-4.667-11.667-10.5-15.167-11.667z"></path>
<path d="M199.5 187.833c0 0 0 0 0 0-22.167 0-24.5-12.833-24.5-18.667 0-16.333 24.5-40.833 40.833-40.833s29.167 12.833 29.167 29.167-12.833 29.167-29.167 29.167c-2.333 0-3.5 0-5.833 0-3.5 0-7 1.167-10.5 1.167zM215.833 151.667c-3.5 1.167-10.5 7-14 12.833 2.333 0 4.667 0 7 0s5.833 0 8.167 0c3.5 0 5.833-2.333 5.833-5.833s-3.5-7-7-7z"></path>
<path d="M29.167 105c-16.333 0-29.167-12.833-29.167-29.167s12.833-29.167 29.167-29.167c11.667 0 22.167 7 26.833 17.5 2.333 5.833 0 12.833-5.833 15.167-1.167 1.167-2.333 1.167-3.5 1.167 0 1.167 1.167 1.167 2.333 2.333 3.5 5.833 2.333 12.833-2.333 16.333s-11.667 5.833-17.5 5.833zM29.167 70c-3.5 0-5.833 2.333-5.833 5.833s2.333 5.833 5.833 5.833c1.167 0 2.333 0 3.5-1.167 2.333-1.167 3.5-2.333 5.833-2.333-2.333-1.167-3.5-2.333-3.5-4.667-1.167-2.333-3.5-3.5-5.833-3.5z"></path>
<path d="M250.833 105c-5.833 0-12.833-2.333-17.5-5.833s-5.833-11.667-2.333-16.333c1.167-1.167 2.333-1.167 2.333-2.333-1.167 0-2.333 0-3.5-1.167-5.833-2.333-9.333-9.333-5.833-15.167 4.667-10.5 15.167-17.5 26.833-17.5 16.333 0 29.167 12.833 29.167 29.167s-12.833 29.167-29.167 29.167zM241.5 78.167c2.333 0 4.667 1.167 5.833 2.333s2.333 1.167 3.5 1.167c3.5 0 5.833-2.333 5.833-5.833s-2.333-5.833-5.833-5.833c-2.333 0-4.667 1.167-5.833 3.5 0 2.333-1.167 3.5-3.5 4.667z"></path>
</svg>
