<!-- Generated by IcoMoon.io -->
<svg version="1.1" xmlns="http://www.w3.org/2000/svg" width="280" height="280" viewBox="0 0 280 280">
<title>mi-calendar</title>
<path d="M245 268.333h-210c-19.833 0-35-15.167-35-35v-163.333c0-19.833 15.167-35 35-35h210c19.833 0 35 15.167 35 35v163.333c0 19.833-15.167 35-35 35zM35 58.333c-7 0-11.667 4.667-11.667 11.667v163.333c0 7 4.667 11.667 11.667 11.667h210c7 0 11.667-4.667 11.667-11.667v-163.333c0-7-4.667-11.667-11.667-11.667h-210z"></path>
<path d="M70 81.667c-7 0-11.667-4.667-11.667-11.667v-46.667c0-7 4.667-11.667 11.667-11.667s11.667 4.667 11.667 11.667v46.667c0 7-4.667 11.667-11.667 11.667z"></path>
<path d="M210 81.667c-7 0-11.667-4.667-11.667-11.667v-46.667c0-7 4.667-11.667 11.667-11.667s11.667 4.667 11.667 11.667v46.667c0 7-4.667 11.667-11.667 11.667z"></path>
<path d="M268.333 128.333h-256.667c-7 0-11.667-4.667-11.667-11.667s4.667-11.667 11.667-11.667h256.667c7 0 11.667 4.667 11.667 11.667s-4.667 11.667-11.667 11.667z"></path>
<path d="M81.667 163.333c0 6.443-5.223 11.667-11.667 11.667s-11.667-5.223-11.667-11.667c0-6.443 5.223-11.667 11.667-11.667s11.667 5.223 11.667 11.667z"></path>
<path d="M70 180.833c-9.333 0-17.5-8.167-17.5-17.5s8.167-17.5 17.5-17.5 17.5 8.167 17.5 17.5-8.167 17.5-17.5 17.5zM70 157.5c-3.5 0-5.833 2.333-5.833 5.833s2.333 5.833 5.833 5.833 5.833-2.333 5.833-5.833-2.333-5.833-5.833-5.833z"></path>
<path d="M81.667 210c0 6.443-5.223 11.667-11.667 11.667s-11.667-5.223-11.667-11.667c0-6.443 5.223-11.667 11.667-11.667s11.667 5.223 11.667 11.667z"></path>
<path d="M70 227.5c-9.333 0-17.5-8.167-17.5-17.5s8.167-17.5 17.5-17.5 17.5 8.167 17.5 17.5-8.167 17.5-17.5 17.5zM70 204.167c-3.5 0-5.833 2.333-5.833 5.833s2.333 5.833 5.833 5.833 5.833-2.333 5.833-5.833-2.333-5.833-5.833-5.833z"></path>
<path d="M128.333 210c0 6.443-5.223 11.667-11.667 11.667s-11.667-5.223-11.667-11.667c0-6.443 5.223-11.667 11.667-11.667s11.667 5.223 11.667 11.667z"></path>
<path d="M116.667 227.5c-9.333 0-17.5-8.167-17.5-17.5s8.167-17.5 17.5-17.5 17.5 8.167 17.5 17.5-8.167 17.5-17.5 17.5zM116.667 204.167c-3.5 0-5.833 2.333-5.833 5.833s2.333 5.833 5.833 5.833 5.833-2.333 5.833-5.833-2.333-5.833-5.833-5.833z"></path>
<path d="M128.333 163.333c0 6.443-5.223 11.667-11.667 11.667s-11.667-5.223-11.667-11.667c0-6.443 5.223-11.667 11.667-11.667s11.667 5.223 11.667 11.667z"></path>
<path d="M116.667 180.833c-9.333 0-17.5-8.167-17.5-17.5s8.167-17.5 17.5-17.5 17.5 8.167 17.5 17.5-8.167 17.5-17.5 17.5zM116.667 157.5c-3.5 0-5.833 2.333-5.833 5.833s2.333 5.833 5.833 5.833 5.833-2.333 5.833-5.833-2.333-5.833-5.833-5.833z"></path>
<path d="M175 163.333c0 6.443-5.223 11.667-11.667 11.667s-11.667-5.223-11.667-11.667c0-6.443 5.223-11.667 11.667-11.667s11.667 5.223 11.667 11.667z"></path>
<path d="M163.333 180.833c-9.333 0-17.5-8.167-17.5-17.5s8.167-17.5 17.5-17.5 17.5 8.167 17.5 17.5-8.167 17.5-17.5 17.5zM163.333 157.5c-3.5 0-5.833 2.333-5.833 5.833s2.333 5.833 5.833 5.833 5.833-2.333 5.833-5.833-2.333-5.833-5.833-5.833z"></path>
<path d="M175 210c0 6.443-5.223 11.667-11.667 11.667s-11.667-5.223-11.667-11.667c0-6.443 5.223-11.667 11.667-11.667s11.667 5.223 11.667 11.667z"></path>
<path d="M163.333 227.5c-9.333 0-17.5-8.167-17.5-17.5s8.167-17.5 17.5-17.5 17.5 8.167 17.5 17.5-8.167 17.5-17.5 17.5zM163.333 204.167c-3.5 0-5.833 2.333-5.833 5.833s2.333 5.833 5.833 5.833 5.833-2.333 5.833-5.833-2.333-5.833-5.833-5.833z"></path>
<path d="M221.667 210c0 6.443-5.223 11.667-11.667 11.667s-11.667-5.223-11.667-11.667c0-6.443 5.223-11.667 11.667-11.667s11.667 5.223 11.667 11.667z"></path>
<path d="M210 227.5c-9.333 0-17.5-8.167-17.5-17.5s8.167-17.5 17.5-17.5 17.5 8.167 17.5 17.5-8.167 17.5-17.5 17.5zM210 204.167c-3.5 0-5.833 2.333-5.833 5.833s2.333 5.833 5.833 5.833 5.833-2.333 5.833-5.833-2.333-5.833-5.833-5.833z"></path>
<path d="M221.667 163.333c0 6.443-5.223 11.667-11.667 11.667s-11.667-5.223-11.667-11.667c0-6.443 5.223-11.667 11.667-11.667s11.667 5.223 11.667 11.667z"></path>
<path d="M210 180.833c-9.333 0-17.5-8.167-17.5-17.5s8.167-17.5 17.5-17.5 17.5 8.167 17.5 17.5-8.167 17.5-17.5 17.5zM210 157.5c-3.5 0-5.833 2.333-5.833 5.833s2.333 5.833 5.833 5.833 5.833-2.333 5.833-5.833-2.333-5.833-5.833-5.833z"></path>
</svg>
