<!-- Generated by IcoMoon.io -->
<svg version="1.1" xmlns="http://www.w3.org/2000/svg" width="280" height="280" viewBox="0 0 280 280">
<title>mi-drop</title>
<path d="M140 280c-58.333 0-105-46.667-105-105 0-46.667 28-95.667 39.667-114.333 7-10.5 39.667-60.667 65.333-60.667 32.667 0 105 101.5 105 175 0 58.333-46.667 105-105 105zM140 23.333c-16.333 2.333-81.667 86.333-81.667 151.667 0 45.5 36.167 81.667 81.667 81.667s81.667-36.167 81.667-81.667c0-65.333-65.333-149.333-81.667-151.667z"></path>
<path d="M140 233.333c0 0-1.167 0-1.167 0-29.167-1.167-54.833-28-57.167-57.167 0 0 0-1.167 0-1.167 0-7 4.667-11.667 11.667-11.667 5.833 0 11.667 4.667 11.667 11.667 0 17.5 17.5 35 35 35 5.833 0 11.667 5.833 11.667 11.667s-4.667 11.667-11.667 11.667z"></path>
</svg>
