<!-- Generated by IcoMoon.io -->
<svg version="1.1" xmlns="http://www.w3.org/2000/svg" width="280" height="280" viewBox="0 0 280 280">
<title>mi-education</title>
<path d="M140 163.333c-1.167 0-2.333 0-3.5-1.167l-128.333-46.667c-4.667-1.167-8.167-5.833-8.167-10.5s3.5-9.333 8.167-10.5l128.333-46.667c2.333-1.167 5.833-1.167 8.167 0l128.333 46.667c3.5 1.167 7 5.833 7 10.5s-3.5 9.333-8.167 10.5l-128.333 46.667c-1.167 1.167-2.333 1.167-3.5 1.167zM45.5 105l94.5 33.833 94.5-33.833-94.5-33.833-94.5 33.833z"></path>
<path d="M221.667 233.333h-81.667c-7 0-11.667-4.667-11.667-11.667s4.667-11.667 11.667-11.667h70c-1.167-30.333-8.167-56-19.833-74.667-3.5-5.833-1.167-12.833 3.5-16.333 5.833-3.5 12.833-1.167 16.333 3.5 15.167 24.5 23.333 58.333 23.333 98 0 8.167-4.667 12.833-11.667 12.833z"></path>
<path d="M140 233.333h-81.667c-7 0-11.667-4.667-11.667-11.667 0-39.667 8.167-73.5 23.333-98 3.5-5.833 10.5-7 16.333-3.5s7 10.5 3.5 16.333c-11.667 18.667-18.667 44.333-19.833 74.667h70c7 0 11.667 4.667 11.667 11.667s-4.667 10.5-11.667 10.5z"></path>
<path d="M256.667 233.333c-7 0-11.667-4.667-11.667-11.667v-116.667c0-7 4.667-11.667 11.667-11.667s11.667 4.667 11.667 11.667v116.667c0 7-4.667 11.667-11.667 11.667z"></path>
</svg>
