<!-- Generated by IcoMoon.io -->
<svg version="1.1" xmlns="http://www.w3.org/2000/svg" width="280" height="280" viewBox="0 0 280 280">
<title>mi-eye</title>
<path d="M140 186.667c-25.667 0-46.667-21-46.667-46.667s21-46.667 46.667-46.667 46.667 21 46.667 46.667-21 46.667-46.667 46.667zM140 116.667c-12.833 0-23.333 10.5-23.333 23.333s10.5 23.333 23.333 23.333 23.333-10.5 23.333-23.333-10.5-23.333-23.333-23.333z"></path>
<path d="M140 233.333c-87.5 0-136.5-84-138.833-87.5s-2.333-8.167 0-11.667c2.333-3.5 51.333-87.5 138.833-87.5s136.5 84 138.833 87.5c2.333 3.5 2.333 8.167 0 11.667s-51.333 87.5-138.833 87.5zM25.667 140c11.667 17.5 52.5 70 114.333 70s102.667-52.5 114.333-70c-11.667-17.5-52.5-70-114.333-70s-102.667 52.5-114.333 70z"></path>
</svg>
