<!-- Generated by IcoMoon.io -->
<svg version="1.1" xmlns="http://www.w3.org/2000/svg" width="280" height="280" viewBox="0 0 280 280">
<title>mi-expand</title>
<path d="M268.333 280h-46.667c-7 0-11.667-4.667-11.667-11.667s4.667-11.667 11.667-11.667h46.667c7 0 11.667 4.667 11.667 11.667s-4.667 11.667-11.667 11.667z"></path>
<path d="M268.333 280c-7 0-11.667-4.667-11.667-11.667v-46.667c0-7 4.667-11.667 11.667-11.667s11.667 4.667 11.667 11.667v46.667c0 7-4.667 11.667-11.667 11.667z"></path>
<path d="M58.333 23.333h-46.667c-7 0-11.667-4.667-11.667-11.667s4.667-11.667 11.667-11.667h46.667c7 0 11.667 4.667 11.667 11.667s-4.667 11.667-11.667 11.667z"></path>
<path d="M11.667 70c-7 0-11.667-4.667-11.667-11.667v-46.667c0-7 4.667-11.667 11.667-11.667s11.667 4.667 11.667 11.667v46.667c0 7-4.667 11.667-11.667 11.667z"></path>
<path d="M91 102.667c-3.5 0-5.833-1.167-8.167-3.5l-77-77c-4.667-4.667-4.667-11.667 0-16.333s11.667-4.667 16.333 0l75.833 75.833c4.667 4.667 4.667 11.667 0 16.333-1.167 3.5-4.667 4.667-7 4.667z"></path>
<path d="M266 277.667c-3.5 0-5.833-1.167-8.167-3.5l-75.833-75.833c-4.667-4.667-4.667-11.667 0-16.333s11.667-4.667 16.333 0l75.833 75.833c4.667 4.667 4.667 11.667 0 16.333-2.333 2.333-5.833 3.5-8.167 3.5z"></path>
<path d="M11.667 280c-7 0-11.667-4.667-11.667-11.667v-46.667c0-7 4.667-11.667 11.667-11.667s11.667 4.667 11.667 11.667v46.667c0 7-4.667 11.667-11.667 11.667z"></path>
<path d="M58.333 280h-46.667c-7 0-11.667-4.667-11.667-11.667s4.667-11.667 11.667-11.667h46.667c7 0 11.667 4.667 11.667 11.667s-4.667 11.667-11.667 11.667z"></path>
<path d="M268.333 70c-7 0-11.667-4.667-11.667-11.667v-46.667c0-7 4.667-11.667 11.667-11.667s11.667 4.667 11.667 11.667v46.667c0 7-4.667 11.667-11.667 11.667z"></path>
<path d="M268.333 23.333h-46.667c-7 0-11.667-4.667-11.667-11.667s4.667-11.667 11.667-11.667h46.667c7 0 11.667 4.667 11.667 11.667s-4.667 11.667-11.667 11.667z"></path>
<path d="M189 102.667c-3.5 0-5.833-1.167-8.167-3.5-4.667-4.667-4.667-11.667 0-16.333l75.833-75.833c4.667-4.667 11.667-4.667 16.333 0s4.667 11.667 0 16.333l-75.833 75.833c-1.167 2.333-4.667 3.5-8.167 3.5z"></path>
<path d="M14 277.667c-3.5 0-5.833-1.167-8.167-3.5-4.667-4.667-4.667-11.667 0-16.333l75.833-75.833c4.667-4.667 11.667-4.667 16.333 0s4.667 11.667 0 16.333l-75.833 75.833c-2.333 2.333-4.667 3.5-8.167 3.5z"></path>
</svg>
