<!-- Generated by IcoMoon.io -->
<svg version="1.1" xmlns="http://www.w3.org/2000/svg" width="280" height="280" viewBox="0 0 280 280">
<title>mi-fast-forward</title>
<path d="M35 221.667c-2.333 0-3.5 0-5.833-1.167-3.5-2.333-5.833-5.833-5.833-10.5v-140c0-4.667 2.333-8.167 5.833-10.5s8.167-2.333 11.667 0l105 70c3.5 2.333 4.667 5.833 4.667 9.333s-2.333 7-4.667 9.333l-105 70c-1.167 2.333-3.5 3.5-5.833 3.5zM46.667 92.167v96.833l72.333-47.833-72.333-49z"></path>
<path d="M140 221.667c-2.333 0-3.5 0-5.833-1.167-3.5-2.333-5.833-5.833-5.833-10.5v-140c0-4.667 2.333-8.167 5.833-10.5s8.167-2.333 11.667 0l105 70c3.5 2.333 4.667 5.833 4.667 9.333s-2.333 7-4.667 9.333l-105 70c-1.167 2.333-3.5 3.5-5.833 3.5zM151.667 92.167v96.833l72.333-47.833-72.333-49z"></path>
<path d="M245 221.667c-7 0-11.667-4.667-11.667-11.667v-140c0-7 4.667-11.667 11.667-11.667s11.667 4.667 11.667 11.667v140c0 7-4.667 11.667-11.667 11.667z"></path>
</svg>
