<!-- Generated by IcoMoon.io -->
<svg version="1.1" xmlns="http://www.w3.org/2000/svg" width="280" height="280" viewBox="0 0 280 280">
<title>mi-flag</title>
<path d="M46.667 280h-35c-7 0-11.667-4.667-11.667-11.667v-256.667c0-7 4.667-11.667 11.667-11.667h35c7 0 11.667 4.667 11.667 11.667v256.667c0 7-4.667 11.667-11.667 11.667zM23.333 256.667h11.667v-233.333h-11.667v233.333z"></path>
<path d="M116.667 175c-24.5 0-71.167-11.667-72.333-11.667-5.833-1.167-10.5-8.167-8.167-14 1.167-5.833 8.167-10.5 14-8.167 0 0 45.5 11.667 67.667 11.667 10.5 0 28-2.333 44.333-5.833 18.667-3.5 36.167-5.833 49-5.833 15.167 0 33.833 4.667 46.667 8.167v-117.833c-12.833-2.333-32.667-8.167-47.833-8.167-10.5 0-28 2.333-44.333 5.833-18.667 3.5-36.167 5.833-49 5.833-24.5 0-71.167-11.667-72.333-11.667-7-2.333-10.5-8.167-9.333-14 2.333-7 8.167-10.5 14-9.333 0 0 45.5 11.667 67.667 11.667 10.5 0 28-2.333 44.333-5.833 18.667-3.5 36.167-5.833 49-5.833 24.5 0 60.667 11.667 61.833 12.833 4.667 1.167 8.167 5.833 8.167 10.5v140c0 3.5-2.333 7-4.667 9.333-3.5 2.333-7 2.333-10.5 1.167 0 0-33.833-10.5-54.833-10.5-10.5 0-28 2.333-44.333 5.833-18.667 3.5-36.167 5.833-49 5.833z"></path>
</svg>
