<!-- Generated by IcoMoon.io -->
<svg version="1.1" xmlns="http://www.w3.org/2000/svg" width="280" height="280" viewBox="0 0 280 280">
<title>mi-group</title>
<path d="M58.333 70h-46.667c-7 0-11.667-4.667-11.667-11.667v-46.667c0-7 4.667-11.667 11.667-11.667h46.667c7 0 11.667 4.667 11.667 11.667v46.667c0 7-4.667 11.667-11.667 11.667zM23.333 46.667h23.333v-23.333h-23.333v23.333z"></path>
<path d="M268.333 70h-46.667c-7 0-11.667-4.667-11.667-11.667v-46.667c0-7 4.667-11.667 11.667-11.667h46.667c7 0 11.667 4.667 11.667 11.667v46.667c0 7-4.667 11.667-11.667 11.667zM233.333 46.667h23.333v-23.333h-23.333v23.333z"></path>
<path d="M58.333 280h-46.667c-7 0-11.667-4.667-11.667-11.667v-46.667c0-7 4.667-11.667 11.667-11.667h46.667c7 0 11.667 4.667 11.667 11.667v46.667c0 7-4.667 11.667-11.667 11.667zM23.333 256.667h23.333v-23.333h-23.333v23.333z"></path>
<path d="M268.333 280h-46.667c-7 0-11.667-4.667-11.667-11.667v-46.667c0-7 4.667-11.667 11.667-11.667h46.667c7 0 11.667 4.667 11.667 11.667v46.667c0 7-4.667 11.667-11.667 11.667zM233.333 256.667h23.333v-23.333h-23.333v23.333z"></path>
<path d="M35 233.333c-7 0-11.667-4.667-11.667-11.667v-163.333c0-7 4.667-11.667 11.667-11.667s11.667 4.667 11.667 11.667v163.333c0 7-4.667 11.667-11.667 11.667z"></path>
<path d="M221.667 256.667h-163.333c-7 0-11.667-4.667-11.667-11.667s4.667-11.667 11.667-11.667h163.333c7 0 11.667 4.667 11.667 11.667s-4.667 11.667-11.667 11.667z"></path>
<path d="M245 233.333c-7 0-11.667-4.667-11.667-11.667v-163.333c0-7 4.667-11.667 11.667-11.667s11.667 4.667 11.667 11.667v163.333c0 7-4.667 11.667-11.667 11.667z"></path>
<path d="M221.667 46.667h-163.333c-7 0-11.667-4.667-11.667-11.667s4.667-11.667 11.667-11.667h163.333c7 0 11.667 4.667 11.667 11.667s-4.667 11.667-11.667 11.667z"></path>
</svg>
