<!-- Generated by IcoMoon.io -->
<svg version="1.1" xmlns="http://www.w3.org/2000/svg" width="280" height="280" viewBox="0 0 280 280">
<title>mi-headset</title>
<path d="M70 221.667h-23.333c-25.667 0-46.667-21-46.667-46.667v-11.667c0-25.667 21-46.667 46.667-46.667h23.333c7 0 11.667 4.667 11.667 11.667v81.667c0 7-4.667 11.667-11.667 11.667zM46.667 140c-12.833 0-23.333 10.5-23.333 23.333v11.667c0 12.833 10.5 23.333 23.333 23.333h11.667v-58.333h-11.667z"></path>
<path d="M233.333 221.667h-23.333c-7 0-11.667-4.667-11.667-11.667v-81.667c0-7 4.667-11.667 11.667-11.667h23.333c25.667 0 46.667 21 46.667 46.667v11.667c0 25.667-21 46.667-46.667 46.667zM221.667 198.333h11.667c12.833 0 23.333-10.5 23.333-23.333v-11.667c0-12.833-10.5-23.333-23.333-23.333h-11.667v58.333z"></path>
<path d="M243.833 141.167c-1.167 0-1.167 0-2.333 0-5.833-1.167-10.5-7-9.333-12.833 0-3.5 1.167-7 1.167-11.667 0-51.333-42-93.333-93.333-93.333s-93.333 42-93.333 93.333c0 4.667 0 8.167 1.167 11.667 1.167 5.833-3.5 12.833-9.333 12.833-5.833 1.167-12.833-3.5-12.833-9.333-2.333-4.667-2.333-9.333-2.333-15.167 0-64.167 52.5-116.667 116.667-116.667s116.667 52.5 116.667 116.667c0 5.833 0 10.5-1.167 15.167-1.167 5.833-5.833 9.333-11.667 9.333z"></path>
<path d="M140 280c-25.667 0-35-21-35-35s9.333-35 35-35 35 21 35 35c0 2.333 0 4.667-1.167 7 25.667-7 43.167-23.333 52.5-46.667 2.333-5.833 9.333-9.333 15.167-7s9.333 9.333 7 15.167c-11.667 30.333-40.833 66.5-108.5 66.5zM140 233.333c-9.333 0-11.667 7-11.667 11.667s2.333 11.667 11.667 11.667 11.667-7 11.667-11.667c0-4.667-2.333-11.667-11.667-11.667z"></path>
</svg>
