<!-- Generated by IcoMoon.io -->
<svg version="1.1" xmlns="http://www.w3.org/2000/svg" width="280" height="280" viewBox="0 0 280 280">
<title>mi-image</title>
<path d="M268.333 280h-256.667c-7 0-11.667-4.667-11.667-11.667v-256.667c0-7 4.667-11.667 11.667-11.667h256.667c7 0 11.667 4.667 11.667 11.667v256.667c0 7-4.667 11.667-11.667 11.667zM23.333 256.667h233.333v-233.333h-233.333v233.333z"></path>
<path d="M268.333 221.667h-256.667c-7 0-11.667-4.667-11.667-11.667s4.667-11.667 11.667-11.667h256.667c7 0 11.667 4.667 11.667 11.667s-4.667 11.667-11.667 11.667z"></path>
<path d="M11.667 198.333c-3.5 0-5.833-1.167-8.167-3.5-4.667-4.667-4.667-11.667 0-16.333l70-70c4.667-4.667 11.667-4.667 16.333 0s4.667 11.667 0 16.333l-70 70c-2.333 2.333-4.667 3.5-8.167 3.5z"></path>
<path d="M128.333 175c-3.5 0-5.833-1.167-8.167-3.5l-46.667-46.667c-4.667-4.667-4.667-11.667 0-16.333s11.667-4.667 16.333 0l46.667 46.667c4.667 4.667 4.667 11.667 0 16.333-2.333 2.333-4.667 3.5-8.167 3.5z"></path>
<path d="M105 151.667c-3.5 0-5.833-1.167-8.167-3.5-4.667-4.667-4.667-11.667 0-16.333l58.333-58.333c4.667-4.667 11.667-4.667 16.333 0s4.667 11.667 0 16.333l-58.333 58.333c-2.333 2.333-4.667 3.5-8.167 3.5z"></path>
<path d="M262.5 192.5c-3.5 0-5.833-1.167-8.167-3.5l-99.167-99.167c-4.667-4.667-4.667-11.667 0-16.333s11.667-4.667 16.333 0l99.167 99.167c4.667 4.667 4.667 11.667 0 16.333-2.333 2.333-4.667 3.5-8.167 3.5z"></path>
<path d="M35 81.667c-11.667 0-22.167-4.667-31.5-11.667-4.667-4.667-4.667-11.667-1.167-16.333 4.667-4.667 11.667-4.667 16.333-1.167s10.5 5.833 16.333 5.833c12.833 0 23.333-10.5 23.333-23.333 0-5.833-2.333-11.667-5.833-15.167-4.667-4.667-3.5-11.667 1.167-16.333s11.667-4.667 16.333 0c7 9.333 11.667 19.833 11.667 31.5 0 25.667-21 46.667-46.667 46.667z"></path>
</svg>
