<!-- Generated by IcoMoon.io -->
<svg version="1.1" xmlns="http://www.w3.org/2000/svg" width="280" height="280" viewBox="0 0 280 280">
<title>mi-info</title>
<path d="M140 280c-77 0-140-63-140-140s63-140 140-140 140 63 140 140-63 140-140 140zM140 23.333c-64.167 0-116.667 52.5-116.667 116.667s52.5 116.667 116.667 116.667 116.667-52.5 116.667-116.667-52.5-116.667-116.667-116.667z"></path>
<path d="M128.333 210c-4.667 0-8.167-2.333-11.667-5.833-5.833-8.167-1.167-19.833 11.667-51.333 2.333-4.667 4.667-10.5 7-15.167-4.667 3.5-11.667 3.5-16.333-1.167s-4.667-11.667 0-16.333c2.333-1.167 16.333-15.167 32.667-15.167 4.667 0 8.167 2.333 11.667 5.833 5.833 8.167 1.167 19.833-11.667 51.333-2.333 4.667-4.667 10.5-7 15.167 4.667-3.5 11.667-3.5 16.333 1.167s4.667 11.667 0 16.333c-2.333 1.167-16.333 15.167-32.667 15.167z"></path>
<path d="M175 75.833c0 9.665-7.835 17.5-17.5 17.5s-17.5-7.835-17.5-17.5c0-9.665 7.835-17.5 17.5-17.5s17.5 7.835 17.5 17.5z"></path>
<path d="M157.5 99.167c-12.833 0-23.333-10.5-23.333-23.333s10.5-23.333 23.333-23.333 23.333 10.5 23.333 23.333-10.5 23.333-23.333 23.333zM157.5 64.167c-7 0-11.667 4.667-11.667 11.667s4.667 11.667 11.667 11.667 11.667-4.667 11.667-11.667-4.667-11.667-11.667-11.667z"></path>
</svg>
