<!-- Generated by IcoMoon.io -->
<svg version="1.1" xmlns="http://www.w3.org/2000/svg" width="280" height="280" viewBox="0 0 280 280">
<title>mi-mobile</title>
<path d="M177.333 280h-74.667c-24.5 0-44.333-19.833-44.333-44.333v-191.333c0-24.5 19.833-44.333 44.333-44.333h73.5c25.667 0 45.5 19.833 45.5 44.333v190.167c0 25.667-19.833 45.5-44.333 45.5zM102.667 23.333c-11.667 0-21 9.333-21 21v190.167c0 11.667 9.333 21 21 21h73.5c11.667 0 21-9.333 21-21v-190.167c0-11.667-9.333-21-21-21h-73.5z"></path>
<path d="M70 210h140v23.333h-140v-23.333z"></path>
<path d="M70 46.667h140v23.333h-140v-23.333z"></path>
</svg>
