<!-- Generated by IcoMoon.io -->
<svg version="1.1" xmlns="http://www.w3.org/2000/svg" width="280" height="280" viewBox="0 0 280 280">
<title>mi-power-on</title>
<path d="M140 280c-64.167 0-116.667-52.5-116.667-116.667 0-47.833 28-89.833 72.333-107.333 5.833-2.333 12.833 0 15.167 5.833s0 12.833-5.833 15.167c-36.167 14-58.333 47.833-58.333 86.333 0 51.333 42 93.333 93.333 93.333s93.333-42 93.333-93.333c0-38.5-22.167-72.333-57.167-86.333-5.833-2.333-9.333-9.333-5.833-15.167 2.333-5.833 9.333-9.333 15.167-5.833 43.167 17.5 71.167 59.5 71.167 107.333 0 64.167-52.5 116.667-116.667 116.667z"></path>
<path d="M140 163.333c-7 0-11.667-4.667-11.667-11.667v-140c0-7 4.667-11.667 11.667-11.667s11.667 4.667 11.667 11.667v140c0 7-4.667 11.667-11.667 11.667z"></path>
</svg>
