<!-- Generated by IcoMoon.io -->
<svg version="1.1" xmlns="http://www.w3.org/2000/svg" width="280" height="280" viewBox="0 0 280 280">
<title>mi-rotate-clock</title>
<path d="M140 280c-77 0-140-63-140-140s63-140 140-140c46.667 0 89.833 23.333 116.667 61.833 3.5 5.833 2.333 12.833-3.5 16.333s-12.833 2.333-16.333-3.5c-21-31.5-58.333-51.333-96.833-51.333-64.167 0-116.667 52.5-116.667 116.667s52.5 116.667 116.667 116.667 116.667-52.5 116.667-116.667c0-7 4.667-11.667 11.667-11.667s11.667 4.667 11.667 11.667c0 77-63 140-140 140z"></path>
<path d="M256.667 93.333h-46.667c-7 0-11.667-4.667-11.667-11.667s4.667-11.667 11.667-11.667h35v-35c0-7 4.667-11.667 11.667-11.667s11.667 4.667 11.667 11.667v46.667c0 7-4.667 11.667-11.667 11.667z"></path>
<path d="M140 186.667c-25.667 0-46.667-21-46.667-46.667s21-46.667 46.667-46.667 46.667 21 46.667 46.667-21 46.667-46.667 46.667zM140 116.667c-12.833 0-23.333 10.5-23.333 23.333s10.5 23.333 23.333 23.333 23.333-10.5 23.333-23.333-10.5-23.333-23.333-23.333z"></path>
</svg>
