<!-- Generated by IcoMoon.io -->
<svg version="1.1" xmlns="http://www.w3.org/2000/svg" width="280" height="280" viewBox="0 0 280 280">
<title>mi-refresh</title>
<path d="M128.333 245c-58.333 0-105-46.667-105-105 0-28 10.5-54.833 30.333-74.667s46.667-30.333 74.667-30.333c58.333 0 105 46.667 105 105 0 7-4.667 11.667-11.667 11.667s-11.667-4.667-11.667-11.667c0-45.5-36.167-81.667-81.667-81.667-22.167 0-42 8.167-58.333 23.333-15.167 15.167-23.333 36.167-23.333 58.333 0 45.5 36.167 81.667 81.667 81.667 22.167 0 42-8.167 58.333-23.333 4.667-4.667 11.667-4.667 16.333 0s4.667 11.667 0 16.333c-19.833 19.833-46.667 30.333-74.667 30.333z"></path>
<path d="M221.667 151.667c-2.333 0-4.667-1.167-7-2.333l-39.667-29.167c-4.667-3.5-5.833-11.667-2.333-16.333s10.5-5.833 16.333-2.333l39.667 29.167c4.667 3.5 5.833 11.667 2.333 16.333-2.333 3.5-5.833 4.667-9.333 4.667z"></path>
<path d="M221.667 151.667c-2.333 0-4.667-1.167-7-2.333-4.667-3.5-5.833-11.667-2.333-16.333l29.167-39.667c3.5-4.667 11.667-5.833 16.333-2.333s5.833 11.667 2.333 16.333l-29.167 39.667c-2.333 3.5-5.833 4.667-9.333 4.667z"></path>
</svg>
