<!-- Generated by IcoMoon.io -->
<svg version="1.1" xmlns="http://www.w3.org/2000/svg" width="280" height="280" viewBox="0 0 280 280">
<title>mi-suitcase</title>
<path d="M93.333 46.667h-23.333c0-19.833 15.167-35 35-35v23.333c-7 0-11.667 4.667-11.667 11.667z"></path>
<path d="M210 46.667h-23.333c0-7-4.667-11.667-11.667-11.667v-23.333c19.833 0 35 15.167 35 35z"></path>
<path d="M210 81.667h-140v-35h23.333v11.667h93.333v-11.667h23.333z"></path>
<path d="M105 11.667h70v23.333h-70v-23.333z"></path>
<path d="M245 268.333h-210c-19.833 0-35-15.167-35-35v-140c0-19.833 15.167-35 35-35h210c19.833 0 35 15.167 35 35v140c0 19.833-15.167 35-35 35zM35 81.667c-7 0-11.667 4.667-11.667 11.667v140c0 7 4.667 11.667 11.667 11.667h210c7 0 11.667-4.667 11.667-11.667v-140c0-7-4.667-11.667-11.667-11.667h-210z"></path>
<path d="M221.667 175h-163.333c-7 0-11.667-4.667-11.667-11.667v-93.333c0-7 4.667-11.667 11.667-11.667h163.333c7 0 11.667 4.667 11.667 11.667v93.333c0 7-4.667 11.667-11.667 11.667zM70 151.667h140v-70h-140v70z"></path>
<path d="M163.333 186.667h-46.667c-7 0-11.667-4.667-11.667-11.667s4.667-11.667 11.667-11.667h46.667c7 0 11.667 4.667 11.667 11.667s-4.667 11.667-11.667 11.667z"></path>
</svg>
