<!-- Generated by IcoMoon.io -->
<svg version="1.1" xmlns="http://www.w3.org/2000/svg" width="280" height="280" viewBox="0 0 280 280">
<title>mi-tube</title>
<path d="M245 280h-210c-4.667 0-8.167-2.333-10.5-5.833s-2.333-8.167 0-11.667l70-128.333c3.5-5.833 10.5-7 16.333-4.667 5.833 3.5 8.167 10.5 4.667 16.333l-60.667 110.833h170.333l-60.667-110.833c-3.5-5.833-1.167-12.833 4.667-16.333s12.833-1.167 16.333 4.667l70 128.333c2.333 3.5 2.333 8.167 0 11.667s-5.833 5.833-10.5 5.833z"></path>
<path d="M175 151.667c-7 0-11.667-4.667-11.667-11.667v-70h-46.667v70c0 7-4.667 11.667-11.667 11.667s-11.667-4.667-11.667-11.667v-81.667c0-7 4.667-11.667 11.667-11.667h70c7 0 11.667 4.667 11.667 11.667v81.667c0 7-4.667 11.667-11.667 11.667z"></path>
<path d="M198.333 70h-116.667c-7 0-11.667-4.667-11.667-11.667s4.667-11.667 11.667-11.667h116.667c7 0 11.667 4.667 11.667 11.667s-4.667 11.667-11.667 11.667z"></path>
<path d="M116.667 23.333c0 6.443-5.223 11.667-11.667 11.667s-11.667-5.223-11.667-11.667c0-6.443 5.223-11.667 11.667-11.667s11.667 5.223 11.667 11.667z"></path>
<path d="M105 40.833c-9.333 0-17.5-8.167-17.5-17.5s8.167-17.5 17.5-17.5 17.5 8.167 17.5 17.5-8.167 17.5-17.5 17.5zM105 17.5c-3.5 0-5.833 2.333-5.833 5.833s2.333 5.833 5.833 5.833 5.833-2.333 5.833-5.833-2.333-5.833-5.833-5.833z"></path>
<path d="M163.333 17.5c0 9.665-7.835 17.5-17.5 17.5s-17.5-7.835-17.5-17.5c0-9.665 7.835-17.5 17.5-17.5s17.5 7.835 17.5 17.5z"></path>
<path d="M145.833 40.833c-12.833 0-23.333-10.5-23.333-23.333s10.5-23.333 23.333-23.333 23.333 10.5 23.333 23.333-10.5 23.333-23.333 23.333zM145.833 5.833c-7 0-11.667 4.667-11.667 11.667s4.667 11.667 11.667 11.667 11.667-4.667 11.667-11.667-4.667-11.667-11.667-11.667z"></path>
<path d="M186.667 29.167c0 3.222-2.612 5.833-5.833 5.833s-5.833-2.612-5.833-5.833c0-3.222 2.612-5.833 5.833-5.833s5.833 2.612 5.833 5.833z"></path>
<path d="M192.5 29.167c0 6.443-5.223 11.667-11.667 11.667s-11.667-5.223-11.667-11.667c0-6.443 5.223-11.667 11.667-11.667s11.667 5.223 11.667 11.667z"></path>
<path d="M67.667 219.333c-5.833 0-11.667-4.667-11.667-10.5 0-7 4.667-11.667 10.5-12.833l140-8.167c5.833-1.167 11.667 4.667 12.833 10.5 0 7-4.667 11.667-10.5 12.833l-141.167 8.167c0 0 0 0 0 0z"></path>
</svg>
