<!-- Generated by IcoMoon.io -->
<svg version="1.1" xmlns="http://www.w3.org/2000/svg" width="280" height="280" viewBox="0 0 280 280">
<title>mi-thumbs-down</title>
<path d="M70 280c-2.333 0-4.667-1.167-7-2.333-2.333-2.333-4.667-5.833-4.667-9.333v-212.333c0-24.5 18.667-44.333 43.167-46.667l99.167-7c1.167 0 2.333 0 3.5 0 24.5 0 44.333 18.667 46.667 43.167l5.833 86.333c1.167 12.833-3.5 25.667-12.833 35-9.333 10.5-24.5 16.333-38.5 15.167l-74.667-5.833 1.167 5.833c5.833 42-17.5 81.667-56 96.833-2.333 1.167-3.5 1.167-5.833 1.167zM204.167 25.667c-1.167 0-1.167 0-2.333 0l-99.167 7c-11.667 1.167-21 11.667-21 23.333v192.5c19.833-14 30.333-38.5 26.833-63l-3.5-21c0-3.5 1.167-7 3.5-9.333s5.833-3.5 9.333-3.5l89.833 7c1.167 0 2.333 0 2.333 0 5.833 0 12.833-2.333 17.5-7s7-10.5 5.833-17.5l-5.833-86.333c-1.167-12.833-11.667-22.167-23.333-22.167z"></path>
<path d="M70 186.667h-58.333c-7 0-11.667-4.667-11.667-11.667v-163.333c0-7 4.667-11.667 11.667-11.667h58.333c7 0 11.667 4.667 11.667 11.667v163.333c0 7-4.667 11.667-11.667 11.667zM23.333 163.333h35v-140h-35v140z"></path>
</svg>
