<!-- Generated by IcoMoon.io -->
<svg version="1.1" xmlns="http://www.w3.org/2000/svg" width="280" height="280" viewBox="0 0 280 280">
<title>mi-toggles</title>
<path d="M221.667 128.333h-163.333c-31.5 0-58.333-25.667-58.333-58.333s25.667-58.333 58.333-58.333h163.333c31.5 0 58.333 25.667 58.333 58.333s-25.667 58.333-58.333 58.333zM58.333 35c-19.833 0-35 15.167-35 35s15.167 35 35 35h163.333c18.667 0 35-15.167 35-35s-15.167-35-35-35h-163.333z"></path>
<path d="M221.667 268.333h-163.333c-31.5 0-58.333-25.667-58.333-58.333s25.667-58.333 58.333-58.333h163.333c31.5 0 58.333 25.667 58.333 58.333s-25.667 58.333-58.333 58.333zM58.333 175c-18.667 0-35 15.167-35 35s15.167 35 35 35h163.333c18.667 0 35-15.167 35-35s-15.167-35-35-35h-163.333z"></path>
<path d="M58.333 128.333c-32.667 0-58.333-25.667-58.333-58.333s25.667-58.333 58.333-58.333 58.333 25.667 58.333 58.333-25.667 58.333-58.333 58.333zM58.333 35c-19.833 0-35 15.167-35 35s15.167 35 35 35 35-15.167 35-35-15.167-35-35-35z"></path>
<path d="M221.667 268.333c-32.667 0-58.333-25.667-58.333-58.333s25.667-58.333 58.333-58.333 58.333 25.667 58.333 58.333-25.667 58.333-58.333 58.333zM221.667 175c-19.833 0-35 15.167-35 35s15.167 35 35 35 35-15.167 35-35-15.167-35-35-35z"></path>
</svg>
