<!-- Generated by IcoMoon.io -->
<svg version="1.1" xmlns="http://www.w3.org/2000/svg" width="280" height="280" viewBox="0 0 280 280">
<title>mi-undo</title>
<path d="M116.667 245c-2.333 0-5.833-1.167-8.167-3.5l-105-93.333c-2.333-1.167-3.5-4.667-3.5-8.167s1.167-7 3.5-8.167l105-93.333c3.5-3.5 8.167-3.5 12.833-2.333s7 5.833 7 10.5v58.333c0 7-4.667 11.667-11.667 11.667s-11.667-4.667-11.667-11.667v-32.667l-75.833 67.667 75.833 67.667v-32.667c0-7 4.667-11.667 11.667-11.667s11.667 4.667 11.667 11.667v58.333c0 4.667-2.333 9.333-7 10.5-1.167 1.167-3.5 1.167-4.667 1.167z"></path>
<path d="M268.333 245c-4.667 0-9.333-2.333-10.5-7 0 0-23.333-51.333-141.167-51.333-7 0-11.667-4.667-11.667-11.667s4.667-11.667 11.667-11.667c71.167 0 112 17.5 135.333 33.833-24.5-79.333-130.667-80.5-135.333-80.5-7 0-11.667-4.667-11.667-11.667s4.667-11.667 11.667-11.667c1.167 0 163.333 1.167 163.333 140 0 5.833-3.5 10.5-9.333 11.667-1.167 0-1.167 0-2.333 0z"></path>
</svg>
