<!-- Generated by IcoMoon.io -->
<svg version="1.1" xmlns="http://www.w3.org/2000/svg" width="280" height="280" viewBox="0 0 280 280">
<title>mi-video</title>
<path d="M233.333 280h-186.667c-25.667 0-46.667-21-46.667-46.667v-186.667c0-25.667 21-46.667 46.667-46.667h186.667c25.667 0 46.667 21 46.667 46.667v186.667c0 25.667-21 46.667-46.667 46.667zM46.667 23.333c-12.833 0-23.333 10.5-23.333 23.333v186.667c0 12.833 10.5 23.333 23.333 23.333h186.667c12.833 0 23.333-10.5 23.333-23.333v-186.667c0-12.833-10.5-23.333-23.333-23.333h-186.667z"></path>
<path d="M105 198.333c-2.333 0-3.5 0-5.833-1.167-3.5-2.333-5.833-5.833-5.833-10.5v-93.333c0-4.667 2.333-8.167 5.833-10.5s8.167-2.333 11.667 0l81.667 46.667c3.5 2.333 5.833 5.833 5.833 10.5s-2.333 8.167-5.833 10.5l-81.667 46.667c-2.333 1.167-3.5 1.167-5.833 1.167zM116.667 113.167v53.667l46.667-26.833-46.667-26.833z"></path>
</svg>
