<!-- Generated by IcoMoon.io -->
<svg version="1.1" xmlns="http://www.w3.org/2000/svg" width="280" height="280" viewBox="0 0 280 280">
<title>mt-av_timer</title>
<path d="M128.333 198.333c0 6.417 5.25 11.667 11.667 11.667s11.667-5.25 11.667-11.667c0-6.417-5.25-11.667-11.667-11.667s-11.667 5.25-11.667 11.667v0zM128.333 35v46.667h23.333v-22.4c39.55 5.717 70 39.55 70 80.733 0 45.15-36.517 81.667-81.667 81.667s-81.667-36.517-81.667-81.667c0-19.6 6.883-37.567 18.433-51.567l63.233 63.233 16.45-16.45-79.333-79.333v0.233c-25.55 19.133-42.117 49.467-42.117 83.883 0 57.983 46.9 105 105 105 57.983 0 105-47.017 105-105s-47.017-105-105-105h-11.667zM210 140c0-6.417-5.25-11.667-11.667-11.667s-11.667 5.25-11.667 11.667c0 6.417 5.25 11.667 11.667 11.667s11.667-5.25 11.667-11.667v0zM70 140c0 6.417 5.25 11.667 11.667 11.667s11.667-5.25 11.667-11.667c0-6.417-5.25-11.667-11.667-11.667s-11.667 5.25-11.667 11.667v0z"></path>
</svg>
