<!-- Generated by IcoMoon.io -->
<svg version="1.1" xmlns="http://www.w3.org/2000/svg" width="280" height="280" viewBox="0 0 280 280">
<title>mt-attach_file</title>
<path d="M192.5 70v134.167c0 25.783-20.883 46.667-46.667 46.667s-46.667-20.883-46.667-46.667v-145.833c0-16.1 13.067-29.167 29.167-29.167s29.167 13.067 29.167 29.167v122.5c0 6.417-5.25 11.667-11.667 11.667s-11.667-5.25-11.667-11.667v-110.833h-17.5v110.833c0 16.1 13.067 29.167 29.167 29.167s29.167-13.067 29.167-29.167v-122.5c0-25.783-20.883-46.667-46.667-46.667s-46.667 20.883-46.667 46.667v145.833c0 35.467 28.7 64.167 64.167 64.167s64.167-28.7 64.167-64.167v-134.167h-17.5z"></path>
</svg>
