<!-- Generated by IcoMoon.io -->
<svg version="1.1" xmlns="http://www.w3.org/2000/svg" width="280" height="280" viewBox="0 0 280 280">
<title>mt-assignment_24px</title>
<path d="M221.667 46.667h-48.767c-4.9-13.533-17.733-23.333-32.9-23.333s-28 9.8-32.9 23.333h-48.767c-12.833 0-23.333 10.5-23.333 23.333v163.333c0 12.833 10.5 23.333 23.333 23.333h163.333c12.833 0 23.333-10.5 23.333-23.333v-163.333c0-12.833-10.5-23.333-23.333-23.333v0zM140 46.667c6.417 0 11.667 5.25 11.667 11.667s-5.25 11.667-11.667 11.667c-6.417 0-11.667-5.25-11.667-11.667s5.25-11.667 11.667-11.667v0zM163.333 210h-81.667v-23.333h81.667v23.333zM198.333 163.333h-116.667v-23.333h116.667v23.333zM198.333 116.667h-116.667v-23.333h116.667v23.333z"></path>
</svg>
