<!-- Generated by IcoMoon.io -->
<svg version="1.1" xmlns="http://www.w3.org/2000/svg" width="280" height="280" viewBox="0 0 280 280">
<title>mt-airport_shuttle</title>
<path d="M198.333 58.333h-163.333c-12.833 0-23.333 10.383-23.333 23.333v105h23.333c0 19.25 15.633 35 35 35s35-15.75 35-35h64.167c0 19.25 15.633 35 35 35s35-15.75 35-35h29.167v-58.333l-70-70zM35 128.333v-46.667h46.667v46.667h-46.667zM70 204.167c-9.683 0-17.5-7.817-17.5-17.5s7.817-17.5 17.5-17.5c9.683 0 17.5 7.817 17.5 17.5s-7.817 17.5-17.5 17.5v0zM151.667 128.333h-46.667v-46.667h46.667v46.667zM204.167 204.167c-9.683 0-17.5-7.817-17.5-17.5s7.817-17.5 17.5-17.5c9.683 0 17.5 7.817 17.5 17.5s-7.817 17.5-17.5 17.5v0zM175 128.333v-46.667h11.667l46.667 46.667h-58.333z"></path>
</svg>
