<!-- Generated by IcoMoon.io -->
<svg version="1.1" xmlns="http://www.w3.org/2000/svg" width="280" height="280" viewBox="0 0 280 280">
<title>mt-ac_unit</title>
<path d="M256.667 128.333h-48.65l37.8-37.8-16.45-16.567-54.367 54.367h-23.333v-23.333l54.367-54.367-16.567-16.45-37.8 37.8v-48.65h-23.333v48.65l-37.8-37.8-16.567 16.45 54.367 54.367v23.333h-23.333l-54.367-54.367-16.45 16.567 37.8 37.8h-48.65v23.333h48.65l-37.8 37.8 16.45 16.567 54.367-54.367h23.333v23.333l-54.367 54.367 16.567 16.45 37.8-37.8v48.65h23.333v-48.65l37.8 37.8 16.567-16.45-54.367-54.367v-23.333h23.333l54.367 54.367 16.45-16.567-37.8-37.8h48.65v-23.333z"></path>
</svg>
