<!-- Generated by IcoMoon.io -->
<svg version="1.1" xmlns="http://www.w3.org/2000/svg" width="280" height="280" viewBox="0 0 280 280">
<title>mt-crop_rotate</title>
<path d="M87.15 250.717c-38.15-18.2-65.45-55.183-69.65-99.050h-17.5c5.95 71.867 66.033 128.333 139.417 128.333 2.683 0 5.133-0.233 7.7-0.35l-44.45-44.567-15.517 15.633zM140.583 0c-2.683 0-5.133 0.233-7.7 0.467l44.45 44.45 15.517-15.517c38.15 18.083 65.45 55.067 69.65 98.933h17.5c-5.95-71.867-66.033-128.333-139.417-128.333v0zM186.667 163.333h23.333v-70c0-12.95-10.5-23.333-23.333-23.333h-70v23.333h70v70zM93.333 186.667v-140h-23.333v23.333h-23.333v23.333h23.333v93.333c0 12.833 10.383 23.333 23.333 23.333h93.333v23.333h23.333v-23.333h23.333v-23.333h-140z"></path>
</svg>
