<!-- Generated by IcoMoon.io -->
<svg version="1.1" xmlns="http://www.w3.org/2000/svg" width="280" height="280" viewBox="0 0 280 280">
<title>mt-center_focus_weak</title>
<path d="M58.333 175h-23.333v46.667c0 12.833 10.5 23.333 23.333 23.333h46.667v-23.333h-46.667v-46.667zM58.333 58.333h46.667v-23.333h-46.667c-12.833 0-23.333 10.5-23.333 23.333v46.667h23.333v-46.667zM221.667 35h-46.667v23.333h46.667v46.667h23.333v-46.667c0-12.833-10.5-23.333-23.333-23.333v0zM221.667 221.667h-46.667v23.333h46.667c12.833 0 23.333-10.5 23.333-23.333v-46.667h-23.333v46.667zM140 93.333c-25.783 0-46.667 20.883-46.667 46.667s20.883 46.667 46.667 46.667c25.783 0 46.667-20.883 46.667-46.667s-20.883-46.667-46.667-46.667v0zM140 163.333c-12.833 0-23.333-10.5-23.333-23.333s10.5-23.333 23.333-23.333c12.833 0 23.333 10.5 23.333 23.333s-10.5 23.333-23.333 23.333v0z"></path>
</svg>
