<!-- Generated by IcoMoon.io -->
<svg version="1.1" xmlns="http://www.w3.org/2000/svg" width="280" height="280" viewBox="0 0 280 280">
<title>mt-cast</title>
<path d="M245 35h-210c-12.833 0-23.333 10.5-23.333 23.333v35h23.333v-35h210v163.333h-81.667v23.333h81.667c12.833 0 23.333-10.5 23.333-23.333v-163.333c0-12.833-10.5-23.333-23.333-23.333v0zM11.667 210v35h35c0-19.367-15.633-35-35-35v0zM11.667 163.333v23.333c32.2 0 58.333 26.133 58.333 58.333h23.333c0-45.15-36.517-81.667-81.667-81.667v0zM11.667 116.667v23.333c57.983 0 105 47.017 105 105h23.333c0-70.933-57.517-128.333-128.333-128.333v0z"></path>
</svg>
