<!-- Generated by IcoMoon.io -->
<svg version="1.1" xmlns="http://www.w3.org/2000/svg" width="280" height="280" viewBox="0 0 280 280">
<title>mt-color_lens</title>
<path d="M140 35c-57.983 0-105 47.017-105 105s47.017 105 105 105c9.683 0 17.5-7.817 17.5-17.5 0-4.55-1.75-8.633-4.55-11.783-2.683-3.033-4.433-7.117-4.433-11.55 0-9.683 7.817-17.5 17.5-17.5h20.65c32.2 0 58.333-26.133 58.333-58.333 0-51.567-47.017-93.333-105-93.333v0zM75.833 140c-9.683 0-17.5-7.817-17.5-17.5s7.817-17.5 17.5-17.5c9.683 0 17.5 7.817 17.5 17.5s-7.817 17.5-17.5 17.5v0zM110.833 93.333c-9.683 0-17.5-7.817-17.5-17.5s7.817-17.5 17.5-17.5c9.683 0 17.5 7.817 17.5 17.5s-7.817 17.5-17.5 17.5v0zM169.167 93.333c-9.683 0-17.5-7.817-17.5-17.5s7.817-17.5 17.5-17.5c9.683 0 17.5 7.817 17.5 17.5s-7.817 17.5-17.5 17.5v0zM204.167 140c-9.683 0-17.5-7.817-17.5-17.5s7.817-17.5 17.5-17.5c9.683 0 17.5 7.817 17.5 17.5s-7.817 17.5-17.5 17.5v0z"></path>
</svg>
