<!-- Generated by IcoMoon.io -->
<svg version="1.1" xmlns="http://www.w3.org/2000/svg" width="280" height="280" viewBox="0 0 280 280">
<title>mt-developer_mode</title>
<path d="M81.667 58.333h116.667v23.333h23.333v-46.667c0-12.833-10.5-23.217-23.333-23.217l-116.667-0.117c-12.833 0-23.333 10.5-23.333 23.333v46.667h23.333v-23.333zM179.783 193.55l53.55-53.55-53.55-53.55-16.45 16.567 36.983 36.983-36.983 36.983 16.45 16.567zM116.667 176.983l-36.983-36.983 36.983-36.983-16.45-16.567-53.55 53.55 53.55 53.55 16.45-16.567zM198.333 221.667h-116.667v-23.333h-23.333v46.667c0 12.833 10.5 23.333 23.333 23.333h116.667c12.833 0 23.333-10.5 23.333-23.333v-46.667h-23.333v23.333z"></path>
</svg>
