<!-- Generated by IcoMoon.io -->
<svg version="1.1" xmlns="http://www.w3.org/2000/svg" width="280" height="280" viewBox="0 0 280 280">
<title>mt-do_not_disturb_alt</title>
<path d="M140 23.333c-64.167 0-116.667 52.5-116.667 116.667s52.5 116.667 116.667 116.667c64.167 0 116.667-52.5 116.667-116.667s-52.5-116.667-116.667-116.667v0zM46.667 140c0-51.333 42-93.333 93.333-93.333 21 0 40.833 7 57.167 19.833l-130.667 130.667c-12.833-16.333-19.833-36.167-19.833-57.167v0zM140 233.333c-21 0-40.833-7-57.167-19.833l130.667-130.667c12.833 16.333 19.833 36.167 19.833 57.167 0 51.333-42 93.333-93.333 93.333v0z"></path>
</svg>
