<!-- Generated by IcoMoon.io -->
<svg version="1.1" xmlns="http://www.w3.org/2000/svg" width="280" height="280" viewBox="0 0 280 280">
<title>mt-directions_railway</title>
<path d="M46.667 180.833c0 22.517 18.317 40.833 40.833 40.833l-17.5 17.5v5.833h140v-5.833l-17.5-17.5c22.517 0 40.833-18.317 40.833-40.833v-122.5c0-40.833-41.767-46.667-93.333-46.667s-93.333 5.833-93.333 46.667v122.5zM140 198.333c-12.833 0-23.333-10.5-23.333-23.333s10.5-23.333 23.333-23.333c12.833 0 23.333 10.5 23.333 23.333s-10.5 23.333-23.333 23.333v0zM210 116.667h-140v-58.333h140v58.333z"></path>
</svg>
