<!-- Generated by IcoMoon.io -->
<svg version="1.1" xmlns="http://www.w3.org/2000/svg" width="280" height="280" viewBox="0 0 280 280">
<title>mt-directions_subway</title>
<path d="M140 23.333c-51.567 0-93.333 5.833-93.333 46.667v110.833c0 22.517 18.317 40.833 40.833 40.833l-17.5 17.5v5.833h140v-5.833l-17.5-17.5c22.517 0 40.833-18.317 40.833-40.833v-110.833c0-40.833-41.767-46.667-93.333-46.667v0zM87.5 198.333c-9.683 0-17.5-7.817-17.5-17.5s7.817-17.5 17.5-17.5c9.683 0 17.5 7.817 17.5 17.5s-7.817 17.5-17.5 17.5v0zM128.333 128.333h-58.333v-58.333h58.333v58.333zM192.5 198.333c-9.683 0-17.5-7.817-17.5-17.5s7.817-17.5 17.5-17.5c9.683 0 17.5 7.817 17.5 17.5s-7.817 17.5-17.5 17.5v0zM210 128.333h-58.333v-58.333h58.333v58.333z"></path>
</svg>
