<!-- Generated by IcoMoon.io -->
<svg version="1.1" xmlns="http://www.w3.org/2000/svg" width="280" height="280" viewBox="0 0 280 280">
<title>mt-date_range</title>
<path d="M105 128.333h-23.333v23.333h23.333v-23.333zM151.667 128.333h-23.333v23.333h23.333v-23.333zM198.333 128.333h-23.333v23.333h23.333v-23.333zM221.667 46.667h-11.667v-23.333h-23.333v23.333h-93.333v-23.333h-23.333v23.333h-11.667c-12.95 0-23.217 10.5-23.217 23.333l-0.117 163.333c0 12.833 10.383 23.333 23.333 23.333h163.333c12.833 0 23.333-10.5 23.333-23.333v-163.333c0-12.833-10.5-23.333-23.333-23.333v0zM221.667 233.333h-163.333v-128.333h163.333v128.333z"></path>
</svg>
