<!-- Generated by IcoMoon.io -->
<svg version="1.1" xmlns="http://www.w3.org/2000/svg" width="280" height="280" viewBox="0 0 280 280">
<title>mt-directions_walk</title>
<path d="M157.5 64.167c12.833 0 23.333-10.5 23.333-23.333s-10.5-23.333-23.333-23.333c-12.833 0-23.333 10.5-23.333 23.333s10.5 23.333 23.333 23.333v0zM114.333 103.833l-32.667 164.5h24.5l21-93.333 24.5 23.333v70h23.333v-87.5l-24.5-23.333 7-35c15.167 17.5 38.5 29.167 64.167 29.167v-23.333c-22.167 0-40.833-11.667-50.167-28l-11.667-18.667c-4.667-7-11.667-11.667-19.833-11.667-3.5 0-5.833 1.167-9.333 1.167l-60.667 25.667v54.833h23.333v-39.667l21-8.167z"></path>
</svg>
