<!-- Generated by IcoMoon.io -->
<svg version="1.1" xmlns="http://www.w3.org/2000/svg" width="280" height="280" viewBox="0 0 280 280">
<title>mt-fiber_new</title>
<path d="M233.333 46.667h-186.667c-12.95 0-23.217 10.383-23.217 23.333l-0.117 140c0 12.95 10.383 23.333 23.333 23.333h186.667c12.95 0 23.333-10.383 23.333-23.333v-140c0-12.95-10.383-23.333-23.333-23.333v0zM99.167 175h-14l-29.75-40.833v40.833h-14.583v-70h14.583l29.167 40.833v-40.833h14.583v70zM157.5 119.7h-29.167v13.067h29.167v14.7h-29.167v12.95h29.167v14.583h-46.667v-70h46.667v14.7zM239.167 163.333c0 6.417-5.25 11.667-11.667 11.667h-46.667c-6.417 0-11.667-5.25-11.667-11.667v-58.333h14.583v52.617h13.183v-41.067h14.583v40.95h13.067v-52.5h14.583v58.333z"></path>
</svg>
