<!-- Generated by IcoMoon.io -->
<svg version="1.1" xmlns="http://www.w3.org/2000/svg" width="280" height="280" viewBox="0 0 280 280">
<title>mt-hdr_off</title>
<path d="M211.167 169.167v-23.333h12.833l10.5 23.333h17.5l-10.5-24.5c5.833-2.333 10.5-9.333 10.5-16.333v-11.667c0-9.333-8.167-17.5-17.5-17.5h-40.833v57.167l12.833 12.833h4.667zM211.167 116.667h23.333v11.667h-23.333v-11.667zM158.667 116.667v4.667l17.5 17.5v-22.167c0-9.333-8.167-17.5-17.5-17.5h-22.167l17.5 17.5h4.667zM117.833 105l-81.667-81.667-12.833 11.667 64.167 64.167h-4.667v23.333h-23.333v-23.333h-17.5v70h17.5v-29.167h23.333v29.167h17.5v-57.167l17.5 17.5v39.667h39.667l88.667 88.667 12.833-12.833-141.167-140z"></path>
</svg>
