<!-- Generated by IcoMoon.io -->
<svg version="1.1" xmlns="http://www.w3.org/2000/svg" width="280" height="280" viewBox="0 0 280 280">
<title>mt-image_aspect_ratio</title>
<path d="M186.667 116.667h-23.333v23.333h23.333v-23.333zM186.667 163.333h-23.333v23.333h23.333v-23.333zM93.333 116.667h-23.333v23.333h23.333v-23.333zM140 116.667h-23.333v23.333h23.333v-23.333zM233.333 46.667h-186.667c-12.833 0-23.333 10.5-23.333 23.333v140c0 12.833 10.5 23.333 23.333 23.333h186.667c12.833 0 23.333-10.5 23.333-23.333v-140c0-12.833-10.5-23.333-23.333-23.333v0zM233.333 210h-186.667v-140h186.667v140z"></path>
</svg>
