<!-- Generated by IcoMoon.io -->
<svg version="1.1" xmlns="http://www.w3.org/2000/svg" width="280" height="280" viewBox="0 0 280 280">
<title>mt-info_outline</title>
<path d="M128.333 198.333h23.333v-70h-23.333v70zM140 23.333c-64.4 0-116.667 52.267-116.667 116.667s52.267 116.667 116.667 116.667c64.4 0 116.667-52.267 116.667-116.667s-52.267-116.667-116.667-116.667v0zM140 233.333c-51.45 0-93.333-41.883-93.333-93.333s41.883-93.333 93.333-93.333c51.45 0 93.333 41.883 93.333 93.333s-41.883 93.333-93.333 93.333v0zM128.333 105h23.333v-23.333h-23.333v23.333z"></path>
</svg>
