<!-- Generated by IcoMoon.io -->
<svg version="1.1" xmlns="http://www.w3.org/2000/svg" width="280" height="280" viewBox="0 0 280 280">
<title>mt-location_off</title>
<path d="M140 75.833c16.1 0 29.167 13.067 29.167 29.167 0 8.633-3.85 16.217-9.683 21.583l42.35 42.35c11.433-21.7 19.833-44.333 19.833-63.933 0-45.15-36.517-81.667-81.667-81.667-23.1 0-43.867 9.683-58.8 25.083l37.217 37.217c5.367-6.067 12.95-9.8 21.583-9.8v0zM190.983 187.833l-152.833-152.833-14.817 14.817 37.1 37.1c-1.283 5.833-2.1 11.9-2.1 18.083 0 61.25 81.667 151.667 81.667 151.667s19.483-21.583 39.433-50.75l39.083 39.083 14.817-14.817-42.35-42.35z"></path>
</svg>
