<!-- Generated by IcoMoon.io -->
<svg version="1.1" xmlns="http://www.w3.org/2000/svg" width="280" height="280" viewBox="0 0 280 280">
<title>mt-local_pizza</title>
<path d="M140 23.333c-41.65 0-78.983 17.967-104.883 46.667l104.883 186.667 104.883-186.667c-25.783-28.583-63.233-46.667-104.883-46.667v0zM81.667 81.667c0-12.833 10.5-23.333 23.333-23.333s23.333 10.5 23.333 23.333c0 12.833-10.5 23.333-23.333 23.333s-23.333-10.5-23.333-23.333v0zM140 175c-12.833 0-23.333-10.5-23.333-23.333s10.5-23.333 23.333-23.333c12.833 0 23.333 10.5 23.333 23.333s-10.5 23.333-23.333 23.333v0z"></path>
</svg>
