<!-- Generated by IcoMoon.io -->
<svg version="1.1" xmlns="http://www.w3.org/2000/svg" width="280" height="280" viewBox="0 0 280 280">
<title>mt-linear_scale</title>
<path d="M227.5 110.833c-12.017 0-22.167 7.233-26.717 17.5h-34.067c-4.55-10.267-14.7-17.5-26.717-17.5s-22.167 7.233-26.717 17.5h-34.067c-4.55-10.267-14.7-17.5-26.717-17.5-16.1 0-29.167 13.067-29.167 29.167s13.067 29.167 29.167 29.167c12.017 0 22.167-7.233 26.717-17.5h34.067c4.55 10.267 14.7 17.5 26.717 17.5s22.167-7.233 26.717-17.5h34.067c4.55 10.267 14.7 17.5 26.717 17.5 16.1 0 29.167-13.067 29.167-29.167s-13.067-29.167-29.167-29.167v0z"></path>
</svg>
