<!-- Generated by IcoMoon.io -->
<svg version="1.1" xmlns="http://www.w3.org/2000/svg" width="280" height="280" viewBox="0 0 280 280">
<title>mt-leak_add</title>
<path d="M70 35h-35v35c19.367 0 35-15.633 35-35v0zM163.333 35h-23.333c0 57.983-47.017 105-105 105v23.333c70.933 0 128.333-57.517 128.333-128.333v0zM116.667 35h-23.333c0 32.2-26.133 58.333-58.333 58.333v23.333c45.15 0 81.667-36.517 81.667-81.667v0zM116.667 245h23.333c0-57.983 47.017-105 105-105v-23.333c-70.817 0-128.333 57.517-128.333 128.333v0zM210 245h35v-35c-19.367 0-35 15.633-35 35v0zM163.333 245h23.333c0-32.2 26.133-58.333 58.333-58.333v-23.333c-45.15 0-81.667 36.517-81.667 81.667v0z"></path>
</svg>
