<!-- Generated by IcoMoon.io -->
<svg version="1.1" xmlns="http://www.w3.org/2000/svg" width="280" height="280" viewBox="0 0 280 280">
<title>mt-local_shipping</title>
<path d="M233.333 93.333h-35v-46.667h-163.333c-12.833 0-23.333 10.5-23.333 23.333v128.333h23.333c0 19.367 15.633 35 35 35s35-15.633 35-35h70c0 19.367 15.633 35 35 35s35-15.633 35-35h23.333v-58.333l-35-46.667zM70 215.833c-9.683 0-17.5-7.817-17.5-17.5s7.817-17.5 17.5-17.5c9.683 0 17.5 7.817 17.5 17.5s-7.817 17.5-17.5 17.5v0zM227.5 110.833l22.867 29.167h-52.033v-29.167h29.167zM210 215.833c-9.683 0-17.5-7.817-17.5-17.5s7.817-17.5 17.5-17.5c9.683 0 17.5 7.817 17.5 17.5s-7.817 17.5-17.5 17.5v0z"></path>
</svg>
