<!-- Generated by IcoMoon.io -->
<svg version="1.1" xmlns="http://www.w3.org/2000/svg" width="280" height="280" viewBox="0 0 280 280">
<title>mt-loop</title>
<path d="M140 46.667v-35l-46.667 46.667 46.667 46.667v-35c38.617 0 70 31.383 70 70 0 11.783-2.917 22.983-8.167 32.667l17.033 17.033c9.1-14.35 14.467-31.383 14.467-49.7 0-51.567-41.767-93.333-93.333-93.333v0zM140 210c-38.617 0-70-31.383-70-70 0-11.783 2.917-22.983 8.167-32.667l-17.033-17.033c-9.1 14.35-14.467 31.383-14.467 49.7 0 51.567 41.767 93.333 93.333 93.333v35l46.667-46.667-46.667-46.667v35z"></path>
</svg>
