<!-- Generated by IcoMoon.io -->
<svg version="1.1" xmlns="http://www.w3.org/2000/svg" width="280" height="280" viewBox="0 0 280 280">
<title>mt-live_help</title>
<path d="M221.667 23.333h-163.333c-12.95 0-23.333 10.5-23.333 23.333v163.333c0 12.833 10.383 23.333 23.333 23.333h46.667l35 35 35-35h46.667c12.833 0 23.333-10.5 23.333-23.333v-163.333c0-12.833-10.5-23.333-23.333-23.333v0zM151.667 210h-23.333v-23.333h23.333v23.333zM175.817 119.583l-10.5 10.733c-8.4 8.517-13.65 15.517-13.65 33.017h-23.333v-5.833c0-12.833 5.25-24.5 13.65-33.017l14.467-14.7c4.317-4.2 6.883-10.033 6.883-16.45 0-12.833-10.5-23.333-23.333-23.333s-23.333 10.5-23.333 23.333h-23.333c0-25.783 20.883-46.667 46.667-46.667s46.667 20.883 46.667 46.667c0 10.267-4.2 19.6-10.85 26.25v0z"></path>
</svg>
