<!-- Generated by IcoMoon.io -->
<svg version="1.1" xmlns="http://www.w3.org/2000/svg" width="280" height="280" viewBox="0 0 280 280">
<title>mt-motorcycle</title>
<path d="M226.8 105.35l-47.017-47.017h-51.45v23.333h41.883l23.333 23.333h-135.217c-32.667 0-58.333 25.667-58.333 58.333s25.667 58.333 58.333 58.333c28.7 0 51.917-19.717 57.167-46.667h19.25l32.317-32.317c-2.45 6.3-3.733 13.3-3.733 20.65 0 32.667 25.667 58.333 58.333 58.333s58.333-25.667 58.333-58.333c0-30.917-22.983-55.65-53.2-57.983v0zM91.233 175c-4.9 13.417-17.967 23.333-32.9 23.333-19.017 0-35-15.983-35-35s15.983-35 35-35c14.933 0 28 9.917 32.9 23.333h-32.9v23.333h32.9zM221.667 198.333c-19.367 0-35-15.633-35-35s15.633-35 35-35c19.367 0 35 15.633 35 35s-15.633 35-35 35v0z"></path>
</svg>
