<!-- Generated by IcoMoon.io -->
<svg version="1.1" xmlns="http://www.w3.org/2000/svg" width="280" height="280" viewBox="0 0 280 280">
<title>mt-panorama_vertical</title>
<path d="M232.633 246.4c-12.833-34.3-19.133-70.35-19.133-106.4s6.417-72.1 19.133-106.4c0.467-1.283 0.7-2.567 0.7-3.617 0-3.967-2.683-6.65-7.35-6.65h-171.967c-4.667 0-7.35 2.683-7.35 6.65 0 1.167 0.233 2.333 0.7 3.617 12.833 34.3 19.25 70.35 19.25 106.4s-6.417 72.1-19.133 106.4c-0.583 1.283-0.817 2.567-0.817 3.617 0 3.85 2.683 6.65 7.35 6.65h172.083c4.55 0 7.35-2.8 7.35-6.65-0.117-1.167-0.35-2.333-0.817-3.617v0zM76.3 233.333c8.983-30.333 13.533-61.6 13.533-93.333s-4.55-63-13.533-93.333h127.283c-8.983 30.333-13.533 61.6-13.533 93.333s4.55 63 13.533 93.333h-127.283z"></path>
</svg>
