<!-- Generated by IcoMoon.io -->
<svg version="1.1" xmlns="http://www.w3.org/2000/svg" width="280" height="280" viewBox="0 0 280 280">
<title>mt-phone_bluetooth_speaker</title>
<path d="M171.617 110.833l26.717-26.717v44.217h5.833l33.25-33.25-24.967-25.083 25.083-25.083-33.367-33.25h-5.833v44.217l-26.717-26.717-8.283 8.283 32.55 32.55-32.55 32.55 8.283 8.283zM210 33.95l10.967 10.967-10.967 10.967v-21.933zM210 84.117l10.967 10.967-10.967 10.967v-21.933zM233.333 180.833c-14.583 0-28.583-2.333-41.65-6.65-4.083-1.283-8.633-0.35-11.9 2.8l-25.667 25.667c-33.017-16.8-60.083-43.75-76.883-76.883l25.667-25.783c3.267-3.033 4.2-7.583 2.917-11.667-4.317-13.067-6.65-27.067-6.65-41.65 0-6.417-5.25-11.667-11.667-11.667h-40.833c-6.417 0-11.667 5.25-11.667 11.667 0 109.55 88.783 198.333 198.333 198.333 6.417 0 11.667-5.25 11.667-11.667v-40.833c0-6.417-5.25-11.667-11.667-11.667v0z"></path>
</svg>
