<!-- Generated by IcoMoon.io -->
<svg version="1.1" xmlns="http://www.w3.org/2000/svg" width="280" height="280" viewBox="0 0 280 280">
<title>mt-portrait</title>
<path d="M140 142.917c14.467 0 26.25-11.783 26.25-26.25s-11.783-26.25-26.25-26.25c-14.467 0-26.25 11.783-26.25 26.25s11.783 26.25 26.25 26.25v0zM192.5 189.583c0-17.5-35-26.25-52.5-26.25s-52.5 8.75-52.5 26.25v8.75h105v-8.75zM221.667 35h-163.333c-12.833 0-23.333 10.5-23.333 23.333v163.333c0 12.833 10.5 23.333 23.333 23.333h163.333c12.833 0 23.333-10.5 23.333-23.333v-163.333c0-12.833-10.5-23.333-23.333-23.333v0zM221.667 221.667h-163.333v-163.333h163.333v163.333z"></path>
</svg>
