<!-- Generated by IcoMoon.io -->
<svg version="1.1" xmlns="http://www.w3.org/2000/svg" width="280" height="280" viewBox="0 0 280 280">
<title>mt-panorama_wide_angle</title>
<path d="M140 70c28.583 0 54.95 2.333 85.050 7.467 5.483 20.767 8.283 41.767 8.283 62.533s-2.8 41.767-8.283 62.533c-30.1 5.133-56.467 7.467-85.050 7.467s-54.95-2.333-85.050-7.467c-5.483-20.767-8.283-41.767-8.283-62.533s2.8-41.767 8.283-62.533c30.1-5.133 56.467-7.467 85.050-7.467v0zM140 46.667c-31.85 0-60.9 2.8-92.75 8.4l-10.85 1.867-2.917 10.5c-6.767 24.15-10.15 48.417-10.15 72.567s3.383 48.417 10.15 72.567l2.917 10.383 10.85 1.867c31.85 5.717 60.9 8.517 92.75 8.517s60.9-2.8 92.75-8.4l10.85-1.867 2.917-10.383c6.767-24.267 10.15-48.533 10.15-72.683s-3.383-48.417-10.15-72.567l-2.917-10.383-10.85-1.867c-31.85-5.717-60.9-8.517-92.75-8.517v0z"></path>
</svg>
