<!-- Generated by IcoMoon.io -->
<svg version="1.1" xmlns="http://www.w3.org/2000/svg" width="280" height="280" viewBox="0 0 280 280">
<title>mt-radio_button_checked</title>
<path d="M140 81.667c-32.2 0-58.333 26.133-58.333 58.333s26.133 58.333 58.333 58.333c32.2 0 58.333-26.133 58.333-58.333s-26.133-58.333-58.333-58.333v0zM140 23.333c-64.4 0-116.667 52.267-116.667 116.667s52.267 116.667 116.667 116.667c64.4 0 116.667-52.267 116.667-116.667s-52.267-116.667-116.667-116.667v0zM140 233.333c-51.567 0-93.333-41.767-93.333-93.333s41.767-93.333 93.333-93.333c51.567 0 93.333 41.767 93.333 93.333s-41.767 93.333-93.333 93.333v0z"></path>
</svg>
