<!-- Generated by IcoMoon.io -->
<svg version="1.1" xmlns="http://www.w3.org/2000/svg" width="280" height="280" viewBox="0 0 280 280">
<title>mt-radio</title>
<path d="M37.8 71.75c-8.517 3.267-14.467 11.9-14.467 21.583v140c0 12.833 10.383 23.333 23.333 23.333h186.667c12.95 0 23.333-10.5 23.333-23.333v-140c0-12.95-10.383-23.333-23.333-23.333h-136.5l96.367-38.967-7.933-19.367-147.467 60.083zM81.667 233.333c-19.367 0-35-15.633-35-35s15.633-35 35-35c19.367 0 35 15.633 35 35s-15.633 35-35 35v0zM233.333 140h-23.333v-23.333h-23.333v23.333h-140v-46.667h186.667v46.667z"></path>
</svg>
