<!-- Generated by IcoMoon.io -->
<svg version="1.1" xmlns="http://www.w3.org/2000/svg" width="280" height="280" viewBox="0 0 280 280">
<title>mt-remove_red_eye</title>
<path d="M140 52.5c-58.333 0-108.15 36.283-128.333 87.5 20.183 51.217 70 87.5 128.333 87.5s108.15-36.283 128.333-87.5c-20.183-51.217-70-87.5-128.333-87.5v0zM140 198.333c-32.2 0-58.333-26.133-58.333-58.333s26.133-58.333 58.333-58.333c32.2 0 58.333 26.133 58.333 58.333s-26.133 58.333-58.333 58.333v0zM140 105c-19.367 0-35 15.633-35 35s15.633 35 35 35c19.367 0 35-15.633 35-35s-15.633-35-35-35v0z"></path>
</svg>
