<!-- Generated by IcoMoon.io -->
<svg version="1.1" xmlns="http://www.w3.org/2000/svg" width="280" height="280" viewBox="0 0 280 280">
<title>mt-router</title>
<path d="M235.667 68.833l9.333-9.333c-16.333-16.333-37.333-24.5-58.333-24.5s-42 8.167-58.333 24.5l9.333 9.333c14-12.833 31.5-19.833 49-19.833s35 7 49 19.833v0zM225.167 78.167c-10.5-10.5-24.5-16.333-38.5-16.333s-28 5.833-38.5 16.333l9.333 9.333c8.167-8.167 18.667-11.667 29.167-11.667s21 3.5 29.167 11.667l9.333-9.333zM221.667 151.667h-23.333v-46.667h-23.333v46.667h-116.667c-12.833 0-23.333 10.5-23.333 23.333v46.667c0 12.833 10.5 23.333 23.333 23.333h163.333c12.833 0 23.333-10.5 23.333-23.333v-46.667c0-12.833-10.5-23.333-23.333-23.333v0zM93.333 210h-23.333v-23.333h23.333v23.333zM134.167 210h-23.333v-23.333h23.333v23.333zM175 210h-23.333v-23.333h23.333v23.333z"></path>
</svg>
