<!-- Generated by IcoMoon.io -->
<svg version="1.1" xmlns="http://www.w3.org/2000/svg" width="280" height="280" viewBox="0 0 280 280">
<title>mt-screen_lock_landscape</title>
<path d="M245 58.333h-210c-12.833 0-23.333 10.5-23.333 23.333v116.667c0 12.833 10.5 23.333 23.333 23.333h210c12.833 0 23.333-10.5 23.333-23.333v-116.667c0-12.833-10.5-23.333-23.333-23.333v0zM221.667 198.333h-163.333v-116.667h163.333v116.667zM116.667 186.667h46.667c6.417 0 11.667-5.25 11.667-11.667v-35c0-6.417-5.25-11.667-11.667-11.667v-11.667c0-12.95-10.5-23.333-23.333-23.333-12.95 0-23.333 10.5-23.333 23.333v11.667c-6.417 0-11.667 5.25-11.667 11.667v35c0 6.417 5.25 11.667 11.667 11.667v0zM126 116.667c0-7.7 6.3-14 14-14s14 6.3 14 14v11.667h-28v-11.667z"></path>
</svg>
