<!-- Generated by IcoMoon.io -->
<svg version="1.1" xmlns="http://www.w3.org/2000/svg" width="280" height="280" viewBox="0 0 280 280">
<title>mt-sim_card</title>
<path d="M233.217 46.667c0-12.833-10.383-23.333-23.217-23.333h-93.333l-70 70v140c0 12.833 10.5 23.333 23.333 23.333h140.117c12.833 0 23.217-10.5 23.217-23.333l-0.117-186.667zM105 221.667h-23.333v-23.333h23.333v23.333zM198.333 221.667h-23.333v-23.333h23.333v23.333zM105 175h-23.333v-46.667h23.333v46.667zM151.667 221.667h-23.333v-46.667h23.333v46.667zM151.667 151.667h-23.333v-23.333h23.333v23.333zM198.333 175h-23.333v-46.667h23.333v46.667z"></path>
</svg>
