<!-- Generated by IcoMoon.io -->
<svg version="1.1" xmlns="http://www.w3.org/2000/svg" width="280" height="280" viewBox="0 0 280 280">
<title>mt-stop_screen_share</title>
<path d="M247.567 210.233l23.333 23.333h9.1v-23.333h-32.433zM256.55 186.9l0.117-116.667c0-12.95-10.5-23.333-23.333-23.333h-149.1l61.017 61.017c2.1-0.467 4.2-0.817 6.417-1.167v-24.85l46.667 43.517-18.433 17.15 64.633 64.633c7.117-3.85 12.017-11.55 12.017-20.3v0zM27.883 20.183l-14.933 14.817 17.967 17.967c-4.667 4.2-7.583 10.383-7.583 17.267v116.667c0 12.833 10.383 23.333 23.333 23.333h-46.667v23.333h211.517l31.617 31.617 14.817-14.817-230.067-230.184zM81.667 175.233c3.617-17.267 10.733-34.417 24.15-47.367l18.55 18.55c-17.967 4.433-31.5 13.767-42.7 28.817v0z"></path>
</svg>
