<!-- Generated by IcoMoon.io -->
<svg version="1.1" xmlns="http://www.w3.org/2000/svg" width="280" height="280" viewBox="0 0 280 280">
<title>mt-settings_remote</title>
<path d="M175 105h-70c-6.417 0-11.667 5.25-11.667 11.667v140c0 6.417 5.25 11.667 11.667 11.667h70c6.417 0 11.667-5.25 11.667-11.667v-140c0-6.417-5.25-11.667-11.667-11.667v0zM140 175c-12.833 0-23.334-10.5-23.334-23.333s10.5-23.333 23.334-23.333c12.833 0 23.333 10.5 23.333 23.333s-10.5 23.333-23.333 23.333v0zM82.25 70.583l16.45 16.45c10.617-10.5 25.2-17.033 41.3-17.033s30.683 6.533 41.3 17.033l16.45-16.45c-14.817-14.817-35.233-23.917-57.75-23.917s-42.934 9.1-57.75 23.917v0zM140 0c-35.467 0-67.55 14.35-90.767 37.567l16.45 16.45c19.017-18.9 45.267-30.683 74.317-30.683s55.3 11.783 74.2 30.8l16.45-16.45c-23.1-23.333-55.183-37.683-90.65-37.683v0z"></path>
</svg>
