<!-- Generated by IcoMoon.io -->
<svg version="1.1" xmlns="http://www.w3.org/2000/svg" width="280" height="280" viewBox="0 0 280 280">
<title>mt-settings_voice</title>
<path d="M81.667 280h23.333v-23.333h-23.333v23.333zM140 151.667c19.367 0 34.883-15.633 34.883-35l0.117-70c0-19.367-15.633-35-35-35s-35 15.633-35 35v70c0 19.367 15.633 35 35 35v0zM128.333 280h23.333v-23.333h-23.333v23.333zM175 280h23.333v-23.333h-23.333v23.333zM221.667 116.667h-19.833c0 35-29.633 59.5-61.833 59.5s-61.833-24.5-61.833-59.5h-19.833c0 39.783 31.733 72.683 70 78.4v38.267h23.333v-38.267c38.267-5.717 70-38.617 70-78.4v0z"></path>
</svg>
