<!-- Generated by IcoMoon.io -->
<svg version="1.1" xmlns="http://www.w3.org/2000/svg" width="280" height="280" viewBox="0 0 280 280">
<title>mt-tap_and_play</title>
<path d="M23.333 186.667v23.333c32.2 0 58.333 26.133 58.333 58.333h23.333c0-45.15-36.517-81.667-81.667-81.667v0zM23.333 233.333v35h35c0-19.367-15.633-35-35-35v0zM23.333 140v23.333c57.983 0 105 47.017 105 105h23.333c0-70.933-57.4-128.333-128.333-128.333v0zM198.333 11.783l-116.667-0.117c-12.833 0-23.333 10.5-23.333 23.333v85.983c8.050 1.867 15.867 4.317 23.333 7.467v-70.117h116.667v151.667h-35.35c6.067 14.583 9.8 30.217 11.083 46.667h24.267c12.833 0 23.333-10.5 23.333-23.333v-198.333c0-12.833-10.5-23.217-23.333-23.217v0z"></path>
</svg>
