<!-- Generated by IcoMoon.io -->
<svg version="1.1" xmlns="http://www.w3.org/2000/svg" width="280" height="280" viewBox="0 0 280 280">
<title>mt-texture</title>
<path d="M227.617 35.933l-191.683 191.683c1.050 3.967 3.15 7.583 5.95 10.5 2.917 2.8 6.533 4.9 10.5 5.95l191.8-191.683c-2.217-8.050-8.517-14.35-16.567-16.45v0zM138.6 35l-103.6 103.6v33.017l136.617-136.617h-33.017zM58.333 35c-12.833 0-23.333 10.5-23.333 23.333v23.333l46.667-46.667h-23.333zM221.667 245c6.417 0 12.25-2.567 16.45-6.883 4.317-4.2 6.883-10.033 6.883-16.45v-23.333l-46.667 46.667h23.333zM108.383 245h33.017l103.6-103.6v-33.017l-136.617 136.617z"></path>
</svg>
