<!-- Generated by IcoMoon.io -->
<svg version="1.1" xmlns="http://www.w3.org/2000/svg" width="280" height="280" viewBox="0 0 280 280">
<title>mt-usb</title>
<path d="M175 81.667v46.667h11.667v23.333h-35v-93.333h23.333l-35-46.667-34.999 46.667h23.333v93.333h-34.999v-24.15c8.167-4.317 14-12.6 14-22.517 0-14.117-11.55-25.667-25.667-25.667s-25.667 11.55-25.667 25.667c0 9.917 5.833 18.2 14 22.517v24.15c0 12.95 10.383 23.333 23.333 23.333h34.999v35.583c-8.283 4.317-13.999 12.833-13.999 22.75 0 14.233 11.549 25.667 25.666 25.667s25.667-11.433 25.667-25.667c0-9.917-5.717-18.433-14-22.75v-35.583h35c12.95 0 23.333-10.383 23.333-23.333v-23.333h11.667v-46.667h-46.667z"></path>
</svg>
