<!-- Generated by IcoMoon.io -->
<svg version="1.1" xmlns="http://www.w3.org/2000/svg" width="280" height="280" viewBox="0 0 280 280">
<title>mt-visibility_off</title>
<path d="M140 81.667c32.2 0 58.333 26.133 58.333 58.333 0 7.583-1.517 14.7-4.2 21.35l34.067 34.067c17.617-14.7 31.5-33.717 40.017-55.417-20.183-51.217-70-87.5-128.333-87.5-16.333 0-31.967 2.917-46.433 8.167l25.2 25.2c6.65-2.683 13.767-4.2 21.35-4.2v0zM23.333 49.817l31.967 31.967c-19.367 15.050-34.533 35.117-43.633 58.217 20.183 51.217 70 87.5 128.333 87.5 18.083 0 35.35-3.5 51.1-9.8l4.9 4.9 34.183 34.067 14.817-14.817-206.85-206.85-14.817 14.817zM87.85 114.333l18.083 18.083c-0.583 2.45-0.933 5.017-0.933 7.583 0 19.367 15.633 35 35 35 2.567 0 5.133-0.35 7.583-0.933l18.083 18.083c-7.817 3.85-16.45 6.183-25.667 6.183-32.2 0-58.333-26.133-58.333-58.333 0-9.217 2.333-17.85 6.183-25.667v0zM138.133 105.233l36.75 36.75 0.233-1.867c0-19.367-15.633-35-35-35l-1.983 0.117z"></path>
</svg>
