<!-- Generated by IcoMoon.io -->
<svg version="1.1" xmlns="http://www.w3.org/2000/svg" width="280" height="280" viewBox="0 0 280 280">
<title>mt-view_comfy</title>
<path d="M35 105h46.667v-46.667h-46.667v46.667zM35 163.333h46.667v-46.667h-46.667v46.667zM93.333 163.333h46.667v-46.667h-46.667v46.667zM151.667 163.333h46.667v-46.667h-46.667v46.667zM93.333 105h46.667v-46.667h-46.667v46.667zM151.667 58.333v46.667h46.667v-46.667h-46.667zM210 163.333h46.667v-46.667h-46.667v46.667zM35 221.667h46.667v-46.667h-46.667v46.667zM93.333 221.667h46.667v-46.667h-46.667v46.667zM151.667 221.667h46.667v-46.667h-46.667v46.667zM210 221.667h46.667v-46.667h-46.667v46.667zM210 58.333v46.667h46.667v-46.667h-46.667z"></path>
</svg>
