<!-- Generated by IcoMoon.io -->
<svg version="1.1" xmlns="http://www.w3.org/2000/svg" width="280" height="280" viewBox="0 0 280 280">
<title>mt-view_week</title>
<path d="M70 58.333h-35c-6.417 0-11.667 5.25-11.667 11.667v140c0 6.417 5.25 11.667 11.667 11.667h35c6.417 0 11.667-5.25 11.667-11.667v-140c0-6.417-5.25-11.667-11.667-11.667v0zM233.333 58.333h-35c-6.417 0-11.667 5.25-11.667 11.667v140c0 6.417 5.25 11.667 11.667 11.667h35c6.417 0 11.667-5.25 11.667-11.667v-140c0-6.417-5.25-11.667-11.667-11.667v0zM151.667 58.333h-35c-6.417 0-11.667 5.25-11.667 11.667v140c0 6.417 5.25 11.667 11.667 11.667h35c6.417 0 11.667-5.25 11.667-11.667v-140c0-6.417-5.25-11.667-11.667-11.667v0z"></path>
</svg>
