<!-- Generated by IcoMoon.io -->
<svg version="1.1" xmlns="http://www.w3.org/2000/svg" width="280" height="280" viewBox="0 0 280 280">
<title>mt-wb_sunny</title>
<path d="M78.867 56.464l-21-20.883-16.45 16.45 20.883 20.883 16.567-16.45zM46.667 122.498h-35v23.333h35v-23.333zM151.667 6.414h-23.333v34.416h23.333v-34.416zM238.583 52.031l-16.45-16.45-20.883 20.883 16.45 16.45 20.883-20.883zM201.133 211.864l20.883 21 16.45-16.45-21-20.883-16.333 16.333zM233.333 122.498v23.333h35v-23.333h-35zM140 64.164c-38.617 0-70 31.383-70 70s31.383 70 70 70c38.617 0 70-31.383 70-70s-31.383-70-70-70v0zM128.333 261.914h23.333v-34.417h-23.333v34.417zM41.417 216.298l16.45 16.45 20.883-21-16.45-16.45-20.883 21z"></path>
</svg>
