<!-- Generated by IcoMoon.io -->
<svg version="1.1" xmlns="http://www.w3.org/2000/svg" width="280" height="280" viewBox="0 0 280 280">
<title>ul-adjust-alt</title>
<path d="M243.017 85.4v0c0.030-0.14 0.047-0.302 0.047-0.467s-0.017-0.326-0.050-0.482l0.003 0.015c-9.579-17.487-22.91-31.826-38.985-42.309l-0.449-0.275c-17.712-11.631-39.421-18.553-62.747-18.553-0.294 0-0.588 0.001-0.881 0.003l0.045-0c-6.443 0-11.667 5.223-11.667 11.667v0 210c0 6.443 5.223 11.667 11.667 11.667v0h3.267c62.986-1.853 113.34-53.356 113.34-116.619 0-19.996-5.031-38.818-13.896-55.268l0.305 0.62zM151.667 47.367c10.805 1.397 20.61 4.435 29.596 8.877l-0.546-0.244-29.050 50.4zM151.667 153.067l48.65-84.233c7.147 6.103 13.254 13.138 18.21 20.972l0.223 0.378-67.083 116.2zM165.2 229.717l65.217-113.050c1.825 6.996 2.887 15.034 2.916 23.315v0.019c0.001 0.113 0.001 0.247 0.001 0.382 0 42.442-28.544 78.218-67.482 89.178l-0.652 0.157z"></path>
</svg>
