<!-- Generated by IcoMoon.io -->
<svg version="1.1" xmlns="http://www.w3.org/2000/svg" width="280" height="280" viewBox="0 0 280 280">
<title>ul-arrows-maximize</title>
<path d="M245 163.333c-6.443 0-11.667 5.223-11.667 11.667v0 41.883l-170.217-170.217h41.883c6.443 0 11.667-5.223 11.667-11.667s-5.223-11.667-11.667-11.667v0h-70c-1.606 0.020-3.127 0.361-4.509 0.962l0.075-0.029c-2.86 1.209-5.091 3.44-6.271 6.223l-0.029 0.077c-0.572 1.306-0.913 2.827-0.933 4.426v70.007c0 6.443 5.223 11.667 11.667 11.667s11.667-5.223 11.667-11.667v0-41.883l170.217 170.217h-41.883c-6.443 0-11.667 5.223-11.667 11.667s5.223 11.667 11.667 11.667v0h70c1.606-0.020 3.127-0.361 4.509-0.963l-0.075 0.029c2.86-1.209 5.091-3.44 6.271-6.223l0.029-0.077c0.572-1.306 0.913-2.827 0.933-4.426v-70.007c0-6.443-5.223-11.667-11.667-11.667v0z"></path>
</svg>
