<!-- Generated by IcoMoon.io -->
<svg version="1.1" xmlns="http://www.w3.org/2000/svg" width="280" height="280" viewBox="0 0 280 280">
<title>ul-briefcase-alt</title>
<path d="M221.667 75.833h-35v-11.667c0-19.33-15.67-35-35-35v0h-23.333c-19.33 0-35 15.67-35 35v0 11.667h-35c-19.33 0-35 15.67-35 35v0 105c0 19.33 15.67 35 35 35v0h163.333c19.33 0 35-15.67 35-35v0-105c0-19.33-15.67-35-35-35v0zM116.667 64.167c0-6.443 5.223-11.667 11.667-11.667v0h23.333c6.443 0 11.667 5.223 11.667 11.667v0 11.667h-46.667zM233.333 215.833c0 6.443-5.223 11.667-11.667 11.667v0h-163.333c-6.443 0-11.667-5.223-11.667-11.667v0-64.167c9.606 3.972 21.287 7.735 33.308 10.623l1.692 0.343v6.883c0 6.443 5.223 11.667 11.667 11.667s11.667-5.223 11.667-11.667v0-2.45c10.469 1.504 22.603 2.393 34.935 2.45l0.065 0c12.397-0.057 24.531-0.946 36.416-2.613l-1.416 0.163v2.45c0 6.443 5.223 11.667 11.667 11.667s11.667-5.223 11.667-11.667v0-6.883c13.713-3.231 25.394-6.995 36.663-11.562l-1.663 0.596zM233.333 126.117c-9.668 4.239-21.327 8.232-33.352 11.309l-1.648 0.358v-3.617c0-6.443-5.223-11.667-11.667-11.667s-11.667 5.223-11.667 11.667v0 8.633c-10.519 1.671-22.648 2.625-35 2.625s-24.481-0.955-36.317-2.794l1.317 0.168v-8.633c0-6.443-5.223-11.667-11.667-11.667s-11.667 5.223-11.667 11.667v0 3.85c-13.673-3.435-25.332-7.428-36.545-12.259l1.545 0.592v-15.517c0-6.443 5.223-11.667 11.667-11.667v0h163.333c6.443 0 11.667 5.223 11.667 11.667v0z"></path>
</svg>
