<!-- Generated by IcoMoon.io -->
<svg version="1.1" xmlns="http://www.w3.org/2000/svg" width="280" height="280" viewBox="0 0 280 280">
<title>ul-blogger</title>
<path d="M113.284 122.034h26.12c4.967 0 8.993-4.026 8.993-8.993s-4.026-8.993-8.993-8.993h-26.12c-4.967 0-8.993 4.026-8.993 8.993s4.026 8.993 8.993 8.993v0zM226.664 23.353h-173.522c-16.491 0.063-29.843 13.415-29.905 29.9v173.527c0.062 16.492 13.414 29.844 29.899 29.907h173.527c16.492-0.061 29.845-13.413 29.907-29.899v-173.529c-0.062-16.492-13.414-29.844-29.9-29.906h-0.006zM214.151 136.261l-0.229 31.213c-0.196 25.903-21.198 46.836-47.109 46.921h-54.13c-25.954-0.048-46.994-21.019-47.154-46.942v-54.783c0.144-25.959 21.185-46.954 47.147-47.026h32.95c15.708 2.795 28.755 12.312 36.269 25.41l0.134 0.253c2.485 4.625 4.024 10.090 4.22 15.895l0.002 0.061c0.786 5.898 1.2 10.281 3.851 12.71 3.726 3.377 17.585 1.102 20.325 3.248l2.086 1.631 1.27 2.586 0.42 2.071zM166.352 158.006h-53.068c-0.080-0.003-0.173-0.004-0.267-0.004-4.835 0-8.754 3.919-8.754 8.754s3.919 8.754 8.754 8.754c0.094 0 0.188-0.001 0.281-0.004l-0.014 0h53.068c0.066 0.002 0.144 0.003 0.221 0.003 4.834 0 8.753-3.919 8.753-8.753s-3.919-8.753-8.753-8.753c-0.078 0-0.156 0.001-0.233 0.003l0.011-0z"></path>
</svg>
