<!-- Generated by IcoMoon.io -->
<svg version="1.1" xmlns="http://www.w3.org/2000/svg" width="280" height="280" viewBox="0 0 280 280">
<title>ul-bitcoin-alt</title>
<path d="M190.216 131.147c5.022-7.329 8.020-16.389 8.020-26.149 0-25.759-20.882-46.641-46.641-46.641-0.009 0-0.018 0-0.027 0h0.001v-11.667c0-6.443-5.223-11.667-11.667-11.667s-11.667 5.223-11.667 11.667v0 11.667h-23.333v-11.667c0-6.443-5.223-11.667-11.667-11.667s-11.667 5.223-11.667 11.667v0 11.667h-11.667c-6.443 0-11.667 5.223-11.667 11.667s5.223 11.667 11.667 11.667v0h11.667v116.667h-11.667c-6.443 0-11.667 5.223-11.667 11.667s5.223 11.667 11.667 11.667v0h11.667v11.667c0 6.443 5.223 11.667 11.667 11.667s11.667-5.223 11.667-11.667v0-11.667h23.333v11.667c0 6.443 5.223 11.667 11.667 11.667s11.667-5.223 11.667-11.667v0-11.667h23.333c0.036 0 0.078 0 0.121 0 25.707 0 46.546-20.839 46.546-46.546 0-20.265-12.951-37.506-31.028-43.896l-0.326-0.1zM104.903 81.69h46.667c12.887 0 23.333 10.447 23.333 23.333s-10.447 23.333-23.333 23.333h-46.667zM174.903 198.357h-70v-46.667h70c12.887 0 23.333 10.447 23.333 23.333s-10.447 23.333-23.333 23.333v0z"></path>
</svg>
