<!-- Generated by IcoMoon.io -->
<svg version="1.1" xmlns="http://www.w3.org/2000/svg" width="280" height="280" viewBox="0 0 280 280">
<title>ul-bed</title>
<path d="M81.667 145.833c19.33 0 35-15.67 35-35s-15.67-35-35-35c-19.33 0-35 15.67-35 35v0c0 19.33 15.67 35 35 35v0zM81.667 99.167c6.443 0 11.667 5.223 11.667 11.667s-5.223 11.667-11.667 11.667c-6.443 0-11.667-5.223-11.667-11.667v0c0-6.443 5.223-11.667 11.667-11.667v0zM233.333 75.833h-93.333c-6.443 0-11.667 5.223-11.667 11.667v0 70h-93.333v-93.333c0-6.443-5.223-11.667-11.667-11.667s-11.667 5.223-11.667 11.667v0 151.667c0 6.443 5.223 11.667 11.667 11.667s11.667-5.223 11.667-11.667v0-35h210v35c0 6.443 5.223 11.667 11.667 11.667s11.667-5.223 11.667-11.667v0-105c0-19.33-15.67-35-35-35v0zM245 157.5h-93.333v-58.333h81.667c6.443 0 11.667 5.223 11.667 11.667v0z"></path>
</svg>
