<!-- Generated by IcoMoon.io -->
<svg version="1.1" xmlns="http://www.w3.org/2000/svg" width="280" height="280" viewBox="0 0 280 280">
<title>ul-bell-slash</title>
<path d="M129.15 71.4c3.171-0.889 6.812-1.401 10.573-1.401 0.097 0 0.194 0 0.292 0.001h-0.015c25.773 0 46.667 20.893 46.667 46.667v0 15.633c0 6.443 5.223 11.667 11.667 11.667s11.667-5.223 11.667-11.667v0-15.633c-0.036-34.509-25.038-63.168-57.915-68.89l-0.418-0.060v-12.717c0-6.443-5.223-11.667-11.667-11.667s-11.667 5.223-11.667 11.667v0 12.833l-5.25 0.933c-5.041 1.384-8.683 5.925-8.683 11.317 0 6.471 5.246 11.716 11.716 11.716 1.079 0 2.124-0.146 3.116-0.419l-0.082 0.019zM253.283 236.717l-210-210c-2.12-2.12-5.048-3.431-8.283-3.431-6.47 0-11.714 5.245-11.714 11.714 0 3.235 1.311 6.164 3.431 8.283v0l48.067 47.95c-3.027 7.54-4.783 16.281-4.783 25.432 0 0.001 0 0.001 0 0.001v0 37.1c-13.68 4.939-23.289 17.791-23.333 32.895v23.339c0 6.443 5.223 11.667 11.667 11.667v0h36.633c5.565 19.998 23.614 34.428 45.033 34.428s39.469-14.431 44.955-34.1l0.078-0.328h20.183l31.5 31.617c2.114 2.131 5.045 3.451 8.283 3.451s6.169-1.32 8.283-3.45l0.001-0.001c2.131-2.114 3.451-5.045 3.451-8.283s-1.32-6.169-3.45-8.283l-0.001-0.001zM93.333 116.667c-0.085-0.961-0.133-2.079-0.133-3.208s0.048-2.247 0.144-3.352l-0.010 0.144 41.883 41.417h-41.883zM140 233.333c-8.537-0.053-15.981-4.683-20.007-11.557l-0.060-0.11h40.133c-4.086 6.984-11.53 11.613-20.059 11.667h-0.008zM70 198.333v-11.667c0-6.443 5.223-11.667 11.667-11.667v0h76.883l23.333 23.333z"></path>
</svg>
