<!-- Generated by IcoMoon.io -->
<svg version="1.1" xmlns="http://www.w3.org/2000/svg" width="280" height="280" viewBox="0 0 280 280">
<title>ul-backpack</title>
<path d="M151.667 116.667h-23.333c-6.443 0-11.667 5.223-11.667 11.667s5.223 11.667 11.667 11.667v0h23.333c6.443 0 11.667-5.223 11.667-11.667s-5.223-11.667-11.667-11.667v0zM210 116.667c-0.072-21.565-14.761-39.68-34.674-44.96l-0.326-0.073v-13.3c0-19.33-15.67-35-35-35s-35 15.67-35 35v0 13.3c-20.239 5.353-34.928 23.468-35 45.025v0.008c-25.773 0-46.667 20.893-46.667 46.667v0 35c0 19.33 15.67 35 35 35v0h13.767c4.939 13.68 17.791 23.289 32.895 23.333h70.005c15.109-0.044 27.961-9.654 32.823-23.090l0.077-0.244h13.767c19.33 0 35-15.67 35-35v0-35c0-25.773-20.893-46.667-46.667-46.667v0zM70 210h-11.667c-6.443 0-11.667-5.223-11.667-11.667v0-35c0-12.887 10.447-23.333 23.333-23.333v0zM128.333 58.333c0-6.443 5.223-11.667 11.667-11.667s11.667 5.223 11.667 11.667v0 11.667h-23.333zM186.667 221.667c0 6.443-5.223 11.667-11.667 11.667v0h-70c-6.443 0-11.667-5.223-11.667-11.667v0-11.667c0-12.887 10.447-23.333 23.333-23.333v0h46.667c12.887 0 23.333 10.447 23.333 23.333v0zM186.667 169.867c-6.658-4.071-14.709-6.496-23.323-6.533h-46.677c-8.624 0.037-16.675 2.462-23.534 6.647l0.201-0.114v-53.2c0-12.887 10.447-23.333 23.333-23.333v0h46.667c12.887 0 23.333 10.447 23.333 23.333v0zM233.333 198.333c0 6.443-5.223 11.667-11.667 11.667v0h-11.667v-70c12.887 0 23.333 10.447 23.333 23.333v0z"></path>
</svg>
