<!-- Generated by IcoMoon.io -->
<svg version="1.1" xmlns="http://www.w3.org/2000/svg" width="280" height="280" viewBox="0 0 280 280">
<title>ul-brightness-low</title>
<path d="M35 128.333c-6.443 0-11.667 5.223-11.667 11.667s5.223 11.667 11.667 11.667c6.443 0 11.667-5.223 11.667-11.667v0c0-6.443-5.223-11.667-11.667-11.667v0zM57.517 206.033c-2.126 2.114-3.442 5.040-3.442 8.274 0 6.443 5.223 11.667 11.667 11.667s11.667-5.223 11.667-11.667c0-3.234-1.316-6.161-3.441-8.273l-0.001-0.001c-2.109-2.097-5.016-3.393-8.225-3.393s-6.116 1.296-8.226 3.393l0.001-0.001zM73.967 73.967c2.126-2.114 3.442-5.040 3.442-8.274 0-6.443-5.223-11.667-11.667-11.667s-11.667 5.223-11.667 11.667c0 3.234 1.316 6.161 3.441 8.273l0.001 0.001c2.109 2.097 5.016 3.393 8.225 3.393s6.116-1.296 8.226-3.393l-0.001 0.001zM140 46.667c6.443 0 11.667-5.223 11.667-11.667s-5.223-11.667-11.667-11.667c-6.443 0-11.667 5.223-11.667 11.667v0c0 6.443 5.223 11.667 11.667 11.667v0zM206.033 206.033c-2.126 2.114-3.442 5.040-3.442 8.274 0 6.443 5.223 11.667 11.667 11.667s11.667-5.223 11.667-11.667c0-3.234-1.316-6.161-3.441-8.273l-0.001-0.001c-2.109-2.097-5.016-3.393-8.225-3.393s-6.116 1.296-8.226 3.393l0.001-0.001zM245 128.333c-6.443 0-11.667 5.223-11.667 11.667s5.223 11.667 11.667 11.667c6.443 0 11.667-5.223 11.667-11.667v0c0-6.443-5.223-11.667-11.667-11.667v0zM206.033 57.517c-2.126 2.114-3.442 5.040-3.442 8.274 0 6.443 5.223 11.667 11.667 11.667s11.667-5.223 11.667-11.667c0-3.234-1.316-6.161-3.441-8.273l-0.001-0.001c-2.109-2.097-5.016-3.393-8.225-3.393s-6.116 1.296-8.226 3.393l0.001-0.001zM140 233.333c-6.443 0-11.667 5.223-11.667 11.667s5.223 11.667 11.667 11.667c6.443 0 11.667-5.223 11.667-11.667v0c0-6.443-5.223-11.667-11.667-11.667v0zM140 70c-38.66 0-70 31.34-70 70s31.34 70 70 70c38.66 0 70-31.34 70-70v0c0-38.66-31.34-70-70-70v0zM140 186.667c-25.773 0-46.667-20.893-46.667-46.667s20.893-46.667 46.667-46.667c25.773 0 46.667 20.893 46.667 46.667v0c0 25.773-20.893 46.667-46.667 46.667v0z"></path>
</svg>
