<!-- Generated by IcoMoon.io -->
<svg version="1.1" xmlns="http://www.w3.org/2000/svg" width="280" height="280" viewBox="0 0 280 280">
<title>ul-credit-card-search</title>
<path d="M233.333 204.983c4.612-7.442 7.345-16.469 7.345-26.133 0-27.706-22.46-50.167-50.167-50.167s-50.167 22.46-50.167 50.167c0 27.706 22.46 50.167 50.167 50.167 0.002 0 0.004 0 0.006 0h-0c9.663-0.047 18.68-2.775 26.356-7.477l-0.223 0.127 20.067 20.183c2.114 2.131 5.045 3.451 8.283 3.451s6.169-1.32 8.283-3.45l0.001-0.001c2.131-2.114 3.451-5.045 3.451-8.283s-1.32-6.169-3.45-8.283l-0.001-0.001zM210 198.333c-4.952 4.725-11.674 7.633-19.075 7.633s-14.123-2.908-19.086-7.644l0.011 0.010c-4.86-4.892-7.864-11.633-7.864-19.075s3.004-14.183 7.865-19.076l-0.001 0.001c4.879-4.888 11.624-7.912 19.075-7.912s14.196 3.024 19.074 7.912l0.001 0.001c4.86 4.892 7.864 11.633 7.864 19.075s-3.004 14.183-7.865 19.076l0.001-0.001zM221.667 35h-163.333c-19.33 0-35 15.67-35 35v0 105c0 19.33 15.67 35 35 35v0h46.667c6.443 0 11.667-5.223 11.667-11.667s-5.223-11.667-11.667-11.667v0h-46.667c-6.443 0-11.667-5.223-11.667-11.667v0-70h186.667v11.667c0 6.443 5.223 11.667 11.667 11.667s11.667-5.223 11.667-11.667v0-46.667c0-19.33-15.67-35-35-35v0zM233.333 81.667h-186.667v-11.667c0-6.443 5.223-11.667 11.667-11.667v0h163.333c6.443 0 11.667 5.223 11.667 11.667v0zM116.667 128.333h-35c-6.443 0-11.667 5.223-11.667 11.667s5.223 11.667 11.667 11.667v0h35c6.443 0 11.667-5.223 11.667-11.667s-5.223-11.667-11.667-11.667v0z"></path>
</svg>
