<!-- Generated by IcoMoon.io -->
<svg version="1.1" xmlns="http://www.w3.org/2000/svg" width="280" height="280" viewBox="0 0 280 280">
<title>ul-comment-alt-info</title>
<path d="M58.333 128.333c6.443 0 11.667-5.223 11.667-11.667v0-46.667c0-6.443-5.223-11.667-11.667-11.667s-11.667 5.223-11.667 11.667v0 46.667c0 6.443 5.223 11.667 11.667 11.667v0zM50.050 43.283c2.105 2.078 5 3.362 8.194 3.362 1.633 0 3.187-0.336 4.598-0.941l-0.076 0.029c1.483-0.628 2.756-1.453 3.861-2.46l-0.011 0.010c0.997-1.094 1.822-2.367 2.417-3.762l0.033-0.087c0.591-1.224 0.937-2.662 0.937-4.181 0-0.089-0.001-0.177-0.004-0.266l0 0.013c0-0.020 0-0.044 0-0.068 0-3.205-1.292-6.108-3.384-8.217l0.001 0.001c-2.105-2.078-5-3.362-8.194-3.362-1.633 0-3.187 0.336-4.598 0.941l0.076-0.029c-1.494 0.588-2.773 1.418-3.854 2.454l0.004-0.004c-2.091 2.108-3.384 5.011-3.384 8.216 0 0.024 0 0.047 0 0.071v-0.004c0.020 1.606 0.361 3.127 0.962 4.509l-0.029-0.075c0.628 1.483 1.453 2.756 2.46 3.861l-0.010-0.011zM198.333 70h-93.333c-6.443 0-11.667 5.223-11.667 11.667s5.223 11.667 11.667 11.667v0h93.333c6.443 0 11.667 5.223 11.667 11.667v0 113.4l-18.317-16.917c-2.071-1.943-4.861-3.139-7.931-3.15h-102.085c-6.443 0-11.667-5.223-11.667-11.667v0-23.333c0-6.443-5.223-11.667-11.667-11.667s-11.667 5.223-11.667 11.667v0 23.333c0 19.33 15.67 35 35 35v0h97.533l35 31.85c1.959 1.842 4.564 3.017 7.441 3.149l0.026 0.001c1.686-0.019 3.287-0.36 4.752-0.964l-0.085 0.031c4.155-1.847 7-5.937 7-10.693 0-0.014 0-0.028 0-0.043v0.002-140c0-19.33-15.67-35-35-35v0z"></path>
</svg>
