<!-- Generated by IcoMoon.io -->
<svg version="1.1" xmlns="http://www.w3.org/2000/svg" width="280" height="280" viewBox="0 0 280 280">
<title>ul-capsule</title>
<path d="M227.5 52.5c-10.809-10.807-25.741-17.491-42.233-17.491s-31.424 6.684-42.234 17.491l-90.533 90.533c-11.18 10.867-18.117 26.049-18.117 42.851 0 32.99 26.744 59.733 59.733 59.733 16.802 0 31.983-6.937 42.837-18.103l0.014-0.014 90.533-90.533c10.807-10.809 17.491-25.741 17.491-42.233s-6.684-31.424-17.491-42.234v0zM120.4 211.050c-6.694 6.337-15.754 10.234-25.725 10.234s-19.031-3.896-25.742-10.25l0.017 0.016c-6.551-6.599-10.6-15.689-10.6-25.725s4.049-19.126 10.602-25.727l37.098-37.098 51.45 51.45zM211.050 120.4l-37.1 37.1-51.45-51.45 37.1-37.1c6.491-6.093 15.252-9.836 24.886-9.836 20.103 0 36.4 16.297 36.4 36.4 0 9.634-3.743 18.394-9.854 24.905l0.018-0.019z"></path>
</svg>
