<!-- Generated by IcoMoon.io -->
<svg version="1.1" xmlns="http://www.w3.org/2000/svg" width="280" height="280" viewBox="0 0 280 280">
<title>ul-credit-card</title>
<path d="M81.667 175h35c6.443 0 11.667-5.223 11.667-11.667s-5.223-11.667-11.667-11.667v0h-35c-6.443 0-11.667 5.223-11.667 11.667s5.223 11.667 11.667 11.667v0zM221.667 58.333h-163.333c-19.33 0-35 15.67-35 35v0 105c0 19.33 15.67 35 35 35v0h163.333c19.33 0 35-15.67 35-35v0-105c0-19.33-15.67-35-35-35v0zM233.333 198.333c0 6.443-5.223 11.667-11.667 11.667v0h-163.333c-6.443 0-11.667-5.223-11.667-11.667v0-70h186.667zM233.333 105h-186.667v-11.667c0-6.443 5.223-11.667 11.667-11.667v0h163.333c6.443 0 11.667 5.223 11.667 11.667v0z"></path>
</svg>
