<!-- Generated by IcoMoon.io -->
<svg version="1.1" xmlns="http://www.w3.org/2000/svg" width="280" height="280" viewBox="0 0 280 280">
<title>ul-caret-right</title>
<path d="M227.5 129.85l-163.333-94.267c-1.673-0.983-3.686-1.563-5.833-1.563s-4.16 0.581-5.888 1.593l0.055-0.030c-3.512 2.055-5.834 5.808-5.834 10.104 0 0.016 0 0.033 0 0.049v-0.002 188.533c0 0.014 0 0.030 0 0.046 0 4.296 2.321 8.049 5.778 10.074l0.055 0.030c1.673 0.983 3.686 1.563 5.833 1.563s4.16-0.581 5.888-1.593l-0.055 0.030 163.333-94.267c3.557-2.044 5.914-5.821 5.914-10.15s-2.357-8.106-5.858-10.12l-0.057-0.030zM70 214.083v-148.167l128.333 74.083z"></path>
</svg>
