<!-- Generated by IcoMoon.io -->
<svg version="1.1" xmlns="http://www.w3.org/2000/svg" width="280" height="280" viewBox="0 0 280 280">
<title>ul-crosshair</title>
<path d="M245 128.333h-12.483c-5.51-42.25-38.6-75.34-80.379-80.8l-0.471-0.050v-12.483c0-6.443-5.223-11.667-11.667-11.667s-11.667 5.223-11.667 11.667v0 12.483c-42.25 5.51-75.34 38.6-80.8 80.379l-0.050 0.471h-12.483c-6.443 0-11.667 5.223-11.667 11.667s5.223 11.667 11.667 11.667v0h12.483c5.51 42.25 38.6 75.34 80.379 80.8l0.471 0.050v12.483c0 6.443 5.223 11.667 11.667 11.667s11.667-5.223 11.667-11.667v0-12.483c42.25-5.51 75.34-38.6 80.8-80.379l0.050-0.471h12.483c6.443 0 11.667-5.223 11.667-11.667s-5.223-11.667-11.667-11.667v0zM198.333 151.667h10.617c-5.121 29.344-27.939 52.162-56.864 57.223l-0.419 0.061v-10.617c0-6.443-5.223-11.667-11.667-11.667s-11.667 5.223-11.667 11.667v0 10.617c-29.344-5.121-52.162-27.939-57.223-56.864l-0.061-0.419h10.617c6.443 0 11.667-5.223 11.667-11.667s-5.223-11.667-11.667-11.667v0h-10.617c5.121-29.344 27.939-52.162 56.864-57.223l0.419-0.061v10.617c0 6.443 5.223 11.667 11.667 11.667s11.667-5.223 11.667-11.667v0-10.617c29.344 5.121 52.162 27.939 57.223 56.864l0.061 0.419h-10.617c-6.443 0-11.667 5.223-11.667 11.667s5.223 11.667 11.667 11.667v0zM140 128.333c-6.443 0-11.667 5.223-11.667 11.667s5.223 11.667 11.667 11.667c6.443 0 11.667-5.223 11.667-11.667v0c0-6.443-5.223-11.667-11.667-11.667v0z"></path>
</svg>
