<!-- Generated by IcoMoon.io -->
<svg version="1.1" xmlns="http://www.w3.org/2000/svg" width="280" height="280" viewBox="0 0 280 280">
<title>ul-compress-arrows</title>
<path d="M121.1 152.6c-1.306-0.572-2.827-0.913-4.426-0.933h-46.674c-6.443 0-11.667 5.223-11.667 11.667s5.223 11.667 11.667 11.667v0h18.55l-61.833 61.717c-2.131 2.114-3.451 5.045-3.451 8.283s1.32 6.169 3.45 8.283l0.001 0.001c2.114 2.131 5.045 3.451 8.283 3.451s6.169-1.32 8.283-3.45l0.001-0.001 61.717-61.833v18.55c0 6.443 5.223 11.667 11.667 11.667s11.667-5.223 11.667-11.667v0-46.667c-0.020-1.606-0.361-3.127-0.963-4.509l0.029 0.075c-1.209-2.86-3.44-5.091-6.223-6.271l-0.077-0.029zM116.667 58.333c-6.443 0-11.667 5.223-11.667 11.667v0 18.55l-61.717-61.833c-2.12-2.12-5.048-3.431-8.283-3.431-6.47 0-11.714 5.245-11.714 11.714 0 3.235 1.311 6.164 3.431 8.283v0l61.833 61.717h-18.55c-6.443 0-11.667 5.223-11.667 11.667s5.223 11.667 11.667 11.667v0h46.667c1.606-0.020 3.127-0.361 4.509-0.962l-0.075 0.029c2.86-1.209 5.091-3.44 6.271-6.223l0.029-0.077c0.572-1.306 0.913-2.827 0.933-4.426v-46.674c0-6.443-5.223-11.667-11.667-11.667v0zM158.9 127.4c1.306 0.572 2.827 0.913 4.426 0.933h46.674c6.443 0 11.667-5.223 11.667-11.667s-5.223-11.667-11.667-11.667v0h-18.55l61.833-61.717c2.12-2.12 3.431-5.048 3.431-8.283 0-6.47-5.245-11.714-11.714-11.714-3.235 0-6.164 1.311-8.283 3.431v0l-61.717 61.833v-18.55c0-6.443-5.223-11.667-11.667-11.667s-11.667 5.223-11.667 11.667v0 46.667c0.020 1.606 0.361 3.127 0.963 4.509l-0.029-0.075c1.209 2.86 3.44 5.091 6.223 6.271l0.077 0.029zM191.45 175h18.55c6.443 0 11.667-5.223 11.667-11.667s-5.223-11.667-11.667-11.667v0h-46.667c-1.606 0.020-3.127 0.361-4.509 0.963l0.075-0.029c-2.86 1.209-5.091 3.44-6.271 6.223l-0.029 0.077c-0.572 1.306-0.913 2.827-0.933 4.426v46.674c0 6.443 5.223 11.667 11.667 11.667s11.667-5.223 11.667-11.667v0-18.55l61.717 61.833c2.114 2.131 5.045 3.451 8.283 3.451s6.169-1.32 8.283-3.45l0.001-0.001c2.131-2.114 3.451-5.045 3.451-8.283s-1.32-6.169-3.45-8.283l-0.001-0.001z"></path>
</svg>
