<!-- Generated by IcoMoon.io -->
<svg version="1.1" xmlns="http://www.w3.org/2000/svg" width="280" height="280" viewBox="0 0 280 280">
<title>ul-creative-commons-pd</title>
<path d="M140 23.333c-64.433 0-116.667 52.233-116.667 116.667s52.233 116.667 116.667 116.667c64.433 0 116.667-52.233 116.667-116.667v0c0-64.433-52.233-116.667-116.667-116.667v0zM140 233.333c-51.547 0-93.333-41.787-93.333-93.333v0c0-0.034 0-0.074 0-0.115 0-21.62 7.425-41.506 19.865-57.246l-0.148 0.194 27.533 27.65c-0.355 1.851-0.567 3.987-0.583 6.169v46.681c0 19.33 15.67 35 35 35v0h23.333c8.415-0.070 16.109-3.099 22.106-8.096l-0.056 0.046 23.333 23.333c-15.546 12.291-35.431 19.716-57.050 19.717v0zM116.667 163.333v-30.217l40.367 40.367c-1.532 0.935-3.382 1.497-5.361 1.517h-23.339c-6.443 0-11.667-5.223-11.667-11.667v0zM213.617 197.167l-26.95-27.65c0.085-0.926 0.134-2.003 0.134-3.092s-0.049-2.165-0.144-3.229l0.010 0.137c0-6.443-5.223-11.667-11.667-11.667v0c-1.985 0.020-3.835 0.581-5.414 1.543l0.047-0.027-46.667-46.667c1.532-0.935 3.382-1.497 5.361-1.517h23.339c6.443 0 11.667 5.223 11.667 11.667v0c0 6.443 5.223 11.667 11.667 11.667s11.667-5.223 11.667-11.667v0c0-19.33-15.67-35-35-35v0h-23.333c-8.415 0.070-16.109 3.099-22.106 8.096l0.056-0.046-23.333-23.333c15.546-12.291 35.431-19.716 57.050-19.717v0c51.547 0 93.333 41.787 93.333 93.333v0c0 0.034 0 0.074 0 0.115 0 21.62-7.425 41.506-19.865 57.246l0.148-0.194z"></path>
</svg>
