<!-- Generated by IcoMoon.io -->
<svg version="1.1" xmlns="http://www.w3.org/2000/svg" width="280" height="280" viewBox="0 0 280 280">
<title>ul-clouds</title>
<path d="M227.15 122.967c-11.229-24.542-35.565-41.288-63.815-41.3h-0.002c-5.782 0.048-11.363 0.811-16.689 2.205l0.472-0.105c-10.701-14.97-28.024-24.612-47.599-24.612-28.545 0-52.301 20.503-57.345 47.585l-0.056 0.36c-13.611 5.003-23.145 17.854-23.145 32.931 0 18.812 14.842 34.158 33.455 34.967l0.073 0.002h11.667c-0.058 0.872-0.091 1.891-0.091 2.917s0.033 2.044 0.098 3.054l-0.007-0.138c0 22.552 18.282 40.833 40.833 40.833v0h106.983c27.896-0.005 50.508-22.62 50.508-50.517 0-22.48-14.684-41.531-34.984-48.084l-0.357-0.1zM52.5 151.667c-6.443 0-11.667-5.223-11.667-11.667s5.223-11.667 11.667-11.667v0c6.443 0 11.667-5.223 11.667-11.667v0c0-19.33 15.67-35 35-35v0c10.281 0.057 19.504 4.538 25.871 11.634l0.029 0.033c-16.398 10.784-27.877 27.9-30.983 47.789l-0.051 0.394c-6.864 1.971-12.755 5.485-17.506 10.156l0.006-0.006zM211.983 198.333h-106.983c-9.665 0-17.5-7.835-17.5-17.5s7.835-17.5 17.5-17.5v0c6.443 0 11.667-5.223 11.667-11.667v0c0.12-25.682 20.967-46.455 46.666-46.455 20.307 0 37.584 12.97 44 31.078l0.101 0.326c1.378 4.054 4.813 7.063 9.030 7.806l0.070 0.010c12.713 2.44 22.188 13.474 22.188 26.72 0 14.856-11.918 26.929-26.714 27.179l-0.024 0z"></path>
</svg>
