<!-- Generated by IcoMoon.io -->
<svg version="1.1" xmlns="http://www.w3.org/2000/svg" width="280" height="280" viewBox="0 0 280 280">
<title>ul-calender</title>
<path d="M221.667 46.667h-23.333v-11.667c0-6.443-5.223-11.667-11.667-11.667s-11.667 5.223-11.667 11.667v0 11.667h-70v-11.667c0-6.443-5.223-11.667-11.667-11.667s-11.667 5.223-11.667 11.667v0 11.667h-23.333c-19.33 0-35 15.67-35 35v0 140c0 19.33 15.67 35 35 35v0h163.333c19.33 0 35-15.67 35-35v0-140c0-19.33-15.67-35-35-35v0zM233.333 221.667c0 6.443-5.223 11.667-11.667 11.667v0h-163.333c-6.443 0-11.667-5.223-11.667-11.667v0-81.667h186.667zM233.333 116.667h-186.667v-35c0-6.443 5.223-11.667 11.667-11.667v0h23.333v11.667c0 6.443 5.223 11.667 11.667 11.667s11.667-5.223 11.667-11.667v0-11.667h70v11.667c0 6.443 5.223 11.667 11.667 11.667s11.667-5.223 11.667-11.667v0-11.667h23.333c6.443 0 11.667 5.223 11.667 11.667v0z"></path>
</svg>
