<!-- Generated by IcoMoon.io -->
<svg version="1.1" xmlns="http://www.w3.org/2000/svg" width="280" height="280" viewBox="0 0 280 280">
<title>ul-crop-alt-rotate-right</title>
<path d="M186.667 46.667h-6.883l3.5-3.383c2.12-2.12 3.431-5.048 3.431-8.283 0-6.47-5.245-11.714-11.714-11.714-3.235 0-6.164 1.311-8.283 3.431l-23.333 23.333c-2.131 2.114-3.451 5.045-3.451 8.283s1.32 6.169 3.45 8.283l23.334 23.334c2.114 2.131 5.045 3.451 8.283 3.451s6.169-1.32 8.283-3.45l0.001-0.001c2.131-2.114 3.451-5.045 3.451-8.283s-1.32-6.169-3.45-8.283l-0.001-0.001-3.5-3.383h6.883c19.33 0 35 15.67 35 35v0 23.333c0 6.443 5.223 11.667 11.667 11.667s11.667-5.223 11.667-11.667v0-23.333c0-32.217-26.117-58.333-58.333-58.333v0zM186.667 210h-11.667v-81.667c0-6.443-5.223-11.667-11.667-11.667v0h-81.667v-11.667c0-6.443-5.223-11.667-11.667-11.667s-11.667 5.223-11.667 11.667v0 11.667h-11.667c-6.443 0-11.667 5.223-11.667 11.667s5.223 11.667 11.667 11.667v0h11.667v81.667c0 6.443 5.223 11.667 11.667 11.667v0h81.667v11.667c0 6.443 5.223 11.667 11.667 11.667s11.667-5.223 11.667-11.667v0-11.667h11.667c6.443 0 11.667-5.223 11.667-11.667s-5.223-11.667-11.667-11.667v0zM151.667 210h-70v-70h70z"></path>
</svg>
