<!-- Generated by IcoMoon.io -->
<svg version="1.1" xmlns="http://www.w3.org/2000/svg" width="280" height="280" viewBox="0 0 280 280">
<title>ul-comments-alt</title>
<path d="M221.667 93.333h-11.667v-35c0-19.33-15.67-35-35-35v0h-116.667c-19.33 0-35 15.67-35 35v0 140c0.025 4.821 2.97 8.949 7.156 10.705l0.077 0.029c1.224 0.591 2.662 0.937 4.181 0.937 0.089 0 0.177-0.001 0.266-0.004l-0.013 0c0.020 0 0.044 0 0.068 0 3.205 0 6.108-1.292 8.217-3.384l-0.001 0.001 32.783-32.9h17.267v16.8c0 19.33 15.67 35 35 35v0h80.733l27.65 27.767c2.108 2.091 5.011 3.384 8.216 3.384 0.024 0 0.047 0 0.071-0h-0.004c0.075 0.002 0.164 0.003 0.252 0.003 1.519 0 2.957-0.345 4.24-0.962l-0.059 0.025c4.263-1.785 7.209-5.912 7.233-10.73v-116.67c0-19.33-15.67-35-35-35v0zM93.333 128.333v22.050h-22.050c-0.020 0-0.044-0-0.068-0-3.205 0-6.108 1.292-8.217 3.384l0.001-0.001-16.333 16.45v-111.883c0-6.443 5.223-11.667 11.667-11.667v0h116.667c6.443 0 11.667 5.223 11.667 11.667v0 35h-58.333c-19.33 0-35 15.67-35 35v0zM233.333 216.883l-11.667-11.667c-2.108-2.149-5.038-3.486-8.281-3.5h-85.053c-6.443 0-11.667-5.223-11.667-11.667v0-61.717c0-6.443 5.223-11.667 11.667-11.667v0h93.333c6.443 0 11.667 5.223 11.667 11.667v0z"></path>
</svg>
