<!-- Generated by IcoMoon.io -->
<svg version="1.1" xmlns="http://www.w3.org/2000/svg" width="280" height="280" viewBox="0 0 280 280">
<title>ul-car-wash</title>
<path d="M87.5 46.667c0.020 0 0.044 0 0.068 0 3.205 0 6.108-1.292 8.217-3.384l11.666-11.666c2.12-2.12 3.431-5.048 3.431-8.283 0-6.47-5.245-11.714-11.714-11.714-3.235 0-6.164 1.311-8.283 3.431l-11.667 11.667c-2.131 2.114-3.451 5.045-3.451 8.283s1.32 6.169 3.45 8.283l0.001 0.001c2.108 2.091 5.011 3.384 8.216 3.384 0.024 0 0.047 0 0.071-0h-0.004zM134.167 46.667c0.020 0 0.044 0 0.068 0 3.205 0 6.108-1.292 8.217-3.384l11.666-11.666c2.12-2.12 3.431-5.048 3.431-8.283 0-6.47-5.245-11.714-11.714-11.714-3.235 0-6.164 1.311-8.283 3.431l-11.667 11.667c-2.131 2.114-3.451 5.045-3.451 8.283s1.32 6.169 3.45 8.283l0.001 0.001c2.108 2.091 5.011 3.384 8.216 3.384 0.024 0 0.047 0 0.071-0h-0.004zM180.833 46.667c0.020 0 0.044 0 0.068 0 3.205 0 6.108-1.292 8.217-3.384l11.666-11.666c2.12-2.12 3.431-5.048 3.431-8.283 0-6.47-5.245-11.714-11.714-11.714-3.235 0-6.164 1.311-8.283 3.431l-11.667 11.667c-2.131 2.114-3.451 5.045-3.451 8.283s1.32 6.169 3.45 8.283l0.001 0.001c2.108 2.091 5.011 3.384 8.216 3.384 0.024 0 0.047 0 0.071-0h-0.004zM209.067 182.233c-0.279-0.801-0.634-1.495-1.070-2.13l0.020 0.030-1.4-1.75-1.75-1.4c-0.605-0.416-1.299-0.771-2.038-1.031l-0.062-0.019c-0.643-0.336-1.39-0.582-2.179-0.696l-0.037-0.004c-0.689-0.144-1.48-0.227-2.291-0.227-3.202 0-6.102 1.29-8.21 3.378l0.001-0.001c-0.477 0.526-0.937 1.096-1.362 1.693l-0.038 0.057c-0.416 0.605-0.771 1.299-1.031 2.038l-0.019 0.062c-0.316 0.607-0.56 1.312-0.693 2.055l-0.007 0.045c-0.027 0.349-0.043 0.756-0.043 1.167s0.016 0.818 0.046 1.22l-0.003-0.054c0.014 3.187 1.303 6.070 3.384 8.167l-0.001-0.001c1.055 1.102 2.34 1.974 3.778 2.542l0.072 0.025c1.235 0.543 2.671 0.881 4.18 0.933l0.020 0.001c6.443 0 11.667-5.223 11.667-11.667v0c0.027-0.349 0.043-0.756 0.043-1.167s-0.016-0.818-0.046-1.22l0.003 0.054c-0.219-0.798-0.538-1.497-0.951-2.129l0.018 0.029zM230.533 129.617l-15.867-47.367c-4.95-13.71-17.85-23.334-32.998-23.334-0.048 0-0.095 0-0.142 0h-83.059c-0.040-0-0.087-0-0.135-0-15.148 0-28.048 9.623-32.921 23.090l-0.077 0.244-15.867 47.367c-15.111 4.053-26.066 17.596-26.133 33.709v46.674c0.044 15.109 9.654 27.961 23.090 32.823l0.244 0.077v13.767c0 6.443 5.223 11.667 11.667 11.667s11.667-5.223 11.667-11.667v0-11.667h140v11.667c0 6.443 5.223 11.667 11.667 11.667s11.667-5.223 11.667-11.667v0-13.767c13.68-4.939 23.289-17.791 23.333-32.895v-46.672c-0.067-16.12-11.022-29.663-25.889-33.661l-0.245-0.056zM87.383 89.6c1.605-4.652 5.946-7.933 11.053-7.933 0.011 0 0.021 0 0.032 0h83.065c0.182-0.010 0.394-0.016 0.608-0.016 5.113 0 9.458 3.289 11.034 7.867l0.025 0.082 12.25 38.733h-130.9zM233.333 210c0 6.443-5.223 11.667-11.667 11.667v0h-163.333c-6.443 0-11.667-5.223-11.667-11.667v0-46.667c0-6.443 5.223-11.667 11.667-11.667v0h163.333c6.443 0 11.667 5.223 11.667 11.667v0zM151.667 175h-23.333c-6.443 0-11.667 5.223-11.667 11.667s5.223 11.667 11.667 11.667v0h23.333c6.443 0 11.667-5.223 11.667-11.667s-5.223-11.667-11.667-11.667v0zM92.4 182.233c-0.279-0.801-0.634-1.495-1.070-2.13l0.020 0.030-1.4-1.75c-2.105-2.078-5-3.362-8.194-3.362-1.633 0-3.187 0.336-4.598 0.941l0.076-0.029c-1.494 0.588-2.773 1.418-3.854 2.454l0.004-0.004c-0.477 0.526-0.937 1.096-1.362 1.693l-0.038 0.057c-0.416 0.605-0.771 1.299-1.031 2.038l-0.019 0.062c-0.395 0.603-0.714 1.302-0.921 2.048l-0.012 0.053c-0.027 0.349-0.043 0.756-0.043 1.167s0.016 0.818 0.046 1.22l-0.003-0.054c0.028 6.422 5.24 11.618 11.666 11.618 3.239 0 6.169-1.32 8.283-3.45l0.001-0.001c2.080-2.096 3.37-4.98 3.383-8.164v-0.003c0.027-0.349 0.043-0.756 0.043-1.167s-0.016-0.818-0.046-1.22l0.003 0.054c-0.219-0.798-0.538-1.497-0.951-2.129l0.017 0.029z"></path>
</svg>
