<!-- Generated by IcoMoon.io -->
<svg version="1.1" xmlns="http://www.w3.org/2000/svg" width="280" height="280" viewBox="0 0 280 280">
<title>ul-corner-down-right-alt</title>
<path d="M244.067 147.233c-0.588-1.494-1.418-2.773-2.454-3.854l0.004 0.004-35-35c-2.12-2.12-5.048-3.431-8.283-3.431-6.47 0-11.714 5.245-11.714 11.714 0 3.235 1.311 6.164 3.431 8.283v0l15.167 15.050h-111.883c-6.443 0-11.667-5.223-11.667-11.667v0-46.667c0-6.443-5.223-11.667-11.667-11.667s-11.667 5.223-11.667 11.667v0 46.667c0 19.33 15.67 35 35 35v0h111.883l-15.167 15.050c-2.131 2.114-3.451 5.045-3.451 8.283s1.32 6.169 3.45 8.283l0.001 0.001c2.114 2.131 5.045 3.451 8.283 3.451s6.169-1.32 8.283-3.45l35.001-35.001c1.032-1.077 1.862-2.356 2.422-3.771l0.028-0.079c0.553-1.311 0.875-2.834 0.875-4.433s-0.322-3.123-0.904-4.51l0.029 0.077z"></path>
</svg>
