<!-- Generated by IcoMoon.io -->
<svg version="1.1" xmlns="http://www.w3.org/2000/svg" width="280" height="280" viewBox="0 0 280 280">
<title>ul-cloud-moon</title>
<path d="M253.167 105.817c-2.104-2.067-4.991-3.344-8.176-3.344-0.949 0-1.871 0.113-2.754 0.327l0.080-0.016c-2.299 0.555-4.95 0.893-7.672 0.933l-0.028 0c-19.33 0-35-15.67-35-35v0c0.040-2.75 0.378-5.401 0.983-7.948l-0.050 0.248c0.197-0.803 0.311-1.726 0.311-2.674 0-3.185-1.276-6.072-3.346-8.177l0.002 0.002c-2.137-2.297-5.176-3.729-8.55-3.729-0.814 0-1.608 0.083-2.375 0.242l0.075-0.013c-23.673 5.359-41.593 24.776-44.654 48.832l-0.030 0.285c-5.622-1.558-12.077-2.454-18.742-2.454-0.261 0-0.521 0.001-0.781 0.004l0.040-0c-0.012 0-0.026 0-0.040 0-35.078 0-64.131 25.803-69.212 59.464l-0.048 0.386c-17.336 4.977-29.808 20.69-29.808 39.317 0 22.531 18.248 40.8 40.771 40.833h106.987c27.9 0 50.517-22.617 50.517-50.517v0c0.001-0.082 0.001-0.179 0.001-0.276 0-8.435-2.116-16.376-5.847-23.32l0.129 0.263c20.38-5.823 35.912-22.054 40.641-42.428l0.076-0.389c0.145-0.692 0.229-1.486 0.229-2.3 0-3.374-1.432-6.413-3.722-8.544l-0.007-0.007zM171.5 210h-107.333c-9.665 0-17.5-7.835-17.5-17.5s7.835-17.5 17.5-17.5v0c6.443 0 11.667-5.223 11.667-11.667v0c0.091-25.704 20.949-46.507 46.666-46.507 9.457 0 18.258 2.813 25.61 7.649l-0.176-0.109c8.427 5.539 14.826 13.559 18.216 23.012l0.1 0.321c1.378 4.054 4.813 7.063 9.030 7.806l0.070 0.010c14.159 1.124 25.222 12.891 25.222 27.242 0 15.090-12.233 27.322-27.322 27.322-0.739 0-1.471-0.029-2.196-0.087l0.096 0.006zM199.967 138.717c-0.734 0.063-1.588 0.099-2.45 0.099s-1.716-0.036-2.56-0.106l0.11 0.007c-2.36-1.298-5.136-2.521-8.022-3.505l-0.378-0.112c-4.989-10.7-12.191-19.622-21.069-26.478l-0.164-0.122c0-1.4 0-2.917 0-4.317 0-0.001 0-0.001 0-0.002 0-10.623 4.732-20.14 12.204-26.559l0.046-0.039c3.815 25.573 23.777 45.535 49.030 49.311l0.32 0.039c-6.443 7.255-15.795 11.804-26.21 11.804-0.424 0-0.847-0.008-1.268-0.022l0.061 0.002z"></path>
</svg>
