<!-- Generated by IcoMoon.io -->
<svg version="1.1" xmlns="http://www.w3.org/2000/svg" width="280" height="280" viewBox="0 0 280 280">
<title>ul-camera</title>
<path d="M221.667 75.833h-14.933l-3.733-11.667c-4.95-13.71-17.85-23.334-32.998-23.334-0.048 0-0.095 0-0.142 0h-59.726c-15.338 0.030-28.359 9.921-33.060 23.67l-0.073 0.246-3.733 11.667h-14.933c-19.33 0-35 15.67-35 35v0 93.333c0 19.33 15.67 35 35 35v0h163.333c19.33 0 35-15.67 35-35v0-93.333c0.003-0.174 0.005-0.378 0.005-0.583 0-19.33-15.67-35-35-35-0.002 0-0.003 0-0.005 0h0zM233.333 204.167c0 6.443-5.223 11.667-11.667 11.667v0h-163.333c-6.443 0-11.667-5.223-11.667-11.667v0-93.333c0-6.443 5.223-11.667 11.667-11.667v0h23.333c0.182 0.010 0.394 0.016 0.608 0.016 5.113 0 9.458-3.289 11.034-7.867l0.025-0.082 6.3-19.133c1.605-4.652 5.946-7.933 11.053-7.933 0.011 0 0.021 0 0.032 0h59.732c0.009 0 0.019 0 0.030 0 5.107 0 9.448 3.282 11.029 7.851l0.025 0.082 6.3 19.133c1.541 4.483 5.616 7.692 10.473 7.932l0.027 0.001h23.333c6.443 0 11.667 5.223 11.667 11.667v0zM140 99.167c-25.773 0-46.667 20.893-46.667 46.667s20.893 46.667 46.667 46.667c25.773 0 46.667-20.893 46.667-46.667v0c0-25.773-20.893-46.667-46.667-46.667v0zM140 169.167c-12.887 0-23.333-10.447-23.333-23.333s10.447-23.333 23.333-23.333c12.887 0 23.333 10.447 23.333 23.333v0c0 12.887-10.447 23.333-23.333 23.333v0z"></path>
</svg>
