<!-- Generated by IcoMoon.io -->
<svg version="1.1" xmlns="http://www.w3.org/2000/svg" width="280" height="280" viewBox="0 0 280 280">
<title>ul-cloud-exclamation</title>
<path d="M148.283 219.217c-1.094-0.997-2.367-1.822-3.763-2.417l-0.088-0.033c-1.335-0.577-2.89-0.912-4.522-0.912-3.194 0-6.089 1.284-8.195 3.363l0.001-0.001c-2.057 2.154-3.337 5.065-3.383 8.274v0.009c0 0.020-0 0.044-0 0.068 0 3.205 1.292 6.108 3.384 8.217l-0.001-0.001c1.094 0.997 2.367 1.822 3.762 2.417l0.088 0.033c1.284 0.529 2.774 0.835 4.335 0.835 6.443 0 11.667-5.223 11.667-11.667 0-1.562-0.307-3.052-0.864-4.413l0.028 0.078c-0.588-1.494-1.418-2.773-2.454-3.854l0.004 0.004zM140 145.833c-6.443 0-11.667 5.223-11.667 11.667v0 35c0 6.443 5.223 11.667 11.667 11.667s11.667-5.223 11.667-11.667v0-35c0-6.443-5.223-11.667-11.667-11.667v0zM214.9 89.95c-12.914-29.113-41.564-49.051-74.871-49.051-41.419 0-75.637 30.835-80.95 70.801l-0.045 0.417c-20.69 5.079-35.798 23.467-35.798 45.384 0 25.773 20.893 46.667 46.667 46.667 0.034 0 0.069 0 0.104 0h23.328c6.443 0 11.667-5.223 11.667-11.667s-5.223-11.667-11.667-11.667v0h-23.333c-12.887 0-23.333-10.447-23.333-23.333s10.447-23.333 23.333-23.333v0c6.443 0 11.667-5.223 11.667-11.667v0c0.072-32.162 26.161-58.207 58.333-58.207 25.446 0 47.086 16.293 55.059 39.015l0.125 0.409c1.412 4.006 4.838 6.967 9.031 7.69l0.069 0.010c16.408 3.109 28.649 17.334 28.649 34.419 0 19.189-15.442 34.771-34.578 34.998l-0.021 0h-11.667c-6.443 0-11.667 5.223-11.667 11.667s5.223 11.667 11.667 11.667v0h11.667c32.147-0.091 58.172-26.173 58.172-58.333 0-26.252-17.341-48.453-41.193-55.774l-0.413-0.109z"></path>
</svg>
