<!-- Generated by IcoMoon.io -->
<svg version="1.1" xmlns="http://www.w3.org/2000/svg" width="280" height="280" viewBox="0 0 280 280">
<title>ul-desktop-alt</title>
<path d="M221.667 23.333h-163.333c-19.33 0-35 15.67-35 35v0 116.667c0 19.33 15.67 35 35 35v0h35v23.333h-35c-6.443 0-11.667 5.223-11.667 11.667s5.223 11.667 11.667 11.667v0h163.333c6.443 0 11.667-5.223 11.667-11.667s-5.223-11.667-11.667-11.667v0h-35v-23.333h35c19.33 0 35-15.67 35-35v0-116.667c0-19.33-15.67-35-35-35v0zM163.333 233.333h-46.667v-23.333h46.667zM233.333 175c0 6.443-5.223 11.667-11.667 11.667v0h-163.333c-6.443 0-11.667-5.223-11.667-11.667v0-11.667h186.667zM233.333 140h-186.667v-81.667c0-6.443 5.223-11.667 11.667-11.667v0h163.333c6.443 0 11.667 5.223 11.667 11.667v0z"></path>
</svg>
