<!-- Generated by IcoMoon.io -->
<svg version="1.1" xmlns="http://www.w3.org/2000/svg" width="280" height="280" viewBox="0 0 280 280">
<title>ul-envelope-bookmark</title>
<path d="M245 178.033c-6.443 0-11.667 5.223-11.667 11.667v0 35c0 6.443-5.223 11.667-11.667 11.667v0h-163.333c-6.443 0-11.667-5.223-11.667-11.667v0-111.883l68.6 68.717c6.289 6.24 14.939 10.108 24.492 10.15h0.008c0.018 0 0.038 0 0.059 0 6.091 0 11.818-1.556 16.806-4.292l-0.182 0.091c3.664-2.016 6.105-5.851 6.105-10.256 0-2.058-0.533-3.992-1.468-5.671l0.030 0.059c-2.016-3.664-5.851-6.105-10.256-6.105-2.058 0-3.992 0.533-5.671 1.468l0.059-0.030c-1.546 0.809-3.378 1.284-5.32 1.284-3.146 0-6.002-1.246-8.1-3.27l0.004 0.003-68.717-68.6h76.883c6.443 0 11.667-5.223 11.667-11.667s-5.223-11.667-11.667-11.667v0h-81.667c-19.33 0-35 15.67-35 35v0 116.667c0 19.33 15.67 35 35 35v0h163.333c19.33 0 35-15.67 35-35v0-35c0-6.443-5.223-11.667-11.667-11.667v0zM245 38.033h-58.333c-6.443 0-11.667 5.223-11.667 11.667v0 93.333c0.011 6.435 5.23 11.648 11.667 11.648 2.488 0 4.794-0.779 6.687-2.106l-0.037 0.025 22.517-15.050 22.283 14.933c1.922 1.353 4.303 2.177 6.874 2.216h0.010c1.736-0.008 3.379-0.394 4.855-1.080l-0.072 0.030c4.084-1.869 6.873-5.916 6.883-10.615v-93.335c0-6.443-5.223-11.667-11.667-11.667v0zM233.333 121.1l-10.967-7.35c-1.832-1.253-4.095-2.001-6.533-2.001s-4.701 0.748-6.573 2.027l0.040-0.026-10.967 7.35v-59.733h35z"></path>
</svg>
