<!-- Generated by IcoMoon.io -->
<svg version="1.1" xmlns="http://www.w3.org/2000/svg" width="280" height="280" viewBox="0 0 280 280">
<title>ul-exclude</title>
<path d="M111.3 87.967h-11.667c-6.443 0-11.667 5.223-11.667 11.667v0 11.667c0 6.443 5.223 11.667 11.667 11.667s11.667-5.223 11.667-11.667v0c6.443 0 11.667-5.223 11.667-11.667s-5.223-11.667-11.667-11.667v0zM180.367 157.033c-6.443 0-11.667 5.223-11.667 11.667v0c-6.443 0-11.667 5.223-11.667 11.667s5.223 11.667 11.667 11.667v0h11.667c6.443 0 11.667-5.223 11.667-11.667v0-11.667c0-6.443-5.223-11.667-11.667-11.667v0zM245 87.967h-52.967v-52.967c0-6.443-5.223-11.667-11.667-11.667v0h-145.367c-6.443 0-11.667 5.223-11.667 11.667v0 145.367c0 6.443 5.223 11.667 11.667 11.667v0h52.967v52.967c0 6.443 5.223 11.667 11.667 11.667v0h145.367c6.443 0 11.667-5.223 11.667-11.667v0-145.367c0-6.443-5.223-11.667-11.667-11.667v0zM233.333 233.333h-122.033v-41.3c6.443 0 11.667-5.223 11.667-11.667s-5.223-11.667-11.667-11.667v0c0-6.443-5.223-11.667-11.667-11.667s-11.667 5.223-11.667 11.667v0h-41.3v-122.033h122.033v41.3c-6.443 0-11.667 5.223-11.667 11.667s5.223 11.667 11.667 11.667v0c0 6.443 5.223 11.667 11.667 11.667s11.667-5.223 11.667-11.667v0h41.3z"></path>
</svg>
