<!-- Generated by IcoMoon.io -->
<svg version="1.1" xmlns="http://www.w3.org/2000/svg" width="280" height="280" viewBox="0 0 280 280">
<title>ul-exchange</title>
<path d="M210 116.667c0-6.443-5.223-11.667-11.667-11.667v0h-135.217l26.833-26.717c2.12-2.12 3.431-5.048 3.431-8.283 0-6.47-5.245-11.714-11.714-11.714-3.235 0-6.164 1.311-8.283 3.431l-46.667 46.667c-2.078 2.105-3.362 5-3.362 8.194 0 1.633 0.336 3.187 0.941 4.598l-0.029-0.076c1.785 4.263 5.912 7.209 10.73 7.233h163.337c6.443 0 11.667-5.223 11.667-11.667v0zM255.733 158.9c-1.785-4.263-5.912-7.209-10.73-7.233h-163.337c-6.443 0-11.667 5.223-11.667 11.667s5.223 11.667 11.667 11.667v0h135.217l-26.833 26.717c-2.131 2.114-3.451 5.045-3.451 8.283s1.32 6.169 3.45 8.283l0.001 0.001c2.114 2.131 5.045 3.451 8.283 3.451s6.169-1.32 8.283-3.45l46.668-46.668c2.078-2.105 3.362-5 3.362-8.194 0-1.633-0.336-3.187-0.941-4.598l0.029 0.076z"></path>
</svg>
