<!-- Generated by IcoMoon.io -->
<svg version="1.1" xmlns="http://www.w3.org/2000/svg" width="280" height="280" viewBox="0 0 280 280">
<title>ul-expand-from-corner</title>
<path d="M128.333 140h-93.333c-6.443 0-11.667 5.223-11.667 11.667v0 93.333c0 6.443 5.223 11.667 11.667 11.667v0h93.333c6.443 0 11.667-5.223 11.667-11.667v0-93.333c0-6.443-5.223-11.667-11.667-11.667v0zM116.667 233.333h-70v-70h70zM255.733 30.567c-1.209-2.86-3.44-5.091-6.223-6.271l-0.077-0.029c-1.306-0.572-2.827-0.913-4.426-0.933h-70.007c-6.443 0-11.667 5.223-11.667 11.667s5.223 11.667 11.667 11.667v0h41.883l-61.833 61.717c-2.131 2.114-3.451 5.045-3.451 8.283s1.32 6.169 3.45 8.283l0.001 0.001c2.114 2.131 5.045 3.451 8.283 3.451s6.169-1.32 8.283-3.45l0.001-0.001 61.717-61.833v41.883c0 6.443 5.223 11.667 11.667 11.667s11.667-5.223 11.667-11.667v0-70c-0.020-1.606-0.361-3.127-0.962-4.509l0.029 0.075z"></path>
</svg>
