<!-- Generated by IcoMoon.io -->
<svg version="1.1" xmlns="http://www.w3.org/2000/svg" width="280" height="280" viewBox="0 0 280 280">
<title>ul-envelope-search</title>
<path d="M259.117 120.050l-20.183-20.067c4.694-7.5 7.506-16.597 7.583-26.346v-0.021c-0.066-27.721-22.554-50.166-50.283-50.166-27.771 0-50.283 22.513-50.283 50.283 0 27.73 22.446 50.217 50.16 50.283h0.006c9.743-0.001 18.848-2.735 26.589-7.477l-0.223 0.127 20.067 20.183c2.114 2.131 5.045 3.451 8.283 3.451s6.169-1.32 8.283-3.45l0.001-0.001c2.203-2.125 3.57-5.103 3.57-8.4s-1.368-6.275-3.567-8.397l-0.004-0.003zM215.25 93.333c-4.952 4.725-11.674 7.633-19.075 7.633s-14.123-2.908-19.086-7.644l0.011 0.010c-4.9-4.863-7.934-11.601-7.934-19.048 0-0.030 0-0.060 0-0.090v0.005c-0.002-0.139-0.004-0.303-0.004-0.467 0-14.909 12.054-27.003 26.948-27.066h0.006c0.025 0 0.056 0 0.085 0 7.447 0 14.185 3.033 19.046 7.932l0.002 0.002c4.899 4.827 7.934 11.534 7.934 18.95 0 0.023 0 0.046 0 0.070v-0.004c0.005 0.197 0.008 0.428 0.008 0.661 0 7.451-3.037 14.192-7.94 19.054l-0.002 0.002zM239.167 163.333c-6.443 0-11.667 5.223-11.667 11.667v0 46.667c0 6.443-5.223 11.667-11.667 11.667v0h-163.333c-6.443 0-11.667-5.223-11.667-11.667v0-111.883l68.6 68.717c6.332 6.325 15.076 10.236 24.733 10.236s18.401-3.911 24.734-10.236l-0 0 16.1-16.567c2.12-2.12 3.431-5.048 3.431-8.283 0-6.47-5.245-11.714-11.714-11.714-3.235 0-6.164 1.311-8.283 3.431v0l-16.1 16.567c-2.103 2.062-4.986 3.335-8.167 3.335s-6.064-1.273-8.169-3.337l0.002 0.002-68.717-68.6h53.55c6.443 0 11.667-5.223 11.667-11.667s-5.223-11.667-11.667-11.667v0h-58.333c-19.33 0-35 15.67-35 35v0 116.667c0 19.33 15.67 35 35 35v0h163.333c19.33 0 35-15.67 35-35v0-46.667c0-6.443-5.223-11.667-11.667-11.667v0z"></path>
</svg>
