<!-- Generated by IcoMoon.io -->
<svg version="1.1" xmlns="http://www.w3.org/2000/svg" width="280" height="280" viewBox="0 0 280 280">
<title>ul-english-to-chinese</title>
<path d="M163.59 81.667h11.667c6.44 0.009 11.658 5.227 11.667 11.666v11.668c0 6.443 5.223 11.667 11.667 11.667s11.667-5.223 11.667-11.667v0-11.667c-0.022-19.321-15.679-34.978-34.998-35h-11.669c-6.443 0-11.667 5.223-11.667 11.667s5.223 11.667 11.667 11.667v0zM116.923 186.667h-11.667c-6.44-0.009-11.658-5.227-11.667-11.666v-11.668c0-6.443-5.223-11.667-11.667-11.667s-11.667 5.223-11.667 11.667v0 11.667c0.022 19.321 15.679 34.978 34.998 35h11.669c6.443 0 11.667-5.223 11.667-11.667s-5.223-11.667-11.667-11.667v0zM245.257 175c6.443 0 11.667-5.223 11.667-11.667s-5.223-11.667-11.667-11.667v0h-35v-5.833c0-6.443-5.223-11.667-11.667-11.667s-11.667 5.223-11.667 11.667v0 5.833h-35c-6.443 0-11.667 5.223-11.667 11.667s5.223 11.667 11.667 11.667v0h60.483c-2.837 11.301-7.779 21.175-14.427 29.648l0.129-0.17c-2.598-3.336-5.033-7.089-7.136-11.045l-0.204-0.42c-1.976-3.796-5.88-6.343-10.379-6.343-6.442 0-11.663 5.222-11.663 11.663 0 1.942 0.475 3.774 1.315 5.385l-0.031-0.065c3.403 6.516 7.118 12.127 11.336 17.312l-0.146-0.186c-8.022 5.884-17.502 10.326-27.769 12.719l-0.522 0.103c-5.275 1.194-9.154 5.841-9.154 11.394 0 6.444 5.224 11.668 11.668 11.668 0.873 0 1.724-0.096 2.543-0.278l-0.078 0.014c15.409-3.479 28.915-10.059 40.41-19.084l-0.218 0.165c11.364 8.862 24.963 15.441 39.786 18.784l0.68 0.129c0.755 0.174 1.622 0.274 2.512 0.274 6.444 0 11.667-5.223 11.667-11.667 0-5.553-3.88-10.2-9.076-11.378l-0.078-0.015c-10.869-2.465-20.433-6.873-28.771-12.877l0.233 0.159c10.393-12.713 17.834-28.237 21.045-45.256l0.1-0.634zM105.604 131.165c1.323 5.099 5.885 8.802 11.31 8.802 6.444 0 11.668-5.224 11.668-11.668 0-0.993-0.124-1.957-0.357-2.877l0.017 0.081-20.502-82.014c-2.991-11.668-13.413-20.155-25.817-20.155s-22.826 8.486-25.777 19.97l-0.040 0.185-20.502 82.014c-0.216 0.84-0.34 1.804-0.34 2.797 0 6.444 5.224 11.668 11.668 11.668 5.426 0 9.987-3.704 11.293-8.721l0.018-0.081 6.54-26.165h34.281zM70.616 81.667l8.128-32.516c0.5-1.294 1.734-2.196 3.179-2.196s2.679 0.902 3.171 2.173l0.008 0.023 8.128 32.516z"></path>
</svg>
