<!-- Generated by IcoMoon.io -->
<svg version="1.1" xmlns="http://www.w3.org/2000/svg" width="280" height="280" viewBox="0 0 280 280">
<title>ul-forecastcloud-moon-tear</title>
<path d="M253.167 88.317c-2.104-2.067-4.991-3.344-8.176-3.344-0.949 0-1.871 0.113-2.754 0.327l0.080-0.016c-2.296 0.549-4.946 0.886-7.667 0.933l-0.033 0.001c-19.33 0-35-15.67-35-35v0c0.037-2.708 0.375-5.318 0.982-7.822l-0.049 0.239c0.206-0.82 0.324-1.761 0.324-2.73 0-6.443-5.223-11.667-11.667-11.667-0.9 0-1.777 0.102-2.619 0.295l0.078-0.015c-23.673 5.359-41.593 24.776-44.654 48.832l-0.030 0.285c-5.826-1.729-12.525-2.749-19.455-2.8l-0.028-0c-0.012 0-0.026 0-0.040 0-35.078 0-64.131 25.803-69.212 59.464l-0.048 0.386c-17.373 4.952-29.88 20.684-29.88 39.337 0 16.649 9.964 30.97 24.253 37.327l0.26 0.103c1.38 0.563 2.979 0.903 4.654 0.933l0.012 0c0.028 0 0.062 0 0.095 0 6.443 0 11.667-5.223 11.667-11.667 0-4.792-2.889-8.909-7.020-10.705l-0.075-0.029c-6.225-2.701-10.5-8.794-10.5-15.886 0-0.034 0-0.069 0-0.103v0.005c0-9.665 7.835-17.5 17.5-17.5v0c6.443 0 11.667-5.223 11.667-11.667v0c0-25.773 20.893-46.667 46.667-46.667v0c0.011 0 0.024 0 0.036 0 9.467 0 18.262 2.877 25.559 7.803l-0.162-0.103c8.392 5.576 14.778 13.583 18.213 23.009l0.103 0.325c1.378 4.054 4.813 7.063 9.030 7.806l0.070 0.010c13.642 1.52 24.153 12.987 24.153 26.909 0 9.68-5.082 18.173-12.723 22.958l-0.113 0.066c-3.209 2.124-5.297 5.718-5.297 9.8 0 6.469 5.245 11.714 11.714 11.714 2.388 0 4.608-0.714 6.46-1.941l-0.043 0.027c13.453-9.188 22.169-24.452 22.169-41.751 0-0.17-0.001-0.339-0.002-0.508l0 0.026c0.001-0.082 0.001-0.179 0.001-0.276 0-8.435-2.116-16.376-5.847-23.32l0.129 0.263c20.38-5.823 35.912-22.054 40.641-42.428l0.076-0.389c0.145-0.692 0.229-1.486 0.229-2.3 0-3.374-1.432-6.413-3.722-8.544l-0.007-0.007zM199.617 121.217c-0.734 0.063-1.588 0.099-2.45 0.099s-1.716-0.036-2.56-0.106l0.11 0.007c-2.31-1.606-4.95-3.123-7.719-4.412l-0.331-0.138c-4.964-10.714-12.171-19.641-21.068-26.478l-0.165-0.122c0-1.4 0-2.917 0-4.317 0-0.001 0-0.001 0-0.002 0-10.623 4.732-20.14 12.204-26.559l0.046-0.039c3.815 25.573 23.777 45.535 49.030 49.311l0.32 0.039c-6.467 7.793-16.154 12.719-26.992 12.719-0.149 0-0.298-0.001-0.447-0.003l0.023 0zM129.617 167.183c-1.832-1.253-4.095-2.001-6.533-2.001s-4.701 0.748-6.573 2.027l0.040-0.026c-1.75 0.933-29.050 19.483-29.050 48.65 0 19.33 15.67 35 35 35s35-15.67 35-35v0c0-29.167-27.417-47.833-28.467-48.65zM122.5 227.5c-6.443 0-11.667-5.223-11.667-11.667v0c0.786-9.326 5.12-17.511 11.631-23.302l0.036-0.031c6.546 5.822 10.881 14.007 11.658 23.205l0.009 0.129c0 6.443-5.223 11.667-11.667 11.667v0z"></path>
</svg>
