<!-- Generated by IcoMoon.io -->
<svg version="1.1" xmlns="http://www.w3.org/2000/svg" width="280" height="280" viewBox="0 0 280 280">
<title>ul-font</title>
<path d="M245 233.333h-11.667v-198.333c0-6.443-5.223-11.667-11.667-11.667v0h-40.833c-4.268 0.027-7.99 2.341-10.003 5.778l-0.030 0.055-119.117 204.167h-16.683c-6.443 0-11.667 5.223-11.667 11.667s5.223 11.667 11.667 11.667v0h46.667c6.443 0 11.667-5.223 11.667-11.667s-5.223-11.667-11.667-11.667v0h-3.033l40.833-70h90.533v70h-11.667c-6.443 0-11.667 5.223-11.667 11.667s5.223 11.667 11.667 11.667v0h46.667c6.443 0 11.667-5.223 11.667-11.667s-5.223-11.667-11.667-11.667v0zM210 140h-76.883l54.367-93.333h22.517z"></path>
</svg>
