<!-- Generated by IcoMoon.io -->
<svg version="1.1" xmlns="http://www.w3.org/2000/svg" width="280" height="280" viewBox="0 0 280 280">
<title>ul-file-heart</title>
<path d="M233.333 104.3c-0.136-1.174-0.382-2.24-0.732-3.257l0.032 0.107v-1.050c-0.594-1.255-1.336-2.333-2.222-3.273l0.006 0.006-70-70c-0.934-0.88-2.011-1.622-3.191-2.184l-0.075-0.032h-1.167c-1.044-0.571-2.255-1.015-3.535-1.27l-0.082-0.014h-70.7c-19.33 0-35 15.67-35 35v0 163.333c0 19.33 15.67 35 35 35v0h116.667c19.33 0 35-15.67 35-35v0-116.667s0 0 0-0.7zM163.333 63.117l30.217 30.217h-18.55c-6.443 0-11.667-5.223-11.667-11.667v0zM210 221.667c0 6.443-5.223 11.667-11.667 11.667v0h-116.667c-6.443 0-11.667-5.223-11.667-11.667v0-163.333c0-6.443 5.223-11.667 11.667-11.667v0h58.333v35c0 19.33 15.67 35 35 35v0h35zM140 132.3c-4.706-2.612-10.321-4.149-16.294-4.149-18.814 0-34.067 15.252-34.067 34.067 0 9.588 3.961 18.251 10.336 24.441l0.008 0.008 31.733 31.733c2.114 2.131 5.045 3.451 8.283 3.451s6.169-1.32 8.283-3.45l31.734-31.734c6.383-6.199 10.344-14.861 10.344-24.449 0-18.814-15.252-34.067-34.067-34.067-5.974 0-11.588 1.538-16.469 4.238l0.175-0.089zM163.333 154.817c1.939 1.942 3.137 4.622 3.137 7.583s-1.199 5.642-3.138 7.584l-23.333 23.333-23.333-23.333c-1.939-1.942-3.137-4.622-3.137-7.583s1.199-5.642 3.138-7.584l-0 0c1.942-1.939 4.622-3.137 7.583-3.137s5.642 1.199 7.584 3.138l-0-0c2.114 2.131 5.045 3.451 8.283 3.451s6.169-1.32 8.283-3.45l0.001-0.001c1.929-1.87 4.563-3.023 7.467-3.023s5.537 1.153 7.469 3.025l-0.003-0.003z"></path>
</svg>
