<!-- Generated by IcoMoon.io -->
<svg version="1.1" xmlns="http://www.w3.org/2000/svg" width="280" height="280" viewBox="0 0 280 280">
<title>ul-file-check-alt</title>
<path d="M134.167 233.333h-70c-6.443 0-11.667-5.223-11.667-11.667v0-163.333c0-6.443 5.223-11.667 11.667-11.667v0h58.333v35c0 19.33 15.67 35 35 35v0h35v58.333c0 6.443 5.223 11.667 11.667 11.667s11.667-5.223 11.667-11.667v0-70s0 0 0-0.7c-0.136-1.174-0.382-2.24-0.732-3.257l0.032 0.107v-1.050c-0.594-1.255-1.336-2.333-2.222-3.273l0.006 0.006-70-70c-0.934-0.88-2.011-1.622-3.191-2.184l-0.075-0.032c-0.175-0.032-0.377-0.051-0.583-0.051s-0.408 0.018-0.604 0.054l0.021-0.003c-1.044-0.571-2.255-1.015-3.535-1.27l-0.082-0.014h-70.7c-19.33 0-35 15.67-35 35v0 163.333c0 19.33 15.67 35 35 35v0h70c6.443 0 11.667-5.223 11.667-11.667s-5.223-11.667-11.667-11.667v0zM145.833 63.117l30.217 30.217h-18.55c-6.443 0-11.667-5.223-11.667-11.667v0zM87.5 163.333h70c6.443 0 11.667-5.223 11.667-11.667s-5.223-11.667-11.667-11.667v0h-70c-6.443 0-11.667 5.223-11.667 11.667s5.223 11.667 11.667 11.667v0zM134.167 186.667h-46.667c-6.443 0-11.667 5.223-11.667 11.667s5.223 11.667 11.667 11.667v0h46.667c6.443 0 11.667-5.223 11.667-11.667s-5.223-11.667-11.667-11.667v0zM87.5 116.667h11.667c6.443 0 11.667-5.223 11.667-11.667s-5.223-11.667-11.667-11.667v0h-11.667c-6.443 0-11.667 5.223-11.667 11.667s5.223 11.667 11.667 11.667v0zM247.45 190.050c-2.114-2.131-5.045-3.451-8.283-3.451s-6.169 1.32-8.283 3.45l-0.001 0.001-38.383 38.5-15.050-15.167c-2.12-2.12-5.048-3.431-8.283-3.431-6.47 0-11.714 5.245-11.714 11.714 0 3.235 1.311 6.164 3.431 8.283l23.333 23.333c2.114 2.131 5.045 3.451 8.283 3.451s6.169-1.32 8.283-3.45l46.668-46.668c2.131-2.114 3.451-5.045 3.451-8.283s-1.32-6.169-3.45-8.283l-0.001-0.001z"></path>
</svg>
