<!-- Generated by IcoMoon.io -->
<svg version="1.1" xmlns="http://www.w3.org/2000/svg" width="280" height="280" viewBox="0 0 280 280">
<title>ul-file-lanscape-slash</title>
<path d="M256.667 127.633c-0.136-1.174-0.382-2.24-0.732-3.257l0.032 0.107v-1.050c-0.594-1.255-1.336-2.333-2.222-3.273l0.006 0.006-70-70c-0.934-0.88-2.011-1.622-3.191-2.184l-0.075-0.032h-1.050c-1.109-0.648-2.411-1.101-3.799-1.278l-0.051-0.005h-51.217c-6.443 0-11.667 5.223-11.667 11.667s5.223 11.667 11.667 11.667v0h38.967v35c0 19.33 15.67 35 35 35v0h35v38.967c0 6.443 5.223 11.667 11.667 11.667s11.667-5.223 11.667-11.667v0-50.633s0 0 0-0.7zM198.333 116.667c-6.443 0-11.667-5.223-11.667-11.667v0-18.55l30.217 30.217zM43.283 26.717c-2.12-2.12-5.048-3.431-8.283-3.431-6.47 0-11.714 5.245-11.714 11.714 0 3.235 1.311 6.164 3.431 8.283v0l10.617 10.5c-8.509 6.43-13.961 16.516-14 27.877v116.673c0 19.33 15.67 35 35 35v0h158.55l19.833 19.95c2.114 2.131 5.045 3.451 8.283 3.451s6.169-1.32 8.283-3.45l0.001-0.001c2.131-2.114 3.451-5.045 3.451-8.283s-1.32-6.169-3.45-8.283l-0.001-0.001zM58.333 210c-6.443 0-11.667-5.223-11.667-11.667v0-116.667c0.054-4.972 3.209-9.193 7.619-10.824l0.081-0.026 139.183 139.183z"></path>
</svg>
