<!-- Generated by IcoMoon.io -->
<svg version="1.1" xmlns="http://www.w3.org/2000/svg" width="280" height="280" viewBox="0 0 280 280">
<title>ul-google-drive-alt</title>
<path d="M256.667 168.467c0.025-0.227 0.040-0.491 0.040-0.758s-0.014-0.531-0.043-0.791l0.003 0.032c-0.022-0.21-0.034-0.453-0.034-0.7s0.013-0.49 0.037-0.73l-0.002 0.030-0.583-1.4-70-120.050c-2.064-3.472-5.796-5.762-10.062-5.762-0.36 0-0.715 0.016-1.067 0.048l0.045-0.003h-70c-0.024-0-0.052-0-0.081-0-2.115 0-4.099 0.563-5.809 1.547l0.057-0.030-1.283 0.933c-0.387 0.293-0.73 0.599-1.047 0.93l-0.003 0.003c-0.444 0.407-0.83 0.867-1.15 1.372l-0.016 0.028s0 0-0.7 0.933v0l-70 120.517c-0.983 1.673-1.563 3.686-1.563 5.833s0.581 4.16 1.593 5.888l-0.030-0.055 35 59.267c0.383 0.663 0.808 1.236 1.289 1.757l-0.006-0.007v0.7c1.406 1.36 3.127 2.403 5.042 3.009l0.091 0.025c0.386 0.054 0.831 0.085 1.283 0.085s0.898-0.031 1.334-0.091l-0.051 0.006h141.050c4.247-0.001 7.964-2.271 10.004-5.664l0.029-0.053 35-59.967 0.583-1.4c-0.022-0.21-0.034-0.453-0.034-0.7s0.013-0.49 0.037-0.73l-0.002 0.030c0.030-0.228 0.047-0.491 0.047-0.758s-0.017-0.531-0.050-0.789l0.003 0.031c0.031-0.228 0.048-0.491 0.048-0.758s-0.018-0.53-0.052-0.789l0.003 0.030c0.39-0.316 0.734-0.66 1.040-1.037l0.010-0.013zM70 206.85l-20.883-36.167 55.883-97.533 10.15 17.5 11.667 19.367-45.15 75.6zM140 133.117l14.7 25.2h-29.633zM203.35 218.283h-113.517l21.467-36.633h113.4zM181.65 158.317l-56.35-96.6h43.050l56.35 96.6z"></path>
</svg>
