<!-- Generated by IcoMoon.io -->
<svg version="1.1" xmlns="http://www.w3.org/2000/svg" width="280" height="280" viewBox="0 0 280 280">
<title>ul-google-play</title>
<path d="M244.053 124.285c-3.669-1.982-35.125-20.234-46.929-27.104l-0.034-0.023-142.974-82.543c-2.906-1.801-6.432-2.869-10.206-2.869-2.222 0-4.357 0.37-6.348 1.051l0.138-0.041c-0.305 0.11-0.593 0.22-0.889 0.356-0.804 0.263-1.471 0.537-2.115 0.851l0.098-0.043c-5.203 3.149-8.628 8.779-8.628 15.208 0 0.249 0.005 0.497 0.015 0.744l-0.001-0.035v221.496c-0.005 0.146-0.007 0.318-0.007 0.49 0 6.048 3.206 11.347 8.012 14.291l0.073 0.042c0.488 0.247 1.084 0.498 1.699 0.711l0.107 0.032c0.337 0.156 0.659 0.292 1.008 0.415 1.545 0.578 3.33 0.928 5.193 0.961l0.014 0c3.581-0.040 6.921-1.038 9.785-2.75l-0.089 0.049c4.534-2.632 145.115-83.797 145.115-83.797l46.906-27.082c5.77-2.937 9.685-8.778 9.821-15.545l0-0.018c-0.307-6.52-4.16-12.073-9.663-14.8l-0.101-0.045zM49.514 231.455v-183.6l92.635 91.689zM108.058 206.235l50.674-50.278 13.411 13.275c-14.754 8.52-39.682 22.914-64.086 37.004zM158.712 123.11l-51.308-50.785 64.793 37.407zM193.091 157.138l-17.796-17.614 17.824-17.685c8.403 4.88 21.5 12.476 30.519 17.667z"></path>
</svg>
