<!-- Generated by IcoMoon.io -->
<svg version="1.1" xmlns="http://www.w3.org/2000/svg" width="280" height="280" viewBox="0 0 280 280">
<title>ul-heart-break</title>
<path d="M235.2 53.783c-13.238-13.242-31.529-21.432-51.732-21.432-16.365 0-31.475 5.374-43.662 14.454l0.194-0.138c-12.029-9.027-27.209-14.456-43.656-14.456-40.4 0-73.15 32.75-73.15 73.15 0 20.29 8.261 38.65 21.602 51.902l0.004 0.004 86.917 87.033c2.114 2.131 5.045 3.451 8.283 3.451s6.169-1.32 8.283-3.45l0.001-0.001 86.917-87.033c13.248-13.239 21.442-31.534 21.442-51.742s-8.194-38.502-21.442-51.741l-0-0zM218.75 140.7l-78.75 78.75-78.75-78.75c-9.243-9.033-14.975-21.625-14.975-35.556 0-27.448 22.252-49.7 49.7-49.7 11.283 0 21.689 3.76 30.031 10.096l-0.123-0.089-19.95 46.667c-0.664 1.421-1.052 3.086-1.052 4.842s0.388 3.42 1.082 4.914l-0.030-0.072c1.51 3.045 4.224 5.301 7.502 6.165l0.081 0.018 32.317 8.167-16.333 33.717c-0.754 1.501-1.195 3.27-1.195 5.143 0 4.586 2.646 8.553 6.493 10.46l0.068 0.031c1.486 0.736 3.235 1.167 5.086 1.167 0.017 0 0.034 0 0.050 0h-0.002c0.007 0 0.015 0 0.023 0 4.575 0 8.534-2.633 10.446-6.466l0.031-0.068 23.333-46.667c0.715-1.468 1.134-3.193 1.134-5.017s-0.418-3.549-1.164-5.086l0.030 0.069c-1.571-3.138-4.36-5.469-7.731-6.397l-0.086-0.020-33.017-8.283 16.917-39.55c8.93-8.633 21.11-13.953 34.533-13.953 27.455 0 49.711 22.256 49.711 49.711 0 14.032-5.814 26.706-15.164 35.745l-0.014 0.013z"></path>
</svg>
