<!-- Generated by IcoMoon.io -->
<svg version="1.1" xmlns="http://www.w3.org/2000/svg" width="280" height="280" viewBox="0 0 280 280">
<title>ul-home-alt</title>
<path d="M233.333 93.333v0l-70-61.367c-6.163-5.531-14.354-8.912-23.333-8.912s-17.17 3.382-23.366 8.941l0.033-0.029-70 61.367c-7.175 6.437-11.668 15.738-11.668 26.088 0 0.098 0 0.196 0.001 0.293v-0.015 101.967c0 19.33 15.67 35 35 35v0h140c19.33 0 35-15.67 35-35v0-102.083c0-0.048 0-0.105 0-0.162 0-10.35-4.493-19.651-11.634-26.059l-0.033-0.029zM163.333 233.333h-46.667v-58.333c0-6.443 5.223-11.667 11.667-11.667v0h23.333c6.443 0 11.667 5.223 11.667 11.667v0zM221.667 221.667c0 6.443-5.223 11.667-11.667 11.667v0h-23.333v-58.333c0-19.33-15.67-35-35-35v0h-23.333c-19.33 0-35 15.67-35 35v0 58.333h-23.333c-6.443 0-11.667-5.223-11.667-11.667v0-102.083c0.005-3.481 1.533-6.604 3.954-8.739l0.013-0.011 70-61.25c2.043-1.802 4.743-2.902 7.7-2.902s5.657 1.1 7.713 2.913l-0.013-0.011 70 61.25c2.434 2.146 3.962 5.269 3.967 8.749v0.001z"></path>
</svg>
