<!-- Generated by IcoMoon.io -->
<svg version="1.1" xmlns="http://www.w3.org/2000/svg" width="280" height="280" viewBox="0 0 280 280">
<title>ul-image-download</title>
<path d="M264.95 73.383c-2.114-2.131-5.045-3.451-8.283-3.451s-6.169 1.32-8.283 3.45l-0.001 0.001-15.050 15.167v-65.217c0-6.443-5.223-11.667-11.667-11.667s-11.667 5.223-11.667 11.667v0 65.217l-15.050-15.167c-2.12-2.12-5.048-3.431-8.283-3.431-6.47 0-11.714 5.245-11.714 11.714 0 3.235 1.311 6.164 3.431 8.283l35 35c1.077 1.032 2.356 1.862 3.771 2.422l0.079 0.028c1.305 0.591 2.829 0.936 4.433 0.936s3.129-0.345 4.502-0.964l-0.069 0.028c1.494-0.588 2.773-1.418 3.854-2.454l-0.004 0.004 35-35c2.131-2.114 3.451-5.045 3.451-8.283s-1.32-6.169-3.45-8.283l-0.001-0.001zM221.667 151.667c-6.443 0-11.667 5.223-11.667 11.667v0 4.433l-17.267-17.267c-5.881-5.836-13.982-9.443-22.925-9.443s-17.044 3.607-22.927 9.445l0.002-0.002-8.167 8.167-28.933-28.933c-5.953-5.675-14.031-9.167-22.925-9.167s-16.972 3.492-22.938 9.179l0.013-0.013-17.267 17.267v-65.333c0-6.443 5.223-11.667 11.667-11.667v0h93.333c6.443 0 11.667-5.223 11.667-11.667s-5.223-11.667-11.667-11.667v0h-93.333c-19.33 0-35 15.67-35 35v0 140c0 19.33 15.67 35 35 35v0h140c19.33 0 35-15.67 35-35v0-58.333c0-6.443-5.223-11.667-11.667-11.667v0zM58.333 233.333c-6.443 0-11.667-5.223-11.667-11.667v0-41.65l33.833-33.833c1.65-1.575 3.891-2.544 6.358-2.544s4.708 0.969 6.362 2.548l87.146 87.146zM210 221.667c-0.018 2.335-0.804 4.484-2.119 6.209l0.019-0.025-52.617-52.85 8.167-8.167c1.632-1.664 3.904-2.696 6.417-2.696s4.785 1.032 6.415 2.695l0.001 0.001 33.717 33.95z"></path>
</svg>
