<!-- Generated by IcoMoon.io -->
<svg version="1.1" xmlns="http://www.w3.org/2000/svg" width="280" height="280" viewBox="0 0 280 280">
<title>ul-image-slash</title>
<path d="M227.5 46.667h-110.833c-6.443 0-11.667 5.223-11.667 11.667s5.223 11.667 11.667 11.667v0h110.833c6.443 0 11.667 5.223 11.667 11.667v0 78.867l-21.933-21.933c-3.649-3.63-8.096-6.462-13.055-8.208l-0.245-0.075c-1.114-0.388-2.397-0.612-3.733-0.612-6.459 0-11.695 5.236-11.695 11.695 0 5.123 3.294 9.477 7.88 11.059l0.082 0.025c1.669 0.535 3.085 1.462 4.193 2.676l0.007 0.007 38.617 38.383c-0.032 0.263-0.050 0.567-0.050 0.875s0.018 0.613 0.053 0.911l-0.004-0.036c-0.025 0.262-0.040 0.567-0.040 0.875s0.014 0.613 0.043 0.914l-0.003-0.039c0.47 0.794 0.971 1.48 1.53 2.115l-0.013-0.015c0.296 0.492 0.644 0.914 1.045 1.279l0.005 0.004c0.676 0.627 1.443 1.171 2.276 1.606l0.058 0.028c0.37 0.259 0.792 0.493 1.238 0.683l0.046 0.017c1.268 0.585 2.752 0.928 4.315 0.933h0.002c6.443 0 11.667-5.223 11.667-11.667v0-110.367c0-0.005 0-0.010 0-0.016 0-18.961-15.077-34.4-33.896-34.983l-0.054-0.001zM37.45 26.717c-2.12-2.12-5.048-3.431-8.283-3.431-6.47 0-11.714 5.245-11.714 11.714 0 3.235 1.311 6.164 3.431 8.283l16.217 16.217c-4.934 5.983-7.927 13.724-7.933 22.165v116.668c0 19.33 15.67 35 35 35v0h146.883l19.833 19.95c2.114 2.131 5.045 3.451 8.283 3.451s6.169-1.32 8.283-3.45l0.001-0.001c2.131-2.114 3.451-5.045 3.451-8.283s-1.32-6.169-3.45-8.283l-0.001-0.001zM52.5 81.667c0.031-1.971 0.546-3.815 1.43-5.427l-0.030 0.061 31.733 31.617c-4.528 1.752-8.406 4.244-11.681 7.363l0.014-0.013-21.467 21.933zM64.167 210c-6.443 0-11.667-5.223-11.667-11.667v0-28.233l38.5-38.383c2.103-2.062 4.986-3.335 8.167-3.335s6.064 1.273 8.169 3.337l78.281 78.281z"></path>
</svg>
