<!-- Generated by IcoMoon.io -->
<svg version="1.1" xmlns="http://www.w3.org/2000/svg" width="280" height="280" viewBox="0 0 280 280">
<title>ul-instagram</title>
<path d="M202.3 63.7v0c-7.732 0-14 6.268-14 14s6.268 14 14 14c7.732 0 14-6.268 14-14v0c0-7.732-6.268-14-14-14v0zM255.967 91.933c-0.247-10.239-2.194-19.948-5.567-28.961l0.2 0.611c-3.132-8.080-7.731-14.967-13.523-20.64l-0.010-0.010c-5.641-5.834-12.543-10.41-20.271-13.293l-0.379-0.124c-8.396-3.272-18.108-5.265-28.258-5.482l-0.092-0.002c-12.367-0.7-16.333-0.7-48.067-0.7s-35.7 0-48.067 0.7c-10.242 0.218-19.954 2.211-28.932 5.681l0.582-0.198c-8.095 3.038-14.992 7.609-20.638 13.405l-0.012 0.012c-5.834 5.641-10.41 12.543-13.293 20.271l-0.124 0.379c-3.272 8.396-5.265 18.108-5.482 28.258l-0.002 0.092c-0.7 12.367-0.7 16.333-0.7 48.067s0 35.7 0.7 48.067c0.218 10.242 2.211 19.954 5.681 28.932l-0.198-0.582c3.007 8.107 7.583 15.009 13.401 20.635l0.015 0.015c5.658 5.807 12.555 10.378 20.266 13.29l0.384 0.127c8.396 3.272 18.108 5.265 28.258 5.482l0.092 0.002c12.367 0.7 16.333 0.7 48.067 0.7s35.7 0 48.067-0.7c10.242-0.218 19.954-2.211 28.932-5.681l-0.582 0.198c8.107-3.007 15.009-7.583 20.635-13.401l0.015-0.015c5.83-5.666 10.435-12.558 13.402-20.263l0.131-0.387c3.173-8.402 5.12-18.111 5.365-28.243l0.002-0.107c0-12.367 0.7-16.333 0.7-48.067s0-35.7-0.7-48.067zM234.967 186.667c-0.092 7.811-1.539 15.257-4.115 22.152l0.148-0.452c-1.966 5.268-4.949 9.752-8.739 13.406l-0.011 0.010c-3.691 3.759-8.166 6.735-13.162 8.664l-0.254 0.086c-6.443 2.428-13.888 3.874-21.66 3.966l-0.040 0c-11.667 0.583-15.983 0.7-46.667 0.7s-35 0-46.667-0.7c-0.372 0.007-0.811 0.012-1.252 0.012-7.652 0-15.004-1.286-21.851-3.653l0.47 0.141c-5.014-2.113-9.282-5.072-12.823-8.739l-0.011-0.011c-3.776-3.658-6.726-8.147-8.556-13.173l-0.077-0.243c-2.717-6.539-4.407-14.12-4.664-22.064l-0.003-0.103c0-11.667-0.7-15.983-0.7-46.667s0-35 0.7-46.667c0.057-7.976 1.55-15.587 4.232-22.61l-0.149 0.443c2.152-5.078 5.28-9.366 9.178-12.8l0.039-0.033c3.492-3.939 7.771-7.097 12.6-9.241l0.234-0.093c6.588-2.454 14.198-3.902 22.138-3.966l0.028-0c11.667 0 15.983-0.7 46.667-0.7s35 0 46.667 0.7c7.811 0.092 15.257 1.539 22.152 4.115l-0.452-0.148c5.485 2.071 10.135 5.258 13.86 9.308l0.023 0.025c3.738 3.511 6.709 7.792 8.664 12.595l0.086 0.239c2.481 6.588 3.932 14.203 3.966 22.152v0.015c0.583 11.667 0.7 15.983 0.7 46.667s-0.117 35-0.7 46.667zM140 80.15c-33.004 0.066-59.733 26.837-59.733 59.85 0 33.054 26.796 59.85 59.85 59.85s59.85-26.796 59.85-59.85v0c0-0.035 0-0.076 0-0.117 0-32.99-26.744-59.733-59.733-59.733-0.082 0-0.164 0-0.246 0.001h0.013zM140 178.85c-21.456 0-38.85-17.394-38.85-38.85s17.394-38.85 38.85-38.85c21.456 0 38.85 17.394 38.85 38.85v0c0 21.456-17.394 38.85-38.85 38.85v0z"></path>
</svg>
