<!-- Generated by IcoMoon.io -->
<svg version="1.1" xmlns="http://www.w3.org/2000/svg" width="280" height="280" viewBox="0 0 280 280">
<title>ul-image-plus</title>
<path d="M221.667 116.667c-6.443 0-11.667 5.223-11.667 11.667v0 39.433l-17.267-17.267c-5.881-5.836-13.982-9.443-22.925-9.443s-17.044 3.607-22.927 9.445l0.002-0.002-8.167 8.283-28.933-29.050c-5.881-5.836-13.982-9.443-22.925-9.443s-17.044 3.607-22.927 9.445l0.002-0.002-17.267 17.383v-65.45c0-6.443 5.223-11.667 11.667-11.667v0h93.333c6.443 0 11.667-5.223 11.667-11.667s-5.223-11.667-11.667-11.667v0h-93.333c-19.33 0-35 15.67-35 35v0 142.567c0.066 17.886 14.547 32.367 32.427 32.433h145.14c3.337-0.027 6.545-0.537 9.571-1.463l-0.238 0.063c13.571-3.897 23.334-16.198 23.334-30.779 0-0.048 0-0.097-0-0.145v0.007-96.017c0-0.001 0-0.002 0-0.002 0-6.443-5.223-11.667-11.667-11.667-0.082 0-0.164 0.001-0.246 0.002l0.012-0zM58.333 233.333c-6.443 0-11.667-5.223-11.667-11.667v0-41.65l33.717-33.717c1.645-1.636 3.913-2.647 6.417-2.647s4.772 1.011 6.417 2.648l-0-0 87.15 87.033zM210 221.667c-0.081 2.368-0.855 4.54-2.125 6.337l0.025-0.037-52.733-52.967 8.283-8.167c1.632-1.664 3.904-2.696 6.417-2.696s4.785 1.032 6.415 2.695l0.001 0.001 33.717 33.95zM245 46.667h-11.667v-11.667c0-6.443-5.223-11.667-11.667-11.667s-11.667 5.223-11.667 11.667v0 11.667h-11.667c-6.443 0-11.667 5.223-11.667 11.667s5.223 11.667 11.667 11.667v0h11.667v11.667c0 6.443 5.223 11.667 11.667 11.667s11.667-5.223 11.667-11.667v0-11.667h11.667c6.443 0 11.667-5.223 11.667-11.667s-5.223-11.667-11.667-11.667v0z"></path>
</svg>
