<!-- Generated by IcoMoon.io -->
<svg version="1.1" xmlns="http://www.w3.org/2000/svg" width="280" height="280" viewBox="0 0 280 280">
<title>ul-keyboard-hide</title>
<path d="M78.283 120.050c-1.094-0.997-2.367-1.822-3.763-2.417l-0.088-0.033c-1.335-0.577-2.89-0.912-4.522-0.912-3.194 0-6.089 1.284-8.195 3.363l0.001-0.001c-1.032 1.077-1.862 2.356-2.422 3.771l-0.028 0.079c-0.577 1.335-0.912 2.89-0.912 4.522 0 3.194 1.284 6.089 3.363 8.195l-0.001-0.001c1.094 0.997 2.367 1.822 3.763 2.417l0.087 0.033c1.284 0.529 2.774 0.835 4.335 0.835 6.443 0 11.667-5.223 11.667-11.667 0-1.562-0.307-3.052-0.864-4.413l0.028 0.078c-0.588-1.494-1.418-2.773-2.454-3.854l0.004 0.004zM108.383 89.95c2.108 2.091 5.011 3.384 8.216 3.384 0.024 0 0.047 0 0.071-0h-0.004c0.075 0.002 0.164 0.003 0.252 0.003 1.519 0 2.957-0.345 4.24-0.962l-0.059 0.025c1.483-0.628 2.756-1.453 3.861-2.46l-0.011 0.010c0.997-1.094 1.822-2.367 2.417-3.763l0.033-0.088c0.591-1.305 0.936-2.829 0.936-4.433s-0.345-3.129-0.964-4.502l0.028 0.069c-0.628-1.483-1.453-2.756-2.46-3.861l0.010 0.011c-2.114-2.131-5.045-3.451-8.283-3.451s-6.169 1.32-8.283 3.45l-0.001 0.001c-0.997 1.094-1.822 2.367-2.417 3.763l-0.033 0.087c-0.591 1.305-0.936 2.829-0.936 4.433s0.345 3.129 0.964 4.502l-0.028-0.069c0.628 1.483 1.453 2.756 2.46 3.861l-0.010-0.011zM78.283 73.383c-2.114-2.132-5.045-3.451-8.284-3.451-6.443 0-11.667 5.223-11.667 11.667 0 0.024 0 0.048 0 0.072v-0.004c0.020 1.606 0.361 3.127 0.963 4.509l-0.029-0.075c0.628 1.483 1.453 2.756 2.46 3.861l-0.010-0.011c2.108 2.091 5.011 3.384 8.216 3.384 0.024 0 0.047 0 0.071-0h-0.004c0.075 0.002 0.164 0.003 0.252 0.003 1.519 0 2.957-0.345 4.24-0.962l-0.059 0.025c1.483-0.628 2.756-1.453 3.861-2.46l-0.011 0.010c0.997-1.094 1.822-2.367 2.417-3.763l0.033-0.087c0.591-1.305 0.936-2.829 0.936-4.433s-0.345-3.129-0.964-4.502l0.028 0.069c-0.628-1.483-1.453-2.756-2.46-3.861l0.010 0.011zM155.050 213.383l-15.050 15.167-15.050-15.167c-2.12-2.12-5.048-3.431-8.283-3.431-6.47 0-11.714 5.245-11.714 11.714 0 3.235 1.311 6.164 3.431 8.283l23.333 23.333c2.114 2.131 5.045 3.451 8.283 3.451s6.169-1.32 8.283-3.45l23.334-23.334c2.12-2.12 3.431-5.048 3.431-8.283 0-6.47-5.245-11.714-11.714-11.714-3.235 0-6.164 1.311-8.283 3.431v0zM218.283 73.383c-2.114-2.132-5.045-3.451-8.284-3.451-6.443 0-11.667 5.223-11.667 11.667 0 0.024 0 0.048 0 0.072v-0.004c-0.002 0.075-0.003 0.164-0.003 0.252 0 1.519 0.345 2.957 0.962 4.24l-0.025-0.059c0.628 1.483 1.453 2.756 2.46 3.861l-0.010-0.011c2.114 2.131 5.045 3.451 8.283 3.451s6.169-1.32 8.283-3.45l0.001-0.001c0.997-1.094 1.822-2.367 2.417-3.763l0.033-0.087c0.591-1.224 0.937-2.662 0.937-4.181 0-0.089-0.001-0.177-0.004-0.266l0 0.013c-0.020-1.606-0.361-3.127-0.962-4.509l0.029 0.075c-0.628-1.483-1.453-2.756-2.46-3.861l0.010 0.011zM163.333 116.667h-46.667c-6.443 0-11.667 5.223-11.667 11.667s5.223 11.667 11.667 11.667v0h46.667c6.443 0 11.667-5.223 11.667-11.667s-5.223-11.667-11.667-11.667v0zM233.333 23.333h-186.667c-19.33 0-35 15.67-35 35v0 93.333c0 19.33 15.67 35 35 35v0h186.667c19.33 0 35-15.67 35-35v0-93.333c0-19.33-15.67-35-35-35v0zM245 151.667c0 6.443-5.223 11.667-11.667 11.667v0h-186.667c-6.443 0-11.667-5.223-11.667-11.667v0-93.333c0-6.443 5.223-11.667 11.667-11.667v0h186.667c6.443 0 11.667 5.223 11.667 11.667v0zM218.283 120.050c-1.077-1.032-2.356-1.862-3.771-2.422l-0.079-0.028c-1.302-0.605-2.827-0.958-4.433-0.958s-3.131 0.353-4.5 0.986l0.066-0.028c-1.483 0.628-2.756 1.453-3.861 2.46l0.011-0.010c-2.057 2.154-3.337 5.065-3.383 8.274v0.009c-0.001 0.041-0.001 0.089-0.001 0.137 0 6.443 5.223 11.667 11.667 11.667s11.667-5.223 11.667-11.667c0-1.651-0.343-3.222-0.962-4.646l0.029 0.075c-0.588-1.494-1.418-2.773-2.454-3.854l0.004 0.004zM158.9 70.933c-1.483 0.628-2.756 1.453-3.861 2.46l0.011-0.010c-2.057 2.154-3.337 5.065-3.383 8.274v0.009c0.020 1.606 0.361 3.127 0.963 4.509l-0.029-0.075c0.628 1.483 1.453 2.756 2.46 3.861l-0.010-0.011c2.108 2.091 5.011 3.384 8.216 3.384 0.024 0 0.047 0 0.071-0h-0.004c0.075 0.002 0.164 0.003 0.252 0.003 1.519 0 2.957-0.345 4.24-0.962l-0.059 0.025c1.483-0.628 2.756-1.453 3.861-2.46l-0.011 0.010c0.997-1.094 1.822-2.367 2.417-3.763l0.033-0.087c0.591-1.224 0.937-2.662 0.937-4.181 0-0.089-0.001-0.177-0.004-0.266l0 0.013c-0.046-3.219-1.326-6.129-3.388-8.288l0.004 0.005c-2.105-2.078-5-3.362-8.194-3.362-1.633 0-3.187 0.336-4.598 0.941l0.076-0.029z"></path>
</svg>
