<!-- Generated by IcoMoon.io -->
<svg version="1.1" xmlns="http://www.w3.org/2000/svg" width="280" height="280" viewBox="0 0 280 280">
<title>ul-lock</title>
<path d="M198.333 105v-23.333c0-32.217-26.117-58.333-58.333-58.333s-58.333 26.117-58.333 58.333v0 23.333c-19.33 0-35 15.67-35 35v0 81.667c0 19.33 15.67 35 35 35v0h116.667c19.33 0 35-15.67 35-35v0-81.667c0-19.33-15.67-35-35-35v0zM105 81.667c0-19.33 15.67-35 35-35s35 15.67 35 35v0 23.333h-70zM210 221.667c0 6.443-5.223 11.667-11.667 11.667v0h-116.667c-6.443 0-11.667-5.223-11.667-11.667v0-81.667c0-6.443 5.223-11.667 11.667-11.667v0h116.667c6.443 0 11.667 5.223 11.667 11.667v0z"></path>
</svg>
