<!-- Generated by IcoMoon.io -->
<svg version="1.1" xmlns="http://www.w3.org/2000/svg" width="280" height="280" viewBox="0 0 280 280">
<title>ul-language</title>
<path d="M245.649 140h-23.333c-6.443 0-11.667 5.223-11.667 11.667s5.223 11.667 11.667 11.667v0 23.333h-13.816c1.322-3.463 2.107-7.467 2.149-11.648l0-0.018c0-0.002 0-0.004 0-0.005 0-19.327-15.668-34.995-34.995-34.995-12.888 0-24.149 6.967-30.222 17.341l-0.089 0.165c-0.997 1.683-1.586 3.709-1.586 5.873 0 6.443 5.223 11.666 11.666 11.666 4.316 0 8.084-2.344 10.102-5.828l0.030-0.056c2.056-3.505 5.804-5.823 10.094-5.828h0.001c6.443 0 11.667 5.223 11.667 11.667s-5.223 11.667-11.667 11.667v0c-6.443 0-11.667 5.223-11.667 11.667s5.223 11.667 11.667 11.667v0c6.443 0 11.667 5.223 11.667 11.667s-5.223 11.667-11.667 11.667v0c-4.29-0.005-8.038-2.322-10.065-5.773l-0.030-0.055c-2.048-3.54-5.816-5.884-10.132-5.884-6.443 0-11.666 5.223-11.666 11.666 0 2.164 0.589 4.19 1.616 5.927l-0.030-0.054c6.162 10.539 17.423 17.506 30.311 17.506 19.327 0 34.995-15.668 34.995-34.995 0-0.002 0-0.004 0-0.005v0c-0.043-4.2-0.827-8.204-2.229-11.905l0.079 0.238h13.816v35c0 6.443 5.223 11.667 11.667 11.667s11.667-5.223 11.667-11.667v0-81.667c6.443 0 11.667-5.223 11.667-11.667s-5.223-11.667-11.667-11.667v0zM106.003 131.165c1.311 5.113 5.878 8.831 11.313 8.831 6.441 0 11.662-5.221 11.662-11.662 0-1.005-0.127-1.981-0.366-2.912l0.018 0.081-20.497-82.014c-2.988-11.668-13.409-20.155-25.811-20.155s-22.824 8.487-25.771 19.97l-0.040 0.185-20.508 82.014c-0.222 0.85-0.349 1.826-0.349 2.831 0 6.441 5.221 11.662 11.662 11.662 5.435 0 10.002-3.718 11.296-8.75l0.017-0.081 6.543-26.165h34.292zM71.007 81.667l8.13-32.516c0.504-1.293 1.739-2.192 3.184-2.192s2.68 0.899 3.177 2.169l0.008 0.023 8.126 32.516zM163.983 81.667h11.667c6.441 0.007 11.66 5.226 11.667 11.666v11.667c0 6.443 5.223 11.667 11.667 11.667s11.667-5.223 11.667-11.667v0-11.667c-0.022-19.321-15.679-34.978-34.998-35h-11.669c-6.443 0-11.667 5.223-11.667 11.667s5.223 11.667 11.667 11.667v0zM117.316 186.667h-11.667c-6.441-0.007-11.66-5.226-11.667-11.666v-11.667c0-6.443-5.223-11.667-11.667-11.667s-11.667 5.223-11.667 11.667v0 11.667c0.022 19.321 15.679 34.978 34.998 35h11.669c6.443 0 11.667-5.223 11.667-11.667s-5.223-11.667-11.667-11.667v0z"></path>
</svg>
