<!-- Generated by IcoMoon.io -->
<svg version="1.1" xmlns="http://www.w3.org/2000/svg" width="280" height="280" viewBox="0 0 280 280">
<title>ul-lightbulb-alt</title>
<path d="M199.383 32.9c-15.988-13.225-36.7-21.248-59.286-21.248-6.601 0-13.041 0.685-19.255 1.988l0.608-0.107c-37.083 7.685-65.759 36.556-73.051 73.138l-0.099 0.595c-1.039 5.249-1.633 11.284-1.633 17.457 0 22.93 8.197 43.946 21.821 60.277l-0.122-0.151c7.915 8.901 12.886 20.574 13.298 33.4l0.002 0.084v35c0 19.33 15.67 35 35 35v0h46.667c19.33 0 35-15.67 35-35v0-32.783c0.421-14.264 5.732-27.213 14.305-37.303l-0.071 0.086c12.923-15.885 20.75-36.366 20.75-58.675 0-28.908-13.143-54.747-33.779-71.867l-0.154-0.124zM175 233.333c0 6.443-5.223 11.667-11.667 11.667v0h-46.667c-6.443 0-11.667-5.223-11.667-11.667v0-11.667h70zM194.483 148.867c-11.306 13.342-18.506 30.479-19.475 49.265l-0.008 0.202h-23.333v-35c0-6.443-5.223-11.667-11.667-11.667s-11.667 5.223-11.667 11.667v0 35h-23.333c-0.331-18.651-7.346-35.602-18.742-48.621l0.075 0.088c-10.114-12.054-16.259-27.736-16.259-44.854 0-33.636 23.723-61.73 55.35-68.465l0.458-0.082c4.244-0.914 9.119-1.438 14.117-1.438 38.66 0 70 31.34 70 70 0 0.013 0 0.027 0 0.040v-0.002c0.001 0.11 0.001 0.241 0.001 0.371 0 16.559-5.857 31.75-15.613 43.614l0.095-0.119z"></path>
</svg>
