<!-- Generated by IcoMoon.io -->
<svg version="1.1" xmlns="http://www.w3.org/2000/svg" width="280" height="280" viewBox="0 0 280 280">
<title>ul-link-alt</title>
<path d="M141.283 179.55l-45.267 45.267c-5.281 5.102-12.482 8.245-20.417 8.245s-15.136-3.144-20.425-8.253l0.008 0.008c-5.239-5.219-8.48-12.439-8.48-20.417s3.242-15.198 8.48-20.416l45.268-45.268c2.12-2.12 3.431-5.048 3.431-8.283 0-6.47-5.245-11.714-11.714-11.714-3.235 0-6.164 1.311-8.283 3.431v0l-45.267 45.383c-8.541 9.274-13.777 21.706-13.777 35.361 0 28.866 23.401 52.267 52.267 52.267 13.655 0 26.087-5.236 35.398-13.811l-0.037 0.033 45.383-45.267c2.12-2.12 3.431-5.048 3.431-8.283 0-6.47-5.245-11.714-11.714-11.714-3.235 0-6.164 1.311-8.283 3.431v0zM241.383 38.617c-9.468-9.411-22.517-15.227-36.925-15.227s-27.457 5.817-36.928 15.23l0.003-0.003-45.383 45.267c-2.12 2.12-3.431 5.048-3.431 8.283 0 6.47 5.245 11.714 11.714 11.714 3.235 0 6.164-1.311 8.283-3.431v0l45.267-45.267c5.281-5.102 12.482-8.245 20.417-8.245s15.136 3.144 20.425 8.253l-0.008-0.008c5.239 5.219 8.48 12.439 8.48 20.417s-3.242 15.198-8.48 20.416l-45.268 45.268c-2.131 2.114-3.451 5.045-3.451 8.283s1.32 6.169 3.45 8.283l0.001 0.001c2.114 2.131 5.045 3.451 8.283 3.451s6.169-1.32 8.283-3.45l0.001-0.001 45.267-45.383c9.411-9.468 15.227-22.517 15.227-36.925s-5.817-27.457-15.23-36.928l0.003 0.003zM103.017 176.983c2.108 2.091 5.011 3.384 8.216 3.384 0.024 0 0.047 0 0.071-0h-0.004c0.020 0 0.044 0 0.068 0 3.205 0 6.108-1.292 8.217-3.384l57.399-57.399c2.12-2.12 3.431-5.048 3.431-8.283 0-6.47-5.245-11.714-11.714-11.714-3.235 0-6.164 1.311-8.283 3.431l-57.4 57.4c-2.131 2.114-3.451 5.045-3.451 8.283s1.32 6.169 3.45 8.283l0.001 0.001z"></path>
</svg>
