<!-- Generated by IcoMoon.io -->
<svg version="1.1" xmlns="http://www.w3.org/2000/svg" width="280" height="280" viewBox="0 0 280 280">
<title>ul-minus-square-full</title>
<path d="M105 151.667h70c6.443 0 11.667-5.223 11.667-11.667s-5.223-11.667-11.667-11.667v0h-70c-6.443 0-11.667 5.223-11.667 11.667s5.223 11.667 11.667 11.667v0zM245 23.333h-210c-6.443 0-11.667 5.223-11.667 11.667v0 210c0 6.443 5.223 11.667 11.667 11.667v0h210c6.443 0 11.667-5.223 11.667-11.667v0-210c0-6.443-5.223-11.667-11.667-11.667v0zM233.333 233.333h-186.667v-186.667h186.667z"></path>
</svg>
