<!-- Generated by IcoMoon.io -->
<svg version="1.1" xmlns="http://www.w3.org/2000/svg" width="280" height="280" viewBox="0 0 280 280">
<title>ul-money-bill-stack</title>
<path d="M233.333 11.667h-186.667c-19.33 0-35 15.67-35 35v0 186.667c0 19.33 15.67 35 35 35v0h186.667c19.33 0 35-15.67 35-35v0-186.667c0-19.33-15.67-35-35-35v0zM93.333 245h-46.667c-6.443 0-11.667-5.223-11.667-11.667v0-13.767c3.466 1.299 7.472 2.066 11.652 2.1h46.682zM93.333 198.333h-46.667c-6.443 0-11.667-5.223-11.667-11.667v0-13.767c3.466 1.299 7.472 2.066 11.652 2.1h46.682zM93.333 151.667h-46.667c-6.443 0-11.667-5.223-11.667-11.667v0-93.333c0-6.443 5.223-11.667 11.667-11.667v0h46.667zM163.333 245h-46.667v-70h46.667zM163.333 151.667h-46.667v-116.667h46.667zM245 233.333c0 6.443-5.223 11.667-11.667 11.667v0h-46.667v-23.333h46.667c4.195-0.034 8.2-0.801 11.909-2.179l-0.242 0.079zM245 186.667c0 6.443-5.223 11.667-11.667 11.667v0h-46.667v-23.333h46.667c4.195-0.034 8.2-0.801 11.909-2.179l-0.242 0.079zM245 140c0 6.443-5.223 11.667-11.667 11.667v0h-46.667v-116.667h46.667c6.443 0 11.667 5.223 11.667 11.667v0zM210 81.667c-6.443 0-11.667 5.223-11.667 11.667s5.223 11.667 11.667 11.667c6.443 0 11.667-5.223 11.667-11.667v0c0-6.443-5.223-11.667-11.667-11.667v0zM70 105c6.443 0 11.667-5.223 11.667-11.667s-5.223-11.667-11.667-11.667c-6.443 0-11.667 5.223-11.667 11.667v0c0 6.443 5.223 11.667 11.667 11.667v0z"></path>
</svg>
