<!-- Generated by IcoMoon.io -->
<svg version="1.1" xmlns="http://www.w3.org/2000/svg" width="280" height="280" viewBox="0 0 280 280">
<title>ul-moonset</title>
<path d="M128.333 221.667h-35c-6.443 0-11.667 5.223-11.667 11.667s5.223 11.667 11.667 11.667v0h35c6.443 0 11.667-5.223 11.667-11.667s-5.223-11.667-11.667-11.667v0zM233.333 175h-13.533c6.398-9.847 11.122-21.414 13.442-33.826l0.092-0.591c0.104-0.585 0.163-1.258 0.163-1.944 0-3.562-1.597-6.752-4.113-8.892l-0.017-0.014c-2.044-1.806-4.747-2.909-7.708-2.909-1.42 0-2.781 0.254-4.039 0.718l0.081-0.026c-6.677 2.349-14.376 3.715-22.392 3.733h-0.008c-0.001 0-0.002 0-0.004 0-38.801 0-70.301-31.256-70.696-69.963l-0-0.037c0.117-4.211 0.537-8.233 1.239-12.157l-0.073 0.49c0.084-0.528 0.133-1.136 0.133-1.755 0-3.602-1.632-6.823-4.198-8.963l-0.019-0.015c-2.031-1.757-4.697-2.827-7.614-2.827-1.456 0-2.849 0.267-4.133 0.753l0.080-0.027c-36.859 12.994-62.888 47.323-63.349 87.794l-0.001 0.056c0.013 18.724 5.536 36.154 15.037 50.761l-0.22-0.361h-14.817c-6.443 0-11.667 5.223-11.667 11.667s5.223 11.667 11.667 11.667v0h186.667c6.443 0 11.667-5.223 11.667-11.667s-5.223-11.667-11.667-11.667v0zM189.933 175h-98.583c-13.295-12.762-21.555-30.68-21.555-50.528 0-24.462 12.548-45.994 31.558-58.509l0.264-0.163c2.86 49.624 43.8 88.783 93.887 88.783 0.011 0 0.021 0 0.032 0h-0.002c1.377 0.083 2.987 0.13 4.608 0.13s3.231-0.047 4.829-0.14l-0.221 0.010c-3.865 7.917-8.83 14.671-14.792 20.394l-0.024 0.023zM186.667 221.667h-11.667c-6.443 0-11.667 5.223-11.667 11.667s5.223 11.667 11.667 11.667v0h11.667c6.443 0 11.667-5.223 11.667-11.667s-5.223-11.667-11.667-11.667v0z"></path>
</svg>
