<!-- Generated by IcoMoon.io -->
<svg version="1.1" xmlns="http://www.w3.org/2000/svg" width="280" height="280" viewBox="0 0 280 280">
<title>ul-money-withdraw</title>
<path d="M140 140c-19.33 0-35 15.67-35 35s15.67 35 35 35c19.33 0 35-15.67 35-35v0c0-19.33-15.67-35-35-35v0zM140 186.667c-6.443 0-11.667-5.223-11.667-11.667s5.223-11.667 11.667-11.667c6.443 0 11.667 5.223 11.667 11.667v0c0 6.443-5.223 11.667-11.667 11.667v0zM131.717 113.283c1.077 1.032 2.356 1.862 3.771 2.422l0.079 0.028c1.305 0.591 2.829 0.936 4.433 0.936s3.129-0.345 4.502-0.964l-0.069 0.028c1.494-0.588 2.773-1.418 3.854-2.454l-0.004 0.004 26.717-26.25c2.18-2.18 3.528-5.191 3.528-8.517 0-6.652-5.392-12.044-12.044-12.044-3.326 0-6.337 1.348-8.517 3.528v0l-6.3 6.883v-41.883c0-6.443-5.223-11.667-11.667-11.667s-11.667 5.223-11.667 11.667v0 41.883l-6.3-6.883c-2.18-2.18-5.191-3.528-8.517-3.528-6.652 0-12.044 5.392-12.044 12.044 0 3.326 1.348 6.337 3.528 8.517v0zM221.667 175c0-6.443-5.223-11.667-11.667-11.667s-11.667 5.223-11.667 11.667c0 6.443 5.223 11.667 11.667 11.667v0c6.443 0 11.667-5.223 11.667-11.667v0zM233.333 93.333h-35c-6.443 0-11.667 5.223-11.667 11.667s5.223 11.667 11.667 11.667v0h35c6.443 0 11.667 5.223 11.667 11.667v0 93.333c0 6.443-5.223 11.667-11.667 11.667v0h-186.667c-6.443 0-11.667-5.223-11.667-11.667v0-93.333c0-6.443 5.223-11.667 11.667-11.667v0h35c6.443 0 11.667-5.223 11.667-11.667s-5.223-11.667-11.667-11.667v0h-35c-19.33 0-35 15.67-35 35v0 93.333c0 19.33 15.67 35 35 35v0h186.667c19.33 0 35-15.67 35-35v0-93.333c0-19.33-15.67-35-35-35v0zM58.333 175c0 6.443 5.223 11.667 11.667 11.667s11.667-5.223 11.667-11.667c0-6.443-5.223-11.667-11.667-11.667v0c-6.443 0-11.667 5.223-11.667 11.667v0z"></path>
</svg>
