<!-- Generated by IcoMoon.io -->
<svg version="1.1" xmlns="http://www.w3.org/2000/svg" width="280" height="280" viewBox="0 0 280 280">
<title>ul-message</title>
<path d="M237.3 108.733l-163.333-81.667c-4.545-2.312-9.912-3.667-15.595-3.667-19.33 0-35 15.67-35 35 0 5.128 1.103 9.999 3.084 14.387l-0.089-0.221 28 62.65c0.609 1.412 0.963 3.056 0.963 4.783s-0.354 3.371-0.993 4.864l0.031-0.081-28 62.65c-1.911 4.186-3.025 9.079-3.025 14.233 0 19.327 15.665 34.995 34.991 35h0.001c5.744-0.059 11.154-1.431 15.962-3.829l-0.212 0.096 163.333-81.667c11.521-5.888 19.271-17.672 19.271-31.267s-7.75-25.379-19.074-31.175l-0.197-0.092zM226.917 150.383l-163.333 81.667c-1.477 0.725-3.214 1.15-5.050 1.15-6.443 0-11.667-5.223-11.667-11.667 0-1.681 0.356-3.28 0.996-4.724l-0.030 0.074 27.883-62.65c0.305-0.677 0.622-1.528 0.89-2.401l0.043-0.165h80.383c6.443 0 11.667-5.223 11.667-11.667s-5.223-11.667-11.667-11.667v0h-80.383c-0.311-1.039-0.628-1.89-0.992-2.716l0.059 0.15-27.883-62.65c-0.611-1.37-0.967-2.968-0.967-4.65 0-6.443 5.223-11.667 11.667-11.667 1.836 0 3.573 0.424 5.119 1.18l-0.069-0.030 163.333 81.667c3.798 1.976 6.347 5.882 6.347 10.383s-2.549 8.407-6.282 10.353l-0.065 0.031z"></path>
</svg>
