<!-- Generated by IcoMoon.io -->
<svg version="1.1" xmlns="http://www.w3.org/2000/svg" width="280" height="280" viewBox="0 0 280 280">
<title>ul-ninja</title>
<path d="M226.8 62.3l-0.7-0.817c-21.406-23.353-52.050-37.94-86.1-37.94s-64.694 14.587-86.022 37.853l-0.078 0.087-0.7 0.817c-18.531 20.569-29.866 47.938-29.866 77.954 0 64.433 52.233 116.667 116.667 116.667s116.667-52.233 116.667-116.667c0-0.089 0-0.179-0-0.268v0.014c0-0.018 0-0.038 0-0.059 0-29.916-11.339-57.184-29.955-77.739l0.088 0.098zM140 46.667c0.072-0 0.156-0 0.241-0 16.452 0 31.893 4.327 45.247 11.905l-0.455-0.238h-90.067c12.899-7.34 28.34-11.667 44.792-11.667 0.085 0 0.17 0 0.254 0h-0.013zM67.2 81.667h145.6c10.352 12.857 17.412 28.775 19.667 46.199l0.049 0.468h-185.033c2.304-17.892 9.364-33.809 19.857-46.847l-0.141 0.18zM140 233.333c-47.398-0.044-86.522-35.413-92.467-81.198l-0.050-0.469h185.033c-5.994 46.253-45.118 81.622-92.512 81.667h-0.005zM93.333 93.333c-6.443 0-11.667 5.223-11.667 11.667s5.223 11.667 11.667 11.667c6.443 0 11.667-5.223 11.667-11.667v0c0-6.443-5.223-11.667-11.667-11.667v0zM163.333 93.333c-6.443 0-11.667 5.223-11.667 11.667s5.223 11.667 11.667 11.667c6.443 0 11.667-5.223 11.667-11.667v0c0-6.443-5.223-11.667-11.667-11.667v0zM128.333 209.183c1.644 0.948 3.614 1.51 5.715 1.517h0.002c4.335-0.008 8.115-2.379 10.12-5.893l0.030-0.057c6.083-10.862 17.518-18.084 30.641-18.084 0.056 0 0.112 0 0.168 0h-0.009c6.443 0 11.667-5.223 11.667-11.667s-5.223-11.667-11.667-11.667v0c-0.001 0-0.002 0-0.002 0-21.808 0-40.82 11.967-50.83 29.692l-0.151 0.291c-0.957 1.656-1.521 3.642-1.521 5.761 0 4.297 2.323 8.052 5.783 10.076l0.055 0.030z"></path>
</svg>
