<!-- Generated by IcoMoon.io -->
<svg version="1.1" xmlns="http://www.w3.org/2000/svg" width="280" height="280" viewBox="0 0 280 280">
<title>ul-octagon</title>
<path d="M253.283 88.317l-61.483-61.6c-2.154-2.057-5.065-3.337-8.274-3.383h-87.042c-3.219 0.046-6.129 1.326-8.288 3.388l0.005-0.004-61.483 61.6c-2.080 2.096-3.37 4.98-3.383 8.164v87.036c0.014 3.187 1.303 6.070 3.384 8.167l-0.001-0.001 61.483 61.6c2.154 2.057 5.065 3.337 8.274 3.383h87.042c3.219-0.046 6.129-1.326 8.288-3.388l-0.005 0.004 61.483-61.6c2.080-2.096 3.37-4.98 3.383-8.164v-87.036c-0.014-3.187-1.303-6.070-3.384-8.167l0.001 0.001zM233.333 178.617l-54.717 54.717h-77.233l-54.717-54.717v-77.233l54.717-54.717h77.233l54.717 54.717z"></path>
</svg>
