<!-- Generated by IcoMoon.io -->
<svg version="1.1" xmlns="http://www.w3.org/2000/svg" width="280" height="280" viewBox="0 0 280 280">
<title>ul-podium</title>
<path d="M230.883 83.183c-2.156-2.711-5.453-4.434-9.154-4.434-0.022 0-0.044 0-0.066 0h-128.33v-5.833c0.031-10.616 7.148-19.563 16.869-22.36l0.165-0.040c3.029 2.926 7.121 4.77 11.642 4.899l0.025 0.001h11.667c9.665 0 17.5-7.835 17.5-17.5s-7.835-17.5-17.5-17.5v0h-11.667c-5.524 0.008-10.443 2.591-13.622 6.613l-0.028 0.037c-21.942 4.064-38.345 23.036-38.383 45.846v5.837h-11.667c-0.019 0-0.041-0-0.063-0-3.7 0-6.998 1.723-9.136 4.41l-0.018 0.024c-1.71 2.017-2.75 4.648-2.75 7.523 0 0.932 0.109 1.838 0.316 2.706l-0.016-0.079 7.233 29.050c3.596 13.604 14.839 23.828 28.743 25.877l0.191 0.023 9.1 81.667h-10.267c-6.443 0-11.667 5.223-11.667 11.667s5.223 11.667 11.667 11.667v0h116.667c6.443 0 11.667-5.223 11.667-11.667s-5.223-11.667-11.667-11.667v0h-10.267l9.1-81.667c13.978-2.221 25.075-12.458 28.53-25.773l0.054-0.243 7.583-28.933c0.19-0.789 0.3-1.695 0.3-2.627 0-2.875-1.040-5.506-2.764-7.54l0.014 0.017zM164.5 230.417h-49l-9.1-81.667h67.2zM203.117 116.667c-1.298 5.133-5.876 8.872-11.327 8.872-0.119 0-0.238-0.002-0.357-0.005l0.017 0.001h-103.25c-0.101 0.003-0.22 0.005-0.34 0.005-5.451 0-10.029-3.738-11.31-8.791l-0.017-0.081-3.267-14.583h133.467z"></path>
</svg>
