<!-- Generated by IcoMoon.io -->
<svg version="1.1" xmlns="http://www.w3.org/2000/svg" width="280" height="280" viewBox="0 0 280 280">
<title>ul-plane-departure</title>
<path d="M256.667 59.267c0-0.015 0-0.032 0-0.049 0-19.846-16.088-35.933-35.933-35.933-9.935 0-18.928 4.032-25.433 10.549l-32.784 32.784-75.717-25.2c-1.046-0.34-2.249-0.537-3.498-0.537-3.181 0-6.066 1.273-8.17 3.339l0.002-0.002-27.767 27.533c-2.083 2.106-3.37 5.004-3.37 8.202 0 4.66 2.732 8.682 6.682 10.551l0.071 0.030 60.433 27.417-30.333 30.333-19.95-10.033c-1.605-0.885-3.518-1.406-5.553-1.406-3.090 0-5.899 1.201-7.987 3.162l0.006-0.006-20.65 21.117c-2.097 2.109-3.393 5.016-3.393 8.225s1.296 6.116 3.393 8.226l75.716 75.716c2.109 2.097 5.016 3.393 8.225 3.393s6.116-1.296 8.226-3.393l-0.001 0.001 21.117-20.65c2.137-2.115 3.46-5.049 3.46-8.292 0-1.911-0.459-3.715-1.274-5.307l0.031 0.066-10.033-19.95 30.333-30.333 27.417 60.433c1.9 4.021 5.921 6.753 10.581 6.753 3.198 0 6.095-1.287 8.203-3.371l27.532-27.532c2.063-2.103 3.337-4.987 3.337-8.168 0-1.249-0.196-2.452-0.56-3.581l0.023 0.083-25.2-75.717 32.317-33.017c6.486-6.447 10.501-15.374 10.501-25.239 0-0.068-0-0.136-0.001-0.205v0.010zM229.6 68.25l-37.8 37.8c-2.063 2.103-3.337 4.987-3.337 8.168 0 1.249 0.196 2.452 0.56 3.581l-0.023-0.083 25.2 75.6-10.5 10.5-27.417-60.317c-1.588-3.435-4.7-5.931-8.444-6.639l-0.072-0.011c-0.63-0.121-1.354-0.189-2.095-0.189-3.241 0-6.173 1.322-8.288 3.455l-48.068 48.534c-2.114 2.112-3.421 5.030-3.421 8.254 0 1.88 0.445 3.657 1.235 5.23l-0.031-0.067 9.567 19.6-6.533 6.533-58.683-58.8 6.883-6.067 19.95 10.033c1.506 0.76 3.283 1.204 5.163 1.204 3.224 0 6.142-1.308 8.254-3.421v0l48.3-48.533c2.131-2.114 3.449-5.044 3.449-8.282 0-4.691-2.769-8.735-6.761-10.588l-0.072-0.030-60.783-27.417 10.5-10.5 75.6 25.2c1.046 0.34 2.249 0.537 3.498 0.537 3.181 0 6.066-1.273 8.17-3.339l37.798-37.798c2.268-2.318 5.429-3.755 8.925-3.755s6.657 1.437 8.923 3.753l0.002 0.002c2.302 2.137 3.737 5.18 3.737 8.558 0 0.109-0.001 0.217-0.004 0.325l0-0.016c0.006 0.142 0.009 0.308 0.009 0.475 0 3.299-1.292 6.297-3.397 8.514l0.005-0.005z"></path>
</svg>
