<!-- Generated by IcoMoon.io -->
<svg version="1.1" xmlns="http://www.w3.org/2000/svg" width="280" height="280" viewBox="0 0 280 280">
<title>ul-power</title>
<path d="M119.117 72.45l9.217-9.333v53.55c0 6.443 5.223 11.667 11.667 11.667s11.667-5.223 11.667-11.667v0-53.55l9.217 9.333c2.114 2.131 5.045 3.451 8.283 3.451s6.169-1.32 8.283-3.45l0.001-0.001c2.131-2.114 3.451-5.045 3.451-8.283s-1.32-6.169-3.45-8.283l-29.168-29.168c-1.077-1.032-2.356-1.862-3.771-2.422l-0.079-0.028c-1.311-0.553-2.834-0.875-4.433-0.875s-3.123 0.322-4.51 0.904l0.077-0.029c-1.494 0.588-2.773 1.418-3.854 2.454l0.004-0.004-29.167 29.167c-2.12 2.12-3.431 5.048-3.431 8.283 0 6.47 5.245 11.714 11.714 11.714 3.235 0 6.164-1.311 8.283-3.431v0zM210 88.2c-2.15-2.15-5.12-3.479-8.4-3.479-6.561 0-11.879 5.319-11.879 11.879 0 3.28 1.33 6.25 3.479 8.4v0c13.623 13.619 22.050 32.435 22.050 53.22 0 41.559-33.691 75.25-75.25 75.25s-75.25-33.691-75.25-75.25c0-20.785 8.427-39.601 22.050-53.219l0-0c2.15-2.15 3.479-5.12 3.479-8.4 0-6.561-5.319-11.879-11.879-11.879-3.28 0-6.25 1.33-8.4 3.479v0c-17.737 17.84-28.7 42.431-28.7 69.582 0 54.511 44.189 98.7 98.7 98.7s98.7-44.189 98.7-98.7c0-27.151-10.963-51.742-28.705-69.587l0.005 0.005z"></path>
</svg>
