<!-- Generated by IcoMoon.io -->
<svg version="1.1" xmlns="http://www.w3.org/2000/svg" width="280" height="280" viewBox="0 0 280 280">
<title>ul-pound-circle</title>
<path d="M186.667 175h-60.433c1.299-3.466 2.066-7.472 2.1-11.652v-11.682h29.167c6.443 0 11.667-5.223 11.667-11.667s-5.223-11.667-11.667-11.667v0h-29.167v-11.667c-0-0.035-0-0.076-0-0.117 0-12.564 10.186-22.75 22.75-22.75 8.305 0 15.571 4.45 19.543 11.097l0.057 0.104c2.059 3.535 5.832 5.873 10.15 5.873 6.465 0 11.707-5.241 11.707-11.707 0-2.147-0.578-4.159-1.587-5.889l0.030 0.056c-8.419-13.057-22.889-21.579-39.35-21.579-25.157 0-45.664 19.905-46.631 44.825l-0.003 0.088v11.667h-11.667c-6.443 0-11.667 5.223-11.667 11.667s5.223 11.667 11.667 11.667v0h11.667v11.667c0 6.443-5.223 11.667-11.667 11.667v0c-6.443 0-11.667 5.223-11.667 11.667s5.223 11.667 11.667 11.667v0h93.333c6.443 0 11.667-5.223 11.667-11.667s-5.223-11.667-11.667-11.667v0zM140 11.667c-70.877 0-128.333 57.457-128.333 128.333s57.457 128.333 128.333 128.333c70.877 0 128.333-57.457 128.333-128.333v0c0-70.877-57.457-128.333-128.333-128.333v0zM140 245c-57.99 0-105-47.010-105-105s47.010-105 105-105c57.99 0 105 47.010 105 105v0c0 57.99-47.010 105-105 105v0z"></path>
</svg>
