<!-- Generated by IcoMoon.io -->
<svg version="1.1" xmlns="http://www.w3.org/2000/svg" width="280" height="280" viewBox="0 0 280 280">
<title>ul-qrcode-scan</title>
<path d="M93.333 245h-46.667c-6.443 0-11.667-5.223-11.667-11.667v0-46.667c0-6.443-5.223-11.667-11.667-11.667s-11.667 5.223-11.667 11.667v0 46.667c0 19.33 15.67 35 35 35v0h46.667c6.443 0 11.667-5.223 11.667-11.667s-5.223-11.667-11.667-11.667v0zM256.667 175c-6.443 0-11.667 5.223-11.667 11.667v0 46.667c0 6.443-5.223 11.667-11.667 11.667v0h-46.667c-6.443 0-11.667 5.223-11.667 11.667s5.223 11.667 11.667 11.667v0h46.667c19.33 0 35-15.67 35-35v0-46.667c0-6.443-5.223-11.667-11.667-11.667v0zM233.333 11.667h-46.667c-6.443 0-11.667 5.223-11.667 11.667s5.223 11.667 11.667 11.667v0h46.667c6.443 0 11.667 5.223 11.667 11.667v0 46.667c0 6.443 5.223 11.667 11.667 11.667s11.667-5.223 11.667-11.667v0-46.667c0-19.33-15.67-35-35-35v0zM23.333 105c6.443 0 11.667-5.223 11.667-11.667v0-46.667c0-6.443 5.223-11.667 11.667-11.667v0h46.667c6.443 0 11.667-5.223 11.667-11.667s-5.223-11.667-11.667-11.667v0h-46.667c-19.33 0-35 15.67-35 35v0 46.667c0 6.443 5.223 11.667 11.667 11.667v0zM116.667 58.333h-46.667c-6.443 0-11.667 5.223-11.667 11.667v0 46.667c0 6.443 5.223 11.667 11.667 11.667v0h46.667c6.443 0 11.667-5.223 11.667-11.667v0-46.667c0-6.443-5.223-11.667-11.667-11.667v0zM105 105h-23.333v-23.333h23.333zM163.333 128.333h46.667c6.443 0 11.667-5.223 11.667-11.667v0-46.667c0-6.443-5.223-11.667-11.667-11.667v0h-46.667c-6.443 0-11.667 5.223-11.667 11.667v0 46.667c0 6.443 5.223 11.667 11.667 11.667v0zM175 81.667h23.333v23.333h-23.333zM116.667 151.667h-46.667c-6.443 0-11.667 5.223-11.667 11.667v0 46.667c0 6.443 5.223 11.667 11.667 11.667v0h46.667c6.443 0 11.667-5.223 11.667-11.667v0-46.667c0-6.443-5.223-11.667-11.667-11.667v0zM105 198.333h-23.333v-23.333h23.333zM163.333 186.667c6.443 0 11.667-5.223 11.667-11.667v0c6.443 0 11.667-5.223 11.667-11.667s-5.223-11.667-11.667-11.667v0h-11.667c-6.443 0-11.667 5.223-11.667 11.667v0 11.667c0 6.443 5.223 11.667 11.667 11.667v0zM210 151.667c-6.443 0-11.667 5.223-11.667 11.667v0 35c-6.443 0-11.667 5.223-11.667 11.667s5.223 11.667 11.667 11.667v0h11.667c6.443 0 11.667-5.223 11.667-11.667v0-46.667c0-6.443-5.223-11.667-11.667-11.667v0zM163.333 198.333c-6.443 0-11.667 5.223-11.667 11.667s5.223 11.667 11.667 11.667c6.443 0 11.667-5.223 11.667-11.667v0c0-6.443-5.223-11.667-11.667-11.667v0z"></path>
</svg>
