<!-- Generated by IcoMoon.io -->
<svg version="1.1" xmlns="http://www.w3.org/2000/svg" width="280" height="280" viewBox="0 0 280 280">
<title>ul-refresh</title>
<path d="M232.283 180.95h-52.85c-6.443 0-11.667 5.223-11.667 11.667s5.223 11.667 11.667 11.667h28c-17.021 17.765-40.938 28.806-67.434 28.806-51.461 0-93.194-41.648-93.333-93.076v-0.013c0-6.443-5.223-11.667-11.667-11.667s-11.667 5.223-11.667 11.667v0c0.18 64.297 52.344 116.351 116.666 116.351 31.123 0 59.399-12.187 80.318-32.049l-0.051 0.048v20.65c0 6.443 5.223 11.667 11.667 11.667s11.667-5.223 11.667-11.667v0-52.5c-0.062-6.273-5.064-11.357-11.299-11.549l-0.018-0.001zM175 140c0-19.33-15.67-35-35-35s-35 15.67-35 35c0 19.33 15.67 35 35 35v0c19.33 0 35-15.67 35-35v0zM128.333 140c0-6.443 5.223-11.667 11.667-11.667s11.667 5.223 11.667 11.667c0 6.443-5.223 11.667-11.667 11.667v0c-6.443 0-11.667-5.223-11.667-11.667v0zM140 23.333c-31.164 0.092-59.438 12.388-80.31 32.357l0.043-0.041v-20.65c0-6.443-5.223-11.667-11.667-11.667s-11.667 5.223-11.667 11.667v0 52.5c0 6.443 5.223 11.667 11.667 11.667v0h52.5c6.443 0 11.667-5.223 11.667-11.667s-5.223-11.667-11.667-11.667v0h-28c17.021-17.765 40.938-28.806 67.434-28.806 51.42 0 93.128 41.581 93.333 92.953v0.020c0 6.443 5.223 11.667 11.667 11.667s11.667-5.223 11.667-11.667v0c0-64.433-52.233-116.667-116.667-116.667v0z"></path>
</svg>
