<!-- Generated by IcoMoon.io -->
<svg version="1.1" xmlns="http://www.w3.org/2000/svg" width="280" height="280" viewBox="0 0 280 280">
<title>ul-right-indent-alt</title>
<path d="M42.467 111.533c-2.009-1.679-4.619-2.698-7.467-2.698-6.451 0-11.681 5.23-11.681 11.681 0 3.603 1.632 6.826 4.196 8.968l0.019 0.015 12.6 10.5-12.6 10.5c-2.586 2.155-4.221 5.377-4.221 8.981 0 2.85 1.022 5.461 2.719 7.487l-0.015-0.018c2.155 2.586 5.377 4.221 8.981 4.221 2.85 0 5.461-1.022 7.487-2.719l-0.018 0.015 23.333-19.483c2.588-2.155 4.223-5.378 4.223-8.983s-1.635-6.828-4.204-8.968l-0.019-0.015zM105 58.333c-6.443 0-11.667 5.223-11.667 11.667v0 140c0 6.443 5.223 11.667 11.667 11.667s11.667-5.223 11.667-11.667v0-140c0-6.443-5.223-11.667-11.667-11.667v0zM151.667 81.667h93.333c6.443 0 11.667-5.223 11.667-11.667s-5.223-11.667-11.667-11.667v0h-93.333c-6.443 0-11.667 5.223-11.667 11.667s5.223 11.667 11.667 11.667v0zM245 198.333h-93.333c-6.443 0-11.667 5.223-11.667 11.667s5.223 11.667 11.667 11.667v0h93.333c6.443 0 11.667-5.223 11.667-11.667s-5.223-11.667-11.667-11.667v0zM245 105h-93.333c-6.443 0-11.667 5.223-11.667 11.667s5.223 11.667 11.667 11.667v0h93.333c6.443 0 11.667-5.223 11.667-11.667s-5.223-11.667-11.667-11.667v0zM245 151.667h-93.333c-6.443 0-11.667 5.223-11.667 11.667s5.223 11.667 11.667 11.667v0h93.333c6.443 0 11.667-5.223 11.667-11.667s-5.223-11.667-11.667-11.667v0z"></path>
</svg>
