<!-- Generated by IcoMoon.io -->
<svg version="1.1" xmlns="http://www.w3.org/2000/svg" width="280" height="280" viewBox="0 0 280 280">
<title>ul-rainbow</title>
<path d="M58.333 140c-6.443 0-11.667 5.223-11.667 11.667s5.223 11.667 11.667 11.667v0c32.217 0 58.333 26.117 58.333 58.333v0c0 6.443 5.223 11.667 11.667 11.667s11.667-5.223 11.667-11.667v0c0-45.103-36.564-81.667-81.667-81.667v0zM58.333 46.667c-6.443 0-11.667 5.223-11.667 11.667s5.223 11.667 11.667 11.667v0c83.763 0 151.667 67.904 151.667 151.667v0c0 6.443 5.223 11.667 11.667 11.667s11.667-5.223 11.667-11.667v0c0-96.65-78.35-175-175-175v0zM58.333 93.333c-6.443 0-11.667 5.223-11.667 11.667s5.223 11.667 11.667 11.667v0c57.99 0 105 47.010 105 105v0c0 6.443 5.223 11.667 11.667 11.667s11.667-5.223 11.667-11.667v0c0-70.877-57.457-128.333-128.333-128.333v0z"></path>
</svg>
