<!-- Generated by IcoMoon.io -->
<svg version="1.1" xmlns="http://www.w3.org/2000/svg" width="280" height="280" viewBox="0 0 280 280">
<title>ul-react</title>
<path d="M129.535 121.776c-6.272 3.67-10.418 10.373-10.418 18.044 0 11.507 9.329 20.836 20.836 20.836s20.836-9.329 20.836-20.836c0-3.836-1.037-7.43-2.845-10.517l0.053 0.098c-3.67-6.271-10.373-10.417-18.044-10.417-3.836 0-7.429 1.036-10.516 2.844l0.098-0.053zM222.923 144.382q-2.052-2.345-4.33-4.703 1.591-1.673 3.080-3.343c18.735-21.050 26.642-42.16 19.315-54.851-7.025-12.168-27.923-15.795-54.086-10.708q-3.865 0.756-7.688 1.706-0.732-2.523-1.557-5.017c-8.876-26.746-23.213-44.144-37.866-44.134-14.051 0.006-27.632 16.299-36.296 41.504q-1.279 3.73-2.366 7.522-2.556-0.627-5.133-1.159c-27.603-5.668-49.836-1.935-57.148 10.764-7.012 12.177 0.321 32.081 17.833 52.175q2.605 2.982 5.357 5.831c-2.163 2.228-4.212 4.455-6.121 6.67-17.087 19.81-24 39.388-17 51.513 7.23 12.524 29.15 16.618 55.83 11.368q3.243-0.643 6.451-1.447 1.175 4.102 2.578 8.132c8.625 24.699 22.13 40.467 36.132 40.462 14.46-0.008 28.956-16.95 37.739-42.686 0.694-2.034 1.35-4.146 1.973-6.321q4.143 1.031 8.34 1.829c25.706 4.863 46.112 1.038 53.1-11.095 7.215-12.533-0.224-33.554-18.135-54.014zM47.485 86.938c4.502-7.817 22.671-10.866 46.504-5.973q2.285 0.47 4.648 1.050c-2.099 8.78-3.836 19.433-4.844 30.296l-0.071 0.943c-9.151 6.474-17.156 12.959-24.719 19.916l0.173-0.157q-2.56-2.648-4.984-5.424l0.001 0.001c-15.004-17.216-20.934-33.314-16.709-40.652zM92.83 153.766c-5.957-4.51-11.492-9.131-16.517-13.778 5.021-4.618 10.56-9.224 16.504-13.722q-0.32 6.873-0.317 13.757 0.005 6.874 0.33 13.743zM92.823 199.74c-5.507 1.279-11.831 2.013-18.326 2.013-4.401 0-8.723-0.337-12.942-0.986l0.471 0.060c-5.875-0.471-10.999-3.341-14.448-7.617l-0.031-0.039c-4.248-7.358 1.304-23.077 15.917-40.019q2.756-3.185 5.692-6.204c7.405 6.847 15.422 13.357 23.843 19.336l0.74 0.498c1.094 11.962 2.851 22.751 5.292 33.278l-0.32-1.638q-2.928 0.732-5.89 1.319zM175.669 105.947q-5.869-3.698-11.884-7.159-5.919-3.407-11.979-6.558c6.918-2.909 13.719-5.393 20.284-7.418 1.334 5.627 2.591 12.813 3.478 20.114l0.101 1.021zM112.922 68.077c7.423-21.597 18.406-34.773 26.875-34.777 9.019-0.004 20.738 14.213 28.401 37.306q0.747 2.258 1.412 4.542c-11.747 3.661-21.513 7.505-30.941 11.948l1.458-0.617c-7.975-3.884-17.706-7.769-27.731-10.995l-1.657-0.461q1.007-3.499 2.185-6.946zM108.251 84.688c8.349 2.627 15.035 5.169 21.552 8.026l-1.372-0.536q-12.26 6.327-23.886 13.783c0.936-7.443 2.182-14.575 3.706-21.273zM104.561 174.063q5.798 3.712 11.765 7.148 6.087 3.505 12.336 6.715c-5.22 2.413-11.958 5.042-18.853 7.327l-1.499 0.43c-1.542-6.791-2.801-14.048-3.749-21.621zM168.211 210.76c-3.334 10.44-8.26 19.494-14.574 27.389l0.13-0.168-0.001 0.001c-3.179 4.593-8.079 7.803-13.748 8.7l-0.117 0.015c-8.496 0.005-19.339-12.658-26.716-33.78q-1.303-3.746-2.398-7.56c11.722-3.801 21.484-7.791 30.893-12.392l-1.386 0.612c8.024 3.845 17.868 7.718 28.001 10.944l1.719 0.472q-0.831 2.905-1.803 5.767zM172.437 195.311c-6.641-2.053-13.54-4.58-20.558-7.531q5.934-3.123 11.955-6.597 6.178-3.568 12.041-7.314c-0.914 8.376-2.124 15.678-3.696 22.844l0.258-1.402zM177.644 139.98q0.013 10.628-0.664 21.238c-5.748 3.89-11.816 7.688-18.13 11.333-6.288 3.63-12.517 6.966-18.629 9.985q-9.646-4.623-18.921-9.963-9.222-5.308-18.021-11.305-0.804-10.607-0.81-21.253l0.001 0.002q-0.007-10.638 0.793-21.255c5.746-3.924 11.771-7.72 17.999-11.316 6.257-3.613 12.565-6.935 18.838-9.945q9.527 4.63 18.711 9.924 9.216 5.297 18.072 11.185 0.76 10.668 0.761 21.369zM188.806 80.564c22.416-4.36 39.317-1.427 43.551 5.906 4.51 7.812-1.954 25.066-18.128 43.241l-0.001 0.001q-1.34 1.504-2.781 3.021c-7.496-6.798-15.655-13.267-24.227-19.179l-0.786-0.512c-1.008-11.64-2.681-22.186-5.032-32.474l0.302 1.57q3.62-0.891 7.103-1.572zM187.29 125.885c6.364 4.668 11.919 9.211 17.23 14.019l-0.181-0.161c-5.146 4.755-10.683 9.374-16.45 13.705l-0.545 0.392q0.271-6.929 0.267-13.865-0.003-7.047-0.321-14.090zM232.418 193.421c-4.24 7.363-20.625 10.434-42.609 6.275q-3.779-0.713-7.755-1.698c2.011-8.88 3.614-19.573 4.469-30.477l0.051-0.81c9.299-6.505 17.431-13.079 25.087-20.16l-0.154 0.141q2.058 2.138 3.916 4.257v-0.001c6.792 7.367 12.322 16.024 16.167 25.543l0.202 0.567c1.278 2.604 2.025 5.668 2.025 8.905 0 2.684-0.513 5.247-1.446 7.598l0.049-0.139z"></path>
</svg>
