<!-- Generated by IcoMoon.io -->
<svg version="1.1" xmlns="http://www.w3.org/2000/svg" width="280" height="280" viewBox="0 0 280 280">
<title>ul-raindrops-alt</title>
<path d="M105 90.417c0-32.083-30.1-52.617-31.383-53.433-1.832-1.253-4.095-2.001-6.533-2.001s-4.701 0.748-6.573 2.027l0.040-0.026c-1.283 0.933-31.383 21.35-31.383 53.433 0 20.941 16.976 37.917 37.917 37.917s37.917-16.976 37.917-37.917v0zM67.083 105c-8.054 0-14.583-6.529-14.583-14.583v0c1.023-11.467 6.44-21.501 14.532-28.539l0.052-0.044c8.192 7.046 13.625 17.1 14.573 28.43l0.010 0.153c0 8.054-6.529 14.583-14.583 14.583v0zM137.783 118.65c-1.832-1.253-4.095-2.001-6.533-2.001s-4.701 0.748-6.573 2.027l0.040-0.026c-1.983 1.4-48.883 33.833-48.883 82.6 0 30.606 24.811 55.417 55.417 55.417s55.417-24.811 55.417-55.417v0c0-49.583-46.667-81.317-48.883-82.6zM131.25 233.333c-17.719 0-32.083-14.364-32.083-32.083v0c0-26.95 21.117-48.65 32.2-58.333 10.967 9.217 31.967 30.683 31.967 58.333 0 17.719-14.364 32.083-32.083 32.083v0zM210.7 25.317c-1.832-1.253-4.095-2.001-6.533-2.001s-4.701 0.748-6.573 2.027l0.040-0.026c-1.633 1.167-40.133 27.767-40.133 68.017 0 25.773 20.893 46.667 46.667 46.667s46.667-20.893 46.667-46.667v0c0-40.717-38.5-66.967-40.133-68.017zM204.167 116.667c-12.887 0-23.333-10.447-23.333-23.333v0c1.718-17.607 10.399-32.906 23.216-43.308l0.118-0.092c12.984 10.454 21.684 25.774 23.314 43.15l0.019 0.25c0 12.887-10.447 23.333-23.333 23.333v0z"></path>
</svg>
