<!-- Generated by IcoMoon.io -->
<svg version="1.1" xmlns="http://www.w3.org/2000/svg" width="280" height="280" viewBox="0 0 280 280">
<title>ul-skype</title>
<path d="M250.069 165.148c1.569-7.024 2.468-15.090 2.468-23.367 0-0.096 0-0.192-0-0.288v0.015c-0.356-60.79-49.718-109.932-110.558-109.932-0.262 0-0.524 0.001-0.786 0.003l0.040-0c-0.081-0-0.177-0-0.273-0-6.604 0-13.066 0.602-19.337 1.754l0.653-0.1c-9.744-6.211-21.621-9.899-34.359-9.899-35.382 0-64.119 28.453-64.576 63.727l-0.001 0.043c0.008 11.859 3.274 22.954 8.951 32.439l-0.16-0.288c-1.36 6.591-2.16 14.183-2.201 21.953v0.033c0.521 59.777 49.1 108.034 108.95 108.034 0.827 0 1.653-0.009 2.476-0.028l-0.123 0.002c0.222 0.002 0.484 0.003 0.747 0.003 6.931 0 13.696-0.705 20.23-2.048l-0.645 0.111c8.715 5.368 19.161 8.771 30.353 9.346l0.158 0.007c0.357 0.007 0.778 0.011 1.2 0.011 35.007 0 63.385-28.378 63.385-63.385 0-10.254-2.435-19.939-6.757-28.509l0.166 0.363zM191.796 186.586c-4.8 6.386-11.225 11.309-18.668 14.19l-0.289 0.098c-8.101 3.318-17.503 5.245-27.355 5.245-0.721 0-1.439-0.010-2.154-0.031l0.105 0.002c-0.701 0.024-1.525 0.038-2.352 0.038-11.439 0-22.259-2.648-31.882-7.365l0.428 0.189c-6.249-3.373-11.414-8.008-15.302-13.598l-0.094-0.143c-3.377-4.575-5.499-10.261-5.761-16.428l-0.002-0.062c-0.001-0.056-0.002-0.122-0.002-0.188 0-3.109 1.381-5.896 3.564-7.779l0.013-0.011c2.25-2.050 5.255-3.306 8.553-3.306 0.178 0 0.355 0.004 0.531 0.011l-0.025-0.001c0.136-0.006 0.295-0.009 0.454-0.009 2.656 0 5.093 0.94 6.996 2.506l-0.019-0.015c2.242 2.095 4.015 4.661 5.166 7.543l0.050 0.141c1.521 3.892 3.468 7.254 5.841 10.264l-0.064-0.084c2.201 2.868 5.068 5.118 8.376 6.538l0.136 0.052c4.031 1.745 8.725 2.76 13.656 2.76 0.321 0 0.64-0.004 0.959-0.013l-0.047 0.001c0.556 0.033 1.208 0.051 1.863 0.051 6.751 0 13.044-1.963 18.339-5.349l-0.137 0.082c4.575-2.709 7.614-7.588 7.698-13.182l0-0.012c0.007-0.165 0.011-0.359 0.011-0.554 0-3.782-1.585-7.194-4.128-9.606l-0.006-0.005c-2.931-2.779-6.538-4.875-10.547-6.014l-0.18-0.044c-4.388-1.374-10.446-2.748-17.863-4.388-9.694-2.071-18.058-4.626-26.108-7.803l1.106 0.385c-6.409-2.612-11.774-6.652-15.885-11.745l-0.058-0.075c-3.618-4.77-5.796-10.806-5.796-17.35 0-0.373 0.007-0.744 0.021-1.114l-0.002 0.053c0-0.011 0-0.023 0-0.036 0-7.051 2.378-13.545 6.377-18.726l-0.053 0.071c4.603-5.703 10.648-10.067 17.586-12.56l0.278-0.087c7.684-2.797 16.553-4.414 25.8-4.414 0.69 0 1.378 0.009 2.063 0.027l-0.101-0.002c0.284-0.004 0.62-0.006 0.956-0.006 7.495 0 14.733 1.104 21.558 3.158l-0.529-0.137c5.882 1.734 11.004 4.367 15.499 7.783l-0.117-0.085c3.668 2.754 6.7 6.134 8.986 10.007l0.087 0.159c1.691 2.922 2.706 6.421 2.748 10.154v0.012c0 0.009 0 0.020 0 0.031 0 3.24-1.373 6.159-3.569 8.207l-0.007 0.006c-2.11 2.209-5.079 3.583-8.369 3.583-0.149 0-0.297-0.003-0.445-0.008l0.021 0.001c-0.2 0.013-0.435 0.020-0.671 0.020-2.54 0-4.885-0.834-6.777-2.242l0.030 0.022c-2.168-2.030-3.998-4.384-5.424-6.992l-0.073-0.145c-2.271-4.467-5.322-8.221-9.009-11.224l-0.063-0.049c-4.172-2.648-9.254-4.221-14.703-4.221-0.821 0-1.634 0.036-2.437 0.106l0.104-0.007c-0.438-0.022-0.952-0.034-1.468-0.034-5.953 0-11.52 1.649-16.27 4.516l0.141-0.079c-3.787 2.067-6.366 5.932-6.589 10.417l-0.001 0.030c0.016 2.484 0.84 4.773 2.222 6.619l-0.021-0.029c1.684 2.009 3.802 3.597 6.216 4.628l0.108 0.041c2.293 1.278 4.949 2.32 7.75 2.986l0.214 0.043c2.749 0.827 7.152 1.921 13.461 3.295 7.698 1.654 14.849 3.575 21.172 5.496 6.169 1.855 11.547 4.381 16.456 7.567l-0.246-0.15c4.29 2.847 7.797 6.53 10.361 10.84l0.084 0.153c2.425 4.481 3.851 9.809 3.851 15.47 0 0.265-0.003 0.529-0.009 0.792l0.001-0.039c0.020 0.434 0.031 0.943 0.031 1.455 0 7.398-2.383 14.24-6.422 19.8l0.067-0.097z"></path>
</svg>
