<!-- Generated by IcoMoon.io -->
<svg version="1.1" xmlns="http://www.w3.org/2000/svg" width="280" height="280" viewBox="0 0 280 280">
<title>ul-sperms</title>
<path d="M129.033 234.5c-2.974-1.393-5.495-3.279-7.565-5.579l-0.019-0.021c-3.665-3.546-6.388-8.045-7.769-13.098l-0.047-0.202c-2.737-9.655-8.080-17.831-15.22-23.98l-0.064-0.054c0.555-2.549 0.872-5.477 0.872-8.48 0-11.669-4.799-22.218-12.531-29.78l-0.008-0.007c-7.052-8.061-17.359-13.124-28.848-13.124-9.441 0-18.084 3.419-24.757 9.086l0.055-0.045c-5.628 6.636-9.051 15.296-9.051 24.757 0 11.51 5.066 21.837 13.091 28.872l0.044 0.038c6.723 6.849 15.602 11.561 25.536 13.036l0.247 0.030h4.2c0.030 0 0.066 0 0.101 0 6.583 0 12.719-1.913 17.883-5.213l-0.134 0.080c2.813 2.937 4.889 6.602 5.915 10.685l0.035 0.165c2.662 9.218 7.52 17.096 13.984 23.318l0.016 0.016c3.949 4.126 8.578 7.562 13.713 10.136l0.287 0.13c1.486 0.736 3.235 1.167 5.086 1.167 0.017 0 0.034 0 0.050 0h-0.002c0.014 0 0.031 0 0.048 0 6.443 0 11.667-5.223 11.667-11.667 0-4.593-2.655-8.567-6.513-10.47l-0.068-0.030zM73.733 190.517c-1.734 1.469-3.996 2.362-6.467 2.362-0.601 0-1.189-0.053-1.761-0.154l0.060 0.009c-4.874-0.613-9.146-2.816-12.365-6.065l-0.002-0.002c-6.65-6.533-8.517-16.217-4.2-20.65 1.669-1.452 3.863-2.337 6.265-2.337 0.094 0 0.188 0.001 0.282 0.004l-0.014-0c5.664 0.117 10.759 2.458 14.466 6.182l0.001 0.001c3.381 3.181 5.704 7.454 6.403 12.253l0.014 0.113c0.059 0.407 0.092 0.878 0.092 1.356 0 2.688-1.057 5.13-2.779 6.931l0.004-0.004zM248.733 119.117c-4.207-1.433-7.777-3.8-10.601-6.865l-0.016-0.018c-3.665-3.546-6.387-8.045-7.769-13.098l-0.047-0.202c-2.737-9.655-8.080-17.831-15.22-23.98l-0.064-0.054c0.494-2.408 0.777-5.176 0.777-8.010 0-11.908-4.997-22.648-13.009-30.239l-0.019-0.018c-7.053-8.061-17.359-13.124-28.848-13.124-9.441 0-18.084 3.419-24.757 9.086l0.055-0.045c-5.628 6.636-9.051 15.296-9.051 24.757 0 11.51 5.066 21.837 13.091 28.872l0.044 0.038c6.866 6.956 15.967 11.691 26.137 13.042l0.23 0.025h4.2c0.030 0 0.066 0 0.101 0 6.583 0 12.719-1.913 17.883-5.213l-0.134 0.080c2.813 2.937 4.889 6.602 5.915 10.685l0.035 0.165c2.706 9.204 7.556 17.072 13.987 23.321l0.013 0.012c5.401 5.547 12.042 9.858 19.477 12.49l0.356 0.11c1.11 0.338 2.39 0.549 3.714 0.583l0.019 0c0.009 0 0.019 0 0.030 0 5.107 0 9.448-3.282 11.029-7.851l0.025-0.082c0.315-1.007 0.496-2.165 0.496-3.365 0-5.161-3.352-9.54-7.997-11.078l-0.082-0.024zM190.4 73.85c-1.734 1.469-3.996 2.362-6.467 2.362-0.601 0-1.189-0.053-1.761-0.154l0.060 0.009c-4.874-0.613-9.146-2.816-12.365-6.065l-0.002-0.002c-6.65-6.533-8.517-16.217-4.2-20.65 1.669-1.452 3.863-2.337 6.265-2.337 0.094 0 0.188 0.001 0.282 0.004l-0.014-0c5.664 0.117 10.759 2.458 14.466 6.182l0.001 0.001c3.381 3.181 5.704 7.454 6.403 12.253l0.014 0.113c0.059 0.407 0.092 0.878 0.092 1.356 0 2.688-1.057 5.13-2.779 6.931l0.004-0.004zM253.283 238.583c-4.783-18.567-19.117-32.901-37.323-37.604l-0.36-0.079c-6.38-1.846-11.846-5.161-16.214-9.564l-0.002-0.002c-4.417-4.284-7.677-9.738-9.28-15.862l-0.053-0.238c-5.281-18.572-19.723-32.859-38.003-37.829l-0.38-0.088c-6.364-1.65-11.819-4.911-16.091-9.324l-0.009-0.009c-4.444-4.327-7.738-9.814-9.394-15.972l-0.056-0.245c-2.333-8.407-6.36-15.684-11.718-21.759l0.051 0.059c1.471-4.304 2.32-9.262 2.32-14.419 0-1.084-0.037-2.159-0.111-3.225l0.008 0.144c-1.704-12.911-7.629-24.197-16.321-32.654l-0.013-0.012c-8.516-8.813-19.884-14.821-32.613-16.535l-0.287-0.032c-1.197-0.127-2.586-0.2-3.992-0.2-11.123 0-21.185 4.538-28.438 11.863l-0.003 0.003c-7.328 7.256-11.866 17.318-11.866 28.441 0 1.406 0.072 2.795 0.214 4.164l-0.014-0.171c1.704 12.911 7.629 24.197 16.321 32.654l0.013 0.012c8.516 8.813 19.884 14.821 32.613 16.535l0.287 0.032h5.017c0.254 0.006 0.554 0.009 0.854 0.009 8.406 0 16.2-2.623 22.608-7.094l-0.129 0.085c1.515 2.383 2.751 5.137 3.565 8.067l0.051 0.217c5.728 20.445 21.532 36.211 41.58 41.784l0.42 0.1c10.435 2.93 18.476 11.010 21.3 21.253l0.050 0.214c5.671 20.506 21.494 36.329 41.581 41.901l0.419 0.099c10.393 2.989 18.348 11.176 20.956 21.493l0.044 0.207c0.53 2.077 1.169 3.863 1.95 5.57l-0.084-0.204c1.97 3.745 5.82 6.264 10.262 6.3h0.005c1.871-0.069 3.625-0.492 5.223-1.202l-0.090 0.036c3.995-1.909 6.706-5.918 6.706-10.559 0-1.8-0.408-3.505-1.136-5.028l0.030 0.070s-0.35-1.167-0.467-1.4zM89.133 89.133c-7.467 7.35-22.4 4.783-32.783-5.483-5.079-4.862-8.575-11.34-9.661-18.605l-0.022-0.178c-0.132-0.798-0.206-1.717-0.206-2.654 0-4.359 1.626-8.339 4.306-11.364l-0.016 0.018c2.869-2.616 6.702-4.218 10.909-4.218 0.267 0 0.532 0.007 0.795 0.019l-0.037-0.001c8.418 0.399 15.916 4.032 21.34 9.673l0.010 0.010c5.035 4.875 8.492 11.352 9.546 18.608l0.021 0.175c0.121 0.764 0.189 1.645 0.189 2.542 0 4.412-1.666 8.435-4.403 11.474l0.014-0.015z"></path>
</svg>
