<!-- Generated by IcoMoon.io -->
<svg version="1.1" xmlns="http://www.w3.org/2000/svg" width="280" height="280" viewBox="0 0 280 280">
<title>ul-streering</title>
<path d="M140 140c-6.443 0-11.667 5.223-11.667 11.667s5.223 11.667 11.667 11.667c6.443 0 11.667-5.223 11.667-11.667v0c0-6.443-5.223-11.667-11.667-11.667v0zM253.283 112.467c-13.13-51.126-58.807-88.304-113.167-88.304s-100.037 37.178-112.99 87.495l-0.177 0.809c-2.149 8.266-3.382 17.756-3.382 27.533s1.234 19.267 3.554 28.322l-0.171-0.788c10.523 42.229 43.021 74.883 84.359 85.458l0.808 0.175c8.231 2.149 17.68 3.382 27.417 3.382s19.186-1.233 28.199-3.553l-0.783 0.171c42.112-10.655 74.628-43.172 85.11-84.477l0.173-0.807c2.149-8.266 3.382-17.756 3.382-27.533s-1.234-19.267-3.554-28.322l0.171 0.788zM140 46.667c38.904 0.031 72.234 23.86 86.223 57.713l0.227 0.62h-172.9c14.216-34.474 47.546-58.302 86.446-58.333h0.004zM46.667 140c0.039-4.153 0.335-8.197 0.872-12.164l-0.055 0.497h22.517v23.333h-22.517c-0.482-3.47-0.777-7.514-0.816-11.619l-0-0.047zM105 226.45c-23.479-9.689-41.761-27.971-51.223-50.831l-0.227-0.619h28.117c12.887 0 23.333 10.447 23.333 23.333v0zM151.667 232.517c-3.47 0.482-7.514 0.777-11.619 0.816l-0.047 0c-4.153-0.039-8.197-0.335-12.164-0.872l0.497 0.055v-22.517h23.333zM153.3 186.667h-26.6c-4.373-16.364-17.003-28.993-33.040-33.292l-0.326-0.074v-24.967h93.333v24.967c-16.364 4.373-28.993 17.003-33.292 33.040l-0.074 0.326zM175 226.45v-28.117c0-12.887 10.447-23.333 23.333-23.333v0h28.117c-9.689 23.479-27.971 41.761-50.831 51.223l-0.619 0.227zM232.517 151.667h-22.517v-23.333h22.517c0.482 3.47 0.777 7.514 0.816 11.619l0 0.047c-0.039 4.153-0.335 8.197-0.872 12.164l0.055-0.497z"></path>
</svg>
