<!-- Generated by IcoMoon.io -->
<svg version="1.1" xmlns="http://www.w3.org/2000/svg" width="280" height="280" viewBox="0 0 280 280">
<title>ul-shopping-cart-alt</title>
<path d="M250.833 175c-0.056-14.659-9.114-27.188-21.931-32.35l-0.235-0.084 21.817-81.667c0.242-0.887 0.381-1.906 0.381-2.957 0-2.725-0.934-5.232-2.5-7.217l0.019 0.025c-2.153-2.509-5.327-4.088-8.87-4.088-0.122 0-0.243 0.002-0.364 0.005l0.018-0.001h-159.833l-3.85-14.7c-1.382-5.013-5.901-8.634-11.265-8.634-0.018 0-0.036 0-0.054 0h-23.331v23.333h14.35l28.933 108.033c1.38 5.016 5.9 8.64 11.267 8.64 0.141 0 0.28-0.002 0.419-0.007l-0.020 0.001h120.050c6.443 0 11.667 5.223 11.667 11.667s-5.223 11.667-11.667 11.667v0h-151.667c-6.443 0-11.667 5.223-11.667 11.667s5.223 11.667 11.667 11.667v0h13.767c-1.33 3.552-2.1 7.657-2.1 11.941 0 19.33 15.67 35 35 35s35-15.67 35-35c0-4.284-0.77-8.389-2.179-12.183l0.079 0.242h27.533c-1.329 3.551-2.099 7.655-2.099 11.938 0 19.33 15.67 35 35 35s35-15.67 35-35c0-0.095-0-0.191-0.001-0.286v0.014c-0.024-6.322-1.754-12.236-4.754-17.309l0.087 0.159c9.852-6.284 16.3-17.144 16.333-29.512v-0.005zM205.217 140h-100.217l-19.367-70h138.367zM110.833 233.333c-6.443 0-11.667-5.223-11.667-11.667s5.223-11.667 11.667-11.667c6.443 0 11.667 5.223 11.667 11.667v0c0 6.443-5.223 11.667-11.667 11.667v0zM204.167 233.333c-6.443 0-11.667-5.223-11.667-11.667s5.223-11.667 11.667-11.667c6.443 0 11.667 5.223 11.667 11.667v0c0 6.443-5.223 11.667-11.667 11.667v0z"></path>
</svg>
