<!-- Generated by IcoMoon.io -->
<svg version="1.1" xmlns="http://www.w3.org/2000/svg" width="280" height="280" viewBox="0 0 280 280">
<title>ul-swimmer</title>
<path d="M198.333 108.267c12.887 0 23.333-10.447 23.333-23.333s-10.447-23.333-23.333-23.333c-12.887 0-23.333 10.447-23.333 23.333v0c0 12.887 10.447 23.333 23.333 23.333v0zM31.617 162.4c2.553 0.825 4.753 1.813 6.819 3.007l-0.169-0.090c6.849 4.074 15.102 6.482 23.917 6.482s17.067-2.408 24.136-6.602l-0.219 0.12c4.3-2.451 9.448-3.896 14.933-3.896s10.634 1.445 15.084 3.975l-0.151-0.079 2.45 1.167c6.174 3.074 13.448 4.873 21.142 4.873 8.834 0 17.115-2.372 24.239-6.513l-0.231 0.124c4.3-2.451 9.448-3.896 14.933-3.896s10.634 1.445 15.084 3.975l-0.151-0.079c6.971 4.054 15.33 6.471 24.248 6.533h0.018c8.622-0.092 16.661-2.509 23.544-6.651l-0.211 0.118c1.897-1.103 4.097-2.091 6.403-2.846l0.247-0.070c6.089-0.432 10.865-5.478 10.865-11.639 0-6.443-5.223-11.667-11.667-11.667-1.921 0-3.733 0.464-5.331 1.287l0.065-0.031c-4.461 1.402-8.324 3.144-11.928 5.276l0.261-0.143c-3.514 2.064-7.74 3.282-12.25 3.282s-8.736-1.219-12.366-3.345l0.116 0.063c-7.619-4.375-16.749-6.955-26.483-6.955s-18.865 2.58-26.747 7.094l0.264-0.139c-0.909 0.46-2.027 0.934-3.177 1.337l-0.206 0.063 18.2-18.2c0.395-0.507 0.746-1.082 1.028-1.696l0.022-0.054c0.509-0.552 0.971-1.163 1.371-1.816l0.029-0.051c0.026-0.332 0.041-0.718 0.041-1.108s-0.015-0.777-0.044-1.159l0.003 0.051c0.032-0.332 0.050-0.718 0.050-1.108s-0.018-0.776-0.053-1.157l0.004 0.049c0.027-0.314 0.042-0.68 0.042-1.050s-0.015-0.736-0.045-1.098l0.003 0.048c0.032-0.332 0.050-0.718 0.050-1.108s-0.018-0.776-0.053-1.157l0.004 0.049c-0.392-0.774-0.779-1.423-1.205-2.043l0.039 0.060c-0.325-0.713-0.715-1.327-1.177-1.88l0.010 0.013-35.817-38.85s0 0 0 0c-0.929-1.010-2.006-1.865-3.202-2.533l-0.065-0.033c-0.368-0.051-0.793-0.081-1.225-0.081s-0.857 0.029-1.273 0.086l0.048-0.005c-0.298-0.051-0.641-0.080-0.992-0.080s-0.693 0.029-1.028 0.085l0.036-0.005c-1.147-0.475-2.48-0.751-3.876-0.751-0.361 0-0.717 0.018-1.068 0.054l0.044-0.004-41.3 15.4c-4.526 1.673-7.694 5.951-7.694 10.969 0 1.422 0.254 2.785 0.72 4.045l-0.026-0.081c1.673 4.526 5.951 7.694 10.969 7.694 1.422 0 2.785-0.254 4.045-0.72l-0.081 0.026 34.183-12.483 23.333 24.733-22.167 22.167c-5.791-2.318-12.503-3.662-19.529-3.662-9.715 0-18.83 2.57-26.702 7.068l0.264-0.139c-3.514 2.064-7.74 3.282-12.25 3.282s-8.736-1.219-12.366-3.345l0.116 0.063c-3.343-1.99-7.206-3.731-11.268-5.024l-0.398-0.109c-1.212-0.466-2.614-0.736-4.078-0.736-6.443 0-11.667 5.223-11.667 11.667 0 5.49 3.791 10.093 8.898 11.336l0.080 0.016zM241.617 198.45c-4.461 1.402-8.324 3.144-11.928 5.276l0.261-0.143c-3.514 2.064-7.74 3.282-12.25 3.282s-8.736-1.219-12.366-3.345l0.116 0.063c-7.619-4.375-16.749-6.955-26.483-6.955s-18.865 2.58-26.747 7.094l0.264-0.139c-3.545 2.094-7.811 3.332-12.367 3.332s-8.822-1.237-12.482-3.394l0.115 0.063c-7.619-4.375-16.749-6.955-26.483-6.955s-18.865 2.58-26.747 7.094l0.264-0.139c-3.514 2.064-7.74 3.282-12.25 3.282s-8.736-1.219-12.366-3.345l0.116 0.063c-3.343-1.99-7.206-3.731-11.268-5.024l-0.398-0.109c-1.212-0.466-2.614-0.736-4.078-0.736-6.443 0-11.667 5.223-11.667 11.667 0 5.49 3.791 10.093 8.898 11.336l0.080 0.016c2.553 0.825 4.753 1.813 6.819 3.007l-0.169-0.090c6.849 4.074 15.102 6.482 23.917 6.482s17.067-2.408 24.136-6.602l-0.219 0.12c4.3-2.451 9.448-3.896 14.933-3.896s10.634 1.445 15.084 3.975l-0.151-0.079c6.902 4.016 15.191 6.386 24.033 6.386s17.131-2.37 24.265-6.51l-0.232 0.124c4.3-2.451 9.448-3.896 14.933-3.896s10.634 1.445 15.084 3.975l-0.151-0.079c6.971 4.054 15.33 6.471 24.248 6.533h0.018c8.622-0.092 16.661-2.509 23.544-6.651l-0.211 0.118c1.897-1.103 4.097-2.091 6.403-2.846l0.247-0.070c4.852-1.5 8.317-5.945 8.317-11.2 0-6.462-5.238-11.7-11.7-11.7-1.207 0-2.371 0.183-3.466 0.522l0.083-0.022z"></path>
</svg>
