<!-- Generated by IcoMoon.io -->
<svg version="1.1" xmlns="http://www.w3.org/2000/svg" width="280" height="280" viewBox="0 0 280 280">
<title>ul-skip-forward</title>
<path d="M221.667 35c-19.33 0-35 15.67-35 35v0 33.133l-105-62.65c-5.482-3.324-12.107-5.291-19.192-5.291s-13.71 1.967-19.359 5.385l0.167-0.094c-12.001 6.914-19.95 19.671-19.95 34.284 0 0.047 0 0.093 0 0.14v-0.007 130.2c-0.003 0.192-0.005 0.419-0.005 0.647 0 14.663 8.003 27.456 19.879 34.251l0.193 0.102c5.353 3.082 11.771 4.9 18.613 4.9 0.060 0 0.119-0 0.179-0.001h-0.009c7.204-0.050 13.923-2.082 19.652-5.579l-0.168 0.095 105-62.65v33.133c0 19.33 15.67 35 35 35s35-15.67 35-35v0-140c0-19.33-15.67-35-35-35v0zM178.733 154.35l-108.733 65.1c-2.127 1.316-4.706 2.096-7.467 2.096s-5.34-0.78-7.529-2.131l0.062 0.036c-5.047-2.844-8.4-8.169-8.4-14.277 0-0.025 0-0.051 0-0.077v0.004-130.2c-0.003-0.11-0.004-0.239-0.004-0.369 0-6.063 3.303-11.354 8.208-14.172l0.080-0.042c2.078-1.209 4.566-1.94 7.221-1.983l0.013-0c0.046-0.001 0.1-0.001 0.153-0.001 2.842 0 5.492 0.826 7.721 2.252l108.792 65.066c4.81 3.038 7.958 8.326 7.958 14.35s-3.148 11.312-7.889 14.309l-0.069 0.041zM233.333 210c0 6.443-5.223 11.667-11.667 11.667s-11.667-5.223-11.667-11.667v0-140c0-6.443 5.223-11.667 11.667-11.667s11.667 5.223 11.667 11.667v0z"></path>
</svg>
