<!-- Generated by IcoMoon.io -->
<svg version="1.1" xmlns="http://www.w3.org/2000/svg" width="280" height="280" viewBox="0 0 280 280">
<title>ul-ship</title>
<path d="M42.233 201.6c1.764 4.349 5.955 7.36 10.85 7.36 6.449 0 11.677-5.228 11.677-11.677 0-1.554-0.304-3.038-0.855-4.395l0.028 0.078-13.067-32.9 77.467-17.15v55.417c0 6.443 5.223 11.667 11.667 11.667s11.667-5.223 11.667-11.667v0-55.417l77.467 17.15-13.067 32.9c-0.525 1.28-0.83 2.766-0.83 4.322 0 4.894 3.013 9.084 7.285 10.816l0.078 0.028c1.27 0.517 2.744 0.817 4.288 0.817 0.010 0 0.020 0 0.030 0h-0.002c0.003 0 0.007 0 0.011 0 4.889 0 9.075-3.007 10.811-7.272l0.028-0.078 18.083-45.617c0.512-1.266 0.81-2.734 0.81-4.271 0-2.025-0.516-3.93-1.424-5.59l0.030 0.061c-1.582-2.974-4.331-5.151-7.621-5.934l-0.079-0.016-37.567-8.283v-50.283c0-6.443-5.223-11.667-11.667-11.667v0h-23.333v-35c0-6.443-5.223-11.667-11.667-11.667v0h-46.667c-6.443 0-11.667 5.223-11.667 11.667v0 35h-23.333c-6.443 0-11.667 5.223-11.667 11.667v0 50.283l-37.567 8.050c-3.369 0.799-6.118 2.976-7.669 5.887l-0.031 0.063c-0.877 1.599-1.393 3.504-1.393 5.529 0 1.538 0.297 3.005 0.838 4.35l-0.028-0.078zM128.333 46.667h23.333v23.333h-23.333zM93.333 93.333h93.333v33.367l-44.1-10.033h-5.133l-44.1 10.033zM241.617 224.933c-4.448 1.382-8.313 3.165-11.886 5.376l0.219-0.126c-3.508 2.086-7.735 3.319-12.25 3.319s-8.742-1.233-12.362-3.381l0.112 0.062c-7.619-4.375-16.749-6.955-26.483-6.955s-18.865 2.58-26.747 7.094l0.264-0.139c-3.553 2.061-7.818 3.278-12.367 3.278s-8.814-1.217-12.487-3.342l0.12 0.064c-7.623-4.354-16.754-6.92-26.483-6.92s-18.86 2.567-26.75 7.060l0.267-0.14c-3.508 2.086-7.735 3.319-12.25 3.319s-8.742-1.233-12.362-3.381l0.112 0.062c-3.353-2.085-7.218-3.868-11.305-5.152l-0.362-0.098c-1.163-0.427-2.507-0.674-3.908-0.674-5.524 0-10.152 3.839-11.359 8.995l-0.016 0.079c-0.302 0.988-0.476 2.123-0.476 3.298 0 5.24 3.454 9.673 8.21 11.146l0.083 0.022c2.526 0.696 4.738 1.693 6.749 2.976l-0.099-0.059c6.681 3.986 14.724 6.363 23.318 6.416h0.015c0.003 0 0.006 0 0.009 0 8.936 0 17.304-2.426 24.484-6.656l-0.226 0.123c4.307-2.42 9.454-3.846 14.933-3.846s10.626 1.425 15.089 3.926l-0.156-0.080c6.902 4.016 15.191 6.386 24.033 6.386s17.131-2.37 24.265-6.51l-0.232 0.124c4.307-2.42 9.454-3.846 14.933-3.846s10.626 1.425 15.089 3.926l-0.156-0.080c6.832 4.143 15.088 6.594 23.917 6.594s17.085-2.452 24.125-6.712l-0.208 0.117c1.912-1.224 4.124-2.221 6.478-2.876l0.172-0.041c5.373-1.116 9.353-5.811 9.353-11.435 0-1.036-0.135-2.040-0.388-2.996l0.018 0.081c-1.251-5.197-5.861-9-11.358-9-1.321 0-2.591 0.22-3.774 0.624l0.082-0.024z"></path>
</svg>
