<!-- Generated by IcoMoon.io -->
<svg version="1.1" xmlns="http://www.w3.org/2000/svg" width="280" height="280" viewBox="0 0 280 280">
<title>ul-sad</title>
<path d="M97.533 178.85c-2.553 2.154-4.163 5.356-4.163 8.934 0 2.818 0.999 5.403 2.663 7.419l-0.016-0.020c2.155 2.586 5.377 4.221 8.981 4.221 2.85 0 5.461-1.022 7.487-2.719l-0.018 0.015c7.459-6.052 17.068-9.717 27.533-9.717s20.075 3.665 27.615 9.781l-0.081-0.064c2.004 1.67 4.606 2.683 7.444 2.683 0.008 0 0.016 0 0.024 0h-0.001c6.394-0.065 11.552-5.263 11.552-11.666 0-3.542-1.578-6.715-4.069-8.854l-0.016-0.013c-11.512-9.314-26.331-14.952-42.467-14.952s-30.955 5.638-42.595 15.052l0.128-0.1zM107.45 122.967c2.109 2.097 5.016 3.393 8.225 3.393s6.116-1.296 8.226-3.393l-0.001 0.001c2.097-2.109 3.393-5.016 3.393-8.225s-1.296-6.116-3.393-8.226l0.001 0.001c-6.429-6.109-15.142-9.867-24.733-9.867s-18.305 3.758-24.749 9.881l0.015-0.014c-2.503 2.153-4.078 5.323-4.078 8.861 0 6.443 5.223 11.667 11.667 11.667 3.538 0 6.709-1.575 8.848-4.063l0.013-0.015c2.114-2.131 5.045-3.451 8.283-3.451s6.169 1.32 8.283 3.45l0.001 0.001zM140 23.333c-64.433 0-116.667 52.233-116.667 116.667s52.233 116.667 116.667 116.667c64.433 0 116.667-52.233 116.667-116.667v0c0-64.433-52.233-116.667-116.667-116.667v0zM140 233.333c-51.547 0-93.333-41.787-93.333-93.333s41.787-93.333 93.333-93.333c51.547 0 93.333 41.787 93.333 93.333v0c0 51.547-41.787 93.333-93.333 93.333v0zM205.567 106.517c-6.429-6.109-15.142-9.867-24.733-9.867s-18.305 3.758-24.749 9.881l0.015-0.014c-1.744 2.027-2.805 4.684-2.805 7.589 0 6.443 5.223 11.667 11.667 11.667 2.905 0 5.562-1.062 7.604-2.818l-0.015 0.013c2.114-2.131 5.045-3.451 8.283-3.451s6.169 1.32 8.283 3.45l0.001 0.001c2.109 2.097 5.016 3.393 8.225 3.393s6.116-1.296 8.226-3.393l-0.001 0.001c2.097-2.109 3.393-5.016 3.393-8.225s-1.296-6.116-3.393-8.226l0.001 0.001z"></path>
</svg>
