<!-- Generated by IcoMoon.io -->
<svg version="1.1" xmlns="http://www.w3.org/2000/svg" width="280" height="280" viewBox="0 0 280 280">
<title>ul-squint</title>
<path d="M175 163.333h-70c-6.443 0-11.667 5.223-11.667 11.667s5.223 11.667 11.667 11.667v0h70c6.443 0 11.667-5.223 11.667-11.667s-5.223-11.667-11.667-11.667v0zM105.933 142.45l17.5-17.5c2.131-2.114 3.451-5.045 3.451-8.283s-1.32-6.169-3.45-8.283l-17.501-17.501c-2.12-2.12-5.048-3.431-8.283-3.431-6.47 0-11.714 5.245-11.714 11.714 0 3.235 1.311 6.164 3.431 8.283v0l9.333 9.217-9.333 9.217c-2.131 2.114-3.451 5.045-3.451 8.283s1.32 6.169 3.45 8.283l0.001 0.001c2.108 2.091 5.011 3.384 8.216 3.384 0.024 0 0.047 0 0.071-0h-0.004c0.020 0 0.044 0 0.068 0 3.205 0 6.108-1.292 8.217-3.384l-0.001 0.001zM140 23.333c-64.433 0-116.667 52.233-116.667 116.667s52.233 116.667 116.667 116.667c64.433 0 116.667-52.233 116.667-116.667v0c0-64.433-52.233-116.667-116.667-116.667v0zM140 233.333c-51.547 0-93.333-41.787-93.333-93.333s41.787-93.333 93.333-93.333c51.547 0 93.333 41.787 93.333 93.333v0c0 51.547-41.787 93.333-93.333 93.333v0zM193.433 90.883c-2.114-2.131-5.045-3.451-8.283-3.451s-6.169 1.32-8.283 3.45l-17.501 17.501c-2.131 2.114-3.451 5.045-3.451 8.283s1.32 6.169 3.45 8.283l17.501 17.501c2.108 2.091 5.011 3.384 8.216 3.384 0.024 0 0.047 0 0.071-0h-0.004c0.020 0 0.044 0 0.068 0 3.205 0 6.108-1.292 8.217-3.384l-0.001 0.001c2.131-2.114 3.451-5.045 3.451-8.283s-1.32-6.169-3.45-8.283l-9.218-9.218 9.217-9.217c2.131-2.114 3.451-5.045 3.451-8.283s-1.32-6.169-3.45-8.283l-0.001-0.001z"></path>
</svg>
