<!-- Generated by IcoMoon.io -->
<svg version="1.1" xmlns="http://www.w3.org/2000/svg" width="280" height="280" viewBox="0 0 280 280">
<title>ul-sunset</title>
<path d="M206.033 97.3c3.187-0.014 6.070-1.303 8.167-3.384l8.282-8.282c2.503-2.153 4.078-5.323 4.078-8.861 0-6.443-5.223-11.667-11.667-11.667-3.538 0-6.709 1.575-8.848 4.063l-0.013 0.015-7.7 8.283c-2.097 2.109-3.393 5.016-3.393 8.225s1.296 6.116 3.393 8.226l-0.001-0.001c1.987 1.977 4.683 3.243 7.674 3.382l0.026 0.001zM140 70c6.443 0 11.667-5.223 11.667-11.667v0-11.667c0-6.443-5.223-11.667-11.667-11.667s-11.667 5.223-11.667 11.667v0 11.667c0 6.443 5.223 11.667 11.667 11.667v0zM46.667 140h-11.667c-6.443 0-11.667 5.223-11.667 11.667s5.223 11.667 11.667 11.667v0h11.667c6.443 0 11.667-5.223 11.667-11.667s-5.223-11.667-11.667-11.667v0zM65.8 93.917c2.096 2.080 4.98 3.37 8.164 3.383h0.003c0.020 0 0.044 0 0.068 0 3.205 0 6.108-1.292 8.217-3.384l-0.001 0.001c2.097-2.109 3.393-5.016 3.393-8.225s-1.296-6.116-3.393-8.226l-8.283-8.283c-2.027-1.744-4.684-2.805-7.589-2.805-6.443 0-11.667 5.223-11.667 11.667 0 2.905 1.062 5.562 2.818 7.604l-0.013-0.015zM245 140h-11.667c-6.443 0-11.667 5.223-11.667 11.667s5.223 11.667 11.667 11.667v0h11.667c6.443 0 11.667-5.223 11.667-11.667s-5.223-11.667-11.667-11.667v0zM128.333 221.667h-35c-6.443 0-11.667 5.223-11.667 11.667s5.223 11.667 11.667 11.667v0h35c6.443 0 11.667-5.223 11.667-11.667s-5.223-11.667-11.667-11.667v0zM210 175h-10.267c2.805-6.87 4.434-14.841 4.434-23.193 0-0.049 0-0.098-0-0.148v0.008c0-35.438-28.728-64.167-64.167-64.167s-64.167 28.728-64.167 64.167v0c0 0.042-0 0.091-0 0.14 0 8.352 1.628 16.323 4.584 23.615l-0.151-0.421h-10.267c-6.443 0-11.667 5.223-11.667 11.667s5.223 11.667 11.667 11.667v0h140c6.443 0 11.667-5.223 11.667-11.667s-5.223-11.667-11.667-11.667v0zM173.25 175h-66.5c-4.712-6.469-7.551-14.567-7.583-23.326v-0.008c0-22.552 18.282-40.833 40.833-40.833s40.833 18.282 40.833 40.833v0c-0.033 8.767-2.871 16.864-7.663 23.448l0.080-0.115zM186.667 221.667h-11.667c-6.443 0-11.667 5.223-11.667 11.667s5.223 11.667 11.667 11.667v0h11.667c6.443 0 11.667-5.223 11.667-11.667s-5.223-11.667-11.667-11.667v0z"></path>
</svg>
