<!-- Generated by IcoMoon.io -->
<svg version="1.1" xmlns="http://www.w3.org/2000/svg" width="280" height="280" viewBox="0 0 280 280">
<title>ul-shield-exclamation</title>
<path d="M150.733 175c-0.251-0.759-0.608-1.418-1.061-1.998l0.011 0.014-1.4-1.75c-2.114-2.131-5.045-3.451-8.283-3.451s-6.169 1.32-8.283 3.45l-0.001 0.001c-0.548 0.499-1.013 1.076-1.382 1.716l-0.018 0.034c-0.442 0.565-0.799 1.224-1.037 1.937l-0.013 0.046c-0.317 0.642-0.561 1.386-0.693 2.169l-0.007 0.048c-0.027 0.332-0.043 0.718-0.043 1.108s0.016 0.777 0.046 1.159l-0.003-0.050c-0.002 0.079-0.004 0.172-0.004 0.266 0 1.554 0.345 3.027 0.963 4.347l-0.027-0.063c1.809 4.243 5.945 7.163 10.762 7.163 1.588 0 3.102-0.317 4.481-0.892l-0.077 0.028c1.483-0.672 2.755-1.533 3.857-2.573l-0.007 0.006c1.021-1.045 1.848-2.284 2.422-3.656l0.028-0.077c0.587-1.342 0.93-2.906 0.933-4.549v-0.001c0.027-0.332 0.043-0.718 0.043-1.108s-0.016-0.777-0.046-1.159l0.003 0.050c-0.295-0.847-0.69-1.581-1.182-2.238l0.015 0.021zM140 85.867c-6.443 0-11.667 5.223-11.667 11.667v0 35c0 6.443 5.223 11.667 11.667 11.667s11.667-5.223 11.667-11.667v0-35c0-6.443-5.223-11.667-11.667-11.667v0zM229.017 42.583c-1.986-1.617-4.548-2.596-7.337-2.596-0.872 0-1.722 0.096-2.54 0.277l0.078-0.014c-5.755 1.262-12.365 1.985-19.144 1.985-19.998 0-38.527-6.29-53.717-16.998l0.295 0.197c-1.856-1.302-4.162-2.081-6.65-2.081s-4.794 0.779-6.687 2.106l0.037-0.025c-14.895 10.512-33.424 16.801-53.422 16.801-6.779 0-13.389-0.723-19.758-2.095l0.614 0.111c-0.74-0.167-1.59-0.263-2.463-0.263-2.79 0-5.351 0.979-7.359 2.613l0.021-0.017c-2.643 2.156-4.317 5.413-4.317 9.060 0 0.014 0 0.028 0 0.042v-0.002 86.917c0 0.019 0 0.042 0 0.065 0 35.098 17.22 66.173 43.673 85.239l0.31 0.213 42.583 30.333c1.88 1.352 4.229 2.163 6.767 2.163s4.887-0.81 6.801-2.187l-0.035 0.024 42.583-30.333c26.763-19.278 43.983-50.354 43.983-85.452 0-0.023 0-0.046 0-0.069v0.004-86.917c0-0.012 0-0.026 0-0.040 0-3.648-1.674-6.904-4.296-9.044l-0.021-0.017zM210 138.6c0 0.017 0 0.036 0 0.056 0 27.287-13.383 51.448-33.943 66.279l-0.241 0.165-35.817 25.55-35.817-25.55c-20.801-14.996-34.183-39.157-34.183-66.444 0-0.020 0-0.040 0-0.059v0.003-73.5c2.98 0.271 6.447 0.425 9.949 0.425 22.179 0 42.912-6.189 60.567-16.933l-0.516 0.291c17.139 10.453 37.872 16.642 60.051 16.642 3.502 0 6.969-0.154 10.392-0.457l-0.443 0.031z"></path>
</svg>
