<!-- Generated by IcoMoon.io -->
<svg version="1.1" xmlns="http://www.w3.org/2000/svg" width="280" height="280" viewBox="0 0 280 280">
<title>ul-sitemap</title>
<path d="M256.667 175h-23.333v-35c0-6.443-5.223-11.667-11.667-11.667v0h-70v-23.333h23.333c6.443 0 11.667-5.223 11.667-11.667v0-70c0-6.443-5.223-11.667-11.667-11.667v0h-70c-6.443 0-11.667 5.223-11.667 11.667v0 70c0 6.443 5.223 11.667 11.667 11.667v0h23.333v23.333h-70c-6.443 0-11.667 5.223-11.667 11.667v0 35h-23.333c-6.443 0-11.667 5.223-11.667 11.667v0 70c0 6.443 5.223 11.667 11.667 11.667v0h70c6.443 0 11.667-5.223 11.667-11.667v0-70c0-6.443-5.223-11.667-11.667-11.667v0h-23.333v-23.333h140v23.333h-23.333c-6.443 0-11.667 5.223-11.667 11.667v0 70c0 6.443 5.223 11.667 11.667 11.667v0h70c6.443 0 11.667-5.223 11.667-11.667v0-70c0-6.443-5.223-11.667-11.667-11.667v0zM81.667 198.333v46.667h-46.667v-46.667zM116.667 81.667v-46.667h46.667v46.667zM245 245h-46.667v-46.667h46.667z"></path>
</svg>
