<!-- Generated by IcoMoon.io -->
<svg version="1.1" xmlns="http://www.w3.org/2000/svg" width="280" height="280" viewBox="0 0 280 280">
<title>ul-trademark-circle</title>
<path d="M116.667 105h-35c-6.443 0-11.667 5.223-11.667 11.667s5.223 11.667 11.667 11.667v0h5.833v35c0 6.443 5.223 11.667 11.667 11.667s11.667-5.223 11.667-11.667v0-35h5.833c6.443 0 11.667-5.223 11.667-11.667s-5.223-11.667-11.667-11.667v0zM202.767 105.933c-1.335-0.577-2.89-0.912-4.522-0.912-3.194 0-6.089 1.284-8.195 3.363l0.001-0.001-15.050 15.167-15.050-15.167c-2.105-2.078-5-3.362-8.194-3.362-1.633 0-3.187 0.336-4.598 0.941l0.076-0.029c-4.263 1.785-7.209 5.912-7.233 10.73v46.67c0 6.443 5.223 11.667 11.667 11.667s11.667-5.223 11.667-11.667v0-18.55l3.383 3.5c2.114 2.131 5.045 3.451 8.283 3.451s6.169-1.32 8.283-3.45l0.001-0.001 3.383-3.5v18.55c0 6.443 5.223 11.667 11.667 11.667s11.667-5.223 11.667-11.667v0-46.667c-0.025-4.821-2.97-8.949-7.156-10.705l-0.077-0.029zM140 23.333c-64.433 0-116.667 52.233-116.667 116.667s52.233 116.667 116.667 116.667c64.433 0 116.667-52.233 116.667-116.667v0c0-64.433-52.233-116.667-116.667-116.667v0zM140 233.333c-51.547 0-93.333-41.787-93.333-93.333s41.787-93.333 93.333-93.333c51.547 0 93.333 41.787 93.333 93.333v0c0 51.547-41.787 93.333-93.333 93.333v0z"></path>
</svg>
