<!-- Generated by IcoMoon.io -->
<svg version="1.1" xmlns="http://www.w3.org/2000/svg" width="280" height="280" viewBox="0 0 280 280">
<title>ul-trash-alt</title>
<path d="M116.667 210c6.443 0 11.667-5.223 11.667-11.667v0-70c0-6.443-5.223-11.667-11.667-11.667s-11.667 5.223-11.667 11.667v0 70c0 6.443 5.223 11.667 11.667 11.667v0zM233.333 70h-46.667v-11.667c0-19.33-15.67-35-35-35v0h-23.333c-19.33 0-35 15.67-35 35v0 11.667h-46.667c-6.443 0-11.667 5.223-11.667 11.667s5.223 11.667 11.667 11.667v0h11.667v128.333c0 19.33 15.67 35 35 35v0h93.333c19.33 0 35-15.67 35-35v0-128.333h11.667c6.443 0 11.667-5.223 11.667-11.667s-5.223-11.667-11.667-11.667v0zM116.667 58.333c0-6.443 5.223-11.667 11.667-11.667v0h23.333c6.443 0 11.667 5.223 11.667 11.667v0 11.667h-46.667zM198.333 221.667c0 6.443-5.223 11.667-11.667 11.667v0h-93.333c-6.443 0-11.667-5.223-11.667-11.667v0-128.333h116.667zM163.333 210c6.443 0 11.667-5.223 11.667-11.667v0-70c0-6.443-5.223-11.667-11.667-11.667s-11.667 5.223-11.667 11.667v0 70c0 6.443 5.223 11.667 11.667 11.667v0z"></path>
</svg>
