<!-- Generated by IcoMoon.io -->
<svg version="1.1" xmlns="http://www.w3.org/2000/svg" width="280" height="280" viewBox="0 0 280 280">
<title>ul-twitter-alt</title>
<path d="M268.231 46.086c0-0.002 0-0.005 0-0.008 0-6.439-5.22-11.66-11.66-11.66-2.202 0-4.261 0.61-6.018 1.671l0.052-0.029c-6.287 3.811-13.549 6.972-21.238 9.106l-0.613 0.145c-10.449-9.007-24.156-14.493-39.144-14.493-0.077 0-0.154 0-0.231 0.001h0.012c-32.991 0.039-59.849 26.243-60.94 58.974l-0.003 0.1c-32.258-5.276-59.916-21.896-79.311-45.552l-0.18-0.227c-2.18-2.632-5.449-4.295-9.107-4.295-0.316 0-0.628 0.012-0.937 0.037l0.041-0.002c-3.93 0.333-7.272 2.571-9.13 5.777l-0.030 0.056c-5.122 8.786-8.146 19.34-8.146 30.6 0 9.064 1.959 17.671 5.477 25.419l-0.157-0.386-0.023 0.023c-3.489 2.175-5.776 5.991-5.776 10.342 0 0.009 0 0.018 0 0.027v-0.001c-0.002 0.132-0.003 0.287-0.003 0.444 0 1.652 0.113 3.277 0.331 4.868l-0.021-0.185c1.274 15.261 8.036 28.737 18.28 38.629l0.018 0.017c-0.841 1.569-1.334 3.433-1.334 5.412 0 1.274 0.205 2.501 0.583 3.648l-0.024-0.082c4.794 14.634 14.566 26.524 27.272 33.933l0.289 0.156c-9.316 3.71-20.112 5.861-31.41 5.861-3.691 0-7.328-0.23-10.898-0.675l0.426 0.043c-0.436-0.058-0.94-0.091-1.452-0.091-6.442 0-11.664 5.222-11.664 11.664 0 4.099 2.114 7.704 5.312 9.784l0.045 0.028c23.101 15.081 51.383 24.051 81.761 24.051 0.007 0 0.014 0 0.021 0h-0.001c0.499 0.006 1.088 0.010 1.678 0.010 68.179 0 125.676-45.733 143.488-108.196l0.256-1.052c3.94-12.729 6.22-27.365 6.244-42.53v-0.012c0-0.763 0-1.55-0.012-2.335 11.126-11.973 17.954-28.073 17.954-45.768 0-1.142-0.028-2.277-0.084-3.404l0.006 0.159zM229.653 83.558c-1.706 2.008-2.744 4.63-2.744 7.495 0 0.245 0.008 0.488 0.023 0.73l-0.002-0.033c0.114 1.925 0.103 3.862 0.103 5.685-0.026 12.827-1.96 25.192-5.534 36.84l0.236-0.895c-14.67 53.704-63.022 92.529-120.443 92.529-0.911 0-1.821-0.010-2.728-0.029l0.135 0.002c-0.012 0-0.025 0-0.039 0-10.546 0-20.794-1.279-30.596-3.691l0.876 0.182c13.152-4.308 24.556-10.517 34.561-18.418l-0.234 0.178c2.721-2.156 4.451-5.461 4.451-9.169 0-6.375-5.111-11.556-11.459-11.669l-0.011-0c-10.096-0.162-19.195-4.297-25.83-10.904l0.001 0.001q2.615-0.495 5.195-1.23c4.932-1.437 8.475-5.917 8.475-11.224 0-5.645-4.008-10.354-9.334-11.436l-0.075-0.013c-11.608-2.35-21.099-9.829-26.152-19.916l-0.098-0.215c1.833 0.266 4.030 0.458 6.256 0.533l0.102 0.003c0.054 0.001 0.117 0.001 0.18 0.001 5.223 0 9.662-3.362 11.268-8.041l0.025-0.084c0.349-1.057 0.55-2.274 0.55-3.539 0-4.042-2.056-7.603-5.179-9.697l-0.042-0.027c-10.073-6.78-16.612-18.14-16.612-31.027 0-0.055 0-0.11 0-0.165v0.008c0-0.775 0.023-1.55 0.068-2.313 25.192 23.543 58.552 38.628 95.394 40.578l0.377 0.016c0.14 0.006 0.304 0.009 0.469 0.009 3.624 0 6.87-1.62 9.054-4.174l0.014-0.016c1.685-2.009 2.709-4.623 2.709-7.476 0-0.941-0.111-1.856-0.322-2.732l0.016 0.080c-0.638-2.551-1.007-5.48-1.014-8.495v-0.005c0.023-20.781 16.863-37.621 37.641-37.643h0.002c0.030 0 0.065 0 0.1 0 10.759 0 20.45 4.574 27.234 11.883l0.022 0.024c2.121 2.277 5.138 3.698 8.485 3.698 0.799 0 1.579-0.081 2.333-0.235l-0.075 0.013c5.552-1.089 10.296-2.388 14.898-3.99l-0.759 0.23c-3.359 6.793-7.352 12.642-12.038 17.856l0.063-0.072z"></path>
</svg>
