<!-- Generated by IcoMoon.io -->
<svg version="1.1" xmlns="http://www.w3.org/2000/svg" width="280" height="280" viewBox="0 0 280 280">
<title>ul-traffic-barrier</title>
<path d="M245 58.333h-11.667v-11.667c0-6.443-5.223-11.667-11.667-11.667s-11.667 5.223-11.667 11.667v0 11.667h-140v-11.667c0-6.443-5.223-11.667-11.667-11.667s-11.667 5.223-11.667 11.667v0 11.667h-11.667c-6.443 0-11.667 5.223-11.667 11.667v0 70c0 6.443 5.223 11.667 11.667 11.667v0h11.667v81.667c0 6.443 5.223 11.667 11.667 11.667s11.667-5.223 11.667-11.667v0-81.667h140v81.667c0 6.443 5.223 11.667 11.667 11.667s11.667-5.223 11.667-11.667v0-81.667h11.667c6.443 0 11.667-5.223 11.667-11.667v0-70c0-6.443-5.223-11.667-11.667-11.667v0zM46.667 111.067v-29.4h29.4zM62.3 128.333l46.667-46.667h38.85l-46.667 46.667zM134.050 128.333l46.667-46.667h37.1l-46.667 46.667zM233.333 128.333h-29.283l29.283-29.283z"></path>
</svg>
