<!-- Generated by IcoMoon.io -->
<svg version="1.1" xmlns="http://www.w3.org/2000/svg" width="280" height="280" viewBox="0 0 280 280">
<title>ul-tachometer-fast-alt</title>
<path d="M140 58.333c-64.432 0.002-116.664 52.234-116.664 116.667 0 21.478 5.804 41.6 15.929 58.884l-0.298-0.551c2.059 3.535 5.832 5.873 10.15 5.873 6.465 0 11.707-5.241 11.707-11.707 0-2.147-0.578-4.159-1.587-5.889l0.030 0.056c-7.92-13.343-12.6-29.415-12.6-46.58 0-0.030 0-0.061 0-0.091v0.005c0.021-51.531 41.8-93.297 93.333-93.297 51.547 0 93.333 41.787 93.333 93.333 0 17.167-4.635 33.252-12.722 47.071l0.238-0.441c-0.988 1.677-1.572 3.694-1.572 5.848 0 4.318 2.346 8.088 5.832 10.105l0.056 0.030c1.656 0.957 3.642 1.521 5.761 1.521 4.297 0 8.052-2.323 10.076-5.783l0.030-0.055c9.827-16.733 15.63-36.856 15.63-58.333 0-64.432-52.232-116.665-116.663-116.667h-0zM173.133 125.533l-18.083 17.967c-4.38-2.207-9.545-3.5-15.013-3.5-0.013 0-0.026 0-0.039 0h0.002c-19.33 0-35 15.67-35 35s15.67 35 35 35c19.33 0 35-15.67 35-35v0c-0.009-5.441-1.3-10.578-3.589-15.128l0.089 0.194 18.083-17.967c2.131-2.114 3.451-5.045 3.451-8.283s-1.32-6.169-3.45-8.283l-0.001-0.001c-2.109-2.097-5.016-3.393-8.225-3.393s-6.116 1.296-8.226 3.393l0.001-0.001zM140 186.667c-6.443 0-11.667-5.223-11.667-11.667s5.223-11.667 11.667-11.667v0c0.021 0 0.045-0 0.070-0 3.146 0 6.002 1.246 8.1 3.27l-0.004-0.003c2.161 2.119 3.5 5.069 3.5 8.332 0 0.024 0 0.048-0 0.072v-0.004c0 6.443-5.223 11.667-11.667 11.667v0z"></path>
</svg>
