<!-- Generated by IcoMoon.io -->
<svg version="1.1" xmlns="http://www.w3.org/2000/svg" width="280" height="280" viewBox="0 0 280 280">
<title>ul-th-slash</title>
<path d="M264.95 248.383l-233.333-233.333c-2.12-2.12-5.048-3.431-8.283-3.431-6.47 0-11.714 5.245-11.714 11.714 0 3.235 1.311 6.164 3.431 8.283v0l8.283 8.167v205.217c0 6.443 5.223 11.667 11.667 11.667v0h205.217l8.167 8.283c2.114 2.131 5.045 3.451 8.283 3.451s6.169-1.32 8.283-3.45l0.001-0.001c2.131-2.114 3.451-5.045 3.451-8.283s-1.32-6.169-3.45-8.283l-0.001-0.001zM46.667 63.117l30.217 30.217h-30.217zM93.333 233.333h-46.667v-46.667h46.667zM93.333 163.333h-46.667v-46.667h46.667zM116.667 133.117l30.217 30.217h-30.217zM163.333 233.333h-46.667v-46.667h46.667zM186.667 233.333v-30.217l30.217 30.217zM101.15 46.667h62.183v58.333c0 6.443 5.223 11.667 11.667 11.667v0h58.333v62.183c0 6.443 5.223 11.667 11.667 11.667s11.667-5.223 11.667-11.667v0-143.85c0-6.443-5.223-11.667-11.667-11.667v0h-143.85c-6.443 0-11.667 5.223-11.667 11.667s5.223 11.667 11.667 11.667v0zM186.667 46.667h46.667v46.667h-46.667z"></path>
</svg>
