<!-- Generated by IcoMoon.io -->
<svg version="1.1" xmlns="http://www.w3.org/2000/svg" width="280" height="280" viewBox="0 0 280 280">
<title>ul-user</title>
<path d="M183.283 148.283c16.333-12.933 26.717-32.761 26.717-55.014 0-38.66-31.34-70-70-70s-70 31.34-70 70c0 22.253 10.384 42.081 26.571 54.903l0.146 0.112c-39.363 16.075-67.604 51.941-72.517 94.896l-0.050 0.537c-0.045 0.385-0.070 0.831-0.070 1.283 0 6.482 5.255 11.737 11.737 11.737 6.030 0 10.998-4.547 11.662-10.4l0.005-0.054c5.418-46.867 44.874-82.915 92.75-82.915s87.332 36.047 92.709 82.481l0.041 0.434c0.668 5.867 5.605 10.384 11.596 10.384 0.025 0 0.050 0 0.075-0h1.279c5.844-0.692 10.333-5.617 10.333-11.59 0-0.438-0.024-0.87-0.071-1.296l0.005 0.053c-4.986-43.611-33.379-79.553-72.135-95.27l-0.782-0.28zM140 140c-25.773 0-46.667-20.893-46.667-46.667s20.893-46.667 46.667-46.667c25.773 0 46.667 20.893 46.667 46.667v0c0 25.773-20.893 46.667-46.667 46.667v0z"></path>
</svg>
