<!-- Generated by IcoMoon.io -->
<svg version="1.1" xmlns="http://www.w3.org/2000/svg" width="280" height="280" viewBox="0 0 280 280">
<title>ul-user-times</title>
<path d="M155.167 142.567c12.178-10.583 19.833-26.097 19.833-43.399 0-0 0-0.001 0-0.001v0c0-32.217-26.117-58.333-58.333-58.333s-58.333 26.117-58.333 58.333v0c0 0 0 0.001 0 0.001 0 17.302 7.655 32.816 19.763 43.34l0.070 0.060c-32.58 15.014-54.796 47.375-54.833 84.928v0.005c0 6.443 5.223 11.667 11.667 11.667s11.667-5.223 11.667-11.667v0c0-38.66 31.34-70 70-70s70 31.34 70 70v0c0 6.443 5.223 11.667 11.667 11.667s11.667-5.223 11.667-11.667v0c-0.037-37.558-22.253-69.919-54.255-84.694l-0.579-0.24zM116.667 134.167c-19.33 0-35-15.67-35-35s15.67-35 35-35c19.33 0 35 15.67 35 35v0c0 19.33-15.67 35-35 35v0zM243.95 140l9.333-9.217c2.12-2.12 3.431-5.048 3.431-8.283 0-6.47-5.245-11.714-11.714-11.714-3.235 0-6.164 1.311-8.283 3.431v0l-9.217 9.333-9.217-9.333c-2.12-2.12-5.048-3.431-8.283-3.431-6.47 0-11.714 5.245-11.714 11.714 0 3.235 1.311 6.164 3.431 8.283v0l9.333 9.217-9.333 9.217c-2.131 2.114-3.451 5.045-3.451 8.283s1.32 6.169 3.45 8.283l0.001 0.001c2.114 2.131 5.045 3.451 8.283 3.451s6.169-1.32 8.283-3.45l0.001-0.001 9.217-9.333 9.217 9.333c2.114 2.131 5.045 3.451 8.283 3.451s6.169-1.32 8.283-3.45l0.001-0.001c2.131-2.114 3.451-5.045 3.451-8.283s-1.32-6.169-3.45-8.283l-0.001-0.001z"></path>
</svg>
