<!-- Generated by IcoMoon.io -->
<svg version="1.1" xmlns="http://www.w3.org/2000/svg" width="280" height="280" viewBox="0 0 280 280">
<title>ul-utensils-alt</title>
<path d="M181.183 164.85c-2.114-2.131-5.045-3.451-8.283-3.451s-6.169 1.32-8.283 3.45l-0.001 0.001c-2.097 2.109-3.393 5.016-3.393 8.225s1.296 6.116 3.393 8.226l72.099 72.099c2.114 2.131 5.045 3.451 8.283 3.451s6.169-1.32 8.283-3.45l0.001-0.001c2.097-2.109 3.393-5.016 3.393-8.225s-1.296-6.116-3.393-8.226l0.001 0.001zM195.533 135.8c9.661-0.009 18.405-3.931 24.733-10.266l33.017-33.017c2.097-2.109 3.393-5.016 3.393-8.225s-1.296-6.116-3.393-8.226l0.001 0.001c-2.114-2.131-5.045-3.451-8.283-3.451s-6.169 1.32-8.283 3.45l-33.018 33.018c-2.109 2.097-5.016 3.393-8.225 3.393s-6.116-1.296-8.226-3.393l0.001 0.001 41.3-41.3c2.097-2.109 3.393-5.016 3.393-8.225s-1.296-6.116-3.393-8.226l0.001 0.001c-2.114-2.131-5.045-3.451-8.283-3.451s-6.169 1.32-8.283 3.45l-41.184 41.184c-2.097-2.109-3.393-5.016-3.393-8.225s1.296-6.116 3.393-8.226l-0.001 0.001 32.9-33.017c2.503-2.153 4.078-5.323 4.078-8.861 0-6.443-5.223-11.667-11.667-11.667-3.538 0-6.709 1.575-8.848 4.063l-0.013 0.015-33.017 33.017c-6.325 6.332-10.236 15.076-10.236 24.733s3.911 18.401 10.236 24.734l-0-0-14.233 14.467-18.2-17.967c3.827-6.781 6.081-14.888 6.081-23.523 0-13.649-5.634-25.982-14.703-34.8l-0.011-0.011c-16.8-16.8-60.317-35.583-80.85-14.7s-1.983 63.933 14.35 80.85c8.813 8.844 20.858 14.461 34.213 14.931l0.088 0.002h1.633c8.279-0.121 15.991-2.447 22.605-6.414l-0.205 0.114 18.317 17.967-96.6 96.6c-2.095 2.11-3.39 5.016-3.39 8.225 0 6.447 5.226 11.673 11.673 11.673 3.238 0 6.168-1.318 8.283-3.447l127.401-127.401c6.324 6.274 15.033 10.151 24.648 10.151 0.071 0 0.142-0 0.213-0.001h-0.011zM98.35 98.467c-4.070 4.047-9.68 6.548-15.874 6.548-0.284 0-0.568-0.005-0.85-0.016l0.041 0.001c-7.091-0.315-13.409-3.384-17.957-8.156l-0.010-0.011c-12.6-12.6-21.467-41.183-14.817-47.833 1.93-1.469 4.375-2.353 7.026-2.353 0.237 0 0.473 0.007 0.706 0.021l-0.032-0.002c15.539 1.273 29.408 7.556 40.199 17.208l-0.066-0.058c4.888 4.532 7.937 10.988 7.937 18.155 0 6.349-2.392 12.138-6.324 16.518l0.020-0.023z"></path>
</svg>
