<!-- Generated by IcoMoon.io -->
<svg version="1.1" xmlns="http://www.w3.org/2000/svg" width="280" height="280" viewBox="0 0 280 280">
<title>ul-video-question</title>
<path d="M119.117 201.717c-2.169-2.007-5.082-3.239-8.283-3.239s-6.114 1.231-8.291 3.246l0.008-0.007c-1.025 1.079-1.853 2.355-2.421 3.765l-0.029 0.080c-0.59 1.305-0.934 2.83-0.934 4.435s0.344 3.129 0.962 4.504l-0.028-0.069c0.629 1.483 1.454 2.756 2.46 3.862l-0.010-0.011c2.114 2.131 5.044 3.45 8.283 3.45 6.443 0 11.667-5.223 11.667-11.667 0-0.023 0-0.046-0-0.069v0.004c-0.020-1.608-0.361-3.13-0.964-4.513l0.029 0.075c-0.629-1.481-1.453-2.753-2.459-3.856l0.010 0.011zM110.833 105c-12.878 0.024-24.125 6.978-30.216 17.33l-0.089 0.165c-0.985 1.675-1.567 3.689-1.567 5.839 0 6.441 5.221 11.662 11.662 11.662 4.29 0 8.039-2.317 10.065-5.768l0.030-0.055c2.054-3.519 5.812-5.847 10.114-5.847 6.445 0 11.67 5.225 11.67 11.67 0 6.444-5.223 11.668-11.666 11.67h-0c-0.001 0-0.002 0-0.003 0-6.442 0-11.664 5.222-11.664 11.664 0 0.001 0 0.002 0 0.003v-0 11.667c0 6.443 5.223 11.667 11.667 11.667s11.667-5.223 11.667-11.667v0-2.15c13.707-4.921 23.333-17.805 23.333-32.937 0-19.282-15.631-34.913-34.913-34.913-0.030 0-0.061 0-0.091 0h0.005zM251.13 71.743c-1.743-1.095-3.862-1.744-6.133-1.744-1.901 0-3.696 0.455-5.281 1.262l0.066-0.031-41.581 20.79c-0.709-18.726-16.039-33.643-34.863-33.687h-105.004c-19.321 0.022-34.978 15.679-35 34.998v70.002c0.022 19.321 15.679 34.978 34.998 35h11.669c6.443 0 11.667-5.223 11.667-11.667s-5.223-11.667-11.667-11.667v0h-11.667c-6.441-0.007-11.66-5.226-11.667-11.666v-70.001c0.007-6.441 5.226-11.66 11.666-11.667h105.001c6.441 0.007 11.66 5.226 11.667 11.666v70.001c-0.007 6.441-5.226 11.66-11.666 11.667h-5.834c-6.443 0-11.667 5.223-11.667 11.667s5.223 11.667 11.667 11.667v0h5.833c18.829-0.044 34.159-14.962 34.866-33.623l0.002-0.065 41.581 20.79c1.519 0.775 3.314 1.229 5.214 1.229 6.444 0 11.668-5.222 11.671-11.665v-93.334c-0.001-4.173-2.193-7.834-5.488-9.895l-0.049-0.028zM233.333 156.122l-35-17.5v-20.576l35-17.5z"></path>
</svg>
