<!-- Generated by IcoMoon.io -->
<svg version="1.1" xmlns="http://www.w3.org/2000/svg" width="280" height="280" viewBox="0 0 280 280">
<title>ul-vk-alt</title>
<path d="M183.676 157.842c-3.37-3.636-7.107-6.85-11.177-9.61l-0.226-0.144c16.465-12.817 28.354-30.828 33.229-51.545l0.124-0.622c0.195-0.798 0.307-1.714 0.307-2.656 0-6.443-5.223-11.667-11.667-11.667-5.552 0-10.198 3.878-11.377 9.072l-0.015 0.078c-4.66 19.963-17.576 36.25-34.865 45.347l-0.374 0.179v-42.917c-0.080-0.93-0.26-1.788-0.533-2.604l0.023 0.079c-0.087-0.75-0.229-1.425-0.424-2.078l0.022 0.084c-0.529-1.113-1.18-2.070-1.954-2.912l0.008 0.008c-0.209-0.248-0.314-0.574-0.542-0.804-0.826-0.764-1.771-1.415-2.802-1.918l-0.069-0.030c-0.297-0.159-0.519-0.427-0.832-0.56-0.806-0.279-1.743-0.48-2.714-0.564l-0.045-0.003c-0.501-0.154-1.101-0.281-1.717-0.358l-0.054-0.005-7.668-0.024c-0.016 0-0.036 0-0.056 0-6.413 0-11.611 5.199-11.611 11.611 0 4.966 3.117 9.204 7.502 10.863l0.080 0.027v57.058c-17.909-18.57-30.436-42.442-35.003-69.034l-0.111-0.783c-0.966-5.551-5.747-9.717-11.502-9.717-6.442 0-11.665 5.223-11.665 11.665 0 0.688 0.060 1.363 0.174 2.018l-0.010-0.070c7.195 41.805 30.212 77.22 62.539 100.526l0.459 0.315c0.417 0.255 0.907 0.507 1.416 0.724l0.075 0.028c0.345 0.208 0.757 0.419 1.183 0.605l0.071 0.027c1.209 0.497 2.611 0.798 4.080 0.826l0.011 0c1.805-0.023 3.503-0.459 5.010-1.218l-0.066 0.030c0.116-0.055 0.249-0.029 0.365-0.088 1.074-0.566 1.996-1.247 2.802-2.046l-0.001 0.001c0.166-0.162 0.277-0.36 0.434-0.531 0.728-0.797 1.351-1.708 1.836-2.699l0.030-0.068c0.162-0.335 0.31-0.654 0.441-1.006 0.49-1.194 0.787-2.579 0.816-4.029l0-0.012 0.006-24.803c7.485 2.242 13.853 6.31 18.812 11.694l0.027 0.029 19.226 20.963c2.14 2.338 5.207 3.799 8.614 3.799 6.442 0 11.664-5.222 11.664-11.664 0-3.053-1.173-5.832-3.093-7.911l0.007 0.008zM175.849 11.667h-71.578c-71.834 0-92.604 20.747-92.604 92.479v71.584c0 71.834 20.741 92.604 92.484 92.604h71.578c71.834 0 92.604-20.747 92.604-92.479v-71.584c0-71.834-20.741-92.604-92.484-92.604zM245 175.854c0 58.801-10.356 69.146-69.271 69.146h-71.578c-58.812 0-69.151-10.356-69.151-69.271v-71.584c0-58.801 10.356-69.146 69.271-69.146h71.578c58.812 0 69.151 10.356 69.151 69.271z"></path>
</svg>
