<!-- Generated by IcoMoon.io -->
<svg version="1.1" xmlns="http://www.w3.org/2000/svg" width="280" height="280" viewBox="0 0 280 280">
<title>ul-watch-alt</title>
<path d="M198.333 100.45l-11.667-67.317c-0.931-5.591-5.732-9.801-11.517-9.801-0.053 0-0.106 0-0.158 0.001h-69.992c-0.045-0.001-0.097-0.001-0.15-0.001-5.785 0-10.586 4.21-11.507 9.733l-0.009 0.068-11.667 67.317c-7.664 11.064-12.244 24.772-12.244 39.55s4.579 28.486 12.396 39.783l-0.152-0.233 11.667 67.317c0.931 5.591 5.732 9.801 11.517 9.801 0.053 0 0.106-0 0.158-0.001h69.992c0.045 0.001 0.097 0.001 0.15 0.001 5.785 0 10.586-4.21 11.507-9.733l0.009-0.068 11.667-67.317c7.664-11.064 12.244-24.772 12.244-39.55s-4.579-28.486-12.396-39.783l0.152 0.233zM114.917 46.667h50.167l5.133 30.217c-8.837-4.327-19.231-6.858-30.217-6.858s-21.379 2.53-30.631 7.040l0.415-0.182zM165.083 233.333h-50.167l-5.133-30.217c8.837 4.327 19.231 6.858 30.217 6.858s21.379-2.53 30.631-7.040l-0.415 0.182zM140 186.667c-25.773 0-46.667-20.893-46.667-46.667s20.893-46.667 46.667-46.667c25.773 0 46.667 20.893 46.667 46.667v0c0 25.773-20.893 46.667-46.667 46.667v0z"></path>
</svg>
