<!-- Generated by IcoMoon.io -->
<svg version="1.1" xmlns="http://www.w3.org/2000/svg" width="32" height="32" viewBox="0 0 32 32">
<title>as-arrow_repeat-2</title>
<path fill="#37352f" d="M27.429 16.996v7.931c0 1.252-1.023 2.267-2.286 2.267h-15.763c-0.509 0-0.763 0.61-0.403 0.966l1.922 1.906c0.446 0.442 0.446 1.159 0 1.602-0.447 0.442-1.17 0.442-1.617 0-1.566-1.553-2.725-2.701-4.040-4.006-0.893-0.885-0.893-2.319 0-3.204l4.040-4.006c0.447-0.442 1.17-0.442 1.617 0 0.446 0.443 0.446 1.16 0 1.603l-1.922 1.906c-0.36 0.357-0.105 0.968 0.403 0.968h14.621c0.631 0 1.143-0.509 1.143-1.134v-6.798c0-0.625 0.512-1.133 1.143-1.133s1.143 0.508 1.143 1.133zM4.571 15.005v-7.931c0-1.251 1.023-2.54 2.286-2.54h15.763c0.509 0 0.763-0.474 0.403-0.831l-1.922-1.768c-0.446-0.443-0.446-1.16 0-1.603 0.447-0.442 1.17-0.443 1.617 0 0.631 0.625 3.415 3.386 4.040 4.002 0.893 0.885 0.893 2.316 0 3.201l-4.040 3.997c-0.447 0.442-1.17 0.425-1.617-0.017-0.446-0.443-0.446-1.194 0-1.637l1.922-1.974c0.36-0.357 0.105-1.105-0.403-1.105h-14.621c-0.631 0-1.143 0.782-1.143 1.407v6.798c0 0.627-0.512 1.133-1.143 1.133s-1.143-0.506-1.143-1.133z"></path>
</svg>
