<!-- Generated by IcoMoon.io -->
<svg version="1.1" xmlns="http://www.w3.org/2000/svg" width="32" height="32" viewBox="0 0 32 32">
<title>as-arrow_up-19</title>
<path fill="#37352f" d="M3.197 0c-1.768 0-3.197 1.432-3.197 3.2v8c0 0.883 0.715 1.6 1.598 1.6 0.885 0 1.602-0.717 1.602-1.6v-3.806c0-0.712 0.861-1.069 1.365-0.565l4.838 4.84c0.626 0.624 1.638 0.624 2.262 0 0.626-0.626 0.624-1.638 0-2.262l-4.84-4.84c-0.504-0.504-0.147-1.366 0.565-1.366h3.806c0.883 0 1.6-0.717 1.6-1.6s-0.717-1.6-1.6-1.6h-8zM32 20.8c0-0.883-0.718-1.6-1.602-1.6s-1.598 0.717-1.598 1.6v3.806c0 0.712-0.864 1.069-1.368 0.565l-4.84-4.84c-0.626-0.624-1.638-0.624-2.264 0-0.624 0.626-0.624 1.638 0 2.262l4.84 4.84c0.504 0.504 0.147 1.366-0.565 1.366h-3.806c-0.883 0-1.6 0.717-1.6 1.6s0.717 1.6 1.6 1.6h8c1.768 0 3.203-1.432 3.203-3.2v-8z"></path>
</svg>
