<!-- Generated by IcoMoon.io -->
<svg version="1.1" xmlns="http://www.w3.org/2000/svg" width="32" height="32" viewBox="0 0 32 32">
<title>as-atom-1</title>
<path fill="#37352f" d="M18.4 16.013c0 1.325-1.075 2.4-2.4 2.4s-2.4-1.075-2.4-2.4c0-1.325 1.075-2.4 2.4-2.4s2.4 1.075 2.4 2.4zM24.808 20.499c0.522-2.971 0.523-6.024 0-8.997 2.482 1.242 3.992 2.917 3.992 4.498 0 1.582-1.51 3.258-3.992 4.499zM21.238 21.786c-3.67 0.896-7.8 0.81-11.339-0.23-0.928-3.539-0.938-7.528 0-11.109 3.534-1.038 7.666-1.128 11.339-0.23 1.006 3.656 1.024 7.851 0 11.57zM15.6 28.8c-1.504 0-3.096-1.358-4.317-3.624 2.698 0.498 5.574 0.576 8.554 0.134-1.21 2.182-2.765 3.49-4.237 3.49zM15.6 3.2c1.472 0 3.027 1.309 4.237 3.491-2.979-0.442-5.856-0.363-8.554 0.134 1.221-2.267 2.813-3.626 4.317-3.626zM6.318 20.021c-1.955-1.176-3.118-2.634-3.118-4.021 0-1.386 1.163-2.843 3.118-4.019-0.413 2.646-0.435 5.245 0 8.040zM23.763 7.61c-1.693-4.56-4.71-7.61-8.163-7.61-3.538 0-6.619 3.198-8.285 7.946-4.398 1.71-7.315 4.675-7.315 8.054s2.917 6.346 7.315 8.056c1.666 4.747 4.747 7.944 8.285 7.944 3.453 0 6.47-3.048 8.163-7.608 4.91-1.638 8.237-4.781 8.237-8.392 0-3.61-3.326-6.752-8.237-8.39z"></path>
</svg>
