<!-- Generated by IcoMoon.io -->
<svg version="1.1" xmlns="http://www.w3.org/2000/svg" width="32" height="32" viewBox="0 0 32 32">
<title>as-arrow_right_in-</title>
<path fill="#37352f" d="M10.677 9.162l-0.006 0.005c-0.645 0.6-0.68 1.61-0.078 2.253l1.531 1.634c0.478 0.512 0.115 1.347-0.584 1.347h-9.939c-0.885 0-1.6 0.717-1.6 1.6s0.715 1.6 1.6 1.6h9.915c0.704 0 1.064 0.843 0.578 1.352l-1.485 1.558c-0.611 0.638-0.582 1.653 0.062 2.256 0.638 0.598 1.642 0.568 2.243-0.069l4.302-4.557c1.168-1.238 1.163-3.174-0.011-4.405l-4.298-4.506c-0.6-0.629-1.594-0.659-2.23-0.069zM29.155 0h-10.312c-1.563 0-2.843 1.088-2.843 3.378v1.434c0 0.877 0.71 1.589 1.589 1.589h0.021c0.878 0 1.59-0.712 1.59-1.589v-0.022c0-0.877 0.71-1.589 1.589-1.589h6.421c0.878 0 1.59 0.712 1.59 1.589v22.422c0 0.877-0.712 1.589-1.59 1.589h-6.421c-0.878 0-1.589-0.712-1.589-1.589v-0.022c0-0.877-0.712-1.589-1.59-1.589h-0.021c-0.878 0-1.589 0.712-1.589 1.589v1.789c0 1.891 1.355 3.022 2.843 3.022h10.312c1.571 0 2.845-1.274 2.845-2.845v-26.31c0-1.571-1.274-2.845-2.845-2.845z"></path>
</svg>
