<!-- Generated by IcoMoon.io -->
<svg version="1.1" xmlns="http://www.w3.org/2000/svg" width="32" height="32" viewBox="0 0 32 32">
<title>as-airplane_mode-</title>
<path fill="#37352f" d="M27.669 6.595l-19.28 19.28-2.262-2.262 19.28-19.28c0.624-0.626 1.637-0.626 2.262 0 0.626 0.624 0.626 1.637 0 2.262zM26.663 26.756c0.402 0.974-0.315 2.045-1.37 2.045h-0.011c-0.6 0-1.142-0.363-1.37-0.92l-3.782-9.221 2.266-2.267 4.267 10.363zM4.117 8.068c-0.555-0.227-0.917-0.768-0.917-1.37 0-1.054 1.070-1.771 2.046-1.368l10.362 4.274-2.264 2.264-9.227-3.8zM31.063 3.201l-2.262-2.264c-1.25-1.25-3.275-1.25-4.525 0l-6.406 6.408-11.002-4.522c-3.274-1.346-6.867 1.061-6.867 4.602 0 1.296 0.782 2.466 1.982 2.958l9.099 3.747-6.088 6.088c-0.624 0.624-1.637 0.624-2.262 0-0.624-0.626-1.637-0.626-2.262 0-0.626 0.624-0.626 1.637 0 2.262 6.27 6.27 7.598 7.599 9.051 9.051 0.624 0.624 1.638 0.624 2.262 0 0.626-0.626 0.626-1.638 0-2.262-0.624-0.626-0.624-1.638 0-2.264l6.088-6.086 3.747 9.099c0.493 1.2 1.661 1.982 2.959 1.982 3.539 0 5.947-3.594 4.601-6.867l-4.522-11.002 6.406-6.406c1.25-1.25 1.25-3.275 0-4.525z"></path>
</svg>
