<!-- Generated by IcoMoon.io -->
<svg version="1.1" xmlns="http://www.w3.org/2000/svg" width="32" height="32" viewBox="0 0 32 32">
<title>as-arrow_corner-1</title>
<path fill="#37352f" d="M8 19.2c-0.883 0-1.6-0.717-1.6-1.6v-8c0-1.768 1.432-3.2 3.2-3.2h8c0.883 0 1.6 0.717 1.6 1.6s-0.717 1.6-1.6 1.6h-3.806c-0.712 0-1.069 0.862-0.565 1.366l4.84 4.84c0.624 0.624 0.624 1.637 0 2.262-0.626 0.624-1.638 0.624-2.262 0l-4.84-4.84c-0.504-0.504-1.366-0.147-1.366 0.565v3.806c0 0.883-0.717 1.6-1.6 1.6zM4.8 28.8c-0.883 0-1.6-0.717-1.6-1.6v-22.4c0-0.883 0.717-1.6 1.6-1.6h22.4c0.883 0 1.6 0.717 1.6 1.6v12.8c0 0.883-0.717 1.6-1.6 1.6h-4.8c-1.768 0-3.2 1.432-3.2 3.2v4.8c0 0.883-0.717 1.6-1.6 1.6h-12.8zM32 3.2c0-1.768-1.432-3.2-3.2-3.2h-25.6c-1.768 0-3.2 1.432-3.2 3.2v25.6c0 1.768 1.432 3.2 3.2 3.2h25.6c1.768 0 3.2-1.432 3.2-3.2v-25.6z"></path>
</svg>
