<!-- Generated by IcoMoon.io -->
<svg version="1.1" xmlns="http://www.w3.org/2000/svg" width="32" height="32" viewBox="0 0 32 32">
<title>as-arrow_repeat-4</title>
<path fill="#37352f" d="M16.062 12.444c-0.986 0-1.786 0.796-1.786 1.778v5.333h8.928c0.986 0 1.786-0.889 1.786-1.87v-0.048c0-0.981-0.8-1.637-1.786-1.637h-5.356v-1.778c0-0.981-0.8-1.778-1.785-1.778zM28.423 17.778c-0.889 0-1.63 0.652-1.757 1.527-0.852 5.883-6.542 10.231-12.913 8.898-4.042-0.846-7.312-4.101-8.162-8.126-1.452-6.88 3.809-12.965 10.47-12.965v3.556l8.928-5.333-8.928-5.333v3.556c-8.826 0-15.782 7.97-14.006 17.075 1.082 5.545 5.571 10.014 11.14 11.092 8.438 1.632 15.905-4.139 17.009-11.943 0.15-1.060-0.709-2.002-1.782-2.002z"></path>
</svg>
