<!-- Generated by IcoMoon.io -->
<svg version="1.1" xmlns="http://www.w3.org/2000/svg" width="22" height="32" viewBox="0 0 22 32">
<title>as-attachment-1</title>
<path fill="#37352f" d="M20.813 6.453c0.879 0.003 1.59 0.723 1.587 1.608l-0.113 20.743c-0.005 1.77-1.434 3.201-3.193 3.196l-15.919-0.037c-1.757-0.005-3.179-1.444-3.174-3.214l0.127-25.552c0.005-1.771 1.434-3.203 3.192-3.198l9.552 0.024c1.759 0.005 3.181 1.444 3.176 3.214l-0.11 19.14c-0.005 1.771-1.434 3.203-3.192 3.198l-3.184-0.010c-1.759-0.005-3.181-1.444-3.176-3.216l0.096-14.331c0.003-0.885 0.718-1.6 1.597-1.598 0.879 0.003 1.59 0.723 1.587 1.608l-0.091 12.728c-0.002 0.885 0.708 1.605 1.587 1.608 0.88 0.002 1.595-0.713 1.597-1.598l0.1-15.934c0.002-0.885-0.708-1.606-1.589-1.608l-6.366-0.014c-0.88-0.002-1.595 0.713-1.597 1.598l-0.118 22.339c-0.003 0.89 0.712 1.612 1.594 1.614l12.723 0.027c0.882 0.003 1.6-0.716 1.603-1.604l0.108-19.134c0.003-0.885 0.718-1.601 1.597-1.598z"></path>
</svg>
