<!-- Generated by IcoMoon.io -->
<svg version="1.1" xmlns="http://www.w3.org/2000/svg" width="32" height="32" viewBox="0 0 32 32">
<title>as-bomb-1</title>
<path fill="#37352f" d="M18.657 28.524c-5.614-1.431-7.707-8.469-4.059-12.847l1.059-1.054c4.894-4.045 12.552-0.926 13.135 5.387 0.511 5.531-4.778 9.881-10.135 8.514zM11.836 13.89c-0.873-0.87-2.428-2.121-1.141-3.403 1.291-1.285 2.546 0.265 3.419 1.134l-0.385 0.383c-0.651 0.518-1.241 1.106-1.761 1.754l-0.132 0.132zM0.526 2.627l6.751 6.723c-2.721 2.84 1.055 5.59 2.944 7.471-3.134 8.296 4.592 16.94 13.208 14.867 7.562-1.818 11.055-10.94 6.606-17.309-2.839-4.061-8.132-5.833-12.86-4.249-1.901-1.893-4.729-5.796-7.62-3.049-1.598-1.592-3.198-3.185-4.797-4.777-0.622-0.619-1.221-1.37-1.916-1.908-1.597-1.236-3.886 0.667-2.317 2.23z"></path>
</svg>
