<!-- Generated by IcoMoon.io -->
<svg version="1.1" xmlns="http://www.w3.org/2000/svg" width="32" height="32" viewBox="0 0 32 32">
<title>as-bus_front_view-</title>
<path fill="#37352f" d="M3.2 16v-11.034c0-0.883 0.717-1.766 1.6-1.766h22.4c0.883 0 1.6 0.883 1.6 1.766v11.034h-25.6zM6.4 25.766c-0.883 0-1.6-0.717-1.6-1.6s0.717-1.6 1.6-1.6c0.883 0 1.6 0.717 1.6 1.6s-0.717 1.6-1.6 1.6zM25.6 25.766c-0.883 0-1.6-0.717-1.6-1.6s0.717-1.6 1.6-1.6c0.883 0 1.6 0.717 1.6 1.6s-0.717 1.6-1.6 1.6zM3.2 0c-1.768 0-3.2 1.6-3.2 3.366v22.4c0 1.768 1.432 3.2 3.2 3.2v1.6c0 0.883 0.717 1.434 1.6 1.434h3.2c0.883 0 1.6-0.55 1.6-1.434v-1.766h12.8v1.766c0 0.883 0.717 1.434 1.6 1.434h3.2c0.883 0 1.6-0.55 1.6-1.434v-1.6c1.768 0 3.2-1.432 3.2-3.2v-22.4c0-1.766-1.432-3.366-3.2-3.366h-25.6z"></path>
</svg>
