<!-- Generated by IcoMoon.io -->
<svg version="1.1" xmlns="http://www.w3.org/2000/svg" width="32" height="32" viewBox="0 0 32 32">
<title>as-bug_spider-2</title>
<path fill="#37352f" d="M22.4 4.8c0-0.883-0.717-1.6-1.6-1.6h-9.6c-0.883 0-1.6 0.717-1.6 1.6v22.4c0 0.883 0.717 1.6 1.6 1.6h9.6c0.883 0 1.6-0.717 1.6-1.6v-22.4zM25.6 9.6v4.8h4.8c0.883 0 1.6 0.717 1.6 1.6s-0.717 1.6-1.6 1.6h-4.8v4.8h3.2c1.768 0 3.2 1.432 3.2 3.2v4.8c0 0.883-0.717 1.6-1.6 1.6s-1.6-0.717-1.6-1.6v-3.2c0-0.883-0.717-1.6-1.6-1.6h-1.6v3.2c0 1.768-1.432 3.2-3.2 3.2h-12.8c-1.768 0-3.2-1.432-3.2-3.2v-3.2h-1.6c-0.883 0-1.6 0.717-1.6 1.6v3.2c0 0.883-0.717 1.6-1.6 1.6s-1.6-0.717-1.6-1.6v-4.8c0-1.768 1.432-3.2 3.2-3.2h3.2v-4.8h-4.8c-0.883 0-1.6-0.717-1.6-1.6s0.717-1.6 1.6-1.6h4.8v-4.8h-3.2c-1.768 0-3.2-1.432-3.2-3.2v-4.8c0-0.883 0.717-1.6 1.6-1.6s1.6 0.717 1.6 1.6v3.2c0 0.883 0.717 1.6 1.6 1.6h1.6v-3.2c0-1.768 1.432-3.2 3.2-3.2h12.8c1.768 0 3.2 1.432 3.2 3.2v3.2h1.6c0.883 0 1.6-0.717 1.6-1.6v-3.2c0-0.883 0.717-1.6 1.6-1.6s1.6 0.717 1.6 1.6v4.8c0 1.768-1.432 3.2-3.2 3.2h-3.2zM19.2 22.4c-0.883 0-1.6 0.717-1.6 1.6s0.717 1.6 1.6 1.6c0.883 0 1.6-0.717 1.6-1.6s-0.717-1.6-1.6-1.6zM14.4 24c0 0.883-0.717 1.6-1.6 1.6s-1.6-0.717-1.6-1.6c0-0.883 0.717-1.6 1.6-1.6s1.6 0.717 1.6 1.6z"></path>
</svg>
