<!-- Generated by IcoMoon.io -->
<svg version="1.1" xmlns="http://www.w3.org/2000/svg" width="32" height="32" viewBox="0 0 32 32">
<title>as-bike-</title>
<path fill="#37352f" d="M25.6 28.8c-1.765 0-3.2-1.435-3.2-3.2s1.435-3.2 3.2-3.2c1.765 0 3.2 1.435 3.2 3.2s-1.435 3.2-3.2 3.2zM9.6 25.6c0 1.765-1.435 3.2-3.2 3.2s-3.2-1.435-3.2-3.2c0-1.765 1.435-3.2 3.2-3.2s3.2 1.435 3.2 3.2zM27.2 19.426v-19.426h-9.6v3.2h6.4v7.987l-16 3.963v-2.35h3.2v-3.2h-9.6v3.2h3.2v6.626c-2.755 0.714-4.8 3.195-4.8 6.174 0 3.534 2.866 6.4 6.4 6.4s6.4-2.866 6.4-6.4c0-2.979-2.045-5.461-4.8-6.174v-0.979l16-3.963v4.942c-2.755 0.714-4.8 3.195-4.8 6.174 0 3.534 2.866 6.4 6.4 6.4s6.4-2.866 6.4-6.4c0-2.979-2.045-5.461-4.8-6.174z"></path>
</svg>
