<!-- Generated by IcoMoon.io -->
<svg version="1.1" xmlns="http://www.w3.org/2000/svg" width="16" height="32" viewBox="0 0 16 32">
<title>as-bookmark-5</title>
<path fill="#37352f" d="M12.8 26.534l-1.282-1.282c-2.157-2.157-5.15-1.888-6.912-0.125l-1.406 1.406v-21.734c0-0.883 0.717-1.6 1.6-1.6h6.4c0.883 0 1.6 0.717 1.6 1.6v21.734zM12.8 0h-9.6c-1.768 0-3.2 1.434-3.2 3.2v27.197c0 1.422 1.722 2.141 2.731 1.131l4.138-4.136c0.624-0.626 1.638-0.626 2.262 0l4.138 4.136c1.010 1.010 2.731 0.291 2.731-1.131v-27.197c0-1.766-1.432-3.2-3.2-3.2z"></path>
</svg>
