<!-- Generated by IcoMoon.io -->
<svg version="1.1" xmlns="http://www.w3.org/2000/svg" width="29" height="32" viewBox="0 0 29 32">
<title>as-cover_flow-2</title>
<path fill="#37352f" d="M3.2 25.6c0 0.883 0.717 1.6 1.6 1.6h19.2c0.883 0 1.6-0.717 1.6-1.6s-0.717-1.6-1.6-1.6h-19.2c-0.883 0-1.6 0.717-1.6 1.6zM9.6 17.6c0 0.883 0.717 1.6 1.6 1.6h6.4c0.883 0 1.6-0.717 1.6-1.6v-3.2c0-0.883-0.717-1.6-1.6-1.6h-6.4c-0.883 0-1.6 0.717-1.6 1.6v3.2zM9.6 22.4c-1.768 0-3.2-1.432-3.2-3.2v-6.4c0-1.768 1.432-3.2 3.2-3.2h9.6c1.768 0 3.2 1.432 3.2 3.2v6.4c0 1.768-1.432 3.2-3.2 3.2h-9.6zM24 4.8h-19.2c-0.883 0-1.6 0.717-1.6 1.6s0.717 1.6 1.6 1.6h19.2c0.883 0 1.6-0.717 1.6-1.6s-0.717-1.6-1.6-1.6zM1.6 3.2h25.6c0.883 0 1.6-0.717 1.6-1.6s-0.717-1.6-1.6-1.6h-25.6c-0.883 0-1.6 0.717-1.6 1.6s0.717 1.6 1.6 1.6zM28.8 30.4c0 0.883-0.717 1.6-1.6 1.6h-25.6c-0.883 0-1.6-0.717-1.6-1.6s0.717-1.6 1.6-1.6h25.6c0.883 0 1.6 0.717 1.6 1.6z"></path>
</svg>
