<!-- Generated by IcoMoon.io -->
<svg version="1.1" xmlns="http://www.w3.org/2000/svg" width="32" height="32" viewBox="0 0 32 32">
<title>as-camera-5</title>
<path fill="#37352f" d="M0 27.636c0-0.803 0.652-1.455 1.455-1.455h5.818c0.803 0 1.455 0.652 1.455 1.455s-0.652 1.455-1.455 1.455h-5.818c-0.803 0-1.455-0.652-1.455-1.455zM17.455 25.455c-1.604 0-2.909-1.305-2.909-2.909s1.305-2.909 2.909-2.909c1.604 0 2.909 1.305 2.909 2.909s-1.305 2.909-2.909 2.909zM17.455 16.727c-3.213 0-5.818 2.605-5.818 5.818s2.605 5.818 5.818 5.818c3.213 0 5.818-2.605 5.818-5.818s-2.605-5.818-5.818-5.818zM21.818 8.727h-8.727v-1.455c0-0.803 0.652-1.455 1.455-1.455h5.818c0.803 0 1.455 0.652 1.455 1.455v1.455zM30.545 8.727v-1.455c0-0.803-0.652-1.455-1.455-1.455s-1.455 0.652-1.455 1.455v1.455h-2.909v-2.909c0-1.607-1.302-2.909-2.909-2.909h-8.727c-1.607 0-2.909 1.302-2.909 2.909v2.909h-4.364c-1.607 0-2.909 1.302-2.909 2.909v8.727h2.909v-7.273c0-0.803 0.652-1.455 1.455-1.455h20.364c0.803 0 1.455 0.652 1.455 1.455v13.091h-1.455c-0.803 0-1.455 0.652-1.455 1.455s0.652 1.455 1.455 1.455h1.455c1.607 0 2.909-1.302 2.909-2.909v-17.455h-1.455z"></path>
</svg>
