<!-- Generated by IcoMoon.io -->
<svg version="1.1" xmlns="http://www.w3.org/2000/svg" width="32" height="32" viewBox="0 0 32 32">
<title>as-click-</title>
<path fill="#37352f" d="M16 12.8c-1.768 0-3.2 1.6-3.2 3.2 0 0.37 0.093 0.738 0.245 1.088l-12.466 4.584 3.715 3.717-4.294 4.294 2.317 2.317 4.294-4.294 3.717 3.715 4.584-12.466c0.35 0.152 0.718 0.245 1.088 0.245 1.768 0 3.2-1.6 3.2-3.2 0-1.768-1.432-3.2-3.2-3.2zM16 6.4v3.2c3.53 0 6.4 2.87 6.4 6.4h3.2c0-5.302-4.298-9.6-9.6-9.6zM32 16h-3.2c0-7.058-5.742-12.8-12.8-12.8v-3.2c8.837 0 16 7.163 16 16z"></path>
</svg>
