<!-- Generated by IcoMoon.io -->
<svg version="1.1" xmlns="http://www.w3.org/2000/svg" width="32" height="32" viewBox="0 0 32 32">
<title>as-cloud_plus-2</title>
<path fill="#37352f" d="M24.066 14.387h-1.604v-1.602c0-0.884-0.719-1.602-1.604-1.602s-1.604 0.718-1.604 1.602v1.602h-1.604c-0.886 0-1.604 0.718-1.604 1.602s0.719 1.602 1.604 1.602h1.604v1.602c0 0.884 0.719 1.602 1.604 1.602s1.604-0.718 1.604-1.602v-1.602h1.604c0.886 0 1.604-0.718 1.604-1.602s-0.719-1.602-1.604-1.602zM28.573 14.023c-2.095-8.577-13.939-7.116-15.226-0.777-0.217 1.062-0.361 2.106-0.457 2.942-0.091 0.806-0.789 1.401-1.601 1.401-0.911 0-1.641-0.75-1.617-1.658l0.034-1.225c-0.526-0.199-1.089-0.32-1.683-0.32-2.946 0-5.282 2.656-4.733 5.694 0.42 2.329 2.625 3.916 4.995 3.916l12.574-0.008c5.004-0.080 8.99-4.747 7.716-9.966zM32 15.988c0 6.133-4.725 11.108-11.143 11.204 0 0-0.030 0.002-0.048 0.003 0.018 0 0.032 0.005 0.048 0.005h-12.835c-4.43 0-8.022-3.586-8.022-8.008s3.592-8.008 8.022-8.008c0.868 0 1.688 0.173 2.471 0.428 4.744-11.157 21.507-7.839 21.507 4.377zM20.857 23.971v0.018c-0.043 0.002-0.085 0.008-0.128 0.008 0.088 0 0.128-0.022 0.128-0.026z"></path>
</svg>
