<!-- Generated by IcoMoon.io -->
<svg version="1.1" xmlns="http://www.w3.org/2000/svg" width="32" height="32" viewBox="0 0 32 32">
<title>as-coffee-1</title>
<path fill="#37352f" d="M3.606 8.889c0.995 0 1.803-0.796 1.803-1.778v-5.333c0-0.981-0.808-1.778-1.803-1.778s-1.803 0.796-1.803 1.778v5.333c0 0.981 0.808 1.778 1.803 1.778zM25.239 16h-3.606v5.333h3.606c4.206 0 4.206-5.333 0-5.333zM18.028 16h-12.62c-0.995 0-1.803 0.796-1.803 1.778v3.25c0 3.714 2.753 7.031 6.503 7.383 4.302 0.405 7.92-2.919 7.92-7.077v-5.333zM25.239 24.888h-4.235c-1.621 4.514-6.22 7.637-11.477 7.038-5.511-0.629-9.528-5.495-9.528-10.967v-4.96c0-1.964 1.614-3.556 3.606-3.556h21.634c9.014 0 9.014 12.444 0 12.444zM18.028 8.889c0.995 0 1.803-0.796 1.803-1.778v-5.333c0-0.981-0.808-1.778-1.803-1.778s-1.803 0.796-1.803 1.778v5.333c0 0.981 0.808 1.778 1.803 1.778zM9.014 7.111v-5.333c0-0.981 0.808-1.778 1.803-1.778s1.803 0.796 1.803 1.778v5.333c0 0.981-0.808 1.778-1.803 1.778s-1.803-0.796-1.803-1.778z"></path>
</svg>
