<!-- Generated by IcoMoon.io -->
<svg version="1.1" xmlns="http://www.w3.org/2000/svg" width="34" height="32" viewBox="0 0 34 32">
<title>as-contrast-</title>
<path fill="#37352f" d="M25.055 6.949c-5.003-5.003-13.099-5.003-18.102 0-4.99 4.99-4.99 13.112 0 18.102 5.003 5.003 13.099 5.002 18.102 0 5.003-5.003 5.003-13.099 0-18.102zM27.317 27.313c-6.248 6.248-16.379 6.248-22.627 0s-6.248-16.379 0-22.627c6.248-6.25 16.379-6.248 22.627 0s6.248 16.379 0 22.627zM22.793 22.787l-13.576-13.576c3.749-3.749 9.827-3.749 13.576 0s3.749 9.827 0 13.576z"></path>
</svg>
