<!-- Generated by IcoMoon.io -->
<svg version="1.1" xmlns="http://www.w3.org/2000/svg" width="32" height="32" viewBox="0 0 32 32">
<title>as-cloud_close-1</title>
<path fill="#37352f" d="M26.33 9.37c0 0-1.125-2.989-4.094-5.032-1.779-1.224-3.917-1.938-6.219-1.938-5.694 0-10.387 4.374-11.096 10.028 0 0-2.293 0.53-3.752 2.668-2.923 4.28-0.062 10.049 5.248 10.304v-3.277c-0.707-0.038-1.389-0.283-1.938-0.702-3.368-2.573 0.568-7.873 3.917-5.137-3.304-11.189 13.328-14.866 15.461-3.997 5.357-0.199 6.99 7.634 1.76 9.539v3.341c8.39-2.032 8.39-13.4 0.714-15.797zM21.674 20.294l-3.394 3.491 3.394 3.489-2.262 2.326-3.395-3.489-3.394 3.489-2.262-2.326 3.394-3.489-3.394-3.491 2.262-2.326 3.394 3.491 3.395-3.491 2.262 2.326z"></path>
</svg>
