<!-- Generated by IcoMoon.io -->
<svg version="1.1" xmlns="http://www.w3.org/2000/svg" width="32" height="32" viewBox="0 0 32 32">
<title>as-car-6</title>
<path fill="#37352f" d="M28.8 20.8h-0.931c-0.878-0.976-2.296-1.6-3.712-1.6-0.563 0-1.757 0.115-1.757 0.294v-1.894h6.4v3.2zM24.314 25.6c-0.882 0-1.6-0.718-1.6-1.6s0.718-1.6 1.6-1.6c0.883 0 1.6 0.718 1.6 1.6s-0.717 1.6-1.6 1.6zM3.2 14.4v-8h16v8h-16zM19.2 20.8h-7.331c-0.878-0.976-2.139-1.6-3.555-1.6s-2.675 0.624-3.554 1.6h-1.56v-3.2h16v3.2zM8.314 25.6c-0.882 0-1.6-0.718-1.6-1.6s0.718-1.6 1.6-1.6c0.883 0 1.6 0.718 1.6 1.6s-0.717 1.6-1.6 1.6zM22.4 14.4v-11.2h-22.4v20.8h3.514c0 2.651 2.15 4.8 4.8 4.8 2.651 0 4.8-2.149 4.8-4.8h6.4c0 2.651 2.15 4.8 4.8 4.8 2.651 0 4.8-2.149 4.8-4.8h2.886v-9.6h-9.6z"></path>
</svg>
