<!-- Generated by IcoMoon.io -->
<svg version="1.1" xmlns="http://www.w3.org/2000/svg" width="32" height="32" viewBox="0 0 32 32">
<title>as-car-9</title>
<path fill="#37352f" d="M28.8 24h-1.214c-0.878-0.976-2.154-1.6-3.57-1.6-0.565 0-1.616 0.115-1.616 0.294v-1.894h6.4v3.2zM24.032 28.8c-0.883 0-1.6-0.718-1.6-1.6s0.717-1.6 1.6-1.6c0.882 0 1.6 0.718 1.6 1.6s-0.718 1.6-1.6 1.6zM3.2 17.6v-14.4h16v14.4h-16zM19.2 24h-7.614c-0.878-0.976-2.138-1.6-3.554-1.6-1.418 0-2.677 0.624-3.555 1.6h-1.277v-3.2h16v3.2zM8.032 28.8c-0.883 0-1.6-0.718-1.6-1.6s0.717-1.6 1.6-1.6c0.882 0 1.6 0.718 1.6 1.6s-0.718 1.6-1.6 1.6zM22.4 17.6v-17.6h-22.4v27.2h3.232c0 2.651 2.149 4.8 4.8 4.8 2.65 0 4.8-2.149 4.8-4.8h6.4c0 2.651 2.149 4.8 4.8 4.8 2.65 0 4.8-2.149 4.8-4.8h3.168v-9.6h-9.6z"></path>
</svg>
