<!-- Generated by IcoMoon.io -->
<svg version="1.1" xmlns="http://www.w3.org/2000/svg" width="32" height="32" viewBox="0 0 32 32">
<title>as-cloud_message-</title>
<path fill="#37352f" d="M11.2 16.713c0 0.903-0.717 1.635-1.6 1.635s-1.6-0.733-1.6-1.635c0-0.903 0.717-1.635 1.6-1.635s1.6 0.733 1.6 1.635zM24 16.713c0 0.903-0.717 1.635-1.6 1.635s-1.6-0.733-1.6-1.635c0-0.903 0.717-1.635 1.6-1.635s1.6 0.733 1.6 1.635zM17.6 16.713c0 0.903-0.717 1.635-1.6 1.635s-1.6-0.733-1.6-1.635c0-0.903 0.717-1.635 1.6-1.635s1.6 0.733 1.6 1.635zM28.552 17.104c-0.634 2.023-2.582 3.32-4.661 3.32h-5.341c-0.824 0-1.618 0.325-2.213 0.908l-5.384 5.269c-0.509 0.497-1.354 0.129-1.354-0.59v-3.951c0-0.903-0.717-1.635-1.6-1.635-1.397 0-2.418 0.139-3.538-0.713-0.598-0.455-1.040-1.102-1.195-1.879-0.155-0.78-0.035-1.521 0.278-2.145 0.883-1.764 3.166-2.437 4.834-1.083-1.621-5.454 2.482-10.533 7.621-10.533 3.923 0 7.125 2.937 7.84 6.558 0.027 0 0.053-0.005 0.080-0.008 0.026-0.003 0.053-0.008 0.080-0.008 3.032 0 5.627 3.058 4.552 6.492zM26.314 7.73c-0.010-0.003-0.016-0.008-0.022-0.013-0.006-0.007-0.011-0.013-0.014-0.021-1.731-4.075-5.693-6.896-10.277-6.896-5.696 0-10.387 4.348-11.098 9.97-0.002 0.013-0.006 0.025-0.014 0.033-0.008 0.010-0.019 0.016-0.030 0.020-3.048 0.775-5.237 3.76-4.803 7.2 0.362 2.862 2.661 5.123 5.624 5.572 0.406 0.062 0.722 0.392 0.722 0.813v3.516c0 2.914 3.446 4.373 5.462 2.312l5.931-6.062c0.301-0.306 0.707-0.479 1.131-0.479h4.707c4.218 0 7.981-3.169 8.338-7.465 0.328-3.941-2.11-7.398-5.656-8.499z"></path>
</svg>
