<!-- Generated by IcoMoon.io -->
<svg version="1.1" xmlns="http://www.w3.org/2000/svg" width="32" height="32" viewBox="0 0 32 32">
<title>as-camera-1</title>
<path fill="#37352f" d="M16 15.2c-3.534 0-6.4 2.866-6.4 6.4s2.866 6.4 6.4 6.4c3.534 0 6.4-2.866 6.4-6.4s-2.866-6.4-6.4-6.4zM11.2 9.6v-1.6c0-0.883 0.717-1.6 1.6-1.6h6.4c0.883 0 1.6 0.717 1.6 1.6v1.6h-9.6zM20.8 3.2h-9.6c-1.768 0-3.2 1.432-3.2 3.2v3.2h-4.8c-1.768 0-3.2 1.432-3.2 3.2v12.8c0 1.768 1.432 3.2 3.2 3.2h1.6c0.883 0 1.6-0.717 1.6-1.6s-0.717-1.6-1.6-1.6c-0.883 0-1.6-0.717-1.6-1.6v-9.6c0-0.883 0.717-1.6 1.6-1.6h22.4c0.883 0 1.6 0.717 1.6 1.6v9.6c0 0.883-0.717 1.6-1.6 1.6s-1.6 0.717-1.6 1.6c0 0.883 0.717 1.6 1.6 1.6h1.6c1.768 0 3.2-1.432 3.2-3.2v-16h-1.6v-1.6c0-0.883-0.717-1.6-1.6-1.6s-1.6 0.717-1.6 1.6v1.6h-3.2v-3.2c0-1.768-1.432-3.2-3.2-3.2zM16 18.4c1.765 0 3.2 1.435 3.2 3.2s-1.435 3.2-3.2 3.2c-1.765 0-3.2-1.435-3.2-3.2s1.435-3.2 3.2-3.2z"></path>
</svg>
