<!-- Generated by IcoMoon.io -->
<svg version="1.1" xmlns="http://www.w3.org/2000/svg" width="32" height="32" viewBox="0 0 32 32">
<title>as-cart_close-</title>
<path fill="#37352f" d="M9.325 5.738l-2.262-2.262-2.262 2.262-2.264-2.262-2.262 2.262 2.262 2.262-2.262 2.262 2.262 2.264 2.264-2.264 2.262 2.264 2.262-2.264-2.262-2.262 2.262-2.262zM32 0h-9.6v19.2h-19.2v3.494c-1.861 0.661-3.2 2.419-3.2 4.506 0 2.651 2.149 4.8 4.8 4.8 2.65 0 4.8-2.149 4.8-4.8 0-2.086-1.341-3.845-3.2-4.506v-0.294h16v0.294c-1.861 0.661-3.2 2.419-3.2 4.506 0 2.651 2.149 4.8 4.8 4.8 2.65 0 4.8-2.149 4.8-4.8 0-2.086-1.341-3.845-3.2-4.506v-19.494h6.4v-3.2zM4.8 25.522c0.875 0.312 1.6 0.622 1.6 1.678 0 0.883-0.718 1.6-1.6 1.6-0.883 0-1.6-0.717-1.6-1.6 0-1.056 0.723-1.366 1.6-1.678zM24 25.522c0.875 0.312 1.6 0.622 1.6 1.678 0 0.883-0.718 1.6-1.6 1.6-0.883 0-1.6-0.717-1.6-1.6 0-1.056 0.723-1.366 1.6-1.678z"></path>
</svg>
