<!-- Generated by IcoMoon.io -->
<svg version="1.1" xmlns="http://www.w3.org/2000/svg" width="32" height="32" viewBox="0 0 32 32">
<title>as-cloud_ok-1</title>
<path fill="#37352f" d="M26.33 9.382c0 0-1.125-2.989-4.094-5.032-6.918-4.762-16.259-0.321-17.315 8.089 0 0-2.293 0.53-3.752 2.668-2.923 4.28-0.062 10.048 5.248 10.303v-3.276c-0.707-0.038-1.389-0.283-1.938-0.702-3.365-2.569 0.565-7.875 3.917-5.137-3.253-11.019 13.304-14.986 15.461-3.997 0.027-0.002 0.054-0.005 0.080-0.010 0.027-0.003 0.053-0.007 0.080-0.007 5.267 0 6.75 7.68 1.6 9.555v3.341c8.39-2.031 8.39-13.399 0.714-15.795zM20.932 17.969l2.262 2.326-9.056 9.305-5.275-5.423 2.264-2.326 3.014 3.099 6.79-6.981z"></path>
</svg>
