<!-- Generated by IcoMoon.io -->
<svg version="1.1" xmlns="http://www.w3.org/2000/svg" width="32" height="32" viewBox="0 0 32 32">
<title>as-car_round-1</title>
<path fill="#37352f" d="M28.8 24h-0.955c-0.878-1.6-2.283-1.552-3.699-1.552-0.565 0-1.746 0.163-1.746 0.342v-1.99h4.994c0.883 0 1.406 0.717 1.406 1.6v1.6zM24.29 28.896c-0.882 0-1.6-0.717-1.6-1.6 0-0.882 0.718-1.6 1.6-1.6 0.883 0 1.6 0.718 1.6 1.6 0 0.883-0.717 1.6-1.6 1.6zM19.2 17.6h-4.8v-14.4h3.394c0.883 0 1.406 0.717 1.406 1.6v12.8zM19.2 24h-3.736c-0.328-1.6-1.038-1.6-1.987-3.2h5.723v3.2zM12.045 27.296c-0.555 0.952-1.576 1.6-2.755 1.6-1.178 0-2.198-0.648-2.754-1.6-0.277-0.472-0.446-1.014-0.446-1.6 0-0.584 0.17-1.126 0.446-1.6 0.555-0.95 1.576-1.6 2.754-1.6 1.179 0 2.2 0.65 2.755 1.6 0.275 0.474 0.445 1.016 0.445 1.6 0 0.586-0.168 1.128-0.445 1.6zM3.49 23.027v-2.131h1.586c-0.664 0.589-1.208 1.314-1.586 2.131zM3.2 4.8c0-0.883 0.91-1.6 1.794-1.6h6.206v14.4h-8v-12.8zM29.090 17.6h-6.69v-14.4c0-1.768-1.24-3.2-3.006-3.2h-16c-1.768 0-3.394 1.432-3.394 3.2v21.077c0 1.614 1.405 2.923 3.019 2.923h0.050c0.714 3.2 3.219 4.8 6.197 4.8 2.979 0 5.485-1.6 6.198-4.8h4.026c0 3.2 2.15 4.8 4.8 4.8 2.651 0 4.704-1.6 4.704-4.8 1.714 0 3.006-1.389 3.006-3.104v-3.392c0-1.715-1.195-3.104-2.91-3.104z"></path>
</svg>
