<!-- Generated by IcoMoon.io -->
<svg version="1.1" xmlns="http://www.w3.org/2000/svg" width="32" height="32" viewBox="0 0 32 32">
<title>as-directory_important-2</title>
<path fill="#37352f" d="M28.8 11.201c0-0.883-0.038-1.6-0.922-1.6h-10.904c-1.221 0-2.336-0.696-2.874-1.794l-1.816-3.71c-0.269-0.549-0.827-0.896-1.438-0.896h-5.368c-0.883 0-2.278 0.717-2.278 1.6v22.4c0 0.883 1.395 1.6 2.278 1.6h22.4c0.883 0 0.922-0.717 0.922-1.6v-16zM32 9.601v19.2c0 1.766-0.754 3.2-2.522 3.2h-25.6c-1.766 0-3.878-1.434-3.878-3.2v-25.6c0-1.768 2.112-3.2 3.878-3.2h7.622c1.213 0 2.32 0.685 2.862 1.768l1.43 2.862c0.542 1.085 1.651 1.77 2.862 1.77h10.822c1.768 0 2.522 1.432 2.522 3.2zM16.035 22.401c-0.883 0-1.6 0.717-1.6 1.6s0.717 1.6 1.6 1.6c0.883 0 1.6-0.717 1.6-1.6s-0.717-1.6-1.6-1.6zM14.4 17.601v-3.2c0-0.883 0.717-1.6 1.6-1.6s1.6 0.717 1.6 1.6v3.2c0 0.883-0.717 1.6-1.6 1.6s-1.6-0.717-1.6-1.6z"></path>
</svg>
