<!-- Generated by IcoMoon.io -->
<svg version="1.1" xmlns="http://www.w3.org/2000/svg" width="32" height="32" viewBox="0 0 32 32">
<title>as-directory_music-3</title>
<path fill="#37352f" d="M28.8 9.601h-13.802l-3.133-6.4h-8.666v25.6h25.6v-19.2zM32 6.401v25.6h-32v-32h13.499l3.2 6.4h15.301zM22.4 12.801v8h-0.003c-0.019 1.752-1.442 3.166-3.197 3.166-1.768 0-3.2-1.432-3.2-3.2 0-1.766 1.432-3.2 3.2-3.2v-1.566h-6.4v6.4h-0.003c-0.019 1.752-1.442 3.166-3.197 3.166-1.768 0-3.2-1.432-3.2-3.2 0-1.766 1.432-3.2 3.2-3.2v-6.366h12.8z"></path>
</svg>
