<!-- Generated by IcoMoon.io -->
<svg version="1.1" xmlns="http://www.w3.org/2000/svg" width="32" height="32" viewBox="0 0 32 32">
<title>as-directory_arrow_down-3</title>
<path fill="#37352f" d="M8.137 28.801h-0.85c-0.714 0-1.070-0.864-0.563-1.366l8.133-8.090c0.611-0.61 0.614-1.598 0.006-2.211-0.611-0.618-1.61-0.618-2.221 0l-8.075 8.139c-0.502 0.507-1.368 0.15-1.368-0.563v-0.709c0-0.883-0.715-1.6-1.6-1.6-0.883 0-1.6 0.717-1.6 1.6v4.8c0 1.766 1.434 3.2 3.2 3.2h4.938c0.875 0 1.587-0.702 1.6-1.576 0.013-0.893-0.707-1.624-1.6-1.624zM32 9.601v19.878c0 1.392-1.128 2.522-2.522 2.522h-15.078c-0.883 0-1.6-0.717-1.6-1.6s0.717-1.6 1.6-1.6h12.8c0.885 0 1.6-0.717 1.6-1.6v-16.678c0-0.509-0.413-0.922-0.922-0.922h-10.902c-1.222 0-2.338-0.696-2.875-1.794l-1.816-3.71c-0.269-0.549-0.826-0.896-1.437-0.896h-6.048c-0.883 0-1.6 0.717-1.6 1.6v12.8c0 0.883-0.715 1.6-1.6 1.6-0.883 0-1.6-0.717-1.6-1.6v-13.722c0-2.133 1.746-3.878 3.878-3.878h7.622c1.213 0 2.32 0.685 2.862 1.768l1.432 2.862c0.541 1.085 1.65 1.77 2.861 1.77h10.144c1.768 0 3.2 1.432 3.2 3.2z"></path>
</svg>
