<!-- Generated by IcoMoon.io -->
<svg version="1.1" xmlns="http://www.w3.org/2000/svg" width="32" height="32" viewBox="0 0 32 32">
<title>as-dollar-</title>
<path fill="#37352f" d="M14.667 14.667c-3.548 0-5.333-2.172-5.333-4.667 0-2.412 1.695-4.667 5.333-4.667v9.333zM22.667 22c0 2.412-1.695 4.667-5.333 4.667v-9.333c3.548 0 5.333 2.172 5.333 4.667zM25.333 22c0-3.691-2.7-7.333-8-7.333v-9.333h2.667c1.473 0 2.667 1.193 2.667 2.667h2.667c0-2.945-2.388-5.333-5.333-5.333h-2.667v-2.667h-2.667v2.667c-5.277 0-8 3.629-8 7.333 0 3.691 2.7 7.333 8 7.333v9.333h-2.667c-1.473 0-2.667-1.193-2.667-2.667h-2.667c0 2.945 2.388 5.333 5.333 5.333h2.667v2.667h2.667v-2.667c5.277 0 8-3.629 8-7.333z"></path>
</svg>
