<!-- Generated by IcoMoon.io -->
<svg version="1.1" xmlns="http://www.w3.org/2000/svg" width="32" height="32" viewBox="0 0 32 32">
<title>as-emoji_happy_circle-</title>
<path fill="#37352f" d="M19.2 12.8c0-1.768 1.432-3.2 3.2-3.2s3.2 1.432 3.2 3.2c0 1.768-1.432 3.2-3.2 3.2s-3.2-1.432-3.2-3.2zM6.4 12.8c0-1.768 1.432-3.2 3.2-3.2s3.2 1.432 3.2 3.2c0 1.768-1.432 3.2-3.2 3.2s-3.2-1.432-3.2-3.2zM25.6 20.8c0 3.69-2.306 5.464-4.8 5.464h-8.936c-3.005 0-5.464-2.459-5.464-5.464 0-0.883 0.717-1.434 1.6-1.434s1.6 0.882 1.6 1.766c0 0.883 0.717 1.931 1.6 1.931h9.6c0.883 0 1.6-1.048 1.6-1.931 0-0.885 0.717-1.933 1.6-1.933s1.6 0.717 1.6 1.6zM16 28.8c-7.058 0-12.8-5.742-12.8-12.8s5.742-12.8 12.8-12.8c7.058 0 12.8 5.742 12.8 12.8s-5.742 12.8-12.8 12.8zM16 0c-8.837 0-16 7.163-16 16s7.163 16 16 16c8.837 0 16-7.163 16-16s-7.163-16-16-16z"></path>
</svg>
