<!-- Generated by IcoMoon.io -->
<svg version="1.1" xmlns="http://www.w3.org/2000/svg" width="32" height="32" viewBox="0 0 32 32">
<title>as-emoji_sad_circle-7</title>
<path fill="#37352f" d="M22.4 9.6c-1.768 0-3.2 1.432-3.2 3.2s1.432 3.2 3.2 3.2c1.768 0 3.2-1.432 3.2-3.2s-1.432-3.2-3.2-3.2zM9.6 9.6c-1.768 0-3.2 1.432-3.2 3.2s1.432 3.2 3.2 3.2c1.768 0 3.2-1.432 3.2-3.2s-1.432-3.2-3.2-3.2zM28.8 16c0-7.058-5.742-12.8-12.8-12.8s-12.8 5.742-12.8 12.8c0 7.058 5.742 12.8 12.8 12.8s12.8-5.742 12.8-12.8zM32 16c0 8.837-7.163 16-16 16s-16-7.163-16-16c0-8.837 7.163-16 16-16s16 7.163 16 16zM8.174 23.75c1.622-8.2 14.029-8.2 15.651 0 0.19 0.966-0.613 1.85-1.598 1.85-0.768 0-1.395-0.555-1.574-1.302-1.112-4.664-8.194-4.664-9.306 0-0.179 0.747-0.806 1.302-1.574 1.302-0.986 0-1.789-0.883-1.598-1.85z"></path>
</svg>
