<!-- Generated by IcoMoon.io -->
<svg version="1.1" xmlns="http://www.w3.org/2000/svg" width="32" height="32" viewBox="0 0 32 32">
<title>as-emoji_neutral-12</title>
<path fill="#37352f" d="M25.6 20.8c0 0.883-0.717 1.6-1.6 1.6h-16c-0.883 0-1.6-0.717-1.6-1.6s0.717-1.6 1.6-1.6h16c0.883 0 1.6 0.717 1.6 1.6zM26.262 8.888l-1.6 1.6 1.6 1.6c0.626 0.624 0.626 1.637 0 2.262-0.624 0.624-1.637 0.624-2.262 0l-1.6-1.6-1.6 1.6c-0.626 0.624-1.638 0.624-2.262 0-0.626-0.626-0.626-1.638 0-2.262l1.6-1.6-1.6-1.6c-0.626-0.626-0.626-1.638 0-2.264 0.624-0.624 1.637-0.624 2.262 0l1.6 1.6 1.6-1.6c0.626-0.624 1.638-0.624 2.262 0 0.626 0.626 0.626 1.638 0 2.264zM5.738 14.351c-0.626-0.626-0.626-1.638 0-2.262l1.6-1.6-1.6-1.6c-0.626-0.626-0.626-1.638 0-2.264 0.624-0.624 1.637-0.624 2.262 0l1.6 1.6 1.6-1.6c0.626-0.624 1.638-0.624 2.262 0 0.626 0.626 0.626 1.638 0 2.264l-1.6 1.6 1.6 1.6c0.626 0.624 0.626 1.637 0 2.262-0.624 0.624-1.637 0.624-2.262 0l-1.6-1.6-1.6 1.6c-0.626 0.624-1.638 0.624-2.262 0zM28.8 5.765v9.571c0 7.058-5.742 13.464-12.8 13.464s-12.8-6.406-12.8-13.464v-11.2c0-0.883 0.717-0.936 1.6-0.936h22.4c0.883 0 1.6 0.053 1.6 0.936v1.629zM28.8 0h-25.6c-1.768 0-3.2 0.768-3.2 2.536v12.8c0 3.594 1.2 6.899 3.2 9.571 0.918 1.224 2.005 2.31 3.229 3.229 2.672 2 5.978 3.864 9.571 3.864s6.899-1.864 9.571-3.864c1.224-0.918 2.31-2.005 3.229-3.229 2-2.672 3.2-5.978 3.2-9.571v-12.8c0-1.768-1.432-2.536-3.2-2.536z"></path>
</svg>
