<!-- Generated by IcoMoon.io -->
<svg version="1.1" xmlns="http://www.w3.org/2000/svg" width="32" height="32" viewBox="0 0 32 32">
<title>as-emoji_happy_circle-7</title>
<path fill="#37352f" d="M23.825 19.45c-1.622 8.2-14.029 8.2-15.65 0-0.192-0.966 0.611-1.85 1.597-1.85 0.77 0 1.397 0.554 1.574 1.302 1.112 4.662 8.194 4.662 9.306 0 0.179-0.749 0.806-1.302 1.574-1.302 0.986 0 1.79 0.883 1.598 1.85zM15.999 28.8c-7.058 0-12.8-5.742-12.8-12.8 0-2.542 0.754-4.907 2.037-6.901l2.101 2.101-1.6 1.6c-0.624 0.624-0.624 1.637 0 2.262 0.626 0.624 1.638 0.624 2.262 0l1.6-1.6 1.6 1.6c0.626 0.624 1.638 0.624 2.262 0 0.626-0.626 0.626-1.638 0-2.264l-1.6-1.598 1.6-1.6c0.626-0.626 0.626-1.638 0-2.264-0.624-0.624-1.637-0.624-2.262 0l-1.6 1.6-2.299-2.299c2.286-2.126 5.339-3.437 8.699-3.437 3.362 0 6.414 1.31 8.699 3.437l-2.299 2.299-1.6-1.6c-0.624-0.624-1.637-0.624-2.262 0-0.624 0.626-0.624 1.638 0 2.264l1.6 1.6-1.6 1.6c-0.624 0.624-0.624 1.637 0 2.262 0.626 0.624 1.638 0.624 2.262 0l1.6-1.6 1.6 1.6c0.626 0.624 1.638 0.624 2.262 0 0.626-0.626 0.626-1.638 0-2.264l-1.6-1.598 2.101-2.101c1.283 1.994 2.037 4.358 2.037 6.901 0 7.058-5.742 12.8-12.8 12.8zM15.999 0c-8.837 0-16 7.163-16 16 0 8.835 7.163 16 16 16s16-7.165 16-16c0-8.837-7.163-16-16-16z"></path>
</svg>
