<!-- Generated by IcoMoon.io -->
<svg version="1.1" xmlns="http://www.w3.org/2000/svg" width="32" height="32" viewBox="0 0 32 32">
<title>as-emoji_surprised-1</title>
<path fill="#37352f" d="M19.2 21.736c0 1.768-1.432 3.2-3.2 3.2s-3.2-1.432-3.2-3.2c0-1.768 1.432-3.2 3.2-3.2s3.2 1.432 3.2 3.2zM28.8 26.584c0 0.885-0.717 2.216-1.6 2.216h-22.4c-0.883 0-1.6-1.331-1.6-2.216v-7.384h6.4c1.768 0 3.2-2.096 3.2-3.864v-5.736h6.4v5.736c0 1.768 1.432 3.864 3.2 3.864h6.4v7.384zM9.6 9.6v4.136c0 0.883-0.717 2.264-1.6 2.264h-4.8v-6.4h6.4zM16 2.966c3.208 0 6.136 0.234 8.384 3.434h-16.768c2.248-3.2 5.176-3.434 8.384-3.434zM28.8 9.6v6.4h-4.8c-0.883 0-1.6-1.381-1.6-2.264v-4.136h6.4zM28.733 6.4c-0.904-1.6-1.965-2.586-3.162-3.483-2.672-2.002-5.978-2.917-9.571-2.917s-6.899 0.998-9.571 3c-1.197 0.896-2.258 1.8-3.162 3.4h-3.267v21.784c0 1.768 1.432 3.816 3.2 3.816h25.6c1.768 0 3.2-2.048 3.2-3.816v-21.784h-3.267z"></path>
</svg>
