<!-- Generated by IcoMoon.io -->
<svg version="1.1" xmlns="http://www.w3.org/2000/svg" width="32" height="32" viewBox="0 0 32 32">
<title>as-emoji_happy-5</title>
<path fill="#37352f" d="M8 17.6h16c0 11.2-16 11.2-16 0zM24 9.6c0.883 0 1.6 0.717 1.6 1.6v3.2c0 0.883-0.717 1.6-1.6 1.6h-3.2c-0.88 0-1.6-0.72-1.6-1.6v-3.2c0-0.883 0.717-1.6 1.6-1.6h3.2zM8 16c-0.88 0-1.6-0.72-1.6-1.6v-3.2c0-0.883 0.717-1.6 1.6-1.6h3.2c0.883 0 1.6 0.717 1.6 1.6v3.2c0 0.883-0.717 1.6-1.6 1.6h-3.2zM28.8 26.56c0 0.883-0.717 2.24-1.6 2.24h-22.4c-0.883 0-1.6-1.357-1.6-2.24v-11.2c0-7.058 5.742-12.16 12.8-12.16s12.8 5.102 12.8 12.16v11.2zM28.8 5.789c-0.918-1.224-2.005-2.31-3.229-3.229-2.672-2-5.978-2.56-9.571-2.56-5.589 0-9.474 1.347-12.8 5.789-2 2.672-3.2 5.978-3.2 9.571v12.8c0 1.768 1.432 3.84 3.2 3.84h25.6c1.768 0 3.2-2.072 3.2-3.84v-12.8c0-3.594-1.2-6.899-3.2-9.571z"></path>
</svg>
