<!-- Generated by IcoMoon.io -->
<svg version="1.1" xmlns="http://www.w3.org/2000/svg" width="32" height="32" viewBox="0 0 32 32">
<title>as-emoji_happy_simple-6</title>
<path fill="#37352f" d="M9.259 19.459h-4.494c0 13.673 22.469 13.673 22.469 0h-4.494c0 9.116-13.481 9.116-13.481 0zM32 5.508l-3.177-3.222-3.835 3.89-3.835-3.89-3.177 3.222 3.835 3.89-3.835 3.89 3.177 3.222 3.835-3.89 3.835 3.89 3.177-3.222-3.835-3.89 3.835-3.89zM10.19 9.398l3.835 3.89-3.177 3.222-3.835-3.89-3.835 3.89-3.177-3.222 3.835-3.89-3.835-3.89 3.177-3.222 3.835 3.89 3.835-3.89 3.177 3.222-3.835 3.89z"></path>
</svg>
