<!-- Generated by IcoMoon.io -->
<svg version="1.1" xmlns="http://www.w3.org/2000/svg" width="32" height="32" viewBox="0 0 32 32">
<title>as-emoji_sad_circle-</title>
<path fill="#37352f" d="M25.6 11.864v3.2c0 0.883-0.717 1.6-1.6 1.6h-3.2c-0.88 0-1.6-0.72-1.6-1.6v-3.2c0-0.883 0.717-1.6 1.6-1.6h3.2c0.883 0 1.6 0.717 1.6 1.6zM12.8 11.864v3.2c0 0.883-0.717 1.6-1.6 1.6h-3.2c-0.88 0-1.6-0.72-1.6-1.6v-3.2c0-0.883 0.717-1.6 1.6-1.6h3.2c0.883 0 1.6 0.717 1.6 1.6zM25.432 24.955c-0.414-1.286-1.608-1.891-3.032-1.891h-12.8c-1.424 0-2.618 0.605-3.032 1.891-2.085-2.278-3.368-5.466-3.368-8.789 0-7.059 5.742-12.883 12.8-12.883s12.8 5.866 12.8 12.925c0 3.323-1.283 6.469-3.368 8.747zM9.624 27.414c0.062-0.826 0.734-1.15 1.576-1.15h9.6c0.842 0 1.514 0.325 1.576 1.15-1.88 1.086-4.053 1.717-6.376 1.717s-4.496-0.63-6.376-1.717zM16 0c-8.837 0-16 7.163-16 16s7.163 16 16 16c8.837 0 16-7.163 16-16s-7.163-16-16-16z"></path>
</svg>
