<!-- Generated by IcoMoon.io -->
<svg version="1.1" xmlns="http://www.w3.org/2000/svg" width="32" height="32" viewBox="0 0 32 32">
<title>as-file_exe-</title>
<path fill="#37352f" d="M28.786 14.401c0 0.883 0.708 1.6 1.591 1.6h0.003c0.884 0 1.604-0.717 1.604-1.6v-3.627c0-0.411-0.166-0.805-0.448-1.102l-8.72-9.173c-0.302-0.318-0.724-0.498-1.163-0.498h-18.471c-1.767 0-3.182 1.432-3.182 3.2v11.2c0 0.883 0.708 1.6 1.591 1.6h0.003c0.884 0 1.604-0.717 1.604-1.6v-9.6c0-0.883 0.699-1.6 1.583-1.6h14.409v6.4c0 1.768 1.415 3.2 3.182 3.2h6.413v1.6zM30.401 27.201c0.884 0 1.599-0.717 1.599-1.6s-0.715-1.6-1.599-1.6h-4.814v-1.6h4.814c0.884 0 1.599-0.717 1.599-1.6s-0.715-1.6-1.599-1.6h-6.397c-0.883 0-1.615 0.717-1.615 1.6v9.6c0 0.883 0.732 1.6 1.615 1.6h6.397c0.884 0 1.599-0.717 1.599-1.6s-0.715-1.6-1.599-1.6h-4.814v-1.6h4.814zM8.012 22.401c0.884 0 1.599-0.717 1.599-1.6s-0.715-1.6-1.599-1.6h-6.397c-0.883 0-1.615 0.717-1.615 1.6v9.6c0 0.883 0.732 1.6 1.615 1.6h6.397c0.884 0 1.599-0.717 1.599-1.6s-0.715-1.6-1.599-1.6h-4.814v-1.6h4.814c0.884 0 1.599-0.717 1.599-1.6s-0.715-1.6-1.599-1.6h-4.814v-1.6h4.814zM19.737 21.271l-2.162 4.33 2.162 4.33c0.477 0.95-0.216 2.070-1.279 2.070-0.54 0-1.036-0.306-1.279-0.79l-1.203-2.41-1.204 2.41c-0.243 0.485-0.737 0.79-1.279 0.79-1.063 0-1.756-1.12-1.279-2.070l2.164-4.33-2.164-4.33c-0.477-0.95 0.216-2.070 1.279-2.070 0.542 0 1.036 0.306 1.279 0.79l1.204 2.41 1.203-2.41c0.243-0.485 0.739-0.79 1.279-0.79 1.064 0 1.756 1.12 1.279 2.070z"></path>
</svg>
