<!-- Generated by IcoMoon.io -->
<svg version="1.1" xmlns="http://www.w3.org/2000/svg" width="32" height="32" viewBox="0 0 32 32">
<title>as-file_arrow_up-</title>
<path fill="#37352f" d="M28.708 27.217c0 0.875-0.504 1.584-1.376 1.584h-12.978v-9.827c0-0.702 0.938-1.064 1.447-0.581l1.654 1.518c0.633 0.602 1.657 0.573 2.257-0.062l0.035-0.024c0.598-0.635 0.577-1.638-0.057-2.238l-4.533-4.301c-1.231-1.17-3.159-1.165-4.388 0.008l-4.509 4.306c-0.625 0.597-0.657 1.586-0.072 2.221 0.595 0.65 1.606 0.685 2.246 0.078l1.486-1.507c0.509-0.482 1.244-0.12 1.244 0.582v9.827h-6.193c-0.872 0-1.782-0.709-1.782-1.584v-22.432c0-0.875 0.909-1.584 1.782-1.584h14.167v6.4c0 1.766 1.632 3.2 3.392 3.2h6.177v14.416zM31.898 28.801v-18.544c0-0.421-0.065-0.822-0.36-1.12l-8.544-8.672c-0.295-0.298-0.697-0.464-1.116-0.464h-18.485c-1.761 0-3.29 1.6-3.29 3.2h-0.102v25.6h0.102c0 1.6 1.478 3.2 3.239 3.2h25.569c1.762 0 3.089-1.434 3.089-3.2h-0.102z"></path>
</svg>
