<!-- Generated by IcoMoon.io -->
<svg version="1.1" xmlns="http://www.w3.org/2000/svg" width="32" height="32" viewBox="0 0 32 32">
<title>as-file_done-</title>
<path fill="#37352f" d="M4.842 20.139c-0.019 0-0.039-0.001-0.060-0.001-0.009 0-0.013 0.001-0.022 0.001h0.081zM31.845 8.507l-7.537-7.867c-0.272-0.268-0.64-0.64-1.024-0.64h-16.862c-1.586 0-3.195 1.495-3.195 3.064l-0.324 0.222v15.858c0 0.775 1.082 0.984 1.879 0.994 0.781-0.004 1.025-0.209 1.025-0.994v-14.385c0-0.796 1.298-1.882 2.101-1.882h12.421v6.232c0 1.569 1.933 2.399 3.519 2.399h5.194v13.39c0 0.794-0.001 0.995-0.803 0.995h-14.522c-0.784 0-2.032 0.824-2.090 1.604 0.058 0.762 1.306 1.273 2.090 1.273h16.009c1.584 0 2.221-0.83 2.221-2.399v-16.734c0-0.383 0.17-0.86-0.103-1.129zM11.617 27.553c0-0.019 0.010-0.037 0.012-0.056-0.001-0.019-0.012-0.036-0.012-0.055v0.111zM9.562 23.936c0.568 0.562 0.568 1.473 0 2.034l-6.088 6.030-0.123-0.124-2.926-2.899c-0.566-0.561-0.566-1.472 0-2.034 0.568-0.561 1.487-0.561 2.053 0l0.996 0.987 4.034-3.995c0.566-0.561 1.486-0.561 2.053 0z"></path>
</svg>
