<!-- Generated by IcoMoon.io -->
<svg version="1.1" xmlns="http://www.w3.org/2000/svg" width="35" height="32" viewBox="0 0 35 32">
<title>as-file_missing_minus-1</title>
<path fill="#37352f" d="M32 19.267h3.2v-3.183h-3.2v3.183zM19.2 32h3.2v-3.183h-3.2v3.183zM25.6 32h3.2v-3.183h-3.2v3.183zM32 32h3.2v-3.183h-3.2v3.183zM0 31.833h9.6v-3.183h-9.6v3.183zM3.2 3.35h3.2v-3.183h-3.2v3.183zM32 25.633h3.2v-3.183h-3.2v3.183zM9.6 3.35h3.2v-3.183h-3.2v3.183zM16 3.35h3.2v-3.183h-3.2v3.183zM3.2 9.717h3.2v-3.183h-3.2v3.183zM3.2 22.45h3.2v-3.183h-3.2v3.183zM12.8 32h3.2v-3.183h-3.2v3.183zM25.6 0h-3.2v12.733h12.8v-3.016l-9.6-9.717zM3.2 16.084h3.2v-3.183h-3.2v3.183z"></path>
</svg>
