<!-- Generated by IcoMoon.io -->
<svg version="1.1" xmlns="http://www.w3.org/2000/svg" width="32" height="32" viewBox="0 0 32 32">
<title>as-file_src-1</title>
<path fill="#37352f" d="M22.367 0.001h-22.366v16h3.2v-12.8h16v9.6h9.6v3.2h3.2v-5.699l-9.634-10.301zM17.6 24.169c0-0.885-0.717-1.6-1.6-1.6h-1.6v3.2h1.6c0.883 0 1.6-0.717 1.6-1.6zM18.759 27.961l2.042 4.040h-3.2l-1.6-3.2h-1.6v3.2h-3.2v-12.8h4.8c2.651 0 4.8 2.234 4.8 4.883 0 1.622-0.81 3.008-2.042 3.877zM3.2 19.201c-1.768 0-3.2 1.6-3.2 3.368v1.6c0 1.766 1.432 3.032 3.2 3.032h2.4c0.442 0 0.8 0.358 0.8 0.8s-0.358 0.8-0.8 0.8h-5.6v3.2h6.434c1.749 0 3.166-1.25 3.166-3v-1.666c0-1.749-1.418-3.334-3.166-3.334h-2.434c-0.442 0-0.8-0.358-0.8-0.8s0.358-0.8 0.8-0.8h5.6v-3.2h-6.4zM28.8 19.201h3.2v3.2h-3.2c-1.768 0-3.2 1.432-3.2 3.2 0 1.766 1.432 3.2 3.2 3.2h3.2v3.2h-3.2c-3.534 0-6.4-2.866-6.4-6.4s2.866-6.4 6.4-6.4z"></path>
</svg>
