<!-- Generated by IcoMoon.io -->
<svg version="1.1" xmlns="http://www.w3.org/2000/svg" width="32" height="32" viewBox="0 0 32 32">
<title>as-file_psd-1</title>
<path fill="#37352f" d="M22.367 0.001h-22.366v16h3.2v-12.8h16v9.6h9.6v3.2h3.2v-5.699l-9.634-10.301zM6.4 24.169c0-0.885-0.717-1.6-1.6-1.6h-1.6v3.2h1.6c0.883 0 1.6-0.717 1.6-1.6zM9.6 24.001c0 2.651-2.149 4.8-4.8 4.8h-1.6v3.2h-3.2v-12.8h4.8c2.651 0 4.8 2.149 4.8 4.8zM28.8 24.169c0-0.885-0.717-1.768-1.6-1.768h-1.6v6.4h1.6c0.883 0 1.6-0.549 1.6-1.432v-3.2zM32 24.001v3.2c0 2.651-2.149 4.8-4.8 4.8h-4.8v-12.8h4.8c2.64 0 4.8 2.16 4.8 4.8zM20.8 19.201v3.2h-5.6c-0.442 0-0.8 0.358-0.8 0.8s0.358 0.8 0.8 0.8h2.434c1.749 0 3.166 1.586 3.166 3.334v1.666c0 1.75-1.418 3-3.166 3h-6.434v-3.2h5.6c0.442 0 0.8-0.358 0.8-0.8s-0.358-0.8-0.8-0.8h-2.4c-1.768 0-3.2-1.266-3.2-3.032v-1.6c0-1.768 1.432-3.368 3.2-3.368h6.4z"></path>
</svg>
