<!-- Generated by IcoMoon.io -->
<svg version="1.1" xmlns="http://www.w3.org/2000/svg" width="22" height="32" viewBox="0 0 22 32">
<title>as-fileboard_love_favorite-</title>
<path fill="#37352f" d="M14.235 20.653c-3.043 2.794-3.442 2.445-6.158-0.080-2.552-2.373-1.906-5.211-0.050-5.85 1.171-0.405 2.27 0.099 2.987 1.010 0.093 0.118 0.278 0.115 0.371-0.003 0.666-0.851 1.661-1.347 2.774-1.070 2.050 0.51 2.805 3.491 0.075 5.994zM19.2 27.2c0 0.883-0.715 1.6-1.6 1.6h-12.8c-0.883 0-1.6-0.717-1.6-1.6v-20c0-0.442 0.358-0.8 0.8-0.8h0.8c0 1.766 1.434 3.2 3.2 3.2h6.4c1.768 0 3.2-1.434 3.2-3.2h0.8c0.442 0 0.8 0.358 0.8 0.8v20zM9.6 3.2h3.2c0.885 0 1.6 0.715 1.6 1.6 0 0.883-0.715 1.6-1.6 1.6h-3.2c-0.883 0-1.6-0.717-1.6-1.6 0-0.885 0.717-1.6 1.6-1.6zM19.2 3.2h-1.6c0-1.768-1.432-3.2-3.2-3.2h-6.4c-1.766 0-3.2 1.432-3.2 3.2h-1.6c-1.766 0-3.2 1.432-3.2 3.2v22.4c0 1.766 1.434 3.2 3.2 3.2h16c1.768 0 3.2-1.434 3.2-3.2v-22.4c0-1.768-1.432-3.2-3.2-3.2z"></path>
</svg>
