<!-- Generated by IcoMoon.io -->
<svg version="1.1" xmlns="http://www.w3.org/2000/svg" width="32" height="32" viewBox="0 0 32 32">
<title>as-file_js-1</title>
<path fill="#37352f" d="M22.367 0.001h-22.366v16h3.2v-12.8h16v9.6h9.6v16h-4.8v3.2h8v-22.957l-9.634-9.043zM6.4 27.369c0 0.883-0.717 1.432-1.6 1.432h-4.8v3.2h6.4c1.766 0 3.2-1.266 3.2-3.032v-9.768h-3.2v8.168zM20.8 19.201v3.2h-5.6c-0.442 0-0.8 0.358-0.8 0.8s0.358 0.8 0.8 0.8h2.434c1.749 0 3.166 1.586 3.166 3.334v1.666c0 1.75-1.418 3-3.166 3h-6.434v-3.2h5.6c0.442 0 0.8-0.358 0.8-0.8s-0.358-0.8-0.8-0.8h-2.4c-1.768 0-3.2-1.266-3.2-3.032v-1.6c0-1.768 1.432-3.368 3.2-3.368h6.4z"></path>
</svg>
