<!-- Generated by IcoMoon.io -->
<svg version="1.1" xmlns="http://www.w3.org/2000/svg" width="32" height="32" viewBox="0 0 32 32">
<title>as-focus_point-</title>
<path fill="#37352f" d="M19.2 17.603v-3.205c0-0.883-0.715-1.598-1.597-1.598h-3.206c-0.882 0-1.597 0.715-1.597 1.598v3.205c0 0.882 0.715 1.597 1.597 1.597h3.206c0.882 0 1.597-0.715 1.597-1.597zM19.2 22.399h-1.6v1.6c0 0.885-0.717 1.6-1.6 1.6s-1.6-0.715-1.6-1.6v-1.6h-1.6c-1.768 0-3.2-1.432-3.2-3.2v-1.6h-1.6c-0.883 0-1.6-0.715-1.6-1.6 0-0.883 0.717-1.6 1.6-1.6h1.6v-1.6c0-1.766 1.432-3.2 3.2-3.2h1.6v-1.6c0-0.883 0.717-1.6 1.6-1.6s1.6 0.717 1.6 1.6v1.6h1.6c1.768 0 3.2 1.434 3.2 3.2v1.6h1.6c0.883 0 1.6 0.717 1.6 1.6 0 0.885-0.717 1.6-1.6 1.6h-1.6v1.6c0 1.768-1.432 3.2-3.2 3.2zM28.8-0.001h-8c-0.883 0-1.6 0.717-1.6 1.6 0 0.885 0.717 1.6 1.6 1.6h6.4c0.883 0 1.6 0.717 1.6 1.6v6.4c0 0.885 0.717 1.6 1.6 1.6s1.6-0.715 1.6-1.6v-8c0-1.766-1.432-3.2-3.2-3.2zM30.4 19.199c-0.883 0-1.6 0.717-1.6 1.6v6.4c0 0.885-0.717 1.6-1.6 1.6h-6.4c-0.883 0-1.6 0.717-1.6 1.6 0 0.885 0.717 1.6 1.6 1.6h8c1.768 0 3.2-1.432 3.2-3.2v-8c0-0.883-0.717-1.6-1.6-1.6zM11.2 28.799h-6.4c-0.883 0-1.6-0.715-1.6-1.6v-6.4c0-0.883-0.717-1.6-1.6-1.6s-1.6 0.717-1.6 1.6v8c0 1.768 1.432 3.2 3.2 3.2h8c0.883 0 1.6-0.715 1.6-1.6 0-0.883-0.717-1.6-1.6-1.6zM1.6 12.799c0.883 0 1.6-0.715 1.6-1.6v-6.4c0-0.883 0.717-1.6 1.6-1.6h6.4c0.883 0 1.6-0.715 1.6-1.6 0-0.883-0.717-1.6-1.6-1.6h-8c-1.768 0-3.2 1.434-3.2 3.2v8c0 0.885 0.717 1.6 1.6 1.6zM0.016 15.999l-0.016 0.016v-0.030l0.016 0.014z"></path>
</svg>
