<!-- Generated by IcoMoon.io -->
<svg version="1.1" xmlns="http://www.w3.org/2000/svg" width="32" height="32" viewBox="0 0 32 32">
<title>as-folder_plus-2</title>
<path fill="#37352f" d="M20.487 19.201c0 0.883-0.717 1.6-1.6 1.6h-1.286v1.6c0 0.883-0.795 1.6-1.678 1.6h-0.078c-0.883 0-1.443-0.717-1.443-1.6v-1.6h-1.914c-0.883 0-1.6-0.717-1.6-1.6s0.717-1.6 1.6-1.6h1.914v-1.6c0-0.87 0.621-1.571 1.483-1.592 0.869 0.021 1.717 0.722 1.717 1.592v1.6h1.286c0.883 0 1.6 0.717 1.6 1.6zM15.922 14.401c-0.014 0-0.026 0.008-0.038 0.008-0.014 0-0.027-0.008-0.040-0.008h0.078zM28.801 27.201c0 0.883-1.030 1.6-1.914 1.6h-22.4c-0.883 0-1.286-0.717-1.286-1.6v-22.4c0-0.883 0.403-1.6 1.286-1.6h5.368c0.611 0 1.17 0.347 1.437 0.896l1.818 3.71c0.538 1.098 1.653 1.794 2.874 1.794h10.904c0.883 0 1.914 0.717 1.914 1.6v16zM28.487 6.401h-10.822c-1.211 0-2.32-0.685-2.862-1.77l-1.43-2.861c-0.542-1.085-1.651-1.77-2.862-1.77h-7.622c-1.768 0-2.886 1.432-2.886 3.2v25.6c0 1.768 1.118 3.2 2.886 3.2h25.6c1.768 0 3.514-1.432 3.514-3.2v-19.2c0-1.768-1.746-3.2-3.514-3.2z"></path>
</svg>
