<!-- Generated by IcoMoon.io -->
<svg version="1.1" xmlns="http://www.w3.org/2000/svg" width="32" height="32" viewBox="0 0 32 32">
<title>as-file_php-1</title>
<path fill="#37352f" d="M17.6 24.001h-3.2v-4.8h-3.2v12.8h3.2v-4.8h3.2v4.8h3.2v-12.8h-3.2v4.8zM28.8 24.169c0-0.885-0.717-1.6-1.6-1.6h-1.6v3.2h1.6c0.883 0 1.6-0.717 1.6-1.6zM32 24.001c0 2.651-2.149 4.8-4.8 4.8h-1.6v3.2h-3.2v-12.8h4.8c2.651 0 4.8 2.149 4.8 4.8zM6.4 24.169c0-0.885-0.717-1.6-1.6-1.6h-1.6v3.2h1.6c0.883 0 1.6-0.717 1.6-1.6zM9.6 24.001c0 2.651-2.149 4.8-4.8 4.8h-1.6v3.2h-3.2v-12.8h4.8c2.651 0 4.8 2.149 4.8 4.8zM32 10.302v5.699h-3.2v-3.2h-9.6v-9.6h-16v12.8h-3.2v-16h22.366l9.634 10.301z"></path>
</svg>
