<!-- Generated by IcoMoon.io -->
<svg version="1.1" xmlns="http://www.w3.org/2000/svg" width="32" height="32" viewBox="0 0 32 32">
<title>as-focus_horizontal_round_round-</title>
<path fill="#37352f" d="M28.8 25.6v-3.2c0-0.883-0.717-1.6-1.6-1.6s-1.6 0.717-1.6 1.6v1.6c0 0.883-0.717 1.6-1.6 1.6h-1.6c-0.883 0-1.6 0.717-1.6 1.6s0.717 1.6 1.6 1.6h3.2c1.768 0 3.2-1.432 3.2-3.2zM25.6 3.2h-3.2c-0.883 0-1.6 0.717-1.6 1.6s0.717 1.6 1.6 1.6h1.6c0.883 0 1.6 0.717 1.6 1.6v1.6c0 0.883 0.717 1.6 1.6 1.6s1.6-0.717 1.6-1.6v-3.2c0-1.768-1.432-3.2-3.2-3.2zM6.4 28.8h3.2c0.883 0 1.6-0.717 1.6-1.6s-0.717-1.6-1.6-1.6h-1.6c-0.883 0-1.6-0.717-1.6-1.6v-1.6c0-0.883-0.717-1.6-1.6-1.6s-1.6 0.717-1.6 1.6v3.2c0 1.768 1.432 3.2 3.2 3.2zM4.8 11.2c0.883 0 1.6-0.717 1.6-1.6v-1.6c0-0.883 0.717-1.6 1.6-1.6h1.6c0.883 0 1.6-0.717 1.6-1.6s-0.717-1.6-1.6-1.6h-3.2c-1.768 0-3.2 1.432-3.2 3.2v3.2c0 0.883 0.717 1.6 1.6 1.6zM0 16c0-0.883 0.717-1.6 1.6-1.6h28.8c0.883 0 1.6 0.717 1.6 1.6s-0.717 1.6-1.6 1.6h-28.8c-0.883 0-1.6-0.717-1.6-1.6z"></path>
</svg>
