<!-- Generated by IcoMoon.io -->
<svg version="1.1" xmlns="http://www.w3.org/2000/svg" width="22" height="32" viewBox="0 0 22 32">
<title>as-female-</title>
<path fill="#37352f" d="M11.216 19.153c-2.135 0-4.141-0.83-5.652-2.337-5.032-5.026-1.419-13.624 5.652-13.624 7.066 0 10.689 8.593 5.652 13.624-1.51 1.507-3.516 2.337-5.652 2.337zM19.106 19.073c7.073-7.063 1.977-19.073-7.894-19.073-9.849 0-15.004 12.011-7.93 19.073 1.776 1.773 4.693 2.814 6.291 3.144v3.398h-4.795v3.192h4.795v3.192h3.197v-3.192h4.795v-3.192h-4.795v-3.398c3.197-0.33 4.559-1.371 6.336-3.144z"></path>
</svg>
