<!-- Generated by IcoMoon.io -->
<svg version="1.1" xmlns="http://www.w3.org/2000/svg" width="32" height="32" viewBox="0 0 32 32">
<title>as-gallery_grid_view-</title>
<path fill="#37352f" d="M9.6 28.8h-4.8c-0.883 0-1.6-0.717-1.6-1.6s0.717-1.6 1.6-1.6h4.8c0.883 0 1.6 0.717 1.6 1.6s-0.717 1.6-1.6 1.6zM11.2 22.4h-8c-1.768 0-3.2 1.432-3.2 3.2v3.2c0 1.768 1.432 3.2 3.2 3.2h8c1.768 0 3.2-1.432 3.2-3.2v-3.2c0-1.768-1.432-3.2-3.2-3.2zM27.2 6.4h-4.8c-0.883 0-1.6-0.717-1.6-1.6s0.717-1.6 1.6-1.6h4.8c0.883 0 1.6 0.717 1.6 1.6s-0.717 1.6-1.6 1.6zM28.8 0h-8c-1.768 0-3.2 1.432-3.2 3.2v3.2c0 1.768 1.432 3.2 3.2 3.2h8c1.768 0 3.2-1.432 3.2-3.2v-3.2c0-1.768-1.432-3.2-3.2-3.2zM28.8 27.2c0 0.883-0.717 1.6-1.6 1.6h-4.8c-0.883 0-1.6-0.717-1.6-1.6v-9.6c0-0.883 0.717-1.6 1.6-1.6h4.8c0.883 0 1.6 0.717 1.6 1.6v9.6zM28.8 12.8h-8c-1.768 0-3.2 1.432-3.2 3.2v12.8c0 1.768 1.432 3.2 3.2 3.2h8c1.768 0 3.2-1.432 3.2-3.2v-12.8c0-1.768-1.432-3.2-3.2-3.2zM11.2 14.4c0 0.883-0.717 1.6-1.6 1.6h-4.8c-0.883 0-1.6-0.717-1.6-1.6v-9.6c0-0.883 0.717-1.6 1.6-1.6h4.8c0.883 0 1.6 0.717 1.6 1.6v9.6zM11.2 0h-8c-1.768 0-3.2 1.432-3.2 3.2v12.8c0 1.768 1.432 3.2 3.2 3.2h8c1.768 0 3.2-1.432 3.2-3.2v-12.8c0-1.768-1.432-3.2-3.2-3.2z"></path>
</svg>
