<!-- Generated by IcoMoon.io -->
<svg version="1.1" xmlns="http://www.w3.org/2000/svg" width="32" height="32" viewBox="0 0 32 32">
<title>as-HD-</title>
<path fill="#37352f" d="M4.8 11.2v9.6c0 0.883 0.717 1.6 1.6 1.6s1.6-0.717 1.6-1.6v-3.2h3.2v3.2c0 0.883 0.717 1.6 1.6 1.6s1.6-0.717 1.6-1.6v-9.6c0-0.883-0.717-1.6-1.6-1.6s-1.6 0.717-1.6 1.6v3.2h-3.2v-3.2c0-0.883-0.717-1.6-1.6-1.6s-1.6 0.717-1.6 1.6zM24 13.6c0-0.442-0.358-0.8-0.8-0.8h-2.4v6.4h2.4c0.44 0 0.8-0.36 0.8-0.8v-4.8zM24.632 22.4h-5.432c-0.883 0-1.6-0.717-1.6-1.6v-9.6c0-0.883 0.717-1.6 1.6-1.6h5.432c1.419 0 2.568 1.149 2.568 2.568v7.664c0 1.419-1.149 2.568-2.568 2.568zM3.2 0c-1.768 0-3.2 1.432-3.2 3.2v1.6c0 0.883 0.717 1.6 1.6 1.6s1.6-0.717 1.6-1.6c0-0.883 0.717-1.6 1.6-1.6h22.4c0.883 0 1.6 0.717 1.6 1.6s0.717 1.6 1.6 1.6c0.883 0 1.6-0.717 1.6-1.6v-1.6c0-1.768-1.432-3.2-3.2-3.2h-25.6zM28.8 27.2c0-0.883 0.717-1.6 1.6-1.6s1.6 0.717 1.6 1.6v1.6c0 1.768-1.432 3.2-3.2 3.2h-25.6c-1.768 0-3.2-1.432-3.2-3.2v-1.6c0-0.883 0.717-1.6 1.6-1.6s1.6 0.717 1.6 1.6c0 0.883 0.717 1.6 1.6 1.6h22.4c0.883 0 1.6-0.717 1.6-1.6z"></path>
</svg>
