<!-- Generated by IcoMoon.io -->
<svg version="1.1" xmlns="http://www.w3.org/2000/svg" width="32" height="32" viewBox="0 0 32 32">
<title>as-hanger-</title>
<path fill="#37352f" d="M30.399 12.8c-0.883 0-1.598 0.717-1.598 1.6v3.2c0 0.883-0.72 1.6-1.603 1.6h-9.597v-17.6c0-0.883-0.718-1.6-1.602-1.6s-1.598 0.717-1.598 1.6v11.2h-9.603c-0.883 0-1.597-0.717-1.597-1.6v-3.2c0-0.883-0.718-1.6-1.602-1.6s-1.598 0.717-1.598 1.6v4.8c0 1.766 1.429 3.2 3.197 3.2h11.203v12.8h-4.803c-0.874 0-1.576 0.534-1.592 1.4 0.030 0.869 0.728 1.8 1.592 1.8h12.8c0.883 0 1.603-0.888 1.603-1.773v-0.085c0-0.885-0.72-1.342-1.603-1.342h-4.797v-6.4h11.197c1.766 0 3.203-1.434 3.203-3.2v-4.8c0-0.883-0.718-1.6-1.602-1.6zM8.001 30.143c0 0.019 0.005 0.038 0.005 0.058 0 0.011-0.005 0.018-0.005 0.027v-0.085z"></path>
</svg>
