<!-- Generated by IcoMoon.io -->
<svg version="1.1" xmlns="http://www.w3.org/2000/svg" width="32" height="32" viewBox="0 0 32 32">
<title>as-images_round-</title>
<path fill="#37352f" d="M22.4 10.4c0-0.883-0.717-0.8-1.6-0.8h-16c-0.883 0-1.6-0.083-1.6 0.8v15.2h19.2v-15.2zM25.6 9.6v19.2c0 1.766-1.432 3.2-3.2 3.2h-19.2c-1.766 0-3.2-1.434-3.2-3.2v-19.2c0-1.768 1.434-3.2 3.2-3.2h19.2c1.768 0 3.2 1.432 3.2 3.2zM32 3.301v19.899c0 0.883-0.717 1.6-1.6 1.6s-1.6-0.717-1.6-1.6v-19.2c0-0.883-0.717-0.8-1.6-0.8h-19.2c-0.883 0-1.6-0.842-1.6-1.725s0.717-1.475 1.6-1.475h20.8c1.95 0 3.2 1.301 3.2 3.301z"></path>
</svg>
