<!-- Generated by IcoMoon.io -->
<svg version="1.1" xmlns="http://www.w3.org/2000/svg" width="32" height="32" viewBox="0 0 32 32">
<title>as-inbox_paper_round-</title>
<path fill="#37352f" d="M27.2 16v-4.8l1.6 4.8h-1.6zM27.2 28.8h-22.4c-0.883 0-1.6-0.717-1.6-1.6v-8h4.8c0.883 0 1.6 0.717 1.6 1.6v1.6c0 1.768 1.432 3.2 3.2 3.2h6.4c1.768 0 3.2-1.432 3.2-3.2v-1.6c0-0.883 0.717-1.6 1.6-1.6h4.8v8c0 0.883-0.717 1.6-1.6 1.6zM4.8 11.2v4.8h-1.6l1.6-4.8zM9.6 3.2h12.8c0.883 0 1.6 0.717 1.6 1.6v11.2h-1.6c-1.768 0-3.2 1.432-3.2 3.2v1.6c0 0.883-0.717 1.6-1.6 1.6h-3.2c-0.883 0-1.6-0.717-1.6-1.6v-1.6c0-1.768-1.432-3.2-3.2-3.2h-1.6v-11.2c0-0.883 0.717-1.6 1.6-1.6zM28.8 6.4h-1.6v-3.2c0-1.768-1.432-3.2-3.2-3.2h-16c-1.768 0-3.2 1.432-3.2 3.2v3.2h-1.6l-3.2 9.6v12.8c0 1.768 1.432 3.2 3.2 3.2h25.6c1.768 0 3.2-1.432 3.2-3.2v-12.8l-3.2-9.6z"></path>
</svg>
