<!-- Generated by IcoMoon.io -->
<svg version="1.1" xmlns="http://www.w3.org/2000/svg" width="32" height="32" viewBox="0 0 32 32">
<title>as-inbox_close-</title>
<path fill="#37352f" d="M13.737 14.125l-2.262-2.262 2.262-2.262-2.262-2.264 2.262-2.262 2.262 2.262 2.262-2.262 2.264 2.262-2.264 2.264 2.264 2.262-2.264 2.262-2.262-2.262-2.262 2.262zM27.2 16.001v-4.934l1.6 4.934h-1.6zM28.8 28.801h-25.6v-9.6h6.4v6.4h12.8v-6.4h6.4v9.6zM4.8 11.066v4.934h-1.6l1.6-4.934zM8 3.201h16v12.8h-4.8v6.4h-6.4v-6.4h-4.8v-12.8zM28.8 6.401h-1.6v-6.4h-22.4v6.4h-1.6l-3.2 9.466v16.134h32v-16.134l-3.2-9.466z"></path>
</svg>
