<!-- Generated by IcoMoon.io -->
<svg version="1.1" xmlns="http://www.w3.org/2000/svg" width="32" height="32" viewBox="0 0 32 32">
<title>as-inbox_up_round-</title>
<path fill="#37352f" d="M27.2 16v-4.718l1.6 4.718h-1.6zM28.8 27.282c0 0.883-0.717 1.518-1.6 1.518h-22.4c-0.883 0-1.6-0.635-1.6-1.518v-8.082h4.8c0.883 0 1.6 0.798 1.6 1.682v1.6c0 1.766 1.432 3.118 3.2 3.118h6.4c1.768 0 3.2-1.352 3.2-3.118v-1.6c0-0.883 0.717-1.682 1.6-1.682h4.8v8.082zM4.8 11.282v4.718h-1.6l1.6-4.718zM8 4.882c0-0.883 0.717-1.682 1.6-1.682h12.8c0.883 0 1.6 0.798 1.6 1.682v11.118h-1.6c-1.768 0-3.2 1.514-3.2 3.282v1.6c0 0.883-0.717 1.518-1.6 1.518h-0.053l-0.045-9.992c-0.003-0.715 0.861-1.054 1.365-0.549l0.501 0.509c0.624 0.626 1.638 0.63 2.262 0.006 0.626-0.626 0.626-1.635 0-2.261-2.955-2.954-2.051-2.051-3.394-3.392-1.25-1.25-3.277-1.25-4.526 0-0.754 0.755-2.714 2.714-3.491 3.491-0.618 0.619-0.626 1.619-0.016 2.246 0.622 0.64 1.648 0.648 2.28 0.016l0.6-0.6c0.504-0.504 1.366-0.186 1.365 0.528l-0.030 9.997h-0.018c-0.883 0-1.6-0.635-1.6-1.518v-1.6c0-1.768-1.432-3.282-3.2-3.282h-1.6v-11.118zM28.8 6.4h-1.6v-3.118c0-1.768-1.432-3.282-3.2-3.282h-16c-1.768 0-3.2 1.514-3.2 3.282v3.118h-1.6l-3.2 9.682v12.8c0 1.766 1.432 3.118 3.2 3.118h25.6c1.768 0 3.2-1.352 3.2-3.118v-12.8l-3.2-9.682z"></path>
</svg>
