<!-- Generated by IcoMoon.io -->
<svg version="1.1" xmlns="http://www.w3.org/2000/svg" width="32" height="32" viewBox="0 0 32 32">
<title>as-like-</title>
<path fill="#37352f" d="M0 16.034v12.8c0 1.768 1.432 3.166 3.2 3.166h3.2v-19.2h-3.2c-1.768 0-3.2 1.466-3.2 3.234zM31.886 18.168l-2.781 10.456c-0.458 1.986-2.226 3.376-4.264 3.376h-15.242v-19.166l2.75-9.912c0.325-2.107 2.514-3.522 4.731-2.67 1.326 0.51 2.118 1.891 2.118 3.314v7.669c0 0.883 0.717 1.566 1.6 1.566h6.822c2.814 0 4.896 2.627 4.264 5.368z"></path>
</svg>
