<!-- Generated by IcoMoon.io -->
<svg version="1.1" xmlns="http://www.w3.org/2000/svg" width="32" height="32" viewBox="0 0 32 32">
<title>as-message_three_points-2</title>
<path fill="#37352f" d="M20.8 14.546c0-1.765 1.432-3.194 3.2-3.194s3.2 1.43 3.2 3.194c0 1.765-1.432 3.194-3.2 3.194s-3.2-1.43-3.2-3.194zM12.8 14.546c0-1.765 1.432-3.194 3.2-3.194s3.2 1.43 3.2 3.194c0 1.765-1.432 3.194-3.2 3.194s-3.2-1.43-3.2-3.194zM4.8 14.546c0-1.765 1.432-3.194 3.2-3.194s3.2 1.43 3.2 3.194c0 1.765-1.432 3.194-3.2 3.194s-3.2-1.43-3.2-3.194zM28.8 22.364h-9.498l-0.954 1.802c-1.154 1.926-0.826 1.378-1.637 2.725-0.173 0.259-0.413 0.366-0.586 0.366-0.774 0-1.838-2.388-2.202-3.075l-0.95-1.818h-9.774v-17.57h25.6v17.57zM0 1.6v23.959h11.274c1.267 2.412 2.138 4.841 4.853 4.841 2.925 0 3.402-2.112 4.859-4.841h11.014v-23.959h-32z"></path>
</svg>
