<!-- Generated by IcoMoon.io -->
<svg version="1.1" xmlns="http://www.w3.org/2000/svg" width="10" height="32" viewBox="0 0 10 32">
<title>as-menu_option-</title>
<path fill="#37352f" d="M4.8 28.8c-0.883 0-1.6-0.717-1.6-1.6s0.717-1.6 1.6-1.6c0.883 0 1.6 0.717 1.6 1.6s-0.717 1.6-1.6 1.6zM6.4 22.4h-3.2c-1.768 0-3.2 1.432-3.2 3.2v3.2c0 1.768 1.432 3.2 3.2 3.2h3.2c1.768 0 3.2-1.432 3.2-3.2v-3.2c0-1.768-1.432-3.2-3.2-3.2zM4.8 17.6c-0.883 0-1.6-0.717-1.6-1.6s0.717-1.6 1.6-1.6c0.883 0 1.6 0.717 1.6 1.6s-0.717 1.6-1.6 1.6zM6.4 11.2h-3.2c-1.768 0-3.2 1.432-3.2 3.2v3.2c0 1.768 1.432 3.2 3.2 3.2h3.2c1.768 0 3.2-1.432 3.2-3.2v-3.2c0-1.768-1.432-3.2-3.2-3.2zM4.8 6.4c-0.883 0-1.6-0.717-1.6-1.6s0.717-1.6 1.6-1.6c0.883 0 1.6 0.717 1.6 1.6s-0.717 1.6-1.6 1.6zM6.4 0h-3.2c-1.768 0-3.2 1.432-3.2 3.2v3.2c0 1.768 1.432 3.2 3.2 3.2h3.2c1.768 0 3.2-1.432 3.2-3.2v-3.2c0-1.768-1.432-3.2-3.2-3.2z"></path>
</svg>
