<!-- Generated by IcoMoon.io -->
<svg version="1.1" xmlns="http://www.w3.org/2000/svg" width="32" height="32" viewBox="0 0 32 32">
<title>as-money-1</title>
<path fill="#37352f" d="M12.8 16c0-1.768 1.432-3.2 3.2-3.2s3.2 1.432 3.2 3.2c0 1.768-1.432 3.2-3.2 3.2s-3.2-1.432-3.2-3.2zM26.149 9.6h2.651v2.651l-2.651-2.651zM28.8 22.4h-2.651l2.651-2.651v2.651zM3.2 22.4v-2.651l2.651 2.651h-2.651zM3.2 9.6h2.651l-2.651 2.651v-2.651zM21.624 9.6l6.4 6.4-6.4 6.4h-11.248l-6.4-6.4 6.4-6.4h11.248zM0 25.6h32v-19.2h-32v19.2z"></path>
</svg>
