<!-- Generated by IcoMoon.io -->
<svg version="1.1" xmlns="http://www.w3.org/2000/svg" width="32" height="32" viewBox="0 0 32 32">
<title>as-message_three_points-</title>
<path fill="#37352f" d="M26.996 15.904c0 1.768-1.432 3.2-3.2 3.2s-3.2-1.432-3.2-3.2c0-1.768 1.432-3.2 3.2-3.2s3.2 1.432 3.2 3.2zM18.996 15.904c0 1.768-1.432 3.2-3.2 3.2s-3.2-1.432-3.2-3.2 1.432-3.2 3.2-3.2c1.768 0 3.2 1.432 3.2 3.2zM10.996 15.904c0 1.768-1.432 3.2-3.2 3.2s-3.2-1.432-3.2-3.2c0-1.768 1.432-3.2 3.2-3.2s3.2 1.432 3.2 3.2zM27.907 28.8c0 0-4.186-1.189-7.077-1.189-2.358 0-2.896 0.418-4.898 0.418-6.528 0-11.802-4.816-12.611-10.667-1.075-7.766 5.109-14.163 12.611-14.162 6.309 0 11.272 4.325 12.44 9.733 0.429 1.976 0.386 3.938-0.125 5.829-0.608 2.248-0.581 4.776 0.078 7.309 0.338 1.294 0.958 2.73-0.419 2.73zM31.868 26.974c0 0-0.443-1.704-0.445-1.71-0.485-1.856-0.589-3.816-0.088-5.667 0.618-2.282 0.722-4.768 0.165-7.341-1.472-6.808-7.722-12.256-15.568-12.256-9.533-0.002-17.109 8.203-15.781 17.8 1.027 7.426 7.642 13.429 15.781 13.429 2.35 0 2.824-0.418 4.899-0.418 2.502 0 6.042 1.059 6.042 1.059 3.021 0.757 5.766-1.934 4.995-4.896z"></path>
</svg>
