<!-- Generated by IcoMoon.io -->
<svg version="1.1" xmlns="http://www.w3.org/2000/svg" width="32" height="32" viewBox="0 0 32 32">
<title>as-movement_focus_round-</title>
<path fill="#37352f" d="M28.8 0h-8c-0.883 0-1.6 0.717-1.6 1.6s0.717 1.6 1.6 1.6h6.4c0.883 0 1.6 0.717 1.6 1.6v6.4c0 0.883 0.717 1.6 1.6 1.6s1.6-0.717 1.6-1.6v-8c0-1.768-1.432-3.2-3.2-3.2zM32 28.8v-8c0-0.883-0.717-1.6-1.6-1.6s-1.6 0.717-1.6 1.6v6.4c0 0.883-0.717 1.6-1.6 1.6h-6.4c-0.883 0-1.6 0.717-1.6 1.6s0.717 1.6 1.6 1.6h8c1.768 0 3.2-1.432 3.2-3.2zM9.6 24c0-0.883-0.717-1.6-1.6-1.6h-3.2c-0.883 0-1.6 0.717-1.6 1.6v3.2c0 0.883 0.717 1.6 1.6 1.6h3.2c0.883 0 1.6-0.717 1.6-1.6v-3.2zM12.8 28.8c0 1.768-1.432 3.2-3.2 3.2h-6.4c-1.768 0-3.2-1.432-3.2-3.2v-6.4c0-1.768 1.432-3.2 3.2-3.2h6.4c1.768 0 3.2 1.432 3.2 3.2v6.4zM0 11.2v-8c0-1.768 1.432-3.2 3.2-3.2h8c0.883 0 1.6 0.717 1.6 1.6s-0.717 1.6-1.6 1.6h-6.4c-0.883 0-1.6 0.717-1.6 1.6v6.4c0 0.883-0.717 1.6-1.6 1.6s-1.6-0.717-1.6-1.6z"></path>
</svg>
