<!-- Generated by IcoMoon.io -->
<svg version="1.1" xmlns="http://www.w3.org/2000/svg" width="32" height="32" viewBox="0 0 32 32">
<title>as-money-</title>
<path fill="#37352f" d="M6.4 8h-3.2v-6.4h25.6v6.4h-3.2v-3.2h-19.2v3.2zM19.2 20.8c0 1.768-1.432 3.2-3.2 3.2s-3.2-1.432-3.2-3.2c0-1.768 1.432-3.2 3.2-3.2s3.2 1.432 3.2 3.2zM28.8 17.051l-2.651-2.651h2.651v2.651zM28.8 27.2h-2.651l2.651-2.651v2.651zM10.376 27.2l-6.4-6.4 6.4-6.4h11.248l6.4 6.4-6.4 6.4h-11.248zM3.2 27.2v-2.651l2.651 2.651h-2.651zM3.2 14.4h2.651l-2.651 2.651v-2.651zM0 30.4h32v-19.2h-32v19.2z"></path>
</svg>
