<!-- Generated by IcoMoon.io -->
<svg version="1.1" xmlns="http://www.w3.org/2000/svg" width="32" height="32" viewBox="0 0 32 32">
<title>as-profile_image_close_round-</title>
<path fill="#37352f" d="M30.855 28.187c0.558 0.556 0.558 1.457 0 2.012-0.558 0.556-1.461 0.556-2.017 0l-1.008-1.006-1.008 1.006c-0.558 0.556-1.461 0.556-2.018 0-0.556-0.555-0.556-1.456 0-2.012l1.009-1.006-1.009-1.006c-0.556-0.556-0.556-1.457 0-2.012 0.558-0.556 1.461-0.556 2.018 0l1.008 1.006 1.008-1.006c0.556-0.556 1.459-0.556 2.017 0 0.558 0.555 0.558 1.456 0 2.012l-1.009 1.006 1.009 1.006zM15.88 14.205c-0.837-0.068-1.083-0.057-1.791-0.004-1.927-0.414-3.376-2.124-3.376-4.169 0-2.354 1.919-4.269 4.279-4.269 2.359 0 4.279 1.915 4.279 4.269 0 2.049-1.456 3.764-3.391 4.174zM3.598 24.345c-0.003-0.030-0.017-0.054-0.017-0.084v-19.921c0-0.785 0.638-1.423 1.426-1.423h9.894c-3.897 0.050-7.041 3.213-7.041 7.111 0 2.056 0.887 3.895 2.284 5.194-3.559 1.649-6.126 5.061-6.546 9.124zM15.083 2.917h9.894c0.787 0 1.426 0.637 1.426 1.423v12.807c0 0.785 0.638 1.423 1.426 1.423 0.787 0 1.426-0.638 1.426-1.423v-14.23c0-1.571-1.278-2.846-2.853-2.846h-22.822c-1.576 0-2.853 1.275-2.853 2.846v22.767c0 1.572 1.277 2.846 2.853 2.846h14.264c0.787 0 1.426-0.637 1.426-1.423s-0.639-1.423-1.426-1.423h-11.448c0 0-0.009-0.094-0.009-0.151 0-4.406 3.362-8.033 7.661-8.481 1.426 0.189 3.886-0.408 5.522 1.108 1.426 1.322 3.582-0.794 1.977-1.931-0.545-0.386-1.127-0.727-1.742-1.016 1.415-1.299 2.318-3.129 2.318-5.201 0-3.897-3.145-7.046-7.041-7.096z"></path>
</svg>
