<!-- Generated by IcoMoon.io -->
<svg version="1.1" xmlns="http://www.w3.org/2000/svg" width="32" height="32" viewBox="0 0 32 32">
<title>as-profile_image-2</title>
<path fill="#37352f" d="M28.8 28.8h-0.752c-0.974-4.008-3.827-7.274-7.582-8.808 0.958-1.118 1.558-2.554 1.558-4.142 0-3.534-2.866-6.4-6.4-6.4s-6.4 2.866-6.4 6.4c0 1.589 0.6 3.024 1.558 4.142-3.755 1.533-6.608 4.797-7.582 8.803v-25.595h25.6v25.6zM12.424 15.85c0-1.765 1.435-3.2 3.2-3.2s3.2 1.435 3.2 3.2c0 1.742-1.4 3.157-3.133 3.194-0.022 0-0.045-0.003-0.067-0.003s-0.045 0.003-0.067 0.003c-1.733-0.037-3.133-1.451-3.133-3.194zM6.522 28.8c1.266-3.789 4.83-6.528 9.035-6.557 0.022 0 0.043 0.006 0.067 0.006s0.045-0.006 0.067-0.006c4.206 0.029 7.773 2.768 9.037 6.557h-18.206zM0 32h32v-32h-32v32z"></path>
</svg>
