<!-- Generated by IcoMoon.io -->
<svg version="1.1" xmlns="http://www.w3.org/2000/svg" width="22" height="32" viewBox="0 0 22 32">
<title>as-pin_rounded_plus-</title>
<path fill="#37352f" d="M16 11.2c0 0.883-0.717 1.6-1.6 1.6h-1.6v1.6c0 0.883-0.717 1.6-1.6 1.6s-1.6-0.717-1.6-1.6v-1.6h-1.6c-0.883 0-1.6-0.717-1.6-1.6s0.717-1.6 1.6-1.6h1.6v-1.6c0-0.883 0.717-1.6 1.6-1.6s1.6 0.717 1.6 1.6v1.6h1.6c0.883 0 1.6 0.717 1.6 1.6zM11.2 28.8c-2.915 0-8-11.186-8-17.6 0-4.411 3.589-8 8-8s8 3.589 8 8c0 6.414-5.085 17.6-8 17.6zM11.2 0c-6.186 0-11.2 5.014-11.2 11.2s5.014 20.8 11.2 20.8c6.186 0 11.2-14.614 11.2-20.8s-5.014-11.2-11.2-11.2z"></path>
</svg>
