<!-- Generated by IcoMoon.io -->
<svg version="1.1" xmlns="http://www.w3.org/2000/svg" width="32" height="32" viewBox="0 0 32 32">
<title>as-profile_minus-3</title>
<path fill="#37352f" d="M20.329 23.774c-1.744-2.158-4.445-3.882-7.478-3.902-0.022 0-0.043 0.035-0.067 0.035s-0.045-0.026-0.067-0.026c-3.032 0.021-5.73 1.736-7.474 3.893-0.853 1.053-0.117 2.626 1.238 2.626h12.608c1.355 0 2.091-1.571 1.24-2.626zM9.583 13.525c0 1.742 1.4 3.157 3.133 3.194 0.022 0 0.045-0.003 0.067-0.003s0.045 0.003 0.067 0.003c1.733-0.037 3.133-1.451 3.133-3.194 0-1.763-1.435-3.2-3.2-3.2s-3.2 1.437-3.2 3.2zM24.721 25.19c0.819 2.12-0.699 4.41-2.971 4.41h-18.547c-2.31 0-3.843-2.365-2.939-4.49 1.384-3.256 4.114-6.17 7.331-7.483-0.958-1.118-1.211-2.518-1.211-4.107 0-4.045 3.754-7.221 7.97-6.218 2.334 0.557 4.195 2.498 4.686 4.846 0.45 2.139-0.19 4.053-1.414 5.482 3.245 1.326 5.824 4.274 7.096 7.56zM32.001 4c0 0.883-0.717 1.6-1.6 1.6h-9.6c-0.885 0-1.6-0.717-1.6-1.6s0.715-1.6 1.6-1.6h9.6c0.883 0 1.6 0.717 1.6 1.6z"></path>
</svg>
