<!-- Generated by IcoMoon.io -->
<svg version="1.1" xmlns="http://www.w3.org/2000/svg" width="32" height="32" viewBox="0 0 32 32">
<title>as-profile_plus_round-1</title>
<path fill="#37352f" d="M32 6.4c0 0.883-0.717 1.6-1.6 1.6h-3.2v3.2c0 0.883-0.717 1.6-1.6 1.6s-1.6-0.717-1.6-1.6v-3.2h-3.2c-0.883 0-1.6-0.717-1.6-1.6s0.717-1.6 1.6-1.6h3.2v-3.2c0-0.883 0.717-1.6 1.6-1.6s1.6 0.717 1.6 1.6v3.2h3.2c0.883 0 1.6 0.717 1.6 1.6zM18.784 28.8h-13.005c-1.272 0-2.077-1.442-1.344-2.482 1.726-2.446 4.565-4.053 7.778-4.075 0.022 0 0.045 0.006 0.067 0.006 0.024 0 0.045-0.006 0.069-0.006 3.214 0.022 6.054 1.627 7.779 4.075 0.733 1.040-0.070 2.482-1.344 2.482zM12.28 12.65c1.765 0 3.2 1.435 3.2 3.2 0 1.742-1.4 3.157-3.131 3.194-0.024 0-0.045-0.003-0.069-0.003-0.022 0-0.045 0.003-0.067 0.003-1.733-0.037-3.133-1.451-3.133-3.194 0-1.765 1.437-3.2 3.2-3.2zM17.122 19.992c1.328-1.549 1.968-3.704 1.278-6.034-0.635-2.15-2.443-3.848-4.63-4.341-4.182-0.942-7.89 2.211-7.89 6.232 0 1.589 0.6 3.024 1.558 4.142-3.406 1.392-6.082 4.298-7.277 7.848-0.688 2.048 0.909 4.16 3.069 4.16h18.099c2.16 0 3.758-2.112 3.069-4.16-1.195-3.55-3.869-6.456-7.277-7.848z"></path>
</svg>
