<!-- Generated by IcoMoon.io -->
<svg version="1.1" xmlns="http://www.w3.org/2000/svg" width="19" height="32" viewBox="0 0 19 32">
<title>as-phone-2</title>
<path fill="#37352f" d="M16 4.8c0-0.883-0.717-1.6-1.6-1.6h-9.6c-0.883 0-1.6 0.717-1.6 1.6v22.4c0 0.883 0.717 1.6 1.6 1.6h9.6c0.883 0 1.6-0.717 1.6-1.6v-22.4zM19.2 3.2v25.6c0 1.768-1.432 3.2-3.2 3.2h-12.8c-1.768 0-3.2-1.432-3.2-3.2v-25.6c0-1.768 1.432-3.2 3.2-3.2h12.8c1.768 0 3.2 1.432 3.2 3.2zM11.234 24c0 0.883-0.717 1.6-1.6 1.6s-1.6-0.717-1.6-1.6c0-0.883 0.717-1.6 1.6-1.6s1.6 0.717 1.6 1.6z"></path>
</svg>
