<!-- Generated by IcoMoon.io -->
<svg version="1.1" xmlns="http://www.w3.org/2000/svg" width="32" height="32" viewBox="0 0 32 32">
<title>as-planet_system-</title>
<path fill="#37352f" d="M25.6 4.8c0-2.067 3.2-2.163 3.2 0 0 2.080-3.2 2.155-3.2 0zM16 28.8c-7.058 0-12.8-5.742-12.8-12.8s5.742-12.8 12.8-12.8c2.339 0 4.525 0.642 6.414 1.741 0.075 2.536 2.109 4.57 4.645 4.645 1.099 1.89 1.741 4.075 1.741 6.414 0 7.058-5.742 12.8-12.8 12.8zM32 4.8c0-2.651-2.149-4.8-4.8-4.8-1.53 0-2.877 0.73-3.755 1.843-2.224-1.173-4.755-1.843-7.445-1.843-8.837 0-16 7.163-16 16s7.163 16 16 16c8.837 0 16-7.163 16-16 0-2.69-0.67-5.219-1.843-7.445 1.114-0.878 1.843-2.226 1.843-3.755zM16 20.8c-2.646 0-4.8-2.154-4.8-4.8s2.154-4.8 4.8-4.8c2.646 0 4.8 2.154 4.8 4.8s-2.154 4.8-4.8 4.8zM16 8c-4.418 0-8 3.582-8 8s3.582 8 8 8c4.418 0 8-3.582 8-8s-3.582-8-8-8z"></path>
</svg>
