<!-- Generated by IcoMoon.io -->
<svg version="1.1" xmlns="http://www.w3.org/2000/svg" width="32" height="32" viewBox="0 0 32 32">
<title>as-profile_minus-</title>
<path fill="#37352f" d="M31.999 4c0 0.883-0.717 1.6-1.6 1.6h-9.6c-0.883 0-1.6-0.717-1.6-1.6s0.717-1.6 1.6-1.6h9.6c0.883 0 1.6 0.717 1.6 1.6zM12.756 16.643c-0.022 0-0.045-0.003-0.067-0.003-0.024 0-0.045 0.003-0.069 0.003-1.733-0.037-3.131-1.451-3.131-3.194 0-1.765 1.435-3.2 3.2-3.2 1.763 0 3.2 1.435 3.2 3.2 0 1.742-1.4 3.157-3.133 3.194zM17.529 17.592c1.328-1.549 1.968-3.704 1.278-6.034-0.635-2.15-2.443-3.846-4.629-4.341-4.182-0.942-7.89 2.211-7.89 6.232 0 1.589 0.6 3.024 1.557 4.142-4.133 1.688-7.186 5.603-7.83 10.195-0.134 0.958 0.63 1.813 1.598 1.813 0.79 0 1.459-0.581 1.571-1.365 0.659-4.651 4.634-8.358 9.435-8.392 0.024 0 0.045 0.006 0.069 0.006 0.022 0 0.043-0.006 0.067-0.006 4.802 0.034 8.776 3.741 9.435 8.394 0.112 0.782 0.781 1.363 1.573 1.363 0.966 0 1.731-0.854 1.597-1.813-0.645-4.592-3.698-8.506-7.832-10.195z"></path>
</svg>
