<!-- Generated by IcoMoon.io -->
<svg version="1.1" xmlns="http://www.w3.org/2000/svg" width="32" height="32" viewBox="0 0 32 32">
<title>as-profile_image_zoom-</title>
<path fill="#37352f" d="M28.8 21.789c-1.6-2.278-3.906-4.005-6.624-5.026 2.186-1.76 3.669-4.296 3.669-7.32 0-2.462-0.854-4.643-2.378-6.243h5.333v18.589zM3.872 28.8c1.322-6.4 6.398-9.6 12.454-9.6s11.131 3.2 12.453 9.6h-24.907zM3.2 21.789v-18.589h5.986c-1.525 1.6-2.459 3.781-2.459 6.243 0 3.024 1.238 5.638 3.424 7.398-2.718 1.021-5.35 2.669-6.95 4.947zM16.326 2.886c3.528 0 6.4 2.87 6.4 6.4 0 3.528-2.872 6.4-6.4 6.4-3.53 0-6.4-2.872-6.4-6.4 0-3.53 2.87-6.4 6.4-6.4zM0 32h32v-32h-32v32z"></path>
</svg>
