<!-- Generated by IcoMoon.io -->
<svg version="1.1" xmlns="http://www.w3.org/2000/svg" width="32" height="32" viewBox="0 0 32 32">
<title>as-reddit-</title>
<path fill="#37352f" d="M20.846 20.396c-1.219 0-2.242-1.001-2.242-2.236 0-1.236 1.022-2.27 2.242-2.27 1.218 0 2.205 1.034 2.205 2.27 0 1.235-0.986 2.236-2.205 2.236zM21.157 24.527c-1.077 1.091-2.765 1.621-5.158 1.621-2.395 0-4.082-0.531-5.157-1.621-0.234-0.237-0.234-0.62 0-0.858 0.232-0.237 0.611-0.237 0.845 0 0.84 0.852 2.25 1.267 4.312 1.267 2.061 0 3.472-0.415 4.314-1.267 0.232-0.237 0.611-0.237 0.845 0 0.234 0.239 0.234 0.621 0 0.858zM8.947 18.16c0-1.235 1.021-2.27 2.238-2.27s2.205 1.035 2.205 2.27c0 1.235-0.987 2.236-2.205 2.236s-2.238-1.001-2.238-2.236zM32 15.701c0-2.027-1.626-3.675-3.624-3.675-0.922 0-1.79 0.349-2.456 0.974-2.392-1.579-5.595-2.6-9.142-2.739l1.957-6.058 5.139 1.227c0.002 1.668 1.339 3.023 2.984 3.023s2.984-1.358 2.984-3.026c0-1.668-1.339-3.026-2.984-3.026-1.232 0-2.29 0.759-2.746 1.842-1.107-0.264-5.066-1.211-6.173-1.475l-2.416 7.481c-3.682 0.070-7.018 1.086-9.499 2.702-0.658-0.592-1.509-0.923-2.402-0.923-1.997 0-3.622 1.649-3.622 3.675 0 1.287 0.662 2.467 1.722 3.129-0.965 5.78 5.75 10.77 14.211 10.77 8.426 0 15.118-4.946 14.226-10.697 1.133-0.644 1.842-1.852 1.842-3.202z"></path>
</svg>
