<!-- Generated by IcoMoon.io -->
<svg version="1.1" xmlns="http://www.w3.org/2000/svg" width="32" height="32" viewBox="0 0 32 32">
<title>as-rss_focus-</title>
<path fill="#37352f" d="M29.6 0h-8.8c-0.883 0-1.6 0.717-1.6 1.6s0.717 1.6 1.6 1.6h6.4c0.883 0 1.6 0.883 1.6 1.768v6.4c0 0.883 0.717 1.6 1.6 1.6s1.6-0.717 1.6-1.6v-8.8c0-1.326-1.075-2.568-2.4-2.568zM30.4 19.368c-0.883 0-1.6 0.715-1.6 1.6v6.4c0 0.883-0.717 1.432-1.6 1.432h-6.4c-0.883 0-1.6 0.717-1.6 1.6s0.717 1.6 1.6 1.6h8.8c1.325 0 2.4-0.907 2.4-2.232v-8.8c0-0.885-0.717-1.6-1.6-1.6zM11.2 28.8h-6.4c-0.883 0-1.6-0.549-1.6-1.432v-6.4c0-0.885-0.717-1.6-1.6-1.6s-1.6 0.715-1.6 1.6v8.8c0 1.325 1.075 2.232 2.4 2.232h8.8c0.883 0 1.6-0.717 1.6-1.6s-0.717-1.6-1.6-1.6zM1.6 12.968c0.883 0 1.6-0.717 1.6-1.6v-6.4c0-0.885 0.717-1.768 1.6-1.768h6.4c0.883 0 1.6-0.717 1.6-1.6s-0.717-1.6-1.6-1.6h-8.8c-1.325 0-2.4 1.242-2.4 2.568v8.8c0 0.883 0.717 1.6 1.6 1.6zM11.256 24.082c0-1.768-1.432-3.2-3.2-3.2v1.6c0 0.883 0.717 1.6 1.6 1.6h1.6zM8 14.485v3.2c3.53 0 6.4 3.115 6.4 6.315h3.2c0-4.8-4.298-9.515-9.6-9.515zM9.826 8.16c7.4 0.827 13.304 6.683 14.131 14.083 0.106 0.955-0.64 1.757-1.6 1.757h-1.501c0-6.4-6.456-12.718-12.856-12.718v-1.501c0-0.96 0.87-1.726 1.826-1.621z"></path>
</svg>
