<!-- Generated by IcoMoon.io -->
<svg version="1.1" xmlns="http://www.w3.org/2000/svg" width="32" height="32" viewBox="0 0 32 32">
<title>as-rss-</title>
<path fill="#37352f" d="M0.045 25.447v3.208c0 1.771 1.44 3.208 3.213 3.208h3.213c0-3.544-2.876-6.415-6.427-6.415zM0 12.617v6.415c7.089 0 12.854 6.553 12.854 12.968h6.427c0-9.623-8.631-19.383-19.28-19.383zM31.98 28.327c0.212 1.915-1.285 3.673-3.213 3.673h-3.014c0-12.83-12.899-25.798-25.752-25.798v-3.009c0-1.925 1.716-3.387 3.631-3.172 14.865 1.658 26.687 13.472 28.349 28.306z"></path>
</svg>
