<!-- Generated by IcoMoon.io -->
<svg version="1.1" xmlns="http://www.w3.org/2000/svg" width="32" height="32" viewBox="0 0 32 32">
<title>as-rss-2</title>
<path fill="#37352f" d="M7.658 20.968v3.2h3.2c0-1.768-1.432-3.2-3.2-3.2zM14.058 24h3.2c0-4.8-4.458-9.432-9.258-9.432v3.2c3.2 0 6.058 3.032 6.058 6.232zM8 8.168v3.2c6.4 0 12.458 6.232 12.458 12.632h3.2c0-8-7.658-15.832-15.658-15.832zM28.8 22.4h3.2v-12.8h-3.2v12.8zM28.8 28.8h-3.2v3.2h6.4v-6.4h-3.2v3.2zM25.6 0v3.2h3.2v3.2h3.2v-6.4h-6.4zM0 22.4h3.2v-12.8h-3.2v12.8zM3.2 25.6h-3.2v6.4h6.4v-3.2h-3.2v-3.2zM0 0v6.4h3.2v-3.2h3.2v-3.2h-6.4zM9.6 32h12.8v-3.2h-12.8v3.2zM9.6 3.2h12.8v-3.2h-12.8v3.2z"></path>
</svg>
