<!-- Generated by IcoMoon.io -->
<svg version="1.1" xmlns="http://www.w3.org/2000/svg" width="19" height="32" viewBox="0 0 19 32">
<title>as-refrigerator_round-1</title>
<path fill="#37352f" d="M8 16c0 0.883-0.717 1.6-1.6 1.6s-1.6-0.717-1.6-1.6c0-0.883 0.717-1.6 1.6-1.6s1.6 0.717 1.6 1.6zM3.2 9.6v-4.8c0-0.883 0.717-1.6 1.6-1.6h9.6c0.883 0 1.6 0.717 1.6 1.6v4.8h-12.8zM14.4 25.6h-9.6c-0.883 0-1.6-0.717-1.6-1.6v-11.2h12.8v11.2c0 0.883-0.717 1.6-1.6 1.6zM3.2 0c-1.768 0-3.2 1.432-3.2 3.2v22.4c0 1.768 1.432 3.2 3.2 3.2v1.6c0 0.883 0.717 1.6 1.6 1.6s1.6-0.717 1.6-1.6v-1.6h6.4v1.6c0 0.883 0.717 1.6 1.6 1.6s1.6-0.717 1.6-1.6v-1.6c1.768 0 3.2-1.432 3.2-3.2v-22.4c0-1.768-1.432-3.2-3.2-3.2h-12.8z"></path>
</svg>
