<!-- Generated by IcoMoon.io -->
<svg version="1.1" xmlns="http://www.w3.org/2000/svg" width="18" height="32" viewBox="0 0 18 32">
<title>as-star_favorite_half-1</title>
<path fill="#37352f" d="M9.077 13.030l-4.096 0.62 2.963 3.008c1.595 1.617 2.322 3.946 1.946 6.23l-0.699 4.248 3.666-2.007c2.048-1.19 3.147-0.808 3.147-0.808v4.023c0 0-0.928 0.115-1.349 0.347l-5.403 2.956c-0.443 0.241-0.904 0.352-1.349 0.352-1.688 0-3.176-1.581-2.854-3.531l1.032-6.262c0.162-0.979-0.15-1.976-0.834-2.669l-4.37-4.434c-1.718-1.745-0.77-4.784 1.606-5.144l6.038-0.913c0.944-0.142 1.76-0.759 2.181-1.65l2.702-5.696c0.766-2.015 2.598-1.682 2.598-1.682v5.294l-1.834 3.865c-0.986 2.077-2.89 3.518-5.093 3.85z"></path>
</svg>
