<!-- Generated by IcoMoon.io -->
<svg version="1.1" xmlns="http://www.w3.org/2000/svg" width="32" height="32" viewBox="0 0 32 32">
<title>as-shopping_cart_love-</title>
<path fill="#37352f" d="M18.722 25.306c-2.538 2.335-2.974 2.888-6.158-0.080-4.184-3.897 0.342-8.15 2.938-4.853 0.093 0.12 0.278 0.117 0.371-0.002 2.538-3.246 7.211 0.927 2.85 4.935zM24.49 28.724h-16.979l-2.133-12.83h21.245l-2.133 12.83zM27.2 12.687l-6.438-11.138-2.771 1.586 5.515 9.552h-15.011l5.514-9.534-2.771-1.621-6.437 11.155h-4.8v3.207h2.133l2.667 16.037h22.4l2.667-16.037h2.133v-3.207h-4.8z"></path>
</svg>
