<!-- Generated by IcoMoon.io -->
<svg version="1.1" xmlns="http://www.w3.org/2000/svg" width="32" height="32" viewBox="0 0 32 32">
<title>as-soundcloud-</title>
<path fill="#37352f" d="M13.737 24.397v-16.045c0-0.51 0.154-0.816 0.462-0.914 5.14-1.215 10.333 2.371 10.804 7.772 5.025-2.122 9.394 4.272 5.5 8.111-0.987 0.973-2.17 1.459-3.55 1.459l-12.949-0.014c-0.171-0.057-0.267-0.234-0.267-0.369zM10.254 23.925c0 1.16 2.204 1.174 2.204 0v-15.437c0-1.461-2.204-1.455-2.204 0v15.437zM6.832 23.925c0 1.133 2.202 1.177 2.202 0v-9.099c0-1.461-2.202-1.455-2.202 0v9.099zM3.422 23.452c0 1.166 2.189 1.185 2.189 0v-9.969c0-1.412-2.189-1.429-2.189 0v9.969zM0 21.624c0 1.361 2.188 1.705 2.188 0v-4.277c0-1.448-2.188-1.436-2.188 0v4.277z"></path>
</svg>
