<!-- Generated by IcoMoon.io -->
<svg version="1.1" xmlns="http://www.w3.org/2000/svg" width="32" height="32" viewBox="0 0 32 32">
<title>as-share-2</title>
<path fill="#37352f" d="M25.6 19c-1.765 0-3.2-1.435-3.2-3.2s1.435-3.2 3.2-3.2c1.765 0 3.2 1.435 3.2 3.2s-1.435 3.2-3.2 3.2zM6.4 28.8c-1.765 0-3.2-1.435-3.2-3.2s1.435-3.2 3.2-3.2c4.229 0 4.23 6.4 0 6.4zM6.4 9.6c-1.765 0-3.2-1.435-3.2-3.2s1.435-3.2 3.2-3.2c4.229 0 4.23 6.4 0 6.4zM25.6 9.4c-1.954 0-3.68 0.894-4.854 2.274l-8.011-4.626c0.405-3.978-2.704-7.048-6.334-7.048-3.534 0-6.4 2.866-6.4 6.4s2.866 6.4 6.4 6.4c2.155 0 4.051-1.074 5.211-2.706l7.715 4.454c-0.173 0.87-0.168 1.709 0.014 2.578l-7.915 4.555c-1.171-1.501-2.976-2.482-5.026-2.482-3.534 0-6.4 2.866-6.4 6.4s2.866 6.4 6.4 6.4c3.779 0 6.918-3.315 6.302-7.362l8.090-4.654c1.173 1.347 2.882 2.216 4.808 2.216 3.534 0 6.4-2.866 6.4-6.4s-2.866-6.4-6.4-6.4z"></path>
</svg>
