<!-- Generated by IcoMoon.io -->
<svg version="1.1" xmlns="http://www.w3.org/2000/svg" width="32" height="32" viewBox="0 0 32 32">
<title>as-skype-</title>
<path fill="#37352f" d="M19.035 26.192c6.287-1.309 7.114-7.041 4.673-9.693-1.169-1.293-2.92-2.011-7.083-3.015-1.899-0.442-5.494-1.269-4.162-3.231 0.438-0.719 1.534-1.15 2.993-1.221 5.030-0.34 3.978 5.125 7.449 3.518 1.605-0.789 1.459-3.374-0.293-4.882-3.84-3.119-14.822-3.082-14.822 3.734 0 6.633 9.538 5.16 11.975 7.826 1.261 1.548-0.088 4.047-4.090 3.878-4.547-0.332-3.34-4.596-6.133-4.596-2.118 0-2.847 1.724-1.753 3.95 1.894 3.867 7.221 4.583 11.318 3.733h-0.073zM21.007 31.72c-2.162-0.706-2.055-0.662-4.017-0.574-7.73 0.36-13.703-4.482-15.625-11.056-0.799-2.947 0.104-5.546-0.803-8.402-2.791-7.474 5.37-14.085 11.973-10.843 0.585 0.289 0.95 0.359 3.214 0.359 2.045 0 2.847 0.072 3.869 0.36 4.6 1.148 8.325 4.092 10.295 8.185 1.242 2.513 1.68 5.099 1.388 8.041-0.146 1.582-0.146 1.725 0.219 2.658 2.278 6.582-3.955 12.975-10.443 11.273h-0.071v-0.002z"></path>
</svg>
