<!-- Generated by IcoMoon.io -->
<svg version="1.1" xmlns="http://www.w3.org/2000/svg" width="26" height="32" viewBox="0 0 26 32">
<title>as-spaceship-1</title>
<path fill="#37352f" d="M16.013 19.472c0 1.768-1.44 3.201-3.213 3.201-1.775 0-3.213-1.432-3.213-3.201s1.438-3.201 3.213-3.201c1.774 0 3.213 1.432 3.213 3.201zM12.757 28.807c-4.132 0-7.901-2.735-9.174-6.65-1.269-3.902 0.19-8.175 3.367-10.595 0.88-0.671 1.202-1.783 1.057-2.878-0.358-2.714 1.751-5.485 4.749-5.485 2.996 0 5.106 2.77 4.747 5.485-0.145 1.093 0.177 2.207 1.057 2.878 3.176 2.42 4.637 6.693 3.367 10.595-1.272 3.915-5.041 6.65-9.172 6.65zM21.305 9.662c-0.384-0.344-0.577-0.831-0.556-1.344 0.17-4.427-3.417-8.317-7.993-8.317-4.579 0-8.168 3.892-7.993 8.32 0.019 0.512-0.174 0.999-0.558 1.34-6.791 6.048-5.218 17.739 3.698 21.405 4.719 1.941 10.298 0.789 13.905-2.812 5.591-5.582 4.635-14.005-0.504-18.592z"></path>
</svg>
