<!-- Generated by IcoMoon.io -->
<svg version="1.1" xmlns="http://www.w3.org/2000/svg" width="32" height="32" viewBox="0 0 32 32">
<title>as-settings-3</title>
<path fill="#37352f" d="M16 9.6c0-0.565 0.115-1.6 0.294-1.6h-16.294v3.2h16.294c-0.179 0-0.294-1.035-0.294-1.6zM28.506 8c-0.661-1.6-2.419-3.2-4.506-3.2-2.651 0-4.8 2.149-4.8 4.8s2.149 4.8 4.8 4.8c2.086 0 3.845-1.6 4.506-3.2h3.494v-3.2h-3.494zM16 22.4c0 0.565-0.115 1.098-0.294 1.6h16.294v-3.2h-16.294c0.179 0 0.294 1.035 0.294 1.6zM12.8 22.4c0 2.651-2.149 4.8-4.8 4.8-2.086 0-3.845-1.6-4.506-3.2h-3.494v-3.2h3.494c0.661-1.6 2.419-3.2 4.506-3.2 2.651 0 4.8 2.149 4.8 4.8z"></path>
</svg>
