<!-- Generated by IcoMoon.io -->
<svg version="1.1" xmlns="http://www.w3.org/2000/svg" width="34" height="32" viewBox="0 0 34 32">
<title>as-shut_down-</title>
<path fill="#37352f" d="M23.442 1.832c-1.195-0.629-2.638 0.213-2.638 1.565 0 0.686 0.41 1.283 1.016 1.605 4.45 2.362 7.306 7.344 6.49 12.877-0.806 5.485-5.371 9.87-10.882 10.486-7.496 0.837-13.867-5.035-13.867-12.365 0-4.794 2.723-8.96 6.704-11.038 0.562-0.293 0.939-0.846 0.939-1.48v-0.147c0-1.325-1.411-2.142-2.587-1.528-5.638 2.939-9.306 9.139-8.502 16.099 0.842 7.282 6.771 13.182 14.056 13.992 9.658 1.074 17.834-6.458 17.834-15.898 0-6.152-3.47-11.491-8.562-14.168zM14.404 14.4v-12.8c0-0.885 0.717-1.6 1.6-1.6 0.885 0 1.6 0.715 1.6 1.6v12.8c0 0.883-0.715 1.6-1.6 1.6-0.883 0-1.6-0.717-1.6-1.6z"></path>
</svg>
