<!-- Generated by IcoMoon.io -->
<svg version="1.1" xmlns="http://www.w3.org/2000/svg" width="32" height="32" viewBox="0 0 32 32">
<title>as-star-</title>
<path fill="#37352f" d="M27.198 18.286h-11.198c-1.262 0-2.286 1.102-2.286 2.363v0.039c0 1.262 1.024 2.169 2.286 2.169h9.086c-2.089 2.286-5.367 4.571-9.086 4.571-7.104 0-12.713-6.514-11.17-13.881 0.926-4.432 4.583-7.959 9.033-8.779 4.585-0.843 8.741-0.197 11.223 4.375h-9.086c-1.262 0-2.286 1.102-2.286 2.363v0.039c0 1.262 1.024 2.169 2.286 2.169h11.198c0.151 0 0.231 1.504 0.231 2.286s-0.080 2.286-0.231 2.286zM16 0c-8.837 0-16 7.163-16 16s7.163 16 16 16c8.837 0 16-7.163 16-16s-7.163-16-16-16z"></path>
</svg>
