<!-- Generated by IcoMoon.io -->
<svg version="1.1" xmlns="http://www.w3.org/2000/svg" width="32" height="32" viewBox="0 0 32 32">
<title>as-star-2</title>
<path fill="#37352f" d="M16 19.447c-1.901 0-3.447-1.546-3.447-3.447s1.546-3.447 3.447-3.447c1.901 0 3.447 1.546 3.447 3.447s-1.546 3.447-3.447 3.447zM16 9.106c-3.807 0-6.894 3.087-6.894 6.894s3.087 6.894 6.894 6.894c3.807 0 6.894-3.087 6.894-6.894s-3.087-6.894-6.894-6.894zM26.989 17.543c0.836 2.044-0.145 4.381-2.191 5.217l-1.32 0.541c-0.27 0.643-0.457 1.088-0.727 1.732-0.788 1.877-2.897 3.125-5.655 1.966l-1.317-0.552-1.322 0.541c-1.751 0.715-4.002 0.239-5.217-2.191l-0.541-1.32c-0.648-0.272-1.088-0.457-1.732-0.727-1.877-0.788-3.125-2.897-1.968-5.655l0.553-1.317-0.541-1.322c-0.836-2.044 0.145-4.381 2.191-5.217l1.32-0.541c0.291-0.693 0.477-1.136 0.727-1.732 0.793-1.891 2.909-3.12 5.655-1.968l1.317 0.553 1.322-0.541c2.044-0.836 4.381 0.145 5.217 2.191l0.541 1.32c0.693 0.291 1.136 0.477 1.732 0.727 1.891 0.793 3.119 2.909 1.968 5.655l-0.553 1.317 0.541 1.322zM30.807 17.772c-0.402-0.982-0.396-2.084 0.014-3.063l0.867-2.066c0.855-2.039-0.103-4.383-2.142-5.238l-2.067-0.867c-0.979-0.412-1.755-1.194-2.156-2.175l-0.677-1.658c-0.836-2.044-3.171-3.025-5.217-2.189l-1.656 0.677c-0.982 0.402-2.084 0.396-3.063-0.014l-2.066-0.867c-2.039-0.855-4.383 0.103-5.238 2.142l-0.867 2.067c-0.412 0.979-1.193 1.755-2.175 2.156l-1.658 0.677c-2.044 0.836-3.025 3.171-2.189 5.217l0.677 1.656c0.402 0.982 0.396 2.084-0.014 3.063l-0.867 2.067c-0.855 2.039 0.103 4.383 2.142 5.238l2.067 0.867c0.979 0.412 1.755 1.193 2.156 2.175l0.677 1.658c0.836 2.044 3.171 3.025 5.217 2.189l1.656-0.677c0.982-0.402 2.084-0.396 3.063 0.014l2.067 0.867c2.039 0.855 4.383-0.103 5.238-2.142l0.867-2.067c0.412-0.979 1.194-1.755 2.175-2.156l1.658-0.677c2.044-0.836 3.025-3.171 2.189-5.217l-0.677-1.656z"></path>
</svg>
