<!-- Generated by IcoMoon.io -->
<svg version="1.1" xmlns="http://www.w3.org/2000/svg" width="32" height="32" viewBox="0 0 32 32">
<title>as-syringe-1</title>
<path fill="#37352f" d="M32 11.144l-2.213 2.263-2.213-2.273-15.496 15.857-2.213 2.247-2.029-2.117-4.843 4.879h-2.993v-2.109l5.231-4.957-1.824-2.268 2.213-2.266 4.243 4.345 4.427-4.534-2.029-2.077 2.213-2.266 2.030 2.077 8.853-9.067-2.028-2.077-15.494 15.865-2.215-2.266 15.496-15.865-2.213-2.266 2.213-2.268c4.212 4.315 1.69 1.731 4.427 4.534l2.213-2.266 2.215 2.266-2.215 2.266c2.55 2.611 1.562 1.598 4.243 4.343z"></path>
</svg>
