<!-- Generated by IcoMoon.io -->
<svg version="1.1" xmlns="http://www.w3.org/2000/svg" width="32" height="32" viewBox="0 0 32 32">
<title>as-tenis-1</title>
<path fill="#37352f" d="M23.203 21.515l-12.717-12.717c2.755-5.973 10.85-7.432 15.499-2.782s3.19 12.744-2.782 15.499zM19.546 22.384c-5.483 0.194-10.122-4.445-9.928-9.928l9.928 9.928zM6.789 27.475l-2.262-2.262 4.571-4.571c0.658 0.845 1.418 1.605 2.262 2.262l-4.571 4.571zM19.2 0c-9.002 0-15.317 9.482-11.786 17.798l-7.414 7.414 6.789 6.787 7.413-7.413c7.557 3.208 16.379-1.706 17.643-9.797 1.195-7.656-4.891-14.79-12.645-14.79z"></path>
</svg>
