<!-- Generated by IcoMoon.io -->
<svg version="1.1" xmlns="http://www.w3.org/2000/svg" width="32" height="32" viewBox="0 0 32 32">
<title>as-target-2</title>
<path fill="#37352f" d="M17.6 16c0 0.883-0.717 1.6-1.6 1.6s-1.6-0.717-1.6-1.6c0-0.883 0.717-1.6 1.6-1.6s1.6 0.717 1.6 1.6zM24 17.6h1.456c-0.678 4.011-3.845 7.178-7.856 7.856v-1.456c0-0.883-0.717-1.6-1.6-1.6s-1.6 0.717-1.6 1.6v1.456c-4.011-0.678-7.178-3.845-7.856-7.856h1.456c0.883 0 1.6-0.717 1.6-1.6s-0.717-1.6-1.6-1.6h-1.456c0.678-4.011 3.845-7.178 7.856-7.856v1.456c0 0.883 0.717 1.6 1.6 1.6s1.6-0.717 1.6-1.6v-1.456c4.011 0.678 7.178 3.845 7.856 7.856h-1.456c-0.883 0-1.6 0.717-1.6 1.6s0.717 1.6 1.6 1.6zM30.4 14.4h-1.71c-0.723-5.787-5.302-10.366-11.090-11.090v-1.71c0-0.883-0.717-1.6-1.6-1.6s-1.6 0.717-1.6 1.6v1.71c-5.787 0.723-10.366 5.302-11.090 11.090h-1.71c-0.883 0-1.6 0.717-1.6 1.6s0.717 1.6 1.6 1.6h1.71c0.723 5.787 5.302 10.366 11.090 11.090v1.71c0 0.883 0.717 1.6 1.6 1.6s1.6-0.717 1.6-1.6v-1.71c5.787-0.723 10.366-5.302 11.090-11.090h1.71c0.883 0 1.6-0.717 1.6-1.6s-0.717-1.6-1.6-1.6z"></path>
</svg>
