<!-- Generated by IcoMoon.io -->
<svg version="1.1" xmlns="http://www.w3.org/2000/svg" width="32" height="32" viewBox="0 0 32 32">
<title>as-target-1</title>
<path fill="#37352f" d="M17.6 28.689v-3.234c4.8-0.675 7.181-3.838 7.856-7.856h3.234c-0.726 5.779-4.69 10.365-11.090 11.090zM17.6 18.756c0-0.28 0.877-0.675 1.157-1.157h3.416c-0.582 2.238-2.973 3.992-4.573 4.573v-3.416zM17.6 9.826c1.6 0.582 3.99 2.336 4.573 4.573h-3.416c-0.28-0.48-1.157-0.877-1.157-1.155v-3.418zM17.6 3.311c6.4 0.725 10.363 5.31 11.090 11.088h-3.234c-0.675-4.016-3.056-7.179-7.856-7.856v-3.232zM14.4 6.543c-4.8 0.677-7.181 3.84-7.856 7.856h-3.234c0.726-5.778 4.69-10.363 11.090-11.088v3.232zM14.4 13.244c0 0.278-0.877 0.675-1.157 1.155h-3.416c0.582-2.237 2.973-3.99 4.573-4.573v3.418zM14.4 22.172c-1.6-0.581-3.99-2.334-4.573-4.573h3.416c0.28 0.482 1.157 0.877 1.157 1.157v3.416zM14.4 28.689c-6.4-0.725-10.363-5.31-11.090-11.090h3.234c0.675 4.018 3.056 7.181 7.856 7.856v3.234zM16-0.001c-8.837 0-16 7.165-16 16 0 8.837 7.163 16 16 16s16-7.163 16-16c0-8.835-7.163-16-16-16z"></path>
</svg>
