<!-- Generated by IcoMoon.io -->
<svg version="1.1" xmlns="http://www.w3.org/2000/svg" width="32" height="32" viewBox="0 0 32 32">
<title>as-thermometer_up-1</title>
<path fill="#37352f" d="M12.73 5.102l-2.41 2.245-2.304-2.085-0.082 11.475-3.22-0.024 0.080-11.198-2.389 1.914-2.407-2.418 6.426-5.010 6.304 5.101zM23.862 28.8c-2.664 0-4.371-2.152-4.371-4.8 0-2.083 1.294-3.936 2.904-4.6v-3.4h3.22v3.496c1.61 0.662 3.147 2.421 3.147 4.504 0 2.648-2.238 4.8-4.9 4.8zM22.507 12.8h3.22v-3.2h-3.22v3.2zM22.507 6.4h3.22v-3.2h-3.22v3.2zM28.835 17.637v-17.637h-9.659v17.637c-1.61 1.461-3.292 3.755-3.292 6.363 0 4.419 3.569 8 8.014 8s8.102-3.581 8.102-8c0-2.608-1.555-4.902-3.165-6.363z"></path>
</svg>
