<!-- Generated by IcoMoon.io -->
<svg version="1.1" xmlns="http://www.w3.org/2000/svg" width="16" height="32" viewBox="0 0 16 32">
<title>as-tie_round-</title>
<path fill="#37352f" d="M10.51 12.746h-5.020c-1.503 0-2.824 1.015-3.236 2.382l-2.124 7.074c-0.337 1.114-0.008 2.329 0.857 3.147l4.633 5.716c1.314 1.244 3.447 1.249 4.761 0.005l4.633-5.705c0.865-0.819 1.193-2.014 0.857-3.127l-2.124-7.109c-0.412-1.369-1.733-2.382-3.236-2.382zM13.517 6.967l0.56-3.221c0.343-1.942-1.239-3.746-3.319-3.746h-5.516c-2.080 0-3.662 1.839-3.32 3.781l0.56 3.151c0.271 1.537 1.674 2.627 3.32 2.627h4.394c1.646 0 3.049-1.055 3.32-2.592z"></path>
</svg>
