<!-- Generated by IcoMoon.io -->
<svg version="1.1" xmlns="http://www.w3.org/2000/svg" width="32" height="32" viewBox="0 0 32 32">
<title>as-thermometer_sun-</title>
<path fill="#37352f" d="M6.4 14.4c0 0.883-0.717 1.6-1.6 1.6s-1.6-0.717-1.6-1.6c0-0.883 0.717-1.6 1.6-1.6s1.6 0.717 1.6 1.6zM13.75 12.15c0 0.883-0.717 1.6-1.6 1.6-0.885 0-1.6-0.717-1.6-1.6 0-0.885 0.715-1.6 1.6-1.6 0.883 0 1.6 0.715 1.6 1.6zM16 4.8c0 0.883-0.717 1.6-1.6 1.6s-1.6-0.717-1.6-1.6c0-0.883 0.717-1.6 1.6-1.6s1.6 0.717 1.6 1.6zM24 28.8c-2.646 0-4.8-2.154-4.8-4.8 0-2.083 1.342-3.842 3.2-4.506v-3.494h3.2v3.494c1.858 0.664 3.2 2.422 3.2 4.506 0 2.646-2.154 4.8-4.8 4.8zM22.4 12.8h3.2v-3.2h-3.2v3.2zM24 3.2c0.883 0 1.6 0.717 1.6 1.6v1.6h-3.2v-1.6c0-0.883 0.717-1.6 1.6-1.6zM28.8 17.637v-14.437c0-1.768-1.432-3.2-3.2-3.2h-3.2c-1.768 0-3.2 1.432-3.2 3.2v14.437c-2.294 1.733-3.651 4.643-3.062 7.859 0.571 3.12 3.043 5.682 6.149 6.326 5.166 1.072 9.714-2.845 9.714-7.822 0-2.608-1.267-4.904-3.2-6.363zM4.8 6.4c-0.882 0-1.6-0.718-1.6-1.6s0.718-1.6 1.6-1.6c0.882 0 1.6 0.718 1.6 1.6s-0.718 1.6-1.6 1.6zM4.8 0c-2.651 0-4.8 2.149-4.8 4.8s2.149 4.8 4.8 4.8c2.651 0 4.8-2.149 4.8-4.8s-2.149-4.8-4.8-4.8z"></path>
</svg>
