<!-- Generated by IcoMoon.io -->
<svg version="1.1" xmlns="http://www.w3.org/2000/svg" width="26" height="32" viewBox="0 0 26 32">
<title>as-usb-4</title>
<path fill="#37352f" d="M25.6 12.8h-2.010c-1.197 6.4-5.99 7.92-9.19 7.92v9.68c0 0.883-0.717 1.6-1.6 1.6s-1.6-0.717-1.6-1.6v-3.28c-4.8 0-8.482-2.155-9.427-8.227-1.022-0.534-1.768-1.592-1.768-2.826 0-1.768 1.438-3.2 3.206-3.2 1.766 0 3.21 1.432 3.21 3.2 0 1.126-0.565 2.112-1.445 2.682 0.709 4.090 3.024 5.077 6.224 5.274v-16.022h-3.283l4.8-8 4.8 8h-3.117v9.606c3.2-0.243 5.192-1.606 5.99-4.806h-1.19v-6.4h6.4v6.4z"></path>
</svg>
