<!-- Generated by IcoMoon.io -->
<svg version="1.1" xmlns="http://www.w3.org/2000/svg" width="32" height="32" viewBox="0 0 32 32">
<title>as-volume_high-</title>
<path fill="#37352f" d="M30.857 7.102c0.631 0 1.143 0.523 1.143 1.168v16.356c0 0.645-0.512 1.168-1.143 1.168s-1.143-0.523-1.143-1.168v-16.356c0-0.645 0.512-1.168 1.143-1.168zM25.143 22.289v-11.683c0-0.645 0.512-1.168 1.143-1.168s1.143 0.523 1.143 1.168v11.683c0 0.645-0.512 1.168-1.143 1.168s-1.143-0.523-1.143-1.168zM20.571 19.953v-7.010c0-0.645 0.512-1.168 1.143-1.168s1.143 0.523 1.143 1.168v7.010c0 0.645-0.512 1.168-1.143 1.168s-1.143-0.523-1.143-1.168zM4.571 18.784h-1.143c-0.631 0-1.143-0.523-1.143-1.168v-2.337c0-0.645 0.512-1.168 1.143-1.168h1.143v4.673zM6.857 12.635c3.048-1.559 5.449-2.785 8.31-4.248 0.381-0.194 0.833 0.085 0.833 0.52v13.914c0 0.435-0.453 0.714-0.833 0.52-2.859-1.463-5.262-2.691-8.31-4.248v-6.458zM0 14.111v4.673c0 1.291 1.023 2.337 2.286 2.337h1.905l10.878 4.959c1.512 0.689 3.217-0.442 3.217-2.134v-15.892c0-1.759-1.83-2.887-3.351-2.067l-10.744 5.788h-1.905c-1.263 0-2.286 1.046-2.286 2.337z"></path>
</svg>
