<!-- Generated by IcoMoon.io -->
<svg version="1.1" xmlns="http://www.w3.org/2000/svg" width="32" height="32" viewBox="0 0 32 32">
<title>as-wifi_focus-</title>
<path fill="#37352f" d="M29.6 0h-8.8c-0.883 0-1.6 0.717-1.6 1.6s0.717 1.6 1.6 1.6h6.4c0.883 0 1.6 0.883 1.6 1.768v6.4c0 0.883 0.717 1.6 1.6 1.6s1.6-0.717 1.6-1.6v-8.8c0-1.326-1.075-2.568-2.4-2.568zM30.4 19.368c-0.883 0-1.6 0.715-1.6 1.6v6.4c0 0.883-0.717 1.432-1.6 1.432h-6.4c-0.883 0-1.6 0.717-1.6 1.6s0.717 1.6 1.6 1.6h8.8c1.325 0 2.4-0.907 2.4-2.232v-8.8c0-0.885-0.717-1.6-1.6-1.6zM11.2 28.8h-6.4c-0.883 0-1.6-0.549-1.6-1.432v-6.4c0-0.885-0.717-1.6-1.6-1.6s-1.6 0.715-1.6 1.6v8.8c0 1.325 1.075 2.232 2.4 2.232h8.8c0.883 0 1.6-0.717 1.6-1.6s-0.717-1.6-1.6-1.6zM1.6 12.968c0.883 0 1.6-0.717 1.6-1.6v-6.4c0-0.885 0.717-1.768 1.6-1.768h6.4c0.883 0 1.6-0.717 1.6-1.6s-0.717-1.6-1.6-1.6h-8.8c-1.325 0-2.4 1.242-2.4 2.568v8.8c0 0.883 0.717 1.6 1.6 1.6zM13.693 22.237l1.131 1.131c0.624 0.624 1.638 0.624 2.262 0l1.131-1.131c-1.25-1.251-3.275-1.25-4.525 0zM9.166 17.71l2.264 2.262c2.494-2.494 6.555-2.494 9.050 0l2.264-2.262c-3.75-3.749-9.827-3.749-13.578 0zM25.006 15.448c-4.998-4.998-13.104-4.998-18.102 0l-1.061-1.061c-0.678-0.678-0.611-1.803 0.139-2.402 5.818-4.648 14.126-4.648 19.946 0 0.75 0.598 0.818 1.723 0.139 2.402l-1.061 1.061z"></path>
</svg>
