<!-- Generated by IcoMoon.io -->
<svg version="1.1" xmlns="http://www.w3.org/2000/svg" width="32" height="32" viewBox="0 0 32 32">
<title>as-wifi_missing_plus_round-</title>
<path fill="#37352f" d="M27.636 8.838c-0.803 0-1.455 0.649-1.455 1.448v8.686c0 0.799 0.652 1.448 1.455 1.448s1.455-0.649 1.455-1.448v-8.686c0-0.799-0.652-1.448-1.455-1.448zM24.727 3.047c0.803 0 1.455 0.649 1.455 1.448s0.652 1.448 1.455 1.448c0.803 0 1.455-0.649 1.455-1.448v-1.448c0-1.6-1.302-3.047-2.909-3.047h-1.455c-0.803 0-1.455 0.724-1.455 1.524 0 0.799 0.652 1.523 1.455 1.523zM1.455 20.419c0.803 0 1.455-0.649 1.455-1.448v-8.686c0-0.799-0.652-1.448-1.455-1.448s-1.455 0.649-1.455 1.448v8.686c0 0.799 0.652 1.448 1.455 1.448zM4.364 26.209c-0.803 0-1.455-0.649-1.455-1.448s-0.652-1.448-1.455-1.448-1.455 0.649-1.455 1.448v1.448c0 1.6 1.302 2.743 2.909 2.743h1.455c0.803 0 1.455-0.572 1.455-1.371 0-0.801-0.652-1.372-1.455-1.372zM1.455 5.943c0.803 0 1.455-0.649 1.455-1.448s0.652-1.448 1.455-1.448c0.803 0 1.455-0.724 1.455-1.523 0-0.801-0.652-1.524-1.455-1.524h-1.455c-1.607 0-2.909 1.448-2.909 3.047v1.448c0 0.799 0.652 1.448 1.455 1.448zM30.545 26.057h-1.455v-1.296c0-0.799-0.652-1.448-1.455-1.448s-1.455 0.649-1.455 1.448v1.296h-1.455c-0.803 0-1.455 0.649-1.455 1.448 0 0.801 0.652 1.448 1.455 1.448h1.455v1.6c0 0.799 0.652 1.448 1.455 1.448s1.455-0.649 1.455-1.448v-1.6h1.455c0.803 0 1.455-0.647 1.455-1.448 0-0.799-0.652-1.448-1.455-1.448zM18.909 26.057h-8.727c-0.803 0-1.455 0.649-1.455 1.448 0 0.801 0.652 1.448 1.455 1.448h8.727c0.803 0 1.455-0.647 1.455-1.448 0-0.799-0.652-1.448-1.455-1.448zM10.182 2.895h8.727c0.803 0 1.455-0.647 1.455-1.448 0-0.799-0.652-1.448-1.455-1.448h-8.727c-0.803 0-1.455 0.649-1.455 1.448 0 0.801 0.652 1.448 1.455 1.448zM15.533 21.143l1.028-1.023c-1.136-1.131-2.977-1.131-4.113 0l1.028 1.023c0.567 0.566 1.489 0.566 2.057 0zM8.333 16.024l2.058 2.048c2.268-2.258 5.959-2.258 8.227 0l2.058-2.048c-3.409-3.392-8.934-3.392-12.343 0zM23.697 13.017l-0.964 0.96c-4.544-4.522-11.913-4.522-16.457 0l-0.964-0.96c-0.617-0.614-0.556-1.63 0.127-2.173 5.29-4.205 12.842-4.205 18.132 0 0.682 0.543 0.743 1.559 0.127 2.173z"></path>
</svg>
