<!-- Generated by IcoMoon.io -->
<svg version="1.1" xmlns="http://www.w3.org/2000/svg" width="32" height="32" viewBox="0 0 32 32">
<title>mi-box</title>
<path fill="#37352f" d="M30.667 29.333h-29.333c-0.8 0-1.333-0.533-1.333-1.333v-24c0-0.8 0.533-1.333 1.333-1.333h29.333c0.8 0 1.333 0.533 1.333 1.333v24c0 0.8-0.533 1.333-1.333 1.333zM2.667 26.667h26.667v-21.333h-26.667v21.333z"></path>
<path fill="#37352f" d="M30.667 10.667h-29.333c-0.8 0-1.333-0.533-1.333-1.333s0.533-1.333 1.333-1.333h29.333c0.8 0 1.333 0.533 1.333 1.333s-0.533 1.333-1.333 1.333z"></path>
<path fill="#37352f" d="M20 16h-8c-0.8 0-1.333-0.533-1.333-1.333s0.533-1.333 1.333-1.333h8c0.8 0 1.333 0.533 1.333 1.333s-0.533 1.333-1.333 1.333z"></path>
</svg>
