<!-- Generated by IcoMoon.io -->
<svg version="1.1" xmlns="http://www.w3.org/2000/svg" width="32" height="32" viewBox="0 0 32 32">
<title>mi-car</title>
<path fill="#37352f" d="M30.667 25.333h-29.333c-0.8 0-1.333-0.533-1.333-1.333v-9.333c0-2.267 1.733-4 4-4h24c2.267 0 4 1.733 4 4v9.333c0 0.8-0.533 1.333-1.333 1.333zM2.667 22.667h26.667v-8c0-0.8-0.533-1.333-1.333-1.333h-24c-0.8 0-1.333 0.533-1.333 1.333v8z"></path>
<path fill="#37352f" d="M28 13.333h-24c-0.4 0-0.8-0.133-1.067-0.533-0.267-0.267-0.267-0.8-0.267-1.2l2.667-9.333c0.267-0.533 0.8-0.933 1.333-0.933h18.667c0.533 0 1.067 0.4 1.333 0.933l2.667 9.333c0 0.4 0 0.933-0.267 1.2-0.267 0.4-0.667 0.533-1.067 0.533zM5.733 10.667h20.4l-1.867-6.667h-16.533l-2 6.667z"></path>
<path fill="#37352f" d="M8 30.667h-6.667c-0.8 0-1.333-0.533-1.333-1.333v-5.333c0-0.8 0.533-1.333 1.333-1.333h6.667c0.8 0 1.333 0.533 1.333 1.333v5.333c0 0.8-0.533 1.333-1.333 1.333zM2.667 28h4v-2.667h-4v2.667z"></path>
<path fill="#37352f" d="M30.667 30.667h-6.667c-0.8 0-1.333-0.533-1.333-1.333v-5.333c0-0.8 0.533-1.333 1.333-1.333h6.667c0.8 0 1.333 0.533 1.333 1.333v5.333c0 0.8-0.533 1.333-1.333 1.333zM25.333 28h4v-2.667h-4v2.667z"></path>
<path fill="#37352f" d="M9.2 21.467c-0.4 0-0.8 0-1.067 0s-0.533 0-0.667 0c-2-0.133-3.467-1.6-3.467-3.467s1.467-3.333 3.333-3.333c1.867 0 4.667 2.8 4.667 4.667 0 0.667-0.267 2.133-2.8 2.133zM7.333 17.333c-0.4 0-0.667 0.267-0.667 0.667s0.267 0.667 0.667 0.667c0.267 0 0.533 0 0.933 0 0.267 0 0.533 0 0.8 0-0.533-0.533-1.333-1.2-1.733-1.333z"></path>
<path fill="#37352f" d="M22.8 21.467c0 0 0 0 0 0-2.533 0-2.8-1.467-2.8-2.133 0-1.867 2.8-4.667 4.667-4.667s3.333 1.467 3.333 3.333-1.467 3.333-3.333 3.333c-0.267 0-0.4 0-0.667 0-0.4 0-0.8 0.133-1.2 0.133zM24.667 17.333c-0.4 0.133-1.2 0.8-1.6 1.467 0.267 0 0.533 0 0.8 0s0.667 0 0.933 0c0.4 0 0.667-0.267 0.667-0.667s-0.4-0.8-0.8-0.8z"></path>
<path fill="#37352f" d="M3.333 12c-1.867 0-3.333-1.467-3.333-3.333s1.467-3.333 3.333-3.333c1.333 0 2.533 0.8 3.067 2 0.267 0.667 0 1.467-0.667 1.733-0.133 0.133-0.267 0.133-0.4 0.133 0 0.133 0.133 0.133 0.267 0.267 0.4 0.667 0.267 1.467-0.267 1.867s-1.333 0.667-2 0.667zM3.333 8c-0.4 0-0.667 0.267-0.667 0.667s0.267 0.667 0.667 0.667c0.133 0 0.267 0 0.4-0.133 0.267-0.133 0.4-0.267 0.667-0.267-0.267-0.133-0.4-0.267-0.4-0.533-0.133-0.267-0.4-0.4-0.667-0.4z"></path>
<path fill="#37352f" d="M28.667 12c-0.667 0-1.467-0.267-2-0.667s-0.667-1.333-0.267-1.867c0.133-0.133 0.267-0.133 0.267-0.267-0.133 0-0.267 0-0.4-0.133-0.667-0.267-1.067-1.067-0.667-1.733 0.533-1.2 1.733-2 3.067-2 1.867 0 3.333 1.467 3.333 3.333s-1.467 3.333-3.333 3.333zM27.6 8.933c0.267 0 0.533 0.133 0.667 0.267s0.267 0.133 0.4 0.133c0.4 0 0.667-0.267 0.667-0.667s-0.267-0.667-0.667-0.667c-0.267 0-0.533 0.133-0.667 0.4 0 0.267-0.133 0.4-0.4 0.533z"></path>
</svg>
