<!-- Generated by IcoMoon.io -->
<svg version="1.1" xmlns="http://www.w3.org/2000/svg" width="32" height="32" viewBox="0 0 32 32">
<title>mi-expand</title>
<path fill="#37352f" d="M30.667 32h-5.333c-0.8 0-1.333-0.533-1.333-1.333s0.533-1.333 1.333-1.333h5.333c0.8 0 1.333 0.533 1.333 1.333s-0.533 1.333-1.333 1.333z"></path>
<path fill="#37352f" d="M30.667 32c-0.8 0-1.333-0.533-1.333-1.333v-5.333c0-0.8 0.533-1.333 1.333-1.333s1.333 0.533 1.333 1.333v5.333c0 0.8-0.533 1.333-1.333 1.333z"></path>
<path fill="#37352f" d="M6.667 2.667h-5.333c-0.8 0-1.333-0.533-1.333-1.333s0.533-1.333 1.333-1.333h5.333c0.8 0 1.333 0.533 1.333 1.333s-0.533 1.333-1.333 1.333z"></path>
<path fill="#37352f" d="M1.333 8c-0.8 0-1.333-0.533-1.333-1.333v-5.333c0-0.8 0.533-1.333 1.333-1.333s1.333 0.533 1.333 1.333v5.333c0 0.8-0.533 1.333-1.333 1.333z"></path>
<path fill="#37352f" d="M10.4 11.733c-0.4 0-0.667-0.133-0.933-0.4l-8.8-8.8c-0.533-0.533-0.533-1.333 0-1.867s1.333-0.533 1.867 0l8.667 8.667c0.533 0.533 0.533 1.333 0 1.867-0.133 0.4-0.533 0.533-0.8 0.533z"></path>
<path fill="#37352f" d="M30.4 31.733c-0.4 0-0.667-0.133-0.933-0.4l-8.667-8.667c-0.533-0.533-0.533-1.333 0-1.867s1.333-0.533 1.867 0l8.667 8.667c0.533 0.533 0.533 1.333 0 1.867-0.267 0.267-0.667 0.4-0.933 0.4z"></path>
<path fill="#37352f" d="M1.333 32c-0.8 0-1.333-0.533-1.333-1.333v-5.333c0-0.8 0.533-1.333 1.333-1.333s1.333 0.533 1.333 1.333v5.333c0 0.8-0.533 1.333-1.333 1.333z"></path>
<path fill="#37352f" d="M6.667 32h-5.333c-0.8 0-1.333-0.533-1.333-1.333s0.533-1.333 1.333-1.333h5.333c0.8 0 1.333 0.533 1.333 1.333s-0.533 1.333-1.333 1.333z"></path>
<path fill="#37352f" d="M30.667 8c-0.8 0-1.333-0.533-1.333-1.333v-5.333c0-0.8 0.533-1.333 1.333-1.333s1.333 0.533 1.333 1.333v5.333c0 0.8-0.533 1.333-1.333 1.333z"></path>
<path fill="#37352f" d="M30.667 2.667h-5.333c-0.8 0-1.333-0.533-1.333-1.333s0.533-1.333 1.333-1.333h5.333c0.8 0 1.333 0.533 1.333 1.333s-0.533 1.333-1.333 1.333z"></path>
<path fill="#37352f" d="M21.6 11.733c-0.4 0-0.667-0.133-0.933-0.4-0.533-0.533-0.533-1.333 0-1.867l8.667-8.667c0.533-0.533 1.333-0.533 1.867 0s0.533 1.333 0 1.867l-8.667 8.667c-0.133 0.267-0.533 0.4-0.933 0.4z"></path>
<path fill="#37352f" d="M1.6 31.733c-0.4 0-0.667-0.133-0.933-0.4-0.533-0.533-0.533-1.333 0-1.867l8.667-8.667c0.533-0.533 1.333-0.533 1.867 0s0.533 1.333 0 1.867l-8.667 8.667c-0.267 0.267-0.533 0.4-0.933 0.4z"></path>
</svg>
