<!-- Generated by IcoMoon.io -->
<svg version="1.1" xmlns="http://www.w3.org/2000/svg" width="32" height="32" viewBox="0 0 32 32">
<title>mi-earth</title>
<path fill="#37352f" d="M16 32c-8.8 0-16-7.2-16-16s7.2-16 16-16 16 7.2 16 16-7.2 16-16 16zM16 2.667c-7.333 0-13.333 6-13.333 13.333s6 13.333 13.333 13.333 13.333-6 13.333-13.333-6-13.333-13.333-13.333z"></path>
<path fill="#37352f" d="M8.667 30c-0.4 0-0.667-0.133-0.933-0.4-0.533-0.533-0.533-1.333 0-1.867l0.533-0.533 1.067-3.2-0.933-1.867-3.733-2.533c-0.4-0.133-0.667-0.533-0.667-0.933v-4c0-0.533 0.4-1.067 0.933-1.2l3.733-1.2 1.6-1.6-4-5.6c-0.4-0.667-0.267-1.6 0.267-2 0.667-0.4 1.467-0.267 1.867 0.267l4.667 6.533c0.4 0.533 0.267 1.2-0.133 1.733l-2.667 2.667c-0.133 0.133-0.267 0.267-0.533 0.267l-3.067 1.067v2.267l3.467 2.267c0.133 0.133 0.4 0.267 0.4 0.533l1.333 2.667c0.133 0.4 0.133 0.8 0 1.067l-1.333 4c0 0.133-0.133 0.4-0.267 0.533l-0.667 0.667c-0.267 0.267-0.667 0.4-0.933 0.4z"></path>
<path fill="#37352f" d="M21.333 25.333c-0.267 0-0.4 0-0.533-0.133l-2.667-1.333c-0.267-0.133-0.533-0.4-0.533-0.533l-1.333-2.667c-0.133-0.4-0.133-0.8 0-1.2l1.2-2.4v-2.4c0-0.8 0.533-1.333 1.333-1.333h2l3.6-4.8c0 0 0.133-0.133 0.133-0.133l2.133-2.267c0.533-0.533 1.333-0.533 1.867 0s0.533 1.333 0 1.867l-2.267 2.267-4 5.2c-0.133 0.4-0.533 0.533-0.933 0.533h-1.333v1.333c0 0.267 0 0.4-0.133 0.533l-1.067 2.133 0.8 1.733 1.467 0.667 1.867-1.867 1.2-2.533c0.267-0.4 0.667-0.667 1.067-0.8 0.533 0 0.933 0.133 1.2 0.533l2.533 3.733 0.533 0.267c0.667 0.267 0.933 1.2 0.533 1.733-0.267 0.667-1.2 0.933-1.733 0.533l-0.8-0.4c-0.267-0.133-0.4-0.267-0.533-0.4l-1.333-2.133-0.267 0.667c0 0.133-0.133 0.267-0.267 0.4l-2.667 2.667c-0.4 0.4-0.667 0.533-1.067 0.533z"></path>
</svg>
