<!-- Generated by IcoMoon.io -->
<svg version="1.1" xmlns="http://www.w3.org/2000/svg" width="32" height="32" viewBox="0 0 32 32">
<title>mi-mail-open</title>
<path fill="#37352f" d="M30.667 32h-29.333c-0.8 0-1.333-0.533-1.333-1.333v-18.667c0-0.8 0.533-1.333 1.333-1.333h29.333c0.8 0 1.333 0.533 1.333 1.333v18.667c0 0.8-0.533 1.333-1.333 1.333zM2.667 29.333h26.667v-16h-26.667v16z"></path>
<path fill="#37352f" d="M16 22.667c-0.4 0-0.933-0.267-1.067-0.667-0.4-0.667-0.267-1.467 0.4-1.867l14.667-9.333c0.667-0.4 1.467-0.267 1.867 0.4s0.267 1.467-0.4 1.867l-14.667 9.333c-0.267 0.133-0.533 0.267-0.8 0.267z"></path>
<path fill="#37352f" d="M16 22.667c-0.267 0-0.533-0.133-0.667-0.267l-14.667-9.333c-0.667-0.4-0.8-1.2-0.4-1.733 0.4-0.667 1.2-0.8 1.733-0.4l14.667 9.333c0.667 0.4 0.8 1.2 0.4 1.867-0.133 0.267-0.667 0.533-1.067 0.533z"></path>
<path fill="#37352f" d="M1.333 13.333c-0.4 0-0.8-0.133-1.067-0.533-0.4-0.667-0.267-1.467 0.267-1.867l14.667-10.667c0.533-0.4 1.467-0.267 1.867 0.267s0.267 1.467-0.267 1.867l-14.667 10.667c-0.267 0.133-0.533 0.267-0.8 0.267z"></path>
<path fill="#37352f" d="M30.667 13.333c-0.267 0-0.533-0.133-0.8-0.267l-14.667-10.667c-0.533-0.4-0.667-1.333-0.267-1.867s1.2-0.667 1.867-0.267l14.667 10.667c0.533 0.4 0.667 1.333 0.267 1.867-0.267 0.4-0.667 0.533-1.067 0.533z"></path>
</svg>
