<!-- Generated by IcoMoon.io -->
<svg version="1.1" xmlns="http://www.w3.org/2000/svg" width="32" height="32" viewBox="0 0 32 32">
<title>mi-move-diagonal</title>
<path fill="#37352f" d="M26.667 28h-5.333c-0.8 0-1.333-0.533-1.333-1.333s0.533-1.333 1.333-1.333h5.333c0.8 0 1.333 0.533 1.333 1.333s-0.533 1.333-1.333 1.333z"></path>
<path fill="#37352f" d="M26.667 28c-0.8 0-1.333-0.533-1.333-1.333v-5.333c0-0.8 0.533-1.333 1.333-1.333s1.333 0.533 1.333 1.333v5.333c0 0.8-0.533 1.333-1.333 1.333z"></path>
<path fill="#37352f" d="M10.667 6.667h-5.333c-0.8 0-1.333-0.533-1.333-1.333s0.533-1.333 1.333-1.333h5.333c0.8 0 1.333 0.533 1.333 1.333s-0.533 1.333-1.333 1.333z"></path>
<path fill="#37352f" d="M5.333 12c-0.8 0-1.333-0.533-1.333-1.333v-5.333c0-0.8 0.533-1.333 1.333-1.333s1.333 0.533 1.333 1.333v5.333c0 0.8-0.533 1.333-1.333 1.333z"></path>
<path fill="#37352f" d="M26.4 27.733c-0.4 0-0.667-0.133-0.933-0.4l-20.8-20.8c-0.533-0.533-0.533-1.333 0-1.867s1.333-0.533 1.867 0l20.8 20.8c0.533 0.533 0.533 1.333 0 1.867-0.267 0.267-0.667 0.4-0.933 0.4z"></path>
</svg>
