<!-- Generated by IcoMoon.io -->
<svg version="1.1" xmlns="http://www.w3.org/2000/svg" width="32" height="32" viewBox="0 0 32 32">
<title>mi-paper-plane</title>
<path fill="#37352f" d="M20 32c-0.4 0-0.667-0.133-0.933-0.4l-18.667-18.667c-0.267-0.267-0.4-0.8-0.4-1.2 0.133-0.4 0.4-0.8 0.8-0.933l29.333-10.667c0.533-0.133 1.067 0 1.333 0.267 0.4 0.4 0.533 0.933 0.267 1.333l-10.667 29.333c-0.133 0.4-0.533 0.8-0.933 0.8 0 0.133 0 0.133-0.133 0.133zM3.733 12.533l15.733 15.733 8.933-24.667-24.667 8.933z"></path>
<path fill="#37352f" d="M8 20c-0.4 0-0.8-0.133-1.067-0.533-0.4-0.533-0.4-1.467 0.267-1.867l22.667-17.333c0.533-0.4 1.467-0.4 1.867 0.267 0.4 0.533 0.4 1.467-0.267 1.867l-22.667 17.333c-0.267 0.133-0.533 0.267-0.8 0.267z"></path>
<path fill="#37352f" d="M8 30.667c-0.8 0-1.333-0.533-1.333-1.333v-10.667c0-0.8 0.533-1.333 1.333-1.333s1.333 0.533 1.333 1.333v10.667c0 0.8-0.533 1.333-1.333 1.333z"></path>
<path fill="#37352f" d="M8 30.667c-0.267 0-0.533-0.133-0.8-0.267-0.533-0.4-0.667-1.333-0.133-1.867l4.667-5.867c0.4-0.533 1.333-0.667 1.867-0.133 0.533 0.4 0.667 1.333 0.133 1.867l-4.8 5.867c-0.133 0.267-0.533 0.4-0.933 0.4z"></path>
</svg>
