<!-- Generated by IcoMoon.io -->
<svg version="1.1" xmlns="http://www.w3.org/2000/svg" width="32" height="32" viewBox="0 0 32 32">
<title>mi-rotate-counter</title>
<path fill="#37352f" d="M16 32c-8.8 0-16-7.2-16-16 0-0.8 0.533-1.333 1.333-1.333s1.333 0.533 1.333 1.333c0 7.333 6 13.333 13.333 13.333s13.333-6 13.333-13.333-6-13.333-13.333-13.333c-4.4 0-8.667 2.267-11.067 5.867-0.4 0.667-1.2 0.8-1.867 0.4s-0.8-1.2-0.4-1.867c3.067-4.4 8-7.067 13.333-7.067 8.8 0 16 7.2 16 16s-7.2 16-16 16z"></path>
<path fill="#37352f" d="M8 10.667h-5.333c-0.8 0-1.333-0.533-1.333-1.333v-5.333c0-0.8 0.533-1.333 1.333-1.333s1.333 0.533 1.333 1.333v4h4c0.8 0 1.333 0.533 1.333 1.333s-0.533 1.333-1.333 1.333z"></path>
<path fill="#37352f" d="M16 21.333c-2.933 0-5.333-2.4-5.333-5.333s2.4-5.333 5.333-5.333 5.333 2.4 5.333 5.333-2.4 5.333-5.333 5.333zM16 13.333c-1.467 0-2.667 1.2-2.667 2.667s1.2 2.667 2.667 2.667 2.667-1.2 2.667-2.667-1.2-2.667-2.667-2.667z"></path>
</svg>
