<!-- Generated by IcoMoon.io -->
<svg version="1.1" xmlns="http://www.w3.org/2000/svg" width="32" height="32" viewBox="0 0 32 32">
<title>mi-syringe</title>
<path fill="#37352f" d="M12 25.333c-0.4 0-0.667-0.133-0.933-0.4l-4-4c-0.533-0.533-0.533-1.333 0-1.867l14.667-14.667c0.533-0.533 1.333-0.533 1.867 0l4 4c0.533 0.533 0.533 1.333 0 1.867l-14.667 14.667c-0.267 0.267-0.533 0.4-0.933 0.4zM9.867 20l2.133 2.133 12.8-12.8-2.133-2.133-12.8 12.8z"></path>
<path fill="#37352f" d="M29.333 13.333c-0.4 0-0.667-0.133-0.933-0.4l-9.333-9.333c-0.533-0.533-0.533-1.333 0-1.867s1.333-0.533 1.867 0l9.333 9.333c0.533 0.533 0.533 1.333 0 1.867-0.267 0.267-0.533 0.4-0.933 0.4z"></path>
<path fill="#37352f" d="M30.667 8c-0.4 0-0.667-0.133-0.933-0.4l-5.333-5.333c-0.533-0.533-0.533-1.333 0-1.867s1.333-0.533 1.867 0l5.333 5.333c0.533 0.533 0.533 1.333 0 1.867-0.267 0.267-0.533 0.4-0.933 0.4z"></path>
<path fill="#37352f" d="M1.333 32c-0.4 0-0.667-0.133-0.933-0.4-0.533-0.533-0.533-1.333 0-1.867l8.667-8.667c0.533-0.533 1.333-0.533 1.867 0s0.533 1.333 0 1.867l-8.667 8.667c-0.267 0.267-0.533 0.4-0.933 0.4z"></path>
<path fill="#37352f" d="M24.667 8.667c-0.4 0-0.667-0.133-0.933-0.4-0.533-0.533-0.533-1.333 0-1.867l3.333-3.333c0.533-0.533 1.333-0.533 1.867 0s0.533 1.333 0 1.867l-3.333 3.333c-0.267 0.267-0.533 0.4-0.933 0.4z"></path>
</svg>
