<!-- Generated by IcoMoon.io -->
<svg version="1.1" xmlns="http://www.w3.org/2000/svg" width="32" height="32" viewBox="0 0 32 32">
<title>mi-soap</title>
<path fill="#37352f" d="M8 32c-2.267 0-4-1.733-4-4 0-0.8 0.533-1.333 1.333-1.333s1.333 0.533 1.333 1.333c0 0.8 0.533 1.333 1.333 1.333s1.333 0.533 1.333 1.333-0.533 1.333-1.333 1.333z"></path>
<path fill="#37352f" d="M24 32c-0.8 0-1.333-0.533-1.333-1.333s0.533-1.333 1.333-1.333c0.8 0 1.333-0.533 1.333-1.333s0.533-1.333 1.333-1.333 1.333 0.533 1.333 1.333c0 2.267-1.733 4-4 4z"></path>
<path fill="#37352f" d="M5.333 18.667c-0.8 0-1.333-0.533-1.333-1.333 0-3.733 2.933-6.667 6.667-6.667 0.8 0 1.333 0.533 1.333 1.333s-0.533 1.333-1.333 1.333c-2.267 0-4 1.733-4 4 0 0.8-0.533 1.333-1.333 1.333z"></path>
<path fill="#37352f" d="M26.667 18.667c-0.8 0-1.333-0.533-1.333-1.333 0-2.267-1.733-4-4-4-0.8 0-1.333-0.533-1.333-1.333s0.533-1.333 1.333-1.333c3.733 0 6.667 2.933 6.667 6.667 0 0.8-0.533 1.333-1.333 1.333z"></path>
<path fill="#37352f" d="M21.333 13.333h-10.667c-0.8 0-1.333-0.533-1.333-1.333s0.533-1.333 1.333-1.333h10.667c0.8 0 1.333 0.533 1.333 1.333s-0.533 1.333-1.333 1.333z"></path>
<path fill="#37352f" d="M21.333 32h-10.667c-0.8 0-1.333-0.533-1.333-1.333s0.533-1.333 1.333-1.333h10.667c0.8 0 1.333 0.533 1.333 1.333s-0.533 1.333-1.333 1.333z"></path>
<path fill="#37352f" d="M26.667 29.333c-0.8 0-1.333-0.533-1.333-1.333v-10.667c0-0.8 0.533-1.333 1.333-1.333s1.333 0.533 1.333 1.333v10.667c0 0.8-0.533 1.333-1.333 1.333z"></path>
<path fill="#37352f" d="M5.333 29.333c-0.8 0-1.333-0.533-1.333-1.333v-10.667c0-0.8 0.533-1.333 1.333-1.333s1.333 0.533 1.333 1.333v10.667c0 0.8-0.533 1.333-1.333 1.333z"></path>
<path fill="#37352f" d="M24 32h-16c-0.8 0-1.333-0.533-1.333-1.333s0.533-1.333 1.333-1.333h16c0.8 0 1.333 0.533 1.333 1.333s-0.533 1.333-1.333 1.333z"></path>
<path fill="#37352f" d="M20 13.333h-8c-0.8 0-1.333-0.533-1.333-1.333v-5.333c0-0.8 0.533-1.333 1.333-1.333h8c0.8 0 1.333 0.533 1.333 1.333v5.333c0 0.8-0.533 1.333-1.333 1.333zM13.333 10.667h5.333v-2.667h-5.333v2.667z"></path>
<path fill="#37352f" d="M17.333 8h-2.667c-0.8 0-1.333-0.533-1.333-1.333v-5.333c0-0.8 0.533-1.333 1.333-1.333h2.667c0.8 0 1.333 0.533 1.333 1.333v5.333c0 0.8-0.533 1.333-1.333 1.333z"></path>
<path fill="#37352f" d="M26.667 25.333h-21.333c-0.8 0-1.333-0.533-1.333-1.333v-5.333c0-0.8 0.533-1.333 1.333-1.333h21.333c0.8 0 1.333 0.533 1.333 1.333v5.333c0 0.8-0.533 1.333-1.333 1.333zM6.667 22.667h18.667v-2.667h-18.667v2.667z"></path>
<path fill="#37352f" d="M24 4h-8c-0.8 0-1.333-0.533-1.333-1.333s0.533-1.333 1.333-1.333h8c0.8 0 1.333 0.533 1.333 1.333s-0.533 1.333-1.333 1.333z"></path>
</svg>
