<!-- Generated by IcoMoon.io -->
<svg version="1.1" xmlns="http://www.w3.org/2000/svg" width="32" height="32" viewBox="0 0 32 32">
<title>mi-table</title>
<path fill="#37352f" d="M26.667 32h-21.333c-2.933 0-5.333-2.4-5.333-5.333v-20c0-0.8 0.533-1.333 1.333-1.333h29.333c0.8 0 1.333 0.533 1.333 1.333v20c0 2.933-2.4 5.333-5.333 5.333zM2.667 8v18.667c0 1.467 1.2 2.667 2.667 2.667h21.333c1.467 0 2.667-1.2 2.667-2.667v-18.667h-26.667z"></path>
<path fill="#37352f" d="M30.667 6.667h-29.333v-1.333c0-2.267 1.733-4 4-4h21.333c2.267 0 4 1.733 4 4v1.333z"></path>
<path fill="#37352f" d="M30.667 8h-29.333c-0.8 0-1.333-0.533-1.333-1.333v-1.333c0-2.933 2.4-5.333 5.333-5.333h21.333c2.933 0 5.333 2.4 5.333 5.333v1.333c0 0.8-0.533 1.333-1.333 1.333zM2.667 5.333h26.667c0-1.467-1.2-2.667-2.667-2.667h-21.333c-1.467 0-2.667 1.2-2.667 2.667z"></path>
<path fill="#37352f" d="M9.333 32c-0.8 0-1.333-0.533-1.333-1.333v-24c0-0.8 0.533-1.333 1.333-1.333s1.333 0.533 1.333 1.333v24c0 0.8-0.533 1.333-1.333 1.333z"></path>
<path fill="#37352f" d="M30.667 16h-29.333c-0.8 0-1.333-0.533-1.333-1.333s0.533-1.333 1.333-1.333h29.333c0.8 0 1.333 0.533 1.333 1.333s-0.533 1.333-1.333 1.333z"></path>
<path fill="#37352f" d="M30.667 24h-29.333c-0.8 0-1.333-0.533-1.333-1.333s0.533-1.333 1.333-1.333h29.333c0.8 0 1.333 0.533 1.333 1.333s-0.533 1.333-1.333 1.333z"></path>
</svg>
