<!-- Generated by IcoMoon.io -->
<svg version="1.1" xmlns="http://www.w3.org/2000/svg" width="32" height="32" viewBox="0 0 32 32">
<title>mi-tie</title>
<path fill="#37352f" d="M18.667 8h-5.333c-0.533 0-0.933-0.267-1.2-0.8l-2.667-5.333c-0.133-0.4-0.133-0.8 0-1.2s0.8-0.667 1.2-0.667h10.667c0.4 0 0.933 0.267 1.2 0.667s0.267 0.933 0 1.333l-2.667 5.333c-0.267 0.4-0.667 0.667-1.2 0.667zM14.133 5.333h3.733l1.333-2.667h-6.4l1.333 2.667z"></path>
<path fill="#37352f" d="M22.667 25.333c-0.667 0-1.2-0.4-1.333-1.067l-3.733-16.267h-3.2l-3.733 16.267c-0.133 0.667-0.933 1.2-1.6 1.067s-1.2-0.933-1.067-1.6l4-17.333c0.133-0.667 0.667-1.067 1.333-1.067h5.333c0.667 0 1.2 0.4 1.333 1.067l4 17.333c0.133 0.667-0.267 1.467-1.067 1.6-0.133 0-0.133 0-0.267 0z"></path>
<path fill="#37352f" d="M16 32c-0.4 0-0.667-0.133-0.933-0.4l-6.667-6.667c-0.533-0.533-0.533-1.333 0-1.867s1.333-0.533 1.867 0l5.733 5.733 5.733-5.733c0.533-0.533 1.333-0.533 1.867 0s0.533 1.333 0 1.867l-6.667 6.667c-0.267 0.267-0.533 0.4-0.933 0.4z"></path>
</svg>
