<!-- Generated by IcoMoon.io -->
<svg version="1.1" xmlns="http://www.w3.org/2000/svg" width="32" height="32" viewBox="0 0 32 32">
<title>mt-3d_rotation</title>
<path fill="#37352f" d="M10.027 28.64c-4.36-2.053-7.48-6.293-7.96-11.307h-2c0.68 8.213 7.547 14.667 15.933 14.667l0.88-0.040-5.080-5.080-1.773 1.76zM11.213 19.947c-0.253 0-0.493-0.040-0.693-0.107-0.213-0.080-0.387-0.173-0.533-0.32-0.147-0.133-0.267-0.293-0.347-0.493-0.080-0.187-0.12-0.4-0.12-0.627h-1.733c0 0.48 0.093 0.907 0.28 1.267s0.44 0.667 0.747 0.92c0.32 0.24 0.68 0.427 1.093 0.547 0.4 0.133 0.827 0.2 1.28 0.2 0.493 0 0.96-0.067 1.373-0.2 0.427-0.133 0.8-0.333 1.107-0.587s0.56-0.573 0.733-0.96c0.173-0.387 0.267-0.813 0.267-1.293 0-0.253-0.027-0.507-0.093-0.747s-0.16-0.467-0.307-0.68c-0.133-0.213-0.32-0.4-0.533-0.573-0.227-0.173-0.493-0.307-0.813-0.413 0.267-0.12 0.493-0.267 0.693-0.44s0.36-0.36 0.493-0.56c0.133-0.2 0.227-0.4 0.293-0.613s0.093-0.427 0.093-0.64c0-0.48-0.080-0.907-0.24-1.28s-0.387-0.68-0.68-0.92c-0.267-0.253-0.627-0.44-1.027-0.573-0.413-0.12-0.867-0.187-1.36-0.187-0.48 0-0.92 0.067-1.333 0.213-0.4 0.147-0.76 0.347-1.053 0.6-0.28 0.253-0.507 0.547-0.68 0.893-0.16 0.347-0.24 0.72-0.24 1.133h1.733c0-0.227 0.040-0.427 0.12-0.6s0.187-0.333 0.333-0.453c0.147-0.12 0.307-0.227 0.507-0.293s0.4-0.107 0.64-0.107c0.533 0 0.933 0.133 1.187 0.413 0.253 0.267 0.387 0.653 0.387 1.147 0 0.24-0.040 0.453-0.107 0.653s-0.187 0.36-0.333 0.493c-0.147 0.133-0.333 0.24-0.547 0.32s-0.48 0.12-0.773 0.12h-1.027v1.373h1.027c0.293 0 0.56 0.027 0.8 0.093s0.44 0.173 0.6 0.307c0.16 0.147 0.293 0.32 0.387 0.533s0.133 0.467 0.133 0.76c0 0.547-0.16 0.96-0.467 1.24-0.307 0.307-0.733 0.44-1.267 0.44v0zM22.613 12.053c-0.427-0.44-0.933-0.787-1.52-1.027-0.573-0.24-1.227-0.36-1.947-0.36h-3.147v10.667h3.067c0.733 0 1.413-0.12 2.013-0.36s1.12-0.573 1.547-1.013c0.427-0.44 0.76-0.973 0.987-1.587 0.227-0.627 0.347-1.32 0.347-2.093v-0.533c0-0.773-0.12-1.467-0.347-2.093-0.24-0.627-0.573-1.16-1-1.6v0zM22.093 16.267c0 0.56-0.067 1.053-0.187 1.507-0.133 0.44-0.32 0.827-0.573 1.133s-0.573 0.547-0.947 0.707c-0.387 0.16-0.827 0.24-1.32 0.24h-1.213v-7.693h1.293c0.96 0 1.693 0.307 2.187 0.92 0.507 0.613 0.76 1.493 0.76 2.653v0.533zM16 0l-0.88 0.040 5.080 5.080 1.773-1.773c4.36 2.067 7.48 6.293 7.947 11.307h2c-0.667-8.2-7.533-14.653-15.92-14.653v0z"></path>
</svg>
