<!-- Generated by IcoMoon.io -->
<svg version="1.1" xmlns="http://www.w3.org/2000/svg" width="32" height="32" viewBox="0 0 32 32">
<title>mt-attach_file</title>
<path fill="#37352f" d="M22 8v15.333c0 2.947-2.387 5.333-5.333 5.333s-5.333-2.387-5.333-5.333v-16.667c0-1.84 1.493-3.333 3.333-3.333s3.333 1.493 3.333 3.333v14c0 0.733-0.6 1.333-1.333 1.333s-1.333-0.6-1.333-1.333v-12.667h-2v12.667c0 1.84 1.493 3.333 3.333 3.333s3.333-1.493 3.333-3.333v-14c0-2.947-2.387-5.333-5.333-5.333s-5.333 2.387-5.333 5.333v16.667c0 4.053 3.28 7.333 7.333 7.333s7.333-3.28 7.333-7.333v-15.333h-2z"></path>
</svg>
