<!-- Generated by IcoMoon.io -->
<svg version="1.1" xmlns="http://www.w3.org/2000/svg" width="32" height="32" viewBox="0 0 32 32">
<title>mt-blur_linear</title>
<path fill="#37352f" d="M6.667 23.333c1.107 0 2-0.893 2-2s-0.893-2-2-2c-1.107 0-2 0.893-2 2s0.893 2 2 2v0zM12 17.333c0.733 0 1.333-0.6 1.333-1.333s-0.6-1.333-1.333-1.333c-0.733 0-1.333 0.6-1.333 1.333s0.6 1.333 1.333 1.333v0zM12 12c0.733 0 1.333-0.6 1.333-1.333s-0.6-1.333-1.333-1.333c-0.733 0-1.333 0.6-1.333 1.333s0.6 1.333 1.333 1.333v0zM4 28h24v-2.667h-24v2.667zM6.667 12.667c1.107 0 2-0.893 2-2s-0.893-2-2-2c-1.107 0-2 0.893-2 2s0.893 2 2 2v0zM6.667 18c1.107 0 2-0.893 2-2s-0.893-2-2-2c-1.107 0-2 0.893-2 2s0.893 2 2 2v0zM12 22.667c0.733 0 1.333-0.6 1.333-1.333s-0.6-1.333-1.333-1.333c-0.733 0-1.333 0.6-1.333 1.333s0.6 1.333 1.333 1.333v0zM22.667 22c0.373 0 0.667-0.293 0.667-0.667s-0.293-0.667-0.667-0.667c-0.373 0-0.667 0.293-0.667 0.667s0.293 0.667 0.667 0.667v0zM4 4v2.667h24v-2.667h-24zM22.667 11.333c0.373 0 0.667-0.293 0.667-0.667s-0.293-0.667-0.667-0.667c-0.373 0-0.667 0.293-0.667 0.667s0.293 0.667 0.667 0.667v0zM22.667 16.667c0.373 0 0.667-0.293 0.667-0.667s-0.293-0.667-0.667-0.667c-0.373 0-0.667 0.293-0.667 0.667s0.293 0.667 0.667 0.667v0zM17.333 12c0.733 0 1.333-0.6 1.333-1.333s-0.6-1.333-1.333-1.333c-0.733 0-1.333 0.6-1.333 1.333s0.6 1.333 1.333 1.333v0zM17.333 17.333c0.733 0 1.333-0.6 1.333-1.333s-0.6-1.333-1.333-1.333c-0.733 0-1.333 0.6-1.333 1.333s0.6 1.333 1.333 1.333v0zM17.333 22.667c0.733 0 1.333-0.6 1.333-1.333s-0.6-1.333-1.333-1.333c-0.733 0-1.333 0.6-1.333 1.333s0.6 1.333 1.333 1.333v0z"></path>
</svg>
