<!-- Generated by IcoMoon.io -->
<svg version="1.1" xmlns="http://www.w3.org/2000/svg" width="32" height="32" viewBox="0 0 32 32">
<title>mt-blur_on</title>
<path fill="#37352f" d="M8 17.333c-0.733 0-1.333 0.6-1.333 1.333s0.6 1.333 1.333 1.333c0.733 0 1.333-0.6 1.333-1.333s-0.6-1.333-1.333-1.333v0zM8 22.667c-0.733 0-1.333 0.6-1.333 1.333s0.6 1.333 1.333 1.333c0.733 0 1.333-0.6 1.333-1.333s-0.6-1.333-1.333-1.333v0zM8 12c-0.733 0-1.333 0.6-1.333 1.333s0.6 1.333 1.333 1.333c0.733 0 1.333-0.6 1.333-1.333s-0.6-1.333-1.333-1.333v0zM4 12.667c-0.373 0-0.667 0.293-0.667 0.667s0.293 0.667 0.667 0.667c0.373 0 0.667-0.293 0.667-0.667s-0.293-0.667-0.667-0.667v0zM8 6.667c-0.733 0-1.333 0.6-1.333 1.333s0.6 1.333 1.333 1.333c0.733 0 1.333-0.6 1.333-1.333s-0.6-1.333-1.333-1.333v0zM28 14c0.373 0 0.667-0.293 0.667-0.667s-0.293-0.667-0.667-0.667c-0.373 0-0.667 0.293-0.667 0.667s0.293 0.667 0.667 0.667v0zM18.667 9.333c0.733 0 1.333-0.6 1.333-1.333s-0.6-1.333-1.333-1.333c-0.733 0-1.333 0.6-1.333 1.333s0.6 1.333 1.333 1.333v0zM18.667 4.667c0.373 0 0.667-0.293 0.667-0.667s-0.293-0.667-0.667-0.667c-0.373 0-0.667 0.293-0.667 0.667s0.293 0.667 0.667 0.667v0zM4 18c-0.373 0-0.667 0.293-0.667 0.667s0.293 0.667 0.667 0.667c0.373 0 0.667-0.293 0.667-0.667s-0.293-0.667-0.667-0.667v0zM13.333 27.333c-0.373 0-0.667 0.293-0.667 0.667s0.293 0.667 0.667 0.667c0.373 0 0.667-0.293 0.667-0.667s-0.293-0.667-0.667-0.667v0zM13.333 4.667c0.373 0 0.667-0.293 0.667-0.667s-0.293-0.667-0.667-0.667c-0.373 0-0.667 0.293-0.667 0.667s0.293 0.667 0.667 0.667v0zM13.333 9.333c0.733 0 1.333-0.6 1.333-1.333s-0.6-1.333-1.333-1.333c-0.733 0-1.333 0.6-1.333 1.333s0.6 1.333 1.333 1.333v0zM13.333 16.667c-1.107 0-2 0.893-2 2s0.893 2 2 2c1.107 0 2-0.893 2-2s-0.893-2-2-2v0zM24 17.333c-0.733 0-1.333 0.6-1.333 1.333s0.6 1.333 1.333 1.333c0.733 0 1.333-0.6 1.333-1.333s-0.6-1.333-1.333-1.333v0zM24 22.667c-0.733 0-1.333 0.6-1.333 1.333s0.6 1.333 1.333 1.333c0.733 0 1.333-0.6 1.333-1.333s-0.6-1.333-1.333-1.333v0zM24 12c-0.733 0-1.333 0.6-1.333 1.333s0.6 1.333 1.333 1.333c0.733 0 1.333-0.6 1.333-1.333s-0.6-1.333-1.333-1.333v0zM24 6.667c-0.733 0-1.333 0.6-1.333 1.333s0.6 1.333 1.333 1.333c0.733 0 1.333-0.6 1.333-1.333s-0.6-1.333-1.333-1.333v0zM28 18c-0.373 0-0.667 0.293-0.667 0.667s0.293 0.667 0.667 0.667c0.373 0 0.667-0.293 0.667-0.667s-0.293-0.667-0.667-0.667v0zM18.667 22.667c-0.733 0-1.333 0.6-1.333 1.333s0.6 1.333 1.333 1.333c0.733 0 1.333-0.6 1.333-1.333s-0.6-1.333-1.333-1.333v0zM18.667 27.333c-0.373 0-0.667 0.293-0.667 0.667s0.293 0.667 0.667 0.667c0.373 0 0.667-0.293 0.667-0.667s-0.293-0.667-0.667-0.667v0zM13.333 11.333c-1.107 0-2 0.893-2 2s0.893 2 2 2c1.107 0 2-0.893 2-2s-0.893-2-2-2v0zM13.333 22.667c-0.733 0-1.333 0.6-1.333 1.333s0.6 1.333 1.333 1.333c0.733 0 1.333-0.6 1.333-1.333s-0.6-1.333-1.333-1.333v0zM18.667 16.667c-1.107 0-2 0.893-2 2s0.893 2 2 2c1.107 0 2-0.893 2-2s-0.893-2-2-2v0zM18.667 11.333c-1.107 0-2 0.893-2 2s0.893 2 2 2c1.107 0 2-0.893 2-2s-0.893-2-2-2v0z"></path>
</svg>
