<!-- Generated by IcoMoon.io -->
<svg version="1.1" xmlns="http://www.w3.org/2000/svg" width="32" height="32" viewBox="0 0 32 32">
<title>mt-confirmation_number</title>
<path fill="#37352f" d="M29.333 13.333v-5.333c0-1.48-1.2-2.667-2.667-2.667h-21.333c-1.467 0-2.653 1.187-2.653 2.667v5.333c1.467 0 2.653 1.2 2.653 2.667s-1.187 2.667-2.667 2.667v5.333c0 1.467 1.2 2.667 2.667 2.667h21.333c1.467 0 2.667-1.2 2.667-2.667v-5.333c-1.467 0-2.667-1.2-2.667-2.667s1.2-2.667 2.667-2.667v0zM17.333 23.333h-2.667v-2.667h2.667v2.667zM17.333 17.333h-2.667v-2.667h2.667v2.667zM17.333 11.333h-2.667v-2.667h2.667v2.667z"></path>
</svg>
