<!-- Generated by IcoMoon.io -->
<svg version="1.1" xmlns="http://www.w3.org/2000/svg" width="32" height="32" viewBox="0 0 32 32">
<title>mt-cake</title>
<path fill="#37352f" d="M16 8c1.48 0 2.667-1.2 2.667-2.667 0-0.507-0.133-0.973-0.387-1.373l-2.28-3.96-2.28 3.96c-0.253 0.4-0.387 0.867-0.387 1.373 0 1.467 1.2 2.667 2.667 2.667v0zM22.133 21.32l-1.427-1.427-1.44 1.427c-1.733 1.733-4.773 1.747-6.52 0l-1.427-1.427-1.453 1.427c-0.867 0.867-2.027 1.347-3.253 1.347-0.973 0-1.867-0.307-2.613-0.813v6.147c0 0.733 0.6 1.333 1.333 1.333h21.333c0.733 0 1.333-0.6 1.333-1.333v-6.147c-0.747 0.507-1.64 0.813-2.613 0.813-1.227 0-2.387-0.48-3.253-1.347v0zM24 12h-6.667v-2.667h-2.667v2.667h-6.667c-2.213 0-4 1.787-4 4v2.053c0 1.44 1.173 2.613 2.613 2.613 0.693 0 1.36-0.267 1.84-0.76l2.853-2.84 2.84 2.84c0.987 0.987 2.707 0.987 3.693 0l2.853-2.84 2.84 2.84c0.493 0.493 1.147 0.76 1.84 0.76 1.44 0 2.613-1.173 2.613-2.613v-2.053c0.013-2.213-1.773-4-3.987-4v0z"></path>
</svg>
