<!-- Generated by IcoMoon.io -->
<svg version="1.1" xmlns="http://www.w3.org/2000/svg" width="32" height="32" viewBox="0 0 32 32">
<title>mt-camera_roll</title>
<path fill="#37352f" d="M18.667 6.667c0-1.467-1.2-2.667-2.667-2.667h-1.333v-1.333c0-0.733-0.6-1.333-1.333-1.333h-5.333c-0.733 0-1.333 0.6-1.333 1.333v1.333h-1.333c-1.467 0-2.667 1.2-2.667 2.667v20c0 1.467 1.2 2.667 2.667 2.667h10.667c1.467 0 2.667-1.2 2.667-2.667h10.667v-20h-10.667zM16 24h-2.667v-2.667h2.667v2.667zM16 12h-2.667v-2.667h2.667v2.667zM21.333 24h-2.667v-2.667h2.667v2.667zM21.333 12h-2.667v-2.667h2.667v2.667zM26.667 24h-2.667v-2.667h2.667v2.667zM26.667 12h-2.667v-2.667h2.667v2.667z"></path>
</svg>
