<!-- Generated by IcoMoon.io -->
<svg version="1.1" xmlns="http://www.w3.org/2000/svg" width="32" height="32" viewBox="0 0 32 32">
<title>mt-developer_board</title>
<path fill="#37352f" d="M29.333 12v-2.667h-2.667v-2.667c0-1.467-1.2-2.667-2.667-2.667h-18.667c-1.467 0-2.667 1.2-2.667 2.667v18.667c0 1.467 1.2 2.667 2.667 2.667h18.667c1.467 0 2.667-1.2 2.667-2.667v-2.667h2.667v-2.667h-2.667v-2.667h2.667v-2.667h-2.667v-2.667h2.667zM24 25.333h-18.667v-18.667h18.667v18.667zM8 17.333h6.667v5.333h-6.667v-5.333zM16 9.333h5.333v4h-5.333v-4zM8 9.333h6.667v6.667h-6.667v-6.667zM16 14.667h5.333v8h-5.333v-8z"></path>
</svg>
