<!-- Generated by IcoMoon.io -->
<svg version="1.1" xmlns="http://www.w3.org/2000/svg" width="32" height="32" viewBox="0 0 32 32">
<title>mt-extension</title>
<path fill="#37352f" d="M27.333 14.667h-2v-5.333c0-1.467-1.2-2.667-2.667-2.667h-5.333v-2c0-1.84-1.493-3.333-3.333-3.333s-3.333 1.493-3.333 3.333v2h-5.333c-1.467 0-2.653 1.2-2.653 2.667v5.067h1.987c1.987 0 3.6 1.613 3.6 3.6s-1.613 3.6-3.6 3.6h-2v5.067c0 1.467 1.2 2.667 2.667 2.667h5.067v-2c0-1.987 1.613-3.6 3.6-3.6s3.6 1.613 3.6 3.6v2h5.067c1.467 0 2.667-1.2 2.667-2.667v-5.333h2c1.84 0 3.333-1.493 3.333-3.333s-1.493-3.333-3.333-3.333v0z"></path>
</svg>
