<!-- Generated by IcoMoon.io -->
<svg version="1.1" xmlns="http://www.w3.org/2000/svg" width="32" height="32" viewBox="0 0 32 32">
<title>mt-edit_location</title>
<path fill="#37352f" d="M16 2.667c-5.147 0-9.333 4.187-9.333 9.333 0 7 9.333 17.333 9.333 17.333s9.333-10.333 9.333-17.333c0-5.147-4.187-9.333-9.333-9.333v0zM13.92 16h-1.92v-1.92l4.467-4.453 1.907 1.907-4.453 4.467zM19.853 10.067l-0.933 0.933-1.92-1.92 0.933-0.933c0.2-0.2 0.52-0.2 0.72 0l1.2 1.2c0.2 0.2 0.2 0.52 0 0.72v0z"></path>
</svg>
