<!-- Generated by IcoMoon.io -->
<svg version="1.1" xmlns="http://www.w3.org/2000/svg" width="32" height="32" viewBox="0 0 32 32">
<title>mt-find_replace</title>
<path fill="#37352f" d="M14.667 8c1.84 0 3.507 0.747 4.72 1.947l-3.387 3.387h8v-8l-2.733 2.733c-1.693-1.693-4.027-2.733-6.6-2.733-4.707 0-8.573 3.48-9.227 8h2.693c0.613-3.040 3.307-5.333 6.533-5.333v0zM22.187 20.187c0.88-1.2 1.493-2.627 1.707-4.187h-2.693c-0.613 3.040-3.307 5.333-6.533 5.333-1.84 0-3.507-0.747-4.72-1.947l3.387-3.387h-8v8l2.733-2.733c1.693 1.693 4.027 2.733 6.6 2.733 2.067 0 3.973-0.68 5.52-1.813l6.48 6.467 1.987-1.987-6.467-6.48z"></path>
</svg>
