<!-- Generated by IcoMoon.io -->
<svg version="1.1" xmlns="http://www.w3.org/2000/svg" width="32" height="32" viewBox="0 0 32 32">
<title>mt-fingerprint</title>
<path fill="#37352f" d="M23.747 5.96c-0.107 0-0.213-0.027-0.307-0.080-2.56-1.32-4.773-1.88-7.427-1.88-2.64 0-5.147 0.627-7.427 1.88-0.32 0.173-0.72 0.053-0.907-0.267-0.173-0.32-0.053-0.733 0.267-0.907 2.48-1.347 5.2-2.040 8.067-2.040 2.84 0 5.32 0.627 8.040 2.027 0.333 0.173 0.453 0.573 0.28 0.893-0.12 0.24-0.347 0.373-0.587 0.373v0zM4.667 12.96c-0.133 0-0.267-0.040-0.387-0.12-0.307-0.213-0.373-0.627-0.16-0.933 1.32-1.867 3-3.333 5-4.36 4.187-2.16 9.547-2.173 13.747-0.013 2 1.027 3.68 2.48 5 4.333 0.213 0.293 0.147 0.72-0.16 0.933s-0.72 0.147-0.933-0.16c-1.2-1.68-2.72-3-4.52-3.92-3.827-1.96-8.72-1.96-12.533 0.013-1.813 0.933-3.333 2.267-4.533 3.947-0.107 0.187-0.307 0.28-0.52 0.28v0zM13 29.053c-0.173 0-0.347-0.067-0.467-0.2-1.16-1.16-1.787-1.907-2.68-3.52-0.92-1.64-1.4-3.64-1.4-5.787 0-3.96 3.387-7.187 7.547-7.187s7.547 3.227 7.547 7.187c0 0.373-0.293 0.667-0.667 0.667s-0.667-0.293-0.667-0.667c0-3.227-2.787-5.853-6.213-5.853s-6.213 2.627-6.213 5.853c0 1.92 0.427 3.693 1.24 5.133 0.853 1.533 1.44 2.187 2.467 3.227 0.253 0.267 0.253 0.68 0 0.947-0.147 0.133-0.32 0.2-0.493 0.2v0zM22.56 26.587c-1.587 0-2.987-0.4-4.133-1.187-1.987-1.347-3.173-3.533-3.173-5.853 0-0.373 0.293-0.667 0.667-0.667s0.667 0.293 0.667 0.667c0 1.88 0.96 3.653 2.587 4.747 0.947 0.64 2.053 0.947 3.387 0.947 0.32 0 0.853-0.040 1.387-0.133 0.36-0.067 0.707 0.173 0.773 0.547 0.067 0.36-0.173 0.707-0.547 0.773-0.76 0.147-1.427 0.16-1.613 0.16v0zM19.88 29.333c-0.053 0-0.12-0.013-0.173-0.027-2.12-0.587-3.507-1.373-4.96-2.8-1.867-1.853-2.893-4.32-2.893-6.96 0-2.16 1.84-3.92 4.107-3.92s4.107 1.76 4.107 3.92c0 1.427 1.24 2.587 2.773 2.587s2.773-1.16 2.773-2.587c0-5.027-4.333-9.107-9.667-9.107-3.787 0-7.253 2.107-8.813 5.373-0.52 1.080-0.787 2.347-0.787 3.733 0 1.040 0.093 2.68 0.893 4.813 0.133 0.347-0.040 0.733-0.387 0.853-0.347 0.133-0.733-0.053-0.853-0.387-0.653-1.747-0.973-3.48-0.973-5.28 0-1.6 0.307-3.053 0.907-4.32 1.773-3.72 5.707-6.133 10.013-6.133 6.067 0 11 4.68 11 10.44 0 2.16-1.84 3.92-4.107 3.92s-4.107-1.76-4.107-3.92c0-1.427-1.24-2.587-2.773-2.587s-2.773 1.16-2.773 2.587c0 2.28 0.88 4.413 2.493 6.013 1.267 1.253 2.48 1.947 4.36 2.467 0.36 0.093 0.56 0.467 0.467 0.813-0.067 0.307-0.347 0.507-0.627 0.507v0z"></path>
</svg>
