<!-- Generated by IcoMoon.io -->
<svg version="1.1" xmlns="http://www.w3.org/2000/svg" width="32" height="32" viewBox="0 0 32 32">
<title>mt-find_in_page</title>
<path fill="#37352f" d="M26.667 26.12v-15.453l-8-8h-10.667c-1.467 0-2.653 1.2-2.653 2.667l-0.013 21.333c0 1.467 1.187 2.667 2.653 2.667h16.013c0.6 0 1.133-0.2 1.587-0.533l-5.907-5.907c-1.067 0.693-2.32 1.107-3.68 1.107-3.68 0-6.667-2.987-6.667-6.667s2.987-6.667 6.667-6.667c3.68 0 6.667 2.987 6.667 6.667 0 1.36-0.413 2.613-1.107 3.667l5.107 5.12zM12 17.333c0 2.213 1.787 4 4 4s4-1.787 4-4c0-2.213-1.787-4-4-4s-4 1.787-4 4v0z"></path>
</svg>
