<!-- Generated by IcoMoon.io -->
<svg version="1.1" xmlns="http://www.w3.org/2000/svg" width="32" height="32" viewBox="0 0 32 32">
<title>mt-format_color_fill</title>
<path fill="#37352f" d="M22.080 11.92l-11.92-11.92-1.88 1.88 3.173 3.173-6.867 6.867c-0.787 0.787-0.787 2.053 0 2.827l7.333 7.333c0.387 0.387 0.907 0.587 1.413 0.587s1.027-0.2 1.413-0.587l7.333-7.333c0.787-0.773 0.787-2.040 0-2.827v0zM6.947 13.333l6.387-6.387 6.387 6.387h-12.773zM22.667 20c0 1.467 1.2 2.667 2.667 2.667s2.667-1.2 2.667-2.667c0-1.773-2.667-4.667-2.667-4.667-1.333 2.333-2.667 2.893-2.667 4.667z"></path>
<path fill="#37352f" d="M0 26.667h32v5.333h-32v-5.333z"></path>
</svg>
