<!-- Generated by IcoMoon.io -->
<svg version="1.1" xmlns="http://www.w3.org/2000/svg" width="32" height="32" viewBox="0 0 32 32">
<title>mt-group_add</title>
<path fill="#37352f" d="M10.667 13.333h-4v-4h-2.667v4h-4v2.667h4v4h2.667v-4h4v-2.667zM24 14.667c2.213 0 3.987-1.787 3.987-4s-1.773-4-3.987-4c-0.427 0-0.84 0.067-1.213 0.187 0.76 1.080 1.2 2.387 1.2 3.813s-0.453 2.72-1.2 3.813c0.373 0.12 0.787 0.187 1.213 0.187v0zM17.333 14.667c2.213 0 3.987-1.787 3.987-4s-1.773-4-3.987-4c-2.213 0-4 1.787-4 4s1.787 4 4 4v0zM26.16 17.547c1.107 0.973 1.84 2.213 1.84 3.787v2.667h4v-2.667c0-2.053-3.16-3.32-5.84-3.787v0zM17.333 17.333c-2.667 0-8 1.333-8 4v2.667h16v-2.667c0-2.667-5.333-4-8-4v0z"></path>
</svg>
