<!-- Generated by IcoMoon.io -->
<svg version="1.1" xmlns="http://www.w3.org/2000/svg" width="32" height="32" viewBox="0 0 32 32">
<title>mt-grid_on</title>
<path fill="#37352f" d="M26.667 2.667h-21.333c-1.467 0-2.667 1.2-2.667 2.667v21.333c0 1.467 1.2 2.667 2.667 2.667h21.333c1.467 0 2.667-1.2 2.667-2.667v-21.333c0-1.467-1.2-2.667-2.667-2.667v0zM10.667 26.667h-5.333v-5.333h5.333v5.333zM10.667 18.667h-5.333v-5.333h5.333v5.333zM10.667 10.667h-5.333v-5.333h5.333v5.333zM18.667 26.667h-5.333v-5.333h5.333v5.333zM18.667 18.667h-5.333v-5.333h5.333v5.333zM18.667 10.667h-5.333v-5.333h5.333v5.333zM26.667 26.667h-5.333v-5.333h5.333v5.333zM26.667 18.667h-5.333v-5.333h5.333v5.333zM26.667 10.667h-5.333v-5.333h5.333v5.333z"></path>
</svg>
