<!-- Generated by IcoMoon.io -->
<svg version="1.1" xmlns="http://www.w3.org/2000/svg" width="32" height="32" viewBox="0 0 32 32">
<title>mt-hdr_weak</title>
<path fill="#37352f" d="M6.667 10.667c-2.947 0-5.333 2.387-5.333 5.333s2.387 5.333 5.333 5.333c2.947 0 5.333-2.387 5.333-5.333s-2.387-5.333-5.333-5.333v0zM22.667 8c-4.413 0-8 3.587-8 8s3.587 8 8 8c4.413 0 8-3.587 8-8s-3.587-8-8-8v0zM22.667 21.333c-2.947 0-5.333-2.387-5.333-5.333s2.387-5.333 5.333-5.333c2.947 0 5.333 2.387 5.333 5.333s-2.387 5.333-5.333 5.333v0z"></path>
</svg>
