<!-- Generated by IcoMoon.io -->
<svg version="1.1" xmlns="http://www.w3.org/2000/svg" width="32" height="32" viewBox="0 0 32 32">
<title>mt-hearing</title>
<path fill="#37352f" d="M22.667 26.667c-0.387 0-0.747-0.080-1.013-0.2-0.947-0.493-1.613-1.173-2.28-3.173-0.68-2.080-1.96-3.053-3.187-4-1.053-0.813-2.147-1.653-3.093-3.373-0.707-1.28-1.093-2.68-1.093-3.92 0-3.733 2.933-6.667 6.667-6.667s6.667 2.933 6.667 6.667h2.667c0-5.24-4.093-9.333-9.333-9.333s-9.333 4.093-9.333 9.333c0 1.68 0.507 3.533 1.427 5.2 1.213 2.2 2.64 3.307 3.8 4.2 1.080 0.827 1.853 1.427 2.28 2.733 0.8 2.427 1.827 3.787 3.64 4.733 0.68 0.307 1.427 0.467 2.187 0.467 2.947 0 5.333-2.387 5.333-5.333h-2.667c0 1.467-1.2 2.667-2.667 2.667v0zM10.187 3.52l-1.893-1.893c-2.653 2.653-4.293 6.32-4.293 10.373s1.64 7.72 4.293 10.373l1.88-1.88c-2.16-2.173-3.507-5.173-3.507-8.493s1.347-6.32 3.52-8.48v0zM15.333 12c0 1.84 1.493 3.333 3.333 3.333s3.333-1.493 3.333-3.333c0-1.84-1.493-3.333-3.333-3.333s-3.333 1.493-3.333 3.333v0z"></path>
</svg>
