<!-- Generated by IcoMoon.io -->
<svg version="1.1" xmlns="http://www.w3.org/2000/svg" width="32" height="32" viewBox="0 0 32 32">
<title>mt-library_books</title>
<path fill="#37352f" d="M5.333 8h-2.667v18.667c0 1.467 1.2 2.667 2.667 2.667h18.667v-2.667h-18.667v-18.667zM26.667 2.667h-16c-1.467 0-2.667 1.2-2.667 2.667v16c0 1.467 1.2 2.667 2.667 2.667h16c1.467 0 2.667-1.2 2.667-2.667v-16c0-1.467-1.2-2.667-2.667-2.667v0zM25.333 14.667h-13.333v-2.667h13.333v2.667zM20 20h-8v-2.667h8v2.667zM25.333 9.333h-13.333v-2.667h13.333v2.667z"></path>
</svg>
