<!-- Generated by IcoMoon.io -->
<svg version="1.1" xmlns="http://www.w3.org/2000/svg" width="32" height="32" viewBox="0 0 32 32">
<title>mt-leak_remove</title>
<path fill="#37352f" d="M13.333 4h-2.667c0 0.493-0.053 0.96-0.16 1.413l2.12 2.12c0.453-1.080 0.707-2.28 0.707-3.533v0zM4 5.693l3.787 3.787c-1.080 0.747-2.373 1.187-3.787 1.187v2.667c2.147 0 4.12-0.733 5.693-1.947l1.907 1.907c-2.080 1.693-4.72 2.707-7.6 2.707v2.667c3.613 0 6.92-1.32 9.48-3.493l3.333 3.333c-2.16 2.573-3.48 5.88-3.48 9.493h2.667c0-2.88 1.013-5.52 2.707-7.587l1.907 1.907c-1.213 1.56-1.947 3.533-1.947 5.68h2.667c0-1.413 0.44-2.707 1.187-3.787l3.787 3.787 1.693-1.693-22.307-22.307-1.693 1.693zM18.667 4h-2.667c0 2-0.493 3.88-1.36 5.547l1.947 1.947c1.307-2.187 2.080-4.747 2.080-7.493v0zM26.587 21.493c0.453-0.107 0.92-0.16 1.413-0.16v-2.667c-1.253 0-2.453 0.253-3.547 0.693l2.133 2.133zM20.507 15.413l1.947 1.947c1.667-0.867 3.547-1.36 5.547-1.36v-2.667c-2.747 0-5.307 0.773-7.493 2.080v0z"></path>
</svg>
