<!-- Generated by IcoMoon.io -->
<svg version="1.1" xmlns="http://www.w3.org/2000/svg" width="32" height="32" viewBox="0 0 32 32">
<title>mt-notifications_active</title>
<path fill="#37352f" d="M10.107 5.44l-1.907-1.907c-3.2 2.44-5.307 6.2-5.493 10.467h2.667c0.2-3.533 2.013-6.627 4.733-8.56v0zM26.627 14h2.667c-0.2-4.267-2.307-8.027-5.493-10.467l-1.893 1.907c2.693 1.933 4.52 5.027 4.72 8.56v0zM24 14.667c0-4.093-2.187-7.52-6-8.427v-0.907c0-1.107-0.893-2-2-2s-2 0.893-2 2v0.907c-3.827 0.907-6 4.32-6 8.427v6.667l-2.667 2.667v1.333h21.333v-1.333l-2.667-2.667v-6.667zM16 29.333c0.187 0 0.36-0.013 0.533-0.053 0.867-0.187 1.573-0.773 1.92-1.573 0.133-0.32 0.2-0.667 0.2-1.040h-5.333c0.013 1.467 1.2 2.667 2.68 2.667v0z"></path>
</svg>
