<!-- Generated by IcoMoon.io -->
<svg version="1.1" xmlns="http://www.w3.org/2000/svg" width="32" height="32" viewBox="0 0 32 32">
<title>mt-pan_tool</title>
<path fill="#37352f" d="M30.667 26.667c0 2.933-2.4 5.333-5.333 5.333h-9.733c-1.44 0-2.8-0.573-3.8-1.587l-10.467-10.64c0 0 1.281-1.333 1.733-1.667s0.659-0.35 1.053-0.387c0.394-0.037 0.56 0.080 0.8 0.213 0.053 0.013 5.747 3.28 5.747 3.28v-15.88c0-1.107 0.893-2 2-2s2 0.893 2 2v9.333h1.333v-12.667c0-1.107 0.893-2 2-2s2 0.893 2 2v12.667h1.333v-11.333c0-1.107 0.893-2 2-2s2 0.893 2 2v11.333h1.333v-7.333c0-1.107 0.893-2 2-2s2 0.893 2 2v19.333z"></path>
</svg>
