<!-- Generated by IcoMoon.io -->
<svg version="1.1" xmlns="http://www.w3.org/2000/svg" width="32" height="32" viewBox="0 0 32 32">
<title>mt-photo_size_select_small</title>
<path fill="#37352f" d="M30.667 20h-2.667v2.667h2.667v-2.667zM30.667 14.667h-2.667v2.667h2.667v-2.667zM30.667 25.333h-2.667v2.667c1.333 0 2.667-1.333 2.667-2.667v0zM20 4h-2.667v2.667h2.667v-2.667zM30.667 9.333h-2.667v2.667h2.667v-2.667zM28 4v2.667h2.667c0-1.333-1.333-2.667-2.667-2.667v0zM4 28h10.667v-8h-13.333v5.333c0 1.467 1.2 2.667 2.667 2.667v0zM4 9.333h-2.667v2.667h2.667v-2.667zM20 25.333h-2.667v2.667h2.667v-2.667zM25.333 4h-2.667v2.667h2.667v-2.667zM25.333 25.333h-2.667v2.667h2.667v-2.667zM4 4c-1.333 0-2.667 1.333-2.667 2.667h2.667v-2.667zM4 14.667h-2.667v2.667h2.667v-2.667zM14.667 4h-2.667v2.667h2.667v-2.667zM9.333 4h-2.667v2.667h2.667v-2.667z"></path>
</svg>
