<!-- Generated by IcoMoon.io -->
<svg version="1.1" xmlns="http://www.w3.org/2000/svg" width="32" height="32" viewBox="0 0 32 32">
<title>mt-phonelink_off</title>
<path fill="#37352f" d="M29.333 8v-2.667h-20.24l2.667 2.667h17.573zM2.56 2.2l-1.693 1.693 2.427 2.427c-0.387 0.453-0.627 1.040-0.627 1.68v14.667h-2.667v4h23.64l3.133 3.133 1.693-1.693-25.907-25.907zM5.333 8.36l14.307 14.307h-14.307v-14.307zM30.667 10.667h-8c-0.733 0-1.333 0.6-1.333 1.333v5.573l2.667 2.667v-6.907h5.333v9.333h-2.907l4 4h0.24c0.733 0 1.333-0.6 1.333-1.333v-13.333c0-0.733-0.6-1.333-1.333-1.333v0z"></path>
</svg>
