<!-- Generated by IcoMoon.io -->
<svg version="1.1" xmlns="http://www.w3.org/2000/svg" width="32" height="32" viewBox="0 0 32 32">
<title>mt-restore</title>
<path fill="#37352f" d="M17.333 4c-6.627 0-12 5.373-12 12h-4l5.187 5.187 0.093 0.187 5.387-5.373h-4c0-5.16 4.173-9.333 9.333-9.333s9.333 4.173 9.333 9.333c0 5.16-4.173 9.333-9.333 9.333-2.573 0-4.907-1.053-6.587-2.747l-1.893 1.893c2.173 2.173 5.16 3.52 8.48 3.52 6.627 0 12-5.373 12-12s-5.373-12-12-12v0zM16 10.667v6.667l5.707 3.387 0.96-1.613-4.667-2.773v-5.667h-2z"></path>
</svg>
