<!-- Generated by IcoMoon.io -->
<svg version="1.1" xmlns="http://www.w3.org/2000/svg" width="32" height="32" viewBox="0 0 32 32">
<title>mt-settings_system_daydream</title>
<path fill="#37352f" d="M12 21.333h8.667c1.84 0 3.333-1.493 3.333-3.333s-1.493-3.333-3.333-3.333h-0.067c-0.32-2.253-2.253-4-4.6-4-1.867 0-3.467 1.107-4.213 2.693h-0.213c-2.013 0.213-3.573 1.907-3.573 3.973 0 2.213 1.787 4 4 4v0zM28 4h-24c-1.467 0-2.667 1.2-2.667 2.667v18.667c0 1.467 1.2 2.667 2.667 2.667h24c1.467 0 2.667-1.2 2.667-2.667v-18.667c0-1.467-1.2-2.667-2.667-2.667v0zM28 25.347h-24v-18.693h24v18.693z"></path>
</svg>
