<!-- Generated by IcoMoon.io -->
<svg version="1.1" xmlns="http://www.w3.org/2000/svg" width="32" height="32" viewBox="0 0 32 32">
<title>mt-surround_sound</title>
<path fill="#37352f" d="M26.667 5.333h-21.333c-1.467 0-2.667 1.2-2.667 2.667v16c0 1.467 1.2 2.667 2.667 2.667h21.333c1.467 0 2.667-1.2 2.667-2.667v-16c0-1.467-1.2-2.667-2.667-2.667v0zM10.347 21.653l-1.88 1.88c-2.093-2.067-3.133-4.8-3.133-7.533s1.040-5.467 3.12-7.547l1.88 1.88c-1.547 1.573-2.333 3.613-2.333 5.667s0.787 4.093 2.347 5.653v0zM16 21.333c-2.947 0-5.333-2.387-5.333-5.333s2.387-5.333 5.333-5.333c2.947 0 5.333 2.387 5.333 5.333s-2.387 5.333-5.333 5.333v0zM23.547 23.547l-1.88-1.88c1.547-1.573 2.333-3.613 2.333-5.667s-0.787-4.093-2.347-5.653l1.88-1.88c2.093 2.067 3.133 4.8 3.133 7.533s-1.040 5.467-3.12 7.547v0zM16 13.333c-1.467 0-2.667 1.2-2.667 2.667s1.2 2.667 2.667 2.667c1.467 0 2.667-1.2 2.667-2.667s-1.2-2.667-2.667-2.667v0z"></path>
</svg>
