<!-- Generated by IcoMoon.io -->
<svg version="1.1" xmlns="http://www.w3.org/2000/svg" width="32" height="32" viewBox="0 0 32 32">
<title>mt-slow_motion_video</title>
<path fill="#37352f" d="M17.4 13.053l-4.067-3.053v12l8-6-3.933-2.947zM17.4 13.053l-4.067-3.053v12l8-6-3.933-2.947zM17.4 13.053l-4.067-3.053v12l8-6-3.933-2.947zM14.667 5.427v-2.693c-2.68 0.267-5.12 1.333-7.093 2.947l1.893 1.907c1.48-1.147 3.253-1.92 5.2-2.16v0zM7.587 9.467l-1.907-1.893c-1.613 1.973-2.68 4.413-2.947 7.093h2.693c0.24-1.947 1.013-3.72 2.16-5.2v0zM5.427 17.333h-2.693c0.267 2.68 1.333 5.12 2.947 7.093l1.907-1.907c-1.147-1.467-1.92-3.24-2.16-5.187v0zM7.573 26.32c1.973 1.613 4.427 2.68 7.093 2.947v-2.693c-1.947-0.24-3.72-1.013-5.2-2.16l-1.893 1.907zM29.333 16c0 6.88-5.227 12.56-11.933 13.267v-2.693c5.227-0.693 9.267-5.173 9.267-10.573s-4.040-9.88-9.267-10.573v-2.693c6.707 0.707 11.933 6.387 11.933 13.267v0z"></path>
</svg>
