<!-- Generated by IcoMoon.io -->
<svg version="1.1" xmlns="http://www.w3.org/2000/svg" width="32" height="32" viewBox="0 0 32 32">
<title>mt-shop_two</title>
<path fill="#37352f" d="M4 12h-2.667v14.667c0 1.48 1.187 2.667 2.667 2.667h18.667c1.48 0 2.667-1.187 2.667-2.667h-21.333v-14.667zM24 6.667v-2.667c0-1.48-1.187-2.667-2.667-2.667h-5.333c-1.48 0-2.667 1.187-2.667 2.667v2.667h-6.667v14.667c0 1.48 1.187 2.667 2.667 2.667h18.667c1.48 0 2.667-1.187 2.667-2.667v-14.667h-6.667zM16 4h5.333v2.667h-5.333v-2.667zM16 20v-9.333l7.333 4-7.333 5.333z"></path>
</svg>
