<!-- Generated by IcoMoon.io -->
<svg version="1.1" xmlns="http://www.w3.org/2000/svg" width="32" height="32" viewBox="0 0 32 32">
<title>mt-settings_power</title>
<path fill="#37352f" d="M9.333 32h2.667v-2.667h-2.667v2.667zM14.667 32h2.667v-2.667h-2.667v2.667zM17.333 2.667h-2.667v13.333h2.667v-13.333zM22.080 5.92l-1.933 1.933c2.307 1.4 3.853 3.92 3.853 6.813 0 4.413-3.587 8-8 8s-8-3.587-8-8c0-2.893 1.547-5.413 3.84-6.827l-1.92-1.92c-2.773 1.92-4.587 5.12-4.587 8.747 0 5.893 4.773 10.667 10.667 10.667s10.667-4.773 10.667-10.667c0-3.627-1.813-6.827-4.587-8.747v0zM20 32h2.667v-2.667h-2.667v2.667z"></path>
</svg>
