<!-- Generated by IcoMoon.io -->
<svg version="1.1" xmlns="http://www.w3.org/2000/svg" width="32" height="32" viewBox="0 0 32 32">
<title>mt-tonality</title>
<path fill="#37352f" d="M16 2.667c-7.36 0-13.333 5.973-13.333 13.333s5.973 13.333 13.333 13.333c7.36 0 13.333-5.973 13.333-13.333s-5.973-13.333-13.333-13.333v0zM14.667 26.573c-5.253-0.653-9.333-5.133-9.333-10.573s4.067-9.92 9.333-10.573v21.147zM17.333 5.427c1.373 0.173 2.667 0.6 3.827 1.24h-3.827v-1.24zM17.333 9.333h6.987c0.333 0.413 0.64 0.867 0.907 1.333h-7.893v-1.333zM17.333 13.333h8.987c0.107 0.44 0.2 0.88 0.253 1.333h-9.24v-1.333zM17.333 26.573v-1.24h3.827c-1.16 0.64-2.453 1.067-3.827 1.24v0zM24.32 22.667h-6.987v-1.333h7.893c-0.267 0.467-0.573 0.92-0.907 1.333v0zM26.32 18.667h-8.987v-1.333h9.24c-0.053 0.453-0.147 0.893-0.253 1.333v0z"></path>
</svg>
