<!-- Generated by IcoMoon.io -->
<svg version="1.1" xmlns="http://www.w3.org/2000/svg" width="32" height="32" viewBox="0 0 32 32">
<title>mt-tap_and_play</title>
<path fill="#37352f" d="M2.667 21.333v2.667c3.68 0 6.667 2.987 6.667 6.667h2.667c0-5.16-4.173-9.333-9.333-9.333v0zM2.667 26.667v4h4c0-2.213-1.787-4-4-4v0zM2.667 16v2.667c6.627 0 12 5.373 12 12h2.667c0-8.107-6.56-14.667-14.667-14.667v0zM22.667 1.347l-13.333-0.013c-1.467 0-2.667 1.2-2.667 2.667v9.827c0.92 0.213 1.813 0.493 2.667 0.853v-8.013h13.333v17.333h-4.040c0.693 1.667 1.12 3.453 1.267 5.333h2.773c1.467 0 2.667-1.2 2.667-2.667v-22.667c0-1.467-1.2-2.653-2.667-2.653v0z"></path>
</svg>
