<!-- Generated by IcoMoon.io -->
<svg version="1.1" xmlns="http://www.w3.org/2000/svg" width="32" height="32" viewBox="0 0 32 32">
<title>mt-unarchive</title>
<path fill="#37352f" d="M27.4 6.96l-1.853-2.24c-0.373-0.44-0.92-0.72-1.547-0.72h-16c-0.627 0-1.173 0.28-1.533 0.733l-1.853 2.227c-0.387 0.467-0.613 1.053-0.613 1.707v16.667c0 1.467 1.187 2.667 2.667 2.667h18.667c1.467 0 2.667-1.2 2.667-2.667v-16.667c0-0.653-0.227-1.24-0.6-1.707v0zM16 12.667l7.333 7.333h-4.667v2.667h-5.333v-2.667h-4.667l7.333-7.333zM6.827 6.667l1.093-1.333h16l1.24 1.333h-18.333z"></path>
</svg>
