<!-- Generated by IcoMoon.io -->
<svg version="1.1" xmlns="http://www.w3.org/2000/svg" width="32" height="32" viewBox="0 0 32 32">
<title>mt-volume_off</title>
<path fill="#37352f" d="M22 16c0-2.36-1.36-4.387-3.333-5.373v2.947l3.267 3.267c0.040-0.267 0.067-0.547 0.067-0.84v0zM25.333 16c0 1.253-0.267 2.427-0.72 3.52l2.013 2.013c0.88-1.653 1.373-3.533 1.373-5.533 0-5.707-3.987-10.48-9.333-11.693v2.747c3.853 1.147 6.667 4.72 6.667 8.947v0zM5.693 4l-1.693 1.693 6.307 6.307h-6.307v8h5.333l6.667 6.667v-8.973l5.667 5.667c-0.893 0.693-1.893 1.24-3 1.573v2.747c1.84-0.413 3.507-1.267 4.92-2.413l2.72 2.733 1.693-1.693-22.307-22.307zM16 5.333l-2.787 2.787 2.787 2.787v-5.573z"></path>
</svg>
