<!-- Generated by IcoMoon.io -->
<svg version="1.1" xmlns="http://www.w3.org/2000/svg" width="32" height="32" viewBox="0 0 32 32">
<title>mt-view_week</title>
<path fill="#37352f" d="M8 6.667h-4c-0.733 0-1.333 0.6-1.333 1.333v16c0 0.733 0.6 1.333 1.333 1.333h4c0.733 0 1.333-0.6 1.333-1.333v-16c0-0.733-0.6-1.333-1.333-1.333v0zM26.667 6.667h-4c-0.733 0-1.333 0.6-1.333 1.333v16c0 0.733 0.6 1.333 1.333 1.333h4c0.733 0 1.333-0.6 1.333-1.333v-16c0-0.733-0.6-1.333-1.333-1.333v0zM17.333 6.667h-4c-0.733 0-1.333 0.6-1.333 1.333v16c0 0.733 0.6 1.333 1.333 1.333h4c0.733 0 1.333-0.6 1.333-1.333v-16c0-0.733-0.6-1.333-1.333-1.333v0z"></path>
</svg>
