<!-- Generated by IcoMoon.io -->
<svg version="1.1" xmlns="http://www.w3.org/2000/svg" width="32" height="32" viewBox="0 0 32 32">
<title>mt-wb_auto</title>
<path fill="#37352f" d="M9.133 16.867h3.067l-1.533-4.867-1.533 4.867zM29.333 9.333l-1.6 8.387-2-8.387h-2.133l-1.987 8.387-1.613-8.387h-1.013c-1.96-2.44-4.947-4-8.32-4-5.893 0-10.667 4.773-10.667 10.667s4.773 10.667 10.667 10.667c4.173 0 7.787-2.413 9.533-5.907l0.133 0.573h2.333l2-8.133 2 8.133h2.333l2.733-12h-2.4zM13.733 21.333l-0.933-2.667h-4.267l-0.933 2.667h-2.533l4.267-12h2.667l4.267 12h-2.533z"></path>
</svg>
