<!-- Generated by IcoMoon.io -->
<svg version="1.1" xmlns="http://www.w3.org/2000/svg" width="32" height="32" viewBox="0 0 32 32">
<title>ul-apps</title>
<path fill="#37352f" d="M13.333 17.333h-9.333c-0.736 0-1.333 0.597-1.333 1.333v0 9.333c0 0.736 0.597 1.333 1.333 1.333v0h9.333c0.736 0 1.333-0.597 1.333-1.333v0-9.333c0-0.736-0.597-1.333-1.333-1.333v0zM12 26.667h-6.667v-6.667h6.667zM28 2.667h-9.333c-0.736 0-1.333 0.597-1.333 1.333v0 9.333c0 0.736 0.597 1.333 1.333 1.333v0h9.333c0.736 0 1.333-0.597 1.333-1.333v0-9.333c0-0.736-0.597-1.333-1.333-1.333v0zM26.667 12h-6.667v-6.667h6.667zM28 17.333h-9.333c-0.736 0-1.333 0.597-1.333 1.333v0 9.333c0 0.736 0.597 1.333 1.333 1.333v0h9.333c0.736 0 1.333-0.597 1.333-1.333v0-9.333c0-0.736-0.597-1.333-1.333-1.333v0zM26.667 26.667h-6.667v-6.667h6.667zM13.333 2.667h-9.333c-0.736 0-1.333 0.597-1.333 1.333v0 9.333c0 0.736 0.597 1.333 1.333 1.333v0h9.333c0.736 0 1.333-0.597 1.333-1.333v0-9.333c0-0.736-0.597-1.333-1.333-1.333v0zM12 12h-6.667v-6.667h6.667z"></path>
</svg>
