<!-- Generated by IcoMoon.io -->
<svg version="1.1" xmlns="http://www.w3.org/2000/svg" width="32" height="32" viewBox="0 0 32 32">
<title>ul-align-left</title>
<path fill="#37352f" d="M4 9.333h24c0.736 0 1.333-0.597 1.333-1.333s-0.597-1.333-1.333-1.333v0h-24c-0.736 0-1.333 0.597-1.333 1.333s0.597 1.333 1.333 1.333v0zM4 14.667h18.667c0.736 0 1.333-0.597 1.333-1.333s-0.597-1.333-1.333-1.333v0h-18.667c-0.736 0-1.333 0.597-1.333 1.333s0.597 1.333 1.333 1.333v0zM28 17.333h-24c-0.736 0-1.333 0.597-1.333 1.333s0.597 1.333 1.333 1.333v0h24c0.736 0 1.333-0.597 1.333-1.333s-0.597-1.333-1.333-1.333v0zM22.667 22.667h-18.667c-0.736 0-1.333 0.597-1.333 1.333s0.597 1.333 1.333 1.333v0h18.667c0.736 0 1.333-0.597 1.333-1.333s-0.597-1.333-1.333-1.333v0z"></path>
</svg>
