<!-- Generated by IcoMoon.io -->
<svg version="1.1" xmlns="http://www.w3.org/2000/svg" width="32" height="32" viewBox="0 0 32 32">
<title>ul-angry</title>
<path fill="#37352f" d="M13.333 14.667c0.516-0.002 0.963-0.296 1.183-0.726l0.004-0.008c0.089-0.174 0.142-0.38 0.142-0.598 0-0.516-0.293-0.963-0.721-1.185l-0.007-0.004-2.667-1.333c-0.196-0.12-0.434-0.191-0.687-0.191-0.736 0-1.333 0.597-1.333 1.333 0 0.551 0.335 1.025 0.812 1.228l0.009 0.003 2.667 1.333c0.169 0.092 0.371 0.147 0.585 0.147 0.005 0 0.010-0 0.016-0h-0.001zM16 2.667c-7.364 0-13.333 5.97-13.333 13.333s5.97 13.333 13.333 13.333c7.364 0 13.333-5.97 13.333-13.333v0c0-7.364-5.97-13.333-13.333-13.333v0zM16 26.667c-5.891 0-10.667-4.776-10.667-10.667s4.776-10.667 10.667-10.667c5.891 0 10.667 4.776 10.667 10.667v0c0 5.891-4.776 10.667-10.667 10.667v0zM11.147 20.44c-0.292 0.246-0.476 0.612-0.476 1.021 0 0.322 0.114 0.617 0.304 0.848l-0.002-0.002c0.246 0.296 0.615 0.482 1.026 0.482 0.326 0 0.624-0.117 0.856-0.311l-0.002 0.002c0.852-0.692 1.951-1.11 3.147-1.11s2.294 0.419 3.156 1.118l-0.009-0.007c0.229 0.191 0.526 0.307 0.851 0.307 0.001 0 0.002 0 0.003 0h-0c0.731-0.007 1.32-0.602 1.32-1.333 0-0.405-0.18-0.767-0.465-1.012l-0.002-0.002c-1.316-1.064-3.009-1.709-4.853-1.709s-3.538 0.644-4.868 1.72l0.015-0.011zM20.733 10.813l-2.667 1.333c-0.436 0.225-0.729 0.673-0.729 1.188 0 0.218 0.052 0.424 0.145 0.606l-0.003-0.008c0.224 0.437 0.671 0.732 1.186 0.733h0c0.004 0 0.010 0 0.015 0 0.214 0 0.416-0.054 0.592-0.15l2.66-1.33c0.39-0.237 0.646-0.66 0.646-1.142 0-0.736-0.597-1.333-1.333-1.333-0.185 0-0.361 0.038-0.521 0.106l0.009-0.003z"></path>
</svg>
