<!-- Generated by IcoMoon.io -->
<svg version="1.1" xmlns="http://www.w3.org/2000/svg" width="32" height="32" viewBox="0 0 32 32">
<title>ul-annoyed</title>
<path fill="#37352f" d="M12 12c-0.736 0-1.333 0.597-1.333 1.333s0.597 1.333 1.333 1.333c0.736 0 1.333-0.597 1.333-1.333v0c0-0.736-0.597-1.333-1.333-1.333v0zM20 17.333c-0 0-0 0-0 0-2.492 0-4.665 1.368-5.809 3.393l-0.017 0.033c-0.109 0.189-0.174 0.416-0.174 0.658 0 0.491 0.266 0.92 0.661 1.152l0.006 0.003c0.188 0.108 0.413 0.173 0.653 0.173h0c0.495-0.001 0.927-0.272 1.157-0.673l0.003-0.007c0.695-1.241 2.002-2.067 3.502-2.067 0.006 0 0.013 0 0.019 0h-0.001c0.736 0 1.333-0.597 1.333-1.333s-0.597-1.333-1.333-1.333v0zM20 12c-0.736 0-1.333 0.597-1.333 1.333s0.597 1.333 1.333 1.333c0.736 0 1.333-0.597 1.333-1.333v0c0-0.736-0.597-1.333-1.333-1.333v0zM16 2.667c-7.364 0-13.333 5.97-13.333 13.333s5.97 13.333 13.333 13.333c7.364 0 13.333-5.97 13.333-13.333v0c0-7.364-5.97-13.333-13.333-13.333v0zM16 26.667c-5.891 0-10.667-4.776-10.667-10.667s4.776-10.667 10.667-10.667c5.891 0 10.667 4.776 10.667 10.667v0c0 5.891-4.776 10.667-10.667 10.667v0z"></path>
</svg>
