<!-- Generated by IcoMoon.io -->
<svg version="1.1" xmlns="http://www.w3.org/2000/svg" width="32" height="32" viewBox="0 0 32 32">
<title>ul-accessible-icon-alt</title>
<path fill="#37352f" d="M21.333 9.333c1.473 0 2.667-1.194 2.667-2.667s-1.194-2.667-2.667-2.667c-1.473 0-2.667 1.194-2.667 2.667v0c0 1.473 1.194 2.667 2.667 2.667v0zM16.933 24.533c-0.984 1.28-2.516 2.096-4.239 2.096-2.946 0-5.333-2.388-5.333-5.333 0-2.724 2.042-4.971 4.68-5.294l0.026-0.003c0.675-0.076 1.195-0.644 1.195-1.333 0-0.741-0.601-1.341-1.341-1.341-0.052 0-0.103 0.003-0.153 0.009l0.006-0.001c-4.229 0.243-7.566 3.732-7.566 8 0 4.425 3.587 8.012 8.012 8.012 0.157 0 0.313-0.005 0.468-0.013l-0.021 0.001c2.608 0 4.925-1.248 6.385-3.18l0.015-0.020c0.166-0.22 0.267-0.498 0.267-0.8 0-0.736-0.597-1.333-1.333-1.333-0.435 0-0.821 0.208-1.064 0.53l-0.002 0.003zM26 26.667h-1.333v-6.667c0-0.736-0.597-1.333-1.333-1.333v0h-6.093l2.253-6.213s0-0.093 0-0.147v-0.267c0.003-0.036 0.005-0.078 0.005-0.12s-0.002-0.084-0.005-0.125l0 0.005c0.004-0.038 0.006-0.082 0.006-0.127s-0.002-0.089-0.006-0.132l0 0.006c-0.040-0.089-0.080-0.163-0.125-0.234l0.005 0.008c-0.042-0.076-0.091-0.142-0.147-0.2l0 0c-0.057-0.067-0.123-0.125-0.197-0.171l-0.003-0.002s0-0.080-0.107-0.107l-5.973-3.44h-0.16c-0.072-0.031-0.156-0.059-0.244-0.078l-0.009-0.002h-0.533c-0.101 0.021-0.19 0.053-0.273 0.096l0.006-0.003h-0.147l-3.587 2.093c-0.407 0.234-0.676 0.665-0.676 1.16 0 0.73 0.587 1.323 1.315 1.333h0.001c0.010 0 0.023 0 0.035 0 0.242 0 0.469-0.065 0.665-0.177l-0.006 0.003 2.973-1.733 4.32 2.507-2.52 6.947c-0.003 0.032-0.005 0.069-0.005 0.107s0.002 0.075 0.005 0.111l-0-0.005c-0.006 0.036-0.009 0.078-0.009 0.12s0.003 0.084 0.010 0.124l-0.001-0.004c0.029 0.197 0.066 0.368 0.114 0.535l-0.007-0.028 0.147 0.2c0.038 0.082 0.088 0.153 0.147 0.213l-0-0c0.054 0.046 0.116 0.086 0.181 0.118l0.005 0.002c0.074 0.057 0.157 0.11 0.244 0.156l0.009 0.004c0.135 0.050 0.291 0.080 0.453 0.080h6.667v6.667c0 0.736 0.597 1.333 1.333 1.333v0h2.667c0.736 0 1.333-0.597 1.333-1.333s-0.597-1.333-1.333-1.333v0z"></path>
</svg>
