<!-- Generated by IcoMoon.io -->
<svg version="1.1" xmlns="http://www.w3.org/2000/svg" width="32" height="32" viewBox="0 0 32 32">
<title>ul-align-center-alt</title>
<path fill="#37352f" d="M6.667 10.667h18.667c0.736 0 1.333-0.597 1.333-1.333s-0.597-1.333-1.333-1.333v0h-18.667c-0.736 0-1.333 0.597-1.333 1.333s0.597 1.333 1.333 1.333v0zM28 14.667h-24c-0.736 0-1.333 0.597-1.333 1.333s0.597 1.333 1.333 1.333v0h24c0.736 0 1.333-0.597 1.333-1.333s-0.597-1.333-1.333-1.333v0zM25.333 21.333h-18.667c-0.736 0-1.333 0.597-1.333 1.333s0.597 1.333 1.333 1.333v0h18.667c0.736 0 1.333-0.597 1.333-1.333s-0.597-1.333-1.333-1.333v0z"></path>
</svg>
