<!-- Generated by IcoMoon.io -->
<svg version="1.1" xmlns="http://www.w3.org/2000/svg" width="32" height="32" viewBox="0 0 32 32">
<title>ul-basketball</title>
<path fill="#37352f" d="M16 2.667c-4.679 0.005-8.793 2.419-11.169 6.068l-0.031 0.052c-1.311 2.029-2.091 4.507-2.091 7.168 0 7.364 5.97 13.333 13.333 13.333 3.152 0 6.048-1.094 8.331-2.922l-0.026 0.020c3.043-2.464 4.973-6.2 4.973-10.387 0-7.359-5.962-13.326-13.319-13.333h-0.001zM18.667 5.68c3.757 0.996 6.658 3.896 7.637 7.579l0.017 0.074c-2.342 0.068-4.513 0.743-6.378 1.873l0.058-0.033c-0.96-1.086-2.008-2.054-3.146-2.908l-0.054-0.039c1.127-1.873 1.814-4.124 1.866-6.532l0-0.015zM16 5.333c-0.005 2.006-0.57 3.879-1.546 5.473l0.026-0.046c-0.2-0.107-0.387-0.227-0.587-0.32-1.573-0.849-3.396-1.526-5.318-1.936l-0.136-0.024c1.931-1.943 4.605-3.145 7.56-3.147h0zM6.667 10.88c2.235 0.317 4.253 0.992 6.086 1.968l-0.099-0.048 0.173 0.107c-1.913 1.911-4.555 3.093-7.473 3.093-0.007 0-0.014 0-0.021-0h0.001c0.008-1.88 0.501-3.644 1.361-5.174l-0.028 0.054zM13.333 26.32c-3.757-0.996-6.658-3.896-7.636-7.579l-0.017-0.074c3.74-0.086 7.083-1.714 9.431-4.27l0.009-0.010c0.99 0.736 1.862 1.524 2.654 2.386l0.012 0.014c-2.64 2.362-4.331 5.739-4.453 9.512l-0.001 0.021zM16 26.667c0.006-3.079 1.316-5.851 3.407-7.794l0.007-0.006c0.080 0.107 0.16 0.2 0.227 0.307 1.060 1.6 1.902 3.457 2.424 5.443l0.029 0.13c-1.692 1.201-3.8 1.92-6.076 1.92-0.006 0-0.012 0-0.018-0h0.001zM24.28 22.667c-0.635-1.907-1.448-3.561-2.45-5.080l0.050 0.080-0.28-0.333c1.46-0.827 3.204-1.32 5.063-1.333l0.004-0c-0.014 2.538-0.912 4.863-2.402 6.686l0.015-0.019z"></path>
</svg>
