<!-- Generated by IcoMoon.io -->
<svg version="1.1" xmlns="http://www.w3.org/2000/svg" width="32" height="32" viewBox="0 0 32 32">
<title>ul-bitcoin-alt</title>
<path fill="#37352f" d="M21.739 14.988c0.574-0.838 0.917-1.873 0.917-2.988 0-2.944-2.387-5.33-5.33-5.33-0.001 0-0.002 0-0.003 0h0v-1.333c0-0.736-0.597-1.333-1.333-1.333s-1.333 0.597-1.333 1.333v0 1.333h-2.667v-1.333c0-0.736-0.597-1.333-1.333-1.333s-1.333 0.597-1.333 1.333v0 1.333h-1.333c-0.736 0-1.333 0.597-1.333 1.333s0.597 1.333 1.333 1.333v0h1.333v13.333h-1.333c-0.736 0-1.333 0.597-1.333 1.333s0.597 1.333 1.333 1.333v0h1.333v1.333c0 0.736 0.597 1.333 1.333 1.333s1.333-0.597 1.333-1.333v0-1.333h2.667v1.333c0 0.736 0.597 1.333 1.333 1.333s1.333-0.597 1.333-1.333v0-1.333h2.667c0.004 0 0.009 0 0.014 0 2.938 0 5.32-2.382 5.32-5.32 0-2.316-1.48-4.286-3.546-5.017l-0.037-0.011zM11.989 9.336h5.333c1.473 0 2.667 1.194 2.667 2.667s-1.194 2.667-2.667 2.667h-5.333zM19.989 22.669h-8v-5.333h8c1.473 0 2.667 1.194 2.667 2.667s-1.194 2.667-2.667 2.667v0z"></path>
</svg>
