<!-- Generated by IcoMoon.io -->
<svg version="1.1" xmlns="http://www.w3.org/2000/svg" width="32" height="32" viewBox="0 0 32 32">
<title>ul-briefcase-alt</title>
<path fill="#37352f" d="M25.333 8.667h-4v-1.333c0-2.209-1.791-4-4-4v0h-2.667c-2.209 0-4 1.791-4 4v0 1.333h-4c-2.209 0-4 1.791-4 4v0 12c0 2.209 1.791 4 4 4v0h18.667c2.209 0 4-1.791 4-4v0-12c0-2.209-1.791-4-4-4v0zM13.333 7.333c0-0.736 0.597-1.333 1.333-1.333v0h2.667c0.736 0 1.333 0.597 1.333 1.333v0 1.333h-5.333zM26.667 24.667c0 0.736-0.597 1.333-1.333 1.333v0h-18.667c-0.736 0-1.333-0.597-1.333-1.333v0-7.333c1.098 0.454 2.433 0.884 3.807 1.214l0.193 0.039v0.787c0 0.736 0.597 1.333 1.333 1.333s1.333-0.597 1.333-1.333v0-0.28c1.196 0.172 2.583 0.273 3.993 0.28l0.007 0c1.417-0.007 2.804-0.108 4.162-0.299l-0.162 0.019v0.28c0 0.736 0.597 1.333 1.333 1.333s1.333-0.597 1.333-1.333v0-0.787c1.567-0.369 2.902-0.799 4.19-1.321l-0.19 0.068zM26.667 14.413c-1.105 0.484-2.437 0.941-3.812 1.292l-0.188 0.041v-0.413c0-0.736-0.597-1.333-1.333-1.333s-1.333 0.597-1.333 1.333v0 0.987c-1.202 0.191-2.588 0.3-4 0.3s-2.798-0.109-4.151-0.319l0.151 0.019v-0.987c0-0.736-0.597-1.333-1.333-1.333s-1.333 0.597-1.333 1.333v0 0.44c-1.563-0.393-2.895-0.849-4.177-1.401l0.177 0.068v-1.773c0-0.736 0.597-1.333 1.333-1.333v0h18.667c0.736 0 1.333 0.597 1.333 1.333v0z"></path>
</svg>
