<!-- Generated by IcoMoon.io -->
<svg version="1.1" xmlns="http://www.w3.org/2000/svg" width="32" height="32" viewBox="0 0 32 32">
<title>ul-bell-school</title>
<path fill="#37352f" d="M28 10.667c-0.014-1.462-1.202-2.642-2.667-2.642-1.473 0-2.667 1.194-2.667 2.667 0 1.346 0.997 2.459 2.292 2.641l0.014 0.002c0.227 0.607 0.358 1.308 0.358 2.039 0 2.726-1.823 5.027-4.316 5.75l-0.042 0.011c-0.361-0.818-0.962-1.475-1.713-1.896l-0.020-0.010c1.287-1.587 2.067-3.631 2.067-5.857 0-5.155-4.179-9.333-9.333-9.333s-9.333 4.179-9.333 9.333c0 2.226 0.779 4.27 2.080 5.875l-0.014-0.017c-1.213 0.691-2.022 1.969-2.040 3.438l-0 0.003v1.333c0 2.209 1.791 4 4 4v0h10.667c2.209 0 4-1.791 4-4v0-0.253c3.848-0.921 6.665-4.332 6.665-8.401 0-1.097-0.205-2.146-0.578-3.112l0.020 0.059c0.348-0.444 0.558-1.011 0.56-1.626v-0zM18.667 24c0 0.736-0.597 1.333-1.333 1.333v0h-10.667c-0.736 0-1.333-0.597-1.333-1.333v0-1.333c0-0.736 0.597-1.333 1.333-1.333v0h0.547c1.365 0.838 3.018 1.334 4.787 1.334s3.422-0.496 4.827-1.357l-0.040 0.023h0.547c0.736 0 1.333 0.597 1.333 1.333v0zM12 20c-3.682 0-6.667-2.985-6.667-6.667s2.985-6.667 6.667-6.667c3.682 0 6.667 2.985 6.667 6.667v0c0 3.682-2.985 6.667-6.667 6.667v0zM12 12c-0.736 0-1.333 0.597-1.333 1.333s0.597 1.333 1.333 1.333c0.736 0 1.333-0.597 1.333-1.333v0c0-0.736-0.597-1.333-1.333-1.333v0z"></path>
</svg>
