<!-- Generated by IcoMoon.io -->
<svg version="1.1" xmlns="http://www.w3.org/2000/svg" width="32" height="32" viewBox="0 0 32 32">
<title>ul-corner-up-left</title>
<path fill="#37352f" d="M19.587 8.84h-9.333l3.893-3.893c0.244-0.242 0.394-0.577 0.394-0.947s-0.151-0.705-0.394-0.947l-0-0c-0.241-0.24-0.573-0.388-0.94-0.388s-0.699 0.148-0.94 0.388l0-0-6.12 6.173c-0.123 0.122-0.222 0.269-0.29 0.431l-0.003 0.009c-0.063 0.15-0.1 0.324-0.1 0.507s0.037 0.357 0.103 0.515l-0.003-0.009c0.077 0.169 0.175 0.315 0.294 0.441l-0.001-0.001 6.173 6.213c0.238 0.243 0.567 0.395 0.932 0.4h0.001c0.002 0 0.005 0 0.008 0 0.736 0 1.333-0.597 1.333-1.333 0-0.37-0.151-0.705-0.394-0.947l-0-0-3.893-3.947h9.333c2.209 0 4 1.791 4 4v0 12.493c0 0.736 0.597 1.333 1.333 1.333s1.333-0.597 1.333-1.333v0-12.493c0-0 0-0 0-0 0-3.682-2.985-6.667-6.667-6.667-0.019 0-0.038 0-0.056 0l0.003-0z"></path>
</svg>
