<!-- Generated by IcoMoon.io -->
<svg version="1.1" xmlns="http://www.w3.org/2000/svg" width="32" height="32" viewBox="0 0 32 32">
<title>ul-credit-card</title>
<path fill="#37352f" d="M9.333 20h4c0.736 0 1.333-0.597 1.333-1.333s-0.597-1.333-1.333-1.333v0h-4c-0.736 0-1.333 0.597-1.333 1.333s0.597 1.333 1.333 1.333v0zM25.333 6.667h-18.667c-2.209 0-4 1.791-4 4v0 12c0 2.209 1.791 4 4 4v0h18.667c2.209 0 4-1.791 4-4v0-12c0-2.209-1.791-4-4-4v0zM26.667 22.667c0 0.736-0.597 1.333-1.333 1.333v0h-18.667c-0.736 0-1.333-0.597-1.333-1.333v0-8h21.333zM26.667 12h-21.333v-1.333c0-0.736 0.597-1.333 1.333-1.333v0h18.667c0.736 0 1.333 0.597 1.333 1.333v0z"></path>
</svg>
