<!-- Generated by IcoMoon.io -->
<svg version="1.1" xmlns="http://www.w3.org/2000/svg" width="32" height="32" viewBox="0 0 32 32">
<title>ul-comment-message</title>
<path fill="#37352f" d="M16 2.667c-7.364 0-13.333 5.97-13.333 13.333v0c-0 0.015-0 0.032-0 0.050 0 3.197 1.138 6.129 3.031 8.412l-0.018-0.022-2.667 2.667c-0.238 0.241-0.384 0.571-0.384 0.936 0 0.187 0.038 0.364 0.108 0.526l-0.003-0.009c0.217 0.461 0.677 0.774 1.211 0.774 0.020 0 0.039-0 0.059-0.001l-0.003 0h12c7.364 0 13.333-5.97 13.333-13.333s-5.97-13.333-13.333-13.333v0zM16 26.667h-8.787l1.24-1.24c0.24-0.241 0.388-0.573 0.388-0.94s-0.148-0.699-0.388-0.94l0 0c-1.933-1.931-3.128-4.599-3.128-7.547 0-5.891 4.776-10.667 10.667-10.667s10.667 4.776 10.667 10.667c0 5.888-4.771 10.662-10.658 10.667h-0zM22.667 14.667h-13.333c-0.736 0-1.333 0.597-1.333 1.333s0.597 1.333 1.333 1.333v0h13.333c0.736 0 1.333-0.597 1.333-1.333s-0.597-1.333-1.333-1.333v0zM20 20h-8c-0.736 0-1.333 0.597-1.333 1.333s0.597 1.333 1.333 1.333v0h8c0.736 0 1.333-0.597 1.333-1.333s-0.597-1.333-1.333-1.333v0zM12 12h8c0.736 0 1.333-0.597 1.333-1.333s-0.597-1.333-1.333-1.333v0h-8c-0.736 0-1.333 0.597-1.333 1.333s0.597 1.333 1.333 1.333v0z"></path>
</svg>
