<!-- Generated by IcoMoon.io -->
<svg version="1.1" xmlns="http://www.w3.org/2000/svg" width="32" height="32" viewBox="0 0 32 32">
<title>ul-code-branch</title>
<path fill="#37352f" d="M22.667 8.080c-2.208 0.002-3.997 1.792-3.997 4 0 1.655 1.005 3.075 2.438 3.683l0.026 0.010c-0.413 0.971-1.359 1.64-2.461 1.64-0.002 0-0.004 0-0.006 0h-5.333c-0.986 0.004-1.906 0.281-2.69 0.76l0.023-0.013v-7.653c1.567-0.566 2.667-2.040 2.667-3.771 0-2.209-1.791-4-4-4s-4 1.791-4 4c0 1.731 1.1 3.206 2.639 3.762l0.028 0.009v11.147c-1.556 0.571-2.646 2.040-2.646 3.764 0 2.209 1.791 4 4 4s4-1.791 4-4c0-1.659-1.009-3.081-2.447-3.688l-0.026-0.010c0.412-0.969 1.354-1.637 2.453-1.64h5.334c2.548-0.001 4.679-1.788 5.207-4.178l0.007-0.035c1.591-0.552 2.713-2.039 2.713-3.787 0-2.183-1.749-3.958-3.923-3.999l-0.004-0zM9.333 5.413c0.736 0 1.333 0.597 1.333 1.333s-0.597 1.333-1.333 1.333c-0.736 0-1.333-0.597-1.333-1.333v0c0-0.736 0.597-1.333 1.333-1.333v0zM9.333 26.747c-0.736 0-1.333-0.597-1.333-1.333s0.597-1.333 1.333-1.333c0.736 0 1.333 0.597 1.333 1.333v0c0 0.736-0.597 1.333-1.333 1.333v0zM22.667 13.413c-0.736 0-1.333-0.597-1.333-1.333s0.597-1.333 1.333-1.333c0.736 0 1.333 0.597 1.333 1.333v0c0 0.736-0.597 1.333-1.333 1.333v0z"></path>
</svg>
