<!-- Generated by IcoMoon.io -->
<svg version="1.1" xmlns="http://www.w3.org/2000/svg" width="32" height="32" viewBox="0 0 32 32">
<title>ul-document-info</title>
<path fill="#37352f" d="M16 18.667c-0.736 0-1.333 0.597-1.333 1.333v0 2.667c0 0.736 0.597 1.333 1.333 1.333s1.333-0.597 1.333-1.333v0-2.667c0-0.736-0.597-1.333-1.333-1.333v0zM16.507 14.773c-0.164-0.078-0.357-0.124-0.561-0.124-0.075 0-0.149 0.006-0.22 0.018l0.008-0.001-0.24 0.080-0.24 0.12-0.2 0.16c-0.239 0.241-0.387 0.573-0.387 0.939 0 0.012 0 0.024 0 0.036l-0-0.002c0 0.002-0 0.005-0 0.008 0 0.366 0.148 0.698 0.387 0.939l-0-0c0.123 0.118 0.269 0.213 0.431 0.277l0.009 0.003c0.14 0.068 0.304 0.107 0.478 0.107 0.010 0 0.020-0 0.030-0l-0.002 0c0.002 0 0.005 0 0.008 0 0.366 0 0.698-0.148 0.939-0.387l-0 0c0.239-0.241 0.387-0.573 0.387-0.939 0-0.003 0-0.005-0-0.008v0c0-0.002 0-0.005 0-0.008 0-0.366-0.148-0.698-0.387-0.939l0 0c-0.125-0.114-0.271-0.208-0.43-0.276l-0.010-0.004zM26.667 11.92c-0.015-0.134-0.044-0.256-0.084-0.372l0.004 0.012v-0.12c-0.068-0.143-0.153-0.267-0.254-0.374l0.001 0.001-8-8c-0.107-0.101-0.23-0.185-0.365-0.25l-0.009-0.004h-0.133c-0.119-0.065-0.258-0.116-0.404-0.145l-0.009-0.002h-8.080c-2.209 0-4 1.791-4 4v0 18.667c0 2.209 1.791 4 4 4v0h13.333c2.209 0 4-1.791 4-4v0-13.333s0 0 0-0.080zM18.667 7.213l3.453 3.453h-2.12c-0.736 0-1.333-0.597-1.333-1.333v0zM24 25.333c0 0.736-0.597 1.333-1.333 1.333v0h-13.333c-0.736 0-1.333-0.597-1.333-1.333v0-18.667c0-0.736 0.597-1.333 1.333-1.333v0h6.667v4c0 2.209 1.791 4 4 4v0h4z"></path>
</svg>
