<!-- Generated by IcoMoon.io -->
<svg version="1.1" xmlns="http://www.w3.org/2000/svg" width="32" height="32" viewBox="0 0 32 32">
<title>ul-envelope-download</title>
<path fill="#37352f" d="M27.333 18.667c-0.736 0-1.333 0.597-1.333 1.333v0 5.333c0 0.736-0.597 1.333-1.333 1.333v0h-18.667c-0.736 0-1.333-0.597-1.333-1.333v0-12.787l7.84 7.853c0.724 0.723 1.723 1.17 2.827 1.17s2.103-0.447 2.827-1.17l2.187-2.187c0.242-0.242 0.392-0.577 0.392-0.947 0-0.739-0.599-1.339-1.339-1.339-0.37 0-0.704 0.15-0.947 0.392l-2.187 2.187c-0.24 0.236-0.57 0.381-0.933 0.381s-0.693-0.145-0.934-0.381l0 0-7.853-7.84h8.787c0.736 0 1.333-0.597 1.333-1.333s-0.597-1.333-1.333-1.333v0h-9.333c-2.209 0-4 1.791-4 4v0 13.333c0 2.209 1.791 4 4 4v0h18.667c2.209 0 4-1.791 4-4v0-5.333c0-0.736-0.597-1.333-1.333-1.333v0zM29.613 9.72c-0.242-0.244-0.577-0.394-0.947-0.394s-0.705 0.151-0.947 0.394l-0 0-1.72 1.733v-7.453c0-0.736-0.597-1.333-1.333-1.333s-1.333 0.597-1.333 1.333v0 7.453l-1.72-1.733c-0.242-0.242-0.577-0.392-0.947-0.392-0.739 0-1.339 0.599-1.339 1.339 0 0.37 0.15 0.704 0.392 0.947l4 4c0.123 0.118 0.269 0.213 0.431 0.277l0.009 0.003c0.149 0.068 0.323 0.107 0.507 0.107s0.358-0.039 0.515-0.11l-0.008 0.003c0.171-0.067 0.317-0.162 0.44-0.28l-0 0 4-4c0.244-0.242 0.394-0.577 0.394-0.947s-0.151-0.705-0.394-0.947l-0-0z"></path>
</svg>
