<!-- Generated by IcoMoon.io -->
<svg version="1.1" xmlns="http://www.w3.org/2000/svg" width="32" height="32" viewBox="0 0 32 32">
<title>ul-envelope-star</title>
<path fill="#37352f" d="M18.187 12.987l-0.387 2.307c-0.018 0.102-0.028 0.219-0.028 0.338 0 0.703 0.351 1.324 0.888 1.698l0.007 0.004c0.317 0.233 0.715 0.373 1.146 0.373 0.353 0 0.684-0.094 0.97-0.258l-0.009 0.005 1.893-1.080 1.92 1.053c0.277 0.161 0.611 0.257 0.966 0.257 0.417 0 0.803-0.131 1.12-0.354l-0.006 0.004c0.527-0.379 0.867-0.991 0.867-1.683 0-0.117-0.010-0.231-0.028-0.343l0.002 0.012-0.387-2.307 1.6-1.627c0.365-0.37 0.59-0.879 0.59-1.44 0-1.017-0.74-1.862-1.711-2.025l-0.012-0.002-2.16-0.32-0.973-2.067c-0.326-0.689-1.015-1.156-1.813-1.156s-1.487 0.468-1.808 1.144l-0.005 0.012-0.973 2.067-2.16 0.32c-0.983 0.165-1.723 1.009-1.723 2.027 0 0.561 0.225 1.070 0.59 1.44l-0-0zM20.627 10.147c0.676-0.105 1.233-0.535 1.515-1.121l0.005-0.012 0.52-1.107 0.52 1.107c0.291 0.598 0.845 1.029 1.508 1.145l0.012 0.002 1.333 0.187-0.973 0.987c-0.363 0.376-0.587 0.889-0.587 1.453 0 0.118 0.010 0.233 0.028 0.346l-0.002-0.012 0.213 1.333-1.053-0.573c-0.277-0.157-0.608-0.249-0.96-0.249s-0.683 0.092-0.97 0.254l0.010-0.005-1.053 0.573 0.213-1.333c0.018-0.101 0.028-0.217 0.028-0.335 0-0.56-0.224-1.068-0.588-1.438l0 0-0.973-1zM28 20.347c-0.736 0-1.333 0.597-1.333 1.333v0 4c0 0.736-0.597 1.333-1.333 1.333v0h-18.667c-0.736 0-1.333-0.597-1.333-1.333v0-12.787l7.84 7.84c0.712 0.724 1.702 1.173 2.797 1.173 0.001 0 0.002 0 0.003 0h0.36c0.685-0.061 1.218-0.633 1.218-1.328 0-0.039-0.002-0.078-0.005-0.117l0 0.005c-0.061-0.686-0.632-1.219-1.328-1.219-0.044 0-0.087 0.002-0.13 0.006l0.005-0c-0.038 0.004-0.083 0.007-0.128 0.007-0.352 0-0.671-0.145-0.899-0.38l-0-0-7.853-7.867h4.787c0.736 0 1.333-0.597 1.333-1.333s-0.597-1.333-1.333-1.333v0h-5.333c-2.209 0-4 1.791-4 4v0 13.333c0 2.209 1.791 4 4 4v0h18.667c2.209 0 4-1.791 4-4v0-4c0-0.736-0.597-1.333-1.333-1.333v0z"></path>
</svg>
