<!-- Generated by IcoMoon.io -->
<svg version="1.1" xmlns="http://www.w3.org/2000/svg" width="32" height="32" viewBox="0 0 32 32">
<title>ul-file-exclamation-alt</title>
<path fill="#37352f" d="M12 13.333h1.333c0.736 0 1.333-0.597 1.333-1.333s-0.597-1.333-1.333-1.333v0h-1.333c-0.736 0-1.333 0.597-1.333 1.333s0.597 1.333 1.333 1.333v0zM20 16h-8c-0.736 0-1.333 0.597-1.333 1.333s0.597 1.333 1.333 1.333v0h8c0.736 0 1.333-0.597 1.333-1.333s-0.597-1.333-1.333-1.333v0zM20 21.333h-8c-0.736 0-1.333 0.597-1.333 1.333s0.597 1.333 1.333 1.333v0h8c0.736 0 1.333-0.597 1.333-1.333s-0.597-1.333-1.333-1.333v0zM26.28 27.053c-0.060-0.055-0.125-0.107-0.194-0.156l-0.006-0.004c-0.069-0.048-0.148-0.088-0.233-0.118l-0.007-0.002-0.24-0.107c-0.077-0.016-0.165-0.025-0.255-0.025-0.187 0-0.365 0.038-0.527 0.108l0.009-0.003c-0.336 0.124-0.596 0.384-0.717 0.712l-0.003 0.008c-0.068 0.14-0.108 0.305-0.108 0.48 0 0.019 0 0.038 0.001 0.056l-0-0.003c-0 0.005-0 0.010-0 0.016 0 0.736 0.597 1.333 1.333 1.333s1.333-0.597 1.333-1.333c0-0.189-0.039-0.368-0.11-0.531l0.003 0.009c-0.072-0.169-0.166-0.315-0.281-0.441l0.001 0.001zM26.667 11.92c-0.015-0.134-0.044-0.256-0.084-0.372l0.004 0.012v-0.12c-0.068-0.143-0.153-0.267-0.254-0.374l0.001 0.001-8-8c-0.107-0.101-0.23-0.185-0.365-0.25l-0.009-0.004c-0.018-0.003-0.039-0.004-0.060-0.004s-0.042 0.002-0.062 0.005l0.002-0c-0.127-0.074-0.276-0.126-0.434-0.146l-0.006-0.001h-8.067c-2.209 0-4 1.791-4 4v0 18.667c0 2.209 1.791 4 4 4v0h10.667c0.736 0 1.333-0.597 1.333-1.333s-0.597-1.333-1.333-1.333v0h-10.667c-0.736 0-1.333-0.597-1.333-1.333v0-18.667c0-0.736 0.597-1.333 1.333-1.333v0h6.667v4c0 2.209 1.791 4 4 4v0h4v2.667c0 0.736 0.597 1.333 1.333 1.333s1.333-0.597 1.333-1.333v0-4s0 0 0-0.080zM20 10.667c-0.736 0-1.333-0.597-1.333-1.333v0-2.12l3.453 3.453zM25.333 20c-0.736 0-1.333 0.597-1.333 1.333v0 2.667c0 0.736 0.597 1.333 1.333 1.333s1.333-0.597 1.333-1.333v0-2.667c0-0.736-0.597-1.333-1.333-1.333v0z"></path>
</svg>
