<!-- Generated by IcoMoon.io -->
<svg version="1.1" xmlns="http://www.w3.org/2000/svg" width="32" height="32" viewBox="0 0 32 32">
<title>ul-football-american</title>
<path fill="#37352f" d="M29.12 7.413c-0.189-1.181-0.734-2.211-1.52-3l0 0c-0.789-0.786-1.819-1.331-2.969-1.516l-0.031-0.004c-0.817-0.13-1.758-0.204-2.717-0.204-1.539 0-3.034 0.191-4.462 0.551l0.126-0.027c-0.102 0.021-0.192 0.049-0.277 0.084l0.010-0.004c-3.511 0.904-6.529 2.672-8.92 5.066l-0 0c-2.404 2.408-4.181 5.443-5.064 8.838l-0.030 0.135c0 0.080 0 0.16-0.067 0.253-0.333 1.304-0.524 2.802-0.524 4.344 0 0.961 0.074 1.904 0.217 2.825l-0.013-0.102c0.203 1.156 0.746 2.161 1.52 2.933l0 0c0.789 0.786 1.819 1.331 2.969 1.516l0.031 0.004c0.833 0.142 1.793 0.225 2.772 0.227h0.002c1.548-0.009 3.044-0.208 4.474-0.574l-0.127 0.028h0.187c6.898-1.788 12.225-7.107 13.997-13.865l0.030-0.135c0-0.080 0-0.16 0.067-0.253 0.336-1.31 0.529-2.815 0.529-4.364 0-0.973-0.076-1.927-0.222-2.859l0.013 0.103zM21.827 5.333c0.022-0 0.048-0 0.073-0 0.803 0 1.59 0.068 2.355 0.198l-0.082-0.012c0.125 0.027 0.232 0.059 0.335 0.098l-0.015-0.005-1.827 1.84-2.053-2.053c0.4-0.067 0.813-0.067 1.213-0.067zM10.227 10.227c1.951-1.941 4.373-3.411 7.080-4.222l0.12-0.031 3.36 3.36-2.867 2.867-0.973-0.973c-0.242-0.244-0.577-0.394-0.947-0.394s-0.705 0.151-0.947 0.394l-0 0c-0.24 0.241-0.388 0.573-0.388 0.94s0.148 0.699 0.388 0.94l0.973 0.973-1.947 1.92-0.973-0.973c-0.241-0.24-0.573-0.388-0.94-0.388s-0.699 0.148-0.94 0.388l0-0c-0.244 0.242-0.394 0.577-0.394 0.947s0.151 0.705 0.394 0.947l0.973 0.973-2.867 2.893-3.347-3.347c0.834-2.832 2.3-5.259 4.241-7.214l-0.001 0.001zM5.613 24.493c-0.034-0.088-0.067-0.195-0.091-0.305l-0.003-0.015c-0.139-0.772-0.219-1.661-0.219-2.569 0-0.349 0.012-0.695 0.035-1.037l-0.003 0.046 2.12 2.053zM7.827 26.48c-0.125-0.027-0.232-0.059-0.335-0.099l0.015 0.005 1.827-1.84 2.053 2.12c-0.296 0.021-0.642 0.032-0.991 0.032-0.908 0-1.797-0.080-2.66-0.232l0.091 0.013zM21.773 21.773c-1.954 1.94-4.382 3.406-7.094 4.21l-0.12 0.030-3.347-3.347 2.867-2.867 0.973 0.973c0.242 0.243 0.577 0.394 0.947 0.394 0.737 0 1.334-0.597 1.334-1.334 0-0.367-0.148-0.699-0.387-0.94l0 0-0.947-0.973 1.92-1.92 0.973 0.973c0.241 0.239 0.573 0.387 0.939 0.387 0.003 0 0.005 0 0.008-0h-0c0.734-0.003 1.328-0.599 1.328-1.333 0-0.37-0.151-0.705-0.394-0.947l-0.973-0.973 2.867-2.893 3.347 3.347c-0.834 2.832-2.3 5.259-4.241 7.214l0.001-0.001zM26.667 11.387l-2.12-2.053 1.84-1.827c0.034 0.088 0.067 0.195 0.091 0.305l0.003 0.015c0.139 0.772 0.219 1.661 0.219 2.569 0 0.349-0.012 0.695-0.035 1.037l0.003-0.046z"></path>
</svg>
