<!-- Generated by IcoMoon.io -->
<svg version="1.1" xmlns="http://www.w3.org/2000/svg" width="32" height="32" viewBox="0 0 32 32">
<title>ul-file-network</title>
<path fill="#37352f" d="M28 25.333h-8.24c-0.412-1.135-1.291-2.014-2.399-2.418l-0.028-0.009v-2.907h4c2.209 0 4-1.791 4-4v0-5.333s0 0 0-0.080c-0.015-0.134-0.044-0.256-0.084-0.372l0.004 0.012v-0.12c-0.068-0.143-0.153-0.267-0.254-0.374l0.001 0.001-8-8c-0.107-0.101-0.23-0.185-0.365-0.25l-0.009-0.004c-0.018-0.003-0.039-0.004-0.060-0.004s-0.042 0.002-0.062 0.005l0.002-0c-0.127-0.074-0.276-0.126-0.434-0.146l-0.006-0.001h-5.4c-2.209 0-4 1.791-4 4v0 10.667c0 2.209 1.791 4 4 4v0h4v2.907c-1.135 0.412-2.014 1.291-2.418 2.399l-0.009 0.028h-8.24c-0.736 0-1.333 0.597-1.333 1.333s0.597 1.333 1.333 1.333v0h8.24c0.574 1.55 2.040 2.635 3.76 2.635s3.186-1.085 3.751-2.608l0.009-0.028h8.24c0.736 0 1.333-0.597 1.333-1.333s-0.597-1.333-1.333-1.333v0zM17.333 5.88l3.453 3.453h-2.12c-0.736 0-1.333-0.597-1.333-1.333v0zM10.667 17.333c-0.736 0-1.333-0.597-1.333-1.333v0-10.667c0-0.736 0.597-1.333 1.333-1.333v0h4v4c0 2.209 1.791 4 4 4v0h4v4c0 0.736-0.597 1.333-1.333 1.333v0zM16 28c-0.736 0-1.333-0.597-1.333-1.333s0.597-1.333 1.333-1.333c0.736 0 1.333 0.597 1.333 1.333v0c0 0.736-0.597 1.333-1.333 1.333v0z"></path>
</svg>
