<!-- Generated by IcoMoon.io -->
<svg version="1.1" xmlns="http://www.w3.org/2000/svg" width="32" height="32" viewBox="0 0 32 32">
<title>ul-game-structure</title>
<path fill="#37352f" d="M28 24h-2.667v-4c0-0.736-0.597-1.333-1.333-1.333v0h-6.667v-3.613l1.507 0.787c0.179 0.096 0.392 0.152 0.618 0.152 0.736 0 1.333-0.597 1.333-1.333 0-0.077-0.007-0.153-0.019-0.226l0.001 0.008-0.533-3.16 2.293-2.253c0.248-0.242 0.402-0.58 0.402-0.954 0-0.135-0.020-0.266-0.058-0.389l0.002 0.009c-0.16-0.479-0.571-0.832-1.073-0.906l-0.007-0.001-3.133-0.493-1.467-2.88c-0.221-0.449-0.675-0.752-1.2-0.752s-0.979 0.303-1.197 0.744l-0.003 0.008-1.467 2.88-3.187 0.467c-0.509 0.074-0.92 0.428-1.077 0.897l-0.003 0.009c-0.035 0.114-0.055 0.244-0.055 0.379 0 0.374 0.154 0.712 0.402 0.954l0 0 2.347 2.28-0.533 3.16c-0.011 0.066-0.018 0.141-0.018 0.219 0 0.736 0.597 1.333 1.333 1.333 0.226 0 0.439-0.056 0.625-0.155l-0.007 0.004 1.507-0.787v3.613h-6.667c-0.736 0-1.333 0.597-1.333 1.333v0 4h-2.667c-0.736 0-1.333 0.597-1.333 1.333v0 2.667c0 0.736 0.597 1.333 1.333 1.333s1.333-0.597 1.333-1.333v0-1.333h5.333v1.333c0 0.736 0.597 1.333 1.333 1.333s1.333-0.597 1.333-1.333v0-2.667c0-0.736-0.597-1.333-1.333-1.333v0h-2.667v-2.667h13.333v2.667h-2.667c-0.736 0-1.333 0.597-1.333 1.333v0 2.667c0 0.736 0.597 1.333 1.333 1.333s1.333-0.597 1.333-1.333v0-1.333h5.333v1.333c0 0.736 0.597 1.333 1.333 1.333s1.333-0.597 1.333-1.333v0-2.667c0-0.736-0.597-1.333-1.333-1.333v0zM16 11.507c-0.23 0.001-0.445 0.060-0.634 0.163l0.007-0.003-1.067 0.56 0.2-1.2c0.011-0.065 0.018-0.14 0.018-0.217 0-0.375-0.155-0.714-0.404-0.956l-0-0-0.867-0.853 1.2-0.173c0.445-0.061 0.815-0.334 1.010-0.713l0.004-0.008 0.533-1.093 0.533 1.093c0.198 0.386 0.568 0.659 1.006 0.719l0.007 0.001 1.2 0.173-0.867 0.853c-0.25 0.243-0.404 0.581-0.404 0.957 0 0.077 0.006 0.152 0.019 0.225l-0.001-0.008 0.2 1.2-1.067-0.56c-0.181-0.1-0.397-0.159-0.626-0.16h-0z"></path>
</svg>
