<!-- Generated by IcoMoon.io -->
<svg version="1.1" xmlns="http://www.w3.org/2000/svg" width="32" height="32" viewBox="0 0 32 32">
<title>ul-glass-martini-alt</title>
<path fill="#37352f" d="M29.040 4.827c0.18-0.225 0.289-0.514 0.289-0.829 0-0.208-0.047-0.404-0.132-0.579l0.003 0.008c-0.219-0.452-0.673-0.758-1.2-0.76h-24c-0.527 0.002-0.981 0.308-1.197 0.752l-0.003 0.008c-0.081 0.167-0.129 0.364-0.129 0.571 0 0.314 0.109 0.603 0.291 0.831l-0.002-0.003 11.707 14.64v7.2h-7.667c-0.736 0-1.333 0.597-1.333 1.333s0.597 1.333 1.333 1.333v0h18c0.736 0 1.333-0.597 1.333-1.333s-0.597-1.333-1.333-1.333v0h-7.667v-7.2zM6.773 5.333h18.453l-3.2 4h-12zM16 16.867l-3.893-4.867h7.787z"></path>
</svg>
