<!-- Generated by IcoMoon.io -->
<svg version="1.1" xmlns="http://www.w3.org/2000/svg" width="32" height="32" viewBox="0 0 32 32">
<title>ul-home</title>
<path fill="#37352f" d="M28.88 13.667l-12-10.667c-0.234-0.206-0.542-0.332-0.88-0.332s-0.646 0.126-0.881 0.333l0.001-0.001-12 10.667c-0.277 0.245-0.45 0.602-0.45 0.999 0 0.173 0.033 0.339 0.093 0.49l-0.003-0.009c0.198 0.502 0.678 0.852 1.24 0.853h1.334v12c0 0.736 0.597 1.333 1.333 1.333v0h18.667c0.736 0 1.333-0.597 1.333-1.333v0-12h1.333c0.562-0.002 1.042-0.351 1.237-0.844l0.003-0.009c0.057-0.143 0.090-0.308 0.090-0.481 0-0.397-0.173-0.753-0.449-0.997l-0.001-0.001zM17.333 26.667h-2.667v-4c0-0.736 0.597-1.333 1.333-1.333s1.333 0.597 1.333 1.333v0zM24 26.667h-4v-4c0-2.209-1.791-4-4-4s-4 1.791-4 4v0 4h-4v-10.667h16zM7.507 13.333l8.493-7.547 8.493 7.547z"></path>
</svg>
