<!-- Generated by IcoMoon.io -->
<svg version="1.1" xmlns="http://www.w3.org/2000/svg" width="32" height="32" viewBox="0 0 32 32">
<title>ul-hard-hat</title>
<path fill="#37352f" d="M26.667 17.56v-0.227c0-0.003 0-0.006 0-0.010 0-2.996-1.235-5.704-3.224-7.641l-0.002-0.002c-1.158-1.128-2.581-1.991-4.166-2.487l-0.074-0.020h-0.067c-0.987-0.322-2.122-0.508-3.301-0.508-0.053 0-0.107 0-0.16 0.001l0.008-0c-5.769 0.326-10.326 5.074-10.347 10.891v0.002c-1.57 0.564-2.673 2.040-2.673 3.773 0 2.209 1.791 4 4 4 0.002 0 0.004 0 0.006 0h18.666c0.002 0 0.004 0 0.006 0 2.209 0 4-1.791 4-4 0-1.733-1.103-3.209-2.645-3.765l-0.028-0.009zM25.333 22.667h-18.667c-0.736 0-1.333-0.597-1.333-1.333s0.597-1.333 1.333-1.333v0h2.667c0.736 0 1.333-0.597 1.333-1.333s-0.597-1.333-1.333-1.333v0h-1.333c0.131-2.892 1.681-5.396 3.965-6.846l0.035-0.021v4.2c0 0.736 0.597 1.333 1.333 1.333s1.333-0.597 1.333-1.333v0-5.213c0.311-0.055 0.687-0.098 1.068-0.119l0.025-0.001h0.24c0.474 0.004 0.935 0.053 1.38 0.141l-0.047-0.008v5.2c0 0.736 0.597 1.333 1.333 1.333s1.333-0.597 1.333-1.333v0-4.24c0.595 0.348 1.111 0.732 1.579 1.165l-0.006-0.005c1.497 1.455 2.427 3.489 2.427 5.739 0 0.003 0 0.005 0 0.008v-0h-1.333c-0.736 0-1.333 0.597-1.333 1.333s0.597 1.333 1.333 1.333v0h2.667c0.736 0 1.333 0.597 1.333 1.333s-0.597 1.333-1.333 1.333v0z"></path>
</svg>
