<!-- Generated by IcoMoon.io -->
<svg version="1.1" xmlns="http://www.w3.org/2000/svg" width="32" height="32" viewBox="0 0 32 32">
<title>ul-image-upload</title>
<path fill="#37352f" d="M25.333 17.333c-0.736 0-1.333 0.597-1.333 1.333v0 0.507l-1.973-1.973c-0.672-0.667-1.598-1.079-2.62-1.079s-1.948 0.412-2.62 1.079l0-0-0.933 0.933-3.307-3.307c-0.68-0.649-1.604-1.048-2.62-1.048s-1.94 0.399-2.622 1.049l0.002-0.001-1.973 1.973v-7.467c0-0.736 0.597-1.333 1.333-1.333v0h9.333c0.736 0 1.333-0.597 1.333-1.333s-0.597-1.333-1.333-1.333v0h-9.333c-2.209 0-4 1.791-4 4v0 16c0 2.209 1.791 4 4 4v0h16c2.209 0 4-1.791 4-4v0-6.667c0-0.736-0.597-1.333-1.333-1.333v0zM6.667 26.667c-0.736 0-1.333-0.597-1.333-1.333v0-4.76l3.867-3.867c0.189-0.18 0.445-0.291 0.727-0.291s0.538 0.111 0.727 0.291l9.96 9.96zM24 25.333c-0.002 0.267-0.092 0.512-0.242 0.71l0.002-0.003-6.013-6.040 0.933-0.933c0.186-0.19 0.446-0.308 0.733-0.308s0.547 0.118 0.733 0.308l0 0 3.853 3.88zM30.28 5.72l-4-4c-0.123-0.118-0.269-0.213-0.431-0.277l-0.009-0.003c-0.15-0.063-0.324-0.1-0.507-0.1s-0.357 0.037-0.515 0.103l0.009-0.003c-0.171 0.067-0.317 0.162-0.44 0.28l0-0-4 4c-0.242 0.242-0.392 0.577-0.392 0.947 0 0.739 0.599 1.339 1.339 1.339 0.37 0 0.704-0.15 0.947-0.392v0l1.72-1.733v7.453c0 0.736 0.597 1.333 1.333 1.333s1.333-0.597 1.333-1.333v0-7.453l1.72 1.733c0.242 0.244 0.577 0.394 0.947 0.394s0.705-0.151 0.947-0.394l0-0c0.244-0.242 0.394-0.577 0.394-0.947s-0.151-0.705-0.394-0.947l-0-0z"></path>
</svg>
