<!-- Generated by IcoMoon.io -->
<svg version="1.1" xmlns="http://www.w3.org/2000/svg" width="32" height="32" viewBox="0 0 32 32">
<title>ul-location-point</title>
<path fill="#37352f" d="M24 5.973c-2.047-2.047-4.876-3.314-8-3.314-6.248 0-11.314 5.065-11.314 11.314 0 3.124 1.266 5.953 3.314 8v0l7.027 7.040c0.242 0.244 0.577 0.394 0.947 0.394s0.705-0.151 0.947-0.394l0-0 7.080-7.107c2.039-2.039 3.3-4.855 3.3-7.967s-1.261-5.928-3.3-7.967v0zM22.093 20l-6.093 6.12-6.093-6.12c-1.557-1.558-2.52-3.711-2.52-6.088 0-4.757 3.856-8.613 8.613-8.613s8.613 3.856 8.613 8.613c0 2.377-0.963 4.529-2.52 6.088l0-0zM12 9.88c-1.039 1.042-1.681 2.479-1.681 4.067s0.642 3.025 1.681 4.067l-0-0c1.040 1.042 2.478 1.687 4.067 1.687 3.153 0 5.712-2.539 5.746-5.683l0-0.003c0-0.013 0-0.029 0-0.045 0-1.573-0.643-2.996-1.68-4.021l-0.001-0.001c-1.042-1.065-2.494-1.726-4.1-1.726-1.573 0-2.998 0.633-4.034 1.659l0-0zM18.253 16.12c-0.564 0.572-1.347 0.927-2.213 0.927-1.716 0-3.107-1.391-3.107-3.107s1.391-3.107 3.107-3.107c1.716 0 3.107 1.391 3.107 3.107 0 0.002 0 0.005 0 0.007v-0c-0.021 0.856-0.385 1.623-0.959 2.172l-0.001 0.001z"></path>
</svg>
