<!-- Generated by IcoMoon.io -->
<svg version="1.1" xmlns="http://www.w3.org/2000/svg" width="32" height="32" viewBox="0 0 32 32">
<title>ul-microphone-slash</title>
<path fill="#37352f" d="M14 4.973c0.493-0.591 1.229-0.964 2.052-0.964 0.734 0 1.399 0.297 1.881 0.777l-0-0c0.454 0.477 0.734 1.125 0.734 1.837 0 0.015-0 0.030-0 0.045l0-0.002v4.547c0 0.736 0.597 1.333 1.333 1.333s1.333-0.597 1.333-1.333v0-4.547c-0.085-2.879-2.439-5.181-5.331-5.181-1.591 0-3.020 0.697-3.997 1.802l-0.005 0.006c-0.309 0.246-0.506 0.623-0.506 1.046 0 0.736 0.597 1.333 1.333 1.333 0.504 0 0.943-0.28 1.169-0.692l0.003-0.007zM24.96 17.693h0.267c0.007 0 0.016 0 0.024 0 0.647 0 1.186-0.461 1.308-1.072l0.001-0.009c0.073-0.465 0.114-1.002 0.114-1.548 0-0.14-0.003-0.28-0.008-0.419l0.001 0.020c0-0.736-0.597-1.333-1.333-1.333s-1.333 0.597-1.333 1.333v0c0 0.001 0 0.001 0 0.002 0 0.518-0.053 1.024-0.155 1.513l0.008-0.048c-0.014 0.073-0.022 0.157-0.022 0.242 0 0.664 0.486 1.215 1.121 1.317l0.008 0.001zM28.96 25.773l-24-24c-0.242-0.244-0.577-0.394-0.947-0.394s-0.705 0.151-0.947 0.394l-0 0c-0.24 0.241-0.388 0.573-0.388 0.94s0.148 0.699 0.388 0.94l7.6 7.653v3.36c0.003 2.943 2.39 5.328 5.333 5.328 0.982 0 1.902-0.265 2.692-0.728l-0.025 0.014 1.947 1.947c-1.284 0.916-2.884 1.464-4.613 1.464-4.418 0-8-3.582-8-8 0-0.008 0-0.017 0-0.025v0.001c0-0.736-0.597-1.333-1.333-1.333s-1.333 0.597-1.333 1.333v0c0.005 5.417 4.047 9.888 9.28 10.568l0.054 0.006v2.76h-2.667c-0.736 0-1.333 0.597-1.333 1.333s0.597 1.333 1.333 1.333v0h8c0.736 0 1.333-0.597 1.333-1.333s-0.597-1.333-1.333-1.333v0h-2.667v-2.76c1.962-0.25 3.711-1.009 5.157-2.137l-0.023 0.017 4.533 4.533c0.242 0.243 0.577 0.394 0.947 0.394 0.737 0 1.334-0.597 1.334-1.334 0-0.367-0.148-0.699-0.387-0.94l0 0zM16 17.333c-1.473 0-2.667-1.194-2.667-2.667v0-0.693l3.267 3.28c-0.18 0.050-0.386 0.080-0.6 0.080h-0z"></path>
</svg>
