<!-- Generated by IcoMoon.io -->
<svg version="1.1" xmlns="http://www.w3.org/2000/svg" width="32" height="32" viewBox="0 0 32 32">
<title>ul-minus-path</title>
<path fill="#37352f" d="M10.907 5.333h2.8c0.736 0 1.333-0.597 1.333-1.333s-0.597-1.333-1.333-1.333v0h-2.8c-0.736 0-1.333 0.597-1.333 1.333s0.597 1.333 1.333 1.333v0zM4 15.040c0.736 0 1.333-0.597 1.333-1.333v0-2.8c0-0.736-0.597-1.333-1.333-1.333s-1.333 0.597-1.333 1.333v0 2.8c0 0.736 0.597 1.333 1.333 1.333v0zM19.28 5.333c0 0.736 0.597 1.333 1.333 1.333s1.333-0.597 1.333-1.333v0-1.333c0-0.736-0.597-1.333-1.333-1.333v0h-1.333c-0.736 0-1.333 0.597-1.333 1.333s0.597 1.333 1.333 1.333v0zM28 10.053h-6.053c0-0.736-0.597-1.333-1.333-1.333s-1.333 0.597-1.333 1.333v0h-7.893c-0.736 0-1.333 0.597-1.333 1.333v0 7.893c-0.736 0-1.333 0.597-1.333 1.333s0.597 1.333 1.333 1.333v0 6.053c0 0.736 0.597 1.333 1.333 1.333v0h16.613c0.736 0 1.333-0.597 1.333-1.333v0-16.613c0-0.736-0.597-1.333-1.333-1.333v0zM26.667 26.667h-13.947v-13.947h13.947zM5.333 2.667h-1.333c-0.736 0-1.333 0.597-1.333 1.333v0 1.333c0 0.736 0.597 1.333 1.333 1.333s1.333-0.597 1.333-1.333v0c0.736 0 1.333-0.597 1.333-1.333s-0.597-1.333-1.333-1.333v0zM5.333 19.28c0-0.736-0.597-1.333-1.333-1.333s-1.333 0.597-1.333 1.333v0 1.333c0 0.736 0.597 1.333 1.333 1.333v0h1.333c0.736 0 1.333-0.597 1.333-1.333s-0.597-1.333-1.333-1.333v0z"></path>
</svg>
