<!-- Generated by IcoMoon.io -->
<svg version="1.1" xmlns="http://www.w3.org/2000/svg" width="32" height="32" viewBox="0 0 32 32">
<title>ul-mouse-alt-2</title>
<path fill="#37352f" d="M16 2.667c-5.155 0-9.333 4.179-9.333 9.333v0 8c0 5.155 4.179 9.333 9.333 9.333s9.333-4.179 9.333-9.333v0-8c0-5.155-4.179-9.333-9.333-9.333v0zM22.667 20c0 3.682-2.985 6.667-6.667 6.667s-6.667-2.985-6.667-6.667v0-8c0-0 0-0.001 0-0.001 0-3.21 2.269-5.89 5.29-6.524l0.043-0.008v10.533c0 0.736 0.597 1.333 1.333 1.333s1.333-0.597 1.333-1.333v0-10.533c3.065 0.642 5.333 3.322 5.333 6.532 0 0 0 0.001 0 0.001v-0z"></path>
</svg>
