<!-- Generated by IcoMoon.io -->
<svg version="1.1" xmlns="http://www.w3.org/2000/svg" width="32" height="32" viewBox="0 0 32 32">
<title>ul-minus-square-full</title>
<path fill="#37352f" d="M12 17.333h8c0.736 0 1.333-0.597 1.333-1.333s-0.597-1.333-1.333-1.333v0h-8c-0.736 0-1.333 0.597-1.333 1.333s0.597 1.333 1.333 1.333v0zM28 2.667h-24c-0.736 0-1.333 0.597-1.333 1.333v0 24c0 0.736 0.597 1.333 1.333 1.333v0h24c0.736 0 1.333-0.597 1.333-1.333v0-24c0-0.736-0.597-1.333-1.333-1.333v0zM26.667 26.667h-21.333v-21.333h21.333z"></path>
</svg>
