<!-- Generated by IcoMoon.io -->
<svg version="1.1" xmlns="http://www.w3.org/2000/svg" width="32" height="32" viewBox="0 0 32 32">
<title>ul-mailbox</title>
<path fill="#37352f" d="M10.667 16h2.667c0.736 0 1.333-0.597 1.333-1.333s-0.597-1.333-1.333-1.333v0h-2.667c-0.736 0-1.333 0.597-1.333 1.333s0.597 1.333 1.333 1.333v0zM22.667 8h-6.667v-2.667h1.333c0.736 0 1.333-0.597 1.333-1.333s-0.597-1.333-1.333-1.333v0h-2.667c-0.736 0-1.333 0.597-1.333 1.333v0 4h-4c-2.946 0-5.333 2.388-5.333 5.333v0 8c0 0.736 0.597 1.333 1.333 1.333v0h8v5.333c0 0.736 0.597 1.333 1.333 1.333s1.333-0.597 1.333-1.333v0-5.333h10.667c0.736 0 1.333-0.597 1.333-1.333v0-8c0-2.946-2.388-5.333-5.333-5.333v0zM17.333 13.333v6.667h-10.667v-6.667c0-1.473 1.194-2.667 2.667-2.667v0h8.747c-0.465 0.761-0.742 1.681-0.747 2.665v0.001zM25.333 20h-5.333v-6.667c0-1.473 1.194-2.667 2.667-2.667s2.667 1.194 2.667 2.667v0z"></path>
</svg>
