<!-- Generated by IcoMoon.io -->
<svg version="1.1" xmlns="http://www.w3.org/2000/svg" width="32" height="32" viewBox="0 0 32 32">
<title>ul-music</title>
<path fill="#37352f" d="M28.867 2.987c-0.232-0.2-0.536-0.321-0.868-0.321-0.070 0-0.139 0.005-0.206 0.016l0.007-0.001-17.333 2.667c-0.645 0.101-1.133 0.652-1.133 1.318 0 0.001 0 0.001 0 0.002v-0 13.8c-0.584-0.292-1.271-0.464-1.999-0.467h-0.001c-2.577 0-4.667 2.089-4.667 4.667s2.089 4.667 4.667 4.667c2.577 0 4.667-2.089 4.667-4.667v0-10.187l14.667-2.253v5.573c-0.584-0.292-1.271-0.464-1.999-0.467h-0.001c-2.577 0-4.667 2.089-4.667 4.667s2.089 4.667 4.667 4.667c2.577 0 4.667-2.089 4.667-4.667v0-18c0-0 0-0 0-0 0-0.405-0.18-0.767-0.465-1.012l-0.002-0.002zM7.333 26.667c-1.105 0-2-0.895-2-2s0.895-2 2-2c1.105 0 2 0.895 2 2v0c0 1.105-0.895 2-2 2v0zM24.667 24c-1.105 0-2-0.895-2-2s0.895-2 2-2c1.105 0 2 0.895 2 2v0c0 1.105-0.895 2-2 2v0zM26.667 9.52l-14.667 2.253v-4l14.667-2.213z"></path>
</svg>
