<!-- Generated by IcoMoon.io -->
<svg version="1.1" xmlns="http://www.w3.org/2000/svg" width="32" height="32" viewBox="0 0 32 32">
<title>ul-newspaper</title>
<path fill="#37352f" d="M22.667 14.667h-1.333c-0.736 0-1.333 0.597-1.333 1.333s0.597 1.333 1.333 1.333v0h1.333c0.736 0 1.333-0.597 1.333-1.333s-0.597-1.333-1.333-1.333v0zM22.667 20h-1.333c-0.736 0-1.333 0.597-1.333 1.333s0.597 1.333 1.333 1.333v0h1.333c0.736 0 1.333-0.597 1.333-1.333s-0.597-1.333-1.333-1.333v0zM14.667 12h8c0.736 0 1.333-0.597 1.333-1.333s-0.597-1.333-1.333-1.333v0h-8c-0.736 0-1.333 0.597-1.333 1.333s0.597 1.333 1.333 1.333v0zM28 4h-18.667c-0.736 0-1.333 0.597-1.333 1.333v0 4h-4c-0.736 0-1.333 0.597-1.333 1.333v0 13.333c0 2.209 1.791 4 4 4v0h17.333c2.946 0 5.333-2.388 5.333-5.333v0-17.333c0-0.736-0.597-1.333-1.333-1.333v0zM8 24c0 0.736-0.597 1.333-1.333 1.333s-1.333-0.597-1.333-1.333v0-12h2.667zM26.667 22.667c0 1.473-1.194 2.667-2.667 2.667v0h-13.573c0.148-0.396 0.236-0.854 0.24-1.332v-17.335h16zM14.667 17.333h1.333c0.736 0 1.333-0.597 1.333-1.333s-0.597-1.333-1.333-1.333v0h-1.333c-0.736 0-1.333 0.597-1.333 1.333s0.597 1.333 1.333 1.333v0zM14.667 22.667h1.333c0.736 0 1.333-0.597 1.333-1.333s-0.597-1.333-1.333-1.333v0h-1.333c-0.736 0-1.333 0.597-1.333 1.333s0.597 1.333 1.333 1.333v0z"></path>
</svg>
