<!-- Generated by IcoMoon.io -->
<svg version="1.1" xmlns="http://www.w3.org/2000/svg" width="32" height="32" viewBox="0 0 32 32">
<title>ul-ninja</title>
<path fill="#37352f" d="M25.92 7.12l-0.080-0.093c-2.446-2.669-5.949-4.336-9.84-4.336s-7.394 1.667-9.831 4.326l-0.009 0.010-0.080 0.093c-2.118 2.351-3.413 5.479-3.413 8.909 0 7.364 5.97 13.333 13.333 13.333s13.333-5.97 13.333-13.333c0-0.010 0-0.020-0-0.031v0.002c0-0.002 0-0.004 0-0.007 0-3.419-1.296-6.535-3.423-8.884l0.010 0.011zM16 5.333c0.008-0 0.018-0 0.028-0 1.88 0 3.645 0.495 5.171 1.361l-0.052-0.027h-10.293c1.474-0.839 3.239-1.333 5.119-1.333 0.010 0 0.019 0 0.029 0h-0.002zM7.68 9.333h16.64c1.183 1.469 1.99 3.289 2.248 5.28l0.006 0.053h-21.147c0.263-2.045 1.070-3.864 2.269-5.354l-0.016 0.021zM16 26.667c-5.417-0.005-9.888-4.047-10.568-9.28l-0.006-0.054h21.147c-0.685 5.286-5.156 9.328-10.573 9.333h-0.001zM10.667 10.667c-0.736 0-1.333 0.597-1.333 1.333s0.597 1.333 1.333 1.333c0.736 0 1.333-0.597 1.333-1.333v0c0-0.736-0.597-1.333-1.333-1.333v0zM18.667 10.667c-0.736 0-1.333 0.597-1.333 1.333s0.597 1.333 1.333 1.333c0.736 0 1.333-0.597 1.333-1.333v0c0-0.736-0.597-1.333-1.333-1.333v0zM14.667 23.907c0.188 0.108 0.413 0.173 0.653 0.173h0c0.495-0.001 0.927-0.272 1.157-0.673l0.003-0.007c0.695-1.241 2.002-2.067 3.502-2.067 0.006 0 0.013 0 0.019 0h-0.001c0.736 0 1.333-0.597 1.333-1.333s-0.597-1.333-1.333-1.333v0c-0 0-0 0-0 0-2.492 0-4.665 1.368-5.809 3.393l-0.017 0.033c-0.109 0.189-0.174 0.416-0.174 0.658 0 0.491 0.266 0.92 0.661 1.152l0.006 0.003z"></path>
</svg>
