<!-- Generated by IcoMoon.io -->
<svg version="1.1" xmlns="http://www.w3.org/2000/svg" width="32" height="32" viewBox="0 0 32 32">
<title>ul-post-stamp</title>
<path fill="#37352f" d="M30 7.333c0.736 0 1.333-0.597 1.333-1.333v0-4c0-0.736-0.597-1.333-1.333-1.333v0h-4c-0.736 0-1.333 0.597-1.333 1.333v0c0 0.368-0.298 0.667-0.667 0.667s-0.667-0.298-0.667-0.667v0c0-0.736-0.597-1.333-1.333-1.333v0h-4c-0.736 0-1.333 0.597-1.333 1.333v0c0 0.368-0.298 0.667-0.667 0.667s-0.667-0.298-0.667-0.667v0c0-0.736-0.597-1.333-1.333-1.333v0h-4c-0.736 0-1.333 0.597-1.333 1.333v0c0 0.368-0.298 0.667-0.667 0.667s-0.667-0.298-0.667-0.667v0c0-0.736-0.597-1.333-1.333-1.333v0h-4c-0.736 0-1.333 0.597-1.333 1.333v0 4c0 0.736 0.597 1.333 1.333 1.333v0c0.368 0 0.667 0.298 0.667 0.667s-0.298 0.667-0.667 0.667v0c-0.736 0-1.333 0.597-1.333 1.333v0 4c0 0.736 0.597 1.333 1.333 1.333v0c0.368 0 0.667 0.298 0.667 0.667s-0.298 0.667-0.667 0.667v0c-0.736 0-1.333 0.597-1.333 1.333v0 4c0 0.736 0.597 1.333 1.333 1.333v0c0.368 0 0.667 0.298 0.667 0.667s-0.298 0.667-0.667 0.667v0c-0.736 0-1.333 0.597-1.333 1.333v0 4c0 0.736 0.597 1.333 1.333 1.333v0h4c0.736 0 1.333-0.597 1.333-1.333v0c0-0.368 0.298-0.667 0.667-0.667s0.667 0.298 0.667 0.667v0c0 0.736 0.597 1.333 1.333 1.333v0h4c0.736 0 1.333-0.597 1.333-1.333v0c0-0.368 0.298-0.667 0.667-0.667s0.667 0.298 0.667 0.667v0c0 0.736 0.597 1.333 1.333 1.333v0h4c0.736 0 1.333-0.597 1.333-1.333v0c0-0.368 0.298-0.667 0.667-0.667s0.667 0.298 0.667 0.667v0c0 0.736 0.597 1.333 1.333 1.333v0h4c0.736 0 1.333-0.597 1.333-1.333v0-4c0-0.736-0.597-1.333-1.333-1.333v0c-0.368 0-0.667-0.298-0.667-0.667s0.298-0.667 0.667-0.667v0c0.736 0 1.333-0.597 1.333-1.333v0-4c0-0.736-0.597-1.333-1.333-1.333v0c-0.368 0-0.667-0.298-0.667-0.667s0.298-0.667 0.667-0.667v0c0.736 0 1.333-0.597 1.333-1.333v0-4c0-0.736-0.597-1.333-1.333-1.333v0c-0.368 0-0.667-0.298-0.667-0.667s0.298-0.667 0.667-0.667v0zM28.667 4.947c-1.185 0.528-1.996 1.696-1.996 3.053s0.811 2.525 1.975 3.045l0.021 0.008v1.893c-1.185 0.528-1.996 1.696-1.996 3.053s0.811 2.525 1.975 3.045l0.021 0.008v1.893c-1.185 0.528-1.996 1.696-1.996 3.053s0.811 2.525 1.975 3.045l0.021 0.008v1.613h-1.613c-0.528-1.185-1.696-1.996-3.053-1.996s-2.525 0.811-3.045 1.975l-0.008 0.021h-1.893c-0.528-1.185-1.696-1.996-3.053-1.996s-2.525 0.811-3.045 1.975l-0.008 0.021h-1.893c-0.528-1.185-1.696-1.996-3.053-1.996s-2.525 0.811-3.045 1.975l-0.008 0.021h-1.613v-1.613c1.185-0.528 1.996-1.696 1.996-3.053s-0.811-2.525-1.975-3.045l-0.021-0.008v-1.893c1.185-0.528 1.996-1.696 1.996-3.053s-0.811-2.525-1.975-3.045l-0.021-0.008v-1.893c1.185-0.528 1.996-1.696 1.996-3.053s-0.811-2.525-1.975-3.045l-0.021-0.008v-1.613h1.613c0.528 1.185 1.696 1.996 3.053 1.996s2.525-0.811 3.045-1.975l0.008-0.021h1.893c0.528 1.185 1.696 1.996 3.053 1.996s2.525-0.811 3.045-1.975l0.008-0.021h1.893c0.528 1.185 1.696 1.996 3.053 1.996s2.525-0.811 3.045-1.975l0.008-0.021h1.613zM16 6.667c-5.155 0-9.333 4.179-9.333 9.333s4.179 9.333 9.333 9.333v0c0.006 0 0.013 0 0.020 0 1.712 0 3.315-0.466 4.69-1.277l-0.043 0.024c0.428-0.228 0.715-0.671 0.715-1.181 0-0.736-0.597-1.333-1.333-1.333-0.265 0-0.513 0.078-0.721 0.211l0.005-0.003c-0.956 0.562-2.106 0.893-3.333 0.893-3.682 0-6.667-2.985-6.667-6.667s2.985-6.667 6.667-6.667c3.682 0 6.667 2.985 6.667 6.667 0 0 0 0 0 0v0 0.667c0 0.611-0.495 1.107-1.107 1.107v0c-0 0-0 0-0 0-0.614 0-1.112-0.494-1.12-1.106v-3.774c-0.019-0.722-0.608-1.3-1.333-1.3-0.42 0-0.794 0.194-1.038 0.497l-0.002 0.003c-0.597-0.333-1.308-0.53-2.066-0.533h-0.001c-2.452 0-4.44 1.988-4.44 4.44s1.988 4.44 4.44 4.44v0c0 0 0 0 0.001 0 1.111 0 2.126-0.415 2.897-1.097l-0.005 0.004c0.683 0.671 1.62 1.085 2.654 1.085 2.079 0 3.767-1.676 3.787-3.75v-0.682c0-5.155-4.179-9.333-9.333-9.333v0zM16 17.773c-0.979 0-1.773-0.794-1.773-1.773s0.794-1.773 1.773-1.773c0.979 0 1.773 0.794 1.773 1.773v0c0 0.004 0 0.009 0 0.013 0 0.972-0.788 1.76-1.76 1.76-0.005 0-0.009-0-0.014-0h0.001z"></path>
</svg>
