<!-- Generated by IcoMoon.io -->
<svg version="1.1" xmlns="http://www.w3.org/2000/svg" width="32" height="32" viewBox="0 0 32 32">
<title>ul-registered</title>
<path fill="#37352f" d="M16 2.667c-7.364 0-13.333 5.97-13.333 13.333s5.97 13.333 13.333 13.333c7.364 0 13.333-5.97 13.333-13.333v0c0-7.364-5.97-13.333-13.333-13.333v0zM16 26.667c-5.891 0-10.667-4.776-10.667-10.667s4.776-10.667 10.667-10.667c5.891 0 10.667 4.776 10.667 10.667v0c0 5.891-4.776 10.667-10.667 10.667v0zM16.667 9.333h-4c-0.736 0-1.333 0.597-1.333 1.333v0 10.667c0 0.736 0.597 1.333 1.333 1.333s1.333-0.597 1.333-1.333v0-2.667h2.667c0.736 0 1.333 0.597 1.333 1.333v0 1.333c0 0.736 0.597 1.333 1.333 1.333s1.333-0.597 1.333-1.333v0-1.333c-0.006-1.029-0.4-1.965-1.043-2.67l0.003 0.003c0.64-0.702 1.034-1.638 1.040-2.665v-1.335c0-2.209-1.791-4-4-4v0zM18 14.667c0 0.736-0.597 1.333-1.333 1.333v0h-2.667v-4h2.667c0.736 0 1.333 0.597 1.333 1.333v0z"></path>
</svg>
