<!-- Generated by IcoMoon.io -->
<svg version="1.1" xmlns="http://www.w3.org/2000/svg" width="32" height="32" viewBox="0 0 32 32">
<title>ul-restaurant</title>
<path fill="#37352f" d="M22.453 15.507c0.015 0 0.032 0 0.049 0 1.106 0 2.106-0.449 2.83-1.174l3.773-3.773c0.24-0.241 0.388-0.573 0.388-0.94s-0.148-0.699-0.388-0.94l0 0c-0.242-0.244-0.577-0.394-0.947-0.394s-0.705 0.151-0.947 0.394l-0 0-3.813 3.76c-0.242 0.244-0.577 0.394-0.947 0.394s-0.705-0.151-0.947-0.394l-0-0 4.72-4.707c0.242-0.242 0.392-0.577 0.392-0.947 0-0.739-0.599-1.339-1.339-1.339-0.37 0-0.704 0.15-0.947 0.392v0l-4.707 4.72c-0.24-0.241-0.388-0.573-0.388-0.94s0.148-0.699 0.388-0.94l3.773-3.773c0.242-0.242 0.392-0.577 0.392-0.947 0-0.739-0.599-1.339-1.339-1.339-0.37 0-0.704 0.15-0.947 0.392l-3.773 3.773c-0.723 0.724-1.17 1.723-1.17 2.827s0.447 2.103 1.17 2.827l-0-0-1.733 1.72-11.027-11.067-0.133-0.080c-0.065-0.057-0.14-0.106-0.221-0.144l-0.006-0.002-0.24-0.093-0.16-0.107h-0.36c-0.036-0.006-0.078-0.010-0.12-0.010s-0.084 0.003-0.124 0.010l0.004-0.001c-0.087 0.032-0.161 0.072-0.229 0.122l0.003-0.002-0.213 0.133h-0.093l-0.080 0.133c-0.053 0.066-0.102 0.14-0.143 0.219l-0.003 0.007c-0.035 0.072-0.067 0.156-0.091 0.243l-0.002 0.010s0 0.093 0 0.147c-0.095 0.626-0.149 1.348-0.149 2.083 0 4.050 1.641 7.716 4.295 10.37l-0-0 3.52 3.507-7.213 7.2c-0.244 0.242-0.394 0.577-0.394 0.947s0.151 0.705 0.394 0.947l0 0c0.241 0.239 0.573 0.387 0.939 0.387 0.003 0 0.005 0 0.008-0h-0c0.002 0 0.005 0 0.008 0 0.366 0 0.698-0.148 0.939-0.387l-0 0 8.093-7.973 6.44-6.44c0.718 0.726 1.712 1.178 2.812 1.187h0.002zM12.253 17.933l-3.507-3.52c-1.86-1.885-3.106-4.381-3.409-7.16l-0.005-0.054 8.813 8.8zM20.573 18.693c-0.243-0.245-0.581-0.397-0.953-0.397-0.742 0-1.343 0.602-1.343 1.343 0 0.369 0.149 0.704 0.39 0.947l8.4 8.4c0.236 0.215 0.551 0.347 0.897 0.347 0.013 0 0.025-0 0.038-0.001l-0.002 0c0.002 0 0.005 0 0.008 0 0.366 0 0.698-0.148 0.939-0.387l-0 0c0.244-0.242 0.394-0.577 0.394-0.947s-0.151-0.705-0.394-0.947l-0-0z"></path>
</svg>
