<!-- Generated by IcoMoon.io -->
<svg version="1.1" xmlns="http://www.w3.org/2000/svg" width="32" height="32" viewBox="0 0 32 32">
<title>ul-redo</title>
<path fill="#37352f" d="M28 14.667c-0.736 0-1.333 0.597-1.333 1.333v0c0 0.020 0 0.044 0 0.068 0 5.928-4.805 10.733-10.733 10.733s-10.733-4.805-10.733-10.733c0-5.928 4.805-10.733 10.733-10.733 3.056 0 5.814 1.277 7.769 3.328l0.004 0.004h-3.2c-0.736 0-1.333 0.597-1.333 1.333s0.597 1.333 1.333 1.333v0h6.040c0.736 0 1.333-0.597 1.333-1.333v0-6c0-0.736-0.597-1.333-1.333-1.333s-1.333 0.597-1.333 1.333v0 2.36c-2.39-2.287-5.637-3.695-9.213-3.695-7.364 0-13.333 5.97-13.333 13.333s5.97 13.333 13.333 13.333c7.363 0 13.332-5.968 13.333-13.331v-0c0-0.736-0.597-1.333-1.333-1.333v0z"></path>
</svg>
