<!-- Generated by IcoMoon.io -->
<svg version="1.1" xmlns="http://www.w3.org/2000/svg" width="32" height="32" viewBox="0 0 32 32">
<title>ul-receipt</title>
<path fill="#37352f" d="M12 16h-2.667c-0.736 0-1.333 0.597-1.333 1.333s0.597 1.333 1.333 1.333v0h2.667c0.736 0 1.333-0.597 1.333-1.333s-0.597-1.333-1.333-1.333v0zM10.667 13.333h5.333c0.736 0 1.333-0.597 1.333-1.333s-0.597-1.333-1.333-1.333v0h-5.333c-0.736 0-1.333 0.597-1.333 1.333s0.597 1.333 1.333 1.333v0zM12 21.333h-2.667c-0.736 0-1.333 0.597-1.333 1.333s0.597 1.333 1.333 1.333v0h2.667c0.736 0 1.333-0.597 1.333-1.333s-0.597-1.333-1.333-1.333v0zM28 16h-4v-12c0-0.002 0-0.003 0-0.005 0-0.491-0.265-0.92-0.66-1.151l-0.006-0.003c-0.191-0.112-0.421-0.179-0.667-0.179s-0.475 0.066-0.673 0.182l0.006-0.003-4 2.293-4-2.293c-0.191-0.112-0.421-0.179-0.667-0.179s-0.475 0.066-0.673 0.182l0.006-0.003-4 2.293-4-2.293c-0.191-0.112-0.421-0.179-0.667-0.179s-0.475 0.066-0.673 0.182l0.006-0.003c-0.401 0.235-0.667 0.664-0.667 1.155 0 0.002 0 0.004 0 0.006v-0 21.333c0 2.209 1.791 4 4 4v0h18.667c2.209 0 4-1.791 4-4v0-8c0-0.736-0.597-1.333-1.333-1.333v0zM6.667 26.667c-0.736 0-1.333-0.597-1.333-1.333v0-19.027l2.667 1.52c0.193 0.103 0.423 0.164 0.667 0.164s0.473-0.061 0.674-0.167l-0.008 0.004 4-2.293 4 2.293c0.193 0.103 0.423 0.164 0.667 0.164s0.473-0.061 0.674-0.167l-0.008 0.004 2.667-1.52v19.027c0.004 0.479 0.092 0.937 0.249 1.361l-0.009-0.028zM26.667 25.333c0 0.736-0.597 1.333-1.333 1.333s-1.333-0.597-1.333-1.333v0-6.667h2.667zM18.080 21.56c-0.069-0.048-0.148-0.088-0.233-0.118l-0.007-0.002c-0.073-0.038-0.159-0.066-0.249-0.079l-0.004-0c-0.079-0.017-0.169-0.026-0.262-0.026-0.366 0-0.697 0.147-0.938 0.386l0-0c-0.235 0.246-0.381 0.579-0.387 0.946v0.001c-0 0.005-0 0.011-0 0.016 0 0.177 0.034 0.345 0.097 0.499l-0.003-0.009c0.077 0.169 0.175 0.315 0.294 0.441l-0.001-0.001c0.125 0.114 0.271 0.208 0.43 0.276l0.010 0.004c0.149 0.068 0.323 0.107 0.507 0.107s0.358-0.039 0.515-0.11l-0.008 0.003c0.169-0.072 0.315-0.166 0.441-0.281l-0.001 0.001c0.239-0.241 0.387-0.573 0.387-0.939 0-0.003 0-0.005-0-0.008v0c-0.005-0.368-0.152-0.701-0.387-0.947l0 0.001c-0.060-0.055-0.125-0.107-0.194-0.156l-0.006-0.004zM18.267 16.387c-0.24-0.234-0.568-0.378-0.93-0.378-0.55 0-1.023 0.334-1.226 0.809l-0.003 0.009c-0.063 0.15-0.1 0.324-0.1 0.507 0 0.734 0.593 1.33 1.326 1.333h0c0.736 0 1.333-0.597 1.333-1.333v0c-0.002-0.184-0.041-0.357-0.11-0.515l0.003 0.009c-0.068-0.173-0.167-0.319-0.293-0.44l-0-0z"></path>
</svg>
