<!-- Generated by IcoMoon.io -->
<svg version="1.1" xmlns="http://www.w3.org/2000/svg" width="32" height="32" viewBox="0 0 32 32">
<title>ul-raindrops</title>
<path fill="#37352f" d="M14 10.667c0-4.653-4.4-7.653-4.587-7.773-0.209-0.143-0.468-0.229-0.747-0.229s-0.537 0.085-0.751 0.232l0.005-0.003c-0.187 0.133-4.587 3.173-4.587 7.773 0 2.946 2.388 5.333 5.333 5.333s5.333-2.388 5.333-5.333v0zM8.667 13.333c-1.473 0-2.667-1.194-2.667-2.667v0c0.196-2.012 1.189-3.761 2.653-4.949l0.013-0.011c1.484 1.195 2.478 2.946 2.665 4.931l0.002 0.029c0 1.473-1.194 2.667-2.667 2.667v0zM24.080 2.893c-0.209-0.143-0.468-0.229-0.747-0.229s-0.537 0.085-0.751 0.232l0.005-0.003c-0.187 0.133-4.587 3.173-4.587 7.773 0 2.946 2.388 5.333 5.333 5.333s5.333-2.388 5.333-5.333v0c0-4.653-4.4-7.653-4.587-7.773zM23.333 13.333c-1.473 0-2.667-1.194-2.667-2.667v0c0.196-2.012 1.189-3.761 2.653-4.949l0.013-0.011c1.484 1.195 2.478 2.946 2.665 4.931l0.002 0.029c0 1.473-1.194 2.667-2.667 2.667v0zM17.413 16.227c-0.209-0.143-0.468-0.229-0.747-0.229s-0.537 0.085-0.751 0.232l0.005-0.003c-0.187 0.133-4.587 3.173-4.587 7.773 0 2.946 2.388 5.333 5.333 5.333s5.333-2.388 5.333-5.333v0c0-4.653-4.4-7.653-4.587-7.773zM16.667 26.667c-1.473 0-2.667-1.194-2.667-2.667v0c0.196-2.012 1.188-3.761 2.653-4.949l0.013-0.011c1.484 1.195 2.478 2.946 2.665 4.931l0.002 0.029c0 1.473-1.194 2.667-2.667 2.667v0z"></path>
</svg>
