<!-- Generated by IcoMoon.io -->
<svg version="1.1" xmlns="http://www.w3.org/2000/svg" width="32" height="32" viewBox="0 0 32 32">
<title>ul-shield-exclamation</title>
<path fill="#37352f" d="M17.227 20c-0.029-0.087-0.069-0.162-0.121-0.228l0.001 0.002-0.16-0.2c-0.242-0.244-0.577-0.394-0.947-0.394s-0.705 0.151-0.947 0.394l-0 0c-0.063 0.057-0.116 0.123-0.158 0.196l-0.002 0.004c-0.051 0.065-0.091 0.14-0.118 0.221l-0.002 0.005c-0.036 0.073-0.064 0.158-0.079 0.248l-0.001 0.006c-0.003 0.038-0.005 0.082-0.005 0.127s0.002 0.089 0.005 0.132l-0-0.006c-0 0.009-0 0.020-0 0.030 0 0.178 0.039 0.346 0.11 0.497l-0.003-0.007c0.207 0.485 0.679 0.819 1.23 0.819 0.181 0 0.354-0.036 0.512-0.102l-0.009 0.003c0.169-0.077 0.315-0.175 0.441-0.294l-0.001 0.001c0.117-0.119 0.211-0.261 0.277-0.418l0.003-0.009c0.067-0.153 0.106-0.332 0.107-0.52v-0c0.003-0.038 0.005-0.082 0.005-0.127s-0.002-0.089-0.005-0.132l0 0.006c-0.034-0.097-0.079-0.181-0.135-0.256l0.002 0.002zM16 9.813c-0.736 0-1.333 0.597-1.333 1.333v0 4c0 0.736 0.597 1.333 1.333 1.333s1.333-0.597 1.333-1.333v0-4c0-0.736-0.597-1.333-1.333-1.333v0zM26.173 4.867c-0.227-0.185-0.52-0.297-0.839-0.297-0.1 0-0.197 0.011-0.29 0.032l0.009-0.002c-0.658 0.144-1.413 0.227-2.188 0.227-2.285 0-4.403-0.719-6.139-1.943l0.034 0.023c-0.212-0.149-0.476-0.238-0.76-0.238s-0.548 0.089-0.764 0.241l0.004-0.003c-1.702 1.201-3.82 1.92-6.105 1.92-0.775 0-1.53-0.083-2.258-0.239l0.070 0.013c-0.085-0.019-0.182-0.030-0.281-0.030-0.319 0-0.612 0.112-0.841 0.299l0.002-0.002c-0.302 0.246-0.493 0.619-0.493 1.035 0 0.002 0 0.003 0 0.005v-0 9.933c0 0.002 0 0.005 0 0.007 0 4.011 1.968 7.563 4.991 9.742l0.035 0.024 4.867 3.467c0.215 0.155 0.483 0.247 0.773 0.247s0.558-0.093 0.777-0.25l-0.004 0.003 4.867-3.467c3.059-2.203 5.027-5.755 5.027-9.766 0-0.003 0-0.005 0-0.008v0-9.933c0-0.001 0-0.003 0-0.005 0-0.417-0.191-0.789-0.491-1.034l-0.002-0.002zM24 15.84c0 0.002 0 0.004 0 0.006 0 3.119-1.529 5.88-3.879 7.575l-0.028 0.019-4.093 2.92-4.093-2.92c-2.377-1.714-3.907-4.475-3.907-7.594 0-0.002 0-0.005 0-0.007v0-8.4c0.341 0.031 0.737 0.049 1.137 0.049 2.535 0 4.904-0.707 6.922-1.935l-0.059 0.033c1.959 1.195 4.328 1.902 6.863 1.902 0.4 0 0.796-0.018 1.188-0.052l-0.051 0.004z"></path>
</svg>
