<!-- Generated by IcoMoon.io -->
<svg version="1.1" xmlns="http://www.w3.org/2000/svg" width="32" height="32" viewBox="0 0 32 32">
<title>ul-signal-alt</title>
<path fill="#37352f" d="M13.333 18.667c-0.736 0-1.333 0.597-1.333 1.333v0 8c0 0.736 0.597 1.333 1.333 1.333s1.333-0.597 1.333-1.333v0-8c0-0.736-0.597-1.333-1.333-1.333v0zM6.667 24c-0.736 0-1.333 0.597-1.333 1.333v0 2.667c0 0.736 0.597 1.333 1.333 1.333s1.333-0.597 1.333-1.333v0-2.667c0-0.736-0.597-1.333-1.333-1.333v0zM26.667 2.667c-0.736 0-1.333 0.597-1.333 1.333v0 24c0 0.736 0.597 1.333 1.333 1.333s1.333-0.597 1.333-1.333v0-24c0-0.736-0.597-1.333-1.333-1.333v0zM20 12c-0.736 0-1.333 0.597-1.333 1.333v0 14.667c0 0.736 0.597 1.333 1.333 1.333s1.333-0.597 1.333-1.333v0-14.667c0-0.736-0.597-1.333-1.333-1.333v0z"></path>
</svg>
