<!-- Generated by IcoMoon.io -->
<svg version="1.1" xmlns="http://www.w3.org/2000/svg" width="32" height="32" viewBox="0 0 32 32">
<title>ul-sad</title>
<path fill="#37352f" d="M11.147 20.44c-0.292 0.246-0.476 0.612-0.476 1.021 0 0.322 0.114 0.617 0.304 0.848l-0.002-0.002c0.246 0.296 0.615 0.482 1.026 0.482 0.326 0 0.624-0.117 0.856-0.311l-0.002 0.002c0.852-0.692 1.951-1.11 3.147-1.11s2.294 0.419 3.156 1.118l-0.009-0.007c0.229 0.191 0.526 0.307 0.851 0.307 0.001 0 0.002 0 0.003 0h-0c0.731-0.007 1.32-0.602 1.32-1.333 0-0.405-0.18-0.767-0.465-1.012l-0.002-0.002c-1.316-1.064-3.009-1.709-4.853-1.709s-3.538 0.644-4.868 1.72l0.015-0.011zM12.28 14.053c0.241 0.24 0.573 0.388 0.94 0.388s0.699-0.148 0.94-0.388l-0 0c0.24-0.241 0.388-0.573 0.388-0.94s-0.148-0.699-0.388-0.94l0 0c-0.735-0.698-1.731-1.128-2.827-1.128s-2.092 0.429-2.828 1.129l0.002-0.002c-0.286 0.246-0.466 0.608-0.466 1.013 0 0.736 0.597 1.333 1.333 1.333 0.404 0 0.767-0.18 1.011-0.464l0.001-0.002c0.242-0.244 0.577-0.394 0.947-0.394s0.705 0.151 0.947 0.394l0 0zM16 2.667c-7.364 0-13.333 5.97-13.333 13.333s5.97 13.333 13.333 13.333c7.364 0 13.333-5.97 13.333-13.333v0c0-7.364-5.97-13.333-13.333-13.333v0zM16 26.667c-5.891 0-10.667-4.776-10.667-10.667s4.776-10.667 10.667-10.667c5.891 0 10.667 4.776 10.667 10.667v0c0 5.891-4.776 10.667-10.667 10.667v0zM23.493 12.173c-0.735-0.698-1.731-1.128-2.827-1.128s-2.092 0.429-2.828 1.129l0.002-0.002c-0.199 0.232-0.321 0.535-0.321 0.867 0 0.736 0.597 1.333 1.333 1.333 0.332 0 0.636-0.121 0.869-0.322l-0.002 0.001c0.242-0.244 0.577-0.394 0.947-0.394s0.705 0.151 0.947 0.394l0 0c0.241 0.24 0.573 0.388 0.94 0.388s0.699-0.148 0.94-0.388l-0 0c0.24-0.241 0.388-0.573 0.388-0.94s-0.148-0.699-0.388-0.94l0 0z"></path>
</svg>
