<!-- Generated by IcoMoon.io -->
<svg version="1.1" xmlns="http://www.w3.org/2000/svg" width="32" height="32" viewBox="0 0 32 32">
<title>ul-shop</title>
<path fill="#37352f" d="M29.333 6.667h-26.667c-0.736 0-1.333 0.597-1.333 1.333v0 5.333c0.005 1.727 1.103 3.196 2.639 3.751l0.028 0.009v12.24c0 0.736 0.597 1.333 1.333 1.333v0h21.333c0.736 0 1.333-0.597 1.333-1.333v0-12.24c1.563-0.564 2.662-2.033 2.667-3.759v-5.334c0-0.736-0.597-1.333-1.333-1.333v0zM20 9.333h2.667v4c0 0.736-0.597 1.333-1.333 1.333s-1.333-0.597-1.333-1.333v0zM14.667 9.333h2.667v4c0 0.736-0.597 1.333-1.333 1.333s-1.333-0.597-1.333-1.333v0zM9.333 9.333h2.667v4c0 0.736-0.597 1.333-1.333 1.333s-1.333-0.597-1.333-1.333v0zM5.333 14.667c-0.736 0-1.333-0.597-1.333-1.333v0-4h2.667v4c0 0.736-0.597 1.333-1.333 1.333v0zM18.667 28h-5.333v-2.667c0-1.473 1.194-2.667 2.667-2.667s2.667 1.194 2.667 2.667v0zM25.333 28h-4v-2.667c0-2.946-2.388-5.333-5.333-5.333s-5.333 2.388-5.333 5.333v0 2.667h-4v-10.907c0.514-0.194 0.957-0.465 1.338-0.804l-0.004 0.004c0.704 0.632 1.64 1.019 2.667 1.019s1.962-0.387 2.67-1.022l-0.004 0.003c0.704 0.632 1.64 1.019 2.667 1.019s1.962-0.387 2.67-1.022l-0.004 0.003c0.704 0.632 1.64 1.019 2.667 1.019s1.962-0.387 2.67-1.022l-0.004 0.003c0.377 0.335 0.819 0.606 1.304 0.79l0.029 0.010zM28 13.333c0 0.736-0.597 1.333-1.333 1.333s-1.333-0.597-1.333-1.333v0-4h2.667zM5.733 4h20.933c0.736 0 1.333-0.597 1.333-1.333s-0.597-1.333-1.333-1.333v0h-20.933c-0.736 0-1.333 0.597-1.333 1.333s0.597 1.333 1.333 1.333v0z"></path>
</svg>
