<!-- Generated by IcoMoon.io -->
<svg version="1.1" xmlns="http://www.w3.org/2000/svg" width="32" height="32" viewBox="0 0 32 32">
<title>ul-spade</title>
<path fill="#37352f" d="M28.080 16.373c-0.010-2.084-0.859-3.968-2.227-5.333l-0-0-7.187-7.293c-0.683-0.682-1.625-1.104-2.667-1.104s-1.984 0.422-2.667 1.104l0-0-7.187 7.227c-1.367 1.365-2.216 3.249-2.227 5.331v0.002c-0 0.028-0.001 0.061-0.001 0.093 0 4.197 3.403 7.6 7.6 7.6 0.010 0 0.019-0 0.029-0h-0.002c-0.36 1.213-0.922 2.267-1.654 3.178l0.014-0.018c-0.186 0.227-0.299 0.521-0.299 0.841 0 0.736 0.597 1.333 1.333 1.333 0.016 0 0.032-0 0.047-0.001l-0.002 0h10.027c0.001 0 0.003 0 0.005 0 0.736 0 1.333-0.597 1.333-1.333 0-0.32-0.112-0.613-0.3-0.842l0.002 0.002c-0.72-0.893-1.282-1.947-1.624-3.095l-0.016-0.065c0.024 0 0.052 0 0.080 0 4.19 0 7.587-3.397 7.587-7.587 0-0.010-0-0.019-0-0.029v0.001zM24 19.88c-0.909 0.896-2.158 1.449-3.536 1.449-0.478 0-0.941-0.067-1.379-0.191l0.036 0.009c-0.034-0.003-0.073-0.005-0.113-0.005s-0.079 0.002-0.118 0.005l0.005-0h-0.267c-0.113 0.021-0.212 0.049-0.306 0.084l0.013-0.004h-0.2c-0.066 0.043-0.122 0.092-0.173 0.146l-0.001 0.001c-0.087 0.053-0.161 0.115-0.226 0.186l-0.001 0.001c-0.024 0.056-0.050 0.104-0.082 0.149l0.002-0.003c-0.050 0.082-0.103 0.183-0.151 0.286l-0.009 0.021c-0.003 0.036-0.005 0.078-0.005 0.12s0.002 0.084 0.005 0.125l-0-0.005c0 0.080 0 0.16 0 0.24v0 0c0.114 1.536 0.505 2.955 1.124 4.244l-0.031-0.071h-5.173c0.6-1.162 1.016-2.516 1.169-3.95l0.004-0.050c0-0.080 0-0.16 0-0.253 0.003-0.036 0.005-0.078 0.005-0.12s-0.002-0.084-0.005-0.125l0 0.005c-0.049-0.122-0.107-0.228-0.176-0.324l0.003 0.004c-0.024-0.051-0.050-0.095-0.081-0.135l0.001 0.002c-0.058-0.075-0.129-0.138-0.21-0.185l-0.003-0.002c-0.053-0.051-0.109-0.099-0.169-0.143l-0.005-0.003h-0.187c-0.089-0.042-0.192-0.075-0.3-0.092l-0.007-0.001h-0.253c-0.036-0.003-0.078-0.005-0.12-0.005s-0.084 0.002-0.125 0.005l0.005-0c-0.384 0.104-0.825 0.164-1.281 0.164-1.447 0-2.752-0.605-3.678-1.575l-0.002-0.002c-0.894-0.9-1.448-2.138-1.453-3.506v-0.001c0-0.005-0-0.010-0-0.015 0-1.365 0.556-2.6 1.453-3.491l0-0 7.2-7.227c0.194-0.189 0.46-0.306 0.753-0.306s0.559 0.117 0.754 0.306l-0-0 7.293 7.227c0.898 0.892 1.453 2.127 1.453 3.491 0 0.005 0 0.011-0 0.016v-0.001c-0.010 1.368-0.563 2.605-1.454 3.507l0-0z"></path>
</svg>
