<!-- Generated by IcoMoon.io -->
<svg version="1.1" xmlns="http://www.w3.org/2000/svg" width="32" height="32" viewBox="0 0 32 32">
<title>ul-sad-crying</title>
<path fill="#37352f" d="M16 2.667c-7.347 0.022-13.295 5.983-13.295 13.333 0 5.718 3.599 10.595 8.656 12.49l0.092 0.030h0.080c1.329 0.498 2.864 0.786 4.467 0.786s3.138-0.288 4.557-0.816l-0.090 0.029h0.080c5.149-1.925 8.748-6.802 8.748-12.52 0-7.35-5.947-13.311-13.292-13.333h-0.002zM18.667 26.32c-0.8 0.22-1.719 0.347-2.667 0.347s-1.867-0.127-2.74-0.364l0.073 0.017v-4.173c0.758-0.478 1.679-0.761 2.667-0.761s1.909 0.283 2.688 0.773l-0.021-0.012zM21.333 25.227v-10.56c0.736 0 1.333-0.597 1.333-1.333s-0.597-1.333-1.333-1.333v0h-2.667c-0.736 0-1.333 0.597-1.333 1.333s0.597 1.333 1.333 1.333v0 4.52c-0.794-0.29-1.711-0.458-2.667-0.458s-1.873 0.168-2.722 0.475l0.056-0.018v-4.52c0.736 0 1.333-0.597 1.333-1.333s-0.597-1.333-1.333-1.333v0h-2.667c-0.736 0-1.333 0.597-1.333 1.333s0.597 1.333 1.333 1.333v0 10.56c-3.211-1.879-5.333-5.31-5.333-9.238 0-5.891 4.776-10.667 10.667-10.667s10.667 4.776 10.667 10.667c0 3.927-2.122 7.359-5.283 9.21l-0.050 0.027z"></path>
</svg>
