<!-- Generated by IcoMoon.io -->
<svg version="1.1" xmlns="http://www.w3.org/2000/svg" width="32" height="32" viewBox="0 0 32 32">
<title>ul-scaling-left</title>
<path fill="#37352f" d="M28 21.333c-0.736 0-1.333 0.597-1.333 1.333v0 2.12l-8.787-8.787 2.84-2.827c0.242-0.242 0.392-0.577 0.392-0.947 0-0.739-0.599-1.339-1.339-1.339-0.37 0-0.704 0.15-0.947 0.392v0l-2.827 2.84-8.787-8.787h2.12c0.736 0 1.333-0.597 1.333-1.333s-0.597-1.333-1.333-1.333v0h-5.333c-0.184 0.002-0.357 0.041-0.515 0.11l0.009-0.003c-0.327 0.138-0.582 0.393-0.717 0.711l-0.003 0.009c-0.065 0.149-0.104 0.323-0.107 0.506v5.334c0 0.736 0.597 1.333 1.333 1.333s1.333-0.597 1.333-1.333v0-2.12l8.787 8.787-2.84 2.827c-0.244 0.242-0.394 0.577-0.394 0.947s0.151 0.705 0.394 0.947l0 0c0.241 0.239 0.573 0.387 0.939 0.387 0.003 0 0.005 0 0.008-0h-0c0.002 0 0.005 0 0.008 0 0.366 0 0.698-0.148 0.939-0.387l-0 0 2.827-2.84 8.787 8.787h-2.12c-0.736 0-1.333 0.597-1.333 1.333s0.597 1.333 1.333 1.333v0h5.333c0.184-0.002 0.357-0.041 0.515-0.11l-0.009 0.003c0.327-0.138 0.582-0.393 0.717-0.711l0.003-0.009c0.065-0.149 0.104-0.323 0.107-0.506v-5.334c0-0.736-0.597-1.333-1.333-1.333v0z"></path>
</svg>
