<!-- Generated by IcoMoon.io -->
<svg version="1.1" xmlns="http://www.w3.org/2000/svg" width="32" height="32" viewBox="0 0 32 32">
<title>ul-share-alt</title>
<path fill="#37352f" d="M24 18.667c-1.654 0.011-3.128 0.774-4.099 1.964l-0.008 0.010-6.8-3.133c0.152-0.45 0.24-0.968 0.24-1.507s-0.088-1.057-0.25-1.541l0.010 0.034 6.8-3.133c0.985 1.183 2.459 1.93 4.107 1.93 2.946 0 5.333-2.388 5.333-5.333s-2.388-5.333-5.333-5.333c-2.946 0-5.333 2.388-5.333 5.333 0 0.015 0 0.030 0 0.045v-0.002c0.004 0.338 0.038 0.664 0.099 0.981l-0.006-0.035-7.040 3.24c-0.961-0.94-2.277-1.52-3.729-1.52-2.946 0-5.333 2.388-5.333 5.333s2.388 5.333 5.333 5.333c1.452 0 2.768-0.58 3.73-1.521l-0.001 0.001 7.040 3.24c-0.055 0.282-0.089 0.609-0.093 0.943l-0 0.004c0 2.946 2.388 5.333 5.333 5.333s5.333-2.388 5.333-5.333c0-2.946-2.388-5.333-5.333-5.333v0zM24 5.333c1.473 0 2.667 1.194 2.667 2.667s-1.194 2.667-2.667 2.667c-1.473 0-2.667-1.194-2.667-2.667v0c0-1.473 1.194-2.667 2.667-2.667v0zM8 18.667c-1.473 0-2.667-1.194-2.667-2.667s1.194-2.667 2.667-2.667c1.473 0 2.667 1.194 2.667 2.667v0c0 1.473-1.194 2.667-2.667 2.667v0zM24 26.667c-1.473 0-2.667-1.194-2.667-2.667s1.194-2.667 2.667-2.667c1.473 0 2.667 1.194 2.667 2.667v0c0 1.473-1.194 2.667-2.667 2.667v0z"></path>
</svg>
