<!-- Generated by IcoMoon.io -->
<svg version="1.1" xmlns="http://www.w3.org/2000/svg" width="32" height="32" viewBox="0 0 32 32">
<title>ul-shutter-alt</title>
<path fill="#37352f" d="M29.333 14.667c-0.003-0.032-0.004-0.069-0.004-0.107s0.002-0.075 0.005-0.111l-0 0.005c0-0.373-0.107-0.747-0.173-1.12v0c-0.269-1.2-0.669-2.259-1.193-3.242l0.033 0.068c-1.827-3.679-5.201-6.356-9.247-7.198l-0.087-0.015-1.12-0.173h-0.707l-0.84-0.107c-0.453 0-0.907 0-1.333 0h-0.213l-1.12 0.267c-5.237 1.102-9.292 5.161-10.371 10.313l-0.015 0.087c-0.067 0.373-0.12 0.747-0.173 1.12 0.003 0.032 0.004 0.069 0.004 0.107s-0.002 0.075-0.005 0.111l0-0.005c0 0.44 0 0.893 0 1.333s0 0.907 0 1.333c0.003 0.032 0.004 0.069 0.004 0.107s-0.002 0.075-0.005 0.111l0-0.005c0 0.373 0.107 0.747 0.173 1.12v0c0.232 1.195 0.597 2.258 1.087 3.248l-0.033-0.074c1.827 3.679 5.201 6.356 9.247 7.198l0.087 0.015 1.12 0.173 0.213 0.107h0.64c0.24 0 0.467 0 0.707 0 0.453 0 0.907 0 1.333-0.067h0.213l1.107-0.2c5.237-1.102 9.292-5.161 10.371-10.313l0.015-0.087c0.067-0.373 0.12-0.747 0.173-1.12 0.033-0.082 0.068-0.153 0.11-0.219l-0.003 0.006c0-0.44 0.067-0.893 0.067-1.333s-0.067-0.907-0.067-1.333zM17.547 5.467l0.667 0.093c2.486 0.543 4.594 1.891 6.091 3.753l0.016 0.021h-9.093zM13.893 5.573v0l0.533-0.080-4.587 7.84-2.24-3.893c1.527-1.945 3.682-3.335 6.157-3.867l0.070-0.013zM6.12 20c-0.217-0.514-0.41-1.125-0.547-1.756l-0.013-0.070c0-0.293-0.107-0.6-0.133-0.907-0.003-0.024-0.005-0.052-0.005-0.080s0.002-0.056 0.005-0.083l-0 0.003c-0.034-0.324-0.053-0.7-0.053-1.080s0.019-0.756 0.057-1.127l-0.004 0.046c-0.003-0.024-0.005-0.052-0.005-0.080s0.002-0.056 0.005-0.083l-0 0.003c0-0.307 0.080-0.613 0.133-0.907v0c0.134-0.671 0.309-1.256 0.531-1.817l-0.024 0.070 4.6 7.867zM14.52 26.547l-0.667-0.093c-2.513-0.532-4.647-1.888-6.157-3.766l-0.016-0.021h9.093zM13.693 20l-2.307-4 2.307-4h4.613l2.307 4-2.307 4zM18.173 26.44v0l-0.533 0.080 4.52-7.853 2.24 3.893c-1.527 1.945-3.682 3.335-6.157 3.867l-0.070 0.013zM26.613 17.107c0.003 0.024 0.005 0.052 0.005 0.080s-0.002 0.056-0.005 0.083l0-0.003c0 0.307-0.080 0.613-0.133 0.907v0c-0.137 0.653-0.312 1.219-0.531 1.763l0.025-0.069-4.64-7.867h4.493c0.217 0.514 0.41 1.125 0.547 1.756l0.013 0.070c0 0.293 0.107 0.6 0.133 0.907 0.003 0.024 0.005 0.052 0.005 0.080s-0.002 0.056-0.005 0.083l0-0.003c0.034 0.324 0.053 0.7 0.053 1.080s-0.019 0.756-0.057 1.127l0.004-0.047z"></path>
</svg>
