<!-- Generated by IcoMoon.io -->
<svg version="1.1" xmlns="http://www.w3.org/2000/svg" width="32" height="32" viewBox="0 0 32 32">
<title>ul-scaling-right</title>
<path fill="#37352f" d="M29.227 3.493c-0.138-0.327-0.393-0.582-0.711-0.717l-0.009-0.003c-0.149-0.065-0.323-0.104-0.506-0.107h-5.334c-0.736 0-1.333 0.597-1.333 1.333s0.597 1.333 1.333 1.333v0h2.12l-8.787 8.787-2.827-2.84c-0.242-0.242-0.577-0.392-0.947-0.392-0.739 0-1.339 0.599-1.339 1.339 0 0.37 0.15 0.704 0.392 0.947v0l2.84 2.827-8.787 8.787v-2.12c0-0.736-0.597-1.333-1.333-1.333s-1.333 0.597-1.333 1.333v0 5.333c0.002 0.184 0.041 0.357 0.11 0.515l-0.003-0.009c0.138 0.327 0.393 0.582 0.711 0.717l0.009 0.003c0.149 0.065 0.323 0.104 0.506 0.107h5.334c0.736 0 1.333-0.597 1.333-1.333s-0.597-1.333-1.333-1.333v0h-2.12l8.787-8.787 2.827 2.84c0.241 0.239 0.573 0.387 0.939 0.387 0.003 0 0.005 0 0.008-0h-0c0.002 0 0.005 0 0.008 0 0.366 0 0.698-0.148 0.939-0.387l-0 0c0.244-0.242 0.394-0.577 0.394-0.947s-0.151-0.705-0.394-0.947l-0-0-2.84-2.827 8.787-8.787v2.12c0 0.736 0.597 1.333 1.333 1.333s1.333-0.597 1.333-1.333v0-5.333c-0.002-0.184-0.041-0.357-0.11-0.515l0.003 0.009z"></path>
</svg>
