<!-- Generated by IcoMoon.io -->
<svg version="1.1" xmlns="http://www.w3.org/2000/svg" width="32" height="32" viewBox="0 0 32 32">
<title>ul-sign-left</title>
<path fill="#37352f" d="M21.333 6.667h-4v-2.667c0-0.736-0.597-1.333-1.333-1.333s-1.333 0.597-1.333 1.333v0 2.667h-6.667c-0.421 0.002-0.795 0.198-1.038 0.504l-0.002 0.003-2.667 3.333c-0.179 0.225-0.287 0.513-0.287 0.827s0.108 0.602 0.289 0.829l-0.002-0.003 2.667 3.333c0.245 0.308 0.619 0.505 1.040 0.507h6.667v10.667h-2.667c-0.736 0-1.333 0.597-1.333 1.333s0.597 1.333 1.333 1.333v0h8c0.736 0 1.333-0.597 1.333-1.333s-0.597-1.333-1.333-1.333v0h-2.667v-10.667h4c0.736 0 1.333-0.597 1.333-1.333v0-6.667c0-0.736-0.597-1.333-1.333-1.333v0zM20 13.333h-11.36l-1.6-2 1.6-2h11.36z"></path>
</svg>
