<!-- Generated by IcoMoon.io -->
<svg version="1.1" xmlns="http://www.w3.org/2000/svg" width="32" height="32" viewBox="0 0 32 32">
<title>ul-user-exclamation</title>
<path fill="#37352f" d="M19.4 16.293c1.392-1.21 2.267-2.983 2.267-4.96 0-0 0-0 0-0v0c0-3.682-2.985-6.667-6.667-6.667s-6.667 2.985-6.667 6.667v0c0.018 1.987 0.916 3.761 2.324 4.952l0.010 0.008c-3.723 1.716-6.262 5.414-6.267 9.706v0.001c0 0.736 0.597 1.333 1.333 1.333s1.333-0.597 1.333-1.333v0c0-4.418 3.582-8 8-8s8 3.582 8 8v0c0 0.736 0.597 1.333 1.333 1.333s1.333-0.597 1.333-1.333v0c-0.017-4.306-2.583-8.009-6.266-9.679l-0.067-0.027zM15 15.333c-2.209 0-4-1.791-4-4s1.791-4 4-4c2.209 0 4 1.791 4 4v0c0 2.209-1.791 4-4 4v0zM26.333 8.667c-0.736 0-1.333 0.597-1.333 1.333v0 2.667c0 0.736 0.597 1.333 1.333 1.333s1.333-0.597 1.333-1.333v0-2.667c0-0.736-0.597-1.333-1.333-1.333v0zM25.333 15.72c-0.235 0.246-0.381 0.579-0.387 0.946v0.001c0 0.002-0 0.005-0 0.008 0 0.366 0.148 0.698 0.387 0.939l-0-0c0.125 0.114 0.271 0.208 0.43 0.276l0.010 0.004c0.149 0.068 0.323 0.107 0.507 0.107s0.358-0.039 0.515-0.11l-0.008 0.003c0.336-0.124 0.596-0.384 0.717-0.712l0.003-0.008c0.068-0.14 0.107-0.304 0.107-0.478 0-0.010-0-0.020-0-0.030l0 0.002c0-0.002 0-0.005 0-0.008 0-0.736-0.597-1.333-1.333-1.333-0.37 0-0.705 0.151-0.947 0.394l-0 0z"></path>
</svg>
