<!-- Generated by IcoMoon.io -->
<svg version="1.1" xmlns="http://www.w3.org/2000/svg" width="32" height="32" viewBox="0 0 32 32">
<title>ul-user-arrows</title>
<path fill="#37352f" d="M27.52 21.029c0.708-0.805 1.141-1.866 1.146-3.028v-0.001c0-2.577-2.089-4.667-4.667-4.667s-4.667 2.089-4.667 4.667v0c0.005 1.163 0.438 2.224 1.151 3.034l-0.004-0.005c-1.897 1.19-3.141 3.268-3.146 5.637v0.001c0 0.736 0.597 1.333 1.333 1.333s1.333-0.597 1.333-1.333v0c0-2.209 1.791-4 4-4s4 1.791 4 4v0c0 0.736 0.597 1.333 1.333 1.333s1.333-0.597 1.333-1.333v0c-0.006-2.37-1.249-4.448-3.119-5.621l-0.028-0.016zM24 20c-1.105 0-2-0.895-2-2s0.895-2 2-2c1.105 0 2 0.895 2 2v0c-0.001 1.104-0.896 1.999-2 2h-0zM9.058 10.276l2.666 2.666c0.24 0.236 0.57 0.382 0.934 0.382 0.736 0 1.333-0.597 1.333-1.333 0-0.364-0.146-0.694-0.382-0.934l-0.39-0.39h5.563l-0.391 0.391c-0.245 0.242-0.396 0.578-0.396 0.949 0 0.736 0.597 1.333 1.333 1.333 0.371 0 0.707-0.152 0.948-0.396l2.666-2.666c0.24-0.242 0.389-0.575 0.389-0.943s-0.149-0.701-0.389-0.943l-2.666-2.666c-0.24-0.236-0.57-0.382-0.934-0.382-0.736 0-1.333 0.597-1.333 1.333 0 0.364 0.146 0.694 0.382 0.934l0.39 0.39h-5.563l0.391-0.391c0.238-0.241 0.385-0.572 0.385-0.937 0-0.736-0.597-1.333-1.333-1.333-0.365 0-0.696 0.147-0.937 0.385l-2.666 2.666c-0.24 0.242-0.389 0.575-0.389 0.943s0.149 0.701 0.389 0.943l-0-0zM11.52 21.029c0.708-0.805 1.141-1.866 1.146-3.028v-0.001c0-2.577-2.089-4.667-4.667-4.667s-4.667 2.089-4.667 4.667v0c0.005 1.163 0.438 2.224 1.151 3.034l-0.004-0.005c-1.897 1.19-3.141 3.268-3.146 5.637v0.001c0 0.736 0.597 1.333 1.333 1.333s1.333-0.597 1.333-1.333v0c0-2.209 1.791-4 4-4s4 1.791 4 4v0c0 0.736 0.597 1.333 1.333 1.333s1.333-0.597 1.333-1.333v0c-0.006-2.37-1.249-4.448-3.119-5.621l-0.028-0.016zM8 20c-1.105 0-2-0.895-2-2s0.895-2 2-2c1.105 0 2 0.895 2 2v0c-0.001 1.104-0.896 1.999-2 2h-0z"></path>
</svg>
