<!-- Generated by IcoMoon.io -->
<svg version="1.1" xmlns="http://www.w3.org/2000/svg" width="32" height="32" viewBox="0 0 32 32">
<title>ul-volume-down</title>
<path fill="#37352f" d="M25.107 12.227c-0.242-0.242-0.577-0.392-0.947-0.392-0.739 0-1.339 0.599-1.339 1.339 0 0.37 0.15 0.704 0.392 0.947v0c0.483 0.481 0.783 1.145 0.787 1.879v0.001c0 0.001 0 0.001 0 0.002 0 0.816-0.366 1.545-0.943 2.035l-0.004 0.003c-0.296 0.246-0.482 0.615-0.482 1.026 0 0.326 0.117 0.624 0.311 0.856l-0.002-0.002c0.246 0.291 0.612 0.474 1.020 0.474 0.329 0 0.63-0.119 0.862-0.316l-0.002 0.002c1.167-0.983 1.904-2.445 1.907-4.080v-0c-0.008-1.472-0.602-2.803-1.561-3.774l0.001 0.001zM19.24 5.467c-0.156-0.069-0.338-0.11-0.529-0.11-0.303 0-0.583 0.101-0.807 0.272l0.003-0.002-6.373 5.040h-4.867c-0.736 0-1.333 0.597-1.333 1.333v0 8c0 0.736 0.597 1.333 1.333 1.333v0h4.867l6.307 5.040c0.224 0.181 0.512 0.291 0.826 0.293h0c0.006 0 0.013 0 0.020 0 0.202 0 0.392-0.049 0.56-0.137l-0.007 0.003c0.452-0.219 0.758-0.673 0.76-1.2v-18.667c-0.002-0.527-0.308-0.981-0.752-1.197l-0.008-0.003zM17.333 22.56l-4.507-3.6c-0.224-0.181-0.512-0.291-0.826-0.293h-4v-5.333h4c0.314-0.002 0.602-0.112 0.829-0.295l-0.003 0.002 4.507-3.6z"></path>
</svg>
