<!-- Generated by IcoMoon.io -->
<svg version="1.1" xmlns="http://www.w3.org/2000/svg" width="40" height="40" viewBox="0 0 40 40">
<title>analytics</title>
<path fill="#ebebeb" d="M10.667 20c-0.736 0-1.333 0.597-1.333 1.333v0 10.667c0 0.736 0.597 1.333 1.333 1.333s1.333-0.597 1.333-1.333v0-10.667c0-0.736-0.597-1.333-1.333-1.333v0zM17.333 6.667c-0.736 0-1.333 0.597-1.333 1.333v0 24c0 0.736 0.597 1.333 1.333 1.333s1.333-0.597 1.333-1.333v0-24c0-0.736-0.597-1.333-1.333-1.333v0zM30.667 25.333c-0.736 0-1.333 0.597-1.333 1.333v0 5.333c0 0.736 0.597 1.333 1.333 1.333s1.333-0.597 1.333-1.333v0-5.333c0-0.736-0.597-1.333-1.333-1.333v0zM24 14.667c-0.736 0-1.333 0.597-1.333 1.333v0 16c0 0.736 0.597 1.333 1.333 1.333s1.333-0.597 1.333-1.333v0-16c0-0.736-0.597-1.333-1.333-1.333v0z"></path>
</svg>
