<!-- Generated by IcoMoon.io -->
<svg version="1.1" xmlns="http://www.w3.org/2000/svg" width="40" height="40" viewBox="0 0 40 40">
<title>anchor</title>
<path fill="#ebebeb" d="M29.333 21.333h-2.667c-0.736 0-1.333 0.597-1.333 1.333s0.597 1.333 1.333 1.333v0h1.213c-0.585 3.354-3.193 5.961-6.499 6.54l-0.048 0.007v-11.88h1.333c0.736 0 1.333-0.597 1.333-1.333s-0.597-1.333-1.333-1.333v0h-1.333v-1.573c1.567-0.566 2.667-2.040 2.667-3.771 0-2.209-1.791-4-4-4s-4 1.791-4 4c0 1.731 1.1 3.206 2.639 3.762l0.028 0.009v1.573h-1.333c-0.736 0-1.333 0.597-1.333 1.333s0.597 1.333 1.333 1.333v0h1.333v11.88c-3.354-0.585-5.961-3.193-6.54-6.499l-0.007-0.048h1.213c0.736 0 1.333-0.597 1.333-1.333s-0.597-1.333-1.333-1.333v0h-2.667c-0.736 0-1.333 0.597-1.333 1.333v0c0 5.891 4.776 10.667 10.667 10.667s10.667-4.776 10.667-10.667v0c0-0.736-0.597-1.333-1.333-1.333v0zM20 12c-0.736 0-1.333-0.597-1.333-1.333s0.597-1.333 1.333-1.333c0.736 0 1.333 0.597 1.333 1.333v0c0 0.736-0.597 1.333-1.333 1.333v0z"></path>
</svg>
