<!-- Generated by IcoMoon.io -->
<svg version="1.1" xmlns="http://www.w3.org/2000/svg" width="40" height="40" viewBox="0 0 40 40">
<title>android-alt</title>
<path fill="#ebebeb" d="M7.989 16.001c-0 0-0 0-0 0-0.736 0-1.333 0.597-1.333 1.333 0 0 0 0 0 0v-0 5.333c0 0.736 0.597 1.333 1.333 1.333s1.333-0.597 1.333-1.333v0-5.333c0-0 0-0 0-0 0-0.736-0.597-1.333-1.333-1.333-0 0-0 0-0 0h0zM31.989 16.001c-0 0-0 0-0 0-0.736 0-1.333 0.597-1.333 1.333 0 0 0 0 0 0v-0 5.333c0 0.736 0.597 1.333 1.333 1.333s1.333-0.597 1.333-1.333v0-5.333c0-0 0-0 0-0 0-0.736-0.597-1.333-1.333-1.333-0 0-0 0-0 0h0zM26.477 8.667c0.114-0.192 0.181-0.423 0.181-0.67 0-0.736-0.597-1.333-1.333-1.333-0.492 0-0.922 0.267-1.153 0.663l-0.003 0.006-0.819 1.416c-0.984-0.473-2.14-0.75-3.36-0.75s-2.376 0.277-3.408 0.77l0.048-0.021-0.819-1.416c-0.234-0.403-0.664-0.67-1.156-0.67-0.736 0-1.333 0.597-1.333 1.333 0 0.247 0.067 0.478 0.184 0.676l-0.003-0.006 0.923 1.597c-1.503 1.452-2.436 3.485-2.436 5.736 0 0 0 0 0 0v0 10.667c0 0 0 0 0 0 0 0.736 0.597 1.333 1.333 1.333 0 0 0 0 0 0h2.667v4c0 0.736 0.597 1.333 1.333 1.333s1.333-0.597 1.333-1.333v0-4h2.667v4c0 0.736 0.597 1.333 1.333 1.333s1.333-0.597 1.333-1.333v0-4h2.667c0 0 0 0 0 0 0.736 0 1.333-0.597 1.333-1.333 0-0 0-0 0-0v0-10.667c0-0 0-0 0-0 0-2.251-0.933-4.284-2.433-5.734l-0.002-0.002zM25.322 25.334h-10.667v-6.667h10.667zM14.656 16.001c0-2.946 2.388-5.333 5.333-5.333s5.333 2.388 5.333 5.333v0z"></path>
</svg>
