<!-- Generated by IcoMoon.io -->
<svg version="1.1" xmlns="http://www.w3.org/2000/svg" width="40" height="40" viewBox="0 0 40 40">
<title>angle-up</title>
<path fill="#ebebeb" d="M26.667 21.88l-5.72-5.653c-0.242-0.244-0.577-0.394-0.947-0.394s-0.705 0.151-0.947 0.394l-5.653 5.653c-0.244 0.242-0.394 0.577-0.394 0.947s0.151 0.705 0.394 0.947l0 0c0.241 0.24 0.573 0.388 0.94 0.388s0.699-0.148 0.94-0.388l4.72-4.72 4.72 4.72c0.24 0.238 0.569 0.385 0.933 0.387h0c0.002 0 0.005 0 0.008 0 0.366 0 0.698-0.148 0.939-0.387l-0 0c0.264-0.244 0.429-0.593 0.429-0.98 0-0.354-0.138-0.676-0.363-0.914l0.001 0.001z"></path>
</svg>
