<!-- Generated by IcoMoon.io -->
<svg version="1.1" xmlns="http://www.w3.org/2000/svg" width="40" height="40" viewBox="0 0 40 40">
<title>apps</title>
<path fill="#ebebeb" d="M17.333 21.333h-9.333c-0.736 0-1.333 0.597-1.333 1.333v0 9.333c0 0.736 0.597 1.333 1.333 1.333v0h9.333c0.736 0 1.333-0.597 1.333-1.333v0-9.333c0-0.736-0.597-1.333-1.333-1.333v0zM16 30.667h-6.667v-6.667h6.667zM32 6.667h-9.333c-0.736 0-1.333 0.597-1.333 1.333v0 9.333c0 0.736 0.597 1.333 1.333 1.333v0h9.333c0.736 0 1.333-0.597 1.333-1.333v0-9.333c0-0.736-0.597-1.333-1.333-1.333v0zM30.667 16h-6.667v-6.667h6.667zM32 21.333h-9.333c-0.736 0-1.333 0.597-1.333 1.333v0 9.333c0 0.736 0.597 1.333 1.333 1.333v0h9.333c0.736 0 1.333-0.597 1.333-1.333v0-9.333c0-0.736-0.597-1.333-1.333-1.333v0zM30.667 30.667h-6.667v-6.667h6.667zM17.333 6.667h-9.333c-0.736 0-1.333 0.597-1.333 1.333v0 9.333c0 0.736 0.597 1.333 1.333 1.333v0h9.333c0.736 0 1.333-0.597 1.333-1.333v0-9.333c0-0.736-0.597-1.333-1.333-1.333v0zM16 16h-6.667v-6.667h6.667z"></path>
</svg>
