<!-- Generated by IcoMoon.io -->
<svg version="1.1" xmlns="http://www.w3.org/2000/svg" width="40" height="40" viewBox="0 0 40 40">
<title>archway</title>
<path fill="#ebebeb" d="M33.333 30.667h-1.333v-16h1.333c0.736 0 1.333-0.597 1.333-1.333s-0.597-1.333-1.333-1.333v0h-1.333v-4c0-0.736-0.597-1.333-1.333-1.333v0h-21.333c-0.736 0-1.333 0.597-1.333 1.333v0 4h-1.333c-0.736 0-1.333 0.597-1.333 1.333s0.597 1.333 1.333 1.333v0h1.333v16h-1.333c-0.736 0-1.333 0.597-1.333 1.333s0.597 1.333 1.333 1.333v0h26.667c0.736 0 1.333-0.597 1.333-1.333s-0.597-1.333-1.333-1.333v0zM24 30.667h-8v-4.707c0-0.006-0-0.012-0-0.019 0-2.991 1.586-5.612 3.964-7.067l0.036-0.021c2.414 1.476 4 4.097 4 7.088 0 0.007 0 0.013-0 0.020v-0.001zM29.333 30.667h-2.667v-4.707c0-0.014 0-0.031 0-0.048 0-4.258-2.443-7.946-6.004-9.737l-0.063-0.029c-0.175-0.090-0.381-0.143-0.6-0.143s-0.425 0.053-0.608 0.146l0.008-0.004c-3.624 1.82-6.067 5.508-6.067 9.766 0 0.017 0 0.033 0 0.050v-0.003 4.707h-2.667v-16h18.667zM29.333 12h-18.667v-2.667h18.667z"></path>
</svg>
