<!-- Generated by IcoMoon.io -->
<svg version="1.1" xmlns="http://www.w3.org/2000/svg" width="40" height="40" viewBox="0 0 40 40">
<title>arrow-down</title>
<path fill="#ebebeb" d="M27.613 19.053c-0.242-0.244-0.577-0.394-0.947-0.394s-0.705 0.151-0.947 0.394l-0 0-4.387 4.4v-10.12c0-0.736-0.597-1.333-1.333-1.333s-1.333 0.597-1.333 1.333v0 10.12l-4.387-4.4c-0.242-0.242-0.577-0.392-0.947-0.392-0.739 0-1.339 0.599-1.339 1.339 0 0.37 0.15 0.704 0.392 0.947l6.667 6.667c0.123 0.118 0.269 0.213 0.431 0.277l0.009 0.003c0.149 0.068 0.323 0.107 0.507 0.107s0.358-0.039 0.515-0.11l-0.008 0.003c0.171-0.067 0.317-0.162 0.44-0.28l-0 0 6.667-6.667c0.244-0.242 0.394-0.577 0.394-0.947s-0.151-0.705-0.394-0.947l-0-0z"></path>
</svg>
