<!-- Generated by IcoMoon.io -->
<svg version="1.1" xmlns="http://www.w3.org/2000/svg" width="40" height="40" viewBox="0 0 40 40">
<title>arrows-v</title>
<path fill="#ebebeb" d="M24.387 25.72l-3.053 3.067v-17.573l3.053 3.067c0.242 0.244 0.577 0.394 0.947 0.394s0.705-0.151 0.947-0.394l0-0c0.244-0.242 0.394-0.577 0.394-0.947s-0.151-0.705-0.394-0.947l-5.333-5.333c-0.123-0.118-0.269-0.213-0.431-0.277l-0.009-0.003c-0.15-0.063-0.324-0.1-0.507-0.1s-0.357 0.037-0.515 0.103l0.009-0.003c-0.171 0.067-0.317 0.162-0.44 0.28l0-0-5.333 5.333c-0.242 0.242-0.392 0.577-0.392 0.947 0 0.739 0.599 1.339 1.339 1.339 0.37 0 0.704-0.15 0.947-0.392v0l3.053-3.067v17.573l-3.053-3.067c-0.242-0.242-0.577-0.392-0.947-0.392-0.739 0-1.339 0.599-1.339 1.339 0 0.37 0.15 0.704 0.392 0.947l5.333 5.333c0.123 0.118 0.269 0.213 0.431 0.277l0.009 0.003c0.149 0.068 0.323 0.107 0.507 0.107s0.358-0.039 0.515-0.11l-0.008 0.003c0.171-0.067 0.317-0.162 0.44-0.28l-0 0 5.333-5.333c0.242-0.242 0.392-0.577 0.392-0.947 0-0.739-0.599-1.339-1.339-1.339-0.37 0-0.704 0.15-0.947 0.392v0z"></path>
</svg>
