<!-- Generated by IcoMoon.io -->
<svg version="1.1" xmlns="http://www.w3.org/2000/svg" width="40" height="40" viewBox="0 0 40 40">
<title>asterisk</title>
<path fill="#ebebeb" d="M28.749 23.512l-6.082-3.512 6.082-3.512c0.401-0.235 0.666-0.664 0.666-1.155 0-0.736-0.597-1.334-1.334-1.334-0.245 0-0.475 0.066-0.672 0.182l0.006-0.003-6.083 3.512v-7.024c0-0.736-0.597-1.333-1.333-1.333s-1.333 0.597-1.333 1.333v0 7.024l-6.083-3.512c-0.191-0.112-0.421-0.178-0.666-0.178-0.736 0-1.334 0.597-1.334 1.334 0 0.491 0.265 0.92 0.66 1.151l0.006 0.003 6.082 3.512-6.082 3.512c-0.401 0.235-0.666 0.664-0.666 1.155 0 0.736 0.597 1.334 1.334 1.334 0.245 0 0.475-0.066 0.672-0.182l-0.006 0.003 6.083-3.512v7.024c0 0.736 0.597 1.333 1.333 1.333s1.333-0.597 1.333-1.333v0-7.024l6.083 3.512c0.191 0.112 0.421 0.178 0.666 0.178 0.736 0 1.334-0.597 1.334-1.334 0-0.491-0.265-0.92-0.66-1.151l-0.006-0.003z"></path>
</svg>
