<!-- Generated by IcoMoon.io -->
<svg version="1.1" xmlns="http://www.w3.org/2000/svg" width="40" height="40" viewBox="0 0 40 40">
<title>auto-flash</title>
<path fill="#ebebeb" d="M27.827 15.467c-0.202-0.457-0.641-0.775-1.157-0.8l-0.003-0h-6.107l1.693-6.32c0.030-0.105 0.047-0.226 0.047-0.351 0-0.306-0.103-0.587-0.276-0.812l0.002 0.003c-0.246-0.318-0.628-0.52-1.057-0.52-0.004 0-0.007 0-0.011 0h-9.333c-0.014-0.001-0.030-0.001-0.046-0.001-0.613 0-1.13 0.414-1.286 0.978l-0.002 0.009-3.573 13.333c-0.029 0.104-0.046 0.224-0.046 0.347 0 0.736 0.597 1.333 1.333 1.333 0.016 0 0.032-0 0.048-0.001l-0.002 0h5.133l-2.413 8.987c-0.030 0.105-0.047 0.226-0.047 0.351 0 0.736 0.597 1.333 1.333 1.333 0.394 0 0.749-0.171 0.993-0.443l0.001-0.001 14.533-16c0.216-0.236 0.349-0.552 0.349-0.899 0-0.191-0.040-0.372-0.112-0.536l0.003 0.009zM14.773 27.040l1.44-5.333c0.036-0.115 0.056-0.246 0.056-0.383 0-0.303-0.101-0.583-0.272-0.807l0.002 0.003c-0.246-0.318-0.628-0.52-1.057-0.52-0.008 0-0.016 0-0.025 0l0.001-0h-5.12l2.853-10.667h6.573l-1.693 6.32c-0.029 0.104-0.046 0.224-0.046 0.347 0 0.736 0.597 1.333 1.333 1.333 0.016 0 0.032-0 0.048-0.001l-0.002 0h4.76zM29.333 21.333h-1.333c-2.209 0-4 1.791-4 4v0 6.667c0 0.736 0.597 1.333 1.333 1.333s1.333-0.597 1.333-1.333v0-2.667h4v2.667c0 0.736 0.597 1.333 1.333 1.333s1.333-0.597 1.333-1.333v0-6.667c0-2.209-1.791-4-4-4v0zM30.667 26.667h-4v-1.333c0-0.736 0.597-1.333 1.333-1.333v0h1.333c0.736 0 1.333 0.597 1.333 1.333v0z"></path>
</svg>
