<!-- Generated by IcoMoon.io -->
<svg version="1.1" xmlns="http://www.w3.org/2000/svg" width="40" height="40" viewBox="0 0 40 40">
<title>bag</title>
<path fill="#ebebeb" d="M29.333 12h-4v-1.333c0-1.473-1.194-2.667-2.667-2.667v0h-5.333c-1.473 0-2.667 1.194-2.667 2.667v0 1.333h-4c-2.209 0-4 1.791-4 4v0 12c0 2.209 1.791 4 4 4v0h18.667c2.209 0 4-1.791 4-4v0-12c0-2.209-1.791-4-4-4v0zM17.333 10.667h5.333v1.333h-5.333zM30.667 28c0 0.736-0.597 1.333-1.333 1.333v0h-18.667c-0.736 0-1.333-0.597-1.333-1.333v0-7.48l6.24 2.147c0.064 0.009 0.138 0.014 0.213 0.014s0.149-0.005 0.222-0.015l-0.008 0.001h8c0.153-0.003 0.3-0.027 0.438-0.070l-0.011 0.003 6.24-2.080zM30.667 17.707l-6.88 2.293h-7.573l-6.88-2.293v-1.707c0-0.736 0.597-1.333 1.333-1.333v0h18.667c0.736 0 1.333 0.597 1.333 1.333v0z"></path>
</svg>
