<!-- Generated by IcoMoon.io -->
<svg version="1.1" xmlns="http://www.w3.org/2000/svg" width="40" height="40" viewBox="0 0 40 40">
<title>bolt-slash</title>
<path fill="#ebebeb" d="M15.56 9.64c0.102 0.028 0.219 0.044 0.339 0.044 0.348 0 0.665-0.133 0.902-0.351l-0.001 0.001h6.8l-1.693 6.32c-0.030 0.105-0.047 0.226-0.047 0.351 0 0.306 0.103 0.587 0.276 0.812l-0.002-0.003c0.246 0.317 0.626 0.519 1.053 0.52h4.814l-1.507 1.653c-0.213 0.235-0.343 0.549-0.343 0.893 0 0.391 0.168 0.742 0.436 0.986l0.001 0.001c0.235 0.214 0.549 0.346 0.893 0.347h0c0.391-0.001 0.742-0.17 0.986-0.439l0.001-0.001 3.533-3.88c0.213-0.235 0.344-0.549 0.344-0.894 0-0.736-0.597-1.333-1.333-1.333-0.013 0-0.026 0-0.039 0.001l0.002-0h-6.053l1.747-6.32c0.028-0.101 0.044-0.218 0.044-0.338 0-0.311-0.107-0.598-0.286-0.825l0.002 0.003c-0.246-0.318-0.628-0.521-1.057-0.521-0.013 0-0.026 0-0.038 0.001l0.002-0h-9.333c-0.014-0.001-0.030-0.001-0.046-0.001-0.613 0-1.13 0.414-1.286 0.978l-0.002 0.009v0.347c-0.032 0.109-0.051 0.235-0.051 0.365 0 0.598 0.393 1.103 0.935 1.273l0.009 0.003zM32.893 31.053l-24-24c-0.217-0.16-0.49-0.256-0.785-0.256-0.736 0-1.333 0.597-1.333 1.333 0 0.309 0.105 0.593 0.281 0.819l-0.002-0.003 5.76 5.72-1.68 6.32c-0.028 0.101-0.044 0.218-0.044 0.338 0 0.311 0.107 0.598 0.286 0.825l-0.002-0.003c0.246 0.317 0.626 0.519 1.053 0.52h5.12l-2.413 8.987c-0.029 0.104-0.046 0.224-0.046 0.347 0 0.504 0.28 0.943 0.692 1.169l0.007 0.003c0.183 0.101 0.401 0.16 0.633 0.16 0.002 0 0.005 0 0.007-0h-0c0.391-0.001 0.742-0.17 0.986-0.439l0.001-0.001 6.467-7.12 7.173 7.173c0.242 0.244 0.577 0.394 0.947 0.394s0.705-0.151 0.947-0.394l0-0c0.244-0.242 0.394-0.577 0.394-0.947s-0.151-0.705-0.394-0.947l-0-0zM14.16 20l0.84-3.12 3.12 3.12zM19.133 27.040l1.333-4.747 1.6 1.587z"></path>
</svg>
