<!-- Generated by IcoMoon.io -->
<svg version="1.1" xmlns="http://www.w3.org/2000/svg" width="40" height="40" viewBox="0 0 40 40">
<title>bolt-alt</title>
<path fill="#ebebeb" d="M30.52 16.733c-0.224-0.437-0.671-0.732-1.186-0.733h-6.667v-8c0.001-0.019 0.002-0.042 0.002-0.065 0-0.589-0.382-1.089-0.912-1.265l-0.009-0.003c-0.124-0.042-0.268-0.067-0.417-0.067-0.441 0-0.831 0.214-1.074 0.543l-0.003 0.004-10.667 14.667c-0.148 0.212-0.237 0.475-0.237 0.759 0 0.209 0.048 0.407 0.134 0.583l-0.003-0.008c0.191 0.486 0.646 0.829 1.184 0.853l0.003 0h6.667v8c0 0.588 0.382 1.087 0.911 1.264l0.009 0.003c0.123 0.040 0.265 0.064 0.412 0.067l0.001 0c0.001 0 0.002 0 0.003 0 0.441 0 0.831-0.214 1.074-0.543l0.003-0.004 10.667-14.667c0.158-0.216 0.252-0.487 0.252-0.781 0-0.221-0.054-0.43-0.149-0.614l0.004 0.007zM20 27.893v-5.227c0-0.736-0.597-1.333-1.333-1.333v0h-5.333l6.667-9.227v5.227c0 0.736 0.597 1.333 1.333 1.333v0h5.333z"></path>
</svg>
