<!-- Generated by IcoMoon.io -->
<svg version="1.1" xmlns="http://www.w3.org/2000/svg" width="40" height="40" viewBox="0 0 40 40">
<title>camera-change</title>
<path fill="#ebebeb" d="M20.387 10.947l2 2c0.242 0.244 0.577 0.394 0.947 0.394s0.705-0.151 0.947-0.394l0-0c0.228-0.239 0.368-0.563 0.368-0.92 0-0.256-0.072-0.496-0.198-0.699l0.003 0.006h4.88c0.736 0 1.333-0.597 1.333-1.333s-0.597-1.333-1.333-1.333v0h-4.88c0.122-0.198 0.195-0.437 0.195-0.694 0-0.357-0.14-0.681-0.368-0.92l0.001 0.001c-0.242-0.244-0.577-0.394-0.947-0.394s-0.705 0.151-0.947 0.394l-2 2c-0.118 0.123-0.213 0.269-0.277 0.431l-0.003 0.009c-0.063 0.15-0.1 0.324-0.1 0.507s0.037 0.357 0.103 0.515l-0.003-0.009c0.067 0.171 0.162 0.317 0.28 0.44l-0-0zM34.56 16.16c-0.067-0.171-0.162-0.317-0.28-0.44l0 0-2-2c-0.242-0.244-0.577-0.394-0.947-0.394s-0.705 0.151-0.947 0.394l-0 0c-0.228 0.239-0.368 0.563-0.368 0.92 0 0.256 0.072 0.496 0.198 0.699l-0.003-0.006h-4.88c-0.736 0-1.333 0.597-1.333 1.333s0.597 1.333 1.333 1.333v0h4.88c-0.122 0.198-0.195 0.437-0.195 0.694 0 0.357 0.14 0.681 0.368 0.92l-0.001-0.001c0.242 0.244 0.577 0.394 0.947 0.394s0.705-0.151 0.947-0.394l2-2c0.118-0.123 0.213-0.269 0.277-0.431l0.003-0.009c0.063-0.15 0.1-0.324 0.1-0.507s-0.037-0.357-0.103-0.515l0.003 0.009zM18.667 17.333c-2.946 0-5.333 2.388-5.333 5.333s2.388 5.333 5.333 5.333c2.946 0 5.333-2.388 5.333-5.333v0c0-2.946-2.388-5.333-5.333-5.333v0zM18.667 25.333c-1.473 0-2.667-1.194-2.667-2.667s1.194-2.667 2.667-2.667c1.473 0 2.667 1.194 2.667 2.667v0c0 1.473-1.194 2.667-2.667 2.667v0zM30.667 21.333c-0.736 0-1.333 0.597-1.333 1.333v0 6.667c0 0.736-0.597 1.333-1.333 1.333v0h-18.667c-0.736 0-1.333-0.597-1.333-1.333v0-10.667c0-0.736 0.597-1.333 1.333-1.333v0h2.667c0.019 0.001 0.042 0.002 0.065 0.002 0.589 0 1.089-0.382 1.265-0.912l0.003-0.009 0.72-2.16c0.172-0.518 0.639-0.89 1.197-0.92l0.003-0h2.080c0.736 0 1.333-0.597 1.333-1.333s-0.597-1.333-1.333-1.333v0h-2.080c-0 0-0.001 0-0.001 0-1.761 0-3.256 1.138-3.79 2.718l-0.008 0.028-0.413 1.253h-1.707c-2.209 0-4 1.791-4 4v0 10.667c0 2.209 1.791 4 4 4v0h18.667c2.209 0 4-1.791 4-4v0-6.667c0-0.736-0.597-1.333-1.333-1.333v0z"></path>
</svg>
