<!-- Generated by IcoMoon.io -->
<svg version="1.1" xmlns="http://www.w3.org/2000/svg" width="40" height="40" viewBox="0 0 40 40">
<title>cancel</title>
<path fill="#ebebeb" d="M33.027 19.147l-6.667-8c-0.246-0.294-0.614-0.48-1.024-0.48-0.001 0-0.002 0-0.002 0h-14.667c-2.209 0-4 1.791-4 4v0 10.667c0 2.209 1.791 4 4 4v0h14.667c0.001 0 0.001 0 0.002 0 0.411 0 0.778-0.186 1.023-0.478l0.002-0.002 6.667-8c0.192-0.229 0.309-0.528 0.309-0.853s-0.117-0.624-0.311-0.855l0.002 0.002zM24.707 26.667h-14.040c-0.736 0-1.333-0.597-1.333-1.333v0-10.667c0-0.736 0.597-1.333 1.333-1.333v0h14.040l5.56 6.667zM20.947 16.387c-0.242-0.244-0.577-0.394-0.947-0.394s-0.705 0.151-0.947 0.394l-0 0-1.72 1.733-1.72-1.733c-0.242-0.242-0.577-0.392-0.947-0.392-0.739 0-1.339 0.599-1.339 1.339 0 0.37 0.15 0.704 0.392 0.947v0l1.733 1.72-1.733 1.72c-0.244 0.242-0.394 0.577-0.394 0.947s0.151 0.705 0.394 0.947l0 0c0.242 0.244 0.577 0.394 0.947 0.394s0.705-0.151 0.947-0.394l0-0 1.72-1.733 1.72 1.733c0.242 0.244 0.577 0.394 0.947 0.394s0.705-0.151 0.947-0.394l0-0c0.244-0.242 0.394-0.577 0.394-0.947s-0.151-0.705-0.394-0.947l-0-0-1.733-1.72 1.733-1.72c0.244-0.242 0.394-0.577 0.394-0.947s-0.151-0.705-0.394-0.947l-0-0z"></path>
</svg>
