<!-- Generated by IcoMoon.io -->
<svg version="1.1" xmlns="http://www.w3.org/2000/svg" width="40" height="40" viewBox="0 0 40 40">
<title>closed-captioning</title>
<path fill="#ebebeb" d="M18.987 21.52c-0.193-0.115-0.426-0.183-0.674-0.183-0.489 0-0.917 0.264-1.149 0.657l-0.003 0.006c-0.236 0.397-0.662 0.658-1.15 0.658-0.375 0-0.714-0.155-0.957-0.404l-0-0c-0.238-0.226-0.387-0.546-0.387-0.9 0-0.007 0-0.014 0-0.021v0.001-2.667c0-0.002-0-0.004-0-0.007 0-0.736 0.597-1.333 1.333-1.333 0.504 0 0.943 0.28 1.17 0.693l0.003 0.007c0.238 0.388 0.659 0.643 1.141 0.643 0.253 0 0.49-0.071 0.692-0.193l-0.006 0.003c0.391-0.237 0.649-0.661 0.649-1.144 0-0.257-0.073-0.498-0.199-0.701l0.003 0.006c-0.181-0.298-0.383-0.556-0.613-0.787l0 0c-0.725-0.732-1.729-1.186-2.84-1.187h-0c-2.209 0-4 1.791-4 4v0 2.667c0.011 2.201 1.797 3.982 4 3.982 1.465 0 2.746-0.788 3.443-1.963l0.010-0.019c0.114-0.192 0.181-0.423 0.181-0.67 0-0.483-0.257-0.906-0.641-1.14l-0.006-0.003zM26.987 21.52c-0.193-0.115-0.426-0.183-0.674-0.183-0.489 0-0.917 0.264-1.149 0.657l-0.003 0.006c-0.236 0.397-0.662 0.658-1.15 0.658-0.375 0-0.714-0.155-0.957-0.404l-0-0c-0.238-0.226-0.387-0.546-0.387-0.9 0-0.007 0-0.014 0-0.021v0.001-2.667c0-0.002-0-0.004-0-0.007 0-0.736 0.597-1.333 1.333-1.333 0.504 0 0.943 0.28 1.17 0.693l0.003 0.007c0.238 0.388 0.659 0.643 1.141 0.643 0.253 0 0.49-0.071 0.692-0.193l-0.006 0.003c0.391-0.237 0.649-0.661 0.649-1.144 0-0.257-0.073-0.498-0.199-0.701l0.003 0.006c-0.181-0.298-0.383-0.556-0.613-0.787l0 0c-0.725-0.732-1.729-1.186-2.84-1.187h-0c-2.209 0-4 1.791-4 4v0 2.667c0.011 2.201 1.797 3.982 4 3.982 1.465 0 2.746-0.788 3.443-1.963l0.010-0.019c0.114-0.192 0.181-0.423 0.181-0.67 0-0.483-0.257-0.906-0.641-1.14l-0.006-0.003zM20 6.667c-7.364 0-13.333 5.97-13.333 13.333s5.97 13.333 13.333 13.333c7.364 0 13.333-5.97 13.333-13.333v0c0-7.364-5.97-13.333-13.333-13.333v0zM20 30.667c-5.891 0-10.667-4.776-10.667-10.667s4.776-10.667 10.667-10.667c5.891 0 10.667 4.776 10.667 10.667v0c0 5.891-4.776 10.667-10.667 10.667v0z"></path>
</svg>
