<!-- Generated by IcoMoon.io -->
<svg version="1.1" xmlns="http://www.w3.org/2000/svg" width="40" height="40" viewBox="0 0 40 40">
<title>cloud-moon-hail</title>
<path fill="#ebebeb" d="M16.28 25.72c-0.123-0.118-0.269-0.213-0.431-0.277l-0.009-0.003c-0.153-0.066-0.33-0.104-0.517-0.104-0.365 0-0.696 0.147-0.937 0.384l0-0c-0.114 0.125-0.208 0.271-0.276 0.43l-0.004 0.010c-0.068 0.14-0.107 0.304-0.107 0.478 0 0.010 0 0.020 0 0.030l-0-0.001c0.004 0.734 0.599 1.327 1.333 1.327 0.183 0 0.357-0.037 0.515-0.103l-0.009 0.003c0.169-0.072 0.315-0.166 0.441-0.281l-0.001 0.001c0.238-0.241 0.384-0.571 0.384-0.936 0-0.187-0.038-0.364-0.108-0.526l0.003 0.009c-0.072-0.169-0.166-0.315-0.281-0.441l0.001 0.001zM16.28 31.053c-0.125-0.114-0.271-0.208-0.43-0.276l-0.010-0.004c-0.153-0.066-0.33-0.104-0.517-0.104-0.365 0-0.696 0.147-0.937 0.384l0-0c-0.114 0.125-0.208 0.271-0.276 0.43l-0.004 0.010c-0.067 0.154-0.107 0.334-0.107 0.523 0 0.736 0.597 1.333 1.333 1.333s1.333-0.597 1.333-1.333c0-0.189-0.039-0.368-0.11-0.531l0.003 0.009c-0.072-0.169-0.166-0.315-0.281-0.441l0.001 0.001zM21.413 22.893l-0.24-0.12-0.24-0.107c-0.077-0.016-0.165-0.025-0.255-0.025-0.187 0-0.365 0.039-0.527 0.108l0.009-0.003c-0.172 0.065-0.318 0.16-0.44 0.28l0-0c-0.239 0.241-0.387 0.573-0.387 0.939 0 0.003 0 0.005 0 0.008v-0c0 0.002-0 0.005-0 0.008 0 0.366 0.148 0.698 0.387 0.939l-0-0c0.125 0.114 0.271 0.208 0.43 0.276l0.010 0.004c0.149 0.068 0.323 0.107 0.507 0.107s0.358-0.039 0.515-0.11l-0.008 0.003c0.169-0.072 0.315-0.166 0.441-0.281l-0.001 0.001c0.235-0.236 0.381-0.561 0.387-0.919v-0.001c-0.005-0.368-0.152-0.701-0.387-0.947l0.001 0.001zM21.613 28.387c-0.241-0.238-0.571-0.384-0.936-0.384-0.187 0-0.364 0.038-0.526 0.108l0.009-0.003c-0.336 0.124-0.596 0.384-0.717 0.712l-0.003 0.008c-0.066 0.153-0.104 0.33-0.104 0.517 0 0.365 0.147 0.696 0.384 0.937l-0-0c0.125 0.114 0.271 0.208 0.43 0.276l0.010 0.004c0.149 0.068 0.323 0.107 0.507 0.107s0.358-0.039 0.515-0.11l-0.008 0.003c0.169-0.072 0.315-0.166 0.441-0.281l-0.001 0.001c0.238-0.241 0.384-0.571 0.384-0.936 0-0.187-0.038-0.364-0.108-0.526l0.003 0.009c-0.072-0.169-0.166-0.315-0.281-0.441l0.001 0.001zM32.933 13.427c-0.241-0.238-0.572-0.385-0.937-0.385-0.112 0-0.221 0.014-0.326 0.040l0.009-0.002c-0.259 0.064-0.557 0.103-0.864 0.107l-0.003 0c-2.209 0-4-1.791-4-4v0c0.004-0.309 0.043-0.608 0.112-0.894l-0.006 0.027c0.030-0.106 0.048-0.228 0.048-0.354 0-0.736-0.597-1.333-1.333-1.333-0.107 0-0.211 0.013-0.31 0.036l0.009-0.002c-2.705 0.613-4.753 2.832-5.103 5.581l-0.003 0.033c-0.642-0.178-1.38-0.28-2.142-0.28-0.030 0-0.060 0-0.089 0l0.005-0c-0.001 0-0.003 0-0.005 0-4.009 0-7.329 2.949-7.91 6.796l-0.005 0.044c-1.985 0.566-3.415 2.364-3.415 4.496 0 1.903 1.139 3.539 2.772 4.266l0.030 0.012c0.158 0.064 0.341 0.103 0.532 0.107l0.001 0c0.003 0 0.007 0 0.011 0 0.736 0 1.333-0.597 1.333-1.333 0-0.548-0.33-1.018-0.802-1.223l-0.009-0.003c-0.711-0.309-1.2-1.005-1.2-1.816 0-0.004 0-0.008 0-0.012v0.001c0-1.105 0.895-2 2-2v0c0.736 0 1.333-0.597 1.333-1.333v0c0-2.946 2.388-5.333 5.333-5.333v0c1.087 0.008 2.096 0.335 2.94 0.893l-0.020-0.013c0.964 0.636 1.699 1.551 2.095 2.63l0.012 0.037c0.157 0.463 0.55 0.807 1.032 0.892l0.008 0.001c1.549 0.184 2.738 1.49 2.738 3.073 0 1.108-0.583 2.080-1.458 2.626l-0.013 0.008c-0.367 0.243-0.605 0.654-0.605 1.12 0 0.739 0.599 1.339 1.339 1.339 0.273 0 0.527-0.082 0.738-0.222l-0.005 0.003c1.538-1.056 2.533-2.804 2.533-4.786 0-0.014-0-0.029-0-0.043v0.002c0-0.009 0-0.020 0-0.032 0-0.964-0.242-1.872-0.668-2.665l0.015 0.030c2.329-0.666 4.104-2.52 4.645-4.849l0.009-0.044c0.017-0.079 0.026-0.17 0.026-0.263 0-0.386-0.164-0.733-0.425-0.976l-0.001-0.001zM26.813 17.187c-0.084 0.007-0.181 0.011-0.28 0.011s-0.196-0.004-0.293-0.012l0.013 0.001c-0.261-0.164-0.563-0.321-0.879-0.452l-0.041-0.015c-0.57-1.223-1.393-2.242-2.408-3.026l-0.019-0.014c0-0.16 0-0.333 0-0.493 0-0 0-0 0-0 0-1.214 0.541-2.302 1.395-3.035l0.005-0.004c0.436 2.923 2.717 5.204 5.603 5.636l0.037 0.004c-0.738 0.86-1.826 1.401-3.041 1.401-0.033 0-0.065-0-0.098-0.001l0.005 0z"></path>
</svg>
