<!-- Generated by IcoMoon.io -->
<svg version="1.1" xmlns="http://www.w3.org/2000/svg" width="40" height="40" viewBox="0 0 40 40">
<title>coins</title>
<path fill="#ebebeb" d="M32.293 20c0.64-0.702 1.034-1.638 1.040-2.665v-0.001c0-2.209-1.791-4-4-4v0h-6.907c0.145-0.397 0.229-0.855 0.229-1.333 0-2.205-1.784-3.994-3.988-4h-8.001c-2.209 0-4 1.791-4 4v0c0.006 1.029 0.4 1.965 1.043 2.67l-0.003-0.003c-0.632 0.704-1.019 1.64-1.019 2.667s0.386 1.962 1.022 2.67l-0.003-0.004c-0.632 0.704-1.019 1.64-1.019 2.667s0.386 1.962 1.022 2.67l-0.003-0.004c-0.64 0.702-1.034 1.638-1.040 2.665v0.001c0 2.209 1.791 4 4 4v0h18.667c2.2-0.012 3.979-1.798 3.979-4 0-1.026-0.386-1.962-1.022-2.67l0.003 0.004c0.632-0.704 1.019-1.64 1.019-2.667s-0.386-1.962-1.022-2.67l0.003 0.004zM18.667 29.333h-8c-0.736 0-1.333-0.597-1.333-1.333s0.597-1.333 1.333-1.333v0h8c0.736 0 1.333 0.597 1.333 1.333s-0.597 1.333-1.333 1.333v0zM18.667 24h-8c-0.736 0-1.333-0.597-1.333-1.333s0.597-1.333 1.333-1.333v0h8c0.736 0 1.333 0.597 1.333 1.333s-0.597 1.333-1.333 1.333v0zM18.667 18.667h-8c-0.736 0-1.333-0.597-1.333-1.333s0.597-1.333 1.333-1.333v0h8c0.736 0 1.333 0.597 1.333 1.333s-0.597 1.333-1.333 1.333v0zM18.667 13.333h-8c-0.736 0-1.333-0.597-1.333-1.333s0.597-1.333 1.333-1.333v0h8c0.736 0 1.333 0.597 1.333 1.333s-0.597 1.333-1.333 1.333v0zM30.253 28.947c-0.226 0.238-0.546 0.387-0.9 0.387-0.007 0-0.014-0-0.021-0h-6.906c0.152-0.396 0.24-0.854 0.24-1.333s-0.088-0.937-0.249-1.36l0.009 0.026h6.907c0.736 0 1.333 0.597 1.333 1.333v0c-0.005 0.373-0.163 0.708-0.413 0.946l-0.001 0.001zM30.253 23.613c-0.226 0.238-0.546 0.387-0.9 0.387-0.007 0-0.014-0-0.021-0h-6.906c0.152-0.396 0.24-0.854 0.24-1.333s-0.088-0.937-0.249-1.36l0.009 0.026h6.907c0.736 0 1.333 0.597 1.333 1.333v0c-0.005 0.373-0.163 0.708-0.413 0.946l-0.001 0.001zM30.253 18.28c-0.226 0.238-0.546 0.387-0.9 0.387-0.007 0-0.014-0-0.021-0h-6.906c0.152-0.396 0.24-0.854 0.24-1.333s-0.088-0.937-0.249-1.36l0.009 0.026h6.907c0.736 0 1.333 0.597 1.333 1.333v0c-0.005 0.373-0.163 0.708-0.413 0.946l-0.001 0.001z"></path>
</svg>
