<!-- Generated by IcoMoon.io -->
<svg version="1.1" xmlns="http://www.w3.org/2000/svg" width="40" height="40" viewBox="0 0 40 40">
<title>comment-redo</title>
<path fill="#ebebeb" d="M29.333 22.667c-0.101-0.027-0.216-0.043-0.335-0.043-0.619 0-1.139 0.422-1.29 0.993l-0.002 0.009c-1.058 4.075-4.703 7.037-9.040 7.040h-7.454l0.853-0.84c0.24-0.241 0.388-0.573 0.388-0.94s-0.148-0.699-0.388-0.94l0 0c-1.697-1.69-2.747-4.029-2.747-6.613 0-4.33 2.949-7.972 6.949-9.026l0.065-0.015c0.581-0.153 1.002-0.674 1.002-1.293 0-0.738-0.598-1.336-1.336-1.336-0.118 0-0.233 0.015-0.343 0.044l0.009-0.002c-5.203 1.39-8.972 6.061-8.972 11.612 0 2.852 0.995 5.472 2.657 7.531l-0.018-0.023-2.28 2.227c-0.238 0.241-0.384 0.571-0.384 0.936 0 0.187 0.038 0.364 0.108 0.526l-0.003-0.009c0.204 0.487 0.676 0.824 1.226 0.827h10.667c0.002 0 0.005 0 0.008 0 5.561 0 10.239-3.783 11.6-8.916l0.019-0.084c0.034-0.112 0.053-0.24 0.053-0.372 0-0.623-0.427-1.146-1.004-1.292l-0.009-0.002zM32 6.667c-0.736 0-1.333 0.597-1.333 1.333v0 0c-1.101-0.835-2.495-1.337-4.005-1.337-3.682 0-6.667 2.985-6.667 6.667s2.985 6.667 6.667 6.667c1.692 0 3.237-0.63 4.412-1.669l-0.007 0.006c0.358-0.243 0.59-0.648 0.59-1.107 0-0.736-0.597-1.333-1.333-1.333-0.392 0-0.745 0.169-0.989 0.439l-0.001 0.001c-0.701 0.621-1.629 1-2.646 1-2.209 0-4-1.791-4-4 0-2.202 1.779-3.988 3.978-4h0.001c1.18 0.002 2.239 0.515 2.97 1.33l0.003 0.004h-1.64c-0.736 0-1.333 0.597-1.333 1.333s0.597 1.333 1.333 1.333v0h4c0.736 0 1.333-0.597 1.333-1.333v0-4c0-0.736-0.597-1.333-1.333-1.333v0z"></path>
</svg>
