<!-- Generated by IcoMoon.io -->
<svg version="1.1" xmlns="http://www.w3.org/2000/svg" width="40" height="40" viewBox="0 0 40 40">
<title>compass</title>
<path fill="#ebebeb" d="M20 6.667c-7.364 0-13.333 5.97-13.333 13.333s5.97 13.333 13.333 13.333c7.364 0 13.333-5.97 13.333-13.333v0c0-7.364-5.97-13.333-13.333-13.333v0zM21.333 30.573v-1.24c0-0.736-0.597-1.333-1.333-1.333s-1.333 0.597-1.333 1.333v0 1.24c-4.829-0.63-8.61-4.411-9.234-9.186l-0.006-0.054h1.24c0.736 0 1.333-0.597 1.333-1.333s-0.597-1.333-1.333-1.333v0h-1.24c0.63-4.829 4.411-8.61 9.186-9.234l0.054-0.006v1.24c0 0.736 0.597 1.333 1.333 1.333s1.333-0.597 1.333-1.333v0-1.24c4.829 0.63 8.61 4.411 9.234 9.186l0.006 0.054h-1.24c-0.736 0-1.333 0.597-1.333 1.333s0.597 1.333 1.333 1.333v0h1.24c-0.63 4.829-4.411 8.61-9.186 9.234l-0.054 0.006zM24.187 14.067l-6.667 2.827c-0.312 0.137-0.556 0.381-0.69 0.685l-0.003 0.009-2.827 6.667c-0.068 0.155-0.108 0.336-0.108 0.526 0 0.367 0.148 0.699 0.388 0.941l-0-0c0.238 0.243 0.567 0.395 0.932 0.4h0.001c0 0 0.001 0 0.001 0 0.193 0 0.376-0.044 0.54-0.123l-0.007 0.003 6.667-2.827c0.312-0.137 0.556-0.381 0.69-0.685l0.003-0.009 2.827-6.667c0.066-0.153 0.105-0.331 0.105-0.518 0-0.736-0.597-1.333-1.333-1.333-0.187 0-0.365 0.039-0.527 0.108l0.009-0.003zM20.867 20.867l-3.040 1.333 1.333-3.040 3.040-1.333z"></path>
</svg>
