<!-- Generated by IcoMoon.io -->
<svg version="1.1" xmlns="http://www.w3.org/2000/svg" width="40" height="40" viewBox="0 0 40 40">
<title>constructor</title>
<path fill="#ebebeb" d="M30.667 16.893v-0.227c0-0.011 0-0.024 0-0.038 0-4.731-3.099-8.738-7.378-10.102l-0.075-0.021h-0.080c-0.968-0.306-2.081-0.482-3.235-0.482-0.077 0-0.153 0.001-0.23 0.002l0.011-0c-5.76 0.326-10.312 5.059-10.347 10.863l-0 0.003c-1.57 0.564-2.673 2.040-2.673 3.773s1.103 3.209 2.645 3.765l0.028 0.009c0.579 5.396 5.108 9.56 10.609 9.56 0.020 0 0.040-0 0.061-0h0.304c5.311-0.265 9.6-4.315 10.235-9.494l0.005-0.052c1.612-0.541 2.753-2.037 2.753-3.801 0-1.719-1.084-3.184-2.606-3.75l-0.028-0.009zM20.24 31.333c-0.069 0.002-0.15 0.003-0.231 0.003-3.948 0-7.229-2.861-7.882-6.622l-0.007-0.048h15.693c-0.683 3.682-3.775 6.465-7.553 6.666l-0.020 0.001zM29.333 22h-18.667c-0.736 0-1.333-0.597-1.333-1.333s0.597-1.333 1.333-1.333v0h2.667c0.736 0 1.333-0.597 1.333-1.333s-0.597-1.333-1.333-1.333v0h-1.333c0.129-2.893 1.679-5.398 3.965-6.846l0.035-0.021v4.2c0 0.736 0.597 1.333 1.333 1.333s1.333-0.597 1.333-1.333v0-5.213c0.311-0.055 0.687-0.098 1.068-0.119l0.025-0.001h0.24c0.476 0.007 0.937 0.050 1.386 0.127l-0.053-0.007v5.213c0 0.736 0.597 1.333 1.333 1.333s1.333-0.597 1.333-1.333v0-4.24c0.595 0.348 1.111 0.732 1.579 1.165l-0.006-0.005c1.497 1.455 2.427 3.489 2.427 5.739 0 0.003 0 0.005 0 0.008v-0h-1.333c-0.736 0-1.333 0.597-1.333 1.333s0.597 1.333 1.333 1.333v0h2.667c0.736 0 1.333 0.597 1.333 1.333s-0.597 1.333-1.333 1.333v0z"></path>
</svg>
