<!-- Generated by IcoMoon.io -->
<svg version="1.1" xmlns="http://www.w3.org/2000/svg" width="40" height="40" viewBox="0 0 40 40">
<title>dashboard</title>
<path fill="#ebebeb" d="M29.451 10.606c-0.010-0.010-0.013-0.024-0.023-0.034s-0.024-0.013-0.035-0.023c-2.406-2.399-5.726-3.882-9.393-3.882s-6.987 1.483-9.393 3.882l0-0c-0.011 0.010-0.024 0.013-0.035 0.023s-0.013 0.024-0.023 0.034c-2.399 2.411-3.883 5.735-3.883 9.406 0 7.364 5.97 13.333 13.333 13.333s13.333-5.97 13.333-13.333c0-3.671-1.483-6.995-3.883-9.406l0.001 0.001zM20 30.667c-3.355-0.001-6.347-1.554-8.297-3.979l-0.016-0.021h5.354c0.727 0.819 1.784 1.333 2.96 1.333s2.232-0.514 2.956-1.329l0.004-0.004h5.354c-1.967 2.446-4.959 3.999-8.313 4h-0zM18.667 24c0-0.736 0.597-1.333 1.333-1.333s1.333 0.597 1.333 1.333c0 0.736-0.597 1.333-1.333 1.333v0c-0.736-0.001-1.333-0.597-1.333-1.333v-0zM29.88 24.003l-0.014-0.003h-5.867c-0.005-1.725-1.104-3.192-2.639-3.746l-0.028-0.009v-4.246c0-0.736-0.597-1.333-1.333-1.333s-1.333 0.597-1.333 1.333v0 4.246c-1.563 0.562-2.661 2.029-2.667 3.754v0.001l-5.88 0.003c-0.324-0.776-0.568-1.677-0.688-2.617l-0.006-0.053h1.241c0.736 0 1.333-0.597 1.333-1.333s-0.597-1.333-1.333-1.333v0h-1.241c0.256-1.988 1.028-3.758 2.176-5.22l-0.017 0.023 0.873 0.873c0.241 0.241 0.575 0.39 0.943 0.39 0.736 0 1.333-0.597 1.333-1.333 0-0.368-0.149-0.701-0.391-0.943l-0.873-0.873c1.439-1.13 3.209-1.902 5.143-2.153l0.053-0.006v1.241c0 0.736 0.597 1.333 1.333 1.333s1.333-0.597 1.333-1.333v0-1.241c1.987 0.256 3.758 1.028 5.219 2.176l-0.023-0.017-0.873 0.873c-0.241 0.241-0.391 0.575-0.391 0.943 0 0.736 0.597 1.333 1.333 1.333 0.368 0 0.701-0.149 0.943-0.39l0.873-0.873c1.131 1.439 1.903 3.21 2.153 5.144l0.006 0.053h-1.241c-0.736 0-1.333 0.597-1.333 1.333s0.597 1.333 1.333 1.333v0h1.241c-0.126 0.992-0.369 1.894-0.719 2.74l0.026-0.070z"></path>
</svg>
