<!-- Generated by IcoMoon.io -->
<svg version="1.1" xmlns="http://www.w3.org/2000/svg" width="40" height="40" viewBox="0 0 40 40">
<title>desktop-cloud-alt</title>
<path fill="#ebebeb" d="M10 17.333h7.333c2.205-0.005 3.991-1.794 3.991-4 0-1.693-1.051-3.14-2.537-3.724l-0.027-0.009c-0.902-1.742-2.69-2.912-4.752-2.912-2.56 0-4.699 1.804-5.215 4.211l-0.006 0.035c-1.203 0.521-2.030 1.698-2.030 3.068 0 1.809 1.441 3.282 3.239 3.332l0.005 0zM10 13.333c0.736 0 1.333-0.597 1.333-1.333v0c0.011-1.465 1.2-2.648 2.667-2.648 1.16 0 2.148 0.741 2.514 1.776l0.006 0.019c0.161 0.458 0.553 0.796 1.032 0.879l0.008 0.001c0.63 0.112 1.103 0.653 1.107 1.306v0c0 0.736-0.597 1.333-1.333 1.333v0h-7.333c-0.368 0-0.667-0.298-0.667-0.667s0.298-0.667 0.667-0.667v0zM29.333 6.667h-6.667c-0.736 0-1.333 0.597-1.333 1.333s0.597 1.333 1.333 1.333v0h6.667c0.736 0 1.333 0.597 1.333 1.333v0 9.333h-22.667c-0.736 0-1.333 0.597-1.333 1.333v0 2.667c0 2.209 1.791 4 4 4v0h4v2.667h-4c-0.736 0-1.333 0.597-1.333 1.333s0.597 1.333 1.333 1.333v0h18.667c0.736 0 1.333-0.597 1.333-1.333s-0.597-1.333-1.333-1.333v0h-4v-2.667h4c2.209 0 4-1.791 4-4v0-13.333c0-2.209-1.791-4-4-4v0zM22.667 30.667h-5.333v-2.667h5.333zM30.667 24c0 0.736-0.597 1.333-1.333 1.333v0h-18.667c-0.736 0-1.333-0.597-1.333-1.333v0-1.333h21.333z"></path>
</svg>
