<!-- Generated by IcoMoon.io -->
<svg version="1.1" xmlns="http://www.w3.org/2000/svg" width="40" height="40" viewBox="0 0 40 40">
<title>dollar-alt</title>
<path fill="#ebebeb" d="M22.667 18.667h-1.333v-5.333h2.667c0.736 0 1.333 0.597 1.333 1.333v0c0 0.736 0.597 1.333 1.333 1.333s1.333-0.597 1.333-1.333v0c0-2.209-1.791-4-4-4v0h-2.667v-2.667c0-0.736-0.597-1.333-1.333-1.333s-1.333 0.597-1.333 1.333v0 2.667h-1.333c-2.946 0-5.333 2.388-5.333 5.333s2.388 5.333 5.333 5.333v0h1.333v5.333h-2.667c-0.736 0-1.333-0.597-1.333-1.333v0c0-0.736-0.597-1.333-1.333-1.333s-1.333 0.597-1.333 1.333v0c0 2.209 1.791 4 4 4v0h2.667v2.667c0 0.736 0.597 1.333 1.333 1.333s1.333-0.597 1.333-1.333v0-2.667h1.333c2.946 0 5.333-2.388 5.333-5.333s-2.388-5.333-5.333-5.333v0zM18.667 18.667h-1.333c-1.473 0-2.667-1.194-2.667-2.667s1.194-2.667 2.667-2.667v0h1.333zM22.667 26.667h-1.333v-5.333h1.333c1.473 0 2.667 1.194 2.667 2.667s-1.194 2.667-2.667 2.667v0z"></path>
</svg>
