<!-- Generated by IcoMoon.io -->
<svg version="1.1" xmlns="http://www.w3.org/2000/svg" width="40" height="40" viewBox="0 0 40 40">
<title>envelope-send</title>
<path fill="#ebebeb" d="M25.333 18h-10.667c-2.209 0-4 1.791-4 4v0 6.667c0 2.209 1.791 4 4 4v0h10.667c2.209 0 4-1.791 4-4v0-6.667c0-2.209-1.791-4-4-4v0zM24.773 20.667l-3.84 3.84c-0.24 0.236-0.57 0.381-0.933 0.381s-0.693-0.145-0.934-0.381l-3.84-3.84zM26.667 28.667c0 0.736-0.597 1.333-1.333 1.333v0h-10.667c-0.736 0-1.333-0.597-1.333-1.333v0-6.12l3.84 3.827c0.713 0.732 1.708 1.187 2.81 1.187 0.006 0 0.012 0 0.018-0h-0.001c1.104-0.001 2.103-0.449 2.827-1.173l3.84-3.84zM16 12.667h4.787l-0.4 0.387c-0.244 0.242-0.394 0.577-0.394 0.947s0.151 0.705 0.394 0.947l0 0c0.242 0.244 0.577 0.394 0.947 0.394s0.705-0.151 0.947-0.394l2.667-2.667c0.118-0.123 0.213-0.269 0.277-0.431l0.003-0.009c0.063-0.15 0.1-0.324 0.1-0.507s-0.037-0.357-0.103-0.515l0.003 0.009c-0.067-0.171-0.162-0.317-0.28-0.44l0 0-2.667-2.667c-0.242-0.242-0.577-0.392-0.947-0.392-0.739 0-1.339 0.599-1.339 1.339 0 0.37 0.15 0.704 0.392 0.947v0l0.4 0.387h-4.787c-0.736 0-1.333 0.597-1.333 1.333s0.597 1.333 1.333 1.333v0z"></path>
</svg>
