<!-- Generated by IcoMoon.io -->
<svg version="1.1" xmlns="http://www.w3.org/2000/svg" width="40" height="40" viewBox="0 0 40 40">
<title>file-slash</title>
<path fill="#ebebeb" d="M32.947 31.053l-24-24c-0.242-0.242-0.577-0.392-0.947-0.392-0.739 0-1.339 0.599-1.339 1.339 0 0.37 0.15 0.704 0.392 0.947v0l2.28 2.267v18.12c0 2.209 1.791 4 4 4v0h13.333c1.299-0.004 2.452-0.628 3.179-1.59l0.007-0.010 1.2 1.213c0.242 0.244 0.577 0.394 0.947 0.394s0.705-0.151 0.947-0.394l0-0c0.244-0.242 0.394-0.577 0.394-0.947s-0.151-0.705-0.394-0.947l-0-0zM26.667 30.667h-13.333c-0.736 0-1.333-0.597-1.333-1.333v0-15.453l15.907 15.907c-0.189 0.513-0.672 0.874-1.239 0.88h-0.001zM15.547 9.333h4.453v4c0 2.209 1.791 4 4 4v0h4v4.453c0 0.736 0.597 1.333 1.333 1.333s1.333-0.597 1.333-1.333v0-5.787s0 0 0-0.080c-0.016-0.134-0.044-0.256-0.084-0.372l0.004 0.012v-0.12c-0.068-0.143-0.153-0.267-0.254-0.374l0.001 0.001-8-8c-0.107-0.101-0.23-0.185-0.365-0.25l-0.009-0.004h-0.12l-0.427-0.147h-5.867c-0.736 0-1.333 0.597-1.333 1.333s0.597 1.333 1.333 1.333v0zM22.667 11.213l3.453 3.453h-2.12c-0.736 0-1.333-0.597-1.333-1.333v0z"></path>
</svg>
