<!-- Generated by IcoMoon.io -->
<svg version="1.1" xmlns="http://www.w3.org/2000/svg" width="40" height="40" viewBox="0 0 40 40">
<title>file-medical-alt</title>
<path fill="#ebebeb" d="M28 28c-0.736 0-1.333 0.597-1.333 1.333v0c0 0.736-0.597 1.333-1.333 1.333v0h-13.333c-0.736 0-1.333-0.597-1.333-1.333v0-18.667c0-0.736 0.597-1.333 1.333-1.333v0h6.667v4c0 2.209 1.791 4 4 4v0h4v1.333c0 0.736 0.597 1.333 1.333 1.333s1.333-0.597 1.333-1.333v0-2.667s0 0 0-0.080c-0.016-0.134-0.044-0.256-0.084-0.372l0.004 0.012c0.003-0.018 0.004-0.039 0.004-0.060s-0.002-0.042-0.005-0.062l0 0.002c-0.068-0.143-0.153-0.267-0.254-0.374l0.001 0.001-8-8c-0.107-0.101-0.23-0.185-0.365-0.25l-0.009-0.004h-0.133c-0.115-0.063-0.249-0.114-0.39-0.145l-0.010-0.002h-8.093c-2.209 0-4 1.791-4 4v0 18.667c0 2.209 1.791 4 4 4v0h13.333c2.209 0 4-1.791 4-4v0c0-0.736-0.597-1.333-1.333-1.333v0zM21.333 11.213l3.453 3.453h-2.12c-0.736 0-1.333-0.597-1.333-1.333v0zM30.667 22.667h-3.333c-0.002 0-0.005-0-0.008-0-0.366 0-0.698 0.148-0.939 0.387l0-0-1.653 1.667-3.733-4.267c-0.246-0.28-0.605-0.457-1.004-0.457-0.368 0-0.701 0.149-0.942 0.39v0l-2.267 2.28h-2.12c-0.736 0-1.333 0.597-1.333 1.333s0.597 1.333 1.333 1.333v0h2.667c0.002 0 0.005 0 0.008 0 0.366 0 0.698-0.148 0.939-0.387l-0 0 1.72-1.667 3.733 4.267c0.236 0.269 0.577 0.441 0.958 0.453l0.002 0c0.002 0 0.005 0 0.008 0 0.366 0 0.698-0.148 0.939-0.387l-0 0 2.24-2.28h2.787c0.736 0 1.333-0.597 1.333-1.333s-0.597-1.333-1.333-1.333v0z"></path>
</svg>
