<!-- Generated by IcoMoon.io -->
<svg version="1.1" xmlns="http://www.w3.org/2000/svg" width="40" height="40" viewBox="0 0 40 40">
<title>fire</title>
<path fill="#ebebeb" d="M15.29 15.193l-0.003 0.002-0.003 0.003zM28.563 14.944c-0.090-0.087-0.191-0.164-0.299-0.229l-0.008-0.004c-0.193-0.116-0.427-0.184-0.676-0.184-0.517 0-0.965 0.294-1.186 0.725l-0.004 0.008c-0.478 0.93-1.103 1.717-1.854 2.361l-0.010 0.009c0.113-0.605 0.177-1.301 0.178-2.013v-0c0-0.004 0-0.009 0-0.014 0-4.301-2.337-8.057-5.811-10.065l-0.056-0.030c-0.189-0.109-0.416-0.173-0.658-0.173-0.706 0-1.284 0.549-1.33 1.244l-0 0.004c-0.161 2.649-1.401 4.979-3.282 6.579l-0.013 0.011-0.307 0.25c-1.025 0.696-1.9 1.518-2.631 2.457l-0.019 0.026c-1.618 2.024-2.596 4.621-2.596 7.447 0 4.99 3.052 9.268 7.391 11.068l0.079 0.029c0.149 0.063 0.322 0.099 0.504 0.099 0.736 0 1.333-0.597 1.333-1.333 0-0 0-0.001 0-0.001v0c-0.001-0.149-0.025-0.292-0.069-0.427l0.003 0.010c-0.199-0.717-0.313-1.541-0.313-2.392 0-0.37 0.022-0.735 0.064-1.093l-0.004 0.044c1.279 2.379 3.265 4.238 5.674 5.325l0.076 0.031c0.16 0.073 0.346 0.116 0.543 0.116 0.147 0 0.288-0.024 0.42-0.068l-0.009 0.003c4.862-1.604 8.309-6.106 8.309-11.413 0-3.274-1.312-6.242-3.439-8.406l0.002 0.002zM23.356 32.052c-2.329-1.199-4.058-3.287-4.754-5.805l-0.015-0.065c-0.090-0.345-0.174-0.781-0.233-1.224l-0.007-0.061c-0.081-0.567-0.508-1.015-1.057-1.125l-0.009-0.001c-0.076-0.016-0.164-0.025-0.253-0.025-0.001 0-0.001 0-0.002 0h0c-0 0-0 0-0 0-0.491 0-0.921 0.266-1.152 0.662l-0.003 0.006c-1.013 1.718-1.611 3.785-1.611 5.991 0 0.105 0.001 0.21 0.004 0.315l-0-0.015c-2.198-1.72-3.597-4.373-3.597-7.353 0-2.203 0.765-4.228 2.044-5.823l-0.014 0.018c0.587-0.758 1.275-1.402 2.051-1.924l0.031-0.020c0.037-0.024 0.070-0.048 0.1-0.074l-0.001 0.001s0.396-0.327 0.409-0.335c1.857-1.578 3.217-3.688 3.846-6.094l0.019-0.083c1.776 1.646 2.885 3.991 2.885 6.595 0 1.532-0.384 2.975-1.060 4.237l0.024-0.048c-0.095 0.179-0.151 0.392-0.151 0.617 0 0.737 0.597 1.334 1.334 1.334 0.141 0 0.277-0.022 0.405-0.063l-0.009 0.003c2.098-0.671 3.854-1.92 5.132-3.56l0.018-0.023c1.005 1.467 1.605 3.28 1.605 5.233 0 3.948-2.451 7.323-5.914 8.688l-0.063 0.022z"></path>
</svg>
