<!-- Generated by IcoMoon.io -->
<svg version="1.1" xmlns="http://www.w3.org/2000/svg" width="40" height="40" viewBox="0 0 40 40">
<title>focus-add</title>
<path fill="#ebebeb" d="M14.667 30.667h-4c-0.736 0-1.333-0.597-1.333-1.333v0-4c0-0.736-0.597-1.333-1.333-1.333s-1.333 0.597-1.333 1.333v0 4c0 2.209 1.791 4 4 4v0h4c0.736 0 1.333-0.597 1.333-1.333s-0.597-1.333-1.333-1.333v0zM8 16c0.736 0 1.333-0.597 1.333-1.333v0-4c0-0.736 0.597-1.333 1.333-1.333v0h4c0.736 0 1.333-0.597 1.333-1.333s-0.597-1.333-1.333-1.333v0h-4c-2.209 0-4 1.791-4 4v0 4c0 0.736 0.597 1.333 1.333 1.333v0zM29.333 6.667h-4c-0.736 0-1.333 0.597-1.333 1.333s0.597 1.333 1.333 1.333v0h4c0.736 0 1.333 0.597 1.333 1.333v0 4c0 0.736 0.597 1.333 1.333 1.333s1.333-0.597 1.333-1.333v0-4c0-2.209-1.791-4-4-4v0zM25.333 20c0-0.736-0.597-1.333-1.333-1.333v0h-2.667v-2.667c0-0.736-0.597-1.333-1.333-1.333s-1.333 0.597-1.333 1.333v0 2.667h-2.667c-0.736 0-1.333 0.597-1.333 1.333s0.597 1.333 1.333 1.333v0h2.667v2.667c0 0.736 0.597 1.333 1.333 1.333s1.333-0.597 1.333-1.333v0-2.667h2.667c0.736 0 1.333-0.597 1.333-1.333v0zM32 24c-0.736 0-1.333 0.597-1.333 1.333v0 4c0 0.736-0.597 1.333-1.333 1.333v0h-4c-0.736 0-1.333 0.597-1.333 1.333s0.597 1.333 1.333 1.333v0h4c2.209 0 4-1.791 4-4v0-4c0-0.736-0.597-1.333-1.333-1.333v0z"></path>
</svg>
