<!-- Generated by IcoMoon.io -->
<svg version="1.1" xmlns="http://www.w3.org/2000/svg" width="40" height="40" viewBox="0 0 40 40">
<title>folder-lock</title>
<path fill="#ebebeb" d="M9.333 9.333h6.080c0.001 0 0.002 0 0.003 0 0.584 0 1.080 0.375 1.26 0.897l0.003 0.009 0.72 2.187c0.183 0.532 0.68 0.907 1.263 0.907 0.001 0 0.002 0 0.004 0h9.333c0.736 0 1.333 0.597 1.333 1.333v0c0 0.736 0.597 1.333 1.333 1.333s1.333-0.597 1.333-1.333v0c0-2.209-1.791-4-4-4v0h-8.373l-0.427-1.333c-0.566-1.567-2.040-2.667-3.771-2.667-0.005 0-0.011 0-0.016 0h-6.079c-2.209 0-4 1.791-4 4v0 17.333c0 2.209 1.791 4 4 4v0h8c0.736 0 1.333-0.597 1.333-1.333s-0.597-1.333-1.333-1.333v0h-8c-0.736 0-1.333-0.597-1.333-1.333v0-17.333c0-0.736 0.597-1.333 1.333-1.333v0zM32 24.24v-1.573c0-2.209-1.791-4-4-4s-4 1.791-4 4v0 1.573c-1.563 0.564-2.662 2.033-2.667 3.759v2.667c0 2.209 1.791 4 4 4v0h5.333c2.209 0 4-1.791 4-4v0-2.667c-0.005-1.727-1.103-3.196-2.639-3.751l-0.028-0.009zM26.667 22.667c0-0.736 0.597-1.333 1.333-1.333s1.333 0.597 1.333 1.333v0 1.333h-2.667zM32 30.667c0 0.736-0.597 1.333-1.333 1.333v0h-5.333c-0.736 0-1.333-0.597-1.333-1.333v0-2.667c0-0.736 0.597-1.333 1.333-1.333v0h5.333c0.736 0 1.333 0.597 1.333 1.333v0z"></path>
</svg>
