<!-- Generated by IcoMoon.io -->
<svg version="1.1" xmlns="http://www.w3.org/2000/svg" width="40" height="40" viewBox="0 0 40 40">
<title>google-hangouts-alt</title>
<path fill="#ebebeb" d="M15.989 14.254c-1.473 0-2.667 1.194-2.667 2.667s1.194 2.667 2.667 2.667v0l0.020-0.002v0.669c-0.001 0.368-0.299 0.666-0.667 0.667h-0c-0.736 0-1.333 0.597-1.333 1.333s0.597 1.333 1.333 1.333v0c1.84-0.002 3.332-1.493 3.333-3.333v-3.334c-0.009-0.076-0.023-0.144-0.043-0.209l0.002 0.009c-0.103-1.381-1.248-2.463-2.646-2.466h-0zM19.988 5.336c-7.207 0-13.050 5.843-13.050 13.050 0 6.738 5.106 12.282 11.659 12.977l0.057 0.005v1.969c0 0 0 0.001 0 0.001 0 0.736 0.596 1.332 1.332 1.332 0.114 0 0.224-0.014 0.329-0.041l-0.009 0.002c6.829-1.732 11.921-7.502 12.617-14.564l0.006-0.069c0.070-0.505 0.11-1.089 0.11-1.683 0-7.168-5.811-12.979-12.979-12.979-0.025 0-0.051 0-0.076 0l0.004-0zM30.279 19.71c-0.523 5.412-4.043 9.888-8.862 11.781l-0.096 0.033v-1.422c0-0 0-0.001 0-0.001 0-0.736-0.597-1.333-1.333-1.333-0 0-0.001 0-0.001 0h0c-5.734-0.001-10.381-4.649-10.381-10.383s4.649-10.383 10.383-10.383 10.383 4.649 10.383 10.383v0c-0.004 0.471-0.038 0.93-0.1 1.38l0.006-0.055zM23.989 14.254c-1.473 0-2.667 1.194-2.667 2.667s1.194 2.667 2.667 2.667v0l0.020-0.002v0.669c-0.001 0.368-0.299 0.666-0.667 0.667h-0c-0.736 0-1.333 0.597-1.333 1.333s0.597 1.333 1.333 1.333v0c1.84-0.002 3.332-1.493 3.333-3.333v-3.334c-0.009-0.076-0.023-0.144-0.043-0.209l0.002 0.009c-0.103-1.381-1.248-2.463-2.646-2.466h-0z"></path>
</svg>
