<!-- Generated by IcoMoon.io -->
<svg version="1.1" xmlns="http://www.w3.org/2000/svg" width="40" height="40" viewBox="0 0 40 40">
<title>graduation-cap</title>
<path fill="#ebebeb" d="M32.653 17.587l-1.333-0.733-12-6.667h-0.147c-0.072-0.031-0.156-0.059-0.244-0.078l-0.009-0.002h-0.493c-0.102 0.021-0.192 0.049-0.277 0.084l0.010-0.004h-0.147l-12 6.667c-0.407 0.234-0.676 0.665-0.676 1.16s0.269 0.926 0.669 1.157l0.006 0.003 3.32 1.84v6.32c0 2.209 1.791 4 4 4v0h10.667c2.209 0 4-1.791 4-4v0-6.32l2.667-1.493v3.813c0 0.736 0.597 1.333 1.333 1.333s1.333-0.597 1.333-1.333v0-4.587c-0.001-0.495-0.272-0.927-0.673-1.157l-0.007-0.003zM25.333 27.333c0 0.736-0.597 1.333-1.333 1.333v0h-10.667c-0.736 0-1.333-0.597-1.333-1.333v0-4.84l6.013 3.333 0.2 0.080h0.12c0.050 0.007 0.108 0.010 0.167 0.010s0.117-0.004 0.173-0.011l-0.007 0.001c0.050 0.007 0.108 0.010 0.167 0.010s0.117-0.004 0.173-0.011l-0.007 0.001h0.12c0.076-0.016 0.143-0.044 0.203-0.082l-0.003 0.002 6.013-3.333zM18.667 23.147l-9.253-5.147 9.253-5.147 9.253 5.147z"></path>
</svg>
