<!-- Generated by IcoMoon.io -->
<svg version="1.1" xmlns="http://www.w3.org/2000/svg" width="40" height="40" viewBox="0 0 40 40">
<title>hdd</title>
<path fill="#ebebeb" d="M33.333 23.813v-0.067c-0.018-0.278-0.065-0.537-0.14-0.785l0.006 0.025-2.187-12.973c-0.325-1.911-1.968-3.347-3.946-3.347-0.019 0-0.038 0-0.056 0l0.003-0h-14.093c-1.973 0.007-3.609 1.441-3.93 3.323l-0.003 0.024-2.16 12.947c-0.068 0.223-0.116 0.482-0.133 0.75l-0.001 0.010v0.067c-0.027 0.093-0.027 0.213-0.027 0.213v5.333c0 2.209 1.791 4 4 4v0h18.667c2.209 0 4-1.791 4-4v0-5.333c0 0 0-0.12 0-0.187zM11.613 10.44c0.112-0.633 0.658-1.107 1.314-1.107 0.007 0 0.014 0 0.020 0h14.132c0.006-0 0.013-0 0.019-0 0.656 0 1.202 0.474 1.313 1.099l0.001 0.008 1.6 9.627c-0.204-0.042-0.439-0.067-0.68-0.067h-18.667c-0.232 0.002-0.458 0.026-0.676 0.071l0.023-0.004zM30.667 29.333c0 0.736-0.597 1.333-1.333 1.333v0h-18.667c-0.736 0-1.333-0.597-1.333-1.333v0-5.227l0.107-0.613c0.204-0.487 0.676-0.824 1.226-0.827h18.667c0.551 0.003 1.023 0.339 1.223 0.818l0.003 0.009 0.107 0.613zM26.667 25.333c-0.736 0-1.333 0.597-1.333 1.333s0.597 1.333 1.333 1.333c0.736 0 1.333-0.597 1.333-1.333v0c0-0.736-0.597-1.333-1.333-1.333v0z"></path>
</svg>
