<!-- Generated by IcoMoon.io -->
<svg version="1.1" xmlns="http://www.w3.org/2000/svg" width="40" height="40" viewBox="0 0 40 40">
<title>heart-alt</title>
<path fill="#ebebeb" d="M30.88 10.147c-1.513-1.513-3.603-2.449-5.912-2.449-1.87 0-3.597 0.614-4.99 1.652l0.022-0.016c-1.375-1.032-3.11-1.652-4.989-1.652-4.617 0-8.36 3.743-8.36 8.36 0 2.319 0.944 4.417 2.469 5.932l9.934 9.934c0.242 0.244 0.577 0.394 0.947 0.394s0.705-0.151 0.947-0.394l9.933-9.933c1.514-1.513 2.451-3.604 2.451-5.913s-0.936-4.4-2.45-5.913l-0-0zM29 20.093l-9 8.987-9-8.987c-1.028-1.032-1.663-2.455-1.663-4.027 0-3.136 2.53-5.682 5.661-5.706h0.002c1.563 0.004 2.977 0.64 4 1.666l0 0c0.242 0.244 0.577 0.394 0.947 0.394s0.705-0.151 0.947-0.394l0-0c0.993-0.864 2.299-1.391 3.728-1.391 3.144 0 5.693 2.549 5.693 5.693 0 1.446-0.539 2.766-1.427 3.77l0.005-0.006z"></path>
</svg>
