<!-- Generated by IcoMoon.io -->
<svg version="1.1" xmlns="http://www.w3.org/2000/svg" width="40" height="40" viewBox="0 0 40 40">
<title>history</title>
<path fill="#ebebeb" d="M20 6.667c-3.562 0.010-6.793 1.416-9.178 3.698l0.005-0.005v-2.36c0-0.736-0.597-1.333-1.333-1.333s-1.333 0.597-1.333 1.333v0 6c0 0.736 0.597 1.333 1.333 1.333v0h6c0.736 0 1.333-0.597 1.333-1.333s-0.597-1.333-1.333-1.333v0h-3.2c1.945-2.030 4.679-3.292 7.707-3.292 5.891 0 10.667 4.776 10.667 10.667s-4.776 10.667-10.667 10.667c-5.891 0-10.667-4.776-10.667-10.667 0-0.015 0-0.029 0-0.044v0.002c0-0.736-0.597-1.333-1.333-1.333s-1.333 0.597-1.333 1.333v0c0 7.364 5.97 13.333 13.333 13.333s13.333-5.97 13.333-13.333c0-7.364-5.97-13.333-13.333-13.333v0zM20 14.667c-0.736 0-1.333 0.597-1.333 1.333v0 4c0 0.736 0.597 1.333 1.333 1.333v0h2.667c0.736 0 1.333-0.597 1.333-1.333s-0.597-1.333-1.333-1.333v0h-1.333v-2.667c0-0.736-0.597-1.333-1.333-1.333v0z"></path>
</svg>
