<!-- Generated by IcoMoon.io -->
<svg version="1.1" xmlns="http://www.w3.org/2000/svg" width="40" height="40" viewBox="0 0 40 40">
<title>hourglass</title>
<path fill="#ebebeb" d="M29.322 32.003h-1.333v-2.223c-0.004-0.804-0.151-1.572-0.414-2.283l0.015 0.046c-0.015-0.039-0.030-0.075-0.048-0.113-0.234-0.63-0.533-1.174-0.899-1.667l0.013 0.018-1.867-2.49c-0.498-0.661-0.798-1.496-0.8-2.401v-1.347c0.003-1.104 0.45-2.103 1.171-2.828l0.876-0.876c0.986-0.991 1.659-2.295 1.858-3.75l0.004-0.034c0.001-0.019 0.011-0.034 0.011-0.053l-0.004-0.018c0.043-0.25 0.073-0.546 0.084-0.847l0-0.011v-3.124h1.333c0.736 0 1.333-0.597 1.333-1.333s-0.597-1.333-1.333-1.333v0h-18.667c-0.736 0-1.333 0.597-1.333 1.333s0.597 1.333 1.333 1.333v0h1.333v3.124c0.011 0.312 0.041 0.608 0.089 0.897l-0.005-0.039-0.004 0.018c0 0.019 0.010 0.034 0.011 0.053 0.202 1.489 0.875 2.793 1.862 3.785l0.876 0.876c0.721 0.725 1.168 1.724 1.171 2.827v1.347c-0.002 0.905-0.302 1.74-0.807 2.411l0.007-0.010-1.868 2.49c-0.353 0.475-0.652 1.020-0.871 1.604l-0.015 0.046c-0.018 0.037-0.033 0.073-0.047 0.112-0.249 0.665-0.395 1.434-0.399 2.236v2.225h-1.333c-0.736 0-1.333 0.597-1.333 1.333s0.597 1.333 1.333 1.333v0h18.667c0.736 0 1.333-0.597 1.333-1.333s-0.597-1.333-1.333-1.333v0zM14.656 10.669v-2.667h10.667v2.667zM15.827 13.954c-0.183-0.184-0.349-0.386-0.493-0.604l-0.009-0.015h9.329c-0.154 0.232-0.319 0.434-0.503 0.619l-0.876 0.876c-1.008 1.002-1.694 2.326-1.892 3.805l-0.004 0.034h-2.78c-0.202-1.513-0.888-2.837-1.895-3.838l-0-0zM17.323 24.891c0.742-0.985 1.222-2.206 1.316-3.533l0.001-0.021h2.697c0.096 1.349 0.576 2.569 1.331 3.572l-0.012-0.017 1.334 1.779h-8.001zM25.322 32.003h-10.667v-2.223c0.004-0.161 0.017-0.314 0.039-0.465l-0.002 0.021h10.594c0.019 0.13 0.032 0.283 0.036 0.439l0 0.005z"></path>
</svg>
