<!-- Generated by IcoMoon.io -->
<svg version="1.1" xmlns="http://www.w3.org/2000/svg" width="40" height="40" viewBox="0 0 40 40">
<title>image-redo</title>
<path fill="#ebebeb" d="M32.667 6c-0.736 0-1.333 0.597-1.333 1.333v0 0c-1.101-0.835-2.495-1.337-4.005-1.337-3.682 0-6.667 2.985-6.667 6.667s2.985 6.667 6.667 6.667c1.692 0 3.237-0.63 4.412-1.669l-0.007 0.006c0.281-0.246 0.457-0.606 0.457-1.007 0-0.738-0.599-1.337-1.337-1.337-0.338 0-0.646 0.125-0.882 0.332l0.002-0.001c-0.702 0.622-1.63 1.001-2.647 1.001-2.209 0-4-1.791-4-4s1.791-4 4-4c1.182 0 2.245 0.513 2.977 1.328l0.003 0.004h-1.64c-0.736 0-1.333 0.597-1.333 1.333s0.597 1.333 1.333 1.333v0h4c0.736 0 1.333-0.597 1.333-1.333v0-4c-0.008-0.731-0.602-1.32-1.333-1.32-0 0-0 0-0 0v0zM28.667 22c-0.736 0-1.333 0.597-1.333 1.333v0 0.52l-2-1.973c-0.669-0.673-1.596-1.090-2.62-1.090s-1.951 0.417-2.62 1.090l-0.934 0.934-3.28-3.32c-0.672-0.667-1.598-1.079-2.62-1.079s-1.948 0.412-2.62 1.079l-1.973 1.973v-7.467c0-0.736 0.597-1.333 1.333-1.333v0h6.667c0.736 0 1.333-0.597 1.333-1.333s-0.597-1.333-1.333-1.333v0h-6.667c-2.209 0-4 1.791-4 4v0 16c0 2.209 1.791 4 4 4v0h16c2.209 0 4-1.791 4-4v0-6.667c0-0.736-0.597-1.333-1.333-1.333v0zM10 31.333c-0.736 0-1.333-0.597-1.333-1.333v0-4.76l3.867-3.907c0.189-0.18 0.445-0.291 0.727-0.291s0.538 0.111 0.727 0.291l4.226 4.226 5.787 5.773zM27.333 30c-0.012 0.266-0.1 0.509-0.243 0.711l0.003-0.004-6.013-6.013 0.933-0.933c0.188-0.187 0.447-0.303 0.733-0.303s0.545 0.116 0.733 0.303l-0-0 3.853 3.867z"></path>
</svg>
