<!-- Generated by IcoMoon.io -->
<svg version="1.1" xmlns="http://www.w3.org/2000/svg" width="40" height="40" viewBox="0 0 40 40">
<title>image-resize-landscape</title>
<path fill="#ebebeb" d="M21.333 18.667h-14.667c-0.736 0-1.333 0.597-1.333 1.333v0 12c0 0.736 0.597 1.333 1.333 1.333v0h14.48c0.067 0 0.12 0 0.187 0 0.736 0 1.333-0.597 1.333-1.333v0-12c0-0.736-0.597-1.333-1.333-1.333v0zM13.92 30.667l2.573-2.573c0.073-0.108 0.195-0.179 0.333-0.179s0.261 0.070 0.332 0.177l0.001 0.001 2.56 2.573zM20 27.173l-0.96-0.947c-0.576-0.551-1.358-0.89-2.22-0.89s-1.644 0.339-2.221 0.891l0.001-0.001-4.453 4.44h-2.147v-9.333h12zM6.667 9.48c0.485-0 0.91-0.26 1.143-0.647l0.003-0.006c0.159-0.224 0.254-0.503 0.254-0.804 0-0.008-0-0.016-0-0.024l0 0.001c0-0.001 0-0.001 0-0.002 0-0.736-0.597-1.333-1.333-1.333-0.023 0-0.047 0.001-0.070 0.002l0.003-0c-0.736 0-1.333 0.597-1.333 1.333v0 0.133c-0 0.004-0 0.009-0 0.013 0 0.736 0.597 1.333 1.333 1.333 0 0 0 0 0 0v0zM17.213 9.333h0.253c0.736 0 1.333-0.597 1.333-1.333s-0.597-1.333-1.333-1.333v0h-0.253c-0.736 0-1.333 0.597-1.333 1.333s0.597 1.333 1.333 1.333v0zM6.667 15.707c0.736 0 1.333-0.597 1.333-1.333v0-0.293c0-0.736-0.597-1.333-1.333-1.333s-1.333 0.597-1.333 1.333v0 0.293c0 0.736 0.597 1.333 1.333 1.333v0zM22.787 6.667h-0.253c-0.736 0-1.333 0.597-1.333 1.333s0.597 1.333 1.333 1.333v0h0.253c0.736 0 1.333-0.597 1.333-1.333s-0.597-1.333-1.333-1.333v0zM11.88 9.333h0.253c0.736 0 1.333-0.597 1.333-1.333s-0.597-1.333-1.333-1.333v0h-0.253c-0.736 0-1.333 0.597-1.333 1.333s0.597 1.333 1.333 1.333v0zM33.333 12.533c-0.736 0-1.333 0.597-1.333 1.333v0 0.28c0 0.736 0.597 1.333 1.333 1.333s1.333-0.597 1.333-1.333v0-0.28c0-0.736-0.597-1.333-1.333-1.333v0zM26.827 30.667h-0.32c-0.736 0-1.333 0.597-1.333 1.333s0.597 1.333 1.333 1.333v0h0.32c0.736 0 1.333-0.597 1.333-1.333s-0.597-1.333-1.333-1.333v0zM33.2 6.667c-0.677 0.070-1.2 0.637-1.2 1.327 0 0.002 0 0.005 0 0.007v-0c0.003 0.204 0.052 0.396 0.137 0.568l-0.003-0.008c0.217 0.459 0.677 0.77 1.208 0.77 0.684 0 1.247-0.514 1.324-1.177l0.001-0.006v-0.147c-0.064-0.749-0.688-1.333-1.448-1.333-0.006 0-0.013 0-0.019 0h0.001zM33.333 18.533c-0.736 0-1.333 0.597-1.333 1.333v0 0.293c0 0.736 0.597 1.333 1.333 1.333s1.333-0.597 1.333-1.333v0-0.293c0-0.736-0.597-1.333-1.333-1.333v0zM28.12 6.667h-0.253c-0.736 0-1.333 0.597-1.333 1.333s0.597 1.333 1.333 1.333v0h0.253c0.736 0 1.333-0.597 1.333-1.333s-0.597-1.333-1.333-1.333v0zM33.333 30.667c-0.001 0-0.001 0-0.002 0-0.214 0-0.416 0.054-0.592 0.15l0.007-0.003c-0.443 0.22-0.742 0.668-0.747 1.186v0.001c0 0.736 0.597 1.333 1.333 1.333v0c0.749-0.064 1.333-0.688 1.333-1.448 0-0.006-0-0.013-0-0.019v0.001c-0.070-0.677-0.637-1.2-1.327-1.2-0.002 0-0.005 0-0.007 0h0zM33.333 24.587c-0.736 0-1.333 0.597-1.333 1.333v0 0.293c0 0.736 0.597 1.333 1.333 1.333s1.333-0.597 1.333-1.333v0-0.347c0-0.736-0.597-1.333-1.333-1.333v0z"></path>
</svg>
