<!-- Generated by IcoMoon.io -->
<svg version="1.1" xmlns="http://www.w3.org/2000/svg" width="40" height="40" viewBox="0 0 40 40">
<title>image-search</title>
<path fill="#ebebeb" d="M29.333 21.333c-0.736 0-1.333 0.597-1.333 1.333v0 0.52l-1.973-1.973c-0.672-0.667-1.598-1.079-2.62-1.079s-1.948 0.412-2.62 1.079l-0.933 0.933-3.307-3.32c-0.683-0.643-1.605-1.038-2.62-1.038s-1.937 0.395-2.622 1.039l0.002-0.002-1.973 1.987v-7.48c0-0.736 0.597-1.333 1.333-1.333v0h5.333c0.736 0 1.333-0.597 1.333-1.333s-0.597-1.333-1.333-1.333v0h-5.333c-2.209 0-4 1.791-4 4v0 16c0 2.209 1.791 4 4 4v0h16c2.209 0 4-1.791 4-4v0-6.667c0-0.736-0.597-1.333-1.333-1.333v0zM10.667 30.667c-0.736 0-1.333-0.597-1.333-1.333v0-4.76l3.867-3.853c0.189-0.18 0.445-0.291 0.727-0.291s0.538 0.111 0.727 0.291l9.946 9.946zM28 29.333c-0.009 0.271-0.098 0.519-0.243 0.724l0.003-0.004-6.013-6.053 0.933-0.92c0.186-0.19 0.446-0.308 0.733-0.308s0.547 0.118 0.733 0.308l0 0 3.853 3.88zM32.947 17.72l-2.28-2.293c0.534-0.856 0.851-1.896 0.851-3.009 0-3.174-2.573-5.747-5.747-5.747s-5.747 2.573-5.747 5.747c0 1.586 0.643 3.023 1.682 4.063v0c1.023 1.029 2.436 1.669 3.998 1.68h0.002c0.021 0 0.047 0 0.072 0 1.101 0 2.131-0.308 3.007-0.842l-0.026 0.014 2.293 2.307c0.242 0.244 0.577 0.394 0.947 0.394s0.705-0.151 0.947-0.394l0-0c0.252-0.243 0.408-0.583 0.408-0.96s-0.156-0.717-0.408-0.96l-0-0zM28 14.667c-0.561 0.564-1.337 0.913-2.195 0.913-1.708 0-3.093-1.385-3.093-3.093s1.385-3.093 3.093-3.093c0.858 0 1.634 0.349 2.194 0.913l0 0c0.555 0.559 0.899 1.329 0.899 2.18s-0.343 1.621-0.899 2.18l0-0z"></path>
</svg>
