<!-- Generated by IcoMoon.io -->
<svg version="1.1" xmlns="http://www.w3.org/2000/svg" width="40" height="40" viewBox="0 0 40 40">
<title>layers-slash</title>
<path fill="#ebebeb" d="M31.32 22.587l-0.453 0.267c-0.394 0.237-0.653 0.661-0.653 1.147 0 0.251 0.069 0.486 0.19 0.686l-0.003-0.006c0.236 0.394 0.661 0.653 1.147 0.653v0c0.251-0 0.486-0.069 0.686-0.19l-0.006 0.003 0.453-0.267c0.334-0.245 0.549-0.637 0.549-1.078 0-0.736-0.597-1.333-1.333-1.333-0.199 0-0.388 0.044-0.557 0.122l0.008-0.003zM19.533 12.48l0.467-0.28 9.333 5.333-2.347 1.333c-0.407 0.234-0.676 0.665-0.676 1.16 0 0.736 0.597 1.333 1.333 1.333 0.003 0 0.007 0 0.010-0h-0.001c0.003 0 0.006 0 0.009 0 0.242 0 0.468-0.064 0.664-0.177l-0.006 0.003 4.347-2.52c0.407-0.234 0.676-0.665 0.676-1.16s-0.269-0.926-0.669-1.157l-0.006-0.003-12-6.92c-0.191-0.112-0.421-0.179-0.667-0.179s-0.475 0.066-0.673 0.182l0.006-0.003-1.133 0.653c-0.404 0.235-0.671 0.666-0.671 1.16 0 0.739 0.599 1.338 1.338 1.338 0.245 0 0.475-0.066 0.673-0.181l-0.006 0.003zM8.947 7.053c-0.242-0.242-0.577-0.392-0.947-0.392-0.739 0-1.339 0.599-1.339 1.339 0 0.37 0.15 0.704 0.392 0.947v0l4.853 4.84-4.573 2.667c-0.407 0.234-0.676 0.665-0.676 1.16s0.269 0.926 0.669 1.157l0.006 0.003 12 6.933c0.193 0.106 0.422 0.17 0.666 0.173h0.001c0.245-0.006 0.473-0.069 0.675-0.177l-0.008 0.004 2-1.173 1.933 1.947-4.587 2.667-11.347-6.573c-0.191-0.112-0.421-0.178-0.667-0.178-0.739 0-1.338 0.599-1.338 1.338 0 0.494 0.267 0.925 0.665 1.157l0.006 0.003 12 6.933c0.191 0.112 0.421 0.179 0.667 0.179s0.475-0.066 0.673-0.182l-0.006 0.003 5.88-3.4 4.507 4.52c0.242 0.244 0.577 0.394 0.947 0.394s0.705-0.151 0.947-0.394l0-0c0.244-0.242 0.394-0.577 0.394-0.947s-0.151-0.705-0.394-0.947l-0-0zM20 23.053l-9.333-5.467 3.2-1.84 6.827 6.84z"></path>
</svg>
