<!-- Generated by IcoMoon.io -->
<svg version="1.1" xmlns="http://www.w3.org/2000/svg" width="40" height="40" viewBox="0 0 40 40">
<title>life-ring</title>
<path fill="#ebebeb" d="M33.333 18.733c0-0.147 0-0.293 0-0.44l-0.12-0.8-0.12-0.52c0-0.227-0.107-0.453-0.173-0.68s-0.107-0.36-0.173-0.533c-0.031-0.084-0.064-0.191-0.089-0.3l-0.004-0.020s0 0 0-0.067c-1.396-3.644-4.223-6.47-7.774-7.836l-0.092-0.031s0 0-0.067 0l-0.307-0.093-0.56-0.173c-0.2 0-0.413-0.107-0.613-0.16l-0.613-0.133-0.613-0.093c-0.213 0-0.413 0-0.64-0.080s-0.467 0-0.693 0l-0.68-0.107h-0.52c-0.227 0-0.467 0-0.693 0s-0.427 0-0.64 0.080l-0.613 0.093-0.613 0.133c-0.2 0-0.413 0.093-0.613 0.16l-0.56 0.173-0.307 0.093s0 0-0.067 0c-3.644 1.396-6.47 4.223-7.836 7.774l-0.031 0.092s0 0 0 0.067c-0.030 0.129-0.062 0.236-0.1 0.34l0.006-0.020c0 0.173-0.12 0.347-0.173 0.533s-0.12 0.453-0.173 0.68l-0.12 0.52-0.12 0.8c0 0.147 0 0.293 0 0.44 0 0.413 0 0.84 0 1.267s0 0.853 0 1.267c0 0.147 0 0.293 0 0.44l0.12 0.8 0.12 0.52c0 0.227 0.107 0.453 0.173 0.68s0.107 0.36 0.173 0.533c0.031 0.084 0.064 0.191 0.089 0.3l0.004 0.020c0.001 0.014 0.002 0.030 0.002 0.047s-0.001 0.033-0.002 0.049l0-0.002c1.384 3.64 4.21 6.461 7.762 7.809l0.092 0.031s0 0 0.067 0l0.32 0.093 0.533 0.173 0.68 0.173 0.52 0.12 0.8 0.12h0.44c0.413 0 0.84 0.067 1.267 0.067s0.853 0 1.267-0.067h0.44l0.8-0.12 0.52-0.12 0.68-0.173 0.533-0.173 0.32-0.093s0 0 0.067 0c3.643-1.379 6.469-4.2 7.823-7.749l0.031-0.091c-0.001-0.014-0.002-0.030-0.002-0.047s0.001-0.033 0.002-0.049l-0 0.002c0-0.107 0.067-0.213 0.093-0.32s0.12-0.347 0.173-0.533 0.12-0.453 0.173-0.68l0.12-0.52 0.12-0.8c0-0.147 0-0.293 0-0.44 0-0.413 0.067-0.84 0.067-1.267s0.12-0.747 0.12-1.16zM24.933 10.52c1.991 1.038 3.576 2.622 4.585 4.554l0.028 0.059-3.813 1.333c-0.562-0.891-1.295-1.624-2.158-2.17l-0.028-0.017zM17.787 9.587c0.28-0.067 0.547-0.107 0.813-0.147h0.32c0.344-0.038 0.743-0.060 1.147-0.060s0.803 0.022 1.195 0.064l-0.049-0.004h0.32c0.267 0 0.533 0.080 0.813 0.147h0.080l-1.333 3.813c-0.273-0.044-0.588-0.069-0.909-0.069-0.065 0-0.129 0.001-0.193 0.003l0.009-0c-0.002 0-0.005 0-0.008 0-0.341 0-0.675 0.029-1 0.085l0.035-0.005-1.333-3.813zM15.2 10.52l1.333 3.813c-0.897 0.561-1.634 1.294-2.183 2.159l-0.017 0.028-3.813-1.333c1.030-2.012 2.616-3.616 4.555-4.639l0.058-0.028zM9.587 22.28c-0.058-0.227-0.105-0.499-0.132-0.778l-0.002-0.022c0-0.12 0-0.227 0-0.333-0.042-0.344-0.067-0.743-0.067-1.147s0.024-0.802 0.071-1.194l-0.005 0.047c0-0.107 0-0.213 0-0.333 0.028-0.301 0.075-0.573 0.141-0.838l-0.008 0.038s0 0 0-0.080l3.813 1.333c-0.051 0.293-0.080 0.63-0.080 0.973s0.029 0.681 0.085 1.009l-0.005-0.035-3.813 1.333s0 0.053 0 0.027zM15.133 29.48c-1.991-1.038-3.576-2.622-4.585-4.554l-0.028-0.059 3.813-1.333c0.562 0.891 1.295 1.624 2.158 2.17l0.028 0.017zM22.28 30.413c-0.28 0.067-0.547 0.107-0.813 0.147h-0.32c-0.344 0.038-0.743 0.060-1.147 0.060s-0.803-0.022-1.195-0.064l0.049 0.004h-0.32c-0.267 0-0.533-0.080-0.813-0.147h-0.080l1.333-3.813c0.293 0.051 0.63 0.080 0.973 0.080s0.681-0.029 1.009-0.085l-0.035 0.005 1.333 3.813zM21.387 23.747v0c-0.227 0.080-0.453 0.133-0.667 0.187-0.2 0.039-0.431 0.062-0.667 0.062s-0.466-0.022-0.689-0.065l0.023 0.004c-0.213 0-0.44-0.107-0.667-0.187v0c-1.144-0.403-2.032-1.278-2.444-2.386l-0.009-0.028c-0.072-0.19-0.137-0.418-0.182-0.653l-0.004-0.027c-0.041-0.2-0.064-0.431-0.064-0.667s0.023-0.466 0.068-0.689l-0.004 0.022c0.047-0.252 0.107-0.472 0.183-0.683l-0.009 0.030c0.416-1.122 1.288-1.99 2.386-2.391l0.028-0.009c0.227-0.080 0.453-0.133 0.667-0.187 0.2-0.039 0.431-0.062 0.667-0.062s0.466 0.022 0.689 0.065l-0.023-0.004c0.213 0 0.44 0.107 0.667 0.187v0c1.119 0.413 1.987 1.281 2.391 2.372l0.009 0.028c0.072 0.19 0.137 0.418 0.182 0.653l0.004 0.027c0.041 0.2 0.064 0.431 0.064 0.667s-0.023 0.466-0.068 0.689l0.004-0.022c-0.050 0.262-0.114 0.49-0.196 0.71l0.010-0.030c-0.42 1.109-1.285 1.966-2.372 2.364l-0.028 0.009zM24.867 29.493l-1.333-3.813c0.891-0.562 1.624-1.295 2.17-2.158l0.017-0.028 3.813 1.333c-1.045 2.014-2.649 3.614-4.607 4.625l-0.060 0.028zM30.667 21.147c0 0.107 0 0.213 0 0.333-0.028 0.301-0.075 0.573-0.141 0.838l0.008-0.038s0 0 0 0.080l-3.813-1.333c0.051-0.293 0.080-0.63 0.080-0.973s-0.029-0.681-0.085-1.009l0.005 0.035 3.813-1.333s0 0 0 0.080c0.058 0.227 0.105 0.499 0.132 0.778l0.002 0.022c0 0.12 0 0.227 0 0.333 0.042 0.344 0.067 0.743 0.067 1.147s-0.024 0.802-0.071 1.194l0.005-0.047z"></path>
</svg>
