<!-- Generated by IcoMoon.io -->
<svg version="1.1" xmlns="http://www.w3.org/2000/svg" width="40" height="40" viewBox="0 0 40 40">
<title>map-marker-slash</title>
<path fill="#ebebeb" d="M18.173 11.32c0.547-0.133 1.175-0.21 1.821-0.21 4.418 0 8 3.582 8 8 0 0.642-0.076 1.266-0.218 1.864l0.011-0.054c-0.024 0.095-0.038 0.204-0.038 0.316 0 0.627 0.433 1.153 1.016 1.295l0.009 0.002c0.046 0.006 0.099 0.010 0.153 0.010s0.107-0.004 0.159-0.011l-0.006 0.001c0.012 0 0.025 0.001 0.039 0.001 0.623 0 1.146-0.427 1.293-1.005l0.002-0.009c0.18-0.733 0.283-1.575 0.283-2.44 0-5.891-4.776-10.667-10.667-10.667-0.862 0-1.7 0.102-2.502 0.295l0.073-0.015c-0.613 0.144-1.061 0.686-1.061 1.333 0 0.756 0.613 1.368 1.368 1.368 0.109 0 0.215-0.013 0.316-0.037l-0.009 0.002zM32.947 30.76l-24-24c-0.242-0.244-0.577-0.394-0.947-0.394s-0.705 0.151-0.947 0.394l-0 0c-0.24 0.241-0.388 0.573-0.388 0.94s0.148 0.699 0.388 0.94l4.28 4.28c-1.248 1.724-1.996 3.881-1.996 6.213 0 2.941 1.191 5.605 3.116 7.534l6.6 6.6c0.242 0.244 0.577 0.394 0.947 0.394s0.705-0.151 0.947-0.394l5.333-5.333 4.747 4.747c0.242 0.243 0.577 0.394 0.947 0.394 0.737 0 1.334-0.597 1.334-1.334 0-0.367-0.148-0.699-0.387-0.94l0 0zM20.16 21.747c-0.051 0.003-0.11 0.005-0.17 0.005-0.729 0-1.389-0.292-1.87-0.766l0 0c-0.488-0.484-0.791-1.154-0.791-1.895 0-0.051 0.001-0.102 0.004-0.152l-0 0.007zM20 30.413l-5.653-5.653c-1.441-1.447-2.331-3.442-2.331-5.645 0-1.586 0.461-3.064 1.257-4.307l-0.019 0.032 1.96 1.96c-0.334 0.677-0.529 1.473-0.529 2.315 0 1.463 0.589 2.788 1.543 3.752l-0-0c0.964 0.97 2.298 1.571 3.773 1.573h0.001c0.841-0.004 1.634-0.205 2.337-0.56l-0.030 0.014 2.107 2.107z"></path>
</svg>
