<!-- Generated by IcoMoon.io -->
<svg version="1.1" xmlns="http://www.w3.org/2000/svg" width="40" height="40" viewBox="0 0 40 40">
<title>medical-drip</title>
<path fill="#ebebeb" d="M26.667 12h-2.667v-2.667h2.667c0.736 0 1.333-0.597 1.333-1.333s-0.597-1.333-1.333-1.333v0h-10.667c-3.682 0-6.667 2.985-6.667 6.667v0 18.667c0 0.736 0.597 1.333 1.333 1.333s1.333-0.597 1.333-1.333v0-18.667c0-2.209 1.791-4 4-4v0h5.333v2.667h-2.667c-2.209 0-4 1.791-4 4v0 6.573c0 0 0 0.001 0 0.001 0 1.384 0.703 2.605 1.772 3.323l0.014 0.009 2.213 1.48v0.613c0 1.473 1.194 2.667 2.667 2.667v0 1.333c0 0.736 0.597 1.333 1.333 1.333s1.333-0.597 1.333-1.333v0-1.333c1.473 0 2.667-1.194 2.667-2.667v0-0.613l2.213-1.48c1.083-0.727 1.787-1.947 1.787-3.332 0-0.001 0-0.001 0-0.002v0-6.573c0-2.209-1.791-4-4-4v0zM25.333 18.667h2.667v1.333h-1.333c-0.736 0-1.333 0.597-1.333 1.333s0.597 1.333 1.333 1.333v0h1.333c-0.031 0.423-0.254 0.788-0.582 1.010l-0.005 0.003-2.8 1.88c-0.367 0.238-0.608 0.644-0.613 1.106v1.334h-2.667v-1.333c-0.002-0.461-0.238-0.866-0.595-1.104l-0.005-0.003-2.8-1.88c-0.362-0.241-0.598-0.646-0.6-1.106v-6.574c0-0.736 0.597-1.333 1.333-1.333v0h8c0.736 0 1.333 0.597 1.333 1.333v0h-2.667c-0.736 0-1.333 0.597-1.333 1.333s0.597 1.333 1.333 1.333v0z"></path>
</svg>
