<!-- Generated by IcoMoon.io -->
<svg version="1.1" xmlns="http://www.w3.org/2000/svg" width="40" height="40" viewBox="0 0 40 40">
<title>minus-path</title>
<path fill="#ebebeb" d="M14.907 9.333h2.8c0.736 0 1.333-0.597 1.333-1.333s-0.597-1.333-1.333-1.333v0h-2.8c-0.736 0-1.333 0.597-1.333 1.333s0.597 1.333 1.333 1.333v0zM8 19.040c0.736 0 1.333-0.597 1.333-1.333v0-2.8c0-0.736-0.597-1.333-1.333-1.333s-1.333 0.597-1.333 1.333v0 2.8c0 0.736 0.597 1.333 1.333 1.333v0zM23.28 9.333c0 0.736 0.597 1.333 1.333 1.333s1.333-0.597 1.333-1.333v0-1.333c0-0.736-0.597-1.333-1.333-1.333v0h-1.333c-0.736 0-1.333 0.597-1.333 1.333s0.597 1.333 1.333 1.333v0zM32 14.053h-6.053c0-0.736-0.597-1.333-1.333-1.333s-1.333 0.597-1.333 1.333v0h-7.893c-0.736 0-1.333 0.597-1.333 1.333v0 7.893c-0.736 0-1.333 0.597-1.333 1.333s0.597 1.333 1.333 1.333v0 6.053c0 0.736 0.597 1.333 1.333 1.333v0h16.613c0.736 0 1.333-0.597 1.333-1.333v0-16.613c0-0.736-0.597-1.333-1.333-1.333v0zM30.667 30.667h-13.947v-13.947h13.947zM9.333 6.667h-1.333c-0.736 0-1.333 0.597-1.333 1.333v0 1.333c0 0.736 0.597 1.333 1.333 1.333s1.333-0.597 1.333-1.333v0c0.736 0 1.333-0.597 1.333-1.333s-0.597-1.333-1.333-1.333v0zM9.333 23.28c0-0.736-0.597-1.333-1.333-1.333s-1.333 0.597-1.333 1.333v0 1.333c0 0.736 0.597 1.333 1.333 1.333v0h1.333c0.736 0 1.333-0.597 1.333-1.333s-0.597-1.333-1.333-1.333v0z"></path>
</svg>
