<!-- Generated by IcoMoon.io -->
<svg version="1.1" xmlns="http://www.w3.org/2000/svg" width="40" height="40" viewBox="0 0 40 40">
<title>missed-call</title>
<path fill="#ebebeb" d="M12 13.987c0.736 0 1.333-0.597 1.333-1.333v0-0.787l3.84 3.84c0.724 0.723 1.723 1.17 2.827 1.17s2.103-0.447 2.827-1.17l6.12-6.12c0.24-0.241 0.388-0.573 0.388-0.94s-0.148-0.699-0.388-0.94l0 0c-0.242-0.244-0.577-0.394-0.947-0.394s-0.705 0.151-0.947 0.394l-6.107 6.107c-0.242 0.244-0.577 0.394-0.947 0.394s-0.705-0.151-0.947-0.394l-0-0-3.84-3.827h0.787c0.736 0 1.333-0.597 1.333-1.333s-0.597-1.333-1.333-1.333v0h-4c-0.548 0-1.019 0.332-1.223 0.805l-0.003 0.009c-0.064 0.154-0.103 0.332-0.107 0.519l-0 0.001v4c0 0.736 0.597 1.333 1.333 1.333v0zM33.253 23.8c-3.624-2.819-8.24-4.519-13.253-4.519s-9.629 1.7-13.302 4.556l0.049-0.037c-0.786 0.637-1.294 1.589-1.333 2.66l-0 0.006c-0.005 0.073-0.008 0.157-0.008 0.243 0 0.984 0.401 1.875 1.048 2.517l0 0 2.347 2.4c0.647 0.646 1.54 1.046 2.526 1.046 0.784 0 1.508-0.252 2.097-0.68l-0.010 0.007 0.627-0.427c0.376-0.247 0.813-0.491 1.267-0.705l0.066-0.028c0.873-0.393 1.47-1.255 1.47-2.256 0-0.29-0.050-0.569-0.142-0.827l0.005 0.017-0.12-0.32c1.044-0.279 2.243-0.44 3.48-0.44s2.436 0.16 3.578 0.462l-0.097-0.022-0.12 0.32c-0.087 0.241-0.137 0.52-0.137 0.81 0 1.002 0.597 1.864 1.455 2.25l0.016 0.006c0.521 0.242 0.958 0.486 1.375 0.759l-0.042-0.025 0.627 0.427c0.562 0.416 1.27 0.667 2.035 0.667 0.006 0 0.013-0 0.019-0h-0.001c0.001 0 0.003 0 0.004 0 0.997 0 1.9-0.402 2.556-1.054l-0 0 2.413-2.427c0.581-0.63 0.937-1.474 0.937-2.402 0-0.122-0.006-0.242-0.018-0.36l0.001 0.015c-0.068-1.079-0.603-2.022-1.405-2.634l-0.009-0.006zM31.733 27.32l-2.4 2.413c-0.165 0.172-0.397 0.279-0.654 0.279-0.183 0-0.354-0.054-0.496-0.148l0.003 0.002c-0.253-0.187-0.507-0.36-0.787-0.533-0.397-0.257-0.873-0.527-1.364-0.773l-0.090-0.041 0.533-1.453c0.050-0.135 0.079-0.291 0.079-0.453 0-0.574-0.362-1.062-0.87-1.251l-0.009-0.003c-1.685-0.633-3.633-1-5.667-1s-3.981 0.366-5.781 1.037l0.114-0.037c-0.517 0.191-0.879 0.68-0.879 1.254 0 0.163 0.029 0.318 0.082 0.462l-0.003-0.009 0.533 1.467c-0.577 0.27-1.058 0.537-1.519 0.831l0.052-0.031-0.773 0.533c-0.142 0.103-0.32 0.165-0.513 0.165-0.263 0-0.498-0.115-0.66-0.297l-0.001-0.001-2.4-2.413c-0.165-0.162-0.267-0.388-0.267-0.637 0-0.006 0-0.012 0-0.017v0.001c0.024-0.286 0.164-0.536 0.371-0.705l0.002-0.001c3.181-2.469 7.23-3.959 11.627-3.959s8.446 1.489 11.67 3.991l-0.043-0.032c0.21 0.17 0.349 0.42 0.373 0.703l0 0.004c0 0.005 0 0.011 0 0.017 0 0.249-0.102 0.475-0.267 0.637l-0 0z"></path>
</svg>
