<!-- Generated by IcoMoon.io -->
<svg version="1.1" xmlns="http://www.w3.org/2000/svg" width="40" height="40" viewBox="0 0 40 40">
<title>mouse-alt</title>
<path fill="#ebebeb" d="M20 12c-0.736 0-1.333 0.597-1.333 1.333v0 2.667c0 0.736 0.597 1.333 1.333 1.333s1.333-0.597 1.333-1.333v0-2.667c0-0.736-0.597-1.333-1.333-1.333v0zM20 6.667c-5.155 0-9.333 4.179-9.333 9.333v0 8c0 5.155 4.179 9.333 9.333 9.333s9.333-4.179 9.333-9.333v0-8c0-5.155-4.179-9.333-9.333-9.333v0zM26.667 24c0 3.682-2.985 6.667-6.667 6.667s-6.667-2.985-6.667-6.667v0-8c0-3.682 2.985-6.667 6.667-6.667s6.667 2.985 6.667 6.667v0z"></path>
</svg>
