<!-- Generated by IcoMoon.io -->
<svg version="1.1" xmlns="http://www.w3.org/2000/svg" width="40" height="40" viewBox="0 0 40 40">
<title>object-group</title>
<path fill="#ebebeb" d="M25.333 17.333h-2.667v-2.667c0-0.736-0.597-1.333-1.333-1.333v0h-6.667c-0.736 0-1.333 0.597-1.333 1.333v0 6.667c0 0.736 0.597 1.333 1.333 1.333v0h2.667v2.667c0 0.736 0.597 1.333 1.333 1.333v0h6.667c0.736 0 1.333-0.597 1.333-1.333v0-6.667c0-0.736-0.597-1.333-1.333-1.333v0zM17.333 18.667v1.333h-1.333v-4h4v1.333h-1.333c-0.736 0-1.333 0.597-1.333 1.333v0zM24 24h-4v-4h4zM32 28.373v-16.747c0.823-0.464 1.37-1.334 1.37-2.33 0-1.473-1.194-2.667-2.667-2.667-0.997 0-1.866 0.547-2.324 1.357l-0.007 0.013h-16.747c-0.464-0.823-1.334-1.37-2.33-1.37-1.473 0-2.667 1.194-2.667 2.667 0 0.997 0.547 1.866 1.357 2.324l0.013 0.007v16.747c-0.823 0.464-1.37 1.334-1.37 2.33 0 1.473 1.194 2.667 2.667 2.667 0.997 0 1.866-0.547 2.324-1.357l0.007-0.013h16.747c0.464 0.823 1.334 1.37 2.33 1.37 1.473 0 2.667-1.194 2.667-2.667 0-0.997-0.547-1.866-1.357-2.324l-0.013-0.007zM29.333 28.373c-0.403 0.231-0.729 0.557-0.953 0.948l-0.007 0.012h-16.747c-0.231-0.403-0.557-0.729-0.948-0.953l-0.012-0.007v-16.747c0.403-0.231 0.729-0.557 0.953-0.948l0.007-0.012h16.747c0.231 0.403 0.557 0.729 0.948 0.953l0.012 0.007z"></path>
</svg>
