<!-- Generated by IcoMoon.io -->
<svg version="1.1" xmlns="http://www.w3.org/2000/svg" width="40" height="40" viewBox="0 0 40 40">
<title>parking-circle</title>
<path fill="#ebebeb" d="M21.333 13.333h-4c-0.736 0-1.333 0.597-1.333 1.333v0 10.667c0 0.736 0.597 1.333 1.333 1.333s1.333-0.597 1.333-1.333v0-2.667h2.667c2.209 0 4-1.791 4-4v0-1.333c0-2.209-1.791-4-4-4v0zM22.667 18.667c0 0.736-0.597 1.333-1.333 1.333v0h-2.667v-4h2.667c0.736 0 1.333 0.597 1.333 1.333v0zM20 6.667c-7.364 0-13.333 5.97-13.333 13.333s5.97 13.333 13.333 13.333c7.364 0 13.333-5.97 13.333-13.333v0c0-7.364-5.97-13.333-13.333-13.333v0zM20 30.667c-5.891 0-10.667-4.776-10.667-10.667s4.776-10.667 10.667-10.667c5.891 0 10.667 4.776 10.667 10.667v0c0 5.891-4.776 10.667-10.667 10.667v0z"></path>
</svg>
