<!-- Generated by IcoMoon.io -->
<svg version="1.1" xmlns="http://www.w3.org/2000/svg" width="40" height="40" viewBox="0 0 40 40">
<title>pause</title>
<path fill="#ebebeb" d="M25.333 6.667c-2.209 0-4 1.791-4 4v0 18.667c0 2.209 1.791 4 4 4s4-1.791 4-4v0-18.667c0-2.209-1.791-4-4-4v0zM26.667 29.333c0 0.736-0.597 1.333-1.333 1.333s-1.333-0.597-1.333-1.333v0-18.667c0-0.736 0.597-1.333 1.333-1.333s1.333 0.597 1.333 1.333v0zM14.667 6.667c-2.209 0-4 1.791-4 4v0 18.667c0 2.209 1.791 4 4 4s4-1.791 4-4v0-18.667c0-2.209-1.791-4-4-4v0zM16 29.333c0 0.736-0.597 1.333-1.333 1.333s-1.333-0.597-1.333-1.333v0-18.667c0-0.736 0.597-1.333 1.333-1.333s1.333 0.597 1.333 1.333v0z"></path>
</svg>
