<!-- Generated by IcoMoon.io -->
<svg version="1.1" xmlns="http://www.w3.org/2000/svg" width="40" height="40" viewBox="0 0 40 40">
<title>pentagon</title>
<path fill="#ebebeb" d="M32.787 16.227l-12-8.72c-0.218-0.16-0.491-0.257-0.787-0.257s-0.569 0.096-0.79 0.259l0.004-0.003-12 8.72c-0.333 0.245-0.547 0.636-0.547 1.077 0 0.149 0.024 0.292 0.070 0.426l-0.003-0.009 4.587 14.107c0.179 0.539 0.679 0.922 1.268 0.922 0.023 0 0.046-0.001 0.068-0.002l-0.003 0h14.76c0.019 0.001 0.042 0.002 0.065 0.002 0.589 0 1.089-0.382 1.265-0.912l0.003-0.009 4.587-14.107c0.035-0.113 0.055-0.244 0.055-0.379 0-0.464-0.237-0.873-0.597-1.112l-0.005-0.003zM26.453 30.080h-12.907l-4-12.267 10.453-7.573 10.427 7.573z"></path>
</svg>
