<!-- Generated by IcoMoon.io -->
<svg version="1.1" xmlns="http://www.w3.org/2000/svg" width="40" height="40" viewBox="0 0 40 40">
<title>phone-volume</title>
<path fill="#ebebeb" d="M29.88 21.333c-0.293 0-0.6-0.093-0.893-0.16-0.688-0.155-1.272-0.334-1.837-0.55l0.090 0.030c-0.271-0.102-0.585-0.161-0.912-0.161-1.046 0-1.951 0.602-2.388 1.479l-0.007 0.015-0.293 0.613c-1.353-0.775-2.521-1.659-3.564-2.671l0.004 0.004c-1.008-1.039-1.892-2.207-2.621-3.475l-0.045-0.085 0.613-0.28c0.892-0.444 1.494-1.349 1.494-2.395 0-0.327-0.059-0.641-0.167-0.93l0.006 0.018c-0.183-0.474-0.362-1.063-0.502-1.666l-0.018-0.094c-0.067-0.293-0.12-0.6-0.16-0.893-0.336-1.898-1.973-3.32-3.942-3.32-0.020 0-0.041 0-0.061 0l0.003-0h-4.013c-0.002 0-0.003 0-0.005 0-1.183 0-2.246 0.513-2.978 1.33l-0.003 0.004c-0.627 0.703-1.010 1.636-1.010 2.657 0 0.191 0.013 0.38 0.039 0.564l-0.002-0.021c0.774 5.773 3.384 10.829 7.214 14.667l-0-0c3.838 3.829 8.893 6.44 14.536 7.199l0.131 0.014c0.078 0.006 0.169 0.010 0.26 0.010s0.182-0.004 0.272-0.011l-0.012 0.001c0.002 0 0.004 0 0.006 0 1.024 0 1.957-0.384 2.665-1.017l-0.004 0.003c0.82-0.736 1.333-1.799 1.333-2.981 0-0.002 0-0.004 0-0.006v0-4c-0.016-1.923-1.385-3.521-3.201-3.889l-0.026-0.004zM30.533 29.333c-0.001 0.391-0.17 0.742-0.439 0.986l-0.001 0.001c-0.236 0.216-0.552 0.348-0.898 0.348-0.069 0-0.137-0.005-0.203-0.015l0.007 0.001c-5.177-0.694-9.712-3.028-13.161-6.455l0.001 0.001c-3.452-3.452-5.806-8.003-6.494-13.082l-0.013-0.118c-0.009-0.059-0.014-0.126-0.014-0.195 0-0.346 0.132-0.662 0.349-0.899l-0.001 0.001c0.245-0.271 0.598-0.44 0.99-0.44 0.004 0 0.007 0 0.011 0h3.999c0.010-0 0.021-0 0.033-0 0.633 0 1.162 0.44 1.299 1.031l0.002 0.009c0 0.36 0.12 0.733 0.2 1.093 0.179 0.804 0.39 1.49 0.648 2.153l-0.034-0.1-1.867 0.88c-0.321 0.15-0.567 0.413-0.69 0.737l-0.003 0.009c-0.063 0.15-0.1 0.324-0.1 0.507s0.037 0.357 0.103 0.515l-0.003-0.009c1.958 4.127 5.206 7.376 9.216 9.283l0.117 0.050c0.15 0.063 0.324 0.1 0.507 0.1s0.357-0.037 0.515-0.103l-0.009 0.003c0.333-0.126 0.597-0.373 0.743-0.685l0.003-0.008 0.84-1.867c0.569 0.217 1.273 0.429 1.996 0.592l0.111 0.021c0.347 0.080 0.72 0.147 1.080 0.2 0.6 0.139 1.040 0.668 1.040 1.301 0 0.011-0 0.023-0 0.034l0-0.002zM22.667 6.667c-0.307 0-0.627 0-0.933 0-0.689 0.060-1.225 0.634-1.225 1.333 0 0.739 0.599 1.338 1.338 1.338 0.040 0 0.079-0.002 0.118-0.005l-0.005 0h0.707c4.418 0 8 3.582 8 8v0c0 0.24 0 0.467 0 0.707-0.003 0.033-0.005 0.072-0.005 0.112 0 0.696 0.533 1.267 1.213 1.328l0.005 0h0.107c0.002 0 0.004 0 0.005 0 0.694 0 1.264-0.53 1.328-1.208l0-0.005c0-0.307 0-0.627 0-0.933 0-5.886-4.768-10.659-10.653-10.667h-0.001zM25.333 17.333c0 0.736 0.597 1.333 1.333 1.333s1.333-0.597 1.333-1.333v0c0-2.946-2.388-5.333-5.333-5.333v0c-0.736 0-1.333 0.597-1.333 1.333s0.597 1.333 1.333 1.333v0c1.473 0 2.667 1.194 2.667 2.667v0z"></path>
</svg>
