<!-- Generated by IcoMoon.io -->
<svg version="1.1" xmlns="http://www.w3.org/2000/svg" width="40" height="40" viewBox="0 0 40 40">
<title>previous</title>
<path fill="#ebebeb" d="M21.88 20l4.4-4.387c0.242-0.242 0.392-0.577 0.392-0.947 0-0.739-0.599-1.339-1.339-1.339-0.37 0-0.704 0.15-0.947 0.392l-5.333 5.333c-0.244 0.242-0.394 0.577-0.394 0.947s0.151 0.705 0.394 0.947l5.333 5.333c0.242 0.244 0.577 0.394 0.947 0.394s0.705-0.151 0.947-0.394l0-0c0.244-0.242 0.394-0.577 0.394-0.947s-0.151-0.705-0.394-0.947l-0-0zM14.667 13.333c-0.736 0-1.333 0.597-1.333 1.333v0 10.667c0 0.736 0.597 1.333 1.333 1.333s1.333-0.597 1.333-1.333v0-10.667c0-0.736-0.597-1.333-1.333-1.333v0z"></path>
</svg>
