<!-- Generated by IcoMoon.io -->
<svg version="1.1" xmlns="http://www.w3.org/2000/svg" width="40" height="40" viewBox="0 0 40 40">
<title>processor</title>
<path fill="#ebebeb" d="M22.667 16h-5.333c-0.736 0-1.333 0.597-1.333 1.333v0 5.333c0 0.736 0.597 1.333 1.333 1.333v0h5.333c0.736 0 1.333-0.597 1.333-1.333v0-5.333c0-0.736-0.597-1.333-1.333-1.333v0zM21.333 21.333h-2.667v-2.667h2.667zM32 21.333c0.736 0 1.333-0.597 1.333-1.333s-0.597-1.333-1.333-1.333v0h-2.667v-2.667h2.667c0.736 0 1.333-0.597 1.333-1.333s-0.597-1.333-1.333-1.333v0h-2.907c-0.412-1.135-1.291-2.014-2.399-2.418l-0.028-0.009v-2.907c0-0.736-0.597-1.333-1.333-1.333s-1.333 0.597-1.333 1.333v0 2.667h-2.667v-2.667c0-0.736-0.597-1.333-1.333-1.333s-1.333 0.597-1.333 1.333v0 2.667h-2.667v-2.667c0-0.736-0.597-1.333-1.333-1.333s-1.333 0.597-1.333 1.333v0 2.907c-1.135 0.412-2.014 1.291-2.418 2.399l-0.009 0.028h-2.907c-0.736 0-1.333 0.597-1.333 1.333s0.597 1.333 1.333 1.333v0h2.667v2.667h-2.667c-0.736 0-1.333 0.597-1.333 1.333s0.597 1.333 1.333 1.333v0h2.667v2.667h-2.667c-0.736 0-1.333 0.597-1.333 1.333s0.597 1.333 1.333 1.333v0h2.907c0.412 1.135 1.291 2.014 2.399 2.418l0.028 0.009v2.907c0 0.736 0.597 1.333 1.333 1.333s1.333-0.597 1.333-1.333v0-2.667h2.667v2.667c0 0.736 0.597 1.333 1.333 1.333s1.333-0.597 1.333-1.333v0-2.667h2.667v2.667c0 0.736 0.597 1.333 1.333 1.333s1.333-0.597 1.333-1.333v0-2.907c1.135-0.412 2.014-1.291 2.418-2.399l0.009-0.028h2.907c0.736 0 1.333-0.597 1.333-1.333s-0.597-1.333-1.333-1.333v0h-2.667v-2.667zM26.667 25.333c0 0.736-0.597 1.333-1.333 1.333v0h-10.667c-0.736 0-1.333-0.597-1.333-1.333v0-10.667c0-0.736 0.597-1.333 1.333-1.333v0h10.667c0.736 0 1.333 0.597 1.333 1.333v0z"></path>
</svg>
