<!-- Generated by IcoMoon.io -->
<svg version="1.1" xmlns="http://www.w3.org/2000/svg" width="40" height="40" viewBox="0 0 40 40">
<title>raindrops-alt</title>
<path fill="#ebebeb" d="M16 14.333c0-3.667-3.44-6.013-3.587-6.107-0.209-0.143-0.468-0.229-0.747-0.229s-0.537 0.085-0.751 0.232l0.005-0.003c-0.147 0.107-3.587 2.44-3.587 6.107 0 2.393 1.94 4.333 4.333 4.333s4.333-1.94 4.333-4.333v0zM11.667 16c-0.92 0-1.667-0.746-1.667-1.667v0c0.117-1.311 0.736-2.457 1.661-3.262l0.006-0.005c0.936 0.805 1.557 1.954 1.666 3.249l0.001 0.018c0 0.92-0.746 1.667-1.667 1.667v0zM19.747 17.56c-0.209-0.143-0.468-0.229-0.747-0.229s-0.537 0.085-0.751 0.232l0.005-0.003c-0.227 0.16-5.587 3.867-5.587 9.44 0 3.498 2.836 6.333 6.333 6.333s6.333-2.836 6.333-6.333v0c0-5.667-5.333-9.293-5.587-9.44zM19 30.667c-2.025 0-3.667-1.642-3.667-3.667v0c0-3.080 2.413-5.56 3.68-6.667 1.253 1.053 3.653 3.507 3.653 6.667 0 2.025-1.642 3.667-3.667 3.667v0zM28.080 6.893c-0.209-0.143-0.468-0.229-0.747-0.229s-0.537 0.085-0.751 0.232l0.005-0.003c-0.187 0.133-4.587 3.173-4.587 7.773 0 2.946 2.388 5.333 5.333 5.333s5.333-2.388 5.333-5.333v0c0-4.653-4.4-7.653-4.587-7.773zM27.333 17.333c-1.473 0-2.667-1.194-2.667-2.667v0c0.196-2.012 1.189-3.761 2.653-4.949l0.013-0.011c1.484 1.195 2.478 2.946 2.664 4.931l0.002 0.029c0 1.473-1.194 2.667-2.667 2.667v0z"></path>
</svg>
