<!-- Generated by IcoMoon.io -->
<svg version="1.1" xmlns="http://www.w3.org/2000/svg" width="40" height="40" viewBox="0 0 40 40">
<title>react</title>
<path fill="#ebebeb" d="M18.804 17.917c-0.717 0.419-1.191 1.185-1.191 2.062 0 1.315 1.066 2.381 2.381 2.381s2.381-1.066 2.381-2.381c0-0.438-0.118-0.849-0.325-1.202l0.006 0.011c-0.419-0.717-1.185-1.19-2.062-1.19-0.438 0-0.849 0.118-1.202 0.325l0.011-0.006zM29.477 20.501q-0.234-0.268-0.495-0.537 0.182-0.191 0.352-0.382c2.141-2.406 3.045-4.818 2.207-6.269-0.803-1.391-3.191-1.805-6.181-1.224q-0.442 0.086-0.879 0.195-0.084-0.288-0.178-0.573c-1.014-3.057-2.653-5.045-4.328-5.044-1.606 0.001-3.158 1.863-4.148 4.743q-0.146 0.426-0.27 0.86-0.292-0.072-0.587-0.132c-3.155-0.648-5.696-0.221-6.531 1.23-0.801 1.392 0.037 3.666 2.038 5.963q0.298 0.341 0.612 0.666c-0.247 0.255-0.481 0.509-0.7 0.762-1.953 2.264-2.743 4.502-1.943 5.887 0.826 1.431 3.331 1.899 6.381 1.299q0.371-0.073 0.737-0.165 0.134 0.469 0.295 0.929c0.986 2.823 2.529 4.625 4.129 4.624 1.653-0.001 3.309-1.937 4.313-4.878 0.079-0.232 0.154-0.474 0.225-0.722q0.474 0.118 0.953 0.209c2.938 0.556 5.27 0.119 6.069-1.268 0.825-1.432-0.026-3.835-2.073-6.173zM9.427 13.936c0.514-0.893 2.591-1.242 5.315-0.683q0.261 0.054 0.531 0.12c-0.24 1.003-0.438 2.221-0.554 3.462l-0.008 0.108c-1.046 0.74-1.961 1.481-2.825 2.276l0.020-0.018q-0.293-0.303-0.57-0.62l0 0c-1.715-1.968-2.393-3.807-1.91-4.646zM14.609 21.573c-0.681-0.515-1.313-1.044-1.888-1.575 0.574-0.528 1.207-1.054 1.886-1.568q-0.037 0.786-0.036 1.572 0.001 0.786 0.038 1.571zM14.608 26.827c-0.629 0.146-1.352 0.23-2.094 0.23-0.503 0-0.997-0.038-1.479-0.113l0.054 0.007c-0.671-0.054-1.257-0.382-1.651-0.871l-0.004-0.004c-0.485-0.841 0.149-2.637 1.819-4.574q0.315-0.364 0.651-0.709c0.846 0.783 1.763 1.527 2.725 2.21l0.085 0.057c0.125 1.367 0.326 2.6 0.605 3.803l-0.037-0.187q-0.335 0.084-0.673 0.151zM24.076 16.108q-0.671-0.423-1.358-0.818-0.676-0.389-1.369-0.749c0.791-0.332 1.568-0.616 2.318-0.848 0.153 0.643 0.296 1.464 0.397 2.299l0.012 0.117zM16.905 11.78c0.848-2.468 2.104-3.974 3.071-3.974 1.031-0.001 2.37 1.624 3.246 4.264q0.085 0.258 0.161 0.519c-1.342 0.418-2.459 0.858-3.536 1.366l0.167-0.071c-0.911-0.444-2.024-0.888-3.169-1.257l-0.189-0.053q0.115-0.4 0.25-0.794zM16.371 13.679c0.954 0.3 1.718 0.591 2.463 0.917l-0.157-0.061q-1.401 0.723-2.73 1.575c0.107-0.851 0.249-1.666 0.424-2.431zM15.95 23.893q0.663 0.424 1.345 0.817 0.696 0.401 1.41 0.767c-0.597 0.276-1.367 0.576-2.155 0.837l-0.171 0.049c-0.176-0.776-0.32-1.605-0.428-2.471zM23.224 28.087c-0.381 1.193-0.944 2.228-1.666 3.13l0.015-0.019-0 0c-0.363 0.525-0.923 0.892-1.571 0.994l-0.013 0.002c-0.971 0.001-2.21-1.447-3.053-3.861q-0.149-0.428-0.274-0.864c1.34-0.434 2.455-0.89 3.531-1.416l-0.158 0.070c0.917 0.439 2.042 0.882 3.2 1.251l0.196 0.054q-0.095 0.332-0.206 0.659zM23.707 26.321c-0.759-0.235-1.547-0.523-2.35-0.861q0.678-0.357 1.366-0.754 0.706-0.408 1.376-0.836c-0.104 0.957-0.243 1.792-0.422 2.611l0.029-0.16zM24.302 19.998q0.001 1.215-0.076 2.427c-0.657 0.445-1.35 0.879-2.072 1.295-0.719 0.415-1.431 0.796-2.129 1.141q-1.102-0.528-2.162-1.139-1.054-0.607-2.060-1.292-0.092-1.212-0.093-2.429l0 0q-0.001-1.216 0.091-2.429c0.657-0.449 1.345-0.882 2.057-1.293 0.715-0.413 1.436-0.793 2.153-1.137q1.089 0.529 2.138 1.134 1.053 0.605 2.065 1.278 0.087 1.219 0.087 2.442zM25.578 13.207c2.562-0.498 4.493-0.163 4.977 0.675 0.515 0.893-0.223 2.865-2.072 4.942l-0 0q-0.153 0.172-0.318 0.345c-0.857-0.777-1.789-1.516-2.769-2.192l-0.090-0.059c-0.115-1.33-0.306-2.536-0.575-3.711l0.034 0.179q0.414-0.102 0.812-0.18zM25.405 18.387c0.727 0.533 1.362 1.053 1.969 1.602l-0.021-0.018c-0.588 0.543-1.221 1.071-1.88 1.566l-0.062 0.045q0.031-0.792 0.031-1.585-0-0.805-0.037-1.61zM30.562 26.105c-0.485 0.842-2.357 1.192-4.87 0.717q-0.432-0.082-0.886-0.194c0.23-1.015 0.413-2.237 0.511-3.483l0.006-0.093c1.063-0.743 1.992-1.495 2.867-2.304l-0.018 0.016q0.235 0.244 0.448 0.486v-0c0.776 0.842 1.408 1.831 1.848 2.919l0.023 0.065c0.146 0.298 0.231 0.648 0.231 1.018 0 0.307-0.059 0.6-0.165 0.868l0.006-0.016z"></path>
</svg>
