<!-- Generated by IcoMoon.io -->
<svg version="1.1" xmlns="http://www.w3.org/2000/svg" width="40" height="40" viewBox="0 0 40 40">
<title>rope-way</title>
<path fill="#ebebeb" d="M29.333 12.667h-8v-3.333h6.16c0.736 0 1.333-0.597 1.333-1.333s-0.597-1.333-1.333-1.333v0h-14.987c-0.736 0-1.333 0.597-1.333 1.333s0.597 1.333 1.333 1.333v0h6.16v3.333h-8c-2.209 0-4 1.791-4 4v0 12.667c0 2.209 1.791 4 4 4v0h18.667c2.209 0 4-1.791 4-4v0-12.667c0-2.209-1.791-4-4-4v0zM18.667 30.667h-8c-0.736 0-1.333-0.597-1.333-1.333v0-5h9.333c-0.004 0.026-0.006 0.056-0.006 0.087s0.002 0.061 0.006 0.090l-0-0.003v6c-0.003 0.024-0.005 0.052-0.005 0.080s0.002 0.056 0.005 0.083l-0-0.003zM30.667 29.333c0 0.736-0.597 1.333-1.333 1.333v0h-8c0.003-0.024 0.005-0.052 0.005-0.080s-0.002-0.056-0.005-0.083l0 0.003v-6c0.004-0.026 0.006-0.056 0.006-0.087s-0.002-0.061-0.006-0.090l0 0.003h9.333zM30.667 21.667h-21.333v-5c0-0.736 0.597-1.333 1.333-1.333v0h18.667c0.736 0 1.333 0.597 1.333 1.333v0z"></path>
</svg>
