<!-- Generated by IcoMoon.io -->
<svg version="1.1" xmlns="http://www.w3.org/2000/svg" width="40" height="40" viewBox="0 0 40 40">
<title>scenery</title>
<path fill="#ebebeb" d="M29.333 6.667h-18.667c-2.209 0-4 1.791-4 4v0 18.667c0 2.209 1.791 4 4 4v0h18.667c0.233-0.003 0.459-0.027 0.677-0.071l-0.024 0.004 0.4-0.093h0.16l0.493-0.187 0.173-0.093c0.133-0.080 0.28-0.147 0.413-0.24 0.187-0.139 0.353-0.278 0.508-0.428l-0.002 0.002 0.093-0.12c0.128-0.129 0.246-0.269 0.353-0.416l0.127-0.184c0.085-0.133 0.165-0.286 0.232-0.446l0.008-0.020c0.033-0.056 0.064-0.122 0.090-0.191l0.003-0.009c0.067-0.16 0.107-0.333 0.16-0.507v-0.2c0.071-0.236 0.119-0.51 0.133-0.792l0-0.008v-18.667c0-2.209-1.791-4-4-4v0zM10.667 30.667c-0.736 0-1.333-0.597-1.333-1.333v0-5.747l4.387-4.4c0.242-0.244 0.577-0.394 0.947-0.394s0.705 0.151 0.947 0.394l0 0 11.467 11.48zM30.667 29.333c-0.001 0.173-0.036 0.338-0.097 0.489l0.003-0.009c-0.034 0.072-0.070 0.133-0.11 0.191l0.003-0.004c-0.038 0.060-0.078 0.112-0.121 0.161l0.001-0.001-7.133-7.133 1.173-1.173c0.242-0.244 0.577-0.394 0.947-0.394s0.705 0.151 0.947 0.394l0 0 4.387 4.4zM30.667 22.48l-2.507-2.48c-0.735-0.698-1.731-1.128-2.827-1.128s-2.092 0.429-2.828 1.129l0.002-0.002-1.173 1.173-3.84-3.84c-0.735-0.698-1.731-1.128-2.827-1.128s-2.092 0.429-2.828 1.129l0.002-0.002-2.507 2.48v-9.147c0-0.736 0.597-1.333 1.333-1.333v0h18.667c0.736 0 1.333 0.597 1.333 1.333v0zM22 12c-1.105 0-2 0.895-2 2s0.895 2 2 2c1.105 0 2-0.895 2-2v0c0-1.105-0.895-2-2-2v0z"></path>
</svg>
