<!-- Generated by IcoMoon.io -->
<svg version="1.1" xmlns="http://www.w3.org/2000/svg" width="40" height="40" viewBox="0 0 40 40">
<title>search-alt</title>
<path fill="#ebebeb" d="M32.093 26.44l-2.76-2.827c-0.735-0.7-1.732-1.13-2.829-1.13-0.618 0-1.204 0.136-1.729 0.381l0.025-0.011-1.2-1.2c1.162-1.539 1.861-3.484 1.861-5.592 0-5.155-4.179-9.333-9.333-9.333s-9.333 4.179-9.333 9.333c0 5.155 4.179 9.333 9.333 9.333 2.108 0 4.053-0.699 5.616-1.878l-0.024 0.017 1.187 1.187c-0.274 0.528-0.435 1.152-0.435 1.815 0 1.090 0.436 2.078 1.143 2.799l-0.001-0.001 2.827 2.827c0.724 0.723 1.723 1.17 2.827 1.17s2.103-0.447 2.827-1.17l-0 0c0.743-0.727 1.204-1.74 1.204-2.86s-0.461-2.133-1.203-2.859l-0.001-0.001zM20.787 20.787c-1.206 1.203-2.87 1.947-4.708 1.947-3.682 0-6.667-2.985-6.667-6.667s2.985-6.667 6.667-6.667c1.838 0 3.502 0.744 4.708 1.947l-0-0c1.21 1.207 1.959 2.876 1.959 4.72s-0.749 3.513-1.958 4.72l-0 0zM30.213 30.213c-0.242 0.244-0.577 0.394-0.947 0.394s-0.705-0.151-0.947-0.394l-2.827-2.827c-0.244-0.242-0.394-0.577-0.394-0.947s0.151-0.705 0.394-0.947l0-0c0.242-0.244 0.577-0.394 0.947-0.394s0.705 0.151 0.947 0.394l2.827 2.827c0.244 0.242 0.394 0.577 0.394 0.947s-0.151 0.705-0.394 0.947l-0 0z"></path>
</svg>
