<!-- Generated by IcoMoon.io -->
<svg version="1.1" xmlns="http://www.w3.org/2000/svg" width="40" height="40" viewBox="0 0 40 40">
<title>server</title>
<path fill="#ebebeb" d="M24 26.667c-0.736 0-1.333 0.597-1.333 1.333s0.597 1.333 1.333 1.333c0.736 0 1.333-0.597 1.333-1.333v0c0-0.736-0.597-1.333-1.333-1.333v0zM16 26.667h-4c-0.736 0-1.333 0.597-1.333 1.333s0.597 1.333 1.333 1.333v0h4c0.736 0 1.333-0.597 1.333-1.333s-0.597-1.333-1.333-1.333v0zM28 26.667c-0.736 0-1.333 0.597-1.333 1.333s0.597 1.333 1.333 1.333c0.736 0 1.333-0.597 1.333-1.333v0c0-0.736-0.597-1.333-1.333-1.333v0zM24 18.667c-0.736 0-1.333 0.597-1.333 1.333s0.597 1.333 1.333 1.333c0.736 0 1.333-0.597 1.333-1.333v0c0-0.736-0.597-1.333-1.333-1.333v0zM16 18.667h-4c-0.736 0-1.333 0.597-1.333 1.333s0.597 1.333 1.333 1.333v0h4c0.736 0 1.333-0.597 1.333-1.333s-0.597-1.333-1.333-1.333v0zM28 10.667c-0.736 0-1.333 0.597-1.333 1.333s0.597 1.333 1.333 1.333c0.736 0 1.333-0.597 1.333-1.333v0c0-0.736-0.597-1.333-1.333-1.333v0zM28 18.667c-0.736 0-1.333 0.597-1.333 1.333s0.597 1.333 1.333 1.333c0.736 0 1.333-0.597 1.333-1.333v0c0-0.736-0.597-1.333-1.333-1.333v0zM33.333 10.667c0-2.209-1.791-4-4-4v0h-18.667c-2.209 0-4 1.791-4 4v0 2.667c0.006 1.029 0.4 1.965 1.043 2.67l-0.003-0.003c-0.64 0.702-1.034 1.638-1.040 2.665v2.668c0.006 1.029 0.4 1.965 1.043 2.67l-0.003-0.003c-0.64 0.702-1.034 1.638-1.040 2.665v2.668c0 2.209 1.791 4 4 4v0h18.667c2.209 0 4-1.791 4-4v0-2.667c-0.006-1.029-0.4-1.965-1.043-2.67l0.003 0.003c0.64-0.702 1.034-1.638 1.040-2.665v-2.668c-0.006-1.029-0.4-1.965-1.043-2.67l0.003 0.003c0.64-0.702 1.034-1.638 1.040-2.665v-0.001zM30.667 29.333c0 0.736-0.597 1.333-1.333 1.333v0h-18.667c-0.736 0-1.333-0.597-1.333-1.333v0-2.667c0-0.736 0.597-1.333 1.333-1.333v0h18.667c0.736 0 1.333 0.597 1.333 1.333v0zM30.667 21.333c0 0.736-0.597 1.333-1.333 1.333v0h-18.667c-0.736 0-1.333-0.597-1.333-1.333v0-2.667c0-0.736 0.597-1.333 1.333-1.333v0h18.667c0.736 0 1.333 0.597 1.333 1.333v0zM30.667 13.333c0 0.736-0.597 1.333-1.333 1.333v0h-18.667c-0.736 0-1.333-0.597-1.333-1.333v0-2.667c0-0.736 0.597-1.333 1.333-1.333v0h18.667c0.736 0 1.333 0.597 1.333 1.333v0zM24 10.667c-0.736 0-1.333 0.597-1.333 1.333s0.597 1.333 1.333 1.333c0.736 0 1.333-0.597 1.333-1.333v0c0-0.736-0.597-1.333-1.333-1.333v0zM16 10.667h-4c-0.736 0-1.333 0.597-1.333 1.333s0.597 1.333 1.333 1.333v0h4c0.736 0 1.333-0.597 1.333-1.333s-0.597-1.333-1.333-1.333v0z"></path>
</svg>
