<!-- Generated by IcoMoon.io -->
<svg version="1.1" xmlns="http://www.w3.org/2000/svg" width="40" height="40" viewBox="0 0 40 40">
<title>setting</title>
<path fill="#ebebeb" d="M30.533 20.88c-0.206-0.234-0.332-0.542-0.332-0.88s0.126-0.646 0.333-0.881l-0.001 0.001 1.707-1.92c0.211-0.235 0.341-0.547 0.341-0.89 0-0.247-0.067-0.478-0.184-0.676l0.003 0.006-2.667-4.613c-0.235-0.402-0.664-0.668-1.155-0.668-0.096 0-0.19 0.010-0.28 0.029l0.009-0.002-2.507 0.507c-0.081 0.018-0.174 0.028-0.27 0.028-0.584 0-1.080-0.375-1.261-0.898l-0.003-0.009-0.813-2.44c-0.183-0.532-0.68-0.907-1.263-0.907-0.001 0-0.002 0-0.004 0h-5.333c-0.021-0.001-0.045-0.002-0.069-0.002-0.584 0-1.081 0.376-1.261 0.899l-0.003 0.009-0.747 2.44c-0.183 0.532-0.679 0.908-1.264 0.908-0.096 0-0.189-0.010-0.279-0.029l0.009 0.002-2.573-0.507c-0.056-0.008-0.121-0.013-0.187-0.013-0.485 0-0.91 0.259-1.143 0.647l-0.003 0.006-2.667 4.613c-0.12 0.196-0.191 0.434-0.191 0.688 0 0.334 0.123 0.64 0.326 0.874l-0.001-0.002 1.693 1.92c0.206 0.234 0.332 0.542 0.332 0.88s-0.126 0.646-0.333 0.881l0.001-0.001-1.693 1.92c-0.202 0.232-0.325 0.538-0.325 0.872 0 0.254 0.071 0.492 0.195 0.694l-0.003-0.006 2.667 4.613c0.235 0.402 0.664 0.668 1.155 0.668 0.096 0 0.19-0.010 0.28-0.029l-0.009 0.002 2.507-0.507c0.081-0.018 0.174-0.028 0.27-0.028 0.584 0 1.080 0.375 1.261 0.898l0.003 0.009 0.813 2.44c0.183 0.533 0.679 0.908 1.264 0.908 0.024 0 0.049-0.001 0.073-0.002l-0.003 0h5.333c0.001 0 0.002 0 0.003 0 0.584 0 1.080-0.375 1.26-0.897l0.003-0.009 0.813-2.44c0.183-0.532 0.679-0.908 1.264-0.908 0.096 0 0.189 0.010 0.279 0.029l-0.009-0.002 2.507 0.507c0.082 0.018 0.175 0.028 0.271 0.028 0.491 0 0.921-0.266 1.152-0.662l0.003-0.006 2.667-4.613c0.114-0.192 0.181-0.423 0.181-0.67 0-0.343-0.129-0.655-0.342-0.891l0.001 0.001zM28.547 22.667l1.067 1.2-1.707 2.96-1.573-0.32c-0.241-0.052-0.518-0.081-0.801-0.081-1.761 0-3.257 1.138-3.791 2.719l-0.008 0.028-0.507 1.493h-3.413l-0.48-1.52c-0.542-1.609-2.038-2.748-3.799-2.748-0.284 0-0.56 0.029-0.827 0.086l0.026-0.005-1.573 0.32-1.733-2.947 1.067-1.2c0.632-0.704 1.019-1.64 1.019-2.667s-0.386-1.962-1.022-2.67l0.003 0.004-1.067-1.2 1.707-2.933 1.573 0.32c0.241 0.052 0.518 0.081 0.801 0.081 1.761 0 3.257-1.138 3.791-2.719l0.008-0.028 0.507-1.507h3.413l0.507 1.52c0.542 1.609 2.038 2.748 3.799 2.748 0.284 0 0.56-0.029 0.827-0.086l-0.026 0.005 1.573-0.32 1.707 2.96-1.067 1.2c-0.625 0.703-1.007 1.633-1.007 2.653s0.382 1.951 1.010 2.657l-0.004-0.004zM19.52 14.667c-2.946 0-5.333 2.388-5.333 5.333s2.388 5.333 5.333 5.333c2.946 0 5.333-2.388 5.333-5.333v0c0-2.946-2.388-5.333-5.333-5.333v0zM19.52 22.667c-1.473 0-2.667-1.194-2.667-2.667s1.194-2.667 2.667-2.667c1.473 0 2.667 1.194 2.667 2.667v0c0 1.473-1.194 2.667-2.667 2.667v0z"></path>
</svg>
