<!-- Generated by IcoMoon.io -->
<svg version="1.1" xmlns="http://www.w3.org/2000/svg" width="40" height="40" viewBox="0 0 40 40">
<title>shield-plus</title>
<path fill="#ebebeb" d="M22.667 18.667h-1.333v-1.333c0-0.736-0.597-1.333-1.333-1.333s-1.333 0.597-1.333 1.333v0 1.333h-1.333c-0.736 0-1.333 0.597-1.333 1.333s0.597 1.333 1.333 1.333v0h1.333v1.333c0 0.736 0.597 1.333 1.333 1.333s1.333-0.597 1.333-1.333v0-1.333h1.333c0.736 0 1.333-0.597 1.333-1.333s-0.597-1.333-1.333-1.333v0zM30.174 8.867c-0.228-0.186-0.523-0.298-0.843-0.298-0.096 0-0.19 0.010-0.28 0.029l0.009-0.002c-0.661 0.146-1.421 0.23-2.2 0.23-2.282 0-4.397-0.719-6.13-1.942l0.033 0.022c-0.213-0.15-0.477-0.24-0.763-0.24s-0.55 0.090-0.767 0.243l0.004-0.003c-1.699 1.201-3.813 1.92-6.095 1.92-0.78 0-1.54-0.084-2.272-0.243l0.070 0.013c-0.082-0.018-0.177-0.028-0.274-0.028-0.736 0-1.333 0.597-1.333 1.333 0 0 0 0.001 0 0.001v-0 9.943c0.004 4.009 1.97 7.559 4.989 9.741l0.035 0.024 4.867 3.476c0.215 0.155 0.484 0.248 0.775 0.248s0.56-0.093 0.779-0.251l-0.004 0.003 4.867-3.477c3.055-2.206 5.021-5.755 5.025-9.764v-9.943c0-0.417-0.191-0.789-0.49-1.033l-0.002-0.002zM28 19.844c-0.004 3.118-1.532 5.878-3.88 7.576l-0.027 0.019-4.092 2.923-4.092-2.922c-2.375-1.716-3.904-4.477-3.908-7.594v-8.401c0.344 0.032 0.745 0.050 1.149 0.050 2.531 0 4.896-0.708 6.909-1.938l-0.058 0.033c1.954 1.196 4.32 1.905 6.851 1.905 0.405 0 0.805-0.018 1.2-0.054l-0.051 0.004z"></path>
</svg>
