<!-- Generated by IcoMoon.io -->
<svg version="1.1" xmlns="http://www.w3.org/2000/svg" width="40" height="40" viewBox="0 0 40 40">
<title>shield-question</title>
<path fill="#ebebeb" d="M19.053 23.547c-0.238 0.24-0.385 0.569-0.387 0.933v0c0 0.188 0.040 0.367 0.11 0.529l-0.003-0.009c0.209 0.481 0.679 0.811 1.227 0.811 0.735 0 1.332-0.596 1.333-1.331v-0c-0.002-0.364-0.149-0.694-0.387-0.933l0 0c-0.242-0.244-0.577-0.394-0.947-0.394s-0.705 0.151-0.947 0.394l-0 0zM30.173 8.88c-0.227-0.185-0.52-0.297-0.839-0.297-0.1 0-0.197 0.011-0.29 0.032l0.009-0.002c-0.658 0.144-1.413 0.227-2.188 0.227-2.286 0-4.403-0.719-6.139-1.943l0.034 0.023c-0.212-0.149-0.476-0.238-0.76-0.238s-0.548 0.089-0.764 0.241l0.004-0.003c-1.699 1.195-3.811 1.91-6.091 1.91-0.78 0-1.541-0.084-2.273-0.243l0.070 0.013c-0.085-0.019-0.182-0.030-0.281-0.030-0.319 0-0.612 0.112-0.841 0.299l0.002-0.002c-0.302 0.246-0.493 0.619-0.493 1.035 0 0.002 0 0.003 0 0.005v-0 9.933c0 0.002 0 0.005 0 0.007 0 4.011 1.968 7.563 4.991 9.742l0.035 0.024 4.867 3.467c0.215 0.155 0.483 0.247 0.773 0.247s0.558-0.093 0.777-0.25l-0.004 0.003 4.867-3.467c3.059-2.203 5.027-5.755 5.027-9.766 0-0.003 0-0.005 0-0.008v0-9.933c0-0.001 0-0.003 0-0.005 0-0.417-0.191-0.789-0.491-1.034l-0.002-0.002zM28 19.84c0 0.002 0 0.004 0 0.006 0 3.119-1.529 5.88-3.879 7.575l-0.028 0.019-4.093 2.92-4.093-2.92c-2.377-1.714-3.907-4.475-3.907-7.594 0-0.002 0-0.005 0-0.007v0-8.4c0.341 0.031 0.737 0.049 1.137 0.049 2.535 0 4.904-0.707 6.922-1.935l-0.059 0.033c1.959 1.195 4.328 1.902 6.863 1.902 0.4 0 0.796-0.018 1.188-0.052l-0.051 0.004zM20 13.813c-0.001 0-0.002 0-0.003 0-1.473 0-2.76 0.796-3.454 1.981l-0.010 0.019c-0.096 0.179-0.152 0.392-0.152 0.618 0 0.736 0.597 1.333 1.333 1.333 0.471 0 0.885-0.244 1.122-0.613l0.003-0.005c0.235-0.401 0.664-0.667 1.155-0.667 0.736 0 1.333 0.597 1.333 1.333 0 0.734-0.594 1.33-1.328 1.333h-0c-0.736 0-1.333 0.597-1.333 1.333s0.597 1.333 1.333 1.333v0c2.209 0 4-1.791 4-4s-1.791-4-4-4v0z"></path>
</svg>
