<!-- Generated by IcoMoon.io -->
<svg version="1.1" xmlns="http://www.w3.org/2000/svg" width="40" height="40" viewBox="0 0 40 40">
<title>shovel</title>
<path fill="#ebebeb" d="M32.947 13.84l-6.787-6.787c-0.241-0.24-0.573-0.388-0.94-0.388s-0.699 0.148-0.94 0.388l0-0c-0.244 0.242-0.394 0.577-0.394 0.947s0.151 0.705 0.394 0.947l0 0 2.387 2.44-7.227 7.28-1.333-1.333c-0.724-0.727-1.726-1.176-2.833-1.176s-2.109 0.45-2.833 1.176l-0 0-4.6 4.56c-0.725 0.724-1.173 1.725-1.173 2.83 0 0.003 0 0.007 0 0.010v-0.001 4.6c0 2.209 1.791 4 4 4v0h4.6c0.003 0 0.006 0 0.010 0 1.105 0 2.106-0.448 2.83-1.173l0-0 4.56-4.573c0.727-0.724 1.176-1.726 1.176-2.833s-0.45-2.109-1.176-2.833l-1.333-1.333 7.28-7.253 2.44 2.44c0.242 0.244 0.577 0.394 0.947 0.394s0.705-0.151 0.947-0.394l0-0c0.256-0.243 0.415-0.586 0.415-0.967s-0.159-0.723-0.414-0.966l-0.001-0.001zM20.8 25.693l-4.587 4.587c-0.241 0.239-0.573 0.387-0.939 0.387-0.003 0-0.005 0-0.008-0h-4.6c-0.736 0-1.333-0.597-1.333-1.333v0-4.6c0-0.002-0-0.005-0-0.008 0-0.366 0.148-0.698 0.387-0.939l4.587-4.587c0.241-0.24 0.573-0.388 0.94-0.388s0.699 0.148 0.94 0.388l1.333 1.333-1.187 1.2c-0.24 0.241-0.388 0.573-0.388 0.94s0.148 0.699 0.388 0.94l-0-0c0.241 0.24 0.573 0.388 0.94 0.388 0.021 0 0.042-0.001 0.063-0.001l-0.003 0c0.364-0.002 0.694-0.149 0.933-0.387l-0 0 1.2-1.187 1.333 1.333c0.256 0.243 0.415 0.586 0.415 0.967s-0.159 0.723-0.414 0.966l-0.001 0.001z"></path>
</svg>
