<!-- Generated by IcoMoon.io -->
<svg version="1.1" xmlns="http://www.w3.org/2000/svg" width="40" height="40" viewBox="0 0 40 40">
<title>signal-alt</title>
<path fill="#ebebeb" d="M17.333 22.667c-0.736 0-1.333 0.597-1.333 1.333v0 8c0 0.736 0.597 1.333 1.333 1.333s1.333-0.597 1.333-1.333v0-8c0-0.736-0.597-1.333-1.333-1.333v0zM10.667 28c-0.736 0-1.333 0.597-1.333 1.333v0 2.667c0 0.736 0.597 1.333 1.333 1.333s1.333-0.597 1.333-1.333v0-2.667c0-0.736-0.597-1.333-1.333-1.333v0zM30.667 6.667c-0.736 0-1.333 0.597-1.333 1.333v0 24c0 0.736 0.597 1.333 1.333 1.333s1.333-0.597 1.333-1.333v0-24c0-0.736-0.597-1.333-1.333-1.333v0zM24 16c-0.736 0-1.333 0.597-1.333 1.333v0 14.667c0 0.736 0.597 1.333 1.333 1.333s1.333-0.597 1.333-1.333v0-14.667c0-0.736-0.597-1.333-1.333-1.333v0z"></path>
</svg>
