<!-- Generated by IcoMoon.io -->
<svg version="1.1" xmlns="http://www.w3.org/2000/svg" width="40" height="40" viewBox="0 0 40 40">
<title>silent-squint</title>
<path fill="#ebebeb" d="M14.213 20.28c0.241 0.239 0.573 0.387 0.939 0.387 0.003 0 0.005 0 0.008-0h-0c0.002 0 0.005 0 0.008 0 0.366 0 0.698-0.148 0.939-0.387l2-2c0.244-0.242 0.394-0.577 0.394-0.947s-0.151-0.705-0.394-0.947l-2-2c-0.242-0.242-0.577-0.392-0.947-0.392-0.739 0-1.339 0.599-1.339 1.339 0 0.37 0.15 0.704 0.392 0.947v0l1.067 1.053-1.067 1.053c-0.244 0.242-0.394 0.577-0.394 0.947s0.151 0.705 0.394 0.947l0 0zM24.213 20.28c0.241 0.239 0.573 0.387 0.939 0.387 0.003 0 0.005 0 0.008-0h-0c0.002 0 0.005 0 0.008 0 0.366 0 0.698-0.148 0.939-0.387l-0 0c0.244-0.242 0.394-0.577 0.394-0.947s-0.151-0.705-0.394-0.947l-1.053-1.053 1.053-1.053c0.242-0.242 0.392-0.577 0.392-0.947 0-0.739-0.599-1.339-1.339-1.339-0.37 0-0.704 0.15-0.947 0.392l-2 2c-0.244 0.242-0.394 0.577-0.394 0.947s0.151 0.705 0.394 0.947l0 0zM24.36 22.947c-0.22-0.166-0.498-0.267-0.8-0.267s-0.58 0.1-0.803 0.269l0.003-0.002-0.987 0.733-0.973-0.733c-0.22-0.166-0.498-0.267-0.8-0.267s-0.58 0.1-0.803 0.269l0.003-0.002-0.973 0.733-0.987-0.733c-0.22-0.166-0.498-0.267-0.8-0.267s-0.58 0.1-0.803 0.269l0.003-0.002-1.773 1.333c-0.325 0.246-0.533 0.632-0.533 1.067 0 0.736 0.597 1.333 1.333 1.333 0.302 0 0.58-0.1 0.803-0.269l-0.003 0.002 0.973-0.733 0.987 0.733c0.046 0.029 0.099 0.056 0.154 0.078l0.006 0.002c0.085 0.046 0.183 0.083 0.286 0.105l0.007 0.001h0.64c0.168-0.050 0.314-0.123 0.445-0.216l-0.005 0.003 0.973-0.733 0.973 0.733c0.219 0.163 0.494 0.261 0.793 0.261 0.196 0 0.382-0.042 0.549-0.118l-0.008 0.003 0.133-0.067c0.056-0.020 0.105-0.047 0.148-0.081l-0.001 0.001 0.987-0.733 0.973 0.733c0.22 0.166 0.498 0.267 0.8 0.267v0c0.435 0 0.821-0.208 1.064-0.53l0.002-0.003c0.166-0.22 0.267-0.498 0.267-0.8 0-0.435-0.208-0.821-0.53-1.064l-0.003-0.002zM20 6.667c-7.364 0-13.333 5.97-13.333 13.333s5.97 13.333 13.333 13.333c7.364 0 13.333-5.97 13.333-13.333v0c0-7.364-5.97-13.333-13.333-13.333v0zM20 30.667c-5.891 0-10.667-4.776-10.667-10.667s4.776-10.667 10.667-10.667c5.891 0 10.667 4.776 10.667 10.667v0c0 5.891-4.776 10.667-10.667 10.667v0z"></path>
</svg>
