<!-- Generated by IcoMoon.io -->
<svg version="1.1" xmlns="http://www.w3.org/2000/svg" width="40" height="40" viewBox="0 0 40 40">
<title>sim-card</title>
<path fill="#ebebeb" d="M26.667 8.667h-13.333c-2.577 0-4.667 2.089-4.667 4.667v0 13.333c0 2.577 2.089 4.667 4.667 4.667v0h13.333c2.577 0 4.667-2.089 4.667-4.667v0-13.333c0-2.577-2.089-4.667-4.667-4.667v0zM18 11.333h4v4h-4zM15.333 28.667h-2c-1.105 0-2-0.895-2-2v0-2h4zM22 28.667h-4v-4h4zM28.667 26.667c0 1.105-0.895 2-2 2v0h-2v-4h4zM28.667 22h-17.333v-8.667c0-1.105 0.895-2 2-2v0h2v5.333c0 0.736 0.597 1.333 1.333 1.333v0h12zM28.667 15.333h-4v-4h2c1.105 0 2 0.895 2 2v0z"></path>
</svg>
