<!-- Generated by IcoMoon.io -->
<svg version="1.1" xmlns="http://www.w3.org/2000/svg" width="40" height="40" viewBox="0 0 40 40">
<title>slack</title>
<path fill="#ebebeb" d="M6.667 23.56c0 1.473 1.194 2.667 2.667 2.667s2.667-1.194 2.667-2.667v0-2.667h-2.667c-1.473 0-2.667 1.194-2.667 2.667v0zM23.52 19.107c1.473 0 2.667-1.194 2.667-2.667v0-7.107c0-1.473-1.194-2.667-2.667-2.667s-2.667 1.194-2.667 2.667v0 7.107c0 0 0 0 0 0 0 1.473 1.194 2.667 2.667 2.667 0.009 0 0.019-0 0.028-0h-0.001zM33.28 16.44c0-1.473-1.194-2.667-2.667-2.667s-2.667 1.194-2.667 2.667v0 2.667h2.667c0.016 0 0.035 0.001 0.053 0.001 1.473 0 2.667-1.194 2.667-2.667 0-0 0-0 0-0.001v0zM16.453 20.893c-1.473 0-2.667 1.194-2.667 2.667v0 7.107c0 1.473 1.194 2.667 2.667 2.667s2.667-1.194 2.667-2.667v0-7.107c0-1.473-1.194-2.667-2.667-2.667v0zM23.547 28h-2.667v2.667c0 1.473 1.194 2.667 2.667 2.667s2.667-1.194 2.667-2.667c0-1.473-1.194-2.667-2.667-2.667v0zM30.667 20.893h-7.12c-1.473 0-2.667 1.194-2.667 2.667s1.194 2.667 2.667 2.667v0h7.12c1.473 0 2.667-1.194 2.667-2.667s-1.194-2.667-2.667-2.667v0zM16.453 13.773h-7.12c-1.473 0-2.667 1.194-2.667 2.667s1.194 2.667 2.667 2.667v0h7.12c1.473 0 2.667-1.194 2.667-2.667s-1.194-2.667-2.667-2.667v0zM16.453 6.667c-1.473 0-2.667 1.194-2.667 2.667s1.194 2.667 2.667 2.667v0h2.667v-2.667c0-1.473-1.194-2.667-2.667-2.667v0z"></path>
</svg>
