<!-- Generated by IcoMoon.io -->
<svg version="1.1" xmlns="http://www.w3.org/2000/svg" width="40" height="40" viewBox="0 0 40 40">
<title>stopwatch</title>
<path fill="#ebebeb" d="M28.4 15.453l1.213-1.2c0.242-0.242 0.392-0.577 0.392-0.947 0-0.739-0.599-1.339-1.339-1.339-0.37 0-0.704 0.15-0.947 0.392v0l-1.2 1.213c-1.784-1.391-4.057-2.23-6.527-2.23s-4.743 0.839-6.551 2.248l0.024-0.018-1.213-1.227c-0.243-0.241-0.577-0.39-0.947-0.39-0.742 0-1.344 0.601-1.344 1.344 0 0.373 0.152 0.71 0.397 0.953l0 0 1.227 1.213c-1.405 1.777-2.253 4.049-2.253 6.52 0 0.005 0 0.009 0 0.014v-0.001c-0 0.008-0 0.018-0 0.027 0 5.891 4.776 10.667 10.667 10.667s10.667-4.776 10.667-10.667c0-2.49-0.853-4.781-2.284-6.597l0.017 0.023zM20 30c-4.418 0-8-3.582-8-8s3.582-8 8-8c4.418 0 8 3.582 8 8v0c0 4.418-3.582 8-8 8v0zM17.333 10h5.333c0.736 0 1.333-0.597 1.333-1.333s-0.597-1.333-1.333-1.333v0h-5.333c-0.736 0-1.333 0.597-1.333 1.333s0.597 1.333 1.333 1.333v0zM21.333 18c0-0.736-0.597-1.333-1.333-1.333s-1.333 0.597-1.333 1.333v0 2.52c-0.41 0.368-0.667 0.899-0.667 1.491 0 1.105 0.895 2 2 2s2-0.895 2-2c0-0.591-0.257-1.123-0.665-1.489l-0.002-0.002z"></path>
</svg>
