<!-- Generated by IcoMoon.io -->
<svg version="1.1" xmlns="http://www.w3.org/2000/svg" width="40" height="40" viewBox="0 0 40 40">
<title>subway</title>
<path fill="#ebebeb" d="M25.333 26.667c0.736 0 1.333-0.597 1.333-1.333v0c0.003-0.040 0.005-0.086 0.005-0.133s-0.002-0.093-0.005-0.139l0 0.006c-0.016-0.090-0.044-0.171-0.082-0.245l0.002 0.005c-0.032-0.092-0.072-0.171-0.122-0.243l0.002 0.003-0.16-0.2c-0.125-0.114-0.271-0.208-0.43-0.276l-0.010-0.004c-0.15-0.063-0.324-0.1-0.507-0.1s-0.357 0.037-0.515 0.103l0.009-0.003c-0.169 0.072-0.315 0.166-0.441 0.281l0.001-0.001-0.16 0.2c-0.048 0.069-0.088 0.148-0.118 0.233l-0.002 0.007c-0.036 0.069-0.064 0.15-0.079 0.235l-0.001 0.005c-0.003 0.040-0.005 0.086-0.005 0.133s0.002 0.093 0.005 0.139l-0-0.006c0 0.736 0.597 1.333 1.333 1.333v0zM28 6.667h-16c-2.209 0-4 1.791-4 4v0 16c0.004 1.299 0.628 2.452 1.59 3.179l0.010 0.007-1.213 1.2c-0.244 0.242-0.394 0.577-0.394 0.947s0.151 0.705 0.394 0.947l0 0c0.242 0.244 0.577 0.394 0.947 0.394s0.705-0.151 0.947-0.394l0-0 2.267-2.28h14.907l2.267 2.28c0.242 0.244 0.577 0.394 0.947 0.394s0.705-0.151 0.947-0.394l0-0c0.244-0.242 0.394-0.577 0.394-0.947s-0.151-0.705-0.394-0.947l-0-0-1.213-1.2c0.972-0.735 1.596-1.888 1.6-3.186v-16.001c0-2.209-1.791-4-4-4v0zM10.667 14.667h8v5.333h-8zM29.333 26.667c0 0.736-0.597 1.333-1.333 1.333v0h-16c-0.736 0-1.333-0.597-1.333-1.333v0-4h18.667zM29.333 20h-8v-5.333h8zM29.333 12h-18.667v-1.333c0-0.736 0.597-1.333 1.333-1.333v0h16c0.736 0 1.333 0.597 1.333 1.333v0zM14.667 26.667c0.736 0 1.333-0.597 1.333-1.333v0c0.003-0.040 0.005-0.086 0.005-0.133s-0.002-0.093-0.005-0.139l0 0.006c-0.016-0.090-0.044-0.171-0.082-0.245l0.002 0.005c-0.032-0.092-0.072-0.171-0.122-0.243l0.002 0.003-0.16-0.2c-0.125-0.114-0.271-0.208-0.43-0.276l-0.010-0.004c-0.15-0.063-0.324-0.1-0.507-0.1s-0.357 0.037-0.515 0.103l0.009-0.003c-0.169 0.072-0.315 0.166-0.441 0.281l0.001-0.001-0.16 0.2c-0.048 0.069-0.088 0.148-0.118 0.233l-0.002 0.007c-0.055 0.069-0.1 0.148-0.131 0.234l-0.002 0.006c-0.003 0.040-0.005 0.086-0.005 0.133s0.002 0.093 0.005 0.139l-0-0.006c0.002 0.364 0.149 0.694 0.387 0.933l-0-0c0.241 0.246 0.576 0.398 0.946 0.4h0z"></path>
</svg>
