<!-- Generated by IcoMoon.io -->
<svg version="1.1" xmlns="http://www.w3.org/2000/svg" width="40" height="40" viewBox="0 0 40 40">
<title>surprise</title>
<path fill="#ebebeb" d="M20 6.667c-7.364 0-13.333 5.97-13.333 13.333s5.97 13.333 13.333 13.333c7.364 0 13.333-5.97 13.333-13.333v0c0-7.364-5.97-13.333-13.333-13.333v0zM20 30.667c-5.891 0-10.667-4.776-10.667-10.667s4.776-10.667 10.667-10.667c5.891 0 10.667 4.776 10.667 10.667v0c0 5.891-4.776 10.667-10.667 10.667v0zM17.333 16c0-0.736-0.597-1.333-1.333-1.333s-1.333 0.597-1.333 1.333c0 0.736 0.597 1.333 1.333 1.333v0c0.736 0 1.333-0.597 1.333-1.333v0zM24 14.667c-0.736 0-1.333 0.597-1.333 1.333s0.597 1.333 1.333 1.333c0.736 0 1.333-0.597 1.333-1.333v0c0-0.736-0.597-1.333-1.333-1.333v0zM20 18.667c-2.416 0.102-4.336 2.085-4.336 4.516 0 0.053 0.001 0.106 0.003 0.158l-0-0.008c-0.002 0.045-0.003 0.098-0.003 0.15 0 2.432 1.92 4.415 4.327 4.516l0.009 0c2.416-0.102 4.336-2.085 4.336-4.516 0-0.053-0.001-0.106-0.003-0.158l0 0.008c0.002-0.045 0.002-0.098 0.002-0.15 0-2.432-1.92-4.415-4.327-4.516l-0.009-0zM20 25.333c-0.943-0.095-1.673-0.884-1.673-1.845 0-0.055 0.002-0.109 0.007-0.162l-0.001 0.007c-0.004-0.047-0.007-0.101-0.007-0.155 0-0.96 0.73-1.75 1.665-1.844l0.008-0.001c0.943 0.095 1.673 0.884 1.673 1.845 0 0.055-0.002 0.109-0.007 0.162l0.001-0.007c0.004 0.047 0.007 0.101 0.007 0.155 0 0.96-0.73 1.75-1.665 1.844l-0.008 0.001z"></path>
</svg>
