<!-- Generated by IcoMoon.io -->
<svg version="1.1" xmlns="http://www.w3.org/2000/svg" width="40" height="40" viewBox="0 0 40 40">
<title>text-size</title>
<path fill="#ebebeb" d="M16 18.667h-8c-0.736 0-1.333 0.597-1.333 1.333s0.597 1.333 1.333 1.333v0h2.667v6.667c0 0.736 0.597 1.333 1.333 1.333s1.333-0.597 1.333-1.333v0-6.667h2.667c0.736 0 1.333-0.597 1.333-1.333s-0.597-1.333-1.333-1.333v0zM32 10.667h-16c-0.736 0-1.333 0.597-1.333 1.333s0.597 1.333 1.333 1.333v0h6.667v14.667c0 0.736 0.597 1.333 1.333 1.333s1.333-0.597 1.333-1.333v0-14.667h6.667c0.736 0 1.333-0.597 1.333-1.333s-0.597-1.333-1.333-1.333v0z"></path>
</svg>
