<!-- Generated by IcoMoon.io -->
<svg version="1.1" xmlns="http://www.w3.org/2000/svg" width="40" height="40" viewBox="0 0 40 40">
<title>th-slash</title>
<path fill="#ebebeb" d="M34.28 32.387l-26.667-26.667c-0.242-0.242-0.577-0.392-0.947-0.392-0.739 0-1.339 0.599-1.339 1.339 0 0.37 0.15 0.704 0.392 0.947v0l0.947 0.933v23.453c0 0.736 0.597 1.333 1.333 1.333v0h23.453l0.933 0.947c0.242 0.244 0.577 0.394 0.947 0.394s0.705-0.151 0.947-0.394l0-0c0.244-0.242 0.394-0.577 0.394-0.947s-0.151-0.705-0.394-0.947l-0-0zM9.333 11.213l3.453 3.453h-3.453zM14.667 30.667h-5.333v-5.333h5.333zM14.667 22.667h-5.333v-5.333h5.333zM17.333 19.213l3.453 3.453h-3.453zM22.667 30.667h-5.333v-5.333h5.333zM25.333 30.667v-3.453l3.453 3.453zM15.56 9.333h7.107v6.667c0 0.736 0.597 1.333 1.333 1.333v0h6.667v7.107c0 0.736 0.597 1.333 1.333 1.333s1.333-0.597 1.333-1.333v0-16.44c0-0.736-0.597-1.333-1.333-1.333v0h-16.44c-0.736 0-1.333 0.597-1.333 1.333s0.597 1.333 1.333 1.333v0zM25.333 9.333h5.333v5.333h-5.333z"></path>
</svg>
