<!-- Generated by IcoMoon.io -->
<svg version="1.1" xmlns="http://www.w3.org/2000/svg" width="40" height="40" viewBox="0 0 40 40">
<title>thermometer</title>
<path fill="#ebebeb" d="M25.72 12.387l-9.333 9.333c-0.244 0.242-0.394 0.577-0.394 0.947s0.151 0.705 0.394 0.947l0 0c0.242 0.244 0.577 0.394 0.947 0.394s0.705-0.151 0.947-0.394l9.333-9.333c0.242-0.242 0.392-0.577 0.392-0.947 0-0.739-0.599-1.339-1.339-1.339-0.37 0-0.704 0.15-0.947 0.392v0zM31.387 8.613c-1.207-1.21-2.876-1.959-4.72-1.959s-3.513 0.749-4.72 1.958l-0 0-10.893 10.973c-0.238 0.24-0.385 0.569-0.387 0.933v6.92l-3.613 3.613c-0.244 0.242-0.394 0.577-0.394 0.947s0.151 0.705 0.394 0.947l0 0c0.242 0.244 0.577 0.394 0.947 0.394s0.705-0.151 0.947-0.394l3.613-3.613h6.92c0.364-0.002 0.694-0.149 0.933-0.387l-0 0 10.973-10.893c1.21-1.207 1.959-2.876 1.959-4.72s-0.749-3.513-1.958-4.72l-0-0zM29.493 16.16l-10.56 10.507h-5.6v-5.6l10.507-10.56c0.712-0.665 1.672-1.074 2.727-1.074 2.209 0 4 1.791 4 4 0 1.055-0.408 2.014-1.076 2.729l0.002-0.002z"></path>
</svg>
