<!-- Generated by IcoMoon.io -->
<svg version="1.1" xmlns="http://www.w3.org/2000/svg" width="40" height="40" viewBox="0 0 40 40">
<title>thumbs-down</title>
<path fill="#ebebeb" d="M29.333 6.667h-16.973c-1.954 0.001-3.581 1.402-3.929 3.255l-0.004 0.025-1.693 9.333c-0.042 0.216-0.065 0.465-0.065 0.72 0 2.209 1.79 3.999 3.999 4h6.080l-0.747 1.907c-0.219 0.571-0.346 1.231-0.346 1.92 0 3.041 2.465 5.507 5.507 5.507 0.009 0 0.018-0 0.027-0h-0.001c0.537-0.001 1-0.32 1.21-0.778l0.003-0.008 3.8-8.547h3.133c2.209 0 4-1.791 4-4v0-9.333c0-2.209-1.791-4-4-4v0zM24 22.387l-3.627 8.16c-1.177-0.364-2.018-1.443-2.018-2.718 0-0.355 0.065-0.695 0.184-1.008l-0.006 0.020 0.707-1.907c0.107-0.277 0.169-0.598 0.169-0.933 0-1.471-1.191-2.664-2.662-2.667h-6.080c-0.001 0-0.001 0-0.002 0-0.411 0-0.778-0.186-1.023-0.478l-0.002-0.002c-0.202-0.232-0.325-0.538-0.325-0.872 0-0.078 0.007-0.154 0.020-0.229l-0.001 0.008 1.693-9.333c0.118-0.626 0.66-1.094 1.312-1.094 0.008 0 0.015 0 0.023 0h11.639zM30.667 20c0 0.736-0.597 1.333-1.333 1.333v0h-2.667v-12h2.667c0.736 0 1.333 0.597 1.333 1.333v0z"></path>
</svg>
