<!-- Generated by IcoMoon.io -->
<svg version="1.1" xmlns="http://www.w3.org/2000/svg" width="40" height="40" viewBox="0 0 40 40">
<title>user-md</title>
<path fill="#ebebeb" d="M25.198 21.639l-0.006-0.002c-0.084-0.036-0.166-0.077-0.251-0.111 1.869-1.474 3.057-3.738 3.059-6.279v-0c-0.003-0.3-0.025-0.591-0.064-0.877l0.004 0.036c0.018-0.044 0.035-0.098 0.049-0.154l0.002-0.009 0.375-3.197c0.017-0.138 0.026-0.298 0.026-0.46 0-1.957-1.403-3.587-3.259-3.938l-0.025-0.004-1.053-0.191c-1.219-0.234-2.621-0.367-4.055-0.367s-2.836 0.134-4.195 0.389l0.14-0.022-1.055 0.191c-1.88 0.355-3.283 1.984-3.283 3.942 0 0.162 0.010 0.322 0.028 0.479l-0.002-0.019 0.375 3.197c0.015 0.064 0.033 0.119 0.053 0.171l-0.003-0.009c-0.035 0.249-0.056 0.541-0.060 0.836l-0 0.004c0.001 2.542 1.19 4.805 3.042 6.266l0.017 0.013c-0.085 0.034-0.167 0.075-0.251 0.111l-0.006 0.002c-4.378 1.874-7.502 5.914-8.042 10.736l-0.005 0.060c-0.005 0.043-0.008 0.094-0.008 0.145 0 0.736 0.597 1.333 1.333 1.333 0.686 0 1.25-0.517 1.325-1.183l0.001-0.006c0.401-3.596 2.549-6.614 5.563-8.219l0.057-0.028 4.031 4.031c0.241 0.241 0.575 0.391 0.943 0.391s0.701-0.149 0.943-0.391l4.031-4.031c3.072 1.633 5.22 4.651 5.616 8.199l0.004 0.048c0.075 0.671 0.639 1.188 1.323 1.189h0c0.052-0 0.103-0.003 0.153-0.008l-0.006 0.001c0.672-0.075 1.189-0.64 1.189-1.326 0-0.051-0.003-0.101-0.008-0.151l0.001 0.006c-0.545-4.882-3.67-8.922-7.961-10.763l-0.086-0.033zM14.283 10.735c-0.006-0.046-0.009-0.099-0.009-0.153 0-0.652 0.468-1.195 1.086-1.312l0.008-0.001 1.054-0.191c1.076-0.206 2.313-0.324 3.578-0.324s2.502 0.118 3.702 0.344l-0.124-0.019 1.053 0.191c0.627 0.118 1.095 0.661 1.095 1.314 0 0.054-0.003 0.107-0.009 0.159l0.001-0.006-0.237 2.019h-10.961zM20 25.68l-2.2-2.2c0.661-0.149 1.421-0.234 2.2-0.234s1.539 0.085 2.27 0.247l-0.069-0.013zM20 20.579c-2.883-0.004-5.23-2.291-5.33-5.15l-0-0.009h10.661c-0.1 2.868-2.448 5.155-5.33 5.159h-0z"></path>
</svg>
