<!-- Generated by IcoMoon.io -->
<svg version="1.1" xmlns="http://www.w3.org/2000/svg" width="40" height="40" viewBox="0 0 40 40">
<title>vertical-align-bottom</title>
<path fill="#ebebeb" d="M32 30.667h-4v-14.667c0-0.736-0.597-1.333-1.333-1.333v0h-4v-6.667c0-0.736-0.597-1.333-1.333-1.333v0h-8c-0.736 0-1.333 0.597-1.333 1.333v0 22.667h-4c-0.736 0-1.333 0.597-1.333 1.333s0.597 1.333 1.333 1.333v0h24c0.736 0 1.333-0.597 1.333-1.333s-0.597-1.333-1.333-1.333v0zM20 30.667h-5.333v-21.333h5.333zM25.333 30.667h-2.667v-13.333h2.667z"></path>
</svg>
