<!-- Generated by IcoMoon.io -->
<svg version="1.1" xmlns="http://www.w3.org/2000/svg" width="40" height="40" viewBox="0 0 40 40">
<title>video-question</title>
<path fill="#ebebeb" d="M17.613 27.053c-0.248-0.229-0.581-0.37-0.947-0.37s-0.699 0.141-0.948 0.371l0.001-0.001c-0.117 0.123-0.212 0.269-0.277 0.43l-0.003 0.009c-0.067 0.149-0.107 0.323-0.107 0.507s0.039 0.358 0.11 0.515l-0.003-0.008c0.072 0.169 0.166 0.315 0.281 0.441l-0.001-0.001c0.242 0.244 0.576 0.394 0.947 0.394 0.736 0 1.333-0.597 1.333-1.333 0-0.003 0-0.005-0-0.008v0c-0.002-0.184-0.041-0.358-0.11-0.516l0.003 0.009c-0.072-0.169-0.166-0.315-0.281-0.441l0.001 0.001zM16.667 16c-1.472 0.003-2.757 0.797-3.453 1.981l-0.010 0.019c-0.113 0.191-0.179 0.422-0.179 0.667 0 0.736 0.597 1.333 1.333 1.333 0.49 0 0.919-0.265 1.15-0.659l0.003-0.006c0.235-0.402 0.664-0.668 1.156-0.668 0.737 0 1.334 0.597 1.334 1.334s-0.597 1.334-1.333 1.334h-0c-0 0-0 0-0 0-0.736 0-1.333 0.597-1.333 1.333 0 0 0 0 0 0v-0 1.333c0 0.736 0.597 1.333 1.333 1.333s1.333-0.597 1.333-1.333v0-0.246c1.566-0.562 2.667-2.035 2.667-3.764 0-2.204-1.786-3.99-3.99-3.99-0.003 0-0.007 0-0.010 0h0.001zM32.701 12.199c-0.199-0.125-0.441-0.199-0.701-0.199-0.217 0-0.422 0.052-0.604 0.144l0.008-0.004-4.752 2.376c-0.081-2.14-1.833-3.845-3.984-3.85h-12.001c-2.208 0.003-3.998 1.792-4 4v8c0.003 2.208 1.792 3.998 4 4h1.334c0.736 0 1.333-0.597 1.333-1.333s-0.597-1.333-1.333-1.333v0h-1.333c-0.736-0.001-1.333-0.597-1.333-1.333v-8c0.001-0.736 0.597-1.333 1.333-1.333h12c0.736 0.001 1.333 0.597 1.333 1.333v8c-0.001 0.736-0.597 1.333-1.333 1.333h-0.667c-0.736 0-1.333 0.597-1.333 1.333s0.597 1.333 1.333 1.333v0h0.667c2.152-0.005 3.904-1.71 3.985-3.843l0-0.007 4.752 2.376c0.174 0.089 0.379 0.141 0.596 0.141 0.736 0 1.333-0.597 1.334-1.333v-10.667c-0-0.477-0.251-0.895-0.627-1.131l-0.006-0.003zM30.667 21.842l-4-2v-2.352l4-2z"></path>
</svg>
