<!-- Generated by IcoMoon.io -->
<svg version="1.1" xmlns="http://www.w3.org/2000/svg" width="40" height="40" viewBox="0 0 40 40">
<title>voicemail</title>
<path fill="#ebebeb" d="M28 14.667c-2.946 0-5.333 2.388-5.333 5.333v0c0.004 0.986 0.281 1.906 0.76 2.69l-0.013-0.023h-6.827c0.465-0.761 0.742-1.681 0.747-2.665v-0.001c0-2.946-2.388-5.333-5.333-5.333s-5.333 2.388-5.333 5.333c0 2.946 2.388 5.333 5.333 5.333v0h16c2.946 0 5.333-2.388 5.333-5.333s-2.388-5.333-5.333-5.333v0zM12 22.667c-1.473 0-2.667-1.194-2.667-2.667s1.194-2.667 2.667-2.667c1.473 0 2.667 1.194 2.667 2.667v0c0 1.473-1.194 2.667-2.667 2.667v0zM28 22.667c-1.473 0-2.667-1.194-2.667-2.667s1.194-2.667 2.667-2.667c1.473 0 2.667 1.194 2.667 2.667v0c0 1.473-1.194 2.667-2.667 2.667v0z"></path>
</svg>
