<!-- Generated by IcoMoon.io -->
<svg version="1.1" xmlns="http://www.w3.org/2000/svg" width="40" height="40" viewBox="0 0 40 40">
<title>watch</title>
<path fill="#ebebeb" d="M26.667 13.040v-5.040c0-0.736-0.597-1.333-1.333-1.333v0h-10.667c-0.736 0-1.333 0.597-1.333 1.333v0 5.040c-0.815 0.731-1.327 1.785-1.333 2.959v8.001c0.006 1.175 0.519 2.229 1.33 2.957l0.004 0.003v5.040c0 0.736 0.597 1.333 1.333 1.333v0h10.667c0.736 0 1.333-0.597 1.333-1.333v0-5.040c0.815-0.731 1.327-1.785 1.333-2.959v-8.001c-0.006-1.175-0.519-2.229-1.33-2.957l-0.004-0.003zM16 9.333h8v2.667h-8zM24 30.667h-8v-2.667h8zM25.333 24c0 0.736-0.597 1.333-1.333 1.333v0h-8c-0.736 0-1.333-0.597-1.333-1.333v0-8c0-0.736 0.597-1.333 1.333-1.333v0h8c0.736 0 1.333 0.597 1.333 1.333v0z"></path>
</svg>
