<!-- Generated by IcoMoon.io -->
<svg version="1.1" xmlns="http://www.w3.org/2000/svg" width="40" height="40" viewBox="0 0 40 40">
<title>whatsapp</title>
<path fill="#ebebeb" d="M26.133 22.667c-0.267-0.133-2-0.933-2.267-1.067s-0.533-0.133-0.8 0.133c-0.267 0.267-0.8 1.067-1.067 1.333-0.133 0.267-0.4 0.267-0.667 0.133-0.933-0.4-1.867-0.933-2.667-1.6-0.667-0.667-1.333-1.467-1.867-2.267-0.133-0.267 0-0.533 0.133-0.667s0.267-0.4 0.533-0.533c0.133-0.133 0.267-0.4 0.267-0.533 0.133-0.133 0.133-0.4 0-0.533s-0.8-1.733-1.067-2.4c-0.133-0.933-0.4-0.933-0.667-0.933-0.133 0-0.4 0-0.667 0s-0.667 0.267-0.8 0.4c-0.8 0.8-1.2 1.733-1.2 2.8 0.133 1.2 0.533 2.4 1.333 3.467 1.467 2.133 3.333 3.867 5.6 4.933 0.667 0.267 1.2 0.533 1.867 0.667 0.667 0.267 1.333 0.267 2.133 0.133 0.933-0.133 1.733-0.8 2.267-1.6 0.267-0.533 0.267-1.067 0.133-1.6 0 0-0.267-0.133-0.533-0.267zM29.467 10.533c-5.2-5.2-13.6-5.2-18.8 0-4.267 4.267-5.067 10.8-2.133 16l-1.867 6.8 7.067-1.867c2 1.067 4.133 1.6 6.267 1.6v0c7.333 0 13.2-5.867 13.2-13.2 0.133-3.467-1.333-6.8-3.733-9.333zM25.867 29.2c-1.733 1.067-3.733 1.733-5.867 1.733v0c-2 0-3.867-0.533-5.6-1.467l-0.4-0.267-4.133 1.067 1.067-4-0.267-0.4c-3.2-5.333-1.6-12 3.6-15.333s11.867-1.6 15.067 3.467c3.2 5.2 1.733 12-3.467 15.2z"></path>
</svg>
