<!-- Generated by IcoMoon.io -->
<svg version="1.1" xmlns="http://www.w3.org/2000/svg" width="40" height="40" viewBox="0 0 40 40">
<title>window</title>
<path fill="#ebebeb" d="M17.333 10.667c-0.736 0-1.333 0.597-1.333 1.333s0.597 1.333 1.333 1.333c0.736 0 1.333-0.597 1.333-1.333v0c0-0.736-0.597-1.333-1.333-1.333v0zM12 10.667c-0.736 0-1.333 0.597-1.333 1.333s0.597 1.333 1.333 1.333c0.736 0 1.333-0.597 1.333-1.333v0c0-0.736-0.597-1.333-1.333-1.333v0zM22.667 10.667c-0.736 0-1.333 0.597-1.333 1.333s0.597 1.333 1.333 1.333c0.736 0 1.333-0.597 1.333-1.333v0c0-0.736-0.597-1.333-1.333-1.333v0zM30.667 5.333h-21.333c-2.209 0-4 1.791-4 4v0 21.333c0 2.209 1.791 4 4 4v0h21.333c2.209 0 4-1.791 4-4v0-21.333c0-2.209-1.791-4-4-4v0zM32 30.667c0 0.736-0.597 1.333-1.333 1.333v0h-21.333c-0.736 0-1.333-0.597-1.333-1.333v0-12h24zM32 16h-24v-6.667c0-0.736 0.597-1.333 1.333-1.333v0h21.333c0.736 0 1.333 0.597 1.333 1.333v0z"></path>
</svg>
