<!-- Generated by IcoMoon.io -->
<svg version="1.1" xmlns="http://www.w3.org/2000/svg" width="40" height="40" viewBox="0 0 40 40">
<title>wind</title>
<path fill="#ebebeb" d="M8.667 16c0.736 0 1.333-0.597 1.333-1.333s-0.597-1.333-1.333-1.333c-0.736 0-1.333 0.597-1.333 1.333v0c0 0.736 0.597 1.333 1.333 1.333v0zM14 16h9.333c2.209 0 4-1.791 4-4s-1.791-4-4-4v0c-0.736 0.003-1.425 0.201-2.020 0.544l0.020-0.011c-0.405 0.234-0.673 0.665-0.673 1.158 0 0.246 0.067 0.477 0.183 0.675l-0.003-0.006c0.235 0.399 0.663 0.663 1.153 0.663 0.249 0 0.481-0.068 0.68-0.186l-0.006 0.003c0.193-0.106 0.422-0.17 0.666-0.173h0.001c0.736 0 1.333 0.597 1.333 1.333s-0.597 1.333-1.333 1.333v0h-9.333c-0.736 0-1.333 0.597-1.333 1.333s0.597 1.333 1.333 1.333v0zM8.667 21.333h9.333c0.736 0 1.333-0.597 1.333-1.333s-0.597-1.333-1.333-1.333v0h-9.333c-0.736 0-1.333 0.597-1.333 1.333s0.597 1.333 1.333 1.333v0zM31.333 16c0.736 0 1.333-0.597 1.333-1.333s-0.597-1.333-1.333-1.333c-0.736 0-1.333 0.597-1.333 1.333v0c0 0.736 0.597 1.333 1.333 1.333v0zM28.667 18.667h-5.333c-0.736 0-1.333 0.597-1.333 1.333s0.597 1.333 1.333 1.333v0h5.333c0.736 0 1.333 0.597 1.333 1.333s-0.597 1.333-1.333 1.333v0c-0.736 0-1.333 0.597-1.333 1.333s0.597 1.333 1.333 1.333v0c2.209 0 4-1.791 4-4s-1.791-4-4-4v0zM20.667 24h-5.333c-0.736 0-1.333 0.597-1.333 1.333s0.597 1.333 1.333 1.333v0h5.333c0.736 0 1.333 0.597 1.333 1.333s-0.597 1.333-1.333 1.333v0c-0.245-0.004-0.474-0.068-0.674-0.177l0.008 0.004c-0.203-0.131-0.45-0.208-0.715-0.208-0.736 0-1.333 0.597-1.333 1.333 0 0.51 0.287 0.954 0.708 1.178l0.007 0.004c0.575 0.333 1.264 0.53 1.999 0.533h0.001c2.209 0 4-1.791 4-4s-1.791-4-4-4v0zM10 24h-1.333c-0.736 0-1.333 0.597-1.333 1.333s0.597 1.333 1.333 1.333v0h1.333c0.736 0 1.333-0.597 1.333-1.333s-0.597-1.333-1.333-1.333v0z"></path>
</svg>
