<!-- Generated by IcoMoon.io -->
<svg version="1.1" xmlns="http://www.w3.org/2000/svg" width="280" height="280" viewBox="0 0 280 280">
<title>adobe-alt</title>
<path d="M119.549 28.033c-2.121-3.137-5.666-5.173-9.685-5.173-0.002 0-0.003 0-0.005 0h-86.623c-0.001 0-0.002 0-0.003 0-6.442 0-11.664 5.222-11.664 11.664 0 0.001 0 0.002 0 0.003v-0 210.957c0.001 6.444 5.225 11.667 11.668 11.667 4.845 0 9.001-2.953 10.765-7.158l0.029-0.077 86.623-210.957c0.552-1.309 0.872-2.83 0.872-4.427 0-2.424-0.739-4.675-2.003-6.541l0.026 0.041zM34.903 186.353v-140.159h57.553zM256.57 22.86h-87.705c-6.441 0.003-11.662 5.225-11.662 11.667 0 1.633 0.336 3.188 0.941 4.599l-0.029-0.076 87.705 208.245c1.81 4.231 5.937 7.143 10.744 7.144v0c0.82-0.003 1.619-0.085 2.391-0.241l-0.078 0.013c5.375-1.118 9.356-5.813 9.359-11.438v-208.246c0-0.001 0-0.002 0-0.003 0-6.442-5.222-11.664-11.664-11.664-0.001 0-0.002 0-0.003 0h0zM244.903 185.008l-58.464-138.815h58.464zM151.074 111.067c-1.701-4.411-5.885-7.494-10.795-7.542h-0.12c-0 0-0.001 0-0.001 0-4.879 0-9.059 2.996-10.8 7.248l-0.028 0.078-35.689 89.026c-0.53 1.285-0.838 2.777-0.838 4.341 0 6.443 5.223 11.667 11.667 11.667 0 0 0 0 0 0h26.301l17.762 34.886c1.967 3.816 5.881 6.38 10.393 6.38 0.001 0 0.002 0 0.004 0h30.482c6.444-0.001 11.667-5.225 11.667-11.668 0-1.481-0.276-2.898-0.78-4.202l0.027 0.080zM166.085 233.817l-17.762-34.886c-1.967-3.816-5.881-6.38-10.393-6.38-0.001 0-0.002 0-0.003 0h-16.212l18.127-45.208 32.687 86.475z"></path>
</svg>
