<!-- Generated by IcoMoon.io -->
<svg version="1.1" xmlns="http://www.w3.org/2000/svg" width="280" height="280" viewBox="0 0 280 280">
<title>align</title>
<path d="M35 175h116.667c6.443 0 11.667-5.223 11.667-11.667s-5.223-11.667-11.667-11.667v0h-116.667c-6.443 0-11.667 5.223-11.667 11.667s5.223 11.667 11.667 11.667v0zM35 128.333h116.667c6.443 0 11.667-5.223 11.667-11.667s-5.223-11.667-11.667-11.667v0h-116.667c-6.443 0-11.667 5.223-11.667 11.667s5.223 11.667 11.667 11.667v0zM35 81.667h210c6.443 0 11.667-5.223 11.667-11.667s-5.223-11.667-11.667-11.667v0h-210c-6.443 0-11.667 5.223-11.667 11.667s5.223 11.667 11.667 11.667v0zM245 198.333h-210c-6.443 0-11.667 5.223-11.667 11.667s5.223 11.667 11.667 11.667v0h210c6.443 0 11.667-5.223 11.667-11.667s-5.223-11.667-11.667-11.667v0zM229.133 111.65c-2.096-2.029-4.957-3.28-8.11-3.28-6.443 0-11.667 5.223-11.667 11.667 0 3.881 1.895 7.319 4.81 9.44l0.033 0.023 12.6 10.5-12.6 10.5c-2.586 2.155-4.221 5.377-4.221 8.981 0 2.85 1.022 5.461 2.719 7.487l-0.015-0.018c2.155 2.574 5.37 4.2 8.964 4.2 0.007 0 0.013 0 0.020 0h-0.001c2.861-0.030 5.47-1.084 7.482-2.813l-0.016 0.013 23.333-19.367c2.588-2.155 4.223-5.378 4.223-8.983s-1.635-6.828-4.204-8.968l-0.019-0.015z"></path>
</svg>
