<!-- Generated by IcoMoon.io -->
<svg version="1.1" xmlns="http://www.w3.org/2000/svg" width="280" height="280" viewBox="0 0 280 280">
<title>align-center-alt</title>
<path d="M58.333 93.333h163.333c6.443 0 11.667-5.223 11.667-11.667s-5.223-11.667-11.667-11.667v0h-163.333c-6.443 0-11.667 5.223-11.667 11.667s5.223 11.667 11.667 11.667v0zM245 128.333h-210c-6.443 0-11.667 5.223-11.667 11.667s5.223 11.667 11.667 11.667v0h210c6.443 0 11.667-5.223 11.667-11.667s-5.223-11.667-11.667-11.667v0zM221.667 186.667h-163.333c-6.443 0-11.667 5.223-11.667 11.667s5.223 11.667 11.667 11.667v0h163.333c6.443 0 11.667-5.223 11.667-11.667s-5.223-11.667-11.667-11.667v0z"></path>
</svg>
