<!-- Generated by IcoMoon.io -->
<svg version="1.1" xmlns="http://www.w3.org/2000/svg" width="280" height="280" viewBox="0 0 280 280">
<title>android-alt</title>
<path d="M34.903 105.005c-0.001 0-0.002 0-0.003 0-6.442 0-11.663 5.222-11.663 11.663 0 0.001 0 0.002 0 0.003v-0 46.667c0 6.443 5.223 11.667 11.667 11.667s11.667-5.223 11.667-11.667v0-46.667c0-0.001 0-0.002 0-0.003 0-6.442-5.222-11.663-11.663-11.663-0.001 0-0.002 0-0.003 0h0zM244.903 105.005c-0.001 0-0.002 0-0.003 0-6.442 0-11.663 5.222-11.663 11.663 0 0.001 0 0.002 0 0.003v-0 46.667c0 6.443 5.223 11.667 11.667 11.667s11.667-5.223 11.667-11.667v0-46.667c0-0.001 0-0.002 0-0.003 0-6.442-5.222-11.663-11.663-11.663-0.001 0-0.002 0-0.003 0h0zM196.67 40.838c0.994-1.681 1.581-3.703 1.581-5.864 0-6.442-5.222-11.664-11.664-11.664-4.306 0-8.067 2.334-10.088 5.805l-0.030 0.056-7.165 12.394c-8.612-4.141-18.724-6.561-29.402-6.561s-20.789 2.42-29.818 6.741l0.416-0.18-7.165-12.394c-2.051-3.527-5.811-5.861-10.117-5.861-6.442 0-11.664 5.222-11.664 11.664 0 2.16 0.587 4.183 1.611 5.918l-0.030-0.054 8.079 13.976c-13.149 12.703-21.313 30.493-21.313 50.19 0 0 0 0.001 0 0.001v0 93.333c0 0.001 0 0.002 0 0.003 0 6.442 5.222 11.664 11.664 11.664 0.001 0 0.002 0 0.003 0h23.333v35c0 6.443 5.223 11.667 11.667 11.667s11.667-5.223 11.667-11.667v0-35h23.333v35c0 6.443 5.223 11.667 11.667 11.667s11.667-5.223 11.667-11.667v0-35h23.333c0.001 0 0.002 0 0.003 0 6.442 0 11.664-5.222 11.664-11.664 0-0.001 0-0.002 0-0.003v0-93.333c0-0 0-0.001 0-0.001 0-19.697-8.164-37.487-21.292-50.171l-0.020-0.019zM186.57 186.672h-93.333v-58.333h93.333zM93.236 105.005c0-25.773 20.893-46.667 46.667-46.667s46.667 20.893 46.667 46.667v0z"></path>
</svg>
