<!-- Generated by IcoMoon.io -->
<svg version="1.1" xmlns="http://www.w3.org/2000/svg" width="280" height="280" viewBox="0 0 280 280">
<title>arrow-circle-left</title>
<path d="M96.717 131.717c-1.032 1.077-1.862 2.356-2.422 3.771l-0.028 0.079c-0.553 1.311-0.875 2.834-0.875 4.433s0.322 3.123 0.904 4.51l-0.029-0.077c0.588 1.494 1.418 2.773 2.454 3.854l-0.004-0.004 35 35c2.12 2.12 5.048 3.431 8.283 3.431 6.47 0 11.714-5.245 11.714-11.714 0-3.235-1.311-6.164-3.431-8.283v0l-15.167-15.050h41.883c6.443 0 11.667-5.223 11.667-11.667s-5.223-11.667-11.667-11.667v0h-41.883l15.167-15.050c2.131-2.114 3.451-5.045 3.451-8.283s-1.32-6.169-3.45-8.283l-0.001-0.001c-2.114-2.131-5.045-3.451-8.283-3.451s-6.169 1.32-8.283 3.45l-0.001 0.001zM23.333 140c0 64.433 52.233 116.667 116.667 116.667s116.667-52.233 116.667-116.667c0-64.433-52.233-116.667-116.667-116.667v0c-64.433 0-116.667 52.233-116.667 116.667v0zM233.333 140c0 51.547-41.787 93.333-93.333 93.333s-93.333-41.787-93.333-93.333c0-51.547 41.787-93.333 93.333-93.333v0c51.547 0 93.333 41.787 93.333 93.333v0z"></path>
</svg>
