<!-- Generated by IcoMoon.io -->
<svg version="1.1" xmlns="http://www.w3.org/2000/svg" width="280" height="280" viewBox="0 0 280 280">
<title>arrows-h</title>
<path d="M255.733 135.567c-0.588-1.494-1.418-2.773-2.454-3.854l0.004 0.004-46.667-46.667c-2.12-2.12-5.048-3.431-8.283-3.431-6.47 0-11.714 5.245-11.714 11.714 0 3.235 1.311 6.164 3.431 8.283v0l26.833 26.717h-153.767l26.833-26.717c2.12-2.12 3.431-5.048 3.431-8.283 0-6.47-5.245-11.714-11.714-11.714-3.235 0-6.164 1.311-8.283 3.431l-46.667 46.667c-1.032 1.077-1.862 2.356-2.422 3.771l-0.028 0.079c-0.553 1.311-0.875 2.834-0.875 4.433s0.322 3.123 0.904 4.51l-0.029-0.077c0.588 1.494 1.418 2.773 2.454 3.854l-0.004-0.004 46.667 46.667c2.114 2.131 5.045 3.451 8.283 3.451s6.169-1.32 8.283-3.45l0.001-0.001c2.131-2.114 3.451-5.045 3.451-8.283s-1.32-6.169-3.45-8.283l-0.001-0.001-26.833-26.717h153.767l-26.833 26.717c-2.131 2.114-3.451 5.045-3.451 8.283s1.32 6.169 3.45 8.283l0.001 0.001c2.114 2.131 5.045 3.451 8.283 3.451s6.169-1.32 8.283-3.45l46.668-46.668c1.032-1.077 1.862-2.356 2.422-3.771l0.028-0.079c0.553-1.311 0.875-2.834 0.875-4.433s-0.322-3.123-0.904-4.51l0.029 0.077z"></path>
</svg>
