<!-- Generated by IcoMoon.io -->
<svg version="1.1" xmlns="http://www.w3.org/2000/svg" width="280" height="280" viewBox="0 0 280 280">
<title>arrow-from-top</title>
<path d="M178.383 190.050l-26.717 26.833v-135.217c0-6.443-5.223-11.667-11.667-11.667s-11.667 5.223-11.667 11.667v0 135.217l-26.717-26.833c-2.12-2.12-5.048-3.431-8.283-3.431-6.47 0-11.714 5.245-11.714 11.714 0 3.235 1.311 6.164 3.431 8.283l46.667 46.667c1.077 1.032 2.356 1.862 3.771 2.422l0.079 0.028c1.305 0.591 2.829 0.936 4.433 0.936s3.129-0.345 4.502-0.964l-0.069 0.028c1.494-0.588 2.773-1.418 3.854-2.454l-0.004 0.004 46.667-46.667c2.12-2.12 3.431-5.048 3.431-8.283 0-6.47-5.245-11.714-11.714-11.714-3.235 0-6.164 1.311-8.283 3.431v0zM221.667 23.333h-163.333c-6.443 0-11.667 5.223-11.667 11.667s5.223 11.667 11.667 11.667v0h163.333c6.443 0 11.667-5.223 11.667-11.667s-5.223-11.667-11.667-11.667v0z"></path>
</svg>
