<!-- Generated by IcoMoon.io -->
<svg version="1.1" xmlns="http://www.w3.org/2000/svg" width="280" height="280" viewBox="0 0 280 280">
<title>arrow-up-left</title>
<path d="M109.783 93.333h88.55c6.443 0 11.667-5.223 11.667-11.667s-5.223-11.667-11.667-11.667v0h-116.667c-1.606 0.020-3.127 0.361-4.509 0.963l0.075-0.029c-2.86 1.209-5.091 3.44-6.271 6.223l-0.029 0.077c-0.572 1.306-0.913 2.827-0.933 4.426v116.674c0 6.443 5.223 11.667 11.667 11.667s11.667-5.223 11.667-11.667v0-88.55l96.717 96.833c2.114 2.131 5.045 3.451 8.283 3.451s6.169-1.32 8.283-3.45l0.001-0.001c2.131-2.114 3.451-5.045 3.451-8.283s-1.32-6.169-3.45-8.283l-0.001-0.001z"></path>
</svg>
