<!-- Generated by IcoMoon.io -->
<svg version="1.1" xmlns="http://www.w3.org/2000/svg" width="280" height="280" viewBox="0 0 280 280">
<title>basketball</title>
<path d="M140 23.333c-40.94 0.043-76.937 21.167-97.725 53.099l-0.275 0.451c-11.475 17.75-18.296 39.44-18.296 62.724 0 64.433 52.233 116.667 116.667 116.667 27.579 0 52.924-9.57 72.893-25.57l-0.231 0.179c26.63-21.56 43.514-54.25 43.514-90.884 0-64.391-52.165-116.598-116.541-116.666h-0.007zM163.333 49.7c32.878 8.713 58.253 34.089 66.819 66.315l0.147 0.652c-20.494 0.595-39.489 6.503-55.809 16.386l0.509-0.286c-8.404-9.504-17.573-17.969-27.528-25.444l-0.472-0.34c9.86-16.393 15.87-36.089 16.331-57.154l0.002-0.13zM140 46.667c-0.042 17.553-4.983 33.943-13.529 47.885l0.229-0.402c-1.75-0.933-3.383-1.983-5.133-2.8-13.763-7.427-29.714-13.35-46.53-16.938l-1.187-0.212c16.9-16.997 40.295-27.521 66.148-27.533h0.002zM58.333 95.2c19.555 2.777 37.213 8.677 53.248 17.221l-0.865-0.421 1.517 0.933c-16.739 16.724-39.856 27.067-65.388 27.067-0.063 0-0.125 0-0.188-0h0.010c0.070-16.453 4.387-31.883 11.909-45.269l-0.242 0.469zM116.667 230.3c-32.878-8.713-58.253-34.089-66.819-66.315l-0.147-0.652c32.723-0.749 61.978-14.995 82.524-37.366l0.076-0.084c8.662 6.443 16.294 13.336 23.226 20.882l0.107 0.118c-23.104 20.666-37.892 50.214-38.962 83.23l-0.005 0.186zM140 233.333c0.055-26.941 11.516-51.195 29.809-68.197l0.058-0.053c0.7 0.933 1.4 1.75 1.983 2.683 9.272 13.998 16.638 30.247 21.212 47.628l0.255 1.138c-14.807 10.509-33.251 16.8-53.163 16.8-0.054 0-0.108 0-0.162-0h0.008zM212.45 198.333c-5.552-16.686-12.666-31.161-21.433-44.449l0.433 0.699-2.45-2.917c12.776-7.238 28.039-11.55 44.299-11.666l0.035-0c-0.125 22.204-7.984 42.549-21.016 58.501l0.133-0.167z"></path>
</svg>
