<!-- Generated by IcoMoon.io -->
<svg version="1.1" xmlns="http://www.w3.org/2000/svg" width="280" height="280" viewBox="0 0 280 280">
<title>bitcoin-circle</title>
<path d="M140 11.667c-70.877 0-128.333 57.457-128.333 128.333s57.457 128.333 128.333 128.333c70.877 0 128.333-57.457 128.333-128.333v0c0-70.877-57.457-128.333-128.333-128.333v0zM140 245c-57.99 0-105-47.010-105-105s47.010-105 105-105c57.99 0 105 47.010 105 105v0c0 57.99-47.010 105-105 105v0zM163.333 81.667v-11.667c0-6.443-5.223-11.667-11.667-11.667s-11.667 5.223-11.667 11.667v0 11.667h-11.667v-11.667c0-6.443-5.223-11.667-11.667-11.667s-11.667 5.223-11.667 11.667v0 11.667h-11.667c-6.443 0-11.667 5.223-11.667 11.667s5.223 11.667 11.667 11.667v0h11.667v70h-11.667c-6.443 0-11.667 5.223-11.667 11.667s5.223 11.667 11.667 11.667v0h11.667v11.667c0 6.443 5.223 11.667 11.667 11.667s11.667-5.223 11.667-11.667v0-11.667h11.667v11.667c0 6.443 5.223 11.667 11.667 11.667s11.667-5.223 11.667-11.667v0-11.667c19.33 0 35-15.67 35-35v0c-0.021-8.989-3.427-17.178-9.011-23.364l0.027 0.031c5.556-6.155 8.962-14.345 8.983-23.329v-0.004c0-19.33-15.67-35-35-35v0zM163.333 175h-35v-23.333h35c6.443 0 11.667 5.223 11.667 11.667s-5.223 11.667-11.667 11.667v0zM163.333 128.333h-35v-23.333h35c6.443 0 11.667 5.223 11.667 11.667s-5.223 11.667-11.667 11.667v0z"></path>
</svg>
