<!-- Generated by IcoMoon.io -->
<svg version="1.1" xmlns="http://www.w3.org/2000/svg" width="280" height="280" viewBox="0 0 280 280">
<title>bluetooth-b</title>
<path d="M156.45 140l44.333-44.217c2.131-2.114 3.451-5.045 3.451-8.283s-1.32-6.169-3.45-8.283l-52.501-52.501c-1.077-1.032-2.356-1.862-3.771-2.422l-0.079-0.028c-1.311-0.553-2.834-0.875-4.433-0.875s-3.123 0.322-4.51 0.904l0.077-0.029c-2.86 1.209-5.091 3.44-6.271 6.223l-0.029 0.077c-0.572 1.306-0.913 2.827-0.933 4.426v76.891l-32.55-32.667c-2.12-2.12-5.048-3.431-8.283-3.431-6.47 0-11.714 5.245-11.714 11.714 0 3.235 1.311 6.164 3.431 8.283v0l44.333 44.217-44.333 44.217c-2.12 2.12-3.431 5.048-3.431 8.283 0 6.47 5.245 11.714 11.714 11.714 3.235 0 6.164-1.311 8.283-3.431v0l32.55-32.667v76.883c0.020 1.606 0.361 3.127 0.963 4.509l-0.029-0.075c1.209 2.86 3.44 5.091 6.223 6.271l0.077 0.029c1.305 0.591 2.829 0.936 4.433 0.936s3.129-0.345 4.502-0.964l-0.069 0.028c1.494-0.588 2.773-1.418 3.854-2.454l-0.004 0.004 52.5-52.5c2.131-2.114 3.451-5.045 3.451-8.283s-1.32-6.169-3.45-8.283l-0.001-0.001zM151.667 63.117l24.383 24.383-24.383 24.383zM151.667 216.883v-48.767l24.383 24.383z"></path>
</svg>
