<!-- Generated by IcoMoon.io -->
<svg version="1.1" xmlns="http://www.w3.org/2000/svg" width="280" height="280" viewBox="0 0 280 280">
<title>bookmark</title>
<path d="M186.667 23.333h-93.333c-19.33 0-35 15.67-35 35v0 186.667c0 0.014 0 0.030 0 0.046 0 4.296 2.321 8.049 5.778 10.074l0.055 0.030c1.673 0.983 3.686 1.563 5.833 1.563s4.16-0.581 5.888-1.593l-0.055 0.030 64.167-37.1 64.167 37.1c1.654 0.954 3.638 1.517 5.753 1.517 0.028 0 0.057 0 0.085-0h-0.004c0.024 0 0.052 0 0.081 0 2.115 0 4.099-0.563 5.809-1.547l-0.057 0.030c3.512-2.055 5.834-5.808 5.834-10.104 0-0.016 0-0.033 0-0.049v0.002-186.667c0-19.33-15.67-35-35-35v0zM198.333 224.817l-52.5-30.333c-1.673-0.983-3.686-1.563-5.833-1.563s-4.16 0.581-5.888 1.593l0.055-0.030-52.5 30.333v-166.483c0-6.443 5.223-11.667 11.667-11.667v0h93.333c6.443 0 11.667 5.223 11.667 11.667v0z"></path>
</svg>
