<!-- Generated by IcoMoon.io -->
<svg version="1.1" xmlns="http://www.w3.org/2000/svg" width="280" height="280" viewBox="0 0 280 280">
<title>calculator</title>
<path d="M148.283 201.717c-0.552-0.509-1.163-0.971-1.816-1.371l-0.051-0.029c-0.565-0.442-1.224-0.799-1.937-1.037l-0.046-0.013c-0.643-0.336-1.39-0.582-2.179-0.696l-0.037-0.004c-0.675-0.149-1.449-0.235-2.244-0.235-1.595 0-3.11 0.344-4.474 0.962l0.068-0.028c-2.939 1.085-5.215 3.361-6.276 6.227l-0.024 0.073c-0.591 1.224-0.937 2.662-0.937 4.181 0 0.089 0.001 0.177 0.004 0.266l-0-0.013c-0.001 0.042-0.001 0.093-0.001 0.143 0 1.545 0.3 3.019 0.845 4.369l-0.028-0.078c0.722 1.47 1.577 2.736 2.582 3.868l-0.015-0.017c2.108 2.091 5.011 3.384 8.216 3.384 0.024 0 0.047 0 0.071-0h-0.004c0.075 0.002 0.164 0.003 0.252 0.003 1.519 0 2.957-0.345 4.24-0.962l-0.059 0.025c1.483-0.628 2.756-1.453 3.861-2.46l-0.011 0.010c2.091-2.108 3.384-5.011 3.384-8.216 0-0.024 0-0.047-0-0.071v0.004c-0.020-1.606-0.361-3.127-0.963-4.509l0.029 0.075c-0.588-1.494-1.418-2.773-2.454-3.854l0.004 0.004zM99.75 153.65c-0.565-0.442-1.224-0.799-1.937-1.037l-0.046-0.013c-0.636-0.415-1.376-0.737-2.169-0.924l-0.048-0.010c-0.683-0.166-1.468-0.261-2.275-0.261s-1.591 0.095-2.343 0.275l0.068-0.014-2.1 0.7-2.1 1.050-1.75 1.4c-2.095 2.194-3.384 5.173-3.384 8.453 0 0.022 0 0.045 0 0.068v-0.004c0 0.020-0 0.044-0 0.068 0 3.205 1.292 6.108 3.384 8.217l-0.001-0.001c1.094 0.997 2.367 1.822 3.763 2.417l0.087 0.033c1.311 0.553 2.834 0.875 4.434 0.875 6.423 0 11.633-5.19 11.666-11.606v-0.003c-0.046-3.219-1.326-6.129-3.388-8.288l0.004 0.005zM101.617 201.717c-1.077-1.032-2.356-1.862-3.771-2.422l-0.079-0.028c-1.439-0.683-3.127-1.083-4.908-1.083-0.657 0-1.3 0.054-1.927 0.158l0.068-0.009-2.1 0.7c-0.801 0.279-1.495 0.634-2.13 1.070l0.030-0.020c-0.654 0.463-1.224 0.923-1.765 1.414l0.015-0.014c-1.032 1.077-1.862 2.356-2.422 3.771l-0.028 0.079c-0.591 1.305-0.936 2.829-0.936 4.433s0.345 3.129 0.964 4.502l-0.028-0.069c0.628 1.483 1.453 2.756 2.46 3.861l-0.010-0.011c2.092 2.192 5.022 3.57 8.275 3.616h0.008c0.075 0.002 0.164 0.003 0.252 0.003 1.519 0 2.957-0.345 4.24-0.962l-0.059 0.025c1.483-0.628 2.756-1.453 3.861-2.46l-0.011 0.010c0.997-1.094 1.822-2.367 2.417-3.763l0.033-0.088c0.591-1.305 0.936-2.829 0.936-4.433s-0.345-3.129-0.964-4.502l0.028 0.069c-0.588-1.494-1.418-2.773-2.454-3.854l0.004 0.004zM135.567 152.6c-1.494 0.588-2.773 1.418-3.854 2.454l0.004-0.004c-2.057 2.154-3.337 5.065-3.383 8.274v0.009c0.033 6.418 5.244 11.609 11.666 11.609 1.599 0 3.123-0.322 4.51-0.904l-0.077 0.029c1.483-0.628 2.756-1.453 3.861-2.46l-0.011 0.010c2.091-2.108 3.384-5.011 3.384-8.216 0-0.024 0-0.047-0-0.071v0.004c-0.046-3.219-1.326-6.129-3.388-8.288l0.004 0.005c-2.105-2.078-5-3.362-8.194-3.362-1.633 0-3.187 0.336-4.598 0.941l0.076-0.029zM194.95 201.717c-1.094-0.997-2.367-1.822-3.763-2.417l-0.088-0.033c-1.335-0.577-2.89-0.912-4.522-0.912-3.194 0-6.089 1.284-8.195 3.363l0.001-0.001c-1.032 1.077-1.862 2.356-2.422 3.771l-0.028 0.079c-0.591 1.305-0.936 2.829-0.936 4.433s0.345 3.129 0.964 4.502l-0.028-0.069c0.628 1.483 1.453 2.756 2.46 3.861l-0.010-0.011c2.108 2.091 5.011 3.384 8.216 3.384 0.024 0 0.047 0 0.071-0h-0.004c0.075 0.002 0.164 0.003 0.252 0.003 1.519 0 2.957-0.345 4.24-0.962l-0.059 0.025c1.483-0.628 2.756-1.453 3.861-2.46l-0.011 0.010c2.078-2.105 3.362-5 3.362-8.194 0-1.633-0.336-3.187-0.941-4.598l0.029 0.076c-0.588-1.494-1.418-2.773-2.454-3.854l0.004 0.004zM186.667 58.333h-93.333c-6.443 0-11.667 5.223-11.667 11.667v0 46.667c0 6.443 5.223 11.667 11.667 11.667v0h93.333c6.443 0 11.667-5.223 11.667-11.667v0-46.667c0-6.443-5.223-11.667-11.667-11.667v0zM175 105h-70v-23.333h70zM210 11.667h-140c-19.33 0-35 15.67-35 35v0 186.667c0 19.33 15.67 35 35 35v0h140c19.33 0 35-15.67 35-35v0-186.667c0-19.33-15.67-35-35-35v0zM221.667 233.333c0 6.443-5.223 11.667-11.667 11.667v0h-140c-6.443 0-11.667-5.223-11.667-11.667v0-186.667c0-6.443 5.223-11.667 11.667-11.667v0h140c6.443 0 11.667 5.223 11.667 11.667v0zM193.083 153.65c-0.565-0.442-1.224-0.799-1.937-1.037l-0.046-0.013c-0.643-0.336-1.39-0.582-2.179-0.696l-0.037-0.004c-0.683-0.166-1.468-0.261-2.275-0.261s-1.591 0.095-2.343 0.275l0.068-0.014-2.1 0.7-2.1 1.050-1.75 1.4c-2.057 2.154-3.337 5.065-3.383 8.274v0.009c0.033 6.418 5.244 11.609 11.666 11.609 1.599 0 3.123-0.322 4.51-0.904l-0.077 0.029c1.483-0.628 2.756-1.453 3.861-2.46l-0.011 0.010c2.091-2.108 3.384-5.011 3.384-8.216 0-0.024 0-0.047-0-0.071v0.004c-0.046-3.219-1.326-6.129-3.388-8.288l0.004 0.005z"></path>
</svg>
