<!-- Generated by IcoMoon.io -->
<svg version="1.1" xmlns="http://www.w3.org/2000/svg" width="280" height="280" viewBox="0 0 280 280">
<title>circle-layer</title>
<path d="M175 23.333c-39.879 0.033-73.066 28.645-80.187 66.459l-0.079 0.507c-20.001 10.948-33.914 30.856-36.374 54.179l-0.026 0.304c-20.692 9.267-34.846 29.679-34.846 53.396 0 32.217 26.117 58.333 58.333 58.333 23.717 0 44.129-14.154 53.248-34.477l0.148-0.369c23.566-2.409 43.458-16.189 54.301-35.693l0.182-0.357c39.198-6.462 68.731-40.1 68.731-80.636 0-45.103-36.564-81.667-81.667-81.667-0.62 0-1.239 0.007-1.857 0.021l0.092-0.002zM116.667 203.35c0 1.167 0 2.333-0.817 3.617v0c-3.943 15.332-17.643 26.481-33.947 26.481-19.33 0-35-15.67-35-35 0-16.304 11.148-30.005 26.238-33.894l0.243-0.053 3.267-1.167c1.894-0.371 4.073-0.584 6.3-0.584 18.943 0 34.3 15.357 34.3 34.3 0 2.228-0.212 4.406-0.618 6.515l0.034-0.215zM175 160.533c-0.185 0.896-0.386 1.639-0.626 2.365l0.042-0.148c-0.579 2.463-1.26 4.565-2.089 6.591l0.105-0.291c-5.526 13.75-17.013 24.086-31.173 27.925l-0.327 0.075c0-2.1 0-4.083-0.7-6.183s0-3.15 0-4.667-1.4-4.433-2.1-6.65-0.817-2.8-1.4-4.2c-1.137-2.496-2.305-4.601-3.615-6.604l0.115 0.188c0-1.050-1.050-2.217-1.75-3.267-2.183-3.178-4.485-5.961-7.008-8.525l0.008 0.008-2.333-1.983c-1.865-1.719-3.881-3.365-5.993-4.886l-0.191-0.131c-1.115-0.739-2.415-1.477-3.764-2.129l-0.202-0.088c-1.641-1.064-3.555-2.115-5.543-3.030l-0.29-0.12c-1.312-0.581-2.869-1.102-4.482-1.48l-0.185-0.037c-1.701-0.717-3.729-1.359-5.824-1.822l-0.242-0.045c-1.633 0-3.383 0-5.133-0.7l-7.117-0.7c3.89-14.465 14.182-25.945 27.571-31.388l0.312-0.112c1.729-0.749 3.792-1.43 5.925-1.932l0.258-0.051 2.333-0.583c2.623-0.578 5.642-0.917 8.737-0.933h0.013c25.773 0 46.667 20.893 46.667 46.667v0c-0.017 3.149-0.356 6.208-0.986 9.16l0.053-0.293zM198.333 158.667q0-3.5 0-7c0-38.66-31.34-70-70-70v0q-3.5 0-7 0c9.313-20.578 29.666-34.637 53.303-34.637 32.217 0 58.333 26.117 58.333 58.333 0 23.637-14.059 43.99-34.27 53.155l-0.367 0.149z"></path>
</svg>
