<!-- Generated by IcoMoon.io -->
<svg version="1.1" xmlns="http://www.w3.org/2000/svg" width="280" height="280" viewBox="0 0 280 280">
<title>clipboard-blank</title>
<path d="M198.333 46.667h-11.667c0-12.887-10.447-23.333-23.333-23.333v0h-46.667c-12.887 0-23.333 10.447-23.333 23.333v0h-11.667c-19.33 0-35 15.67-35 35v0 140c0 19.33 15.67 35 35 35v0h116.667c19.33 0 35-15.67 35-35v0-140c0-19.33-15.67-35-35-35v0zM116.667 46.667h46.667v23.333h-46.667v-23.333zM210 221.667c0 6.443-5.223 11.667-11.667 11.667v0h-116.667c-6.443 0-11.667-5.223-11.667-11.667v0-140c0-6.443 5.223-11.667 11.667-11.667v0h11.667c0 12.887 10.447 23.333 23.333 23.333v0h46.667c12.887 0 23.333-10.447 23.333-23.333v0h11.667c6.443 0 11.667 5.223 11.667 11.667v0z"></path>
</svg>
