<!-- Generated by IcoMoon.io -->
<svg version="1.1" xmlns="http://www.w3.org/2000/svg" width="280" height="280" viewBox="0 0 280 280">
<title>cloud-meatball</title>
<path d="M169.167 185.733h-8.983l4.55-7.817c0.979-1.674 1.557-3.686 1.557-5.833 0-6.465-5.241-11.707-11.707-11.707-4.318 0-8.091 2.338-10.12 5.818l-0.030 0.056-4.433 7.817-4.433-7.817c-2.059-3.535-5.832-5.873-10.15-5.873-6.465 0-11.707 5.241-11.707 11.707 0 2.147 0.578 4.159 1.587 5.889l-0.030-0.056 4.55 7.817h-8.983c-6.443 0-11.667 5.223-11.667 11.667s5.223 11.667 11.667 11.667v0h8.983l-4.55 7.7c-0.979 1.674-1.557 3.686-1.557 5.833 0 6.465 5.241 11.707 11.707 11.707 4.318 0 8.091-2.338 10.12-5.818l0.030-0.056 4.433-7.7 4.433 7.7c2.059 3.535 5.832 5.873 10.15 5.873 6.465 0 11.707-5.241 11.707-11.707 0-2.147-0.578-4.159-1.587-5.889l0.030 0.056-4.55-7.7h8.983c6.443 0 11.667-5.223 11.667-11.667s-5.223-11.667-11.667-11.667v0zM214.9 94.85c-12.896-29.156-41.569-49.132-74.906-49.132-41.324 0-75.479 30.693-80.913 70.526l-0.047 0.424c-20.642 5.114-35.701 23.478-35.701 45.36 0 0.131 0.001 0.262 0.002 0.393v-0.020c0.090 22.98 16.776 42.036 38.689 45.81l0.277 0.040h1.867c0.279 0.024 0.605 0.037 0.933 0.037 6.464 0 11.704-5.24 11.704-11.704 0-6.135-4.721-11.168-10.728-11.664l-0.042-0.003c-11.070-1.961-19.369-11.508-19.369-22.994 0-0.119 0.001-0.238 0.003-0.357l-0 0.018c0-12.887 10.447-23.333 23.333-23.333v0c6.443 0 11.667-5.223 11.667-11.667v0c0.072-32.162 26.161-58.207 58.333-58.207 25.446 0 47.086 16.293 55.059 39.015l0.125 0.409c1.412 4.006 4.838 6.967 9.031 7.69l0.069 0.010c16.455 3.069 28.745 17.318 28.745 34.437 0 14.462-8.771 26.875-21.284 32.21l-0.229 0.087c-4.835 1.497-8.287 5.929-8.287 11.166 0 6.443 5.223 11.667 11.667 11.667 1.916 0 3.724-0.462 5.319-1.28l-0.066 0.031c21.403-8.962 36.166-29.736 36.166-53.957 0-26.182-17.249-48.335-41.002-55.716l-0.413-0.111z"></path>
</svg>
