<!-- Generated by IcoMoon.io -->
<svg version="1.1" xmlns="http://www.w3.org/2000/svg" width="280" height="280" viewBox="0 0 280 280">
<title>cloud-check</title>
<path d="M166.717 165.55l-38.383 38.383-15.050-15.050c-2.114-2.131-5.045-3.451-8.283-3.451s-6.169 1.32-8.283 3.45l-0.001 0.001c-2.097 2.109-3.393 5.016-3.393 8.225s1.296 6.116 3.393 8.226l23.333 23.333c2.114 2.131 5.045 3.451 8.283 3.451s6.169-1.32 8.283-3.45l46.668-46.668c2.097-2.109 3.393-5.016 3.393-8.225s-1.296-6.116-3.393-8.226l0.001 0.001c-2.114-2.131-5.045-3.451-8.283-3.451s-6.169 1.32-8.283 3.45l-0.001 0.001zM214.9 97.067c-12.914-29.113-41.564-49.051-74.871-49.051-41.419 0-75.637 30.835-80.95 70.801l-0.045 0.417c-20.504 5.213-35.429 23.51-35.429 45.293 0 20.154 12.776 37.324 30.671 43.853l0.324 0.103c1.572 0.842 3.439 1.336 5.421 1.336 6.443 0 11.667-5.223 11.667-11.667 0-5.72-4.117-10.479-9.549-11.475l-0.072-0.011c-9.059-3.343-15.401-11.903-15.401-21.944 0-0.078 0-0.157 0.001-0.235v0.012c0-12.887 10.447-23.333 23.333-23.333v0c6.443 0 11.667-5.223 11.667-11.667v0c0.137-32.112 26.201-58.092 58.333-58.092 25.446 0 47.087 16.293 55.059 39.016l0.125 0.409c1.412 4.006 4.838 6.967 9.031 7.69l0.069 0.010c16.336 3.169 28.501 17.36 28.501 34.391 0 16.021-10.764 29.527-25.454 33.682l-0.247 0.060c-5.836 0.75-10.299 5.687-10.299 11.667 0 6.494 5.264 11.758 11.758 11.758 0.514 0 1.020-0.033 1.517-0.097l-0.059 0.006h2.917c25.198-6.82 43.431-29.48 43.431-56.398 0-26.193-17.264-48.354-41.034-55.725l-0.413-0.11z"></path>
</svg>
