<!-- Generated by IcoMoon.io -->
<svg version="1.1" xmlns="http://www.w3.org/2000/svg" width="280" height="280" viewBox="0 0 280 280">
<title>comment-image</title>
<path d="M140 23.333c-64.397 0.048-116.582 52.263-116.582 116.667 0 12.112 1.846 23.793 5.271 34.777l-0.222-0.826c-0.032 0.175-0.051 0.377-0.051 0.583s0.018 0.408 0.054 0.604l-0.003-0.021c4.711 14.893 11.844 27.793 21.039 38.928l-0.156-0.194-23.333 23.333c-2.078 2.105-3.362 5-3.362 8.194 0 1.633 0.336 3.187 0.941 4.598l-0.029-0.076c1.891 4.044 5.925 6.796 10.601 6.796 0.293 0 0.583-0.011 0.87-0.032l-0.038 0.002h105c50.951-0.039 94.255-32.733 110.118-78.281l0.248-0.819v-0.933c3.886-10.903 6.184-23.481 6.3-36.58l0-0.053c0-64.433-52.233-116.667-116.667-116.667v0zM140 233.333h-76.883l3.5-3.383 98.117-98.233c2.103-2.062 4.986-3.335 8.167-3.335s6.064 1.273 8.169 3.337l-0.002-0.002 42.233 42 2.683 2.567c-14.531 33.804-47.543 57.046-85.983 57.050h-0.001zM52.967 173.483l18.433-18.433c2.109-2.097 5.016-3.393 8.225-3.393s6.116 1.296 8.226 3.393l10.149 10.149-31.733 31.967c-5.362-6.797-9.849-14.626-13.093-23.071l-0.207-0.612zM232.75 150.15l-35-35c-6.332-6.325-15.076-10.236-24.733-10.236s-18.401 3.911-24.734 10.236l-33.716 33.716-10.267-10.15c-6.326-6.29-15.047-10.178-24.675-10.178s-18.349 3.888-24.677 10.18l0.002-0.002-8.283 7.817c-0.056-0.976-0.087-2.118-0.087-3.267s0.032-2.291 0.094-3.424l-0.007 0.158c0-51.547 41.787-93.333 93.333-93.333s93.333 41.787 93.333 93.333v0c0.083 1.498 0.13 3.252 0.13 5.017s-0.047 3.518-0.141 5.26l0.010-0.243z"></path>
</svg>
