<!-- Generated by IcoMoon.io -->
<svg version="1.1" xmlns="http://www.w3.org/2000/svg" width="280" height="280" viewBox="0 0 280 280">
<title>comment-message</title>
<path d="M140 23.333c-64.433 0-116.667 52.233-116.667 116.667v0c-0.001 0.13-0.001 0.283-0.001 0.437 0 27.977 9.957 53.629 26.521 73.604l-0.154-0.191-23.333 23.333c-2.078 2.105-3.362 5-3.362 8.194 0 1.633 0.336 3.187 0.941 4.598l-0.029-0.076c1.895 4.034 5.923 6.777 10.592 6.777 0.173 0 0.344-0.004 0.515-0.011l-0.024 0.001h105c64.433 0 116.667-52.233 116.667-116.667s-52.233-116.667-116.667-116.667v0zM140 233.333h-76.883l10.85-10.85c2.097-2.109 3.393-5.016 3.393-8.225s-1.296-6.116-3.393-8.226l0.001 0.001c-16.912-16.894-27.373-40.242-27.373-66.033 0-51.547 41.787-93.333 93.333-93.333s93.333 41.787 93.333 93.333c0 51.521-41.745 93.292-93.256 93.333h-0.004zM198.333 128.333h-116.667c-6.443 0-11.667 5.223-11.667 11.667s5.223 11.667 11.667 11.667v0h116.667c6.443 0 11.667-5.223 11.667-11.667s-5.223-11.667-11.667-11.667v0zM175 175h-70c-6.443 0-11.667 5.223-11.667 11.667s5.223 11.667 11.667 11.667v0h70c6.443 0 11.667-5.223 11.667-11.667s-5.223-11.667-11.667-11.667v0zM105 105h70c6.443 0 11.667-5.223 11.667-11.667s-5.223-11.667-11.667-11.667v0h-70c-6.443 0-11.667 5.223-11.667 11.667s5.223 11.667 11.667 11.667v0z"></path>
</svg>
