<!-- Generated by IcoMoon.io -->
<svg version="1.1" xmlns="http://www.w3.org/2000/svg" width="280" height="280" viewBox="0 0 280 280">
<title>comment-alt-image</title>
<path d="M221.667 23.333h-163.333c-19.33 0-35 15.67-35 35v0 116.667c0 19.33 15.67 35 35 35v0h135.217l43.167 43.283c2.108 2.091 5.011 3.384 8.216 3.384 0.024 0 0.047 0 0.071-0h-0.004c0.075 0.002 0.164 0.003 0.252 0.003 1.519 0 2.957-0.345 4.24-0.962l-0.059 0.025c4.263-1.785 7.209-5.912 7.233-10.73v-186.67c0-19.33-15.67-35-35-35v0zM67.317 186.667h-8.983c-6.443 0-11.667-5.223-11.667-11.667v0-4.9l38.5-38.383c2.109-2.097 5.016-3.393 8.225-3.393s6.116 1.296 8.226 3.393l10.149 10.149zM233.333 216.883l-26.717-26.833c-2.108-2.091-5.011-3.384-8.216-3.384-0.024 0-0.047 0-0.071 0h-98.113l78.283-78.283c2.103-2.062 4.986-3.335 8.167-3.335s6.064 1.273 8.169 3.337l-0.002-0.002 38.5 38.383zM233.333 113.867l-21.933-21.817c-6.332-6.325-15.076-10.236-24.733-10.236s-18.401 3.911-24.734 10.236l0-0-33.6 33.483-10.267-10.15c-6.406-6.161-15.126-9.956-24.733-9.956s-18.328 3.795-24.745 9.967l0.011-0.011-21.933 21.817v-78.867c0-6.443 5.223-11.667 11.667-11.667v0h163.333c6.443 0 11.667 5.223 11.667 11.667v0z"></path>
</svg>
