<!-- Generated by IcoMoon.io -->
<svg version="1.1" xmlns="http://www.w3.org/2000/svg" width="280" height="280" viewBox="0 0 280 280">
<title>compass</title>
<path d="M140 23.333c-64.433 0-116.667 52.233-116.667 116.667s52.233 116.667 116.667 116.667c64.433 0 116.667-52.233 116.667-116.667v0c0-64.433-52.233-116.667-116.667-116.667v0zM151.667 232.517v-10.85c0-6.443-5.223-11.667-11.667-11.667s-11.667 5.223-11.667 11.667v0 10.85c-42.25-5.51-75.34-38.6-80.8-80.379l-0.050-0.471h10.85c6.443 0 11.667-5.223 11.667-11.667s-5.223-11.667-11.667-11.667v0h-10.85c5.51-42.25 38.6-75.34 80.379-80.8l0.471-0.050v10.85c0 6.443 5.223 11.667 11.667 11.667s11.667-5.223 11.667-11.667v0-10.85c42.25 5.51 75.34 38.6 80.8 80.379l0.050 0.471h-10.85c-6.443 0-11.667 5.223-11.667 11.667s5.223 11.667 11.667 11.667v0h10.85c-5.51 42.25-38.6 75.34-80.379 80.8l-0.471 0.050zM176.633 88.083l-58.333 24.733c-2.729 1.203-4.864 3.338-6.037 5.992l-0.030 0.075-24.733 58.333c-0.599 1.357-0.947 2.94-0.947 4.604 0 3.212 1.298 6.12 3.397 8.23l-0.001-0.001c2.081 2.123 4.964 3.453 8.158 3.5h0.009c0.003 0 0.007 0 0.010 0 1.692 0 3.294-0.387 4.721-1.078l-0.065 0.028 58.333-24.733c2.729-1.203 4.864-3.338 6.037-5.992l0.030-0.075 24.733-58.333c0.58-1.338 0.917-2.897 0.917-4.534 0-6.443-5.223-11.667-11.667-11.667-1.637 0-3.195 0.337-4.609 0.946l0.076-0.029zM147.583 147.583l-26.6 11.667 11.667-26.6 26.6-11.667z"></path>
</svg>
