<!-- Generated by IcoMoon.io -->
<svg version="1.1" xmlns="http://www.w3.org/2000/svg" width="280" height="280" viewBox="0 0 280 280">
<title>copy-alt</title>
<path d="M186.667 233.333h-93.333c-19.33 0-35-15.67-35-35v0-116.667c0-6.443-5.223-11.667-11.667-11.667s-11.667 5.223-11.667 11.667v0 116.667c0 32.217 26.117 58.333 58.333 58.333v0h93.333c6.443 0 11.667-5.223 11.667-11.667s-5.223-11.667-11.667-11.667v0zM245 104.3c-0.136-1.174-0.382-2.24-0.732-3.257l0.032 0.107v-1.050c-0.594-1.255-1.336-2.333-2.222-3.273l0.006 0.006-70-70c-0.934-0.88-2.011-1.622-3.191-2.184l-0.075-0.032h-1.050l-3.733-1.283h-47.367c-19.33 0-35 15.67-35 35v0 116.667c0 19.33 15.67 35 35 35v0h93.333c19.33 0 35-15.67 35-35v0-70s0 0 0-0.7zM175 63.117l30.217 30.217h-18.55c-6.443 0-11.667-5.223-11.667-11.667v0zM221.667 175c0 6.443-5.223 11.667-11.667 11.667v0h-93.333c-6.443 0-11.667-5.223-11.667-11.667v0-116.667c0-6.443 5.223-11.667 11.667-11.667v0h35v35c0 19.33 15.67 35 35 35v0h35z"></path>
</svg>
