<!-- Generated by IcoMoon.io -->
<svg version="1.1" xmlns="http://www.w3.org/2000/svg" width="280" height="280" viewBox="0 0 280 280">
<title>corner-down-left</title>
<path d="M218.050 23.333c-6.443 0-11.667 5.223-11.667 11.667v0 120.983c0 12.887-10.447 23.333-23.333 23.333v0h-93.333l34.067-34.067c1.901-2.069 3.066-4.84 3.066-7.883 0-6.443-5.223-11.667-11.667-11.667-2.811 0-5.389 0.994-7.403 2.65l0.020-0.016-54.017 54.367c-1.033 1.095-1.894 2.367-2.531 3.763l-0.036 0.087c-0.553 1.311-0.875 2.834-0.875 4.433s0.322 3.123 0.904 4.51l-0.029-0.077c0.623 1.499 1.491 2.779 2.566 3.85l54.017 54.017c2.096 2.080 4.98 3.37 8.164 3.383h0.003c0.020 0 0.044 0 0.068 0 3.205 0 6.108-1.292 8.217-3.384l-0.001 0.001c2.131-2.114 3.451-5.045 3.451-8.283s-1.32-6.169-3.45-8.283l-34.068-34.068h93.333c25.773 0 46.667-20.893 46.667-46.667v0-120.983c0-0.003 0-0.006 0-0.009 0-6.443-5.223-11.667-11.667-11.667-0.164 0-0.328 0.003-0.49 0.010l0.023-0.001z"></path>
</svg>
