<!-- Generated by IcoMoon.io -->
<svg version="1.1" xmlns="http://www.w3.org/2000/svg" width="280" height="280" viewBox="0 0 280 280">
<title>desert</title>
<path d="M210 23.333c-25.773 0-46.667 20.893-46.667 46.667s20.893 46.667 46.667 46.667c25.773 0 46.667-20.893 46.667-46.667v0c0-25.773-20.893-46.667-46.667-46.667v0zM210 93.333c-12.887 0-23.333-10.447-23.333-23.333s10.447-23.333 23.333-23.333c12.887 0 23.333 10.447 23.333 23.333v0c0 12.887-10.447 23.333-23.333 23.333v0zM175 233.333h-23.333v-23.333c0-6.443-5.223-11.667-11.667-11.667s-11.667 5.223-11.667 11.667v0 23.333h-23.333v-39.433l40.25-20.183c3.826-1.959 6.403-5.869 6.417-10.381v-46.669c0-6.443-5.223-11.667-11.667-11.667s-11.667 5.223-11.667 11.667v0 39.433l-23.333 11.667v-74.433c0-6.443-5.223-11.667-11.667-11.667s-11.667 5.223-11.667 11.667v0 97.767l-23.333-11.667v-27.767c0-6.443-5.223-11.667-11.667-11.667s-11.667 5.223-11.667 11.667v0 35c0.014 4.515 2.591 8.425 6.351 10.353l0.066 0.031 40.25 20.183v16.1h-46.667c-6.443 0-11.667 5.223-11.667 11.667s5.223 11.667 11.667 11.667v0h140c6.443 0 11.667-5.223 11.667-11.667s-5.223-11.667-11.667-11.667v0z"></path>
</svg>
