<!-- Generated by IcoMoon.io -->
<svg version="1.1" xmlns="http://www.w3.org/2000/svg" width="280" height="280" viewBox="0 0 280 280">
<title>desktop-alt-slash</title>
<path d="M253.283 236.717l-210-210c-2.12-2.12-5.048-3.431-8.283-3.431-6.47 0-11.714 5.245-11.714 11.714 0 3.235 1.311 6.164 3.431 8.283v0l11.667 11.667c-2.135 4.394-3.383 9.557-3.383 15.013 0 0.013 0 0.026 0 0.039v-0.002 93.333c0 19.33 15.67 35 35 35v0h35v23.333h-35c-6.443 0-11.667 5.223-11.667 11.667s5.223 11.667 11.667 11.667v0h140c4.972-0.054 9.193-3.209 10.824-7.619l0.026-0.081 15.867 15.983c2.114 2.131 5.045 3.451 8.283 3.451s6.169-1.32 8.283-3.45l0.001-0.001c2.131-2.114 3.451-5.045 3.451-8.283s-1.32-6.169-3.45-8.283l-0.001-0.001zM58.333 74.783l53.55 53.55h-53.55zM151.667 221.667h-23.333v-23.333h23.333zM70 175c-6.443 0-11.667-5.223-11.667-11.667v0-11.667h76.883l23.333 23.333zM175 221.667v-23.333h6.883l23.333 23.333zM112.7 58.333h97.3c6.443 0 11.667 5.223 11.667 11.667v0 58.333h-15.633c-6.443 0-11.667 5.223-11.667 11.667s5.223 11.667 11.667 11.667v0h15.633v11.667c0.031 0.193 0.048 0.415 0.048 0.642s-0.018 0.449-0.051 0.666l0.003-0.024c-0.15 0.702-0.236 1.509-0.236 2.335 0 5.618 3.971 10.309 9.26 11.418l0.076 0.013h2.333c0.070 0.002 0.153 0.002 0.235 0.002 5.618 0 10.309-3.971 11.418-9.26l0.013-0.076c0.171-1.263 0.268-2.722 0.268-4.205 0-0.532-0.013-1.061-0.037-1.586l0.003 0.074v-93.333c0-19.33-15.67-35-35-35v0h-97.3c-6.443 0-11.667 5.223-11.667 11.667s5.223 11.667 11.667 11.667v0z"></path>
</svg>
