<!-- Generated by IcoMoon.io -->
<svg version="1.1" xmlns="http://www.w3.org/2000/svg" width="280" height="280" viewBox="0 0 280 280">
<title>envelope-edit</title>
<path d="M163.333 134.283h28.233c0.020 0 0.044 0 0.068 0 3.205 0 6.108-1.292 8.217-3.384l53.432-53.432c2.131-2.114 3.451-5.045 3.451-8.283s-1.32-6.169-3.45-8.283l-28.234-28.234c-2.114-2.131-5.045-3.451-8.283-3.451s-6.169 1.32-8.283 3.45l-53.434 53.434c-2.057 2.154-3.337 5.065-3.383 8.274v28.242c0 6.443 5.223 11.667 11.667 11.667v0zM175 99.283l41.767-41.767 11.667 11.667-41.767 41.767h-11.667zM245 122.617c-6.443 0-11.667 5.223-11.667 11.667v0 81.667c0 6.443-5.223 11.667-11.667 11.667v0h-163.333c-6.443 0-11.667-5.223-11.667-11.667v0-112.117l68.6 68.717c6.349 6.43 15.164 10.412 24.908 10.412s18.559-3.982 24.905-10.408l0.004-0.004c2.062-2.103 3.335-4.986 3.335-8.167s-1.273-6.064-3.337-8.169l0.002 0.002c-2.12-2.167-5.074-3.51-8.342-3.51s-6.222 1.343-8.34 3.508l-0.002 0.002c-2.103 2.062-4.986 3.335-8.167 3.335s-6.064-1.273-8.169-3.337l0.002 0.002-68.95-68.833h53.55c6.443 0 11.667-5.223 11.667-11.667s-5.223-11.667-11.667-11.667v0h-58.333c-19.33 0-35 15.67-35 35v0 116.667c0 19.33 15.67 35 35 35v0h163.333c19.33 0 35-15.67 35-35v0-81.667c0-6.443-5.223-11.667-11.667-11.667v0z"></path>
</svg>
