<!-- Generated by IcoMoon.io -->
<svg version="1.1" xmlns="http://www.w3.org/2000/svg" width="280" height="280" viewBox="0 0 280 280">
<title>envelope-share</title>
<path d="M233.333 163.333c-6.443 0-11.667 5.223-11.667 11.667v0 46.667c0 6.443-5.223 11.667-11.667 11.667v0h-163.333c-6.443 0-11.667-5.223-11.667-11.667v0-111.883l68.6 68.717c6.316 6.266 15.013 10.141 24.615 10.15h0.002c9.843-0.052 18.742-4.054 25.201-10.501l20.066-20.066c2.12-2.12 3.431-5.048 3.431-8.283 0-6.47-5.245-11.714-11.714-11.714-3.235 0-6.164 1.311-8.283 3.431l-20.417 20.417c-2.103 2.062-4.986 3.335-8.167 3.335s-6.064-1.273-8.169-3.337l0.002 0.002-68.717-68.6h65.217c6.443 0 11.667-5.223 11.667-11.667s-5.223-11.667-11.667-11.667v0h-70c-19.33 0-35 15.67-35 35v0 116.667c0 19.33 15.67 35 35 35v0h163.333c19.33 0 35-15.67 35-35v0-46.667c0-6.443-5.223-11.667-11.667-11.667v0zM233.333 93.333c-5.184 0.018-9.966 1.723-13.829 4.594l0.062-0.044-20.417-9.333 22.517-10.267c3.327 2.051 7.343 3.299 11.644 3.383l0.023 0c12.887 0 23.333-10.447 23.333-23.333s-10.447-23.333-23.333-23.333c-12.887 0-23.333 10.447-23.333 23.333v0l-22.167 10.15c-3.574-2.572-8.004-4.167-12.797-4.316l-0.036-0.001c-12.887 0-23.333 10.447-23.333 23.333s10.447 23.333 23.333 23.333v0c0.003 0 0.007 0 0.010 0 3.939 0 7.636-1.039 10.831-2.857l-0.108 0.057 24.5 11.667c1.553 11.515 11.318 20.3 23.135 20.3 12.887 0 23.333-10.447 23.333-23.333s-10.447-23.333-23.333-23.333c-0.012 0-0.025 0-0.037 0h0.002z"></path>
</svg>
