<!-- Generated by IcoMoon.io -->
<svg version="1.1" xmlns="http://www.w3.org/2000/svg" width="280" height="280" viewBox="0 0 280 280">
<title>envelope-star</title>
<path d="M159.133 113.633l-3.383 20.183c-0.155 0.889-0.243 1.912-0.243 2.957 0 6.153 3.073 11.588 7.768 14.854l0.059 0.039c2.775 2.041 6.26 3.267 10.031 3.267 3.090 0 5.987-0.823 8.485-2.261l-0.083 0.044 16.567-9.45 16.8 9.217c2.428 1.413 5.344 2.247 8.455 2.247 3.648 0 7.028-1.147 9.799-3.099l-0.054 0.036c4.614-3.32 7.583-8.674 7.583-14.722 0-1.022-0.085-2.024-0.248-3l0.014 0.106-3.383-20.183 14-14.233c3.19-3.241 5.159-7.691 5.159-12.601 0-8.902-6.474-16.292-14.971-17.718l-0.105-0.014-18.9-2.8-8.517-18.083c-2.852-6.025-8.881-10.118-15.867-10.118s-13.015 4.093-15.821 10.011l-0.045 0.106-8.517 18.083-18.9 2.8c-8.602 1.441-15.076 8.831-15.076 17.733 0 4.91 1.97 9.36 5.162 12.603l-0.002-0.002zM180.483 88.783c5.918-0.921 10.793-4.677 13.254-9.811l0.046-0.106 4.55-9.683 4.55 9.683c2.544 5.236 7.393 9.008 13.192 10.018l0.108 0.016 11.667 1.633-8.517 8.633c-3.177 3.289-5.134 7.774-5.134 12.716 0 1.030 0.085 2.040 0.248 3.024l-0.015-0.107 1.867 11.667-9.217-5.017c-2.42-1.372-5.316-2.181-8.4-2.181s-5.98 0.809-8.486 2.226l0.086-0.045-9.217 5.017 1.867-11.667c0.153-0.882 0.241-1.898 0.241-2.935 0-4.901-1.962-9.343-5.144-12.585l0.003 0.003-8.517-8.75zM245 178.033c-6.443 0-11.667 5.223-11.667 11.667v0 35c0 6.443-5.223 11.667-11.667 11.667v0h-163.333c-6.443 0-11.667-5.223-11.667-11.667v0-111.883l68.6 68.6c6.228 6.339 14.891 10.267 24.472 10.267 0.010 0 0.019 0 0.029 0h3.148c5.994-0.536 10.658-5.535 10.658-11.623 0-0.344-0.015-0.684-0.044-1.021l0.003 0.044c-0.531-5.999-5.532-10.668-11.624-10.668-0.385 0-0.765 0.019-1.141 0.055l0.048-0.004c-0.336 0.036-0.725 0.057-1.119 0.057-3.084 0-5.87-1.273-7.862-3.321l-0.002-0.002-68.717-68.833h41.883c6.443 0 11.667-5.223 11.667-11.667s-5.223-11.667-11.667-11.667v0h-46.667c-19.33 0-35 15.67-35 35v0 116.667c0 19.33 15.67 35 35 35v0h163.333c19.33 0 35-15.67 35-35v0-35c0-6.443-5.223-11.667-11.667-11.667v0z"></path>
</svg>
