<!-- Generated by IcoMoon.io -->
<svg version="1.1" xmlns="http://www.w3.org/2000/svg" width="280" height="280" viewBox="0 0 280 280">
<title>expand-alt</title>
<path d="M114.217 149.217l-67.55 67.667v-18.55c0-6.443-5.223-11.667-11.667-11.667s-11.667 5.223-11.667 11.667v0 46.667c0.020 1.606 0.361 3.127 0.963 4.509l-0.029-0.075c1.209 2.86 3.44 5.091 6.223 6.271l0.077 0.029c1.306 0.572 2.827 0.913 4.426 0.933h46.674c6.443 0 11.667-5.223 11.667-11.667s-5.223-11.667-11.667-11.667v0h-18.55l67.667-67.55c2.12-2.12 3.431-5.048 3.431-8.283 0-6.47-5.245-11.714-11.714-11.714-3.235 0-6.164 1.311-8.283 3.431v0zM255.733 30.567c-1.209-2.86-3.44-5.091-6.223-6.271l-0.077-0.029c-1.306-0.572-2.827-0.913-4.426-0.933h-46.674c-6.443 0-11.667 5.223-11.667 11.667s5.223 11.667 11.667 11.667v0h18.55l-67.667 67.55c-2.131 2.114-3.451 5.045-3.451 8.283s1.32 6.169 3.45 8.283l0.001 0.001c2.114 2.131 5.045 3.451 8.283 3.451s6.169-1.32 8.283-3.45l0.001-0.001 67.55-67.667v18.55c0 6.443 5.223 11.667 11.667 11.667s11.667-5.223 11.667-11.667v0-46.667c-0.020-1.606-0.361-3.127-0.962-4.509l0.029 0.075z"></path>
</svg>
