<!-- Generated by IcoMoon.io -->
<svg version="1.1" xmlns="http://www.w3.org/2000/svg" width="280" height="280" viewBox="0 0 280 280">
<title>file-question</title>
<path d="M146.65 201.717c-2.109-2.097-5.016-3.393-8.225-3.393s-6.116 1.296-8.226 3.393l0.001-0.001c-1.061 1.080-1.926 2.357-2.536 3.77l-0.031 0.080c-0.515 1.316-0.814 2.84-0.814 4.433s0.299 3.117 0.843 4.519l-0.029-0.085c0.672 1.483 1.533 2.755 2.573 3.857l-0.006-0.007c1.045 1.021 2.284 1.848 3.656 2.422l0.077 0.028c1.342 0.587 2.906 0.93 4.549 0.933h0.001c6.418-0.033 11.609-5.244 11.609-11.666 0-1.599-0.322-3.123-0.904-4.51l0.029 0.077c-0.593-1.51-1.465-2.795-2.563-3.846l-0.004-0.004zM233.333 104.3c-0.136-1.174-0.382-2.24-0.732-3.257l0.032 0.107v-1.050c-0.594-1.255-1.336-2.333-2.222-3.273l0.006 0.006-70-70c-0.934-0.88-2.011-1.622-3.191-2.184l-0.075-0.032h-1.050c-1.109-0.647-2.411-1.101-3.799-1.278l-0.051-0.005h-70.583c-19.33 0-35 15.67-35 35v0 163.333c0 19.33 15.67 35 35 35v0h116.667c19.33 0 35-15.67 35-35v0-116.667s0 0 0-0.7zM163.333 63.117l30.217 30.217h-18.55c-6.443 0-11.667-5.223-11.667-11.667v0zM210 221.667c0 6.443-5.223 11.667-11.667 11.667v0h-116.667c-6.443 0-11.667-5.223-11.667-11.667v0-163.333c0-6.443 5.223-11.667 11.667-11.667v0h58.333v35c0 19.33 15.67 35 35 35v0h35zM138.483 116.667c-0.007 0-0.014 0-0.022 0-12.887 0-24.147 6.964-30.221 17.335l-0.089 0.165c-1.142 1.772-1.821 3.936-1.821 6.259 0 6.443 5.223 11.667 11.667 11.667 4.466 0 8.346-2.51 10.307-6.196l0.031-0.063c2.055-3.512 5.808-5.834 10.104-5.834 0.016 0 0.033 0 0.049 0h-0.002c6.443 0 11.667 5.223 11.667 11.667s-5.223 11.667-11.667 11.667v0c-6.443 0-11.667 5.223-11.667 11.667s5.223 11.667 11.667 11.667v0c19.33 0 35-15.67 35-35s-15.67-35-35-35v0z"></path>
</svg>
