<!-- Generated by IcoMoon.io -->
<svg version="1.1" xmlns="http://www.w3.org/2000/svg" width="280" height="280" viewBox="0 0 280 280">
<title>file-question-alt</title>
<path d="M152.483 140h-58.333c-6.443 0-11.667 5.223-11.667 11.667s5.223 11.667 11.667 11.667v0h58.333c6.443 0 11.667-5.223 11.667-11.667s-5.223-11.667-11.667-11.667v0zM164.15 233.333h-93.333c-6.443 0-11.667-5.223-11.667-11.667v0-163.333c0-6.443 5.223-11.667 11.667-11.667v0h58.333v35c0 19.33 15.67 35 35 35v0h35v11.667c0 6.443 5.223 11.667 11.667 11.667s11.667-5.223 11.667-11.667v0-23.333c0.024-0.105 0.038-0.226 0.038-0.35s-0.014-0.245-0.040-0.361l0.002 0.011c-0.108-1.162-0.398-2.23-0.842-3.213l0.025 0.063v-1.050c-0.594-1.255-1.336-2.333-2.223-3.273l0.006 0.006-70-70c-0.959-0.902-2.078-1.648-3.308-2.188l-0.075-0.029s-0.583 0-0.933 0c-1.075-0.633-2.335-1.085-3.679-1.277l-0.055-0.006h-70c-19.33 0-35 15.67-35 35v0 163.333c0 19.33 15.67 35 35 35v0h93.333c6.443 0 11.667-5.223 11.667-11.667s-5.223-11.667-11.667-11.667v0zM152.483 63.117l30.1 30.217h-18.433c-6.443 0-11.667-5.223-11.667-11.667v0zM217.467 236.717c-0.526-0.477-1.096-0.937-1.693-1.362l-0.057-0.038c-1.203-0.793-2.609-1.399-4.116-1.734l-0.084-0.016c-0.689-0.144-1.48-0.227-2.291-0.227-3.202 0-6.102 1.29-8.21 3.378l0.001-0.001c-2.131 2.114-3.451 5.045-3.451 8.283s1.32 6.169 3.45 8.283l0.001 0.001c2.096 2.080 4.98 3.37 8.164 3.383h0.003c0.017 0 0.038 0 0.059 0 6.443 0 11.667-5.223 11.667-11.667 0-1.599-0.322-3.123-0.904-4.51l0.029 0.077c-0.672-1.483-1.533-2.755-2.573-3.857l0.006 0.007zM152.483 186.667h-58.333c-6.443 0-11.667 5.223-11.667 11.667s5.223 11.667 11.667 11.667v0h58.333c6.443 0 11.667-5.223 11.667-11.667s-5.223-11.667-11.667-11.667v0zM209.183 151.667c-0.007 0-0.014 0-0.022 0-12.887 0-24.147 6.964-30.221 17.335l-0.089 0.165c-0.979 1.674-1.557 3.686-1.557 5.833 0 6.465 5.241 11.707 11.707 11.707 4.318 0 8.091-2.338 10.12-5.818l0.030-0.056c2.055-3.512 5.808-5.833 10.104-5.833 6.443 0 11.667 5.223 11.667 11.667s-5.223 11.667-11.667 11.667c-0.025 0-0.049 0-0.074-0h0.004c-6.443 0-11.667 5.223-11.667 11.667s5.223 11.667 11.667 11.667v0c19.33 0 35-15.67 35-35s-15.67-35-35-35v0zM94.15 116.667h11.667c6.443 0 11.667-5.223 11.667-11.667s-5.223-11.667-11.667-11.667v0h-11.667c-6.443 0-11.667 5.223-11.667 11.667s5.223 11.667 11.667 11.667v0z"></path>
</svg>
