<!-- Generated by IcoMoon.io -->
<svg version="1.1" xmlns="http://www.w3.org/2000/svg" width="280" height="280" viewBox="0 0 280 280">
<title>flask-potion</title>
<path d="M220.85 136.15c0.022-0.175 0.035-0.378 0.035-0.583s-0.013-0.408-0.037-0.607l0.002 0.024c-8.884-20.825-25.082-37.099-45.292-45.868l-0.558-0.216v-42.233h11.667c6.443 0 11.667-5.223 11.667-11.667s-5.223-11.667-11.667-11.667v0h-93.333c-6.443 0-11.667 5.223-11.667 11.667s5.223 11.667 11.667 11.667v0h11.667v42.233c-20.673 9.21-36.726 25.679-45.173 46.094l-0.21 0.573c-0.022 0.175-0.035 0.378-0.035 0.583s0.013 0.408 0.037 0.607l-0.002-0.024c-4.205 9.887-6.65 21.388-6.65 33.459 0 48.325 39.175 87.5 87.5 87.5s87.5-39.175 87.5-87.5c0-12.071-2.445-23.572-6.865-34.034l0.215 0.574zM120.283 108.033c4.71-1.57 8.046-5.936 8.050-11.083v-50.284h23.333v50.283c0.004 5.147 3.34 9.514 7.968 11.059l0.082 0.024c11.969 3.951 22.023 10.993 29.544 20.187l0.089 0.113h-98.7c7.61-9.307 17.664-16.349 29.186-20.171l0.447-0.129zM140 233.333c-35.412-0.066-64.1-28.755-64.167-64.16v-0.006c0.021-6.246 0.957-12.265 2.682-17.941l-0.115 0.441h123.2c1.61 5.235 2.546 11.254 2.567 17.489v0.011c-0.066 35.412-28.755 64.1-64.16 64.167h-0.006zM163.333 186.667c-6.443 0-11.667 5.223-11.667 11.667s5.223 11.667 11.667 11.667c6.443 0 11.667-5.223 11.667-11.667v0c0-6.443-5.223-11.667-11.667-11.667v0zM116.667 175c-6.443 0-11.667 5.223-11.667 11.667s5.223 11.667 11.667 11.667c6.443 0 11.667-5.223 11.667-11.667v0c0-6.443-5.223-11.667-11.667-11.667v0z"></path>
</svg>
