<!-- Generated by IcoMoon.io -->
<svg version="1.1" xmlns="http://www.w3.org/2000/svg" width="280" height="280" viewBox="0 0 280 280">
<title>flip-v-alt</title>
<path d="M57.633 142.8c-0.816-0.204-1.752-0.321-2.717-0.321-5.565 0-10.22 3.896-11.386 9.11l-0.014 0.078-5.717 22.633c-0.156 0.716-0.246 1.539-0.246 2.383 0 5.538 3.859 10.175 9.034 11.368l0.078 0.015c0.839 0.216 1.802 0.339 2.794 0.339 5.445 0 10.019-3.731 11.306-8.775l0.017-0.081 5.717-22.633c0.204-0.816 0.321-1.752 0.321-2.717 0-5.565-3.896-10.22-9.11-11.386l-0.078-0.014zM255.967 230.533l-46.667-186.667c-1.268-5.016-5.665-8.698-10.948-8.866l-0.018-0.001h-35c-6.443 0-11.667 5.223-11.667 11.667v0 186.667c0 6.443 5.223 11.667 11.667 11.667v0h81.667c0.019 0 0.041 0 0.063 0 3.7 0 6.998-1.723 9.136-4.41l0.018-0.024c1.697-2.013 2.729-4.635 2.729-7.498 0-0.899-0.101-1.773-0.294-2.613l0.015 0.078zM175 221.667v-163.333h14.233l40.833 163.333zM74.667 74.9c-0.871-0.233-1.872-0.367-2.903-0.367-5.455 0-10.036 3.744-11.313 8.803l-0.017 0.081-5.6 22.633c-0.216 0.839-0.339 1.802-0.339 2.794 0 5.445 3.731 10.019 8.775 11.306l0.081 0.017h2.8c0.101 0.003 0.22 0.005 0.34 0.005 5.451 0 10.029-3.738 11.31-8.791l0.017-0.081 5.6-22.633c0.16-0.724 0.251-1.556 0.251-2.408 0-5.498-3.803-10.108-8.922-11.342l-0.080-0.016zM87.617 58.333h23.333c6.443 0 11.667-5.223 11.667-11.667s-5.223-11.667-11.667-11.667v0h-23.333c-6.443 0-11.667 5.223-11.667 11.667s5.223 11.667 11.667 11.667v0zM49.467 221.667c0.053-0.42 0.084-0.907 0.084-1.4 0-6.489-5.261-11.75-11.75-11.75-5.996 0-10.943 4.491-11.661 10.293l-0.006 0.057-2.8 11.667c-0.228 0.861-0.358 1.85-0.358 2.87 0 2.712 0.925 5.208 2.478 7.189l-0.019-0.025c2.156 2.715 5.456 4.44 9.159 4.44 0.143 0 0.286-0.002 0.428-0.008l-0.021 0.001h11.667c0.42 0.053 0.907 0.084 1.4 0.084 6.489 0 11.75-5.261 11.75-11.75 0-5.996-4.491-10.943-10.293-11.661l-0.057-0.006zM116.667 75.95c-6.443 0-11.667 5.223-11.667 11.667v0 23.333c0 6.443 5.223 11.667 11.667 11.667s11.667-5.223 11.667-11.667v0-23.333c0-6.443-5.223-11.667-11.667-11.667v0zM116.667 145.95c-6.443 0-11.667 5.223-11.667 11.667v0 23.333c0 6.443 5.223 11.667 11.667 11.667s11.667-5.223 11.667-11.667v0-23.333c0-6.443-5.223-11.667-11.667-11.667v0zM116.667 215.95c-4.247 0.001-7.964 2.271-10.004 5.664l-0.029 0.053h-13.3c-6.443 0-11.667 5.223-11.667 11.667s5.223 11.667 11.667 11.667v0h23.333c6.443 0 11.667-5.223 11.667-11.667v0-5.717c0-6.443-5.223-11.667-11.667-11.667v0z"></path>
</svg>
