<!-- Generated by IcoMoon.io -->
<svg version="1.1" xmlns="http://www.w3.org/2000/svg" width="280" height="280" viewBox="0 0 280 280">
<title>folder-download</title>
<path d="M155.050 160.883l-3.383 3.5v-30.217c0-6.443-5.223-11.667-11.667-11.667s-11.667 5.223-11.667 11.667v0 30.217l-3.383-3.5c-2.12-2.12-5.048-3.431-8.283-3.431-6.47 0-11.714 5.245-11.714 11.714 0 3.235 1.311 6.164 3.431 8.283l23.333 23.333c1.077 1.032 2.356 1.862 3.771 2.422l0.079 0.028c1.305 0.591 2.829 0.936 4.433 0.936s3.129-0.345 4.502-0.964l-0.069 0.028c1.494-0.588 2.773-1.418 3.854-2.454l-0.004 0.004 23.333-23.333c2.12-2.12 3.431-5.048 3.431-8.283 0-6.47-5.245-11.714-11.714-11.714-3.235 0-6.164 1.311-8.283 3.431v0zM221.667 64.167h-73.267l-3.733-11.667c-4.95-13.71-17.85-23.334-32.998-23.334-0.048 0-0.095 0-0.142 0h-53.193c-19.33 0-35 15.67-35 35v0 151.667c0 19.33 15.67 35 35 35v0h163.333c19.33 0 35-15.67 35-35v0-116.667c0-19.33-15.67-35-35-35v0zM233.333 215.833c0 6.443-5.223 11.667-11.667 11.667v0h-163.333c-6.443 0-11.667-5.223-11.667-11.667v0-151.667c0-6.443 5.223-11.667 11.667-11.667v0h53.2c0.009 0 0.019 0 0.030 0 5.107 0 9.448 3.282 11.029 7.851l0.025 0.082 6.3 19.133c1.605 4.652 5.946 7.933 11.053 7.933 0.011 0 0.021 0 0.032 0h81.665c6.443 0 11.667 5.223 11.667 11.667v0z"></path>
</svg>
