<!-- Generated by IcoMoon.io -->
<svg version="1.1" xmlns="http://www.w3.org/2000/svg" width="280" height="280" viewBox="0 0 280 280">
<title>github-alt</title>
<path d="M117.487 239.201c-0.001-6.443-5.224-11.666-11.668-11.666-0.747 0-1.477 0.070-2.185 0.204l0.073-0.011c-15.273 2.803-34.556 3.224-39.683-11.177-4.657-11.423-12-20.934-21.273-28.059l-0.157-0.116c-0.741-0.406-1.376-0.829-1.972-1.299l0.030 0.023c-1.711-4.424-5.921-7.509-10.855-7.531h-0.060c-0.001 0-0.003 0-0.004 0-6.423 0-11.633 5.191-11.662 11.607v0.003c-0.046 9.513 9.462 15.609 13.319 17.671 4.432 4.452 8.060 9.708 10.647 15.529l0.131 0.33c4.25 11.94 16.6 30.055 52.101 27.72 0.012 0.41 0.023 0.798 0.028 1.151l0.051 3.122c0 6.443 5.223 11.667 11.667 11.667s11.667-5.223 11.667-11.667v0l-0.057-3.714c-0.057-2.211-0.137-5.412-0.137-13.786zM241.935 62.731c0.37-1.458 0.735-3.076 1.054-4.899 0.483-3.161 0.759-6.808 0.759-10.519 0-10.063-2.029-19.653-5.702-28.381l0.18 0.482c-1.301-3.203-3.887-5.653-7.101-6.743l-0.082-0.024c-4.153-1.401-19.488-4.159-48.814 14.583-11.134-2.734-23.916-4.303-37.065-4.303s-25.931 1.568-38.17 4.528l1.105-0.226c-29.207-18.467-44.462-15.961-48.575-14.64-3.382 1.072-6.044 3.553-7.338 6.735l-0.028 0.078c-3.512 8.284-5.553 17.917-5.553 28.027 0 3.929 0.308 7.786 0.902 11.548l-0.054-0.416c0.285 1.492 0.593 2.871 0.912 4.136-9.146 12.077-14.65 27.353-14.65 43.914 0 0.267 0.001 0.533 0.004 0.8l-0-0.040c-0.002 0.256-0.004 0.559-0.004 0.862 0 3.484 0.181 6.926 0.535 10.317l-0.036-0.424c3.897 53.696 38.897 69.818 63.284 75.355-0.507 1.458-0.968 3.019-1.378 4.671-0.211 0.829-0.331 1.781-0.331 2.761 0 6.445 5.225 11.669 11.669 11.669 5.443 0 10.015-3.726 11.306-8.767l0.018-0.081c0.79-4.041 2.728-7.539 5.456-10.241l0.002-0.002c2.445-2.148 3.98-5.281 3.98-8.773 0-5.978-4.498-10.905-10.294-11.581l-0.054-0.005c-40.298-4.603-57.792-21.021-60.424-57.148-0.253-2.344-0.397-5.064-0.397-7.817 0-0.28 0.001-0.56 0.004-0.839l-0 0.043c-0.004-0.241-0.007-0.526-0.007-0.81 0-11.698 4.044-22.453 10.811-30.94l-0.077 0.1c0.765-0.998 1.513-1.878 2.302-2.719l-0.018 0.019c1.841-2.054 2.967-4.782 2.967-7.773 0-1.503-0.284-2.938-0.801-4.257l0.027 0.079c-0.708-1.818-1.334-3.992-1.771-6.233l-0.040-0.249c-0.342-2.148-0.538-4.624-0.538-7.147 0-4.155 0.531-8.186 1.528-12.030l-0.073 0.332c10.759 3.092 20.142 7.804 28.413 13.931l-0.238-0.168c1.834 1.236 4.093 1.974 6.524 1.974 1.115 0 2.193-0.155 3.215-0.444l-0.083 0.020c10.791-3.046 23.185-4.796 35.987-4.796 12.818 0 25.225 1.755 36.996 5.038l-0.966-0.23c0.93 0.265 1.999 0.418 3.103 0.418 2.459 0 4.742-0.757 6.627-2.050l-0.040 0.026c8-5.986 17.341-10.735 27.436-13.729l0.625-0.159c0.947 3.53 1.491 7.582 1.491 11.762 0 2.346-0.171 4.652-0.502 6.906l0.031-0.256c-0.476 2.69-1.16 5.070-2.060 7.34l0.088-0.253c-0.49 1.24-0.774 2.676-0.774 4.178 0 2.991 1.126 5.719 2.977 7.784l-0.010-0.011c0.9 1.014 1.8 2.108 2.609 3.133 6.564 8.151 10.536 18.631 10.536 30.039 0 0.414-0.005 0.827-0.016 1.239l0.001-0.061c0.001 0.17 0.002 0.372 0.002 0.573 0 2.992-0.16 5.948-0.472 8.857l0.031-0.361c-2.569 35.649-20.132 52.078-60.618 56.693-5.85 0.686-10.347 5.614-10.347 11.592 0 3.494 1.536 6.63 3.97 8.768l0.013 0.011c2.813 2.773 4.766 6.413 5.426 10.486l0.014 0.109c0.69 2.624 1.086 5.636 1.086 8.74 0 0.288-0.003 0.575-0.010 0.861l0.001-0.043v27.23c-0.114 7.553-0.114 13.216-0.114 15.814 0 6.443 5.223 11.667 11.667 11.667s11.667-5.223 11.667-11.667v0c0-2.529 0-8.078 0.114-15.632v-27.412c0.006-0.308 0.010-0.672 0.010-1.037 0-5.069-0.662-9.984-1.905-14.662l0.090 0.398c-0.449-1.991-0.915-3.615-1.46-5.203l0.104 0.349c36.265-6.19 63.524-37.383 63.529-74.944v-0.001c0.343-3.131 0.538-6.762 0.538-10.44 0-0.263-0.001-0.526-0.003-0.789l0 0.040c0.006-0.342 0.009-0.745 0.009-1.149 0-16.436-5.544-31.577-14.864-43.656l0.123 0.166z"></path>
</svg>
