<!-- Generated by IcoMoon.io -->
<svg version="1.1" xmlns="http://www.w3.org/2000/svg" width="280" height="280" viewBox="0 0 280 280">
<title>glass</title>
<path d="M230.417 27.183c-2.144-2.369-5.229-3.85-8.661-3.85-0.031 0-0.062 0-0.094 0h-163.329c-0.027-0-0.058-0-0.089-0-3.432 0-6.517 1.482-8.652 3.84l-0.009 0.010c-1.855 2.057-2.989 4.796-2.989 7.798 0 0.459 0.027 0.911 0.078 1.356l-0.005-0.054 21 189.233c2.005 17.602 16.814 31.151 34.788 31.151 0.075 0 0.149-0 0.224-0.001h74.889c0.063 0.001 0.138 0.001 0.212 0.001 17.974 0 32.783-13.548 34.773-30.99l0.015-0.161 20.767-189.233c0.046-0.39 0.073-0.843 0.073-1.302 0-3.003-1.135-5.741-2.999-7.809l0.009 0.010zM189 222.95c-0.668 5.867-5.605 10.384-11.596 10.384-0.025 0-0.050 0-0.075-0h-74.779c-0.021 0-0.046 0-0.071 0-5.991 0-10.928-4.516-11.591-10.33l-0.005-0.054-11.783-106.283h121.8zM203.467 93.333h-126.933l-5.133-46.667h137.2z"></path>
</svg>
