<!-- Generated by IcoMoon.io -->
<svg version="1.1" xmlns="http://www.w3.org/2000/svg" width="280" height="280" viewBox="0 0 280 280">
<title>google</title>
<path d="M263.693 116.712c-1.019-5.49-5.769-9.592-11.478-9.593h-109.882c-0.001 0-0.002 0-0.003 0-6.442 0-11.664 5.222-11.664 11.664 0 0.001 0 0.002 0 0.003v-0 45.128c0 0.001 0 0.002 0 0.003 0 6.442 5.222 11.664 11.664 11.664 0.001 0 0.002 0 0.003 0h46.228c-3.365 5.616-7.796 10.254-13.049 13.756l-0.156 0.098c-8.953 5.757-19.884 9.177-31.613 9.177-0.496 0-0.99-0.006-1.484-0.018l0.073 0.001c-25.293-0.299-46.639-16.86-54.091-39.7l-0.115-0.407-0.003-0.019c-1.942-5.508-3.065-11.86-3.065-18.474s1.122-12.966 3.187-18.875l-0.122 0.401 0.003-0.019c7.572-23.242 28.917-39.798 54.172-40.096l0.035-0c0.349-0.008 0.76-0.013 1.172-0.013 13.732 0 26.199 5.42 35.377 14.237l-0.017-0.016c2.092 2.002 4.934 3.233 8.064 3.233 3.222 0 6.139-1.305 8.251-3.416l33.462-33.462c2.113-2.11 3.42-5.027 3.42-8.248 0-3.366-1.427-6.4-3.709-8.527l-0.007-0.006c-22.108-20.767-51.95-33.525-84.772-33.525-0.436 0-0.872 0.002-1.307 0.007l0.066-0.001c-0.112-0-0.245-0.001-0.378-0.001-49.754 0-92.864 28.445-113.955 69.96l-0.335 0.727-0.017 0.021c-8.605 16.703-13.649 36.45-13.649 57.376 0 0.088 0 0.177 0 0.265v-0.014c0.031 21.011 5.070 40.838 13.988 58.361l-0.339-0.734 0.017 0.021c21.426 42.241 64.536 70.686 114.29 70.686 0.133 0 0.265-0 0.398-0.001h-0.021c0.926 0.025 2.015 0.039 3.108 0.039 31.568 0 60.354-11.912 82.108-31.487l-0.112 0.099 0.008-0.006 0.009-0.010 0.003-0.003c23.808-22.928 38.595-55.079 38.595-90.684 0-1.276-0.019-2.547-0.057-3.814l0.004 0.186c0-0.025 0-0.055 0-0.085 0-9.14-0.84-18.083-2.446-26.757l0.138 0.9zM142.333 35c0.293-0.003 0.639-0.005 0.986-0.005 22.482 0 43.253 7.324 60.058 19.717l-0.278-0.196-16.959 16.953c-11.983-8.388-26.864-13.404-42.916-13.404-0.313 0-0.626 0.002-0.938 0.006l0.048-0.001c-29.928 0.159-55.967 16.657-69.667 41.022l-0.209 0.403-19.299-14.961c18.717-29.926 51.492-49.536 88.848-49.536 0.115 0 0.23 0 0.345 0.001h-0.018zM42.927 173.872c-3.546-10.101-5.594-21.747-5.594-33.872s2.048-23.771 5.818-34.611l-0.224 0.739 20.793 16.122c-1.267 5.332-1.994 11.453-1.994 17.745s0.727 12.413 2.101 18.286l-0.107-0.541zM142.333 245c-0.097 0-0.211 0.001-0.325 0.001-37.357 0-70.133-19.611-88.595-49.101l-0.256-0.438 19.3-14.971c13.903 24.776 39.944 41.28 69.853 41.437h0.022c0.297 0.004 0.648 0.006 0.999 0.006 13.683 0 26.61-3.237 38.057-8.988l-0.489 0.222 19.736 15.322c-15.871 10.365-35.303 16.53-56.175 16.53-0.748 0-1.495-0.008-2.239-0.024l0.111 0.002zM218.469 212.791l-18.204-14.131c8.154-8.79 13.937-19.888 16.265-32.207l0.064-0.407c0.125-0.641 0.197-1.379 0.197-2.133 0-6.442-5.222-11.664-11.664-11.664-0.002 0-0.004 0-0.006 0h-51.121v-21.796h88.070c0.399 4.033 0.598 8.112 0.598 12.202 0.024 0.84 0.038 1.828 0.038 2.82 0 25.663-9.155 49.189-24.376 67.489l0.139-0.172z"></path>
</svg>
