<!-- Generated by IcoMoon.io -->
<svg version="1.1" xmlns="http://www.w3.org/2000/svg" width="280" height="280" viewBox="0 0 280 280">
<title>graduation-cap</title>
<path d="M250.717 118.883l-11.667-6.417-105-58.333h-1.283c-0.626-0.274-1.367-0.515-2.134-0.685l-0.082-0.015h-4.317c-0.896 0.186-1.677 0.427-2.424 0.733l0.091-0.033h-1.283l-105 58.333c-3.557 2.044-5.914 5.821-5.914 10.15s2.357 8.106 5.858 10.12l0.057 0.030 29.050 16.1v55.3c0 19.33 15.67 35 35 35v0h93.333c19.33 0 35-15.67 35-35v0-55.3l23.333-13.067v33.367c0 6.443 5.223 11.667 11.667 11.667s11.667-5.223 11.667-11.667v0-40.133c-0.008-4.335-2.379-8.115-5.893-10.12l-0.057-0.030zM186.667 204.167c0 6.443-5.223 11.667-11.667 11.667v0h-93.333c-6.443 0-11.667-5.223-11.667-11.667v0-42.35l52.617 29.167 1.75 0.7h1.050c0.438 0.058 0.944 0.092 1.458 0.092s1.020-0.033 1.517-0.098l-0.059 0.006c0.438 0.058 0.944 0.092 1.458 0.092s1.020-0.033 1.517-0.098l-0.059 0.006h1.050c0.661-0.142 1.247-0.384 1.773-0.713l-0.023 0.013 52.617-29.167zM128.333 167.533l-80.967-45.033 80.967-45.033 80.967 45.033z"></path>
</svg>
