<!-- Generated by IcoMoon.io -->
<svg version="1.1" xmlns="http://www.w3.org/2000/svg" width="280" height="280" viewBox="0 0 280 280">
<title>hdd</title>
<path d="M256.667 173.367v-0.583c-0.156-2.43-0.572-4.699-1.222-6.865l0.056 0.215-19.133-113.517c-2.842-16.717-17.218-29.287-34.531-29.287-0.165 0-0.33 0.001-0.494 0.004l0.025-0h-123.317c-17.264 0.058-31.58 12.605-34.387 29.077l-0.029 0.207-18.9 113.283c-0.595 1.951-1.011 4.22-1.162 6.56l-0.005 0.090v0.583c-0.233 0.817-0.233 1.867-0.233 1.867v46.667c0 19.33 15.67 35 35 35v0h163.333c19.33 0 35-15.67 35-35v0-46.667c0 0 0-1.050 0-1.633zM66.617 56.35c0.98-5.535 5.754-9.685 11.497-9.685 0.060 0 0.119 0.001 0.179 0.001h123.658c0.050-0.001 0.11-0.001 0.17-0.001 5.743 0 10.517 4.15 11.487 9.614l0.010 0.071 14 84.233c-1.789-0.371-3.845-0.583-5.95-0.583h-163.334c-2.032 0.017-4.006 0.228-5.914 0.617l0.197-0.034zM233.333 221.667c0 6.443-5.223 11.667-11.667 11.667v0h-163.333c-6.443 0-11.667-5.223-11.667-11.667v0-45.733l0.933-5.367c1.785-4.263 5.912-7.209 10.73-7.233h163.337c4.821 0.025 8.949 2.97 10.705 7.156l0.029 0.077 0.933 5.367zM198.333 186.667c-6.443 0-11.667 5.223-11.667 11.667s5.223 11.667 11.667 11.667c6.443 0 11.667-5.223 11.667-11.667v0c0-6.443-5.223-11.667-11.667-11.667v0z"></path>
</svg>
