<!-- Generated by IcoMoon.io -->
<svg version="1.1" xmlns="http://www.w3.org/2000/svg" width="280" height="280" viewBox="0 0 280 280">
<title>history</title>
<path d="M140 23.333c-31.164 0.092-59.438 12.388-80.31 32.357l0.043-0.041v-20.65c0-6.443-5.223-11.667-11.667-11.667s-11.667 5.223-11.667 11.667v0 52.5c0 6.443 5.223 11.667 11.667 11.667v0h52.5c6.443 0 11.667-5.223 11.667-11.667s-5.223-11.667-11.667-11.667v0h-28c17.021-17.764 40.937-28.805 67.433-28.805 51.547 0 93.333 41.787 93.333 93.333s-41.787 93.333-93.333 93.333c-51.547 0-93.333-41.787-93.333-93.333 0-0.127 0-0.255 0.001-0.382v0.020c0-6.443-5.223-11.667-11.667-11.667s-11.667 5.223-11.667 11.667v0c0 64.433 52.233 116.667 116.667 116.667s116.667-52.233 116.667-116.667c0-64.433-52.233-116.667-116.667-116.667v0zM140 93.333c-6.443 0-11.667 5.223-11.667 11.667v0 35c0 6.443 5.223 11.667 11.667 11.667v0h23.333c6.443 0 11.667-5.223 11.667-11.667s-5.223-11.667-11.667-11.667v0h-11.667v-23.333c0-6.443-5.223-11.667-11.667-11.667v0z"></path>
</svg>
