<!-- Generated by IcoMoon.io -->
<svg version="1.1" xmlns="http://www.w3.org/2000/svg" width="280" height="280" viewBox="0 0 280 280">
<title>image-block</title>
<path d="M239.633 28.7c-10.562-10.587-25.166-17.137-41.3-17.137-32.217 0-58.333 26.117-58.333 58.333s26.117 58.333 58.333 58.333c32.18 0 58.274-26.057 58.333-58.224v-0.006c0-0.031 0-0.068 0-0.104 0-16.082-6.508-30.645-17.035-41.197l0.001 0.001zM163.333 70c0-19.33 15.67-35 35-35v0c5.481 0.034 10.654 1.322 15.255 3.591l-0.205-0.091-46.667 46.667c-2.136-4.394-3.384-9.558-3.384-15.014 0-0.054 0-0.108 0-0.161v0.008zM223.067 94.733c-6.432 6.123-15.154 9.889-24.757 9.889-5.406 0-10.533-1.194-15.131-3.332l0.221 0.092 46.667-46.667c2.065 4.33 3.27 9.411 3.27 14.773 0 0.18-0.001 0.359-0.004 0.538l0-0.027c-0.009 9.661-3.931 18.405-10.266 24.733l-0 0zM221.667 151.667c-6.443 0-11.667 5.223-11.667 11.667v0 4.55l-17.267-17.383c-5.975-5.624-14.047-9.079-22.925-9.079s-16.95 3.455-22.942 9.095l0.017-0.016-8.167 8.283-28.933-29.050c-5.975-5.624-14.047-9.079-22.925-9.079s-16.95 3.455-22.942 9.095l0.017-0.016-17.267 17.383v-65.45c0-6.443 5.223-11.667 11.667-11.667v0h46.667c6.443 0 11.667-5.223 11.667-11.667s-5.223-11.667-11.667-11.667v0h-46.667c-19.33 0-35 15.67-35 35v0 140c0 19.33 15.67 35 35 35v0h140c3.99-0.064 7.791-0.785 11.327-2.060l-0.244 0.077h1.050c12.068-4.396 20.911-14.909 22.843-27.69l0.024-0.193c0.031-0.384 0.049-0.832 0.049-1.283s-0.018-0.899-0.053-1.342l0.004 0.059v-60.9c0-6.443-5.223-11.667-11.667-11.667v0zM58.333 233.333c-6.443 0-11.667-5.223-11.667-11.667v0-41.65l33.833-33.717c1.65-1.575 3.891-2.544 6.358-2.544s4.708 0.969 6.362 2.548l-0.004-0.004 37.217 37.1 49.933 49.933zM210 221.667c-0.081 2.368-0.855 4.54-2.125 6.337l0.025-0.037-52.733-52.967 8.283-8.167c1.65-1.575 3.891-2.544 6.358-2.544s4.708 0.969 6.362 2.548l-0.004-0.004 33.833 33.95z"></path>
</svg>
