<!-- Generated by IcoMoon.io -->
<svg version="1.1" xmlns="http://www.w3.org/2000/svg" width="280" height="280" viewBox="0 0 280 280">
<title>image-resize-square</title>
<path d="M35 94.5c6.443 0 11.667-5.223 11.667-11.667v0-2.217c0-6.443-5.223-11.667-11.667-11.667s-11.667 5.223-11.667 11.667v0 2.217c0 6.443 5.223 11.667 11.667 11.667v0zM35 47.833c1.788-0.030 3.469-0.457 4.968-1.197l-0.068 0.030c5.673-0.933 9.948-5.8 9.948-11.667 0-6.525-5.29-11.815-11.815-11.815-0.659 0-1.306 0.054-1.935 0.158l0.069-0.009h-1.167c-6.557 0.559-11.668 6.019-11.668 12.673 0 0.056 0 0.112 0.001 0.168v-0.008c0.319 6.187 5.414 11.083 11.652 11.083 0.005 0 0.010 0 0.015 0h-0.001zM237.883 45.617c1.963 1.553 4.475 2.492 7.206 2.492 6.443 0 11.667-5.223 11.667-11.667 0-0.508-0.033-1.009-0.095-1.5l0.006 0.058c0-6.443-5.223-11.667-11.667-11.667v0h-1.167c-6.442 0.002-11.663 5.225-11.663 11.667 0 4.246 2.269 7.963 5.661 10.004l0.053 0.029zM138.717 46.667h2.567c6.443 0 11.667-5.223 11.667-11.667s-5.223-11.667-11.667-11.667v0h-2.567c-6.443 0-11.667 5.223-11.667 11.667s5.223 11.667 11.667 11.667v0zM86.217 46.667h2.45c6.443 0 11.667-5.223 11.667-11.667s-5.223-11.667-11.667-11.667v0h-2.45c-6.443 0-11.667 5.223-11.667 11.667s5.223 11.667 11.667 11.667v0zM245 233.333c-1.788 0.030-3.469 0.457-4.968 1.197l0.068-0.030c-4 1.907-6.715 5.918-6.715 10.564 0 6.014 4.551 10.966 10.397 11.598l0.052 0.005h1.167c6.557-0.559 11.668-6.019 11.668-12.673 0-0.056-0-0.112-0.001-0.168v0.008c-0.613-5.922-5.576-10.5-11.608-10.5-0.021 0-0.041 0-0.062 0h0.003zM163.333 128.333c0-6.443-5.223-11.667-11.667-11.667v0h-113.517c-0.473-0.063-1.020-0.099-1.575-0.099s-1.102 0.036-1.638 0.106l0.063-0.007c-6.443 0-11.667 5.223-11.667 11.667v0 116.667c0 6.443 5.223 11.667 11.667 11.667v0h117.833c6.406-0.050 11.579-5.254 11.579-11.666 0-1.778-0.398-3.463-1.109-4.971l0.030 0.071zM140 233.333h-75.6l45.617-45.5c0.699-0.708 1.669-1.147 2.742-1.147s2.043 0.439 2.741 1.147l0.001 0.001 24.5 24.383zM140 179.317l-7.933-8.050c-4.954-4.915-11.776-7.952-19.308-7.952s-14.355 3.037-19.31 7.954l-46.665 46.665v-77.933h93.333zM245 179.317c-6.443 0-11.667 5.223-11.667 11.667v0 2.45c0 6.443 5.223 11.667 11.667 11.667s11.667-5.223 11.667-11.667v0-2.1c0-6.443-5.223-11.667-11.667-11.667v0zM245 74.317c-6.443 0-11.667 5.223-11.667 11.667v0 2.683c0 6.443 5.223 11.667 11.667 11.667s11.667-5.223 11.667-11.667v0-2.45c0-6.443-5.223-11.667-11.667-11.667v0zM245 126.817c-6.443 0-11.667 5.223-11.667 11.667v0 2.567c0 6.443 5.223 11.667 11.667 11.667s11.667-5.223 11.667-11.667v0-2.567c-0.131-6.342-5.303-11.433-11.664-11.433-0.001 0-0.002 0-0.002 0v0zM199.5 233.333h-2.333c-6.443 0-11.667 5.223-11.667 11.667s5.223 11.667 11.667 11.667v0h2.333c6.443 0 11.667-5.223 11.667-11.667s-5.223-11.667-11.667-11.667v0zM193.783 46.667c6.443 0 11.667-5.223 11.667-11.667s-5.223-11.667-11.667-11.667v0h-2.45c-6.443 0-11.667 5.223-11.667 11.667s5.223 11.667 11.667 11.667v0z"></path>
</svg>
