<!-- Generated by IcoMoon.io -->
<svg version="1.1" xmlns="http://www.w3.org/2000/svg" width="280" height="280" viewBox="0 0 280 280">
<title>image</title>
<path d="M221.667 46.667h-163.333c-19.33 0-35 15.67-35 35v0 116.667c0 19.33 15.67 35 35 35v0h163.333c19.33 0 35-15.67 35-35v0-116.667c0-19.33-15.67-35-35-35v0zM58.333 210c-6.443 0-11.667-5.223-11.667-11.667v0-28.233l38.5-38.383c2.103-2.062 4.986-3.335 8.167-3.335s6.064 1.273 8.169 3.337l78.281 78.281zM233.333 198.333c0 6.443-5.223 11.667-11.667 11.667v0h-8.983l-44.45-44.683 10.267-10.267c2.103-2.062 4.986-3.335 8.167-3.335s6.064 1.273 8.169 3.337l-0.002-0.002 38.5 38.383zM233.333 160.533l-21.933-21.817c-6.406-6.161-15.126-9.956-24.733-9.956s-18.328 3.795-24.745 9.967l0.011-0.011-10.267 10.267-33.6-33.6c-6.406-6.161-15.126-9.956-24.733-9.956s-18.328 3.795-24.745 9.967l0.011-0.011-21.933 21.817v-55.533c0-6.443 5.223-11.667 11.667-11.667v0h163.333c6.443 0 11.667 5.223 11.667 11.667v0z"></path>
</svg>
