<!-- Generated by IcoMoon.io -->
<svg version="1.1" xmlns="http://www.w3.org/2000/svg" width="280" height="280" viewBox="0 0 280 280">
<title>intercom-alt</title>
<path d="M116.564 175.005c0.002 0 0.004 0 0.007 0 6.439 0 11.66-5.22 11.66-11.66 0-0.002 0-0.005 0-0.007v0-93.333c0-6.443-5.223-11.667-11.667-11.667s-11.667 5.223-11.667 11.667v0 93.333c0 0.002 0 0.004 0 0.007 0 6.44 5.22 11.66 11.66 11.66 0.002 0 0.005 0 0.007 0h-0zM163.231 175.005c0.002 0 0.004 0 0.007 0 6.439 0 11.66-5.22 11.66-11.66 0-0.002 0-0.005 0-0.007v0-93.333c0-6.443-5.223-11.667-11.667-11.667s-11.667 5.223-11.667 11.667v0 93.333c0 0.002 0 0.004 0 0.007 0 6.44 5.22 11.66 11.66 11.66 0.002 0 0.005 0 0.007 0h-0zM69.897 151.672c0.002 0 0.004 0 0.007 0 6.439 0 11.66-5.22 11.66-11.66 0-0.002 0-0.005 0-0.007v0-46.667c0-6.443-5.223-11.667-11.667-11.667s-11.667 5.223-11.667 11.667v0 46.667c0 0.002 0 0.004 0 0.007 0 6.44 5.22 11.66 11.66 11.66 0.002 0 0.005 0 0.007 0h-0zM233.231 11.672h-186.667c-19.321 0.022-34.978 15.679-35 34.998v186.669c0.022 19.321 15.679 34.978 34.998 35h186.669c19.321-0.022 34.978-15.679 35-34.998v-186.669c-0.022-19.321-15.679-34.978-34.998-35h-0.002zM244.897 233.338c-0.004 6.442-5.225 11.662-11.666 11.667h-186.667c-6.442-0.004-11.662-5.225-11.667-11.666v-186.667c0.004-6.442 5.225-11.662 11.666-11.667h186.667c6.442 0.004 11.662 5.225 11.667 11.666v0.001zM202.389 179.767c-16.454 11.654-36.938 18.628-59.052 18.628-1.21 0-2.414-0.021-3.614-0.062l0.174 0.005c-0.851 0.025-1.854 0.039-2.859 0.039-22.302 0-42.979-6.963-59.973-18.835l0.34 0.225c-2.014-1.702-4.641-2.736-7.508-2.736-6.444 0-11.669 5.224-11.669 11.669 0 3.577 1.609 6.778 4.143 8.918l0.017 0.014c20.505 15.052 46.243 24.086 74.091 24.086 1.202 0 2.399-0.017 3.593-0.050l-0.176 0.004c1.018 0.030 2.215 0.046 3.417 0.046 27.848 0 53.586-9.035 74.443-24.332l-0.352 0.246c2.551-2.155 4.161-5.356 4.161-8.932 0-6.444-5.224-11.669-11.669-11.669-2.868 0-5.494 1.034-7.526 2.751l0.017-0.014zM209.897 81.672c-0.002 0-0.004 0-0.007 0-6.439 0-11.66 5.22-11.66 11.66 0 0.002 0 0.005 0 0.007v-0 46.667c0 6.443 5.223 11.667 11.667 11.667s11.667-5.223 11.667-11.667v0-46.667c0-0.002 0-0.004 0-0.007 0-6.439-5.22-11.66-11.66-11.66-0.002 0-0.005 0-0.007 0h0z"></path>
</svg>
