<!-- Generated by IcoMoon.io -->
<svg version="1.1" xmlns="http://www.w3.org/2000/svg" width="280" height="280" viewBox="0 0 280 280">
<title>jackhammer</title>
<path d="M219.917 183.050c-2.109-2.097-5.016-3.393-8.225-3.393s-6.116 1.296-8.226 3.393l-24.033 24.033c-2.092 2.108-3.385 5.012-3.385 8.217 0 5.365 3.621 9.884 8.553 11.246l0.082 0.019 3.033 0.817-9.333 9.333c-2.131 2.114-3.451 5.045-3.451 8.283s1.32 6.169 3.45 8.283l0.001 0.001c2.114 2.131 5.045 3.451 8.283 3.451s6.169-1.32 8.283-3.45l23.334-23.334c2.17-2.121 3.516-5.077 3.516-8.347 0-1.183-0.176-2.326-0.504-3.402l0.022 0.083c-1.101-4.054-4.23-7.182-8.201-8.264l-3.115-0.719 9.683-9.8c2.167-2.12 3.511-5.074 3.511-8.342 0-3.152-1.25-6.012-3.281-8.111l0.003 0.003zM92.283 227.383l3.033-0.817c5.014-1.382 8.635-5.901 8.635-11.266 0-3.206-1.293-6.109-3.386-8.218l-24.032-24.032c-2.027-1.744-4.684-2.805-7.589-2.805-6.443 0-11.667 5.223-11.667 11.667 0 2.905 1.062 5.562 2.818 7.604l-0.013-0.015 9.683 9.8-3.033 0.7c-4.054 1.101-7.182 4.23-8.264 8.201l-0.019 0.082c-0.306 0.994-0.482 2.136-0.482 3.32 0 3.27 1.346 6.226 3.513 8.345l23.335 23.335c2.114 2.131 5.045 3.451 8.283 3.451s6.169-1.32 8.283-3.45l0.001-0.001c2.131-2.114 3.451-5.045 3.451-8.283s-1.32-6.169-3.45-8.283l-0.001-0.001zM245 46.667c-6.443 0-11.667 5.223-11.667 11.667v0h-35c0-19.33-15.67-35-35-35v0h-46.667c-19.33 0-35 15.67-35 35v0h-35c0-6.443-5.223-11.667-11.667-11.667s-11.667 5.223-11.667 11.667v0 23.333c0 6.443 5.223 11.667 11.667 11.667s11.667-5.223 11.667-11.667v0h35v23.333c0 0.005 0 0.012 0 0.018 0 15.148 9.623 28.048 23.090 32.921l0.244 0.077v13.65c0 12.887 10.447 23.333 23.333 23.333v0 70c0 6.443 5.223 11.667 11.667 11.667s11.667-5.223 11.667-11.667v0-70c12.887 0 23.333-10.447 23.333-23.333v0-13.65c13.71-4.95 23.333-17.85 23.333-32.998 0-0.007 0-0.013 0-0.019v0.001-23.333h35c0 6.443 5.223 11.667 11.667 11.667s11.667-5.223 11.667-11.667v0-23.333c0-6.443-5.223-11.667-11.667-11.667v0zM175 105c0 6.443-5.223 11.667-11.667 11.667v0c-6.443 0-11.667 5.223-11.667 11.667v0 23.333h-23.333v-23.333c0-6.443-5.223-11.667-11.667-11.667v0c-6.443 0-11.667-5.223-11.667-11.667v0-46.667c0-6.443 5.223-11.667 11.667-11.667v0h46.667c6.443 0 11.667 5.223 11.667 11.667v0zM140 70c-6.443 0-11.667 5.223-11.667 11.667v0 11.667c0 6.443 5.223 11.667 11.667 11.667s11.667-5.223 11.667-11.667v0-11.667c0-6.443-5.223-11.667-11.667-11.667v0z"></path>
</svg>
