<!-- Generated by IcoMoon.io -->
<svg version="1.1" xmlns="http://www.w3.org/2000/svg" width="280" height="280" viewBox="0 0 280 280">
<title>letter-japanese-a</title>
<path d="M238.836 139.966c-10.136-15.348-27.197-25.411-46.627-25.711l-0.045-0.001c-0.151-4.318-0.698-8.422-1.605-12.388l0.084 0.438c-1.261-5.182-5.862-8.969-11.348-8.969-6.441 0-11.663 5.222-11.663 11.663 0 0.956 0.115 1.885 0.332 2.774l-0.016-0.080c0.486 2.049 0.83 4.452 0.961 6.913l0.004 0.103c-14.138 1.785-26.97 5.151-39.068 9.964l1.070-0.375c0.263-14.045 0.896-28.085 2.295-42.085l0.447-4.459c16.066-2.204 29.834-4.914 43.322-8.327l-2.695 0.578 1.401-0.348c5.16-1.279 8.924-5.87 8.924-11.34 0-6.443-5.223-11.667-11.667-11.667-1.017 0-2.004 0.13-2.944 0.375l0.081-0.018-1.424 0.353c-10.752 2.689-21.649 4.719-32.596 6.424l1.766-17.623c0.037-0.348 0.058-0.753 0.058-1.162 0-6.444-5.224-11.668-11.668-11.668-6.035 0-10.999 4.581-11.606 10.456l-0.004 0.050-2.289 22.858c-10.895 0.977-21.821 1.638-32.767 1.638-6.443 0-11.667 5.223-11.667 11.667s5.223 11.667 11.667 11.667v0c10.156 0 20.294-0.541 30.413-1.332-1.518 15.256-2.384 32.974-2.384 50.895 0 1.377 0.005 2.753 0.015 4.127l-0.001-0.212c-1.566 0.854-3.146 1.658-4.697 2.559-8.69 5.012-16.119 10.065-23.15 15.6l0.409-0.311-0.262 0.211c-11.77 9.135-21.948 19.507-30.598 31.087l-0.301 0.421c-4.144 5.684-6.629 12.808-6.629 20.513 0 19.357 15.692 35.049 35.049 35.049 2.104 0 4.164-0.185 6.166-0.541l-0.212 0.031c12.456-2.411 23.548-6.512 33.692-12.119l-0.584 0.296c2.095 3.255 5.7 5.381 9.801 5.381 6.415 0 11.616-5.201 11.616-11.616 0-0.693-0.061-1.371-0.177-2.030l0.010 0.070c-0.283-1.694-0.412-3.406-0.678-5.102 5.622-4.366 10.622-8.78 15.332-13.482l-0.002 0.002c9.309-9.273 17.432-19.725 24.128-31.117l0.392-0.721c0.267-0.461 0.491-0.923 0.752-1.384 1.377-2.457 2.677-4.923 3.871-7.408 0.628-1.296 1.194-2.587 1.768-3.883 0.699-1.589 1.367-3.176 1.989-4.77 0.659-1.675 1.281-3.344 1.849-5.013 0.377-1.118 0.706-2.231 1.044-3.347 0.599-1.97 1.187-3.933 1.657-5.883l0.058-0.207c0.151-0.002 0.329-0.004 0.508-0.004 11.539 0 21.781 5.557 28.194 14.141l0.066 0.092c11.883 20.616-11.234 58.065-51.532 83.473-3.309 2.096-5.473 5.738-5.473 9.886 0 6.442 5.222 11.664 11.664 11.664 2.32 0 4.481-0.677 6.297-1.844l-0.046 0.028c52.488-33.086 77.975-82.464 59.279-114.901zM79.285 216.796c-0.563 0.096-1.211 0.151-1.873 0.151-6.474 0-11.721-5.248-11.721-11.721 0-2.546 0.812-4.902 2.191-6.824l-0.024 0.035c7.749-10.318 16.551-19.238 26.409-26.861l0.32-0.238 0.308-0.251c4.129-3.231 8.657-6.288 13.347-9.252 0.713 13.946 2.017 27.847 3.802 41.707-9.383 6.11-20.365 10.713-32.14 13.147l-0.618 0.107zM164.799 139.995c-1.297 3.752-2.544 6.764-3.935 9.693l0.247-0.577c-0.649 1.387-1.377 2.774-2.102 4.164q-1.682 3.249-3.624 6.467c-0.988 1.628-2.005 3.253-3.093 4.87-5.053 7.507-10.455 14.065-16.422 20.060l0.005-0.005c-0.815 0.815-1.673 1.555-2.504 2.345q-1.903-18.637-2.464-37.366c9.88-4.669 21.372-8.437 33.387-10.732l0.913-0.145c-0.136 0.409-0.265 0.816-0.408 1.226z"></path>
</svg>
