<!-- Generated by IcoMoon.io -->
<svg version="1.1" xmlns="http://www.w3.org/2000/svg" width="280" height="280" viewBox="0 0 280 280">
<title>life-ring</title>
<path d="M256.667 128.917c0-1.283 0-2.567 0-3.85l-1.050-7-1.050-4.55c0-1.983-0.933-3.967-1.517-5.95s-0.933-3.15-1.517-4.667c-0.276-0.735-0.556-1.671-0.782-2.628l-0.034-0.172s0 0 0-0.583c-12.219-31.882-36.952-56.614-68.027-68.561l-0.806-0.273s0 0-0.583 0l-2.683-0.817-4.9-1.517c-1.75 0-3.617-0.933-5.367-1.4l-5.367-1.167-5.367-0.817c-1.867 0-3.617 0-5.6-0.7s-4.083 0-6.067 0l-5.95-0.933h-4.55c-1.983 0-4.083 0-6.067 0s-3.733 0-5.6 0.7l-5.367 0.817-5.367 1.167c-1.75 0-3.617 0.817-5.367 1.4l-4.9 1.517-2.683 0.817s0 0-0.583 0c-31.882 12.219-56.614 36.952-68.561 68.027l-0.273 0.806s0 0 0 0.583c-0.261 1.129-0.541 2.065-0.873 2.976l0.056-0.176c0 1.517-1.050 3.033-1.517 4.667s-1.050 3.967-1.517 5.95l-1.050 4.55-1.050 7c0 1.283 0 2.567 0 3.85 0 3.617 0 7.35 0 11.083s0 7.467 0 11.083c0 1.283 0 2.567 0 3.85l1.050 7 1.050 4.55c0 1.983 0.933 3.967 1.517 5.95s0.933 3.15 1.517 4.667c0.276 0.735 0.556 1.671 0.782 2.628l0.034 0.172c0.011 0.122 0.017 0.265 0.017 0.408s-0.006 0.286-0.018 0.427l0.001-0.018c12.114 31.849 36.841 56.538 67.915 68.333l0.802 0.267s0 0 0.583 0l2.8 0.817 4.667 1.517 5.95 1.517 4.55 1.050 7 1.050h3.85c3.617 0 7.35 0.583 11.083 0.583s7.467 0 11.083-0.583h3.85l7-1.050 4.55-1.050 5.95-1.517 4.667-1.517 2.8-0.817s0 0 0.583 0c31.876-12.062 56.602-36.751 68.449-67.8l0.268-0.8c-0.011-0.122-0.017-0.265-0.017-0.408s0.006-0.286 0.018-0.427l-0.001 0.018c0-0.933 0.583-1.867 0.817-2.8s1.050-3.033 1.517-4.667 1.050-3.967 1.517-5.95l1.050-4.55 1.050-7c0-1.283 0-2.567 0-3.85 0-3.617 0.583-7.35 0.583-11.083s1.050-6.533 1.050-10.15zM183.167 57.050c17.423 9.080 31.286 22.944 40.122 39.852l0.245 0.515-33.367 11.667c-4.919-7.801-11.333-14.214-18.887-18.988l-0.247-0.145zM120.633 48.883c2.45-0.583 4.783-0.933 7.117-1.283h2.8c3.010-0.334 6.499-0.525 10.033-0.525s7.024 0.191 10.459 0.562l-0.426-0.037h2.8c2.333 0 4.667 0.7 7.117 1.283h0.7l-11.667 33.367c-2.392-0.387-5.149-0.608-7.958-0.608-0.566 0-1.129 0.009-1.69 0.027l0.082-0.002c-0.020 0-0.044 0-0.068 0-2.984 0-5.909 0.255-8.753 0.743l0.305-0.043-11.667-33.367zM98 57.050l11.667 33.367c-7.847 4.908-14.3 11.324-19.105 18.889l-0.145 0.244-33.367-11.667c9.009-17.609 22.887-31.637 39.857-40.589l0.509-0.245zM48.883 159.95c-0.508-1.983-0.919-4.367-1.151-6.804l-0.015-0.196c0-1.050 0-1.983 0-2.917-0.371-3.012-0.584-6.498-0.584-10.033s0.212-7.022 0.624-10.446l-0.040 0.413c0-0.933 0-1.867 0-2.917 0.247-2.633 0.659-5.017 1.237-7.335l-0.071 0.335s0 0 0-0.7l33.367 11.667c-0.445 2.56-0.7 5.509-0.7 8.517s0.255 5.956 0.743 8.825l-0.043-0.308-33.367 11.667s0 0.467 0 0.233zM97.417 222.95c-17.423-9.080-31.286-22.944-40.122-39.852l-0.245-0.515 33.367-11.667c4.919 7.801 11.333 14.214 18.887 18.988l0.247 0.145zM159.95 231.117c-2.45 0.583-4.783 0.933-7.117 1.283h-2.8c-3.010 0.334-6.499 0.525-10.033 0.525s-7.024-0.191-10.459-0.562l0.426 0.037h-2.8c-2.333 0-4.667-0.7-7.117-1.283h-0.7l11.667-33.367c2.56 0.445 5.509 0.7 8.517 0.7s5.956-0.255 8.825-0.743l-0.308 0.043 11.667 33.367zM152.133 172.783v0c-1.983 0.7-3.967 1.167-5.833 1.633-1.754 0.343-3.771 0.539-5.833 0.539s-4.079-0.196-6.033-0.571l0.2 0.032c-1.867 0-3.85-0.933-5.833-1.633v0c-10.007-3.527-17.782-11.187-21.388-20.875l-0.079-0.242c-0.632-1.661-1.197-3.657-1.595-5.713l-0.038-0.237c-0.356-1.754-0.56-3.77-0.56-5.833s0.204-4.079 0.592-6.029l-0.033 0.196c0.408-2.208 0.933-4.127 1.599-5.98l-0.083 0.263c3.641-9.817 11.274-17.412 20.874-20.922l0.243-0.078c1.983-0.7 3.967-1.167 5.833-1.633 1.754-0.343 3.771-0.539 5.833-0.539s4.079 0.196 6.033 0.571l-0.2-0.032c1.867 0 3.85 0.933 5.833 1.633v0c9.796 3.616 17.384 11.204 20.922 20.758l0.078 0.242c0.632 1.661 1.197 3.657 1.595 5.713l0.038 0.237c0.356 1.754 0.56 3.77 0.56 5.833s-0.204 4.079-0.592 6.029l0.033-0.196c-0.436 2.293-1.001 4.289-1.719 6.21l0.085-0.26c-3.672 9.701-11.247 17.199-20.757 20.689l-0.243 0.078zM182.583 223.067l-11.667-33.367c7.801-4.919 14.214-11.333 18.988-18.887l0.145-0.247 33.367 11.667c-9.143 17.62-23.181 31.621-40.312 40.472l-0.521 0.245zM233.333 150.033c0 0.933 0 1.867 0 2.917-0.247 2.633-0.659 5.017-1.237 7.335l0.071-0.335s0 0 0 0.7l-33.367-11.667c0.445-2.56 0.7-5.509 0.7-8.517s-0.255-5.956-0.743-8.825l0.043 0.308 33.367-11.667s0 0 0 0.7c0.507 1.983 0.919 4.367 1.151 6.804l0.015 0.196c0 1.050 0 1.983 0 2.917 0.371 3.012 0.584 6.498 0.584 10.033s-0.212 7.022-0.624 10.446l0.040-0.413z"></path>
</svg>
