<!-- Generated by IcoMoon.io -->
<svg version="1.1" xmlns="http://www.w3.org/2000/svg" width="280" height="280" viewBox="0 0 280 280">
<title>list-ui-alt</title>
<path d="M40.833 70c-6.443 0-11.667 5.223-11.667 11.667s5.223 11.667 11.667 11.667c6.443 0 11.667-5.223 11.667-11.667v0c0-6.443-5.223-11.667-11.667-11.667v0zM87.5 93.333h163.333c6.443 0 11.667-5.223 11.667-11.667s-5.223-11.667-11.667-11.667v0h-163.333c-6.443 0-11.667 5.223-11.667 11.667s5.223 11.667 11.667 11.667v0zM87.5 128.333c-6.443 0-11.667 5.223-11.667 11.667s5.223 11.667 11.667 11.667c6.443 0 11.667-5.223 11.667-11.667v0c0-6.443-5.223-11.667-11.667-11.667v0zM134.167 186.667c-6.443 0-11.667 5.223-11.667 11.667s5.223 11.667 11.667 11.667c6.443 0 11.667-5.223 11.667-11.667v0c0-6.443-5.223-11.667-11.667-11.667v0zM250.833 128.333h-116.667c-6.443 0-11.667 5.223-11.667 11.667s5.223 11.667 11.667 11.667v0h116.667c6.443 0 11.667-5.223 11.667-11.667s-5.223-11.667-11.667-11.667v0zM250.833 186.667h-70c-6.443 0-11.667 5.223-11.667 11.667s5.223 11.667 11.667 11.667v0h70c6.443 0 11.667-5.223 11.667-11.667s-5.223-11.667-11.667-11.667v0z"></path>
</svg>
