<!-- Generated by IcoMoon.io -->
<svg version="1.1" xmlns="http://www.w3.org/2000/svg" width="280" height="280" viewBox="0 0 280 280">
<title>lock-slash</title>
<path d="M126.467 62.767c3.761-2.707 8.46-4.33 13.539-4.33 6.416 0 12.227 2.59 16.446 6.781l-0.001-0.001c4.229 4.205 6.855 10.018 6.883 16.445v35.005c0 6.443 5.223 11.667 11.667 11.667v0h11.667c6.443 0 11.667 5.223 11.667 11.667v0 3.967c0 6.443 5.223 11.667 11.667 11.667s11.667-5.223 11.667-11.667v0-3.967c0-19.33-15.67-35-35-35v0-23.333c0-0.011 0-0.024 0-0.037 0-12.878-5.216-24.537-13.65-32.98l0 0c-8.52-8.281-20.163-13.387-32.999-13.387-10.338 0-19.902 3.312-27.69 8.932l0.139-0.096c-2.846 2.151-4.667 5.53-4.667 9.333 0 6.443 5.223 11.667 11.667 11.667 2.639 0 5.074-0.877 7.029-2.355l-0.029 0.021zM253.283 236.717l-210-210c-2.12-2.12-5.048-3.431-8.283-3.431-6.47 0-11.714 5.245-11.714 11.714 0 3.235 1.311 6.164 3.431 8.283v0l62.183 61.717c-17.329 2.276-30.568 16.951-30.568 34.718 0 0.099 0.001 0.198 0.001 0.297v-0.015 70c0 19.33 15.67 35 35 35v0h93.333c11.367-0.039 21.453-5.491 27.82-13.912l0.064-0.088 22.167 22.283c2.114 2.131 5.045 3.451 8.283 3.451s6.169-1.32 8.283-3.45l0.001-0.001c2.131-2.114 3.451-5.045 3.451-8.283s-1.32-6.169-3.45-8.283l-0.001-0.001zM186.667 221.667h-93.333c-6.443 0-11.667-5.223-11.667-11.667v0-70c0-6.443 5.223-11.667 11.667-11.667v0h18.55l24.15 24.15c-4.491 1.658-7.646 5.878-7.7 10.843v23.34c0 6.443 5.223 11.667 11.667 11.667s11.667-5.223 11.667-11.667v0-18.55l45.85 45.85c-1.658 4.491-5.878 7.646-10.843 7.7h-0.007z"></path>
</svg>
