<!-- Generated by IcoMoon.io -->
<svg version="1.1" xmlns="http://www.w3.org/2000/svg" width="280" height="280" viewBox="0 0 280 280">
<title>map-pin-alt</title>
<path d="M128.333 138.833v59.5c0 6.443 5.223 11.667 11.667 11.667s11.667-5.223 11.667-11.667v0-59.5c26.817-5.618 46.667-29.068 46.667-57.155 0-32.217-26.117-58.333-58.333-58.333s-58.333 26.117-58.333 58.333c0 28.087 19.85 51.538 46.287 57.088l0.38 0.067zM140 46.667c19.33 0 35 15.67 35 35s-15.67 35-35 35c-19.33 0-35-15.67-35-35v0c0-19.33 15.67-35 35-35v0zM189.117 168.233c-0.736-0.162-1.582-0.255-2.45-0.255-6.584 0-11.921 5.337-11.921 11.921 0 5.716 4.023 10.493 9.393 11.653l0.078 0.014c26.483 5.25 37.45 14.7 37.45 18.433 0 6.767-28.583 23.333-81.667 23.333s-81.667-16.567-81.667-23.333c0-3.733 10.967-13.183 37.45-18.9 5.448-1.174 9.471-5.95 9.471-11.667 0-6.584-5.337-11.921-11.921-11.921-0.868 0-1.714 0.093-2.528 0.269l0.078-0.014c-35.467 8.167-55.883 23.45-55.883 42.233 0 30.683 52.85 46.667 105 46.667s105-15.983 105-46.667c0-18.783-20.417-34.067-55.883-41.767z"></path>
</svg>
