<!-- Generated by IcoMoon.io -->
<svg version="1.1" xmlns="http://www.w3.org/2000/svg" width="280" height="280" viewBox="0 0 280 280">
<title>map-marker</title>
<path d="M140 23.333c-51.547 0-93.333 41.787-93.333 93.333v0c0 63 82.25 134.167 85.75 137.2 2.026 1.741 4.681 2.801 7.583 2.801s5.557-1.060 7.599-2.814l-0.016 0.013c4.083-3.033 85.75-74.2 85.75-137.2 0-51.547-41.787-93.333-93.333-93.333v0zM140 229.25c-24.85-23.333-70-73.617-70-112.583 0-38.66 31.34-70 70-70s70 31.34 70 70v0c0 38.967-45.15 89.367-70 112.583zM140 70c-25.773 0-46.667 20.893-46.667 46.667s20.893 46.667 46.667 46.667c25.773 0 46.667-20.893 46.667-46.667v0c0-25.773-20.893-46.667-46.667-46.667v0zM140 140c-12.887 0-23.333-10.447-23.333-23.333s10.447-23.333 23.333-23.333c12.887 0 23.333 10.447 23.333 23.333v0c0 12.887-10.447 23.333-23.333 23.333v0z"></path>
</svg>
