<!-- Generated by IcoMoon.io -->
<svg version="1.1" xmlns="http://www.w3.org/2000/svg" width="280" height="280" viewBox="0 0 280 280">
<title>map-marker-shield</title>
<path d="M168.117 76.183c-1.694 0.391-3.639 0.615-5.636 0.615-5.876 0-11.3-1.939-15.665-5.214l0.068 0.049c-1.903-1.404-4.295-2.247-6.883-2.247s-4.98 0.843-6.916 2.27l0.032-0.023c-4.298 3.225-9.721 5.165-15.597 5.165-1.997 0-3.942-0.224-5.811-0.648l0.175 0.033c-0.74-0.167-1.59-0.263-2.463-0.263-2.79 0-5.351 0.979-7.359 2.613l0.021-0.017c-2.643 2.156-4.317 5.413-4.317 9.060 0 0.014 0 0.028 0 0.042v-0.002 33.833c-0.002 0.156-0.003 0.341-0.003 0.526 0 15.563 7.361 29.407 18.791 38.241l0.112 0.083 15.983 11.667c1.903 1.404 4.295 2.247 6.883 2.247s4.98-0.843 6.916-2.27l-0.032 0.023 15.983-11.667c11.811-8.904 19.367-22.907 19.367-38.675 0-0.062 0-0.123-0-0.184v0.010-33.833c0-0.012 0-0.026 0-0.040 0-3.648-1.674-6.904-4.296-9.044l-0.021-0.017c-1.97-1.572-4.496-2.522-7.244-2.522-0.738 0-1.461 0.069-2.161 0.2l0.072-0.011zM158.9 121.45c0.001 0.061 0.001 0.132 0.001 0.204 0 8.127-3.865 15.351-9.857 19.935l-0.060 0.044-8.983 6.65-8.983-6.65c-6.053-4.628-9.918-11.852-9.918-19.979 0-0.072 0-0.144 0.001-0.215v0.011-21.467c6.977-0.505 13.409-2.389 19.174-5.379l-0.274 0.129c5.491 2.861 11.923 4.745 18.74 5.241l0.16 0.009zM238.7 112.35c-4.999-50.533-47.284-89.681-98.712-89.681-20.423 0-39.404 6.174-55.178 16.757l0.357-0.226c-24.225 16.364-40.743 42.556-43.831 72.725l-0.035 0.425c-0.3 2.888-0.471 6.239-0.471 9.63 0 27.386 11.153 52.166 29.165 70.047l0.006 0.006 61.833 61.95c2.114 2.131 5.045 3.451 8.283 3.451s6.169-1.32 8.283-3.45l0.001-0.001 61.6-61.95c18.018-17.887 29.171-42.667 29.171-70.053 0-3.391-0.171-6.743-0.505-10.046l0.034 0.416zM193.667 175.583l-53.667 53.667-53.667-53.667c-13.701-13.702-22.176-32.63-22.176-53.538 0-2.592 0.13-5.154 0.385-7.68l-0.026 0.318c2.347-23.568 15.057-43.757 33.445-56.177l0.272-0.173c11.744-7.899 26.205-12.608 41.767-12.608s30.023 4.709 42.038 12.78l-0.271-0.171c18.606 12.546 31.299 32.639 33.689 55.789l0.027 0.328c0.242 2.271 0.38 4.907 0.38 7.574 0 20.918-8.483 39.855-22.196 53.559l-0.001 0.001z"></path>
</svg>
