<!-- Generated by IcoMoon.io -->
<svg version="1.1" xmlns="http://www.w3.org/2000/svg" width="280" height="280" viewBox="0 0 280 280">
<title>mobile-android</title>
<path d="M148.283 190.050l-1.75-1.4c-0.605-0.416-1.299-0.771-2.038-1.031l-0.062-0.019-2.1-0.933c-0.718-0.157-1.542-0.247-2.387-0.247-3.212 0-6.12 1.298-8.23 3.397l0.001-0.001c-0.997 1.094-1.822 2.367-2.417 3.762l-0.033 0.088c-0.564 1.322-0.893 2.86-0.893 4.475 0 6.443 5.223 11.667 11.667 11.667 1.583 0 3.093-0.316 4.47-0.887l-0.077 0.028c1.47-0.722 2.736-1.577 3.868-2.582l-0.017 0.015c2.078-2.105 3.362-5 3.362-8.194 0-1.633-0.336-3.187-0.941-4.598l0.029 0.076c-0.614-1.404-1.439-2.603-2.45-3.617l0 0zM186.667 23.333h-93.333c-19.33 0-35 15.67-35 35v0 163.333c0 19.33 15.67 35 35 35v0h93.333c19.33 0 35-15.67 35-35v0-163.333c0-19.33-15.67-35-35-35v0zM198.333 221.667c0 6.443-5.223 11.667-11.667 11.667v0h-93.333c-6.443 0-11.667-5.223-11.667-11.667v0-163.333c0-6.443 5.223-11.667 11.667-11.667v0h93.333c6.443 0 11.667 5.223 11.667 11.667v0z"></path>
</svg>
