<!-- Generated by IcoMoon.io -->
<svg version="1.1" xmlns="http://www.w3.org/2000/svg" width="280" height="280" viewBox="0 0 280 280">
<title>music-tune-slash</title>
<path d="M140 85.517c6.443 0 11.667-5.223 11.667-11.667v0-6.417l70-17.5v34.3l-50.167 12.6c-5.859 0.723-10.35 5.671-10.35 11.667 0 6.489 5.261 11.75 11.75 11.75 0.493 0 0.98-0.030 1.457-0.089l-0.057 0.006h2.8l59.033-15.167h0.817l2.217-1.050 1.75-1.167c0.559-0.522 1.058-1.095 1.494-1.715l0.023-0.035c0.435-0.51 0.823-1.084 1.143-1.699l0.024-0.051c0.335-0.607 0.58-1.314 0.695-2.064l0.005-0.036c0.052-0.333 0.081-0.717 0.081-1.108s-0.030-0.775-0.087-1.15l0.005 0.042c0.39-0.437 0.647-1.001 0.699-1.623l0.001-0.010v-58.333c0.003-0.102 0.005-0.222 0.005-0.342 0-6.443-5.223-11.667-11.667-11.667-0.996 0-1.963 0.125-2.886 0.36l0.081-0.017-93.333 23.333c-5.133 1.298-8.872 5.876-8.872 11.327 0 0.119 0.002 0.238 0.005 0.357l-0.001-0.017v15.517c0 6.443 5.223 11.667 11.667 11.667v0zM253.283 237.183l-210-210c-1.951-1.521-4.438-2.439-7.139-2.439-6.443 0-11.667 5.223-11.667 11.667 0 2.584 0.84 4.972 2.262 6.905l-0.023-0.032 101.617 101.5v34.3c-5.109-2.552-11.125-4.056-17.491-4.083h-0.009c-22.552 0-40.833 18.282-40.833 40.833s18.282 40.833 40.833 40.833c22.552 0 40.833-18.282 40.833-40.833v0-47.717l85.050 85.167c2.114 2.131 5.045 3.451 8.283 3.451s6.169-1.32 8.283-3.45l0.001-0.001c2.131-2.114 3.451-5.045 3.451-8.283s-1.32-6.169-3.45-8.283l-0.001-0.001zM110.833 233.333c-9.665 0-17.5-7.835-17.5-17.5s7.835-17.5 17.5-17.5c9.665 0 17.5 7.835 17.5 17.5v0c0 9.665-7.835 17.5-17.5 17.5v0z"></path>
</svg>
