<!-- Generated by IcoMoon.io -->
<svg version="1.1" xmlns="http://www.w3.org/2000/svg" width="280" height="280" viewBox="0 0 280 280">
<title>notebooks</title>
<path d="M245 70c-6.443 0-11.667 5.223-11.667 11.667v0 116.667c0 19.33-15.67 35-35 35v0h-116.667c-6.443 0-11.667 5.223-11.667 11.667s5.223 11.667 11.667 11.667v0h116.667c32.217 0 58.333-26.117 58.333-58.333v0-116.667c0-6.443-5.223-11.667-11.667-11.667v0zM210 175v-116.667c0-19.33-15.67-35-35-35v0h-116.667c-19.33 0-35 15.67-35 35v0 116.667c0 19.33 15.67 35 35 35v0h116.667c19.33 0 35-15.67 35-35v0zM116.667 46.667h23.333v56.7l-4.2-3.5c-2.008-1.681-4.618-2.702-7.467-2.702s-5.459 1.021-7.485 2.717l0.018-0.015-4.2 3.5zM46.667 175v-116.667c0-6.443 5.223-11.667 11.667-11.667v0h35v81.667c0 0 0 0.001 0 0.001 0 6.443 5.223 11.667 11.667 11.667 2.903 0 5.557-1.060 7.599-2.814l-0.016 0.013 15.75-13.183 15.75 13.183c2.026 1.74 4.68 2.8 7.582 2.8 0 0 0.001 0 0.001 0v0c1.776-0.013 3.458-0.398 4.978-1.081l-0.078 0.031c4.028-1.897 6.767-5.922 6.767-10.588 0-0.010 0-0.020 0-0.030v0.002-81.667h11.667c6.443 0 11.667 5.223 11.667 11.667v0 116.667c0 6.443-5.223 11.667-11.667 11.667v0h-116.667c-6.443 0-11.667-5.223-11.667-11.667v0z"></path>
</svg>
