<!-- Generated by IcoMoon.io -->
<svg version="1.1" xmlns="http://www.w3.org/2000/svg" width="280" height="280" viewBox="0 0 280 280">
<title>package</title>
<path d="M221.667 23.333h-163.333c-19.33 0-35 15.67-35 35v0 163.333c0 19.33 15.67 35 35 35v0h163.333c19.33 0 35-15.67 35-35v0-163.333c0-19.33-15.67-35-35-35v0zM116.667 46.667h46.667v36.517l-16.917-11.667c-1.807-1.205-4.028-1.923-6.417-1.923s-4.61 0.718-6.459 1.95l0.043-0.027-16.917 11.667zM233.333 221.667c0 6.443-5.223 11.667-11.667 11.667v0h-163.333c-6.443 0-11.667-5.223-11.667-11.667v0-163.333c0-6.443 5.223-11.667 11.667-11.667v0h35v58.333c0.012 4.424 2.485 8.268 6.122 10.236l0.062 0.031c1.549 0.812 3.383 1.288 5.329 1.288 2.356 0 4.548-0.698 6.382-1.899l-0.045 0.027 28.817-19.017 28.583 19.017c1.807 1.205 4.028 1.923 6.417 1.923 6.422 0 11.632-5.189 11.666-11.603v-58.337h35c6.443 0 11.667 5.223 11.667 11.667v0z"></path>
</svg>
