<!-- Generated by IcoMoon.io -->
<svg version="1.1" xmlns="http://www.w3.org/2000/svg" width="280" height="280" viewBox="0 0 280 280">
<title>palette</title>
<path d="M86.567 181.3c-2.097 2.109-3.393 5.016-3.393 8.225s1.296 6.116 3.393 8.226l-0.001-0.001c2.114 2.131 5.045 3.451 8.283 3.451s6.169-1.32 8.283-3.45l0.001-0.001c2.097-2.109 3.393-5.016 3.393-8.225s-1.296-6.116-3.393-8.226l0.001 0.001c-2.114-2.131-5.045-3.451-8.283-3.451s-6.169 1.32-8.283 3.45l-0.001 0.001zM86.567 82.25c-2.097 2.109-3.393 5.016-3.393 8.225s1.296 6.116 3.393 8.226l-0.001-0.001c2.114 2.131 5.045 3.451 8.283 3.451s6.169-1.32 8.283-3.45l0.001-0.001c2.097-2.109 3.393-5.016 3.393-8.225s-1.296-6.116-3.393-8.226l0.001 0.001c-2.114-2.131-5.045-3.451-8.283-3.451s-6.169 1.32-8.283 3.45l-0.001 0.001zM144.317 198.917c-6.443 0-11.667 5.223-11.667 11.667s5.223 11.667 11.667 11.667c6.443 0 11.667-5.223 11.667-11.667v0c0.009-0.174 0.014-0.378 0.014-0.583 0-6.443-5.223-11.667-11.667-11.667-0.005 0-0.010 0-0.015 0h0.001zM74.317 128.917c-6.443 0-11.667 5.223-11.667 11.667s5.223 11.667 11.667 11.667c6.443 0 11.667-5.223 11.667-11.667v0c0.009-0.174 0.014-0.378 0.014-0.583 0-6.443-5.223-11.667-11.667-11.667-0.005 0-0.010 0-0.015 0h0.001zM144.317 58.917c-6.443 0-11.667 5.223-11.667 11.667s5.223 11.667 11.667 11.667c6.443 0 11.667-5.223 11.667-11.667v0c0.009-0.174 0.014-0.378 0.014-0.583 0-6.443-5.223-11.667-11.667-11.667-0.005 0-0.010 0-0.015 0h0.001zM185.617 82.833c-2.126 2.114-3.442 5.040-3.442 8.274 0 6.443 5.223 11.667 11.667 11.667s11.667-5.223 11.667-11.667c0-3.234-1.316-6.161-3.441-8.273l-0.001-0.001c-2.134-2.276-5.161-3.695-8.518-3.695-3.067 0-5.857 1.183-7.939 3.118l0.007-0.007zM259.117 82.833c-21.543-42.386-64.827-70.92-114.775-70.92-70.877 0-128.333 57.457-128.333 128.333s57.457 128.333 128.333 128.333c8.199 0 16.218-0.769 23.99-2.238l-0.799 0.126c12.225-2.358 22.488-9.375 29.065-19.091l0.101-0.159c5.121-7.62 8.173-17.001 8.173-27.096 0-3.584-0.385-7.079-1.115-10.444l0.059 0.323c-0.699-3.486-1.121-7.512-1.166-11.629l-0-0.037c0.11-23.673 14.304-44.003 34.629-53.052l0.371-0.148c11.268-5.132 19.875-14.46 23.937-25.936l0.097-0.314c1.593-4.505 2.514-9.699 2.514-15.109 0-7.727-1.878-15.016-5.203-21.434l0.123 0.26zM239.283 111.3c-2.069 5.688-6.23 10.191-11.53 12.66l-0.136 0.057c-28.639 13.049-48.207 41.386-48.3 74.304v0.012c0.019 5.791 0.613 11.431 1.727 16.882l-0.094-0.549c0.363 1.604 0.572 3.447 0.572 5.338 0 5.182-1.564 9.999-4.246 14.004l0.057-0.091c-3.15 4.867-8.156 8.302-13.992 9.315l-0.125 0.018c-5.649 1.113-12.144 1.75-18.789 1.75-0.039 0-0.078 0-0.117 0h0.006c-0.015 0-0.033 0-0.051 0-57.99 0-105-47.010-105-105 0-1.149 0.018-2.293 0.055-3.433l-0.004 0.167c1.938-54.425 44.787-98.246 98.622-101.717l0.311-0.016h5.95c40.977 0.011 76.467 23.493 93.758 57.732l0.275 0.601c1.463 2.964 2.319 6.453 2.319 10.142 0 2.719-0.465 5.328-1.32 7.755l0.050-0.164zM144.317 128.333c-6.443 0-11.667 5.223-11.667 11.667s5.223 11.667 11.667 11.667c6.443 0 11.667-5.223 11.667-11.667v0c0-6.443-5.223-11.667-11.667-11.667v0z"></path>
</svg>
