<!-- Generated by IcoMoon.io -->
<svg version="1.1" xmlns="http://www.w3.org/2000/svg" width="280" height="280" viewBox="0 0 280 280">
<title>pentagon</title>
<path d="M251.883 106.983l-105-76.3c-1.903-1.404-4.295-2.247-6.883-2.247s-4.98 0.843-6.916 2.27l0.032-0.023-105 76.3c-2.915 2.147-4.784 5.565-4.784 9.42 0 1.304 0.214 2.558 0.608 3.728l-0.024-0.082 40.133 123.433c1.566 4.72 5.941 8.064 11.096 8.064 0.2 0 0.4-0.005 0.598-0.015l-0.028 0.001h129.15c0.17 0.009 0.37 0.014 0.57 0.014 5.156 0 9.53-3.344 11.073-7.982l0.024-0.082 40.133-123.433c0.305-0.992 0.48-2.133 0.48-3.314 0-4.060-2.074-7.636-5.221-9.726l-0.043-0.027zM196.467 228.2h-112.933l-35-107.333 91.467-66.267 91.233 66.267z"></path>
</svg>
