<!-- Generated by IcoMoon.io -->
<svg version="1.1" xmlns="http://www.w3.org/2000/svg" width="280" height="280" viewBox="0 0 280 280">
<title>play</title>
<path d="M216.3 105l-112.7-64.633c-5.723-3.362-12.606-5.347-19.952-5.347-22.036 0-39.9 17.864-39.9 39.9 0 0.157 0.001 0.314 0.003 0.471l-0-0.024v129.733c0 22.036 17.864 39.9 39.9 39.9v0c7.348-0.013 14.227-2.004 20.139-5.469l-0.189 0.102 112.7-64.633c11.99-7.032 19.914-19.857 19.914-34.533s-7.923-27.501-19.726-34.432l-0.188-0.102zM204.633 153.883l-112.7 65.567c-2.382 1.374-5.238 2.184-8.283 2.184s-5.902-0.81-8.365-2.227l0.081 0.043c-4.987-2.918-8.283-8.247-8.283-14.347 0-0.001 0-0.002 0-0.003v0-130.2c0-0.001 0-0.002 0-0.003 0-6.1 3.297-11.429 8.205-14.305l0.078-0.042c2.388-1.352 5.235-2.168 8.269-2.216l0.014-0c3.048 0.065 5.893 0.878 8.375 2.264l-0.091-0.047 112.7 65.1c4.99 2.917 8.288 8.248 8.288 14.35s-3.299 11.433-8.21 14.308l-0.078 0.042z"></path>
</svg>
