<!-- Generated by IcoMoon.io -->
<svg version="1.1" xmlns="http://www.w3.org/2000/svg" width="280" height="280" viewBox="0 0 280 280">
<title>puzzle-piece</title>
<path d="M198.333 256.667h-140c-19.33 0-35-15.67-35-35v0-116.667c0-19.33 15.67-35 35-35v0h11.667c0.52-25.372 21.21-45.741 46.657-45.741 15.924 0 29.986 7.976 38.408 20.152l0.102 0.155c5.029 7.090 8.072 15.897 8.166 25.41l0 0.023h35c6.443 0 11.667 5.223 11.667 11.667v0 35c25.372 0.52 45.741 21.21 45.741 46.657 0 15.924-7.976 29.986-20.152 38.408l-0.155 0.102c-7.090 5.029-15.897 8.072-25.41 8.166l-0.023 0v35c0 6.443-5.223 11.667-11.667 11.667v0zM58.333 93.333c-6.443 0-11.667 5.223-11.667 11.667v0 116.667c0 6.443 5.223 11.667 11.667 11.667v0h128.333v-37.1c0-0.019-0-0.041-0-0.063 0-3.906 1.919-7.363 4.865-9.48l0.035-0.024c1.881-1.355 4.233-2.168 6.774-2.168 1.377 0 2.698 0.238 3.924 0.676l-0.081-0.025c2.307 0.968 4.988 1.53 7.8 1.53 4.721 0 9.071-1.584 12.549-4.249l-0.049 0.036c5.65-3.487 9.655-9.177 10.829-15.843l0.021-0.14c0.135-0.943 0.212-2.033 0.212-3.14 0-5.918-2.203-11.321-5.834-15.435l0.022 0.025c-4.074-4.923-10.185-8.036-17.023-8.036-2.989 0-5.84 0.595-8.439 1.673l0.146-0.054c-1.145 0.413-2.466 0.651-3.843 0.651-2.541 0-4.892-0.812-6.808-2.192l0.035 0.024c-2.981-2.141-4.9-5.599-4.9-9.504 0-0.022 0-0.044 0-0.066v0.003-37.1h-37.333c-0.197 0.012-0.428 0.019-0.66 0.019-6.443 0-11.667-5.223-11.667-11.667 0-1.386 0.242-2.716 0.686-3.95l-0.025 0.081c0.968-2.307 1.53-4.988 1.53-7.8 0-4.721-1.584-9.071-4.249-12.549l0.036 0.049c-4.007-6.721-11.239-11.152-19.505-11.152-6.001 0-11.456 2.335-15.506 6.146l0.011-0.011c-4.263 4.229-6.902 10.090-6.902 16.567 0 0.328 0.007 0.655 0.020 0.98l-0.002-0.046c0.029 2.82 0.584 5.502 1.569 7.965l-0.052-0.148c0.414 1.147 0.654 2.471 0.654 3.85 0 6.443-5.223 11.667-11.667 11.667-0.025 0-0.049 0-0.074-0h0.004z"></path>
</svg>
