<!-- Generated by IcoMoon.io -->
<svg version="1.1" xmlns="http://www.w3.org/2000/svg" width="280" height="280" viewBox="0 0 280 280">
<title>receipt-alt</title>
<path d="M116.667 93.333h70c6.443 0 11.667-5.223 11.667-11.667s-5.223-11.667-11.667-11.667v0h-70c-6.443 0-11.667 5.223-11.667 11.667s5.223 11.667 11.667 11.667v0zM93.333 140h93.333c6.443 0 11.667-5.223 11.667-11.667s-5.223-11.667-11.667-11.667v0h-93.333c-6.443 0-11.667 5.223-11.667 11.667s5.223 11.667 11.667 11.667v0zM93.333 186.667h93.333c6.443 0 11.667-5.223 11.667-11.667s-5.223-11.667-11.667-11.667v0h-93.333c-6.443 0-11.667 5.223-11.667 11.667s5.223 11.667 11.667 11.667v0zM233.333 23.333h-186.667c-6.443 0-11.667 5.223-11.667 11.667v0 210c0 6.443 5.223 11.667 11.667 11.667 2.639 0 5.074-0.877 7.029-2.355l-0.029 0.021 24.15-18.083 24.033 18.083c1.926 1.457 4.361 2.333 7 2.333s5.074-0.877 7.029-2.355l-0.029 0.021 24.15-18.083 24.15 18.083c1.926 1.457 4.361 2.333 7 2.333s5.074-0.877 7.029-2.355l-0.029 0.021 24.033-18.083 24.15 18.083c1.92 1.444 4.345 2.312 6.972 2.312 1.926 0 3.743-0.466 5.344-1.293l-0.065 0.031c3.826-1.959 6.403-5.869 6.417-10.381v-210.002c0-6.443-5.223-11.667-11.667-11.667v0zM221.667 221.667l-12.483-9.333c-1.926-1.457-4.361-2.333-7-2.333s-5.074 0.877-7.029 2.355l0.029-0.021-24.033 18.083-24.15-18.083c-1.926-1.457-4.361-2.333-7-2.333s-5.074 0.877-7.029 2.355l0.029-0.021-24.15 18.083-24.033-18.083c-1.926-1.457-4.361-2.333-7-2.333s-5.074 0.877-7.029 2.355l0.029-0.021-12.483 9.333v-175h163.333z"></path>
</svg>
