<!-- Generated by IcoMoon.io -->
<svg version="1.1" xmlns="http://www.w3.org/2000/svg" width="280" height="280" viewBox="0 0 280 280">
<title>registered</title>
<path d="M140 23.333c-64.433 0-116.667 52.233-116.667 116.667s52.233 116.667 116.667 116.667c64.433 0 116.667-52.233 116.667-116.667v0c0-64.433-52.233-116.667-116.667-116.667v0zM140 233.333c-51.547 0-93.333-41.787-93.333-93.333s41.787-93.333 93.333-93.333c51.547 0 93.333 41.787 93.333 93.333v0c0 51.547-41.787 93.333-93.333 93.333v0zM145.833 81.667h-35c-6.443 0-11.667 5.223-11.667 11.667v0 93.333c0 6.443 5.223 11.667 11.667 11.667s11.667-5.223 11.667-11.667v0-23.333h23.333c6.443 0 11.667 5.223 11.667 11.667v0 11.667c0 6.443 5.223 11.667 11.667 11.667s11.667-5.223 11.667-11.667v0-11.667c-0.056-9.003-3.502-17.192-9.125-23.361l0.025 0.028c5.598-6.142 9.044-14.33 9.1-23.322v-11.678c0-19.33-15.67-35-35-35v0zM157.5 128.333c0 6.443-5.223 11.667-11.667 11.667v0h-23.333v-35h23.333c6.443 0 11.667 5.223 11.667 11.667v0z"></path>
</svg>
