<!-- Generated by IcoMoon.io -->
<svg version="1.1" xmlns="http://www.w3.org/2000/svg" width="280" height="280" viewBox="0 0 280 280">
<title>restaurant</title>
<path d="M196.467 135.683c0.129 0.002 0.281 0.003 0.433 0.003 9.674 0 18.431-3.925 24.766-10.269l33.017-33.017c2.097-2.109 3.393-5.016 3.393-8.225s-1.296-6.116-3.393-8.226l0.001 0.001c-2.114-2.131-5.045-3.451-8.283-3.451s-6.169 1.32-8.283 3.45l-0.001 0.001-33.367 32.9c-2.114 2.131-5.045 3.451-8.283 3.451s-6.169-1.32-8.283-3.45l-0.001-0.001 41.3-41.183c2.12-2.12 3.431-5.048 3.431-8.283 0-6.47-5.245-11.714-11.714-11.714-3.235 0-6.164 1.311-8.283 3.431v0l-41.183 41.3c-2.097-2.109-3.393-5.016-3.393-8.225s1.296-6.116 3.393-8.226l33.016-33.016c2.12-2.12 3.431-5.048 3.431-8.283 0-6.47-5.245-11.714-11.714-11.714-3.235 0-6.164 1.311-8.283 3.431l-33.017 33.017c-6.325 6.332-10.236 15.076-10.236 24.733s3.911 18.401 10.236 24.734l-0-0-15.167 15.050-96.483-96.833-1.167-0.7c-0.572-0.501-1.225-0.93-1.933-1.262l-0.051-0.021-2.1-0.817-1.4-0.933h-3.15c-0.316-0.053-0.679-0.083-1.050-0.083s-0.734 0.030-1.089 0.089l0.039-0.005c-0.757 0.279-1.412 0.634-2.007 1.066l0.024-0.016-1.867 1.167h-0.817l-0.7 1.167c-0.467 0.579-0.893 1.228-1.253 1.919l-0.031 0.065c-0.31 0.626-0.589 1.363-0.797 2.129l-0.020 0.087s0 0.817 0 1.283c-0.828 5.476-1.301 11.796-1.301 18.225 0 35.436 14.363 67.518 37.584 90.742l-0-0 30.8 30.683-63.117 63c-2.131 2.114-3.451 5.045-3.451 8.283s1.32 6.169 3.45 8.283l0.001 0.001c2.108 2.091 5.011 3.384 8.216 3.384 0.024 0 0.047 0 0.071-0h-0.004c0.020 0 0.044 0 0.068 0 3.205 0 6.108-1.292 8.217-3.384l-0.001 0.001 70.817-69.767 56.35-56.35c6.286 6.352 14.982 10.308 24.603 10.383h0.014zM107.217 156.917l-30.683-30.8c-16.277-16.493-27.174-38.331-29.825-62.646l-0.042-0.471 77.117 77zM180.017 163.567c-2.13-2.145-5.081-3.472-8.342-3.472-6.493 0-11.756 5.263-11.756 11.756 0 3.232 1.304 6.159 3.415 8.284l73.499 73.499c2.064 1.884 4.823 3.038 7.852 3.038 0.111 0 0.221-0.002 0.331-0.005l-0.016 0c0.020 0 0.044 0 0.068 0 3.205 0 6.108-1.292 8.217-3.384l-0.001 0.001c2.131-2.114 3.451-5.045 3.451-8.283s-1.32-6.169-3.45-8.283l-0.001-0.001z"></path>
</svg>
