<!-- Generated by IcoMoon.io -->
<svg version="1.1" xmlns="http://www.w3.org/2000/svg" width="280" height="280" viewBox="0 0 280 280">
<title>robot</title>
<path d="M105 175c-6.443 0-11.667 5.223-11.667 11.667s5.223 11.667 11.667 11.667c6.443 0 11.667-5.223 11.667-11.667v0c0-6.443-5.223-11.667-11.667-11.667v0zM23.333 163.333c-6.443 0-11.667 5.223-11.667 11.667v0 23.333c0 6.443 5.223 11.667 11.667 11.667s11.667-5.223 11.667-11.667v0-23.333c0-6.443-5.223-11.667-11.667-11.667v0zM256.667 163.333c-6.443 0-11.667 5.223-11.667 11.667v0 23.333c0 6.443 5.223 11.667 11.667 11.667s11.667-5.223 11.667-11.667v0-23.333c0-6.443-5.223-11.667-11.667-11.667v0zM198.333 81.667h-46.667v-14.933c6.984-4.086 11.613-11.53 11.667-20.059v-0.008c0-12.887-10.447-23.333-23.333-23.333s-23.333 10.447-23.333 23.333v0c0.053 8.537 4.683 15.981 11.557 20.007l0.11 0.060v14.933h-46.667c-19.33 0-35 15.67-35 35v0 105c0 19.33 15.67 35 35 35v0h116.667c19.33 0 35-15.67 35-35v0-105c0-19.33-15.67-35-35-35v0zM160.067 105l-5.833 23.333h-28.467l-5.833-23.333zM210 221.667c0 6.443-5.223 11.667-11.667 11.667v0h-116.667c-6.443 0-11.667-5.223-11.667-11.667v0-105c0-6.443 5.223-11.667 11.667-11.667v0h14.233l9.1 37.8c1.298 5.133 5.876 8.872 11.327 8.872 0.119 0 0.238-0.002 0.357-0.005l-0.018 0.001h46.667c0.101 0.003 0.22 0.005 0.34 0.005 5.451 0 10.029-3.738 11.31-8.791l0.017-0.081 9.1-37.8h14.233c6.443 0 11.667 5.223 11.667 11.667v0zM175 175c-6.443 0-11.667 5.223-11.667 11.667s5.223 11.667 11.667 11.667c6.443 0 11.667-5.223 11.667-11.667v0c0-6.443-5.223-11.667-11.667-11.667v0z"></path>
</svg>
