<!-- Generated by IcoMoon.io -->
<svg version="1.1" xmlns="http://www.w3.org/2000/svg" width="280" height="280" viewBox="0 0 280 280">
<title>rocket</title>
<path d="M263.679 24.057c-1.099-4.074-4.243-7.218-8.235-8.298l-0.082-0.019c-9.903-2.678-21.273-4.216-33.002-4.216-40.091 0-75.984 17.971-100.064 46.298l-0.155 0.187-13.007 15.445-30.389-7.332c-3.178-1.144-6.845-1.806-10.667-1.806-12.507 0-23.359 7.086-28.76 17.463l-0.085 0.18-25.669 45.499c-0.947 1.649-1.506 3.626-1.506 5.733 0 5.578 3.915 10.242 9.148 11.393l0.077 0.014 35.849 7.685c-2.777 8.107-5.044 17.701-6.387 27.588l-0.090 0.81c-0.062 0.452-0.098 0.975-0.098 1.506 0 3.223 1.306 6.141 3.419 8.253l36.168 36.168c2.11 2.112 5.027 3.418 8.248 3.418 0 0 0 0 0 0v0c0.336 0 0.672-0.017 1.014-0.046 10.749-0.987 20.625-3.008 30.074-5.99l-1.005 0.274 7.51 35.037c1.168 5.309 5.832 9.223 11.411 9.223 2.106 0 4.082-0.558 5.788-1.534l-0.057 0.030 45.562-25.697c10.275-6.321 17.023-17.504 17.023-30.263 0-2.939-0.358-5.794-1.032-8.524l0.051 0.243-7.801-32.188 14.432-13.271c28.58-24.137 46.607-59.993 46.607-100.060 0-11.803-1.564-23.24-4.497-34.115l0.21 0.915zM41.677 125.103l18.155-32.197c1.636-3.122 4.853-5.216 8.559-5.216 1.42 0 2.769 0.307 3.982 0.859l-0.060-0.025 20.036 4.856-7.583 9.004c-6.854 8.166-13.013 17.339-18.141 27.137l-0.401 0.841zM187.162 221.029l-31.685 17.87-5.011-23.387c10.731-5.412 19.981-11.704 28.304-19.026l-0.147 0.127 8.675-7.976 4.707 19.421c0.238 0.899 0.375 1.932 0.375 2.996 0 4.116-2.047 7.753-5.179 9.95l-0.039 0.026zM205.995 139.767l-42.987 39.506c-16.352 14.202-36.997 23.865-59.748 26.821l-0.573 0.061-28.050-28.050c4.039-23.431 13.954-44.050 28.168-60.93l-0.158 0.193 19.581-23.248c0.315-0.329 0.614-0.682 0.89-1.053l0.021-0.030 16.741-19.876c19.981-23.492 49.565-38.298 82.607-38.298 7.134 0 14.107 0.69 20.855 2.007l-0.684-0.111c1.248 6.148 1.962 13.214 1.962 20.448 0 33.093-14.947 62.695-38.459 82.423l-0.166 0.136zM195.227 67.856c-9.665 0-17.5 7.835-17.5 17.5s7.835 17.5 17.5 17.5c9.665 0 17.5-7.835 17.5-17.5v0c0-0 0-0.001 0-0.001 0-9.664-7.835-17.499-17.499-17.499-0.001 0-0.001 0-0.001 0v0z"></path>
</svg>
