<!-- Generated by IcoMoon.io -->
<svg version="1.1" xmlns="http://www.w3.org/2000/svg" width="280" height="280" viewBox="0 0 280 280">
<title>rss</title>
<path d="M33.6 196.933c-6.325 6.332-10.236 15.076-10.236 24.733s3.911 18.401 10.236 24.734l-0-0c6.332 6.325 15.076 10.236 24.733 10.236s18.401-3.911 24.734-10.236l-0 0c5.82-6.233 9.394-14.629 9.394-23.86 0-19.33-15.67-35-35-35-9.231 0-17.627 3.574-23.881 9.413l0.020-0.019zM66.617 229.95c-2.12 2.12-5.048 3.431-8.283 3.431-6.47 0-11.714-5.245-11.714-11.714 0-3.235 1.311-6.164 3.431-8.283v0c2.114-2.131 5.045-3.451 8.283-3.451s6.169 1.32 8.283 3.45l0.001 0.001c2.131 2.114 3.451 5.045 3.451 8.283s-1.32 6.169-3.45 8.283l-0.001 0.001zM58.333 140c-6.443 0-11.667 5.223-11.667 11.667s5.223 11.667 11.667 11.667v0c32.217 0 58.333 26.117 58.333 58.333v0c0 6.443 5.223 11.667 11.667 11.667s11.667-5.223 11.667-11.667v0c0-45.103-36.564-81.667-81.667-81.667v0zM58.333 93.333c-6.443 0-11.667 5.223-11.667 11.667s5.223 11.667 11.667 11.667v0c57.99 0 105 47.010 105 105v0c0 6.443 5.223 11.667 11.667 11.667s11.667-5.223 11.667-11.667v0c-0.097-35.425-14.428-67.483-37.573-90.773l0.007 0.007c-23.283-23.138-55.342-37.469-90.748-37.567h-0.019zM182.117 97.883c-31.755-31.549-75.474-51.089-123.759-51.216h-0.025c-6.443 0-11.667 5.223-11.667 11.667s5.223 11.667 11.667 11.667v0c83.763 0 151.667 67.904 151.667 151.667v0c0 6.443 5.223 11.667 11.667 11.667s11.667-5.223 11.667-11.667v0c-0.128-48.308-19.667-92.029-51.226-123.793l0.009 0.009z"></path>
</svg>
