<!-- Generated by IcoMoon.io -->
<svg version="1.1" xmlns="http://www.w3.org/2000/svg" width="280" height="280" viewBox="0 0 280 280">
<title>save</title>
<path d="M241.617 108.383l-70-70c-1.045-1.021-2.284-1.848-3.656-2.422l-0.077-0.028c-1.344-0.562-2.903-0.902-4.538-0.933l-0.012-0h-93.333c-19.33 0-35 15.67-35 35v0 140c0 19.33 15.67 35 35 35v0h140c19.33 0 35-15.67 35-35v0-93.333c0-0.020 0-0.044 0-0.068 0-3.205-1.292-6.108-3.384-8.217l0.001 0.001zM105 58.333h46.667v23.333h-46.667zM175 221.667h-70v-35c0-6.443 5.223-11.667 11.667-11.667v0h46.667c6.443 0 11.667 5.223 11.667 11.667v0zM221.667 210c0 6.443-5.223 11.667-11.667 11.667v0h-11.667v-35c0-19.33-15.67-35-35-35v0h-46.667c-19.33 0-35 15.67-35 35v0 35h-11.667c-6.443 0-11.667-5.223-11.667-11.667v0-140c0-6.443 5.223-11.667 11.667-11.667v0h11.667v35c0 6.443 5.223 11.667 11.667 11.667v0h70c6.443 0 11.667-5.223 11.667-11.667v0-18.55l46.667 46.667z"></path>
</svg>
