<!-- Generated by IcoMoon.io -->
<svg version="1.1" xmlns="http://www.w3.org/2000/svg" width="280" height="280" viewBox="0 0 280 280">
<title>screw</title>
<path d="M253.283 118.067l-91.35-91.35c-2.114-2.126-5.040-3.441-8.274-3.441-5.888 0-10.757 4.361-11.553 10.029l-0.007 0.062-8.517 59.967-23.333 23.333-3.85-2.217c-1.49-0.741-3.245-1.174-5.102-1.174-6.443 0-11.667 5.223-11.667 11.667 0 3.361 1.421 6.39 3.695 8.518l0.007 0.006-13.417 13.65-3.85-2.217c-1.429-0.672-3.103-1.064-4.869-1.064-6.443 0-11.667 5.223-11.667 11.667 0 3.304 1.374 6.288 3.581 8.411l0.004 0.004-13.65 13.533-3.733-2.45c-1.677-0.988-3.694-1.572-5.848-1.572-4.318 0-8.088 2.346-10.105 5.832l-0.030 0.056c-0.905 1.619-1.437 3.552-1.437 5.61 0 3.664 1.69 6.934 4.332 9.073l0.022 0.017-5.95 5.95c-1.051 1.065-1.884 2.348-2.425 3.775l-0.025 0.075c-0.572 1.306-0.913 2.827-0.933 4.426v36.757c0 6.443 5.223 11.667 11.667 11.667v0h36.517c1.606-0.020 3.127-0.361 4.509-0.963l-0.075 0.029c1.502-0.566 2.785-1.399 3.851-2.451l-0.001 0.001 19.833-19.95 3.85 2.217c1.689 1.006 3.724 1.601 5.899 1.601 4.282 0 8.026-2.307 10.055-5.747l0.030-0.054c0.955-1.655 1.518-3.639 1.518-5.755 0-3.648-1.675-6.906-4.297-9.045l-0.021-0.017 13.65-13.533 3.85 2.217c1.644 0.948 3.614 1.51 5.715 1.517h0.002c5.977-0.555 10.619-5.545 10.619-11.619 0-3.321-1.388-6.318-3.615-8.443l-0.005-0.004 13.65-13.533 3.85 2.217c1.644 0.948 3.614 1.51 5.715 1.517h0.002c6.353-0.117 11.458-5.295 11.458-11.665 0-3.606-1.636-6.83-4.206-8.97l-0.019-0.015 9.217-9.217 60.083-8.517c4.456-0.651 8.053-3.742 9.426-7.851l0.024-0.082c0.473-1.22 0.746-2.631 0.746-4.106 0-3.286-1.358-6.254-3.543-8.374l-0.003-0.003zM66.733 233.333h-20.067v-20.067l6.65-6.65 25.433 15.050zM95.783 204.167l-25.783-14.583 13.3-13.3 25.317 14.583zM126.233 173.833l-25.433-14.7 13.417-13.3 25.783 14.583zM156.683 143.383l-25.433-15.050 13.3-13.3 20.067 20.067zM185.267 123.083l-28.35-28.35 5.017-35 58.333 58.333z"></path>
</svg>
