<!-- Generated by IcoMoon.io -->
<svg version="1.1" xmlns="http://www.w3.org/2000/svg" width="280" height="280" viewBox="0 0 280 280">
<title>search-alt</title>
<path d="M245.817 196.35l-24.15-24.733c-6.432-6.123-15.154-9.889-24.757-9.889-5.406 0-10.533 1.194-15.131 3.332l0.221-0.092-10.5-10.5c10.166-13.466 16.283-30.485 16.283-48.933 0-45.103-36.564-81.667-81.667-81.667s-81.667 36.564-81.667 81.667c0 45.103 36.564 81.667 81.667 81.667 18.448 0 35.467-6.117 49.14-16.433l-0.207 0.15 10.383 10.383c-2.401 4.618-3.81 10.084-3.81 15.879 0 9.536 3.813 18.181 9.999 24.493l-0.006-0.006 24.733 24.733c6.332 6.325 15.076 10.236 24.733 10.236s18.401-3.911 24.734-10.236l-0 0c6.5-6.36 10.531-15.222 10.531-25.025s-4.030-18.665-10.524-25.019l-0.006-0.006zM146.883 146.883c-10.551 10.525-25.113 17.033-41.196 17.033-32.217 0-58.333-26.117-58.333-58.333s26.117-58.333 58.333-58.333c16.083 0 30.645 6.508 41.197 17.035l-0.001-0.001c10.588 10.562 17.138 25.166 17.138 41.3s-6.55 30.738-17.136 41.299l-0.001 0.001zM229.367 229.367c-2.114 2.131-5.045 3.451-8.283 3.451s-6.169-1.32-8.283-3.45l-24.734-24.734c-2.131-2.114-3.451-5.045-3.451-8.283s1.32-6.169 3.45-8.283l0.001-0.001c2.114-2.131 5.045-3.451 8.283-3.451s6.169 1.32 8.283 3.45l24.734 24.734c2.131 2.114 3.451 5.045 3.451 8.283s-1.32 6.169-3.45 8.283l-0.001 0.001z"></path>
</svg>
