<!-- Generated by IcoMoon.io -->
<svg version="1.1" xmlns="http://www.w3.org/2000/svg" width="280" height="280" viewBox="0 0 280 280">
<title>sliders-v</title>
<path d="M81.667 70h-11.667v-35c0-6.443-5.223-11.667-11.667-11.667s-11.667 5.223-11.667 11.667v0 35h-11.667c-6.443 0-11.667 5.223-11.667 11.667s5.223 11.667 11.667 11.667v0h46.667c6.443 0 11.667-5.223 11.667-11.667s-5.223-11.667-11.667-11.667v0zM58.333 116.667c-6.443 0-11.667 5.223-11.667 11.667v0 116.667c0 6.443 5.223 11.667 11.667 11.667s11.667-5.223 11.667-11.667v0-116.667c0-6.443-5.223-11.667-11.667-11.667v0zM140 210c-6.443 0-11.667 5.223-11.667 11.667v0 23.333c0 6.443 5.223 11.667 11.667 11.667s11.667-5.223 11.667-11.667v0-23.333c0-6.443-5.223-11.667-11.667-11.667v0zM245 116.667h-11.667v-81.667c0-6.443-5.223-11.667-11.667-11.667s-11.667 5.223-11.667 11.667v0 81.667h-11.667c-6.443 0-11.667 5.223-11.667 11.667s5.223 11.667 11.667 11.667v0h46.667c6.443 0 11.667-5.223 11.667-11.667s-5.223-11.667-11.667-11.667v0zM221.667 163.333c-6.443 0-11.667 5.223-11.667 11.667v0 70c0 6.443 5.223 11.667 11.667 11.667s11.667-5.223 11.667-11.667v0-70c0-6.443-5.223-11.667-11.667-11.667v0zM163.333 163.333h-11.667v-128.333c0-6.443-5.223-11.667-11.667-11.667s-11.667 5.223-11.667 11.667v0 128.333h-11.667c-6.443 0-11.667 5.223-11.667 11.667s5.223 11.667 11.667 11.667v0h46.667c6.443 0 11.667-5.223 11.667-11.667s-5.223-11.667-11.667-11.667v0z"></path>
</svg>
