<!-- Generated by IcoMoon.io -->
<svg version="1.1" xmlns="http://www.w3.org/2000/svg" width="280" height="280" viewBox="0 0 280 280">
<title>spin</title>
<path d="M151.667 35c-45.103 0-81.667 36.564-81.667 81.667s36.564 81.667 81.667 81.667v0c32.217 0 58.333-26.117 58.333-58.333s-26.117-58.333-58.333-58.333v0c-19.33 0-35 15.67-35 35s15.67 35 35 35v0c6.443 0 11.667-5.223 11.667-11.667s-5.223-11.667-11.667-11.667v0c-6.443 0-11.667-5.223-11.667-11.667s5.223-11.667 11.667-11.667v0c19.33 0 35 15.67 35 35s-15.67 35-35 35v0c-32.217 0-58.333-26.117-58.333-58.333s26.117-58.333 58.333-58.333v0c45.103 0 81.667 36.564 81.667 81.667s-36.564 81.667-81.667 81.667v0c-57.99 0-105-47.010-105-105v0c0-6.443-5.223-11.667-11.667-11.667s-11.667 5.223-11.667 11.667v0c0 70.877 57.457 128.333 128.333 128.333v0c57.99 0 105-47.010 105-105s-47.010-105-105-105v0z"></path>
</svg>
