<!-- Generated by IcoMoon.io -->
<svg version="1.1" xmlns="http://www.w3.org/2000/svg" width="280" height="280" viewBox="0 0 280 280">
<title>star</title>
<path d="M256.667 112.817c-1.516-4.301-5.365-7.406-9.989-7.813l-0.044-0.003-66.383-9.683-29.75-60.317c-1.933-3.927-5.907-6.581-10.5-6.581s-8.567 2.654-10.47 6.513l-0.030 0.068-29.75 60.2-66.383 9.8c-4.456 0.651-8.053 3.742-9.426 7.851l-0.024 0.082c-0.323 1.020-0.509 2.192-0.509 3.408 0 3.226 1.309 6.146 3.425 8.258l0 0 48.183 46.667-11.667 66.267c-0.131 0.656-0.206 1.41-0.206 2.182 0 3.893 1.907 7.342 4.838 9.461l0.034 0.024c1.884 1.36 4.239 2.176 6.785 2.176 2 0 3.882-0.503 5.527-1.39l-0.062 0.031 59.733-31.15 59.5 31.267c1.534 0.881 3.372 1.4 5.331 1.4 0.013 0 0.025 0 0.037 0h-0.002c0.012 0 0.027 0 0.042 0 2.571 0 4.947-0.831 6.875-2.24l-0.033 0.023c2.965-2.143 4.873-5.591 4.873-9.484 0-0.772-0.075-1.526-0.218-2.256l0.012 0.074-11.667-66.267 48.183-46.667c2.531-2.154 4.125-5.341 4.125-8.901 0-1.066-0.143-2.099-0.411-3.080l0.019 0.082zM184.917 159.483c-2.194 2.124-3.556 5.096-3.556 8.386 0 0.706 0.063 1.397 0.183 2.068l-0.010-0.071 8.4 48.883-43.867-23.333c-1.588-0.862-3.476-1.369-5.483-1.369s-3.896 0.507-5.545 1.399l0.062-0.031-43.867 23.333 8.4-48.883c0.11-0.6 0.172-1.292 0.172-1.997 0-3.29-1.362-6.262-3.553-8.383l-35.003-35.003 49.117-7.117c3.915-0.559 7.16-2.994 8.836-6.349l0.031-0.068 20.767-44.45 21.933 44.567c1.707 3.423 4.952 5.857 8.804 6.409l0.062 0.007 49.117 7.117z"></path>
</svg>
