<!-- Generated by IcoMoon.io -->
<svg version="1.1" xmlns="http://www.w3.org/2000/svg" width="280" height="280" viewBox="0 0 280 280">
<title>stethoscope-alt</title>
<path d="M221.667 93.333c-0.026 0-0.057 0-0.088 0-19.282 0-34.913 15.631-34.913 34.913 0 15.132 9.627 28.016 23.090 32.86l0.243 0.077v19.651c0 28.995-23.505 52.5-52.5 52.5s-52.5-23.505-52.5-52.5v0-11.895l36.447-29.15c13.388-10.728 21.887-27.077 21.887-45.411 0-0.049 0-0.098-0-0.146v0.007-59.239c0-6.443-5.223-11.667-11.667-11.667v0h-23.333c-6.443 0-11.667 5.223-11.667 11.667s5.223 11.667 11.667 11.667v0h11.667v47.572c0 0.025 0 0.054 0 0.084 0 11.001-5.099 20.811-13.062 27.195l-0.069 0.053-33.536 26.82-33.53-26.82c-8.035-6.435-13.137-16.245-13.137-27.247 0-0.030 0-0.060 0-0.090v0.005-47.572h11.667c6.443 0 11.667-5.223 11.667-11.667s-5.223-11.667-11.667-11.667v0h-23.333c-6.443 0-11.667 5.223-11.667 11.667v0 59.239c0 0.042-0 0.091-0 0.14 0 18.335 8.501 34.684 21.778 45.321l0.115 0.089 36.441 29.149v11.895c0 41.882 33.952 75.833 75.833 75.833s75.833-33.952 75.833-75.833v0-19.65c13.707-4.921 23.333-17.805 23.333-32.937 0-19.282-15.631-34.913-34.913-34.913-0.030 0-0.061 0-0.091 0h0.005zM221.667 140c-6.443 0-11.667-5.223-11.667-11.667s5.223-11.667 11.667-11.667c6.443 0 11.667 5.223 11.667 11.667v0c-0.009 6.44-5.227 11.658-11.666 11.667h-0.001z"></path>
</svg>
