<!-- Generated by IcoMoon.io -->
<svg version="1.1" xmlns="http://www.w3.org/2000/svg" width="280" height="280" viewBox="0 0 280 280">
<title>swatchbook</title>
<path d="M81.667 186.667c-6.443 0-11.667 5.223-11.667 11.667s5.223 11.667 11.667 11.667c6.443 0 11.667-5.223 11.667-11.667v0c0-6.443-5.223-11.667-11.667-11.667v0zM222.367 140l14.35-14.35c6.325-6.332 10.236-15.076 10.236-24.733s-3.911-18.401-10.236-24.734l0 0-33.017-32.9c-6.332-6.325-15.076-10.236-24.733-10.236s-18.401 3.911-24.734 10.236l0-0-14.233 14.35c-0.393-19.027-15.909-34.3-34.993-34.3-0.002 0-0.005 0-0.007 0h-46.666c-19.33 0-35 15.67-35 35v0 163.333c0 19.33 15.67 35 35 35v0h163.333c19.33 0 35-15.67 35-35v0-46.667c0-0.002 0-0.005 0-0.007 0-19.084-15.273-34.6-34.263-34.992l-0.037-0.001zM116.667 221.667c0 6.443-5.223 11.667-11.667 11.667v0h-46.667c-6.443 0-11.667-5.223-11.667-11.667v0-163.333c0-6.443 5.223-11.667 11.667-11.667v0h46.667c6.443 0 11.667 5.223 11.667 11.667v0zM140 90.533l30.8-30.8c2.109-2.097 5.016-3.393 8.225-3.393s6.116 1.296 8.226 3.393l-0.001-0.001 33.017 33.6c2.097 2.109 3.393 5.016 3.393 8.225s-1.296 6.116-3.393 8.226l-33.599 33.599-46.667 46.083zM233.333 221.667c0 6.443-5.223 11.667-11.667 11.667v0h-83.767c1.139-3.18 1.855-6.853 1.982-10.674l0.002-0.060 59.267-59.267h22.517c6.443 0 11.667 5.223 11.667 11.667v0z"></path>
</svg>
