<!-- Generated by IcoMoon.io -->
<svg version="1.1" xmlns="http://www.w3.org/2000/svg" width="280" height="280" viewBox="0 0 280 280">
<title>sync-slash</title>
<path d="M231.933 180.833h-52.5c-6.443 0-11.667 5.223-11.667 11.667s5.223 11.667 11.667 11.667v0h28c-16.971 17.898-40.888 29.066-67.415 29.166h-0.019c-13.144-0.013-25.654-2.715-37.014-7.584l0.614 0.234-17.383 17.383c15.533 8.377 33.995 13.3 53.607 13.3 0.062 0 0.124 0 0.186-0h-0.010c31.164-0.092 59.438-12.388 80.31-32.357l-0.043 0.041v20.65c0 6.443 5.223 11.667 11.667 11.667s11.667-5.223 11.667-11.667v0-52.5c0-6.443-5.223-11.667-11.667-11.667v0zM213.617 82.833v0l40.017-40.017c2.12-2.12 3.431-5.048 3.431-8.283 0-6.47-5.245-11.714-11.714-11.714-3.235 0-6.164 1.311-8.283 3.431l-23.333 23.333c-19.761-16.34-45.359-26.251-73.272-26.251-0.162 0-0.325 0-0.487 0.001h0.025c-31.164 0.092-59.438 12.388-80.31 32.358l0.043-0.041v-20.65c0-6.443-5.223-11.667-11.667-11.667s-11.667 5.223-11.667 11.667v0 52.5c0 6.443 5.223 11.667 11.667 11.667v0h52.5c6.443 0 11.667-5.223 11.667-11.667s-5.223-11.667-11.667-11.667v0h-28c16.916-17.965 40.857-29.151 67.411-29.151 21.625 0 41.516 7.419 57.268 19.85l-0.196-0.149-130.667 130.667c-12.283-15.549-19.707-35.432-19.717-57.048v-0.002c0-6.443-5.223-11.667-11.667-11.667s-11.667 5.223-11.667 11.667v0c0 0.053-0 0.116-0 0.18 0 28.041 10.003 53.746 26.635 73.741l-0.152-0.188-23.333 23.333c-2.131 2.114-3.451 5.045-3.451 8.283s1.32 6.169 3.45 8.283l0.001 0.001c2.114 2.131 5.045 3.451 8.283 3.451s6.169-1.32 8.283-3.45l40.018-40.018zM225.983 103.6c4.635 10.746 7.337 23.256 7.35 36.395v0.005c0 6.443 5.223 11.667 11.667 11.667s11.667-5.223 11.667-11.667v0c0-0.052 0-0.114 0-0.176 0-19.612-4.923-38.075-13.601-54.219l0.301 0.612z"></path>
</svg>
