<!-- Generated by IcoMoon.io -->
<svg version="1.1" xmlns="http://www.w3.org/2000/svg" width="280" height="280" viewBox="0 0 280 280">
<title>telescope</title>
<path d="M255.5 88.55l-11.667-45.15c-4.1-15.106-17.69-26.034-33.832-26.034-3.365 0-6.619 0.475-9.699 1.361l0.247-0.061-22.517 6.067c-5.044 1.361-8.694 5.895-8.694 11.281 0 1.092 0.15 2.148 0.43 3.151l-0.020-0.082 3.033 11.667-123.9 32.783c-5.029 1.371-8.665 5.898-8.665 11.274 0 1.052 0.139 2.072 0.4 3.041l-0.019-0.081 3.033 11.667-11.667 3.033c-5.836 0.75-10.299 5.687-10.299 11.667 0 6.494 5.264 11.758 11.758 11.758 0.514 0 1.020-0.033 1.517-0.097l-0.059 0.006c0.455 0.058 0.982 0.091 1.517 0.091s1.061-0.033 1.579-0.097l-0.062 0.006 11.667-3.15 3.033 11.667c0.837 3.001 2.762 5.458 5.313 6.97l0.054 0.030c1.668 1.006 3.678 1.61 5.827 1.633h0.007c0.456 0.084 0.981 0.132 1.517 0.132s1.061-0.048 1.57-0.141l-0.053 0.008 38.15-12.017v4.9c0.009 5.441 1.3 10.578 3.589 15.128l-0.089-0.194-58.333 58.333c-2.13 2.115-3.448 5.045-3.448 8.283 0 6.447 5.226 11.673 11.673 11.673 3.209 0 6.115-1.295 8.226-3.391l58.333-58.333 3.267 1.283v72.217c0 6.443 5.223 11.667 11.667 11.667s11.667-5.223 11.667-11.667v0-72.1c1.357-0.466 2.474-0.94 3.554-1.477l-0.171 0.077 58.333 58.333c2.11 2.095 5.016 3.39 8.225 3.39 6.447 0 11.673-5.226 11.673-11.673 0-3.238-1.318-6.168-3.447-8.283l-58.334-58.334c2.167-4.359 3.488-9.477 3.616-14.891l0.001-0.043v-23.333l15.75-4.2 2.917 11.667c1.38 5.016 5.9 8.64 11.267 8.64 0.141 0 0.28-0.002 0.419-0.007l-0.020 0.001h3.033l22.517-6.067c15.147-4.072 26.115-17.682 26.115-33.853 0-3.613-0.547-7.099-1.564-10.378l0.066 0.248zM151.667 145.833c-0.013 3.129-1.256 5.966-3.27 8.054l0.003-0.004c-2.084 2.011-4.921 3.254-8.048 3.267h-0.002c-3.187-0.014-6.070-1.303-8.167-3.384l0.001 0.001c-2.080-2.096-3.37-4.98-3.383-8.164v-11.669l22.867-5.6zM72.217 125.533l-6.067-22.517 112.7-30.217 6.067 23.333zM231.817 103.367c-1.547 2.673-4.052 4.645-7.035 5.464l-0.082 0.019-11.667 3.033-9.1-33.833-5.6-22.517-3.033-11.667 11.667-3.033c0.92-0.261 1.977-0.411 3.069-0.411 5.386 0 9.92 3.65 11.263 8.612l0.019 0.082 11.667 45.15c0.281 0.955 0.444 2.051 0.444 3.186 0 2.181-0.598 4.222-1.64 5.968l0.030-0.053z"></path>
</svg>
