<!-- Generated by IcoMoon.io -->
<svg version="1.1" xmlns="http://www.w3.org/2000/svg" width="280" height="280" viewBox="0 0 280 280">
<title>tennis-ball</title>
<path d="M140 23.333c-64.338 0.126-116.445 52.311-116.445 116.666 0 30.45 11.665 58.175 30.771 78.95l-0.076-0.083 1.050 1.167c21.308 22.461 51.372 36.436 84.7 36.436s63.392-13.975 84.651-36.384l0.049-0.052 1.050-1.167c19.030-20.692 30.695-48.417 30.695-78.867 0-64.355-52.107-116.54-116.433-116.666h-0.012zM65.45 195.883c-11.724-15.34-18.785-34.787-18.785-55.883s7.061-40.544 18.949-56.107l-0.164 0.224c16.988 12.911 27.845 33.129 27.845 55.883s-10.857 42.972-27.672 55.758l-0.172 0.126zM140 233.333c-0.046 0-0.1 0-0.153 0-22.133 0-42.445-7.792-58.345-20.781l0.165 0.131c21.287-17.248 34.782-43.39 34.782-72.683s-13.495-55.435-34.608-72.547l-0.174-0.137c15.79-12.854 36.153-20.64 58.333-20.64s42.543 7.786 58.503 20.774l-0.17-0.134c-21.287 17.248-34.782 43.39-34.782 72.683s13.495 55.435 34.608 72.547l0.174 0.137c-15.734 12.859-36.047 20.65-58.18 20.65-0.054 0-0.108 0-0.162-0h0.008zM214.55 195.883c-16.988-12.911-27.845-33.129-27.845-55.883s10.857-42.972 27.672-55.758l0.172-0.126c11.724 15.34 18.785 34.787 18.785 55.883s-7.061 40.544-18.949 56.107l0.164-0.224z"></path>
</svg>
