<!-- Generated by IcoMoon.io -->
<svg version="1.1" xmlns="http://www.w3.org/2000/svg" width="280" height="280" viewBox="0 0 280 280">
<title>text-fields</title>
<path d="M186.667 70c0-6.443-5.223-11.667-11.667-11.667v0h-140c-6.443 0-11.667 5.223-11.667 11.667s5.223 11.667 11.667 11.667v0h58.333v128.333c0 6.443 5.223 11.667 11.667 11.667s11.667-5.223 11.667-11.667v0-128.333h58.333c6.443 0 11.667-5.223 11.667-11.667v0zM245 128.333h-70c-6.443 0-11.667 5.223-11.667 11.667s5.223 11.667 11.667 11.667v0h23.333v58.333c0 6.443 5.223 11.667 11.667 11.667s11.667-5.223 11.667-11.667v0-58.333h23.333c6.443 0 11.667-5.223 11.667-11.667s-5.223-11.667-11.667-11.667v0z"></path>
</svg>
