<!-- Generated by IcoMoon.io -->
<svg version="1.1" xmlns="http://www.w3.org/2000/svg" width="280" height="280" viewBox="0 0 280 280">
<title>thunderstorm-sun</title>
<path d="M135.1 192.5h-14.7l10.033-17.5c1.142-1.772 1.821-3.936 1.821-6.259 0-6.443-5.223-11.667-11.667-11.667-4.466 0-8.346 2.51-10.307 6.196l-0.031 0.063-20.183 35c-0.983 1.673-1.563 3.686-1.563 5.834 0 6.419 5.184 11.627 11.593 11.666h14.821l-9.917 17.5c-0.979 1.674-1.557 3.686-1.557 5.833 0 6.465 5.241 11.707 11.707 11.707 4.318 0 8.091-2.338 10.12-5.818l0.030-0.056 20.183-35c0.983-1.673 1.563-3.686 1.563-5.833s-0.581-4.16-1.593-5.888l0.030 0.055c-2.054-3.514-5.809-5.837-10.105-5.837-0.098 0-0.195 0.001-0.292 0.004l0.014-0zM245 87.5h-9.333c-1.316-5.609-3.406-10.556-6.189-15.027l0.122 0.21 6.533-6.533c1.744-2.027 2.805-4.684 2.805-7.589 0-6.443-5.223-11.667-11.667-11.667-2.905 0-5.562 1.062-7.604 2.818l0.015-0.013-6.533 6.533c-4.261-2.661-9.208-4.751-14.48-5.999l-0.337-0.067v-9.333c0-6.443-5.223-11.667-11.667-11.667s-11.667 5.223-11.667 11.667v0 9.333c-5.609 1.316-10.556 3.406-15.027 6.189l0.21-0.122-6.533-6.533c-2.027-1.744-4.684-2.805-7.589-2.805-6.443 0-11.667 5.223-11.667 11.667 0 2.905 1.062 5.562 2.818 7.604l-0.013-0.015 6.533 6.65c-1.050 1.75-1.867 3.733-2.8 5.6-5.522-1.619-11.866-2.556-18.428-2.567h-0.006c-0.012 0-0.026 0-0.040 0-35.078 0-64.131 25.803-69.212 59.464l-0.048 0.386c-17.409 4.881-29.963 20.61-29.963 39.271 0 17.192 10.654 31.895 25.721 37.866l0.275 0.096c1.465 0.713 3.187 1.129 5.007 1.129 6.443 0 11.667-5.223 11.667-11.667 0-5.233-3.445-9.661-8.191-11.14l-0.083-0.022c-6.46-2.671-10.922-8.923-10.922-16.217 0-9.649 7.81-17.475 17.453-17.5h0.002c6.443 0 11.667-5.223 11.667-11.667v0c0.12-25.682 20.967-46.455 46.666-46.455 20.307 0 37.584 12.97 44 31.078l0.101 0.326c1.378 4.054 4.813 7.063 9.030 7.806l0.070 0.010c12.838 2.335 22.444 13.429 22.444 26.767 0 12.284-8.148 22.665-19.335 26.033l-0.192 0.050c-5.789 0.804-10.198 5.72-10.198 11.667 0 6.502 5.271 11.773 11.773 11.773 0.555 0 1.102-0.039 1.637-0.113l-0.062 0.007c0.474 0.081 1.019 0.127 1.575 0.127s1.101-0.046 1.632-0.135l-0.057 0.008c21.362-6.073 36.745-25.409 36.745-48.338 0-6.622-1.283-12.945-3.614-18.733l0.12 0.337 1.517 1.517c2.096 2.080 4.98 3.37 8.164 3.383h0.003c0.020 0 0.044 0 0.068 0 3.205 0 6.108-1.292 8.217-3.384l-0.001 0.001c2.097-2.109 3.393-5.016 3.393-8.225s-1.296-6.116-3.393-8.226l-6.533-6.533c2.756-4.532 4.86-9.808 6.012-15.43l0.055-0.32h9.333c6.443 0 11.667-5.223 11.667-11.667s-5.223-11.667-11.667-11.667v0zM206.033 118.417v0c-1.999 1.901-4.309 3.502-6.84 4.714l-0.16 0.069c-3.557-2.622-7.646-4.83-12.028-6.426l-0.338-0.108c-5.54-11.911-13.856-21.725-24.15-28.896l-0.233-0.154c1.379-3.151 3.184-5.852 5.38-8.181l-0.013 0.014c5.039-4.671 11.81-7.538 19.25-7.538s14.211 2.866 19.268 7.554l-0.018-0.017c4.826 4.972 7.801 11.764 7.801 19.25s-2.975 14.278-7.808 19.257l0.007-0.007z"></path>
</svg>
