<!-- Generated by IcoMoon.io -->
<svg version="1.1" xmlns="http://www.w3.org/2000/svg" width="280" height="280" viewBox="0 0 280 280">
<title>toilet-paper</title>
<path d="M259.697 237.497c-12.772-15.143-20.534-34.874-20.534-56.419 0-0.283 0.001-0.565 0.004-0.847l-0 0.043v-87.027c0-38.6-26.17-70-58.333-70h-105c-32.163 0-58.333 31.4-58.333 70s26.17 70 58.333 70h35v17.027c-0.002 0.236-0.003 0.515-0.003 0.794 0 27.356 9.883 52.404 26.273 71.767l-0.134-0.163c2.154 2.502 5.325 4.078 8.864 4.079h105c6.443-0.003 11.665-5.226 11.665-11.67 0-2.903-1.060-5.558-2.814-7.6l0.013 0.016zM75.833 139.915c-19.3 0-35-20.935-35-46.667s15.7-46.667 35-46.667 35 20.935 35 46.667-15.7 46.667-35 46.667zM151.422 233.419c-10.78-14.485-17.257-32.728-17.257-52.484 0-0.232 0.001-0.464 0.003-0.696l-0 0.036v-81.667c0-0.329-0.161-0.605-0.187-0.927 0.078-1.473 0.187-2.937 0.187-4.433 0.002-0.215 0.003-0.469 0.003-0.723 0-17.275-5.621-33.238-15.132-46.159l0.151 0.215h61.645c19.3 0 35 20.935 35 46.667v87.027c-0 0.111-0.001 0.243-0.001 0.374 0 19.3 4.826 37.472 13.337 53.377l-0.297-0.608zM75.833 78.667c-6.645 0.845-11.731 6.464-11.731 13.27 0 0.462 0.024 0.919 0.069 1.369l-0.005-0.057c-0.041 0.394-0.065 0.85-0.065 1.313 0 6.807 5.086 12.426 11.665 13.264l0.066 0.007c6.645-0.845 11.731-6.464 11.731-13.27 0-0.462-0.024-0.919-0.069-1.369l0.005 0.057c0.041-0.394 0.065-0.85 0.065-1.313 0-6.807-5.086-12.426-11.665-13.264l-0.066-0.007z"></path>
</svg>
