<!-- Generated by IcoMoon.io -->
<svg version="1.1" xmlns="http://www.w3.org/2000/svg" width="280" height="280" viewBox="0 0 280 280">
<title>trowel</title>
<path d="M246.4 33.6c-6.429-6.109-15.142-9.867-24.733-9.867s-18.305 3.758-24.749 9.881l0.015-0.014-28.233 28.117c-6.25 6.319-10.111 15.013-10.111 24.608 0 5.519 1.277 10.739 3.552 15.382l-0.091-0.206-25.083 25.083-23.333-23.333c-6.362-6.511-15.23-10.548-25.042-10.548-15.469 0-28.594 10.035-33.22 23.951l-0.071 0.247-31.033 93.333c-1.147 3.315-1.81 7.135-1.81 11.109 0 9.644 3.901 18.378 10.211 24.708l-0.001-0.001c6.368 6.554 15.265 10.621 25.113 10.621 0.195 0 0.389-0.002 0.583-0.005l-0.029 0c0.186 0.004 0.406 0.006 0.626 0.006 3.956 0 7.751-0.686 11.274-1.946l-0.234 0.073 93.333-31.033c14.163-4.697 24.198-17.822 24.198-33.291 0-9.812-4.037-18.68-10.541-25.035l-0.007-0.007-23.333-23.333 25.083-25.083c4.436 2.184 9.657 3.461 15.176 3.461 9.595 0 18.288-3.861 24.611-10.114l-0.003 0.003 28.117-28.233c5.981-6.268 9.662-14.777 9.662-24.145 0-9.487-3.775-18.092-9.904-24.396l0.008 0.008zM159.833 182.35c2.066 2.103 3.34 4.989 3.34 8.172 0 5.135-3.317 9.494-7.925 11.054l-0.082 0.024-93.1 31.733c-1.020 0.323-2.192 0.509-3.408 0.509-3.226 0-6.146-1.309-8.258-3.425l-0-0c-2.116-2.112-3.426-5.032-3.426-8.258 0-1.216 0.186-2.389 0.531-3.491l-0.022 0.083 31.15-93.333c0.933-4.22 4.053-7.534 8.084-8.729l0.083-0.021c0.402-0.046 0.869-0.072 1.342-0.072s0.939 0.026 1.398 0.077l-0.056-0.005c3.187 0.014 6.070 1.303 8.167 3.384l23.332 23.332-10.15 10.033c-2.131 2.114-3.451 5.045-3.451 8.283s1.32 6.169 3.45 8.283l0.001 0.001c2.114 2.131 5.045 3.451 8.283 3.451s6.169-1.32 8.283-3.45l0.001-0.001 10.033-10.15zM229.833 66.617l-28.117 28.117c-2.103 2.062-4.986 3.335-8.167 3.335-6.426 0-11.639-5.196-11.666-11.616v-0.003c0.014-3.187 1.303-6.070 3.384-8.167l-0.001 0.001 28.117-28.233c2.114-2.131 5.045-3.451 8.283-3.451s6.169 1.32 8.283 3.45l0.001 0.001c2.131 2.114 3.451 5.045 3.451 8.283s-1.32 6.169-3.45 8.283l-0.001 0.001z"></path>
</svg>
