<!-- Generated by IcoMoon.io -->
<svg version="1.1" xmlns="http://www.w3.org/2000/svg" width="280" height="280" viewBox="0 0 280 280">
<title>tumblr</title>
<path d="M195.883 210c-5.568 2.367-12.030 3.846-18.808 4.081l-0.092 0.002c-0.663 0.076-1.432 0.12-2.21 0.12-11.276 0-20.417-9.141-20.417-20.417 0-1.072 0.083-2.124 0.242-3.151l-0.014 0.114v-72.683h46.667v-35h-46.667v-59.733h-34.067c-0.915 0.063-1.633 0.821-1.633 1.746 0 0.001 0 0.003 0 0.004v-0c-1.579 28.764-19.986 52.859-45.48 62.718l-0.487 0.166v30.1h23.333v76.3c0 26.017 19.25 63.117 70 62.3 17.15 0 36.283-7.467 40.483-13.65z"></path>
</svg>
