<!-- Generated by IcoMoon.io -->
<svg version="1.1" xmlns="http://www.w3.org/2000/svg" width="280" height="280" viewBox="0 0 280 280">
<title>vector-square</title>
<path d="M233.333 188.767v-97.533c13.79-4.907 23.485-17.847 23.485-33.051 0-19.33-15.67-35-35-35-15.204 0-28.144 9.695-32.975 23.24l-0.076 0.244h-97.533c-4.907-13.79-17.847-23.485-33.051-23.485-19.33 0-35 15.67-35 35 0 15.204 9.695 28.144 23.24 32.975l0.244 0.076v97.533c-13.79 4.907-23.485 17.847-23.485 33.051 0 19.33 15.67 35 35 35 15.204 0 28.144-9.695 32.975-23.24l0.076-0.244h97.533c4.907 13.79 17.847 23.485 33.051 23.485 19.33 0 35-15.67 35-35 0-15.204-9.695-28.144-23.24-32.975l-0.244-0.076zM221.667 46.667c6.443 0 11.667 5.223 11.667 11.667s-5.223 11.667-11.667 11.667c-6.443 0-11.667-5.223-11.667-11.667v0c0-6.443 5.223-11.667 11.667-11.667v0zM58.333 46.667c6.443 0 11.667 5.223 11.667 11.667s-5.223 11.667-11.667 11.667c-6.443 0-11.667-5.223-11.667-11.667v0c0-6.443 5.223-11.667 11.667-11.667v0zM58.333 233.333c-6.443 0-11.667-5.223-11.667-11.667s5.223-11.667 11.667-11.667c6.443 0 11.667 5.223 11.667 11.667v0c0 6.443-5.223 11.667-11.667 11.667v0zM188.767 210h-97.533c-3.608-9.934-11.299-17.625-20.99-21.156l-0.243-0.077v-97.533c9.934-3.608 17.625-11.299 21.156-20.99l0.077-0.243h97.533c3.608 9.934 11.299 17.625 20.99 21.156l0.243 0.077v97.533c-9.934 3.608-17.625 11.299-21.156 20.99l-0.077 0.243zM221.667 233.333c-6.443 0-11.667-5.223-11.667-11.667s5.223-11.667 11.667-11.667c6.443 0 11.667 5.223 11.667 11.667v0c0 6.443-5.223 11.667-11.667 11.667v0z"></path>
</svg>
