<!-- Generated by IcoMoon.io -->
<svg version="1.1" xmlns="http://www.w3.org/2000/svg" width="280" height="280" viewBox="0 0 280 280">
<title>vertical-align-top</title>
<path d="M245 23.333h-210c-6.443 0-11.667 5.223-11.667 11.667s5.223 11.667 11.667 11.667v0h35v198.333c0 6.443 5.223 11.667 11.667 11.667v0h70c6.443 0 11.667-5.223 11.667-11.667v0-58.333h35c6.443 0 11.667-5.223 11.667-11.667v0-128.333h35c6.443 0 11.667-5.223 11.667-11.667s-5.223-11.667-11.667-11.667v0zM140 233.333h-46.667v-186.667h46.667zM186.667 163.333h-23.333v-116.667h23.333z"></path>
</svg>
