<!-- Generated by IcoMoon.io -->
<svg version="1.1" xmlns="http://www.w3.org/2000/svg" width="280" height="280" viewBox="0 0 280 280">
<title>video</title>
<path d="M251.183 83.417c-1.673-0.983-3.686-1.563-5.833-1.563s-4.16 0.581-5.888 1.593l0.055-0.030-41.183 20.3c-0.71-18.77-16.098-33.717-34.976-33.717-0.008 0-0.016 0-0.025 0h-104.999c-19.33 0-35 15.67-35 35v0 70c0 19.33 15.67 35 35 35v0h105c0.007 0 0.015 0 0.024 0 18.879 0 34.266-14.947 34.975-33.652l0.002-0.065 41.533 20.767c1.492 0.781 3.254 1.252 5.123 1.283h0.010c0.011 0 0.024 0 0.037 0 2.276 0 4.4-0.652 6.194-1.778l-0.049 0.028c3.314-2.096 5.483-5.741 5.483-9.893 0-0.008 0-0.016 0-0.025v0.001-93.333c0-0.007 0-0.015 0-0.023 0-4.152-2.169-7.797-5.435-9.865l-0.048-0.028zM175 175c0 6.443-5.223 11.667-11.667 11.667v0h-105c-6.443 0-11.667-5.223-11.667-11.667v0-70c0-6.443 5.223-11.667 11.667-11.667v0h105c6.443 0 11.667 5.223 11.667 11.667v0zM233.333 167.767l-35-17.5v-20.533l35-17.5z"></path>
</svg>
