<!-- Generated by IcoMoon.io -->
<svg version="1.1" xmlns="http://www.w3.org/2000/svg" width="24" height="24" viewBox="0 0 24 24">
<title>add_link</title>
<path fill="#fff" d="M17.587 12v2.4h2.4v1.613h-2.4v2.4h-1.575v-2.4h-2.4v-1.613h2.4v-2.4h1.575zM5.512 12q0 1.013 0.731 1.744t1.744 0.731h3.225v1.538h-3.225q-1.65 0-2.813-1.181t-1.162-2.831 1.162-2.831 2.813-1.181h3.225v1.537h-3.225q-1.012 0-1.744 0.731t-0.731 1.744zM18.487 12q0-1.012-0.731-1.744t-1.744-0.731h-3.225v-1.537h3.225q1.65 0 2.813 1.181t1.162 2.831h-1.5zM8.813 11.212h6.375v1.575h-6.375v-1.575z"></path>
</svg>
