<!-- Generated by IcoMoon.io -->
<svg version="1.1" xmlns="http://www.w3.org/2000/svg" width="24" height="24" viewBox="0 0 24 24">
<title>airline_seat_flat_angled</title>
<path fill="#fff" d="M8.25 10.575q-0.375 0.225-1.050 0.225-0.637 0-1.275-0.394t-0.9-0.956q-0.225-0.375-0.225-1.050 0-0.637 0.394-1.275t0.956-0.9q0.375-0.225 1.050-0.225 0.638 0 1.275 0.394t0.9 0.956q0.225 0.525 0.225 1.050 0 0.638-0.394 1.275t-0.956 0.9zM3.6 12.112l0.563-1.5 15.188 5.475-0.525 1.5-3.638-1.275v1.275h-6.375v-3.6zM20.212 13.837l-0.563 1.5-9.9-3.563 1.688-4.537 6.825 2.475q0.862 0.3 1.5 1.181t0.637 1.819q0 0.638-0.188 1.125z"></path>
</svg>
