<!-- Generated by IcoMoon.io -->
<svg version="1.1" xmlns="http://www.w3.org/2000/svg" width="24" height="24" viewBox="0 0 24 24">
<title>alarm_off</title>
<path fill="#fff" d="M8.813 5.025l-0.675 0.563-1.162-1.125 0.712-0.563zM15.563 17.1l-7.875-7.875q-1.275 1.575-1.275 3.563 0 2.325 1.631 3.975t3.956 1.65q1.95 0 3.563-1.313zM4.725 4.238q2.85 2.85 8.119 8.1t6.656 6.637l-1.013 1.013-1.762-1.763q-2.063 1.763-4.725 1.763-3 0-5.1-2.119t-2.1-5.081q0-1.088 0.525-2.475t1.237-2.213l-0.638-0.637-0.9 0.75-1.125-1.163 0.9-0.712-1.087-1.088zM19.987 6.975l-1.012 1.237-3.675-3.112 1.013-1.2zM12 7.2q-1.012 0-1.913 0.338l-1.237-1.2q1.575-0.75 3.15-0.75 3 0 5.1 2.119t2.1 5.081q0 1.65-0.713 3.15l-1.237-1.2q0.337-0.9 0.337-1.95 0-2.325-1.631-3.956t-3.956-1.631z"></path>
</svg>
