<!-- Generated by IcoMoon.io -->
<svg version="1.1" xmlns="http://www.w3.org/2000/svg" width="24" height="24" viewBox="0 0 24 24">
<title>animation</title>
<path fill="#fff" d="M14.4 4.012q-1.612 0-2.944 0.825t-2.044 2.175q-1.575 0.863-2.4 2.4-1.35 0.712-2.175 2.044t-0.825 2.944q0 1.163 0.431 2.175t1.2 1.781 1.781 1.2 2.175 0.431q1.612 0 2.944-0.825t2.044-2.175q1.575-0.862 2.4-2.4 1.35-0.712 2.175-2.044t0.825-2.944q0-1.163-0.431-2.175t-1.2-1.781-1.781-1.2-2.175-0.431zM9.6 18.413q-1.088 0-2.006-0.544t-1.462-1.462-0.544-2.006q0-0.675 0.225-1.294t0.6-1.106q0 1.162 0.431 2.175t1.2 1.781 1.781 1.2 2.175 0.431q-0.488 0.375-1.106 0.6t-1.294 0.225zM12 16.013q-1.087 0-2.006-0.544t-1.462-1.462-0.544-2.006q0-0.675 0.225-1.294t0.6-1.106q0 1.162 0.431 2.175t1.2 1.781 1.781 1.2 2.175 0.431q-0.487 0.375-1.106 0.6t-1.294 0.225zM15.75 13.35q-0.675 0.262-1.35 0.262-1.087 0-2.006-0.544t-1.463-1.463-0.544-2.006q0-0.675 0.262-1.35 0.675-0.262 1.35-0.262 1.087 0 2.006 0.544t1.462 1.462 0.544 2.006q0 0.675-0.263 1.35zM17.587 12q0-1.163-0.431-2.175t-1.2-1.781-1.781-1.2-2.175-0.431q0.488-0.375 1.106-0.6t1.294-0.225q1.088 0 2.006 0.544t1.462 1.462 0.544 2.006q0 0.675-0.225 1.294t-0.6 1.106z"></path>
</svg>
