<!-- Generated by IcoMoon.io -->
<svg version="1.1" xmlns="http://www.w3.org/2000/svg" width="24" height="24" viewBox="0 0 24 24">
<title>apartment</title>
<path fill="#fff" d="M17.587 14.4v-1.612h-1.575v1.612h1.575zM17.587 17.587v-1.575h-1.575v1.575h1.575zM14.4 7.988v-1.575h-1.612v1.575h1.612zM14.4 11.212v-1.612h-1.612v1.612h1.612zM14.4 14.4v-1.612h-1.612v1.612h1.612zM11.212 7.988v-1.575h-1.612v1.575h1.612zM11.212 11.212v-1.612h-1.612v1.612h1.612zM11.212 14.4v-1.612h-1.612v1.612h1.612zM7.988 11.212v-1.612h-1.575v1.612h1.575zM7.988 14.4v-1.612h-1.575v1.612h1.575zM7.988 17.587v-1.575h-1.575v1.575h1.575zM16.013 11.212h3.188v7.988h-6.413v-3.188h-1.575v3.188h-6.412v-11.213h3.188v-3.188h8.025v6.413z"></path>
</svg>
