<!-- Generated by IcoMoon.io -->
<svg version="1.1" xmlns="http://www.w3.org/2000/svg" width="24" height="24" viewBox="0 0 24 24">
<title>art_track</title>
<path fill="#fff" d="M10.8 14.4l-1.8-2.4-1.387 1.8-1.013-1.2-1.388 1.8h5.588zM12 9.6v4.8q0 0.638-0.488 1.125t-1.125 0.488h-4.8q-0.638 0-1.106-0.488t-0.469-1.125v-4.8q0-0.637 0.469-1.125t1.106-0.487h4.8q0.637 0 1.125 0.487t0.488 1.125zM13.612 16.013v-1.613h6.375v1.613h-6.375zM19.987 7.988v1.613h-6.375v-1.613h6.375zM19.987 12.788h-6.375v-1.575h6.375v1.575z"></path>
</svg>
