<!-- Generated by IcoMoon.io -->
<svg version="1.1" xmlns="http://www.w3.org/2000/svg" width="24" height="24" viewBox="0 0 24 24">
<title>assistant_direction</title>
<path fill="#fff" d="M18.188 12.45q0.525-0.525 0-0.9l-5.737-5.775q-0.488-0.375-0.938 0l-5.738 5.775q-0.188 0.3-0.188 0.45t0.188 0.45l5.738 5.775q0.487 0.375 0.938 0zM12 3.188q3.675 0 6.244 2.569t2.569 6.244-2.569 6.244-6.244 2.569-6.244-2.569-2.569-6.244 2.569-6.244 6.244-2.569zM13.612 10.387v-1.988l2.775 2.813-2.775 2.775v-1.988h-3.225v2.4h-1.575v-3.188q0-0.825 0.788-0.825h4.012z"></path>
</svg>
