<!-- Generated by IcoMoon.io -->
<svg version="1.1" xmlns="http://www.w3.org/2000/svg" width="40" height="40" viewBox="0 0 40 40">
<title>at-brush_round</title>
<path fill="#fff" d="M22.302 16.295c0.942-0.612 1.698-1.653 1.698-3.295 0-3.375-3.158-6.573-3.293-6.707-0.195-0.195-0.451-0.293-0.707-0.293s-0.512 0.098-0.707 0.293c-0.135 0.134-3.293 3.332-3.293 6.707 0 1.642 0.756 2.683 1.698 3.295-0.893 0.398-1.698 1.232-1.698 2.705 0 1.059 0.254 4.605 0.762 7.902 0.906 5.891 1.949 7.098 3.238 7.098 1.288 0 2.332-1.207 3.238-7.098 0.507-3.297 0.762-6.843 0.762-7.902 0-1.473-0.805-2.307-1.698-2.705zM17 13c0-3 3-6 3-6s3 3 3 6-3 3-3 3-3 0-3-3zM20 33c-1.63 0-2.595-7.968-2.897-12h5.794c-0.301 4.032-1.267 12-2.897 12zM22.963 20h-5.926c-0.024-0.433-0.037-0.78-0.037-1 0-2 2-2 2-2h2c0 0 2 0 2 2 0 0.22-0.013 0.567-0.037 1z"></path>
</svg>
