<!-- Generated by IcoMoon.io -->
<svg version="1.1" xmlns="http://www.w3.org/2000/svg" width="40" height="40" viewBox="0 0 40 40">
<title>at-crayon</title>
<path fill="#fff" d="M23.742 12.076c-2.094-6.076-3.201-6.076-3.742-6.076s-1.648 0-3.743 6.076c-1.641 0.352-2.257 1.865-2.257 2.924v16c0 2.201 1.794 3 3 3h6c1.206 0 3-0.799 3-3v-16c0-1.059-0.616-2.572-2.258-2.924zM23 33h-6c0 0-2 0-2-2h10c0 2-2 2-2 2zM25 30h-10c0-3.1 0-11.171 0-14h10c0 2.829 0 10.9 0 14zM15 15c0 0 0-2 2-2 0 0 2-6 3-6s3 6 3 6c2 0 2 2 2 2h-10z"></path>
</svg>
