<!-- Generated by IcoMoon.io -->
<svg version="1.1" xmlns="http://www.w3.org/2000/svg" width="40" height="40" viewBox="0 0 40 40">
<title>at-color_palette</title>
<path fill="#fff" d="M31 11h-22c-2.201 0-3 1.794-3 3v12c0 2.201 1.794 3 3 3h22c2.201 0 3-1.794 3-3v-12c0-2.201-1.794-3-3-3zM31 28c-2 0-22 0-22 0s-2 0-2-2h26c0 0 0 2-2 2zM33 25h-26c0-3.198 0-11 0-11s0-2 2-2h22c0 0 2 0 2 2v11zM13 14c0 0 1 0 1 1v1c0 0 0 1-1 1h-2c0 0-1 0-1-1s0-1 0-1 0-1 1-1h2zM13 13h-2c-1.299 0-2 1.030-2 2v1c0 1.299 1.030 2 2 2h2c1.299 0 2-1.030 2-2v-1c0-1.299-1.030-2-2-2v0zM21 14c0 0 1 0 1 1v1c0 0 0 1-1 1h-2c0 0-1 0-1-1s0-1 0-1 0-1 1-1h2zM21 13h-2c-1.299 0-2 1.030-2 2v1c0 1.299 1.030 2 2 2h2c1.299 0 2-1.030 2-2v-1c0-1.299-1.030-2-2-2v0zM29 14c0 0 1 0 1 1v1c0 0 0 1-1 1h-2c0 0-1 0-1-1s0-1 0-1 0-1 1-1h2zM29 13h-2c-1.299 0-2 1.030-2 2v1c0 1.299 1.030 2 2 2h2c1.299 0 2-1.030 2-2v-1c0-1.299-1.030-2-2-2v0zM13 20c0 0 1 0 1 1v1c0 0 0 1-1 1h-2c0 0-1 0-1-1s0-1 0-1 0-1 1-1h2zM13 19h-2c-1.299 0-2 1.030-2 2v1c0 1.299 1.030 2 2 2h2c1.299 0 2-1.030 2-2v-1c0-1.299-1.030-2-2-2v0zM21 20c0 0 1 0 1 1v1c0 0 0 1-1 1h-2c0 0-1 0-1-1s0-1 0-1 0-1 1-1h2zM21 19h-2c-1.299 0-2 1.030-2 2v1c0 1.299 1.030 2 2 2h2c1.299 0 2-1.030 2-2v-1c0-1.299-1.030-2-2-2v0zM29 20c0 0 1 0 1 1v1c0 0 0 1-1 1h-2c0 0-1 0-1-1s0-1 0-1 0-1 1-1h2zM29 19h-2c-1.299 0-2 1.030-2 2v1c0 1.299 1.030 2 2 2h2c1.299 0 2-1.030 2-2v-1c0-1.299-1.030-2-2-2v0z"></path>
</svg>
