<!-- Generated by IcoMoon.io -->
<svg version="1.1" xmlns="http://www.w3.org/2000/svg" width="40" height="40" viewBox="0 0 40 40">
<title>at-dropper</title>
<path fill="#fff" d="M25.33 11.43c-0.061-0.020-0.15-0.040-0.18-0.050 0-0.030-0.15-0.33-0.15-1.38 0-3.16-3.27-4-5-4s-5 0.84-5 4c0 1.15-0.18 1.4-0.19 1.41 0-0.010 0-0.010-0.010-0.010-0.020 0-0.090 0.020-0.13 0.030-1.19 0.27-1.67 1.020-1.67 2.57 0 0.97 0.7 2 2 2v8c0 3.77 1.57 5.98 2.5 7.31 0.2 0.271 0.44 0.61 0.5 0.761 0.040 1.25 1.050 1.93 2 1.93s1.96-0.68 2-1.93c0.060-0.15 0.3-0.49 0.5-0.761 0.93-1.33 2.5-3.54 2.5-7.31v-8c1.3 0 2-1.030 2-2 0-1.55-0.48-2.3-1.67-2.57zM24 24c0 5-3 7-3 8s-1 1-1 1-1 0-1-1-3-3-3-8v-0.040c1.91-0.19 3.16-1.41 4.35-2.61 1.1-1.090 2.14-2.12 3.65-2.31v4.96zM24 18.040c-1.91 0.19-3.16 1.41-4.35 2.61-1.1 1.090-2.14 2.12-3.65 2.31v-6.96h8v2.040zM25 15h-10c-1 0-1-1-1-1 0-3 2 0 2-4 0-3 4-3 4-3s4 0 4 3c0 4 2 1 2 4 0 0 0 1-1 1z"></path>
</svg>
