<!-- Generated by IcoMoon.io -->
<svg version="1.1" xmlns="http://www.w3.org/2000/svg" width="40" height="40" viewBox="0 0 40 40">
<title>at-eraser</title>
<path fill="#fff" d="M28.945 7.047c-0.57-0.666-1.4-1.047-2.276-1.047h-9.953c-1.492 0-2.738 1.070-2.965 2.544l-3.385 22c-0.133 0.865 0.117 1.744 0.688 2.409 0.571 0.666 1.401 1.047 2.277 1.047h9.953c1.491 0 2.738-1.070 2.965-2.544l3.385-22c0.134-0.866-0.117-1.744-0.689-2.409zM25.261 31.304c-0.151 0.976-0.99 1.696-1.977 1.696h-9.953c-0.583 0-1.138-0.255-1.518-0.697-0.38-0.443-0.547-1.030-0.458-1.606l1.491-9.697h14l-1.585 10.304zM28.646 9.304l-1.646 10.696h-14l1.739-11.304c0.15-0.976 0.99-1.696 1.977-1.696h9.953c0.584 0 1.138 0.255 1.518 0.698s0.547 1.030 0.459 1.606z"></path>
</svg>
