<!-- Generated by IcoMoon.io -->
<svg version="1.1" xmlns="http://www.w3.org/2000/svg" width="40" height="40" viewBox="0 0 40 40">
<title>at-pencil</title>
<path fill="#fff" d="M25.87 13.5c-4.29-7.5-5.36-7.5-5.87-7.5s-1.58 0-5.87 7.5l-0.13 0.23v15.27c0 3.96 3.27 5 5 5h2c3.96 0 5-3.27 5-5v-15.27l-0.13-0.23zM20 7c0.34 0 1.010 0.79 1.75 1.84-1.14 0.19-2.36 0.19-3.51 0 0.75-1.050 1.42-1.84 1.76-1.84zM17.62 9.74c0.76 0.17 1.56 0.26 2.38 0.26s1.62-0.090 2.38-0.26c0.84 1.26 1.67 2.64 2.16 3.48-0.35 0.21-1.56 0.78-4.54 0.78s-4.19-0.57-4.54-0.78c0.49-0.84 1.32-2.22 2.16-3.48zM21 33h-2c0 0-4 0-4-4h10c0 0 0 4-4 4zM25 28h-10v-1h10v1zM25 26h-1v-1.5c0-0.28-0.22-0.5-0.5-0.5s-0.5 0.22-0.5 0.5v1.5h-1v-3.5c0-0.279-0.22-0.5-0.5-0.5s-0.5 0.221-0.5 0.5v3.5h-6v-11.89c0.21 0.12 0.54 0.27 1 0.41v5.98c0 0.28 0.22 0.5 0.5 0.5s0.5-0.22 0.5-0.5v-5.74c0.76 0.14 1.73 0.24 3 0.24 3 0 4.41-0.55 5-0.89v11.89z"></path>
</svg>
