<!-- Generated by IcoMoon.io -->
<svg version="1.1" xmlns="http://www.w3.org/2000/svg" width="24" height="24" viewBox="0 0 24 24">
<title>atm</title>
<path fill="#fff" d="M19.2 9.6q0.337 0 0.563 0.225t0.225 0.563v4.013h-1.2v-3.6h-0.788v2.813h-1.2v-2.813h-0.787v3.6h-1.2v-4.012q0-0.338 0.225-0.563t0.563-0.225h3.6zM6.788 12v-1.2h-1.575v1.2h1.575zM7.2 9.6q0.338 0 0.563 0.225t0.225 0.563v4.013h-1.2v-1.2h-1.575v1.2h-1.2v-4.012q0-0.338 0.225-0.563t0.563-0.225h2.4zM8.813 9.6h4.8v1.2h-1.8v3.6h-1.2v-3.6h-1.8v-1.2z"></path>
</svg>
