<!-- Generated by IcoMoon.io -->
<svg version="1.1" xmlns="http://www.w3.org/2000/svg" width="24" height="24" viewBox="0 0 24 24">
<title>autorenew</title>
<path fill="#fff" d="M17.4 8.587q1.013 1.538 1.013 3.413 0 2.625-1.894 4.519t-4.519 1.894v2.4l-3.188-3.225 3.188-3.188v2.4q1.987 0 3.394-1.406t1.406-3.394q0-1.125-0.563-2.25zM12 7.2q-1.988 0-3.394 1.406t-1.406 3.394q0 1.2 0.563 2.25l-1.162 1.163q-1.013-1.538-1.013-3.413 0-2.625 1.894-4.519t4.519-1.894v-2.4l3.188 3.225-3.188 3.188v-2.4z"></path>
</svg>
