<!-- Generated by IcoMoon.io -->
<svg version="1.1" xmlns="http://www.w3.org/2000/svg" width="24" height="24" viewBox="0 0 24 24">
<title>auto_fix_off</title>
<path fill="#fff" d="M20.813 3.188l-2.025 1.125-1.988-1.125 1.125 2.025-1.125 1.987 1.988-1.125 2.025 1.125-1.125-1.987zM14.138 8.175l1.688 1.688-1.95 1.95 0.638 0.675 2.063-2.063q0.225-0.225 0.225-0.563t-0.225-0.563l-1.875-1.875q-0.263-0.225-0.581-0.225t-0.544 0.225l-2.063 2.063 0.638 0.637 1.987-1.95zM13.5 13.5l-8.475-8.475-1.013 1.013 5.475 5.475-5.25 5.25q-0.225 0.225-0.225 0.563t0.225 0.563l1.875 1.875q0.225 0.225 0.563 0.225t0.563-0.225l5.25-5.25 5.475 5.475 1.013-1.012-5.475-5.475z"></path>
</svg>
