<!-- Generated by IcoMoon.io -->
<svg version="1.1" xmlns="http://www.w3.org/2000/svg" width="24" height="24" viewBox="0 0 24 24">
<title>auto_awesome_motion</title>
<path fill="#fff" d="M13.612 4.012h-8.025q-0.638 0-1.106 0.469t-0.469 1.106v8.025h1.575v-8.025h8.025v-1.575zM16.8 7.2h-7.987q-0.675 0-1.144 0.469t-0.469 1.144v7.987h1.612v-7.987h7.987v-1.612zM18.413 10.387h-6.413q-0.675 0-1.144 0.469t-0.469 1.144v6.413q0 0.637 0.469 1.106t1.144 0.469h6.413q0.637 0 1.106-0.469t0.469-1.106v-6.413q0-0.675-0.469-1.144t-1.106-0.469z"></path>
</svg>
