<!-- Generated by IcoMoon.io -->
<svg version="1.1" xmlns="http://www.w3.org/2000/svg" width="24" height="24" viewBox="0 0 24 24">
<title>baby_changing_station</title>
<path fill="#fff" d="M13.612 8.813v1.575h-2.4l-2.175-0.938-1.050 3.15v7.387h-3.188v-7.987l1.275-3.713q0.225-0.675 0.862-0.956t1.313 0.019l3.3 1.462h2.063zM8.813 3.188q-0.675 0-1.144 0.469t-0.469 1.144 0.469 1.144 1.144 0.469q0.637 0 1.106-0.469t0.469-1.144-0.469-1.144-1.106-0.469zM9.6 17.587h9.6v-1.575h-9.6v1.575zM18 15.188q0.487 0 0.844-0.337t0.356-0.863q0-0.487-0.356-0.844t-0.844-0.356-0.844 0.356-0.356 0.844q0 0.525 0.356 0.863t0.844 0.337zM12.788 12q0-0.337-0.225-0.563t-0.563-0.225h-2.4v1.575h1.612v0.825q0 0.638 0.469 1.106t1.106 0.469h1.612q0.675 0 1.144-0.469t0.469-1.106v-2.4h-1.613v1.575h-1.612v-0.787z"></path>
</svg>
