<!-- Generated by IcoMoon.io -->
<svg version="1.1" xmlns="http://www.w3.org/2000/svg" width="24" height="24" viewBox="0 0 24 24">
<title>bakery_dining</title>
<path fill="#fff" d="M13.425 14.4h-2.85l-0.6-5.512q-0.038-0.375 0.188-0.637t0.525-0.262h2.625q0.3 0 0.525 0.262t0.188 0.637zM9.3 9.9l0.525 4.5h-1.425l-1.687-3.262q-0.375-0.712 0.3-1.125l1.275-0.712q0.3-0.188 0.637 0t0.375 0.6zM14.7 9.9q0.075-0.412 0.375-0.6t0.638 0l1.275 0.713q0.675 0.412 0.263 1.125l-1.65 3.262h-1.425zM6.188 15.487q-0.188 0.112-0.45 0.112-0.45 0-0.675-0.45l-0.188-0.375q-0.188-0.45 0.037-0.787l0.675-1.013q0.188-0.337 0.638-0.337t0.638 0.337l0.787 1.425zM17.813 15.487l-1.462-1.088q0.262-0.487 0.788-1.425 0.188-0.338 0.637-0.338t0.637 0.338l0.638 1.012q0.263 0.375 0.075 0.788l-0.188 0.375q-0.188 0.45-0.675 0.45-0.262 0-0.45-0.112z"></path>
</svg>
