<!-- Generated by IcoMoon.io -->
<svg version="1.1" xmlns="http://www.w3.org/2000/svg" width="24" height="24" viewBox="0 0 24 24">
<title>bathtub</title>
<path fill="#fff" d="M18.413 12.788h1.575v4.8q0 0.637-0.469 1.125t-1.106 0.488q0 0.337-0.244 0.563t-0.581 0.225h-11.175q-0.337 0-0.581-0.225t-0.244-0.563q-0.637 0-1.106-0.488t-0.469-1.125v-4.8h2.4v-0.6q0-0.713 0.544-1.256t1.256-0.544q0.75 0 1.35 0.6l1.087 1.238q0.225 0.263 0.675 0.563h5.475v-6.525q0-0.263-0.188-0.469t-0.487-0.206q-0.263 0-0.45 0.188l-1.012 1.012q0.075 0.3 0.075 0.413 0 0.413-0.262 0.862l-2.213-2.212q0.45-0.263 0.862-0.263 0.188 0 0.413 0.075l1.012-1.013q0.638-0.638 1.575-0.638t1.612 0.656 0.675 1.594v6.525zM6.413 7.988q0-0.675 0.45-1.125t1.125-0.45 1.144 0.45 0.469 1.125-0.469 1.144-1.144 0.469-1.125-0.469-0.45-1.144z"></path>
</svg>
