<!-- Generated by IcoMoon.io -->
<svg version="1.1" xmlns="http://www.w3.org/2000/svg" width="24" height="24" viewBox="0 0 24 24">
<title>biotech</title>
<path fill="#fff" d="M7.988 17.587q-0.638 0-1.106 0.469t-0.469 1.144h11.175q0-0.675-0.469-1.144t-1.106-0.469h-3.225v-1.575h2.4q0.675 0 1.144-0.469t0.469-1.144h-6.412q-0.638 0-1.181-0.319t-0.881-0.862-0.338-1.219q0-0.637 0.338-1.181t0.825-0.881q-0.338-0.488-0.338-1.125 0-0.15 0.019-0.262t0.056-0.262q-1.088 0.45-1.781 1.462t-0.694 2.25q0 1.087 0.525 2.006t1.444 1.462 2.006 0.544v1.575h-2.4zM10.837 6.825q0.825 0 1.388 0.581t0.563 1.406q0 0.45-0.169 0.825t-0.506 0.675l0.487 1.275 0.75-0.262 0.263 0.75 1.5-0.563-0.263-0.75 0.75-0.262-2.175-6.038-0.787 0.3-0.263-0.75-1.5 0.525 0.263 0.75-0.75 0.3zM9.6 8.813q0-0.525 0.356-0.863t0.844-0.337 0.844 0.337 0.356 0.863q0 0.488-0.356 0.844t-0.844 0.356-0.844-0.356-0.356-0.844z"></path>
</svg>
