<!-- Generated by IcoMoon.io -->
<svg version="1.1" xmlns="http://www.w3.org/2000/svg" width="24" height="24" viewBox="0 0 24 24">
<title>block</title>
<path fill="#fff" d="M12 18.413q2.625 0 4.519-1.894t1.894-4.519q0-0.9-0.394-2.063t-0.956-1.875l-9 9q1.688 1.35 3.938 1.35zM5.588 12q0 0.9 0.394 2.063t0.956 1.875l9-9q-1.688-1.35-3.938-1.35-2.625 0-4.519 1.894t-1.894 4.519zM12 4.012q3.3 0 5.644 2.344t2.344 5.644-2.344 5.644-5.644 2.344-5.644-2.344-2.344-5.644 2.344-5.644 5.644-2.344z"></path>
</svg>
