<!-- Generated by IcoMoon.io -->
<svg version="1.1" xmlns="http://www.w3.org/2000/svg" width="24" height="24" viewBox="0 0 24 24">
<title>block_flipped</title>
<path fill="#fff" d="M19.987 12q0-1.65-0.619-3.094t-1.725-2.55-2.55-1.725-3.094-0.619-3.094 0.619-2.55 1.725-1.725 2.55-0.619 3.094 0.619 3.094 1.725 2.55 2.55 1.725 3.094 0.619 3.094-0.619 2.55-1.725 1.725-2.55 0.619-3.094zM6.975 8.063l8.962 8.962q-1.612 1.388-3.938 1.388-1.313 0-2.475-0.506t-2.044-1.388-1.387-2.044-0.506-2.475q0-2.325 1.388-3.938zM18.413 12q0 2.325-1.388 3.938l-8.962-8.962q1.613-1.388 3.938-1.388 1.313 0 2.475 0.506t2.044 1.387 1.388 2.044 0.506 2.475z"></path>
</svg>
