<!-- Generated by IcoMoon.io -->
<svg version="1.1" xmlns="http://www.w3.org/2000/svg" width="24" height="24" viewBox="0 0 24 24">
<title>blur_on</title>
<path fill="#fff" d="M13.612 9.188q0.487 0 0.844 0.356t0.356 0.844-0.356 0.844-0.844 0.356-0.844-0.356-0.356-0.844 0.356-0.844 0.844-0.356zM13.612 12.413q0.487 0 0.844 0.356t0.356 0.844-0.356 0.844-0.844 0.356-0.844-0.356-0.356-0.844 0.356-0.844 0.844-0.356zM10.387 16.013q0.338 0 0.581 0.225t0.244 0.563-0.244 0.563-0.581 0.225-0.563-0.225-0.225-0.563 0.225-0.563 0.563-0.225zM10.387 9.188q0.488 0 0.844 0.356t0.356 0.844-0.356 0.844-0.844 0.356-0.844-0.356-0.356-0.844 0.356-0.844 0.844-0.356zM13.612 18.788q0.375 0 0.375 0.413t-0.375 0.412q-0.412 0-0.412-0.412t0.412-0.413zM13.612 16.013q0.338 0 0.563 0.225t0.225 0.563-0.225 0.563-0.563 0.225-0.581-0.225-0.244-0.563 0.244-0.563 0.581-0.225zM19.2 13.2q0.412 0 0.412 0.412 0 0.375-0.412 0.375t-0.413-0.375q0-0.412 0.413-0.412zM16.8 6.413q0.338 0 0.563 0.225t0.225 0.563-0.225 0.563-0.563 0.225-0.563-0.225-0.225-0.563 0.225-0.563 0.563-0.225zM16.8 9.6q0.338 0 0.563 0.225t0.225 0.563-0.225 0.581-0.563 0.244-0.563-0.244-0.225-0.581 0.225-0.563 0.563-0.225zM16.8 16.013q0.338 0 0.563 0.225t0.225 0.563-0.225 0.563-0.563 0.225-0.563-0.225-0.225-0.563 0.225-0.563 0.563-0.225zM16.8 12.788q0.338 0 0.563 0.244t0.225 0.581-0.225 0.563-0.563 0.225-0.563-0.225-0.225-0.563 0.225-0.581 0.563-0.244zM10.387 12.413q0.488 0 0.844 0.356t0.356 0.844-0.356 0.844-0.844 0.356-0.844-0.356-0.356-0.844 0.356-0.844 0.844-0.356zM10.387 7.988q-0.337 0-0.563-0.225t-0.225-0.563 0.225-0.563 0.563-0.225 0.581 0.225 0.244 0.563-0.244 0.563-0.581 0.225zM10.387 5.213q-0.375 0-0.375-0.412t0.375-0.413q0.413 0 0.413 0.413t-0.413 0.412zM10.387 18.788q0.413 0 0.413 0.413t-0.413 0.412q-0.375 0-0.375-0.412t0.375-0.413zM4.8 13.2q0.412 0 0.412 0.412 0 0.375-0.412 0.375t-0.413-0.375q0-0.412 0.413-0.412zM13.612 5.213q-0.412 0-0.412-0.412t0.412-0.413q0.375 0 0.375 0.413t-0.375 0.412zM13.612 7.988q-0.338 0-0.581-0.225t-0.244-0.563 0.244-0.563 0.581-0.225 0.563 0.225 0.225 0.563-0.225 0.563-0.563 0.225zM19.2 10.8q-0.413 0-0.413-0.413 0-0.375 0.413-0.375t0.412 0.375q0 0.413-0.412 0.413zM7.2 6.413q0.338 0 0.563 0.225t0.225 0.563-0.225 0.563-0.563 0.225-0.563-0.225-0.225-0.563 0.225-0.563 0.563-0.225zM4.8 10.012q0.412 0 0.412 0.375 0 0.413-0.412 0.413t-0.413-0.413q0-0.375 0.413-0.375zM7.2 9.6q0.338 0 0.563 0.225t0.225 0.563-0.225 0.581-0.563 0.244-0.563-0.244-0.225-0.581 0.225-0.563 0.563-0.225zM7.2 16.013q0.338 0 0.563 0.225t0.225 0.563-0.225 0.563-0.563 0.225-0.563-0.225-0.225-0.563 0.225-0.563 0.563-0.225zM7.2 12.788q0.338 0 0.563 0.244t0.225 0.581-0.225 0.563-0.563 0.225-0.563-0.225-0.225-0.563 0.225-0.581 0.563-0.244z"></path>
</svg>
