<!-- Generated by IcoMoon.io -->
<svg version="1.1" xmlns="http://www.w3.org/2000/svg" width="38" height="40" viewBox="0 0 38 40">
<title>bm-align-bottom1</title>
<path fill="#fff" d="M23.268 17.282l-3.268 3.953v-12.235c0-0.552-0.447-1-1-1s-1 0.448-1 1v12.273l-3.299-3.991c-0.391-0.392-1.027-0.392-1.419 0-0.392 0.394-0.392 1.031 0 1.424l4.942 5.981c0.21 0.209 0.487 0.298 0.76 0.284 0.274 0.014 0.551-0.075 0.761-0.284l4.942-5.981c0.392-0.393 0.392-1.030 0-1.424-0.392-0.392-1.028-0.392-1.419 0v0zM32 28h-26v-20c0-1.104 0.896-2 2-2h22c1.104 0 2 0.896 2 2v20zM32 32c0 1.104-0.896 2-2 2h-22c-1.104 0-2-0.896-2-2v-2h26v2zM30 4h-22c-2.209 0-4 1.791-4 4v24c0 2.209 1.791 4 4 4h22c2.209 0 4-1.791 4-4v-24c0-2.209-1.791-4-4-4v0z"></path>
</svg>
