<!-- Generated by IcoMoon.io -->
<svg version="1.1" xmlns="http://www.w3.org/2000/svg" width="43" height="40" viewBox="0 0 43 40">
<title>bm-align-right</title>
<path fill="#fff" d="M9.333 21.067h13.091l-4.257 3.519c-0.418 0.417-0.418 1.095 0 1.514 0.42 0.418 1.1 0.418 1.519 0l6.379-5.271c0.224-0.224 0.319-0.519 0.304-0.811 0.015-0.292-0.080-0.588-0.304-0.812l-6.379-5.271c-0.419-0.418-1.099-0.418-1.519 0-0.418 0.418-0.418 1.097 0 1.514l4.217 3.486h-13.051c-0.59 0-1.067 0.477-1.067 1.067s0.477 1.067 1.067 1.067v0zM36 31.733c0 1.178-0.956 2.133-2.133 2.133h-2.133v-27.733h2.133c1.178 0 2.133 0.956 2.133 2.133v23.467zM29.6 33.867h-21.333c-1.178 0-2.133-0.956-2.133-2.133v-23.467c0-1.178 0.956-2.133 2.133-2.133h21.333v27.733zM33.867 4h-25.6c-2.356 0-4.267 1.91-4.267 4.267v23.467c0 2.356 1.91 4.267 4.267 4.267h25.6c2.356 0 4.267-1.91 4.267-4.267v-23.467c0-2.356-1.91-4.267-4.267-4.267v0z"></path>
</svg>
