<!-- Generated by IcoMoon.io -->
<svg version="1.1" xmlns="http://www.w3.org/2000/svg" width="40" height="40" viewBox="0 0 40 40">
<title>bm-arrow-down-circle</title>
<path fill="#fff" d="M20 34c-7.732 0-14-6.27-14-14s6.268-14 14-14c7.732 0 14 6.27 14 14s-6.268 14-14 14v0zM20 4c-8.837 0-16 7.16-16 16s7.163 16 16 16c8.837 0 16-7.16 16-16s-7.163-16-16-16v0zM25.121 19.46l-4.121 4.13v-10.59c0-0.55-0.447-1-1-1-0.552 0-1 0.45-1 1v10.59l-4.121-4.13c-0.391-0.39-1.024-0.39-1.414 0-0.391 0.4-0.391 1.030 0 1.42l5.656 5.66c0.24 0.24 0.568 0.31 0.879 0.25 0.311 0.060 0.639-0.010 0.879-0.25l5.656-5.66c0.391-0.39 0.391-1.020 0-1.42-0.389-0.39-1.023-0.39-1.414 0v0z"></path>
</svg>
