<!-- Generated by IcoMoon.io -->
<svg version="1.1" xmlns="http://www.w3.org/2000/svg" width="40" height="40" viewBox="0 0 40 40">
<title>bm-airplane1</title>
<path fill="#fff" d="M33.854 8.163l-7.452 7.479 4.506 12.395c0.222 0.71 0.084 1.59-0.203 1.877-0.815 0.816-1.396 0.428-1.705 0.086l-7.205-9.734-7.976 8.004 1.436 5.33c-0.567-0.568-3.875-4.998-3.954-5.079-0.053-0.052-4.405-3.296-4.874-3.768l5.111 1.38 8.127-7.981-9.665-7.152c-0.277-0.248-0.642-0.98 0.104-1.729 0.288-0.287 1.158-0.374 1.866-0.151l12.341 4.472 7.553-7.417c0.528-0.528 1.561-0.474 2.024-0.011s0.494 1.472-0.034 1.999v0zM35.207 4.82c-1.246-1.25-3.436-0.957-4.689 0.299l-6.377 6.362-11.828-4.42c-1.133-0.293-2.274-0.672-3.679 0.737-0.717 0.718-2.207 2.212 0 4.423l8.11 6.64-5.277 5.266-4.924-1.231c-0.73-0.188-1.222-0.041-1.597 0.373-0.189 0.236-1.56 1.252-0.604 2.21l5.725 4.454 4.454 5.725c0.692 0.694 1.335 0.261 2.214-0.574 0.557-0.558 0.437-0.845 0.269-1.658l-1.112-4.89 5.241-5.259 6.63 8.112c2.206 2.211 3.697 0.716 4.414 0 1.406-1.41 1.028-2.552 0.735-3.687l-4.383-11.848 6.351-6.373c1.253-1.255 1.574-3.412 0.327-4.661v0z"></path>
</svg>
