<!-- Generated by IcoMoon.io -->
<svg version="1.1" xmlns="http://www.w3.org/2000/svg" width="30" height="40" viewBox="0 0 30 40">
<title>bm-bag1</title>
<path fill="#fff" d="M26 28h-20v-16c0-1.104 0.896-2 2-2h2v6h2v-6h8v6h2v-6h2c1.104 0 2 0.896 2 2v16zM26 32c0 1.104-0.896 2-2 2h-16c-1.104 0-2-0.896-2-2v-2h20v2zM16 6c2.209 0 4 0.619 4 2h-8c0-1.381 1.791-2 4-2v0zM24 8h-2c0-2.209-2.687-4-6-4s-6 1.791-6 4h-2c-2.209 0-4 1.791-4 4v20c0 2.209 1.791 4 4 4h16c2.209 0 4-1.791 4-4v-20c0-2.209-1.791-4-4-4v0z"></path>
</svg>
