<!-- Generated by IcoMoon.io -->
<svg version="1.1" xmlns="http://www.w3.org/2000/svg" width="40" height="40" viewBox="0 0 40 40">
<title>bm-book-album</title>
<path fill="#fff" d="M34 29c0 1.104-0.927 1.656-2 2 0 0-5.443 1.515-11 2.977v-24.977l11-3c1.104 0 2 0.896 2 2v21zM19 33.998c-5.462-1.468-11-2.998-11-2.998-1.136-0.312-2-0.896-2-2v-21c0-1.104 0.896-2 2-2l11 3v24.998zM32 4c0 0-5.789 1.594-11.050 3-0.659 0.025-1.323 0-1.983 0-5.012-1.344-10.967-3-10.967-3-2.209 0-4 1.791-4 4v21c0 2.209 1.885 3.313 4 4 0 0 5.393 1.5 10.967 3h2.025c5.62-1.5 11.008-3 11.008-3 2.053-0.531 4-1.791 4-4v-21c0-2.209-1.791-4-4-4v0z"></path>
</svg>
