<!-- Generated by IcoMoon.io -->
<svg version="1.1" xmlns="http://www.w3.org/2000/svg" width="49" height="40" viewBox="0 0 49 40">
<title>bm-basked</title>
<path fill="#fff" d="M42.154 11.385h-8.032l2.494-4.923h3.077c0.681 0 1.231-0.55 1.231-1.231s-0.55-1.231-1.231-1.231h-4.923l-3.796 7.385h-14.459l-3.899-7.385h-4.923c-0.681 0-1.231 0.55-1.231 1.231s0.55 1.231 1.231 1.231h3.077l2.641 4.923h-8.18c-0.681 0-1.231 0.551-1.231 1.231 0 0.681 0.55 1.231 1.231 1.231h1.231l0.352 4.923h9.494v-4.923h2.462v4.923h9.846v-4.923h2.462v4.923h9.143l0.703-4.923h1.231c0.681 0 1.231-0.55 1.231-1.231 0-0.679-0.55-1.231-1.231-1.231v0zM31.077 26.154h8.087l0.704-4.923h-8.791v4.923zM18.769 26.154h9.846v-4.923h-9.846v4.923zM16.308 21.231h-9.318l0.351 4.923h8.967v-4.923zM31.077 33.538h-2.462v-4.923h-9.846v4.923h-2.462v-4.923h-8.791l0.176 2.462c0 2.719 2.204 4.923 4.923 4.923h20.923c2.719 0 4.923-2.204 4.923-4.923l0.352-2.462h-7.737v4.923z"></path>
</svg>
