<!-- Generated by IcoMoon.io -->
<svg version="1.1" xmlns="http://www.w3.org/2000/svg" width="40" height="40" viewBox="0 0 40 40">
<title>bm-compass1</title>
<path fill="#fff" d="M18.881 18.348l3.759-3.31-0.988 4.91 1.847 1.067 1.404-9.897-7.87 6.163 1.847 1.067zM20 33.867c-7.66 0-13.867-6.207-13.867-13.867 0-7.659 6.207-13.867 13.867-13.867s13.867 6.208 13.867 13.867c0 7.66-6.207 13.867-13.867 13.867v0zM20.006 4.013c-8.833 0-15.994 7.162-15.994 15.994 0 8.833 7.161 15.994 15.994 15.994s15.994-7.161 15.994-15.994c0-8.832-7.161-15.994-15.994-15.994v0zM21.067 20.533c0-0.883-0.717-1.6-1.6-1.6s-1.6 0.717-1.6 1.6c0 0.883 0.717 1.6 1.6 1.6s1.6-0.717 1.6-1.6v0zM16.293 26.029l0.988-4.91-1.847-1.067-1.403 9.897 7.869-6.163-1.847-1.067-3.759 3.31z"></path>
</svg>
