<!-- Generated by IcoMoon.io -->
<svg version="1.1" xmlns="http://www.w3.org/2000/svg" width="40" height="40" viewBox="0 0 40 40">
<title>bm-chevron-down-square</title>
<path fill="#fff" d="M29.687 15.744l-8.941 8.976c-0.209 0.21-0.487 0.3-0.762 0.28-0.274 0.020-0.552-0.070-0.761-0.28l-8.941-8.976c-0.392-0.394-0.392-1.034 0-1.429 0.393-0.394 1.031-0.394 1.423 0l8.279 8.305 8.28-8.305c0.392-0.394 1.029-0.394 1.423 0 0.392 0.395 0.392 1.035 0 1.429v0zM32 4h-24c-2.209 0-4 1.791-4 4v24c0 2.21 1.791 4 4 4h24c2.209 0 4-1.79 4-4v-24c0-2.209-1.791-4-4-4v0z"></path>
</svg>
