<!-- Generated by IcoMoon.io -->
<svg version="1.1" xmlns="http://www.w3.org/2000/svg" width="40" height="40" viewBox="0 0 40 40">
<title>bm-collapse1</title>
<path fill="#fff" d="M31.887 16.040h-6.561l10.688-10.64-1.4-1.39-10.676 10.63 0.031-6.48c0-0.55-0.443-0.99-0.99-0.99s-0.99 0.44-0.99 0.99v8.87c0 0.29 0.122 0.53 0.313 0.69 0.179 0.18 0.428 0.29 0.706 0.29h8.879c0.547 0 0.989-0.44 0.989-0.98 0-0.55-0.442-0.99-0.989-0.99v0zM16.992 21.99h-8.879c-0.547 0-0.989 0.44-0.989 0.98 0 0.55 0.442 0.99 0.989 0.99h6.561l-10.688 10.64 1.4 1.39 10.677-10.63-0.032 6.48c0 0.55 0.443 0.99 0.99 0.99s0.99-0.44 0.99-0.99v-8.87c0-0.29-0.122-0.53-0.314-0.69-0.178-0.18-0.427-0.29-0.705-0.29v0z"></path>
</svg>
