<!-- Generated by IcoMoon.io -->
<svg version="1.1" xmlns="http://www.w3.org/2000/svg" width="40" height="40" viewBox="0 0 40 40">
<title>bm-checkmark-circle1</title>
<path fill="#fff" d="M26.393 14.43c0 0-7.058 12.3-7.18 12.41-0.403 0.38-1.036 0.36-1.413-0.040l-4.572-4.22c-0.378-0.4-0.357-1.040 0.046-1.41 0.403-0.38 1.036-0.36 1.414 0.040l3.578 3.3 6.395-11.080c0.276-0.47 0.887-0.64 1.366-0.36 0.478 0.27 0.642 0.89 0.366 1.36v0zM20 4c-8.836 0-16 7.16-16 16s7.164 16 16 16c8.836 0 16-7.16 16-16s-7.164-16-16-16v0z"></path>
</svg>
