<!-- Generated by IcoMoon.io -->
<svg version="1.1" xmlns="http://www.w3.org/2000/svg" width="40" height="40" viewBox="0 0 40 40">
<title>bm-enlarge</title>
<path fill="#fff" d="M34 32c0 1.104-0.896 2-2 2h-24c-1.104 0-2-0.896-2-2v-24c0-1.104 0.896-2 2-2h24c1.104 0 2 0.896 2 2v24zM32 4h-24c-2.209 0-4 1.791-4 4v24c0 2.209 1.791 4 4 4h24c2.209 0 4-1.791 4-4v-24c0-2.209-1.791-4-4-4v0zM30.972 8h-8.972c-0.553 0-1 0.447-1 1s0.447 1 1 1h6.629l-6.799 6.799 1.414 1.414 6.787-6.787-0.031 6.574c0 0.553 0.447 1 1 1s1-0.447 1-1v-9c0-0.296-0.122-0.535-0.315-0.699-0.182-0.186-0.434-0.301-0.713-0.301v0zM18 30h-6.629l6.8-6.799-1.415-1.414-6.787 6.788 0.031-6.575c0-0.553-0.447-1-1-1s-1 0.447-1 1v9c0 0.297 0.122 0.535 0.315 0.699 0.182 0.186 0.434 0.301 0.713 0.301h8.972c0.553 0 1-0.447 1-1s-0.447-1-1-1v0z"></path>
</svg>
