<!-- Generated by IcoMoon.io -->
<svg version="1.1" xmlns="http://www.w3.org/2000/svg" width="37" height="40" viewBox="0 0 37 40">
<title>bm-equalizer</title>
<path fill="#fff" d="M16.571 17.232v16.482c0 1.262 1.024 2.286 2.286 2.286s2.286-1.024 2.286-2.286v-16.482c-0.701 0.307-1.472 0.482-2.286 0.482s-1.585-0.175-2.286-0.482v0zM18.857 8.571c-1.894 0-3.429 1.535-3.429 3.429s1.535 3.429 3.429 3.429c1.894 0 3.429-1.535 3.429-3.429s-1.535-3.429-3.429-3.429v0zM28 33.232v0.482c0 1.262 1.024 2.286 2.286 2.286s2.286-1.024 2.286-2.286v-0.482c-0.701 0.307-1.472 0.482-2.286 0.482s-1.585-0.175-2.286-0.482v0zM7.429 20c-1.894 0-3.429 1.535-3.429 3.429s1.535 3.429 3.429 3.429c1.894 0 3.429-1.535 3.429-3.429s-1.535-3.429-3.429-3.429v0zM9.714 18.197v-11.911c0-1.262-1.024-2.286-2.286-2.286s-2.286 1.024-2.286 2.286v11.911c0.701-0.306 1.472-0.482 2.286-0.482s1.585 0.176 2.286 0.482v0zM32.571 22.768v-16.482c0-1.262-1.024-2.286-2.286-2.286s-2.286 1.024-2.286 2.286v16.482c0.701-0.307 1.472-0.482 2.286-0.482s1.585 0.175 2.286 0.482v0zM21.143 6.768v-0.482c0-1.262-1.024-2.286-2.286-2.286s-2.286 1.024-2.286 2.286v0.482c0.701-0.307 1.472-0.482 2.286-0.482s1.585 0.175 2.286 0.482v0zM5.143 28.661v5.054c0 1.262 1.024 2.286 2.286 2.286s2.286-1.024 2.286-2.286v-5.054c-0.701 0.307-1.472 0.482-2.286 0.482s-1.585-0.175-2.286-0.482v0zM30.286 24.571c-1.894 0-3.429 1.535-3.429 3.429s1.535 3.429 3.429 3.429c1.894 0 3.429-1.535 3.429-3.429s-1.535-3.429-3.429-3.429v0z"></path>
</svg>
