<!-- Generated by IcoMoon.io -->
<svg version="1.1" xmlns="http://www.w3.org/2000/svg" width="43" height="40" viewBox="0 0 43 40">
<title>bm-equalizer1</title>
<path fill="#fff" d="M9.714 26.857c-1.894 0-3.429-1.535-3.429-3.429 0-1.893 1.535-3.429 3.429-3.429s3.429 1.536 3.429 3.429c0 1.894-1.535 3.429-3.429 3.429v0zM10.857 17.83v-12.687c0-0.631-0.511-1.143-1.143-1.143s-1.143 0.512-1.143 1.143v12.687c-2.608 0.529-4.571 2.834-4.571 5.599s1.963 5.070 4.571 5.599v5.83c0 0.632 0.511 1.143 1.143 1.143s1.143-0.511 1.143-1.143v-5.83c2.608-0.529 4.571-2.834 4.571-5.599s-1.963-5.070-4.571-5.599v0zM21.143 15.429c-1.894 0-3.429-1.535-3.429-3.429 0-1.893 1.535-3.429 3.429-3.429s3.429 1.536 3.429 3.429c0 1.894-1.535 3.429-3.429 3.429v0zM22.286 6.401v-1.258c0-0.631-0.511-1.143-1.143-1.143s-1.143 0.512-1.143 1.143v1.258c-2.608 0.529-4.571 2.834-4.571 5.599s1.963 5.070 4.571 5.599v17.258c0 0.632 0.511 1.143 1.143 1.143s1.143-0.511 1.143-1.143v-17.258c2.608-0.529 4.571-2.834 4.571-5.599s-1.963-5.070-4.571-5.599v0zM32.571 31.429c-1.894 0-3.429-1.535-3.429-3.429 0-1.893 1.535-3.429 3.429-3.429s3.429 1.536 3.429 3.429c0 1.894-1.535 3.429-3.429 3.429v0zM33.714 22.401v-17.258c0-0.631-0.511-1.143-1.143-1.143s-1.143 0.512-1.143 1.143v17.258c-2.608 0.529-4.571 2.834-4.571 5.599s1.963 5.070 4.571 5.599v1.258c0 0.632 0.511 1.143 1.143 1.143s1.143-0.511 1.143-1.143v-1.258c2.608-0.529 4.571-2.834 4.571-5.599s-1.963-5.070-4.571-5.599v0z"></path>
</svg>
