<!-- Generated by IcoMoon.io -->
<svg version="1.1" xmlns="http://www.w3.org/2000/svg" width="40" height="40" viewBox="0 0 40 40">
<title>bm-grid</title>
<path fill="#fff" d="M31.429 4h-4.571c-2.525 0-4.571 2.047-4.571 4.571v4.571c0 2.525 2.047 4.571 4.571 4.571h4.571c2.525 0 4.571-2.047 4.571-4.571v-4.571c0-2.525-2.047-4.571-4.571-4.571v0zM31.429 22.286h-4.571c-2.525 0-4.571 2.047-4.571 4.571v4.571c0 2.525 2.047 4.571 4.571 4.571h4.571c2.525 0 4.571-2.047 4.571-4.571v-4.571c0-2.525-2.047-4.571-4.571-4.571v0zM13.143 22.286h-4.571c-2.525 0-4.571 2.047-4.571 4.571v4.571c0 2.525 2.047 4.571 4.571 4.571h4.571c2.525 0 4.571-2.047 4.571-4.571v-4.571c0-2.525-2.047-4.571-4.571-4.571v0zM13.143 4h-4.571c-2.525 0-4.571 2.047-4.571 4.571v4.571c0 2.525 2.047 4.571 4.571 4.571h4.571c2.525 0 4.571-2.047 4.571-4.571v-4.571c0-2.525-2.047-4.571-4.571-4.571v0z"></path>
</svg>
