<!-- Generated by IcoMoon.io -->
<svg version="1.1" xmlns="http://www.w3.org/2000/svg" width="46" height="40" viewBox="0 0 46 40">
<title>bm-grid-2</title>
<path fill="#fff" d="M22.286 22.286c-1.262 0-2.286-1.024-2.286-2.286s1.024-2.286 2.286-2.286c1.262 0 2.286 1.024 2.286 2.286s-1.024 2.286-2.286 2.286v0zM22.286 15.429c-2.525 0-4.571 2.047-4.571 4.571s2.047 4.571 4.571 4.571c2.525 0 4.571-2.047 4.571-4.571s-2.047-4.571-4.571-4.571v0zM22.286 33.714c-1.262 0-2.286-1.024-2.286-2.286s1.024-2.286 2.286-2.286c1.262 0 2.286 1.024 2.286 2.286s-1.024 2.286-2.286 2.286v0zM22.286 26.857c-2.525 0-4.571 2.047-4.571 4.571s2.047 4.571 4.571 4.571c2.525 0 4.571-2.047 4.571-4.571s-2.047-4.571-4.571-4.571v0zM22.286 10.857c-1.262 0-2.286-1.024-2.286-2.286s1.024-2.286 2.286-2.286c1.262 0 2.286 1.024 2.286 2.286s-1.024 2.286-2.286 2.286v0zM22.286 4c-2.525 0-4.571 2.047-4.571 4.571s2.047 4.571 4.571 4.571c2.525 0 4.571-2.047 4.571-4.571s-2.047-4.571-4.571-4.571v0zM36 22.286c-1.262 0-2.286-1.024-2.286-2.286s1.024-2.286 2.286-2.286c1.262 0 2.286 1.024 2.286 2.286s-1.024 2.286-2.286 2.286v0zM36 15.429c-2.525 0-4.571 2.047-4.571 4.571s2.047 4.571 4.571 4.571c2.525 0 4.571-2.047 4.571-4.571s-2.047-4.571-4.571-4.571v0zM8.571 10.857c-1.262 0-2.286-1.024-2.286-2.286s1.024-2.286 2.286-2.286c1.262 0 2.286 1.024 2.286 2.286s-1.024 2.286-2.286 2.286v0zM8.571 4c-2.525 0-4.571 2.047-4.571 4.571s2.047 4.571 4.571 4.571c2.525 0 4.571-2.047 4.571-4.571s-2.047-4.571-4.571-4.571v0zM36 33.714c-1.262 0-2.286-1.024-2.286-2.286s1.024-2.286 2.286-2.286c1.262 0 2.286 1.024 2.286 2.286s-1.024 2.286-2.286 2.286v0zM36 26.857c-2.525 0-4.571 2.047-4.571 4.571s2.047 4.571 4.571 4.571c2.525 0 4.571-2.047 4.571-4.571s-2.047-4.571-4.571-4.571v0zM8.571 33.714c-1.262 0-2.286-1.024-2.286-2.286s1.024-2.286 2.286-2.286c1.262 0 2.286 1.024 2.286 2.286s-1.024 2.286-2.286 2.286v0zM8.571 26.857c-2.525 0-4.571 2.047-4.571 4.571s2.047 4.571 4.571 4.571c2.525 0 4.571-2.047 4.571-4.571s-2.047-4.571-4.571-4.571v0zM36 6.286c1.262 0 2.286 1.024 2.286 2.286s-1.024 2.286-2.286 2.286c-1.262 0-2.286-1.024-2.286-2.286s1.024-2.286 2.286-2.286v0zM36 13.143c2.525 0 4.571-2.047 4.571-4.571s-2.047-4.571-4.571-4.571c-2.525 0-4.571 2.047-4.571 4.571s2.047 4.571 4.571 4.571v0zM8.571 22.286c-1.262 0-2.286-1.024-2.286-2.286s1.024-2.286 2.286-2.286c1.262 0 2.286 1.024 2.286 2.286s-1.024 2.286-2.286 2.286v0zM8.571 15.429c-2.525 0-4.571 2.047-4.571 4.571s2.047 4.571 4.571 4.571c2.525 0 4.571-2.047 4.571-4.571s-2.047-4.571-4.571-4.571v0z"></path>
</svg>
