<!-- Generated by IcoMoon.io -->
<svg version="1.1" xmlns="http://www.w3.org/2000/svg" width="46" height="40" viewBox="0 0 46 40">
<title>bm-hamburger-2</title>
<path fill="#fff" d="M36 33.714h-27.429c-1.262 0-2.286-1.029-2.286-2.286s1.024-2.286 2.286-2.286h27.429c1.262 0 2.286 1.029 2.286 2.286s-1.024 2.286-2.286 2.286v0zM36 26.857h-27.429c-2.525 0-4.571 2.046-4.571 4.571s2.047 4.571 4.571 4.571h27.429c2.525 0 4.571-2.046 4.571-4.571s-2.047-4.571-4.571-4.571v0zM36 22.286h-27.429c-1.262 0-2.286-1.029-2.286-2.286s1.024-2.286 2.286-2.286h27.429c1.262 0 2.286 1.029 2.286 2.286s-1.024 2.286-2.286 2.286v0zM36 15.429h-27.429c-2.525 0-4.571 2.046-4.571 4.571s2.047 4.571 4.571 4.571h27.429c2.525 0 4.571-2.046 4.571-4.571s-2.047-4.571-4.571-4.571v0zM8.571 6.286h27.429c1.262 0 2.286 1.029 2.286 2.286s-1.024 2.286-2.286 2.286h-27.429c-1.262 0-2.286-1.029-2.286-2.286s1.024-2.286 2.286-2.286v0zM8.571 13.143h27.429c2.525 0 4.571-2.046 4.571-4.571s-2.047-4.571-4.571-4.571h-27.429c-2.525 0-4.571 2.046-4.571 4.571s2.047 4.571 4.571 4.571v0z"></path>
</svg>
