<!-- Generated by IcoMoon.io -->
<svg version="1.1" xmlns="http://www.w3.org/2000/svg" width="41" height="40" viewBox="0 0 41 40">
<title>bm-heart-like</title>
<path fill="#fff" d="M32.903 18.123l-12.387 14.78-12.387-14.841c-1.481-2.058-2.065-3.449-2.065-5.352 0-3.55 2.534-6.745 6.194-6.775 3.010-0.025 6.423 3.049 8.258 5.367 1.787-2.236 5.248-5.367 8.258-5.367 3.562 0 6.194 3.225 6.194 6.775 0 1.903-0.461 3.397-2.065 5.413v0zM28.774 4c-3.441 0-6.044 2.019-8.258 4.129-2.109-2.239-4.818-4.129-8.258-4.129-4.845 0-8.258 4.166-8.258 8.71 0 2.437 0.998 4.192 2.091 5.842l12.834 15.387c1.44 1.525 1.713 1.525 3.153 0l12.863-15.387c1.286-1.65 2.091-3.404 2.091-5.842 0-4.544-3.413-8.71-8.258-8.71v0z"></path>
</svg>
