<!-- Generated by IcoMoon.io -->
<svg version="1.1" xmlns="http://www.w3.org/2000/svg" width="46" height="40" viewBox="0 0 46 40">
<title>bm-hamburger-21</title>
<path fill="#fff" d="M36 15.429h-27.429c-2.525 0-4.571 2.046-4.571 4.571s2.047 4.571 4.571 4.571h27.429c2.525 0 4.571-2.046 4.571-4.571s-2.047-4.571-4.571-4.571v0zM36 26.857h-27.429c-2.525 0-4.571 2.046-4.571 4.571s2.047 4.571 4.571 4.571h27.429c2.525 0 4.571-2.046 4.571-4.571s-2.047-4.571-4.571-4.571v0zM8.571 13.143h27.429c2.525 0 4.571-2.046 4.571-4.571s-2.047-4.571-4.571-4.571h-27.429c-2.525 0-4.571 2.046-4.571 4.571s2.047 4.571 4.571 4.571v0z"></path>
</svg>
