<!-- Generated by IcoMoon.io -->
<svg version="1.1" xmlns="http://www.w3.org/2000/svg" width="40" height="40" viewBox="0 0 40 40">
<title>bm-keynote-presentation</title>
<path fill="#fff" d="M32 25c0 1.229-0.794 2-2 2h-20c-1.206 0-2-0.771-2-2 0 0-0.015-17.743-0.015-19.010h24.030c0 2.017-0.015 19.010-0.015 19.010v0zM4 4v2h2v19c0 2.37 1.644 4 4 4h6l-4 7 3.012-0.013 3.988-6.987h2l3.988 6.987 3.012 0.013-4-7h6c2.356 0 4-1.63 4-4v-19h2v-2h-32zM14 24c0.553 0 1-0.447 1-1v-4c0-0.552-0.447-1-1-1s-1 0.448-1 1v4c0 0.553 0.447 1 1 1v0zM26 24c0.553 0 1-0.447 1-1v-9c0-0.552-0.447-1-1-1s-1 0.448-1 1v9c0 0.553 0.447 1 1 1v0zM20 24c0.553 0 1-0.447 1-1v-12c0-0.552-0.447-1-1-1s-1 0.448-1 1v12c0 0.553 0.447 1 1 1v0z"></path>
</svg>
