<!-- Generated by IcoMoon.io -->
<svg version="1.1" xmlns="http://www.w3.org/2000/svg" width="40" height="40" viewBox="0 0 40 40">
<title>bm-new1</title>
<path fill="#fff" d="M35.396 8.088l-3.512-3.515c-0.777-0.776-2.034-0.776-2.81 0l-3.425 3.427h2.81l1.317-1.317c0.388-0.389 1.017-0.389 1.406 0l2.107 2.108c0.388 0.389 0.388 1.018 0 1.406l-1.289 1.29v2.811l3.396-3.399c0.776-0.775 0.776-2.035 0-2.811v0zM15.024 21.444c0.373 0.373 2.196 2.197 3.512 3.515l11.24-11.247-3.537-3.49-11.215 11.222zM10.713 28.571c-0.228 0.458 0.212 0.93 0.701 0.702l5.372-3.253-2.821-2.825-3.252 5.376zM18.912 26.874l-8.699 4.303c-0.98 0.455-1.764-0.423-1.403-1.404l4.3-8.705c0.074-0.375 0.218-0.739 0.509-1.030l12.030-12.038h-18.849c-1.546 0-2.8 1.254-2.8 2.8v22.4c0 1.546 1.254 2.8 2.8 2.8h22.4c1.546 0 2.8-1.254 2.8-2.8v-18.902l-12.059 12.067c-0.29 0.29-0.654 0.436-1.029 0.509v0zM31.182 12.306l0.818-0.819v-0.687c0-1.546-1.254-2.8-2.8-2.8h-0.741l-0.74 0.74 3.463 3.566z"></path>
</svg>
