<!-- Generated by IcoMoon.io -->
<svg version="1.1" xmlns="http://www.w3.org/2000/svg" width="29" height="40" viewBox="0 0 29 40">
<title>bm-pauze1</title>
<path fill="#fff" d="M10.857 32.571c0 0.632-0.511 1.143-1.143 1.143h-2.286c-0.632 0-1.143-0.511-1.143-1.143v-25.143c0-0.631 0.511-1.143 1.143-1.143h2.286c0.632 0 1.143 0.512 1.143 1.143v25.143zM10.857 4h-4.571c-1.262 0-2.286 1.024-2.286 2.286v27.429c0 1.262 1.024 2.286 2.286 2.286h4.571c1.262 0 2.286-1.024 2.286-2.286v-27.429c0-1.262-1.024-2.286-2.286-2.286v0zM24.571 32.571c0 0.632-0.511 1.143-1.143 1.143h-2.286c-0.632 0-1.143-0.511-1.143-1.143v-25.143c0-0.631 0.511-1.143 1.143-1.143h2.286c0.632 0 1.143 0.512 1.143 1.143v25.143zM24.571 4h-4.571c-1.262 0-2.286 1.024-2.286 2.286v27.429c0 1.262 1.024 2.286 2.286 2.286h4.571c1.262 0 2.286-1.024 2.286-2.286v-27.429c0-1.262-1.024-2.286-2.286-2.286v0z"></path>
</svg>
