<!-- Generated by IcoMoon.io -->
<svg version="1.1" xmlns="http://www.w3.org/2000/svg" width="40" height="40" viewBox="0 0 40 40">
<title>bm-rain</title>
<path fill="#fff" d="M27 30c-0.553 0-1 0.448-1 1 0 0.553 0.447 1 1 1s1-0.447 1-1c0-0.552-0.447-1-1-1v0zM27.067 9.029c-1.468-2.976-4.524-5.029-8.067-5.029-4.749 0-8.63 3.682-8.967 8.345-3.491 0.996-6.033 4.045-6.033 7.655 0 4.26 3.54 7.755 8 8h14c5.785 0 10-4.253 10-9.5 0-5.055-3.951-9.176-8.933-9.471v0zM23 34c-0.553 0-1 0.448-1 1 0 0.553 0.447 1 1 1s1-0.447 1-1c0-0.552-0.447-1-1-1v0zM21 30c-0.553 0-1 0.448-1 1 0 0.553 0.447 1 1 1s1-0.447 1-1c0-0.552-0.447-1-1-1v0zM15 30c-0.553 0-1 0.448-1 1 0 0.553 0.447 1 1 1s1-0.447 1-1c0-0.552-0.447-1-1-1v0zM17 34c-0.553 0-1 0.448-1 1 0 0.553 0.447 1 1 1s1-0.447 1-1c0-0.552-0.447-1-1-1v0z"></path>
</svg>
