<!-- Generated by IcoMoon.io -->
<svg version="1.1" xmlns="http://www.w3.org/2000/svg" width="39" height="40" viewBox="0 0 39 40">
<title>bm-reply</title>
<path fill="#fff" d="M18.857 21.143c-0.747 0-3.451 0.023-3.451 0.023v6.137l-8.751-9.589 8.751-9.6v6.183c0 0 2.857-0.034 3.451-0.011 8.071 0.251 13.675 9.44 13.712 13.737-2.466-3.166-8.946-6.88-13.712-6.88v0zM17.695 12.011v-6.743c0.039-0.343-0.054-0.686-0.314-0.949-0.453-0.446-1.186-0.446-1.639 0l-11.416 12.526c-0.241 0.24-0.344 0.549-0.328 0.869-0.016 0.309 0.087 0.629 0.328 0.869l11.353 12.446c0.21 0.263 0.515 0.434 0.871 0.434 0.325 0 0.614-0.137 0.822-0.354 0.002 0 0.007 0 0.009-0.011 0.261-0.251 0.353-0.606 0.314-0.937 0 0 0.019-6.343 0.019-6.731 7.543 0 14.365 5.429 15.719 12.583 0.912-2.103 1.424-4.411 1.424-6.846 0-9.474-7.685-17.154-17.162-17.154v0z"></path>
</svg>
