<!-- Generated by IcoMoon.io -->
<svg version="1.1" xmlns="http://www.w3.org/2000/svg" width="23" height="40" viewBox="0 0 23 40">
<title>bm-smartphone1</title>
<path fill="#fff" d="M20 9h-14v-1c0-1.104 0.896-2 2-2h10c1.104 0 2 0.896 2 2v1zM6 11h14v13h-14v-13zM20 32c0 1.104-0.896 2-2 2h-10c-1.104 0-2-0.896-2-2v-6h14v6zM18 4h-10c-2.209 0-4 1.791-4 4v24c0 2.209 1.791 4 4 4h10c2.209 0 4-1.791 4-4v-24c0-2.209-1.791-4-4-4v0zM13 32c1.104 0 2-0.896 2-2s-0.896-2-2-2c-1.104 0-2 0.896-2 2s0.896 2 2 2v0z"></path>
</svg>
