<!-- Generated by IcoMoon.io -->
<svg version="1.1" xmlns="http://www.w3.org/2000/svg" width="33" height="40" viewBox="0 0 33 40">
<title>bm-text-document</title>
<path fill="#fff" d="M24 12c-1.104 0-2-0.896-2-2v-4l6 6h-4zM23 22h-12c-0.552 0-1-0.447-1-1 0-0.552 0.448-1 1-1h12c0.552 0 1 0.448 1 1 0 0.553-0.448 1-1 1v0zM23 28h-12c-0.552 0-1-0.447-1-1s0.448-1 1-1h12c0.552 0 1 0.447 1 1s-0.448 1-1 1v0zM22 4.028c-0.128 0-14-0.028-14-0.028-2.209 0-4 1.791-4 4v24c0 2.209 1.791 4 4 4h18c2.209 0 4-1.791 4-4v-20l-8-7.972z"></path>
</svg>
