<!-- Generated by IcoMoon.io -->
<svg version="1.1" xmlns="http://www.w3.org/2000/svg" width="40" height="40" viewBox="0 0 40 40">
<title>bm-tag-2</title>
<path fill="#fff" d="M28.064 17.416c-1.512 1.514-3.964 1.514-5.477 0s-1.513-3.968 0-5.481c1.513-1.515 3.965-1.515 5.477 0 1.513 1.513 1.513 3.967 0 5.481v0zM33.185 4.963h-13.008c-1.027 0-1.214 0.448-2.192 1.472l-9.682 9.653 15.627 15.627 9.708-9.677c0.823-0.822 1.407-1.231 1.407-2.256v-12.968c0-1.022-0.833-1.852-1.859-1.852v0zM23.956 13.305c-0.756 0.756-0.756 1.984 0 2.74s1.983 0.756 2.738 0c0.757-0.756 0.757-1.984 0-2.74-0.755-0.757-1.982-0.757-2.738 0v0zM5.18 19.201c-1.572 1.566-1.572 4.107 0 5.673l9.959 9.931c1.572 1.566 4.119 1.566 5.691 0l1.725-1.72-15.627-15.627-1.748 1.744z"></path>
</svg>
