<!-- Generated by IcoMoon.io -->
<svg version="1.1" xmlns="http://www.w3.org/2000/svg" width="40" height="40" viewBox="0 0 40 40">
<title>bm-wind-flag</title>
<path fill="#fff" d="M33.867 6.133l-4.267-0.387v12.508l4.267-0.387c1.178 0 2.133-0.956 2.133-2.133v-7.467c0-1.178-0.956-2.133-2.133-2.133v0zM21.067 19.030l6.4-0.581v-12.897l-6.4-0.582v14.061zM8.267 6.133v11.733c0 1.178 0.956 2.133 2.133 2.133l8.533-0.777v-14.447l-8.533-0.777c-1.178 0-2.133 0.956-2.133 2.133v0zM5.067 4c-0.59 0-1.067 0.478-1.067 1.067v29.867c0 0.59 0.477 1.067 1.067 1.067s1.067-0.477 1.067-1.067v-29.867c0-0.589-0.477-1.067-1.067-1.067v0z"></path>
</svg>
