<!-- Generated by IcoMoon.io -->
<svg version="1.1" xmlns="http://www.w3.org/2000/svg" width="24" height="24" viewBox="0 0 24 24">
<title>brightness_high</title>
<path fill="#fff" d="M12 8.813q1.313 0 2.25 0.938t0.938 2.25-0.938 2.25-2.25 0.938-2.25-0.938-0.938-2.25 0.938-2.25 2.25-0.938zM12 16.8q1.987 0 3.394-1.406t1.406-3.394-1.406-3.394-3.394-1.406-3.394 1.406-1.406 3.394 1.406 3.394 3.394 1.406zM18.413 9.337l2.625 2.663-2.625 2.663v3.75h-3.75l-2.663 2.625-2.663-2.625h-3.75v-3.75l-2.625-2.663 2.625-2.663v-3.75h3.75l2.663-2.625 2.663 2.625h3.75v3.75z"></path>
</svg>
