<!-- Generated by IcoMoon.io -->
<svg version="1.1" xmlns="http://www.w3.org/2000/svg" width="24" height="24" viewBox="0 0 24 24">
<title>cached</title>
<path fill="#fff" d="M7.2 12h2.4l-3.188 3.188-3.225-3.188h2.4q0-2.625 1.894-4.519t4.519-1.894q1.875 0 3.413 1.013l-1.163 1.162q-1.013-0.563-2.25-0.563-1.988 0-3.394 1.406t-1.406 3.394zM17.587 8.813l3.225 3.188h-2.4q0 2.625-1.894 4.519t-4.519 1.894q-1.875 0-3.413-1.012l1.163-1.163q1.050 0.563 2.25 0.563 1.987 0 3.394-1.406t1.406-3.394h-2.4z"></path>
</svg>
