<!-- Generated by IcoMoon.io -->
<svg version="1.1" xmlns="http://www.w3.org/2000/svg" width="24" height="24" viewBox="0 0 24 24">
<title>camera_rear</title>
<path fill="#fff" d="M12 7.2q0.638 0 1.106-0.487t0.469-1.125-0.469-1.106-1.106-0.469-1.125 0.469-0.488 1.106 0.469 1.125 1.144 0.487zM16.013 2.4q0.637 0 1.106 0.487t0.469 1.125v11.175q0 0.638-0.469 1.125t-1.106 0.487h-5.625l2.4 2.4-2.4 2.4v-1.613h-3.975v-1.575h3.975v-1.613h-2.4q-0.638 0-1.106-0.487t-0.469-1.125v-11.175q0-0.637 0.469-1.125t1.106-0.487h8.025zM13.612 18.413h3.975v1.575h-3.975v-1.575z"></path>
</svg>
