<!-- Generated by IcoMoon.io -->
<svg version="1.1" xmlns="http://www.w3.org/2000/svg" width="24" height="24" viewBox="0 0 24 24">
<title>connected_tv</title>
<path fill="#fff" d="M5.588 8.813q2.662 0 4.537 1.875t1.875 4.5h-1.163q0-2.175-1.537-3.694t-3.713-1.519v-1.163zM5.588 11.212q1.65 0 2.831 1.163t1.181 2.813h-1.163q0-1.163-0.844-2.006t-2.006-0.844v-1.125zM5.588 13.612q0.675 0 1.144 0.45t0.469 1.125h-1.612v-1.575zM19.2 16.013v-9.6h-14.4v9.6h14.4zM19.2 4.8q0.637 0 1.125 0.487t0.487 1.125l-0.038 9.6q0 0.637-0.469 1.106t-1.106 0.469h-4.012v1.613h-6.375v-1.613h-4.012q-0.638 0-1.125-0.469t-0.488-1.106v-9.6q0-0.638 0.488-1.125t1.125-0.487h14.4z"></path>
</svg>
