<!-- Generated by IcoMoon.io -->
<svg version="1.1" xmlns="http://www.w3.org/2000/svg" width="24" height="24" viewBox="0 0 24 24">
<title>contact_support</title>
<path fill="#fff" d="M12.413 12.788q0-0.863 1.2-1.913t1.2-2.063q0-1.313-0.956-2.269t-2.269-0.956-2.25 0.956-0.938 2.269h1.612q0-0.637 0.469-1.125t1.106-0.488 1.125 0.488 0.487 1.125q0 0.525-0.375 0.938t-0.825 0.675-0.825 0.881-0.375 1.481h1.613zM12.413 15.6v-1.613h-1.613v1.613h1.613zM11.587 4.012q2.813 0 4.819 1.988t2.006 4.8q0 2.738-1.763 5.269t-4.65 3.919v-2.4h-0.413q-2.813 0-4.8-1.987t-1.988-4.8 1.988-4.8 4.8-1.988z"></path>
</svg>
