<!-- Generated by IcoMoon.io -->
<svg version="1.1" xmlns="http://www.w3.org/2000/svg" width="24" height="24" viewBox="0 0 24 24">
<title>content_paste</title>
<path fill="#fff" d="M17.587 18.413v-12.825h-1.575v2.4h-8.025v-2.4h-1.575v12.825h11.175zM12 4.012q-0.337 0-0.563 0.225t-0.225 0.563 0.225 0.563 0.563 0.225 0.563-0.225 0.225-0.563-0.225-0.563-0.563-0.225zM17.587 4.012q0.638 0 1.125 0.469t0.488 1.106v12.825q0 0.637-0.488 1.106t-1.125 0.469h-11.175q-0.638 0-1.125-0.469t-0.488-1.106v-12.825q0-0.638 0.488-1.106t1.125-0.469h3.338q0.262-0.712 0.863-1.162t1.387-0.45 1.388 0.45 0.862 1.162h3.337z"></path>
</svg>
