<!-- Generated by IcoMoon.io -->
<svg version="1.1" xmlns="http://www.w3.org/2000/svg" width="24" height="24" viewBox="0 0 24 24">
<title>desktop_access_disabled</title>
<path fill="#fff" d="M4.8 15.188h7.913l-7.913-7.913v7.913zM14.325 16.8h-0.713v1.613h1.575v1.575h-6.375v-1.575h1.575v-1.613h-5.588q-0.638 0-1.125-0.487t-0.488-1.125v-9.525l-0.787-0.787 0.975-1.050q0.9 0.9 5.7 5.662t7.313 7.313l3.787 3.75-1.050 1.050zM20.813 15.188q0 0.638-0.487 1.125t-1.125 0.487h-0.788l-1.613-1.612h2.4v-9.6h-12l-1.613-1.575h13.613q0.637 0 1.125 0.469t0.487 1.106v9.6z"></path>
</svg>
