<!-- Generated by IcoMoon.io -->
<svg version="1.1" xmlns="http://www.w3.org/2000/svg" width="40" height="40" viewBox="0 0 40 40">
<title>di-arrow-down</title>
<path fill="#fff" d="M31.722 21.252c-0.209-0.487-0.73-0.904-1.287-0.904h-4.522v-12.87c0-0.765-0.8-1.391-1.565-1.391h-8.696c-0.765 0-1.565 0.626-1.565 1.391v12.87h-4.522c-0.557 0-1.078 0.417-1.287 0.904-0.209 0.522-0.104 1.148 0.278 1.53l10.435 10.678c0.278 0.278 0.626 0.417 1.009 0.417s0.73-0.139 1.009-0.417l10.435-10.678c0.383-0.383 0.487-1.009 0.278-1.53zM20 30.4l-7.13-7.27h2.783c0.765 0 1.217-0.487 1.217-1.252v-13.009h6.261v13.009c0 0.765 0.452 1.252 1.217 1.252h2.783l-7.13 7.27z"></path>
</svg>
