<!-- Generated by IcoMoon.io -->
<svg version="1.1" xmlns="http://www.w3.org/2000/svg" width="40" height="40" viewBox="0 0 40 40">
<title>di-backspace</title>
<path fill="#fff" d="M36 19.861v6.157c0 0.835-0.522 1.53-1.391 1.53s-1.391-0.696-1.391-1.53v-4.591h-23.757l3.548 3.513c0.591 0.591 0.557 1.565-0.070 2.191-0.313 0.313-0.73 0.452-1.148 0.452-0.383 0-0.8-0.139-1.113-0.452l-6.261-6.157c-0.243-0.278-0.417-0.696-0.417-1.113s0.174-0.8 0.452-1.078l6.226-6.157c0.591-0.591 1.6-0.591 2.191 0s0.591 1.565-0.035 2.191l-3.548 3.513h25.113c0.417 0 0.87 0.174 1.148 0.452s0.452 0.696 0.452 1.078z"></path>
</svg>
