<!-- Generated by IcoMoon.io -->
<svg version="1.1" xmlns="http://www.w3.org/2000/svg" width="40" height="40" viewBox="0 0 40 40">
<title>di-crop</title>
<path fill="#fff" d="M34.887 7.409c0.557-0.522 0.557-1.426 0-1.983-0.522-0.557-1.426-0.522-1.983 0l-4.139 4.139h-17.461v-2.539c0-0.765-0.626-1.391-1.391-1.391s-1.391 0.626-1.391 1.391v2.539h-2.435c-0.765 0-1.391 0.626-1.391 1.391s0.626 1.391 1.391 1.391h2.435v17.357c0 0.035 0.035 0.070 0.035 0.104 0 0.070 0.035 0.104 0.035 0.174 0 0.035 0.035 0.070 0.035 0.139 0 0.035 0.035 0.104 0.035 0.139 0.035 0.035 0.035 0.070 0.070 0.139 0.035 0.035 0.035 0.070 0.070 0.104s0.070 0.104 0.104 0.139c0.035 0.035 0.035 0.035 0.070 0.070 0 0 0 0 0 0 0.070 0.070 0.139 0.104 0.209 0.174 0.035 0 0.035 0.035 0.070 0.035 0.070 0.035 0.139 0.070 0.209 0.104 0.035 0 0.070 0.035 0.139 0.035 0.035 0 0.104 0.035 0.139 0.035 0.104 0.035 0.174 0.035 0.278 0.035 0 0 0 0 0 0h17.983v2.435c0 0.765 0.626 1.391 1.391 1.391s1.391-0.626 1.391-1.391v-2.435h2.435c0.765 0 1.391-0.626 1.391-1.391s-0.626-1.391-1.391-1.391h-2.435v-16.904l4.104-4.035zM25.913 12.348l-14.609 14.087v-14.087h14.609zM28 28.348h-14.609l14.609-14.191v14.191z"></path>
</svg>
