<!-- Generated by IcoMoon.io -->
<svg version="1.1" xmlns="http://www.w3.org/2000/svg" width="40" height="40" viewBox="0 0 40 40">
<title>di-camera</title>
<path fill="#fff" d="M20 13.391c-4.383 0-7.965 3.617-7.965 8.070s3.583 8.070 7.965 8.070 7.965-3.617 7.965-8.070c0-4.452-3.583-8.070-7.965-8.070zM20 26.783c-2.852 0-5.183-2.365-5.183-5.287s2.33-5.322 5.183-5.322 5.183 2.365 5.183 5.287-2.33 5.322-5.183 5.322zM23.861 21.809c-0.070 0.626-0.591 1.043-1.217 1.043-0.070 0-0.104 0-0.174 0-0.661-0.104-1.148-0.696-1.043-1.357 0.139-1.009-1.043-1.565-1.113-1.6-0.591-0.278-0.87-1.009-0.591-1.6s0.974-0.87 1.6-0.626c1.113 0.487 2.852 1.878 2.539 4.139zM21.183 23.339c0.243 0.243 0.417 0.626 0.417 0.974s-0.139 0.73-0.417 0.974c-0.278 0.243-0.626 0.417-0.974 0.417s-0.73-0.139-0.974-0.417c-0.243-0.278-0.417-0.626-0.417-0.974 0-0.383 0.139-0.73 0.417-0.974 0.278-0.278 0.626-0.417 0.974-0.417s0.73 0.139 0.974 0.417zM34.609 13.043h-5.357l-1.496-5.565c-0.174-0.591-0.73-1.043-1.357-1.043h-12.835c-0.626 0-1.183 0.452-1.357 1.043l-1.496 5.565h-5.322c-0.765 0-1.391 0.591-1.391 1.357v17.774c0 0.765 0.626 1.391 1.391 1.391h29.217c0.765 0 1.391-0.626 1.391-1.391v-17.774c0-0.765-0.626-1.357-1.391-1.357zM33.217 30.783h-26.435v-14.957h5.009c0.626 0 1.183-0.452 1.357-1.043l1.496-5.565h10.713l1.496 5.565c0.174 0.591 0.73 1.043 1.357 1.043h5.009v14.957z"></path>
</svg>
