<!-- Generated by IcoMoon.io -->
<svg version="1.1" xmlns="http://www.w3.org/2000/svg" width="40" height="40" viewBox="0 0 40 40">
<title>di-clock</title>
<path fill="#fff" d="M20 4c-8.835 0-16 7.165-16 16s7.165 16 16 16 16-7.165 16-16-7.165-16-16-16zM20 33.217c-7.304 0-13.217-5.913-13.217-13.217s5.913-13.217 13.217-13.217 13.217 5.913 13.217 13.217-5.913 13.217-13.217 13.217zM25.322 23.339c0.557 0.557 0.557 1.426 0 1.983-0.278 0.278-0.626 0.417-0.974 0.417s-0.696-0.139-0.974-0.417l-4.348-4.348c-0.278-0.243-0.417-0.591-0.417-0.974v-8.278c0-0.765 0.626-1.391 1.391-1.391s1.391 0.626 1.391 1.391v7.722l3.93 3.896z"></path>
</svg>
