<!-- Generated by IcoMoon.io -->
<svg version="1.1" xmlns="http://www.w3.org/2000/svg" width="40" height="40" viewBox="0 0 40 40">
<title>di-code</title>
<path fill="#fff" d="M24.522 30.087c-0.383 0-0.73-0.139-1.009-0.417-0.522-0.557-0.522-1.426 0.035-1.983l8-7.687-8-7.687c-0.557-0.522-0.557-1.426-0.035-1.983s1.426-0.557 1.983-0.035l9.043 8.696c0.278 0.278 0.417 0.626 0.417 1.009s-0.139 0.73-0.417 1.009l-9.043 8.696c-0.278 0.243-0.626 0.383-0.974 0.383zM16.487 29.67c0.522-0.557 0.522-1.426-0.035-1.983l-8-7.687 8-7.687c0.557-0.522 0.557-1.426 0.035-1.983s-1.426-0.557-1.983-0.035l-9.043 8.696c-0.278 0.278-0.417 0.626-0.417 1.009s0.139 0.73 0.417 1.009l9.043 8.696c0.278 0.243 0.626 0.383 0.974 0.383s0.73-0.139 1.009-0.417z"></path>
</svg>
