<!-- Generated by IcoMoon.io -->
<svg version="1.1" xmlns="http://www.w3.org/2000/svg" width="40" height="40" viewBox="0 0 40 40">
<title>di-device-tablet</title>
<path fill="#fff" d="M21.948 30.783c0 0.591-0.452 1.043-1.043 1.043h-1.809c-0.591 0-1.043-0.452-1.043-1.043s0.452-1.043 1.043-1.043h1.809c0.591 0 1.043 0.452 1.043 1.043zM32.87 6.643v26.713c0 1.461-1.183 2.643-2.643 2.643h-20.452c-1.461 0-2.643-1.183-2.643-2.643v-26.713c0-1.461 1.183-2.643 2.643-2.643h20.452c1.461 0 2.643 1.183 2.643 2.643zM9.913 6.783v19.13h20.174v-19.13h-20.174zM30.087 33.217v-5.217h-20.174v5.217h20.174z"></path>
</svg>
