<!-- Generated by IcoMoon.io -->
<svg version="1.1" xmlns="http://www.w3.org/2000/svg" width="40" height="40" viewBox="0 0 40 40">
<title>di-expand-2</title>
<path fill="#fff" d="M35.304 6.087v7.304c0 0.765-0.626 1.391-1.391 1.391v0c-0.765 0-1.391-0.626-1.391-1.391v-3.93l-8.8 8.765c-0.278 0.278-0.626 0.417-0.974 0.417s-0.696-0.139-0.974-0.417c-0.557-0.557-0.557-1.426 0-1.983l8.765-8.765h-3.93c-0.765 0-1.391-0.626-1.391-1.391s0.626-1.391 1.391-1.391h7.304c0.383 0 0.73 0.139 0.974 0.417 0.278 0.243 0.417 0.591 0.417 0.974zM16.139 21.913l-8.661 8.626v-3.93c0-0.765-0.626-1.391-1.391-1.391v0c-0.765 0-1.391 0.626-1.391 1.391v7.304c0 0.383 0.139 0.73 0.417 0.974 0.243 0.278 0.591 0.417 0.974 0.417h7.304c0.765 0 1.391-0.626 1.391-1.391s-0.626-1.391-1.391-1.391h-3.93l8.661-8.661c0.557-0.557 0.557-1.426 0-1.983-0.557-0.522-1.461-0.522-1.983 0.035z"></path>
</svg>
