<!-- Generated by IcoMoon.io -->
<svg version="1.1" xmlns="http://www.w3.org/2000/svg" width="40" height="40" viewBox="0 0 40 40">
<title>di-graph-line</title>
<path fill="#fff" d="M6.087 32.522c-0.313 0-0.626-0.070-0.904-0.243-0.835-0.487-1.078-1.565-0.591-2.4l4.243-7.096c0.313-0.487 0.835-0.835 1.426-0.835 0.591-0.035 1.148 0.243 1.496 0.73l1.809 2.504 3.826-6.539c0.278-0.487 0.835-0.835 1.391-0.87 0.591-0.035 1.148 0.243 1.496 0.696l3.339 4.487 8.8-14.609c0.487-0.835 1.565-1.078 2.4-0.591s1.078 1.565 0.591 2.4l-10.122 16.8c-0.313 0.487-0.835 0.8-1.391 0.835-0.591 0.035-1.148-0.243-1.496-0.696l-3.339-4.452-3.861 6.539c-0.313 0.522-0.835 0.835-1.426 0.87s-1.148-0.243-1.496-0.73l-1.809-2.504-2.887 4.835c-0.313 0.557-0.904 0.87-1.496 0.87z"></path>
</svg>
