<!-- Generated by IcoMoon.io -->
<svg version="1.1" xmlns="http://www.w3.org/2000/svg" width="40" height="40" viewBox="0 0 40 40">
<title>di-hourglass</title>
<path fill="#fff" d="M31.13 32.522h-1.391v-3.652c0-2.017-2.017-3.722-3.965-5.391-0.661-0.557-1.6-1.391-1.948-1.809v-3.374c0.348-0.383 1.287-1.252 1.948-1.809 1.948-1.635 3.965-3.339 3.965-5.357v-3.652h1.391c0.765 0 1.391-0.626 1.391-1.391s-0.626-1.391-1.391-1.391h-22.261c-0.765 0-1.391 0.626-1.391 1.391s0.626 1.391 1.391 1.391h1.391v3.652c0 2.017 2.017 3.722 3.965 5.391 0.661 0.557 1.6 1.426 1.948 1.809v3.374c-0.348 0.383-1.287 1.252-1.948 1.809-1.948 1.635-3.965 3.339-3.965 5.357v3.652h-1.391c-0.765 0-1.391 0.626-1.391 1.391s0.626 1.391 1.391 1.391h22.261c0.765 0 1.391-0.626 1.391-1.391s-0.626-1.391-1.391-1.391zM13.043 28.87c0-0.73 1.948-2.4 2.991-3.27 1.67-1.426 2.922-2.47 2.922-3.757v-3.687c0-1.322-1.252-2.365-2.922-3.791-1.043-0.87-2.991-2.504-2.991-3.27v-3.617h13.913v3.652c0 0.73-1.948 2.4-2.991 3.27-1.67 1.426-2.922 2.47-2.922 3.757v3.652c0 1.322 1.252 2.365 2.922 3.791 1.043 0.87 2.991 2.504 2.991 3.27v3.652h-13.913v-3.652zM23.13 10.609v-0.696c0-0.661 0.557-1.217 1.217-1.217s1.217 0.522 1.217 1.217v0.696c0 0.661-0.557 1.217-1.217 1.217s-1.217-0.557-1.217-1.217z"></path>
</svg>
