<!-- Generated by IcoMoon.io -->
<svg version="1.1" xmlns="http://www.w3.org/2000/svg" width="40" height="40" viewBox="0 0 40 40">
<title>di-help</title>
<path fill="#fff" d="M31.304 8.696c-3.026-3.026-7.026-4.696-11.304-4.696 0 0 0 0 0 0-4.278 0-8.278 1.67-11.304 4.696s-4.696 7.026-4.696 11.304 1.67 8.278 4.696 11.304c3.026 3.026 7.026 4.696 11.304 4.696s8.278-1.67 11.304-4.696c3.026-3.026 4.696-7.026 4.696-11.304s-1.67-8.278-4.696-11.304zM28.174 18.052l4.765-0.73c0.174 0.87 0.278 1.774 0.278 2.678s-0.104 1.809-0.278 2.678l-4.765-0.73c0.278-1.287 0.278-2.609 0-3.896zM32.348 15.27l-4.939 0.765c-0.383-0.73-0.87-1.391-1.461-1.983s-1.287-1.113-1.983-1.461l0.765-4.939c1.704 0.661 3.304 1.67 4.626 2.991 1.322 1.357 2.33 2.922 2.991 4.626zM20 25.635c-1.496 0-2.922-0.591-3.965-1.635-1.078-1.078-1.635-2.47-1.635-3.965s0.591-2.922 1.635-3.965c1.113-1.113 2.539-1.635 3.965-1.635s2.887 0.557 3.965 1.635c1.078 1.078 1.635 2.47 1.635 3.965s-0.591 2.922-1.635 3.965c-1.043 1.043-2.47 1.635-3.965 1.635zM20 6.783c0.904 0 1.809 0.104 2.678 0.278l-0.73 4.765c-1.287-0.313-2.609-0.313-3.896 0l-0.73-4.765c0.87-0.174 1.774-0.278 2.678-0.278zM10.643 10.643c1.322-1.322 2.922-2.365 4.626-2.991l0.765 4.939c-0.73 0.383-1.391 0.87-1.983 1.461s-1.078 1.287-1.496 1.983l-4.939-0.765c0.696-1.704 1.704-3.27 3.026-4.626zM6.783 20c0-0.904 0.104-1.809 0.278-2.678l4.765 0.73c-0.139 0.626-0.243 1.287-0.243 1.948s0.070 1.322 0.243 1.948l-4.765 0.73c-0.174-0.87-0.278-1.774-0.278-2.678zM7.652 24.73l4.939-0.765c0.383 0.73 0.87 1.391 1.496 1.983 0.591 0.591 1.287 1.078 1.983 1.496l-0.765 4.939c-1.704-0.661-3.304-1.67-4.626-2.991-1.357-1.391-2.365-2.957-3.026-4.661zM20 33.217c-0.904 0-1.809-0.104-2.678-0.278l0.73-4.765c0.626 0.139 1.287 0.243 1.948 0.243v0c0.661 0 1.322-0.070 1.948-0.243l0.73 4.765c-0.87 0.174-1.774 0.278-2.678 0.278zM29.357 29.357c-1.322 1.322-2.922 2.365-4.626 2.991l-0.765-4.939c0.73-0.383 1.391-0.87 1.983-1.496 0.591-0.591 1.113-1.287 1.461-1.983l4.939 0.765c-0.661 1.739-1.67 3.304-2.991 4.661z"></path>
</svg>
