<!-- Generated by IcoMoon.io -->
<svg version="1.1" xmlns="http://www.w3.org/2000/svg" width="40" height="40" viewBox="0 0 40 40">
<title>di-heart</title>
<path fill="#fff" d="M34.157 11.652c-1.391-3.165-4.417-5.217-7.617-5.217-3.235 0-5.322 1.426-6.539 2.957-1.217-1.53-3.304-2.957-6.539-2.957-3.2 0-6.226 2.052-7.617 5.217-1.496 3.304-0.87 6.957 1.704 9.809 6.087 6.852 11.478 11.687 11.548 11.722 0.278 0.243 0.591 0.348 0.939 0.348s0.661-0.104 0.939-0.348c0.070-0.035 5.426-4.904 11.548-11.722 2.504-2.852 3.13-6.504 1.635-9.809zM30.4 19.617c-4.522 5.043-8.626 9.009-10.4 10.678-1.774-1.67-5.878-5.6-10.4-10.678-1.809-2.052-2.261-4.522-1.252-6.852 0.974-2.122 3.026-3.548 5.113-3.548 4.139 0 5.078 3.096 5.183 3.478 0.139 0.626 0.696 1.043 1.322 1.043 0 0 0 0 0 0 0.626 0 1.183-0.452 1.357-1.043 0.104-0.348 1.043-3.478 5.183-3.478 2.087 0 4.139 1.426 5.113 3.583 1.043 2.296 0.591 4.765-1.217 6.817zM30.052 15.583c0.035 0.661-0.452 1.252-1.148 1.287-0.035 0-0.070 0-0.070 0-0.626 0-1.183-0.487-1.217-1.148-0.139-1.983-1.426-2.296-1.67-2.33-0.661-0.104-1.113-0.696-1.043-1.357 0.104-0.661 0.73-1.113 1.391-1.043 1.217 0.174 3.548 1.357 3.757 4.591zM28.383 17.6c0.243 0.278 0.417 0.626 0.417 0.974 0 0.383-0.139 0.73-0.417 0.974-0.243 0.278-0.626 0.417-0.974 0.417s-0.73-0.139-0.974-0.417c-0.243-0.243-0.417-0.626-0.417-0.974s0.139-0.73 0.417-0.974c0.243-0.243 0.626-0.417 0.974-0.417 0.348 0.035 0.696 0.174 0.974 0.417z"></path>
</svg>
