<!-- Generated by IcoMoon.io -->
<svg version="1.1" xmlns="http://www.w3.org/2000/svg" width="40" height="40" viewBox="0 0 40 40">
<title>di-information</title>
<path fill="#fff" d="M19.061 29.67c-0.278 0-0.557-0.104-0.765-0.278-0.348-0.278-0.522-0.73-0.417-1.183l1.704-8.696-0.939 0.522c-0.591 0.313-1.322 0.139-1.67-0.452-0.313-0.591-0.139-1.322 0.452-1.67l3.235-1.843c0.417-0.243 0.939-0.209 1.322 0.070s0.557 0.765 0.487 1.217l-1.774 9.043 1.461-0.626c0.626-0.278 1.322 0 1.6 0.626s0 1.322-0.626 1.6l-3.583 1.565c-0.139 0.070-0.313 0.104-0.487 0.104zM22.504 13.043c0.313-0.313 0.522-0.765 0.522-1.217s-0.174-0.904-0.522-1.217c-0.313-0.313-0.765-0.522-1.217-0.522s-0.904 0.174-1.217 0.522c-0.313 0.313-0.522 0.765-0.522 1.217s0.174 0.904 0.522 1.217c0.313 0.313 0.765 0.522 1.217 0.522s0.904-0.174 1.217-0.522zM36 20c0-8.835-7.165-16-16-16s-16 7.165-16 16 7.165 16 16 16 16-7.165 16-16zM33.217 20c0 7.304-5.913 13.217-13.217 13.217s-13.217-5.913-13.217-13.217 5.913-13.217 13.217-13.217 13.217 5.913 13.217 13.217z"></path>
</svg>
