<!-- Generated by IcoMoon.io -->
<svg version="1.1" xmlns="http://www.w3.org/2000/svg" width="40" height="40" viewBox="0 0 40 40">
<title>di-italic</title>
<path fill="#fff" d="M21.635 14.643c0.278 0.313 0.383 0.8 0.278 1.217l-2.539 13.183c0.626-0.209 1.357 0.035 1.67 0.626 0.383 0.661 0.139 1.53-0.522 1.878l-0.87 0.487c-0.348 0.174-0.696 0.278-1.078 0.278-0.452 0-0.904-0.139-1.287-0.452-0.696-0.522-1.043-1.391-0.87-2.261l2.47-12.73h-0.591c-0.765 0-1.391-0.626-1.391-1.391s0.626-1.391 1.391-1.391h2.296c0.383 0 0.765 0.243 1.043 0.557zM21.009 8.661c-0.904 0-1.635 0.73-1.635 1.635s0.73 1.635 1.635 1.635 1.635-0.73 1.635-1.635-0.765-1.635-1.635-1.635z"></path>
</svg>
