<!-- Generated by IcoMoon.io -->
<svg version="1.1" xmlns="http://www.w3.org/2000/svg" width="40" height="40" viewBox="0 0 40 40">
<title>di-loading</title>
<path fill="#fff" d="M20 12.939c-0.765 0-1.391-0.626-1.391-1.391v-5.983c0-0.765 0.626-1.391 1.391-1.391s1.391 0.626 1.391 1.391v5.983c0 0.765-0.626 1.391-1.391 1.391zM15.861 14.296c0.626-0.452 0.765-1.322 0.313-1.948l-3.548-4.835c-0.452-0.626-1.322-0.765-1.948-0.313s-0.765 1.322-0.313 1.948l3.513 4.835c0.278 0.383 0.696 0.557 1.113 0.557 0.313 0.035 0.626-0.070 0.87-0.243zM13.287 17.809c0.243-0.73-0.174-1.53-0.904-1.739l-5.704-1.843c-0.73-0.243-1.53 0.174-1.739 0.904-0.243 0.696 0.174 1.496 0.904 1.739l5.704 1.843c0.139 0.035 0.278 0.070 0.417 0.070 0.591 0 1.113-0.383 1.322-0.974zM6.678 25.774l5.704-1.843c0.73-0.243 1.148-1.009 0.904-1.739s-1.009-1.113-1.739-0.904l-5.704 1.843c-0.73 0.243-1.148 1.009-0.904 1.739 0.174 0.591 0.73 0.974 1.322 0.974 0.139 0 0.278 0 0.417-0.070zM12.626 32.487l3.548-4.835c0.452-0.626 0.313-1.496-0.313-1.948s-1.496-0.313-1.948 0.313l-3.513 4.835c-0.452 0.626-0.313 1.496 0.313 1.948 0.243 0.174 0.522 0.278 0.8 0.278 0.417 0 0.835-0.209 1.113-0.591zM21.391 34.435v-5.983c0-0.765-0.626-1.391-1.391-1.391s-1.391 0.626-1.391 1.391v5.983c0 0.765 0.626 1.391 1.391 1.391s1.391-0.626 1.391-1.391zM29.322 32.8c0.626-0.452 0.765-1.322 0.313-1.948l-3.548-4.835c-0.452-0.626-1.322-0.765-1.948-0.313s-0.765 1.322-0.313 1.948l3.513 4.835c0.278 0.383 0.696 0.557 1.113 0.557 0.313 0.035 0.626-0.070 0.87-0.243zM35.061 24.904c0.243-0.73-0.174-1.53-0.904-1.739l-5.704-1.843c-0.73-0.243-1.53 0.174-1.739 0.904-0.243 0.73 0.174 1.53 0.904 1.739l5.704 1.843c0.139 0.035 0.278 0.070 0.417 0.070 0.591-0.035 1.148-0.417 1.322-0.974zM28.452 18.713l5.704-1.843c0.73-0.243 1.148-1.009 0.904-1.739s-1.009-1.113-1.739-0.904l-5.704 1.843c-0.73 0.243-1.148 1.009-0.904 1.739 0.174 0.591 0.73 0.974 1.322 0.974 0.139 0 0.278-0.035 0.417-0.070zM26.087 13.983l3.513-4.835c0.452-0.626 0.313-1.496-0.313-1.948s-1.496-0.313-1.948 0.313l-3.513 4.835c-0.452 0.626-0.313 1.496 0.313 1.948 0.243 0.174 0.522 0.278 0.8 0.278 0.452 0 0.87-0.209 1.148-0.591z"></path>
</svg>
