<!-- Generated by IcoMoon.io -->
<svg version="1.1" xmlns="http://www.w3.org/2000/svg" width="40" height="40" viewBox="0 0 40 40">
<title>di-lock</title>
<path fill="#fff" d="M29.391 15.478h-1.043v-2.4c0-5.148-3.478-8.73-8.348-8.73s-8.348 3.583-8.348 8.73v2.4h-1.043c-0.765 0-1.391 0.626-1.391 1.391v17.391c0 0.765 0.626 1.391 1.391 1.391h18.783c0.765 0 1.391-0.626 1.391-1.391v-17.391c0-0.765-0.626-1.391-1.391-1.391zM14.435 13.078c0-3.548 2.296-5.948 5.565-5.948s5.565 2.4 5.565 5.948v2.4h-11.13v-2.4zM28 32.87h-16v-14.609h16v14.609z"></path>
</svg>
