<!-- Generated by IcoMoon.io -->
<svg version="1.1" xmlns="http://www.w3.org/2000/svg" width="40" height="40" viewBox="0 0 40 40">
<title>di-lightbulb</title>
<path fill="#fff" d="M20 4c-5.704 0-10.435 4.73-10.435 10.539 0 3.548 1.391 6.4 4.174 8.313v3.409c0 0.383 0.243 0.765 0.522 1.009 0.243 0.243 0.626 0.383 0.974 0.383 0.035 0 0.104 0 0.139 0l9.565-0.765c0.73-0.070 1.357-0.661 1.357-1.391v-2.609c2.435-1.774 4.174-4.835 4.174-8.348-0.035-5.809-4.765-10.539-10.47-10.539zM24.174 20.87c-0.452 0.243-0.696 0.73-0.696 1.217v2.122l-6.957 0.557v-2.678c0-0.487-0.209-0.939-0.626-1.217-2.4-1.391-3.513-3.478-3.513-6.33-0.035-4.278 3.409-7.757 7.617-7.757s7.652 3.478 7.652 7.757c-0.035 2.783-1.287 5.148-3.478 6.33zM26.122 29.843c0.070 0.765-0.522 1.426-1.287 1.496l-9.496 0.696c-0.035 0-0.070 0-0.104 0-0.73 0-1.322-0.557-1.391-1.287-0.070-0.765 0.522-1.426 1.287-1.496l9.496-0.696c0.8-0.070 1.461 0.522 1.496 1.287zM23.096 34.226c0.070 0.765-0.522 1.426-1.287 1.496l-3.409 0.278c-0.035 0-0.070 0-0.104 0-0.73 0-1.322-0.557-1.391-1.287-0.070-0.765 0.522-1.426 1.287-1.496l3.443-0.278c0.765-0.035 1.426 0.522 1.461 1.287zM25.53 14.504c-0.070 0.626-0.591 1.113-1.217 1.113-0.035 0-0.070 0-0.104 0-0.661-0.070-1.148-0.661-1.078-1.322 0.209-1.983-1.53-2.713-1.739-2.783-0.626-0.243-0.939-0.939-0.73-1.565s0.904-0.974 1.53-0.73c1.287 0.452 3.652 2.157 3.339 5.287z"></path>
</svg>
