<!-- Generated by IcoMoon.io -->
<svg version="1.1" xmlns="http://www.w3.org/2000/svg" width="40" height="40" viewBox="0 0 40 40">
<title>di-network-1</title>
<path fill="#fff" d="M26.748 28.209c-1.565 0-2.887 1.183-3.443 2.226h-7.583c-0.591 0-0.939-0.313-0.939-0.904v-7.791h8.522c0.557 1.391 1.878 2.261 3.443 2.261 2.052 0 3.722-1.67 3.722-3.687s-1.67-3.687-3.722-3.687c-1.565 0-2.887 0.939-3.443 2.33h-8.522v-7.478c0 0-0.070-0.035-0.070-0.035 1.357-0.557 2.296-1.878 2.296-3.409 0-2.052-1.67-3.687-3.722-3.687-2.052-0.035-3.722 1.635-3.722 3.652 0 1.53 1.009 2.887 2.365 3.409 0 0 0.070 0.035 0.070 0.035v18.087c0 2.122 1.6 3.687 3.722 3.687h7.583c0.557 1.391 1.878 2.4 3.443 2.4 2.052 0 3.722-1.67 3.722-3.687s-1.704-3.722-3.722-3.722zM26.748 18.713c0.904 0 1.635 0.73 1.635 1.6s-0.73 1.6-1.635 1.6c-0.904 0-1.635-0.73-1.635-1.6 0-0.904 0.73-1.6 1.635-1.6zM13.252 6.4c0.904 0 1.635 0.73 1.635 1.6s-0.73 1.6-1.635 1.6c-0.904 0-1.635-0.73-1.635-1.6s0.765-1.6 1.635-1.6zM26.748 33.6c-0.904 0-1.635-0.73-1.635-1.6s0.73-1.6 1.635-1.6c0.904 0 1.635 0.73 1.635 1.6s-0.765 1.6-1.635 1.6z"></path>
</svg>
