<!-- Generated by IcoMoon.io -->
<svg version="1.1" xmlns="http://www.w3.org/2000/svg" width="40" height="40" viewBox="0 0 40 40">
<title>di-network-4</title>
<path fill="#fff" d="M17.461 7.896c0-2.052-1.635-3.722-3.687-3.722-2.017 0-3.861 1.67-3.861 3.722 0 1.565 1.043 2.887 2.087 3.443v17.322c-1.043 0.557-2.087 1.878-2.087 3.443 0 2.052 1.774 3.722 3.791 3.722 2.052 0 3.687-1.67 3.687-3.722 0-1.565-0.904-2.887-2.296-3.443v-17.322c1.426-0.557 2.365-1.878 2.365-3.443zM13.843 6.296c0.87 0 1.565 0.73 1.565 1.6s-0.696 1.6-1.565 1.6c-0.87 0-1.565-0.73-1.565-1.6s0.661-1.6 1.565-1.6zM13.843 33.704c-0.87 0-1.565-0.73-1.565-1.6s0.696-1.6 1.565-1.6c0.87 0 1.565 0.73 1.565 1.6s-0.696 1.6-1.565 1.6zM28 28.661v-17.322c1.043-0.557 2.087-1.878 2.087-3.443 0-2.052-1.774-3.722-3.826-3.722s-3.687 1.67-3.687 3.722c0 1.565 0.904 2.887 2.296 3.443v17.322c-1.391 0.557-2.33 1.878-2.33 3.443 0 2.052 1.635 3.722 3.687 3.722s3.861-1.67 3.861-3.722c0-1.565-1.043-2.887-2.087-3.443zM26.157 6.296c0.87 0 1.565 0.73 1.565 1.6s-0.696 1.6-1.565 1.6c-0.87 0-1.565-0.73-1.565-1.6s0.696-1.6 1.565-1.6zM26.157 33.704c-0.87 0-1.565-0.73-1.565-1.6s0.696-1.6 1.565-1.6c0.87 0 1.565 0.73 1.565 1.6s-0.661 1.6-1.565 1.6z"></path>
</svg>
