<!-- Generated by IcoMoon.io -->
<svg version="1.1" xmlns="http://www.w3.org/2000/svg" width="40" height="40" viewBox="0 0 40 40">
<title>di-pulse</title>
<path fill="#fff" d="M36 23.826c0 0.765-0.626 1.391-1.391 1.391h-6.539c-0.591 0-1.113-0.313-1.322-0.904l-1.043-2.922-3.409 11.513c-0.174 0.591-0.73 1.009-1.322 1.009 0 0-0.035 0-0.035 0-0.626-0.035-1.183-0.452-1.322-1.078l-4.487-19.443-2.713 10.817c-0.139 0.626-0.696 1.009-1.357 1.009h-5.67c-0.765 0-1.391-0.626-1.391-1.391s0.626-1.391 1.391-1.391h4.591l3.861-15.339c0.139-0.626 0.73-1.009 1.357-1.009s1.183 0.452 1.357 1.078l4.591 19.896 3.13-10.574c0.174-0.591 0.696-1.009 1.287-1.009 0.591-0.035 1.148 0.348 1.357 0.904l2.122 6.052h5.565c0.765 0 1.391 0.626 1.391 1.391z"></path>
</svg>
