<!-- Generated by IcoMoon.io -->
<svg version="1.1" xmlns="http://www.w3.org/2000/svg" width="40" height="40" viewBox="0 0 40 40">
<title>di-pin</title>
<path fill="#fff" d="M35.583 13.183l-8.765-8.765c-0.557-0.557-1.426-0.557-1.983 0-0.104 0.104-2.643 2.713-1.67 6.122l-3.965 3.965c-2.191-0.661-7.791-1.809-11.93 2.33-0.557 0.557-0.557 1.426 0 1.983l5.983 5.983-8.835 8.835c-0.557 0.557-0.557 1.426 0 1.983 0.278 0.243 0.626 0.383 0.974 0.383s0.696-0.139 0.974-0.417l8.835-8.835 5.983 5.983c0.278 0.278 0.626 0.417 0.974 0.417s0.696-0.139 0.974-0.417c4.139-4.139 2.991-9.774 2.33-11.93l3.965-3.965c3.409 0.974 5.983-1.565 6.122-1.67 0.591-0.557 0.591-1.426 0.035-1.983zM29.704 13.948c-0.522-0.243-1.148-0.139-1.565 0.278l-5.217 5.217c-0.383 0.383-0.522 1.009-0.313 1.496 0 0 0.626 1.565 0.73 3.583s-0.313 3.722-1.252 5.148l-5.913-5.843c0 0 0 0 0 0s0 0 0 0l-5.913-5.913c3.722-2.504 8.522-0.626 8.73-0.522 0.522 0.209 1.113 0.104 1.53-0.313l5.217-5.217c0.417-0.417 0.522-1.043 0.278-1.565-0.487-1.043-0.313-1.983 0-2.713l6.4 6.4c-0.696 0.278-1.67 0.452-2.713-0.035zM21.461 21.496c0.035 0.104 0.487 1.113 0.452 2.191 0 0.661-0.557 1.183-1.217 1.183 0 0-0.035 0-0.035 0-0.661-0.035-1.217-0.591-1.183-1.252 0-0.452-0.174-0.974-0.243-1.148-0.278-0.626 0-1.322 0.626-1.6 0.626-0.243 1.357 0 1.6 0.626z"></path>
</svg>
