<!-- Generated by IcoMoon.io -->
<svg version="1.1" xmlns="http://www.w3.org/2000/svg" width="40" height="40" viewBox="0 0 40 40">
<title>di-preview</title>
<path fill="#fff" d="M35.757 19.235c-0.243-0.348-5.878-8.626-15.757-8.626s-15.513 8.278-15.757 8.626c-0.313 0.452-0.313 1.078 0 1.565 0.243 0.313 5.878 8.591 15.757 8.591s15.513-8.278 15.757-8.626c0.313-0.452 0.313-1.078 0-1.53zM20 26.609c-6.713 0-11.304-4.73-12.87-6.609 1.565-1.913 6.122-6.609 12.87-6.609 6.713 0 11.304 4.73 12.87 6.609-1.6 1.913-6.157 6.609-12.87 6.609zM20.8 14.296c-1.53-0.209-3.026 0.174-4.278 1.113 0 0 0 0 0 0-2.539 1.913-3.061 5.53-1.148 8.070 0.939 1.252 2.261 2.017 3.791 2.261 0.278 0.035 0.557 0.070 0.8 0.070 1.252 0 2.435-0.417 3.443-1.148 2.539-1.913 3.061-5.53 1.148-8.070-0.87-1.287-2.226-2.087-3.757-2.296zM22.191 22.957c-0.765 0.591-1.739 0.835-2.713 0.696s-1.843-0.661-2.435-1.426c-1.183-1.635-0.87-3.965 0.765-5.183 0.765-0.591 1.739-0.835 2.713-0.696s1.843 0.661 2.435 1.426c1.183 1.635 0.87 3.965-0.765 5.183zM22.052 17.913c0.278 0.243 0.417 0.626 0.417 0.974s-0.139 0.73-0.417 0.974c-0.243 0.243-0.626 0.417-0.974 0.417-0.383 0-0.73-0.139-0.974-0.417-0.278-0.278-0.417-0.626-0.417-0.974 0-0.383 0.139-0.73 0.417-0.974 0.243-0.278 0.626-0.417 0.974-0.417 0.383 0.035 0.73 0.174 0.974 0.417z"></path>
</svg>
