<!-- Generated by IcoMoon.io -->
<svg version="1.1" xmlns="http://www.w3.org/2000/svg" width="40" height="40" viewBox="0 0 40 40">
<title>di-question</title>
<path fill="#fff" d="M25.183 12.87c1.113 1.252 1.635 2.957 1.391 4.765-0.417 3.339-2.852 4.522-5.009 4.522-0.104 0-0.174 0-0.174 0v0.835c0 0.765-0.626 1.391-1.391 1.391s-1.391-0.626-1.391-1.391v-1.113c0-1.148 0.487-2.504 2.957-2.504 1.357 0 2.052-0.696 2.226-2.087 0.070-0.452 0.104-1.67-0.73-2.574-0.661-0.73-1.739-1.113-3.2-1.113-3.13 0-3.235 2.052-3.235 2.261 0 0.765-0.626 1.391-1.391 1.391s-1.391-0.626-1.391-1.391c0-1.391 1.078-5.043 6.017-5.043 2.887 0 4.487 1.113 5.322 2.052zM19.896 25.565c-0.452 0-0.904 0.174-1.217 0.522-0.313 0.313-0.522 0.765-0.522 1.217s0.174 0.904 0.522 1.217c0.313 0.313 0.765 0.522 1.217 0.522s0.904-0.174 1.217-0.522c0.313-0.313 0.522-0.765 0.522-1.217s-0.174-0.904-0.522-1.217c-0.313-0.313-0.73-0.522-1.217-0.522zM36 20c0 8.835-7.165 16-16 16s-16-7.165-16-16 7.165-16 16-16 16 7.165 16 16zM33.217 20c0-7.304-5.913-13.217-13.217-13.217s-13.217 5.913-13.217 13.217 5.913 13.217 13.217 13.217 13.217-5.913 13.217-13.217z"></path>
</svg>
