<!-- Generated by IcoMoon.io -->
<svg version="1.1" xmlns="http://www.w3.org/2000/svg" width="40" height="40" viewBox="0 0 40 40">
<title>di-reply-all</title>
<path fill="#fff" d="M32.070 19.2c-2.539-2.539-6.157-3.93-10.33-4.174v-3.722c0-0.557-0.417-1.078-0.939-1.287s-1.148-0.104-1.565 0.313l-8.591 8.696c-0.522 0.557-0.557 1.426 0 1.948l8.557 8.696c0.383 0.417 1.078 0.522 1.6 0.313s0.939-0.73 0.939-1.287v-3.757c2.783-0.070 9.322 0.209 11.687 4.452 0.243 0.452 0.696 0.696 1.183 0.696 0.104 0 0.209 0 0.348-0.035 0.626-0.174 1.078-0.696 1.078-1.357-0.035-0.209 0-5.53-3.965-9.496zM20.104 22.226c-0.696 0.070-1.148 0.661-1.148 1.391v1.67l-5.217-5.287 5.217-5.287v1.67c0 0.765 0.557 1.391 1.322 1.391 7.478 0 10.643 3.583 12 6.643-4.904-2.922-11.791-2.226-12.174-2.191zM14.957 27.722c0.522 0.557 0.522 1.426 0 1.983-0.278 0.278-0.626 0.417-0.974 0.417s-0.73-0.139-0.974-0.417l-8.557-8.696c-0.522-0.557-0.522-1.426 0-1.948l8.557-8.696c0.557-0.557 1.426-0.557 1.948 0 0.557 0.557 0.557 1.426 0 1.983l-7.617 7.652 7.617 7.722z"></path>
</svg>
