<!-- Generated by IcoMoon.io -->
<svg version="1.1" xmlns="http://www.w3.org/2000/svg" width="40" height="40" viewBox="0 0 40 40">
<title>di-tags</title>
<path fill="#fff" d="M30.157 21.948c0-0.383-0.139-0.73-0.417-0.974l-12.974-12.8c-0.243-0.243-0.557-0.383-0.904-0.383l-10.365-0.661c-0.417-0.035-0.8 0.139-1.078 0.417s-0.452 0.661-0.417 1.078l0.661 10.191c0.035 0.348 0.174 0.661 0.417 0.904l13.009 12.765c0.278 0.278 0.626 0.417 0.974 0.417s0.696-0.139 0.974-0.417l9.704-9.565c0.278-0.243 0.417-0.591 0.417-0.974zM19.061 29.53l-11.617-11.443-0.557-8.070 8.278 0.522 11.617 11.409-7.722 7.583zM13.043 13.113c0.383 0.383 0.626 0.939 0.626 1.461 0 0.557-0.209 1.078-0.626 1.461-0.383 0.383-0.939 0.626-1.496 0.626s-1.078-0.209-1.496-0.626c-0.383-0.383-0.626-0.939-0.626-1.461 0-0.557 0.209-1.078 0.626-1.461 0.383-0.383 0.939-0.626 1.496-0.626s1.113 0.243 1.496 0.626zM36 21.948c0 0.313-0.139 0.626-0.348 0.87l-9.704 9.53c-0.243 0.243-0.557 0.348-0.87 0.348s-0.626-0.104-0.87-0.348c-0.487-0.487-0.487-1.252 0-1.704l8.835-8.661-12.139-11.93c-0.487-0.487-0.487-1.252 0-1.704 0.487-0.487 1.252-0.487 1.739 0l13.009 12.73c0.209 0.243 0.348 0.557 0.348 0.87z"></path>
</svg>
