<!-- Generated by IcoMoon.io -->
<svg version="1.1" xmlns="http://www.w3.org/2000/svg" width="40" height="40" viewBox="0 0 40 40">
<title>di-to-do</title>
<path fill="#fff" d="M12.696 10.191v-4.452c0-0.974 0.765-1.739 1.739-1.739s1.739 0.765 1.739 1.739v4.452c0 0.974-0.765 1.739-1.739 1.739s-1.739-0.765-1.739-1.739zM25.565 11.93c0.974 0 1.739-0.765 1.739-1.739v-4.452c0-0.974-0.765-1.739-1.739-1.739s-1.739 0.765-1.739 1.739v4.452c0 0.974 0.765 1.739 1.739 1.739zM13.809 17.913h12.348c0.765 0 1.391-0.626 1.391-1.391s-0.626-1.391-1.391-1.391h-12.348c-0.765 0-1.391 0.626-1.391 1.391s0.626 1.391 1.391 1.391zM33.217 6.435h-2.887c-0.765 0-1.391 0.626-1.391 1.391s0.626 1.391 1.391 1.391h1.496v23.652h-23.652v-23.652h1.496c0.765 0 1.391-0.626 1.391-1.391s-0.626-1.391-1.391-1.391h-2.887c-0.765 0-1.391 0.765-1.391 1.53v26.296c0 0.765 0.626 1.391 1.391 1.391h26.435c0.765 0 1.391-0.626 1.391-1.391v-26.296c0-0.765-0.626-1.53-1.391-1.53zM18.852 9.217h2.296c0.765 0 1.391-0.626 1.391-1.391s-0.626-1.391-1.391-1.391h-2.296c-0.765 0-1.391 0.626-1.391 1.391s0.626 1.391 1.391 1.391zM13.809 24.174h12.348c0.765 0 1.391-0.626 1.391-1.391s-0.626-1.391-1.391-1.391h-12.348c-0.765 0-1.391 0.626-1.391 1.391s0.626 1.391 1.391 1.391z"></path>
</svg>
