<!-- Generated by IcoMoon.io -->
<svg version="1.1" xmlns="http://www.w3.org/2000/svg" width="40" height="40" viewBox="0 0 40 40">
<title>di-user-group</title>
<path fill="#fff" d="M16.313 22.887c4.070 0 7.374-3.304 7.374-7.339 0-4.070-3.304-7.339-7.374-7.339s-7.374 3.304-7.374 7.339c0.035 4.035 3.339 7.339 7.374 7.339zM16.313 10.957c2.539 0 4.591 2.052 4.591 4.557s-2.052 4.557-4.591 4.557-4.591-2.052-4.591-4.557c0.035-2.504 2.087-4.557 4.591-4.557zM19.652 23.548c-0.383-0.104-0.8-0.070-1.148 0.139l-2.191 1.322-2.191-1.322c-0.348-0.209-0.765-0.243-1.148-0.139-2.122 0.696-8.974 3.165-8.974 6.887 0 0.765 0.626 1.391 1.391 1.391h21.843c0.765 0 1.391-0.626 1.391-1.391 0-3.722-6.852-6.191-8.974-6.887zM7.896 29.043c1.183-0.904 3.165-1.878 5.322-2.643l2.365 1.426c0.452 0.278 1.009 0.278 1.426 0l2.365-1.426c2.157 0.73 4.139 1.739 5.322 2.643h-16.8zM35.652 28c0 0.591-0.452 1.043-1.043 1.043h-4.661c-0.591 0-1.043-0.452-1.043-1.043s0.452-1.043 1.043-1.043h3.096c-0.522-0.696-1.357-1.252-2.4-1.809-0.522-0.278-0.696-0.904-0.417-1.391 0.278-0.522 0.904-0.696 1.426-0.417 1.496 0.8 4 2.504 4 4.661zM29.809 18.817c0-1.53-1.252-2.748-2.748-2.748-0.383 0-0.73 0.070-1.078 0.209-0.522 0.209-1.148-0.035-1.357-0.557s0.035-1.148 0.557-1.357c0.591-0.243 1.217-0.383 1.878-0.383 2.678 0 4.835 2.157 4.835 4.835s-2.191 4.835-4.835 4.835c-1.391 0-2.713-0.591-3.617-1.635-0.383-0.417-0.348-1.078 0.104-1.461 0.417-0.383 1.078-0.348 1.461 0.104 0.522 0.591 1.287 0.939 2.087 0.939 1.461-0.035 2.713-1.287 2.713-2.783z"></path>
</svg>
