<!-- Generated by IcoMoon.io -->
<svg version="1.1" xmlns="http://www.w3.org/2000/svg" width="24" height="24" viewBox="0 0 24 24">
<title>dinner_dining</title>
<path fill="#fff" d="M5.588 15.6v-6.788h-0.787v-0.825h0.787v-0.788h-0.787v-0.787h0.787v-0.825h-0.787v-0.787h4.8q0.6 0.037 1.069 0.506t0.544 1.106h7.988v0.787h-7.988q-0.075 0.638-0.544 1.144t-1.069 0.469h-1.613v5.625q0.075 0 0.206-0.019t0.206-0.019q0.675 0 1.537 0.337 0.488-1.125 1.688-1.931t2.4-0.806q1.838 0 3.113 1.275t1.275 3.113q0 0.075-0.019 0.225t-0.019 0.188h-13.463q0.15-0.6 0.675-1.2zM7.2 14.587v-5.775h-0.787v6.15q0.563-0.3 0.787-0.375zM9.6 7.988v-0.788h-1.613v0.788h1.613zM9.6 5.588h-1.613v0.825h1.613v-0.825zM6.413 5.588v0.825h0.788v-0.825h-0.788zM6.413 7.2v0.788h0.788v-0.788h-0.788zM4.012 17.587h15.975l-1.575 1.613h-12.825z"></path>
</svg>
