<!-- Generated by IcoMoon.io -->
<svg version="1.1" xmlns="http://www.w3.org/2000/svg" width="24" height="24" viewBox="0 0 24 24">
<title>directions_run</title>
<path fill="#fff" d="M10.313 17.888l-5.588-1.088 0.3-1.612 3.937 0.787 1.275-6.488-1.463 0.563v2.738h-1.575v-3.75l4.162-1.762q0.113 0 0.319-0.038t0.319-0.037q0.788 0 1.35 0.787l0.787 1.275q1.088 1.912 3.45 1.912v1.613q-2.663 0-4.388-1.988l-0.487 2.4 1.688 1.575v6h-1.612v-4.8l-1.688-1.575zM13.2 6.788q-0.638 0-1.125-0.487t-0.488-1.125 0.488-1.106 1.125-0.469 1.106 0.469 0.469 1.106-0.469 1.125-1.106 0.487z"></path>
</svg>
