<!-- Generated by IcoMoon.io -->
<svg version="1.1" xmlns="http://www.w3.org/2000/svg" width="24" height="24" viewBox="0 0 24 24">
<title>drag_indicator</title>
<path fill="#fff" d="M14.4 15.188q0.638 0 1.125 0.487t0.488 1.125-0.488 1.125-1.125 0.488-1.125-0.488-0.487-1.125 0.487-1.125 1.125-0.487zM14.4 10.387q0.638 0 1.125 0.488t0.488 1.125-0.488 1.125-1.125 0.487-1.125-0.487-0.487-1.125 0.487-1.125 1.125-0.488zM14.4 8.813q-0.637 0-1.125-0.488t-0.487-1.125 0.487-1.125 1.125-0.487 1.125 0.487 0.488 1.125-0.488 1.125-1.125 0.488zM9.6 5.588q0.637 0 1.125 0.487t0.487 1.125-0.487 1.125-1.125 0.488-1.125-0.488-0.488-1.125 0.488-1.125 1.125-0.487zM9.6 10.387q0.637 0 1.125 0.488t0.487 1.125-0.487 1.125-1.125 0.487-1.125-0.487-0.488-1.125 0.488-1.125 1.125-0.488zM11.212 16.8q0 0.638-0.487 1.125t-1.125 0.488-1.125-0.488-0.488-1.125 0.488-1.125 1.125-0.487 1.125 0.487 0.487 1.125z"></path>
</svg>
