<!-- Generated by IcoMoon.io -->
<svg version="1.1" xmlns="http://www.w3.org/2000/svg" width="53" height="40" viewBox="0 0 53 40">
<title>el-browser</title>
<path fill="#fff" d="M45.5 14c-0.276 0-0.5 0.224-0.5 0.5v20c0 0.276-0.224 0.5-0.5 0.5h-39c-0.276 0-0.5-0.224-0.5-0.5v-20c0-0.276-0.224-0.5-0.5-0.5s-0.5 0.224-0.5 0.5v20c0 0.827 0.673 1.5 1.5 1.5h39c0.827 0 1.5-0.673 1.5-1.5v-20c0-0.276-0.224-0.5-0.5-0.5z"></path>
<path fill="#fff" d="M44.5 4h-39c-0.827 0-1.5 0.673-1.5 1.5v6c0 0.276 0.224 0.5 0.5 0.5h41c0.276 0 0.5-0.224 0.5-0.5v-6c0-0.827-0.673-1.5-1.5-1.5zM45 11h-40v-5.5c0-0.276 0.224-0.5 0.5-0.5h39c0.276 0 0.5 0.224 0.5 0.5v5.5z"></path>
<path fill="#fff" d="M21.5 32c0.276 0 0.5-0.224 0.5-0.5v-16c0-0.276-0.224-0.5-0.5-0.5h-13c-0.276 0-0.5 0.224-0.5 0.5v16c0 0.276 0.224 0.5 0.5 0.5h13zM9 16h12v15h-12v-15z"></path>
<path fill="#fff" d="M26.5 19h15c0.276 0 0.5-0.224 0.5-0.5s-0.224-0.5-0.5-0.5h-15c-0.276 0-0.5 0.224-0.5 0.5s0.224 0.5 0.5 0.5z"></path>
<path fill="#fff" d="M26.5 24h15c0.276 0 0.5-0.224 0.5-0.5s-0.224-0.5-0.5-0.5h-15c-0.276 0-0.5 0.224-0.5 0.5s0.224 0.5 0.5 0.5z"></path>
<path fill="#fff" d="M26.5 29h15c0.276 0 0.5-0.224 0.5-0.5s-0.224-0.5-0.5-0.5h-15c-0.276 0-0.5 0.224-0.5 0.5s0.224 0.5 0.5 0.5z"></path>
<path fill="#fff" d="M9 8c0 0.552-0.448 1-1 1s-1-0.448-1-1c0-0.552 0.448-1 1-1s1 0.448 1 1z"></path>
<path fill="#fff" d="M13 8c0 0.552-0.448 1-1 1s-1-0.448-1-1c0-0.552 0.448-1 1-1s1 0.448 1 1z"></path>
<path fill="#fff" d="M17 8c0 0.552-0.448 1-1 1s-1-0.448-1-1c0-0.552 0.448-1 1-1s1 0.448 1 1z"></path>
</svg>
