<!-- Generated by IcoMoon.io -->
<svg version="1.1" xmlns="http://www.w3.org/2000/svg" width="40" height="40" viewBox="0 0 40 40">
<title>el-hazardous</title>
<path fill="#fff" d="M20 36.034c8.842 0 16.034-7.192 16.034-16.034s-7.192-16.034-16.034-16.034-16.034 7.192-16.034 16.034 7.192 16.034 16.034 16.034zM20 5.034c8.252 0 14.966 6.714 14.966 14.966s-6.714 14.966-14.966 14.966-14.966-6.714-14.966-14.966 6.714-14.966 14.966-14.966z"></path>
<path fill="#fff" d="M13.987 30.414c0.084 0.049 0.176 0.071 0.268 0.071 0.181 0 0.356-0.091 0.457-0.257l5.288-8.699 5.289 8.699c0.101 0.166 0.276 0.257 0.457 0.257 0.092 0 0.184-0.022 0.268-0.071 3.883-2.247 6.021-5.768 6.021-9.914 0-0.295-0.239-0.534-0.534-0.5h-10.597l5.311-9.693c0.14-0.255 0.051-0.575-0.201-0.721-3.664-2.119-8.364-2.119-12.026 0-0.253 0.145-0.342 0.466-0.202 0.721l5.31 9.693h-10.596c-0.295-0.034-0.534 0.205-0.534 0.5 0 4.146 2.138 7.667 6.021 9.914zM30.952 21c-0.169 3.393-1.934 6.268-5.026 8.218l-4.976-8.218h10.002zM25.020 10.261l-5.020 9.13-5.019-9.13c3.106-1.608 6.931-1.608 10.039 0zM19.050 21l-4.975 8.218c-3.093-1.949-4.858-4.824-5.027-8.218h10.002z"></path>
</svg>
