<!-- Generated by IcoMoon.io -->
<svg version="1.1" xmlns="http://www.w3.org/2000/svg" width="24" height="24" viewBox="0 0 24 24">
<title>elderly</title>
<path fill="#fff" d="M13.2 6.788q0.675 0 1.144-0.469t0.469-1.106q0-0.675-0.469-1.144t-1.144-0.469-1.144 0.469-0.469 1.144q0 0.638 0.469 1.106t1.144 0.469zM18.413 12.413v8.4h-0.825v-8.4q0-0.188-0.112-0.3t-0.263-0.112q-0.188 0-0.3 0.112t-0.113 0.3v0.787h-0.787v-0.563q-0.9-0.225-1.613-0.75t-1.2-1.238q-0.188 0.488-0.3 1.031t-0.112 1.106q0 0.15 0.019 0.281t0.019 0.281l1.575 2.25v5.212h-1.612v-4.013l-1.425-2.025-0.15 2.813-2.4 3.225-1.275-0.975 2.063-2.775v-4.275q0-0.675 0.113-1.35t0.3-1.35l-1.2 0.675v2.85h-1.612v-3.787l4.312-2.438q0.375-0.188 0.788-0.188t0.788 0.225q0.412 0.225 0.637 0.675v0l0.638 1.35q0.375 0.75 1.144 1.256t1.706 0.506q0.487 0 0.844 0.338t0.356 0.863z"></path>
</svg>
