<!-- Generated by IcoMoon.io -->
<svg version="1.1" xmlns="http://www.w3.org/2000/svg" width="24" height="24" viewBox="0 0 24 24">
<title>electrical_services</title>
<path fill="#fff" d="M19.2 13.612q0-0.338-0.244-0.581t-0.544-0.244h-1.613v1.612h1.613q0.3 0 0.544-0.244t0.244-0.544zM18.413 16.013h-1.613v1.575h1.613q0.3 0 0.544-0.225t0.244-0.563-0.244-0.563-0.544-0.225zM12 13.612h-1.613v3.187h1.613q0 0.675 0.469 1.144t1.144 0.469h2.4v-6.413h-2.4q-0.675 0-1.144 0.469t-0.469 1.144zM6.413 12.788q0-0.638 0.469-1.106t1.106-0.469h1.2q0.788 0 1.425-0.394t1.012-1.013 0.375-1.406-0.375-1.406-1.012-1.012-1.425-0.394h-2.775q-0.337 0-0.581 0.244t-0.244 0.581q0 0.3 0.244 0.544t0.581 0.244h2.775q0.525 0 0.863 0.356t0.337 0.844-0.337 0.844-0.863 0.356h-1.2q-0.863 0-1.594 0.431t-1.163 1.163-0.431 1.594q0 0.9 0.431 1.631t1.163 1.162 1.594 0.431h1.613v-1.613h-1.613q-0.638 0-1.106-0.469t-0.469-1.144z"></path>
</svg>
