<!-- Generated by IcoMoon.io -->
<svg version="1.1" xmlns="http://www.w3.org/2000/svg" width="24" height="24" viewBox="0 0 24 24">
<title>emoji_emotions</title>
<path fill="#fff" d="M14.813 11.212q0.487 0 0.844-0.356t0.356-0.844-0.356-0.844-0.844-0.356-0.844 0.356-0.356 0.844 0.356 0.844 0.844 0.356zM12 16.8q1.35 0 2.438-0.881t1.575-2.306h-8.025q0.487 1.425 1.575 2.306t2.437 0.881zM9.188 8.813q-0.488 0-0.844 0.356t-0.356 0.844 0.356 0.844 0.844 0.356 0.844-0.356 0.356-0.844-0.356-0.844-0.844-0.356zM12 4.012q3.3 0 5.644 2.344t2.344 5.644-2.344 5.644-5.644 2.344-5.644-2.344-2.344-5.644 2.344-5.644 5.644-2.344z"></path>
</svg>
