<!-- Generated by IcoMoon.io -->
<svg version="1.1" xmlns="http://www.w3.org/2000/svg" width="24" height="24" viewBox="0 0 24 24">
<title>ev_station</title>
<path fill="#fff" d="M8.813 16.8l3.188-5.587h-1.613v-4.012l-3.188 6h1.613v3.6zM16.8 10.387q0.338 0 0.563-0.225t0.225-0.563-0.225-0.563-0.563-0.225-0.563 0.225-0.225 0.563 0.225 0.563 0.563 0.225zM18.225 8.175q0.563 0.563 0.563 1.425v7.613q0 0.825-0.581 1.406t-1.406 0.581-1.406-0.581-0.581-1.406v-4.013h-1.2v6h-8.025v-12.788q0-0.638 0.488-1.125t1.125-0.487h4.8q0.637 0 1.125 0.487t0.487 1.125v5.587h0.788q0.638 0 1.125 0.487t0.488 1.125v3.6q0 0.337 0.225 0.563t0.563 0.225 0.563-0.225 0.225-0.563v-5.775q-0.337 0.15-0.788 0.15-0.825 0-1.406-0.581t-0.581-1.406q0-1.35 1.275-1.875l-1.688-1.688 0.862-0.825z"></path>
</svg>
