<!-- Generated by IcoMoon.io -->
<svg version="1.1" xmlns="http://www.w3.org/2000/svg" width="24" height="24" viewBox="0 0 24 24">
<title>exposure_neg_2</title>
<path fill="#fff" d="M4.012 11.212h6.375v1.575h-6.375v-1.575zM14.438 15.45h4.763v1.35h-6.9v-1.2l3.338-3.638q0.675-0.675 1.162-1.5 0.263-0.45 0.263-1.050 0-0.488-0.075-0.675-0.375-0.975-1.425-0.975-1.725 0-1.725 1.838h-1.725q0-1.35 0.9-2.25 0.938-0.938 2.55-0.938h0.075q2.213 0 2.963 1.65 0.188 0.413 0.188 1.163 0 0.525-0.15 0.938-0.263 0.712-0.413 0.938-0.638 1.012-1.5 1.875z"></path>
</svg>
