<!-- Generated by IcoMoon.io -->
<svg version="1.1" xmlns="http://www.w3.org/2000/svg" width="24" height="24" viewBox="0 0 24 24">
<title>file_present</title>
<path fill="#fff" d="M15.188 10.387v4.012q0 1.313-0.938 2.25t-2.25 0.938-2.25-0.938-0.938-2.25v-5.212q0-0.825 0.581-1.406t1.406-0.581h0.225q0.788 0.075 1.275 0.694t0.488 1.406v5.1h-1.575v-5.212q0-0.375-0.412-0.375t-0.413 0.375v5.212q0 0.638 0.488 1.125t1.125 0.488 1.125-0.488 0.487-1.125v-4.012h1.575zM7.2 18.413h9.6v-9.6h-3.187v-3.225h-6.413v12.825zM14.4 4.012l4.012 3.975v10.425q0 0.637-0.488 1.106t-1.125 0.469h-9.6q-0.638 0-1.125-0.469t-0.487-1.106v-12.825q0-0.637 0.487-1.106t1.125-0.469h7.2z"></path>
</svg>
