<!-- Generated by IcoMoon.io -->
<svg version="1.1" xmlns="http://www.w3.org/2000/svg" width="24" height="24" viewBox="0 0 24 24">
<title>filter_drama</title>
<path fill="#fff" d="M17.587 16.8q0.975 0 1.688-0.712t0.712-1.688-0.712-1.688-1.688-0.712h-1.2v-0.413q0-1.837-1.275-3.112t-3.113-1.275q-2.175 0-3.525 1.762 1.538 0.413 2.531 1.706t0.994 2.944h-1.612q0-1.313-0.938-2.269t-2.25-0.956-2.25 0.956-0.938 2.269 0.938 2.25 2.25 0.937h10.388zM17.888 10.425q1.537 0.113 2.625 1.256t1.087 2.719q0 1.65-1.181 2.831t-2.831 1.181h-10.387q-1.988 0-3.394-1.406t-1.406-3.394q0-1.762 1.256-3.169t3.019-1.594q0.712-1.35 2.269-2.306t3.056-0.956q2.025 0 3.769 1.425t2.119 3.413z"></path>
</svg>
