<!-- Generated by IcoMoon.io -->
<svg version="1.1" xmlns="http://www.w3.org/2000/svg" width="24" height="24" viewBox="0 0 24 24">
<title>fingerprint</title>
<path fill="#fff" d="M14.325 19.987h-0.112q-1.725-0.45-2.962-1.688-0.713-0.712-1.219-1.931t-0.506-2.231q0-0.975 0.712-1.669t1.725-0.694 1.744 0.694 0.731 1.669q0 0.637 0.469 1.087t1.181 0.45 1.2-0.45 0.488-1.087q0-2.25-1.706-3.863t-4.106-1.613q-1.725 0-3.15 0.881t-2.138 2.344q-0.45 0.938-0.45 2.25 0 1.5 0.525 2.887 0.112 0.375-0.263 0.488t-0.487-0.225q-0.6-1.538-0.6-3.15 0-1.463 0.563-2.588 0.787-1.688 2.419-2.7t3.581-1.013q2.737 0 4.669 1.856t1.931 4.444q0 0.975-0.731 1.65t-1.744 0.675-1.725-0.675-0.712-1.65q0-0.638-0.487-1.106t-1.2-0.469-1.181 0.469-0.469 1.106q0 2.1 1.5 3.6 1.050 1.050 2.625 1.463 0.338 0.037 0.263 0.487-0.075 0.3-0.375 0.3zM12.337 14.138q0 1.388 1.031 2.4t2.569 1.012q0.075 0 0.337-0.037t0.431-0.038 0.338 0.056 0.206 0.244q0.075 0.413-0.337 0.488-0.45 0.075-0.975 0.075-1.5 0-2.475-0.712-1.912-1.313-1.912-3.487 0-0.412 0.412-0.412 0.375 0 0.375 0.412zM10.2 19.837q-0.15 0-0.262-0.112-1.012-1.013-1.613-2.138-0.862-1.5-0.862-3.45 0-1.763 1.331-3.037t3.206-1.275 3.206 1.275 1.331 3.037q0 0.375-0.413 0.375t-0.412-0.375q0-1.463-1.088-2.494t-2.625-1.031-2.625 1.031-1.087 2.494q0 1.8 0.712 3.075 0.488 0.863 1.5 1.95 0.3 0.263 0 0.563-0.112 0.113-0.3 0.113zM5.213 10.163q-0.412 0-0.412-0.375 0-0.075 0.075-0.225 1.2-1.725 3-2.625 1.875-0.975 4.125-0.975t4.125 0.975q1.837 0.9 3 2.587 0.075 0.15 0.075 0.225 0 0.262-0.3 0.375t-0.45-0.15q-1.125-1.538-2.7-2.325-1.725-0.862-3.75-0.881t-3.75 0.881q-1.688 0.863-2.738 2.363-0.112 0.15-0.3 0.15zM16.65 5.963q-0.15 0-0.188-0.037-2.212-1.125-4.462-1.125-2.438 0-4.462 1.125-0.188 0.112-0.375 0t-0.188-0.338q0-0.263 0.188-0.375 2.175-1.2 4.837-1.2 2.438 0 4.837 1.2 0.337 0.188 0.15 0.525-0.15 0.225-0.337 0.225z"></path>
</svg>
