<!-- Generated by IcoMoon.io -->
<svg version="1.1" xmlns="http://www.w3.org/2000/svg" width="24" height="24" viewBox="0 0 24 24">
<title>flip_to_back</title>
<path fill="#fff" d="M14.4 16.013v-1.613h1.613v1.613h-1.613zM14.4 6.413v-1.612h1.613v1.612h-1.613zM6.413 7.988v9.6h9.6v1.613h-9.6q-0.675 0-1.144-0.469t-0.469-1.144v-9.6h1.612zM17.587 16.013v-1.613h1.613q0 0.638-0.488 1.125t-1.125 0.488zM17.587 9.6v-1.613h1.613v1.613h-1.613zM17.587 12.788v-1.575h1.613v1.575h-1.613zM9.6 16.013q-0.675 0-1.144-0.469t-0.469-1.144h1.613v1.613zM12.788 4.8v1.612h-1.575v-1.612h1.575zM17.587 4.8q0.638 0 1.125 0.487t0.488 1.125h-1.613v-1.612zM12.788 14.4v1.613h-1.575v-1.613h1.575zM9.6 4.8v1.612h-1.613q0-0.675 0.469-1.144t1.144-0.469zM9.6 11.212v1.575h-1.613v-1.575h1.613zM9.6 7.988v1.613h-1.613v-1.613h1.613z"></path>
</svg>
