<!-- Generated by IcoMoon.io -->
<svg version="1.1" xmlns="http://www.w3.org/2000/svg" width="24" height="24" viewBox="0 0 24 24">
<title>folder_shared</title>
<path fill="#fff" d="M17.587 16.013v-0.825q0-0.712-1.106-1.144t-2.081-0.431-2.081 0.431-1.106 1.144v0.825h6.375zM14.4 9.6q-0.637 0-1.125 0.487t-0.487 1.125 0.487 1.106 1.125 0.469 1.125-0.469 0.488-1.106-0.488-1.125-1.125-0.487zM18.413 7.2q0.637 0 1.106 0.488t0.469 1.125v7.987q0 0.638-0.469 1.125t-1.106 0.488h-12.825q-0.638 0-1.106-0.488t-0.469-1.125v-9.6q0-0.638 0.469-1.125t1.106-0.487h4.8l1.613 1.612h6.413z"></path>
</svg>
