<!-- Generated by IcoMoon.io -->
<svg version="1.1" xmlns="http://www.w3.org/2000/svg" width="24" height="24" viewBox="0 0 24 24">
<title>gps_not_fixed</title>
<path fill="#fff" d="M12 17.587q2.325 0 3.956-1.631t1.631-3.956-1.631-3.956-3.956-1.631-3.956 1.631-1.631 3.956 1.631 3.956 3.956 1.631zM19.163 11.212h1.65v1.575h-1.65q-0.263 2.362-2.138 4.238t-4.238 2.137v1.65h-1.575v-1.65q-2.363-0.262-4.238-2.137t-2.137-4.237h-1.65v-1.575h1.65q0.262-2.363 2.137-4.238t4.238-2.137v-1.65h1.575v1.65q2.362 0.262 4.238 2.137t2.137 4.238z"></path>
</svg>
