<!-- Generated by IcoMoon.io -->
<svg version="1.1" xmlns="http://www.w3.org/2000/svg" width="24" height="24" viewBox="0 0 24 24">
<title>group_add</title>
<path fill="#fff" d="M12.788 12.788q1.5 0 3.15 0.656t1.65 1.744v1.612h-9.6v-1.612q0-1.087 1.65-1.744t3.15-0.656zM18.112 12.938q1.388 0.225 2.438 0.806t1.050 1.444v1.612h-2.4v-1.612q0-1.275-1.088-2.25zM12.788 11.212q-0.975 0-1.688-0.712t-0.713-1.688 0.713-1.688 1.688-0.712 1.688 0.712 0.712 1.688-0.712 1.688-1.688 0.712zM16.8 11.212q-0.375 0-0.712-0.112 0.712-1.013 0.712-2.287t-0.712-2.288q0.337-0.112 0.712-0.112 0.975 0 1.688 0.712t0.713 1.688-0.713 1.688-1.688 0.713zM8.813 10.387v1.613h-2.4v2.4h-1.612v-2.4h-2.4v-1.613h2.4v-2.4h1.612v2.4h2.4z"></path>
</svg>
