<!-- Generated by IcoMoon.io -->
<svg version="1.1" xmlns="http://www.w3.org/2000/svg" width="24" height="24" viewBox="0 0 24 24">
<title>help_center</title>
<path fill="#fff" d="M17.587 4.8h-11.175q-0.675 0-1.144 0.469t-0.469 1.144v11.175q0 0.675 0.469 1.144t1.144 0.469h11.175q0.675 0 1.144-0.469t0.469-1.144v-11.175q0-0.675-0.469-1.144t-1.144-0.469zM12 16.8q-0.413 0-0.712-0.3t-0.3-0.712 0.3-0.713 0.712-0.3q0.45 0 0.731 0.3t0.281 0.713-0.281 0.712-0.731 0.3zM14.4 10.875q-0.45 0.675-0.844 0.994t-0.619 0.731q-0.112 0.188-0.15 0.394t-0.038 0.769h-1.462v-0.75t0.262-0.863q0.262-0.525 0.75-0.881t0.787-0.844q0.263-0.3 0.225-0.75t-0.356-0.787-0.956-0.338-0.975 0.394-0.45 0.806l-1.313-0.563q0.262-0.787 0.956-1.387t1.781-0.6q0.863 0 1.481 0.356t0.919 0.844q0.263 0.45 0.338 1.162t-0.338 1.313z"></path>
</svg>
