<!-- Generated by IcoMoon.io -->
<svg version="1.1" xmlns="http://www.w3.org/2000/svg" width="24" height="24" viewBox="0 0 24 24">
<title>help_outline</title>
<path fill="#fff" d="M12 7.2q1.313 0 2.25 0.938t0.938 2.25q0 1.012-1.2 2.081t-1.2 1.931h-1.575q0-0.862 0.375-1.481t0.825-0.9 0.825-0.694 0.375-0.938q0-0.638-0.487-1.106t-1.125-0.469-1.125 0.469-0.488 1.106h-1.575q0-1.313 0.938-2.25t2.25-0.938zM12 18.413q2.625 0 4.519-1.894t1.894-4.519-1.894-4.519-4.519-1.894-4.519 1.894-1.894 4.519 1.894 4.519 4.519 1.894zM12 4.012q3.3 0 5.644 2.344t2.344 5.644-2.344 5.644-5.644 2.344-5.644-2.344-2.344-5.644 2.344-5.644 5.644-2.344zM11.212 16.8v-1.612h1.575v1.612h-1.575z"></path>
</svg>
