<!-- Generated by IcoMoon.io -->
<svg version="1.1" xmlns="http://www.w3.org/2000/svg" width="24" height="24" viewBox="0 0 24 24">
<title>history</title>
<path fill="#fff" d="M12 8.813h1.2v3.375l2.813 1.688-0.6 0.975-3.413-2.063v-3.975zM12.788 4.8q2.962 0 5.081 2.1t2.119 5.1-2.119 5.1-5.081 2.1q-1.238 0-2.719-0.619t-2.344-1.481l1.125-1.163q1.65 1.65 3.938 1.65 2.325 0 3.975-1.631t1.65-3.956-1.65-3.956-3.975-1.631-3.956 1.631-1.631 3.956h2.4l-3.225 3.225-0.075-0.112-3.112-3.113h2.4q0-3 2.119-5.1t5.081-2.1z"></path>
</svg>
