<!-- Generated by IcoMoon.io -->
<svg version="1.1" xmlns="http://www.w3.org/2000/svg" width="24" height="24" viewBox="0 0 24 24">
<title>home_repair_service</title>
<path fill="#fff" d="M16.8 15.188h-1.612v-0.788h-6.375v0.788h-1.613v-0.788h-3.188v4.012h15.975v-4.013h-3.188v0.787zM18.413 8.813h-2.4v-1.613q0-0.675-0.469-1.144t-1.144-0.469h-4.8q-0.675 0-1.144 0.469t-0.469 1.144v1.613h-2.4q-0.637 0-1.106 0.469t-0.469 1.106v3.225h3.188v-1.613h1.613v1.613h6.375v-1.613h1.612v1.613h3.188v-3.225q0-0.638-0.469-1.106t-1.106-0.469zM14.4 8.813h-4.8v-1.613h4.8v1.613z"></path>
</svg>
