<!-- Generated by IcoMoon.io -->
<svg version="1.1" xmlns="http://www.w3.org/2000/svg" width="24" height="24" viewBox="0 0 24 24">
<title>http</title>
<path fill="#fff" d="M19.612 11.587v-0.787h-1.612v0.787h1.612zM19.612 9.6q0.488 0 0.844 0.356t0.356 0.844v0.787q0 0.488-0.356 0.844t-0.844 0.356h-1.612v1.612h-1.2v-4.8h2.813zM12.413 10.8v-1.2h3.6v1.2h-1.2v3.6h-1.2v-3.6h-1.2zM7.988 10.8v-1.2h3.6v1.2h-1.2v3.6h-1.2v-3.6h-1.2zM6 11.212v-1.612h1.2v4.8h-1.2v-1.987h-1.613v1.987h-1.2v-4.8h1.2v1.612h1.613z"></path>
</svg>
