<!-- Generated by IcoMoon.io -->
<svg version="1.1" xmlns="http://www.w3.org/2000/svg" width="24" height="24" viewBox="0 0 24 24">
<title>image_aspect_ratio</title>
<path fill="#fff" d="M18.413 16.8v-9.6h-12.825v9.6h12.825zM18.413 5.588q0.637 0 1.106 0.487t0.469 1.125v9.6q0 0.638-0.469 1.125t-1.106 0.488h-12.825q-0.638 0-1.106-0.488t-0.469-1.125v-9.6q0-0.638 0.469-1.125t1.106-0.487h12.825zM12 10.387v1.613h-1.613v-1.613h1.613zM8.813 10.387v1.613h-1.613v-1.613h1.613zM15.188 13.612v1.575h-1.575v-1.575h1.575zM15.188 10.387v1.613h-1.575v-1.613h1.575z"></path>
</svg>
