<!-- Generated by IcoMoon.io -->
<svg version="1.1" xmlns="http://www.w3.org/2000/svg" width="24" height="24" viewBox="0 0 24 24">
<title>import_contacts</title>
<path fill="#fff" d="M19.2 17.212v-9.225q-1.238-0.375-2.813-0.375-2.438 0-4.388 1.2v9.188q1.95-1.2 4.388-1.2 1.462 0 2.813 0.413zM16.388 6q2.85 0 4.425 1.2v11.662q0 0.15-0.131 0.281t-0.281 0.131q-0.112 0-0.188-0.038-1.538-0.825-3.825-0.825-2.438 0-4.388 1.2-1.613-1.2-4.387-1.2-2.025 0-3.825 0.863-0.037 0-0.094 0.019t-0.094 0.019q-0.15 0-0.281-0.112t-0.131-0.263v-11.737q1.612-1.2 4.425-1.2 2.775 0 4.387 1.2 1.612-1.2 4.388-1.2z"></path>
</svg>
