<!-- Generated by IcoMoon.io -->
<svg version="1.1" xmlns="http://www.w3.org/2000/svg" width="24" height="24" viewBox="0 0 24 24">
<title>integration_instructions</title>
<path fill="#fff" d="M17.587 4.8h-3.337q-0.263-0.713-0.862-1.163t-1.388-0.45-1.387 0.45-0.863 1.163h-3.337q-0.188 0-0.337 0.037-0.45 0.075-0.787 0.45-0.225 0.225-0.375 0.488-0.113 0.3-0.113 0.638v11.175q0 0.337 0.113 0.637 0.112 0.263 0.375 0.525 0.338 0.337 0.787 0.412 0.15 0.038 0.337 0.038h11.175q0.675 0 1.144-0.469t0.469-1.144v-11.175q0-0.675-0.469-1.144t-1.144-0.469zM11.212 13.725l-1.125 1.162-2.887-2.888 2.887-2.887 1.125 1.162-1.762 1.725zM12 5.813q-0.262 0-0.431-0.188t-0.169-0.412q0-0.263 0.169-0.431t0.431-0.169 0.431 0.169 0.169 0.431q0 0.225-0.169 0.412t-0.431 0.188zM13.913 14.888l-1.125-1.162 1.762-1.725-1.762-1.725 1.125-1.162 2.887 2.887z"></path>
</svg>
