<!-- Generated by IcoMoon.io -->
<svg version="1.1" xmlns="http://www.w3.org/2000/svg" width="40" height="40" viewBox="0 0 40 40">
<title>io-at-circle-sharp</title>
<path fill="#fff" d="M20.026 7.046c-7.178 0-13 5.819-13 13s5.82 13 13 13 13-5.82 13-13-5.823-13-13-13zM27.826 19.75c-0.178 2.039-1.049 3.106-1.75 3.641s-1.543 0.771-2.271 0.641c-0.705-0.131-1.299-0.53-1.682-1.086l-0.006-0.009c-0.689 0.691-1.641 1.119-2.694 1.119-0.014 0-0.027-0-0.041-0l0.002 0c-0.007 0-0.016 0-0.025 0-0.943 0-1.792-0.404-2.382-1.050l-0.002-0.002c-0.712-0.776-1.062-1.898-0.958-3.077 0.191-2.188 1.932-3.587 3.554-3.842 1.701-0.268 3.265 0.409 3.932 1.216l0.24 0.291-0.396 3.149c-0.074 0.896 0.206 1.468 0.768 1.569 0.149 0.026 0.507-0.008 0.899-0.308 0.42-0.322 0.946-1 1.069-2.404 0.145-1.659-0.272-3.074-1.205-4.093-0.969-1.056-2.444-1.615-4.265-1.615-3.375 0-6.363 2.777-6.661 6.188-0.143 1.637 0.354 3.167 1.399 4.308 1.023 1.115 2.46 1.732 4.041 1.732 1.188 0 1.913-0.128 3.093-0.549l0.826-0.293 0.587 1.648-0.824 0.294c-1.364 0.486-2.293 0.65-3.68 0.65-2.080 0-3.973-0.816-5.331-2.298-1.381-1.507-2.039-3.511-1.853-5.643 0.182-2.083 1.154-4.039 2.736-5.508s3.598-2.281 5.669-2.281c2.325 0 4.246 0.755 5.555 2.183 1.253 1.369 1.843 3.297 1.656 5.429z"></path>
<path fill="#fff" d="M19.844 17.813c-0.927 0.146-1.972 0.99-2.084 2.266-0.063 0.691 0.125 1.326 0.505 1.742 0.271 0.298 0.661 0.485 1.094 0.485 0.009 0 0.018-0 0.027-0l-0.001 0c1.231 0 2.113-0.924 2.3-2.412l0.109-0.868h0.006l0.103-0.819c-0.451-0.271-0.996-0.431-1.578-0.431-0.17 0-0.336 0.014-0.499 0.040l0.018-0.002z"></path>
</svg>
