<!-- Generated by IcoMoon.io -->
<svg version="1.1" xmlns="http://www.w3.org/2000/svg" width="40" height="40" viewBox="0 0 40 40">
<title>io-aperture</title>
<path fill="#fff" d="M19.659 12.073l-4.238-4.238c-2.479 0.96-4.529 2.571-5.999 4.625l-0.027 0.039h10.088c0.138-0 0.25-0.112 0.25-0.25 0-0.069-0.028-0.132-0.073-0.177v0z"></path>
<path fill="#fff" d="M14.482 14.5h-6.256c-0.774 1.612-1.227 3.505-1.227 5.504 0 0.836 0.079 1.654 0.23 2.446l-0.013-0.081 7.441-7.442c0.045-0.045 0.073-0.108 0.073-0.177 0-0.138-0.112-0.25-0.25-0.25h-0z"></path>
<path fill="#fff" d="M25.5 14.482v-6.26c-1.612-0.772-3.504-1.222-5.501-1.222-0.837 0-1.655 0.079-2.448 0.23l0.081-0.013 7.441 7.441c0.045 0.045 0.108 0.073 0.177 0.073 0.138 0 0.25-0.112 0.25-0.25v-0z"></path>
<path fill="#fff" d="M32.782 17.631l-7.441 7.442c-0.045 0.045-0.073 0.108-0.073 0.177 0 0.138 0.112 0.25 0.25 0.25h6.256c0.774-1.612 1.227-3.505 1.227-5.504 0-0.836-0.079-1.654-0.23-2.446l0.013 0.081z"></path>
<path fill="#fff" d="M27.927 19.659l4.239-4.239c-0.958-2.483-2.57-4.535-4.627-6.006l-0.040-0.027v10.095c0 0.138 0.112 0.25 0.25 0.25 0.069 0 0.132-0.028 0.177-0.073v0z"></path>
<path fill="#fff" d="M17.855 25.361c0.090 0.086 0.212 0.139 0.346 0.139h3.729c0.139-0 0.266-0.057 0.356-0.149l0-0 3.074-3.125c0.089-0.090 0.144-0.214 0.144-0.351 0-0 0-0 0-0v0l-0.004-3.801c-0-0.139-0.057-0.265-0.149-0.356l-3.125-3.078c-0.090-0.089-0.214-0.144-0.351-0.144-0 0-0.001 0-0.001 0l-3.802 0.004c-0.139 0-0.265 0.057-0.356 0.149l-3.078 3.125c-0.089 0.090-0.144 0.214-0.144 0.351 0 0 0 0.001 0 0.001v-0l0.004 3.799c0 0.141 0.059 0.269 0.153 0.36l0 0z"></path>
<path fill="#fff" d="M20.341 27.927l4.238 4.238c2.479-0.96 4.529-2.571 5.999-4.625l0.027-0.039h-10.087c-0.138 0-0.25 0.112-0.25 0.25 0 0.069 0.028 0.132 0.073 0.177v0z"></path>
<path fill="#fff" d="M14.5 25.518v6.26c1.612 0.772 3.504 1.223 5.501 1.223 0.837 0 1.655-0.079 2.448-0.23l-0.081 0.013-7.441-7.441c-0.045-0.045-0.108-0.073-0.177-0.073-0.138 0-0.25 0.112-0.25 0.25v0z"></path>
<path fill="#fff" d="M12.073 20.341l-4.239 4.239c0.958 2.482 2.57 4.534 4.627 6.005l0.040 0.027v-10.095c-0-0.138-0.112-0.25-0.25-0.25-0.069 0-0.132 0.028-0.177 0.073v0z"></path>
</svg>
