<!-- Generated by IcoMoon.io -->
<svg version="1.1" xmlns="http://www.w3.org/2000/svg" width="40" height="40" viewBox="0 0 40 40">
<title>io-arrow-redo-circle</title>
<path fill="#fff" d="M7 20c0 7.179 5.821 13 13 13s13-5.821 13-13-5.821-13-13-13-13 5.821-13 13zM13 24.167c0.341-3.841 2.134-7.318 7.679-7.318v-2.333c0.003-0.285 0.235-0.515 0.52-0.515 0.137 0 0.262 0.053 0.355 0.14l-0-0 5.284 4.984c0.099 0.094 0.161 0.226 0.161 0.373s-0.062 0.279-0.161 0.373l-0 0-5.276 4.986c-0.093 0.087-0.218 0.14-0.355 0.14-0.285 0-0.517-0.23-0.52-0.515v-2.331c-3.567 0-5.282 0.842-6.786 2.418-0.343 0.353-0.942 0.082-0.901-0.402z"></path>
</svg>
