<!-- Generated by IcoMoon.io -->
<svg version="1.1" xmlns="http://www.w3.org/2000/svg" width="40" height="40" viewBox="0 0 40 40">
<title>io-at-sharp</title>
<path fill="#fff" d="M29.475 11.236c-2.004-2.188-4.967-3.344-8.568-3.344-3.188 0-6.293 1.237-8.739 3.485s-3.946 5.24-4.227 8.427c-0.284 3.229 0.713 6.268 2.809 8.556 2.086 2.277 5.004 3.532 8.218 3.532 2.033 0 3.351-0.147 5.343-0.984l0.922-0.387-0.775-1.844-0.922 0.386c-1.697 0.712-2.736 0.828-4.567 0.828-2.646 0-5.041-1.024-6.743-2.883-1.713-1.87-2.526-4.366-2.291-7.030 0.49-5.563 5.413-10.088 10.973-10.088 3.025 0 5.478 0.932 7.093 2.696 1.538 1.679 2.225 3.995 1.987 6.697-0.206 2.334-1.11 3.484-1.832 4.037-0.688 0.528-1.375 0.636-1.75 0.569-1.105-0.196-1.679-1.279-1.537-2.893l0.621-6.82-1.994-0.177-0.125 1.393c-0.905-0.926-2.167-1.5-3.563-1.5-0.007 0-0.014 0-0.021 0h0.001c-1.487 0-2.909 0.629-4 1.773-1.048 1.096-1.702 2.566-1.841 4.139-0.153 1.742 0.359 3.396 1.407 4.54 0.873 0.953 2.123 1.548 3.513 1.548 0.015 0 0.030-0 0.045-0l-0.002 0c0.019 0 0.042 0 0.064 0 1.757 0 3.331-0.779 4.397-2.011l0.006-0.007c0.533 1.031 1.503 1.772 2.657 1.985l0.023 0.004c1.056 0.187 2.296-0.168 3.317-0.951 1.887-1.446 2.46-3.762 2.609-5.45 0.282-3.231-0.606-6.15-2.506-8.226zM21.579 22.861c-0.691 0.64-1.619 1.033-2.639 1.033-0.013 0-0.026-0-0.038-0h0.002c-0.014 0-0.031 0-0.048 0-0.804 0-1.528-0.346-2.030-0.897l-0.002-0.002c-0.669-0.731-0.994-1.829-0.889-3.014 0.202-2.292 1.893-4.087 3.851-4.087 0.004 0 0.008-0 0.012-0 0.883 0 1.678 0.38 2.228 0.986l0.002 0.002c0.679 0.742 1.012 1.804 0.914 2.921-0.111 1.267-0.583 2.321-1.363 3.055z"></path>
</svg>
