<!-- Generated by IcoMoon.io -->
<svg version="1.1" xmlns="http://www.w3.org/2000/svg" width="40" height="40" viewBox="0 0 40 40">
<title>io-arrow-down-circle</title>
<path fill="#fff" d="M20 33c7.179 0 13-5.821 13-13s-5.821-13-13-13-13 5.821-13 13 5.821 13 13 13zM14.29 19.709c0.181-0.183 0.432-0.296 0.71-0.296 0.275 0 0.524 0.111 0.704 0.29l3.296 3.27v-8.349c0-0.552 0.448-1 1-1s1 0.448 1 1v0 8.349l3.296-3.27c0.181-0.179 0.43-0.29 0.704-0.29 0.553 0 1.001 0.448 1.001 1.001 0 0.278-0.113 0.529-0.296 0.711l-0 0-5 4.962c-0.181 0.179-0.43 0.29-0.704 0.29s-0.524-0.111-0.704-0.29l0 0-5-4.962c-0.183-0.181-0.296-0.433-0.296-0.711 0-0.275 0.111-0.524 0.291-0.705l-0 0z"></path>
</svg>
