<!-- Generated by IcoMoon.io -->
<svg version="1.1" xmlns="http://www.w3.org/2000/svg" width="40" height="40" viewBox="0 0 40 40">
<title>io-alert-circle-outline</title>
<path fill="none" stroke-linejoin="miter" stroke-linecap="butt" stroke-miterlimit="10" stroke-width="2.5" stroke="#fff" d="M32 20c0-6.625-5.375-12-12-12s-12 5.375-12 12 5.375 12 12 12 12-5.375 12-12z"></path>
<path fill="none" stroke-linejoin="round" stroke-linecap="round" stroke-miterlimit="4" stroke-width="2.5" stroke="#fff" d="M19.641 14.378l0.359 7.622 0.358-7.622c0-0.005 0-0.011 0-0.016 0-0.198-0.161-0.359-0.359-0.359-0.001 0-0.002 0-0.004 0h0c-0.197 0.002-0.355 0.162-0.355 0.359 0 0.006 0 0.011 0 0.017l-0-0.001z"></path>
<path fill="#fff" d="M20 26.994c-0.69 0-1.25-0.56-1.25-1.25s0.56-1.25 1.25-1.25c0.69 0 1.25 0.56 1.25 1.25v0c0 0.69-0.56 1.25-1.25 1.25v0z"></path>
</svg>
