<!-- Generated by IcoMoon.io -->
<svg version="1.1" xmlns="http://www.w3.org/2000/svg" width="40" height="40" viewBox="0 0 40 40">
<title>io-arrow-undo-circle</title>
<path fill="#fff" d="M20 7c-7.179 0-13 5.821-13 13s5.821 13 13 13 13-5.821 13-13-5.821-13-13-13zM26.104 24.569c-1.504-1.576-3.219-2.418-6.786-2.418v2.332c-0.001 0.286-0.234 0.518-0.52 0.518-0.139 0-0.265-0.054-0.358-0.143l-5.279-4.984c-0.099-0.094-0.161-0.226-0.161-0.373s0.062-0.279 0.161-0.373l0-0 5.276-4.986c0.093-0.089 0.219-0.143 0.358-0.143 0.286 0 0.519 0.232 0.52 0.518v2.333c5.546 0 7.339 3.477 7.679 7.318 0.046 0.482-0.553 0.753-0.891 0.4z"></path>
</svg>
