<!-- Generated by IcoMoon.io -->
<svg version="1.1" xmlns="http://www.w3.org/2000/svg" width="40" height="40" viewBox="0 0 40 40">
<title>io-alert-circle</title>
<path fill="#fff" d="M20 7c-7.168 0-13 5.832-13 13s5.832 13 13 13 13-5.832 13-13-5.832-13-13-13zM20 26.994c-0.69 0-1.25-0.56-1.25-1.25s0.56-1.25 1.25-1.25c0.69 0 1.25 0.56 1.25 1.25v0c0 0.69-0.56 1.25-1.25 1.25v0zM21.357 14.422l-0.359 7.625c0 0.552-0.448 1-1 1s-1-0.448-1-1v0l-0.359-7.621v-0.003c-0.001-0.017-0.001-0.038-0.001-0.058 0-0.75 0.608-1.359 1.359-1.359s1.359 0.608 1.359 1.359c0 0.021-0 0.041-0.001 0.061l0-0.003z"></path>
</svg>
