<!-- Generated by IcoMoon.io -->
<svg version="1.1" xmlns="http://www.w3.org/2000/svg" width="40" height="40" viewBox="0 0 40 40">
<title>io-archive</title>
<path fill="#fff" d="M8 14.25v15.25c0 1.933 1.567 3.5 3.5 3.5v0h17c1.933 0 3.5-1.567 3.5-3.5v0-15.25c0-0.138-0.112-0.25-0.25-0.25v0h-23.5c-0.138 0-0.25 0.112-0.25 0.25v0zM24.688 23.727l-3.981 3.98c-0.181 0.181-0.431 0.293-0.707 0.293s-0.526-0.112-0.707-0.293l-3.981-3.98c-0.381-0.381-0.416-1-0.053-1.399 0.184-0.202 0.447-0.328 0.74-0.328 0.276 0 0.526 0.112 0.707 0.293l2.293 2.292v-6.557c0-0.538 0.414-1 0.952-1.027 0.014-0.001 0.031-0.001 0.048-0.001 0.552 0 1 0.448 1 1v0 6.586l2.293-2.292c0.181-0.181 0.431-0.293 0.707-0.293 0.293 0 0.557 0.126 0.74 0.327l0.001 0.001c0.362 0.398 0.328 1.018-0.053 1.399z"></path>
<path fill="#fff" d="M8 7h24c1.105 0 2 0.895 2 2v1c0 1.105-0.895 2-2 2h-24c-1.105 0-2-0.895-2-2v-1c0-1.105 0.895-2 2-2z"></path>
</svg>
