<!-- Generated by IcoMoon.io -->
<svg version="1.1" xmlns="http://www.w3.org/2000/svg" width="40" height="40" viewBox="0 0 40 40">
<title>io-beaker-sharp</title>
<path fill="#fff" d="M32.347 7.419l0.653-1.419h-20.975c-1.734 0-3.063 0.411-3.957 1.219-0.669 0.61-1.068 1.461-1.068 2.281v1.5h1c1.938 0 2 1.049 2 2.188v19.563c0 0.69 0.56 1.25 1.25 1.25v0h19.5c0.69 0 1.25-0.56 1.25-1.25v0-22.75c0-1.072 0.143-2.134 0.347-2.581zM30 10v4h-18v-1.375c0-2.259-1.313-3.188-2.611-3.341 0.173-0.909 1.217-1.281 2.636-1.281h18.12c-0.092 0.6-0.145 1.292-0.145 1.997v0z"></path>
</svg>
