<!-- Generated by IcoMoon.io -->
<svg version="1.1" xmlns="http://www.w3.org/2000/svg" width="40" height="40" viewBox="0 0 40 40">
<title>io-beer-outline</title>
<path fill="none" stroke-linejoin="round" stroke-linecap="round" stroke-miterlimit="4" stroke-width="2.5" stroke="#fff" d="M26 16.5v15c-0.004 1.379-1.121 2.496-2.5 2.5h-11c-1.379-0.004-2.496-1.121-2.5-2.5v-13.5"></path>
<path fill="none" stroke-linejoin="miter" stroke-linecap="round" stroke-miterlimit="10" stroke-width="2.5" stroke="#fff" d="M26 18h2.5c1.931 0.006 3.494 1.569 3.5 3.499v5.001c-0.006 1.931-1.569 3.494-3.499 3.5h-2.501"></path>
<path fill="none" stroke-linejoin="round" stroke-linecap="round" stroke-miterlimit="4" stroke-width="2.5" stroke="#fff" d="M18 20v10"></path>
<path fill="none" stroke-linejoin="round" stroke-linecap="round" stroke-miterlimit="4" stroke-width="2.5" stroke="#fff" d="M22 20v10"></path>
<path fill="none" stroke-linejoin="round" stroke-linecap="round" stroke-miterlimit="4" stroke-width="2.5" stroke="#fff" d="M14 20v10"></path>
<path fill="none" stroke-linejoin="round" stroke-linecap="round" stroke-miterlimit="4" stroke-width="2.5" stroke="#fff" d="M24 11c1.657 0 3 1.343 3 3s-1.343 3-3 3v0c-0.828 0-1.832-0.457-2.375-1h-7.625c-0.5 1.375-1.688 2-3 2-1.657 0-3-1.343-3-3s1.343-3 3-3v0c0.613 0.027 1.173 0.233 1.634 0.568l-0.009-0.006"></path>
<path fill="none" stroke-linejoin="miter" stroke-linecap="round" stroke-miterlimit="10" stroke-width="2.5" stroke="#fff" d="M9.741 12.277c-0.457-0.453-0.74-1.081-0.74-1.776 0-1.381 1.119-2.5 2.5-2.5 0.826 0 1.559 0.401 2.014 1.019l0.005 0.007s0.48 0.661 0.48 0.973"></path>
<path fill="none" stroke-linejoin="miter" stroke-linecap="round" stroke-miterlimit="10" stroke-width="2.5" stroke="#fff" d="M13.114 8.044c1.087-1.239 2.609-2.044 4.386-2.044 3.274 0 5.875 2.677 5.875 5.951 0 0.001 0 0.002 0 0.003 0 0.392-0.038 0.775-0.111 1.146l0.006-0.038"></path>
</svg>
