<!-- Generated by IcoMoon.io -->
<svg version="1.1" xmlns="http://www.w3.org/2000/svg" width="40" height="40" viewBox="0 0 40 40">
<title>io-brush-outline</title>
<path fill="none" stroke-linejoin="round" stroke-linecap="round" stroke-miterlimit="4" stroke-width="2.5" stroke="#fff" d="M32.273 7.727v0c-0.458-0.458-1.091-0.741-1.789-0.741s-1.331 0.283-1.789 0.741v0l-13.194 14.694c1.442 0.294 2.883 1.706 3.079 3.079l13.694-14.194c0.458-0.458 0.741-1.091 0.741-1.789s-0.283-1.331-0.741-1.789v0z"></path>
<path fill="none" stroke-linejoin="round" stroke-linecap="round" stroke-miterlimit="4" stroke-width="2.5" stroke="#fff" d="M12.625 25c-1.867 0-3.375 1.531-3.375 3.429 0 1.497-1.305 2.286-2.25 2.286 1.035 1.394 2.801 2.286 4.5 2.286 2.486 0 4.5-2.046 4.5-4.571 0-1.898-1.507-3.429-3.375-3.429z"></path>
</svg>
