<!-- Generated by IcoMoon.io -->
<svg version="1.1" xmlns="http://www.w3.org/2000/svg" width="40" height="40" viewBox="0 0 40 40">
<title>io-boat-outline</title>
<path fill="none" stroke-linejoin="miter" stroke-linecap="butt" stroke-miterlimit="10" stroke-width="2.5" stroke="#fff" d="M32.871 20.316c-0.125-0.297-0.419-0.489-0.729-0.593l-11.699-4.655c-0.132-0.043-0.285-0.068-0.443-0.068s-0.31 0.025-0.453 0.070l0.011-0.003-11.688 4.658c-0.313 0.098-0.614 0.298-0.738 0.596s-0.184 0.586-0.063 0.943l2.908 7.447c0.071 0.172 0.238 0.291 0.432 0.291 0.012 0 0.024-0 0.036-0.001l-0.002 0c1.668-0.105 3.144-0.952 4.274-2.031 0.085-0.080 0.201-0.13 0.328-0.13s0.242 0.049 0.328 0.13l-0-0c1.207 1.156 2.814 2.031 4.627 2.031s3.41-0.875 4.617-2.034c0.086-0.080 0.201-0.13 0.328-0.13s0.243 0.049 0.328 0.13l-0-0c1.129 1.080 2.606 1.929 4.274 2.034 0.011 0.001 0.023 0.001 0.035 0.001 0.194 0 0.36-0.118 0.43-0.286l0.001-0.003 2.919-7.448c0.124-0.299 0.062-0.651-0.062-0.949z"></path>
<path fill="#fff" d="M30 33.571c-0-0.161-0.089-0.301-0.22-0.374l-0.002-0.001c-1.692-0.909-3.236-2.301-3.914-3-0.115-0.12-0.276-0.195-0.455-0.195-0.126 0-0.244 0.037-0.343 0.102l0.002-0.001c-3.146 2.026-6.976 2.028-10.122 0.003-0.097-0.063-0.215-0.101-0.342-0.101-0.181 0-0.344 0.076-0.459 0.198l-0 0c-0.673 0.705-2.199 2.081-3.902 2.984-0.135 0.069-0.228 0.201-0.243 0.356l-0 0.002c-0.001 0.010-0.001 0.021-0.001 0.033 0 0.232 0.188 0.421 0.421 0.421 0.027 0 0.053-0.003 0.078-0.007l-0.003 0c1.303-0.261 2.563-0.855 3.762-1.489 0.074-0.039 0.161-0.063 0.254-0.063 0.090 0 0.175 0.022 0.249 0.060l-0.003-0.001c1.526 0.793 3.333 1.258 5.247 1.258s3.719-0.465 5.31-1.287l-0.065 0.030c0.072-0.038 0.158-0.060 0.249-0.060 0.094 0 0.182 0.023 0.259 0.065l-0.003-0.001c1.194 0.625 2.451 1.224 3.75 1.487 0.023 0.005 0.050 0.007 0.077 0.007 0.232 0 0.42-0.188 0.42-0.42 0-0.002-0-0.005-0-0.007v0z"></path>
<path fill="none" stroke-linejoin="round" stroke-linecap="round" stroke-miterlimit="4" stroke-width="2.5" stroke="#fff" d="M24 10v-1.5c-0.002-0.827-0.673-1.498-1.5-1.5h-5c-0.827 0.002-1.498 0.673-1.5 1.5v1.5"></path>
<path fill="none" stroke-linejoin="round" stroke-linecap="round" stroke-miterlimit="4" stroke-width="2.5" stroke="#fff" d="M30 18.563v-5.563c-0.005-1.655-1.345-2.995-3-3h-14c-1.655 0.005-2.995 1.345-3 3v5.75"></path>
<path fill="none" stroke-linejoin="round" stroke-linecap="round" stroke-miterlimit="4" stroke-width="2.5" stroke="#fff" d="M20 15.475v13.303"></path>
</svg>
