<!-- Generated by IcoMoon.io -->
<svg version="1.1" xmlns="http://www.w3.org/2000/svg" width="40" height="40" viewBox="0 0 40 40">
<title>io-brush</title>
<path fill="#fff" d="M18.572 26.507c-0.001 0-0.003 0-0.004 0-0.109 0-0.213-0.018-0.31-0.050l0.007 0.002c-0.361-0.119-0.627-0.429-0.682-0.807l-0.001-0.005c-0.134-0.938-1.247-2.029-2.289-2.241-0.458-0.097-0.797-0.499-0.797-0.979 0-0.256 0.096-0.49 0.255-0.667l-0.001 0.001 13.193-14.694c0.012-0.014 0.024-0.027 0.037-0.039 0.639-0.638 1.522-1.032 2.497-1.032s1.857 0.394 2.497 1.032l-0-0c0.639 0.639 1.034 1.522 1.034 2.497 0 0.971-0.392 1.851-1.027 2.49l0-0-13.688 14.188c-0.182 0.189-0.438 0.306-0.72 0.306-0 0-0 0-0 0h0z"></path>
<path fill="#fff" d="M11.493 34.007c-2.009 0-4.091-1.056-5.303-2.688-0.123-0.164-0.197-0.372-0.197-0.596 0-0.552 0.448-1 1-1 0 0 0 0 0 0h-0c0.334 0 1.25-0.304 1.25-1.286 0-2.442 1.962-4.429 4.375-4.429s4.375 1.987 4.375 4.429c0 3.070-2.467 5.569-5.5 5.569z"></path>
</svg>
