<!-- Generated by IcoMoon.io -->
<svg version="1.1" xmlns="http://www.w3.org/2000/svg" width="40" height="40" viewBox="0 0 40 40">
<title>io-briefcase</title>
<path fill="#fff" d="M35 15c-0.002-2.208-1.792-3.998-4-4h-3v-1c-0.002-1.656-1.344-2.998-3-3h-10c-1.656 0.002-2.998 1.344-3 3v1h-3c-2.208 0.003-3.998 1.792-4 4v3h30zM26 11h-12v-1c0-0.552 0.448-1 1-1v0h10c0.552 0 1 0.448 1 1v0z"></path>
<path fill="#fff" d="M25 20.5c0 0.828-0.672 1.5-1.5 1.5v0h-7c-0.828 0-1.5-0.672-1.5-1.5v0-0.25c0-0.138-0.112-0.25-0.25-0.25v0h-9.75v9c0 2.209 1.791 4 4 4v0h22c2.209 0 4-1.791 4-4v0-9h-9.75c-0.138 0-0.25 0.112-0.25 0.25v0z"></path>
</svg>
