<!-- Generated by IcoMoon.io -->
<svg version="1.1" xmlns="http://www.w3.org/2000/svg" width="40" height="40" viewBox="0 0 40 40">
<title>io-bonfire-outline</title>
<path fill="#fff" d="M21.086 27.021c-0.051-0.577-0.554-1.027-1.159-1.027-0.002-0-0.005-0-0.008-0-0.543 0-0.999 0.371-1.128 0.874l-0.002 0.008-1.137 5.524c-0.036 0.148-0.057 0.317-0.058 0.492v0.001c0 1.246 1.042 2.111 2.333 2.111s2.334-0.866 2.334-2.111c-0.001-0.21-0.030-0.414-0.084-0.607l0.004 0.016z"></path>
<path fill="#fff" d="M29.691 29.491c-0.11-0.097-0.232-0.187-0.36-0.265l-0.011-0.006-4.346-3.037c-0.423-0.266-0.875-0.258-1.203 0.063-0.162 0.154-0.263 0.372-0.263 0.613 0 0.172 0.051 0.332 0.14 0.466l-0.002-0.003 3.281 4.313c0.078 0.109 0.161 0.204 0.25 0.293l0 0c0.569 0.636 1.83 0.671 2.523 0 0.684-0.682 0.676-1.897-0.009-2.434z"></path>
<path fill="#fff" d="M32.956 24.992h-4.401c-0.284 0-0.555 0.209-0.555 0.51s0.184 0.491 0.432 0.572l4.152 1.284c0.603 0.141 1.416-0.397 1.416-1.068 0-0.854-0.475-1.299-1.044-1.299z"></path>
<path fill="#fff" d="M12.014 25.5c0-0.313-0.284-0.51-0.591-0.51h-4.401c-0.554 0-1.022 0.599-1.022 1.27s0.789 1.24 1.394 1.099l4.214-1.284c0.274-0.082 0.406-0.263 0.406-0.575z"></path>
<path fill="#fff" d="M15.034 26.188l-4.347 3.024c-0.142 0.081-0.265 0.171-0.376 0.273l0.001-0.001c-0.323 0.301-0.525 0.73-0.525 1.205s0.202 0.904 0.524 1.204l0.001 0.001c0.328 0.311 0.772 0.501 1.261 0.501s0.933-0.191 1.262-0.502l-0.001 0.001c0.091-0.088 0.174-0.183 0.246-0.286l0.004-0.006 3.284-4.288c0.219-0.349 0.183-0.781-0.125-1.066-0.167-0.156-0.392-0.252-0.639-0.252-0.215 0-0.414 0.073-0.572 0.195l0.002-0.002z"></path>
<path fill="none" stroke-linejoin="miter" stroke-linecap="round" stroke-miterlimit="10" stroke-width="2.5" stroke="#fff" d="M27 11.818c0-3.481-3.076-5.572-5.887-5.816-0.013-0.001-0.028-0.002-0.043-0.002-0.27 0-0.491 0.215-0.5 0.483l-0 0.001c-0.195 4.75-6.836 6.918-7.492 11.167-0.438 2.837 1.041 4.523 2.144 5.361 0.165 0.127 0.375 0.203 0.603 0.203 0.389 0 0.726-0.223 0.89-0.549l0.003-0.006c1.406-2.866 4.646-3.968 6.857-5.371 2.68-1.7 3.425-3.527 3.425-5.472z"></path>
<path fill="none" stroke-linejoin="miter" stroke-linecap="round" stroke-miterlimit="10" stroke-width="2.5" stroke="#fff" d="M19 9.981c-0.801-1.438-1.907-1.938-3.698-1.977-0.004-0-0.009-0-0.013-0-0.126 0-0.229 0.096-0.24 0.219l-0 0.001c-0.059 2.139-2.049 2.803-2.049 4.572 0 1.211 0.337 1.813 1.073 2.455"></path>
<path fill="none" stroke-linejoin="miter" stroke-linecap="round" stroke-miterlimit="10" stroke-width="2.5" stroke="#fff" d="M26.028 15.172c0.537 0.894 0.972 1.88 0.972 3 0 3.283-2.654 5.819-5.929 5.819-0.001 0-0.003 0-0.004 0-1.578 0-3.010-0.619-4.069-1.627l0.002 0.002"></path>
</svg>
