<!-- Generated by IcoMoon.io -->
<svg version="1.1" xmlns="http://www.w3.org/2000/svg" width="40" height="40" viewBox="0 0 40 40">
<title>io-bag-remove</title>
<path fill="#fff" d="M32.416 14.588c-0.361-0.363-0.86-0.588-1.412-0.588-0.001 0-0.003 0-0.004 0h-4v-1c0-3.866-3.134-7-7-7s-7 3.134-7 7v0 1h-4c-1.105 0-2 0.895-2 2v0 13.5c0 2.438 2.063 4.5 4.5 4.5h17c0 0 0.001 0 0.001 0 1.228 0 2.341-0.49 3.154-1.285l-0.001 0.001c0.828-0.791 1.344-1.904 1.345-3.137v-13.578c0-0.002 0-0.004 0-0.006 0-0.549-0.223-1.047-0.584-1.406l-0-0zM24 25h-8c-0.552 0-1-0.448-1-1s0.448-1 1-1v0h8c0.552 0 1 0.448 1 1s-0.448 1-1 1v0zM25 14h-10v-1c0-2.761 2.239-5 5-5s5 2.239 5 5v0z"></path>
</svg>
