<!-- Generated by IcoMoon.io -->
<svg version="1.1" xmlns="http://www.w3.org/2000/svg" width="40" height="40" viewBox="0 0 40 40">
<title>io-bus-sharp</title>
<path fill="#fff" d="M30.5 6h-21c-0.828 0-1.5 0.672-1.5 1.5v0 22.5c0 0.736 0.398 1.38 0.991 1.727l0.009 0.005v2.268h4.5v-2h13v2h4.5v-2.268c0.602-0.352 1-0.996 1-1.732v0-22.5c0-0.828-0.672-1.5-1.5-1.5v0zM14.989 27.217c-0.113 1.007-0.96 1.782-1.988 1.782-1.105 0-2-0.895-2-2 0-1.028 0.775-1.874 1.773-1.987l0.009-0.001c0.064-0.007 0.137-0.011 0.212-0.011 1.108 0 2.006 0.898 2.006 2.006 0 0.074-0.004 0.148-0.012 0.22l0.001-0.009zM19 22h-9v-10h9zM20 10h-9.971l-0.029-2h20l-0.029 2h-9.971zM21 12h9v10h-9zM25.011 26.783c0.113-1.007 0.96-1.782 1.988-1.782 1.105 0 2 0.895 2 2 0 1.028-0.775 1.874-1.773 1.987l-0.009 0.001c-0.064 0.007-0.137 0.011-0.212 0.011-1.108 0-2.006-0.898-2.006-2.006 0-0.074 0.004-0.148 0.012-0.22l-0.001 0.009z"></path>
</svg>
