<!-- Generated by IcoMoon.io -->
<svg version="1.1" xmlns="http://www.w3.org/2000/svg" width="40" height="40" viewBox="0 0 40 40">
<title>io-chatbubbles</title>
<path fill="#fff" d="M7.778 28.323c0 0.004 0 0.012-0.005 0.024 0.002-0.008 0.003-0.016 0.005-0.024z"></path>
<path fill="#fff" d="M31.494 29.35c-0.217-0.005-0.423-0.050-0.61-0.129l0.011 0.004-3.575-1.269c-0.070-0.030-0.152-0.048-0.238-0.048-0.002 0-0.005 0-0.007 0h0c-0.081 0-0.159 0.015-0.231 0.043l0.004-0.001c-0.086 0.032-0.863 0.324-1.678 0.548-0.442 0.121-1.98 0.517-3.214 0.517-3.155 0-6.105-1.212-8.306-3.414-2.089-2.077-3.382-4.952-3.382-8.129 0-0.010 0-0.019 0-0.029v0.001c0-0 0-0 0-0 0-0.832 0.092-1.643 0.268-2.422l-0.014 0.073c0.549-2.539 2.004-4.848 4.097-6.5 2.047-1.618 4.666-2.595 7.513-2.595 0.004 0 0.008 0 0.012 0h-0.001c3.263 0 6.304 1.25 8.562 3.511 2.135 2.142 3.305 4.958 3.296 7.929-0.002 2.312-0.709 4.458-1.919 6.236l0.025-0.039-0.012 0.017-0.046 0.063c-0.011 0.014-0.021 0.028-0.031 0.042l-0.009 0.017c-0.021 0.035-0.044 0.078-0.064 0.122l-0.003 0.008 0.984 3.496c0.041 0.132 0.067 0.285 0.070 0.443l0 0.002c0 0.001 0 0.001 0 0.002 0 0.828-0.672 1.5-1.5 1.5-0.001 0-0.001 0-0.002 0h0z"></path>
<path fill="#fff" d="M22.742 30.587c-0.131-0.251-0.361-0.436-0.636-0.505l-0.007-0.001c-0.361-0.096-0.783-0.079-1.104-0.103-3.162-0.226-5.97-1.586-8.051-3.672l-0-0c-1.855-1.844-3.131-4.268-3.535-6.977l-0.008-0.068c-0.088-0.609-0.088-0.76-0.088-0.76-0-0.552-0.448-1-1-1-0.298 0-0.566 0.131-0.749 0.337l-0.001 0.001s-0.492 0.536-0.725 1.074c-0.529 1.188-0.838 2.575-0.838 4.033 0 1.98 0.568 3.827 1.55 5.387l-0.025-0.042c0.162 0.271 0.162 0.396 0.126 0.677-0.171 0.882-0.469 2.438-0.625 3.244-0.018 0.087-0.028 0.187-0.028 0.29 0 0.457 0.204 0.866 0.526 1.141l0.002 0.002 0.029 0.024c0.257 0.205 0.586 0.33 0.945 0.33h0c0 0 0.001 0 0.001 0 0.203 0 0.395-0.041 0.571-0.116l-0.010 0.004 3.344-1.291c0.053-0.021 0.114-0.033 0.179-0.033s0.126 0.012 0.182 0.034l-0.003-0.001c1.317 0.49 2.688 0.75 3.986 0.75 0.003 0 0.007 0 0.010 0 1.696 0 3.303-0.384 4.738-1.070l-0.066 0.029c0.341-0.16 0.875-0.334 1.188-0.695 0.137-0.162 0.221-0.374 0.221-0.605 0-0.153-0.037-0.297-0.102-0.425l0.002 0.005z"></path>
</svg>
