<!-- Generated by IcoMoon.io -->
<svg version="1.1" xmlns="http://www.w3.org/2000/svg" width="40" height="40" viewBox="0 0 40 40">
<title>io-cog-outline</title>
<path fill="#fff" d="M32.544 19.142l-1.63-0.262c-0.216-0.037-0.382-0.209-0.412-0.424l-0-0.003c-0.031-0.2-0.063-0.401-0.106-0.594-0.006-0.030-0.010-0.065-0.010-0.101 0-0.186 0.101-0.349 0.251-0.437l0.002-0.001 1.443-0.801c0.164-0.085 0.274-0.254 0.274-0.448 0-0.062-0.011-0.121-0.031-0.176l0.001 0.003-0.25-0.688c-0.071-0.193-0.253-0.327-0.467-0.327-0.043 0-0.085 0.005-0.124 0.016l0.003-0.001-1.618 0.313c-0.029 0.006-0.061 0.009-0.095 0.009-0.191 0-0.356-0.107-0.441-0.263l-0.001-0.003q-0.141-0.263-0.3-0.526c-0.047-0.076-0.076-0.168-0.076-0.267 0-0.125 0.045-0.24 0.12-0.329l-0.001 0.001 1.081-1.246c0.084-0.089 0.136-0.21 0.136-0.342 0-0.123-0.044-0.235-0.118-0.322l0.001 0.001-0.468-0.562c-0.091-0.11-0.227-0.179-0.38-0.179-0.103 0-0.199 0.032-0.278 0.086l0.002-0.001-1.418 0.852c-0.073 0.044-0.161 0.070-0.255 0.070-0.128 0-0.244-0.048-0.332-0.127l0.001 0c-0.15-0.132-0.306-0.263-0.463-0.389-0.116-0.092-0.189-0.233-0.189-0.391 0-0.064 0.012-0.125 0.034-0.181l-0.001 0.003 0.587-1.547c0.027-0.060 0.043-0.13 0.043-0.203 0-0.183-0.098-0.342-0.244-0.43l-0.002-0.001-0.637-0.369c-0.071-0.041-0.156-0.065-0.247-0.065-0.164 0-0.31 0.079-0.402 0.202l-0.001 0.001-1.040 1.303c-0.082 0.115-0.215 0.189-0.365 0.189-0.060 0-0.117-0.012-0.17-0.033l0.003 0.001s-0.35-0.144-0.613-0.232c-0.2-0.068-0.342-0.255-0.342-0.474 0-0.002 0-0.005 0-0.007v0l0.025-1.653c0.001-0.009 0.001-0.020 0.001-0.030 0-0.246-0.177-0.452-0.41-0.496l-0.003-0.001-0.724-0.125c-0.026-0.005-0.056-0.007-0.086-0.007-0.226 0-0.418 0.149-0.482 0.354l-0.001 0.004-0.538 1.566c-0.069 0.198-0.255 0.338-0.473 0.338-0.005 0-0.010-0-0.014-0l0.001 0h-0.613c-0.003 0-0.007 0-0.011 0-0.219 0-0.405-0.14-0.475-0.335l-0.001-0.004-0.537-1.566c-0.065-0.209-0.256-0.358-0.483-0.358-0.030 0-0.060 0.003-0.089 0.008l0.003-0-0.724 0.125c-0.237 0.045-0.413 0.25-0.413 0.496 0 0.011 0 0.021 0.001 0.032l-0-0.001 0.025 1.653c0 0.002 0 0.005 0 0.007 0 0.22-0.142 0.407-0.34 0.474l-0.004 0.001c-0.144 0.056-0.456 0.176-0.606 0.232-0.175 0.063-0.381 0.012-0.55-0.182l-1.032-1.271c-0.092-0.123-0.237-0.202-0.401-0.202-0.091 0-0.177 0.024-0.251 0.067l0.002-0.001-0.637 0.369c-0.15 0.087-0.249 0.247-0.249 0.43 0 0.073 0.016 0.142 0.044 0.204l-0.001-0.003 0.588 1.547c0.020 0.052 0.032 0.113 0.032 0.177 0 0.158-0.073 0.3-0.187 0.392l-0.001 0.001c-0.156 0.125-0.313 0.257-0.462 0.389-0.088 0.078-0.204 0.126-0.332 0.126-0.094 0-0.182-0.026-0.257-0.071l0.002 0.001-1.398-0.865c-0.077-0.052-0.173-0.082-0.275-0.082-0.153 0-0.289 0.068-0.381 0.176l-0.001 0.001-0.468 0.562c-0.073 0.086-0.117 0.199-0.117 0.321 0 0.133 0.052 0.253 0.136 0.343l-0-0 1.081 1.246c0.076 0.087 0.122 0.202 0.122 0.327 0 0.099-0.029 0.192-0.079 0.27l0.001-0.002q-0.159 0.25-0.3 0.526c-0.088 0.159-0.254 0.265-0.446 0.265-0.032 0-0.064-0.003-0.094-0.009l0.003 0.001-1.618-0.313c-0.036-0.009-0.076-0.014-0.118-0.014-0.214 0-0.396 0.134-0.468 0.323l-0.001 0.003-0.25 0.688c-0.019 0.051-0.030 0.11-0.030 0.172 0 0.194 0.11 0.363 0.271 0.447l0.003 0.001 1.441 0.802c0.153 0.086 0.255 0.248 0.255 0.434 0 0.037-0.004 0.074-0.012 0.108l0.001-0.003c-0.038 0.2-0.075 0.394-0.106 0.594-0.032 0.217-0.198 0.387-0.409 0.426l-0.003 0-1.63 0.263c-0.249 0.032-0.44 0.24-0.444 0.495v0.733c-0 0.002-0 0.004-0 0.006 0 0.255 0.194 0.464 0.442 0.489l0.002 0 1.63 0.262c0.216 0.037 0.382 0.209 0.412 0.424l0 0.003c0.031 0.2 0.062 0.401 0.106 0.594 0.006 0.030 0.010 0.065 0.010 0.101 0 0.186-0.101 0.349-0.251 0.437l-0.002 0.001-1.443 0.803c-0.164 0.085-0.274 0.254-0.274 0.448 0 0.062 0.011 0.121 0.031 0.176l-0.001-0.003 0.25 0.688c0.071 0.193 0.253 0.327 0.467 0.327 0.043 0 0.085-0.005 0.124-0.016l-0.003 0.001 1.618-0.313c0.029-0.006 0.061-0.009 0.095-0.009 0.191 0 0.356 0.107 0.441 0.263l0.001 0.003q0.141 0.262 0.3 0.526c0.047 0.076 0.076 0.168 0.076 0.267 0 0.125-0.045 0.24-0.12 0.329l0.001-0.001-1.081 1.247c-0.084 0.089-0.136 0.21-0.136 0.342 0 0.123 0.044 0.235 0.118 0.322l-0.001-0.001 0.468 0.563c0.091 0.11 0.227 0.179 0.38 0.179 0.103 0 0.199-0.032 0.278-0.086l-0.002 0.001 1.418-0.852c0.073-0.044 0.161-0.070 0.255-0.070 0.128 0 0.244 0.048 0.332 0.127l-0.001-0c0.15 0.132 0.306 0.263 0.462 0.389 0.116 0.092 0.189 0.233 0.189 0.391 0 0.064-0.012 0.125-0.034 0.181l0.001-0.003-0.588 1.547c-0.027 0.059-0.042 0.128-0.042 0.201 0 0.183 0.099 0.344 0.246 0.431l0.002 0.001 0.638 0.369c0.071 0.041 0.156 0.065 0.247 0.065 0.164 0 0.31-0.079 0.402-0.202l0.001-0.001 1.049-1.29c0.131-0.163 0.344-0.231 0.513-0.163 0.212 0.088 0.356 0.137 0.619 0.226 0.201 0.068 0.343 0.255 0.343 0.475 0 0.003-0 0.005-0 0.007v-0l-0.025 1.653c-0.001 0.009-0.001 0.020-0.001 0.030 0 0.246 0.177 0.452 0.41 0.496l0.003 0.001 0.724 0.125c0.026 0.005 0.056 0.007 0.086 0.007 0.226 0 0.418-0.149 0.482-0.354l0.001-0.004 0.537-1.563c0.069-0.198 0.255-0.338 0.473-0.338 0.005 0 0.010 0 0.014 0l-0.001-0h0.612c0.003-0 0.007-0 0.011-0 0.219 0 0.405 0.14 0.475 0.335l0.001 0.004 0.537 1.563c0.065 0.209 0.256 0.358 0.483 0.358 0.030 0 0.060-0.003 0.089-0.008l-0.003 0 0.724-0.125c0.237-0.045 0.413-0.25 0.413-0.496 0-0.011-0-0.021-0.001-0.032l0 0.001-0.025-1.653c-0-0.002-0-0.005-0-0.007 0-0.22 0.142-0.407 0.34-0.474l0.004-0.001c0.263-0.088 0.438-0.157 0.6-0.219s0.363-0.063 0.519 0.131l1.063 1.309c0.092 0.124 0.238 0.203 0.402 0.203 0.092 0 0.178-0.025 0.252-0.068l-0.002 0.001 0.638-0.369c0.15-0.087 0.249-0.247 0.249-0.43 0-0.073-0.016-0.143-0.044-0.205l0.001 0.003-0.587-1.547c-0.020-0.053-0.032-0.113-0.032-0.177 0-0.159 0.073-0.3 0.187-0.393l0.001-0.001c0.156-0.125 0.313-0.256 0.462-0.388 0.088-0.078 0.204-0.126 0.332-0.126 0.094 0 0.182 0.026 0.257 0.071l-0.002-0.001 1.413 0.854c0.077 0.052 0.173 0.082 0.275 0.082 0.153 0 0.289-0.068 0.381-0.176l0.001-0.001 0.468-0.563c0.073-0.086 0.117-0.199 0.117-0.321 0-0.133-0.052-0.253-0.136-0.343l0 0-1.081-1.246c-0.076-0.087-0.122-0.202-0.122-0.327 0-0.099 0.029-0.192 0.079-0.27l-0.001 0.002q0.159-0.253 0.3-0.526c0.088-0.159 0.254-0.265 0.446-0.265 0.032 0 0.064 0.003 0.094 0.009l-0.003-0.001 1.618 0.313c0.036 0.009 0.076 0.014 0.118 0.014 0.214 0 0.396-0.134 0.468-0.323l0.001-0.003 0.25-0.688c0.019-0.051 0.030-0.11 0.030-0.172 0-0.194-0.11-0.363-0.271-0.447l-0.003-0.001-1.443-0.801c-0.153-0.086-0.255-0.248-0.255-0.434 0-0.037 0.004-0.074 0.012-0.108l-0.001 0.003c0.038-0.2 0.075-0.394 0.106-0.594 0.032-0.217 0.198-0.387 0.409-0.426l0.003-0 1.63-0.263c0.249-0.032 0.44-0.24 0.444-0.495v-0.734c-0.015-0.251-0.207-0.453-0.452-0.483l-0.002-0zM20 11c0.001 0 0.002 0 0.004 0 4.172 0 7.679 2.842 8.693 6.695l0.014 0.063c0.019 0.073 0.030 0.156 0.030 0.243 0 0.552-0.448 1-1 1-0 0-0 0-0.001 0h-6.577c-0 0-0 0-0 0-0.37 0-0.694-0.201-0.867-0.501l-0.003-0.005-3.256-5.732c-0.082-0.142-0.131-0.313-0.131-0.495 0-0.462 0.314-0.851 0.739-0.966l0.007-0.002c0.699-0.191 1.502-0.301 2.331-0.301 0.006 0 0.011 0 0.017 0h-0.001zM11 20c0-0.003 0-0.005 0-0.008 0-2.531 1.045-4.818 2.726-6.453l0.002-0.002c0.181-0.179 0.429-0.289 0.704-0.289 0.371 0 0.694 0.202 0.867 0.501l0.003 0.005 3.265 5.746c0.083 0.142 0.132 0.314 0.132 0.496s-0.049 0.353-0.134 0.501l0.003-0.005-3.292 5.731c-0.176 0.302-0.498 0.502-0.867 0.502-0.276 0-0.526-0.112-0.706-0.292l0 0c-1.667-1.634-2.701-3.91-2.701-6.426 0-0.002 0-0.005 0-0.007v0zM20 29c-0.007 0-0.015 0-0.023 0-0.84 0-1.654-0.113-2.428-0.324l0.064 0.015c-0.431-0.117-0.743-0.506-0.743-0.966 0-0.184 0.049-0.355 0.136-0.503l-0.003 0.005 3.286-5.722c0.176-0.301 0.498-0.5 0.866-0.5 0.001 0 0.001 0 0.002 0h6.587c0.552 0 1 0.448 1 1 0 0.086-0.011 0.17-0.031 0.249l0.001-0.007c-1.030 3.914-4.537 6.754-8.707 6.754-0.002 0-0.004 0-0.007 0h0z"></path>
</svg>
