<!-- Generated by IcoMoon.io -->
<svg version="1.1" xmlns="http://www.w3.org/2000/svg" width="40" height="40" viewBox="0 0 40 40">
<title>io-color-wand</title>
<path fill="#fff" d="M10 17h-3c-0.55 0-1-0.45-1-1s0.45-1 1-1h3c0.55 0 1 0.45 1 1s-0.45 1-1 1z"></path>
<path fill="#fff" d="M11.756 12.756c-0.263 0-0.519-0.106-0.706-0.294l-2.119-2.119c-0.387-0.387-0.387-1.025 0-1.412s1.025-0.387 1.412 0l2.119 2.119c0.394 0.387 0.394 1.025 0 1.412-0.188 0.188-0.438 0.294-0.706 0.294z"></path>
<path fill="#fff" d="M16 11c-0.55 0-1-0.45-1-1v-3c0-0.55 0.45-1 1-1s1 0.45 1 1v3c0 0.55-0.45 1-1 1z"></path>
<path fill="#fff" d="M20.244 12.756c-0.55 0-1-0.45-1-1 0-0.263 0.106-0.519 0.294-0.706l2.119-2.119c0.387-0.387 1.025-0.387 1.412 0s0.387 1.025 0 1.412l-2.119 2.119c-0.187 0.188-0.444 0.294-0.706 0.294z"></path>
<path fill="#fff" d="M9.637 23.363c-0.55 0-1-0.45-1-1 0-0.262 0.106-0.519 0.294-0.706l2.119-2.119c0.387-0.387 1.025-0.387 1.412 0s0.388 1.025 0 1.412l-2.119 2.119c-0.188 0.187-0.444 0.294-0.706 0.294z"></path>
<path fill="#fff" d="M18.637 14.438c-1.15-1.169-3.031-1.187-4.2-0.044s-1.187 3.031-0.044 4.2c0.012 0.012 0.031 0.031 0.044 0.044l2.469 2.469c0.194 0.194 0.512 0.194 0.706 0l3.494-3.494c0.194-0.194 0.194-0.512 0-0.706l-2.469-2.469z"></path>
<path fill="#fff" d="M32.563 28.363l-9.337-9.337c-0.194-0.194-0.512-0.194-0.706 0l-3.494 3.494c-0.194 0.194-0.194 0.512 0 0.706l9.337 9.337c1.15 1.169 3.031 1.188 4.2 0.044 1.169-1.15 1.188-3.031 0.044-4.2-0.013-0.012-0.025-0.031-0.044-0.044v0z"></path>
</svg>
