<!-- Generated by IcoMoon.io -->
<svg version="1.1" xmlns="http://www.w3.org/2000/svg" width="40" height="40" viewBox="0 0 40 40">
<title>io-copy</title>
<path fill="#fff" d="M29.5 34h-14c-2.485 0-4.5-2.015-4.5-4.5v0-14c0-2.485 2.015-4.5 4.5-4.5v0h14c2.485 0 4.5 2.015 4.5 4.5v0 14c0 2.485-2.015 4.5-4.5 4.5v0z"></path>
<path fill="#fff" d="M14 9h14.742c-0.638-1.761-2.296-2.998-4.242-3h-14c-2.485 0-4.5 2.015-4.5 4.5v0 14c0.002 1.947 1.239 3.604 2.969 4.233l0.031 0.010v-14.742c0-2.761 2.239-5 5-5v0z"></path>
</svg>
