<!-- Generated by IcoMoon.io -->
<svg version="1.1" xmlns="http://www.w3.org/2000/svg" width="40" height="40" viewBox="0 0 40 40">
<title>io-camera</title>
<path fill="#fff" d="M24 21c0 2.209-1.791 4-4 4s-4-1.791-4-4c0-2.209 1.791-4 4-4s4 1.791 4 4z"></path>
<path fill="#fff" d="M31 13h-3.688c-0.187 0-0.42-0.121-0.601-0.313l-1.621-2.559c-0.028-0.044-0.056-0.081-0.087-0.117l0.001 0.001c-0.56-0.653-1.317-1.013-2.129-1.013h-5.75c-0.813 0-1.569 0.36-2.129 1.013-0.030 0.034-0.058 0.072-0.083 0.112l-0.002 0.004-1.621 2.563c-0.139 0.151-0.334 0.313-0.539 0.313v-0.5c0-0.552-0.448-1-1-1v0h-1.5c-0.552 0-1 0.448-1 1v0 0.5h-0.25c-1.656 0.002-2.998 1.344-3 3v11.996c0.002 1.656 1.344 2.998 3 3h22c1.656-0.002 2.998-1.344 3-3v-12c-0.002-1.656-1.344-2.998-3-3h-0zM20 27c-3.314 0-6-2.686-6-6s2.686-6 6-6c3.314 0 6 2.686 6 6v0c-0.004 3.312-2.688 5.996-6 6h-0z"></path>
</svg>
