<!-- Generated by IcoMoon.io -->
<svg version="1.1" xmlns="http://www.w3.org/2000/svg" width="40" height="40" viewBox="0 0 40 40">
<title>io-calculator</title>
<path fill="#fff" d="M30 9c-0.002-1.656-1.344-2.998-3-3h-14c-1.656 0.002-2.998 1.344-3 3v22c0.002 1.656 1.344 2.998 3 3h14c1.656-0.002 2.998-1.344 3-3v-0zM14.5 31c-0.828 0-1.5-0.672-1.5-1.5s0.672-1.5 1.5-1.5c0.828 0 1.5 0.672 1.5 1.5v0c0 0.828-0.672 1.5-1.5 1.5v0zM14.5 26c-0.828 0-1.5-0.672-1.5-1.5s0.672-1.5 1.5-1.5c0.828 0 1.5 0.672 1.5 1.5v0c0 0.828-0.672 1.5-1.5 1.5v0zM14.5 21c-0.828 0-1.5-0.672-1.5-1.5s0.672-1.5 1.5-1.5c0.828 0 1.5 0.672 1.5 1.5v0c0 0.828-0.672 1.5-1.5 1.5v0zM20 31c-0.828 0-1.5-0.672-1.5-1.5s0.672-1.5 1.5-1.5c0.828 0 1.5 0.672 1.5 1.5v0c0 0.828-0.672 1.5-1.5 1.5v0zM20 26c-0.828 0-1.5-0.672-1.5-1.5s0.672-1.5 1.5-1.5c0.828 0 1.5 0.672 1.5 1.5v0c0 0.828-0.672 1.5-1.5 1.5v0zM20 21c-0.828 0-1.5-0.672-1.5-1.5s0.672-1.5 1.5-1.5c0.828 0 1.5 0.672 1.5 1.5v0c0 0.828-0.672 1.5-1.5 1.5v0zM27 29.5c0 0.828-0.672 1.5-1.5 1.5s-1.5-0.672-1.5-1.5v0-5c0-0.828 0.672-1.5 1.5-1.5s1.5 0.672 1.5 1.5v0zM25.5 21c-0.828 0-1.5-0.672-1.5-1.5s0.672-1.5 1.5-1.5c0.828 0 1.5 0.672 1.5 1.5v0c0 0.828-0.672 1.5-1.5 1.5v0zM26.707 14.707c-0.181 0.181-0.431 0.293-0.707 0.293h-12c-0.552 0-1-0.448-1-1v0-4c0-0.552 0.448-1 1-1v0h12c0.552 0 1 0.448 1 1v0 4c-0 0.276-0.112 0.526-0.293 0.707v0z"></path>
</svg>
