<!-- Generated by IcoMoon.io -->
<svg version="1.1" xmlns="http://www.w3.org/2000/svg" width="40" height="40" viewBox="0 0 40 40">
<title>io-chatbox-ellipses</title>
<path fill="#fff" d="M29.5 7h-19c-2.484 0.003-4.497 2.016-4.5 4.5v12c0.003 2.484 2.016 4.497 4.5 4.5h1.5v4c0 0 0 0 0 0 0 0.552 0.448 1 1 1 0.244 0 0.468-0.088 0.642-0.233l-0.002 0.001 5.718-4.768h10.141c2.484-0.003 4.497-2.016 4.5-4.5v-12c-0.003-2.484-2.016-4.497-4.5-4.5h-0zM14 19.5c-1.105 0-2-0.895-2-2s0.895-2 2-2c1.105 0 2 0.895 2 2v0c0 1.105-0.895 2-2 2v0zM20 19.5c-1.105 0-2-0.895-2-2s0.895-2 2-2c1.105 0 2 0.895 2 2v0c0 1.105-0.895 2-2 2v0zM26 19.5c-1.105 0-2-0.895-2-2s0.895-2 2-2c1.105 0 2 0.895 2 2v0c0 1.105-0.895 2-2 2v0z"></path>
</svg>
