<!-- Generated by IcoMoon.io -->
<svg version="1.1" xmlns="http://www.w3.org/2000/svg" width="40" height="40" viewBox="0 0 40 40">
<title>io-card</title>
<path fill="#fff" d="M6 27.5c0 1.933 1.567 3.5 3.5 3.5v0h21c1.933 0 3.5-1.567 3.5-3.5v0-9.625h-28zM10.125 22.75c0-1.036 0.839-1.875 1.875-1.875v0h3c1.036 0 1.875 0.839 1.875 1.875v0 1.25c0 1.036-0.839 1.875-1.875 1.875v0h-3c-1.036 0-1.875-0.839-1.875-1.875v0z"></path>
<path fill="#fff" d="M30.5 9h-21c-1.933 0-3.5 1.567-3.5 3.5v0 1.625h28v-1.625c0-1.933-1.567-3.5-3.5-3.5v0z"></path>
</svg>
