<!-- Generated by IcoMoon.io -->
<svg version="1.1" xmlns="http://www.w3.org/2000/svg" width="40" height="40" viewBox="0 0 40 40">
<title>io-construct-sharp</title>
<path fill="#fff" d="M35.071 10.961l-5.068 5.053-3.036-3.026 5.068-5.051c-2.826-1.375-6.791-1.381-9.137 0.959-2.208 2.2-2.483 5.663-1.409 8.388l-11.266 11.176c-0.136 0.136-0.221 0.324-0.221 0.531s0.084 0.395 0.221 0.531l3.267 3.257c0.136 0.136 0.324 0.221 0.531 0.221s0.395-0.084 0.531-0.221l0-0 11.25-11.281c2.698 1.013 6.125 0.727 8.296-1.438 2.344-2.341 2.339-6.271 0.973-9.1z"></path>
<path fill="#fff" d="M26.841 23.289l-4.489 4.5 4.721 4.995c0.124 0.132 0.3 0.214 0.495 0.214 0.189 0 0.359-0.077 0.483-0.201l0-0 3.75-3.779c0.123-0.124 0.198-0.295 0.198-0.483 0-0.196-0.082-0.372-0.213-0.497l-0-0z"></path>
<path fill="#fff" d="M11.438 17.25c0-0.304-0.25-0.583-0.466-0.799l-0.016-0.015-0.096-0.092c-0.010-0.012-0.017-0.027-0.017-0.044 0-0.002 0-0.004 0-0.006l-0 0c0.143-0.082 0.313-0.13 0.496-0.13 0.035 0 0.070 0.002 0.104 0.005l-0.004-0c0.079 0.008 0.369 0.056 0.775 0.307 0.211 0.131 2.039 1.889 2.746 2.544-0.118 0.123-0.191 0.291-0.191 0.475 0 0.189 0.076 0.36 0.199 0.484l-0-0 0.464 0.491 4.104-4.073-0.516-0.49c-0.123-0.123-0.293-0.199-0.48-0.199-0.186 0-0.354 0.074-0.477 0.195l0-0c-1.438-1.543-1.813-2.216-1.938-2.653-0.276-0.967 0.259-1.75 0.875-2.25 0.365-0.289 1.118-0.505 1.813-0.563 0.058-0.004 0.126-0.006 0.194-0.006 0.188 0 0.372 0.016 0.551 0.046l-0.019-0.003c0.217 0.031 0.394 0.071 0.462 0.088 0.267 0.073 0.495 0.158 0.714 0.261l-0.026-0.011 0.75-1.188c-0.244-0.42-0.522-0.783-0.839-1.107l0.001 0.001c-0.099-0.104-0.207-0.211-0.324-0.319-0.486-0.447-1.75-1.2-3.412-1.2-0.002 0-0.005 0-0.008 0-1.006 0-1.965 0.203-2.838 0.569l0.048-0.018c-2.34 0.959-3.867 2.266-4.569 2.959l-0.004 0.004c-0.46 0.463-0.888 0.958-1.28 1.483l-0.026 0.036c-0.334 0.471-0.298 0.99-0.274 1.334 0 0.020 0 0.042 0.004 0.063-0.187-0.136-0.421-0.218-0.674-0.219h-0c-0.002-0-0.005-0-0.008-0-0.312 0-0.595 0.127-0.799 0.333l-0 0-2.313 2.306c-0.077 0.077-0.124 0.183-0.124 0.3s0.047 0.223 0.124 0.3v0l3.938 3.924c0.076 0.076 0.181 0.123 0.297 0.123s0.221-0.047 0.297-0.123l2.316-2.312c0.215-0.215 0.465-0.509 0.465-0.813z"></path>
</svg>
