<!-- Generated by IcoMoon.io -->
<svg version="1.1" xmlns="http://www.w3.org/2000/svg" width="40" height="40" viewBox="0 0 40 40">
<title>io-construct</title>
<path fill="#fff" d="M35.474 11.887c-0.175-0.354-0.533-0.593-0.947-0.593-0.291 0-0.554 0.118-0.745 0.308l-3.197 3.197c-0.126 0.124-0.299 0.201-0.489 0.201s-0.364-0.077-0.489-0.201l-1.405-1.405c-0.124-0.126-0.201-0.299-0.201-0.49s0.077-0.364 0.201-0.49l3.18-3.181c0.191-0.191 0.309-0.454 0.309-0.745 0-0.432-0.26-0.802-0.631-0.965l-0.007-0.003c-2.482-1.062-5.567-0.466-7.5 1.456-1.676 1.663-2.177 4.25-1.375 7.106 0.016 0.056 0.026 0.12 0.026 0.187 0 0.201-0.086 0.381-0.223 0.507l-0.001 0-10.806 10.041c-0.723 0.652-1.175 1.592-1.175 2.637 0 1.959 1.588 3.548 3.548 3.548 1.045 0 1.984-0.452 2.633-1.17l0.003-0.003 10.131-10.825c0.126-0.136 0.306-0.221 0.505-0.221 0.063 0 0.123 0.008 0.181 0.024l-0.005-0.001c2.813 0.75 5.375 0.25 7.027-1.375 0.95-0.938 1.613-2.261 1.868-3.732 0.239-1.387 0.088-2.777-0.415-3.813z"></path>
<path fill="#fff" d="M31.333 27.651c-0.871-0.724-2.733-2.4-4.629-4.139l-4.129 4.413c1.765 1.875 3.363 3.616 4.063 4.43l0.004 0.005c0.33 0.377 0.806 0.619 1.338 0.64l0.004 0h0.069c0.511-0.002 0.975-0.207 1.313-0.539l0.004-0.004 2.089-2.086c0.334-0.333 0.541-0.794 0.541-1.303 0-0.569-0.258-1.077-0.663-1.415l-0.003-0.002z"></path>
<path fill="#fff" d="M11.409 17.409c0-0.002 0-0.004 0-0.006 0-0.247-0.070-0.477-0.191-0.672l0.003 0.006c-0.017-0.026-0.027-0.058-0.027-0.092 0-0.095 0.077-0.172 0.173-0.172 0.006 0 0.013 0 0.019 0.001l-0.001-0h0.004c0.052 0.006 0.333 0.046 0.731 0.288 0.296 0.179 1.139 0.755 2.608 2.221-0.001 0.020-0.001 0.043-0.001 0.067 0 0.498 0.17 0.957 0.456 1.32l-0.004-0.005 4.139-3.847c-0.353-0.335-0.824-0.549-1.345-0.575l-0.005-0c-0.004-0.005-0.009-0.010-0.013-0.016l-0-0.001-0.041-0.043-1.534-2.115c-0.216-0.291-0.346-0.658-0.346-1.054 0-0.207 0.035-0.405 0.1-0.59l-0.004 0.012c0.147-0.416 0.402-0.763 0.731-1.018l0.005-0.004c0.356-0.276 1.158-0.608 1.84-0.664 0.082-0.007 0.177-0.011 0.273-0.011 0.24 0 0.473 0.026 0.699 0.074l-0.022-0.004c0.179 0.043 0.326 0.089 0.47 0.142l-0.028-0.009c0.037 0.014 0.082 0.028 0.128 0.038l0.006 0.001c0.065 0.015 0.14 0.024 0.216 0.024 0.552 0 1-0.448 1-1 0-0.222-0.072-0.427-0.194-0.593l0.002 0.003c-0.016-0.022-0.082-0.112-0.181-0.233-0.189-0.237-0.385-0.448-0.596-0.644l-0.004-0.003c-0.509-0.46-1.829-1.236-3.562-1.236-0.002 0-0.004 0-0.006 0-1.041 0-2.034 0.207-2.939 0.581l0.051-0.019c-2.398 0.966-3.967 2.286-4.688 2.987l-0.006 0.006c-0.476 0.47-0.916 0.972-1.319 1.504l-0.025 0.035c-0.149 0.207-0.253 0.456-0.293 0.726l-0.001 0.009c-0.036 0.22-0.225 0.387-0.453 0.387-0.010 0-0.021-0-0.031-0.001l0.001 0c-0.022 0-0.046 0-0.068 0-0.003-0-0.006-0-0.009-0-0.352 0-0.671 0.141-0.904 0.369l0-0-1.861 1.814c-0.226 0.234-0.365 0.554-0.365 0.905 0 0.344 0.133 0.657 0.351 0.89l-0.001-0.001c0.012 0.012 0.023 0.024 0.036 0.036l2.969 2.896c0.236 0.231 0.559 0.374 0.915 0.375h0c0.003 0 0.006 0 0.009 0 0.352 0 0.671-0.141 0.904-0.369l1.841-1.799c0.238-0.233 0.386-0.557 0.386-0.916 0-0.002 0-0.004 0-0.006v0z"></path>
</svg>
