<!-- Generated by IcoMoon.io -->
<svg version="1.1" xmlns="http://www.w3.org/2000/svg" width="40" height="40" viewBox="0 0 40 40">
<title>io-desktop-outline</title>
<path fill="none" stroke-linejoin="round" stroke-linecap="butt" stroke-miterlimit="4" stroke-width="2.5" stroke="#fff" d="M8 8h24c1.105 0 2 0.895 2 2v16c0 1.105-0.895 2-2 2h-24c-1.105 0-2-0.895-2-2v-16c0-1.105 0.895-2 2-2z"></path>
<path stroke-linejoin="round" stroke-linecap="round" stroke-miterlimit="4" stroke-width="2.5" stroke="#fff" fill="#fff" d="M23 32l-0.5-4h-5l-0.5 4h6z"></path>
<path fill="none" stroke-linejoin="round" stroke-linecap="round" stroke-miterlimit="4" stroke-width="2.5" stroke="#fff" d="M27 32h-14"></path>
<path fill="#fff" d="M6 23v3c0.003 1.103 0.897 1.997 2 2h24c1.103-0.003 1.997-0.897 2-2v-3zM20 27c-0.552 0-1-0.448-1-1s0.448-1 1-1c0.552 0 1 0.448 1 1v0c0 0.552-0.448 1-1 1v0z"></path>
</svg>
