<!-- Generated by IcoMoon.io -->
<svg version="1.1" xmlns="http://www.w3.org/2000/svg" width="40" height="40" viewBox="0 0 40 40">
<title>io-ear</title>
<path fill="#fff" d="M20 5c-6.063 0-11 4.938-11 11v12.911c0 0.001 0 0.003 0 0.004 0 1.666 0.668 3.176 1.751 4.277l-0.001-0.001c1.075 1.115 2.582 1.808 4.25 1.809h0c2.304 0 4.199-0.976 5.633-2.901 0.28-0.375 0.597-0.921 0.964-1.553 0.957-1.648 2.268-3.904 3.948-5.046 1.611-1.094 2.952-2.471 3.875-3.982 1.050-1.708 1.581-3.564 1.581-5.517 0-6.063-4.934-11-11-11zM26 16.5c-0.552 0-1-0.448-1-1v0c0-2.481-2.243-4.5-5-4.5s-5 2.019-5 4.5v1.901c1.699-0.49 3.65-0.42 4.018-0.401 1.645 0.016 2.971 1.353 2.971 3 0 0.654-0.209 1.26-0.565 1.753l0.006-0.009c-0.019 0.026-0.038 0.051-0.059 0.075-1.034 1.188-2.25 2.843-2.404 3.438-0.123 0.422-0.507 0.725-0.961 0.725-0.552 0-1-0.448-1-1 0-0.083 0.010-0.164 0.029-0.241l-0.001 0.007c0.344-1.309 2.308-3.638 2.791-4.197 0.104-0.155 0.165-0.346 0.165-0.551 0-0.552-0.448-1-1-1-0 0-0.001 0-0.001 0h-0.055c-1.038-0.056-2.868 0.050-3.934 0.519v3.481c0 0.552-0.448 1-1 1s-1-0.448-1-1v0-7.5c0-3.584 3.14-6.5 7-6.5s7 2.916 7 6.5c0 0.552-0.448 1-1 1v0z"></path>
</svg>
