<!-- Generated by IcoMoon.io -->
<svg version="1.1" xmlns="http://www.w3.org/2000/svg" width="40" height="40" viewBox="0 0 40 40">
<title>io-ear-sharp</title>
<path fill="#fff" d="M27.78 8.256c-2.087-2.099-4.85-3.256-7.78-3.256-6.063 0-11 4.938-11 11v12.911c0 0.001 0 0.003 0 0.004 0 1.666 0.668 3.176 1.751 4.277l-0.001-0.001c1.075 1.115 2.582 1.808 4.25 1.809h0c1.246 0 2.566-0.481 3.925-1.429 0.603-0.422 1.132-0.871 1.616-1.365l0.002-0.002c3.918-3.819 10.457-10.201 10.457-16.204 0-2.906-1.143-5.656-3.22-7.744zM27 16.5h-2v-1c0-2.481-2.243-4.5-5-4.5s-5 2.019-5 4.5v1.901c1.719-0.49 3.743-0.414 4.016-0.401 1.645 0.015 2.973 1.353 2.973 3 0 0.654-0.209 1.26-0.565 1.753l0.006-0.009c-0.019 0.026-0.038 0.051-0.059 0.075-1.034 1.188-2.25 2.843-2.404 3.438l-0.254 0.967-1.934-0.509 0.254-0.967c0.344-1.309 2.308-3.637 2.791-4.197 0.104-0.155 0.165-0.346 0.165-0.551 0-0.552-0.448-1-1-1-0 0-0.001 0-0.001 0h-0.055c-0.667-0.036-2.666-0.016-3.882 0.5l-0.051 0.022v4.478h-2v-8.5c0-3.584 3.14-6.5 7-6.5s7 2.916 7 6.5z"></path>
</svg>
