<!-- Generated by IcoMoon.io -->
<svg version="1.1" xmlns="http://www.w3.org/2000/svg" width="40" height="40" viewBox="0 0 40 40">
<title>io-eye-off</title>
<path fill="#fff" d="M31 32c-0 0-0.001 0-0.002 0-0.276 0-0.525-0.112-0.705-0.293l-22-22c-0.17-0.179-0.275-0.422-0.275-0.689 0-0.552 0.448-1 1-1 0.267 0 0.51 0.105 0.689 0.275l22 22c0.181 0.181 0.293 0.431 0.293 0.707 0 0.552-0.447 1-0.999 1h-0z"></path>
<path fill="#fff" d="M19.5 23.741l-3.237-3.237c-0.023-0.022-0.054-0.036-0.088-0.036-0.069 0-0.125 0.056-0.125 0.125 0 0.006 0 0.012 0.001 0.018l-0-0.001c0.276 1.724 1.619 3.067 3.32 3.34l0.023 0.003c0.005 0.001 0.011 0.001 0.017 0.001 0.069 0 0.125-0.056 0.125-0.125 0-0.034-0.014-0.065-0.036-0.088v0z"></path>
<path fill="#fff" d="M20.5 16.259l3.242 3.241c0.023 0.023 0.054 0.037 0.089 0.037 0.069 0 0.125-0.056 0.125-0.125 0-0.006-0-0.012-0.001-0.018l0 0.001c-0.275-1.726-1.62-3.072-3.324-3.344l-0.023-0.003c-0.006-0.001-0.012-0.001-0.019-0.001-0.069 0-0.125 0.056-0.125 0.125 0 0.034 0.014 0.066 0.037 0.088v0z"></path>
<path fill="#fff" d="M34.688 21.085c0.198-0.306 0.315-0.68 0.315-1.081 0-0.405-0.12-0.783-0.326-1.099l0.005 0.008c-1.654-2.558-3.799-4.73-6.204-6.283-2.664-1.72-5.602-2.629-8.497-2.629-1.607 0.002-3.15 0.272-4.588 0.767l0.1-0.030c-0.1 0.034-0.171 0.127-0.171 0.237 0 0.069 0.028 0.132 0.074 0.177v0l2.953 2.952c0.045 0.045 0.108 0.073 0.177 0.073 0.022 0 0.043-0.003 0.064-0.008l-0.002 0c0.427-0.108 0.916-0.171 1.421-0.171 3.314 0 6 2.686 6 6 0 0.504-0.062 0.994-0.179 1.462l0.009-0.041c-0.005 0.018-0.008 0.040-0.008 0.061 0 0.069 0.028 0.132 0.073 0.177v0l4.247 4.25c0.045 0.045 0.108 0.073 0.177 0.073 0.061 0 0.117-0.022 0.161-0.059l-0 0c1.622-1.388 3.013-2.981 4.151-4.752l0.051-0.085z"></path>
<path fill="#fff" d="M20 26c-0 0-0 0-0 0-3.314 0-6-2.686-6-6 0-0.502 0.062-0.99 0.178-1.456l-0.009 0.041c0.005-0.018 0.008-0.040 0.008-0.061 0-0.069-0.028-0.132-0.073-0.177l-4.178-4.179c-0.045-0.045-0.108-0.073-0.177-0.073-0.062 0-0.118 0.022-0.162 0.059l0-0c-1.524 1.301-2.938 2.883-4.229 4.732-0.224 0.318-0.358 0.714-0.358 1.14 0 0.402 0.119 0.775 0.323 1.088l-0.005-0.008c1.651 2.583 3.774 4.759 6.143 6.291 2.668 1.727 5.534 2.602 8.519 2.602 1.624-0.004 3.185-0.268 4.645-0.752l-0.105 0.030c0.102-0.033 0.174-0.127 0.174-0.238 0-0.069-0.028-0.132-0.073-0.177l-2.967-2.966c-0.045-0.045-0.108-0.073-0.177-0.073-0.022 0-0.043 0.003-0.063 0.008l0.002-0c-0.424 0.107-0.911 0.169-1.413 0.169-0.001 0-0.002 0-0.003 0h0z"></path>
</svg>
