<!-- Generated by IcoMoon.io -->
<svg version="1.1" xmlns="http://www.w3.org/2000/svg" width="40" height="40" viewBox="0 0 40 40">
<title>io-eyedrop</title>
<path fill="#fff" d="M32.816 7.188c-0.732-0.731-1.741-1.184-2.856-1.188h-0.048c-1.091 0.008-2.074 0.468-2.771 1.201l-0.002 0.002c-0.023 0.024-0.045 0.049-0.065 0.076l-0.001 0.002-3.375 4.36c-0.351 0.444-0.796 0.542-1.049 0.29l-0.119-0.119c-0.543-0.543-1.294-0.879-2.122-0.879-1.658 0-3.002 1.344-3.002 3.002 0 0.829 0.336 1.579 0.879 2.123l0.619 0.619c0.023 0.023 0.037 0.054 0.037 0.088s-0.014 0.066-0.037 0.088v0l-11.235 11.232c-0.294 0.292-0.737 0.904-1.241 2.851-0.254 0.982-0.407 1.854-0.413 1.89-0.010 0.052-0.015 0.112-0.015 0.172 0 0.552 0.448 1 1 1v0c0 0 0.001 0 0.001 0 0.058 0 0.114-0.005 0.169-0.015l-0.006 0.001c0.036-0.006 0.902-0.152 1.883-0.402 1.942-0.496 2.566-0.953 2.866-1.25l11.236-11.237c0.023-0.022 0.054-0.036 0.088-0.036s0.066 0.014 0.088 0.036v0l0.62 0.62c0.543 0.543 1.294 0.879 2.123 0.879 1.658 0 3.002-1.344 3.002-3.002 0-0.829-0.336-1.58-0.879-2.123v0l-0.099-0.096c-0.313-0.313-0.158-0.757 0.27-1.071l4.359-3.371c0.033-0.027 0.063-0.054 0.092-0.082l0-0c0.731-0.715 1.184-1.711 1.188-2.812v-0.001c0-0.004 0-0.008 0-0.012 0-1.11-0.453-2.114-1.184-2.838l-0-0zM19.674 21.744c-0.183 0.183-1.011 0.495-1.462 0.044s-0.14-1.276 0.043-1.459l2.063-2.063c0.023-0.023 0.054-0.037 0.088-0.037s0.066 0.014 0.088 0.037v0l1.24 1.239c0.023 0.023 0.037 0.054 0.037 0.088s-0.014 0.066-0.037 0.088v0z"></path>
</svg>
