<!-- Generated by IcoMoon.io -->
<svg version="1.1" xmlns="http://www.w3.org/2000/svg" width="40" height="40" viewBox="0 0 40 40">
<title>io-flower</title>
<path fill="#fff" d="M23 20c0 1.657-1.343 3-3 3s-3-1.343-3-3c0-1.657 1.343-3 3-3s3 1.343 3 3z"></path>
<path fill="#fff" d="M33.746 22.994c0.778-0.766 1.26-1.83 1.26-3.007 0-2.264-1.783-4.111-4.022-4.214l-0.009-0c-0.129-0.006-0.238-0.086-0.285-0.199l-0.001-0.002c-0.015-0.036-0.024-0.079-0.024-0.123 0-0.086 0.033-0.163 0.087-0.221l-0 0c0.679-0.749 1.095-1.748 1.095-2.844 0-2.335-1.888-4.229-4.22-4.239h-0.017c-0 0-0 0-0.001 0-1.095 0-2.093 0.42-2.84 1.107l0.003-0.003c-0.058 0.054-0.136 0.087-0.221 0.087-0.045 0-0.087-0.009-0.126-0.025l0.002 0.001c-0.115-0.048-0.195-0.157-0.201-0.285l-0-0.001c-0.102-2.255-1.955-4.045-4.226-4.045s-4.124 1.79-4.226 4.036l-0 0.009c-0.006 0.129-0.086 0.238-0.199 0.285l-0.002 0.001c-0.037 0.015-0.079 0.024-0.124 0.024-0.086 0-0.164-0.033-0.222-0.087l0 0c-0.744-0.685-1.742-1.106-2.838-1.106-0.001 0-0.002 0-0.002 0h-0.013c-2.331 0.017-4.215 1.911-4.215 4.244 0 1.094 0.414 2.091 1.093 2.843l-0.003-0.004c0.054 0.058 0.087 0.136 0.087 0.221 0 0.044-0.009 0.087-0.025 0.125l0.001-0.002c-0.048 0.115-0.157 0.195-0.286 0.201l-0.001 0c-2.239 0.122-4.008 1.968-4.008 4.226s1.769 4.104 3.997 4.225l0.011 0c0.129 0.006 0.238 0.087 0.285 0.2l0.001 0.002c0.015 0.036 0.024 0.079 0.024 0.123 0 0.086-0.033 0.164-0.087 0.222l0-0c-0.682 0.747-1.099 1.745-1.099 2.841 0 2.331 1.89 4.221 4.221 4.221 0.003 0 0.006 0 0.009 0h0.015c0.003 0 0.008 0 0.012 0 1.087 0 2.077-0.412 2.824-1.088l-0.004 0.003c0.058-0.054 0.136-0.087 0.221-0.087 0.044 0 0.087 0.009 0.125 0.025l-0.002-0.001c0.115 0.048 0.195 0.157 0.201 0.286l0 0.001c0.122 2.239 1.968 4.008 4.226 4.008s4.104-1.769 4.225-3.997l0-0.011c0.006-0.129 0.087-0.238 0.199-0.285l0.002-0.001c0.036-0.015 0.079-0.024 0.123-0.024 0.086 0 0.163 0.033 0.221 0.087l-0-0c0.744 0.675 1.737 1.089 2.826 1.089 0.002 0 0.003 0 0.005 0h0.015c0.005 0 0.011 0 0.017 0 2.329 0 4.218-1.888 4.218-4.217 0-1.098-0.419-2.098-1.107-2.848l0.003 0.003c-0.054-0.058-0.087-0.136-0.087-0.222 0-0.044 0.009-0.087 0.025-0.126l-0.001 0.002c0.048-0.115 0.157-0.195 0.285-0.201l0.001-0c1.089-0.056 2.061-0.517 2.775-1.235l0-0zM20 25c-2.761 0-5-2.239-5-5s2.239-5 5-5c2.761 0 5 2.239 5 5v0c-0.003 2.76-2.24 4.997-5 5h-0z"></path>
</svg>
