<!-- Generated by IcoMoon.io -->
<svg version="1.1" xmlns="http://www.w3.org/2000/svg" width="40" height="40" viewBox="0 0 40 40">
<title>io-flag-sharp</title>
<path fill="#fff" d="M10.375 34h-2.375v-26.414l0.293-0.293c0.216-0.216 1.506-1.293 5.707-1.293 2.326 0 4.927 0.919 7.222 1.73 1.848 0.653 3.594 1.27 4.778 1.27 2.677 0 4.545-0.891 4.562-0.9l1.438-0.696v16.214l-0.553 0.276c-0.091 0.043-2.248 1.106-5.447 1.106-1.509 0-3.399-0.446-5.399-0.919-2.249-0.531-4.574-1.081-6.601-1.081-2.304 0-3.109 0.349-3.625 0.569z"></path>
</svg>
