<!-- Generated by IcoMoon.io -->
<svg version="1.1" xmlns="http://www.w3.org/2000/svg" width="40" height="40" viewBox="0 0 40 40">
<title>io-funnel</title>
<path fill="#fff" d="M22.5 33c-0.169-0-0.331-0.028-0.482-0.080l0.011 0.003-5.009-1.667c-0.597-0.205-1.019-0.762-1.019-1.417 0-0.002 0-0.005 0-0.007v0-7.451c-0.001-0.003-0.003-0.006-0.006-0.008v0l-10.541-12.277c-0.281-0.326-0.452-0.754-0.452-1.221 0-1.036 0.839-1.875 1.875-1.875 0.001 0 0.001 0 0.002 0h26.247c0.001 0 0.001 0 0.002 0 1.036 0 1.875 0.839 1.875 1.875 0 0.468-0.171 0.895-0.454 1.224l0.002-0.002-10.544 12.279c-0.002 0.002-0.004 0.005-0.006 0.008l-0 0v9.117c0 0.001 0 0.003 0 0.004 0 0.826-0.67 1.496-1.496 1.496-0.002 0-0.003 0-0.005 0h0z"></path>
</svg>
