<!-- Generated by IcoMoon.io -->
<svg version="1.1" xmlns="http://www.w3.org/2000/svg" width="40" height="40" viewBox="0 0 40 40">
<title>io-flame-sharp</title>
<path fill="#fff" d="M28.64 16.348c-0.828-2.163-1.956-4.027-3.357-5.649l0.020 0.024c-2.479-2.869-6.304-4.723-9.304-4.723 1.187 4.375-0.897 7.32-2.799 10.236-1.576 2.412-3.201 4.906-3.201 7.764 0 5.514 4.486 10 10 10s10-4.486 10-10c0-2.706-0.457-5.281-1.36-7.652zM22.021 30.168c-0.646 0.688-1.455 0.832-2.021 0.832s-1.375-0.144-2.021-0.832-0.979-1.778-0.979-3.168c0-1.571 0.551-2.767 1.084-3.924 0.405-0.879 0.916-1.701 0.944-2.781 0.706 0.367 1.479 1.057 2.159 1.955 1.136 1.5 1.812 3.276 1.812 4.75 0.001 1.389-0.338 2.485-0.979 3.168z"></path>
</svg>
