<!-- Generated by IcoMoon.io -->
<svg version="1.1" xmlns="http://www.w3.org/2000/svg" width="40" height="40" viewBox="0 0 40 40">
<title>io-finger-print-outline</title>
<path fill="#fff" d="M28.401 8.705c-0.001 0-0.001 0-0.002 0-0.122 0-0.236-0.033-0.334-0.092l0.003 0.002c-2.774-1.485-5.172-2.115-8.047-2.115-2.861 0-5.577 0.705-8.047 2.115-0.349 0.197-0.78 0.060-0.982-0.303-0.054-0.103-0.086-0.226-0.086-0.356 0-0.281 0.149-0.526 0.372-0.662l0.003-0.002c2.498-1.442 5.494-2.293 8.689-2.293 0.018 0 0.036 0 0.054 0h-0.003c3.077 0 5.764 0.705 8.712 2.28 0.233 0.13 0.389 0.376 0.389 0.657 0 0.127-0.032 0.247-0.087 0.352l0.002-0.004c-0.111 0.246-0.353 0.416-0.635 0.42h-0.001zM7.727 16.58c-0.157-0.001-0.302-0.052-0.421-0.136l0.002 0.001c-0.189-0.141-0.309-0.364-0.309-0.615 0-0.163 0.051-0.313 0.137-0.438l-0.002 0.003c1.431-2.1 3.25-3.75 5.418-4.905 4.536-2.427 10.344-2.445 14.895-0.015 2.167 1.155 3.988 2.79 5.418 4.875 0.084 0.122 0.135 0.272 0.135 0.435 0 0.251-0.12 0.474-0.307 0.614l-0.002 0.001c-0.116 0.087-0.263 0.14-0.421 0.14-0.246 0-0.462-0.126-0.588-0.317l-0.002-0.003c-1.3-1.89-2.947-3.375-4.897-4.41-4.146-2.205-9.449-2.205-13.581 0.015-1.965 1.050-3.612 2.55-4.912 4.437-0.109 0.191-0.312 0.318-0.544 0.318-0.007 0-0.014-0-0.020-0l0.001 0zM16.756 34.688c-0.002 0-0.004 0-0.006 0-0.198 0-0.377-0.087-0.499-0.224l-0.001-0.001c-1.257-1.308-1.938-2.15-2.904-3.962-1-1.845-1.517-4.095-1.517-6.51 0-4.455 3.669-8.085 8.178-8.085s8.18 3.63 8.18 8.085c0 0.006 0 0.014 0 0.021 0 0.399-0.323 0.723-0.723 0.723s-0.723-0.323-0.723-0.723c0-0.007 0-0.015 0-0.022l-0 0.001c0-3.63-3.020-6.585-6.733-6.585s-6.736 2.955-6.736 6.585c0 2.16 0.462 4.155 1.343 5.775 0.925 1.725 1.563 2.46 2.673 3.63 0.127 0.14 0.205 0.326 0.205 0.531s-0.078 0.391-0.205 0.532l0.001-0.001c-0.137 0.138-0.325 0.225-0.534 0.23l-0.001 0zM27.116 31.913c-1.719 0-3.236-0.45-4.479-1.335-2.084-1.474-3.43-3.872-3.438-6.584v-0.001c-0-0.009-0.001-0.019-0.001-0.030 0-0.399 0.324-0.723 0.723-0.723s0.723 0.324 0.723 0.723c0 0.011-0 0.021-0.001 0.032l0-0.001c0.005 2.204 1.104 4.15 2.782 5.326l0.021 0.014c1.026 0.72 2.225 1.063 3.67 1.063 0.537-0.010 1.054-0.064 1.557-0.159l-0.057 0.009c0.39-0.075 0.766 0.195 0.838 0.615 0.008 0.042 0.013 0.089 0.013 0.138 0 0.362-0.258 0.663-0.6 0.731l-0.005 0.001c-0.522 0.108-1.125 0.173-1.742 0.18l-0.005 0zM24.211 35c-0.068-0.003-0.132-0.014-0.193-0.031l0.006 0.001c-2.297-0.66-3.8-1.545-5.375-3.15-2.023-2.085-3.135-4.86-3.135-7.83 0-2.43 1.994-4.41 4.449-4.41s4.45 1.98 4.45 4.41c0 1.605 1.344 2.91 3.005 2.91s3.005-1.305 3.005-2.91c0-5.655-4.696-10.245-10.474-10.245-4.103 0-7.859 2.37-9.549 6.045-0.563 1.215-0.852 2.64-0.852 4.2 0 1.17 0.101 3.015 0.968 5.415 0.145 0.39-0.043 0.825-0.419 0.96-0.075 0.029-0.162 0.046-0.252 0.046-0.311 0-0.575-0.2-0.671-0.479l-0.001-0.005c-0.667-1.765-1.054-3.806-1.055-5.937v-0c0-1.8 0.332-3.438 0.982-4.86 1.922-4.188 6.184-6.9 10.85-6.9 6.574 0 11.919 5.265 11.919 11.745 0 2.43-1.994 4.41-4.45 4.41s-4.45-1.98-4.45-4.41c0.001-1.605-1.343-2.912-3.004-2.912s-3.005 1.305-3.005 2.91c0 2.563 0.954 4.965 2.702 6.765 1.375 1.41 2.687 2.188 4.724 2.775 0.39 0.105 0.607 0.525 0.506 0.915-0.066 0.323-0.343 0.563-0.678 0.572l-0.001 0z"></path>
</svg>
