<!-- Generated by IcoMoon.io -->
<svg version="1.1" xmlns="http://www.w3.org/2000/svg" width="40" height="40" viewBox="0 0 40 40">
<title>io-flash-outline</title>
<path fill="none" stroke-linejoin="round" stroke-linecap="round" stroke-miterlimit="4" stroke-width="2.5" stroke="#fff" d="M23.704 6.063l-13.704 16.938h8l-1.969 10.827c-0.001 0.008-0.002 0.017-0.002 0.026 0 0.081 0.066 0.147 0.148 0.147 0 0 0 0 0 0h-0c0.048-0 0.091-0.023 0.118-0.059l0-0 13.706-16.941h-8l1.979-10.828c0.001-0.006 0.001-0.012 0.001-0.019 0-0.085-0.069-0.153-0.153-0.153-0 0-0 0-0.001 0h0c-0.050 0-0.094 0.025-0.122 0.062l-0 0z"></path>
</svg>
