<!-- Generated by IcoMoon.io -->
<svg version="1.1" xmlns="http://www.w3.org/2000/svg" width="40" height="40" viewBox="0 0 40 40">
<title>io-flashlight-sharp</title>
<path fill="#fff" d="M24.625 5l-2.668 2.669 10.374 10.374 2.669-2.668-10.375-10.375z"></path>
<path fill="#fff" d="M30.826 19.241l-10.076-10.079-1.147 5.338-14.603 14.625 5.875 5.875 14.639-14.612zM19.013 22.745c-0.231 0.282-0.579 0.461-0.969 0.461-0.69 0-1.25-0.56-1.25-1.25s0.56-1.25 1.25-1.25c0.39 0 0.738 0.179 0.968 0.459l0.002 0.002c0.174 0.213 0.28 0.488 0.28 0.788s-0.106 0.576-0.283 0.792l0.002-0.002z"></path>
</svg>
