<!-- Generated by IcoMoon.io -->
<svg version="1.1" xmlns="http://www.w3.org/2000/svg" width="40" height="40" viewBox="0 0 40 40">
<title>io-flashlight-outline</title>
<path fill="none" stroke-linejoin="miter" stroke-linecap="butt" stroke-miterlimit="10" stroke-width="2.5" stroke="#fff" d="M32.54 14.179l-6.72-6.719c-0.822-0.821-1.793-0.448-2.614 0.375l-0.747 0.75c-1.633 1.633-1.726 3.649-1.839 5.207-0.056 0.765-0.611 1.722-1.157 2.267l-11.803 11.795c-1.022 1.021-0.793 2.464 0.233 3.49l0.761 0.761c1.022 1.022 2.464 1.26 3.491 0.234l11.802-11.8c0.546-0.546 1.5-1.097 2.268-1.157 1.554-0.116 3.664-0.303 5.204-1.843l0.746-0.746c0.822-0.821 1.195-1.792 0.374-2.613z"></path>
<path fill="#fff" d="M19.293 21.955c0 0.69-0.56 1.25-1.25 1.25s-1.25-0.56-1.25-1.25c0-0.69 0.56-1.25 1.25-1.25s1.25 0.56 1.25 1.25z"></path>
<path fill="none" stroke-linejoin="miter" stroke-linecap="round" stroke-miterlimit="10" stroke-width="2.5" stroke="#fff" d="M22.063 9.063l8.875 8.875"></path>
</svg>
