<!-- Generated by IcoMoon.io -->
<svg version="1.1" xmlns="http://www.w3.org/2000/svg" width="40" height="40" viewBox="0 0 40 40">
<title>io-git-pull-request</title>
<path fill="#fff" d="M16 10c0-0.001 0-0.001 0-0.002 0-2.209-1.791-4-4-4s-4 1.791-4 4c0 1.473 0.796 2.76 1.981 3.454l0.019 0.010v13.076c-1.204 0.704-2 1.991-2 3.464 0 2.209 1.791 4 4 4s4-1.791 4-4c0-1.473-0.796-2.76-1.981-3.454l-0.019-0.010v-13.076c1.203-0.704 1.999-1.99 2-3.462v-0zM12 8c1.105 0 2 0.895 2 2s-0.895 2-2 2c-1.105 0-2-0.895-2-2v0c0-1.105 0.895-2 2-2v0zM12 32c-1.105 0-2-0.895-2-2s0.895-2 2-2c1.105 0 2 0.895 2 2v0c0 1.105-0.895 2-2 2v0z"></path>
<path fill="#fff" d="M30 26.538v-12.788c-0.004-3.174-2.576-5.746-5.75-5.75h-1.25v-2c-0-0.552-0.448-1-1-1-0.276 0-0.526 0.112-0.707 0.293l-4 4c-0.181 0.181-0.293 0.431-0.293 0.707s0.112 0.526 0.293 0.707l4 4c0.181 0.181 0.431 0.293 0.707 0.293 0.552 0 1-0.447 1-0.999v-2h1.25c0.966 0 1.75 0.784 1.75 1.75v0 12.788c-1.204 0.704-2 1.991-2 3.464 0 2.209 1.791 4 4 4s4-1.791 4-4c0-1.473-0.796-2.76-1.981-3.454l-0.019-0.010zM28 32c-1.105 0-2-0.895-2-2s0.895-2 2-2c1.105 0 2 0.895 2 2v0c0 1.105-0.895 2-2 2v0z"></path>
</svg>
