<!-- Generated by IcoMoon.io -->
<svg version="1.1" xmlns="http://www.w3.org/2000/svg" width="40" height="40" viewBox="0 0 40 40">
<title>io-golf</title>
<path fill="#fff" d="M21 24.029v-7.385l10.414-4.733c0.349-0.161 0.587-0.508 0.587-0.911s-0.238-0.749-0.581-0.908l-0.006-0.003-11-5c-0.121-0.057-0.264-0.090-0.414-0.090-0.552 0-1 0.448-1 1 0 0 0 0 0 0v0 9.979c0 0.014 0 0.029 0 0.044v8.006q0.5-0.028 1-0.029t1 0.029z"></path>
<path fill="#fff" d="M32.958 32.594c-0.535-2.678-2.194-4.921-4.799-6.488-2.031-1.222-4.542-1.956-7.159-2.106v4.984c0 0.552-0.448 1-1 1s-1-0.448-1-1v0-4.984c-2.617 0.15-5.128 0.884-7.159 2.106-2.604 1.566-4.264 3.809-4.799 6.488-0.028 0.127-0.044 0.272-0.044 0.422 0 0.483 0.168 0.926 0.45 1.275l-0.003-0.004c0.376 0.464 0.931 0.714 1.556 0.714h22c0.625 0 1.18-0.253 1.556-0.714 0.278-0.344 0.446-0.788 0.446-1.27 0-0.15-0.016-0.295-0.047-0.436l0.002 0.013z"></path>
</svg>
