<!-- Generated by IcoMoon.io -->
<svg version="1.1" xmlns="http://www.w3.org/2000/svg" width="40" height="40" viewBox="0 0 40 40">
<title>io-hourglass-outline</title>
<path fill="none" stroke-linejoin="round" stroke-linecap="round" stroke-miterlimit="4" stroke-width="2.5" stroke="#fff" d="M13.101 33h13.799c1.238 0 2.222-1.018 2.089-2.191-0.859-7.559-5.988-7.434-5.988-10.809s5.194-3.187 5.987-10.809c0.125-1.174-0.851-2.191-2.088-2.191h-13.799c-1.238 0-2.211 1.018-2.088 2.191 0.793 7.621 5.988 7.371 5.988 10.809s-5.129 3.25-5.987 10.809c-0.134 1.173 0.851 2.191 2.088 2.191z"></path>
<path fill="#fff" d="M25.456 31h-10.886c-0.975 0-1.25-1.125-0.566-1.822 1.655-1.677 4.996-2.879 4.996-4.802v-6.375c0-1.241-2.375-2.187-3.844-4.2-0.243-0.332-0.218-0.8 0.398-0.8h8.921c0.526 0 0.639 0.464 0.4 0.797-1.448 2.016-3.874 2.956-3.874 4.203v6.375c0 1.908 3.482 2.938 5.025 4.804 0.622 0.752 0.404 1.821-0.569 1.821z"></path>
</svg>
