<!-- Generated by IcoMoon.io -->
<svg version="1.1" xmlns="http://www.w3.org/2000/svg" width="40" height="40" viewBox="0 0 40 40">
<title>io-headset-outline</title>
<path fill="none" stroke-linejoin="round" stroke-linecap="round" stroke-miterlimit="4" stroke-width="2.5" stroke="#fff" d="M9.188 28c-0.813-2.063-2.188-5.836-2.188-8 0-7.18 6.333-13 13-13s13 5.82 13 13c0 2.164-1.438 6.063-2.188 8"></path>
<path fill="none" stroke-linejoin="miter" stroke-linecap="butt" stroke-miterlimit="10" stroke-width="2.5" stroke="#fff" d="M10.774 20.883l-0.856 0.5c-1.889 1.106-1.981 4.526-0.211 7.637s4.742 4.738 6.631 3.633v0l0.856-0.5c0.297-0.179 0.493-0.501 0.493-0.868 0-0.184-0.049-0.356-0.135-0.504l0.003 0.005-5.431-9.536c-0.172-0.301-0.491-0.5-0.857-0.5-0.182 0-0.352 0.049-0.499 0.136l0.005-0.002z"></path>
<path fill="none" stroke-linejoin="miter" stroke-linecap="butt" stroke-miterlimit="10" stroke-width="2.5" stroke="#fff" d="M29.226 20.883l0.856 0.5c1.889 1.106 1.984 4.525 0.211 7.637s-4.742 4.738-6.631 3.633v0l-0.856-0.5c-0.297-0.179-0.493-0.501-0.493-0.868 0-0.184 0.049-0.356 0.135-0.504l-0.003 0.005 5.431-9.536c0.172-0.301 0.491-0.5 0.857-0.5 0.182 0 0.352 0.049 0.499 0.136l-0.005-0.002z"></path>
</svg>
