<!-- Generated by IcoMoon.io -->
<svg version="1.1" xmlns="http://www.w3.org/2000/svg" width="40" height="40" viewBox="0 0 40 40">
<title>io-hand-left</title>
<path fill="#fff" d="M31.050 17.215v0c-0.97-0.551-2.182-0.143-2.707 0.855l-2.586 5.276c-0.073 0.147-0.221 0.246-0.394 0.246-0.059 0-0.116-0.012-0.167-0.033l0.003 0.001c-0.163-0.066-0.276-0.223-0.276-0.406 0-0 0-0.001 0-0.001v0-14.652c0-0.869-0.803-1.5-1.673-1.5s-1.625 0.631-1.625 1.5v9.79c0 0.002 0 0.005 0 0.008 0 0.378-0.299 0.686-0.673 0.702l-0.001 0c-0.004 0-0.009 0-0.013 0-0.38 0-0.688-0.308-0.688-0.688 0-0 0-0 0-0v0-12.813c0-0.869-0.684-1.5-1.554-1.5s-1.571 0.631-1.571 1.5v12.79c0 0.002 0 0.005 0 0.008 0 0.378-0.299 0.686-0.673 0.702l-0.001 0c-0.004 0-0.009 0-0.013 0-0.38 0-0.688-0.308-0.688-0.688 0-0 0-0 0-0v0-10.813c0-0.869-0.755-1.5-1.625-1.5s-1.625 0.693-1.625 1.563v11.727c0 0.002 0 0.005 0 0.008 0 0.378-0.299 0.686-0.673 0.702l-0.001 0c-0.004 0-0.009 0-0.013 0-0.38 0-0.688-0.308-0.688-0.688 0-0 0-0 0-0v0-7.813c0-0.869-0.692-1.5-1.563-1.5s-1.57 0.639-1.562 1.5v13.5c0 7.338 4.5 11 10 11h1c5.5 0 7.232-2.475 8.5-5.5l4.294-10.563c0.414-1.125 0.225-2.172-0.744-2.723z"></path>
</svg>
