<!-- Generated by IcoMoon.io -->
<svg version="1.1" xmlns="http://www.w3.org/2000/svg" width="40" height="40" viewBox="0 0 40 40">
<title>io-help-circle-outline</title>
<path fill="none" stroke-linejoin="miter" stroke-linecap="butt" stroke-miterlimit="10" stroke-width="2.5" stroke="#fff" d="M20 9c-6.075 0-11 4.925-11 11s4.925 11 11 11c6.075 0 11-4.925 11-11v0c0-6.075-4.925-11-11-11v0z"></path>
<path fill="none" stroke-linejoin="miter" stroke-linecap="round" stroke-miterlimit="10" stroke-width="2.1875" stroke="#fff" d="M16.5 16.643s0.052-1.094 1.223-2.036c0.694-0.559 1.527-0.721 2.277-0.732 0.683-0.009 1.293 0.104 1.658 0.278 0.625 0.297 1.842 1.024 1.842 2.568 0 1.625-1.063 2.363-2.273 3.175s-1.539 1.693-1.539 2.604"></path>
<path fill="#fff" d="M20.875 25.75c0 0.69-0.56 1.25-1.25 1.25s-1.25-0.56-1.25-1.25c0-0.69 0.56-1.25 1.25-1.25s1.25 0.56 1.25 1.25z"></path>
</svg>
