<!-- Generated by IcoMoon.io -->
<svg version="1.1" xmlns="http://www.w3.org/2000/svg" width="40" height="40" viewBox="0 0 40 40">
<title>io-help-buoy-sharp</title>
<path fill="#fff" d="M20 6c-7.732 0-14 6.268-14 14s6.268 14 14 14 14-6.268 14-14-6.268-14-14-14zM16 20c0-2.209 1.791-4 4-4s4 1.791 4 4c0 2.209-1.791 4-4 4v0c-2.209 0-4-1.791-4-4v0zM30.828 16.107l-5.396 0.331c-0.497-0.747-1.119-1.369-1.842-1.851l-0.024-0.015 0.328-5.396c3.236 1.195 5.743 3.701 6.912 6.857l0.026 0.080zM11.868 11.868c1.165-1.169 2.581-2.088 4.159-2.67l0.079-0.026 0.331 5.396c-0.749 0.498-1.372 1.121-1.854 1.845l-0.015 0.024-5.396-0.328c0.607-1.659 1.526-3.076 2.695-4.242l0-0zM9.172 23.893l5.396-0.328c0.498 0.747 1.121 1.369 1.845 1.851l0.024 0.015-0.328 5.396c-3.236-1.194-5.742-3.7-6.912-6.854l-0.026-0.080zM28.132 28.132c-1.165 1.169-2.581 2.088-4.159 2.67l-0.079 0.026-0.328-5.396c0.747-0.497 1.369-1.119 1.851-1.842l0.015-0.024 5.396 0.328c-0.607 1.658-1.526 3.074-2.695 4.238l-0 0z"></path>
</svg>
