<!-- Generated by IcoMoon.io -->
<svg version="1.1" xmlns="http://www.w3.org/2000/svg" width="40" height="40" viewBox="0 0 40 40">
<title>io-hourglass</title>
<path fill="#fff" d="M29.981 30.696c-0.546-4.806-2.739-6.797-4.341-8.25-1.107-1.008-1.64-1.532-1.64-2.446 0-0.901 0.531-1.415 1.635-2.402 1.621-1.448 3.84-3.432 4.348-8.303 0.009-0.087 0.014-0.188 0.014-0.29 0-0.762-0.29-1.457-0.766-1.979l0.002 0.002c-0.577-0.633-1.405-1.029-2.326-1.029-0.003 0-0.005 0-0.008 0h-13.798c-0.003 0-0.006 0-0.010 0-0.921 0-1.749 0.396-2.325 1.026l-0.002 0.002c-0.472 0.52-0.761 1.213-0.761 1.974 0 0.103 0.005 0.205 0.016 0.305l-0.001-0.013c0.506 4.855 2.717 6.824 4.331 8.262 1.115 0.993 1.651 1.511 1.651 2.443 0 0.944-0.538 1.473-1.656 2.484-1.594 1.444-3.781 3.421-4.325 8.211-0.011 0.094-0.017 0.203-0.017 0.314 0 0.751 0.284 1.435 0.75 1.951l-0.002-0.003c0.579 0.641 1.414 1.042 2.342 1.042 0.003 0 0.006 0 0.009 0h13.798c0.003 0 0.006 0 0.009 0 0.928 0 1.762-0.401 2.339-1.039l0.002-0.003c0.464-0.514 0.748-1.198 0.748-1.949 0-0.111-0.006-0.22-0.018-0.327l0.001 0.013zM25.456 31h-10.886c-0.975 0-1.25-1.125-0.566-1.822 1.655-1.677 4.996-2.879 4.996-4.802v-6.375c0-1.241-2.375-2.187-3.844-4.2-0.243-0.332-0.218-0.8 0.398-0.8h8.921c0.526 0 0.639 0.464 0.4 0.797-1.448 2.016-3.874 2.956-3.874 4.203v6.375c0 1.908 3.482 2.938 5.025 4.804 0.622 0.752 0.404 1.821-0.569 1.821z"></path>
</svg>
