<!-- Generated by IcoMoon.io -->
<svg version="1.1" xmlns="http://www.w3.org/2000/svg" width="40" height="40" viewBox="0 0 40 40">
<title>io-image</title>
<path fill="#fff" d="M30 8h-20c-2.208 0.002-3.998 1.792-4 4v16c0.002 2.208 1.792 3.997 4 4h20c2.208-0.002 3.998-1.792 4-4v-16c-0.002-2.208-1.792-3.997-4-4h-0zM25 12c1.657 0 3 1.343 3 3s-1.343 3-3 3c-1.657 0-3-1.343-3-3v0c0.002-1.656 1.344-2.998 3-3h0zM10 30c-1.105 0-2-0.895-2-2v0-4.227l5.927-5.269c0.528-0.47 1.227-0.756 1.993-0.756 0.827 0 1.576 0.334 2.12 0.875l-0-0 4.059 4.051-7.326 7.326zM32 28c0 1.105-0.895 2-2 2v0h-12.398l7.589-7.589c0.517-0.442 1.193-0.71 1.932-0.71 0.734 0 1.405 0.265 1.925 0.704l-0.004-0.004 2.957 2.464z"></path>
</svg>
