<!-- Generated by IcoMoon.io -->
<svg version="1.1" xmlns="http://www.w3.org/2000/svg" width="40" height="40" viewBox="0 0 40 40">
<title>io-ice-cream-sharp</title>
<path fill="#fff" d="M26.483 11.023c-0.256-3.379-3.060-6.023-6.483-6.023s-6.227 2.645-6.481 6.001l-0.001 0.022c-2.544 0.258-4.514 2.387-4.518 4.976v0c0 2.46 1.648 4.452 3.899 4.904 0.058 0.012 0.101 0.062 0.101 0.123 0 0.001 0 0.002-0 0.002v-0 2.427c0 1.365 1.075 2.514 2.437 2.546 0.019 0.001 0.041 0.001 0.063 0.001 1.381 0 2.5-1.119 2.5-2.5 0-0 0-0.001 0-0.001v0-2.99c0-0.069 0.056-0.125 0.125-0.125 0.016 0 0.032 0.003 0.046 0.009l-0.001-0c0.542 0.217 1.17 0.346 1.827 0.354l0.003 0c1.020-0.007 1.946-0.4 2.643-1.039l-0.003 0.003c0.022-0.021 0.052-0.034 0.086-0.034s0.063 0.013 0.086 0.034l-0-0c0.829 0.79 1.951 1.279 3.187 1.287h0.002c0.001 0 0.001 0 0.002 0 2.761 0 5-2.239 5-5 0-2.592-1.973-4.724-4.499-4.975l-0.021-0.002z"></path>
<path fill="#fff" d="M20 22.75v0.75c-0.003 2.179-1.553 3.995-3.609 4.41l-0.029 0.005 3.638 7.085 5.754-12.005c-1.139-0.045-2.193-0.373-3.104-0.914l0.030 0.017c-0.778 0.41-1.701 0.651-2.68 0.652h-0z"></path>
</svg>
