<!-- Generated by IcoMoon.io -->
<svg version="1.1" xmlns="http://www.w3.org/2000/svg" width="40" height="40" viewBox="0 0 40 40">
<title>io-keypad-sharp</title>
<path fill="#fff" d="M9.5 5h5c0.276 0 0.5 0.224 0.5 0.5v5c0 0.276-0.224 0.5-0.5 0.5h-5c-0.276 0-0.5-0.224-0.5-0.5v-5c0-0.276 0.224-0.5 0.5-0.5z"></path>
<path fill="#fff" d="M17.5 5h5c0.276 0 0.5 0.224 0.5 0.5v5c0 0.276-0.224 0.5-0.5 0.5h-5c-0.276 0-0.5-0.224-0.5-0.5v-5c0-0.276 0.224-0.5 0.5-0.5z"></path>
<path fill="#fff" d="M25.5 5h5c0.276 0 0.5 0.224 0.5 0.5v5c0 0.276-0.224 0.5-0.5 0.5h-5c-0.276 0-0.5-0.224-0.5-0.5v-5c0-0.276 0.224-0.5 0.5-0.5z"></path>
<path fill="#fff" d="M9.5 13h5c0.276 0 0.5 0.224 0.5 0.5v5c0 0.276-0.224 0.5-0.5 0.5h-5c-0.276 0-0.5-0.224-0.5-0.5v-5c0-0.276 0.224-0.5 0.5-0.5z"></path>
<path fill="#fff" d="M17.5 13h5c0.276 0 0.5 0.224 0.5 0.5v5c0 0.276-0.224 0.5-0.5 0.5h-5c-0.276 0-0.5-0.224-0.5-0.5v-5c0-0.276 0.224-0.5 0.5-0.5z"></path>
<path fill="#fff" d="M25.5 13h5c0.276 0 0.5 0.224 0.5 0.5v5c0 0.276-0.224 0.5-0.5 0.5h-5c-0.276 0-0.5-0.224-0.5-0.5v-5c0-0.276 0.224-0.5 0.5-0.5z"></path>
<path fill="#fff" d="M9.5 21h5c0.276 0 0.5 0.224 0.5 0.5v5c0 0.276-0.224 0.5-0.5 0.5h-5c-0.276 0-0.5-0.224-0.5-0.5v-5c0-0.276 0.224-0.5 0.5-0.5z"></path>
<path fill="#fff" d="M17.5 21h5c0.276 0 0.5 0.224 0.5 0.5v5c0 0.276-0.224 0.5-0.5 0.5h-5c-0.276 0-0.5-0.224-0.5-0.5v-5c0-0.276 0.224-0.5 0.5-0.5z"></path>
<path fill="#fff" d="M17.5 29h5c0.276 0 0.5 0.224 0.5 0.5v5c0 0.276-0.224 0.5-0.5 0.5h-5c-0.276 0-0.5-0.224-0.5-0.5v-5c0-0.276 0.224-0.5 0.5-0.5z"></path>
<path fill="#fff" d="M25.5 21h5c0.276 0 0.5 0.224 0.5 0.5v5c0 0.276-0.224 0.5-0.5 0.5h-5c-0.276 0-0.5-0.224-0.5-0.5v-5c0-0.276 0.224-0.5 0.5-0.5z"></path>
</svg>
