<!-- Generated by IcoMoon.io -->
<svg version="1.1" xmlns="http://www.w3.org/2000/svg" width="40" height="40" viewBox="0 0 40 40">
<title>io-key-sharp</title>
<path fill="#fff" d="M17.631 14.45c0 0.813 0 1.6 0.256 2.338-2.694 3.162-10.469 12.156-10.469 12.156l0.181 2.269s2.175 2.062 2.5 1.75c0.963-0.938 1.55-1.575 1.55-1.575l0.453-2.709 2.944-0.217 0.236-2.925 3.102-0.059 0.031-3.131 3.293 0.131 0.563-1.178c0.969 0.419 1.85 0.587 2.981 0.587 4.281 0 7.75-3.337 7.75-7.45s-3.471-7.438-7.753-7.438-7.619 3.337-7.619 7.45zM29.428 13c0 1.341-1.087 2.428-2.428 2.428s-2.428-1.087-2.428-2.428c0-1.341 1.087-2.428 2.428-2.428v0c0.001 0 0.002 0 0.003 0 1.34 0 2.426 1.086 2.426 2.426 0 0.001 0 0.002 0 0.003v-0z"></path>
</svg>
