<!-- Generated by IcoMoon.io -->
<svg version="1.1" xmlns="http://www.w3.org/2000/svg" width="40" height="40" viewBox="0 0 40 40">
<title>io-key</title>
<path fill="#fff" d="M17.631 14.448c0 0.813 0 1.6 0.256 2.337-2.694 3.162-9.806 11.519-10.469 12.156-0.257 0.232-0.419 0.566-0.419 0.937v0c0 0.531 0.325 1.044 0.6 1.331 0.412 0.431 2.175 2.062 2.5 1.75 0.963-0.938 1.156-1.188 1.55-1.575 0.594-0.581-0.063-1.769 0.144-2.25s0.425-0.575 0.781-0.65 0.988 0.181 1.481 0.188c0.519 0.006 0.8-0.213 1.187-0.575 0.313-0.288 0.537-0.556 0.544-0.975 0.012-0.563-0.8-1.306-0.194-1.9s1.481 0.387 2.125 0.313 1.425-0.969 1.506-1.35-0.731-1.363-0.606-1.919c0.044-0.187 0.425-0.625 0.712-0.688s1.563 0.431 1.85 0.369c0.35-0.075 0.756-0.444 1.088-0.65 0.969 0.419 1.85 0.587 2.981 0.587 4.281 0 7.75-3.338 7.75-7.45s-3.469-7.436-7.75-7.436-7.619 3.336-7.619 7.448zM29 13c0 1.105-0.895 2-2 2s-2-0.895-2-2c0-1.105 0.895-2 2-2v0c1.105 0 2 0.895 2 2v0z"></path>
</svg>
