<!-- Generated by IcoMoon.io -->
<svg version="1.1" xmlns="http://www.w3.org/2000/svg" width="40" height="40" viewBox="0 0 40 40">
<title>io-logo-medium</title>
<path fill="#fff" d="M5.75 5.75v28.5h28.5v-28.5h-28.5zM29.427 12.503l-1.529 1.466c-0.132 0.101-0.197 0.266-0.17 0.429v10.768c-0.027 0.163 0.038 0.329 0.17 0.429l1.492 1.466v0.322h-7.508v-0.322l1.546-1.501c0.152-0.152 0.152-0.197 0.152-0.429v-8.703l-4.299 10.919h-0.581l-5.006-10.919v7.319c-0.042 0.308 0.061 0.617 0.277 0.84l2.011 2.439v0.322h-5.703v-0.322l2.011-2.439c0.215-0.223 0.311-0.535 0.259-0.84v-8.463c0.024-0.235-0.066-0.468-0.241-0.626l-1.787-2.154v-0.322h5.551l4.291 9.409 3.772-9.409h5.291v0.322z"></path>
</svg>
