<!-- Generated by IcoMoon.io -->
<svg version="1.1" xmlns="http://www.w3.org/2000/svg" width="40" height="40" viewBox="0 0 40 40">
<title>io-logo-youtube</title>
<path fill="#fff" d="M35.79 13.299c0-2.813-2.069-5.075-4.625-5.075-3.462-0.162-6.994-0.224-10.602-0.224h-1.125c-3.6 0-7.137 0.063-10.6 0.225-2.55 0-4.619 2.275-4.619 5.088-0.156 2.224-0.222 4.449-0.219 6.674q-0.009 3.338 0.213 6.681c0 2.813 2.069 5.094 4.619 5.094 3.637 0.169 7.369 0.244 11.162 0.238q5.7 0.019 11.162-0.238c2.556 0 4.625-2.281 4.625-5.094 0.15-2.231 0.219-4.456 0.213-6.687q0.021-3.338-0.204-6.681zM16.938 26.118v-12.281l9.063 6.137z"></path>
</svg>
