<!-- Generated by IcoMoon.io -->
<svg version="1.1" xmlns="http://www.w3.org/2000/svg" width="40" height="40" viewBox="0 0 40 40">
<title>io-logo-discord</title>
<path fill="#fff" d="M33 8.157c-0.017-1.71-1.405-3.091-3.117-3.095h-0l-19.78-0.063c-1.711 0-3.098 1.385-3.103 3.095v20.405c0 1.706 1.393 3 3.103 3h16.898l-0.812-2.75 6.812 6.25zM24.291 24.613s-0.545-0.649-1-1.207c1.984-0.559 2.741-1.781 2.741-1.781-0.501 0.337-1.075 0.637-1.681 0.871l-0.059 0.020c-0.627 0.269-1.363 0.494-2.127 0.639l-0.067 0.011c-0.577 0.111-1.241 0.175-1.92 0.175-0.707 0-1.399-0.069-2.067-0.201l0.067 0.011c-0.845-0.159-1.591-0.384-2.301-0.678l0.076 0.028c-0.437-0.168-0.8-0.341-1.15-0.536l0.045 0.023c-0.046-0.030-0.091-0.045-0.136-0.076-0.031-0.015-0.046-0.030-0.063-0.030-0.273-0.151-0.424-0.257-0.424-0.257s0.726 1.193 2.649 1.766c-0.454 0.574-1.014 1.238-1.014 1.238-3.344-0.106-4.616-2.279-4.616-2.279 0-4.816 2.179-8.726 2.179-8.726 2.179-1.616 4.238-1.57 4.238-1.57l0.151 0.181c-2.724 0.77-3.965 1.963-3.965 1.963s0.332-0.181 0.893-0.423c1.619-0.709 2.906-0.891 3.437-0.951 0.076-0.017 0.164-0.028 0.255-0.031l0.002-0c0.497-0.068 1.071-0.107 1.654-0.107 0.494 0 0.982 0.028 1.462 0.082l-0.059-0.005c1.697 0.2 3.238 0.707 4.621 1.467l-0.065-0.033s-1.196-1.134-3.769-1.903l0.212-0.241s2.073-0.046 4.238 1.572c0 0 2.179 3.91 2.179 8.726 0-0.017-1.272 2.156-4.616 2.262z"></path>
<path fill="#fff" d="M17.253 17.625c-0.863 0-1.544 0.74-1.544 1.661s0.696 1.661 1.544 1.661c0.863 0 1.544-0.739 1.544-1.661 0.016-0.922-0.681-1.661-1.544-1.661z"></path>
<path fill="#fff" d="M22.777 17.625c-0.863 0-1.544 0.74-1.544 1.661s0.696 1.661 1.544 1.661c0.863 0 1.544-0.739 1.544-1.661s-0.696-1.661-1.544-1.661z"></path>
</svg>
