<!-- Generated by IcoMoon.io -->
<svg version="1.1" xmlns="http://www.w3.org/2000/svg" width="40" height="40" viewBox="0 0 40 40">
<title>io-logo-pwa</title>
<path fill="#fff" d="M24.669 26l4.857-12h-3.22l-3.323 7.754-2.363-7.754h-2.476l-2.536 7.754-1.789-3.533-1.619 4.966 1.644 2.813h3.169l2.293-6.954 2.188 6.954z"></path>
<path fill="#fff" d="M7.049 21.881h1.978c0.024 0 0.053 0.001 0.082 0.001 0.54 0 1.064-0.073 1.56-0.211l-0.041 0.010 0.511-1.574 1.43-4.399c-0.117-0.184-0.241-0.343-0.377-0.491l0.002 0.002q-1.099-1.217-3.221-1.217h-4.974v12h3.049zM9.668 16.761q0.431 0.433 0.43 1.157t-0.375 1.158q-0.415 0.476-1.527 0.476h-1.146v-3.224h1.151q1.037 0 1.467 0.433zM27.553 23.851l0.924-2.328h2.668l-1.266-3.532 1.584-3.991 4.537 12h-3.346l-0.775-2.149z"></path>
</svg>
