<!-- Generated by IcoMoon.io -->
<svg version="1.1" xmlns="http://www.w3.org/2000/svg" width="40" height="40" viewBox="0 0 40 40">
<title>io-location-outline</title>
<path fill="none" stroke-linejoin="round" stroke-linecap="round" stroke-miterlimit="4" stroke-width="2.5" stroke="#fff" d="M20 7c-4.969 0-9 3.837-9 8.563 0 5.437 6 14.054 8.203 17.031 0.181 0.247 0.471 0.406 0.797 0.406s0.616-0.159 0.795-0.403l0.002-0.003c2.203-2.975 8.203-11.589 8.203-17.031 0-4.726-4.031-8.563-9-8.563z"></path>
<path fill="none" stroke-linejoin="round" stroke-linecap="round" stroke-miterlimit="4" stroke-width="2.5" stroke="#fff" d="M23 16c0 1.657-1.343 3-3 3s-3-1.343-3-3c0-1.657 1.343-3 3-3s3 1.343 3 3z"></path>
</svg>
