<!-- Generated by IcoMoon.io -->
<svg version="1.1" xmlns="http://www.w3.org/2000/svg" width="40" height="40" viewBox="0 0 40 40">
<title>io-logo-javascript</title>
<path fill="#fff" d="M6 6v28h28v-28zM21 27.75c0 2.726-1.61 4.054-3.941 4.054-2.105 0-3.327-1.090-3.947-2.406v0l2.143-1.297c0.413 0.733 0.727 1.353 1.629 1.353 0.75 0 1.366-0.338 1.366-1.654v-8.801h2.75zM27.209 31.742c-2.443 0-4.022-1.103-4.793-2.625v0l2.146-1.242c0.562 0.921 1.297 1.535 2.594 1.535 1.090 0 1.723-0.482 1.723-1.234 0-0.902-0.652-1.221-1.855-1.75l-0.657-0.282c-1.899-0.808-3.157-1.822-3.157-3.966 0-1.973 1.503-3.414 3.852-3.414 1.673 0 2.875 0.52 3.741 2.042l-2.052 1.319c-0.451-0.808-0.938-1.125-1.691-1.125-0.771 0-1.259 0.489-1.259 1.125 0 0.789 0.489 1.109 1.616 1.597l0.657 0.282c2.237 0.959 3.496 1.938 3.496 4.135 0.001 2.369-1.86 3.603-4.36 3.603z"></path>
</svg>
