<!-- Generated by IcoMoon.io -->
<svg version="1.1" xmlns="http://www.w3.org/2000/svg" width="40" height="40" viewBox="0 0 40 40">
<title>io-layers-outline</title>
<path fill="none" stroke-linejoin="round" stroke-linecap="round" stroke-miterlimit="4" stroke-width="2.5" stroke="#fff" d="M31.175 12.603l-9.335-4.256c-1.012-0.463-2.668-0.463-3.68 0l-9.329 4.256c-1.1 0.5-1.1 1.318 0 1.818l9.25 4.219c1.056 0.481 2.793 0.481 3.849 0l9.25-4.219c1.095-0.5 1.095-1.319-0.005-1.818z"></path>
<path fill="none" stroke-linejoin="round" stroke-linecap="round" stroke-miterlimit="4" stroke-width="2.5" stroke="#fff" d="M14 23.283l-5.169 2.319c-1.1 0.5-1.1 1.319 0 1.819l9.25 4.219c1.056 0.481 2.793 0.481 3.849 0l9.25-4.219c1.1-0.5 1.1-1.319 0-1.819l-4.996-2.404"></path>
<path fill="none" stroke-linejoin="round" stroke-linecap="round" stroke-miterlimit="4" stroke-width="2.5" stroke="#fff" d="M14 16.78l-5.175 2.322c-1.1 0.5-1.1 1.319 0 1.819l9.25 4.218c1.056 0.481 2.793 0.481 3.849 0l9.25-4.218c1.106-0.5 1.106-1.319 0.006-1.819l-5.18-2.323"></path>
</svg>
