<!-- Generated by IcoMoon.io -->
<svg version="1.1" xmlns="http://www.w3.org/2000/svg" width="40" height="40" viewBox="0 0 40 40">
<title>io-logo-tiktok</title>
<path fill="#fff" d="M29.762 11.416c-0.236-0.123-0.43-0.237-0.616-0.36l0.026 0.016c-0.573-0.382-1.070-0.807-1.512-1.283l-0.005-0.005c-1.131-1.294-1.554-2.607-1.709-3.527h0.006c-0.13-0.763-0.076-1.257-0.068-1.257h-5.153v19.924c0 0.267 0 0.532-0.011 0.793 0 0.033-0.003 0.063-0.005 0.098 0 0.014 0 0.029-0.003 0.044 0 0.004 0 0.008 0 0.011-0.117 1.49-0.964 2.76-2.18 3.461l-0.021 0.011c-0.611 0.354-1.344 0.563-2.126 0.563-0.002 0-0.004 0-0.006 0h0c-2.401 0-4.346-1.957-4.346-4.375s1.946-4.375 4.346-4.375c0.001 0 0.003 0 0.004 0 0.477 0 0.936 0.078 1.365 0.221l-0.030-0.009 0.006-5.246c-0.368-0.050-0.794-0.079-1.226-0.079-2.348 0-4.498 0.845-6.163 2.248l0.014-0.012c-0.877 0.765-1.612 1.664-2.18 2.67l-0.026 0.051c-0.218 0.375-1.038 1.882-1.138 4.328-0.063 1.388 0.354 2.826 0.553 3.421v0.012c0.125 0.35 0.609 1.544 1.399 2.551 0.641 0.809 1.376 1.504 2.199 2.084l0.033 0.022v-0.013l0.013 0.013c2.494 1.695 5.26 1.584 5.26 1.584 0.479-0.019 2.083 0 3.904-0.863 2.020-0.957 3.17-2.383 3.17-2.383 0.708-0.817 1.291-1.767 1.704-2.804l0.024-0.067c0.466-1.226 0.622-2.696 0.622-3.283v-10.57c0.063 0.037 0.895 0.588 0.895 0.588s1.199 0.769 3.071 1.269c1.343 0.356 3.151 0.431 3.151 0.431v-5.115c-0.634 0.069-1.921-0.131-3.238-0.788z"></path>
</svg>
