<!-- Generated by IcoMoon.io -->
<svg version="1.1" xmlns="http://www.w3.org/2000/svg" width="40" height="40" viewBox="0 0 40 40">
<title>io-library</title>
<path fill="#fff" d="M8 34h-1c-1.105 0-2-0.895-2-2v0-21c0-1.105 0.895-2 2-2v0h1c1.105 0 2 0.895 2 2v0 21c0 1.105-0.895 2-2 2v0z"></path>
<path fill="#fff" d="M19 15c0-1.105-0.895-2-2-2v0h-4c-1.105 0-2 0.895-2 2v0 1.75c0 0.138 0.112 0.25 0.25 0.25v0h7.5c0.138 0 0.25-0.112 0.25-0.25v0z"></path>
<path fill="#fff" d="M11 32c0 1.105 0.895 2 2 2v0h4c1.105 0 2-0.895 2-2v0-1.875c0-0.069-0.056-0.125-0.125-0.125v0h-7.75c-0.069 0-0.125 0.056-0.125 0.125v0z"></path>
<path fill="#fff" d="M11.125 19h7.75c0.069 0 0.125 0.056 0.125 0.125v8.75c0 0.069-0.056 0.125-0.125 0.125h-7.75c-0.069 0-0.125-0.056-0.125-0.125v-8.75c0-0.069 0.056-0.125 0.125-0.125z"></path>
<path fill="#fff" d="M24 34h-2c-1.105 0-2-0.895-2-2v0-24c0-1.105 0.895-2 2-2v0h2c1.105 0 2 0.895 2 2v0 24c0 1.105-0.895 2-2 2v0z"></path>
<path fill="#fff" d="M34.993 31.841l-2.014-21.25c-0.093-0.978-1.059-1.687-2.158-1.582l-1.991 0.188c-1.099 0.104-1.916 0.982-1.823 1.96l2.014 21.25c0.093 0.978 1.059 1.688 2.158 1.582l1.991-0.187c1.099-0.104 1.916-0.982 1.823-1.96z"></path>
</svg>
