<!-- Generated by IcoMoon.io -->
<svg version="1.1" xmlns="http://www.w3.org/2000/svg" width="40" height="40" viewBox="0 0 40 40">
<title>io-logo-closed-captioning</title>
<path fill="#fff" d="M4 9v22h32v-22zM33 19.986c0 1.609-0.1 2.832-0.236 4.826s-1.2 3.396-3.693 3.616-5.986 0.241-9.071 0.234c-3.063 0.007-6.571-0.007-9.071-0.234s-3.55-1.625-3.693-3.616-0.236-3.217-0.236-4.826 0.007-2.654 0.236-4.826 1.438-3.383 3.693-3.602 6.143-0.22 9.071-0.22 6.813 0 9.071 0.22 3.464 1.438 3.693 3.602 0.236 3.224 0.236 4.826z"></path>
<path fill="#fff" d="M26.973 21.677v0.048c0 1.121-0.694 1.781-1.622 1.781s-1.553-0.743-1.642-1.781c0 0-0.082-0.543-0.082-1.643-0-0.038-0.001-0.084-0.001-0.129 0-0.584 0.035-1.161 0.103-1.727l-0.007 0.068c0.165-1.169 0.736-1.781 1.662-1.781s1.656 0.797 1.656 2.008v0.034h3.099c0-1.506-0.378-2.86-1.141-3.713s-1.889-1.281-3.387-1.281c-0.025-0-0.055-0.001-0.084-0.001-0.706 0-1.386 0.108-2.026 0.309l0.048-0.013c-0.645 0.207-1.192 0.565-1.619 1.035l-0.003 0.003c-0.452 0.497-0.804 1.157-1.054 1.989s-0.375 1.875-0.375 3.142c0 1.238 0.103 2.269 0.303 3.101s0.5 1.492 0.9 1.987c0.381 0.477 0.892 0.836 1.478 1.025l0.022 0.006q0.906 0.289 2.125 0.289c1.717 0 2.954-0.438 3.696-1.286s1.102-2.083 1.102-3.706h-3.166c0.014 0 0.014 0.172 0.014 0.234z"></path>
<path fill="#fff" d="M16.331 21.677v0.048c0 1.121-0.694 1.781-1.621 1.781s-1.553-0.743-1.642-1.781c0 0-0.082-0.543-0.082-1.643-0-0.038-0.001-0.084-0.001-0.129 0-0.584 0.035-1.161 0.103-1.727l-0.007 0.068c0.165-1.169 0.736-1.781 1.663-1.781s1.656 0.798 1.656 2.008v0.034h3.1c0-1.506-0.375-2.86-1.141-3.713s-1.891-1.281-3.388-1.281c-0.025-0-0.055-0.001-0.084-0.001-0.706 0-1.386 0.108-2.026 0.309l0.048-0.013c-0.645 0.207-1.192 0.565-1.619 1.035l-0.003 0.003c-0.454 0.495-0.804 1.155-1.058 1.987s-0.375 1.875-0.375 3.142c0 1.237 0.103 2.269 0.303 3.101s0.5 1.492 0.9 1.987c0.381 0.477 0.892 0.836 1.478 1.025l0.022 0.006q0.907 0.289 2.125 0.289c1.717 0 2.954-0.438 3.696-1.286s1.113-2.083 1.113-3.706h-3.174c0.014 0.003 0.014 0.174 0.014 0.236z"></path>
</svg>
