<!-- Generated by IcoMoon.io -->
<svg version="1.1" xmlns="http://www.w3.org/2000/svg" width="40" height="40" viewBox="0 0 40 40">
<title>io-logo-whatsapp</title>
<path fill="#fff" d="M29.921 10.069c-2.513-2.514-5.985-4.069-9.82-4.069-0.015 0-0.030 0-0.044 0h0.002c-7.684 0-13.939 6.224-13.942 13.875 0 0.006 0 0.012 0 0.019 0 2.548 0.691 4.935 1.896 6.983l-0.035-0.065-1.978 7.188 7.391-1.929c1.924 1.062 4.218 1.688 6.658 1.688 0.002 0 0.003 0 0.005 0h0.005c7.683 0 13.938-6.224 13.941-13.875 0-0.010 0-0.023 0-0.035 0-3.824-1.56-7.284-4.078-9.778l-0.001-0.001zM20.059 31.416h-0.005c-0.001 0-0.002 0-0.003 0-2.174 0-4.208-0.597-5.947-1.637l0.053 0.029-0.423-0.25-4.386 1.145 1.171-4.256-0.276-0.438c-1.112-1.735-1.772-3.852-1.772-6.123 0-0.004 0-0.009 0-0.013v0.001c0-6.358 5.201-11.531 11.592-11.531 0.006 0 0.013-0 0.021-0 6.378 0 11.55 5.164 11.562 11.539v0.001c-0.003 6.359-5.201 11.532-11.588 11.532zM26.414 22.779c-0.348-0.174-2.063-1.012-2.38-1.128s-0.552-0.174-0.784 0.174-0.9 1.125-1.103 1.359-0.406 0.26-0.754 0.086-1.471-0.539-2.802-1.721c-1.036-0.919-1.734-2.054-1.938-2.401s-0.022-0.535 0.152-0.708c0.157-0.156 0.348-0.405 0.522-0.607s0.233-0.348 0.348-0.579 0.058-0.434-0.029-0.607-0.784-1.88-1.074-2.574c-0.283-0.676-0.57-0.584-0.784-0.595-0.203-0.010-0.437-0.013-0.668-0.013-0.37 0.010-0.7 0.175-0.928 0.432l-0.001 0.001c-0.319 0.348-1.219 1.187-1.219 2.893s1.25 3.355 1.422 3.586 2.456 3.733 5.951 5.235c0.511 0.23 1.169 0.477 1.843 0.691l0.143 0.039c0.834 0.264 1.594 0.227 2.194 0.138 0.669-0.099 2.062-0.839 2.352-1.649s0.29-1.504 0.203-1.648-0.319-0.232-0.668-0.405z"></path>
</svg>
