<!-- Generated by IcoMoon.io -->
<svg version="1.1" xmlns="http://www.w3.org/2000/svg" width="40" height="40" viewBox="0 0 40 40">
<title>io-logo-wechat</title>
<path fill="#fff" d="M29.542 22.658c-0.002 0-0.004 0-0.006 0-0.725 0-1.313-0.588-1.313-1.313s0.588-1.313 1.313-1.313c0.725 0 1.313 0.588 1.313 1.313v0c0 0.003 0 0.006 0 0.009 0 0.72-0.583 1.303-1.303 1.303-0.001 0-0.002 0-0.003 0h0zM23.156 22.658c-0.002 0-0.004 0-0.006 0-0.725 0-1.313-0.588-1.313-1.313s0.588-1.313 1.313-1.313c0.725 0 1.313 0.588 1.313 1.313v0c0 0.003 0 0.006 0 0.010 0 0.719-0.583 1.303-1.303 1.303-0.001 0-0.003 0-0.004 0h0zM32.662 30.087c2.032-1.457 3.338-3.641 3.338-6.118 0-4.442-4.281-8.084-9.651-8.084s-9.651 3.642-9.651 8.084 4.281 8.084 9.651 8.084c1.088 0 2.177-0.146 3.12-0.438 0.156-0.054 0.217-0.073 0.29-0.073 0.188 0.005 0.363 0.058 0.513 0.149l-0.005-0.003 2.108 1.238c0.063 0.034 0.136 0.059 0.213 0.072l0.004 0.001c0.156-0.011 0.28-0.135 0.291-0.29l0-0.001c-0.005-0.088-0.023-0.17-0.050-0.247l0.002 0.006c-0.026-0.091-0.313-1-0.46-1.579-0.013-0.065-0.020-0.14-0.021-0.217v-0c0.002-0.242 0.124-0.455 0.31-0.583l0.002-0.002z"></path>
<path fill="#fff" d="M19.383 15.157c-0.845 0-1.529-0.685-1.529-1.529s0.685-1.529 1.529-1.529v0c0.798 0 1.524 0.728 1.524 1.529 0.073 0.801-0.653 1.529-1.524 1.529zM11.692 15.157c-0.002 0-0.004 0-0.006 0-0.845 0-1.529-0.685-1.529-1.529s0.685-1.529 1.529-1.529c0.844 0 1.528 0.683 1.529 1.527v0c-0.004 0.841-0.683 1.523-1.523 1.529h-0.001zM15.537 7c-6.386 0-11.538 4.297-11.538 9.688 0 2.913 1.524 5.535 3.991 7.283 0.218 0.144 0.259 0.467 0.259 0.592 0.001 0.012 0.001 0.025 0.001 0.039 0 0.087-0.016 0.17-0.044 0.247l0.002-0.005c-0.218 0.728-0.496 1.907-0.508 1.969s-0.072 0.219-0.072 0.291c-0 0.007-0.001 0.014-0.001 0.022 0 0.189 0.154 0.343 0.343 0.343 0.007 0 0.014-0 0.021-0.001l-0.001 0c0.082-0.005 0.156-0.032 0.22-0.074l-0.002 0.001 2.541-1.457c0.218-0.146 0.363-0.146 0.581-0.146 0.131 0.002 0.256 0.028 0.37 0.075l-0.007-0.002c1.161 0.364 2.467 0.51 3.773 0.51h0.653c-0.227-0.718-0.36-1.545-0.363-2.402v-0.002c0-4.88 4.717-8.813 10.522-8.813h0.653c-0.801-4.59-5.589-8.159-11.394-8.159z"></path>
</svg>
