<!-- Generated by IcoMoon.io -->
<svg version="1.1" xmlns="http://www.w3.org/2000/svg" width="40" height="40" viewBox="0 0 40 40">
<title>io-layers</title>
<path fill="#fff" d="M20 20c-0.842 0-1.684-0.149-2.34-0.448l-9.25-4.218c-0.423-0.193-1.41-0.756-1.41-1.819s0.987-1.625 1.411-1.82l9.33-4.254c1.286-0.587 3.226-0.587 4.512 0l9.336 4.254c0.424 0.193 1.411 0.756 1.411 1.82s-0.987 1.625-1.411 1.819l-9.25 4.218c-0.655 0.299-1.497 0.448-2.339 0.448zM31.047 13.696v0z"></path>
<path fill="#fff" d="M31.585 18.176l-0.943-0.426-8.298 3.796c-0.656 0.3-1.5 0.449-2.34 0.449s-1.683-0.149-2.339-0.449l-8.303-3.796-0.951 0.427c-0.424 0.193-1.411 0.76-1.411 1.823s0.987 1.63 1.41 1.823l9.25 4.227c0.652 0.3 1.496 0.45 2.34 0.45s1.684-0.15 2.34-0.449l9.242-4.226c0.426-0.193 1.418-0.757 1.418-1.825s-0.986-1.629-1.415-1.824z"></path>
<path fill="#fff" d="M31.585 24.675l-0.943-0.425-8.298 3.792c-0.656 0.299-1.5 0.449-2.34 0.449s-1.683-0.149-2.339-0.449l-8.303-3.792-0.951 0.427c-0.424 0.193-1.411 0.76-1.411 1.822s0.987 1.629 1.41 1.822l9.25 4.224c0.652 0.299 1.499 0.454 2.34 0.454s1.68-0.155 2.336-0.454l9.245-4.223c0.426-0.193 1.419-0.756 1.419-1.822s-0.986-1.629-1.415-1.825z"></path>
</svg>
