<!-- Generated by IcoMoon.io -->
<svg version="1.1" xmlns="http://www.w3.org/2000/svg" width="40" height="40" viewBox="0 0 40 40">
<title>io-log-out</title>
<path fill="#fff" d="M14 20c0-0.552 0.448-1 1-1v0h9v-6.5c0-2-2.112-3.5-4-3.5h-9.5c-1.932 0.002-3.498 1.568-3.5 3.5v15c0.002 1.932 1.568 3.498 3.5 3.5h10c1.932-0.002 3.498-1.568 3.5-3.5v-6.5h-9c-0.552 0-1-0.448-1-1v0z"></path>
<path fill="#fff" d="M32.707 19.293l-5-5c-0.179-0.17-0.422-0.275-0.689-0.275-0.552 0-1 0.448-1 1 0 0.267 0.105 0.51 0.275 0.689l3.292 3.293h-5.586v2h5.586l-3.293 3.293c-0.192 0.183-0.311 0.44-0.311 0.725 0 0.552 0.448 1 1 1 0.285 0 0.542-0.119 0.725-0.311l5-5c0.181-0.181 0.293-0.431 0.293-0.707s-0.112-0.526-0.293-0.707v0z"></path>
</svg>
