<!-- Generated by IcoMoon.io -->
<svg version="1.1" xmlns="http://www.w3.org/2000/svg" width="40" height="40" viewBox="0 0 40 40">
<title>io-mic-circle-sharp</title>
<path fill="#fff" d="M20 7c-7.168 0-13 5.832-13 13s5.832 13 13 13 13-5.832 13-13-5.832-13-13-13zM17 15c0.005-1.655 1.345-2.995 3-3h0c1.655 0.005 2.995 1.345 3 3v4c-0.005 1.655-1.345 2.995-3 3h-0c-1.655-0.005-2.995-1.345-3-3v-0zM26 19.514c0 1.46-0.684 2.851-1.924 3.916-0.842 0.726-1.886 1.242-3.036 1.455l-0.040 0.006v1.109h2v2h-6v-2h2v-1.109c-1.19-0.219-2.233-0.735-3.084-1.468l0.008 0.007c-1.241-1.066-1.924-2.456-1.924-3.916v-2.495h2v2.495c0 1.604 1.75 3.468 4 3.468 1.85 0 4-1.514 4-3.468v-2.495h2z"></path>
</svg>
