<!-- Generated by IcoMoon.io -->
<svg version="1.1" xmlns="http://www.w3.org/2000/svg" width="40" height="40" viewBox="0 0 40 40">
<title>io-mic-off-circle-sharp</title>
<path fill="#fff" d="M20 7c-7.168 0-13 5.832-13 13s5.832 13 13 13 13-5.832 13-13-5.832-13-13-13zM24 19.514v-2.514h2v2.514c-0.006 1.006-0.317 1.939-0.846 2.711l0.011-0.017-1.414-1.558c0.156-0.333 0.248-0.724 0.25-1.136v-0.001zM20 12v0c1.655 0.005 2.995 1.345 3 3v4c-0 0.258-0.033 0.509-0.095 0.748l0.005-0.021-5.563-6.12c0.513-0.96 1.507-1.604 2.652-1.607h0.001zM23 28h-6v-2h2v-1.109c-1.19-0.219-2.233-0.735-3.084-1.468l0.008 0.007c-1.241-1.066-1.924-2.456-1.924-3.916v-2.514h2v2.514c0 1.604 1.75 3.468 4 3.468 0.155-0 0.306-0.011 0.455-0.030l-0.018 0.002 1.532 1.688c-0.271 0.098-0.596 0.184-0.931 0.244l-0.038 0.006v1.109h2zM17.006 19.179l2.531 2.784c-1.383-0.227-2.439-1.37-2.531-2.775l-0-0.009zM25.51 26.985l-12.531-13.656 1.48-1.345 12.531 13.656z"></path>
</svg>
