<!-- Generated by IcoMoon.io -->
<svg version="1.1" xmlns="http://www.w3.org/2000/svg" width="40" height="40" viewBox="0 0 40 40">
<title>io-mic-off-sharp</title>
<path fill="none" stroke-linejoin="miter" stroke-linecap="square" stroke-miterlimit="10" stroke-width="2.5" stroke="#fff" d="M31 29l-21-21"></path>
<path fill="#fff" d="M27 16v3c0 0.001 0 0.001 0 0.002 0 0.564-0.067 1.111-0.193 1.636l0.010-0.048 1.599 1.597c0.37-0.944 0.584-2.037 0.584-3.18 0-0.003 0-0.006 0-0.008v0-3z"></path>
<path fill="#fff" d="M21 31v-3.056c1.323-0.151 2.523-0.569 3.582-1.2l-0.041 0.023-1.478-1.477c-0.892 0.442-1.943 0.701-3.054 0.701-3.865 0-6.999-3.128-7.008-6.99v-3.001h-2v3c0 4.625 3.506 8.445 8 8.944v3.056h-4v2h10v-2z"></path>
<path fill="#fff" d="M25 18.773v-6.773c0-2.804-2.196-5-5-5-0.005-0-0.012-0-0.018-0-1.821 0-3.414 0.977-4.282 2.436l-0.013 0.023z"></path>
<path fill="#fff" d="M15 17.227v1.711c0.001 1.387 0.561 2.644 1.466 3.557l-0-0c0.895 0.929 2.149 1.506 3.538 1.506 0.545 0 1.069-0.089 1.559-0.253l-0.035 0.010z"></path>
</svg>
