<!-- Generated by IcoMoon.io -->
<svg version="1.1" xmlns="http://www.w3.org/2000/svg" width="40" height="40" viewBox="0 0 40 40">
<title>io-mic-off-outline</title>
<path fill="none" stroke-linejoin="miter" stroke-linecap="round" stroke-miterlimit="10" stroke-width="2.5" stroke="#fff" d="M31 29l-21-21"></path>
<path fill="#fff" d="M29 19v-1.972c0-0.538-0.414-1-0.952-1.027-0.014-0.001-0.031-0.001-0.048-0.001-0.552 0-1 0.448-1 1v0 2c0 0.001 0 0.002 0 0.004 0 0.515-0.056 1.016-0.162 1.499l0.008-0.046c-0.004 0.016-0.006 0.034-0.006 0.053 0 0.069 0.028 0.132 0.073 0.177l1.364 1.363c0.023 0.023 0.054 0.037 0.088 0.037 0.053 0 0.099-0.034 0.117-0.081l0-0.001c0.327-0.893 0.517-1.923 0.517-2.998 0-0.003 0-0.005 0-0.008v0z"></path>
<path fill="#fff" d="M20 26c-3.861-0.013-6.987-3.139-7-6.999v-1.973c0-0.538-0.414-1-0.952-1.027-0.014-0.001-0.031-0.001-0.048-0.001-0.552 0-1 0.448-1 1v0 2c0 4.625 3.506 8.445 8 8.944v3.056h-2.972c-0.538 0-1 0.414-1.027 0.952-0.001 0.014-0.001 0.031-0.001 0.048 0 0.552 0.448 1 1 1h7.972c0.538 0 1-0.414 1.027-0.952 0.001-0.014 0.001-0.031 0.001-0.048 0-0.552-0.448-1-1-1h-3v-3.056c1.21-0.138 2.31-0.497 3.297-1.037l-0.047 0.023c0.078-0.043 0.131-0.125 0.131-0.22 0-0.069-0.028-0.132-0.074-0.177v0l-1.119-1.119c-0.045-0.045-0.107-0.072-0.176-0.072-0.039 0-0.075 0.009-0.107 0.024l0.001-0.001c-0.849 0.401-1.845 0.634-2.895 0.634-0.004 0-0.007 0-0.011 0h0.001z"></path>
<path fill="#fff" d="M20 9c0.015-0 0.034-0 0.052-0 1.629 0 2.949 1.32 2.949 2.949 0 0.018-0 0.036-0.001 0.054l0-0.003v4.67c0 0.069 0.028 0.131 0.073 0.176l1.714 1.716c0.023 0.022 0.054 0.036 0.088 0.036 0.069 0 0.125-0.056 0.125-0.125 0-0 0-0 0-0v0-6.417c0-2.744-2.188-5.019-4.929-5.057-0.027-0.001-0.059-0.001-0.091-0.001-1.75 0-3.288 0.902-4.176 2.267l-0.012 0.019c-0.025 0.038-0.040 0.085-0.040 0.135 0 0.069 0.028 0.132 0.074 0.177v0l1.221 1.221c0.023 0.023 0.054 0.036 0.088 0.036 0.051 0 0.095-0.031 0.115-0.075l0-0.001c0.469-1.057 1.509-1.78 2.718-1.78 0.011 0 0.023 0 0.034 0h-0.002z"></path>
<path fill="#fff" d="M16.954 19.181l-1.741-1.744c-0.023-0.022-0.054-0.036-0.088-0.036-0.069 0-0.125 0.056-0.125 0.125 0 0 0 0 0 0v0 1.411c0.001 1.387 0.561 2.644 1.466 3.557l-0-0c0.895 0.929 2.149 1.506 3.539 1.506 0.471 0 0.927-0.066 1.359-0.19l-0.035 0.009c0.053-0.015 0.091-0.063 0.091-0.12 0-0.035-0.014-0.066-0.037-0.089v0l-1.557-1.557c-0.040-0.039-0.092-0.065-0.15-0.072l-0.001-0c-1.353-0.158-2.468-1.277-2.648-2.652-0.007-0.058-0.033-0.109-0.071-0.147v0z"></path>
</svg>
