<!-- Generated by IcoMoon.io -->
<svg version="1.1" xmlns="http://www.w3.org/2000/svg" width="40" height="40" viewBox="0 0 40 40">
<title>io-medal</title>
<path fill="#fff" d="M22 26c0 1.105-0.895 2-2 2s-2-0.895-2-2c0-1.105 0.895-2 2-2s2 0.895 2 2z"></path>
<path fill="#fff" d="M10.236 6c-0 0-0 0-0.001 0-1.168 0-2.18 0.667-2.675 1.641l-0.008 0.017-1.938 3.875c-0.199 0.391-0.315 0.853-0.315 1.342 0 0.405 0.080 0.792 0.225 1.145l-0.007-0.020h17.387c0 0 0 0 0 0 0.089 0 0.167-0.046 0.211-0.116l0.001-0.001 4.719-7.5c0.024-0.038 0.038-0.084 0.038-0.133 0-0.138-0.111-0.249-0.249-0.25h-0z"></path>
<path fill="#fff" d="M34.386 11.535l-1.938-3.875c-0.406-0.806-1.144-1.394-2.030-1.588l-0.020-0.004-4.992 7.931-2.781 4.442c-0.782-0.281-1.685-0.443-2.625-0.443s-1.843 0.162-2.681 0.46l0.056-0.017-1.458-2.325c-0.045-0.071-0.123-0.117-0.212-0.117h-8.509c-0.138 0-0.25 0.112-0.25 0.25 0 0.050 0.015 0.097 0.040 0.136l-0.001-0.001 5.169 8.046c-0.099 0.473-0.156 1.017-0.156 1.573 0 4.418 3.582 8 8 8s8-3.582 8-8c0-0.557-0.057-1.1-0.165-1.625l0.009 0.052 6.384-9.931c0.298-0.459 0.475-1.021 0.475-1.623 0-0.489-0.116-0.951-0.323-1.359l0.008 0.017zM20.261 29.992c-0.078 0.005-0.169 0.009-0.261 0.009-2.209 0-4-1.791-4-4s1.791-4 4-4c2.209 0 4 1.791 4 4 0 0.092-0.003 0.183-0.009 0.273l0.001-0.012c-0.137 2.003-1.727 3.593-3.718 3.73l-0.012 0.001z"></path>
</svg>
