<!-- Generated by IcoMoon.io -->
<svg version="1.1" xmlns="http://www.w3.org/2000/svg" width="40" height="40" viewBox="0 0 40 40">
<title>io-map-outline</title>
<path fill="none" stroke-linejoin="round" stroke-linecap="round" stroke-miterlimit="4" stroke-width="2.5" stroke="#fff" d="M23.579 11.79l-7.159-4.58c-0.26-0.133-0.568-0.211-0.894-0.211-0.343 0-0.665 0.086-0.947 0.238l0.011-0.005-7.059 4.736c-0.319 0.171-0.532 0.503-0.532 0.884 0 0 0 0 0 0v0 18.488c0 0 0 0 0 0 0 0.552 0.448 1 1 1 0.171 0 0.333-0.043 0.473-0.119l-0.005 0.003 6.114-3.987c0.271-0.147 0.594-0.233 0.936-0.233 0.331 0 0.644 0.080 0.919 0.223l-0.011-0.005 6.991 4.562c0.264 0.137 0.577 0.218 0.908 0.218 0.337 0 0.654-0.083 0.932-0.23l-0.011 0.005 7.214-4.746c0.323-0.17 0.539-0.504 0.539-0.887v0-18.483c0-0 0-0 0-0 0-0.552-0.448-1-1-1-0.171 0-0.332 0.043-0.473 0.119l0.005-0.003-6.125 3.991c-0.271 0.146-0.593 0.232-0.935 0.232-0.325 0-0.632-0.078-0.904-0.215l0.011 0.005z"></path>
<path fill="none" stroke-linejoin="round" stroke-linecap="round" stroke-miterlimit="4" stroke-width="2.5" stroke="#fff" d="M24.5 12v21"></path>
<path fill="none" stroke-linejoin="round" stroke-linecap="round" stroke-miterlimit="4" stroke-width="2.5" stroke="#fff" d="M15.5 7v21"></path>
</svg>
