<!-- Generated by IcoMoon.io -->
<svg version="1.1" xmlns="http://www.w3.org/2000/svg" width="40" height="40" viewBox="0 0 40 40">
<title>io-notifications-outline</title>
<path fill="none" stroke-linejoin="round" stroke-linecap="round" stroke-miterlimit="4" stroke-width="2.5" stroke="#fff" d="M30.73 25.964c-1.605-1.964-2.738-2.964-2.738-8.38 0-4.959-2.532-6.726-4.617-7.584-0.277-0.114-0.538-0.375-0.622-0.659-0.366-1.244-1.391-2.341-2.753-2.341s-2.388 1.097-2.75 2.342c-0.084 0.287-0.345 0.544-0.622 0.658-2.087 0.859-4.617 2.62-4.617 7.584-0.003 5.416-1.136 6.416-2.741 8.38-0.665 0.814-0.082 2.036 1.081 2.036h19.305c1.157 0 1.736-1.226 1.074-2.036z"></path>
<path fill="none" stroke-linejoin="round" stroke-linecap="round" stroke-miterlimit="4" stroke-width="2.5" stroke="#fff" d="M24 28v1c0 2.209-1.791 4-4 4s-4-1.791-4-4v0-1"></path>
</svg>
