<!-- Generated by IcoMoon.io -->
<svg version="1.1" xmlns="http://www.w3.org/2000/svg" width="40" height="40" viewBox="0 0 40 40">
<title>io-notifications-circle</title>
<path fill="#fff" d="M20 7c-7.168 0-13 5.832-13 13s5.832 13 13 13 13-5.832 13-13-5.832-13-13-13zM20 28c-1.306 0-2.345-0.554-2.484-1.724-0.001-0.008-0.001-0.017-0.001-0.026 0-0.138 0.112-0.25 0.25-0.25 0.001 0 0.001 0 0.001 0h4.466c0.001 0 0.001 0 0.002 0 0.138 0 0.25 0.112 0.25 0.25 0 0.011-0.001 0.021-0.002 0.031l0-0.001c-0.159 1.148-1.189 1.72-2.481 1.72zM26.125 25h-12.25c-0.74 0-1.125-0.938-0.699-1.438 1.021-1.209 1.742-1.717 1.742-5.050 0-3.054 1.609-4.138 2.938-4.667 0.185-0.078 0.327-0.228 0.394-0.413l0.002-0.005c0.231-0.766 0.883-1.428 1.749-1.428s1.518 0.662 1.75 1.429c0.069 0.19 0.211 0.339 0.392 0.416l0.005 0.002c1.326 0.527 2.938 1.613 2.938 4.667 0 3.333 0.721 3.841 1.741 5.050 0.421 0.499 0.036 1.437-0.7 1.437z"></path>
</svg>
