<!-- Generated by IcoMoon.io -->
<svg version="1.1" xmlns="http://www.w3.org/2000/svg" width="40" height="40" viewBox="0 0 40 40">
<title>io-nutrition-outline</title>
<path fill="none" stroke-linejoin="miter" stroke-linecap="butt" stroke-miterlimit="10" stroke-width="2.5" stroke="#fff" d="M26 12c-2.016-0.181-4 1-6 1s-3.984-1.187-6-1c-4 0.375-6 4-6 10 0 5 4 12 6.95 12s3.246-1.5 5.050-1.5 2.099 1.5 5.050 1.5 6.95-7 6.95-12c0-6-1.812-9.625-6-10z"></path>
<path fill="#fff" d="M24.245 9.196c-1.313 1.312-2.854 1.688-3.676 1.799-0.021 0.003-0.046 0.005-0.071 0.005-0.276 0-0.5-0.224-0.5-0.5 0-0.018 0.001-0.036 0.003-0.053l-0 0.002c0.159-1.462 0.812-2.747 1.787-3.707l0.001-0.001c1.375-1.375 2.875-1.681 3.67-1.741 0.014-0.001 0.029-0.002 0.045-0.002 0.276 0 0.5 0.224 0.5 0.5 0 0.021-0.001 0.042-0.004 0.062l0-0.002c-0.168 1.432-0.807 2.689-1.755 3.637v0z"></path>
<path fill="#fff" d="M19 23c0 1.657-0.672 3-1.5 3s-1.5-1.343-1.5-3c0-1.657 0.672-3 1.5-3s1.5 1.343 1.5 3z"></path>
<path fill="#fff" d="M24 23c0 1.657-0.672 3-1.5 3s-1.5-1.343-1.5-3c0-1.657 0.672-3 1.5-3s1.5 1.343 1.5 3z"></path>
</svg>
