<!-- Generated by IcoMoon.io -->
<svg version="1.1" xmlns="http://www.w3.org/2000/svg" width="40" height="40" viewBox="0 0 40 40">
<title>io-navigate-circle-outline</title>
<path fill="#fff" d="M25.047 14.063l-11.658 5.147c-0.654 0.3-0.434 1.292 0.286 1.292h5.575c0.138 0 0.25 0.112 0.25 0.25v0 5.574c0 0.72 1 0.938 1.299 0.285l5.139-11.657c0.039-0.082 0.062-0.179 0.062-0.281 0-0.37-0.3-0.671-0.671-0.671-0.102 0-0.199 0.023-0.285 0.064l0.004-0.002z"></path>
<path fill="none" stroke-linejoin="miter" stroke-linecap="butt" stroke-miterlimit="10" stroke-width="2.5" stroke="#fff" d="M32 20c0-6.625-5.375-12-12-12s-12 5.375-12 12 5.375 12 12 12 12-5.375 12-12z"></path>
</svg>
