<!-- Generated by IcoMoon.io -->
<svg version="1.1" xmlns="http://www.w3.org/2000/svg" width="40" height="40" viewBox="0 0 40 40">
<title>io-partly-sunny</title>
<path fill="#fff" d="M25.25 34h-14.625c-1.844 0-3.433-0.489-4.596-1.415-1.328-1.057-2.029-2.626-2.029-4.535 0-1.666 0.63-3.113 1.821-4.182 0.953-0.855 2.261-1.451 3.688-1.677v0c0.004 0 0.005 0 0.006-0.003 0.402-2.438 1.489-4.506 3.144-5.98 1.54-1.37 3.58-2.208 5.816-2.208 0.009 0 0.018 0 0.027 0h-0.001c1.889 0 3.655 0.587 5.107 1.698 1.122 0.875 2.016 1.99 2.614 3.271l0.023 0.055c0.132 0.285 0.386 0.493 0.693 0.561l0.007 0.001c1.625 0.351 3.025 1.081 4.073 2.125 1.296 1.296 1.984 3.021 1.984 4.989 0 2.053-0.821 3.929-2.313 5.282-1.431 1.301-3.363 2.018-5.437 2.018z"></path>
<path fill="#fff" d="M28.243 17.855c0.831 0.249 1.551 0.562 2.224 0.947l-0.052-0.027c0.035 0.020 0.077 0.032 0.122 0.032 0.115 0 0.211-0.077 0.241-0.183l0-0.002c0.14-0.486 0.221-1.044 0.221-1.621 0-0.016-0-0.032-0-0.049v0.003c-0.024-3.277-2.718-5.951-5.994-5.954-0.004 0-0.010-0-0.015-0-1.284 0-2.473 0.406-3.447 1.096l0.019-0.012h-0.004c-0.054 0.039-0.089 0.101-0.089 0.172 0 0.095 0.063 0.176 0.15 0.202l0.001 0c1.227 0.382 2.292 0.945 3.229 1.667l-0.024-0.017c1.148 0.893 2.096 1.984 2.804 3.228l0.028 0.054c0.128 0.222 0.333 0.388 0.577 0.463l0.007 0.002z"></path>
<path fill="#fff" d="M35 18h-2c-0.552 0-1-0.448-1-1s0.448-1 1-1v0h2c0.552 0 1 0.448 1 1s-0.448 1-1 1v0z"></path>
<path fill="#fff" d="M25 10c-0.552 0-1-0.448-1-1v0-2c0-0.552 0.448-1 1-1s1 0.448 1 1v0 2c0 0.552-0.448 1-1 1v0z"></path>
<path fill="#fff" d="M19.343 12.343c-0 0-0.001 0-0.002 0-0.276 0-0.525-0.112-0.705-0.293l-1.414-1.414c-0.181-0.181-0.293-0.431-0.293-0.707 0-0.552 0.448-1 1-1 0.276 0 0.526 0.112 0.707 0.293l1.414 1.414c0.181 0.181 0.293 0.431 0.293 0.707 0 0.552-0.447 1-0.999 1h-0z"></path>
<path fill="#fff" d="M30.657 12.343c-0.552-0-1-0.448-1-1 0-0.276 0.112-0.526 0.293-0.707l1.414-1.414c0.181-0.181 0.431-0.293 0.707-0.293 0.552 0 1 0.448 1 1 0 0.276-0.112 0.526-0.293 0.707l-1.414 1.414c-0.18 0.181-0.43 0.293-0.705 0.293-0.001 0-0.001 0-0.002 0h0z"></path>
</svg>
