<!-- Generated by IcoMoon.io -->
<svg version="1.1" xmlns="http://www.w3.org/2000/svg" width="40" height="40" viewBox="0 0 40 40">
<title>io-play-forward</title>
<path fill="#fff" d="M34.081 18.342l-11.804-7.063c-0.283-0.175-0.625-0.278-0.992-0.278-0.35 0-0.678 0.094-0.96 0.259l0.009-0.005c-0.631 0.372-1.048 1.049-1.048 1.822 0 0.007 0 0.014 0 0.021v-0.001 4.941l-11.295-6.76c-0.283-0.175-0.625-0.278-0.992-0.278-0.35 0-0.678 0.094-0.96 0.259l0.009-0.005c-0.631 0.372-1.048 1.049-1.048 1.822 0 0.007 0 0.014 0 0.021v-0.001 13.812c-0 0.006-0 0.013-0 0.020 0 0.774 0.417 1.45 1.038 1.817l0.010 0.005c0.273 0.16 0.601 0.254 0.951 0.254 0.367 0 0.709-0.104 1-0.283l-0.008 0.005 11.295-6.763v4.942c-0 0.007-0 0.015-0 0.023 0 0.774 0.417 1.45 1.038 1.817l0.010 0.005c0.273 0.16 0.601 0.254 0.951 0.254 0.367 0 0.709-0.104 1-0.283l-0.008 0.005 11.804-7.063c0.554-0.351 0.917-0.961 0.917-1.656s-0.363-1.305-0.909-1.652l-0.008-0.005z"></path>
</svg>
