<!-- Generated by IcoMoon.io -->
<svg version="1.1" xmlns="http://www.w3.org/2000/svg" width="40" height="40" viewBox="0 0 40 40">
<title>io-phone-portrait-outline</title>
<path fill="none" stroke-linejoin="round" stroke-linecap="round" stroke-miterlimit="4" stroke-width="2.5" stroke="#fff" d="M15 5h10c1.657 0 3 1.343 3 3v24c0 1.657-1.343 3-3 3h-10c-1.657 0-3-1.343-3-3v-24c0-1.657 1.343-3 3-3z"></path>
<path fill="none" stroke-linejoin="round" stroke-linecap="round" stroke-miterlimit="4" stroke-width="2.5" stroke="#fff" d="M15 5h1.5c0.276 0 0.5 0.224 0.5 0.5v0 0c0 0.552 0.448 1 1 1v0h4c0.552 0 1-0.448 1-1v0 0c0-0.276 0.224-0.5 0.5-0.5v0h1.5"></path>
</svg>
