<!-- Generated by IcoMoon.io -->
<svg version="1.1" xmlns="http://www.w3.org/2000/svg" width="40" height="40" viewBox="0 0 40 40">
<title>io-partly-sunny-sharp</title>
<path fill="#fff" d="M25.25 34h-14.625c-1.844 0-3.433-0.489-4.596-1.415-1.328-1.057-2.029-2.626-2.029-4.535 0-1.666 0.63-3.113 1.821-4.182 0.953-0.855 2.261-1.451 3.688-1.677v0c0.004 0 0.005 0 0.006-0.003 0.402-2.438 1.489-4.506 3.144-5.98 1.54-1.37 3.58-2.208 5.816-2.208 0.009 0 0.018 0 0.027 0h-0.001c1.889 0 3.655 0.587 5.107 1.698 1.251 0.978 2.224 2.257 2.814 3.731l0.021 0.060c1.838 0.301 3.42 1.069 4.574 2.221 1.296 1.296 1.984 3.021 1.984 4.989 0 2.053-0.821 3.929-2.313 5.282-1.431 1.301-3.363 2.017-5.437 2.017z"></path>
<path fill="#fff" d="M27.844 17.743c1.077 0.28 2.023 0.687 2.886 1.214l-0.046-0.026c0.203-0.576 0.32-1.241 0.32-1.932 0-3.314-2.686-6-6-6-1.288 0-2.482 0.406-3.46 1.097l0.019-0.013q-0.178 0.125-0.346 0.263c1.381 0.368 2.587 0.976 3.632 1.782l-0.024-0.018c1.249 0.974 2.265 2.186 2.991 3.573l0.029 0.060z"></path>
<path fill="#fff" d="M32 16h4v2h-4v-2z"></path>
<path fill="#fff" d="M24 6h2v4h-2v-4z"></path>
<path fill="#fff" d="M19.959 12.102l0.778-0.778-2.789-2.789-1.414 1.414 2.073 2.073h0.038c0.002 0 0.003 0 0.005 0 0.461 0 0.916 0.029 1.362 0.085l-0.053-0.005z"></path>
<path fill="#fff" d="M29.263 11.323l2.789-2.789 1.414 1.414-2.789 2.789-1.414-1.414z"></path>
</svg>
