<!-- Generated by IcoMoon.io -->
<svg version="1.1" xmlns="http://www.w3.org/2000/svg" width="40" height="40" viewBox="0 0 40 40">
<title>io-pie-chart</title>
<path fill="#fff" d="M8.131 26.313c-0 0-0 0-0 0-0.404 0-0.752-0.24-0.91-0.585l-0.003-0.006c-0.772-1.682-1.222-3.649-1.222-5.721 0-7.732 6.268-14 14-14 0.001 0 0.003 0 0.004 0h-0c0.552 0 1 0.448 1 1v0 13c0 0 0 0 0 0 0 0.404-0.24 0.753-0.586 0.91l-0.006 0.003-11.869 5.309c-0.12 0.056-0.26 0.089-0.408 0.090h-0z"></path>
<path fill="#fff" d="M23.599 8.261c-0.030-0.006-0.064-0.010-0.099-0.010-0.276 0-0.499 0.223-0.5 0.499v11.25c-0.001 1.213-0.721 2.258-1.756 2.731l-0.019 0.008-10.779 4.824c-0.176 0.080-0.296 0.254-0.296 0.457 0 0.105 0.032 0.203 0.088 0.283l-0.001-0.002c0.842 1.227 1.845 2.269 2.994 3.126l0.034 0.025c2.121 1.592 4.797 2.549 7.697 2.549 0.014 0 0.027-0 0.041-0h-0.002c7.168 0 13-5.832 13-13 0-6.278-4.474-11.531-10.401-12.739z"></path>
</svg>
