<!-- Generated by IcoMoon.io -->
<svg version="1.1" xmlns="http://www.w3.org/2000/svg" width="40" height="40" viewBox="0 0 40 40">
<title>io-play-forward-circle-outline</title>
<path fill="none" stroke-linejoin="miter" stroke-linecap="butt" stroke-miterlimit="10" stroke-width="2.5" stroke="#fff" d="M32 20c0-6.625-5.375-12-12-12s-12 5.375-12 12 5.375 12 12 12 12-5.375 12-12z"></path>
<path fill="#fff" d="M28.673 19.419l-7.153-4.321c-0.099-0.060-0.218-0.096-0.346-0.096-0.372 0-0.674 0.302-0.674 0.674 0 0.001 0 0.003 0 0.004v-0 3.332l-6.48-3.914c-0.099-0.060-0.218-0.096-0.346-0.096-0.372 0-0.674 0.302-0.674 0.674 0 0.001 0 0.003 0 0.004v-0 8.641c0 0.001 0 0.003 0 0.004 0 0.372 0.302 0.674 0.674 0.674 0.128 0 0.247-0.036 0.349-0.097l-0.003 0.002 6.48-3.914v3.332c0 0.001 0 0.003 0 0.004 0 0.372 0.302 0.674 0.674 0.674 0.128 0 0.247-0.036 0.349-0.097l-0.003 0.002 7.153-4.321c0.197-0.122 0.326-0.336 0.326-0.581s-0.129-0.46-0.324-0.58l-0.003-0.002z"></path>
</svg>
