<!-- Generated by IcoMoon.io -->
<svg version="1.1" xmlns="http://www.w3.org/2000/svg" width="40" height="40" viewBox="0 0 40 40">
<title>io-print</title>
<path fill="#fff" d="M29.5 11h-18.875c-2.002 0-3.625 1.623-3.625 3.625v0 9.875c0 1.933 1.567 3.5 3.5 3.5v0h0.5v2.48c0 1.392 1.128 2.52 2.52 2.52v0h12.96c1.392 0 2.52-1.128 2.52-2.52v0-2.48h0.5c1.933 0 3.5-1.567 3.5-3.5v0-10c0-1.933-1.567-3.5-3.5-3.5v0zM27 30.48c-0.001 0.287-0.233 0.519-0.52 0.52h-12.96c-0.287-0.001-0.519-0.233-0.52-0.52v-9.96c0.001-0.287 0.233-0.519 0.52-0.52h12.96c0.287 0.001 0.519 0.233 0.52 0.52v0zM28.625 16.995c-0.036 0.003-0.078 0.005-0.12 0.005-0.828 0-1.5-0.672-1.5-1.5s0.672-1.5 1.5-1.5c0.828 0 1.5 0.672 1.5 1.5 0 0.042-0.002 0.084-0.005 0.126l0-0.005c-0.061 0.734-0.641 1.314-1.37 1.375l-0.005 0z"></path>
<path fill="#fff" d="M25.5 7h-11c-1.756 0.003-3.208 1.295-3.461 2.981l-0.002 0.019h17.927c-0.255-1.705-1.708-2.997-3.463-3h-0z"></path>
</svg>
