<!-- Generated by IcoMoon.io -->
<svg version="1.1" xmlns="http://www.w3.org/2000/svg" width="40" height="40" viewBox="0 0 40 40">
<title>io-play-skip-back-circle</title>
<path fill="#fff" d="M7 20c0 7.168 5.832 13 13 13s13-5.832 13-13-5.832-13-13-13-13 5.832-13 13zM15 16c0-0.552 0.448-1 1-1s1 0.448 1 1v0 3.313l6.98-4.216c0.099-0.060 0.218-0.096 0.346-0.096 0.372 0 0.674 0.302 0.674 0.674 0 0.002 0 0.004-0 0.005v-0 8.641c0 0.001 0 0.003 0 0.004 0 0.372-0.302 0.674-0.674 0.674-0.128 0-0.247-0.036-0.349-0.097l0.003 0.002-6.98-4.215v3.312c0 0.552-0.448 1-1 1s-1-0.448-1-1v0z"></path>
</svg>
