<!-- Generated by IcoMoon.io -->
<svg version="1.1" xmlns="http://www.w3.org/2000/svg" width="40" height="40" viewBox="0 0 40 40">
<title>io-planet</title>
<path fill="#fff" d="M10.053 21.914c-0.082-0.061-0.185-0.097-0.296-0.097-0.276 0-0.5 0.224-0.5 0.5 0 0.040 0.005 0.079 0.014 0.116l-0.001-0.003c1.109 4.901 5.499 8.571 10.73 8.571 0.001 0 0.002 0 0.004 0 1.168 0 2.294-0.183 3.35-0.521l-0.078 0.021c0.206-0.065 0.353-0.254 0.353-0.478 0-0.205-0.123-0.381-0.3-0.458l-0.003-0.001c-2.755-1.218-5-2.379-7.171-3.654l0.329 0.179c-2.508-1.446-4.607-2.826-6.624-4.31l0.195 0.137z"></path>
<path fill="#fff" d="M34.795 25.219c-0.262-0.349-0.569-0.715-0.919-1.096-0.182-0.2-0.443-0.324-0.733-0.324-0.423 0-0.784 0.265-0.925 0.638l-0.002 0.007c0 0.010-0.007 0.019-0.011 0.029-0.038 0.101-0.061 0.218-0.061 0.34 0 0.256 0.098 0.489 0.258 0.664l-0.001-0.001c1.421 1.563 1.651 2.407 1.593 2.585-0.125 0.139-1.066 0.431-3.634-0.221q-0.552-0.14-1.208-0.341-0.422-0.13-0.862-0.281v0c0.44-0.502 0.843-1.059 1.193-1.652l0.028-0.051c0.011-0.018 0.022-0.036 0.033-0.055 0.915-1.567 1.455-3.449 1.455-5.457 0-0.002 0-0.003 0-0.005v0c0-0.002 0-0.005 0-0.007 0-0.416-0.023-0.826-0.067-1.23l0.004 0.050c-0.598-5.511-5.275-9.813-10.938-9.813-0.002 0-0.004 0-0.006 0-2.51 0-4.822 0.843-6.67 2.262l0.026-0.019c-1.154 0.884-2.11 1.96-2.836 3.188l-0.028 0.052c-0.010 0.018-0.021 0.036-0.032 0.054-0.318 0.542-0.61 1.172-0.841 1.831l-0.023 0.077q-0.349-0.304-0.674-0.604c-0.337-0.313-0.636-0.602-0.901-0.875-1.848-1.891-2.068-2.851-2.010-3.028 0.125-0.139 0.971-0.367 3.039 0.082 0.064 0.015 0.137 0.023 0.212 0.023 0.304 0 0.576-0.137 0.758-0.353l0.001-0.002 0.023-0.027c0.142-0.169 0.228-0.389 0.228-0.629 0-0.467-0.326-0.859-0.763-0.959l-0.007-0.001c-0.395-0.096-0.9-0.186-1.413-0.251l-0.073-0.007c-1.92-0.221-3.177 0.158-3.736 1.125-0.203 0.349-0.397 0.943-0.17 1.787 0.336 1.254 1.532 2.775 3.225 4.369 0.539 0.508 1.129 1.023 1.758 1.54 0.457 0.375 0.938 0.754 1.431 1.13q0.494 0.375 1.009 0.75t1.044 0.736c1.588 1.101 3.266 2.157 4.912 3.106q0.896 0.516 1.79 1t1.773 0.926c1.369 0.688 2.709 1.307 3.991 1.839q0.824 0.343 1.613 0.635c0.743 0.276 1.461 0.519 2.144 0.724l0.069 0.021c1.608 0.479 2.964 0.731 4.030 0.75h0.109c1.352 0 2.269-0.399 2.724-1.188 0.568-0.976 0.255-2.27-0.929-3.844z"></path>
</svg>
