<!-- Generated by IcoMoon.io -->
<svg version="1.1" xmlns="http://www.w3.org/2000/svg" width="40" height="40" viewBox="0 0 40 40">
<title>io-pin</title>
<path fill="#fff" d="M25 10c-0-2.761-2.239-5-5-5s-5 2.239-5 5c0 2.407 1.701 4.417 3.967 4.893l0.033 0.006v17.698c0 0.279 0.057 0.545 0.161 0.787l-0.005-0.013 0.629 1.5c0.042 0.077 0.123 0.128 0.215 0.128s0.173-0.051 0.214-0.126l0.001-0.001 0.629-1.5c0.098-0.228 0.156-0.494 0.156-0.774v-17.698c2.297-0.484 3.997-2.493 4-4.899v-0zM21.5 10c-0.828 0-1.5-0.672-1.5-1.5s0.672-1.5 1.5-1.5c0.828 0 1.5 0.672 1.5 1.5v0c0 0.828-0.672 1.5-1.5 1.5v0z"></path>
</svg>
