<!-- Generated by IcoMoon.io -->
<svg version="1.1" xmlns="http://www.w3.org/2000/svg" width="40" height="40" viewBox="0 0 40 40">
<title>io-podium-outline</title>
<path fill="none" stroke-linejoin="round" stroke-linecap="round" stroke-miterlimit="4" stroke-width="2.5" stroke="#fff" d="M6 14v18.5c0 0.276 0.224 0.5 0.5 0.5v0h8.5v-19c0-0.552-0.448-1-1-1v0h-7c-0.552 0-1 0.448-1 1v0z"></path>
<path fill="none" stroke-linejoin="round" stroke-linecap="round" stroke-miterlimit="4" stroke-width="2.5" stroke="#fff" d="M24 7h-8c-0.552 0-1 0.448-1 1v0 25h10v-25c0-0.552-0.448-1-1-1v0z"></path>
<path fill="none" stroke-linejoin="round" stroke-linecap="round" stroke-miterlimit="4" stroke-width="2.5" stroke="#fff" d="M33 17h-7c-0.552 0-1 0.448-1 1v0 15h8.5c0.276 0 0.5-0.224 0.5-0.5v0-14.5c0-0.552-0.448-1-1-1v0z"></path>
</svg>
