<!-- Generated by IcoMoon.io -->
<svg version="1.1" xmlns="http://www.w3.org/2000/svg" width="40" height="40" viewBox="0 0 40 40">
<title>io-power-sharp</title>
<path fill="#fff" d="M20 33c-7.168 0-13-5.827-13-12.989-0-0.012-0-0.027-0-0.042 0-3.997 1.809-7.571 4.652-9.95l0.020-0.017 1.056-0.875 1.761 2.107-1.056 0.875c-2.258 1.89-3.683 4.71-3.683 7.862 0 0.014 0 0.027 0 0.041v-0.002c0 5.649 4.598 10.246 10.25 10.246s10.25-4.596 10.25-10.246c-0-3.175-1.449-6.011-3.722-7.884l-0.017-0.014-1.063-0.875 1.75-2.114 1.063 0.875c2.903 2.392 4.739 5.987 4.739 10.011v0c0 7.162-5.832 12.989-13 12.989z"></path>
<path fill="#fff" d="M18.625 7h2.75v14h-2.75v-14z"></path>
</svg>
