<!-- Generated by IcoMoon.io -->
<svg version="1.1" xmlns="http://www.w3.org/2000/svg" width="40" height="40" viewBox="0 0 40 40">
<title>io-reload</title>
<path fill="none" stroke-linejoin="miter" stroke-linecap="round" stroke-miterlimit="10" stroke-width="2.5" stroke="#fff" d="M29 13.25l-1.32-1.536c-2.184-2.29-5.258-3.714-8.665-3.714-0.005 0-0.010 0-0.016 0h0.001c-6.625 0-12 5.375-12 12s5.375 12 12 12c5.194-0 9.618-3.299 11.29-7.916l0.026-0.084"></path>
<path fill="#fff" d="M33 10.089v6.911c0 0.552-0.448 1-1 1v0h-6.911c-0.891 0-1.337-1.077-0.707-1.707l6.912-6.912c0.63-0.631 1.707-0.184 1.707 0.707z"></path>
</svg>
