<!-- Generated by IcoMoon.io -->
<svg version="1.1" xmlns="http://www.w3.org/2000/svg" width="40" height="40" viewBox="0 0 40 40">
<title>io-radio</title>
<path fill="#fff" d="M22.25 20c0 1.243-1.007 2.25-2.25 2.25s-2.25-1.007-2.25-2.25c0-1.243 1.007-2.25 2.25-2.25s2.25 1.007 2.25 2.25z"></path>
<path fill="#fff" d="M15.89 25.361c-0 0-0.001 0-0.001 0-0.408 0-0.774-0.178-1.026-0.46l-0.001-0.001c-1.156-1.296-1.862-3.015-1.862-4.899s0.706-3.603 1.868-4.906l-0.006 0.007c0.254-0.294 0.627-0.479 1.043-0.479 0.759 0 1.375 0.616 1.375 1.375 0 0.36-0.138 0.687-0.365 0.933l0.001-0.001c-0.725 0.813-1.167 1.89-1.167 3.072s0.443 2.259 1.171 3.076l-0.004-0.005c0.215 0.242 0.347 0.562 0.347 0.913 0 0.759-0.615 1.374-1.374 1.375h-0z"></path>
<path fill="#fff" d="M24.11 25.361c-0.759-0.001-1.374-0.616-1.374-1.375 0-0.351 0.132-0.671 0.348-0.914l-0.001 0.001c0.725-0.813 1.167-1.89 1.167-3.072s-0.443-2.259-1.171-3.076l0.004 0.005c-0.225-0.244-0.364-0.572-0.364-0.932 0-0.759 0.616-1.375 1.375-1.375 0.416 0 0.789 0.185 1.042 0.477l0.001 0.002c1.156 1.296 1.862 3.015 1.862 4.899s-0.706 3.603-1.868 4.906l0.006-0.007c-0.253 0.284-0.619 0.461-1.027 0.461 0 0-0 0-0 0v0z"></path>
<path fill="#fff" d="M12.706 28.545c-0 0-0.001 0-0.001 0-0.396 0-0.753-0.168-1.003-0.437l-0.001-0.001c-1.982-2.117-3.2-4.971-3.2-8.109s1.217-5.992 3.206-8.116l-0.006 0.007c0.252-0.272 0.611-0.441 1.009-0.441 0.759 0 1.375 0.616 1.375 1.375 0 0.366-0.143 0.699-0.377 0.946l0.001-0.001c-1.523 1.626-2.458 3.819-2.458 6.231s0.935 4.604 2.463 6.236l-0.005-0.005c0.229 0.245 0.369 0.575 0.369 0.938 0 0.759-0.614 1.374-1.373 1.375h-0z"></path>
<path fill="#fff" d="M27.294 28.545c-0.759-0.001-1.373-0.616-1.373-1.375 0-0.363 0.14-0.693 0.37-0.938l-0.001 0.001c1.523-1.626 2.458-3.819 2.458-6.231s-0.935-4.604-2.463-6.236l0.005 0.005c-0.233-0.246-0.376-0.579-0.376-0.945 0-0.759 0.616-1.375 1.375-1.375 0.398 0 0.757 0.169 1.008 0.44l0.001 0.001c1.982 2.117 3.2 4.971 3.2 8.109s-1.218 5.992-3.206 8.116l0.006-0.007c-0.251 0.268-0.606 0.434-1.001 0.434-0.001 0-0.003 0-0.004 0h0z"></path>
<path fill="#fff" d="M30.813 31.375c-0.759-0-1.375-0.616-1.375-1.375 0-0.353 0.133-0.675 0.351-0.918l-0.001 0.001c2.149-2.401 3.462-5.589 3.462-9.083s-1.313-6.682-3.474-9.096l0.011 0.013c-0.208-0.239-0.334-0.554-0.334-0.898 0-0.759 0.616-1.375 1.375-1.375 0.398 0 0.756 0.169 1.007 0.439l0.001 0.001c2.583 2.885 4.163 6.717 4.163 10.917s-1.579 8.031-4.176 10.933l0.014-0.016c-0.253 0.282-0.618 0.458-1.024 0.458h-0z"></path>
<path fill="#fff" d="M9.188 31.375c-0.001 0-0.002 0-0.003 0-0.406 0-0.771-0.176-1.022-0.457l-0.001-0.001c-2.583-2.885-4.163-6.717-4.163-10.917s1.579-8.031 4.176-10.932l-0.014 0.016c0.252-0.271 0.61-0.44 1.008-0.44 0.759 0 1.375 0.616 1.375 1.375 0 0.344-0.126 0.659-0.335 0.9l0.001-0.002c-2.149 2.401-3.462 5.589-3.462 9.083s1.313 6.682 3.474 9.096l-0.011-0.013c0.217 0.242 0.35 0.564 0.35 0.917 0 0.759-0.615 1.374-1.373 1.375h-0z"></path>
</svg>
