<!-- Generated by IcoMoon.io -->
<svg version="1.1" xmlns="http://www.w3.org/2000/svg" width="40" height="40" viewBox="0 0 40 40">
<title>io-recording</title>
<path fill="#fff" d="M27.799 13.003c-3.694 0.103-6.695 3.107-6.799 6.801-0.002 0.059-0.003 0.129-0.003 0.199 0 1.854 0.723 3.54 1.904 4.79l-0.003-0.003c0.021 0.022 0.034 0.053 0.034 0.086 0 0.067-0.053 0.122-0.119 0.125h-5.625c-0.069-0.001-0.124-0.056-0.124-0.125 0-0.033 0.013-0.063 0.034-0.086l-0 0c1.18-1.247 1.905-2.934 1.905-4.791 0-0.068-0.001-0.136-0.003-0.204l0 0.010c-0.102-3.694-3.103-6.697-6.797-6.801-0.058-0.002-0.127-0.003-0.196-0.003-3.857 0-6.986 3.116-7.007 6.968v0.002c-0.016 3.89 3.188 7.029 7.078 7.029h15.845c3.89 0 7.093-3.139 7.078-7.029-0.021-3.854-3.15-6.97-7.007-6.97-0.068 0-0.136 0.001-0.203 0.003l0.010-0z"></path>
</svg>
