<!-- Generated by IcoMoon.io -->
<svg version="1.1" xmlns="http://www.w3.org/2000/svg" width="40" height="40" viewBox="0 0 40 40">
<title>io-scan-circle</title>
<path fill="#fff" d="M20 7c-7.168 0-13 5.832-13 13s5.832 13 13 13 13-5.832 13-13-5.832-13-13-13zM17.5 27h-1.75c-1.518-0.002-2.748-1.232-2.75-2.75v-1.75c0-0.552 0.448-1 1-1s1 0.448 1 1v0 1.75c0 0.414 0.336 0.75 0.75 0.75v0h1.75c0.552 0 1 0.448 1 1s-0.448 1-1 1v0zM17.5 15h-1.75c-0.414 0-0.75 0.336-0.75 0.75v0 1.75c0 0.552-0.448 1-1 1s-1-0.448-1-1v0-1.75c0.002-1.518 1.232-2.748 2.75-2.75h1.75c0.552 0 1 0.448 1 1s-0.448 1-1 1v0zM27 24.25c-0.002 1.518-1.232 2.748-2.75 2.75h-1.75c-0.552 0-1-0.448-1-1s0.448-1 1-1v0h1.75c0.414 0 0.75-0.336 0.75-0.75v0-1.75c0-0.552 0.448-1 1-1s1 0.448 1 1v0zM27 17.5c0 0.552-0.448 1-1 1s-1-0.448-1-1v0-1.75c0-0.414-0.336-0.75-0.75-0.75v0h-1.75c-0.552 0-1-0.448-1-1s0.448-1 1-1v0h1.75c1.518 0.002 2.748 1.232 2.75 2.75v0z"></path>
</svg>
