<!-- Generated by IcoMoon.io -->
<svg version="1.1" xmlns="http://www.w3.org/2000/svg" width="40" height="40" viewBox="0 0 40 40">
<title>io-server-outline</title>
<path fill="none" stroke-linejoin="miter" stroke-linecap="round" stroke-miterlimit="10" stroke-width="2.5" stroke="#fff" d="M32 12c0 2.761-5.373 5-12 5s-12-2.239-12-5c0-2.761 5.373-5 12-5s12 2.239 12 5z"></path>
<path fill="none" stroke-linejoin="miter" stroke-linecap="round" stroke-miterlimit="10" stroke-width="2.5" stroke="#fff" d="M32 17.375c0 2.761-5.375 5-12 5s-12-2.239-12-5"></path>
<path fill="none" stroke-linejoin="miter" stroke-linecap="round" stroke-miterlimit="10" stroke-width="2.5" stroke="#fff" d="M32 22.75c0 2.761-5.375 5-12 5s-12-2.239-12-5"></path>
<path fill="none" stroke-linejoin="miter" stroke-linecap="round" stroke-miterlimit="10" stroke-width="2.5" stroke="#fff" d="M8 11.952v16.095c0 2.735 5.375 4.953 12 4.953s12-2.218 12-4.953v-16.095"></path>
</svg>
