<!-- Generated by IcoMoon.io -->
<svg version="1.1" xmlns="http://www.w3.org/2000/svg" width="40" height="40" viewBox="0 0 40 40">
<title>io-stopwatch</title>
<path fill="#fff" d="M21 21c0 0.552-0.448 1-1 1s-1-0.448-1-1c0-0.552 0.448-1 1-1s1 0.448 1 1z"></path>
<path fill="#fff" d="M21.5 9.094v-0.594c0-0.828-0.672-1.5-1.5-1.5s-1.5 0.672-1.5 1.5v0 0.594c-1.996 0.257-3.786 0.971-5.316 2.034l0.039-0.026-0.661-0.664c-0.272-0.272-0.648-0.44-1.062-0.44-0.83 0-1.503 0.673-1.503 1.503 0 0.415 0.168 0.791 0.44 1.062l0.537 0.538c-1.847 2.093-2.975 4.86-2.975 7.889 0 0.004 0 0.008 0 0.011v-0.001c0 6.617 5.383 12 12 12s12-5.383 12-12c0-6.109-4.589-11.166-10.5-11.906zM20 24c-1.656-0.001-2.999-1.343-2.999-3 0-1.298 0.824-2.404 1.978-2.821l0.021-0.007v-4.672c0-0.552 0.448-1 1-1s1 0.448 1 1v0 4.672c1.175 0.425 1.999 1.53 1.999 2.828 0 1.657-1.343 2.999-2.999 3h-0z"></path>
</svg>
