<!-- Generated by IcoMoon.io -->
<svg version="1.1" xmlns="http://www.w3.org/2000/svg" width="40" height="40" viewBox="0 0 40 40">
<title>io-sync-circle-sharp</title>
<path fill="#fff" d="M20 7c-7.179 0-13 5.821-13 13s5.821 13 13 13 13-5.821 13-13-5.821-13-13-13zM20 27c-3.564-0.002-6.506-2.661-6.951-6.104l-0.004-0.035-0.554 0.554-1.414-1.414 2.875-2.875 2.972 2.843-1.383 1.445-0.45-0.43c0.482 2.308 2.499 4.016 4.916 4.016 1.484 0 2.817-0.644 3.735-1.668l0.004-0.005 1.486 1.338c-1.294 1.434-3.158 2.333-5.232 2.336h-0.001zM26.049 22.875l-2.972-2.844 1.383-1.445 0.429 0.409c-0.489-2.297-2.5-3.995-4.908-3.995-1.479 0-2.809 0.641-3.727 1.66l-0.004 0.005-1.489-1.336c1.289-1.432 3.149-2.328 5.218-2.328 3.57 0 6.517 2.668 6.955 6.119l0.004 0.035 0.569-0.57 1.416 1.414z"></path>
</svg>
