<!-- Generated by IcoMoon.io -->
<svg version="1.1" xmlns="http://www.w3.org/2000/svg" width="40" height="40" viewBox="0 0 40 40">
<title>io-search-sharp</title>
<path fill="#fff" d="M33 30.75l-7.755-7.756c1.2-1.633 1.92-3.683 1.92-5.902 0-0.003 0-0.007 0-0.010v0.001c0-5.559-4.523-10.083-10.082-10.083s-10.083 4.523-10.083 10.083 4.523 10.082 10.083 10.082c0.003 0 0.006 0 0.010 0 2.218 0 4.269-0.72 5.93-1.94l-0.028 0.020 7.756 7.755zM17.082 23.981c-0 0-0 0-0.001 0-3.81 0-6.899-3.089-6.899-6.899s3.089-6.899 6.899-6.899c3.81 0 6.899 3.089 6.899 6.899 0 0 0 0 0 0.001v-0c-0.005 3.808-3.090 6.894-6.898 6.898h-0z"></path>
</svg>
