<!-- Generated by IcoMoon.io -->
<svg version="1.1" xmlns="http://www.w3.org/2000/svg" width="40" height="40" viewBox="0 0 40 40">
<title>io-share-social-sharp</title>
<path fill="#fff" d="M27.625 24.25c-0 0-0.001 0-0.001 0-1.188 0-2.265 0.475-3.051 1.245l0.001-0.001-7.948-4.469c0.078-0.308 0.122-0.662 0.122-1.026s-0.045-0.718-0.129-1.056l0.006 0.030 7.946-4.469c0.784 0.764 1.857 1.235 3.040 1.235 2.408 0 4.36-1.952 4.36-4.36s-1.952-4.36-4.36-4.36c-2.408 0-4.36 1.952-4.36 4.36 0 0.241 0.020 0.477 0.057 0.707l-0.003-0.025-8.133 4.575c-0.753-0.631-1.732-1.014-2.8-1.014-2.416 0-4.375 1.959-4.375 4.375s1.959 4.375 4.375 4.375c1.069 0 2.048-0.383 2.807-1.019l-0.007 0.006 8.133 4.578c-0.035 0.207-0.054 0.445-0.054 0.688 0 2.416 1.959 4.375 4.375 4.375s4.375-1.959 4.375-4.375c0-2.416-1.959-4.375-4.375-4.375 0 0-0 0-0 0v0z"></path>
</svg>
