<!-- Generated by IcoMoon.io -->
<svg version="1.1" xmlns="http://www.w3.org/2000/svg" width="40" height="40" viewBox="0 0 40 40">
<title>io-star</title>
<path fill="#fff" d="M28.625 34c-0.001 0-0.003 0-0.004 0-0.219 0-0.421-0.070-0.586-0.19l0.003 0.002-8.038-5.827-8.038 5.827c-0.163 0.119-0.366 0.191-0.587 0.191-0.552 0-1-0.448-1-1 0-0.115 0.019-0.225 0.055-0.328l-0.002 0.007 3.135-9.286-8.125-5.572c-0.264-0.183-0.435-0.484-0.435-0.825 0-0.551 0.446-0.999 0.997-1h10.024l3.025-9.309c0.134-0.405 0.509-0.692 0.951-0.692s0.817 0.287 0.949 0.685l0.002 0.007 3.025 9.313h10.024c0 0 0 0 0.001 0 0.552 0 1 0.448 1 1 0 0.341-0.171 0.642-0.432 0.823l-0.003 0.002-8.128 5.569 3.133 9.283c0.033 0.095 0.053 0.205 0.053 0.32 0 0.552-0.447 0.999-0.998 1h-0z"></path>
</svg>
