<!-- Generated by IcoMoon.io -->
<svg version="1.1" xmlns="http://www.w3.org/2000/svg" width="40" height="40" viewBox="0 0 40 40">
<title>io-send</title>
<path fill="#fff" d="M33.787 18.191l-0.010-0.004-26.692-11.071c-0.168-0.072-0.363-0.114-0.569-0.114-0.306 0-0.589 0.093-0.825 0.252l0.005-0.003c-0.421 0.279-0.696 0.751-0.696 1.287v7.081c0 0.729 0.521 1.337 1.211 1.472l0.009 0.002 14.558 2.692c0.117 0.023 0.203 0.124 0.203 0.246s-0.087 0.223-0.202 0.245l-0.002 0-14.558 2.692c-0.699 0.136-1.22 0.743-1.221 1.472v7.082c0 0 0 0.001 0 0.001 0 0.512 0.261 0.962 0.656 1.226l0.005 0.003c0.232 0.156 0.518 0.25 0.826 0.25h0c0.215-0 0.419-0.045 0.605-0.124l-0.010 0.004 26.704-11.014c0.718-0.314 1.21-1.018 1.21-1.837s-0.492-1.523-1.197-1.832l-0.013-0.005z"></path>
</svg>
