<!-- Generated by IcoMoon.io -->
<svg version="1.1" xmlns="http://www.w3.org/2000/svg" width="40" height="40" viewBox="0 0 40 40">
<title>io-snow-sharp</title>
<path fill="#fff" d="M31.992 23.579l1.203-0.665-1.33-2.407-1.203 0.665c-0.944 0.529-1.743 1.199-2.397 1.992l-0.011 0.014-5.504-3.179 5.504-3.179c0.666 0.807 1.464 1.478 2.367 1.985l0.042 0.022 1.203 0.665 1.33-2.407-1.203-0.665c-0.501-0.28-0.932-0.612-1.307-0.999l-0.001-0.001 3.315-1.918-1.375-2.378-3.313 1.911c-0.136-0.459-0.215-0.986-0.215-1.531 0-0.036 0-0.073 0.001-0.109l-0 0.005 0.026-1.375-2.75-0.051-0.026 1.375c-0.001 0.046-0.001 0.1-0.001 0.154 0 1.054 0.195 2.062 0.551 2.99l-0.019-0.057-5.504 3.181v-6.357c1.107-0.187 2.096-0.566 2.978-1.104l-0.037 0.021 1.177-0.709-1.419-2.356-1.178 0.709c-0.438 0.268-0.945 0.485-1.483 0.623l-0.039 0.008v-3.454h-2.75v3.454c-0.577-0.147-1.084-0.364-1.547-0.646l0.025 0.014-1.177-0.709-1.419 2.356 1.178 0.709c0.845 0.517 1.835 0.896 2.892 1.076l0.049 0.007v6.357l-5.504-3.181c0.338-0.873 0.534-1.883 0.534-2.94 0-0.053-0.001-0.105-0.001-0.158l0 0.008-0.026-1.375-2.75 0.051 0.026 1.375c0.001 0.031 0.001 0.067 0.001 0.103 0 0.545-0.078 1.072-0.225 1.571l0.010-0.039-3.315-1.909-1.375 2.381 3.316 1.915c-0.376 0.388-0.807 0.72-1.28 0.986l-0.028 0.014-1.203 0.664 1.33 2.407 1.203-0.665c0.944-0.529 1.743-1.199 2.397-1.992l0.011-0.014 5.504 3.179-5.504 3.179c-0.666-0.807-1.464-1.478-2.367-1.985l-0.042-0.022-1.202-0.665-1.33 2.407 1.203 0.665c0.501 0.28 0.932 0.612 1.307 0.999l0.001 0.001-3.316 1.921 1.375 2.381 3.316-1.914c0.136 0.459 0.215 0.986 0.215 1.531 0 0.036-0 0.073-0.001 0.109l0-0.005-0.026 1.375 2.75 0.051 0.026-1.375c0.001-0.044 0.001-0.096 0.001-0.149 0-1.057-0.196-2.068-0.554-2.998l0.019 0.057 5.504-3.181v6.357c-1.107 0.187-2.096 0.566-2.978 1.104l0.037-0.021-1.178 0.709 1.419 2.356 1.178-0.709c0.438-0.268 0.945-0.485 1.483-0.623l0.039-0.008v3.454h2.75v-3.454c0.577 0.147 1.084 0.364 1.547 0.646l-0.025-0.014 1.177 0.709 1.419-2.356-1.177-0.709c-0.845-0.517-1.835-0.896-2.892-1.076l-0.049-0.007v-6.357l5.504 3.181c-0.338 0.873-0.534 1.883-0.534 2.94 0 0.053 0.001 0.105 0.001 0.158l-0-0.008 0.026 1.375 2.75-0.051-0.026-1.375c-0.001-0.029-0.001-0.063-0.001-0.097 0-0.548 0.079-1.078 0.227-1.579l-0.010 0.039 3.313 1.914 1.375-2.378-3.313-1.918c0.376-0.389 0.805-0.722 1.277-0.988l0.028-0.014z"></path>
</svg>
