<!-- Generated by IcoMoon.io -->
<svg version="1.1" xmlns="http://www.w3.org/2000/svg" width="40" height="40" viewBox="0 0 40 40">
<title>io-snow</title>
<path fill="#fff" d="M32.813 25.813l-2.125-1.227c0.377-0.388 0.807-0.72 1.281-0.985l0.028-0.015c0.421-0.241 0.7-0.687 0.7-1.198 0-0.759-0.616-1.375-1.375-1.375-0.24 0-0.466 0.061-0.662 0.169l0.007-0.004c-0.944 0.529-1.743 1.199-2.398 1.992l-0.011 0.014-5.507-3.184 5.506-3.179c0.666 0.807 1.465 1.478 2.367 1.985l0.042 0.022c0.194 0.111 0.427 0.177 0.675 0.177 0.759 0 1.375-0.616 1.375-1.375 0-0.519-0.288-0.972-0.713-1.206l-0.007-0.004c-0.501-0.28-0.932-0.613-1.307-0.999l-0.001-0.001 2.125-1.227c0.436-0.236 0.727-0.691 0.727-1.213 0-0.759-0.616-1.375-1.375-1.375-0.269 0-0.519 0.077-0.731 0.21l0.006-0.003-2.125 1.227c-0.136-0.46-0.215-0.989-0.215-1.537 0-0.034 0-0.069 0.001-0.103l-0 0.005c0-0.009 0-0.020 0-0.030 0-0.75-0.601-1.36-1.348-1.375l-0.001-0h-0.026c-0 0-0 0-0 0-0.75 0-1.36 0.601-1.375 1.348l-0 0.001c-0.001 0.046-0.001 0.099-0.001 0.153 0 1.054 0.195 2.063 0.552 2.992l-0.019-0.057-5.506 3.181v-6.357c1.107-0.187 2.097-0.566 2.979-1.104l-0.037 0.021c0.401-0.245 0.665-0.681 0.665-1.178 0-0.759-0.616-1.375-1.375-1.375-0.262 0-0.507 0.073-0.716 0.201l0.006-0.003c-0.438 0.268-0.945 0.485-1.484 0.623l-0.039 0.008v-2.079c0-0.759-0.616-1.375-1.375-1.375s-1.375 0.616-1.375 1.375v0 2.079c-0.577-0.147-1.084-0.364-1.547-0.646l0.025 0.014c-0.202-0.124-0.448-0.197-0.71-0.197-0.759 0-1.375 0.616-1.375 1.375 0 0.497 0.264 0.933 0.659 1.174l0.006 0.003c0.845 0.517 1.835 0.896 2.893 1.076l0.049 0.007v6.357l-5.506-3.181c0.338-0.873 0.534-1.882 0.534-2.938 0-0.053-0.001-0.106-0.001-0.159l0 0.008c-0.014-0.748-0.624-1.349-1.375-1.349-0 0-0 0-0 0h-0.027c-0.748 0.014-1.35 0.624-1.35 1.375 0 0.009 0 0.018 0 0.027l-0-0.001c0.001 0.030 0.001 0.066 0.001 0.102 0 0.547-0.078 1.075-0.224 1.574l0.010-0.040-2.125-1.224c-0.201-0.122-0.444-0.194-0.704-0.194-0.759 0-1.375 0.616-1.375 1.375 0 0.513 0.281 0.961 0.698 1.197l0.007 0.004 2.125 1.227c-0.377 0.388-0.807 0.72-1.281 0.985l-0.028 0.015c-0.432 0.237-0.72 0.69-0.72 1.209 0 0.759 0.616 1.375 1.375 1.375 0.248 0 0.481-0.066 0.682-0.181l-0.007 0.004c0.944-0.529 1.743-1.199 2.398-1.992l0.011-0.014 5.507 3.178-5.506 3.179c-0.666-0.807-1.465-1.477-2.367-1.985l-0.042-0.022c-0.194-0.111-0.427-0.177-0.675-0.177-0.759 0-1.375 0.616-1.375 1.375 0 0.519 0.288 0.972 0.713 1.206l0.007 0.004c0.501 0.28 0.932 0.612 1.307 0.999l0.001 0.001-2.126 1.233c-0.423 0.24-0.704 0.687-0.704 1.2 0 0.759 0.616 1.375 1.375 1.375 0.26 0 0.503-0.072 0.711-0.198l-0.006 0.003 2.125-1.227c0.136 0.46 0.215 0.989 0.215 1.537 0 0.034-0 0.069-0.001 0.103l0-0.005c-0 0.007-0 0.016-0 0.024 0 0.75 0.601 1.36 1.348 1.375l0.001 0h0.026c0 0 0 0 0 0 0.75 0 1.36-0.601 1.375-1.348l0-0.001c0.001-0.046 0.001-0.099 0.001-0.153 0-1.054-0.195-2.063-0.552-2.992l0.019 0.057 5.506-3.181v6.357c-1.107 0.187-2.097 0.566-2.979 1.104l0.037-0.021c-0.401 0.245-0.665 0.681-0.665 1.178 0 0.759 0.616 1.375 1.375 1.375 0.262 0 0.507-0.073 0.716-0.201l-0.006 0.003c0.438-0.268 0.945-0.485 1.484-0.623l0.039-0.008v2.079c0 0.759 0.616 1.375 1.375 1.375s1.375-0.616 1.375-1.375v0-2.079c0.577 0.147 1.084 0.364 1.547 0.646l-0.025-0.014c0.202 0.124 0.447 0.197 0.71 0.197 0.759 0 1.375-0.616 1.375-1.375 0-0.497-0.264-0.933-0.659-1.174l-0.006-0.003c-0.845-0.517-1.835-0.896-2.893-1.076l-0.049-0.007v-6.357l5.506 3.181c-0.338 0.873-0.534 1.882-0.534 2.938 0 0.053 0.001 0.106 0.001 0.159l-0-0.008c0.014 0.748 0.624 1.349 1.375 1.349 0 0 0 0 0 0h0.027c0.748-0.014 1.35-0.624 1.35-1.375 0-0.009-0-0.018-0-0.027l0 0.001c-0.001-0.030-0.001-0.066-0.001-0.102 0-0.547 0.078-1.075 0.224-1.574l-0.010 0.040 2.125 1.227c0.21 0.137 0.467 0.218 0.743 0.218 0.759 0 1.375-0.616 1.375-1.375 0-0.528-0.298-0.987-0.735-1.218l-0.008-0.004z"></path>
</svg>
