<!-- Generated by IcoMoon.io -->
<svg version="1.1" xmlns="http://www.w3.org/2000/svg" width="40" height="40" viewBox="0 0 40 40">
<title>io-train-outline</title>
<path fill="none" stroke-linejoin="round" stroke-linecap="round" stroke-miterlimit="4" stroke-width="2.5" stroke="#fff" d="M25.5 7h-1.5c0-0.552-0.448-1-1-1v0h-6c-0.552 0-1 0.448-1 1v0h-1.5c-1.931 0.006-3.494 1.569-3.5 3.499v15.438c0 2.206 9 4.063 9 4.063s9-1.856 9-4.063v-15.438c0-1.933-1.567-3.5-3.5-3.5v0zM20 26c-1.657 0-3-1.343-3-3s1.343-3 3-3c1.657 0 3 1.343 3 3v0c0 1.657-1.343 3-3 3v0zM26 16c0 0.552-0.448 1-1 1v0h-10c-0.552 0-1-0.448-1-1v0-4c0-0.552 0.448-1 1-1v0h10c0.552 0 1 0.448 1 1v0z"></path>
<path fill="none" stroke-linejoin="round" stroke-linecap="round" stroke-miterlimit="4" stroke-width="2.5" stroke="#fff" d="M13 33h14"></path>
<path fill="none" stroke-linejoin="round" stroke-linecap="round" stroke-miterlimit="4" stroke-width="2.5" stroke="#fff" d="M25 31l3 3"></path>
<path fill="none" stroke-linejoin="round" stroke-linecap="round" stroke-miterlimit="4" stroke-width="2.5" stroke="#fff" d="M15 31l-3 3"></path>
</svg>
