<!-- Generated by IcoMoon.io -->
<svg version="1.1" xmlns="http://www.w3.org/2000/svg" width="40" height="40" viewBox="0 0 40 40">
<title>io-thermometer-sharp</title>
<path fill="#fff" d="M24 22.203v-13.202c0-2.209-1.791-4-4-4s-4 1.791-4 4v0 13.202c-1.824 1.299-3 3.407-3 5.79 0 0.003 0 0.005 0 0.008v-0c0 3.866 3.134 7 7 7s7-3.134 7-7v0c0-0.002 0-0.005 0-0.008 0-2.382-1.176-4.49-2.978-5.775l-0.022-0.015zM20 31c-0 0-0.001 0-0.001 0-1.657 0-3-1.343-3-3 0-1.299 0.825-2.405 1.98-2.822l0.021-0.007v-15.171h2v15.171c1.176 0.424 2.001 1.53 2.001 2.829 0 1.657-1.343 3-3 3-0 0-0.001 0-0.001 0h0z"></path>
</svg>
