<!-- Generated by IcoMoon.io -->
<svg version="1.1" xmlns="http://www.w3.org/2000/svg" width="40" height="40" viewBox="0 0 40 40">
<title>io-timer-outline</title>
<path fill="none" stroke-linejoin="round" stroke-linecap="round" stroke-miterlimit="4" stroke-width="2.5" stroke="#fff" d="M11.057 12c-1.87 2.082-3.025 4.841-3.057 7.868l-0 0.007c-0.074 6.647 5.353 12.112 12 12.125 6.638 0.013 12-5.364 12-12 0-6.534-5.222-11.851-11.719-12-0.003-0-0.006-0-0.009-0-0.151 0-0.272 0.122-0.272 0.272 0 0 0 0.001 0 0.001v-0 5.227"></path>
<path fill="#fff" d="M18.586 21.414l-4.938-7.063c-0.057-0.081-0.091-0.182-0.091-0.291 0-0.281 0.228-0.508 0.508-0.508 0.109 0 0.21 0.034 0.292 0.093l-0.002-0.001 7.063 4.938c0.514 0.373 0.844 0.972 0.844 1.648 0 1.122-0.909 2.031-2.031 2.031-0.426 0-0.821-0.131-1.148-0.355l0.007 0.004c-0.197-0.138-0.364-0.302-0.5-0.49l-0.004-0.006z"></path>
</svg>
