<!-- Generated by IcoMoon.io -->
<svg version="1.1" xmlns="http://www.w3.org/2000/svg" width="40" height="40" viewBox="0 0 40 40">
<title>io-telescope-outline</title>
<path fill="none" stroke-linejoin="round" stroke-linecap="round" stroke-miterlimit="4" stroke-width="2.5" stroke="#fff" d="M6.496 24.473l-0.294-0.508c-0.126-0.215-0.201-0.474-0.201-0.75 0-0.552 0.298-1.035 0.743-1.295l0.007-0.004 5.429-3.129c0.144-0.085 0.317-0.135 0.501-0.135 0.369 0 0.691 0.199 0.864 0.496l0.003 0.005 0.794 1.375c0.084 0.143 0.134 0.316 0.134 0.5 0 0.368-0.199 0.69-0.495 0.863l-0.005 0.003-5.428 3.129c-0.215 0.126-0.474 0.201-0.751 0.201-0.553 0-1.036-0.298-1.297-0.743l-0.004-0.007z"></path>
<path fill="none" stroke-linejoin="round" stroke-linecap="round" stroke-miterlimit="4" stroke-width="2.5" stroke="#fff" d="M14.668 21.107l-1.473-2.545c-0.126-0.215-0.201-0.473-0.201-0.749 0-0.553 0.299-1.035 0.744-1.296l0.007-0.004 7.779-4.484c0.144-0.085 0.317-0.135 0.501-0.135 0.369 0 0.691 0.199 0.864 0.496l0.003 0.005 1.973 3.412c0.084 0.143 0.134 0.316 0.134 0.5 0 0.368-0.198 0.689-0.494 0.863l-0.005 0.003-7.781 4.484c-0.216 0.127-0.475 0.202-0.752 0.202-0.553 0-1.036-0.299-1.296-0.744l-0.004-0.007z"></path>
<path fill="none" stroke-linejoin="round" stroke-linecap="round" stroke-miterlimit="4" stroke-width="2.5" stroke="#fff" d="M25.366 16.638l-2.907-5.027c-0.126-0.215-0.201-0.473-0.201-0.749 0-0.553 0.299-1.035 0.744-1.296l0.007-0.004 5.831-3.361c0.216-0.126 0.475-0.201 0.751-0.201 0.553 0 1.036 0.298 1.298 0.743l0.004 0.007 2.907 5.027c0.126 0.215 0.201 0.474 0.201 0.75 0 0.553-0.299 1.035-0.744 1.296l-0.007 0.004-5.831 3.361c-0.216 0.126-0.475 0.201-0.751 0.201-0.553 0-1.036-0.299-1.298-0.743l-0.004-0.007z"></path>
<path fill="none" stroke-linejoin="round" stroke-linecap="round" stroke-miterlimit="4" stroke-width="2.5" stroke="#fff" d="M11.974 34l6.009-12.999"></path>
<path fill="none" stroke-linejoin="round" stroke-linecap="round" stroke-miterlimit="4" stroke-width="2.5" stroke="#fff" d="M20.987 20.001l6.047 11.999"></path>
</svg>
