<!-- Generated by IcoMoon.io -->
<svg version="1.1" xmlns="http://www.w3.org/2000/svg" width="40" height="40" viewBox="0 0 40 40">
<title>io-volume-off-outline</title>
<path fill="none" stroke-linejoin="round" stroke-linecap="round" stroke-miterlimit="4" stroke-width="2.5" stroke="#fff" d="M18.853 16h-4.353c-0.276 0-0.5 0.224-0.5 0.5v0 7c0 0.276 0.224 0.5 0.5 0.5v0h4.353c0.241 0 0.463 0.086 0.635 0.228l-0.002-0.001 5.717 4.688c0.082 0.061 0.185 0.097 0.296 0.097 0.276 0 0.5-0.224 0.5-0.5 0-0 0-0.001 0-0.001v0-17.021c-0-0.276-0.224-0.5-0.5-0.5-0.111 0-0.214 0.036-0.298 0.098l0.001-0.001-5.717 4.688c-0.171 0.14-0.392 0.226-0.633 0.226-0 0-0.001 0-0.001 0h0z"></path>
</svg>
