<!-- Generated by IcoMoon.io -->
<svg version="1.1" xmlns="http://www.w3.org/2000/svg" width="40" height="40" viewBox="0 0 40 40">
<title>io-volume-mute-sharp</title>
<path fill="none" stroke-linejoin="miter" stroke-linecap="square" stroke-miterlimit="10" stroke-width="2.5" stroke="#fff" d="M30 31l-22-22"></path>
<path fill="#fff" d="M26 20c0-1.535-0.363-2.992-1.109-4.454l-0.453-0.891-1.782 0.908 0.454 0.891c0.599 1.176 0.891 2.336 0.891 3.547-0 0.259-0.015 0.514-0.042 0.765l0.003-0.031 1.708 1.707c0.209-0.731 0.33-1.572 0.332-2.44v-0.001z"></path>
<path fill="#fff" d="M30 20c0-3.199-0.817-5.243-2.136-7.504l-0.504-0.864-1.728 1.007 0.504 0.864c1.181 2.024 1.864 3.736 1.864 6.496 0 1.621-0.243 2.888-0.688 4.083l1.531 1.532c0.731-1.635 1.156-3.339 1.156-5.615z"></path>
<path fill="#fff" d="M34 20c0-4.641-1.262-7.569-3.157-10.538l-0.538-0.843-1.688 1.076 0.538 0.843c1.708 2.673 2.844 5.306 2.844 9.462 0 3.048-0.587 5.25-1.551 7.222l1.481 1.481c1.455-2.741 2.070-5.391 2.070-8.703z"></path>
<path fill="#fff" d="M20 8.5l-4.6 3.674 4.6 4.599v-8.273z"></path>
<path fill="#fff" d="M6 15.006v9.988h5.853l8.147 6.506v-6.273l-10.221-10.221h-3.779z"></path>
</svg>
