<!-- Generated by IcoMoon.io -->
<svg version="1.1" xmlns="http://www.w3.org/2000/svg" width="40" height="40" viewBox="0 0 40 40">
<title>io-videocam-off</title>
<path fill="#fff" d="M25 15.22c0-2.331-1.889-4.22-4.22-4.22v0h-4.95c-0.138 0-0.25 0.112-0.25 0.25 0 0.069 0.028 0.132 0.073 0.177v0l8.919 8.919c0.045 0.045 0.108 0.073 0.177 0.073 0.138 0 0.25-0.112 0.25-0.25v-0z"></path>
<path fill="#fff" d="M5 15.25v9.5c0 2.347 1.903 4.25 4.25 4.25v0h11.5c0.001 0 0.002 0 0.004 0 1.018 0 1.951-0.359 2.681-0.958l-0.007 0.006c0.058-0.046 0.096-0.117 0.096-0.197 0-0.070-0.029-0.133-0.075-0.178l-16.048-16.048c-0.045-0.045-0.108-0.074-0.177-0.074-0.047 0-0.091 0.013-0.128 0.035l0.001-0.001c-1.263 0.752-2.096 2.111-2.096 3.664v0z"></path>
<path fill="#fff" d="M33 28.024c-0.294-0-0.574-0.064-0.825-0.178l0.013 0.005c-0.065-0.029-0.121-0.061-0.172-0.098l0.003 0.002-5.169-3.639c-0.516-0.367-0.849-0.962-0.849-1.635v-4.963c0-0.673 0.333-1.268 0.843-1.631l0.006-0.004 5.169-3.639c0.049-0.035 0.104-0.067 0.163-0.094l0.006-0.003c0.239-0.109 0.518-0.172 0.812-0.172 1.105 0 2 0.895 2 2v0 12.048c0 1.105-0.895 2-2 2v0z"></path>
<path fill="none" stroke-linejoin="miter" stroke-linecap="round" stroke-miterlimit="10" stroke-width="2.5" stroke="#fff" d="M30 30l-21-21"></path>
</svg>
