<!-- Generated by IcoMoon.io -->
<svg version="1.1" xmlns="http://www.w3.org/2000/svg" width="24" height="24" viewBox="0 0 24 24">
<title>language</title>
<path fill="#fff" d="M15.487 13.612h2.7q0.225-1.050 0.225-1.613t-0.225-1.612h-2.7q0.112 0.787 0.112 1.612t-0.112 1.613zM14.063 18.038q0.938-0.3 1.95-1.144t1.537-1.706h-2.362q-0.375 1.5-1.125 2.85zM13.875 13.612q0.112-0.787 0.112-1.613t-0.112-1.612h-3.75q-0.113 0.787-0.113 1.612t0.113 1.613h3.75zM12 18.375q1.050-1.538 1.538-3.188h-3.075q0.488 1.65 1.537 3.188zM8.813 8.813q0.45-1.613 1.125-2.85-0.938 0.3-1.969 1.144t-1.519 1.706h2.363zM6.45 15.188q0.488 0.862 1.519 1.706t1.969 1.144q-0.75-1.35-1.125-2.85h-2.363zM5.813 13.612h2.7q-0.113-0.787-0.113-1.613t0.113-1.612h-2.7q-0.225 1.050-0.225 1.612t0.225 1.613zM12 5.625q-1.050 1.538-1.538 3.188h3.075q-0.487-1.65-1.538-3.188zM17.55 8.813q-0.525-0.863-1.537-1.706t-1.95-1.144q0.675 1.237 1.125 2.85h2.363zM12 4.012q3.3 0 5.644 2.344t2.344 5.644-2.344 5.644-5.644 2.344-5.644-2.344-2.344-5.644 2.344-5.644 5.644-2.344z"></path>
</svg>
