<!-- Generated by IcoMoon.io -->
<svg version="1.1" xmlns="http://www.w3.org/2000/svg" width="40" height="40" viewBox="0 0 40 40">
<title>li-arrows_rotate_anti_dashed</title>
<path fill="none" stroke-linejoin="miter" stroke-linecap="butt" stroke-miterlimit="10" stroke-width="1.25" stroke="#fff" d="M19.5 4.5c-0.334 0-0.666 0.011-0.999 0.033"></path>
<path fill="none" stroke-linejoin="miter" stroke-linecap="butt" stroke-miterlimit="10" stroke-width="1.25" stroke="#fff" d="M17.464 4.638c-3.135 0.427-6.161 1.846-8.571 4.256-5.349 5.349-5.814 13.731-1.396 19.606l1.923 1.924"></path>
<path fill="none" stroke-linejoin="miter" stroke-linecap="butt" stroke-miterlimit="10" stroke-width="1.25" stroke="#fff" d="M9.792 30.794l0.707 0.707"></path>
<path fill="none" stroke-linejoin="miter" stroke-linecap="butt" stroke-miterlimit="10" stroke-width="1.25" stroke="#fff" d="M20.5 35.5c0.334 0 0.666-0.011 0.999-0.033"></path>
<path fill="none" stroke-linejoin="miter" stroke-linecap="butt" stroke-miterlimit="10" stroke-width="1.25" stroke="#fff" d="M22.536 35.362c3.135-0.427 6.161-1.846 8.571-4.256 5.349-5.349 5.814-13.731 1.396-19.606l-1.923-1.924"></path>
<path fill="none" stroke-linejoin="miter" stroke-linecap="butt" stroke-miterlimit="10" stroke-width="1.25" stroke="#fff" d="M30.208 9.206l-0.707-0.707"></path>
<path fill="none" stroke-linejoin="bevel" stroke-linecap="butt" stroke-miterlimit="10" stroke-width="1.25" stroke="#fff" d="M10.5 26v5.5h-5.5"></path>
<path fill="none" stroke-linejoin="bevel" stroke-linecap="butt" stroke-miterlimit="10" stroke-width="1.25" stroke="#fff" d="M29.5 14v-5.5h5.5"></path>
</svg>
