<!-- Generated by IcoMoon.io -->
<svg version="1.1" xmlns="http://www.w3.org/2000/svg" width="40" height="40" viewBox="0 0 40 40">
<title>li-basic_target</title>
<path fill="none" stroke-linejoin="miter" stroke-linecap="butt" stroke-miterlimit="10" stroke-width="1.25" stroke="#fff" d="M30.96 9.041c6.054 6.052 6.054 15.866 0 21.919-6.053 6.054-15.867 6.054-21.92 0-6.054-6.052-6.054-15.866 0-21.919 6.053-6.054 15.866-6.054 21.92 0z"></path>
<path fill="none" stroke-linejoin="miter" stroke-linecap="butt" stroke-miterlimit="10" stroke-width="1.25" stroke="#fff" d="M31.499 20c0 6.351-5.149 11.499-11.499 11.499s-11.499-5.149-11.499-11.499c0-6.351 5.149-11.499 11.499-11.499s11.499 5.149 11.499 11.499z"></path>
<path fill="none" stroke-linejoin="miter" stroke-linecap="butt" stroke-miterlimit="10" stroke-width="1.25" stroke="#fff" d="M27.5 20c0 4.142-3.358 7.5-7.5 7.5s-7.5-3.358-7.5-7.5c0-4.142 3.358-7.5 7.5-7.5s7.5 3.358 7.5 7.5z"></path>
<path fill="none" stroke-linejoin="miter" stroke-linecap="butt" stroke-miterlimit="10" stroke-width="1.25" stroke="#fff" d="M23.499 20c0 1.933-1.567 3.499-3.499 3.499s-3.499-1.567-3.499-3.499c0-1.933 1.567-3.499 3.499-3.499s3.499 1.567 3.499 3.499z"></path>
</svg>
