<!-- Generated by IcoMoon.io -->
<svg version="1.1" xmlns="http://www.w3.org/2000/svg" width="40" height="40" viewBox="0 0 40 40">
<title>li-basic_gear</title>
<path fill="none" stroke-linejoin="miter" stroke-linecap="butt" stroke-miterlimit="10" stroke-width="1.25" stroke="#fff" d="M20 4.5h-3v4.5l-3 1-3-3-4 4 3 3-1 3h-4.5v6h4.5l1 3-3 3 4 4 3-3 3 1v4.5h6v-4.5l3-1 3 3 4-4-3-3 1-3h4.5v-6h-4.5l-1-3 3-3-4-4-3 3-3-1v-4.5z"></path>
<path fill="none" stroke-linejoin="miter" stroke-linecap="butt" stroke-miterlimit="10" stroke-width="1.25" stroke="#fff" d="M23 20c0 1.657-1.343 3-3 3s-3-1.343-3-3c0-1.657 1.343-3 3-3s3 1.343 3 3z"></path>
</svg>
