<!-- Generated by IcoMoon.io -->
<svg version="1.1" xmlns="http://www.w3.org/2000/svg" width="40" height="40" viewBox="0 0 40 40">
<title>li-basic_compass</title>
<path fill="none" stroke-linejoin="miter" stroke-linecap="butt" stroke-miterlimit="10" stroke-width="1.25" stroke="#fff" d="M34.146 21.5c0 7.813-6.333 14.146-14.146 14.146s-14.146-6.333-14.146-14.146c0-7.813 6.333-14.146 14.146-14.146s14.146 6.333 14.146 14.146z"></path>
<path fill="none" stroke-linejoin="bevel" stroke-linecap="butt" stroke-miterlimit="10" stroke-width="1.25" stroke="#fff" d="M22.5 24l4-9.5-9.5 4-3.5 9z"></path>
<path fill="none" stroke-linejoin="miter" stroke-linecap="butt" stroke-miterlimit="10" stroke-width="1.25" stroke="#fff" d="M17 18.5l5.5 5.5"></path>
<path fill="none" stroke-linejoin="miter" stroke-linecap="butt" stroke-miterlimit="10" stroke-width="1.25" stroke="#fff" d="M22.45 7.5c0.032-0.161 0.050-0.329 0.050-0.5 0-1.381-1.119-2.5-2.5-2.5s-2.5 1.119-2.5 2.5c0 0.171 0.017 0.339 0.050 0.5"></path>
<path fill="none" stroke-linejoin="miter" stroke-linecap="butt" stroke-miterlimit="10" stroke-width="1.25" stroke="#fff" d="M20 7.5v2.5"></path>
<path fill="none" stroke-linejoin="miter" stroke-linecap="butt" stroke-miterlimit="10" stroke-width="1.25" stroke="#fff" d="M20 33v2.5"></path>
<path fill="none" stroke-linejoin="miter" stroke-linecap="butt" stroke-miterlimit="10" stroke-width="1.25" stroke="#fff" d="M34 21.5h-2.5"></path>
<path fill="none" stroke-linejoin="miter" stroke-linecap="butt" stroke-miterlimit="10" stroke-width="1.25" stroke="#fff" d="M8.5 21.5h-2.5"></path>
</svg>
