<!-- Generated by IcoMoon.io -->
<svg version="1.1" xmlns="http://www.w3.org/2000/svg" width="40" height="40" viewBox="0 0 40 40">
<title>li-ecommerce_receipt_dollar</title>
<path fill="none" stroke-linejoin="miter" stroke-linecap="butt" stroke-miterlimit="10" stroke-width="1.25" stroke="#fff" d="M30 35.499v-31h-13l-7 7v24.001l2-1 2 1 2-1 2 1 2-1 2 1 2-1 2 1 2-1z"></path>
<path fill="none" stroke-linejoin="miter" stroke-linecap="butt" stroke-miterlimit="10" stroke-width="1.25" stroke="#fff" d="M10 11.499h7v-7"></path>
<path fill="none" stroke-linejoin="miter" stroke-linecap="butt" stroke-miterlimit="10" stroke-width="1.25" stroke="#fff" d="M23 18c0 0 0.081-2-3-2s-3 1.5-3 2.5 0.261 2 3 2c3.081 0 3.5 2.157 3.5 2.5 0 0.684 0.265 3-3.5 3-3.081 0-3-1.657-3-2"></path>
<path fill="none" stroke-linejoin="miter" stroke-linecap="butt" stroke-miterlimit="10" stroke-width="1.25" stroke="#fff" d="M21 14.5v13.5"></path>
<path fill="none" stroke-linejoin="miter" stroke-linecap="butt" stroke-miterlimit="10" stroke-width="1.25" stroke="#fff" d="M19 14.5v13.5"></path>
</svg>
