<!-- Generated by IcoMoon.io -->
<svg version="1.1" xmlns="http://www.w3.org/2000/svg" width="40" height="40" viewBox="0 0 40 40">
<title>li-ecommerce_bag_cloud</title>
<path fill="none" stroke-linejoin="miter" stroke-linecap="butt" stroke-miterlimit="10" stroke-width="1.25" stroke="#fff" d="M26 13h5v22.5h-22v-22.5h5z"></path>
<path fill="none" stroke-linejoin="miter" stroke-linecap="butt" stroke-miterlimit="10" stroke-width="1.25" stroke="#fff" d="M15 16v-6.5c0-2.761 2.239-5 5-5s5 2.239 5 5v6.5"></path>
<path fill="none" stroke-linejoin="miter" stroke-linecap="butt" stroke-miterlimit="10" stroke-width="1.25" stroke="#fff" d="M21.444 28h2.056c0.944 0 1.5-0.5 1.5-1.5 0-0.5-0.5-1.5-1.5-1.5 0-1.802-1.639-3-3.5-3-1.648 0-3.206 1.489-3.5 3v0c-1 0-1.5 1-1.5 1.5 0 1 0.5 1.5 1.5 1.5h5.217"></path>
</svg>
