<!-- Generated by IcoMoon.io -->
<svg version="1.1" xmlns="http://www.w3.org/2000/svg" width="40" height="40" viewBox="0 0 40 40">
<title>li-ecommerce_cart_refresh</title>
<path fill="none" stroke-linejoin="miter" stroke-linecap="butt" stroke-miterlimit="10" stroke-width="1.25" stroke="#fff" d="M17 32.5c0 1.657-1.343 3-3 3s-3-1.343-3-3c0-1.657 1.343-3 3-3s3 1.343 3 3z"></path>
<path fill="none" stroke-linejoin="miter" stroke-linecap="butt" stroke-miterlimit="10" stroke-width="1.25" stroke="#fff" d="M29 32.5c0 1.657-1.343 3-3 3s-3-1.343-3-3c0-1.657 1.343-3 3-3s3 1.343 3 3z"></path>
<path fill="none" stroke-linejoin="miter" stroke-linecap="butt" stroke-miterlimit="10" stroke-width="1.25" stroke="#fff" d="M17 32.5h6"></path>
<path fill="none" stroke-linejoin="miter" stroke-linecap="butt" stroke-miterlimit="10" stroke-width="1.25" stroke="#fff" d="M11 32.5l-2-27.5h-5"></path>
<path fill="none" stroke-linejoin="miter" stroke-linecap="butt" stroke-miterlimit="10" stroke-width="1.25" stroke="#fff" d="M10.5 25.5l21.5-1.5 3.5-15h-26"></path>
<path fill="none" stroke-linejoin="miter" stroke-linecap="butt" stroke-miterlimit="10" stroke-width="1.25" stroke="#fff" d="M18 17c0 2.209 1.791 4.5 4 4.5h2"></path>
<path fill="none" stroke-linejoin="bevel" stroke-linecap="butt" stroke-miterlimit="10" stroke-width="1.25" stroke="#fff" d="M22.5 23.5l1.5-2-1.5-2"></path>
<path fill="none" stroke-linejoin="miter" stroke-linecap="butt" stroke-miterlimit="10" stroke-width="1.25" stroke="#fff" d="M27 17c0-2.209-1.791-4.5-4-4.5h-2"></path>
<path fill="none" stroke-linejoin="bevel" stroke-linecap="butt" stroke-miterlimit="10" stroke-width="1.25" stroke="#fff" d="M22.5 10.5l-1.5 2 1.5 2"></path>
</svg>
