<!-- Generated by IcoMoon.io -->
<svg version="1.1" xmlns="http://www.w3.org/2000/svg" width="40" height="40" viewBox="0 0 40 40">
<title>li-weather_leo</title>
<path fill="none" stroke-linejoin="miter" stroke-linecap="butt" stroke-miterlimit="10" stroke-width="1.25" stroke="#fff" d="M15.324 20.799c-4.169-2.444-5.567-7.804-3.124-11.973s7.805-5.568 11.974-3.124c4.169 2.444 5.567 7.804 3.124 11.973 0 0.001-5.299 9.326-5.299 13.326"></path>
<path fill="none" stroke-linejoin="miter" stroke-linecap="butt" stroke-miterlimit="10" stroke-width="1.25" stroke="#fff" d="M18 25c0 2.485-2.015 4.5-4.5 4.5s-4.5-2.015-4.5-4.5c0-2.485 2.015-4.5 4.5-4.5s4.5 2.015 4.5 4.5z"></path>
<path fill="none" stroke-linejoin="miter" stroke-linecap="butt" stroke-miterlimit="10" stroke-width="1.25" stroke="#fff" d="M30.532 33c-0.736 1.481-2.266 2.5-4.032 2.5-2.486 0-4.5-2.014-4.5-4.5"></path>
</svg>
