<!-- Generated by IcoMoon.io -->
<svg version="1.1" xmlns="http://www.w3.org/2000/svg" width="24" height="24" viewBox="0 0 24 24">
<title>library_books</title>
<path fill="#fff" d="M17.587 7.988v-1.575h-7.987v1.575h7.987zM14.4 14.4v-1.612h-4.8v1.612h4.8zM17.587 11.212v-1.612h-7.987v1.612h7.987zM18.413 4.012q0.637 0 1.106 0.469t0.469 1.106v9.6q0 0.638-0.469 1.125t-1.106 0.487h-9.6q-0.637 0-1.125-0.487t-0.488-1.125v-9.6q0-0.638 0.488-1.106t1.125-0.469h9.6zM5.588 7.2v11.212h11.212v1.575h-11.212q-0.638 0-1.106-0.469t-0.469-1.106v-11.212h1.575z"></path>
</svg>
