<!-- Generated by IcoMoon.io -->
<svg version="1.1" xmlns="http://www.w3.org/2000/svg" width="24" height="24" viewBox="0 0 24 24">
<title>link</title>
<path fill="#fff" d="M16.013 7.988q1.65 0 2.813 1.181t1.162 2.831-1.162 2.831-2.813 1.181h-3.225v-1.538h3.225q1.012 0 1.744-0.731t0.731-1.744-0.731-1.744-1.744-0.731h-3.225v-1.537h3.225zM8.813 12.788v-1.575h6.375v1.575h-6.375zM5.512 12q0 1.013 0.731 1.744t1.744 0.731h3.225v1.538h-3.225q-1.65 0-2.813-1.181t-1.162-2.831 1.162-2.831 2.813-1.181h3.225v1.537h-3.225q-1.012 0-1.744 0.731t-0.731 1.744z"></path>
</svg>
