<!-- Generated by IcoMoon.io -->
<svg version="1.1" xmlns="http://www.w3.org/2000/svg" width="24" height="24" viewBox="0 0 24 24">
<title>location_on</title>
<path fill="#fff" d="M12 11.587q0.825 0 1.406-0.581t0.581-1.406-0.581-1.406-1.406-0.581-1.406 0.581-0.581 1.406 0.581 1.406 1.406 0.581zM12 4.012q2.325 0 3.956 1.631t1.631 3.956q0 1.162-0.581 2.662t-1.406 2.813-1.631 2.456-1.369 1.819l-0.6 0.637q-0.225-0.262-0.6-0.694t-1.35-1.725-1.706-2.513-1.331-2.756-0.6-2.7q0-2.325 1.631-3.956t3.956-1.631z"></path>
</svg>
