<!-- Generated by IcoMoon.io -->
<svg version="1.1" xmlns="http://www.w3.org/2000/svg" width="24" height="24" viewBox="0 0 24 24">
<title>location_history</title>
<path fill="#fff" d="M12 17.025q1.313 0 2.7-0.75t2.1-1.8q-0.037-1.050-1.688-1.763t-3.113-0.712-3.113 0.694-1.688 1.781q0.713 1.050 2.1 1.8t2.7 0.75zM12 5.588q-0.975 0-1.688 0.713t-0.712 1.688 0.712 1.688 1.688 0.712 1.688-0.712 0.712-1.688-0.712-1.688-1.688-0.713zM12 4.012q3 0 5.1 2.119t2.1 5.081q0 2.475-1.519 4.388t-3.844 2.55l-1.837 1.837-1.838-1.837q-2.325-0.637-3.844-2.55t-1.519-4.388q0-2.963 2.1-5.081t5.1-2.119z"></path>
</svg>
