<!-- Generated by IcoMoon.io -->
<svg version="1.1" xmlns="http://www.w3.org/2000/svg" width="24" height="24" viewBox="0 0 24 24">
<title>local_movies</title>
<path fill="#fff" d="M16.8 9.6v-1.613h-1.612v1.613h1.612zM16.8 12.788v-1.575h-1.612v1.575h1.612zM16.8 16.013v-1.613h-1.612v1.613h1.612zM8.813 9.6v-1.613h-1.613v1.613h1.613zM8.813 12.788v-1.575h-1.613v1.575h1.613zM8.813 16.013v-1.613h-1.613v1.613h1.613zM16.8 4.8h1.613v14.4h-1.613v-1.613h-1.612v1.613h-6.375v-1.613h-1.613v1.613h-1.612v-14.4h1.612v1.612h1.613v-1.612h6.375v1.612h1.612v-1.612z"></path>
</svg>
