<!-- Generated by IcoMoon.io -->
<svg version="1.1" xmlns="http://www.w3.org/2000/svg" width="24" height="24" viewBox="0 0 24 24">
<title>looks_two</title>
<path fill="#fff" d="M14.4 11.212v-1.612q0-0.675-0.469-1.144t-1.144-0.469h-3.188v1.613h3.188v1.612h-1.575q-0.675 0-1.144 0.45t-0.469 1.125v3.225h4.8v-1.613h-3.188v-1.612h1.575q0.675 0 1.144-0.45t0.469-1.125zM17.587 4.8q0.638 0 1.125 0.487t0.488 1.125v11.175q0 0.637-0.488 1.125t-1.125 0.488h-11.175q-0.638 0-1.125-0.488t-0.488-1.125v-11.175q0-0.637 0.488-1.125t1.125-0.487h11.175z"></path>
</svg>
