<!-- Generated by IcoMoon.io -->
<svg version="1.1" xmlns="http://www.w3.org/2000/svg" width="24" height="24" viewBox="0 0 24 24">
<title>lunch_dining</title>
<path fill="#fff" d="M4.012 15.188h15.975v1.612q0 0.638-0.469 1.125t-1.106 0.488h-12.825q-0.637 0-1.106-0.488t-0.469-1.125v-1.612zM6.675 13.2q-0.413 0-0.9 0.3-0.825 0.487-1.763 0.487v-1.575q0.413 0 0.9-0.3 0.862-0.525 1.763-0.525 0.862 0 1.725 0.525 0.488 0.3 0.938 0.3 0.413 0 0.9-0.3 0.863-0.525 1.762-0.525 0.863 0 1.725 0.525 0.487 0.3 0.938 0.3 0.413 0 0.9-0.3 0.863-0.525 1.763-0.525 0.862 0 1.725 0.525l0.938 0.3v1.575q-0.9 0-1.725-0.487-0.488-0.3-0.938-0.3-0.413 0-0.9 0.3-0.825 0.487-1.762 0.487-0.9 0-1.725-0.487-0.487-0.3-0.938-0.3-0.412 0-0.9 0.3-0.825 0.487-1.762 0.487-0.9 0-1.725-0.487-0.488-0.3-0.938-0.3zM19.987 10.387h-15.975q-0.188-1.95 2.175-3.375t5.813-1.425 5.813 1.425 2.175 3.375z"></path>
</svg>
