<!-- Generated by IcoMoon.io -->
<svg version="1.1" xmlns="http://www.w3.org/2000/svg" width="24" height="24" viewBox="0 0 24 24">
<title>mark_chat_unread</title>
<path fill="#fff" d="M19.987 7.988v7.2q0 0.675-0.469 1.144t-1.106 0.469h-11.212l-3.188 3.188v-14.4q0-0.638 0.469-1.106t1.106-0.469h8.1q-0.038 0.188-0.056 0.394t-0.019 0.394q0 1.087 0.525 2.006t1.444 1.462 2.006 0.544q0.675 0 1.294-0.225t1.106-0.6zM15.188 4.8q0 0.675 0.337 1.219t0.881 0.862 1.181 0.319q0.675 0 1.219-0.319t0.863-0.862 0.319-1.219-0.319-1.219-0.863-0.862-1.219-0.319q-0.637 0-1.181 0.319t-0.881 0.862-0.337 1.219z"></path>
</svg>
