<!-- Generated by IcoMoon.io -->
<svg version="1.1" xmlns="http://www.w3.org/2000/svg" width="24" height="24" viewBox="0 0 24 24">
<title>masks</title>
<path fill="#fff" d="M18 7.2q-0.788 0-1.35 0.525t-0.637 1.313q-0.75-0.188-1.331-0.544t-1.2-0.619-1.481-0.262-1.481 0.262-1.2 0.619-1.331 0.544q-0.075-0.75-0.637-1.294t-1.35-0.544q-0.825 0-1.406 0.581t-0.581 1.406v0.413q0 1.8 0.469 3t1.256 1.931 1.688 1.069 1.8 0.375q0.6 0.375 1.313 0.6t1.462 0.225 1.463-0.225 1.313-0.6q0.9-0.038 1.8-0.375t1.688-1.069 1.256-1.931 0.469-3v-0.413q0-0.825-0.581-1.406t-1.406-0.581zM5.213 9.6v-0.413q0-0.3 0.225-0.544t0.563-0.244 0.563 0.244 0.225 0.544v2.4q0 0.788 0.225 1.481t0.6 1.331q-0.6-0.3-1.163-0.862t-0.9-1.519-0.338-2.419zM18.788 9.6q0 1.462-0.337 2.419t-0.9 1.519-1.162 0.862q0.375-0.637 0.6-1.331t0.225-1.481v-2.4q0-0.3 0.225-0.544t0.563-0.244 0.563 0.244 0.225 0.544v0.413zM10.95 10.8q-0.262 0.15-0.581 0.319t-0.769 0.281v-0.825q0.3-0.113 0.525-0.244t0.413-0.244q0.337-0.188 0.675-0.337t0.788-0.15 0.788 0.15 0.637 0.337q0.225 0.113 0.45 0.244t0.525 0.244v0.825q-0.45-0.112-0.769-0.281t-0.581-0.356l-0.525-0.262t-0.525-0.113-0.525 0.113-0.525 0.3z"></path>
</svg>
