<!-- Generated by IcoMoon.io -->
<svg version="1.1" xmlns="http://www.w3.org/2000/svg" width="40" height="40" viewBox="0 0 40 40">
<title>mi-building</title>
<path fill="#fff" d="M21.333 36h-16c-0.8 0-1.333-0.533-1.333-1.333v-29.333c0-0.8 0.533-1.333 1.333-1.333h16c0.8 0 1.333 0.533 1.333 1.333v29.333c0 0.8-0.533 1.333-1.333 1.333zM6.667 33.333h13.333v-26.667h-13.333v26.667z"></path>
<path fill="#fff" d="M34.667 36h-13.333c-0.8 0-1.333-0.533-1.333-1.333v-21.333c0-0.8 0.533-1.333 1.333-1.333h13.333c0.8 0 1.333 0.533 1.333 1.333v21.333c0 0.8-0.533 1.333-1.333 1.333zM22.667 33.333h10.667v-18.667h-10.667v18.667z"></path>
<path fill="#fff" d="M10.667 25.333c-0.8 0-1.333-0.533-1.333-1.333v-13.333c0-0.8 0.533-1.333 1.333-1.333s1.333 0.533 1.333 1.333v13.333c0 0.8-0.533 1.333-1.333 1.333z"></path>
<path fill="#fff" d="M16 25.333c-0.8 0-1.333-0.533-1.333-1.333v-13.333c0-0.8 0.533-1.333 1.333-1.333s1.333 0.533 1.333 1.333v13.333c0 0.8-0.533 1.333-1.333 1.333z"></path>
<path fill="#fff" d="M30.667 36h-5.333c-0.8 0-1.333-0.533-1.333-1.333v-5.333c0-0.8 0.533-1.333 1.333-1.333h5.333c0.8 0 1.333 0.533 1.333 1.333v5.333c0 0.8-0.533 1.333-1.333 1.333zM26.667 33.333h2.667v-2.667h-2.667v2.667z"></path>
<path fill="#fff" d="M16 36h-5.333c-0.8 0-1.333-0.533-1.333-1.333v-5.333c0-0.8 0.533-1.333 1.333-1.333h5.333c0.8 0 1.333 0.533 1.333 1.333v5.333c0 0.8-0.533 1.333-1.333 1.333zM12 33.333h2.667v-2.667h-2.667v2.667z"></path>
<path fill="#fff" d="M30.667 25.333h-5.333c-0.8 0-1.333-0.533-1.333-1.333s0.533-1.333 1.333-1.333h5.333c0.8 0 1.333 0.533 1.333 1.333s-0.533 1.333-1.333 1.333z"></path>
<path fill="#fff" d="M30.667 20h-5.333c-0.8 0-1.333-0.533-1.333-1.333s0.533-1.333 1.333-1.333h5.333c0.8 0 1.333 0.533 1.333 1.333s-0.533 1.333-1.333 1.333z"></path>
</svg>
