<!-- Generated by IcoMoon.io -->
<svg version="1.1" xmlns="http://www.w3.org/2000/svg" width="40" height="40" viewBox="0 0 40 40">
<title>mi-corner-arrow</title>
<path fill="#fff" d="M28 20c-0.4 0-0.667-0.133-0.933-0.4-0.533-0.533-0.533-1.333 0-1.867l6.667-6.667c0.533-0.533 1.333-0.533 1.867 0s0.533 1.333 0 1.867l-6.667 6.667c-0.267 0.267-0.533 0.4-0.933 0.4z"></path>
<path fill="#fff" d="M34.667 13.333c-0.4 0-0.667-0.133-0.933-0.4l-6.667-6.667c-0.533-0.533-0.533-1.333 0-1.867s1.333-0.533 1.867 0l6.667 6.667c0.533 0.533 0.533 1.333 0 1.867-0.267 0.267-0.533 0.4-0.933 0.4z"></path>
<path fill="#fff" d="M12 36c-0.4 0-0.667-0.133-0.933-0.4l-6.667-6.667c-0.533-0.533-0.533-1.333 0-1.867s1.333-0.533 1.867 0l6.667 6.667c0.533 0.533 0.533 1.333 0 1.867-0.267 0.267-0.533 0.4-0.933 0.4z"></path>
<path fill="#fff" d="M12 36c-0.4 0-0.667-0.133-0.933-0.4-0.533-0.533-0.533-1.333 0-1.867l6.667-6.667c0.533-0.533 1.333-0.533 1.867 0s0.533 1.333 0 1.867l-6.667 6.667c-0.267 0.267-0.533 0.4-0.933 0.4z"></path>
<path fill="#fff" d="M12 36c-0.8 0-1.333-0.533-1.333-1.333v-14.667c0-5.2 4.133-9.333 9.333-9.333h14.667c0.8 0 1.333 0.533 1.333 1.333s-0.533 1.333-1.333 1.333h-14.667c-3.733 0-6.667 2.933-6.667 6.667v14.667c0 0.8-0.533 1.333-1.333 1.333z"></path>
</svg>
