<!-- Generated by IcoMoon.io -->
<svg version="1.1" xmlns="http://www.w3.org/2000/svg" width="40" height="40" viewBox="0 0 40 40">
<title>mi-cube</title>
<path fill="#fff" d="M20 17.333c-0.133 0-0.267 0-0.4-0.133l-14.667-5.333c-0.533-0.133-0.933-0.667-0.933-1.2s0.4-1.067 0.933-1.2l14.667-5.333c0.267-0.133 0.667-0.133 0.933 0l14.667 5.333c0.4 0.133 0.8 0.667 0.8 1.2s-0.4 1.067-0.933 1.2l-14.667 5.333c-0.133 0.133-0.267 0.133-0.4 0.133zM9.2 10.667l10.8 3.867 10.8-3.867-10.8-3.867-10.8 3.867z"></path>
<path fill="#fff" d="M20 36c-0.133 0-0.267 0-0.4-0.133l-14.667-5.333c-0.667-0.267-1.067-1.067-0.8-1.733s1.067-1.067 1.733-0.8l14.133 5.2 14.267-5.2c0.667-0.267 1.467 0.133 1.733 0.8s-0.133 1.467-0.8 1.733l-14.667 5.333c-0.267 0.133-0.4 0.133-0.533 0.133z"></path>
<path fill="#fff" d="M20 36c-0.8 0-1.333-0.533-1.333-1.333v-18.667c0-0.8 0.533-1.333 1.333-1.333s1.333 0.533 1.333 1.333v18.667c0 0.8-0.533 1.333-1.333 1.333z"></path>
<path fill="#fff" d="M34.667 30.667c-0.8 0-1.333-0.533-1.333-1.333v-18.667c0-0.8 0.533-1.333 1.333-1.333s1.333 0.533 1.333 1.333v18.667c0 0.8-0.533 1.333-1.333 1.333z"></path>
<path fill="#fff" d="M5.333 30.667c-0.8 0-1.333-0.533-1.333-1.333v-18.667c0-0.8 0.533-1.333 1.333-1.333s1.333 0.533 1.333 1.333v18.667c0 0.8-0.533 1.333-1.333 1.333z"></path>
</svg>
