<!-- Generated by IcoMoon.io -->
<svg version="1.1" xmlns="http://www.w3.org/2000/svg" width="40" height="40" viewBox="0 0 40 40">
<title>mi-card</title>
<path fill="#fff" d="M34.667 30.667h-29.333c-0.8 0-1.333-0.533-1.333-1.333v-18.667c0-0.8 0.533-1.333 1.333-1.333h29.333c0.8 0 1.333 0.533 1.333 1.333v18.667c0 0.8-0.533 1.333-1.333 1.333zM6.667 28h26.667v-16h-26.667v16z"></path>
<path fill="#fff" d="M34.667 17.333h-29.333c-0.8 0-1.333-0.533-1.333-1.333s0.533-1.333 1.333-1.333h29.333c0.8 0 1.333 0.533 1.333 1.333s-0.533 1.333-1.333 1.333z"></path>
<path fill="#fff" d="M34.667 20h-29.333c-0.8 0-1.333-0.533-1.333-1.333s0.533-1.333 1.333-1.333h29.333c0.8 0 1.333 0.533 1.333 1.333s-0.533 1.333-1.333 1.333z"></path>
</svg>
