<!-- Generated by IcoMoon.io -->
<svg version="1.1" xmlns="http://www.w3.org/2000/svg" width="40" height="40" viewBox="0 0 40 40">
<title>mi-disk</title>
<path fill="#fff" d="M9.6 31.733c-0.4 0-0.667-0.133-0.933-0.4-0.533-0.533-0.533-1.333 0-1.867l7.6-7.6c0.533-0.533 1.333-0.533 1.867 0s0.533 1.333 0 1.867l-7.6 7.6c-0.267 0.267-0.533 0.4-0.933 0.4z"></path>
<path fill="#fff" d="M22.8 18.533c-0.4 0-0.667-0.133-0.933-0.4-0.533-0.533-0.533-1.333 0-1.867l7.6-7.6c0.533-0.533 1.333-0.533 1.867 0s0.533 1.333 0 1.867l-7.6 7.6c-0.267 0.267-0.533 0.4-0.933 0.4z"></path>
<path fill="#fff" d="M23.867 20.4c-0.533 0-1.2-0.4-1.333-1.067s0.267-1.467 0.933-1.6l10.4-2.533c0.667-0.133 1.467 0.267 1.6 0.933s-0.267 1.467-0.933 1.6l-10.4 2.533c0 0.133-0.133 0.133-0.267 0.133z"></path>
<path fill="#fff" d="M18.933 36c-0.133 0-0.133 0 0 0-0.8 0-1.333-0.667-1.333-1.467l0.8-10.667c0-0.667 0.667-1.333 1.467-1.2 0.8 0 1.333 0.667 1.2 1.467l-0.8 10.667c-0.133 0.667-0.667 1.2-1.333 1.2z"></path>
<path fill="#fff" d="M16.8 18.933c-0.267 0-0.533-0.133-0.8-0.267l-8.667-6.267c-0.533-0.4-0.667-1.2-0.267-1.867s1.333-0.667 1.867-0.267l8.667 6.267c0.533 0.4 0.667 1.333 0.267 1.867-0.267 0.4-0.667 0.533-1.067 0.533z"></path>
<path fill="#fff" d="M20 36c-8.8 0-16-7.2-16-16s7.2-16 16-16 16 7.2 16 16-7.2 16-16 16zM20 6.667c-7.333 0-13.333 6-13.333 13.333s6 13.333 13.333 13.333 13.333-6 13.333-13.333-6-13.333-13.333-13.333z"></path>
<path fill="#fff" d="M20 25.333c-2.933 0-5.333-2.4-5.333-5.333s2.4-5.333 5.333-5.333 5.333 2.4 5.333 5.333-2.4 5.333-5.333 5.333zM20 17.333c-1.467 0-2.667 1.2-2.667 2.667s1.2 2.667 2.667 2.667 2.667-1.2 2.667-2.667-1.2-2.667-2.667-2.667z"></path>
</svg>
