<!-- Generated by IcoMoon.io -->
<svg version="1.1" xmlns="http://www.w3.org/2000/svg" width="40" height="40" viewBox="0 0 40 40">
<title>mi-desktop</title>
<path fill="#fff" d="M30.933 30.667h-21.867c-2.8 0-5.067-2.267-5.067-5.067v-16.533c0-2.8 2.267-5.067 5.067-5.067h21.733c2.933 0 5.2 2.267 5.2 5.067v16.4c0 2.933-2.267 5.2-5.067 5.2zM9.067 6.667c-1.333 0-2.4 1.067-2.4 2.4v16.4c0 1.333 1.067 2.4 2.4 2.4h21.733c1.333 0 2.4-1.067 2.4-2.4v-16.4c0-1.333-1.067-2.4-2.4-2.4h-21.733z"></path>
<path fill="#fff" d="M5.333 22.667h29.333v2.667h-29.333v-2.667z"></path>
<path fill="#fff" d="M25.333 36h-10.667c-0.8 0-1.333-0.533-1.333-1.333s0.533-1.333 1.333-1.333h10.667c0.8 0 1.333 0.533 1.333 1.333s-0.533 1.333-1.333 1.333z"></path>
<path fill="#fff" d="M14.667 36c-0.8 0-1.333-0.533-1.333-1.333s0.533-1.333 1.333-1.333c0.267 0 1.333-1.333 1.333-4 0-0.8 0.533-1.333 1.333-1.333s1.333 0.533 1.333 1.333c0 3.867-1.733 6.667-4 6.667z"></path>
<path fill="#fff" d="M25.333 36c-2.267 0-4-2.8-4-6.667 0-0.8 0.533-1.333 1.333-1.333s1.333 0.533 1.333 1.333c0 2.667 1.067 4 1.333 4 0.8 0 1.333 0.533 1.333 1.333s-0.533 1.333-1.333 1.333z"></path>
</svg>
