<!-- Generated by IcoMoon.io -->
<svg version="1.1" xmlns="http://www.w3.org/2000/svg" width="40" height="40" viewBox="0 0 40 40">
<title>mi-edit</title>
<path fill="#fff" d="M28.267 36h-19.2c-2.8 0-5.067-2.267-5.067-5.067v-19.2c0-2.8 2.267-5.067 5.067-5.067h9.6c0.8 0 1.333 0.533 1.333 1.333s-0.533 1.333-1.333 1.333h-9.6c-1.333 0-2.4 1.067-2.4 2.4v19.067c0 1.333 1.067 2.4 2.4 2.4h19.067c1.333 0 2.4-1.067 2.4-2.4v-9.467c0-0.8 0.533-1.333 1.333-1.333s1.333 0.533 1.333 1.333v9.6c0.133 2.8-2.133 5.067-4.933 5.067z"></path>
<path fill="#fff" d="M12 29.333c-0.4 0-0.667-0.133-0.933-0.4s-0.4-0.8-0.4-1.2l1.333-6.667c0-0.267 0.133-0.533 0.4-0.667l16-16c0.533-0.533 1.333-0.533 1.867 0l5.333 5.333c0.533 0.533 0.533 1.333 0 1.867l-16 16c-0.133 0.133-0.4 0.267-0.667 0.4l-6.667 1.333c-0.133 0-0.133 0-0.267 0zM14.533 22l-0.8 4.267 4.267-0.8 14.8-14.8-3.467-3.467-14.8 14.8z"></path>
</svg>
