<!-- Generated by IcoMoon.io -->
<svg version="1.1" xmlns="http://www.w3.org/2000/svg" width="40" height="40" viewBox="0 0 40 40">
<title>mi-file</title>
<path fill="#fff" d="M30.667 36h-21.333c-0.8 0-1.333-0.533-1.333-1.333v-29.333c0-0.8 0.533-1.333 1.333-1.333h21.333c0.8 0 1.333 0.533 1.333 1.333v29.333c0 0.8-0.533 1.333-1.333 1.333zM10.667 33.333h18.667v-26.667h-18.667v26.667z"></path>
<path fill="#fff" d="M21.333 13.333h-6.667c-0.8 0-1.333-0.533-1.333-1.333s0.533-1.333 1.333-1.333h6.667c0.8 0 1.333 0.533 1.333 1.333s-0.533 1.333-1.333 1.333z"></path>
<path fill="#fff" d="M25.333 18.667h-10.667c-0.8 0-1.333-0.533-1.333-1.333s0.533-1.333 1.333-1.333h10.667c0.8 0 1.333 0.533 1.333 1.333s-0.533 1.333-1.333 1.333z"></path>
<path fill="#fff" d="M22.667 24h-8c-0.8 0-1.333-0.533-1.333-1.333s0.533-1.333 1.333-1.333h8c0.8 0 1.333 0.533 1.333 1.333s-0.533 1.333-1.333 1.333z"></path>
<path fill="#fff" d="M25.333 29.333h-10.667c-0.8 0-1.333-0.533-1.333-1.333s0.533-1.333 1.333-1.333h10.667c0.8 0 1.333 0.533 1.333 1.333s-0.533 1.333-1.333 1.333z"></path>
</svg>
