<!-- Generated by IcoMoon.io -->
<svg version="1.1" xmlns="http://www.w3.org/2000/svg" width="40" height="40" viewBox="0 0 40 40">
<title>mi-fork-knife</title>
<path fill="#fff" d="M14.667 17.333v0c-2.933 0-5.333-2.4-5.333-5.333v-6.667c0-0.8 0.533-1.333 1.333-1.333h8c0.8 0 1.333 0.533 1.333 1.333v6.667c0 2.933-2.4 5.333-5.333 5.333zM12 6.667v5.333c0 1.467 1.2 2.667 2.667 2.667v0c1.467 0 2.667-1.2 2.667-2.667v-5.333h-5.333z"></path>
<path fill="#fff" d="M14.667 36c-0.8 0-1.333-0.533-1.333-1.333v-17.333c0-0.8 0.533-1.333 1.333-1.333s1.333 0.533 1.333 1.333v17.333c0 0.8-0.533 1.333-1.333 1.333z"></path>
<path fill="#fff" d="M24 36c-0.8 0-1.333-0.533-1.333-1.333v-29.333c0-0.8 0.533-1.333 1.333-1.333s1.333 0.533 1.333 1.333v29.333c0 0.8-0.533 1.333-1.333 1.333z"></path>
<path fill="#fff" d="M29.333 24h-5.333c-0.8 0-1.333-0.533-1.333-1.333v-17.333c0-0.8 0.533-1.333 1.333-1.333 3.733 0 6.667 2.933 6.667 6.667v12c0 0.8-0.533 1.333-1.333 1.333zM25.333 21.333h2.667v-10.667c0-1.733-1.067-3.2-2.667-3.733v14.4z"></path>
</svg>
