<!-- Generated by IcoMoon.io -->
<svg version="1.1" xmlns="http://www.w3.org/2000/svg" width="40" height="40" viewBox="0 0 40 40">
<title>mi-headset</title>
<path fill="#fff" d="M12 29.333h-2.667c-2.933 0-5.333-2.4-5.333-5.333v-1.333c0-2.933 2.4-5.333 5.333-5.333h2.667c0.8 0 1.333 0.533 1.333 1.333v9.333c0 0.8-0.533 1.333-1.333 1.333zM9.333 20c-1.467 0-2.667 1.2-2.667 2.667v1.333c0 1.467 1.2 2.667 2.667 2.667h1.333v-6.667h-1.333z"></path>
<path fill="#fff" d="M30.667 29.333h-2.667c-0.8 0-1.333-0.533-1.333-1.333v-9.333c0-0.8 0.533-1.333 1.333-1.333h2.667c2.933 0 5.333 2.4 5.333 5.333v1.333c0 2.933-2.4 5.333-5.333 5.333zM29.333 26.667h1.333c1.467 0 2.667-1.2 2.667-2.667v-1.333c0-1.467-1.2-2.667-2.667-2.667h-1.333v6.667z"></path>
<path fill="#fff" d="M31.867 20.133c-0.133 0-0.133 0-0.267 0-0.667-0.133-1.2-0.8-1.067-1.467 0-0.4 0.133-0.8 0.133-1.333 0-5.867-4.8-10.667-10.667-10.667s-10.667 4.8-10.667 10.667c0 0.533 0 0.933 0.133 1.333 0.133 0.667-0.4 1.467-1.067 1.467-0.667 0.133-1.467-0.4-1.467-1.067-0.267-0.533-0.267-1.067-0.267-1.733 0-7.333 6-13.333 13.333-13.333s13.333 6 13.333 13.333c0 0.667 0 1.2-0.133 1.733-0.133 0.667-0.667 1.067-1.333 1.067z"></path>
<path fill="#fff" d="M20 36c-2.933 0-4-2.4-4-4s1.067-4 4-4 4 2.4 4 4c0 0.267 0 0.533-0.133 0.8 2.933-0.8 4.933-2.667 6-5.333 0.267-0.667 1.067-1.067 1.733-0.8s1.067 1.067 0.8 1.733c-1.333 3.467-4.667 7.6-12.4 7.6zM20 30.667c-1.067 0-1.333 0.8-1.333 1.333s0.267 1.333 1.333 1.333 1.333-0.8 1.333-1.333c0-0.533-0.267-1.333-1.333-1.333z"></path>
</svg>
