<!-- Generated by IcoMoon.io -->
<svg version="1.1" xmlns="http://www.w3.org/2000/svg" width="40" height="40" viewBox="0 0 40 40">
<title>mi-juice</title>
<path fill="#fff" d="M26.667 36h-13.333c-0.667 0-1.2-0.533-1.333-1.2l-2.667-21.333c0-0.4 0.133-0.8 0.267-1.067 0.267-0.267 0.667-0.4 1.067-0.4h18.667c0.4 0 0.8 0.133 0.933 0.4 0.267 0.4 0.4 0.667 0.4 1.067l-2.667 21.333c-0.133 0.667-0.667 1.2-1.333 1.2zM14.533 33.333h10.933l2.4-18.667h-15.733l2.4 18.667z"></path>
<path fill="#fff" d="M20 32c-0.133 0-0.267 0-0.4-0.133-0.667-0.267-1.067-1.067-0.8-1.733l9.333-25.333c0.267-0.667 1.067-1.067 1.733-0.8s1.067 1.067 0.8 1.733l-9.333 25.333c-0.267 0.667-0.8 0.933-1.333 0.933z"></path>
<path fill="#fff" d="M24 25.333c-0.667 0-1.067 0-1.6-0.133-1.467-0.133-2.667-0.4-3.6-0.8-1.067-0.133-1.733-0.4-2.8-0.4-0.933 0-2.267 0.267-3.733 0.533-0.667 0.133-1.467-0.267-1.6-0.933s0.267-1.467 0.933-1.6c1.2-0.267 2.933-0.667 4.4-0.667 1.333 0 2.533 0.267 3.467 0.667 0.933 0.267 1.867 0.533 3.067 0.667 1.333 0.133 3.333 0 5.2-0.267 0.667-0.133 1.467 0.4 1.6 1.067s-0.4 1.467-1.067 1.6c-1.467 0.133-2.933 0.267-4.267 0.267z"></path>
</svg>
