<!-- Generated by IcoMoon.io -->
<svg version="1.1" xmlns="http://www.w3.org/2000/svg" width="40" height="40" viewBox="0 0 40 40">
<title>mi-megaphone</title>
<path fill="#fff" d="M18.667 25.333h-8c-3.6 0-6.667-2.933-6.667-6.667s2.933-6.667 6.667-6.667h8c0.8 0 1.333 0.533 1.333 1.333v10.667c0 0.8-0.533 1.333-1.333 1.333zM10.667 14.667c-2.133 0-4 1.733-4 4s1.733 4 4 4h6.667v-8h-6.667z"></path>
<path fill="#fff" d="M34.667 30.667c-0.133 0-0.267 0-0.4-0.133l-16-5.333c-0.533-0.133-0.933-0.667-0.933-1.2v-10.667c0-0.533 0.4-1.067 0.933-1.2l16-5.333c0.4-0.267 0.8-0.133 1.2 0.133 0.267 0.267 0.533 0.667 0.533 1.067v21.333c0 0.4-0.267 0.8-0.533 1.067-0.267 0.133-0.533 0.267-0.8 0.267zM20 23.067l13.333 4.4v-17.6l-13.333 4.4v8.8z"></path>
<path fill="#fff" d="M14.667 33.333h-5.333c-0.4 0-0.8-0.267-1.067-0.533-0.267-0.4-0.4-0.8-0.133-1.2l2.667-8c0.133-0.533 0.667-0.933 1.2-0.933h5.333c0.4 0 0.8 0.267 1.067 0.533 0.267 0.4 0.267 0.8 0.133 1.2l-2.667 8c-0.133 0.533-0.667 0.933-1.2 0.933zM11.2 30.667h2.533l1.733-5.333h-2.533l-1.733 5.333z"></path>
</svg>
