<!-- Generated by IcoMoon.io -->
<svg version="1.1" xmlns="http://www.w3.org/2000/svg" width="40" height="40" viewBox="0 0 40 40">
<title>mi-menu-lines</title>
<path fill="#fff" d="M30.667 10.667h-21.333c-0.8 0-1.333-0.533-1.333-1.333s0.533-1.333 1.333-1.333h21.333c0.8 0 1.333 0.533 1.333 1.333s-0.533 1.333-1.333 1.333z"></path>
<path fill="#fff" d="M30.667 32h-21.333c-0.8 0-1.333-0.533-1.333-1.333s0.533-1.333 1.333-1.333h21.333c0.8 0 1.333 0.533 1.333 1.333s-0.533 1.333-1.333 1.333z"></path>
<path fill="#fff" d="M30.667 21.333h-21.333c-0.8 0-1.333-0.533-1.333-1.333s0.533-1.333 1.333-1.333h21.333c0.8 0 1.333 0.533 1.333 1.333s-0.533 1.333-1.333 1.333z"></path>
</svg>
