<!-- Generated by IcoMoon.io -->
<svg version="1.1" xmlns="http://www.w3.org/2000/svg" width="40" height="40" viewBox="0 0 40 40">
<title>mi-pencil-ruler</title>
<path fill="#fff" d="M16 29.333h-5.333l2.667 5.333z"></path>
<path fill="#fff" d="M13.333 36c-0.533 0-0.933-0.267-1.2-0.8l-2.667-5.333c-0.267-0.4-0.133-0.933 0-1.333 0.267-0.267 0.8-0.533 1.2-0.533h5.333c0.4 0 0.933 0.267 1.2 0.667s0.267 0.933 0 1.333l-2.667 5.333c-0.267 0.4-0.667 0.667-1.2 0.667zM12.8 30.667l0.533 1.067 0.533-1.067h-1.067z"></path>
<path fill="#fff" d="M16 30.667h-5.333c-0.8 0-1.333-0.533-1.333-1.333v-21.333c0-2.133 1.733-4 4-4s4 1.733 4 4v21.333c0 0.8-0.533 1.333-1.333 1.333zM12 28h2.667v-20c0-0.667-0.533-1.333-1.333-1.333s-1.333 0.533-1.333 1.333v20z"></path>
<path fill="#fff" d="M29.333 36h-8c-0.8 0-1.333-0.533-1.333-1.333v-29.333c0-0.8 0.533-1.333 1.333-1.333h8c0.8 0 1.333 0.533 1.333 1.333v29.333c0 0.8-0.533 1.333-1.333 1.333zM22.667 33.333h5.333v-26.667h-5.333v26.667z"></path>
<path fill="#fff" d="M29.333 13.333h-2.667c-0.8 0-1.333-0.533-1.333-1.333s0.533-1.333 1.333-1.333h2.667c0.8 0 1.333 0.533 1.333 1.333s-0.533 1.333-1.333 1.333z"></path>
<path fill="#fff" d="M29.333 18.667h-2.667c-0.8 0-1.333-0.533-1.333-1.333s0.533-1.333 1.333-1.333h2.667c0.8 0 1.333 0.533 1.333 1.333s-0.533 1.333-1.333 1.333z"></path>
<path fill="#fff" d="M29.333 24h-2.667c-0.8 0-1.333-0.533-1.333-1.333s0.533-1.333 1.333-1.333h2.667c0.8 0 1.333 0.533 1.333 1.333s-0.533 1.333-1.333 1.333z"></path>
<path fill="#fff" d="M29.333 29.333h-2.667c-0.8 0-1.333-0.533-1.333-1.333s0.533-1.333 1.333-1.333h2.667c0.8 0 1.333 0.533 1.333 1.333s-0.533 1.333-1.333 1.333z"></path>
</svg>
