<!-- Generated by IcoMoon.io -->
<svg version="1.1" xmlns="http://www.w3.org/2000/svg" width="40" height="40" viewBox="0 0 40 40">
<title>mi-soap</title>
<path fill="#fff" d="M12 36c-2.267 0-4-1.733-4-4 0-0.8 0.533-1.333 1.333-1.333s1.333 0.533 1.333 1.333c0 0.8 0.533 1.333 1.333 1.333s1.333 0.533 1.333 1.333-0.533 1.333-1.333 1.333z"></path>
<path fill="#fff" d="M28 36c-0.8 0-1.333-0.533-1.333-1.333s0.533-1.333 1.333-1.333c0.8 0 1.333-0.533 1.333-1.333s0.533-1.333 1.333-1.333 1.333 0.533 1.333 1.333c0 2.267-1.733 4-4 4z"></path>
<path fill="#fff" d="M9.333 22.667c-0.8 0-1.333-0.533-1.333-1.333 0-3.733 2.933-6.667 6.667-6.667 0.8 0 1.333 0.533 1.333 1.333s-0.533 1.333-1.333 1.333c-2.267 0-4 1.733-4 4 0 0.8-0.533 1.333-1.333 1.333z"></path>
<path fill="#fff" d="M30.667 22.667c-0.8 0-1.333-0.533-1.333-1.333 0-2.267-1.733-4-4-4-0.8 0-1.333-0.533-1.333-1.333s0.533-1.333 1.333-1.333c3.733 0 6.667 2.933 6.667 6.667 0 0.8-0.533 1.333-1.333 1.333z"></path>
<path fill="#fff" d="M25.333 17.333h-10.667c-0.8 0-1.333-0.533-1.333-1.333s0.533-1.333 1.333-1.333h10.667c0.8 0 1.333 0.533 1.333 1.333s-0.533 1.333-1.333 1.333z"></path>
<path fill="#fff" d="M25.333 36h-10.667c-0.8 0-1.333-0.533-1.333-1.333s0.533-1.333 1.333-1.333h10.667c0.8 0 1.333 0.533 1.333 1.333s-0.533 1.333-1.333 1.333z"></path>
<path fill="#fff" d="M30.667 33.333c-0.8 0-1.333-0.533-1.333-1.333v-10.667c0-0.8 0.533-1.333 1.333-1.333s1.333 0.533 1.333 1.333v10.667c0 0.8-0.533 1.333-1.333 1.333z"></path>
<path fill="#fff" d="M9.333 33.333c-0.8 0-1.333-0.533-1.333-1.333v-10.667c0-0.8 0.533-1.333 1.333-1.333s1.333 0.533 1.333 1.333v10.667c0 0.8-0.533 1.333-1.333 1.333z"></path>
<path fill="#fff" d="M28 36h-16c-0.8 0-1.333-0.533-1.333-1.333s0.533-1.333 1.333-1.333h16c0.8 0 1.333 0.533 1.333 1.333s-0.533 1.333-1.333 1.333z"></path>
<path fill="#fff" d="M24 17.333h-8c-0.8 0-1.333-0.533-1.333-1.333v-5.333c0-0.8 0.533-1.333 1.333-1.333h8c0.8 0 1.333 0.533 1.333 1.333v5.333c0 0.8-0.533 1.333-1.333 1.333zM17.333 14.667h5.333v-2.667h-5.333v2.667z"></path>
<path fill="#fff" d="M21.333 12h-2.667c-0.8 0-1.333-0.533-1.333-1.333v-5.333c0-0.8 0.533-1.333 1.333-1.333h2.667c0.8 0 1.333 0.533 1.333 1.333v5.333c0 0.8-0.533 1.333-1.333 1.333z"></path>
<path fill="#fff" d="M30.667 29.333h-21.333c-0.8 0-1.333-0.533-1.333-1.333v-5.333c0-0.8 0.533-1.333 1.333-1.333h21.333c0.8 0 1.333 0.533 1.333 1.333v5.333c0 0.8-0.533 1.333-1.333 1.333zM10.667 26.667h18.667v-2.667h-18.667v2.667z"></path>
<path fill="#fff" d="M28 8h-8c-0.8 0-1.333-0.533-1.333-1.333s0.533-1.333 1.333-1.333h8c0.8 0 1.333 0.533 1.333 1.333s-0.533 1.333-1.333 1.333z"></path>
</svg>
