<!-- Generated by IcoMoon.io -->
<svg version="1.1" xmlns="http://www.w3.org/2000/svg" width="40" height="40" viewBox="0 0 40 40">
<title>mi-speed-o-meter</title>
<path fill="#fff" d="M20 36c-8.8 0-16-7.2-16-16s7.2-16 16-16 16 7.2 16 16-7.2 16-16 16zM20 6.667c-7.333 0-13.333 6-13.333 13.333s6 13.333 13.333 13.333 13.333-6 13.333-13.333-6-13.333-13.333-13.333z"></path>
<path fill="#fff" d="M6.667 25.333h26.667v2.667h-26.667v-2.667z"></path>
<path fill="#fff" d="M20 28c-0.267 0-0.4 0-0.667-0.133-0.667-0.4-0.8-1.2-0.533-1.867l6.667-11.6c0.4-0.667 1.2-0.8 1.867-0.533 0.667 0.4 0.8 1.2 0.533 1.867l-6.667 11.6c-0.267 0.4-0.8 0.667-1.2 0.667z"></path>
</svg>
