<!-- Generated by IcoMoon.io -->
<svg version="1.1" xmlns="http://www.w3.org/2000/svg" width="40" height="40" viewBox="0 0 40 40">
<title>mi-shuffle</title>
<path fill="#fff" d="M33.333 28h-8c-0.4 0-0.8-0.133-1.067-0.533l-10.267-12.8h-8.667c-0.8 0-1.333-0.533-1.333-1.333s0.533-1.333 1.333-1.333h9.333c0.4 0 0.8 0.133 1.067 0.533l10.267 12.8h7.333c0.8 0 1.333 0.533 1.333 1.333s-0.533 1.333-1.333 1.333z"></path>
<path fill="#fff" d="M34.667 28c-0.4 0-0.667-0.133-0.933-0.4l-4-4c-0.533-0.533-0.533-1.333 0-1.867s1.333-0.533 1.867 0l4 4c0.533 0.533 0.533 1.333 0 1.867-0.267 0.267-0.533 0.4-0.933 0.4z"></path>
<path fill="#fff" d="M30.667 32c-0.4 0-0.667-0.133-0.933-0.4-0.533-0.533-0.533-1.333 0-1.867l4-4c0.533-0.533 1.333-0.533 1.867 0s0.533 1.333 0 1.867l-4 4c-0.267 0.267-0.533 0.4-0.933 0.4z"></path>
<path fill="#fff" d="M14.667 28h-9.333c-0.8 0-1.333-0.533-1.333-1.333s0.533-1.333 1.333-1.333h8.667l10.267-12.8c0.267-0.4 0.667-0.533 1.067-0.533h8c0.8 0 1.333 0.533 1.333 1.333s-0.533 1.333-1.333 1.333h-7.333l-10.267 12.8c-0.267 0.4-0.667 0.533-1.067 0.533z"></path>
<path fill="#fff" d="M30.667 18.667c-0.4 0-0.667-0.133-0.933-0.4-0.533-0.533-0.533-1.333 0-1.867l4-4c0.533-0.533 1.333-0.533 1.867 0s0.533 1.333 0 1.867l-4 4c-0.267 0.267-0.533 0.4-0.933 0.4z"></path>
<path fill="#fff" d="M34.667 14.667c-0.4 0-0.667-0.133-0.933-0.4l-4-4c-0.533-0.533-0.533-1.333 0-1.867s1.333-0.533 1.867 0l4 4c0.533 0.533 0.533 1.333 0 1.867-0.267 0.267-0.533 0.4-0.933 0.4z"></path>
</svg>
