<!-- Generated by IcoMoon.io -->
<svg version="1.1" xmlns="http://www.w3.org/2000/svg" width="40" height="40" viewBox="0 0 40 40">
<title>mi-styling-tools</title>
<path fill="#fff" d="M9.333 36c-2.933 0-5.333-2.4-5.333-5.333s2.4-5.333 5.333-5.333 5.333 2.4 5.333 5.333-2.4 5.333-5.333 5.333zM9.333 28c-1.467 0-2.667 1.2-2.667 2.667s1.2 2.667 2.667 2.667 2.667-1.2 2.667-2.667-1.2-2.667-2.667-2.667z"></path>
<path fill="#fff" d="M17.333 36c-2.933 0-5.333-2.4-5.333-5.333s2.4-5.333 5.333-5.333 5.333 2.4 5.333 5.333-2.4 5.333-5.333 5.333zM17.333 28c-1.467 0-2.667 1.2-2.667 2.667s1.2 2.667 2.667 2.667 2.667-1.2 2.667-2.667-1.2-2.667-2.667-2.667z"></path>
<path fill="#fff" d="M13.333 32c-0.8 0-1.333-0.533-1.333-1.333v-25.333c0-0.8 0.533-1.333 1.333-1.333s1.333 0.533 1.333 1.333v25.333c0 0.8-0.533 1.333-1.333 1.333z"></path>
<path fill="#fff" d="M12.267 29.333c-0.533 0-1.067-0.4-1.333-0.933l-2.8-9.733c-0.933-2.533-0.8-5.6 0.667-8l3.467-6c0.267-0.667 1.067-0.8 1.733-0.533 0.667 0.4 0.8 1.2 0.533 1.867l-3.467 6c-1.067 1.733-1.2 3.867-0.4 5.733l2.8 9.867c0.267 0.667-0.267 1.467-0.933 1.6 0 0-0.133 0.133-0.267 0.133z"></path>
<path fill="#fff" d="M14.4 29.333c-0.133 0-0.267 0-0.4 0-0.667-0.267-1.067-0.933-0.933-1.6l2.933-9.867c0.8-2 0.667-4.133-0.4-5.867l-3.467-6c-0.267-0.667-0.133-1.467 0.533-1.867 0.667-0.267 1.467-0.133 1.867 0.533l3.333 6c1.467 2.533 1.6 5.467 0.533 8.133l-2.8 9.6c0 0.533-0.533 0.933-1.2 0.933z"></path>
<path fill="#fff" d="M34.667 10.667h-4c-0.8 0-1.333-0.533-1.333-1.333s0.533-1.333 1.333-1.333h4c0.8 0 1.333 0.533 1.333 1.333s-0.533 1.333-1.333 1.333z"></path>
<path fill="#fff" d="M34.667 14.667h-4c-0.8 0-1.333-0.533-1.333-1.333s0.533-1.333 1.333-1.333h4c0.8 0 1.333 0.533 1.333 1.333s-0.533 1.333-1.333 1.333z"></path>
<path fill="#fff" d="M34.667 18.667h-4c-0.8 0-1.333-0.533-1.333-1.333s0.533-1.333 1.333-1.333h4c0.8 0 1.333 0.533 1.333 1.333s-0.533 1.333-1.333 1.333z"></path>
<path fill="#fff" d="M34.667 22.667h-4c-0.8 0-1.333-0.533-1.333-1.333s0.533-1.333 1.333-1.333h4c0.8 0 1.333 0.533 1.333 1.333s-0.533 1.333-1.333 1.333z"></path>
<path fill="#fff" d="M30.667 36h-5.333c-0.8 0-1.333-0.533-1.333-1.333v-29.333c0-0.8 0.533-1.333 1.333-1.333h5.333c2.933 0 5.333 2.4 5.333 5.333v12c0 2.933-2.4 5.333-5.333 5.333-0.8 0-1.333-0.533-1.333-1.333s0.533-1.333 1.333-1.333c1.467 0 2.667-1.2 2.667-2.667v-12c0-1.467-1.2-2.667-2.667-2.667h-4v26.667h4c0.8 0 1.333 0.533 1.333 1.333s-0.533 1.333-1.333 1.333z"></path>
<path fill="#fff" d="M30.667 36c-0.8 0-1.333-0.533-1.333-1.333v-9.333c0-0.8 0.533-1.333 1.333-1.333s1.333 0.533 1.333 1.333v9.333c0 0.8-0.533 1.333-1.333 1.333z"></path>
</svg>
