<!-- Generated by IcoMoon.io -->
<svg version="1.1" xmlns="http://www.w3.org/2000/svg" width="40" height="40" viewBox="0 0 40 40">
<title>mi-thunderbolt</title>
<path fill="#fff" d="M20 36c-0.133 0-0.267 0-0.267 0-0.533-0.133-1.067-0.667-1.067-1.333v-9.867l-3.467 1.733c-0.4 0.133-0.8 0.133-1.2 0s-0.533-0.533-0.667-0.933l-4-20c0-0.4 0-0.8 0.267-1.067 0.267-0.4 0.667-0.533 1.067-0.533h13.333c0.4 0 0.8 0.133 1.067 0.533 0.267 0.267 0.267 0.667 0.267 1.067l-2.133 9.867 7.067-2.133c0.533-0.133 1.067 0 1.467 0.4s0.4 0.933 0.133 1.467l-10.667 20c-0.267 0.533-0.667 0.8-1.2 0.8zM20 21.333c0.267 0 0.533 0.133 0.667 0.133 0.4 0.267 0.667 0.667 0.667 1.2v6.667l6.667-12.533-6.267 1.867c-0.4 0.133-0.933 0-1.333-0.267s-0.533-0.8-0.4-1.2l2.4-10.533h-10.133l3.333 16.667 3.733-1.867c0.267-0.133 0.4-0.133 0.667-0.133z"></path>
</svg>
