<!-- Generated by IcoMoon.io -->
<svg version="1.1" xmlns="http://www.w3.org/2000/svg" width="40" height="40" viewBox="0 0 40 40">
<title>mi-wi-fi</title>
<path fill="#fff" d="M20 32c-2.267 0-4-1.733-4-4s1.733-4 4-4 4 1.733 4 4-1.733 4-4 4zM20 26.667c-0.8 0-1.333 0.533-1.333 1.333s0.533 1.333 1.333 1.333 1.333-0.533 1.333-1.333-0.533-1.333-1.333-1.333z"></path>
<path fill="#fff" d="M26.133 24.267c-0.4 0-0.8-0.133-1.067-0.533-1.333-1.6-3.2-2.4-5.2-2.4s-3.867 0.933-5.2 2.4c-0.533 0.533-1.333 0.667-1.867 0.133s-0.667-1.333-0.133-1.867c1.867-2.133 4.533-3.333 7.333-3.333s5.467 1.2 7.2 3.467c0.4 0.533 0.4 1.467-0.133 1.867-0.267 0.133-0.533 0.267-0.933 0.267z"></path>
<path fill="#fff" d="M30.267 20.933c-0.4 0-0.8-0.133-1.067-0.533-2.133-2.8-5.6-4.4-9.2-4.4s-7.067 1.6-9.333 4.4c-0.4 0.533-1.333 0.667-1.867 0.133s-0.667-1.333-0.133-1.867c2.8-3.333 6.933-5.333 11.333-5.333s8.533 2 11.333 5.333c0.4 0.533 0.4 1.467-0.133 1.867-0.267 0.267-0.533 0.4-0.933 0.4z"></path>
<path fill="#fff" d="M34.4 17.467c-0.4 0-0.8-0.133-1.067-0.533-3.2-4-8.133-6.267-13.333-6.267s-10.133 2.267-13.467 6.4c-0.4 0.533-1.333 0.667-1.867 0.133-0.533-0.4-0.667-1.333-0.133-1.867 3.733-4.667 9.467-7.333 15.467-7.333s11.733 2.667 15.467 7.333c0.4 0.533 0.4 1.467-0.133 1.867-0.267 0.267-0.533 0.267-0.933 0.267z"></path>
</svg>
