<!-- Generated by IcoMoon.io -->
<svg version="1.1" xmlns="http://www.w3.org/2000/svg" width="40" height="40" viewBox="0 0 40 40">
<title>mi-wrench</title>
<path fill="#fff" d="M26.667 22.667c-1.333 0-2.667-0.267-4-0.933-0.667-0.267-0.933-1.067-0.667-1.733s1.067-0.933 1.733-0.667c2.533 1.2 5.6 0.667 7.6-1.333 1.067-1.067 1.733-2.4 1.867-3.733l-0.933-0.933-3.733 3.733c-0.267 0.267-0.533 0.4-0.933 0.4-0.267 0-2.533 0-3.733-1.333-1.333-1.333-1.333-3.467-1.333-3.733 0-0.4 0.133-0.667 0.4-0.933l3.733-3.733-0.933-0.933c-1.467 0.133-2.8 0.8-3.733 1.867-2 2-2.533 5.067-1.333 7.6 0.267 0.667 0 1.467-0.667 1.733s-1.467 0-1.733-0.667c-1.733-3.6-0.933-7.867 1.867-10.667 1.6-1.6 3.733-2.533 6.133-2.667 0.4 0 0.8 0.133 1.067 0.4l2.267 2.267c0.533 0.533 0.533 1.333 0 1.867l-4.267 4.267c0.133 0.533 0.267 1.067 0.533 1.333s0.933 0.4 1.333 0.533l4.267-4.267c0.533-0.533 1.333-0.533 1.867 0l2.267 2.267c0.267 0.4 0.4 0.8 0.4 1.2-0.133 2.267-1.067 4.4-2.667 6.133-1.867 1.733-4.267 2.667-6.667 2.667z"></path>
<path fill="#fff" d="M28.533 9.067c-0.4 0-0.667-0.133-0.933-0.4l-1.867-2c-0.533-0.533-0.533-1.333 0-1.867s1.333-0.533 1.867 0l1.867 1.867c0.533 0.533 0.533 1.333 0 1.867-0.267 0.4-0.533 0.533-0.933 0.533z"></path>
<path fill="#fff" d="M34.267 14.667c-0.4 0-0.667-0.133-0.933-0.4l-1.867-1.867c-0.533-0.533-0.533-1.333 0-1.867s1.333-0.533 1.867 0l1.867 1.867c0.533 0.533 0.533 1.333 0 1.867-0.267 0.267-0.667 0.4-0.933 0.4z"></path>
<path fill="#fff" d="M8 36c-1.067 0-2-0.4-2.8-1.2-1.6-1.6-1.6-4.133 0-5.6l13.333-13.333c0.533-0.533 1.333-0.533 1.867 0s0.533 1.333 0 1.867l-13.333 13.333c-0.533 0.533-0.533 1.333 0 1.867s1.333 0.533 1.867 0l13.333-13.333c0.533-0.533 1.333-0.533 1.867 0s0.533 1.333 0 1.867l-13.333 13.333c-0.8 0.8-1.733 1.2-2.8 1.2z"></path>
</svg>
