<!-- Generated by IcoMoon.io -->
<svg version="1.1" xmlns="http://www.w3.org/2000/svg" width="40" height="40" viewBox="0 0 40 40">
<title>mi-zoom-out</title>
<path fill="#fff" d="M16 28c-6.667 0-12-5.333-12-12s5.333-12 12-12 12 5.333 12 12-5.333 12-12 12zM16 6.667c-5.2 0-9.333 4.133-9.333 9.333s4.133 9.333 9.333 9.333 9.333-4.133 9.333-9.333-4.133-9.333-9.333-9.333z"></path>
<path fill="#fff" d="M34.667 36c-0.4 0-0.667-0.133-0.933-0.4l-11.067-11.067c-0.533-0.533-0.533-1.333 0-1.867s1.333-0.533 1.867 0l11.067 11.067c0.533 0.533 0.533 1.333 0 1.867-0.267 0.267-0.533 0.4-0.933 0.4z"></path>
<path fill="#fff" d="M20 17.333h-8c-0.8 0-1.333-0.533-1.333-1.333s0.533-1.333 1.333-1.333h8c0.8 0 1.333 0.533 1.333 1.333s-0.533 1.333-1.333 1.333z"></path>
</svg>
