<!-- Generated by IcoMoon.io -->
<svg version="1.1" xmlns="http://www.w3.org/2000/svg" width="24" height="24" viewBox="0 0 24 24">
<title>money</title>
<path fill="#fff" d="M5.588 16.8h12.825v-9.6h-12.825v9.6zM4.012 5.588h15.975v12.825h-15.975v-12.825zM16.013 13.612v-3.225h-0.825v3.225h0.825zM16.8 8.813q0.338 0 0.563 0.225t0.225 0.563v4.8q0 0.337-0.225 0.563t-0.563 0.225h-2.4q-0.337 0-0.563-0.225t-0.225-0.563v-4.8q0-0.337 0.225-0.563t0.563-0.225h2.4zM11.212 13.612v-3.225h-0.825v3.225h0.825zM12 8.813q0.337 0 0.563 0.225t0.225 0.563v4.8q0 0.337-0.225 0.563t-0.563 0.225h-2.4q-0.338 0-0.563-0.225t-0.225-0.563v-4.8q0-0.337 0.225-0.563t0.563-0.225h2.4zM6.413 8.813h1.575v6.375h-1.575v-6.375z"></path>
</svg>
