<!-- Generated by IcoMoon.io -->
<svg version="1.1" xmlns="http://www.w3.org/2000/svg" width="24" height="24" viewBox="0 0 24 24">
<title>more_time</title>
<path fill="#fff" d="M10.387 8.813v4.8l3.787 2.325 0.638-0.975-3.225-1.912v-4.238h-1.2zM16.725 12q0.075 0.413 0.075 0.788 0 1.2-0.431 2.212t-1.2 1.781-1.781 1.2-2.175 0.431q-1.2 0-2.213-0.431t-1.781-1.2-1.2-1.781-0.431-2.212q0-1.163 0.431-2.175t1.2-1.781 1.781-1.2 2.212-0.431q0.825 0 1.575 0.225v-1.65q-0.788-0.188-1.575-0.188-1.5 0-2.813 0.563t-2.306 1.556-1.537 2.288-0.544 2.794 0.544 2.813 1.537 2.306 2.306 1.537 2.813 0.544 2.794-0.544 2.288-1.537 1.556-2.306 0.563-2.813q0-0.375-0.075-0.787h-1.612zM18.413 6.413v-2.4h-1.613v2.4h-2.4v1.575h2.4v2.4h1.613v-2.4h2.4v-1.575h-2.4z"></path>
</svg>
