<!-- Generated by IcoMoon.io -->
<svg version="1.1" xmlns="http://www.w3.org/2000/svg" width="24" height="24" viewBox="0 0 24 24">
<title>more_vert</title>
<path fill="#fff" d="M12 15.188q0.638 0 1.125 0.487t0.487 1.125-0.487 1.125-1.125 0.488-1.125-0.488-0.488-1.125 0.488-1.125 1.125-0.487zM12 10.387q0.638 0 1.125 0.488t0.487 1.125-0.487 1.125-1.125 0.487-1.125-0.487-0.488-1.125 0.488-1.125 1.125-0.488zM12 8.813q-0.637 0-1.125-0.488t-0.488-1.125 0.488-1.125 1.125-0.487 1.125 0.487 0.487 1.125-0.487 1.125-1.125 0.488z"></path>
</svg>
