<!-- Generated by IcoMoon.io -->
<svg version="1.1" xmlns="http://www.w3.org/2000/svg" width="24" height="24" viewBox="0 0 24 24">
<title>motion_photos_off</title>
<path fill="#fff" d="M19.087 19.087l-14.175-14.175-1.012 1.050 1.538 1.5q-0.675 0.975-1.050 2.119t-0.375 2.419q0 1.65 0.619 3.094t1.725 2.55 2.55 1.725 3.094 0.619q1.275 0 2.419-0.375t2.119-1.012l1.5 1.5zM12 18.413q-1.313 0-2.475-0.506t-2.044-1.388-1.387-2.044-0.506-2.475q0-0.938 0.262-1.8t0.713-1.575l1.2 1.163q-0.262 0.488-0.412 1.050t-0.15 1.162q0 1.313 0.656 2.4t1.744 1.744 2.4 0.656q0.6 0 1.163-0.15t1.050-0.413l1.163 1.2q-0.712 0.45-1.575 0.712t-1.8 0.263zM7.462 5.4q0.975-0.638 2.119-1.013t2.419-0.375q1.65 0 3.094 0.619t2.55 1.725 1.725 2.55 0.619 3.094q0 1.275-0.375 2.419t-1.012 2.119l-1.163-1.163q0.45-0.712 0.713-1.575t0.262-1.8q0-1.313-0.506-2.475t-1.387-2.044-2.044-1.387-2.475-0.506q-0.938 0-1.8 0.262t-1.575 0.713zM16.8 12q0 0.6-0.15 1.163t-0.413 1.050l-6.45-6.45q0.487-0.262 1.050-0.412t1.163-0.15q1.313 0 2.4 0.656t1.744 1.744 0.656 2.4z"></path>
</svg>
