<!-- Generated by IcoMoon.io -->
<svg version="1.1" xmlns="http://www.w3.org/2000/svg" width="42" height="40" viewBox="0 0 42 40">
<title>mp-airplane_mode_off-</title>
<path fill="#fff" d="M7.564 5.131c-0.657-0.626-1.72-0.626-2.376 0-0.657 0.626-0.657 1.638 0 2.262l28.822 27.45c0.655 0.626 1.719 0.626 2.376 0 0.655-0.624 0.655-1.637 0-2.262l-28.822-27.45zM26.697 34.017c0.519 1.2 1.746 1.982 3.106 1.982v0c0.208 0 0.395-0.050 0.595-0.072l-4.887-4.654 1.186 2.744zM20.8 26.787l-2.376-2.262-5.618 5.349-2.376-2.262 5.616-5.349-2.376-2.262-4.428 4.218c-0.657 0.624-1.72 0.624-2.376 0v0c-0.657-0.626-1.72-0.626-2.376 0v0c-0.657 0.624-0.657 1.638 0 2.262 6.584 6.27 7.977 7.598 9.502 9.051 0.657 0.626 1.72 0.626 2.377 0v0c0.655-0.626 0.655-1.638 0-2.262v0c-0.657-0.626-0.657-1.638 0-2.262l4.428-4.219zM30.675 8.331c0.657-0.626 1.72-0.626 2.377 0 0.655 0.626 0.655 1.638 0 2.262l-7.501 7.144 7.074 6.738-2.737-6.344 6.727-6.406c1.312-1.25 1.312-3.275 0-4.525l-2.376-2.262c-1.312-1.25-3.441-1.25-4.753 0l-6.727 6.406-6.66-2.608 7.074 6.739 7.5-7.144zM4 11.424c0-0.197 0.052-0.376 0.074-0.565l4.887 4.654-2.881-1.131c-1.258-0.493-2.080-1.661-2.080-2.958v0z"></path>
</svg>
