<!-- Generated by IcoMoon.io -->
<svg version="1.1" xmlns="http://www.w3.org/2000/svg" width="40" height="40" viewBox="0 0 40 40">
<title>mp-arrow_left_circle-1</title>
<path fill="#fff" d="M32.8 10.444c0 1.764-1.435 3.199-3.2 3.199s-3.2-1.435-3.2-3.199c0-1.764 1.435-3.199 3.2-3.199s3.2 1.435 3.2 3.199zM23.426 8.769h-13.315l1.81-1.77-2.262-2.244-5.658 5.665 0.016 0.019-0.016 0.018 5.658 5.655 2.262-2.298-1.81-1.846h13.315c0.714 3.199 3.195 4.836 6.174 4.836 3.534 0 6.4-2.845 6.4-6.38 0-3.533-2.866-6.424-6.4-6.424-2.979 0-5.461 1.571-6.174 4.769zM32.8 29.646c0 1.764-1.435 3.199-3.2 3.199s-3.2-1.435-3.2-3.199c0-1.764 1.435-3.199 3.2-3.199s3.2 1.435 3.2 3.199zM23.426 27.96h-13.315l1.81-1.766-2.262-2.239-5.658 5.665 0.016 0.021-0.016 0.018 5.658 5.655 2.262-2.303-1.81-1.852h13.315c0.714 3.199 3.195 4.841 6.174 4.841 3.534 0 6.4-2.842 6.4-6.375s-2.866-6.429-6.4-6.429c-2.979 0-5.461 1.566-6.174 4.764z"></path>
</svg>
