<!-- Generated by IcoMoon.io -->
<svg version="1.1" xmlns="http://www.w3.org/2000/svg" width="16" height="40" viewBox="0 0 16 40">
<title>mp-arrow_up_circle-</title>
<path fill="#fff" d="M10.4 32.8c-1.765 0-3.2-1.435-3.2-3.2s1.435-3.2 3.2-3.2c1.765 0 3.2 1.435 3.2 3.2s-1.435 3.2-3.2 3.2zM12 23.426v-13.315l1.81 1.81 2.262-2.262-5.656-5.658-0.016 0.016-0.016-0.016-5.656 5.658 2.262 2.262 1.81-1.81v13.315c-3.2 0.714-4.8 3.195-4.8 6.174 0 3.534 2.866 6.4 6.4 6.4s6.4-2.866 6.4-6.4c0-2.979-1.6-5.461-4.8-6.174z"></path>
</svg>
