<!-- Generated by IcoMoon.io -->
<svg version="1.1" xmlns="http://www.w3.org/2000/svg" width="40" height="40" viewBox="0 0 40 40">
<title>mp-arrow_left-7</title>
<path fill="#fff" d="M18.208 35.532c0.626 0.625 1.638 0.625 2.262 0 0.626-0.625 0.626-1.636 0-2.259l-10.304-10.287c-0.504-0.503-0.147-1.363 0.565-1.363h23.669c0.883 0 1.6-0.73 1.6-1.612v-0.006c0-0.882-0.717-1.577-1.6-1.577h-23.669c-0.712 0-1.069-0.861-0.565-1.364l10.354-10.338c0.626-0.625 0.626-1.636 0-2.26v0c-0.624-0.623-1.637-0.623-2.262 0l-13.32 13.299c-1.25 1.247-1.25 3.27 0 4.517 0.325 0.324 13.528 13.505 13.27 13.248z"></path>
</svg>
