<!-- Generated by IcoMoon.io -->
<svg version="1.1" xmlns="http://www.w3.org/2000/svg" width="40" height="40" viewBox="0 0 40 40">
<title>mp-arrow_down-3</title>
<path fill="#fff" d="M35.532 21.78c0.625-0.626 0.625-1.64 0-2.264-0.625-0.626-1.636-0.626-2.259 0l-10.301 10.313c-0.503 0.504-1.375 0.147-1.375-0.565v-23.689c0-0.884-0.703-1.574-1.584-1.574h-0.006c-0.882 0-1.604 0.69-1.604 1.574v23.689c0 0.713-0.848 1.070-1.351 0.565l-10.331-10.363c-0.623-0.626-1.631-0.626-2.255 0h0.002c-0.623 0.625-0.623 1.638 0.002 2.264l13.297 13.331c1.247 1.251 3.271 1.251 4.519 0 0.288-0.29 13.537-13.572 13.247-13.282z"></path>
</svg>
