<!-- Generated by IcoMoon.io -->
<svg version="1.1" xmlns="http://www.w3.org/2000/svg" width="100" height="40" viewBox="0 0 100 40">
<title>mp-arrow_right_circle-2</title>
<path fill="#fff" d="M12.001 20c0-4.412 3.588-8 8-8s8 3.588 8 8c0 4.412-3.588 8-8 8s-8-3.588-8-8zM35.437 23.996h36.58l-1.696 1.696c-1.56 1.564-1.56 4.096 0.004 5.66v0c1.564 1.56 4.096 1.56 5.656-0.008l5.688-5.704c3.108-3.12 3.108-8.164 0-11.28l-5.684-5.704c-1.564-1.568-4.096-1.568-5.66-0.008-1.564 1.564-1.564 4.092-0.004 5.656l1.696 1.692h-36.58c-2.084-8-10.172-13.644-19.232-11.56-5.756 1.324-10.432 5.996-11.764 11.748-2.424 10.496 5.48 19.816 15.56 19.816 7.448 0 13.652-4.004 15.436-12.004z"></path>
</svg>
