<!-- Generated by IcoMoon.io -->
<svg version="1.1" xmlns="http://www.w3.org/2000/svg" width="40" height="40" viewBox="0 0 40 40">
<title>mp-arrow_down-5</title>
<path fill="#fff" d="M32.8 12c0 0.883-0.717 1.6-1.6 1.6h-22.4c-0.883 0-1.6-0.717-1.6-1.6v-3.2c0-0.883 0.717-1.6 1.6-1.6h22.4c0.883 0 1.6 0.717 1.6 1.6v3.2zM36 13.6v-6.4c0-1.768-1.432-3.2-3.2-3.2h-25.6c-1.768 0-3.2 1.432-3.2 3.2v6.4c0 1.768 1.432 3.2 3.2 3.2h11.2v12.469c0 0.714-0.861 1.070-1.365 0.566l-2.693-2.693c-0.624-0.626-1.638-0.626-2.262 0-0.624 0.624-0.624 1.637 0 2.262l5.659 5.659c1.25 1.248 3.274 1.248 4.522 0 0.91-0.909 1.096-1.096 5.659-5.659 0.624-0.624 0.624-1.638 0-2.262-0.626-0.626-1.638-0.626-2.264 0l-2.69 2.69c-0.504 0.504-1.366 0.147-1.366-0.566v-12.466h11.2c1.768 0 3.2-1.432 3.2-3.2v0z"></path>
</svg>
