<!-- Generated by IcoMoon.io -->
<svg version="1.1" xmlns="http://www.w3.org/2000/svg" width="40" height="40" viewBox="0 0 40 40">
<title>mp-arrow_left_circle-3</title>
<path fill="#fff" d="M27.344 12.654c-1.246-1.248-1.246-3.278 0-4.525 1.246-1.248 3.273-1.248 4.517 0 1.246 1.246 1.246 3.277 0 4.525-1.244 1.248-3.271 1.248-4.517 0v0zM12.016 32.832l-2.543 0.022 16.924-16.949c1.634 0.627 5.632 1.126 7.735-0.979 2.495-2.499 2.488-6.557-0.006-9.056s-6.531-2.49-9.026 0.010c-2.103 2.106-2.717 5.002-0.961 7.768l-16.924 16.94-0.011-2.587h-3.201l-0.003 8h8.005l0.011-3.168z"></path>
</svg>
