<!-- Generated by IcoMoon.io -->
<svg version="1.1" xmlns="http://www.w3.org/2000/svg" width="33" height="40" viewBox="0 0 33 40">
<title>mp-arrow_right_double-6</title>
<path fill="#fff" d="M6.667 7.673c0-0.735 0.537-1.008 1.273-1.008h21.333c0.736 0 1.393-0.758 1.393-1.495v0.081c0-0.735-0.657-1.251-1.393-1.251h-22.667c-1.473 0-2.607 0.869-2.607 2.34v21.313c0 1.472 1.133 2.988 2.607 2.988h9.057c0.593 0 0.891 0.555 0.471 0.975l-2.243 2.159c-0.52 0.521-0.52 1.324 0 1.844 0.521 0.521 1.365 0.5 1.887-0.020 0.624-0.625 3.981-4.075 4.713-4.564 0.384-0.382 0.191-0.394 0.697-0.394h3.808c0.593 0 0.891 0.555 0.471 0.975l-2.243 2.159c-0.52 0.521-0.52 1.324 0 1.844 0.521 0.521 1.365 0.5 1.887-0.020 0.149-0.149 4.863-4.874 4.713-4.725 1.041-1.040 1.041-2.729 0-3.77l-4.713-4.712c-0.521-0.519-1.365-0.521-1.887 0-0.52 0.52-0.52 1.363 0 1.884l2.243 2.402c0.42 0.42 0.123 1.299-0.471 1.299h-4.093c-0.113 0-0.244-0.546-0.412-0.714l-4.713-4.79c-0.521-0.521-1.365-0.561-1.887-0.040-0.52 0.52-0.52 1.343 0 1.864l2.243 2.391c0.42 0.42 0.123 1.289-0.471 1.289h-7.724c-0.736 0-1.273-0.92-1.273-1.656v-18.649z"></path>
</svg>
