<!-- Generated by IcoMoon.io -->
<svg version="1.1" xmlns="http://www.w3.org/2000/svg" width="16" height="40" viewBox="0 0 16 40">
<title>mp-arrow_double_circle-2</title>
<path fill="#fff" d="M10.4 7.2c1.765 0 3.2 1.435 3.2 3.2s-1.435 3.2-3.2 3.2c-1.765 0-3.2-1.435-3.2-3.2s1.435-3.2 3.2-3.2zM8.8 16.575v14.632l-0.678-0.678c-0.624-0.624-1.638-0.624-2.262 0.002v0c-0.624 0.626-0.624 1.638 0.003 2.262l2.282 2.275c1.246 1.243 3.266 1.243 4.512 0l2.282-2.274c0.627-0.626 0.627-1.638 0.003-2.264-0.626-0.626-1.638-0.626-2.262-0.002l-0.678 0.678v-14.632c3.2-0.832 5.459-4.069 4.626-7.693-0.531-2.302-2.398-4.173-4.699-4.706-4.198-0.97-7.926 2.192-7.926 6.224 0 2.979 1.6 5.461 4.8 6.174z"></path>
</svg>
