<!-- Generated by IcoMoon.io -->
<svg version="1.1" xmlns="http://www.w3.org/2000/svg" width="33" height="40" viewBox="0 0 33 40">
<title>mp-arrow_left-10</title>
<path fill="#fff" d="M6.664 18.52h19.977c0.735 0 1.332 0.591 1.332 1.32v6.6c0 0.729-0.597 1.32-1.332 1.32h-17.038c-0.593 0-0.89-0.711-0.47-1.127l2.24-2.22c0.519-0.515 0.519-1.35 0-1.866-0.521-0.515-1.364-0.515-1.884 0l-4.708 4.668c-1.040 1.031-1.040 2.702 0 3.733 1.709 1.694 2.974 2.948 4.708 4.668 0.521 0.515 1.364 0.515 1.884 0 0.519-0.516 0.519-1.352 0-1.866l-2.24-2.222c-0.42-0.414-0.123-1.126 0.47-1.126h18.37c1.472 0 2.664-1.181 2.664-2.64v-9.24h0.031c0-1.459-1.223-2.64-2.694-2.64h-19.977c-0.735 0-1.332-0.591-1.332-1.32v-6.6c0-0.729 0.597-1.32 1.332-1.32h21.309c0.735 0 1.332-0.591 1.332-1.32v0c0-0.729-0.597-1.32-1.332-1.32h-22.641c-1.472 0-2.633 1.32-2.633 2.64h-0.031v9.24h0.031c0 1.459 1.161 2.64 2.633 2.64z"></path>
</svg>
