<!-- Generated by IcoMoon.io -->
<svg version="1.1" xmlns="http://www.w3.org/2000/svg" width="40" height="40" viewBox="0 0 40 40">
<title>mp-arrow_all-4</title>
<path fill="#fff" d="M16.8 23.2h6.4v-6.4h-6.4v6.4zM36 19.984l-5.656-5.656-2.264 2.262 1.81 1.81h-3.49v-4.8h-4.8v-3.49l1.81 1.81 2.262-2.264-5.656-5.656-0.016 0.016-0.016-0.016-5.656 5.656 2.262 2.264 1.81-1.81v3.49h-4.8v4.8h-3.49l1.81-1.81-2.262-2.262-5.658 5.656 0.016 0.016-0.016 0.016 5.658 5.656 2.262-2.262-1.81-1.81h3.49v4.8h4.8v3.49l-1.81-1.81-2.262 2.262 5.656 5.658 0.016-0.016 0.016 0.016 5.656-5.658-2.262-2.262-1.81 1.81v-3.49h4.8v-4.8h3.49l-1.81 1.81 2.264 2.262 5.656-5.656-0.016-0.016 0.016-0.016z"></path>
</svg>
