<!-- Generated by IcoMoon.io -->
<svg version="1.1" xmlns="http://www.w3.org/2000/svg" width="40" height="40" viewBox="0 0 40 40">
<title>mp-arrow_left_double_circle-</title>
<path fill="#fff" d="M32.8 29.602c0 1.765-1.435 3.2-3.2 3.2s-3.2-1.435-3.2-3.2c0-1.765 1.435-3.2 3.2-3.2s3.2 1.435 3.2 3.2zM23.425 28h-14.632l0.678-0.677c0.624-0.626 0.624-1.638-0.002-2.262v0c-0.626-0.626-1.638-0.624-2.262 0.003l-2.275 2.282c-1.243 1.246-1.243 3.264 0 4.512l2.274 2.282c0.626 0.627 1.638 0.627 2.264 0.003 0.626-0.626 0.626-1.638 0.002-2.264l-0.678-0.678h14.632c0.832 3.2 4.069 5.461 7.693 4.626 2.302-0.53 4.173-2.397 4.706-4.699 0.97-4.197-2.192-7.925-6.224-7.925-2.979 0-5.461 1.598-6.174 4.798zM32.8 10.4c0 1.765-1.435 3.2-3.2 3.2s-3.2-1.435-3.2-3.2c0-1.765 1.435-3.2 3.2-3.2s3.2 1.435 3.2 3.2zM23.425 8.8h-14.632l0.678-0.678c0.624-0.624 0.624-1.637-0.002-2.262v0c-0.626-0.624-1.638-0.624-2.262 0.003l-2.275 2.282c-1.243 1.246-1.243 3.266 0 4.512l2.274 2.282c0.626 0.627 1.638 0.627 2.264 0.003 0.626-0.626 0.626-1.637 0.002-2.262l-0.678-0.678h14.632c0.832 3.2 4.069 5.459 7.693 4.626 2.302-0.531 4.173-2.398 4.706-4.699 0.97-4.198-2.192-7.926-6.224-7.926-2.979 0-5.461 1.6-6.174 4.8z"></path>
</svg>
