<!-- Generated by IcoMoon.io -->
<svg version="1.1" xmlns="http://www.w3.org/2000/svg" width="40" height="40" viewBox="0 0 40 40">
<title>mp-arrow_left-6</title>
<path fill="#fff" d="M7.192 35.998h17.805c0.862 0 1.403-0.696 1.403-1.558v-0.045c0-0.88-0.522-1.597-1.402-1.597h-13.678c-0.714 0-1.069-0.864-0.565-1.368l24.779-24.734c0.618-0.616 0.618-1.618 0.002-2.234v0c-0.618-0.618-1.616-0.616-2.232 0.002l-24.742 24.798c-0.504 0.504-1.362 0.149-1.362-0.565v-13.526c0-0.87-0.714-1.573-1.586-1.573h-0.045c-0.872 0-1.57 0.702-1.57 1.573v17.622c0 1.768 1.424 3.205 3.192 3.205z"></path>
</svg>
