<!-- Generated by IcoMoon.io -->
<svg version="1.1" xmlns="http://www.w3.org/2000/svg" width="40" height="40" viewBox="0 0 40 40">
<title>mp-arrow_right_circle-4</title>
<path fill="#fff" d="M12.671 31.864c-1.247 1.246-3.275 1.246-4.521 0-1.247-1.246-1.247-3.273 0-4.518 1.245-1.246 3.274-1.246 4.521 0 1.247 1.244 1.247 3.272 0 4.518zM12.671 12.687c-1.247 1.246-3.275 1.246-4.521 0-1.247-1.244-1.247-3.272 0-4.518 1.245-1.246 3.274-1.246 4.521 0s1.247 3.273 0 4.518zM34.374 27.997c-0.882 0-1.602 0.714-1.602 1.596v0.957l-10.541-10.534 10.541-10.532v0.957c0 0.882 0.737 1.546 1.619 1.546h0.008c0.882 0 1.602-0.692 1.6-1.575l-0.003-3.216c-0.003-1.759-1.427-3.196-3.187-3.196h-3.219c-0.882 0-1.599 0.714-1.6 1.596 0 0.882 0.716 1.599 1.599 1.599h0.957l-10.541 10.548-4.103-4.093c1.683-2.856 0.983-6.722-2.166-8.693-2.001-1.251-4.642-1.251-6.643-0.002-3.651 2.28-4.052 7.144-1.204 9.99 2.105 2.102 5.302 2.412 7.753 0.97l4.103 4.101-4.103 4.101c-2.858-1.681-6.73-0.982-8.701 2.166-1.253 2-1.255 4.639-0.005 6.639 2.279 3.647 7.147 4.048 9.995 1.201 2.105-2.102 2.414-5.297 0.97-7.748l4.103-4.128 10.541 10.506h-0.957c-0.882 0-1.611 0.759-1.611 1.641v0.006c0 0.883 0.724 1.601 1.606 1.599l3.21-0.003c1.758-0.003 3.176-1.426 3.176-3.184v-3.217c0-0.883-0.711-1.599-1.595-1.599z"></path>
</svg>
