<!-- Generated by IcoMoon.io -->
<svg version="1.1" xmlns="http://www.w3.org/2000/svg" width="29" height="40" viewBox="0 0 29 40">
<title>mp-arrow_repeat-2</title>
<path fill="#fff" d="M14.286 16.739v6.798c0 0.625 0.512 1.133 1.143 1.133s1.143-0.508 1.143-1.133v-6.798c0-0.625-0.512-1.133-1.143-1.133s-1.143 0.508-1.143 1.133zM25.714 19.863c-0.631 0-1.143 0.506-1.143 1.133v6.798c0 0.625-0.512 1.133-1.143 1.133h-14.621c-0.509 0-0.763-0.611-0.403-0.968l1.922-1.906c0.446-0.442 0.446-1.159 0-1.602-0.447-0.443-1.17-0.443-1.617 0l-4.040 4.005c-0.893 0.886-0.893 2.32 0 3.205 1.312 1.301 2.47 2.449 4.040 4.005 0.447 0.443 1.17 0.443 1.617 0 0.446-0.442 0.446-1.159 0-1.602l-1.922-1.905c-0.36-0.357-0.105-0.968 0.403-0.968h15.763c1.263 0 2.286-1.015 2.286-2.266v-7.931c0-0.627-0.512-1.133-1.143-1.133zM5.143 20.138c0.631 0 1.143-0.508 1.143-1.133v-6.798c0-0.625 0.512-1.408 1.143-1.408h14.621c0.509 0 0.763 0.748 0.403 1.105l-1.922 1.975c-0.446 0.442-0.446 1.194 0 1.636 0.447 0.443 1.17 0.46 1.617 0.018l4.040-3.997c0.893-0.885 0.893-2.316 0-3.201-0.625-0.616-3.409-3.376-4.040-4.003-0.447-0.442-1.17-0.442-1.617 0.001-0.446 0.442-0.446 1.16 0 1.602l1.922 1.769c0.36 0.357 0.105 0.829-0.403 0.829h-15.763c-1.263 0-2.286 1.289-2.286 2.541v7.931c0 0.625 0.512 1.133 1.143 1.133z"></path>
</svg>
