<!-- Generated by IcoMoon.io -->
<svg version="1.1" xmlns="http://www.w3.org/2000/svg" width="33" height="40" viewBox="0 0 33 40">
<title>mp-arrow_right_double-7</title>
<path fill="#fff" d="M6.632 4c-1.453 0-2.632 1.167-2.632 2.606v21.154c0 1.459 1.195 2.64 2.667 2.64h9.023c0.593 0 0.891 0.711 0.471 1.127l-2.243 2.22c-0.52 0.515-0.52 1.35 0 1.866 0.521 0.515 1.365 0.515 1.887 0 0.507-0.502 4.768-4.603 5.125-5.214h4.093c0.593 0 0.891 0.711 0.471 1.127l-2.243 2.22c-0.52 0.515-0.52 1.35 0 1.866 0.521 0.515 1.365 0.515 1.887 0 0.119-0.117 4.764-4.718 4.713-4.667 1.041-1.031 1.041-2.702 0-3.733l-4.713-4.667c-0.521-0.515-1.365-0.515-1.887 0-0.52 0.516-0.52 1.352 0 1.866l2.243 2.22c0.42 0.416 0.123 1.127-0.471 1.127h-4.093c-0.113-0.194-0.244-0.38-0.412-0.546l-4.713-4.667c-0.521-0.515-1.365-0.515-1.887 0-0.52 0.516-0.52 1.352 0 1.866l2.243 2.22c0.42 0.416 0.123 1.127-0.471 1.127h-7.724c-0.717 0-1.299-0.576-1.299-1.284v-18.516c0-0.729 0.597-1.32 1.333-1.32h18.667c0.737 0 1.333 0.591 1.333 1.32v7.92c0 0.729 0.597 1.32 1.333 1.32 0.737 0 1.333-0.591 1.333-1.32v-9.24c0-1.459-1.193-2.64-2.667-2.64h-21.368z"></path>
</svg>
