<!-- Generated by IcoMoon.io -->
<svg version="1.1" xmlns="http://www.w3.org/2000/svg" width="53" height="40" viewBox="0 0 53 40">
<title>mp-adobe_cloud-</title>
<path fill="#fff" d="M21.716 32.955c-0.44-0.415-2.086-1.993-2.853-2.746-0.171-0.167-0.329-0.25-0.571-0.243-7.032 0.174-9.646-5.9-7.983-10.283 1.274-3.36 4.802-5.405 8.278-4.773 2.919 0.528 3.65 1.693 8.216 6.382 1.263 1.298 3.351-0.643 2.021-2.010-1.453-1.493-2.872-3.028-4.383-4.459-2.934-2.778-6.391-3.606-10.214-2.422-5.143 1.587-8.154 6.981-6.979 12.306 1.071 4.851 5.246 8.255 10.133 8.259 0.361 0 3.972 0.009 4.334-0.011zM22.772 10.024c0.026 0.035 0.032 0.050 0.043 0.056 0.88 0.439 1.716 0.957 2.511 1.541 0.049 0.037 0.173 0.022 0.235-0.017 4.353-2.802 9.951-1.836 13.118 2.294 3.308 4.309 2.301 9.742-0.436 12.811-4.173 4.676-10.633 4.192-14.253 0.478-1.955-2.006-3.923-3.998-5.883-6-1.541-1.569-3.53 0.621-2.139 2.012 6.971 6.948 8.135 9.021 13.078 9.688 4.359 0.584 8.695-0.972 11.674-4.624 4.092-5.025 3.754-12.225-0.197-16.734-5.133-5.854-12.964-5.583-17.751-1.506zM46.667 19.273c0 8.57-5.15 15.62-15.012 16.723-1.081 0-14.185 0.022-15.242-0.041-13.187-0.844-17.445-19.445-4.964-25.79 2.274-1.157 4.949-1.645 7.889-1.246 0.081 0.013 0.197-0.024 0.254-0.082 8.757-9.089 25.435-5.236 27.074 10.437z"></path>
</svg>
