<!-- Generated by IcoMoon.io -->
<svg version="1.1" xmlns="http://www.w3.org/2000/svg" width="40" height="40" viewBox="0 0 40 40">
<title>mp-arrow_up_outside-</title>
<path fill="#fff" d="M34.4 15.378h-8v-4.54c0-0.725 0.862-1.087 1.366-0.575l2.691 2.736c0.626 0.636 1.638 0.636 2.262 0 0.626-0.634 0.626-1.663 0-2.298l-5.659-5.749c-1.248-1.268-3.274-1.268-4.522 0-0.906 0.92-1.098 1.115-5.659 5.749-0.624 0.634-0.624 1.664 0.002 2.298 0.624 0.636 1.637 0.636 2.262 0l2.69-2.732c0.504-0.512 1.366-0.15 1.366 0.575v4.537h-17.6c-0.883 0-1.6 0.728-1.6 1.625s0.717 1.625 1.6 1.625h28.8c0.883 0 1.6-0.728 1.6-1.625s-0.717-1.625-1.6-1.625zM5.6 25.131h8v4.031c0 0.725-0.862 1.087-1.366 0.575l-2.691-2.736c-0.624-0.636-1.638-0.636-2.262 0-0.624 0.634-0.624 1.663 0 2.298l5.659 5.749c1.25 1.268 3.274 1.268 4.522 0 0.912-0.926 1.096-1.112 5.659-5.749 0.624-0.634 0.624-1.664 0-2.298-0.626-0.636-1.638-0.636-2.264 0l-2.69 2.732c-0.504 0.512-1.366 0.15-1.366-0.575v-4.028h17.6c0.883 0 1.6-0.728 1.6-1.625s-0.717-1.625-1.6-1.625h-28.8c-0.883 0-1.6 0.728-1.6 1.625s0.717 1.625 1.6 1.625z"></path>
</svg>
