<!-- Generated by IcoMoon.io -->
<svg version="1.1" xmlns="http://www.w3.org/2000/svg" width="40" height="40" viewBox="0 0 40 40">
<title>mp-brightness-2</title>
<path fill="#fff" d="M26.788 26.788c-0.624 0.626 1.638 3.901 2.262 4.525 0.626 0.626 1.638 0.626 2.262 0 0.626-0.624 0.626-1.637 0-2.262-0.624-0.624-3.899-2.888-4.525-2.262zM8.686 8.686c-0.624 0.626-0.624 1.638 0 2.264 0.626 0.624 3.901 2.886 4.526 2.262 0.624-0.626-1.638-3.901-2.262-4.526-0.626-0.624-1.638-0.624-2.264 0zM8.686 29.051c-0.624 0.626-0.624 1.638 0 2.262 0.626 0.626 1.638 0.626 2.264 0 0.624-0.624 2.886-3.899 2.262-4.525-0.626-0.626-3.901 1.638-4.526 2.262zM31.313 10.95c0.626-0.626 0.626-1.638 0-2.264-0.624-0.624-1.637-0.624-2.262 0-0.624 0.626-2.886 3.901-2.262 4.526 0.626 0.624 3.901-1.638 4.525-2.262zM19.999 29.599c-0.883 0-1.6 3.917-1.6 4.8 0 0.885 0.717 1.6 1.6 1.6 0.885 0 1.6-0.715 1.6-1.6 0-0.883-0.715-4.8-1.6-4.8zM19.999 10.399c0.885 0 1.6-3.915 1.6-4.8 0-0.883-0.715-1.6-1.6-1.6-0.883 0-1.6 0.717-1.6 1.6 0 0.885 0.717 4.8 1.6 4.8zM34.399 18.399c-0.883 0-4.8 0.717-4.8 1.6 0 0.885 3.917 1.6 4.8 1.6 0.885 0 1.6-0.715 1.6-1.6 0-0.883-0.715-1.6-1.6-1.6zM10.399 19.999c0-0.883-3.915-1.6-4.8-1.6-0.883 0-1.6 0.717-1.6 1.6 0 0.885 0.717 1.6 1.6 1.6 0.885 0 4.8-0.715 4.8-1.6zM26.399 19.999c0 3.534-2.864 6.4-6.4 6.4-3.534 0-6.4-2.866-6.4-6.4s2.866-6.4 6.4-6.4c3.536 0 6.4 2.866 6.4 6.4z"></path>
</svg>
