<!-- Generated by IcoMoon.io -->
<svg version="1.1" xmlns="http://www.w3.org/2000/svg" width="30" height="40" viewBox="0 0 30 40">
<title>mp-balloon-1</title>
<path fill="#fff" d="M11.674 24.042c-1.712-2.18-3.674-6.462-3.674-8.34 0-4.246 3.588-7.702 8-7.702 4.41 0 8 3.456 8 7.702 0 1.878-1.964 6.16-3.676 8.34-5.362-0.054-3.388-0.054-8.65 0zM22.694 27.398c2.464-2.622 5.306-8.434 5.306-11.696 0-6.462-5.374-11.702-12-11.702-6.628 0-12 5.24-12 11.702 0 3.262 2.84 9.074 5.304 11.696 0.926 0.984 2.134 0.646 4.696 0.62v3.982h-2c-1.106 0-2 0.96-2 2.064v0.034c0 1.104 0.894 1.902 2 1.902h8c1.098 0 1.986-0.824 1.996-1.92-0.010-1.096-0.898-2.080-1.996-2.080h-2v-3.982c2.56 0.026 3.77 0.364 4.694-0.62z"></path>
</svg>
