<!-- Generated by IcoMoon.io -->
<svg version="1.1" xmlns="http://www.w3.org/2000/svg" width="44" height="40" viewBox="0 0 44 40">
<title>mp-bag_minus_play_round-</title>
<path fill="#fff" d="M37.601 32.8h-6.4c-0.883 0-1.6 0.717-1.6 1.6s0.717 1.6 1.6 1.6h6.4c0.883 0 1.6-0.717 1.6-1.6s-0.717-1.6-1.6-1.6v0zM24.801 12c0-3.2-2.154-4.8-4.8-4.8s-4.8 2.154-4.8 4.8v1.6h9.6v-1.6zM29.127 16.8h-1.126v3.2c0 0.883-0.717 1.6-1.6 1.6s-1.6-0.717-1.6-1.6v-3.2h-9.6v3.2c0 0.883-0.717 1.6-1.6 1.6s-1.6-0.717-1.6-1.6v-3.2h-1.126c-0.795 0-1.47 0.586-1.584 1.374l-1.829 12.798c-0.138 0.965 0.611 1.827 1.584 1.827h17.355v3.2h-19.2c-1.947 0-3.443-1.725-3.168-3.653l2.286-16c0.226-1.576 2.064-2.747 3.658-2.747h2.024v-1.6c0-4.411 3.589-8 8-8s8 3.2 8 8v1.6h2.514c1.592 0 2.942 1.171 3.168 2.747l1.893 13.253h-3.232l-1.632-11.427c-0.114-0.787-0.789-1.373-1.584-1.373v0zM18.018 20.118l6.4 4c0.51 0.312 0.51 1.053 0 1.365l-6.4 3.998c-0.533 0.326-1.218-0.058-1.218-0.682v-7.998c0-0.626 0.685-1.008 1.218-0.683v0z"></path>
</svg>
