<!-- Generated by IcoMoon.io -->
<svg version="1.1" xmlns="http://www.w3.org/2000/svg" width="40" height="40" viewBox="0 0 40 40">
<title>mp-bathtub-</title>
<path fill="#fff" d="M25.879 29.66l-3.467-6.466h7.106l-3.638 6.466zM16.411 31.191l3.328-6.211 3.33 6.211h-6.658zM13.551 29.751l-3.69-6.558h7.206l-3.517 6.558zM34.4 19.995h-24v-11.309c0-0.883 0.717-1.599 1.6-1.599s1.6 0.717 1.6 1.599v1.599c0 0.883 0.717 1.599 1.6 1.599s1.6-0.717 1.6-1.599v-3.199c0-1.767-1.434-3.085-3.2-3.085h-3.2c-1.768 0-3.2 1.318-3.2 3.085v12.909h-1.6c-0.883 0-1.6 0.715-1.6 1.599 0 0.883 0.717 1.599 1.6 1.599h0.589l5.571 9.632-0.493 0.785c-0.418 0.779-0.125 1.681 0.654 2.098s1.749 0.358 2.166-0.421l0.608-0.899h10.086l0.608 0.865c0.418 0.779 1.387 0.939 2.166 0.521s1.072-1.454 0.654-2.231l-0.541-0.777 5.518-9.574h1.211c0.883 0 1.6-0.717 1.6-1.599 0-0.884-0.717-1.599-1.6-1.599v0z"></path>
</svg>
