<!-- Generated by IcoMoon.io -->
<svg version="1.1" xmlns="http://www.w3.org/2000/svg" width="40" height="40" viewBox="0 0 40 40">
<title>mp-cart_up_round-</title>
<path fill="#fff" d="M23.484 9.091l-1.883-1.083v11.803c0 0.883-0.717 1.6-1.6 1.6-0.885 0-1.6-0.717-1.6-1.6v-11.803l-1.885 1.083c-0.925 0.531-2.078-0.136-2.078-1.202 0-0.496 0.266-0.955 0.696-1.203l4.069-2.341c0.494-0.283 1.102-0.283 1.595 0l4.070 2.341c1.566 0.902 0.221 3.328-1.384 2.405zM28.001 32.8c-0.883 0-1.6-0.718-1.6-1.6 0-2.115 3.2-2.115 3.2 0 0 0.882-0.718 1.6-1.6 1.6zM8.801 32.8c-0.883 0-1.6-0.718-1.6-1.6 0-0.883 0.717-1.6 1.6-1.6 0.882 0 1.6 0.717 1.6 1.6 0 0.882-0.718 1.6-1.6 1.6zM34.401 4h-4.8c-4.242 0-3.2 4.125-3.2 19.2h-16v-8c0-3.208 4.8 0.008 4.8-3.2 0-0.885-0.717-1.6-1.6-1.6h-3.2c-1.768 0-3.2 1.432-3.2 3.2v13.093c-2.139 0.762-3.592 2.973-3.107 5.467 0.366 1.883 1.917 3.414 3.805 3.757 3.048 0.555 5.702-1.771 5.702-4.717 0-2.088-1.341-3.845-3.2-4.507v-0.293h16v0.293c-2.139 0.762-3.592 2.973-3.107 5.467 0.366 1.883 1.917 3.414 3.805 3.757 3.048 0.555 5.702-1.771 5.702-4.717 0-2.088-1.341-3.845-3.2-4.507 0-21.579-1.587-19.493 4.8-19.493 0.883 0 1.6-0.717 1.6-1.6 0-0.885-0.717-1.6-1.6-1.6z"></path>
</svg>
