<!-- Generated by IcoMoon.io -->
<svg version="1.1" xmlns="http://www.w3.org/2000/svg" width="40" height="40" viewBox="0 0 40 40">
<title>mp-cut1</title>
<path fill="#fff" d="M23.232 17.335c0-0.477-0.373-0.864-0.834-0.864s-0.834 0.387-0.834 0.864c0 0.477 0.373 0.864 0.834 0.864s0.834-0.387 0.834-0.864v0zM18.661 19.685l-3.461 5.115h9.619l-2.63-3.365-1.163 1.773-2.365-3.523zM26.4 36h3.2v-4.8h-3.2v4.8zM29.6 26.4h-16v-11.2h-3.2v14.4h25.6v-3.2h-6.4zM13.6 13.6h12.8v11.2h3.2v-14.4h-25.6v3.2h9.6zM10.4 8.8h3.2v-4.8h-3.2v4.8z"></path>
</svg>
