<!-- Generated by IcoMoon.io -->
<svg version="1.1" xmlns="http://www.w3.org/2000/svg" width="50" height="40" viewBox="0 0 50 40">
<title>mp-car_round-7</title>
<path fill="#fff" d="M40 26h-1.558c-1.098-1.22-2.672-2-4.442-2-0.706 0-1.372 0.144-2 0.368v-2.368h6c1.104 0 2 0.896 2 2v2zM34 32c-1.102 0-2-0.898-2-2s0.898-2 2-2c1.102 0 2 0.898 2 2s-0.898 2-2 2v0zM28 18h-20v-8c0-1.104 0.896-2 2-2h16c1.104 0 2 0.896 2 2v8zM28 26h-9.558c-1.098-1.22-2.672-2-4.442-2s-3.344 0.78-4.442 2h-1.558v-4h20v4zM14 32c-1.102 0-2-0.898-2-2s0.898-2 2-2c1.102 0 2 0.898 2 2s-0.898 2-2 2v0zM32 18v-10c0-2.21-1.79-4-4-4h-20c-2.21 0-4 1.79-4 4v18c0 2.21 1.79 4 4 4v0c0 3.314 2.686 6 6 6s6-2.686 6-6h8c0 3.314 2.686 6 6 6s6-2.686 6-6v0c2.21 0 4-1.79 4-4v-4c0-2.21-1.79-4-4-4h-8z"></path>
</svg>
