<!-- Generated by IcoMoon.io -->
<svg version="1.1" xmlns="http://www.w3.org/2000/svg" width="50" height="40" viewBox="0 0 50 40">
<title>mp-car-9</title>
<path fill="#fff" d="M40 26h-1.902c-1.1-2-2.5-2.030-4.27-2.030-0.706 0-1.828 0.114-1.828 0.338v-2.308h8v4zM33.654 31.94c-1.102 0-2-0.898-2-2 0-1.104 0.898-2 2-2s2 0.896 2 2c0 1.102-0.898 2-2 2v0zM20 18v-10h8v10h-8zM20 26v-4h8v4h-8zM13.654 31.94c-1.102 0-2-0.898-2-2 0-1.104 0.898-2 2-2s2 0.896 2 2c0 1.102-0.898 2-2 2v0zM9.212 26h-1.212v-4h8v2.322c0-0.228-1.464-0.352-2.172-0.352-1.77 0-3.518 0.030-4.616 2.030v0zM8 18v-10h8v10h-8zM32 18v-14h-28v26h3.654c0 4 2.686 6 6 6s6-2 6-6h8c0 4 2.686 6 6 6s6-2 6-6h4.346v-12h-12z"></path>
</svg>
