<!-- Generated by IcoMoon.io -->
<svg version="1.1" xmlns="http://www.w3.org/2000/svg" width="57" height="40" viewBox="0 0 57 40">
<title>mp-cloud_minus-</title>
<path fill="#fff" d="M26.92 22.272h13.752v-4.576h-13.752v4.576zM44.819 17.176c-2.993-12.253-19.913-10.166-21.751-1.112-0.309 1.517-0.516 3.011-0.653 4.205-0.131 1.151-1.128 2.002-2.287 2.002-1.302 0-2.345-1.071-2.31-2.37l0.048-1.75c-0.752-0.281-1.556-0.455-2.404-0.455-4.208 0-7.545 3.791-6.761 8.134 0.601 3.325 3.75 5.594 7.135 5.594l17.963-0.011c7.149-0.114 12.842-6.782 11.022-14.236v0zM49.714 19.984c0 8.761-6.75 15.868-15.918 16.003 0 0-0.044 0.005-0.069 0.007 0.025 0 0.046 0.007 0.069 0.007h-18.336c-6.328 0-11.46-5.123-11.46-11.44 0-6.32 5.132-11.44 11.46-11.44 1.24 0 2.411 0.247 3.53 0.611 6.778-15.939 30.724-11.2 30.724 6.253v0zM33.796 31.385v0.027c-0.062 0.002-0.121 0.011-0.183 0.011 0.126 0 0.183-0.034 0.183-0.039v0z"></path>
</svg>
