<!-- Generated by IcoMoon.io -->
<svg version="1.1" xmlns="http://www.w3.org/2000/svg" width="40" height="40" viewBox="0 0 40 40">
<title>mp-car-2</title>
<path fill="#fff" d="M32.8 28h-0.979c-0.878-1.6-2.272-1.723-3.688-1.723-0.563 0-1.733 0.227-1.733 0.405v-1.882h6.4v3.2zM28.267 32.552c-0.883 0-1.6-0.718-1.6-1.6s0.717-1.6 1.6-1.6c0.882 0 1.6 0.718 1.6 1.6s-0.718 1.6-1.6 1.6v0zM19.061 21.6l-0.014-14.4h2.821l1.6 14.4h-4.406zM23.2 28h-3.76c-0.326-1.6-0.984-2.805-1.987-3.2h5.747v3.2zM16.021 30.952c-0.554 0.952-1.574 1.6-2.754 1.6s-2.2-0.648-2.755-1.6c-0.275-0.472-0.445-1.014-0.445-1.6s0.17-1.128 0.445-1.6c0.555-0.952 1.576-1.6 2.755-1.6s2.198 0.648 2.754 1.6c0.277 0.472 0.446 1.014 0.446 1.6s-0.17 1.128-0.446 1.6v0zM7.467 26.682v-2.13h1.584c-0.664 0.589-1.208 1.314-1.584 2.13v0zM7.2 7.2h8.646l0.014 14.4h-8.661v-14.4zM26.667 21.6l-1.6-17.6h-21.067v27.2h3.093c0.714 3.2 3.195 4.8 6.174 4.8 2.978 0 5.459-1.6 6.173-4.8h4.027c0 3.2 2.149 4.8 4.8 4.8s4.8-1.6 4.8-4.8h2.933v-9.6h-9.333z"></path>
</svg>
