<!-- Generated by IcoMoon.io -->
<svg version="1.1" xmlns="http://www.w3.org/2000/svg" width="40" height="40" viewBox="0 0 40 40">
<title>mp-cloud_up-</title>
<path fill="#fff" d="M14.482 10.81c-0.782-0.255-1.601-0.428-2.468-0.428-4.427 0-8.014 3.583-8.014 8.006 0 4.421 3.587 8.006 8.014 8.006h8.014v-3.202h-7.753c-2.367 0-4.57-1.588-4.99-3.916-0.548-3.037 1.786-5.69 4.728-5.69 0.593 0 1.156 0.122 1.681 0.319l-0.034 1.225c-0.024 0.908 0.705 1.659 1.616 1.659 0.811 0 1.508-0.596 1.6-1.401 0.096-0.836 0.24-1.881 0.457-2.943 1.293-6.371 13.159-7.754 15.243 0.778 0.821 3.364-1.329 6.491-2.932 8.315v3.774c3.206-1.792 6.355-5.644 6.355-10.124 0-12.16-16.762-15.569-21.518-4.376v0zM30.47 17.643l-2.234 2.264-1.797-1.859v17.952h-3.206v-17.824l-1.794 1.731-2.326-2.264 5.674-5.66 5.682 5.66z"></path>
</svg>
