<!-- Generated by IcoMoon.io -->
<svg version="1.1" xmlns="http://www.w3.org/2000/svg" width="40" height="40" viewBox="0 0 40 40">
<title>mp-call-6</title>
<path fill="#fff" d="M20 16.8v3.2h3.2c0-1.768-1.432-3.2-3.2-3.2zM20 10.4v3.2c3.53 0 6.4 2.87 6.4 6.4h3.2c0-5.302-4.298-9.6-9.6-9.6zM20 4v3.2c7.058 0 12.8 5.742 12.8 12.8h3.2c0-8.837-7.163-16-16-16zM27.443 33.174c-0.018 0.050-0.019 0.058 0 0zM26.587 28.925c-1.112-0.598-2.237-1.28-3.4-1.755-2.248-0.917-2.096 1.794-3.701 2.672-1.043 0.571-2.515-0.464-3.426-1.037-1.59-1.002-3-2.32-4.171-3.845-0.6-0.779-1.925-2.245-1.762-3.338 0.259-1.734 2.31-1.821 1.723-3.942-0.314-1.136-0.875-2.254-1.296-3.349-0.563-1.467-0.795-2.406-2.438-2.326-1.187 0.058-1.974 0.565-2.704 1.517-1.974 2.571-1.677 6.038-0.35 8.859 1.878 3.992 5.098 7.755 8.536 10.187 2.339 1.654 5.421 3.157 8.253 3.411 2.074 0.187 4.974-0.934 5.717-3.186-0.051 0.157-0.101 0.309-0.125 0.381 0.018-0.056 0.056-0.17 0.125-0.381 0.075-0.227 0.112-0.341 0.13-0.392-0.022 0.067-0.074 0.224-0.128 0.387 0.653-1.984 0.733-2.941-0.982-3.864zM27.698 32.402c0.013-0.038 0.013-0.042 0 0z"></path>
</svg>
