<!-- Generated by IcoMoon.io -->
<svg version="1.1" xmlns="http://www.w3.org/2000/svg" width="32" height="40" viewBox="0 0 32 40">
<title>mp-charger-</title>
<path fill="#fff" d="M10.4 26.4v-9.6c0-4.266 3.2-6.4 6.398-6.4h0.003c3.198 0 6.398 2.134 6.398 6.4v9.6h-12.8zM26.4 26.4v-9.6c0-5.685-3.789-8.84-8-9.474v-3.326h-3.2v3.326c-4.211 0.634-8 3.789-8 9.474v9.6h-1.6c-0.883 0-1.6 0.717-1.6 1.6v0c0 0.883 0.717 1.6 1.6 1.6h6.4v4.8c0 0.883 0.717 1.6 1.6 1.6s1.6-0.717 1.6-1.6v-4.8h3.2v4.8c0 0.883 0.717 1.6 1.6 1.6s1.6-0.717 1.6-1.6v-4.8h6.4c0.883 0 1.6-0.717 1.6-1.6v0c0-0.883-0.717-1.6-1.6-1.6h-1.6z"></path>
</svg>
