<!-- Generated by IcoMoon.io -->
<svg version="1.1" xmlns="http://www.w3.org/2000/svg" width="50" height="40" viewBox="0 0 50 40">
<title>mp-car-8</title>
<path fill="#fff" d="M40 26h-1.164c-1.098-1.22-2.87-2-4.64-2-0.704 0-2.196 0.144-2.196 0.368v-2.368h8v4zM34.392 32c-1.102 0-2-0.898-2-2s0.898-2 2-2c1.104 0 2 0.898 2 2s-0.896 2-2 2v0zM8 18v-10h20v10h-20zM28 26h-9.164c-1.098-1.22-2.674-2-4.444-2s-3.344 0.78-4.442 2h-1.95v-4h20v4zM14.392 32c-1.102 0-2-0.898-2-2s0.898-2 2-2c1.104 0 2 0.898 2 2s-0.896 2-2 2v0zM32 18v-14h-28v26h4.392c0 3.314 2.688 6 6 6 3.314 0 6-2.686 6-6h8c0 3.314 2.688 6 6 6 3.314 0 6-2.686 6-6h3.608v-12h-12z"></path>
</svg>
