<!-- Generated by IcoMoon.io -->
<svg version="1.1" xmlns="http://www.w3.org/2000/svg" width="40" height="40" viewBox="0 0 40 40">
<title>mp-controller-</title>
<path fill="#fff" d="M9.737 20l2.262-1.925v3.85l-2.262-1.925zM28 18.075l2.264 1.925-2.264 1.925v-3.85zM18.075 28h3.85l-1.925 2.262-1.925-2.262zM20 9.738l1.925 2.262h-3.85l1.925-2.262zM32.8 23.2c0 0.883-0.715 1.6-1.6 1.6h-3.2c-1.766 0-3.2 1.432-3.2 3.2v3.2c0 0.883-0.715 1.6-1.6 1.6h-6.4c-0.883 0-1.6-0.717-1.6-1.6v-3.2c0-1.768-1.432-3.2-3.2-3.2h-3.2c-0.883 0-1.6-0.717-1.6-1.6v-6.4c0-0.883 0.717-1.6 1.6-1.6h3.2c1.768 0 3.2-1.432 3.2-3.2v-3.2c0-0.883 0.717-1.6 1.6-1.6h6.4c0.885 0 1.6 0.717 1.6 1.6v3.2c0 1.768 1.434 3.2 3.2 3.2h3.2c0.885 0 1.6 0.717 1.6 1.6v6.4zM32.8 12h-3.2c-0.883 0-1.6-0.717-1.6-1.6v-3.2c0-1.768-1.432-3.2-3.2-3.2h-9.6c-1.766 0-3.2 1.432-3.2 3.2v3.2c0 0.883-0.715 1.6-1.6 1.6h-3.2c-1.766 0-3.2 1.432-3.2 3.2v9.602c0 1.766 1.432 3.198 3.198 3.198h3.203c0.883 0 1.598 0.72 1.598 1.603v3.197c0 1.768 1.434 3.2 3.2 3.2h9.6c1.768 0 3.2-1.432 3.2-3.2v-3.2c0-0.883 0.717-1.6 1.6-1.6h3.2c1.768 0 3.2-1.432 3.2-3.2v-9.6c0-1.768-1.432-3.2-3.2-3.2v0z"></path>
</svg>
