<!-- Generated by IcoMoon.io -->
<svg version="1.1" xmlns="http://www.w3.org/2000/svg" width="42" height="40" viewBox="0 0 42 40">
<title>mp-clouds_sun-</title>
<path fill="#fff" d="M8.26 10.24c-0.569-0.568-0.569-1.486 0-2.053 0.569-0.568 1.489-0.568 2.057 0 0.569 0.566 0.569 1.485 0 2.053-0.567 0.568-1.488 0.568-2.057 0zM26.774 10.24c-0.569-0.568-0.569-1.486 0-2.053 0.567-0.568 1.489-0.568 2.057 0 0.569 0.566 0.569 1.485 0 2.053-0.567 0.568-1.489 0.568-2.057 0zM6.909 18.452c0 0.801-0.652 1.452-1.455 1.452s-1.455-0.65-1.455-1.452c0-0.801 0.652-1.452 1.455-1.452s1.455 0.65 1.455 1.452zM17.091 5.387c0-0.801 0.652-1.452 1.455-1.452s1.455 0.65 1.455 1.452c0 0.801-0.652 1.452-1.455 1.452s-1.455-0.65-1.455-1.452zM32.694 32.168c-1.633 1.113-1.603 0.8-18.342 0.8-0.705 0-1.389-0.231-1.932-0.633-3.028-2.246 0.452-7 3.561-4.535-1.485-4.879 2.268-9.348 6.924-9.348 3.577 0 6.49 2.648 7.132 5.821 4.348-0.157 6.159 5.506 2.657 7.895zM18.545 11.194c3.094 0 5.724 1.945 6.774 4.668-0.775-0.189-1.577-0.314-2.41-0.314-2.589 0-4.95 0.964-6.743 2.553-1.5 1.327-2.595 3.093-3.105 5.094-1.108-1.273-1.788-2.928-1.788-4.744 0-4.002 3.263-7.258 7.273-7.258zM32.285 21.699c-0.009-0.001-0.015-0.006-0.020-0.012-0.006-0.004-0.010-0.010-0.013-0.017-0.767-1.761-2.022-3.257-3.588-4.333-0.557-5.087-4.873-9.047-10.118-9.047-5.623 0-10.182 4.549-10.182 10.161 0 2.614 1.008 4.982 2.636 6.781-4.886 3.192-2.564 10.639 3.475 10.639 16.086 0 17.583 0.602 20.48-1.884 4.359-3.741 2.739-10.649-2.669-12.288z"></path>
</svg>
