<!-- Generated by IcoMoon.io -->
<svg version="1.1" xmlns="http://www.w3.org/2000/svg" width="49" height="40" viewBox="0 0 49 40">
<title>mp-camera-3</title>
<path fill="#fff" d="M4 34.222v0c0-0.981 0.796-1.778 1.778-1.778h7.111c0.981 0 1.778 0.796 1.778 1.778s-0.796 1.778-1.778 1.778h-7.111c-0.981 0-1.778-0.796-1.778-1.778v0zM25.333 31.556c-1.961 0-3.556-1.595-3.556-3.556s1.595-3.556 3.556-3.556c1.961 0 3.556 1.595 3.556 3.556s-1.595 3.556-3.556 3.556v0zM25.333 20.889c-3.927 0-7.111 3.184-7.111 7.111s3.184 7.111 7.111 7.111c3.927 0 7.111-3.184 7.111-7.111s-3.184-7.111-7.111-7.111v0zM30.667 11.111h-10.667v-1.778c0-0.981 0.796-1.778 1.778-1.778h7.111c0.981 0 1.778 0.796 1.778 1.778v1.778zM41.333 11.111v-1.778c0-0.981-0.796-1.778-1.778-1.778s-1.778 0.796-1.778 1.778v1.778h-3.556v-3.556c0-1.964-1.591-3.556-3.556-3.556h-10.667c-1.964 0-3.556 1.591-3.556 3.556v3.556h-5.333c-1.964 0-3.556 1.591-3.556 3.556v10.667h3.556v-8.889c0-0.981 0.796-1.778 1.778-1.778h24.889c0.981 0 1.778 0.796 1.778 1.778v16h-1.778c-0.981 0-1.778 0.796-1.778 1.778s0.796 1.778 1.778 1.778h1.778c1.964 0 3.556-1.591 3.556-3.556v-21.333h-1.778z"></path>
</svg>
