<!-- Generated by IcoMoon.io -->
<svg version="1.1" xmlns="http://www.w3.org/2000/svg" width="40" height="40" viewBox="0 0 40 40">
<title>mp-clubs-</title>
<path fill="#fff" d="M26.4 28c-3.536 0-6.4-2.934-6.4-6.4 0 8.565-12.8 8.349-12.8 0 0-3.645 3.098-6.506 6.635-6.376-1.109-4.197 2.146-8.024 6.165-8.024 4.062 0 7.262 3.87 6.165 8.024 8.659-0.318 8.784 12.776 0.235 12.776zM29.538 12.534c-0.53-4.8-4.597-8.534-9.538-8.534s-9.008 3.734-9.538 8.534c-4.298 1.49-7.216 5.933-6.291 10.91 0.648 3.474 3.283 6.368 6.677 7.355 2.378 0.69 4.616 0.445 6.534-0.408 0.64-0.283 1.302 0.338 1.067 0.995l-0.573 1.6c-0.525 1.467 0.563 3.013 2.123 3.013s2.648-1.546 2.123-3.013l-0.573-1.6c-0.235-0.658 0.427-1.278 1.067-0.995 1.918 0.853 4.157 1.098 6.534 0.408 3.394-0.987 6.029-3.882 6.677-7.355 0.926-4.978-1.992-9.421-6.291-10.91z"></path>
</svg>
