<!-- Generated by IcoMoon.io -->
<svg version="1.1" xmlns="http://www.w3.org/2000/svg" width="47" height="40" viewBox="0 0 47 40">
<title>mp-cover_flow-3</title>
<path fill="#fff" d="M11.467 7.556c-1.030 0-1.867 0.796-1.867 1.778v21.333c0 0.981 0.836 1.778 1.867 1.778s1.867-0.796 1.867-1.778v-21.333c0-0.981-0.836-1.778-1.867-1.778v0zM26.4 16.444c0-0.981-0.836-1.778-1.867-1.778h-3.733c-1.030 0-1.867 0.796-1.867 1.778v7.111c0 0.981 0.836 1.778 1.867 1.778h3.733c1.030 0 1.867-0.796 1.867-1.778v-7.111zM30.133 25.333c0 1.964-1.671 3.556-3.733 3.556h-7.467c-2.063 0-3.733-1.591-3.733-3.556v-10.667c0-1.964 1.671-3.556 3.733-3.556h7.467c2.063 0 3.733 1.591 3.733 3.556v10.667zM35.733 30.667v-21.333c0-0.981-0.836-1.778-1.867-1.778s-1.867 0.796-1.867 1.778v21.333c0 0.981 0.836 1.778 1.867 1.778s1.867-0.796 1.867-1.778v0zM37.6 5.778v28.444c0 0.981 0.836 1.778 1.867 1.778s1.867-0.796 1.867-1.778v-28.444c0-0.981-0.836-1.778-1.867-1.778s-1.867 0.796-1.867 1.778v0zM5.867 36c-1.030 0-1.867-0.796-1.867-1.778v-28.444c0-0.981 0.836-1.778 1.867-1.778s1.867 0.796 1.867 1.778v28.444c0 0.981-0.836 1.778-1.867 1.778v0z"></path>
</svg>
