<!-- Generated by IcoMoon.io -->
<svg version="1.1" xmlns="http://www.w3.org/2000/svg" width="57" height="40" viewBox="0 0 57 40">
<title>mp-cloud_minus-2</title>
<path fill="#fff" d="M41.615 13.697c0 0-1.607-4.151-5.849-6.988-9.883-6.614-23.227-0.445-24.736 11.235 0 0-3.275 0.736-5.36 3.705-4.176 5.944-0.089 13.956 7.497 14.31v-4.551c-1.010-0.053-1.984-0.393-2.768-0.975-4.793-3.559 0.805-10.94 5.595-7.134-4.709-15.505 19.038-20.661 22.087-5.551 7.685-0.276 9.966 10.611 2.514 13.248v4.64c11.986-2.821 11.986-18.609 1.019-21.938v0zM17.738 36h18.286v-4.569h-18.286v4.569z"></path>
</svg>
