<!-- Generated by IcoMoon.io -->
<svg version="1.1" xmlns="http://www.w3.org/2000/svg" width="57" height="40" viewBox="0 0 57 40">
<title>mp-cloud-</title>
<path fill="#fff" d="M38.050 31.362c-23.849 0-25.385 0.7-27.671-0.994-4.791-3.55 0.805-10.915 5.595-7.117-4.699-15.436 19.029-20.65 22.087-5.54 9.013-0.321 9.726 13.65-0.011 13.65zM41.595 13.672c0 0-1.607-4.138-5.849-6.971-9.881-6.595-23.227-0.444-24.736 11.209-0.011 0.084-0.135 0.089-0.066 0.073-2.176 0.538-4.046 1.848-5.294 3.621-2.549 3.619-2.258 8.908 1.669 12.096 3.639 2.953 4.754 2.219 30.448 2.219 3.013 0 5.863-1.105 8.023-2.958 6.857-5.877 4.293-16.719-4.194-19.29z"></path>
</svg>
