<!-- Generated by IcoMoon.io -->
<svg version="1.1" xmlns="http://www.w3.org/2000/svg" width="40" height="40" viewBox="0 0 40 40">
<title>mp-car-3</title>
<path fill="#fff" d="M32.8 28h-1.003c-0.88-0.976-2.259-1.6-3.675-1.6-0.565 0-1.722 0.115-1.722 0.294v-1.894h6.4v3.2zM28.242 32.8c-0.882 0-1.6-0.718-1.6-1.6s0.718-1.6 1.6-1.6c0.883 0 1.6 0.718 1.6 1.6s-0.717 1.6-1.6 1.6v0zM19.416 28c-0.328-1.264-1.038-2.365-1.987-3.2h5.771v3.2h-3.784zM15.997 31.2c-0.555 0.952-1.576 1.6-2.755 1.6s-2.2-0.648-2.755-1.6c-0.275-0.472-0.445-1.014-0.445-1.6s0.17-1.128 0.445-1.6c0.555-0.952 1.576-1.6 2.755-1.6s2.2 0.648 2.755 1.6c0.275 0.472 0.445 1.014 0.445 1.6s-0.17 1.128-0.445 1.6v0zM7.442 26.93v-2.13h1.586c-0.666 0.589-1.208 1.314-1.586 2.13v0zM15.822 7.2l0.014 14.4h-8.637v-14.4h8.622zM23.2 21.6h-4.163l-0.014-14.4h4.178v14.4zM26.4 21.6v-17.6h-22.4v27.2h3.069c0.714 2.755 3.194 4.8 6.173 4.8s5.461-2.045 6.174-4.8h4.026c0 2.651 2.149 4.8 4.8 4.8s4.8-2.149 4.8-4.8h2.958v-9.6h-9.6z"></path>
</svg>
