<!-- Generated by IcoMoon.io -->
<svg version="1.1" xmlns="http://www.w3.org/2000/svg" width="28" height="40" viewBox="0 0 28 40">
<title>mp-container-5</title>
<path fill="#fff" d="M10.4 23.2v-12.8h9.6v12.8h-9.6zM18.4 32.8h-6.4c-0.883 0-1.6-0.717-1.6-1.6v-4.8h9.6v4.8c0 0.883-0.717 1.6-1.6 1.6v0zM18.4 7.2v0c0-1.768-1.432-3.2-3.2-3.2s-3.2 1.432-3.2 3.2h-6.4c-0.883 0-1.6 0.717-1.6 1.6s0.717 1.6 1.6 1.6h1.6v22.4c0 1.768 1.432 3.2 3.2 3.2h9.6c1.768 0 3.2-1.432 3.2-3.2v-22.4h1.6c0.883 0 1.6-0.717 1.6-1.6s-0.717-1.6-1.6-1.6h-6.4z"></path>
</svg>
