<!-- Generated by IcoMoon.io -->
<svg version="1.1" xmlns="http://www.w3.org/2000/svg" width="67" height="40" viewBox="0 0 67 40">
<title>mp-car-4</title>
<path fill="#fff" d="M52 22.667h-0.552c-2.003-2.667-4.059-2.888-6.685-2.667-0.936 0.080-2.693 0.424-3.429 1.163v-3.829h10.667v5.333zM45.525 30.667c-1.472 0-2.667-1.197-2.667-2.667s1.195-2.667 2.667-2.667c1.469 0 2.667 1.197 2.667 2.667s-1.197 2.667-2.667 2.667v0zM36 22.667h-11.219c-1.464-1.624-3.563-2.667-5.923-2.667s-4.461 1.043-5.925 2.667h-3.6v-5.333h26.667v5.333zM18.859 30.667c-1.472 0-2.667-1.197-2.667-2.667s1.195-2.667 2.667-2.667c1.469 0 2.667 1.197 2.667 2.667s-1.197 2.667-2.667 2.667v0zM41.333 12v-8h-5.333v8h-26.667v-8h-5.333v24h6.859c0 4.419 3.581 8 8 8 4.416 0 8-3.581 8-8h10.667c0 4.419 3.581 8 8 8 4.416 0 8-3.581 8-8h3.808v-16h-16z"></path>
</svg>
