<!-- Generated by IcoMoon.io -->
<svg version="1.1" xmlns="http://www.w3.org/2000/svg" width="50" height="40" viewBox="0 0 50 40">
<title>mp-cannon-</title>
<path fill="#fff" d="M26.508 18.734l12.38-4.29-2.018-5.483-15.048 5.214c1.97 1.064 3.596 2.646 4.686 4.559v0zM24 24.354c0-4.28-3.59-7.764-8-7.764-0.55 0-1.086 0.056-1.604 0.159l-0.128 0.045-0.004-0.008c-3.578 0.773-6.264 3.867-6.264 7.568 0 4.282 3.588 7.764 8 7.764 4.41 0 8-3.482 8-7.764v0zM27.818 22.403c0.11 0.637 0.182 1.285 0.182 1.951 0 6.433-5.374 11.646-12 11.646-6.628 0-12-5.214-12-11.646 0-1.914 0.484-3.715 1.328-5.309-0.806-0.66-1.328-1.634-1.328-2.737 0-1.988 1.66-3.601 3.708-3.601 1.136 0 2.142 0.509 2.822 1.289 0.838-0.417 1.734-0.74 2.674-0.957l26.088-9.039 1.346 3.655 2.016 5.485 1.346 3.655-16.182 5.608zM20 24.354c0 2.145-1.792 3.882-4 3.882-2.21 0-4-1.737-4-3.882 0-2.143 1.79-3.882 4-3.882 2.208 0 4 1.739 4 3.882v0z"></path>
</svg>
