<!-- Generated by IcoMoon.io -->
<svg version="1.1" xmlns="http://www.w3.org/2000/svg" width="40" height="40" viewBox="0 0 40 40">
<title>mp-car-6</title>
<path fill="#fff" d="M32.8 28h-1.15c-0.878-1.6-2.186-1.624-3.602-1.624-0.565 0-1.648 0.091-1.648 0.27v-1.846h6.4v3.2zM28.094 32.752c-0.882 0-1.6-0.718-1.6-1.6 0-0.883 0.718-1.6 1.6-1.6 0.883 0 1.6 0.717 1.6 1.6 0 0.882-0.717 1.6-1.6 1.6v0zM16.8 21.6v-14.4h6.4v14.4h-6.4zM16.8 28v-3.2h6.4v3.2h-6.4zM12.094 32.752c-0.882 0-1.6-0.718-1.6-1.6 0-0.883 0.718-1.6 1.6-1.6 0.883 0 1.6 0.717 1.6 1.6 0 0.882-0.717 1.6-1.6 1.6v0zM8.541 28h-1.341v-3.2h6.4v1.858c0-0.182-0.986-0.282-1.552-0.282-1.416 0-2.629 0.024-3.507 1.624v0zM7.2 21.6v-14.4h6.4v14.4h-6.4zM26.4 21.6v-17.6h-22.4v27.2h3.294c0 3.2 2.149 4.8 4.8 4.8s4.8-1.6 4.8-4.8h6.4c0 3.2 2.149 4.8 4.8 4.8s4.8-1.6 4.8-4.8h3.106v-9.6h-9.6z"></path>
</svg>
