<!-- Generated by IcoMoon.io -->
<svg version="1.1" xmlns="http://www.w3.org/2000/svg" width="40" height="40" viewBox="0 0 40 40">
<title>mp-cloud_connection-3</title>
<path fill="#fff" d="M26.373 26.4c-2.118 0-2.115-3.2 0-3.2h1.462c6.778 0 6.286-9.811-0.021-9.584-2.214-10.963-18.655-6.587-15.472 3.89-2.357-1.872-5.705 0.254-5.116 3.158 0.97 4.766 7.938 0.571 7.938 4.136 0 2.013-2.286 1.6-4.481 1.6-7.996 0-9.064-10.805-1.865-12.594-0.050 0.011 0.037 0.008 0.045-0.051 0.711-5.501 5.405-9.755 11.105-9.755 4.587 0 8.552 2.76 10.284 6.747-0.010-0.021 0 0.021 0.037 0.032 1.747 0.531 3.245 1.632 4.265 3.090 3.434 4.906 0.765 12.531-8.182 12.531zM19.968 32.8c-0.884 0-1.601-0.717-1.601-1.6s0.717-1.6 1.601-1.6c0.884 0 1.601 0.717 1.601 1.6s-0.717 1.6-1.601 1.6zM21.569 26.4v-11.2c0-0.883-0.717-1.6-1.601-1.6s-1.601 0.717-1.601 1.6v11.2c-1.769 0-3.202 1.432-3.202 3.2v3.2c0 1.768 1.433 3.2 3.202 3.2h3.202c1.769 0 3.202-1.432 3.202-3.2v-3.2c0-1.768-1.433-3.2-3.202-3.2z"></path>
</svg>
