<!-- Generated by IcoMoon.io -->
<svg version="1.1" xmlns="http://www.w3.org/2000/svg" width="40" height="40" viewBox="0 0 40 40">
<title>mp-directory_arrow_down-2</title>
<path fill="#fff" d="M12.137 32.801h-0.85c-0.714 0-1.070-0.864-0.563-1.366l8.133-8.090c0.611-0.61 0.614-1.598 0.006-2.211-0.611-0.618-1.61-0.618-2.221 0l-8.075 8.139c-0.502 0.507-1.368 0.15-1.368-0.563v-0.709c0-0.883-0.715-1.6-1.6-1.6-0.883 0-1.6 0.717-1.6 1.6v4.8c0 1.766 1.434 3.2 3.2 3.2h4.938c0.875 0 1.587-0.702 1.6-1.576 0.013-0.893-0.707-1.624-1.6-1.624zM36 13.601v19.52c0 1.59-1.29 2.88-2.88 2.88h-14.72c-0.883 0-1.6-0.717-1.6-1.6s0.717-1.6 1.6-1.6h12.8c0.885 0 1.6-0.717 1.6-1.6v-16c0-0.883-0.715-1.6-1.6-1.6h-11.2c-1.766 0-3.2-1.434-3.2-3.2v-1.92c0-0.707-0.573-1.28-1.28-1.28h-6.72c-0.883 0-1.6 0.717-1.6 1.6v12.8c0 0.883-0.715 1.6-1.6 1.6-0.883 0-1.6-0.717-1.6-1.6v-14.080c0-1.936 1.584-3.52 3.52-3.52h9.28c1.768 0 3.2 1.432 3.2 3.2v1.28c0 1.056 0.864 1.92 1.92 1.92h10.88c1.768 0 3.2 1.432 3.2 3.2z"></path>
</svg>
