<!-- Generated by IcoMoon.io -->
<svg version="1.1" xmlns="http://www.w3.org/2000/svg" width="40" height="40" viewBox="0 0 40 40">
<title>mp-desktop-4</title>
<path fill="#fff" d="M32.801 24.8c0 0.883-0.717 1.6-1.599 1.6h-22.392c-0.883 0-1.599-0.717-1.599-1.6v-16c0-0.883 0.717-1.6 1.599-1.6h22.392c0.883 0 1.599 0.717 1.599 1.6v16zM32.785 4h-25.597c-1.766 0-3.188 1.464-3.188 3.232l0.011 0.032v19.2l-0.011-0.032c0 1.768 1.422 3.168 3.188 3.168h9.597c0.884 0 1.622 0.749 1.622 1.632v-0.016c0 0.883-0.737 1.584-1.622 1.584h-4.798c-0.883 0-1.577 0.749-1.577 1.632v-0.016c0 0.883 0.694 1.584 1.577 1.584h15.994c0.884 0 1.622-0.685 1.622-1.568v-0.016c0-0.883-0.737-1.616-1.622-1.616h-4.798c-0.883 0-1.577-0.685-1.577-1.568v-0.016c0-0.883 0.694-1.616 1.577-1.616h9.603l0.011 0.032c1.763 0 3.204-1.398 3.204-3.163v-19.21c0-1.765-1.441-3.227-3.204-3.227l-0.011-0.032z"></path>
</svg>
