<!-- Generated by IcoMoon.io -->
<svg version="1.1" xmlns="http://www.w3.org/2000/svg" width="40" height="40" viewBox="0 0 40 40">
<title>mp-directory_arrow_up-2</title>
<path fill="#fff" d="M16.8 28.001c0 0.883 0.717 1.6 1.6 1.6s1.6-0.717 1.6-1.6v-4.8c0-1.768-1.432-3.2-3.2-3.2h-4.973c-0.875 0-1.587 0.702-1.6 1.576-0.013 0.893 0.707 1.624 1.6 1.624h0.85c0.714 0 1.070 0.864 0.565 1.366l-8.125 8.086c-0.616 0.614-0.618 1.611-0.003 2.227s1.614 0.614 2.229-0.003l8.090-8.141c0.504-0.506 1.368-0.149 1.368 0.565v0.699zM36 13.601v19.52c0 1.59-1.29 2.88-2.88 2.88h-14.72c-0.883 0-1.6-0.717-1.6-1.6s0.717-1.6 1.6-1.6h12.8c0.883 0 1.6-0.717 1.6-1.6v-16c0-0.883-0.717-1.6-1.6-1.6h-11.2c-1.768 0-3.2-1.434-3.2-3.2v-1.92c0-0.707-0.573-1.28-1.28-1.28h-6.72c-0.883 0-1.6 0.717-1.6 1.6v12.8c0 0.883-0.717 1.6-1.6 1.6s-1.6-0.717-1.6-1.6v-14.080c0-1.944 1.576-3.52 3.52-3.52h9.28c1.768 0 3.2 1.432 3.2 3.2v1.28c0 1.056 0.864 1.92 1.92 1.92h10.88c1.768 0 3.2 1.432 3.2 3.2v0z"></path>
</svg>
