<!-- Generated by IcoMoon.io -->
<svg version="1.1" xmlns="http://www.w3.org/2000/svg" width="40" height="40" viewBox="0 0 40 40">
<title>mp-directory_close-2</title>
<path fill="#fff" d="M23.714 24.332c0.626 0.626 0.626 1.638 0 2.262-0.626 0.626-1.638 0.626-2.262 0l-1.358-1.357-1.131 1.131c-0.614 0.614-1.547 0.672-2.173 0.078-0.598-0.63-0.704-1.726-0.090-2.341l1.131-1.131-0.906-0.906c-0.624-0.626-0.624-1.638 0-2.262 0.626-0.626 1.638-0.626 2.264 0l0.904 0.904 1.131-1.131c0.626-0.624 1.694-0.568 2.32 0.058l0.056 0.056c0.626 0.624 0.512 1.525-0.112 2.149l-1.133 1.133 1.358 1.357zM16.756 26.425c0.011 0.010 0.024 0.013 0.034 0.022s0.013 0.024 0.024 0.035l-0.058-0.058zM32.801 31.201c0 0.883-0.397 1.6-1.28 1.6h-22.4c-0.885 0-1.92-0.717-1.92-1.6v-22.4c0-0.883 1.035-1.6 1.92-1.6h6.4c0.883 0 1.28 0.717 1.28 1.6v1.6c0 1.766 1.752 3.2 3.52 3.2h11.2c0.883 0 1.28 0.717 1.28 1.6v16zM33.121 10.401h-11.2c-0.885 0-1.92-0.717-1.92-1.6v-1.6c0-1.768-1.114-3.2-2.88-3.2h-9.6c-1.768 0-3.52 1.432-3.52 3.2v25.6c0 1.766 1.752 3.2 3.52 3.2h25.6c1.766 0 2.88-1.434 2.88-3.2v-19.2c0-1.768-1.114-3.2-2.88-3.2v0z"></path>
</svg>
