<!-- Generated by IcoMoon.io -->
<svg version="1.1" xmlns="http://www.w3.org/2000/svg" width="40" height="40" viewBox="0 0 40 40">
<title>mp-directory_close-1</title>
<path fill="#fff" d="M23.396 22.064l-1.131 1.131 1.136 1.136c0.626 0.626 0.626 1.638 0 2.264-0.624 0.624-1.638 0.624-2.262 0l-1.136-1.138-1.131 1.131c-0.626 0.626-1.467 0.797-2.093 0.171l-0.054-0.054c-0.626-0.626-0.741-1.754-0.117-2.379l1.131-1.131-1.126-1.126c-0.624-0.624-0.624-1.638 0-2.262 0.626-0.626 1.638-0.626 2.264 0l1.126 1.126 1.131-1.131c0.614-0.616 1.766-0.454 2.398 0.147 0.594 0.622 0.478 1.499-0.136 2.115v0zM23.567 19.973c-0.010-0.010-0.026-0.014-0.035-0.024s-0.011-0.022-0.021-0.032l0.056 0.056zM32.799 31.2c0 0.883-0.709 1.6-1.592 1.6h-22.4c-0.883 0-1.608-0.717-1.608-1.6v-22.4c0-0.883 0.725-1.6 1.608-1.6h5.368c0.611 0 1.168 0.347 1.437 0.898l1.818 3.71c0.536 1.096 1.651 1.792 2.874 1.792h10.904c0.883 0 1.592 0.717 1.592 1.6v16zM32.807 10.4h-10.822c-1.213 0-2.32-0.685-2.862-1.768l-1.43-2.862c-0.542-1.085-1.651-1.77-2.862-1.77h-7.622c-1.768 0-3.208 1.434-3.208 3.2v25.6c0 1.768 1.44 3.2 3.208 3.2h25.6c1.766 0 3.192-1.432 3.192-3.2v-19.2c0-1.766-1.426-3.2-3.192-3.2v0z"></path>
</svg>
