<!-- Generated by IcoMoon.io -->
<svg version="1.1" xmlns="http://www.w3.org/2000/svg" width="40" height="40" viewBox="0 0 40 40">
<title>mp-directory_favorite_half-3</title>
<path fill="#fff" d="M32.8 15.201c0-0.883-0.397-1.6-1.28-1.6h-11.2c-1.768 0-3.52-1.434-3.52-3.2v-1.6c0-0.883-0.397-1.6-1.28-1.6h-6.4c-0.883 0-1.92 0.717-1.92 1.6v22.4c0 0.883 1.037 1.6 1.92 1.6h22.4c0.883 0 1.28-0.717 1.28-1.6v-16zM36 13.601v19.2c0 1.766-1.112 3.2-2.88 3.2h-25.6c-1.768 0-3.52-1.434-3.52-3.2v-25.6c0-1.768 1.752-3.2 3.52-3.2h9.6c1.768 0 2.88 1.432 2.88 3.2v1.6c0 0.883 1.037 1.6 1.92 1.6h11.2c1.768 0 2.88 1.432 2.88 3.2v0zM20 16.767v11.36c0 0-0.298 0.045-0.474 0.138l-2.166 1.186c-0.186 0.098-0.378 0.142-0.563 0.142-0.706 0-1.326-0.635-1.192-1.416l0.43-2.512c0.067-0.392-0.064-0.792-0.35-1.070l-1.827-1.778c-0.717-0.699-0.326-1.918 0.666-2.062l2.51-0.366c0.394-0.058 0.712-0.306 0.888-0.662l1.083-2.285c0.221-0.448 0.995-0.674 0.995-0.674v0z"></path>
</svg>
