<!-- Generated by IcoMoon.io -->
<svg version="1.1" xmlns="http://www.w3.org/2000/svg" width="40" height="40" viewBox="0 0 40 40">
<title>mp-emoji_neutral_square_glasses-3</title>
<path fill="#fff" d="M16.8 29.6h6.4v-3.2h-6.4v3.2zM32.8 10.4h-25.6v-3.2h25.6v3.2zM32.8 20h-4.802c-0.883 0-1.598-1.379-1.598-2.262v-4.138h6.4v6.4zM32.8 32.8h-25.6v-9.6h6.4c1.768 0 3.2-2.096 3.2-3.864v-5.736h6.4v5.742c0 1.765 1.429 3.858 3.194 3.858h6.406v9.6zM7.2 13.6h6.4v4.13c0 0.888-0.718 2.27-1.606 2.27h-4.794v-6.4zM4 36h32v-32h-32v32z"></path>
</svg>
