<!-- Generated by IcoMoon.io -->
<svg version="1.1" xmlns="http://www.w3.org/2000/svg" width="40" height="40" viewBox="0 0 40 40">
<title>mp-emoji_neutral-13</title>
<path fill="#fff" d="M13.6 29.6h12.8v-3.2h-12.8v3.2zM7.2 10.4v-2.264c0-0.883 0.717-0.936 1.6-0.936h22.4c0.883 0 1.6 0.053 1.6 0.936v2.264h-25.6zM28 20c-0.883 0-1.6-1.429-1.6-2.312v-4.088h6.4v6.4h-4.8zM20 33.466c-5.968 0-10.981-5.466-12.392-10.266h5.992c1.768 0 3.2-2.146 3.2-3.912v-5.688h6.4v5.688c0 1.766 1.432 3.912 3.2 3.912h5.992c-1.411 4.8-6.424 10.266-12.392 10.266v0zM13.6 13.6v4.088c0 0.883-0.717 2.312-1.6 2.312h-4.8v-6.4h6.4zM32.8 4h-25.6c-1.768 0-3.2 0.768-3.2 2.536v16.664h0.326c1.67 5.574 3.909 7.47 6.102 9.114 2.672 2.002 5.978 3.728 9.571 3.728 5.499 0 11.517-5.043 12.8-6.757 1.398-1.867 2.394-4.485 2.874-6.085h0.326v-16.664c0-1.768-1.432-2.536-3.2-2.536v0z"></path>
</svg>
