<!-- Generated by IcoMoon.io -->
<svg version="1.1" xmlns="http://www.w3.org/2000/svg" width="40" height="40" viewBox="0 0 40 40">
<title>mp-emoji_sad_square_round-3</title>
<path fill="#fff" d="M29.6 15.2c0 0.883-0.717 1.6-1.6 1.6h-3.2c-0.883 0-1.6-0.717-1.6-1.6s0.717-1.6 1.6-1.6h3.2c0.883 0 1.6 0.717 1.6 1.6v0zM16.8 15.2c0 0.883-0.717 1.6-1.6 1.6h-3.2c-0.883 0-1.6-0.717-1.6-1.6s0.717-1.6 1.6-1.6h3.2c0.883 0 1.6 0.717 1.6 1.6v0zM28 29.6h-16c0-11.2 16-11.2 16 0v0zM32.8 31.2c0 0.883-0.717 1.6-1.6 1.6h-22.4c-0.883 0-1.6-0.717-1.6-1.6v-22.4c0-0.883 0.717-1.6 1.6-1.6h22.4c0.883 0 1.6 0.717 1.6 1.6v22.4zM36 7.2c0-1.768-1.432-3.2-3.2-3.2h-25.6c-1.768 0-3.2 1.432-3.2 3.2v25.6c0 1.768 1.432 3.2 3.2 3.2h25.6c1.768 0 3.2-1.432 3.2-3.2v-25.6z"></path>
</svg>
