<!-- Generated by IcoMoon.io -->
<svg version="1.1" xmlns="http://www.w3.org/2000/svg" width="40" height="40" viewBox="0 0 40 40">
<title>mp-emoji_surprised_square_glasses-1</title>
<path fill="#fff" d="M23.2 26.4v0c0-1.768-1.432-3.2-3.2-3.2s-3.2 1.432-3.2 3.2c0 1.768 1.432 3.2 3.2 3.2s3.2-1.432 3.2-3.2zM7.2 10.4v-3.2h25.6v3.2h-25.6zM26.4 17.736v-4.136h6.4v6.4h-4.8c-0.883 0-1.6-1.381-1.6-2.264v0zM32.8 32.8h-25.6v-9.6h6.4c1.768 0 3.2-2.096 3.2-3.864v-5.736h6.4v5.736c0 1.768 1.432 3.864 3.2 3.864h6.4v9.6zM7.2 13.6h6.4v4.136c0 0.883-0.717 2.264-1.6 2.264h-4.8v-6.4zM4 36h32v-32h-32v32z"></path>
</svg>
