<!-- Generated by IcoMoon.io -->
<svg version="1.1" xmlns="http://www.w3.org/2000/svg" width="40" height="40" viewBox="0 0 40 40">
<title>mp-emoji_happy_square-1</title>
<path fill="#fff" d="M24.8 21.6v0c0 6.4-9.6 6.4-9.6 0h-3.2c0 9.6 16 9.6 16 0h-3.2zM28.662 14.536l2.731-2.731-2.262-2.262-2.731 2.731-2.731-2.731-2.262 2.262 2.731 2.731-2.731 2.731 2.262 2.262 2.731-2.731 2.731 2.731 2.262-2.262-2.731-2.731zM15.862 14.536l2.731-2.731-2.262-2.262-2.731 2.731-2.731-2.731-2.262 2.262 2.731 2.731-2.731 2.731 2.262 2.262 2.731-2.731 2.731 2.731 2.262-2.262-2.731-2.731zM7.2 32.8v-25.6h25.6v25.6h-25.6zM4 36h32v-32h-32v32z"></path>
</svg>
