<!-- Generated by IcoMoon.io -->
<svg version="1.1" xmlns="http://www.w3.org/2000/svg" width="42" height="40" viewBox="0 0 42 40">
<title>mp-file_missing_love_favorite-</title>
<path fill="#fff" d="M10.845 28.029c-0.106 0.138-0.32 0.141-0.427 0.003-2.966-3.803-8.187 1.097-3.373 5.622 3.622 3.406 4.142 2.812 7.072 0.095 5.033-4.668-0.351-9.491-3.272-5.72v0zM34.332 20.871h2.757v-2.787h-2.757v2.787zM23.306 32.020h2.757v-2.787h-2.757v2.787zM28.819 32.020h2.757v-2.787h-2.757v2.787zM34.332 32.020h2.757v-2.787h-2.757v2.787zM9.523 6.934h2.757v-2.787h-2.757v2.787zM34.332 26.445h2.757v-2.787h-2.757v2.787zM15.036 6.934h2.757v-2.787h-2.757v2.787zM20.549 6.934h2.757v-2.787h-2.757v2.787zM9.523 12.508h2.757v-2.787h-2.757v2.787zM9.523 23.658h2.757v-2.787h-2.757v2.787zM17.793 32.020h2.757v-2.787h-2.757v2.787zM28.819 4.001h-2.757v11.15h11.026v-2.642l-8.27-8.507zM9.523 18.083h2.757v-2.787h-2.757v2.787z"></path>
</svg>
