<!-- Generated by IcoMoon.io -->
<svg version="1.1" xmlns="http://www.w3.org/2000/svg" width="40" height="40" viewBox="0 0 40 40">
<title>mp-file_zip-</title>
<path fill="#fff" d="M7.197 7.201h15.987v9.6h9.592v3.2h3.197v-5.699l-9.626-10.301h-22.349v16h3.197v-12.8zM32.803 28.169c0-0.885-0.716-1.6-1.599-1.6h-1.599v3.2h1.599c0.882 0 1.599-0.717 1.599-1.6v0zM36 28.001c0 2.651-2.149 4.8-4.796 4.8h-1.624v3.2h-3.197v-12.8h4.822c2.647 0 4.796 2.149 4.796 4.8v0zM13.592 23.201h-9.592v3.2h4.796l-4.796 9.6h9.592v-3.2h-4.796c6.63-13.27 1.925-3.853 4.796-9.6v0zM24.783 23.201v3.2h-3.197v6.4h3.197v3.2h-9.592v-3.2h3.197v-6.4h-3.197v-3.2h9.592z"></path>
</svg>
