<!-- Generated by IcoMoon.io -->
<svg version="1.1" xmlns="http://www.w3.org/2000/svg" width="40" height="40" viewBox="0 0 40 40">
<title>mp-file_rar-</title>
<path fill="#fff" d="M36 14.736v3.631c0 0.884-0.717 1.602-1.6 1.602s-1.6-0.718-1.6-1.602v-1.552h-6.4c-1.768 0-3.2-1.483-3.2-3.253v-6.358h-14.4c-0.883 0-1.6 0.668-1.6 1.552v9.611c0 0.884-0.717 1.602-1.6 1.602s-1.6-0.718-1.6-1.602v-11.213c0-1.768 1.432-3.154 3.2-3.154h18.48c0.438 0 0.858 0.155 1.16 0.474l8.72 9.158c0.282 0.298 0.44 0.694 0.44 1.104v0zM31.198 29.58h-1.6v-3.204h1.6c0.883 0 1.6 0.718 1.6 1.602 0 0.886-0.717 1.602-1.6 1.602v0zM35.973 27.496c-0.256-2.489-2.51-4.274-5.010-4.274h-2.963c-0.883 0-1.6 0.668-1.6 1.552v9.611c0 0.884 0.717 1.602 1.6 1.602s1.6-0.718 1.6-1.602v-1.552h1.598l1.563 2.387c0.242 0.485 0.038 0.78 1.638 0.78v-0.006c0 0 1.397-1.124 0.922-2.076l-1.184-2.002c1.357-0.959 2.022-2.589 1.835-4.419v0zM8.797 29.58h-1.6v-3.204h1.6c0.883 0 1.6 0.718 1.6 1.602 0 0.886-0.717 1.602-1.6 1.602v0zM13.571 27.496c-0.256-2.489-2.51-4.274-5.010-4.274h-2.962c-0.883 0-1.6 0.668-1.6 1.552v9.611c0 0.884 0.717 1.602 1.6 1.602s1.6-0.718 1.6-1.602v-1.552h1.597l1.563 2.387c0.243 0.485 0.040 0.78 1.64 0.78v-0.006c0 0 1.397-1.124 0.92-2.076l-1.184-2.002c1.358-0.959 2.022-2.589 1.835-4.419v0zM21.6 29.58h-3.2v-2.403c0-0.442 0.358-0.801 0.8-0.801h1.6c0.442 0 0.8 0.359 0.8 0.801v2.403zM23.2 23.222h-6.4c-0.883 0-1.6 0.668-1.6 1.552v9.611c0 0.884 0.717 1.602 1.6 1.602s1.6-0.718 1.6-1.602v-1.552h3.2v1.552c0 0.884 0.717 1.602 1.6 1.602s1.6-0.718 1.6-1.602v-9.611c0-0.884-0.717-1.552-1.6-1.552v0z"></path>
</svg>
