<!-- Generated by IcoMoon.io -->
<svg version="1.1" xmlns="http://www.w3.org/2000/svg" width="40" height="40" viewBox="0 0 40 40">
<title>mp-file_favorite-</title>
<path fill="#fff" d="M23.123 20.421l2.522 0.366c0.992 0.144 1.387 1.363 0.67 2.062l-1.826 1.778c-0.285 0.278-0.414 0.678-0.347 1.070l0.43 2.512c0.134 0.781-0.486 1.416-1.192 1.416-0.186 0-0.378-0.045-0.562-0.141l-2.256-1.187c-0.176-0.091-0.37-0.138-0.563-0.138-0.192 0-0.386 0.046-0.562 0.138l-2.256 1.187c-0.184 0.096-0.376 0.141-0.562 0.141-0.706 0-1.326-0.635-1.192-1.416l0.43-2.512c0.067-0.392-0.062-0.792-0.347-1.070l-1.826-1.778c-0.717-0.699-0.322-1.918 0.67-2.062l2.522-0.366c0.394-0.058 0.734-0.304 0.91-0.662l1.128-2.283c0.221-0.45 0.653-0.675 1.083-0.675 0.432 0 0.864 0.226 1.085 0.675l1.128 2.283c0.176 0.358 0.517 0.605 0.91 0.662v0zM32.8 32.8h-25.6v-25.6h16v9.6h9.6v16zM26.4 4h-22.4v32h32v-22.064l-9.6-9.936z"></path>
</svg>
