<!-- Generated by IcoMoon.io -->
<svg version="1.1" xmlns="http://www.w3.org/2000/svg" width="40" height="40" viewBox="0 0 40 40">
<title>mp-folder_plus_fill-</title>
<path fill="#fff" d="M23.2 24.801h-1.6v1.8c0 0.883-0.717 1.6-1.6 1.6s-1.6-0.717-1.6-1.6v-1.8h-1.6c-0.883 0-1.6-0.717-1.6-1.6s0.717-1.6 1.6-1.6h1.6v-1.4c0-0.883 0.717-1.6 1.6-1.6s1.6 0.717 1.6 1.6v1.4h1.6c0.883 0 1.6 0.717 1.6 1.6s-0.717 1.6-1.6 1.6zM32.8 10.401h-11.2c-0.883 0-1.6-0.517-1.6-1.4v-1.6c0-1.768-1.432-3.4-3.2-3.4h-9.6c-1.768 0-3.2 1.632-3.2 3.4v25.6c0 1.768 1.432 3 3.2 3h25.6c1.768 0 3.2-1.232 3.2-3v-19.2c0-1.768-1.432-3.4-3.2-3.4z"></path>
</svg>
