<!-- Generated by IcoMoon.io -->
<svg version="1.1" xmlns="http://www.w3.org/2000/svg" width="42" height="40" viewBox="0 0 42 40">
<title>mp-gallery_grid_view-3</title>
<path fill="#fff" d="M14.080 32.8h-5.040c-0.927 0-1.68-0.717-1.68-1.6s0.753-1.6 1.68-1.6h5.040c0.927 0 1.68 0.717 1.68 1.6s-0.753 1.6-1.68 1.6v0zM15.76 26.4h-8.4c-1.856 0-3.36 1.432-3.36 3.2v3.2c0 1.768 1.504 3.2 3.36 3.2h8.4c1.856 0 3.36-1.432 3.36-3.2v-3.2c0-1.768-1.504-3.2-3.36-3.2v0zM32.56 10.4h-5.040c-0.927 0-1.68-0.717-1.68-1.6s0.753-1.6 1.68-1.6h5.040c0.927 0 1.68 0.717 1.68 1.6s-0.753 1.6-1.68 1.6v0zM34.24 4h-8.4c-1.856 0-3.36 1.432-3.36 3.2v3.2c0 1.768 1.504 3.2 3.36 3.2h8.4c1.856 0 3.36-1.432 3.36-3.2v-3.2c0-1.768-1.504-3.2-3.36-3.2v0zM34.24 31.2c0 0.883-0.753 1.6-1.68 1.6h-5.040c-0.927 0-1.68-0.717-1.68-1.6v-9.6c0-0.883 0.753-1.6 1.68-1.6h5.040c0.927 0 1.68 0.717 1.68 1.6v9.6zM34.24 16.8h-8.4c-1.856 0-3.36 1.432-3.36 3.2v12.8c0 1.768 1.504 3.2 3.36 3.2h8.4c1.856 0 3.36-1.432 3.36-3.2v-12.8c0-1.768-1.504-3.2-3.36-3.2v0zM15.76 18.4c0 0.883-0.753 1.6-1.68 1.6h-5.040c-0.927 0-1.68-0.717-1.68-1.6v-9.6c0-0.883 0.753-1.6 1.68-1.6h5.040c0.927 0 1.68 0.717 1.68 1.6v9.6zM15.76 4h-8.4c-1.856 0-3.36 1.432-3.36 3.2v12.8c0 1.768 1.504 3.2 3.36 3.2h8.4c1.856 0 3.36-1.432 3.36-3.2v-12.8c0-1.768-1.504-3.2-3.36-3.2v0z"></path>
</svg>
