<!-- Generated by IcoMoon.io -->
<svg version="1.1" xmlns="http://www.w3.org/2000/svg" width="40" height="40" viewBox="0 0 40 40">
<title>mp-game_controller_round-3</title>
<path fill="#fff" d="M32.8 18.4c0-0.883-0.717-1.6-1.6-1.6h-22.4c-0.883 0-1.6 0.717-1.6 1.6v12.8c0 0.883 0.717 1.6 1.6 1.6h3.2c0.883 0 1.6-0.717 1.6-1.6s0.717-1.6 1.6-1.6h9.6c0.883 0 1.6 0.717 1.6 1.6s0.717 1.6 1.6 1.6h3.2c0.883 0 1.6-0.717 1.6-1.6v-12.8zM36 16.8v16c0 1.768-1.432 3.2-3.2 3.2h-6.4c-1.768 0-3.2-1.432-3.2-3.2h-6.4c0 1.768-1.432 3.2-3.2 3.2h-6.4c-1.768 0-3.2-1.432-3.2-3.2v-16c0-1.768 1.432-3.2 3.2-3.2h11.2v-3.2c0-1.768 1.432-3.2 3.2-3.2h3.2c0.883 0 1.6-0.717 1.6-1.6v-1.6h3.2v3.2c0 1.768-1.432 3.2-3.2 3.2h-3.2c-0.883 0-1.6 0.717-1.6 1.6v1.6h11.2c1.768 0 3.2 1.432 3.2 3.2v0zM28 20h-3.2c-0.883 0-1.6 0.717-1.6 1.6v3.2c0 0.883 0.717 1.6 1.6 1.6h3.2c0.883 0 1.6-0.717 1.6-1.6v-3.2c0-0.883-0.717-1.6-1.6-1.6v0zM16.8 21.6v3.2c0 0.883-0.717 1.6-1.6 1.6h-3.2c-0.883 0-1.6-0.717-1.6-1.6v-3.2c0-0.883 0.717-1.6 1.6-1.6h3.2c0.883 0 1.6 0.717 1.6 1.6v0z"></path>
</svg>
