<!-- Generated by IcoMoon.io -->
<svg version="1.1" xmlns="http://www.w3.org/2000/svg" width="28" height="40" viewBox="0 0 28 40">
<title>mp-hot_air_balloon-</title>
<path fill="#fff" d="M18.4 34.4c0-0.883-0.717-1.6-1.6-1.6h-3.2c-0.883 0-1.6 0.717-1.6 1.6v0c0 0.883 0.717 1.6 1.6 1.6h3.2c0.883 0 1.6-0.717 1.6-1.6v0zM26.4 13.347c0 8.635-7.067 8.333-8.112 14.907-0.123 0.774-0.786 1.346-1.57 1.346h-3.501c-0.789 0-1.454-0.578-1.573-1.357-1.002-6.563-7.645-6.269-7.645-14.899 0-6.862 5.662-9.344 10.965-9.344s11.435 2.485 11.435 9.347v0z"></path>
</svg>
