<!-- Generated by IcoMoon.io -->
<svg version="1.1" xmlns="http://www.w3.org/2000/svg" width="24" height="40" viewBox="0 0 24 40">
<title>mp-hot_air_balloon-1</title>
<path fill="#fff" d="M12 29.6h3.2v1.6c0 0.883-0.717 1.6-1.6 1.6s-1.6-0.717-1.6-1.6v-1.6zM12 36h3.2c1.768 0 3.2-1.432 3.2-3.2v-4.8c0-0.883-0.717-1.6-1.6-1.6h-6.4c-0.883 0-1.6 0.717-1.6 1.6v4.8c0 1.768 1.432 3.2 3.2 3.2v0zM17.059 20.034c-4.288-0.045-2.71-0.045-6.92 0-1.37-1.744-2.939-5.17-2.939-6.672 0-3.397 2.87-6.162 6.4-6.162s6.4 2.765 6.4 6.162c0 1.502-1.57 4.928-2.941 6.672v0zM13.6 4c-5.302 0-9.6 4.192-9.6 9.362 0 2.608 2.272 7.259 4.243 9.357 0.315 0.334 0.747 0.526 1.206 0.522 5.93-0.061 8.312 0.002 8.301 0 0.459 0.005 0.891-0.187 1.206-0.522 1.971-2.098 4.243-6.749 4.243-9.357 0-5.17-4.298-9.362-9.6-9.362v0z"></path>
</svg>
