<!-- Generated by IcoMoon.io -->
<svg version="1.1" xmlns="http://www.w3.org/2000/svg" width="40" height="40" viewBox="0 0 40 40">
<title>mp-images-1</title>
<path fill="#fff" d="M21.733 21.067v0c-1.766 0-3.2-1.432-3.2-3.2s1.434-3.2 3.2-3.2c1.768 0 3.2 1.432 3.2 3.2s-1.432 3.2-3.2 3.2zM7.2 32.8v-8.006l2.55-2.55 5.168 5.568-4.589 4.989h-3.13zM7.2 20.267v-6.667h19.2v16.138l-6.878-6.878-0.026 0.026-0.026-0.026-2.29 2.29-7.405-7.406-0.026 0.026-0.026-0.026-2.525 2.525zM24.138 32.8h-9.283l4.642-4.642 4.642 4.642zM4 36h25.6v-25.6h-25.6v25.6zM36 4h-25.6v3.2h22.4v22.4h3.2v-25.6z"></path>
</svg>
