<!-- Generated by IcoMoon.io -->
<svg version="1.1" xmlns="http://www.w3.org/2000/svg" width="40" height="40" viewBox="0 0 40 40">
<title>mp-image_picture-1</title>
<path fill="#fff" d="M23.333 18.073c0-1.748 1.434-3.164 3.2-3.164 1.768 0 3.2 1.416 3.2 3.164s-1.432 3.164-3.2 3.164c-1.766 0-3.2-1.416-3.2-3.164v0zM32.8 29.809l-6.421-6.346-0.026 0.024-0.024-0.024-2.29 2.262-7.406-7.321-0.024 0.025-0.026-0.025-9.384 9.277v-13.827h25.6v15.954zM22.171 32.836l4.182-4.135 4.184 4.135h-8.366zM17.646 32.836h-10.336l9.299-9.589 5.168 5.307-4.131 4.282zM19.957 8.869l1.843 1.822h-3.686l1.843-1.822zM26.325 10.691l-6.368-6.691c-2.85 3.066-1.442 1.583-6.368 6.691h-9.589v25.309h32v-25.309h-9.675z"></path>
</svg>
