<!-- Generated by IcoMoon.io -->
<svg version="1.1" xmlns="http://www.w3.org/2000/svg" width="44" height="40" viewBox="0 0 44 40">
<title>mp-important_details-</title>
<path fill="#fff" d="M39.2 20c0 1.766-1.577 3.2-3.52 3.2h-5.583l3.949 3.587c1.373 1.251 1.373 3.277 0 4.528v0c-1.376 1.248-3.604 1.248-4.981 0l-3.946-3.59v5.075c0 1.766-1.577 3.2-3.52 3.2v0c-1.943 0-3.52-1.434-3.52-3.2v-5.075l-3.946 3.59c-1.376 1.248-3.604 1.248-4.981 0-1.373-1.251-1.373-3.277 0-4.528l3.949-3.587h-5.583c-1.943 0-3.52-1.434-3.52-3.2v0c0-1.766 1.577-3.2 3.52-3.2h5.583l-3.949-3.587c-1.373-1.251-1.373-3.277 0-4.528v0c1.376-1.248 3.604-1.248 4.981 0l3.946 3.59v-5.075c0-1.766 1.577-3.2 3.52-3.2v0c1.943 0 3.52 1.434 3.52 3.2v5.075l3.946-3.59c1.376-1.248 3.604-1.248 4.981 0v0c1.373 1.251 1.373 3.277 0 4.528l-3.949 3.587h5.583c1.943 0 3.52 1.434 3.52 3.2v0z"></path>
</svg>
