<!-- Generated by IcoMoon.io -->
<svg version="1.1" xmlns="http://www.w3.org/2000/svg" width="40" height="40" viewBox="0 0 40 40">
<title>mp-image_picture-6</title>
<path fill="#fff" d="M23.2 17.809v0c0 0.873 0.717 1.582 1.6 1.582s1.6-0.709 1.6-1.582c0-0.873-0.717-1.582-1.6-1.582s-1.6 0.709-1.6 1.582zM29.6 29.673l-5.2-6.723-2.234 2.966-4.538-6.031-7.229 9.788h19.2zM7.2 32.836v-18.982h25.6v18.982h-25.6zM19.979 8.869l1.843 1.822h-3.686l1.843-1.822zM26.347 10.691l-6.373-6.691-6.374 6.691h-9.6v25.309h32v-25.309h-9.653z"></path>
</svg>
