<!-- Generated by IcoMoon.io -->
<svg version="1.1" xmlns="http://www.w3.org/2000/svg" width="28" height="40" viewBox="0 0 28 40">
<title>mp-lock_close_cx-</title>
<path fill="#fff" d="M15.2 27.062l2.262 2.262 2.262-2.262-2.262-2.262 2.262-2.262-2.262-2.264-2.262 2.264-2.262-2.264-2.262 2.264 2.262 2.262-2.262 2.262 2.262 2.262 2.262-2.262zM7.2 32.8v-16h16v16h-16zM12 10.4c0-1.765 1.435-3.2 3.2-3.2s3.2 1.6 3.2 3.2v3.2h-6.4v-3.2zM21.6 13.6v-3.2c0-3.2-2.866-6.4-6.4-6.4s-6.4 2.866-6.4 6.4v3.2h-4.8v22.4h22.4v-22.4h-4.8z"></path>
</svg>
