<!-- Generated by IcoMoon.io -->
<svg version="1.1" xmlns="http://www.w3.org/2000/svg" width="42" height="40" viewBox="0 0 42 40">
<title>mp-like-1</title>
<path fill="#fff" d="M4 20.034v12.8c0 1.768 1.504 3.166 3.36 3.166h3.36v-19.2h-3.36c-1.856 0-3.36 1.466-3.36 3.234zM37.481 22.168l-2.92 10.456c-0.48 1.986-2.337 3.376-4.477 3.376h-16.004v-19.166l2.888-9.912c0.341-2.107 2.639-3.522 4.968-2.67 1.393 0.51 2.224 1.891 2.224 3.314v7.669c0 0.883 0.753 1.566 1.68 1.566h7.164c2.955 0 5.141 2.627 4.477 5.368z"></path>
</svg>
