<!-- Generated by IcoMoon.io -->
<svg version="1.1" xmlns="http://www.w3.org/2000/svg" width="40" height="40" viewBox="0 0 40 40">
<title>mp-linkbroken_down_round-1</title>
<path fill="#fff" d="M17.067 27.917v-0.083c0 0-0.005 0.029-0.006 0.042 0.002 0.014 0.006 0.027 0.006 0.042v0zM15.2 26.4h-1.6c-3.739 0-6.741-3.224-6.368-7.038 0.323-3.325 3.314-5.762 6.653-5.762h1.315c0.87 0 1.83-0.854 1.861-1.725-0.030-0.861-0.99-1.475-1.861-1.475h-1.197c-5.256 0-9.84 4.051-9.998 9.306-0.163 5.437 4.195 9.894 9.595 9.894h1.6c0.87 0 1.83-0.854 1.861-1.725-0.030-0.861-0.99-1.475-1.861-1.475v0zM17.067 11.834c0 0-0.005 0.029-0.006 0.042 0.002 0.014 0.006 0.027 0.006 0.042v-0.083zM25.998 10.4h-1.198c-0.883 0-1.6 0.55-1.6 1.434v0.083c0 0.883 0.717 1.683 1.6 1.683h1.315c3.341 0 6.33 2.437 6.654 5.762 0.371 3.814-2.629 7.038-6.37 7.038h-1.6c-0.883 0-1.6 0.55-1.6 1.434v0.083c0 0.883 0.717 1.683 1.6 1.683h1.6c5.4 0 9.758-4.458 9.597-9.894-0.158-5.254-4.742-9.306-9.998-9.306v0zM20 24.8c-0.883 0-1.6 0.717-1.6 1.6v8c0 0.883 0.717 1.6 1.6 1.6 0.885 0 1.6-0.717 1.6-1.6v-8c0-0.883-0.715-1.6-1.6-1.6v0zM20 15.2c0.885 0 1.6-0.717 1.6-1.6v-8c0-0.883-0.715-1.6-1.6-1.6-0.883 0-1.6 0.717-1.6 1.6v8c0 0.883 0.717 1.6 1.6 1.6v0zM12.267 18.4h16c0.883 0 1.6 0.717 1.6 1.6s-0.717 1.6-1.6 1.6h-16c-0.883 0-1.6-0.717-1.6-1.6s0.717-1.6 1.6-1.6v0z"></path>
</svg>
