<!-- Generated by IcoMoon.io -->
<svg version="1.1" xmlns="http://www.w3.org/2000/svg" width="40" height="40" viewBox="0 0 40 40">
<title>mp-linkbroken_down_round-</title>
<path fill="#fff" d="M23.883 28.599c0.011 0.011 0.018 0.027 0.029 0.038 0.013 0.011 0.027 0.016 0.038 0.029l-0.067-0.067zM21.232 28.946l-1.288 1.286c-3.004 3.006-8.009 2.828-10.775-0.538-2.411-2.931-1.968-7.292 0.718-9.977l1.057-1.057c0.698-0.7 0.784-2.159 0.109-2.882-0.716-0.667-1.982-0.389-2.681 0.311l-0.964 0.96c-4.224 4.226-4.652 11.166-0.556 15.514 4.239 4.501 11.324 4.581 15.665 0.242l1.286-1.288c0.698-0.698 0.784-2.157 0.109-2.881-0.716-0.667-1.982-0.389-2.681 0.309v0zM11.024 15.74c0.011 0.011 0.018 0.027 0.029 0.038 0.013 0.011 0.025 0.016 0.038 0.029l-0.067-0.067zM16.020 10.877c0.711 0.711 1.929 0.778 2.639 0.067l1.057-1.057c2.686-2.686 7.045-3.13 9.978-0.718 3.364 2.766 3.544 7.771 0.538 10.777l-1.286 1.286c-0.709 0.709-0.844 1.728-0.133 2.439l0.065 0.065c0.711 0.711 1.929 0.776 2.639 0.067l1.288-1.286c4.339-4.339 4.259-11.426-0.242-15.665-4.35-4.095-11.289-3.668-15.514 0.558l-0.962 0.962c-0.709 0.709-0.844 1.728-0.133 2.437l0.065 0.067zM26.375 23.803c-0.711-0.711-1.862-0.711-2.571 0-0.711 0.709-0.711 1.862 0 2.571l6.429 6.43c0.711 0.709 1.862 0.709 2.573 0 0.709-0.711 0.709-1.862 0-2.573l-6.43-6.429zM13.516 16.089c0.711 0.709 1.862 0.709 2.571 0 0.711-0.711 0.711-1.862 0-2.573l-6.429-6.43c-0.711-0.709-1.862-0.709-2.573 0-0.709 0.711-0.709 1.862 0 2.573l6.43 6.43zM27.875 12.015c0.711 0.709 0.711 1.862 0 2.571l-12.859 12.861c-0.711 0.709-1.862 0.709-2.571 0-0.711-0.711-0.711-1.862 0-2.573l12.859-12.859c0.709-0.709 1.86-0.709 2.571 0v0z"></path>
</svg>
