<!-- Generated by IcoMoon.io -->
<svg version="1.1" xmlns="http://www.w3.org/2000/svg" width="40" height="40" viewBox="0 0 40 40">
<title>mp-moon-7</title>
<path fill="#fff" d="M32.524 22.803c-0.010-0.038-0.026-0.074-0.037-0.112-1.102-4.234-5.598-7.123-10.469-5.397-4.717 1.672-4.876 5.258-5.149 7.672-0.091 0.805-0.79 1.4-1.6 1.4-0.734 0-1.328-0.496-1.526-1.162-0.054-0.157-0.093-0.318-0.088-0.496l0.034-1.224c-0.524-0.197-1.086-0.318-1.68-0.318-2.941 0-5.273 2.651-4.725 5.686 0.208 1.154 0.892 2.256 2.082 3.034v0c0.873 0.571 1.994 0.914 2.904 0.914h12.552v-0.042c4.996-0.080 8.974-4.742 7.702-9.955zM25.632 13.608c2.582 0.195 4.904 1.264 6.693 2.91-0.948-3.411-3.271-6.254-6.339-7.888 0.136 1.602 0.074 3.165-0.354 4.978zM35.747 22.685c0.127 0.675 0.199 1.373 0.199 2.085 0 6.126-4.717 11.101-11.124 11.197 0 0-0.030 0.010-0.046 0.013 0.016 0 0.030 0.021 0.046 0.021h-12.813c-4.422 0-8.008-3.598-8.008-8.018 0-1.173 0.267-2.296 0.722-3.301-0.34-1.086-0.588-2.211-0.687-3.384 0.751 0.4 1.56 0.699 2.39 0.946 2.009-1.955 4.973-2.854 8.050-1.85 1.384-3.254 4.26-5.693 7.768-6.509 1.038-3.242 0.756-6.795-0.892-9.885 8.098 0.686 14.649 7.472 14.649 15.931 0 0.939-0.098 1.858-0.253 2.754zM14.015 9.483c0.702-0.538 0.834-1.542 0.295-2.243-0.538-0.701-1.544-0.834-2.246-0.294-0.702 0.538-0.833 1.542-0.295 2.243s1.544 0.832 2.246 0.294zM13.077 13.032c-0.702 0.539-0.833 1.542-0.295 2.243s1.544 0.834 2.246 0.294c0.702-0.538 0.833-1.542 0.295-2.243s-1.544-0.832-2.246-0.294zM6.689 14.686c-0.54-0.701-0.407-1.706 0.295-2.243s1.706-0.406 2.246 0.294c0.538 0.701 0.407 1.706-0.295 2.243-0.702 0.539-1.707 0.406-2.246-0.294z"></path>
</svg>
