<!-- Generated by IcoMoon.io -->
<svg version="1.1" xmlns="http://www.w3.org/2000/svg" width="48" height="40" viewBox="0 0 48 40">
<title>mp-mr_robot-</title>
<path fill="#fff" d="M37.169 16.332v0c-3.2-0.316-5.552-1.081-9.136 0.934 0.643-2.289 4.666-4.067 7.866-1.976 0.378 0.176 1.091 0.831 1.27 1.042zM9.329 16.332v0c2.685-3.197 8.227-2.181 9.043 0.934-3.315-1.906-5.843-1.237-9.043-0.934zM20.776 16.575c-0.118 0.125-0.352 0.297-0.576 0.46-0.698 0.576-1.664 1.228-1.914 2.097-0.051 0.563 0.285 1.794 0.49 2.302 0.301-0.691 0.56-1.989 0.56-1.989s0.864-0.611 1.805-1.273c0.237-0.201 0.483-0.387 0.752-0.691 0.774-1.007 0.33-3.13-0.269-4.153-0.070 0.269-0.592 3.14-0.848 3.245v0zM7.157 12.325c-0.189 0.537 0.022 1.237 0.39 1.544 0.355 0.323 0.723 0.275 0.707 0.285 0.016-0.003-0.006-0.333 0.067-0.617 0.003-0.022 0.288-0.822 0.291-0.831 0.192-0.572 0.179-1.679 0.15-1.723-0.013-0.051-1.306 0.192-1.606 1.343v0zM38.226 10.982c-0.032 0.045-0.25 1.081-0.074 1.695 0.070 0.329 0.227 0.614 0.349 0.902 0.128 0.275 0.23 0.576 0.23 0.576s0.333-0.061 0.602-0.403c0.266-0.326 0.426-0.898 0.294-1.384-0.192-1.039-1.37-1.439-1.402-1.384v0zM25.374 18.173c0.944 0.662 1.802 1.273 1.802 1.273 0.003 0 0.259 1.295 0.563 1.989 0.902-2.229 0.406-2.699-0.074-3.229-0.499-0.544-1.821-1.519-1.926-1.631-0.246-0.099-0.778-2.977-0.848-3.245-0.57 0.972-1.040 3.153-0.269 4.153 0.269 0.304 0.515 0.489 0.752 0.691v0zM9.346 16.348c0.016-0.013 0.029-0.026 0.045-0.038-0.019 0.010-0.042 0.016-0.061 0.022l0.016 0.016zM16.651 15.833c0.342-0.253 1.654-1.253 1.504-1.653-1.549-4.144-7.341-3.453-8.067 0.301l0.925 1.1 5.638 0.253zM34.696 15.58l0.922-1.1c-0.442-2.28-2.883-3.6-5.194-2.967-2.234 0.614-3.155 2.718-2.733 3.124 0.397 0.384 0.922 0.866 1.366 1.196l5.638-0.253zM26.651 10.177c1.904-0.835 3.494-2.059 4.902-3.53 1.149-1.209 2.205-1.237 3.622-0.588 0.541 0.249 3.309 1.637 3.792 1.752 0.918 0.217 0.458-1.234-0.358-1.685-2.608-1.455-5.584-3.047-8.243-1.477-1.146 0.678-3.619 2.842-4.883 2.926-0.64 0.045-0.877 0.278-0.893 0.898 0.051 0.294 0.083 0.595 0.163 0.882 0.294 1.084 0.838 1.292 1.898 0.822v0zM7.979 7.616c0 0 2.448-1.205 3.274-1.567 1.421-0.617 2.445-0.604 3.578 0.566 1.712 1.765 2.88 2.654 5.28 3.731 0.605 0.272 1.072 0.090 1.338-0.528 0.176-0.412 0.31-0.863 0.358-1.308 0.067-0.636-0.202-0.831-0.832-0.95-1.386-0.259-2.995-1.656-4.259-2.532-1.68-1.173-3.805-1.231-5.718-0.537-0.829 0.297-3.213 1.503-3.789 2.267-0.179 0.237-0.301 0.713-0.17 0.921 0.234 0.368 0.624 0.016 0.941-0.064v0zM31.467 31.599c-0.944-0.198-2.976-0.432-3.862-0.121-2.643 0.914-5.293 0.953-7.984 0.249-1.894-0.496-2.413-0.515-4.682-0.128 4.067 6.171 13.037 5.557 16.528 0v0zM41.566 22.237c-0.294-0.31-3.078-3.306-3.456-3.504 0.16 1.576 0.643 1.071 0.47 3.293-0.221 2.903-2.349 2.711-4.89 2.721-2.314 0.013-2.624-1.033-4.445-1.759-1.318-0.524-2.893-0.259-3.699 0.985-0.342 0.528-0.896 0.822-1.594 0.78-0.461-0.029-0.925-0.026-1.386 0-0.784 0.042-1.344-0.262-1.77-0.892-0.563-0.831-1.472-1.17-2.406-1.138-1.008 0.032-1.923 0.486-2.755 1.087-1.725 1.253-2.87 0.851-4.704 0.94-1.872 0.093-3.114-1.314-3.123-2.986-0.006-1.727 0.288-1.73 0.483-3.047-1.19 0.739-2.781 2.27-3.741 4.131-0.656 1.273-0.646 2.628-0.387 3.987 0.765 3.984 6.048 4.24 10.067 3.872 1.043-0.096 2.077-0.278 3.114-0.451 1.030-0.173 2.048-0.243 3.056 0.137 0.512 0.192 1.027 0.444 1.562 0.502 1.197 0.128 2.432 0.243 3.555-0.288 1.142-0.537 2.32-0.652 3.501-0.349 3.213 0.822 9.722 1.177 12.045-1.253 0.646-0.681 1.062-1.439 1.219-2.366 0.259-1.554 0.115-3.047-0.717-4.403v0zM9.329 16.332c-0.016 0.035-0.029 0.070-0.045 0.106 0.019-0.029 0.038-0.058 0.061-0.090l-0.016-0.016zM37.077 16.338c0.032 0.019 0.061 0.038 0.093 0.058-0.035-0.016-0.074-0.029-0.109-0.042l0.016-0.016z"></path>
</svg>
