<!-- Generated by IcoMoon.io -->
<svg version="1.1" xmlns="http://www.w3.org/2000/svg" width="40" height="40" viewBox="0 0 40 40">
<title>mp-naruto-</title>
<path fill="#fff" d="M14.55 32.8h-4.568c-1.233 0-2-1.496-1.375-2.562l1.785-2.976c0.932 2.144 2.367 3.938 4.158 5.538zM16.356 12.73c4.398-3.72 9.29-2.226 13.419-1.424 1.22 0.238 2.468-0.258 3.195-1.269l2.739-3.587c0.442-0.616 0.375-1.461-0.159-1.997-0.687-0.69-1.833-0.576-2.372 0.235-2.93 3.846-2.452 3.87-7.907 2.606-1.318-0.306-2.686-0.43-4.023-0.214-7.28 1.176-12.706 7.842-11.987 15.57l-4.817 8.378c-1.249 2.133 0.286 4.973 2.751 4.973h15.946c6.38 0.016 10.476-4.154 11.322-9.755 0.916-6.080-2.983-11.416-8.491-12.67-5.133-1.17-10.397 2.394-10.429 7.674-0.022 3.982 2.869 7.294 6.653 7.936 2.865 0.485 5.8-1.27 6.103-4.168 0.303-2.885-1.94-5.32-4.753-5.32-0.88 0-1.593 0.715-1.593 1.6 0 0.883 0.715 1.6 1.597 1.6 0.88 0 1.595 0.715 1.595 1.6 0 0.883-0.715 1.6-1.595 1.6-2.814 0-5.060-2.437-4.758-5.32 0.305-2.899 3.232-4.654 6.096-4.168 3.783 0.642 6.659 3.954 6.637 7.934-0.030 5.189-5.173 8.77-10.239 7.723-5.082-1.050-8.902-5.563-8.902-10.97 0-3.437 1.544-6.512 3.972-8.566z"></path>
</svg>
