<!-- Generated by IcoMoon.io -->
<svg version="1.1" xmlns="http://www.w3.org/2000/svg" width="40" height="40" viewBox="0 0 40 40">
<title>mp-profile_close-1</title>
<path fill="#fff" d="M35.508 11.59c0.656 0.654 0.656 1.714 0 2.366-0.656 0.654-1.717 0.654-2.371 0l-2.371-2.366-2.373 2.366c-0.654 0.654-1.716 0.654-2.371 0v0c-0.654-0.653-0.654-1.712 0-2.366l2.371-2.366-2.371-2.366c-0.654-0.654-0.654-1.714 0-2.368v0c0.656-0.653 1.717-0.653 2.371 0l2.373 2.368 2.371-2.368c0.654-0.653 1.716-0.653 2.371 0 0.656 0.654 0.656 1.714 0 2.368l-2.371 2.366 2.371 2.366zM17.367 22.448c-0.025 0-0.047-0.003-0.072-0.003-0.023 0-0.047 0.003-0.070 0.003-1.816-0.039-3.284-1.52-3.284-3.34 0-1.846 1.506-3.347 3.354-3.347 1.85 0 3.354 1.501 3.354 3.347 0 1.821-1.466 3.302-3.282 3.34v0zM22.37 23.44c1.392-1.62 2.063-3.874 1.34-6.312-0.666-2.248-2.561-4.023-4.852-4.539-4.386-0.986-8.271 2.313-8.271 6.518 0 1.662 0.629 3.161 1.633 4.333-4.332 1.766-7.53 5.862-8.204 10.667-0.141 0.999 0.661 1.893 1.674 1.893 0.828 0 1.528-0.606 1.644-1.424 0.691-4.868 4.858-8.746 9.891-8.781 0.023 0 0.047 0.007 0.070 0.007 0.025 0 0.047-0.007 0.072-0.007 5.033 0.035 9.2 3.812 9.89 8.679 0.117 0.818 0.817 1.322 1.645 1.322h0.005c1.011 0 1.813-0.79 1.672-1.791-0.674-4.805-3.876-8.798-8.209-10.565v0z"></path>
</svg>
