<!-- Generated by IcoMoon.io -->
<svg version="1.1" xmlns="http://www.w3.org/2000/svg" width="40" height="40" viewBox="0 0 40 40">
<title>mp-profile_favorite-</title>
<path fill="#fff" d="M20.002 19.578c0-1.794-1.445-3.254-3.223-3.254s-3.223 1.459-3.223 3.254c0 1.77 1.41 3.21 3.155 3.247 0.023 0 0.045-0.003 0.068-0.003s0.045 0.003 0.068 0.003c1.745-0.037 3.155-1.477 3.155-3.247zM29.544 34.158c0.135 0.973-0.637 1.842-1.61 1.842v0c-0.798 0-1.471-0.591-1.582-1.386-0.664-4.731-4.668-8.501-9.504-8.535-0.023 0-0.044 0.006-0.068 0.006s-0.045-0.006-0.068-0.006c-4.836 0.034-8.84 3.802-9.504 8.533-0.111 0.797-0.785 1.388-1.582 1.388-0.973 0-1.745-0.87-1.61-1.843 0.649-4.669 3.726-8.652 7.888-10.367-0.965-1.137-1.57-2.597-1.57-4.212 0-4.089 3.734-7.295 7.946-6.337 2.203 0.501 4.024 2.227 4.664 4.412 0.693 2.37 0.048 4.562-1.288 6.137 4.162 1.718 7.239 5.698 7.888 10.369zM33.59 12.264c-4.043 3.747-4.633 3.304-8.27-0.109-5.627-5.281 0.475-11.008 3.945-6.563 0.124 0.161 0.374 0.156 0.5-0.003 3.423-4.414 9.696 1.241 3.826 6.675z"></path>
</svg>
