<!-- Generated by IcoMoon.io -->
<svg version="1.1" xmlns="http://www.w3.org/2000/svg" width="28" height="40" viewBox="0 0 28 40">
<title>mp-pin_fill_rounded_close-</title>
<path fill="#fff" d="M18.594 16.682c0.626 0.626 0.626 1.638 0 2.262-0.626 0.626-1.638 0.626-2.262 0l-1.131-1.131-1.131 1.131c-0.626 0.626-1.638 0.626-2.264 0-0.624-0.624-0.624-1.637 0-2.262l1.131-1.131-1.131-1.131c-0.624-0.626-0.624-1.638 0-2.262 0.626-0.626 1.638-0.626 2.264 0l1.131 1.131 1.131-1.131c0.624-0.626 1.637-0.626 2.262 0 0.626 0.624 0.626 1.637 0 2.262l-1.131 1.131 1.131 1.131zM15.2 4c-6.186 0-11.2 5.014-11.2 11.2s5.014 20.8 11.2 20.8c6.186 0 11.2-14.614 11.2-20.8s-5.014-11.2-11.2-11.2v0z"></path>
</svg>
