<!-- Generated by IcoMoon.io -->
<svg version="1.1" xmlns="http://www.w3.org/2000/svg" width="40" height="40" viewBox="0 0 40 40">
<title>mp-profile_image_plus-</title>
<path fill="#fff" d="M36 29.043v2.783h-4.174v4.174h-2.783v-4.174h-4.174v-2.783h4.174v-4.174h2.783v4.174h4.174zM15.146 14.994c-0.019 0-0.039-0.003-0.058-0.003-0.021 0-0.039 0.003-0.060 0.003-1.505-0.032-2.723-1.262-2.723-2.777 0-1.535 1.248-2.783 2.783-2.783s2.783 1.248 2.783 2.783c0 1.515-1.217 2.745-2.724 2.777v0zM10.898 15.819c-1.601 0.654-2.724 1.672-4.115 2.95v-11.986h7.126c-2.507 0.541-4.387 2.766-4.387 5.434 0 1.382 0.543 2.63 1.376 3.602v0zM26.209 26.261c0 0 0.008-0.092 0.008-0.149 0-4.655-2.862-8.634-6.92-10.293 0.833-0.973 1.355-2.221 1.355-3.602 0-2.669-1.881-4.893-4.388-5.434h12.779v15.304h2.783v-18.087h-27.826v27.826h18.087v-2.783h-15.304v-2.783h-0.035c-0.001 0-0.008-0.092-0.008-0.149 0-4.583 3.713-8.303 8.288-8.335 0.021 0 0.039 0.006 0.060 0.006 0.019 0 0.039-0.006 0.058-0.006 4.576 0.032 8.289 3.748 8.289 8.331 0 0.056-0.007 0.153-0.008 0.153h2.783z"></path>
</svg>
