<!-- Generated by IcoMoon.io -->
<svg version="1.1" xmlns="http://www.w3.org/2000/svg" width="44" height="40" viewBox="0 0 44 40">
<title>mp-projector-2</title>
<path fill="#fff" d="M30.039 12.366v0c-0.528 1.058 0.24 2.3 1.422 2.3 0.603 0 1.152-0.34 1.422-0.878l1.966-3.931c0.528-1.058-0.242-2.302-1.422-2.302-0.603 0-1.154 0.341-1.422 0.88l-1.966 3.931zM12.261 9.858l1.966 3.931c0.268 0.539 0.82 0.878 1.422 0.878 1.18 0 1.95-1.243 1.422-2.3l-1.966-3.931c-0.27-0.539-0.82-0.88-1.422-0.88-1.182 0-1.95 1.244-1.422 2.302zM21.778 9.333v0c0 0.983 0.796 1.778 1.778 1.778s1.778-0.795 1.778-1.778v-3.556c0-0.981-0.796-1.778-1.778-1.778s-1.778 0.796-1.778 1.778v3.556zM32.444 28.889v-3.556h3.556v3.556h-3.556zM18.222 32.444v-10.667h10.667v10.667h-10.667zM7.556 28.889v-3.556h7.111v3.556h-7.111zM39.556 21.778h-7.111v-3.556h-17.778v3.556h-10.667v14.222h3.556v-3.556h7.111v3.556h17.778v-3.556h3.556v3.556h3.556v-14.222z"></path>
</svg>
