<!-- Generated by IcoMoon.io -->
<svg version="1.1" xmlns="http://www.w3.org/2000/svg" width="80" height="40" viewBox="0 0 80 40">
<title>mp-projector-5</title>
<path fill="#fff" d="M55.411 23.2c0.422-2.083 0.438-4.246 0-6.4h6.189v6.4h-6.189zM48.742 23.2c-1.325 3.715-4.842 6.4-9.008 6.4s-7.686-2.685-9.011-6.4c-2.234-6.269 2.493-12.8 9.011-12.8 6.506 0 11.251 6.515 9.008 12.8v0zM24.058 23.2h-13.658v-6.4h13.658c-0.426 2.083-0.438 4.246 0 6.4v0zM68 10.4h-15.539c-2.922-3.866-7.51-6.4-12.726-6.4-5.219 0-9.808 2.534-12.73 6.4h-23.005v25.6h6.4v-6.4h16.605c2.922 3.866 7.51 6.4 12.73 6.4 5.216 0 9.805-2.534 12.726-6.4h9.139v6.4h6.4v-25.6z"></path>
</svg>
