<!-- Generated by IcoMoon.io -->
<svg version="1.1" xmlns="http://www.w3.org/2000/svg" width="36" height="40" viewBox="0 0 36 40">
<title>mp-profile_close-3</title>
<path fill="#fff" d="M24.364 12.796c0-3.234-2.609-5.864-5.818-5.864s-5.818 2.63-5.818 5.864c0 3.234 2.609 5.864 5.818 5.864s5.818-2.63 5.818-5.864v0zM33.091 33.32h-7.273v-2.932h4.049c-1.201-5.55-5.817-8.796-11.322-8.796s-10.121 3.246-11.322 8.796h4.049v2.932h-7.273c0-6.678 3.757-11.658 9.079-13.673-1.987-1.611-3.261-4.080-3.261-6.851 0-4.858 3.907-8.796 8.727-8.796s8.727 3.938 8.727 8.796c0 2.771-1.274 5.239-3.261 6.851 5.322 2.016 9.079 6.996 9.079 13.673v0zM22.659 29.781l-2.057 2.073 2.057 2.073-2.057 2.073-2.057-2.073-2.057 2.073-2.057-2.073 2.057-2.073-2.057-2.073 2.057-2.073 2.057 2.073 2.057-2.073 2.057 2.073z"></path>
</svg>
