<!-- Generated by IcoMoon.io -->
<svg version="1.1" xmlns="http://www.w3.org/2000/svg" width="40" height="40" viewBox="0 0 40 40">
<title>mp-profile_image-2</title>
<path fill="#fff" d="M32.8 26.4h-0.426c-0.976-4.008-3.827-7.274-7.582-8.808 0.958-1.118 1.558-2.554 1.558-4.142 0-3.069-2.163-5.627-5.046-6.25h11.496v19.2zM32.8 32.8h-25.6v-3.2h25.6v3.2zM7.2 7.2h11.395c-2.883 0.622-5.045 3.181-5.045 6.25 0 1.589 0.6 3.024 1.558 4.142-3.758 1.534-6.61 4.8-7.584 8.808h-0.325v-19.2zM29.054 26.4h-18.206c1.266-3.789 4.83-6.528 9.034-6.557 0.024 0 0.045 0.006 0.069 0.006 0.022 0 0.045-0.006 0.067-0.006 4.206 0.029 7.771 2.768 9.037 6.557v0zM20.018 16.643c-0.022 0-0.045-0.003-0.067-0.003-0.024 0-0.045 0.003-0.069 0.003-1.731-0.037-3.131-1.451-3.131-3.194 0-1.765 1.435-3.2 3.2-3.2s3.2 1.435 3.2 3.2c0 1.742-1.4 3.157-3.133 3.194v0zM4 36h32v-32h-32v32z"></path>
</svg>
