<!-- Generated by IcoMoon.io -->
<svg version="1.1" xmlns="http://www.w3.org/2000/svg" width="42" height="40" viewBox="0 0 42 40">
<title>mp-question-</title>
<path fill="#fff" d="M20.427 27.219v0c0-0.883-0.753-1.6-1.68-1.6s-1.68 0.717-1.68 1.6c0 0.883 0.753 1.6 1.68 1.6s1.68-0.717 1.68-1.6zM13.707 12v0c0 0.883 0.753 1.6 1.68 1.6h6.72c0.927 0 1.68 0.717 1.68 1.6s-0.753 1.6-1.68 1.6h-1.68c-1.65 0-2.987 1.274-2.987 2.845v2.774c0 0.883 0.753 1.6 1.68 1.6 0.929 0 1.68-0.717 1.68-1.6v-1.605c0-0.45 0.383-0.814 0.855-0.814h2.505c1.848 0 3.36-1.44 3.36-3.2v-3.981c0-1.336-1.137-2.419-2.54-2.419h-9.593c-0.927 0-1.68 0.717-1.68 1.6zM7.36 32.8v-25.6h26.88v25.6h-26.88zM4 36h33.6v-32h-33.6v32z"></path>
</svg>
