<!-- Generated by IcoMoon.io -->
<svg version="1.1" xmlns="http://www.w3.org/2000/svg" width="40" height="40" viewBox="0 0 40 40">
<title>mp-ruler</title>
<path fill="#fff" d="M12.799 27.201c0.621 0.622 0.621 1.628 0 2.248-0.621 0.622-1.628 0.622-2.248 0-0.621-0.62-0.621-1.626 0-2.248 0.62-0.622 1.626-0.622 2.248 0zM31.698 12.798l-4.287 4.287-1.124-1.124c-0.62-0.622-1.626-0.622-2.248 0-0.62 0.62-0.62 1.628 0 2.248l1.124 1.124-2.248 2.248-1.124-1.124c-0.621-0.62-1.628-0.62-2.248 0-0.621 0.621-0.621 1.628 0 2.249l1.124 1.124-2.248 2.248-1.125-1.124c-0.62-0.622-1.626-0.622-2.248 0-0.62 0.62-0.62 1.626 0 2.248l1.124 1.124-3.371 3.371c-0.621 0.621-1.628 0.621-2.248 0l-2.248-2.248c-0.621-0.62-0.621-1.626 0-2.248l18.898-18.898c0.62-0.622 1.626-0.622 2.248 0l2.248 2.248c0.621 0.622 0.621 1.628 0 2.248zM35.069 9.426l-4.495-4.495c-1.241-1.241-3.254-1.241-4.495 0l-21.147 21.146c-1.241 1.241-1.241 3.254 0 4.495l4.497 4.497c1.241 1.241 3.254 1.241 4.495 0l21.146-21.147c1.241-1.241 1.241-3.254 0-4.495z"></path>
</svg>
