<!-- Generated by IcoMoon.io -->
<svg version="1.1" xmlns="http://www.w3.org/2000/svg" width="40" height="40" viewBox="0 0 40 40">
<title>mp-resize_round-</title>
<path fill="#fff" d="M31.2 32.8h-22.4c-0.883 0-1.6-0.717-1.6-1.6v-22.4c0-0.883 0.717-1.6 1.6-1.6h9.6c0.883 0 1.6 0.717 1.6 1.6v8c0 1.768 1.432 3.2 3.2 3.2h8c0.883 0 1.6 0.717 1.6 1.6v9.6c0 0.883-0.717 1.6-1.6 1.6v0zM20 4h-12.8c-1.768 0-3.2 1.432-3.2 3.2v25.6c0 1.768 1.432 3.2 3.2 3.2h25.6c1.768 0 3.2-1.432 3.2-3.2v-25.6c0-1.768-1.432-3.2-3.2-3.2h-12.8z"></path>
</svg>
