<!-- Generated by IcoMoon.io -->
<svg version="1.1" xmlns="http://www.w3.org/2000/svg" width="42" height="40" viewBox="0 0 42 40">
<title>mp-shopping_cart_love-</title>
<path fill="#fff" d="M23.707 28.954c-2.671 2.458-3.131 3.040-6.483-0.084-4.404-4.102 0.36-8.579 3.092-5.108 0.098 0.127 0.293 0.123 0.391-0.002 2.671-3.417 7.591 0.976 3 5.194v0zM29.779 32.551h-17.873l-2.245-13.505h22.363l-2.245 13.505zM32.632 15.67l-6.777-11.724-2.917 1.67 5.805 10.054h-15.801l5.804-10.036-2.917-1.707-6.776 11.743h-5.053v3.376h2.245l2.808 16.881h23.579l2.808-16.881h2.245v-3.376h-5.053z"></path>
</svg>
