<!-- Generated by IcoMoon.io -->
<svg version="1.1" xmlns="http://www.w3.org/2000/svg" width="38" height="40" viewBox="0 0 38 40">
<title>mp-scroll_down-</title>
<path fill="#fff" d="M12.443 29.6c-0.932 0-1.688 0.717-1.688 1.6v3.2c0 0.883 0.756 1.6 1.688 1.6s1.688-0.717 1.688-1.6v-3.2c0-0.883-0.756-1.6-1.688-1.6v0zM10.755 18.949c0 0.885 0.756 1.6 1.688 1.6s1.688-0.715 1.688-1.6v-8.218c0-0.714 1.13-1.070 1.661-0.566l2.951 2.693c0.658 0.624 1.827 0.624 2.485 0 0.66-0.626 0.665-1.638 0.005-2.262l-5.97-5.659c-1.317-1.248-3.454-1.248-4.773 0l-0.604 0.57-5.381 5.088c-0.66 0.626-0.682 1.64-0.022 2.264 0.66 0.626 1.685 0.626 2.345 0l2.705-2.69c0.532-0.504 1.221-0.147 1.221 0.566v8.214zM34.028 26.938l-6.615 3.451c-0.662 0.435-1.558 0.35-2.129-0.19-0.733-0.694-0.626-1.862 0.221-2.427l2.013-1.371h-14.343c-0.932 0-1.693-0.683-1.693-1.568 0-1.136 1.086-1.566 1.682-1.566l8.504-0.013 0.648-6.907c0.539-1.531 2.060-2.443 3.73-2.126l5.999 0.531c1.579 0.299 2.349 1.613 2.349 3.138v7.736c0 0.526 0.093 1.014-0.365 1.314v0z"></path>
</svg>
