<!-- Generated by IcoMoon.io -->
<svg version="1.1" xmlns="http://www.w3.org/2000/svg" width="42" height="40" viewBox="0 0 42 40">
<title>mp-star_favorite-1</title>
<path fill="#fff" d="M32.090 23.53c-0.717 0.693-1.043 1.691-0.875 2.67l1.084 6.266c0.338 1.95-1.225 3.534-2.997 3.534-0.467 0-0.949-0.11-1.416-0.354l-5.67-2.958c-0.444-0.23-0.929-0.346-1.416-0.346-0.486 0-0.971 0.115-1.415 0.346l-5.67 2.958c-0.467 0.243-0.949 0.354-1.416 0.354-1.772 0-3.335-1.584-2.997-3.534l1.084-6.266c0.168-0.979-0.158-1.978-0.875-2.67l-4.588-4.437c-1.804-1.746-0.808-4.787 1.685-5.147l6.34-0.914c0.991-0.142 1.848-0.76 2.29-1.651l2.836-5.699c0.558-1.122 1.643-1.682 2.727-1.682 1.085 0 2.171 0.56 2.728 1.682l2.836 5.699c0.442 0.891 1.299 1.509 2.29 1.651l6.34 0.914c2.493 0.36 3.489 3.402 1.685 5.147l-4.588 4.437z"></path>
</svg>
