<!-- Generated by IcoMoon.io -->
<svg version="1.1" xmlns="http://www.w3.org/2000/svg" width="42" height="40" viewBox="0 0 42 40">
<title>mp-stats-9</title>
<path fill="#fff" d="M22.48 31.2c0 0.883-0.753 1.6-1.68 1.6s-1.68-0.717-1.68-1.6v-22.4c0-0.883 0.753-1.6 1.68-1.6s1.68 0.717 1.68 1.6v22.4zM22.48 4h-3.36c-1.856 0-3.36 1.432-3.36 3.2v25.6c0 1.768 1.504 3.2 3.36 3.2h3.36c1.856 0 3.36-1.432 3.36-3.2v-25.6c0-1.768-1.504-3.2-3.36-3.2v0zM10.72 31.2c0 0.883-0.753 1.6-1.68 1.6s-1.68-0.717-1.68-1.6v-16c0-0.883 0.753-1.6 1.68-1.6s1.68 0.717 1.68 1.6v16zM10.72 10.4h-3.36c-1.856 0-3.36 1.432-3.36 3.2v19.2c0 1.768 1.504 3.2 3.36 3.2h3.36c1.856 0 3.36-1.432 3.36-3.2v-19.2c0-1.768-1.504-3.2-3.36-3.2v0zM34.24 31.2c0 0.883-0.753 1.6-1.68 1.6s-1.68-0.717-1.68-1.6v-6.4c0-0.883 0.753-1.6 1.68-1.6s1.68 0.717 1.68 1.6v6.4zM34.24 20h-3.36c-1.856 0-3.36 1.432-3.36 3.2v9.6c0 1.768 1.504 3.2 3.36 3.2h3.36c1.856 0 3.36-1.432 3.36-3.2v-9.6c0-1.768-1.504-3.2-3.36-3.2v0z"></path>
</svg>
