<!-- Generated by IcoMoon.io -->
<svg version="1.1" xmlns="http://www.w3.org/2000/svg" width="42" height="40" viewBox="0 0 42 40">
<title>mp-search_left-</title>
<path fill="#fff" d="M37.6 33.738l-2.376 2.262-7.128-6.787 2.376-2.264 7.128 6.789zM17.44 26.4c-5.557 0-10.080-4.306-10.080-9.6 0-5.293 4.523-9.6 10.080-9.6s10.080 4.307 10.080 9.6c0 5.294-4.523 9.6-10.080 9.6v0zM17.44 4c-7.422 0-13.44 5.731-13.44 12.8s6.018 12.8 13.44 12.8c7.422 0 13.44-5.731 13.44-12.8s-6.018-12.8-13.44-12.8v0z"></path>
</svg>
