<!-- Generated by IcoMoon.io -->
<svg version="1.1" xmlns="http://www.w3.org/2000/svg" width="40" height="40" viewBox="0 0 40 40">
<title>mp-shop_center-</title>
<path fill="#fff" d="M32.32 7.2h-5.36c0.378 2.582 0.709 6.109 0.152 8.251 0.35 0.029 0.717 0.053 1.134 0.053 2.198 0 3.798-0.469 4.355-0.784 0.36-1.093 0.224-4.243-0.282-7.52v0zM29.6 18.648c-1.811 0.136-3.85 0.027-5.528-0.538-2.566 0.768-6.162 0.816-8.589-0.002-1.368 0.411-3.126 0.651-5.083 0.578v14.114h8v-6.4h3.2v6.4h8v-14.152zM7.426 14.888c0.427 0.238 1.666 0.616 3.643 0.616 0.658 0 1.254-0.045 1.794-0.112-0.494-2.182-0.208-5.648 0.126-8.192h-5.373c-0.462 3.368-0.562 6.6-0.19 7.688v0zM16.018 14.888c1.627 0.907 6.362 0.758 7.998-0.168 0.36-1.093 0.224-4.243-0.282-7.52h-7.526c-0.462 3.368-0.562 6.6-0.19 7.688v0zM34.986 16.907c-0.483 0.483-1.258 0.867-2.186 1.16v17.933h-25.6v-17.79c-1.008-0.296-1.83-0.725-2.299-1.302-2.027-2.51 0-12.907 0-12.907h30.085c0 0 2.282 10.626 0 12.907v0zM13.6 26.4h3.2v-6.4h-3.2v6.4zM23.2 26.4h3.2v-6.4h-3.2v6.4z"></path>
</svg>
