<!-- Generated by IcoMoon.io -->
<svg version="1.1" xmlns="http://www.w3.org/2000/svg" width="42" height="40" viewBox="0 0 42 40">
<title>mp-shopping_cart_plus_round-</title>
<path fill="#fff" d="M15.79 25.816c0-0.937 0.754-1.697 1.684-1.697h1.684v-2.308c0-0.939 0.754-1.697 1.684-1.697s1.684 0.759 1.684 1.697v2.308h1.684c0.929 0 1.684 0.76 1.684 1.697s-0.754 1.697-1.684 1.697h-1.684v1.086c0 0.937-0.754 1.697-1.684 1.697s-1.684-0.76-1.684-1.697v-1.086h-1.684c-0.929 0-1.684-0.76-1.684-1.697v0zM30.034 31.224c-0.152 0.801-0.845 1.382-1.655 1.382h-15.045c-0.822 0-1.525-0.599-1.66-1.419l-2.010-12.16h22.66l-2.29 12.197zM35.994 15.632h-3.367l-5.931-10.664c-0.466-0.811-1.495-1.242-2.302-0.774-0.805 0.468-1.081 1.736-0.615 2.548l4.96 8.891h-15.796l4.96-8.967c0.466-0.811 0.19-2.003-0.615-2.471-0.806-0.468-1.835 0.039-2.302 0.85l-5.931 10.588h-3.367c-2.039 0-2.65 3.395 0.561 3.395l2.337 14.137c0.271 1.636 1.677 2.836 3.322 2.836h17.867c1.645 0 3.051-1.2 3.322-2.836l2.337-14.137c3.244 0 2.571-3.395 0.561-3.395v0z"></path>
</svg>
