<!-- Generated by IcoMoon.io -->
<svg version="1.1" xmlns="http://www.w3.org/2000/svg" width="47" height="40" viewBox="0 0 47 40">
<title>mp-sketch-</title>
<path fill="#fff" d="M11.978 8.423l2.185 5.297h-5.018l2.833-5.297zM29.571 17.599h5.634l-10.313 11.34 4.68-11.34zM20.454 28.965l-10.618-11.367h5.928l4.691 11.367zM18.246 13.72l-2.4-5.817h13.641l-2.4 5.817h-8.841zM25.488 17.599l-2.82 6.835-2.822-6.835h5.641zM36.49 13.72h-5.32l2.216-5.371 3.104 5.371zM41.247 14.232l-5.372-9.728c-0.218-0.341-0.512-0.504-0.849-0.504-0.356 0-0.762 0.025-1.184 0.025h-21.958c-0.416 0-0.817-0.016-1.169-0.016-0.358 0-0.666 0.128-0.89 0.494l-5.451 10.323c-0.576 0.944-0.478 2.036 0.243 2.868l16.365 17.467c0.482 0.558 1.146 0.838 1.811 0.838 0.676 0 1.352-0.285 1.837-0.859l16.418-17.936c0.719-0.849 0.8-2.034 0.2-2.973v0z"></path>
</svg>
