<!-- Generated by IcoMoon.io -->
<svg version="1.1" xmlns="http://www.w3.org/2000/svg" width="40" height="40" viewBox="0 0 40 40">
<title>mp-sun_star-2</title>
<path fill="#fff" d="M8.686 10.949c-0.626-0.626-0.626-1.638 0-2.262 0.626-0.626 1.638-0.626 2.262 0 0.626 0.624 0.626 1.637 0 2.262-0.624 0.626-1.637 0.626-2.262 0zM31.314 29.051c0.626 0.624 0.626 1.637 0 2.262-0.624 0.624-1.638 0.624-2.262 0-0.626-0.626-0.626-1.638 0-2.262 0.624-0.626 1.638-0.626 2.262 0zM10.949 29.051c0.626 0.624 0.626 1.637 0 2.262-0.624 0.624-1.637 0.624-2.262 0-0.626-0.626-0.626-1.638 0-2.262 0.626-0.626 1.638-0.626 2.262 0zM31.314 8.686c0.626 0.624 0.626 1.637 0 2.262-0.624 0.626-1.638 0.626-2.262 0-0.626-0.626-0.626-1.638 0-2.262 0.624-0.626 1.638-0.626 2.262 0zM7.2 20c0 0.883-0.717 1.6-1.6 1.6s-1.6-0.717-1.6-1.6c0-0.883 0.717-1.6 1.6-1.6s1.6 0.717 1.6 1.6zM36 20c0 0.883-0.717 1.6-1.6 1.6s-1.6-0.717-1.6-1.6c0-0.883 0.717-1.6 1.6-1.6s1.6 0.717 1.6 1.6zM21.6 34.4c0 0.883-0.717 1.6-1.6 1.6s-1.6-0.717-1.6-1.6c0-0.883 0.717-1.6 1.6-1.6s1.6 0.717 1.6 1.6zM18.4 5.6c0-0.883 0.717-1.6 1.6-1.6s1.6 0.717 1.6 1.6c0 0.883-0.717 1.6-1.6 1.6s-1.6-0.717-1.6-1.6zM27.838 21.6h-7.838c-0.883 0-1.6 0.717-1.6 1.6s0.717 1.6 1.6 1.6h6.36c-1.462 1.931-3.757 3.2-6.36 3.2-4.973 0-8.899-4.56-7.821-9.718 0.65-3.101 3.21-5.57 6.325-6.144 3.208-0.59 6.118 0.768 7.856 3.062h-6.36c-0.883 0-1.6 0.717-1.6 1.6s0.717 1.6 1.6 1.6h7.838c0.216 1.059 0.216 2.141 0 3.2zM20 8.8c-6.186 0-11.2 5.014-11.2 11.2s5.014 11.2 11.2 11.2c6.186 0 11.2-5.014 11.2-11.2s-5.014-11.2-11.2-11.2z"></path>
</svg>
