<!-- Generated by IcoMoon.io -->
<svg version="1.1" xmlns="http://www.w3.org/2000/svg" width="42" height="40" viewBox="0 0 42 40">
<title>mp-snapchat-</title>
<path fill="#fff" d="M21.054 36c-2.168 0-3.112-0.487-4.955-1.806-1.667-1.193-2.737-1.849-5.832-1.237-1.208 0.239-1.184 0.13-1.443-1.077-0.138-0.636-0.237-1.023-0.473-1.060-2.515-0.392-4.002-0.971-4.298-1.672-0.141-0.337 0.027-0.603 0.286-0.648 3.279-0.545 5.93-3.298 7.080-6.009 0.003-0.007 0.005-0.014 0.008-0.019 0.291-0.596 0.349-1.111 0.173-1.53-0.396-0.944-1.671-1.142-2.585-1.51-0.63-0.252-1.666-0.784-1.528-1.517 0.126-0.671 1.203-1.098 1.779-0.825 1.447 0.687 2.605 0.477 2.952 0.153-0.017-0.329 0.202-0.685 0.202-1.019 0-2.323-0.586-5.213 0.145-6.87 3.155-7.158 13.677-7.122 16.815-0.003 0.731 1.658 0.551 4.55 0.406 6.876l-0.007 0.111c-0.020 0.315-0.039 0.614-0.054 0.903 0.067 0.063 0.339 0.281 0.893 0.303 0.47-0.019 1.012-0.172 1.608-0.455 0.702-0.332 1.967 0.177 1.981 0.941 0.007 0.356-0.254 0.888-1.539 1.401-0.911 0.365-2.189 0.566-2.584 1.51-0.177 0.419-0.12 0.934 0.172 1.529 0.003 0.007 0.005 0.014 0.008 0.020 0.089 0.213 2.253 5.205 7.080 6.009 0.204 0.034 0.35 0.218 0.339 0.426-0.005 0.075-0.022 0.15-0.054 0.223-0.295 0.697-1.78 1.275-4.296 1.667-0.236 0.038-0.335 0.424-0.472 1.057-0.207 0.961-0.175 1.292-1.445 1.040-3.062-0.603-4.222 0.126-5.831 1.276-1.186 0.849-2.526 1.812-4.532 1.812z"></path>
</svg>
