<!-- Generated by IcoMoon.io -->
<svg version="1.1" xmlns="http://www.w3.org/2000/svg" width="36" height="40" viewBox="0 0 36 40">
<title>mp-thermometer_close-</title>
<path fill="#fff" d="M13.084 9.738l-2.27 2.262 2.27 2.262-2.27 2.264-2.27-2.264-2.272 2.264-2.27-2.264 2.27-2.262-2.27-2.262 2.27-2.262 2.272 2.262 2.27-2.262 2.27 2.262zM24.6 32.8c-2.657 0-4.681-2.154-4.681-4.8 0-2.083 1.744-3.842 3.349-4.504v-3.496h3.211v3.496c1.606 0.662 3.073 2.421 3.073 4.504 0 2.646-2.298 4.8-4.954 4.8v0zM22.994 16.8h3.211v-3.2h-3.211v3.2zM22.994 10.4h3.211v-3.2h-3.211v3.2zM29.691 21.637v-17.637h-9.634v17.637c-1.606 1.461-3.349 3.755-3.349 6.363 0 4.419 3.526 8 7.959 8 4.435 0 8.133-3.581 8.133-8 0-2.608-1.503-4.902-3.109-6.363v0z"></path>
</svg>
