<!-- Generated by IcoMoon.io -->
<svg version="1.1" xmlns="http://www.w3.org/2000/svg" width="40" height="40" viewBox="0 0 40 40">
<title>mp-thermometer_sun-</title>
<path fill="#fff" d="M10.4 18.4c0 0.883-0.717 1.6-1.6 1.6s-1.6-0.717-1.6-1.6c0-0.883 0.717-1.6 1.6-1.6s1.6 0.717 1.6 1.6v0zM17.75 16.15c0 0.883-0.717 1.6-1.6 1.6-0.885 0-1.6-0.717-1.6-1.6 0-0.885 0.715-1.6 1.6-1.6 0.883 0 1.6 0.715 1.6 1.6v0zM20 8.8c0 0.883-0.717 1.6-1.6 1.6s-1.6-0.717-1.6-1.6c0-0.883 0.717-1.6 1.6-1.6s1.6 0.717 1.6 1.6v0zM28 32.8c-2.646 0-4.8-2.154-4.8-4.8 0-2.083 1.342-3.842 3.2-4.506v-3.494h3.2v3.494c1.858 0.664 3.2 2.422 3.2 4.506 0 2.646-2.154 4.8-4.8 4.8v0zM26.4 16.8h3.2v-3.2h-3.2v3.2zM26.4 10.4h3.2v-3.2h-3.2v3.2zM32.8 21.637v-17.637h-9.6v17.637c-1.933 1.459-3.2 3.755-3.2 6.363 0 4.418 3.582 8 8 8s8-3.582 8-8c0-2.608-1.267-4.904-3.2-6.363v0zM8.8 10.4c-0.882 0-1.6-0.718-1.6-1.6s0.718-1.6 1.6-1.6c0.882 0 1.6 0.718 1.6 1.6s-0.718 1.6-1.6 1.6v0zM8.8 4c-2.651 0-4.8 2.149-4.8 4.8s2.149 4.8 4.8 4.8c2.651 0 4.8-2.149 4.8-4.8s-2.149-4.8-4.8-4.8v0z"></path>
</svg>
