<!-- Generated by IcoMoon.io -->
<svg version="1.1" xmlns="http://www.w3.org/2000/svg" width="40" height="40" viewBox="0 0 40 40">
<title>mp-tag_fill_round-</title>
<path fill="#fff" d="M12.032 13.962c-0.921 0-1.669-0.739-1.669-1.65s0.748-1.65 1.669-1.65c0.921 0 1.669 0.739 1.669 1.65s-0.748 1.65-1.669 1.65zM35.022 21.036l-5.528-5.464c-9.396-9.286-7.198-7.062-10.842-10.903-0.314-0.31-0.738-0.67-1.18-0.67h-10.135c-1.843 0-3.337 1.851-3.337 3.672v10.015c0 0.439 0.175 0.858 0.487 1.168 6.547 6.468 1.833 1.81 16.372 16.178 1.304 1.288 3.417 1.288 4.721 0v0c7.249-7.163 5.64-5.574 9.443-9.332 1.304-1.288 1.304-3.377 0-4.665z"></path>
</svg>
