<!-- Generated by IcoMoon.io -->
<svg version="1.1" xmlns="http://www.w3.org/2000/svg" width="42" height="40" viewBox="0 0 42 40">
<title>mp-url-</title>
<path fill="#fff" d="M9.421 9.163c2.667-2.54 7.003-2.54 9.67 0l2.417 2.302 2.417-2.302-2.417-2.302c-4.005-3.814-10.499-3.814-14.504 0s-4.005 9.999 0 13.813l2.417 2.302 2.417-2.302-2.417-2.302c-2.667-2.54-2.667-6.67 0-9.209v0zM34.596 19.326l-2.417-2.304-2.417 2.304 2.417 2.302c2.665 2.538 2.665 6.67 0 9.209-2.667 2.538-7.005 2.538-9.67 0l-2.417-2.304-2.419 2.304 2.419 2.302c4.005 3.814 10.499 3.814 14.504 0s4.005-9.999 0-13.813v0zM13.046 10.314l17.924 17.069-2.419 2.304-17.923-17.071 2.417-2.302z"></path>
</svg>
