<!-- Generated by IcoMoon.io -->
<svg version="1.1" xmlns="http://www.w3.org/2000/svg" width="53" height="40" viewBox="0 0 53 40">
<title>mp-volume_medium-1</title>
<path fill="#fff" d="M44.889 9.667v0c0.981 0 1.778 0.796 1.778 1.778v17.778c0 0.981-0.796 1.778-1.778 1.778v0c-0.981 0-1.778-0.796-1.778-1.778v-17.778c0-0.981 0.796-1.778 1.778-1.778v0zM36 25.667v-10.667c0-0.981 0.796-1.778 1.778-1.778v0c0.981 0 1.778 0.796 1.778 1.778v10.667c0 0.981-0.796 1.778-1.778 1.778v0c-0.981 0-1.778-0.796-1.778-1.778v0zM11.111 23.889h-1.778c-0.981 0-1.778-0.796-1.778-1.778v-3.556c0-0.981 0.796-1.778 1.778-1.778h1.778v7.111zM14.667 14.531c4.741-2.372 8.476-4.238 12.926-6.464 0.592-0.295 1.296 0.13 1.296 0.791v21.173c0 0.661-0.704 1.086-1.296 0.791-4.448-2.226-8.185-4.094-12.926-6.464v-9.828zM4 16.778v7.111c0 1.964 1.591 3.556 3.556 3.556h2.964l16.921 7.547c2.352 1.049 5.004-0.672 5.004-3.248v-24.183c0-2.677-2.846-4.393-5.212-3.145l-16.713 8.807h-2.964c-1.964 0-3.556 1.591-3.556 3.556v0z"></path>
</svg>
