<!-- Generated by IcoMoon.io -->
<svg version="1.1" xmlns="http://www.w3.org/2000/svg" width="57" height="40" viewBox="0 0 57 40">
<title>mp-video_round-</title>
<path fill="#fff" d="M45.143 23.826l-5.088-3.179 5.088-3.182v6.361zM29.143 31.429h-18.286c-1.262 0-2.286-1.022-2.286-2.286v-18.286c0-1.262 1.024-2.286 2.286-2.286h18.286c1.262 0 2.286 1.024 2.286 2.286v18.286c0 1.264-1.024 2.286-2.286 2.286v0zM36 17.968v-9.397c0-2.523-2.046-4.571-4.571-4.571h-22.857c-2.526 0-4.571 2.048-4.571 4.571v22.857c0 2.526 2.046 4.571 4.571 4.571h22.857c2.526 0 4.571-2.046 4.571-4.571v-8.105l10.199 6.507c1.522 0.971 3.515-0.121 3.515-1.927v-14.517c0-1.806-1.993-2.898-3.515-1.927l-10.199 6.507z"></path>
</svg>
