<!-- Generated by IcoMoon.io -->
<svg version="1.1" xmlns="http://www.w3.org/2000/svg" width="36" height="40" viewBox="0 0 36 40">
<title>mp-volume_close-1</title>
<path fill="#fff" d="M7.1 24h3.1v-6.4h-3.1v6.4zM27.321 24.525l1.475 1.523v9.952l-19.114-8.8h-5.683v-12.8h5.683l19.114-10.4v9.95l-1.475 1.523-1.624-1.677v-4.619l-12.398 6.4v8.845l12.398 6.4v-4.621l1.624-1.677zM29.513 20l3.287 3.394-2.191 2.264-3.287-3.395-3.287 3.395-2.193-2.264 3.289-3.394-3.289-3.394 2.193-2.264 3.287 3.395 3.287-3.395 2.191 2.264-3.287 3.394z"></path>
</svg>
