<!-- Generated by IcoMoon.io -->
<svg version="1.1" xmlns="http://www.w3.org/2000/svg" width="42" height="40" viewBox="0 0 42 40">
<title>mp-view_pus-</title>
<path fill="#fff" d="M25.895 9.053c0-0.93 0.755-1.684 1.684-1.684h1.684v-1.684c0-0.93 0.755-1.684 1.684-1.684s1.684 0.755 1.684 1.684v1.684h1.684c0.93 0 1.684 0.755 1.684 1.684s-0.755 1.684-1.684 1.684h-1.684v1.684c0 0.93-0.755 1.684-1.684 1.684s-1.684-0.755-1.684-1.684v-1.684h-1.684c-0.93 0-1.684-0.755-1.684-1.684zM24.211 26.267c0 1.859-1.507 3.368-3.368 3.368s-3.368-1.509-3.368-3.368c0-1.861 1.507-3.368 3.368-3.368s3.368 1.507 3.368 3.368zM20.842 32.632c-5.034 0-9.777-2.397-12.802-6.365 3.025-3.97 7.768-6.366 12.802-6.366s9.777 2.397 12.802 6.366c-3.025 3.968-7.768 6.365-12.802 6.365zM20.842 16.532c-7.202 0-13.475 3.921-16.842 9.735 3.367 5.812 9.64 9.733 16.842 9.733s13.475-3.921 16.842-9.733c-3.367-5.814-9.64-9.735-16.842-9.735z"></path>
</svg>
