<!-- Generated by IcoMoon.io -->
<svg version="1.1" xmlns="http://www.w3.org/2000/svg" width="40" height="40" viewBox="0 0 40 40">
<title>mp-windows-</title>
<path fill="#fff" d="M18.633 20.695c0.008 3.198 0.018 8.632 0.026 12.855 5.782 0.782 11.565 1.588 17.338 2.45 0-5.042 0.006-10.062 0-14.859-5.787 0-11.573-0.446-17.363-0.446zM4 20.696v10.858c4.361 0.588 8.723 1.151 13.076 1.794 0.008-4.201-0.003-8.403-0.003-12.604-4.358 0.008-8.715-0.062-13.073-0.048zM4 8.549v10.828c4.361 0.011 8.723-0.054 13.084-0.050-0.003-4.191-0.003-8.378-0.008-12.569-4.364 0.545-8.729 1.123-13.076 1.791zM36 19.155c-5.779 0.022-11.559 0.11-17.341 0.128-0.003-4.26-0.003-8.515 0-12.772 5.771-0.881 11.555-1.709 17.338-2.511 0.003 5.053 0 10.102 0.003 15.155z"></path>
</svg>
