<!-- Generated by IcoMoon.io -->
<svg version="1.1" xmlns="http://www.w3.org/2000/svg" width="40" height="40" viewBox="0 0 40 40">
<title>mp-wifi-</title>
<path fill="#fff" d="M17.738 25.904l2.262 2.262 2.262-2.262c-1.25-1.25-3.275-1.25-4.525 0v0zM13.213 21.379l2.262 2.262c2.494-2.496 6.555-2.496 9.051 0l2.262-2.262c-3.749-3.75-9.827-3.75-13.576 0v0zM8.686 16.853l2.262 2.262c4.992-4.99 13.112-4.99 18.102 0l2.262-2.262c-6.248-6.248-16.379-6.248-22.627 0v0zM32.8 26.4h3.2v-12.8h-3.2v12.8zM32.8 32.8h-3.2v3.2h6.4v-6.4h-3.2v3.2zM29.6 4v3.2h3.2v3.2h3.2v-6.4h-6.4zM4 26.4h3.2v-12.8h-3.2v12.8zM7.2 29.6h-3.2v6.4h6.4v-3.2h-3.2v-3.2zM7.2 7.2h3.2v-3.2h-6.4v6.4h3.2v-3.2zM13.6 36h12.8v-3.2h-12.8v3.2zM13.6 7.2h12.8v-3.2h-12.8v3.2z"></path>
</svg>
