<!-- Generated by IcoMoon.io -->
<svg version="1.1" xmlns="http://www.w3.org/2000/svg" width="28" height="40" viewBox="0 0 28 40">
<title>mp-watch-7</title>
<path fill="#fff" d="M18.4 20c0 1.768-1.6 1.6-3.2 1.6 0 1.6 0.166 3.2-1.6 3.2-1.768 0-1.6-1.6-1.6-3.2-1.6 0-3.2 0.166-3.2-1.6 0-1.768 1.6-1.6 3.2-1.6 0-1.6-0.166-3.2 1.6-3.2 1.768 0 1.6 1.6 1.6 3.2 1.6 0 3.2-0.166 3.2 1.6v0zM20 24.8c0 0.883-0.717 1.6-1.6 1.6h-9.6c-0.883 0-1.6-0.717-1.6-1.6v-9.6c0-0.883 0.717-1.6 1.6-1.6h9.6c0.883 0 1.6 0.717 1.6 1.6v9.6zM10.4 32.8h6.4v-3.2h-6.4v3.2zM10.4 10.4h6.4v-3.2h-6.4v3.2zM23.2 18.4v-4.8c0-1.768-1.432-3.2-3.2-3.2v-6.4h-12.8v6.4c-1.768 0-3.2 1.432-3.2 3.2v12.8c0 1.766 1.432 3.2 3.2 3.2v6.4h12.8v-6.4c1.768 0 3.2-1.434 3.2-3.2v-4.8h3.2v-3.2h-3.2z"></path>
</svg>
