<!-- Generated by IcoMoon.io -->
<svg version="1.1" xmlns="http://www.w3.org/2000/svg" width="32" height="40" viewBox="0 0 32 40">
<title>mp-yelp-</title>
<path fill="#fff" d="M13.666 21.814l-8.904-3.246c-0.967 2.597-1.064 5.326 0 8.234l9.022-3.131c0.614-0.712 0.351-1.298-0.118-1.856v0zM14.954 26.105l-5.975 6.726c1.82 2.542 4.509 3.366 7.734 3.131l-0.294-9.278c-0.194-0.677-0.808-0.664-1.465-0.579v0zM20.051 24.945c-0.632 0.141-0.967 0.517-0.82 1.275l4.963 8.315c2.207-1.002 4.41-3.341 5.406-6.806l-9.549-2.784zM29.571 20.009c-0.648-3.714-2.932-6.237-4.974-7.498l-5.776 7.678c-0.053 0.827 0.372 1.179 0.938 1.392l9.812-1.573zM15.533 19.178l-8.899-11.944c2.541-2.251 5.448-3.834 10.297-3.016v14.498c0 0.694-0.891 0.85-1.398 0.462v0z"></path>
</svg>
