<!-- Generated by IcoMoon.io -->
<svg version="1.1" xmlns="http://www.w3.org/2000/svg" width="42" height="40" viewBox="0 0 42 40">
<title>mp-zoom_out-1</title>
<path fill="#fff" d="M12.596 15.148h10.316c0.949 0 1.719 0.719 1.719 1.604s-0.77 1.604-1.719 1.604h-10.316c-0.949 0-1.719-0.719-1.719-1.604s0.77-1.604 1.719-1.604v0zM37.096 33.262c0.672 0.626 0.672 1.642 0 2.268v0c-0.672 0.627-1.761 0.627-2.431 0l-7.003-6.336 2.431-2.268 7.003 6.336zM17.754 26.456c-5.687 0-10.316-4.316-10.316-9.624 0-5.306 4.628-9.624 10.316-9.624s10.316 4.318 10.316 9.624c0 5.308-4.628 9.624-10.316 9.624v0zM17.754 4c-7.596 0-13.754 5.746-13.754 12.832 0 7.088 6.158 12.832 13.754 12.832s13.754-5.744 13.754-12.832c0-7.086-6.158-12.832-13.754-12.832v0z"></path>
</svg>
