<!-- Generated by IcoMoon.io -->
<svg version="1.1" xmlns="http://www.w3.org/2000/svg" width="40" height="40" viewBox="0 0 40 40">
<title>mt-apartment</title>
<path fill="#fff" d="M27.449 23.2v-2.149h-2.1v2.149h2.1zM27.449 27.449v-2.1h-2.1v2.1h2.1zM23.2 14.651v-2.1h-2.149v2.1h2.149zM23.2 18.949v-2.149h-2.149v2.149h2.149zM23.2 23.2v-2.149h-2.149v2.149h2.149zM18.949 14.651v-2.1h-2.149v2.1h2.149zM18.949 18.949v-2.149h-2.149v2.149h2.149zM18.949 23.2v-2.149h-2.149v2.149h2.149zM14.651 18.949v-2.149h-2.1v2.149h2.1zM14.651 23.2v-2.149h-2.1v2.149h2.1zM14.651 27.449v-2.1h-2.1v2.1h2.1zM25.351 18.949h4.251v10.651h-8.551v-4.251h-2.1v4.251h-8.549v-14.951h4.251v-4.251h10.7v8.551z"></path>
</svg>
