<!-- Generated by IcoMoon.io -->
<svg version="1.1" xmlns="http://www.w3.org/2000/svg" width="40" height="40" viewBox="0 0 40 40">
<title>mt-add_alert</title>
<path fill="#fff" d="M24.251 21.1v-2.151h-3.2v-3.2h-2.1v3.2h-3.2v2.151h3.2v3.2h2.1v-3.2h3.2zM27.351 25.149l2.251 2.249v1.151h-19.2v-1.151l2.251-2.249v-6.2q0-2.4 1.649-4.5t4-2.649v-0.751q0-0.7 0.5-1.2t1.2-0.5 1.2 0.5 0.5 1.2v0.751q2.449 0.549 4.051 2.575t1.6 4.575v6.2zM17.9 29.6h4.2q0 0.849-0.625 1.5t-1.475 0.649-1.475-0.649-0.625-1.5z"></path>
</svg>
