<!-- Generated by IcoMoon.io -->
<svg version="1.1" xmlns="http://www.w3.org/2000/svg" width="40" height="40" viewBox="0 0 40 40">
<title>mt-access_alarms</title>
<path fill="#fff" d="M20 28.551q3.1 0 5.275-2.2t2.175-5.3-2.175-5.275-5.275-2.175-5.275 2.175-2.175 5.275 2.175 5.3 5.275 2.2zM20 11.451q4 0 6.8 2.8t2.8 6.8-2.8 6.8-6.8 2.8-6.8-2.8-2.8-6.8 2.8-6.8 6.8-2.8zM20.551 15.751v5.649l4.251 2.549-0.851 1.3-5-3.1v-6.4h1.6zM15.651 10.849l-4.951 4.049-1.351-1.6 4.9-4.051zM30.649 13.3l-1.349 1.6-4.949-4.2 1.4-1.6z"></path>
</svg>
