<!-- Generated by IcoMoon.io -->
<svg version="1.1" xmlns="http://www.w3.org/2000/svg" width="40" height="40" viewBox="0 0 40 40">
<title>mt-addchart</title>
<path fill="#fff" d="M30.649 12.551v2.1h-3.2v3.2h-2.1v-3.2h-3.2v-2.1h3.2v-3.2h2.1v3.2h3.2zM27.449 27.449h-14.9v-14.9h6.4v-2.151h-6.4q-0.9 0-1.525 0.625t-0.625 1.525v14.9q0 0.9 0.625 1.525t1.525 0.625h14.9q0.9 0 1.525-0.625t0.625-1.525v-6.4h-2.151v6.4zM23.2 21.051v4.3h2.151v-4.3h-2.151zM18.949 25.351h2.1v-8.551h-2.1v8.551zM16.8 25.351v-6.4h-2.151v6.4h2.151z"></path>
</svg>
