<!-- Generated by IcoMoon.io -->
<svg version="1.1" xmlns="http://www.w3.org/2000/svg" width="40" height="40" viewBox="0 0 40 40">
<title>mt-ac_unit</title>
<path fill="#fff" d="M30.649 18.949v2.1h-4.449l3.449 3.449-1.5 1.551-4.949-5h-2.149v2.149l5 4.949-1.551 1.5-3.449-3.449v4.449h-2.1v-4.449l-3.451 3.449-1.551-1.5 5-4.949v-2.149h-2.149l-4.951 5-1.5-1.551 3.451-3.449h-4.451v-2.1h4.451l-3.451-3.451 1.5-1.551 4.951 5h2.149v-2.149l-5-4.951 1.551-1.5 3.449 3.451v-4.451h2.1v4.451l3.449-3.451 1.551 1.5-5 4.951v2.149h2.149l4.949-5 1.5 1.551-3.449 3.449h4.449z"></path>
</svg>
