<!-- Generated by IcoMoon.io -->
<svg version="1.1" xmlns="http://www.w3.org/2000/svg" width="40" height="40" viewBox="0 0 40 40">
<title>mt-accessible_forward</title>
<path fill="#fff" d="M25.351 21.6q0.849 0 1.475 0.649t0.625 1.5v5.851h-2.1v-5.351h-5.351q-1.151 0-1.8-1.025t-0.149-2.075l1.949-4.349h-2.349l-0.7 1.651-2.049-0.6 0.7-1.9q0.549-1.3 2-1.3h5.549q1.2 0 1.851 1t0.149 2.051l-1.8 3.9h2zM22.149 25.351q0 2.2-1.575 3.751t-3.775 1.549-3.775-1.549-1.575-3.751 1.575-3.775 3.775-1.575v2.149q-1.3 0-2.251 0.951t-0.951 2.251 0.951 2.251 2.251 0.949 2.251-0.949 0.949-2.251h2.151zM23.2 12.051q0-0.9 0.625-1.525t1.525-0.625 1.5 0.625 0.6 1.525-0.6 1.525-1.5 0.625-1.525-0.625-0.625-1.525z"></path>
</svg>
