<!-- Generated by IcoMoon.io -->
<svg version="1.1" xmlns="http://www.w3.org/2000/svg" width="40" height="40" viewBox="0 0 40 40">
<title>mt-app_blocking</title>
<path fill="#fff" d="M26.4 15.751q-1.2 0-2.149 0.575t-1.525 1.525-0.575 2.151 0.575 2.149 1.525 1.525 2.149 0.575 2.151-0.575 1.525-1.525 0.575-2.151-0.575-2.149-1.525-1.525-2.151-0.575zM23.751 20q0-1.1 0.775-1.875t1.875-0.775q0.651 0 1.251 0.3l-3.6 3.6q-0.3-0.6-0.3-1.251v0zM26.4 22.649q-0.649 0-1.249-0.3l3.6-3.6q0.3 0.6 0.3 1.251 0 1.1-0.775 1.875t-1.875 0.775v0zM25.351 26.4h-10.7v-12.8h10.7v1.051h2.1v-4.251q0-0.9-0.625-1.525t-1.475-0.625h-10.7q-0.851 0-1.475 0.625t-0.625 1.525v19.2q0 0.9 0.625 1.525t1.475 0.625h10.7q0.849 0 1.475-0.625t0.625-1.525v-4.251h-2.1v1.049z"></path>
</svg>
