<!-- Generated by IcoMoon.io -->
<svg version="1.1" xmlns="http://www.w3.org/2000/svg" width="40" height="40" viewBox="0 0 40 40">
<title>mt-add_a_photo</title>
<path fill="#fff" d="M17.651 22.149q0-1.451 1-2.451t2.4-1q1.449 0 2.449 1t1 2.451q0 1.4-1 2.4t-2.449 1-2.425-0.975-0.975-2.425zM21.051 27.449q2.2 0 3.775-1.551t1.575-3.749-1.575-3.775-3.775-1.575-3.751 1.575-1.551 3.775 1.551 3.749 3.751 1.551zM13.6 17.849v-3.2h3.2v-3.2h7.449l1.949 2.149h3.4q0.849 0 1.5 0.649t0.649 1.5v12.8q0 0.849-0.649 1.475t-1.5 0.625h-17.051q-0.849 0-1.5-0.625t-0.651-1.475v-10.7h3.2zM10.4 11.451v-3.2h2.149v3.2h3.2v2.149h-3.2v3.2h-2.149v-3.2h-3.2v-2.151h3.2z"></path>
</svg>
