<!-- Generated by IcoMoon.io -->
<svg version="1.1" xmlns="http://www.w3.org/2000/svg" width="40" height="40" viewBox="0 0 40 40">
<title>mt-app_settings_alt</title>
<path fill="#fff" d="M30.449 20.8l-0.849-0.7v-0.2l0.849-0.7q0.3-0.2 0.1-0.551l-0.9-1.549q-0.1-0.251-0.4-0.251-0.051 0-0.151 0.049l-1 0.4q-0.149-0.049-0.2-0.1l-0.149-1.1q-0.051-0.349-0.451-0.349h-1.8q-0.4 0-0.451 0.349l-0.149 1.049q0 0.051-0.051 0.051t-0.051 0.049l-0.1 0.051-1-0.4q-0.1-0.051-0.151-0.051-0.251 0-0.4 0.2l-0.9 1.6q-0.2 0.3 0.1 0.551l0.849 0.649v0.251l-0.849 0.7q-0.3 0.2-0.1 0.5l0.9 1.6q0.1 0.2 0.4 0.2h0.151l1-0.4 0.2 0.1 0.2 1.1q0.051 0.349 0.4 0.349h1.849q0.351 0 0.4-0.349l0.149-1.1q0.051 0 0.075-0.025l0.025-0.025 0.1-0.049 1.049 0.4q0.051 0.051 0.151 0.051 0.251 0 0.349-0.251l0.9-1.551q0.2-0.351-0.1-0.551v0zM26.4 21.6q-0.649 0-1.125-0.475t-0.475-1.125 0.475-1.125 1.125-0.475 1.125 0.475 0.475 1.125-0.475 1.125-1.125 0.475zM25.351 25.351h2.1v4.251q0 0.9-0.625 1.525t-1.475 0.625h-10.7q-0.851 0-1.475-0.625t-0.625-1.525v-19.2q0-0.9 0.625-1.525t1.475-0.625h10.7q0.849 0 1.475 0.625t0.625 1.525v4.251h-2.1v-1.051h-10.7v12.8h10.7v-1.049z"></path>
</svg>
