<!-- Generated by IcoMoon.io -->
<svg version="1.1" xmlns="http://www.w3.org/2000/svg" width="40" height="40" viewBox="0 0 40 40">
<title>mt-accessible</title>
<path fill="#fff" d="M20.9 26.4h2.2q-0.351 1.751-1.9 3t-3.349 1.251q-2.2 0-3.751-1.549t-1.549-3.751q0-1.8 1.251-3.351t3-1.9v2.2q-0.951 0.351-1.551 1.175t-0.6 1.875q0 1.3 0.951 2.251t2.251 0.949q1.049 0 1.875-0.6t1.175-1.551zM17.849 16.9q0-1.2 1.051-1.9t2.151-0.051h0.049v0.051q0.351 0.151 0.649 0.449l1.4 1.551q1.8 1.949 4.3 1.949v2.1q-2.8 0-5.3-2.051v3.649h3.2q0.849 0 1.475 0.649t0.625 1.5v5.849h-2.1v-5.3h-5.351q-0.849 0-1.5-0.651t-0.649-1.5v-6.3zM17.849 11.451q0-0.9 0.625-1.5t1.525-0.6 1.525 0.6 0.625 1.5-0.625 1.525-1.525 0.625-1.525-0.625-0.625-1.525z"></path>
</svg>
