<!-- Generated by IcoMoon.io -->
<svg version="1.1" xmlns="http://www.w3.org/2000/svg" width="40" height="40" viewBox="0 0 40 40">
<title>mt-auto_awesome_motion</title>
<path fill="#fff" d="M22.149 9.349h-10.7q-0.851 0-1.475 0.625t-0.625 1.475v10.7h2.1v-10.7h10.7v-2.1zM26.4 13.6h-10.649q-0.9 0-1.525 0.625t-0.625 1.525v10.649h2.149v-10.649h10.649v-2.149zM28.551 17.849h-8.551q-0.9 0-1.525 0.625t-0.625 1.525v8.551q0 0.849 0.625 1.475t1.525 0.625h8.551q0.849 0 1.475-0.625t0.625-1.475v-8.551q0-0.9-0.625-1.525t-1.475-0.625z"></path>
</svg>
