<!-- Generated by IcoMoon.io -->
<svg version="1.1" xmlns="http://www.w3.org/2000/svg" width="40" height="40" viewBox="0 0 40 40">
<title>mt-blur_circular</title>
<path fill="#fff" d="M22.149 21.051q0.451 0 0.751 0.325t0.3 0.775-0.3 0.751-0.751 0.3-0.775-0.3-0.325-0.751 0.325-0.775 0.775-0.325zM22.149 24.8q0.5 0 0.5 0.551 0 0.5-0.5 0.5-0.549 0-0.549-0.5 0-0.551 0.549-0.551zM20 28.551q3.5 0 6.025-2.525t2.525-6.025-2.525-6.025-6.025-2.525-6.025 2.525-2.525 6.025 2.525 6.025 6.025 2.525zM20 9.349q4.4 0 7.525 3.125t3.125 7.525-3.125 7.525-7.525 3.125-7.525-3.125-3.125-7.525 3.125-7.525 7.525-3.125zM25.351 17.349q0.5 0 0.5 0.5 0 0.551-0.5 0.551-0.551 0-0.551-0.551 0-0.5 0.551-0.5zM25.351 21.6q0.5 0 0.5 0.549 0 0.5-0.5 0.5-0.551 0-0.551-0.5 0-0.549 0.551-0.549zM22.149 15.2q-0.549 0-0.549-0.549 0-0.5 0.549-0.5 0.5 0 0.5 0.5 0 0.549-0.5 0.549zM22.149 16.8q0.451 0 0.751 0.3t0.3 0.751-0.3 0.775-0.751 0.325-0.775-0.325-0.325-0.775 0.325-0.751 0.775-0.3zM17.849 15.2q-0.5 0-0.5-0.549 0-0.5 0.5-0.5 0.551 0 0.551 0.5 0 0.549-0.551 0.549zM14.651 21.6q0.549 0 0.549 0.549 0 0.5-0.549 0.5-0.5 0-0.5-0.5 0-0.549 0.5-0.549zM17.849 24.8q0.551 0 0.551 0.551 0 0.5-0.551 0.5-0.5 0-0.5-0.5 0-0.551 0.5-0.551zM14.651 17.349q0.549 0 0.549 0.5 0 0.551-0.549 0.551-0.5 0-0.5-0.551 0-0.5 0.5-0.5zM17.849 21.051q0.451 0 0.775 0.325t0.325 0.775-0.325 0.751-0.775 0.3-0.751-0.3-0.3-0.751 0.3-0.775 0.751-0.325zM17.849 16.8q0.451 0 0.775 0.3t0.325 0.751-0.325 0.775-0.775 0.325-0.751-0.325-0.3-0.775 0.3-0.751 0.751-0.3z"></path>
</svg>
