<!-- Generated by IcoMoon.io -->
<svg version="1.1" xmlns="http://www.w3.org/2000/svg" width="40" height="40" viewBox="0 0 40 40">
<title>mt-baby_changing_station</title>
<path fill="#fff" d="M22.149 15.751v2.1h-3.2l-2.9-1.251-1.4 4.2v9.849h-4.251v-10.649l1.7-4.951q0.3-0.9 1.149-1.275t1.751 0.025l4.4 1.949h2.751zM15.751 8.251q-0.9 0-1.525 0.625t-0.625 1.525 0.625 1.525 1.525 0.625q0.849 0 1.475-0.625t0.625-1.525-0.625-1.525-1.475-0.625zM16.8 27.449h12.8v-2.1h-12.8v2.1zM28 24.251q0.649 0 1.125-0.449t0.475-1.151q0-0.649-0.475-1.125t-1.125-0.475-1.125 0.475-0.475 1.125q0 0.7 0.475 1.151t1.125 0.449zM21.051 20q0-0.449-0.3-0.751t-0.751-0.3h-3.2v2.1h2.149v1.1q0 0.851 0.625 1.475t1.475 0.625h2.149q0.9 0 1.525-0.625t0.625-1.475v-3.2h-2.151v2.1h-2.149v-1.049z"></path>
</svg>
