<!-- Generated by IcoMoon.io -->
<svg version="1.1" xmlns="http://www.w3.org/2000/svg" width="40" height="40" viewBox="0 0 40 40">
<title>mt-camera_roll</title>
<path fill="#fff" d="M28.551 16.8v-2.151h-2.151v2.151h2.151zM28.551 26.4v-2.149h-2.151v2.149h2.151zM24.251 16.8v-2.151h-2.1v2.151h2.1zM24.251 26.4v-2.149h-2.1v2.149h2.1zM20 16.8v-2.151h-2.151v2.151h2.151zM20 26.4v-2.149h-2.151v2.149h2.151zM22.149 12.551h8.5v16h-8.5q0 0.849-0.649 1.475t-1.5 0.625h-8.551q-0.851 0-1.475-0.625t-0.625-1.475v-16q0-0.851 0.625-1.5t1.475-0.649h1.1v-1.051q0-0.449 0.3-0.775t0.751-0.325h4.251q0.451 0 0.775 0.325t0.325 0.775v1.051h1.051q0.851 0 1.5 0.649t0.649 1.5z"></path>
</svg>
