<!-- Generated by IcoMoon.io -->
<svg version="1.1" xmlns="http://www.w3.org/2000/svg" width="40" height="40" viewBox="0 0 40 40">
<title>mt-contact_phone</title>
<path fill="#fff" d="M26.251 22.149q-0.4-1.049-0.4-2.151t0.4-2.149h1.751l1.6-2.1-2.1-2.149q-0.9 0.7-1.775 1.949t-1.175 2.3-0.3 2.149 0.3 2.151 1.175 2.3 1.775 1.949l2.1-2.149-1.6-2.1h-1.751zM22.149 26.4v-1.049q0-1.451-2.2-2.375t-4.2-0.925-4.2 0.925-2.2 2.375v1.049h12.8zM15.751 13.6q-1.3 0-2.251 0.951t-0.949 2.251 0.949 2.251 2.251 0.949 2.251-0.949 0.949-2.251-0.949-2.251-2.251-0.951zM30.649 10.4q0.851 0 1.5 0.649t0.651 1.5v14.9q0 0.849-0.651 1.5t-1.5 0.651h-21.3q-0.849 0-1.5-0.651t-0.649-1.5v-14.9q0-0.849 0.649-1.5t1.5-0.649h21.3z"></path>
</svg>
