<!-- Generated by IcoMoon.io -->
<svg version="1.1" xmlns="http://www.w3.org/2000/svg" width="40" height="40" viewBox="0 0 40 40">
<title>mt-connect_without_contact</title>
<path fill="#fff" d="M18.949 22.149h-2.149q0-2 0.751-3.751t2.075-3.049 3.051-2.051 3.725-0.751v2.1q-1.549 0-2.9 0.6t-2.375 1.625-1.6 2.375-0.575 2.9zM26.4 18.949v-2.149q-1.449 0-2.675 0.725t-1.951 1.925-0.725 2.7h2.149q0-0.9 0.425-1.625t1.151-1.151 1.625-0.425zM14.651 11.451q0-0.851-0.625-1.475t-1.475-0.625q-0.9 0-1.525 0.625t-0.625 1.475q0 0.9 0.625 1.525t1.525 0.625q0.851 0 1.475-0.625t0.625-1.525zM19.4 12h-2.1q-0.2 1.151-1.075 1.9t-2.075 0.751h-3.2q-0.7 0-1.149 0.475t-0.449 1.125v2.7h6.4v-2.449q1.449-0.449 2.475-1.675t1.175-2.825zM27.449 25.351q0.9 0 1.525-0.625t0.625-1.525-0.625-1.525-1.525-0.625q-0.849 0-1.475 0.625t-0.625 1.525 0.625 1.525 1.475 0.625zM29.051 26.4h-3.2q-1.2 0-2.075-0.775t-1.075-1.875h-2.1q0.149 1.6 1.175 2.825t2.475 1.675v2.4h6.4v-2.649q0-0.649-0.449-1.125t-1.151-0.475z"></path>
</svg>
