<!-- Generated by IcoMoon.io -->
<svg version="1.1" xmlns="http://www.w3.org/2000/svg" width="40" height="40" viewBox="0 0 40 40">
<title>mt-clean_hands</title>
<path fill="#fff" d="M25.3 12.551l0.7 1.449 1.449 0.651-1.449 0.7-0.7 1.451-0.651-1.451-1.449-0.7 1.449-0.651zM18.949 13.751v-2.3h2.1q0.9 0 1.649 0.5l1.551-1.549q-0.649-0.5-1.475-0.775t-1.725-0.275h-5.849v2.1h1.6v2.3q-1.4 0.3-2.475 1.251t-1.525 2.349h4.251l6.149 2.3v-0.7q0-1.3-0.549-2.375t-1.525-1.825-2.175-1zM8.251 30.649h4.3v-11.7h-4.3v11.7zM28.551 25.351h-7.5l-2.2-0.8 0.349-1 1.851 0.7h3q0.549 0 0.925-0.351t0.375-0.9v0q0-0.851-0.851-1.2l-7.751-2.851h-2.1v9.6l7.5 2.1 8.5-3.2q0-0.849-0.625-1.475t-1.475-0.625zM28.551 22.149q0.849 0 1.475-0.625t0.625-1.525q0-0.449-0.325-1.149t-0.725-1.425-0.725-1.2l-0.325-0.475-0.325 0.475t-0.751 1.2-0.751 1.425-0.325 1.149q0 0.9 0.625 1.525t1.525 0.625z"></path>
</svg>
