<!-- Generated by IcoMoon.io -->
<svg version="1.1" xmlns="http://www.w3.org/2000/svg" width="40" height="40" viewBox="0 0 40 40">
<title>mt-crop_rotate</title>
<path fill="#fff" d="M15.751 24.251h12.8v2.149h-2.151v2.151h-2.149v-2.151h-8.5q-0.9 0-1.525-0.625t-0.625-1.525v-8.5h-2.151v-2.151h2.151v-2.149h2.151v12.8zM24.251 22.149v-6.4h-6.4v-2.149h6.4q0.9 0 1.525 0.625t0.625 1.525v6.4h-2.149zM20.051 7.2q5 0 8.675 3.4t4.075 8.349h-1.6q-0.3-3-2-5.4t-4.349-3.651l-1.451 1.4-4.049-4.051q0.151 0 0.349-0.025t0.351-0.025zM15.151 30.1l1.449-1.4 4.049 4.051q-0.149 0-0.351 0.025t-0.349 0.025q-5 0-8.675-3.4t-4.075-8.349h1.6q0.3 3 2 5.4t4.349 3.651z"></path>
</svg>
