<!-- Generated by IcoMoon.io -->
<svg version="1.1" xmlns="http://www.w3.org/2000/svg" width="40" height="40" viewBox="0 0 40 40">
<title>mt-dvr</title>
<path fill="#fff" d="M14.651 20v2.149h-2.1v-2.151h2.1zM14.651 15.751v2.1h-2.1v-2.1h2.1zM27.449 20v2.149h-11.7v-2.151h11.7zM27.449 15.751v2.1h-11.7v-2.1h11.7zM29.6 25.351v-12.8h-19.2v12.8h19.2zM29.6 10.4q0.849 0 1.5 0.649t0.649 1.5l-0.051 12.8q0 0.849-0.625 1.475t-1.475 0.625h-5.349v2.151h-8.5v-2.151h-5.349q-0.851 0-1.5-0.625t-0.651-1.475v-12.8q0-0.851 0.651-1.5t1.5-0.649h19.2z"></path>
</svg>
