<!-- Generated by IcoMoon.io -->
<svg version="1.1" xmlns="http://www.w3.org/2000/svg" width="40" height="40" viewBox="0 0 40 40">
<title>mt-desktop_access_disabled</title>
<path fill="#fff" d="M10.4 24.251h10.551l-10.551-10.551v10.551zM23.1 26.4h-0.951v2.151h2.1v2.1h-8.5v-2.1h2.1v-2.151h-7.451q-0.851 0-1.5-0.649t-0.651-1.5v-12.7l-1.049-1.049 1.3-1.4q1.2 1.2 7.6 7.549t9.751 9.751l5.049 5-1.4 1.4zM31.751 24.251q0 0.851-0.649 1.5t-1.5 0.649h-1.051l-2.151-2.149h3.2v-12.8h-16l-2.151-2.1h18.151q0.849 0 1.5 0.625t0.649 1.475v12.8z"></path>
</svg>
