<!-- Generated by IcoMoon.io -->
<svg version="1.1" xmlns="http://www.w3.org/2000/svg" width="40" height="40" viewBox="0 0 40 40">
<title>mt-dialpad</title>
<path fill="#fff" d="M20 8.251q0.851 0 1.5 0.651t0.649 1.5-0.649 1.5-1.5 0.649-1.5-0.649-0.651-1.5 0.651-1.5 1.5-0.651zM20 14.651q0.851 0 1.5 0.651t0.649 1.5-0.649 1.5-1.5 0.649-1.5-0.649-0.651-1.5 0.651-1.5 1.5-0.651zM26.4 14.651q0.851 0 1.5 0.651t0.651 1.5-0.651 1.5-1.5 0.649-1.5-0.649-0.649-1.5 0.649-1.5 1.5-0.651zM26.4 21.051q0.851 0 1.5 0.649t0.651 1.5-0.651 1.5-1.5 0.651-1.5-0.651-0.649-1.5 0.649-1.5 1.5-0.649zM20 21.051q0.851 0 1.5 0.649t0.649 1.5-0.649 1.5-1.5 0.651-1.5-0.651-0.651-1.5 0.651-1.5 1.5-0.649zM26.4 12.551q-0.849 0-1.5-0.649t-0.649-1.5 0.649-1.5 1.5-0.651 1.5 0.651 0.651 1.5-0.651 1.5-1.5 0.649zM13.6 21.051q0.851 0 1.5 0.649t0.651 1.5-0.651 1.5-1.5 0.651-1.5-0.651-0.649-1.5 0.649-1.5 1.5-0.649zM13.6 14.651q0.851 0 1.5 0.651t0.651 1.5-0.651 1.5-1.5 0.649-1.5-0.649-0.649-1.5 0.649-1.5 1.5-0.651zM13.6 8.251q0.851 0 1.5 0.651t0.651 1.5-0.651 1.5-1.5 0.649-1.5-0.649-0.649-1.5 0.649-1.5 1.5-0.651zM20 27.449q0.851 0 1.5 0.651t0.649 1.5-0.649 1.5-1.5 0.649-1.5-0.649-0.651-1.5 0.651-1.5 1.5-0.651z"></path>
</svg>
