<!-- Generated by IcoMoon.io -->
<svg version="1.1" xmlns="http://www.w3.org/2000/svg" width="40" height="40" viewBox="0 0 40 40">
<title>mt-emoji_symbols</title>
<path fill="#fff" d="M12.551 28q0 0.2 0.175 0.375t0.325 0.175q0.2 0 0.4-0.2l1.151-1.1-0.8-0.751-1.1 1.1q-0.149 0.149-0.149 0.4zM13.8 22.2q-0.149 0-0.325 0.151t-0.175 0.349q0 0.251 0.149 0.4l0.351 0.4 0.4-0.4q0.4-0.4 0-0.751-0.149-0.151-0.4-0.151zM17.6 24.2l1.5 1.551-1.5 1.5 1.5 1.5-1.5 1.5-1.5-1.5-1.151 1.149q-0.749 0.751-1.9 0.751t-1.9-0.751q-0.8-0.8-0.8-1.9t0.8-1.9l1.151-1.151-0.351-0.351q-0.8-0.8-0.8-1.9t0.775-1.875 1.875-0.775 1.9 0.775 0.8 1.875-0.8 1.9l-0.349 0.351 0.751 0.8zM23.751 18.949q-1.1 0-1.9-0.8t-0.8-1.9 0.8-1.875 1.9-0.775q0.9 0 1.6 0.551v-4.8h4.251v2.1h-3.2v4.8q0 1.1-0.775 1.9t-1.875 0.8zM26.4 28q0-0.7 0.451-1.149t1.149-0.451 1.151 0.451 0.449 1.149-0.449 1.149-1.151 0.451-1.149-0.451-0.451-1.149zM21.051 22.649q0-0.649 0.475-1.125t1.125-0.475 1.125 0.475 0.475 1.125-0.475 1.125-1.125 0.475-1.125-0.475-0.475-1.125zM20.449 28.751l8.3-8.3 1.5 1.5-8.3 8.3zM13.6 18.949v-4.3h-3.2v-2.1h8.549v2.1h-3.2v4.3h-2.151zM10.4 9.349h8.549v2.1h-8.549v-2.1z"></path>
</svg>
