<!-- Generated by IcoMoon.io -->
<svg version="1.1" xmlns="http://www.w3.org/2000/svg" width="40" height="40" viewBox="0 0 40 40">
<title>mt-engineering</title>
<path fill="#fff" d="M16.8 23.2q-0.851 0-1.975 0.175t-2.275 0.525-2.125 0.851-1.575 1.175-0.6 1.525v2.151h17.1v-2.151q0-0.849-0.6-1.525t-1.575-1.175-2.125-0.851-2.275-0.525-1.975-0.175zM30.751 14.5q0.051-0.1 0.051-0.175v-0.175q0-0.2-0.051-0.4l0.8-0.6q0.149-0.1 0.051-0.251l-0.751-1.251q-0.051-0.151-0.251-0.1l-0.9 0.349q-0.251-0.2-0.6-0.349l-0.151-1q-0.051-0.151-0.2-0.151h-1.5q-0.151 0-0.2 0.151l-0.1 1q-0.349 0.149-0.651 0.349l-0.9-0.349q-0.2-0.051-0.251 0.1l-0.751 1.251q-0.051 0.151 0.051 0.251l0.8 0.6q-0.049 0.2-0.049 0.4 0 0.151 0.049 0.349l-0.8 0.6q-0.151 0.1-0.051 0.251l0.751 1.3q0.051 0.1 0.251 0.1l0.9-0.4q0.251 0.2 0.651 0.349l0.1 1q0.051 0.151 0.2 0.151h1.5q0.149 0 0.2-0.151l0.1-1q0.351-0.1 0.651-0.349l0.9 0.4q0.2 0.051 0.251-0.1l0.751-1.3q0.049-0.151-0.051-0.251zM28 15.449q-0.551 0-0.949-0.375t-0.4-0.925 0.4-0.949 0.949-0.4 0.949 0.4 0.4 0.949-0.4 0.925-0.949 0.375zM28.449 19.651l-0.551-0.9q-0.049-0.151-0.149-0.1l-0.649 0.3q-0.2-0.2-0.451-0.251l-0.1-0.751q-0.051-0.1-0.151-0.1h-1.049q-0.151 0-0.151 0.151l-0.1 0.7q-0.1 0.051-0.225 0.1t-0.225 0.149l-0.649-0.251q-0.1-0.049-0.149 0.051l-0.549 0.9q-0.051 0.1 0.049 0.2l0.549 0.451v0.5l-0.549 0.449q-0.1 0.051-0.049 0.149l0.549 0.951q0.049 0.1 0.149 0.049l0.649-0.3q0.2 0.2 0.451 0.3l0.1 0.7q0 0.1 0.151 0.1h1.049q0.151 0 0.151-0.1l0.051-0.7q0.149-0.049 0.251-0.125t0.2-0.175l0.7 0.3q0.1 0.049 0.151-0.049l0.551-0.951q0.049-0.1-0.051-0.149l-0.551-0.449v-0.5l0.551-0.451q0.1-0.1 0.051-0.2zM25.851 21.4q-0.351 0-0.6-0.251t-0.251-0.6q0-0.4 0.251-0.651t0.6-0.251q0.4 0 0.649 0.251t0.251 0.651q0 0.351-0.251 0.6t-0.649 0.251zM12.251 16.8h9.1q0.2 0 0.375-0.151t0.175-0.349v-0.051q0-0.2-0.175-0.349t-0.375-0.151h-0.3q0-1.2-0.575-2.175t-1.525-1.525v1q0 0.251-0.175 0.4t-0.375 0.149-0.375-0.149-0.175-0.4v-1.451l-0.5-0.1t-0.549-0.049-0.551 0.049l-0.5 0.1v1.451q0 0.251-0.175 0.4t-0.375 0.149-0.375-0.149-0.175-0.4v-1q-0.949 0.549-1.525 1.525t-0.575 2.175h-0.3q-0.2 0-0.351 0.151t-0.149 0.349v0.051q0 0.2 0.149 0.349t0.351 0.151zM16.8 21.051q1.5 0 2.625-0.9t1.475-2.3h-8.2q0.349 1.4 1.475 2.3t2.625 0.9z"></path>
</svg>
