<!-- Generated by IcoMoon.io -->
<svg version="1.1" xmlns="http://www.w3.org/2000/svg" width="40" height="40" viewBox="0 0 40 40">
<title>mt-fiber_pin</title>
<path fill="#fff" d="M28.551 23.2v-6.4h-1.351v3.749l-2.649-3.751h-1.351v6.4h1.351v-3.751l2.7 3.751h1.3zM20.551 23.2v-6.4h-1.6v6.4h1.6zM16.8 19.449v-1.049q0-0.7-0.451-1.151t-1.151-0.449h-3.751v6.4h1.6v-2.149h2.149q0.7 0 1.151-0.475t0.451-1.125zM28.551 11.451q0.9 0 1.5 0.625t0.6 1.525v12.8q0 0.9-0.6 1.525t-1.5 0.625h-17.1q-0.9 0-1.5-0.625t-0.6-1.525v-12.8q0-0.9 0.6-1.525t1.5-0.625h17.1zM13.051 18.4h2.149v1.049h-2.149v-1.049z"></path>
</svg>
