<!-- Generated by IcoMoon.io -->
<svg version="1.1" xmlns="http://www.w3.org/2000/svg" width="40" height="40" viewBox="0 0 40 40">
<title>mt-face</title>
<path fill="#fff" d="M20 28.551q3.5 0 6.025-2.525t2.525-6.025q0-1.1-0.349-2.4-1.1 0.251-2.451 0.251-2.3 0-4.825-1.325t-3.825-3.175q-1.651 4-5.6 5.751-0.049 0.3-0.049 0.9 0 3.5 2.525 6.025t6.025 2.525zM20 9.349q4.4 0 7.525 3.125t3.125 7.525-3.125 7.525-7.525 3.125-7.525-3.125-3.125-7.525 3.125-7.525 7.525-3.125zM23.2 19.751q0.551 0 0.951 0.375t0.4 0.925-0.4 0.949-0.951 0.4-0.949-0.4-0.4-0.949 0.4-0.925 0.949-0.375zM16.8 19.751q0.549 0 0.949 0.375t0.4 0.925-0.4 0.949-0.949 0.4-0.951-0.4-0.4-0.949 0.4-0.925 0.951-0.375z"></path>
</svg>
