<!-- Generated by IcoMoon.io -->
<svg version="1.1" xmlns="http://www.w3.org/2000/svg" width="40" height="40" viewBox="0 0 40 40">
<title>mt-flare</title>
<path fill="#fff" d="M18.949 31.751v-6.4h2.1v6.4h-2.1zM13.2 25.3l2.3-2.3 1.5 1.5-2.3 2.3zM23 24.5l1.5-1.5 2.3 2.3-1.5 1.5zM20 16.8q1.3 0 2.251 0.949t0.949 2.251-0.949 2.251-2.251 0.949-2.251-0.949-0.949-2.251 0.949-2.251 2.251-0.949zM25.351 18.949h6.4v2.1h-6.4v-2.1zM26.8 14.7l-2.3 2.3-1.5-1.5 2.3-2.3zM21.051 8.251v6.4h-2.1v-6.4h2.1zM17 15.5l-1.5 1.5-2.3-2.3 1.5-1.5zM14.651 18.949v2.1h-6.4v-2.1h6.4z"></path>
</svg>
