<!-- Generated by IcoMoon.io -->
<svg version="1.1" xmlns="http://www.w3.org/2000/svg" width="40" height="40" viewBox="0 0 40 40">
<title>mt-file_present</title>
<path fill="#fff" d="M24.251 17.849v5.349q0 1.751-1.251 3t-3 1.251-3-1.251-1.251-3v-6.949q0-1.1 0.775-1.875t1.875-0.775h0.3q1.051 0.1 1.7 0.925t0.651 1.875v6.8h-2.1v-6.949q0-0.5-0.549-0.5t-0.551 0.5v6.949q0 0.851 0.651 1.5t1.5 0.651 1.5-0.651 0.649-1.5v-5.349h2.1zM13.6 28.551h12.8v-12.8h-4.249v-4.3h-8.551v17.1zM23.2 9.349l5.349 5.3v13.9q0 0.849-0.651 1.475t-1.5 0.625h-12.8q-0.851 0-1.5-0.625t-0.649-1.475v-17.1q0-0.849 0.649-1.475t1.5-0.625h9.6z"></path>
</svg>
