<!-- Generated by IcoMoon.io -->
<svg version="1.1" xmlns="http://www.w3.org/2000/svg" width="40" height="40" viewBox="0 0 40 40">
<title>mt-filter_9_plus</title>
<path fill="#fff" d="M29.6 16.8v-6.4h-14.951v14.951h14.951v-6.4h-2.151v2.1h-2.1v-2.1h-2.151v-2.149h2.151v-2.151h2.1v2.151h2.151zM29.6 8.251q0.849 0 1.5 0.651t0.649 1.5v14.951q0 0.849-0.649 1.475t-1.5 0.625h-14.951q-0.851 0-1.475-0.625t-0.625-1.475v-14.951q0-0.851 0.625-1.5t1.475-0.651h14.951zM18.949 16.8h1.051v-1.051h-1.051v1.051zM22.149 20q0 0.9-0.625 1.525t-1.525 0.625h-3.2v-2.151h3.2v-1.049h-1.049q-0.9 0-1.525-0.625t-0.625-1.525v-1.051q0-0.9 0.625-1.525t1.525-0.625h1.049q0.9 0 1.525 0.625t0.625 1.525v4.251zM10.4 12.551v17.051h17.051v2.149h-17.051q-0.851 0-1.5-0.649t-0.651-1.5v-17.051h2.151z"></path>
</svg>
