<!-- Generated by IcoMoon.io -->
<svg version="1.1" xmlns="http://www.w3.org/2000/svg" width="40" height="40" viewBox="0 0 40 40">
<title>mt-flip_to_back</title>
<path fill="#fff" d="M23.2 25.351v-2.151h2.151v2.151h-2.151zM23.2 12.551v-2.149h2.151v2.149h-2.151zM12.551 14.651v12.8h12.8v2.151h-12.8q-0.9 0-1.525-0.625t-0.625-1.525v-12.8h2.149zM27.449 25.351v-2.151h2.151q0 0.851-0.651 1.5t-1.5 0.651zM27.449 16.8v-2.151h2.151v2.151h-2.151zM27.449 21.051v-2.1h2.151v2.1h-2.151zM16.8 25.351q-0.9 0-1.525-0.625t-0.625-1.525h2.151v2.151zM21.051 10.4v2.149h-2.1v-2.149h2.1zM27.449 10.4q0.851 0 1.5 0.649t0.651 1.5h-2.151v-2.149zM21.051 23.2v2.151h-2.1v-2.151h2.1zM16.8 10.4v2.149h-2.151q0-0.9 0.625-1.525t1.525-0.625zM16.8 18.949v2.1h-2.151v-2.1h2.151zM16.8 14.651v2.151h-2.151v-2.151h2.151z"></path>
</svg>
