<!-- Generated by IcoMoon.io -->
<svg version="1.1" xmlns="http://www.w3.org/2000/svg" width="40" height="40" viewBox="0 0 40 40">
<title>mt-gps_off</title>
<path fill="#fff" d="M24.551 25.9l-10.451-10.449q-0.651 0.851-1.1 2.175t-0.451 2.375q0 3.1 2.175 5.275t5.275 2.175q1.051 0 2.375-0.449t2.175-1.1zM10.4 11.751l1.349-1.349 17.851 17.849-1.351 1.351-2.2-2.2q-2.251 1.851-5 2.151v2.2h-2.1v-2.2q-3.149-0.351-5.649-2.851t-2.851-5.651h-2.2v-2.1h2.2q0.1-1.151 0.751-2.625t1.4-2.375zM29.551 18.949h2.2v2.1h-2.2q-0.251 1.949-1.051 3.4l-1.6-1.6q0.551-1.351 0.551-2.851 0-3.1-2.175-5.275t-5.275-2.175q-1.5 0-2.849 0.551l-1.6-1.6q1.549-0.8 3.4-1.049v-2.2h2.1v2.2q3.149 0.351 5.651 2.851t2.849 5.649z"></path>
</svg>
