<!-- Generated by IcoMoon.io -->
<svg version="1.1" xmlns="http://www.w3.org/2000/svg" width="40" height="40" viewBox="0 0 40 40">
<title>mt-handyman</title>
<path fill="#fff" d="M30.3 26.6l-5.651-5.651h-1.049l-2.7 2.7v1.051l5.649 5.651q0.3 0.3 0.751 0.3t0.751-0.3l2.251-2.251q0.349-0.3 0.349-0.751t-0.349-0.751zM25.7 18.051l1.5-1.5 2.251 2.3q0.651-0.651 0.851-1.475t0-1.625-0.851-1.451l-3.751-3.751-1.5 1.5v-3.049l-0.751-0.751-3.8 3.8 0.751 0.751h3.049l-1.5 1.5 1.1 1.151-3.051 3.051-4.449-4.4v-1.5l-3.2-3.2-3 3 3.2 3.249h1.5l4.4 4.4-0.9 0.9h-2.251l-5.651 5.651q-0.3 0.3-0.3 0.751t0.3 0.751l2.251 2.251q0.349 0.3 0.775 0.3t0.725-0.3l5.651-5.651v-2.251l5.5-5.5z"></path>
</svg>
