<!-- Generated by IcoMoon.io -->
<svg version="1.1" xmlns="http://www.w3.org/2000/svg" width="40" height="40" viewBox="0 0 40 40">
<title>mt-hail</title>
<path fill="#fff" d="M11.451 24.251h3.2v6.4h-3.2v-6.4zM27.449 9.751q-0.1 2.349-1.2 4.075t-3.051 2.325v14.5h-2.149v-6.4h-2.1v6.4h-2.149v-12.7q-0.451 0.151-0.651 0.351-1.5 1.2-1.5 3.3v0.549h-2.1v-0.549q0-3.151 2.251-5.1 2.251-1.849 5.2-1.849 2.251 0 3.7-1.1 1.651-1.351 1.651-3.7v-0.5h2.1v0.4zM20 13.6q-0.849 0-1.5-0.649t-0.651-1.5 0.651-1.475 1.5-0.625 1.5 0.625 0.649 1.475-0.649 1.5-1.5 0.649z"></path>
</svg>
