<!-- Generated by IcoMoon.io -->
<svg version="1.1" xmlns="http://www.w3.org/2000/svg" width="40" height="40" viewBox="0 0 40 40">
<title>mt-headset_off</title>
<path fill="#fff" d="M9.6 9.049l21.351 21.351-1.349 1.351-2.3-2.3q-0.449 0.151-0.9 0.151h-3.2v-4.251l-9.8-9.851q-0.851 1.549-0.851 3.451v2.1h4.251v8.549h-3.2q-1.3 0-2.251-0.949t-0.951-2.251v-7.449q0-2.8 1.4-5l-3.549-3.549zM20 11.451q-2.2 0-4.051 1.2l-1.549-1.5q2.451-1.8 5.6-1.8 4 0 6.8 2.825t2.8 6.775v7.351l-5.251-5.251h3.1v-2.1q0-3.1-2.175-5.3t-5.275-2.2z"></path>
</svg>
