<!-- Generated by IcoMoon.io -->
<svg version="1.1" xmlns="http://www.w3.org/2000/svg" width="40" height="40" viewBox="0 0 40 40">
<title>mt-hdr_enhanced_select</title>
<path fill="#fff" d="M20 9.349q1.751 0 3.2 0.851t2.325 2.3 0.875 3.251q0 1.751-0.875 3.2t-2.325 2.325-3.2 0.875-3.2-0.875-2.325-2.325-0.875-3.2q0-1.8 0.875-3.251t2.325-2.3 3.2-0.851zM20 11.451q-1.2 0-2.151 0.575t-1.525 1.549-0.575 2.175q0 1.151 0.575 2.125t1.525 1.551 2.151 0.575 2.149-0.575 1.525-1.551 0.575-2.125q0-1.2-0.575-2.175t-1.525-1.551-2.151-0.575zM21.051 18.949h-2.1v-2.149h-2.149v-2.151h2.149v-2.1h2.1v2.1h2.149v2.151h-2.149v2.149zM32.8 28.551h-2.151v2.1h-1.6v-2.1h-2.1v-1.6h2.1v-2.149h1.6v2.149h2.151v1.6zM26.4 26.949q0 0.449-0.275 0.851t-0.675 0.649l0.949 2.2h-1.6l-0.949-2.1h-1.2v2.1h-1.6v-6.4h3.751q0.651 0 1.125 0.5t0.475 1.1v1.1zM24.8 26.949v-1.1h-2.151v1.1h2.151zM10.951 26.4v-2.149h1.6v6.4h-1.6v-2.649h-2.149v2.649h-1.6v-6.4h1.6v2.149h2.149zM17.849 24.251q0.651 0 1.125 0.5t0.475 1.1v3.2q0 0.649-0.475 1.125t-1.125 0.475h-3.7v-6.4h3.7zM17.849 29.051v-3.2h-2.1v3.2h2.1z"></path>
</svg>
