<!-- Generated by IcoMoon.io -->
<svg version="1.1" xmlns="http://www.w3.org/2000/svg" width="40" height="40" viewBox="0 0 40 40">
<title>mt-keyboard</title>
<path fill="#fff" d="M27.449 17.849v-2.1h-2.1v2.1h2.1zM27.449 21.051v-2.1h-2.1v2.1h2.1zM24.251 17.849v-2.1h-2.1v2.1h2.1zM24.251 21.051v-2.1h-2.1v2.1h2.1zM24.251 25.351v-2.151h-8.5v2.151h8.5zM14.651 17.849v-2.1h-2.1v2.1h2.1zM14.651 21.051v-2.1h-2.1v2.1h2.1zM15.751 18.949v2.1h2.1v-2.1h-2.1zM15.751 15.751v2.1h2.1v-2.1h-2.1zM18.949 18.949v2.1h2.1v-2.1h-2.1zM18.949 15.751v2.1h2.1v-2.1h-2.1zM28.551 12.551q0.849 0 1.475 0.625t0.625 1.475v10.7q0 0.849-0.625 1.475t-1.475 0.625h-17.1q-0.851 0-1.475-0.625t-0.625-1.475v-10.7q0-0.851 0.625-1.475t1.475-0.625h17.1z"></path>
</svg>
