<!-- Generated by IcoMoon.io -->
<svg version="1.1" xmlns="http://www.w3.org/2000/svg" width="40" height="40" viewBox="0 0 40 40">
<title>mt-k_plus</title>
<path fill="#fff" d="M28 20.551v-1.1h-1.6v-1.6h-1.049v1.6h-1.6v1.1h1.6v1.6h1.049v-1.6h1.6zM21.851 23.2h1.9l-2.4-3.2 2.4-3.2h-1.9l-1.851 2.4v-2.4h-1.6v6.4h1.6v-2.4zM16.8 23.2v-6.4h-3.2v1.6h1.6v4.8h1.6zM27.449 10.4q0.851 0 1.5 0.649t0.651 1.5v14.9q0 0.849-0.651 1.5t-1.5 0.651h-14.9q-0.851 0-1.5-0.651t-0.651-1.5v-14.9q0-0.849 0.651-1.5t1.5-0.649h14.9z"></path>
</svg>
