<!-- Generated by IcoMoon.io -->
<svg version="1.1" xmlns="http://www.w3.org/2000/svg" width="40" height="40" viewBox="0 0 40 40">
<title>mt-keyboard_control</title>
<path fill="#fff" d="M20 17.849q0.851 0 1.5 0.651t0.649 1.5-0.649 1.5-1.5 0.649-1.5-0.649-0.651-1.5 0.651-1.5 1.5-0.651zM26.4 17.849q0.851 0 1.5 0.651t0.651 1.5-0.651 1.5-1.5 0.649-1.5-0.649-0.649-1.5 0.649-1.5 1.5-0.651zM13.6 17.849q0.851 0 1.5 0.651t0.651 1.5-0.651 1.5-1.5 0.649-1.5-0.649-0.649-1.5 0.649-1.5 1.5-0.651z"></path>
</svg>
