<!-- Generated by IcoMoon.io -->
<svg version="1.1" xmlns="http://www.w3.org/2000/svg" width="40" height="40" viewBox="0 0 40 40">
<title>mt-k_plus1</title>
<path fill="#fff" d="M28.551 20.551v-1.1h-1.6v-1.6h-1.1v1.6h-1.6v1.1h1.6v1.6h1.1v-1.6h1.6zM22.4 23.2h1.851l-2.4-3.2 2.4-3.2h-1.851l-1.851 2.4v-2.4h-1.6v6.4h1.6v-2.4zM17.349 19.449v-1.6q0-0.449-0.325-0.751t-0.775-0.3h-3.7v1.6h3.2v1.049h-2.151q-0.449 0-0.751 0.325t-0.3 0.775v2.649h4.8v-1.6h-3.2v-1.051h2.1q0.451 0 0.775-0.325t0.325-0.775zM27.449 10.4q0.851 0 1.5 0.649t0.651 1.5v14.9q0 0.849-0.651 1.5t-1.5 0.651h-14.9q-0.851 0-1.5-0.651t-0.651-1.5v-14.9q0-0.849 0.651-1.5t1.5-0.649h14.9z"></path>
</svg>
