<!-- Generated by IcoMoon.io -->
<svg version="1.1" xmlns="http://www.w3.org/2000/svg" width="40" height="40" viewBox="0 0 40 40">
<title>mt-keyboard_hide</title>
<path fill="#fff" d="M20 31.751l-4.251-4.3h8.5zM27.449 15.751v-2.151h-2.1v2.151h2.1zM27.449 18.949v-2.149h-2.1v2.149h2.1zM24.251 15.751v-2.151h-2.1v2.151h2.1zM24.251 18.949v-2.149h-2.1v2.149h2.1zM24.251 23.2v-2.149h-8.5v2.149h8.5zM14.651 15.751v-2.151h-2.1v2.151h2.1zM14.651 18.949v-2.149h-2.1v2.149h2.1zM15.751 16.8v2.149h2.1v-2.149h-2.1zM15.751 13.6v2.151h2.1v-2.151h-2.1zM18.949 16.8v2.149h2.1v-2.149h-2.1zM18.949 13.6v2.151h2.1v-2.151h-2.1zM28.551 10.4q0.849 0 1.475 0.649t0.625 1.5v10.651q0 0.851-0.625 1.5t-1.475 0.651h-17.1q-0.851 0-1.475-0.651t-0.625-1.5v-10.651q0-0.849 0.625-1.5t1.475-0.649h17.1z"></path>
</svg>
