<!-- Generated by IcoMoon.io -->
<svg version="1.1" xmlns="http://www.w3.org/2000/svg" width="40" height="40" viewBox="0 0 40 40">
<title>mt-location_history</title>
<path fill="#fff" d="M20 26.7q1.751 0 3.6-1t2.8-2.4q-0.049-1.4-2.251-2.351t-4.151-0.949-4.151 0.925-2.251 2.375q0.951 1.4 2.8 2.4t3.6 1zM20 11.451q-1.3 0-2.251 0.951t-0.949 2.251 0.949 2.251 2.251 0.949 2.251-0.949 0.949-2.251-0.949-2.251-2.251-0.951zM20 9.349q4 0 6.8 2.825t2.8 6.775q0 3.3-2.025 5.851t-5.125 3.4l-2.449 2.449-2.451-2.449q-3.1-0.849-5.125-3.4t-2.025-5.851q0-3.951 2.8-6.775t6.8-2.825z"></path>
</svg>
