<!-- Generated by IcoMoon.io -->
<svg version="1.1" xmlns="http://www.w3.org/2000/svg" width="40" height="40" viewBox="0 0 40 40">
<title>mt-local_atm</title>
<path fill="#fff" d="M28.551 26.4v-12.8h-17.1v12.8h17.1zM28.551 11.451q0.9 0 1.5 0.625t0.6 1.525v12.8q0 0.9-0.6 1.525t-1.5 0.625h-17.1q-0.9 0-1.5-0.625t-0.6-1.525v-12.8q0-0.9 0.6-1.525t1.5-0.625h17.1zM18.949 25.351v-1.1h-2.149v-2.1h4.249v-1.1h-3.2q-0.451 0-0.751-0.3t-0.3-0.751v-3.2q0-0.449 0.3-0.751t0.751-0.3h1.1v-1.1h2.1v1.1h2.149v2.1h-4.251v1.1h3.2q0.449 0 0.751 0.3t0.3 0.751v3.2q0 0.451-0.3 0.751t-0.751 0.3h-1.1v1.1h-2.1z"></path>
</svg>
