<!-- Generated by IcoMoon.io -->
<svg version="1.1" xmlns="http://www.w3.org/2000/svg" width="40" height="40" viewBox="0 0 40 40">
<title>mt-lunch_dining</title>
<path fill="#fff" d="M9.349 24.251h21.3v2.149q0 0.851-0.625 1.5t-1.475 0.651h-17.1q-0.849 0-1.475-0.651t-0.625-1.5v-2.149zM12.9 21.6q-0.551 0-1.2 0.4-1.1 0.649-2.351 0.649v-2.1q0.551 0 1.2-0.4 1.149-0.7 2.351-0.7 1.149 0 2.3 0.7 0.651 0.4 1.251 0.4 0.551 0 1.2-0.4 1.151-0.7 2.349-0.7 1.151 0 2.3 0.7 0.649 0.4 1.251 0.4 0.551 0 1.2-0.4 1.151-0.7 2.351-0.7 1.149 0 2.3 0.7l1.251 0.4v2.1q-1.2 0-2.3-0.649-0.651-0.4-1.251-0.4-0.551 0-1.2 0.4-1.1 0.649-2.349 0.649-1.2 0-2.3-0.649-0.649-0.4-1.251-0.4-0.549 0-1.2 0.4-1.1 0.649-2.349 0.649-1.2 0-2.3-0.649-0.651-0.4-1.251-0.4zM30.649 17.849h-21.3q-0.251-2.6 2.9-4.5t7.751-1.9 7.751 1.9 2.9 4.5z"></path>
</svg>
