<!-- Generated by IcoMoon.io -->
<svg version="1.1" xmlns="http://www.w3.org/2000/svg" width="40" height="40" viewBox="0 0 40 40">
<title>mt-lock_clock</title>
<path fill="#fff" d="M22.649 22.351l3.1 1.8-0.851 1.4-3.851-2.351v-5.349h1.6v4.5zM30.649 22.149q0 1.751-0.649 3.3t-1.825 2.725-2.725 1.825-3.3 0.649q-1.649 0-3.075-0.549t-2.575-1.551h-5.049q-0.9 0-1.5-0.625t-0.6-1.525v-9.6q0-0.9 0.625-1.5t1.475-0.651v-0.5q0-1.349 0.651-2.425t1.751-1.725 2.4-0.649q1.251 0 2.3 0.575t1.7 1.549 0.751 2.225q0.6-0.1 1.149-0.1 1.751 0 3.3 0.675t2.725 1.849 1.825 2.7 0.649 3.325zM13.6 14.651h5.349v-0.751q-0.1-1.051-0.875-1.751t-1.825-0.7q-1.1 0-1.875 0.8t-0.775 1.9v0.5zM28.551 22.149q0-1.8-0.875-3.251t-2.325-2.3-3.2-0.851q-1.8 0-3.251 0.851t-2.3 2.3-0.849 3.251q0 1.751 0.849 3.2t2.3 2.325 3.251 0.875q1.751 0 3.2-0.875t2.325-2.325 0.875-3.2z"></path>
</svg>
