<!-- Generated by IcoMoon.io -->
<svg version="1.1" xmlns="http://www.w3.org/2000/svg" width="40" height="40" viewBox="0 0 40 40">
<title>mt-location_off</title>
<path fill="#fff" d="M19.7 19.449q5.451 5.4 8.849 8.8l-1.349 1.351-3.6-3.551q-0.8 1.2-1.7 2.349t-1.4 1.7l-0.5 0.549q-0.3-0.349-0.8-0.925t-1.8-2.3-2.275-3.351-1.775-3.675-0.8-3.6q0-0.551 0.2-1.651l-3.4-3.4 1.351-1.349 8.9 8.9zM20 14.151q-1.151 0-1.949 0.9l-3.451-3.4q0.9-0.951 2.5-1.625t2.9-0.675q3.1 0 5.275 2.175t2.175 5.275q0 2.4-1.8 5.849l-3.849-3.9q0.851-0.751 0.851-1.949 0-1.1-0.775-1.875t-1.875-0.775z"></path>
</svg>
