<!-- Generated by IcoMoon.io -->
<svg version="1.1" xmlns="http://www.w3.org/2000/svg" width="40" height="40" viewBox="0 0 40 40">
<title>mt-local_car_wash</title>
<path fill="#fff" d="M12.551 21.051h14.9l-1.6-4.8h-11.7zM25.851 26.4q0.649 0 1.125-0.449t0.475-1.149-0.475-1.151-1.125-0.449-1.125 0.449-0.475 1.151 0.475 1.149 1.125 0.449zM14.151 26.4q0.651 0 1.125-0.449t0.475-1.149-0.475-1.151-1.125-0.449-1.125 0.449-0.475 1.151 0.475 1.149 1.125 0.449zM27.4 15.751l2.2 6.4v8.5q0 0.451-0.3 0.775t-0.751 0.325h-1.1q-0.451 0-0.751-0.325t-0.3-0.775v-1.049h-12.8v1.049q0 0.451-0.3 0.775t-0.751 0.325h-1.1q-0.449 0-0.751-0.325t-0.3-0.775v-8.5l2.2-6.4q0.349-1.1 1.551-1.1h11.7q1.2 0 1.551 1.1zM14.651 12.551q-0.651 0-1.125-0.475t-0.475-1.125q0-0.449 0.4-1.175t0.8-1.225l0.4-0.5q1.6 1.851 1.6 2.9 0 0.651-0.475 1.125t-1.125 0.475zM20 12.551q-0.7 0-1.151-0.475t-0.449-1.125q0-0.449 0.4-1.175t0.8-1.225l0.4-0.5q1.6 1.851 1.6 2.9 0 0.651-0.451 1.125t-1.149 0.475zM25.351 12.551q-0.651 0-1.125-0.475t-0.475-1.125q0-0.449 0.4-1.175t0.8-1.225l0.4-0.5q1.6 1.851 1.6 2.9 0 0.651-0.475 1.125t-1.125 0.475z"></path>
</svg>
