<!-- Generated by IcoMoon.io -->
<svg version="1.1" xmlns="http://www.w3.org/2000/svg" width="40" height="40" viewBox="0 0 40 40">
<title>mt-looks_two</title>
<path fill="#fff" d="M23.2 18.949v-2.149q0-0.9-0.625-1.525t-1.525-0.625h-4.251v2.151h4.251v2.149h-2.1q-0.9 0-1.525 0.6t-0.625 1.5v4.3h6.4v-2.151h-4.251v-2.149h2.1q0.9 0 1.525-0.6t0.625-1.5zM27.449 10.4q0.851 0 1.5 0.649t0.651 1.5v14.9q0 0.849-0.651 1.5t-1.5 0.651h-14.9q-0.851 0-1.5-0.651t-0.651-1.5v-14.9q0-0.849 0.651-1.5t1.5-0.649h14.9z"></path>
</svg>
