<!-- Generated by IcoMoon.io -->
<svg version="1.1" xmlns="http://www.w3.org/2000/svg" width="40" height="40" viewBox="0 0 40 40">
<title>mt-location_on</title>
<path fill="#fff" d="M20 19.449q1.1 0 1.875-0.775t0.775-1.875-0.775-1.875-1.875-0.775-1.875 0.775-0.775 1.875 0.775 1.875 1.875 0.775zM20 9.349q3.1 0 5.275 2.175t2.175 5.275q0 1.549-0.775 3.549t-1.875 3.751-2.175 3.275-1.825 2.425l-0.8 0.849q-0.3-0.349-0.8-0.925t-1.8-2.3-2.275-3.351-1.775-3.675-0.8-3.6q0-3.1 2.175-5.275t5.275-2.175z"></path>
</svg>
