<!-- Generated by IcoMoon.io -->
<svg version="1.1" xmlns="http://www.w3.org/2000/svg" width="40" height="40" viewBox="0 0 40 40">
<title>mt-masks</title>
<path fill="#fff" d="M28 13.6q-1.051 0-1.8 0.7t-0.849 1.751q-1-0.251-1.775-0.725t-1.6-0.825-1.975-0.349-1.975 0.349-1.6 0.825-1.775 0.725q-0.1-1-0.849-1.725t-1.8-0.725q-1.1 0-1.875 0.775t-0.775 1.875v0.551q0 2.4 0.625 4t1.675 2.575 2.251 1.425 2.4 0.5q0.8 0.5 1.751 0.8t1.949 0.3 1.951-0.3 1.751-0.8q1.2-0.051 2.4-0.5t2.251-1.425 1.675-2.575 0.625-4v-0.551q0-1.1-0.775-1.875t-1.875-0.775zM10.951 16.8v-0.551q0-0.4 0.3-0.725t0.751-0.325 0.751 0.325 0.3 0.725v3.2q0 1.051 0.3 1.975t0.8 1.775q-0.8-0.4-1.551-1.149t-1.2-2.025-0.451-3.225zM29.051 16.8q0 1.949-0.449 3.225t-1.2 2.025-1.549 1.149q0.5-0.849 0.8-1.775t0.3-1.975v-3.2q0-0.4 0.3-0.725t0.751-0.325 0.751 0.325 0.3 0.725v0.551zM18.6 18.4q-0.349 0.2-0.775 0.425t-1.025 0.375v-1.1q0.4-0.151 0.7-0.325t0.551-0.325q0.449-0.251 0.9-0.449t1.051-0.2 1.051 0.2 0.849 0.449q0.3 0.151 0.6 0.325t0.7 0.325v1.1q-0.6-0.149-1.025-0.375t-0.775-0.475l-0.7-0.349t-0.7-0.151-0.7 0.151-0.7 0.4z"></path>
</svg>
