<!-- Generated by IcoMoon.io -->
<svg version="1.1" xmlns="http://www.w3.org/2000/svg" width="40" height="40" viewBox="0 0 40 40">
<title>mt-memory</title>
<path fill="#fff" d="M25.351 25.351v-10.7h-10.7v10.7h10.7zM29.6 18.949h-2.151v2.1h2.151v2.149h-2.151v2.151q0 0.849-0.625 1.475t-1.475 0.625h-2.151v2.151h-2.149v-2.151h-2.1v2.151h-2.151v-2.151h-2.151q-0.849 0-1.475-0.625t-0.625-1.475v-2.151h-2.151v-2.149h2.151v-2.1h-2.151v-2.149h2.151v-2.151q0-0.851 0.625-1.475t1.475-0.625h2.151v-2.149h2.151v2.149h2.1v-2.149h2.149v2.149h2.151q0.849 0 1.475 0.625t0.625 1.475v2.151h2.151v2.149zM21.051 21.051v-2.1h-2.1v2.1h2.1zM23.2 16.8v6.4h-6.4v-6.4h6.4z"></path>
</svg>
