<!-- Generated by IcoMoon.io -->
<svg version="1.1" xmlns="http://www.w3.org/2000/svg" width="40" height="40" viewBox="0 0 40 40">
<title>mt-network_locked</title>
<path fill="#fff" d="M29.6 24.251v-1.6q0-0.649-0.451-1.125t-1.149-0.475-1.151 0.475-0.449 1.125v1.6h3.2zM30.649 24.251q0.451 0 0.775 0.325t0.325 0.775v4.251q0 0.449-0.325 0.751t-0.775 0.3h-5.3q-0.451 0-0.775-0.3t-0.325-0.751v-4.251q0-0.451 0.325-0.775t0.775-0.325v-1.6q0-1.1 0.775-1.875t1.875-0.775 1.875 0.775 0.775 1.875v1.6zM28 17.849q-2 0-3.4 1.4t-1.4 3.4v0.3q-1.051 0.951-1.051 2.4v3.2h-13.9l20.3-20.3v9.649q-0.1 0-0.275-0.025t-0.275-0.025z"></path>
</svg>
