<!-- Generated by IcoMoon.io -->
<svg version="1.1" xmlns="http://www.w3.org/2000/svg" width="40" height="40" viewBox="0 0 40 40">
<title>mt-notifications_off</title>
<path fill="#fff" d="M26.4 22.851l-9.549-10.051q0.149-0.051 0.4-0.175l0.351-0.175h0.049l0.3-0.149q0.051 0 0.2-0.051t0.251-0.049v-0.751q0-0.651 0.451-1.125t1.149-0.475 1.151 0.475 0.451 1.125v0.751q2.251 0.549 3.525 2.4t1.275 4.351v3.9zM20 30.649q-0.9 0-1.525-0.6t-0.625-1.5h4.3q0 0.9-0.625 1.5t-1.525 0.6zM15.551 13.751q1.2 1.251 6.275 6.449t7.775 8.051l-1.351 1.351-2.149-2.151h-14.651v-1.051l2.151-2.149v-5.351q0-2.049 0.849-3.649l-3-2.951 1.351-1.4z"></path>
</svg>
