<!-- Generated by IcoMoon.io -->
<svg version="1.1" xmlns="http://www.w3.org/2000/svg" width="40" height="40" viewBox="0 0 40 40">
<title>mt-outdoor_grill</title>
<path fill="#fff" d="M22.551 14.651q0.349-1.351-0.451-2.151-1.251-1.3-0.951-3.151h1.051q-0.251 1.251 0.5 2.151 0.851 0.949 1 1.625t-0.051 1.525h-1.1zM19.9 14.651q0.3-1.351-0.5-2.151-1.251-1.3-0.951-3.151h1.051q-0.251 1.251 0.5 2.151 0.851 0.949 1 1.625t-0.051 1.525h-1.049zM17.251 14.651q0.3-1.351-0.5-2.151-1.251-1.3-0.949-3.151h1.049q-0.251 1.251 0.5 2.151 0.849 0.949 1 1.625t-0.049 1.525h-1.051zM25.351 26.4q-0.451 0-0.775 0.3t-0.325 0.751 0.325 0.775 0.775 0.325 0.751-0.325 0.3-0.775-0.3-0.751-0.751-0.3zM25.351 30.649q-1.051 0-1.851-0.6t-1.149-1.551h-6.8l-1.051 1.7q-0.251 0.449-0.9 0.449-0.4 0-0.6-0.151-0.449-0.251-0.449-0.9 0-0.4 0.149-0.6l4.251-6.449q-2-0.9-3.2-2.725t-1.2-4.075h14.9q0 2-1.275 4t-3.075 2.8l0.6 0.949q-1 0.4-1.7 1.3l-1.049-1.649q-0.251 0.049-0.951 0.049t-0.951-0.049l-2.1 3.249h5.4q0.351-0.949 1.149-1.549t1.851-0.6q1.3 0 2.251 0.951t0.949 2.251-0.949 2.251-2.251 0.949z"></path>
</svg>
