<!-- Generated by IcoMoon.io -->
<svg version="1.1" xmlns="http://www.w3.org/2000/svg" width="40" height="40" viewBox="0 0 40 40">
<title>mt-picture_as_pdf</title>
<path fill="#fff" d="M22.149 19.449v-3.2h1.049v3.2h-1.049zM11.451 13.6v14.949h14.949v2.1h-14.949q-0.851 0-1.475-0.625t-0.625-1.475v-14.949h2.1zM16.8 17.349v-1.1h1.049v1.1h-1.049zM29.051 16.251v-1.6h-3.2v6.4h1.6v-2.1h1.6v-1.6h-1.6v-1.1h1.6zM24.8 19.449v-3.2q0-0.651-0.451-1.125t-1.149-0.475h-2.649v6.4h2.649q0.7 0 1.149-0.475t0.451-1.125zM19.449 17.349v-1.1q0-0.651-0.475-1.125t-1.125-0.475h-2.651v6.4h1.6v-2.1h1.049q0.651 0 1.125-0.475t0.475-1.125zM28.551 9.349q0.849 0 1.475 0.625t0.625 1.475v12.8q0 0.851-0.625 1.5t-1.475 0.649h-12.8q-0.849 0-1.5-0.649t-0.651-1.5v-12.8q0-0.851 0.651-1.475t1.5-0.625h12.8z"></path>
</svg>
