<!-- Generated by IcoMoon.io -->
<svg version="1.1" xmlns="http://www.w3.org/2000/svg" width="40" height="40" viewBox="0 0 40 40">
<title>mt-policy</title>
<path fill="#fff" d="M16.8 20q0-1.3 0.949-2.251t2.251-0.949 2.251 0.949 0.949 2.251-0.949 2.251-2.251 0.949-2.251-0.949-0.949-2.251zM29.6 12.551v6.4q0 3.8-2.051 7.1l-3.1-3.1q0.9-1.349 0.9-2.949 0-0.9-0.451-2.025t-1.1-1.775-1.775-1.1-2.025-0.449-2 0.449-1.751 1.1-1.125 1.775-0.475 2.025 0.475 2 1.125 1.751 1.751 1.125 2 0.475q1.6 0 2.951-0.9l3.3 3.349q-2.6 3.051-6.251 3.951-4.1-1-6.849-4.675t-2.751-8.125v-6.4l9.6-4.3z"></path>
</svg>
