<!-- Generated by IcoMoon.io -->
<svg version="1.1" xmlns="http://www.w3.org/2000/svg" width="40" height="40" viewBox="0 0 40 40">
<title>mt-plumbing</title>
<path fill="#fff" d="M27.751 12.449l-2.251-2.251q-0.6-0.649-1.5-0.649t-1.5 0.649l-3.051 3 2.3 2.3 2.251-2.3 3.751 3.8q0.649-0.651 0.851-1.475t0-1.625-0.851-1.451zM13.051 21.9q0.5 0.451 1.149 0.451t1.1-0.451l2.649-2.651-2.251-2.251-2.649 2.6q-0.449 0.5-0.449 1.149t0.449 1.151v0zM23.251 15.5l-1.5 1.5-3.4-3.4q-0.5-0.5-1.151-0.5t-1.149 0.5q-0.451 0.451-0.451 1.125t0.451 1.125l3.4 3.4-0.751 0.751-6.749 6.8q-0.649 0.6-0.649 1.5t0.649 1.5q0.6 0.649 1.475 0.649t1.525-0.649l9.8-9.8q0.3 0.3 0.751 0.3t0.751-0.3 0.3-0.751-0.3-0.751z"></path>
</svg>
