<!-- Generated by IcoMoon.io -->
<svg version="1.1" xmlns="http://www.w3.org/2000/svg" width="40" height="40" viewBox="0 0 40 40">
<title>mt-panorama_wide_angle</title>
<path fill="#fff" d="M20 11.451q3.851 0 8.5 0.8l0.949 0.151 0.3 0.949q0.9 3.3 0.9 6.651t-0.9 6.649l-0.3 0.951-0.949 0.149q-4.649 0.8-8.5 0.8t-8.5-0.8l-0.951-0.149-0.3-0.951q-0.9-3.3-0.9-6.649t0.9-6.649l0.3-0.949 0.951-0.151q4.651-0.8 8.5-0.8zM20 13.6q-3.5 0-7.8 0.7-0.751 2.9-0.751 5.7t0.751 5.7q4.3 0.7 7.8 0.7t7.8-0.7q0.751-2.9 0.751-5.7t-0.751-5.7q-4.3-0.7-7.8-0.7z"></path>
</svg>
