<!-- Generated by IcoMoon.io -->
<svg version="1.1" xmlns="http://www.w3.org/2000/svg" width="40" height="40" viewBox="0 0 40 40">
<title>mt-push_pin</title>
<path fill="#fff" d="M24.251 16.8v-5.351h1.1q0.4 0 0.725-0.3t0.325-0.751v0q0-0.451-0.325-0.751t-0.725-0.3h-10.7q-0.4 0-0.725 0.3t-0.325 0.751v0q0 0.451 0.325 0.751t0.725 0.3h1.1v5.351q0 0.9-0.451 1.625t-1.175 1.149-1.575 0.425v0 2.149h6.349v7.451l1.051 1.049 1.1-1.049v-7.451h6.4v-2.151q-0.849 0-1.575-0.425t-1.175-1.151-0.449-1.625z"></path>
</svg>
