<!-- Generated by IcoMoon.io -->
<svg version="1.1" xmlns="http://www.w3.org/2000/svg" width="40" height="40" viewBox="0 0 40 40">
<title>mt-photo_camera_front</title>
<path fill="#fff" d="M26.4 18.4l4.251-4.251v11.7l-4.251-4.251v4.8q0 0.9-0.625 1.525t-1.525 0.625h-12.8q-0.851 0-1.475-0.625t-0.625-1.525v-12.8q0-0.9 0.625-1.525t1.475-0.625h12.8q0.9 0 1.525 0.625t0.625 1.525v4.8zM24.251 17.551v-3.951h-12.8v12.8h12.8v-8.849zM17.849 20q-0.849 0-1.475-0.625t-0.625-1.525q0-0.849 0.625-1.475t1.475-0.625q0.9 0 1.525 0.625t0.625 1.475q0 0.9-0.625 1.525t-1.525 0.625zM17.849 21.051q0.551 0 1.275 0.149t1.4 0.4 1.149 0.649 0.475 0.951v1.049h-8.551v-1.049q0-0.549 0.449-0.951t1.151-0.649 1.425-0.4 1.225-0.149z"></path>
</svg>
