<!-- Generated by IcoMoon.io -->
<svg version="1.1" xmlns="http://www.w3.org/2000/svg" width="40" height="40" viewBox="0 0 40 40">
<title>mt-person_remove</title>
<path fill="#fff" d="M22.149 15.751q0-1.2-0.575-2.175t-1.549-1.551-2.175-0.575q-1.151 0-2.125 0.575t-1.551 1.551-0.575 2.175q0 1.151 0.575 2.125t1.551 1.551 2.125 0.575q1.2 0 2.175-0.575t1.549-1.551 0.575-2.125zM25.351 17.849v2.151h6.4v-2.151h-6.4zM9.349 26.4v2.151h17.049v-2.151q0-0.849-0.6-1.525t-1.575-1.2-2.125-0.851-2.275-0.5-1.975-0.175-1.951 0.175-2.251 0.5-2.125 0.851-1.575 1.2-0.6 1.525z"></path>
</svg>
