<!-- Generated by IcoMoon.io -->
<svg version="1.1" xmlns="http://www.w3.org/2000/svg" width="40" height="40" viewBox="0 0 40 40">
<title>mt-person_add_disabled</title>
<path fill="#fff" d="M13.6 17.849h0.951l-0.951-0.949v0.949zM19.349 22.649l-2.651-2.651h-3.1v3.2h-2.149v-3.2h-3.2v-2.151h3.2v-3.1l-4.251-4.251 1.3-1.4 22.4 22.3-1.4 1.4-4.251-4.251h-10.6v-2.151q0-1.249 1.349-2.225t3.349-1.525zM31.751 28.551h-1l-6.4-6.3q2.6 0.149 5 1.3t2.4 2.849v2.151zM18.949 15.751q0-1.751 1.251-3.025t3-1.275 3 1.275 1.251 3.025-1.251 3-3 1.251-3-1.251-1.251-3z"></path>
</svg>
