<!-- Generated by IcoMoon.io -->
<svg version="1.1" xmlns="http://www.w3.org/2000/svg" width="40" height="40" viewBox="0 0 40 40">
<title>mt-phone_callback</title>
<path fill="#fff" d="M28.7 11.151l-6.751 6.7h4.449v1.1h-6.4v-6.4h1.049v4.551l6.9-6.7zM14.251 18.7q2.4 4.651 7.051 7.051l2.349-2.351q0.5-0.5 1.1-0.251 1.8 0.6 3.8 0.6 0.451 0 0.751 0.3t0.3 0.751v3.751q0 0.449-0.3 0.751t-0.751 0.3q-7.5 0-12.825-5.325t-5.325-12.825q0-0.451 0.3-0.751t0.751-0.3h3.751q0.449 0 0.751 0.3t0.3 0.751q0 2 0.6 3.8 0.2 0.649-0.251 1.1z"></path>
</svg>
