<!-- Generated by IcoMoon.io -->
<svg version="1.1" xmlns="http://www.w3.org/2000/svg" width="40" height="40" viewBox="0 0 40 40">
<title>mt-remove_shopping_cart</title>
<path fill="#fff" d="M14.651 26.4q0.849 0 1.5 0.651t0.651 1.5-0.651 1.475-1.5 0.625-1.475-0.625-0.625-1.475 0.625-1.5 1.475-0.651zM23.8 21.051l-9.6-9.6h14.351q0.449 0 0.751 0.325t0.3 0.775q0 0.051-0.151 0.5l-3.8 6.9q-0.6 1.1-1.849 1.1zM15.1 23.2h5.4l-2.151-2.149h-2.5l-0.949 1.751-0.051 0.149q0 0.251 0.251 0.251zM31.449 31.449l-1.349 1.351-3.051-3.051q-0.651 0.9-1.7 0.9-0.851 0-1.5-0.625t-0.651-1.475q0-1.1 0.9-1.751l-1.5-1.449h-7.951q-0.849 0-1.475-0.651t-0.625-1.5q0-0.5 0.251-1l1.449-2.649-2.349-4.951-4.7-4.7 1.351-1.351z"></path>
</svg>
