<!-- Generated by IcoMoon.io -->
<svg version="1.1" xmlns="http://www.w3.org/2000/svg" width="40" height="40" viewBox="0 0 40 40">
<title>mt-sports_tennis</title>
<path fill="#fff" d="M26.4 23.2q1.751 0 3 1.251t1.251 3-1.251 3.025-3 1.275-3-1.251-1.251-3.049q0-1.751 1.251-3t3-1.251zM26.4 25.351q-0.9 0-1.5 0.6-0.649 0.651-0.649 1.5t0.649 1.5 1.5 0.651q0.9 0 1.5-0.6 0.651-0.649 0.651-1.525t-0.651-1.525q-0.6-0.6-1.5-0.6zM18.2 19.651q1.251 1.249 3.375 0.925t3.825-2.025 2.025-3.825-0.925-3.375-3.349-0.9-3.8 2.049-2.051 3.8 0.9 3.349zM28 9.849q1.851 1.9 1.551 4.875t-2.651 5.325q-1.251 1.251-2.875 1.975t-2.975 0.725h-1.625t-0.851 0.025-0.925 0.125-0.825 0.251-0.875 0.425-0.751 0.625l-4.5 4.5-1.549-1.5 4.549-4.5q0.351-0.351 0.625-0.751t0.425-0.875 0.251-0.851 0.125-0.951 0.025-0.849v-1.625q0-1.3 0.725-2.925t1.975-2.875q2.351-2.349 5.325-2.7t4.825 1.551z"></path>
</svg>
