<!-- Generated by IcoMoon.io -->
<svg version="1.1" xmlns="http://www.w3.org/2000/svg" width="40" height="40" viewBox="0 0 40 40">
<title>mt-sports_handball</title>
<path fill="#fff" d="M20.8 11.251q-0.8-0.451-0.8-1.349 0-0.7 0.449-1.151t1.151-0.451q0.949 0 1.4 0.8t0 1.551q-0.349 0.549-1 0.751t-1.2-0.151zM24.1 18.3q2.3 1.9 2.725 4.725t-0.925 4.975l-1.849-1.1q0.7-1.251 0.7-2.649 0-1.6-1.051-3.149l-6.7 11.6-1.849-1.051 3.2-5.549-1.849-1.051-1.6 2.751-1.8-1.051 5.451-9.5q-1.651-1.8-1.951-4.251t0.951-4.651l1.849 1.1q-1.1 1.9-0.551 4.025t2.451 3.225zM22.4 13.6q0.451-0.751 1.325-1t1.625 0.2 0.975 1.325-0.225 1.625-1.3 0.975-1.6-0.225-1-1.3 0.2-1.6z"></path>
</svg>
