<!-- Generated by IcoMoon.io -->
<svg version="1.1" xmlns="http://www.w3.org/2000/svg" width="40" height="40" viewBox="0 0 40 40">
<title>mt-screen_lock_portrait</title>
<path fill="#fff" d="M25.351 27.449v-14.9h-10.7v14.9h10.7zM25.351 8.251q0.849 0 1.475 0.651t0.625 1.5v19.2q0 0.849-0.625 1.5t-1.475 0.649h-10.7q-0.851 0-1.475-0.649t-0.625-1.5v-19.2q0-0.851 0.625-1.5t1.475-0.651h10.7zM18.7 17.849v1.1h2.6v-1.1q0-0.5-0.375-0.875t-0.925-0.375-0.925 0.375-0.375 0.875zM17.849 24.251q-0.449 0-0.751-0.3t-0.3-0.751v-3.2q0-0.449 0.3-0.751t0.751-0.3v-1.1q0-0.9 0.625-1.5t1.525-0.6 1.525 0.6 0.625 1.5v1.1q0.451 0 0.751 0.3t0.3 0.751v3.2q0 0.451-0.3 0.751t-0.751 0.3h-4.3z"></path>
</svg>
