<!-- Generated by IcoMoon.io -->
<svg version="1.1" xmlns="http://www.w3.org/2000/svg" width="40" height="40" viewBox="0 0 40 40">
<title>mt-shopping_bag</title>
<path fill="#fff" d="M26.4 13.6h-2.149q0-1.2-0.575-2.149t-1.525-1.525-2.149-0.575-2.151 0.575-1.525 1.525-0.575 2.149h-2.151q-0.9 0-1.525 0.625t-0.625 1.525v12.8q0 0.849 0.625 1.475t1.525 0.625h12.8q0.9 0 1.525-0.625t0.625-1.475v-12.8q0-0.9-0.625-1.525t-1.525-0.625zM17.849 17.849q0 0.451-0.3 0.775t-0.751 0.325-0.751-0.325-0.3-0.775v-2.1h2.1v2.1zM20 11.451q0.9 0 1.525 0.625t0.625 1.525h-4.3q0-0.9 0.625-1.525t1.525-0.625zM24.251 17.849q0 0.451-0.3 0.775t-0.751 0.325-0.751-0.325-0.3-0.775v-2.1h2.1v2.1z"></path>
</svg>
