<!-- Generated by IcoMoon.io -->
<svg version="1.1" xmlns="http://www.w3.org/2000/svg" width="40" height="40" viewBox="0 0 40 40">
<title>mt-screen_search_desktop</title>
<path fill="#fff" d="M17.449 25.1h5.1v1.951h-5.1v-1.951zM28.551 26.4q0.849 0 1.475-0.625t0.625-1.525v-10.651q0-0.9-0.625-1.525t-1.475-0.625h-17.1q-0.851 0-1.475 0.625t-0.625 1.525v10.651q0 0.9 0.625 1.525t1.475 0.625h-4.251v2.151h25.6v-2.151h-4.251zM11.451 24.251v-10.651h17.1v10.7zM16.9 17.8q0-0.8 0.575-1.375t1.425-0.575q0.8 0 1.4 0.575t0.6 1.375q0 0.849-0.6 1.425t-1.4 0.575q-0.849 0-1.425-0.575t-0.575-1.425zM24.4 22.351l-2.649-2.651q0.551-0.849 0.551-1.9 0-0.951-0.451-1.725t-1.225-1.225-1.725-0.449-1.725 0.449-1.251 1.225-0.475 1.725 0.475 1.725 1.251 1.249 1.725 0.475q1 0 1.849-0.551l2.649 2.651zM7.2 7.2h25.6v25.6h-25.6v-25.6z"></path>
</svg>
