<!-- Generated by IcoMoon.io -->
<svg version="1.1" xmlns="http://www.w3.org/2000/svg" width="40" height="40" viewBox="0 0 40 40">
<title>mt-sports_rugby</title>
<path fill="#fff" d="M24.5 24.5q3.251-3.251 3.449-8.551-1.751 3.851-4.949 7.051t-7.051 4.949q5.251-0.149 8.551-3.449zM15.5 15.5q-3.251 3.251-3.449 8.551 0.751-1.6 2.2-3.675t2.751-3.375q3.2-3.2 7.051-4.949-5.251 0.149-8.551 3.449zM29.051 10.951q0.849 0.849 1.051 3.4t-0.775 5.975-3.275 5.725q-2.1 2.1-4.975 3.075t-5.675 0.975q-3.4 0-4.449-1.051-0.849-0.849-1.049-3.4t0.775-5.975 3.275-5.725q2.1-2.1 4.975-3.075t5.675-0.975q3.4 0 4.451 1.049z"></path>
</svg>
