<!-- Generated by IcoMoon.io -->
<svg version="1.1" xmlns="http://www.w3.org/2000/svg" width="40" height="40" viewBox="0 0 40 40">
<title>mt-stop_screen_share</title>
<path fill="#fff" d="M14.651 23.2q1.449-2 3.9-2.6l-1.7-1.7q-1.6 1.549-2.2 4.3zM9.751 9.049l21.051 21.051-1.351 1.349-2.9-2.9h-19.351v-2.149h4.251q-0.9 0-1.5-0.6t-0.6-1.5v-10.7q0-0.949 0.7-1.551l-1.649-1.651zM30.649 24.3q0 1.251-1.1 1.849l-5.9-5.9 1.7-1.6-4.3-3.951v2.251q-0.1 0.051-0.275 0.051t-0.275 0.051l-5.6-5.551h13.651q0.9 0 1.5 0.6t0.6 1.5v10.7zM29.851 26.4h2.949v2.151h-0.851z"></path>
</svg>
