<!-- Generated by IcoMoon.io -->
<svg version="1.1" xmlns="http://www.w3.org/2000/svg" width="40" height="40" viewBox="0 0 40 40">
<title>mt-slow_motion_video</title>
<path fill="#fff" d="M30.649 20q0 4.1-2.751 7.149t-6.8 3.451v-2.151q3.149-0.4 5.3-2.825t2.151-5.625-2.151-5.625-5.3-2.825v-2.149q4.049 0.4 6.8 3.451t2.751 7.149zM13.251 28.251l1.5-1.5q1.8 1.4 4.2 1.7v2.151q-1.349-0.151-3.025-0.851t-2.675-1.5zM11.549 21.051q0.251 2.349 1.7 4.151l-1.5 1.551q-2.049-2.551-2.349-5.7h2.149zM13.251 14.751q-1.4 1.849-1.7 4.2h-2.149q0.149-1.349 0.849-3.025t1.5-2.675zM18.949 11.549q-2.4 0.3-4.2 1.7l-1.5-1.5q2.551-2.049 5.7-2.349v2.149zM21.1 17.651l3.149 2.349q-3.149 2.351-6.4 4.8z"></path>
</svg>
