<!-- Generated by IcoMoon.io -->
<svg version="1.1" xmlns="http://www.w3.org/2000/svg" width="40" height="40" viewBox="0 0 40 40">
<title>mt-speaker</title>
<path fill="#fff" d="M20 20q1.3 0 2.251 0.949t0.949 2.251-0.949 2.251-2.251 0.949-2.251-0.949-0.949-2.251 0.949-2.251 2.251-0.949zM20 28.551q2.2 0 3.775-1.575t1.575-3.775-1.575-3.775-3.775-1.575-3.775 1.575-1.575 3.775 1.575 3.775 3.775 1.575zM20 11.451q-0.9 0-1.525 0.625t-0.625 1.525 0.625 1.525 1.525 0.625q0.851 0 1.5-0.651t0.649-1.5-0.649-1.5-1.5-0.649zM25.351 9.349q0.849 0 1.475 0.625t0.625 1.475v17.1q0 0.849-0.625 1.475t-1.475 0.625h-10.7q-0.851 0-1.475-0.625t-0.625-1.475v-17.1q0-0.851 0.625-1.475t1.475-0.625h10.7z"></path>
</svg>
