<!-- Generated by IcoMoon.io -->
<svg version="1.1" xmlns="http://www.w3.org/2000/svg" width="40" height="40" viewBox="0 0 40 40">
<title>mt-sports_cricket</title>
<path fill="#fff" d="M23.2 13.051q0-1.549 1.1-2.625t2.649-1.075 2.625 1.075 1.075 2.625-1.075 2.649-2.625 1.1-2.649-1.1-1.1-2.649zM22.5 26.149l1.5-1.5 4.551 4.5-1.551 1.5zM23.251 20.851q0.3 0.3 0.3 0.751t-0.3 0.751l-3 3.049q-0.3 0.3-0.751 0.3t-0.751-0.3l-9.1-9.049q-0.3-0.3-0.3-0.751t0.3-0.751l3.049-3.049q0.3-0.3 0.751-0.3t0.751 0.3z"></path>
</svg>
