<!-- Generated by IcoMoon.io -->
<svg version="1.1" xmlns="http://www.w3.org/2000/svg" width="40" height="40" viewBox="0 0 40 40">
<title>mt-speaker_phone</title>
<path fill="#fff" d="M23.2 28.551v-8.551h-6.4v8.551h6.4zM23.051 17.9q0.5 0 0.849 0.349t0.351 0.849v10.349q0 0.5-0.351 0.851t-0.849 0.349h-6.1q-0.5 0-0.849-0.349t-0.349-0.851v-10.349q0-0.5 0.349-0.875t0.849-0.375zM20 8.251q2 0 4.4 1t3.851 2.451l-1.5 1.5q-2.8-2.8-6.751-2.8t-6.751 2.8l-1.5-1.5q3.449-3.451 8.251-3.451zM14.651 14.751q2.2-2.2 5.349-2.2t5.351 2.2l-1.551 1.5q-1.551-1.551-3.8-1.551t-3.8 1.551z"></path>
</svg>
