<!-- Generated by IcoMoon.io -->
<svg version="1.1" xmlns="http://www.w3.org/2000/svg" width="40" height="40" viewBox="0 0 40 40">
<title>mt-shopping_basket</title>
<path fill="#fff" d="M20 25.351q0.851 0 1.5-0.651t0.649-1.5-0.649-1.5-1.5-0.649-1.5 0.649-0.651 1.5 0.651 1.5 1.5 0.651zM16.8 16.8h6.4l-3.2-4.7zM25.551 16.8h5.1q0.451 0 0.775 0.3t0.325 0.751q-0.5 2-1.5 5.625t-1.251 4.575q-0.449 1.551-2.049 1.551h-13.9q-1.6 0-2.049-1.551l-2.7-9.9q-0.051-0.1-0.051-0.3 0-0.449 0.325-0.751t0.775-0.3h5.1l4.651-7q0.3-0.451 0.9-0.451 0.651 0 0.9 0.451z"></path>
</svg>
