<!-- Generated by IcoMoon.io -->
<svg version="1.1" xmlns="http://www.w3.org/2000/svg" width="40" height="40" viewBox="0 0 40 40">
<title>mt-streetview</title>
<path fill="#fff" d="M19.449 13.6q0 1.2 0.6 2.625t1.449 2.275l-10.449 10.449q-0.649-0.649-0.649-1.5v-14.9q0-0.851 0.649-1.5t1.5-0.651h7.7q-0.8 1.5-0.8 3.2zM21.051 13.6q0-2.2 1.575-3.775t3.775-1.575 3.775 1.575 1.575 3.775-1.575 3.775-3.775 1.575-3.775-1.575-1.575-3.775zM20.6 22.5q2.6-1.949 5.8-1.949 1.651 0 3.2 0.549v6.351q0 0.849-0.651 1.5t-1.5 0.651h-7.449v-5.851q0-0.751 0.6-1.251z"></path>
</svg>
