<!-- Generated by IcoMoon.io -->
<svg version="1.1" xmlns="http://www.w3.org/2000/svg" width="40" height="40" viewBox="0 0 40 40">
<title>mt-switch_account</title>
<path fill="#fff" d="M28.551 24.251v-1.6q0-1.4-2.2-2.3t-4.2-0.9-4.2 0.9-2.2 2.3v1.6h12.8zM22.149 11.451q-1.3 0-2.251 0.951t-0.951 2.251 0.951 2.251 2.251 0.949 2.251-0.949 0.951-2.251-0.951-2.251-2.251-0.951zM28.551 9.349q0.849 0 1.475 0.625t0.625 1.475v12.8q0 0.851-0.625 1.5t-1.475 0.649h-12.8q-0.849 0-1.5-0.649t-0.651-1.5v-12.8q0-0.851 0.651-1.475t1.5-0.625h12.8zM11.451 13.6v14.949h14.949v2.1h-14.949q-0.851 0-1.475-0.625t-0.625-1.475v-14.949h2.1z"></path>
</svg>
