<!-- Generated by IcoMoon.io -->
<svg version="1.1" xmlns="http://www.w3.org/2000/svg" width="40" height="40" viewBox="0 0 40 40">
<title>mt-thumb_up_off_alt</title>
<path fill="#fff" d="M11.451 16.8q0.451 0 0.775 0.3t0.325 0.751v9.6q0 0.449-0.325 0.775t-0.775 0.325h-2.1v-11.751h2.1zM22.149 9.349l0.451 0.5q0.6 0.6 0.949 1.3 0.149 0.349 0.1 0.7l-1 4.951h5.9q0.849 0 1.475 0.649t0.625 1.5v1.151q0 0.451-0.149 0.851l-2.851 6.551q-0.649 1.049-1.849 1.049h-8.651q-1.049 0-1.775-0.725t-0.725-1.775v-8.349q0-0.9 0.651-1.551zM21.2 13.3l-4.4 4.351v8.4q0 0.349 0.349 0.349h8.649l2.751-6.3v-1.151h-5.9q-0.951 0-1.625-0.775t-0.425-1.775z"></path>
</svg>
