<!-- Generated by IcoMoon.io -->
<svg version="1.1" xmlns="http://www.w3.org/2000/svg" width="40" height="40" viewBox="0 0 40 40">
<title>mt-table_view</title>
<path fill="#fff" d="M27.449 14.651h-10.649q-0.9 0-1.525 0.625t-0.625 1.525v10.651q0 0.9 0.625 1.525t1.525 0.625h10.649q0.9 0 1.525-0.625t0.625-1.525v-10.651q0-0.9-0.625-1.525t-1.525-0.625zM27.449 16.8v2.149h-10.649v-2.149h10.649zM21.051 23.2v-2.149h2.149v2.149h-2.149zM23.2 25.351v2.1h-2.149v-2.1h2.149zM18.949 23.2h-2.149v-2.149h2.149v2.149zM25.351 21.051h2.1v2.149h-2.1v-2.149zM16.8 25.351h2.149v2.1h-2.149v-2.1zM25.351 27.449v-2.1h2.1v2.1h-2.1zM13.6 25.351h-1.049q-0.9 0-1.525-0.625t-0.625-1.525v-10.651q0-0.9 0.625-1.525t1.525-0.625h10.649q0.9 0 1.525 0.625t0.625 1.525v1.051h-2.151v-1.051h-10.649v10.651h1.049v2.151z"></path>
</svg>
