<!-- Generated by IcoMoon.io -->
<svg version="1.1" xmlns="http://www.w3.org/2000/svg" width="40" height="40" viewBox="0 0 40 40">
<title>mt-unpublished</title>
<path fill="#fff" d="M29.8 29.8l-19.6-19.6-1.5 1.5 2.4 2.4q-0.849 1.3-1.3 2.775t-0.451 3.125q0 2.2 0.825 4.125t2.3 3.4 3.4 2.3 4.125 0.825q1.649 0 3.125-0.449t2.775-1.3l2.4 2.4zM18.5 24.9l-4.551-4.5 1.551-1.5 3 3 0.2-0.2 1.5 1.5zM21.7 18.7l-7.6-7.6q1.3-0.849 2.775-1.3t3.125-0.451q2.2 0 4.125 0.825t3.4 2.3 2.3 3.4 0.825 4.125q0 1.649-0.449 3.125t-1.3 2.775l-5.7-5.7 2.851-2.849-1.551-1.5z"></path>
</svg>
