<!-- Generated by IcoMoon.io -->
<svg version="1.1" xmlns="http://www.w3.org/2000/svg" width="40" height="40" viewBox="0 0 40 40">
<title>mt-untitled</title>
<path fill="#fff" d="M20 14.651q4.4 0 7.525 1.575t3.125 3.775q0 1.649-1.775 2.975t-4.625 1.925v-2.2q1.949-0.5 3.125-1.275t1.175-1.425q0-0.6-1-1.325t-3.051-1.3-4.5-0.575-4.5 0.575-3.051 1.3-1 1.325q0 0.751 1.5 1.625t3.851 1.275v-2.9l4.249 4.251-4.251 4.3v-3.449q-3.3-0.549-5.375-1.925t-2.075-3.175q0-2.2 3.125-3.775t7.525-1.575z"></path>
</svg>
