<!-- Generated by IcoMoon.io -->
<svg version="1.1" xmlns="http://www.w3.org/2000/svg" width="40" height="40" viewBox="0 0 40 40">
<title>mt-volunteer_activism</title>
<path fill="#fff" d="M28.551 25.351q0.9 0 1.525 0.625t0.625 1.475l-8.549 3.2-7.5-2.1v-9.6h2.1l7.751 2.851q0.851 0.349 0.851 1.2 0 0.5-0.375 0.875t-0.925 0.375h-3l-1.851-0.7-0.349 1 2.2 0.8h7.5zM24.251 10.651q1.149-1.3 2.9-1.3 1.451 0 2.475 1.025t1.025 2.475q0 1.1-1.049 2.625t-2.1 2.549-3.251 3.025q-2.2-2-3.251-3.025t-2.1-2.549-1.049-2.625q0-1.451 1.049-2.475t2.5-1.025q1.7 0 2.851 1.3zM8.251 18.949h4.3v11.7h-4.3v-11.7z"></path>
</svg>
