<!-- Generated by IcoMoon.io -->
<svg version="1.1" xmlns="http://www.w3.org/2000/svg" width="40" height="40" viewBox="0 0 40 40">
<title>mt-view_comfy</title>
<path fill="#fff" d="M26.4 12.551h4.251v4.251h-4.251v-4.251zM26.4 27.449v-4.251h4.251v4.251h-4.251zM21.051 27.449v-4.251h4.3v4.251h-4.3zM15.751 27.449v-4.251h4.251v4.251h-4.251zM10.4 27.449v-4.251h4.251v4.251h-4.251zM26.4 22.149v-4.3h4.251v4.3h-4.251zM21.051 12.551h4.3v4.251h-4.3v-4.251zM15.751 16.8v-4.251h4.251v4.251h-4.251zM21.051 22.149v-4.3h4.3v4.3h-4.3zM15.751 22.149v-4.3h4.251v4.3h-4.251zM10.4 22.149v-4.3h4.251v4.3h-4.251zM10.4 16.8v-4.251h4.251v4.251h-4.251z"></path>
</svg>
