<!-- Generated by IcoMoon.io -->
<svg version="1.1" xmlns="http://www.w3.org/2000/svg" width="40" height="40" viewBox="0 0 40 40">
<title>mt-video_settings</title>
<path fill="#fff" d="M10.4 13.6h19.2v5.349h2.149v-5.349q0-0.9-0.625-1.525t-1.525-0.625h-19.2q-0.9 0-1.525 0.625t-0.625 1.525v12.8q0 0.9 0.625 1.525t1.525 0.625h9.6v-2.151h-9.6v-12.8zM23.2 20l-6.4-4.251v8.5zM31.4 26.851q0.1-0.5 0.051-0.9l1.151-0.9q0.149-0.149 0.049-0.351l-1.1-1.9q-0.1-0.2-0.349-0.149l-1.351 0.551q-0.351-0.251-0.8-0.451l-0.2-1.451q-0.051-0.251-0.3-0.251h-2.2q-0.2 0-0.251 0.251l-0.2 1.451q-0.251 0.1-0.449 0.2t-0.351 0.251l-1.4-0.551q-0.2-0.1-0.3 0.1l-1.1 1.951q-0.1 0.2 0.051 0.3l1.149 0.951q-0.049 0.5 0 0.9l-1.149 0.9q-0.2 0.149-0.051 0.349l1.1 1.9q0.1 0.2 0.3 0.149l1.351-0.549q0.4 0.251 0.8 0.449l0.251 1.449q0 0.2 0.251 0.2h2.2q0.251 0 0.251-0.2l0.251-1.449 0.4-0.2t0.349-0.251l1.4 0.549q0.2 0.051 0.3-0.149l1.1-1.9q0.149-0.2-0.051-0.349zM27.449 28q-0.649 0-1.125-0.475t-0.475-1.125 0.475-1.125 1.125-0.475q0.7 0 1.151 0.475t0.449 1.125-0.449 1.125-1.151 0.475z"></path>
</svg>
