<!-- Generated by IcoMoon.io -->
<svg version="1.1" xmlns="http://www.w3.org/2000/svg" width="40" height="40" viewBox="0 0 40 40">
<title>mt-workspaces_outline</title>
<path fill="#fff" d="M26.4 21.051q1.751 0 3 1.275t1.251 3.025-1.251 3-3 1.251-3-1.251-1.251-3 1.251-3.025 3-1.275zM26.4 23.2q-0.849 0-1.5 0.651t-0.649 1.5 0.649 1.475 1.5 0.625 1.5-0.625 0.651-1.475-0.651-1.5-1.5-0.651zM20 10.4q1.751 0 3 1.251t1.251 3-1.251 3.025-3 1.275-3-1.275-1.251-3.025 1.251-3 3-1.251zM20 12.551q-0.849 0-1.5 0.625t-0.651 1.475 0.651 1.5 1.5 0.651 1.5-0.651 0.649-1.5-0.649-1.475-1.5-0.625zM13.6 21.051q1.751 0 3 1.275t1.251 3.025-1.251 3-3 1.251-3-1.251-1.251-3 1.251-3.025 3-1.275zM13.6 23.2q-0.849 0-1.5 0.651t-0.649 1.5 0.649 1.475 1.5 0.625 1.5-0.625 0.651-1.475-0.651-1.5-1.5-0.651z"></path>
</svg>
