<!-- Generated by IcoMoon.io -->
<svg version="1.1" xmlns="http://www.w3.org/2000/svg" width="40" height="40" viewBox="0 0 40 40">
<title>mt-youtube_searched_for</title>
<path fill="#fff" d="M25.351 22.149l5.3 5.3-1.549 1.6-5.351-5.349v-0.8l-0.3-0.3q-0.8 0.649-2.125 1.149t-2.375 0.5q-2 0-3.549-0.949l1.6-1.551q1 0.4 1.951 0.4 2 0 3.4-1.4t1.4-3.4-1.4-3.4-3.4-1.4-3.4 1.4-1.4 3.4h3.7l-4.4 4.251-4.1-4.251h2.649q0-2.849 2.049-4.9t4.9-2.049q2.9 0 4.925 2.025t2.025 4.925q0 1.049-0.5 2.375t-1.2 2.125l0.3 0.3h0.851z"></path>
</svg>
