<!-- Generated by IcoMoon.io -->
<svg version="1.1" xmlns="http://www.w3.org/2000/svg" width="24" height="24" viewBox="0 0 24 24">
<title>multiple_stop</title>
<path fill="#fff" d="M16.013 5.588l3.188 3.225-3.188 3.188v-2.4h-3.225v-1.613h3.225v-2.4zM10.387 7.988q-0.3 0-0.544 0.244t-0.244 0.581q0 0.3 0.244 0.544t0.544 0.244q0.338 0 0.581-0.244t0.244-0.544q0-0.337-0.244-0.581t-0.581-0.244zM7.2 7.988q-0.337 0-0.563 0.244t-0.225 0.581q0 0.3 0.225 0.544t0.563 0.244 0.563-0.244 0.225-0.544q0-0.337-0.225-0.581t-0.563-0.244zM7.988 16.013h3.225v-1.613h-3.225v-2.4l-3.188 3.188 3.188 3.225v-2.4zM13.612 16.013q0.3 0 0.544-0.244t0.244-0.581q0-0.3-0.244-0.544t-0.544-0.244q-0.338 0-0.581 0.244t-0.244 0.544q0 0.337 0.244 0.581t0.581 0.244zM16.8 16.013q0.338 0 0.563-0.244t0.225-0.581q0-0.3-0.225-0.544t-0.563-0.244-0.563 0.244-0.225 0.544q0 0.337 0.225 0.581t0.563 0.244z"></path>
</svg>
