<!-- Generated by IcoMoon.io -->
<svg version="1.1" xmlns="http://www.w3.org/2000/svg" width="24" height="24" viewBox="0 0 24 24">
<title>no_photography</title>
<path fill="#fff" d="M11.137 8.887l-2.738-2.775 1.2-1.313h4.8l1.463 1.613h2.55q0.637 0 1.106 0.469t0.469 1.106v9.75l-4.087-4.087q0.113-0.412 0.113-0.862 0-1.088-0.544-2.006t-1.462-1.444-2.006-0.525q-0.412 0-0.862 0.075zM18.788 21.038l-1.837-1.837h-11.363q-0.637 0-1.106-0.469t-0.469-1.144v-9.6q0-0.337 0.15-0.656t0.375-0.506l-1.575-1.613 1.125-1.125 15.825 15.825zM13.987 16.237l-1.2-1.2q-0.188 0.075-0.375 0.112t-0.413 0.037q-0.675 0-1.219-0.319t-0.862-0.862-0.319-1.219q0-0.188 0.038-0.394t0.112-0.394l-1.2-1.2q-0.563 0.938-0.563 1.987 0 1.125 0.544 2.025t1.463 1.444 2.006 0.544q0.563 0 1.050-0.15t0.938-0.413z"></path>
</svg>
