<!-- Generated by IcoMoon.io -->
<svg version="1.1" xmlns="http://www.w3.org/2000/svg" width="24" height="24" viewBox="0 0 24 24">
<title>no_transfer</title>
<path fill="#fff" d="M19.35 19.35l-14.7-14.7-1.125 1.125 2.063 2.1v7.313q0 0.525 0.225 0.994t0.6 0.806v1.425q0 0.3 0.225 0.544t0.563 0.244h0.788q0.337 0 0.581-0.244t0.244-0.544v-0.825h6.375v0.825q0 0.3 0.244 0.544t0.581 0.244h0.844t0.056-0.038l1.313 1.313zM8.4 16.013q-0.487 0-0.844-0.356t-0.356-0.844q0-0.525 0.356-0.862t0.844-0.338 0.844 0.338 0.356 0.862q0 0.487-0.356 0.844t-0.844 0.356zM7.2 11.212v-1.762l1.725 1.762h-1.725zM9.45 7.2l-2.438-2.438q0.9-0.487 2.194-0.619t2.794-0.131q1.313 0 2.475 0.113t2.044 0.431 1.388 0.956 0.506 1.688v7.988q0 0.225-0.056 0.413t-0.094 0.375l-4.8-4.763h3.337v-4.012h-7.35z"></path>
</svg>
