<!-- Generated by IcoMoon.io -->
<svg version="1.1" xmlns="http://www.w3.org/2000/svg" width="24" height="24" viewBox="0 0 24 24">
<title>notifications_off</title>
<path fill="#fff" d="M16.8 14.138l-7.162-7.538q0.112-0.038 0.3-0.131l0.263-0.131h0.037l0.225-0.112q0.038 0 0.15-0.038t0.188-0.037v-0.563q0-0.488 0.338-0.844t0.862-0.356 0.863 0.356 0.338 0.844v0.563q1.688 0.412 2.644 1.8t0.956 3.263v2.925zM12 19.987q-0.675 0-1.144-0.45t-0.469-1.125h3.225q0 0.675-0.469 1.125t-1.144 0.45zM8.663 7.313q0.9 0.938 4.706 4.837t5.831 6.038l-1.013 1.013-1.612-1.613h-10.988v-0.788l1.613-1.612v-4.013q0-1.537 0.637-2.737l-2.25-2.213 1.013-1.050z"></path>
</svg>
