<!-- Generated by IcoMoon.io -->
<svg version="1.1" xmlns="http://www.w3.org/2000/svg" width="24" height="24" viewBox="0 0 24 24">
<title>outgoing_mail</title>
<path fill="#fff" d="M17.212 11.212h0.375v-3.3q0-0.638-0.431-1.069t-1.069-0.431h-10.575q-0.637 0-1.069 0.431t-0.431 1.069v8.175q0 0.638 0.431 1.069t1.069 0.431h7.762q-0.225-0.45-0.356-0.956t-0.131-1.031q0-1.2 0.6-2.213t1.594-1.594 2.231-0.581zM10.725 12.788l-5.138-3.038v-1.762h0.188l4.95 2.963 5.063-2.962h0.225v1.725zM17.587 12.788l-1.125 1.125 1.275 1.275h-3.337v1.612h3.337l-1.275 1.275 1.125 1.125 3.225-3.188z"></path>
</svg>
