<!-- Generated by IcoMoon.io -->
<svg version="1.1" xmlns="http://www.w3.org/2000/svg" width="24" height="24" viewBox="0 0 24 24">
<title>pages</title>
<path fill="#fff" d="M17.587 4.8q0.638 0 1.125 0.487t0.488 1.125v4.8h-4.012l0.825-3.225-3.225 0.825v-4.013h4.8zM16.013 16.013l-0.825-3.225h4.013v4.8q0 0.637-0.488 1.125t-1.125 0.488h-4.8v-4.013zM8.813 12.788l-0.825 3.225 3.225-0.825v4.013h-4.8q-0.638 0-1.125-0.488t-0.488-1.125v-4.8h4.012zM4.8 6.413q0-0.638 0.487-1.125t1.125-0.487h4.8v4.012l-3.225-0.825 0.825 3.225h-4.013v-4.8z"></path>
</svg>
