<!-- Generated by IcoMoon.io -->
<svg version="1.1" xmlns="http://www.w3.org/2000/svg" width="24" height="24" viewBox="0 0 24 24">
<title>panorama_vertical</title>
<path fill="#fff" d="M7.65 18.413h8.7q-0.9-3.113-0.9-6.413t0.9-6.413h-8.7q0.9 3.075 0.9 6.413 0 3.3-0.9 6.413zM18.337 19.313q0.075 0.15 0.075 0.225 0 0.45-0.525 0.45h-11.775q-0.525 0-0.525-0.45 0-0.075 0.075-0.225 1.312-3.6 1.312-7.313t-1.313-7.313q-0.075-0.15-0.075-0.225 0-0.45 0.525-0.45h11.775q0.525 0 0.525 0.45 0 0.075-0.075 0.225-1.313 3.6-1.313 7.313t1.313 7.313z"></path>
</svg>
