<!-- Generated by IcoMoon.io -->
<svg version="1.1" xmlns="http://www.w3.org/2000/svg" width="24" height="24" viewBox="0 0 24 24">
<title>pending_actions</title>
<path fill="#fff" d="M16.013 12q-1.125 0-2.025 0.544t-1.444 1.444-0.544 2.025q0 1.087 0.544 2.006t1.444 1.444 2.025 0.525q1.087 0 2.006-0.525t1.444-1.444 0.525-2.006q0-1.125-0.525-2.025t-1.444-1.444-2.006-0.544zM17.325 17.888l-1.725-1.725v-2.55h0.788v2.213l1.5 1.5zM16.8 4.8h-2.55q-0.263-0.713-0.862-1.163t-1.388-0.45-1.387 0.45-0.863 1.163h-2.55q-0.675 0-1.144 0.469t-0.469 1.144v12q0 0.637 0.469 1.106t1.144 0.469h4.875q-0.713-0.675-1.125-1.575h-3.75v-12h1.613v2.4h6.375v-2.4h1.612v4.050q0.825 0.113 1.613 0.488v-4.538q0-0.675-0.469-1.144t-1.144-0.469zM12 6.413q-0.337 0-0.563-0.244t-0.225-0.581q0-0.3 0.225-0.544t0.563-0.244 0.563 0.244 0.225 0.544q0 0.338-0.225 0.581t-0.563 0.244z"></path>
</svg>
