<!-- Generated by IcoMoon.io -->
<svg version="1.1" xmlns="http://www.w3.org/2000/svg" width="24" height="24" viewBox="0 0 24 24">
<title>person_pin_circle</title>
<path fill="#fff" d="M12 13.612q0.825 0 1.763-0.506t1.425-1.219q0-0.713-1.106-1.181t-2.081-0.469-2.081 0.469-1.106 1.181q1.125 1.725 3.188 1.725zM12 5.588q-0.675 0-1.144 0.469t-0.469 1.144 0.469 1.144 1.144 0.469 1.144-0.469 0.469-1.144-0.469-1.144-1.144-0.469zM12 4.012q2.325 0 3.956 1.631t1.631 3.956q0 1.162-0.581 2.662t-1.406 2.813-1.631 2.456-1.369 1.819l-0.6 0.637q-0.225-0.262-0.6-0.694t-1.35-1.725-1.706-2.513-1.331-2.756-0.6-2.7q0-2.325 1.631-3.956t3.956-1.631z"></path>
</svg>
