<!-- Generated by IcoMoon.io -->
<svg version="1.1" xmlns="http://www.w3.org/2000/svg" width="24" height="24" viewBox="0 0 24 24">
<title>phonelink_erase</title>
<path fill="#fff" d="M17.587 3.188q0.638 0 1.125 0.488t0.488 1.125v14.4q0 0.637-0.488 1.125t-1.125 0.487h-7.987q-0.638 0-1.125-0.487t-0.488-1.125v-2.4h1.613v1.613h7.987v-12.825h-7.987v1.612h-1.613v-2.4q0-0.638 0.488-1.125t1.125-0.488h7.987zM12.788 8.962l-3.188 3.188 3.188 3.225-0.788 0.788-3.188-3.188-3.225 3.188-0.787-0.788 3.188-3.225-3.188-3.188 0.787-0.787 3.225 3.188 3.188-3.188z"></path>
</svg>
