<!-- Generated by IcoMoon.io -->
<svg version="1.1" xmlns="http://www.w3.org/2000/svg" width="24" height="24" viewBox="0 0 24 24">
<title>photo_camera_front</title>
<path fill="#fff" d="M16.8 10.8l3.188-3.188v8.775l-3.188-3.188v3.6q0 0.675-0.469 1.144t-1.144 0.469h-9.6q-0.638 0-1.106-0.469t-0.469-1.144v-9.6q0-0.675 0.469-1.144t1.106-0.469h9.6q0.675 0 1.144 0.469t0.469 1.144v3.6zM15.188 10.163v-2.963h-9.6v9.6h9.6v-6.637zM10.387 12q-0.637 0-1.106-0.469t-0.469-1.144q0-0.637 0.469-1.106t1.106-0.469q0.675 0 1.144 0.469t0.469 1.106q0 0.675-0.469 1.144t-1.144 0.469zM10.387 12.788q0.413 0 0.956 0.112t1.050 0.3 0.862 0.487 0.356 0.713v0.787h-6.413v-0.787q0-0.412 0.337-0.713t0.863-0.487 1.069-0.3 0.919-0.112z"></path>
</svg>
