<!-- Generated by IcoMoon.io -->
<svg version="1.1" xmlns="http://www.w3.org/2000/svg" width="24" height="24" viewBox="0 0 24 24">
<title>pivot_table_chart</title>
<path fill="#fff" d="M13.612 12.788l3.187-3.188 3.188 3.188h-2.4v1.275q0 1.462-1.031 2.494t-2.494 1.031h-1.275v2.4l-3.188-3.188 3.188-3.187v2.4h1.275q0.788 0 1.369-0.563t0.581-1.388v-1.275h-2.4zM6.413 19.2q-0.638 0-1.125-0.488t-0.487-1.125v-7.2h4.012v8.813h-2.4zM4.8 8.813v-2.4q0-0.638 0.487-1.125t1.125-0.487h2.4v4.012h-4.012zM10.387 8.813v-4.012h7.2q0.638 0 1.125 0.487t0.488 1.125v2.4h-8.813z"></path>
</svg>
