<!-- Generated by IcoMoon.io -->
<svg version="1.1" xmlns="http://www.w3.org/2000/svg" width="24" height="24" viewBox="0 0 24 24">
<title>portable_wifi_off</title>
<path fill="#fff" d="M5.025 4.387l0.787 0.825 13.388 13.388-1.013 1.012-6-6.037h-0.038l-0.15 0.037q-0.637 0-1.125-0.487t-0.488-1.125l0.038-0.15-1.275-1.275q-0.337 0.675-0.337 1.425 0 1.837 1.575 2.775l-0.787 1.387q-1.088-0.637-1.744-1.744t-0.656-2.419q0-1.425 0.75-2.588l-1.125-1.162q-1.238 1.725-1.238 3.75 0 1.725 0.863 3.206t2.325 2.344l-0.787 1.388q-1.838-1.050-2.906-2.906t-1.069-4.031q0-2.775 1.65-4.913l-1.65-1.688zM12 5.588q-1.613 0-3 0.75l-1.163-1.162q1.875-1.163 4.163-1.163 3.3 0 5.644 2.344t2.344 5.644q0 2.25-1.162 4.163l-1.2-1.163q0.788-1.462 0.788-3 0-2.625-1.894-4.519t-4.519-1.894zM16.462 13.8l-1.313-1.313q0.038-0.15 0.038-0.488 0-1.313-0.938-2.25t-2.25-0.938q-0.337 0-0.488 0.038l-1.313-1.313q0.825-0.338 1.8-0.338 1.987 0 3.394 1.406t1.406 3.394q0 0.975-0.337 1.8z"></path>
</svg>
