<!-- Generated by IcoMoon.io -->
<svg version="1.1" xmlns="http://www.w3.org/2000/svg" width="24" height="24" viewBox="0 0 24 24">
<title>published_with_changes</title>
<path fill="#fff" d="M16.538 10.012l-5.663 5.662-3.413-3.375 1.163-1.125 2.25 2.25 4.538-4.537zM5.588 12q0-1.387 0.581-2.606t1.519-2.081l1.913 1.875v-4.8h-4.8l1.762 1.763q-1.162 1.087-1.856 2.606t-0.694 3.244q0 1.575 0.544 2.944t1.519 2.438 2.287 1.744 2.85 0.825v-1.613q-1.2-0.15-2.212-0.694t-1.781-1.406-1.2-1.931-0.431-2.306zM19.987 12q0-1.575-0.544-2.944t-1.519-2.437-2.287-1.744-2.85-0.825v1.613q1.2 0.15 2.212 0.694t1.781 1.406 1.2 1.931 0.431 2.306q0 1.388-0.581 2.606t-1.519 2.081l-1.913-1.875v4.8h4.8l-1.763-1.762q1.163-1.087 1.856-2.606t0.694-3.244z"></path>
</svg>
