<!-- Generated by IcoMoon.io -->
<svg version="1.1" xmlns="http://www.w3.org/2000/svg" width="24" height="24" viewBox="0 0 24 24">
<title>public_off</title>
<path fill="#fff" d="M11.212 8.925l-3.637-3.6q0.975-0.637 2.081-0.975t2.344-0.338q1.65 0 3.094 0.619t2.55 1.725 1.725 2.55 0.619 3.094q0 1.237-0.337 2.344t-0.975 2.081l-1.162-1.2q0.412-0.675 0.656-1.5t0.244-1.725q0-1.35-0.525-2.512t-1.425-2.044-2.063-1.369v0.337q0 0.637-0.469 1.106t-1.144 0.469h-1.575v0.938zM19.35 19.35l-1.125 1.125-1.8-1.8q-0.975 0.638-2.081 0.975t-2.344 0.337q-1.65 0-3.094-0.619t-2.55-1.725-1.725-2.55-0.619-3.094q0-1.238 0.337-2.344t0.975-2.081l-1.8-1.8 1.125-1.125zM11.212 16.8q-0.675 0-1.144-0.469t-0.469-1.144v-0.788l-3.825-3.825q-0.075 0.338-0.131 0.694t-0.056 0.731q0 1.65 0.75 3t2.025 2.25 2.85 1.087v-1.538z"></path>
</svg>
