<!-- Generated by IcoMoon.io -->
<svg version="1.1" xmlns="http://www.w3.org/2000/svg" width="24" height="24" viewBox="0 0 24 24">
<title>radio_button_on</title>
<path fill="#fff" d="M12 18.413q2.625 0 4.519-1.894t1.894-4.519-1.894-4.519-4.519-1.894-4.519 1.894-1.894 4.519 1.894 4.519 4.519 1.894zM12 4.012q3.3 0 5.644 2.344t2.344 5.644-2.344 5.644-5.644 2.344-5.644-2.344-2.344-5.644 2.344-5.644 5.644-2.344zM12 7.988q1.65 0 2.831 1.181t1.181 2.831-1.181 2.831-2.831 1.181-2.831-1.181-1.181-2.831 1.181-2.831 2.831-1.181z"></path>
</svg>
