<!-- Generated by IcoMoon.io -->
<svg version="1.1" xmlns="http://www.w3.org/2000/svg" width="24" height="24" viewBox="0 0 24 24">
<title>record_voice_over</title>
<path fill="#fff" d="M18.45 4.012q2.325 2.438 2.325 5.644t-2.325 5.531l-1.313-1.275q1.65-1.913 1.65-4.369t-1.65-4.256zM15.825 6.675q1.2 1.313 1.2 2.963t-1.2 2.85l-1.35-1.35q0.525-0.713 0.525-1.556t-0.525-1.556zM9.6 14.4q2.025 0 4.219 0.881t2.194 2.306v1.613h-12.825v-1.613q0-1.425 2.194-2.306t4.219-0.881zM6.413 9.6q0-1.313 0.938-2.25t2.25-0.938 2.25 0.938 0.938 2.25-0.938 2.25-2.25 0.938-2.25-0.938-0.938-2.25z"></path>
</svg>
