<!-- Generated by IcoMoon.io -->
<svg version="1.1" xmlns="http://www.w3.org/2000/svg" width="24" height="24" viewBox="0 0 24 24">
<title>reduce_capacity</title>
<path fill="#fff" d="M15.188 5.588q0-0.638 0.469-1.106t1.144-0.469 1.144 0.469 0.469 1.106q0 0.675-0.469 1.144t-1.144 0.469-1.144-0.469-0.469-1.144zM19.013 8.475q-0.488-0.225-1.050-0.356t-1.163-0.131q-0.787 0-1.537 0.225 0.75 0.713 0.75 1.725v0.45h3.975v-0.45q0-0.488-0.262-0.881t-0.712-0.581zM7.2 7.2q0.675 0 1.144-0.469t0.469-1.144q0-0.638-0.469-1.106t-1.144-0.469-1.144 0.469-0.469 1.106q0 0.675 0.469 1.144t1.144 0.469zM8.738 8.212q-0.75-0.225-1.537-0.225-0.6 0-1.163 0.131t-1.050 0.356q-0.45 0.188-0.713 0.581t-0.263 0.881v0.45h3.975v-0.45q0-1.012 0.75-1.725zM10.387 5.588q0-0.638 0.469-1.106t1.144-0.469 1.144 0.469 0.469 1.106q0 0.675-0.469 1.144t-1.144 0.469-1.144-0.469-0.469-1.144zM15.188 10.387h-6.375v-0.45q0-0.488 0.262-0.881t0.713-0.581q0.487-0.225 1.050-0.356t1.163-0.131 1.163 0.131 1.050 0.356q0.45 0.188 0.713 0.581t0.263 0.881v0.45zM14.4 15.188q0-0.638 0.469-1.106t1.144-0.469q0.637 0 1.106 0.469t0.469 1.106q0 0.675-0.469 1.144t-1.106 0.469q-0.675 0-1.144-0.469t-0.469-1.144zM19.2 19.987h-6.413v-0.45q0-0.488 0.281-0.881t0.694-0.581q0.525-0.225 1.088-0.356t1.163-0.131 1.144 0.131 1.069 0.356q0.45 0.188 0.712 0.581t0.263 0.881v0.45zM6.413 15.188q0-0.638 0.469-1.106t1.106-0.469q0.675 0 1.144 0.469t0.469 1.106q0 0.675-0.469 1.144t-1.144 0.469q-0.638 0-1.106-0.469t-0.469-1.144zM11.212 19.987h-6.412v-0.45q0-0.488 0.262-0.881t0.713-0.581q0.525-0.225 1.069-0.356t1.144-0.131 1.162 0.131 1.088 0.356q0.412 0.188 0.694 0.581t0.281 0.881v0.45zM12.6 12.788v-1.575h-1.2v1.575h-1.8l2.4 2.4 2.4-2.4h-1.8z"></path>
</svg>
