<!-- Generated by IcoMoon.io -->
<svg version="1.1" xmlns="http://www.w3.org/2000/svg" width="24" height="24" viewBox="0 0 24 24">
<title>restore_page</title>
<path fill="#fff" d="M12 16.8q1.65 0 2.831-1.181t1.181-2.831-1.181-2.813-2.831-1.163q-2.175 0-3.375 1.837l-1.012-1.050v3.187h3.188l-1.275-1.275q0.3-0.6 1.031-1.050t1.444-0.45q1.163 0 1.987 0.806t0.825 1.969-0.825 1.987-1.988 0.825q-1.462 0-2.287-1.2h-1.387q0.45 1.088 1.444 1.744t2.231 0.656zM13.612 4.012l4.8 4.8v9.6q0 0.637-0.488 1.106t-1.125 0.469h-9.6q-0.638 0-1.125-0.469t-0.487-1.106l0.037-12.825q0-0.638 0.469-1.106t1.106-0.469h6.413z"></path>
</svg>
