<!-- Generated by IcoMoon.io -->
<svg version="1.1" xmlns="http://www.w3.org/2000/svg" width="24" height="24" viewBox="0 0 24 24">
<title>rotate_left</title>
<path fill="#fff" d="M12.788 5.662q2.362 0.3 3.994 2.1t1.631 4.238-1.631 4.237-3.994 2.1v-1.612q1.725-0.3 2.869-1.631t1.144-3.094-1.144-3.094-2.869-1.631v3.112l-3.638-3.563 3.638-3.637v2.475zM8.063 17.063l1.163-1.163q0.862 0.638 1.987 0.825v1.612q-1.8-0.225-3.15-1.275zM7.275 12.788q0.188 1.087 0.788 1.987l-1.125 1.125q-1.050-1.387-1.275-3.113h1.612zM8.1 9.225q-0.675 0.975-0.825 1.987h-1.612q0.225-1.688 1.313-3.112z"></path>
</svg>
