<!-- Generated by IcoMoon.io -->
<svg version="1.1" xmlns="http://www.w3.org/2000/svg" width="24" height="24" viewBox="0 0 24 24">
<title>run_circle</title>
<path fill="#fff" d="M12 4.012q-1.65 0-3.094 0.619t-2.55 1.725-1.725 2.55-0.619 3.094 0.619 3.094 1.725 2.55 2.55 1.725 3.094 0.619 3.094-0.619 2.55-1.725 1.725-2.55 0.619-3.094-0.619-3.094-1.725-2.55-2.55-1.725-3.094-0.619zM13.2 7.2q0.338 0 0.563 0.244t0.225 0.544q0 0.338-0.225 0.581t-0.563 0.244-0.563-0.244-0.225-0.581q0-0.3 0.225-0.544t0.563-0.244zM15.188 12q-0.413 0-1.087-0.337t-1.238-1.088l-0.3 1.912 1.050 1.125v3.188h-0.825v-2.85l-0.863-0.975-0.413 2.1-3.037-0.6 0.15-0.788 2.25 0.45 0.75-3.9-1.238 0.45v1.312h-0.787v-1.875l2.625-0.975q0.3-0.112 0.581 0.019t0.431 0.394q0.337 0.675 0.731 1.031t0.731 0.488 0.487 0.131v0.787z"></path>
</svg>
