<!-- Generated by IcoMoon.io -->
<svg version="1.1" xmlns="http://www.w3.org/2000/svg" width="24" height="24" viewBox="0 0 24 24">
<title>schedule_send</title>
<path fill="#fff" d="M15.188 19.2q1.65 0 2.831-1.181t1.181-2.831-1.181-2.831-2.831-1.181q-1.612 0-2.794 1.163t-1.181 2.813v0.075q0 1.65 1.163 2.813t2.813 1.163zM15.188 9.6q2.325 0 3.975 1.65t1.65 3.938-1.669 3.956-3.956 1.669q-1.913 0-3.394-1.144t-1.969-2.944l-5.813 2.475v-5.588l7.2-1.612-7.2-1.613v-5.588zM15.6 12.413v2.587l1.8 1.2-0.6 1.012-2.4-1.612v-3.188h1.2z"></path>
</svg>
