<!-- Generated by IcoMoon.io -->
<svg version="1.1" xmlns="http://www.w3.org/2000/svg" width="24" height="24" viewBox="0 0 24 24">
<title>screen_rotation</title>
<path fill="#fff" d="M8.4 19.575l1.088-1.050 3.037 3.038-0.525 0.037q-3.75 0-6.506-2.55t-3.056-6.263h1.2q0.188 1.987 1.575 3.975t3.187 2.813zM14.25 19.35l5.1-5.1-9.6-9.6-5.1 5.1zM10.575 3.787l9.637 9.637q0.375 0.338 0.375 0.825t-0.375 0.862l-5.1 5.1q-0.338 0.375-0.825 0.375t-0.862-0.375l-9.637-9.637q-0.337-0.337-0.337-0.825 0-0.525 0.337-0.863l5.1-5.1q0.337-0.337 0.862-0.337 0.488 0 0.825 0.337zM15.6 4.425l-1.088 1.050-3.037-3.037 0.525-0.038q3.75 0 6.506 2.55t3.056 6.262h-1.2q-0.225-2.25-1.5-4.050t-3.262-2.737z"></path>
</svg>
