<!-- Generated by IcoMoon.io -->
<svg version="1.1" xmlns="http://www.w3.org/2000/svg" width="24" height="24" viewBox="0 0 24 24">
<title>sd</title>
<path fill="#fff" d="M13.987 13.2v-2.4h1.612v2.4h-1.612zM10.012 13.2h-1.613v-0.412h-1.2v0.825q0 0.338 0.225 0.563t0.563 0.225h2.4q0.338 0 0.581-0.225t0.244-0.563v-1.2q0-0.338-0.244-0.581t-0.581-0.244h-1.988v-0.787h1.613v0.412h1.2v-0.825q0-0.338-0.244-0.563t-0.581-0.225h-2.4q-0.337 0-0.563 0.225t-0.225 0.563v1.2q0 0.338 0.225 0.581t0.563 0.244h2.025v0.787zM12.788 9.6v4.8h3.225q0.337 0 0.563-0.225t0.225-0.563v-3.225q0-0.338-0.225-0.563t-0.563-0.225h-3.225zM17.587 4.8q0.638 0 1.125 0.487t0.488 1.125v11.175q0 0.637-0.488 1.125t-1.125 0.488h-11.175q-0.675 0-1.144-0.469t-0.469-1.144v-11.175q0-0.675 0.469-1.144t1.144-0.469h11.175z"></path>
</svg>
