<!-- Generated by IcoMoon.io -->
<svg version="1.1" xmlns="http://www.w3.org/2000/svg" width="24" height="24" viewBox="0 0 24 24">
<title>sentiment_very_dissatisfied</title>
<path fill="#fff" d="M12 13.612q1.388 0 2.494 0.769t1.594 2.006h-1.313q-0.938-1.575-2.775-1.575t-2.775 1.575h-1.313q0.487-1.238 1.594-2.006t2.494-0.769zM12 18.413q2.625 0 4.519-1.894t1.894-4.519-1.894-4.519-4.519-1.894-4.519 1.894-1.894 4.519 1.894 4.519 4.519 1.894zM12 4.012q3.3 0 5.644 2.344t2.344 5.644-2.344 5.644-5.644 2.344-5.644-2.344-2.344-5.644 2.344-5.644 5.644-2.344zM7.988 10.012q0-0.488 0.356-0.844t0.844-0.356 0.844 0.356 0.356 0.844-0.356 0.844-0.844 0.356-0.844-0.356-0.356-0.844zM13.612 10.012q0-0.488 0.356-0.844t0.844-0.356 0.844 0.356 0.356 0.844-0.356 0.844-0.844 0.356-0.844-0.356-0.356-0.844z"></path>
</svg>
