<!-- Generated by IcoMoon.io -->
<svg version="1.1" xmlns="http://www.w3.org/2000/svg" width="24" height="24" viewBox="0 0 24 24">
<title>sentiment_dissatisfied</title>
<path fill="#fff" d="M12 15.6q-0.825 0-1.575 0.413l-0.413-0.45q-0.037-0.038-0.412-0.45 1.050-0.713 2.4-0.713 1.275 0 2.4 0.713-0.075 0.037-0.431 0.431t-0.394 0.469q-0.713-0.413-1.575-0.413zM12 18.413q2.625 0 4.519-1.894t1.894-4.519-1.894-4.519-4.519-1.894-4.519 1.894-1.894 4.519 1.894 4.519 4.519 1.894zM12 4.012q3.3 0 5.644 2.344t2.344 5.644-2.344 5.644-5.644 2.344-5.644-2.344-2.344-5.644 2.344-5.644 5.644-2.344zM7.988 10.012q0-0.488 0.356-0.844t0.844-0.356 0.844 0.356 0.356 0.844-0.356 0.844-0.844 0.356-0.844-0.356-0.356-0.844zM13.612 10.012q0-0.488 0.356-0.844t0.844-0.356 0.844 0.356 0.356 0.844-0.356 0.844-0.844 0.356-0.844-0.356-0.356-0.844z"></path>
</svg>
