<!-- Generated by IcoMoon.io -->
<svg version="1.1" xmlns="http://www.w3.org/2000/svg" width="24" height="24" viewBox="0 0 24 24">
<title>set_meal</title>
<path fill="#fff" d="M19.237 16.462l-14.362 0.75-0.075-1.2 14.4-0.75zM19.2 18h-14.4v1.2h14.4v-1.2zM19.987 6.413v5.587q0 0.675-0.469 1.144t-1.106 0.469h-12.825q-0.637 0-1.106-0.469t-0.469-1.144v-5.588q0-0.675 0.469-1.144t1.106-0.469h12.825q0.637 0 1.106 0.469t0.469 1.144zM18.413 7.2q-1.013 0-1.744 0.525t-0.844 1.275q-0.188-0.225-0.6-0.6t-1.050-0.731-1.537-0.619-2.025-0.262q-1.425 0-2.438 0.375t-1.669 0.844-0.975 0.825l-0.319 0.356 0.319 0.375t0.975 0.844 1.669 0.825 2.438 0.356q1.125 0 2.025-0.244t1.537-0.619 1.050-0.731 0.6-0.581q0.112 0.75 0.844 1.275t1.744 0.525v-4.013z"></path>
</svg>
