<!-- Generated by IcoMoon.io -->
<svg version="1.1" xmlns="http://www.w3.org/2000/svg" width="24" height="24" viewBox="0 0 24 24">
<title>settings_applications</title>
<path fill="#fff" d="M16.2 12q0-0.375-0.038-0.563l1.2-0.9q0.188-0.15 0.038-0.375l-1.125-1.95q-0.113-0.188-0.337-0.112l-1.388 0.563q-0.487-0.375-0.938-0.563l-0.225-1.463q-0.075-0.225-0.263-0.225h-2.25q-0.225 0-0.262 0.225l-0.225 1.5q-0.6 0.262-0.938 0.525l-1.387-0.563q-0.188-0.075-0.337 0.15l-1.125 1.913q-0.038 0.037-0.038 0.15 0 0.188 0.075 0.225l1.2 0.9q-0.038 0.188-0.038 0.563t0.038 0.563l-1.2 0.9q-0.075 0.038-0.075 0.225 0 0.112 0.038 0.15l1.125 1.95q0.112 0.188 0.337 0.112l1.387-0.563q0.488 0.375 0.938 0.563l0.225 1.462q0.075 0.225 0.262 0.225h2.25q0.225 0 0.263-0.225l0.225-1.5q0.6-0.263 0.938-0.525l1.388 0.563q0.188 0.075 0.337-0.15l1.125-1.913q0.15-0.225-0.038-0.375l-1.2-0.9q0.038-0.188 0.038-0.563zM17.587 4.8q0.675 0 1.144 0.469t0.469 1.144v11.175q0 0.675-0.469 1.144t-1.144 0.469h-11.175q-0.675 0-1.144-0.469t-0.469-1.144v-11.175q0-0.675 0.469-1.144t1.144-0.469h11.175zM12 10.387q0.638 0 1.125 0.488t0.487 1.125-0.487 1.125-1.125 0.487-1.125-0.487-0.488-1.125 0.488-1.125 1.125-0.488z"></path>
</svg>
