<!-- Generated by IcoMoon.io -->
<svg version="1.1" xmlns="http://www.w3.org/2000/svg" width="24" height="24" viewBox="0 0 24 24">
<title>settings_remote</title>
<path fill="#fff" d="M12 2.4q3.712 0 6.225 2.588l-1.125 1.125q-2.1-2.1-5.1-2.1t-5.1 2.1l-1.125-1.125q2.587-2.588 6.225-2.588zM8.025 7.238q1.65-1.65 3.975-1.65t3.975 1.65l-1.125 1.125q-0.488-0.488-1.331-0.825t-1.519-0.337-1.519 0.337-1.331 0.825zM12 14.4q0.638 0 1.125-0.487t0.487-1.125-0.487-1.106-1.125-0.469-1.125 0.469-0.488 1.106 0.488 1.125 1.125 0.487zM14.4 9.6q0.338 0 0.563 0.225t0.225 0.563v9.6q0 0.338-0.225 0.581t-0.563 0.244h-4.8q-0.338 0-0.563-0.244t-0.225-0.581v-9.6q0-0.338 0.225-0.563t0.563-0.225h4.8z"></path>
</svg>
