<!-- Generated by IcoMoon.io -->
<svg version="1.1" xmlns="http://www.w3.org/2000/svg" width="24" height="24" viewBox="0 0 24 24">
<title>settings</title>
<path fill="#fff" d="M12 14.813q1.163 0 1.987-0.825t0.825-1.988-0.825-1.987-1.988-0.825-1.987 0.825-0.825 1.987 0.825 1.988 1.987 0.825zM17.962 12.788l1.688 1.313q0.263 0.188 0.075 0.525l-1.613 2.775q-0.15 0.263-0.487 0.15l-1.988-0.787q-0.787 0.563-1.35 0.787l-0.3 2.1q-0.075 0.337-0.375 0.337h-3.225q-0.3 0-0.375-0.337l-0.3-2.1q-0.713-0.3-1.35-0.787l-1.987 0.787q-0.337 0.113-0.487-0.15l-1.613-2.775q-0.188-0.337 0.075-0.525l1.688-1.313q-0.037-0.263-0.037-0.788t0.037-0.788l-1.688-1.313q-0.262-0.188-0.075-0.525l1.613-2.775q0.15-0.263 0.487-0.15l1.987 0.788q0.788-0.563 1.35-0.788l0.3-2.1q0.075-0.338 0.375-0.338h3.225q0.3 0 0.375 0.338l0.3 2.1q0.713 0.3 1.35 0.788l1.988-0.788q0.337-0.113 0.487 0.15l1.613 2.775q0.188 0.337-0.075 0.525l-1.688 1.313q0.038 0.263 0.038 0.788t-0.038 0.788z"></path>
</svg>
