<!-- Generated by IcoMoon.io -->
<svg version="1.1" xmlns="http://www.w3.org/2000/svg" width="24" height="24" viewBox="0 0 24 24">
<title>shuffle_on</title>
<path fill="#fff" d="M14.25 13.125l-1.125 1.125 2.513 2.513-1.65 1.65h4.425v-4.425l-1.65 1.65zM13.987 5.588l1.65 1.65-10.050 10.050 1.125 1.125 10.050-10.050 1.65 1.65v-4.425h-4.425zM10.875 9.75l-4.163-4.162-1.125 1.125 4.163 4.163zM19.2 3.188q0.637 0 1.125 0.488t0.487 1.125v14.4q0 0.637-0.487 1.125t-1.125 0.487h-14.4q-0.638 0-1.125-0.487t-0.488-1.125v-14.4q0-0.638 0.488-1.125t1.125-0.488h14.4z"></path>
</svg>
