<!-- Generated by IcoMoon.io -->
<svg version="1.1" xmlns="http://www.w3.org/2000/svg" width="24" height="24" viewBox="0 0 24 24">
<title>smart_button</title>
<path fill="#fff" d="M19.987 9.6v4.8q0 0.675-0.469 1.144t-1.106 0.469h-0.825v-1.613h0.825v-4.8h-12.825v4.8h4.8v1.613h-4.8q-0.637 0-1.106-0.469t-0.469-1.144v-4.8q0-0.675 0.469-1.144t1.106-0.469h12.825q0.637 0 1.106 0.469t0.469 1.144zM13.987 17.587l0.9-1.912 1.912-0.862-1.912-0.9-0.9-1.913-0.862 1.913-1.913 0.9 1.913 0.862zM16.013 13.612l0.487-1.125 1.087-0.488-1.087-0.487-0.487-1.125-0.525 1.125-1.087 0.487 1.087 0.488zM13.987 17.587l0.9-1.912 1.912-0.862-1.912-0.9-0.9-1.913-0.862 1.913-1.913 0.9 1.913 0.862zM16.013 13.612l0.487-1.125 1.087-0.488-1.087-0.487-0.487-1.125-0.525 1.125-1.087 0.487 1.087 0.488z"></path>
</svg>
