<!-- Generated by IcoMoon.io -->
<svg version="1.1" xmlns="http://www.w3.org/2000/svg" width="24" height="24" viewBox="0 0 24 24">
<title>speaker_group</title>
<path fill="#fff" d="M7.2 6.413v12.788h7.988v1.612h-7.988q-0.675 0-1.144-0.469t-0.469-1.144v-12.788h1.612zM11.587 12.413q0-0.825 0.6-1.425t1.425-0.6 1.406 0.6 0.581 1.425-0.581 1.406-1.406 0.581-1.425-0.581-0.6-1.406zM13.612 15.6q1.313 0 2.25-0.938t0.937-2.25-0.937-2.269-2.25-0.956-2.269 0.956-0.956 2.269 0.956 2.25 2.269 0.938zM13.612 4.8q-0.638 0-1.125 0.469t-0.488 1.144 0.469 1.125 1.144 0.45q0.638 0 1.106-0.45t0.469-1.125-0.469-1.144-1.106-0.469zM16.95 3.188q0.6 0 1.031 0.431t0.431 1.031v11.513q0 0.6-0.431 1.012t-1.031 0.413h-6.713q-0.6 0-1.012-0.413t-0.412-1.012v-11.513q0-0.6 0.412-1.031t1.012-0.431h6.713z"></path>
</svg>
