<!-- Generated by IcoMoon.io -->
<svg version="1.1" xmlns="http://www.w3.org/2000/svg" width="24" height="24" viewBox="0 0 24 24">
<title>sports_rugby</title>
<path fill="#fff" d="M15.375 15.375q2.438-2.438 2.587-6.413-1.313 2.888-3.712 5.288t-5.288 3.712q3.938-0.112 6.413-2.587zM8.625 8.625q-2.438 2.438-2.587 6.413 0.563-1.2 1.65-2.756t2.063-2.531q2.4-2.4 5.288-3.712-3.938 0.112-6.413 2.587zM18.788 5.213q0.637 0.637 0.788 2.55t-0.581 4.481-2.456 4.294q-1.575 1.575-3.731 2.306t-4.256 0.731q-2.55 0-3.337-0.788-0.637-0.637-0.787-2.55t0.581-4.481 2.456-4.294q1.575-1.575 3.731-2.306t4.256-0.731q2.55 0 3.338 0.787z"></path>
</svg>
