<!-- Generated by IcoMoon.io -->
<svg version="1.1" xmlns="http://www.w3.org/2000/svg" width="24" height="24" viewBox="0 0 24 24">
<title>sports_hockey</title>
<path fill="#fff" d="M13.275 12.675l1.125 2.513h3.188v3.225l-3.75-0.038q-0.487 0-0.712-0.413l-1.125-2.475q-0.262-0.525-0.712-1.537t-0.563-1.275l-3.263-7.087h2.7l1.837 4.163q0.075-0.188 0.244-0.544t0.206-0.431l1.387-3.188h2.7zM19.2 15.188q0.337 0 0.563 0.244t0.225 0.581v2.4h-1.575v-3.225h0.788zM9.6 15.188l0.675-1.538 1.275 2.775-0.675 1.538q-0.225 0.413-0.712 0.413l-3.75 0.038v-3.225h3.188zM4.012 16.013q0-0.338 0.225-0.581t0.563-0.244h0.787v3.225h-1.575v-2.4z"></path>
</svg>
