<!-- Generated by IcoMoon.io -->
<svg version="1.1" xmlns="http://www.w3.org/2000/svg" width="24" height="24" viewBox="0 0 24 24">
<title>sports_cricket</title>
<path fill="#fff" d="M14.4 6.788q0-1.162 0.825-1.969t1.987-0.806 1.969 0.806 0.806 1.969-0.806 1.987-1.969 0.825-1.987-0.825-0.825-1.987zM13.875 16.612l1.125-1.125 3.413 3.375-1.163 1.125zM14.438 12.638q0.225 0.225 0.225 0.563t-0.225 0.563l-2.25 2.287q-0.225 0.225-0.563 0.225t-0.563-0.225l-6.825-6.787q-0.225-0.225-0.225-0.563t0.225-0.563l2.287-2.287q0.225-0.225 0.563-0.225t0.563 0.225z"></path>
</svg>
