<!-- Generated by IcoMoon.io -->
<svg version="1.1" xmlns="http://www.w3.org/2000/svg" width="24" height="24" viewBox="0 0 24 24">
<title>stream</title>
<path fill="#fff" d="M10.387 5.588q0-0.675 0.469-1.125t1.144-0.45 1.144 0.45 0.469 1.125-0.469 1.144-1.144 0.469-1.144-0.469-0.469-1.144zM18.225 17.025l-1.163 1.125q-0.675-0.675-1.913-1.931t-1.537-1.556l1.125-1.125 0.263 0.3zM10.425 14.7q-0.675 0.675-1.931 1.912t-1.556 1.538l-1.162-1.125q0.675-0.675 1.931-1.913t1.556-1.537zM13.538 9.3l3.525-3.525 1.163 1.125-3.525 3.525zM10.425 9.262l-1.125 1.125-0.262-0.225-3.188-3.263 1.125-1.125 0.225 0.263h0.038zM10.387 18.413q0-0.675 0.469-1.144t1.144-0.469 1.144 0.469 0.469 1.144-0.469 1.125-1.144 0.45-1.144-0.45-0.469-1.125zM4.012 12q0-0.675 0.45-1.144t1.125-0.469 1.144 0.469 0.469 1.144-0.469 1.144-1.144 0.469-1.125-0.469-0.45-1.144zM16.8 12q0-0.675 0.469-1.144t1.144-0.469 1.125 0.469 0.45 1.144-0.45 1.144-1.125 0.469-1.144-0.469-0.469-1.144z"></path>
</svg>
