<!-- Generated by IcoMoon.io -->
<svg version="1.1" xmlns="http://www.w3.org/2000/svg" width="24" height="24" viewBox="0 0 24 24">
<title>streetview</title>
<path fill="#fff" d="M11.587 7.2q0 0.9 0.45 1.969t1.087 1.706l-7.837 7.837q-0.487-0.487-0.487-1.125v-11.175q0-0.638 0.487-1.125t1.125-0.488h5.775q-0.6 1.125-0.6 2.4zM12.788 7.2q0-1.65 1.181-2.831t2.831-1.181 2.831 1.181 1.181 2.831-1.181 2.831-2.831 1.181-2.831-1.181-1.181-2.831zM12.45 13.875q1.95-1.462 4.35-1.462 1.238 0 2.4 0.412v4.763q0 0.637-0.488 1.125t-1.125 0.488h-5.587v-4.388q0-0.563 0.45-0.938z"></path>
</svg>
