<!-- Generated by IcoMoon.io -->
<svg version="1.1" xmlns="http://www.w3.org/2000/svg" width="24" height="24" viewBox="0 0 24 24">
<title>support</title>
<path fill="#fff" d="M12 4.012q-1.65 0-3.094 0.619t-2.55 1.725-1.725 2.55-0.619 3.094 0.619 3.094 1.725 2.55 2.55 1.725 3.094 0.619 3.094-0.619 2.55-1.725 1.725-2.55 0.619-3.094-0.619-3.094-1.725-2.55-2.55-1.725-3.094-0.619zM17.962 9.712l-2.212 0.9q-0.3-0.825-0.919-1.444t-1.444-0.919l0.9-2.213q1.275 0.488 2.231 1.444t1.444 2.231zM12 14.4q-0.675 0-1.219-0.319t-0.863-0.862-0.319-1.219 0.319-1.219 0.863-0.863 1.219-0.319 1.219 0.319 0.862 0.863 0.319 1.219-0.319 1.219-0.862 0.862-1.219 0.319zM9.712 6.038l0.938 2.212q-0.825 0.3-1.462 0.919t-0.938 1.481l-2.212-0.938q0.487-1.275 1.444-2.231t2.231-1.444zM6.038 14.288l2.212-0.9q0.3 0.825 0.919 1.444t1.481 0.919l-0.938 2.212q-1.275-0.488-2.231-1.444t-1.444-2.231zM14.288 17.962l-0.9-2.212q0.825-0.3 1.444-0.919t0.919-1.481l2.212 0.938q-0.488 1.275-1.444 2.231t-2.231 1.444z"></path>
</svg>
