<!-- Generated by IcoMoon.io -->
<svg version="1.1" xmlns="http://www.w3.org/2000/svg" width="24" height="24" viewBox="0 0 24 24">
<title>surround_sound</title>
<path fill="#fff" d="M12 10.387q0.638 0 1.125 0.488t0.487 1.125-0.487 1.125-1.125 0.487-1.125-0.487-0.488-1.125 0.488-1.125 1.125-0.488zM16.538 16.538q1.875-1.875 1.875-4.538v-0.038q0-1.087-0.544-2.419t-1.331-2.081l-1.163 1.163q1.425 1.425 1.425 3.375 0 2.025-1.387 3.413zM12 15.188q1.313 0 2.25-0.938t0.938-2.25-0.938-2.25-2.25-0.938-2.25 0.938-0.938 2.25 0.938 2.25 2.25 0.938zM8.625 15.375q-1.425-1.425-1.425-3.375 0-2.025 1.387-3.413l-1.125-1.125q-1.875 1.875-1.875 4.538v0.038q0 1.087 0.544 2.419t1.331 2.081zM18.413 5.588q0.637 0 1.106 0.487t0.469 1.125v9.6q0 0.638-0.469 1.125t-1.106 0.488h-12.825q-0.638 0-1.106-0.488t-0.469-1.125v-9.6q0-0.638 0.469-1.125t1.106-0.487h12.825z"></path>
</svg>
