<!-- Generated by IcoMoon.io -->
<svg version="1.1" xmlns="http://www.w3.org/2000/svg" width="24" height="24" viewBox="0 0 24 24">
<title>swipe</title>
<path fill="#fff" d="M18.487 5.512l1.5-1.5v3.975h-3.975l1.65-1.65q-0.637-0.825-2.175-1.388t-3.488-0.563-3.487 0.563-2.175 1.388l1.65 1.65h-3.975v-3.975l1.5 1.5q0.9-1.050 2.644-1.688t3.844-0.638 3.844 0.638 2.644 1.688zM18.188 15.413v0.15l-0.6 4.2q-0.075 0.45-0.394 0.75t-0.769 0.3h-5.438q-0.45 0-0.825-0.375l-3.975-3.938 0.638-0.638q0.262-0.263 0.637-0.263h0.188l2.738 0.6v-8.588q0-0.488 0.356-0.844t0.844-0.356 0.844 0.356 0.356 0.844v4.8h0.638q0.112 0 0.413 0.075l3.637 1.8q0.713 0.337 0.713 1.125z"></path>
</svg>
