<!-- Generated by IcoMoon.io -->
<svg version="1.1" xmlns="http://www.w3.org/2000/svg" width="24" height="24" viewBox="0 0 24 24">
<title>sync_disabled</title>
<path fill="#fff" d="M18.413 5.588l-1.913 1.912q0.788 0.75 1.35 2.081t0.563 2.419q0 1.763-0.975 3.375l-1.2-1.163q0.563-1.125 0.563-2.212 0-0.825-0.412-1.8t-1.013-1.575l-1.762 1.762v-4.8h4.8zM4.688 6.712l1.012-1.013 12.563 12.6-1.013 1.013-1.875-1.875q-0.9 0.525-1.8 0.75v-1.65q0.3-0.113 0.638-0.3l-6.45-6.45q-0.563 1.125-0.563 2.213 0 0.825 0.412 1.8t1.013 1.575l1.762-1.763v4.8h-4.8l1.913-1.912q-0.788-0.75-1.35-2.081t-0.563-2.419q0-1.763 0.975-3.375zM10.387 7.462q-0.225 0.075-0.6 0.3l-1.163-1.2q0.938-0.563 1.763-0.75v1.65z"></path>
</svg>
