<!-- Generated by IcoMoon.io -->
<svg version="1.1" xmlns="http://www.w3.org/2000/svg" width="24" height="24" viewBox="0 0 24 24">
<title>tab_unselected</title>
<path fill="#fff" d="M16.013 19.2v-1.613h1.575v1.613h-1.575zM12.788 19.2v-1.613h1.612v1.613h-1.612zM19.2 12.788v-1.575h1.612v1.575h-1.612zM19.2 19.2v-1.613h1.612q0 0.637-0.487 1.125t-1.125 0.488zM6.413 6.413v-1.612h1.575v1.612h-1.575zM6.413 19.2v-1.613h1.575v1.613h-1.575zM9.6 6.413v-1.612h1.612v1.612h-1.612zM19.2 16.013v-1.613h1.612v1.613h-1.612zM19.2 4.8q0.637 0 1.125 0.487t0.487 1.125v3.188h-8.025v-4.8h6.413zM4.8 19.2q-0.638 0-1.125-0.488t-0.488-1.125h1.613v1.613zM3.188 16.013v-1.613h1.613v1.613h-1.613zM9.6 19.2v-1.613h1.612v1.613h-1.612zM3.188 6.413q0-0.638 0.488-1.125t1.125-0.487v1.612h-1.613zM3.188 12.788v-1.575h1.613v1.575h-1.613zM3.188 9.6v-1.613h1.613v1.613h-1.613z"></path>
</svg>
