<!-- Generated by IcoMoon.io -->
<svg version="1.1" xmlns="http://www.w3.org/2000/svg" width="24" height="24" viewBox="0 0 24 24">
<title>tap_and_play</title>
<path fill="#fff" d="M16.013 3.225q0.637 0 1.106 0.469t0.469 1.106v13.612q0 0.637-0.469 1.106t-1.106 0.469h-1.688q-0.112-1.612-0.75-3.188h2.438v-10.387h-8.025v4.8q-0.938-0.412-1.575-0.525v-5.887q0-0.638 0.469-1.125t1.106-0.488zM4.012 12q3.638 0 6.206 2.569t2.569 6.244h-1.575q0-2.962-2.119-5.081t-5.081-2.119v-1.612zM4.012 18.413q0.975 0 1.688 0.712t0.713 1.688h-2.4v-2.4zM4.012 15.188q2.325 0 3.956 1.65t1.631 3.975h-1.613q0-1.65-1.163-2.831t-2.813-1.181v-1.612z"></path>
</svg>
