<!-- Generated by IcoMoon.io -->
<svg version="1.1" xmlns="http://www.w3.org/2000/svg" width="40" height="40" viewBox="0 0 40 40">
<title>th-archive</title>
<path fill="#fff" d="M36 7.765h-32v7.529h1.882v20.706h28.235v-20.706h1.882v-7.529zM32.235 34.118h-24.471v-18.824h24.471v18.824zM34.118 13.412h-28.235v-3.765h28.235v3.765zM15.294 24.706h9.442c2.076 0 3.765-1.688 3.765-3.765s-1.688-3.765-3.765-3.765h-9.442c-2.076 0-3.765 1.688-3.765 3.765s1.688 3.765 3.765 3.765zM15.294 19.059h9.442c1.039 0 1.882 0.843 1.882 1.882s-0.843 1.882-1.882 1.882h-9.442c-1.039 0-1.882-0.843-1.882-1.882s0.843-1.882 1.882-1.882z"></path>
</svg>
