<!-- Generated by IcoMoon.io -->
<svg version="1.1" xmlns="http://www.w3.org/2000/svg" width="40" height="40" viewBox="0 0 40 40">
<title>th-cut</title>
<path fill="#fff" d="M28.471 24.706c-1.026 0-1.975 0.296-2.805 0.776l-4.371-4.619 11.784-12.45-1.368-1.295-11.71 12.375-11.714-12.375-1.367 1.295 11.784 12.45-4.371 4.617c-0.828-0.478-1.779-0.774-2.803-0.774-3.113 0-5.647 2.534-5.647 5.647s2.534 5.647 5.647 5.647 5.647-2.534 5.647-5.647c0-1.406-0.536-2.68-1.389-3.669l4.213-4.452 4.213 4.452c-0.855 0.99-1.389 2.263-1.389 3.669 0 3.113 2.534 5.647 5.647 5.647s5.647-2.534 5.647-5.647-2.534-5.647-5.647-5.647zM11.529 34.118c-2.076 0-3.765-1.688-3.765-3.765s1.688-3.765 3.765-3.765 3.765 1.688 3.765 3.765-1.688 3.765-3.765 3.765zM28.471 34.118c-2.076 0-3.765-1.688-3.765-3.765s1.688-3.765 3.765-3.765 3.765 1.688 3.765 3.765-1.688 3.765-3.765 3.765z"></path>
</svg>
