<!-- Generated by IcoMoon.io -->
<svg version="1.1" xmlns="http://www.w3.org/2000/svg" width="40" height="40" viewBox="0 0 40 40">
<title>th-cloud-down</title>
<path fill="#fff" d="M36 16.706c0 4.41-3.588 8-8 8h-5.19v-1.882h5.19c3.373 0 6.118-2.744 6.118-6.118s-2.744-6.118-6.118-6.118c-1.001 0-1.99 0.265-2.936 0.785l-0.666 0.367-0.499-0.576c-1.353-1.56-3.29-2.458-5.31-2.458-3.127 0-5.833 2.033-6.731 5.060l-0.237 0.794-0.819-0.136c-0.224-0.036-0.448-0.072-0.683-0.072-2.334 0-4.235 1.899-4.235 4.235s1.901 4.235 4.235 4.235h6.963v1.882h-6.963c-3.373 0-6.118-2.744-6.118-6.118 0-3.437 2.844-6.278 6.312-6.114 1.342-3.411 4.576-5.651 8.277-5.651 2.323 0 4.555 0.93 6.229 2.573 1.028-0.459 2.095-0.691 3.183-0.691 4.412 0 8 3.59 8 8zM20.941 29.845v-14.551h-1.882v14.551l-3.098-3.098-1.331 1.331 5.37 5.37 5.372-5.372-1.331-1.331-3.1 3.1z"></path>
</svg>
