<!-- Generated by IcoMoon.io -->
<svg version="1.1" xmlns="http://www.w3.org/2000/svg" width="40" height="40" viewBox="0 0 40 40">
<title>th-camera</title>
<path fill="#fff" d="M15.215 9.647v-1.882h-5.489v1.882h-5.726v22.588h32v-22.588h-20.785zM34.118 30.353h-28.235v-13.176h12.343c-0.649 1.112-1.048 2.389-1.048 3.765 0 4.152 3.377 7.529 7.529 7.529s7.529-3.377 7.529-7.529c0-1.376-0.399-2.652-1.048-3.765h2.931v13.176zM30.353 20.941c0 3.113-2.534 5.647-5.647 5.647s-5.647-2.534-5.647-5.647 2.534-5.647 5.647-5.647 5.647 2.534 5.647 5.647zM29.634 15.294c-1.325-1.156-3.034-1.882-4.928-1.882s-3.603 0.727-4.928 1.882h-13.896v-3.765h28.235v3.765h-4.484z"></path>
</svg>
