<!-- Generated by IcoMoon.io -->
<svg version="1.1" xmlns="http://www.w3.org/2000/svg" width="40" height="40" viewBox="0 0 40 40">
<title>th-comments-smiley</title>
<path fill="#fff" d="M28.471 19.059h1.882c0 4.67-3.8 8.471-8.471 8.471s-8.471-3.8-8.471-8.471h1.882c0 3.633 2.955 6.588 6.588 6.588s6.588-2.955 6.588-6.588zM18.118 16.235c1.041 0 1.882-0.841 1.882-1.882s-0.841-1.882-1.882-1.882-1.882 0.841-1.882 1.882 0.841 1.882 1.882 1.882zM25.647 16.235c1.041 0 1.882-0.841 1.882-1.882s-0.841-1.882-1.882-1.882-1.882 0.841-1.882 1.882 0.841 1.882 1.882 1.882zM36 18.118c0 7.785-6.332 14.118-14.118 14.118-2.522 0-4.984-0.676-7.159-1.96l-10.353 5.352 5.352-10.351c-1.282-2.174-1.958-4.636-1.958-7.159 0-7.785 6.332-14.118 14.118-14.118s14.118 6.332 14.118 14.118zM34.118 18.118c0-6.746-5.489-12.235-12.235-12.235s-12.235 5.489-12.235 12.235c0 2.342 0.674 4.629 1.95 6.609l0.296 0.457-3.132 6.057 6.056-3.132 0.457 0.296c1.982 1.274 4.265 1.948 6.609 1.948 6.746 0 12.235-5.489 12.235-12.235z"></path>
</svg>
