<!-- Generated by IcoMoon.io -->
<svg version="1.1" xmlns="http://www.w3.org/2000/svg" width="40" height="40" viewBox="0 0 40 40">
<title>th-heart</title>
<path fill="#fff" d="M27.529 5.239c-3.273 0-6.12 1.867-7.529 4.591-1.41-2.724-4.256-4.591-7.529-4.591-4.67 0-8.471 3.8-8.471 8.471 0 0.646 0.090 1.316 0.29 2.104l0.205 0.661c2.696 8.196 14.417 17.681 14.916 18.078l0.589 0.474 0.589-0.474c0.531-0.427 13.037-10.537 14.921-18.097l0.211-0.693c0.19-0.757 0.279-1.41 0.279-2.054 0-4.67-3.8-8.471-8.471-8.471zM33.909 15.256l-0.213 0.696c-1.523 6.11-11.192 14.545-13.696 16.646-2.413-2.039-11.524-10.046-13.713-16.7l-0.188-0.595c-0.145-0.585-0.216-1.107-0.216-1.594 0-3.633 2.955-6.588 6.588-6.588s6.588 2.957 6.588 6.588v0.474h1.882v-0.474c0-3.633 2.955-6.588 6.588-6.588s6.588 2.955 6.588 6.588c0 0.486-0.072 0.992-0.209 1.547z"></path>
</svg>
