<!-- Generated by IcoMoon.io -->
<svg version="1.1" xmlns="http://www.w3.org/2000/svg" width="40" height="40" viewBox="0 0 40 40">
<title>th-info-alt</title>
<path fill="#fff" d="M20 4c-8.823 0-16 7.177-16 16s7.177 16 16 16 16-7.177 16-16-7.177-16-16-16zM20 34.118c-7.785 0-14.118-6.332-14.118-14.118s6.332-14.118 14.118-14.118 14.118 6.332 14.118 14.118-6.332 14.118-14.118 14.118zM20.941 27.283h1.843v1.882h-5.568v-1.882h1.843v-8.32h-1.781v-1.882h3.663v10.202zM17.525 13.385c0-1.026 0.83-1.856 1.856-1.856s1.854 0.83 1.854 1.856c0 1.022-0.828 1.852-1.854 1.852s-1.856-0.83-1.856-1.852z"></path>
</svg>
