<!-- Generated by IcoMoon.io -->
<svg version="1.1" xmlns="http://www.w3.org/2000/svg" width="40" height="40" viewBox="0 0 40 40">
<title>th-list-ol</title>
<path fill="#fff" d="M36 11.529v1.882h-22.588v-1.882h22.588zM13.412 20.941h22.588v-1.882h-22.588v1.882zM13.412 28.471h22.588v-1.882h-22.588v1.882zM7.921 10.551h0.017v4.486h0.67v-5.133h-0.591l-1.122 0.6 0.134 0.529 0.892-0.482zM7.085 22.018l0.412-0.378c1.080-1.043 1.768-1.809 1.768-2.758 0-0.734-0.467-1.493-1.574-1.493-0.591 0-1.096 0.22-1.451 0.521l0.22 0.489c0.239-0.198 0.625-0.435 1.092-0.435 0.764 0 1.018 0.482 1.018 1.003-0.008 0.774-0.602 1.438-1.912 2.686l-0.544 0.529v0.427h3.275v-0.578h-2.304v-0.015zM8.209 27.324v-0.017c0.632-0.228 0.949-0.678 0.949-1.208 0-0.623-0.457-1.224-1.468-1.224-0.553 0-1.075 0.196-1.344 0.395l0.183 0.506c0.22-0.158 0.616-0.341 1.028-0.341 0.64 0 0.9 0.363 0.9 0.774 0 0.608-0.64 0.87-1.144 0.87h-0.388v0.52h0.386c0.672 0 1.32 0.309 1.327 1.028 0.009 0.427-0.269 0.994-1.16 0.994-0.484 0-0.941-0.196-1.137-0.324l-0.19 0.536c0.252 0.168 0.757 0.35 1.335 0.35 1.231 0 1.871-0.719 1.871-1.54 0-0.719-0.514-1.193-1.146-1.32z"></path>
</svg>
