<!-- Generated by IcoMoon.io -->
<svg version="1.1" xmlns="http://www.w3.org/2000/svg" width="40" height="40" viewBox="0 0 40 40">
<title>th-layout-width-default</title>
<path fill="#fff" d="M4 4v32h32v-32h-32zM34.118 34.118h-28.235v-28.235h28.235v28.235zM9.647 19.059h1.882v1.882h-1.882v-1.882zM9.647 11.529h1.882v1.882h-1.882v-1.882zM9.647 22.824h1.882v1.882h-1.882v-1.882zM9.647 15.294h1.882v1.882h-1.882v-1.882zM9.647 7.765h1.882v1.882h-1.882v-1.882zM9.647 30.353h1.882v1.882h-1.882v-1.882zM9.647 26.588h1.882v1.882h-1.882v-1.882zM28.471 7.765h1.882v1.882h-1.882v-1.882zM28.471 15.294h1.882v1.882h-1.882v-1.882zM28.471 11.529h1.882v1.882h-1.882v-1.882zM28.471 19.059h1.882v1.882h-1.882v-1.882zM28.471 22.824h1.882v1.882h-1.882v-1.882zM28.471 26.588h1.882v1.882h-1.882v-1.882zM28.471 30.353h1.882v1.882h-1.882v-1.882z"></path>
</svg>
