<!-- Generated by IcoMoon.io -->
<svg version="1.1" xmlns="http://www.w3.org/2000/svg" width="40" height="40" viewBox="0 0 40 40">
<title>th-list</title>
<path fill="#fff" d="M36 11.529v1.882h-22.588v-1.882h22.588zM9.647 12.471c0 1.557-1.267 2.824-2.824 2.824s-2.824-1.267-2.824-2.824 1.267-2.824 2.824-2.824 2.824 1.267 2.824 2.824zM7.765 12.471c0-0.518-0.422-0.941-0.941-0.941s-0.941 0.424-0.941 0.941 0.422 0.941 0.941 0.941 0.941-0.424 0.941-0.941zM13.412 20.941h22.588v-1.882h-22.588v1.882zM9.647 20c0 1.557-1.267 2.824-2.824 2.824s-2.824-1.267-2.824-2.824 1.267-2.824 2.824-2.824 2.824 1.267 2.824 2.824zM7.765 20c0-0.518-0.422-0.941-0.941-0.941s-0.941 0.424-0.941 0.941 0.422 0.941 0.941 0.941 0.941-0.424 0.941-0.941zM13.412 28.471h22.588v-1.882h-22.588v1.882zM9.647 27.529c0 1.557-1.267 2.824-2.824 2.824s-2.824-1.267-2.824-2.824 1.267-2.824 2.824-2.824 2.824 1.267 2.824 2.824zM7.765 27.529c0-0.518-0.422-0.941-0.941-0.941s-0.941 0.424-0.941 0.941 0.422 0.941 0.941 0.941 0.941-0.424 0.941-0.941z"></path>
</svg>
