<!-- Generated by IcoMoon.io -->
<svg version="1.1" xmlns="http://www.w3.org/2000/svg" width="40" height="40" viewBox="0 0 40 40">
<title>th-light-bulb</title>
<path fill="#fff" d="M20 4c-5.707 0-10.353 4.926-10.353 10.98 0 4.431 1.815 6.908 3.415 9.094 1.199 1.634 2.232 3.046 2.232 5.032v3.945c0 1.626 1.267 2.95 2.824 2.95h3.765c1.557 0 2.824-1.323 2.824-2.95v-4.002c0-1.967 0.973-3.266 2.202-4.911 1.534-2.054 3.445-4.606 3.445-9.158 0-6.054-4.646-10.98-10.353-10.98zM21.882 34.118h-3.765c-0.518 0-0.941-0.478-0.941-1.067v-3.074h5.647v3.074c0 0.589-0.424 1.067-0.941 1.067zM25.4 23.010c-1.105 1.478-2.24 2.999-2.515 5.084h-5.783c-0.286-2.074-1.419-3.627-2.522-5.133-1.5-2.048-3.051-4.166-3.051-7.981 0-5.016 3.8-9.097 8.471-9.097s8.471 4.081 8.471 9.097c0 3.925-1.56 6.012-3.070 8.030z"></path>
</svg>
