<!-- Generated by IcoMoon.io -->
<svg version="1.1" xmlns="http://www.w3.org/2000/svg" width="40" height="40" viewBox="0 0 40 40">
<title>th-menu-alt</title>
<path fill="#fff" d="M34.118 7.765v3.765h-20.706v-3.765h20.706zM13.412 20.941h20.706v-3.765h-20.706v3.765zM13.412 30.353h20.706v-3.765h-20.706v3.765zM7.765 7.765c-1.039 0-1.882 0.841-1.882 1.882s0.843 1.882 1.882 1.882 1.882-0.841 1.882-1.882-0.843-1.882-1.882-1.882zM7.765 17.176c-1.039 0-1.882 0.841-1.882 1.882s0.843 1.882 1.882 1.882 1.882-0.841 1.882-1.882-0.843-1.882-1.882-1.882zM7.765 26.588c-1.039 0-1.882 0.841-1.882 1.882s0.843 1.882 1.882 1.882 1.882-0.841 1.882-1.882-0.843-1.882-1.882-1.882z"></path>
</svg>
