<!-- Generated by IcoMoon.io -->
<svg version="1.1" xmlns="http://www.w3.org/2000/svg" width="40" height="40" viewBox="0 0 40 40">
<title>th-printer</title>
<path fill="#fff" d="M36 15.294h-5.662v-3.422l-8.476-7.872h-12.23v11.294h-5.632v15.059h5.647v5.835h20.706v-5.835h5.647v-15.059zM22.808 7.448l4.395 4.081h-4.395v-4.081zM11.514 5.882h9.412v7.529h7.529v1.882h-16.941v-9.412zM28.471 34.306h-16.941v-9.412h16.941v9.412zM34.118 28.471h-3.765v-5.459h-20.706v5.459h-3.765v-11.294h28.235v11.294zM24.717 28.471h-11.305v-1.882h11.305v1.882zM20.941 32.235h-7.529v-1.882h7.529v1.882zM9.647 20.941h-1.882v-1.882h1.882v1.882zM13.412 20.941h-1.882v-1.882h1.882v1.882z"></path>
</svg>
