<!-- Generated by IcoMoon.io -->
<svg version="1.1" xmlns="http://www.w3.org/2000/svg" width="40" height="40" viewBox="0 0 40 40">
<title>th-ruler-pencil</title>
<path fill="#fff" d="M12.456 4h-3.735c-1.557 0-2.824 1.267-2.824 2.824v20.060l4.745 9.329 4.638-9.335v-20.055c-0.002-1.557-1.269-2.824-2.825-2.824zM8.721 5.882h3.735c0.518 0 0.941 0.424 0.941 0.941v1.918h-5.617v-1.918c0-0.518 0.422-0.941 0.941-0.941zM7.78 12.565v-1.941h5.617v1.941h-5.617zM11.432 30.392h-1.638l-2.014-3.96v-11.985h1.882v12.2h1.882v-12.2h1.852v11.991l-1.965 3.955zM19.059 4v32h13.176v-32h-13.176zM30.353 34.118h-9.412v-1.852h3.765v-1.882h-3.765v-1.912h1.882v-1.882h-1.882v-1.882h3.765v-1.882h-3.765v-1.852h1.882v-1.882h-1.882v-1.882h3.765v-1.882h-3.765v-1.912h1.882v-1.882h-1.882v-1.882h3.765v-1.882h-3.765v-1.882h9.412v28.235z"></path>
</svg>
