<!-- Generated by IcoMoon.io -->
<svg version="1.1" xmlns="http://www.w3.org/2000/svg" width="40" height="40" viewBox="0 0 40 40">
<title>th-receipt</title>
<path fill="#fff" d="M7.765 4v31.816l3.817-4.67 2.829 3.539 2.825-3.529 2.822 3.529 2.824-3.529 2.824 3.529 2.822-3.529 3.708 4.631v-31.785h-24.471zM30.353 30.421l-1.826-2.28-2.822 3.529-2.824-3.529-2.824 3.529-2.822-3.529-2.825 3.529-2.814-3.52-1.95 2.387v-24.655h20.706v24.538zM24.7 11.529h-11.294v-1.882h11.294v1.882zM20.936 19.059h-7.529v-1.882h7.529v1.882zM26.547 15.294h-13.176v-1.882h13.176v1.882zM13.412 22.824h13.176v1.882h-13.176v-1.882z"></path>
</svg>
