<!-- Generated by IcoMoon.io -->
<svg version="1.1" xmlns="http://www.w3.org/2000/svg" width="40" height="40" viewBox="0 0 40 40">
<title>th-reload</title>
<path fill="#fff" d="M15.294 19.059h-11.294v-11.294h1.882v7.735c1.907-6.010 7.597-10.323 14.118-10.323 6.6 0 12.463 4.442 14.257 10.803l-1.813 0.51c-1.566-5.553-6.684-9.432-12.444-9.432-6.072 0.002-11.324 4.284-12.627 10.12h7.921v1.882zM24.706 20.941v1.882h7.921c-1.304 5.837-6.549 10.118-12.627 10.118-5.764 0-10.88-3.88-12.444-9.432l-1.813 0.51c1.792 6.36 7.656 10.803 14.257 10.803 6.511 0 12.188-4.292 14.118-10.319v7.733h1.882v-11.294h-11.294z"></path>
</svg>
