<!-- Generated by IcoMoon.io -->
<svg version="1.1" xmlns="http://www.w3.org/2000/svg" width="40" height="40" viewBox="0 0 40 40">
<title>th-themify-logo</title>
<path fill="#fff" d="M8.947 16.826c-0.173 0-0.412 0.006-0.563 0.032l-0.045 0.008-0.023 0.040c-0.768 1.408-2.296 5.523-2.539 6.129-0.527-0.038-1.229-0.036-1.229-0.704 0-0.486 1.702-4.461 1.937-5.114l0.045-0.124h-0.132c-0.158 0-0.312 0.009-0.463 0.021-0.141 0.009-0.275 0.019-0.405 0.019-0.343 0-1.395 0.041-1.521-0.804-0.051-0.35 0.094-0.732 0.262-0.919 0.032 0.459 0.747 0.439 0.941 0.439 0.427 0 1.331-0.179 1.903-0.252 0.664-0.085 1.41-0.279 2.095-0.279 0.687 0 1.186 0.418 1.186 0.99 0 0.2-0.064 0.42-0.186 0.634-0.363-0.083-0.898-0.115-1.263-0.115zM16.28 22.048c-0.39 0.092-0.879 0.049-0.879-0.753 0.004-0.979 1.079-2.114 1.615-2.114 0.096 0 0.378 0.070 0.316 0.382-0.329 1.662-1.845 1.404-1.73 1.594 0.546 0.907 3.221-0.44 2.961-2.349-0.087-0.651-0.48-1.090-1.231-1.090-1.393 0-2.987 2.069-3.27 3.592-0.57 0.58-1.218 0.538-1.267 0.533-0.040-0.055-0.041-0.164 0.024-0.382 0.117-0.384 0.386-0.969 0.695-1.487 0.29-0.484 0.593-0.988 0.593-1.361 0-0.45-0.265-0.678-0.785-0.678-0.68 0-1.929 0.832-1.929 0.832 0.049-0.397 1.312-2.952 1.312-3.296 0-0.403-0.183-0.68-0.683-0.68-0.13 0-0.51 0.13-0.728 0.209-0.209 1.608-1.041 2.935-1.37 3.671-0.616 1.372-1.297 2.808-1.297 3.407 0 0.565 0.544 1.105 1.131 1.129 0.527-1.992 1.815-4.152 2.697-4.152 0 0-1.018 2.121-1.018 3.093 0 0.478 0.102 0.969 0.853 0.969 0.004 0 0.008 0 0.011 0 0.68 0.070 1.416-0.849 1.722-1.284 0.041 1.033 0.943 1.148 1.336 1.148 1.146 0 2.161-0.698 2.931-1.937-0.427 0.354-1.478 0.877-2.010 1.003zM24.162 21.414c0.040-0.154 0.151-0.461 0.418-0.979 0.335-0.651 0.792-1.54 0.792-2.078 0-0.314-0.149-0.454-0.486-0.454-0.431 0-1.048 0.393-1.613 1.026l-0.158 0.175v-0.239c0-0.625-0.184-0.941-0.542-0.941-0.459 0-1.21 0.52-1.909 1.325 0 0 0.143-0.719 0.143-0.951 0-0.489-0.429-0.561-0.683-0.561-0.136 0-0.277 0.017-0.424 0.049-0.047 0.548-0.565 1.749-1.022 2.814-0.296 0.691-0.6 1.4-0.6 1.557 0 0.501 0.341 0.824 0.864 0.824 0.026 0 0.053 0 0.081-0.002 0.386-1.297 1.419-3.2 2.152-3.2h0.126l-0.043 0.122c-0.104 0.314-0.267 0.623-0.427 0.922-0.269 0.504-0.52 0.981-0.52 1.489 0 0.414 0.386 0.638 0.749 0.638 0.092 0 0.168-0.009 0.233-0.028 0.265-1.203 1.651-3.224 2.225-3.224h0.169l-0.094 0.145c-0.169 0.267-0.855 1.538-0.855 2.44 0 0.561 0.275 0.832 0.836 0.832 0.779 0 1.336-0.719 1.555-1.5-0.254 0.175-0.476 0.211-0.713 0.211-0.19 0.002-0.348-0.038-0.254-0.412zM27.593 22.016c-0.416 0.344-0.983 0.034-0.992-0.282-0.008-0.346 0.297-0.962 0.676-1.7 0.297-0.585 0.683-0.984 0.648-1.28-0.049-0.418-0.623-0.745-0.981-0.745-0.032 0-0.062 0.002-0.094 0.006-0.017 0-0.030 0.002-0.043 0.002-0.196 0.504-0.448 1.050-0.693 1.581-0.437 0.947-0.851 1.843-0.851 2.312 0 0.587 0.397 1.224 1.039 1.224 0.67-0.034 1.020-0.326 1.291-1.116zM27.787 17.367c0.173 0 0.38-0.019 0.608-0.053 0.296-0.36 0.444-0.663 0.444-0.898 0-0.243-0.38-0.376-1.476-0.386-0.346 0.35-0.328 0.602-0.328 0.883 0.002 0.303 0.248 0.454 0.751 0.454zM34.85 17.551l-0.056 0.002-0.008 0.053c-0.119 0.904-1.975 3.96-2.319 3.093-0.077-0.196 0.143-0.719 0.329-1.154 0.213-0.497 0.452-1.060 0.427-1.376-0.006-0.072-0.030-0.132-0.066-0.184-0.021-0.045-0.060-0.096-0.132-0.141-0.058-0.038-0.136-0.066-0.232-0.090-0.22-0.064-0.489-0.075-0.708-0.068-0.248-0.004-0.521 0.006-0.8 0.023l0.017-0.051c0.265-0.866 0.971-1.673 1.171-1.796 0.491-0.303 1.148-0.376 1.295 0.294 0.124-0.282 0.16-0.363 0.124-0.576-0.105-0.649-0.587-1.001-1.346-1.043-1.378-0.072-2.362 1.944-2.835 3.098l-0.011 0.026-0.023 0.017c-0.134 0.094-0.382 0.156-0.531 0.196-0.032 0.008-0.056 0.015-0.073 0.021-0.288 0.104-0.348 0.384-0.354 0.51-0.008 0.209 0.243 0.363 0.354 0.553 0 0-0.486 1.207-0.838 1.939-0.552 1.143-1.429 3.078-1.444 3.509-0.021 0.525 0.745 1.011 1.163 1.065 0.128-0.877 2.603-6.468 2.603-6.468 0.088-0.136 0.239-0.324 0.476-0.467 0.222-0.090 0.392-0.12 0.521-0.117 0.032 0.008 0.056 0.017 0.079 0.030 0.068 0.038 0.111 0.096 0.136 0.154-0.085 0.301-0.196 0.619-0.307 0.932-0.241 0.681-0.557 1.732-0.516 2.223 0.026 0.314 0.055 0.463 0.222 0.636 0.503 0.516 1.762-0.369 2.136-0.873l0.062 0.026c-0.448 1.276-1.137 2.14-1.873 2.163-0.981 0.034-1.389-0.6-1.389-0.6s-0.166 0.61 0.495 1.286c0.296 0.301 0.734 0.425 1.182 0.392 0.030-0.002 0.060-0.006 0.090-0.008 1.807-0.196 2.594-2.246 3.228-4.173 0.088-0.271 0.393-0.988 0.484-1.246 0.051-0.139 0.115-0.29 0.175-0.435l0.008-0.017c0.143-0.348 0.237-0.584 0.23-0.702-0.040-0.446-0.608-0.668-1.15-0.655z"></path>
</svg>
