<!-- Generated by IcoMoon.io -->
<svg version="1.1" xmlns="http://www.w3.org/2000/svg" width="40" height="40" viewBox="0 0 40 40">
<title>th-thumb-down</title>
<path fill="#fff" d="M31.422 21.884c0 0.52-0.422 0.941-0.941 0.941h-4.312l-5.813 9.393c-0.898 1.506-2.061 1.734-2.673 1.734 0 0-0.002 0-0.002 0-0.913 0-1.798-0.497-2.257-1.263-0.685-1.148-0.448-2.722-0.164-3.964l0.759-3.998h-7.245c-1.594 0-2.889-1.271-2.889-2.833 0-1.032 0.565-1.937 1.408-2.432-0.288-0.393-0.471-0.856-0.471-1.372 0-0.99 0.452-1.828 1.169-2.321-0.26-0.442-0.384-0.945-0.384-1.448 0-1.082 0.617-1.999 1.538-2.456-0.25-0.482-0.305-0.971-0.305-1.299 0-1.754 1.094-2.801 2.923-2.801h10.588c1.419 0 2.398 0.76 3.112 1.318 0.412 0.32 0.802 0.625 1.071 0.625h3.959c0.52 0 0.941 0.422 0.941 0.941s-0.422 0.941-0.941 0.941h-3.959c-0.917 0-1.613-0.542-2.229-1.020-0.606-0.476-1.18-0.922-1.954-0.922h-10.588c-0.879 0-1.041 0.311-1.041 0.919 0 0.297 0 0.992 1.933 0.992h0.198c0.52 0 0.941 0.422 0.941 0.941s-0.422 0.941-0.941 0.941h-2.368c-0.578 0-0.996 0.371-0.996 0.881 0 0.847 0.845 0.973 1.35 0.973h1.412c0.52 0 0.941 0.422 0.941 0.941s-0.422 0.941-0.941 0.941h-2.703c-0.621 0-0.843 0.471-0.843 0.911 0 0.316 0.689 0.86 1.327 0.966h1.818c0.52 0 0.941 0.422 0.941 0.941s-0.422 0.941-0.941 0.941h-1.85c-0.013 0-0.024 0.008-0.038 0.008h-1.188c-0.555 0-1.007 0.427-1.007 0.951s0.452 0.951 1.007 0.951h8.382c0.28 0 0.546 0.124 0.725 0.341s0.252 0.501 0.2 0.776l-0.979 5.146c-0.117 0.514-0.448 1.969-0.062 2.616 0.1 0.166 0.343 0.346 0.64 0.346 0.369 0 0.747-0.296 1.065-0.828l6.097-9.852c0.171-0.277 0.474-0.446 0.8-0.446h4.836c0.525 0 0.945 0.422 0.945 0.941z"></path>
</svg>
