<!-- Generated by IcoMoon.io -->
<svg version="1.1" xmlns="http://www.w3.org/2000/svg" width="40" height="40" viewBox="0 0 40 40">
<title>th-twitter-alt</title>
<path fill="#fff" d="M32.712 13.483c0.021 0.284 0.021 0.568 0.021 0.855 0 8.668-6.6 18.658-18.66 18.658-3.716 0-7.168-1.077-10.072-2.944 0.529 0.060 1.037 0.079 1.585 0.079 3.066 0 5.886-1.035 8.141-2.801-2.884-0.060-5.299-1.95-6.131-4.55 0.405 0.060 0.811 0.102 1.235 0.102 0.591 0 1.18-0.081 1.728-0.222-3.004-0.61-5.259-3.249-5.259-6.436 0-0.021 0-0.062 0-0.081 0.873 0.486 1.888 0.791 2.965 0.832-1.766-1.178-2.923-3.189-2.923-5.461 0-1.218 0.326-2.336 0.894-3.311 3.228 3.981 8.081 6.581 13.523 6.863-0.104-0.488-0.164-0.996-0.164-1.504 0-3.612 2.925-6.556 6.558-6.556 1.888 0 3.593 0.791 4.792 2.071 1.481-0.284 2.901-0.832 4.162-1.583-0.488 1.523-1.523 2.803-2.884 3.612 1.321-0.141 2.6-0.506 3.778-1.015-0.894 1.299-2.010 2.458-3.288 3.392z"></path>
</svg>
