<!-- Generated by IcoMoon.io -->
<svg version="1.1" xmlns="http://www.w3.org/2000/svg" width="40" height="40" viewBox="0 0 40 40">
<title>th-thought</title>
<path fill="#fff" d="M25.647 23.042c5.709 0 10.353-4.271 10.353-9.521s-4.644-9.521-10.353-9.521c-3.599 0-6.952 1.766-8.817 4.576-1.327-0.751-2.816-1.144-4.36-1.144-4.67 0-8.471 3.501-8.471 7.806 0 4.303 3.8 7.804 8.471 7.804 0.35 0 0.706-0.024 1.079-0.070 1.227 1.107 2.865 1.734 4.568 1.734 1.886 0 3.631-0.728 4.879-2.014 0.919 0.235 1.79 0.35 2.65 0.35zM22.344 20.536l-0.399 0.504c-0.887 1.116-2.317 1.783-3.827 1.783-1.363 0-2.662-0.546-3.567-1.5l-0.346-0.363-0.497 0.087c-0.403 0.070-0.811 0.113-1.237 0.113-3.633 0-6.588-2.656-6.588-5.92 0-3.266 2.955-5.924 6.588-5.924 1.491 0 2.916 0.463 4.12 1.342l0.888 0.646 0.503-0.979c1.389-2.697 4.397-4.442 7.665-4.442 4.67 0 8.471 3.426 8.471 7.64 0 4.211-3.8 7.639-8.471 7.639-0.853 0-1.734-0.141-2.69-0.435l-0.614-0.19zM25.647 23.765c-2.076 0-3.765 1.688-3.765 3.765s1.688 3.765 3.765 3.765 3.765-1.688 3.765-3.765-1.688-3.765-3.765-3.765zM25.647 29.412c-1.037 0-1.882-0.843-1.882-1.882s0.845-1.882 1.882-1.882 1.882 0.843 1.882 1.882-0.845 1.882-1.882 1.882zM32.706 30.353c-1.297 0-2.353 1.056-2.353 2.353s1.056 2.353 2.353 2.353 2.353-1.056 2.353-2.353-1.056-2.353-2.353-2.353zM32.235 32.706c0-0.26 0.211-0.471 0.471-0.471s0.471 0.211 0.471 0.471c0 0.518-0.941 0.518-0.941 0z"></path>
</svg>
