<!-- Generated by IcoMoon.io -->
<svg version="1.1" xmlns="http://www.w3.org/2000/svg" width="40" height="40" viewBox="0 0 40 40">
<title>th-wheelchair</title>
<path fill="#fff" d="M24.52 28.188l1.839 0.401c-0.951 4.363-4.727 7.411-9.182 7.411-5.19 0-9.412-4.222-9.412-9.412 0-4.273 2.882-8.017 7.012-9.103l0.478 1.82c-3.302 0.87-5.608 3.864-5.608 7.283 0 4.152 3.377 7.529 7.529 7.529 3.563 0 6.583-2.438 7.343-5.929zM34.118 32.463v1.882h-3.516l-1.798-7.752h-11.592l-1.024-15.213c-1.594-0.439-2.776-1.884-2.776-3.616 0-2.076 1.688-3.765 3.765-3.765s3.765 1.688 3.765 3.765c0 1.766-1.224 3.238-2.863 3.644l0.508 7.55 6.837-1.696 0.452 1.828-7.162 1.775 0.26 3.844h11.328l1.798 7.752h2.020zM17.176 9.647c1.039 0 1.882-0.845 1.882-1.882s-0.843-1.882-1.882-1.882-1.882 0.845-1.882 1.882 0.843 1.882 1.882 1.882z"></path>
</svg>
