<!-- Generated by IcoMoon.io -->
<svg version="1.1" xmlns="http://www.w3.org/2000/svg" width="40" height="40" viewBox="0 0 40 40">
<title>th-zip</title>
<path fill="#fff" d="M22.197 4h-14.432v32h24.471v-22.008l-10.039-9.992zM22.824 7.279l6.161 6.133h-6.161v-6.133zM9.647 34.118v-28.235h5.647v1.882h1.882v-1.882h3.765v9.412h9.412v18.824h-20.706zM13.412 19.059h1.882v1.882h-1.882v-1.882zM15.294 19.059v-1.882h1.882v1.882h-1.882zM15.294 15.294v-1.882h1.882v1.882h-1.882zM13.412 15.294h1.882v1.882h-1.882v-1.882zM13.412 11.529h1.882v1.882h-1.882v-1.882zM15.294 11.529v-1.882h1.882v1.882h-1.882zM13.412 7.765h1.882v1.882h-1.882v-1.882zM15.294 21.673c-2.076 0-3.765 1.688-3.765 3.765s1.688 3.765 3.765 3.765c0.117 0 0.228-0.013 0.412-0.038 1.216-0.134 2.293-0.856 2.882-1.931 0.312-0.57 0.471-1.175 0.471-1.796 0-2.076-1.688-3.765-3.765-3.765zM16.937 26.332c-0.294 0.536-0.83 0.898-1.434 0.964l-0.211 0.026c-1.037 0-1.88-0.845-1.88-1.882s0.845-1.882 1.882-1.882 1.882 0.845 1.882 1.882c0 0.299-0.081 0.6-0.239 0.892z"></path>
</svg>
