<!-- Generated by IcoMoon.io -->
<svg version="1.1" xmlns="http://www.w3.org/2000/svg" width="24" height="24" viewBox="0 0 24 24">
<title>timer_off</title>
<path fill="#fff" d="M12 18.413q1.462 0 2.813-0.788l-7.65-7.65q-0.75 1.275-0.75 2.813 0 2.325 1.631 3.975t3.956 1.65zM4.8 5.588l14.213 14.212-1.013 1.013-2.025-2.025q-1.875 1.2-3.975 1.2-3 0-5.1-2.119t-2.1-5.081q0-0.9 0.356-2.081t0.844-1.894l-2.212-2.213zM11.212 9.938v-1.125h1.575v2.738zM14.4 3.188v1.613h-4.8v-1.613h4.8zM17.625 6.038l1.125 1.125-1.125 1.163q1.575 1.988 1.575 4.463v0.037q0 0.9-0.356 2.063t-0.844 1.875l-1.163-1.163q0.75-1.275 0.75-2.813 0-2.325-1.631-3.956t-3.956-1.631q-1.5 0-2.775 0.75l-1.2-1.163q1.912-1.2 3.975-1.2 1.050 0 2.363 0.469t2.137 1.106z"></path>
</svg>
