<!-- Generated by IcoMoon.io -->
<svg version="1.1" xmlns="http://www.w3.org/2000/svg" width="24" height="24" viewBox="0 0 24 24">
<title>timer_3</title>
<path fill="#fff" d="M16.425 10.762q-0.487 0-0.825 0.225t-0.337 0.637v0.038q0 0.45 0.75 0.712 0.262 0.112 0.675 0.188t1.088 0.3q0.3 0.112 0.825 0.45 0.262 0.188 0.488 0.6 0.188 0.375 0.188 0.787 0 1.388-1.65 1.95-0.45 0.15-1.162 0.15-2.1 0-2.738-1.462-0.188-0.45-0.188-0.825h1.5q0 0.487 0.431 0.806t1.031 0.319q1.238 0 1.238-0.862 0-0.225-0.113-0.394t-0.225-0.225-0.375-0.169q-0.188-0.075-0.788-0.225-1.050-0.225-1.8-0.713-0.675-0.45-0.675-1.35 0-1.425 1.575-1.95 0.45-0.15 1.087-0.15 1.313 0 2.063 0.637 0.75 0.6 0.75 1.575h-1.575q0-0.75-0.712-0.938-0.45-0.113-0.525-0.113zM10.462 11.887q1.575 0.525 1.575 2.175 0 1.388-0.9 2.063-0.863 0.75-2.25 0.75t-2.269-0.712-0.881-1.988h1.612q0 0.75 0.413 1.050 0.488 0.375 1.125 0.375 1.575 0 1.575-1.538t-1.725-1.538h-0.975v-1.237h0.938q1.2 0 1.537-0.863 0.075-0.188 0.075-0.6 0-1.425-1.425-1.425-0.975 0-1.35 0.75-0.112 0.225-0.112 0.563h-1.575q0-1.688 1.8-2.4 0.638-0.188 1.238-0.188 1.425 0 2.213 0.675t0.787 2.025-1.425 2.063z"></path>
</svg>
