<!-- Generated by IcoMoon.io -->
<svg version="1.1" xmlns="http://www.w3.org/2000/svg" width="24" height="24" viewBox="0 0 24 24">
<title>tonality</title>
<path fill="#fff" d="M18.188 13.612q0.075-0.225 0.15-0.825h-5.55v0.825h5.4zM16.987 16.013q0.45-0.638 0.563-0.825h-4.762v0.825h4.2zM12.788 18.337q1.2-0.15 2.325-0.75h-2.325v0.75zM12.788 10.387v0.825h5.55q-0.075-0.6-0.15-0.825h-5.4zM12.788 7.988v0.825h4.762q-0.112-0.188-0.563-0.825h-4.2zM12.788 5.662v0.75h2.325q-1.125-0.6-2.325-0.75zM11.212 18.337v-12.675q-2.362 0.3-3.994 2.1t-1.631 4.237 1.631 4.237 3.994 2.1zM12 4.012q3.3 0 5.644 2.344t2.344 5.644-2.344 5.644-5.644 2.344-5.644-2.344-2.344-5.644 2.344-5.644 5.644-2.344z"></path>
</svg>
