<!-- Generated by IcoMoon.io -->
<svg version="1.1" xmlns="http://www.w3.org/2000/svg" width="40" height="40" viewBox="0 0 40 40">
<title>ul-angle-right-b</title>
<path fill="#fff" d="M23.776 19.242l-6.038-6.026c-0.194-0.195-0.462-0.315-0.758-0.315s-0.564 0.121-0.758 0.315v0c-0.192 0.193-0.31 0.458-0.31 0.752s0.118 0.559 0.31 0.752v0l5.28 5.334-5.28 5.28c-0.192 0.193-0.31 0.458-0.31 0.752s0.118 0.559 0.31 0.752v0c0.193 0.197 0.461 0.318 0.757 0.32v0c0.297-0.002 0.565-0.123 0.757-0.32v0l6.038-6.026c0.211-0.195 0.343-0.474 0.343-0.784s-0.132-0.589-0.342-0.783l-0.001-0.001z"></path>
</svg>
