<!-- Generated by IcoMoon.io -->
<svg version="1.1" xmlns="http://www.w3.org/2000/svg" width="40" height="40" viewBox="0 0 40 40">
<title>ul-arrow-resize-diagonal</title>
<path fill="#fff" d="M30.582 9.994c-0.11-0.262-0.314-0.466-0.569-0.574l-0.007-0.002c-0.119-0.052-0.258-0.083-0.405-0.086h-6.401c-0.589 0-1.066 0.478-1.066 1.066s0.478 1.066 1.066 1.066v0h3.83l-15.562 15.562v-3.83c0-0.589-0.478-1.066-1.066-1.066s-1.066 0.478-1.066 1.066v0 6.4c0.002 0.147 0.033 0.286 0.088 0.412l-0.002-0.007c0.11 0.262 0.314 0.466 0.569 0.574l0.007 0.002c0.119 0.052 0.258 0.083 0.405 0.086h6.401c0.589 0 1.066-0.478 1.066-1.066s-0.478-1.066-1.066-1.066v0h-3.83l15.562-15.562v3.83c0 0.589 0.478 1.066 1.066 1.066s1.066-0.478 1.066-1.066v0-6.4c-0.002-0.147-0.033-0.286-0.088-0.412l0.002 0.007z"></path>
</svg>
