<!-- Generated by IcoMoon.io -->
<svg version="1.1" xmlns="http://www.w3.org/2000/svg" width="40" height="40" viewBox="0 0 40 40">
<title>ul-apple-alt</title>
<path fill="#fff" d="M29.071 23.993c-1.3-0.566-2.192-1.839-2.192-3.321 0-0.005 0-0.010 0-0.015v0.001c0.018-1.328 0.727-2.486 1.784-3.134l0.016-0.010c0.306-0.191 0.506-0.526 0.506-0.907 0-0.225-0.070-0.434-0.189-0.606l0.002 0.003c-0.972-1.399-2.5-2.354-4.258-2.542l-0.026-0.002c0.662-1.035 1.054-2.298 1.054-3.652 0-0.208-0.010-0.413-0.027-0.616l0.002 0.026c-0.051-0.537-0.5-0.953-1.046-0.953-0.020 0-0.040 0.001-0.059 0.002h0.002c-1.899 0.174-3.561 1.068-4.733 2.403l-0.007 0.008c-0.741 0.854-1.29 1.896-1.568 3.043l-0.010 0.050c-0.514-0.18-1.107-0.288-1.724-0.296h-0.004c-2.278 0.066-4.246 1.328-5.307 3.178l-0.016 0.031c-2.014 3.496-0.782 8.734 1.399 11.887 0.875 1.263 2.188 3.161 4.169 3.161 0.039 0 0.078 0 0.118-0.002 0.702-0.041 1.354-0.219 1.942-0.508l-0.030 0.013c0.449-0.232 0.978-0.371 1.54-0.377h0.002c0.53 0.006 1.027 0.139 1.466 0.369l-0.018-0.009c0.612 0.297 1.33 0.474 2.089 0.486h0.004c2.041-0.038 3.246-1.799 4.126-3.086 0.657-0.954 1.204-2.052 1.588-3.225l0.026-0.091c0.030-0.095 0.049-0.205 0.049-0.318 0-0.447-0.274-0.83-0.664-0.99l-0.007-0.002zM21.518 12.072c0.55-0.614 1.237-1.095 2.011-1.398l0.036-0.012c-0.184 0.886-0.571 1.661-1.112 2.302l0.006-0.008c-0.374 0.446-0.821 0.817-1.325 1.098l-0.024 0.012-0.003 0.001c-0.030 0.013-0.061 0.024-0.090 0.037-0.199 0.078-0.445 0.175-0.634 0.238 0.196-0.878 0.593-1.644 1.14-2.275l-0.006 0.006zM26.32 27.416c-0.858 1.252-1.532 2.141-2.405 2.156-0.443-0.002-0.858-0.117-1.219-0.318l0.013 0.006c-0.67-0.334-1.459-0.531-2.294-0.535h-0.002c-0.865 0.005-1.682 0.206-2.41 0.562l0.033-0.014c-0.337 0.175-0.73 0.293-1.147 0.326l-0.011 0.001h-0.032c-0.867 0-1.8-1.347-2.419-2.242-1.55-2.239-2.978-6.702-1.305-9.608 0.706-1.248 2.004-2.088 3.503-2.139h0.007l0.036-0.001c0.646 0.056 1.24 0.225 1.781 0.487l-0.030-0.014c0.14 0.055 0.278 0.11 0.415 0.162 0.035 0.014 0.071 0.028 0.107 0.039 0.351 0.146 0.758 0.237 1.186 0.253h0.006c0.615-0.050 1.182-0.21 1.696-0.462l-0.028 0.012c0.674-0.334 1.469-0.53 2.309-0.53 0.022 0 0.044 0 0.066 0.001h-0.003c0.918 0.037 1.75 0.374 2.407 0.916l-0.007-0.006c-1.125 1.038-1.826 2.52-1.826 4.166 0 0.015 0 0.030 0 0.045v-0.002c0 0.010 0 0.023 0 0.036 0 1.994 1.033 3.747 2.593 4.754l0.022 0.014c-0.31 0.742-0.659 1.378-1.066 1.973l0.024-0.038z"></path>
</svg>
