<!-- Generated by IcoMoon.io -->
<svg version="1.1" xmlns="http://www.w3.org/2000/svg" width="40" height="40" viewBox="0 0 40 40">
<title>ul-apps</title>
<path fill="#fff" d="M17.866 21.066h-7.466c-0.589 0-1.066 0.478-1.066 1.066v0 7.466c0 0.589 0.478 1.066 1.066 1.066v0h7.466c0.589 0 1.066-0.478 1.066-1.066v0-7.466c0-0.589-0.478-1.066-1.066-1.066v0zM16.8 28.534h-5.334v-5.334h5.334zM29.6 9.334h-7.466c-0.589 0-1.066 0.478-1.066 1.066v0 7.466c0 0.589 0.478 1.066 1.066 1.066v0h7.466c0.589 0 1.066-0.478 1.066-1.066v0-7.466c0-0.589-0.478-1.066-1.066-1.066v0zM28.534 16.8h-5.334v-5.334h5.334zM29.6 21.066h-7.466c-0.589 0-1.066 0.478-1.066 1.066v0 7.466c0 0.589 0.478 1.066 1.066 1.066v0h7.466c0.589 0 1.066-0.478 1.066-1.066v0-7.466c0-0.589-0.478-1.066-1.066-1.066v0zM28.534 28.534h-5.334v-5.334h5.334zM17.866 9.334h-7.466c-0.589 0-1.066 0.478-1.066 1.066v0 7.466c0 0.589 0.478 1.066 1.066 1.066v0h7.466c0.589 0 1.066-0.478 1.066-1.066v0-7.466c0-0.589-0.478-1.066-1.066-1.066v0zM16.8 16.8h-5.334v-5.334h5.334z"></path>
</svg>
