<!-- Generated by IcoMoon.io -->
<svg version="1.1" xmlns="http://www.w3.org/2000/svg" width="40" height="40" viewBox="0 0 40 40">
<title>ul-auto-flash</title>
<path fill="#fff" d="M26.262 16.374c-0.162-0.366-0.513-0.62-0.926-0.64h-4.888l1.354-5.056c0.024-0.084 0.038-0.181 0.038-0.281 0-0.245-0.082-0.47-0.221-0.65l0.002 0.002c-0.197-0.254-0.502-0.416-0.846-0.416-0.003 0-0.006 0-0.009 0h-7.466c-0.011-0.001-0.024-0.001-0.037-0.001-0.49 0-0.904 0.331-1.029 0.782l-0.002 0.007-2.858 10.666c-0.023 0.083-0.037 0.179-0.037 0.278 0 0.589 0.478 1.066 1.066 1.066 0.013 0 0.026 0 0.038-0.001h4.105l-1.93 7.19c-0.024 0.084-0.038 0.181-0.038 0.281 0 0.589 0.478 1.066 1.066 1.066 0.315 0 0.599-0.137 0.794-0.354l0.001-0.001 11.626-12.8c0.173-0.189 0.279-0.442 0.279-0.719 0-0.153-0.032-0.298-0.090-0.429l0.002 0.007zM15.818 25.632l1.152-4.266c0.029-0.092 0.045-0.197 0.045-0.306 0-0.242-0.081-0.466-0.218-0.646l0.002 0.002c-0.197-0.254-0.502-0.416-0.846-0.416-0.006 0-0.013 0-0.020 0h-4.095l2.282-8.534h5.258l-1.354 5.056c-0.023 0.083-0.037 0.179-0.037 0.278 0 0.589 0.478 1.066 1.066 1.066 0.013 0 0.026 0 0.038-0.001h3.806zM27.466 21.066h-1.066c-1.767 0-3.2 1.433-3.2 3.2v0 5.334c0 0.589 0.478 1.066 1.066 1.066s1.066-0.478 1.066-1.066v0-2.134h3.2v2.134c0 0.589 0.478 1.066 1.066 1.066s1.066-0.478 1.066-1.066v0-5.334c0-1.767-1.433-3.2-3.2-3.2v0zM28.534 25.334h-3.2v-1.066c0-0.589 0.478-1.066 1.066-1.066v0h1.066c0.589 0 1.066 0.478 1.066 1.066v0z"></path>
</svg>
