<!-- Generated by IcoMoon.io -->
<svg version="1.1" xmlns="http://www.w3.org/2000/svg" width="40" height="40" viewBox="0 0 40 40">
<title>ul-archive</title>
<path fill="#fff" d="M17.866 22.134h4.266c0.589 0 1.066-0.478 1.066-1.066s-0.478-1.066-1.066-1.066v0h-4.266c-0.589 0-1.066 0.478-1.066 1.066s0.478 1.066 1.066 1.066v0zM27.466 10.4h-14.934c-1.767 0-3.2 1.433-3.2 3.2v0 3.2c0 0.589 0.478 1.066 1.066 1.066v0h1.066v8.534c0 1.767 1.433 3.2 3.2 3.2v0h10.666c1.767 0 3.2-1.433 3.2-3.2v0-8.534h1.066c0.589 0 1.066-0.478 1.066-1.066v0-3.2c0-1.767-1.433-3.2-3.2-3.2v0zM26.4 26.4c0 0.589-0.478 1.066-1.066 1.066v0h-10.666c-0.589 0-1.066-0.478-1.066-1.066v0-8.534h12.8zM28.534 15.734h-17.066v-2.134c0-0.589 0.478-1.066 1.066-1.066v0h14.934c0.589 0 1.066 0.478 1.066 1.066v0z"></path>
</svg>
