<!-- Generated by IcoMoon.io -->
<svg version="1.1" xmlns="http://www.w3.org/2000/svg" width="40" height="40" viewBox="0 0 40 40">
<title>ul-align-center</title>
<path fill="#fff" d="M10.4 14.666h19.2c0.589 0 1.066-0.478 1.066-1.066s-0.478-1.066-1.066-1.066v0h-19.2c-0.589 0-1.066 0.478-1.066 1.066s0.478 1.066 1.066 1.066v0zM14.666 16.8c-0.589 0-1.066 0.478-1.066 1.066s0.478 1.066 1.066 1.066v0h10.666c0.589 0 1.066-0.478 1.066-1.066s-0.478-1.066-1.066-1.066v0zM29.6 21.066h-19.2c-0.589 0-1.066 0.478-1.066 1.066s0.478 1.066 1.066 1.066v0h19.2c0.589 0 1.066-0.478 1.066-1.066s-0.478-1.066-1.066-1.066v0zM25.334 25.334h-10.666c-0.589 0-1.066 0.478-1.066 1.066s0.478 1.066 1.066 1.066v0h10.666c0.589 0 1.066-0.478 1.066-1.066s-0.478-1.066-1.066-1.066v0z"></path>
</svg>
