<!-- Generated by IcoMoon.io -->
<svg version="1.1" xmlns="http://www.w3.org/2000/svg" width="40" height="40" viewBox="0 0 40 40">
<title>ul-amazon</title>
<path fill="#fff" d="M8.31 25.888q0.106-0.17 0.342-0.022c3.28 1.945 7.23 3.094 11.448 3.094 0.055 0 0.11 0 0.166-0.001h-0.009c2.972-0.007 5.809-0.578 8.411-1.612l-0.155 0.054q0.106-0.042 0.31-0.128t0.288-0.128c0.053-0.029 0.115-0.046 0.182-0.046 0.134 0 0.251 0.069 0.318 0.173l0.001 0.002q0.182 0.256-0.118 0.47-0.384 0.278-0.982 0.64c-1.179 0.702-2.542 1.28-3.985 1.66l-0.111 0.025c-1.322 0.372-2.842 0.59-4.411 0.598h-0.005c-0.029 0-0.063 0-0.098 0-2.229 0-4.358-0.427-6.311-1.203l0.115 0.041c-2.049-0.81-3.81-1.917-5.327-3.288l0.015 0.014c-0.070-0.048-0.119-0.124-0.128-0.212v-0.002c0.001-0.048 0.017-0.093 0.043-0.129l-0.001 0.001zM14.73 19.808c-0.001-0.037-0.002-0.080-0.002-0.123 0-0.893 0.272-1.722 0.737-2.41l-0.010 0.015c0.494-0.699 1.168-1.242 1.954-1.568l0.030-0.011c0.827-0.341 1.787-0.589 2.789-0.7l0.048-0.004q0.576-0.064 1.878-0.17v-0.362c0.009-0.098 0.014-0.211 0.014-0.326 0-0.546-0.115-1.065-0.322-1.534l0.010 0.024c-0.294-0.393-0.759-0.645-1.283-0.645-0.044 0-0.087 0.002-0.13 0.006h-0.165c-0.461 0.034-0.878 0.197-1.222 0.453l0.006-0.005c-0.337 0.258-0.576 0.629-0.659 1.055l-0.002 0.011c-0.018 0.242-0.193 0.439-0.423 0.49l-0.003 0.001-2.454-0.298q-0.362-0.086-0.362-0.384c0.001-0.054 0.009-0.105 0.022-0.154l-0.001 0.005c0.176-1.181 0.835-2.18 1.766-2.806l0.014-0.010c0.942-0.602 2.082-0.977 3.305-1.024h0.546c0.097-0.006 0.21-0.010 0.323-0.010 1.327 0 2.542 0.479 3.482 1.275l-0.008-0.006c0.139 0.139 0.269 0.29 0.387 0.448l0.008 0.011c0.096 0.126 0.191 0.269 0.278 0.418l0.010 0.020c0.082 0.16 0.149 0.346 0.19 0.54l0.002 0.014q0.086 0.362 0.128 0.502c0.039 0.179 0.062 0.385 0.064 0.596v0.002q0.022 0.458 0.022 0.544v5.162c0 0.010 0 0.023 0 0.036 0 0.35 0.058 0.686 0.166 0.998l-0.006-0.022c0.078 0.252 0.184 0.471 0.315 0.671l-0.006-0.010q0.15 0.202 0.49 0.65c0.072 0.094 0.118 0.212 0.128 0.339v0.002c-0.005 0.126-0.070 0.234-0.169 0.298l-0.002 0.001q-1.77 1.536-1.92 1.664c-0.096 0.069-0.215 0.11-0.344 0.11-0.1 0-0.195-0.025-0.278-0.069l0.003 0.002q-0.298-0.256-0.522-0.49t-0.32-0.342c-0.102-0.122-0.204-0.258-0.298-0.398l-0.011-0.018q-0.214-0.31-0.298-0.416c-0.609 0.734-1.402 1.293-2.31 1.61l-0.037 0.011c-0.495 0.137-1.063 0.215-1.65 0.215-0.050 0-0.1-0.001-0.15-0.002h0.007c-0.041 0.002-0.089 0.002-0.137 0.002-0.992 0-1.894-0.386-2.564-1.018l0.002 0.002c-0.658-0.681-1.063-1.61-1.063-2.633 0-0.083 0.002-0.166 0.008-0.248l-0.001 0.011zM18.4 19.382c-0.002 0.030-0.002 0.066-0.002 0.102 0 0.466 0.158 0.894 0.422 1.236l-0.003-0.005c0.255 0.308 0.638 0.502 1.065 0.502 0.019 0 0.038-0.001 0.058-0.001h-0.002c0.066-0.002 0.128-0.010 0.189-0.022l-0.007 0.002c0.046-0.010 0.101-0.018 0.157-0.021h0.003c0.616-0.17 1.111-0.59 1.381-1.139l0.006-0.013c0.15-0.255 0.27-0.55 0.347-0.862l0.005-0.023c0.063-0.227 0.109-0.493 0.127-0.766l0.001-0.013q0.010-0.298 0.010-0.982v-0.534c-0.071-0.002-0.156-0.004-0.24-0.004-0.58 0-1.145 0.063-1.689 0.184l0.052-0.010c-1.076 0.2-1.88 1.131-1.88 2.25 0 0.042 0.001 0.082 0.003 0.123v-0.006zM27.36 26.25c0.035-0.066 0.078-0.122 0.128-0.17v0c0.293-0.21 0.634-0.378 1-0.485l0.024-0.006c0.468-0.131 1.010-0.215 1.567-0.234h0.011c0.041-0.005 0.089-0.007 0.137-0.007 0.095 0 0.188 0.010 0.278 0.030l-0.009-0.002q0.96 0.086 1.152 0.32c0.054 0.098 0.087 0.214 0.087 0.338 0 0.017-0.001 0.033-0.002 0.049v-0.002 0.15c-0.026 0.642-0.173 1.243-0.418 1.791l0.012-0.031c-0.249 0.649-0.635 1.196-1.126 1.628l-0.005 0.004c-0.050 0.047-0.118 0.078-0.19 0.086h-0.002c-0.031 0-0.061-0.008-0.086-0.022l0.001 0.001q-0.128-0.064-0.064-0.234c0.383-0.749 0.661-1.62 0.785-2.539l0.005-0.042c0.001-0.014 0.002-0.029 0.002-0.045 0-0.11-0.033-0.213-0.089-0.298l0.002 0.002q-0.214-0.256-1.194-0.256-0.362 0-0.854 0.042-0.534 0.064-0.982 0.128c-0.009 0.001-0.019 0.002-0.030 0.002-0.053 0-0.102-0.017-0.142-0.045l0.001 0.001c-0.017-0.013-0.028-0.033-0.028-0.056 0-0.010 0.002-0.021 0.006-0.030v0.001c0.003-0.024 0.010-0.046 0.022-0.065l-0.001 0.001z"></path>
</svg>
