<!-- Generated by IcoMoon.io -->
<svg version="1.1" xmlns="http://www.w3.org/2000/svg" width="40" height="40" viewBox="0 0 40 40">
<title>ul-anchor</title>
<path fill="#fff" d="M27.466 21.066h-2.134c-0.589 0-1.066 0.478-1.066 1.066s0.478 1.066 1.066 1.066v0h0.97c-0.468 2.683-2.554 4.769-5.199 5.232l-0.038 0.006v-9.504h1.066c0.589 0 1.066-0.478 1.066-1.066s-0.478-1.066-1.066-1.066v0h-1.066v-1.258c1.254-0.453 2.134-1.632 2.134-3.017 0-1.767-1.433-3.2-3.2-3.2s-3.2 1.433-3.2 3.2c0 1.385 0.88 2.565 2.111 3.010l0.022 0.007v1.258h-1.066c-0.589 0-1.066 0.478-1.066 1.066s0.478 1.066 1.066 1.066v0h1.066v9.504c-2.683-0.468-4.769-2.554-5.232-5.199l-0.006-0.038h0.97c0.589 0 1.066-0.478 1.066-1.066s-0.478-1.066-1.066-1.066v0h-2.134c-0.589 0-1.066 0.478-1.066 1.066v0c0 4.713 3.821 8.534 8.534 8.534s8.534-3.821 8.534-8.534v0c0-0.589-0.478-1.066-1.066-1.066v0zM20 13.6c-0.589 0-1.066-0.478-1.066-1.066s0.478-1.066 1.066-1.066c0.589 0 1.066 0.478 1.066 1.066v0c0 0.589-0.478 1.066-1.066 1.066v0z"></path>
</svg>
