<!-- Generated by IcoMoon.io -->
<svg version="1.1" xmlns="http://www.w3.org/2000/svg" width="40" height="40" viewBox="0 0 40 40">
<title>ul-arrow-down-right</title>
<path fill="#fff" d="M25.334 13.6c-0.589 0-1.066 0.478-1.066 1.066v0 8.096l-8.842-8.854c-0.194-0.194-0.462-0.314-0.758-0.314-0.591 0-1.071 0.479-1.071 1.071 0 0.296 0.12 0.563 0.314 0.758v0l8.854 8.842h-8.096c-0.589 0-1.066 0.478-1.066 1.066s0.478 1.066 1.066 1.066v0h10.666c0.147-0.002 0.286-0.033 0.412-0.088l-0.007 0.002c0.262-0.11 0.466-0.314 0.574-0.569l0.002-0.007c0.052-0.119 0.083-0.258 0.086-0.405v-10.667c0-0.589-0.478-1.066-1.066-1.066v0z"></path>
</svg>
