<!-- Generated by IcoMoon.io -->
<svg version="1.1" xmlns="http://www.w3.org/2000/svg" width="40" height="40" viewBox="0 0 40 40">
<title>ul-angle-down</title>
<path fill="#fff" d="M25.334 16.982c-0.193-0.192-0.458-0.31-0.752-0.31s-0.559 0.118-0.752 0.31v0l-3.83 3.776-3.776-3.776c-0.193-0.192-0.458-0.31-0.752-0.31s-0.559 0.118-0.752 0.31v0c-0.195 0.194-0.315 0.462-0.315 0.758s0.121 0.564 0.315 0.758l4.522 4.522c0.194 0.195 0.462 0.315 0.758 0.315s0.564-0.121 0.758-0.315v0l4.576-4.522c0.195-0.194 0.315-0.462 0.315-0.758s-0.121-0.564-0.315-0.758v0z"></path>
</svg>
