<!-- Generated by IcoMoon.io -->
<svg version="1.1" xmlns="http://www.w3.org/2000/svg" width="40" height="40" viewBox="0 0 40 40">
<title>ul-bag-alt</title>
<path fill="#fff" d="M27.466 14.134h-3.2v-1.066c0-1.767-1.433-3.2-3.2-3.2v0h-2.134c-1.767 0-3.2 1.433-3.2 3.2v0 1.066h-3.2c-1.767 0-3.2 1.433-3.2 3.2v0 9.6c0 1.767 1.433 3.2 3.2 3.2v0h14.934c1.767 0 3.2-1.433 3.2-3.2v0-9.6c0-1.767-1.433-3.2-3.2-3.2v0zM17.866 13.066c0-0.589 0.478-1.066 1.066-1.066v0h2.134c0.589 0 1.066 0.478 1.066 1.066v0 1.066h-4.266zM28.534 26.934c0 0.589-0.478 1.066-1.066 1.066v0h-14.934c-0.589 0-1.066-0.478-1.066-1.066v0-5.866c2.527 1.032 5.46 1.631 8.533 1.632v0c3.073-0.002 6.006-0.601 8.689-1.688l-0.155 0.056zM28.534 18.73c-2.512 1.132-5.446 1.792-8.534 1.792s-6.022-0.659-8.668-1.846l0.134 0.054v-1.398c0-0.589 0.478-1.066 1.066-1.066v0h14.934c0.589 0 1.066 0.478 1.066 1.066v0z"></path>
</svg>
