<!-- Generated by IcoMoon.io -->
<svg version="1.1" xmlns="http://www.w3.org/2000/svg" width="40" height="40" viewBox="0 0 40 40">
<title>ul-bag</title>
<path fill="#fff" d="M27.466 13.6h-3.2v-1.066c0-1.178-0.955-2.134-2.134-2.134v0h-4.266c-1.178 0-2.134 0.955-2.134 2.134v0 1.066h-3.2c-1.767 0-3.2 1.433-3.2 3.2v0 9.6c0 1.767 1.433 3.2 3.2 3.2v0h14.934c1.767 0 3.2-1.433 3.2-3.2v0-9.6c0-1.767-1.433-3.2-3.2-3.2v0zM17.866 12.534h4.266v1.066h-4.266zM28.534 26.4c0 0.589-0.478 1.066-1.066 1.066v0h-14.934c-0.589 0-1.066-0.478-1.066-1.066v0-5.984l4.992 1.718c0.051 0.007 0.11 0.011 0.17 0.011s0.119-0.004 0.178-0.012l-0.006 0.001h6.4c0.122-0.002 0.24-0.022 0.35-0.056l-0.009 0.002 4.992-1.664zM28.534 18.166l-5.504 1.834h-6.058l-5.504-1.834v-1.366c0-0.589 0.478-1.066 1.066-1.066v0h14.934c0.589 0 1.066 0.478 1.066 1.066v0z"></path>
</svg>
