<!-- Generated by IcoMoon.io -->
<svg version="1.1" xmlns="http://www.w3.org/2000/svg" width="40" height="40" viewBox="0 0 40 40">
<title>ul-bus-alt</title>
<path fill="#fff" d="M26.934 9.334h-12.8c-1.767 0-3.2 1.433-3.2 3.2v0 12.8c0.004 1.382 0.882 2.557 2.111 3.001l0.022 0.007v1.258c0 0.589 0.478 1.066 1.066 1.066s1.066-0.478 1.066-1.066v0-1.066h10.666v1.066c0 0.589 0.478 1.066 1.066 1.066s1.066-0.478 1.066-1.066v0-1.258c1.25-0.451 2.13-1.626 2.134-3.007v-12.801c0-1.767-1.433-3.2-3.2-3.2v0zM13.066 15.734h6.4v4.266h-6.4zM28 25.334c0 0.589-0.478 1.066-1.066 1.066v0h-12.8c-0.589 0-1.066-0.478-1.066-1.066v0-3.2h14.934zM28 20h-6.4v-4.266h6.4zM28 13.6h-14.934v-1.066c0-0.589 0.478-1.066 1.066-1.066v0h12.8c0.589 0 1.066 0.478 1.066 1.066v0zM24.394 25.248c0.119 0.052 0.258 0.083 0.405 0.086h0.001c0.589 0 1.066-0.478 1.066-1.066v0c0.002-0.032 0.004-0.069 0.004-0.106s-0.002-0.074-0.004-0.111v0.005c-0.013-0.072-0.035-0.137-0.066-0.196l0.002 0.004c-0.026-0.074-0.058-0.137-0.098-0.194l0.002 0.002c-0.042-0.060-0.084-0.112-0.13-0.162l0.002 0.002-0.16-0.128c-0.055-0.038-0.118-0.070-0.186-0.094l-0.006-0.002c-0.062-0.038-0.133-0.068-0.209-0.085l-0.005-0.001c-0.066-0.014-0.141-0.022-0.218-0.022-0.294 0-0.559 0.118-0.753 0.31v0c-0.044 0.048-0.086 0.1-0.125 0.155l-0.003 0.005c-0.038 0.055-0.070 0.118-0.094 0.186l-0.002 0.006c-0.029 0.055-0.051 0.12-0.063 0.188l-0.001 0.004c-0.002 0.032-0.004 0.069-0.004 0.106s0.002 0.074 0.004 0.111v-0.005c0.002 0.291 0.119 0.555 0.31 0.746v0c0.091 0.105 0.201 0.19 0.325 0.253l0.006 0.003zM15.862 25.248c0.119 0.052 0.258 0.083 0.405 0.086h0.001c0.589 0 1.066-0.478 1.066-1.066v0c0.002-0.032 0.004-0.069 0.004-0.106s-0.002-0.074-0.004-0.111v0.005c-0.013-0.072-0.035-0.137-0.066-0.196l0.002 0.004c-0.026-0.074-0.058-0.137-0.098-0.194l0.002 0.002c-0.042-0.060-0.084-0.112-0.13-0.162l0.002 0.002-0.16-0.128-0.192-0.096-0.214-0.086c-0.066-0.014-0.141-0.022-0.218-0.022-0.294 0-0.559 0.118-0.753 0.31v0c-0.044 0.048-0.086 0.1-0.125 0.155l-0.003 0.005c-0.038 0.055-0.070 0.118-0.094 0.186l-0.002 0.006c-0.029 0.055-0.051 0.12-0.063 0.188l-0.001 0.004c-0.002 0.032-0.004 0.069-0.004 0.106s0.002 0.074 0.004 0.111v-0.005c0.002 0.291 0.119 0.555 0.31 0.746v0c0.091 0.105 0.201 0.19 0.325 0.253l0.006 0.003z"></path>
</svg>
