<!-- Generated by IcoMoon.io -->
<svg version="1.1" xmlns="http://www.w3.org/2000/svg" width="40" height="40" viewBox="0 0 40 40">
<title>ul-bath</title>
<path fill="#fff" d="M30.666 20h-18.134v-5.962c0-0.006 0-0.014 0-0.021 0-0.798 0.444-1.493 1.098-1.85l0.011-0.006c0.293-0.162 0.642-0.257 1.014-0.257 0.074 0 0.147 0.004 0.219 0.011l-0.009-0.001c-0.119 0.349-0.188 0.75-0.188 1.167 0 1.024 0.413 1.951 1.082 2.624l1.131 1.131c0.193 0.193 0.46 0.313 0.754 0.313s0.561-0.119 0.754-0.313l3.771-3.771c0.193-0.193 0.313-0.46 0.313-0.754s-0.119-0.561-0.313-0.754l-1.131-1.131c-0.674-0.671-1.603-1.086-2.63-1.086-0.829 0-1.594 0.27-2.213 0.727l0.010-0.007c-0.459-0.185-0.992-0.292-1.55-0.292-2.352 0-4.258 1.906-4.258 4.258 0 0.003 0 0.006 0 0.010v-0.001 5.962h-1.066c-0.589 0-1.066 0.478-1.066 1.066s0.478 1.066 1.066 1.066v0h1.066v3.2c0.005 1.38 0.883 2.554 2.111 2.996l0.022 0.007v1.263c0 0.589 0.478 1.066 1.066 1.066s1.066-0.478 1.066-1.066v0-1.066h10.666v1.066c0 0.589 0.478 1.066 1.066 1.066s1.066-0.478 1.066-1.066v0-1.263c1.25-0.45 2.129-1.623 2.134-3.003v-3.201h1.066c0.589 0 1.066-0.478 1.066-1.066s-0.478-1.066-1.066-1.066v0zM17.269 11.935c0.29-0.289 0.69-0.468 1.131-0.468s0.842 0.178 1.131 0.468l0.377 0.377-2.262 2.262-0.377-0.377c-0.289-0.29-0.468-0.69-0.468-1.131s0.179-0.842 0.468-1.131v0zM27.466 25.334c-0.001 0.589-0.478 1.066-1.066 1.066h-12.8c-0.589-0.001-1.066-0.478-1.066-1.066v-3.2h14.934z"></path>
</svg>
