<!-- Generated by IcoMoon.io -->
<svg version="1.1" xmlns="http://www.w3.org/2000/svg" width="40" height="40" viewBox="0 0 40 40">
<title>ul-box</title>
<path fill="#fff" d="M29.056 15.222c-0.003-0.013-0.005-0.027-0.005-0.042s0.002-0.030 0.005-0.044v0.002c-0.002-0.011-0.004-0.024-0.004-0.038s0.002-0.026 0.004-0.038v0.001-0.096l-0.064-0.16c-0.027-0.045-0.059-0.083-0.095-0.117h-0.001l-0.096-0.086h-0.054l-4.202-2.656-3.968-2.454c-0.087-0.070-0.19-0.125-0.303-0.158l-0.006-0.002h-0.086c-0.043-0.007-0.093-0.012-0.144-0.012s-0.101 0.004-0.149 0.013l0.005-0.001h-0.106c-0.133 0.030-0.25 0.078-0.358 0.142l0.006-0.003-7.968 4.96-0.096 0.074-0.096 0.086-0.106 0.074-0.054 0.064-0.064 0.16v0.16c-0.005 0.032-0.008 0.069-0.008 0.106s0.003 0.074 0.008 0.11l-0.001-0.004v9.312c0 0.001 0 0.002 0 0.002 0 0.379 0.198 0.713 0.497 0.902l0.004 0.002 8 4.95 0.16 0.064h0.086c0.083 0.027 0.178 0.043 0.278 0.043s0.194-0.016 0.284-0.045l-0.006 0.002h0.086l0.16-0.064 7.936-4.874c0.303-0.192 0.502-0.525 0.502-0.905 0-0.001 0-0.002 0-0.002v0-9.312s0.022-0.074 0.022-0.118zM20 11.648l1.898 1.174-5.962 3.69-1.91-1.174zM18.934 27.648l-5.866-3.584v-6.816l5.866 3.626zM20 18.998l-2.038-1.226 5.962-3.702 2.048 1.27zM26.934 24.032l-5.866 3.648v-6.806l5.866-3.626z"></path>
</svg>
