<!-- Generated by IcoMoon.io -->
<svg version="1.1" xmlns="http://www.w3.org/2000/svg" width="40" height="40" viewBox="0 0 40 40">
<title>ul-bug</title>
<path fill="#fff" d="M27.466 22.134h2.134c0.589 0 1.066-0.478 1.066-1.066s-0.478-1.066-1.066-1.066v0h-2.134v-1.066c-0.010-0.521-0.091-1.018-0.234-1.49l0.010 0.039c2.010-0.786 3.41-2.702 3.424-4.948v-0.002c0-0.589-0.478-1.066-1.066-1.066s-1.066 0.478-1.066 1.066v0c-0.002 1.438-0.953 2.654-2.26 3.055l-0.022 0.006c-0.523-0.666-1.188-1.198-1.951-1.554l-0.033-0.014c0.006-0.064 0.008-0.138 0.008-0.214s-0.003-0.15-0.009-0.223l0.001 0.010c0-2.357-1.91-4.266-4.266-4.266s-4.266 1.91-4.266 4.266v0c-0.006 0.064-0.008 0.138-0.008 0.214s0.003 0.15 0.009 0.223l-0.001-0.010c-0.813 0.365-1.492 0.897-2.018 1.557l-0.008 0.011c-1.31-0.421-2.24-1.628-2.24-3.053 0-0.003 0-0.006 0-0.009v0.001c0-0.589-0.478-1.066-1.066-1.066s-1.066 0.478-1.066 1.066v0c0.014 2.247 1.414 4.163 3.388 4.937l0.036 0.013c-0.133 0.432-0.214 0.93-0.224 1.445v1.072h-2.134c-0.589 0-1.066 0.478-1.066 1.066s0.478 1.066 1.066 1.066v0h2.134v1.066c0.001 0.522 0.055 1.030 0.158 1.521l-0.009-0.049c-1.973 0.806-3.34 2.706-3.35 4.926v0.002c0 0.589 0.478 1.066 1.066 1.066s1.066-0.478 1.066-1.066v0c0.006-1.302 0.79-2.421 1.91-2.914l0.021-0.008c1.278 2.386 3.754 3.98 6.602 3.98s5.324-1.595 6.583-3.94l0.019-0.040c1.141 0.502 1.925 1.62 1.93 2.922v0.001c0 0.589 0.478 1.066 1.066 1.066s1.066-0.478 1.066-1.066v0c-0.010-2.222-1.377-4.122-3.314-4.915l-0.035-0.013c0.094-0.442 0.148-0.95 0.15-1.471v-0.001zM18.934 28.426c-2.452-0.514-4.266-2.658-4.266-5.226 0 0 0-0.001 0-0.001v0-4.266c0-1.767 1.433-3.2 3.2-3.2v0h1.066zM17.866 13.6c0-1.178 0.955-2.134 2.134-2.134s2.134 0.955 2.134 2.134v0zM25.334 23.2c0 0 0 0.001 0 0.001 0 2.568-1.815 4.712-4.232 5.219l-0.034 0.006v-12.694h1.066c1.767 0 3.2 1.433 3.2 3.2v0z"></path>
</svg>
