<!-- Generated by IcoMoon.io -->
<svg version="1.1" xmlns="http://www.w3.org/2000/svg" width="40" height="40" viewBox="0 0 40 40">
<title>ul-bookmark</title>
<path fill="#fff" d="M24.266 9.334h-8.534c-1.767 0-3.2 1.433-3.2 3.2v0 17.066c0 0.002 0 0.002 0 0.004 0 0.393 0.212 0.736 0.528 0.921l0.005 0.002c0.153 0.090 0.337 0.143 0.534 0.143s0.38-0.053 0.538-0.146l-0.005 0.002 5.866-3.392 5.866 3.392c0.151 0.087 0.333 0.138 0.526 0.138 0.002 0 0.005 0 0.008 0h-0.001c0.002 0 0.005 0 0.007 0 0.194 0 0.374-0.051 0.531-0.142l-0.005 0.002c0.321-0.188 0.534-0.531 0.534-0.924 0-0.002 0-0.003 0-0.005v0-17.066c0-1.767-1.433-3.2-3.2-3.2v0zM25.334 27.754l-4.8-2.774c-0.153-0.090-0.337-0.143-0.534-0.143s-0.38 0.053-0.538 0.146l0.005-0.002-4.8 2.774v-15.222c0-0.589 0.478-1.066 1.066-1.066v0h8.534c0.589 0 1.066 0.478 1.066 1.066v0z"></path>
</svg>
