<!-- Generated by IcoMoon.io -->
<svg version="1.1" xmlns="http://www.w3.org/2000/svg" width="40" height="40" viewBox="0 0 40 40">
<title>ul-briefcase-alt</title>
<path fill="#fff" d="M27.466 14.134h-3.2v-1.066c0-1.767-1.433-3.2-3.2-3.2v0h-2.134c-1.767 0-3.2 1.433-3.2 3.2v0 1.066h-3.2c-1.767 0-3.2 1.433-3.2 3.2v0 9.6c0 1.767 1.433 3.2 3.2 3.2v0h14.934c1.767 0 3.2-1.433 3.2-3.2v0-9.6c0-1.767-1.433-3.2-3.2-3.2v0zM17.866 13.066c0-0.589 0.478-1.066 1.066-1.066v0h2.134c0.589 0 1.066 0.478 1.066 1.066v0 1.066h-4.266zM28.534 26.934c0 0.589-0.478 1.066-1.066 1.066v0h-14.934c-0.589 0-1.066-0.478-1.066-1.066v0-5.866c0.878 0.363 1.946 0.707 3.046 0.971l0.154 0.031v0.63c0 0.589 0.478 1.066 1.066 1.066s1.066-0.478 1.066-1.066v0-0.224c0.957 0.138 2.066 0.218 3.194 0.224h0.006c1.134-0.006 2.243-0.086 3.33-0.239l-0.13 0.015v0.224c0 0.589 0.478 1.066 1.066 1.066s1.066-0.478 1.066-1.066v0-0.63c1.254-0.295 2.322-0.639 3.352-1.057l-0.152 0.054zM28.534 18.73c-0.884 0.387-1.95 0.753-3.050 1.034l-0.15 0.033v-0.33c0-0.589-0.478-1.066-1.066-1.066s-1.066 0.478-1.066 1.066v0 0.79c-0.962 0.153-2.070 0.24-3.2 0.24s-2.238-0.087-3.321-0.255l0.121 0.015v-0.79c0-0.589-0.478-1.066-1.066-1.066s-1.066 0.478-1.066 1.066v0 0.352c-1.25-0.314-2.316-0.679-3.342-1.121l0.142 0.054v-1.418c0-0.589 0.478-1.066 1.066-1.066v0h14.934c0.589 0 1.066 0.478 1.066 1.066v0z"></path>
</svg>
