<!-- Generated by IcoMoon.io -->
<svg version="1.1" xmlns="http://www.w3.org/2000/svg" width="40" height="40" viewBox="0 0 40 40">
<title>ul-car</title>
<path fill="#fff" d="M14.262 21.152c-0.269 0.099-0.477 0.307-0.574 0.57l-0.002 0.006c-0.048 0.118-0.076 0.254-0.076 0.396 0 0.589 0.478 1.066 1.066 1.066 0.143 0 0.279-0.028 0.403-0.079l-0.007 0.002c0.135-0.058 0.252-0.133 0.353-0.225l-0.001 0.001c0.091-0.1 0.166-0.217 0.221-0.344l0.003-0.008c0.054-0.112 0.086-0.243 0.086-0.382 0-0.008 0-0.016 0-0.024v0.001c-0.004-0.294-0.122-0.561-0.31-0.758l0.001 0.001c-0.193-0.19-0.457-0.307-0.749-0.307-0.15 0-0.291 0.030-0.421 0.086l0.007-0.002zM28.278 16.886l-1.45-4.298c-0.453-1.254-1.632-2.134-3.017-2.134-0.004 0-0.009 0-0.013 0h-7.594c-0.004 0-0.008 0-0.012 0-1.385 0-2.565 0.88-3.010 2.111l-0.007 0.022-1.45 4.33c-1.382 0.37-2.383 1.609-2.39 3.082v4.267c0.004 1.382 0.882 2.557 2.111 3.001l0.022 0.007v1.258c0 0.589 0.478 1.066 1.066 1.066s1.066-0.478 1.066-1.066v0-1.066h12.8v1.066c0 0.589 0.478 1.066 1.066 1.066s1.066-0.478 1.066-1.066v0-1.258c1.25-0.451 2.13-1.626 2.134-3.007v-4.267c-0.006-1.474-1.008-2.712-2.367-3.078l-0.022-0.005zM15.19 13.258c0.146-0.426 0.544-0.726 1.010-0.726 0.001 0 0.002 0 0.003 0h7.594c0.017-0.001 0.036-0.002 0.055-0.002 0.467 0 0.865 0.301 1.009 0.719l0.002 0.007 1.12 3.542h-11.968zM28.534 24.266c0 0.589-0.478 1.066-1.066 1.066v0h-14.934c-0.589 0-1.066-0.478-1.066-1.066v0-4.266c0-0.589 0.478-1.066 1.066-1.066v0h14.934c0.589 0 1.066 0.478 1.066 1.066v0zM24.928 21.152c-0.269 0.099-0.477 0.307-0.574 0.57l-0.002 0.006c-0.048 0.118-0.076 0.254-0.076 0.396 0 0.589 0.478 1.066 1.066 1.066 0.143 0 0.279-0.028 0.403-0.079l-0.007 0.002c0.269-0.099 0.477-0.307 0.574-0.57l0.002-0.006c0.054-0.112 0.086-0.243 0.086-0.382 0-0.008 0-0.016 0-0.024v0.001c-0.004-0.294-0.122-0.561-0.31-0.758l0.001 0.001c-0.193-0.19-0.457-0.307-0.749-0.307-0.15 0-0.291 0.030-0.421 0.086l0.007-0.002zM21.066 21.066h-2.134c-0.589 0-1.066 0.478-1.066 1.066s0.478 1.066 1.066 1.066v0h2.134c0.589 0 1.066-0.478 1.066-1.066s-0.478-1.066-1.066-1.066v0z"></path>
</svg>
