<!-- Generated by IcoMoon.io -->
<svg version="1.1" xmlns="http://www.w3.org/2000/svg" width="40" height="40" viewBox="0 0 40 40">
<title>ul-car-slash</title>
<path fill="#fff" d="M14.666 21.066c-0.589 0-1.066 0.478-1.066 1.066s0.478 1.066 1.066 1.066c0.589 0 1.066-0.478 1.066-1.066v0c0-0.589-0.478-1.066-1.066-1.066v0zM28.278 16.918l-1.44-4.33c-0.453-1.254-1.632-2.134-3.017-2.134-0.008 0-0.016 0-0.024 0h-6.292c-0.589 0-1.066 0.478-1.066 1.066s0.478 1.066 1.066 1.066v0h6.294c0.015-0.001 0.034-0.002 0.052-0.002 0.471 0 0.871 0.306 1.012 0.73l0.002 0.007 1.12 3.478h-2.080c-0.589 0-1.066 0.478-1.066 1.066s0.478 1.066 1.066 1.066v0h3.562c0.589 0 1.066 0.478 1.066 1.066v0 3.562c0 0.589 0.478 1.066 1.066 1.066s1.066-0.478 1.066-1.066v0-3.562c-0.006-1.474-1.008-2.712-2.367-3.078l-0.022-0.005zM11.21 9.642c-0.198-0.206-0.476-0.333-0.784-0.333-0.602 0-1.090 0.488-1.090 1.090 0 0.294 0.117 0.562 0.306 0.758v0l3.008 2.998-0.928 2.762c-1.382 0.37-2.383 1.609-2.39 3.082v4.267c0.004 1.382 0.882 2.557 2.111 3.001l0.022 0.007v1.258c0 0.589 0.478 1.066 1.066 1.066s1.066-0.478 1.066-1.066v0-1.066h12.362l0.438 0.438v0.63c0 0.589 0.478 1.066 1.066 1.066v0c0.182-0.002 0.35-0.053 0.495-0.141l-0.004 0.002 0.886 0.896c0.194 0.195 0.462 0.315 0.758 0.315s0.564-0.121 0.758-0.315v0c0.195-0.194 0.315-0.462 0.315-0.758s-0.121-0.564-0.315-0.758v0zM14.41 15.84l0.96 0.96h-1.354zM12.534 25.334c-0.589 0-1.066-0.478-1.066-1.066v0-4.266c0-0.589 0.478-1.066 1.066-1.066v0h4.896l2.134 2.134h-0.63c-0.589 0-1.066 0.478-1.066 1.066s0.478 1.066 1.066 1.066v0h2.134c0.182-0.002 0.35-0.053 0.495-0.141l-0.004 0.002 2.272 2.272z"></path>
</svg>
