<!-- Generated by IcoMoon.io -->
<svg version="1.1" xmlns="http://www.w3.org/2000/svg" width="40" height="40" viewBox="0 0 40 40">
<title>ul-camera-plus</title>
<path fill="#fff" d="M28.534 18.4c-0.589 0-1.066 0.478-1.066 1.066v0 7.466c0 0.589-0.478 1.066-1.066 1.066v0h-14.934c-0.589 0-1.066-0.478-1.066-1.066v0-8.534c0-0.589 0.478-1.066 1.066-1.066v0h2.134c0.017 0.001 0.036 0.002 0.055 0.002 0.467 0 0.865-0.301 1.009-0.719l0.002-0.007 0.576-1.75c0.146-0.426 0.544-0.726 1.010-0.726 0.001 0 0.002 0 0.003 0h5.877c0.589 0 1.066-0.478 1.066-1.066s-0.478-1.066-1.066-1.066v0h-5.93c-1.402 0.002-2.593 0.907-3.022 2.164l-0.006 0.022-0.342 1.066h-1.366c-1.767 0-3.2 1.433-3.2 3.2v0 8.534c0 1.767 1.433 3.2 3.2 3.2v0h14.934c1.767 0 3.2-1.433 3.2-3.2v0-7.466c0.001-0.016 0.002-0.034 0.002-0.054 0-0.589-0.478-1.066-1.066-1.066-0.001 0-0.001 0-0.002 0v0zM18.934 17.334c-2.357 0-4.266 1.91-4.266 4.266s1.91 4.266 4.266 4.266c2.357 0 4.266-1.91 4.266-4.266v0c0-2.357-1.91-4.266-4.266-4.266v0zM18.934 23.734c-1.178 0-2.134-0.955-2.134-2.134s0.955-2.134 2.134-2.134c1.178 0 2.134 0.955 2.134 2.134v0c0 1.178-0.955 2.134-2.134 2.134v0zM30.666 12h-1.066v-1.066c0-0.589-0.478-1.066-1.066-1.066s-1.066 0.478-1.066 1.066v0 1.066h-1.066c-0.589 0-1.066 0.478-1.066 1.066s0.478 1.066 1.066 1.066v0h1.066v1.066c0 0.589 0.478 1.066 1.066 1.066s1.066-0.478 1.066-1.066v0-1.066h1.066c0.589 0 1.066-0.478 1.066-1.066s-0.478-1.066-1.066-1.066v0z"></path>
</svg>
