<!-- Generated by IcoMoon.io -->
<svg version="1.1" xmlns="http://www.w3.org/2000/svg" width="40" height="40" viewBox="0 0 40 40">
<title>ul-comment-share</title>
<path fill="#fff" d="M27.53 21.61c-0.038-0.005-0.082-0.007-0.126-0.007-0.543 0-0.991 0.406-1.058 0.93l-0.001 0.006c-0.482 3.7-3.614 6.528-7.407 6.528-0.002 0-0.004 0-0.006 0h-5.962l0.682-0.672c0.192-0.193 0.31-0.458 0.31-0.752s-0.118-0.559-0.31-0.752v0c-1.358-1.352-2.198-3.223-2.198-5.29 0-3.464 2.359-6.378 5.559-7.221l0.052-0.012c0.465-0.122 0.802-0.539 0.802-1.034 0-0.59-0.478-1.069-1.069-1.069-0.094 0-0.186 0.012-0.274 0.035l0.007-0.002c-4.162 1.112-7.178 4.849-7.178 9.29 0 2.282 0.796 4.378 2.126 6.025l-0.014-0.018-1.824 1.782c-0.19 0.193-0.307 0.457-0.307 0.749 0 0.15 0.030 0.291 0.086 0.421l-0.002-0.007c0.163 0.39 0.541 0.659 0.981 0.662h8.534c4.881 0 8.911-3.642 9.52-8.358l0.005-0.048c0.005-0.038 0.007-0.082 0.007-0.126 0-0.543-0.406-0.991-0.93-1.058l-0.006-0.001zM27.466 15.2c-0.474 0.002-0.911 0.158-1.264 0.42l0.006-0.004-1.866-0.854 2.058-0.938c0.304 0.187 0.671 0.302 1.065 0.31h0.002c1.178 0 2.134-0.955 2.134-2.134s-0.955-2.134-2.134-2.134c-1.178 0-2.134 0.955-2.134 2.134v0l-2.026 0.928c-0.326-0.235-0.732-0.381-1.17-0.394h-0.003c-1.178 0-2.134 0.955-2.134 2.134s0.955 2.134 2.134 2.134v0c0.364-0.004 0.705-0.098 1.003-0.262l-0.011 0.006 2.23 1.066c0.142 1.053 1.035 1.856 2.115 1.856 1.178 0 2.134-0.955 2.134-2.134s-0.955-2.134-2.134-2.134c-0.001 0-0.002 0-0.003 0v0z"></path>
</svg>
