<!-- Generated by IcoMoon.io -->
<svg version="1.1" xmlns="http://www.w3.org/2000/svg" width="40" height="40" viewBox="0 0 40 40">
<title>ul-closed-captioning-slash</title>
<path fill="#fff" d="M20 9.334c-5.891 0-10.666 4.776-10.666 10.666s4.776 10.666 10.666 10.666c5.891 0 10.666-4.776 10.666-10.666v0c0-5.891-4.776-10.666-10.666-10.666v0zM20 28.534c-4.713 0-8.534-3.821-8.534-8.534v0c0-0.003 0-0.007 0-0.010 0-1.977 0.679-3.795 1.816-5.234l-0.014 0.018 1.61 1.61c-0.778 0.588-1.277 1.51-1.28 2.549v2.134c0.009 1.761 1.438 3.186 3.2 3.186 1.172 0 2.197-0.63 2.754-1.57l0.008-0.015c0.127-0.174 0.204-0.391 0.204-0.627 0-0.589-0.478-1.066-1.066-1.066-0.43 0-0.801 0.254-0.97 0.621l-0.002 0.006c-0.189 0.318-0.53 0.526-0.92 0.526-0.3 0-0.571-0.124-0.766-0.323v0c-0.19-0.181-0.31-0.437-0.31-0.72 0-0.006 0-0.011 0-0.017v0.001-2.134c0.011-0.453 0.303-0.834 0.707-0.979l0.007-0.002 3.552 3.606c0.209 1.404 1.305 2.501 2.692 2.707l0.018 0.002 2.518 2.518c-1.409 1.091-3.202 1.75-5.148 1.75-0.028 0-0.055 0-0.083-0.001h0.004zM26.73 25.226l-1.622-1.622c0.345-0.253 0.63-0.566 0.846-0.925l0.008-0.014c0.127-0.174 0.204-0.391 0.204-0.627 0-0.589-0.478-1.066-1.066-1.066-0.43 0-0.801 0.254-0.97 0.621l-0.002 0.006c-0.138 0.207-0.341 0.362-0.579 0.435l-0.007 0.002-1.408-1.408v-1.696c0-0.002 0-0.003 0-0.006 0-0.589 0.478-1.066 1.066-1.066 0.403 0 0.754 0.224 0.936 0.554l0.002 0.006c0.19 0.31 0.527 0.514 0.913 0.514 0.202 0 0.392-0.057 0.554-0.154l-0.005 0.002c0.313-0.19 0.519-0.529 0.519-0.915 0-0.206-0.058-0.398-0.159-0.561l0.002 0.005c-0.145-0.238-0.306-0.445-0.49-0.63v0c-0.582-0.598-1.395-0.97-2.295-0.97-1.632 0-2.978 1.222-3.175 2.8l-0.002 0.016-0.374-0.374c0.027-0.090 0.042-0.192 0.042-0.298 0-0.201-0.055-0.389-0.152-0.549l0.002 0.005c-0.145-0.238-0.306-0.445-0.49-0.63v0c-0.466-0.47-1.079-0.793-1.764-0.894l-0.017-0.002-2.474-2.518c1.422-1.124 3.239-1.802 5.216-1.802 0.004 0 0.007 0 0.011 0h-0.001c4.713 0 8.534 3.821 8.534 8.534v0c0 0.003 0 0.007 0 0.010 0 1.977-0.679 3.795-1.816 5.234l0.014-0.018z"></path>
</svg>
