<!-- Generated by IcoMoon.io -->
<svg version="1.1" xmlns="http://www.w3.org/2000/svg" width="40" height="40" viewBox="0 0 40 40">
<title>ul-coffee</title>
<path fill="#fff" d="M16.8 25.334h4.266c2.946 0 5.334-2.388 5.334-5.334v0-1.066h1.066c1.767 0 3.2-1.433 3.2-3.2s-1.433-3.2-3.2-3.2v0h-1.066v-1.066c0-0.589-0.478-1.066-1.066-1.066v0h-12.8c-0.589 0-1.066 0.478-1.066 1.066v0 8.534c0 2.946 2.388 5.334 5.334 5.334v0zM26.4 14.666h1.066c0.589 0 1.066 0.478 1.066 1.066s-0.478 1.066-1.066 1.066v0h-1.066zM13.6 12.534h10.666v7.466c0 1.767-1.433 3.2-3.2 3.2v0h-4.266c-1.767 0-3.2-1.433-3.2-3.2v0zM29.6 27.466h-19.2c-0.589 0-1.066 0.478-1.066 1.066s0.478 1.066 1.066 1.066v0h19.2c0.589 0 1.066-0.478 1.066-1.066s-0.478-1.066-1.066-1.066v0z"></path>
</svg>
