<!-- Generated by IcoMoon.io -->
<svg version="1.1" xmlns="http://www.w3.org/2000/svg" width="40" height="40" viewBox="0 0 40 40">
<title>ul-comment-heart</title>
<path fill="#fff" d="M20 16.106c-0.434-0.227-0.949-0.361-1.494-0.361-0.888 0-1.693 0.353-2.282 0.926l0.001-0.001c-0.578 0.579-0.936 1.378-0.936 2.262s0.358 1.682 0.936 2.262v0l3.018 3.072c0.194 0.195 0.462 0.315 0.758 0.315s0.564-0.121 0.758-0.315l3.018-3.018c0.578-0.579 0.936-1.378 0.936-2.262s-0.358-1.682-0.936-2.262v0c-0.593-0.594-1.412-0.962-2.318-0.962-0.531 0-1.034 0.126-1.477 0.351l0.018-0.009zM22.262 19.69l-2.262 2.262-2.262-2.262c-0.195-0.194-0.315-0.462-0.315-0.758s0.121-0.564 0.315-0.758v0c0.193-0.192 0.458-0.31 0.752-0.31s0.559 0.118 0.752 0.31v0c0.194 0.195 0.462 0.315 0.758 0.315s0.564-0.121 0.758-0.315v0c0.193-0.192 0.458-0.31 0.752-0.31s0.559 0.118 0.752 0.31v0c0.195 0.194 0.315 0.462 0.315 0.758s-0.121 0.564-0.315 0.758v0zM20 9.334c-5.891 0-10.666 4.776-10.666 10.666v0c0 0.012 0 0.026 0 0.040 0 2.558 0.91 4.903 2.425 6.73l-0.014-0.018-2.134 2.134c-0.19 0.193-0.307 0.457-0.307 0.749 0 0.15 0.030 0.291 0.086 0.421l-0.002-0.007c0.174 0.369 0.542 0.619 0.969 0.619 0.016 0 0.031 0 0.047-0.001h9.598c5.891 0 10.666-4.776 10.666-10.666s-4.776-10.666-10.666-10.666v0zM20 28.534h-7.030l0.992-0.992c0.192-0.193 0.31-0.458 0.31-0.752s-0.118-0.559-0.31-0.752v0c-1.546-1.545-2.502-3.679-2.502-6.038 0-4.713 3.821-8.534 8.534-8.534s8.534 3.821 8.534 8.534c0 4.71-3.817 8.53-8.526 8.534v0z"></path>
</svg>
