<!-- Generated by IcoMoon.io -->
<svg version="1.1" xmlns="http://www.w3.org/2000/svg" width="40" height="40" viewBox="0 0 40 40">
<title>ul-creative-commons-pd</title>
<path fill="#fff" d="M20 9.334c-5.891 0-10.666 4.776-10.666 10.666s4.776 10.666 10.666 10.666c5.891 0 10.666-4.776 10.666-10.666v0c0-5.891-4.776-10.666-10.666-10.666v0zM20 28.534c-4.713 0-8.534-3.821-8.534-8.534v0c0-0.003 0-0.007 0-0.010 0-1.977 0.679-3.795 1.816-5.234l-0.014 0.018 2.518 2.528c-0.033 0.169-0.052 0.365-0.054 0.564v4.268c0 1.767 1.433 3.2 3.2 3.2v0h2.134c0.77-0.006 1.473-0.283 2.021-0.74l-0.005 0.004 2.134 2.134c-1.422 1.124-3.239 1.802-5.216 1.802v0zM17.866 22.134v-2.762l3.69 3.69c-0.14 0.086-0.309 0.137-0.49 0.138h-2.134c-0.589 0-1.066-0.478-1.066-1.066v0zM26.73 25.226l-2.464-2.528c0.008-0.085 0.012-0.183 0.012-0.282s-0.005-0.198-0.013-0.295l0.001 0.013c0-0.589-0.478-1.066-1.066-1.066v0c-0.182 0.002-0.35 0.053-0.495 0.141l0.004-0.002-4.266-4.266c0.14-0.086 0.309-0.137 0.49-0.138h2.134c0.589 0 1.066 0.478 1.066 1.066v0c0 0.589 0.478 1.066 1.066 1.066s1.066-0.478 1.066-1.066v0c0-1.767-1.433-3.2-3.2-3.2v0h-2.134c-0.77 0.006-1.473 0.283-2.021 0.74l0.005-0.004-2.134-2.134c1.422-1.124 3.239-1.802 5.216-1.802v0c4.713 0 8.534 3.821 8.534 8.534v0c0 0.003 0 0.007 0 0.010 0 1.977-0.679 3.795-1.816 5.234l0.014-0.018z"></path>
</svg>
