<!-- Generated by IcoMoon.io -->
<svg version="1.1" xmlns="http://www.w3.org/2000/svg" width="40" height="40" viewBox="0 0 40 40">
<title>ul-comment-lock</title>
<path fill="#fff" d="M27.382 24.406c-0.154-0.090-0.338-0.144-0.534-0.144-0.394 0-0.739 0.214-0.924 0.534l-0.002 0.005c-1.313 2.244-3.709 3.729-6.453 3.734h-5.963l0.682-0.672c0.192-0.193 0.31-0.458 0.31-0.752s-0.118-0.559-0.31-0.752v0c-1.36-1.353-2.202-3.226-2.202-5.294 0-3.798 2.836-6.934 6.506-7.406l0.038-0.004c0.536-0.066 0.946-0.518 0.946-1.066 0-0.594-0.481-1.074-1.074-1.074-0.045 0-0.090 0.002-0.134 0.008l0.006-0.001c-4.77 0.607-8.422 4.641-8.422 9.527 0 2.285 0.798 4.384 2.131 6.032l-0.014-0.018-1.792 1.782c-0.19 0.193-0.307 0.457-0.307 0.749 0 0.15 0.030 0.291 0.086 0.421l-0.002-0.007c0.163 0.39 0.541 0.659 0.981 0.662h8.534c3.533-0.002 6.619-1.911 8.285-4.754l0.025-0.046c0.090-0.154 0.144-0.338 0.144-0.534 0-0.394-0.214-0.739-0.534-0.924l-0.005-0.002zM28 13.792v-1.258c0-1.767-1.433-3.2-3.2-3.2s-3.2 1.433-3.2 3.2v0 1.258c-1.25 0.451-2.13 1.626-2.134 3.007v2.134c0 1.767 1.433 3.2 3.2 3.2v0h4.266c1.767 0 3.2-1.433 3.2-3.2v0-2.134c-0.004-1.382-0.882-2.557-2.111-3.001l-0.022-0.007zM23.734 12.534c0-0.589 0.478-1.066 1.066-1.066s1.066 0.478 1.066 1.066v0 1.066h-2.134zM28 18.934c0 0.589-0.478 1.066-1.066 1.066v0h-4.266c-0.589 0-1.066-0.478-1.066-1.066v0-2.134c0-0.589 0.478-1.066 1.066-1.066v0h4.266c0.589 0 1.066 0.478 1.066 1.066v0z"></path>
</svg>
