<!-- Generated by IcoMoon.io -->
<svg version="1.1" xmlns="http://www.w3.org/2000/svg" width="40" height="40" viewBox="0 0 40 40">
<title>ul-cloud-exclamation</title>
<path fill="#fff" d="M20.758 27.242c-0.1-0.091-0.217-0.166-0.344-0.221l-0.008-0.003c-0.122-0.053-0.264-0.083-0.414-0.083-0.292 0-0.557 0.118-0.75 0.307v0c-0.188 0.197-0.305 0.463-0.31 0.757v0.001c0 0.002 0 0.004 0 0.006 0 0.293 0.118 0.558 0.31 0.751v0c0.1 0.091 0.217 0.166 0.344 0.221l0.008 0.003c0.118 0.048 0.254 0.076 0.396 0.076 0.589 0 1.066-0.478 1.066-1.066 0-0.143-0.028-0.279-0.079-0.403l0.002 0.007c-0.054-0.137-0.13-0.254-0.224-0.352v0zM20 20.534c-0.589 0-1.066 0.478-1.066 1.066v0 3.2c0 0.589 0.478 1.066 1.066 1.066s1.066-0.478 1.066-1.066v0-3.2c0-0.589-0.478-1.066-1.066-1.066v0zM26.848 15.424c-1.181-2.662-3.8-4.485-6.846-4.485-3.787 0-6.915 2.819-7.401 6.474l-0.004 0.038c-1.892 0.464-3.273 2.146-3.273 4.15 0 2.357 1.91 4.266 4.266 4.266 0.003 0 0.006 0 0.010 0h2.133c0.589 0 1.066-0.478 1.066-1.066s-0.478-1.066-1.066-1.066v0h-2.134c-1.178 0-2.134-0.955-2.134-2.134s0.955-2.134 2.134-2.134v0c0.589 0 1.066-0.478 1.066-1.066v0c0.006-2.941 2.392-5.322 5.334-5.322 2.326 0 4.305 1.49 5.034 3.567l0.011 0.038c0.129 0.366 0.442 0.637 0.826 0.703l0.006 0.001c1.5 0.284 2.619 1.585 2.619 3.147 0 1.754-1.412 3.179-3.162 3.2h-1.068c-0.589 0-1.066 0.478-1.066 1.066s0.478 1.066 1.066 1.066v0h1.066c2.939-0.008 5.318-2.393 5.318-5.334 0-2.4-1.586-4.43-3.766-5.099l-0.038-0.010z"></path>
</svg>
