<!-- Generated by IcoMoon.io -->
<svg version="1.1" xmlns="http://www.w3.org/2000/svg" width="40" height="40" viewBox="0 0 40 40">
<title>ul-comment-alt-redo</title>
<path fill="#fff" d="M18.186 18.666c0.286-0.194 0.472-0.518 0.472-0.886 0-0.589-0.478-1.066-1.066-1.066-0.314 0-0.596 0.135-0.791 0.351l-0.001 0.001c-0.561 0.497-1.303 0.8-2.117 0.8-1.767 0-3.2-1.433-3.2-3.2 0-1.762 1.423-3.19 3.182-3.2h0.001c0.944 0.002 1.791 0.412 2.376 1.064l0.002 0.003h-1.312c-0.589 0-1.066 0.478-1.066 1.066s0.478 1.066 1.066 1.066v0h3.2c0.589 0 1.066-0.478 1.066-1.066v0-3.2c0-0.589-0.478-1.066-1.066-1.066s-1.066 0.478-1.066 1.066v0 0c-0.881-0.668-1.996-1.070-3.204-1.070-2.946 0-5.334 2.388-5.334 5.334s2.388 5.334 5.334 5.334c1.354 0 2.59-0.504 3.53-1.335l-0.006 0.005zM27.466 13.6h-4.266c-0.589 0-1.066 0.478-1.066 1.066s0.478 1.066 1.066 1.066v0h4.266c0.589 0 1.066 0.478 1.066 1.066v0 10.368l-1.674-1.546c-0.19-0.178-0.445-0.287-0.725-0.288h-9.334c-0.589 0-1.066-0.478-1.066-1.066v0-1.066c0-0.589-0.478-1.066-1.066-1.066s-1.066 0.478-1.066 1.066v0 1.066c0 1.767 1.433 3.2 3.2 3.2v0h8.918l3.2 2.912c0.179 0.169 0.418 0.276 0.68 0.288h0.002c0.154-0.002 0.301-0.033 0.434-0.088l-0.008 0.003c0.38-0.169 0.64-0.543 0.64-0.978 0-0.002 0-0.002 0-0.004v0-12.8c0-1.767-1.433-3.2-3.2-3.2v0z"></path>
</svg>
