<!-- Generated by IcoMoon.io -->
<svg version="1.1" xmlns="http://www.w3.org/2000/svg" width="40" height="40" viewBox="0 0 40 40">
<title>ul-css3-simple</title>
<path fill="#fff" d="M29.357 10.789c-0.197-0.238-0.493-0.389-0.823-0.389h-14.934c-0.589 0-1.066 0.478-1.066 1.066s0.478 1.066 1.066 1.066v0h13.638l-0.833 4.266h-13.872c-0.589 0-1.066 0.478-1.066 1.066s0.478 1.066 1.066 1.066v0h13.456l-1.24 6.352-6.745 2.13-5.771-1.813 0.217-1.136c0.012-0.060 0.019-0.13 0.019-0.2 0-0.589-0.478-1.067-1.067-1.067-0.518 0-0.95 0.37-1.047 0.86l-0.001 0.006-0.395 2.070c-0.012 0.060-0.019 0.129-0.019 0.199 0 0.475 0.31 0.878 0.739 1.016l0.007 0.002 6.998 2.198c0.095 0.031 0.206 0.049 0.32 0.049s0.226-0.018 0.329-0.051l-0.007 0.002 7.67-2.422c0.37-0.12 0.648-0.426 0.724-0.806l0.001-0.007 2.859-14.646c0.013-0.062 0.020-0.132 0.020-0.204 0-0.258-0.092-0.495-0.245-0.68l0.002 0.002z"></path>
</svg>
