<!-- Generated by IcoMoon.io -->
<svg version="1.1" xmlns="http://www.w3.org/2000/svg" width="40" height="40" viewBox="0 0 40 40">
<title>ul-car-wash</title>
<path fill="#fff" d="M15.2 11.466c0.002 0 0.004 0 0.006 0 0.293 0 0.558-0.118 0.751-0.31l1.066-1.066c0.194-0.194 0.314-0.462 0.314-0.758 0-0.591-0.479-1.071-1.071-1.071-0.296 0-0.563 0.12-0.758 0.314l-1.066 1.066c-0.195 0.194-0.315 0.462-0.315 0.758s0.121 0.564 0.315 0.758v0c0.193 0.191 0.458 0.31 0.751 0.31 0.002 0 0.004 0 0.006 0v0zM19.466 11.466c0.002 0 0.004 0 0.006 0 0.293 0 0.558-0.118 0.751-0.31l1.066-1.066c0.194-0.194 0.314-0.462 0.314-0.758 0-0.591-0.479-1.071-1.071-1.071-0.296 0-0.563 0.12-0.758 0.314l-1.066 1.066c-0.195 0.194-0.315 0.462-0.315 0.758s0.121 0.564 0.315 0.758v0c0.193 0.191 0.458 0.31 0.751 0.31 0.002 0 0.004 0 0.006 0v0zM23.734 11.466c0.002 0 0.004 0 0.006 0 0.293 0 0.558-0.118 0.751-0.31l1.066-1.066c0.194-0.194 0.314-0.462 0.314-0.758 0-0.591-0.479-1.071-1.071-1.071-0.296 0-0.563 0.12-0.758 0.314l-1.066 1.066c-0.195 0.194-0.315 0.462-0.315 0.758s0.121 0.564 0.315 0.758v0c0.193 0.191 0.458 0.31 0.751 0.31 0.002 0 0.004 0 0.006 0v0zM26.314 23.862c-0.026-0.074-0.058-0.137-0.098-0.194l0.002 0.002-0.128-0.16-0.16-0.128c-0.055-0.038-0.118-0.070-0.186-0.094l-0.006-0.002c-0.058-0.030-0.127-0.053-0.199-0.063l-0.003-0.001c-0.063-0.013-0.135-0.021-0.21-0.021-0.293 0-0.558 0.118-0.75 0.309v0c-0.044 0.048-0.086 0.1-0.125 0.155l-0.003 0.005c-0.038 0.055-0.070 0.118-0.094 0.186l-0.002 0.006c-0.029 0.055-0.051 0.12-0.063 0.188l-0.001 0.004c-0.002 0.032-0.004 0.069-0.004 0.106s0.002 0.074 0.004 0.111v-0.005c0.002 0.291 0.119 0.555 0.31 0.746v0c0.097 0.101 0.214 0.181 0.346 0.232l0.006 0.002c0.113 0.050 0.244 0.081 0.382 0.086h0.002c0.589 0 1.066-0.478 1.066-1.066v0c0.002-0.032 0.004-0.069 0.004-0.106s-0.002-0.074-0.004-0.111v0.005c-0.020-0.073-0.050-0.137-0.087-0.194l0.002 0.002zM28.278 19.050l-1.45-4.33c-0.453-1.254-1.632-2.134-3.017-2.134-0.004 0-0.009 0-0.013 0h-7.594c-0.004 0-0.008 0-0.012 0-1.385 0-2.565 0.88-3.010 2.111l-0.007 0.022-1.45 4.33c-1.382 0.37-2.383 1.609-2.39 3.082v4.267c0.004 1.382 0.882 2.557 2.111 3.001l0.022 0.007v1.258c0 0.589 0.478 1.066 1.066 1.066s1.066-0.478 1.066-1.066v0-1.066h12.8v1.066c0 0.589 0.478 1.066 1.066 1.066s1.066-0.478 1.066-1.066v0-1.258c1.25-0.451 2.13-1.626 2.134-3.007v-4.267c-0.006-1.474-1.008-2.712-2.367-3.078l-0.022-0.005zM15.19 15.392c0.146-0.426 0.544-0.726 1.010-0.726 0.001 0 0.002 0 0.003 0h7.594c0.017-0.001 0.036-0.002 0.055-0.002 0.467 0 0.865 0.301 1.009 0.719l0.002 0.007 1.12 3.542h-11.968zM28.534 26.4c0 0.589-0.478 1.066-1.066 1.066v0h-14.934c-0.589 0-1.066-0.478-1.066-1.066v0-4.266c0-0.589 0.478-1.066 1.066-1.066v0h14.934c0.589 0 1.066 0.478 1.066 1.066v0zM21.066 23.2h-2.134c-0.589 0-1.066 0.478-1.066 1.066s0.478 1.066 1.066 1.066v0h2.134c0.589 0 1.066-0.478 1.066-1.066s-0.478-1.066-1.066-1.066v0zM15.648 23.862c-0.026-0.074-0.058-0.137-0.098-0.194l0.002 0.002-0.128-0.16c-0.193-0.19-0.457-0.307-0.749-0.307-0.15 0-0.291 0.030-0.421 0.086l0.007-0.002c-0.137 0.054-0.254 0.13-0.352 0.224v0c-0.044 0.048-0.086 0.1-0.125 0.155l-0.003 0.005c-0.038 0.055-0.070 0.118-0.094 0.186l-0.002 0.006c-0.036 0.055-0.066 0.119-0.084 0.187l-0.001 0.005c-0.002 0.032-0.004 0.069-0.004 0.106s0.002 0.074 0.004 0.111v-0.005c0.002 0.587 0.479 1.062 1.066 1.062 0.296 0 0.564-0.121 0.758-0.315v0c0.19-0.192 0.308-0.455 0.31-0.746v0c0.002-0.032 0.004-0.069 0.004-0.106s-0.002-0.074-0.004-0.111v0.005c-0.020-0.073-0.050-0.137-0.087-0.194l0.002 0.002z"></path>
</svg>
