<!-- Generated by IcoMoon.io -->
<svg version="1.1" xmlns="http://www.w3.org/2000/svg" width="40" height="40" viewBox="0 0 40 40">
<title>ul-coins</title>
<path fill="#fff" d="M29.834 20c0.512-0.562 0.827-1.31 0.832-2.132v-0.001c0-1.767-1.433-3.2-3.2-3.2v0h-5.526c0.116-0.318 0.183-0.684 0.183-1.066 0-1.764-1.427-3.195-3.19-3.2h-6.401c-1.767 0-3.2 1.433-3.2 3.2v0c0.005 0.823 0.32 1.572 0.834 2.136l-0.002-0.002c-0.506 0.563-0.815 1.312-0.815 2.134s0.309 1.57 0.818 2.136l-0.002-0.003c-0.506 0.563-0.815 1.312-0.815 2.134s0.309 1.57 0.818 2.136l-0.002-0.003c-0.512 0.562-0.827 1.31-0.832 2.132v0.001c0 1.767 1.433 3.2 3.2 3.2v0h14.934c1.76-0.010 3.183-1.438 3.183-3.2 0-0.821-0.309-1.57-0.818-2.136l0.002 0.003c0.506-0.563 0.815-1.312 0.815-2.134s-0.309-1.57-0.818-2.136l0.002 0.003zM18.934 27.466h-6.4c-0.589 0-1.066-0.478-1.066-1.066s0.478-1.066 1.066-1.066v0h6.4c0.589 0 1.066 0.478 1.066 1.066s-0.478 1.066-1.066 1.066v0zM18.934 23.2h-6.4c-0.589 0-1.066-0.478-1.066-1.066s0.478-1.066 1.066-1.066v0h6.4c0.589 0 1.066 0.478 1.066 1.066s-0.478 1.066-1.066 1.066v0zM18.934 18.934h-6.4c-0.589 0-1.066-0.478-1.066-1.066s0.478-1.066 1.066-1.066v0h6.4c0.589 0 1.066 0.478 1.066 1.066s-0.478 1.066-1.066 1.066v0zM18.934 14.666h-6.4c-0.589 0-1.066-0.478-1.066-1.066s0.478-1.066 1.066-1.066v0h6.4c0.589 0 1.066 0.478 1.066 1.066s-0.478 1.066-1.066 1.066v0zM28.202 27.158c-0.181 0.19-0.437 0.31-0.72 0.31-0.006 0-0.011 0-0.017 0h-5.525c0.122-0.317 0.192-0.683 0.192-1.066s-0.070-0.75-0.199-1.088l0.007 0.021h5.526c0.589 0 1.066 0.478 1.066 1.066v0c-0.004 0.298-0.13 0.566-0.33 0.757l-0.001 0.001zM28.202 22.89c-0.181 0.19-0.437 0.31-0.72 0.31-0.006 0-0.011 0-0.017 0h-5.525c0.122-0.317 0.192-0.683 0.192-1.066s-0.070-0.75-0.199-1.088l0.007 0.021h5.526c0.589 0 1.066 0.478 1.066 1.066v0c-0.004 0.298-0.13 0.566-0.33 0.757l-0.001 0.001zM28.202 18.624c-0.181 0.19-0.437 0.31-0.72 0.31-0.006 0-0.011 0-0.017 0h-5.525c0.122-0.317 0.192-0.683 0.192-1.066s-0.070-0.75-0.199-1.088l0.007 0.021h5.526c0.589 0 1.066 0.478 1.066 1.066v0c-0.004 0.298-0.13 0.566-0.33 0.757l-0.001 0.001z"></path>
</svg>
