<!-- Generated by IcoMoon.io -->
<svg version="1.1" xmlns="http://www.w3.org/2000/svg" width="40" height="40" viewBox="0 0 40 40">
<title>ul-cloud-shield</title>
<path fill="#fff" d="M26.848 14.902c-1.18-2.663-3.8-4.487-6.846-4.487-3.784 0-6.91 2.815-7.4 6.465l-0.004 0.038c-1.884 0.47-3.257 2.147-3.257 4.146 0 1.85 1.177 3.424 2.822 4.016l0.030 0.010c0.102 0.033 0.219 0.052 0.341 0.054h0.001c0.051 0.009 0.11 0.014 0.17 0.014 0.597 0 1.080-0.484 1.080-1.080 0-0.536-0.391-0.982-0.903-1.066l-0.006-0.001c-0.808-0.298-1.38-1.050-1.408-1.938v-0.003c0-1.178 0.955-2.134 2.134-2.134v0c0.589 0 1.066-0.478 1.066-1.066v0c0.006-2.941 2.392-5.322 5.334-5.322 2.326 0 4.305 1.49 5.034 3.567l0.011 0.038c0.126 0.37 0.44 0.646 0.826 0.714l0.006 0.001c1.506 0.28 2.63 1.583 2.63 3.149 0 1.163-0.621 2.182-1.549 2.742l-0.014 0.008c-0.323 0.188-0.537 0.533-0.537 0.928 0 0.591 0.479 1.070 1.070 1.070 0.196 0 0.38-0.053 0.538-0.145l-0.005 0.002c1.599-0.941 2.656-2.654 2.656-4.613 0-0.002 0-0.004 0-0.006v0c-0.007-2.399-1.598-4.426-3.781-5.089l-0.038-0.010zM22.976 19.638c-0.186 0.042-0.4 0.066-0.619 0.066-0.65 0-1.251-0.213-1.735-0.574l0.008 0.006c-0.174-0.128-0.393-0.206-0.63-0.206s-0.455 0.077-0.632 0.207l0.003-0.002c-0.476 0.355-1.076 0.569-1.726 0.569-0.22 0-0.434-0.025-0.641-0.071l0.019 0.004c-0.068-0.015-0.146-0.024-0.225-0.024-0.255 0-0.49 0.090-0.673 0.239l0.002-0.002c-0.24 0.196-0.393 0.49-0.394 0.821v3.595c0 0.002 0 0.003 0 0.006 0 1.605 0.765 3.030 1.95 3.933l1.686 1.235c0.174 0.128 0.393 0.206 0.63 0.206s0.455-0.077 0.632-0.207l-0.003 0.002 1.674-1.238c1.197-0.905 1.962-2.326 1.962-3.926 0-0.004 0-0.007 0-0.011v0.001-3.594c-0.002-0.331-0.155-0.626-0.393-0.82l-0.002-0.002c-0.182-0.148-0.416-0.238-0.671-0.238-0.080 0-0.158 0.009-0.232 0.026l0.007-0.002zM22.134 24.266c-0.020 0.865-0.43 1.63-1.061 2.129l-0.006 0.005-1.066 0.768-1.066-0.768c-0.636-0.503-1.046-1.269-1.066-2.13v-2.435c0.786-0.036 1.516-0.25 2.159-0.6l-0.026 0.013c0.618 0.338 1.346 0.55 2.122 0.586l0.011 0.001z"></path>
</svg>
