<!-- Generated by IcoMoon.io -->
<svg version="1.1" xmlns="http://www.w3.org/2000/svg" width="40" height="40" viewBox="0 0 40 40">
<title>ul-comment-check</title>
<path fill="#fff" d="M21.376 14.806c-0.195 0.194-0.315 0.462-0.315 0.758s0.121 0.564 0.315 0.758l2.048 2.048c0.194 0.195 0.462 0.315 0.758 0.315s0.564-0.121 0.758-0.315l4.352-4.352c0.242-0.197 0.394-0.494 0.394-0.828 0-0.589-0.478-1.066-1.066-1.066-0.341 0-0.645 0.16-0.84 0.41l-0.002 0.002-3.594 3.574-1.29-1.302c-0.194-0.195-0.462-0.315-0.758-0.315s-0.564 0.121-0.758 0.315v0zM28.438 18.55c-0.548 0.049-0.974 0.506-0.974 1.062 0 0.031 0.002 0.062 0.004 0.094v-0.004c0.002 0.045 0.004 0.097 0.004 0.15s-0.002 0.105-0.004 0.157v-0.007c0 4.124-3.343 7.466-7.466 7.466v0h-5.962l0.682-0.672c0.192-0.193 0.31-0.458 0.31-0.752s-0.118-0.559-0.31-0.752v0c-1.36-1.353-2.202-3.225-2.202-5.294 0-3.574 2.51-6.561 5.864-7.294l0.050-0.009c0.449-0.094 0.965-0.148 1.494-0.148s1.044 0.054 1.542 0.156l-0.049-0.009c0.064 0.014 0.138 0.021 0.214 0.021 0.601 0 1.088-0.487 1.088-1.088 0-0.526-0.372-0.963-0.867-1.066l-0.007-0.001c-0.579-0.122-1.244-0.192-1.926-0.192s-1.346 0.070-1.989 0.202l0.063-0.011c-4.374 0.979-7.594 4.83-7.594 9.431 0 0.003 0 0.006 0 0.009v-0.001c0.010 2.28 0.813 4.371 2.147 6.012l-0.014-0.018-1.824 1.782c-0.19 0.193-0.307 0.457-0.307 0.749 0 0.15 0.030 0.291 0.086 0.421l-0.002-0.007c0.163 0.39 0.541 0.659 0.981 0.662h8.534c5.302 0 9.6-4.298 9.6-9.6v0c0-0.16 0-0.31 0-0.47-0.043-0.554-0.503-0.986-1.063-0.986-0.035 0-0.070 0.002-0.103 0.005h0.004z"></path>
</svg>
