<!-- Generated by IcoMoon.io -->
<svg version="1.1" xmlns="http://www.w3.org/2000/svg" width="40" height="40" viewBox="0 0 40 40">
<title>ul-calendar-alt</title>
<path fill="#fff" d="M20 27.466c0.589 0 1.066-0.478 1.066-1.066s-0.478-1.066-1.066-1.066c-0.589 0-1.066 0.478-1.066 1.066v0c0 0.589 0.478 1.066 1.066 1.066v0zM25.334 27.466c0.589 0 1.066-0.478 1.066-1.066s-0.478-1.066-1.066-1.066c-0.589 0-1.066 0.478-1.066 1.066v0c0 0.589 0.478 1.066 1.066 1.066v0zM25.334 23.2c0.589 0 1.066-0.478 1.066-1.066s-0.478-1.066-1.066-1.066c-0.589 0-1.066 0.478-1.066 1.066v0c0 0.589 0.478 1.066 1.066 1.066v0zM20 23.2c0.589 0 1.066-0.478 1.066-1.066s-0.478-1.066-1.066-1.066c-0.589 0-1.066 0.478-1.066 1.066v0c0 0.589 0.478 1.066 1.066 1.066v0zM27.466 10.4h-1.066v-1.066c0-0.589-0.478-1.066-1.066-1.066s-1.066 0.478-1.066 1.066v0 1.066h-8.534v-1.066c0-0.589-0.478-1.066-1.066-1.066s-1.066 0.478-1.066 1.066v0 1.066h-1.066c-1.767 0-3.2 1.433-3.2 3.2v0 14.934c0 1.767 1.433 3.2 3.2 3.2v0h14.934c1.767 0 3.2-1.433 3.2-3.2v0-14.934c0-1.767-1.433-3.2-3.2-3.2v0zM28.534 28.534c0 0.589-0.478 1.066-1.066 1.066v0h-14.934c-0.589 0-1.066-0.478-1.066-1.066v0-9.6h17.066zM28.534 16.8h-17.066v-3.2c0-0.589 0.478-1.066 1.066-1.066v0h1.066v1.066c0 0.589 0.478 1.066 1.066 1.066s1.066-0.478 1.066-1.066v0-1.066h8.534v1.066c0 0.589 0.478 1.066 1.066 1.066s1.066-0.478 1.066-1.066v0-1.066h1.066c0.589 0 1.066 0.478 1.066 1.066v0zM14.666 23.2c0.589 0 1.066-0.478 1.066-1.066s-0.478-1.066-1.066-1.066c-0.589 0-1.066 0.478-1.066 1.066v0c0 0.589 0.478 1.066 1.066 1.066v0zM14.666 27.466c0.589 0 1.066-0.478 1.066-1.066s-0.478-1.066-1.066-1.066c-0.589 0-1.066 0.478-1.066 1.066v0c0 0.589 0.478 1.066 1.066 1.066v0z"></path>
</svg>
