<!-- Generated by IcoMoon.io -->
<svg version="1.1" xmlns="http://www.w3.org/2000/svg" width="40" height="40" viewBox="0 0 40 40">
<title>ul-crockery</title>
<path fill="#fff" d="M26.4 20.16v-9.76c0-0.589-0.478-1.066-1.066-1.066s-1.066 0.478-1.066 1.066v0 9.76c-1.864 0.554-3.2 2.251-3.2 4.262 0 0.002 0 0.004 0 0.006v0c0 2.186 1.622 6.186 4.266 6.186s4.266-4 4.266-6.186c0-0.002 0-0.003 0-0.006 0-2.010-1.336-3.707-3.169-4.254l-0.031-0.008zM25.334 28.534c-0.854 0-2.134-2.422-2.134-4.054-0.002-0.030-0.002-0.064-0.002-0.099 0-1.202 0.943-2.185 2.13-2.247h0.006c1.193 0.063 2.135 1.046 2.135 2.248 0 0.035-0.001 0.070-0.002 0.104v-0.005c0 1.632-1.28 4.054-2.134 4.054zM17.866 9.334c-0.589 0-1.066 0.478-1.066 1.066v0 5.824l-1.066 0.714v-6.538c0-0.589-0.478-1.066-1.066-1.066s-1.066 0.478-1.066 1.066v0 6.538l-1.066-0.714v-5.824c0-0.589-0.478-1.066-1.066-1.066s-1.066 0.478-1.066 1.066v0 6.4c0.002 0.369 0.19 0.693 0.476 0.883l0.004 0.002 2.72 1.824v10.090c0 0.589 0.478 1.066 1.066 1.066s1.066-0.478 1.066-1.066v0-10.090l2.72-1.824c0.29-0.193 0.478-0.517 0.48-0.885v-6.4c0-0.589-0.478-1.066-1.066-1.066v0z"></path>
</svg>
