<!-- Generated by IcoMoon.io -->
<svg version="1.1" xmlns="http://www.w3.org/2000/svg" width="40" height="40" viewBox="0 0 40 40">
<title>ul-clipboard-blank</title>
<path fill="#fff" d="M25.334 11.466h-1.066c0-1.178-0.955-2.134-2.134-2.134v0h-4.266c-1.178 0-2.134 0.955-2.134 2.134v0h-1.066c-1.767 0-3.2 1.433-3.2 3.2v0 12.8c0 1.767 1.433 3.2 3.2 3.2v0h10.666c1.767 0 3.2-1.433 3.2-3.2v0-12.8c0-1.767-1.433-3.2-3.2-3.2v0zM17.866 11.466h4.266v2.134h-4.266v-2.134zM26.4 27.466c0 0.589-0.478 1.066-1.066 1.066v0h-10.666c-0.589 0-1.066-0.478-1.066-1.066v0-12.8c0-0.589 0.478-1.066 1.066-1.066v0h1.066c0 1.178 0.955 2.134 2.134 2.134v0h4.266c1.178 0 2.134-0.955 2.134-2.134v0h1.066c0.589 0 1.066 0.478 1.066 1.066v0z"></path>
</svg>
