<!-- Generated by IcoMoon.io -->
<svg version="1.1" xmlns="http://www.w3.org/2000/svg" width="40" height="40" viewBox="0 0 40 40">
<title>ul-cloud-sun-tear</title>
<path fill="#fff" d="M18.986 22.486c-0.166-0.112-0.371-0.179-0.592-0.179s-0.426 0.067-0.596 0.182l0.004-0.002c-0.106 0.086-2.602 1.782-2.602 4.448 0 1.767 1.433 3.2 3.2 3.2s3.2-1.433 3.2-3.2v0c0-2.666-2.496-4.374-2.614-4.448zM18.4 28c-0.589 0-1.066-0.478-1.066-1.066v0c0.072-0.853 0.468-1.601 1.063-2.13l0.003-0.003c0.598 0.532 0.995 1.281 1.066 2.122l0.001 0.012c0 0.589-0.478 1.066-1.066 1.066v0zM29.6 15.2h-0.854c-0.12-0.513-0.311-0.965-0.566-1.374l0.011 0.019 0.598-0.598c0.159-0.186 0.257-0.428 0.257-0.694 0-0.589-0.478-1.066-1.066-1.066-0.266 0-0.509 0.097-0.695 0.258l0.002-0.001-0.598 0.598c-0.39-0.243-0.842-0.434-1.324-0.549l-0.030-0.006v-0.854c0-0.589-0.478-1.066-1.066-1.066s-1.066 0.478-1.066 1.066v0 0.854c-0.509 0.118-0.958 0.31-1.362 0.566l0.018-0.010-0.608-0.598c-0.186-0.159-0.428-0.257-0.694-0.257-0.589 0-1.066 0.478-1.066 1.066 0 0.266 0.097 0.509 0.258 0.695l-0.001-0.002 0.598 0.608c-0.096 0.16-0.17 0.342-0.256 0.512-0.505-0.148-1.085-0.234-1.685-0.234h-0.001c-0.001 0-0.002 0-0.004 0-3.207 0-5.863 2.359-6.328 5.437l-0.004 0.035c-1.588 0.453-2.732 1.891-2.732 3.597 0 1.522 0.911 2.831 2.218 3.413l0.024 0.010c0.126 0.051 0.273 0.082 0.426 0.086h0.001c0.002 0 0.006 0 0.009 0 0.589 0 1.066-0.478 1.066-1.066 0-0.438-0.264-0.814-0.642-0.978l-0.007-0.002c-0.569-0.247-0.96-0.804-0.96-1.453 0-0.003 0-0.006 0-0.010v0.001c0-0.884 0.716-1.6 1.6-1.6v0c0.589 0 1.066-0.478 1.066-1.066v0c0.011-2.348 1.917-4.247 4.266-4.247 1.857 0 3.436 1.186 4.023 2.842l0.010 0.030c0.126 0.37 0.44 0.646 0.826 0.714l0.006 0.001c1.202 0.183 2.112 1.209 2.112 2.448 0 0.858-0.437 1.614-1.101 2.058l-0.009 0.006c-0.294 0.194-0.484 0.523-0.484 0.896 0 0.591 0.479 1.071 1.071 1.071 0.218 0 0.422-0.066 0.59-0.178l-0.004 0.002c1.26-0.831 2.080-2.241 2.080-3.842 0-0.606-0.118-1.185-0.331-1.715l0.011 0.031 0.138 0.138c0.192 0.19 0.455 0.308 0.746 0.31v0c0.002 0 0.004 0 0.006 0 0.293 0 0.558-0.118 0.751-0.31v0c0.192-0.193 0.31-0.458 0.31-0.752s-0.118-0.559-0.31-0.752l-0.598-0.598c0.225-0.39 0.399-0.844 0.497-1.326l0.005-0.029h0.854c0.589 0 1.066-0.478 1.066-1.066s-0.478-1.066-1.066-1.066v0zM26.038 18.026v0c-0.184 0.171-0.395 0.318-0.625 0.43l-0.015 0.007c-0.325-0.24-0.699-0.442-1.1-0.587l-0.031-0.010c-0.506-1.089-1.267-1.986-2.208-2.642l-0.022-0.014c0.123-0.285 0.289-0.529 0.491-0.737l-0.001 0.001c0.459-0.426 1.076-0.688 1.754-0.688s1.295 0.262 1.756 0.69l-0.002-0.002c0.442 0.454 0.714 1.075 0.714 1.76s-0.272 1.306-0.714 1.761l0.001-0.001z"></path>
</svg>
