<!-- Generated by IcoMoon.io -->
<svg version="1.1" xmlns="http://www.w3.org/2000/svg" width="40" height="40" viewBox="0 0 40 40">
<title>ul-document-layout-right</title>
<path fill="#fff" d="M21.066 26.4h-10.666c-0.589 0-1.066 0.478-1.066 1.066s0.478 1.066 1.066 1.066v0h10.666c0.589 0 1.066-0.478 1.066-1.066s-0.478-1.066-1.066-1.066v0zM10.4 15.734h8.534c0.589 0 1.066-0.478 1.066-1.066s-0.478-1.066-1.066-1.066v0h-8.534c-0.589 0-1.066 0.478-1.066 1.066s0.478 1.066 1.066 1.066v0zM10.4 20h8.534c0.589 0 1.066-0.478 1.066-1.066s-0.478-1.066-1.066-1.066v0h-8.534c-0.589 0-1.066 0.478-1.066 1.066s0.478 1.066 1.066 1.066v0zM29.6 22.134h-19.2c-0.589 0-1.066 0.478-1.066 1.066s0.478 1.066 1.066 1.066v0h19.2c0.589 0 1.066-0.478 1.066-1.066s-0.478-1.066-1.066-1.066v0zM29.6 11.466h-6.4c-0.589 0-1.066 0.478-1.066 1.066v0 6.4c0 0.589 0.478 1.066 1.066 1.066v0h6.4c0.589 0 1.066-0.478 1.066-1.066v0-6.4c0-0.589-0.478-1.066-1.066-1.066v0zM28.534 17.866h-4.266v-4.266h4.266z"></path>
</svg>
