<!-- Generated by IcoMoon.io -->
<svg version="1.1" xmlns="http://www.w3.org/2000/svg" width="40" height="40" viewBox="0 0 40 40">
<title>ul-direction</title>
<path fill="#fff" d="M17.558 18.090l2.442-2.454 2.442 2.454c0.194 0.195 0.462 0.315 0.758 0.315s0.564-0.121 0.758-0.315v0c0.195-0.194 0.315-0.462 0.315-0.758s-0.121-0.564-0.315-0.758l-3.2-3.2c-0.194-0.195-0.462-0.315-0.758-0.315s-0.564 0.121-0.758 0.315l-3.2 3.2c-0.194 0.194-0.314 0.462-0.314 0.758 0 0.591 0.479 1.071 1.071 1.071 0.296 0 0.563-0.12 0.758-0.314v0zM22.442 22.976l-2.442 2.454-2.442-2.454c-0.194-0.194-0.462-0.314-0.758-0.314-0.591 0-1.071 0.479-1.071 1.071 0 0.296 0.12 0.563 0.314 0.758l3.2 3.2c0.194 0.195 0.462 0.315 0.758 0.315s0.564-0.121 0.758-0.315l3.2-3.2c0.194-0.194 0.314-0.462 0.314-0.758 0-0.591-0.479-1.071-1.071-1.071-0.296 0-0.563 0.12-0.758 0.314v0z"></path>
</svg>
