<!-- Generated by IcoMoon.io -->
<svg version="1.1" xmlns="http://www.w3.org/2000/svg" width="40" height="40" viewBox="0 0 40 40">
<title>ul-desktop</title>
<path fill="#fff" d="M27.466 10.4h-14.934c-1.767 0-3.2 1.433-3.2 3.2v0 8.534c0 1.767 1.433 3.2 3.2 3.2v0h6.4v2.134h-4.266c-0.589 0-1.066 0.478-1.066 1.066s0.478 1.066 1.066 1.066v0h10.666c0.589 0 1.066-0.478 1.066-1.066s-0.478-1.066-1.066-1.066v0h-4.266v-2.134h6.4c1.767 0 3.2-1.433 3.2-3.2v0-8.534c0-1.767-1.433-3.2-3.2-3.2v0zM28.534 22.134c0 0.589-0.478 1.066-1.066 1.066v0h-14.934c-0.589 0-1.066-0.478-1.066-1.066v0-8.534c0-0.589 0.478-1.066 1.066-1.066v0h14.934c0.589 0 1.066 0.478 1.066 1.066v0z"></path>
</svg>
