<!-- Generated by IcoMoon.io -->
<svg version="1.1" xmlns="http://www.w3.org/2000/svg" width="40" height="40" viewBox="0 0 40 40">
<title>ul-envelope-star</title>
<path fill="#fff" d="M21.75 17.59l-0.31 1.846c-0.014 0.082-0.022 0.175-0.022 0.27 0 0.562 0.281 1.059 0.71 1.358l0.006 0.003c0.254 0.186 0.572 0.298 0.917 0.298 0.282 0 0.547-0.075 0.776-0.206l-0.007 0.004 1.514-0.864 1.536 0.842c0.222 0.129 0.489 0.206 0.773 0.206 0.334 0 0.642-0.105 0.896-0.283l-0.005 0.003c0.422-0.303 0.694-0.793 0.694-1.346 0-0.094-0.008-0.185-0.022-0.274l0.002 0.010-0.31-1.846 1.28-1.302c0.292-0.296 0.472-0.703 0.472-1.152 0-0.814-0.592-1.49-1.369-1.62l-0.010-0.002-1.728-0.256-0.778-1.654c-0.261-0.551-0.812-0.925-1.45-0.925s-1.19 0.374-1.446 0.915l-0.004 0.010-0.778 1.654-1.728 0.256c-0.786 0.132-1.378 0.807-1.378 1.622 0 0.449 0.18 0.856 0.472 1.152v0zM23.702 15.318c0.541-0.084 0.986-0.428 1.212-0.897l0.004-0.010 0.416-0.886 0.416 0.886c0.233 0.478 0.676 0.823 1.206 0.916l0.010 0.002 1.066 0.15-0.778 0.79c-0.29 0.301-0.47 0.711-0.47 1.162 0 0.094 0.008 0.186 0.022 0.277l-0.002-0.010 0.17 1.066-0.842-0.458c-0.222-0.126-0.486-0.199-0.768-0.199s-0.546 0.074-0.776 0.203l0.008-0.004-0.842 0.458 0.17-1.066c0.014-0.081 0.022-0.174 0.022-0.268 0-0.448-0.179-0.854-0.47-1.15v0l-0.778-0.8zM29.6 23.478c-0.589 0-1.066 0.478-1.066 1.066v0 3.2c0 0.589-0.478 1.066-1.066 1.066v0h-14.934c-0.589 0-1.066-0.478-1.066-1.066v0-10.23l6.272 6.272c0.57 0.579 1.362 0.938 2.238 0.938 0.001 0 0.002 0 0.002 0h0.288c0.548-0.049 0.974-0.506 0.974-1.062 0-0.031-0.002-0.062-0.004-0.094v0.004c-0.049-0.549-0.506-0.975-1.062-0.975-0.035 0-0.070 0.002-0.104 0.005h0.004c-0.030 0.003-0.066 0.006-0.102 0.006-0.282 0-0.537-0.116-0.719-0.304v0l-6.282-6.294h3.83c0.589 0 1.066-0.478 1.066-1.066s-0.478-1.066-1.066-1.066v0h-4.266c-1.767 0-3.2 1.433-3.2 3.2v0 10.666c0 1.767 1.433 3.2 3.2 3.2v0h14.934c1.767 0 3.2-1.433 3.2-3.2v0-3.2c0-0.589-0.478-1.066-1.066-1.066v0z"></path>
</svg>
