<!-- Generated by IcoMoon.io -->
<svg version="1.1" xmlns="http://www.w3.org/2000/svg" width="40" height="40" viewBox="0 0 40 40">
<title>ul-emoji</title>
<path fill="#fff" d="M23.2 18.934c0.589 0 1.066-0.478 1.066-1.066s-0.478-1.066-1.066-1.066c-0.589 0-1.066 0.478-1.066 1.066v0c0 0.589 0.478 1.066 1.066 1.066v0zM16.8 18.934c0.589 0 1.066-0.478 1.066-1.066s-0.478-1.066-1.066-1.066c-0.589 0-1.066 0.478-1.066 1.066v0c0 0.589 0.478 1.066 1.066 1.066v0zM20 9.334c-5.891 0-10.666 4.776-10.666 10.666s4.776 10.666 10.666 10.666c5.891 0 10.666-4.776 10.666-10.666v0c0-5.891-4.776-10.666-10.666-10.666v0zM20 28.534c-4.713 0-8.534-3.821-8.534-8.534s3.821-8.534 8.534-8.534c4.713 0 8.534 3.821 8.534 8.534v0c0 4.713-3.821 8.534-8.534 8.534v0zM24.566 20.938c-0.197-0.245-0.497-0.4-0.833-0.4-0.25 0-0.481 0.086-0.663 0.231l0.002-0.002c-0.428 0.352-0.753 0.814-0.933 1.345l-0.006 0.021h-3.894c-0.182-0.562-0.507-1.036-0.934-1.394l-0.005-0.004c-0.17-0.121-0.383-0.194-0.613-0.194-0.339 0-0.641 0.158-0.836 0.405l-0.002 0.002c-0.145 0.181-0.233 0.413-0.233 0.665 0 0.328 0.148 0.621 0.38 0.817l0.002 0.002c0.166 0.187 0.268 0.435 0.268 0.707 0 0.022-0.001 0.042-0.002 0.063v-0.003c0 0.008 0 0.018 0 0.026 0 0.282-0.101 0.542-0.269 0.743l0.002-0.002c-0.26 0.197-0.426 0.506-0.426 0.853 0 0.589 0.478 1.066 1.066 1.066 0.265 0 0.507-0.097 0.694-0.257l-0.002 0.001c0.407-0.36 0.717-0.821 0.89-1.343l0.006-0.022h3.904c0.179 0.566 0.51 1.041 0.944 1.393l0.006 0.004c0.17 0.12 0.38 0.191 0.608 0.192v0c0.337-0.002 0.636-0.158 0.83-0.403l0.002-0.002c0.145-0.181 0.233-0.413 0.233-0.665 0-0.328-0.148-0.621-0.38-0.817l-0.002-0.002c-0.166-0.187-0.268-0.435-0.268-0.707 0-0.022 0.001-0.042 0.002-0.063v0.003c0-0.008 0-0.018 0-0.026 0-0.282 0.101-0.542 0.269-0.743l-0.002 0.002c0.253-0.197 0.413-0.502 0.413-0.843 0-0.246-0.083-0.472-0.223-0.653l0.002 0.002z"></path>
</svg>
