<!-- Generated by IcoMoon.io -->
<svg version="1.1" xmlns="http://www.w3.org/2000/svg" width="40" height="40" viewBox="0 0 40 40">
<title>ul-envelope-edit</title>
<path fill="#fff" d="M22.134 19.478h2.582c0.002 0 0.004 0 0.006 0 0.293 0 0.558-0.118 0.751-0.31l4.886-4.886c0.195-0.194 0.315-0.462 0.315-0.758s-0.121-0.564-0.315-0.758l-2.582-2.582c-0.194-0.195-0.462-0.315-0.758-0.315s-0.564 0.121-0.758 0.315l-4.886 4.886c-0.188 0.197-0.305 0.463-0.31 0.757v2.582c0 0.589 0.478 1.066 1.066 1.066v0zM23.2 16.278l3.818-3.818 1.066 1.066-3.818 3.818h-1.066zM29.6 18.41c-0.589 0-1.066 0.478-1.066 1.066v0 7.466c0 0.589-0.478 1.066-1.066 1.066v0h-14.934c-0.589 0-1.066-0.478-1.066-1.066v0-10.25l6.272 6.282c0.581 0.588 1.386 0.952 2.278 0.952s1.697-0.364 2.277-0.952v0c0.189-0.192 0.305-0.456 0.305-0.746s-0.116-0.554-0.305-0.747v0c-0.194-0.198-0.464-0.321-0.762-0.321s-0.569 0.123-0.762 0.321v0c-0.192 0.189-0.456 0.305-0.746 0.305s-0.554-0.116-0.747-0.305v0l-6.304-6.294h4.896c0.589 0 1.066-0.478 1.066-1.066s-0.478-1.066-1.066-1.066v0h-5.334c-1.767 0-3.2 1.433-3.2 3.2v0 10.666c0 1.767 1.433 3.2 3.2 3.2v0h14.934c1.767 0 3.2-1.433 3.2-3.2v0-7.466c0-0.589-0.478-1.066-1.066-1.066v0z"></path>
</svg>
