<!-- Generated by IcoMoon.io -->
<svg version="1.1" xmlns="http://www.w3.org/2000/svg" width="40" height="40" viewBox="0 0 40 40">
<title>ul-envelope-send</title>
<path fill="#fff" d="M24.266 18.4h-8.534c-1.767 0-3.2 1.433-3.2 3.2v0 5.334c0 1.767 1.433 3.2 3.2 3.2v0h8.534c1.767 0 3.2-1.433 3.2-3.2v0-5.334c0-1.767-1.433-3.2-3.2-3.2v0zM23.818 20.534l-3.072 3.072c-0.192 0.189-0.456 0.305-0.746 0.305s-0.554-0.116-0.747-0.305l-3.072-3.072zM25.334 26.934c0 0.589-0.478 1.066-1.066 1.066v0h-8.534c-0.589 0-1.066-0.478-1.066-1.066v0-4.896l3.072 3.062c0.57 0.586 1.366 0.95 2.248 0.95 0.005 0 0.010 0 0.014 0h-0.001c0.883-0.001 1.682-0.359 2.262-0.938l3.072-3.072zM16.8 14.134h3.83l-0.32 0.31c-0.195 0.194-0.315 0.462-0.315 0.758s0.121 0.564 0.315 0.758v0c0.194 0.195 0.462 0.315 0.758 0.315s0.564-0.121 0.758-0.315l2.134-2.134c0.094-0.098 0.17-0.215 0.222-0.345l0.002-0.007c0.050-0.12 0.080-0.259 0.080-0.406s-0.030-0.286-0.082-0.412l0.002 0.007c-0.054-0.137-0.13-0.254-0.224-0.352v0l-2.134-2.134c-0.194-0.194-0.462-0.314-0.758-0.314-0.591 0-1.071 0.479-1.071 1.071 0 0.296 0.12 0.563 0.314 0.758v0l0.32 0.31h-3.83c-0.589 0-1.066 0.478-1.066 1.066s0.478 1.066 1.066 1.066v0z"></path>
</svg>
