<!-- Generated by IcoMoon.io -->
<svg version="1.1" xmlns="http://www.w3.org/2000/svg" width="40" height="40" viewBox="0 0 40 40">
<title>ul-file-question-alt</title>
<path fill="#fff" d="M21.142 20h-5.334c-0.589 0-1.066 0.478-1.066 1.066s0.478 1.066 1.066 1.066v0h5.334c0.589 0 1.066-0.478 1.066-1.066s-0.478-1.066-1.066-1.066v0zM22.208 28.534h-8.534c-0.589 0-1.066-0.478-1.066-1.066v0-14.934c0-0.589 0.478-1.066 1.066-1.066v0h5.334v3.2c0 1.767 1.433 3.2 3.2 3.2v0h3.2v1.066c0 0.589 0.478 1.066 1.066 1.066s1.066-0.478 1.066-1.066v0-2.134c0.002-0.010 0.003-0.021 0.003-0.032s-0.002-0.022-0.004-0.033v0.001c-0.010-0.106-0.037-0.204-0.077-0.294l0.002 0.006v-0.096c-0.054-0.114-0.122-0.214-0.203-0.299l-6.399-6.399c-0.088-0.082-0.19-0.15-0.302-0.2l-0.007-0.002s-0.054 0-0.086 0c-0.098-0.058-0.214-0.099-0.336-0.117l-0.005-0.001h-6.4c-1.767 0-3.2 1.433-3.2 3.2v0 14.934c0 1.767 1.433 3.2 3.2 3.2v0h8.534c0.589 0 1.066-0.478 1.066-1.066s-0.478-1.066-1.066-1.066v0zM21.142 12.97l2.752 2.762h-1.686c-0.589 0-1.066-0.478-1.066-1.066v0zM27.082 28.842c-0.048-0.044-0.1-0.086-0.155-0.125l-0.005-0.003c-0.11-0.073-0.238-0.128-0.376-0.158l-0.008-0.002c-0.063-0.013-0.135-0.021-0.21-0.021-0.293 0-0.558 0.118-0.75 0.309v0c-0.195 0.194-0.315 0.462-0.315 0.758s0.121 0.564 0.315 0.758v0c0.192 0.19 0.455 0.308 0.746 0.31v0c0.002 0 0.003 0 0.006 0 0.589 0 1.066-0.478 1.066-1.066 0-0.146-0.030-0.286-0.082-0.412l0.002 0.007c-0.062-0.135-0.14-0.252-0.235-0.353l0.001 0.001zM21.142 24.266h-5.334c-0.589 0-1.066 0.478-1.066 1.066s0.478 1.066 1.066 1.066v0h5.334c0.589 0 1.066-0.478 1.066-1.066s-0.478-1.066-1.066-1.066v0zM26.326 21.066c-0.001 0-0.002 0-0.002 0-1.178 0-2.208 0.637-2.763 1.585l-0.008 0.015c-0.090 0.153-0.142 0.337-0.142 0.534 0 0.591 0.479 1.070 1.070 1.070 0.395 0 0.74-0.214 0.926-0.532l0.002-0.005c0.188-0.321 0.531-0.534 0.924-0.534 0.589 0 1.066 0.478 1.066 1.066s-0.478 1.066-1.066 1.066c-0.002 0-0.005 0-0.006 0v0c-0.589 0-1.066 0.478-1.066 1.066s0.478 1.066 1.066 1.066v0c1.767 0 3.2-1.433 3.2-3.2s-1.433-3.2-3.2-3.2v0zM15.808 17.866h1.066c0.589 0 1.066-0.478 1.066-1.066s-0.478-1.066-1.066-1.066v0h-1.066c-0.589 0-1.066 0.478-1.066 1.066s0.478 1.066 1.066 1.066v0z"></path>
</svg>
