<!-- Generated by IcoMoon.io -->
<svg version="1.1" xmlns="http://www.w3.org/2000/svg" width="40" height="40" viewBox="0 0 40 40">
<title>ul-flask-potion</title>
<path fill="#fff" d="M27.392 19.648c0.002-0.016 0.003-0.034 0.003-0.054s-0.001-0.038-0.003-0.055v0.002c-0.812-1.904-2.293-3.392-4.141-4.194l-0.051-0.020v-3.862h1.066c0.589 0 1.066-0.478 1.066-1.066s-0.478-1.066-1.066-1.066v0h-8.534c-0.589 0-1.066 0.478-1.066 1.066s0.478 1.066 1.066 1.066v0h1.066v3.862c-1.89 0.842-3.358 2.348-4.13 4.214l-0.019 0.052c-0.002 0.016-0.003 0.034-0.003 0.054s0.001 0.038 0.003 0.055v-0.002c-0.385 0.904-0.608 1.955-0.608 3.059 0 4.418 3.582 8 8 8s8-3.582 8-8c0-1.104-0.223-2.155-0.628-3.112l0.020 0.053zM18.198 17.078c0.43-0.143 0.736-0.542 0.736-1.014v-4.598h2.134v4.598c0 0.47 0.306 0.87 0.729 1.011l0.007 0.002c1.094 0.362 2.014 1.005 2.701 1.846l0.008 0.010h-9.024c0.696-0.851 1.615-1.494 2.669-1.844l0.041-0.012zM20 28.534c-3.238-0.006-5.861-2.629-5.866-5.866v-0.001c0.002-0.571 0.087-1.122 0.245-1.64l-0.010 0.040h11.264c0.147 0.478 0.233 1.029 0.234 1.599v0.001c-0.006 3.238-2.629 5.861-5.866 5.866h-0.001zM22.134 24.266c-0.589 0-1.066 0.478-1.066 1.066s0.478 1.066 1.066 1.066c0.589 0 1.066-0.478 1.066-1.066v0c0-0.589-0.478-1.066-1.066-1.066v0zM17.866 23.2c-0.589 0-1.066 0.478-1.066 1.066s0.478 1.066 1.066 1.066c0.589 0 1.066-0.478 1.066-1.066v0c0-0.589-0.478-1.066-1.066-1.066v0z"></path>
</svg>
