<!-- Generated by IcoMoon.io -->
<svg version="1.1" xmlns="http://www.w3.org/2000/svg" width="40" height="40" viewBox="0 0 40 40">
<title>ul-file-search-alt</title>
<path fill="#fff" d="M20 28.534h-7.466c-0.589 0-1.066-0.478-1.066-1.066v0-14.934c0-0.589 0.478-1.066 1.066-1.066v0h5.334v3.2c0 1.767 1.433 3.2 3.2 3.2v0h3.2v1.066c0 0.589 0.478 1.066 1.066 1.066s1.066-0.478 1.066-1.066v0-2.134s0 0 0-0.064c-0.013-0.107-0.035-0.205-0.067-0.298l0.003 0.010v-0.096c-0.054-0.114-0.122-0.214-0.203-0.299l-6.399-6.399c-0.086-0.081-0.184-0.148-0.292-0.2l-0.007-0.003c-0.014-0.002-0.031-0.003-0.048-0.003s-0.034 0.002-0.050 0.004h0.002c-0.102-0.059-0.221-0.101-0.347-0.117l-0.005-0.001h-6.454c-1.767 0-3.2 1.433-3.2 3.2v0 14.934c0 1.767 1.433 3.2 3.2 3.2v0h7.466c0.589 0 1.066-0.478 1.066-1.066s-0.478-1.066-1.066-1.066v0zM20 12.97l2.762 2.762h-1.696c-0.589 0-1.066-0.478-1.066-1.066v0zM14.666 15.734c-0.589 0-1.066 0.478-1.066 1.066s0.478 1.066 1.066 1.066v0h1.066c0.589 0 1.066-0.478 1.066-1.066s-0.478-1.066-1.066-1.066v0zM30.358 28.842l-1.248-1.238c0.306-0.524 0.486-1.153 0.486-1.824 0-1.006-0.406-1.918-1.062-2.582v0c-0.678-0.702-1.627-1.137-2.678-1.137-2.056 0-3.722 1.666-3.722 3.722 0 0.025 0 0.050 0.001 0.074v-0.004c0 0.006 0 0.014 0 0.021 0 2.038 1.652 3.69 3.69 3.69 0.654 0 1.267-0.17 1.8-0.468l-0.018 0.010 1.238 1.248c0.194 0.195 0.462 0.315 0.758 0.315s0.564-0.121 0.758-0.315v0c0.195-0.194 0.315-0.462 0.315-0.758s-0.121-0.564-0.315-0.758v0zM26.976 26.976c-0.294 0.276-0.69 0.446-1.126 0.446s-0.832-0.17-1.126-0.446l0.001 0.001c-0.283-0.288-0.458-0.684-0.458-1.12v0c0-0.005 0-0.010 0-0.016 0-0.437 0.18-0.831 0.469-1.114v0c0.274-0.273 0.65-0.446 1.064-0.458h0.002c0.029-0.002 0.062-0.003 0.096-0.003 0.866 0 1.568 0.702 1.568 1.568 0 0.009 0 0.017 0 0.026v-0.002c-0.010 0.441-0.195 0.836-0.49 1.119l-0.001 0.001zM21.066 20h-6.4c-0.589 0-1.066 0.478-1.066 1.066s0.478 1.066 1.066 1.066v0h6.4c0.589 0 1.066-0.478 1.066-1.066s-0.478-1.066-1.066-1.066v0zM18.934 26.4c0.589 0 1.066-0.478 1.066-1.066s-0.478-1.066-1.066-1.066v0h-4.266c-0.589 0-1.066 0.478-1.066 1.066s0.478 1.066 1.066 1.066v0z"></path>
</svg>
