<!-- Generated by IcoMoon.io -->
<svg version="1.1" xmlns="http://www.w3.org/2000/svg" width="40" height="40" viewBox="0 0 40 40">
<title>ul-folder-open</title>
<path fill="#fff" d="M31.498 18.262c-0.197-0.242-0.495-0.394-0.828-0.394-0.002 0-0.002 0-0.004 0h-2.133v-1.066c0-1.767-1.433-3.2-3.2-3.2v0h-6.698l-0.342-1.066c-0.453-1.254-1.632-2.134-3.017-2.134-0.004 0-0.009 0-0.013 0h-3.797c-1.767 0-3.2 1.433-3.2 3.2v0 12.8c0 1.767 1.433 3.2 3.2 3.2v0h15.36c1.518-0.005 2.786-1.065 3.11-2.485l0.004-0.022 1.792-7.926c0.014-0.064 0.022-0.138 0.022-0.213 0-0.266-0.097-0.508-0.258-0.695l0.001 0.002zM12.928 26.634c-0.111 0.48-0.534 0.832-1.041 0.832-0.009 0-0.018 0-0.027 0h-0.393c-0.589 0-1.066-0.478-1.066-1.066v0-12.8c0-0.589 0.478-1.066 1.066-1.066v0h3.798c0.017-0.001 0.036-0.002 0.055-0.002 0.467 0 0.865 0.301 1.009 0.719l0.002 0.007 0.576 1.75c0.141 0.41 0.514 0.703 0.958 0.726h7.469c0.589 0 1.066 0.478 1.066 1.066v0 1.066h-10.666c-0.008 0-0.017 0-0.026 0-0.506 0-0.93 0.352-1.039 0.825l-0.002 0.007zM27.862 26.634c-0.111 0.48-0.534 0.832-1.041 0.832-0.009 0-0.018 0-0.027 0h-11.902c0.051-0.108 0.092-0.233 0.116-0.364l0.002-0.010 1.578-7.094h12.8z"></path>
</svg>
