<!-- Generated by IcoMoon.io -->
<svg version="1.1" xmlns="http://www.w3.org/2000/svg" width="40" height="40" viewBox="0 0 40 40">
<title>ul-file-medical-alt</title>
<path fill="#fff" d="M26.4 26.4c-0.589 0-1.066 0.478-1.066 1.066v0c0 0.589-0.478 1.066-1.066 1.066v0h-10.666c-0.589 0-1.066-0.478-1.066-1.066v0-14.934c0-0.589 0.478-1.066 1.066-1.066v0h5.334v3.2c0 1.767 1.433 3.2 3.2 3.2v0h3.2v1.066c0 0.589 0.478 1.066 1.066 1.066s1.066-0.478 1.066-1.066v0-2.134s0 0 0-0.064c-0.013-0.107-0.035-0.205-0.067-0.298l0.003 0.010c0.002-0.014 0.003-0.031 0.003-0.048s-0.002-0.034-0.004-0.050v0.002c-0.054-0.114-0.122-0.214-0.203-0.299l-6.399-6.399c-0.086-0.081-0.184-0.148-0.292-0.2l-0.007-0.003h-0.106c-0.092-0.050-0.199-0.091-0.312-0.116l-0.008-0.002h-6.474c-1.767 0-3.2 1.433-3.2 3.2v0 14.934c0 1.767 1.433 3.2 3.2 3.2v0h10.666c1.767 0 3.2-1.433 3.2-3.2v0c0-0.589-0.478-1.066-1.066-1.066v0zM21.066 12.97l2.762 2.762h-1.696c-0.589 0-1.066-0.478-1.066-1.066v0zM28.534 22.134h-2.666c-0.002 0-0.004 0-0.006 0-0.293 0-0.558 0.118-0.751 0.31v0l-1.322 1.334-2.986-3.414c-0.197-0.224-0.484-0.366-0.803-0.366-0.294 0-0.561 0.119-0.754 0.312v0l-1.814 1.824h-1.696c-0.589 0-1.066 0.478-1.066 1.066s0.478 1.066 1.066 1.066v0h2.134c0.002 0 0.004 0 0.006 0 0.293 0 0.558-0.118 0.751-0.31v0l1.376-1.334 2.986 3.414c0.189 0.215 0.462 0.353 0.766 0.362h0.002c0.002 0 0.004 0 0.006 0 0.293 0 0.558-0.118 0.751-0.31v0l1.792-1.824h2.23c0.589 0 1.066-0.478 1.066-1.066s-0.478-1.066-1.066-1.066v0z"></path>
</svg>
