<!-- Generated by IcoMoon.io -->
<svg version="1.1" xmlns="http://www.w3.org/2000/svg" width="40" height="40" viewBox="0 0 40 40">
<title>ul-folder-info</title>
<path fill="#fff" d="M20 21.6c-0.589 0-1.066 0.478-1.066 1.066v0 2.134c0 0.589 0.478 1.066 1.066 1.066s1.066-0.478 1.066-1.066v0-2.134c0-0.589-0.478-1.066-1.066-1.066v0zM27.466 13.066h-6.698l-0.342-1.066c-0.453-1.254-1.632-2.134-3.017-2.134-0.004 0-0.009 0-0.013 0h-4.863c-1.767 0-3.2 1.433-3.2 3.2v0 13.866c0 1.767 1.433 3.2 3.2 3.2v0h14.934c1.767 0 3.2-1.433 3.2-3.2v0-10.666c0-1.767-1.433-3.2-3.2-3.2v0zM28.534 26.934c0 0.589-0.478 1.066-1.066 1.066v0h-14.934c-0.589 0-1.066-0.478-1.066-1.066v0-13.866c0-0.589 0.478-1.066 1.066-1.066v0h4.864c0.001 0 0.002 0 0.002 0 0.467 0 0.864 0.3 1.008 0.718l0.002 0.007 0.576 1.75c0.146 0.426 0.544 0.726 1.010 0.726 0.001 0 0.002 0 0.003 0h7.466c0.589 0 1.066 0.478 1.066 1.066v0zM20.758 18.71c-0.193-0.19-0.457-0.307-0.749-0.307-0.15 0-0.291 0.030-0.421 0.086l0.007-0.002c-0.138 0.052-0.254 0.128-0.352 0.224v0c-0.188 0.197-0.305 0.463-0.31 0.757v0.001c0.002 0.291 0.119 0.555 0.31 0.746v0c0.194 0.195 0.462 0.315 0.758 0.315s0.564-0.121 0.758-0.315v0c0.19-0.192 0.308-0.455 0.31-0.746v0c-0.002-0.147-0.033-0.286-0.088-0.412l0.002 0.007c-0.052-0.138-0.128-0.254-0.224-0.352v0z"></path>
</svg>
