<!-- Generated by IcoMoon.io -->
<svg version="1.1" xmlns="http://www.w3.org/2000/svg" width="40" height="40" viewBox="0 0 40 40">
<title>ul-grin-tongue-wink</title>
<path fill="#fff" d="M20 9.334c-5.891 0-10.666 4.776-10.666 10.666s4.776 10.666 10.666 10.666c5.891 0 10.666-4.776 10.666-10.666v0c0-5.891-4.776-10.666-10.666-10.666v0zM20 28.534c-4.713 0-8.534-3.821-8.534-8.534s3.821-8.534 8.534-8.534c4.713 0 8.534 3.821 8.534 8.534v0c0 4.713-3.821 8.534-8.534 8.534v0zM25.994 16.938c-0.588-0.558-1.385-0.902-2.262-0.902s-1.674 0.343-2.262 0.903l0.002-0.002c-0.159 0.186-0.257 0.428-0.257 0.694 0 0.589 0.478 1.066 1.066 1.066 0.266 0 0.509-0.097 0.695-0.258l-0.002 0.001c0.194-0.195 0.462-0.315 0.758-0.315s0.564 0.121 0.758 0.315v0c0.193 0.192 0.458 0.31 0.752 0.31s0.559-0.118 0.752-0.31v0c0.192-0.193 0.31-0.458 0.31-0.752s-0.118-0.559-0.31-0.752v0zM16.8 18.934c0.589 0 1.066-0.478 1.066-1.066s-0.478-1.066-1.066-1.066c-0.589 0-1.066 0.478-1.066 1.066v0c0 0.589 0.478 1.066 1.066 1.066v0zM23.2 21.066h-6.4c-0.589 0-1.066 0.478-1.066 1.066s0.478 1.066 1.066 1.066v0c0 1.767 1.433 3.2 3.2 3.2s3.2-1.433 3.2-3.2v0c0.589 0 1.066-0.478 1.066-1.066s-0.478-1.066-1.066-1.066v0zM20 24.266c-0.589 0-1.066-0.478-1.066-1.066v0h2.134c0 0.589-0.478 1.066-1.066 1.066v0z"></path>
</svg>
