<!-- Generated by IcoMoon.io -->
<svg version="1.1" xmlns="http://www.w3.org/2000/svg" width="40" height="40" viewBox="0 0 40 40">
<title>ul-google</title>
<path fill="#fff" d="M31.309 17.871c-0.093-0.502-0.527-0.877-1.050-0.877h-10.046c0 0 0 0 0 0-0.589 0-1.066 0.478-1.066 1.066 0 0 0 0 0 0v0 4.126c0 0 0 0 0 0 0 0.589 0.478 1.066 1.066 1.066 0 0 0 0 0 0h4.226c-0.308 0.514-0.713 0.938-1.193 1.258l-0.014 0.009c-0.818 0.526-1.818 0.839-2.89 0.839-0.046 0-0.090-0.001-0.136-0.002h0.006c-2.313-0.027-4.264-1.542-4.946-3.63l-0.010-0.038v-0.002c-0.178-0.504-0.28-1.084-0.28-1.689s0.102-1.186 0.291-1.726l-0.011 0.037v-0.002c0.692-2.125 2.644-3.638 4.953-3.666h0.003c0.032-0.001 0.070-0.002 0.107-0.002 1.255 0 2.395 0.495 3.234 1.302l-0.002-0.002c0.191 0.183 0.451 0.296 0.738 0.296 0.294 0 0.562-0.119 0.754-0.312l3.059-3.059c0.193-0.193 0.313-0.459 0.313-0.754 0-0.308-0.13-0.585-0.339-0.78l-0.001-0.001c-2.022-1.898-4.75-3.065-7.75-3.065-0.040 0-0.080 0-0.119 0.001h0.006c-0.010 0-0.022 0-0.034 0-4.549 0-8.49 2.601-10.418 6.396l-0.030 0.066-0.002 0.002c-0.786 1.527-1.248 3.333-1.248 5.246 0 0.008 0 0.016 0 0.024v-0.002c0.003 1.921 0.463 3.734 1.279 5.336l-0.031-0.067 0.002 0.002c1.959 3.862 5.901 6.462 10.45 6.462 0.012 0 0.024 0 0.036 0h-0.002c0.085 0.002 0.184 0.003 0.284 0.003 2.886 0 5.518-1.089 7.507-2.878l-0.010 0.009 0.002-0.002c2.177-2.096 3.529-5.036 3.529-8.291 0-0.117-0.002-0.233-0.005-0.349l0.001 0.017c0-0.002 0-0.005 0-0.008 0-0.836-0.077-1.654-0.224-2.446l0.013 0.082zM20.214 10.4c0.026 0 0.058-0.001 0.090-0.001 2.055 0 3.954 0.67 5.491 1.802l-0.026-0.018-1.55 1.55c-1.096-0.767-2.456-1.226-3.924-1.226-0.029 0-0.058 0-0.086 0.001h0.004c-2.736 0.014-5.117 1.523-6.37 3.75l-0.019 0.037-1.765-1.368c1.711-2.736 4.708-4.529 8.123-4.529 0.010 0 0.021 0 0.031 0h-0.002zM11.125 23.097c-0.324-0.923-0.511-1.988-0.511-3.097s0.187-2.174 0.532-3.165l-0.021 0.067 1.901 1.474c-0.116 0.487-0.182 1.047-0.182 1.622s0.066 1.135 0.192 1.672l-0.010-0.050zM20.214 29.6c-0.009 0-0.019 0-0.030 0-3.415 0-6.412-1.793-8.1-4.489l-0.023-0.040 1.765-1.369c1.271 2.266 3.652 3.774 6.386 3.789h0.002c0.027 0 0.059 0.001 0.091 0.001 1.251 0 2.433-0.296 3.479-0.822l-0.045 0.020 1.805 1.401c-1.451 0.948-3.228 1.511-5.136 1.511-0.069 0-0.137-0.001-0.205-0.002h0.010zM27.174 26.655l-1.664-1.292c0.746-0.804 1.274-1.818 1.487-2.945l0.006-0.038c0.011-0.058 0.018-0.126 0.018-0.195 0-0.589-0.478-1.066-1.066-1.066 0 0 0 0-0.001 0h-4.674v-1.993h8.052c0.037 0.369 0.054 0.742 0.054 1.116 0.002 0.077 0.003 0.167 0.003 0.258 0 2.346-0.837 4.498-2.229 6.17l0.013-0.016z"></path>
</svg>
