<!-- Generated by IcoMoon.io -->
<svg version="1.1" xmlns="http://www.w3.org/2000/svg" width="40" height="40" viewBox="0 0 40 40">
<title>ul-house-user</title>
<path fill="#fff" d="M30.308 18.136l-9.6-8.534c-0.187-0.167-0.436-0.27-0.708-0.27s-0.521 0.102-0.71 0.27l0.001-0.001-9.6 8.534c-0.22 0.196-0.358 0.481-0.358 0.798 0 0.589 0.478 1.066 1.066 1.066 0.272 0 0.521-0.102 0.71-0.27l-0.001 0.001 0.358-0.318v10.188c0 0 0 0 0 0 0 0.589 0.478 1.066 1.066 1.066 0 0 0 0 0 0h14.934c0 0 0 0 0 0 0.589 0 1.066-0.478 1.066-1.066 0 0 0 0 0 0v0-10.188l0.358 0.318c0.187 0.167 0.436 0.269 0.708 0.269 0.589 0 1.066-0.478 1.066-1.066 0-0.317-0.138-0.601-0.357-0.797l-0.001-0.001zM16.997 28.534c0.446-1.253 1.622-2.134 3.003-2.134s2.557 0.881 2.997 2.111l0.007 0.022zM18.4 22.666c0-0.884 0.716-1.6 1.6-1.6s1.6 0.716 1.6 1.6c0 0.884-0.716 1.6-1.6 1.6v0c-0.883-0.001-1.599-0.717-1.6-1.6v0zM26.4 28.534h-1.174c-0.313-1.462-1.19-2.678-2.387-3.43l-0.022-0.013c0.566-0.644 0.913-1.493 0.917-2.422v-0.001c0-2.062-1.671-3.734-3.734-3.734s-3.734 1.671-3.734 3.734v0c0.004 0.93 0.35 1.779 0.921 2.427l-0.003-0.004c-1.219 0.766-2.097 1.981-2.403 3.409l-0.006 0.035h-1.174v-11.018l6.4-5.689 6.4 5.689z"></path>
</svg>
