<!-- Generated by IcoMoon.io -->
<svg version="1.1" xmlns="http://www.w3.org/2000/svg" width="40" height="40" viewBox="0 0 40 40">
<title>ul-html3-alt</title>
<path fill="#fff" d="M15.682 15.734h7.452l-0.189 2.134h-5.088c-0.589 0-1.066 0.478-1.066 1.066s0.478 1.066 1.066 1.066v0h4.899l-0.282 3.175-2.484 0.563-2.483-0.565-0.102-1.135c-0.050-0.547-0.506-0.972-1.062-0.972-0.589 0-1.066 0.478-1.066 1.066 0 0.034 0.002 0.066 0.005 0.099v-0.004l0.171 1.91c0.043 0.465 0.378 0.841 0.819 0.945l0.007 0.002 3.477 0.79c0.071 0.017 0.153 0.026 0.237 0.026s0.166-0.010 0.244-0.027l-0.007 0.002 3.478-0.79c0.448-0.105 0.783-0.482 0.826-0.942v-0.004l0.46-5.193 0.002-0.010-0.001-0.004 0.37-4.169c0.002-0.028 0.004-0.060 0.004-0.093 0-0.59-0.478-1.067-1.066-1.068h-8.618c-0.589 0-1.066 0.478-1.066 1.066s0.478 1.066 1.066 1.066v0zM29.231 9.681c-0.196-0.214-0.476-0.346-0.787-0.347h-16.906c0 0 0 0-0.001 0-0.589 0-1.066 0.478-1.066 1.066 0 0.034 0.002 0.066 0.005 0.099v-0.004l1.539 17.274c0.041 0.447 0.353 0.812 0.769 0.93l0.007 0.002 6.904 1.926c0.086 0.025 0.185 0.039 0.286 0.039s0.201-0.014 0.294-0.042l-0.007 0.002 6.923-1.934c0.423-0.121 0.735-0.485 0.776-0.928v-0.004l1.539-17.266c0.002-0.028 0.004-0.061 0.004-0.094 0-0.278-0.106-0.531-0.28-0.721l0.001 0.001zM25.907 26.838l-5.926 1.655-5.907-1.648-1.371-15.378h14.575z"></path>
</svg>
