<!-- Generated by IcoMoon.io -->
<svg version="1.1" xmlns="http://www.w3.org/2000/svg" width="40" height="40" viewBox="0 0 40 40">
<title>ul-hard-hat</title>
<path fill="#fff" d="M28.534 21.248v-0.182c0-0.002 0-0.005 0-0.008 0-2.397-0.988-4.563-2.579-6.113l-0.002-0.002c-0.926-0.902-2.065-1.593-3.333-1.99l-0.059-0.016h-0.054c-0.79-0.258-1.698-0.406-2.641-0.406-0.042 0-0.086 0-0.128 0.001h0.006c-4.615 0.261-8.261 4.059-8.278 8.713v0.002c-1.256 0.451-2.138 1.632-2.138 3.018 0 1.767 1.433 3.2 3.2 3.2 0.002 0 0.003 0 0.005 0h14.933c0.002 0 0.003 0 0.005 0 1.767 0 3.2-1.433 3.2-3.2 0-1.386-0.882-2.567-2.116-3.012l-0.022-0.007zM27.466 25.334h-14.934c-0.589 0-1.066-0.478-1.066-1.066s0.478-1.066 1.066-1.066v0h2.134c0.589 0 1.066-0.478 1.066-1.066s-0.478-1.066-1.066-1.066v0h-1.066c0.105-2.314 1.345-4.317 3.172-5.477l0.028-0.017v3.36c0 0.589 0.478 1.066 1.066 1.066s1.066-0.478 1.066-1.066v0-4.17c0.249-0.044 0.55-0.078 0.854-0.095l0.020-0.001h0.192c0.379 0.003 0.748 0.042 1.104 0.113l-0.038-0.006v4.16c0 0.589 0.478 1.066 1.066 1.066s1.066-0.478 1.066-1.066v0-3.392c0.476 0.278 0.889 0.586 1.263 0.932l-0.005-0.004c1.198 1.164 1.942 2.791 1.942 4.591 0 0.002 0 0.004 0 0.006v0h-1.066c-0.589 0-1.066 0.478-1.066 1.066s0.478 1.066 1.066 1.066v0h2.134c0.589 0 1.066 0.478 1.066 1.066s-0.478 1.066-1.066 1.066v0z"></path>
</svg>
