<!-- Generated by IcoMoon.io -->
<svg version="1.1" xmlns="http://www.w3.org/2000/svg" width="40" height="40" viewBox="0 0 40 40">
<title>ul-history-alt</title>
<path fill="#fff" d="M19.402 9.334c-2.85 0.008-5.434 1.133-7.342 2.958l0.004-0.004v-1.888c0-0.589-0.478-1.066-1.066-1.066s-1.066 0.478-1.066 1.066v0 4.8c0 0.589 0.478 1.066 1.066 1.066v0h4.8c0.589 0 1.066-0.478 1.066-1.066s-0.478-1.066-1.066-1.066v0h-2.56c1.558-1.644 3.758-2.666 6.197-2.666 4.713 0 8.534 3.821 8.534 8.534s-3.821 8.534-8.534 8.534c-0.011 0-0.022 0-0.033 0h0.002c-0.589 0-1.066 0.478-1.066 1.066s0.478 1.066 1.066 1.066v0c5.891 0 10.666-4.776 10.666-10.666s-4.776-10.666-10.666-10.666v0zM19.402 15.734c-0.589 0-1.066 0.478-1.066 1.066v0 3.2c0 0.589 0.478 1.066 1.066 1.066v0h2.134c0.589 0 1.066-0.478 1.066-1.066s-0.478-1.066-1.066-1.066v0h-1.066v-2.134c0-0.589-0.478-1.066-1.066-1.066v0z"></path>
</svg>
