<!-- Generated by IcoMoon.io -->
<svg version="1.1" xmlns="http://www.w3.org/2000/svg" width="40" height="40" viewBox="0 0 40 40">
<title>ul-intercom-alt</title>
<path fill="#fff" d="M17.858 23.201c0 0 0.001 0 0.001 0 0.589 0 1.066-0.478 1.066-1.066 0 0 0-0.001 0-0.001v0-8.534c0-0.589-0.478-1.066-1.066-1.066s-1.066 0.478-1.066 1.066v0 8.534c0 0 0 0.001 0 0.001 0 0.589 0.478 1.066 1.066 1.066 0 0 0.001 0 0.001 0v0zM22.124 23.201c0 0 0.001 0 0.001 0 0.589 0 1.066-0.478 1.066-1.066 0 0 0-0.001 0-0.001v0-8.534c0-0.589-0.478-1.066-1.066-1.066s-1.066 0.478-1.066 1.066v0 8.534c0 0 0 0.001 0 0.001 0 0.589 0.478 1.066 1.066 1.066 0 0 0.001 0 0.001 0v0zM13.59 21.067c0 0 0.001 0 0.001 0 0.589 0 1.066-0.478 1.066-1.066 0 0 0-0.001 0-0.001v0-4.266c0-0.589-0.478-1.066-1.066-1.066s-1.066 0.478-1.066 1.066v0 4.266c0 0 0 0.001 0 0.001 0 0.589 0.478 1.066 1.066 1.066 0 0 0.001 0 0.001 0v0zM28.524 8.267h-17.066c-1.766 0.002-3.198 1.434-3.2 3.2v17.067c0.002 1.766 1.434 3.198 3.2 3.2h17.067c1.766-0.002 3.198-1.434 3.2-3.2v-17.067c-0.002-1.766-1.434-3.198-3.2-3.2v0zM29.59 28.534c-0.001 0.589-0.478 1.066-1.066 1.066h-17.066c-0.589-0.001-1.066-0.478-1.066-1.066v-17.066c0.001-0.589 0.478-1.066 1.066-1.066h17.066c0.589 0.001 1.066 0.478 1.066 1.066v0zM25.704 23.636c-1.504 1.066-3.378 1.703-5.399 1.703-0.11 0-0.221-0.002-0.33-0.006l0.016 0.001c-0.078 0.002-0.17 0.003-0.262 0.003-2.039 0-3.93-0.637-5.483-1.722l0.031 0.021c-0.184-0.155-0.424-0.25-0.686-0.25-0.589 0-1.067 0.478-1.067 1.067 0 0.327 0.147 0.62 0.379 0.815l0.002 0.002c1.874 1.376 4.228 2.202 6.774 2.202 0.11 0 0.219-0.002 0.329-0.005h-0.016c0.093 0.002 0.202 0.004 0.313 0.004 2.546 0 4.899-0.826 6.806-2.225l-0.032 0.022c0.234-0.197 0.381-0.49 0.381-0.817 0-0.589-0.478-1.067-1.067-1.067-0.262 0-0.502 0.094-0.688 0.251l0.002-0.002zM26.39 14.667c0 0-0.001 0-0.001 0-0.589 0-1.066 0.478-1.066 1.066 0 0 0 0.001 0 0.001v0 4.266c0 0.589 0.478 1.066 1.066 1.066s1.066-0.478 1.066-1.066v0-4.266c0 0 0-0.001 0-0.001 0-0.589-0.478-1.066-1.066-1.066 0 0-0.001 0-0.001 0v0z"></path>
</svg>
