<!-- Generated by IcoMoon.io -->
<svg version="1.1" xmlns="http://www.w3.org/2000/svg" width="40" height="40" viewBox="0 0 40 40">
<title>ul-image-times</title>
<path fill="#fff" d="M27.466 17.866c-0.589 0-1.066 0.478-1.066 1.066v0 3.616l-1.578-1.578c-0.535-0.538-1.277-0.872-2.096-0.872s-1.561 0.334-2.096 0.872l-0.747 0.747-2.646-2.656c-0.538-0.534-1.278-0.863-2.096-0.863s-1.558 0.33-2.096 0.863l-1.578 1.578v-5.974c0-0.589 0.478-1.066 1.066-1.066v0h8.534c0.589 0 1.066-0.478 1.066-1.066s-0.478-1.066-1.066-1.066v0h-8.534c-1.767 0-3.2 1.433-3.2 3.2v0 12.8c0 1.767 1.433 3.2 3.2 3.2v0h12.8c1.767 0 3.2-1.433 3.2-3.2v0-8.534c0-0.589-0.478-1.066-1.066-1.066v0zM12.534 28.534c-0.589 0-1.066-0.478-1.066-1.066v0-3.808l3.094-3.094c0.151-0.144 0.356-0.233 0.582-0.233s0.43 0.089 0.582 0.233l3.381 3.381 4.576 4.586zM26.4 27.466c-0.002 0.214-0.074 0.41-0.194 0.568l0.002-0.002-4.81-4.832 0.746-0.746c0.15-0.15 0.358-0.242 0.586-0.242s0.436 0.093 0.586 0.242v0l3.082 3.114zM28.97 12.534l1.386-1.376c0.192-0.193 0.31-0.458 0.31-0.752s-0.118-0.559-0.31-0.752v0c-0.194-0.195-0.462-0.315-0.758-0.315s-0.564 0.121-0.758 0.315l-1.376 1.376-1.376-1.376c-0.194-0.195-0.462-0.315-0.758-0.315s-0.564 0.121-0.758 0.315v0c-0.192 0.193-0.31 0.458-0.31 0.752s0.118 0.559 0.31 0.752v0l1.386 1.376-1.386 1.386c-0.192 0.193-0.31 0.458-0.31 0.752s0.118 0.559 0.31 0.752v0c0.194 0.195 0.462 0.315 0.758 0.315s0.564-0.121 0.758-0.315l1.376-1.376 1.376 1.376c0.194 0.195 0.462 0.315 0.758 0.315s0.564-0.121 0.758-0.315v0c0.192-0.193 0.31-0.458 0.31-0.752s-0.118-0.559-0.31-0.752v0z"></path>
</svg>
