<!-- Generated by IcoMoon.io -->
<svg version="1.1" xmlns="http://www.w3.org/2000/svg" width="40" height="40" viewBox="0 0 40 40">
<title>ul-intercom</title>
<path fill="#fff" d="M28 9.334h-16c-1.473 0-2.666 1.194-2.666 2.666v0 16c0 1.473 1.194 2.666 2.666 2.666v0h16c1.473 0 2.666-1.194 2.666-2.666v0-16c0-1.473-1.194-2.666-2.666-2.666v0zM22.848 13.248c0-0.003 0-0.007 0-0.010 0-0.389 0.315-0.704 0.704-0.704 0.004 0 0.007 0 0.011 0h-0.001c0.384 0.011 0.693 0.32 0.704 0.703v9.494c-0.045 0.355-0.346 0.627-0.71 0.627s-0.665-0.272-0.709-0.624v-0.003zM19.286 12.886c0-0.394 0.32-0.714 0.714-0.714v0 0c0.394 0 0.714 0.32 0.714 0.714v0 10.314c0 0.394-0.32 0.714-0.714 0.714s-0.714-0.32-0.714-0.714v0zM15.734 13.248c0.045-0.355 0.346-0.627 0.71-0.627s0.665 0.272 0.709 0.624v9.497c0 0 0 0 0 0 0 0.389-0.315 0.704-0.704 0.704-0.004 0-0.007 0-0.011 0h0.001c-0.384-0.011-0.693-0.32-0.704-0.703v-0.001zM12.182 14.666c0.045-0.355 0.346-0.627 0.71-0.627s0.665 0.272 0.709 0.624v6.403c-0.006 0.39-0.324 0.704-0.714 0.704 0 0 0 0 0 0v0c-0.386-0.006-0.698-0.318-0.704-0.703v-0.001zM27.574 25.514c-1.964 1.446-4.431 2.314-7.1 2.314-0.166 0-0.332-0.003-0.497-0.010l0.023 0.001c-0.141 0.006-0.306 0.010-0.473 0.010-2.67 0-5.136-0.868-7.134-2.337l0.034 0.023c-0.106-0.124-0.171-0.286-0.171-0.465 0-0.394 0.32-0.714 0.714-0.714 0.143 0 0.276 0.042 0.388 0.114l-0.003-0.002c1.737 1.226 3.898 1.96 6.23 1.96 0.146 0 0.292-0.003 0.437-0.009l-0.021 0.001c0.125 0.005 0.27 0.008 0.418 0.008 2.333 0 4.494-0.738 6.262-1.994l-0.034 0.022c0.109-0.070 0.242-0.113 0.385-0.113 0.394 0 0.714 0.32 0.714 0.714 0 0.178-0.065 0.34-0.172 0.466l0.001-0.001zM27.818 21.066c-0.045 0.355-0.346 0.627-0.71 0.627s-0.665-0.272-0.709-0.624v-6.403c0.006-0.39 0.324-0.704 0.714-0.704 0 0 0 0 0 0v0c0.389 0 0.704 0.315 0.704 0.704v0z"></path>
</svg>
