<!-- Generated by IcoMoon.io -->
<svg version="1.1" xmlns="http://www.w3.org/2000/svg" width="40" height="40" viewBox="0 0 40 40">
<title>ul-image-block</title>
<path fill="#fff" d="M29.11 9.824c-0.966-0.968-2.301-1.567-3.776-1.567-2.946 0-5.334 2.388-5.334 5.334s2.388 5.334 5.334 5.334c2.942 0 5.328-2.382 5.334-5.323v-0.001c0-0.003 0-0.006 0-0.010 0-1.47-0.595-2.802-1.558-3.766v0zM22.134 13.6c0-1.767 1.433-3.2 3.2-3.2v0c0.501 0.003 0.974 0.121 1.394 0.328l-0.018-0.008-4.266 4.266c-0.195-0.402-0.31-0.874-0.31-1.373 0-0.005 0-0.010 0-0.014v0.001zM27.594 15.862c-0.588 0.56-1.386 0.904-2.263 0.904-0.494 0-0.963-0.109-1.383-0.305l0.020 0.009 4.266-4.266c0.189 0.396 0.299 0.861 0.299 1.35 0 0.017 0 0.033 0 0.049v-0.002c-0.001 0.883-0.359 1.682-0.938 2.262v0zM27.466 21.066c-0.589 0-1.066 0.478-1.066 1.066v0 0.416l-1.578-1.59c-0.546-0.514-1.284-0.83-2.096-0.83s-1.55 0.316-2.098 0.831l0.002-0.002-0.746 0.758-2.646-2.656c-0.546-0.514-1.284-0.83-2.096-0.83s-1.55 0.316-2.098 0.831l0.002-0.002-1.578 1.59v-5.984c0-0.589 0.478-1.066 1.066-1.066v0h4.266c0.589 0 1.066-0.478 1.066-1.066s-0.478-1.066-1.066-1.066v0h-4.266c-1.767 0-3.2 1.433-3.2 3.2v0 12.8c0 1.767 1.433 3.2 3.2 3.2v0h12.8c0.365-0.006 0.712-0.072 1.036-0.188l-0.022 0.007h0.096c1.103-0.402 1.912-1.363 2.089-2.532l0.002-0.018c0.003-0.035 0.005-0.076 0.005-0.118s-0.002-0.082-0.005-0.122v0.006-5.568c0-0.589-0.478-1.066-1.066-1.066v0zM12.534 28.534c-0.589 0-1.066-0.478-1.066-1.066v0-3.808l3.094-3.082c0.151-0.144 0.356-0.233 0.582-0.233s0.43 0.089 0.582 0.233v0l3.402 3.392 4.566 4.566zM26.4 27.466c-0.007 0.217-0.078 0.415-0.194 0.579l0.002-0.003-4.822-4.842 0.758-0.746c0.151-0.144 0.356-0.233 0.582-0.233s0.43 0.089 0.582 0.233v0l3.094 3.104z"></path>
</svg>
