<!-- Generated by IcoMoon.io -->
<svg version="1.1" xmlns="http://www.w3.org/2000/svg" width="40" height="40" viewBox="0 0 40 40">
<title>ul-keyboard-hide</title>
<path fill="#fff" d="M14.358 18.176c-0.1-0.091-0.217-0.166-0.344-0.221l-0.008-0.003c-0.122-0.053-0.264-0.083-0.414-0.083-0.292 0-0.557 0.118-0.75 0.307v0c-0.094 0.098-0.17 0.215-0.222 0.345l-0.002 0.007c-0.053 0.122-0.083 0.264-0.083 0.414 0 0.292 0.118 0.557 0.307 0.75v0c0.1 0.091 0.217 0.166 0.344 0.221l0.008 0.003c0.118 0.048 0.254 0.076 0.396 0.076 0.589 0 1.066-0.478 1.066-1.066 0-0.143-0.028-0.279-0.079-0.403l0.002 0.007c-0.054-0.137-0.13-0.254-0.224-0.352v0zM17.11 15.424c0.193 0.191 0.458 0.31 0.751 0.31 0.002 0 0.004 0 0.006 0v0c0.007 0 0.015 0 0.023 0 0.139 0 0.27-0.031 0.388-0.088l-0.006 0.002c0.135-0.058 0.252-0.133 0.353-0.225l-0.001 0.001c0.091-0.1 0.166-0.217 0.221-0.344l0.003-0.008c0.054-0.119 0.086-0.258 0.086-0.406s-0.031-0.286-0.088-0.412l0.002 0.006c-0.058-0.135-0.133-0.252-0.225-0.353l0.001 0.001c-0.194-0.195-0.462-0.315-0.758-0.315s-0.564 0.121-0.758 0.315v0c-0.091 0.1-0.166 0.217-0.221 0.344l-0.003 0.008c-0.054 0.119-0.086 0.258-0.086 0.406s0.031 0.286 0.088 0.412l-0.002-0.006c0.058 0.135 0.133 0.252 0.225 0.353l-0.001-0.001zM14.358 13.91c-0.194-0.195-0.462-0.315-0.758-0.315-0.589 0-1.066 0.478-1.066 1.066 0 0.002 0 0.004 0 0.006v0c0.002 0.147 0.033 0.286 0.088 0.412l-0.002-0.007c0.058 0.135 0.133 0.252 0.225 0.353l-0.001-0.001c0.193 0.191 0.458 0.31 0.751 0.31 0.002 0 0.004 0 0.006 0v0c0.007 0 0.015 0 0.023 0 0.139 0 0.27-0.031 0.388-0.088l-0.006 0.002c0.135-0.058 0.252-0.133 0.353-0.225l-0.001 0.001c0.091-0.1 0.166-0.217 0.221-0.344l0.003-0.008c0.054-0.119 0.086-0.258 0.086-0.406s-0.031-0.286-0.088-0.412l0.002 0.006c-0.058-0.135-0.133-0.252-0.225-0.353l0.001 0.001zM21.376 26.71l-1.376 1.386-1.376-1.386c-0.194-0.194-0.462-0.314-0.758-0.314-0.591 0-1.071 0.479-1.071 1.071 0 0.296 0.12 0.563 0.314 0.758l2.134 2.134c0.194 0.195 0.462 0.315 0.758 0.315s0.564-0.121 0.758-0.315l2.134-2.134c0.194-0.194 0.314-0.462 0.314-0.758 0-0.591-0.479-1.071-1.071-1.071-0.296 0-0.563 0.12-0.758 0.314v0zM27.158 13.91c-0.194-0.195-0.462-0.315-0.758-0.315-0.589 0-1.066 0.478-1.066 1.066 0 0.002 0 0.004 0 0.006v0c0 0.007 0 0.015 0 0.023 0 0.139 0.031 0.27 0.088 0.388l-0.002-0.006c0.058 0.135 0.133 0.252 0.225 0.353l-0.001-0.001c0.194 0.195 0.462 0.315 0.758 0.315s0.564-0.121 0.758-0.315v0c0.091-0.1 0.166-0.217 0.221-0.344l0.003-0.008c0.054-0.112 0.086-0.243 0.086-0.382 0-0.008 0-0.016 0-0.024v0.001c-0.002-0.147-0.033-0.286-0.088-0.412l0.002 0.007c-0.058-0.135-0.133-0.252-0.225-0.353l0.001 0.001zM22.134 17.866h-4.266c-0.589 0-1.066 0.478-1.066 1.066s0.478 1.066 1.066 1.066v0h4.266c0.589 0 1.066-0.478 1.066-1.066s-0.478-1.066-1.066-1.066v0zM28.534 9.334h-17.066c-1.767 0-3.2 1.433-3.2 3.2v0 8.534c0 1.767 1.433 3.2 3.2 3.2v0h17.066c1.767 0 3.2-1.433 3.2-3.2v0-8.534c0-1.767-1.433-3.2-3.2-3.2v0zM29.6 21.066c0 0.589-0.478 1.066-1.066 1.066v0h-17.066c-0.589 0-1.066-0.478-1.066-1.066v0-8.534c0-0.589 0.478-1.066 1.066-1.066v0h17.066c0.589 0 1.066 0.478 1.066 1.066v0zM27.158 18.176c-0.098-0.094-0.215-0.17-0.345-0.222l-0.007-0.002c-0.119-0.055-0.258-0.088-0.406-0.088s-0.286 0.032-0.411 0.090l0.006-0.002c-0.135 0.058-0.252 0.133-0.353 0.225l0.001-0.001c-0.188 0.197-0.305 0.463-0.31 0.757v0.001c0 0.004 0 0.008 0 0.013 0 0.589 0.478 1.066 1.066 1.066s1.066-0.478 1.066-1.066c0-0.151-0.031-0.294-0.088-0.425l0.002 0.007c-0.054-0.137-0.13-0.254-0.224-0.352v0zM21.728 13.686c-0.135 0.058-0.252 0.133-0.353 0.225l0.001-0.001c-0.188 0.197-0.305 0.463-0.31 0.757v0.001c0.002 0.147 0.033 0.286 0.088 0.412l-0.002-0.007c0.058 0.135 0.133 0.252 0.225 0.353l-0.001-0.001c0.193 0.191 0.458 0.31 0.751 0.31 0.002 0 0.004 0 0.006 0v0c0.007 0 0.015 0 0.023 0 0.139 0 0.27-0.031 0.388-0.088l-0.006 0.002c0.135-0.058 0.252-0.133 0.353-0.225l-0.001 0.001c0.091-0.1 0.166-0.217 0.221-0.344l0.003-0.008c0.054-0.112 0.086-0.243 0.086-0.382 0-0.008 0-0.016 0-0.024v0.001c-0.004-0.294-0.122-0.561-0.31-0.758l0.001 0.001c-0.193-0.19-0.457-0.307-0.749-0.307-0.15 0-0.291 0.030-0.421 0.086l0.007-0.002z"></path>
</svg>
