<!-- Generated by IcoMoon.io -->
<svg version="1.1" xmlns="http://www.w3.org/2000/svg" width="40" height="40" viewBox="0 0 40 40">
<title>ul-keyboard-alt</title>
<path fill="#fff" d="M14.358 17.11c-0.194-0.195-0.462-0.315-0.758-0.315s-0.564 0.121-0.758 0.315v0c-0.094 0.098-0.17 0.215-0.222 0.345l-0.002 0.007c-0.053 0.122-0.083 0.264-0.083 0.414 0 0.292 0.118 0.557 0.307 0.75v0c0.1 0.091 0.217 0.166 0.344 0.221l0.008 0.003c0.112 0.054 0.243 0.086 0.382 0.086 0.008 0 0.016 0 0.024 0h-0.001c0.587-0.003 1.062-0.479 1.062-1.066 0-0.146-0.030-0.286-0.082-0.412l0.002 0.007c-0.054-0.137-0.13-0.254-0.224-0.352v0zM17.866 18.934c0.587-0.003 1.062-0.479 1.062-1.066 0-0.146-0.030-0.286-0.082-0.412l0.002 0.007c-0.054-0.137-0.13-0.254-0.224-0.352v0c-0.194-0.202-0.466-0.326-0.768-0.326-0.068 0-0.134 0.006-0.198 0.018l0.006-0.001c-0.076 0.011-0.144 0.034-0.206 0.066l-0.189 0.094-0.16 0.128c-0.191 0.201-0.31 0.473-0.31 0.773 0 0.002 0 0.004 0 0.006v0c0 0.589 0.478 1.066 1.066 1.066v0zM14.006 21.152c-0.12-0.050-0.259-0.080-0.406-0.080s-0.286 0.030-0.412 0.082l0.007-0.002c-0.39 0.163-0.659 0.541-0.662 0.981v0c0.003 0.587 0.479 1.062 1.066 1.062 0.146 0 0.286-0.030 0.412-0.082l-0.007 0.002c0.135-0.058 0.252-0.133 0.353-0.225l-0.001 0.001c0.191-0.193 0.31-0.458 0.31-0.751 0-0.002 0-0.004 0-0.006v0c0-0.002 0-0.004 0-0.006 0-0.293-0.118-0.558-0.31-0.751v0c-0.098-0.096-0.214-0.172-0.345-0.222l-0.007-0.002zM22.134 21.066h-4.266c-0.589 0-1.066 0.478-1.066 1.066s0.478 1.066 1.066 1.066v0h4.266c0.589 0 1.066-0.478 1.066-1.066s-0.478-1.066-1.066-1.066v0zM22.89 17.11c-0.194-0.195-0.462-0.315-0.758-0.315s-0.564 0.121-0.758 0.315v0c-0.094 0.098-0.17 0.215-0.222 0.345l-0.002 0.007c-0.054 0.123-0.086 0.267-0.086 0.418 0 0.589 0.478 1.066 1.066 1.066s1.066-0.478 1.066-1.066c0-0.005 0-0.009 0-0.013v0.001c0-0.007 0-0.015 0-0.023 0-0.139-0.031-0.27-0.088-0.388l0.002 0.006c-0.054-0.137-0.13-0.254-0.224-0.352v0zM26.998 21.248c-0.055-0.038-0.118-0.070-0.186-0.094l-0.006-0.002c-0.12-0.050-0.259-0.080-0.406-0.080s-0.286 0.030-0.412 0.082l0.007-0.002c-0.135 0.058-0.252 0.133-0.353 0.225l0.001-0.001c-0.188 0.197-0.305 0.463-0.31 0.757v0.001c0 0.589 0.478 1.066 1.066 1.066s1.066-0.478 1.066-1.066v0c-0.004-0.294-0.122-0.561-0.31-0.758l0.001 0.001zM28.534 12.534h-17.066c-1.767 0-3.2 1.433-3.2 3.2v0 8.534c0 1.767 1.433 3.2 3.2 3.2v0h17.066c1.767 0 3.2-1.433 3.2-3.2v0-8.534c0-1.767-1.433-3.2-3.2-3.2v0zM29.6 24.266c0 0.589-0.478 1.066-1.066 1.066v0h-17.066c-0.589 0-1.066-0.478-1.066-1.066v0-8.534c0-0.589 0.478-1.066 1.066-1.066v0h17.066c0.589 0 1.066 0.478 1.066 1.066v0zM27.158 17.11c-0.194-0.195-0.462-0.315-0.758-0.315-0.589 0-1.066 0.478-1.066 1.066 0 0.002 0 0.004 0 0.006v0c0 0.004 0 0.008 0 0.013 0 0.589 0.478 1.066 1.066 1.066s1.066-0.478 1.066-1.066c0-0.151-0.031-0.294-0.088-0.425l0.002 0.007c-0.054-0.137-0.13-0.254-0.224-0.352v0z"></path>
</svg>
