<!-- Generated by IcoMoon.io -->
<svg version="1.1" xmlns="http://www.w3.org/2000/svg" width="40" height="40" viewBox="0 0 40 40">
<title>ul-location-arrow-alt</title>
<path fill="#fff" d="M30.326 26.026l-7.466-14.934c-0.538-1.054-1.616-1.762-2.858-1.762s-2.32 0.709-2.85 1.744l-0.009 0.018-7.466 14.934c-0.211 0.415-0.335 0.906-0.335 1.426 0 1.767 1.433 3.2 3.2 3.2 0.469 0 0.914-0.101 1.315-0.282l-0.020 0.008 5.728-2.56c0.129-0.056 0.279-0.088 0.438-0.088s0.308 0.032 0.445 0.091l-0.007-0.003 5.728 2.56c0.381 0.173 0.826 0.274 1.295 0.274 1.767 0 3.2-1.433 3.2-3.2 0-0.519-0.124-1.010-0.343-1.444l0.009 0.018zM28.192 28.16c-0.194 0.202-0.467 0.328-0.77 0.328-0.158 0-0.308-0.034-0.442-0.096l0.006 0.002-5.728-2.55c-0.382-0.174-0.83-0.277-1.302-0.277s-0.918 0.102-1.322 0.285l0.020-0.008-5.686 2.582c-0.126 0.056-0.271 0.088-0.425 0.088-0.589 0-1.066-0.478-1.066-1.066 0-0.168 0.038-0.326 0.108-0.468l-0.002 0.006 7.466-14.934c0.181-0.347 0.538-0.58 0.95-0.58s0.769 0.233 0.946 0.574l0.003 0.006 7.466 14.934c0.070 0.138 0.11 0.3 0.11 0.473 0 0.284-0.111 0.542-0.292 0.734l0.001-0.001z"></path>
</svg>
