<!-- Generated by IcoMoon.io -->
<svg version="1.1" xmlns="http://www.w3.org/2000/svg" width="40" height="40" viewBox="0 0 40 40">
<title>ul-lock-slash</title>
<path fill="#fff" d="M18.762 12.938c0.344-0.247 0.774-0.396 1.238-0.396 0.586 0 1.118 0.237 1.503 0.62v0c0.386 0.385 0.626 0.916 0.63 1.503v3.201c0 0.589 0.478 1.066 1.066 1.066v0h1.066c0.589 0 1.066 0.478 1.066 1.066v0 0.362c0 0.589 0.478 1.066 1.066 1.066s1.066-0.478 1.066-1.066v0-0.362c0-1.767-1.433-3.2-3.2-3.2v0-2.134c0-0.001 0-0.002 0-0.003 0-1.178-0.477-2.243-1.248-3.015v0c-0.779-0.757-1.843-1.224-3.017-1.224-0.945 0-1.82 0.303-2.532 0.817l0.013-0.009c-0.26 0.197-0.426 0.506-0.426 0.854 0 0.589 0.478 1.066 1.066 1.066 0.242 0 0.464-0.080 0.642-0.215l-0.002 0.002zM30.358 28.842l-19.2-19.2c-0.194-0.194-0.462-0.314-0.758-0.314-0.591 0-1.071 0.479-1.071 1.071 0 0.296 0.12 0.563 0.314 0.758v0l5.686 5.642c-1.584 0.208-2.794 1.55-2.794 3.174 0 0.009 0 0.018 0 0.027v-0.002 6.4c0 1.767 1.433 3.2 3.2 3.2v0h8.534c1.039-0.003 1.962-0.502 2.543-1.272l0.006-0.008 2.026 2.038c0.194 0.195 0.462 0.315 0.758 0.315s0.564-0.121 0.758-0.315v0c0.195-0.194 0.315-0.462 0.315-0.758s-0.121-0.564-0.315-0.758v0zM24.266 27.466h-8.534c-0.589 0-1.066-0.478-1.066-1.066v0-6.4c0-0.589 0.478-1.066 1.066-1.066v0h1.696l2.208 2.208c-0.41 0.151-0.699 0.538-0.704 0.991v2.134c0 0.589 0.478 1.066 1.066 1.066s1.066-0.478 1.066-1.066v0-1.696l4.192 4.192c-0.151 0.41-0.538 0.699-0.991 0.704h-0.001z"></path>
</svg>
