<!-- Generated by IcoMoon.io -->
<svg version="1.1" xmlns="http://www.w3.org/2000/svg" width="40" height="40" viewBox="0 0 40 40">
<title>ul-letter-japanese-a</title>
<path fill="#fff" d="M29.037 19.997c-0.926-1.403-2.486-2.323-4.263-2.35h-0.004c-0.014-0.394-0.064-0.77-0.146-1.133l0.008 0.040c-0.115-0.474-0.536-0.82-1.038-0.82-0.589 0-1.066 0.478-1.066 1.066 0 0.087 0.010 0.172 0.030 0.254l-0.002-0.007c0.045 0.187 0.076 0.407 0.088 0.632l0.001 0.010c-1.293 0.163-2.466 0.471-3.572 0.911l0.098-0.034c0.024-1.284 0.082-2.568 0.21-3.848l0.041-0.408c1.469-0.202 2.728-0.45 3.961-0.762l-0.246 0.053 0.128-0.032c0.472-0.117 0.816-0.537 0.816-1.037 0-0.589-0.478-1.066-1.066-1.066-0.093 0-0.183 0.012-0.269 0.034l0.007-0.002-0.13 0.032c-0.983 0.246-1.979 0.431-2.98 0.587l0.162-1.611c0.003-0.032 0.006-0.069 0.006-0.106 0-0.589-0.478-1.066-1.066-1.066-0.552 0-1.006 0.419-1.061 0.956v0.005l-0.21 2.090c-0.996 0.090-1.995 0.15-2.996 0.15-0.589 0-1.066 0.478-1.066 1.066s0.478 1.066 1.066 1.066v0c0.929 0 1.855-0.050 2.781-0.122-0.139 1.395-0.218 3.015-0.218 4.654 0 0.126 0.001 0.252 0.002 0.378v-0.019c-0.143 0.078-0.288 0.151-0.43 0.234-0.794 0.458-1.474 0.92-2.117 1.426l0.038-0.029-0.024 0.019c-1.076 0.835-2.006 1.783-2.798 2.842l-0.027 0.038c-0.379 0.52-0.606 1.171-0.606 1.875 0 1.77 1.434 3.205 3.205 3.205 0.192 0 0.381-0.017 0.564-0.050l-0.019 0.003c1.139-0.221 2.153-0.595 3.080-1.108l-0.054 0.027c0.191 0.298 0.521 0.492 0.896 0.492 0.586 0 1.062-0.475 1.062-1.062 0-0.063-0.006-0.126-0.016-0.186l0.001 0.006c-0.026-0.155-0.038-0.311-0.062-0.466 0.514-0.399 0.971-0.802 1.402-1.233v0c0.851-0.848 1.594-1.803 2.206-2.845l0.036-0.066c0.025-0.042 0.045-0.084 0.069-0.126 0.126-0.225 0.245-0.45 0.354-0.678 0.058-0.118 0.109-0.237 0.162-0.355 0.064-0.146 0.125-0.29 0.182-0.436 0.060-0.153 0.117-0.306 0.169-0.458 0.034-0.102 0.065-0.204 0.095-0.306 0.054-0.18 0.109-0.359 0.151-0.538l0.006-0.019c0.014 0 0.030 0 0.046 0 1.055 0 1.991 0.508 2.578 1.293l0.006 0.009c1.086 1.885-1.027 5.309-4.711 7.632-0.302 0.192-0.501 0.525-0.501 0.904 0 0.589 0.478 1.066 1.066 1.066 0.212 0 0.41-0.062 0.576-0.169l-0.004 0.002c4.799-3.025 7.129-7.539 5.42-10.506zM14.449 27.022c-0.051 0.009-0.11 0.014-0.171 0.014-0.592 0-1.072-0.48-1.072-1.072 0-0.233 0.074-0.448 0.2-0.624l-0.002 0.003c0.709-0.943 1.514-1.759 2.414-2.456l0.030-0.022 0.028-0.023c0.378-0.295 0.791-0.575 1.22-0.846 0.065 1.275 0.184 2.546 0.348 3.814-0.858 0.558-1.862 0.979-2.938 1.202l-0.057 0.010zM22.267 19.999c-0.118 0.343-0.233 0.618-0.36 0.886l0.022-0.053c-0.059 0.127-0.126 0.254-0.192 0.381q-0.154 0.297-0.331 0.591c-0.090 0.149-0.183 0.298-0.283 0.446-0.462 0.686-0.956 1.286-1.502 1.834l0.001-0.001c-0.074 0.074-0.153 0.142-0.229 0.214q-0.174-1.704-0.226-3.416c0.903-0.427 1.954-0.771 3.053-0.982l0.083-0.014c-0.013 0.038-0.024 0.074-0.038 0.112z"></path>
</svg>
