<!-- Generated by IcoMoon.io -->
<svg version="1.1" xmlns="http://www.w3.org/2000/svg" width="40" height="40" viewBox="0 0 40 40">
<title>ul-lira-sign</title>
<path fill="#fff" d="M26.4 20c-0.589 0-1.066 0.478-1.066 1.066v0c-0.005 4.122-3.345 7.462-7.466 7.466h-0.001v-9.455l5.565-1.237c0.48-0.11 0.833-0.534 0.833-1.041 0-0.589-0.478-1.066-1.066-1.066-0.081 0-0.16 0.009-0.236 0.026l-5.095 1.132v-2.082l5.565-1.237c0.482-0.109 0.838-0.534 0.838-1.042 0-0.589-0.478-1.066-1.066-1.066-0.083 0-0.163 0.010-0.241 0.027l-5.095 1.132v-2.226c0-0.589-0.478-1.066-1.066-1.066s-1.066 0.478-1.066 1.066v0 2.7l-2.365 0.526c-0.482 0.109-0.838 0.534-0.838 1.042 0 0.589 0.478 1.066 1.066 1.066 0.083 0 0.163-0.010 0.241-0.027l1.895-0.421v2.082l-2.365 0.526c-0.482 0.109-0.838 0.534-0.838 1.042 0 0.589 0.478 1.066 1.066 1.066 0.083 0 0.163-0.010 0.241-0.027l1.895-0.421v10.048c0 0.589 0.478 1.066 1.066 1.066v0h1.066c5.299-0.006 9.594-4.301 9.6-9.599v-0.001c0-0.589-0.478-1.066-1.066-1.066v0z"></path>
</svg>
