<!-- Generated by IcoMoon.io -->
<svg version="1.1" xmlns="http://www.w3.org/2000/svg" width="40" height="40" viewBox="0 0 40 40">
<title>ul-letter-english-a</title>
<path fill="#fff" d="M27.435 28.274l-3.862-15.45c-0.358-1.403-1.61-2.424-3.101-2.424-0.002 0-0.002 0-0.004 0h-0.935c-0.001 0-0.002 0-0.004 0-1.491 0-2.743 1.021-3.096 2.402l-0.005 0.022-3.862 15.45c-0.020 0.078-0.032 0.167-0.032 0.259 0 0.589 0.478 1.066 1.066 1.066 0.498 0 0.915-0.34 1.034-0.801l0.002-0.007 1.398-5.592h7.934l1.398 5.592c0.12 0.468 0.538 0.808 1.035 0.808 0.589 0 1.066-0.478 1.066-1.066 0-0.092-0.012-0.181-0.034-0.266l0.002 0.007zM16.566 21.066l1.931-7.725c0.119-0.468 0.537-0.808 1.034-0.808 0.001 0 0.001 0 0.002 0h0.935c0.001 0 0.001 0 0.002 0 0.497 0 0.914 0.341 1.032 0.801l0.002 0.007 1.931 7.725z"></path>
</svg>
