<!-- Generated by IcoMoon.io -->
<svg version="1.1" xmlns="http://www.w3.org/2000/svg" width="40" height="40" viewBox="0 0 40 40">
<title>ul-map-pin-alt</title>
<path fill="#fff" d="M18.934 19.894v5.44c0 0.589 0.478 1.066 1.066 1.066s1.066-0.478 1.066-1.066v0-5.44c2.452-0.514 4.266-2.658 4.266-5.226 0-2.946-2.388-5.334-5.334-5.334s-5.334 2.388-5.334 5.334c0 2.568 1.815 4.712 4.232 5.219l0.034 0.006zM20 11.466c1.767 0 3.2 1.433 3.2 3.2s-1.433 3.2-3.2 3.2c-1.767 0-3.2-1.433-3.2-3.2v0c0-1.767 1.433-3.2 3.2-3.2v0zM24.49 22.582c-0.067-0.015-0.145-0.023-0.224-0.023-0.602 0-1.090 0.488-1.090 1.090 0 0.522 0.368 0.959 0.858 1.066l0.007 0.002c2.422 0.48 3.424 1.344 3.424 1.686 0 0.618-2.614 2.134-7.466 2.134s-7.466-1.514-7.466-2.134c0-0.342 1.002-1.206 3.424-1.728 0.498-0.107 0.866-0.544 0.866-1.066 0-0.602-0.488-1.090-1.090-1.090-0.079 0-0.157 0.009-0.231 0.025l0.007-0.002c-3.242 0.746-5.11 2.144-5.11 3.862 0 2.806 4.832 4.266 9.6 4.266s9.6-1.462 9.6-4.266c0-1.718-1.866-3.114-5.11-3.818z"></path>
</svg>
