<!-- Generated by IcoMoon.io -->
<svg version="1.1" xmlns="http://www.w3.org/2000/svg" width="40" height="40" viewBox="0 0 40 40">
<title>ul-map-marker-question</title>
<path fill="#fff" d="M20.47 21.184l-0.182-0.118c-0.12-0.050-0.259-0.080-0.406-0.080-0.296 0-0.563 0.121-0.757 0.315v0c-0.101 0.093-0.181 0.207-0.233 0.335l-0.002 0.006c-0.054 0.122-0.085 0.266-0.086 0.416v0c0.002 0.147 0.033 0.286 0.088 0.412l-0.002-0.007c0.117 0.258 0.318 0.459 0.569 0.573l0.007 0.003c0.119 0.052 0.258 0.083 0.405 0.086h0.001c0.15-0.003 0.293-0.034 0.424-0.088l-0.008 0.003c0.133-0.058 0.246-0.138 0.341-0.234v0c0.192-0.193 0.31-0.458 0.31-0.752s-0.118-0.559-0.31-0.752v0zM19.872 13.6c-0.010 0-0.022 0-0.033 0-1.056 0-1.982 0.558-2.498 1.395l-0.007 0.013c-0.105 0.162-0.166 0.36-0.166 0.572 0 0.589 0.478 1.066 1.066 1.066 0.408 0 0.763-0.23 0.942-0.566l0.003-0.006c0.151-0.208 0.394-0.342 0.666-0.342 0.010 0 0.018 0 0.028 0.001h-0.002c0.442 0 0.8 0.358 0.8 0.8s-0.358 0.8-0.8 0.8v0c-0.589 0-1.066 0.478-1.066 1.066s0.478 1.066 1.066 1.066v0c1.62 0 2.934-1.314 2.934-2.934s-1.314-2.934-2.934-2.934v0zM29.024 17.526c-0.433-4.643-4.31-8.25-9.030-8.25-1.866 0-3.599 0.563-5.040 1.529l0.033-0.021c-2.215 1.496-3.725 3.891-4.007 6.649l-0.003 0.039c-0.027 0.264-0.043 0.57-0.043 0.881 0 2.504 1.020 4.77 2.666 6.404l0.001 0.001 5.654 5.664c0.194 0.195 0.462 0.315 0.758 0.315s0.564-0.121 0.758-0.315v0l5.632-5.664c1.647-1.635 2.667-3.901 2.667-6.405 0-0.31-0.016-0.617-0.046-0.918l0.003 0.038zM24.906 23.254l-4.906 4.906-4.906-4.906c-1.253-1.253-2.027-2.983-2.027-4.895 0-0.237 0.012-0.471 0.035-0.702l-0.002 0.029c0.214-2.155 1.377-4.001 3.058-5.136l0.025-0.016c1.074-0.722 2.396-1.153 3.818-1.153s2.745 0.43 3.843 1.169l-0.025-0.016c1.701 1.147 2.862 2.984 3.080 5.101l0.002 0.030c0.022 0.208 0.034 0.449 0.034 0.693 0 1.913-0.775 3.644-2.030 4.897v0z"></path>
</svg>
