<!-- Generated by IcoMoon.io -->
<svg version="1.1" xmlns="http://www.w3.org/2000/svg" width="40" height="40" viewBox="0 0 40 40">
<title>ul-map-marker-shield</title>
<path fill="#fff" d="M22.57 14.166c-0.155 0.036-0.333 0.056-0.515 0.056-0.538 0-1.033-0.178-1.432-0.477l0.006 0.005c-0.174-0.128-0.393-0.206-0.63-0.206s-0.455 0.077-0.632 0.207l0.003-0.002c-0.393 0.295-0.889 0.472-1.426 0.472-0.182 0-0.361-0.021-0.531-0.059l0.016 0.003c-0.068-0.015-0.146-0.024-0.225-0.024-0.255 0-0.49 0.090-0.673 0.239l0.002-0.002c-0.242 0.197-0.394 0.495-0.394 0.828 0 0.002 0 0.002 0 0.004v0 3.094c0 0.014 0 0.031 0 0.048 0 1.423 0.673 2.689 1.718 3.496l0.010 0.007 1.462 1.066c0.174 0.128 0.393 0.206 0.63 0.206s0.455-0.077 0.632-0.207l-0.003 0.002 1.462-1.066c1.080-0.814 1.77-2.094 1.77-3.536 0-0.006 0-0.011 0-0.017v0.001-3.094c0-0.001 0-0.002 0-0.004 0-0.334-0.153-0.631-0.393-0.827l-0.002-0.002c-0.18-0.144-0.411-0.23-0.662-0.23-0.067 0-0.134 0.006-0.198 0.018l0.006-0.001zM21.728 18.304c0 0.006 0 0.012 0 0.018 0 0.743-0.354 1.403-0.902 1.822l-0.006 0.004-0.822 0.608-0.822-0.608c-0.554-0.423-0.906-1.084-0.906-1.826 0-0.006 0-0.013 0-0.020v0.001-1.962c0.638-0.046 1.226-0.218 1.753-0.492l-0.025 0.012c0.502 0.262 1.090 0.434 1.714 0.479l0.014 0.001zM29.024 17.472c-0.457-4.62-4.323-8.199-9.025-8.199-1.867 0-3.602 0.565-5.045 1.532l0.033-0.021c-2.215 1.496-3.725 3.891-4.007 6.649l-0.003 0.039c-0.027 0.264-0.043 0.57-0.043 0.881 0 2.504 1.020 4.77 2.666 6.404l0.001 0.001 5.654 5.664c0.194 0.195 0.462 0.315 0.758 0.315s0.564-0.121 0.758-0.315v0l5.632-5.664c1.647-1.635 2.667-3.901 2.667-6.405 0-0.31-0.016-0.617-0.046-0.918l0.003 0.038zM24.906 23.254l-4.906 4.906-4.906-4.906c-1.253-1.253-2.027-2.983-2.027-4.895 0-0.237 0.012-0.471 0.035-0.702l-0.002 0.029c0.214-2.155 1.377-4.001 3.058-5.136l0.025-0.016c1.074-0.722 2.396-1.153 3.818-1.153s2.745 0.43 3.843 1.169l-0.025-0.016c1.701 1.147 2.862 2.984 3.080 5.101l0.002 0.030c0.022 0.208 0.034 0.449 0.034 0.693 0 1.913-0.775 3.644-2.030 4.897v0z"></path>
</svg>
