<!-- Generated by IcoMoon.io -->
<svg version="1.1" xmlns="http://www.w3.org/2000/svg" width="40" height="40" viewBox="0 0 40 40">
<title>ul-moonset</title>
<path fill="#fff" d="M18.934 27.466h-3.2c-0.589 0-1.066 0.478-1.066 1.066s0.478 1.066 1.066 1.066v0h3.2c0.589 0 1.066-0.478 1.066-1.066s-0.478-1.066-1.066-1.066v0zM28.534 23.2h-1.238c0.585-0.9 1.017-1.958 1.229-3.093l0.009-0.054c0.010-0.054 0.015-0.115 0.015-0.178 0-0.326-0.146-0.618-0.376-0.813l-0.002-0.002c-0.187-0.165-0.434-0.266-0.705-0.266-0.13 0-0.254 0.023-0.37 0.066l0.007-0.002c-0.61 0.215-1.314 0.34-2.047 0.342h-0.001c0 0 0 0 0 0-3.547 0-6.427-2.858-6.464-6.397v-0.003c0.010-0.385 0.049-0.753 0.114-1.111l-0.006 0.045c0.008-0.048 0.012-0.104 0.012-0.161 0-0.33-0.15-0.624-0.384-0.819l-0.002-0.002c-0.186-0.161-0.43-0.258-0.696-0.258-0.133 0-0.261 0.024-0.378 0.069l0.007-0.002c-3.37 1.188-5.75 4.326-5.792 8.027v0.005c0.001 1.712 0.506 3.306 1.375 4.641l-0.020-0.033h-1.354c-0.589 0-1.066 0.478-1.066 1.066s0.478 1.066 1.066 1.066v0h17.066c0.589 0 1.066-0.478 1.066-1.066s-0.478-1.066-1.066-1.066v0zM24.566 23.2h-9.014c-1.215-1.166-1.97-2.805-1.97-4.62 0-2.237 1.147-4.205 2.886-5.35l0.024-0.015c0.262 4.537 4.005 8.118 8.584 8.118 0.001 0 0.002 0 0.003 0v0c0.126 0.007 0.273 0.012 0.422 0.012s0.295-0.004 0.442-0.013l-0.020 0.001c-0.354 0.724-0.807 1.342-1.353 1.865l-0.002 0.002zM24.266 27.466h-1.066c-0.589 0-1.066 0.478-1.066 1.066s0.478 1.066 1.066 1.066v0h1.066c0.589 0 1.066-0.478 1.066-1.066s-0.478-1.066-1.066-1.066v0z"></path>
</svg>
