<!-- Generated by IcoMoon.io -->
<svg version="1.1" xmlns="http://www.w3.org/2000/svg" width="40" height="40" viewBox="0 0 40 40">
<title>ul-medical-drip</title>
<path fill="#fff" d="M25.334 13.6h-2.134v-2.134h2.134c0.589 0 1.066-0.478 1.066-1.066s-0.478-1.066-1.066-1.066v0h-8.534c-2.946 0-5.334 2.388-5.334 5.334v0 14.934c0 0.589 0.478 1.066 1.066 1.066s1.066-0.478 1.066-1.066v0-14.934c0-1.767 1.433-3.2 3.2-3.2v0h4.266v2.134h-2.134c-1.767 0-3.2 1.433-3.2 3.2v0 5.258c0 0 0 0.001 0 0.001 0 1.107 0.562 2.084 1.418 2.658l0.011 0.007 1.77 1.184v0.49c0 1.178 0.955 2.134 2.134 2.134v0 1.066c0 0.589 0.478 1.066 1.066 1.066s1.066-0.478 1.066-1.066v0-1.066c1.178 0 2.134-0.955 2.134-2.134v0-0.49l1.77-1.184c0.866-0.582 1.43-1.558 1.43-2.666 0-0.001 0-0.001 0-0.002v0-5.258c0-1.767-1.433-3.2-3.2-3.2v0zM24.266 18.934h2.134v1.066h-1.066c-0.589 0-1.066 0.478-1.066 1.066s0.478 1.066 1.066 1.066v0h1.066c-0.025 0.338-0.203 0.63-0.466 0.808l-0.004 0.002-2.24 1.504c-0.294 0.19-0.486 0.515-0.49 0.885v1.067h-2.134v-1.066c-0.002-0.369-0.19-0.693-0.476-0.883l-0.004-0.002-2.24-1.504c-0.29-0.193-0.478-0.517-0.48-0.885v-5.259c0-0.589 0.478-1.066 1.066-1.066v0h6.4c0.589 0 1.066 0.478 1.066 1.066v0h-2.134c-0.589 0-1.066 0.478-1.066 1.066s0.478 1.066 1.066 1.066v0z"></path>
</svg>
