<!-- Generated by IcoMoon.io -->
<svg version="1.1" xmlns="http://www.w3.org/2000/svg" width="40" height="40" viewBox="0 0 40 40">
<title>ul-modem</title>
<path fill="#fff" d="M30.112 21.206c-0.007-0.078-0.026-0.151-0.055-0.218l0.002 0.005c-0.025-0.070-0.054-0.13-0.088-0.186l0.002 0.004c-0.032-0.065-0.067-0.121-0.108-0.173l0.002 0.002-0.17-0.138-0.096-0.096-15.702-9.066c-0.153-0.090-0.337-0.142-0.534-0.142-0.591 0-1.070 0.479-1.070 1.070 0 0.395 0.214 0.74 0.532 0.926l0.005 0.002 12.256 7.072h-14.154c-0.589 0-1.066 0.478-1.066 1.066v0 4.266c0 1.767 1.433 3.2 3.2 3.2v0h13.866c1.767 0 3.2-1.433 3.2-3.2v0-4.266s-0.022-0.086-0.022-0.128zM27.978 25.6c0 0.589-0.478 1.066-1.066 1.066v0h-13.846c-0.589 0-1.066-0.478-1.066-1.066v0-3.2h16zM24.778 25.6c0.589 0 1.066-0.478 1.066-1.066s-0.478-1.066-1.066-1.066c-0.589 0-1.066 0.478-1.066 1.066v0c0 0 0 0 0 0 0 0.589 0.478 1.066 1.066 1.066 0.007 0 0.015 0 0.022 0h-0.001z"></path>
</svg>
