<!-- Generated by IcoMoon.io -->
<svg version="1.1" xmlns="http://www.w3.org/2000/svg" width="40" height="40" viewBox="0 0 40 40">
<title>ul-money-bill-slash</title>
<path fill="#fff" d="M13.6 18.934c-0.589 0-1.066 0.478-1.066 1.066s0.478 1.066 1.066 1.066c0.589 0 1.066-0.478 1.066-1.066v0c0-0.589-0.478-1.066-1.066-1.066v0zM19.85 17.28v0l-7.626-7.638c-0.194-0.194-0.462-0.314-0.758-0.314-0.591 0-1.071 0.479-1.071 1.071 0 0.296 0.12 0.563 0.314 0.758v0l1.386 1.376h-0.63c-1.767 0-3.2 1.433-3.2 3.2v0 8.534c0 1.767 1.433 3.2 3.2 3.2v0h15.562l2.88 2.89c0.194 0.195 0.462 0.315 0.758 0.315s0.564-0.121 0.758-0.315v0c0.195-0.194 0.315-0.462 0.315-0.758s-0.121-0.564-0.315-0.758v0zM19.062 19.51l1.43 1.43c-0.142 0.078-0.31 0.125-0.49 0.128h-0.001c-0.589 0-1.066-0.478-1.066-1.066v0c0.003-0.18 0.050-0.349 0.13-0.496l-0.002 0.006zM11.466 25.334c-0.589 0-1.066-0.478-1.066-1.066v0-8.534c0-0.589 0.478-1.066 1.066-1.066v0h2.762l3.306 3.306c-0.455 0.546-0.732 1.254-0.736 2.026v0.001c0 1.767 1.433 3.2 3.2 3.2v0c0.773-0.004 1.481-0.281 2.032-0.74l-0.005 0.004 2.87 2.87zM28.534 12.534h-7.83c-0.589 0-1.066 0.478-1.066 1.066s0.478 1.066 1.066 1.066v0h7.83c0.589 0 1.066 0.478 1.066 1.066v0 7.83c0 0.589 0.478 1.066 1.066 1.066s1.066-0.478 1.066-1.066v0-7.83c0-1.767-1.433-3.2-3.2-3.2v0zM27.466 20c0-0.589-0.478-1.066-1.066-1.066s-1.066 0.478-1.066 1.066c0 0.589 0.478 1.066 1.066 1.066v0c0.589 0 1.066-0.478 1.066-1.066v0z"></path>
</svg>
