<!-- Generated by IcoMoon.io -->
<svg version="1.1" xmlns="http://www.w3.org/2000/svg" width="40" height="40" viewBox="0 0 40 40">
<title>ul-map-marker-alt</title>
<path fill="#fff" d="M29.024 17.472c-0.457-4.62-4.323-8.199-9.025-8.199-1.867 0-3.602 0.565-5.045 1.532l0.033-0.021c-2.215 1.496-3.725 3.891-4.007 6.649l-0.003 0.039c-0.027 0.264-0.043 0.57-0.043 0.881 0 2.504 1.020 4.77 2.666 6.404l0.001 0.001 5.654 5.664c0.194 0.195 0.462 0.315 0.758 0.315s0.564-0.121 0.758-0.315v0l5.632-5.664c1.647-1.635 2.667-3.901 2.667-6.405 0-0.31-0.016-0.617-0.046-0.918l0.003 0.038zM24.906 23.254l-4.906 4.906-4.906-4.906c-1.253-1.253-2.027-2.983-2.027-4.895 0-0.237 0.012-0.471 0.035-0.702l-0.002 0.029c0.214-2.155 1.377-4.001 3.058-5.136l0.025-0.016c1.074-0.722 2.396-1.153 3.818-1.153s2.745 0.43 3.843 1.169l-0.025-0.016c1.701 1.147 2.862 2.984 3.080 5.101l0.002 0.030c0.022 0.208 0.034 0.449 0.034 0.693 0 1.913-0.775 3.644-2.030 4.897v0zM20 13.6c-2.651 0-4.8 2.149-4.8 4.8s2.149 4.8 4.8 4.8c2.651 0 4.8-2.149 4.8-4.8v0c-0.006-2.649-2.151-4.794-4.799-4.8h-0.001zM20 21.066c-1.473 0-2.666-1.194-2.666-2.666s1.194-2.666 2.666-2.666c1.473 0 2.666 1.194 2.666 2.666v0c0 1.473-1.194 2.666-2.666 2.666v0z"></path>
</svg>
