<!-- Generated by IcoMoon.io -->
<svg version="1.1" xmlns="http://www.w3.org/2000/svg" width="40" height="40" viewBox="0 0 40 40">
<title>ul-n-a</title>
<path fill="#fff" d="M27.466 13.6h-1.066c-1.767 0-3.2 1.433-3.2 3.2v0 8.534c0 0.589 0.478 1.066 1.066 1.066s1.066-0.478 1.066-1.066v0-4.266h3.2v4.266c0 0.589 0.478 1.066 1.066 1.066s1.066-0.478 1.066-1.066v0-8.534c0-1.767-1.433-3.2-3.2-3.2v0zM28.534 18.934h-3.2v-2.134c0-0.589 0.478-1.066 1.066-1.066v0h1.066c0.589 0 1.066 0.478 1.066 1.066v0zM15.734 13.6c-0.589 0-1.066 0.478-1.066 1.066v0 6.144l-3.318-6.624c-0.181-0.347-0.538-0.58-0.95-0.58-0.587 0-1.063 0.474-1.066 1.060v10.667c0 0.589 0.478 1.066 1.066 1.066s1.066-0.478 1.066-1.066v0-6.144l3.318 6.624c0.179 0.35 0.537 0.586 0.949 0.586v0c0.037 0.005 0.079 0.008 0.122 0.008s0.086-0.003 0.127-0.008l-0.005 0.001c0.474-0.115 0.822-0.536 0.822-1.038 0-0.010 0-0.020-0.001-0.030v0.002-10.666c0-0.589-0.478-1.066-1.066-1.066v0zM20 11.466c-0.589 0-1.066 0.478-1.066 1.066v0 14.934c0 0.589 0.478 1.066 1.066 1.066s1.066-0.478 1.066-1.066v0-14.934c0-0.589-0.478-1.066-1.066-1.066v0z"></path>
</svg>
