<!-- Generated by IcoMoon.io -->
<svg version="1.1" xmlns="http://www.w3.org/2000/svg" width="40" height="40" viewBox="0 0 40 40">
<title>ul-play-circle</title>
<path fill="#fff" d="M24.266 18.154l-5.334-3.082c-0.306-0.18-0.674-0.286-1.066-0.286-1.178 0-2.132 0.954-2.134 2.131v6.166c0.001 0.785 0.425 1.47 1.057 1.84l0.010 0.006c0.306 0.18 0.674 0.286 1.066 0.286s0.761-0.106 1.077-0.291l-0.010 0.006 5.334-3.082c0.64-0.376 1.063-1.062 1.063-1.846s-0.423-1.469-1.053-1.84l-0.010-0.006zM23.2 20l-5.334 3.082v-6.166l5.334 3.082zM20 9.334c-5.891 0-10.666 4.776-10.666 10.666s4.776 10.666 10.666 10.666c5.891 0 10.666-4.776 10.666-10.666v0c0-5.891-4.776-10.666-10.666-10.666v0zM20 28.534c-4.713 0-8.534-3.821-8.534-8.534s3.821-8.534 8.534-8.534c4.713 0 8.534 3.821 8.534 8.534v0c0 4.713-3.821 8.534-8.534 8.534v0z"></path>
</svg>
