<!-- Generated by IcoMoon.io -->
<svg version="1.1" xmlns="http://www.w3.org/2000/svg" width="40" height="40" viewBox="0 0 40 40">
<title>ul-padlock</title>
<path fill="#fff" d="M20 21.066c-0.006 0-0.012 0-0.018 0-0.878 0-1.59 0.711-1.59 1.59 0 0.475 0.209 0.902 0.539 1.194l0.002 0.002v1.482c0 0.589 0.478 1.066 1.066 1.066s1.066-0.478 1.066-1.066v0-1.482c0.333-0.293 0.542-0.719 0.542-1.194 0-0.878-0.711-1.59-1.59-1.59-0.006 0-0.013 0-0.019 0h0.001zM25.334 16.8v-2.134c0-2.946-2.388-5.334-5.334-5.334s-5.334 2.388-5.334 5.334v0 2.134c-1.767 0-3.2 1.433-3.2 3.2v0 7.466c0 1.767 1.433 3.2 3.2 3.2v0h10.666c1.767 0 3.2-1.433 3.2-3.2v0-7.466c0-1.767-1.433-3.2-3.2-3.2v0zM16.8 14.666c0-1.767 1.433-3.2 3.2-3.2s3.2 1.433 3.2 3.2v0 2.134h-6.4zM26.4 27.466c0 0.589-0.478 1.066-1.066 1.066v0h-10.666c-0.589 0-1.066-0.478-1.066-1.066v0-7.466c0-0.589 0.478-1.066 1.066-1.066v0h10.666c0.589 0 1.066 0.478 1.066 1.066v0z"></path>
</svg>
