<!-- Generated by IcoMoon.io -->
<svg version="1.1" xmlns="http://www.w3.org/2000/svg" width="40" height="40" viewBox="0 0 40 40">
<title>ul-package</title>
<path fill="#fff" d="M27.466 9.334h-14.934c-1.767 0-3.2 1.433-3.2 3.2v0 14.934c0 1.767 1.433 3.2 3.2 3.2v0h14.934c1.767 0 3.2-1.433 3.2-3.2v0-14.934c0-1.767-1.433-3.2-3.2-3.2v0zM17.866 11.466h4.266v3.338l-1.546-1.066c-0.165-0.11-0.368-0.176-0.586-0.176s-0.422 0.066-0.59 0.178l0.004-0.002-1.546 1.066zM28.534 27.466c0 0.589-0.478 1.066-1.066 1.066v0h-14.934c-0.589 0-1.066-0.478-1.066-1.066v0-14.934c0-0.589 0.478-1.066 1.066-1.066v0h3.2v5.334c0.001 0.405 0.227 0.756 0.56 0.936l0.006 0.003c0.142 0.074 0.31 0.118 0.487 0.118 0.215 0 0.416-0.064 0.583-0.174l-0.004 0.002 2.634-1.738 2.614 1.738c0.165 0.11 0.368 0.176 0.586 0.176 0.587 0 1.063-0.474 1.066-1.061v-5.334h3.2c0.589 0 1.066 0.478 1.066 1.066v0z"></path>
</svg>
