<!-- Generated by IcoMoon.io -->
<svg version="1.1" xmlns="http://www.w3.org/2000/svg" width="40" height="40" viewBox="0 0 40 40">
<title>ul-plane-departure</title>
<path fill="#fff" d="M30.666 12.618c0-0.002 0-0.003 0-0.005 0-1.814-1.471-3.286-3.286-3.286-0.908 0-1.73 0.369-2.326 0.965l-2.998 2.998-6.922-2.304c-0.095-0.031-0.206-0.049-0.32-0.049-0.291 0-0.554 0.117-0.747 0.306v0l-2.538 2.518c-0.19 0.193-0.308 0.458-0.308 0.75 0 0.426 0.25 0.794 0.611 0.965l0.006 0.002 5.526 2.506-2.774 2.774-1.824-0.918c-0.146-0.081-0.322-0.129-0.508-0.129-0.282 0-0.539 0.11-0.73 0.289l0.001-0.001-1.888 1.93c-0.192 0.193-0.31 0.458-0.31 0.752s0.118 0.559 0.31 0.752l6.922 6.922c0.193 0.192 0.458 0.31 0.752 0.31s0.559-0.118 0.752-0.31v0l1.93-1.888c0.195-0.194 0.316-0.462 0.316-0.758 0-0.174-0.042-0.34-0.117-0.485l0.003 0.006-0.918-1.824 2.774-2.774 2.506 5.526c0.174 0.368 0.542 0.618 0.967 0.618 0.293 0 0.558-0.118 0.75-0.308l2.518-2.518c0.189-0.192 0.305-0.456 0.305-0.747 0-0.114-0.018-0.224-0.051-0.327l0.002 0.007-2.304-6.922 2.954-3.018c0.593-0.59 0.96-1.406 0.96-2.307 0-0.006 0-0.013 0-0.018v0.001zM28.192 13.44l-3.456 3.456c-0.189 0.192-0.305 0.456-0.305 0.747 0 0.114 0.018 0.224 0.051 0.327l2.302 6.905-0.96 0.96-2.506-5.514c-0.145-0.314-0.43-0.542-0.772-0.607l-0.006-0.001c-0.058-0.011-0.124-0.018-0.191-0.018-0.296 0-0.565 0.121-0.758 0.316l-4.394 4.438c-0.194 0.193-0.313 0.46-0.313 0.754 0 0.172 0.041 0.334 0.113 0.478l-0.003-0.006 0.874 1.792-0.598 0.598-5.366-5.376 0.63-0.554 1.824 0.918c0.138 0.070 0.3 0.11 0.472 0.11 0.294 0 0.562-0.119 0.754-0.313v0l4.416-4.438c0.195-0.194 0.315-0.461 0.315-0.757 0-0.429-0.253-0.798-0.618-0.968l-0.006-0.002-5.558-2.506 0.96-0.96 6.912 2.304c0.095 0.031 0.206 0.049 0.32 0.049 0.291 0 0.554-0.117 0.747-0.306l3.456-3.456c0.207-0.212 0.496-0.343 0.816-0.343s0.609 0.131 0.816 0.343v0c0.21 0.195 0.342 0.474 0.342 0.782 0 0.010 0 0.020-0.001 0.030v-0.002c0.001 0.013 0.001 0.028 0.001 0.043 0 0.302-0.118 0.576-0.31 0.778l0.001-0.001z"></path>
</svg>
