<!-- Generated by IcoMoon.io -->
<svg version="1.1" xmlns="http://www.w3.org/2000/svg" width="40" height="40" viewBox="0 0 40 40">
<title>ul-presentation-lines-alt</title>
<path fill="#fff" d="M18.048 18.454c0.172 0.262 0.451 0.443 0.774 0.479l0.005 0.001c0.032 0.003 0.070 0.006 0.107 0.006 0.296 0 0.563-0.12 0.757-0.314v0l1.206-1.216 1.418 2.134c0.195 0.278 0.515 0.458 0.877 0.458 0.003 0 0.006 0 0.010 0h-0.001c0.003 0 0.007 0 0.011 0 0.215 0 0.415-0.068 0.578-0.183l-0.003 0.002c0.287-0.194 0.474-0.518 0.474-0.886 0-0.218-0.066-0.421-0.178-0.59l0.002 0.004-2.134-3.2c-0.172-0.262-0.451-0.443-0.774-0.479l-0.005-0.001c-0.032-0.003-0.070-0.006-0.107-0.006-0.296 0-0.563 0.12-0.757 0.314v0l-1.206 1.216-1.418-2.134c-0.184-0.338-0.535-0.562-0.94-0.562-0.589 0-1.066 0.478-1.066 1.066 0 0.254 0.089 0.488 0.238 0.671l-0.002-0.002zM29.6 22.134h-1.066v-10.666h1.066c0.589 0 1.066-0.478 1.066-1.066s-0.478-1.066-1.066-1.066v0h-19.2c-0.589 0-1.066 0.478-1.066 1.066s0.478 1.066 1.066 1.066v0h1.066v10.666h-1.066c-0.589 0-1.066 0.478-1.066 1.066s0.478 1.066 1.066 1.066v0h8.534v1.226l-4.854 3.2c-0.306 0.191-0.506 0.526-0.506 0.907 0 0.589 0.478 1.066 1.066 1.066 0.009 0 0.018 0 0.026 0h-0.002c0.003 0 0.007 0 0.011 0 0.215 0 0.415-0.068 0.578-0.183l-0.003 0.002 3.68-2.432v1.546c0 0.589 0.478 1.066 1.066 1.066s1.066-0.478 1.066-1.066v0-1.546l3.68 2.432c0.16 0.114 0.36 0.182 0.575 0.182 0.004 0 0.008 0 0.012 0h-0.001c0.586-0.005 1.058-0.481 1.058-1.066 0-0.367-0.186-0.691-0.468-0.883l-0.004-0.002-4.854-3.2v-1.248h8.534c0.589 0 1.066-0.478 1.066-1.066s-0.478-1.066-1.066-1.066v0zM26.4 22.134h-12.8v-10.666h12.8z"></path>
</svg>
