<!-- Generated by IcoMoon.io -->
<svg version="1.1" xmlns="http://www.w3.org/2000/svg" width="40" height="40" viewBox="0 0 40 40">
<title>ul-pump</title>
<path fill="#fff" d="M29.11 13.91l-3.146-3.146c-0.194-0.194-0.462-0.314-0.758-0.314-0.591 0-1.071 0.479-1.071 1.071 0 0.296 0.12 0.563 0.314 0.758l1.066 1.066-0.886 2.656c-0.103 0.301-0.163 0.647-0.163 1.008 0 0.886 0.36 1.687 0.942 2.267v0l3.146 3.2v4.992c0 0.589-0.478 1.066-1.066 1.066s-1.066-0.478-1.066-1.066v0-2.134c0-1.767-1.433-3.2-3.2-3.2v0h-1.088v-9.6c0-1.767-1.433-3.2-3.2-3.2v0h-6.4c-1.767 0-3.2 1.433-3.2 3.2v0 14.934c0 1.767 1.433 3.2 3.2 3.2v0h6.4c1.767 0 3.2-1.433 3.2-3.2v0-3.2h1.066c0.589 0 1.066 0.478 1.066 1.066v0 2.134c0 1.767 1.433 3.2 3.2 3.2s3.2-1.433 3.2-3.2v0-9.782c0-0.003 0-0.006 0-0.010 0-1.47-0.595-2.802-1.558-3.766v0zM20 27.466c0 0.589-0.478 1.066-1.066 1.066v0h-6.4c-0.589 0-1.066-0.478-1.066-1.066v0-7.466h8.534zM20 17.866h-8.534v-5.334c0-0.589 0.478-1.066 1.066-1.066v0h6.4c0.589 0 1.066 0.478 1.066 1.066v0zM28.534 19.382l-1.642-1.642c-0.189-0.192-0.305-0.456-0.305-0.747 0-0.114 0.018-0.224 0.051-0.327l-0.002 0.007 0.544-1.642 0.416 0.426c0.572 0.571 0.929 1.358 0.938 2.227v0.002z"></path>
</svg>
