<!-- Generated by IcoMoon.io -->
<svg version="1.1" xmlns="http://www.w3.org/2000/svg" width="40" height="40" viewBox="0 0 40 40">
<title>ul-percentage</title>
<path fill="#fff" d="M15.475 18.675c1.767 0 3.2-1.433 3.2-3.2s-1.433-3.2-3.2-3.2c-1.767 0-3.2 1.433-3.2 3.2v0c0.002 1.766 1.434 3.198 3.2 3.2v0zM15.475 14.408c0.589 0 1.066 0.478 1.066 1.066s-0.478 1.066-1.066 1.066c-0.589 0-1.066-0.478-1.066-1.066v0c0.001-0.589 0.478-1.066 1.066-1.066v0zM24.525 21.325c-1.767 0-3.2 1.433-3.2 3.2s1.433 3.2 3.2 3.2c1.767 0 3.2-1.433 3.2-3.2v0c-0.002-1.766-1.434-3.198-3.2-3.2v0zM24.525 25.592c-0.589 0-1.066-0.478-1.066-1.066s0.478-1.066 1.066-1.066c0.589 0 1.066 0.478 1.066 1.066v0c-0.001 0.589-0.478 1.066-1.066 1.066v0zM28.221 11.779c-0.193-0.193-0.46-0.313-0.754-0.313s-0.561 0.119-0.754 0.313l-14.934 14.934c-0.196 0.194-0.317 0.462-0.317 0.759 0 0.589 0.478 1.066 1.066 1.066 0.297 0 0.566-0.122 0.759-0.317l14.934-14.934c0.193-0.193 0.313-0.459 0.313-0.754s-0.119-0.561-0.313-0.754v0z"></path>
</svg>
