<!-- Generated by IcoMoon.io -->
<svg version="1.1" xmlns="http://www.w3.org/2000/svg" width="40" height="40" viewBox="0 0 40 40">
<title>ul-question-circle</title>
<path fill="#fff" d="M19.242 23.51c-0.044 0.048-0.086 0.1-0.125 0.155l-0.003 0.005c-0.038 0.055-0.070 0.118-0.094 0.186l-0.002 0.006c-0.029 0.055-0.051 0.12-0.063 0.188l-0.001 0.004c-0.002 0.032-0.004 0.069-0.004 0.106s0.002 0.074 0.004 0.111v-0.005c0 0.007 0 0.015 0 0.023 0 0.139 0.031 0.27 0.088 0.388l-0.002-0.006c0.099 0.269 0.307 0.477 0.57 0.574l0.006 0.002c0.119 0.054 0.258 0.086 0.406 0.086s0.286-0.031 0.412-0.088l-0.006 0.002c0.269-0.099 0.477-0.307 0.574-0.57l0.002-0.006c0.041-0.109 0.065-0.234 0.065-0.366 0-0.014 0-0.028-0.001-0.042v0.002c0-0.002 0-0.004 0-0.006 0-0.293-0.118-0.558-0.31-0.751v0c-0.194-0.195-0.462-0.315-0.758-0.315s-0.564 0.121-0.758 0.315v0zM20 9.334c-5.891 0-10.666 4.776-10.666 10.666s4.776 10.666 10.666 10.666c5.891 0 10.666-4.776 10.666-10.666v0c0-5.891-4.776-10.666-10.666-10.666v0zM20 28.534c-4.713 0-8.534-3.821-8.534-8.534s3.821-8.534 8.534-8.534c4.713 0 8.534 3.821 8.534 8.534v0c0 4.713-3.821 8.534-8.534 8.534v0zM20 14.666c-0.001 0-0.002 0-0.002 0-1.178 0-2.208 0.637-2.763 1.585l-0.008 0.015c-0.105 0.162-0.166 0.36-0.166 0.572 0 0.589 0.478 1.066 1.066 1.066 0.408 0 0.763-0.23 0.942-0.566l0.003-0.006c0.188-0.321 0.531-0.534 0.924-0.534 0.002 0 0.003 0 0.005 0v0c0.589 0 1.066 0.478 1.066 1.066s-0.478 1.066-1.066 1.066v0c-0.589 0-1.066 0.478-1.066 1.066v0 1.066c0 0.589 0.478 1.066 1.066 1.066s1.066-0.478 1.066-1.066v0-0.192c1.241-0.459 2.109-1.633 2.109-3.008 0-1.758-1.418-3.186-3.174-3.2h-0.002z"></path>
</svg>
