<!-- Generated by IcoMoon.io -->
<svg version="1.1" xmlns="http://www.w3.org/2000/svg" width="40" height="40" viewBox="0 0 40 40">
<title>ul-react</title>
<path fill="#fff" d="M19.043 18.334c-0.574 0.335-0.953 0.948-0.953 1.65 0 1.052 0.853 1.905 1.905 1.905s1.905-0.853 1.905-1.905c0-0.35-0.094-0.679-0.26-0.962l0.005 0.009c-0.335-0.574-0.948-0.952-1.65-0.952-0.35 0-0.679 0.094-0.962 0.26l0.009-0.005zM27.582 20.401q-0.187-0.214-0.396-0.43 0.146-0.153 0.282-0.306c1.713-1.925 2.436-3.854 1.766-5.015-0.642-1.113-2.553-1.444-4.945-0.979q-0.354 0.069-0.703 0.156-0.067-0.23-0.142-0.458c-0.811-2.446-2.122-4.036-3.462-4.035-1.285 0.001-2.526 1.49-3.318 3.794q-0.117 0.341-0.216 0.688-0.234-0.058-0.47-0.106c-2.524-0.518-4.557-0.177-5.225 0.984-0.641 1.114 0.030 2.933 1.63 4.77q0.238 0.273 0.49 0.533c-0.198 0.204-0.385 0.407-0.56 0.61-1.562 1.811-2.194 3.602-1.554 4.71 0.661 1.145 2.665 1.519 5.105 1.039q0.297-0.058 0.59-0.132 0.107 0.375 0.236 0.743c0.789 2.258 2.023 3.7 3.303 3.699 1.322-0.001 2.647-1.55 3.45-3.902 0.063-0.186 0.123-0.379 0.18-0.578q0.379 0.094 0.762 0.167c2.35 0.445 4.216 0.095 4.855-1.014 0.66-1.146-0.021-3.068-1.658-4.938zM11.542 15.149c0.411-0.714 2.073-0.994 4.252-0.546q0.209 0.043 0.425 0.096c-0.192 0.802-0.35 1.777-0.443 2.77l-0.006 0.086c-0.837 0.592-1.569 1.185-2.26 1.821l0.016-0.014q-0.234-0.242-0.456-0.496v0c-1.372-1.574-1.914-3.046-1.528-3.717zM15.687 21.258c-0.545-0.412-1.050-0.835-1.51-1.26 0.459-0.422 0.966-0.843 1.509-1.254q-0.030 0.629-0.029 1.258t0.030 1.257zM15.686 25.462c-0.503 0.117-1.082 0.184-1.675 0.184-0.402 0-0.798-0.030-1.183-0.090l0.043 0.006c-0.537-0.043-1.006-0.306-1.321-0.697l-0.003-0.003c-0.388-0.673 0.119-2.11 1.455-3.659q0.252-0.291 0.521-0.567c0.677 0.626 1.41 1.222 2.18 1.768l0.068 0.046c0.1 1.094 0.261 2.080 0.484 3.042l-0.030-0.15q-0.268 0.067-0.538 0.121zM23.261 16.886q-0.537-0.338-1.086-0.654-0.541-0.311-1.095-0.599c0.633-0.266 1.254-0.493 1.854-0.678 0.122 0.514 0.237 1.171 0.318 1.839l0.010 0.094zM17.524 13.424c0.678-1.974 1.683-3.179 2.457-3.179 0.825-0.001 1.896 1.299 2.597 3.411q0.068 0.206 0.129 0.415c-1.074 0.334-1.967 0.686-2.829 1.093l0.134-0.057c-0.729-0.355-1.619-0.71-2.535-1.006l-0.151-0.042q0.092-0.32 0.2-0.635zM17.097 14.943c0.763 0.24 1.374 0.473 1.97 0.734l-0.126-0.049q-1.121 0.578-2.184 1.26c0.086-0.681 0.199-1.333 0.339-1.945zM16.76 23.114q0.53 0.339 1.076 0.654 0.557 0.321 1.128 0.614c-0.478 0.221-1.094 0.461-1.724 0.67l-0.137 0.039c-0.141-0.621-0.256-1.284-0.342-1.977zM22.579 26.47c-0.305 0.954-0.755 1.782-1.333 2.504l0.012-0.015c-0.29 0.42-0.738 0.714-1.257 0.795l-0.010 0.002c-0.777 0.001-1.768-1.158-2.442-3.089q-0.119-0.342-0.219-0.691c1.072-0.347 1.964-0.712 2.825-1.133l-0.126 0.056c0.734 0.351 1.634 0.706 2.56 1.001l0.157 0.043q-0.076 0.266-0.165 0.527zM22.966 25.057c-0.607-0.188-1.238-0.418-1.88-0.689q0.542-0.286 1.093-0.603 0.565-0.326 1.101-0.669c-0.083 0.766-0.194 1.434-0.338 2.089l0.023-0.128zM23.442 19.998q0.001 0.972-0.061 1.942c-0.526 0.356-1.080 0.703-1.658 1.036-0.575 0.332-1.145 0.637-1.703 0.913q-0.882-0.422-1.73-0.911-0.843-0.486-1.648-1.034-0.074-0.97-0.074-1.943v0q-0.001-0.973 0.073-1.943c0.526-0.359 1.076-0.706 1.646-1.034 0.572-0.33 1.149-0.634 1.722-0.91q0.871 0.423 1.71 0.907 0.842 0.484 1.652 1.022 0.070 0.975 0.070 1.954zM24.462 14.566c2.050-0.398 3.594-0.13 3.982 0.54 0.412 0.714-0.178 2.292-1.658 3.954v0q-0.122 0.138-0.254 0.276c-0.686-0.622-1.431-1.213-2.215-1.754l-0.072-0.047c-0.092-1.064-0.245-2.029-0.46-2.969l0.027 0.143q0.331-0.082 0.65-0.144zM24.324 18.71c0.582 0.426 1.090 0.842 1.575 1.282l-0.017-0.014c-0.47 0.434-0.977 0.857-1.504 1.253l-0.050 0.036q0.025-0.634 0.025-1.268 0-0.644-0.030-1.288zM28.45 24.884c-0.388 0.674-1.886 0.954-3.896 0.574q-0.346-0.066-0.709-0.155c0.184-0.812 0.33-1.79 0.409-2.786l0.005-0.074c0.85-0.594 1.594-1.196 2.294-1.843l-0.014 0.013q0.188 0.195 0.358 0.389v0c0.621 0.674 1.126 1.465 1.478 2.335l0.018 0.052c0.117 0.238 0.185 0.518 0.185 0.814 0 0.246-0.047 0.48-0.132 0.694l0.005-0.013z"></path>
</svg>
