<!-- Generated by IcoMoon.io -->
<svg version="1.1" xmlns="http://www.w3.org/2000/svg" width="40" height="40" viewBox="0 0 40 40">
<title>ul-setting</title>
<path fill="#fff" d="M28.426 20.704c-0.165-0.187-0.266-0.434-0.266-0.704s0.101-0.517 0.266-0.705l-0.001 0.001 1.366-1.536c0.169-0.188 0.273-0.438 0.273-0.712 0-0.198-0.054-0.382-0.147-0.541l0.002 0.005-2.134-3.69c-0.188-0.322-0.531-0.534-0.924-0.534-0.077 0-0.152 0.008-0.224 0.023l0.007-0.002-2.006 0.406c-0.065 0.014-0.139 0.022-0.216 0.022-0.467 0-0.864-0.3-1.009-0.718l-0.002-0.007-0.65-1.952c-0.146-0.426-0.544-0.726-1.010-0.726-0.001 0-0.002 0-0.003 0h-4.266c-0.017-0.001-0.036-0.002-0.055-0.002-0.467 0-0.865 0.301-1.009 0.719l-0.002 0.007-0.598 1.952c-0.146 0.426-0.543 0.726-1.011 0.726-0.077 0-0.151-0.008-0.223-0.023l0.007 0.002-2.058-0.406c-0.045-0.006-0.097-0.010-0.15-0.010-0.388 0-0.728 0.207-0.914 0.518l-0.002 0.005-2.134 3.69c-0.096 0.157-0.153 0.347-0.153 0.55 0 0.267 0.098 0.512 0.261 0.699l-0.001-0.002 1.354 1.536c0.165 0.187 0.266 0.434 0.266 0.704s-0.101 0.517-0.266 0.705l0.001-0.001-1.354 1.536c-0.162 0.186-0.26 0.43-0.26 0.698 0 0.203 0.057 0.394 0.156 0.555l-0.002-0.005 2.134 3.69c0.188 0.322 0.531 0.534 0.924 0.534 0.077 0 0.152-0.008 0.224-0.023l-0.007 0.002 2.006-0.406c0.065-0.014 0.139-0.022 0.216-0.022 0.467 0 0.864 0.3 1.009 0.718l0.002 0.007 0.65 1.952c0.146 0.426 0.543 0.726 1.011 0.726 0.019 0 0.039-0.001 0.058-0.002h4.264c0.001 0 0.002 0 0.002 0 0.467 0 0.864-0.3 1.008-0.718l0.002-0.007 0.65-1.952c0.146-0.426 0.543-0.726 1.011-0.726 0.077 0 0.151 0.008 0.223 0.023l-0.007-0.002 2.006 0.406c0.066 0.014 0.14 0.022 0.217 0.022 0.393 0 0.737-0.213 0.922-0.53l0.002-0.005 2.134-3.69c0.091-0.154 0.145-0.338 0.145-0.536 0-0.274-0.103-0.524-0.274-0.713l0.001 0.001zM26.838 22.134l0.854 0.96-1.366 2.368-1.258-0.256c-0.193-0.042-0.414-0.065-0.641-0.065-1.409 0-2.606 0.91-3.033 2.175l-0.006 0.022-0.406 1.194h-2.73l-0.384-1.216c-0.434-1.287-1.63-2.198-3.039-2.198-0.227 0-0.448 0.023-0.662 0.069l0.021-0.004-1.258 0.256-1.386-2.358 0.854-0.96c0.506-0.563 0.815-1.312 0.815-2.134s-0.309-1.57-0.818-2.136l0.002 0.003-0.854-0.96 1.366-2.346 1.258 0.256c0.193 0.042 0.414 0.065 0.641 0.065 1.409 0 2.606-0.91 3.033-2.175l0.006-0.022 0.406-1.206h2.73l0.406 1.216c0.434 1.287 1.63 2.198 3.039 2.198 0.227 0 0.448-0.023 0.662-0.069l-0.021 0.004 1.258-0.256 1.366 2.368-0.854 0.96c-0.5 0.562-0.806 1.306-0.806 2.122s0.306 1.561 0.808 2.126l-0.003-0.003zM19.616 15.734c-2.357 0-4.266 1.91-4.266 4.266s1.91 4.266 4.266 4.266c2.357 0 4.266-1.91 4.266-4.266v0c0-2.357-1.91-4.266-4.266-4.266v0zM19.616 22.134c-1.178 0-2.134-0.955-2.134-2.134s0.955-2.134 2.134-2.134c1.178 0 2.134 0.955 2.134 2.134v0c0 1.178-0.955 2.134-2.134 2.134v0z"></path>
</svg>
