<!-- Generated by IcoMoon.io -->
<svg version="1.1" xmlns="http://www.w3.org/2000/svg" width="40" height="40" viewBox="0 0 40 40">
<title>ul-signal</title>
<path fill="#fff" d="M13.6 23.2c-0.589 0-1.066 0.478-1.066 1.066v0 3.2c0 0.589 0.478 1.066 1.066 1.066s1.066-0.478 1.066-1.066v0-3.2c0-0.589-0.478-1.066-1.066-1.066v0zM17.866 20c-0.589 0-1.066 0.478-1.066 1.066v0 6.4c0 0.589 0.478 1.066 1.066 1.066s1.066-0.478 1.066-1.066v0-6.4c0-0.589-0.478-1.066-1.066-1.066v0zM26.4 11.466c-0.589 0-1.066 0.478-1.066 1.066v0 14.934c0 0.589 0.478 1.066 1.066 1.066s1.066-0.478 1.066-1.066v0-14.934c0-0.589-0.478-1.066-1.066-1.066v0zM22.134 15.734c-0.589 0-1.066 0.478-1.066 1.066v0 10.666c0 0.589 0.478 1.066 1.066 1.066s1.066-0.478 1.066-1.066v0-10.666c0-0.589-0.478-1.066-1.066-1.066v0z"></path>
</svg>
