<!-- Generated by IcoMoon.io -->
<svg version="1.1" xmlns="http://www.w3.org/2000/svg" width="40" height="40" viewBox="0 0 40 40">
<title>ul-stethoscope-alt</title>
<path fill="#fff" d="M27.466 15.734c-0.002 0-0.005 0-0.008 0-1.763 0-3.192 1.429-3.192 3.192 0 1.383 0.88 2.562 2.111 3.004l0.022 0.007v1.797c0 2.651-2.149 4.8-4.8 4.8s-4.8-2.149-4.8-4.8v0-1.087l3.332-2.665c1.224-0.981 2.001-2.475 2.001-4.152 0-0.005 0-0.009 0-0.014v0.001-5.416c0-0.589-0.478-1.066-1.066-1.066v0h-2.134c-0.589 0-1.066 0.478-1.066 1.066s0.478 1.066 1.066 1.066v0h1.066v4.35c0 0.002 0 0.005 0 0.008 0 1.006-0.466 1.902-1.194 2.486l-0.006 0.005-3.066 2.452-3.066-2.452c-0.734-0.588-1.201-1.486-1.201-2.491 0-0.002 0-0.006 0-0.008v0.001-4.35h1.066c0.589 0 1.066-0.478 1.066-1.066s-0.478-1.066-1.066-1.066v0h-2.134c-0.589 0-1.066 0.478-1.066 1.066v0 5.416c0 0.004 0 0.008 0 0.013 0 1.676 0.778 3.171 1.991 4.144l0.010 0.008 3.332 2.665v1.087c0 3.829 3.104 6.934 6.934 6.934s6.934-3.104 6.934-6.934v0-1.797c1.253-0.45 2.134-1.628 2.134-3.011 0-1.763-1.429-3.192-3.192-3.192-0.002 0-0.006 0-0.008 0h0.001zM27.466 20c-0.589 0-1.066-0.478-1.066-1.066s0.478-1.066 1.066-1.066c0.589 0 1.066 0.478 1.066 1.066v0c-0.001 0.589-0.478 1.066-1.066 1.066v0z"></path>
</svg>
