<!-- Generated by IcoMoon.io -->
<svg version="1.1" xmlns="http://www.w3.org/2000/svg" width="40" height="40" viewBox="0 0 40 40">
<title>ul-servers</title>
<path fill="#fff" d="M23.2 25.334c-0.589 0-1.066 0.478-1.066 1.066s0.478 1.066 1.066 1.066c0.589 0 1.066-0.478 1.066-1.066v0c0-0.589-0.478-1.066-1.066-1.066v0zM18.934 25.334h-2.134c-0.589 0-1.066 0.478-1.066 1.066s0.478 1.066 1.066 1.066v0h2.134c0.589 0 1.066-0.478 1.066-1.066s-0.478-1.066-1.066-1.066v0zM18.934 18.934h-2.134c-0.589 0-1.066 0.478-1.066 1.066s0.478 1.066 1.066 1.066v0h2.134c0.589 0 1.066-0.478 1.066-1.066s-0.478-1.066-1.066-1.066v0zM23.2 18.934c-0.589 0-1.066 0.478-1.066 1.066s0.478 1.066 1.066 1.066c0.589 0 1.066-0.478 1.066-1.066v0c0-0.589-0.478-1.066-1.066-1.066v0zM31.734 15.734c0-1.767-1.433-3.2-3.2-3.2v0h-1.066c0-1.767-1.433-3.2-3.2-3.2v0h-8.534c-1.767 0-3.2 1.433-3.2 3.2v0h-1.066c-1.767 0-3.2 1.433-3.2 3.2v0 2.134c0.005 0.823 0.32 1.572 0.834 2.136l-0.002-0.002c-0.512 0.562-0.827 1.31-0.832 2.132v2.134c0 1.767 1.433 3.2 3.2 3.2v0h1.066c0 1.767 1.433 3.2 3.2 3.2v0h8.534c1.767 0 3.2-1.433 3.2-3.2v0h1.066c1.767 0 3.2-1.433 3.2-3.2v0-2.134c-0.005-0.823-0.32-1.572-0.834-2.136l0.002 0.002c0.512-0.562 0.827-1.31 0.832-2.132v-0.001zM12.534 25.334h-1.066c-0.589 0-1.066-0.478-1.066-1.066v0-2.134c0-0.589 0.478-1.066 1.066-1.066v0h1.066c0.005 0.823 0.32 1.572 0.834 2.136l-0.002-0.002c-0.512 0.562-0.827 1.31-0.832 2.132v0.001zM12.534 18.934h-1.066c-0.589 0-1.066-0.478-1.066-1.066v0-2.134c0-0.589 0.478-1.066 1.066-1.066v0h1.066c0.005 0.823 0.32 1.572 0.834 2.136l-0.002-0.002c-0.512 0.562-0.827 1.31-0.832 2.132v0.001zM25.334 27.466c0 0.589-0.478 1.066-1.066 1.066v0h-8.534c-0.589 0-1.066-0.478-1.066-1.066v0-2.134c0-0.589 0.478-1.066 1.066-1.066v0h8.534c0.589 0 1.066 0.478 1.066 1.066v0zM25.334 21.066c0 0.589-0.478 1.066-1.066 1.066v0h-8.534c-0.589 0-1.066-0.478-1.066-1.066v0-2.134c0-0.589 0.478-1.066 1.066-1.066v0h8.534c0.589 0 1.066 0.478 1.066 1.066v0zM25.334 14.666c0 0.589-0.478 1.066-1.066 1.066v0h-8.534c-0.589 0-1.066-0.478-1.066-1.066v0-2.134c0-0.589 0.478-1.066 1.066-1.066v0h8.534c0.589 0 1.066 0.478 1.066 1.066v0zM29.6 24.266c0 0.589-0.478 1.066-1.066 1.066v0h-1.066c-0.005-0.823-0.32-1.572-0.834-2.136l0.002 0.002c0.512-0.562 0.827-1.31 0.832-2.132v-0.001h1.066c0.589 0 1.066 0.478 1.066 1.066v0zM29.6 17.866c0 0.589-0.478 1.066-1.066 1.066v0h-1.066c-0.005-0.823-0.32-1.572-0.834-2.136l0.002 0.002c0.512-0.562 0.827-1.31 0.832-2.132v-0.001h1.066c0.589 0 1.066 0.478 1.066 1.066v0zM23.2 12.534c-0.589 0-1.066 0.478-1.066 1.066s0.478 1.066 1.066 1.066c0.589 0 1.066-0.478 1.066-1.066v0c0-0.589-0.478-1.066-1.066-1.066v0zM18.934 12.534h-2.134c-0.589 0-1.066 0.478-1.066 1.066s0.478 1.066 1.066 1.066v0h2.134c0.589 0 1.066-0.478 1.066-1.066s-0.478-1.066-1.066-1.066v0z"></path>
</svg>
