<!-- Generated by IcoMoon.io -->
<svg version="1.1" xmlns="http://www.w3.org/2000/svg" width="40" height="40" viewBox="0 0 40 40">
<title>ul-sliders-v-alt</title>
<path fill="#fff" d="M28.534 15.926v-5.526c0-0.589-0.478-1.066-1.066-1.066s-1.066 0.478-1.066 1.066v0 5.526c-1.24 0.459-2.108 1.633-2.108 3.008s0.868 2.549 2.086 3.001l0.022 0.007v7.658c0 0.589 0.478 1.066 1.066 1.066s1.066-0.478 1.066-1.066v0-7.658c1.24-0.459 2.108-1.633 2.108-3.008s-0.868-2.549-2.086-3.001l-0.022-0.007zM27.466 20c-0.589 0-1.066-0.478-1.066-1.066s0.478-1.066 1.066-1.066c0.589 0 1.066 0.478 1.066 1.066v0c0 0.589-0.478 1.066-1.066 1.066v0zM21.066 22.326v-11.926c0-0.589-0.478-1.066-1.066-1.066s-1.066 0.478-1.066 1.066v0 11.926c-1.24 0.459-2.108 1.633-2.108 3.008s0.868 2.549 2.086 3.001l0.022 0.007v1.258c0 0.589 0.478 1.066 1.066 1.066s1.066-0.478 1.066-1.066v0-1.258c1.24-0.459 2.108-1.633 2.108-3.008s-0.868-2.549-2.086-3.001l-0.022-0.007zM20 26.4c-0.589 0-1.066-0.478-1.066-1.066s0.478-1.066 1.066-1.066c0.589 0 1.066 0.478 1.066 1.066v0c0 0.589-0.478 1.066-1.066 1.066v0zM13.6 13.792v-3.392c0-0.589-0.478-1.066-1.066-1.066s-1.066 0.478-1.066 1.066v0 3.392c-1.24 0.459-2.108 1.633-2.108 3.008s0.868 2.549 2.086 3.001l0.022 0.007v9.792c0 0.589 0.478 1.066 1.066 1.066s1.066-0.478 1.066-1.066v0-9.792c1.24-0.459 2.108-1.633 2.108-3.008s-0.868-2.549-2.086-3.001l-0.022-0.007zM12.534 17.866c-0.589 0-1.066-0.478-1.066-1.066s0.478-1.066 1.066-1.066c0.589 0 1.066 0.478 1.066 1.066v0c0 0.589-0.478 1.066-1.066 1.066v0z"></path>
</svg>
