<!-- Generated by IcoMoon.io -->
<svg version="1.1" xmlns="http://www.w3.org/2000/svg" width="40" height="40" viewBox="0 0 40 40">
<title>ul-shutter</title>
<path fill="#fff" d="M27.542 12.458c-1.942-2.009-4.662-3.257-7.673-3.257-5.891 0-10.666 4.776-10.666 10.666 0 3.010 1.247 5.73 3.254 7.67l0.003 0.003c1.942 2.009 4.662 3.257 7.673 3.257 5.891 0 10.666-4.776 10.666-10.666 0-3.010-1.247-5.73-3.254-7.67l-0.003-0.003zM26.646 14.666h-5.834l2.506-2.506c1.331 0.577 2.446 1.429 3.316 2.491l0.012 0.015zM16.8 12.106c0.956-0.394 2.066-0.622 3.23-0.622 0.316 0 0.629 0.017 0.936 0.050l-0.038-0.003-4.128 4.128zM14.666 13.354v5.834l-2.506-2.506c0.577-1.331 1.429-2.446 2.491-3.316l0.015-0.012zM12.106 23.2c-0.394-0.955-0.623-2.064-0.623-3.226 0-0.318 0.017-0.631 0.050-0.941l-0.003 0.038 4.128 4.128zM13.354 25.334h5.834l-2.506 2.506c-1.331-0.577-2.446-1.429-3.316-2.491l-0.012-0.015zM23.2 27.894c-0.955 0.394-2.065 0.623-3.227 0.623-0.318 0-0.63-0.017-0.939-0.050l0.038 0.003 4.128-4.128zM23.2 21.322l-1.878 1.878h-2.656l-1.866-1.878v-2.646l1.878-1.878h2.646l1.878 1.878zM25.334 26.656v-5.846l2.506 2.506c-0.577 1.331-1.429 2.446-2.491 3.316l-0.015 0.012zM24.342 16.8h3.552c0.394 0.955 0.623 2.065 0.623 3.227 0 0.318-0.017 0.63-0.050 0.939l0.003-0.038z"></path>
</svg>
