<!-- Generated by IcoMoon.io -->
<svg version="1.1" xmlns="http://www.w3.org/2000/svg" width="40" height="40" viewBox="0 0 40 40">
<title>ul-shovel</title>
<path fill="#fff" d="M30.358 15.072l-5.43-5.43c-0.193-0.192-0.458-0.31-0.752-0.31s-0.559 0.118-0.752 0.31v0c-0.195 0.194-0.315 0.462-0.315 0.758s0.121 0.564 0.315 0.758v0l1.91 1.952-5.782 5.824-1.066-1.066c-0.579-0.582-1.381-0.941-2.266-0.941s-1.687 0.36-2.266 0.941v0l-3.68 3.648c-0.58 0.579-0.938 1.38-0.938 2.264 0 0.002 0 0.006 0 0.008v-0.001 3.68c0 1.767 1.433 3.2 3.2 3.2v0h3.68c0.002 0 0.005 0 0.008 0 0.884 0 1.685-0.358 2.264-0.938v0l3.648-3.658c0.582-0.579 0.941-1.381 0.941-2.266s-0.36-1.687-0.941-2.266l-1.066-1.066 5.824-5.802 1.952 1.952c0.194 0.195 0.462 0.315 0.758 0.315s0.564-0.121 0.758-0.315v0c0.205-0.194 0.332-0.469 0.332-0.774s-0.127-0.578-0.331-0.773l-0.001-0.001zM20.64 24.554l-3.67 3.67c-0.193 0.191-0.458 0.31-0.751 0.31-0.002 0-0.004 0-0.006 0h-3.68c-0.589 0-1.066-0.478-1.066-1.066v0-3.68c0-0.002 0-0.004 0-0.006 0-0.293 0.118-0.558 0.31-0.751l3.67-3.67c0.193-0.192 0.458-0.31 0.752-0.31s0.559 0.118 0.752 0.31l1.066 1.066-0.95 0.96c-0.192 0.193-0.31 0.458-0.31 0.752s0.118 0.559 0.31 0.752v0c0.193 0.192 0.458 0.31 0.752 0.31 0.017 0 0.034-0.001 0.050-0.001h-0.002c0.291-0.002 0.555-0.119 0.746-0.31v0l0.96-0.95 1.066 1.066c0.205 0.194 0.332 0.469 0.332 0.774s-0.127 0.578-0.331 0.773l-0.001 0.001z"></path>
</svg>
