<!-- Generated by IcoMoon.io -->
<svg version="1.1" xmlns="http://www.w3.org/2000/svg" width="40" height="40" viewBox="0 0 40 40">
<title>ul-subway</title>
<path fill="#fff" d="M24.266 25.334c0.589 0 1.066-0.478 1.066-1.066v0c0.002-0.032 0.004-0.069 0.004-0.106s-0.002-0.074-0.004-0.111v0.005c-0.013-0.072-0.035-0.137-0.066-0.196l0.002 0.004c-0.026-0.074-0.058-0.137-0.098-0.194l0.002 0.002-0.128-0.16c-0.1-0.091-0.217-0.166-0.344-0.221l-0.008-0.003c-0.12-0.050-0.259-0.080-0.406-0.080s-0.286 0.030-0.412 0.082l0.007-0.002c-0.135 0.058-0.252 0.133-0.353 0.225l0.001-0.001-0.128 0.16c-0.038 0.055-0.070 0.118-0.094 0.186l-0.002 0.006c-0.029 0.055-0.051 0.12-0.063 0.188l-0.001 0.004c-0.002 0.032-0.004 0.069-0.004 0.106s0.002 0.074 0.004 0.111v-0.005c0 0.589 0.478 1.066 1.066 1.066v0zM26.4 9.334h-12.8c-1.767 0-3.2 1.433-3.2 3.2v0 12.8c0.003 1.039 0.502 1.962 1.272 2.543l0.008 0.006-0.97 0.96c-0.195 0.194-0.315 0.462-0.315 0.758s0.121 0.564 0.315 0.758v0c0.194 0.195 0.462 0.315 0.758 0.315s0.564-0.121 0.758-0.315v0l1.814-1.824h11.926l1.814 1.824c0.194 0.195 0.462 0.315 0.758 0.315s0.564-0.121 0.758-0.315v0c0.195-0.194 0.315-0.462 0.315-0.758s-0.121-0.564-0.315-0.758v0l-0.97-0.96c0.778-0.588 1.277-1.51 1.28-2.549v-12.801c0-1.767-1.433-3.2-3.2-3.2v0zM12.534 15.734h6.4v4.266h-6.4zM27.466 25.334c0 0.589-0.478 1.066-1.066 1.066v0h-12.8c-0.589 0-1.066-0.478-1.066-1.066v0-3.2h14.934zM27.466 20h-6.4v-4.266h6.4zM27.466 13.6h-14.934v-1.066c0-0.589 0.478-1.066 1.066-1.066v0h12.8c0.589 0 1.066 0.478 1.066 1.066v0zM15.734 25.334c0.589 0 1.066-0.478 1.066-1.066v0c0.002-0.032 0.004-0.069 0.004-0.106s-0.002-0.074-0.004-0.111v0.005c-0.013-0.072-0.035-0.137-0.066-0.196l0.002 0.004c-0.026-0.074-0.058-0.137-0.098-0.194l0.002 0.002-0.128-0.16c-0.1-0.091-0.217-0.166-0.344-0.221l-0.008-0.003c-0.12-0.050-0.259-0.080-0.406-0.080s-0.286 0.030-0.412 0.082l0.007-0.002c-0.135 0.058-0.252 0.133-0.353 0.225l0.001-0.001-0.128 0.16c-0.038 0.055-0.070 0.118-0.094 0.186l-0.002 0.006c-0.044 0.055-0.080 0.118-0.105 0.187l-0.002 0.005c-0.002 0.032-0.004 0.069-0.004 0.106s0.002 0.074 0.004 0.111v-0.005c0.002 0.291 0.119 0.555 0.31 0.746v0c0.193 0.197 0.461 0.318 0.757 0.32v0z"></path>
</svg>
