<!-- Generated by IcoMoon.io -->
<svg version="1.1" xmlns="http://www.w3.org/2000/svg" width="40" height="40" viewBox="0 0 40 40">
<title>ul-shopping-bag</title>
<path fill="#fff" d="M27.466 14.666h-3.2v-1.066c0-2.357-1.91-4.266-4.266-4.266s-4.266 1.91-4.266 4.266v0 1.066h-3.2c-0.589 0-1.066 0.478-1.066 1.066v0 11.734c0 1.767 1.433 3.2 3.2 3.2v0h10.666c1.767 0 3.2-1.433 3.2-3.2v0-11.734c0-0.589-0.478-1.066-1.066-1.066v0zM17.866 13.6c0-1.178 0.955-2.134 2.134-2.134s2.134 0.955 2.134 2.134v0 1.066h-4.266zM26.4 27.466c0 0.589-0.478 1.066-1.066 1.066v0h-10.666c-0.589 0-1.066-0.478-1.066-1.066v0-10.666h2.134v1.066c0 0.589 0.478 1.066 1.066 1.066s1.066-0.478 1.066-1.066v0-1.066h4.266v1.066c0 0.589 0.478 1.066 1.066 1.066s1.066-0.478 1.066-1.066v0-1.066h2.134z"></path>
</svg>
