<!-- Generated by IcoMoon.io -->
<svg version="1.1" xmlns="http://www.w3.org/2000/svg" width="40" height="40" viewBox="0 0 40 40">
<title>ul-skype</title>
<path fill="#fff" d="M30.063 22.299c0.143-0.642 0.226-1.38 0.226-2.137 0-0.009 0-0.018 0-0.026v0.002c-0.033-5.558-4.546-10.051-10.108-10.051-0.024 0-0.048 0-0.072 0h0.004c-0.007 0-0.016 0-0.025 0-0.604 0-1.194 0.055-1.768 0.16l0.060-0.009c-0.891-0.568-1.977-0.905-3.142-0.905-3.235 0-5.862 2.602-5.904 5.826v0.004c0.001 1.084 0.299 2.098 0.818 2.966l-0.014-0.026c-0.124 0.602-0.198 1.297-0.202 2.007v0.003c0.047 5.466 4.489 9.878 9.961 9.878 0.076 0 0.151-0.001 0.226-0.002h-0.011c0.020 0 0.044 0 0.068 0 0.634 0 1.252-0.065 1.85-0.187l-0.059 0.010c0.797 0.49 1.752 0.802 2.775 0.854l0.014 0.001c0.033 0.001 0.071 0.001 0.11 0.001 3.201 0 5.795-2.594 5.795-5.795 0-0.938-0.222-1.823-0.618-2.606l0.015 0.033zM24.736 24.259c-0.439 0.584-1.026 1.034-1.706 1.298l-0.026 0.009c-0.741 0.303-1.6 0.479-2.501 0.479-0.066 0-0.131-0.001-0.197-0.003h0.010c-0.064 0.002-0.139 0.003-0.215 0.003-1.046 0-2.035-0.242-2.915-0.674l0.039 0.018c-0.571-0.308-1.043-0.732-1.399-1.243l-0.009-0.013c-0.309-0.418-0.503-0.938-0.526-1.502v-0.006c0-0.005 0-0.011 0-0.017 0-0.284 0.126-0.539 0.326-0.711l0.001-0.001c0.206-0.187 0.481-0.302 0.782-0.302 0.016 0 0.033 0 0.049 0.001h-0.002c0.013-0.001 0.027-0.001 0.042-0.001 0.243 0 0.466 0.086 0.64 0.229l-0.002-0.002c0.205 0.191 0.367 0.426 0.472 0.69l0.005 0.013c0.139 0.356 0.317 0.663 0.534 0.938l-0.006-0.008c0.201 0.262 0.463 0.468 0.766 0.598l0.013 0.005c0.369 0.159 0.798 0.252 1.249 0.252 0.030 0 0.058-0.001 0.088-0.001h-0.004c0.051 0.003 0.11 0.005 0.17 0.005 0.618 0 1.193-0.179 1.677-0.489l-0.013 0.007c0.418-0.248 0.696-0.694 0.704-1.206v-0.001c0.001-0.015 0.001-0.033 0.001-0.050 0-0.346-0.145-0.658-0.378-0.878l-0.001-0.001c-0.268-0.254-0.598-0.446-0.964-0.55l-0.017-0.004c-0.402-0.126-0.955-0.251-1.633-0.402-0.886-0.19-1.651-0.423-2.387-0.714l0.101 0.035c-0.586-0.238-1.077-0.608-1.452-1.074l-0.006-0.007c-0.331-0.436-0.53-0.988-0.53-1.586 0-0.034 0.001-0.068 0.002-0.102v0.005c0-0.001 0-0.002 0-0.003 0-0.645 0.218-1.238 0.583-1.712l-0.005 0.006c0.421-0.522 0.974-0.921 1.608-1.148l0.026-0.008c0.702-0.256 1.514-0.403 2.359-0.403 0.063 0 0.126 0.001 0.189 0.002h-0.010c0.026 0 0.057-0.001 0.087-0.001 0.686 0 1.347 0.101 1.971 0.289l-0.048-0.013c0.538 0.158 1.006 0.399 1.417 0.711l-0.010-0.008c0.335 0.252 0.613 0.561 0.822 0.915l0.008 0.014c0.154 0.267 0.247 0.587 0.251 0.928v0.001c0 0.001 0 0.002 0 0.003 0 0.296-0.126 0.563-0.326 0.75l-0.001 0.001c-0.193 0.202-0.464 0.327-0.765 0.327-0.014 0-0.027 0-0.041-0.001h0.002c-0.018 0.001-0.040 0.002-0.062 0.002-0.232 0-0.446-0.076-0.619-0.205l0.002 0.002c-0.198-0.186-0.366-0.401-0.496-0.639l-0.006-0.014c-0.207-0.409-0.486-0.752-0.824-1.026l-0.006-0.005c-0.382-0.242-0.846-0.386-1.344-0.386-0.075 0-0.15 0.003-0.223 0.010l0.010-0.001c-0.040-0.002-0.087-0.003-0.134-0.003-0.544 0-1.054 0.151-1.487 0.413l0.013-0.007c-0.346 0.189-0.582 0.542-0.602 0.952v0.002c0.002 0.227 0.077 0.436 0.203 0.605l-0.002-0.002c0.154 0.184 0.348 0.329 0.568 0.423l0.010 0.004c0.21 0.117 0.453 0.212 0.709 0.273l0.019 0.004c0.251 0.076 0.654 0.176 1.23 0.302 0.704 0.151 1.358 0.327 1.936 0.502 0.564 0.17 1.056 0.401 1.505 0.692l-0.022-0.014c0.392 0.26 0.713 0.597 0.947 0.991l0.008 0.014c0.222 0.41 0.352 0.897 0.352 1.414 0 0.024 0 0.048-0.001 0.072v-0.003c0.002 0.040 0.003 0.086 0.003 0.133 0 0.677-0.218 1.302-0.587 1.81l0.006-0.009z"></path>
</svg>
