<!-- Generated by IcoMoon.io -->
<svg version="1.1" xmlns="http://www.w3.org/2000/svg" width="40" height="40" viewBox="0 0 40 40">
<title>ul-sign-out-alt</title>
<path fill="#fff" d="M20.63 21.066l-2.454 2.442c-0.195 0.194-0.315 0.462-0.315 0.758s0.121 0.564 0.315 0.758v0c0.194 0.195 0.462 0.315 0.758 0.315s0.564-0.121 0.758-0.315l4.266-4.266c0.094-0.098 0.17-0.215 0.222-0.345l0.002-0.007c0.050-0.12 0.080-0.259 0.080-0.406s-0.030-0.286-0.082-0.412l0.002 0.007c-0.054-0.137-0.13-0.254-0.224-0.352v0l-4.266-4.266c-0.194-0.194-0.462-0.314-0.758-0.314-0.591 0-1.071 0.479-1.071 1.071 0 0.296 0.12 0.563 0.314 0.758v0l2.454 2.442h-10.23c-0.589 0-1.066 0.478-1.066 1.066s0.478 1.066 1.066 1.066v0zM20 9.334c-0.014 0-0.031 0-0.048 0-4.162 0-7.766 2.383-9.525 5.859l-0.028 0.061c-0.071 0.14-0.114 0.305-0.114 0.48 0 0.593 0.481 1.074 1.074 1.074 0.418 0 0.78-0.238 0.957-0.587l0.003-0.006c1.427-2.835 4.314-4.746 7.647-4.746 4.713 0 8.534 3.821 8.534 8.534 0 4.702-3.802 8.514-8.498 8.534h-0.002c-0.011 0-0.024 0-0.037 0-3.321 0-6.194-1.914-7.578-4.698l-0.022-0.049c-0.18-0.354-0.542-0.594-0.96-0.594-0.593 0-1.074 0.481-1.074 1.074 0 0.175 0.042 0.34 0.116 0.486l-0.003-0.006c1.786 3.537 5.391 5.92 9.552 5.92 5.891 0 10.666-4.776 10.666-10.666s-4.773-10.664-10.662-10.666v0z"></path>
</svg>
