<!-- Generated by IcoMoon.io -->
<svg version="1.1" xmlns="http://www.w3.org/2000/svg" width="40" height="40" viewBox="0 0 40 40">
<title>ul-sick</title>
<path fill="#fff" d="M16.8 18.934c0.589 0 1.066-0.478 1.066-1.066s-0.478-1.066-1.066-1.066c-0.589 0-1.066 0.478-1.066 1.066v0c0 0.589 0.478 1.066 1.066 1.066v0zM23.2 18.934c0.589 0 1.066-0.478 1.066-1.066s-0.478-1.066-1.066-1.066c-0.589 0-1.066 0.478-1.066 1.066v0c0 0.589 0.478 1.066 1.066 1.066v0zM23.488 22.346c-0.176-0.133-0.398-0.214-0.64-0.214s-0.464 0.080-0.642 0.215l0.002-0.002-0.79 0.586-0.778-0.586c-0.176-0.133-0.398-0.214-0.64-0.214s-0.464 0.080-0.642 0.215l0.002-0.002-0.778 0.586-0.79-0.586c-0.176-0.133-0.398-0.214-0.64-0.214s-0.464 0.080-0.642 0.215l0.002-0.002-1.418 1.066c-0.26 0.197-0.426 0.506-0.426 0.854 0 0.589 0.478 1.066 1.066 1.066 0.242 0 0.464-0.080 0.642-0.215l-0.002 0.002 0.778-0.586 0.79 0.586 0.128 0.064c0.068 0.037 0.146 0.066 0.229 0.084l0.006 0.001h0.128c0.040 0.006 0.086 0.008 0.134 0.008s0.094-0.003 0.138-0.009l-0.006 0.001h0.106c0.138-0.038 0.259-0.096 0.366-0.173l-0.003 0.002 0.778-0.586 0.778 0.586c0.175 0.13 0.395 0.209 0.634 0.209 0.157 0 0.306-0.034 0.439-0.094l-0.006 0.002 0.106-0.054c0.045-0.016 0.084-0.038 0.118-0.065l-0.001 0.001 0.79-0.586 0.778 0.586c0.176 0.133 0.398 0.214 0.64 0.214v0c0.348 0 0.657-0.166 0.851-0.424l0.002-0.002c0.133-0.176 0.214-0.398 0.214-0.64 0-0.348-0.166-0.657-0.424-0.851l-0.002-0.002zM20 9.334c-5.891 0-10.666 4.776-10.666 10.666s4.776 10.666 10.666 10.666c5.891 0 10.666-4.776 10.666-10.666v0c0-5.891-4.776-10.666-10.666-10.666v0zM20 28.534c-4.713 0-8.534-3.821-8.534-8.534s3.821-8.534 8.534-8.534c4.713 0 8.534 3.821 8.534 8.534v0c0 4.713-3.821 8.534-8.534 8.534v0z"></path>
</svg>
