<!-- Generated by IcoMoon.io -->
<svg version="1.1" xmlns="http://www.w3.org/2000/svg" width="40" height="40" viewBox="0 0 40 40">
<title>ul-sanitizer-alt</title>
<path fill="#fff" d="M22.134 23.2h-2.134c-0.589 0-1.066 0.478-1.066 1.066s0.478 1.066 1.066 1.066v0h2.134c0.589 0 1.066-0.478 1.066-1.066s-0.478-1.066-1.066-1.066v0zM24.266 15.734v-3.2c0-0.589-0.478-1.066-1.066-1.066v0h-1.066v-1.066h1.066c0.589 0 1.066-0.478 1.066-1.066s-0.478-1.066-1.066-1.066v0h-5.082c-0.005 0-0.010 0-0.017 0-1.913 0-3.57 1.096-4.377 2.695l-0.013 0.028c-0.070 0.138-0.111 0.302-0.111 0.475 0 0.589 0.478 1.067 1.067 1.067 0.414 0 0.774-0.236 0.95-0.582l0.003-0.006c0.465-0.922 1.404-1.544 2.488-1.544 0.003 0 0.006 0 0.010 0h1.882v1.066h-1.066c-0.589 0-1.066 0.478-1.066 1.066v0 3.2c-1.766 0.002-3.198 1.434-3.2 3.2v9.6c0.002 1.766 1.434 3.198 3.2 3.2h6.4c1.766-0.002 3.198-1.434 3.2-3.2v-9.6c-0.002-1.766-1.434-3.198-3.2-3.2v0zM20 13.6h2.134v2.134h-2.134zM25.334 28.534c-0.001 0.589-0.478 1.066-1.066 1.066h-6.4c-0.589-0.001-1.066-0.478-1.066-1.066v-9.6c0.001-0.589 0.478-1.066 1.066-1.066h6.4c0.589 0.001 1.066 0.478 1.066 1.066v0z"></path>
</svg>
