<!-- Generated by IcoMoon.io -->
<svg version="1.1" xmlns="http://www.w3.org/2000/svg" width="40" height="40" viewBox="0 0 40 40">
<title>ul-thunderstorm-sun</title>
<path fill="#fff" d="M19.552 24.8h-1.344l0.918-1.6c0.105-0.162 0.166-0.36 0.166-0.572 0-0.589-0.478-1.066-1.066-1.066-0.408 0-0.763 0.23-0.942 0.566l-0.003 0.006-1.846 3.2c-0.090 0.153-0.143 0.337-0.143 0.534 0 0.587 0.474 1.063 1.060 1.066h1.355l-0.906 1.6c-0.090 0.153-0.142 0.337-0.142 0.534 0 0.591 0.479 1.070 1.070 1.070 0.395 0 0.74-0.214 0.926-0.532l0.002-0.005 1.846-3.2c0.090-0.153 0.143-0.337 0.143-0.534s-0.053-0.38-0.146-0.538l0.002 0.005c-0.188-0.322-0.531-0.534-0.924-0.534-0.009 0-0.018 0-0.026 0h0.002zM29.6 15.2h-0.854c-0.12-0.513-0.311-0.965-0.566-1.374l0.011 0.019 0.598-0.598c0.159-0.186 0.257-0.428 0.257-0.694 0-0.589-0.478-1.066-1.066-1.066-0.266 0-0.509 0.097-0.695 0.258l0.002-0.001-0.598 0.598c-0.39-0.243-0.842-0.434-1.324-0.549l-0.030-0.006v-0.854c0-0.589-0.478-1.066-1.066-1.066s-1.066 0.478-1.066 1.066v0 0.854c-0.513 0.12-0.965 0.311-1.374 0.566l0.019-0.011-0.598-0.598c-0.186-0.159-0.428-0.257-0.694-0.257-0.589 0-1.066 0.478-1.066 1.066 0 0.266 0.097 0.509 0.258 0.695l-0.001-0.002 0.598 0.608c-0.096 0.16-0.17 0.342-0.256 0.512-0.505-0.148-1.085-0.234-1.685-0.234h-0.001c-0.001 0-0.002 0-0.004 0-3.207 0-5.863 2.359-6.328 5.437l-0.004 0.035c-1.592 0.446-2.739 1.884-2.739 3.59 0 1.572 0.974 2.916 2.351 3.462l0.025 0.009c0.134 0.065 0.291 0.103 0.458 0.103 0.589 0 1.066-0.478 1.066-1.066 0-0.478-0.315-0.883-0.749-1.018l-0.007-0.002c-0.59-0.244-0.998-0.816-0.998-1.482 0-0.882 0.714-1.598 1.596-1.6v0c0.589 0 1.066-0.478 1.066-1.066v0c0.011-2.348 1.917-4.247 4.266-4.247 1.857 0 3.436 1.186 4.023 2.842l0.010 0.030c0.126 0.37 0.44 0.646 0.826 0.714l0.006 0.001c1.174 0.214 2.052 1.228 2.052 2.447 0 1.123-0.745 2.072-1.768 2.38l-0.018 0.005c-0.53 0.074-0.932 0.523-0.932 1.066 0 0.594 0.482 1.076 1.076 1.076 0.050 0 0.101-0.003 0.15-0.010l-0.006 0.001c0.043 0.007 0.093 0.012 0.144 0.012s0.101-0.004 0.15-0.012l-0.006 0.001c1.953-0.555 3.359-2.323 3.359-4.419 0-0.606-0.118-1.183-0.33-1.713l0.011 0.031 0.138 0.138c0.192 0.19 0.455 0.308 0.746 0.31v0c0.002 0 0.004 0 0.006 0 0.293 0 0.558-0.118 0.751-0.31v0c0.192-0.193 0.31-0.458 0.31-0.752s-0.118-0.559-0.31-0.752l-0.598-0.598c0.252-0.414 0.444-0.897 0.55-1.41l0.005-0.030h0.854c0.589 0 1.066-0.478 1.066-1.066s-0.478-1.066-1.066-1.066v0zM26.038 18.026v0c-0.183 0.174-0.394 0.32-0.626 0.431l-0.014 0.006c-0.325-0.24-0.699-0.442-1.1-0.587l-0.031-0.010c-0.506-1.089-1.267-1.986-2.208-2.642l-0.022-0.014c0.126-0.288 0.291-0.535 0.492-0.748l-0.001 0.002c0.461-0.427 1.080-0.689 1.76-0.689s1.299 0.262 1.762 0.69l-0.002-0.002c0.442 0.454 0.714 1.075 0.714 1.76s-0.272 1.306-0.714 1.761l0.001-0.001z"></path>
</svg>
