<!-- Generated by IcoMoon.io -->
<svg version="1.1" xmlns="http://www.w3.org/2000/svg" width="40" height="40" viewBox="0 0 40 40">
<title>ul-transaction</title>
<path fill="#fff" d="M28.534 9.334h-10.666c-1.767 0-3.2 1.433-3.2 3.2v0 7.466c0 1.767 1.433 3.2 3.2 3.2v0h10.666c1.767 0 3.2-1.433 3.2-3.2v0-7.466c0-1.767-1.433-3.2-3.2-3.2v0zM29.6 20c0 0.589-0.478 1.066-1.066 1.066v0h-10.666c-0.589 0-1.066-0.478-1.066-1.066v0-7.466c0-0.589 0.478-1.066 1.066-1.066v0h10.666c0.589 0 1.066 0.478 1.066 1.066v0zM25.866 15.734c-0.412 0.002-0.786 0.159-1.068 0.417l0.001-0.001c-0.283-0.258-0.661-0.416-1.076-0.416-0.884 0-1.6 0.716-1.6 1.6s0.716 1.6 1.6 1.6c0.415 0 0.793-0.158 1.078-0.417l-0.002 0.001c0.283 0.258 0.661 0.416 1.076 0.416 0.884 0 1.6-0.716 1.6-1.6s-0.716-1.6-1.6-1.6c-0.003 0-0.006 0-0.010 0h0.001zM24.266 25.334c-0.589 0-1.066 0.478-1.066 1.066v0 1.066c0 0.589-0.478 1.066-1.066 1.066v0h-10.666c-0.589 0-1.066-0.478-1.066-1.066v0-4.266h1.066c0.589 0 1.066-0.478 1.066-1.066s-0.478-1.066-1.066-1.066v0h-1.066v-1.066c0-0.589 0.478-1.066 1.066-1.066v0c0.589 0 1.066-0.478 1.066-1.066s-0.478-1.066-1.066-1.066v0c-1.767 0-3.2 1.433-3.2 3.2v0 7.466c0 1.767 1.433 3.2 3.2 3.2v0h10.666c1.767 0 3.2-1.433 3.2-3.2v0-1.066c0-0.589-0.478-1.066-1.066-1.066v0zM13.6 26.4h1.066c0.589 0 1.066-0.478 1.066-1.066s-0.478-1.066-1.066-1.066v0h-1.066c-0.589 0-1.066 0.478-1.066 1.066s0.478 1.066 1.066 1.066v0z"></path>
</svg>
