<!-- Generated by IcoMoon.io -->
<svg version="1.1" xmlns="http://www.w3.org/2000/svg" width="40" height="40" viewBox="0 0 40 40">
<title>ul-trees</title>
<path fill="#fff" d="M24.8 12.534c-0.002 0-0.002 0-0.004 0-0.983 0-1.902 0.274-2.686 0.749l0.023-0.013c-1.012-2.282-3.258-3.844-5.867-3.844-3.502 0-6.347 2.813-6.399 6.303v4.271c0.003 3.155 2.289 5.775 5.295 6.298l0.038 0.006v3.296c0 0.589 0.478 1.066 1.066 1.066s1.066-0.478 1.066-1.066v0-3.296c1.14-0.202 2.144-0.677 2.978-1.354l-0.012 0.010c0.766 1.214 1.977 2.088 3.4 2.394l0.035 0.006v2.24c0 0.589 0.478 1.066 1.066 1.066s1.066-0.478 1.066-1.066v0-2.24c2.452-0.514 4.266-2.658 4.266-5.226 0 0 0-0.001 0-0.001v0-4.266c0-2.946-2.388-5.334-5.334-5.334v0zM19.466 17.866v4.266c0.011 0.226 0.034 0.435 0.069 0.641l-0.005-0.033c-0.561 0.664-1.311 1.152-2.167 1.38l-0.030 0.006v-3.062c0-0.589-0.478-1.066-1.066-1.066s-1.066 0.478-1.066 1.066v0 3.050c-1.85-0.49-3.194-2.146-3.2-4.117v-4.267c0-0.004 0-0.009 0-0.014 0-2.357 1.91-4.266 4.266-4.266 1.179 0 2.246 0.478 3.018 1.251v0c0.56 0.567 0.96 1.294 1.126 2.106l0.005 0.027c-0.593 0.846-0.947 1.896-0.95 3.029v0.001zM28 22.134c-0.004 1.382-0.882 2.557-2.111 3.001l-0.022 0.007v-4.074c0-0.589-0.478-1.066-1.066-1.066s-1.066 0.478-1.066 1.066v0 4.074c-1.25-0.451-2.13-1.626-2.134-3.007v-4.267c0-1.767 1.433-3.2 3.2-3.2s3.2 1.433 3.2 3.2v0z"></path>
</svg>
