<!-- Generated by IcoMoon.io -->
<svg version="1.1" xmlns="http://www.w3.org/2000/svg" width="40" height="40" viewBox="0 0 40 40">
<title>ul-thermometer</title>
<path fill="#fff" d="M24.576 13.91l-7.466 7.466c-0.195 0.194-0.315 0.462-0.315 0.758s0.121 0.564 0.315 0.758v0c0.194 0.195 0.462 0.315 0.758 0.315s0.564-0.121 0.758-0.315l7.466-7.466c0.194-0.194 0.314-0.462 0.314-0.758 0-0.591-0.479-1.071-1.071-1.071-0.296 0-0.563 0.12-0.758 0.314v0zM29.11 10.89c-0.966-0.968-2.301-1.567-3.776-1.567s-2.81 0.599-3.776 1.566v0l-8.714 8.778c-0.19 0.192-0.308 0.455-0.31 0.746v5.536l-2.89 2.89c-0.195 0.194-0.315 0.462-0.315 0.758s0.121 0.564 0.315 0.758v0c0.194 0.195 0.462 0.315 0.758 0.315s0.564-0.121 0.758-0.315l2.89-2.89h5.536c0.291-0.002 0.555-0.119 0.746-0.31v0l8.778-8.714c0.968-0.966 1.567-2.301 1.567-3.776s-0.599-2.81-1.566-3.776v0zM27.594 16.928l-8.448 8.406h-4.48v-4.48l8.406-8.448c0.57-0.532 1.338-0.859 2.182-0.859 1.767 0 3.2 1.433 3.2 3.2 0 0.844-0.326 1.611-0.861 2.183l0.002-0.002z"></path>
</svg>
