<!-- Generated by IcoMoon.io -->
<svg version="1.1" xmlns="http://www.w3.org/2000/svg" width="40" height="40" viewBox="0 0 40 40">
<title>ul-tape</title>
<path fill="#fff" d="M22.666 14.666c-2.357 0-4.266 1.91-4.266 4.266s1.91 4.266 4.266 4.266c2.357 0 4.266-1.91 4.266-4.266v0c0-2.357-1.91-4.266-4.266-4.266v0zM22.666 21.066c-1.178 0-2.134-0.955-2.134-2.134s0.955-2.134 2.134-2.134c1.178 0 2.134 0.955 2.134 2.134v0c0 1.178-0.955 2.134-2.134 2.134v0zM23.734 10.4h-2.134c-4.124 0-7.466 3.343-7.466 7.466v0 3.2h-1.066c-0.589 0-1.066 0.478-1.066 1.066s0.478 1.066 1.066 1.066v0h1.066v2.134h-4.266c-0.589 0-1.066 0.478-1.066 1.066v0 2.134c0 0.589 0.478 1.066 1.066 1.066s1.066-0.478 1.066-1.066v0-1.066h12.8c4.124 0 7.466-3.343 7.466-7.466v0-2.134c0-4.124-3.343-7.466-7.466-7.466v0zM29.066 20c0 2.946-2.388 5.334-5.334 5.334v0h-7.466v-7.466c0-2.946 2.388-5.334 5.334-5.334v0h2.134c2.946 0 5.334 2.388 5.334 5.334v0z"></path>
</svg>
