<!-- Generated by IcoMoon.io -->
<svg version="1.1" xmlns="http://www.w3.org/2000/svg" width="40" height="40" viewBox="0 0 40 40">
<title>ul-trash-alt</title>
<path fill="#fff" d="M17.866 26.4c0.589 0 1.066-0.478 1.066-1.066v0-6.4c0-0.589-0.478-1.066-1.066-1.066s-1.066 0.478-1.066 1.066v0 6.4c0 0.589 0.478 1.066 1.066 1.066v0zM28.534 13.6h-4.266v-1.066c0-1.767-1.433-3.2-3.2-3.2v0h-2.134c-1.767 0-3.2 1.433-3.2 3.2v0 1.066h-4.266c-0.589 0-1.066 0.478-1.066 1.066s0.478 1.066 1.066 1.066v0h1.066v11.734c0 1.767 1.433 3.2 3.2 3.2v0h8.534c1.767 0 3.2-1.433 3.2-3.2v0-11.734h1.066c0.589 0 1.066-0.478 1.066-1.066s-0.478-1.066-1.066-1.066v0zM17.866 12.534c0-0.589 0.478-1.066 1.066-1.066v0h2.134c0.589 0 1.066 0.478 1.066 1.066v0 1.066h-4.266zM25.334 27.466c0 0.589-0.478 1.066-1.066 1.066v0h-8.534c-0.589 0-1.066-0.478-1.066-1.066v0-11.734h10.666zM22.134 26.4c0.589 0 1.066-0.478 1.066-1.066v0-6.4c0-0.589-0.478-1.066-1.066-1.066s-1.066 0.478-1.066 1.066v0 6.4c0 0.589 0.478 1.066 1.066 1.066v0z"></path>
</svg>
