<!-- Generated by IcoMoon.io -->
<svg version="1.1" xmlns="http://www.w3.org/2000/svg" width="40" height="40" viewBox="0 0 40 40">
<title>ul-th-slash</title>
<path fill="#fff" d="M31.424 29.91l-21.334-21.334c-0.194-0.194-0.462-0.314-0.758-0.314-0.591 0-1.071 0.479-1.071 1.071 0 0.296 0.12 0.563 0.314 0.758v0l0.758 0.746v18.762c0 0.589 0.478 1.066 1.066 1.066v0h18.762l0.746 0.758c0.194 0.195 0.462 0.315 0.758 0.315s0.564-0.121 0.758-0.315v0c0.195-0.194 0.315-0.462 0.315-0.758s-0.121-0.564-0.315-0.758v0zM11.466 12.97l2.762 2.762h-2.762zM15.734 28.534h-4.266v-4.266h4.266zM15.734 22.134h-4.266v-4.266h4.266zM17.866 19.37l2.762 2.762h-2.762zM22.134 28.534h-4.266v-4.266h4.266zM24.266 28.534v-2.762l2.762 2.762zM16.448 11.466h5.686v5.334c0 0.589 0.478 1.066 1.066 1.066v0h5.334v5.686c0 0.589 0.478 1.066 1.066 1.066s1.066-0.478 1.066-1.066v0-13.152c0-0.589-0.478-1.066-1.066-1.066v0h-13.152c-0.589 0-1.066 0.478-1.066 1.066s0.478 1.066 1.066 1.066v0zM24.266 11.466h4.266v4.266h-4.266z"></path>
</svg>
