<!-- Generated by IcoMoon.io -->
<svg version="1.1" xmlns="http://www.w3.org/2000/svg" width="40" height="40" viewBox="0 0 40 40">
<title>ul-truck</title>
<path fill="#fff" d="M8.266 20.534v5.334c0 0.589 0.478 1.066 1.066 1.066v0h1.066c0 1.767 1.433 3.2 3.2 3.2s3.2-1.433 3.2-3.2v0h6.4c0 1.767 1.433 3.2 3.2 3.2s3.2-1.433 3.2-3.2v0h1.066c0.589 0 1.066-0.478 1.066-1.066v0-12.8c0-1.767-1.433-3.2-3.2-3.2v0h-9.6c-1.767 0-3.2 1.433-3.2 3.2v0 2.134h-2.134c-1.043 0-1.97 0.499-2.554 1.272l-0.006 0.008-2.56 3.414c-0.030 0.043-0.054 0.092-0.074 0.145l-0.002 0.005-0.064 0.118c-0.045 0.11-0.072 0.238-0.074 0.372v0.001zM25.334 26.934c0-0.589 0.478-1.066 1.066-1.066s1.066 0.478 1.066 1.066c0 0.589-0.478 1.066-1.066 1.066v0c-0.589 0-1.066-0.478-1.066-1.066v0zM17.866 13.066c0-0.589 0.478-1.066 1.066-1.066v0h9.6c0.589 0 1.066 0.478 1.066 1.066v0 11.734h-0.832c-0.587-0.645-1.43-1.048-2.368-1.048s-1.781 0.403-2.366 1.045l-0.002 0.002h-6.166zM15.734 19.466h-4.266l1.28-1.706c0.197-0.26 0.506-0.426 0.854-0.426v0h2.134zM12.534 26.934c0-0.589 0.478-1.066 1.066-1.066s1.066 0.478 1.066 1.066c0 0.589-0.478 1.066-1.066 1.066v0c-0.589 0-1.066-0.478-1.066-1.066v0zM10.4 21.6h5.334v2.966c-0.563-0.505-1.312-0.814-2.133-0.814-0.938 0-1.782 0.403-2.366 1.046l-0.002 0.002h-0.832z"></path>
</svg>
