<!-- Generated by IcoMoon.io -->
<svg version="1.1" xmlns="http://www.w3.org/2000/svg" width="40" height="40" viewBox="0 0 40 40">
<title>ul-usd-circle</title>
<path fill="#fff" d="M18.934 16.8h4.266c0.589 0 1.066-0.478 1.066-1.066s-0.478-1.066-1.066-1.066v0h-2.134v-1.066c0-0.589-0.478-1.066-1.066-1.066s-1.066 0.478-1.066 1.066v0 1.066c-1.767 0-3.2 1.433-3.2 3.2s1.433 3.2 3.2 3.2v0h2.134c0.589 0 1.066 0.478 1.066 1.066s-0.478 1.066-1.066 1.066v0h-4.266c-0.589 0-1.066 0.478-1.066 1.066s0.478 1.066 1.066 1.066v0h2.134v1.066c0 0.589 0.478 1.066 1.066 1.066s1.066-0.478 1.066-1.066v0-1.066c1.767 0 3.2-1.433 3.2-3.2s-1.433-3.2-3.2-3.2v0h-2.134c-0.589 0-1.066-0.478-1.066-1.066s0.478-1.066 1.066-1.066v0zM20 8.266c-6.48 0-11.734 5.253-11.734 11.734s5.253 11.734 11.734 11.734c6.48 0 11.734-5.253 11.734-11.734v0c0-6.48-5.253-11.734-11.734-11.734v0zM20 29.6c-5.302 0-9.6-4.298-9.6-9.6s4.298-9.6 9.6-9.6c5.302 0 9.6 4.298 9.6 9.6v0c0 5.302-4.298 9.6-9.6 9.6v0z"></path>
</svg>
