<!-- Generated by IcoMoon.io -->
<svg version="1.1" xmlns="http://www.w3.org/2000/svg" width="40" height="40" viewBox="0 0 40 40">
<title>ul-user</title>
<path fill="#fff" d="M23.958 20.758c1.494-1.182 2.442-2.995 2.442-5.030 0-3.534-2.866-6.4-6.4-6.4s-6.4 2.866-6.4 6.4c0 2.034 0.95 3.847 2.43 5.020l0.014 0.010c-3.599 1.47-6.181 4.749-6.63 8.676l-0.005 0.049c-0.004 0.035-0.006 0.076-0.006 0.118 0 0.593 0.481 1.073 1.073 1.073 0.551 0 1.006-0.416 1.066-0.951l0.001-0.005c0.495-4.285 4.102-7.581 8.48-7.581s7.985 3.296 8.476 7.541l0.004 0.040c0.061 0.537 0.513 0.95 1.060 0.95 0.002 0 0.005 0 0.007 0h0.117c0.534-0.063 0.945-0.514 0.945-1.060 0-0.040-0.002-0.079-0.006-0.118l0.001 0.005c-0.456-3.987-3.052-7.274-6.595-8.71l-0.071-0.026zM20 20c-2.357 0-4.266-1.91-4.266-4.266s1.91-4.266 4.266-4.266c2.357 0 4.266 1.91 4.266 4.266v0c0 2.357-1.91 4.266-4.266 4.266v0z"></path>
</svg>
