<!-- Generated by IcoMoon.io -->
<svg version="1.1" xmlns="http://www.w3.org/2000/svg" width="40" height="40" viewBox="0 0 40 40">
<title>ul-unamused</title>
<path fill="#fff" d="M22.838 21.664l-4.47 1.6c-0.414 0.153-0.703 0.544-0.703 1.002 0 0.585 0.471 1.060 1.054 1.066h0.001c0.13 0 0.255-0.023 0.37-0.066l-0.007 0.002 4.48-1.6c0.429-0.145 0.732-0.543 0.732-1.013 0-0.589-0.478-1.066-1.066-1.066-0.141 0-0.275 0.027-0.398 0.077l0.007-0.002zM18.57 18.464c0.192-0.193 0.31-0.458 0.31-0.752s-0.118-0.559-0.31-0.752v0c-0.588-0.558-1.385-0.902-2.262-0.902s-1.674 0.343-2.262 0.903l0.002-0.002c-0.229 0.197-0.373 0.486-0.373 0.81 0 0.589 0.478 1.066 1.066 1.066 0.323 0 0.614-0.144 0.809-0.371l0.001-0.002c0.194-0.195 0.462-0.315 0.758-0.315s0.564 0.121 0.758 0.315v0c0.193 0.192 0.458 0.31 0.752 0.31s0.559-0.118 0.752-0.31v0zM26.038 16.96c-0.588-0.558-1.385-0.902-2.262-0.902s-1.674 0.343-2.262 0.903l0.002-0.002c-0.159 0.186-0.257 0.428-0.257 0.694 0 0.589 0.478 1.066 1.066 1.066 0.266 0 0.509-0.097 0.695-0.258l-0.002 0.001c0.194-0.195 0.462-0.315 0.758-0.315s0.564 0.121 0.758 0.315v0c0.193 0.192 0.458 0.31 0.752 0.31s0.559-0.118 0.752-0.31v0c0.186-0.192 0.3-0.454 0.3-0.742 0-0.31-0.132-0.588-0.342-0.783l-0.001-0.001zM20 9.334c-5.891 0-10.666 4.776-10.666 10.666s4.776 10.666 10.666 10.666c5.891 0 10.666-4.776 10.666-10.666v0c0-5.891-4.776-10.666-10.666-10.666v0zM20 28.534c-4.713 0-8.534-3.821-8.534-8.534s3.821-8.534 8.534-8.534c4.713 0 8.534 3.821 8.534 8.534v0c0 4.713-3.821 8.534-8.534 8.534v0z"></path>
</svg>
