<!-- Generated by IcoMoon.io -->
<svg version="1.1" xmlns="http://www.w3.org/2000/svg" width="40" height="40" viewBox="0 0 40 40">
<title>ul-university</title>
<path fill="#fff" d="M29.6 17.866c0 0 0 0 0 0 0.589 0 1.066-0.478 1.066-1.066 0 0 0 0 0 0v0-3.2c0 0 0 0 0-0.001 0-0.468-0.302-0.866-0.722-1.009l-9.607-3.202c-0.101-0.034-0.217-0.054-0.338-0.054s-0.237 0.020-0.345 0.057l-9.593 3.198c-0.427 0.146-0.729 0.543-0.729 1.011 0 0 0 0 0 0.001v0 3.2c0 0 0 0 0 0 0 0.589 0.478 1.066 1.066 1.066 0 0 0 0 0 0h1.066v7.663c-1.25 0.45-2.129 1.623-2.134 3.003v2.134c0 0 0 0 0 0 0 0.589 0.478 1.066 1.066 1.066 0 0 0 0 0 0h19.2c0 0 0 0 0 0 0.589 0 1.066-0.478 1.066-1.066 0 0 0 0 0 0v0-2.134c-0.004-1.38-0.883-2.554-2.111-2.997l-0.022-0.007v-7.663zM28.534 29.6h-17.066v-1.066c0.001-0.589 0.478-1.066 1.066-1.066h14.934c0.589 0.001 1.066 0.478 1.066 1.066v0zM13.6 25.334v-7.466h2.134v7.466zM17.866 25.334v-7.466h4.266v7.466zM24.266 25.334v-7.466h2.134v7.466zM11.466 15.734v-1.365l8.534-2.845 8.534 2.845v1.365z"></path>
</svg>
