<!-- Generated by IcoMoon.io -->
<svg version="1.1" xmlns="http://www.w3.org/2000/svg" width="40" height="40" viewBox="0 0 40 40">
<title>ul-voicemail-rectangle</title>
<path fill="#fff" d="M28.534 11.466h-17.066c-1.767 0-3.2 1.433-3.2 3.2v0 10.666c0 1.767 1.433 3.2 3.2 3.2v0h17.066c1.767 0 3.2-1.433 3.2-3.2v0-10.666c0-1.767-1.433-3.2-3.2-3.2v0zM29.6 25.334c0 0.589-0.478 1.066-1.066 1.066v0h-17.066c-0.589 0-1.066-0.478-1.066-1.066v0-10.666c0-0.589 0.478-1.066 1.066-1.066v0h17.066c0.589 0 1.066 0.478 1.066 1.066v0zM24.266 16.8c-1.763 0.005-3.191 1.436-3.191 3.2 0 0.382 0.067 0.749 0.19 1.089l-0.007-0.022h-2.518c0.116-0.318 0.183-0.684 0.183-1.066 0-1.767-1.433-3.2-3.2-3.2s-3.2 1.433-3.2 3.2c0 1.767 1.433 3.2 3.2 3.2 0.003 0 0.006 0 0.010 0h8.533c1.767 0 3.2-1.433 3.2-3.2s-1.433-3.2-3.2-3.2v0zM15.734 21.066c-0.589 0-1.066-0.478-1.066-1.066s0.478-1.066 1.066-1.066c0.589 0 1.066 0.478 1.066 1.066v0c0 0.589-0.478 1.066-1.066 1.066v0zM24.266 21.066c-0.589 0-1.066-0.478-1.066-1.066s0.478-1.066 1.066-1.066c0.589 0 1.066 0.478 1.066 1.066v0c0 0.589-0.478 1.066-1.066 1.066v0z"></path>
</svg>
