<!-- Generated by IcoMoon.io -->
<svg version="1.1" xmlns="http://www.w3.org/2000/svg" width="40" height="40" viewBox="0 0 40 40">
<title>ul-vertical-distribution-center</title>
<path fill="#fff" d="M29.6 23.2h-1.066v-2.134c0-0.589-0.478-1.066-1.066-1.066v0h-14.934c-0.589 0-1.066 0.478-1.066 1.066v0 2.134h-1.066c-0.589 0-1.066 0.478-1.066 1.066s0.478 1.066 1.066 1.066v0h1.066v2.134c0 0.589 0.478 1.066 1.066 1.066v0h14.934c0.589 0 1.066-0.478 1.066-1.066v0-2.134h1.066c0.589 0 1.066-0.478 1.066-1.066s-0.478-1.066-1.066-1.066v0zM26.4 26.4h-12.8v-4.266h12.8zM10.4 15.734h2.134v1.066c0 0.589 0.478 1.066 1.066 1.066v0h12.8c0.589 0 1.066-0.478 1.066-1.066v0-1.066h2.134c0.589 0 1.066-0.478 1.066-1.066s-0.478-1.066-1.066-1.066v0h-2.134v-1.066c0-0.589-0.478-1.066-1.066-1.066v0h-12.8c-0.589 0-1.066 0.478-1.066 1.066v0 1.066h-2.134c-0.589 0-1.066 0.478-1.066 1.066s0.478 1.066 1.066 1.066v0zM14.666 13.6h10.666v2.134h-10.666z"></path>
</svg>
