<!-- Generated by IcoMoon.io -->
<svg version="1.1" xmlns="http://www.w3.org/2000/svg" width="40" height="40" viewBox="0 0 40 40">
<title>ul-vk</title>
<path fill="#fff" d="M23.278 9.334h-6.545c-5.978 0-7.4 1.422-7.4 7.389v6.545c0 5.978 1.411 7.4 7.389 7.4h6.545c5.978 0 7.4-1.411 7.4-7.389v-6.545c0-5.978-1.411-7.4-7.389-7.4zM26.555 24.555h-1.555c-0.589 0-0.766-0.478-1.822-1.534-0.922-0.889-1.311-1-1.545-1-0.322 0-0.411 0.089-0.411 0.534v1.4c0 0.378-0.122 0.6-1.111 0.6-2.003-0.138-3.726-1.23-4.73-2.819l-0.014-0.025c-1.163-1.438-2.019-3.174-2.44-5.073l-0.015-0.082c0-0.234 0.089-0.445 0.534-0.445h1.555c0.4 0 0.545 0.178 0.7 0.589 0.755 2.222 2.045 4.155 2.566 4.155 0.2 0 0.289-0.089 0.289-0.589v-2.289c-0.066-1.045-0.622-1.134-0.622-1.511 0.015-0.2 0.181-0.356 0.383-0.356 0.006 0 0.012 0 0.018 0.001h2.444c0.334 0 0.445 0.166 0.445 0.566v3.089c0 0.334 0.145 0.445 0.245 0.445 0.2 0 0.355-0.111 0.722-0.478 0.754-0.914 1.396-1.962 1.879-3.094l0.032-0.083c0.095-0.262 0.342-0.446 0.631-0.446 0.016 0 0.033 0.001 0.049 0.002h1.553c0.466 0 0.566 0.234 0.466 0.566-0.618 1.371-1.317 2.55-2.126 3.641l0.037-0.052c-0.166 0.255-0.234 0.389 0 0.689 0.155 0.234 0.7 0.689 1.066 1.122 0.52 0.519 0.958 1.12 1.293 1.782l0.018 0.039c0.134 0.434-0.089 0.655-0.534 0.655z"></path>
</svg>
