<!-- Generated by IcoMoon.io -->
<svg version="1.1" xmlns="http://www.w3.org/2000/svg" width="40" height="40" viewBox="0 0 40 40">
<title>ul-wifi-router</title>
<path fill="#fff" d="M16.694 25.334c-0.589 0-1.066 0.478-1.066 1.066s0.478 1.066 1.066 1.066c0.589 0 1.066-0.478 1.066-1.066v0c0-0.589-0.478-1.066-1.066-1.066v0zM13.494 25.334c-0.589 0-1.066 0.478-1.066 1.066s0.478 1.066 1.066 1.066c0.589 0 1.066-0.478 1.066-1.066v0c0-0.589-0.478-1.066-1.066-1.066v0zM19.894 25.334c-0.589 0-1.066 0.478-1.066 1.066s0.478 1.066 1.066 1.066c0.589 0 1.066-0.478 1.066-1.066v0c0-0.589-0.478-1.066-1.066-1.066v0zM23.2 16.266c0.188-0.32 0.53-0.531 0.922-0.531s0.734 0.211 0.92 0.526l0.002 0.005c0.188 0.322 0.531 0.534 0.924 0.534 0.194 0 0.375-0.051 0.532-0.142l-0.005 0.002c0.342-0.182 0.571-0.537 0.571-0.945 0-0.19-0.050-0.368-0.136-0.522l0.002 0.006c-0.563-0.966-1.594-1.603-2.774-1.603s-2.21 0.638-2.765 1.588l-0.008 0.015c-0.045 0.113-0.070 0.244-0.070 0.381 0 0.589 0.478 1.066 1.066 1.066 0.327 0 0.62-0.147 0.816-0.379l0.002-0.002zM30.666 13.066c-1.315-2.246-3.717-3.73-6.464-3.73s-5.149 1.484-6.445 3.694l-0.019 0.035c-0.090 0.154-0.144 0.338-0.144 0.534 0 0.394 0.214 0.739 0.534 0.924l0.005 0.002c0.138 0.080 0.302 0.13 0.478 0.138h0.002c0.002 0 0.002 0 0.004 0 0.393 0 0.736-0.212 0.921-0.528l0.002-0.005c0.939-1.606 2.655-2.666 4.618-2.666s3.679 1.061 4.605 2.642l0.014 0.025c0.187 0.324 0.532 0.538 0.926 0.538 0.197 0 0.382-0.054 0.54-0.146l-0.005 0.002c0.338-0.183 0.562-0.535 0.562-0.94 0-0.191-0.050-0.371-0.138-0.526l0.002 0.006zM26.294 22.134h-1.066v-3.2c0-0.589-0.478-1.066-1.066-1.066s-1.066 0.478-1.066 1.066v0 3.2h-10.666c-1.767 0-3.2 1.433-3.2 3.2v0 2.134c0 1.767 1.433 3.2 3.2 3.2v0h13.866c1.767 0 3.2-1.433 3.2-3.2v0-2.134c0-1.767-1.433-3.2-3.2-3.2v0zM27.36 27.466c0 0.589-0.478 1.066-1.066 1.066v0h-13.866c-0.589 0-1.066-0.478-1.066-1.066v0-2.134c0-0.589 0.478-1.066 1.066-1.066v0h13.866c0.589 0 1.066 0.478 1.066 1.066v0z"></path>
</svg>
