<!-- Generated by IcoMoon.io -->
<svg version="1.1" xmlns="http://www.w3.org/2000/svg" width="40" height="40" viewBox="0 0 40 40">
<title>ul-wind-sun</title>
<path fill="#fff" d="M18.934 12c0 0 0.001 0 0.001 0 0.589 0 1.066-0.478 1.066-1.066 0 0 0-0.001 0-0.001v0-1.066c0-0.589-0.478-1.066-1.066-1.066s-1.066 0.478-1.066 1.066v0 1.066c0 0 0 0.001 0 0.001 0 0.589 0.478 1.066 1.066 1.066 0 0 0.001 0 0.001 0v0zM11.466 19.466c0 0 0-0.001 0-0.001 0-0.589-0.478-1.066-1.066-1.066 0 0-0.001 0-0.001 0h-1.066c-0.589 0-1.066 0.478-1.066 1.066s0.478 1.066 1.066 1.066v0h1.066c0 0 0.001 0 0.001 0 0.589 0 1.066-0.478 1.066-1.066 0 0 0-0.001 0-0.001v0zM12.145 24.747l-0.754 0.754c-0.193 0.193-0.312 0.46-0.312 0.754 0 0.589 0.478 1.066 1.066 1.066 0.294 0 0.561-0.119 0.754-0.312l0.754-0.754c0.193-0.193 0.312-0.46 0.312-0.754 0-0.589-0.478-1.066-1.066-1.066-0.294 0-0.561 0.119-0.754 0.312v0zM12.145 14.186c0.193 0.193 0.46 0.312 0.754 0.312 0.589 0 1.066-0.478 1.066-1.066 0-0.294-0.119-0.561-0.312-0.754l-0.754-0.754c-0.193-0.193-0.46-0.313-0.754-0.313-0.589 0-1.066 0.478-1.066 1.066 0 0.294 0.119 0.561 0.312 0.754v0zM24.968 14.499c0 0 0.001 0 0.002 0 0.294 0 0.561-0.119 0.753-0.313l0.754-0.754c0.193-0.193 0.312-0.46 0.312-0.754 0-0.589-0.478-1.066-1.066-1.066-0.294 0-0.561 0.119-0.754 0.312l-0.754 0.754c-0.193 0.193-0.312 0.46-0.312 0.754 0 0.589 0.478 1.066 1.066 1.066v0zM21.066 20c0 0 0 0.001 0 0.001 0 0.589 0.478 1.066 1.066 1.066 0 0 0.001 0 0.001 0h5.334c1.766-0.002 3.198-1.434 3.2-3.2v0c0-0.589-0.478-1.066-1.066-1.066s-1.066 0.478-1.066 1.066v0c-0.008 0.586-0.481 1.058-1.066 1.066h-5.334c0 0-0.001 0-0.001 0-0.589 0-1.066 0.478-1.066 1.066 0 0 0 0.001 0 0.001v0zM28.534 23.2h-5.334c-0.589 0-1.066 0.478-1.066 1.066s0.478 1.066 1.066 1.066v0h5.334c0.589 0 1.066 0.478 1.066 1.066s-0.478 1.066-1.066 1.066v0c-0.589 0-1.066 0.478-1.066 1.066s0.478 1.066 1.066 1.066v0c1.767 0 3.2-1.433 3.2-3.2s-1.433-3.2-3.2-3.2v0zM16.8 27.466c-0.589 0-1.066 0.478-1.066 1.066s0.478 1.066 1.066 1.066c0.589 0 1.066-0.478 1.066-1.066v0c0-0.589-0.478-1.066-1.066-1.066v0zM23.2 27.466h-2.134c-0.589 0-1.066 0.478-1.066 1.066s0.478 1.066 1.066 1.066v0h2.134c0.586 0.008 1.058 0.481 1.066 1.066v0.001c0 0.589 0.478 1.066 1.066 1.066s1.066-0.478 1.066-1.066v0c-0.002-1.766-1.434-3.198-3.2-3.2v0zM18.934 23.2c-2.062 0-3.734-1.671-3.734-3.734s1.671-3.734 3.734-3.734v0c0.007 0 0.015 0 0.023 0 0.88 0 1.686 0.312 2.316 0.831l-0.006-0.005c0.182 0.15 0.418 0.242 0.676 0.242 0.589 0 1.066-0.478 1.066-1.066 0-0.333-0.152-0.63-0.39-0.825l-0.002-0.002c-0.985-0.814-2.261-1.307-3.651-1.307-0.011 0-0.022 0-0.034 0h0.002c-3.24 0-5.866 2.626-5.866 5.866s2.626 5.866 5.866 5.866v0c0.589 0 1.066-0.478 1.066-1.066s-0.478-1.066-1.066-1.066v0z"></path>
</svg>
