<!-- Generated by IcoMoon.io -->
<svg version="1.1" xmlns="http://www.w3.org/2000/svg" width="40" height="40" viewBox="0 0 40 40">
<title>ul-weight</title>
<path fill="#fff" d="M27.466 11.466h-1.546c-0.137-0.41-0.336-0.765-0.591-1.072l0.005 0.006c-0.589-0.656-1.439-1.066-2.385-1.066-0.006 0-0.010 0-0.016 0h-5.845c-0.010 0-0.023 0-0.036 0-0.946 0-1.797 0.411-2.382 1.064l-0.002 0.003c-0.258 0.302-0.465 0.656-0.601 1.044l-0.007 0.023h-1.526c-1.767 0-3.2 1.433-3.2 3.2v0 12.8c0 1.767 1.433 3.2 3.2 3.2v0h14.934c1.767 0 3.2-1.433 3.2-3.2v0-12.8c0-1.767-1.433-3.2-3.2-3.2v0zM16.288 11.83c0.196-0.222 0.482-0.362 0.8-0.362h5.824c0.318 0.001 0.604 0.14 0.799 0.362l0.001 0.001c0.17 0.188 0.274 0.438 0.274 0.713 0 0.042-0.002 0.083-0.007 0.124l0.001-0.005-0.534 4.266c-0.066 0.531-0.515 0.938-1.059 0.938-0.002 0-0.006 0-0.008 0h-1.749l1.216-2.56c0.046-0.115 0.074-0.25 0.074-0.39 0-0.589-0.478-1.066-1.066-1.066-0.395 0-0.74 0.215-0.925 0.534l-0.002 0.005-1.664 3.478h-0.64c-0.002 0-0.005 0-0.008 0-0.544 0-0.993-0.407-1.058-0.934l-0.001-0.005-0.534-4.266c-0.004-0.036-0.006-0.077-0.006-0.119 0-0.274 0.104-0.525 0.274-0.714l-0.001 0.001zM28.534 27.466c0 0.589-0.478 1.066-1.066 1.066v0h-14.934c-0.589 0-1.066-0.478-1.066-1.066v0-12.8c0-0.589 0.478-1.066 1.066-1.066v0h1.462l0.448 3.594c0.203 1.59 1.547 2.806 3.175 2.806 0.009 0 0.017 0 0.026 0h4.756c0.007 0 0.016 0 0.025 0 1.628 0 2.973-1.216 3.174-2.79l0.002-0.016 0.406-3.594h1.462c0.589 0 1.066 0.478 1.066 1.066v0zM22.134 24.266h-4.266c-0.589 0-1.066 0.478-1.066 1.066s0.478 1.066 1.066 1.066v0h4.266c0.589 0 1.066-0.478 1.066-1.066s-0.478-1.066-1.066-1.066v0z"></path>
</svg>
