<!-- Generated by IcoMoon.io -->
<svg version="1.1" xmlns="http://www.w3.org/2000/svg" width="40" height="40" viewBox="0 0 40 40">
<title>ul-wifi-slash</title>
<path fill="#fff" d="M14.582 13.078v0l-3.424-3.434c-0.194-0.194-0.462-0.314-0.758-0.314-0.591 0-1.071 0.479-1.071 1.071 0 0.296 0.12 0.563 0.314 0.758v0l2.422 2.442c-1.282 0.737-2.389 1.582-3.373 2.551l0.002-0.002c-0.192 0.193-0.31 0.458-0.31 0.752s0.118 0.559 0.31 0.752v0c0.193 0.197 0.461 0.318 0.757 0.32v0c0.291-0.002 0.555-0.119 0.746-0.31v0c0.99-0.982 2.13-1.818 3.379-2.47l0.077-0.037 1.59 1.642c-1.374 0.61-2.549 1.425-3.541 2.421v0c-0.226 0.197-0.367 0.484-0.367 0.805 0 0.589 0.478 1.066 1.066 1.066 0.326 0 0.618-0.146 0.814-0.377l0.002-0.002c1.006-1.002 2.238-1.777 3.614-2.242l0.066-0.019 1.728 1.718c-1.538 0.303-2.87 1.037-3.904 2.070v0c-0.226 0.197-0.367 0.484-0.367 0.805 0 0.589 0.478 1.066 1.066 1.066 0.326 0 0.618-0.146 0.814-0.377l0.002-0.002c0.959-0.978 2.29-1.587 3.763-1.6h0.002c0.238 0.001 0.47 0.020 0.698 0.057l-0.026-0.003 8.17 8.17c0.194 0.195 0.462 0.315 0.758 0.315s0.564-0.121 0.758-0.315v0c0.195-0.194 0.315-0.462 0.315-0.758s-0.121-0.564-0.315-0.758v0zM20 24.266c-1.767 0-3.2 1.433-3.2 3.2s1.433 3.2 3.2 3.2c1.767 0 3.2-1.433 3.2-3.2v0c0-1.767-1.433-3.2-3.2-3.2v0zM20 28.534c-0.589 0-1.066-0.478-1.066-1.066s0.478-1.066 1.066-1.066c0.589 0 1.066 0.478 1.066 1.066v0c0 0.589-0.478 1.066-1.066 1.066v0zM31.318 16.15c-2.895-2.893-6.893-4.682-11.309-4.682-0.646 0-1.282 0.038-1.908 0.113l0.076-0.007c-0.54 0.061-0.956 0.515-0.956 1.066 0 0.593 0.481 1.073 1.073 1.073 0.042 0 0.082-0.002 0.122-0.007l-0.005 0.001c0.474-0.058 1.024-0.090 1.581-0.090 3.832 0 7.302 1.546 9.822 4.048l-0.001-0.001c0.193 0.191 0.458 0.31 0.752 0.31 0.59 0 1.067-0.478 1.067-1.067 0-0.296-0.121-0.564-0.315-0.758v0zM26.784 20.672c0.186 0.162 0.431 0.262 0.7 0.262 0.589 0 1.066-0.478 1.066-1.066 0-0.263-0.095-0.504-0.253-0.69l0.002 0.002c-1.386-1.402-3.13-2.447-5.082-2.989l-0.081-0.019c-0.114-0.046-0.246-0.072-0.384-0.072-0.589 0-1.066 0.478-1.066 1.066 0 0.529 0.385 0.968 0.89 1.052l0.006 0.001c1.653 0.467 3.070 1.318 4.202 2.453v0z"></path>
</svg>
