<!-- Generated by IcoMoon.io -->
<svg version="1.1" xmlns="http://www.w3.org/2000/svg" width="40" height="40" viewBox="0 0 40 40">
<title>ul-wallet</title>
<path fill="#fff" d="M27.466 14.666h-1.066v-1.066c0-1.767-1.433-3.2-3.2-3.2v0h-10.666c-1.767 0-3.2 1.433-3.2 3.2v0 0 12.8c0 1.767 1.433 3.2 3.2 3.2v0h14.934c1.767 0 3.2-1.433 3.2-3.2v0-8.534c0-1.767-1.433-3.2-3.2-3.2v0zM12.534 12.534h10.666c0.589 0 1.066 0.478 1.066 1.066v0 1.066h-11.734c-0.589 0-1.066-0.478-1.066-1.066s0.478-1.066 1.066-1.066v0zM28.534 23.2h-1.066c-0.589 0-1.066-0.478-1.066-1.066s0.478-1.066 1.066-1.066v0h1.066zM28.534 18.934h-1.066c-1.767 0-3.2 1.433-3.2 3.2s1.433 3.2 3.2 3.2v0h1.066v1.066c0 0.589-0.478 1.066-1.066 1.066v0h-14.934c-0.589 0-1.066-0.478-1.066-1.066v0-9.782c0.316 0.115 0.682 0.182 1.062 0.182 0.002 0 0.003 0 0.005 0h14.933c0.589 0 1.066 0.478 1.066 1.066v0z"></path>
</svg>
