<!-- Generated by IcoMoon.io -->
<svg version="1.1" xmlns="http://www.w3.org/2000/svg" width="40" height="40" viewBox="0 0 40 40">
<title>ul-water-glass</title>
<path fill="#fff" d="M26.486 14.666c-0.026-0.002-0.058-0.004-0.089-0.004-0.56 0-1.020 0.432-1.063 0.982v0.004l-0.374 4.854c-0.51-0.161-0.942-0.446-1.278-0.818l-0.002-0.002c-0.197-0.222-0.482-0.361-0.8-0.361s-0.603 0.139-0.799 0.36l-0.001 0.001c-0.518 0.562-1.258 0.913-2.080 0.913s-1.562-0.35-2.078-0.91l-0.002-0.002c-0.197-0.222-0.482-0.361-0.8-0.361s-0.603 0.139-0.799 0.36l-0.001 0.001c-0.338 0.375-0.77 0.659-1.259 0.816l-0.021 0.006-0.374-4.854c-0.044-0.553-0.503-0.985-1.063-0.985-0.031 0-0.062 0.002-0.093 0.004h0.004c-0.553 0.044-0.985 0.503-0.985 1.063 0 0.031 0.002 0.062 0.004 0.093v-0.004l0.918 11.894c0.131 1.658 1.51 2.954 3.19 2.954 0.003 0 0.006 0 0.010 0h6.719c0.003 0 0.006 0 0.010 0 1.681 0 3.059-1.296 3.19-2.943l0.001-0.011 0.896-11.894c0.002-0.026 0.004-0.058 0.004-0.089 0-0.56-0.432-1.020-0.982-1.063h-0.004zM24.416 27.552c-0.046 0.551-0.504 0.982-1.063 0.982-0.001 0-0.002 0-0.003 0h-6.709c-0.001 0-0.002 0-0.003 0-0.559 0-1.018-0.43-1.063-0.978v-0.004l-0.374-4.886c0.731-0.156 1.376-0.449 1.935-0.853l-0.015 0.010c0.8 0.575 1.8 0.919 2.88 0.919s2.080-0.345 2.895-0.93l-0.015 0.010c0.544 0.394 1.189 0.686 1.886 0.837l0.034 0.006zM20 17.866c1.912-0.006 3.461-1.554 3.466-3.466v-0.001c0-2.934-2.752-4.81-2.87-4.886-0.167-0.114-0.374-0.183-0.598-0.183s-0.43 0.068-0.601 0.186l0.004-0.002c-0.118 0.086-2.87 1.952-2.87 4.886 0.006 1.912 1.554 3.461 3.466 3.466h0.001zM20 11.786c0.749 0.644 1.246 1.563 1.333 2.599l0.001 0.014c0 0.736-0.597 1.334-1.334 1.334s-1.334-0.597-1.334-1.334v0c0.094-1.049 0.589-1.966 1.329-2.61l0.005-0.004z"></path>
</svg>
