<!-- Generated by IcoMoon.io -->
<svg version="1.1" xmlns="http://www.w3.org/2000/svg" width="40" height="40" viewBox="0 0 40 40">
<title>ul-yen</title>
<path fill="#fff" d="M26.986 9.514c-0.165-0.11-0.367-0.175-0.586-0.175-0.368 0-0.693 0.186-0.884 0.47l-0.002 0.004-5.514 8.266-5.514-8.266c-0.197-0.243-0.496-0.398-0.83-0.398-0.589 0-1.066 0.478-1.066 1.066 0 0.185 0.047 0.358 0.13 0.51l-0.003-0.006 5.334 7.946h-3.382c-0.589 0-1.066 0.478-1.066 1.066s0.478 1.066 1.066 1.066v0h4.266v2.134h-4.266c-0.589 0-1.066 0.478-1.066 1.066s0.478 1.066 1.066 1.066v0h4.266v4.266c0 0.589 0.478 1.066 1.066 1.066s1.066-0.478 1.066-1.066v0-4.266h4.266c0.589 0 1.066-0.478 1.066-1.066s-0.478-1.066-1.066-1.066v0h-4.266v-2.134h4.266c0.589 0 1.066-0.478 1.066-1.066s-0.478-1.066-1.066-1.066v0h-3.338l5.334-7.946c0.102-0.161 0.162-0.356 0.162-0.566 0-0.381-0.199-0.714-0.499-0.903l-0.005-0.002z"></path>
</svg>
