<!-- Generated by IcoMoon.io -->
<svg version="1.1" xmlns="http://www.w3.org/2000/svg" width="40" height="40" viewBox="0 0 40 40">
<title>ut-broken-link</title>
<path fill="none" stroke-linejoin="round" stroke-linecap="round" stroke-miterlimit="10" stroke-width="2.2345" stroke="#fff" d="M21.578 22.78c1.843 1.843 4.832 1.843 6.675 0l5.471-5.471c1.843-1.843 1.843-4.832-0.001-6.675-1.842-1.843-4.831-1.843-6.675-0.001"></path>
<path fill="none" stroke-linejoin="round" stroke-linecap="round" stroke-miterlimit="10" stroke-width="2.2345" stroke="#fff" d="M27.050 10.632l-3.902 3.903"></path>
<path fill="none" stroke-linejoin="round" stroke-linecap="round" stroke-miterlimit="10" stroke-width="2.2345" stroke="#fff" d="M18.422 17.219c-1.844-1.843-4.832-1.843-6.676 0.001l-5.471 5.471c-1.843 1.844-1.843 4.832 0 6.676s4.832 1.843 6.675 0.001"></path>
<path fill="none" stroke-linejoin="round" stroke-linecap="round" stroke-miterlimit="10" stroke-width="2.2345" stroke="#fff" d="M16.853 25.463l-3.903 3.904"></path>
<path fill="none" stroke-linejoin="round" stroke-linecap="round" stroke-miterlimit="10" stroke-width="2.2345" stroke="#fff" d="M19.656 9.992l-1.009-2.438"></path>
<path fill="none" stroke-linejoin="round" stroke-linecap="round" stroke-miterlimit="10" stroke-width="2.2345" stroke="#fff" d="M22.684 9.992l1.010-2.438"></path>
<path fill="none" stroke-linejoin="round" stroke-linecap="round" stroke-miterlimit="10" stroke-width="2.2345" stroke="#fff" d="M17.514 12.134l-2.437-1.010"></path>
<path fill="none" stroke-linejoin="round" stroke-linecap="round" stroke-miterlimit="10" stroke-width="2.2345" stroke="#fff" d="M20.345 30.008l1.009 2.438"></path>
<path fill="none" stroke-linejoin="round" stroke-linecap="round" stroke-miterlimit="10" stroke-width="2.2345" stroke="#fff" d="M17.315 30.008l-1.011 2.437"></path>
<path fill="none" stroke-linejoin="round" stroke-linecap="round" stroke-miterlimit="10" stroke-width="2.2345" stroke="#fff" d="M22.485 27.865l2.438 1.011"></path>
</svg>
