<!-- Generated by IcoMoon.io -->
<svg version="1.1" xmlns="http://www.w3.org/2000/svg" width="40" height="40" viewBox="0 0 40 40">
<title>ut-ebook</title>
<path fill="none" stroke-linejoin="round" stroke-linecap="round" stroke-miterlimit="10" stroke-width="2.6307" stroke="#fff" d="M6.46 8.183h23.948v26.765h-23.948v-26.765z"></path>
<path fill="none" stroke-linejoin="round" stroke-linecap="round" stroke-miterlimit="10" stroke-width="2.6307" stroke="#fff" d="M30.409 31.817h3.131v-26.764h-23.947"></path>
<path fill="none" stroke-linejoin="round" stroke-linecap="round" stroke-miterlimit="10" stroke-width="2.6307" stroke="#fff" d="M6.46 8.185v23.632"></path>
<path fill="none" stroke-linejoin="round" stroke-linecap="round" stroke-miterlimit="10" stroke-width="2.6307" stroke="#fff" d="M6.46 8.185c0-1.732 1.402-3.133 3.132-3.133"></path>
<path fill="none" stroke-linejoin="round" stroke-linecap="round" stroke-miterlimit="10" stroke-width="2.6307" stroke="#fff" d="M15.41 26.429c0 1.355-1.097 2.45-2.449 2.45s-2.449-1.095-2.449-2.45c0-1.353 1.097-2.449 2.449-2.449"></path>
<path fill="none" stroke-linejoin="round" stroke-linecap="round" stroke-miterlimit="10" stroke-width="2.6307" stroke="#fff" d="M12.961 23.98h2.449"></path>
<path fill="none" stroke-linejoin="round" stroke-linecap="round" stroke-miterlimit="10" stroke-width="2.6307" stroke="#fff" d="M15.41 19.081v7.347"></path>
<path fill="none" stroke-linejoin="round" stroke-linecap="round" stroke-miterlimit="10" stroke-width="2.6307" stroke="#fff" d="M24.923 26.429c0 1.355-1.098 2.45-2.449 2.45-1.353 0-2.45-1.095-2.45-2.45 0-1.353 1.096-2.449 2.45-2.449"></path>
<path fill="none" stroke-linejoin="round" stroke-linecap="round" stroke-miterlimit="10" stroke-width="2.6307" stroke="#fff" d="M22.474 23.98h2.449"></path>
<path fill="none" stroke-linejoin="round" stroke-linecap="round" stroke-miterlimit="10" stroke-width="2.6307" stroke="#fff" d="M24.923 19.081v7.347"></path>
<path fill="none" stroke-linejoin="round" stroke-linecap="round" stroke-miterlimit="10" stroke-width="2.6307" stroke="#fff" d="M15.41 14.324h9.513v4.758h-9.513v-4.758z"></path>
</svg>
