<!-- Generated by IcoMoon.io -->
<svg version="1.1" xmlns="http://www.w3.org/2000/svg" width="40" height="40" viewBox="0 0 40 40">
<title>ut-pets</title>
<path fill="none" stroke-linejoin="round" stroke-linecap="round" stroke-miterlimit="10" stroke-width="2.6223" stroke="#fff" d="M26.904 34.951c2.301 0 4.007-1.113 4.007-3.415 0-1.164-0.627-2.277-1.963-4.382v0.003c0 0-2.59-4.12-4.706-6.159-1.484-1.425-3.886-1.418-3.886-1.418v0.003h-0.71c0 0-2.301-0.008-3.881 1.414-2.187 1.971-4.71 6.159-4.71 6.159-1.332 2.105-1.965 3.218-1.965 4.384 0 2.298 1.711 3.411 4.008 3.411h13.806z"></path>
<path fill="none" stroke-linejoin="round" stroke-linecap="round" stroke-miterlimit="10" stroke-width="2.6223" stroke="#fff" d="M14.937 14.941c1.754 0 3.173-2.214 3.173-4.947s-1.419-4.946-3.173-4.946c-1.751 0-3.173 2.214-3.173 4.946s1.422 4.947 3.173 4.947v0z"></path>
<path fill="none" stroke-linejoin="round" stroke-linecap="round" stroke-miterlimit="10" stroke-width="2.6223" stroke="#fff" d="M10.142 21.996c1.29-0.6 1.584-2.713 0.656-4.725-0.93-2.014-2.729-3.162-4.022-2.566-1.292 0.598-1.585 2.714-0.659 4.726 0.93 2.013 2.73 3.159 4.025 2.565v0z"></path>
<path fill="none" stroke-linejoin="round" stroke-linecap="round" stroke-miterlimit="10" stroke-width="2.6223" stroke="#fff" d="M25.062 14.941c1.752 0 3.172-2.214 3.172-4.947s-1.42-4.946-3.172-4.946c-1.754 0-3.176 2.214-3.176 4.946s1.422 4.947 3.176 4.947v0z"></path>
<path fill="none" stroke-linejoin="round" stroke-linecap="round" stroke-miterlimit="10" stroke-width="2.6223" stroke="#fff" d="M33.224 14.705c-1.292-0.599-3.090 0.552-4.021 2.566-0.932 2.012-0.635 4.125 0.656 4.725 1.295 0.594 3.094-0.553 4.023-2.565 0.928-2.012 0.634-4.128-0.658-4.726v0z"></path>
</svg>
