<!-- Generated by IcoMoon.io -->
<svg version="1.1" xmlns="http://www.w3.org/2000/svg" width="40" height="40" viewBox="0 0 40 40">
<title>ut-reuse</title>
<path fill="none" stroke-linejoin="round" stroke-linecap="round" stroke-miterlimit="10" stroke-width="2.5854" stroke="#fff" d="M5.888 25.447c-0.824-2.26-1.084-4.76-0.636-7.299 1.062-6.024 5.788-10.482 11.482-11.487"></path>
<path fill="none" stroke-linejoin="round" stroke-linecap="round" stroke-miterlimit="10" stroke-width="2.5854" stroke="#fff" d="M30.038 29.707c-3.145 3.741-8.144 5.75-13.304 4.84-3.412-0.602-6.322-2.38-8.387-4.842"></path>
<path fill="none" stroke-linejoin="round" stroke-linecap="round" stroke-miterlimit="10" stroke-width="2.5854" stroke="#fff" d="M21.651 6.665c7.699 1.357 12.84 8.699 11.483 16.399-0.146 0.826-0.361 1.623-0.637 2.385"></path>
<path fill="none" stroke-linejoin="round" stroke-linecap="round" stroke-miterlimit="10" stroke-width="2.5854" stroke="#fff" d="M8.348 29.71h2.85"></path>
<path fill="none" stroke-linejoin="round" stroke-linecap="round" stroke-miterlimit="10" stroke-width="2.5854" stroke="#fff" d="M8.348 29.71l-0.001 2.85"></path>
<path fill="none" stroke-linejoin="round" stroke-linecap="round" stroke-miterlimit="10" stroke-width="2.5854" stroke="#fff" d="M14.403 5.236l2.469 1.426-1.426 2.469"></path>
<path fill="none" stroke-linejoin="round" stroke-linecap="round" stroke-miterlimit="10" stroke-width="2.5854" stroke="#fff" d="M31.071 23.118l1.425 2.469 2.469-1.426"></path>
</svg>
