<!-- Generated by IcoMoon.io -->
<svg version="1.1" xmlns="http://www.w3.org/2000/svg" width="24" height="24" viewBox="0 0 24 24">
<title>view_agenda</title>
<path fill="#fff" d="M18.413 4.8q0.337 0 0.563 0.225t0.225 0.563v4.8q0 0.338-0.225 0.581t-0.563 0.244h-13.613q-0.338 0-0.563-0.244t-0.225-0.581v-4.8q0-0.337 0.225-0.563t0.563-0.225h13.613zM18.413 12.788q0.337 0 0.563 0.244t0.225 0.581v4.8q0 0.337-0.225 0.563t-0.563 0.225h-13.613q-0.338 0-0.563-0.225t-0.225-0.563v-4.8q0-0.338 0.225-0.581t0.563-0.244h13.613z"></path>
</svg>
