<!-- Generated by IcoMoon.io -->
<svg version="1.1" xmlns="http://www.w3.org/2000/svg" width="24" height="24" viewBox="0 0 24 24">
<title>view_in_ar</title>
<path fill="#fff" d="M16.013 19.987v-1.575h2.4v-2.4h1.575v2.775q0 0.488-0.356 0.844t-0.844 0.356h-2.775zM7.988 19.987h-2.775q-0.488 0-0.844-0.356t-0.356-0.844v-2.775h1.575v2.4h2.4v1.575zM16.013 4.012h2.775q0.487 0 0.844 0.356t0.356 0.844v2.775h-1.575v-2.4h-2.4v-1.575zM7.988 4.012v1.575h-2.4v2.4h-1.575v-2.775q0-0.487 0.356-0.844t0.844-0.356h2.775zM12.788 16.2l3.225-1.838v-3.675l-3.225 1.838v3.675zM12 11.137l3.188-1.838-3.188-1.875-3.188 1.875zM7.988 14.362l3.225 1.838v-3.675l-3.225-1.838v3.675zM16.987 8.475q0.6 0.375 0.6 1.050v5.063q0 0.675-0.6 1.050l-4.387 2.55q-0.6 0.375-1.2 0l-4.388-2.55q-0.6-0.375-0.6-1.050v-5.063q0-0.675 0.6-1.050l4.388-2.55q0.3-0.15 0.6-0.15t0.6 0.15z"></path>
</svg>
