<!-- Generated by IcoMoon.io -->
<svg version="1.1" xmlns="http://www.w3.org/2000/svg" width="24" height="24" viewBox="0 0 24 24">
<title>volunteer_activism</title>
<path fill="#fff" d="M18.413 16.013q0.675 0 1.144 0.469t0.469 1.106l-6.412 2.4-5.625-1.575v-7.2h1.575l5.813 2.138q0.638 0.262 0.638 0.9 0 0.375-0.281 0.656t-0.694 0.281h-2.25l-1.388-0.525-0.262 0.75 1.65 0.6h5.625zM15.188 4.988q0.862-0.975 2.175-0.975 1.088 0 1.856 0.769t0.769 1.856q0 0.825-0.787 1.969t-1.575 1.912-2.438 2.269q-1.65-1.5-2.438-2.269t-1.575-1.912-0.787-1.969q0-1.088 0.787-1.856t1.875-0.769q1.275 0 2.138 0.975zM3.188 11.212h3.225v8.775h-3.225v-8.775z"></path>
</svg>
