<!-- Generated by IcoMoon.io -->
<svg version="1.1" xmlns="http://www.w3.org/2000/svg" width="24" height="24" viewBox="0 0 24 24">
<title>wash</title>
<path fill="#fff" d="M17.212 8.813q0.825 0 1.406-0.6t0.581-1.425q0-0.488-0.3-1.106t-0.694-1.181-0.694-0.938l-0.3-0.375-0.3 0.375t-0.712 0.938-0.713 1.181-0.3 1.106q0 0.825 0.6 1.425t1.425 0.6zM13.2 9.6q0.487 0 0.844-0.356t0.356-0.844q0-0.262-0.188-0.6t-0.413-0.656-0.412-0.525l-0.188-0.206-0.188 0.206t-0.412 0.525-0.413 0.656-0.188 0.6q0 0.488 0.356 0.844t0.844 0.356zM9.712 6.413l-5.775 5.438q-0.75 0.675-0.75 1.725v4.838q0 0.637 0.338 1.181t0.881 0.881 1.181 0.337h11.025q0.413 0 0.694-0.3t0.281-0.713-0.281-0.712-0.694-0.3h-4.612v-0.787h6.188q0.413 0 0.712-0.3t0.3-0.712-0.3-0.694-0.712-0.281h-6.188v-0.825h7.013q0.412 0 0.694-0.281t0.281-0.694-0.281-0.712-0.694-0.3h-7.013v-0.787h5.4q0.413 0 0.712-0.3t0.3-0.712-0.3-0.713-0.712-0.3h-7.912q0.262-0.45 0.544-0.919t0.469-0.806l0.188-0.337q0.113-0.225 0.113-0.45 0-0.3-0.225-0.563l-0.131-0.131t-0.3-0.319-0.3-0.319l-0.131-0.131z"></path>
</svg>
