<!-- Generated by IcoMoon.io -->
<svg version="1.1" xmlns="http://www.w3.org/2000/svg" width="24" height="24" viewBox="0 0 24 24">
<title>wb_auto</title>
<path fill="#fff" d="M10.65 15.188h1.5l-2.55-7.2h-1.613l-2.55 7.2h1.537l0.563-1.575h2.55zM19.987 7.988h1.463l-1.65 7.2h-1.387l-1.2-4.875-1.2 4.875h-1.425l-0.075-0.337q-0.788 1.612-2.325 2.587t-3.375 0.975q-2.663 0-4.537-1.894t-1.875-4.519 1.875-4.519 4.537-1.894q3.075 0 4.987 2.4h0.6l0.975 5.063 1.2-5.063h1.275l1.2 5.063zM7.875 12.525l0.938-2.925 0.9 2.925h-1.837z"></path>
</svg>
