<!-- Generated by IcoMoon.io -->
<svg version="1.1" xmlns="http://www.w3.org/2000/svg" width="32" height="32" viewBox="0 0 32 32">
<title>as-arrow_right-11</title>
<path fill="#fff" d="M18.984 12.456l8.524 8.606c0.503 0.504 1.3 0.147 1.3-0.565v-3.699c0-0.883 0.776-1.598 1.656-1.598h-0.030c0.882 0 1.565 0.715 1.565 1.598v8c0 1.768-1.308 3.202-3.070 3.202h-7.978c-0.881 0-1.717-0.318-1.717-1.202v0.2c0-0.883 0.836-2.198 1.717-2.198h3.901c0.712 0 1.068-0.862 0.565-1.366l-7.56-7.581c-0.622-0.624-1.632-0.626-2.256 0l-0.657 0.659c-1.246 1.25-3.266 1.25-4.514 0l-10.048-9.783c-0.624-0.624-0.295-1.632-0.295-2.256v-0.003c1.596-0.626 1.928-0.627 2.551-0.002l8.773 8.648c0.624 0.626 1.707 0.624 2.331-0.002l0.689-0.656c1.245-1.253 3.305-1.254 4.553-0.003z"></path>
</svg>
