<!-- Generated by IcoMoon.io -->
<svg version="1.1" xmlns="http://www.w3.org/2000/svg" width="32" height="32" viewBox="0 0 32 32">
<title>as-arrow_left_circle-2</title>
<path fill="#fff" d="M28.8 16c0 1.765-1.435 3.2-3.2 3.2s-3.2-1.435-3.2-3.2c0-1.765 1.435-3.2 3.2-3.2s3.2 1.435 3.2 3.2zM19.425 14.4h-14.632l0.678-0.678c0.624-0.624 0.624-1.638-0.002-2.262s-1.638-0.624-2.262 0.003l-2.275 2.282c-1.243 1.246-1.243 3.266 0 4.512l2.274 2.282c0.626 0.627 1.638 0.627 2.264 0.003 0.626-0.626 0.626-1.638 0.002-2.262l-0.678-0.678h14.632c0.834 3.2 4.069 5.459 7.693 4.624 2.302-0.53 4.173-2.397 4.706-4.698 0.97-4.198-2.192-7.926-6.224-7.926-2.979 0-5.461 1.6-6.175 4.8z"></path>
</svg>
