<!-- Generated by IcoMoon.io -->
<svg version="1.1" xmlns="http://www.w3.org/2000/svg" width="32" height="32" viewBox="0 0 32 32">
<title>as-arrow_left-8</title>
<path fill="#fff" d="M13.328 12.458l-8.669 8.606c-0.5 0.504-1.485 0.147-1.485-0.565v-3.699c0-0.883-0.579-1.6-1.455-1.6h-0.067c-0.876 0-1.652 0.717-1.652 1.6v8c0 1.768 1.685 3.2 3.437 3.2h7.934c0.876 0 1.323-0.816 1.323-1.699v-0.051c0-0.883-0.447-1.45-1.323-1.45h-3.88c-0.708 0-1.062-0.862-0.562-1.366l7.518-7.579c0.619-0.626 1.623-0.626 2.244 0l0.654 0.659c1.239 1.25 3.248 1.25 4.489 0l9.7-9.782c0.62-0.624 0.62-1.638 0-2.262-0.619-0.626-1.623-0.626-2.244 0l-8.578 8.649c-0.62 0.626-1.625 0.624-2.245-0.002l-0.649-0.656c-1.238-1.253-3.25-1.254-4.491-0.003z"></path>
</svg>
