<!-- Generated by IcoMoon.io -->
<svg version="1.1" xmlns="http://www.w3.org/2000/svg" width="32" height="32" viewBox="0 0 32 32">
<title>as-arrow_circle-</title>
<path fill="#fff" d="M4.137 8.671c-1.247-1.247-1.247-3.275 0-4.521 1.247-1.247 3.277-1.247 4.522 0 1.247 1.245 1.247 3.274 0 4.521-1.246 1.247-3.275 1.247-4.522 0zM28.807 31.998c1.761-0.003 3.185-1.429 3.189-3.187l0.005-3.219c0.002-0.884-0.723-1.6-1.607-1.602-0.883 0-1.607 0.716-1.607 1.599v0.957l-16.903-16.904c1.682-2.858 0.988-6.73-2.164-8.701-2.001-1.253-4.641-1.255-6.643-0.005-3.652 2.279-4.052 7.147-1.203 9.995 2.106 2.105 5.304 2.396 7.756 0.954l16.911 16.887h-0.958c-0.883 0-1.594 0.737-1.594 1.619v0.008c0 0.882 0.715 1.602 1.599 1.6l3.219-0.002z"></path>
</svg>
