<!-- Generated by IcoMoon.io -->
<svg version="1.1" xmlns="http://www.w3.org/2000/svg" width="13" height="32" viewBox="0 0 13 32">
<title>as-arrow_down_circle-</title>
<path fill="#fff" d="M6.389 3.2c1.765 0 3.2 1.435 3.2 3.2s-1.435 3.2-3.2 3.2c-1.765 0-3.2-1.435-3.2-3.2s1.435-3.2 3.2-3.2zM4.808 12.574v13.315l-1.819-1.81-2.267 2.262 5.654 5.658 0.014-0.016 0.014 0.016 5.656-5.658-2.253-2.262-1.8 1.81v-13.315c2.299-0.275 4.79-2.174 4.79-6.174 0-3.534-2.87-6.4-6.405-6.4s-6.394 2.866-6.394 6.4c0 2.979 1.608 5.461 4.808 6.174z"></path>
</svg>
