<!-- Generated by IcoMoon.io -->
<svg version="1.1" xmlns="http://www.w3.org/2000/svg" width="32" height="32" viewBox="0 0 32 32">
<title>as-arrow_inside-1</title>
<path fill="#fff" d="M30.4 0c-0.883 0-1.6 0.717-1.6 1.6v8h-6.619c-0.712 0-1.069-0.862-0.565-1.366l2.693-2.691c0.624-0.626 0.624-1.638 0-2.262-0.626-0.626-1.638-0.626-2.262 0l-5.659 5.659c-1.25 1.248-1.25 3.274 0 4.522 0.906 0.906 1.096 1.098 5.658 5.659 0.626 0.624 1.638 0.624 2.264-0.002 0.624-0.624 0.624-1.637 0-2.262l-2.69-2.691c-0.504-0.504-0.147-1.365 0.565-1.365h6.616v17.6c0 0.883 0.717 1.6 1.6 1.6s1.6-0.717 1.6-1.6v-28.8c0-0.883-0.717-1.6-1.6-1.6zM9.955 12.88c-0.626-0.624-1.638-0.624-2.264 0-0.624 0.626-0.624 1.638 0 2.264l2.69 2.69c0.504 0.504 0.147 1.366-0.565 1.366h-6.616v-17.6c0-0.883-0.717-1.6-1.6-1.6s-1.6 0.717-1.6 1.6v28.8c0 0.883 0.717 1.6 1.6 1.6s1.6-0.717 1.6-1.6v-8h6.619c0.712 0 1.069 0.862 0.565 1.365l-2.693 2.693c-0.624 0.624-0.624 1.638 0 2.262 0.626 0.624 1.638 0.624 2.262 0l5.659-5.659c1.25-1.25 1.25-3.274 0-4.522-0.597-0.598 0.731 0.73-5.658-5.659z"></path>
</svg>
