<!-- Generated by IcoMoon.io -->
<svg version="1.1" xmlns="http://www.w3.org/2000/svg" width="32" height="32" viewBox="0 0 32 32">
<title>as-arrow_right-4</title>
<path fill="#fff" d="M17.804 0.468c-0.625-0.625-1.637-0.625-2.261 0-0.625 0.625-0.625 1.636 0 2.259l10.295 10.301c0.504 0.503 0.147 1.375-0.564 1.375h-23.649c-0.882 0-1.626 0.703-1.626 1.584v0.006c0 0.882 0.743 1.604 1.626 1.604h23.649c0.711 0 1.068 0.848 0.564 1.351l-10.345 10.331c-0.625 0.623-0.625 1.631 0 2.255v-0.002c0.624 0.623 1.635 0.623 2.261-0.002l13.309-13.297c1.249-1.247 1.249-3.271 0-4.519-0.289-0.287-13.549-13.537-13.259-13.247z"></path>
</svg>
