<!-- Generated by IcoMoon.io -->
<svg version="1.1" xmlns="http://www.w3.org/2000/svg" width="32" height="32" viewBox="0 0 32 32">
<title>as-arrow_right-3</title>
<path fill="#fff" d="M23.685 10.685l2.279 2.374c0.487 0.511 0.123 1.338-0.586 1.338h-24.043c-0.891 0-1.335 0.719-1.335 1.604v-0.013c0 0.884 0.444 1.613 1.335 1.613h24.019c0.712 0 1.075 0.864 0.581 1.371l-2.266 2.336c-0.613 0.638-0.586 1.655 0.065 2.257l0.003 0.006c0.642 0.596 1.649 0.565 2.255-0.069l5.128-5.348c1.18-1.24 1.173-3.179-0.011-4.412l-5.082-5.252c-0.604-0.628-1.603-0.658-2.243-0.067l-0.016 0.016c-0.649 0.598-0.684 1.604-0.081 2.245z"></path>
</svg>
