<!-- Generated by IcoMoon.io -->
<svg version="1.1" xmlns="http://www.w3.org/2000/svg" width="32" height="32" viewBox="0 0 32 32">
<title>as-arrow_right-15</title>
<path fill="#fff" d="M22.714 20.538c-0.447-0.439-1.17-0.439-1.616 0-0.447 0.439-0.447 1.15 0 1.587l2.039 1.974c0.36 0.353-0.286 1.042-0.286 1.042-13.711 0-13.711-18.284 0-18.284 0 0 0.645 0.681 0.286 1.034l-1.98 1.927c-0.447 0.439-0.476 1.168-0.030 1.607 0.446 0.439 1.154 0.448 1.601 0.009l4.032-3.964c0.892-0.876 0.889-2.296-0.003-3.173-0.624-0.611-3.434-3.37-4.041-3.968-0.447-0.438-1.171-0.438-1.617 0.001-0.447 0.438-0.447 1.148-0.001 1.587l1.922 1.793c0.36 0.353 0.105 0.862-0.404 0.862-7.459 0-11.734 4.908-12.273 10.285h-4.628c-0.631 0-1.143 0.525-1.143 1.144 0 0.631 0.512 1.142 1.143 1.142h4.628c0.538 5.362 4.785 10.285 12.273 10.285 0.509 0 0.764 0.501 0.404 0.854l-1.922 1.836c-0.447 0.439-0.447 1.123 0 1.562 0.446 0.438 1.169 0.425 1.616-0.014 0.632-0.622 3.413-3.357 4.040-3.979 0.892-0.876 0.892-2.3 0-3.177l-4.040-3.971z"></path>
</svg>
