<!-- Generated by IcoMoon.io -->
<svg version="1.1" xmlns="http://www.w3.org/2000/svg" width="16" height="32" viewBox="0 0 16 32">
<title>as-bookmark_minus_fill-</title>
<path fill="#fff" d="M11.285 11.2h-6.4c-0.883 0-1.6-0.717-1.6-1.6s0.717-1.6 1.6-1.6h6.4c0.883 0 1.6 0.717 1.6 1.6s-0.717 1.6-1.6 1.6zM12.885 0h-9.6c-1.768 0-3.285 1.432-3.285 3.2v27.197c0 1.426 1.766 2.139 2.773 1.131l4.16-4.138c0.624-0.624 1.648-0.624 2.272 0l4.101 4.138c1.008 1.008 2.694 0.294 2.694-1.131v-27.197c0-1.768-1.347-3.2-3.115-3.2z"></path>
</svg>
