<!-- Generated by IcoMoon.io -->
<svg version="1.1" xmlns="http://www.w3.org/2000/svg" width="32" height="32" viewBox="0 0 32 32">
<title>as-brightness-3</title>
<path fill="#fff" d="M6.949 4.686c0.626 0.626 0.626 1.638 0 2.262-0.312 0.312-0.722 0.469-1.131 0.469s-0.819-0.157-1.131-0.469c-0.626-0.624-0.626-1.637 0-2.262 0.312-0.312 0.722-0.469 1.131-0.469s0.819 0.157 1.131 0.469zM27.314 25.051c0.624 0.624 0.624 1.638 0 2.262-0.312 0.312-0.722 0.469-1.131 0.469s-0.819-0.157-1.131-0.469c-0.626-0.624-0.626-1.638 0-2.262 0.312-0.312 0.722-0.469 1.131-0.469s0.819 0.157 1.131 0.469zM17.6 30.4c0 0.883-0.717 1.6-1.6 1.6s-1.6-0.717-1.6-1.6 0.717-1.6 1.6-1.6c0.883 0 1.6 0.717 1.6 1.6zM14.4 1.6c0-0.883 0.717-1.6 1.6-1.6s1.6 0.717 1.6 1.6-0.717 1.6-1.6 1.6c-0.883 0-1.6-0.717-1.6-1.6zM6.949 25.051c0.626 0.624 0.626 1.638 0 2.262-0.312 0.312-0.722 0.469-1.131 0.469s-0.819-0.157-1.131-0.469c-0.626-0.624-0.626-1.638 0-2.262 0.312-0.312 0.722-0.469 1.131-0.469s0.819 0.157 1.131 0.469zM27.314 4.686c0.624 0.626 0.624 1.638 0 2.262-0.312 0.312-0.722 0.469-1.131 0.469s-0.819-0.157-1.131-0.469c-0.626-0.624-0.626-1.637 0-2.262 0.312-0.312 0.722-0.469 1.131-0.469s0.819 0.157 1.131 0.469zM32 16c0 0.883-0.717 1.6-1.6 1.6s-1.6-0.717-1.6-1.6c0-0.883 0.717-1.6 1.6-1.6s1.6 0.717 1.6 1.6zM3.2 16c0 0.883-0.717 1.6-1.6 1.6s-1.6-0.717-1.6-1.6c0-0.883 0.717-1.6 1.6-1.6s1.6 0.717 1.6 1.6zM16 19.2c-1.765 0-3.2-1.435-3.2-3.2s1.435-3.2 3.2-3.2c1.765 0 3.2 1.435 3.2 3.2s-1.435 3.2-3.2 3.2zM16 9.6c-3.534 0-6.4 2.866-6.4 6.4s2.866 6.4 6.4 6.4c3.534 0 6.4-2.866 6.4-6.4s-2.866-6.4-6.4-6.4z"></path>
</svg>
