<!-- Generated by IcoMoon.io -->
<svg version="1.1" xmlns="http://www.w3.org/2000/svg" width="32" height="32" viewBox="0 0 32 32">
<title>as-book-2</title>
<path fill="#fff" d="M28.8 22.251c0 0.702-0.434 1.326-1.082 1.555l-10.118 3.563v-19.316l9.082-3.198c1.038-0.366 2.118 0.426 2.118 1.555v15.842zM14.4 8.344v19.025l-10.118-3.563c-0.648-0.228-1.082-0.853-1.082-1.555v-15.842c0-1.129 1.080-1.921 2.118-1.555l9.082 3.198v0.291zM27.739 0.989l-11.21 4.043c-0.342 0.123-0.717 0.123-1.059 0l-11.21-4.043c-2.082-0.751-4.261 0.835-4.261 3.101v19.296c0 1.41 0.875 2.664 2.176 3.114l13.312 4.614c0.333 0.115 0.691 0.115 1.024 0l13.312-4.614c1.301-0.45 2.176-1.704 2.176-3.114v-19.296c0-2.266-2.179-3.852-4.261-3.101z"></path>
</svg>
