<!-- Generated by IcoMoon.io -->
<svg version="1.1" xmlns="http://www.w3.org/2000/svg" width="32" height="32" viewBox="0 0 32 32">
<title>as-brightness-2</title>
<path fill="#fff" d="M4.686 4.686c-0.626 0.626-0.626 1.638 0 2.262 0.626 0.626 1.638 0.626 2.262 0 0.626-0.624 0.626-1.637 0-2.262-0.624-0.626-1.637-0.626-2.262 0zM25.051 25.051c-0.626 0.624-0.626 1.638 0 2.262 0.624 0.626 1.638 0.626 2.262 0 0.626-0.624 0.626-1.638 0-2.262-0.624-0.626-1.638-0.626-2.262 0zM16 28.8c-0.883 0-1.6 0.717-1.6 1.6s0.717 1.6 1.6 1.6c0.883 0 1.6-0.717 1.6-1.6s-0.717-1.6-1.6-1.6zM16 3.2c0.883 0 1.6-0.717 1.6-1.6s-0.717-1.6-1.6-1.6c-0.883 0-1.6 0.717-1.6 1.6s0.717 1.6 1.6 1.6zM4.686 25.051c-0.626 0.624-0.626 1.638 0 2.262 0.626 0.626 1.638 0.626 2.262 0 0.626-0.624 0.626-1.638 0-2.262-0.624-0.626-1.637-0.626-2.262 0zM25.051 4.686c-0.626 0.626-0.626 1.638 0 2.262 0.624 0.626 1.638 0.626 2.262 0 0.626-0.624 0.626-1.637 0-2.262-0.624-0.626-1.638-0.626-2.262 0zM30.4 14.4c-0.883 0-1.6 0.717-1.6 1.6s0.717 1.6 1.6 1.6 1.6-0.717 1.6-1.6c0-0.883-0.717-1.6-1.6-1.6zM1.6 14.4c-0.883 0-1.6 0.717-1.6 1.6s0.717 1.6 1.6 1.6 1.6-0.717 1.6-1.6c0-0.883-0.717-1.6-1.6-1.6zM22.4 16c0 3.534-2.866 6.4-6.4 6.4s-6.4-2.866-6.4-6.4c0-3.534 2.866-6.4 6.4-6.4s6.4 2.866 6.4 6.4z"></path>
</svg>
