<!-- Generated by IcoMoon.io -->
<svg version="1.1" xmlns="http://www.w3.org/2000/svg" width="32" height="32" viewBox="0 0 32 32">
<title>as-circular_connectivity-1</title>
<path fill="#fff" d="M28.8 17.6h-3.2v-3.2h3.2v3.2zM24.301 20.8c-0.842 1.451-2.050 2.659-3.501 3.501v-1.901h-9.6v1.901c-1.451-0.842-2.659-2.050-3.501-3.501h1.901v-9.6h-1.901c0.842-1.451 2.050-2.659 3.501-3.501v1.901h9.6v-1.901c1.451 0.842 2.659 1.901 3.501 3.501h-1.901v9.6h1.901zM14.4 28.8h3.2v-3.2h-3.2v3.2zM14.4 6.4h3.2v-3.2h-3.2v3.2zM3.2 17.6h3.2v-3.2h-3.2v3.2zM27.861 11.2c-1.299-3.2-3.854-5.762-7.061-7.061v-4.139h-9.6v4.139c-3.206 1.299-5.762 3.854-7.061 7.061h-4.139v9.6h4.139c1.299 3.206 3.854 5.762 7.061 7.061v4.139h9.6v-4.139c3.206-1.299 5.762-3.854 7.061-7.061h4.139v-9.6h-4.139z"></path>
</svg>
