<!-- Generated by IcoMoon.io -->
<svg version="1.1" xmlns="http://www.w3.org/2000/svg" width="32" height="32" viewBox="0 0 32 32">
<title>as-car-10</title>
<path fill="#fff" d="M28.8 17.6h-0.331c-1.202-1.6-2.435-1.733-4.011-1.6-0.562 0.048-1.616 0.254-2.058 0.698v-2.298h6.4v3.2zM24.915 22.4c-0.883 0-1.6-0.718-1.6-1.6s0.717-1.6 1.6-1.6c0.882 0 1.6 0.718 1.6 1.6s-0.718 1.6-1.6 1.6zM19.2 17.6h-6.731c-0.878-0.974-2.138-1.6-3.554-1.6s-2.677 0.626-3.555 1.6h-2.16v-3.2h16v3.2zM8.915 22.4c-0.883 0-1.6-0.718-1.6-1.6s0.717-1.6 1.6-1.6c0.882 0 1.6 0.718 1.6 1.6s-0.718 1.6-1.6 1.6zM22.4 11.2v-4.8h-3.2v4.8h-16v-4.8h-3.2v14.4h4.115c0 2.651 2.149 4.8 4.8 4.8 2.65 0 4.8-2.149 4.8-4.8h6.4c0 2.651 2.149 4.8 4.8 4.8 2.65 0 4.8-2.149 4.8-4.8h2.285v-9.6h-9.6z"></path>
</svg>
