<!-- Generated by IcoMoon.io -->
<svg version="1.1" xmlns="http://www.w3.org/2000/svg" width="32" height="32" viewBox="0 0 32 32">
<title>as-calendar-</title>
<path fill="#fff" d="M28.754 12.8h-25.559v-4.846c0-0.858 0.695-1.554 1.551-1.554h1.644v3.2h3.195v-3.2h12.78v3.2h3.195v-3.2h1.597c0.882 0 1.597 0.717 1.597 1.6v4.8zM28.754 27.2c0 0.88-0.719 1.6-1.597 1.6h-22.364c-0.882 0-1.597-0.717-1.597-1.6v-11.2h25.559v11.2zM0.102 28.418c0 1.766 1.532 3.582 3.296 3.582h25.559c1.765 0 3.043-1.634 3.043-3.582 0-0.622-0.051-19.842-0.051-20.885 0-3.331-0.449-4.333-6.39-4.333v-3.2h-3.195v3.2h-12.78v-3.2h-3.195v3.2h-3.195c-1.757 0-3.195 1.44-3.195 3.2l0.102 22.018z"></path>
</svg>
