<!-- Generated by IcoMoon.io -->
<svg version="1.1" xmlns="http://www.w3.org/2000/svg" width="32" height="32" viewBox="0 0 32 32">
<title>as-clouds-</title>
<path fill="#fff" d="M23.27 27.2c-0.886 0-1.604 0.717-1.604 1.6s0.719 1.6 1.604 1.6c0.886 0 1.604-0.717 1.604-1.6s-0.719-1.6-1.604-1.6zM16.853 27.2c-0.886 0-1.604 0.717-1.604 1.6s0.719 1.6 1.604 1.6c0.886 0 1.604-0.717 1.604-1.6s-0.719-1.6-1.604-1.6zM10.435 27.2c-0.886 0-1.604 0.717-1.604 1.6s0.719 1.6 1.604 1.6c0.886 0 1.604-0.717 1.604-1.6s-0.719-1.6-1.604-1.6zM18.94 30.392v-0.018c0 0.003-0.040 0.026-0.128 0.026 0.043 0 0.085-0.006 0.128-0.008zM28.595 10.837c-0.732-2.992-3.204-5.371-6.246-5.909-4.064-0.717-8.3 1.898-8.957 5.133-0.217 1.061-0.361 2.104-0.457 2.939-0.091 0.805-0.789 1.4-1.601 1.4-0.911 0-1.641-0.749-1.617-1.656l0.034-1.224c-0.526-0.198-1.089-0.32-1.683-0.32-2.946 0-5.282 2.653-4.733 5.688 0.42 2.326 2.625 3.912 4.995 3.912l12.529-0.008c4.813-0.080 9.012-4.742 7.738-9.955zM32 12.8c0 6.126-4.725 11.096-11.143 11.192 0 0-0.030 0.002-0.046 0.003 0.016 0 0.030 0.005 0.046 0.005h-12.835c-4.43 0-8.022-3.582-8.022-8s3.592-8 8.022-8c0.87 0 1.689 0.173 2.472 0.427 1.707-4.013 5.673-6.827 10.32-6.827 6.203 0 11.186 5.014 11.186 11.2zM20.857 20.774v0.018c-0.043 0.002-0.085 0.008-0.128 0.008 0.088 0 0.128-0.022 0.128-0.026z"></path>
</svg>
