<!-- Generated by IcoMoon.io -->
<svg version="1.1" xmlns="http://www.w3.org/2000/svg" width="32" height="32" viewBox="0 0 32 32">
<title>as-center_object_round-</title>
<path fill="#fff" d="M25.6 3.207v25.587c0 1.771-1.435 3.206-3.206 3.206h-12.787c-1.771 0-3.206-1.435-3.206-3.206v-25.587c0-1.771 1.435-3.206 3.206-3.206h12.787c1.771 0 3.206 1.435 3.206 3.206zM30.4 6.4c-0.883 0-1.6 0.717-1.6 1.6v16c0 0.883 0.717 1.6 1.6 1.6s1.6-0.717 1.6-1.6v-16c0-0.883-0.717-1.6-1.6-1.6zM3.2 8v16c0 0.883-0.717 1.6-1.6 1.6s-1.6-0.717-1.6-1.6v-16c0-0.883 0.717-1.6 1.6-1.6s1.6 0.717 1.6 1.6z"></path>
</svg>
