<!-- Generated by IcoMoon.io -->
<svg version="1.1" xmlns="http://www.w3.org/2000/svg" width="32" height="32" viewBox="0 0 32 32">
<title>as-call-6</title>
<path fill="#fff" d="M20 5h12v-4h-12v4zM29.622 26.502c-0.016 0.046-0.044 0.132-0.076 0.23 0.036-0.11 0.064-0.192 0.076-0.23zM29.462 26.986c0.030-0.090 0.058-0.176 0.084-0.254-0.024 0.072-0.048 0.148-0.086 0.26-0.086 0.264-0.134 0.406-0.156 0.476 0.030-0.090 0.092-0.28 0.156-0.476-0.928 2.814-4.554 4.216-7.146 3.982-3.54-0.318-7.392-2.196-10.316-4.264-4.298-3.040-8.322-7.744-10.67-12.734-1.658-3.526-2.030-7.86 0.438-11.074 0.912-1.19 1.896-1.824 3.38-1.896 2.054-0.1 2.344 1.074 3.048 2.908 0.526 1.368 1.228 2.766 1.62 4.186 0.734 2.652-1.83 2.76-2.154 4.928-0.204 1.366 1.452 3.198 2.202 4.172 1.464 1.906 3.226 3.554 5.214 4.806 1.138 0.716 2.978 2.010 4.282 1.296 2.006-1.098 1.816-4.486 4.626-3.34 1.454 0.594 2.86 1.446 4.25 2.194 2.144 1.154 2.044 2.35 1.228 4.83z"></path>
</svg>
