<!-- Generated by IcoMoon.io -->
<svg version="1.1" xmlns="http://www.w3.org/2000/svg" width="32" height="32" viewBox="0 0 32 32">
<title>as-celcius-</title>
<path fill="#fff" d="M32 30.4c0 0.883-0.718 1.6-1.602 1.6h-14.398c-1.769 0-3.183-1.434-3.183-3.2v-25.6c0-1.768 1.415-3.2 3.183-3.2h14.398c0.884 0 1.602 0.717 1.602 1.6s-0.718 1.6-1.602 1.6h-12.817c-0.884 0-1.56 0.717-1.56 1.6v22.4c0 0.883 0.676 1.6 1.56 1.6h12.817c0.884 0 1.602 0.717 1.602 1.6zM4.765 6.4c-0.884 0-1.602-0.717-1.602-1.6s0.718-1.6 1.602-1.6c0.884 0 1.602 0.717 1.602 1.6s-0.718 1.6-1.602 1.6zM6.408 0h-3.204c-1.769 0-3.204 1.432-3.204 3.2v3.2c0 1.766 1.435 3.2 3.204 3.2h3.204c1.77 0 3.204-1.434 3.204-3.2v-3.2c0-1.768-1.434-3.2-3.204-3.2z"></path>
</svg>
