<!-- Generated by IcoMoon.io -->
<svg version="1.1" xmlns="http://www.w3.org/2000/svg" width="22" height="32" viewBox="0 0 22 32">
<title>as-container-1</title>
<path fill="#fff" d="M14.4 28.8h-6.4c-0.883 0-1.6-0.717-1.6-1.6v-6.4h9.6v6.4c0 0.883-0.717 1.6-1.6 1.6zM16 3.2v14.4h-9.6v-14.4c0-1.768-1.432-3.2-3.2-3.2h-1.6c-0.883 0-1.6 0.717-1.6 1.6s0.717 1.6 1.6 1.6c0.883 0 1.6 0.717 1.6 1.6v24c0 1.768 1.432 3.2 3.2 3.2h9.6c1.768 0 3.2-1.432 3.2-3.2v-24c0-0.883 0.717-1.6 1.6-1.6s1.6-0.717 1.6-1.6c0-0.883-0.717-1.6-1.6-1.6h-1.6c-1.768 0-3.2 1.432-3.2 3.2z"></path>
</svg>
