<!-- Generated by IcoMoon.io -->
<svg version="1.1" xmlns="http://www.w3.org/2000/svg" width="32" height="32" viewBox="0 0 32 32">
<title>as-connection-</title>
<path fill="#fff" d="M25.6 19.2c-1.765 0-3.2-1.435-3.2-3.2s1.435-3.2 3.2-3.2c1.765 0 3.2 1.435 3.2 3.2s-1.435 3.2-3.2 3.2zM16 19.2c-1.765 0-3.2-1.435-3.2-3.2s1.435-3.2 3.2-3.2c1.765 0 3.2 1.435 3.2 3.2s-1.435 3.2-3.2 3.2zM6.4 19.2c-1.765 0-3.2-1.435-3.2-3.2s1.435-3.2 3.2-3.2c1.765 0 3.2 1.435 3.2 3.2s-1.435 3.2-3.2 3.2zM25.6 9.6c-1.923 0-3.627 0.866-4.8 2.208-1.173-1.342-2.877-2.208-4.8-2.208s-3.627 0.866-4.8 2.208c-1.173-1.342-2.877-2.208-4.8-2.208-3.534 0-6.4 2.866-6.4 6.4s2.866 6.4 6.4 6.4c1.923 0 3.627-0.866 4.8-2.208 1.173 1.342 2.877 2.208 4.8 2.208s3.627-0.866 4.8-2.208c1.173 1.342 2.877 2.208 4.8 2.208 3.534 0 6.4-2.866 6.4-6.4s-2.866-6.4-6.4-6.4z"></path>
</svg>
