<!-- Generated by IcoMoon.io -->
<svg version="1.1" xmlns="http://www.w3.org/2000/svg" width="32" height="32" viewBox="0 0 32 32">
<title>as-cloud_up-</title>
<path fill="#fff" d="M22.44 17.605h-0.016c0.624-1.6 0.616-1.969-0.008-2.593l-4.138-4.302c-1.249-1.249-3.276-1.331-4.525-0.082l-4.137 4.093c-0.624 0.625-1.599 1.617 0 2.242v-0.011c0 0.625 1.636 0.619 2.261-0.005l1.17-1.174c0.504-0.504 1.366-0.15 1.366 0.563v14.064c0 0.883 0.844 1.599 1.727 1.599h0.065c0.883 0 1.406-0.716 1.406-1.599v-14.064c0-0.713 0.86-1.070 1.364-0.566l1.172 1.504c0.624 0.624 1.668 0.331 2.293 0.331zM22.408 22.403c-2.116 0-2.112-3.199 0-3.199 1.688 0 2.904 0.114 4.36-0.881 3.863-2.642 1.855-8.87-2.921-8.699-2.132-10.566-18.753-6.991-15.451 3.888-3.348-2.663-7.275 2.497-3.916 4.995 2.402 1.785 6.735-0.657 6.735 2.297 0 2.012-2.283 1.599-4.476 1.599-5.334 0-8.622-5.694-5.568-10.048 1.458-2.079 3.75-2.593 3.75-2.593 1.055-8.178 10.39-12.496 17.304-7.868 2.968 1.988 4.092 4.893 4.092 4.893 8.211 2.495 8.038 15.615-3.909 15.615z"></path>
</svg>
