<!-- Generated by IcoMoon.io -->
<svg version="1.1" xmlns="http://www.w3.org/2000/svg" width="32" height="32" viewBox="0 0 32 32">
<title>as-cloud-</title>
<path fill="#fff" d="M22.7 23.574c-15.899 0-16.923 0.466-18.447-0.662-3.194-2.367 0.536-7.277 3.73-4.744-3.133-10.291 12.686-13.767 14.725-3.693 6.008-0.214 6.484 9.1-0.008 9.1zM25.063 11.781c0 0-1.071-2.759-3.899-4.647-6.587-4.396-15.485-0.296-16.491 7.473-0.008 0.056-0.090 0.059-0.044 0.049-1.451 0.359-2.697 1.232-3.529 2.414-1.699 2.412-1.506 5.938 1.112 8.064 2.426 1.969 3.17 1.48 20.299 1.48 2.008 0 3.909-0.737 5.349-1.972 4.571-3.918 2.862-11.146-2.796-12.86z"></path>
</svg>
