<!-- Generated by IcoMoon.io -->
<svg version="1.1" xmlns="http://www.w3.org/2000/svg" width="35" height="32" viewBox="0 0 35 32">
<title>as-camera_plus-</title>
<path fill="#fff" d="M6.4 25.6h3.2v3.2h-3.2v3.2h-3.2v-3.2h-3.2v-3.2h3.2v-3.2h3.2v3.2zM19.2 24.8c-1.765 0-3.2-1.435-3.2-3.2s1.435-3.2 3.2-3.2c1.765 0 3.2 1.435 3.2 3.2s-1.435 3.2-3.2 3.2zM19.2 15.2c-3.534 0-6.4 2.866-6.4 6.4s2.866 6.4 6.4 6.4c3.534 0 6.4-2.866 6.4-6.4s-2.866-6.4-6.4-6.4zM14.4 6.4h9.6v-3.2h-9.6v3.2zM33.6 6.4v-3.2h-3.2v3.2h-3.2v-6.4h-16v6.4h-8v12.8h3.2v-9.6h25.6v16h-3.2v3.2h6.4v-22.4h-1.6z"></path>
</svg>
