<!-- Generated by IcoMoon.io -->
<svg version="1.1" xmlns="http://www.w3.org/2000/svg" width="32" height="32" viewBox="0 0 32 32">
<title>as-call-5</title>
<path fill="#fff" d="M27.294 3.765v-3.765h-3.765v3.765h-3.765v3.765h3.765v3.765h3.765v-3.765h3.765v-3.765h-3.765zM27.515 23.676c-1.308-0.704-2.632-1.506-4-2.065-2.645-1.079-2.466 2.11-4.354 3.144-1.227 0.672-2.959-0.546-4.030-1.22-1.871-1.178-3.529-2.729-4.907-4.523-0.706-0.917-2.264-2.641-2.072-3.927 0.305-2.040 2.718-2.142 2.027-4.638-0.369-1.336-1.030-2.652-1.525-3.94-0.663-1.726-0.936-2.831-2.869-2.737-1.397 0.068-2.323 0.664-3.181 1.784-2.323 3.025-1.973 7.104-0.412 10.423 2.21 4.696 5.997 9.124 10.042 11.985 2.752 1.946 6.377 3.714 9.709 4.013 2.44 0.22 5.852-1.099 6.726-3.748-0.060 0.184-0.119 0.363-0.147 0.448 0.021-0.066 0.066-0.2 0.147-0.448 0.036-0.105 0.058-0.177 0.081-0.245-0.024 0.073-0.051 0.154-0.079 0.239 0.768-2.334 0.862-3.46-1.156-4.546zM28.75 27.983c0.030-0.092 0.056-0.173 0.072-0.216-0.011 0.036-0.038 0.113-0.072 0.216z"></path>
</svg>
