<!-- Generated by IcoMoon.io -->
<svg version="1.1" xmlns="http://www.w3.org/2000/svg" width="32" height="32" viewBox="0 0 32 32">
<title>as-cart_close_round-</title>
<path fill="#fff" d="M8.158 9.131c0.627 0.626 0.627 1.638 0 2.262-0.627 0.626-1.641 0.626-2.266 0l-1.133-1.131-1.133 1.131c-0.627 0.626-1.641 0.626-2.267 0-0.625-0.624-0.625-1.637 0-2.262l1.133-1.131-1.133-1.131c-0.625-0.626-0.625-1.638 0-2.262 0.627-0.626 1.641-0.626 2.267 0l1.133 1.131 1.133-1.131c0.625-0.626 1.639-0.626 2.266 0 0.627 0.624 0.627 1.637 0 2.262l-1.133 1.131 1.133 1.131zM23.988 28.8c-1.602 0-2.615-2.35 0-3.278 0.877 0.31 1.603 0.621 1.603 1.678 0 0.882-0.72 1.6-1.603 1.6zM4.759 28.8c-0.885 0-1.602-0.718-1.602-1.6 0-1.058 0.724-1.368 1.602-1.678 0.877 0.31 1.602 0.621 1.602 1.678 0 0.882-0.719 1.6-1.602 1.6zM25.646 4.8c0-0.883 0.66-1.6 1.546-1.6h3.205c0.884 0 1.602-0.717 1.602-1.6s-0.718-1.6-1.602-1.6h-4.807c-1.771 0-3.149 1.432-3.149 3.2v16h-16.080c-1.602 0-3.149 1.163-3.149 3.494-1.602 0.76-3.625 2.971-3.139 5.466 0.365 1.883 1.905 3.414 3.795 3.757 3.053 0.555 5.733-1.771 5.733-4.717 0-2.086-1.582-3.845-3.184-4.506v-0.294h16.024v0.294c-1.602 0.76-3.625 2.971-3.139 5.466 0.365 1.883 1.905 3.414 3.795 3.757 3.053 0.555 5.733-1.771 5.733-4.717 0-2.086-1.582-3.845-3.184-4.506v-17.894z"></path>
</svg>
