<!-- Generated by IcoMoon.io -->
<svg version="1.1" xmlns="http://www.w3.org/2000/svg" width="32" height="32" viewBox="0 0 32 32">
<title>as-directory_close-2</title>
<path fill="#fff" d="M7.294 26.555l2.951-2.97c0.544-0.548 0.544-1.434 0-1.98-0.543-0.547-1.423-0.547-1.967 0l-2.951 2.97-2.937-2.956c-0.537-0.54-1.408-0.547-1.953-0.014-0.557 0.545-0.563 1.442-0.014 1.994l2.937 2.956-2.952 2.97c-0.543 0.547-0.543 1.434 0 1.981 0.544 0.546 1.425 0.546 1.967 0l2.952-2.971 3.036 3.055c0.537 0.542 1.407 0.547 1.952 0.015 0.558-0.545 0.563-1.442 0.015-1.995l-3.036-3.055zM32 8.402v17.397c0 1.218-1.241 2.207-2.451 2.207h-13.112c-0.768 0-1.391-0.627-1.391-1.4 0-0.774 0.623-1.4 1.391-1.4h11.13c0.768 0 1.65-0.627 1.65-1.4v-14.596c0-0.447-0.618-0.807-1.060-0.807h-9.482c-1.062 0-2.031-0.609-2.499-1.57l-1.579-3.247c-0.234-0.48-0.719-0.784-1.249-0.784h-5.259c-0.768 0-1.133 0.626-1.133 1.4v11.202c0 0.773-0.622 1.4-1.391 1.4-0.768 0-1.391-0.627-1.391-1.4v-12.602c0-1.54 0.993-2.8 2.524-2.8h7.218c1.055 0 2.017 0.599 2.489 1.547l1.244 2.505c0.472 0.949 1.436 1.549 2.489 1.549h8.821c1.537 0 3.041 1.253 3.041 2.801z"></path>
</svg>
