<!-- Generated by IcoMoon.io -->
<svg version="1.1" xmlns="http://www.w3.org/2000/svg" width="19" height="32" viewBox="0 0 19 32">
<title>as-drink-6</title>
<path fill="#fff" d="M16 16h-12.8v-1.6c0-0.883 0.717-1.6 1.6-1.6h9.6c0.883 0 1.6 0.717 1.6 1.6v1.6zM13.643 28.8h-7.555l-1.922-9.6h11.398l-1.922 9.6zM16 9.6h-4.8v-4.8c0-0.883 0.717-1.6 1.6-1.6s1.6-0.717 1.6-1.6c0-0.883-0.717-1.6-1.6-1.6h-1.6c-1.766 0-3.2 1.432-3.2 3.2v6.4h-4.8c-1.766 0-3.2 1.432-3.2 3.2v3.2c0.97 4.019 0.342 1.15 3.198 14.726 0.155 0.741 0.81 1.274 1.566 1.274h10.176c0.768 0 1.429-0.549 1.573-1.304 2.571-13.549 2.056-10.709 2.686-14.696v-3.2c0-1.768-1.434-3.2-3.2-3.2z"></path>
</svg>
