<!-- Generated by IcoMoon.io -->
<svg version="1.1" xmlns="http://www.w3.org/2000/svg" width="26" height="32" viewBox="0 0 26 32">
<title>as-drink_round-</title>
<path fill="#fff" d="M15.082 28.8h-4.565c-0.789 0-1.461-0.576-1.581-1.357l-0.283-1.843h8.294l-0.285 1.843c-0.12 0.781-0.79 1.357-1.581 1.357zM18.669 14.4l-1.23 8h-9.278l-1.23-8h11.739zM24 11.2h-9.6v-6.4c0-0.883 0.715-1.6 1.6-1.6h3.2c0.883 0 1.6-0.717 1.6-1.6s-0.717-1.6-1.6-1.6h-4.8c-1.768 0-3.2 1.432-3.2 3.2v8h-9.6c-0.885 0-1.6 0.717-1.6 1.6s0.715 1.6 1.6 1.6h2.091l2.291 14.886c0.24 1.562 1.582 2.714 3.163 2.714h7.309c1.579 0 2.923-1.152 3.163-2.714l2.29-14.886h2.093c0.883 0 1.6-0.717 1.6-1.6s-0.717-1.6-1.6-1.6z"></path>
</svg>
