<!-- Generated by IcoMoon.io -->
<svg version="1.1" xmlns="http://www.w3.org/2000/svg" width="26" height="32" viewBox="0 0 26 32">
<title>as-drop-</title>
<path fill="#fff" d="M22.4 19.2c0-5.15-6.883-14.114-9.6-15.834-2.717 1.72-9.6 10.683-9.6 15.834 0 5.293 4.307 9.6 9.6 9.6s9.6-4.307 9.6-9.6zM25.6 19.2c0 7.069-5.731 12.8-12.8 12.8s-12.8-5.731-12.8-12.8c0-7.069 9.6-19.2 12.8-19.2s12.8 12.131 12.8 19.2zM19.2 18.4c0 3.534-2.866 6.4-6.4 6.4s-6.4-2.866-6.4-6.4c0-3.534 4.8-9.6 6.4-9.6s6.4 6.066 6.4 9.6z"></path>
</svg>
