<!-- Generated by IcoMoon.io -->
<svg version="1.1" xmlns="http://www.w3.org/2000/svg" width="32" height="32" viewBox="0 0 32 32">
<title>as-directory_search-</title>
<path fill="#fff" d="M11.391 18.177c0-1.765 1.435-3.2 3.2-3.2s3.2 1.435 3.2 3.2c0 1.765-1.435 3.2-3.2 3.2s-3.2-1.435-3.2-3.2zM20.991 18.177c0-3.534-2.866-6.4-6.4-6.4s-6.4 2.866-6.4 6.4c0 3.534 2.866 6.4 6.4 6.4 1.062 0 2.048-0.283 2.93-0.741l4.026 4.026 2.262-2.262-3.886-3.888c0.672-1.013 1.069-2.227 1.069-3.534zM28.799 27.201c0 0.883-0.395 1.6-1.278 1.6h-22.4c-0.885 0-1.922-0.717-1.922-1.6v-22.4c0-0.885 1.037-1.6 1.922-1.6h6.4c0.883 0 1.278 0.715 1.278 1.6v1.6c0 1.766 1.754 3.2 3.522 3.2h11.2c0.883 0 1.278 0.715 1.278 1.6v16zM29.121 6.401h-11.2c-0.885 0-1.922-0.717-1.922-1.6v-1.6c0-1.768-1.112-3.2-2.878-3.2h-9.6c-1.768 0-3.522 1.432-3.522 3.2v25.6c0 1.766 1.754 3.2 3.522 3.2h25.6c1.766 0 2.878-1.434 2.878-3.2v-19.2c0-1.768-1.112-3.2-2.878-3.2z"></path>
</svg>
