<!-- Generated by IcoMoon.io -->
<svg version="1.1" xmlns="http://www.w3.org/2000/svg" width="32" height="32" viewBox="0 0 32 32">
<title>as-directory_missing-2</title>
<path fill="#fff" d="M30.4 19.201c-0.883 0-1.6 0.717-1.6 1.6s0.717 1.6 1.6 1.6c0.883 0 1.6-0.717 1.6-1.6s-0.717-1.6-1.6-1.6zM30.4 12.801c-0.883 0-1.6 0.717-1.6 1.6s0.717 1.6 1.6 1.6c0.883 0 1.6-0.717 1.6-1.6s-0.717-1.6-1.6-1.6zM1.6 28.801c-0.883 0-1.6 0.717-1.6 1.6s0.717 1.6 1.6 1.6c0.883 0 1.6-0.717 1.6-1.6s-0.717-1.6-1.6-1.6zM28.8 9.601h3.2v-3.2h-3.2v3.2zM1.6 16.001c-0.883 0-1.6 0.717-1.6 1.6s0.717 1.6 1.6 1.6c0.883 0 1.6-0.717 1.6-1.6s-0.717-1.6-1.6-1.6zM1.6 9.601c-0.883 0-1.6 0.717-1.6 1.6s0.717 1.6 1.6 1.6c0.883 0 1.6-0.717 1.6-1.6s-0.717-1.6-1.6-1.6zM1.6 22.401c-0.883 0-1.6 0.717-1.6 1.6s0.717 1.6 1.6 1.6c0.883 0 1.6-0.717 1.6-1.6s-0.717-1.6-1.6-1.6zM14.4 28.801c-0.883 0-1.6 0.717-1.6 1.6s0.717 1.6 1.6 1.6c0.883 0 1.6-0.717 1.6-1.6s-0.717-1.6-1.6-1.6zM8 28.801c-0.883 0-1.6 0.717-1.6 1.6s0.717 1.6 1.6 1.6c0.883 0 1.6-0.717 1.6-1.6s-0.717-1.6-1.6-1.6zM20.8 28.801c-0.883 0-1.6 0.717-1.6 1.6s0.717 1.6 1.6 1.6c0.883 0 1.6-0.717 1.6-1.6s-0.717-1.6-1.6-1.6zM24 6.401c-0.883 0-1.6 0.717-1.6 1.6s0.717 1.6 1.6 1.6c0.883 0 1.6-0.717 1.6-1.6s-0.717-1.6-1.6-1.6zM17.6 6.401h-0.901l-0.699-1.397v2.997c0 0.883 0.717 1.6 1.6 1.6s1.6-0.717 1.6-1.6c0-0.883-0.717-1.6-1.6-1.6zM12.8 1.601c0-0.883-0.717-1.6-1.6-1.6s-1.6 0.717-1.6 1.6c0 0.883 0.717 1.6 1.6 1.6h0.666l0.934 1.909v-3.509zM30.4 25.601c-0.883 0-1.6 0.717-1.6 1.6s-0.717 1.6-1.6 1.6c-0.883 0-1.6 0.717-1.6 1.6s0.717 1.6 1.6 1.6h1.6c1.768 0 3.2-1.434 3.2-3.2v-1.6c0-0.883-0.717-1.6-1.6-1.6zM6.4 1.601c0 0.883-0.717 1.6-1.6 1.6s-1.6 0.717-1.6 1.6c0 0.883-0.717 1.6-1.6 1.6s-1.6-0.717-1.6-1.6v-1.6c0-1.768 1.432-3.2 3.2-3.2h1.6c0.883 0 1.6 0.717 1.6 1.6z"></path>
</svg>
