<!-- Generated by IcoMoon.io -->
<svg version="1.1" xmlns="http://www.w3.org/2000/svg" width="26" height="32" viewBox="0 0 26 32">
<title>as-egg-1</title>
<path fill="#fff" d="M15.679 27.194c-5.43-0.33-8.023-7.069-4.169-10.898 3.846-3.821 10.641-1.256 10.97 4.142-4.408-3.864-10.695 2.369-6.801 6.755zM20.401 25.183c-1.392 1.317-3.574-0.607-2.372-2.124 1.124-1.423 3.94-0.107 2.372 2.124zM3.166 19.223c0-5.2 2.4-11.876 6.77-15.059 4.972-3.617 9.534 4.743 11.023 8.378-4.357-2.544-10.091-1.237-12.913 2.912-2.834 4.166-1.856 9.964 2.167 13.011-4.059-1.142-7.048-4.847-7.048-9.241zM24.453 12.652c-1.753-4.969-5.899-12.652-12.113-12.652-5.477 0-8.951 6.337-10.623 10.707-2.042 5.334-2.835 11.503 0.892 16.319 4.1 5.297 11.866 6.574 17.451 2.81 5.904-3.976 6.583-10.978 4.393-17.184z"></path>
</svg>
