<!-- Generated by IcoMoon.io -->
<svg version="1.1" xmlns="http://www.w3.org/2000/svg" width="32" height="32" viewBox="0 0 32 32">
<title>as-emoji_sad-11</title>
<path fill="#fff" d="M25.6 11.2v3.2c0 0.883-0.717 1.6-1.6 1.6h-3.2c-0.88 0-1.6-0.72-1.6-1.6v-3.2c0-0.883 0.717-1.6 1.6-1.6h3.2c0.883 0 1.6 0.717 1.6 1.6zM11.2 16h-3.2c-0.88 0-1.6-0.72-1.6-1.6v-3.2c0-0.883 0.717-1.6 1.6-1.6h3.2c0.883 0 1.6 0.717 1.6 1.6v3.2c0 0.883-0.717 1.6-1.6 1.6zM23.829 23.587c0.187 0.958-0.608 2.013-1.586 2.013h-12.486c-0.978 0-1.773-1.234-1.586-2.192 1.611-8.219 14.046-8.042 15.658 0.179zM28.8 5.765v9.571c0 7.058-5.742 13.464-12.8 13.464s-12.8-6.406-12.8-13.464v-11.2c0-0.883 0.717-0.936 1.6-0.936h22.4c0.883 0 1.6 0.053 1.6 0.936v1.629zM28.8 0h-25.6c-1.768 0-3.2 0.768-3.2 2.536v12.8c0 3.594 1.2 6.899 3.2 9.571 0.918 1.226 2.005 2.31 3.229 3.229 2.672 2 5.978 3.864 9.571 3.864s6.899-1.864 9.571-3.864c1.224-0.918 2.31-2.005 3.229-3.229 2-2.672 3.2-5.978 3.2-9.571v-12.8c0-1.768-1.432-2.536-3.2-2.536z"></path>
</svg>
