<!-- Generated by IcoMoon.io -->
<svg version="1.1" xmlns="http://www.w3.org/2000/svg" width="32" height="32" viewBox="0 0 32 32">
<title>as-exclude_round-</title>
<path fill="#fff" d="M20.8 22.4h-9.6c-0.883 0-1.6-0.717-1.6-1.6v-9.6c0-0.883 0.717-1.6 1.6-1.6h9.6c0.883 0 1.6 0.717 1.6 1.6v9.6c0 0.883-0.717 1.6-1.6 1.6zM28.8 0h-19.2c-1.768 0-3.2 1.432-3.2 3.2s-1.432 3.2-3.2 3.2c-1.768 0-3.2 1.432-3.2 3.2v19.2c0 1.768 1.432 3.2 3.2 3.2h19.2c1.768 0 3.2-1.432 3.2-3.2s1.432-3.2 3.2-3.2c1.768 0 3.2-1.432 3.2-3.2v-19.2c0-1.768-1.432-3.2-3.2-3.2z"></path>
</svg>
