<!-- Generated by IcoMoon.io -->
<svg version="1.1" xmlns="http://www.w3.org/2000/svg" width="32" height="32" viewBox="0 0 32 32">
<title>as-emoji_happy_missing-3</title>
<path fill="#fff" d="M28.8 22.4h3.2v-12.8h-3.2v12.8zM27.2 28.8h-1.6v3.2h3.2c1.768 0 3.2-1.432 3.2-3.2v-3.2h-3.2v1.6c0 0.883-0.717 1.6-1.6 1.6zM25.6 0v3.2h1.6c0.883 0 1.6 0.717 1.6 1.6v1.6h3.2v-3.2c0-1.768-1.432-3.2-3.2-3.2h-3.2zM0 22.4h3.2v-12.8h-3.2v12.8zM3.2 25.6h-3.2v3.2c0 1.768 1.432 3.2 3.2 3.2h3.2v-3.2h-1.6c-0.883 0-1.6-0.717-1.6-1.6v-1.6zM4.8 3.2h1.6v-3.2h-3.2c-1.768 0-3.2 1.432-3.2 3.2v3.2h3.2v-1.6c0-0.883 0.717-1.6 1.6-1.6zM9.6 32h12.8v-3.2h-12.8v3.2zM9.6 3.2h12.8v-3.2h-12.8v3.2zM20.8 14.4h3.2c0.883 0 1.6-0.717 1.6-1.6v-3.2c0-0.883-0.717-1.6-1.6-1.6h-3.2c-0.883 0-1.6 0.717-1.6 1.6v3.2c0 0.883 0.717 1.6 1.6 1.6zM11.2 8h-3.2c-0.883 0-1.6 0.717-1.6 1.6v3.2c0 0.883 0.717 1.6 1.6 1.6h3.2c0.883 0 1.6-0.717 1.6-1.6v-3.2c0-0.883-0.717-1.6-1.6-1.6zM8.267 16h16c0 11.2-16 11.2-16 0z"></path>
</svg>
