<!-- Generated by IcoMoon.io -->
<svg version="1.1" xmlns="http://www.w3.org/2000/svg" width="32" height="32" viewBox="0 0 32 32">
<title>as-emoji_sad-1</title>
<path fill="#fff" d="M24 9.6c0.883 0 1.6 0.717 1.6 1.6v3.2c0 0.883-0.717 1.6-1.6 1.6h-3.2c-0.88 0-1.6-0.72-1.6-1.6v-3.2c0-0.883 0.717-1.6 1.6-1.6h3.2zM6.4 14.4v-3.2c0-0.883 0.717-1.6 1.6-1.6h3.2c0.883 0 1.6 0.717 1.6 1.6v3.2c0 0.883-0.717 1.6-1.6 1.6h-3.2c-0.88 0-1.6-0.72-1.6-1.6zM6.4 24v-1.6c0-1.768 1.432-3.2 3.2-3.2h12.8c1.768 0 3.2 1.432 3.2 3.2v1.6c0 0.883-0.717 1.434-1.6 1.434s-1.6-0.55-1.6-1.434c0-0.883-0.717-1.6-1.6-1.6h-9.6c-0.883 0-1.6 0.717-1.6 1.6s-0.717 1.766-1.6 1.766c-0.883 0-1.6-0.883-1.6-1.766zM28.8 26.549c0 0.883-0.717 2.251-1.6 2.251h-22.4c-0.883 0-1.6-1.368-1.6-2.251v-11.2c0-7.059 5.742-12.149 12.8-12.149s12.8 5.090 12.8 12.149v11.2zM28.8 5.778c-3.371-4.501-7.288-5.778-12.8-5.778-11.315 0-16 8.403-16 15.349v12.8c0 1.766 1.432 3.851 3.2 3.851h25.6c1.768 0 3.2-2.085 3.2-3.851v-12.8c0-3.595-1.2-6.901-3.2-9.571z"></path>
</svg>
