<!-- Generated by IcoMoon.io -->
<svg version="1.1" xmlns="http://www.w3.org/2000/svg" width="32" height="32" viewBox="0 0 32 32">
<title>as-emoji_minecraft-1</title>
<path fill="#fff" d="M28.8 26.536c0 1.245-1.019 2.264-2.264 2.264h-4.136v-8.746c0-0.883-0.749-1.509-1.632-1.518-0.869-0.010-1.568-0.395-1.568-1.267l1.6-1.269h3.2c0.883 0 1.6-0.717 1.6-1.6v-3.2c0-0.883-0.717-1.6-1.6-1.6h-3.2c-0.883 0-1.6 0.717-1.6 1.6v2.536l-1.6 2.264h-3.2l-1.6-2.264v-2.536c0-0.883-0.717-1.6-1.6-1.6h-3.2c-0.883 0-1.6 0.717-1.6 1.6v3.2c0 0.88 0.72 1.6 1.6 1.6h3.2l1.6 1.269c0 0.917-0.771 1.474-1.701 1.43-0.822-0.038-1.499 0.613-1.499 1.437v8.664h-4.8c-0.883 0-1.6-0.717-1.6-1.6v-23.064c0-0.517 0.419-0.936 0.936-0.936h23.064c0.883 0 1.6 0.717 1.6 1.6v21.736zM19.2 28.8h-6.4v-2.264c0-0.883 0.717-0.936 1.6-0.936h3.2c0.883 0 1.6 0.053 1.6 0.936v2.264zM32 3.2c0-1.768-1.432-3.2-3.2-3.2h-25.6c-1.768 0-3.2 1.432-3.2 3.2v25.6c0 1.768 1.432 3.2 3.2 3.2h25.6c1.768 0 3.2-1.432 3.2-3.2v-25.6z"></path>
</svg>
