<!-- Generated by IcoMoon.io -->
<svg version="1.1" xmlns="http://www.w3.org/2000/svg" width="32" height="32" viewBox="0 0 32 32">
<title>as-exit_focus_round-</title>
<path fill="#fff" d="M19.2 17.6v-3.2c0-0.883-0.717-1.6-1.6-1.6h-3.2c-0.883 0-1.6 0.717-1.6 1.6v3.2c0 0.883 0.717 1.6 1.6 1.6h3.2c0.883 0 1.6-0.717 1.6-1.6zM19.2 9.6c1.768 0 3.2 1.432 3.2 3.2v6.4c0 1.768-1.432 3.2-3.2 3.2h-6.4c-1.768 0-3.2-1.432-3.2-3.2v-6.4c0-1.768 1.432-3.2 3.2-3.2h6.4zM0 24v3.2h3.2c0.883 0 1.6 0.717 1.6 1.6v3.2h3.2v-4.8c0-1.768-1.432-3.2-3.2-3.2h-4.8zM3.2 4.8h-3.2v3.2h4.8c1.768 0 3.2-1.432 3.2-3.2v-4.8h-3.2v3.2c0 0.883-0.717 1.6-1.6 1.6zM27.2 3.2v-3.2h-3.2v4.8c0 1.768 1.432 3.2 3.2 3.2h4.8v-3.2h-3.2c-0.883 0-1.6-0.717-1.6-1.6zM27.2 24h4.8v3.2h-3.2c-0.883 0-1.6 0.717-1.6 1.6v3.2h-3.2v-4.8c0-1.768 1.432-3.2 3.2-3.2z"></path>
</svg>
