<!-- Generated by IcoMoon.io -->
<svg version="1.1" xmlns="http://www.w3.org/2000/svg" width="32" height="32" viewBox="0 0 32 32">
<title>as-emoji_tongue_sticking_out-1</title>
<path fill="#fff" d="M25.6 20.55c0 0.883-0.717 1.35-1.6 1.35s-1.6 0.883-1.6 1.766c0 0.883-0.717 1.933-1.6 1.933h-3.2c-0.883 0-1.6-0.717-1.6-1.6 0-0.885-0.717-1.6-1.6-1.6h-6.4c-0.883 0-1.6-0.717-1.6-1.6 0-0.885 0.717-1.6 1.6-1.6h16c0.883 0 1.6 0.467 1.6 1.35zM24 9.6c0.883 0 1.6 0.715 1.6 1.6v3.2c0 0.883-0.717 1.6-1.6 1.6h-3.2c-0.88 0-1.6-0.72-1.6-1.6v-3.2c0-0.885 0.717-1.6 1.6-1.6h3.2zM6.4 14.4v-3.2c0-0.885 0.717-1.6 1.6-1.6h3.2c0.883 0 1.6 0.715 1.6 1.6v3.2c0 0.883-0.717 1.6-1.6 1.6h-3.2c-0.88 0-1.6-0.72-1.6-1.6zM28.8 26.56c0 0.883-0.717 2.24-1.6 2.24h-22.4c-0.883 0-1.6-1.357-1.6-2.24v-11.2c0-7.059 5.742-12.16 12.8-12.16s12.8 5.101 12.8 12.16v11.2zM25.571 2.56c-2.672-2.002-5.978-2.56-9.571-2.56-11.315 0-16 8.429-16 15.36v12.8c0 1.766 1.432 3.84 3.2 3.84h25.6c1.768 0 3.2-2.074 3.2-3.84v-12.8c0-5.13-2.469-9.834-6.429-12.8z"></path>
</svg>
