<!-- Generated by IcoMoon.io -->
<svg version="1.1" xmlns="http://www.w3.org/2000/svg" width="32" height="32" viewBox="0 0 32 32">
<title>as-emoji_sad-4</title>
<path fill="#fff" d="M24 9.6c0.883 0 1.6 0.717 1.6 1.6s-0.717 1.6-1.6 1.6h-3.2c-0.883 0-1.6-0.717-1.6-1.6s0.717-1.6 1.6-1.6h3.2zM8 12.8c-0.883 0-1.6-0.717-1.6-1.6s0.717-1.6 1.6-1.6h3.2c0.883 0 1.6 0.717 1.6 1.6s-0.717 1.6-1.6 1.6h-3.2zM24 25.6h-16c0-11.2 16-11.2 16 0zM28.8 26.56c0 0.883-0.717 2.24-1.6 2.24h-22.4c-0.883 0-1.6-1.357-1.6-2.24v-11.2c0-7.058 5.742-12.16 12.8-12.16s12.8 5.102 12.8 12.16v11.2zM25.571 2.56c-2.672-2-5.978-2.56-9.571-2.56-5.589 0-9.474 1.347-12.8 5.789-2 2.672-3.2 5.978-3.2 9.571v12.8c0 1.768 1.432 3.84 3.2 3.84h25.6c1.768 0 3.2-2.072 3.2-3.84v-12.8c0-5.128-2.469-9.834-6.429-12.8z"></path>
</svg>
