<!-- Generated by IcoMoon.io -->
<svg version="1.1" xmlns="http://www.w3.org/2000/svg" width="32" height="32" viewBox="0 0 32 32">
<title>as-file_text_data-1</title>
<path fill="#fff" d="M25.6 24.001c0 0.883-0.717 1.6-1.6 1.6h-16c-0.883 0-1.6-0.717-1.6-1.6s0.717-1.6 1.6-1.6h16c0.883 0 1.6 0.717 1.6 1.6zM8 16.001h16c0.883 0 1.6 0.717 1.6 1.6s-0.717 1.6-1.6 1.6h-16c-0.883 0-1.6-0.717-1.6-1.6s0.717-1.6 1.6-1.6zM28.8 27.201c0 0.883-0.717 1.6-1.6 1.6h-22.4c-0.883 0-1.6-0.717-1.6-1.6v-22.4c0-0.883 0.717-1.6 1.6-1.6h14.4v6.4c0 1.766 1.432 3.2 3.2 3.2h6.4v14.4zM31.531 9.132l-8.662-8.662c-0.301-0.301-0.707-0.469-1.131-0.469h-18.538c-1.768 0-3.2 1.432-3.2 3.2v25.6c0 1.766 1.432 3.2 3.2 3.2h25.6c1.768 0 3.2-1.434 3.2-3.2v-18.538c0-0.424-0.168-0.83-0.469-1.131z"></path>
</svg>
