<!-- Generated by IcoMoon.io -->
<svg version="1.1" xmlns="http://www.w3.org/2000/svg" width="32" height="32" viewBox="0 0 32 32">
<title>as-file_ai-</title>
<path fill="#fff" d="M24 30.285c0 0.008 0.005 0.013 0.005 0.021 0 0.006-0.005 0.013-0.005 0.021v-0.041zM32 9.695v19.123c0 1.759-1.432 3.018-3.2 3.018h-3.2c-0.877 0-1.584-0.662-1.595-1.53 0.011-0.871 0.718-1.654 1.595-1.654h1.6c0.883 0 1.6-0.546 1.6-1.426v-14.491h-8c-0.883 0-1.6-0.546-1.6-1.426v-8.124h-14.4c-0.883 0-1.6 0.879-1.6 1.757v9.55c0 0.88-0.717 1.592-1.6 1.592s-1.6-0.711-1.6-1.592v-11.142c0-1.757 1.432-3.349 3.2-3.349h18.542c0.402 0 0.789 0.234 1.083 0.505l8.659 7.976c0.328 0.302 0.515 0.767 0.515 1.213zM20.8 20.735v0.041c0 0.879-0.717 1.509-1.6 1.509h-1.6v6.367h1.6c0.883 0 1.6 0.754 1.6 1.633v0.041c0 0.879-0.717 1.509-1.6 1.509h-6.4c-0.877 0-1.584-0.662-1.595-1.53 0.011-0.871 0.718-1.654 1.595-1.654h1.6v-6.367h-1.6c-0.877 0-1.584-0.662-1.595-1.53 0.011-0.871 0.718-1.654 1.595-1.654h6.4c0.883 0 1.6 0.755 1.6 1.633zM11.2 20.735c0 0.008 0.005 0.013 0.005 0.021 0 0.006-0.005 0.013-0.005 0.021v-0.041zM11.2 30.285c0 0.008 0.005 0.013 0.005 0.021 0 0.006-0.005 0.013-0.005 0.021v-0.041zM6.4 25.634h-3.2v-2.388c0-0.439 0.358-0.796 0.8-0.796h1.6c0.442 0 0.8 0.357 0.8 0.796v2.388zM8 19.102h-6.4c-0.883 0-1.6 0.879-1.6 1.757v9.55c0 0.88 0.717 1.592 1.6 1.592s1.6-0.712 1.6-1.592v-1.757h3.2v1.757c0 0.88 0.717 1.592 1.6 1.592s1.6-0.712 1.6-1.592v-9.55c0-0.879-0.717-1.757-1.6-1.757z"></path>
</svg>
