<!-- Generated by IcoMoon.io -->
<svg version="1.1" xmlns="http://www.w3.org/2000/svg" width="32" height="32" viewBox="0 0 32 32">
<title>as-file_information-</title>
<path fill="#fff" d="M15.84 12.801c-0.883 0-1.6 0.717-1.6 1.6s0.717 1.6 1.6 1.6c0.883 0 1.6-0.717 1.6-1.6s-0.717-1.6-1.6-1.6zM28.8 12.801h-6.595c-1.746 0-3.005-1.416-3.005-3.162v-6.438h-14.557c-0.883 0-1.443 0.717-1.443 1.6v22.4c0 0.883 0.56 1.6 1.443 1.6h9.757v-8c0-0.87 0.771-1.571 1.638-1.592 0.866 0.021 1.562 0.722 1.562 1.592v8h9.443c0.885 0 1.757-0.717 1.757-1.6v-14.4zM32 10.226v18.613c0 1.746-1.571 3.162-3.318 3.162h-25.677c-1.746 0-3.005-1.416-3.005-3.162v-25.638c0-1.6 1.259-3.2 3.005-3.2h18.578c0.424 0 0.829 0.168 1.13 0.467l8.739 8.626c0.301 0.299 0.549 0.707 0.549 1.133zM16.078 19.201c-0.014 0-0.026 0.008-0.040 0.008-0.013 0-0.024-0.008-0.038-0.008h0.078z"></path>
</svg>
