<!-- Generated by IcoMoon.io -->
<svg version="1.1" xmlns="http://www.w3.org/2000/svg" width="32" height="32" viewBox="0 0 32 32">
<title>as-file_gif-</title>
<path fill="#fff" d="M31.56 9.787l-8.72-9.208c-0.302-0.317-0.722-0.578-1.16-0.578h-18.48c-1.766 0-3.2 1.592-3.2 3.349v11.142c0 0.879 0.717 1.592 1.6 1.592 0.885 0 1.6-0.713 1.6-1.592v-9.55c0-0.879 0.717-1.757 1.6-1.757h14.4v6.532c0 1.759 1.434 3.018 3.2 3.018h6.4v1.757c0 0.879 0.717 1.592 1.6 1.592 0.885 0 1.6-0.713 1.6-1.592v-3.608c0-0.409-0.157-0.801-0.44-1.097zM30.4 19.102h-6.4c-0.883 0-1.6 0.879-1.6 1.757v9.55c0 0.879 0.717 1.592 1.6 1.592 0.885 0 1.6-0.713 1.6-1.592v-1.757h4.8c0.885 0 1.6-0.63 1.6-1.509v-0.041c0-0.88-0.715-1.633-1.6-1.633h-4.8v-3.183h4.8c0.885 0 1.6-0.63 1.6-1.509v-0.041c0-0.88-0.715-1.633-1.6-1.633zM8 19.102h-1.6c-3.742 0-6.733 3.195-6.37 6.991 0.317 3.311 3.302 5.743 6.645 5.743h1.325c0.885 0 1.6-0.548 1.6-1.426v-3.183c0-0.879-0.715-1.592-1.6-1.592-0.883 0-1.6 0.713-1.6 1.592v1.592c-1.942 0-3.482-1.807-3.155-3.801 0.256-1.565 1.733-2.731 3.326-2.731h1.429c0.885 0 1.6-0.63 1.6-1.509v-0.041c0-0.88-0.715-1.633-1.6-1.633zM11.2 20.777c0-0.008 0.005-0.014 0.005-0.021 0-0.008-0.005-0.014-0.005-0.021v0.041zM11.2 30.327c0-0.008 0.005-0.014 0.005-0.021 0-0.008-0.005-0.014-0.005-0.021v0.041zM20.8 20.735v0.041c0 0.879-0.715 1.509-1.6 1.509h-1.6v6.367h1.6c0.885 0 1.6 0.753 1.6 1.633v0.041c0 0.879-0.715 1.509-1.6 1.509h-6.4c-0.875 0-1.584-0.662-1.595-1.53 0.011-0.871 0.72-1.654 1.595-1.654h1.6v-6.367h-1.6c-0.875 0-1.584-0.662-1.595-1.53 0.011-0.871 0.72-1.654 1.595-1.654h6.4c0.885 0 1.6 0.753 1.6 1.633z"></path>
</svg>
