<!-- Generated by IcoMoon.io -->
<svg version="1.1" xmlns="http://www.w3.org/2000/svg" width="32" height="32" viewBox="0 0 32 32">
<title>as-file_missing-2</title>
<path fill="#fff" d="M29.091 17.607h2.909v-2.909h-2.909v2.909zM17.455 29.244h2.909v-2.909h-2.909v2.909zM23.273 29.244h2.909v-2.909h-2.909v2.909zM29.091 29.244h2.909v-2.909h-2.909v2.909zM5.818 23.273h-2.909v2.909h-2.909v2.909h2.909v2.909h2.909v-2.909h2.909v-2.909h-2.909v-2.909zM2.909 3.062h2.909v-2.909h-2.909v2.909zM29.091 23.425h2.909v-2.909h-2.909v2.909zM8.727 3.062h2.909v-2.909h-2.909v2.909zM14.545 3.062h2.909v-2.909h-2.909v2.909zM2.909 8.88h2.909v-2.909h-2.909v2.909zM2.909 20.516h2.909v-2.909h-2.909v2.909zM11.636 29.244h2.909v-2.909h-2.909v2.909zM23.273 0h-2.909v11.636h11.636v-2.756l-8.727-8.88zM2.909 14.698h2.909v-2.909h-2.909v2.909z"></path>
</svg>
