<!-- Generated by IcoMoon.io -->
<svg version="1.1" xmlns="http://www.w3.org/2000/svg" width="32" height="32" viewBox="0 0 32 32">
<title>as-folder_minus-1</title>
<path fill="#fff" d="M20.534 19.201c0 0.883-0.717 1.6-1.6 1.6h-6.4c-0.883 0-1.6-0.717-1.6-1.6s0.717-1.6 1.6-1.6h6.4c0.883 0 1.6 0.717 1.6 1.6zM28.801 27.201c0 0.883-0.984 1.6-1.867 1.6h-22.4c-0.883 0-1.333-0.717-1.333-1.6v-22.4c0-0.883 0.45-1.6 1.333-1.6h6.4c0.883 0 1.867 0.717 1.867 1.6v1.6c0 1.768 1.165 3.2 2.933 3.2h11.2c0.883 0 1.867 0.717 1.867 1.6v16zM28.534 6.401h-11.2c-0.883 0-1.333-0.717-1.333-1.6v-1.6c0-1.768-1.699-3.2-3.467-3.2h-9.6c-1.768 0-2.933 1.432-2.933 3.2v25.6c0 1.768 1.165 3.2 2.933 3.2h25.6c1.768 0 3.467-1.432 3.467-3.2v-19.2c0-1.768-1.699-3.2-3.467-3.2z"></path>
</svg>
