<!-- Generated by IcoMoon.io -->
<svg version="1.1" xmlns="http://www.w3.org/2000/svg" width="32" height="32" viewBox="0 0 32 32">
<title>as-file_missing-</title>
<path fill="#fff" d="M29.724 16.758c-0.836 0-1.514 0.682-1.514 1.523s0.678 1.523 1.514 1.523c0.836 0 1.514-0.683 1.514-1.523s-0.678-1.523-1.514-1.523zM17.611 28.944c-0.836 0-1.514 0.682-1.514 1.523s0.678 1.523 1.514 1.523 1.514-0.682 1.514-1.523c0-0.841-0.678-1.523-1.514-1.523zM23.668 28.944c-0.836 0-1.514 0.682-1.514 1.523s0.678 1.523 1.514 1.523 1.514-0.682 1.514-1.523c0-0.841-0.678-1.523-1.514-1.523zM29.724 28.944c-0.836 0-1.514 0.682-1.514 1.523s0.678 1.523 1.514 1.523c0.836 0 1.514-0.682 1.514-1.523s-0.678-1.523-1.514-1.523zM5.497 28.944c-0.836 0-1.514-0.683-1.514-1.523s-0.678-1.523-1.514-1.523h-0.097c-0.836 0-1.61 0.683-1.61 1.523v1.523h0.095c0 1.523 1.405 3.047 3.077 3.047h1.563c0.836 0 1.514-0.682 1.514-1.523s-0.678-1.523-1.514-1.523zM2.469 4.571c0.836 0 1.514-0.682 1.514-1.523s-0.678-1.523-1.514-1.523c-0.836 0-1.514 0.682-1.514 1.523s0.678 1.523 1.514 1.523zM29.724 22.851c-0.836 0-1.514 0.683-1.514 1.523s0.678 1.523 1.514 1.523c0.836 0 1.514-0.683 1.514-1.523s-0.678-1.523-1.514-1.523zM8.526 1.524c-0.836 0-1.514 0.682-1.514 1.523s0.678 1.523 1.514 1.523c0.836 0 1.514-0.682 1.514-1.523s-0.678-1.523-1.514-1.523zM14.582 1.524c-0.836 0-1.514 0.682-1.514 1.523s0.678 1.523 1.514 1.523c0.836 0 1.514-0.682 1.514-1.523s-0.678-1.523-1.514-1.523zM2.469 10.664c0.836 0 1.514-0.682 1.514-1.523s-0.678-1.523-1.514-1.523c-0.836 0-1.514 0.682-1.514 1.523s0.678 1.523 1.514 1.523zM2.469 22.851c0.836 0 1.514-0.682 1.514-1.523s-0.678-1.523-1.514-1.523-1.514 0.682-1.514 1.523c0 0.841 0.678 1.523 1.514 1.523zM11.554 28.944c-0.836 0-1.514 0.682-1.514 1.523s0.678 1.523 1.514 1.523 1.514-0.682 1.514-1.523c0-0.841-0.678-1.523-1.514-1.523zM29.724 13.711c0.836 0 1.322-0.682 1.322-1.523 0-0.675 0.103-1.516-0.348-1.97l-8.149-8.247c-0.557-0.561-1.095-0.446-1.91-0.446-0.836 0-1.706 0.682-1.706 1.523v7.617c0 1.682 1.548 3.047 3.221 3.047h7.571zM0.955 15.234c0-0.841 0.678-1.523 1.514-1.523s1.514 0.682 1.514 1.523c0 0.841-0.678 1.523-1.514 1.523s-1.514-0.683-1.514-1.523z"></path>
</svg>
