<!-- Generated by IcoMoon.io -->
<svg version="1.1" xmlns="http://www.w3.org/2000/svg" width="32" height="32" viewBox="0 0 32 32">
<title>as-file_favorite-</title>
<path fill="#fff" d="M22.314 18.85l-1.824 1.778c-0.285 0.278-0.416 0.678-0.349 1.070l0.432 2.512c0.133 0.781-0.488 1.416-1.192 1.416-0.186 0-0.378-0.045-0.563-0.142l-2.254-1.186c-0.176-0.091-0.37-0.138-0.563-0.138s-0.387 0.046-0.563 0.138l-2.254 1.186c-0.186 0.098-0.378 0.142-0.563 0.142-0.704 0-1.326-0.635-1.192-1.416l0.43-2.512c0.069-0.392-0.062-0.792-0.347-1.070l-1.824-1.778c-0.718-0.699-0.322-1.918 0.67-2.062l2.52-0.366c0.395-0.058 0.734-0.304 0.912-0.662l1.126-2.283c0.222-0.45 0.653-0.675 1.085-0.675s0.862 0.226 1.085 0.675l1.126 2.283c0.178 0.358 0.517 0.605 0.91 0.662l2.522 0.366c0.992 0.144 1.389 1.363 0.67 2.062zM28.8 27.2c0 0.883-0.717 1.6-1.6 1.6h-22.4c-0.883 0-1.6-0.717-1.6-1.6v-22.4c0-0.883 0.717-1.6 1.6-1.6h14.4v6.4c0 1.768 1.432 3.2 3.2 3.2h6.4v14.4zM31.531 9.131l-8.662-8.662c-0.301-0.299-0.707-0.469-1.131-0.469h-18.538c-1.768 0-3.2 1.434-3.2 3.2v25.6c0 1.768 1.432 3.2 3.2 3.2h25.6c1.768 0 3.2-1.432 3.2-3.2v-18.538c0-0.424-0.168-0.83-0.469-1.131z"></path>
</svg>
