<!-- Generated by IcoMoon.io -->
<svg version="1.1" xmlns="http://www.w3.org/2000/svg" width="32" height="32" viewBox="0 0 32 32">
<title>as-flower-1</title>
<path fill="#fff" d="M24.213 27.281c0.842-1.432 1.335-3.096 1.335-4.88 0-2.677-1.088-8.357-2.843-13.328 1.834-1.771 3.583-3.171 4.826-3.712 0.426-0.186 0.93 0.048 1.055 0.498 1.036 3.685-0.723 18.323-4.373 21.422zM20.437 26.98c-2.395 2.347-6.134 2.366-8.575 0.229-1.34-1.174-2.206-2.883-2.206-4.808 0-4.776 3.289-15.77 5.776-18.614 0.302-0.346 0.852-0.35 1.155-0.005 2.484 2.83 5.781 13.75 5.781 18.619 0 1.795-0.744 3.416-1.932 4.579zM7.294 26.217c-2.484-2.691-4.697-16.4-3.602-20.354 0.124-0.451 0.631-0.688 1.057-0.499 1.205 0.531 2.873 1.882 4.662 3.597-1.567 4.4-4.025 12.819-2.117 17.256zM28.481 1.917c-1.94 0-4.499 1.656-7.054 3.958-1.538-3.378-3.404-5.875-5.414-5.875-1.993 0-3.842 2.448-5.371 5.779-1.98-1.77-5.743-4.754-8.134-3.606-4.755 2.278-1.692 19.563 0.57 24.35 1.632 3.453 5.045 5.474 8.223 5.477h7.767v-0.013c4.584 0.099 7.944-2.286 9.447-5.464 2.392-5.058 6.488-24.606-0.035-24.606z"></path>
</svg>
