<!-- Generated by IcoMoon.io -->
<svg version="1.1" xmlns="http://www.w3.org/2000/svg" width="32" height="32" viewBox="0 0 32 32">
<title>as-file_src-</title>
<path fill="#fff" d="M31.56 9.671l-8.72-9.173c-0.302-0.317-0.722-0.498-1.16-0.498h-18.48c-1.766 0-3.2 1.434-3.2 3.2v11.2c0 0.883 0.752 1.6 1.637 1.6h0.018c0.883 0 1.546-0.717 1.546-1.6v-9.6c0-0.883 0.717-1.6 1.6-1.6h14.4v6.4c0 1.768 1.434 3.2 3.2 3.2h6.4v1.6c0 0.883 0.752 1.6 1.637 1.6h0.018c0.883 0 1.546-0.717 1.546-1.6v-3.627c0-0.41-0.157-0.805-0.44-1.102zM17.6 24c0-0.883-0.715-1.6-1.6-1.6h-1.6v3.2h1.6c0.885 0 1.6-0.715 1.6-1.6zM18.76 27.919l1.005 2.011c0.475 0.952-0.216 2.070-1.28 2.070-0.542 0-1.037-0.306-1.28-0.79l-1.205-2.41h-1.6v1.6c0 0.883-0.662 1.6-1.546 1.6h-0.018c-0.885 0-1.637-0.717-1.637-1.6v-9.6c0-0.883 0.717-1.6 1.6-1.6h2.965c2.499 0 4.754 1.808 5.010 4.294 0.189 1.827-0.656 3.466-2.014 4.424zM4 22.4h4c0.885 0 1.6-0.717 1.6-1.6s-0.715-1.6-1.6-1.6h-4.8c-1.766 0-3.2 1.434-3.2 3.2v1.6c0 1.768 1.434 3.2 3.2 3.2h2.4c0.442 0 0.8 0.358 0.8 0.8s-0.358 0.8-0.8 0.8h-4c-0.883 0-1.6 0.717-1.6 1.6s0.717 1.6 1.6 1.6h4.834c1.749 0 3.166-1.418 3.166-3.166v-1.667c0-1.749-1.418-3.166-3.166-3.166h-2.434c-0.442 0-0.8-0.358-0.8-0.8s0.358-0.8 0.8-0.8zM25.644 26.138c0.254 1.573 1.733 2.662 3.326 2.662h1.429c0.885 0 1.6 0.717 1.6 1.6s-0.715 1.6-1.6 1.6h-1.325c-3.342 0-6.328-2.443-6.645-5.771-0.363-3.818 2.627-7.029 6.37-7.029h1.6c0.885 0 1.6 0.717 1.6 1.6s-0.715 1.6-1.6 1.6h-1.6c-1.942 0-3.482 1.733-3.155 3.738z"></path>
</svg>
