<!-- Generated by IcoMoon.io -->
<svg version="1.1" xmlns="http://www.w3.org/2000/svg" width="32" height="32" viewBox="0 0 32 32">
<title>as-file_svg-1</title>
<path fill="#fff" d="M16.4 28.801h-0.8l-1.2-9.6h-3.2l1.6 12.8h6.4l1.6-12.8h-3.2l-1.2 9.6zM22.4 25.601c0 3.534 2.866 6.4 6.4 6.4h3.2v-6.4h-3.2v3.368c-1.768 0-3.2-1.517-3.2-3.285 0-1.766 1.432-3.283 3.2-3.283h3.2v-3.2h-3.2c-3.534 0-6.4 2.866-6.4 6.4zM3.2 19.201c-1.768 0-3.2 1.6-3.2 3.368v1.6c0 1.766 1.432 3.032 3.2 3.032h2.4c0.442 0 0.8 0.358 0.8 0.8s-0.358 0.8-0.8 0.8h-5.6v3.2h6.434c1.749 0 3.166-1.25 3.166-3v-1.666c0-1.749-1.418-3.334-3.166-3.334h-2.434c-0.442 0-0.8-0.358-0.8-0.8s0.358-0.8 0.8-0.8h5.6v-3.2h-6.4zM32 10.302v5.699h-3.2v-3.2h-9.6v-9.6h-16v12.8h-3.2v-16h22.366l9.634 10.301z"></path>
</svg>
