<!-- Generated by IcoMoon.io -->
<svg version="1.1" xmlns="http://www.w3.org/2000/svg" width="32" height="32" viewBox="0 0 32 32">
<title>as-file_psd-</title>
<path fill="#fff" d="M31.56 9.671l-8.72-9.173c-0.302-0.317-0.722-0.498-1.16-0.498h-18.48c-1.766 0-3.2 1.434-3.2 3.2v11.2c0 0.883 0.717 1.6 1.6 1.6 0.885 0 1.6-0.717 1.6-1.6v-9.6c0-0.883 0.717-1.6 1.6-1.6h14.4v6.4c0 1.768 1.434 3.2 3.2 3.2h6.4v1.6c0 0.883 0.717 1.6 1.6 1.6 0.885 0 1.6-0.717 1.6-1.6v-3.627c0-0.41-0.157-0.805-0.44-1.102zM6.4 24c0-0.883-0.715-1.6-1.6-1.6h-1.6v3.2h1.6c0.885 0 1.6-0.717 1.6-1.6zM9.593 23.743c0.146 2.768-2.056 5.058-4.794 5.058h-1.6v1.6c0 0.883-0.715 1.6-1.6 1.6-0.883 0-1.6-0.717-1.6-1.6v-9.6c0-0.883 0.717-1.6 1.6-1.6h2.928c2.6 0 4.93 1.947 5.066 4.542zM28.8 24c0-0.883-0.715-1.6-1.6-1.6h-1.6v6.4h1.6c0.885 0 1.6-0.717 1.6-1.6v-3.2zM32 24v3.2c0 2.651-2.149 4.8-4.8 4.8h-3.2c-0.883 0-1.6-0.715-1.6-1.6v-9.6c0-0.883 0.717-1.6 1.6-1.6h3.2c2.651 0 4.8 2.149 4.8 4.8zM14.4 23.2c0 0.442 0.358 0.8 0.8 0.8h2.434c1.749 0 3.166 1.418 3.166 3.166v1.667c0 1.749-1.418 3.166-3.166 3.166h-4.834c-0.883 0-1.6-0.717-1.6-1.6s0.717-1.6 1.6-1.6h4c0.442 0 0.8-0.358 0.8-0.8s-0.358-0.8-0.8-0.8h-2.4c-1.766 0-3.2-1.432-3.2-3.2v-1.6c0-1.766 1.434-3.2 3.2-3.2h4.8c0.885 0 1.6 0.717 1.6 1.6s-0.715 1.6-1.6 1.6h-4c-0.442 0-0.8 0.358-0.8 0.8z"></path>
</svg>
