<!-- Generated by IcoMoon.io -->
<svg version="1.1" xmlns="http://www.w3.org/2000/svg" width="32" height="32" viewBox="0 0 32 32">
<title>as-file_zip-1</title>
<path fill="#fff" d="M3.197 3.201h15.987v9.6h9.592v3.2h3.197v-5.699l-9.626-10.301h-22.348v16h3.197v-12.8zM28.803 24.169c0-0.885-0.716-1.6-1.599-1.6h-1.599v3.2h1.599c0.883 0 1.599-0.717 1.599-1.6zM32 24.001c0 2.651-2.149 4.8-4.796 4.8h-1.624v3.2h-3.197v-12.8h4.822c2.648 0 4.796 2.149 4.796 4.8zM9.592 19.201h-9.592v3.2h4.796c-6.63 13.27-1.925 3.853-4.796 9.6h9.592v-3.2h-4.796c6.63-13.27 1.925-3.853 4.796-9.6zM20.783 19.201v3.2h-3.197v6.4h3.197v3.2h-9.592v-3.2h3.197v-6.4h-3.197v-3.2h9.592z"></path>
</svg>
