<!-- Generated by IcoMoon.io -->
<svg version="1.1" xmlns="http://www.w3.org/2000/svg" width="32" height="32" viewBox="0 0 32 32">
<title>as-file_sketch-1</title>
<path fill="#fff" d="M21.103 14.852l2.283 2.728c0.256 0.387 0.221 0.872-0.085 1.221l-6.978 7.392c-0.41 0.469-1.136 0.454-1.55-0.010l-6.955-7.245c-0.306-0.344-0.347-0.869-0.102-1.258l2.317-2.811c0.189-0.301 0.52-0.469 0.875-0.469h9.331c0.349 0 0.674 0.16 0.864 0.451zM28.799 27.369c0 0.883-0.715 1.432-1.6 1.432h-22.4c-0.883 0-1.6-0.549-1.6-1.432v-22.4c0-0.885 0.717-1.768 1.6-1.768h14.4v6.568c0 1.766 1.434 3.032 3.2 3.032h6.4v14.568zM31.532 9.3l-8.664-8.747c-0.299-0.301-0.707-0.552-1.131-0.552h-18.538c-1.766 0-3.2 1.6-3.2 3.368v25.6c0 1.766 1.434 3.032 3.2 3.032h25.6c1.768 0 3.2-1.266 3.2-3.032v-18.538c0-0.426-0.168-0.832-0.467-1.131z"></path>
</svg>
