<!-- Generated by IcoMoon.io -->
<svg version="1.1" xmlns="http://www.w3.org/2000/svg" width="32" height="32" viewBox="0 0 32 32">
<title>as-file_cpp-</title>
<path fill="#fff" d="M31.56 9.787l-8.72-9.208c-0.302-0.315-0.722-0.578-1.16-0.578h-18.48c-1.766 0-3.2 1.592-3.2 3.349v11.142c0 0.88 0.717 1.592 1.6 1.592 0.885 0 1.6-0.712 1.6-1.592v-9.55c0-0.879 0.717-1.757 1.6-1.757h14.4v6.532c0 1.759 1.434 3.018 3.2 3.018h6.4v1.757c0 0.88 0.717 1.592 1.6 1.592 0.885 0 1.6-0.712 1.6-1.592v-3.608c0-0.408-0.157-0.801-0.44-1.097zM28.8 24.043c0-0.879-0.715-1.592-1.6-1.592h-1.6v3.183h1.6c0.885 0 1.6-0.711 1.6-1.592zM32 23.877c0 2.637-2.149 4.775-4.8 4.775h-1.6v1.757c0 0.88-0.715 1.592-1.6 1.592-0.883 0-1.6-0.712-1.6-1.592v-9.55c0-0.879 0.717-1.757 1.6-1.757h3.2c2.651 0 4.8 2.138 4.8 4.775zM17.6 24.043c0-0.879-0.715-1.592-1.6-1.592h-1.6v3.183h1.6c0.885 0 1.6-0.711 1.6-1.592zM20.8 23.877c0 2.637-2.149 4.775-4.8 4.775h-1.6v1.757c0 0.88-0.715 1.592-1.6 1.592-0.883 0-1.6-0.712-1.6-1.592v-9.55c0-0.879 0.717-1.757 1.6-1.757h3.2c2.651 0 4.8 2.138 4.8 4.775zM3.2 25.469c0 1.757 1.434 3.183 3.2 3.183h1.6c0.885 0 1.6 0.712 1.6 1.592 0 0.879-0.715 1.592-1.6 1.592h-1.6c-3.534 0-6.4-2.851-6.4-6.367s2.866-6.367 6.4-6.367h1.6c0.885 0 1.6 0.712 1.6 1.592 0 0.879-0.715 1.592-1.6 1.592h-1.6c-1.766 0-3.2 1.425-3.2 3.184z"></path>
</svg>
