<!-- Generated by IcoMoon.io -->
<svg version="1.1" xmlns="http://www.w3.org/2000/svg" width="32" height="32" viewBox="0 0 32 32">
<title>as-file_jpg-1</title>
<path fill="#fff" d="M6.4 27.368c0 0.883-0.717 1.432-1.6 1.432h-4.8v3.2h6.4c1.768 0 3.2-1.266 3.2-3.032v-9.768h-3.2v8.168zM22.4 25.6c0 3.534 2.866 6.4 6.4 6.4h3.2v-6.4h-3.2v3.368c-1.768 0-3.2-1.517-3.2-3.283 0-1.768 1.432-3.285 3.2-3.285h3.2v-3.2h-3.2c-3.534 0-6.4 2.866-6.4 6.4zM17.6 24.168c0-0.883-0.717-1.6-1.6-1.6h-1.6v3.2h1.6c0.883 0 1.6-0.717 1.6-1.6zM20.8 24c0 2.651-2.149 4.8-4.8 4.8h-1.6v3.2h-3.2v-12.8h4.8c2.651 0 4.8 2.149 4.8 4.8zM32 10.301v5.699h-3.2v-3.2h-9.6v-9.6h-16v12.8h-3.2v-16h22.366l9.634 10.301z"></path>
</svg>
