<!-- Generated by IcoMoon.io -->
<svg version="1.1" xmlns="http://www.w3.org/2000/svg" width="32" height="32" viewBox="0 0 32 32">
<title>as-glasses-</title>
<path fill="#fff" d="M28.8 28.8h-8.306c-0.888 0-1.294-0.72-1.294-1.608v-4.792h9.6v6.4zM12.8 27.192c0 0.888-1.034 1.608-1.92 1.608h-7.68v-6.4h9.6v4.792zM22.4 0v3.2h4.486c0.885 0 1.914 0.717 1.914 1.6v14.4h-25.6v-14.4c0-0.883 0.403-1.6 1.286-1.6h5.114v-3.2h-6.717c-1.765 0-2.883 1.43-2.883 3.195v28.805h12.486c1.768 0 3.2-1.432 3.2-3.2 0 1.768 1.434 3.2 3.2 3.2h13.114v-28.805c0-1.765-1.744-3.195-3.509-3.195h-6.091z"></path>
</svg>
