<!-- Generated by IcoMoon.io -->
<svg version="1.1" xmlns="http://www.w3.org/2000/svg" width="32" height="32" viewBox="0 0 32 32">
<title>as-grid-</title>
<path fill="#fff" d="M28.8 22.4h-3.2c-1.768 0-3.2 1.432-3.2 3.2v3.2c0 1.768 1.432 3.2 3.2 3.2h3.2c1.768 0 3.2-1.432 3.2-3.2v-3.2c0-1.768-1.432-3.2-3.2-3.2zM17.6 22.4h-3.2c-1.768 0-3.2 1.432-3.2 3.2v3.2c0 1.768 1.432 3.2 3.2 3.2h3.2c1.768 0 3.2-1.432 3.2-3.2v-3.2c0-1.768-1.432-3.2-3.2-3.2zM6.4 22.4h-3.2c-1.768 0-3.2 1.432-3.2 3.2v3.2c0 1.768 1.432 3.2 3.2 3.2h3.2c1.768 0 3.2-1.432 3.2-3.2v-3.2c0-1.768-1.432-3.2-3.2-3.2zM28.8 11.2h-3.2c-1.768 0-3.2 1.432-3.2 3.2v3.2c0 1.768 1.432 3.2 3.2 3.2h3.2c1.768 0 3.2-1.432 3.2-3.2v-3.2c0-1.768-1.432-3.2-3.2-3.2zM17.6 11.2h-3.2c-1.768 0-3.2 1.432-3.2 3.2v3.2c0 1.768 1.432 3.2 3.2 3.2h3.2c1.768 0 3.2-1.432 3.2-3.2v-3.2c0-1.768-1.432-3.2-3.2-3.2zM6.4 11.2h-3.2c-1.768 0-3.2 1.432-3.2 3.2v3.2c0 1.768 1.432 3.2 3.2 3.2h3.2c1.768 0 3.2-1.432 3.2-3.2v-3.2c0-1.768-1.432-3.2-3.2-3.2zM28.8 0h-3.2c-1.768 0-3.2 1.432-3.2 3.2v3.2c0 1.768 1.432 3.2 3.2 3.2h3.2c1.768 0 3.2-1.432 3.2-3.2v-3.2c0-1.768-1.432-3.2-3.2-3.2zM17.6 0h-3.2c-1.768 0-3.2 1.432-3.2 3.2v3.2c0 1.768 1.432 3.2 3.2 3.2h3.2c1.768 0 3.2-1.432 3.2-3.2v-3.2c0-1.768-1.432-3.2-3.2-3.2zM9.6 3.2v3.2c0 1.768-1.432 3.2-3.2 3.2h-3.2c-1.768 0-3.2-1.432-3.2-3.2v-3.2c0-1.768 1.432-3.2 3.2-3.2h3.2c1.768 0 3.2 1.432 3.2 3.2z"></path>
</svg>
