<!-- Generated by IcoMoon.io -->
<svg version="1.1" xmlns="http://www.w3.org/2000/svg" width="32" height="32" viewBox="0 0 32 32">
<title>as-game_controller_round-1</title>
<path fill="#fff" d="M28.8 11.2c0-0.883-0.717-1.6-1.6-1.6h-22.4c-0.883 0-1.6 0.717-1.6 1.6v9.6c0 0.883 0.717 1.6 1.6 1.6h22.4c0.883 0 1.6-0.717 1.6-1.6v-9.6zM17.6 6.4h11.2c1.768 0 3.2 1.432 3.2 3.2v12.8c0 1.768-1.432 3.2-3.2 3.2h-25.6c-1.768 0-3.2-1.432-3.2-3.2v-12.8c0-1.768 1.432-3.2 3.2-3.2h14.4zM22.4 17.6h3.2v-3.2h-3.2v3.2zM17.6 14.4c-0.883 0-1.6 0.717-1.6 1.6s0.717 1.6 1.6 1.6c0.883 0 1.6-0.717 1.6-1.6s-0.717-1.6-1.6-1.6zM11.2 14.4h1.6v3.2h-1.6v1.6h-3.2v-1.6h-1.6v-3.2h1.6v-1.6h3.2v1.6z"></path>
</svg>
