<!-- Generated by IcoMoon.io -->
<svg version="1.1" xmlns="http://www.w3.org/2000/svg" width="32" height="32" viewBox="0 0 32 32">
<title>as-hospital-</title>
<path fill="#fff" d="M12.8 9.6c-0.883 0-1.6 0.717-1.6 1.6v9.6c0 0.883 0.717 1.6 1.6 1.6s1.6-0.717 1.6-1.6v-3.2h3.2v3.2c0 0.883 0.717 1.6 1.6 1.6s1.6-0.717 1.6-1.6v-9.6c0-0.883-0.717-1.6-1.6-1.6s-1.6 0.717-1.6 1.6v3.2h-3.2v-3.2c0-0.883-0.717-1.6-1.6-1.6zM30.4 9.6c-0.883 0-1.6 0.717-1.6 1.6v9.6c0 0.883 0.717 1.6 1.6 1.6s1.6-0.717 1.6-1.6v-9.6c0-0.883-0.717-1.6-1.6-1.6zM30.4 25.6c-0.883 0-1.6 0.717-1.6 1.6s-0.717 1.6-1.6 1.6c-0.883 0-1.6 0.717-1.6 1.6s0.717 1.6 1.6 1.6h1.6c1.768 0 3.2-1.434 3.2-3.2v-1.6c0-0.883-0.717-1.6-1.6-1.6zM28.8 0h-1.6c-0.883 0-1.6 0.717-1.6 1.6s0.717 1.6 1.6 1.6c0.883 0 1.6 0.717 1.6 1.6s0.717 1.6 1.6 1.6c0.883 0 1.6-0.717 1.6-1.6v-1.6c0-1.768-1.432-3.2-3.2-3.2zM1.6 22.4c0.883 0 1.6-0.717 1.6-1.6v-9.6c0-0.883-0.717-1.6-1.6-1.6s-1.6 0.717-1.6 1.6v9.6c0 0.883 0.717 1.6 1.6 1.6zM4.8 28.8c-0.883 0-1.6-0.717-1.6-1.6s-0.717-1.6-1.6-1.6c-0.883 0-1.6 0.717-1.6 1.6v1.6c0 1.766 1.432 3.2 3.2 3.2h1.6c0.883 0 1.6-0.717 1.6-1.6s-0.717-1.6-1.6-1.6zM4.8 0h-1.6c-1.768 0-3.2 1.432-3.2 3.2v1.6c0 0.883 0.717 1.6 1.6 1.6s1.6-0.717 1.6-1.6c0-0.883 0.717-1.6 1.6-1.6s1.6-0.717 1.6-1.6c0-0.883-0.717-1.6-1.6-1.6zM20.8 28.8h-9.6c-0.883 0-1.6 0.717-1.6 1.6s0.717 1.6 1.6 1.6h9.6c0.883 0 1.6-0.717 1.6-1.6s-0.717-1.6-1.6-1.6zM22.4 1.6c0 0.883-0.717 1.6-1.6 1.6h-9.6c-0.883 0-1.6-0.717-1.6-1.6s0.717-1.6 1.6-1.6h9.6c0.883 0 1.6 0.717 1.6 1.6z"></path>
</svg>
