<!-- Generated by IcoMoon.io -->
<svg version="1.1" xmlns="http://www.w3.org/2000/svg" width="34" height="32" viewBox="0 0 34 32">
<title>as-help-</title>
<path fill="#fff" d="M28.804 27.2v-16c0-0.883-0.717-1.6-1.6-1.6h-22.4c-0.883 0-1.6 0.717-1.6 1.6v16c0 0.883 0.717 1.6 1.6 1.6h22.4c0.883 0 1.6-0.717 1.6-1.6zM12.804 4.8v1.6h6.4v-1.6c0-0.883-0.717-1.6-1.6-1.6h-3.2c-0.883 0-1.6 0.717-1.6 1.6zM28.804 6.399c1.768 0 3.2 1.432 3.2 3.2v19.2c0 1.768-1.432 3.2-3.2 3.2h-25.6c-1.768 0-3.2-1.432-3.2-3.2v-19.2c0-1.768 1.432-3.2 3.2-3.2h6.4v-3.2c0-1.768 1.432-3.2 3.2-3.2h6.4c1.768 0 3.2 1.432 3.2 3.2v3.2h6.4zM14.404 24v-3.2h-3.2c-0.883 0-1.6-0.717-1.6-1.6s0.717-1.6 1.6-1.6h3.2v-3.2c0-0.883 0.717-1.6 1.6-1.6s1.6 0.717 1.6 1.6v3.2h3.2c0.883 0 1.6 0.717 1.6 1.6s-0.717 1.6-1.6 1.6h-3.2v3.2c0 0.883-0.717 1.6-1.6 1.6s-1.6-0.717-1.6-1.6z"></path>
</svg>
