<!-- Generated by IcoMoon.io -->
<svg version="1.1" xmlns="http://www.w3.org/2000/svg" width="32" height="32" viewBox="0 0 32 32">
<title>as-invision-</title>
<path fill="#fff" d="M23.773 24.642c-2.557 0-3.389-1.99-2.731-4.226l0.949-3.392c0.445-1.448-0.046-2.789-1.581-2.789-1.352 0-2.243 0.742-2.702 2.611l-1.84 7.154h-3.219l0.578-2.093c-0.946 1.555-2.261 2.632-3.882 2.632-2.496 0-3.274-1.752-2.702-4.182l1.466-5.957h-2.27l0.69-3.2h5.462l-2.157 8.877c-0.254 0.965-0.464 2.146 0.49 2.36 0.256 0.058 2.299 0.061 3.411-2.411l1.416-5.626h-2.299l0.69-3.2h4.915l-0.632 3.213c0.862-1.61 2.587-2.978 4.283-2.978 2.762 0 3.92 2.842 2.99 5.981l-0.92 3.325c-0.57 2.283 1.085 2.587 2.126-0.298l1.266 0.49c-0.749 2.616-2.099 3.709-3.795 3.709zM10.694 6.216c1.064 0 1.955 0.834 1.955 1.925 0 1.093-0.891 1.926-1.955 1.926s-1.954-0.834-1.954-1.926c0-1.091 0.89-1.925 1.954-1.925zM29.099 0h-26.198c-1.602 0-2.901 1.298-2.901 2.901v26.198c0 1.602 1.299 2.901 2.901 2.901h26.198c1.602 0 2.901-1.299 2.901-2.901v-26.198c0-1.603-1.299-2.901-2.901-2.901z"></path>
</svg>
