<!-- Generated by IcoMoon.io -->
<svg version="1.1" xmlns="http://www.w3.org/2000/svg" width="22" height="32" viewBox="0 0 22 32">
<title>as-lock_open_round-</title>
<path fill="#fff" d="M19.2 27.2c0 0.883-0.717 1.6-1.6 1.6h-12.8c-0.883 0-1.6-0.717-1.6-1.6v-12.8c0-0.883 0.717-1.6 1.6-1.6h12.8c0.883 0 1.6 0.717 1.6 1.6v12.8zM8 9.6v-2.989c0-1.277 0.667-2.514 1.813-3.077 1.952-0.96 3.851 0.291 4.418 1.901 0.211 0.6 0.822 0.965 1.458 0.965 1.088 0 1.901-1.085 1.51-2.101-1.115-2.91-4.406-5.168-7.95-3.973-2.733 0.922-4.448 3.651-4.448 6.534v2.739c-2.651 0-4.8 2.149-4.8 4.8v12.8c0 2.651 2.149 4.8 4.8 4.8h12.8c2.651 0 4.8-2.149 4.8-4.8v-12.8c0-2.651-2.149-4.8-4.8-4.8h-9.6z"></path>
</svg>
