<!-- Generated by IcoMoon.io -->
<svg version="1.1" xmlns="http://www.w3.org/2000/svg" width="32" height="32" viewBox="0 0 32 32">
<title>as-leaf-</title>
<path fill="#fff" d="M18.69 23.672c-0.692-0.744-1.667-1.171-2.673-1.171-1.004 0-1.978 0.424-2.67 1.165-2.143 2.288-5.615 2.542-7.789 1.016-3.485-2.446-2.737-7.141-0.328-10.574 0.86-1.224 1.911-2.467 3.306-3.91 0.34-0.35 7.291-7.275 7.641-6.939 3.519 3.376 9.156 7.96 11.564 12.362 4.438 8.114-4.424 13.027-9.051 8.053zM30.549 14.085c-2.705-4.946-8.388-9.525-12.153-13.136-1.344-1.288-3.384-1.245-4.75 0.008-3.106 2.846-8.181 7.245-11.037 11.314-3.958 5.637-3.621 12.787 2.457 15.83 1.603 0.803 6.006 1.563 9.611-1.326l-0.777 2.206c-0.519 1.475 0.577 3.019 2.141 3.019s2.659-1.544 2.14-3.019l-0.761-2.162c5.721 4.459 14.556 1.053 14.556-6.149 0-2.174 0.021-1.982 0.021-1.982 0.056 0-0.562-2.984-1.448-4.603z"></path>
</svg>
