<!-- Generated by IcoMoon.io -->
<svg version="1.1" xmlns="http://www.w3.org/2000/svg" width="32" height="32" viewBox="0 0 32 32">
<title>as-moon-6</title>
<path fill="#fff" d="M7.743 5.2c-0.539-0.702-0.407-1.709 0.295-2.248 0.702-0.54 1.709-0.407 2.248 0.295 0.54 0.702 0.407 1.709-0.295 2.248s-1.709 0.407-2.248-0.295zM11.3 9.347c0.54 0.702 0.407 1.709-0.295 2.248-0.702 0.54-1.709 0.407-2.248-0.295s-0.407-1.708 0.295-2.248c0.702-0.539 1.709-0.407 2.248 0.295zM2.657 10.709c-0.54-0.702-0.407-1.709 0.295-2.248s1.708-0.407 2.248 0.295c0.539 0.702 0.407 1.709-0.295 2.248-0.702 0.54-1.709 0.407-2.248-0.295zM15.966 28.793c-4.902 0-9.167-2.766-11.325-6.818 9.922 0.842 18.178-7.387 17.335-17.335 4.052 2.158 6.818 6.423 6.818 11.325 0 7.073-5.755 12.828-12.828 12.828zM17.335 0c5.936 11.138-6.25 23.242-17.335 17.335 0.688 8.112 7.493 14.665 15.966 14.665 8.856 0 16.034-7.179 16.034-16.034 0-8.477-6.558-15.278-14.665-15.966z"></path>
</svg>
