<!-- Generated by IcoMoon.io -->
<svg version="1.1" xmlns="http://www.w3.org/2000/svg" width="32" height="32" viewBox="0 0 32 32">
<title>as-marvelapp-</title>
<path fill="#fff" d="M25.516 6.676c1.308 0 2.551 1.125 2.551 2.401 0 2.389-6.263 8.337-6.263 11.183 0 0.507 0.251 0.761 0.754 0.761 1.807 0 4.947-4.527 5.973-6.031 1.311-1.925 2.379-1.93 3.073-1.23 0.92 0.931 0.027 2.797-0.608 3.953-1.969 3.575-6.601 8.929-10.642 8.929-1.082 0-1.972-0.362-2.667-1.083-2.572-2.666-0.079-7.411 1.972-10.511-4.354 3.382-6.133 8.426-7.656 10.042-1.231 1.304-3.757 0.485-3.596-1.728 0.094-1.303 0.48-2.641 1.882-5.1 0.591-1.159 1.388-2.771 1.889-3.623-6.586 5.317-7.127 10.357-8.728 11.973-1.255 1.267-3.451 0.427-3.451-1.962 0-4.068 5.756-16.965 8.989-19.41 1.356-1.028 3.131-0.129 3.131 1.377 0 1.206-2.070 4.239-3.537 7.201 3.11-3.767 5.343-6.278 7.105-7.201 1.921-1.004 3.392 0.082 3.392 1.522 0 1.422-1.32 3.276-2.899 6.265 2.284-2.5 7.089-7.729 9.336-7.729z"></path>
</svg>
