<!-- Generated by IcoMoon.io -->
<svg version="1.1" xmlns="http://www.w3.org/2000/svg" width="19" height="32" viewBox="0 0 19 32">
<title>as-mouse-2</title>
<path fill="#fff" d="M16 22.4c0 3.739-3.224 6.741-7.040 6.368-3.325-0.323-5.76-3.312-5.76-6.653v-12.515c0-2.973 1.6-5.458 4.8-6.173v6.173c0 0.883 0.717 1.6 1.6 1.6s1.6-0.717 1.6-1.6v-6.173c3.2 0.715 4.8 3.2 4.8 6.173v12.8zM9.6 0c-5.302 0-9.6 4.298-9.6 9.6v12.8c0 5.302 4.298 9.6 9.6 9.6s9.6-4.298 9.6-9.6v-12.8c0-5.302-4.298-9.6-9.6-9.6z"></path>
</svg>
