<!-- Generated by IcoMoon.io -->
<svg version="1.1" xmlns="http://www.w3.org/2000/svg" width="22" height="32" viewBox="0 0 22 32">
<title>as-notebook-1</title>
<path fill="#fff" d="M16 7.997v16.005c0 0.883-0.715 1.598-1.597 1.598h-3.206c-0.882 0-1.597-0.715-1.597-1.598v-16.005c0-0.882 0.715-1.597 1.597-1.597h3.206c0.882 0 1.597 0.715 1.597 1.597zM19.2 27.2c0 0.883-0.717 1.6-1.6 1.6h-9.6c-0.883 0-1.6-0.717-1.6-1.6v-22.4c0-0.885 0.717-1.6 1.6-1.6h9.6c0.883 0 1.6 0.715 1.6 1.6v22.4zM19.2 0h-12.8c-1.768 0-3.2 1.432-3.2 3.2v3.2h-1.6c-0.883 0-1.6 0.715-1.6 1.6 0 0.883 0.717 1.6 1.6 1.6h1.6v3.2h-1.6c-0.883 0-1.6 0.715-1.6 1.6 0 0.883 0.717 1.6 1.6 1.6h1.6v3.2h-1.6c-0.883 0-1.6 0.715-1.6 1.6 0 0.883 0.717 1.6 1.6 1.6h1.6v3.2h-1.6c-0.883 0-1.6 0.715-1.6 1.6 0 0.883 0.717 1.6 1.6 1.6h1.6c0 1.766 1.432 3.2 3.2 3.2h12.8c1.768 0 3.2-1.434 3.2-3.2v-25.6c0-1.768-1.432-3.2-3.2-3.2z"></path>
</svg>
