<!-- Generated by IcoMoon.io -->
<svg version="1.1" xmlns="http://www.w3.org/2000/svg" width="32" height="32" viewBox="0 0 32 32">
<title>as-network_3-1</title>
<path fill="#fff" d="M12.651 17.6h3.2v-3.2h-3.2v3.2zM19.2 17.6h9.6v-3.2h-9.6v3.2zM12.651 28.8h3.2v-3.2h-3.2v3.2zM19.2 28.8h9.6v-3.2h-9.6v3.2zM12.651 6.4h3.2v-3.2h-3.2v3.2zM19.2 6.4h9.6v-3.2h-9.6v3.2zM32 9.6h-22.4v-3.2h-6.4v8h6.4v-3.2h22.4v9.6h-22.4v-3.2h-6.4v8h6.4v-3.2h22.4v9.6h-22.4v-3.2h-9.6v-28.8h3.2v3.2h6.4v-3.2h22.4v9.6z"></path>
</svg>
