<!-- Generated by IcoMoon.io -->
<svg version="1.1" xmlns="http://www.w3.org/2000/svg" width="32" height="32" viewBox="0 0 32 32">
<title>as-next-1</title>
<path fill="#fff" d="M20.8 20.016v-8.496c1.867-1.458 0.64-0.534 6.114-4.578 0.531-0.382 1.886-0.093 1.886 0.654 0 21.035 1.654 19.733-8 12.419zM16.528 24.8c-0.59 0-11.627-8.026-12.109-8.368-0.474-0.341-0.448-0.986-0.024-1.29l11.422-8.213c0.522-0.374 1.782-0.088 1.782 0.645 0 16.899 0.528 17.226-1.072 17.226zM27.608 3.584c-1.886 0-2.411 0.688-6.811 3.966-0.016-2.346-2.205-3.978-4.269-3.978-1.552 0-3.854 2.166-13.328 9.227v-8c0-0.885-0.717-1.6-1.6-1.6s-1.6 0.715-1.6 1.6v22.4c0 0.883 0.717 1.6 1.6 1.6s1.6-0.717 1.6-1.6v-8l10.749 7.883c0.726 0.522 1.794 0.837 2.579 0.837 2.046 0 4.208-1.563 4.262-3.875 4.134 3.075 4.824 3.934 6.883 3.934 2.078 0 4.326-1.637 4.326-4.003v-16.379c0-2.366-2.314-4.013-4.392-4.013z"></path>
</svg>
