<!-- Generated by IcoMoon.io -->
<svg version="1.1" xmlns="http://www.w3.org/2000/svg" width="32" height="32" viewBox="0 0 32 32">
<title>as-object_distribution_round-</title>
<path fill="#fff" d="M28.8 11.2c0 0.883-0.717 1.6-1.6 1.6h-6.4c-0.883 0-1.6-0.717-1.6-1.6v-6.398c0-0.885 0.717-1.602 1.6-1.602h6.4c0.883 0 1.6 0.717 1.6 1.602v6.398zM25.6 24.102c0 0.885-1.038 1.498-1.923 1.498h-7.677v-6.296c0-1.768-1.755-3.304-3.523-3.304h-6.077v-7.896c0-0.883 0.394-1.704 1.278-1.704h8.322v6.504c0 1.766 1.11 3.096 2.877 3.096h6.723v8.102zM12.8 27.2c0 0.883-0.717 1.6-1.6 1.6h-6.4c-0.883 0-1.6-0.717-1.6-1.6v-6.398c0-0.885 0.717-1.602 1.6-1.602h6.4c0.883 0 1.6 0.717 1.6 1.602v6.398zM28.8 25.704v-9.6c1.768 0 3.2-1.434 3.2-3.2v-9.6c0-1.768-1.755-3.304-3.523-3.304h-9.6c-1.766 0-3.2 1.434-3.2 3.2h-9.6c-1.766 0-2.877 1.536-2.877 3.304v9.6c-1.768 0-3.2 1.432-3.2 3.2v9.6c0 1.766 1.11 3.096 2.877 3.096h9.6c1.768 0 3.2-1.432 3.2-3.2h9.6c1.768 0 3.523-1.33 3.523-3.096z"></path>
</svg>
