<!-- Generated by IcoMoon.io -->
<svg version="1.1" xmlns="http://www.w3.org/2000/svg" width="32" height="32" viewBox="0 0 32 32">
<title>as-profile_image_round-</title>
<path fill="#fff" d="M30.72 20.561v6.405h-0.003c-0.015 1.403-1.153 2.535-2.557 2.535-1.414 0-2.56-1.147-2.56-2.562 0-1.414 1.146-2.562 2.56-2.562v-1.254h-5.12v5.124h-0.003c-0.015 1.403-1.153 2.535-2.557 2.535-1.414 0-2.56-1.147-2.56-2.562 0-1.414 1.146-2.562 2.56-2.562v-5.097h10.24zM3.84 21.842v-17.936c0-0.707 0.573-1.281 1.28-1.281h8.878c-3.496 0.045-6.318 2.891-6.318 6.402 0 1.85 0.796 3.506 2.051 4.676-3.194 1.484-5.498 4.557-5.875 8.215-0.001-0.027-0.015-0.049-0.015-0.076zM17.92 9.030c0 1.845-1.307 3.389-3.043 3.758-0.75-0.062-0.972-0.051-1.606-0.004-1.729-0.373-3.031-1.913-3.031-3.754 0-2.119 1.723-3.843 3.84-3.843s3.84 1.724 3.84 3.843zM16.755 23.123h-10.387c-0.001 0-0.008-0.084-0.008-0.137 0-3.965 3.017-7.231 6.874-7.635 1.197 0.16 0.771 0.082 1.644-0.028 1.213 0.132 2.335 0.119 3.311 1.027 0.236 0.218 0.526 0.368 0.847 0.368 1.514 0 1.782-1.499 0.927-2.106-0.489-0.348-1.011-0.655-1.563-0.915 1.271-1.171 2.080-2.817 2.080-4.683 0-3.509-2.822-6.344-6.318-6.389h8.878c0.707 0 1.28 0.574 1.28 1.281v11.645c0 0.644 0.522 1.166 1.165 1.166h0.23c0.644 0 1.165-0.521 1.165-1.166v-12.926c0-1.416-1.146-2.562-2.56-2.562h-20.48c-1.414 0-2.56 1.147-2.56 2.562v20.498c0 1.414 1.146 2.562 2.56 2.562h12.915c0.644 0 1.165-0.521 1.165-1.166 0-0.971-0.52-1.396-1.165-1.396z"></path>
</svg>
