<!-- Generated by IcoMoon.io -->
<svg version="1.1" xmlns="http://www.w3.org/2000/svg" width="32" height="32" viewBox="0 0 32 32">
<title>as-profile_round-1</title>
<path fill="#fff" d="M22.533 9.6c0-3.53-2.93-6.4-6.533-6.4s-6.533 2.87-6.533 6.4 2.93 6.4 6.533 6.4c3.603 0 6.533-2.87 6.533-6.4zM28.713 32h-2.914c-0.902 0-1.633-0.717-1.633-1.6s0.732-1.6 1.633-1.6h0.701c1.13 0 1.965-1.115 1.537-2.141-1.978-4.742-6.623-7.459-12.037-7.459s-10.059 2.717-12.037 7.459c-0.428 1.026 0.407 2.141 1.537 2.141h0.701c0.902 0 1.633 0.717 1.633 1.6s-0.732 1.6-1.633 1.6h-2.914c-2.042 0-3.649-1.829-3.216-3.782 1.189-5.374 4.901-9.341 9.791-11.141-2.231-1.758-3.662-4.453-3.662-7.477 0-5.682 5.037-10.21 10.974-9.533 4.302 0.49 7.866 3.848 8.511 8.045 0.555 3.618-0.955 6.922-3.547 8.965 4.89 1.8 8.602 5.766 9.791 11.141 0.433 1.954-1.174 3.782-3.216 3.782zM21.097 24.742c0.639 0.626 0.639 1.638 0 2.264l-5.097 4.994-3.464-3.394c-0.639-0.626-0.639-1.638 0-2.264 0.637-0.624 1.671-0.624 2.309 0l1.155 1.133 2.788-2.733c0.639-0.624 1.672-0.624 2.309 0z"></path>
</svg>
