<!-- Generated by IcoMoon.io -->
<svg version="1.1" xmlns="http://www.w3.org/2000/svg" width="37" height="32" viewBox="0 0 37 32">
<title>as-profile_image_minus-</title>
<path fill="#fff" d="M24 32h12.8v-3.2h-12.8v3.2zM12.818 12.643c-0.022 0-0.045-0.003-0.067-0.003-0.024 0-0.045 0.003-0.069 0.003-1.731-0.037-3.131-1.451-3.131-3.194 0-1.765 1.435-3.2 3.2-3.2s3.2 1.435 3.2 3.2c0 1.742-1.4 3.157-3.133 3.194zM7.933 13.592c-1.842 0.752-3.133 1.923-4.733 3.392v-13.784h8.195c-2.883 0.622-5.045 3.181-5.045 6.25 0 1.589 0.624 3.024 1.582 4.142zM25.541 25.6c0 0 0.010-0.106 0.010-0.171 0-5.354-3.291-9.93-7.958-11.837 0.958-1.118 1.558-2.554 1.558-4.142 0-3.069-2.163-5.627-5.046-6.25h14.696v17.6h3.2v-20.8h-32v32h20.8v-3.2h-17.6v-3.2c-0.061 0-0.050-0.104-0.050-0.171 0-5.27 4.27-9.549 9.531-9.586 0.024 0 0.045 0.006 0.069 0.006 0.022 0 0.045-0.006 0.067-0.006 5.262 0.037 9.533 4.31 9.533 9.581 0 0.064-0.008 0.176-0.010 0.176h3.2z"></path>
</svg>
