<!-- Generated by IcoMoon.io -->
<svg version="1.1" xmlns="http://www.w3.org/2000/svg" width="32" height="32" viewBox="0 0 32 32">
<title>as-pause_focus-</title>
<path fill="#fff" d="M18.909 20.364c0.803 0 1.455-0.652 1.455-1.455v-8.727c0-0.803-0.652-1.455-1.455-1.455s-1.455 0.652-1.455 1.455v8.727c0 0.803 0.652 1.455 1.455 1.455zM10.182 8.727c-0.803 0-1.455 0.652-1.455 1.455v8.727c0 0.803 0.652 1.455 1.455 1.455s1.455-0.652 1.455-1.455v-8.727c0-0.803-0.652-1.455-1.455-1.455zM26.182 20.364h2.909v-11.636h-2.909v11.636zM29.091 26.182v-1.455c0-0.803-0.652-1.455-1.455-1.455s-1.455 0.652-1.455 1.455v1.455h-1.455c-0.803 0-1.455 0.652-1.455 1.455s0.652 1.455 1.455 1.455h1.455v1.455c0 0.803 0.652 1.455 1.455 1.455s1.455-0.652 1.455-1.455v-1.455h1.455c0.803 0 1.455-0.652 1.455-1.455s-0.652-1.455-1.455-1.455h-1.455zM26.182 5.818h2.909v-2.909c0-1.607-1.302-2.909-2.909-2.909h-2.909v2.909h1.455c0.803 0 1.455 0.652 1.455 1.455v1.455zM0 20.364h2.909v-11.636h-2.909v11.636zM2.909 23.273h-2.909v2.909c0 1.607 1.302 2.909 2.909 2.909h2.909v-2.909h-1.455c-0.803 0-1.455-0.652-1.455-1.455v-1.455zM0 5.818h2.909v-1.455c0-0.803 0.652-1.455 1.455-1.455h1.455v-2.909h-2.909c-1.607 0-2.909 1.302-2.909 2.909v2.909zM8.727 29.091h11.636v-2.909h-11.636v2.909zM8.727 2.909h11.636v-2.909h-11.636v2.909z"></path>
</svg>
