<!-- Generated by IcoMoon.io -->
<svg version="1.1" xmlns="http://www.w3.org/2000/svg" width="32" height="32" viewBox="0 0 32 32">
<title>as-profile-</title>
<path fill="#fff" d="M15.999 15.313c-3.378 0-6.124-2.734-6.124-6.095s2.747-6.095 6.124-6.095c3.377 0 6.124 2.734 6.124 6.095s-2.747 6.095-6.124 6.095zM21.753 16.338c2.43-1.946 3.846-5.093 3.326-8.538-0.605-3.997-3.946-7.195-7.978-7.662-5.566-0.645-10.287 3.668-10.287 9.079 0 2.88 1.341 5.446 3.433 7.121-5.138 1.922-8.889 6.434-9.477 12.523-0.086 0.9 0.62 1.69 1.53 1.69 0.779 0 1.444-0.585 1.513-1.358 0.614-6.801 5.846-10.833 12.189-10.833s11.575 4.032 12.189 10.833c0.069 0.773 0.733 1.358 1.513 1.358 0.91 0 1.615-0.789 1.53-1.69-0.588-6.089-4.339-10.601-9.477-12.523z"></path>
</svg>
