<!-- Generated by IcoMoon.io -->
<svg version="1.1" xmlns="http://www.w3.org/2000/svg" width="32" height="32" viewBox="0 0 32 32">
<title>as-phone_rotation-</title>
<path fill="#fff" d="M31.55 18.235l-0.064-0.066c-0.603-0.614-1.593-0.653-2.244-0.088l-1.458 1.27v-16.152c0-1.768-1.464-3.2-3.269-3.2h-21.247c-1.806 0-3.269 1.432-3.269 3.2v1.616c0 0.875 0.724 1.584 1.618 1.584h0.033c0.894 0 1.618-0.709 1.618-1.584v-0.032c0-0.875 0.724-1.584 1.618-1.584h18.011c0.894 0 1.618 0.709 1.618 1.584v14.568l-1.317-1.203c-0.654-0.597-1.678-0.562-2.288 0.078l-0.005 0.006c-0.611 0.64-0.574 1.645 0.082 2.24l3.040 2.766c1.257 1.142 3.202 1.139 4.455-0.006l3.004-2.744c0.66-0.603 0.688-1.618 0.064-2.254zM13.075 12.784c0-0.875-0.724-1.584-1.618-1.584h-6.57c-0.894 0-1.618 0.709-1.618 1.584v14.432c0 0.875 0.724 1.584 1.618 1.584h6.57c0.894 0 1.618-0.709 1.618-1.584v-14.432zM16.344 11.2v17.6c0 1.768-1.464 3.2-3.269 3.2h-9.806c-1.806 0-3.269-1.432-3.269-3.2v-17.6c0-1.768 1.463-3.2 3.269-3.2h9.806c1.804 0 3.269 1.432 3.269 3.2zM9.806 23.984v0.032c0 0.875-0.724 1.584-1.618 1.584h-0.033c-0.894 0-1.618-0.709-1.618-1.584v-0.032c0-0.875 0.724-1.584 1.618-1.584h0.033c0.894 0 1.618 0.709 1.618 1.584z"></path>
</svg>
