<!-- Generated by IcoMoon.io -->
<svg version="1.1" xmlns="http://www.w3.org/2000/svg" width="32" height="32" viewBox="0 0 32 32">
<title>as-pocket-</title>
<path fill="#fff" d="M9.547 9.424l5.693 5.408c0.411 0.392 1.056 0.392 1.469 0.002l5.699-5.41c2.878-1.21 4.134 2.078 2.952 3.040l-7.642 7.294c-0.957 0.914-2.525 0.914-3.483 0l-7.64-7.294c-1.13-1.062 0.339-4.403 2.952-3.040zM2.8 0.8c-1.744 0.114-2.8 1.109-2.8 2.878v10.602c0 8.613 8.565 15.379 15.974 15.326 8.33-0.061 16.026-7.094 16.026-15.326v-10.602c0-1.776-1.122-2.779-2.878-2.878h-26.322z"></path>
</svg>
