<!-- Generated by IcoMoon.io -->
<svg version="1.1" xmlns="http://www.w3.org/2000/svg" width="22" height="32" viewBox="0 0 22 32">
<title>as-pin_sharp_minus-</title>
<path fill="#fff" d="M19.2 11.2c0-4.411-3.589-8-8-8s-8 3.589-8 8c0 4.8 8 16 8 16s8-11.2 8-16zM22.4 11.2c0 6.186-11.2 20.8-11.2 20.8s-11.2-14.614-11.2-20.8c0-6.186 5.014-11.2 11.2-11.2s11.2 5.014 11.2 11.2zM16 11.2c0 0.883-0.717 1.6-1.6 1.6h-6.4c-0.883 0-1.6-0.717-1.6-1.6s0.717-1.6 1.6-1.6h6.4c0.883 0 1.6 0.717 1.6 1.6z"></path>
</svg>
