<!-- Generated by IcoMoon.io -->
<svg version="1.1" xmlns="http://www.w3.org/2000/svg" width="32" height="32" viewBox="0 0 32 32">
<title>as-profile_image_favorite_round-1</title>
<path fill="#fff" d="M29.913 28.423c-2.984 2.722-3.517 3.307-7.196-0.093-4.896-4.524 0.414-9.429 3.431-5.623 0.109 0.138 0.327 0.135 0.436-0.003 2.971-3.773 8.418 1.080 3.329 5.719zM14.896 13.912c-0.822-0.067-1.064-0.056-1.761-0.004-1.894-0.406-3.319-2.081-3.319-4.084 0-2.305 1.887-4.181 4.206-4.181s4.206 1.876 4.206 4.181c0 2.007-1.431 3.687-3.333 4.088zM2.821 23.845c-0.003-0.029-0.017-0.053-0.017-0.082v-19.513c0-0.769 0.627-1.394 1.402-1.394h9.725c-3.829 0.049-6.921 3.147-6.921 6.965 0 2.014 0.872 3.816 2.245 5.087-3.498 1.615-6.022 4.958-6.435 8.937zM20.466 15.896c-0.536-0.378-1.108-0.712-1.712-0.995 1.391-1.272 2.278-3.065 2.278-5.094 0-3.818-3.092-6.902-6.921-6.951h9.725c0.774 0 1.402 0.624 1.402 1.394v12.67c0 0.701 0.571 1.268 1.276 1.268 1.063 0 1.528-0.565 1.528-1.268v-14.063c0-1.539-1.256-2.788-2.804-2.788h-22.435c-1.549 0-2.804 1.249-2.804 2.788v22.301c0 1.54 1.255 2.788 2.804 2.788h14.148c0.704 0 1.276-0.567 1.276-1.268 0-1.056-0.569-1.519-1.276-1.519h-11.379c-0.001 0-0.010-0.092-0.010-0.148 0-8.501 10.358-9.624 12.959-7.221 1.402 1.295 3.522-0.778 1.943-1.891z"></path>
</svg>
