<!-- Generated by IcoMoon.io -->
<svg version="1.1" xmlns="http://www.w3.org/2000/svg" width="32" height="32" viewBox="0 0 32 32">
<title>as-profile_close-</title>
<path fill="#fff" d="M28.568 5.658l3.432 3.394-2.288 2.264-3.432-3.395-3.434 3.395-2.288-2.264 3.434-3.394-3.434-3.394 2.288-2.264 3.434 3.395 3.432-3.395 2.288 2.264-3.432 3.394zM4.076 28.8c1.28-4.8 4.886-6.898 9.137-6.928 0.024 0 0.045-0.179 0.070-0.179 0.023 0 0.044 0.274 0.068 0.272 4.253 0.030 7.86 2.035 9.138 6.835h-18.413zM13.283 11.907c1.783 0 3.237 1.435 3.237 3.2 0 1.742-1.416 3.157-3.169 3.194-0.023 0-0.045-0.003-0.068-0.003-0.024 0-0.045 0.003-0.070 0.003-1.753-0.037-3.167-1.451-3.167-3.194 0-1.765 1.452-3.2 3.237-3.2zM18.18 19.435c0.968-1.118 1.576-2.646 1.576-4.235 0-3.534-2.898-6.446-6.473-6.446-3.576 0-6.473 2.843-6.473 6.378 0 1.587 0.607 3.011 1.575 4.13-4.721 1.906-8.048 6.843-8.048 12.198 0 0.064-0.338 0.541-0.337 0.541h26.22c0.123-6.034-3.432-10.702-8.040-12.565z"></path>
</svg>
