<!-- Generated by IcoMoon.io -->
<svg version="1.1" xmlns="http://www.w3.org/2000/svg" width="32" height="32" viewBox="0 0 32 32">
<title>as-question-1</title>
<path fill="#fff" d="M15.645 23.219c0-0.883-0.717-1.6-1.6-1.6s-1.6 0.717-1.6 1.6c0 0.883 0.717 1.6 1.6 1.6s1.6-0.717 1.6-1.6zM9.245 8c0 0.883 0.717 1.6 1.6 1.6h6.4c0.883 0 1.6 0.717 1.6 1.6s-0.717 1.6-1.6 1.6h-1.6c-1.571 0-2.845 1.274-2.845 2.845v2.774c0 0.883 0.717 1.6 1.6 1.6 0.885 0 1.6-0.717 1.6-1.6v-1.605c0-0.45 0.365-0.814 0.814-0.814h2.386c1.76 0 3.2-1.44 3.2-3.2v-3.981c0-1.336-1.083-2.419-2.419-2.419h-9.136c-0.883 0-1.6 0.717-1.6 1.6zM3.2 28.8v-25.6h25.6v25.6h-25.6zM0 32h32v-32h-32v32z"></path>
</svg>
