<!-- Generated by IcoMoon.io -->
<svg version="1.1" xmlns="http://www.w3.org/2000/svg" width="27" height="32" viewBox="0 0 27 32">
<title>as-quora-</title>
<path fill="#fff" d="M15.409 24.864c-0.62 0.155-1.248 0.216-1.855 0.216-3.226 0-7.089-1.419-7.089-10.277 0-8.854 4.045-11.301 7.271-11.301s6.976 2.107 6.976 10.965c0 4.014-0.802 6.566-1.98 8.161-0.019 0.002-0.033-0.003-0.033-0.003-2.682-3.526-6.162-2.682-6.996-2.298 0 0 0.105 0.808 0.327 2.278 1.841-0.002 2.753 0.971 3.389 2.227-0.006 0.014-0.009 0.030-0.009 0.030zM20.654 26.557c0 0 0.003-0.010 0.006-0.021 3.92-2.477 6.539-6.994 6.539-12.405 0-10.427-6.627-14.131-13.556-14.131-6.538 0-13.644 5.234-13.644 14.331 0 10.427 6.627 14.251 13.558 14.251 1.090 0 2.148-0.133 3.164-0.381 0 0 0.016 0.006 0.025 0.008 2.731 4.97 6.798 3.768 7.848 3.376 0 0-0.141-0.875-0.388-2.504-1.961-0.051-2.836-1.054-3.552-2.525z"></path>
</svg>
