<!-- Generated by IcoMoon.io -->
<svg version="1.1" xmlns="http://www.w3.org/2000/svg" width="32" height="32" viewBox="0 0 32 32">
<title>as-road_mini-1</title>
<path fill="#fff" d="M8.889 28.444v-24.889h14.222v24.889h-14.222zM5.333 32h21.333v-32h-21.333v32zM16 10.667c-0.981 0-1.778-0.796-1.778-1.778s0.796-1.778 1.778-1.778c0.981 0 1.778 0.796 1.778 1.778s-0.796 1.778-1.778 1.778zM16 14.222c0.981 0 1.778 0.796 1.778 1.778s-0.796 1.778-1.778 1.778c-0.981 0-1.778-0.796-1.778-1.778s0.796-1.778 1.778-1.778zM17.778 23.111c0-0.981-0.796-1.778-1.778-1.778s-1.778 0.796-1.778 1.778c0 0.981 0.796 1.778 1.778 1.778s1.778-0.796 1.778-1.778z"></path>
</svg>
