<!-- Generated by IcoMoon.io -->
<svg version="1.1" xmlns="http://www.w3.org/2000/svg" width="32" height="32" viewBox="0 0 32 32">
<title>as-rss_missing_plus-</title>
<path fill="#fff" d="M26.182 20.364h2.909v-11.636h-2.909v11.636zM29.091 26.182v-2.909h-2.909v2.909h-2.909v2.909h2.909v2.909h2.909v-2.909h2.909v-2.909h-2.909zM26.182 5.818h2.909v-5.818h-5.818v2.909h2.909v2.909zM0 20.364h2.909v-11.636h-2.909v11.636zM2.909 23.273h-2.909v5.818h5.818v-2.909h-2.909v-2.909zM0 0v5.818h2.909v-2.909h2.909v-2.909h-5.818zM8.727 29.091h11.636v-2.909h-11.636v2.909zM8.727 2.909h11.636v-2.909h-11.636v2.909zM7.273 19.056v2.909h2.909c0-1.606-1.302-2.909-2.909-2.909zM13.299 21.818h2.909c0-4.364-4.572-8.58-8.935-8.58v2.909c2.909 0 6.026 2.762 6.026 5.671zM22.026 21.818h-2.909c0-5.818-6.026-11.489-11.844-11.489v-2.909c7.273 0 14.753 5.671 14.753 14.399z"></path>
</svg>
