<!-- Generated by IcoMoon.io -->
<svg version="1.1" xmlns="http://www.w3.org/2000/svg" width="34" height="32" viewBox="0 0 34 32">
<title>as-star_favorite-1</title>
<path fill="#fff" d="M24.059 16.647c-1.594 1.619-2.322 3.949-1.944 6.235l0.699 4.25-3.664-2.006c-0.966-0.53-2.054-0.81-3.146-0.81-1.093 0-2.181 0.28-3.147 0.81l-3.664 2.006 0.701-4.25c0.376-2.286-0.352-4.616-1.946-6.235l-2.963-3.010 4.096-0.621c2.203-0.333 4.106-1.773 5.091-3.853l1.832-3.867 1.832 3.867c0.984 2.080 2.888 3.52 5.090 3.853l4.098 0.621-2.965 3.010zM31.126 15.093c1.718-1.746 0.771-4.787-1.605-5.147l-6.038-0.914c-0.944-0.142-1.76-0.76-2.181-1.651l-2.701-5.699c-0.531-1.122-1.565-1.682-2.597-1.682-1.034 0-2.067 0.56-2.598 1.682l-2.699 5.699c-0.422 0.891-1.238 1.509-2.181 1.651l-6.038 0.914c-2.376 0.36-3.325 3.402-1.606 5.147l4.37 4.437c0.683 0.693 0.995 1.691 0.834 2.67l-1.032 6.266c-0.322 1.95 1.166 3.534 2.854 3.534 0.445 0 0.906-0.11 1.349-0.354l5.4-2.958c0.422-0.23 0.885-0.347 1.349-0.347 0.462 0 0.925 0.117 1.347 0.347l5.402 2.958c0.443 0.243 0.902 0.354 1.347 0.354 1.688 0 3.176-1.584 2.854-3.534l-1.030-6.266c-0.162-0.979 0.149-1.978 0.832-2.67l4.37-4.437z"></path>
</svg>
