<!-- Generated by IcoMoon.io -->
<svg version="1.1" xmlns="http://www.w3.org/2000/svg" width="32" height="32" viewBox="0 0 32 32">
<title>as-send_round-</title>
<path fill="#fff" d="M18.771 16.219l9.304-9.304c0.499-0.499 1.354-0.16 1.374 0.546l0.061 2.186c0.026 0.883 0.762 1.554 1.645 1.554h-0.355c0.883 0 1.2-0.762 1.2-1.645v-6.355c0-1.76-1.44-3.2-3.2-3.2h-5.627c-0.885 0-2.373 0.68-2.373 1.563v0.005c0 0.883 1.035 1.622 1.918 1.646l2.454 0.066c0.706 0.018 1.046 0.872 0.549 1.371l-9.259 9.306c-0.624 0.624-0.602 1.637 0.024 2.262 0.624 0.624 1.659 0.626 2.285 0zM32 20.818v8.006c0 1.763-0.72 3.176-2.483 3.176h-25.613c-1.763 0-3.904-1.413-3.904-3.176v-25.613c0-1.765 2.141-3.211 3.904-3.211h8.006c0.883 0 1.6 0.717 1.6 1.6 0 0.885-0.717 1.6-1.6 1.6h-6.4c-0.883 0-2.31 0.733-2.31 1.618v20.806c0 1.763 2.141 3.176 3.904 3.176h20.806c0.883 0 0.89-0.699 0.89-1.582v-6.4c0-0.885 0.715-1.6 1.6-1.6 0.883 0 1.6 0.715 1.6 1.6z"></path>
</svg>
