<!-- Generated by IcoMoon.io -->
<svg version="1.1" xmlns="http://www.w3.org/2000/svg" width="32" height="32" viewBox="0 0 32 32">
<title>as-shopping_cart_plus_round-</title>
<path fill="#fff" d="M11.201 21.525c0-0.89 0.717-1.612 1.599-1.612h1.599v-2.193c0-0.892 0.717-1.613 1.599-1.613s1.599 0.721 1.599 1.613v2.193h1.6c0.883 0 1.6 0.722 1.6 1.612s-0.717 1.612-1.6 1.612h-1.6v1.032c0 0.89-0.716 1.612-1.599 1.612s-1.599-0.722-1.599-1.612v-1.032h-1.599c-0.883 0-1.599-0.722-1.599-1.612zM24.732 26.662c-0.144 0.761-0.803 1.313-1.572 1.313h-14.293c-0.781 0-1.449-0.569-1.577-1.348l-1.91-11.552h21.527l-2.175 11.587zM30.394 11.85h-3.199l-5.635-10.131c-0.443-0.771-1.42-1.18-2.186-0.735-0.765 0.445-1.027 1.65-0.584 2.42l4.712 8.446h-15.006l4.712-8.519c0.443-0.771 0.181-1.903-0.584-2.348-0.766-0.445-1.743 0.037-2.186 0.808l-5.635 10.059h-3.199c-1.937 0-2.518 3.225 0.533 3.225l2.22 13.43c0.258 1.554 1.593 2.694 3.156 2.694h16.973c1.563 0 2.898-1.14 3.156-2.694l2.22-13.43c3.082 0 2.442-3.225 0.533-3.225z"></path>
</svg>
