<!-- Generated by IcoMoon.io -->
<svg version="1.1" xmlns="http://www.w3.org/2000/svg" width="32" height="32" viewBox="0 0 32 32">
<title>as-thermometer_up-</title>
<path fill="#fff" d="M7.59 0.719l2.878 2.339c0.747 0.608 0.787 1.733 0.083 2.39-0.606 0.566-1.545 0.573-2.157 0.014l-1.207-1.098-0.071 10.771c-0.006 0.885-0.729 1.595-1.615 1.589-0.885-0.006-1.596-0.728-1.59-1.611l0.069-10.496-1.261 1.014c-0.635 0.51-1.555 0.459-2.128-0.12l-0.131-0.131c-0.668-0.675-0.598-1.781 0.149-2.366l2.979-2.333c1.178-0.923 2.84-0.907 4.002 0.037zM26.234 28.204c-3.050 1.657-6.561-0.563-6.683-4.029-0.064-1.838 0.885-3.521 2.188-4.398 0.437-0.296 0.699-0.784 0.699-1.31v-2.467h3.205v2.542c0 0.55 0.288 1.050 0.752 1.347 1.298 0.834 2.383 2.357 2.383 4.11 0 1.808-1.040 3.386-2.543 4.205zM22.549 12.8h3.205v-3.2h-3.205v3.2zM24.152 3.2c0.885 0 1.603 0.717 1.603 1.6v1.6h-3.205v-1.6c0-0.883 0.716-1.6 1.603-1.6zM28.848 17.297v-14.097c0-1.768-1.434-3.2-3.205-3.2h-3.205c-1.769 0-3.205 1.432-3.205 3.2v14.104c0 0.213-0.085 0.408-0.236 0.558-2.814 2.8-4.845 9.15 0.938 13.171 1.085 0.754 2.854 0.994 4.177 0.965 4.345-0.094 7.89-3.638 7.89-7.998 0-2.475-1.396-4.669-2.907-6.134-0.156-0.15-0.245-0.352-0.245-0.568z"></path>
</svg>
