<!-- Generated by IcoMoon.io -->
<svg version="1.1" xmlns="http://www.w3.org/2000/svg" width="27" height="32" viewBox="0 0 27 32">
<title>as-thermometer_close-</title>
<path fill="#fff" d="M7.084 6.869l-1.104 1.131 1.104 1.131c0.611 0.626 0.611 1.638 0 2.262-0.611 0.626-1.599 0.626-2.209 0l-1.104-1.131-1.104 1.131c-0.611 0.626-1.599 0.626-2.21 0-0.609-0.624-0.609-1.637 0-2.262l1.104-1.131-1.104-1.131c-0.609-0.626-0.609-1.638 0-2.262 0.611-0.626 1.599-0.626 2.21 0l1.104 1.131 1.104-1.131c0.609-0.626 1.598-0.626 2.209 0 0.611 0.624 0.611 1.637 0 2.262zM19.39 28.8c-2.585 0-4.686-2.154-4.686-4.8 0-2.083 1.309-3.841 3.124-4.505v-3.494h3.124v3.494c1.813 0.664 3.124 2.422 3.124 4.505 0 2.646-2.102 4.8-4.686 4.8zM17.828 12.8h3.124v-3.2h-3.124v3.2zM17.828 4.8c0-0.883 0.698-1.6 1.562-1.6 0.862 0 1.562 0.717 1.562 1.6v1.6h-3.124v-1.6zM24.076 17.637v-14.437c0-1.768-1.4-3.2-3.124-3.2h-3.124c-1.726 0-3.124 1.432-3.124 3.2v14.437c-2.24 1.733-3.566 4.643-2.99 7.859 0.558 3.12 2.969 5.682 6.001 6.326 5.045 1.072 9.484-2.845 9.484-7.822 0-2.608-1.239-4.904-3.124-6.363z"></path>
</svg>
