<!-- Generated by IcoMoon.io -->
<svg version="1.1" xmlns="http://www.w3.org/2000/svg" width="32" height="32" viewBox="0 0 32 32">
<title>as-umbrella_round-1</title>
<path fill="#fff" d="M23.21 14.4c-0.314-3.2-1.498-7.373-3.53-10.654 4.773 1.437 8.373 5.854 9.008 10.654h-5.478zM17.6 14.4h-5.611c0.354-3.2 1.704-7.28 4.002-10.395 2.304 3.114 3.658 7.195 4.016 10.395h-2.406zM8.787 14.4h-5.477c0.635-4.8 4.226-9.21 8.99-10.65-2.026 3.28-3.203 7.45-3.514 10.65zM16.851 0.043c-0.13-0.006-0.258-0.016-0.387-0.019-0.157-0.005-0.309-0.024-0.464-0.024-0.149 0-0.291 0.018-0.438 0.022-0.147 0.003-0.293 0.014-0.438 0.022-8.426 0.458-15.123 7.414-15.123 15.955 0 0.541 0.029 1.6 0.082 1.6h14.318v9.6c0 0.883-0.717 1.6-1.6 1.6-0.885 0-1.6-0.717-1.6-1.6v-1.6c0-0.883-0.717-1.6-1.6-1.6-0.885 0-1.6 0.717-1.6 1.6v3.2c0 1.768 1.432 3.2 3.2 3.2h3.2c1.766 0 3.2-1.432 3.2-3.2v-11.2h14.317c0.053 0 0.083-1.059 0.083-1.6 0-8.549-6.71-15.512-15.149-15.957z"></path>
</svg>
