<!-- Generated by IcoMoon.io -->
<svg version="1.1" xmlns="http://www.w3.org/2000/svg" width="19" height="32" viewBox="0 0 19 32">
<title>as-usb-</title>
<path fill="#fff" d="M11.2 25.6c0 0.883-0.717 1.6-1.6 1.6s-1.6-0.717-1.6-1.6v-1.6h3.2v1.6zM14.4 19.2h-9.6c-0.883 0-1.6-0.717-1.6-1.6v-12.8c0-0.883 0.717-1.6 1.6-1.6h9.6c0.883 0 1.6 0.717 1.6 1.6v12.8c0 0.883-0.717 1.6-1.6 1.6zM11.2 28.8h-3.2c-0.883 0-1.6-0.717-1.6-1.6v-4.8h6.4v4.8c0 0.883-0.717 1.6-1.6 1.6zM0 3.2v16c0 1.768 1.432 3.2 3.2 3.2v6.4c0 1.768 1.432 3.2 3.2 3.2h6.4c1.768 0 3.2-1.432 3.2-3.2v-6.4c1.768 0 3.2-1.432 3.2-3.2v-16c0-1.768-1.432-3.2-3.2-3.2h-12.8c-1.768 0-3.2 1.432-3.2 3.2z"></path>
</svg>
