<!-- Generated by IcoMoon.io -->
<svg version="1.1" xmlns="http://www.w3.org/2000/svg" width="32" height="32" viewBox="0 0 32 32">
<title>as-volume_medium-</title>
<path fill="#fff" d="M30.667 8.25c0.736 0 1.333 0.597 1.333 1.333v13.333c0 0.736-0.597 1.333-1.333 1.333s-1.333-0.597-1.333-1.333v-13.333c0-0.736 0.597-1.333 1.333-1.333zM24 20.25v-8c0-0.736 0.597-1.333 1.333-1.333s1.333 0.597 1.333 1.333v8c0 0.736-0.597 1.333-1.333 1.333s-1.333-0.597-1.333-1.333zM5.333 18.917h-1.333c-0.736 0-1.333-0.597-1.333-1.333v-2.667c0-0.736 0.597-1.333 1.333-1.333h1.333v5.333zM8 11.898c3.556-1.779 6.357-3.179 9.695-4.848 0.444-0.221 0.972 0.097 0.972 0.593v15.88c0 0.496-0.528 0.815-0.972 0.593-3.336-1.669-6.139-3.071-9.695-4.848v-7.371zM0 13.583v5.333c0 1.473 1.193 2.667 2.667 2.667h2.223l12.691 5.66c1.764 0.787 3.753-0.504 3.753-2.436v-18.137c0-2.008-2.135-3.295-3.909-2.359l-12.535 6.605h-2.223c-1.473 0-2.667 1.193-2.667 2.667z"></path>
</svg>
