<!-- Generated by IcoMoon.io -->
<svg version="1.1" xmlns="http://www.w3.org/2000/svg" width="32" height="32" viewBox="0 0 32 32">
<title>as-wifi-4</title>
<path fill="#fff" d="M13.714 24.938l2.285 2.262 2.285-2.262c-1.262-1.25-3.309-1.25-4.571 0zM9.143 20.413l2.285 2.262c2.52-2.496 6.622-2.496 9.143 0l2.285-2.262c-3.787-3.75-9.927-3.75-13.714 0zM0 11.362l2.285 2.262c7.562-7.486 19.867-7.486 27.428 0l2.287-2.262c-8.838-8.749-23.164-8.749-32 0zM27.428 15.886l-2.285 2.262c-5.041-4.99-13.243-4.99-18.286 0l-2.285-2.262c6.311-6.248 16.545-6.248 22.857 0z"></path>
</svg>
