<!-- Generated by IcoMoon.io -->
<svg version="1.1" xmlns="http://www.w3.org/2000/svg" width="34" height="32" viewBox="0 0 34 32">
<title>as-window_plus-1</title>
<path fill="#fff" d="M30.404 3.2h-1.6v-1.6c0-0.883-0.717-1.6-1.6-1.6s-1.6 0.717-1.6 1.6v1.6h-1.6c-0.883 0-1.6 0.717-1.6 1.6s0.717 1.6 1.6 1.6h1.6v1.6c0 0.883 0.717 1.6 1.6 1.6s1.6-0.717 1.6-1.6v-1.6h1.6c0.883 0 1.6-0.717 1.6-1.6s-0.717-1.6-1.6-1.6zM28.804 14.502v14.501c0 1.712-1.282 2.997-2.994 2.997h-22.6c-1.712 0-3.206-1.285-3.206-2.997v-22.6c0-1.712 1.494-3.203 3.206-3.203h14.501c0.883 0 1.493 0.742 1.493 1.626v0.026c0 0.883-0.61 1.549-1.493 1.549h-12.8c-0.885 0-1.707 0.819-1.707 1.702v19.2c0 0.885 0.822 1.498 1.707 1.498h19.2c0.883 0 1.493-0.613 1.493-1.498v-12.8c0-0.883 0.742-1.702 1.627-1.702h0.026c0.885 0 1.547 0.819 1.547 1.702z"></path>
</svg>
