<!-- Generated by IcoMoon.io -->
<svg version="1.1" xmlns="http://www.w3.org/2000/svg" width="32" height="32" viewBox="0 0 32 32">
<title>as-wifi-7</title>
<path fill="#fff" d="M13.738 21.904l2.262 2.262 2.262-2.262c-1.25-1.25-3.275-1.25-4.525 0zM9.213 17.379l2.262 2.262c2.494-2.496 6.555-2.496 9.051 0l2.262-2.262c-3.749-3.75-9.827-3.75-13.576 0zM4.686 12.853l2.262 2.262c4.992-4.99 13.112-4.99 18.102 0l2.262-2.262c-6.248-6.248-16.379-6.248-22.627 0zM28.8 22.4h3.2v-12.8h-3.2v12.8zM28.8 28.8h-3.2v3.2h6.4v-6.4h-3.2v3.2zM25.6 0v3.2h3.2v3.2h3.2v-6.4h-6.4zM0 22.4h3.2v-12.8h-3.2v12.8zM3.2 25.6h-3.2v6.4h6.4v-3.2h-3.2v-3.2zM3.2 3.2h3.2v-3.2h-6.4v6.4h3.2v-3.2zM9.6 32h12.8v-3.2h-12.8v3.2zM9.6 3.2h12.8v-3.2h-12.8v3.2z"></path>
</svg>
