<!-- Generated by IcoMoon.io -->
<svg version="1.1" xmlns="http://www.w3.org/2000/svg" width="32" height="32" viewBox="0 0 32 32">
<title>as-wifi-3</title>
<path fill="#fff" d="M0 27.477v4.523h4.555c0-2.499-2.038-4.523-4.555-4.523zM0 18.091v4.523c4.555 0 9.224 4.523 9.224 9.045h4.555c0-6.784-6.947-13.568-13.779-13.568zM0 0v4.523c15.943 0 27.445 11.307 27.445 27.136h4.555c0-18.091-13.779-31.659-32-31.659zM22.89 31.659h-4.555c0-11.307-9.224-18.091-18.334-18.091v-4.523c13.665 0 22.89 9.045 22.89 22.613z"></path>
</svg>
