<!-- Generated by IcoMoon.io -->
<svg version="1.1" xmlns="http://www.w3.org/2000/svg" width="22" height="32" viewBox="0 0 22 32">
<title>as-watch-4</title>
<path fill="#fff" d="M14.4 16c0 0.883-0.717 1.6-1.6 1.6h-4.8v-4.8c0-0.883 0.717-1.6 1.6-1.6s1.6 0.717 1.6 1.6v1.6h1.6c0.883 0 1.6 0.717 1.6 1.6zM16 20.8c0 0.883-0.717 1.6-1.6 1.6h-9.6c-0.883 0-1.6-0.717-1.6-1.6v-9.6c0-0.883 0.717-1.6 1.6-1.6h9.6c0.883 0 1.6 0.717 1.6 1.6v9.6zM6.4 28.8h6.4v-3.2h-6.4v3.2zM6.4 6.4h6.4v-3.2h-6.4v3.2zM19.2 14.4v-4.8c0-1.768-1.432-3.2-3.2-3.2v-6.4h-12.8v6.4c-1.768 0-3.2 1.432-3.2 3.2v12.8c0 1.766 1.432 3.2 3.2 3.2v6.4h12.8v-6.4c1.768 0 3.2-1.434 3.2-3.2v-4.8h3.2v-3.2h-3.2z"></path>
</svg>
