<!-- Generated by IcoMoon.io -->
<svg version="1.1" xmlns="http://www.w3.org/2000/svg" width="32" height="32" viewBox="0 0 32 32">
<title>as-wifi-1</title>
<path fill="#fff" d="M12.578 25.739l1.711 1.815c0.946 1.004 2.478 1.004 3.421 0l1.711-1.815c-1.89-2.006-4.953-2.006-6.842 0zM5.736 18.477l3.421 3.631c3.772-4.006 9.913-4.006 13.687 0l3.421-3.631c-5.669-6.019-14.861-6.019-20.529 0zM31.291 13.141l-1.604 1.702c-7.559-8.022-19.813-8.022-27.374 0l-1.604-1.702c-1.026-1.089-0.922-2.891 0.213-3.854 8.797-7.46 21.362-7.46 30.159 0 1.135 0.963 1.236 2.766 0.21 3.854z"></path>
</svg>
