<!-- Generated by IcoMoon.io -->
<svg version="1.1" xmlns="http://www.w3.org/2000/svg" width="32" height="32" viewBox="0 0 32 32">
<title>as-zoom_in-1</title>
<path fill="#fff" d="M13.718 10.693h4.571v3.055h-4.571v4.583h-3.048v-4.583h-4.571v-3.055h4.571v-4.583h3.048v4.583zM30.48 28.392l-2.155 2.16-6.466-6.482 2.155-2.16 6.466 6.482zM12.195 21.463c-5.041 0-9.143-4.111-9.143-9.166 0-5.053 4.102-9.166 9.143-9.166s9.143 4.112 9.143 9.166c0 5.055-4.102 9.166-9.143 9.166zM12.195 0.076c-6.732 0-12.19 5.472-12.19 12.221 0 6.751 5.458 12.221 12.19 12.221s12.191-5.47 12.191-12.221c0-6.749-5.458-12.221-12.191-12.221z"></path>
</svg>
