<!-- Generated by IcoMoon.io -->
<svg version="1.1" xmlns="http://www.w3.org/2000/svg" width="32" height="32" viewBox="0 0 32 32">
<title>mi-align-center</title>
<path fill="#fff" d="M25.333 9.333h-18.667c-0.8 0-1.333-0.533-1.333-1.333s0.533-1.333 1.333-1.333h18.667c0.8 0 1.333 0.533 1.333 1.333s-0.533 1.333-1.333 1.333z"></path>
<path fill="#fff" d="M21.333 14.667h-10.667c-0.8 0-1.333-0.533-1.333-1.333s0.533-1.333 1.333-1.333h10.667c0.8 0 1.333 0.533 1.333 1.333s-0.533 1.333-1.333 1.333z"></path>
<path fill="#fff" d="M25.333 20h-17.333c-0.8 0-1.333-0.533-1.333-1.333s0.533-1.333 1.333-1.333h17.333c0.8 0 1.333 0.533 1.333 1.333s-0.533 1.333-1.333 1.333z"></path>
<path fill="#fff" d="M22.667 25.333h-12c-0.8 0-1.333-0.533-1.333-1.333s0.533-1.333 1.333-1.333h12c0.8 0 1.333 0.533 1.333 1.333s-0.533 1.333-1.333 1.333z"></path>
</svg>
