<!-- Generated by IcoMoon.io -->
<svg version="1.1" xmlns="http://www.w3.org/2000/svg" width="32" height="32" viewBox="0 0 32 32">
<title>mi-bell</title>
<path fill="#fff" d="M24 14.667c-0.8 0-1.333-0.533-1.333-1.333 0-3.733-2.933-6.667-6.667-6.667s-6.667 2.933-6.667 6.667c0 0.8-0.533 1.333-1.333 1.333s-1.333-0.533-1.333-1.333c0-5.2 4.133-9.333 9.333-9.333s9.333 4.133 9.333 9.333c0 0.8-0.533 1.333-1.333 1.333z"></path>
<path fill="#fff" d="M28 26.667c-2.933 0-5.333-3.467-5.333-8 0-0.8 0.533-1.333 1.333-1.333s1.333 0.533 1.333 1.333c0 3.067 1.467 5.333 2.667 5.333 0.8 0 1.333 0.533 1.333 1.333s-0.533 1.333-1.333 1.333z"></path>
<path fill="#fff" d="M4 26.667c-0.8 0-1.333-0.533-1.333-1.333s0.533-1.333 1.333-1.333c1.2 0 2.667-2.267 2.667-5.333 0-0.8 0.533-1.333 1.333-1.333s1.333 0.533 1.333 1.333c0 4.533-2.4 8-5.333 8z"></path>
<path fill="#fff" d="M28 26.667h-24c-0.8 0-1.333-0.533-1.333-1.333s0.533-1.333 1.333-1.333h24c0.8 0 1.333 0.533 1.333 1.333s-0.533 1.333-1.333 1.333z"></path>
<path fill="#fff" d="M8 20c-0.8 0-1.333-0.533-1.333-1.333v-5.333c0-0.8 0.533-1.333 1.333-1.333s1.333 0.533 1.333 1.333v5.333c0 0.8-0.533 1.333-1.333 1.333z"></path>
<path fill="#fff" d="M24 20c-0.8 0-1.333-0.533-1.333-1.333v-5.333c0-0.8 0.533-1.333 1.333-1.333s1.333 0.533 1.333 1.333v5.333c0 0.8-0.533 1.333-1.333 1.333z"></path>
<path fill="#fff" d="M16 32c-2.933 0-5.333-2.4-5.333-5.333 0-0.667 0.133-1.2 0.267-1.867 0.267-0.667 1.067-1.067 1.733-0.8s1.067 1.067 0.8 1.733c-0.133 0.4-0.133 0.667-0.133 0.933 0 1.467 1.2 2.667 2.667 2.667s2.667-1.2 2.667-2.667c0-0.267 0-0.533-0.133-0.8-0.267-0.667 0.133-1.467 0.8-1.733s1.467 0.133 1.733 0.8c0.267 0.533 0.267 1.2 0.267 1.867 0 2.8-2.4 5.2-5.333 5.2z"></path>
<path fill="#fff" d="M16 6.667c-0.8 0-1.333-0.533-1.333-1.333v-4c0-0.8 0.533-1.333 1.333-1.333s1.333 0.533 1.333 1.333v4c0 0.8-0.533 1.333-1.333 1.333z"></path>
</svg>
