<!-- Generated by IcoMoon.io -->
<svg version="1.1" xmlns="http://www.w3.org/2000/svg" width="32" height="32" viewBox="0 0 32 32">
<title>mi-chat</title>
<path fill="#fff" d="M14.267 26.667c-0.667 0-1.333-0.533-1.333-1.2 0-0.8 0.533-1.333 1.2-1.467 5.6-0.4 9.867-5.067 9.867-10.667 0-5.867-4.8-10.667-10.667-10.667s-10.667 4.8-10.667 10.667c0 4.133 2.4 7.867 6.133 9.6 0.667 0.267 0.933 1.067 0.667 1.733s-1.067 0.933-1.733 0.667c-4.667-2.133-7.733-6.8-7.733-12 0-7.333 6-13.333 13.333-13.333s13.333 6 13.333 13.333c0 6.933-5.467 12.8-12.4 13.333 0 0 0 0 0 0z"></path>
<path fill="#fff" d="M6.667 32c-0.533 0-1.067-0.4-1.2-0.933s0-1.2 0.533-1.467c0.267-0.267 2.933-2.4 1.333-4.667-0.4-0.533-0.267-1.467 0.267-1.867 0.4-0.4 1.2-0.267 1.733 0.267 1.333 1.867 1.333 3.733 0.667 5.333 1.333-0.667 2.4-2 2.933-3.733 0.267-0.667 0.933-1.067 1.733-0.933 0.667 0.267 1.067 0.933 0.933 1.6-0.8 2.4-2.933 6.4-8.933 6.4z"></path>
<path fill="#fff" d="M22.667 28.4c-0.133 0-0.133 0 0 0-2.667-0.133-4.8-1.2-6.267-2.933-0.533-0.533-0.4-1.467 0.133-1.867 0.533-0.533 1.467-0.4 1.867 0.133 1.067 1.2 2.4 1.867 4.267 2 0.8 0 1.333 0.667 1.2 1.467 0 0.667-0.533 1.2-1.2 1.2z"></path>
<path fill="#fff" d="M26.533 28c-0.533 0-0.933-0.267-1.2-0.8-0.267-0.667 0-1.467 0.667-1.733 2.133-0.933 3.467-3.067 3.467-5.467 0-2.667-1.733-5.067-4.4-5.733-0.667-0.267-1.067-0.933-0.933-1.6s0.933-1.067 1.6-0.933c3.733 1.067 6.267 4.533 6.267 8.4 0 3.333-2 6.4-4.933 7.867-0.267 0-0.4 0-0.533 0z"></path>
<path fill="#fff" d="M27.467 32c-2.933 0-5.067-1.6-5.867-4.267-0.267-0.667 0.133-1.467 0.933-1.6 0.667-0.267 1.467 0.133 1.733 0.933 0.133 0.4 0.267 0.8 0.533 1.2 0-0.667 0.267-1.467 0.8-2.267 0.4-0.533 1.333-0.667 1.867-0.267s0.667 1.333 0.267 1.867c-0.8 1.067 0.533 2 0.667 2.133 0.4 0.4 0.667 0.933 0.533 1.467-0.4 0.4-0.933 0.8-1.467 0.8z"></path>
<path fill="#fff" d="M18.667 12h-10.667c-0.8 0-1.333-0.533-1.333-1.333s0.533-1.333 1.333-1.333h10.667c0.8 0 1.333 0.533 1.333 1.333s-0.533 1.333-1.333 1.333z"></path>
<path fill="#fff" d="M16 17.333h-8c-0.8 0-1.333-0.533-1.333-1.333s0.533-1.333 1.333-1.333h8c0.8 0 1.333 0.533 1.333 1.333s-0.533 1.333-1.333 1.333z"></path>
</svg>
