<!-- Generated by IcoMoon.io -->
<svg version="1.1" xmlns="http://www.w3.org/2000/svg" width="32" height="32" viewBox="0 0 32 32">
<title>mi-contrast</title>
<path fill="#fff" d="M30.667 16c0 8.133-5.333 14.667-14.667 14.667v-29.333c9.333 0 14.667 6.533 14.667 14.667z"></path>
<path fill="#fff" d="M16 32c-0.8 0-1.333-0.533-1.333-1.333v-29.333c0-0.8 0.533-1.333 1.333-1.333 9.467 0 16 6.533 16 16s-6.533 16-16 16zM17.333 2.667v26.667c8.267-0.667 12-6.933 12-13.333s-3.733-12.667-12-13.333z"></path>
<path fill="#fff" d="M16 32c-8.8 0-16-7.2-16-16s7.2-16 16-16c0.8 0 1.333 0.533 1.333 1.333v29.333c0 0.8-0.533 1.333-1.333 1.333zM14.667 2.667c-6.667 0.8-12 6.4-12 13.333s5.333 12.533 12 13.333v-26.667z"></path>
</svg>
