<!-- Generated by IcoMoon.io -->
<svg version="1.1" xmlns="http://www.w3.org/2000/svg" width="32" height="32" viewBox="0 0 32 32">
<title>mi-download</title>
<path fill="#fff" d="M6.667 12c-0.8 0-1.333-0.533-1.333-1.333 0-5.2 4.133-9.333 9.333-9.333 4 0 7.6 2.667 8.933 6.533 0.133 0.667-0.133 1.467-0.933 1.6-0.667 0.267-1.467-0.133-1.733-0.8-0.8-2.8-3.333-4.667-6.267-4.667-3.733 0-6.667 2.933-6.667 6.667 0 0.8-0.533 1.333-1.333 1.333z"></path>
<path fill="#fff" d="M24 22.667c-0.8 0-1.333-0.533-1.333-1.333s0.533-1.333 1.333-1.333c2.933 0 5.333-2.4 5.333-5.333s-2.4-5.333-5.333-5.333c-0.4 0-0.933 0-1.333 0.133-0.667 0.133-1.467-0.267-1.6-0.933s0.267-1.467 0.933-1.6c0.667-0.133 1.333-0.267 2-0.267 4.4 0 8 3.6 8 8s-3.6 8-8 8z"></path>
<path fill="#fff" d="M10.667 22.667h-4c-0.8 0-1.333-0.533-1.333-1.333s0.533-1.333 1.333-1.333h4c0.8 0 1.333 0.533 1.333 1.333s-0.533 1.333-1.333 1.333z"></path>
<path fill="#fff" d="M24 22.667h-2.667c-0.8 0-1.333-0.533-1.333-1.333s0.533-1.333 1.333-1.333h2.667c0.8 0 1.333 0.533 1.333 1.333s-0.533 1.333-1.333 1.333z"></path>
<path fill="#fff" d="M6.667 22.667c-3.733 0-6.667-2.933-6.667-6.667s2.933-6.667 6.667-6.667c0.8 0 1.333 0.533 1.333 1.333s-0.533 1.333-1.333 1.333c-2.267 0-4 1.733-4 4s1.733 4 4 4c0.8 0 1.333 0.533 1.333 1.333s-0.533 1.333-1.333 1.333z"></path>
<path fill="#fff" d="M16 30.667c-0.8 0-1.333-0.533-1.333-1.333v-12c0-0.8 0.533-1.333 1.333-1.333s1.333 0.533 1.333 1.333v12c0 0.8-0.533 1.333-1.333 1.333z"></path>
<path fill="#fff" d="M16 30.667c-0.4 0-0.667-0.133-0.933-0.4-0.533-0.533-0.533-1.333 0-1.867l4-4c0.533-0.533 1.333-0.533 1.867 0s0.533 1.333 0 1.867l-4 4c-0.267 0.267-0.533 0.4-0.933 0.4z"></path>
<path fill="#fff" d="M16 30.667c-0.4 0-0.667-0.133-0.933-0.4l-4-4c-0.533-0.533-0.533-1.333 0-1.867s1.333-0.533 1.867 0l4 4c0.533 0.533 0.533 1.333 0 1.867-0.267 0.267-0.533 0.4-0.933 0.4z"></path>
</svg>
