<!-- Generated by IcoMoon.io -->
<svg version="1.1" xmlns="http://www.w3.org/2000/svg" width="32" height="32" viewBox="0 0 32 32">
<title>mi-education</title>
<path fill="#fff" d="M16 18.667c-0.133 0-0.267 0-0.4-0.133l-14.667-5.333c-0.533-0.133-0.933-0.667-0.933-1.2s0.4-1.067 0.933-1.2l14.667-5.333c0.267-0.133 0.667-0.133 0.933 0l14.667 5.333c0.4 0.133 0.8 0.667 0.8 1.2s-0.4 1.067-0.933 1.2l-14.667 5.333c-0.133 0.133-0.267 0.133-0.4 0.133zM5.2 12l10.8 3.867 10.8-3.867-10.8-3.867-10.8 3.867z"></path>
<path fill="#fff" d="M25.333 26.667h-9.333c-0.8 0-1.333-0.533-1.333-1.333s0.533-1.333 1.333-1.333h8c-0.133-3.467-0.933-6.4-2.267-8.533-0.4-0.667-0.133-1.467 0.4-1.867 0.667-0.4 1.467-0.133 1.867 0.4 1.733 2.8 2.667 6.667 2.667 11.2 0 0.933-0.533 1.467-1.333 1.467z"></path>
<path fill="#fff" d="M16 26.667h-9.333c-0.8 0-1.333-0.533-1.333-1.333 0-4.533 0.933-8.4 2.667-11.2 0.4-0.667 1.2-0.8 1.867-0.4s0.8 1.2 0.4 1.867c-1.333 2.133-2.133 5.067-2.267 8.533h8c0.8 0 1.333 0.533 1.333 1.333s-0.533 1.2-1.333 1.2z"></path>
<path fill="#fff" d="M29.333 26.667c-0.8 0-1.333-0.533-1.333-1.333v-13.333c0-0.8 0.533-1.333 1.333-1.333s1.333 0.533 1.333 1.333v13.333c0 0.8-0.533 1.333-1.333 1.333z"></path>
</svg>
