<!-- Generated by IcoMoon.io -->
<svg version="1.1" xmlns="http://www.w3.org/2000/svg" width="32" height="32" viewBox="0 0 32 32">
<title>mi-factory</title>
<path fill="#fff" d="M9.333 32h-8c-0.8 0-1.333-0.533-1.333-1.333v-29.333c0-0.8 0.533-1.333 1.333-1.333h5.333c0.8 0 1.333 0.533 1.333 1.333v12c0 0.8-0.533 1.333-1.333 1.333s-1.333-0.533-1.333-1.333v-10.667h-2.667v26.667h6.667c0.8 0 1.333 0.533 1.333 1.333s-0.533 1.333-1.333 1.333z"></path>
<path fill="#fff" d="M30.667 32h-29.333c-0.8 0-1.333-0.533-1.333-1.333v-17.333c0-0.8 0.533-1.333 1.333-1.333s1.333 0.533 1.333 1.333v16h26.667v-14.667h-2.667c-0.8 0-1.333-0.533-1.333-1.333s0.533-1.333 1.333-1.333h4c0.8 0 1.333 0.533 1.333 1.333v17.333c0 0.8-0.533 1.333-1.333 1.333z"></path>
<path fill="#fff" d="M6.667 14.667c-0.4 0-0.8-0.133-1.067-0.533-0.4-0.533-0.4-1.467 0.267-1.867l6.667-5.333c0.4-0.267 0.933-0.4 1.467-0.133 0.4 0.267 0.667 0.667 0.667 1.2v5.333c0 0.8-0.533 1.333-1.333 1.333s-1.333-0.533-1.333-1.333v-2.533l-4.533 3.6c-0.267 0.133-0.533 0.267-0.8 0.267z"></path>
<path fill="#fff" d="M13.333 14.667c-0.4 0-0.8-0.133-1.067-0.533-0.4-0.533-0.4-1.467 0.267-1.867l6.667-5.333c0.4-0.267 0.933-0.4 1.467-0.133 0.4 0.267 0.667 0.667 0.667 1.2v5.333c0 0.8-0.533 1.333-1.333 1.333s-1.333-0.533-1.333-1.333v-2.533l-4.533 3.6c-0.267 0.133-0.533 0.267-0.8 0.267z"></path>
<path fill="#fff" d="M20 14.667c-0.4 0-0.8-0.133-1.067-0.533-0.4-0.533-0.4-1.467 0.267-1.867l6.667-5.333c0.4-0.267 0.933-0.4 1.467-0.133 0.4 0.267 0.667 0.667 0.667 1.2v5.333c0 0.8-0.533 1.333-1.333 1.333s-1.333-0.533-1.333-1.333v-2.533l-4.533 3.6c-0.267 0.133-0.533 0.267-0.8 0.267z"></path>
<path fill="#fff" d="M25.333 32h-18.667c-0.8 0-1.333-0.533-1.333-1.333v-6.667c0-0.8 0.533-1.333 1.333-1.333h18.667c0.8 0 1.333 0.533 1.333 1.333v6.667c0 0.8-0.533 1.333-1.333 1.333zM8 29.333h16v-4h-16v4z"></path>
<path fill="#fff" d="M25.333 20h-18.667c-0.8 0-1.333-0.533-1.333-1.333s0.533-1.333 1.333-1.333h18.667c0.8 0 1.333 0.533 1.333 1.333s-0.533 1.333-1.333 1.333z"></path>
</svg>
