<!-- Generated by IcoMoon.io -->
<svg version="1.1" xmlns="http://www.w3.org/2000/svg" width="32" height="32" viewBox="0 0 32 32">
<title>mi-heart</title>
<path fill="#fff" d="M1.333 13.467c-0.667 0-1.2-0.533-1.333-1.2 0-0.267 0-0.667 0-0.933s0-0.533 0-0.8v-0.267c0-0.4 0.133-0.8 0.267-1.2 0.4-1.333 0.933-2.4 1.733-3.333 0.133-0.133 0.133-0.133 0.267-0.267 1.6-1.733 3.867-2.8 6.4-2.8 4.8 0 8.667 3.867 8.667 8.667 0 0.8-0.533 1.333-1.333 1.333s-1.333-0.533-1.333-1.333c0-3.333-2.667-6-6-6-1.733 0-3.333 0.667-4.4 2 0 0 0 0 0 0s0 0 0 0 0 0 0 0.133c-0.533 0.667-0.933 1.333-1.2 2.267-0.267 0.267-0.267 0.4-0.267 0.667v0.4c0 0.133 0 0.4 0 0.533 0 0.267 0 0.4 0 0.533 0.133 0.667-0.4 1.333-1.2 1.467-0.133 0.133-0.133 0.133-0.267 0.133z"></path>
<path fill="#fff" d="M30.667 13.467c0 0-0.133 0-0.133 0-0.8-0.133-1.333-0.8-1.2-1.467 0-0.267 0-0.4 0-0.667 0-0.133 0-0.4 0-0.533v-0.267c0 0 0-0.133 0-0.133 0-0.267-0.133-0.4-0.133-0.667-0.267-0.933-0.667-1.6-1.2-2.267 0 0 0 0-0.133-0.133-1.2-1.333-2.8-2-4.533-2-3.333 0-6 2.667-6 6 0 0.8-0.533 1.333-1.333 1.333s-1.333-0.533-1.333-1.333c0-4.8 3.867-8.667 8.667-8.667 2.533 0 4.8 1.067 6.533 2.933 0 0 0 0 0 0s0 0 0.133 0.133c0.8 0.933 1.333 2 1.733 3.2 0.133 0.267 0.133 0.667 0.267 1.067 0 0 0 0.133 0 0.133v0.267c0 0.267 0 0.533 0 0.933 0 0.267 0 0.533 0 0.933-0.133 0.667-0.667 1.2-1.333 1.2z"></path>
<path fill="#fff" d="M16 29.333c-5.733 0-15.333-9.2-16-17.2 0-0.267 0-0.533 0-0.8s0-0.533 0-0.8v-0.267c0.133-0.533 0.267-0.933 0.4-1.333s0.267-0.8 0.4-1.067c0.133-0.4 0.267-0.8 0.533-1.067l0.267-0.4c0.267-0.267 0.4-0.533 0.533-0.667 0.533-0.533 1.333-0.533 1.867-0.133 0.533 0.533 0.533 1.333 0.133 1.867-0.133 0-0.133 0.133-0.267 0.267l-0.267 0.4c-0.133 0.267-0.267 0.533-0.4 0.8s-0.267 0.533-0.267 0.8c0 0.267-0.133 0.533-0.133 0.8v0.267c0 0.133 0 0.4 0 0.533-0.133 0.133-0.133 0.4-0.133 0.667 0.533 6.4 8.8 14.667 13.333 14.667s12.8-8.4 13.333-14.667c0-0.267 0-0.4 0-0.667 0-0.133 0-0.4 0-0.533v-0.4c0-0.133-0.133-0.533-0.133-0.8-0.267-0.8-0.667-1.6-1.2-2.267-0.533-0.533-0.533-1.333 0-1.867s1.333-0.533 1.867 0c0 0 0.133 0.133 0.267 0.267 0.667 0.933 1.333 2 1.6 3.067 0.133 0.4 0.133 0.8 0.267 1.2v0.4c0 0.267 0 0.533 0 0.933 0 0.267 0 0.533 0 0.933-0.667 7.867-10.267 17.067-16 17.067z"></path>
</svg>
