<!-- Generated by IcoMoon.io -->
<svg version="1.1" xmlns="http://www.w3.org/2000/svg" width="32" height="32" viewBox="0 0 32 32">
<title>mi-id</title>
<path fill="#fff" d="M30.667 28h-29.333c-0.8 0-1.333-0.533-1.333-1.333v-21.333c0-0.8 0.533-1.333 1.333-1.333h12c0.8 0 1.333 0.533 1.333 1.333s-0.533 1.333-1.333 1.333h-10.667v18.667h26.667v-18.667h-10.667c-0.8 0-1.333-0.533-1.333-1.333s0.533-1.333 1.333-1.333h12c0.8 0 1.333 0.533 1.333 1.333v21.333c0 0.8-0.533 1.333-1.333 1.333z"></path>
<path fill="#fff" d="M18.667 9.333h-5.333c-0.8 0-1.333-0.533-1.333-1.333v-6.667c0-0.8 0.533-1.333 1.333-1.333h5.333c0.8 0 1.333 0.533 1.333 1.333v6.667c0 0.8-0.533 1.333-1.333 1.333zM14.667 6.667h2.667v-4h-2.667v4z"></path>
<path fill="#fff" d="M10.667 21.333h-4c-0.8 0-1.333-0.533-1.333-1.333v-8c0-0.8 0.533-1.333 1.333-1.333h4c0.8 0 1.333 0.533 1.333 1.333v8c0 0.8-0.533 1.333-1.333 1.333zM8 18.667h1.333v-5.333h-1.333v5.333z"></path>
<path fill="#fff" d="M24 13.333h-8c-0.8 0-1.333-0.533-1.333-1.333s0.533-1.333 1.333-1.333h8c0.8 0 1.333 0.533 1.333 1.333s-0.533 1.333-1.333 1.333z"></path>
<path fill="#fff" d="M20 17.333h-4c-0.8 0-1.333-0.533-1.333-1.333s0.533-1.333 1.333-1.333h4c0.8 0 1.333 0.533 1.333 1.333s-0.533 1.333-1.333 1.333z"></path>
<path fill="#fff" d="M22.667 21.333h-6.667c-0.8 0-1.333-0.533-1.333-1.333s0.533-1.333 1.333-1.333h6.667c0.8 0 1.333 0.533 1.333 1.333s-0.533 1.333-1.333 1.333z"></path>
</svg>
