<!-- Generated by IcoMoon.io -->
<svg version="1.1" xmlns="http://www.w3.org/2000/svg" width="32" height="32" viewBox="0 0 32 32">
<title>mi-previous</title>
<path fill="#fff" d="M28 25.333c-0.267 0-0.533-0.133-0.8-0.267l-12-8c-0.267-0.267-0.533-0.667-0.533-1.067s0.267-0.8 0.533-1.067l12-8c0.4-0.267 0.933-0.267 1.333 0 0.533 0.133 0.8 0.533 0.8 1.067v16c0 0.533-0.267 0.933-0.667 1.2-0.267 0.133-0.4 0.133-0.667 0.133zM18.4 16l8.267 5.467v-10.933l-8.267 5.467z"></path>
<path fill="#fff" d="M16 25.333c-0.267 0-0.533-0.133-0.8-0.267l-12-8c-0.267-0.267-0.533-0.667-0.533-1.067s0.267-0.8 0.533-1.067l12-8c0.4-0.267 0.933-0.267 1.333 0 0.533 0.133 0.8 0.533 0.8 1.067v16c0 0.533-0.267 0.933-0.667 1.2-0.267 0.133-0.4 0.133-0.667 0.133zM6.4 16l8.267 5.467v-10.933l-8.267 5.467z"></path>
</svg>
