<!-- Generated by IcoMoon.io -->
<svg version="1.1" xmlns="http://www.w3.org/2000/svg" width="32" height="32" viewBox="0 0 32 32">
<title>mi-pin-point</title>
<path fill="#fff" d="M21.333 22.667c-0.4 0-0.667-0.133-0.933-0.4l-10.667-10.667c-0.267-0.267-0.4-0.8-0.4-1.2 0.133-0.4 0.4-0.8 0.8-0.933l9.067-3.867 3.733-5.067c0.267-0.267 0.533-0.533 0.933-0.533s0.8 0.133 1.067 0.4l6.667 6.667c0.267 0.267 0.4 0.667 0.4 1.067s-0.267 0.8-0.533 0.933l-5.067 3.733-3.867 9.067c-0.133 0.4-0.533 0.667-0.933 0.8-0.133 0-0.133 0-0.267 0zM13.067 11.067l7.867 7.867 3.2-7.467c0.133-0.267 0.267-0.4 0.4-0.533l4.133-3.067-4.533-4.533-3.067 4.133c-0.133 0.133-0.267 0.4-0.533 0.4l-7.467 3.2z"></path>
<path fill="#fff" d="M1.333 32c-0.4 0-0.667-0.133-0.933-0.4-0.533-0.533-0.533-1.2-0.133-1.733l12.8-16.533c0.4-0.533 1.333-0.667 1.867-0.267s0.667 1.333 0.267 1.867l-6.533 8.4 8.4-6.533c0.533-0.4 1.467-0.4 1.867 0.267 0.4 0.533 0.4 1.467-0.267 1.867l-16.533 12.8c-0.267 0.133-0.533 0.267-0.8 0.267z"></path>
</svg>
