<!-- Generated by IcoMoon.io -->
<svg version="1.1" xmlns="http://www.w3.org/2000/svg" width="32" height="32" viewBox="0 0 32 32">
<title>mi-quote</title>
<path fill="#fff" d="M8 17.333c-3.733 0-6.667-2.933-6.667-6.667s2.933-6.667 6.667-6.667 6.667 2.933 6.667 6.667-2.933 6.667-6.667 6.667zM8 6.667c-2.267 0-4 1.733-4 4s1.733 4 4 4 4-1.733 4-4-1.733-4-4-4z"></path>
<path fill="#fff" d="M4 28c-0.8 0-1.333-0.533-1.333-1.333s0.533-1.333 1.333-1.333c7.867 0 8-14.533 8-14.667 0-0.8 0.533-1.333 1.333-1.333s1.333 0.533 1.333 1.333c0 0.667-0.133 17.333-10.667 17.333z"></path>
<path fill="#fff" d="M24 17.333c-3.733 0-6.667-2.933-6.667-6.667s2.933-6.667 6.667-6.667 6.667 2.933 6.667 6.667-2.933 6.667-6.667 6.667zM24 6.667c-2.267 0-4 1.733-4 4s1.733 4 4 4 4-1.733 4-4-1.733-4-4-4z"></path>
<path fill="#fff" d="M20 28c-0.8 0-1.333-0.533-1.333-1.333s0.533-1.333 1.333-1.333c7.867 0 8-14.533 8-14.667 0-0.8 0.533-1.333 1.333-1.333s1.333 0.533 1.333 1.333c0 0.667-0.133 17.333-10.667 17.333z"></path>
</svg>
