<!-- Generated by IcoMoon.io -->
<svg version="1.1" xmlns="http://www.w3.org/2000/svg" width="32" height="32" viewBox="0 0 32 32">
<title>mi-sign</title>
<path fill="#fff" d="M25.333 16h-24c-0.533 0-0.933-0.267-1.2-0.667s-0.267-0.933 0-1.333l3.6-6-3.6-6c-0.133-0.4-0.133-0.933 0-1.333 0.267-0.4 0.667-0.667 1.2-0.667h24c0.4 0 0.8 0.133 1.067 0.533l5.333 6.667c0.4 0.533 0.4 1.2 0 1.6l-5.333 6.667c-0.267 0.4-0.667 0.533-1.067 0.533zM3.733 13.333h21.067l4.267-5.333-4.267-5.333h-21.067l2.8 4.667c0.267 0.4 0.267 0.933 0 1.333l-2.8 4.667z"></path>
<path fill="#fff" d="M17.333 32h-4c-0.8 0-1.333-0.533-1.333-1.333v-16c0-0.8 0.533-1.333 1.333-1.333h4c0.8 0 1.333 0.533 1.333 1.333v16c0 0.8-0.533 1.333-1.333 1.333zM14.667 29.333h1.333v-13.333h-1.333v13.333z"></path>
</svg>
