<!-- Generated by IcoMoon.io -->
<svg version="1.1" xmlns="http://www.w3.org/2000/svg" width="32" height="32" viewBox="0 0 32 32">
<title>mi-up</title>
<path fill="#fff" d="M16 32c-8.8 0-16-7.2-16-16s7.2-16 16-16 16 7.2 16 16-7.2 16-16 16zM16 2.667c-7.333 0-13.333 6-13.333 13.333s6 13.333 13.333 13.333 13.333-6 13.333-13.333-6-13.333-13.333-13.333z"></path>
<path fill="#fff" d="M20 18.667c-0.4 0-0.667-0.133-0.933-0.4l-3.067-3.067-3.067 3.067c-0.533 0.533-1.333 0.533-1.867 0s-0.533-1.333 0-1.867l4-4c0.533-0.533 1.333-0.533 1.867 0l4 4c0.533 0.533 0.533 1.333 0 1.867-0.267 0.267-0.533 0.4-0.933 0.4z"></path>
</svg>
