<!-- Generated by IcoMoon.io -->
<svg version="1.1" xmlns="http://www.w3.org/2000/svg" width="32" height="32" viewBox="0 0 32 32">
<title>mt-airline_seat_recline_normal</title>
<path fill="#fff" d="M10.12 7.213c-1.040-1.040-1.040-2.733 0-3.773s2.733-1.040 3.773 0c1.040 1.040 1.040 2.733 0 3.773-1.053 1.053-2.733 1.053-3.773 0v0zM8 21.333v-12h-2.667v12c0 3.68 2.987 6.667 6.667 6.667h8v-2.667h-8c-2.213 0-4-1.787-4-4v0zM26.667 26.76l-6.76-6.76h-4.573v-4.907c1.867 1.533 4.8 2.88 7.333 2.88v-2.88c-2.213 0.027-4.813-1.16-6.227-2.72l-1.867-2.067c-0.253-0.28-0.573-0.507-0.92-0.667-0.387-0.187-0.827-0.307-1.28-0.307h-0.040c-1.653 0-3 1.347-3 3v7.667c0 2.213 1.787 4 4 4h6.76l4.667 4.667 1.907-1.907z"></path>
</svg>
