<!-- Generated by IcoMoon.io -->
<svg version="1.1" xmlns="http://www.w3.org/2000/svg" width="32" height="32" viewBox="0 0 32 32">
<title>mt-archive</title>
<path fill="#fff" d="M27.387 6.973l-1.853-2.24c-0.36-0.453-0.907-0.733-1.533-0.733h-16c-0.627 0-1.173 0.28-1.547 0.733l-1.84 2.24c-0.387 0.453-0.613 1.053-0.613 1.693v16.667c0 1.467 1.2 2.667 2.667 2.667h18.667c1.467 0 2.667-1.2 2.667-2.667v-16.667c0-0.64-0.227-1.24-0.613-1.693v0zM16 23.333l-7.333-7.333h4.667v-2.667h5.333v2.667h4.667l-7.333 7.333zM6.827 6.667l1.080-1.333h16l1.253 1.333h-18.333z"></path>
</svg>
