<!-- Generated by IcoMoon.io -->
<svg version="1.1" xmlns="http://www.w3.org/2000/svg" width="32" height="32" viewBox="0 0 32 32">
<title>mt-airline_seat_legroom_extra</title>
<path fill="#fff" d="M5.333 16v-12h-2.667v12c0 3.68 2.987 6.667 6.667 6.667h8v-2.667h-8c-2.213 0-4-1.787-4-4v0zM30.44 22.987c-0.507-0.96-1.72-1.293-2.707-0.84l-1.453 0.667-4.547-9.307c-0.453-0.907-1.373-1.493-2.387-1.493l-4.68-0.013v-8h-8v10.667c0 2.213 1.787 4 4 4h9.333l4.547 9.333 4.96-2.267c1.027-0.48 1.467-1.733 0.933-2.747v0z"></path>
</svg>
