<!-- Generated by IcoMoon.io -->
<svg version="1.1" xmlns="http://www.w3.org/2000/svg" width="32" height="32" viewBox="0 0 32 32">
<title>mt-airline_seat_recline_extra</title>
<path fill="#fff" d="M7.133 7.52c-1.2-0.853-1.493-2.507-0.653-3.72 0.84-1.2 2.507-1.493 3.72-0.653 1.2 0.853 1.493 2.507 0.653 3.72-0.853 1.2-2.507 1.493-3.72 0.653v0zM21.333 25.333h-9.427c-1.973 0-3.653-1.44-3.947-3.387l-2.627-12.613h-2.667l2.653 13.013c0.507 3.253 3.307 5.653 6.6 5.653h9.413v-2.667zM21.64 20h-6.507l-1.373-5.467c2.107 1.187 4.373 2.053 6.867 1.627v-2.84c-2.173 0.413-4.587-0.36-6.253-1.667l-2.187-1.693c-0.307-0.24-0.653-0.4-1.013-0.507-0.427-0.12-0.88-0.16-1.32-0.080h-0.027c-1.64 0.293-2.733 1.853-2.453 3.48l1.8 7.893c0.373 1.893 2.013 3.253 3.933 3.253h9.133l5.093 4 2-2-7.693-6z"></path>
</svg>
