<!-- Generated by IcoMoon.io -->
<svg version="1.1" xmlns="http://www.w3.org/2000/svg" width="32" height="32" viewBox="0 0 32 32">
<title>mt-business_center</title>
<path fill="#fff" d="M13.333 21.333v-1.333h-9.32l-0.013 5.333c0 1.48 1.187 2.667 2.667 2.667h18.667c1.48 0 2.667-1.187 2.667-2.667v-5.333h-9.333v1.333h-5.333zM26.667 9.333h-5.347v-2.667l-2.667-2.667h-5.333l-2.667 2.667v2.667h-5.32c-1.467 0-2.667 1.2-2.667 2.667v4c0 1.48 1.187 2.667 2.667 2.667h8v-2.667h5.333v2.667h8c1.467 0 2.667-1.2 2.667-2.667v-4c0-1.467-1.2-2.667-2.667-2.667v0zM18.667 9.333h-5.333v-2.667h5.333v2.667z"></path>
</svg>
