<!-- Generated by IcoMoon.io -->
<svg version="1.1" xmlns="http://www.w3.org/2000/svg" width="32" height="32" viewBox="0 0 32 32">
<title>mt-card_travel</title>
<path fill="#fff" d="M26.667 8h-4v-2.667c0-1.48-1.187-2.667-2.667-2.667h-8c-1.48 0-2.667 1.187-2.667 2.667v2.667h-4c-1.48 0-2.667 1.187-2.667 2.667v14.667c0 1.48 1.187 2.667 2.667 2.667h21.333c1.48 0 2.667-1.187 2.667-2.667v-14.667c0-1.48-1.187-2.667-2.667-2.667v0zM12 5.333h8v2.667h-8v-2.667zM26.667 25.333h-21.333v-2.667h21.333v2.667zM26.667 18.667h-21.333v-8h4v2.667h2.667v-2.667h8v2.667h2.667v-2.667h4v8z"></path>
</svg>
