<!-- Generated by IcoMoon.io -->
<svg version="1.1" xmlns="http://www.w3.org/2000/svg" width="32" height="32" viewBox="0 0 32 32">
<title>mt-camera_front</title>
<path fill="#fff" d="M13.333 26.667h-6.667v2.667h6.667v2.667l4-4-4-4v2.667zM18.667 26.667v2.667h6.667v-2.667h-6.667zM16 10.667c1.467 0 2.667-1.2 2.667-2.667s-1.2-2.667-2.667-2.667c-1.467 0-2.653 1.2-2.653 2.667s1.187 2.667 2.653 2.667v0zM22.667 0h-13.333c-1.467 0-2.667 1.2-2.667 2.667v18.667c0 1.467 1.2 2.667 2.667 2.667h13.333c1.467 0 2.667-1.2 2.667-2.667v-18.667c0-1.467-1.2-2.667-2.667-2.667v0zM9.333 2.667h13.333v14c0-2.227-4.44-3.333-6.667-3.333s-6.667 1.107-6.667 3.333v-14z"></path>
</svg>
