<!-- Generated by IcoMoon.io -->
<svg version="1.1" xmlns="http://www.w3.org/2000/svg" width="32" height="32" viewBox="0 0 32 32">
<title>mt-center_focus_weak</title>
<path fill="#fff" d="M6.667 20h-2.667v5.333c0 1.467 1.2 2.667 2.667 2.667h5.333v-2.667h-5.333v-5.333zM6.667 6.667h5.333v-2.667h-5.333c-1.467 0-2.667 1.2-2.667 2.667v5.333h2.667v-5.333zM25.333 4h-5.333v2.667h5.333v5.333h2.667v-5.333c0-1.467-1.2-2.667-2.667-2.667v0zM25.333 25.333h-5.333v2.667h5.333c1.467 0 2.667-1.2 2.667-2.667v-5.333h-2.667v5.333zM16 10.667c-2.947 0-5.333 2.387-5.333 5.333s2.387 5.333 5.333 5.333c2.947 0 5.333-2.387 5.333-5.333s-2.387-5.333-5.333-5.333v0zM16 18.667c-1.467 0-2.667-1.2-2.667-2.667s1.2-2.667 2.667-2.667c1.467 0 2.667 1.2 2.667 2.667s-1.2 2.667-2.667 2.667v0z"></path>
</svg>
