<!-- Generated by IcoMoon.io -->
<svg version="1.1" xmlns="http://www.w3.org/2000/svg" width="32" height="32" viewBox="0 0 32 32">
<title>mt-cloud_off</title>
<path fill="#fff" d="M25.8 13.387c-0.907-4.6-4.947-8.053-9.8-8.053-1.973 0-3.8 0.573-5.347 1.56l1.947 1.947c1.013-0.533 2.173-0.84 3.4-0.84 4.053 0 7.333 3.28 7.333 7.333v0.667h2c2.213 0 4 1.787 4 4 0 1.507-0.853 2.813-2.080 3.493l1.933 1.933c1.693-1.213 2.813-3.187 2.813-5.427 0-3.52-2.733-6.373-6.2-6.613v0zM4 7.027l3.667 3.653c-4.253 0.187-7.667 3.68-7.667 7.987 0 4.413 3.587 8 8 8h15.64l2.667 2.667 1.693-1.693-22.307-22.307-1.693 1.693zM10.307 13.333l10.667 10.667h-12.973c-2.947 0-5.333-2.387-5.333-5.333s2.387-5.333 5.333-5.333h2.307z"></path>
</svg>
