<!-- Generated by IcoMoon.io -->
<svg version="1.1" xmlns="http://www.w3.org/2000/svg" width="32" height="32" viewBox="0 0 32 32">
<title>mt-dialer_sip</title>
<path fill="#fff" d="M22.667 4h-1.333v6.667h1.333v-6.667zM20 6.667h-2.667v-1.333h2.667v-1.333h-4v4h2.667v1.333h-2.667v1.333h4v-4zM24 4v6.667h1.333v-2.667h2.667v-4h-4zM26.667 6.667h-1.333v-1.333h1.333v1.333zM26.667 20.667c-1.667 0-3.267-0.267-4.76-0.76-0.467-0.147-0.987-0.040-1.347 0.32l-2.933 2.933c-3.773-1.92-6.867-5-8.787-8.787l2.933-2.947c0.36-0.347 0.467-0.867 0.32-1.333-0.493-1.493-0.76-3.093-0.76-4.76 0-0.733-0.6-1.333-1.333-1.333h-4.667c-0.733 0-1.333 0.6-1.333 1.333 0 12.52 10.147 22.667 22.667 22.667 0.733 0 1.333-0.6 1.333-1.333v-4.667c0-0.733-0.6-1.333-1.333-1.333v0z"></path>
</svg>
