<!-- Generated by IcoMoon.io -->
<svg version="1.1" xmlns="http://www.w3.org/2000/svg" width="32" height="32" viewBox="0 0 32 32">
<title>mt-directions_bus</title>
<path fill="#fff" d="M5.333 21.333c0 1.173 0.52 2.227 1.333 2.96v2.373c0 0.733 0.6 1.333 1.333 1.333h1.333c0.733 0 1.333-0.6 1.333-1.333v-1.333h10.667v1.333c0 0.733 0.6 1.333 1.333 1.333h1.333c0.733 0 1.333-0.6 1.333-1.333v-2.373c0.813-0.733 1.333-1.787 1.333-2.96v-13.333c0-4.667-4.773-5.333-10.667-5.333s-10.667 0.667-10.667 5.333v13.333zM10 22.667c-1.107 0-2-0.893-2-2s0.893-2 2-2c1.107 0 2 0.893 2 2s-0.893 2-2 2v0zM22 22.667c-1.107 0-2-0.893-2-2s0.893-2 2-2c1.107 0 2 0.893 2 2s-0.893 2-2 2v0zM24 14.667h-16v-6.667h16v6.667z"></path>
</svg>
