<!-- Generated by IcoMoon.io -->
<svg version="1.1" xmlns="http://www.w3.org/2000/svg" width="32" height="32" viewBox="0 0 32 32">
<title>mt-data_usage</title>
<path fill="#fff" d="M17.333 2.733v4.040c4.52 0.653 8 4.52 8 9.227 0 1.2-0.24 2.333-0.64 3.387l3.467 2.040c0.747-1.653 1.173-3.493 1.173-5.427 0-6.907-5.267-12.6-12-13.267v0zM16 25.333c-5.16 0-9.333-4.173-9.333-9.333 0-4.707 3.48-8.573 8-9.227v-4.040c-6.747 0.667-12 6.347-12 13.267 0 7.36 5.96 13.333 13.32 13.333 4.413 0 8.32-2.147 10.747-5.453l-3.467-2.040c-1.707 2.133-4.32 3.493-7.267 3.493v0z"></path>
</svg>
