<!-- Generated by IcoMoon.io -->
<svg version="1.1" xmlns="http://www.w3.org/2000/svg" width="32" height="32" viewBox="0 0 32 32">
<title>mt-filter</title>
<path fill="#fff" d="M21.28 13.72l-3.667 4.72-2.613-3.147-3.667 4.707h14.667l-4.72-6.28zM4 6.667h-2.667v21.333c0 1.467 1.2 2.667 2.667 2.667h21.333v-2.667h-21.333v-21.333zM28 1.333h-18.667c-1.467 0-2.667 1.2-2.667 2.667v18.667c0 1.467 1.2 2.667 2.667 2.667h18.667c1.467 0 2.667-1.2 2.667-2.667v-18.667c0-1.467-1.2-2.667-2.667-2.667v0zM28 22.667h-18.667v-18.667h18.667v18.667z"></path>
</svg>
