<!-- Generated by IcoMoon.io -->
<svg version="1.1" xmlns="http://www.w3.org/2000/svg" width="32" height="32" viewBox="0 0 32 32">
<title>mt-flip_to_back</title>
<path fill="#fff" d="M12 9.333h-2.667v2.667h2.667v-2.667zM12 14.667h-2.667v2.667h2.667v-2.667zM12 4c-1.48 0-2.667 1.2-2.667 2.667h2.667v-2.667zM17.333 20h-2.667v2.667h2.667v-2.667zM25.333 4v2.667h2.667c0-1.467-1.2-2.667-2.667-2.667v0zM17.333 4h-2.667v2.667h2.667v-2.667zM12 22.667v-2.667h-2.667c0 1.467 1.187 2.667 2.667 2.667v0zM25.333 17.333h2.667v-2.667h-2.667v2.667zM25.333 12h2.667v-2.667h-2.667v2.667zM25.333 22.667c1.467 0 2.667-1.2 2.667-2.667h-2.667v2.667zM6.667 9.333h-2.667v16c0 1.467 1.187 2.667 2.667 2.667h16v-2.667h-16v-16zM20 6.667h2.667v-2.667h-2.667v2.667zM20 22.667h2.667v-2.667h-2.667v2.667z"></path>
</svg>
