<!-- Generated by IcoMoon.io -->
<svg version="1.1" xmlns="http://www.w3.org/2000/svg" width="32" height="32" viewBox="0 0 32 32">
<title>mt-forward_5</title>
<path fill="#fff" d="M5.333 17.333c0 5.867 4.8 10.667 10.667 10.667s10.667-4.8 10.667-10.667h-2.667c0 4.4-3.6 8-8 8s-8-3.6-8-8c0-4.4 3.6-8 8-8v5.333l6.667-6.667-6.667-6.667v5.333c-5.867 0-10.667 4.8-10.667 10.667v0zM13.888 18.536l0.328-2.891h3.187v0.941h-2.262l-0.141 1.223c0.268-0.143 0.553-0.215 0.855-0.215 0.542 0 0.966 0.168 1.273 0.504s0.461 0.806 0.461 1.41c0 0.367-0.077 0.696-0.233 0.986s-0.377 0.516-0.666 0.676-0.63 0.24-1.023 0.24c-0.344 0-0.663-0.070-0.957-0.209s-0.527-0.335-0.697-0.588c-0.171-0.253-0.261-0.54-0.271-0.863h1.117c0.023 0.237 0.106 0.421 0.248 0.553s0.327 0.197 0.557 0.197c0.255 0 0.452-0.092 0.59-0.275s0.207-0.443 0.207-0.779c0-0.323-0.079-0.57-0.238-0.742s-0.384-0.258-0.676-0.258c-0.268 0-0.486 0.070-0.652 0.211l-0.109 0.101-0.898-0.223z"></path>
</svg>
