<!-- Generated by IcoMoon.io -->
<svg version="1.1" xmlns="http://www.w3.org/2000/svg" width="32" height="32" viewBox="0 0 32 32">
<title>mt-flip</title>
<path fill="#fff" d="M20 28h2.667v-2.667h-2.667v2.667zM25.333 12h2.667v-2.667h-2.667v2.667zM4 6.667v18.667c0 1.467 1.2 2.667 2.667 2.667h5.333v-2.667h-5.333v-18.667h5.333v-2.667h-5.333c-1.467 0-2.667 1.2-2.667 2.667v0zM25.333 4v2.667h2.667c0-1.467-1.2-2.667-2.667-2.667v0zM14.667 30.667h2.667v-29.333h-2.667v29.333zM25.333 22.667h2.667v-2.667h-2.667v2.667zM20 6.667h2.667v-2.667h-2.667v2.667zM25.333 17.333h2.667v-2.667h-2.667v2.667zM25.333 28c1.467 0 2.667-1.2 2.667-2.667h-2.667v2.667z"></path>
</svg>
