<!-- Generated by IcoMoon.io -->
<svg version="1.1" xmlns="http://www.w3.org/2000/svg" width="32" height="32" viewBox="0 0 32 32">
<title>mt-hot_tub</title>
<path fill="#fff" d="M12 8c0 1.473-1.194 2.667-2.667 2.667s-2.667-1.194-2.667-2.667c0-1.473 1.194-2.667 2.667-2.667s2.667 1.194 2.667 2.667z"></path>
<path fill="#fff" d="M14.867 16c-0.413-0.293-0.787-0.613-1.093-0.96l-1.867-2.067c-0.253-0.28-0.573-0.507-0.92-0.667-0.387-0.187-0.827-0.307-1.28-0.307h-0.040c-1.653 0-3 1.347-3 3v1h-4v10.667c0 1.467 1.2 2.667 2.667 2.667h21.333c1.467 0 2.667-1.2 2.667-2.667v-10.667h-14.467zM9.333 26.667h-2.667v-8h2.667v8zM14.667 26.667h-2.667v-8h2.667v8zM20 26.667h-2.667v-8h2.667v8zM25.333 26.667h-2.667v-8h2.667v8zM24.867 7.813l-0.093-0.093c-0.76-0.827-1.093-1.88-0.893-2.933l0.12-0.787h-2.52l-0.080 0.573c-0.267 1.813 0.36 3.613 1.733 4.96l0.093 0.080c0.76 0.827 1.093 1.88 0.893 2.933l-0.147 0.787h2.547l0.080-0.573c0.28-1.813-0.36-3.613-1.733-4.947v0zM19.533 7.813l-0.093-0.093c-0.76-0.827-1.093-1.88-0.893-2.933l0.12-0.787h-2.52l-0.080 0.573c-0.267 1.813 0.36 3.613 1.733 4.96l0.093 0.080c0.76 0.827 1.093 1.88 0.893 2.933l-0.147 0.787h2.547l0.080-0.573c0.28-1.813-0.36-3.613-1.733-4.947v0z"></path>
</svg>
