<!-- Generated by IcoMoon.io -->
<svg version="1.1" xmlns="http://www.w3.org/2000/svg" width="32" height="32" viewBox="0 0 32 32">
<title>mt-hdr_on</title>
<path fill="#fff" d="M28 15.333v-1.333c0-1.067-0.933-2-2-2h-4.667v8h2v-2.667h1.467l1.2 2.667h2l-1.2-2.8c0.667-0.4 1.2-1.067 1.2-1.867v0zM26 15.333h-2.667v-1.333h2.667v1.333zM8.667 14.667h-2.667v-2.667h-2v8h2v-3.333h2.667v3.333h2v-8h-2v2.667zM17.333 12h-4.667v8h4.667c1.067 0 2-0.933 2-2v-4c0-1.067-0.933-2-2-2v0zM17.333 18h-2.667v-4h2.667v4z"></path>
</svg>
