<!-- Generated by IcoMoon.io -->
<svg version="1.1" xmlns="http://www.w3.org/2000/svg" width="32" height="32" viewBox="0 0 32 32">
<title>mt-important_devices</title>
<path fill="#fff" d="M30.667 14.68l-6.667-0.013c-0.733 0-1.333 0.6-1.333 1.333v12c0 0.733 0.6 1.333 1.333 1.333h6.667c0.733 0 1.333-0.6 1.333-1.333v-12c0-0.733-0.6-1.32-1.333-1.32v0zM30.667 26.667h-6.667v-9.333h6.667v9.333zM26.667 2.667h-24c-1.48 0-2.667 1.187-2.667 2.667v16c0 1.467 1.187 2.667 2.667 2.667h9.333v2.667h-2.667v2.667h10.667v-2.667h-2.667v-2.667h2.667v-2.667h-17.333v-16h24v6.667h2.667v-6.667c0-1.48-1.2-2.667-2.667-2.667v0zM15.96 12l-1.293-4-1.293 4h-4.040l3.293 2.347-1.253 3.88 3.293-2.4 3.293 2.4-1.253-3.88 3.293-2.347h-4.040z"></path>
</svg>
