<!-- Generated by IcoMoon.io -->
<svg version="1.1" xmlns="http://www.w3.org/2000/svg" width="32" height="32" viewBox="0 0 32 32">
<title>mt-local_mall</title>
<path fill="#fff" d="M25.333 8h-2.667c0-3.68-2.987-6.667-6.667-6.667s-6.667 2.987-6.667 6.667h-2.667c-1.467 0-2.653 1.2-2.653 2.667l-0.013 16c0 1.467 1.2 2.667 2.667 2.667h18.667c1.467 0 2.667-1.2 2.667-2.667v-16c0-1.467-1.2-2.667-2.667-2.667v0zM16 4c2.213 0 4 1.787 4 4h-8c0-2.213 1.787-4 4-4v0zM16 17.333c-3.68 0-6.667-2.987-6.667-6.667h2.667c0 2.213 1.787 4 4 4s4-1.787 4-4h2.667c0 3.68-2.987 6.667-6.667 6.667v0z"></path>
</svg>
