<!-- Generated by IcoMoon.io -->
<svg version="1.1" xmlns="http://www.w3.org/2000/svg" width="32" height="32" viewBox="0 0 32 32">
<title>mt-laptop_mac</title>
<path fill="#fff" d="M26.667 24c1.467 0 2.653-1.2 2.653-2.667l0.013-14.667c0-1.467-1.2-2.667-2.667-2.667h-21.333c-1.467 0-2.667 1.2-2.667 2.667v14.667c0 1.467 1.2 2.667 2.667 2.667h-5.333c0 1.467 1.2 2.667 2.667 2.667h26.667c1.467 0 2.667-1.2 2.667-2.667h-5.333zM5.333 6.667h21.333v14.667h-21.333v-14.667zM16 25.333c-0.733 0-1.333-0.6-1.333-1.333s0.6-1.333 1.333-1.333c0.733 0 1.333 0.6 1.333 1.333s-0.6 1.333-1.333 1.333v0z"></path>
</svg>
