<!-- Generated by IcoMoon.io -->
<svg version="1.1" xmlns="http://www.w3.org/2000/svg" width="32" height="32" viewBox="0 0 32 32">
<title>mt-linear_scale</title>
<path fill="#fff" d="M26 12.667c-1.373 0-2.533 0.827-3.053 2h-3.893c-0.52-1.173-1.68-2-3.053-2s-2.533 0.827-3.053 2h-3.893c-0.52-1.173-1.68-2-3.053-2-1.84 0-3.333 1.493-3.333 3.333s1.493 3.333 3.333 3.333c1.373 0 2.533-0.827 3.053-2h3.893c0.52 1.173 1.68 2 3.053 2s2.533-0.827 3.053-2h3.893c0.52 1.173 1.68 2 3.053 2 1.84 0 3.333-1.493 3.333-3.333s-1.493-3.333-3.333-3.333v0z"></path>
</svg>
