<!-- Generated by IcoMoon.io -->
<svg version="1.1" xmlns="http://www.w3.org/2000/svg" width="32" height="32" viewBox="0 0 32 32">
<title>mt-local_atm</title>
<path fill="#fff" d="M14.667 22.667h2.667v-1.333h1.333c0.733 0 1.333-0.6 1.333-1.333v-4c0-0.733-0.6-1.333-1.333-1.333h-4v-1.333h5.333v-2.667h-2.667v-1.333h-2.667v1.333h-1.333c-0.733 0-1.333 0.6-1.333 1.333v4c0 0.733 0.6 1.333 1.333 1.333h4v1.333h-5.333v2.667h2.667v1.333zM26.667 5.333h-21.333c-1.48 0-2.653 1.187-2.653 2.667l-0.013 16c0 1.48 1.187 2.667 2.667 2.667h21.333c1.48 0 2.667-1.187 2.667-2.667v-16c0-1.48-1.187-2.667-2.667-2.667v0zM26.667 24h-21.333v-16h21.333v16z"></path>
</svg>
