<!-- Generated by IcoMoon.io -->
<svg version="1.1" xmlns="http://www.w3.org/2000/svg" width="32" height="32" viewBox="0 0 32 32">
<title>mt-local_gas_station</title>
<path fill="#fff" d="M26.36 9.64l0.013-0.013-4.96-4.96-1.413 1.413 2.813 2.813c-1.253 0.48-2.147 1.68-2.147 3.107 0 1.84 1.493 3.333 3.333 3.333 0.48 0 0.92-0.107 1.333-0.28v9.613c0 0.733-0.6 1.333-1.333 1.333s-1.333-0.6-1.333-1.333v-6c0-1.467-1.2-2.667-2.667-2.667h-1.333v-9.333c0-1.467-1.2-2.667-2.667-2.667h-8c-1.467 0-2.667 1.2-2.667 2.667v21.333h13.333v-10h2v6.667c0 1.84 1.493 3.333 3.333 3.333s3.333-1.493 3.333-3.333v-12.667c0-0.92-0.373-1.76-0.973-2.36v0zM16 13.333h-8v-6.667h8v6.667zM24 13.333c-0.733 0-1.333-0.6-1.333-1.333s0.6-1.333 1.333-1.333c0.733 0 1.333 0.6 1.333 1.333s-0.6 1.333-1.333 1.333v0z"></path>
</svg>
