<!-- Generated by IcoMoon.io -->
<svg version="1.1" xmlns="http://www.w3.org/2000/svg" width="32" height="32" viewBox="0 0 32 32">
<title>mt-location_city</title>
<path fill="#fff" d="M20 14.667v-8l-4-4-4 4v2.667h-8v18.667h24v-13.333h-8zM9.333 25.333h-2.667v-2.667h2.667v2.667zM9.333 20h-2.667v-2.667h2.667v2.667zM9.333 14.667h-2.667v-2.667h2.667v2.667zM17.333 25.333h-2.667v-2.667h2.667v2.667zM17.333 20h-2.667v-2.667h2.667v2.667zM17.333 14.667h-2.667v-2.667h2.667v2.667zM17.333 9.333h-2.667v-2.667h2.667v2.667zM25.333 25.333h-2.667v-2.667h2.667v2.667zM25.333 20h-2.667v-2.667h2.667v2.667z"></path>
</svg>
