<!-- Generated by IcoMoon.io -->
<svg version="1.1" xmlns="http://www.w3.org/2000/svg" width="32" height="32" viewBox="0 0 32 32">
<title>mt-location_off</title>
<path fill="#fff" d="M16 8.667c1.84 0 3.333 1.493 3.333 3.333 0 0.987-0.44 1.853-1.107 2.467l4.84 4.84c1.307-2.48 2.267-5.067 2.267-7.307 0-5.16-4.173-9.333-9.333-9.333-2.64 0-5.013 1.107-6.72 2.867l4.253 4.253c0.613-0.693 1.48-1.12 2.467-1.12v0zM21.827 21.467l-17.467-17.467-1.693 1.693 4.24 4.24c-0.147 0.667-0.24 1.36-0.24 2.067 0 7 9.333 17.333 9.333 17.333s2.227-2.467 4.507-5.8l4.467 4.467 1.693-1.693-4.84-4.84z"></path>
</svg>
