<!-- Generated by IcoMoon.io -->
<svg version="1.1" xmlns="http://www.w3.org/2000/svg" width="32" height="32" viewBox="0 0 32 32">
<title>mt-motorcycle</title>
<path fill="#fff" d="M25.92 12.040l-5.373-5.373h-5.88v2.667h4.787l2.667 2.667h-15.453c-3.733 0-6.667 2.933-6.667 6.667s2.933 6.667 6.667 6.667c3.28 0 5.933-2.253 6.533-5.333h2.2l3.693-3.693c-0.28 0.72-0.427 1.52-0.427 2.36 0 3.733 2.933 6.667 6.667 6.667s6.667-2.933 6.667-6.667c0-3.533-2.627-6.36-6.080-6.627v0zM10.427 20c-0.56 1.533-2.053 2.667-3.76 2.667-2.173 0-4-1.827-4-4s1.827-4 4-4c1.707 0 3.2 1.133 3.76 2.667h-3.76v2.667h3.76zM25.333 22.667c-2.213 0-4-1.787-4-4s1.787-4 4-4c2.213 0 4 1.787 4 4s-1.787 4-4 4v0z"></path>
</svg>
