<!-- Generated by IcoMoon.io -->
<svg version="1.1" xmlns="http://www.w3.org/2000/svg" width="32" height="32" viewBox="0 0 32 32">
<title>mt-nature_people</title>
<path fill="#fff" d="M29.56 12.227c0-5.16-4.173-9.333-9.333-9.333s-9.333 4.173-9.333 9.333c0 4.627 3.36 8.453 7.773 9.187v5.253h-10.667v-4h1.333v-5.333c0-0.733-0.6-1.333-1.333-1.333h-4c-0.733 0-1.333 0.6-1.333 1.333v5.333h1.333v6.667h21.333v-2.667h-4v-5.173c4.627-0.547 8.227-4.48 8.227-9.267v0zM6 14.667c1.107 0 2-0.893 2-2s-0.893-2-2-2c-1.107 0-2 0.893-2 2s0.893 2 2 2v0z"></path>
</svg>
