<!-- Generated by IcoMoon.io -->
<svg version="1.1" xmlns="http://www.w3.org/2000/svg" width="32" height="32" viewBox="0 0 32 32">
<title>mt-next_week</title>
<path fill="#fff" d="M26.667 9.333h-5.333v-2.667c0-0.733-0.293-1.4-0.787-1.88-0.48-0.493-1.147-0.787-1.88-0.787h-5.333c-1.467 0-2.667 1.2-2.667 2.667v2.667h-5.333c-1.467 0-2.667 1.2-2.667 2.667v14.667c0 1.467 1.2 2.667 2.667 2.667h21.333c1.467 0 2.667-1.2 2.667-2.667v-14.667c0-1.467-1.2-2.667-2.667-2.667v0zM13.333 6.667h5.333v2.667h-5.333v-2.667zM14.667 24.667l-1.333-1.333 4-4-4-4 1.333-1.333 5.333 5.333-5.333 5.333z"></path>
</svg>
