<!-- Generated by IcoMoon.io -->
<svg version="1.1" xmlns="http://www.w3.org/2000/svg" width="32" height="32" viewBox="0 0 32 32">
<title>mt-panorama_vertical</title>
<path fill="#fff" d="M26.587 28.16c-1.467-3.92-2.187-8.040-2.187-12.16s0.733-8.24 2.187-12.16c0.053-0.147 0.080-0.293 0.080-0.413 0-0.453-0.307-0.76-0.84-0.76h-19.653c-0.533 0-0.84 0.307-0.84 0.76 0 0.133 0.027 0.267 0.080 0.413 1.467 3.92 2.2 8.040 2.2 12.16s-0.733 8.24-2.187 12.16c-0.067 0.147-0.093 0.293-0.093 0.413 0 0.44 0.307 0.76 0.84 0.76h19.667c0.52 0 0.84-0.32 0.84-0.76-0.013-0.133-0.040-0.267-0.093-0.413v0zM8.72 26.667c1.027-3.467 1.547-7.040 1.547-10.667s-0.52-7.2-1.547-10.667h14.547c-1.027 3.467-1.547 7.040-1.547 10.667s0.52 7.2 1.547 10.667h-14.547z"></path>
</svg>
