<!-- Generated by IcoMoon.io -->
<svg version="1.1" xmlns="http://www.w3.org/2000/svg" width="32" height="32" viewBox="0 0 32 32">
<title>mt-pool</title>
<path fill="#fff" d="M29.333 28c-1.48 0-2.307-0.493-2.907-0.853-0.493-0.293-0.8-0.48-1.533-0.48-0.747 0-1.040 0.173-1.533 0.48-0.613 0.36-1.427 0.853-2.907 0.853s-2.307-0.493-2.907-0.853c-0.493-0.293-0.8-0.48-1.533-0.48-0.747 0-1.040 0.173-1.533 0.48-0.613 0.36-1.44 0.853-2.92 0.853s-2.307-0.493-2.907-0.853c-0.493-0.307-0.8-0.48-1.533-0.48s-1.040 0.173-1.533 0.48c-0.613 0.36-1.44 0.853-2.92 0.853v-2.667c0.747 0 1.040-0.173 1.533-0.48 0.613-0.36 1.44-0.853 2.92-0.853s2.307 0.493 2.907 0.853c0.493 0.307 0.787 0.48 1.533 0.48s1.040-0.173 1.533-0.48c0.613-0.36 1.44-0.853 2.92-0.853s2.307 0.493 2.907 0.853c0.493 0.293 0.8 0.48 1.533 0.48s1.040-0.173 1.533-0.48c0.6-0.36 1.427-0.853 2.907-0.853s2.307 0.493 2.907 0.853c0.493 0.307 0.787 0.48 1.533 0.48v2.667zM29.333 22c-1.48 0-2.307-0.493-2.907-0.853-0.493-0.293-0.8-0.48-1.533-0.48-0.747 0-1.040 0.173-1.533 0.48-0.6 0.36-1.427 0.853-2.907 0.853s-2.307-0.493-2.907-0.853c-0.493-0.293-0.8-0.48-1.533-0.48-0.747 0-1.040 0.173-1.533 0.48-0.6 0.36-1.427 0.853-2.907 0.853s-2.307-0.493-2.907-0.853c-0.493-0.293-0.8-0.48-1.533-0.48s-1.040 0.173-1.533 0.48c-0.627 0.36-1.453 0.853-2.933 0.853v-2.667c0.747 0 1.040-0.173 1.533-0.48 0.6-0.36 1.427-0.853 2.907-0.853s2.307 0.493 2.907 0.853c0.493 0.293 0.8 0.48 1.533 0.48 0.747 0 1.040-0.173 1.533-0.48 0.6-0.36 1.427-0.853 2.907-0.853s2.307 0.493 2.907 0.853c0.493 0.293 0.8 0.48 1.533 0.48s1.040-0.173 1.533-0.48c0.6-0.36 1.427-0.853 2.907-0.853s2.307 0.493 2.907 0.853c0.493 0.293 0.8 0.48 1.533 0.48v2.667h0.027zM11.56 16c0.747 0 1.040-0.173 1.533-0.48 0.613-0.36 1.44-0.853 2.92-0.853s2.307 0.493 2.907 0.853c0.493 0.293 0.8 0.48 1.533 0.48s1.040-0.173 1.533-0.48c0.16-0.093 0.347-0.2 0.547-0.307l-8.56-8.547c-2.067-2.067-3.973-2.68-7.307-2.667v3.333c2.427-0.013 3.853 0.52 5.333 2l1.333 1.333-4.333 4.333c0.413 0.16 0.747 0.36 1.027 0.52 0.493 0.307 0.787 0.48 1.533 0.48v0z"></path>
<path fill="#fff" d="M25.333 7.333c0 1.841-1.492 3.333-3.333 3.333s-3.333-1.492-3.333-3.333c0-1.841 1.492-3.333 3.333-3.333s3.333 1.492 3.333 3.333z"></path>
</svg>
