<!-- Generated by IcoMoon.io -->
<svg version="1.1" xmlns="http://www.w3.org/2000/svg" width="32" height="32" viewBox="0 0 32 32">
<title>mt-phone_bluetooth_speaker</title>
<path fill="#fff" d="M19.613 12.667l3.053-3.053v5.053h0.667l3.8-3.8-2.853-2.867 2.867-2.867-3.813-3.8h-0.667v5.053l-3.053-3.053-0.947 0.947 3.72 3.72-3.72 3.72 0.947 0.947zM24 3.88l1.253 1.253-1.253 1.253v-2.507zM24 9.613l1.253 1.253-1.253 1.253v-2.507zM26.667 20.667c-1.667 0-3.267-0.267-4.76-0.76-0.467-0.147-0.987-0.040-1.36 0.32l-2.933 2.933c-3.773-1.92-6.867-5-8.787-8.787l2.933-2.947c0.373-0.347 0.48-0.867 0.333-1.333-0.493-1.493-0.76-3.093-0.76-4.76 0-0.733-0.6-1.333-1.333-1.333h-4.667c-0.733 0-1.333 0.6-1.333 1.333 0 12.52 10.147 22.667 22.667 22.667 0.733 0 1.333-0.6 1.333-1.333v-4.667c0-0.733-0.6-1.333-1.333-1.333v0z"></path>
</svg>
