<!-- Generated by IcoMoon.io -->
<svg version="1.1" xmlns="http://www.w3.org/2000/svg" width="32" height="32" viewBox="0 0 32 32">
<title>mt-portable_wifi_off</title>
<path fill="#fff" d="M23.413 18.987c0.373-0.92 0.587-1.933 0.587-2.987 0-4.413-3.587-8-8-8-1.053 0-2.067 0.213-2.987 0.587l2.16 2.16c0.267-0.040 0.547-0.080 0.827-0.080 2.947 0 5.333 2.387 5.333 5.333 0 0.28-0.027 0.56-0.067 0.84l2.147 2.147zM16 5.333c5.893 0 10.667 4.773 10.667 10.667 0 1.8-0.467 3.493-1.267 4.987l1.96 1.96c1.253-2.027 1.973-4.4 1.973-6.947 0-7.36-5.973-13.333-13.333-13.333-2.547 0-4.92 0.733-6.947 1.96l1.947 1.947c1.493-0.787 3.2-1.24 5-1.24v0zM4.36 3.333l-1.693 1.693 2.8 2.8c-1.747 2.267-2.8 5.093-2.8 8.173 0 4.933 2.68 9.227 6.653 11.533l1.333-2.307c-3.173-1.853-5.32-5.28-5.32-9.227 0-2.347 0.76-4.507 2.040-6.253l1.907 1.92c-0.8 1.24-1.28 2.733-1.28 4.333 0 2.96 1.613 5.533 4 6.92l1.333-2.32c-1.587-0.933-2.667-2.627-2.667-4.6 0-0.867 0.227-1.667 0.587-2.387l2.107 2.107-0.027 0.28c0 1.467 1.2 2.667 2.667 2.667l0.28-0.027 10.027 10.027 1.693-1.693-23.64-23.64z"></path>
</svg>
