<!-- Generated by IcoMoon.io -->
<svg version="1.1" xmlns="http://www.w3.org/2000/svg" width="32" height="32" viewBox="0 0 32 32">
<title>mt-style</title>
<path fill="#fff" d="M3.373 26.2l1.787 0.747v-12.040l-3.24 7.813c-0.547 1.36 0.107 2.92 1.453 3.48v0zM29.373 21.267l-6.613-15.96c-0.413-1-1.387-1.613-2.413-1.64-0.347 0-0.707 0.053-1.053 0.2l-9.827 4.067c-1 0.413-1.613 1.373-1.64 2.4-0.013 0.36 0.053 0.72 0.2 1.067l6.613 15.96c0.413 1.013 1.4 1.627 2.44 1.64 0.347 0 0.693-0.067 1.027-0.2l9.813-4.067c1.36-0.56 2.013-2.12 1.453-3.467v0zM10.507 11.667c-0.733 0-1.333-0.6-1.333-1.333s0.6-1.333 1.333-1.333c0.733 0 1.333 0.6 1.333 1.333s-0.6 1.333-1.333 1.333v0zM7.84 26.333c0 1.467 1.2 2.667 2.667 2.667h1.933l-4.6-11.12v8.453z"></path>
</svg>
