<!-- Generated by IcoMoon.io -->
<svg version="1.1" xmlns="http://www.w3.org/2000/svg" width="32" height="32" viewBox="0 0 32 32">
<title>mt-spa</title>
<path fill="#fff" d="M11.4 16c-1.427-0.947-3-1.693-4.707-2.147 1.707 0.453 3.28 1.2 4.707 2.147v0zM25.307 13.853c-1.72 0.453-3.32 1.213-4.76 2.187 1.44-0.973 3.040-1.733 4.76-2.187v0z"></path>
<path fill="#fff" d="M20.653 12.84c-0.24-3.72-1.747-7.347-4.573-10.173-2.853 2.853-4.427 6.48-4.733 10.173 1.707 0.907 3.28 2.080 4.653 3.507 1.373-1.413 2.947-2.587 4.653-3.507v0zM11.987 16.373c-0.187-0.133-0.4-0.253-0.6-0.387 0.2 0.147 0.413 0.253 0.6 0.387v0zM20.547 16.040c-0.173 0.12-0.36 0.213-0.533 0.347 0.173-0.133 0.36-0.227 0.533-0.347v0zM16 20.6c-2.867-4.373-7.76-7.267-13.333-7.267 0 7.093 4.48 13.093 10.707 15.32 0.84 0.307 1.72 0.533 2.627 0.68 0.907-0.16 1.773-0.387 2.627-0.68 6.227-2.227 10.707-8.227 10.707-15.32-5.573 0-10.467 2.893-13.333 7.267v0z"></path>
</svg>
