<!-- Generated by IcoMoon.io -->
<svg version="1.1" xmlns="http://www.w3.org/2000/svg" width="32" height="32" viewBox="0 0 32 32">
<title>mt-smoking_rooms</title>
<path fill="#fff" d="M2.667 21.333h20v4h-20v-4zM27.333 21.333h2v4h-2v-4zM24 21.333h2v4h-2v-4zM25.133 10.307c0.827-0.813 1.333-1.933 1.333-3.173 0-2.467-2-4.467-4.467-4.467v2c1.36 0 2.467 1.107 2.467 2.467s-1.107 2.467-2.467 2.467v2c2.987 0 5.333 2.44 5.333 5.427v2.973h2v-2.987c0-2.96-1.707-5.52-4.2-6.707v0zM21.373 13.6h-2.040c-1.36 0-2.467-1.307-2.467-2.667s1.107-2.333 2.467-2.333v-2c-2.467 0-4.467 2-4.467 4.467s2 4.467 4.467 4.467h2.040c1.4 0 2.627 0.987 2.627 2.733v1.733h2v-2.187c0-2.413-2.133-4.213-4.627-4.213v0z"></path>
</svg>
