<!-- Generated by IcoMoon.io -->
<svg version="1.1" xmlns="http://www.w3.org/2000/svg" width="32" height="32" viewBox="0 0 32 32">
<title>mt-settings_input_component</title>
<path fill="#fff" d="M6.667 2.667c0-0.733-0.6-1.333-1.333-1.333s-1.333 0.6-1.333 1.333v5.333h-2.667v8h8v-8h-2.667v-5.333zM12 21.333c0 1.733 1.12 3.2 2.667 3.76v5.573h2.667v-5.573c1.547-0.547 2.667-2.013 2.667-3.76v-2.667h-8v2.667zM1.333 21.333c0 1.733 1.12 3.2 2.667 3.76v5.573h2.667v-5.573c1.547-0.56 2.667-2.027 2.667-3.76v-2.667h-8v2.667zM28 8v-5.333c0-0.733-0.6-1.333-1.333-1.333s-1.333 0.6-1.333 1.333v5.333h-2.667v8h8v-8h-2.667zM17.333 2.667c0-0.733-0.6-1.333-1.333-1.333s-1.333 0.6-1.333 1.333v5.333h-2.667v8h8v-8h-2.667v-5.333zM22.667 21.333c0 1.733 1.12 3.2 2.667 3.76v5.573h2.667v-5.573c1.547-0.547 2.667-2.013 2.667-3.76v-2.667h-8v2.667z"></path>
</svg>
