<!-- Generated by IcoMoon.io -->
<svg version="1.1" xmlns="http://www.w3.org/2000/svg" width="32" height="32" viewBox="0 0 32 32">
<title>mt-satellite</title>
<path fill="#fff" d="M25.333 4h-18.667c-1.467 0-2.667 1.2-2.667 2.667v18.667c0 1.467 1.2 2.667 2.667 2.667h18.667c1.467 0 2.667-1.2 2.667-2.667v-18.667c0-1.467-1.2-2.667-2.667-2.667v0zM6.667 6.653h4c0 2.213-1.787 4.013-4 4.013v-4.013zM6.667 16v-2.667c3.68 0 6.667-3 6.667-6.68h2.667c0 5.16-4.173 9.347-9.333 9.347v0zM6.667 24l4.667-6 3.333 4.013 4.667-6.013 6 8h-18.667z"></path>
</svg>
