<!-- Generated by IcoMoon.io -->
<svg version="1.1" xmlns="http://www.w3.org/2000/svg" width="32" height="32" viewBox="0 0 32 32">
<title>mt-settings_brightness</title>
<path fill="#fff" d="M28 4h-24c-1.467 0-2.667 1.2-2.667 2.667v18.667c0 1.467 1.2 2.667 2.667 2.667h24c1.467 0 2.667-1.2 2.667-2.667v-18.667c0-1.467-1.2-2.667-2.667-2.667v0zM28 25.347h-24v-18.693h24v18.693zM10.667 21.333h3.333l2 2 2-2h3.333v-3.333l2-2-2-2v-3.333h-3.333l-2-2-2 2h-3.333v3.333l-2 2 2 2v3.333zM16 12c2.213 0 4 1.787 4 4s-1.787 4-4 4v-8z"></path>
</svg>
