<!-- Generated by IcoMoon.io -->
<svg version="1.1" xmlns="http://www.w3.org/2000/svg" width="32" height="32" viewBox="0 0 32 32">
<title>mt-stop_screen_share</title>
<path fill="#fff" d="M28.293 24.027l2.667 2.667h1.040v-2.667h-3.707zM29.32 21.36l0.013-13.333c0-1.48-1.2-2.667-2.667-2.667h-17.040l6.973 6.973c0.24-0.053 0.48-0.093 0.733-0.133v-2.84l5.333 4.973-2.107 1.96 7.387 7.387c0.813-0.44 1.373-1.32 1.373-2.32v0zM3.187 2.307l-1.707 1.693 2.053 2.053c-0.533 0.48-0.867 1.187-0.867 1.973v13.333c0 1.467 1.187 2.667 2.667 2.667h-5.333v2.667h24.173l3.613 3.613 1.693-1.693-26.293-26.307zM9.333 20.027c0.413-1.973 1.227-3.933 2.76-5.413l2.12 2.12c-2.053 0.507-3.6 1.573-4.88 3.293v0z"></path>
</svg>
