<!-- Generated by IcoMoon.io -->
<svg version="1.1" xmlns="http://www.w3.org/2000/svg" width="32" height="32" viewBox="0 0 32 32">
<title>mt-settings_overscan</title>
<path fill="#fff" d="M16.013 7.333l-2.68 3.333h5.333l-2.653-3.333zM24 13.333v5.333l3.333-2.653-3.333-2.68zM8 13.333l-3.333 2.68 3.333 2.653v-5.333zM18.667 21.333h-5.333l2.68 3.333 2.653-3.333zM28 4h-24c-1.467 0-2.667 1.2-2.667 2.667v18.667c0 1.467 1.2 2.667 2.667 2.667h24c1.467 0 2.667-1.2 2.667-2.667v-18.667c0-1.467-1.2-2.667-2.667-2.667v0zM28 25.347h-24v-18.693h24v18.693z"></path>
</svg>
