<!-- Generated by IcoMoon.io -->
<svg version="1.1" xmlns="http://www.w3.org/2000/svg" width="32" height="32" viewBox="0 0 32 32">
<title>mt-toll</title>
<path fill="#fff" d="M20 5.333c-5.893 0-10.667 4.773-10.667 10.667s4.773 10.667 10.667 10.667c5.893 0 10.667-4.773 10.667-10.667s-4.773-10.667-10.667-10.667v0zM20 24c-4.413 0-8-3.587-8-8s3.587-8 8-8c4.413 0 8 3.587 8 8s-3.587 8-8 8v0z"></path>
<path fill="#fff" d="M4 16c0-3.48 2.227-6.44 5.333-7.533v-2.787c-4.6 1.187-8 5.347-8 10.32s3.4 9.133 8 10.32v-2.787c-3.107-1.093-5.333-4.053-5.333-7.533v0z"></path>
</svg>
