<!-- Generated by IcoMoon.io -->
<svg version="1.1" xmlns="http://www.w3.org/2000/svg" width="32" height="32" viewBox="0 0 32 32">
<title>mt-usb</title>
<path fill="#fff" d="M20 9.333v5.333h1.333v2.667h-4v-10.667h2.667l-4-5.333-4 5.333h2.667v10.667h-4v-2.76c0.933-0.493 1.6-1.44 1.6-2.573 0-1.613-1.32-2.933-2.933-2.933s-2.933 1.32-2.933 2.933c0 1.133 0.667 2.080 1.6 2.573v2.76c0 1.48 1.187 2.667 2.667 2.667h4v4.067c-0.947 0.493-1.6 1.467-1.6 2.6 0 1.627 1.32 2.933 2.933 2.933s2.933-1.307 2.933-2.933c0-1.133-0.653-2.107-1.6-2.6v-4.067h4c1.48 0 2.667-1.187 2.667-2.667v-2.667h1.333v-5.333h-5.333z"></path>
</svg>
