<!-- Generated by IcoMoon.io -->
<svg version="1.1" xmlns="http://www.w3.org/2000/svg" width="32" height="32" viewBox="0 0 32 32">
<title>ul-angle-double-up</title>
<path fill="#fff" d="M16.947 16.72c-0.242-0.244-0.577-0.394-0.947-0.394s-0.705 0.151-0.947 0.394l-4 4c-0.254 0.247-0.411 0.592-0.411 0.973 0 0.75 0.608 1.358 1.358 1.358 0.368 0 0.702-0.147 0.947-0.385l-0 0 3.053-3.12 3.053 3.12c0.242 0.244 0.577 0.394 0.947 0.394s0.705-0.151 0.947-0.394l0-0c0.244-0.242 0.394-0.577 0.394-0.947s-0.151-0.705-0.394-0.947l-0-0zM12.947 15.28l3.053-3.067 3.053 3.067c0.242 0.244 0.577 0.394 0.947 0.394s0.705-0.151 0.947-0.394l0-0c0.244-0.242 0.394-0.577 0.394-0.947s-0.151-0.705-0.394-0.947l-4-4c-0.242-0.244-0.577-0.394-0.947-0.394s-0.705 0.151-0.947 0.394l-4 4c-0.242 0.242-0.392 0.577-0.392 0.947 0 0.739 0.599 1.339 1.339 1.339 0.37 0 0.704-0.15 0.947-0.392v0z"></path>
</svg>
