<!-- Generated by IcoMoon.io -->
<svg version="1.1" xmlns="http://www.w3.org/2000/svg" width="32" height="32" viewBox="0 0 32 32">
<title>ul-atom</title>
<path fill="#fff" d="M16 14.667c-0.736 0-1.333 0.597-1.333 1.333s0.597 1.333 1.333 1.333c0.736 0 1.333-0.597 1.333-1.333v0c0-0.736-0.597-1.333-1.333-1.333v0zM26.16 16l0.147-0.187c1.8-2.48 2.227-4.76 1.24-6.48s-3.2-2.48-6.213-2.173h-0.24c-1.213-2.76-3.013-4.493-5.093-4.493s-3.88 1.733-5.080 4.533l-0.253-0.040c-3.013-0.307-5.227 0.453-6.213 2.173s-0.56 4 1.24 6.48l0.147 0.187-0.147 0.187c-1.8 2.48-2.227 4.76-1.24 6.48 0.88 1.467 2.573 2.24 4.88 2.24 0.413 0 0.84 0 1.333-0.067h0.24c1.213 2.76 3.013 4.493 5.093 4.493s3.88-1.733 5.080-4.533h0.24c0.453 0 0.88 0.067 1.333 0.067 2.36 0 4.093-0.773 4.933-2.24 0.987-1.72 0.56-4-1.24-6.48zM6.76 10.667c0.333-0.587 1.333-0.907 2.667-0.907h0.653c-0.185 0.688-0.349 1.534-0.457 2.397l-0.010 0.096c-0.712 0.541-1.342 1.087-1.937 1.67l0.003-0.003c-1.013-1.333-1.307-2.587-0.92-3.253zM6.76 21.333c-0.387-0.667 0-1.92 0.893-3.293 0.591 0.58 1.222 1.126 1.885 1.631l0.049 0.036c0.118 0.965 0.281 1.816 0.497 2.645l-0.031-0.138c-1.653 0.107-2.907-0.213-3.293-0.88zM16 5.333c0.747 0 1.64 0.88 2.4 2.44-0.982 0.285-1.779 0.571-2.554 0.898l0.154-0.058c-0.621-0.269-1.418-0.555-2.234-0.798l-0.166-0.042c0.76-1.56 1.653-2.44 2.4-2.44zM16 26.667c-0.747 0-1.64-0.88-2.4-2.44 0.982-0.285 1.779-0.571 2.554-0.898l-0.154 0.058c0.621 0.269 1.418 0.555 2.234 0.798l0.166 0.042c-0.76 1.56-1.653 2.44-2.4 2.44zM19.907 18.253c-0.613 0.427-1.24 0.827-1.907 1.213s-1.333 0.733-2 1.040q-1-0.467-2-1.040c-0.667-0.387-1.333-0.787-1.907-1.213-0.093-0.72-0.093-1.467-0.093-2.253s0-1.533 0.093-2.253c0.613-0.427 1.24-0.827 1.907-1.213s1.333-0.733 2-1.040q1 0.467 2 1.040c0.667 0.387 1.333 0.787 1.907 1.213 0 0.72 0.093 1.467 0.093 2.253s0 1.533-0.093 2.253zM25.24 21.333c-0.387 0.667-1.64 1-3.293 0.88 0.185-0.691 0.349-1.542 0.457-2.41l0.010-0.097c0.712-0.541 1.342-1.087 1.937-1.67l-0.003 0.003c0.987 1.373 1.28 2.627 0.893 3.293zM24.347 13.96c-0.591-0.58-1.222-1.126-1.885-1.631l-0.049-0.036c-0.118-0.96-0.281-1.806-0.497-2.63l0.030 0.137h0.653c1.333 0 2.307 0.32 2.667 0.907s0.067 1.88-0.92 3.253z"></path>
</svg>
