<!-- Generated by IcoMoon.io -->
<svg version="1.1" xmlns="http://www.w3.org/2000/svg" width="32" height="32" viewBox="0 0 32 32">
<title>ul-arrow-growth</title>
<path fill="#fff" d="M29.227 8.827c-0.138-0.327-0.393-0.582-0.711-0.717l-0.009-0.003c-0.149-0.065-0.323-0.104-0.506-0.107h-6.668c-0.736 0-1.333 0.597-1.333 1.333s0.597 1.333 1.333 1.333v0h3.453l-7.453 7.453-4.387-4.4c-0.242-0.244-0.577-0.394-0.947-0.394s-0.705 0.151-0.947 0.394l-8 8c-0.244 0.242-0.394 0.577-0.394 0.947s0.151 0.705 0.394 0.947l0 0c0.242 0.244 0.577 0.394 0.947 0.394s0.705-0.151 0.947-0.394l0-0 7.053-7.067 4.387 4.4c0.242 0.244 0.577 0.394 0.947 0.394s0.705-0.151 0.947-0.394l0-0 8.387-8.4v3.453c0 0.736 0.597 1.333 1.333 1.333s1.333-0.597 1.333-1.333v0-6.667c-0.002-0.184-0.041-0.357-0.11-0.515l0.003 0.009z"></path>
</svg>
