<!-- Generated by IcoMoon.io -->
<svg version="1.1" xmlns="http://www.w3.org/2000/svg" width="32" height="32" viewBox="0 0 32 32">
<title>ul-arrow-circle-left</title>
<path fill="#fff" d="M11.053 15.053c-0.118 0.123-0.213 0.269-0.277 0.431l-0.003 0.009c-0.063 0.15-0.1 0.324-0.1 0.507s0.037 0.357 0.103 0.515l-0.003-0.009c0.067 0.171 0.162 0.317 0.28 0.44l-0-0 4 4c0.242 0.242 0.577 0.392 0.947 0.392 0.739 0 1.339-0.599 1.339-1.339 0-0.37-0.15-0.704-0.392-0.947v0l-1.733-1.72h4.787c0.736 0 1.333-0.597 1.333-1.333s-0.597-1.333-1.333-1.333v0h-4.787l1.733-1.72c0.244-0.242 0.394-0.577 0.394-0.947s-0.151-0.705-0.394-0.947l-0-0c-0.242-0.244-0.577-0.394-0.947-0.394s-0.705 0.151-0.947 0.394l-0 0zM2.667 16c0 7.364 5.97 13.333 13.333 13.333s13.333-5.97 13.333-13.333c0-7.364-5.97-13.333-13.333-13.333v0c-7.364 0-13.333 5.97-13.333 13.333v0zM26.667 16c0 5.891-4.776 10.667-10.667 10.667s-10.667-4.776-10.667-10.667c0-5.891 4.776-10.667 10.667-10.667v0c5.891 0 10.667 4.776 10.667 10.667v0z"></path>
</svg>
