<!-- Generated by IcoMoon.io -->
<svg version="1.1" xmlns="http://www.w3.org/2000/svg" width="32" height="32" viewBox="0 0 32 32">
<title>ul-battery-bolt</title>
<path fill="#fff" d="M8.92 20h-3.587v-8h3.080c0.736 0 1.333-0.597 1.333-1.333s-0.597-1.333-1.333-1.333v0h-3.080c-1.473 0-2.667 1.194-2.667 2.667v0 8c0 1.473 1.194 2.667 2.667 2.667v0h3.587c0.736 0 1.333-0.597 1.333-1.333s-0.597-1.333-1.333-1.333v0zM18.52 16.587c0.029-0.066 0.056-0.146 0.077-0.228l0.003-0.012c0.003-0.040 0.005-0.086 0.005-0.133s-0.002-0.093-0.005-0.14l0 0.006s0 0 0-0.080 0-0.107 0-0.16c-0.009-0.098-0.032-0.189-0.069-0.272l0.002 0.006c-0.031-0.087-0.067-0.162-0.11-0.232l0.003 0.005c-0.040-0.081-0.084-0.151-0.135-0.216l0.002 0.002-0.213-0.173-0.12-0.12h-0.080l-0.24-0.080h-4.667l1.933-3.333c0.112-0.191 0.178-0.421 0.178-0.667 0-0.739-0.599-1.338-1.338-1.338-0.494 0-0.925 0.267-1.157 0.665l-0.003 0.006-3.080 5.333s0 0 0 0.080c-0.029 0.066-0.056 0.146-0.077 0.228l-0.003 0.012c-0.003 0.040-0.005 0.086-0.005 0.133s0.002 0.093 0.005 0.14l-0-0.006s-0.093-0.013-0.093-0.013 0 0.107 0 0.16c0.009 0.098 0.032 0.189 0.069 0.272l-0.002-0.006c0.031 0.087 0.067 0.162 0.11 0.232l-0.003-0.005c0.040 0.081 0.084 0.151 0.135 0.216l-0.002-0.002 0.213 0.173c0.037 0.044 0.076 0.083 0.119 0.119l0.001 0.001h0.213c0.138 0.084 0.3 0.145 0.472 0.172l0.008 0.001h4.36l-1.933 3.333c-0.112 0.191-0.178 0.421-0.178 0.667 0 0.739 0.599 1.338 1.338 1.338 0.494 0 0.925-0.267 1.157-0.665l0.003-0.006 3.080-5.333s0.013-0.053 0.027-0.080zM28 13.333c-0.736 0-1.333 0.597-1.333 1.333v0 2.667c0 0.736 0.597 1.333 1.333 1.333s1.333-0.597 1.333-1.333v0-2.667c0-0.736-0.597-1.333-1.333-1.333v0zM22.667 9.333h-3.587c-0.736 0-1.333 0.597-1.333 1.333s0.597 1.333 1.333 1.333v0h3.587v8h-3.080c-0.736 0-1.333 0.597-1.333 1.333s0.597 1.333 1.333 1.333v0h3.080c1.473 0 2.667-1.194 2.667-2.667v0-8c0-1.473-1.194-2.667-2.667-2.667v0z"></path>
</svg>
