<!-- Generated by IcoMoon.io -->
<svg version="1.1" xmlns="http://www.w3.org/2000/svg" width="32" height="32" viewBox="0 0 32 32">
<title>ul-bed</title>
<path fill="#fff" d="M9.333 16.667c2.209 0 4-1.791 4-4s-1.791-4-4-4c-2.209 0-4 1.791-4 4v0c0 2.209 1.791 4 4 4v0zM9.333 11.333c0.736 0 1.333 0.597 1.333 1.333s-0.597 1.333-1.333 1.333c-0.736 0-1.333-0.597-1.333-1.333v0c0-0.736 0.597-1.333 1.333-1.333v0zM26.667 8.667h-10.667c-0.736 0-1.333 0.597-1.333 1.333v0 8h-10.667v-10.667c0-0.736-0.597-1.333-1.333-1.333s-1.333 0.597-1.333 1.333v0 17.333c0 0.736 0.597 1.333 1.333 1.333s1.333-0.597 1.333-1.333v0-4h24v4c0 0.736 0.597 1.333 1.333 1.333s1.333-0.597 1.333-1.333v0-12c0-2.209-1.791-4-4-4v0zM28 18h-10.667v-6.667h9.333c0.736 0 1.333 0.597 1.333 1.333v0z"></path>
</svg>
