<!-- Generated by IcoMoon.io -->
<svg version="1.1" xmlns="http://www.w3.org/2000/svg" width="32" height="32" viewBox="0 0 32 32">
<title>ul-behance-alt</title>
<path fill="#fff" d="M29.478 20.042c-0.099-0.027-0.214-0.042-0.331-0.042-0.619 0-1.14 0.423-1.288 0.996l-0.002 0.009c-0.461 1.736-2.018 2.995-3.87 2.995-2.208 0-3.998-1.79-3.998-3.998 0-0.001 0-0.002 0-0.002v0-1.333h9.333c0 0 0 0 0 0 0.736 0 1.333-0.597 1.333-1.333 0-0 0-0 0-0v0c0-3.682-2.985-6.667-6.667-6.667s-6.667 2.985-6.667 6.667v0 2.667c0 0.001 0 0.001 0 0.002 0 3.681 2.984 6.665 6.665 6.665 3.091 0 5.691-2.104 6.444-4.959l0.010-0.046c0.026-0.099 0.041-0.212 0.041-0.329 0-0.619-0.423-1.14-0.995-1.289l-0.009-0.002zM23.989 13.334c1.102 0 2.099 0.444 2.825 1.163l-0-0c0.406 0.415 0.724 0.917 0.923 1.476l0.009 0.028h-7.51c0.562-1.563 2.029-2.661 3.754-2.667h0.001zM21.322 9.334h5.333c0.736 0 1.333-0.597 1.333-1.333s-0.597-1.333-1.333-1.333v0h-5.333c-0.736 0-1.333 0.597-1.333 1.333s0.597 1.333 1.333 1.333v0zM13.213 15.623c0.894-0.949 1.443-2.231 1.443-3.641 0-2.936-2.38-5.315-5.315-5.315-0.006 0-0.013 0-0.019 0h-6.666c-0 0-0 0-0 0-0.736 0-1.333 0.597-1.333 1.333 0 0 0 0 0 0v-0 17.333c0 0 0 0 0 0 0 0.736 0.597 1.333 1.333 1.333 0 0 0 0 0 0h7.333c0.003 0 0.007 0 0.011 0 3.308 0 5.989-2.682 5.989-5.989 0-2.115-1.097-3.975-2.752-5.040l-0.024-0.014zM3.989 9.334h5.333c1.473 0 2.667 1.194 2.667 2.667s-1.194 2.667-2.667 2.667v0h-5.333zM9.989 24.001h-6v-6.667h6c1.841 0 3.333 1.492 3.333 3.333s-1.492 3.333-3.333 3.333v0z"></path>
</svg>
