<!-- Generated by IcoMoon.io -->
<svg version="1.1" xmlns="http://www.w3.org/2000/svg" width="32" height="32" viewBox="0 0 32 32">
<title>ul-bill</title>
<path fill="#fff" d="M12.667 14h3.333c0.736 0 1.333-0.597 1.333-1.333s-0.597-1.333-1.333-1.333v0h-1.333v-0.667c0-0.736-0.597-1.333-1.333-1.333s-1.333 0.597-1.333 1.333v0 0.733c-1.534 0.32-2.67 1.661-2.67 3.267 0 1.841 1.492 3.333 3.333 3.333 0.001 0 0.002 0 0.004 0h1.333c0.368 0 0.667 0.298 0.667 0.667s-0.298 0.667-0.667 0.667v0h-3.333c-0.736 0-1.333 0.597-1.333 1.333s0.597 1.333 1.333 1.333v0h1.333v0.667c0 0.736 0.597 1.333 1.333 1.333s1.333-0.597 1.333-1.333v0-0.733c1.534-0.32 2.67-1.66 2.67-3.267 0-1.841-1.492-3.333-3.333-3.333-0.001 0-0.002 0-0.004 0h-1.333c-0.368 0-0.667-0.298-0.667-0.667s0.298-0.667 0.667-0.667v0zM28 16h-4v-12c0-0.002 0-0.003 0-0.005 0-0.491-0.265-0.92-0.66-1.151l-0.006-0.003c-0.191-0.112-0.421-0.179-0.667-0.179s-0.475 0.066-0.673 0.182l0.006-0.003-4 2.293-4-2.293c-0.191-0.112-0.421-0.179-0.667-0.179s-0.475 0.066-0.673 0.182l0.006-0.003-4 2.293-4-2.293c-0.191-0.112-0.421-0.179-0.667-0.179s-0.475 0.066-0.673 0.182l0.006-0.003c-0.401 0.235-0.667 0.664-0.667 1.155 0 0.002 0 0.004 0 0.006v-0 21.333c0 2.209 1.791 4 4 4v0h18.667c2.209 0 4-1.791 4-4v0-8c0-0.736-0.597-1.333-1.333-1.333v0zM6.667 26.667c-0.736 0-1.333-0.597-1.333-1.333v0-19.027l2.667 1.52c0.193 0.103 0.423 0.164 0.667 0.164s0.473-0.061 0.674-0.167l-0.008 0.004 4-2.293 4 2.293c0.193 0.103 0.423 0.164 0.667 0.164s0.473-0.061 0.674-0.167l-0.008 0.004 2.667-1.52v19.027c0.004 0.479 0.092 0.937 0.249 1.361l-0.009-0.028zM26.667 25.333c0 0.736-0.597 1.333-1.333 1.333s-1.333-0.597-1.333-1.333v0-6.667h2.667z"></path>
</svg>
