<!-- Generated by IcoMoon.io -->
<svg version="1.1" xmlns="http://www.w3.org/2000/svg" width="32" height="32" viewBox="0 0 32 32">
<title>ul-books</title>
<path fill="#fff" d="M29.96 25.093l-1.333-5.147-4.2-15.453c-0.157-0.575-0.674-0.99-1.288-0.99-0.12 0-0.237 0.016-0.348 0.046l0.009-0.002-5.16 1.333c-0.241-0.267-0.587-0.435-0.972-0.44h-13.334c-0.736 0-1.333 0.597-1.333 1.333v0 21.333c0 0.736 0.597 1.333 1.333 1.333v0h13.333c0.736 0 1.333-0.597 1.333-1.333v0-10.667l2.933 10.96c0.158 0.573 0.674 0.987 1.288 0.987 0.016 0 0.032-0 0.048-0.001l-0.002 0c0.052 0.006 0.112 0.010 0.173 0.010s0.121-0.004 0.181-0.011l-0.007 0.001 6.44-1.72c0.35-0.096 0.637-0.321 0.81-0.62l0.003-0.006c0.086-0.176 0.136-0.384 0.136-0.603 0-0.122-0.016-0.241-0.045-0.354l0.002 0.010zM8.627 25.827h-4v-2.667h4zM8.627 20.493h-4v-8h4zM8.627 9.827h-4v-2.667h4zM15.293 25.827h-4v-2.667h4zM15.293 20.493h-4v-8h4zM15.293 9.827h-4v-2.667h4zM18.293 7.507l3.867-1.040 0.693 2.573-3.867 1.040zM21.747 20.387l-2.067-7.733 3.867-1.040 2.067 7.733zM23.080 25.533l-0.693-2.573 3.867-1.040 0.693 2.573z"></path>
</svg>
