<!-- Generated by IcoMoon.io -->
<svg version="1.1" xmlns="http://www.w3.org/2000/svg" width="32" height="32" viewBox="0 0 32 32">
<title>ul-cloud-wifi</title>
<path fill="#fff" d="M11.333 7.92c1.342-0.774 2.951-1.23 4.667-1.23s3.325 0.456 4.713 1.255l-0.046-0.024c0.192 0.113 0.422 0.18 0.668 0.18 0.493 0 0.924-0.268 1.155-0.667l0.003-0.006c0.109-0.189 0.174-0.416 0.174-0.658 0-0.491-0.266-0.92-0.661-1.152l-0.006-0.003c-1.725-0.993-3.794-1.579-6-1.579s-4.275 0.586-6.059 1.611l0.059-0.031c-0.402 0.235-0.667 0.664-0.667 1.155 0 0.242 0.065 0.469 0.177 0.665l-0.003-0.006c0.234 0.405 0.665 0.673 1.158 0.673 0.246 0 0.477-0.067 0.675-0.183l-0.006 0.003zM24.56 14.947c-0.159-0.373-0.32-0.684-0.5-0.982l0.020 0.035c-0.238-0.386-0.659-0.639-1.139-0.639-0.26 0-0.502 0.074-0.707 0.203l0.006-0.003c-0.383 0.239-0.634 0.658-0.634 1.135 0 0.256 0.072 0.495 0.197 0.698l-0.003-0.006c0.189 0.319 0.36 0.689 0.494 1.077l0.013 0.043c0.157 0.463 0.55 0.807 1.032 0.892l0.008 0.001c1.895 0.336 3.316 1.968 3.32 3.933v0c0 2.209-1.791 4-4 4v0h-15.12c-1.118-0.177-1.996-1.028-2.211-2.116l-0.003-0.017c-0.034-0.16-0.054-0.345-0.054-0.534 0-1.473 1.194-2.667 2.667-2.667 0.019 0 0.038 0 0.057 0.001l-0.003-0c0.736 0 1.333-0.597 1.333-1.333v0c0-0.004-0-0.010-0-0.015 0-1.218 0.332-2.358 0.91-3.335l-0.017 0.030c0.113-0.192 0.18-0.422 0.18-0.668 0-0.493-0.268-0.924-0.667-1.155l-0.006-0.003c-0.189-0.109-0.416-0.174-0.658-0.174-0.491 0-0.92 0.266-1.152 0.661l-0.003 0.006c-0.596 0.997-1.011 2.169-1.169 3.422l-0.005 0.044c-1.148 0.286-2.121 0.913-2.833 1.765l-0.007 0.008c-0.791 0.925-1.273 2.135-1.273 3.458 0 2.703 2.011 4.937 4.619 5.286l0.027 0.003h15.387c3.674-0.010 6.648-2.991 6.648-6.667 0-3-1.982-5.537-4.708-6.374l-0.047-0.012zM19.827 12s0 0 0-0.080c0.066-0.077 0.124-0.165 0.17-0.259l0.003-0.007c0.056-0.142 0.089-0.306 0.089-0.478 0-0.562-0.348-1.043-0.84-1.239l-0.009-0.003c-0.681-0.261-1.47-0.442-2.291-0.505l-0.029-0.002c-0.133 0-0.267 0-0.4 0-0.162-0.013-0.35-0.020-0.54-0.020s-0.378 0.007-0.565 0.022l0.025-0.002c-0.062-0.003-0.134-0.005-0.207-0.005s-0.145 0.002-0.217 0.006l0.010-0c-0.85 0.065-1.639 0.245-2.378 0.526l0.058-0.019c-0.476 0.21-0.803 0.679-0.803 1.223 0 0.179 0.035 0.35 0.099 0.506l-0.003-0.009c0.050 0.097 0.103 0.18 0.163 0.257l-0.003-0.004c-0.002 0.022-0.003 0.047-0.003 0.073s0.001 0.051 0.004 0.077l-0-0.003c0.235 0.399 0.663 0.663 1.153 0.663 0.248 0 0.481-0.068 0.68-0.186l-0.006 0.003c0.576-0.327 1.266-0.52 2-0.52s1.424 0.193 2.020 0.531l-0.020-0.011c0.19 0.111 0.418 0.176 0.662 0.176 0.508 0 0.95-0.284 1.175-0.702l0.003-0.007zM14.667 16c0 0.736 0.597 1.333 1.333 1.333s1.333-0.597 1.333-1.333c0-0.736-0.597-1.333-1.333-1.333v0c-0.736 0-1.333 0.597-1.333 1.333v0z"></path>
</svg>
