<!-- Generated by IcoMoon.io -->
<svg version="1.1" xmlns="http://www.w3.org/2000/svg" width="32" height="32" viewBox="0 0 32 32">
<title>ul-comment-alt-edit</title>
<path fill="#fff" d="M24.667 7.333h-5.333c-0.736 0-1.333 0.597-1.333 1.333s0.597 1.333 1.333 1.333v0h5.333c0.736 0 1.333 0.597 1.333 1.333v0 12.96l-2.093-1.933c-0.237-0.222-0.556-0.359-0.906-0.36h-11.667c-0.736 0-1.333-0.597-1.333-1.333v0-1.333c0-0.736-0.597-1.333-1.333-1.333s-1.333 0.597-1.333 1.333v0 1.333c0 2.209 1.791 4 4 4v0h11.147l4 3.64c0.237 0.222 0.556 0.359 0.906 0.36h0c0.193-0.002 0.376-0.041 0.543-0.11l-0.010 0.004c0.475-0.211 0.8-0.679 0.8-1.222 0-0.002 0-0.003 0-0.005v0-16c0-0 0-0 0-0 0-2.209-1.791-4-4-4-0.019 0-0.037 0-0.056 0l0.003-0zM12.107 16.667h3.227c0.736 0 1.333-0.597 1.333-1.333v0-3.227c0-0.002 0-0.005 0-0.008 0-0.366-0.148-0.698-0.387-0.939l-7.44-7.44c-0.241-0.24-0.573-0.388-0.94-0.388s-0.699 0.148-0.94 0.388l-3.24 3.24c-0.24 0.241-0.388 0.573-0.388 0.94s0.148 0.699 0.388 0.94l7.44 7.44c0.241 0.239 0.573 0.387 0.939 0.387 0.003 0 0.005 0 0.008-0h-0zM7.893 6.547l6.107 6.107v1.333h-1.333l-6.12-6.093z"></path>
</svg>
