<!-- Generated by IcoMoon.io -->
<svg version="1.1" xmlns="http://www.w3.org/2000/svg" width="32" height="32" viewBox="0 0 32 32">
<title>ul-channel</title>
<path fill="#fff" d="M26.667 21.333c-0.866 0.005-1.666 0.284-2.318 0.755l0.012-0.008-3.267-1.933c0.147-0.441 0.235-0.949 0.24-1.477l0-0.003c-0.008-2.465-1.687-4.535-3.963-5.138l-0.037-0.008v-3.093c1.567-0.566 2.667-2.040 2.667-3.771 0-2.209-1.791-4-4-4s-4 1.791-4 4c0 1.731 1.1 3.206 2.639 3.762l0.028 0.009v3.093c-2.313 0.612-3.992 2.682-4 5.146v0.001c0.005 0.531 0.093 1.039 0.25 1.515l-0.010-0.035-3.267 1.933c-0.641-0.463-1.441-0.742-2.306-0.747h-0.001c-2.209 0-4 1.791-4 4s1.791 4 4 4c2.209 0 4-1.791 4-4v0c-0.005-0.382-0.063-0.748-0.167-1.095l0.007 0.028 3.067-1.827c0.964 0.958 2.293 1.551 3.76 1.551s2.796-0.592 3.76-1.551l-0 0 3.067 1.827c-0.092 0.32-0.145 0.687-0.145 1.067 0 2.209 1.791 4 4 4s4-1.791 4-4c0-2.209-1.791-4-4-4-0.005 0-0.011 0-0.016 0h0.001zM5.333 26.667c-0.736 0-1.333-0.597-1.333-1.333s0.597-1.333 1.333-1.333c0.736 0 1.333 0.597 1.333 1.333v0c0 0.736-0.597 1.333-1.333 1.333v0zM16 5.333c0.736 0 1.333 0.597 1.333 1.333s-0.597 1.333-1.333 1.333c-0.736 0-1.333-0.597-1.333-1.333v0c0-0.736 0.597-1.333 1.333-1.333v0zM16 21.333c-1.473 0-2.667-1.194-2.667-2.667s1.194-2.667 2.667-2.667c1.473 0 2.667 1.194 2.667 2.667v0c0 1.473-1.194 2.667-2.667 2.667v0zM26.667 26.667c-0.736 0-1.333-0.597-1.333-1.333s0.597-1.333 1.333-1.333c0.736 0 1.333 0.597 1.333 1.333v0c0 0.736-0.597 1.333-1.333 1.333v0z"></path>
</svg>
