<!-- Generated by IcoMoon.io -->
<svg version="1.1" xmlns="http://www.w3.org/2000/svg" width="32" height="32" viewBox="0 0 32 32">
<title>ul-calling</title>
<path fill="#fff" d="M27.293 12c0.736 0 1.333-0.597 1.333-1.333s-0.597-1.333-1.333-1.333c-0.736 0-1.333 0.597-1.333 1.333v0c0 0.736 0.597 1.333 1.333 1.333v0zM23.293 12c0.736 0 1.333-0.597 1.333-1.333s-0.597-1.333-1.333-1.333c-0.736 0-1.333 0.597-1.333 1.333v0c0 0.736 0.597 1.333 1.333 1.333v0zM19.293 12c0.736 0 1.333-0.597 1.333-1.333s-0.597-1.333-1.333-1.333c-0.736 0-1.333 0.597-1.333 1.333v0c0 0.736 0.597 1.333 1.333 1.333v0zM25.213 17.333c-0.293 0-0.6-0.093-0.893-0.16-0.684-0.152-1.268-0.331-1.833-0.549l0.086 0.029c-0.271-0.102-0.585-0.161-0.912-0.161-1.046 0-1.951 0.602-2.388 1.479l-0.007 0.015-0.293 0.6c-1.357-0.765-2.526-1.649-3.562-2.669l0.002 0.002c-1.012-1.033-1.896-2.197-2.623-3.463l-0.044-0.083 0.587-0.373c0.892-0.444 1.494-1.349 1.494-2.395 0-0.327-0.059-0.641-0.167-0.93l0.006 0.018c-0.183-0.471-0.362-1.055-0.502-1.654l-0.018-0.093c-0.067-0.307-0.12-0.6-0.16-0.907-0.336-1.898-1.973-3.32-3.942-3.32-0.020 0-0.041 0-0.061 0l0.003-0h-4c-0.002 0-0.003 0-0.005 0-1.183 0-2.246 0.513-2.978 1.33l-0.003 0.004c-0.626 0.703-1.009 1.635-1.009 2.656 0 0.187 0.013 0.372 0.038 0.552l-0.002-0.021c1.486 11.488 10.485 20.487 21.846 21.96l0.127 0.013c0.078 0.006 0.169 0.010 0.26 0.010s0.182-0.004 0.272-0.011l-0.012 0.001c2.209 0 4-1.791 4-4v0-4c-0.030-1.939-1.435-3.542-3.282-3.876l-0.024-0.004zM25.867 25.333c0 0.005 0 0.010 0 0.015 0 0.736-0.597 1.333-1.333 1.333-0.071 0-0.14-0.006-0.208-0.016l0.008 0.001c-5.179-0.694-9.716-3.033-13.161-6.467l0.001 0.001c-3.441-3.467-5.779-8.033-6.441-13.125l-0.012-0.115c-0.009-0.059-0.014-0.126-0.014-0.195 0-0.346 0.132-0.662 0.349-0.899l-0.001 0.001c0.242-0.275 0.594-0.449 0.986-0.453h4.001c0.009-0 0.019-0 0.030-0 0.637 0 1.17 0.447 1.302 1.045l0.002 0.009q0.080 0.547 0.2 1.080c0.179 0.809 0.39 1.5 0.648 2.168l-0.034-0.101-1.867 0.867c-0.463 0.216-0.777 0.677-0.777 1.212 0 0.204 0.046 0.397 0.127 0.57l-0.003-0.008c1.958 4.127 5.206 7.376 9.216 9.283l0.117 0.050c0.15 0.063 0.324 0.1 0.507 0.1s0.357-0.037 0.515-0.103l-0.009 0.003c0.333-0.127 0.597-0.373 0.743-0.685l0.003-0.008 0.84-1.867c0.558 0.21 1.263 0.421 1.983 0.589l0.123 0.024c0.347 0.080 0.72 0.147 1.080 0.2 0.6 0.139 1.040 0.668 1.040 1.301 0 0.011-0 0.023-0 0.034l0-0.002z"></path>
</svg>
