<!-- Generated by IcoMoon.io -->
<svg version="1.1" xmlns="http://www.w3.org/2000/svg" width="32" height="32" viewBox="0 0 32 32">
<title>ul-corner-down-right</title>
<path fill="#fff" d="M26.147 21.333c-0.077-0.169-0.175-0.315-0.294-0.441l0.001 0.001-6.173-6.227c-0.232-0.199-0.535-0.321-0.867-0.321-0.736 0-1.333 0.597-1.333 1.333 0 0.332 0.121 0.636 0.322 0.869l-0.001-0.002 3.893 3.893h-9.333c-2.209 0-4-1.791-4-4v0-12.44c0-0.736-0.597-1.333-1.333-1.333s-1.333 0.597-1.333 1.333v0 12.493c0 3.682 2.985 6.667 6.667 6.667v0h9.333l-3.893 3.893c-0.244 0.242-0.394 0.577-0.394 0.947s0.151 0.705 0.394 0.947l0 0c0.241 0.239 0.573 0.387 0.939 0.387 0.003 0 0.005 0 0.008-0h-0c0.364-0.002 0.694-0.149 0.933-0.387l6.173-6.173c0.123-0.122 0.222-0.269 0.29-0.431l0.003-0.009c0.062-0.148 0.097-0.32 0.097-0.5s-0.036-0.352-0.101-0.509l0.003 0.009z"></path>
</svg>
