<!-- Generated by IcoMoon.io -->
<svg version="1.1" xmlns="http://www.w3.org/2000/svg" width="32" height="32" viewBox="0 0 32 32">
<title>ul-club</title>
<path fill="#fff" d="M28 16.667c-0.012-3.089-1.926-5.728-4.63-6.809l-0.050-0.018c0-4.050-3.283-7.333-7.333-7.333s-7.333 3.283-7.333 7.333v0c-2.749 1.1-4.655 3.741-4.655 6.827 0 4.050 3.283 7.333 7.333 7.333 0.001 0 0.001 0 0.002 0h0.267c-0.362 1.224-0.928 2.286-1.667 3.204l0.014-0.018c-0.173 0.223-0.277 0.506-0.277 0.813 0 0.731 0.588 1.324 1.316 1.333h10.028c0.001 0 0.003 0 0.005 0 0.736 0 1.333-0.597 1.333-1.333 0-0.32-0.112-0.613-0.3-0.842l0.002 0.002c-0.722-0.893-1.288-1.946-1.636-3.095l-0.017-0.065h0.267c4.047-0.008 7.326-3.286 7.333-7.333v-0.001zM13.413 26.667c0.5-0.989 0.877-2.137 1.071-3.346l0.009-0.068c0.575-0.268 1.070-0.58 1.521-0.944l-0.014 0.011c0.437 0.353 0.932 0.665 1.462 0.915l0.044 0.019c0.203 1.277 0.58 2.424 1.111 3.482l-0.031-0.068zM17.040 19.6l-0.213-0.213h-0.093l-0.24-0.12-0.24-0.080h-0.507l-0.24 0.080c-0.087 0.029-0.162 0.069-0.228 0.121l0.002-0.001h-0.107l-0.213 0.213c-0.862 1.060-2.167 1.732-3.628 1.732-2.577 0-4.667-2.089-4.667-4.667 0-2.224 1.555-4.084 3.637-4.553l0.031-0.006c0.083-0.034 0.153-0.069 0.22-0.11l-0.006 0.004c0.095-0.035 0.174-0.071 0.25-0.112l-0.010 0.005c0.070-0.052 0.131-0.109 0.185-0.172l0.001-0.001c0.131-0.104 0.229-0.245 0.278-0.407l0.002-0.006c0.040-0.065 0.072-0.141 0.092-0.221l0.001-0.006c0.006-0.040 0.010-0.086 0.010-0.133s-0.004-0.093-0.010-0.138l0.001 0.005c0.003-0.034 0.005-0.073 0.005-0.113s-0.002-0.079-0.005-0.118l0 0.005c-0.006-0.090-0.010-0.194-0.010-0.3s0.004-0.21 0.011-0.314l-0.001 0.014c0-2.577 2.089-4.667 4.667-4.667s4.667 2.089 4.667 4.667v0c0.006 0.090 0.010 0.194 0.010 0.3s-0.004 0.21-0.011 0.314l0.001-0.014c-0.003 0.032-0.005 0.069-0.005 0.107s0.002 0.075 0.006 0.111l-0-0.005c-0.006 0.042-0.010 0.091-0.010 0.14s0.004 0.098 0.011 0.145l-0.001-0.005c0.021 0.086 0.053 0.161 0.095 0.23l-0.002-0.004c0.051 0.168 0.149 0.309 0.278 0.412l0.002 0.001c0.055 0.065 0.117 0.122 0.184 0.171l0.003 0.002c0.066 0.036 0.145 0.072 0.227 0.102l0.013 0.004c0.059 0.033 0.13 0.064 0.203 0.090l0.010 0.003c2.113 0.475 3.668 2.335 3.668 4.559 0 2.577-2.089 4.667-4.667 4.667-1.461 0-2.766-0.672-3.622-1.723l-0.007-0.009z"></path>
</svg>
