<!-- Generated by IcoMoon.io -->
<svg version="1.1" xmlns="http://www.w3.org/2000/svg" width="32" height="32" viewBox="0 0 32 32">
<title>ul-cloud-question</title>
<path fill="#fff" d="M24.56 10.96c-1.475-3.329-4.75-5.609-8.558-5.609-4.73 0-8.638 3.519-9.25 8.081l-0.005 0.048c-2.365 0.58-4.091 2.682-4.091 5.187 0 2.946 2.388 5.333 5.333 5.333 0.004 0 0.008 0 0.012 0h2.666c0.736 0 1.333-0.597 1.333-1.333s-0.597-1.333-1.333-1.333v0h-2.667c-1.473 0-2.667-1.194-2.667-2.667s1.194-2.667 2.667-2.667v0c0.736 0 1.333-0.597 1.333-1.333v0c0.008-3.676 2.99-6.652 6.667-6.652 2.908 0 5.381 1.862 6.292 4.459l0.014 0.047c0.157 0.463 0.55 0.807 1.032 0.892l0.008 0.001c1.89 0.335 3.309 1.96 3.32 3.919v0.001c0 2.209-1.791 4-4 4v0c-0.736 0-1.333 0.597-1.333 1.333s0.597 1.333 1.333 1.333v0c3.655-0.035 6.605-3.006 6.605-6.666 0-2.984-1.961-5.511-4.665-6.361l-0.047-0.013zM17.227 24.827c-0.029-0.087-0.069-0.162-0.121-0.228l0.001 0.002-0.16-0.213c-0.125-0.114-0.271-0.208-0.43-0.276l-0.010-0.004c-0.153-0.066-0.33-0.104-0.517-0.104-0.365 0-0.696 0.147-0.937 0.384l0-0-0.16 0.213c-0.051 0.065-0.091 0.14-0.118 0.221l-0.002 0.005c-0.036 0.069-0.064 0.15-0.079 0.235l-0.001 0.005c-0.003 0.040-0.004 0.086-0.004 0.133s0.002 0.093 0.005 0.14l-0-0.006c-0.003 0.038-0.005 0.082-0.005 0.127s0.002 0.089 0.005 0.132l-0-0.006c0.014 0.095 0.042 0.18 0.082 0.258l-0.002-0.004c0.029 0.087 0.069 0.162 0.121 0.228l-0.001-0.002 0.16 0.213c0.246 0.235 0.579 0.381 0.946 0.387h0.001c0.184-0.002 0.357-0.041 0.515-0.11l-0.009 0.003c0.169-0.072 0.315-0.166 0.441-0.281l-0.001 0.001 0.16-0.213c0.051-0.065 0.091-0.14 0.118-0.221l0.002-0.005c0.038-0.073 0.066-0.159 0.079-0.249l0-0.004c0.015-0.075 0.024-0.162 0.027-0.251l0-0.002c0.003-0.040 0.004-0.086 0.004-0.133s-0.002-0.093-0.005-0.14l0 0.006c-0.025-0.091-0.062-0.171-0.109-0.243l0.002 0.003zM16 14.667c-0.001 0-0.002 0-0.003 0-1.473 0-2.76 0.796-3.454 1.981l-0.010 0.019c-0.113 0.192-0.18 0.422-0.18 0.668 0 0.493 0.268 0.924 0.667 1.155l0.006 0.003c0.189 0.109 0.416 0.174 0.658 0.174 0.491 0 0.92-0.266 1.152-0.661l0.003-0.006c0.235-0.401 0.664-0.667 1.155-0.667 0.002 0 0.004 0 0.006 0h-0c0.736 0 1.333 0.597 1.333 1.333s-0.597 1.333-1.333 1.333v0c-0.736 0-1.333 0.597-1.333 1.333s0.597 1.333 1.333 1.333v0c2.209 0 4-1.791 4-4s-1.791-4-4-4v0z"></path>
</svg>
