<!-- Generated by IcoMoon.io -->
<svg version="1.1" xmlns="http://www.w3.org/2000/svg" width="32" height="32" viewBox="0 0 32 32">
<title>ul-calender</title>
<path fill="#fff" d="M25.333 5.333h-2.667v-1.333c0-0.736-0.597-1.333-1.333-1.333s-1.333 0.597-1.333 1.333v0 1.333h-8v-1.333c0-0.736-0.597-1.333-1.333-1.333s-1.333 0.597-1.333 1.333v0 1.333h-2.667c-2.209 0-4 1.791-4 4v0 16c0 2.209 1.791 4 4 4v0h18.667c2.209 0 4-1.791 4-4v0-16c0-2.209-1.791-4-4-4v0zM26.667 25.333c0 0.736-0.597 1.333-1.333 1.333v0h-18.667c-0.736 0-1.333-0.597-1.333-1.333v0-9.333h21.333zM26.667 13.333h-21.333v-4c0-0.736 0.597-1.333 1.333-1.333v0h2.667v1.333c0 0.736 0.597 1.333 1.333 1.333s1.333-0.597 1.333-1.333v0-1.333h8v1.333c0 0.736 0.597 1.333 1.333 1.333s1.333-0.597 1.333-1.333v0-1.333h2.667c0.736 0 1.333 0.597 1.333 1.333v0z"></path>
</svg>
