<!-- Generated by IcoMoon.io -->
<svg version="1.1" xmlns="http://www.w3.org/2000/svg" width="32" height="32" viewBox="0 0 32 32">
<title>ul-comment-edit</title>
<path fill="#fff" d="M28.947 6.293l-3.24-3.24c-0.241-0.24-0.573-0.388-0.94-0.388s-0.699 0.148-0.94 0.388l-7.44 7.44c-0.239 0.241-0.387 0.573-0.387 0.939 0 0.003 0 0.005 0 0.008v-0 3.227c0 0.736 0.597 1.333 1.333 1.333v0h3.227c0.002 0 0.005 0 0.008 0 0.366 0 0.698-0.148 0.939-0.387l7.44-7.44c0.24-0.241 0.388-0.573 0.388-0.94s-0.148-0.699-0.388-0.94l0 0zM20 13.333h-1.333v-1.333l6.107-6.107 1.333 1.333zM25.333 16v0c-0.736 0-1.333 0.597-1.333 1.333v0c0 5.155-4.179 9.333-9.333 9.333v0h-7.453l0.853-0.84c0.244-0.242 0.394-0.577 0.394-0.947s-0.151-0.705-0.394-0.947l-0-0c-1.689-1.689-2.734-4.023-2.734-6.6 0-5.155 4.179-9.333 9.333-9.333 0 0 0 0 0.001 0h-0c0.736 0 1.333-0.597 1.333-1.333s-0.597-1.333-1.333-1.333v0 0c-6.61 0.022-11.961 5.386-11.961 12 0 2.846 0.99 5.46 2.645 7.517l-0.018-0.023-2.28 2.227c-0.238 0.241-0.384 0.571-0.384 0.936 0 0.187 0.038 0.364 0.108 0.526l-0.003-0.009c0.204 0.487 0.676 0.824 1.226 0.827h10.667c6.627 0 12-5.373 12-12v0c0-0.736-0.597-1.333-1.333-1.333v0z"></path>
</svg>
