<!-- Generated by IcoMoon.io -->
<svg version="1.1" xmlns="http://www.w3.org/2000/svg" width="32" height="32" viewBox="0 0 32 32">
<title>ul-calculator-alt</title>
<path fill="#fff" d="M7.333 10.667h0.667v0.667c0 0.736 0.597 1.333 1.333 1.333s1.333-0.597 1.333-1.333v0-0.667h0.667c0.736 0 1.333-0.597 1.333-1.333s-0.597-1.333-1.333-1.333v0h-0.667v-0.667c0-0.736-0.597-1.333-1.333-1.333s-1.333 0.597-1.333 1.333v0 0.667h-0.667c-0.736 0-1.333 0.597-1.333 1.333s0.597 1.333 1.333 1.333v0zM6.507 25.493c0.241 0.24 0.573 0.388 0.94 0.388s0.699-0.148 0.94-0.388l0.947-0.947 0.947 0.947c0.241 0.24 0.573 0.388 0.94 0.388s0.699-0.148 0.94-0.388l-0 0c0.24-0.241 0.388-0.573 0.388-0.94s-0.148-0.699-0.388-0.94l-0.947-0.947 0.947-0.947c0.199-0.232 0.321-0.535 0.321-0.867 0-0.736-0.597-1.333-1.333-1.333-0.332 0-0.636 0.121-0.869 0.322l0.002-0.001-0.947 0.947-0.947-0.947c-0.232-0.199-0.535-0.321-0.867-0.321-0.736 0-1.333 0.597-1.333 1.333 0 0.332 0.121 0.636 0.322 0.869l-0.001-0.002 0.947 0.947-0.947 0.947c-0.24 0.241-0.388 0.573-0.388 0.94s0.148 0.699 0.388 0.94l-0-0zM26.667 1.333h-21.333c-2.209 0-4 1.791-4 4v0 21.333c0 2.209 1.791 4 4 4v0h21.333c2.209 0 4-1.791 4-4v0-21.333c0-2.209-1.791-4-4-4v0zM14.667 28h-9.333c-0.736 0-1.333-0.597-1.333-1.333v0-9.333h10.667zM14.667 14.667h-10.667v-9.333c0-0.736 0.597-1.333 1.333-1.333v0h9.333zM28 26.667c0 0.736-0.597 1.333-1.333 1.333v0h-9.333v-10.667h10.667zM28 14.667h-10.667v-10.667h9.333c0.736 0 1.333 0.597 1.333 1.333v0zM20.667 22h4c0.736 0 1.333-0.597 1.333-1.333s-0.597-1.333-1.333-1.333v0h-4c-0.736 0-1.333 0.597-1.333 1.333s0.597 1.333 1.333 1.333v0zM24.667 8h-4c-0.736 0-1.333 0.597-1.333 1.333s0.597 1.333 1.333 1.333v0h4c0.736 0 1.333-0.597 1.333-1.333s-0.597-1.333-1.333-1.333v0zM20.667 26h4c0.736 0 1.333-0.597 1.333-1.333s-0.597-1.333-1.333-1.333v0h-4c-0.736 0-1.333 0.597-1.333 1.333s0.597 1.333 1.333 1.333v0z"></path>
</svg>
