<!-- Generated by IcoMoon.io -->
<svg version="1.1" xmlns="http://www.w3.org/2000/svg" width="32" height="32" viewBox="0 0 32 32">
<title>ul-envelope-search</title>
<path fill="#fff" d="M29.613 13.72l-2.307-2.293c0.536-0.857 0.858-1.897 0.867-3.011v-0.002c-0.008-3.168-2.578-5.733-5.747-5.733-3.174 0-5.747 2.573-5.747 5.747 0 3.169 2.565 5.739 5.733 5.747h0.001c1.114-0 2.154-0.313 3.039-0.854l-0.025 0.014 2.293 2.307c0.242 0.244 0.577 0.394 0.947 0.394s0.705-0.151 0.947-0.394l0-0c0.252-0.243 0.408-0.583 0.408-0.96s-0.156-0.717-0.408-0.96l-0-0zM24.6 10.667c-0.566 0.54-1.334 0.872-2.18 0.872s-1.614-0.332-2.181-0.874l0.001 0.001c-0.56-0.556-0.907-1.326-0.907-2.177 0-0.003 0-0.007 0-0.010v0.001c-0-0.016-0-0.035-0-0.053 0-1.704 1.378-3.086 3.080-3.093h0.001c0.003 0 0.006 0 0.010 0 0.851 0 1.621 0.347 2.177 0.907l0 0c0.56 0.552 0.907 1.318 0.907 2.166 0 0.003 0 0.005 0 0.008v-0c0.001 0.023 0.001 0.049 0.001 0.076 0 0.851-0.347 1.622-0.907 2.178l-0 0zM27.333 18.667c-0.736 0-1.333 0.597-1.333 1.333v0 5.333c0 0.736-0.597 1.333-1.333 1.333v0h-18.667c-0.736 0-1.333-0.597-1.333-1.333v0-12.787l7.84 7.853c0.724 0.723 1.723 1.17 2.827 1.17s2.103-0.447 2.827-1.17l-0 0 1.84-1.893c0.242-0.242 0.392-0.577 0.392-0.947 0-0.739-0.599-1.339-1.339-1.339-0.37 0-0.704 0.15-0.947 0.392v0l-1.84 1.893c-0.24 0.236-0.57 0.381-0.933 0.381s-0.693-0.145-0.934-0.381l0 0-7.853-7.84h6.12c0.736 0 1.333-0.597 1.333-1.333s-0.597-1.333-1.333-1.333v0h-6.667c-2.209 0-4 1.791-4 4v0 13.333c0 2.209 1.791 4 4 4v0h18.667c2.209 0 4-1.791 4-4v0-5.333c0-0.736-0.597-1.333-1.333-1.333v0z"></path>
</svg>
