<!-- Generated by IcoMoon.io -->
<svg version="1.1" xmlns="http://www.w3.org/2000/svg" width="32" height="32" viewBox="0 0 32 32">
<title>ul-envelope-exclamation</title>
<path fill="#fff" d="M28 18c-0.736 0-1.333 0.597-1.333 1.333v0 5.333c0 0.736-0.597 1.333-1.333 1.333v0h-18.667c-0.736 0-1.333-0.597-1.333-1.333v0-12.787l7.84 7.84c0.724 0.723 1.723 1.17 2.827 1.17s2.103-0.447 2.827-1.17l-0 0 4.787-4.773c0.242-0.242 0.392-0.577 0.392-0.947 0-0.739-0.599-1.339-1.339-1.339-0.37 0-0.704 0.15-0.947 0.392v0l-4.773 4.787c-0.242 0.244-0.577 0.394-0.947 0.394s-0.705-0.151-0.947-0.394l-7.84-7.84h15.453c0.736 0 1.333-0.597 1.333-1.333s-0.597-1.333-1.333-1.333v0h-16c-2.209 0-4 1.791-4 4v0 13.333c0 2.209 1.791 4 4 4v0h18.667c2.209 0 4-1.791 4-4v0-5.333c0-0.736-0.597-1.333-1.333-1.333v0zM28 3.333c-0.736 0-1.333 0.597-1.333 1.333v0 5.333c0 0.736 0.597 1.333 1.333 1.333s1.333-0.597 1.333-1.333v0-5.333c0-0.736-0.597-1.333-1.333-1.333v0zM27.733 12.667c-0.090 0.016-0.171 0.044-0.245 0.082l0.005-0.002c-0.092 0.032-0.171 0.072-0.243 0.122l0.003-0.002-0.2 0.16c-0.235 0.246-0.381 0.579-0.387 0.946v0.001c-0.003 0.038-0.005 0.082-0.005 0.127s0.002 0.089 0.005 0.132l-0-0.006c0.014 0.095 0.042 0.18 0.082 0.258l-0.002-0.004c0.032 0.092 0.072 0.171 0.122 0.243l-0.002-0.003c0.053 0.075 0.105 0.14 0.162 0.202l-0.002-0.002c0.242 0.244 0.577 0.394 0.947 0.394s0.705-0.151 0.947-0.394l0-0 0.16-0.2c0.048-0.069 0.088-0.148 0.118-0.233l0.002-0.007c0.038-0.073 0.066-0.159 0.079-0.249l0-0.004c0.003-0.038 0.005-0.082 0.005-0.127s-0.002-0.089-0.005-0.132l0 0.006c0-0.008 0-0.018 0-0.027 0-0.736-0.597-1.333-1.333-1.333-0.095 0-0.187 0.010-0.276 0.029l0.009-0.002z"></path>
</svg>
