<!-- Generated by IcoMoon.io -->
<svg version="1.1" xmlns="http://www.w3.org/2000/svg" width="32" height="32" viewBox="0 0 32 32">
<title>ul-envelope-info</title>
<path fill="#fff" d="M28 18c-0.736 0-1.333 0.597-1.333 1.333v0 5.333c0 0.736-0.597 1.333-1.333 1.333v0h-18.667c-0.736 0-1.333-0.597-1.333-1.333v0-12.787l7.84 7.84c0.724 0.723 1.723 1.17 2.827 1.17s2.103-0.447 2.827-1.17l-0 0 4.787-4.773c0.242-0.242 0.392-0.577 0.392-0.947 0-0.739-0.599-1.339-1.339-1.339-0.37 0-0.704 0.15-0.947 0.392v0l-4.773 4.787c-0.242 0.244-0.577 0.394-0.947 0.394s-0.705-0.151-0.947-0.394l-7.84-7.84h15.453c0.736 0 1.333-0.597 1.333-1.333s-0.597-1.333-1.333-1.333v0h-16c-2.209 0-4 1.791-4 4v0 13.333c0 2.209 1.791 4 4 4v0h18.667c2.209 0 4-1.791 4-4v0-5.333c0-0.736-0.597-1.333-1.333-1.333v0zM28 6c0.368-0.005 0.701-0.152 0.947-0.387l-0.001 0 0.16-0.213c0.051-0.065 0.091-0.14 0.118-0.221l0.002-0.005c0.045-0.069 0.082-0.149 0.105-0.234l0.001-0.006c0.003-0.040 0.005-0.086 0.005-0.133s-0.002-0.093-0.005-0.139l0 0.006c-0.005-0.368-0.152-0.7-0.387-0.947l0 0.001c-0.242-0.244-0.577-0.394-0.947-0.394s-0.705 0.151-0.947 0.394l-0 0c-0.244 0.242-0.394 0.577-0.394 0.947s0.151 0.705 0.394 0.947l0 0c0.246 0.235 0.579 0.381 0.946 0.387h0.001zM28 7.333c-0.736 0-1.333 0.597-1.333 1.333v0 5.333c0 0.736 0.597 1.333 1.333 1.333s1.333-0.597 1.333-1.333v0-5.333c0-0.736-0.597-1.333-1.333-1.333v0z"></path>
</svg>
