<!-- Generated by IcoMoon.io -->
<svg version="1.1" xmlns="http://www.w3.org/2000/svg" width="32" height="32" viewBox="0 0 32 32">
<title>ul-folder-network</title>
<path fill="#fff" d="M28 24h-8.24c-0.412-1.135-1.291-2.014-2.399-2.418l-0.028-0.009v-2.907h4.893c1.713-0.008 3.099-1.394 3.107-3.106v-7.121c-0.008-1.713-1.394-3.099-3.106-3.107h-5.334l-0.173-0.547c-0.423-1.224-1.553-2.092-2.89-2.12l-0.003-0h-4c-0.012-0-0.026-0-0.040-0-1.719 0-3.113 1.389-3.12 3.106v9.787c0.008 1.713 1.394 3.099 3.106 3.107h4.894v2.907c-1.135 0.412-2.014 1.291-2.418 2.399l-0.009 0.028h-8.24c-0.736 0-1.333 0.597-1.333 1.333s0.597 1.333 1.333 1.333v0h8.24c0.574 1.55 2.040 2.635 3.76 2.635s3.186-1.085 3.751-2.608l0.009-0.028h8.24c0.736 0 1.333-0.597 1.333-1.333s-0.597-1.333-1.333-1.333v0zM9.773 16c-0.243 0-0.44-0.197-0.44-0.44v-9.787c0-0.243 0.197-0.44 0.44-0.44v0h4c0.002-0 0.005-0 0.007-0 0.195 0 0.361 0.127 0.418 0.304l0.001 0.003 0.48 1.453c0.183 0.532 0.68 0.908 1.264 0.908 0.020 0 0.040-0 0.059-0.001l-0.003 0h6.227c0.243 0 0.44 0.197 0.44 0.44v0 7.12c0 0.243-0.197 0.44-0.44 0.44v0zM16 26.667c-0.736 0-1.333-0.597-1.333-1.333s0.597-1.333 1.333-1.333c0.736 0 1.333 0.597 1.333 1.333v0c0 0.736-0.597 1.333-1.333 1.333v0z"></path>
</svg>
