<!-- Generated by IcoMoon.io -->
<svg version="1.1" xmlns="http://www.w3.org/2000/svg" width="32" height="32" viewBox="0 0 32 32">
<title>ul-folder-exclamation</title>
<path fill="#fff" d="M17.227 21.493c-0.032-0.092-0.072-0.171-0.122-0.243l0.002 0.003c-0.053-0.075-0.105-0.14-0.162-0.202l0.002 0.002-0.2-0.16-0.24-0.12c-0.073-0.038-0.159-0.066-0.249-0.079l-0.004-0c-0.079-0.017-0.169-0.026-0.262-0.026-0.366 0-0.697 0.147-0.938 0.386l0-0-0.16 0.2c-0.048 0.069-0.088 0.148-0.118 0.233l-0.002 0.007c-0.036 0.069-0.064 0.15-0.079 0.235l-0.001 0.005c-0.003 0.040-0.005 0.086-0.005 0.133s0.002 0.093 0.005 0.139l-0-0.006c0.002 0.184 0.041 0.357 0.11 0.515l-0.003-0.009c0.072 0.169 0.166 0.315 0.281 0.441l-0.001-0.001c0.242 0.243 0.576 0.394 0.946 0.394 0.183 0 0.357-0.037 0.516-0.104l-0.009 0.003c0.168-0.082 0.313-0.18 0.442-0.295l-0.002 0.002c0.113-0.127 0.211-0.272 0.288-0.429l0.005-0.011c0.044-0.127 0.069-0.272 0.069-0.424 0-0.029-0.001-0.058-0.003-0.087l0 0.004c0.003-0.040 0.005-0.086 0.005-0.133s-0.002-0.093-0.005-0.139l0 0.006c-0.025-0.091-0.062-0.171-0.109-0.243l0.002 0.003zM16 14c-0.736 0-1.333 0.597-1.333 1.333v0 2.667c0 0.736 0.597 1.333 1.333 1.333s1.333-0.597 1.333-1.333v0-2.667c0-0.736-0.597-1.333-1.333-1.333v0zM25.333 7.333h-8.373l-0.427-1.333c-0.566-1.567-2.040-2.667-3.771-2.667-0.005 0-0.011 0-0.016 0h-6.079c-2.209 0-4 1.791-4 4v0 17.333c0 2.209 1.791 4 4 4v0h18.667c2.209 0 4-1.791 4-4v0-13.333c0-2.209-1.791-4-4-4v0zM26.667 24.667c0 0.736-0.597 1.333-1.333 1.333v0h-18.667c-0.736 0-1.333-0.597-1.333-1.333v0-17.333c0-0.736 0.597-1.333 1.333-1.333v0h6.080c0.001 0 0.002 0 0.003 0 0.584 0 1.080 0.375 1.26 0.897l0.003 0.009 0.72 2.187c0.183 0.532 0.68 0.907 1.263 0.907 0.001 0 0.002 0 0.004 0h9.333c0.736 0 1.333 0.597 1.333 1.333v0z"></path>
</svg>
