<!-- Generated by IcoMoon.io -->
<svg version="1.1" xmlns="http://www.w3.org/2000/svg" width="32" height="32" viewBox="0 0 32 32">
<title>ul-file-block-alt</title>
<path fill="#fff" d="M9.333 10.667c-0.736 0-1.333 0.597-1.333 1.333s0.597 1.333 1.333 1.333v0h1.333c0.736 0 1.333-0.597 1.333-1.333s-0.597-1.333-1.333-1.333v0zM16 26.667h-9.333c-0.736 0-1.333-0.597-1.333-1.333v0-18.667c0-0.736 0.597-1.333 1.333-1.333v0h6.667v4c0 2.209 1.791 4 4 4v0h4v1.333c0 0.736 0.597 1.333 1.333 1.333s1.333-0.597 1.333-1.333v0-2.667s0 0 0-0.080c-0.015-0.134-0.044-0.256-0.084-0.372l0.004 0.012v-0.12c-0.068-0.143-0.153-0.267-0.254-0.374l0.001 0.001-8-8c-0.107-0.101-0.23-0.185-0.365-0.25l-0.009-0.004c-0.018-0.003-0.039-0.004-0.060-0.004s-0.042 0.002-0.062 0.005l0.002-0-0.427-0.147h-8.080c-2.209 0-4 1.791-4 4v0 18.667c0 2.209 1.791 4 4 4v0h9.333c0.736 0 1.333-0.597 1.333-1.333s-0.597-1.333-1.333-1.333v0zM16 7.213l3.453 3.453h-2.12c-0.736 0-1.333-0.597-1.333-1.333v0zM27.773 20.227c-0.979-0.935-2.309-1.511-3.773-1.511s-2.794 0.576-3.775 1.513l0.002-0.002c-0.964 0.965-1.56 2.297-1.56 3.769 0 2.946 2.388 5.333 5.333 5.333s5.333-2.388 5.333-5.333c0-1.472-0.596-2.804-1.56-3.769l0 0zM21.333 24c0-1.473 1.194-2.667 2.667-2.667v0c0.243 0.003 0.477 0.037 0.7 0.098l-0.020-0.005-3.253 3.253c-0.056-0.203-0.090-0.437-0.093-0.678l-0-0.002zM25.88 25.88c-0.48 0.468-1.137 0.756-1.861 0.756-0.244 0-0.48-0.033-0.705-0.094l0.019 0.004 3.24-3.227c0.056 0.203 0.090 0.437 0.093 0.678l0 0.002c-0.003 0.735-0.303 1.399-0.787 1.88l-0 0zM14.667 24c0.736 0 1.333-0.597 1.333-1.333s-0.597-1.333-1.333-1.333v0h-5.333c-0.736 0-1.333 0.597-1.333 1.333s0.597 1.333 1.333 1.333v0zM17.333 16h-8c-0.736 0-1.333 0.597-1.333 1.333s0.597 1.333 1.333 1.333v0h8c0.736 0 1.333-0.597 1.333-1.333s-0.597-1.333-1.333-1.333v0z"></path>
</svg>
