<!-- Generated by IcoMoon.io -->
<svg version="1.1" xmlns="http://www.w3.org/2000/svg" width="32" height="32" viewBox="0 0 32 32">
<title>ul-facebook-messenger-alt</title>
<path fill="#fff" d="M15.988 1.334c-0.153-0.006-0.334-0.009-0.515-0.009-7.816 0-14.153 6.336-14.153 14.153 0 0.043 0 0.087 0.001 0.13l-0-0.007c-0.001 0.053-0.001 0.115-0.001 0.177 0 4.079 1.751 7.749 4.542 10.3l0.011 0.010 0.069 2.254c0.042 1.292 1.1 2.324 2.398 2.324 0 0 0 0 0 0v0c0.351-0 0.684-0.075 0.984-0.209l-0.015 0.006 2.561-1.129c1.224 0.339 2.63 0.534 4.081 0.534 0.013 0 0.026 0 0.039-0h-0.002c0.154 0.006 0.334 0.009 0.515 0.009 7.817 0 14.154-6.337 14.154-14.154 0-0.043-0-0.086-0.001-0.129l0 0.007c0-0.036 0.001-0.079 0.001-0.123 0-7.817-6.337-14.154-14.154-14.154-0.181 0-0.361 0.003-0.541 0.010l0.026-0.001zM15.988 27.201c-0.011 0-0.025 0-0.038 0-1.237 0-2.433-0.171-3.568-0.49l0.093 0.022c-0.187-0.053-0.402-0.083-0.625-0.083-0.351 0-0.685 0.076-0.986 0.211l0.015-0.006-2.285 1.008-0.060-1.991c-0.029-0.677-0.332-1.277-0.8-1.697l-0.002-0.002c-2.304-2.080-3.746-5.077-3.746-8.411 0-0.057 0-0.113 0.001-0.17l-0 0.009c-0-0.019-0-0.041-0-0.063 0-6.377 5.169-11.546 11.546-11.546 0.16 0 0.319 0.003 0.477 0.010l-0.023-0.001c0.118-0.004 0.256-0.007 0.394-0.007 6.41 0 11.607 5.197 11.607 11.607s-5.197 11.607-11.607 11.607c-0.139 0-0.277-0.002-0.414-0.007l0.020 0.001zM20.967 11.447l-3.083 3.673-4.462-2.742c-0.198-0.124-0.439-0.197-0.698-0.197-0.409 0-0.775 0.185-1.020 0.475l-0.002 0.002-4.069 4.849c-0.196 0.23-0.315 0.531-0.315 0.86 0 0.736 0.597 1.333 1.333 1.333 0.41 0 0.777-0.185 1.022-0.477l0.002-0.002 3.331-3.967 4.462 2.741c0.199 0.124 0.44 0.198 0.698 0.198 0.409 0 0.775-0.184 1.019-0.474l0.002-0.002 3.822-4.555c0.197-0.231 0.317-0.533 0.317-0.863 0-0.736-0.597-1.333-1.333-1.333-0.412 0-0.78 0.187-1.024 0.48l-0.002 0.002z"></path>
</svg>
