<!-- Generated by IcoMoon.io -->
<svg version="1.1" xmlns="http://www.w3.org/2000/svg" width="32" height="32" viewBox="0 0 32 32">
<title>ul-file-share-alt</title>
<path fill="#fff" d="M18 16.667c0-0.736-0.597-1.333-1.333-1.333v0h-6.667c-0.736 0-1.333 0.597-1.333 1.333s0.597 1.333 1.333 1.333v0h6.667c0.736 0 1.333-0.597 1.333-1.333v0zM24.667 23.333c-0.592 0.002-1.139 0.197-1.58 0.525l0.007-0.005-2.333-1.067 2.547-1.173c0.38 0.234 0.839 0.377 1.331 0.387l0.003 0c1.473 0 2.667-1.194 2.667-2.667s-1.194-2.667-2.667-2.667c-1.473 0-2.667 1.194-2.667 2.667v0l-2.52 1.16c-0.429-0.308-0.965-0.492-1.543-0.492-1.473 0-2.667 1.194-2.667 2.667s1.194 2.667 2.667 2.667c0.032 0 0.063-0.001 0.094-0.002l-0.005 0c0 0 0.001 0 0.001 0 0.45 0 0.873-0.119 1.238-0.326l-0.012 0.006 2.8 1.333c0.159 1.335 1.284 2.36 2.649 2.36 1.473 0 2.667-1.194 2.667-2.667 0-1.467-1.184-2.657-2.648-2.667h-0.001zM14 26h-6.667c-0.736 0-1.333-0.597-1.333-1.333v0-18.667c0-0.736 0.597-1.333 1.333-1.333v0h6.667v4c0 2.209 1.791 4 4 4v0h4c0 0.736 0.597 1.333 1.333 1.333s1.333-0.597 1.333-1.333v0-1.333s0 0 0-0.080c-0.015-0.134-0.044-0.256-0.084-0.372l0.004 0.012v-0.12c-0.068-0.143-0.153-0.267-0.254-0.374l0.001 0.001-8-8c-0.107-0.101-0.23-0.185-0.365-0.25l-0.009-0.004c-0.020-0.004-0.043-0.006-0.067-0.006s-0.047 0.002-0.069 0.006l0.002-0c-0.101-0.038-0.218-0.066-0.34-0.079l-0.007-0.001h-8.147c-2.209 0-4 1.791-4 4v0 18.667c0 2.209 1.791 4 4 4v0h6.667c0.736 0 1.333-0.597 1.333-1.333s-0.597-1.333-1.333-1.333v0zM16.667 6.547l3.453 3.453h-2.12c-0.736 0-1.333-0.597-1.333-1.333v0zM10 20.667c-0.736 0-1.333 0.597-1.333 1.333s0.597 1.333 1.333 1.333v0h1.333c0.736 0 1.333-0.597 1.333-1.333s-0.597-1.333-1.333-1.333v0zM10 12.667h1.333c0.736 0 1.333-0.597 1.333-1.333s-0.597-1.333-1.333-1.333v0h-1.333c-0.736 0-1.333 0.597-1.333 1.333s0.597 1.333 1.333 1.333v0z"></path>
</svg>
