<!-- Generated by IcoMoon.io -->
<svg version="1.1" xmlns="http://www.w3.org/2000/svg" width="32" height="32" viewBox="0 0 32 32">
<title>ul-folder-slash</title>
<path fill="#fff" d="M28.947 27.053l-24-24c-0.242-0.242-0.577-0.392-0.947-0.392-0.739 0-1.339 0.599-1.339 1.339 0 0.37 0.15 0.704 0.392 0.947v0l1.867 1.853c-0.569 0.682-0.915 1.567-0.92 2.532v14.668c0 2.209 1.791 4 4 4v0h16c0.626-0.004 1.218-0.151 1.743-0.41l-0.023 0.010 1.333 1.333c0.242 0.244 0.577 0.394 0.947 0.394s0.705-0.151 0.947-0.394l0-0c0.24-0.241 0.388-0.573 0.388-0.94s-0.148-0.699-0.388-0.94l0 0zM8 25.333c-0.736 0-1.333-0.597-1.333-1.333v0-14.667c0.004-0.225 0.062-0.436 0.163-0.62l-0.003 0.007 16.627 16.613zM14.16 8c0.55 0.031 1.008 0.39 1.184 0.884l0.003 0.009 0.72 2.187c0.179 0.538 0.678 0.92 1.267 0.92h6.667c0.736 0 1.333 0.597 1.333 1.333v0 5.787c0 0.736 0.597 1.333 1.333 1.333s1.333-0.597 1.333-1.333v0-5.787c0-2.209-1.791-4-4-4v0h-5.707l-0.427-1.333c-0.542-1.507-1.922-2.582-3.564-2.666l-0.010-0c-0.020-0.001-0.043-0.002-0.067-0.002-0.737 0-1.335 0.598-1.335 1.335 0 0.714 0.56 1.297 1.265 1.333l0.003 0z"></path>
</svg>
