<!-- Generated by IcoMoon.io -->
<svg version="1.1" xmlns="http://www.w3.org/2000/svg" width="32" height="32" viewBox="0 0 32 32">
<title>ul-hunting</title>
<path fill="#fff" d="M16 12c-2.209 0-4 1.791-4 4s1.791 4 4 4c2.209 0 4-1.791 4-4v0c0-2.209-1.791-4-4-4v0zM16 17.333c-0.736 0-1.333-0.597-1.333-1.333s0.597-1.333 1.333-1.333c0.736 0 1.333 0.597 1.333 1.333v0c0 0.736-0.597 1.333-1.333 1.333v0zM28 14.667h-1.427c-0.63-4.829-4.411-8.61-9.186-9.234l-0.054-0.006v-1.427c0-0.736-0.597-1.333-1.333-1.333s-1.333 0.597-1.333 1.333v0 1.427c-4.829 0.63-8.61 4.411-9.234 9.186l-0.006 0.054h-1.427c-0.736 0-1.333 0.597-1.333 1.333s0.597 1.333 1.333 1.333v0h1.427c0.63 4.829 4.411 8.61 9.186 9.234l0.054 0.006v1.427c0 0.736 0.597 1.333 1.333 1.333s1.333-0.597 1.333-1.333v0-1.427c4.829-0.63 8.61-4.411 9.234-9.186l0.006-0.054h1.427c0.736 0 1.333-0.597 1.333-1.333s-0.597-1.333-1.333-1.333v0zM16 24c-4.418 0-8-3.582-8-8s3.582-8 8-8c4.418 0 8 3.582 8 8v0c0 4.418-3.582 8-8 8v0z"></path>
</svg>
