<!-- Generated by IcoMoon.io -->
<svg version="1.1" xmlns="http://www.w3.org/2000/svg" width="32" height="32" viewBox="0 0 32 32">
<title>ul-headphones</title>
<path fill="#fff" d="M16 4c-7.364 0-13.333 5.97-13.333 13.333v0 9.333c0 0.736 0.597 1.333 1.333 1.333v0h4c2.209 0 4-1.791 4-4v0-2.667c0-2.209-1.791-4-4-4v0h-2.667c0-5.891 4.776-10.667 10.667-10.667s10.667 4.776 10.667 10.667v0h-2.667c-2.209 0-4 1.791-4 4v0 2.667c0 2.209 1.791 4 4 4v0h4c0.736 0 1.333-0.597 1.333-1.333v0-9.333c0-7.364-5.97-13.333-13.333-13.333v0zM8 20c0.736 0 1.333 0.597 1.333 1.333v0 2.667c0 0.736-0.597 1.333-1.333 1.333v0h-2.667v-5.333zM26.667 25.333h-2.667c-0.736 0-1.333-0.597-1.333-1.333v0-2.667c0-0.736 0.597-1.333 1.333-1.333v0h2.667z"></path>
</svg>
