<!-- Generated by IcoMoon.io -->
<svg version="1.1" xmlns="http://www.w3.org/2000/svg" width="32" height="32" viewBox="0 0 32 32">
<title>ul-horizontal-distribution-center</title>
<path fill="#fff" d="M25.333 6.667h-1.333v-2.667c0-0.736-0.597-1.333-1.333-1.333s-1.333 0.597-1.333 1.333v0 2.667h-1.333c-0.736 0-1.333 0.597-1.333 1.333v0 16c0 0.736 0.597 1.333 1.333 1.333v0h1.333v2.667c0 0.736 0.597 1.333 1.333 1.333s1.333-0.597 1.333-1.333v0-2.667h1.333c0.736 0 1.333-0.597 1.333-1.333v0-16c0-0.736-0.597-1.333-1.333-1.333v0zM24 22.667h-2.667v-13.333h2.667zM14.667 5.333h-2.667v-1.333c0-0.736-0.597-1.333-1.333-1.333s-1.333 0.597-1.333 1.333v0 1.333h-2.667c-0.736 0-1.333 0.597-1.333 1.333v0 18.667c0 0.736 0.597 1.333 1.333 1.333v0h2.667v1.333c0 0.736 0.597 1.333 1.333 1.333s1.333-0.597 1.333-1.333v0-1.333h2.667c0.736 0 1.333-0.597 1.333-1.333v0-18.667c0-0.736-0.597-1.333-1.333-1.333v0zM13.333 24h-5.333v-16h5.333z"></path>
</svg>
