<!-- Generated by IcoMoon.io -->
<svg version="1.1" xmlns="http://www.w3.org/2000/svg" width="32" height="32" viewBox="0 0 32 32">
<title>ul-house-user</title>
<path fill="#fff" d="M28.885 13.67l-12-10.667c-0.234-0.209-0.545-0.337-0.885-0.337s-0.651 0.128-0.887 0.338l0.001-0.001-12 10.667c-0.275 0.245-0.448 0.601-0.448 0.997 0 0.736 0.597 1.333 1.333 1.333 0.34 0 0.651-0.128 0.887-0.338l-0.001 0.001 0.448-0.398v12.735c0 0 0 0 0 0 0 0.736 0.597 1.333 1.333 1.333 0 0 0 0 0 0h18.667c0 0 0 0 0 0 0.736 0 1.333-0.597 1.333-1.333 0-0 0-0 0-0v0-12.735l0.448 0.398c0.234 0.209 0.545 0.336 0.885 0.336 0.736 0 1.333-0.597 1.333-1.333 0-0.396-0.173-0.751-0.446-0.996l-0.001-0.001zM12.246 26.667c0.558-1.566 2.027-2.667 3.754-2.667s3.197 1.101 3.746 2.639l0.009 0.028zM14 19.333c0-1.105 0.895-2 2-2s2 0.895 2 2c0 1.105-0.895 2-2 2v0c-1.104-0.001-1.999-0.896-2-2v-0zM24 26.667h-1.468c-0.391-1.828-1.487-3.347-2.984-4.288l-0.028-0.016c0.708-0.805 1.141-1.866 1.146-3.028v-0.001c0-2.577-2.089-4.667-4.667-4.667s-4.667 2.089-4.667 4.667v0c0.005 1.163 0.438 2.224 1.151 3.034l-0.004-0.005c-1.524 0.957-2.621 2.476-3.004 4.261l-0.008 0.044h-1.468v-13.772l8-7.111 8 7.111z"></path>
</svg>
