<!-- Generated by IcoMoon.io -->
<svg version="1.1" xmlns="http://www.w3.org/2000/svg" width="32" height="32" viewBox="0 0 32 32">
<title>ul-html3-alt</title>
<path fill="#fff" d="M10.603 10.667h9.315l-0.236 2.667h-6.36c-0.736 0-1.333 0.597-1.333 1.333s0.597 1.333 1.333 1.333v0h6.124l-0.352 3.969-3.105 0.704-3.104-0.706-0.128-1.419c-0.063-0.684-0.633-1.215-1.328-1.215-0.736 0-1.333 0.597-1.333 1.333 0 0.042 0.002 0.083 0.006 0.124l-0-0.005 0.214 2.387c0.054 0.581 0.473 1.051 1.024 1.18l0.009 0.002 4.346 0.987c0.089 0.021 0.191 0.033 0.296 0.033s0.207-0.012 0.305-0.034l-0.009 0.002 4.348-0.987c0.56-0.131 0.979-0.602 1.032-1.178l0-0.005 0.575-6.491 0.003-0.013-0.001-0.005 0.462-5.211c0.003-0.035 0.005-0.075 0.005-0.116 0-0.737-0.597-1.334-1.333-1.335h-10.772c-0.736 0-1.333 0.597-1.333 1.333s0.597 1.333 1.333 1.333v0zM27.539 3.101c-0.245-0.267-0.595-0.433-0.984-0.434h-21.133c-0 0-0 0-0.001 0-0.736 0-1.333 0.597-1.333 1.333 0 0.042 0.002 0.083 0.006 0.124l-0-0.005 1.924 21.592c0.051 0.559 0.441 1.015 0.961 1.163l0.009 0.002 8.63 2.408c0.107 0.031 0.231 0.049 0.358 0.049s0.251-0.018 0.367-0.052l-0.009 0.002 8.654-2.417c0.529-0.151 0.919-0.606 0.97-1.16l0-0.005 1.924-21.583c0.003-0.035 0.005-0.076 0.005-0.118 0-0.347-0.133-0.664-0.35-0.901l0.001 0.001zM23.384 24.547l-7.408 2.069-7.384-2.060-1.714-19.223h18.219z"></path>
</svg>
