<!-- Generated by IcoMoon.io -->
<svg version="1.1" xmlns="http://www.w3.org/2000/svg" width="32" height="32" viewBox="0 0 32 32">
<title>ul-image-broken</title>
<path fill="#fff" d="M28.947 19.387l-3.333-3.387c-0.242-0.244-0.577-0.394-0.947-0.394s-0.705 0.151-0.947 0.394l-0 0-3.72 3.787-3.72-3.787c-0.242-0.244-0.577-0.394-0.947-0.394s-0.705 0.151-0.947 0.394l-0 0-3.053 3.12-3.053-3.12c-0.242-0.244-0.577-0.394-0.947-0.394s-0.705 0.151-0.947 0.394l-3.333 3.333c-0.118 0.123-0.213 0.269-0.277 0.431l-0.003 0.009c-0.065 0.149-0.104 0.323-0.107 0.506v5.054c0 2.209 1.791 4 4 4v0h18.667c2.209 0 4-1.791 4-4v0-5c-0.002-0.184-0.041-0.357-0.11-0.515l0.003 0.009c-0.067-0.171-0.162-0.317-0.28-0.44l0 0zM26.667 25.333c0 0.736-0.597 1.333-1.333 1.333v0h-18.667c-0.736 0-1.333-0.597-1.333-1.333v0-4.453l2-2 3.053 3.067c0.242 0.244 0.577 0.394 0.947 0.394s0.705-0.151 0.947-0.394l0-0 3.053-3.067 3.72 3.787c0.242 0.244 0.577 0.394 0.947 0.394s0.705-0.151 0.947-0.394l0-0 3.72-3.733 2 2zM25.333 2.667h-18.667c-2.209 0-4 1.791-4 4v0 7.013c-0.007 0.054-0.010 0.117-0.010 0.18s0.004 0.126 0.011 0.187l-0.001-0.007s0 0.093 0 0.133c0.202 0.495 0.68 0.838 1.238 0.838 0.385 0 0.731-0.163 0.975-0.424l0.001-0.001 2.453-2.373 3.053 3.067c0.242 0.244 0.577 0.394 0.947 0.394s0.705-0.151 0.947-0.394l0-0 3.053-3.067 3.72 3.787c0.242 0.244 0.577 0.394 0.947 0.394s0.705-0.151 0.947-0.394l0-0 3.72-3.733 2.36 2.373c0.244 0.261 0.591 0.424 0.976 0.424 0.558 0 1.036-0.343 1.235-0.829l0.003-0.009c0.003-0.018 0.005-0.039 0.005-0.060s-0.002-0.042-0.005-0.062l0 0.002c0.045-0.11 0.073-0.237 0.080-0.371l0-0.003v-7.067c0 0 0 0 0-0 0-2.204-1.783-3.992-3.986-4h-0.001zM26.667 10.453l-1.053-1.12c-0.242-0.244-0.577-0.394-0.947-0.394s-0.705 0.151-0.947 0.394l-0 0-3.72 3.787-3.72-3.787c-0.242-0.244-0.577-0.394-0.947-0.394s-0.705 0.151-0.947 0.394l-0 0-3.053 3.12-3.053-3.12c-0.242-0.244-0.577-0.394-0.947-0.394s-0.705 0.151-0.947 0.394l-0 0-1.053 1.12v-3.787c0-0.736 0.597-1.333 1.333-1.333v0h18.667c0.736 0 1.333 0.597 1.333 1.333v0z"></path>
</svg>
