<!-- Generated by IcoMoon.io -->
<svg version="1.1" xmlns="http://www.w3.org/2000/svg" width="32" height="32" viewBox="0 0 32 32">
<title>ul-image-slash</title>
<path fill="#fff" d="M26 5.333h-12.667c-0.736 0-1.333 0.597-1.333 1.333s0.597 1.333 1.333 1.333v0h12.667c0.736 0 1.333 0.597 1.333 1.333v0 9.013l-2.507-2.507c-0.417-0.415-0.925-0.739-1.492-0.938l-0.028-0.009c-0.127-0.044-0.274-0.070-0.427-0.070-0.738 0-1.337 0.598-1.337 1.337 0 0.585 0.376 1.083 0.901 1.264l0.009 0.003c0.191 0.061 0.353 0.167 0.479 0.306l0.001 0.001 4.413 4.387c-0.004 0.030-0.006 0.065-0.006 0.1s0.002 0.070 0.006 0.104l-0-0.004c-0.003 0.030-0.005 0.065-0.005 0.1s0.002 0.070 0.005 0.104l-0-0.004c0.054 0.091 0.111 0.169 0.175 0.242l-0.002-0.002c0.034 0.056 0.074 0.105 0.119 0.146l0.001 0c0.077 0.072 0.165 0.134 0.26 0.184l0.007 0.003c0.042 0.030 0.090 0.056 0.141 0.078l0.005 0.002c0.145 0.067 0.314 0.106 0.493 0.107h0c0.736 0 1.333-0.597 1.333-1.333v0-12.613c0-0.001 0-0.001 0-0.002 0-2.167-1.723-3.931-3.874-3.998l-0.006-0zM4.28 3.053c-0.242-0.242-0.577-0.392-0.947-0.392-0.739 0-1.339 0.599-1.339 1.339 0 0.37 0.15 0.704 0.392 0.947l1.853 1.853c-0.564 0.684-0.906 1.569-0.907 2.533v13.333c0 2.209 1.791 4 4 4v0h16.787l2.267 2.28c0.242 0.244 0.577 0.394 0.947 0.394s0.705-0.151 0.947-0.394l0-0c0.244-0.242 0.394-0.577 0.394-0.947s-0.151-0.705-0.394-0.947l-0-0zM6 9.333c0.004-0.225 0.062-0.436 0.163-0.62l-0.003 0.007 3.627 3.613c-0.517 0.2-0.961 0.485-1.335 0.842l0.002-0.002-2.453 2.507zM7.333 24c-0.736 0-1.333-0.597-1.333-1.333v0-3.227l4.4-4.387c0.24-0.236 0.57-0.381 0.933-0.381s0.693 0.145 0.934 0.381l8.946 8.946z"></path>
</svg>
