<!-- Generated by IcoMoon.io -->
<svg version="1.1" xmlns="http://www.w3.org/2000/svg" width="32" height="32" viewBox="0 0 32 32">
<title>ul-luggage-cart</title>
<path fill="#fff" d="M2.667 18v2.667c0 0.736 0.597 1.333 1.333 1.333v0h13.333c0 2.209 1.791 4 4 4s4-1.791 4-4v0h2.667c0.736 0 1.333-0.597 1.333-1.333v0-10.667c0-2.209-1.791-4-4-4v0h-13.333c-2.209 0-4 1.791-4 4v0 9.333h-2.667v-1.333c0-0.736-0.597-1.333-1.333-1.333s-1.333 0.597-1.333 1.333v0zM20 22c0-0.736 0.597-1.333 1.333-1.333s1.333 0.597 1.333 1.333c0 0.736-0.597 1.333-1.333 1.333v0c-0.736 0-1.333-0.597-1.333-1.333v0zM10.667 14h16v5.333h-2.373c-0.734-0.806-1.788-1.31-2.96-1.31s-2.226 0.504-2.957 1.306l-0.003 0.003h-7.707zM10.667 10c0-0.736 0.597-1.333 1.333-1.333v0h13.333c0.736 0 1.333 0.597 1.333 1.333v0 1.333h-16z"></path>
</svg>
