<!-- Generated by IcoMoon.io -->
<svg version="1.1" xmlns="http://www.w3.org/2000/svg" width="32" height="32" viewBox="0 0 32 32">
<title>ul-link-alt</title>
<path fill="#fff" d="M16.147 20.52l-5.173 5.173c-0.604 0.583-1.426 0.942-2.333 0.942s-1.73-0.359-2.334-0.943l0.001 0.001c-0.599-0.596-0.969-1.422-0.969-2.333s0.37-1.737 0.969-2.333l5.173-5.173c0.242-0.242 0.392-0.577 0.392-0.947 0-0.739-0.599-1.339-1.339-1.339-0.37 0-0.704 0.15-0.947 0.392v0l-5.173 5.187c-0.976 1.060-1.575 2.481-1.575 4.041 0 3.299 2.674 5.973 5.973 5.973 1.561 0 2.981-0.598 4.045-1.578l-0.004 0.004 5.187-5.173c0.242-0.242 0.392-0.577 0.392-0.947 0-0.739-0.599-1.339-1.339-1.339-0.37 0-0.704 0.15-0.947 0.392v0zM27.587 4.413c-1.082-1.075-2.573-1.74-4.22-1.74s-3.138 0.665-4.22 1.741l0-0-5.187 5.173c-0.242 0.242-0.392 0.577-0.392 0.947 0 0.739 0.599 1.339 1.339 1.339 0.37 0 0.704-0.15 0.947-0.392v0l5.173-5.173c0.604-0.583 1.426-0.942 2.333-0.942s1.73 0.359 2.334 0.943l-0.001-0.001c0.599 0.596 0.969 1.422 0.969 2.333s-0.37 1.737-0.969 2.333l-5.173 5.173c-0.244 0.242-0.394 0.577-0.394 0.947s0.151 0.705 0.394 0.947l0 0c0.242 0.244 0.577 0.394 0.947 0.394s0.705-0.151 0.947-0.394l0-0 5.173-5.187c1.076-1.082 1.74-2.573 1.74-4.22s-0.665-3.138-1.741-4.22l0 0zM11.773 20.227c0.241 0.239 0.573 0.387 0.939 0.387 0.003 0 0.005 0 0.008-0h-0c0.002 0 0.005 0 0.008 0 0.366 0 0.698-0.148 0.939-0.387l6.56-6.56c0.242-0.242 0.392-0.577 0.392-0.947 0-0.739-0.599-1.339-1.339-1.339-0.37 0-0.704 0.15-0.947 0.392l-6.56 6.56c-0.244 0.242-0.394 0.577-0.394 0.947s0.151 0.705 0.394 0.947l0 0z"></path>
</svg>
