<!-- Generated by IcoMoon.io -->
<svg version="1.1" xmlns="http://www.w3.org/2000/svg" width="32" height="32" viewBox="0 0 32 32">
<title>ul-lock-slash</title>
<path fill="#fff" d="M14.453 7.173c0.43-0.309 0.967-0.495 1.547-0.495 0.733 0 1.397 0.296 1.88 0.775l-0-0c0.483 0.481 0.783 1.145 0.787 1.879v4.001c0 0.736 0.597 1.333 1.333 1.333v0h1.333c0.736 0 1.333 0.597 1.333 1.333v0 0.453c0 0.736 0.597 1.333 1.333 1.333s1.333-0.597 1.333-1.333v0-0.453c0-2.209-1.791-4-4-4v0-2.667c0-0.001 0-0.003 0-0.004 0-1.472-0.596-2.804-1.56-3.769l0 0c-0.974-0.946-2.304-1.53-3.771-1.53-1.181 0-2.275 0.378-3.165 1.021l0.016-0.011c-0.325 0.246-0.533 0.632-0.533 1.067 0 0.736 0.597 1.333 1.333 1.333 0.302 0 0.58-0.1 0.803-0.269l-0.003 0.002zM28.947 27.053l-24-24c-0.242-0.242-0.577-0.392-0.947-0.392-0.739 0-1.339 0.599-1.339 1.339 0 0.37 0.15 0.704 0.392 0.947v0l7.107 7.053c-1.98 0.26-3.493 1.937-3.493 3.968 0 0.011 0 0.023 0 0.034v-0.002 8c0 2.209 1.791 4 4 4v0h10.667c1.299-0.004 2.452-0.628 3.179-1.59l0.007-0.010 2.533 2.547c0.242 0.244 0.577 0.394 0.947 0.394s0.705-0.151 0.947-0.394l0-0c0.244-0.242 0.394-0.577 0.394-0.947s-0.151-0.705-0.394-0.947l-0-0zM21.333 25.333h-10.667c-0.736 0-1.333-0.597-1.333-1.333v0-8c0-0.736 0.597-1.333 1.333-1.333v0h2.12l2.76 2.76c-0.513 0.189-0.874 0.672-0.88 1.239v2.667c0 0.736 0.597 1.333 1.333 1.333s1.333-0.597 1.333-1.333v0-2.12l5.24 5.24c-0.189 0.513-0.672 0.874-1.239 0.88h-0.001z"></path>
</svg>
