<!-- Generated by IcoMoon.io -->
<svg version="1.1" xmlns="http://www.w3.org/2000/svg" width="32" height="32" viewBox="0 0 32 32">
<title>ul-map-pin-alt</title>
<path fill="#fff" d="M14.667 15.867v6.8c0 0.736 0.597 1.333 1.333 1.333s1.333-0.597 1.333-1.333v0-6.8c3.065-0.642 5.333-3.322 5.333-6.532 0-3.682-2.985-6.667-6.667-6.667s-6.667 2.985-6.667 6.667c0 3.21 2.269 5.89 5.29 6.524l0.043 0.008zM16 5.333c2.209 0 4 1.791 4 4s-1.791 4-4 4c-2.209 0-4-1.791-4-4v0c0-2.209 1.791-4 4-4v0zM21.613 19.227c-0.084-0.018-0.181-0.029-0.28-0.029-0.752 0-1.362 0.61-1.362 1.362 0 0.653 0.46 1.199 1.073 1.332l0.009 0.002c3.027 0.6 4.28 1.68 4.28 2.107 0 0.773-3.267 2.667-9.333 2.667s-9.333-1.893-9.333-2.667c0-0.427 1.253-1.507 4.28-2.16 0.623-0.134 1.082-0.68 1.082-1.333 0-0.752-0.61-1.362-1.362-1.362-0.099 0-0.196 0.011-0.289 0.031l0.009-0.002c-4.053 0.933-6.387 2.68-6.387 4.827 0 3.507 6.040 5.333 12 5.333s12-1.827 12-5.333c0-2.147-2.333-3.893-6.387-4.773z"></path>
</svg>
