<!-- Generated by IcoMoon.io -->
<svg version="1.1" xmlns="http://www.w3.org/2000/svg" width="32" height="32" viewBox="0 0 32 32">
<title>ul-master-card</title>
<path fill="#fff" d="M20.353 7.033c-0.001 0-0.002 0-0.004 0-1.602 0-3.105 0.423-4.404 1.163l0.044-0.023c-1.26-0.717-2.769-1.14-4.376-1.14-4.954 0-8.97 4.016-8.97 8.97s4.016 8.97 8.97 8.97c1.607 0 3.116-0.423 4.421-1.163l-0.044 0.023c1.258 0.714 2.763 1.135 4.366 1.135 4.953 0 8.967-4.015 8.967-8.967s-4.015-8.967-8.967-8.967c-0.001 0-0.002 0-0.002 0h0zM13.649 21.943c-0.601 0.222-1.296 0.355-2.021 0.363l-0.004 0c-3.481 0-6.303-2.822-6.303-6.303s2.822-6.303 6.303-6.303v0c0.728 0.009 1.423 0.141 2.068 0.377l-0.043-0.014c-1.407 1.57-2.267 3.654-2.267 5.94s0.86 4.37 2.274 5.948l-0.007-0.008zM15.989 20.533c-1.196-1.142-1.939-2.749-1.939-4.53s0.743-3.388 1.937-4.528l0.002-0.002c1.196 1.142 1.939 2.749 1.939 4.53s-0.744 3.388-1.937 4.528l-0.002 0.002zM20.353 22.306c-0.728-0.009-1.423-0.141-2.068-0.377l0.043 0.014c1.407-1.57 2.267-3.654 2.267-5.94s-0.86-4.37-2.274-5.948l0.007 0.008c0.602-0.222 1.296-0.355 2.021-0.363l0.004-0c3.481 0 6.303 2.822 6.303 6.303s-2.822 6.303-6.303 6.303v0z"></path>
</svg>
