<!-- Generated by IcoMoon.io -->
<svg version="1.1" xmlns="http://www.w3.org/2000/svg" width="32" height="32" viewBox="0 0 32 32">
<title>ul-opera-alt</title>
<path fill="#fff" d="M15.961 6.667c-4.858 0-4.858 6.829-4.858 9.143 0 2.604 0 9.523 4.88 9.523 4.872 0 4.872-6.883 4.872-9.474 0-6.1-1.647-9.193-4.895-9.193zM15.983 22.667c-1.469 0-2.214-2.307-2.214-6.927 0-2.922 0.38-6.406 2.191-6.406 1.939 0 2.228 4.089 2.228 6.526 0 4.517-0.742 6.807-2.206 6.807zM15.984 1.334c-8.069 0-13.704 5.975-13.704 14.531 0 7.276 5.129 14.802 13.714 14.802 8.578 0 13.704-7.526 13.704-14.802-0-8.556-5.639-14.531-13.714-14.531zM15.994 28.001c-6.915 0-11.047-6.171-11.047-12.135 0-7.096 4.436-11.865 11.038-11.865 6.608 0 11.047 4.768 11.047 11.865-0 5.965-4.129 12.135-11.038 12.135z"></path>
</svg>
