<!-- Generated by IcoMoon.io -->
<svg version="1.1" xmlns="http://www.w3.org/2000/svg" width="32" height="32" viewBox="0 0 32 32">
<title>ul-power</title>
<path fill="#fff" d="M13.613 8.28l1.053-1.067v6.12c0 0.736 0.597 1.333 1.333 1.333s1.333-0.597 1.333-1.333v0-6.12l1.053 1.067c0.242 0.244 0.577 0.394 0.947 0.394s0.705-0.151 0.947-0.394l0-0c0.244-0.242 0.394-0.577 0.394-0.947s-0.151-0.705-0.394-0.947l-3.333-3.333c-0.123-0.118-0.269-0.213-0.431-0.277l-0.009-0.003c-0.15-0.063-0.324-0.1-0.507-0.1s-0.357 0.037-0.515 0.103l0.009-0.003c-0.171 0.067-0.317 0.162-0.44 0.28l0-0-3.333 3.333c-0.242 0.242-0.392 0.577-0.392 0.947 0 0.739 0.599 1.339 1.339 1.339 0.37 0 0.704-0.15 0.947-0.392v0zM24 10.080c-0.246-0.246-0.585-0.398-0.96-0.398-0.75 0-1.358 0.608-1.358 1.358 0 0.375 0.152 0.714 0.398 0.96v0c1.557 1.556 2.52 3.707 2.52 6.082 0 4.75-3.85 8.6-8.6 8.6s-8.6-3.85-8.6-8.6c0-2.375 0.963-4.526 2.52-6.082l0-0c0.246-0.246 0.398-0.585 0.398-0.96 0-0.75-0.608-1.358-1.358-1.358-0.375 0-0.714 0.152-0.96 0.398v0c-2.027 2.039-3.28 4.849-3.28 7.952 0 6.23 5.050 11.28 11.28 11.28s11.28-5.050 11.28-11.28c0-3.103-1.253-5.913-3.281-7.953l0.001 0.001z"></path>
</svg>
