<!-- Generated by IcoMoon.io -->
<svg version="1.1" xmlns="http://www.w3.org/2000/svg" width="32" height="32" viewBox="0 0 32 32">
<title>ul-pause</title>
<path fill="#fff" d="M21.333 2.667c-2.209 0-4 1.791-4 4v0 18.667c0 2.209 1.791 4 4 4s4-1.791 4-4v0-18.667c0-2.209-1.791-4-4-4v0zM22.667 25.333c0 0.736-0.597 1.333-1.333 1.333s-1.333-0.597-1.333-1.333v0-18.667c0-0.736 0.597-1.333 1.333-1.333s1.333 0.597 1.333 1.333v0zM10.667 2.667c-2.209 0-4 1.791-4 4v0 18.667c0 2.209 1.791 4 4 4s4-1.791 4-4v0-18.667c0-2.209-1.791-4-4-4v0zM12 25.333c0 0.736-0.597 1.333-1.333 1.333s-1.333-0.597-1.333-1.333v0-18.667c0-0.736 0.597-1.333 1.333-1.333s1.333 0.597 1.333 1.333v0z"></path>
</svg>
