<!-- Generated by IcoMoon.io -->
<svg version="1.1" xmlns="http://www.w3.org/2000/svg" width="32" height="32" viewBox="0 0 32 32">
<title>ul-parcel</title>
<path fill="#fff" d="M9.333 18.667h2.667c0.736 0 1.333-0.597 1.333-1.333s-0.597-1.333-1.333-1.333v0h-2.667c-0.736 0-1.333 0.597-1.333 1.333s0.597 1.333 1.333 1.333v0zM17.333 21.333h-8c-0.736 0-1.333 0.597-1.333 1.333s0.597 1.333 1.333 1.333v0h8c0.736 0 1.333-0.597 1.333-1.333s-0.597-1.333-1.333-1.333v0zM25.333 2.667h-18.667c-2.209 0-4 1.791-4 4v0 18.667c0 2.209 1.791 4 4 4v0h18.667c2.209 0 4-1.791 4-4v0-18.667c0-2.209-1.791-4-4-4v0zM18.667 5.333v4.387l-2.013-1.12c-0.191-0.112-0.421-0.179-0.667-0.179s-0.475 0.066-0.673 0.182l0.006-0.003-1.987 1.12v-4.387zM26.667 25.333c0 0.736-0.597 1.333-1.333 1.333v0h-18.667c-0.736 0-1.333-0.597-1.333-1.333v0-18.667c0-0.736 0.597-1.333 1.333-1.333v0h4v6.667c0.003 0.488 0.268 0.913 0.66 1.143l0.006 0.003c0.191 0.112 0.421 0.179 0.667 0.179s0.475-0.066 0.673-0.182l-0.006 0.003 3.333-1.853 3.347 1.867c0.188 0.108 0.413 0.173 0.653 0.173h0c0.736 0 1.333-0.597 1.333-1.333v0-6.667h4c0.736 0 1.333 0.597 1.333 1.333v0z"></path>
</svg>
