<!-- Generated by IcoMoon.io -->
<svg version="1.1" xmlns="http://www.w3.org/2000/svg" width="32" height="32" viewBox="0 0 32 32">
<title>ul-robot</title>
<path fill="#fff" d="M12 20c-0.736 0-1.333 0.597-1.333 1.333s0.597 1.333 1.333 1.333c0.736 0 1.333-0.597 1.333-1.333v0c0-0.736-0.597-1.333-1.333-1.333v0zM2.667 18.667c-0.736 0-1.333 0.597-1.333 1.333v0 2.667c0 0.736 0.597 1.333 1.333 1.333s1.333-0.597 1.333-1.333v0-2.667c0-0.736-0.597-1.333-1.333-1.333v0zM29.333 18.667c-0.736 0-1.333 0.597-1.333 1.333v0 2.667c0 0.736 0.597 1.333 1.333 1.333s1.333-0.597 1.333-1.333v0-2.667c0-0.736-0.597-1.333-1.333-1.333v0zM22.667 9.333h-5.333v-1.707c0.798-0.467 1.327-1.318 1.333-2.292v-0.001c0-1.473-1.194-2.667-2.667-2.667s-2.667 1.194-2.667 2.667v0c0.006 0.976 0.535 1.826 1.321 2.287l0.013 0.007v1.707h-5.333c-2.209 0-4 1.791-4 4v0 12c0 2.209 1.791 4 4 4v0h13.333c2.209 0 4-1.791 4-4v0-12c0-2.209-1.791-4-4-4v0zM18.293 12l-0.667 2.667h-3.253l-0.667-2.667zM24 25.333c0 0.736-0.597 1.333-1.333 1.333v0h-13.333c-0.736 0-1.333-0.597-1.333-1.333v0-12c0-0.736 0.597-1.333 1.333-1.333v0h1.627l1.040 4.32c0.148 0.587 0.672 1.014 1.294 1.014 0.014 0 0.027-0 0.041-0.001l-0.002 0h5.333c0.012 0 0.025 0.001 0.039 0.001 0.623 0 1.146-0.427 1.293-1.005l0.002-0.009 1.040-4.32h1.627c0.736 0 1.333 0.597 1.333 1.333v0zM20 20c-0.736 0-1.333 0.597-1.333 1.333s0.597 1.333 1.333 1.333c0.736 0 1.333-0.597 1.333-1.333v0c0-0.736-0.597-1.333-1.333-1.333v0z"></path>
</svg>
