<!-- Generated by IcoMoon.io -->
<svg version="1.1" xmlns="http://www.w3.org/2000/svg" width="32" height="32" viewBox="0 0 32 32">
<title>ul-ruler</title>
<path fill="#fff" d="M30.147 9.4l-7.48-7.547c-0.241-0.239-0.573-0.387-0.939-0.387-0.003 0-0.005 0-0.008 0h0c-0.364 0.002-0.694 0.149-0.933 0.387l0-0-18.933 18.867c-0.24 0.241-0.388 0.573-0.388 0.94s0.148 0.699 0.388 0.94l7.547 7.547c0.241 0.239 0.573 0.387 0.939 0.387 0.003 0 0.005 0 0.008-0h-0c0.364-0.002 0.694-0.149 0.933-0.387l18.867-18.867c0.24-0.241 0.388-0.573 0.388-0.94s-0.148-0.699-0.388-0.94l0 0zM25.427 12.227l-0.947-0.947c-0.241-0.24-0.573-0.388-0.94-0.388s-0.699 0.148-0.94 0.388l0-0c-0.244 0.242-0.394 0.577-0.394 0.947s0.151 0.705 0.394 0.947l0.947 0.947-1.893 1.88-2.827-2.827c-0.232-0.199-0.535-0.321-0.867-0.321-0.736 0-1.333 0.597-1.333 1.333 0 0.332 0.121 0.636 0.322 0.869l-0.001-0.002 2.827 2.827-1.893 1.893-0.933-0.947c-0.242-0.242-0.577-0.392-0.947-0.392-0.739 0-1.339 0.599-1.339 1.339 0 0.37 0.15 0.704 0.392 0.947v0l0.947 0.933-1.88 1.893-2.84-2.827c-0.241-0.24-0.573-0.388-0.94-0.388s-0.699 0.148-0.94 0.388l0-0c-0.24 0.241-0.388 0.573-0.388 0.94s0.148 0.699 0.388 0.94l2.827 2.827-1.88 1.893-5.667-5.667 16.973-16.973 5.667 5.667z"></path>
</svg>
