<!-- Generated by IcoMoon.io -->
<svg version="1.1" xmlns="http://www.w3.org/2000/svg" width="32" height="32" viewBox="0 0 32 32">
<title>ul-subway-alt</title>
<path fill="#fff" d="M20 22.667h1.333c0.736 0 1.333-0.597 1.333-1.333s-0.597-1.333-1.333-1.333v0h-1.333c-0.736 0-1.333 0.597-1.333 1.333s0.597 1.333 1.333 1.333v0zM28 22.667v-10.667c0-2.209-1.791-4-4-4v0h-6.667v-2.667h5.333c0.736 0 1.333-0.597 1.333-1.333s-0.597-1.333-1.333-1.333v0h-13.333c-0.736 0-1.333 0.597-1.333 1.333s0.597 1.333 1.333 1.333v0h5.333v2.667h-6.667c-2.209 0-4 1.791-4 4v0 10.667c0.004 1.299 0.628 2.452 1.59 3.179l0.010 0.007-1.213 1.2c-0.244 0.242-0.394 0.577-0.394 0.947s0.151 0.705 0.394 0.947l0 0c0.242 0.244 0.577 0.394 0.947 0.394s0.705-0.151 0.947-0.394l0-0 2.267-2.28h14.907l2.267 2.28c0.242 0.244 0.577 0.394 0.947 0.394s0.705-0.151 0.947-0.394l0-0c0.244-0.242 0.394-0.577 0.394-0.947s-0.151-0.705-0.394-0.947l-0-0-1.213-1.2c0.972-0.735 1.596-1.888 1.6-3.186v-0.001zM6.667 12c0-0.736 0.597-1.333 1.333-1.333v0h6.667v5.333h-8zM25.333 22.667c0 0.736-0.597 1.333-1.333 1.333v0h-16c-0.736 0-1.333-0.597-1.333-1.333v0-4h18.667zM25.333 16h-8v-5.333h6.667c0.736 0 1.333 0.597 1.333 1.333v0zM10.667 22.667h1.333c0.736 0 1.333-0.597 1.333-1.333s-0.597-1.333-1.333-1.333v0h-1.333c-0.736 0-1.333 0.597-1.333 1.333s0.597 1.333 1.333 1.333v0z"></path>
</svg>
