<!-- Generated by IcoMoon.io -->
<svg version="1.1" xmlns="http://www.w3.org/2000/svg" width="32" height="32" viewBox="0 0 32 32">
<title>ul-sanitizer-alt</title>
<path fill="#fff" d="M18.667 20h-2.667c-0.736 0-1.333 0.597-1.333 1.333s0.597 1.333 1.333 1.333v0h2.667c0.736 0 1.333-0.597 1.333-1.333s-0.597-1.333-1.333-1.333v0zM21.333 10.667v-4c0-0.736-0.597-1.333-1.333-1.333v0h-1.333v-1.333h1.333c0.736 0 1.333-0.597 1.333-1.333s-0.597-1.333-1.333-1.333v0h-6.352c-0.006-0-0.013-0-0.021-0-2.391 0-4.462 1.37-5.471 3.369l-0.016 0.035c-0.088 0.173-0.139 0.377-0.139 0.594 0 0.736 0.597 1.333 1.333 1.333 0.518 0 0.967-0.295 1.188-0.727l0.004-0.008c0.581-1.153 1.755-1.93 3.11-1.93 0.004 0 0.008 0 0.012 0h2.352v1.333h-1.333c-0.736 0-1.333 0.597-1.333 1.333v0 4c-2.208 0.002-3.998 1.792-4 4v12c0.002 2.208 1.792 3.997 4 4h8c2.208-0.003 3.997-1.792 4-4v-12c-0.003-2.208-1.792-3.998-4-4h-0zM16 8h2.667v2.667h-2.667zM22.667 26.667c-0.001 0.736-0.597 1.332-1.333 1.333h-8c-0.736-0.001-1.332-0.597-1.333-1.333v-12c0.001-0.736 0.597-1.332 1.333-1.333h8c0.736 0.001 1.332 0.597 1.333 1.333v0z"></path>
</svg>
