<!-- Generated by IcoMoon.io -->
<svg version="1.1" xmlns="http://www.w3.org/2000/svg" width="32" height="32" viewBox="0 0 32 32">
<title>ul-suitcase-alt</title>
<path fill="#fff" d="M25.333 8h-4v-1.333c0-1.473-1.194-2.667-2.667-2.667v0h-5.333c-1.473 0-2.667 1.194-2.667 2.667v0 1.333h-4c-2.209 0-4 1.791-4 4v0 12c0 2.209 1.791 4 4 4v0h18.667c2.209 0 4-1.791 4-4v0-12c0-2.209-1.791-4-4-4v0zM13.333 6.667h5.333v1.333h-5.333zM26.667 24c0 0.736-0.597 1.333-1.333 1.333v0h-18.667c-0.736 0-1.333-0.597-1.333-1.333v0-6.667h5.333v1.333c0 0.736 0.597 1.333 1.333 1.333s1.333-0.597 1.333-1.333v0-1.333h5.333v1.333c0 0.736 0.597 1.333 1.333 1.333s1.333-0.597 1.333-1.333v0-1.333h5.333zM26.667 14.667h-21.333v-2.667c0-0.736 0.597-1.333 1.333-1.333v0h18.667c0.736 0 1.333 0.597 1.333 1.333v0z"></path>
</svg>
