<!-- Generated by IcoMoon.io -->
<svg version="1.1" xmlns="http://www.w3.org/2000/svg" width="32" height="32" viewBox="0 0 32 32">
<title>ul-slider-h</title>
<path fill="#fff" d="M28 14.667h-4.246c-0.558-1.566-2.027-2.667-3.754-2.667s-3.197 1.101-3.746 2.639l-0.009 0.028h-12.246c-0.736 0-1.333 0.597-1.333 1.333s0.597 1.333 1.333 1.333v0h12.246c0.558 1.566 2.027 2.667 3.754 2.667s3.197-1.101 3.746-2.639l0.009-0.028h4.246c0.736 0 1.333-0.597 1.333-1.333s-0.597-1.333-1.333-1.333v0zM20 17.333c-0.736 0-1.333-0.597-1.333-1.333s0.597-1.333 1.333-1.333c0.736 0 1.333 0.597 1.333 1.333v0c-0.001 0.736-0.597 1.332-1.333 1.333h-0z"></path>
</svg>
