<!-- Generated by IcoMoon.io -->
<svg version="1.1" xmlns="http://www.w3.org/2000/svg" width="32" height="32" viewBox="0 0 32 32">
<title>ul-snowflake</title>
<path fill="#fff" d="M28.213 21.507l-2.667-1.533 1.187-0.32c0.595-0.142 1.031-0.669 1.031-1.299 0-0.736-0.597-1.333-1.333-1.333-0.139 0-0.274 0.021-0.4 0.061l0.009-0.003-3.76 1.013-3.613-2.093 3.613-2.093 3.76 1.013h0.347c0.052 0.007 0.112 0.011 0.173 0.011 0.743 0 1.345-0.602 1.345-1.345 0-0.681-0.507-1.245-1.164-1.333l-0.007-0.001-1.187-0.253 2.667-1.533c0.404-0.235 0.671-0.666 0.671-1.16 0-0.739-0.599-1.338-1.338-1.338-0.245 0-0.475 0.066-0.673 0.181l0.006-0.003-2.88 1.68 0.4-1.48c0.037-0.117 0.059-0.251 0.059-0.391 0-0.736-0.597-1.333-1.333-1.333-0.629 0-1.156 0.436-1.297 1.022l-0.002 0.009-1.093 4-3.4 2.040v-4.173l2.76-2.76c0.24-0.241 0.388-0.573 0.388-0.94s-0.148-0.699-0.388-0.94l0 0c-0.242-0.244-0.577-0.394-0.947-0.394s-0.705 0.151-0.947 0.394l-0.867 0.867v-3.080c0-0.736-0.597-1.333-1.333-1.333s-1.333 0.597-1.333 1.333v0 3.293l-1.080-1.080c-0.242-0.244-0.577-0.394-0.947-0.394s-0.705 0.151-0.947 0.394l-0 0c-0.24 0.241-0.388 0.573-0.388 0.94s0.148 0.699 0.388 0.94l2.973 2.973v4l-3.427-2.027-1.093-4c-0.142-0.595-0.669-1.031-1.299-1.031-0.736 0-1.333 0.597-1.333 1.333 0 0.139 0.021 0.274 0.061 0.4l-0.003-0.009 0.427 1.427-2.88-1.653c-0.191-0.112-0.421-0.178-0.667-0.178-0.739 0-1.338 0.599-1.338 1.338 0 0.494 0.267 0.925 0.665 1.157l0.006 0.003 2.667 1.507-1.12 0.347c-0.664 0.089-1.171 0.652-1.171 1.333 0 0.743 0.602 1.345 1.345 1.345 0.061 0 0.121-0.004 0.18-0.012l-0.007 0.001h0.347l3.76-1.013 3.547 2-3.613 2.093-3.76-1.013c-0.138-0.053-0.297-0.083-0.464-0.083-0.736 0-1.333 0.597-1.333 1.333 0 0.679 0.508 1.24 1.164 1.323l0.007 0.001 1.187 0.32-2.667 1.533c-0.404 0.235-0.671 0.666-0.671 1.16 0 0.739 0.599 1.338 1.338 1.338 0.245 0 0.475-0.066 0.673-0.181l-0.006 0.003 2.813-1.653-0.4 1.48c-0.038 0.118-0.060 0.254-0.060 0.394 0 0.611 0.41 1.125 0.97 1.283l0.009 0.002c0.052 0.006 0.112 0.010 0.173 0.010s0.121-0.004 0.181-0.011l-0.007 0.001c0.014 0 0.030 0.001 0.046 0.001 0.613 0 1.13-0.414 1.286-0.978l0.002-0.009 1.093-4 3.373-2.040v4.173l-2.76 2.76c-0.24 0.241-0.388 0.573-0.388 0.94s0.148 0.699 0.388 0.94l-0-0c0.241 0.246 0.576 0.398 0.946 0.4h0c0.371-0.002 0.706-0.154 0.946-0.4l0.867-0.867v3.080c0 0.736 0.597 1.333 1.333 1.333s1.333-0.597 1.333-1.333v0-3.293l1.080 1.080c0.242 0.244 0.577 0.394 0.947 0.394s0.705-0.151 0.947-0.394l0-0c0.24-0.241 0.388-0.573 0.388-0.94s-0.148-0.699-0.388-0.94l-2.973-2.973v-4l3.427 1.987 1.093 4c0.158 0.573 0.674 0.987 1.288 0.987 0.016 0 0.032-0 0.048-0.001l-0.002 0c0.052 0.006 0.112 0.010 0.173 0.010s0.121-0.004 0.181-0.011l-0.007 0.001c0.576-0.156 0.994-0.674 0.994-1.289 0-0.125-0.017-0.246-0.049-0.36l0.002 0.009-0.48-1.427 2.853 1.653c0.191 0.112 0.421 0.178 0.667 0.178 0.739 0 1.338-0.599 1.338-1.338 0-0.494-0.267-0.925-0.665-1.157l-0.006-0.003z"></path>
</svg>
