<!-- Generated by IcoMoon.io -->
<svg version="1.1" xmlns="http://www.w3.org/2000/svg" width="32" height="32" viewBox="0 0 32 32">
<title>ul-swimmer</title>
<path fill="#fff" d="M22.667 12.373c1.473 0 2.667-1.194 2.667-2.667s-1.194-2.667-2.667-2.667c-1.473 0-2.667 1.194-2.667 2.667v0c0 1.473 1.194 2.667 2.667 2.667v0zM3.613 18.56c0.292 0.094 0.543 0.207 0.779 0.344l-0.019-0.010c0.783 0.466 1.726 0.741 2.733 0.741s1.951-0.275 2.758-0.755l-0.025 0.014c0.491-0.28 1.080-0.445 1.707-0.445s1.215 0.165 1.724 0.454l-0.017-0.009 0.28 0.133c0.706 0.351 1.537 0.557 2.416 0.557 1.010 0 1.956-0.271 2.77-0.744l-0.026 0.014c0.491-0.28 1.080-0.445 1.707-0.445s1.215 0.165 1.724 0.454l-0.017-0.009c0.797 0.463 1.752 0.74 2.771 0.747h0.002c0.985-0.011 1.904-0.287 2.691-0.76l-0.024 0.013c0.217-0.126 0.468-0.239 0.732-0.325l0.028-0.008c0.696-0.049 1.242-0.626 1.242-1.33 0-0.736-0.597-1.333-1.333-1.333-0.22 0-0.427 0.053-0.609 0.147l0.007-0.003c-0.51 0.16-0.951 0.359-1.363 0.603l0.030-0.016c-0.402 0.236-0.885 0.375-1.4 0.375s-0.998-0.139-1.413-0.382l0.013 0.007c-0.871-0.5-1.914-0.795-3.027-0.795s-2.156 0.295-3.057 0.811l0.030-0.016c-0.104 0.053-0.232 0.107-0.363 0.153l-0.024 0.007 2.080-2.080c0.045-0.058 0.085-0.124 0.117-0.194l0.003-0.006c0.058-0.063 0.111-0.133 0.157-0.207l0.003-0.006c0.003-0.038 0.005-0.082 0.005-0.127s-0.002-0.089-0.005-0.132l0 0.006c0.004-0.038 0.006-0.082 0.006-0.127s-0.002-0.089-0.006-0.132l0 0.006c0.003-0.036 0.005-0.078 0.005-0.12s-0.002-0.084-0.005-0.125l0 0.005c0.004-0.038 0.006-0.082 0.006-0.127s-0.002-0.089-0.006-0.132l0 0.006c-0.045-0.088-0.089-0.163-0.138-0.233l0.004 0.007c-0.037-0.081-0.082-0.152-0.135-0.215l0.001 0.001-4.093-4.44s0 0 0 0c-0.106-0.115-0.229-0.213-0.366-0.29l-0.007-0.004c-0.042-0.006-0.091-0.009-0.14-0.009s-0.098 0.003-0.146 0.010l0.006-0.001c-0.034-0.006-0.073-0.009-0.113-0.009s-0.079 0.003-0.117 0.010l0.004-0.001c-0.131-0.054-0.283-0.086-0.443-0.086-0.041 0-0.082 0.002-0.122 0.006l0.005-0-4.72 1.76c-0.517 0.191-0.879 0.68-0.879 1.254 0 0.162 0.029 0.318 0.082 0.462l-0.003-0.009c0.191 0.517 0.68 0.879 1.254 0.879 0.162 0 0.318-0.029 0.462-0.082l-0.009 0.003 3.907-1.427 2.667 2.827-2.533 2.533c-0.662-0.265-1.429-0.419-2.232-0.419-1.11 0-2.152 0.294-3.052 0.808l0.030-0.016c-0.402 0.236-0.885 0.375-1.4 0.375s-0.998-0.139-1.413-0.382l0.013 0.007c-0.382-0.227-0.824-0.426-1.288-0.574l-0.045-0.012c-0.138-0.053-0.299-0.084-0.466-0.084-0.736 0-1.333 0.597-1.333 1.333 0 0.627 0.433 1.154 1.017 1.296l0.009 0.002zM27.613 22.68c-0.51 0.16-0.951 0.359-1.363 0.603l0.030-0.016c-0.402 0.236-0.885 0.375-1.4 0.375s-0.998-0.139-1.413-0.382l0.013 0.007c-0.871-0.5-1.914-0.795-3.027-0.795s-2.156 0.295-3.057 0.811l0.030-0.016c-0.405 0.239-0.893 0.381-1.413 0.381s-1.008-0.141-1.426-0.388l0.013 0.007c-0.871-0.5-1.914-0.795-3.027-0.795s-2.156 0.295-3.057 0.811l0.030-0.016c-0.402 0.236-0.885 0.375-1.4 0.375s-0.998-0.139-1.413-0.382l0.013 0.007c-0.382-0.227-0.824-0.426-1.288-0.574l-0.045-0.012c-0.138-0.053-0.299-0.084-0.466-0.084-0.736 0-1.333 0.597-1.333 1.333 0 0.627 0.433 1.154 1.017 1.296l0.009 0.002c0.292 0.094 0.543 0.207 0.779 0.344l-0.019-0.010c0.783 0.466 1.726 0.741 2.733 0.741s1.951-0.275 2.758-0.755l-0.025 0.014c0.491-0.28 1.080-0.445 1.707-0.445s1.215 0.165 1.724 0.454l-0.017-0.009c0.789 0.459 1.736 0.73 2.747 0.73s1.958-0.271 2.773-0.744l-0.026 0.014c0.491-0.28 1.080-0.445 1.707-0.445s1.215 0.165 1.724 0.454l-0.017-0.009c0.797 0.463 1.752 0.74 2.771 0.747h0.002c0.985-0.011 1.904-0.287 2.691-0.76l-0.024 0.013c0.217-0.126 0.468-0.239 0.732-0.325l0.028-0.008c0.555-0.171 0.95-0.679 0.95-1.28 0-0.738-0.599-1.337-1.337-1.337-0.138 0-0.271 0.021-0.396 0.060l0.009-0.003z"></path>
</svg>
