<!-- Generated by IcoMoon.io -->
<svg version="1.1" xmlns="http://www.w3.org/2000/svg" width="32" height="32" viewBox="0 0 32 32">
<title>ul-vertical-align-top</title>
<path fill="#fff" d="M28 2.667h-24c-0.736 0-1.333 0.597-1.333 1.333s0.597 1.333 1.333 1.333v0h4v22.667c0 0.736 0.597 1.333 1.333 1.333v0h8c0.736 0 1.333-0.597 1.333-1.333v0-6.667h4c0.736 0 1.333-0.597 1.333-1.333v0-14.667h4c0.736 0 1.333-0.597 1.333-1.333s-0.597-1.333-1.333-1.333v0zM16 26.667h-5.333v-21.333h5.333zM21.333 18.667h-2.667v-13.333h2.667z"></path>
</svg>
