<!-- Generated by IcoMoon.io -->
<svg version="1.1" xmlns="http://www.w3.org/2000/svg" width="32" height="32" viewBox="0 0 32 32">
<title>ul-wind-sun</title>
<path fill="#fff" d="M14.667 6c0 0 0.001 0 0.001 0 0.736 0 1.333-0.597 1.333-1.333 0-0 0-0.001 0-0.001v0-1.333c0-0.736-0.597-1.333-1.333-1.333s-1.333 0.597-1.333 1.333v0 1.333c0 0 0 0 0 0.001 0 0.736 0.597 1.333 1.333 1.333 0 0 0.001 0 0.001 0h-0zM5.333 15.333c0-0 0-0.001 0-0.001 0-0.736-0.597-1.333-1.333-1.333-0 0-0.001 0-0.001 0h-1.333c-0.736 0-1.333 0.597-1.333 1.333s0.597 1.333 1.333 1.333v0h1.333c0 0 0 0 0.001 0 0.736 0 1.333-0.597 1.333-1.333 0-0 0-0.001 0-0.001v0zM6.181 21.934l-0.943 0.943c-0.241 0.241-0.39 0.575-0.39 0.943 0 0.736 0.597 1.333 1.333 1.333 0.368 0 0.701-0.149 0.943-0.39l0.943-0.943c0.241-0.241 0.39-0.575 0.39-0.943 0-0.736-0.597-1.333-1.333-1.333-0.368 0-0.701 0.149-0.943 0.39v0zM6.181 8.733c0.241 0.241 0.575 0.39 0.943 0.39 0.736 0 1.333-0.597 1.333-1.333 0-0.368-0.149-0.701-0.39-0.943l-0.943-0.943c-0.241-0.241-0.575-0.391-0.943-0.391-0.736 0-1.333 0.597-1.333 1.333 0 0.368 0.149 0.701 0.39 0.943v0zM22.21 9.124c0 0 0.001 0 0.002 0 0.368 0 0.701-0.149 0.941-0.391l0.943-0.943c0.241-0.241 0.39-0.575 0.39-0.943 0-0.736-0.597-1.333-1.333-1.333-0.368 0-0.701 0.149-0.943 0.39l-0.943 0.943c-0.241 0.241-0.39 0.575-0.39 0.943 0 0.736 0.597 1.333 1.333 1.333h0zM17.333 16c0 0 0 0 0 0.001 0 0.736 0.597 1.333 1.333 1.333 0 0 0.001 0 0.001 0h6.667c2.208-0.003 3.997-1.792 4-4v-0c0-0.736-0.597-1.333-1.333-1.333s-1.333 0.597-1.333 1.333v0c-0.010 0.732-0.601 1.323-1.332 1.333h-6.668c-0 0-0 0-0.001 0-0.736 0-1.333 0.597-1.333 1.333 0 0 0 0.001 0 0.001v-0zM26.667 20h-6.667c-0.736 0-1.333 0.597-1.333 1.333s0.597 1.333 1.333 1.333v0h6.667c0.736 0 1.333 0.597 1.333 1.333s-0.597 1.333-1.333 1.333v0c-0.736 0-1.333 0.597-1.333 1.333s0.597 1.333 1.333 1.333v0c2.209 0 4-1.791 4-4s-1.791-4-4-4v0zM12 25.333c-0.736 0-1.333 0.597-1.333 1.333s0.597 1.333 1.333 1.333c0.736 0 1.333-0.597 1.333-1.333v0c0-0.736-0.597-1.333-1.333-1.333v0zM20 25.333h-2.667c-0.736 0-1.333 0.597-1.333 1.333s0.597 1.333 1.333 1.333v0h2.667c0.732 0.010 1.323 0.601 1.333 1.332v0.001c0 0.736 0.597 1.333 1.333 1.333s1.333-0.597 1.333-1.333v0c-0.003-2.208-1.792-3.997-4-4h-0zM14.667 20c-2.577 0-4.667-2.089-4.667-4.667s2.089-4.667 4.667-4.667v0c0.009-0 0.019-0 0.029-0 1.1 0 2.108 0.39 2.895 1.039l-0.008-0.006c0.228 0.188 0.523 0.302 0.845 0.302 0.736 0 1.333-0.597 1.333-1.333 0-0.416-0.19-0.787-0.488-1.031l-0.002-0.002c-1.231-1.017-2.826-1.634-4.564-1.634-0.014 0-0.028 0-0.042 0h0.002c-4.050 0-7.333 3.283-7.333 7.333s3.283 7.333 7.333 7.333v0c0.736 0 1.333-0.597 1.333-1.333s-0.597-1.333-1.333-1.333v0z"></path>
</svg>
