<!-- Generated by IcoMoon.io -->
<svg version="1.1" xmlns="http://www.w3.org/2000/svg" width="40" height="40" viewBox="0 0 40 40">
<title>amazon</title>
<path d="M5.387 27.36q0.133-0.213 0.427-0.027c4.1 2.431 9.037 3.867 14.31 3.867 0.069 0 0.138-0 0.207-0.001l-0.011 0c3.715-0.009 7.261-0.723 10.514-2.015l-0.194 0.068q0.133-0.053 0.387-0.16t0.36-0.16c0.066-0.036 0.144-0.058 0.227-0.058 0.167 0 0.314 0.086 0.398 0.216l0.001 0.002q0.227 0.32-0.147 0.587-0.48 0.347-1.227 0.8c-1.474 0.878-3.177 1.6-4.981 2.075l-0.139 0.031c-1.653 0.465-3.553 0.737-5.514 0.747l-0.006 0c-0.036 0-0.079 0-0.122 0-2.786 0-5.448-0.534-7.889-1.504l0.144 0.051c-2.561-1.013-4.762-2.396-6.659-4.11l0.019 0.017c-0.088-0.060-0.149-0.155-0.16-0.265l-0-0.002c0.001-0.060 0.021-0.116 0.054-0.161l-0.001 0.001zM13.413 19.76c-0.001-0.046-0.002-0.1-0.002-0.154 0-1.116 0.34-2.152 0.921-3.012l-0.012 0.019c0.618-0.874 1.46-1.553 2.443-1.96l0.037-0.014c1.034-0.426 2.234-0.736 3.486-0.875l0.060-0.005q0.72-0.080 2.347-0.213v-0.453c0.011-0.122 0.017-0.264 0.017-0.407 0-0.682-0.144-1.331-0.403-1.917l0.012 0.030c-0.368-0.491-0.949-0.806-1.604-0.806-0.055 0-0.109 0.002-0.163 0.007l0.007-0h-0.213c-0.576 0.043-1.097 0.246-1.528 0.566l0.008-0.006c-0.421 0.322-0.72 0.786-0.824 1.319l-0.002 0.014c-0.023 0.303-0.241 0.549-0.529 0.613l-0.004 0.001-3.067-0.373q-0.453-0.107-0.453-0.48c0.001-0.067 0.011-0.131 0.028-0.192l-0.001 0.006c0.22-1.476 1.044-2.725 2.208-3.508l0.018-0.012c1.178-0.753 2.602-1.221 4.131-1.28l0.015-0h0.667c0.121-0.008 0.262-0.012 0.404-0.012 1.659 0 3.178 0.599 4.352 1.594l-0.010-0.008c0.174 0.174 0.336 0.362 0.484 0.56l0.010 0.014c0.12 0.158 0.239 0.336 0.347 0.522l0.013 0.025c0.103 0.2 0.186 0.432 0.237 0.675l0.003 0.018q0.107 0.453 0.16 0.627c0.049 0.224 0.078 0.481 0.080 0.745v0.002q0.027 0.573 0.027 0.68v6.453c-0 0.013-0 0.029-0 0.045 0 0.437 0.073 0.857 0.208 1.248l-0.008-0.027c0.098 0.315 0.23 0.589 0.394 0.839l-0.008-0.012q0.187 0.253 0.613 0.813c0.090 0.118 0.148 0.265 0.16 0.424l0 0.003c-0.006 0.157-0.088 0.293-0.211 0.372l-0.002 0.001q-2.213 1.92-2.4 2.080c-0.12 0.086-0.269 0.137-0.43 0.137-0.125 0-0.244-0.031-0.347-0.086l0.004 0.002q-0.373-0.32-0.653-0.613t-0.4-0.427c-0.128-0.153-0.255-0.322-0.373-0.498l-0.014-0.022q-0.267-0.387-0.373-0.52c-0.761 0.917-1.753 1.616-2.887 2.013l-0.046 0.014c-0.619 0.171-1.329 0.269-2.062 0.269-0.063 0-0.125-0.001-0.187-0.002l0.009 0c-0.051 0.002-0.111 0.003-0.171 0.003-1.24 0-2.368-0.483-3.205-1.272l0.002 0.002c-0.822-0.851-1.329-2.012-1.329-3.291 0-0.104 0.003-0.208 0.010-0.31l-0.001 0.014zM18 19.227c-0.002 0.038-0.003 0.082-0.003 0.127 0 0.582 0.197 1.118 0.528 1.545l-0.004-0.006c0.319 0.385 0.797 0.628 1.331 0.628 0.024 0 0.048-0.001 0.072-0.001l-0.003 0c0.082-0.003 0.16-0.012 0.236-0.028l-0.009 0.002c0.058-0.013 0.126-0.022 0.196-0.026l0.004-0c0.77-0.213 1.389-0.737 1.726-1.424l0.007-0.016c0.187-0.319 0.338-0.688 0.434-1.078l0.006-0.029c0.079-0.284 0.136-0.616 0.159-0.958l0.001-0.016q0.013-0.373 0.013-1.227v-0.667c-0.089-0.003-0.195-0.005-0.3-0.005-0.725 0-1.431 0.079-2.111 0.23l0.065-0.012c-1.345 0.25-2.35 1.414-2.35 2.813 0 0.052 0.001 0.103 0.004 0.154l-0-0.007zM29.2 27.813c0.044-0.082 0.097-0.152 0.16-0.213l0-0c0.366-0.263 0.792-0.473 1.25-0.606l0.030-0.007c0.585-0.164 1.262-0.269 1.959-0.293l0.014-0c0.051-0.006 0.111-0.009 0.171-0.009 0.119 0 0.235 0.013 0.347 0.038l-0.011-0.002q1.2 0.107 1.44 0.4c0.068 0.122 0.109 0.267 0.109 0.422 0 0.021-0.001 0.041-0.002 0.061l0-0.003v0.187c-0.033 0.802-0.216 1.554-0.522 2.239l0.015-0.039c-0.311 0.811-0.794 1.495-1.408 2.035l-0.006 0.005c-0.063 0.059-0.147 0.098-0.238 0.107l-0.002 0c-0.039-0-0.076-0.010-0.108-0.027l0.001 0.001q-0.16-0.080-0.080-0.293c0.479-0.936 0.826-2.025 0.981-3.174l0.006-0.052c0.001-0.017 0.002-0.036 0.002-0.056 0-0.138-0.041-0.266-0.111-0.373l0.002 0.003q-0.267-0.32-1.493-0.32-0.453 0-1.067 0.053-0.667 0.080-1.227 0.16c-0.011 0.001-0.024 0.002-0.037 0.002-0.066 0-0.127-0.021-0.178-0.056l0.001 0.001c-0.021-0.016-0.035-0.041-0.035-0.070 0-0.013 0.003-0.026 0.008-0.037l-0 0.001c0.004-0.030 0.013-0.057 0.027-0.081l-0.001 0.001z"></path>
</svg>
