<!-- Generated by IcoMoon.io -->
<svg version="1.1" xmlns="http://www.w3.org/2000/svg" width="40" height="40" viewBox="0 0 40 40">
<title>at</title>
<path d="M20 6.667c-0 0-0 0-0.001 0-7.364 0-13.333 5.97-13.333 13.333s5.97 13.333 13.333 13.333c2.455 0 4.755-0.663 6.73-1.821l-0.063 0.034c0.428-0.228 0.715-0.671 0.715-1.181 0-0.736-0.597-1.333-1.333-1.333-0.265 0-0.513 0.078-0.721 0.211l0.005-0.003c-1.53 0.898-3.37 1.429-5.333 1.429-5.891 0-10.667-4.776-10.667-10.667s4.776-10.667 10.667-10.667c5.89 0 10.665 4.774 10.667 10.664v1c0 1.289-1.045 2.333-2.333 2.333s-2.333-1.045-2.333-2.333v0-5.667c0-0.736-0.597-1.333-1.333-1.333v0c-0.009-0-0.019-0-0.030-0-0.637 0-1.17 0.447-1.302 1.045l-0.002 0.009c-0.931-0.651-2.086-1.044-3.331-1.053h-0.002c-0.021-0-0.047-0-0.072-0-3.314 0-6 2.686-6 6s2.686 6 6 6c1.774 0 3.368-0.77 4.467-1.994l0.005-0.006c0.921 1.184 2.346 1.939 3.947 1.939 2.737 0 4.959-2.205 4.986-4.936l0-0.003v-1c0-7.364-5.97-13.333-13.333-13.333v0zM20 23.333c-1.841 0-3.333-1.492-3.333-3.333s1.492-3.333 3.333-3.333c1.841 0 3.333 1.492 3.333 3.333v0c0 1.841-1.492 3.333-3.333 3.333v0z"></path>
</svg>
