<!-- Generated by IcoMoon.io -->
<svg version="1.1" xmlns="http://www.w3.org/2000/svg" width="40" height="40" viewBox="0 0 40 40">
<title>backward</title>
<path d="M31.56 11.8c-0.509-0.305-1.124-0.485-1.78-0.485s-1.271 0.18-1.796 0.494l0.016-0.009-5.333 3.067c-0.004-1.963-1.596-3.553-3.56-3.553-0.653 0-1.264 0.176-1.79 0.482l0.017-0.009-8.893 5.133c-1.069 0.628-1.775 1.771-1.775 3.080s0.706 2.452 1.758 3.071l0.017 0.009 8.893 5.133c0.51 0.301 1.124 0.479 1.78 0.479s1.27-0.178 1.797-0.488l-0.017 0.009c1.067-0.621 1.773-1.76 1.773-3.064 0-0.006 0-0.011-0-0.017v0.001l5.333 3.080c0.509 0.299 1.12 0.476 1.772 0.48h0.001c0 0 0 0 0.001 0 0.659 0 1.276-0.183 1.802-0.502l-0.016 0.009c1.067-0.615 1.773-1.749 1.773-3.048 0-0.006-0-0.013-0-0.019v0.001-10.267c0-0.005 0-0.012 0-0.018 0-1.299-0.707-2.433-1.756-3.039l-0.017-0.009zM20 25.133c0 0.003 0 0.007 0 0.011 0 0.324-0.175 0.607-0.436 0.76l-0.004 0.002c-0.129 0.073-0.283 0.116-0.447 0.116s-0.318-0.043-0.451-0.118l0.005 0.002-8.893-5.133c-0.269-0.157-0.446-0.445-0.446-0.773s0.178-0.616 0.442-0.771l0.004-0.002 8.893-5.133c0.128-0.075 0.282-0.12 0.447-0.12s0.319 0.044 0.451 0.122l-0.004-0.002c0.265 0.155 0.44 0.438 0.44 0.762 0 0.004-0 0.008-0 0.012v-0.001zM30.667 25.133c-0.010 0.486-0.406 0.876-0.893 0.876-0.162 0-0.314-0.043-0.444-0.118l0.004 0.002-6.667-3.84v-4.107l6.667-3.84c0.127-0.073 0.278-0.116 0.44-0.116 0.487 0 0.883 0.39 0.893 0.875v0.001z"></path>
</svg>
