<!-- Generated by IcoMoon.io -->
<svg version="1.1" xmlns="http://www.w3.org/2000/svg" width="40" height="40" viewBox="0 0 40 40">
<title>balance-scale</title>
<path d="M34.619 22.43c-0.006-0.085-0.019-0.165-0.040-0.241l0.002 0.009-3.073-8.183c1.104-0.722 1.823-1.951 1.825-3.348v-0c0-0.736-0.597-1.333-1.333-1.333s-1.333 0.597-1.333 1.333v0c-0 0.736-0.597 1.333-1.334 1.333-0.506 0-0.946-0.281-1.172-0.696l-0.004-0.007c-0.675-1.181-1.926-1.964-3.361-1.964-0.027 0-0.054 0-0.080 0.001l0.004-0h-3.387v-1.333c0-0.736-0.597-1.333-1.333-1.333s-1.333 0.597-1.333 1.333v0 1.333h-3.387c-0.023-0-0.049-0.001-0.076-0.001-1.435 0-2.687 0.783-3.351 1.945l-0.010 0.019c-0.23 0.422-0.67 0.703-1.175 0.703-0.736 0-1.334-0.597-1.334-1.333v-0c0-0.736-0.597-1.333-1.333-1.333s-1.333 0.597-1.333 1.333v0c0.002 1.398 0.721 2.627 1.81 3.339l0.015 0.009-3.073 8.183c-0.018 0.068-0.032 0.147-0.037 0.228l-0 0.004c-0.022 0.068-0.038 0.148-0.047 0.231l-0.001 0.006c0 0.012 0.004 0.024 0.004 0.036 0 0.018 0.004 0.034 0.005 0.051 0.045 2.907 2.411 5.246 5.324 5.246s5.28-2.339 5.324-5.242l0-0.004c0.001-0.018 0.005-0.034 0.005-0.051 0-0.012 0.004-0.024 0.004-0.036-0.009-0.088-0.026-0.168-0.050-0.245l0.002 0.009c-0.006-0.085-0.019-0.165-0.040-0.241l0.002 0.009-3.076-8.192c0.566-0.365 1.022-0.851 1.342-1.425l0.010-0.020c0.221-0.34 0.599-0.561 1.028-0.561 0.022 0 0.043 0.001 0.064 0.002l-0.003-0h3.387v18.667h-4c-0.736 0-1.333 0.597-1.333 1.333s0.597 1.333 1.333 1.333v0h10.667c0.736 0 1.333-0.597 1.333-1.333s-0.597-1.333-1.333-1.333v0h-4v-18.667h3.387c0.018-0.001 0.040-0.002 0.061-0.002 0.43 0 0.808 0.222 1.026 0.557l0.003 0.005c0.33 0.594 0.786 1.081 1.336 1.436l0.016 0.009-3.076 8.192c-0.018 0.068-0.032 0.147-0.037 0.228l-0 0.004c-0.022 0.068-0.038 0.148-0.047 0.231l-0.001 0.006c0 0.012 0.004 0.024 0.004 0.036 0 0.018 0.004 0.034 0.005 0.051 0.045 2.907 2.411 5.246 5.324 5.246s5.28-2.339 5.324-5.242l0-0.004c0.001-0.018 0.005-0.034 0.005-0.051 0-0.012 0.004-0.024 0.004-0.036-0.009-0.088-0.026-0.168-0.050-0.245l0.002 0.009zM10.667 15.807l2.075 5.526h-4.15zM12.964 24c-0.472 0.795-1.322 1.322-2.295 1.333h-0.002c-0.981-0-1.839-0.531-2.302-1.321l-0.007-0.013zM29.333 15.807l2.075 5.526h-4.15zM29.333 25.333c-0.981-0-1.839-0.531-2.302-1.321l-0.007-0.013h4.605c-0.472 0.795-1.322 1.322-2.295 1.333h-0.002z"></path>
</svg>
