<!-- Generated by IcoMoon.io -->
<svg version="1.1" xmlns="http://www.w3.org/2000/svg" width="40" height="40" viewBox="0 0 40 40">
<title>baseball-ball</title>
<path d="M22.563 12.587c-0.239-0.381-0.657-0.631-1.134-0.631-0.736 0-1.333 0.597-1.333 1.333 0 0.258 0.073 0.498 0.2 0.702l-0.003-0.006q0.354 0.572 0.754 1.125c0.245 0.334 0.636 0.548 1.077 0.548 0.736 0 1.333-0.597 1.333-1.333 0-0.293-0.094-0.564-0.254-0.784l0.003 0.004q-0.342-0.471-0.642-0.958zM18.923 24.883c-0.246-0.33-0.635-0.542-1.073-0.542-0.736 0-1.333 0.597-1.333 1.333 0 0.298 0.098 0.573 0.263 0.795l-0.003-0.004c0.227 0.306 0.436 0.622 0.634 0.945 0.239 0.384 0.658 0.636 1.137 0.636 0.737 0 1.334-0.597 1.334-1.334 0-0.258-0.073-0.499-0.2-0.704l0.003 0.006c-0.237-0.385-0.491-0.764-0.762-1.133zM13.981 20.311c-0.198-0.123-0.439-0.196-0.697-0.196-0.736 0-1.333 0.597-1.333 1.333 0 0.479 0.252 0.898 0.631 1.133l0.006 0.003q0.484 0.297 0.951 0.638c0.218 0.161 0.492 0.258 0.789 0.258 0.737 0 1.334-0.597 1.334-1.334 0-0.443-0.216-0.835-0.548-1.078l-0.004-0.003q-0.553-0.402-1.128-0.755zM27.395 17.422q-0.486-0.299-0.954-0.639c-0.217-0.159-0.488-0.254-0.782-0.254-0.737 0-1.334 0.597-1.334 1.334 0 0.44 0.213 0.831 0.542 1.074l0.004 0.003q0.553 0.402 1.129 0.756c0.199 0.124 0.44 0.197 0.698 0.197 0.737 0 1.334-0.597 1.334-1.334 0-0.478-0.252-0.898-0.63-1.133l-0.006-0.003zM29.323 10.668c-2.389-2.389-5.69-3.867-9.335-3.867-7.291 0-13.201 5.91-13.201 13.201s5.91 13.201 13.201 13.201c3.646 0 6.946-1.478 9.335-3.867l0-0c2.385-2.391 3.859-5.69 3.859-9.334s-1.475-6.943-3.86-9.334l0 0zM27.625 27.638c-1.578 1.582-3.648 2.673-5.962 3.024l-0.059 0.007c-0.223-0.409-0.65-0.683-1.141-0.683-0.529 0-0.984 0.317-1.185 0.772l-0.003 0.008c-5.399-0.353-9.691-4.643-10.045-10.010l-0.002-0.032c0.46-0.207 0.774-0.661 0.774-1.189 0-0.489-0.27-0.916-0.67-1.137l-0.007-0.003c0.704-4.688 4.36-8.347 8.987-9.048l0.059-0.007c0.233 0.397 0.656 0.661 1.141 0.664h0c0.109-0 0.214-0.013 0.315-0.037l-0.009 0.002c0.394-0.099 0.711-0.367 0.875-0.72l0.003-0.008c5.406 0.347 9.704 4.646 10.049 10.020l0.002 0.031c-0.458 0.207-0.77 0.659-0.77 1.185 0 0.487 0.268 0.911 0.665 1.133l0.007 0.003c-0.357 2.373-1.446 4.444-3.026 6.024l0-0z"></path>
</svg>
