<!-- Generated by IcoMoon.io -->
<svg version="1.1" xmlns="http://www.w3.org/2000/svg" width="40" height="40" viewBox="0 0 40 40">
<title>basketball-hoop</title>
<path d="M28 17.333h-16c-0.736 0-1.333 0.597-1.333 1.333s0.597 1.333 1.333 1.333v0h1.333v12c0 0.736 0.597 1.333 1.333 1.333s1.333-0.597 1.333-1.333v0-1.333h2.667v1.333c0 0.736 0.597 1.333 1.333 1.333s1.333-0.597 1.333-1.333v0-1.333h2.667v1.333c0 0.736 0.597 1.333 1.333 1.333s1.333-0.597 1.333-1.333v0-12h1.333c0.736 0 1.333-0.597 1.333-1.333s-0.597-1.333-1.333-1.333v0zM18.667 28h-2.667v-2.667h2.667zM18.667 22.667h-2.667v-2.667h2.667zM24 28h-2.667v-2.667h2.667zM24 22.667h-2.667v-2.667h2.667zM30.667 6.667h-21.333c-2.209 0-4 1.791-4 4v0 10.667c0 2.209 1.791 4 4 4v0c0.736 0 1.333-0.597 1.333-1.333s-0.597-1.333-1.333-1.333v0c-0.736 0-1.333-0.597-1.333-1.333v0-10.667c0-0.736 0.597-1.333 1.333-1.333v0h21.333c0.736 0 1.333 0.597 1.333 1.333v0 10.667c0 0.736-0.597 1.333-1.333 1.333v0c-0.736 0-1.333 0.597-1.333 1.333s0.597 1.333 1.333 1.333v0c2.209 0 4-1.791 4-4v0-10.667c0-2.209-1.791-4-4-4v0zM22.667 14.667c0.736 0 1.333-0.597 1.333-1.333s-0.597-1.333-1.333-1.333v0h-5.333c-0.736 0-1.333 0.597-1.333 1.333s0.597 1.333 1.333 1.333v0z"></path>
</svg>
