<!-- Generated by IcoMoon.io -->
<svg version="1.1" xmlns="http://www.w3.org/2000/svg" width="40" height="40" viewBox="0 0 40 40">
<title>bluetooth-b</title>
<path d="M21.88 20l5.067-5.053c0.244-0.242 0.394-0.577 0.394-0.947s-0.151-0.705-0.394-0.947l-6-6c-0.123-0.118-0.269-0.213-0.431-0.277l-0.009-0.003c-0.15-0.063-0.324-0.1-0.507-0.1s-0.357 0.037-0.515 0.103l0.009-0.003c-0.327 0.138-0.582 0.393-0.717 0.711l-0.003 0.009c-0.065 0.149-0.104 0.323-0.107 0.506v8.788l-3.72-3.733c-0.242-0.242-0.577-0.392-0.947-0.392-0.739 0-1.339 0.599-1.339 1.339 0 0.37 0.15 0.704 0.392 0.947v0l5.067 5.053-5.067 5.053c-0.242 0.242-0.392 0.577-0.392 0.947 0 0.739 0.599 1.339 1.339 1.339 0.37 0 0.704-0.15 0.947-0.392v0l3.72-3.733v8.787c0.002 0.184 0.041 0.357 0.11 0.515l-0.003-0.009c0.138 0.327 0.393 0.582 0.711 0.717l0.009 0.003c0.149 0.068 0.323 0.107 0.507 0.107s0.358-0.039 0.515-0.11l-0.008 0.003c0.171-0.067 0.317-0.162 0.44-0.28l-0 0 6-6c0.244-0.242 0.394-0.577 0.394-0.947s-0.151-0.705-0.394-0.947l-0-0zM21.333 11.213l2.787 2.787-2.787 2.787zM21.333 28.787v-5.573l2.787 2.787z"></path>
</svg>
