<!-- Generated by IcoMoon.io -->
<svg version="1.1" xmlns="http://www.w3.org/2000/svg" width="40" height="40" viewBox="0 0 40 40">
<title>boombox</title>
<path d="M26.667 6.667h-13.333c-2.209 0-4 1.791-4 4v0 18.667c0 2.209 1.791 4 4 4v0h13.333c2.209 0 4-1.791 4-4v0-18.667c0-2.209-1.791-4-4-4v0zM28 29.333c0 0.736-0.597 1.333-1.333 1.333v0h-13.333c-0.736 0-1.333-0.597-1.333-1.333v0-18.667c0-0.736 0.597-1.333 1.333-1.333v0h13.333c0.736 0 1.333 0.597 1.333 1.333v0zM23.173 18.4c0.509-0.658 0.818-1.492 0.827-2.398v-0.002c0-2.209-1.791-4-4-4s-4 1.791-4 4v0c0.008 0.908 0.318 1.742 0.834 2.409l-0.007-0.009c-1.317 0.982-2.16 2.536-2.16 4.287 0 2.946 2.388 5.333 5.333 5.333s5.333-2.388 5.333-5.333c0-1.751-0.843-3.304-2.146-4.276l-0.014-0.010zM20 14.667c0.736 0 1.333 0.597 1.333 1.333s-0.597 1.333-1.333 1.333c-0.736 0-1.333-0.597-1.333-1.333v0c0-0.736 0.597-1.333 1.333-1.333v0zM20 25.333c-1.473 0-2.667-1.194-2.667-2.667s1.194-2.667 2.667-2.667c1.473 0 2.667 1.194 2.667 2.667v0c0 1.473-1.194 2.667-2.667 2.667v0z"></path>
</svg>
