<!-- Generated by IcoMoon.io -->
<svg version="1.1" xmlns="http://www.w3.org/2000/svg" width="40" height="40" viewBox="0 0 40 40">
<title>celsius</title>
<path d="M32 29.333h-8c-2.209 0-4-1.791-4-4v0-10.667c0-2.209 1.791-4 4-4v0h8c0.736 0 1.333-0.597 1.333-1.333s-0.597-1.333-1.333-1.333v0h-8c-3.682 0-6.667 2.985-6.667 6.667v0 10.667c0 3.682 2.985 6.667 6.667 6.667v0h8c0.736 0 1.333-0.597 1.333-1.333s-0.597-1.333-1.333-1.333v0zM10.667 8c-2.209 0-4 1.791-4 4s1.791 4 4 4c2.209 0 4-1.791 4-4v0c0-2.209-1.791-4-4-4v0zM10.667 13.333c-0.736 0-1.333-0.597-1.333-1.333s0.597-1.333 1.333-1.333c0.736 0 1.333 0.597 1.333 1.333v0c0 0.736-0.597 1.333-1.333 1.333v0z"></path>
</svg>
