<!-- Generated by IcoMoon.io -->
<svg version="1.1" xmlns="http://www.w3.org/2000/svg" width="40" height="40" viewBox="0 0 40 40">
<title>check</title>
<path d="M28.947 13.613c-0.242-0.244-0.577-0.394-0.947-0.394s-0.705 0.151-0.947 0.394l-0 0-9.933 9.947-4.173-4.187c-0.245-0.237-0.579-0.383-0.947-0.383-0.753 0-1.363 0.61-1.363 1.363 0 0.385 0.159 0.732 0.416 0.98l5.12 5.12c0.242 0.244 0.577 0.394 0.947 0.394s0.705-0.151 0.947-0.394l10.88-10.88c0.264-0.244 0.429-0.593 0.429-0.98s-0.165-0.736-0.428-0.979l-0.001-0.001z"></path>
</svg>
