<!-- Generated by IcoMoon.io -->
<svg version="1.1" xmlns="http://www.w3.org/2000/svg" width="40" height="40" viewBox="0 0 40 40">
<title>clapper-board</title>
<path d="M29.333 6.667h-18.667c-2.209 0-4 1.791-4 4v0 18.667c0 2.209 1.791 4 4 4v0h18.667c2.209 0 4-1.791 4-4v0-18.667c0-2.209-1.791-4-4-4v0zM25.453 9.333l-5.333 5.333h-5.573l5.333-5.333zM9.333 10.667c0-0.736 0.597-1.333 1.333-1.333v0h5.453l-5.333 5.333h-1.453zM30.667 29.333c0 0.736-0.597 1.333-1.333 1.333v0h-18.667c-0.736 0-1.333-0.597-1.333-1.333v0-12h21.333zM30.667 14.667h-6.787l5.333-5.333h0.12c0.736 0 1.333 0.597 1.333 1.333v0z"></path>
</svg>
