<!-- Generated by IcoMoon.io -->
<svg version="1.1" xmlns="http://www.w3.org/2000/svg" width="40" height="40" viewBox="0 0 40 40">
<title>clock</title>
<path d="M24.131 20.845l-2.798-1.615v-5.897c0-0.736-0.597-1.333-1.333-1.333s-1.333 0.597-1.333 1.333v0 6.667c0 0 0 0 0 0 0 0.491 0.265 0.92 0.66 1.151l0.006 0.003 3.464 2c0.191 0.113 0.422 0.179 0.667 0.179 0.736 0 1.334-0.597 1.334-1.334 0-0.491-0.266-0.921-0.661-1.152l-0.006-0.003zM20 6.667c-7.364 0-13.333 5.97-13.333 13.333s5.97 13.333 13.333 13.333c7.364 0 13.333-5.97 13.333-13.333v0c-0.008-7.36-5.973-13.325-13.333-13.333h-0.001zM20 30.667c-5.891 0-10.667-4.776-10.667-10.667s4.776-10.667 10.667-10.667c5.891 0 10.667 4.776 10.667 10.667v0c-0.007 5.888-4.778 10.66-10.666 10.667h-0.001z"></path>
</svg>
