<!-- Generated by IcoMoon.io -->
<svg version="1.1" xmlns="http://www.w3.org/2000/svg" width="40" height="40" viewBox="0 0 40 40">
<title>cloud-database-tree</title>
<path d="M34 23.333c0-1.473-1.194-2.667-2.667-2.667v0h-8c-1.473 0-2.667 1.194-2.667 2.667v0h-4v-4h3.107c0.002 0 0.005 0 0.008 0 2.695 0 4.88-2.185 4.88-4.88 0-2.14-1.377-3.958-3.294-4.616l-0.034-0.010c-1.1-2.257-3.377-3.784-6.011-3.784-3.266 0-5.984 2.349-6.556 5.45l-0.006 0.041c-1.611 0.541-2.751 2.037-2.751 3.8 0 2.206 1.786 3.995 3.991 4h4.001v10.667c0 0.736 0.597 1.333 1.333 1.333v0h5.333c0 1.473 1.194 2.667 2.667 2.667v0h8c1.473 0 2.667-1.194 2.667-2.667v0-2.667c-0.005-0.493-0.143-0.952-0.38-1.345l0.007 0.012c0.23-0.381 0.368-0.841 0.373-1.332v-0.001zM10 16.667c-0.736 0-1.333-0.597-1.333-1.333s0.597-1.333 1.333-1.333v0c0.736 0 1.333-0.597 1.333-1.333v0c-0-0.013-0-0.029-0-0.045 0-2.209 1.791-4 4-4 1.748 0 3.234 1.121 3.778 2.684l0.009 0.028c0.161 0.458 0.553 0.796 1.032 0.879l0.008 0.001c1.051 0.179 1.841 1.082 1.841 2.17 0 0.020-0 0.039-0.001 0.059l0-0.003c0 1.23-0.997 2.227-2.227 2.227v0zM20.667 28.667h-4v-2.667h4c0.005 0.493 0.143 0.952 0.38 1.345l-0.007-0.012c-0.23 0.381-0.368 0.841-0.373 1.332v0.001zM23.333 31.333v-2.667h8v2.667zM23.333 26v-2.667h8v2.667z"></path>
</svg>
