<!-- Generated by IcoMoon.io -->
<svg version="1.1" xmlns="http://www.w3.org/2000/svg" width="40" height="40" viewBox="0 0 40 40">
<title>cog</title>
<path d="M32.427 16.733l-2.52-0.84 1.187-2.373c0.084-0.17 0.133-0.37 0.133-0.581 0-0.366-0.148-0.698-0.387-0.939l-2.84-2.84c-0.241-0.242-0.575-0.391-0.943-0.391-0.215 0-0.418 0.051-0.598 0.141l0.008-0.004-2.373 1.187-0.84-2.52c-0.182-0.529-0.674-0.902-1.253-0.907h-4.001c-0.001 0-0.002 0-0.003 0-0.584 0-1.080 0.375-1.26 0.897l-0.003 0.009-0.84 2.52-2.373-1.187c-0.17-0.084-0.37-0.133-0.581-0.133-0.366 0-0.698 0.148-0.939 0.387l-2.84 2.84c-0.242 0.241-0.391 0.575-0.391 0.943 0 0.215 0.051 0.418 0.141 0.598l-0.004-0.008 1.187 2.373-2.52 0.84c-0.529 0.182-0.902 0.674-0.907 1.253v4.001c0 0.001 0 0.002 0 0.003 0 0.584 0.375 1.080 0.897 1.26l0.009 0.003 2.52 0.84-1.187 2.373c-0.084 0.17-0.133 0.37-0.133 0.581 0 0.366 0.148 0.698 0.387 0.939l2.84 2.84c0.241 0.242 0.575 0.391 0.943 0.391 0.215 0 0.418-0.051 0.598-0.141l-0.008 0.004 2.373-1.187 0.84 2.52c0.183 0.532 0.68 0.907 1.263 0.907 0.001 0 0.002 0 0.004 0h4c0.001 0 0.002 0 0.003 0 0.584 0 1.080-0.375 1.26-0.897l0.003-0.009 0.84-2.52 2.373 1.187c0.167 0.081 0.364 0.129 0.572 0.129 0.364 0 0.694-0.146 0.935-0.383l2.84-2.84c0.242-0.241 0.391-0.575 0.391-0.943 0-0.215-0.051-0.418-0.141-0.598l0.004 0.008-1.187-2.373 2.52-0.84c0.529-0.182 0.902-0.674 0.907-1.253v-4.001c0-0.001 0-0.002 0-0.003 0-0.584-0.375-1.080-0.897-1.26l-0.009-0.003zM30.667 21.040l-1.6 0.533c-1.079 0.358-1.844 1.358-1.844 2.537 0 0.447 0.11 0.868 0.304 1.238l-0.007-0.015 0.76 1.52-1.467 1.467-1.48-0.8c-0.347-0.176-0.756-0.28-1.189-0.28-1.172 0-2.168 0.756-2.525 1.808l-0.006 0.019-0.533 1.6h-2.12l-0.533-1.6c-0.358-1.079-1.358-1.844-2.537-1.844-0.447 0-0.868 0.11-1.238 0.304l0.015-0.007-1.52 0.76-1.467-1.467 0.8-1.48c0.187-0.355 0.297-0.777 0.297-1.223 0-1.179-0.765-2.179-1.825-2.531l-0.019-0.005-1.6-0.533v-2.080l1.6-0.533c1.079-0.358 1.844-1.358 1.844-2.537 0-0.447-0.11-0.868-0.304-1.238l0.007 0.015-0.76-1.48 1.467-1.467 1.48 0.76c0.355 0.187 0.777 0.297 1.223 0.297 1.179 0 2.179-0.765 2.531-1.825l0.005-0.019 0.533-1.6h2.080l0.533 1.6c0.358 1.079 1.358 1.844 2.537 1.844 0.447 0 0.868-0.11 1.238-0.304l-0.015 0.007 1.52-0.76 1.467 1.467-0.8 1.48c-0.176 0.347-0.28 0.756-0.28 1.189 0 1.172 0.756 2.168 1.808 2.525l0.019 0.006 1.6 0.533zM20 14.667c-2.946 0-5.333 2.388-5.333 5.333s2.388 5.333 5.333 5.333c2.946 0 5.333-2.388 5.333-5.333v0c0-2.946-2.388-5.333-5.333-5.333v0zM20 22.667c-1.473 0-2.667-1.194-2.667-2.667s1.194-2.667 2.667-2.667c1.473 0 2.667 1.194 2.667 2.667v0c0 1.473-1.194 2.667-2.667 2.667v0z"></path>
</svg>
