<!-- Generated by IcoMoon.io -->
<svg version="1.1" xmlns="http://www.w3.org/2000/svg" width="40" height="40" viewBox="0 0 40 40">
<title>comment-slash</title>
<path d="M17.587 10.973c0.718-0.195 1.543-0.307 2.394-0.307 0.007 0 0.014 0 0.021 0h-0.001c5.155 0 9.333 4.179 9.333 9.333v0c0 0.006 0 0.013 0 0.020 0 0.851-0.112 1.675-0.322 2.46l0.015-0.066c-0.030 0.106-0.048 0.228-0.048 0.354 0 0.611 0.411 1.126 0.972 1.284l0.009 0.002c0.052 0.006 0.112 0.010 0.173 0.010s0.121-0.004 0.181-0.011l-0.007 0.001c0.014 0.001 0.030 0.001 0.046 0.001 0.613 0 1.13-0.414 1.286-0.978l0.002-0.009c0.229-0.873 0.361-1.874 0.361-2.907 0-0.056-0-0.112-0.001-0.168l0 0.009c0-6.627-5.373-12-12-12v0c-0.015-0-0.032-0-0.049-0-1.087 0-2.14 0.146-3.141 0.42l0.083-0.019c-0.551 0.172-0.944 0.678-0.944 1.275 0 0.13 0.019 0.255 0.053 0.374l-0.002-0.009c0.164 0.564 0.676 0.969 1.282 0.969 0.108 0 0.213-0.013 0.313-0.037l-0.009 0.002zM32.947 31.053l-24-24c-0.242-0.242-0.577-0.392-0.947-0.392-0.739 0-1.339 0.599-1.339 1.339 0 0.37 0.15 0.704 0.392 0.947v0l3.613 3.56c-1.637 2.034-2.627 4.648-2.627 7.493s0.99 5.46 2.645 7.517l-0.018-0.023-2.28 2.227c-0.238 0.241-0.384 0.571-0.384 0.936 0 0.187 0.038 0.364 0.108 0.526l-0.003-0.009c0.204 0.487 0.676 0.824 1.226 0.827h10.667c2.85-0.012 5.464-1.016 7.515-2.684l-0.022 0.017 3.56 3.573c0.242 0.244 0.577 0.394 0.947 0.394s0.705-0.151 0.947-0.394l0-0c0.232-0.24 0.375-0.566 0.375-0.927s-0.143-0.687-0.375-0.927l0 0zM20 29.333h-7.453l0.853-0.84c0.24-0.241 0.388-0.573 0.388-0.94s-0.148-0.699-0.388-0.94l0 0c-1.689-1.689-2.734-4.022-2.734-6.6 0-2.112 0.701-4.060 1.884-5.624l-0.017 0.023 13.053 13.053c-1.537 1.163-3.48 1.864-5.586 1.867h-0.001z"></path>
</svg>
