<!-- Generated by IcoMoon.io -->
<svg version="1.1" xmlns="http://www.w3.org/2000/svg" width="40" height="40" viewBox="0 0 40 40">
<title>comment-check</title>
<path d="M21.72 13.507c-0.244 0.242-0.394 0.577-0.394 0.947s0.151 0.705 0.394 0.947l2.56 2.56c0.242 0.244 0.577 0.394 0.947 0.394s0.705-0.151 0.947-0.394l5.44-5.44c0.302-0.246 0.492-0.618 0.492-1.035 0-0.736-0.597-1.333-1.333-1.333-0.426 0-0.806 0.2-1.050 0.512l-0.002 0.003-4.493 4.467-1.613-1.627c-0.242-0.244-0.577-0.394-0.947-0.394s-0.705 0.151-0.947 0.394l-0 0zM30.547 18.187c-0.685 0.061-1.218 0.633-1.218 1.328 0 0.039 0.002 0.078 0.005 0.117l-0-0.005c0.003 0.056 0.005 0.121 0.005 0.187s-0.002 0.131-0.005 0.196l0-0.009c0 5.155-4.179 9.333-9.333 9.333v0h-7.453l0.853-0.84c0.24-0.241 0.388-0.573 0.388-0.94s-0.148-0.699-0.388-0.94l0 0c-1.7-1.691-2.752-4.031-2.752-6.618 0-4.467 3.138-8.201 7.33-9.118l0.062-0.011c0.561-0.118 1.206-0.185 1.867-0.185s1.305 0.067 1.928 0.195l-0.061-0.011c0.080 0.017 0.172 0.026 0.267 0.026 0.751 0 1.36-0.609 1.36-1.36 0-0.657-0.465-1.204-1.084-1.332l-0.009-0.001c-0.724-0.152-1.555-0.24-2.407-0.24s-1.683 0.087-2.486 0.253l0.079-0.014c-5.468 1.224-9.493 6.037-9.493 11.789 0 0.004 0 0.008 0 0.011v-0.001c0.012 2.85 1.016 5.464 2.684 7.515l-0.017-0.022-2.28 2.227c-0.238 0.241-0.384 0.571-0.384 0.936 0 0.187 0.038 0.364 0.108 0.526l-0.003-0.009c0.204 0.487 0.676 0.824 1.226 0.827h10.667c6.627 0 12-5.373 12-12v0c0-0.2 0-0.387 0-0.587-0.054-0.692-0.629-1.232-1.329-1.232-0.044 0-0.087 0.002-0.129 0.006l0.005-0z"></path>
</svg>
