<!-- Generated by IcoMoon.io -->
<svg version="1.1" xmlns="http://www.w3.org/2000/svg" width="40" height="40" viewBox="0 0 40 40">
<title>comment-alt-check</title>
<path d="M13.027 16.2l7.253-7.253c0.242-0.242 0.392-0.577 0.392-0.947 0-0.739-0.599-1.339-1.339-1.339-0.37 0-0.704 0.15-0.947 0.392v0l-6.307 6.28-2.467-2.44c-0.242-0.242-0.577-0.392-0.947-0.392-0.739 0-1.339 0.599-1.339 1.339 0 0.37 0.15 0.704 0.392 0.947l3.413 3.413c0.242 0.244 0.577 0.394 0.947 0.394s0.705-0.151 0.947-0.394l0-0zM28.667 12h-7.333c-0.736 0-1.333 0.597-1.333 1.333s0.597 1.333 1.333 1.333v0h7.333c0.736 0 1.333 0.597 1.333 1.333v0 12.96l-2.093-1.933c-0.237-0.222-0.556-0.359-0.906-0.36h-11.667c-0.736 0-1.333-0.597-1.333-1.333v0-4.667c0-0.736-0.597-1.333-1.333-1.333s-1.333 0.597-1.333 1.333v0 4.667c0 2.209 1.791 4 4 4v0h11.147l4 3.64c0.237 0.222 0.556 0.359 0.906 0.36h0c0.193-0.002 0.376-0.041 0.543-0.11l-0.010 0.004c0.475-0.211 0.8-0.679 0.8-1.222 0-0.002 0-0.003 0-0.005v0-16c0-0 0-0 0-0 0-2.209-1.791-4-4-4-0.019 0-0.037 0-0.056 0l0.003-0z"></path>
</svg>
