<!-- Generated by IcoMoon.io -->
<svg version="1.1" xmlns="http://www.w3.org/2000/svg" width="40" height="40" viewBox="0 0 40 40">
<title>comment-alt-slash</title>
<path d="M18.213 12h8.453c0.736 0 1.333 0.597 1.333 1.333v0 8.453c0 0.736 0.597 1.333 1.333 1.333s1.333-0.597 1.333-1.333v0-8.453c0-2.209-1.791-4-4-4v0h-8.453c-0.736 0-1.333 0.597-1.333 1.333s0.597 1.333 1.333 1.333v0zM32.947 31.053l-24-24c-0.242-0.242-0.577-0.392-0.947-0.392-0.739 0-1.339 0.599-1.339 1.339 0 0.37 0.15 0.704 0.392 0.947v0l2.667 2.667c-0.244 0.502-0.387 1.092-0.387 1.716 0 0.001 0 0.003 0 0.004v-0 16c0.003 0.551 0.339 1.023 0.818 1.223l0.009 0.003c0.14 0.068 0.304 0.107 0.478 0.107 0.010 0 0.020-0 0.030-0l-0.001 0c0.002 0 0.005 0 0.008 0 0.366 0 0.698-0.148 0.939-0.387l-0 0 3.6-3.613h9.573l6.267 6.28c0.242 0.244 0.577 0.394 0.947 0.394s0.705-0.151 0.947-0.394l0-0c0.244-0.242 0.394-0.577 0.394-0.947s-0.151-0.705-0.394-0.947l-0-0zM14.667 24c-0.002 0-0.005-0-0.008-0-0.366 0-0.698 0.148-0.939 0.387l0-0-1.72 1.733v-12.24l10.12 10.12z"></path>
</svg>
