<!-- Generated by IcoMoon.io -->
<svg version="1.1" xmlns="http://www.w3.org/2000/svg" width="40" height="40" viewBox="0 0 40 40">
<title>comment-heart</title>
<path d="M20 15.133c-0.543-0.284-1.186-0.451-1.868-0.451-1.11 0-2.116 0.441-2.853 1.158l0.001-0.001c-0.723 0.724-1.17 1.723-1.17 2.827s0.447 2.103 1.17 2.827l-0-0 3.773 3.84c0.242 0.244 0.577 0.394 0.947 0.394s0.705-0.151 0.947-0.394l3.773-3.773c0.723-0.724 1.17-1.723 1.17-2.827s-0.447-2.103-1.17-2.827l0 0c-0.741-0.742-1.765-1.202-2.897-1.202-0.664 0-1.292 0.158-1.846 0.439l0.023-0.011zM22.827 19.613l-2.827 2.827-2.827-2.827c-0.244-0.242-0.394-0.577-0.394-0.947s0.151-0.705 0.394-0.947l0-0c0.241-0.24 0.573-0.388 0.94-0.388s0.699 0.148 0.94 0.388l-0-0c0.242 0.244 0.577 0.394 0.947 0.394s0.705-0.151 0.947-0.394l0-0c0.241-0.24 0.573-0.388 0.94-0.388s0.699 0.148 0.94 0.388l-0-0c0.244 0.242 0.394 0.577 0.394 0.947s-0.151 0.705-0.394 0.947l-0 0zM20 6.667c-7.364 0-13.333 5.97-13.333 13.333v0c-0 0.015-0 0.032-0 0.050 0 3.197 1.138 6.129 3.031 8.412l-0.018-0.022-2.667 2.667c-0.238 0.241-0.384 0.571-0.384 0.936 0 0.187 0.038 0.364 0.108 0.526l-0.003-0.009c0.217 0.461 0.677 0.774 1.211 0.774 0.020 0 0.039-0 0.059-0.001l-0.003 0h12c7.364 0 13.333-5.97 13.333-13.333s-5.97-13.333-13.333-13.333v0zM20 30.667h-8.787l1.24-1.24c0.24-0.241 0.388-0.573 0.388-0.94s-0.148-0.699-0.388-0.94l0 0c-1.933-1.931-3.128-4.599-3.128-7.547 0-5.891 4.776-10.667 10.667-10.667s10.667 4.776 10.667 10.667c0 5.888-4.771 10.662-10.658 10.667h-0z"></path>
</svg>
