<!-- Generated by IcoMoon.io -->
<svg version="1.1" xmlns="http://www.w3.org/2000/svg" width="40" height="40" viewBox="0 0 40 40">
<title>corner-up-right</title>
<path d="M30.147 13.667c-0.071-0.171-0.17-0.318-0.293-0.44l-6.173-6.173c-0.241-0.24-0.573-0.388-0.94-0.388s-0.699 0.148-0.94 0.388l0-0c-0.244 0.242-0.394 0.577-0.394 0.947s0.151 0.705 0.394 0.947l3.893 3.893h-10.667c-2.946 0-5.333 2.388-5.333 5.333v0 13.827c0 0.736 0.597 1.333 1.333 1.333s1.333-0.597 1.333-1.333v0-13.827c0-1.473 1.194-2.667 2.667-2.667v0h10.667l-3.893 3.893c-0.244 0.242-0.394 0.577-0.394 0.947 0 0.736 0.597 1.333 1.333 1.333 0.003 0 0.005 0 0.008-0h-0c0.366-0.005 0.695-0.157 0.933-0.4l0-0 6.173-6.16c0.119-0.129 0.218-0.279 0.289-0.443l0.004-0.010c0.062-0.148 0.097-0.32 0.097-0.5s-0.036-0.352-0.101-0.509l0.003 0.009z"></path>
</svg>
