<!-- Generated by IcoMoon.io -->
<svg version="1.1" xmlns="http://www.w3.org/2000/svg" width="40" height="40" viewBox="0 0 40 40">
<title>creative-commons-pd</title>
<path d="M20 6.667c-7.364 0-13.333 5.97-13.333 13.333s5.97 13.333 13.333 13.333c7.364 0 13.333-5.97 13.333-13.333v0c0-7.364-5.97-13.333-13.333-13.333v0zM20 30.667c-5.891 0-10.667-4.776-10.667-10.667v0c0-0.004 0-0.009 0-0.013 0-2.471 0.849-4.744 2.27-6.542l-0.017 0.022 3.147 3.16c-0.041 0.211-0.065 0.456-0.067 0.705v5.335c0 2.209 1.791 4 4 4v0h2.667c0.962-0.008 1.841-0.354 2.526-0.925l-0.006 0.005 2.667 2.667c-1.777 1.405-4.049 2.253-6.52 2.253v0zM17.333 22.667v-3.453l4.613 4.613c-0.175 0.107-0.386 0.171-0.613 0.173h-2.667c-0.736 0-1.333-0.597-1.333-1.333v0zM28.413 26.533l-3.080-3.16c0.010-0.106 0.015-0.229 0.015-0.353s-0.006-0.247-0.016-0.369l0.001 0.016c0-0.736-0.597-1.333-1.333-1.333v0c-0.227 0.002-0.438 0.066-0.619 0.176l0.005-0.003-5.333-5.333c0.175-0.107 0.386-0.171 0.613-0.173h2.667c0.736 0 1.333 0.597 1.333 1.333v0c0 0.736 0.597 1.333 1.333 1.333s1.333-0.597 1.333-1.333v0c0-2.209-1.791-4-4-4v0h-2.667c-0.962 0.008-1.841 0.354-2.526 0.925l0.006-0.005-2.667-2.667c1.777-1.405 4.049-2.253 6.52-2.253v0c5.891 0 10.667 4.776 10.667 10.667v0c0 0.004 0 0.009 0 0.013 0 2.471-0.849 4.744-2.27 6.542l0.017-0.022z"></path>
</svg>
