<!-- Generated by IcoMoon.io -->
<svg version="1.1" xmlns="http://www.w3.org/2000/svg" width="40" height="40" viewBox="0 0 40 40">
<title>crosshair</title>
<path d="M32 18.667h-1.427c-0.63-4.829-4.411-8.61-9.186-9.234l-0.054-0.006v-1.427c0-0.736-0.597-1.333-1.333-1.333s-1.333 0.597-1.333 1.333v0 1.427c-4.829 0.63-8.61 4.411-9.234 9.186l-0.006 0.054h-1.427c-0.736 0-1.333 0.597-1.333 1.333s0.597 1.333 1.333 1.333v0h1.427c0.63 4.829 4.411 8.61 9.186 9.234l0.054 0.006v1.427c0 0.736 0.597 1.333 1.333 1.333s1.333-0.597 1.333-1.333v0-1.427c4.829-0.63 8.61-4.411 9.234-9.186l0.006-0.054h1.427c0.736 0 1.333-0.597 1.333-1.333s-0.597-1.333-1.333-1.333v0zM26.667 21.333h1.213c-0.585 3.354-3.193 5.961-6.499 6.54l-0.048 0.007v-1.213c0-0.736-0.597-1.333-1.333-1.333s-1.333 0.597-1.333 1.333v0 1.213c-3.354-0.585-5.961-3.193-6.54-6.499l-0.007-0.048h1.213c0.736 0 1.333-0.597 1.333-1.333s-0.597-1.333-1.333-1.333v0h-1.213c0.585-3.354 3.193-5.961 6.499-6.54l0.048-0.007v1.213c0 0.736 0.597 1.333 1.333 1.333s1.333-0.597 1.333-1.333v0-1.213c3.354 0.585 5.961 3.193 6.54 6.499l0.007 0.048h-1.213c-0.736 0-1.333 0.597-1.333 1.333s0.597 1.333 1.333 1.333v0zM20 18.667c-0.736 0-1.333 0.597-1.333 1.333s0.597 1.333 1.333 1.333c0.736 0 1.333-0.597 1.333-1.333v0c0-0.736-0.597-1.333-1.333-1.333v0z"></path>
</svg>
