<!-- Generated by IcoMoon.io -->
<svg version="1.1" xmlns="http://www.w3.org/2000/svg" width="40" height="40" viewBox="0 0 40 40">
<title>desert</title>
<path d="M28 6.667c-2.946 0-5.333 2.388-5.333 5.333s2.388 5.333 5.333 5.333c2.946 0 5.333-2.388 5.333-5.333v0c0-2.946-2.388-5.333-5.333-5.333v0zM28 14.667c-1.473 0-2.667-1.194-2.667-2.667s1.194-2.667 2.667-2.667c1.473 0 2.667 1.194 2.667 2.667v0c0 1.473-1.194 2.667-2.667 2.667v0zM24 30.667h-2.667v-2.667c0-0.736-0.597-1.333-1.333-1.333s-1.333 0.597-1.333 1.333v0 2.667h-2.667v-4.507l4.6-2.307c0.437-0.224 0.732-0.671 0.733-1.186v-5.334c0-0.736-0.597-1.333-1.333-1.333s-1.333 0.597-1.333 1.333v0 4.507l-2.667 1.333v-8.507c0-0.736-0.597-1.333-1.333-1.333s-1.333 0.597-1.333 1.333v0 11.173l-2.667-1.333v-3.173c0-0.736-0.597-1.333-1.333-1.333s-1.333 0.597-1.333 1.333v0 4c0.002 0.516 0.296 0.963 0.726 1.183l0.008 0.004 4.6 2.307v1.84h-5.333c-0.736 0-1.333 0.597-1.333 1.333s0.597 1.333 1.333 1.333v0h16c0.736 0 1.333-0.597 1.333-1.333s-0.597-1.333-1.333-1.333v0z"></path>
</svg>
