<!-- Generated by IcoMoon.io -->
<svg version="1.1" xmlns="http://www.w3.org/2000/svg" width="40" height="40" viewBox="0 0 40 40">
<title>desktop-slash</title>
<path d="M18.213 12h9.787c0.736 0 1.333 0.597 1.333 1.333v0 8c0 0.003 0 0.006 0 0.009 0 0.244-0.069 0.471-0.19 0.663l0.003-0.005c-0.13 0.202-0.207 0.449-0.207 0.713 0 0.472 0.245 0.886 0.615 1.123l0.005 0.003c0.196 0.134 0.439 0.213 0.699 0.213 0.003 0 0.005 0 0.008-0h-0c0.468-0.001 0.88-0.243 1.117-0.608l0.003-0.005c0.385-0.596 0.613-1.324 0.613-2.105 0-0 0-0.001 0-0.001v0-8c0-2.209-1.791-4-4-4v0h-9.787c-0.736 0-1.333 0.597-1.333 1.333s0.597 1.333 1.333 1.333v0zM32.947 31.053l-24-24c-0.242-0.242-0.577-0.392-0.947-0.392-0.739 0-1.339 0.599-1.339 1.339 0 0.37 0.15 0.704 0.392 0.947v0l1.867 1.853c-0.569 0.682-0.915 1.567-0.92 2.532v8.001c0 2.209 1.791 4 4 4v0h6.667v2.667h-5.333c-0.736 0-1.333 0.597-1.333 1.333s0.597 1.333 1.333 1.333v0h13.333c0.568-0.006 1.051-0.367 1.237-0.871l0.003-0.009 3.147 3.16c0.242 0.244 0.577 0.394 0.947 0.394s0.705-0.151 0.947-0.394l0-0c0.244-0.242 0.394-0.577 0.394-0.947s-0.151-0.705-0.394-0.947l-0-0zM12 22.667c-0.736 0-1.333-0.597-1.333-1.333v0-8c0.004-0.225 0.062-0.436 0.163-0.62l-0.003 0.007 9.96 9.947zM21.333 28v-2.667h2.12l2.667 2.667z"></path>
</svg>
