<!-- Generated by IcoMoon.io -->
<svg version="1.1" xmlns="http://www.w3.org/2000/svg" width="40" height="40" viewBox="0 0 40 40">
<title>diamond</title>
<path d="M30.667 17.8l-7.707-9.88c-0.744-0.773-1.787-1.254-2.943-1.254-1.194 0-2.268 0.513-3.015 1.331l-0.003 0.003-7.667 9.8c-0.408 0.621-0.651 1.382-0.653 2.199v0.001c0.024 0.786 0.264 1.51 0.663 2.123l-0.010-0.016 0.080 0.093 7.653 9.88c0.731 0.773 1.763 1.253 2.908 1.253 0.009 0 0.018-0 0.027-0h-0.001c1.193-0.001 2.265-0.514 3.010-1.33l0.003-0.003 7.653-9.8c0.389-0.606 0.62-1.346 0.62-2.139 0-0.845-0.262-1.628-0.709-2.274l0.009 0.013zM28.573 20.653l-7.56 9.627c-0.263 0.243-0.615 0.391-1.003 0.391-0.336 0-0.646-0.112-0.894-0.301l0.004 0.003-7.587-9.747c-0.109-0.179-0.177-0.394-0.187-0.624l-0-0.003c0.002-0.218 0.051-0.424 0.137-0.609l-0.004 0.009 7.56-9.627c0.263-0.243 0.615-0.391 1.003-0.391 0.336 0 0.646 0.112 0.894 0.301l-0.004-0.003 7.507 9.707c0.133 0.203 0.213 0.452 0.213 0.72v0c-0.010 0.2-0.058 0.387-0.137 0.556l0.004-0.009z"></path>
</svg>
