<!-- Generated by IcoMoon.io -->
<svg version="1.1" xmlns="http://www.w3.org/2000/svg" width="40" height="40" viewBox="0 0 40 40">
<title>envelope-share</title>
<path d="M30.667 22.667c-0.736 0-1.333 0.597-1.333 1.333v0 5.333c0 0.736-0.597 1.333-1.333 1.333v0h-18.667c-0.736 0-1.333-0.597-1.333-1.333v0-12.787l7.84 7.853c0.722 0.716 1.716 1.159 2.813 1.16h0c1.125-0.006 2.142-0.463 2.88-1.2l2.293-2.293c0.242-0.242 0.392-0.577 0.392-0.947 0-0.739-0.599-1.339-1.339-1.339-0.37 0-0.704 0.15-0.947 0.392l-2.333 2.333c-0.24 0.236-0.57 0.381-0.933 0.381s-0.693-0.145-0.934-0.381l0 0-7.853-7.84h7.453c0.736 0 1.333-0.597 1.333-1.333s-0.597-1.333-1.333-1.333v0h-8c-2.209 0-4 1.791-4 4v0 13.333c0 2.209 1.791 4 4 4v0h18.667c2.209 0 4-1.791 4-4v0-5.333c0-0.736-0.597-1.333-1.333-1.333v0zM30.667 14.667c-0.592 0.002-1.139 0.197-1.58 0.525l0.007-0.005-2.333-1.067 2.573-1.173c0.38 0.234 0.839 0.377 1.331 0.387l0.003 0c1.473 0 2.667-1.194 2.667-2.667s-1.194-2.667-2.667-2.667c-1.473 0-2.667 1.194-2.667 2.667v0l-2.533 1.16c-0.408-0.294-0.915-0.476-1.463-0.493l-0.004-0c-1.473 0-2.667 1.194-2.667 2.667s1.194 2.667 2.667 2.667v0c0 0 0.001 0 0.001 0 0.45 0 0.873-0.119 1.238-0.326l-0.012 0.006 2.8 1.333c0.177 1.316 1.294 2.32 2.644 2.32 1.473 0 2.667-1.194 2.667-2.667s-1.194-2.667-2.667-2.667c-0.001 0-0.003 0-0.004 0h0z"></path>
</svg>
