<!-- Generated by IcoMoon.io -->
<svg version="1.1" xmlns="http://www.w3.org/2000/svg" width="40" height="40" viewBox="0 0 40 40">
<title>envelope-question</title>
<path d="M26.36 11.16c0.189 0.109 0.416 0.174 0.658 0.174 0.491 0 0.92-0.266 1.152-0.661l0.003-0.006c0.235-0.401 0.664-0.667 1.155-0.667 0.002 0 0.004 0 0.006 0h-0c0.736 0 1.333 0.597 1.333 1.333s-0.597 1.333-1.333 1.333v0c-0.736 0-1.333 0.597-1.333 1.333s0.597 1.333 1.333 1.333v0c2.208-0.001 3.997-1.792 3.997-4s-1.791-4-4-4c-1.473 0-2.76 0.796-3.454 1.981l-0.010 0.019c-0.113 0.192-0.18 0.422-0.18 0.668 0 0.493 0.268 0.924 0.667 1.155l0.006 0.003zM32 22c-0.736 0-1.333 0.597-1.333 1.333v0 5.333c0 0.736-0.597 1.333-1.333 1.333v0h-18.667c-0.736 0-1.333-0.597-1.333-1.333v0-12.787l7.84 7.853c0.724 0.723 1.723 1.17 2.827 1.17s2.103-0.447 2.827-1.17l2.187-2.187c0.242-0.242 0.392-0.577 0.392-0.947 0-0.739-0.599-1.339-1.339-1.339-0.37 0-0.704 0.15-0.947 0.392l-2.187 2.187c-0.24 0.236-0.57 0.381-0.933 0.381s-0.693-0.145-0.934-0.381l0 0-7.853-7.84h10.12c0.736 0 1.333-0.597 1.333-1.333s-0.597-1.333-1.333-1.333v0h-10.667c-2.209 0-4 1.791-4 4v0 13.333c0 2.209 1.791 4 4 4v0h18.667c2.209 0 4-1.791 4-4v0-5.333c0-0.736-0.597-1.333-1.333-1.333v0zM28.387 17.053c-0.244 0.242-0.394 0.577-0.394 0.947s0.151 0.705 0.394 0.947l0 0 0.2 0.16c0.069 0.048 0.148 0.088 0.233 0.118l0.007 0.002c0.069 0.036 0.15 0.064 0.235 0.079l0.005 0.001h0.267c0.002 0 0.005 0 0.008 0 0.736 0 1.333-0.597 1.333-1.333 0-0.37-0.151-0.705-0.394-0.947l-0-0c-0.24-0.236-0.57-0.381-0.933-0.381-0.377 0-0.717 0.156-0.959 0.408l-0 0z"></path>
</svg>
