<!-- Generated by IcoMoon.io -->
<svg version="1.1" xmlns="http://www.w3.org/2000/svg" width="40" height="40" viewBox="0 0 40 40">
<title>exclude</title>
<path d="M16.72 14.053h-1.333c-0.736 0-1.333 0.597-1.333 1.333v0 1.333c0 0.736 0.597 1.333 1.333 1.333s1.333-0.597 1.333-1.333v0c0.736 0 1.333-0.597 1.333-1.333s-0.597-1.333-1.333-1.333v0zM24.613 21.947c-0.736 0-1.333 0.597-1.333 1.333v0c-0.736 0-1.333 0.597-1.333 1.333s0.597 1.333 1.333 1.333v0h1.333c0.736 0 1.333-0.597 1.333-1.333v0-1.333c0-0.736-0.597-1.333-1.333-1.333v0zM32 14.053h-6.053v-6.053c0-0.736-0.597-1.333-1.333-1.333v0h-16.613c-0.736 0-1.333 0.597-1.333 1.333v0 16.613c0 0.736 0.597 1.333 1.333 1.333v0h6.053v6.053c0 0.736 0.597 1.333 1.333 1.333v0h16.613c0.736 0 1.333-0.597 1.333-1.333v0-16.613c0-0.736-0.597-1.333-1.333-1.333v0zM30.667 30.667h-13.947v-4.72c0.736 0 1.333-0.597 1.333-1.333s-0.597-1.333-1.333-1.333v0c0-0.736-0.597-1.333-1.333-1.333s-1.333 0.597-1.333 1.333v0h-4.72v-13.947h13.947v4.72c-0.736 0-1.333 0.597-1.333 1.333s0.597 1.333 1.333 1.333v0c0 0.736 0.597 1.333 1.333 1.333s1.333-0.597 1.333-1.333v0h4.72z"></path>
</svg>
