<!-- Generated by IcoMoon.io -->
<svg version="1.1" xmlns="http://www.w3.org/2000/svg" width="40" height="40" viewBox="0 0 40 40">
<title>filter-slash</title>
<path d="M29.627 12h-8.747c-0.736 0-1.333 0.597-1.333 1.333s0.597 1.333 1.333 1.333v0h8.747c0.574 0 1.040 0.466 1.040 1.040v0 1.040h-5.040c-0.736 0-1.333 0.597-1.333 1.333s0.597 1.333 1.333 1.333v0h3.16l-0.933 0.92c-0.244 0.242-0.394 0.577-0.394 0.947s0.151 0.705 0.394 0.947l0 0c0.242 0.244 0.577 0.394 0.947 0.394s0.705-0.151 0.947-0.394l2.507-2.507c0.299-0.298 0.542-0.652 0.712-1.045l0.008-0.022v-0.133c0.211-0.416 0.343-0.904 0.36-1.421l0-0.006v-1.333c0-0.012 0-0.026 0-0.040 0-2.050-1.658-3.713-3.706-3.72h-0.001zM8.947 7.053c-0.242-0.242-0.577-0.392-0.947-0.392-0.739 0-1.339 0.599-1.339 1.339 0 0.37 0.15 0.704 0.392 0.947v0l3.8 3.787c-0.925 0.669-1.52 1.744-1.52 2.959 0 0.005 0 0.010 0 0.015v-0.001 1.333c0 0.532 0.118 1.036 0.329 1.488l-0.009-0.022v0.080c0.18 0.419 0.423 0.777 0.721 1.081l-0.001-0.001 7.213 7.2v5.133c0 0.001 0 0.002 0 0.003 0 0.474 0.248 0.891 0.621 1.127l0.005 0.003c0.2 0.126 0.442 0.2 0.702 0.2 0.001 0 0.003 0 0.004 0h-0c0.219-0.001 0.426-0.055 0.607-0.15l-0.007 0.004 4.747-2.373c0.437-0.224 0.732-0.671 0.733-1.186v-2.667l6.013 6.027c0.242 0.244 0.577 0.394 0.947 0.394s0.705-0.151 0.947-0.394l0-0c0.244-0.242 0.394-0.577 0.394-0.947s-0.151-0.705-0.394-0.947l-0-0zM12 15.707c-0-0.002-0-0.005-0-0.008 0-0.435 0.274-0.806 0.66-0.95l0.007-0.002 0.12-0.080 2.080 2.080h-2.867zM22.76 25.427c-0.239 0.241-0.387 0.573-0.387 0.939 0 0.003 0 0.005 0 0.008v-0 2.427l-2.080 1.040v-3.467c0-0.002 0-0.005 0-0.008 0-0.366-0.148-0.698-0.387-0.939l0 0-6.027-6.013h3.653l5.627 5.627z"></path>
</svg>
