<!-- Generated by IcoMoon.io -->
<svg version="1.1" xmlns="http://www.w3.org/2000/svg" width="40" height="40" viewBox="0 0 40 40">
<title>folder-times</title>
<path d="M23.613 18.387c-0.242-0.244-0.577-0.394-0.947-0.394s-0.705 0.151-0.947 0.394l-0 0-1.72 1.733-1.72-1.733c-0.242-0.242-0.577-0.392-0.947-0.392-0.739 0-1.339 0.599-1.339 1.339 0 0.37 0.15 0.704 0.392 0.947v0l1.733 1.72-1.733 1.72c-0.244 0.242-0.394 0.577-0.394 0.947s0.151 0.705 0.394 0.947l0 0c0.242 0.244 0.577 0.394 0.947 0.394s0.705-0.151 0.947-0.394l0-0 1.72-1.733 1.72 1.733c0.242 0.244 0.577 0.394 0.947 0.394s0.705-0.151 0.947-0.394l0-0c0.244-0.242 0.394-0.577 0.394-0.947s-0.151-0.705-0.394-0.947l-0-0-1.733-1.72 1.733-1.72c0.244-0.242 0.394-0.577 0.394-0.947s-0.151-0.705-0.394-0.947l-0-0zM29.333 11.333h-8.373l-0.427-1.333c-0.566-1.567-2.040-2.667-3.771-2.667-0.005 0-0.011 0-0.016 0h-6.079c-2.209 0-4 1.791-4 4v0 17.333c0 2.209 1.791 4 4 4v0h18.667c2.209 0 4-1.791 4-4v0-13.333c0-2.209-1.791-4-4-4v0zM30.667 28.667c0 0.736-0.597 1.333-1.333 1.333v0h-18.667c-0.736 0-1.333-0.597-1.333-1.333v0-17.333c0-0.736 0.597-1.333 1.333-1.333v0h6.080c0.001 0 0.002 0 0.003 0 0.584 0 1.080 0.375 1.26 0.897l0.003 0.009 0.72 2.187c0.183 0.532 0.68 0.907 1.263 0.907 0.001 0 0.002 0 0.004 0h9.333c0.736 0 1.333 0.597 1.333 1.333v0z"></path>
</svg>
