<!-- Generated by IcoMoon.io -->
<svg version="1.1" xmlns="http://www.w3.org/2000/svg" width="40" height="40" viewBox="0 0 40 40">
<title>frown</title>
<path d="M15.147 24.44c-0.292 0.246-0.476 0.612-0.476 1.021 0 0.322 0.114 0.617 0.304 0.848l-0.002-0.002c0.246 0.296 0.615 0.482 1.026 0.482 0.326 0 0.624-0.117 0.856-0.311l-0.002 0.002c0.852-0.692 1.951-1.111 3.147-1.111s2.294 0.419 3.156 1.118l-0.009-0.007c0.229 0.192 0.528 0.309 0.854 0.309 0.412 0 0.78-0.187 1.025-0.48l0.002-0.002c0.188-0.228 0.302-0.524 0.302-0.846 0-0.409-0.184-0.775-0.474-1.019l-0.002-0.002c-1.316-1.064-3.009-1.709-4.853-1.709s-3.538 0.644-4.868 1.72l0.015-0.011zM16 18.667c0.736 0 1.333-0.597 1.333-1.333s-0.597-1.333-1.333-1.333c-0.736 0-1.333 0.597-1.333 1.333v0c0 0.736 0.597 1.333 1.333 1.333v0zM20 6.667c-7.364 0-13.333 5.97-13.333 13.333s5.97 13.333 13.333 13.333c7.364 0 13.333-5.97 13.333-13.333v0c0-7.364-5.97-13.333-13.333-13.333v0zM20 30.667c-5.891 0-10.667-4.776-10.667-10.667s4.776-10.667 10.667-10.667c5.891 0 10.667 4.776 10.667 10.667v0c0 5.891-4.776 10.667-10.667 10.667v0zM24 16c-0.736 0-1.333 0.597-1.333 1.333s0.597 1.333 1.333 1.333c0.736 0 1.333-0.597 1.333-1.333v0c0-0.736-0.597-1.333-1.333-1.333v0z"></path>
</svg>
