<!-- Generated by IcoMoon.io -->
<svg version="1.1" xmlns="http://www.w3.org/2000/svg" width="40" height="40" viewBox="0 0 40 40">
<title>github-alt</title>
<path d="M17.427 31.337c-0-0.736-0.597-1.333-1.333-1.333-0.085 0-0.169 0.008-0.25 0.023l0.008-0.001c-1.745 0.32-3.949 0.369-4.535-1.277-0.532-1.305-1.371-2.392-2.431-3.207l-0.018-0.013c-0.085-0.046-0.157-0.095-0.225-0.148l0.003 0.003c-0.196-0.506-0.677-0.858-1.241-0.861h-0.007c-0 0-0 0-0 0-0.734 0-1.329 0.593-1.333 1.326v0c-0.005 1.087 1.081 1.784 1.522 2.020 0.506 0.509 0.921 1.109 1.217 1.775l0.015 0.038c0.486 1.365 1.897 3.435 5.954 3.168 0.001 0.047 0.003 0.091 0.003 0.131l0.006 0.357c0 0.736 0.597 1.333 1.333 1.333s1.333-0.597 1.333-1.333v0l-0.006-0.424c-0.006-0.253-0.016-0.619-0.016-1.576zM31.65 11.169c0.042-0.167 0.084-0.352 0.12-0.56 0.055-0.361 0.087-0.778 0.087-1.202 0-1.15-0.232-2.246-0.652-3.244l0.021 0.055c-0.149-0.366-0.444-0.646-0.812-0.771l-0.009-0.003c-0.475-0.16-2.227-0.475-5.579 1.667-1.272-0.312-2.733-0.492-4.236-0.492s-2.964 0.179-4.362 0.517l0.126-0.026c-3.338-2.111-5.081-1.824-5.551-1.673-0.387 0.122-0.691 0.406-0.839 0.77l-0.003 0.009c-0.401 0.947-0.635 2.048-0.635 3.203 0 0.449 0.035 0.89 0.103 1.32l-0.006-0.048c0.033 0.171 0.068 0.328 0.104 0.473-1.045 1.38-1.674 3.126-1.674 5.019 0 0.031 0 0.061 0.001 0.091l-0-0.005c-0 0.029-0 0.064-0 0.098 0 0.398 0.021 0.792 0.061 1.179l-0.004-0.048c0.445 6.137 4.445 7.979 7.232 8.612-0.058 0.167-0.111 0.345-0.158 0.534-0.024 0.095-0.038 0.204-0.038 0.316 0 0.737 0.597 1.334 1.334 1.334 0.622 0 1.145-0.426 1.292-1.002l0.002-0.009c0.090-0.462 0.312-0.862 0.624-1.17l0-0c0.279-0.246 0.455-0.604 0.455-1.003 0-0.683-0.514-1.246-1.176-1.324l-0.006-0.001c-4.605-0.526-6.605-2.402-6.906-6.531-0.029-0.268-0.045-0.579-0.045-0.893 0-0.032 0-0.064 0.001-0.096l-0 0.005c-0-0.028-0.001-0.060-0.001-0.093 0-1.337 0.462-2.566 1.236-3.536l-0.009 0.011c0.087-0.114 0.173-0.215 0.263-0.311l-0.002 0.002c0.21-0.235 0.339-0.546 0.339-0.888 0-0.172-0.032-0.336-0.092-0.487l0.003 0.009c-0.081-0.208-0.152-0.456-0.202-0.712l-0.005-0.029c-0.039-0.245-0.061-0.529-0.061-0.817 0-0.475 0.061-0.936 0.175-1.375l-0.008 0.038c1.23 0.353 2.302 0.892 3.247 1.592l-0.027-0.019c0.21 0.141 0.468 0.226 0.746 0.226 0.127 0 0.251-0.018 0.367-0.051l-0.009 0.002c1.233-0.348 2.65-0.548 4.113-0.548 1.465 0 2.883 0.201 4.228 0.576l-0.11-0.026c0.106 0.030 0.228 0.048 0.355 0.048 0.281 0 0.542-0.086 0.757-0.234l-0.005 0.003c0.914-0.684 1.982-1.227 3.136-1.569l0.071-0.018c0.108 0.403 0.17 0.867 0.17 1.344 0 0.268-0.020 0.532-0.057 0.789l0.004-0.029c-0.054 0.307-0.133 0.579-0.235 0.839l0.010-0.029c-0.056 0.142-0.088 0.306-0.088 0.477 0 0.342 0.129 0.654 0.34 0.89l-0.001-0.001c0.103 0.116 0.206 0.241 0.298 0.358 0.75 0.932 1.204 2.129 1.204 3.433 0 0.047-0.001 0.095-0.002 0.142l0-0.007c0 0.019 0 0.042 0 0.066 0 0.342-0.018 0.68-0.054 1.012l0.004-0.041c-0.294 4.074-2.301 5.952-6.928 6.479-0.669 0.078-1.182 0.642-1.182 1.325 0 0.399 0.176 0.758 0.454 1.002l0.001 0.001c0.321 0.317 0.545 0.733 0.62 1.198l0.002 0.013c0.079 0.3 0.124 0.644 0.124 0.999 0 0.033-0 0.066-0.001 0.098l0-0.005v3.112c-0.013 0.863-0.013 1.51-0.013 1.807 0 0.736 0.597 1.333 1.333 1.333s1.333-0.597 1.333-1.333v0c0-0.289 0-0.923 0.013-1.786v-3.133c0.001-0.035 0.001-0.077 0.001-0.119 0-0.579-0.076-1.141-0.218-1.676l0.010 0.045c-0.051-0.227-0.105-0.413-0.167-0.595l0.012 0.040c4.145-0.707 7.26-4.272 7.26-8.565v-0c0.039-0.358 0.062-0.773 0.062-1.193 0-0.030-0-0.060-0-0.090l0 0.005c0.001-0.039 0.001-0.085 0.001-0.131 0-1.878-0.634-3.609-1.699-4.989l0.014 0.019z"></path>
</svg>
