<!-- Generated by IcoMoon.io -->
<svg version="1.1" xmlns="http://www.w3.org/2000/svg" width="40" height="40" viewBox="0 0 40 40">
<title>glass</title>
<path d="M30.333 7.107c-0.245-0.271-0.598-0.44-0.99-0.44-0.004 0-0.007 0-0.011 0h-18.666c-0.003-0-0.007-0-0.010-0-0.392 0-0.745 0.169-0.989 0.439l-0.001 0.001c-0.212 0.235-0.342 0.548-0.342 0.891 0 0.052 0.003 0.104 0.009 0.155l-0.001-0.006 2.4 21.627c0.229 2.012 1.922 3.56 3.976 3.56 0.009 0 0.017-0 0.026-0h8.559c0.007 0 0.016 0 0.024 0 2.054 0 3.747-1.548 3.974-3.542l0.002-0.018 2.373-21.627c0.005-0.045 0.008-0.096 0.008-0.149 0-0.343-0.13-0.656-0.343-0.892l0.001 0.001zM25.6 29.48c-0.076 0.671-0.641 1.187-1.325 1.187-0.003 0-0.006 0-0.009-0h-8.546c-0.002 0-0.005 0-0.008 0-0.685 0-1.249-0.516-1.325-1.181l-0.001-0.006-1.347-12.147h13.92zM27.253 14.667h-14.507l-0.587-5.333h15.68z"></path>
</svg>
