<!-- Generated by IcoMoon.io -->
<svg version="1.1" xmlns="http://www.w3.org/2000/svg" width="40" height="40" viewBox="0 0 40 40">
<title>heartbeat</title>
<path d="M32 17.88h-3.333c-0.371 0.002-0.706 0.154-0.946 0.4l-0 0-1.653 1.72-3.733-4.253c-0.244-0.26-0.59-0.422-0.973-0.422s-0.729 0.162-0.973 0.421l-0.001 0.001-2.267 2.267h-2.12c-0.736 0-1.333 0.597-1.333 1.333s0.597 1.333 1.333 1.333v0h2.667c0.002 0 0.005 0 0.008 0 0.366 0 0.698-0.148 0.939-0.387l-0 0 1.72-1.787 3.733 4.253c0.236 0.269 0.577 0.441 0.958 0.453l0.002 0c0.002 0 0.005 0 0.008 0 0.366 0 0.698-0.148 0.939-0.387l-0 0 2.267-2.28h2.76c0.736 0 1.333-0.597 1.333-1.333s-0.597-1.333-1.333-1.333v0zM22.147 24.947l-2.533 2.533c-0.242 0.244-0.577 0.394-0.947 0.394s-0.705-0.151-0.947-0.394l-6.947-6.947c-0.891-0.89-1.442-2.121-1.442-3.48s0.551-2.59 1.442-3.48l0-0c0.89-0.887 2.118-1.435 3.473-1.435s2.584 0.548 3.473 1.436l-0-0c0.242 0.244 0.577 0.394 0.947 0.394s0.705-0.151 0.947-0.394l0-0c0.902-0.859 2.126-1.388 3.473-1.388s2.571 0.529 3.475 1.39l-0.002-0.002c0.29 0.293 0.545 0.621 0.76 0.976l0.013 0.024c0.245 0.334 0.637 0.549 1.078 0.549 0.736 0 1.333-0.597 1.333-1.333 0-0.199-0.044-0.388-0.122-0.557l0.003 0.008c-0.347-0.57-0.735-1.064-1.174-1.507l0.001 0.001c-1.374-1.389-3.279-2.25-5.386-2.25-1.651 0-3.178 0.528-4.423 1.425l0.022-0.015c-1.227-0.893-2.764-1.428-4.427-1.428-4.183 0-7.573 3.391-7.573 7.573 0 0.005 0 0.011 0 0.016v-0.001c0 0.001 0 0.002 0 0.003 0 2.085 0.852 3.971 2.226 5.33l6.947 6.947c0.724 0.723 1.723 1.17 2.827 1.17s2.103-0.447 2.827-1.17l2.507-2.507c0.24-0.241 0.388-0.573 0.388-0.94s-0.148-0.699-0.388-0.94l0 0c-0.24-0.232-0.566-0.375-0.927-0.375s-0.687 0.143-0.927 0.375l0-0z"></path>
</svg>
