<!-- Generated by IcoMoon.io -->
<svg version="1.1" xmlns="http://www.w3.org/2000/svg" width="40" height="40" viewBox="0 0 40 40">
<title>image-download</title>
<path d="M34.28 12.387c-0.242-0.244-0.577-0.394-0.947-0.394s-0.705 0.151-0.947 0.394l-0 0-1.72 1.733v-7.453c0-0.736-0.597-1.333-1.333-1.333s-1.333 0.597-1.333 1.333v0 7.453l-1.72-1.733c-0.242-0.242-0.577-0.392-0.947-0.392-0.739 0-1.339 0.599-1.339 1.339 0 0.37 0.15 0.704 0.392 0.947l4 4c0.123 0.118 0.269 0.213 0.431 0.277l0.009 0.003c0.149 0.068 0.323 0.107 0.507 0.107s0.358-0.039 0.515-0.11l-0.008 0.003c0.171-0.067 0.317-0.162 0.44-0.28l-0 0 4-4c0.244-0.242 0.394-0.577 0.394-0.947s-0.151-0.705-0.394-0.947l-0-0zM29.333 21.333c-0.736 0-1.333 0.597-1.333 1.333v0 0.507l-1.973-1.973c-0.672-0.667-1.598-1.079-2.62-1.079s-1.948 0.412-2.62 1.079l-0.933 0.933-3.307-3.307c-0.68-0.649-1.604-1.048-2.62-1.048s-1.94 0.399-2.622 1.049l0.002-0.001-1.973 1.973v-7.467c0-0.736 0.597-1.333 1.333-1.333v0h10.667c0.736 0 1.333-0.597 1.333-1.333s-0.597-1.333-1.333-1.333v0h-10.667c-2.209 0-4 1.791-4 4v0 16c0 2.209 1.791 4 4 4v0h16c2.209 0 4-1.791 4-4v0-6.667c0-0.736-0.597-1.333-1.333-1.333v0zM10.667 30.667c-0.736 0-1.333-0.597-1.333-1.333v0-4.76l3.867-3.867c0.189-0.18 0.445-0.291 0.727-0.291s0.538 0.111 0.727 0.291l9.96 9.96zM28 29.333c-0.002 0.267-0.092 0.512-0.242 0.71l0.002-0.003-6.013-6.040 0.933-0.933c0.186-0.19 0.446-0.308 0.733-0.308s0.547 0.118 0.733 0.308l0 0 3.853 3.88z"></path>
</svg>
