<!-- Generated by IcoMoon.io -->
<svg version="1.1" xmlns="http://www.w3.org/2000/svg" width="40" height="40" viewBox="0 0 40 40">
<title>instagram-alt</title>
<path d="M20 16.693c-1.826 0-3.307 1.48-3.307 3.307s1.48 3.307 3.307 3.307c1.826 0 3.307-1.48 3.307-3.307v0c0-1.826-1.48-3.307-3.307-3.307v0zM33.24 13.427c-0.008-1.085-0.212-2.119-0.58-3.073l0.020 0.059c-0.553-1.43-1.663-2.54-3.057-3.081l-0.036-0.012c-0.894-0.348-1.929-0.552-3.010-0.56l-0.003-0c-1.72-0.093-2.227-0.093-6.573-0.093s-4.853 0-6.573 0.093c-1.085 0.008-2.119 0.212-3.073 0.58l0.059-0.020c-1.43 0.553-2.54 1.663-3.081 3.057l-0.012 0.036c-0.348 0.894-0.552 1.929-0.56 3.010l-0 0.003c-0.093 1.72-0.093 2.227-0.093 6.573s0 4.853 0.093 6.573c0.016 1.090 0.22 2.129 0.581 3.090l-0.021-0.063c0.281 0.729 0.694 1.352 1.213 1.866l0 0c0.517 0.523 1.145 0.936 1.844 1.201l0.036 0.012c0.894 0.348 1.929 0.552 3.010 0.56l0.003 0c1.72 0.093 2.227 0.093 6.573 0.093s4.853 0 6.573-0.093c1.085-0.008 2.119-0.212 3.073-0.58l-0.059 0.020c0.735-0.278 1.363-0.691 1.88-1.213l0-0c0.52-0.515 0.932-1.137 1.201-1.831l0.012-0.036c0.347-0.898 0.552-1.937 0.56-3.023l0-0.003c0.093-1.72 0.093-2.227 0.093-6.573s0-4.853-0.093-6.573zM29.853 24.093c-0.047 0.875-0.233 1.693-0.538 2.451l0.018-0.051c-0.534 1.296-1.544 2.306-2.806 2.828l-0.034 0.013c-0.714 0.271-1.54 0.44-2.402 0.466l-0.011 0c-1.053 0-1.333 0-4.080 0s-3.027 0-4.080 0c-0.873-0.026-1.699-0.195-2.466-0.484l0.053 0.017c-0.686-0.259-1.269-0.65-1.745-1.145l-0.001-0.002c-0.471-0.466-0.843-1.031-1.083-1.661l-0.011-0.032c-0.273-0.716-0.438-1.543-0.453-2.407l-0-0.007c0-1.053 0-1.333 0-4.080s0-3.027 0-4.080c0.015-0.87 0.18-1.698 0.47-2.464l-0.017 0.050c0.259-0.686 0.65-1.269 1.145-1.745l0.002-0.001c0.468-0.468 1.032-0.839 1.661-1.082l0.033-0.011c0.714-0.271 1.54-0.44 2.402-0.466l0.011-0c1.053 0 1.333 0 4.080 0s3.027 0 4.080 0c0.873 0.026 1.699 0.195 2.466 0.484l-0.053-0.017c0.686 0.259 1.269 0.65 1.745 1.145l0.001 0.002c0.471 0.466 0.843 1.031 1.083 1.661l0.011 0.032c0.271 0.714 0.44 1.54 0.466 2.402l0 0.011c0 1.053 0 1.333 0 4.080s0.093 3.027 0.053 4.080zM27.72 14.173c-0.329-0.874-1.006-1.551-1.858-1.873l-0.022-0.007c-0.521-0.186-1.121-0.294-1.747-0.294-0.033 0-0.066 0-0.098 0.001l0.005-0c-1.040 0-1.333 0-4 0s-2.96 0-4 0c-0.663 0.007-1.294 0.133-1.876 0.359l0.036-0.012c-0.862 0.314-1.536 0.966-1.872 1.792l-0.008 0.021c-0.178 0.527-0.281 1.134-0.281 1.765 0 0.026 0 0.053 0.001 0.079l-0-0.004c0 1.040 0 1.333 0 4s0 2.96 0 4c0.014 0.664 0.14 1.295 0.36 1.879l-0.013-0.039c0.329 0.874 1.006 1.551 1.858 1.873l0.022 0.007c0.525 0.199 1.131 0.324 1.764 0.346l0.010 0c1.040 0 1.333 0 4 0s2.96 0 4 0c0.663-0.007 1.294-0.133 1.876-0.359l-0.036 0.012c0.874-0.329 1.551-1.006 1.873-1.858l0.007-0.022c0.213-0.546 0.34-1.177 0.347-1.837l0-0.003c0-1.040 0-1.333 0-4s0-2.96 0-4c0-0.001 0-0.002 0-0.003 0-0.661-0.127-1.292-0.359-1.871l0.012 0.034zM20 25.093c0 0 0 0-0 0-2.806 0-5.080-2.274-5.080-5.080 0-0.005 0-0.009 0-0.014v0.001c0-2.813 2.28-5.093 5.093-5.093s5.093 2.28 5.093 5.093c0 2.813-2.28 5.093-5.093 5.093-0.005 0-0.009 0-0.014-0h0.001zM25.333 15.907c-0.606-0.066-1.074-0.575-1.074-1.193s0.468-1.127 1.068-1.193l0.005-0c0.606 0.066 1.074 0.575 1.074 1.193s-0.468 1.127-1.068 1.193l-0.005 0z"></path>
</svg>
