<!-- Generated by IcoMoon.io -->
<svg version="1.1" xmlns="http://www.w3.org/2000/svg" width="40" height="40" viewBox="0 0 40 40">
<title>jackhammer</title>
<path d="M29.133 24.92c-0.241-0.24-0.573-0.388-0.94-0.388s-0.699 0.148-0.94 0.388l-2.747 2.747c-0.239 0.241-0.387 0.573-0.387 0.939 0 0.613 0.414 1.13 0.977 1.285l0.009 0.002 0.347 0.093-1.067 1.067c-0.244 0.242-0.394 0.577-0.394 0.947s0.151 0.705 0.394 0.947l0 0c0.242 0.244 0.577 0.394 0.947 0.394s0.705-0.151 0.947-0.394l2.667-2.667c0.248-0.242 0.402-0.58 0.402-0.954 0-0.135-0.020-0.266-0.058-0.389l0.002 0.009c-0.126-0.463-0.483-0.821-0.937-0.944l-0.356-0.082 1.107-1.12c0.248-0.242 0.401-0.58 0.401-0.953 0-0.36-0.143-0.687-0.375-0.927l0 0zM14.547 29.987l0.347-0.093c0.573-0.158 0.987-0.674 0.987-1.288 0-0.366-0.148-0.698-0.387-0.939l-2.747-2.747c-0.232-0.199-0.535-0.321-0.867-0.321-0.736 0-1.333 0.597-1.333 1.333 0 0.332 0.121 0.636 0.322 0.869l-0.001-0.002 1.107 1.12-0.347 0.080c-0.463 0.126-0.821 0.483-0.944 0.937l-0.002 0.009c-0.035 0.114-0.055 0.244-0.055 0.379 0 0.374 0.154 0.712 0.402 0.954l2.667 2.667c0.242 0.244 0.577 0.394 0.947 0.394s0.705-0.151 0.947-0.394l0-0c0.244-0.242 0.394-0.577 0.394-0.947s-0.151-0.705-0.394-0.947l-0-0zM32 9.333c-0.736 0-1.333 0.597-1.333 1.333v0h-4c0-2.209-1.791-4-4-4v0h-5.333c-2.209 0-4 1.791-4 4v0h-4c0-0.736-0.597-1.333-1.333-1.333s-1.333 0.597-1.333 1.333v0 2.667c0 0.736 0.597 1.333 1.333 1.333s1.333-0.597 1.333-1.333v0h4v2.667c0 0.001 0 0.001 0 0.002 0 1.731 1.1 3.206 2.639 3.762l0.028 0.009v1.56c0 1.473 1.194 2.667 2.667 2.667v0 8c0 0.736 0.597 1.333 1.333 1.333s1.333-0.597 1.333-1.333v0-8c1.473 0 2.667-1.194 2.667-2.667v0-1.56c1.567-0.566 2.667-2.040 2.667-3.771 0-0.001 0-0.001 0-0.002v0-2.667h4c0 0.736 0.597 1.333 1.333 1.333s1.333-0.597 1.333-1.333v0-2.667c0-0.736-0.597-1.333-1.333-1.333v0zM24 16c0 0.736-0.597 1.333-1.333 1.333v0c-0.736 0-1.333 0.597-1.333 1.333v0 2.667h-2.667v-2.667c0-0.736-0.597-1.333-1.333-1.333v0c-0.736 0-1.333-0.597-1.333-1.333v0-5.333c0-0.736 0.597-1.333 1.333-1.333v0h5.333c0.736 0 1.333 0.597 1.333 1.333v0zM20 12c-0.736 0-1.333 0.597-1.333 1.333v0 1.333c0 0.736 0.597 1.333 1.333 1.333s1.333-0.597 1.333-1.333v0-1.333c0-0.736-0.597-1.333-1.333-1.333v0z"></path>
</svg>
