<!-- Generated by IcoMoon.io -->
<svg version="1.1" xmlns="http://www.w3.org/2000/svg" width="40" height="40" viewBox="0 0 40 40">
<title>keyboard-alt</title>
<path d="M12.947 16.387c-0.242-0.244-0.577-0.394-0.947-0.394s-0.705 0.151-0.947 0.394l-0 0c-0.118 0.123-0.213 0.269-0.277 0.431l-0.003 0.009c-0.066 0.153-0.104 0.33-0.104 0.517 0 0.365 0.147 0.696 0.384 0.937l-0-0c0.125 0.114 0.271 0.208 0.43 0.276l0.010 0.004c0.14 0.068 0.304 0.107 0.478 0.107 0.010 0 0.020-0 0.030-0l-0.001 0c0.734-0.004 1.327-0.599 1.327-1.333 0-0.183-0.037-0.357-0.103-0.515l0.003 0.009c-0.067-0.171-0.162-0.317-0.28-0.44l0 0zM17.333 18.667c0.734-0.004 1.327-0.599 1.327-1.333 0-0.183-0.037-0.357-0.103-0.515l0.003 0.009c-0.067-0.171-0.162-0.317-0.28-0.44l0 0c-0.243-0.252-0.583-0.408-0.96-0.408-0.085 0-0.168 0.008-0.248 0.023l0.008-0.001c-0.095 0.014-0.18 0.042-0.258 0.082l0.004-0.002-0.24 0.12-0.2 0.16c-0.239 0.251-0.387 0.591-0.387 0.966 0 0.003 0 0.005 0 0.008v-0c0 0.736 0.597 1.333 1.333 1.333v0zM12.507 21.44c-0.15-0.063-0.324-0.1-0.507-0.1s-0.357 0.037-0.515 0.103l0.009-0.003c-0.487 0.204-0.824 0.676-0.827 1.226v0c0.004 0.734 0.599 1.327 1.333 1.327 0.183 0 0.357-0.037 0.515-0.103l-0.009 0.003c0.169-0.072 0.315-0.166 0.441-0.281l-0.001 0.001c0.239-0.241 0.387-0.573 0.387-0.939 0-0.003 0-0.005-0-0.008v0c0-0.002 0-0.005 0-0.008 0-0.366-0.148-0.698-0.387-0.939l0 0c-0.122-0.12-0.268-0.215-0.431-0.277l-0.009-0.003zM22.667 21.333h-5.333c-0.736 0-1.333 0.597-1.333 1.333s0.597 1.333 1.333 1.333v0h5.333c0.736 0 1.333-0.597 1.333-1.333s-0.597-1.333-1.333-1.333v0zM23.613 16.387c-0.242-0.244-0.577-0.394-0.947-0.394s-0.705 0.151-0.947 0.394l-0 0c-0.118 0.123-0.213 0.269-0.277 0.431l-0.003 0.009c-0.067 0.154-0.107 0.334-0.107 0.522 0 0.736 0.597 1.333 1.333 1.333s1.333-0.597 1.333-1.333c0-0.006-0-0.011-0-0.016v0.001c0-0.009 0-0.019 0-0.029 0-0.174-0.039-0.338-0.11-0.485l0.003 0.007c-0.067-0.171-0.162-0.317-0.28-0.44l0 0zM28.747 21.56c-0.069-0.048-0.148-0.088-0.233-0.118l-0.007-0.002c-0.15-0.063-0.324-0.1-0.507-0.1s-0.357 0.037-0.515 0.103l0.009-0.003c-0.169 0.072-0.315 0.166-0.441 0.281l0.001-0.001c-0.235 0.246-0.381 0.579-0.387 0.946v0.001c0 0.736 0.597 1.333 1.333 1.333s1.333-0.597 1.333-1.333v0c-0.005-0.368-0.152-0.701-0.387-0.947l0.001 0.001zM30.667 10.667h-21.333c-2.209 0-4 1.791-4 4v0 10.667c0 2.209 1.791 4 4 4v0h21.333c2.209 0 4-1.791 4-4v0-10.667c0-2.209-1.791-4-4-4v0zM32 25.333c0 0.736-0.597 1.333-1.333 1.333v0h-21.333c-0.736 0-1.333-0.597-1.333-1.333v0-10.667c0-0.736 0.597-1.333 1.333-1.333v0h21.333c0.736 0 1.333 0.597 1.333 1.333v0zM28.947 16.387c-0.242-0.244-0.577-0.394-0.947-0.394-0.736 0-1.333 0.597-1.333 1.333 0 0.003 0 0.005 0 0.008v-0c-0 0.005-0 0.010-0 0.016 0 0.736 0.597 1.333 1.333 1.333s1.333-0.597 1.333-1.333c0-0.189-0.039-0.368-0.11-0.531l0.003 0.009c-0.067-0.171-0.162-0.317-0.28-0.44l0 0z"></path>
</svg>
