<!-- Generated by IcoMoon.io -->
<svg version="1.1" xmlns="http://www.w3.org/2000/svg" width="40" height="40" viewBox="0 0 40 40">
<title>keyboard-hide</title>
<path d="M12.947 17.72c-0.125-0.114-0.271-0.208-0.43-0.276l-0.010-0.004c-0.153-0.066-0.33-0.104-0.517-0.104-0.365 0-0.696 0.147-0.937 0.384l0-0c-0.118 0.123-0.213 0.269-0.277 0.431l-0.003 0.009c-0.066 0.153-0.104 0.33-0.104 0.517 0 0.365 0.147 0.696 0.384 0.937l-0-0c0.125 0.114 0.271 0.208 0.43 0.276l0.010 0.004c0.147 0.060 0.317 0.095 0.495 0.095 0.736 0 1.333-0.597 1.333-1.333 0-0.179-0.035-0.349-0.099-0.504l0.003 0.009c-0.067-0.171-0.162-0.317-0.28-0.44l0 0zM16.387 14.28c0.241 0.239 0.573 0.387 0.939 0.387 0.003 0 0.005 0 0.008-0h-0c0.009 0 0.019 0 0.029 0 0.174 0 0.338-0.039 0.485-0.11l-0.007 0.003c0.169-0.072 0.315-0.166 0.441-0.281l-0.001 0.001c0.114-0.125 0.208-0.271 0.276-0.43l0.004-0.010c0.068-0.149 0.107-0.323 0.107-0.507s-0.039-0.358-0.11-0.515l0.003 0.008c-0.072-0.169-0.166-0.315-0.281-0.441l0.001 0.001c-0.242-0.244-0.577-0.394-0.947-0.394s-0.705 0.151-0.947 0.394l-0 0c-0.114 0.125-0.208 0.271-0.276 0.43l-0.004 0.010c-0.068 0.149-0.107 0.323-0.107 0.507s0.039 0.358 0.11 0.515l-0.003-0.008c0.072 0.169 0.166 0.315 0.281 0.441l-0.001-0.001zM12.947 12.387c-0.242-0.244-0.577-0.394-0.947-0.394-0.736 0-1.333 0.597-1.333 1.333 0 0.003 0 0.005 0 0.008v-0c0.002 0.184 0.041 0.357 0.11 0.515l-0.003-0.009c0.072 0.169 0.166 0.315 0.281 0.441l-0.001-0.001c0.241 0.239 0.573 0.387 0.939 0.387 0.003 0 0.005 0 0.008-0h-0c0.009 0 0.019 0 0.029 0 0.174 0 0.338-0.039 0.485-0.11l-0.007 0.003c0.169-0.072 0.315-0.166 0.441-0.281l-0.001 0.001c0.114-0.125 0.208-0.271 0.276-0.43l0.004-0.010c0.068-0.149 0.107-0.323 0.107-0.507s-0.039-0.358-0.11-0.515l0.003 0.008c-0.072-0.169-0.166-0.315-0.281-0.441l0.001 0.001zM21.72 28.387l-1.72 1.733-1.72-1.733c-0.242-0.242-0.577-0.392-0.947-0.392-0.739 0-1.339 0.599-1.339 1.339 0 0.37 0.15 0.704 0.392 0.947l2.667 2.667c0.242 0.244 0.577 0.394 0.947 0.394s0.705-0.151 0.947-0.394l2.667-2.667c0.242-0.242 0.392-0.577 0.392-0.947 0-0.739-0.599-1.339-1.339-1.339-0.37 0-0.704 0.15-0.947 0.392v0zM28.947 12.387c-0.242-0.244-0.577-0.394-0.947-0.394-0.736 0-1.333 0.597-1.333 1.333 0 0.003 0 0.005 0 0.008v-0c-0 0.009-0 0.019-0 0.029 0 0.174 0.039 0.338 0.11 0.485l-0.003-0.007c0.072 0.169 0.166 0.315 0.281 0.441l-0.001-0.001c0.242 0.244 0.577 0.394 0.947 0.394s0.705-0.151 0.947-0.394l0-0c0.114-0.125 0.208-0.271 0.276-0.43l0.004-0.010c0.068-0.14 0.107-0.304 0.107-0.478 0-0.010-0-0.020-0-0.030l0 0.001c-0.002-0.184-0.041-0.357-0.11-0.515l0.003 0.009c-0.072-0.169-0.166-0.315-0.281-0.441l0.001 0.001zM22.667 17.333h-5.333c-0.736 0-1.333 0.597-1.333 1.333s0.597 1.333 1.333 1.333v0h5.333c0.736 0 1.333-0.597 1.333-1.333s-0.597-1.333-1.333-1.333v0zM30.667 6.667h-21.333c-2.209 0-4 1.791-4 4v0 10.667c0 2.209 1.791 4 4 4v0h21.333c2.209 0 4-1.791 4-4v0-10.667c0-2.209-1.791-4-4-4v0zM32 21.333c0 0.736-0.597 1.333-1.333 1.333v0h-21.333c-0.736 0-1.333-0.597-1.333-1.333v0-10.667c0-0.736 0.597-1.333 1.333-1.333v0h21.333c0.736 0 1.333 0.597 1.333 1.333v0zM28.947 17.72c-0.123-0.118-0.269-0.213-0.431-0.277l-0.009-0.003c-0.149-0.069-0.323-0.11-0.507-0.11s-0.358 0.040-0.514 0.113l0.008-0.003c-0.169 0.072-0.315 0.166-0.441 0.281l0.001-0.001c-0.235 0.246-0.381 0.579-0.387 0.946v0.001c-0 0.005-0 0.010-0 0.016 0 0.736 0.597 1.333 1.333 1.333s1.333-0.597 1.333-1.333c0-0.189-0.039-0.368-0.11-0.531l0.003 0.009c-0.067-0.171-0.162-0.317-0.28-0.44l0 0zM22.16 12.107c-0.169 0.072-0.315 0.166-0.441 0.281l0.001-0.001c-0.235 0.246-0.381 0.579-0.387 0.946v0.001c0.002 0.184 0.041 0.357 0.11 0.515l-0.003-0.009c0.072 0.169 0.166 0.315 0.281 0.441l-0.001-0.001c0.241 0.239 0.573 0.387 0.939 0.387 0.003 0 0.005 0 0.008-0h-0c0.009 0 0.019 0 0.029 0 0.174 0 0.338-0.039 0.485-0.11l-0.007 0.003c0.169-0.072 0.315-0.166 0.441-0.281l-0.001 0.001c0.114-0.125 0.208-0.271 0.276-0.43l0.004-0.010c0.068-0.14 0.107-0.304 0.107-0.478 0-0.010-0-0.020-0-0.030l0 0.001c-0.005-0.368-0.152-0.701-0.387-0.947l0.001 0.001c-0.241-0.238-0.571-0.384-0.936-0.384-0.187 0-0.364 0.038-0.526 0.108l0.009-0.003z"></path>
</svg>
