<!-- Generated by IcoMoon.io -->
<svg version="1.1" xmlns="http://www.w3.org/2000/svg" width="40" height="40" viewBox="0 0 40 40">
<title>label-alt</title>
<path d="M24 20c0 0.736 0.597 1.333 1.333 1.333s1.333-0.597 1.333-1.333c0-0.736-0.597-1.333-1.333-1.333v0c-0.736 0-1.333 0.597-1.333 1.333v0zM32.947 19.053l-6.667-6.667c-0.241-0.239-0.573-0.387-0.939-0.387-0.003 0-0.005 0-0.008 0h-14.666c-2.209 0-4 1.791-4 4v0 8c0 2.209 1.791 4 4 4v0h14.667c0.002 0 0.005 0 0.008 0 0.366 0 0.698-0.148 0.939-0.387l6.667-6.667c0.244-0.242 0.394-0.577 0.394-0.947s-0.151-0.705-0.394-0.947l-0-0zM24.787 25.333h-14.12c-0.736 0-1.333-0.597-1.333-1.333v0-8c0-0.736 0.597-1.333 1.333-1.333v0h14.12l5.333 5.333z"></path>
</svg>
