<!-- Generated by IcoMoon.io -->
<svg version="1.1" xmlns="http://www.w3.org/2000/svg" width="40" height="40" viewBox="0 0 40 40">
<title>layers-alt</title>
<path d="M32 6.667h-16c-0.736 0-1.333 0.597-1.333 1.333v0 5.333h-2.667c-0.736 0-1.333 0.597-1.333 1.333v0 5.333h-2.667c-0.736 0-1.333 0.597-1.333 1.333v0 10.667c0 0.736 0.597 1.333 1.333 1.333v0h10.667c0.736 0 1.333-0.597 1.333-1.333v0-2.667h5.333c0.736 0 1.333-0.597 1.333-1.333v0-2.667h5.333c0.736 0 1.333-0.597 1.333-1.333v0-16c0-0.736-0.597-1.333-1.333-1.333v0zM17.333 30.667h-8v-8h8zM24 26.667h-4v-5.333c0-0.736-0.597-1.333-1.333-1.333v0h-5.333v-4h10.667zM30.667 22.667h-4v-8c0-0.736-0.597-1.333-1.333-1.333v0h-8v-4h13.333z"></path>
</svg>
