<!-- Generated by IcoMoon.io -->
<svg version="1.1" xmlns="http://www.w3.org/2000/svg" width="40" height="40" viewBox="0 0 40 40">
<title>letter-chinese-a</title>
<path d="M30.667 10.667h-9.333v-1.333c0-0.736-0.597-1.333-1.333-1.333s-1.333 0.597-1.333 1.333v0 1.333h-9.333c-0.736 0-1.333 0.597-1.333 1.333s0.597 1.333 1.333 1.333v0h15.843c-0.64 4.161-2.526 7.799-5.259 10.607l0.004-0.004c-1.897-1.945-3.387-4.295-4.328-6.908l-0.042-0.134c-0.188-0.524-0.68-0.892-1.259-0.892-0.737 0-1.334 0.597-1.334 1.334 0 0.157 0.027 0.307 0.077 0.447l-0.003-0.009c1.108 3.096 2.781 5.746 4.913 7.95l-0.006-0.006c-2.154 1.712-4.74 2.981-7.564 3.622l-0.128 0.024c-0.604 0.136-1.048 0.667-1.048 1.303 0 0.736 0.596 1.332 1.331 1.334h0c0.101-0 0.2-0.011 0.296-0.032l-0.009 0.002c3.508-0.79 6.575-2.333 9.145-4.455l-0.037 0.030c2.539 2.090 5.61 3.632 8.976 4.397l0.146 0.028c0.083 0.018 0.177 0.029 0.275 0.029 0.736 0 1.333-0.597 1.333-1.333 0-0.632-0.44-1.162-1.031-1.299l-0.009-0.002c-2.961-0.665-5.556-1.933-7.76-3.675l0.040 0.031c3.155-3.273 5.306-7.533 5.946-12.273l0.013-0.113h2.81c0.736 0 1.333-0.597 1.333-1.333s-0.597-1.333-1.333-1.333v0z"></path>
</svg>
