<!-- Generated by IcoMoon.io -->
<svg version="1.1" xmlns="http://www.w3.org/2000/svg" width="40" height="40" viewBox="0 0 40 40">
<title>lightbulb-alt</title>
<path d="M26.787 7.76c-1.827-1.511-4.194-2.428-6.776-2.428-0.754 0-1.49 0.078-2.201 0.227l0.069-0.012c-4.238 0.878-7.515 4.178-8.349 8.359l-0.011 0.068c-0.119 0.6-0.187 1.29-0.187 1.995 0 2.621 0.937 5.022 2.494 6.889l-0.014-0.017c0.905 1.017 1.473 2.351 1.52 3.817l0 0.010v4c0 2.209 1.791 4 4 4v0h5.333c2.209 0 4-1.791 4-4v0-3.747c0.048-1.63 0.655-3.11 1.635-4.263l-0.008 0.010c1.477-1.815 2.371-4.156 2.371-6.706 0-3.304-1.502-6.257-3.861-8.213l-0.018-0.014zM24 30.667c0 0.736-0.597 1.333-1.333 1.333v0h-5.333c-0.736 0-1.333-0.597-1.333-1.333v0-1.333h8zM26.227 21.013c-1.292 1.525-2.115 3.483-2.226 5.63l-0.001 0.023h-2.667v-4c0-0.736-0.597-1.333-1.333-1.333s-1.333 0.597-1.333 1.333v0 4h-2.667c-0.038-2.132-0.839-4.069-2.142-5.557l0.009 0.010c-1.156-1.378-1.858-3.17-1.858-5.126 0-3.844 2.711-7.055 6.326-7.825l0.052-0.009c0.485-0.104 1.042-0.164 1.613-0.164 4.418 0 8 3.582 8 8 0 0.002 0 0.003 0 0.005v-0c0 0.013 0 0.027 0 0.042 0 1.892-0.669 3.629-1.784 4.984l0.011-0.014z"></path>
</svg>
