<!-- Generated by IcoMoon.io -->
<svg version="1.1" xmlns="http://www.w3.org/2000/svg" width="40" height="40" viewBox="0 0 40 40">
<title>line</title>
<path d="M22.373 16.613v0c-0.28 0-0.507 0.227-0.507 0.507v0 2.227l-1.867-2.48c-0.093-0.149-0.254-0.248-0.439-0.253h-0.001c-0.28 0-0.507 0.227-0.507 0.507v0 3.787c0 0.28 0.227 0.507 0.507 0.507v0 0c0.28 0 0.507-0.227 0.507-0.507v0-2.24l1.853 2.547c0.047 0.070 0.116 0.122 0.197 0.146l0.003 0.001c0.028 0.007 0.060 0.010 0.093 0.010s0.065-0.004 0.096-0.011l-0.003 0.001c0.045 0.017 0.096 0.026 0.15 0.026 0.077 0 0.149-0.020 0.212-0.054l-0.002 0.001 0.133-0.093c0.090-0.093 0.146-0.22 0.147-0.36v-3.76c0-0.001 0-0.003 0-0.004 0-0.28-0.227-0.507-0.507-0.507-0.024 0-0.047 0.002-0.069 0.005l0.003-0zM16.267 20.36h-1.413v-3.24c0-0.28-0.227-0.507-0.507-0.507v0c-0.28 0-0.507 0.227-0.507 0.507v3.787c0 0.28 0.227 0.507 0.507 0.507v0h1.92c0 0 0 0 0 0 0.283 0 0.512-0.225 0.52-0.506v-0.001c0-0.008 0.001-0.017 0.001-0.027 0-0.287-0.233-0.52-0.52-0.52-0 0-0 0-0.001 0h0zM17.747 16.613v0c-0 0-0 0-0 0-0.283 0-0.512 0.225-0.52 0.506v3.787c0.007 0.281 0.237 0.507 0.52 0.507 0 0 0 0 0 0v0c0.28 0 0.507-0.227 0.507-0.507v0-3.787c0-0.28-0.227-0.507-0.507-0.507v0zM27.88 6.667h-15.76c-3.009 0.008-5.446 2.445-5.453 5.453v15.761c0.008 3.009 2.445 5.446 5.453 5.453h15.761c3.009-0.008 5.446-2.445 5.453-5.453v-15.761c-0.008-3.009-2.445-5.446-5.453-5.453h-0.001zM28.293 23.040c-0.057 0.085-0.114 0.159-0.175 0.229l0.002-0.002c-0.322 0.395-0.672 0.744-1.054 1.056l-0.013 0.010c-2.667 2.493-7.147 5.48-7.747 5.013s0.853-2.347-0.707-2.667c-0.050 0.007-0.108 0.010-0.167 0.010s-0.117-0.004-0.173-0.011l0.007 0.001c-4.587-0.64-8-3.853-8-7.707 0-4.333 4.387-7.84 9.787-7.84s9.787 3.507 9.787 7.84c-0.050 1.557-0.626 2.97-1.555 4.077l0.008-0.010zM26.013 16.627h-2.013c-0.28 0-0.507 0.227-0.507 0.507v0 3.787c0 0.28 0.227 0.507 0.507 0.507v0h1.973c0.28 0 0.507-0.227 0.507-0.507v0c0-0.28-0.227-0.507-0.507-0.507v0h-1.373v-0.8h1.413c0.281-0.007 0.507-0.237 0.507-0.52 0-0 0-0 0-0v0c0-0.28-0.227-0.507-0.507-0.507v0h-1.413v-0.813h1.413c0.28 0 0.507-0.227 0.507-0.507v0c0.011-0.040 0.018-0.086 0.018-0.134 0-0.28-0.227-0.507-0.507-0.507-0.006 0-0.013 0-0.019 0l0.001-0z"></path>
</svg>
