<!-- Generated by IcoMoon.io -->
<svg version="1.1" xmlns="http://www.w3.org/2000/svg" width="40" height="40" viewBox="0 0 40 40">
<title>map-marker-info</title>
<path d="M20 17.333c-0.736 0-1.333 0.597-1.333 1.333v0 2.667c0 0.736 0.597 1.333 1.333 1.333s1.333-0.597 1.333-1.333v0-2.667c0-0.736-0.597-1.333-1.333-1.333v0zM31.28 16.907c-0.541-5.804-5.388-10.312-11.287-10.312-2.332 0-4.499 0.704-6.3 1.911l0.041-0.026c-2.769 1.87-4.656 4.864-5.009 8.311l-0.004 0.049c-0.034 0.33-0.054 0.713-0.054 1.101 0 3.13 1.275 5.962 3.333 8.005l0.001 0.001 7.067 7.080c0.242 0.244 0.577 0.394 0.947 0.394s0.705-0.151 0.947-0.394l0-0 7.040-7.080c2.059-2.044 3.334-4.876 3.334-8.006 0-0.388-0.020-0.771-0.058-1.148l0.004 0.048zM26.133 24.067l-6.133 6.133-6.133-6.133c-1.566-1.566-2.534-3.729-2.534-6.119 0-0.296 0.015-0.589 0.044-0.878l-0.003 0.036c0.268-2.694 1.721-5.001 3.822-6.42l0.031-0.020c1.342-0.903 2.995-1.441 4.773-1.441s3.431 0.538 4.804 1.461l-0.031-0.020c2.126 1.434 3.577 3.73 3.85 6.376l0.003 0.037c0.028 0.26 0.043 0.561 0.043 0.866 0 2.391-0.969 4.555-2.537 6.121l-0 0zM21.227 14.093c-0.029-0.087-0.069-0.162-0.121-0.228l0.001 0.002-0.16-0.2c-0.239-0.227-0.562-0.366-0.918-0.366-0.105 0-0.207 0.012-0.304 0.035l0.009-0.002h-0.24l-0.24 0.12-0.2 0.173-0.16 0.2c-0.051 0.065-0.091 0.14-0.118 0.221l-0.002 0.005c-0.038 0.073-0.066 0.159-0.079 0.249l-0.001 0.004c-0.018 0.090-0.028 0.194-0.028 0.3 0 0.021 0 0.042 0.001 0.063l-0-0.003c-0 0.009-0 0.020-0 0.030 0 0.178 0.039 0.346 0.11 0.497l-0.003-0.007c0.072 0.165 0.166 0.306 0.281 0.427l-0.001-0.001c0.123 0.121 0.269 0.22 0.431 0.29l0.009 0.004c0.15 0.059 0.325 0.093 0.507 0.093s0.356-0.034 0.516-0.096l-0.010 0.003c0.169-0.077 0.315-0.175 0.441-0.294l-0.001 0.001c0.114-0.121 0.208-0.262 0.276-0.417l0.004-0.009c0.067-0.153 0.106-0.332 0.107-0.52v-0c0.003-0.038 0.005-0.082 0.005-0.127s-0.002-0.089-0.005-0.132l0 0.006c-0.013-0.12-0.051-0.228-0.109-0.324l0.002 0.004z"></path>
</svg>
