<!-- Generated by IcoMoon.io -->
<svg version="1.1" xmlns="http://www.w3.org/2000/svg" width="40" height="40" viewBox="0 0 40 40">
<title>map</title>
<path d="M32.427 10.733l-8-2.667h-0.093c-0.028-0.003-0.060-0.005-0.093-0.005s-0.065 0.002-0.097 0.005l0.004-0h-0.573l-7.573 2.6-7.573-2.6c-0.125-0.043-0.268-0.067-0.418-0.067-0.294 0-0.566 0.095-0.786 0.256l0.004-0.003c-0.339 0.244-0.558 0.636-0.56 1.080v18.667c0 0.001 0 0.002 0 0.003 0 0.584 0.375 1.080 0.897 1.26l0.009 0.003 8 2.667c0.123 0.042 0.266 0.066 0.413 0.066s0.29-0.024 0.423-0.068l-0.009 0.003 7.6-2.533 7.573 2.6c0.064 0.009 0.138 0.014 0.213 0.014s0.149-0.005 0.222-0.015l-0.008 0.001c0.005 0 0.011 0 0.018 0 0.285 0 0.548-0.095 0.759-0.256l-0.003 0.002c0.339-0.244 0.558-0.636 0.56-1.080v-18.667c0-0.001 0-0.002 0-0.003 0-0.584-0.375-1.080-0.897-1.26l-0.009-0.003zM14.667 28.813l-5.333-1.773v-15.853l5.333 1.773zM22.667 27.040l-5.333 1.773v-15.853l5.333-1.773zM30.667 28.813l-5.333-1.773v-15.853l5.333 1.773z"></path>
</svg>
