<!-- Generated by IcoMoon.io -->
<svg version="1.1" xmlns="http://www.w3.org/2000/svg" width="40" height="40" viewBox="0 0 40 40">
<title>money-withdrawal</title>
<path d="M33.333 6.667h-26.667c-0.736 0-1.333 0.597-1.333 1.333v0 10.667c0 0.736 0.597 1.333 1.333 1.333v0h4v12c0 0.736 0.597 1.333 1.333 1.333v0h16c0.736 0 1.333-0.597 1.333-1.333v0-12h4c0.736 0 1.333-0.597 1.333-1.333v0-10.667c0-0.736-0.597-1.333-1.333-1.333v0zM13.333 30.667v-2.667c1.473 0 2.667 1.194 2.667 2.667v0zM26.667 30.667h-2.667c0-1.473 1.194-2.667 2.667-2.667v0zM26.667 25.333c-2.946 0-5.333 2.388-5.333 5.333v0h-2.667c0-2.946-2.388-5.333-5.333-5.333v0-10.667h13.333zM32 17.333h-2.667v-4c0-0.736-0.597-1.333-1.333-1.333v0h-16c-0.736 0-1.333 0.597-1.333 1.333v0 4h-2.667v-8h24zM20 24c2.209 0 4-1.791 4-4s-1.791-4-4-4c-2.209 0-4 1.791-4 4v0c0 2.209 1.791 4 4 4v0zM20 18.667c0.736 0 1.333 0.597 1.333 1.333s-0.597 1.333-1.333 1.333c-0.736 0-1.333-0.597-1.333-1.333v0c0-0.736 0.597-1.333 1.333-1.333v0z"></path>
</svg>
