<!-- Generated by IcoMoon.io -->
<svg version="1.1" xmlns="http://www.w3.org/2000/svg" width="40" height="40" viewBox="0 0 40 40">
<title>money-insert</title>
<path d="M17.947 12l0.72-0.787v4.787c0 0.736 0.597 1.333 1.333 1.333s1.333-0.597 1.333-1.333v0-4.787l0.72 0.733c0.245 0.276 0.602 0.449 0.998 0.449 0.371 0 0.707-0.151 0.948-0.396l0-0c0.244-0.242 0.394-0.577 0.394-0.947s-0.151-0.705-0.394-0.947l-3.053-3.053c-0.123-0.118-0.269-0.213-0.431-0.277l-0.009-0.003c-0.15-0.063-0.324-0.1-0.507-0.1s-0.357 0.037-0.515 0.103l0.009-0.003c-0.171 0.067-0.317 0.162-0.44 0.28l0-0-3.053 3c-0.249 0.249-0.403 0.593-0.403 0.973 0 0.76 0.616 1.376 1.376 1.376 0.38 0 0.724-0.154 0.973-0.403v0zM20 20c-2.209 0-4 1.791-4 4s1.791 4 4 4c2.209 0 4-1.791 4-4v0c0-2.209-1.791-4-4-4v0zM20 25.333c-0.736 0-1.333-0.597-1.333-1.333s0.597-1.333 1.333-1.333c0.736 0 1.333 0.597 1.333 1.333v0c0 0.736-0.597 1.333-1.333 1.333v0zM10.667 24c0 0.736 0.597 1.333 1.333 1.333s1.333-0.597 1.333-1.333c0-0.736-0.597-1.333-1.333-1.333v0c-0.736 0-1.333 0.597-1.333 1.333v0zM29.333 24c0-0.736-0.597-1.333-1.333-1.333s-1.333 0.597-1.333 1.333c0 0.736 0.597 1.333 1.333 1.333v0c0.736 0 1.333-0.597 1.333-1.333v0zM30.667 14.667h-5.333c-0.736 0-1.333 0.597-1.333 1.333s0.597 1.333 1.333 1.333v0h5.333c0.736 0 1.333 0.597 1.333 1.333v0 10.667c0 0.736-0.597 1.333-1.333 1.333v0h-21.333c-0.736 0-1.333-0.597-1.333-1.333v0-10.667c0-0.736 0.597-1.333 1.333-1.333v0h5.333c0.736 0 1.333-0.597 1.333-1.333s-0.597-1.333-1.333-1.333v0h-5.333c-2.209 0-4 1.791-4 4v0 10.667c0 2.209 1.791 4 4 4v0h21.333c2.209 0 4-1.791 4-4v0-10.667c0-2.209-1.791-4-4-4v0z"></path>
</svg>
