<!-- Generated by IcoMoon.io -->
<svg version="1.1" xmlns="http://www.w3.org/2000/svg" width="40" height="40" viewBox="0 0 40 40">
<title>nerd</title>
<path d="M32.547 15.533s0 0 0-0.080c-1.914-5.17-6.802-8.788-12.535-8.788-5.703 0-10.57 3.581-12.475 8.616l-0.030 0.092c-0.048 0.093-0.085 0.2-0.106 0.313l-0.001 0.007c-0.462 1.283-0.73 2.763-0.733 4.305v0.001c-0 0.013-0 0.029-0 0.045 0 7.364 5.97 13.333 13.333 13.333s13.333-5.97 13.333-13.333c0-1.618-0.288-3.169-0.816-4.604l0.030 0.092zM20 9.333c3.923 0.004 7.35 2.126 9.199 5.283l0.027 0.050h-1.6c-0.734-0.805-1.788-1.308-2.959-1.308-1.305 0-2.464 0.625-3.194 1.591l-0.007 0.010c-0.434-0.176-0.936-0.283-1.462-0.293l-0.004-0c-0.53 0.011-1.033 0.117-1.495 0.303l0.028-0.010c-0.737-0.977-1.896-1.602-3.201-1.602-1.171 0-2.224 0.503-2.956 1.305l-0.003 0.003h-1.6c1.877-3.208 5.304-5.329 9.226-5.333h0.001zM26 17.333c0 0.736-0.597 1.333-1.333 1.333s-1.333-0.597-1.333-1.333c0-0.736 0.597-1.333 1.333-1.333v0c0.736 0 1.333 0.597 1.333 1.333v0zM16.667 17.333c0 0.736-0.597 1.333-1.333 1.333s-1.333-0.597-1.333-1.333c0-0.736 0.597-1.333 1.333-1.333v0c0.736 0 1.333 0.597 1.333 1.333v0zM20 30.667c-5.891 0-10.667-4.776-10.667-10.667v0c0.006-0.95 0.133-1.868 0.364-2.743l-0.017 0.077h1.653c-0.001 0.036-0.002 0.078-0.002 0.12 0 2.21 1.792 4.002 4.002 4.002 2.168 0 3.933-1.724 4-3.876l0-0.006c0.191-0.112 0.421-0.179 0.667-0.179s0.475 0.066 0.673 0.182l-0.006-0.003c0.067 2.158 1.832 3.882 4 3.882 2.21 0 4.002-1.792 4.002-4.002 0-0.042-0.001-0.084-0.002-0.126l0 0.006h1.653c0.214 0.799 0.34 1.716 0.347 2.663l0 0.004c0 5.891-4.776 10.667-10.667 10.667v0zM23.147 22.973c-0.852 0.692-1.951 1.111-3.147 1.111s-2.294-0.419-3.156-1.118l0.009 0.007c-0.23-0.192-0.528-0.308-0.853-0.308-0.737 0-1.335 0.598-1.335 1.335 0 0.412 0.186 0.78 0.48 1.025l0.002 0.002c1.304 1.095 3.001 1.759 4.853 1.759s3.549-0.665 4.865-1.769l-0.012 0.010c0.295-0.247 0.482-0.615 0.482-1.027 0-0.737-0.598-1.335-1.335-1.335-0.326 0-0.624 0.116-0.855 0.31l0.002-0.002z"></path>
</svg>
