<!-- Generated by IcoMoon.io -->
<svg version="1.1" xmlns="http://www.w3.org/2000/svg" width="40" height="40" viewBox="0 0 40 40">
<title>object-ungroup</title>
<path d="M32 28.373v-8.747c0.823-0.464 1.37-1.334 1.37-2.33 0-1.473-1.194-2.667-2.667-2.667-0.997 0-1.866 0.547-2.324 1.357l-0.007 0.013h-4.373v-4.373c0.823-0.464 1.37-1.334 1.37-2.33 0-1.473-1.194-2.667-2.667-2.667-0.997 0-1.866 0.547-2.324 1.357l-0.007 0.013h-8.747c-0.464-0.823-1.334-1.37-2.33-1.37-1.473 0-2.667 1.194-2.667 2.667 0 0.997 0.547 1.866 1.357 2.324l0.013 0.007v8.747c-0.823 0.464-1.37 1.334-1.37 2.33 0 1.473 1.194 2.667 2.667 2.667 0.997 0 1.866-0.547 2.324-1.357l0.007-0.013h4.373v4.373c-0.823 0.464-1.37 1.334-1.37 2.33 0 1.473 1.194 2.667 2.667 2.667 0.997 0 1.866-0.547 2.324-1.357l0.007-0.013h8.747c0.464 0.823 1.334 1.37 2.33 1.37 1.473 0 2.667-1.194 2.667-2.667 0-0.997-0.547-1.866-1.357-2.324l-0.013-0.007zM14.667 17.333c0.006 0.976 0.535 1.826 1.321 2.287l0.013 0.007v1.707h-4.373c-0.231-0.403-0.557-0.729-0.948-0.953l-0.012-0.007v-8.747c0.403-0.231 0.729-0.557 0.953-0.948l0.007-0.012h8.747c0.231 0.403 0.557 0.729 0.948 0.953l0.012 0.007v4.373h-1.707c-0.473-0.787-1.323-1.306-2.293-1.306-1.463 0-2.651 1.178-2.667 2.638v0.001zM21.333 18.667v1.707c-0.403 0.231-0.729 0.557-0.953 0.948l-0.007 0.012h-1.707v-1.707c0.403-0.231 0.729-0.557 0.953-0.948l0.007-0.012zM29.333 28.373c-0.403 0.231-0.729 0.557-0.953 0.948l-0.007 0.012h-8.747c-0.231-0.403-0.557-0.729-0.948-0.953l-0.012-0.007v-4.373h1.707c0.464 0.823 1.334 1.37 2.33 1.37 1.473 0 2.667-1.194 2.667-2.667 0-0.997-0.547-1.866-1.357-2.324l-0.013-0.007v-1.707h4.373c0.231 0.403 0.557 0.729 0.948 0.953l0.012 0.007z"></path>
</svg>
