<!-- Generated by IcoMoon.io -->
<svg version="1.1" xmlns="http://www.w3.org/2000/svg" width="40" height="40" viewBox="0 0 40 40">
<title>package</title>
<path d="M29.333 6.667h-18.667c-2.209 0-4 1.791-4 4v0 18.667c0 2.209 1.791 4 4 4v0h18.667c2.209 0 4-1.791 4-4v0-18.667c0-2.209-1.791-4-4-4v0zM17.333 9.333h5.333v4.173l-1.933-1.333c-0.206-0.138-0.46-0.22-0.733-0.22s-0.527 0.082-0.738 0.223l0.005-0.003-1.933 1.333zM30.667 29.333c0 0.736-0.597 1.333-1.333 1.333v0h-18.667c-0.736 0-1.333-0.597-1.333-1.333v0-18.667c0-0.736 0.597-1.333 1.333-1.333v0h4v6.667c0.001 0.506 0.284 0.945 0.7 1.17l0.007 0.004c0.177 0.093 0.387 0.147 0.609 0.147 0.269 0 0.52-0.080 0.729-0.217l-0.005 0.003 3.293-2.173 3.267 2.173c0.206 0.138 0.46 0.22 0.733 0.22 0.734 0 1.329-0.593 1.333-1.326v-6.667h4c0.736 0 1.333 0.597 1.333 1.333v0z"></path>
</svg>
