<!-- Generated by IcoMoon.io -->
<svg version="1.1" xmlns="http://www.w3.org/2000/svg" width="40" height="40" viewBox="0 0 40 40">
<title>panorama-v</title>
<path d="M27.027 20c-0.003-0.164-0.005-0.357-0.005-0.55 0-3.931 0.806-7.675 2.262-11.073l-0.070 0.183c0.086-0.171 0.136-0.373 0.136-0.586 0-0.279-0.086-0.538-0.232-0.752l0.003 0.005c-0.245-0.341-0.64-0.56-1.086-0.56-0.012 0-0.024 0-0.035 0l0.002-0h-16c-0.468 0.001-0.88 0.243-1.117 0.608l-0.003 0.005c-0.143 0.209-0.229 0.468-0.229 0.747 0 0.213 0.050 0.415 0.139 0.594l-0.004-0.008c1.385 3.215 2.191 6.957 2.191 10.888 0 0.175-0.002 0.351-0.005 0.525l0-0.026c0.003 0.164 0.005 0.357 0.005 0.55 0 3.931-0.806 7.675-2.262 11.073l0.070-0.183c-0.086 0.171-0.136 0.373-0.136 0.586 0 0.279 0.086 0.538 0.232 0.752l-0.003-0.005c0.245 0.341 0.64 0.56 1.086 0.56 0.012 0 0.024-0 0.035-0l-0.002 0h16c0.468-0.001 0.88-0.243 1.117-0.608l0.003-0.005c0.143-0.209 0.229-0.468 0.229-0.747 0-0.213-0.050-0.415-0.139-0.594l0.004 0.008c-1.385-3.215-2.191-6.957-2.191-10.888 0-0.175 0.002-0.351 0.005-0.525l-0 0.026zM26.027 30.667h-12c1.058-3.093 1.668-6.657 1.668-10.363 0-0.107-0.001-0.213-0.001-0.32l0 0.016c0-0.044 0-0.095 0-0.146 0-3.764-0.63-7.382-1.79-10.752l0.069 0.232h12c-1.058 3.093-1.668 6.657-1.668 10.363 0 0.107 0.001 0.213 0.001 0.32l-0-0.016c-0 0.044-0 0.095-0 0.146 0 3.764 0.63 7.382 1.79 10.752l-0.069-0.232z"></path>
</svg>
