<!-- Generated by IcoMoon.io -->
<svg version="1.1" xmlns="http://www.w3.org/2000/svg" width="40" height="40" viewBox="0 0 40 40">
<title>phone-slash</title>
<path d="M10.547 21.467c0.24 0.379 0.656 0.627 1.131 0.627 0.001 0 0.002 0 0.003 0h-0c0.011 0 0.025 0.001 0.038 0.001 0.736 0 1.333-0.597 1.333-1.333 0-0.285-0.089-0.548-0.241-0.765l0.003 0.004c-1.667-2.609-2.833-5.699-3.28-9.017l-0.013-0.117c-0.009-0.059-0.015-0.127-0.015-0.197 0-0.339 0.127-0.649 0.336-0.885l-0.001 0.001c0.245-0.278 0.602-0.453 1-0.453h4c0.008-0 0.017-0 0.027-0 0.642 0 1.178 0.454 1.305 1.058l0.002 0.009c0 0.307 0.107 0.587 0.173 0.893v0.173c0.179 0.799 0.394 1.485 0.66 2.146l-0.033-0.093-1.853 0.88c-0.323 0.153-0.57 0.421-0.69 0.751l-0.003 0.009c-0.065 0.152-0.103 0.328-0.103 0.513s0.038 0.362 0.106 0.522l-0.003-0.009c0.133 0.28 0.267 0.56 0.427 0.853 0.234 0.405 0.665 0.673 1.158 0.673 0.246 0 0.477-0.067 0.675-0.183l-0.006 0.003c0.403-0.234 0.67-0.664 0.67-1.157 0-0.034-0.001-0.068-0.004-0.101l0 0.004 0.76-0.28c0.923-0.433 1.551-1.354 1.551-2.422 0-0.317-0.055-0.621-0.157-0.903l0.006 0.019c-0.189-0.475-0.368-1.054-0.504-1.65l-0.016-0.083v-0.133c0-0.267-0.107-0.533-0.147-0.773-0.308-1.93-1.96-3.387-3.953-3.387-0.003 0-0.005 0-0.008 0h-4c-0.017-0-0.038-0-0.058-0-1.183 0-2.246 0.514-2.979 1.33l-0.003 0.004c-0.619 0.701-0.997 1.628-0.997 2.643 0 0.192 0.014 0.381 0.040 0.565l-0.002-0.021c0.501 3.863 1.801 7.342 3.728 10.384l-0.061-0.104zM30.027 21.187l-0.8-0.147h-0.107c-0.692-0.149-1.286-0.328-1.858-0.549l0.085 0.029c-0.268-0.099-0.577-0.157-0.9-0.157-1.044 0-1.948 0.6-2.386 1.475l-0.007 0.015-0.28 0.613c-0.968-0.565-1.806-1.169-2.58-1.843l0.020 0.017 11.733-11.72c0.242-0.242 0.392-0.577 0.392-0.947 0-0.739-0.599-1.339-1.339-1.339-0.37 0-0.704 0.15-0.947 0.392l-24 24c-0.244 0.242-0.394 0.577-0.394 0.947s0.151 0.705 0.394 0.947l0 0c0.242 0.244 0.577 0.394 0.947 0.394s0.705-0.151 0.947-0.394l0-0 6.12-6.133c3.689 3.325 8.39 5.593 13.589 6.292l0.131 0.014c0.080 0.006 0.173 0.010 0.267 0.010s0.187-0.004 0.279-0.011l-0.012 0.001c0.006 0 0.014 0 0.021 0 1.016 0 1.944-0.379 2.65-1.004l-0.004 0.004c0.82-0.736 1.333-1.799 1.333-2.981 0-0.007 0-0.013-0-0.020v0.001-4c-0.015-1.947-1.419-3.561-3.269-3.903l-0.025-0.004zM30.667 29.187c-0.001 0.398-0.175 0.755-0.452 0.999l-0.001 0.001c-0.234 0.208-0.544 0.335-0.883 0.335-0.069 0-0.138-0.005-0.204-0.016l0.007 0.001c-4.729-0.635-8.903-2.638-12.209-5.593l0.022 0.019 2.36-2.36c1.302 1.14 2.785 2.124 4.389 2.896l0.117 0.051c0.152 0.065 0.328 0.103 0.513 0.103s0.362-0.038 0.522-0.106l-0.009 0.003c0.339-0.124 0.607-0.371 0.757-0.685l0.003-0.008 0.827-1.88c0.581 0.225 1.294 0.441 2.026 0.606l0.107 0.020h0.147l0.92 0.173c0.6 0.139 1.040 0.668 1.040 1.301 0 0.011-0 0.023-0 0.034l0-0.002z"></path>
</svg>
