<!-- Generated by IcoMoon.io -->
<svg version="1.1" xmlns="http://www.w3.org/2000/svg" width="40" height="40" viewBox="0 0 40 40">
<title>process</title>
<path d="M13.322 23.336c-0 0-0 0-0 0-0.736 0-1.333 0.597-1.333 1.333 0 0 0 0 0 0v-0 2.376c-1.656-1.866-2.667-4.335-2.667-7.041 0-0.001 0-0.001 0-0.002v0c0-0.002 0-0.004 0-0.006 0-0.411 0.026-0.817 0.075-1.215l-0.005 0.047c0.006-0.049 0.010-0.106 0.010-0.164 0-0.736-0.597-1.333-1.333-1.333-0.681 0-1.243 0.511-1.323 1.171l-0.001 0.006c-0.057 0.444-0.090 0.958-0.090 1.48 0 0.005 0 0.010 0 0.014v-0.001c0.002 3.32 1.222 6.356 3.237 8.683l-0.014-0.017h-1.889c-0.736 0-1.333 0.597-1.333 1.333s0.597 1.333 1.333 1.333v0h5.333c0.437-0.006 0.822-0.225 1.056-0.558l0.003-0.004c0.016-0.021 0.035-0.036 0.050-0.057 0.009-0.013 0.009-0.029 0.017-0.042 0.060-0.099 0.108-0.214 0.139-0.335l0.002-0.009c0.018-0.059 0.033-0.129 0.041-0.202l0.001-0.006c0.004-0.041 0.024-0.077 0.024-0.119v-5.333c0-0 0-0 0-0 0-0.736-0.597-1.333-1.333-1.333-0 0-0 0-0 0h0zM15.322 12.003h-2.377c1.866-1.656 4.336-2.667 7.042-2.667 0 0 0.001 0 0.001 0h-0c0.007-0 0.015-0 0.023-0 0.405 0 0.805 0.026 1.196 0.075l-0.047-0.005c0.048 0.006 0.104 0.010 0.161 0.010 0.737 0 1.334-0.597 1.334-1.334 0-0.68-0.509-1.241-1.167-1.324l-0.007-0.001c-0.442-0.056-0.954-0.089-1.474-0.089-0.007 0-0.014 0-0.022 0h0.001c-3.32 0.002-6.356 1.221-8.683 3.236l0.017-0.014v-1.889c0-0.736-0.597-1.333-1.333-1.333s-1.333 0.597-1.333 1.333v0 5.333c0.009 0.096 0.028 0.184 0.055 0.269l-0.002-0.009 0 0.002c0.035 0.174 0.101 0.329 0.191 0.465l-0.003-0.005 0.015 0.023c0.090 0.129 0.198 0.238 0.322 0.326l0.004 0.003c0.015 0.011 0.022 0.027 0.037 0.037 0.019 0.013 0.041 0.017 0.060 0.028 0.068 0.042 0.147 0.080 0.23 0.109l0.009 0.003c0.103 0.037 0.222 0.062 0.345 0.070l0.004 0c0.023 0.001 0.043 0.013 0.066 0.013h5.333c0.736 0 1.333-0.597 1.333-1.333s-0.597-1.333-1.333-1.333v0zM31.27 26.408c-0.035-0.174-0.101-0.329-0.191-0.465l0.003 0.005-0.015-0.022c-0.090-0.129-0.198-0.238-0.322-0.326l-0.004-0.003c-0.015-0.011-0.022-0.027-0.037-0.037s-0.031-0.010-0.046-0.019c-0.158-0.089-0.342-0.153-0.538-0.18l-0.008-0.001c-0.042-0.004-0.079-0.025-0.122-0.025h-5.333c-0.736 0-1.333 0.597-1.333 1.333s0.597 1.333 1.333 1.333v0h2.377c-1.866 1.656-4.336 2.667-7.042 2.667-0 0-0.001 0-0.001 0h0c-0.004 0-0.008 0-0.012 0-0.409 0-0.812-0.026-1.207-0.076l0.047 0.005c-0.048-0.006-0.104-0.010-0.161-0.010-0.737 0-1.334 0.597-1.334 1.334 0 0.68 0.509 1.241 1.167 1.324l0.007 0.001c0.449 0.057 0.967 0.090 1.494 0.090h0c3.32-0.002 6.356-1.221 8.683-3.236l-0.017 0.014v1.889c0 0.736 0.597 1.333 1.333 1.333s1.333-0.597 1.333-1.333v0-5.333c-0.009-0.096-0.028-0.184-0.055-0.269l0.002 0.009zM31.989 11.336c0.736 0 1.333-0.597 1.333-1.333s-0.597-1.333-1.333-1.333v0h-5.333c-0.095 0.009-0.182 0.028-0.265 0.054l0-0.001c-0.172 0.035-0.324 0.1-0.459 0.189l0.005-0.003-0.026 0.018c-0.129 0.089-0.237 0.197-0.324 0.321l-0.003 0.004c-0.011 0.014-0.027 0.021-0.037 0.036s-0.010 0.031-0.019 0.046c-0.091 0.159-0.155 0.345-0.181 0.542l-0.001 0.008c-0.004 0.041-0.024 0.077-0.024 0.119v5.333c0 0.736 0.597 1.333 1.333 1.333s1.333-0.597 1.333-1.333v0-2.377c1.656 1.866 2.667 4.336 2.667 7.043 0 0 0 0.001 0 0.001v-0c0 0.002 0 0.004 0 0.006 0 0.411-0.026 0.817-0.075 1.215l0.005-0.048c-0.006 0.048-0.010 0.103-0.010 0.16 0 0.68 0.508 1.241 1.166 1.324l0.007 0.001c0.047 0.006 0.102 0.009 0.158 0.009 0.002 0 0.003 0 0.005 0h-0c0.679-0.001 1.239-0.51 1.321-1.167l0.001-0.006c0.057-0.444 0.090-0.958 0.090-1.48 0-0.005 0-0.010 0-0.014v0.001c-0.002-3.32-1.222-6.356-3.237-8.683l0.014 0.017z"></path>
</svg>
