<!-- Generated by IcoMoon.io -->
<svg version="1.1" xmlns="http://www.w3.org/2000/svg" width="40" height="40" viewBox="0 0 40 40">
<title>reddit-alien-alt</title>
<path d="M23.214 26.49c-0.735 0.544-1.66 0.871-2.661 0.871-0.175 0-0.347-0.010-0.517-0.029l0.021 0.002c-0.149 0.018-0.322 0.028-0.497 0.028-0.999 0-1.923-0.326-2.669-0.879l0.012 0.009c-0.241-0.239-0.573-0.387-0.94-0.387-0.737 0-1.334 0.597-1.334 1.334 0 0.366 0.147 0.698 0.386 0.939l-0-0c1.186 1.025 2.743 1.65 4.445 1.65 0.21 0 0.418-0.009 0.623-0.028l-0.026 0.002c0.178 0.017 0.385 0.026 0.595 0.026 1.704 0 3.261-0.624 4.457-1.656l-0.009 0.007c0.243-0.242 0.394-0.576 0.394-0.946 0-0.737-0.597-1.334-1.334-1.334-0.369 0-0.703 0.15-0.945 0.392l-0 0zM16.267 24.002c0.736-0 1.333-0.597 1.333-1.333s-0.597-1.333-1.333-1.333-1.333 0.597-1.333 1.333c0 0 0 0 0 0v-0c0.001 0.736 0.598 1.333 1.334 1.333h0zM24.267 21.336c-0 0-0 0-0 0-0.736 0-1.333 0.597-1.333 1.333s0.597 1.333 1.333 1.333c0.736 0 1.333-0.597 1.333-1.333v-0c-0.001-0.736-0.597-1.332-1.333-1.334h-0zM34.667 19.707c0-0.003 0-0.008 0-0.012 0-2.777-2.251-5.029-5.029-5.029-1.644 0-3.103 0.789-4.021 2.008l-0.009 0.013c-1.187-0.316-2.576-0.543-4.002-0.635l-0.064-0.003 1.141-7.607 2.783 0.946c0.027 2.186 1.806 3.948 3.996 3.948 2.207 0 3.996-1.789 3.996-3.996 0-0.013-0-0.027-0-0.040l0 0.002v-0.030c-0.055-2.175-1.82-3.919-3.998-3.94h-0.002c-1.262 0.010-2.382 0.607-3.103 1.531l-0.007 0.009-4.318-1.468c-0.129-0.045-0.277-0.072-0.431-0.072-0.666 0-1.218 0.489-1.316 1.128l-0.001 0.007-1.435 9.567c-1.616 0.073-3.141 0.306-4.608 0.685l0.154-0.034c-0.925-1.239-2.388-2.032-4.035-2.032-2.774 0-5.023 2.249-5.023 5.023 0 0.983 0.283 1.901 0.771 2.676l-0.012-0.021c-0.471 0.869-0.751 1.9-0.759 2.997v0.002c0 5.233 6.443 9.333 14.667 9.333s14.667-4.1 14.667-9.333c-0.008-1.099-0.288-2.13-0.775-3.033l0.017 0.034c0.47-0.747 0.752-1.654 0.758-2.626v-0.002zM29.457 8c0.736 0 1.333 0.597 1.333 1.333s-0.597 1.333-1.333 1.333c-0.736 0-1.333-0.597-1.333-1.333v0c0.012-0.731 0.602-1.321 1.332-1.333h0.001zM10.374 17.333c0.435 0.006 0.84 0.129 1.186 0.339l-0.010-0.006c-1.354 0.59-2.52 1.34-3.545 2.244l0.014-0.012c-0.005-0.064-0.019-0.127-0.019-0.191 0.002-1.31 1.063-2.372 2.374-2.374h0zM20 32c-6.505 0-12-3.053-12-6.667s5.495-6.667 12-6.667 12 3.053 12 6.667-5.495 6.667-12 6.667zM31.981 19.898c-1.011-0.892-2.176-1.642-3.445-2.199l-0.085-0.033c0.336-0.204 0.741-0.327 1.174-0.333h0.002c1.31 0.002 2.372 1.063 2.374 2.374v0c0 0.064-0.013 0.127-0.019 0.191z"></path>
</svg>
