<!-- Generated by IcoMoon.io -->
<svg version="1.1" xmlns="http://www.w3.org/2000/svg" width="40" height="40" viewBox="0 0 40 40">
<title>rss-interface</title>
<path d="M8 22.667c-0.736 0-1.333 0.597-1.333 1.333s0.597 1.333 1.333 1.333v0c2.209 0 4 1.791 4 4v0c0 0.736 0.597 1.333 1.333 1.333s1.333-0.597 1.333-1.333v0c0-3.682-2.985-6.667-6.667-6.667v0zM7.053 28.387c-0.239 0.241-0.387 0.573-0.387 0.939 0 0.736 0.597 1.333 1.333 1.333s1.333-0.597 1.333-1.333c0-0.366-0.148-0.698-0.387-0.939l0 0c-0.242-0.244-0.577-0.394-0.947-0.394s-0.705 0.151-0.947 0.394l-0 0zM29.333 9.333h-18.667c-2.209 0-4 1.791-4 4v0c0 0.736 0.597 1.333 1.333 1.333s1.333-0.597 1.333-1.333v0c0-0.736 0.597-1.333 1.333-1.333v0h18.667c0.736 0 1.333 0.597 1.333 1.333v0 13.333c0 0.736-0.597 1.333-1.333 1.333v0h-5.333c-0.736 0-1.333 0.597-1.333 1.333s0.597 1.333 1.333 1.333v0h5.333c2.209 0 4-1.791 4-4v0-13.333c0-2.209-1.791-4-4-4v0zM8 17.333c-0.736 0-1.333 0.597-1.333 1.333s0.597 1.333 1.333 1.333v0c5.155 0 9.333 4.179 9.333 9.333v0c0 0.736 0.597 1.333 1.333 1.333s1.333-0.597 1.333-1.333v0c0-6.627-5.373-12-12-12v0z"></path>
</svg>
