<!-- Generated by IcoMoon.io -->
<svg version="1.1" xmlns="http://www.w3.org/2000/svg" width="40" height="40" viewBox="0 0 40 40">
<title>servers</title>
<path d="M24 26.667c-0.736 0-1.333 0.597-1.333 1.333s0.597 1.333 1.333 1.333c0.736 0 1.333-0.597 1.333-1.333v0c0-0.736-0.597-1.333-1.333-1.333v0zM18.667 26.667h-2.667c-0.736 0-1.333 0.597-1.333 1.333s0.597 1.333 1.333 1.333v0h2.667c0.736 0 1.333-0.597 1.333-1.333s-0.597-1.333-1.333-1.333v0zM18.667 18.667h-2.667c-0.736 0-1.333 0.597-1.333 1.333s0.597 1.333 1.333 1.333v0h2.667c0.736 0 1.333-0.597 1.333-1.333s-0.597-1.333-1.333-1.333v0zM24 18.667c-0.736 0-1.333 0.597-1.333 1.333s0.597 1.333 1.333 1.333c0.736 0 1.333-0.597 1.333-1.333v0c0-0.736-0.597-1.333-1.333-1.333v0zM34.667 14.667c0-2.209-1.791-4-4-4v0h-1.333c0-2.209-1.791-4-4-4v0h-10.667c-2.209 0-4 1.791-4 4v0h-1.333c-2.209 0-4 1.791-4 4v0 2.667c0.006 1.029 0.4 1.965 1.043 2.67l-0.003-0.003c-0.64 0.702-1.034 1.638-1.040 2.665v2.668c0 2.209 1.791 4 4 4v0h1.333c0 2.209 1.791 4 4 4v0h10.667c2.209 0 4-1.791 4-4v0h1.333c2.209 0 4-1.791 4-4v0-2.667c-0.006-1.029-0.4-1.965-1.043-2.67l0.003 0.003c0.64-0.702 1.034-1.638 1.040-2.665v-0.001zM10.667 26.667h-1.333c-0.736 0-1.333-0.597-1.333-1.333v0-2.667c0-0.736 0.597-1.333 1.333-1.333v0h1.333c0.006 1.029 0.4 1.965 1.043 2.67l-0.003-0.003c-0.64 0.702-1.034 1.638-1.040 2.665v0.001zM10.667 18.667h-1.333c-0.736 0-1.333-0.597-1.333-1.333v0-2.667c0-0.736 0.597-1.333 1.333-1.333v0h1.333c0.006 1.029 0.4 1.965 1.043 2.67l-0.003-0.003c-0.64 0.702-1.034 1.638-1.040 2.665v0.001zM26.667 29.333c0 0.736-0.597 1.333-1.333 1.333v0h-10.667c-0.736 0-1.333-0.597-1.333-1.333v0-2.667c0-0.736 0.597-1.333 1.333-1.333v0h10.667c0.736 0 1.333 0.597 1.333 1.333v0zM26.667 21.333c0 0.736-0.597 1.333-1.333 1.333v0h-10.667c-0.736 0-1.333-0.597-1.333-1.333v0-2.667c0-0.736 0.597-1.333 1.333-1.333v0h10.667c0.736 0 1.333 0.597 1.333 1.333v0zM26.667 13.333c0 0.736-0.597 1.333-1.333 1.333v0h-10.667c-0.736 0-1.333-0.597-1.333-1.333v0-2.667c0-0.736 0.597-1.333 1.333-1.333v0h10.667c0.736 0 1.333 0.597 1.333 1.333v0zM32 25.333c0 0.736-0.597 1.333-1.333 1.333v0h-1.333c-0.006-1.029-0.4-1.965-1.043-2.67l0.003 0.003c0.64-0.702 1.034-1.638 1.040-2.665v-0.001h1.333c0.736 0 1.333 0.597 1.333 1.333v0zM32 17.333c0 0.736-0.597 1.333-1.333 1.333v0h-1.333c-0.006-1.029-0.4-1.965-1.043-2.67l0.003 0.003c0.64-0.702 1.034-1.638 1.040-2.665v-0.001h1.333c0.736 0 1.333 0.597 1.333 1.333v0zM24 10.667c-0.736 0-1.333 0.597-1.333 1.333s0.597 1.333 1.333 1.333c0.736 0 1.333-0.597 1.333-1.333v0c0-0.736-0.597-1.333-1.333-1.333v0zM18.667 10.667h-2.667c-0.736 0-1.333 0.597-1.333 1.333s0.597 1.333 1.333 1.333v0h2.667c0.736 0 1.333-0.597 1.333-1.333s-0.597-1.333-1.333-1.333v0z"></path>
</svg>
