<!-- Generated by IcoMoon.io -->
<svg version="1.1" xmlns="http://www.w3.org/2000/svg" width="40" height="40" viewBox="0 0 40 40">
<title>sign-right</title>
<path d="M13.333 12v6.667c0 0.736 0.597 1.333 1.333 1.333v0h4v10.667h-2.667c-0.736 0-1.333 0.597-1.333 1.333s0.597 1.333 1.333 1.333v0h8c0.736 0 1.333-0.597 1.333-1.333s-0.597-1.333-1.333-1.333v0h-2.667v-10.667h6.667c0.001 0 0.003 0 0.005 0 0.417 0 0.789-0.191 1.034-0.491l0.002-0.002 2.667-3.333c0.182-0.226 0.293-0.517 0.293-0.833s-0.11-0.607-0.294-0.836l0.002 0.003-2.667-3.333c-0.245-0.308-0.619-0.505-1.040-0.507h-6.667v-2.667c0-0.736-0.597-1.333-1.333-1.333s-1.333 0.597-1.333 1.333v0 2.667h-4c-0.736 0-1.333 0.597-1.333 1.333v0zM16 13.333h11.36l1.6 2-1.6 2h-11.36z"></path>
</svg>
