<!-- Generated by IcoMoon.io -->
<svg version="1.1" xmlns="http://www.w3.org/2000/svg" width="40" height="40" viewBox="0 0 40 40">
<title>skype</title>
<path d="M32.579 22.874c0.179-0.803 0.282-1.725 0.282-2.671 0-0.011 0-0.022-0-0.033v0.002c-0.041-6.947-5.682-12.564-12.635-12.564-0.030 0-0.060 0-0.090 0l0.005-0c-0.009-0-0.020-0-0.031-0-0.755 0-1.493 0.069-2.21 0.2l0.075-0.011c-1.114-0.71-2.471-1.131-3.927-1.131-4.044 0-7.328 3.252-7.38 7.283l-0 0.005c0.001 1.355 0.374 2.623 1.023 3.707l-0.018-0.033c-0.155 0.753-0.247 1.621-0.252 2.509v0.004c0.059 6.832 5.611 12.347 12.451 12.347 0.095 0 0.189-0.001 0.283-0.003l-0.014 0c0.025 0 0.055 0 0.085 0 0.792 0 1.565-0.081 2.312-0.234l-0.074 0.013c0.996 0.613 2.19 1.002 3.469 1.068l0.018 0.001c0.041 0.001 0.089 0.001 0.137 0.001 4.001 0 7.244-3.243 7.244-7.244 0-1.172-0.278-2.279-0.772-3.258l0.019 0.041zM25.92 25.324c-0.549 0.73-1.283 1.292-2.133 1.622l-0.033 0.011c-0.926 0.379-2 0.599-3.126 0.599-0.082 0-0.164-0.001-0.246-0.004l0.012 0c-0.080 0.003-0.174 0.004-0.269 0.004-1.307 0-2.544-0.303-3.644-0.842l0.049 0.022c-0.714-0.385-1.304-0.915-1.749-1.554l-0.011-0.016c-0.386-0.523-0.629-1.173-0.658-1.877l-0-0.007c-0-0.006-0-0.014-0-0.021 0-0.355 0.158-0.674 0.407-0.889l0.001-0.001c0.257-0.234 0.601-0.378 0.977-0.378 0.020 0 0.041 0 0.061 0.001l-0.003-0c0.016-0.001 0.034-0.001 0.052-0.001 0.304 0 0.582 0.107 0.8 0.286l-0.002-0.002c0.256 0.239 0.459 0.533 0.59 0.862l0.006 0.016c0.174 0.445 0.396 0.829 0.668 1.173l-0.007-0.010c0.251 0.328 0.579 0.585 0.957 0.747l0.016 0.006c0.461 0.199 0.997 0.315 1.561 0.315 0.037 0 0.073-0.001 0.11-0.001l-0.005 0c0.064 0.004 0.138 0.006 0.213 0.006 0.772 0 1.491-0.224 2.096-0.611l-0.016 0.009c0.523-0.31 0.87-0.867 0.88-1.507l0-0.001c0.001-0.019 0.001-0.041 0.001-0.063 0-0.432-0.181-0.822-0.472-1.098l-0.001-0.001c-0.335-0.318-0.747-0.557-1.205-0.687l-0.021-0.005c-0.502-0.157-1.194-0.314-2.041-0.502-1.108-0.237-2.064-0.529-2.984-0.892l0.126 0.044c-0.733-0.298-1.346-0.76-1.815-1.342l-0.007-0.009c-0.414-0.545-0.662-1.235-0.662-1.983 0-0.043 0.001-0.085 0.002-0.127l-0 0.006c0-0.001 0-0.003 0-0.004 0-0.806 0.272-1.548 0.729-2.14l-0.006 0.008c0.526-0.652 1.217-1.151 2.010-1.435l0.032-0.010c0.878-0.32 1.892-0.504 2.949-0.504 0.079 0 0.157 0.001 0.236 0.003l-0.012-0c0.032-0 0.071-0.001 0.109-0.001 0.857 0 1.684 0.126 2.464 0.361l-0.060-0.016c0.672 0.198 1.258 0.499 1.771 0.889l-0.013-0.010c0.419 0.315 0.766 0.701 1.027 1.144l0.010 0.018c0.193 0.334 0.309 0.734 0.314 1.16v0.001c0 0.001 0 0.002 0 0.004 0 0.37-0.157 0.704-0.408 0.938l-0.001 0.001c-0.241 0.253-0.58 0.409-0.956 0.409-0.017 0-0.034-0-0.051-0.001l0.002 0c-0.023 0.001-0.050 0.002-0.077 0.002-0.29 0-0.558-0.095-0.774-0.256l0.003 0.002c-0.248-0.232-0.457-0.501-0.62-0.799l-0.008-0.017c-0.259-0.511-0.608-0.94-1.030-1.283l-0.007-0.006c-0.477-0.303-1.058-0.482-1.68-0.482-0.094 0-0.187 0.004-0.279 0.012l0.012-0.001c-0.050-0.003-0.109-0.004-0.168-0.004-0.68 0-1.317 0.189-1.859 0.516l0.016-0.009c-0.433 0.236-0.727 0.678-0.753 1.19l-0 0.003c0.002 0.284 0.096 0.545 0.254 0.756l-0.002-0.003c0.192 0.23 0.435 0.411 0.71 0.529l0.012 0.005c0.262 0.146 0.566 0.265 0.886 0.341l0.024 0.005c0.314 0.095 0.817 0.22 1.538 0.377 0.88 0.189 1.697 0.409 2.42 0.628 0.705 0.212 1.32 0.501 1.881 0.865l-0.028-0.017c0.49 0.325 0.891 0.746 1.184 1.239l0.010 0.018c0.277 0.512 0.44 1.121 0.44 1.768 0 0.030-0 0.060-0.001 0.090l0-0.004c0.002 0.050 0.004 0.108 0.004 0.166 0 0.846-0.272 1.627-0.734 2.263l0.008-0.011z"></path>
</svg>
