<!-- Generated by IcoMoon.io -->
<svg version="1.1" xmlns="http://www.w3.org/2000/svg" width="40" height="40" viewBox="0 0 40 40">
<title>sun</title>
<path d="M11.52 26.667l-0.947 0.947c-0.24 0.241-0.388 0.573-0.388 0.94s0.148 0.699 0.388 0.94l-0-0c0.241 0.24 0.573 0.388 0.94 0.388s0.699-0.148 0.94-0.388l0.947-0.947c0.199-0.232 0.321-0.535 0.321-0.867 0-0.736-0.597-1.333-1.333-1.333-0.332 0-0.636 0.121-0.869 0.322l0.002-0.001zM10.667 20c0-0.736-0.597-1.333-1.333-1.333v0h-1.333c-0.736 0-1.333 0.597-1.333 1.333s0.597 1.333 1.333 1.333v0h1.333c0.736 0 1.333-0.597 1.333-1.333v0zM20 10.667c0.736 0 1.333-0.597 1.333-1.333v0-1.333c0-0.736-0.597-1.333-1.333-1.333s-1.333 0.597-1.333 1.333v0 1.333c0 0.736 0.597 1.333 1.333 1.333v0zM11.52 13.4c0.24 0.238 0.569 0.385 0.933 0.387h0c0.002 0 0.005 0 0.008 0 0.366 0 0.698-0.148 0.939-0.387l-0 0c0.24-0.241 0.388-0.573 0.388-0.94s-0.148-0.699-0.388-0.94l-0.947-0.947c-0.232-0.199-0.535-0.321-0.867-0.321-0.736 0-1.333 0.597-1.333 1.333 0 0.332 0.121 0.636 0.322 0.869l-0.001-0.002zM27.52 13.787c0.364-0.002 0.694-0.149 0.933-0.387l0.947-0.947c0.286-0.246 0.466-0.608 0.466-1.013 0-0.736-0.597-1.333-1.333-1.333-0.404 0-0.767 0.18-1.011 0.464l-0.001 0.002-0.853 0.947c-0.24 0.241-0.388 0.573-0.388 0.94s0.148 0.699 0.388 0.94l-0-0c0.227 0.226 0.535 0.371 0.877 0.387l0.003 0zM32 18.667h-1.333c-0.736 0-1.333 0.597-1.333 1.333s0.597 1.333 1.333 1.333v0h1.333c0.736 0 1.333-0.597 1.333-1.333s-0.597-1.333-1.333-1.333v0zM20 29.333c-0.736 0-1.333 0.597-1.333 1.333v0 1.333c0 0.736 0.597 1.333 1.333 1.333s1.333-0.597 1.333-1.333v0-1.333c0-0.736-0.597-1.333-1.333-1.333v0zM28.48 26.667c-0.187-0.106-0.41-0.168-0.648-0.168-0.736 0-1.333 0.597-1.333 1.333 0 0.238 0.062 0.461 0.172 0.655l-0.003-0.007 0.947 0.947c0.241 0.24 0.573 0.388 0.94 0.388s0.699-0.148 0.94-0.388l-0 0c0.24-0.241 0.388-0.573 0.388-0.94s-0.148-0.699-0.388-0.94l0 0zM20 12.667c-4.050 0-7.333 3.283-7.333 7.333s3.283 7.333 7.333 7.333c4.050 0 7.333-3.283 7.333-7.333v0c-0.008-4.047-3.286-7.326-7.333-7.333h-0.001zM20 24.667c-2.577 0-4.667-2.089-4.667-4.667s2.089-4.667 4.667-4.667c2.577 0 4.667 2.089 4.667 4.667v0c0 2.577-2.089 4.667-4.667 4.667v0z"></path>
</svg>
