<!-- Generated by IcoMoon.io -->
<svg version="1.1" xmlns="http://www.w3.org/2000/svg" width="40" height="40" viewBox="0 0 40 40">
<title>tumblr</title>
<path d="M26.387 28c-0.636 0.271-1.375 0.439-2.149 0.466l-0.011 0c-0.076 0.009-0.164 0.014-0.253 0.014-1.289 0-2.333-1.045-2.333-2.333 0-0.122 0.009-0.243 0.028-0.36l-0.002 0.013v-8.307h5.333v-4h-5.333v-6.827h-3.893c-0.105 0.007-0.187 0.094-0.187 0.2 0 0 0 0 0 0v-0c-0.18 3.287-2.284 6.041-5.198 7.168l-0.056 0.019v3.44h2.667v8.72c0 2.973 2.2 7.213 8 7.12 1.96 0 4.147-0.853 4.627-1.56z"></path>
</svg>
