<!-- Generated by IcoMoon.io -->
<svg version="1.1" xmlns="http://www.w3.org/2000/svg" width="40" height="40" viewBox="0 0 40 40">
<title>tv-retro</title>
<path d="M28 12h-4.787l3.067-3.053c0.242-0.242 0.392-0.577 0.392-0.947 0-0.739-0.599-1.339-1.339-1.339-0.37 0-0.704 0.15-0.947 0.392v0l-4.387 4.333-1.56-2.667c-0.235-0.404-0.666-0.671-1.16-0.671-0.739 0-1.338 0.599-1.338 1.338 0 0.245 0.066 0.475 0.181 0.673l-0.003-0.006 1.213 1.947h-5.333c-2.209 0-4 1.791-4 4v0 10.667c0 2.209 1.791 4 4 4v0 1.333c0 0.736 0.597 1.333 1.333 1.333s1.333-0.597 1.333-1.333v0-1.333h10.667v1.333c0 0.736 0.597 1.333 1.333 1.333s1.333-0.597 1.333-1.333v0-1.333c2.209 0 4-1.791 4-4v0-10.667c0-2.209-1.791-4-4-4v0zM29.333 26.667c0 0.736-0.597 1.333-1.333 1.333v0h-16c-0.736 0-1.333-0.597-1.333-1.333v0-10.667c0-0.736 0.597-1.333 1.333-1.333v0h16c0.736 0 1.333 0.597 1.333 1.333v0z"></path>
</svg>
