<!-- Generated by IcoMoon.io -->
<svg version="1.1" xmlns="http://www.w3.org/2000/svg" width="40" height="40" viewBox="0 0 40 40">
<title>twitter-alt</title>
<path d="M34.655 9.267c0-0 0-0.001 0-0.001 0-0.736-0.597-1.333-1.333-1.333-0.252 0-0.487 0.070-0.688 0.191l0.006-0.003c-0.719 0.436-1.548 0.797-2.427 1.041l-0.070 0.017c-1.194-1.029-2.761-1.656-4.474-1.656-0.009 0-0.018 0-0.026 0h0.001c-3.77 0.004-6.84 2.999-6.965 6.74l-0 0.011c-3.687-0.603-6.848-2.502-9.064-5.206l-0.021-0.026c-0.249-0.301-0.623-0.491-1.041-0.491-0.036 0-0.072 0.001-0.107 0.004l0.005-0c-0.449 0.038-0.831 0.294-1.043 0.66l-0.003 0.006c-0.585 1.004-0.931 2.21-0.931 3.497 0 1.036 0.224 2.019 0.626 2.905l-0.018-0.044-0.003 0.003c-0.399 0.249-0.66 0.685-0.66 1.182 0 0.001 0 0.002 0 0.003v-0c-0 0.015-0 0.033-0 0.051 0 0.189 0.013 0.374 0.038 0.556l-0.002-0.021c0.146 1.744 0.918 3.284 2.089 4.415l0.002 0.002c-0.096 0.179-0.152 0.392-0.152 0.619 0 0.146 0.023 0.286 0.067 0.417l-0.003-0.009c0.548 1.672 1.665 3.031 3.117 3.878l0.033 0.018c-1.065 0.424-2.298 0.67-3.59 0.67-0.422 0-0.837-0.026-1.246-0.077l0.049 0.005c-0.050-0.007-0.107-0.010-0.166-0.010-0.736 0-1.333 0.597-1.333 1.333 0 0.468 0.242 0.881 0.607 1.118l0.005 0.003c2.64 1.724 5.872 2.749 9.344 2.749 0.001 0 0.002 0 0.002 0h-0c0.057 0.001 0.124 0.001 0.192 0.001 7.792 0 14.363-5.227 16.399-12.365l0.029-0.12c0.45-1.455 0.711-3.127 0.714-4.861v-0.001c0-0.087 0-0.177-0.001-0.267 1.272-1.368 2.052-3.208 2.052-5.231 0-0.13-0.003-0.26-0.010-0.389l0.001 0.018zM30.246 13.549c-0.195 0.229-0.314 0.529-0.314 0.857 0 0.028 0.001 0.056 0.003 0.083l-0-0.004c0.013 0.22 0.012 0.441 0.012 0.65-0.003 1.466-0.224 2.879-0.632 4.21l0.027-0.102c-1.677 6.138-7.203 10.575-13.765 10.575-0.104 0-0.208-0.001-0.312-0.003l0.015 0c-0.001 0-0.003 0-0.004 0-1.205 0-2.376-0.146-3.497-0.422l0.1 0.021c1.503-0.492 2.806-1.202 3.95-2.105l-0.027 0.020c0.311-0.246 0.509-0.624 0.509-1.048 0-0.729-0.584-1.321-1.31-1.334l-0.001-0c-1.154-0.019-2.194-0.491-2.952-1.246l0 0q0.299-0.057 0.594-0.141c0.564-0.164 0.969-0.676 0.969-1.283 0-0.645-0.458-1.183-1.067-1.307l-0.009-0.001c-1.327-0.269-2.411-1.123-2.989-2.276l-0.011-0.025c0.21 0.030 0.461 0.052 0.715 0.061l0.012 0c0.006 0 0.013 0 0.021 0 0.597 0 1.104-0.384 1.288-0.919l0.003-0.010c0.040-0.121 0.063-0.26 0.063-0.404 0-0.462-0.235-0.869-0.592-1.108l-0.005-0.003c-1.151-0.775-1.898-2.073-1.898-3.546 0-0.006 0-0.013 0-0.019v0.001c0-0.089 0.003-0.177 0.008-0.264 2.879 2.691 6.692 4.415 10.902 4.637l0.043 0.002c0.016 0.001 0.035 0.001 0.054 0.001 0.414 0 0.785-0.185 1.035-0.477l0.002-0.002c0.193-0.23 0.31-0.528 0.31-0.854 0-0.108-0.013-0.212-0.037-0.312l0.002 0.009c-0.073-0.291-0.115-0.626-0.116-0.971v-0.001c0.003-2.375 1.927-4.299 4.302-4.302h0c0.003 0 0.007 0 0.011 0 1.23 0 2.337 0.523 3.112 1.358l0.002 0.003c0.242 0.26 0.587 0.423 0.97 0.423 0.091 0 0.181-0.009 0.267-0.027l-0.009 0.001c0.635-0.124 1.177-0.273 1.703-0.456l-0.087 0.026c-0.384 0.776-0.84 1.445-1.376 2.041l0.007-0.008z"></path>
</svg>
