<!-- Generated by IcoMoon.io -->
<svg version="1.1" xmlns="http://www.w3.org/2000/svg" width="40" height="40" viewBox="0 0 40 40">
<title>water</title>
<path d="M7.627 14.2c0.285 0.085 0.532 0.194 0.763 0.329l-0.016-0.009c0.781 0.473 1.724 0.754 2.733 0.754s1.953-0.28 2.757-0.767l-0.024 0.013c0.491-0.283 1.079-0.449 1.707-0.449s1.216 0.167 1.724 0.458l-0.017-0.009c0.789 0.459 1.736 0.73 2.747 0.73s1.958-0.271 2.773-0.744l-0.026 0.014c0.491-0.283 1.079-0.449 1.707-0.449s1.216 0.167 1.724 0.458l-0.017-0.009c0.797 0.463 1.752 0.74 2.771 0.747h0.002c0.986-0.002 1.906-0.28 2.689-0.76l-0.023 0.013c0.214-0.126 0.462-0.235 0.723-0.314l0.024-0.006c0.559-0.167 0.96-0.677 0.96-1.28 0-0.736-0.597-1.333-1.333-1.333-0.133 0-0.262 0.019-0.383 0.056l0.009-0.002c-0.509 0.159-0.95 0.363-1.359 0.615l0.026-0.015c-0.401 0.238-0.884 0.379-1.4 0.379s-0.999-0.141-1.413-0.386l0.013 0.007c-0.871-0.498-1.915-0.791-3.027-0.791s-2.155 0.293-3.057 0.807l0.031-0.016c-0.405 0.239-0.893 0.381-1.413 0.381s-1.008-0.141-1.426-0.388l0.013 0.007c-0.871-0.498-1.915-0.791-3.027-0.791s-2.155 0.293-3.057 0.807l0.031-0.016c-0.401 0.238-0.884 0.379-1.4 0.379s-0.999-0.141-1.413-0.386l0.013 0.007c-0.383-0.237-0.825-0.441-1.291-0.589l-0.042-0.011c-0.112-0.034-0.24-0.053-0.373-0.053-0.736 0-1.333 0.597-1.333 1.333 0 0.603 0.401 1.113 0.951 1.278l0.009 0.002zM31.627 24.973c-0.509 0.159-0.95 0.363-1.359 0.615l0.026-0.015c-0.401 0.238-0.884 0.379-1.4 0.379s-0.999-0.141-1.413-0.386l0.013 0.007c-0.871-0.498-1.915-0.791-3.027-0.791s-2.155 0.293-3.057 0.807l0.031-0.016c-0.405 0.239-0.893 0.381-1.413 0.381s-1.008-0.141-1.426-0.388l0.013 0.007c-0.871-0.498-1.915-0.791-3.027-0.791s-2.155 0.293-3.057 0.807l0.031-0.016c-0.401 0.238-0.884 0.379-1.4 0.379s-0.999-0.141-1.413-0.386l0.013 0.007c-0.383-0.237-0.825-0.441-1.291-0.589l-0.042-0.011c-0.112-0.034-0.24-0.053-0.373-0.053-0.736 0-1.333 0.597-1.333 1.333 0 0.603 0.401 1.113 0.951 1.278l0.009 0.002c0.285 0.085 0.532 0.194 0.763 0.329l-0.016-0.009c0.781 0.473 1.724 0.754 2.733 0.754s1.953-0.28 2.757-0.767l-0.024 0.013c0.491-0.283 1.079-0.449 1.707-0.449s1.216 0.167 1.724 0.458l-0.017-0.009c0.789 0.459 1.736 0.73 2.747 0.73s1.958-0.271 2.773-0.744l-0.026 0.014c0.491-0.283 1.079-0.449 1.707-0.449s1.216 0.167 1.724 0.458l-0.017-0.009c0.797 0.463 1.752 0.74 2.771 0.747h0.002c0.986-0.002 1.906-0.28 2.689-0.76l-0.023 0.013c0.214-0.126 0.462-0.235 0.723-0.314l0.024-0.006c0.559-0.167 0.96-0.677 0.96-1.28 0-0.736-0.597-1.333-1.333-1.333-0.133 0-0.262 0.019-0.383 0.056l0.009-0.002zM31.627 18.307c-0.509 0.159-0.95 0.363-1.359 0.615l0.026-0.015c-0.401 0.238-0.884 0.379-1.4 0.379s-0.999-0.141-1.413-0.386l0.013 0.007c-0.871-0.498-1.915-0.791-3.027-0.791s-2.155 0.293-3.057 0.807l0.031-0.016c-0.405 0.239-0.893 0.381-1.413 0.381s-1.008-0.141-1.426-0.388l0.013 0.007c-0.871-0.498-1.915-0.791-3.027-0.791s-2.155 0.293-3.057 0.807l0.031-0.016c-0.401 0.238-0.884 0.379-1.4 0.379s-0.999-0.141-1.413-0.386l0.013 0.007c-0.383-0.237-0.825-0.441-1.291-0.589l-0.042-0.011c-0.14-0.054-0.302-0.086-0.471-0.086-0.615 0-1.133 0.417-1.287 0.983l-0.002 0.009c-0.034 0.112-0.053 0.24-0.053 0.373 0 0.603 0.401 1.113 0.951 1.278l0.009 0.002c0.285 0.085 0.532 0.194 0.763 0.329l-0.016-0.009c0.781 0.473 1.724 0.754 2.733 0.754s1.953-0.28 2.757-0.767l-0.024 0.013c0.491-0.283 1.079-0.449 1.707-0.449s1.216 0.167 1.724 0.458l-0.017-0.009c0.789 0.459 1.736 0.73 2.747 0.73s1.958-0.271 2.773-0.744l-0.026 0.014c0.491-0.283 1.079-0.449 1.707-0.449s1.216 0.167 1.724 0.458l-0.017-0.009c0.797 0.463 1.752 0.74 2.771 0.747h0.002c0.986-0.002 1.906-0.28 2.689-0.76l-0.023 0.013c0.214-0.126 0.462-0.235 0.722-0.314l0.024-0.006c0.559-0.167 0.96-0.677 0.96-1.28 0-0.736-0.597-1.333-1.333-1.333-0.133 0-0.262 0.019-0.383 0.056l0.009-0.002z"></path>
</svg>
