<!-- Generated by IcoMoon.io -->
<svg version="1.1" xmlns="http://www.w3.org/2000/svg" width="40" height="40" viewBox="0 0 40 40">
<title>webcam</title>
<path d="M20 21.333c2.209 0 4-1.791 4-4s-1.791-4-4-4c-2.209 0-4 1.791-4 4v0c0 2.209 1.791 4 4 4v0zM20 16c0.736 0 1.333 0.597 1.333 1.333s-0.597 1.333-1.333 1.333c-0.736 0-1.333-0.597-1.333-1.333v0c0-0.736 0.597-1.333 1.333-1.333v0zM32.787 28.213c-0.689-2.243-1.882-4.159-3.451-5.691l-0.003-0.003c0.839-1.489 1.333-3.269 1.333-5.164 0-5.891-4.776-10.667-10.667-10.667s-10.667 4.776-10.667 10.667c0 1.895 0.494 3.675 1.361 5.218l-0.028-0.054c-1.581 1.531-2.779 3.448-3.442 5.6l-0.025 0.094c-0.102 0.336-0.161 0.723-0.161 1.123 0 0.898 0.296 1.726 0.795 2.394l-0.007-0.010c0.737 0.984 1.9 1.613 3.21 1.613 0.011 0 0.021-0 0.032-0h17.865c0.005 0 0.011 0 0.017 0 1.31 0 2.473-0.63 3.203-1.603l0.007-0.010c0.492-0.657 0.788-1.486 0.788-2.383 0-0.4-0.059-0.787-0.168-1.152l0.007 0.028zM20 9.333c4.418 0 8 3.582 8 8s-3.582 8-8 8c-4.418 0-8-3.582-8-8v0c0-4.418 3.582-8 8-8v0zM30.027 30.12c-0.245 0.333-0.636 0.547-1.077 0.547-0.006 0-0.012-0-0.018-0h-17.866c-0.005 0-0.011 0-0.017 0-0.441 0-0.831-0.214-1.074-0.543l-0.003-0.004c-0.159-0.217-0.254-0.489-0.254-0.783 0-0.134 0.020-0.264 0.057-0.386l-0.002 0.009c0.508-1.679 1.372-3.121 2.509-4.296l-0.003 0.003c1.946 2.039 4.685 3.306 7.72 3.306s5.774-1.267 7.716-3.302l0.004-0.004c1.134 1.173 1.998 2.614 2.487 4.219l0.019 0.074c0.034 0.113 0.054 0.242 0.054 0.377 0 0.294-0.095 0.566-0.257 0.787l0.003-0.004z"></path>
</svg>
