<!-- Generated by IcoMoon.io -->
<svg version="1.1" xmlns="http://www.w3.org/2000/svg" width="40" height="40" viewBox="0 0 40 40">
<title>wheelchair-alt</title>
<path d="M30.667 25.573v-0.24c-0.005-1.727-1.103-3.196-2.639-3.751l-0.028-0.009v-8.24h1.333c0.736 0 1.333-0.597 1.333-1.333s-0.597-1.333-1.333-1.333v0h-16c0-2.209-1.791-4-4-4v0h-1.333c-0.736 0-1.333 0.597-1.333 1.333s0.597 1.333 1.333 1.333v0h1.333c0.736 0 1.333 0.597 1.333 1.333v0 9.893c-2.374 1.055-4 3.393-4 6.11 0 3.682 2.985 6.667 6.667 6.667s6.667-2.985 6.667-6.667c0-0.001 0-0.002 0-0.004v0c0-0.003 0-0.006 0-0.009 0-0.962-0.206-1.876-0.577-2.699l0.017 0.042h7.227c0.736 0 1.333 0.597 1.333 1.333v0 0.24c-1.567 0.566-2.667 2.040-2.667 3.771 0 2.209 1.791 4 4 4s4-1.791 4-4c0-1.731-1.1-3.206-2.639-3.762l-0.028-0.009zM13.333 30.667c-2.209 0-4-1.791-4-4s1.791-4 4-4c2.209 0 4 1.791 4 4v0c0 2.209-1.791 4-4 4v0zM25.333 21.333h-8c-1.090-0.832-2.471-1.333-3.969-1.333-0.011 0-0.022 0-0.033 0h0.002v-1.333h12zM25.333 16h-12v-2.667h12zM29.333 30.667c-0.736 0-1.333-0.597-1.333-1.333s0.597-1.333 1.333-1.333c0.736 0 1.333 0.597 1.333 1.333v0c0 0.736-0.597 1.333-1.333 1.333v0zM13.333 25.333c-0.736 0-1.333 0.597-1.333 1.333s0.597 1.333 1.333 1.333c0.736 0 1.333-0.597 1.333-1.333v0c0-0.736-0.597-1.333-1.333-1.333v0z"></path>
</svg>
