<!-- Generated by IcoMoon.io -->
<svg version="1.1" xmlns="http://www.w3.org/2000/svg" width="40" height="40" viewBox="0 0 40 40">
<title>wifi-router</title>
<path d="M15.867 26.667c-0.736 0-1.333 0.597-1.333 1.333s0.597 1.333 1.333 1.333c0.736 0 1.333-0.597 1.333-1.333v0c0-0.736-0.597-1.333-1.333-1.333v0zM11.867 26.667c-0.736 0-1.333 0.597-1.333 1.333s0.597 1.333 1.333 1.333c0.736 0 1.333-0.597 1.333-1.333v0c0-0.736-0.597-1.333-1.333-1.333v0zM19.867 26.667c-0.736 0-1.333 0.597-1.333 1.333s0.597 1.333 1.333 1.333c0.736 0 1.333-0.597 1.333-1.333v0c0-0.736-0.597-1.333-1.333-1.333v0zM24 15.333c0.235-0.4 0.663-0.664 1.153-0.664s0.918 0.264 1.15 0.658l0.003 0.006c0.235 0.402 0.664 0.667 1.155 0.667 0.242 0 0.469-0.064 0.665-0.177l-0.006 0.003c0.428-0.228 0.714-0.671 0.714-1.181 0-0.237-0.062-0.46-0.17-0.653l0.003 0.007c-0.704-1.207-1.992-2.004-3.467-2.004s-2.763 0.798-3.456 1.985l-0.010 0.019c-0.056 0.141-0.088 0.305-0.088 0.476 0 0.736 0.597 1.333 1.333 1.333 0.409 0 0.775-0.184 1.020-0.474l0.002-0.002zM33.333 11.333c-1.644-2.807-4.646-4.662-8.080-4.662s-6.436 1.855-8.056 4.618l-0.024 0.044c-0.113 0.192-0.18 0.422-0.18 0.668 0 0.493 0.268 0.924 0.667 1.155l0.006 0.003c0.173 0.1 0.378 0.163 0.597 0.173l0.003 0c0.002 0 0.003 0 0.005 0 0.491 0 0.92-0.265 1.151-0.66l0.003-0.006c1.174-2.007 3.319-3.333 5.773-3.333s4.599 1.326 5.756 3.302l0.017 0.031c0.234 0.405 0.665 0.673 1.158 0.673 0.246 0 0.477-0.067 0.675-0.183l-0.006 0.003c0.422-0.229 0.703-0.669 0.703-1.175 0-0.239-0.063-0.464-0.173-0.658l0.003 0.007zM27.867 22.667h-1.333v-4c0-0.736-0.597-1.333-1.333-1.333s-1.333 0.597-1.333 1.333v0 4h-13.333c-2.209 0-4 1.791-4 4v0 2.667c0 2.209 1.791 4 4 4v0h17.333c2.209 0 4-1.791 4-4v0-2.667c0-2.209-1.791-4-4-4v0zM29.2 29.333c0 0.736-0.597 1.333-1.333 1.333v0h-17.333c-0.736 0-1.333-0.597-1.333-1.333v0-2.667c0-0.736 0.597-1.333 1.333-1.333v0h17.333c0.736 0 1.333 0.597 1.333 1.333v0z"></path>
</svg>
