<!-- Generated by IcoMoon.io -->
<svg version="1.1" xmlns="http://www.w3.org/2000/svg" width="40" height="40" viewBox="0 0 40 40">
<title>wrench</title>
<path d="M32.947 24.773l-6.027-6.013c0.119-0.552 0.187-1.187 0.187-1.837 0-0.010-0-0.021-0-0.031v0.002c-0.002-5.647-4.58-10.224-10.227-10.224-1.568 0-3.054 0.353-4.382 0.984l0.062-0.026c-0.396 0.184-0.682 0.545-0.759 0.979l-0.001 0.008c-0.012 0.069-0.020 0.148-0.020 0.228 0 0.369 0.15 0.704 0.393 0.945l0 0 5.8 5.787-2.4 2.4-5.787-5.8c-0.24-0.236-0.57-0.382-0.934-0.382-0.085 0-0.167 0.008-0.248 0.023l0.008-0.001c-0.439 0.075-0.8 0.356-0.983 0.739l-0.003 0.008c-0.604 1.266-0.957 2.752-0.957 4.32 0 5.648 4.579 10.227 10.227 10.227 0.023 0 0.045-0 0.067-0l-0.003 0c0.009 0 0.019 0 0.029 0 0.65 0 1.285-0.068 1.897-0.197l-0.060 0.011 6.013 6.027c0.242 0.244 0.577 0.394 0.947 0.394s0.705-0.151 0.947-0.394l0-0c0.244-0.242 0.394-0.577 0.394-0.947s-0.151-0.705-0.394-0.947l-6.533-6.533c-0.241-0.239-0.573-0.387-0.94-0.387-0.116 0-0.229 0.015-0.336 0.043l0.009-0.002c-0.591 0.165-1.27 0.262-1.97 0.267l-0.003 0c-0.020 0-0.043 0-0.067 0-4.171 0-7.553-3.377-7.56-7.546v-0.001c-0-0.009-0-0.020-0-0.031 0-0.46 0.039-0.911 0.113-1.35l-0.007 0.047 5.227 5.24c0.242 0.244 0.577 0.394 0.947 0.394s0.705-0.151 0.947-0.394l4.24-4.28c0.232-0.24 0.375-0.566 0.375-0.927s-0.143-0.687-0.375-0.927l0 0-5.187-5.227c0.395-0.068 0.851-0.107 1.315-0.107 0.006 0 0.013 0 0.019 0h-0.001c4.17 0.008 7.547 3.389 7.547 7.56 0 0 0 0 0 0v0c-0.005 0.704-0.102 1.383-0.28 2.028l0.013-0.055c-0.026 0.098-0.041 0.211-0.041 0.327 0 0.367 0.148 0.699 0.387 0.94l6.533 6.533c0.242 0.242 0.577 0.392 0.947 0.392 0.739 0 1.339-0.599 1.339-1.339 0-0.37-0.15-0.704-0.392-0.947v0z"></path>
</svg>
