<!-- Generated by IcoMoon.io -->
<svg version="1.1" xmlns="http://www.w3.org/2000/svg" width="40" height="40" viewBox="0 0 40 40">
<title>yen</title>
<path d="M28.733 6.893c-0.206-0.137-0.459-0.219-0.732-0.219-0.46 0-0.866 0.233-1.105 0.587l-0.003 0.005-6.893 10.333-6.893-10.333c-0.246-0.304-0.62-0.497-1.038-0.497-0.736 0-1.333 0.597-1.333 1.333 0 0.231 0.059 0.448 0.162 0.637l-0.004-0.007 6.667 9.933h-4.227c-0.736 0-1.333 0.597-1.333 1.333s0.597 1.333 1.333 1.333v0h5.333v2.667h-5.333c-0.736 0-1.333 0.597-1.333 1.333s0.597 1.333 1.333 1.333v0h5.333v5.333c0 0.736 0.597 1.333 1.333 1.333s1.333-0.597 1.333-1.333v0-5.333h5.333c0.736 0 1.333-0.597 1.333-1.333s-0.597-1.333-1.333-1.333v0h-5.333v-2.667h5.333c0.736 0 1.333-0.597 1.333-1.333s-0.597-1.333-1.333-1.333v0h-4.173l6.667-9.933c0.127-0.201 0.203-0.445 0.203-0.707 0-0.476-0.249-0.893-0.624-1.129l-0.006-0.003z"></path>
</svg>
