<!-- Generated by IcoMoon.io -->
<svg version="1.1" xmlns="http://www.w3.org/2000/svg" width="40" height="40" viewBox="0 0 40 40">
<title>arrow-up</title>
<path fill="#37352f" d="M27.613 19.053l-6.667-6.667c-0.123-0.118-0.269-0.213-0.431-0.277l-0.009-0.003c-0.15-0.063-0.324-0.1-0.507-0.1s-0.357 0.037-0.515 0.103l0.009-0.003c-0.171 0.067-0.317 0.162-0.44 0.28l0-0-6.667 6.667c-0.242 0.242-0.392 0.577-0.392 0.947 0 0.739 0.599 1.339 1.339 1.339 0.37 0 0.704-0.15 0.947-0.392v0l4.387-4.4v10.12c0 0.736 0.597 1.333 1.333 1.333s1.333-0.597 1.333-1.333v0-10.12l4.387 4.4c0.242 0.244 0.577 0.394 0.947 0.394s0.705-0.151 0.947-0.394l0-0c0.244-0.242 0.394-0.577 0.394-0.947s-0.151-0.705-0.394-0.947l-0-0z"></path>
</svg>
