<!-- Generated by IcoMoon.io -->
<svg version="1.1" xmlns="http://www.w3.org/2000/svg" width="40" height="40" viewBox="0 0 40 40">
<title>arrow-down-right</title>
<path fill="#37352f" d="M26.667 12c-0.736 0-1.333 0.597-1.333 1.333v0 10.12l-11.053-11.067c-0.242-0.242-0.577-0.392-0.947-0.392-0.739 0-1.339 0.599-1.339 1.339 0 0.37 0.15 0.704 0.392 0.947v0l11.067 11.053h-10.12c-0.736 0-1.333 0.597-1.333 1.333s0.597 1.333 1.333 1.333v0h13.333c0.184-0.002 0.357-0.041 0.515-0.11l-0.009 0.003c0.327-0.138 0.582-0.393 0.717-0.711l0.003-0.009c0.065-0.149 0.104-0.323 0.107-0.506v-13.334c0-0.736-0.597-1.333-1.333-1.333v0z"></path>
</svg>
