<!-- Generated by IcoMoon.io -->
<svg version="1.1" xmlns="http://www.w3.org/2000/svg" width="40" height="40" viewBox="0 0 40 40">
<title>bold</title>
<path fill="#37352f" d="M26 16.667c0-2.577-2.089-4.667-4.667-4.667v0h-6c-0.736 0-1.333 0.597-1.333 1.333v0 13.333c0 0.736 0.597 1.333 1.333 1.333v0h6c0.006 0 0.013 0 0.020 0 2.57 0 4.653-2.083 4.653-4.653 0-1.313-0.544-2.499-1.419-3.345l-0.001-0.001c0.869-0.846 1.41-2.026 1.413-3.333v-0.001zM21.333 25.333h-4.667v-4h4.667c1.105 0 2 0.895 2 2s-0.895 2-2 2v0zM21.333 18.667h-4.667v-4h4.667c1.105 0 2 0.895 2 2s-0.895 2-2 2v0z"></path>
</svg>
