<!-- Generated by IcoMoon.io -->
<svg version="1.1" xmlns="http://www.w3.org/2000/svg" width="40" height="40" viewBox="0 0 40 40">
<title>bus-alt</title>
<path fill="#37352f" d="M28.667 6.667h-16c-2.209 0-4 1.791-4 4v0 16c0.005 1.727 1.103 3.196 2.639 3.751l0.028 0.009v1.573c0 0.736 0.597 1.333 1.333 1.333s1.333-0.597 1.333-1.333v0-1.333h13.333v1.333c0 0.736 0.597 1.333 1.333 1.333s1.333-0.597 1.333-1.333v0-1.573c1.563-0.564 2.662-2.033 2.667-3.759v-16.001c0-2.209-1.791-4-4-4v0zM11.333 14.667h8v5.333h-8zM30 26.667c0 0.736-0.597 1.333-1.333 1.333v0h-16c-0.736 0-1.333-0.597-1.333-1.333v0-4h18.667zM30 20h-8v-5.333h8zM30 12h-18.667v-1.333c0-0.736 0.597-1.333 1.333-1.333v0h16c0.736 0 1.333 0.597 1.333 1.333v0zM25.493 26.56c0.149 0.065 0.323 0.104 0.506 0.107h0.001c0.736 0 1.333-0.597 1.333-1.333v0c0.003-0.040 0.005-0.086 0.005-0.133s-0.002-0.093-0.005-0.139l0 0.006c-0.016-0.090-0.044-0.171-0.082-0.245l0.002 0.005c-0.032-0.092-0.072-0.171-0.122-0.243l0.002 0.003c-0.053-0.075-0.105-0.14-0.162-0.202l0.002 0.002-0.2-0.16c-0.069-0.048-0.148-0.088-0.233-0.118l-0.007-0.002c-0.077-0.048-0.166-0.085-0.261-0.106l-0.006-0.001c-0.082-0.018-0.176-0.028-0.273-0.028-0.367 0-0.699 0.148-0.941 0.388l0-0c-0.055 0.060-0.107 0.125-0.156 0.194l-0.004 0.006c-0.048 0.069-0.088 0.148-0.118 0.233l-0.002 0.007c-0.036 0.069-0.064 0.15-0.079 0.235l-0.001 0.005c-0.003 0.040-0.005 0.086-0.005 0.133s0.002 0.093 0.005 0.139l-0-0.006c0.002 0.364 0.149 0.694 0.387 0.933l-0-0c0.114 0.131 0.251 0.238 0.406 0.316l0.008 0.004zM14.827 26.56c0.149 0.065 0.323 0.104 0.506 0.107h0.001c0.736 0 1.333-0.597 1.333-1.333v0c0.003-0.040 0.005-0.086 0.005-0.133s-0.002-0.093-0.005-0.139l0 0.006c-0.016-0.090-0.044-0.171-0.082-0.245l0.002 0.005c-0.032-0.092-0.072-0.171-0.122-0.243l0.002 0.003c-0.053-0.075-0.105-0.14-0.162-0.202l0.002 0.002-0.2-0.16-0.24-0.12-0.267-0.107c-0.082-0.018-0.176-0.028-0.273-0.028-0.367 0-0.699 0.148-0.941 0.388l0-0c-0.055 0.060-0.107 0.125-0.156 0.194l-0.004 0.006c-0.048 0.069-0.088 0.148-0.118 0.233l-0.002 0.007c-0.036 0.069-0.064 0.15-0.079 0.235l-0.001 0.005c-0.003 0.040-0.005 0.086-0.005 0.133s0.002 0.093 0.005 0.139l-0-0.006c0.002 0.364 0.149 0.694 0.387 0.933l-0-0c0.114 0.131 0.251 0.238 0.406 0.316l0.008 0.004z"></path>
</svg>
