<!-- Generated by IcoMoon.io -->
<svg version="1.1" xmlns="http://www.w3.org/2000/svg" width="40" height="40" viewBox="0 0 40 40">
<title>bus</title>
<path fill="#37352f" d="M15.333 26.667c0.736 0 1.333-0.597 1.333-1.333v0c0.003-0.040 0.005-0.086 0.005-0.133s-0.002-0.093-0.005-0.139l0 0.006c-0.016-0.090-0.044-0.171-0.082-0.245l0.002 0.005c-0.032-0.092-0.072-0.171-0.122-0.243l0.002 0.003-0.16-0.2c-0.123-0.118-0.269-0.213-0.431-0.277l-0.009-0.003c-0.166-0.080-0.362-0.127-0.568-0.127-0.082 0-0.162 0.007-0.24 0.022l0.008-0.001-0.24 0.080-0.24 0.12c-0.075 0.053-0.14 0.105-0.202 0.162l0.002-0.002-0.16 0.2c-0.048 0.069-0.088 0.148-0.118 0.233l-0.002 0.007c-0.036 0.069-0.064 0.15-0.079 0.235l-0.001 0.005c-0.003 0.040-0.005 0.086-0.005 0.133s0.002 0.093 0.005 0.139l-0-0.006c0 0.736 0.597 1.333 1.333 1.333v0zM26 26.667c0.736 0 1.333-0.597 1.333-1.333v0c0.003-0.040 0.005-0.086 0.005-0.133s-0.002-0.093-0.005-0.139l0 0.006c-0.016-0.090-0.044-0.171-0.082-0.245l0.002 0.005c-0.032-0.092-0.072-0.171-0.122-0.243l0.002 0.003-0.16-0.2c-0.125-0.114-0.271-0.208-0.43-0.276l-0.010-0.004c-0.15-0.063-0.324-0.1-0.507-0.1s-0.357 0.037-0.515 0.103l0.009-0.003c-0.169 0.072-0.315 0.166-0.441 0.281l0.001-0.001-0.16 0.2c-0.048 0.069-0.088 0.148-0.118 0.233l-0.002 0.007c-0.036 0.069-0.064 0.15-0.079 0.235l-0.001 0.005c-0.003 0.040-0.005 0.086-0.005 0.133s0.002 0.093 0.005 0.139l-0-0.006c0.002 0.364 0.149 0.694 0.387 0.933l-0-0c0.229 0.234 0.542 0.384 0.89 0.4l0.003 0zM22 10.667h-2.667c-0.736 0-1.333 0.597-1.333 1.333s0.597 1.333 1.333 1.333v0h2.667c0.736 0 1.333-0.597 1.333-1.333s-0.597-1.333-1.333-1.333v0zM28.667 6.667h-16c-2.209 0-4 1.791-4 4v0 16c0.005 1.727 1.103 3.196 2.639 3.751l0.028 0.009v1.573c0 0.736 0.597 1.333 1.333 1.333s1.333-0.597 1.333-1.333v0-1.333h13.333v1.333c0 0.736 0.597 1.333 1.333 1.333s1.333-0.597 1.333-1.333v0-1.573c1.563-0.564 2.662-2.033 2.667-3.759v-16.001c0-2.209-1.791-4-4-4v0zM30 26.667c0 0.736-0.597 1.333-1.333 1.333v0h-16c-0.736 0-1.333-0.597-1.333-1.333v0-4h18.667zM30 20h-18.667v-9.333c0-0.736 0.597-1.333 1.333-1.333v0h16c0.736 0 1.333 0.597 1.333 1.333v0z"></path>
</svg>
