<!-- Generated by IcoMoon.io -->
<svg version="1.1" xmlns="http://www.w3.org/2000/svg" width="40" height="40" viewBox="0 0 40 40">
<title>calculator</title>
<path fill="#37352f" d="M20.947 27.053c-0.063-0.058-0.133-0.111-0.207-0.157l-0.006-0.003c-0.065-0.051-0.14-0.091-0.221-0.118l-0.005-0.002c-0.073-0.038-0.159-0.066-0.249-0.079l-0.004-0.001c-0.077-0.017-0.166-0.027-0.256-0.027-0.182 0-0.355 0.039-0.511 0.11l0.008-0.003c-0.336 0.124-0.596 0.384-0.717 0.712l-0.003 0.008c-0.068 0.14-0.107 0.304-0.107 0.478 0 0.010 0 0.020 0 0.030l-0-0.001c-0 0.005-0 0.011-0 0.016 0 0.177 0.034 0.345 0.097 0.499l-0.003-0.009c0.082 0.168 0.18 0.313 0.295 0.442l-0.002-0.002c0.241 0.239 0.573 0.387 0.939 0.387 0.003 0 0.005 0 0.008-0h-0c0.009 0 0.019 0 0.029 0 0.174 0 0.338-0.039 0.485-0.11l-0.007 0.003c0.169-0.072 0.315-0.166 0.441-0.281l-0.001 0.001c0.239-0.241 0.387-0.573 0.387-0.939 0-0.003 0-0.005-0-0.008v0c-0.002-0.184-0.041-0.357-0.11-0.515l0.003 0.009c-0.067-0.171-0.162-0.317-0.28-0.44l0 0zM15.4 21.56c-0.065-0.051-0.14-0.091-0.221-0.118l-0.005-0.002c-0.073-0.047-0.157-0.084-0.248-0.106l-0.005-0.001c-0.078-0.019-0.168-0.030-0.26-0.030s-0.182 0.011-0.268 0.031l0.008-0.002-0.24 0.080-0.24 0.12-0.2 0.16c-0.239 0.251-0.387 0.591-0.387 0.966 0 0.003 0 0.005 0 0.008v-0c0 0.002-0 0.005-0 0.008 0 0.366 0.148 0.698 0.387 0.939l-0-0c0.125 0.114 0.271 0.208 0.43 0.276l0.010 0.004c0.15 0.063 0.324 0.1 0.507 0.1 0.734 0 1.33-0.593 1.333-1.326v-0c-0.005-0.368-0.152-0.701-0.387-0.947l0.001 0.001zM15.613 27.053c-0.123-0.118-0.269-0.213-0.431-0.277l-0.009-0.003c-0.164-0.078-0.357-0.124-0.561-0.124-0.075 0-0.149 0.006-0.22 0.018l0.008-0.001-0.24 0.080c-0.092 0.032-0.171 0.072-0.243 0.122l0.003-0.002c-0.075 0.053-0.14 0.105-0.202 0.162l0.002-0.002c-0.118 0.123-0.213 0.269-0.277 0.431l-0.003 0.009c-0.068 0.149-0.107 0.323-0.107 0.507s0.039 0.358 0.11 0.515l-0.003-0.008c0.072 0.169 0.166 0.315 0.281 0.441l-0.001-0.001c0.239 0.251 0.574 0.408 0.946 0.413h0.001c0.009 0 0.019 0 0.029 0 0.174 0 0.338-0.039 0.485-0.11l-0.007 0.003c0.169-0.072 0.315-0.166 0.441-0.281l-0.001 0.001c0.114-0.125 0.208-0.271 0.276-0.43l0.004-0.010c0.068-0.149 0.107-0.323 0.107-0.507s-0.039-0.358-0.11-0.515l0.003 0.008c-0.067-0.171-0.162-0.317-0.28-0.44l0 0zM19.493 21.44c-0.171 0.067-0.317 0.162-0.44 0.28l0-0c-0.235 0.246-0.381 0.579-0.387 0.946v0.001c0.004 0.734 0.599 1.327 1.333 1.327 0.183 0 0.357-0.037 0.515-0.103l-0.009 0.003c0.169-0.072 0.315-0.166 0.441-0.281l-0.001 0.001c0.239-0.241 0.387-0.573 0.387-0.939 0-0.003 0-0.005-0-0.008v0c-0.005-0.368-0.152-0.701-0.387-0.947l0.001 0.001c-0.241-0.238-0.571-0.384-0.936-0.384-0.187 0-0.364 0.038-0.526 0.108l0.009-0.003zM26.28 27.053c-0.125-0.114-0.271-0.208-0.43-0.276l-0.010-0.004c-0.153-0.066-0.33-0.104-0.517-0.104-0.365 0-0.696 0.147-0.937 0.384l0-0c-0.118 0.123-0.213 0.269-0.277 0.431l-0.003 0.009c-0.068 0.149-0.107 0.323-0.107 0.507s0.039 0.358 0.11 0.515l-0.003-0.008c0.072 0.169 0.166 0.315 0.281 0.441l-0.001-0.001c0.241 0.239 0.573 0.387 0.939 0.387 0.003 0 0.005 0 0.008-0h-0c0.009 0 0.019 0 0.029 0 0.174 0 0.338-0.039 0.485-0.11l-0.007 0.003c0.169-0.072 0.315-0.166 0.441-0.281l-0.001 0.001c0.238-0.241 0.384-0.571 0.384-0.936 0-0.187-0.038-0.364-0.108-0.526l0.003 0.009c-0.067-0.171-0.162-0.317-0.28-0.44l0 0zM25.333 10.667h-10.667c-0.736 0-1.333 0.597-1.333 1.333v0 5.333c0 0.736 0.597 1.333 1.333 1.333v0h10.667c0.736 0 1.333-0.597 1.333-1.333v0-5.333c0-0.736-0.597-1.333-1.333-1.333v0zM24 16h-8v-2.667h8zM28 5.333h-16c-2.209 0-4 1.791-4 4v0 21.333c0 2.209 1.791 4 4 4v0h16c2.209 0 4-1.791 4-4v0-21.333c0-2.209-1.791-4-4-4v0zM29.333 30.667c0 0.736-0.597 1.333-1.333 1.333v0h-16c-0.736 0-1.333-0.597-1.333-1.333v0-21.333c0-0.736 0.597-1.333 1.333-1.333v0h16c0.736 0 1.333 0.597 1.333 1.333v0zM26.067 21.56c-0.065-0.051-0.14-0.091-0.221-0.118l-0.005-0.002c-0.073-0.038-0.159-0.066-0.249-0.079l-0.004-0.001c-0.078-0.019-0.168-0.030-0.26-0.030s-0.182 0.011-0.268 0.031l0.008-0.002-0.24 0.080-0.24 0.12-0.2 0.16c-0.235 0.246-0.381 0.579-0.387 0.946v0.001c0.004 0.734 0.599 1.327 1.333 1.327 0.183 0 0.357-0.037 0.515-0.103l-0.009 0.003c0.169-0.072 0.315-0.166 0.441-0.281l-0.001 0.001c0.239-0.241 0.387-0.573 0.387-0.939 0-0.003 0-0.005-0-0.008v0c-0.005-0.368-0.152-0.701-0.387-0.947l0.001 0.001z"></path>
</svg>
