<!-- Generated by IcoMoon.io -->
<svg version="1.1" xmlns="http://www.w3.org/2000/svg" width="40" height="40" viewBox="0 0 40 40">
<title>cloud-sun</title>
<path fill="#37352f" d="M32 16h-1.067c-0.15-0.641-0.389-1.206-0.707-1.717l0.014 0.024 0.747-0.747c0.199-0.232 0.321-0.535 0.321-0.867 0-0.736-0.597-1.333-1.333-1.333-0.332 0-0.636 0.121-0.869 0.322l0.002-0.001-0.747 0.747c-0.487-0.304-1.052-0.543-1.655-0.686l-0.038-0.008v-1.067c0-0.736-0.597-1.333-1.333-1.333s-1.333 0.597-1.333 1.333v0 1.067c-0.636 0.148-1.197 0.387-1.702 0.707l0.022-0.013-0.76-0.747c-0.232-0.199-0.535-0.321-0.867-0.321-0.736 0-1.333 0.597-1.333 1.333 0 0.332 0.121 0.636 0.322 0.869l-0.001-0.002 0.747 0.76c-0.12 0.2-0.213 0.427-0.32 0.64-0.631-0.185-1.356-0.292-2.106-0.293h-0.001c-0.001 0-0.003 0-0.005 0-4.009 0-7.329 2.949-7.91 6.796l-0.005 0.044c-1.981 0.569-3.407 2.365-3.407 4.493 0 2.575 2.086 4.663 4.66 4.667h12.227c3.189 0 5.773-2.585 5.773-5.773v0c-0.001-0.745-0.148-1.455-0.414-2.104l0.014 0.037 0.173 0.16c0.24 0.238 0.569 0.385 0.933 0.387h0c0.002 0 0.005 0 0.008 0 0.366 0 0.698-0.148 0.939-0.387l-0 0c0.24-0.241 0.388-0.573 0.388-0.94s-0.148-0.699-0.388-0.94l-0.747-0.747c0.304-0.487 0.543-1.052 0.686-1.655l0.008-0.038h1.067c0.736 0 1.333-0.597 1.333-1.333s-0.597-1.333-1.333-1.333v0zM23.56 28h-12.227c-1.105 0-2-0.895-2-2s0.895-2 2-2v0c0.736 0 1.333-0.597 1.333-1.333v0c0.014-2.935 2.396-5.309 5.333-5.309 2.321 0 4.295 1.482 5.029 3.552l0.012 0.037c0.157 0.463 0.55 0.807 1.032 0.892l0.008 0.001c1.453 0.279 2.536 1.54 2.536 3.054 0 1.698-1.362 3.078-3.053 3.106l-0.003 0zM27.56 19.533v0c-0.228 0.215-0.492 0.394-0.782 0.526l-0.018 0.007c-0.411-0.271-0.883-0.502-1.384-0.668l-0.042-0.012c-0.633-1.361-1.584-2.483-2.76-3.302l-0.027-0.018c0.154-0.356 0.361-0.661 0.614-0.921l-0.001 0.001c0.574-0.533 1.345-0.86 2.193-0.86s1.619 0.327 2.195 0.862l-0.002-0.002c0.552 0.568 0.892 1.344 0.892 2.2s-0.34 1.632-0.892 2.201l0.001-0.001z"></path>
</svg>
