<!-- Generated by IcoMoon.io -->
<svg version="1.1" xmlns="http://www.w3.org/2000/svg" width="40" height="40" viewBox="0 0 40 40">
<title>cloud-check</title>
<path fill="#37352f" d="M23.053 22.92l-4.387 4.387-1.72-1.72c-0.242-0.244-0.577-0.394-0.947-0.394s-0.705 0.151-0.947 0.394l-0 0c-0.24 0.241-0.388 0.573-0.388 0.94s0.148 0.699 0.388 0.94l2.667 2.667c0.242 0.244 0.577 0.394 0.947 0.394s0.705-0.151 0.947-0.394l5.333-5.333c0.24-0.241 0.388-0.573 0.388-0.94s-0.148-0.699-0.388-0.94l0 0c-0.242-0.244-0.577-0.394-0.947-0.394s-0.705 0.151-0.947 0.394l-0 0zM28.56 15.093c-1.476-3.327-4.75-5.606-8.557-5.606-4.734 0-8.644 3.524-9.251 8.092l-0.005 0.048c-2.343 0.596-4.049 2.687-4.049 5.176 0 2.303 1.46 4.266 3.505 5.012l0.037 0.012c0.18 0.096 0.393 0.153 0.62 0.153 0.736 0 1.333-0.597 1.333-1.333 0-0.654-0.471-1.198-1.091-1.311l-0.008-0.001c-1.035-0.382-1.76-1.36-1.76-2.508 0-0.009 0-0.018 0-0.027v0.001c0-1.473 1.194-2.667 2.667-2.667v0c0.736 0 1.333-0.597 1.333-1.333v0c0.016-3.67 2.994-6.639 6.667-6.639 2.908 0 5.381 1.862 6.292 4.459l0.014 0.047c0.161 0.458 0.553 0.796 1.032 0.879l0.008 0.001c1.867 0.362 3.257 1.984 3.257 3.93 0 1.831-1.23 3.375-2.909 3.849l-0.028 0.007c-0.667 0.086-1.177 0.65-1.177 1.333 0 0.742 0.602 1.344 1.344 1.344 0.059 0 0.117-0.004 0.173-0.011l-0.007 0.001h0.333c2.88-0.779 4.964-3.369 4.964-6.445 0-2.994-1.973-5.526-4.69-6.369l-0.047-0.013z"></path>
</svg>
