<!-- Generated by IcoMoon.io -->
<svg version="1.1" xmlns="http://www.w3.org/2000/svg" width="40" height="40" viewBox="0 0 40 40">
<title>comment-question</title>
<path fill="#37352f" d="M23.693 11.827c0.189 0.109 0.416 0.174 0.658 0.174 0.491 0 0.92-0.266 1.152-0.661l0.003-0.006c0.234-0.407 0.665-0.676 1.16-0.676 0.736 0 1.333 0.597 1.333 1.333 0 0.003 0 0.007-0 0.010v-0.001c0 0.736-0.597 1.333-1.333 1.333v0c-0.736 0-1.333 0.597-1.333 1.333s0.597 1.333 1.333 1.333v0c2.208-0.001 3.997-1.792 3.997-4s-1.791-4-4-4c-1.473 0-2.76 0.796-3.454 1.981l-0.010 0.019c-0.113 0.192-0.18 0.422-0.18 0.668 0 0.493 0.268 0.924 0.667 1.155l0.006 0.003zM29.427 21.333c-0.052-0.007-0.111-0.011-0.172-0.011-0.674 0-1.232 0.501-1.321 1.151l-0.001 0.007c-0.591 4.638-4.512 8.187-9.263 8.187-0.001 0-0.003 0-0.004 0h-7.453l0.867-0.867c0.24-0.241 0.388-0.573 0.388-0.94s-0.148-0.699-0.388-0.94l0 0c-1.681-1.688-2.721-4.016-2.721-6.587 0-5.146 4.164-9.319 9.306-9.333h0.001c0.736 0 1.333-0.597 1.333-1.333s-0.597-1.333-1.333-1.333v0c-6.606 0.028-11.95 5.39-11.95 12 0 2.84 0.986 5.449 2.635 7.504l-0.018-0.024-2.28 2.24c-0.238 0.241-0.384 0.571-0.384 0.936 0 0.187 0.038 0.364 0.108 0.526l-0.003-0.009c0.204 0.487 0.676 0.824 1.226 0.827h10.667c0 0 0.001 0 0.002 0 6.096 0 11.131-4.546 11.899-10.433l0.006-0.060c0.008-0.056 0.013-0.12 0.013-0.185 0-0.675-0.502-1.233-1.153-1.321l-0.007-0.001zM27.173 17.427c-0.159-0.072-0.344-0.114-0.539-0.114-0.083 0-0.164 0.008-0.242 0.022l0.008-0.001-0.24 0.080-0.24 0.12-0.2 0.173c-0.117 0.119-0.211 0.261-0.277 0.418l-0.003 0.009c-0.068 0.14-0.108 0.305-0.108 0.48 0 0.019 0 0.038 0.001 0.056l-0-0.003c-0 0.009-0 0.019-0 0.029 0 0.177 0.034 0.345 0.097 0.5l-0.003-0.009c0.073 0.166 0.172 0.308 0.293 0.426l0 0c0.241 0.239 0.573 0.387 0.939 0.387 0.003 0 0.005 0 0.008-0h-0c0.736 0 1.333-0.597 1.333-1.333v0c0-0.009 0-0.019 0-0.029 0-0.174-0.039-0.338-0.11-0.485l0.003 0.007c-0.146-0.322-0.398-0.574-0.711-0.716l-0.009-0.004z"></path>
</svg>
