<!-- Generated by IcoMoon.io -->
<svg version="1.1" xmlns="http://www.w3.org/2000/svg" width="40" height="40" viewBox="0 0 40 40">
<title>comment-download</title>
<path fill="#37352f" d="M29.333 22.667c-0.101-0.027-0.216-0.043-0.335-0.043-0.619 0-1.139 0.422-1.29 0.993l-0.002 0.009c-1.058 4.075-4.703 7.037-9.040 7.040h-7.454l0.853-0.84c0.24-0.241 0.388-0.573 0.388-0.94s-0.148-0.699-0.388-0.94l0 0c-1.697-1.69-2.747-4.029-2.747-6.613 0-5.155 4.179-9.333 9.333-9.333 0.005 0 0.010 0 0.015 0h-0.001c0.175-0.010 0.38-0.015 0.587-0.015s0.411 0.006 0.615 0.016l-0.028-0.001c0.048 0.006 0.104 0.010 0.16 0.010 0.742 0 1.343-0.601 1.343-1.343 0-0.685-0.513-1.251-1.176-1.333l-0.007-0.001c-0.223-0.016-0.484-0.025-0.747-0.025s-0.523 0.009-0.781 0.027l0.035-0.002c-6.61 0.022-11.961 5.386-11.961 12 0 2.846 0.99 5.46 2.645 7.517l-0.018-0.023-2.28 2.227c-0.238 0.241-0.384 0.571-0.384 0.936 0 0.187 0.038 0.364 0.108 0.526l-0.003-0.009c0.204 0.487 0.676 0.824 1.226 0.827h10.667c0.002 0 0.005 0 0.008 0 5.561 0 10.239-3.783 11.6-8.916l0.019-0.084c0.034-0.112 0.053-0.24 0.053-0.372 0-0.623-0.427-1.146-1.004-1.292l-0.009-0.002zM32.947 13.68c-0.242-0.244-0.577-0.394-0.947-0.394s-0.705 0.151-0.947 0.394l-0 0-1.72 1.773v-7.453c0-0.736-0.597-1.333-1.333-1.333s-1.333 0.597-1.333 1.333v0 7.453l-1.72-1.733c-0.242-0.242-0.577-0.392-0.947-0.392-0.739 0-1.339 0.599-1.339 1.339 0 0.37 0.15 0.704 0.392 0.947l4 4c0.123 0.118 0.269 0.213 0.431 0.277l0.009 0.003c0.149 0.068 0.323 0.107 0.507 0.107s0.358-0.039 0.515-0.11l-0.008 0.003c0.171-0.067 0.317-0.162 0.44-0.28l-0 0 4-4c0.244-0.242 0.394-0.577 0.394-0.947s-0.151-0.705-0.394-0.947l-0-0z"></path>
</svg>
