<!-- Generated by IcoMoon.io -->
<svg version="1.1" xmlns="http://www.w3.org/2000/svg" width="40" height="40" viewBox="0 0 40 40">
<title>confused</title>
<path fill="#37352f" d="M16 16c-0.736 0-1.333 0.597-1.333 1.333s0.597 1.333 1.333 1.333c0.736 0 1.333-0.597 1.333-1.333v0c0-0.736-0.597-1.333-1.333-1.333v0zM23.547 22.080l-5.587 2c-0.517 0.191-0.879 0.68-0.879 1.253 0 0.731 0.589 1.325 1.318 1.333h0.001c0.163-0 0.319-0.029 0.463-0.083l-0.009 0.003 5.6-2c0.536-0.181 0.915-0.679 0.915-1.266 0-0.736-0.597-1.333-1.333-1.333-0.176 0-0.344 0.034-0.498 0.096l0.009-0.003zM24 16c-0.736 0-1.333 0.597-1.333 1.333s0.597 1.333 1.333 1.333c0.736 0 1.333-0.597 1.333-1.333v0c0-0.736-0.597-1.333-1.333-1.333v0zM20 6.667c-7.364 0-13.333 5.97-13.333 13.333s5.97 13.333 13.333 13.333c7.364 0 13.333-5.97 13.333-13.333v0c0-7.364-5.97-13.333-13.333-13.333v0zM20 30.667c-5.891 0-10.667-4.776-10.667-10.667s4.776-10.667 10.667-10.667c5.891 0 10.667 4.776 10.667 10.667v0c0 5.891-4.776 10.667-10.667 10.667v0z"></path>
</svg>
