<!-- Generated by IcoMoon.io -->
<svg version="1.1" xmlns="http://www.w3.org/2000/svg" width="40" height="40" viewBox="0 0 40 40">
<title>corner-right-down</title>
<path fill="#37352f" d="M32.947 21.8c-0.242-0.244-0.577-0.394-0.947-0.394s-0.705 0.151-0.947 0.394l-3.893 3.893v-10.667c0-2.946-2.388-5.333-5.333-5.333v0h-13.827c-0.736 0-1.333 0.597-1.333 1.333s0.597 1.333 1.333 1.333v0h13.827c1.473 0 2.667 1.194 2.667 2.667v0 10.667l-3.893-3.893c-0.245-0.252-0.588-0.408-0.967-0.408-0.745 0-1.348 0.604-1.348 1.348 0 0.366 0.146 0.697 0.382 0.94l-0-0 6.16 6.173c0.125 0.118 0.271 0.216 0.43 0.289l0.010 0.004c0.149 0.068 0.323 0.107 0.507 0.107s0.358-0.039 0.515-0.11l-0.008 0.003c0.171-0.071 0.318-0.17 0.44-0.293l6.173-6.173c0.256-0.243 0.415-0.587 0.415-0.967 0-0.354-0.138-0.675-0.362-0.914l0.001 0.001z"></path>
</svg>
