<!-- Generated by IcoMoon.io -->
<svg version="1.1" xmlns="http://www.w3.org/2000/svg" width="40" height="40" viewBox="0 0 40 40">
<title>credit-card-search</title>
<path fill="#37352f" d="M30.667 27.427c0.527-0.851 0.839-1.882 0.839-2.987 0-3.166-2.567-5.733-5.733-5.733s-5.733 2.567-5.733 5.733c0 3.166 2.567 5.733 5.733 5.733 0 0 0 0 0.001 0h-0c1.104-0.005 2.135-0.317 3.012-0.854l-0.025 0.014 2.293 2.307c0.242 0.244 0.577 0.394 0.947 0.394s0.705-0.151 0.947-0.394l0-0c0.244-0.242 0.394-0.577 0.394-0.947s-0.151-0.705-0.394-0.947l-0-0zM28 26.667c-0.566 0.54-1.334 0.872-2.18 0.872s-1.614-0.332-2.181-0.874l0.001 0.001c-0.555-0.559-0.899-1.329-0.899-2.18s0.343-1.621 0.899-2.18l-0 0c0.558-0.559 1.328-0.904 2.18-0.904s1.622 0.346 2.18 0.904l0 0c0.555 0.559 0.899 1.329 0.899 2.18s-0.343 1.621-0.899 2.18l0-0zM29.333 8h-18.667c-2.209 0-4 1.791-4 4v0 12c0 2.209 1.791 4 4 4v0h5.333c0.736 0 1.333-0.597 1.333-1.333s-0.597-1.333-1.333-1.333v0h-5.333c-0.736 0-1.333-0.597-1.333-1.333v0-8h21.333v1.333c0 0.736 0.597 1.333 1.333 1.333s1.333-0.597 1.333-1.333v0-5.333c0-2.209-1.791-4-4-4v0zM30.667 13.333h-21.333v-1.333c0-0.736 0.597-1.333 1.333-1.333v0h18.667c0.736 0 1.333 0.597 1.333 1.333v0zM17.333 18.667h-4c-0.736 0-1.333 0.597-1.333 1.333s0.597 1.333 1.333 1.333v0h4c0.736 0 1.333-0.597 1.333-1.333s-0.597-1.333-1.333-1.333v0z"></path>
</svg>
