<!-- Generated by IcoMoon.io -->
<svg version="1.1" xmlns="http://www.w3.org/2000/svg" width="40" height="40" viewBox="0 0 40 40">
<title>crosshair-alt</title>
<path fill="#37352f" d="M20 18.667c-0.736 0-1.333 0.597-1.333 1.333s0.597 1.333 1.333 1.333c0.736 0 1.333-0.597 1.333-1.333v0c0-0.736-0.597-1.333-1.333-1.333v0zM20 6.667c-7.364 0-13.333 5.97-13.333 13.333s5.97 13.333 13.333 13.333c7.364 0 13.333-5.97 13.333-13.333v0c0-7.364-5.97-13.333-13.333-13.333v0zM21.333 30.573v-3.907c0-0.736-0.597-1.333-1.333-1.333s-1.333 0.597-1.333 1.333v0 3.907c-4.829-0.63-8.61-4.411-9.234-9.186l-0.006-0.054h3.907c0.736 0 1.333-0.597 1.333-1.333s-0.597-1.333-1.333-1.333v0h-3.907c0.63-4.829 4.411-8.61 9.186-9.234l0.054-0.006v3.907c0 0.736 0.597 1.333 1.333 1.333s1.333-0.597 1.333-1.333v0-3.907c4.829 0.63 8.61 4.411 9.234 9.186l0.006 0.054h-3.907c-0.736 0-1.333 0.597-1.333 1.333s0.597 1.333 1.333 1.333v0h3.907c-0.63 4.829-4.411 8.61-9.186 9.234l-0.054 0.006z"></path>
</svg>
