<!-- Generated by IcoMoon.io -->
<svg version="1.1" xmlns="http://www.w3.org/2000/svg" width="40" height="40" viewBox="0 0 40 40">
<title>desktop-alt-slash</title>
<path fill="#37352f" d="M32.947 31.053l-24-24c-0.242-0.242-0.577-0.392-0.947-0.392-0.739 0-1.339 0.599-1.339 1.339 0 0.37 0.15 0.704 0.392 0.947v0l1.333 1.333c-0.244 0.502-0.387 1.092-0.387 1.716 0 0.001 0 0.003 0 0.004v-0 10.667c0 2.209 1.791 4 4 4v0h4v2.667h-4c-0.736 0-1.333 0.597-1.333 1.333s0.597 1.333 1.333 1.333v0h16c0.568-0.006 1.051-0.367 1.237-0.871l0.003-0.009 1.813 1.827c0.242 0.244 0.577 0.394 0.947 0.394s0.705-0.151 0.947-0.394l0-0c0.244-0.242 0.394-0.577 0.394-0.947s-0.151-0.705-0.394-0.947l-0-0zM10.667 12.547l6.12 6.12h-6.12zM21.333 29.333h-2.667v-2.667h2.667zM12 24c-0.736 0-1.333-0.597-1.333-1.333v0-1.333h8.787l2.667 2.667zM24 29.333v-2.667h0.787l2.667 2.667zM16.88 10.667h11.12c0.736 0 1.333 0.597 1.333 1.333v0 6.667h-1.787c-0.736 0-1.333 0.597-1.333 1.333s0.597 1.333 1.333 1.333v0h1.787v1.333c0.004 0.022 0.005 0.047 0.005 0.073s-0.002 0.051-0.006 0.076l0-0.003c-0.017 0.080-0.027 0.172-0.027 0.267 0 0.642 0.454 1.178 1.058 1.305l0.009 0.002h0.267c0.008 0 0.017 0 0.027 0 0.642 0 1.178-0.454 1.305-1.058l0.002-0.009c0.019-0.144 0.031-0.311 0.031-0.481 0-0.061-0.001-0.121-0.004-0.181l0 0.009v-10.667c0-2.209-1.791-4-4-4v0h-11.12c-0.736 0-1.333 0.597-1.333 1.333s0.597 1.333 1.333 1.333v0z"></path>
</svg>
