<!-- Generated by IcoMoon.io -->
<svg version="1.1" xmlns="http://www.w3.org/2000/svg" width="40" height="40" viewBox="0 0 40 40">
<title>dribbble</title>
<path fill="#37352f" d="M20 6.667c-7.364 0-13.333 5.97-13.333 13.333s5.97 13.333 13.333 13.333c7.364 0 13.333-5.97 13.333-13.333v0c0-7.364-5.97-13.333-13.333-13.333v0zM20 9.333c0.001 0 0.003 0 0.004 0 2.853 0 5.442 1.128 7.346 2.963l-0.003-0.003c-1.841 1.102-3.97 2.086-6.206 2.838l-0.234 0.068c-1.208-2.066-2.473-3.849-3.875-5.512l0.048 0.058c0.874-0.261 1.879-0.412 2.919-0.413h0.001zM14.52 10.867c1.333 1.518 2.569 3.196 3.656 4.974l0.090 0.159c-2.4 0.621-5.157 0.981-7.996 0.987h-0.484c0.787-2.609 2.471-4.743 4.686-6.093l0.047-0.027zM12 27.080c-1.655-1.852-2.667-4.311-2.667-7.005 0-0.026 0-0.053 0-0.079l-0 0.004c0-0.133 0-0.267 0-0.387h0.907c3.334-0.031 6.543-0.516 9.584-1.396l-0.251 0.062c0.427 0.813 0.827 1.653 1.213 2.52-2.195 0.786-4.091 1.875-5.753 3.24l0.033-0.026-0.4 0.32c-0.953 0.858-1.824 1.755-2.634 2.707l-0.033 0.040zM20 30.667c-0.007 0-0.015 0-0.023 0-2.217 0-4.274-0.683-5.972-1.85l0.036 0.023c0.66-0.754 1.339-1.442 2.058-2.087l0.022-0.020 0.427-0.36c1.511-1.277 3.282-2.305 5.216-2.99l0.118-0.036c0.716 1.858 1.361 4.093 1.821 6.394l0.045 0.272c-1.099 0.414-2.369 0.653-3.695 0.653-0.018 0-0.036-0-0.054-0h0.003zM26.173 28.68c-0.511-2.349-1.099-4.339-1.811-6.269l0.104 0.322h0.453c0.024-0.006 0.052-0.010 0.080-0.010s0.056 0.004 0.082 0.010l-0.002-0.001h0.92c1.478 0.004 2.893 0.263 4.208 0.734l-0.088-0.027c-0.758 2.168-2.133 3.961-3.913 5.218l-0.033 0.022zM26 20c-0.28 0-0.56 0-0.827 0-0.078-0.010-0.168-0.016-0.26-0.016s-0.182 0.006-0.27 0.017l0.010-0.001c-0.402 0.025-0.773 0.073-1.135 0.142l0.055-0.009h-0.133c-0.387-0.893-0.787-1.76-1.227-2.667 2.623-0.911 4.882-1.992 6.994-3.288l-0.154 0.088c1.013 1.602 1.614 3.551 1.614 5.641 0 0.032-0 0.065-0 0.097l0-0.005c0 0.227 0 0.453 0 0.68-1.35-0.432-2.903-0.681-4.514-0.681-0.054 0-0.107 0-0.161 0.001l0.008-0z"></path>
</svg>
