<!-- Generated by IcoMoon.io -->
<svg version="1.1" xmlns="http://www.w3.org/2000/svg" width="40" height="40" viewBox="0 0 40 40">
<title>envelope-shield</title>
<path fill="#37352f" d="M32.84 10.827c-0.227-0.185-0.52-0.297-0.839-0.297-0.1 0-0.197 0.011-0.29 0.032l0.009-0.002c-0.236 0.054-0.507 0.085-0.785 0.085-0.808 0-1.554-0.262-2.159-0.706l0.010 0.007c-0.218-0.16-0.491-0.257-0.787-0.257s-0.569 0.096-0.79 0.259l0.004-0.003c-0.595 0.437-1.341 0.699-2.149 0.699-0.278 0-0.549-0.031-0.809-0.090l0.024 0.005c-0.084-0.019-0.181-0.030-0.28-0.030-0.736 0-1.333 0.597-1.333 1.333 0 0.001 0 0.002 0 0.003v-0 4.413c0 0.004 0 0.009 0 0.013 0 2.004 0.957 3.784 2.438 4.909l0.015 0.011 2.093 1.547c0.217 0.16 0.491 0.257 0.787 0.257s0.569-0.096 0.79-0.259l-0.004 0.003 2.093-1.547c1.497-1.136 2.453-2.916 2.453-4.92 0-0.005 0-0.009-0-0.014v0.001-4.413c0-0.001 0-0.003 0-0.005 0-0.417-0.191-0.789-0.491-1.034l-0.002-0.002zM30.667 16.28c0 0.014 0 0.031 0 0.047 0 1.109-0.519 2.096-1.326 2.734l-0.007 0.006-1.333 0.933-1.333-0.96c-0.815-0.643-1.334-1.631-1.334-2.739 0-0.017 0-0.033 0-0.050l-0 0.003v-2.92c0.982-0.041 1.894-0.302 2.7-0.736l-0.033 0.016c0.773 0.418 1.685 0.679 2.654 0.72l0.012 0zM32 24.28c-0.736 0-1.333 0.597-1.333 1.333v0 4c0 0.736-0.597 1.333-1.333 1.333v0h-18.667c-0.736 0-1.333-0.597-1.333-1.333v0-12.72l7.84 7.84c0.72 0.721 1.714 1.169 2.812 1.173h0.001c0.003 0 0.007 0 0.010 0 1.119 0 2.13-0.459 2.856-1.199l0.001-0.001-0.933-0.947-0.987-0.907c-0.24 0.236-0.57 0.381-0.933 0.381s-0.693-0.145-0.934-0.381l0 0-7.853-7.84h7.453c0.736 0 1.333-0.597 1.333-1.333s-0.597-1.333-1.333-1.333v0h-8c-2.209 0-4 1.791-4 4v0 13.333c0 2.209 1.791 4 4 4v0h18.667c2.209 0 4-1.791 4-4v0-4c0-0.736-0.597-1.333-1.333-1.333v0z"></path>
</svg>
