<!-- Generated by IcoMoon.io -->
<svg version="1.1" xmlns="http://www.w3.org/2000/svg" width="40" height="40" viewBox="0 0 40 40">
<title>facebook</title>
<path fill="#37352f" d="M31.867 6.667h-23.733c-0.81 0-1.467 0.657-1.467 1.467v0 23.733c0 0.81 0.657 1.467 1.467 1.467h12.773v-10.333h-3.467v-4h3.467v-3c-0.016-0.148-0.025-0.319-0.025-0.492 0-2.68 2.173-4.853 4.853-4.853 0.121 0 0.242 0.004 0.361 0.013l-0.016-0.001c0.049-0 0.108-0.001 0.166-0.001 1.036 0 2.058 0.058 3.064 0.172l-0.123-0.011v3.6h-2.12c-1.68 0-2 0.8-2 1.96v2.573h4l-0.52 4h-3.48v10.373h6.8c0.81 0 1.467-0.657 1.467-1.467v0-23.733c0-0.81-0.657-1.467-1.467-1.467v0z"></path>
</svg>
