<!-- Generated by IcoMoon.io -->
<svg version="1.1" xmlns="http://www.w3.org/2000/svg" width="40" height="40" viewBox="0 0 40 40">
<title>file-import</title>
<path fill="#37352f" d="M18.667 30.667h-6.667c-0.736 0-1.333-0.597-1.333-1.333v0-18.667c0-0.736 0.597-1.333 1.333-1.333v0h6.667v4c0 2.209 1.791 4 4 4v0h4v2.667c0 0.736 0.597 1.333 1.333 1.333s1.333-0.597 1.333-1.333v0-4s0 0 0-0.080c-0.016-0.134-0.044-0.256-0.084-0.372l0.004 0.012v-0.12c-0.072-0.148-0.156-0.275-0.255-0.389l0.002 0.002-8-8c-0.112-0.097-0.239-0.182-0.376-0.249l-0.010-0.005c-0.018-0.003-0.039-0.004-0.060-0.004s-0.042 0.002-0.062 0.005l0.002-0-0.413-0.133h-8.080c-2.209 0-4 1.791-4 4v0 18.667c0 2.209 1.791 4 4 4v0h6.667c0.736 0 1.333-0.597 1.333-1.333s-0.597-1.333-1.333-1.333v0zM21.333 11.213l3.453 3.453h-2.12c-0.736 0-1.333-0.597-1.333-1.333v0zM29.333 24h-7.453l1.733-1.72c0.242-0.242 0.392-0.577 0.392-0.947 0-0.739-0.599-1.339-1.339-1.339-0.37 0-0.704 0.15-0.947 0.392l-4 4c-0.114 0.125-0.208 0.271-0.276 0.43l-0.004 0.010c-0.063 0.15-0.1 0.324-0.1 0.507s0.037 0.357 0.103 0.515l-0.003-0.009c0.065 0.172 0.16 0.318 0.28 0.44l4 4c0.242 0.244 0.577 0.394 0.947 0.394s0.705-0.151 0.947-0.394l0-0c0.244-0.242 0.394-0.577 0.394-0.947s-0.151-0.705-0.394-0.947l-0-0-1.733-1.72h7.453c0.736 0 1.333-0.597 1.333-1.333s-0.597-1.333-1.333-1.333v0z"></path>
</svg>
