<!-- Generated by IcoMoon.io -->
<svg version="1.1" xmlns="http://www.w3.org/2000/svg" width="40" height="40" viewBox="0 0 40 40">
<title>file-minus-alt</title>
<path fill="#37352f" d="M14.667 14.667c-0.736 0-1.333 0.597-1.333 1.333s0.597 1.333 1.333 1.333v0h1.333c0.736 0 1.333-0.597 1.333-1.333s-0.597-1.333-1.333-1.333v0zM21.333 30.667h-9.333c-0.736 0-1.333-0.597-1.333-1.333v0-18.667c0-0.736 0.597-1.333 1.333-1.333v0h6.667v4c0 2.209 1.791 4 4 4v0h4v6.667c0 0.736 0.597 1.333 1.333 1.333s1.333-0.597 1.333-1.333v0-8s0 0 0-0.080c-0.016-0.134-0.044-0.256-0.084-0.372l0.004 0.012v-0.12c-0.068-0.143-0.153-0.267-0.254-0.374l0.001 0.001-8-8c-0.107-0.101-0.23-0.185-0.365-0.25l-0.009-0.004c-0.020-0.004-0.043-0.006-0.067-0.006s-0.047 0.002-0.069 0.006l0.002-0c-0.119-0.065-0.258-0.116-0.404-0.145l-0.009-0.002h-8.080c-2.209 0-4 1.791-4 4v0 18.667c0 2.209 1.791 4 4 4v0h9.333c0.736 0 1.333-0.597 1.333-1.333s-0.597-1.333-1.333-1.333v0zM21.333 11.213l3.453 3.453h-2.12c-0.736 0-1.333-0.597-1.333-1.333v0zM30.667 28h-5.333c-0.736 0-1.333 0.597-1.333 1.333s0.597 1.333 1.333 1.333v0h5.333c0.736 0 1.333-0.597 1.333-1.333s-0.597-1.333-1.333-1.333v0zM21.333 25.333h-6.667c-0.736 0-1.333 0.597-1.333 1.333s0.597 1.333 1.333 1.333v0h6.667c0.736 0 1.333-0.597 1.333-1.333s-0.597-1.333-1.333-1.333v0zM22.667 20h-8c-0.736 0-1.333 0.597-1.333 1.333s0.597 1.333 1.333 1.333v0h8c0.736 0 1.333-0.597 1.333-1.333s-0.597-1.333-1.333-1.333v0z"></path>
</svg>
