<!-- Generated by IcoMoon.io -->
<svg version="1.1" xmlns="http://www.w3.org/2000/svg" width="40" height="40" viewBox="0 0 40 40">
<title>folder-heart</title>
<path fill="#37352f" d="M20 17.12c-0.53-0.288-1.161-0.458-1.832-0.458-2.15 0-3.893 1.743-3.893 3.893 0 1.081 0.44 2.059 1.152 2.764l3.627 3.627c0.242 0.244 0.577 0.394 0.947 0.394s0.705-0.151 0.947-0.394l3.627-3.627c0.712-0.706 1.152-1.684 1.152-2.765 0-2.15-1.743-3.893-3.893-3.893-0.671 0-1.302 0.17-1.853 0.468l0.021-0.010zM22.667 21.427l-2.667 2.667-2.667-2.667c-0.222-0.222-0.359-0.528-0.359-0.867s0.137-0.645 0.359-0.867l-0 0c0.222-0.222 0.528-0.359 0.867-0.359s0.645 0.137 0.867 0.359l-0-0c0.242 0.244 0.577 0.394 0.947 0.394s0.705-0.151 0.947-0.394l0-0c0.218-0.201 0.51-0.325 0.831-0.325 0.677 0 1.227 0.549 1.227 1.227 0 0.321-0.123 0.614-0.325 0.832l0.001-0.001zM29.333 11.333h-8.373l-0.427-1.333c-0.566-1.567-2.040-2.667-3.771-2.667-0.005 0-0.011 0-0.016 0h-6.079c-2.209 0-4 1.791-4 4v0 17.333c0 2.209 1.791 4 4 4v0h18.667c2.209 0 4-1.791 4-4v0-13.333c0-2.209-1.791-4-4-4v0zM30.667 28.667c0 0.736-0.597 1.333-1.333 1.333v0h-18.667c-0.736 0-1.333-0.597-1.333-1.333v0-17.333c0-0.736 0.597-1.333 1.333-1.333v0h6.080c0.001 0 0.002 0 0.003 0 0.584 0 1.080 0.375 1.26 0.897l0.003 0.009 0.72 2.187c0.183 0.532 0.68 0.907 1.263 0.907 0.001 0 0.002 0 0.004 0h9.333c0.736 0 1.333 0.597 1.333 1.333v0z"></path>
</svg>
