<!-- Generated by IcoMoon.io -->
<svg version="1.1" xmlns="http://www.w3.org/2000/svg" width="40" height="40" viewBox="0 0 40 40">
<title>gift</title>
<path fill="#37352f" d="M28 13.333h-0.467c0.292-0.584 0.464-1.271 0.467-1.999v-0.001c0-0.006 0-0.013 0-0.020 0-2.57-2.083-4.653-4.653-4.653-1.313 0-2.499 0.544-3.345 1.419l-0.001 0.001c-0.847-0.876-2.033-1.42-3.347-1.42-2.57 0-4.653 2.083-4.653 4.653 0 0.007 0 0.014 0 0.021v-0.001c0.003 0.729 0.175 1.416 0.479 2.027l-0.012-0.027h-0.467c-2.209 0-4 1.791-4 4v0 2.667c0 0.736 0.597 1.333 1.333 1.333v0h1.333v8c0 2.209 1.791 4 4 4v0h10.667c2.209 0 4-1.791 4-4v0-8h1.333c0.736 0 1.333-0.597 1.333-1.333v0-2.667c0-2.209-1.791-4-4-4v0zM18.667 30.667h-4c-0.736 0-1.333-0.597-1.333-1.333v0-8h5.333zM18.667 18.667h-8v-1.333c0-0.736 0.597-1.333 1.333-1.333v0h6.667zM18.667 13.333h-2c-1.105 0-2-0.895-2-2s0.895-2 2-2c1.105 0 2 0.895 2 2v0zM21.333 11.333c0-1.105 0.895-2 2-2s2 0.895 2 2c0 1.105-0.895 2-2 2v0h-2zM26.667 29.333c0 0.736-0.597 1.333-1.333 1.333v0h-4v-9.333h5.333zM29.333 18.667h-8v-2.667h6.667c0.736 0 1.333 0.597 1.333 1.333v0z"></path>
</svg>
