<!-- Generated by IcoMoon.io -->
<svg version="1.1" xmlns="http://www.w3.org/2000/svg" width="40" height="40" viewBox="0 0 40 40">
<title>head-side-cough</title>
<path fill="#37352f" d="M9.724 31.057c-0.241 0.241-0.391 0.575-0.391 0.943 0 0.736 0.597 1.333 1.333 1.333s1.333-0.597 1.333-1.333c0-0.368-0.149-0.702-0.391-0.943v0c-0.241-0.241-0.575-0.391-0.943-0.391s-0.702 0.149-0.943 0.391v0zM5.724 27.057c-0.241 0.241-0.391 0.575-0.391 0.943 0 0.736 0.597 1.333 1.333 1.333s1.333-0.597 1.333-1.333c0-0.368-0.149-0.702-0.391-0.943v0c-0.241-0.241-0.575-0.391-0.943-0.391s-0.702 0.149-0.943 0.391v0zM11.057 25.723c-0.241 0.241-0.391 0.575-0.391 0.943 0 0.736 0.597 1.333 1.333 1.333s1.333-0.597 1.333-1.333c0-0.368-0.149-0.702-0.391-0.943v0c-0.241-0.241-0.575-0.391-0.943-0.391s-0.702 0.149-0.943 0.391v0zM25.534 6.671c-0.086-0.003-0.188-0.004-0.289-0.004-5.204 0-9.422 4.218-9.423 9.422v0.021l-2.361 5.011c-0.081 0.167-0.128 0.362-0.128 0.569 0 0.736 0.597 1.333 1.333 1.333 0 0 0.001 0 0.001 0h1.155v2.4c0.001 1.423 1.155 2.577 2.578 2.578h1.156v2.4c0 0.736 0.597 1.333 1.333 1.333s1.333-0.597 1.333-1.333v0-2.418c0.696-0.045 1.243-0.62 1.243-1.323 0-0.732-0.593-1.326-1.326-1.326-0.003 0-0.005 0-0.008 0h0l-1.11 0.027c-0.036-0.010-0.081-0.019-0.127-0.026l-0.007-0.001c-0.065 0.009-0.123 0.021-0.179 0.036l0.009-0.002-2.231 0.054v-3.733c0-0 0-0 0-0 0-0.736-0.597-1.333-1.333-1.333-0 0-0 0-0 0h-0.385l1.607-3.412c0.080-0.166 0.128-0.36 0.128-0.566 0-0.020-0-0.040-0.001-0.060l0 0.003c0-0.014-0.013-0.217-0.014-0.232-0-0.007-0-0.015-0-0.023 0-1.894 0.786-3.604 2.049-4.823l0.002-0.002c1.22-1.18 2.884-1.907 4.718-1.907 0.069 0 0.138 0.001 0.206 0.003l-0.010-0c3.665 0.237 6.548 3.267 6.548 6.971 0 0.042-0 0.085-0.001 0.127l0-0.006-2.444 9.316c-0.028 0.102-0.044 0.22-0.044 0.341 0 0.132 0.019 0.259 0.054 0.379l-0.002-0.009 1.244 4.313c0.166 0.562 0.676 0.965 1.281 0.965h0c0.132-0 0.259-0.020 0.379-0.055l-0.010 0.002c0.561-0.166 0.964-0.676 0.964-1.281 0-0.132-0.019-0.259-0.055-0.379l0.002 0.009-1.142-3.959 2.395-9.019c0.028-0.102 0.044-0.22 0.044-0.342v-0.283c0-0.030 0.001-0.066 0.001-0.102 0-5.152-4.029-9.363-9.108-9.654l-0.026-0.001z"></path>
</svg>
