<!-- Generated by IcoMoon.io -->
<svg version="1.1" xmlns="http://www.w3.org/2000/svg" width="40" height="40" viewBox="0 0 40 40">
<title>horizontal-align-center</title>
<path fill="#37352f" d="M32 17.333h-2.667v-4c0-0.736-0.597-1.333-1.333-1.333v0h-6.667v-4c0-0.736-0.597-1.333-1.333-1.333s-1.333 0.597-1.333 1.333v0 4h-6.667c-0.736 0-1.333 0.597-1.333 1.333v0 4h-2.667c-0.736 0-1.333 0.597-1.333 1.333v0 8c0 0.736 0.597 1.333 1.333 1.333v0h10.667v4c0 0.736 0.597 1.333 1.333 1.333s1.333-0.597 1.333-1.333v0-4h10.667c0.736 0 1.333-0.597 1.333-1.333v0-8c0-0.736-0.597-1.333-1.333-1.333v0zM13.333 14.667h13.333v2.667h-13.333zM30.667 25.333h-21.333v-5.333h21.333z"></path>
</svg>
