<!-- Generated by IcoMoon.io -->
<svg version="1.1" xmlns="http://www.w3.org/2000/svg" width="40" height="40" viewBox="0 0 40 40">
<title>image-lock</title>
<path fill="#37352f" d="M30.667 10.907v-1.573c0-2.209-1.791-4-4-4s-4 1.791-4 4v0 1.573c-1.563 0.564-2.662 2.033-2.667 3.759v2.667c0 2.209 1.791 4 4 4v0h5.333c2.209 0 4-1.791 4-4v0-2.667c-0.005-1.727-1.103-3.196-2.639-3.751l-0.028-0.009zM25.333 9.333c0-0.736 0.597-1.333 1.333-1.333s1.333 0.597 1.333 1.333v0 1.333h-2.667zM30.667 17.333c0 0.736-0.597 1.333-1.333 1.333v0h-5.333c-0.736 0-1.333-0.597-1.333-1.333v0-2.667c0-0.736 0.597-1.333 1.333-1.333v0h5.333c0.736 0 1.333 0.597 1.333 1.333v0zM29.333 24c-0.736 0-1.333 0.597-1.333 1.333v0 4c-0.002 0.267-0.092 0.512-0.242 0.71l0.002-0.003-11.213-11.213c-0.682-0.646-1.604-1.043-2.62-1.043s-1.938 0.397-2.622 1.044l0.002-0.002-1.973 1.973v-7.467c0-0.736 0.597-1.333 1.333-1.333v0h6.667c0.736 0 1.333-0.597 1.333-1.333s-0.597-1.333-1.333-1.333v0h-6.667c-2.209 0-4 1.791-4 4v0 16c0 2.209 1.791 4 4 4v0h16c2.209 0 4-1.791 4-4v0-4c0-0.736-0.597-1.333-1.333-1.333v0zM10.667 30.667c-0.736 0-1.333-0.597-1.333-1.333v0-4.76l3.867-3.867c0.189-0.18 0.445-0.291 0.727-0.291s0.538 0.111 0.727 0.291l9.96 9.96z"></path>
</svg>
