<!-- Generated by IcoMoon.io -->
<svg version="1.1" xmlns="http://www.w3.org/2000/svg" width="40" height="40" viewBox="0 0 40 40">
<title>info-circle</title>
<path fill="#37352f" d="M20 6.667c-7.364 0-13.333 5.97-13.333 13.333s5.97 13.333 13.333 13.333c7.364 0 13.333-5.97 13.333-13.333v0c-0.008-7.36-5.973-13.325-13.333-13.333h-0.001zM20 30.667c-5.891 0-10.667-4.776-10.667-10.667s4.776-10.667 10.667-10.667c5.891 0 10.667 4.776 10.667 10.667v0c-0.007 5.888-4.778 10.66-10.666 10.667h-0.001zM20 19.333c-0.736 0-1.333 0.597-1.333 1.333v0 4c0 0.736 0.597 1.333 1.333 1.333s1.333-0.597 1.333-1.333v0-4c0-0.736-0.597-1.333-1.333-1.333v0zM20 14c-0.92 0-1.667 0.746-1.667 1.667s0.746 1.667 1.667 1.667c0.92 0 1.667-0.746 1.667-1.667v0c0-0.92-0.746-1.667-1.667-1.667v0z"></path>
</svg>
