<!-- Generated by IcoMoon.io -->
<svg version="1.1" xmlns="http://www.w3.org/2000/svg" width="40" height="40" viewBox="0 0 40 40">
<title>kayak</title>
<path fill="#37352f" d="M32.16 26.507c-0.723-0.717-1.718-1.16-2.817-1.16-0.624 0-1.214 0.143-1.74 0.397l0.024-0.010-1.533-1.52c3.045-3.278 5.42-7.223 6.881-11.588l0.066-0.226c0.158-0.428 0.25-0.921 0.25-1.437 0-2.349-1.904-4.253-4.253-4.253-0.515 0-1.009 0.092-1.466 0.259l0.029-0.009c-4.59 1.526-8.535 3.902-11.833 6.965l0.020-0.018-1.52-1.533c0.246-0.504 0.389-1.095 0.389-1.721 0-2.209-1.791-4-4-4s-4 1.791-4 4c0 1.111 0.453 2.116 1.184 2.841l0 0c0.723 0.724 1.723 1.172 2.826 1.173h0c0.622-0.006 1.208-0.153 1.73-0.41l-0.023 0.010 1.533 1.52c-3.045 3.278-5.42 7.223-6.881 11.588l-0.066 0.226c-0.138 0.404-0.217 0.869-0.217 1.353 0 1.189 0.48 2.266 1.258 3.047l-0-0c0.746 0.794 1.791 1.298 2.954 1.333l0.006 0c0.516-0.005 1.010-0.088 1.475-0.236l-0.035 0.010c4.59-1.526 8.535-3.902 11.833-6.965l-0.020 0.018 1.52 1.533c-0.246 0.504-0.389 1.095-0.389 1.721 0 2.209 1.791 4 4 4s4-1.791 4-4c0-1.111-0.453-2.116-1.184-2.841l-0-0zM11.613 11.6v0c-0.242 0.243-0.577 0.394-0.947 0.394-0.737 0-1.334-0.597-1.334-1.334 0-0.367 0.148-0.699 0.387-0.94l-0 0c0.242-0.243 0.577-0.394 0.947-0.394 0.737 0 1.334 0.597 1.334 1.334 0 0.367-0.148 0.699-0.388 0.94l0-0zM28.413 9.507c0.186-0.064 0.401-0.102 0.625-0.107l0.002-0c0.004-0 0.008-0 0.013-0 0.427 0 0.814 0.173 1.094 0.453v0c0.284 0.294 0.459 0.696 0.459 1.138 0 0.214-0.041 0.419-0.116 0.607l0.004-0.011c-0.779 2.365-1.741 4.411-2.913 6.314l0.073-0.127-5.427-5.427c1.775-1.099 3.822-2.061 5.979-2.78l0.208-0.060zM11.587 30.493c-0.176 0.072-0.38 0.115-0.595 0.115-0.884 0-1.6-0.716-1.6-1.6 0-0.214 0.042-0.419 0.118-0.605l-0.004 0.011c0.779-2.365 1.741-4.411 2.913-6.314l-0.073 0.127 5.427 5.427c-1.775 1.099-3.822 2.061-5.979 2.78l-0.208 0.060zM20 26.12l-6.12-6.12c0.639-0.863 1.264-1.619 1.926-2.341l-0.019 0.021 6.547 6.547c-0.702 0.636-1.462 1.257-2.254 1.838l-0.079 0.056zM24.2 22.333l-6.533-6.547c0.704-0.642 1.464-1.267 2.256-1.852l0.078-0.055 6.133 6.133c-0.642 0.862-1.271 1.618-1.938 2.339l0.018-0.019zM30.267 30.333c-0.242 0.243-0.577 0.394-0.947 0.394-0.737 0-1.334-0.597-1.334-1.334 0-0.367 0.148-0.699 0.387-0.94l-0 0c0.241-0.24 0.573-0.388 0.94-0.388s0.699 0.148 0.94 0.388l-0-0c0.232 0.24 0.375 0.567 0.375 0.928 0 0.347-0.133 0.663-0.35 0.9l0.001-0.001z"></path>
</svg>
