<!-- Generated by IcoMoon.io -->
<svg version="1.1" xmlns="http://www.w3.org/2000/svg" width="40" height="40" viewBox="0 0 40 40">
<title>map-marker-shield</title>
<path fill="#37352f" d="M23.213 12.707c-0.194 0.045-0.416 0.070-0.644 0.070-0.672 0-1.291-0.222-1.79-0.596l0.008 0.006c-0.217-0.16-0.491-0.257-0.787-0.257s-0.569 0.096-0.79 0.259l0.004-0.003c-0.491 0.369-1.111 0.59-1.783 0.59-0.228 0-0.451-0.026-0.664-0.074l0.020 0.004c-0.085-0.019-0.182-0.030-0.281-0.030-0.319 0-0.612 0.112-0.841 0.299l0.002-0.002c-0.302 0.246-0.493 0.619-0.493 1.035 0 0.002 0 0.003 0 0.005v-0 3.867c-0 0.018-0 0.039-0 0.060 0 1.779 0.841 3.361 2.148 4.37l0.013 0.009 1.827 1.333c0.217 0.16 0.491 0.257 0.787 0.257s0.569-0.096 0.79-0.259l-0.004 0.003 1.827-1.333c1.35-1.018 2.213-2.618 2.213-4.42 0-0.007 0-0.014-0-0.021v0.001-3.867c0-0.001 0-0.003 0-0.005 0-0.417-0.191-0.789-0.491-1.034l-0.002-0.002c-0.225-0.18-0.514-0.288-0.828-0.288-0.084 0-0.167 0.008-0.247 0.023l0.008-0.001zM22.16 17.88c0 0.007 0 0.015 0 0.023 0 0.929-0.442 1.754-1.127 2.278l-0.007 0.005-1.027 0.76-1.027-0.76c-0.692-0.529-1.133-1.355-1.133-2.283 0-0.008 0-0.016 0-0.025v0.001-2.453c0.797-0.058 1.532-0.273 2.191-0.615l-0.031 0.015c0.628 0.327 1.363 0.542 2.142 0.599l0.018 0.001zM31.28 16.84c-0.571-5.775-5.404-10.249-11.281-10.249-2.334 0-4.503 0.706-6.306 1.915l0.041-0.026c-2.769 1.87-4.656 4.864-5.009 8.311l-0.004 0.049c-0.034 0.33-0.054 0.713-0.054 1.101 0 3.13 1.275 5.962 3.333 8.005l0.001 0.001 7.067 7.080c0.242 0.244 0.577 0.394 0.947 0.394s0.705-0.151 0.947-0.394l0-0 7.040-7.080c2.059-2.044 3.334-4.876 3.334-8.006 0-0.388-0.020-0.771-0.058-1.148l0.004 0.048zM26.133 24.067l-6.133 6.133-6.133-6.133c-1.566-1.566-2.534-3.729-2.534-6.119 0-0.296 0.015-0.589 0.044-0.878l-0.003 0.036c0.268-2.694 1.721-5.001 3.822-6.42l0.031-0.020c1.342-0.903 2.995-1.441 4.773-1.441s3.431 0.538 4.804 1.461l-0.031-0.020c2.126 1.434 3.577 3.73 3.85 6.376l0.003 0.037c0.028 0.26 0.043 0.561 0.043 0.866 0 2.391-0.969 4.555-2.537 6.121l-0 0z"></path>
</svg>
