<!-- Generated by IcoMoon.io -->
<svg version="1.1" xmlns="http://www.w3.org/2000/svg" width="40" height="40" viewBox="0 0 40 40">
<title>map-pin</title>
<path fill="#37352f" d="M25.827 21.053c-0.146-0.060-0.316-0.095-0.493-0.095-0.737 0-1.335 0.598-1.335 1.335 0 0.559 0.344 1.038 0.832 1.237l0.009 0.003c1.947 0.773 3.16 1.973 3.16 3.133 0 1.893-3.28 4-8 4s-8-2.107-8-4c0-1.16 1.213-2.36 3.16-3.133 0.497-0.202 0.841-0.681 0.841-1.24 0-0.737-0.598-1.335-1.335-1.335-0.178 0-0.347 0.035-0.502 0.098l0.009-0.003c-3.027 1.2-4.84 3.293-4.84 5.613 0 3.733 4.68 6.667 10.667 6.667s10.667-2.933 10.667-6.667c0-2.32-1.813-4.413-4.84-5.613zM18.667 17.147v9.52c0 0.736 0.597 1.333 1.333 1.333s1.333-0.597 1.333-1.333v0-9.52c2.319-0.613 4-2.692 4-5.164 0-2.946-2.388-5.333-5.333-5.333s-5.333 2.388-5.333 5.333c0 2.472 1.681 4.551 3.963 5.156l0.037 0.008zM20 9.333c1.473 0 2.667 1.194 2.667 2.667s-1.194 2.667-2.667 2.667c-1.473 0-2.667-1.194-2.667-2.667v0c0-1.473 1.194-2.667 2.667-2.667v0z"></path>
</svg>
