<!-- Generated by IcoMoon.io -->
<svg version="1.1" xmlns="http://www.w3.org/2000/svg" width="40" height="40" viewBox="0 0 40 40">
<title>mars</title>
<path fill="#37352f" d="M31.227 9.493c-0.138-0.327-0.393-0.582-0.711-0.717l-0.009-0.003c-0.149-0.065-0.323-0.104-0.506-0.107h-5.334c-0.736 0-1.333 0.597-1.333 1.333s0.597 1.333 1.333 1.333v0h2.12l-3.2 3.2c-1.539-1.162-3.484-1.861-5.592-1.861-5.155 0-9.333 4.179-9.333 9.333s4.179 9.333 9.333 9.333c5.155 0 9.333-4.179 9.333-9.333 0-2.108-0.699-4.053-1.878-5.616l0.017 0.024 3.2-3.2v2.12c0 0.736 0.597 1.333 1.333 1.333s1.333-0.597 1.333-1.333v0-5.333c-0.002-0.184-0.041-0.357-0.11-0.515l0.003 0.009zM22.667 26.667c-1.211 1.235-2.897 2-4.761 2-3.682 0-6.667-2.985-6.667-6.667s2.985-6.667 6.667-6.667c1.864 0 3.55 0.765 4.76 1.999l0.001 0.001c1.178 1.202 1.906 2.849 1.906 4.667s-0.727 3.465-1.907 4.668l0.001-0.001z"></path>
</svg>
