<!-- Generated by IcoMoon.io -->
<svg version="1.1" xmlns="http://www.w3.org/2000/svg" width="40" height="40" viewBox="0 0 40 40">
<title>message</title>
<path fill="#37352f" d="M31.12 16.427l-18.667-9.333c-0.519-0.264-1.133-0.419-1.782-0.419-2.209 0-4 1.791-4 4 0 0.586 0.126 1.143 0.352 1.644l-0.010-0.025 3.2 7.16c0.070 0.161 0.11 0.349 0.11 0.547s-0.040 0.385-0.114 0.556l0.004-0.009-3.2 7.16c-0.218 0.478-0.346 1.038-0.346 1.627 0 2.209 1.79 3.999 3.999 4h0c0.656-0.007 1.275-0.164 1.824-0.438l-0.024 0.011 18.667-9.333c1.317-0.673 2.202-2.020 2.202-3.573s-0.886-2.9-2.18-3.563l-0.023-0.011zM29.933 21.187l-18.667 9.333c-0.169 0.083-0.367 0.131-0.577 0.131-0.736 0-1.333-0.597-1.333-1.333 0-0.192 0.041-0.375 0.114-0.54l-0.003 0.009 3.187-7.16c0.035-0.077 0.071-0.175 0.102-0.274l0.005-0.019h9.187c0.736 0 1.333-0.597 1.333-1.333s-0.597-1.333-1.333-1.333v0h-9.187c-0.036-0.119-0.072-0.216-0.113-0.31l0.007 0.017-3.187-7.16c-0.070-0.157-0.11-0.339-0.11-0.531 0-0.736 0.597-1.333 1.333-1.333 0.21 0 0.408 0.048 0.585 0.135l-0.008-0.003 18.667 9.333c0.434 0.226 0.725 0.672 0.725 1.187s-0.291 0.961-0.718 1.183l-0.007 0.004z"></path>
</svg>
