<!-- Generated by IcoMoon.io -->
<svg version="1.1" xmlns="http://www.w3.org/2000/svg" width="40" height="40" viewBox="0 0 40 40">
<title>money-bill-stack</title>
<path fill="#37352f" d="M30.667 5.333h-21.333c-2.209 0-4 1.791-4 4v0 21.333c0 2.209 1.791 4 4 4v0h21.333c2.209 0 4-1.791 4-4v0-21.333c0-2.209-1.791-4-4-4v0zM14.667 32h-5.333c-0.736 0-1.333-0.597-1.333-1.333v0-1.573c0.396 0.148 0.854 0.236 1.332 0.24h5.335zM14.667 26.667h-5.333c-0.736 0-1.333-0.597-1.333-1.333v0-1.573c0.396 0.148 0.854 0.236 1.332 0.24h5.335zM14.667 21.333h-5.333c-0.736 0-1.333-0.597-1.333-1.333v0-10.667c0-0.736 0.597-1.333 1.333-1.333v0h5.333zM22.667 32h-5.333v-8h5.333zM22.667 21.333h-5.333v-13.333h5.333zM32 30.667c0 0.736-0.597 1.333-1.333 1.333v0h-5.333v-2.667h5.333c0.479-0.004 0.937-0.092 1.361-0.249l-0.028 0.009zM32 25.333c0 0.736-0.597 1.333-1.333 1.333v0h-5.333v-2.667h5.333c0.479-0.004 0.937-0.092 1.361-0.249l-0.028 0.009zM32 20c0 0.736-0.597 1.333-1.333 1.333v0h-5.333v-13.333h5.333c0.736 0 1.333 0.597 1.333 1.333v0zM28 13.333c-0.736 0-1.333 0.597-1.333 1.333s0.597 1.333 1.333 1.333c0.736 0 1.333-0.597 1.333-1.333v0c0-0.736-0.597-1.333-1.333-1.333v0zM12 16c0.736 0 1.333-0.597 1.333-1.333s-0.597-1.333-1.333-1.333c-0.736 0-1.333 0.597-1.333 1.333v0c0 0.736 0.597 1.333 1.333 1.333v0z"></path>
</svg>
