<!-- Generated by IcoMoon.io -->
<svg version="1.1" xmlns="http://www.w3.org/2000/svg" width="40" height="40" viewBox="0 0 40 40">
<title>monitor</title>
<path fill="#37352f" d="M29.333 6.667h-18.667c-2.209 0-4 1.791-4 4v0 13.333c0 2.209 1.791 4 4 4v0h3.52l-0.773 1.333c-0.225 0.382-0.357 0.842-0.357 1.333s0.133 0.951 0.364 1.346l-0.007-0.013c0.47 0.803 1.328 1.333 2.309 1.333 0.008 0 0.017-0 0.025-0h8.612c0.981-0.001 1.837-0.531 2.3-1.321l0.007-0.013c0.225-0.382 0.357-0.842 0.357-1.333s-0.133-0.951-0.364-1.346l0.007 0.013-0.787-1.333h3.453c2.209 0 4-1.791 4-4v0-13.333c0-2.209-1.791-4-4-4v0zM15.693 30.667l1.64-2.667h5.333l1.6 2.667zM30.667 24c0 0.736-0.597 1.333-1.333 1.333v0h-18.667c-0.736 0-1.333-0.597-1.333-1.333v0-1.333h21.333zM30.667 20h-21.333v-9.333c0-0.736 0.597-1.333 1.333-1.333v0h18.667c0.736 0 1.333 0.597 1.333 1.333v0z"></path>
</svg>
