<!-- Generated by IcoMoon.io -->
<svg version="1.1" xmlns="http://www.w3.org/2000/svg" width="40" height="40" viewBox="0 0 40 40">
<title>no-entry</title>
<path fill="#37352f" d="M32 30.667h-1.653l-5.853-21.067c-0.483-1.704-2.025-2.932-3.853-2.933h-1.333c-1.807 0.026-3.322 1.246-3.793 2.905l-0.007 0.028-5.853 21.067h-1.653c-0.736 0-1.333 0.597-1.333 1.333s0.597 1.333 1.333 1.333v0h24c0.736 0 1.333-0.597 1.333-1.333s-0.597-1.333-1.333-1.333v0zM18.080 10.307c0.162-0.567 0.676-0.974 1.284-0.974 0.017 0 0.035 0 0.052 0.001l-0.002-0h1.333c0.015-0.001 0.032-0.001 0.049-0.001 0.609 0 1.122 0.408 1.282 0.965l0.002 0.009 1.053 4.36h-6.267zM16.12 17.333h7.76l1.453 5.333h-10.667zM12.427 30.667l1.48-5.333h12.187l1.48 5.333z"></path>
</svg>
