<!-- Generated by IcoMoon.io -->
<svg version="1.1" xmlns="http://www.w3.org/2000/svg" width="40" height="40" viewBox="0 0 40 40">
<title>padlock</title>
<path fill="#37352f" d="M20 21.333c-0.007-0-0.015-0-0.023-0-1.097 0-1.987 0.889-1.987 1.987 0 0.594 0.261 1.128 0.674 1.492l0.002 0.002v1.853c0 0.736 0.597 1.333 1.333 1.333s1.333-0.597 1.333-1.333v0-1.853c0.416-0.366 0.677-0.899 0.677-1.493 0-1.097-0.889-1.987-1.987-1.987-0.008 0-0.016 0-0.024 0h0.001zM26.667 16v-2.667c0-3.682-2.985-6.667-6.667-6.667s-6.667 2.985-6.667 6.667v0 2.667c-2.209 0-4 1.791-4 4v0 9.333c0 2.209 1.791 4 4 4v0h13.333c2.209 0 4-1.791 4-4v0-9.333c0-2.209-1.791-4-4-4v0zM16 13.333c0-2.209 1.791-4 4-4s4 1.791 4 4v0 2.667h-8zM28 29.333c0 0.736-0.597 1.333-1.333 1.333v0h-13.333c-0.736 0-1.333-0.597-1.333-1.333v0-9.333c0-0.736 0.597-1.333 1.333-1.333v0h13.333c0.736 0 1.333 0.597 1.333 1.333v0z"></path>
</svg>
