<!-- Generated by IcoMoon.io -->
<svg version="1.1" xmlns="http://www.w3.org/2000/svg" width="40" height="40" viewBox="0 0 40 40">
<title>podium</title>
<path fill="#37352f" d="M30.387 13.507c-0.246-0.31-0.623-0.507-1.046-0.507-0.003 0-0.005 0-0.008 0h-14.666v-0.667c0.004-1.213 0.817-2.236 1.928-2.555l0.019-0.005c0.346 0.334 0.814 0.545 1.331 0.56l0.003 0h1.333c1.105 0 2-0.895 2-2s-0.895-2-2-2v0h-1.333c-0.631 0.001-1.194 0.296-1.557 0.756l-0.003 0.004c-2.508 0.464-4.382 2.633-4.387 5.24v0.667h-1.333c-0.002 0-0.005-0-0.007-0-0.423 0-0.8 0.197-1.044 0.504l-0.002 0.003c-0.195 0.23-0.314 0.531-0.314 0.86 0 0.106 0.012 0.21 0.036 0.309l-0.002-0.009 0.827 3.32c0.411 1.555 1.696 2.723 3.285 2.957l0.022 0.003 1.040 9.333h-1.173c-0.736 0-1.333 0.597-1.333 1.333s0.597 1.333 1.333 1.333v0h13.333c0.736 0 1.333-0.597 1.333-1.333s-0.597-1.333-1.333-1.333v0h-1.173l1.040-9.333c1.597-0.254 2.866-1.424 3.261-2.946l0.006-0.028 0.867-3.307c0.022-0.090 0.034-0.194 0.034-0.3 0-0.329-0.119-0.629-0.316-0.862l0.002 0.002zM22.8 30.333h-5.6l-1.040-9.333h7.68zM27.213 17.333c-0.148 0.587-0.672 1.014-1.294 1.014-0.014 0-0.027-0-0.041-0.001l0.002 0h-11.8c-0.012 0-0.025 0.001-0.039 0.001-0.623 0-1.146-0.427-1.293-1.005l-0.002-0.009-0.373-1.667h15.253z"></path>
</svg>
