<!-- Generated by IcoMoon.io -->
<svg version="1.1" xmlns="http://www.w3.org/2000/svg" width="40" height="40" viewBox="0 0 40 40">
<title>print-slash</title>
<path fill="#37352f" d="M13.333 17.333c-0.736 0-1.333 0.597-1.333 1.333s0.597 1.333 1.333 1.333c0.736 0 1.333-0.597 1.333-1.333v0c0-0.736-0.597-1.333-1.333-1.333v0zM8.947 7.053c-0.242-0.242-0.577-0.392-0.947-0.392-0.739 0-1.339 0.599-1.339 1.339 0 0.37 0.15 0.704 0.392 0.947v0l3.107 3.053c-1.98 0.26-3.493 1.937-3.493 3.968 0 0.011 0 0.023 0 0.034v-0.002 8c0 2.209 1.791 4 4 4v0h1.333v4c0 0.736 0.597 1.333 1.333 1.333v0h13.333c0.736 0 1.333-0.597 1.333-1.333v0-2.12l3.053 3.067c0.242 0.244 0.577 0.394 0.947 0.394s0.705-0.151 0.947-0.394l0-0c0.244-0.242 0.394-0.577 0.394-0.947s-0.151-0.705-0.394-0.947l-0-0zM12 24v1.333h-1.333c-0.736 0-1.333-0.597-1.333-1.333v0-8c0-0.736 0.597-1.333 1.333-1.333v0h2.12l8 8h-7.453c-0.736 0-1.333 0.597-1.333 1.333v0zM25.333 30.667h-10.667v-5.333h8.787l1.88 1.88zM29.333 12h-1.333v-4c0-0.736-0.597-1.333-1.333-1.333v0h-11.12c-0.736 0-1.333 0.597-1.333 1.333s0.597 1.333 1.333 1.333v0h9.787v2.667h-4.453c-0.736 0-1.333 0.597-1.333 1.333s0.597 1.333 1.333 1.333v0h8.453c0.736 0 1.333 0.597 1.333 1.333v0 8c0.004 0.022 0.005 0.047 0.005 0.073s-0.002 0.051-0.006 0.076l0-0.003c-0.017 0.080-0.027 0.172-0.027 0.267 0 0.642 0.454 1.178 1.058 1.305l0.009 0.002h0.267c0.008 0 0.017 0 0.027 0 0.642 0 1.178-0.454 1.305-1.058l0.002-0.009c0.019-0.144 0.031-0.311 0.031-0.481 0-0.061-0.001-0.121-0.004-0.181l0 0.009v-8c0-2.209-1.791-4-4-4v0z"></path>
</svg>
