<!-- Generated by IcoMoon.io -->
<svg version="1.1" xmlns="http://www.w3.org/2000/svg" width="40" height="40" viewBox="0 0 40 40">
<title>print</title>
<path fill="#37352f" d="M13.333 17.333c-0.736 0-1.333 0.597-1.333 1.333s0.597 1.333 1.333 1.333c0.736 0 1.333-0.597 1.333-1.333v0c0-0.736-0.597-1.333-1.333-1.333v0zM29.333 12h-1.333v-4c0-0.736-0.597-1.333-1.333-1.333v0h-13.333c-0.736 0-1.333 0.597-1.333 1.333v0 4h-1.333c-2.209 0-4 1.791-4 4v0 8c0 2.209 1.791 4 4 4v0h1.333v4c0 0.736 0.597 1.333 1.333 1.333v0h13.333c0.736 0 1.333-0.597 1.333-1.333v0-4h1.333c2.209 0 4-1.791 4-4v0-8c0-2.209-1.791-4-4-4v0zM14.667 9.333h10.667v2.667h-10.667zM25.333 30.667h-10.667v-5.333h10.667zM30.667 24c0 0.736-0.597 1.333-1.333 1.333v0h-1.333v-1.333c0-0.736-0.597-1.333-1.333-1.333v0h-13.333c-0.736 0-1.333 0.597-1.333 1.333v0 1.333h-1.333c-0.736 0-1.333-0.597-1.333-1.333v0-8c0-0.736 0.597-1.333 1.333-1.333v0h18.667c0.736 0 1.333 0.597 1.333 1.333v0z"></path>
</svg>
