<!-- Generated by IcoMoon.io -->
<svg version="1.1" xmlns="http://www.w3.org/2000/svg" width="40" height="40" viewBox="0 0 40 40">
<title>rainbow</title>
<path fill="#37352f" d="M10.667 20c-0.736 0-1.333 0.597-1.333 1.333s0.597 1.333 1.333 1.333v0c3.682 0 6.667 2.985 6.667 6.667v0c0 0.736 0.597 1.333 1.333 1.333s1.333-0.597 1.333-1.333v0c0-5.155-4.179-9.333-9.333-9.333v0zM10.667 9.333c-0.736 0-1.333 0.597-1.333 1.333s0.597 1.333 1.333 1.333v0c9.573 0 17.333 7.76 17.333 17.333v0c0 0.736 0.597 1.333 1.333 1.333s1.333-0.597 1.333-1.333v0c0-11.046-8.954-20-20-20v0zM10.667 14.667c-0.736 0-1.333 0.597-1.333 1.333s0.597 1.333 1.333 1.333v0c6.627 0 12 5.373 12 12v0c0 0.736 0.597 1.333 1.333 1.333s1.333-0.597 1.333-1.333v0c0-8.1-6.566-14.667-14.667-14.667v0z"></path>
</svg>
