<!-- Generated by IcoMoon.io -->
<svg version="1.1" xmlns="http://www.w3.org/2000/svg" width="40" height="40" viewBox="0 0 40 40">
<title>rss</title>
<path fill="#37352f" d="M7.84 26.507c-0.723 0.724-1.17 1.723-1.17 2.827s0.447 2.103 1.17 2.827l-0-0c0.724 0.723 1.723 1.17 2.827 1.17s2.103-0.447 2.827-1.17l-0 0c0.665-0.712 1.074-1.672 1.074-2.727 0-2.209-1.791-4-4-4-1.055 0-2.014 0.408-2.729 1.076l0.002-0.002zM11.613 30.28c-0.242 0.242-0.577 0.392-0.947 0.392-0.739 0-1.339-0.599-1.339-1.339 0-0.37 0.15-0.704 0.392-0.947v0c0.242-0.244 0.577-0.394 0.947-0.394s0.705 0.151 0.947 0.394l0 0c0.244 0.242 0.394 0.577 0.394 0.947s-0.151 0.705-0.394 0.947l-0 0zM10.667 20c-0.736 0-1.333 0.597-1.333 1.333s0.597 1.333 1.333 1.333v0c3.682 0 6.667 2.985 6.667 6.667v0c0 0.736 0.597 1.333 1.333 1.333s1.333-0.597 1.333-1.333v0c0-5.155-4.179-9.333-9.333-9.333v0zM10.667 14.667c-0.736 0-1.333 0.597-1.333 1.333s0.597 1.333 1.333 1.333v0c6.627 0 12 5.373 12 12v0c0 0.736 0.597 1.333 1.333 1.333s1.333-0.597 1.333-1.333v0c-0.011-4.049-1.649-7.712-4.294-10.374l0.001 0.001c-2.661-2.644-6.325-4.282-10.371-4.293h-0.002zM24.813 15.187c-3.629-3.606-8.626-5.839-14.144-5.853h-0.003c-0.736 0-1.333 0.597-1.333 1.333s0.597 1.333 1.333 1.333v0c9.573 0 17.333 7.76 17.333 17.333v0c0 0.736 0.597 1.333 1.333 1.333s1.333-0.597 1.333-1.333v0c-0.015-5.521-2.248-10.518-5.854-14.148l0.001 0.001z"></path>
</svg>
