<!-- Generated by IcoMoon.io -->
<svg version="1.1" xmlns="http://www.w3.org/2000/svg" width="40" height="40" viewBox="0 0 40 40">
<title>sad-cry</title>
<path fill="#37352f" d="M20 6.667c-7.347 0.022-13.295 5.983-13.295 13.333 0 5.718 3.599 10.595 8.656 12.49l0.092 0.030h0.080c1.329 0.498 2.864 0.786 4.467 0.786s3.138-0.288 4.557-0.816l-0.090 0.029h0.080c5.149-1.925 8.748-6.802 8.748-12.52 0-7.35-5.947-13.311-13.292-13.333h-0.002zM22.667 30.32c-0.8 0.22-1.719 0.347-2.667 0.347s-1.867-0.127-2.74-0.364l0.073 0.017v-4.987h5.333zM25.333 29.227v-10.56c0.736 0 1.333-0.597 1.333-1.333s-0.597-1.333-1.333-1.333v0h-2.667c-0.736 0-1.333 0.597-1.333 1.333s0.597 1.333 1.333 1.333v0 4h-5.333v-4c0.736 0 1.333-0.597 1.333-1.333s-0.597-1.333-1.333-1.333v0h-2.667c-0.736 0-1.333 0.597-1.333 1.333s0.597 1.333 1.333 1.333v0 10.56c-3.211-1.879-5.333-5.31-5.333-9.238 0-5.891 4.776-10.667 10.667-10.667s10.667 4.776 10.667 10.667c0 3.927-2.122 7.359-5.283 9.21l-0.050 0.027z"></path>
</svg>
