<!-- Generated by IcoMoon.io -->
<svg version="1.1" xmlns="http://www.w3.org/2000/svg" width="40" height="40" viewBox="0 0 40 40">
<title>save</title>
<path fill="#37352f" d="M31.613 16.387l-8-8c-0.119-0.117-0.261-0.211-0.418-0.277l-0.009-0.003c-0.154-0.064-0.332-0.103-0.519-0.107l-0.001-0h-10.667c-2.209 0-4 1.791-4 4v0 16c0 2.209 1.791 4 4 4v0h16c2.209 0 4-1.791 4-4v0-10.667c0-0.002 0-0.005 0-0.008 0-0.366-0.148-0.698-0.387-0.939l0 0zM16 10.667h5.333v2.667h-5.333zM24 29.333h-8v-4c0-0.736 0.597-1.333 1.333-1.333v0h5.333c0.736 0 1.333 0.597 1.333 1.333v0zM29.333 28c0 0.736-0.597 1.333-1.333 1.333v0h-1.333v-4c0-2.209-1.791-4-4-4v0h-5.333c-2.209 0-4 1.791-4 4v0 4h-1.333c-0.736 0-1.333-0.597-1.333-1.333v0-16c0-0.736 0.597-1.333 1.333-1.333v0h1.333v4c0 0.736 0.597 1.333 1.333 1.333v0h8c0.736 0 1.333-0.597 1.333-1.333v0-2.12l5.333 5.333z"></path>
</svg>
