<!-- Generated by IcoMoon.io -->
<svg version="1.1" xmlns="http://www.w3.org/2000/svg" width="40" height="40" viewBox="0 0 40 40">
<title>shield-slash</title>
<path fill="#37352f" d="M32.947 31.053l-24-24c-0.242-0.242-0.577-0.392-0.947-0.392-0.739 0-1.339 0.599-1.339 1.339 0 0.37 0.15 0.704 0.392 0.947v0l2.28 2.267v8.627c0.002 4.009 1.97 7.558 4.991 9.736l0.036 0.024 4.867 3.48c0.215 0.155 0.483 0.247 0.773 0.247s0.558-0.093 0.777-0.25l-0.004 0.003 4.867-3.48c0.427-0.304 0.801-0.61 1.153-0.939l-0.006 0.006 4.267 4.28c0.242 0.244 0.577 0.394 0.947 0.394s0.705-0.151 0.947-0.394l0-0c0.244-0.242 0.394-0.577 0.394-0.947s-0.151-0.705-0.394-0.947l-0-0zM24.093 27.44l-4.093 2.92-4.093-2.92c-2.377-1.714-3.907-4.475-3.907-7.594 0-0.002 0-0.005 0-0.007v0-5.96l12.893 12.907c-0.253 0.227-0.52 0.44-0.8 0.653zM17.427 10.76c0.988-0.334 1.838-0.731 2.635-1.208l-0.062 0.034c1.939 1.198 4.29 1.908 6.806 1.908 0.42 0 0.836-0.020 1.246-0.059l-0.052 0.004v8.4c0 0.004 0 0.010 0 0.015 0 0.551-0.049 1.090-0.141 1.614l0.008-0.055c-0.011 0.065-0.018 0.14-0.018 0.216 0 0.663 0.483 1.212 1.117 1.316l0.008 0.001h0.213c0.005 0 0.011 0 0.017 0 0.661 0 1.21-0.481 1.315-1.112l0.001-0.008c0.1-0.6 0.158-1.292 0.16-1.998v-9.922c-0.003-0.414-0.194-0.782-0.491-1.025l-0.002-0.002c-0.229-0.19-0.525-0.305-0.849-0.305-0.091 0-0.18 0.009-0.266 0.027l0.009-0.001c-0.67 0.152-1.44 0.239-2.23 0.239-2.278 0-4.386-0.724-6.109-1.954l0.032 0.022c-0.212-0.149-0.476-0.238-0.76-0.238s-0.548 0.089-0.764 0.241l0.004-0.003c-0.767 0.536-1.65 0.988-2.592 1.311l-0.075 0.022c-0.533 0.184-0.91 0.681-0.91 1.267 0 0.738 0.598 1.337 1.337 1.337 0.153 0 0.299-0.026 0.436-0.073l-0.009 0.003z"></path>
</svg>
