<!-- Generated by IcoMoon.io -->
<svg version="1.1" xmlns="http://www.w3.org/2000/svg" width="40" height="40" viewBox="0 0 40 40">
<title>shopping-cart-alt</title>
<path fill="#37352f" d="M32.667 24c-0.006-1.675-1.042-3.107-2.506-3.697l-0.027-0.010 2.493-9.333c0.028-0.101 0.044-0.218 0.044-0.338 0-0.311-0.107-0.598-0.286-0.825l0.002 0.003c-0.246-0.287-0.609-0.467-1.014-0.467-0.014 0-0.028 0-0.042 0.001l0.002-0h-18.267l-0.44-1.68c-0.158-0.573-0.674-0.987-1.287-0.987-0.002 0-0.004 0-0.006 0h-2.666v2.667h1.64l3.307 12.347c0.158 0.573 0.674 0.987 1.288 0.987 0.016 0 0.032-0 0.048-0.001l-0.002 0h13.72c0.736 0 1.333 0.597 1.333 1.333s-0.597 1.333-1.333 1.333v0h-17.333c-0.736 0-1.333 0.597-1.333 1.333s0.597 1.333 1.333 1.333v0h1.573c-0.152 0.406-0.24 0.875-0.24 1.365 0 2.209 1.791 4 4 4s4-1.791 4-4c0-0.49-0.088-0.959-0.249-1.392l0.009 0.028h3.147c-0.152 0.406-0.24 0.875-0.24 1.364 0 2.209 1.791 4 4 4s4-1.791 4-4c0-0.011-0-0.022-0-0.033v0.002c-0.003-0.723-0.2-1.398-0.543-1.978l0.010 0.018c1.126-0.718 1.863-1.959 1.867-3.373v-0.001zM27.453 20h-11.453l-2.213-8h15.813zM16.667 30.667c-0.736 0-1.333-0.597-1.333-1.333s0.597-1.333 1.333-1.333c0.736 0 1.333 0.597 1.333 1.333v0c0 0.736-0.597 1.333-1.333 1.333v0zM27.333 30.667c-0.736 0-1.333-0.597-1.333-1.333s0.597-1.333 1.333-1.333c0.736 0 1.333 0.597 1.333 1.333v0c0 0.736-0.597 1.333-1.333 1.333v0z"></path>
</svg>
