<!-- Generated by IcoMoon.io -->
<svg version="1.1" xmlns="http://www.w3.org/2000/svg" width="40" height="40" viewBox="0 0 40 40">
<title>sigma</title>
<path fill="#37352f" d="M25.333 25.333h-7.453l4.4-4.387c0.244-0.242 0.394-0.577 0.394-0.947s-0.151-0.705-0.394-0.947l-0-0-4.4-4.387h7.453c0.736 0 1.333-0.597 1.333-1.333s-0.597-1.333-1.333-1.333v0h-10.667c-0.551 0.003-1.023 0.339-1.223 0.818l-0.003 0.009c-0.066 0.153-0.104 0.33-0.104 0.517 0 0.365 0.147 0.696 0.384 0.937l-0-0 5.733 5.72-5.733 5.72c-0.238 0.241-0.384 0.571-0.384 0.936 0 0.187 0.038 0.364 0.108 0.526l-0.003-0.009c0.204 0.487 0.676 0.824 1.226 0.827h10.667c0.736 0 1.333-0.597 1.333-1.333s-0.597-1.333-1.333-1.333v0z"></path>
</svg>
