<!-- Generated by IcoMoon.io -->
<svg version="1.1" xmlns="http://www.w3.org/2000/svg" width="40" height="40" viewBox="0 0 40 40">
<title>signal-alt-3</title>
<path fill="#37352f" d="M22.667 16h-5.333c-0.736 0-1.333 0.597-1.333 1.333v0 16c0 0.736 0.597 1.333 1.333 1.333v0h5.333c0.736 0 1.333-0.597 1.333-1.333v0-16c0-0.736-0.597-1.333-1.333-1.333v0zM21.333 32h-2.667v-13.333h2.667zM33.333 5.333h-5.333c-0.736 0-1.333 0.597-1.333 1.333v0 26.667c0 0.736 0.597 1.333 1.333 1.333v0h5.333c0.736 0 1.333-0.597 1.333-1.333v0-26.667c0-0.736-0.597-1.333-1.333-1.333v0zM32 32h-2.667v-24h2.667zM12 24h-5.333c-0.736 0-1.333 0.597-1.333 1.333v0 8c0 0.736 0.597 1.333 1.333 1.333v0h5.333c0.736 0 1.333-0.597 1.333-1.333v0-8c0-0.736-0.597-1.333-1.333-1.333v0zM10.667 32h-2.667v-5.333h2.667z"></path>
</svg>
