<!-- Generated by IcoMoon.io -->
<svg version="1.1" xmlns="http://www.w3.org/2000/svg" width="40" height="40" viewBox="0 0 40 40">
<title>skip-forward</title>
<path fill="#37352f" d="M29.333 8c-2.209 0-4 1.791-4 4v0 3.787l-12-7.16c-0.626-0.38-1.384-0.605-2.193-0.605s-1.567 0.225-2.212 0.615l0.019-0.011c-1.372 0.79-2.28 2.248-2.28 3.918 0 0.005 0 0.011 0 0.016v-0.001 14.88c-0 0.022-0.001 0.048-0.001 0.074 0 1.676 0.915 3.138 2.272 3.914l0.022 0.012c0.612 0.352 1.345 0.56 2.127 0.56 0.007 0 0.014-0 0.020-0h-0.001c0.823-0.006 1.591-0.238 2.246-0.638l-0.019 0.011 12-7.16v3.787c0 2.209 1.791 4 4 4s4-1.791 4-4v0-16c0-2.209-1.791-4-4-4v0zM24.427 21.64l-12.427 7.44c-0.243 0.15-0.538 0.239-0.853 0.239s-0.61-0.089-0.86-0.244l0.007 0.004c-0.577-0.325-0.96-0.934-0.96-1.632 0-0.003 0-0.006 0-0.009v0-14.88c-0-0.013-0-0.027-0-0.042 0-0.693 0.377-1.298 0.938-1.62l0.009-0.005c0.238-0.138 0.522-0.222 0.825-0.227l0.001-0c0.005-0 0.011-0 0.018-0 0.325 0 0.628 0.094 0.882 0.257l12.433 7.436c0.55 0.347 0.91 0.952 0.91 1.64s-0.36 1.293-0.902 1.635l-0.008 0.005zM30.667 28c0 0.736-0.597 1.333-1.333 1.333s-1.333-0.597-1.333-1.333v0-16c0-0.736 0.597-1.333 1.333-1.333s1.333 0.597 1.333 1.333v0z"></path>
</svg>
