<!-- Generated by IcoMoon.io -->
<svg version="1.1" xmlns="http://www.w3.org/2000/svg" width="40" height="40" viewBox="0 0 40 40">
<title>skype-alt</title>
<path fill="#37352f" d="M24.186 19.75c-0.495-0.323-1.066-0.592-1.673-0.778l-0.048-0.013c-0.373-0.113-0.786-0.223-1.214-0.329-0.372-0.104-0.815-0.21-1.363-0.331-0.742-0.157-1.382-0.352-1.999-0.594l0.084 0.029c-0.329-0.13-0.606-0.334-0.818-0.593l-0.003-0.003c-0.135-0.183-0.216-0.413-0.216-0.662 0-0.032 0.001-0.064 0.004-0.096l-0 0.004c0-0.001 0-0.002 0-0.003 0-0.3 0.102-0.576 0.274-0.795l-0.002 0.003c0.245-0.286 0.559-0.504 0.918-0.63l0.015-0.005c0.518-0.184 1.116-0.29 1.738-0.29 0.056 0 0.113 0.001 0.169 0.003l-0.008-0c0.024-0 0.052-0.001 0.081-0.001 0.496 0 0.976 0.072 1.429 0.205l-0.036-0.009c0.338 0.096 0.632 0.243 0.892 0.434l-0.008-0.005c0.173 0.124 0.317 0.276 0.43 0.451l0.004 0.006c0.229 0.423 0.669 0.705 1.176 0.705 0.736 0 1.333-0.597 1.333-1.333 0-0.233-0.060-0.452-0.165-0.642l0.003 0.007c-0.29-0.506-0.663-0.931-1.106-1.27l-0.010-0.007c-0.499-0.387-1.085-0.692-1.721-0.882l-0.038-0.010c-0.653-0.2-1.403-0.316-2.18-0.316-0.030 0-0.059 0-0.089 0.001l0.004-0c-0.050-0.001-0.11-0.002-0.169-0.002-0.965 0-1.89 0.172-2.746 0.487l0.055-0.018c-0.852 0.315-1.564 0.839-2.097 1.511l-0.008 0.010c-0.503 0.658-0.806 1.491-0.806 2.396v0c-0.001 0.028-0.001 0.062-0.001 0.095 0 0.867 0.291 1.665 0.781 2.303l-0.007-0.009c0.5 0.626 1.145 1.115 1.886 1.418l0.031 0.011c0.468 0.189 1.049 0.375 1.646 0.523l0.097 0.020c0.011 0.004 0.019 0.013 0.030 0.016 0.255 0.077 0.663 0.18 1.253 0.307 0.23 0.049 0.446 0.104 0.663 0.158 0.021 0.006 0.051 0.013 0.072 0.019l0.024 0.004c0.331 0.084 0.649 0.172 0.941 0.261 0.387 0.115 0.725 0.271 1.034 0.468l-0.016-0.010c0.198 0.126 0.36 0.291 0.479 0.484l0.004 0.006c0.101 0.204 0.16 0.444 0.16 0.698 0 0.029-0.001 0.057-0.002 0.086l0-0.004c0.001 0.025 0.002 0.053 0.002 0.082 0 0.336-0.108 0.646-0.29 0.899l0.003-0.004c-0.272 0.352-0.635 0.621-1.054 0.775l-0.016 0.005c-0.539 0.214-1.164 0.339-1.818 0.339-0.058 0-0.115-0.001-0.172-0.003l0.008 0c-0.057 0.002-0.123 0.004-0.19 0.004-0.756 0-1.471-0.17-2.111-0.475l0.030 0.013c-0.333-0.18-0.608-0.425-0.816-0.722l-0.005-0.007c-0.143-0.186-0.239-0.415-0.268-0.664l-0.001-0.006c0-0.736-0.597-1.333-1.333-1.333s-1.333 0.597-1.333 1.333v0c0.024 0.823 0.299 1.578 0.749 2.196l-0.008-0.011c0.463 0.662 1.063 1.196 1.762 1.57l0.027 0.013c0.96 0.479 2.091 0.759 3.287 0.759 0.074 0 0.147-0.001 0.221-0.003l-0.011 0c0.054 0.001 0.119 0.002 0.183 0.002 1.017 0 1.986-0.199 2.873-0.561l-0.051 0.018c0.908-0.354 1.661-0.939 2.21-1.683l0.010-0.014c0.488-0.677 0.78-1.522 0.78-2.436 0-0.047-0.001-0.093-0.002-0.139l0 0.007c0-0.021 0.001-0.047 0.001-0.072 0-0.721-0.186-1.4-0.511-1.989l0.011 0.021c-0.336-0.57-0.782-1.041-1.313-1.394l-0.016-0.010zM33.815 22.255c0.118-0.681 0.185-1.466 0.185-2.267 0-7.726-6.263-13.988-13.988-13.988-0.801 0-1.585 0.067-2.349 0.196l0.082-0.011c-1.095-0.537-2.384-0.852-3.746-0.852-4.786 0-8.665 3.88-8.665 8.665 0 1.362 0.314 2.651 0.874 3.797l-0.023-0.051c-0.118 0.681-0.185 1.466-0.185 2.267 0 7.726 6.263 13.988 13.988 13.988 0.801 0 1.585-0.067 2.349-0.196l-0.082 0.011c1.095 0.537 2.384 0.852 3.746 0.852 4.786 0 8.665-3.88 8.665-8.665 0-1.362-0.314-2.651-0.874-3.797l0.023 0.051zM26 32c-1.061-0-2.058-0.276-2.923-0.759l0.030 0.016c-0.187-0.105-0.409-0.167-0.647-0.167-0.091 0-0.179 0.009-0.265 0.026l0.009-0.001c-0.666 0.139-1.431 0.219-2.215 0.219-6.253 0-11.323-5.069-11.323-11.323 0-0.004 0-0.007 0-0.011v0.001c0.001-0.781 0.081-1.543 0.231-2.279l-0.013 0.074c0.016-0.077 0.025-0.166 0.025-0.257 0-0.237-0.062-0.459-0.17-0.652l0.003 0.007c-0.468-0.835-0.744-1.831-0.744-2.893 0-3.313 2.686-5.999 5.999-5.999 1.061 0 2.058 0.276 2.923 0.759l-0.030-0.016c0.186 0.105 0.409 0.167 0.646 0.167 0.091 0 0.18-0.009 0.266-0.026l-0.009 0.001c0.666-0.139 1.431-0.219 2.215-0.219 6.253 0 11.323 5.069 11.323 11.323 0 0.004 0 0.007 0 0.011v-0.001c-0.001 0.781-0.081 1.543-0.231 2.279l0.013-0.074c-0.016 0.077-0.025 0.166-0.025 0.257 0 0.237 0.062 0.459 0.17 0.652l-0.003-0.007c0.468 0.835 0.744 1.832 0.744 2.894 0 3.313-2.686 5.998-5.998 5.998-0.001 0-0.001 0-0.002 0h0z"></path>
</svg>
