<!-- Generated by IcoMoon.io -->
<svg version="1.1" xmlns="http://www.w3.org/2000/svg" width="40" height="40" viewBox="0 0 40 40">
<title>spin</title>
<path fill="#37352f" d="M21.333 8c-5.155 0-9.333 4.179-9.333 9.333s4.179 9.333 9.333 9.333v0c3.682 0 6.667-2.985 6.667-6.667s-2.985-6.667-6.667-6.667v0c-2.209 0-4 1.791-4 4s1.791 4 4 4v0c0.736 0 1.333-0.597 1.333-1.333s-0.597-1.333-1.333-1.333v0c-0.736 0-1.333-0.597-1.333-1.333s0.597-1.333 1.333-1.333v0c2.209 0 4 1.791 4 4s-1.791 4-4 4v0c-3.682 0-6.667-2.985-6.667-6.667s2.985-6.667 6.667-6.667v0c5.155 0 9.333 4.179 9.333 9.333s-4.179 9.333-9.333 9.333v0c-6.627 0-12-5.373-12-12v0c0-0.736-0.597-1.333-1.333-1.333s-1.333 0.597-1.333 1.333v0c0 8.1 6.566 14.667 14.667 14.667v0c6.627 0 12-5.373 12-12s-5.373-12-12-12v0z"></path>
</svg>
