<!-- Generated by IcoMoon.io -->
<svg version="1.1" xmlns="http://www.w3.org/2000/svg" width="40" height="40" viewBox="0 0 40 40">
<title>stethoscope-alt</title>
<path fill="#37352f" d="M29.333 14.667c-0.003 0-0.006 0-0.010 0-2.204 0-3.99 1.786-3.99 3.99 0 1.729 1.1 3.202 2.639 3.755l0.028 0.009v2.246c0 3.314-2.686 6-6 6s-6-2.686-6-6v0-1.359l4.165-3.331c1.53-1.226 2.501-3.094 2.501-5.19 0-0.006 0-0.011-0-0.017v0.001-6.77c0-0.736-0.597-1.333-1.333-1.333v0h-2.667c-0.736 0-1.333 0.597-1.333 1.333s0.597 1.333 1.333 1.333v0h1.333v5.437c0 0.003 0 0.006 0 0.010 0 1.257-0.583 2.378-1.493 3.108l-0.008 0.006-3.833 3.065-3.832-3.065c-0.918-0.735-1.501-1.857-1.501-3.114 0-0.003 0-0.007 0-0.010v0.001-5.437h1.333c0.736 0 1.333-0.597 1.333-1.333s-0.597-1.333-1.333-1.333v0h-2.667c-0.736 0-1.333 0.597-1.333 1.333v0 6.77c0 0.005-0 0.010-0 0.016 0 2.095 0.972 3.964 2.489 5.18l0.013 0.010 4.165 3.331v1.359c0 4.786 3.88 8.667 8.667 8.667s8.667-3.88 8.667-8.667v0-2.246c1.566-0.562 2.667-2.035 2.667-3.764 0-2.204-1.786-3.99-3.99-3.99-0.003 0-0.007 0-0.010 0h0.001zM29.333 20c-0.736 0-1.333-0.597-1.333-1.333s0.597-1.333 1.333-1.333c0.736 0 1.333 0.597 1.333 1.333v0c-0.001 0.736-0.597 1.332-1.333 1.333h-0z"></path>
</svg>
