<!-- Generated by IcoMoon.io -->
<svg version="1.1" xmlns="http://www.w3.org/2000/svg" width="40" height="40" viewBox="0 0 40 40">
<title>stopwatch-slash</title>
<path fill="#37352f" d="M18.133 11.507c-0.638 0.118-1.115 0.67-1.115 1.333 0 0.748 0.607 1.355 1.355 1.355 0.085 0 0.168-0.008 0.248-0.023l-0.008 0.001c0.399-0.072 0.859-0.116 1.33-0.12l0.004-0c4.418 0 8 3.582 8 8v0c-0.004 0.474-0.048 0.935-0.127 1.383l0.007-0.050c-0.013 0.071-0.021 0.153-0.021 0.236 0 0.65 0.464 1.191 1.079 1.309l0.008 0.001h0.24c0.006 0 0.014 0 0.022 0 0.652 0 1.194-0.467 1.31-1.085l0.001-0.008c0.118-0.549 0.19-1.183 0.2-1.832l0-0.008c-0.007-2.481-0.859-4.761-2.284-6.569l0.017 0.023 1.213-1.2c0.242-0.242 0.392-0.577 0.392-0.947 0-0.739-0.599-1.339-1.339-1.339-0.37 0-0.704 0.15-0.947 0.392v0l-1.2 1.213c-1.781-1.393-4.052-2.235-6.519-2.24h-0.001c-0.006 0-0.012-0-0.019-0-0.653 0-1.292 0.063-1.91 0.184l0.063-0.010zM17.333 10h5.333c0.736 0 1.333-0.597 1.333-1.333s-0.597-1.333-1.333-1.333v0h-5.333c-0.736 0-1.333 0.597-1.333 1.333s0.597 1.333 1.333 1.333v0zM21.987 22.107s0-0.067 0-0.107 0-0.067 0-0.107l1.787-1.773c0.242-0.242 0.392-0.577 0.392-0.947 0-0.739-0.599-1.339-1.339-1.339-0.37 0-0.704 0.15-0.947 0.392l-1.773 1.773h-0.213l-8.28-8.28c-0.242-0.242-0.577-0.392-0.947-0.392-0.739 0-1.339 0.599-1.339 1.339 0 0.37 0.15 0.704 0.392 0.947l1.853 1.853c-1.383 1.781-2.218 4.049-2.218 6.511 0 5.891 4.776 10.667 10.667 10.667 2.462 0 4.73-0.834 6.535-2.236l-0.024 0.018 1.853 1.853c0.242 0.244 0.577 0.394 0.947 0.394s0.705-0.151 0.947-0.394l0-0c0.244-0.242 0.394-0.577 0.394-0.947s-0.151-0.705-0.394-0.947l-0-0zM20 30c-0.007 0-0.014 0-0.022 0-4.418 0-8-3.582-8-8 0-1.752 0.563-3.372 1.518-4.69l-0.016 0.023 4.533 4.52s0 0.067 0 0.107c-0 0.012-0 0.026-0 0.040 0 1.1 0.888 1.993 1.986 2h0.107l4.52 4.533c-1.284 0.917-2.886 1.467-4.617 1.467-0.003 0-0.007 0-0.010 0h0.001z"></path>
</svg>
