<!-- Generated by IcoMoon.io -->
<svg version="1.1" xmlns="http://www.w3.org/2000/svg" width="40" height="40" viewBox="0 0 40 40">
<title>store</title>
<path fill="#37352f" d="M33.333 14.427c0.003-0.038 0.005-0.082 0.005-0.127s-0.002-0.089-0.005-0.132l0 0.006-2.667-6.667c-0.201-0.498-0.68-0.843-1.24-0.843-0.033 0-0.065 0.001-0.098 0.004l0.004-0h-18.667c-0 0-0.001 0-0.001 0-0.559 0-1.037 0.344-1.236 0.831l-0.003 0.009-2.667 6.667c-0.003 0.038-0.005 0.082-0.005 0.127s0.002 0.089 0.005 0.132l-0-0.006c-0.042 0.069-0.074 0.149-0.092 0.235l-0.001 0.005c0.032 1.931 1.085 3.608 2.641 4.52l0.025 0.014v12.8c0 0.736 0.597 1.333 1.333 1.333v0h18.667c0.736 0 1.333-0.597 1.333-1.333v0-12.747c1.596-0.934 2.654-2.635 2.667-4.585v-0.002c0.006-0.036 0.009-0.078 0.009-0.12s-0.003-0.084-0.010-0.124l0.001 0.004zM21.333 30.667h-2.667v-5.333h2.667zM28 30.667h-4v-6.667c0-0.736-0.597-1.333-1.333-1.333v0h-5.333c-0.736 0-1.333 0.597-1.333 1.333v0 6.667h-4v-10.667c1.595-0.009 3.023-0.717 3.994-1.834l0.006-0.006c0.982 1.11 2.41 1.806 4 1.806s3.018-0.696 3.995-1.8l0.005-0.006c0.977 1.123 2.405 1.831 3.998 1.84h0.002zM28 17.333c-1.473 0-2.667-1.194-2.667-2.667v0c0-0.736-0.597-1.333-1.333-1.333s-1.333 0.597-1.333 1.333v0c0 1.473-1.194 2.667-2.667 2.667s-2.667-1.194-2.667-2.667v0c0-0.736-0.597-1.333-1.333-1.333s-1.333 0.597-1.333 1.333v0c0.001 0.030 0.002 0.065 0.002 0.1 0 1.474-1.195 2.669-2.669 2.669-1.439 0-2.611-1.138-2.666-2.564l-0-0.005 2.24-5.533h16.853l2.24 5.533c-0.107 1.384-1.257 2.467-2.659 2.467-0.003 0-0.005 0-0.008 0h0z"></path>
</svg>
