<!-- Generated by IcoMoon.io -->
<svg version="1.1" xmlns="http://www.w3.org/2000/svg" width="40" height="40" viewBox="0 0 40 40">
<title>tachometer-fast</title>
<path fill="#37352f" d="M24.387 17.72l-3.707 3.707c-0.203-0.056-0.437-0.090-0.678-0.093l-0.002-0c-1.473 0-2.667 1.194-2.667 2.667v0c0.003 0.243 0.037 0.477 0.098 0.7l-0.005-0.020-1.040 1.040c-0.244 0.242-0.394 0.577-0.394 0.947s0.151 0.705 0.394 0.947l0 0c0.242 0.244 0.577 0.394 0.947 0.394s0.705-0.151 0.947-0.394l1.040-1.040c0.203 0.056 0.437 0.090 0.678 0.093l0.002 0c1.473 0 2.667-1.194 2.667-2.667v0c-0.003-0.243-0.037-0.477-0.098-0.7l0.005 0.020 3.707-3.707c0.242-0.242 0.392-0.577 0.392-0.947 0-0.739-0.599-1.339-1.339-1.339-0.37 0-0.704 0.15-0.947 0.392v0zM20 9.333c-7.364 0-13.333 5.97-13.333 13.333v0c-0 0.010-0 0.021-0 0.033 0 2.753 0.842 5.31 2.283 7.426l-0.029-0.046c0.243 0.357 0.648 0.588 1.107 0.588 0.737 0 1.335-0.598 1.335-1.335 0-0.279-0.085-0.537-0.231-0.751l0.003 0.005c-1.128-1.665-1.8-3.719-1.8-5.93 0-5.891 4.776-10.667 10.667-10.667s10.667 4.776 10.667 10.667c0 2.211-0.672 4.264-1.824 5.967l0.024-0.038c-0.143 0.209-0.229 0.468-0.229 0.747 0 0.459 0.232 0.863 0.584 1.103l0.005 0.003c0.209 0.142 0.466 0.227 0.744 0.227 0.001 0 0.002 0 0.003 0h-0c0.001 0 0.001 0 0.002 0 0.458 0 0.862-0.231 1.102-0.582l0.003-0.005c1.411-2.071 2.253-4.627 2.253-7.38 0-0.012 0-0.023-0-0.035v0.002c0-7.364-5.97-13.333-13.333-13.333v0z"></path>
</svg>
