<!-- Generated by IcoMoon.io -->
<svg version="1.1" xmlns="http://www.w3.org/2000/svg" width="40" height="40" viewBox="0 0 40 40">
<title>temperature-minus</title>
<path fill="#37352f" d="M22.667 11.333c0-3.314-2.686-6-6-6s-6 2.686-6 6v0 10c-1.243 1.403-2.002 3.26-2.002 5.293 0 3.809 2.663 6.997 6.228 7.803l0.054 0.010c0.503 0.12 1.088 0.201 1.688 0.226l0.018 0.001c0.015 0 0.033 0 0.051 0 4.418 0 8-3.582 8-8 0-2.053-0.773-3.925-2.044-5.341l0.007 0.007zM20 30.813c-0.939 0.836-2.183 1.346-3.547 1.346-2.952 0-5.346-2.393-5.346-5.346 0-1.589 0.693-3.016 1.794-3.995l0.005-0.005c0.246-0.241 0.398-0.576 0.4-0.946v-10.534c0-1.841 1.492-3.333 3.333-3.333s3.333 1.492 3.333 3.333v0 10.587c0.002 0.371 0.154 0.706 0.4 0.946l0 0c1.004 0.971 1.628 2.331 1.628 3.836 0 1.68-0.777 3.179-1.991 4.156l-0.010 0.008zM18 24.373v-13.040c0-0.736-0.597-1.333-1.333-1.333s-1.333 0.597-1.333 1.333v0 13.040c-0.798 0.467-1.327 1.318-1.333 2.292v0.001c0 1.473 1.194 2.667 2.667 2.667s2.667-1.194 2.667-2.667v0c-0.006-0.976-0.535-1.826-1.321-2.287l-0.013-0.007zM30 7.333h-4c-0.736 0-1.333 0.597-1.333 1.333s0.597 1.333 1.333 1.333v0h4c0.736 0 1.333-0.597 1.333-1.333s-0.597-1.333-1.333-1.333v0z"></path>
</svg>
