<!-- Generated by IcoMoon.io -->
<svg version="1.1" xmlns="http://www.w3.org/2000/svg" width="40" height="40" viewBox="0 0 40 40">
<title>transaction</title>
<path fill="#37352f" d="M30.667 6.667h-13.333c-2.209 0-4 1.791-4 4v0 9.333c0 2.209 1.791 4 4 4v0h13.333c2.209 0 4-1.791 4-4v0-9.333c0-2.209-1.791-4-4-4v0zM32 20c0 0.736-0.597 1.333-1.333 1.333v0h-13.333c-0.736 0-1.333-0.597-1.333-1.333v0-9.333c0-0.736 0.597-1.333 1.333-1.333v0h13.333c0.736 0 1.333 0.597 1.333 1.333v0zM27.333 14.667c-0.515 0.002-0.983 0.199-1.335 0.521l0.001-0.001c-0.354-0.322-0.826-0.52-1.345-0.52-1.105 0-2 0.895-2 2s0.895 2 2 2c0.519 0 0.991-0.197 1.347-0.521l-0.002 0.001c0.354 0.322 0.826 0.52 1.345 0.52 1.105 0 2-0.895 2-2s-0.895-2-2-2c-0.004 0-0.008 0-0.012 0h0.001zM25.333 26.667c-0.736 0-1.333 0.597-1.333 1.333v0 1.333c0 0.736-0.597 1.333-1.333 1.333v0h-13.333c-0.736 0-1.333-0.597-1.333-1.333v0-5.333h1.333c0.736 0 1.333-0.597 1.333-1.333s-0.597-1.333-1.333-1.333v0h-1.333v-1.333c0-0.736 0.597-1.333 1.333-1.333v0c0.736 0 1.333-0.597 1.333-1.333s-0.597-1.333-1.333-1.333v0c-2.209 0-4 1.791-4 4v0 9.333c0 2.209 1.791 4 4 4v0h13.333c2.209 0 4-1.791 4-4v0-1.333c0-0.736-0.597-1.333-1.333-1.333v0zM12 28h1.333c0.736 0 1.333-0.597 1.333-1.333s-0.597-1.333-1.333-1.333v0h-1.333c-0.736 0-1.333 0.597-1.333 1.333s0.597 1.333 1.333 1.333v0z"></path>
</svg>
