<!-- Generated by IcoMoon.io -->
<svg version="1.1" xmlns="http://www.w3.org/2000/svg" width="40" height="40" viewBox="0 0 40 40">
<title>wall</title>
<path fill="#37352f" d="M32 16c0.736 0 1.333-0.597 1.333-1.333s-0.597-1.333-1.333-1.333v0h-1.333v-2.667h1.333c0.736 0 1.333-0.597 1.333-1.333s-0.597-1.333-1.333-1.333v0h-24c-0.736 0-1.333 0.597-1.333 1.333s0.597 1.333 1.333 1.333v0h4v2.667h-4c-0.736 0-1.333 0.597-1.333 1.333s0.597 1.333 1.333 1.333v0h1.333v2.667h-1.333c-0.736 0-1.333 0.597-1.333 1.333s0.597 1.333 1.333 1.333v0h4v2.667h-4c-0.736 0-1.333 0.597-1.333 1.333s0.597 1.333 1.333 1.333v0h1.333v2.667h-1.333c-0.736 0-1.333 0.597-1.333 1.333s0.597 1.333 1.333 1.333v0h24c0.736 0 1.333-0.597 1.333-1.333s-0.597-1.333-1.333-1.333v0h-4v-2.667h4c0.736 0 1.333-0.597 1.333-1.333s-0.597-1.333-1.333-1.333v0h-1.333v-2.667h1.333c0.736 0 1.333-0.597 1.333-1.333s-0.597-1.333-1.333-1.333v0h-4v-2.667zM14.667 10.667h5.333v2.667h-5.333zM25.333 16v2.667h-5.333v-2.667zM12 16h5.333v2.667h-5.333zM20 21.333v2.667h-5.333v-2.667zM17.333 29.333h-5.333v-2.667h5.333zM25.333 29.333h-5.333v-2.667h5.333zM28 24h-5.333v-2.667h5.333zM22.667 13.333v-2.667h5.333v2.667z"></path>
</svg>
