<!-- Generated by IcoMoon.io -->
<svg version="1.1" xmlns="http://www.w3.org/2000/svg" width="40" height="40" viewBox="0 0 40 40">
<title>windsock</title>
<path fill="#37352f" d="M28.107 10.667l-14.773-1.227v-1.44c0-0.736-0.597-1.333-1.333-1.333s-1.333 0.597-1.333 1.333v0 24c0 0.736 0.597 1.333 1.333 1.333s1.333-0.597 1.333-1.333v0-9.44l14.773-1.227c0.689-0.057 1.227-0.63 1.227-1.329 0-0.001 0-0.003 0-0.004v0-8c0-0.001 0-0.003 0-0.004 0-0.699-0.538-1.272-1.222-1.329l-0.005-0zM16 19.667l-2.667 0.213v-7.76l2.667 0.213zM21.333 19.213l-2.667 0.227v-6.88l2.667 0.227zM26.667 18.773l-2.667 0.227v-6l2.667 0.227z"></path>
</svg>
