<!-- Generated by IcoMoon.io -->
<svg version="1.1" xmlns="http://www.w3.org/2000/svg" width="40" height="40" viewBox="0 0 40 40">
<title>yin-yang</title>
<path fill="#37352f" d="M20 24.667c-0.736 0-1.333 0.597-1.333 1.333s0.597 1.333 1.333 1.333c0.736 0 1.333-0.597 1.333-1.333v0c0-0.736-0.597-1.333-1.333-1.333v0zM20 6.667c-0 0-0 0-0 0-0.264 0-0.524 0.014-0.781 0.041l0.032-0.003c-7.033 0.403-12.584 6.206-12.584 13.304 0 7.359 5.966 13.325 13.325 13.325 0.003 0 0.006 0 0.009 0h-0.001c0 0 0 0 0 0 0.264 0 0.524-0.014 0.781-0.041l-0.032 0.003c7.033-0.403 12.584-6.206 12.584-13.304 0-7.359-5.966-13.325-13.325-13.325-0.003 0-0.006 0-0.009 0h0.001zM20 30.667c-0.004 0-0.010 0-0.015 0-5.883 0-10.652-4.769-10.652-10.652 0-3.179 1.393-6.033 3.601-7.984l0.011-0.010c-0.177 0.6-0.279 1.288-0.279 2.001 0 4.038 3.274 7.312 7.312 7.312 0.008 0 0.015 0 0.023-0h-0.001c2.577 0 4.667 2.089 4.667 4.667s-2.089 4.667-4.667 4.667v0zM27.054 27.979c0.177-0.6 0.279-1.288 0.279-2.001 0-4.038-3.274-7.312-7.312-7.312-0.008 0-0.015 0-0.023 0h0.001c-2.577 0-4.667-2.089-4.667-4.667s2.089-4.667 4.667-4.667v0c0.004 0 0.010 0 0.015 0 5.883 0 10.652 4.769 10.652 10.652 0 3.179-1.393 6.033-3.601 7.984l-0.011 0.010zM20 12.667c-0.736 0-1.333 0.597-1.333 1.333s0.597 1.333 1.333 1.333c0.736 0 1.333-0.597 1.333-1.333v0c0-0.736-0.597-1.333-1.333-1.333v0z"></path>
</svg>
