<!-- Generated by IcoMoon.io -->
<svg version="1.1" xmlns="http://www.w3.org/2000/svg" width="24" height="24" viewBox="0 0 24 24">
<title>accessible_forward</title>
<path d="M16.013 13.2q0.637 0 1.106 0.487t0.469 1.125v4.388h-1.575v-4.013h-4.013q-0.863 0-1.35-0.769t-0.112-1.556l1.462-3.262h-1.762l-0.525 1.238-1.537-0.45 0.525-1.425q0.412-0.975 1.5-0.975h4.162q0.9 0 1.388 0.75t0.112 1.538l-1.35 2.925h1.5zM13.612 16.013q0 1.65-1.181 2.813t-2.831 1.162-2.831-1.162-1.181-2.813 1.181-2.831 2.831-1.181v1.612q-0.975 0-1.688 0.713t-0.713 1.688 0.713 1.688 1.688 0.712 1.688-0.712 0.712-1.688h1.613zM14.4 6.038q0-0.675 0.469-1.144t1.144-0.469 1.125 0.469 0.45 1.144-0.45 1.144-1.125 0.469-1.144-0.469-0.469-1.144z"></path>
</svg>
