<!-- Generated by IcoMoon.io -->
<svg version="1.1" xmlns="http://www.w3.org/2000/svg" width="24" height="24" viewBox="0 0 24 24">
<title>add_shopping_cart</title>
<path d="M8.137 14.212q0 0.188 0.188 0.188h9.262v1.613h-9.6q-0.637 0-1.106-0.488t-0.469-1.125q0-0.375 0.188-0.75l1.087-1.987-2.887-6.075h-1.613v-1.575h2.625q0.75 1.575 1.5 3.188 0.188 0.338 0.863 1.781t1.050 2.231h5.625q2.813-5.1 3.075-5.625l1.388 0.788-3.075 5.587q-0.45 0.825-1.387 0.825h-5.962l-0.713 1.313zM16.013 16.8q0.637 0 1.106 0.488t0.469 1.125-0.469 1.106-1.106 0.469-1.125-0.469-0.487-1.106 0.487-1.125 1.125-0.488zM7.988 16.8q0.637 0 1.125 0.488t0.488 1.125-0.488 1.106-1.125 0.469-1.106-0.469-0.469-1.106 0.469-1.125 1.106-0.488zM11.212 9.6v-2.4h-2.4v-1.613h2.4v-2.4h1.575v2.4h2.4v1.613h-2.4v2.4h-1.575z"></path>
</svg>
