<!-- Generated by IcoMoon.io -->
<svg version="1.1" xmlns="http://www.w3.org/2000/svg" width="24" height="24" viewBox="0 0 24 24">
<title>addchart</title>
<path d="M19.987 6.413v1.575h-2.4v2.4h-1.575v-2.4h-2.4v-1.575h2.4v-2.4h1.575v2.4h2.4zM17.587 17.587h-11.175v-11.175h4.8v-1.613h-4.8q-0.675 0-1.144 0.469t-0.469 1.144v11.175q0 0.675 0.469 1.144t1.144 0.469h11.175q0.675 0 1.144-0.469t0.469-1.144v-4.8h-1.613v4.8zM14.4 12.788v3.225h1.613v-3.225h-1.613zM11.212 16.013h1.575v-6.413h-1.575v6.413zM9.6 16.013v-4.8h-1.613v4.8h1.613z"></path>
</svg>
