<!-- Generated by IcoMoon.io -->
<svg version="1.1" xmlns="http://www.w3.org/2000/svg" width="24" height="24" viewBox="0 0 24 24">
<title>agriculture</title>
<path d="M18 12q0.563 0 1.069 0.169t0.919 0.431v-3.788q0-0.675-0.469-1.144t-1.106-0.469h-5.063l-0.825-0.862 1.125-1.125-0.563-0.563-2.85 2.813 0.6 0.6 1.125-1.125 0.825 0.825v1.838q0 0.675-0.469 1.144t-1.106 0.469h-0.45q0.563 0.638 0.9 1.444t0.337 1.744q0 0.188-0.019 0.394t-0.056 0.394h2.512q0.112-0.9 0.6-1.612t1.256-1.144 1.706-0.431zM18 12.788q-0.788 0-1.406 0.394t-1.013 1.013-0.394 1.406 0.394 1.406 1.013 1.012 1.406 0.394 1.406-0.394 1.013-1.012 0.394-1.406-0.394-1.406-1.013-1.013-1.406-0.394zM18 16.8q-0.487 0-0.844-0.356t-0.356-0.844 0.356-0.844 0.844-0.356 0.844 0.356 0.356 0.844-0.356 0.844-0.844 0.356zM5.588 9.6h4.013q0-0.675-0.469-1.144t-1.144-0.469h-2.4q-0.3 0-0.544 0.244t-0.244 0.581q0 0.3 0.244 0.544t0.544 0.244zM10.275 13.462l-0.15-0.375 0.75-0.3q-0.563-1.275-1.875-1.95l-0.3 0.713-0.375-0.15 0.338-0.712q-0.713-0.3-1.463-0.3-0.3 0-0.619 0.056t-0.581 0.169l0.262 0.712-0.375 0.15-0.3-0.75q-1.275 0.563-1.95 1.875l0.712 0.3-0.15 0.375-0.712-0.338q-0.3 0.713-0.3 1.463 0 0.3 0.056 0.619t0.169 0.581l0.712-0.262 0.15 0.375-0.75 0.3q0.563 1.275 1.875 1.95l0.3-0.713 0.375 0.15-0.337 0.712q0.712 0.3 1.462 0.3 0.3 0 0.619-0.056t0.581-0.169l-0.262-0.712 0.375-0.15 0.3 0.75q1.275-0.563 1.95-1.875l-0.712-0.3 0.15-0.375 0.713 0.337q0.3-0.712 0.3-1.462 0-0.3-0.056-0.619t-0.169-0.581zM8.137 16.612q-0.637 0.263-1.256 0.169t-1.125-0.469-0.769-0.975q-0.262-0.637-0.169-1.256t0.469-1.125 0.975-0.769q0.638-0.262 1.256-0.169t1.125 0.469 0.769 0.975q0.262 0.638 0.169 1.256t-0.469 1.125-0.975 0.769z"></path>
</svg>
