<!-- Generated by IcoMoon.io -->
<svg version="1.1" xmlns="http://www.w3.org/2000/svg" width="24" height="24" viewBox="0 0 24 24">
<title>app_settings_alt</title>
<path d="M19.837 12.6l-0.637-0.525v-0.15l0.637-0.525q0.225-0.15 0.075-0.413l-0.675-1.162q-0.075-0.188-0.3-0.188-0.038 0-0.113 0.037l-0.75 0.3q-0.112-0.037-0.15-0.075l-0.112-0.825q-0.038-0.262-0.338-0.262h-1.35q-0.3 0-0.338 0.262l-0.112 0.787q0 0.038-0.038 0.038t-0.038 0.037l-0.075 0.038-0.75-0.3q-0.075-0.038-0.113-0.038-0.188 0-0.3 0.15l-0.675 1.2q-0.15 0.225 0.075 0.413l0.637 0.487v0.188l-0.637 0.525q-0.225 0.15-0.075 0.375l0.675 1.2q0.075 0.15 0.3 0.15h0.113l0.75-0.3 0.15 0.075 0.15 0.825q0.038 0.262 0.3 0.262h1.387q0.263 0 0.3-0.262l0.112-0.825q0.038 0 0.056-0.019l0.019-0.019 0.075-0.037 0.787 0.3q0.038 0.038 0.113 0.038 0.188 0 0.262-0.188l0.675-1.163q0.15-0.263-0.075-0.413v0zM16.8 13.2q-0.487 0-0.844-0.356t-0.356-0.844 0.356-0.844 0.844-0.356 0.844 0.356 0.356 0.844-0.356 0.844-0.844 0.356zM16.013 16.013h1.575v3.188q0 0.675-0.469 1.144t-1.106 0.469h-8.025q-0.638 0-1.106-0.469t-0.469-1.144v-14.4q0-0.675 0.469-1.144t1.106-0.469h8.025q0.637 0 1.106 0.469t0.469 1.144v3.188h-1.575v-0.788h-8.025v9.6h8.025v-0.787z"></path>
</svg>
