<!-- Generated by IcoMoon.io -->
<svg version="1.1" xmlns="http://www.w3.org/2000/svg" width="40" height="40" viewBox="0 0 40 40">
<title>at-adhesive_tape</title>
<path d="M16.5 28c-0.276 0-0.5-0.224-0.5-0.5s0.224-0.5 0.5-0.5c4.136 0 7.5-3.364 7.5-7.5 0-0.276 0.224-0.5 0.5-0.5s0.5 0.224 0.5 0.5c0 4.687-3.813 8.5-8.5 8.5z"></path>
<path d="M8.5 20c-0.276 0-0.5-0.224-0.5-0.5 0-4.687 3.813-8.5 8.5-8.5 0.276 0 0.5 0.224 0.5 0.5s-0.224 0.5-0.5 0.5c-4.136 0-7.5 3.364-7.5 7.5 0 0.276-0.224 0.5-0.5 0.5z"></path>
<path d="M16.5 25c-3.033 0-5.5-2.468-5.5-5.5 0-3.033 2.467-5.5 5.5-5.5s5.5 2.467 5.5 5.5c0 3.032-2.467 5.5-5.5 5.5zM16.5 15c-2.481 0-4.5 2.019-4.5 4.5s2.019 4.5 4.5 4.5 4.5-2.019 4.5-4.5-2.019-4.5-4.5-4.5z"></path>
<path d="M31.207 26.5l2.646-2.646c0.143-0.143 0.186-0.358 0.108-0.545s-0.259-0.309-0.461-0.309h-7.112c0.389-1.097 0.612-2.271 0.612-3.5 0-5.79-4.71-10.5-10.5-10.5s-10.5 4.71-10.5 10.5c0 5.79 4.71 10.5 10.5 10.5h17c0.202 0 0.385-0.122 0.462-0.309s0.034-0.402-0.108-0.545l-2.647-2.646zM7 19.5c0-5.238 4.262-9.5 9.5-9.5s9.5 4.262 9.5 9.5-4.262 9.5-9.5 9.5-9.5-4.262-9.5-9.5zM20.943 29c2.203-1.035 3.985-2.809 5.031-5.005 0.009 0 0.017 0.005 0.026 0.005h6.293l-2.146 2.146c-0.195 0.195-0.195 0.512 0 0.707l2.146 2.147h-11.35z"></path>
</svg>
