<!-- Generated by IcoMoon.io -->
<svg version="1.1" xmlns="http://www.w3.org/2000/svg" width="24" height="24" viewBox="0 0 24 24">
<title>attach_money</title>
<path d="M11.85 11.137q0.825 0.225 1.369 0.45t1.144 0.619 0.919 0.994 0.319 1.425q0 1.163-0.769 1.894t-2.044 0.956v1.725h-2.4v-1.725q-1.238-0.262-2.044-1.050t-0.881-2.025h1.763q0.15 1.688 2.362 1.688 1.162 0 1.669-0.431t0.506-0.994q0-1.35-2.4-1.95-3.75-0.863-3.75-3.3 0-1.087 0.788-1.856t1.988-1.031v-1.725h2.4v1.763q1.237 0.3 1.894 1.125t0.694 1.913h-1.763q-0.075-1.688-2.025-1.688-0.975 0-1.556 0.413t-0.581 1.087q0 1.087 2.4 1.725z"></path>
</svg>
