<!-- Generated by IcoMoon.io -->
<svg version="1.1" xmlns="http://www.w3.org/2000/svg" width="24" height="24" viewBox="0 0 24 24">
<title>backup_table</title>
<path d="M18.413 7.2v11.212h-11.213v1.575h11.213q0.637 0 1.106-0.469t0.469-1.106v-11.212h-1.575zM15.188 4.012h-9.6q-0.638 0-1.106 0.469t-0.469 1.106v9.6q0 0.675 0.469 1.144t1.106 0.469h9.6q0.675 0 1.144-0.469t0.469-1.144v-9.6q0-0.638-0.469-1.106t-1.144-0.469zM9.6 15.188h-4.013v-3.975h4.013v3.975zM15.188 15.188h-3.975v-3.975h3.975v3.975zM15.188 9.6h-9.6v-4.013h9.6v4.013z"></path>
</svg>
