<!-- Generated by IcoMoon.io -->
<svg version="1.1" xmlns="http://www.w3.org/2000/svg" width="38" height="40" viewBox="0 0 38 40">
<title>bm-align-bottom</title>
<path d="M24.687 18.706l-4.942 5.981c-0.21 0.209-0.487 0.298-0.761 0.284-0.273 0.014-0.55-0.075-0.76-0.284l-4.942-5.981c-0.392-0.393-0.392-1.030 0-1.424 0.392-0.392 1.028-0.392 1.419 0l3.299 3.991v-12.273c0-0.552 0.447-1 1-1s1 0.448 1 1v12.235l3.268-3.953c0.391-0.392 1.027-0.392 1.419 0 0.392 0.394 0.392 1.031 0 1.424v0zM30 4h-22c-2.209 0-4 1.791-4 4v20h30v-20c0-2.209-1.791-4-4-4v0zM4 32c0 2.209 1.791 4 4 4h22c2.209 0 4-1.791 4-4v-2h-30v2z"></path>
</svg>
