<!-- Generated by IcoMoon.io -->
<svg version="1.1" xmlns="http://www.w3.org/2000/svg" width="40" height="40" viewBox="0 0 40 40">
<title>bm-alarm1</title>
<path d="M31 4h-2v2h2c1.657 0 3 1.343 3 3v2h2v-2c0-2.762-2.238-5-5-5v0zM20 32c-6.627 0-12-5.372-12-12 0-6.627 5.373-12 12-12s12 5.373 12 12c0 6.628-5.373 12-12 12v0zM34 20c0-7.731-6.268-14-14-14s-14 6.269-14 14c0 5.303 2.949 9.915 7.296 12.291l-3.296 3.709h3l2.685-2.685c1.36 0.441 2.808 0.685 4.315 0.685s2.955-0.244 4.315-0.685l2.685 2.685h3l-3.295-3.709c4.346-2.376 7.295-6.988 7.295-12.291v0zM27 19h-6v-7c0-0.553-0.447-1-1-1s-1 0.447-1 1v8c0 0.553 0.447 1 1 1h7c0.553 0 1-0.447 1-1 0-0.552-0.447-1-1-1v0zM6 9c0-1.657 1.343-3 3-3h2v-2h-2c-2.762 0-5 2.238-5 5v2h2v-2z"></path>
</svg>
