<!-- Generated by IcoMoon.io -->
<svg version="1.1" xmlns="http://www.w3.org/2000/svg" width="91" height="40" viewBox="0 0 91 40">
<title>bm-arrow-left-right</title>
<path d="M76.498 18.217l-13.538-13.577c-0.894-0.891-2.347-0.891-3.243 0-0.896 0.914-0.896 2.354 0 3.269l9.735 9.76h-57.76l9.735-9.76c0.896-0.914 0.896-2.354 0-3.269-0.896-0.891-2.347-0.891-3.243 0l-13.538 13.577c-0.478 0.48-0.683 1.12-0.649 1.737-0.034 0.64 0.171 1.28 0.649 1.76l13.538 13.577c0.896 0.891 2.347 0.891 3.243 0 0.896-0.914 0.896-2.354 0-3.269l-9.735-9.76h57.76l-9.735 9.76c-0.896 0.914-0.896 2.354 0 3.269 0.896 0.891 2.35 0.891 3.243 0l13.538-13.577c0.478-0.48 0.683-1.12 0.649-1.76 0.034-0.617-0.171-1.257-0.649-1.737z"></path>
</svg>
