<!-- Generated by IcoMoon.io -->
<svg version="1.1" xmlns="http://www.w3.org/2000/svg" width="46" height="40" viewBox="0 0 46 40">
<title>bm-brush</title>
<path d="M37.983 8.097l-14.501 14.317-1.597-1.576 14.502-14.317c0.441-0.435 1.155-0.435 1.595 0 0.441 0.435 0.441 1.141 0 1.576v0zM19.493 26.354c-0.147-0.145-1.597-1.576-1.597-1.576l2.394-2.365 1.595 1.576-2.393 2.365zM17.098 31.869c-1.125 1.043-6.15 3.369-9.109 1.114 0 0 1.030-0.803 1.809-2.416 1.862-4.945 6.502-4.213 6.502-4.213l1.595 1.575c0.016 0.016 1.192 2.095-0.798 3.939v0zM39.579 4.945c-1.322-1.305-3.466-1.305-4.789 0l-19.632 19.384c-2.403-0.055-5.733 0.797-7.169 5.503-1.098 2.489-3.99 2.363-3.99 2.363 6.003 6.659 13.079 2.886 14.694 1.249 1.421-1.438 1.625-3.198 1.473-4.606l19.413-19.166c1.322-1.306 1.322-3.423 0-4.728v0z"></path>
</svg>
