<!-- Generated by IcoMoon.io -->
<svg version="1.1" xmlns="http://www.w3.org/2000/svg" width="40" height="40" viewBox="0 0 40 40">
<title>bm-chevron-left-square</title>
<path d="M25.685 28.29c0.395 0.4 0.395 1.040 0 1.43s-1.035 0.39-1.429 0l-8.972-8.943c-0.211-0.209-0.301-0.487-0.286-0.761-0.015-0.275 0.075-0.552 0.286-0.762l8.972-8.941c0.394-0.392 1.034-0.392 1.429 0 0.395 0.394 0.395 1.031 0 1.423l-8.309 8.28 8.309 8.274zM32 4h-24c-2.209 0-4 1.791-4 4v24c0 2.21 1.791 4 4 4h24c2.209 0 4-1.79 4-4v-24c0-2.209-1.791-4-4-4v0z"></path>
</svg>
