<!-- Generated by IcoMoon.io -->
<svg version="1.1" xmlns="http://www.w3.org/2000/svg" width="40" height="40" viewBox="0 0 40 40">
<title>bm-cross-square1</title>
<path d="M24.95 15.050c-0.391-0.39-1.024-0.39-1.414 0l-3.536 3.54-3.536-3.54c-0.39-0.39-1.023-0.39-1.414 0s-0.39 1.020 0 1.41l3.536 3.54-3.536 3.54c-0.39 0.39-0.39 1.020 0 1.41 0.391 0.39 1.024 0.39 1.414 0l3.536-3.54 3.536 3.54c0.39 0.39 1.023 0.39 1.414 0s0.39-1.020 0-1.41l-3.536-3.54 3.536-3.54c0.39-0.39 0.39-1.020 0-1.41v0zM34 32c0 1.1-0.896 2-2 2h-24c-1.104 0-2-0.9-2-2v-24c0-1.1 0.896-2 2-2h24c1.104 0 2 0.9 2 2v24zM32 4h-24c-2.209 0-4 1.79-4 4v24c0 2.21 1.791 4 4 4h24c2.209 0 4-1.79 4-4v-24c0-2.21-1.791-4-4-4v0z"></path>
</svg>
