<!-- Generated by IcoMoon.io -->
<svg version="1.1" xmlns="http://www.w3.org/2000/svg" width="49" height="40" viewBox="0 0 49 40">
<title>bm-checkmark</title>
<path d="M40.111 10.917c0 0-20.994 21.403-21.324 21.748-0.982 0.997-2.572 0.997-3.554 0 0 0-8.047-8.209-8.071-8.234-0.906-1.009-0.881-2.572 0.075-3.557 0.981-0.997 2.572-0.997 3.554 0l6.218 6.351 19.548-19.938c0.981-0.997 2.572-0.997 3.554 0 0.981 0.997 0.981 2.622 0 3.631v0zM41.887 5.477c-1.963-2.006-5.145-2.006-7.108 0l-17.771 18.117-4.442-4.529c-1.963-1.994-5.146-1.994-7.108 0-1.963 2.006-1.963 5.255 0 7.249l7.996 8.16c1.963 2.006 5.145 2.006 7.108 0l21.324-21.748c1.963-2.006 1.963-5.255 0-7.249v0z"></path>
</svg>
