<!-- Generated by IcoMoon.io -->
<svg version="1.1" xmlns="http://www.w3.org/2000/svg" width="38" height="40" viewBox="0 0 38 40">
<title>bm-calculator1</title>
<path d="M10 18h2v2h-2v-2zM11 22c1.657 0 3-1.343 3-3s-1.343-3-3-3c-1.657 0-3 1.343-3 3s1.343 3 3 3v0zM10 26h2v2h-2v-2zM11 30c1.657 0 3-1.343 3-3s-1.343-3-3-3c-1.657 0-3 1.343-3 3s1.343 3 3 3v0zM18 18h2v2h-2v-2zM19 22c1.657 0 3-1.343 3-3s-1.343-3-3-3c-1.657 0-3 1.343-3 3s1.343 3 3 3v0zM32 10h-26v-2c0-1.104 0.896-2 2-2h22c1.104 0 2 0.896 2 2v2zM32 32c0 1.104-0.896 2-2 2h-22c-1.104 0-2-0.896-2-2v-20h26v20zM30 4h-22c-2.209 0-4 1.791-4 4v24c0 2.209 1.791 4 4 4h22c2.209 0 4-1.791 4-4v-24c0-2.209-1.791-4-4-4v0zM18 26h2v2h-2v-2zM19 30c1.657 0 3-1.343 3-3s-1.343-3-3-3c-1.657 0-3 1.343-3 3s1.343 3 3 3v0zM26 26h2v2h-2v-2zM27 30c1.657 0 3-1.343 3-3s-1.343-3-3-3c-1.657 0-3 1.343-3 3s1.343 3 3 3v0zM26 18h2v2h-2v-2zM27 22c1.657 0 3-1.343 3-3s-1.343-3-3-3c-1.657 0-3 1.343-3 3s1.343 3 3 3v0z"></path>
</svg>
