<!-- Generated by IcoMoon.io -->
<svg version="1.1" xmlns="http://www.w3.org/2000/svg" width="40" height="40" viewBox="0 0 40 40">
<title>bm-cross1</title>
<path d="M27.229 19.974l7.251-7.245c2.001-1.997 2.001-5.248 0-7.245-2.003-2.010-5.249-2.010-7.251 0l-7.25 7.245-7.25-7.245c-2.001-2.010-5.247-2.010-7.25 0-2.001 1.997-2.001 5.248 0 7.245l7.25 7.245-7.25 7.258c-2.001 1.997-2.001 5.248 0 7.245 2.003 2.010 5.249 2.010 7.25 0l7.25-7.245 7.25 7.245c2.002 2.010 5.248 2.010 7.251 0 2.001-1.997 2.001-5.248 0-7.245l-7.251-7.258z"></path>
</svg>
