<!-- Generated by IcoMoon.io -->
<svg version="1.1" xmlns="http://www.w3.org/2000/svg" width="40" height="40" viewBox="0 0 40 40">
<title>bm-collapse</title>
<path d="M29.784 13.18l6.216-6.18-3-3-6.174 6.2-2.218-2.23c-0.479-0.49-0.966-1-1.546-1-0.582 0-1.051 0.47-1.050 1.060l0.011 8.82c0.001 0.31 0.141 0.59 0.354 0.78 0.193 0.21 0.465 0.36 0.774 0.36l8.77 0.010c0.58 0 1.051-0.47 1.050-1.060-0.001-0.58-0.679-1.24-0.969-1.53l-2.218-2.23zM17.629 22.36c-0.19-0.21-0.456-0.35-0.761-0.35l-8.624-0.010c-0.57 0-1.032 0.46-1.032 1.030 0.001 0.57 0.667 1.22 0.953 1.5l2.181 2.18-6.346 6.29 3 3 6.254-6.38 2.181 2.18c0.471 0.47 0.951 0.98 1.521 0.98 0.571 0 1.033-0.46 1.032-1.030l-0.011-8.63c0-0.3-0.138-0.57-0.348-0.76v0z"></path>
</svg>
