<!-- Generated by IcoMoon.io -->
<svg version="1.1" xmlns="http://www.w3.org/2000/svg" width="40" height="40" viewBox="0 0 40 40">
<title>bm-checkmark-square1</title>
<path d="M26.393 14.43l-6.932 12.010c-0.051 0.15-0.126 0.29-0.248 0.4-0.403 0.38-1.036 0.36-1.413-0.040l-4.572-4.22c-0.378-0.4-0.357-1.040 0.046-1.41 0.403-0.38 1.036-0.36 1.414 0.040l3.578 3.3 6.395-11.080c0.276-0.47 0.887-0.64 1.366-0.36 0.478 0.27 0.642 0.89 0.366 1.36v0zM32 4h-24c-2.209 0-4 1.79-4 4v24c0 2.21 1.791 4 4 4h24c2.209 0 4-1.79 4-4v-24c0-2.21-1.791-4-4-4v0z"></path>
</svg>
