<!-- Generated by IcoMoon.io -->
<svg version="1.1" xmlns="http://www.w3.org/2000/svg" width="40" height="40" viewBox="0 0 40 40">
<title>bm-chevron-right-circle1</title>
<path d="M24.536 20.88l-7.657 7.66c-0.391 0.39-1.024 0.39-1.415 0-0.39-0.4-0.39-1.030 0-1.42l7.122-7.12-7.122-7.12c-0.39-0.39-0.39-1.020 0-1.42 0.391-0.39 1.024-0.39 1.415 0l7.657 7.66c0.239 0.24 0.314 0.57 0.259 0.88 0.055 0.31-0.020 0.64-0.259 0.88v0zM20 4c-8.836 0-16 7.16-16 16s7.164 16 16 16c8.836 0 16-7.16 16-16s-7.164-16-16-16v0z"></path>
</svg>
