<!-- Generated by IcoMoon.io -->
<svg version="1.1" xmlns="http://www.w3.org/2000/svg" width="40" height="40" viewBox="0 0 40 40">
<title>bm-crosshair</title>
<path d="M28.533 20c0-0.684 0.383-1.067 1.067-1.067h6.4c-0.602-7.889-7.043-14.332-14.933-14.933v6.4c0 0.684-0.383 1.067-1.067 1.067s-1.067-0.383-1.067-1.067v-6.4c-7.89 0.602-14.332 7.044-14.933 14.933h6.4c0.684 0 1.067 0.383 1.067 1.067s-0.383 1.067-1.067 1.067h-6.4c0.602 7.889 7.043 14.332 14.933 14.933v-6.4c0-0.683 0.383-1.067 1.067-1.067s1.067 0.384 1.067 1.067v6.4c7.89-0.602 14.332-7.044 14.933-14.933h-6.4c-0.684 0-1.067-0.383-1.067-1.067z"></path>
</svg>
