<!-- Generated by IcoMoon.io -->
<svg version="1.1" xmlns="http://www.w3.org/2000/svg" width="43" height="40" viewBox="0 0 43 40">
<title>bm-cart1</title>
<path d="M14.635 12.533l-2.661-8.533h-6.907c-0.59 0-1.067 0.478-1.067 1.067 0 0.59 0.477 1.067 1.067 1.067h5.333l2.145 6.4h-0.012l2.133 12.8c0 2.356 1.91 4.267 4.267 4.267h11.733c2.356 0 4.267-1.91 4.267-4.267l3.2-12.8h-23.499zM29.6 31.733c-1.178 0-2.133 0.956-2.133 2.133s0.956 2.133 2.133 2.133c1.178 0 2.133-0.956 2.133-2.133s-0.956-2.133-2.133-2.133v0zM18.933 31.733c-1.178 0-2.133 0.956-2.133 2.133s0.956 2.133 2.133 2.133c1.178 0 2.133-0.956 2.133-2.133s-0.956-2.133-2.133-2.133v0z"></path>
</svg>
