<!-- Generated by IcoMoon.io -->
<svg version="1.1" xmlns="http://www.w3.org/2000/svg" width="38" height="40" viewBox="0 0 38 40">
<title>bm-calculator</title>
<path d="M10 20h2v-2h-2v2zM18 28h2v-2h-2v2zM10 28h2v-2h-2v2zM30 4h-22c-2.209 0-4 1.791-4 4v2h30v-2c0-2.209-1.791-4-4-4v0zM11 24c1.657 0 3 1.343 3 3s-1.343 3-3 3c-1.657 0-3-1.343-3-3s1.343-3 3-3v0zM11 16c1.657 0 3 1.343 3 3s-1.343 3-3 3c-1.657 0-3-1.343-3-3s1.343-3 3-3v0zM19 24c1.657 0 3 1.343 3 3s-1.343 3-3 3c-1.657 0-3-1.343-3-3s1.343-3 3-3v0zM19 16c1.657 0 3 1.343 3 3s-1.343 3-3 3c-1.657 0-3-1.343-3-3s1.343-3 3-3v0zM27 24c1.657 0 3 1.343 3 3s-1.343 3-3 3c-1.657 0-3-1.343-3-3s1.343-3 3-3v0zM27 16c1.657 0 3 1.343 3 3s-1.343 3-3 3c-1.657 0-3-1.343-3-3s1.343-3 3-3v0zM4 32c0 2.209 1.791 4 4 4h22c2.209 0 4-1.791 4-4v-20h-30v20zM26 20h2v-2h-2v2zM26 28h2v-2h-2v2zM18 20h2v-2h-2v2z"></path>
</svg>
