<!-- Generated by IcoMoon.io -->
<svg version="1.1" xmlns="http://www.w3.org/2000/svg" width="40" height="40" viewBox="0 0 40 40">
<title>bm-duplicate1</title>
<path d="M34 24c0 1.104-0.896 2-2 2h-16c-1.104 0-2-0.896-2-2v-16c0-1.104 0.896-2 2-2h16c1.104 0 2 0.896 2 2v16zM32 4h-16c-2.209 0-4 1.791-4 4v16c0 2.209 1.791 4 4 4h16c2.209 0 4-1.791 4-4v-16c0-2.209-1.791-4-4-4v0zM26 32c0 1.104-0.896 2-2 2h-16c-1.104 0-2-0.896-2-2v-16c0-1.104 0.896-2 2-2h2v-2h-2c-2.209 0-4 1.791-4 4v16c0 2.209 1.791 4 4 4h16c2.209 0 4-1.791 4-4v-2h-2v2z"></path>
</svg>
