<!-- Generated by IcoMoon.io -->
<svg version="1.1" xmlns="http://www.w3.org/2000/svg" width="40" height="40" viewBox="0 0 40 40">
<title>bm-expand1</title>
<path d="M35.685 4.3c-0.182-0.18-0.434-0.3-0.713-0.3h-8.972c-0.553 0-1 0.45-1 1s0.447 1 1 1h6.629l-10.799 10.8 1.414 1.41 10.787-10.79-0.031 6.58c0 0.55 0.447 1 1 1s1-0.45 1-1v-9c0-0.3-0.122-0.54-0.315-0.7v0zM16.756 21.79l-10.787 10.79 0.031-6.58c0-0.55-0.447-1-1-1s-1 0.45-1 1v9c0 0.3 0.122 0.54 0.315 0.7 0.182 0.18 0.434 0.3 0.713 0.3h8.972c0.553 0 1-0.45 1-1s-0.447-1-1-1h-6.629l10.799-10.8-1.414-1.41z"></path>
</svg>
