<!-- Generated by IcoMoon.io -->
<svg version="1.1" xmlns="http://www.w3.org/2000/svg" width="32" height="40" viewBox="0 0 32 40">
<title>bm-film1</title>
<path d="M25.333 10.4h2.133v2.133h-2.133v-2.133zM25.333 14.667h2.133v2.133h-2.133v-2.133zM25.333 18.933h2.133v2.133h-2.133v-2.133zM25.333 23.2h2.133v2.133h-2.133v-2.133zM25.333 27.467h2.133v2.133h-2.133v-2.133zM25.333 31.733h2.133v2.133h-2.133v-2.133zM23.2 17.867c0 0.59-0.478 1.067-1.067 1.067h-10.667c-0.589 0-1.067-0.477-1.067-1.067v-10.667c0-0.589 0.478-1.067 1.067-1.067h10.667c0.589 0 1.067 0.478 1.067 1.067v10.667zM23.2 32.8c0 0.59-0.478 1.067-1.067 1.067h-10.667c-0.589 0-1.067-0.477-1.067-1.067v-10.667c0-0.589 0.478-1.067 1.067-1.067h10.667c0.589 0 1.067 0.478 1.067 1.067v10.667zM6.133 10.4h2.133v2.133h-2.133v-2.133zM6.133 14.667h2.133v2.133h-2.133v-2.133zM6.133 18.933h2.133v2.133h-2.133v-2.133zM6.133 23.2h2.133v2.133h-2.133v-2.133zM6.133 27.467h2.133v2.133h-2.133v-2.133zM6.133 31.733h2.133v2.133h-2.133v-2.133zM25.333 4h-17.067c-2.356 0-4.267 1.91-4.267 4.267v27.733h25.6v-27.733c0-2.356-1.91-4.267-4.267-4.267v0z"></path>
</svg>
