<!-- Generated by IcoMoon.io -->
<svg version="1.1" xmlns="http://www.w3.org/2000/svg" width="44" height="40" viewBox="0 0 44 40">
<title>bm-hamburger</title>
<path d="M37.778 18.222h-32c-0.981 0-1.778 0.796-1.778 1.778 0 0.983 0.796 1.778 1.778 1.778h32c0.981 0 1.778-0.795 1.778-1.778 0-0.981-0.796-1.778-1.778-1.778v0zM37.778 32.444h-32c-0.981 0-1.778 0.796-1.778 1.778 0 0.983 0.796 1.778 1.778 1.778h32c0.981 0 1.778-0.795 1.778-1.778 0-0.981-0.796-1.778-1.778-1.778v0zM5.778 7.556h32c0.981 0 1.778-0.795 1.778-1.778 0-0.981-0.796-1.778-1.778-1.778h-32c-0.981 0-1.778 0.796-1.778 1.778 0 0.983 0.796 1.778 1.778 1.778v0z"></path>
</svg>
