<!-- Generated by IcoMoon.io -->
<svg version="1.1" xmlns="http://www.w3.org/2000/svg" width="40" height="40" viewBox="0 0 40 40">
<title>bm-headphone</title>
<path d="M34 28c0 1.104-0.896 2-2 2h-0.944c0.593-1.662 0.944-3.519 0.944-5.5 0-1.593-0.234-3.102-0.628-4.5h0.628c1.104 0 2 0.896 2 2v6zM28.873 30h-0.873c-1.104 0-2-0.896-2-2v-6c0-1.104 0.896-2 2-2h1.258c0.465 1.386 0.742 2.897 0.742 4.5 0 2-0.422 3.863-1.127 5.5v0zM8.629 20c-0.395 1.398-0.629 2.907-0.629 4.5 0 1.981 0.352 3.838 0.944 5.5h-0.944c-1.104 0-2-0.896-2-2v-6c0-1.104 0.896-2 2-2h0.629zM10.742 20h1.258c1.104 0 2 0.896 2 2v6c0 1.104-0.896 2-2 2h-0.873c-0.705-1.637-1.127-3.5-1.127-5.5 0-1.603 0.277-3.114 0.742-4.5v0zM33.938 18.521c0.028-0.338 0.062-0.675 0.062-1.021 0-7.456-6.268-13.5-14-13.5s-14 6.044-14 13.5c0 0.346 0.034 0.683 0.063 1.021-1.225 0.684-2.063 1.977-2.063 3.479v6c0 2.209 1.791 4 4 4 0 0 4.004 0.006 4 0 2.125-0.095 4-1.852 4-4v-6c0-2.209-1.791-4-4-4h-4c0-6.663 5.373-12 12-12 6.628 0 12 4.867 12 12h-4c-2.209 0-4 1.791-4 4v6c0 2.148 1.875 3.905 4 4-0.004 0.006 2 0 2 0v3c0 0.553 0.447 1 1 1s1-0.447 1-1v-3c2.209 0 4-1.791 4-4v-6c0-1.502-0.838-2.795-2.062-3.479v0z"></path>
</svg>
