<!-- Generated by IcoMoon.io -->
<svg version="1.1" xmlns="http://www.w3.org/2000/svg" width="40" height="40" viewBox="0 0 40 40">
<title>bm-headphone1</title>
<path d="M33.938 18.521c0.028-0.338 0.062-0.675 0.062-1.021 0-7.456-6.268-13.5-14-13.5s-14 6.044-14 13.5c0 0.346 0.034 0.683 0.063 1.021-1.225 0.684-2.063 1.977-2.063 3.479v6c0 2.209 1.791 4 4 4h4c2.125-0.095 4-1.852 4-4v-6c0-2.209-1.791-4-4-4h-4c0-6.99 5.373-12 12-12 6.628 0 12.043 4.967 12 12-0.001 0.17-4 0-4 0-2.209 0-4 1.791-4 4v6c0 2.148 1.875 3.905 4 4h2v3c0 0.553 0.447 1 1 1s1-0.447 1-1v-3c2.209 0 4-1.791 4-4v-6c0-1.502-0.838-2.795-2.062-3.479z"></path>
</svg>
