<!-- Generated by IcoMoon.io -->
<svg version="1.1" xmlns="http://www.w3.org/2000/svg" width="71" height="40" viewBox="0 0 71 40">
<title>bm-joystick1</title>
<path d="M45.778 11.111c-1.472 0-2.667 1.195-2.667 2.667s1.195 2.667 2.667 2.667c1.472 0 2.667-1.195 2.667-2.667s-1.195-2.667-2.667-2.667v0zM51.111 18.222c-1.472 0-2.667 1.195-2.667 2.667s1.195 2.667 2.667 2.667c1.472 0 2.667-1.195 2.667-2.667s-1.195-2.667-2.667-2.667v0zM57.333 25.333c0 3.927-3.184 7.111-7.111 7.111h-35.556c-3.927 0-7.111-3.184-7.111-7.111v-10.667c0-3.927 3.184-7.111 7.111-7.111h35.556c3.927 0 7.111 3.184 7.111 7.111v10.667zM50.222 4h-35.556c-5.89 0-10.667 4.777-10.667 10.667v10.667c0 5.89 4.777 10.667 10.667 10.667h35.556c5.89 0 10.667-4.777 10.667-10.667v-10.667c0-5.89-4.777-10.667-10.667-10.667v0zM44 23.556c-1.472 0-2.667 1.195-2.667 2.667s1.195 2.667 2.667 2.667c1.472 0 2.667-1.195 2.667-2.667s-1.195-2.667-2.667-2.667v0zM27.111 18.222h-5.333v-5.333c0-0.981-0.795-1.778-1.778-1.778s-1.778 0.796-1.778 1.778v5.333h-5.333c-0.983 0-1.778 0.796-1.778 1.778 0 0.983 0.795 1.778 1.778 1.778h5.333v5.333c0 0.983 0.795 1.778 1.778 1.778s1.778-0.795 1.778-1.778v-5.333h5.333c0.983 0 1.778-0.795 1.778-1.778 0-0.981-0.795-1.778-1.778-1.778v0zM38.667 16.444c-1.472 0-2.667 1.195-2.667 2.667s1.195 2.667 2.667 2.667c1.472 0 2.667-1.195 2.667-2.667s-1.195-2.667-2.667-2.667v0z"></path>
</svg>
