<!-- Generated by IcoMoon.io -->
<svg version="1.1" xmlns="http://www.w3.org/2000/svg" width="30" height="40" viewBox="0 0 30 40">
<title>bm-location1</title>
<path d="M16 19c-1.657 0-3-1.343-3-3s1.343-3 3-3c1.657 0 3 1.343 3 3s-1.343 3-3 3v0zM16 11c-2.761 0-5 2.238-5 5s2.239 5 5 5c2.761 0 5-2.238 5-5s-2.239-5-5-5v0zM16 33c-1.663 0.009-10-12.819-10-17 0-5.522 4.477-10 10-10s10 4.478 10 10c0 4.125-8.363 17.009-10 17v0zM16 4c-6.627 0-12 5.373-12 12 0 5.018 10.005 20.011 12 20 1.964 0.011 12-15.050 12-20 0-6.627-5.373-12-12-12v0z"></path>
</svg>
