<!-- Generated by IcoMoon.io -->
<svg version="1.1" xmlns="http://www.w3.org/2000/svg" width="56" height="40" viewBox="0 0 56 40">
<title>bm-list</title>
<path d="M46.182 28.727h-27.636c-1.606 0-2.909 1.303-2.909 2.909s1.303 2.909 2.909 2.909h27.636c1.606 0 2.909-1.303 2.909-2.909s-1.303-2.909-2.909-2.909v0zM46.182 17.091h-27.636c-1.606 0-2.909 1.303-2.909 2.909s1.303 2.909 2.909 2.909h27.636c1.606 0 2.909-1.303 2.909-2.909s-1.303-2.909-2.909-2.909v0zM18.545 11.273h27.636c1.606 0 2.909-1.303 2.909-2.909s-1.303-2.909-2.909-2.909h-27.636c-1.606 0-2.909 1.303-2.909 2.909s1.303 2.909 2.909 2.909v0zM8.364 27.273c-2.41 0-4.364 1.953-4.364 4.364s1.953 4.364 4.364 4.364c2.41 0 4.364-1.953 4.364-4.364s-1.953-4.364-4.364-4.364v0zM8.364 15.636c-2.41 0-4.364 1.953-4.364 4.364s1.953 4.364 4.364 4.364c2.41 0 4.364-1.953 4.364-4.364s-1.953-4.364-4.364-4.364v0zM8.364 4c-2.41 0-4.364 1.953-4.364 4.364s1.953 4.364 4.364 4.364c2.41 0 4.364-1.953 4.364-4.364s-1.953-4.364-4.364-4.364v0z"></path>
</svg>
