<!-- Generated by IcoMoon.io -->
<svg version="1.1" xmlns="http://www.w3.org/2000/svg" width="31" height="40" viewBox="0 0 31 40">
<title>bm-microphone-off1</title>
<path d="M17 30c-1.939 0-3.764-0.638-5.284-1.682l-1.406 1.424c1.634 1.211 3.582 2.023 5.69 2.213v2.045h-1c-0.552 0-1 0.448-1 1 0 0.553 0.448 1 1 1h4c0.552 0 1-0.447 1-1 0-0.552-0.448-1-1-1h-1v-2.045c4.938-0.445 9.117-4.156 10-8.955h-2c-0.911 4.007-4.718 7-9 7v0zM17 26c-0.864 0-1.666-0.239-2.375-0.625l-1.457 1.475c1.102 0.722 2.415 1.15 3.832 1.15 3.866 0 7-3.134 7-7v-5.113l-2 2.024v3.089c0 2.762-2.239 5-5 5v0zM12 11c0-2.762 2.239-5 5-5 2.174 0 4.005 1.396 4.694 3.334l1.504-1.522c-1.163-2.254-3.487-3.812-6.198-3.812-3.866 0-7 3.134-7 7v10c0 0.053 2-1.855 2-1.855v-8.145zM27.577 7.013l-23.587 22.584 1.428 1.408 23.596-22.572-1.437-1.42zM8.047 23.145c-0.012-0.050-0.036-0.095-0.047-0.145h-2c0.109 0.596 0.271 1.175 0.478 1.733l1.569-1.588z"></path>
</svg>
