<!-- Generated by IcoMoon.io -->
<svg version="1.1" xmlns="http://www.w3.org/2000/svg" width="35" height="40" viewBox="0 0 35 40">
<title>bm-multiple-documents-files</title>
<path d="M27 12c-1.065 0-2-1.935-2-2.974v-2.997l5 5.971h-3zM30 28c0 1.019-0.95 2-2 2h-15c-1.050 0-2-0.981-2-2v-20c0-1.019 0.95-2 2-2h10c-0.016 2.304 0 4.025 0 4.025 0 2.078 1.87 3.975 4 3.975h3v14zM23 34h-15c-1.050 0-2-0.981-2-2v-20c0-1.019 0.855-1.968 1.905-1.968l1.095-0.032v18c0 2.059 1.884 4 4 4h12c0 1.019-0.951 2-2 2v0zM25 4h-12c-2.116 0-4 1.941-4 4l-1.155 0.027c-2.116 0-3.845 1.914-3.845 3.973v20c0 2.059 1.884 4 4 4h15c2.116 0 4-1.941 4-4h1c2.116 0 4-1.941 4-4v-15.977l-7-8.023zM25 18.018h-9c-0.552 0-1 0.447-1 0.999s0.448 0.999 1 0.999h9c0.552 0 1-0.448 1-0.999 0-0.552-0.448-0.999-1-0.999v0zM25 23.013h-9c-0.552 0-1 0.447-1 0.999s0.448 0.999 1 0.999h9c0.552 0 1-0.448 1-0.999 0-0.552-0.448-0.999-1-0.999v0z"></path>
</svg>
