<!-- Generated by IcoMoon.io -->
<svg version="1.1" xmlns="http://www.w3.org/2000/svg" width="40" height="40" viewBox="0 0 40 40">
<title>bm-music-software</title>
<path d="M32 20c0.124 1.748-1.147 3.884-3.321 5.066-2.788 1.516-6.027 1.149-7.235-0.821-1.207-1.969 0.075-4.793 2.863-6.308 1.969-1.071 4.149-1.184 5.693-0.476v-7.307l-11 1.692v10.154c0.125 1.748-1.147 3.884-3.321 5.066-2.788 1.516-6.027 1.149-7.235-0.821-1.207-1.969 0.075-4.793 2.863-6.308 1.969-1.071 4.149-1.184 5.693-0.476v-8.461c0-0.553 0.479-0.875 1-1l13-2c0.583-0.125 1 0.448 1 1v11zM32 4h-24c-2.209 0-4 1.791-4 4v20c0 2.209 1.791 4 4 4h24c2.209 0 4-1.791 4-4v-20c0-2.209-1.791-4-4-4v0zM25.050 19.664c-1.775 0.931-2.526 2.523-1.677 3.556 0.848 1.034 2.974 1.118 4.748 0.187 1.774-0.93 2.373-3.047 1.304-3.879-1.018-0.793-2.601-0.795-4.375 0.136v0zM12.056 21.659c-1.778 0.925-2.534 2.515-1.689 3.551s2.97 1.127 4.748 0.202c1.777-0.925 2.383-3.039 1.317-3.875-1.016-0.796-2.599-0.803-4.376 0.122v0zM33 34h-26c-0.552 0-1 0.447-1 1s0.448 1 1 1h26c0.552 0 1-0.447 1-1s-0.448-1-1-1v0z"></path>
</svg>
