<!-- Generated by IcoMoon.io -->
<svg version="1.1" xmlns="http://www.w3.org/2000/svg" width="30" height="40" viewBox="0 0 30 40">
<title>bm-monitor-speaker1</title>
<path d="M16 34c-3.866 0-7-3.134-7-7s3.134-7 7-7c3.866 0 7 3.134 7 7s-3.134 7-7 7v0zM16 8c2.761 0 5 2.238 5 5s-2.239 5-5 5c-2.761 0-5-2.238-5-5s2.239-5 5-5v0zM24 4h-16c-2.209 0-4 1.791-4 4v24c0 2.209 1.791 4 4 4h16c2.209 0 4-1.791 4-4v-24c0-2.209-1.791-4-4-4v0zM16 22c-2.761 0-5 2.238-5 5s2.239 5 5 5c2.761 0 5-2.238 5-5s-2.239-5-5-5v0zM16 16.008c1.661 0 3.007-1.347 3.007-3.008s-1.346-3.008-3.007-3.008c-1.661 0-3.007 1.347-3.007 3.008s1.346 3.008 3.007 3.008v0z"></path>
</svg>
