<!-- Generated by IcoMoon.io -->
<svg version="1.1" xmlns="http://www.w3.org/2000/svg" width="40" height="40" viewBox="0 0 40 40">
<title>bm-new</title>
<path d="M15.786 27.020l-5.372 3.253c-0.489 0.228-0.929-0.244-0.701-0.702l3.252-5.376 2.821 2.825zM25.239 11.222l3.537 3.49-11.24 11.247c-1.316-1.318-3.139-3.142-3.512-3.515l11.215-11.222zM28.776 7.683c0.388-0.389 1.017-0.389 1.406 0l2.107 2.108c0.388 0.389 0.388 1.018 0 1.406l-2.107 2.109-3.463-3.566 2.057-2.057zM12.11 22.068l-4.3 8.705c-0.361 0.981 0.423 1.859 1.403 1.404l8.699-4.303c0.375-0.073 0.739-0.219 1.029-0.509l15.455-15.466c0.776-0.775 0.776-2.035 0-2.811l-3.512-3.515c-0.777-0.776-2.034-0.776-2.81 0l-15.455 15.465c-0.291 0.291-0.435 0.655-0.509 1.030v0zM34 16v16c0 1.099-1.086 2.012-2.183 2.012h-23.843c-1.097 0-1.987-0.89-1.987-1.989v-23.858c0-1.099 0.915-2.165 2.013-2.165h16v-2h-16c-2.194 0-4 1.969-4 4.165v23.858c0 2.197 1.779 3.977 3.974 3.977h23.843c2.195 0 4.183-1.804 4.183-4v-16h-2z"></path>
</svg>
