<!-- Generated by IcoMoon.io -->
<svg version="1.1" xmlns="http://www.w3.org/2000/svg" width="40" height="40" viewBox="0 0 40 40">
<title>bm-note-text1</title>
<path d="M28 14h-16c-0.553 0-1-0.447-1-1 0-0.552 0.447-1 1-1h16c0.553 0 1 0.448 1 1 0 0.553-0.447 1-1 1v0zM28 20h-16c-0.553 0-1-0.447-1-1 0-0.552 0.447-1 1-1h16c0.553 0 1 0.448 1 1 0 0.553-0.447 1-1 1v0zM28 26h-16c-0.553 0-1-0.447-1-1 0-0.552 0.447-1 1-1h16c0.553 0 1 0.448 1 1 0 0.553-0.447 1-1 1v0zM32 4h-24c-2.194 0-4 1.969-4 4.165v23.858c0 2.197 1.779 3.977 3.974 3.977h23.843c2.195 0 4.183-1.804 4.183-4v-24c0-2.196-1.806-4-4-4v0z"></path>
</svg>
