<!-- Generated by IcoMoon.io -->
<svg version="1.1" xmlns="http://www.w3.org/2000/svg" width="41" height="40" viewBox="0 0 41 40">
<title>bm-open</title>
<path d="M20.593 8.379l13.274 20.498h-26.548l13.274-20.498zM6.387 31.253h28.449c2.793 0 2.7-1.644 1.908-2.869l-14.445-22.541c-0.661-0.929-2.631-1.010-3.413 0l-14.445 22.541c-0.716 1.338-0.812 2.869 1.946 2.869v0zM36 33.627h-30.815c-0.654 0-1.185 0.531-1.185 1.186s0.531 1.186 1.185 1.186h30.815c0.654 0 1.185-0.531 1.185-1.186s-0.531-1.186-1.185-1.186v0z"></path>
</svg>
