<!-- Generated by IcoMoon.io -->
<svg version="1.1" xmlns="http://www.w3.org/2000/svg" width="40" height="40" viewBox="0 0 40 40">
<title>bm-phone</title>
<path d="M33.635 12.737c-1.7 3.23-5.475 8.202-8.635 11.481-3.643 3.94-12.231 9.328-12.231 9.328-0.663 0.348-2.503 0.374-3.009-0.131l-1.831-1.826c-0.378-0.632-0.548-1.364 0-1.826l3.663-2.74c0.62-0.419 1.325-0.504 1.831 0l2.257 2.25c0.531-0.373 9.009-5.929 13.725-13.578l-2.311-2.305c-0.506-0.504-0.42-1.208 0-1.827l2.747-3.652c0.506-0.675 1.326-0.505 1.831 0l1.832 1.826c0.718 0.674 0.51 2.245 0.131 3v0zM35.073 8.433l-2.878-2.87c-0.794-0.793-2.083-0.793-2.878 0l-4.317 5.74c-0.659 0.971-0.794 2.077 0 2.87l1.762 1.757c-1.306 1.75-2.874 3.658-4.639 5.418-1.996 1.99-4.216 3.799-6.212 5.285l-1.703-1.697c-0.794-0.793-1.903-0.659-2.878 0l-5.756 4.305c-0.965 0.665-0.795 2.077 0 2.87l2.878 2.869c1.59 1.586 3.657 1.078 5.756 0 0 0 6.353-3.556 11.792-8.98 5.116-5.102 9.073-11.827 9.073-11.827 0.825-2.263 1.59-4.155 0-5.74v0z"></path>
</svg>
