<!-- Generated by IcoMoon.io -->
<svg version="1.1" xmlns="http://www.w3.org/2000/svg" width="46" height="40" viewBox="0 0 46 40">
<title>bm-print</title>
<path d="M38.286 28c0 1.262-1.024 2.286-2.286 2.286h-2.448c-0.509-1.968-2.281-3.429-4.409-3.429h-13.714c-2.128 0-3.901 1.461-4.409 3.429h-2.448c-1.262 0-2.286-1.024-2.286-2.286v-2.286c0-1.262 1.024-2.286 2.286-2.286h27.429c1.262 0 2.286 1.024 2.286 2.286v2.286zM29.143 33.714h-13.714c-1.262 0-2.286-1.024-2.286-2.286s1.024-2.286 2.286-2.286h13.714c1.262 0 2.286 1.024 2.286 2.286s-1.024 2.286-2.286 2.286v0zM13.143 8.571c0-1.262 1.024-2.286 2.286-2.286h13.714c1.262 0 2.286 1.024 2.286 2.286v12.571h-18.286v-12.571zM36 21.143h-2.286v-12.571c0-2.525-2.047-4.571-4.571-4.571h-13.714c-2.525 0-4.571 2.047-4.571 4.571v12.571h-2.286c-2.525 0-4.571 2.047-4.571 4.571v2.286c0 2.525 2.047 4.571 4.571 4.571h2.448c0.509 1.969 2.281 3.429 4.409 3.429h13.714c2.128 0 3.901-1.459 4.409-3.429h2.448c2.525 0 4.571-2.047 4.571-4.571v-2.286c0-2.525-2.047-4.571-4.571-4.571v0z"></path>
</svg>
