<!-- Generated by IcoMoon.io -->
<svg version="1.1" xmlns="http://www.w3.org/2000/svg" width="40" height="40" viewBox="0 0 40 40">
<title>bm-present1</title>
<path d="M33 14h-26c-0.552 0-1-0.447-1-1 0-0.552 0.448-1 1-1h26c0.552 0 1 0.448 1 1 0 0.553-0.448 1-1 1v0zM21 16h11v8h-11v-8zM32 32c0 1.104-0.896 2-2 2h-9v-8h11v6zM8 16h11v8h-11v-8zM19 34h-9c-1.104 0-2-0.896-2-2v-6h11v8zM17 6c1.104 0 2 0.896 2 2s-0.896 2-2 2c-1.104 0-2-0.896-2-2s0.896-2 2-2v0zM23 6c1.104 0 2 0.896 2 2s-0.896 2-2 2c-1.104 0-2-0.896-2-2s0.896-2 2-2v0zM34 10h-7.555c0.344-0.59 0.555-1.268 0.555-2 0-2.209-1.791-4-4-4-1.202 0-2.267 0.541-3 1.38-0.733-0.839-1.798-1.38-3-1.38-2.209 0-4 1.791-4 4 0 0.732 0.211 1.41 0.555 2h-7.555c-1.104 0-2 0.896-2 2v2c0 1.104 0.896 2 2 2v16c0 2.209 1.791 4 4 4h20c2.209 0 4-1.791 4-4v-16c1.104 0 2-0.896 2-2v-2c0-1.104-0.896-2-2-2v0z"></path>
</svg>
