<!-- Generated by IcoMoon.io -->
<svg version="1.1" xmlns="http://www.w3.org/2000/svg" width="40" height="40" viewBox="0 0 40 40">
<title>bm-rain-2</title>
<path d="M23 31c-0.552 0-1 0.447-1 1v3c0 0.553 0.448 1 1 1s1-0.447 1-1v-3c0-0.553-0.448-1-1-1v0zM27.067 9.028c-1.468-2.975-4.524-5.028-8.067-5.028-4.75 0-8.63 3.682-8.967 8.345-3.491 0.995-6.033 4.045-6.033 7.655 0 4.26 3.54 7.731 8 7.977 0 0 14.331 0.023 14.5 0.023 5.247 0 9.5-4.253 9.5-9.5 0-5.055-3.952-9.177-8.933-9.472v0zM29 31c-0.552 0-1 0.447-1 1v3c0 0.553 0.448 1 1 1s1-0.447 1-1v-3c0-0.553-0.448-1-1-1v0zM11 31c-0.552 0-1 0.447-1 1v3c0 0.553 0.448 1 1 1s1-0.447 1-1v-3c0-0.553-0.448-1-1-1v0zM17 31c-0.552 0-1 0.447-1 1v3c0 0.553 0.448 1 1 1s1-0.447 1-1v-3c0-0.553-0.448-1-1-1v0z"></path>
</svg>
