<!-- Generated by IcoMoon.io -->
<svg version="1.1" xmlns="http://www.w3.org/2000/svg" width="35" height="40" viewBox="0 0 35 40">
<title>bm-receipt1</title>
<path d="M25 12h-14c-0.553 0-1-0.447-1-1 0-0.552 0.447-1 1-1h14c0.553 0 1 0.448 1 1 0 0.553-0.447 1-1 1v0zM25 17.978h-14c-0.553 0-1-0.449-1-1 0-0.553 0.447-1 1-1h14c0.553 0 1 0.447 1 1 0 0.551-0.447 1-1 1v0zM25 24h-14c-0.553 0-1-0.447-1-1s0.447-1 1-1h14c0.553 0 1 0.447 1 1s-0.447 1-1 1v0zM28 4h-20c-2.209 0-4 1.791-4 4v28h1.867l4.133-3 4 3 4-3 4 3 4-3 4.134 3h1.866v-28c0-2.209-1.791-4-4-4v0z"></path>
</svg>
