<!-- Generated by IcoMoon.io -->
<svg version="1.1" xmlns="http://www.w3.org/2000/svg" width="46" height="40" viewBox="0 0 46 40">
<title>bm-replay</title>
<path d="M40.194 17.714h-2.090c-1.112-7.751-7.76-13.714-15.818-13.714-6.227 0-11.61 3.566-14.255 8.759l4.291 1.65c1.959-3.481 5.683-5.838 9.963-5.838 5.529 0 10.141 3.927 11.199 9.143h-2.754c-0.354 0.344-0.693 0.555-0.185 1.151l4.263 4.336c0.354 0.343 0.927 0.343 1.279 0l4.293-4.336c0.353-0.344 0.168-0.807-0.185-1.151v0zM22.286 31.429c-5.118 0-9.448-3.363-10.904-8h2.501c0.354-0.343 0.538-0.807 0.186-1.15l-4.293-4.337c-0.353-0.343-0.926-0.343-1.279 0l-4.264 4.337c-0.506 0.595-0.168 0.807 0.185 1.15h2.095c1.24 6.781 7.819 12.571 15.773 12.571 5.821 0 10.899-3.119 13.699-7.766l-4.326-1.707c-2.064 2.961-5.491 4.902-9.374 4.902v0z"></path>
</svg>
