<!-- Generated by IcoMoon.io -->
<svg version="1.1" xmlns="http://www.w3.org/2000/svg" width="40" height="40" viewBox="0 0 40 40">
<title>bm-resize</title>
<path d="M33.714 31.429c-1.262 0-2.286 1.024-2.286 2.286s1.024 2.286 2.286 2.286c1.262 0 2.286-1.024 2.286-2.286s-1.024-2.286-2.286-2.286v0zM6.286 31.429c-1.262 0-2.286 1.024-2.286 2.286s1.024 2.286 2.286 2.286c1.262 0 2.286-1.024 2.286-2.286s-1.024-2.286-2.286-2.286v0zM33.714 29.143c0.398 0 0.776 0.067 1.143 0.162v-18.61c-0.367 0.095-0.745 0.162-1.143 0.162-2.525 0-4.571-2.047-4.571-4.571 0-0.398 0.066-0.776 0.162-1.143h-18.61c0.096 0.367 0.162 0.745 0.162 1.143 0 2.525-2.047 4.571-4.571 4.571-0.398 0-0.776-0.067-1.143-0.162v18.61c0.367-0.095 0.745-0.162 1.143-0.162 2.525 0 4.571 2.047 4.571 4.571 0 0.398-0.066 0.776-0.162 1.143h18.61c-0.096-0.367-0.162-0.745-0.162-1.143 0-2.525 2.047-4.571 4.571-4.571v0zM6.286 8.571c1.262 0 2.286-1.024 2.286-2.286s-1.024-2.286-2.286-2.286c-1.262 0-2.286 1.024-2.286 2.286s1.024 2.286 2.286 2.286v0zM33.714 8.571c1.262 0 2.286-1.024 2.286-2.286s-1.024-2.286-2.286-2.286c-1.262 0-2.286 1.024-2.286 2.286s1.024 2.286 2.286 2.286v0z"></path>
</svg>
