<!-- Generated by IcoMoon.io -->
<svg version="1.1" xmlns="http://www.w3.org/2000/svg" width="46" height="40" viewBox="0 0 46 40">
<title>bm-radio1</title>
<path d="M38.286 31.429c0 1.262-1.024 2.286-2.286 2.286h-27.429c-1.262 0-2.286-1.024-2.286-2.286v-16c0-1.262 1.024-2.286 2.286-2.286h27.429c1.262 0 2.286 1.024 2.286 2.286v16zM36 10.857h-2.4l-12.039-6.72c-0.546-0.304-1.246-0.122-1.561 0.402s-0.128 1.195 0.418 1.498l8.696 4.819h-20.543c-2.525 0-4.571 2.047-4.571 4.571v16c0 2.525 2.047 4.571 4.571 4.571h27.429c2.525 0 4.571-2.047 4.571-4.571v-16c0-2.525-2.047-4.571-4.571-4.571v0zM28 28c-2.525 0-4.571-2.047-4.571-4.571s2.047-4.571 4.571-4.571c2.525 0 4.571 2.047 4.571 4.571s-2.047 4.571-4.571 4.571v0zM28 16.571c-3.786 0-6.857 3.071-6.857 6.857 0 3.787 3.071 6.857 6.857 6.857s6.857-3.070 6.857-6.857c0-3.786-3.071-6.857-6.857-6.857v0zM16.571 22.286h-6.857c-0.632 0-1.143 0.511-1.143 1.143s0.511 1.143 1.143 1.143h6.857c0.632 0 1.143-0.511 1.143-1.143s-0.511-1.143-1.143-1.143v0zM16.571 26.857h-6.857c-0.632 0-1.143 0.512-1.143 1.143 0 0.632 0.511 1.143 1.143 1.143h6.857c0.632 0 1.143-0.511 1.143-1.143 0-0.631-0.511-1.143-1.143-1.143v0zM16.571 17.714h-6.857c-0.632 0-1.143 0.511-1.143 1.143s0.511 1.143 1.143 1.143h6.857c0.632 0 1.143-0.511 1.143-1.143s-0.511-1.143-1.143-1.143v0z"></path>
</svg>
