<!-- Generated by IcoMoon.io -->
<svg version="1.1" xmlns="http://www.w3.org/2000/svg" width="41" height="40" viewBox="0 0 41 40">
<title>bm-sort-by-2</title>
<path d="M34.857 24.571h-13.714c-1.262 0-2.286 1.024-2.286 2.286s1.024 2.286 2.286 2.286h13.714c1.262 0 2.286-1.024 2.286-2.286s-1.024-2.286-2.286-2.286v0zM34.857 17.714h-13.714c-1.262 0-2.286 1.024-2.286 2.286s1.024 2.286 2.286 2.286h13.714c1.262 0 2.286-1.024 2.286-2.286s-1.024-2.286-2.286-2.286v0zM34.857 10.857h-6.857c-1.262 0-2.286 1.024-2.286 2.286s1.024 2.286 2.286 2.286h6.857c1.262 0 2.286-1.024 2.286-2.286s-1.024-2.286-2.286-2.286v0zM21.928 15.082c0.448-0.45 0.448-1.179 0-1.63l-7.934-9.129c-0.24-0.24-0.557-0.343-0.87-0.326-0.312-0.017-0.629 0.086-0.869 0.326l-7.934 9.129c-0.448 0.45-0.448 1.179 0 1.63s0.821 0.346 0.821 0.346h6.857v20.571h2.286v-20.571h6.857c0 0 0.337 0.104 0.785-0.346v0zM21.143 8.571h13.714c1.262 0 2.286-1.024 2.286-2.286s-1.024-2.286-2.286-2.286h-13.714c-1.262 0-2.286 1.024-2.286 2.286s1.024 2.286 2.286 2.286v0zM34.857 31.429h-13.714c-1.262 0-2.286 1.024-2.286 2.286s1.024 2.286 2.286 2.286h13.714c1.262 0 2.286-1.024 2.286-2.286s-1.024-2.286-2.286-2.286v0z"></path>
</svg>
