<!-- Generated by IcoMoon.io -->
<svg version="1.1" xmlns="http://www.w3.org/2000/svg" width="40" height="40" viewBox="0 0 40 40">
<title>bm-save-floppy1</title>
<path d="M23 14c0.552 0 1-0.447 1-1v-4c0-0.553-0.448-1-1-1s-1 0.447-1 1v4c0 0.553 0.448 1 1 1v0zM34 32c0 1.104-0.896 2-2 2h-24c-1.104 0-2-0.896-2-2v-24c0-1.104 0.896-2 2-2h2v10c0 1.104 0.896 2 2 2h16c1.104 0 2-0.896 2-2v-10h2c1.104 0 2 0.896 2 2v24zM12 6h16v9c0 0.553-0.448 1-1 1h-14c-0.552 0-1-0.447-1-1v-9zM32 4h-24c-2.209 0-4 1.791-4 4v24c0 2.209 1.791 4 4 4h24c2.209 0 4-1.791 4-4v-24c0-2.209-1.791-4-4-4v0z"></path>
</svg>
