<!-- Generated by IcoMoon.io -->
<svg version="1.1" xmlns="http://www.w3.org/2000/svg" width="24" height="24" viewBox="0 0 24 24">
<title>border_inner</title>
<path d="M17.587 16.013v-1.613h1.613v1.613h-1.613zM17.587 19.2v-1.613h1.613v1.613h-1.613zM12.788 4.8v6.412h6.413v1.575h-6.413v6.413h-1.575v-6.413h-6.412v-1.575h6.412v-6.412h1.575zM14.4 19.2v-1.613h1.613v1.613h-1.613zM17.587 4.8h1.613v1.612h-1.613v-1.612zM17.587 9.6v-1.613h1.613v1.613h-1.613zM16.013 4.8v1.612h-1.613v-1.612h1.613zM6.413 4.8v1.612h-1.612v-1.612h1.612zM9.6 4.8v1.612h-1.613v-1.612h1.613zM4.8 16.013v-1.613h1.612v1.613h-1.612zM6.413 7.988v1.613h-1.612v-1.613h1.612zM7.988 19.2v-1.613h1.613v1.613h-1.613zM4.8 19.2v-1.613h1.612v1.613h-1.612z"></path>
</svg>
