<!-- Generated by IcoMoon.io -->
<svg version="1.1" xmlns="http://www.w3.org/2000/svg" width="24" height="24" viewBox="0 0 24 24">
<title>border_top</title>
<path d="M14.4 12.788v-1.575h1.613v1.575h-1.613zM17.587 19.2v-1.613h1.613v1.613h-1.613zM11.212 9.6v-1.613h1.575v1.613h-1.575zM14.4 19.2v-1.613h1.613v1.613h-1.613zM17.587 16.013v-1.613h1.613v1.613h-1.613zM4.8 4.8h14.4v1.612h-14.4v-1.612zM17.587 12.788v-1.575h1.613v1.575h-1.613zM17.587 9.6v-1.613h1.613v1.613h-1.613zM11.212 16.013v-1.613h1.575v1.613h-1.575zM4.8 9.6v-1.613h1.612v1.613h-1.612zM4.8 12.788v-1.575h1.612v1.575h-1.612zM4.8 19.2v-1.613h1.612v1.613h-1.612zM4.8 16.013v-1.613h1.612v1.613h-1.612zM11.212 19.2v-1.613h1.575v1.613h-1.575zM11.212 12.788v-1.575h1.575v1.575h-1.575zM7.988 12.788v-1.575h1.613v1.575h-1.613zM7.988 19.2v-1.613h1.613v1.613h-1.613z"></path>
</svg>
