<!-- Generated by IcoMoon.io -->
<svg version="1.1" xmlns="http://www.w3.org/2000/svg" width="24" height="24" viewBox="0 0 24 24">
<title>bubble_chart</title>
<path d="M10.725 9.45q0-1.612 1.106-2.737t2.719-1.125 2.737 1.125 1.125 2.737-1.125 2.719-2.737 1.106-2.719-1.106-1.106-2.719zM12.638 16.8q0-0.675 0.469-1.144t1.144-0.469 1.125 0.469 0.45 1.144-0.45 1.144-1.125 0.469-1.144-0.469-0.469-1.144zM5.588 13.913q0-1.050 0.75-1.8t1.837-0.75q1.050 0 1.8 0.731t0.75 1.819-0.75 1.819-1.8 0.731q-1.087 0-1.837-0.75t-0.75-1.8z"></path>
</svg>
