<!-- Generated by IcoMoon.io -->
<svg version="1.1" xmlns="http://www.w3.org/2000/svg" width="24" height="24" viewBox="0 0 24 24">
<title>cake</title>
<path d="M16.8 9.6q0.975 0 1.688 0.712t0.713 1.688v1.237q0 0.638-0.469 1.106t-1.106 0.469-1.087-0.45l-1.725-1.725-1.725 1.725q-0.45 0.45-1.106 0.45t-1.106-0.45l-1.688-1.725-1.725 1.725q-0.45 0.45-1.087 0.45t-1.106-0.469-0.469-1.106v-1.238q0-0.975 0.713-1.688t1.688-0.712h4.013v-1.613h1.575v1.613h4.012zM15.675 15.188q0.825 0.825 1.95 0.825 0.825 0 1.575-0.488v3.675q0 0.337-0.225 0.563t-0.563 0.225h-12.825q-0.338 0-0.563-0.225t-0.225-0.563v-3.675q0.712 0.488 1.575 0.488 1.125 0 1.95-0.825l0.863-0.862 0.863 0.862q0.787 0.788 1.95 0.788t1.95-0.788l0.862-0.862zM12 7.2q-0.637 0-1.125-0.487t-0.488-1.125q0-0.412 0.262-0.825l1.35-2.362 1.35 2.362q0.262 0.413 0.262 0.825 0 0.675-0.469 1.144t-1.144 0.469z"></path>
</svg>
