<!-- Generated by IcoMoon.io -->
<svg version="1.1" xmlns="http://www.w3.org/2000/svg" width="24" height="24" viewBox="0 0 24 24">
<title>camera_front</title>
<path d="M7.988 4.012v8.4q0-0.9 1.369-1.462t2.644-0.563 2.644 0.563 1.369 1.462v-8.4h-8.025zM16.013 2.4q0.637 0 1.106 0.487t0.469 1.125v11.175q0 0.638-0.469 1.125t-1.106 0.487h-5.625l2.4 2.4-2.4 2.4v-1.613h-3.975v-1.575h3.975v-1.613h-2.4q-0.638 0-1.106-0.487t-0.469-1.125v-11.175q0-0.637 0.469-1.125t1.106-0.487h8.025zM12 8.813q-0.637 0-1.106-0.488t-0.469-1.125 0.469-1.125 1.106-0.487 1.125 0.487 0.487 1.125-0.487 1.125-1.125 0.488zM13.612 18.413h3.975v1.575h-3.975v-1.575z"></path>
</svg>
