<!-- Generated by IcoMoon.io -->
<svg version="1.1" xmlns="http://www.w3.org/2000/svg" width="24" height="24" viewBox="0 0 24 24">
<title>car_repair</title>
<path d="M5.588 16.013h12.825v1.575h-5.625v2.4h-1.575v-2.4h-5.625v-1.575zM16.2 5.287q0.112 0.225 1.387 4.050v5.213q0 0.638-0.6 0.638h-0.375q-0.6 0-0.6-0.638v-0.938h-8.025v0.938q0 0.638-0.6 0.638h-0.375q-0.6 0-0.6-0.638v-5.213q1.087-3.225 1.237-3.75 0-0.037 0.075-0.131t0.075-0.169l0.037-0.037q0.15-0.188 0.338-0.3t0.3-0.15h6.938q0.45 0.037 0.75 0.45 0.038 0 0.038 0.038zM8.475 5.588l-1.050 3.225h9.15l-1.088-3.225h-7.012zM7.65 11.025q0 0.413 0.281 0.694t0.694 0.281 0.694-0.281 0.281-0.694-0.281-0.694-0.694-0.281-0.694 0.281-0.281 0.694zM15.375 12q0.413 0 0.694-0.281t0.281-0.694-0.281-0.694-0.694-0.281-0.694 0.281-0.281 0.694 0.281 0.694 0.694 0.281z"></path>
</svg>
