<!-- Generated by IcoMoon.io -->
<svg version="1.1" xmlns="http://www.w3.org/2000/svg" width="24" height="24" viewBox="0 0 24 24">
<title>checkroom</title>
<path d="M19.688 16.95l-6.9-5.138v-0.75q0.675-0.188 1.162-0.675t0.713-1.144 0.075-1.406q-0.15-0.787-0.731-1.387t-1.369-0.787q-0.9-0.188-1.688 0.131t-1.275 1.031-0.487 1.575h1.612q0-0.487 0.356-0.844t0.844-0.356 0.844 0.356 0.356 0.844-0.356 0.844-0.881 0.356q-0.3 0-0.525 0.225t-0.225 0.563v1.425l-6.9 5.138q-0.3 0.225-0.319 0.581t0.206 0.619 0.6 0.263h14.4q0.375 0 0.6-0.263t0.206-0.619-0.319-0.581zM7.2 16.8l4.8-3.6 4.8 3.6h-9.6z"></path>
</svg>
