<!-- Generated by IcoMoon.io -->
<svg version="1.1" xmlns="http://www.w3.org/2000/svg" width="24" height="24" viewBox="0 0 24 24">
<title>child_care</title>
<path d="M8.4 13.612h7.2q-0.45 1.088-1.425 1.744t-2.175 0.656-2.175-0.656-1.425-1.744zM12 17.587q1.913 0 3.394-1.125t1.969-2.887q0.038 0 0.113 0.019t0.113 0.019q0.637 0 1.125-0.488t0.487-1.125-0.487-1.125-1.125-0.487q-0.038 0-0.113 0.019t-0.113 0.019q-0.487-1.762-1.969-2.887t-3.394-1.125-3.394 1.125-1.969 2.887q-0.038 0-0.112-0.019t-0.113-0.019q-0.637 0-1.125 0.487t-0.488 1.125 0.488 1.125 1.125 0.488q0.038 0 0.113-0.019t0.112-0.019q0.487 1.762 1.969 2.887t3.394 1.125zM20.737 12.525q-0.15 0.825-0.787 1.575t-1.425 0.975q-0.825 1.763-2.606 2.944t-3.919 1.181q-2.662 0-4.762-1.838-1.163-1.012-1.725-2.287-0.787-0.225-1.444-0.975t-0.806-1.575q-0.075-0.3-0.075-0.525t0.075-0.525q0.15-0.825 0.806-1.575t1.444-0.975q0.638-1.425 1.725-2.325 2.025-1.8 4.762-1.8t4.763 1.8q1.162 1.087 1.725 2.325 0.788 0.225 1.444 0.975t0.806 1.575q0.075 0.3 0.075 0.525t-0.075 0.525zM9 10.8q0-0.413 0.3-0.713t0.712-0.3 0.694 0.3 0.281 0.713-0.281 0.712-0.694 0.3-0.712-0.3-0.3-0.712zM13.013 10.8q0-0.413 0.281-0.713t0.694-0.3 0.713 0.3 0.3 0.713-0.3 0.712-0.713 0.3-0.694-0.3-0.281-0.712z"></path>
</svg>
