<!-- Generated by IcoMoon.io -->
<svg version="1.1" xmlns="http://www.w3.org/2000/svg" width="24" height="24" viewBox="0 0 24 24">
<title>clean_hands</title>
<path d="M15.975 6.413l0.525 1.087 1.087 0.488-1.087 0.525-0.525 1.088-0.488-1.088-1.087-0.525 1.087-0.488zM11.212 7.313v-1.725h1.575q0.675 0 1.237 0.375l1.163-1.162q-0.487-0.375-1.106-0.581t-1.294-0.206h-4.387v1.575h1.2v1.725q-1.050 0.225-1.856 0.938t-1.144 1.762h3.188l4.612 1.725v-0.525q0-0.975-0.412-1.781t-1.144-1.369-1.631-0.75zM3.188 19.987h3.225v-8.775h-3.225v8.775zM18.413 16.013h-5.625l-1.65-0.6 0.262-0.75 1.388 0.525h2.25q0.412 0 0.694-0.263t0.281-0.675v0q0-0.638-0.638-0.9l-5.813-2.138h-1.575v7.2l5.625 1.575 6.375-2.4q0-0.637-0.469-1.106t-1.106-0.469zM18.413 13.612q0.637 0 1.106-0.469t0.469-1.144q0-0.337-0.244-0.862t-0.544-1.069-0.544-0.9l-0.244-0.356-0.244 0.356t-0.563 0.9-0.563 1.069-0.244 0.862q0 0.675 0.469 1.144t1.144 0.469z"></path>
</svg>
