<!-- Generated by IcoMoon.io -->
<svg version="1.1" xmlns="http://www.w3.org/2000/svg" width="24" height="24" viewBox="0 0 24 24">
<title>cloud_circle</title>
<path d="M15.6 15.188q0.825 0 1.406-0.581t0.581-1.406-0.581-1.406-1.406-0.581h-0.413q0-1.313-0.938-2.269t-2.25-0.956q-1.012 0-1.913 0.712t-1.162 1.725l-0.113-0.037q-0.975 0-1.688 0.712t-0.712 1.688 0.712 1.688 1.688 0.712h6.787zM12 4.012q3.3 0 5.644 2.344t2.344 5.644-2.344 5.644-5.644 2.344-5.644-2.344-2.344-5.644 2.344-5.644 5.644-2.344z"></path>
</svg>
