<!-- Generated by IcoMoon.io -->
<svg version="1.1" xmlns="http://www.w3.org/2000/svg" width="24" height="24" viewBox="0 0 24 24">
<title>connect_without_contact</title>
<path d="M11.212 13.612h-1.612q0-1.5 0.563-2.813t1.556-2.287 2.288-1.538 2.794-0.563v1.575q-1.162 0-2.175 0.45t-1.781 1.219-1.2 1.781-0.431 2.175zM16.8 11.212v-1.612q-1.087 0-2.006 0.544t-1.463 1.444-0.544 2.025h1.612q0-0.675 0.319-1.219t0.863-0.863 1.219-0.319zM7.988 5.588q0-0.638-0.469-1.106t-1.106-0.469q-0.675 0-1.144 0.469t-0.469 1.106q0 0.675 0.469 1.144t1.144 0.469q0.638 0 1.106-0.469t0.469-1.144zM11.55 6h-1.575q-0.15 0.863-0.806 1.425t-1.556 0.563h-2.4q-0.525 0-0.862 0.356t-0.337 0.844v2.025h4.8v-1.837q1.087-0.337 1.856-1.256t0.881-2.119zM17.587 16.013q0.675 0 1.144-0.469t0.469-1.144-0.469-1.144-1.144-0.469q-0.637 0-1.106 0.469t-0.469 1.144 0.469 1.144 1.106 0.469zM18.788 16.8h-2.4q-0.9 0-1.556-0.581t-0.806-1.406h-1.575q0.112 1.2 0.881 2.119t1.856 1.256v1.8h4.8v-1.987q0-0.487-0.337-0.844t-0.863-0.356z"></path>
</svg>
