<!-- Generated by IcoMoon.io -->
<svg version="1.1" xmlns="http://www.w3.org/2000/svg" width="24" height="24" viewBox="0 0 24 24">
<title>construction</title>
<path d="M13.425 14.55l1.688-1.725 4.8 4.8-1.688 1.725zM16.388 10.387q0.787 0 1.425-0.375t1.013-1.012 0.375-1.387q0-0.375-0.094-0.694t-0.244-0.581l-2.137 2.138-1.2-1.2 2.138-2.138q-0.263-0.15-0.581-0.244t-0.694-0.094q-0.75 0-1.388 0.375t-1.013 1.013-0.375 1.425q0 0.45 0.15 0.9l-1.463 1.5-1.425-1.425 0.563-0.563-1.125-1.125 1.688-1.725q-0.45-0.45-1.069-0.6t-1.238 0-1.069 0.6l-2.85 2.85 1.125 1.125h-2.25l-0.563 0.563 2.813 2.85 0.563-0.563v-2.288l1.162 1.125 0.563-0.563 1.425 1.425-5.925 5.925 1.688 1.688 9.113-9.075q0.45 0.15 0.9 0.15z"></path>
</svg>
