<!-- Generated by IcoMoon.io -->
<svg version="1.1" xmlns="http://www.w3.org/2000/svg" width="24" height="24" viewBox="0 0 24 24">
<title>contactless</title>
<path d="M14.138 16.275q1.050-2.137 1.050-4.275 0-2.175-1.050-4.275l-1.088 0.563q0.938 1.837 0.938 3.712t-0.938 3.75zM11.625 15.225q0.788-1.388 0.788-3.113 0-1.762-0.788-3.262l-1.050 0.525q0.637 1.35 0.637 2.738 0 1.35-0.637 2.513zM9.15 13.95q0.45-0.975 0.45-1.988 0-0.9-0.45-1.912l-1.087 0.488q0.337 0.675 0.337 1.425 0 0.788-0.337 1.5zM12 4.012q3.3 0 5.644 2.344t2.344 5.644-2.344 5.644-5.644 2.344-5.644-2.344-2.344-5.644 2.344-5.644 5.644-2.344z"></path>
</svg>
