<!-- Generated by IcoMoon.io -->
<svg version="1.1" xmlns="http://www.w3.org/2000/svg" width="24" height="24" viewBox="0 0 24 24">
<title>data_usage</title>
<path d="M12 17.587q1.087 0 2.362-0.619t1.987-1.481l2.1 1.237q-2.4 3.262-6.45 3.262-3.3 0-5.644-2.344t-2.344-5.644q0-3.112 2.081-5.381t5.119-2.569v2.4q-2.025 0.3-3.412 1.875t-1.387 3.675q0 2.325 1.631 3.956t3.956 1.631zM12.788 4.050q3.037 0.3 5.119 2.569t2.081 5.381q0 1.8-0.675 3.263l-2.1-1.237q0.375-1.050 0.375-2.025 0-2.1-1.387-3.675t-3.413-1.875v-2.4z"></path>
</svg>
