<!-- Generated by IcoMoon.io -->
<svg version="1.1" xmlns="http://www.w3.org/2000/svg" width="24" height="24" viewBox="0 0 24 24">
<title>departure_board</title>
<path d="M15.6 5.588v3.412l2.288 1.35-0.6 0.975-2.888-1.725v-4.013h1.2zM15.188 12.788q1.65 0 2.831-1.163t1.181-2.813-1.181-2.831-2.831-1.181-2.813 1.181-1.163 2.831 1.163 2.813 2.813 1.163zM13.2 17.587q0.525 0 0.862-0.356t0.337-0.844-0.337-0.844-0.862-0.356-0.862 0.356-0.337 0.844 0.337 0.844 0.862 0.356zM4.8 12.788h6.488q-1.688-1.613-1.688-3.975h-4.8v3.975zM6 17.587q0.525 0 0.863-0.356t0.337-0.844-0.337-0.844-0.863-0.356-0.863 0.356-0.337 0.844 0.337 0.844 0.863 0.356zM15.188 3.188q2.325 0 3.975 1.65t1.65 3.975q0 2.1-1.388 3.656t-3.412 1.856v2.475q0 1.013-0.825 1.763v1.425q0 0.338-0.225 0.581t-0.563 0.244h-0.787q-0.338 0-0.581-0.244t-0.244-0.581v-0.787h-6.375v0.787q0 0.338-0.244 0.581t-0.581 0.244h-0.788q-0.337 0-0.563-0.244t-0.225-0.581v-1.425q-0.825-0.75-0.825-1.763v-7.987q0-1.912 1.65-2.569t4.762-0.656q0.15 0 0.488 0.019t0.488 0.019q1.688-2.438 4.613-2.438z"></path>
</svg>
