<!-- Generated by IcoMoon.io -->
<svg version="1.1" xmlns="http://www.w3.org/2000/svg" width="24" height="24" viewBox="0 0 24 24">
<title>devices_other</title>
<path d="M19.2 16.8v-6.412h-3.188v6.412h3.188zM19.987 8.813q0.3 0 0.563 0.244t0.263 0.544v7.987q0 0.3-0.263 0.563t-0.563 0.263h-4.8q-0.3 0-0.544-0.263t-0.244-0.563v-7.987q0-0.3 0.244-0.544t0.544-0.244h4.8zM11.212 16.388q0.488 0 0.844-0.356t0.356-0.844-0.356-0.844-0.844-0.356-0.844 0.356-0.356 0.844 0.356 0.844 0.844 0.356zM12.788 12v1.425q0.825 0.75 0.825 1.763 0 1.050-0.825 1.8v1.425h-3.188v-1.425q-0.788-0.712-0.788-1.8 0-1.050 0.788-1.763v-1.425h3.188zM4.8 7.2v9.6h3.188v1.613h-3.188q-0.638 0-1.125-0.488t-0.488-1.125v-9.6q0-0.638 0.488-1.125t1.125-0.487h14.4v1.612h-14.4z"></path>
</svg>
