<!-- Generated by IcoMoon.io -->
<svg version="1.1" xmlns="http://www.w3.org/2000/svg" width="40" height="40" viewBox="0 0 40 40">
<title>di-anchor</title>
<path d="M34.296 22.539c-0.278-0.313-0.661-0.452-1.078-0.452h-4.487c-0.765 0-1.391 0.626-1.391 1.391s0.626 1.391 1.391 1.391h2.713c-1.391 4.522-5.322 7.722-10.052 8.278v-18.47c2.296-0.626 4-2.748 4-5.252 0-2.991-2.4-5.426-5.391-5.426s-5.391 2.435-5.391 5.426c0 2.504 1.565 4.626 4 5.252v18.47c-4.87-0.557-8.661-3.757-10.052-8.278h2.713c0.765 0 1.391-0.626 1.391-1.391s-0.626-1.391-1.391-1.391h-4.487c-0.417 0-0.8 0.139-1.078 0.452s-0.383 0.696-0.313 1.113c1.217 7.165 7.374 12.348 14.609 12.348s13.391-5.183 14.574-12.348c0.070-0.417-0.035-0.8-0.278-1.113zM17.391 9.426c0-1.461 1.183-2.643 2.609-2.643 1.461 0 2.609 1.183 2.609 2.643s-1.183 2.643-2.609 2.643c-1.461 0-2.609-1.183-2.609-2.643z"></path>
</svg>
