<!-- Generated by IcoMoon.io -->
<svg version="1.1" xmlns="http://www.w3.org/2000/svg" width="40" height="40" viewBox="0 0 40 40">
<title>di-battery-full</title>
<path d="M16.174 22.783v-5.565c0-0.765 0.626-1.391 1.391-1.391h2.435c0.765 0 1.391 0.626 1.391 1.391v5.565c0 0.765-0.626 1.391-1.391 1.391h-2.435c-0.765 0-1.391-0.626-1.391-1.391zM24.87 24.174h2.435c0.765 0 1.391-0.626 1.391-1.391v-3.548c0-0.348-0.070-0.661-0.313-0.904l-1.843-2.087c-0.278-0.313-0.626-0.417-1.043-0.417h-0.626c-0.765 0-1.391 0.522-1.391 1.322v5.635c0 0.765 0.626 1.391 1.391 1.391zM10.261 24.174h2.435c0.765 0 1.391-0.626 1.391-1.391v-5.565c0-0.765-0.626-1.391-1.391-1.391h-2.435c-0.765 0-1.391 0.626-1.391 1.391v5.565c0 0.765 0.626 1.391 1.391 1.391zM36 17.426v5.148c0 0.765-0.626 1.252-1.391 1.252h-1.043v3.826c0 0.765-0.591 1.391-1.391 1.391h-26.783c-0.765 0-1.391-0.626-1.391-1.391v-15.304c0-0.765 0.626-1.391 1.391-1.391h26.783c0.765 0 1.391 0.626 1.391 1.391v3.826h1.043c0.765 0 1.391 0.487 1.391 1.252zM30.783 13.739h-24v12.522h24v-12.522z"></path>
</svg>
