<!-- Generated by IcoMoon.io -->
<svg version="1.1" xmlns="http://www.w3.org/2000/svg" width="40" height="40" viewBox="0 0 40 40">
<title>di-checklist</title>
<path d="M16.591 8.87c0-0.974 0.765-1.739 1.739-1.739h15.235c0.974 0 1.739 0.765 1.739 1.739s-0.765 1.739-1.739 1.739h-15.235c-0.939 0-1.739-0.765-1.739-1.739zM33.565 18.261h-15.235c-0.974 0-1.739 0.765-1.739 1.739s0.765 1.739 1.739 1.739h15.235c0.974 0 1.739-0.765 1.739-1.739s-0.765-1.739-1.739-1.739zM33.565 29.391h-15.235c-0.974 0-1.739 0.765-1.739 1.739s0.765 1.739 1.739 1.739h15.235c0.974 0 1.739-0.765 1.739-1.739s-0.765-1.739-1.739-1.739zM12.696 6.261c0-0.661-0.557-1.217-1.217-1.217h-5.217c-0.661 0-1.217 0.557-1.217 1.217v5.217c0 0.661 0.557 1.217 1.217 1.217h5.217c0.661 0 1.217-0.557 1.217-1.217v-5.217zM12.696 22.609c0 0.661-0.557 1.217-1.217 1.217h-5.217c-0.661 0-1.217-0.557-1.217-1.217v-5.217c0-0.661 0.557-1.217 1.217-1.217h5.217c0.661 0 1.217 0.557 1.217 1.217v5.217zM10.609 18.609h-3.13v2.783h3.13v-2.783zM12.696 33.739c0 0.661-0.557 1.217-1.217 1.217h-5.217c-0.661 0-1.217-0.557-1.217-1.217v-5.217c0-0.661 0.557-1.217 1.217-1.217h5.217c0.661 0 1.217 0.557 1.217 1.217v5.217zM10.609 29.739h-3.13v3.13h3.13v-3.13z"></path>
</svg>
