<!-- Generated by IcoMoon.io -->
<svg version="1.1" xmlns="http://www.w3.org/2000/svg" width="40" height="40" viewBox="0 0 40 40">
<title>di-contract</title>
<path d="M34.748 32.939c0.557 0.557 0.557 1.426 0 1.983-0.278 0.278-0.626 0.417-0.974 0.417s-0.73-0.139-1.009-0.417l-7.548-7.548v3.583c0 0.765-0.626 1.391-1.391 1.391s-1.391-0.626-1.391-1.391v-6.957c0-0.383 0.174-0.73 0.417-0.974 0.278-0.243 0.626-0.417 1.009-0.417v0h6.957c0.765 0 1.391 0.626 1.391 1.391s-0.626 1.391-1.391 1.391c0 0 0 0 0 0h-3.583l7.513 7.548zM23.791 17.565h6.957c0.765 0 1.391-0.626 1.391-1.391s-0.626-1.391-1.391-1.391h-3.583l7.722-7.722c0.557-0.557 0.557-1.426 0-1.948-0.557-0.557-1.426-0.522-1.948 0l-7.722 7.722v-3.583c0-0.765-0.626-1.426-1.391-1.426v0c-0.765 0-1.391 0.626-1.391 1.391v6.957c0 0.383 0.139 0.696 0.417 0.974 0.243 0.278 0.591 0.417 0.939 0.417zM16.139 7.93c-0.765 0-1.357 0.626-1.357 1.391v3.583l-7.687-7.687c-0.557-0.522-1.426-0.522-1.983 0-0.557 0.557-0.557 1.391 0 1.913l7.652 7.617h-3.548v0.035c-0.696 0-1.426 0.661-1.426 1.426s0.626 1.391 1.391 1.391h6.957c0.348 0 0.696-0.139 0.974-0.417s0.383-0.626 0.383-0.974v-6.957c0.035-0.696-0.591-1.322-1.357-1.322zM16.070 22.435h-6.957c-0.765 0-1.391 0.626-1.391 1.391s0.626 1.391 1.391 1.391h3.583l-7.583 7.652c-0.557 0.557-0.557 1.461 0 1.983 0.278 0.278 0.626 0.417 1.009 0.417 0.348 0 0.765-0.139 1.043-0.417l7.617-7.548v3.583c0 0.765 0.557 1.287 1.322 1.287h-0.035c0.765 0 1.391-0.557 1.391-1.322v-6.922c0-0.383-0.139-0.765-0.417-1.043-0.243-0.278-0.591-0.452-0.974-0.452z"></path>
</svg>
