<!-- Generated by IcoMoon.io -->
<svg version="1.1" xmlns="http://www.w3.org/2000/svg" width="40" height="40" viewBox="0 0 40 40">
<title>di-cloud</title>
<path d="M28.765 31.13c-6.957 0-18.4-0.035-18.609-0.035-3.026 0-5.6-2.296-6.087-5.461-0.383-2.47 0.661-5.774 4.557-7.513-0.904-3.861 1.287-7.13 4.209-8.487 1.843-0.87 3.861-0.974 5.739-0.348 1.635 0.557 3.096 1.67 4.209 3.235 1.739-0.974 3.791-1.043 5.496-0.104 1.461 0.835 2.817 2.574 2.678 5.217 3.722 1.148 5.217 4.383 5.043 7.165-0.243 3.061-2.574 6.33-7.235 6.33zM16.139 11.652c-0.765 0-1.53 0.174-2.157 0.487-2.017 0.939-3.583 3.304-2.365 6.296 0.139 0.348 0.139 0.765-0.035 1.113s-0.487 0.626-0.835 0.73c-4.139 1.287-4.035 4.104-3.93 4.939 0.243 1.53 1.461 3.096 3.339 3.096 0 0 0 0 0 0 0.104 0 11.617 0.035 18.609 0.035 2.887 0 4.313-1.878 4.452-3.757 0.139-1.913-1.043-4.070-4.035-4.487-0.383-0.070-0.73-0.278-0.939-0.591s-0.278-0.73-0.209-1.113c0.383-1.67-0.035-2.957-1.113-3.583-0.904-0.522-2.33-0.487-3.548 0.696-0.313 0.313-0.765 0.452-1.183 0.383-0.452-0.070-0.8-0.348-1.009-0.73-1.391-2.609-3.304-3.513-5.043-3.513z"></path>
</svg>
