<!-- Generated by IcoMoon.io -->
<svg version="1.1" xmlns="http://www.w3.org/2000/svg" width="40" height="40" viewBox="0 0 40 40">
<title>di-card</title>
<path d="M36 12.139c0-1.426-1.148-2.574-2.574-2.574h-26.852c-1.426 0-2.574 1.148-2.574 2.574v15.757c0 1.391 1.148 2.539 2.574 2.539h26.887c1.426 0 2.574-1.148 2.574-2.574v-15.722zM33.217 12.348v2.435h-26.435v-2.435h26.435zM6.783 27.652v-8.696h26.435v8.696h-26.435zM30.609 23.13c0 0.765-0.626 1.391-1.391 1.391h-6.609c-0.765 0-1.391-0.626-1.391-1.391s0.626-1.391 1.391-1.391h6.609c0.765 0 1.391 0.626 1.391 1.391z"></path>
</svg>
