<!-- Generated by IcoMoon.io -->
<svg version="1.1" xmlns="http://www.w3.org/2000/svg" width="40" height="40" viewBox="0 0 40 40">
<title>di-clockwise</title>
<path d="M34.226 18.539l-4.835 4.87c-0.278 0.278-0.626 0.417-1.009 0.417s-0.73-0.139-1.009-0.417l-4.8-4.87c-0.522-0.557-0.522-1.426 0-1.983 0.557-0.522 1.426-0.522 1.983 0l2.678 2.713c-0.348-5.043-4.487-9.043-9.53-9.043-5.252 0.035-9.53 4.417-9.53 9.774s4.278 9.739 9.565 9.739c1.948 0 3.826-0.591 5.391-1.704 0.626-0.452 1.496-0.278 1.948 0.348s0.278 1.496-0.348 1.948c-2.052 1.426-4.487 2.191-6.991 2.191-6.817 0-12.348-5.6-12.348-12.522s5.53-12.522 12.348-12.522c6.4 0 11.687 4.974 12.278 11.339l2.191-2.226c0.557-0.557 1.426-0.557 1.983 0 0.557 0.522 0.557 1.391 0.035 1.948z"></path>
</svg>
