<!-- Generated by IcoMoon.io -->
<svg version="1.1" xmlns="http://www.w3.org/2000/svg" width="40" height="40" viewBox="0 0 40 40">
<title>di-exit</title>
<path d="M24.87 25.113v6.365c0 0.765-0.557 1.391-1.322 1.391h-18.157c-0.765 0-1.391-0.626-1.391-1.391v-22.957c0-0.765 0.626-1.391 1.391-1.391h18.157c0.765 0 1.322 0.626 1.322 1.391v6.365c0 0.765-0.626 1.391-1.391 1.391s-1.391-0.626-1.391-1.391v-4.974h-15.304v20.174h15.304v-4.974c0-0.765 0.626-1.391 1.391-1.391s1.391 0.626 1.391 1.391zM35.583 18.957l-5.426-5.496c-0.557-0.557-1.426-0.557-1.983 0s-0.557 1.426 0 1.983l3.096 3.13-16.87 0.035c-0.765 0-1.391 0.626-1.391 1.391s0.626 1.391 1.391 1.391c0 0 0 0 0 0l16.87-0.035-3.096 3.13c-0.557 0.557-0.522 1.426 0 1.983 0.278 0.278 0.626 0.417 0.974 0.417s0.73-0.139 0.974-0.417l5.461-5.496c0.557-0.591 0.557-1.461 0-2.017z"></path>
</svg>
