<!-- Generated by IcoMoon.io -->
<svg version="1.1" xmlns="http://www.w3.org/2000/svg" width="40" height="40" viewBox="0 0 40 40">
<title>di-flag</title>
<path d="M34.191 4.035c-0.661-0.139-1.322 0.209-1.565 0.835-0.383 0.87-4.070 4.696-7.235 4.835-1.809 0.070-3.478-1.183-5.252-2.504-2.296-1.67-4.835-3.548-8.104-2.922-4.835 0.904-7.096 5.252-7.2 5.461-0.139 0.278-0.174 0.626-0.104 0.939l1.391 6.226c0 0 0 0 0 0l4.070 18.052c0.139 0.661 0.73 1.078 1.357 1.078 0.104 0 0.209 0 0.313-0.035 0.765-0.174 1.217-0.904 1.043-1.67l-2.365-10.539c0.626-0.974 2.4-3.374 5.183-4 1.67-0.383 2.991 0.070 4.522 0.557 1.704 0.557 3.652 1.217 6.157 0.661 5.252-1.217 8.8-7.478 8.904-15.617 0-0.661-0.452-1.217-1.113-1.357zM25.774 18.296c-1.739 0.383-3.096-0.070-4.661-0.591-1.704-0.557-3.617-1.217-6.017-0.661-2.365 0.522-4.139 1.913-5.357 3.235l-0.139-0.626-2.052-9.043c0.591-0.904 2.226-3.061 4.974-3.583 2.087-0.383 3.861 0.904 5.913 2.435 1.983 1.461 4.278 3.13 7.026 3.026 2.33-0.104 4.73-1.461 6.609-2.991-0.8 4.174-2.852 8-6.296 8.8z"></path>
</svg>
