<!-- Generated by IcoMoon.io -->
<svg version="1.1" xmlns="http://www.w3.org/2000/svg" width="40" height="40" viewBox="0 0 40 40">
<title>di-flashlight</title>
<path d="M18.887 20c0 0.591-0.452 1.043-1.043 1.043h-2.643c-0.591 0-1.043-0.452-1.043-1.043s0.452-1.043 1.043-1.043h2.643c0.591 0 1.043 0.452 1.043 1.043zM36 11.896v16.243c0 1.078-0.87 1.983-1.983 1.983h-3.339c-5.704-0.035-9.148-3.165-10.33-4.557h-14.365c-1.078 0-1.983-0.904-1.983-1.983v-7.2c0-1.113 0.904-1.948 1.983-1.948h14.33c1.183-1.391 4.626-4.522 10.365-4.522h3.339c1.113 0 1.983 0.87 1.983 1.983zM6.783 22.783h2.435v-5.565h-2.435v5.565zM28.696 27.165v-14.33c-4.174 0.696-6.643 3.757-6.643 3.791-0.278 0.383-0.591 0.591-1.043 0.591h-9.704v5.565h9.67c0.452 0 0.8 0.209 1.043 0.591 0.104 0.139 2.504 3.096 6.678 3.791zM33.217 12.696h-2.435v14.609h2.435v-14.609z"></path>
</svg>
