<!-- Generated by IcoMoon.io -->
<svg version="1.1" xmlns="http://www.w3.org/2000/svg" width="40" height="40" viewBox="0 0 40 40">
<title>di-gaming</title>
<path d="M25.148 14.748c0.278 0.278 0.452 0.696 0.452 1.113s-0.174 0.8-0.452 1.113c-0.278 0.278-0.696 0.452-1.113 0.452s-0.835-0.174-1.113-0.452c-0.278-0.278-0.452-0.696-0.452-1.113s0.174-0.8 0.452-1.113c0.278-0.278 0.696-0.452 1.113-0.452s0.835 0.174 1.113 0.452zM27.583 16.939c-0.417 0-0.8 0.174-1.113 0.452-0.278 0.278-0.452 0.696-0.452 1.113s0.174 0.835 0.452 1.113c0.278 0.278 0.696 0.452 1.113 0.452s0.835-0.174 1.113-0.452c0.278-0.278 0.452-0.696 0.452-1.113s-0.174-0.8-0.452-1.113c-0.278-0.278-0.696-0.452-1.113-0.452zM15.757 16.174h-0.974v-0.904c0-0.487-0.383-0.87-0.87-0.87s-0.87 0.383-0.87 0.87v0.904h-0.904c-0.487 0-0.87 0.383-0.87 0.87s0.383 0.87 0.87 0.87h0.904v0.904c0 0.487 0.383 0.87 0.87 0.87s0.87-0.383 0.87-0.87v-0.904h0.974c0.487 0 0.87-0.383 0.87-0.87s-0.383-0.87-0.87-0.87zM36 26.991c0 1.496-0.835 2.713-2.157 3.235-1.322 0.487-3.409 0.278-5.287-1.843-0.904-1.043-2.435-2.922-3.27-3.965-4.452 1.043-8.696 0.383-10.539 0-0.835 1.043-2.365 2.922-3.27 3.965-1.357 1.53-2.817 2.087-4.035 2.087-0.487 0-0.904-0.070-1.287-0.209-1.322-0.487-2.157-1.739-2.157-3.235 0-4.104 2.643-10.539 3.478-12.452-0.278-0.974-0.174-1.983 0.348-2.887 0.661-1.148 1.843-2.017 2.887-2.087 0.904-0.070 2.122 0.452 2.922 0.835 1.565-0.278 6.504-1.009 12.73 0 0.765-0.383 2.017-0.904 2.922-0.835 1.009 0.070 2.226 0.939 2.887 2.087 0.522 0.904 0.661 1.913 0.348 2.887 0.835 1.878 3.478 8.313 3.478 12.417zM33.217 26.991c0-4.139-3.443-11.791-3.478-11.861-0.174-0.383-0.174-0.835 0.035-1.217 0.139-0.278 0.139-0.522 0.035-0.765-0.174-0.417-0.591-0.73-0.765-0.8-0.313 0.035-1.148 0.383-1.809 0.73-0.278 0.139-0.591 0.209-0.904 0.139-7.13-1.252-12.591-0.035-12.626 0-0.313 0.070-0.661 0.035-0.974-0.139-0.661-0.348-1.496-0.696-1.809-0.73-0.174 0.104-0.591 0.383-0.765 0.8-0.104 0.278-0.104 0.487 0.035 0.765 0.174 0.383 0.209 0.835 0.035 1.217 0 0.070-3.443 7.722-3.443 11.861 0 0.313 0.139 0.522 0.348 0.626 0.487 0.174 1.357-0.104 2.226-1.078 1.217-1.391 3.722-4.522 3.757-4.557 0.348-0.452 0.939-0.626 1.461-0.452 0.070 0 5.496 1.53 10.817 0 0.139-0.035 0.243-0.070 0.383-0.070 0.417 0 0.835 0.174 1.078 0.522 0.035 0.035 2.539 3.165 3.757 4.557 0.87 1.009 1.739 1.287 2.226 1.078 0.243-0.104 0.383-0.313 0.383-0.626z"></path>
</svg>
