<!-- Generated by IcoMoon.io -->
<svg version="1.1" xmlns="http://www.w3.org/2000/svg" width="40" height="40" viewBox="0 0 40 40">
<title>di-gear</title>
<path d="M20 26.713c-3.687 0-6.713-2.991-6.713-6.713 0-3.687 2.991-6.713 6.713-6.713 3.687 0 6.713 2.991 6.713 6.713 0 3.687-3.026 6.713-6.713 6.713zM20 15.757c-2.33 0-4.243 1.913-4.243 4.243s1.913 4.243 4.243 4.243c2.33 0 4.243-1.913 4.243-4.243s-1.913-4.243-4.243-4.243zM20 36h-0.174c-1.217 0-2.261-0.139-2.33-0.139-0.557-0.070-0.974-0.487-1.078-1.043l-0.348-2.504c-0.765-0.243-1.496-0.557-2.191-0.939l-1.948 1.496c-0.452 0.348-1.043 0.313-1.496 0-0.035-0.035-0.87-0.696-1.739-1.53l-0.139-0.139c-0.87-0.87-1.496-1.704-1.53-1.739-0.348-0.452-0.348-1.043 0-1.496l1.53-2.017c-0.383-0.696-0.661-1.461-0.904-2.226l-2.435-0.348c-0.557-0.070-0.974-0.522-1.043-1.078-0.035-0.035-0.174-1.078-0.174-2.296v-0.174c0-1.217 0.139-2.261 0.139-2.33 0.070-0.557 0.487-0.974 1.043-1.078l2.504-0.348c0.243-0.765 0.557-1.496 0.939-2.191l-1.496-1.948c-0.348-0.452-0.313-1.043 0-1.496 0.035-0.035 0.696-0.87 1.53-1.739l0.139-0.139c0.87-0.87 1.704-1.496 1.739-1.53 0.452-0.348 1.043-0.348 1.496 0l2.017 1.53c0.696-0.383 1.461-0.661 2.226-0.904l0.348-2.435c0.070-0.557 0.522-0.974 1.078-1.043 0.035-0.035 1.078-0.174 2.296-0.174h0.174c1.217 0 2.261 0.139 2.33 0.139 0.557 0.070 0.974 0.487 1.078 1.043l0.348 2.504c0.765 0.243 1.496 0.557 2.191 0.939l1.948-1.496c0.452-0.348 1.043-0.313 1.496 0 0.035 0.035 0.87 0.696 1.739 1.53l0.139 0.139c0.87 0.87 1.496 1.704 1.53 1.739 0.348 0.452 0.348 1.043 0 1.496l-1.496 2.017c0.383 0.696 0.661 1.461 0.904 2.226l2.435 0.348c0.557 0.070 0.974 0.522 1.043 1.078 0 0.035 0.139 1.113 0.139 2.33v0.174c0 1.217-0.139 2.261-0.139 2.33-0.070 0.557-0.487 0.974-1.043 1.078l-2.504 0.348c-0.243 0.765-0.557 1.496-0.939 2.191l1.496 1.983c0.348 0.452 0.313 1.043 0 1.496-0.035 0.035-0.696 0.87-1.53 1.739l-0.139 0.139c-0.87 0.87-1.704 1.496-1.739 1.53-0.452 0.348-1.043 0.348-1.496 0l-2.017-1.565c-0.696 0.383-1.461 0.661-2.226 0.904l-0.348 2.435c-0.070 0.557-0.522 0.974-1.078 1.043-0.035 0-1.078 0.139-2.296 0.139zM18.748 33.496c0.313 0.035 0.696 0.035 1.078 0.035h0.174c0.383 0 0.765 0 1.078-0.035l0.313-2.296c0.070-0.522 0.452-0.904 0.939-1.043 1.078-0.243 2.122-0.661 3.061-1.252 0.278-0.174 0.626-0.209 0.939-0.139 0.174 0.035 0.348 0.139 0.487 0.243l1.843 1.391c0.243-0.209 0.522-0.452 0.8-0.73l0.139-0.139c0.278-0.278 0.522-0.557 0.73-0.8l-1.391-1.843c-0.313-0.417-0.313-0.974-0.070-1.391 0.591-0.904 1.009-1.913 1.252-2.957 0.104-0.522 0.522-0.939 1.043-1.009l2.33-0.313c0.035-0.313 0.035-0.696 0.035-1.078v-0.139c0-0.383 0-0.765-0.035-1.078l-2.296-0.313c-0.487-0.070-0.904-0.452-1.043-0.939-0.243-1.078-0.661-2.087-1.217-3.026-0.070-0.070-0.104-0.174-0.139-0.278-0.139-0.383-0.070-0.835 0.174-1.148l1.426-1.878c-0.209-0.243-0.452-0.522-0.73-0.8l-0.139-0.139c-0.278-0.278-0.557-0.522-0.8-0.73l-1.843 1.391c-0.452 0.313-1.043 0.313-1.461 0-0.904-0.557-1.913-0.974-2.957-1.252-0.487-0.104-0.87-0.522-0.939-1.043l-0.313-2.33c-0.313-0.035-0.696-0.035-1.078-0.035h-0.139c-0.383 0-0.765 0-1.078 0.035l-0.313 2.365c-0.070 0.557-0.487 0.974-1.043 1.043-1.043 0.243-2.052 0.661-2.957 1.217-0.278 0.174-0.626 0.209-0.939 0.139-0.174-0.035-0.348-0.139-0.487-0.243l-1.809-1.391c-0.243 0.209-0.522 0.452-0.8 0.73l-0.139 0.139c-0.278 0.278-0.522 0.557-0.73 0.8l1.391 1.843c0.313 0.417 0.313 0.939 0.070 1.391-0.035 0.035-0.035 0.070-0.070 0.104-0.557 0.904-0.974 1.913-1.217 2.957-0.104 0.487-0.522 0.87-1.043 0.939l-2.33 0.313c-0.035 0.313-0.035 0.696-0.035 1.078v0.139c0 0.383 0 0.765 0.035 1.078l2.296 0.313c0.557 0.070 0.974 0.487 1.043 1.043 0 0 0 0.035 0 0.035 0.243 1.043 0.661 2.017 1.217 2.922 0.174 0.313 0.243 0.696 0.104 1.043-0.035 0.139-0.139 0.278-0.243 0.417l-1.357 1.809c0.209 0.243 0.452 0.522 0.73 0.8l0.139 0.139c0.278 0.278 0.557 0.522 0.8 0.73l1.843-1.391c0.452-0.348 1.113-0.313 1.53 0.035 0.904 0.557 1.878 0.939 2.887 1.217 0.487 0.104 0.87 0.522 0.939 1.043l0.313 2.261z"></path>
</svg>
