<!-- Generated by IcoMoon.io -->
<svg version="1.1" xmlns="http://www.w3.org/2000/svg" width="40" height="40" viewBox="0 0 40 40">
<title>di-location</title>
<path d="M27.791 6.748c-1.983-1.774-4.765-2.748-7.791-2.748s-5.809 0.974-7.791 2.748c-2.435 2.157-3.687 5.391-3.687 9.426 0 8.73 10.052 18.991 10.504 19.409 0.278 0.278 0.626 0.417 0.974 0.417s0.73-0.139 0.974-0.417c0.452-0.417 10.504-10.678 10.504-19.409 0-4.035-1.252-7.27-3.687-9.426zM20 32.557c-0.939-1.043-2.435-2.783-3.896-4.87-3.13-4.452-4.8-8.417-4.8-11.513 0-8.696 6.643-9.391 8.696-9.391 8.070 0 8.696 7.2 8.696 9.391 0 6.122-6.226 13.67-8.696 16.383zM20 10.017c-3.061 0-5.53 2.539-5.53 5.635s2.47 5.6 5.53 5.6c3.061 0 5.53-2.539 5.53-5.635s-2.47-5.6-5.53-5.6zM20 18.817c-1.704 0-3.096-1.426-3.096-3.2s1.391-3.2 3.096-3.2c1.704 0 3.096 1.426 3.096 3.2s-1.391 3.2-3.096 3.2z"></path>
</svg>
