<!-- Generated by IcoMoon.io -->
<svg version="1.1" xmlns="http://www.w3.org/2000/svg" width="40" height="40" viewBox="0 0 40 40">
<title>di-lock-open</title>
<path d="M29.391 15.478h-14.957v-2.4c0-3.548 2.261-5.948 5.496-5.948 2.365 0 4.243 1.217 5.043 3.374 0.278 0.73 1.078 1.078 1.809 0.8s1.078-1.078 0.8-1.809c-1.183-3.2-4.104-5.148-7.652-5.148-4.835 0-8.278 3.583-8.278 8.73v2.4h-1.043c-0.765 0-1.391 0.626-1.391 1.391v17.391c0 0.765 0.626 1.391 1.391 1.391h18.783c0.765 0 1.391-0.626 1.391-1.391v-17.391c0-0.765-0.626-1.391-1.391-1.391zM28 32.87h-16v-14.609h16v14.609z"></path>
</svg>
