<!-- Generated by IcoMoon.io -->
<svg version="1.1" xmlns="http://www.w3.org/2000/svg" width="40" height="40" viewBox="0 0 40 40">
<title>di-message</title>
<path d="M34.609 6.087h-29.217c-0.765 0-1.391 0.626-1.391 1.391v17.774c0 0.765 0.626 1.357 1.391 1.357h16.348v5.913c0 0.591 0.452 1.113 0.974 1.322 0.174 0.070 0.348 0.070 0.522 0.070 0.417 0 0.8-0.174 1.078-0.487l5.774-6.817h4.522c0.765 0 1.391-0.591 1.391-1.357v-17.774c0-0.765-0.626-1.391-1.391-1.391zM33.217 23.826h-3.757c-0.417 0-0.87 0.209-1.148 0.487l-3.791 4.417v-3.478c0-0.765-0.487-1.426-1.252-1.426h-16.487v-14.957h26.435v14.957zM10.47 13.739c0-0.765 0.626-1.391 1.391-1.391h10.087c0.765 0 1.391 0.626 1.391 1.391s-0.626 1.391-1.391 1.391h-10.087c-0.765 0-1.391-0.626-1.391-1.391zM25.739 14.817c-0.243-0.243-0.417-0.626-0.417-0.974 0-0.383 0.139-0.73 0.417-0.974 0.278-0.278 0.626-0.417 0.974-0.417 0.383 0 0.73 0.139 0.974 0.417 0.243 0.243 0.417 0.626 0.417 0.974 0 0.383-0.139 0.73-0.417 0.974-0.278 0.278-0.626 0.417-0.974 0.417-0.348-0.035-0.696-0.174-0.974-0.417z"></path>
</svg>
