<!-- Generated by IcoMoon.io -->
<svg version="1.1" xmlns="http://www.w3.org/2000/svg" width="40" height="40" viewBox="0 0 40 40">
<title>di-pamphlet</title>
<path d="M32.383 5.043c-0.348-0.209-0.765-0.243-1.113-0.070l-7.339 3.443-7.374-3.443c-0.035 0-0.035 0-0.070-0.035s-0.104-0.035-0.139-0.035c-0.035 0-0.104-0.035-0.139-0.035s-0.104 0-0.139 0c-0.035 0-0.104 0-0.139 0s-0.104 0-0.139 0.035c-0.035 0-0.104 0.035-0.139 0.035s-0.035 0-0.070 0.035l-8 3.687c-0.452 0.209-0.8 0.626-0.8 1.113v24.139c0 0.417 0.313 0.8 0.661 1.043 0.209 0.139 0.452 0.174 0.696 0.174 0.174 0 0.383-0.035 0.522-0.104l7.374-3.443 7.374 3.443c0 0 0 0 0 0 0.070 0.035 0.139 0.070 0.209 0.070 0.035 0 0.035 0 0.070 0 0.070 0 0.139 0.035 0.243 0.035s0.139 0 0.243-0.035c0.035 0 0.035 0 0.070 0 0.070-0.035 0.139-0.035 0.209-0.070 0 0 0 0 0 0l7.791-3.687c0.417-0.209 0.626-0.626 0.626-1.113v-24.139c0-0.417-0.139-0.8-0.487-1.043zM22.783 32l-5.565-2.539v-21.461l5.565 2.539v21.461zM9.217 10.539l5.565-2.539v21.461l-5.565 2.539v-21.461zM30.435 29.461l-5.217 2.539v-21.461l5.217-2.539v21.461z"></path>
</svg>
