<!-- Generated by IcoMoon.io -->
<svg version="1.1" xmlns="http://www.w3.org/2000/svg" width="40" height="40" viewBox="0 0 40 40">
<title>di-ticket</title>
<path d="M13.461 18.678l7.861 7.861c0.313 0.313 0.73 0.487 1.148 0.487s0.835-0.174 1.148-0.487l2.922-2.922c0.313-0.313 0.487-0.696 0.487-1.148 0-0.417-0.174-0.835-0.487-1.148l-7.861-7.861c-0.313-0.313-0.696-0.487-1.148-0.487-0.417 0-0.835 0.174-1.148 0.487l-2.922 2.922c-0.626 0.626-0.626 1.67 0 2.296zM17.53 15.27l7.2 7.2-2.261 2.261-7.2-7.2 2.261-2.261zM35.583 23.304l-18.887-18.887c-0.557-0.557-1.426-0.557-1.983 0l-2.643 2.643c-0.383 0.383-0.522 0.974-0.313 1.496 0.383 0.939 0.139 1.983-0.557 2.678s-1.739 0.904-2.678 0.557c-0.522-0.209-1.113-0.070-1.496 0.313l-2.643 2.643c-0.243 0.243-0.383 0.626-0.383 0.974 0 0.383 0.139 0.73 0.417 0.974l18.887 18.887c0.278 0.278 0.626 0.417 0.974 0.417 0.383 0 0.73-0.139 0.974-0.417l2.643-2.643c0.383-0.383 0.522-0.974 0.313-1.496-0.383-0.939-0.139-1.983 0.557-2.678s1.739-0.904 2.678-0.557c0.522 0.209 1.113 0.070 1.496-0.313l2.643-2.643c0.557-0.557 0.557-1.426 0-1.948zM31.548 25.357c-1.704-0.348-3.513 0.174-4.765 1.461-1.252 1.252-1.774 3.061-1.461 4.765l-1.078 1.078-16.87-16.939 1.078-1.078c1.704 0.348 3.513-0.174 4.765-1.461 1.252-1.252 1.774-3.061 1.461-4.765l1.078-1.078 16.904 16.904-1.113 1.113z"></path>
</svg>
