<!-- Generated by IcoMoon.io -->
<svg version="1.1" xmlns="http://www.w3.org/2000/svg" width="40" height="40" viewBox="0 0 40 40">
<title>di-upload</title>
<path d="M34.957 24.452v9.461c0 0.974-0.765 1.739-1.739 1.739h-26.435c-0.974 0-1.739-0.765-1.739-1.739v-9.461c0-0.974 0.765-1.739 1.739-1.739s1.739 0.765 1.739 1.739v7.722h22.957v-7.722c0-0.974 0.765-1.739 1.739-1.739s1.739 0.765 1.739 1.739zM14.296 14.4l3.965-4.070v15.061c0 0.974 0.765 1.739 1.739 1.739s1.739-0.765 1.739-1.739v-15.026l3.965 4.035c0.348 0.348 0.8 0.522 1.252 0.522s0.87-0.174 1.217-0.487c0.696-0.661 0.696-1.774 0.035-2.47l-6.957-7.096c-0.348-0.348-0.8-0.522-1.252-0.522s-0.904 0.174-1.252 0.522l-6.922 7.096c-0.661 0.696-0.661 1.774 0.035 2.47 0.661 0.661 1.774 0.626 2.435-0.035z"></path>
</svg>
