<!-- Generated by IcoMoon.io -->
<svg version="1.1" xmlns="http://www.w3.org/2000/svg" width="40" height="40" viewBox="0 0 40 40">
<title>di-zoom-out</title>
<path d="M35.548 33.322l-12.104-11.93c1.461-1.843 2.296-4.139 2.296-6.609 0-5.948-4.87-10.783-10.887-10.783s-10.852 4.835-10.852 10.783 4.87 10.783 10.887 10.783c2.365 0 4.522-0.73 6.296-2.017l12.174 12c0.313 0.313 0.696 0.452 1.078 0.452 0.417 0 0.8-0.139 1.113-0.452 0.591-0.626 0.591-1.6 0-2.226zM6.783 14.783c0-4.417 3.617-8 8.104-8s8.104 3.583 8.104 8-3.652 8-8.104 8-8.104-3.617-8.104-8zM20.313 14.957c0 0.661-0.557 1.217-1.217 1.217h-8.452c-0.661 0-1.217-0.557-1.217-1.217s0.557-1.217 1.217-1.217h8.452c0.696 0 1.217 0.557 1.217 1.217z"></path>
</svg>
