<!-- Generated by IcoMoon.io -->
<svg version="1.1" xmlns="http://www.w3.org/2000/svg" width="24" height="24" viewBox="0 0 24 24">
<title>dialpad</title>
<path d="M12 3.188q0.638 0 1.125 0.488t0.487 1.125-0.487 1.125-1.125 0.487-1.125-0.487-0.488-1.125 0.488-1.125 1.125-0.488zM12 7.988q0.638 0 1.125 0.488t0.487 1.125-0.487 1.125-1.125 0.487-1.125-0.487-0.488-1.125 0.488-1.125 1.125-0.488zM16.8 7.988q0.638 0 1.125 0.488t0.488 1.125-0.488 1.125-1.125 0.487-1.125-0.487-0.487-1.125 0.487-1.125 1.125-0.488zM16.8 12.788q0.638 0 1.125 0.487t0.488 1.125-0.488 1.125-1.125 0.488-1.125-0.488-0.487-1.125 0.487-1.125 1.125-0.487zM12 12.788q0.638 0 1.125 0.487t0.487 1.125-0.487 1.125-1.125 0.488-1.125-0.488-0.488-1.125 0.488-1.125 1.125-0.487zM16.8 6.413q-0.637 0-1.125-0.487t-0.487-1.125 0.487-1.125 1.125-0.488 1.125 0.488 0.488 1.125-0.488 1.125-1.125 0.487zM7.2 12.788q0.638 0 1.125 0.487t0.488 1.125-0.488 1.125-1.125 0.488-1.125-0.488-0.487-1.125 0.487-1.125 1.125-0.487zM7.2 7.988q0.638 0 1.125 0.488t0.488 1.125-0.488 1.125-1.125 0.487-1.125-0.487-0.487-1.125 0.487-1.125 1.125-0.488zM7.2 3.188q0.638 0 1.125 0.488t0.488 1.125-0.488 1.125-1.125 0.487-1.125-0.487-0.487-1.125 0.487-1.125 1.125-0.488zM12 17.587q0.638 0 1.125 0.488t0.487 1.125-0.487 1.125-1.125 0.487-1.125-0.487-0.488-1.125 0.488-1.125 1.125-0.488z"></path>
</svg>
