<!-- Generated by IcoMoon.io -->
<svg version="1.1" xmlns="http://www.w3.org/2000/svg" width="24" height="24" viewBox="0 0 24 24">
<title>directions_ferry</title>
<path d="M7.2 7.2v3.188l4.8-1.575 4.8 1.575v-3.188h-9.6zM5.55 17.587l-1.5-5.325q-0.038-0.075-0.038-0.263 0-0.525 0.563-0.75l1.013-0.337v-3.713q0-0.637 0.488-1.125t1.125-0.488h2.4v-2.4h4.8v2.4h2.4q0.638 0 1.125 0.488t0.488 1.125v3.713l1.012 0.337q0.788 0.262 0.525 1.013l-1.5 5.325h-0.038q-1.837 0-3.225-1.575-1.388 1.575-3.188 1.575t-3.188-1.575q-1.387 1.575-3.225 1.575h-0.037zM18.413 19.2h1.575v1.612h-1.575q-1.688 0-3.225-0.788-1.5 0.75-3.188 0.75t-3.188-0.75q-1.538 0.788-3.225 0.788h-1.575v-1.612h1.575q1.725 0 3.225-1.050 1.462 1.012 3.188 1.012t3.188-1.012q1.5 1.050 3.225 1.050z"></path>
</svg>
