<!-- Generated by IcoMoon.io -->
<svg version="1.1" xmlns="http://www.w3.org/2000/svg" width="24" height="24" viewBox="0 0 24 24">
<title>directions_bike</title>
<path d="M17.587 18.788q1.163 0 1.988-0.806t0.825-1.969-0.825-1.988-1.988-0.825-1.969 0.825-0.806 1.988 0.806 1.969 1.969 0.806zM17.587 12q1.688 0 2.85 1.163t1.163 2.85-1.163 2.831-2.85 1.144-2.831-1.144-1.144-2.831 1.144-2.85 2.831-1.163zM11.025 10.8l1.763 1.838v4.95h-1.575v-3.975l-2.588-2.25q-0.45-0.3-0.45-1.125 0-0.675 0.45-1.125l2.25-2.25q0.3-0.45 1.125-0.45 0.712 0 1.275 0.45l1.538 1.538q1.2 1.2 2.85 1.2v1.613q-2.363 0-4.050-1.688l-0.638-0.637zM6.413 18.788q1.163 0 1.969-0.806t0.806-1.969-0.806-1.988-1.969-0.825-1.987 0.825-0.825 1.988 0.825 1.969 1.987 0.806zM6.413 12q1.688 0 2.831 1.163t1.144 2.85-1.144 2.831-2.831 1.144-2.85-1.144-1.163-2.831 1.163-2.85 2.85-1.163zM14.813 6.788q-0.638 0-1.125-0.469t-0.487-1.106 0.487-1.125 1.125-0.487 1.106 0.487 0.469 1.125-0.469 1.106-1.106 0.469z"></path>
</svg>
