<!-- Generated by IcoMoon.io -->
<svg version="1.1" xmlns="http://www.w3.org/2000/svg" width="24" height="24" viewBox="0 0 24 24">
<title>edit_location</title>
<path d="M14.325 8.438q0.225-0.188 0-0.413l-0.75-0.75q-0.075-0.075-0.188-0.075-0.15 0-0.225 0.075l-0.563 0.563 1.162 1.163zM10.762 12l2.662-2.663-1.162-1.162-2.663 2.662v1.163h1.163zM12 4.012q2.325 0 3.956 1.631t1.631 3.956q0 1.162-0.581 2.662t-1.406 2.813-1.631 2.456-1.369 1.819l-0.6 0.637q-0.225-0.262-0.6-0.694t-1.35-1.725-1.706-2.513-1.331-2.756-0.6-2.7q0-2.325 1.631-3.956t3.956-1.631z"></path>
</svg>
