<!-- Generated by IcoMoon.io -->
<svg version="1.1" xmlns="http://www.w3.org/2000/svg" width="40" height="40" viewBox="0 0 40 40">
<title>el-dial</title>
<path d="M19.999 15c-2.729 0-4.971 2.22-4.999 4.949-0.028 2.757 2.192 5.022 4.949 5.051 0.001 0 0.050 0 0.052 0 2.729 0 4.971-2.22 4.999-4.949 0.028-2.757-2.192-5.023-5.001-5.051zM20.001 24v0.5l-0.042-0.5c-2.205-0.022-3.981-1.835-3.959-4.041 0.022-2.183 1.816-3.959 4.041-3.959 2.205 0.022 3.981 1.835 3.959 4.041-0.022 2.183-1.816 3.959-3.999 3.959z"></path>
<path d="M6 20c0 0.552-0.448 1-1 1s-1-0.448-1-1c0-0.552 0.448-1 1-1s1 0.448 1 1z"></path>
<path d="M36 20c0 0.552-0.448 1-1 1s-1-0.448-1-1c0-0.552 0.448-1 1-1s1 0.448 1 1z"></path>
<path d="M21 5c0 0.552-0.448 1-1 1s-1-0.448-1-1c0-0.552 0.448-1 1-1s1 0.448 1 1z"></path>
<path d="M21 35c0 0.552-0.448 1-1 1s-1-0.448-1-1c0-0.552 0.448-1 1-1s1 0.448 1 1z"></path>
<path d="M10 9c0 0.552-0.448 1-1 1s-1-0.448-1-1c0-0.552 0.448-1 1-1s1 0.448 1 1z"></path>
<path d="M32 31c0 0.552-0.448 1-1 1s-1-0.448-1-1c0-0.552 0.448-1 1-1s1 0.448 1 1z"></path>
<path d="M32 9c0 0.552-0.448 1-1 1s-1-0.448-1-1c0-0.552 0.448-1 1-1s1 0.448 1 1z"></path>
<path d="M10 31c0 0.552-0.448 1-1 1s-1-0.448-1-1c0-0.552 0.448-1 1-1s1 0.448 1 1z"></path>
<path d="M28 20.076v-7.576c0-0.276-0.224-0.5-0.5-0.5h-7.501c-4.366 0-7.954 3.552-7.999 7.919-0.021 2.137 0.79 4.154 2.286 5.681s3.496 2.379 5.633 2.4c0.001 0 0.081 0 0.083 0 0 0 0 0 0 0 4.365 0 7.953-3.552 7.998-7.924zM20.001 27v0.5l-0.072-0.5c-1.87-0.019-3.62-0.765-4.929-2.101s-2.019-3.101-2-4.971c0.039-3.82 3.178-6.928 7.076-6.928v0h6.924v7.071c-0.039 3.821-3.179 6.93-6.999 6.929z"></path>
</svg>
