<!-- Generated by IcoMoon.io -->
<svg version="1.1" xmlns="http://www.w3.org/2000/svg" width="43" height="40" viewBox="0 0 43 40">
<title>el-documents</title>
<path d="M5.512 32h17.988c0.827 0 1.5-0.673 1.5-1.5v-19c0-0.023-0.010-0.043-0.013-0.065s-0.007-0.041-0.013-0.062c-0.023-0.086-0.060-0.166-0.122-0.227l-6.999-6.999c-0.061-0.061-0.141-0.098-0.227-0.122-0.021-0.006-0.040-0.010-0.062-0.013-0.021-0.002-0.041-0.012-0.064-0.012h-11.994c-0.83 0-1.506 0.673-1.506 1.5v25c0 0.827 0.678 1.5 1.512 1.5zM18 5.707l5.293 5.293h-4.793c-0.275 0-0.5-0.224-0.5-0.5v-4.793zM5 5.5c0-0.276 0.227-0.5 0.506-0.5h11.494v5.5c0 0.827 0.673 1.5 1.5 1.5h5.5v18.5c0 0.276-0.225 0.5-0.5 0.5h-17.988c-0.283 0-0.512-0.224-0.512-0.5v-25z"></path>
<path d="M8.5 16h12c0.276 0 0.5-0.224 0.5-0.5s-0.224-0.5-0.5-0.5h-12c-0.276 0-0.5 0.224-0.5 0.5s0.224 0.5 0.5 0.5z"></path>
<path d="M8.5 20h12c0.276 0 0.5-0.224 0.5-0.5s-0.224-0.5-0.5-0.5h-12c-0.276 0-0.5 0.224-0.5 0.5s0.224 0.5 0.5 0.5z"></path>
<path d="M8.5 12h5c0.276 0 0.5-0.224 0.5-0.5s-0.224-0.5-0.5-0.5h-5c-0.276 0-0.5 0.224-0.5 0.5s0.224 0.5 0.5 0.5z"></path>
<path d="M8.5 24h12c0.276 0 0.5-0.224 0.5-0.5s-0.224-0.5-0.5-0.5h-12c-0.276 0-0.5 0.224-0.5 0.5s0.224 0.5 0.5 0.5z"></path>
<path d="M8.5 28h12c0.276 0 0.5-0.224 0.5-0.5s-0.224-0.5-0.5-0.5h-12c-0.276 0-0.5 0.224-0.5 0.5s0.224 0.5 0.5 0.5z"></path>
<path d="M25.5 9h4.5v5.5c0 0.827 0.673 1.5 1.5 1.5h5.5v18.5c0 0.276-0.225 0.5-0.5 0.5h-17.988c-0.283 0-0.512-0.224-0.512-0.5v-1c0-0.276-0.224-0.5-0.5-0.5s-0.5 0.224-0.5 0.5v1c0 0.827 0.678 1.5 1.512 1.5h17.988c0.827 0 1.5-0.673 1.5-1.5v-19c0-0.023-0.010-0.043-0.013-0.065s-0.007-0.041-0.013-0.062c-0.023-0.086-0.060-0.166-0.122-0.227l-6.999-6.999c-0.061-0.062-0.142-0.099-0.228-0.122-0.021-0.006-0.039-0.009-0.061-0.012-0.021-0.003-0.041-0.013-0.064-0.013h-5c-0.276 0-0.5 0.224-0.5 0.5s0.224 0.5 0.5 0.5zM31.5 15c-0.275 0-0.5-0.224-0.5-0.5v-4.793l5.293 5.293h-4.793z"></path>
<path d="M27.5 20h6c0.276 0 0.5-0.224 0.5-0.5s-0.224-0.5-0.5-0.5h-6c-0.276 0-0.5 0.224-0.5 0.5s0.224 0.5 0.5 0.5z"></path>
<path d="M27.5 24h6c0.276 0 0.5-0.224 0.5-0.5s-0.224-0.5-0.5-0.5h-6c-0.276 0-0.5 0.224-0.5 0.5s0.224 0.5 0.5 0.5z"></path>
<path d="M27.5 28h6c0.276 0 0.5-0.224 0.5-0.5s-0.224-0.5-0.5-0.5h-6c-0.276 0-0.5 0.224-0.5 0.5s0.224 0.5 0.5 0.5z"></path>
<path d="M27.5 32h6c0.276 0 0.5-0.224 0.5-0.5s-0.224-0.5-0.5-0.5h-6c-0.276 0-0.5 0.224-0.5 0.5s0.224 0.5 0.5 0.5z"></path>
</svg>
