<!-- Generated by IcoMoon.io -->
<svg version="1.1" xmlns="http://www.w3.org/2000/svg" width="40" height="40" viewBox="0 0 40 40">
<title>el-edit</title>
<path d="M5.5 36h29c0.827 0 1.5-0.673 1.5-1.5v-29c0-0.827-0.673-1.5-1.5-1.5h-29c-0.827 0-1.5 0.673-1.5 1.5v29c0 0.827 0.673 1.5 1.5 1.5zM5 5.5c0-0.276 0.225-0.5 0.5-0.5h29c0.275 0 0.5 0.224 0.5 0.5v29c0 0.276-0.225 0.5-0.5 0.5h-29c-0.275 0-0.5-0.224-0.5-0.5v-29z"></path>
<path d="M8 32.479c0.048 0 0.096-0.007 0.143-0.021l10-2.979c0.081-0.024 0.154-0.068 0.213-0.127l10.090-10.205c0.023-0.024 0.035-0.053 0.052-0.080l3.658-3.658c0.607-0.607 0.607-1.595 0-2.203l-5.236-5.234c-0.607-0.607-1.595-0.608-2.202 0l-3.739 3.739c-0.024 0.024-0.036 0.054-0.054 0.081l-10.118 10.119c-0.056 0.056-0.098 0.124-0.122 0.199l-3.16 9.715c-0.058 0.177-0.012 0.371 0.117 0.504 0.095 0.097 0.225 0.15 0.358 0.15zM21.359 12.771l1.040 1.040-8.523 8.563-1.727-0.392 9.21-9.211zM14.5 23.165l8.607-8.646 2.434 2.434-8.745 8.547h-2.296v-2.335zM27.385 18.797l-9.246 9.352-0.576-1.999 8.684-8.489 1.138 1.136zM11.493 22.859l2.007 0.456v2.685c0 0.276 0.224 0.5 0.5 0.5h2.624l0.633 2.2-8.487 2.528 2.723-8.369zM25.425 8.679c0.218-0.217 0.572-0.216 0.788 0l5.235 5.235c0.218 0.217 0.218 0.571 0 0.789l-3.372 3.372-6.023-6.023 3.372-3.373z"></path>
</svg>
