<!-- Generated by IcoMoon.io -->
<svg version="1.1" xmlns="http://www.w3.org/2000/svg" width="24" height="24" viewBox="0 0 24 24">
<title>electric_scooter</title>
<path d="M8.663 15.188h5.738v-0.788q0-0.9 0.431-1.612t1.163-1.144 1.594-0.431h0.6l-1.5-6.75q-0.15-0.562-0.581-0.919t-0.994-0.356h-3.112v1.613h3.112l1.125 4.987q-1.313 0.413-2.231 1.425t-1.144 2.4h-4.2q-0.3-0.825-1.050-1.294t-1.688-0.281q-0.713 0.15-1.238 0.675t-0.637 1.238q-0.15 0.75 0.15 1.406t0.881 1.050 1.331 0.394 1.369-0.45 0.881-1.162zM6.413 15.188q-0.337 0-0.581-0.225t-0.244-0.563 0.244-0.563 0.581-0.225q0.3 0 0.544 0.225t0.244 0.563-0.244 0.563-0.544 0.225zM17.587 12q-0.637 0-1.181 0.319t-0.881 0.862-0.337 1.219 0.337 1.219 0.881 0.863 1.181 0.319q0.675 0 1.219-0.319t0.863-0.863 0.319-1.219-0.319-1.219-0.863-0.862-1.219-0.319zM17.587 15.188q-0.3 0-0.544-0.225t-0.244-0.563 0.244-0.563 0.544-0.225q0.337 0 0.581 0.225t0.244 0.563-0.244 0.563-0.581 0.225zM11.212 18.413h-3.225l4.8 2.4v-1.612h3.225l-4.8-2.4v1.613z"></path>
</svg>
