<!-- Generated by IcoMoon.io -->
<svg version="1.1" xmlns="http://www.w3.org/2000/svg" width="24" height="24" viewBox="0 0 24 24">
<title>emoji_transportation</title>
<path d="M6.413 17.587h1.575v1.613h-1.575v-1.613zM6.413 14.4h1.575v1.613h-1.575v-1.613zM10.387 6.413h1.613v1.575h-1.613v-1.575zM6.413 11.212h1.575v1.575h-1.575v-1.575zM13.612 9.6v-4.013h-4.8v4.013h-4.012v9.6h-0.787v-10.388h3.975v-4.013h6.412v4.8h-0.787zM18.413 16.013q0.337 0 0.563-0.244t0.225-0.581-0.225-0.563-0.563-0.225-0.581 0.225-0.244 0.563 0.244 0.581 0.581 0.244zM12 16.013q0.337 0 0.563-0.244t0.225-0.581-0.225-0.563-0.563-0.225-0.563 0.225-0.225 0.563 0.225 0.581 0.563 0.244zM12.337 11.212l-0.825 2.4h7.387l-0.825-2.4h-5.738zM18.862 10.913l1.125 3.3v4.425q0 0.225-0.169 0.394t-0.394 0.169h-0.487q-0.225 0-0.375-0.188t-0.15-0.413v-1.013h-6.413v1.013q0 0.225-0.169 0.413t-0.394 0.188h-0.488q-0.525 0-0.525-0.563l-0.038-4.425 1.163-3.3q0.188-0.525 0.787-0.525h5.738q0.6 0 0.787 0.525z"></path>
</svg>
