<!-- Generated by IcoMoon.io -->
<svg version="1.1" xmlns="http://www.w3.org/2000/svg" width="24" height="24" viewBox="0 0 24 24">
<title>escalator_warning</title>
<path d="M7.613 4.012q0.637 0 1.106 0.469t0.469 1.106q0 0.675-0.469 1.144t-1.106 0.469q-0.675 0-1.144-0.469t-0.469-1.144q0-0.638 0.469-1.106t1.144-0.469zM14.813 10.012q0 0.488 0.337 0.844t0.863 0.356q0.487 0 0.844-0.356t0.356-0.844q0-0.525-0.356-0.863t-0.844-0.337q-0.525 0-0.863 0.337t-0.337 0.863zM17.212 12h-2.287q-0.338 0-0.656 0.188t-0.506 0.487l-0.713 1.088-2.887-4.95q-0.225-0.375-0.581-0.6t-0.769-0.225h-2.4q-0.675 0-1.144 0.469t-0.469 1.144v4.8h1.2v5.588h4.013v-8.288l2.025 3.487h1.763l0.6-0.862v5.663h3.188v-3.975h0.825v-2.813q0-0.487-0.356-0.844t-0.844-0.356z"></path>
</svg>
