<!-- Generated by IcoMoon.io -->
<svg version="1.1" xmlns="http://www.w3.org/2000/svg" width="24" height="24" viewBox="0 0 24 24">
<title>euro_symbol</title>
<path d="M14.4 17.212q1.913 0 3.375-1.275l1.425 1.425q-2.025 1.838-4.8 1.838-2.325 0-4.181-1.35t-2.606-3.45h-2.813v-1.612h2.438q-0.037-0.225-0.037-0.788t0.037-0.787h-2.438v-1.613h2.813q0.75-2.1 2.606-3.45t4.181-1.35q1.125 0 2.55 0.544t2.25 1.294l-1.425 1.425q-1.463-1.275-3.375-1.275-1.313 0-2.662 0.825t-1.95 1.988h4.613v1.613h-5.137q-0.075 0.525-0.075 0.787t0.075 0.787h5.137v1.612h-4.613q0.6 1.162 1.95 1.987t2.662 0.825z"></path>
</svg>
