<!-- Generated by IcoMoon.io -->
<svg version="1.1" xmlns="http://www.w3.org/2000/svg" width="24" height="24" viewBox="0 0 24 24">
<title>exposure_plus_2</title>
<path d="M8.813 7.988v3.225h3.188v1.575h-3.188v3.225h-1.613v-3.225h-3.188v-1.575h3.188v-3.225h1.613zM15.225 15.45h4.762v1.35h-6.9v-1.2l3.337-3.638q0.675-0.675 1.163-1.5 0.3-0.487 0.3-1.050 0-0.6-0.413-1.163-0.375-0.488-1.125-0.488-0.788 0-1.313 0.525-0.413 0.412-0.413 1.313h-1.725q0-1.35 0.9-2.25 0.525-0.525 1.087-0.713 0.675-0.225 1.5-0.225h0.038q2.212 0 2.962 1.65 0.225 0.488 0.225 1.163 0 0.9-0.6 1.875-0.45 0.75-0.638 0.938-0.525 0.6-0.862 0.938z"></path>
</svg>
