<!-- Generated by IcoMoon.io -->
<svg version="1.1" xmlns="http://www.w3.org/2000/svg" width="24" height="24" viewBox="0 0 24 24">
<title>filter_1</title>
<path d="M19.2 16.013v-11.213h-11.213v11.213h11.213zM19.2 3.188q0.637 0 1.125 0.488t0.487 1.125v11.213q0 0.637-0.487 1.106t-1.125 0.469h-11.213q-0.638 0-1.106-0.469t-0.469-1.106v-11.213q0-0.638 0.469-1.125t1.106-0.488h11.213zM13.612 14.4v-6.412h-1.613v-1.575h3.188v7.987h-1.575zM4.8 6.413v12.788h12.788v1.612h-12.788q-0.638 0-1.125-0.487t-0.488-1.125v-12.788h1.613z"></path>
</svg>
