<!-- Generated by IcoMoon.io -->
<svg version="1.1" xmlns="http://www.w3.org/2000/svg" width="24" height="24" viewBox="0 0 24 24">
<title>filter_8</title>
<path d="M12.788 11.212v1.575h1.612v-1.575h-1.612zM12.788 7.988v1.613h1.612v-1.613h-1.612zM12.788 14.4q-0.675 0-1.125-0.469t-0.45-1.144v-1.2q0-0.487 0.356-0.844t0.844-0.356q-0.488 0-0.844-0.356t-0.356-0.844v-1.2q0-0.675 0.45-1.125t1.125-0.45h1.612q0.675 0 1.144 0.45t0.469 1.125v1.2q0 0.487-0.356 0.844t-0.844 0.356q0.488 0 0.844 0.356t0.356 0.844v1.2q0 0.675-0.469 1.144t-1.144 0.469h-1.612zM19.2 16.013v-11.213h-11.213v11.213h11.213zM19.2 3.188q0.637 0 1.125 0.488t0.487 1.125v11.213q0 0.637-0.487 1.106t-1.125 0.469h-11.213q-0.638 0-1.106-0.469t-0.469-1.106v-11.213q0-0.638 0.469-1.125t1.106-0.488h11.213zM4.8 6.413v12.788h12.788v1.612h-12.788q-0.638 0-1.125-0.487t-0.488-1.125v-12.788h1.613z"></path>
</svg>
