<!-- Generated by IcoMoon.io -->
<svg version="1.1" xmlns="http://www.w3.org/2000/svg" width="24" height="24" viewBox="0 0 24 24">
<title>find_in_page</title>
<path d="M9.6 12.788q0-0.975 0.712-1.688t1.688-0.713 1.688 0.713 0.712 1.688-0.712 1.688-1.688 0.712-1.688-0.712-0.712-1.688zM18.413 18.075l-3.075-3.075q0.675-1.050 0.675-2.212 0-1.65-1.181-2.813t-2.831-1.163-2.831 1.163-1.181 2.813 1.181 2.831 2.831 1.181q1.162 0 2.212-0.675l3.525 3.563q-0.412 0.3-0.938 0.3h-9.6q-0.637 0-1.125-0.469t-0.488-1.106l0.038-12.825q0-0.637 0.469-1.106t1.106-0.469h6.412l4.8 4.8v9.262z"></path>
</svg>
