<!-- Generated by IcoMoon.io -->
<svg version="1.1" xmlns="http://www.w3.org/2000/svg" width="24" height="24" viewBox="0 0 24 24">
<title>fit_screen</title>
<path d="M16.8 8.813v6.375h-9.6v-6.375h9.6zM7.988 16.8v1.613h-2.4q-0.638 0-1.106-0.488t-0.469-1.125v-1.612h1.575v1.612h2.4zM18.413 15.188h1.575v1.612q0 0.638-0.469 1.125t-1.106 0.488h-2.4v-1.613h2.4v-1.612zM5.588 8.813h-1.575v-1.613q0-0.637 0.469-1.125t1.106-0.487h2.4v1.612h-2.4v1.613zM16.013 5.588h2.4q0.637 0 1.106 0.487t0.469 1.125v1.613h-1.575v-1.613h-2.4v-1.612z"></path>
</svg>
