<!-- Generated by IcoMoon.io -->
<svg version="1.1" xmlns="http://www.w3.org/2000/svg" width="24" height="24" viewBox="0 0 24 24">
<title>flaky</title>
<path d="M13.65 16.462v0l-1.95-1.912 0.863-0.862 1.087 1.087 1.988-1.987 0.825 0.862-2.813 2.813zM12 4.012q-1.65 0-3.094 0.619t-2.55 1.725-1.725 2.55-0.619 3.094 0.619 3.094 1.725 2.55 2.55 1.725 3.094 0.619 3.094-0.619 2.55-1.725 1.725-2.55 0.619-3.094-0.619-3.094-1.725-2.55-2.55-1.725-3.094-0.619zM8.288 7.425l1.125 1.125 1.125-1.125 0.825 0.863-1.125 1.125 1.125 1.125-0.825 0.825-1.125-1.125-1.125 1.125-0.863-0.825 1.125-1.125-1.125-1.125zM12 18.413q-1.313 0-2.494-0.506t-2.081-1.331l9.15-9.15q0.825 0.9 1.331 2.081t0.506 2.494-0.506 2.475-1.388 2.044-2.044 1.388-2.475 0.506z"></path>
</svg>
