<!-- Generated by IcoMoon.io -->
<svg version="1.1" xmlns="http://www.w3.org/2000/svg" width="24" height="24" viewBox="0 0 24 24">
<title>grid_on</title>
<path d="M18.413 8.813v-3.225h-3.225v3.225h3.225zM18.413 13.612v-3.225h-3.225v3.225h3.225zM18.413 18.413v-3.225h-3.225v3.225h3.225zM13.612 8.813v-3.225h-3.225v3.225h3.225zM13.612 13.612v-3.225h-3.225v3.225h3.225zM13.612 18.413v-3.225h-3.225v3.225h3.225zM8.813 8.813v-3.225h-3.225v3.225h3.225zM8.813 13.612v-3.225h-3.225v3.225h3.225zM8.813 18.413v-3.225h-3.225v3.225h3.225zM18.413 4.012q0.637 0 1.106 0.469t0.469 1.106v12.825q0 0.637-0.469 1.106t-1.106 0.469h-12.825q-0.638 0-1.106-0.469t-0.469-1.106v-12.825q0-0.638 0.469-1.106t1.106-0.469h12.825z"></path>
</svg>
