<!-- Generated by IcoMoon.io -->
<svg version="1.1" xmlns="http://www.w3.org/2000/svg" width="24" height="24" viewBox="0 0 24 24">
<title>group_work</title>
<path d="M15.188 16.388q0.825 0 1.425-0.581t0.6-1.406-0.6-1.406-1.425-0.581-1.406 0.581-0.581 1.406 0.581 1.406 1.406 0.581zM10.012 8.813q0 0.825 0.581 1.406t1.406 0.581 1.406-0.581 0.581-1.406-0.581-1.425-1.406-0.6-1.406 0.6-0.581 1.425zM8.813 16.388q0.825 0 1.406-0.581t0.581-1.406-0.581-1.406-1.406-0.581-1.425 0.581-0.6 1.406 0.6 1.406 1.425 0.581zM12 4.012q3.3 0 5.644 2.344t2.344 5.644-2.344 5.644-5.644 2.344-5.644-2.344-2.344-5.644 2.344-5.644 5.644-2.344z"></path>
</svg>
