<!-- Generated by IcoMoon.io -->
<svg version="1.1" xmlns="http://www.w3.org/2000/svg" width="24" height="24" viewBox="0 0 24 24">
<title>help</title>
<path d="M14.438 11.4q0.75-0.75 0.75-1.8 0-1.313-0.938-2.25t-2.25-0.938-2.25 0.938-0.938 2.25h1.575q0-0.638 0.488-1.125t1.125-0.488 1.125 0.488 0.487 1.125-0.487 1.125l-0.975 1.012q-0.938 1.013-0.938 2.25v0.412h1.575q0-1.237 0.938-2.25zM12.788 17.587v-1.575h-1.575v1.575h1.575zM12 4.012q3.3 0 5.644 2.344t2.344 5.644-2.344 5.644-5.644 2.344-5.644-2.344-2.344-5.644 2.344-5.644 5.644-2.344z"></path>
</svg>
