<!-- Generated by IcoMoon.io -->
<svg version="1.1" xmlns="http://www.w3.org/2000/svg" width="24" height="24" viewBox="0 0 24 24">
<title>history_edu</title>
<path d="M9.6 5.588v1.125q-1.013-0.413-2.1-0.413-1.050 0-2.081 0.413t-1.856 1.237l2.663 2.662h0.862v0.9q0.525 0.487 1.181 0.769t1.331 0.319v1.8h-2.4v2.4q0 0.675 0.469 1.144t1.144 0.469h7.987q0.675 0 1.219-0.337t0.863-0.881 0.319-1.181v-10.425h-9.6zM8.7 10.725v-1.725h-1.8l-0.862-0.825q0.712-0.263 1.462-0.263 1.65 0 2.85 1.163l1.125 1.125-0.15 0.15q-0.638 0.637-1.538 0.637-0.563 0-1.087-0.262zM17.587 16.013q0 0.3-0.225 0.544t-0.563 0.244-0.563-0.244-0.225-0.544v-1.613h-4.8v-2.063q0.712-0.3 1.238-0.825l0.15-0.15 2.288 2.25h1.125v-1.125l-4.8-4.8v-0.487h6.375v8.813z"></path>
</svg>
