<!-- Generated by IcoMoon.io -->
<svg version="1.1" xmlns="http://www.w3.org/2000/svg" width="24" height="24" viewBox="0 0 24 24">
<title>image_search</title>
<path d="M14.813 9.6q0.825 0 1.406-0.581t0.581-1.406-0.581-1.425-1.406-0.6-1.425 0.6-0.6 1.425 0.6 1.406 1.425 0.581zM17.85 9.525l2.475 2.475-1.125 1.125-2.513-2.475q-0.938 0.563-1.913 0.563-1.5 0-2.531-1.050t-1.031-2.55 1.050-2.55 2.55-1.050 2.55 1.050 1.050 2.55q0 0.975-0.563 1.912zM15.6 16.8h-8.813l2.212-2.812 1.575 1.875 2.175-2.813zM16.8 12.788l1.613 1.612v4.012q0 0.637-0.488 1.106t-1.125 0.469h-11.212q-0.638 0-1.106-0.469t-0.469-1.106v-11.212q0-0.638 0.469-1.125t1.106-0.487h4.425q-0.375 0.787-0.412 1.612h-4.013v11.212h11.212v-5.625z"></path>
</svg>
