<!-- Generated by IcoMoon.io -->
<svg version="1.1" xmlns="http://www.w3.org/2000/svg" width="24" height="24" viewBox="0 0 24 24">
<title>insert_emoticon</title>
<path d="M12 16.388q-1.387 0-2.494-0.769t-1.594-2.006h8.175q-0.487 1.238-1.594 2.006t-2.494 0.769zM9.188 11.212q-0.488 0-0.844-0.356t-0.356-0.844 0.356-0.844 0.844-0.356 0.844 0.356 0.356 0.844-0.356 0.844-0.844 0.356zM14.813 11.212q-0.487 0-0.844-0.356t-0.356-0.844 0.356-0.844 0.844-0.356 0.844 0.356 0.356 0.844-0.356 0.844-0.844 0.356zM12 18.413q2.625 0 4.519-1.894t1.894-4.519-1.894-4.519-4.519-1.894-4.519 1.894-1.894 4.519 1.894 4.519 4.519 1.894zM12 4.012q3.3 0 5.644 2.344t2.344 5.644-2.344 5.644-5.644 2.344-5.644-2.344-2.344-5.644 2.344-5.644 5.644-2.344z"></path>
</svg>
