<!-- Generated by IcoMoon.io -->
<svg version="1.1" xmlns="http://www.w3.org/2000/svg" width="24" height="24" viewBox="0 0 24 24">
<title>insights</title>
<path d="M19.2 8.813q-0.563 0-0.956 0.319t-0.563 0.787-0.019 0.881l-2.85 2.85q-0.413-0.112-0.825 0l-2.025-2.025q0.112-0.45-0.038-0.919t-0.544-0.787-0.994-0.319q-0.563 0-0.956 0.319t-0.544 0.787-0.038 0.919l-3.637 3.637q-0.45-0.15-0.9 0.019t-0.787 0.563-0.338 0.956q0 0.675 0.469 1.144t1.144 0.469q0.563 0 0.956-0.337t0.563-0.788 0.019-0.9l3.637-3.637q0.413 0.112 0.825 0l2.063 2.025q-0.15 0.45 0 0.919t0.544 0.788 0.994 0.319q0.563 0 0.956-0.319t0.563-0.788 0.019-0.919l2.85-2.813q0.45 0.113 0.9-0.037t0.788-0.544 0.337-0.994q0-0.637-0.469-1.106t-1.144-0.469zM14.4 9.6l0.75-1.65 1.65-0.75-1.65-0.75-0.75-1.65-0.75 1.65-1.65 0.75 1.65 0.75zM5.213 11.212l0.375-1.612 1.612-0.413-1.612-0.375-0.375-1.612-0.412 1.612-1.612 0.375 1.613 0.413z"></path>
</svg>
