<!-- Generated by IcoMoon.io -->
<svg version="1.1" xmlns="http://www.w3.org/2000/svg" width="40" height="40" viewBox="0 0 40 40">
<title>io-american-football</title>
<path d="M11.629 11.629c-2.773 2.773-4.169 6.288-4.875 9.080l12.537 12.535c2.792-0.703 6.307-2.099 9.080-4.875s4.169-6.288 4.875-9.080l-12.537-12.532c-2.792 0.703-6.307 2.099-9.080 4.872zM27.674 27.674v0zM22.791 15.813l1.397-1.393c0.174-0.159 0.407-0.256 0.663-0.256 0.545 0 0.986 0.442 0.986 0.986 0 0.256-0.097 0.488-0.257 0.664l0.001-0.001-1.393 1.397 0.697 0.698c0.179 0.179 0.289 0.425 0.289 0.698 0 0.545-0.442 0.986-0.986 0.986-0.272 0-0.519-0.11-0.698-0.289v0l-0.697-0.697-1.397 1.395 0.697 0.698c0.179 0.179 0.289 0.425 0.289 0.698 0 0.545-0.442 0.986-0.986 0.986-0.272 0-0.519-0.11-0.698-0.289v0l-0.698-0.697-1.395 1.396 0.697 0.698c0.179 0.179 0.289 0.425 0.289 0.697 0 0.545-0.442 0.986-0.986 0.986-0.272 0-0.519-0.11-0.698-0.289v0l-0.698-0.696-1.397 1.393c-0.174 0.159-0.407 0.256-0.663 0.256-0.545 0-0.986-0.442-0.986-0.986 0-0.256 0.097-0.488 0.257-0.664l-0.001 0.001 1.393-1.397-0.697-0.698c-0.179-0.179-0.289-0.425-0.289-0.697 0-0.545 0.442-0.986 0.986-0.986 0.272 0 0.519 0.11 0.697 0.289v0l0.698 0.698 1.398-1.395-0.698-0.698c-0.179-0.179-0.289-0.425-0.289-0.697 0-0.545 0.442-0.986 0.986-0.986 0.272 0 0.519 0.11 0.697 0.289v0l0.697 0.698 1.395-1.396-0.698-0.697c-0.179-0.179-0.289-0.425-0.289-0.697 0-0.545 0.442-0.986 0.986-0.986 0.272 0 0.519 0.11 0.697 0.289v0z"></path>
<path d="M33.786 16.477c0.457-3.408 0.25-7.516-1.25-9.013s-5.605-1.706-9.013-1.25c-0.157 0.021-0.322 0.045-0.494 0.072l10.688 10.688c0.025-0.174 0.049-0.339 0.070-0.496z"></path>
<path d="M6.214 23.523c-0.457 3.408-0.25 7.516 1.25 9.013 1.046 1.047 3.369 1.464 5.838 1.464 1.121-0.002 2.222-0.080 3.301-0.229l-0.126 0.014c0.157-0.021 0.322-0.045 0.494-0.072l-10.688-10.688c-0.024 0.174-0.048 0.34-0.069 0.497z"></path>
</svg>
