<!-- Generated by IcoMoon.io -->
<svg version="1.1" xmlns="http://www.w3.org/2000/svg" width="40" height="40" viewBox="0 0 40 40">
<title>io-arrow-undo-circle-outline</title>
<path d="M19.318 24.484v-2.332c3.567 0 5.282 0.842 6.786 2.418 0.337 0.353 0.938 0.082 0.893-0.402-0.341-3.841-2.134-7.318-7.679-7.318v-2.333c-0.001-0.286-0.234-0.518-0.52-0.518-0.139 0-0.265 0.054-0.358 0.143l-5.279 4.984c-0.099 0.094-0.161 0.226-0.161 0.373s0.062 0.279 0.161 0.373l0 0 5.276 4.986c0.093 0.090 0.221 0.145 0.361 0.145 0.287 0 0.519-0.232 0.52-0.518v-0z"></path>
<path fill="none" stroke-linejoin="miter" stroke-linecap="butt" stroke-miterlimit="10" stroke-width="2.5" stroke="#000" d="M20 8c-6.625 0-12 5.375-12 12s5.375 12 12 12 12-5.375 12-12-5.375-12-12-12z"></path>
</svg>
