<!-- Generated by IcoMoon.io -->
<svg version="1.1" xmlns="http://www.w3.org/2000/svg" width="40" height="40" viewBox="0 0 40 40">
<title>io-at-circle-outline</title>
<path fill="none" stroke-linejoin="miter" stroke-linecap="butt" stroke-miterlimit="10" stroke-width="2.5" stroke="#000" d="M32.005 20.005c0-6.625-5.375-12-12-12s-12 5.375-12 12 5.375 12 12 12 12-5.373 12-12z"></path>
<path fill="none" stroke-linejoin="miter" stroke-linecap="round" stroke-miterlimit="10" stroke-width="2.1875" stroke="#000" d="M22.801 26.393c-1.302 0.464-2.128 0.599-3.387 0.599-3.823 0-6.649-3.129-6.312-6.99s3.711-6.989 7.533-6.989c4.308 0 6.674 2.847 6.342 6.659-0.25 2.846-2.050 3.666-2.993 3.5-0.888-0.159-1.62-0.97-1.484-2.522l0.351-2.791c-0.474-0.573-1.757-1.125-3.121-0.909-1.243 0.193-2.666 1.299-2.819 3.049s0.906 3.177 2.496 3.177 2.991-1.149 3.168-3.178"></path>
</svg>
