<!-- Generated by IcoMoon.io -->
<svg version="1.1" xmlns="http://www.w3.org/2000/svg" width="40" height="40" viewBox="0 0 40 40">
<title>io-bandage</title>
<path d="M21.237 13.813c-0.181-0.181-0.431-0.293-0.707-0.293s-0.526 0.112-0.707 0.293l-5.834 5.834c-0.181 0.181-0.293 0.431-0.293 0.707s0.112 0.526 0.293 0.707l4.95 4.95c0.181 0.181 0.431 0.293 0.707 0.293s0.526-0.112 0.707-0.293l5.834-5.834c0.181-0.181 0.293-0.431 0.293-0.707s-0.112-0.526-0.293-0.707v0zM17.707 20.707c-0.181 0.181-0.431 0.293-0.707 0.293-0.552 0-1-0.448-1-1s0.448-1 1-1c0.276 0 0.526 0.112 0.707 0.293v0c0.181 0.181 0.293 0.431 0.293 0.707s-0.112 0.526-0.293 0.707v0zM20.707 23.707c-0.181 0.181-0.431 0.293-0.707 0.293-0.552 0-1-0.448-1-1s0.448-1 1-1c0.276 0 0.526 0.112 0.707 0.293v0c0.181 0.181 0.293 0.431 0.293 0.707s-0.112 0.526-0.293 0.707v0zM20.707 17.707c-0.181 0.181-0.431 0.293-0.707 0.293-0.552 0-1-0.448-1-1s0.448-1 1-1c0.276 0 0.526 0.112 0.707 0.293v0c0.181 0.181 0.293 0.431 0.293 0.707s-0.112 0.526-0.293 0.707v0zM23.707 20.707c-0.181 0.181-0.431 0.293-0.707 0.293-0.552 0-1-0.448-1-1s0.448-1 1-1c0.276 0 0.526 0.112 0.707 0.293v0c0.181 0.181 0.293 0.431 0.293 0.707s-0.112 0.526-0.293 0.707v0z"></path>
<path d="M33.101 6.899c-1.179-1.174-2.806-1.899-4.602-1.899s-3.422 0.726-4.602 1.9l0-0-4.36 4.368c-0.045 0.045-0.073 0.107-0.073 0.176 0 0.138 0.112 0.25 0.25 0.25 0.031 0 0.060-0.005 0.087-0.016l-0.002 0.001c0.215-0.089 0.465-0.146 0.726-0.159l0.005-0c0.002 0 0.005 0 0.008 0 0.826 0 1.574 0.336 2.114 0.879l4.949 4.949c0.543 0.54 0.879 1.288 0.879 2.114 0 0.003 0 0.005 0 0.008v-0c-0.012 0.266-0.070 0.515-0.164 0.745l0.005-0.015c-0.009 0.025-0.015 0.055-0.015 0.085 0 0.138 0.112 0.25 0.25 0.25 0.069 0 0.131-0.028 0.176-0.073v0l4.368-4.36c1.174-1.179 1.899-2.806 1.899-4.602s-0.726-3.422-1.9-4.602l0 0z"></path>
<path d="M19.896 28.177c-0.002 0-0.004 0-0.006 0-0.826 0-1.574-0.334-2.115-0.875l-4.949-4.952c-0.237-0.237-0.434-0.513-0.582-0.818l-0.008-0.018c-0.287-0.606-0.087-1.563 0.155-2.306 0.007-0.022 0.011-0.046 0.011-0.072 0-0.138-0.112-0.25-0.25-0.25-0.068 0-0.131 0.028-0.176 0.072l0-0-4.827 4.815c-1.178 1.178-1.906 2.805-1.906 4.602 0 3.594 2.914 6.508 6.508 6.508 1.797 0 3.424-0.728 4.602-1.906v0l4.547-4.555c0.045-0.045 0.073-0.108 0.073-0.177 0-0.138-0.112-0.25-0.25-0.25-0.031 0-0.061 0.006-0.088 0.016l0.002-0.001c-0.261 0.099-0.525 0.168-0.74 0.168z"></path>
</svg>
