<!-- Generated by IcoMoon.io -->
<svg version="1.1" xmlns="http://www.w3.org/2000/svg" width="40" height="40" viewBox="0 0 40 40">
<title>io-backspace</title>
<path d="M29.196 10h-15.391c-0.838 0.001-1.589 0.369-2.102 0.951l-0.003 0.003c-0.044 0.050-0.083 0.105-0.117 0.164l-0.003 0.005-5.58 8.361c-0.090 0.147-0.143 0.325-0.143 0.516s0.053 0.369 0.146 0.52l-0.002-0.004 5.572 8.348c0.038 0.068 0.079 0.127 0.126 0.181l-0.001-0.001c0.516 0.587 1.268 0.955 2.106 0.956h15.393c1.548-0.002 2.803-1.256 2.804-2.804v-14.391c-0.002-1.548-1.256-2.803-2.804-2.804h-0zM25.75 23.438c0.187 0.182 0.303 0.436 0.303 0.717 0 0.552-0.448 1-1 1-0.281 0-0.536-0.116-0.717-0.303l-0-0-3.356-3.351-3.354 3.353c-0.181 0.181-0.431 0.293-0.708 0.293-0.553 0-1.001-0.448-1.001-1.001 0-0.276 0.112-0.527 0.293-0.708l3.353-3.354-3.356-3.356c-0.181-0.181-0.293-0.431-0.293-0.708 0-0.553 0.448-1.002 1.002-1.002 0.277 0 0.528 0.112 0.709 0.294l3.356 3.356 3.354-3.356c0.181-0.181 0.431-0.293 0.707-0.293 0.553 0 1.001 0.448 1.001 1.001 0 0.276-0.112 0.526-0.293 0.707l-3.356 3.356z"></path>
</svg>
