<!-- Generated by IcoMoon.io -->
<svg version="1.1" xmlns="http://www.w3.org/2000/svg" width="40" height="40" viewBox="0 0 40 40">
<title>io-body-outline</title>
<path fill="none" stroke-linejoin="miter" stroke-linecap="butt" stroke-miterlimit="10" stroke-width="2.5" stroke="#000" d="M22.5 7.5c0 1.381-1.119 2.5-2.5 2.5s-2.5-1.119-2.5-2.5c0-1.381 1.119-2.5 2.5-2.5s2.5 1.119 2.5 2.5z"></path>
<path fill="none" stroke-linejoin="miter" stroke-linecap="butt" stroke-miterlimit="10" stroke-width="2.5" stroke="#000" d="M16.456 22.476v0l-1.9 10.763c-0.014 0.078-0.023 0.168-0.023 0.26 0 0.737 0.532 1.35 1.232 1.476l0.009 0.001c0.078 0.015 0.168 0.023 0.26 0.023 0.734 0 1.344-0.533 1.464-1.233l0.001-0.009 1.313-7.494v0.013s0.325-2.031 1.094-2.031h0.194c0.781 0 1.094 2.031 1.094 2.031v-0.006l1.313 7.494c0.129 0.705 0.739 1.233 1.472 1.233 0.826 0 1.495-0.669 1.495-1.495 0-0.093-0.008-0.184-0.025-0.272l0.001 0.009-1.9-10.762-0.306-1.856c-0.181-1.131-0.263-2.975 0.031-3.731 0.25-0.65 0.883-0.888 1.45-0.888h5.775c0.828 0 1.5-0.672 1.5-1.5s-0.672-1.5-1.5-1.5v0h-21c-0.828 0-1.5 0.672-1.5 1.5s0.672 1.5 1.5 1.5v0h5.781c0.577 0 1.2 0.238 1.45 0.888 0.294 0.756 0.213 2.6 0.031 3.731z"></path>
</svg>
