<!-- Generated by IcoMoon.io -->
<svg version="1.1" xmlns="http://www.w3.org/2000/svg" width="40" height="40" viewBox="0 0 40 40">
<title>io-bed-outline</title>
<path fill="none" stroke-linejoin="round" stroke-linecap="round" stroke-miterlimit="4" stroke-width="2.5" stroke="#000" d="M28 19h-18v-6.5c0.004-1.379 1.121-2.496 2.5-2.5h15c1.379 0.004 2.496 1.121 2.5 2.5v6.5z"></path>
<path fill="none" stroke-linejoin="round" stroke-linecap="round" stroke-miterlimit="4" stroke-width="2.5" stroke="#000" d="M7 30v-7c0.007-2.206 1.794-3.993 3.999-4h18.001c2.206 0.007 3.993 1.794 4 3.999v7.001"></path>
<path fill="none" stroke-linejoin="round" stroke-linecap="round" stroke-miterlimit="4" stroke-width="2.5" stroke="#000" d="M7 30v-0.5c0.002-0.827 0.673-1.498 1.5-1.5h23c0.827 0.002 1.498 0.673 1.5 1.5v0.5"></path>
<path fill="none" stroke-linejoin="round" stroke-linecap="round" stroke-miterlimit="4" stroke-width="2.5" stroke="#000" d="M11 19v-1c0.003-1.103 0.897-1.997 2-2h5c1.103 0.003 1.997 0.897 2 2v1"></path>
<path fill="none" stroke-linejoin="round" stroke-linecap="round" stroke-miterlimit="4" stroke-width="2.5" stroke="#000" d="M20 19v-1c0.003-1.103 0.897-1.997 2-2h5c1.103 0.003 1.997 0.897 2 2v1"></path>
</svg>
