<!-- Generated by IcoMoon.io -->
<svg version="1.1" xmlns="http://www.w3.org/2000/svg" width="40" height="40" viewBox="0 0 40 40">
<title>io-bandage-sharp</title>
<path d="M5.732 25.069c-0.452 0.452-0.731 1.077-0.731 1.767s0.279 1.315 0.731 1.767l5.666 5.666c0.452 0.452 1.077 0.731 1.767 0.731s1.315-0.279 1.767-0.731l4.694-4.694-9.199-9.199z"></path>
<path d="M35 13.194c0-0.002 0-0.005 0-0.007 0-0.69-0.281-1.315-0.734-1.766l-5.688-5.688c-0.454-0.454-1.081-0.734-1.773-0.734s-1.319 0.281-1.773 0.734v0l-4.531 4.535 9.232 9.232 4.533-4.533c0.454-0.451 0.734-1.076 0.734-1.766 0-0.003 0-0.005 0-0.008v0z"></path>
<path d="M21.066 28.137l7.25-7.25-9.206-9.199-7.25 7.25zM22.293 19.293c0.181-0.181 0.431-0.293 0.707-0.293 0.552 0 1 0.448 1 1s-0.448 1-1 1c-0.276 0-0.526-0.112-0.707-0.293v0c-0.181-0.181-0.293-0.431-0.293-0.707s0.112-0.526 0.293-0.707v0zM19.293 16.293c0.181-0.181 0.431-0.293 0.707-0.293 0.552 0 1 0.448 1 1s-0.448 1-1 1c-0.276 0-0.526-0.112-0.707-0.293v0c-0.181-0.181-0.293-0.431-0.293-0.707s0.112-0.526 0.293-0.707v0zM19.293 22.293c0.181-0.181 0.431-0.293 0.707-0.293 0.552 0 1 0.448 1 1s-0.448 1-1 1c-0.276 0-0.526-0.112-0.707-0.293v0c-0.181-0.181-0.293-0.431-0.293-0.707s0.112-0.526 0.293-0.707v0zM17.707 19.293c0.181 0.181 0.293 0.431 0.293 0.707 0 0.552-0.448 1-1 1s-1-0.448-1-1c0-0.276 0.112-0.526 0.293-0.707v0c0.181-0.181 0.431-0.293 0.707-0.293s0.526 0.112 0.707 0.293v0z"></path>
</svg>
