<!-- Generated by IcoMoon.io -->
<svg version="1.1" xmlns="http://www.w3.org/2000/svg" width="40" height="40" viewBox="0 0 40 40">
<title>io-book</title>
<path d="M16.64 8.625c-2.258-1.078-5.414-1.606-9.64-1.625v0c-0.008-0-0.017-0-0.027-0-0.408 0-0.787 0.125-1.1 0.338l0.007-0.004c-0.534 0.365-0.88 0.97-0.88 1.657 0 0.001 0 0.003 0 0.004v-0 17.881c0 1.209 0.86 2.121 2 2.121 4.442 0 8.897 0.415 11.566 2.938 0.046 0.044 0.108 0.071 0.177 0.071 0.142 0 0.257-0.115 0.257-0.257 0-0 0-0.001 0-0.001v0-21.069c0-0 0-0.001 0-0.001 0-0.298-0.132-0.566-0.34-0.748l-0.001-0.001c-0.584-0.502-1.248-0.936-1.965-1.278l-0.054-0.023z"></path>
<path d="M34.12 7.331c-0.306-0.208-0.684-0.331-1.090-0.331-0.011 0-0.021 0-0.031 0l0.002-0c-4.226 0.019-7.382 0.544-9.64 1.625-0.771 0.364-1.435 0.798-2.032 1.309l0.012-0.010c-0.209 0.183-0.341 0.451-0.341 0.75 0 0 0 0 0 0v0 21.071c0 0 0 0 0 0 0 0.136 0.11 0.246 0.246 0.246 0.067 0 0.128-0.027 0.172-0.070l-0 0c1.604-1.594 4.42-2.926 11.585-2.926 1.105 0 2-0.895 2-2v0-18c0-0.001 0-0.003 0-0.004 0-0.688-0.347-1.294-0.876-1.654l-0.007-0.004z"></path>
</svg>
