<!-- Generated by IcoMoon.io -->
<svg version="1.1" xmlns="http://www.w3.org/2000/svg" width="40" height="40" viewBox="0 0 40 40">
<title>io-bookmarks</title>
<path d="M29 4h-14c-1.854 0.002-3.413 1.262-3.869 2.972l-0.006 0.028h14.25c2.554 0 4.625 2.071 4.625 4.625v0 19.056l1.375 1.1c0.17 0.137 0.388 0.219 0.625 0.219 0.219 0 0.422-0.071 0.587-0.19l-0.003 0.002c0.254-0.189 0.416-0.488 0.416-0.825 0-0.005-0-0.010-0-0.014v0.001-22.973c0-2.209-1.791-4-4-4v0z"></path>
<path d="M24 9h-13c-2.209 0-4 1.791-4 4v0 21.976c-0 0.005-0 0.010-0 0.016 0 0.335 0.161 0.632 0.41 0.819l0.003 0.002c0.163 0.119 0.367 0.191 0.588 0.191 0.246 0 0.472-0.089 0.646-0.236l-0.001 0.001 8.856-7.461 8.856 7.457c0.173 0.146 0.398 0.235 0.644 0.235 0.218 0 0.419-0.070 0.584-0.188l-0.003 0.002c0.256-0.189 0.419-0.489 0.419-0.827 0-0.005-0-0.009-0-0.014v0.001-21.974c0-2.209-1.791-4-4-4v0z"></path>
</svg>
