<!-- Generated by IcoMoon.io -->
<svg version="1.1" xmlns="http://www.w3.org/2000/svg" width="40" height="40" viewBox="0 0 40 40">
<title>io-basket-outline</title>
<path fill="none" stroke-linejoin="round" stroke-linecap="butt" stroke-miterlimit="4" stroke-width="2.5" stroke="#000" d="M8.275 16c-0 0-0.001 0-0.001 0-0.7 0-1.267 0.564-1.274 1.262v0.001c-0 0.004-0 0.008-0 0.013 0 0.118 0.018 0.232 0.052 0.339l-0.002-0.008 3.231 11.394c0.309 1.073 1.281 1.844 2.434 1.844 0.003 0 0.007 0 0.010-0h14.549c0.001 0 0.001 0 0.002 0 1.158 0 2.136-0.77 2.449-1.826l0.005-0.018 3.231-11.394 0.037-0.344c-0.006-0.699-0.574-1.262-1.274-1.262-0 0-0.001 0-0.001 0h-23.45zM20.358 26.004c-1.446-0.007-2.616-1.182-2.616-2.629 0-1.452 1.177-2.629 2.629-2.629s2.629 1.177 2.629 2.629v0c-0.007 1.454-1.187 2.629-2.642 2.629-0 0-0 0-0.001 0h0z"></path>
<path fill="none" stroke-linejoin="round" stroke-linecap="butt" stroke-miterlimit="4" stroke-width="2.5" stroke="#000" d="M14 16l6-8 6 8"></path>
</svg>
