<!-- Generated by IcoMoon.io -->
<svg version="1.1" xmlns="http://www.w3.org/2000/svg" width="40" height="40" viewBox="0 0 40 40">
<title>io-browsers-outline</title>
<path fill="none" stroke-linejoin="round" stroke-linecap="butt" stroke-miterlimit="4" stroke-width="2.5" stroke="#000" d="M10 8h20c1.657 0 3 1.343 3 3v18c0 1.657-1.343 3-3 3h-20c-1.657 0-3-1.343-3-3v-18c0-1.657 1.343-3 3-3z"></path>
<path d="M28.864 8h-17.728c-2.281 0-4.136 1.884-4.136 4.2v2.8h1c0-1 1-2 2-2h20c1 0 2 1 2 2h1v-2.8c0-2.316-1.856-4.2-4.136-4.2z"></path>
</svg>
