<!-- Generated by IcoMoon.io -->
<svg version="1.1" xmlns="http://www.w3.org/2000/svg" width="40" height="40" viewBox="0 0 40 40">
<title>io-bar-chart</title>
<path d="M34 35h-27c-1.105 0-2-0.895-2-2v0-27c0-0.552 0.448-1 1-1s1 0.448 1 1v0 27h27c0.552 0 1 0.448 1 1s-0.448 1-1 1v0z"></path>
<path d="M13.75 31h-2.5c-1.243 0-2.25-1.007-2.25-2.25v0-9.5c0-1.243 1.007-2.25 2.25-2.25v0h2.5c1.243 0 2.25 1.007 2.25 2.25v0 9.5c0 1.243-1.007 2.25-2.25 2.25v0z"></path>
<path d="M22.75 31h-2.5c-1.243 0-2.25-1.007-2.25-2.25v0-12.5c0-1.243 1.007-2.25 2.25-2.25v0h2.5c1.243 0 2.25 1.007 2.25 2.25v0 12.5c0 1.243-1.007 2.25-2.25 2.25v0z"></path>
<path d="M31.728 31h-2.5c-1.243 0-2.25-1.007-2.25-2.25v0-16.5c0-1.243 1.007-2.25 2.25-2.25v0h2.5c1.243 0 2.25 1.007 2.25 2.25v0 16.5c0 1.243-1.007 2.25-2.25 2.25v0z"></path>
</svg>
