<!-- Generated by IcoMoon.io -->
<svg version="1.1" xmlns="http://www.w3.org/2000/svg" width="40" height="40" viewBox="0 0 40 40">
<title>io-bulb-outline</title>
<path fill="none" stroke-linejoin="round" stroke-linecap="round" stroke-miterlimit="4" stroke-width="2.5" stroke="#000" d="M23 28v-1.5c0-1.813 1.971-3.527 3.25-4.75 1.803-1.723 2.75-4.038 2.75-6.75 0-5-3.983-9-9-9-0.007-0-0.016-0-0.025-0-4.957 0-8.975 4.018-8.975 8.975 0 0.009 0 0.018 0 0.026v-0.001c0 2.615 0.988 5.087 2.75 6.75 1.272 1.201 3.25 2.919 3.25 4.75v1.5"></path>
<path fill="none" stroke-linejoin="round" stroke-linecap="round" stroke-miterlimit="4" stroke-width="2.5" stroke="#000" d="M18 34h4"></path>
<path fill="none" stroke-linejoin="round" stroke-linecap="round" stroke-miterlimit="4" stroke-width="2.5" stroke="#000" d="M17 31h6"></path>
<path fill="none" stroke-linejoin="round" stroke-linecap="round" stroke-miterlimit="4" stroke-width="2.5" stroke="#000" d="M20 28v-8"></path>
<path fill="none" stroke-linejoin="round" stroke-linecap="round" stroke-miterlimit="4" stroke-width="2.5" stroke="#000" d="M22.375 19s-1.344 1-2.375 1-2.375-1-2.375-1"></path>
</svg>
