<!-- Generated by IcoMoon.io -->
<svg version="1.1" xmlns="http://www.w3.org/2000/svg" width="40" height="40" viewBox="0 0 40 40">
<title>io-barbell</title>
<path d="M33.188 15c-0.018-0.001-0.039-0.001-0.061-0.001-0.625 0-1.178 0.306-1.518 0.777l-0.004 0.006c-0.023 0.032-0.060 0.053-0.102 0.053-0.069 0-0.125-0.056-0.125-0.125v-2.291c0-1.297-1.021-2.388-2.318-2.419-0.018-0-0.039-0.001-0.060-0.001-1.312 0-2.375 1.063-2.375 2.375 0 0 0 0 0 0v0 5.125c0 0.069-0.056 0.125-0.125 0.125v0h-13c-0.069 0-0.125-0.056-0.125-0.125v0-5.081c0-1.297-1.021-2.388-2.317-2.419-0.017-0-0.037-0.001-0.058-0.001-1.312 0-2.375 1.063-2.375 2.375 0 0 0 0 0 0v0 2.336c-0 0.069-0.056 0.125-0.125 0.125-0.042 0-0.080-0.021-0.102-0.053l-0-0c-0.344-0.477-0.897-0.784-1.523-0.784-0.022 0-0.044 0-0.066 0.001l0.003-0c-1.019 0.032-1.813 0.894-1.813 1.914v6.17c0 1.019 0.796 1.882 1.813 1.914 0.018 0.001 0.039 0.001 0.061 0.001 0.625 0 1.178-0.306 1.518-0.777l0.004-0.006c0.023-0.035 0.061-0.057 0.105-0.057 0.069 0 0.125 0.056 0.125 0.125 0 0.002-0 0.003-0 0.005v-0 2.292c0 1.294 1.021 2.388 2.318 2.419 0.017 0 0.037 0.001 0.057 0.001 1.312 0 2.375-1.063 2.375-2.375 0-0 0-0.001 0-0.001v0-5.125c0-0.069 0.056-0.125 0.125-0.125v0h13c0.069 0 0.125 0.056 0.125 0.125v0 5.081c0 1.297 1.021 2.388 2.317 2.419 0.017 0 0.037 0.001 0.058 0.001 1.312 0 2.375-1.063 2.375-2.375 0-0 0-0 0-0v0-2.336c0-0.069 0.056-0.125 0.125-0.125 0.042 0 0.080 0.021 0.102 0.053l0 0c0.344 0.477 0.897 0.784 1.523 0.784 0.022 0 0.044-0 0.066-0.001l-0.003 0c1.019-0.032 1.813-0.894 1.813-1.914v-6.171c0-1.019-0.796-1.882-1.813-1.915z"></path>
</svg>
