<!-- Generated by IcoMoon.io -->
<svg version="1.1" xmlns="http://www.w3.org/2000/svg" width="40" height="40" viewBox="0 0 40 40">
<title>io-call-sharp</title>
<path d="M33.934 27.134c-0.326-0.347-1.478-1.375-3.596-2.734-2.133-1.371-3.706-2.226-4.157-2.426-0.029-0.013-0.062-0.021-0.097-0.021-0.056 0-0.108 0.019-0.148 0.052l0.001-0c-0.727 0.567-1.951 1.608-2.016 1.664-0.424 0.363-0.424 0.363-0.771 0.25-0.61-0.2-2.505-1.206-4.156-2.861s-2.709-3.597-2.909-4.206c-0.114-0.348-0.114-0.348 0.25-0.771 0.056-0.066 1.098-1.289 1.665-2.016 0.032-0.040 0.051-0.092 0.051-0.148 0-0.035-0.008-0.069-0.021-0.099l0.001 0.001c-0.199-0.452-1.054-2.024-2.426-4.158-1.361-2.117-2.387-3.269-2.735-3.595-0.044-0.041-0.102-0.066-0.167-0.066-0.027 0-0.053 0.004-0.078 0.013l0.002-0.001c-1.349 0.468-2.505 1.006-3.596 1.642l0.096-0.052c-1.151 0.674-2.145 1.384-3.070 2.172l0.030-0.025c-0.052 0.044-0.084 0.109-0.084 0.182 0 0.018 0.002 0.036 0.006 0.053l-0-0.002c0.131 0.609 0.755 3.15 2.692 6.67 1.977 3.592 3.347 5.433 6.25 8.326s4.802 4.346 8.398 6.322c3.52 1.938 6.062 2.563 6.67 2.692 0.015 0.004 0.033 0.006 0.051 0.006 0.073 0 0.139-0.033 0.183-0.084l0-0c0.763-0.895 1.472-1.889 2.093-2.942l0.054-0.099c0.585-0.995 1.122-2.15 1.547-3.359l0.043-0.141c0.008-0.022 0.012-0.048 0.012-0.075 0-0.064-0.025-0.123-0.066-0.166l0 0z"></path>
</svg>
