<!-- Generated by IcoMoon.io -->
<svg version="1.1" xmlns="http://www.w3.org/2000/svg" width="40" height="40" viewBox="0 0 40 40">
<title>io-cloud-done</title>
<path d="M30.527 18.203c-0.382-0.089-0.677-0.389-0.756-0.768l-0.001-0.007c-0.48-2.292-1.528-4.259-3.074-5.75-1.722-1.658-4.068-2.679-6.652-2.679-0.016 0-0.031 0-0.047 0h0.002c-2.219 0-4.265 0.731-5.917 2.113-1.111 0.943-2 2.111-2.6 3.439l-0.025 0.061c-0.132 0.291-0.391 0.504-0.704 0.571l-0.007 0.001c-1.688 0.351-3.192 1.084-4.324 2.117-1.586 1.441-2.423 3.413-2.423 5.699 0 2.25 0.899 4.305 2.531 5.787 1.572 1.427 3.692 2.213 5.969 2.213h16.25c2.023 0 3.764-0.536 5.037-1.548 1.448-1.153 2.213-2.865 2.213-4.952 0-3.598-2.625-5.661-5.473-6.297zM24.578 17.644l-6.738 8c-0.182 0.214-0.449 0.351-0.749 0.356h-0.018c-0 0-0 0-0 0-0.294 0-0.559-0.127-0.742-0.329l-0.001-0.001-2.869-3.179c-0.361-0.399-0.364-1.021 0.019-1.4 0.181-0.18 0.43-0.291 0.705-0.291 0.294 0 0.559 0.127 0.742 0.329l0.001 0.001 2.119 2.349 6-7.125c0.185-0.218 0.459-0.356 0.765-0.356 0.552 0 1 0.448 1 1 0 0.246-0.089 0.472-0.236 0.646l0.001-0.001z"></path>
</svg>
