<!-- Generated by IcoMoon.io -->
<svg version="1.1" xmlns="http://www.w3.org/2000/svg" width="40" height="40" viewBox="0 0 40 40">
<title>io-call-outline</title>
<path fill="none" stroke-linejoin="miter" stroke-linecap="butt" stroke-miterlimit="10" stroke-width="2.5" stroke="#000" d="M32.188 27.375c-0.992-1-3.396-2.459-4.563-3.047-1.519-0.765-1.644-0.828-2.837 0.059-0.796 0.592-1.326 1.121-2.258 0.922s-2.957-1.319-4.73-3.087-2.959-3.851-3.158-4.78 0.338-1.452 0.924-2.25c0.826-1.125 0.764-1.313 0.057-2.831-0.551-1.181-2.053-3.563-3.056-4.55-1.074-1.061-1.074-0.873-1.766-0.586-0.622 0.264-1.152 0.552-1.651 0.884l0.037-0.023c-1 0.664-1.555 1.216-1.943 2.046s-0.563 2.774 1.442 6.415 3.411 5.503 6.321 8.406 5.149 4.463 8.421 6.298c4.047 2.267 5.6 1.825 6.432 1.437s1.386-0.938 2.052-1.938c0.31-0.462 0.598-0.992 0.838-1.548l0.025-0.065c0.288-0.689 0.476-0.689-0.587-1.763z"></path>
</svg>
