<!-- Generated by IcoMoon.io -->
<svg version="1.1" xmlns="http://www.w3.org/2000/svg" width="40" height="40" viewBox="0 0 40 40">
<title>io-cellular</title>
<path d="M33.5 31h-3c-0.828 0-1.5-0.672-1.5-1.5v0-19c0-0.828 0.672-1.5 1.5-1.5v0h3c0.828 0 1.5 0.672 1.5 1.5v0 19c0 0.828-0.672 1.5-1.5 1.5v0z"></path>
<path d="M25.5 31h-3c-0.828 0-1.5-0.672-1.5-1.5v0-14c0-0.828 0.672-1.5 1.5-1.5v0h3c0.828 0 1.5 0.672 1.5 1.5v0 14c0 0.828-0.672 1.5-1.5 1.5v0z"></path>
<path d="M17.5 31h-3c-0.828 0-1.5-0.672-1.5-1.5v0-10c0-0.828 0.672-1.5 1.5-1.5v0h3c0.828 0 1.5 0.672 1.5 1.5v0 10c0 0.828-0.672 1.5-1.5 1.5v0z"></path>
<path d="M9.5 31h-3c-0.828 0-1.5-0.672-1.5-1.5v0-6c0-0.828 0.672-1.5 1.5-1.5v0h3c0.828 0 1.5 0.672 1.5 1.5v0 6c0 0.828-0.672 1.5-1.5 1.5v0z"></path>
</svg>
