<!-- Generated by IcoMoon.io -->
<svg version="1.1" xmlns="http://www.w3.org/2000/svg" width="40" height="40" viewBox="0 0 40 40">
<title>io-camera-reverse-outline</title>
<path fill="none" stroke-linejoin="round" stroke-linecap="round" stroke-miterlimit="4" stroke-width="2.5" stroke="#000" d="M25.909 13.293l-1.664-2.629c-0.351-0.409-0.831-0.664-1.37-0.664h-5.75c-0.539 0-1.019 0.255-1.37 0.664l-1.664 2.629c-0.351 0.409-0.803 0.708-1.341 0.708h-3.75c-1.105 0-2 0.895-2 2v0 12c0 1.105 0.895 2 2 2v0h22c1.105 0 2-0.895 2-2v0-12c0-1.105-0.895-2-2-2v0h-3.688c-0.541 0-1.053-0.298-1.404-0.708z"></path>
<path fill="none" stroke-linejoin="round" stroke-linecap="round" stroke-miterlimit="4" stroke-width="2.5" stroke="#000" d="M11.75 13.875v-1.375h-1.5v1.375"></path>
<path fill="none" stroke-linejoin="round" stroke-linecap="round" stroke-miterlimit="4" stroke-width="2.5" stroke="#000" d="M24.985 21.826v-0.832c-0.001-2.76-2.239-4.998-5-4.998-1.215 0-2.329 0.434-3.196 1.154l0.008-0.007M15 20.174v0.832c0.002 2.76 2.24 4.996 5 4.996 1.208 0 2.315-0.428 3.179-1.141l-0.009 0.007"></path>
<path fill="none" stroke-linejoin="round" stroke-linecap="round" stroke-miterlimit="4" stroke-width="2.5" stroke="#000" d="M16.25 21l-1.25-1.25-1.25 1.25"></path>
<path fill="none" stroke-linejoin="round" stroke-linecap="round" stroke-miterlimit="4" stroke-width="2.5" stroke="#000" d="M26.25 21l-1.25 1.25-1.25-1.25"></path>
</svg>
