<!-- Generated by IcoMoon.io -->
<svg version="1.1" xmlns="http://www.w3.org/2000/svg" width="40" height="40" viewBox="0 0 40 40">
<title>io-camera-sharp</title>
<path d="M24 21c0 2.209-1.791 4-4 4s-4-1.791-4-4c0-2.209 1.791-4 4-4s4 1.791 4 4z"></path>
<path d="M32.5 13h-5.188c-0.187 0-0.42-0.121-0.601-0.313l-1.705-2.675c-0.694-1.012-1.006-1.012-2.131-1.012h-5.75c-1.125 0-1.5 0-2.129 1.013l-1.707 2.674c-0.139 0.151-0.334 0.313-0.539 0.313v-1c0-0.276-0.224-0.5-0.5-0.5v0h-2.5c-0.276 0-0.5 0.224-0.5 0.5v0 1h-1.75c-0.828 0-1.5 0.672-1.5 1.5v0 15c0 0.828 0.672 1.5 1.5 1.5v0h25c0.828 0 1.5-0.672 1.5-1.5v0-15c0-0.828-0.672-1.5-1.5-1.5v0zM20.282 26.994c-0.084 0.004-0.183 0.007-0.282 0.007-3.314 0-6-2.686-6-6s2.686-6 6-6c3.314 0 6 2.686 6 6 0 0.099-0.002 0.197-0.007 0.295l0.001-0.014c-0.153 3.091-2.621 5.559-5.698 5.711l-0.014 0.001z"></path>
</svg>
