<!-- Generated by IcoMoon.io -->
<svg version="1.1" xmlns="http://www.w3.org/2000/svg" width="40" height="40" viewBox="0 0 40 40">
<title>io-close-circle</title>
<path d="M20 7c-7.168 0-13 5.832-13 13s5.832 13 13 13 13-5.832 13-13-5.832-13-13-13zM24.707 23.293c0.192 0.183 0.311 0.44 0.311 0.725 0 0.552-0.448 1-1 1-0.285 0-0.542-0.119-0.725-0.311l-3.294-3.293-3.293 3.293c-0.179 0.17-0.422 0.275-0.689 0.275-0.552 0-1-0.448-1-1 0-0.267 0.105-0.51 0.275-0.689l3.292-3.293-3.293-3.293c-0.17-0.179-0.275-0.422-0.275-0.689 0-0.552 0.448-1 1-1 0.267 0 0.51 0.105 0.689 0.275l3.293 3.292 3.293-3.293c0.179-0.17 0.422-0.275 0.689-0.275 0.552 0 1 0.448 1 1 0 0.267-0.105 0.51-0.275 0.689l-3.292 3.293z"></path>
</svg>
