<!-- Generated by IcoMoon.io -->
<svg version="1.1" xmlns="http://www.w3.org/2000/svg" width="40" height="40" viewBox="0 0 40 40">
<title>io-create</title>
<path d="M32.746 7.328c-0.184-0.202-0.449-0.328-0.742-0.328-0.277 0-0.527 0.112-0.709 0.293l0-0-0.773 0.769c-0.090 0.090-0.146 0.215-0.146 0.353s0.056 0.263 0.146 0.353v0l0.709 0.707c0.091 0.091 0.216 0.147 0.354 0.147s0.264-0.056 0.354-0.147l0-0 0.754-0.75c0.381-0.381 0.417-1.001 0.053-1.399z"></path>
<path d="M28.959 9.625l-11.282 11.263c-0.067 0.066-0.117 0.149-0.143 0.242l-0.001 0.004-0.522 1.554c-0.006 0.021-0.010 0.045-0.010 0.069 0 0.135 0.109 0.244 0.244 0.244 0.025 0 0.049-0.004 0.071-0.011l-0.002 0 1.553-0.522c0.097-0.028 0.179-0.078 0.246-0.144l0-0 11.262-11.284c0.101-0.102 0.163-0.241 0.163-0.396s-0.062-0.294-0.163-0.396l0 0-0.622-0.625c-0.102-0.101-0.242-0.164-0.397-0.164s-0.295 0.063-0.397 0.164v0z"></path>
<path d="M28.146 16.104l-7.618 7.633c-0.286 0.287-0.641 0.507-1.036 0.633l-0.018 0.005-1.619 0.542c-0.183 0.054-0.393 0.084-0.61 0.084-1.24 0-2.245-1.005-2.245-2.245 0-0.217 0.031-0.427 0.088-0.626l-0.004 0.016 0.542-1.619c0.131-0.414 0.35-0.768 0.637-1.054v0l7.633-7.619c0.091-0.091 0.147-0.216 0.147-0.354 0-0.276-0.224-0.5-0.5-0.5h-13.043c-1.933 0-3.5 1.567-3.5 3.5v0 15c0 1.933 1.567 3.5 3.5 3.5v0h15c1.933 0 3.5-1.567 3.5-3.5v0-13.043c-0-0.276-0.224-0.5-0.5-0.5-0.138 0-0.263 0.056-0.354 0.147v0z"></path>
</svg>
