<!-- Generated by IcoMoon.io -->
<svg version="1.1" xmlns="http://www.w3.org/2000/svg" width="40" height="40" viewBox="0 0 40 40">
<title>io-chatbubble-ellipses-outline</title>
<path fill="none" stroke-linejoin="miter" stroke-linecap="round" stroke-miterlimit="10" stroke-width="2.5" stroke="#000" d="M9.467 27.75c0.075-0.274-0.089-0.654-0.246-0.929-0.055-0.092-0.107-0.17-0.164-0.244l0.005 0.007c-1.292-1.935-2.063-4.315-2.063-6.875 0-0 0-0 0-0v0c-0.022-7.016 5.795-12.709 12.989-12.709 6.274 0 11.511 4.346 12.734 10.116 0.176 0.782 0.276 1.68 0.277 2.602v0c0 7.026-5.593 12.808-12.787 12.808-1.144 0-2.688-0.288-3.529-0.523s-1.682-0.548-1.899-0.632c-0.206-0.082-0.445-0.129-0.696-0.129h-0c-0.002 0-0.004 0-0.007 0-0.27 0-0.527 0.056-0.761 0.157l0.012-0.005-4.24 1.53c-0.085 0.038-0.184 0.065-0.287 0.076l-0.004 0c-0.331-0.001-0.599-0.27-0.599-0.601 0-0.003 0-0.006 0-0.009v0c0.006-0.076 0.019-0.146 0.039-0.213l-0.002 0.007z"></path>
<path d="M16 20c0 1.105-0.895 2-2 2s-2-0.895-2-2c0-1.105 0.895-2 2-2s2 0.895 2 2z"></path>
<path d="M22 20c0 1.105-0.895 2-2 2s-2-0.895-2-2c0-1.105 0.895-2 2-2s2 0.895 2 2z"></path>
<path d="M28 20c0 1.105-0.895 2-2 2s-2-0.895-2-2c0-1.105 0.895-2 2-2s2 0.895 2 2z"></path>
</svg>
