<!-- Generated by IcoMoon.io -->
<svg version="1.1" xmlns="http://www.w3.org/2000/svg" width="40" height="40" viewBox="0 0 40 40">
<title>io-cloud-sharp</title>
<path d="M28.75 31h-16.25c-2.277 0-4.397-0.786-5.969-2.213-1.632-1.482-2.531-3.537-2.531-5.787 0-2.286 0.837-4.258 2.42-5.701 1.246-1.137 2.945-1.91 4.836-2.211 0.619-1.588 1.586-2.925 2.812-3.964l0.014-0.012c1.652-1.382 3.699-2.112 5.917-2.112 0.012-0 0.027-0 0.042-0 2.585 0 4.932 1.022 6.658 2.684l-0.003-0.003c1.691 1.629 2.787 3.83 3.194 6.404 3.082 0.456 6.109 2.549 6.109 6.415 0 2.087-0.765 3.799-2.213 4.952-1.273 1.012-3.014 1.548-5.037 1.548z"></path>
</svg>
