<!-- Generated by IcoMoon.io -->
<svg version="1.1" xmlns="http://www.w3.org/2000/svg" width="40" height="40" viewBox="0 0 40 40">
<title>io-cloud-done-sharp</title>
<path d="M29.891 18.085c-0.407-2.574-1.503-4.775-3.194-6.404-1.723-1.659-4.069-2.681-6.654-2.681-0.015 0-0.029 0-0.044 0h0.002c-2.219 0-4.265 0.731-5.918 2.112-1.241 1.051-2.207 2.387-2.803 3.909l-0.023 0.066c-1.891 0.301-3.591 1.074-4.836 2.211-1.583 1.444-2.42 3.415-2.42 5.701 0 2.25 0.899 4.305 2.531 5.787 1.572 1.427 3.692 2.213 5.969 2.213h16.25c2.023 0 3.764-0.536 5.037-1.548 1.448-1.153 2.213-2.865 2.213-4.952 0-3.866-3.028-5.959-6.109-6.415zM17.101 26.523l-4.326-4.794 1.485-1.34 2.789 3.091 6.643-7.887 1.529 1.288z"></path>
</svg>
