<!-- Generated by IcoMoon.io -->
<svg version="1.1" xmlns="http://www.w3.org/2000/svg" width="40" height="40" viewBox="0 0 40 40">
<title>io-checkbox</title>
<path d="M29 7h-18c-2.208 0.002-3.998 1.792-4 4v18c0.002 2.208 1.792 3.998 4 4h18c2.208-0.002 3.998-1.792 4-4v-18c-0.002-2.208-1.792-3.998-4-4h-0zM26.766 15.643l-8.4 10c-0.181 0.215-0.449 0.352-0.749 0.357h-0.018c-0.295-0-0.559-0.128-0.742-0.33l-0.001-0.001-3.6-4c-0.169-0.179-0.272-0.42-0.272-0.686 0-0.552 0.448-1 1-1 0.303 0 0.574 0.135 0.758 0.347l0.001 0.001 2.831 3.145 7.662-9.119c0.184-0.212 0.455-0.346 0.756-0.346 0.552 0 1 0.448 1 1 0 0.241-0.085 0.461-0.226 0.634l0.001-0.002z"></path>
</svg>
