<!-- Generated by IcoMoon.io -->
<svg version="1.1" xmlns="http://www.w3.org/2000/svg" width="40" height="40" viewBox="0 0 40 40">
<title>io-color-palette-sharp</title>
<path d="M30 26c-0.787-0.053-1.313-0.25-1.75-0.75-0.875-1-0.875-2.25 0.343-3.28l2.051-1.821c3.142-2.776 3.142-7.326 0-10.102-2.316-2.038-5.423-3.047-8.653-3.047-3.771 0-7.712 1.375-10.75 4.069-5.654 5-5.654 13.182 0 18.179 2.813 2.485 6.602 3.724 10.353 3.75h0.115c3.75 0 7.442-1.219 10.075-3.548 1.216-1.076 1.216-1.388 0.005-3.228-0.289-0.473-0.851-0.16-1.789-0.223zM11 17c0-1.105 0.895-2 2-2s2 0.895 2 2c0 1.105-0.895 2-2 2v0c-1.105 0-2-0.895-2-2v0zM13.5 25.438c-1.105 0-2-0.895-2-2s0.895-2 2-2c1.105 0 2 0.895 2 2v0c0 1.105-0.895 2-2 2v0zM16 13c0-1.105 0.895-2 2-2s2 0.895 2 2c0 1.105-0.895 2-2 2v0c-1.105 0-2-0.895-2-2v0zM20 29.938c-1.657 0-3-1.343-3-3s1.343-3 3-3c1.657 0 3 1.343 3 3v0c0 1.657-1.343 3-3 3v0zM24.5 15c-1.105 0-2-0.895-2-2s0.895-2 2-2c1.105 0 2 0.895 2 2v0c0 1.105-0.895 2-2 2v0z"></path>
</svg>
