<!-- Generated by IcoMoon.io -->
<svg version="1.1" xmlns="http://www.w3.org/2000/svg" width="40" height="40" viewBox="0 0 40 40">
<title>io-earth-outline</title>
<path fill="none" stroke-linejoin="miter" stroke-linecap="butt" stroke-miterlimit="10" stroke-width="2.5" stroke="#000" d="M33 20c0-7.179-5.821-13-13-13s-13 5.821-13 13 5.821 13 13 13 13-5.821 13-13z"></path>
<path d="M31.848 14.759c-1.004 0.006-0.905 1.858-2.156 0.984-0.464-0.324-0.75-0.794-1.333-0.938-0.509-0.125-1.031 0.005-1.534 0.092-0.572 0.099-1.25 0.143-1.684 0.576-0.419 0.417-0.641 0.976-1.088 1.396-0.863 0.813-1.227 1.699-0.669 2.848 0.538 1.104 1.662 1.704 2.875 1.625 1.192-0.079 2.43-0.771 2.396 0.961-0.012 0.612 0.116 1.037 0.304 1.607 0.174 0.525 0.163 1.034 0.203 1.576 0.074 1.012 0.26 2.148 0.762 3.042l0.938-1.322c0.116-0.164 0.358-0.393 0.415-0.586 0.102-0.342-0.099-0.929-0.122-1.313s-0.012-0.771-0.071-1.154c-0.082-0.537-0.4-1.040-0.444-1.571-0.081-0.988 0.1-1.777-0.661-2.603-0.735-0.797-1.812-0.988-2.842-0.826-0.519 0.081-2.607 0.415-1.769-0.771 0.166-0.233 0.455-0.424 0.641-0.646 0.162-0.193 0.303-0.548 0.492-0.699s1.063-0.324 1.313-0.247 0.511 0.438 0.728 0.598c0.382 0.29 0.843 0.496 1.345 0.582l0.019 0.003c0.854 0.125 2.639-0.371 2.625-1.466-0.002-0.525-0.49-1.256-0.682-1.747z"></path>
<path d="M21.966 23.769c-0.333-1.402-2.239-1.871-3.266-2.632-0.591-0.438-1.116-1.113-1.892-1.168-0.357-0.026-0.657 0.052-1.011-0.040-0.325-0.084-0.58-0.259-0.926-0.213-0.647 0.085-1.055 0.776-1.75 0.682-0.659-0.089-1.339-0.86-1.489-1.488-0.192-0.808 0.446-1.069 1.131-1.141 0.286-0.030 0.606-0.063 0.881 0.042 0.361 0.134 0.532 0.488 0.856 0.667 0.608 0.333 0.731-0.199 0.638-0.739-0.139-0.809-0.302-1.139 0.419-1.695 0.5-0.384 0.927-0.661 0.848-1.351-0.047-0.405-0.269-0.588-0.063-0.991 0.157-0.307 0.588-0.584 0.868-0.767 0.724-0.473 3.103-0.437 2.131-1.76-0.286-0.388-0.813-1.082-1.313-1.177-0.625-0.118-0.902 0.579-1.338 0.887-0.45 0.318-1.326 0.679-1.777 0.188-0.606-0.662 0.402-0.879 0.625-1.341s-0.517-1.335-0.913-1.556l-1.863 2.089c-0.019 0.118-0.030 0.254-0.030 0.392 0 0.606 0.207 1.163 0.555 1.604l-0.004-0.006c0.371 0.477 0.961 0.63 0.987 1.281 0.026 0.625-0.071 0.945-0.48 1.384-0.177 0.188-0.302 0.454-0.482 0.629-0.221 0.214-0.139 0.149-0.483 0.207-0.648 0.109-1.199 0.278-1.824 0.451-1.042 0.288-1.139-1.415-1.614-2.083l-1.563 1.262c-0.017 0.207 0.256 0.588 0.331 0.813 0.427 1.286 1.288 2.28 1.844 3.51 0.586 1.302 2.158 0.941 2.852 2.082 0.616 1.012-0.042 2.294 0.419 3.354 0.335 0.769 1.125 0.938 1.67 1.5 0.557 0.568 0.545 1.346 0.63 2.085 0.11 0.983 0.274 1.859 0.495 2.713l-0.029-0.133c0.076 0.293 0.145 0.681 0.346 0.922 0.137 0.166 0.609 0.309 0.419 0.364 0.266 0.044 0.741 0.293 0.962 0.11 0.293-0.24 0.214-0.979 0.265-1.312 0.152-0.994 0.649-1.966 1.321-2.709 0.663-0.734 1.572-1.231 2.132-2.062 0.546-0.811 0.71-1.906 0.484-2.855zM19.879 25.414c-0.375 0.669-1.21 1.117-1.747 1.649-0.146 0.144-0.456 0.644-0.638 0.536-0.131-0.078-0.175-0.726-0.223-0.875-0.259-0.768-0.732-1.406-1.347-1.865l-0.010-0.007c-0.196-0.148-0.681-0.341-0.793-0.544-0.125-0.221-0.012-0.741-0.008-0.981 0.007-0.35-0.152-0.932-0.066-1.25 0.1-0.367-0.093-0.146 0.236-0.218 0.173-0.039 0.888 0.087 1.104 0.132 0.343 0.071 0.531 0.284 0.801 0.5 0.71 0.569 1.492 1.010 2.288 1.446 0.616 0.341 0.798 0.773 0.404 1.476z"></path>
<path d="M15.529 8.193c0.296 0.289 0.575 0.632 1.017 0.661 0.418 0.028 0.813-0.198 1.177 0.086 0.405 0.313 0.697 0.708 1.234 0.806 0.52 0.094 1.071-0.209 1.199-0.741 0.125-0.507-0.144-1.058-0.161-1.567 0-0.071 0.038-0.384-0.011-0.437-0.036-0.040-0.339 0.005-0.385 0.006q-0.508 0.015-1.014 0.070c-1.322 0.146-2.531 0.469-3.659 0.948l0.085-0.032c0.152 0.105 0.342 0.147 0.516 0.201z"></path>
<path d="M26.275 11.704c0.531 0 1.069-0.237 0.898-0.851-0.144-0.514-0.389-1.072-0.985-0.795-0.379 0.176-0.917 0.625-0.961 1.070-0.051 0.505 0.694 0.576 1.048 0.576z"></path>
<path d="M25.851 14.39c0.542 0.324 1.346 0.172 1.754-0.291 0.319-0.362 0.507-0.992 1.082-0.991 0.001 0 0.001 0 0.002 0 0.263 0 0.501 0.105 0.674 0.276l-0-0c0.238 0.246 0.191 0.476 0.241 0.784 0.113 0.691 0.854 0.039 1.047-0.228 0.125-0.174 0.294-0.433 0.238-0.66-0.053-0.212-0.3-0.438-0.41-0.632-0.321-0.562-0.586-1.217-1.067-1.671-0.463-0.438-1.032-0.387-1.472 0.068-0.36 0.375-0.778 0.672-1.024 1.128-0.174 0.321-0.369 0.474-0.721 0.557-0.194 0.046-0.415 0.063-0.578 0.193-0.452 0.356-0.195 1.212 0.234 1.469z"></path>
</svg>
