<!-- Generated by IcoMoon.io -->
<svg version="1.1" xmlns="http://www.w3.org/2000/svg" width="40" height="40" viewBox="0 0 40 40">
<title>io-ellipsis-vertical-circle-sharp</title>
<path d="M33 20c0-7.179-5.821-13-13-13s-13 5.821-13 13 5.821 13 13 13 13-5.821 13-13zM18.375 14.375c0-0.897 0.728-1.625 1.625-1.625s1.625 0.728 1.625 1.625c0 0.897-0.728 1.625-1.625 1.625v0c-0.897 0-1.625-0.728-1.625-1.625v0zM18.375 20c0-0.897 0.728-1.625 1.625-1.625s1.625 0.728 1.625 1.625c0 0.897-0.728 1.625-1.625 1.625v0c-0.897 0-1.625-0.728-1.625-1.625v0zM18.375 25.625c0-0.897 0.728-1.625 1.625-1.625s1.625 0.728 1.625 1.625c0 0.897-0.728 1.625-1.625 1.625v0c-0.897 0-1.625-0.728-1.625-1.625v0z"></path>
</svg>
