<!-- Generated by IcoMoon.io -->
<svg version="1.1" xmlns="http://www.w3.org/2000/svg" width="40" height="40" viewBox="0 0 40 40">
<title>io-ellipsis-vertical-circle</title>
<path d="M21.625 20c0 0.897-0.728 1.625-1.625 1.625s-1.625-0.728-1.625-1.625c0-0.897 0.728-1.625 1.625-1.625s1.625 0.728 1.625 1.625z"></path>
<path d="M21.625 25.625c0 0.897-0.728 1.625-1.625 1.625s-1.625-0.728-1.625-1.625c0-0.897 0.728-1.625 1.625-1.625s1.625 0.728 1.625 1.625z"></path>
<path d="M21.625 14.375c0 0.897-0.728 1.625-1.625 1.625s-1.625-0.728-1.625-1.625c0-0.897 0.728-1.625 1.625-1.625s1.625 0.728 1.625 1.625z"></path>
<path fill="none" stroke-linejoin="miter" stroke-linecap="butt" stroke-miterlimit="10" stroke-width="2.5" stroke="#000" d="M32 20c0-6.625-5.375-12-12-12s-12 5.375-12 12 5.375 12 12 12 12-5.375 12-12z"></path>
</svg>
