<!-- Generated by IcoMoon.io -->
<svg version="1.1" xmlns="http://www.w3.org/2000/svg" width="40" height="40" viewBox="0 0 40 40">
<title>io-film</title>
<path d="M31.25 9h-22.5c-1.518 0.002-2.748 1.232-2.75 2.75v16.5c0.002 1.518 1.232 2.748 2.75 2.75h22.5c1.518-0.002 2.748-1.232 2.75-2.75v-16.5c-0.002-1.518-1.232-2.748-2.75-2.75h-0zM11 28.25c0 0.414-0.336 0.75-0.75 0.75v0h-1.5c-0.414 0-0.75-0.336-0.75-0.75v0-1.5c0-0.414 0.336-0.75 0.75-0.75v0h1.5c0.414 0 0.75 0.336 0.75 0.75v0zM11 23.25c0 0.414-0.336 0.75-0.75 0.75v0h-1.5c-0.414 0-0.75-0.336-0.75-0.75v0-1.5c0-0.414 0.336-0.75 0.75-0.75v0h1.5c0.414 0 0.75 0.336 0.75 0.75v0zM11 18.25c0 0.414-0.336 0.75-0.75 0.75v0h-1.5c-0.414 0-0.75-0.336-0.75-0.75v0-1.5c0-0.414 0.336-0.75 0.75-0.75v0h1.5c0.414 0 0.75 0.336 0.75 0.75v0zM11 13.25c0 0.414-0.336 0.75-0.75 0.75v0h-1.5c-0.414 0-0.75-0.336-0.75-0.75v0-1.5c0-0.414 0.336-0.75 0.75-0.75v0h1.5c0.414 0 0.75 0.336 0.75 0.75v0zM26.105 21h-12.21c-0.552 0-1-0.448-1-1s0.448-1 1-1v0h12.21c0.552 0 1 0.448 1 1s-0.448 1-1 1v0zM32 28.25c0 0.414-0.336 0.75-0.75 0.75v0h-1.5c-0.414 0-0.75-0.336-0.75-0.75v0-1.5c0-0.414 0.336-0.75 0.75-0.75v0h1.5c0.414 0 0.75 0.336 0.75 0.75v0zM32 23.25c0 0.414-0.336 0.75-0.75 0.75v0h-1.5c-0.414 0-0.75-0.336-0.75-0.75v0-1.5c0-0.414 0.336-0.75 0.75-0.75v0h1.5c0.414 0 0.75 0.336 0.75 0.75v0zM32 18.25c0 0.414-0.336 0.75-0.75 0.75v0h-1.5c-0.414 0-0.75-0.336-0.75-0.75v0-1.5c0-0.414 0.336-0.75 0.75-0.75v0h1.5c0.414 0 0.75 0.336 0.75 0.75v0zM32 13.25c0 0.414-0.336 0.75-0.75 0.75v0h-1.5c-0.414 0-0.75-0.336-0.75-0.75v0-1.5c0-0.414 0.336-0.75 0.75-0.75v0h1.5c0.414 0 0.75 0.336 0.75 0.75v0z"></path>
</svg>
