<!-- Generated by IcoMoon.io -->
<svg version="1.1" xmlns="http://www.w3.org/2000/svg" width="40" height="40" viewBox="0 0 40 40">
<title>io-flash</title>
<path d="M16.176 35c-0 0-0.001 0-0.001 0-0.634 0-1.148-0.514-1.148-1.148 0-0.070 0.006-0.139 0.018-0.205l-0.001 0.007v-0.007l1.757-9.648h-6.802c-0.552-0-1-0.448-1-1 0-0.239 0.084-0.459 0.224-0.631l-0.001 0.002 13.698-16.934c0.213-0.269 0.539-0.44 0.906-0.44 0.637 0 1.153 0.516 1.153 1.153 0 0.051-0.003 0.1-0.010 0.149l0.001-0.006c0 0.019-0.005 0.037-0.008 0.056l-1.763 9.65h6.801c0.552 0 1 0.448 1 1 0 0.239-0.084 0.459-0.224 0.631l0.001-0.002-13.7 16.934c-0.212 0.267-0.537 0.437-0.901 0.438h-0z"></path>
</svg>
