<!-- Generated by IcoMoon.io -->
<svg version="1.1" xmlns="http://www.w3.org/2000/svg" width="40" height="40" viewBox="0 0 40 40">
<title>io-flash-off</title>
<path d="M31 32c-0 0-0.001 0-0.002 0-0.276 0-0.525-0.112-0.705-0.293l-22-22c-0.17-0.179-0.275-0.422-0.275-0.689 0-0.552 0.448-1 1-1 0.267 0 0.51 0.105 0.689 0.275l22 22c0.181 0.181 0.293 0.431 0.293 0.707 0 0.552-0.447 1-0.999 1h-0z"></path>
<path d="M30.969 16.75c-0.115-0.435-0.505-0.75-0.968-0.75-0 0-0 0-0.001 0h-6.801l1.763-9.648c0.003-0.019 0.006-0.037 0.008-0.056 0.006-0.044 0.009-0.094 0.009-0.146 0-0.637-0.516-1.153-1.153-1.153-0.366 0-0.693 0.171-0.904 0.438l-0.002 0.002-5.786 7.154c-0.035 0.043-0.056 0.097-0.056 0.157 0 0.069 0.028 0.132 0.074 0.177v0l9.438 9.438c0.045 0.045 0.108 0.073 0.177 0.073 0.078 0 0.148-0.036 0.194-0.092l0-0 3.8-4.697c0.147-0.176 0.237-0.405 0.237-0.654 0-0.086-0.011-0.169-0.031-0.249l0.001 0.007z"></path>
<path d="M22.848 27.074l-9.438-9.438c-0.045-0.045-0.108-0.073-0.177-0.073-0.078 0-0.148 0.036-0.194 0.092l-0 0-3.803 4.696c-0.147 0.176-0.236 0.404-0.236 0.653 0 0.087 0.011 0.171 0.031 0.251l-0.001-0.007c0.115 0.435 0.505 0.75 0.968 0.75 0 0 0 0 0.001 0h6.802l-1.756 9.648v0.007c-0.011 0.059-0.017 0.126-0.017 0.195 0 0.634 0.514 1.148 1.148 1.148 0.364 0 0.688-0.169 0.898-0.433l0.002-0.002 5.788-7.154c0.035-0.043 0.056-0.098 0.056-0.157 0-0.069-0.028-0.132-0.073-0.177v0z"></path>
</svg>
