<!-- Generated by IcoMoon.io -->
<svg version="1.1" xmlns="http://www.w3.org/2000/svg" width="40" height="40" viewBox="0 0 40 40">
<title>io-flashlight</title>
<path d="M32.875 17.5c0.584-0.584 0.946-1.193 1.074-1.809 0.169-0.809-0.081-1.597-0.701-2.217l-6.721-6.72c-0.884-0.883-2.402-1.249-4.027 0.372l-0.125 0.125c-0.091 0.091-0.147 0.216-0.147 0.354s0.056 0.263 0.147 0.354v0l9.665 9.667c0.091 0.091 0.216 0.148 0.355 0.148s0.264-0.057 0.355-0.148l0-0z"></path>
<path d="M19.634 13.567l-0.010 0.146c-0.033 0.449-0.43 1.197-0.867 1.634l-11.802 11.8c-0.695 0.694-1.029 1.598-0.941 2.544 0.079 0.845 0.496 1.684 1.174 2.361l0.761 0.761c0.788 0.788 1.736 1.188 2.656 1.188 0.882-0.002 1.679-0.366 2.249-0.952l0.001-0.001 11.802-11.8c0.442-0.442 1.178-0.831 1.636-0.867 1.092-0.082 2.723-0.205 4.237-0.978 0.081-0.043 0.135-0.126 0.135-0.222 0-0.069-0.028-0.131-0.073-0.176v0l-9.611-9.61c-0.045-0.045-0.108-0.073-0.177-0.073-0.096 0-0.18 0.055-0.222 0.134l-0.001 0.001c-0.758 1.437-0.864 2.932-0.947 4.111zM19.012 22.744c-0.231 0.282-0.579 0.461-0.969 0.461-0.69 0-1.25-0.56-1.25-1.25s0.56-1.25 1.25-1.25c0.39 0 0.738 0.179 0.968 0.459l0.002 0.002c0.175 0.213 0.281 0.489 0.281 0.789s-0.106 0.576-0.282 0.791l0.002-0.002z"></path>
</svg>
