<!-- Generated by IcoMoon.io -->
<svg version="1.1" xmlns="http://www.w3.org/2000/svg" width="40" height="40" viewBox="0 0 40 40">
<title>io-fish-sharp</title>
<path d="M24.966 20c0-0.001 0-0.003 0-0.004 0-2.485 0.675-4.812 1.852-6.808l-0.034 0.063 0.476-0.829c-0.886-0.221-1.926-0.38-2.991-0.445l-0.049-0.002c-1.371-1.056-3.415-2.309-5.771-2.708l-1.448-0.266 0.836 3.866c-2.604 0.884-4.902 2.679-6.422 3.914q-0.441-0.369-0.924-0.722c-2.482-1.813-5.162-1.988-5.275-1.994l-1.214-0.064 0.167 1.207c0.018 0.125 0.424 2.796 1.978 4.783-1.554 1.988-1.957 4.656-1.978 4.783l-0.167 1.227 1.214-0.085c0.112-0.006 2.793-0.181 5.275-1.994q0.474-0.346 0.91-0.711c1.523 1.239 3.821 3.037 6.429 3.921l-0.828 3.868 1.448-0.264c2.343-0.396 4.38-1.65 5.75-2.707 1.13-0.067 2.184-0.228 3.204-0.477l-0.122 0.025-0.494-0.824c-1.144-1.935-1.821-4.265-1.821-6.753 0-0 0-0 0-0.001v0z"></path>
<path d="M35.224 17.859c-0.366-0.617-1.034-1.556-2.137-2.518-1.102-0.953-2.385-1.734-3.786-2.282l-0.089-0.031-0.698 1.221c-0.974 1.648-1.549 3.632-1.549 5.751 0 2.114 0.573 4.095 1.572 5.795l-0.029-0.054 0.734 1.223c1.475-0.571 2.747-1.342 3.856-2.295l-0.017 0.015c1.984-1.717 2.918-3.872 2.918-4.684 0-0.769-0.5-1.671-0.776-2.141zM30 20c-0.552 0-1-0.448-1-1s0.448-1 1-1c0.552 0 1 0.448 1 1v0c0 0.552-0.448 1-1 1v0z"></path>
</svg>
