<!-- Generated by IcoMoon.io -->
<svg version="1.1" xmlns="http://www.w3.org/2000/svg" width="40" height="40" viewBox="0 0 40 40">
<title>io-gift-sharp</title>
<path d="M18.625 13h2.75v7h10.25c0.759 0 1.375-0.616 1.375-1.375v0-4.25c0-0.759-0.616-1.375-1.375-1.375v0h-3.739c0.309-0.622 0.489-1.354 0.489-2.128 0-2.691-2.181-4.872-4.872-4.872-1.375 0-2.617 0.569-3.502 1.485l-0.001 0.001c-0.887-0.91-2.124-1.475-3.494-1.475-2.692 0-4.875 2.183-4.875 4.875 0 0.768 0.178 1.495 0.494 2.142l-0.013-0.029h-3.738c-0.759 0-1.375 0.616-1.375 1.375v0 4.25c0 0.759 0.616 1.375 1.375 1.375v0h10.25zM21.375 10.875c0-1.174 0.951-2.125 2.125-2.125s2.125 0.951 2.125 2.125c0 1.174-0.951 2.125-2.125 2.125v0h-2.125zM14.375 10.875c0-1.174 0.951-2.125 2.125-2.125s2.125 0.951 2.125 2.125v0 2.125h-2.125c-1.174 0-2.125-0.951-2.125-2.125v0z"></path>
<path d="M21.375 34h8.25c0.759 0 1.375-0.616 1.375-1.375v0-10.625h-9.625z"></path>
<path d="M9 32.625c0 0.759 0.616 1.375 1.375 1.375v0h8.25v-12h-9.625z"></path>
</svg>
