<!-- Generated by IcoMoon.io -->
<svg version="1.1" xmlns="http://www.w3.org/2000/svg" width="40" height="40" viewBox="0 0 40 40">
<title>io-heart-dislike-sharp</title>
<path d="M6 8.028l24.342 24.371 1.428-1.404-24.341-24.37-1.428 1.403z"></path>
<path d="M7.917 16.057c-0.035 3.477 1.236 6.684 3.885 9.805 2.516 2.964 5.91 4.979 8.592 6.763l0.563 0.375 0.563-0.375c1.156-0.769 2.444-1.581 3.737-2.493l-16.772-16.802c-0.35 0.804-0.557 1.74-0.567 2.723l-0 0.004z"></path>
<path d="M30.114 25.862c2.649-3.121 3.92-6.328 3.885-9.805-0.039-3.875-3.163-7.034-6.964-7.034-3.016 0-5.022 1.75-6.077 3.011-1.055-1.262-3.063-3.011-6.077-3.011-0.697 0-1.369 0.106-2.002 0.302l0.048-0.013 16.875 16.905c0.107-0.118 0.211-0.236 0.312-0.356z"></path>
</svg>
