<!-- Generated by IcoMoon.io -->
<svg version="1.1" xmlns="http://www.w3.org/2000/svg" width="40" height="40" viewBox="0 0 40 40">
<title>io-hammer-outline</title>
<path fill="none" stroke-linejoin="round" stroke-linecap="round" stroke-miterlimit="4" stroke-width="2.5" stroke="#000" d="M21.339 19.438c-0.072-0.131-0.157-0.243-0.255-0.342l0 0-1.146-1.131c-0.115-0.117-0.251-0.213-0.402-0.282l-0.008-0.003c-0.157-0.072-0.34-0.113-0.533-0.113-0.36 0-0.686 0.145-0.922 0.38l0-0c-0.397 0.391-1.125 1.105-2.437 2.402-2.51 2.483-7.171 6.645-9.278 8.42-0.22 0.185-0.358 0.46-0.358 0.767 0 0.275 0.111 0.524 0.29 0.704l-0-0 2.438 2.464c0.183 0.183 0.435 0.296 0.714 0.296 0.306 0 0.579-0.136 0.764-0.351l0.001-0.001c1.827-2.148 6.019-6.813 8.5-9.264 1.274-1.254 1.989-1.974 2.393-2.371 0.241-0.245 0.39-0.582 0.39-0.954 0-0.227-0.056-0.441-0.154-0.629l0.004 0.008z"></path>
<path fill="none" stroke-linejoin="round" stroke-linecap="round" stroke-miterlimit="4" stroke-width="2.5" stroke="#000" d="M33.902 16.563l-2.144-2.125c-0.062-0.061-0.146-0.099-0.24-0.099-0.003 0-0.007 0-0.010 0h0.001c-0.002-0-0.004-0-0.006-0-0.095 0-0.181 0.038-0.244 0.099l0-0c-0.129 0.13-0.308 0.21-0.506 0.21-0.032 0-0.064-0.002-0.095-0.006l0.004 0c-0.28-0.031-0.578-0.117-0.771-0.304-0.438-0.429 0.068-1.273-0.317-1.813-0.461-0.616-0.934-1.161-1.443-1.67l0 0c-0.441-0.438-2.176-2.092-5.097-3.283-0.867-0.365-1.875-0.577-2.933-0.577-0.002 0-0.003 0-0.005 0h0c-1.647 0-2.913 0.735-3.375 1.157-0.367 0.332-0.75 0.861-0.75 0.861 0.18-0.069 0.406-0.138 0.637-0.192l0.039-0.008c0.313-0.070 0.673-0.11 1.042-0.11 0.146 0 0.29 0.006 0.432 0.019l-0.019-0.001c0.973 0.081 2.144 0.537 2.773 1.031 1.013 0.813 1.449 1.899 1.517 3.302 0.050 1.043-0.952 2.36-1.902 3.434-0.077 0.086-0.123 0.2-0.123 0.325 0 0.138 0.057 0.262 0.148 0.351l1.328 1.327c0.090 0.089 0.214 0.144 0.351 0.144 0.134 0 0.255-0.053 0.345-0.138l-0 0c0.871-0.844 1.943-1.779 2.551-2.154s1.099-0.48 1.334-0.506c0.064-0.007 0.139-0.010 0.215-0.010 0.411 0 0.796 0.111 1.127 0.305l-0.011-0.006c0.074 0.042 0.137 0.091 0.192 0.149l0 0c0.404 0.41 0.379 1.080-0.031 1.484l-0.125 0.118c-0.063 0.062-0.103 0.149-0.103 0.245s0.039 0.183 0.103 0.245l0 0 2.144 2.125c0.062 0.061 0.147 0.099 0.241 0.099 0.003 0 0.006-0 0.009-0h-0c0.001 0 0.003 0 0.005 0 0.095 0 0.182-0.038 0.245-0.099l-0 0 3.466-3.428c0.062-0.065 0.1-0.153 0.1-0.25s-0.038-0.185-0.1-0.25l0 0z"></path>
</svg>
