<!-- Generated by IcoMoon.io -->
<svg version="1.1" xmlns="http://www.w3.org/2000/svg" width="40" height="40" viewBox="0 0 40 40">
<title>io-heart-dislike-outline</title>
<path d="M30.115 32c-0.001 0-0.001 0-0.002 0-0.277 0-0.527-0.113-0.708-0.295l-0-0-22.865-23.001c-0.18-0.181-0.291-0.43-0.291-0.705 0-0.552 0.448-1 1-1 0.277 0 0.528 0.113 0.709 0.295l0 0 22.864 23c0.18 0.181 0.292 0.431 0.292 0.706 0 0.552-0.448 1-1 1-0 0-0.001 0-0.001 0h0z"></path>
<path d="M26.808 9c-3.006 0-5 1.847-6.058 3.188-1.055-1.342-3.052-3.188-6.057-3.188-0.001 0-0.003 0-0.005 0-0.689 0-1.354 0.104-1.98 0.297l0.048-0.013 1.745 1.716c1.391 0 2.863 0.563 3.996 1.667 0.526 0.513 0.978 1.098 1.339 1.741l0.020 0.039c0.168 0.33 0.505 0.551 0.894 0.551s0.726-0.222 0.891-0.546l0.003-0.006c0.382-0.682 0.834-1.269 1.359-1.78l0.002-0.002c1.133-1.102 2.413-1.664 3.804-1.664 2.697 0 4.914 2.271 4.942 5.062 0.034 3.356-1.422 6.222-3.586 8.72l1.414 1.423c0.188-0.215 0.356-0.415 0.509-0.6 2.5-3.047 3.697-6.175 3.663-9.563-0.039-3.886-3.153-7.043-6.942-7.043z"></path>
<path d="M20.75 31c-5.476-3.718-11.062-8.4-11-14.938 0.004-0.41 0.055-0.806 0.147-1.185l-0.007 0.036-1.578-1.592c-0.347 0.802-0.552 1.735-0.562 2.714l-0 0.004c-0.034 3.389 1.164 6.517 3.663 9.563 1.173 1.429 3.3 3.716 8.212 7.050 0.315 0.218 0.705 0.349 1.125 0.349s0.81-0.13 1.132-0.353l-0.007 0.004c1.272-0.863 2.356-1.656 3.286-2.382l-1.416-1.426c-0.979 0.756-1.989 1.471-2.995 2.156z"></path>
</svg>
