<!-- Generated by IcoMoon.io -->
<svg version="1.1" xmlns="http://www.w3.org/2000/svg" width="40" height="40" viewBox="0 0 40 40">
<title>io-happy</title>
<path d="M29.899 10.101c-2.538-2.563-6.058-4.149-9.948-4.149-7.732 0-14 6.268-14 14 0 3.89 1.587 7.41 4.148 9.947l0.001 0.001c2.538 2.563 6.058 4.149 9.948 4.149 7.732 0 14-6.268 14-14 0-3.89-1.587-7.41-4.148-9.947l-0.001-0.001zM15.5 17c0.828 0 1.5 0.672 1.5 1.5s-0.672 1.5-1.5 1.5c-0.828 0-1.5-0.672-1.5-1.5v0c0-0.001 0-0.002 0-0.004 0-0.826 0.67-1.496 1.496-1.496 0.001 0 0.003 0 0.004 0h-0zM25.979 23.636c-0.75 2.519-3.138 4.364-5.976 4.364s-5.226-1.846-5.982-4.364c-0.012-0.041-0.019-0.087-0.019-0.136 0-0.276 0.224-0.5 0.5-0.5 0.003 0 0.006 0 0.009 0h10.98c0.002-0 0.005-0 0.008-0 0.276 0 0.5 0.224 0.5 0.5 0 0.048-0.007 0.095-0.020 0.139l0.001-0.004zM24.5 20c-0.828 0-1.5-0.672-1.5-1.5s0.672-1.5 1.5-1.5c0.828 0 1.5 0.672 1.5 1.5v0c0 0.001 0 0.002 0 0.004 0 0.826-0.67 1.496-1.496 1.496-0.001 0-0.003 0-0.004 0h0z"></path>
</svg>
