<!-- Generated by IcoMoon.io -->
<svg version="1.1" xmlns="http://www.w3.org/2000/svg" width="40" height="40" viewBox="0 0 40 40">
<title>io-heart-dislike-circle-sharp</title>
<path d="M20 7c-7.168 0-13 5.832-13 13s5.832 13 13 13 13-5.832 13-13-5.832-13-13-13zM23.983 26.397l-11.446-11.394 1.421-1.407 11.449 11.398zM20.014 26.701c-2.21-1.563-4.144-3.245-4.682-3.9-1.25-1.523-1.849-3.088-1.831-4.781 0.002-0.207 0.022-0.408 0.056-0.604l-0.003 0.022 8.138 8.087c-0.214 0.162-1.013 0.716-1.678 1.176zM24.668 22.801l-0.019 0.024-8.316-8.262c0.192-0.039 0.412-0.062 0.638-0.063h0c0.004 0 0.008-0 0.013-0 1.086 0 2.063 0.467 2.741 1.21l0.003 0.003 0.273 0.287 0.273-0.287c0.681-0.746 1.657-1.213 2.743-1.213 0.005 0 0.009 0 0.014 0h-0.001c1.894 0 3.451 1.579 3.471 3.521 0.017 1.693-0.582 3.258-1.831 4.781z"></path>
</svg>
