<!-- Generated by IcoMoon.io -->
<svg version="1.1" xmlns="http://www.w3.org/2000/svg" width="40" height="40" viewBox="0 0 40 40">
<title>io-ice-cream-outline</title>
<path fill="none" stroke-linejoin="round" stroke-linecap="round" stroke-miterlimit="4" stroke-width="2.5" stroke="#000" d="M26 20l-6 14-3.875-9.063"></path>
<path fill="none" stroke-linejoin="round" stroke-linecap="round" stroke-miterlimit="4" stroke-width="2.5" stroke="#000" d="M22.714 17.968c-0.48 1.017-1.515 1.782-2.714 1.782-0.819 0-1.688-0.313-2.102-0.61-0.381-0.273-0.898-0.14-0.898 0.485v3.875c-0.002 0.827-0.673 1.498-1.5 1.5h-0c-0.827-0.002-1.498-0.673-1.5-1.5v-3.5h-0.125c-2.209 0-3.875-1.791-3.875-4s1.791-4 4-4v0h0.5v-0.5c0-3.038 2.462-5.5 5.5-5.5s5.5 2.462 5.5 5.5v0 0.5h0.5c2.209 0 4 1.791 4 4s-1.791 4-4 4v0c-1.361 0-2.625-0.813-3.287-2.032z"></path>
</svg>
