<!-- Generated by IcoMoon.io -->
<svg version="1.1" xmlns="http://www.w3.org/2000/svg" width="40" height="40" viewBox="0 0 40 40">
<title>io-information-circle</title>
<path d="M20 7.5c-6.892 0-12.5 5.608-12.5 12.5s5.608 12.5 12.5 12.5 12.5-5.608 12.5-12.5-5.608-12.5-12.5-12.5zM20 12.625c0.897 0 1.625 0.728 1.625 1.625s-0.728 1.625-1.625 1.625c-0.897 0-1.625-0.728-1.625-1.625v0c0-0.897 0.728-1.625 1.625-1.625v0zM23 26.75h-5.5c-0.552 0-1-0.448-1-1s0.448-1 1-1v0h1.75v-5.5h-1c-0.552 0-1-0.448-1-1s0.448-1 1-1v0h2c0.552 0 1 0.448 1 1v0 6.5h1.75c0.552 0 1 0.448 1 1s-0.448 1-1 1v0z"></path>
</svg>
