<!-- Generated by IcoMoon.io -->
<svg version="1.1" xmlns="http://www.w3.org/2000/svg" width="40" height="40" viewBox="0 0 40 40">
<title>io-lock-open-sharp</title>
<path d="M30.25 16h-13.875v-5.047c0.003-2.003 1.627-3.625 3.63-3.625 1 0 1.905 0.404 2.562 1.058l-0-0c0.654 0.669 1.058 1.585 1.058 2.596 0 0.006-0 0.013-0 0.019v-0.001h2.375c0-3.314-2.686-6-6-6s-6 2.686-6 6v0 5h-4.25c-0.414 0-0.75 0.336-0.75 0.75v0 17.5c0 0.414 0.336 0.75 0.75 0.75v0h20.5c0.414 0 0.75-0.336 0.75-0.75v0-17.5c0-0.414-0.336-0.75-0.75-0.75v0z"></path>
</svg>
