<!-- Generated by IcoMoon.io -->
<svg version="1.1" xmlns="http://www.w3.org/2000/svg" width="40" height="40" viewBox="0 0 40 40">
<title>io-logo-dribbble</title>
<path d="M20 6c-7.729 0-14 6.271-14 14s6.271 14 14 14 14-6.264 14-14-6.271-14-14-14zM28.889 12.453c1.562 1.827 2.572 4.168 2.748 6.738l0.002 0.036c-2.523-0.131-5.542-0.131-7.963 0.095-0.306-0.773-0.62-1.531-0.962-2.261 2.791-1.21 4.942-2.8 6.175-4.608zM20 8.333c0.006 0 0.013-0 0.020-0 2.832 0 5.428 1.014 7.443 2.699l-0.018-0.015c-1.269 1.604-3.259 3-5.739 4.054-1.356-2.508-2.917-4.666-4.581-6.366 0.861-0.232 1.851-0.367 2.872-0.372h0.003zM14.721 9.609c1.684 1.677 3.267 3.813 4.653 6.313-2.633 0.804-5.651 1.266-8.873 1.266-0.613 0-1.21-0.022-1.801-0.059 0.864-3.307 3.055-5.988 5.956-7.489l0.065-0.031zM8.355 19.446c0.664 0.029 1.334 0.044 2.012 0.037 3.675-0.044 7.095-0.62 10.034-1.563q0.416 0.864 0.787 1.772c-0.407 0.090-0.756 0.197-1.092 0.329l0.049-0.017c-4.018 1.688-7.182 4.407-8.896 7.696-1.811-2.040-2.917-4.741-2.917-7.7v-0c0-0.188 0.008-0.372 0.022-0.554zM20 31.667c-0.004 0-0.009 0-0.014 0-2.704 0-5.192-0.925-7.164-2.476l0.025 0.019c1.553-3.077 4.324-5.625 7.817-7.204 0.328-0.153 0.766-0.277 1.269-0.386q0.625 1.728 1.116 3.588c0.436 1.584 0.814 3.516 1.056 5.49l0.020 0.205c-1.224 0.483-2.641 0.764-4.124 0.766h-0.001zM26.307 29.808c-0.262-2.197-0.643-4.149-1.154-6.047l0.067 0.294c-0.25-0.948-0.532-1.867-0.838-2.764 2.289-0.188 5.031-0.161 7.211 0-0.411 3.588-2.398 6.642-5.241 8.489l-0.045 0.028z"></path>
</svg>
