<!-- Generated by IcoMoon.io -->
<svg version="1.1" xmlns="http://www.w3.org/2000/svg" width="40" height="40" viewBox="0 0 40 40">
<title>io-list-circle-sharp</title>
<path d="M20 7c-7.168 0-13 5.832-13 13s5.832 13 13 13 13-5.832 13-13-5.832-13-13-13zM16 24.969c0 0.552-0.448 1-1 1v0h-1c-0.552 0-1-0.448-1-1v0-1c0-0.552 0.448-1 1-1v0h1c0.552 0 1 0.448 1 1v0zM16 20.531c0 0.552-0.448 1-1 1v0h-1c-0.552 0-1-0.448-1-1v0-1c0-0.552 0.448-1 1-1v0h1c0.552 0 1 0.448 1 1v0zM16 16.031c0 0.552-0.448 1-1 1v0h-1c-0.552 0-1-0.448-1-1v0-1c0-0.552 0.448-1 1-1v0h1c0.552 0 1 0.448 1 1v0zM27 25.469h-9.708v-2h9.708zM27 21.031h-9.708v-2h9.708zM27 16.531h-9.708v-2h9.708z"></path>
</svg>
