<!-- Generated by IcoMoon.io -->
<svg version="1.1" xmlns="http://www.w3.org/2000/svg" width="40" height="40" viewBox="0 0 40 40">
<title>io-laptop</title>
<path d="M35 29h-1.771c0.478-0.529 0.771-1.233 0.771-2.006 0-0.001 0-0.002 0-0.003v0-14.983c-0.002-1.661-1.348-3.007-3.009-3.009h-21.983c-1.661 0.002-3.007 1.348-3.009 3.009v14.983c0 0.001 0 0.002 0 0.003 0 0.773 0.293 1.477 0.774 2.009l-0.002-0.003h-1.771c-0.552 0-1 0.448-1 1s0.448 1 1 1v0h30c0.552 0 1-0.448 1-1s-0.448-1-1-1v0z"></path>
</svg>
