<!-- Generated by IcoMoon.io -->
<svg version="1.1" xmlns="http://www.w3.org/2000/svg" width="40" height="40" viewBox="0 0 40 40">
<title>io-logo-firebase</title>
<path d="M9.824 24.586l2.966-19.004c0.103-0.648 0.972-0.801 1.279-0.222l3.188 5.966zM31 29l-2.921-17.299c-0.057-0.326-0.339-0.571-0.678-0.571-0.187 0-0.357 0.075-0.481 0.196l0-0-17.92 17.674 9.96 5.744c0.288 0.161 0.631 0.256 0.997 0.256s0.709-0.095 1.008-0.261l-0.011 0.005zM22.898 13.933l-2.284-4.346c-0.115-0.222-0.342-0.371-0.605-0.371s-0.49 0.149-0.603 0.367l-0.002 0.004-10.039 17.897z"></path>
</svg>
