<!-- Generated by IcoMoon.io -->
<svg version="1.1" xmlns="http://www.w3.org/2000/svg" width="40" height="40" viewBox="0 0 40 40">
<title>io-logo-steam</title>
<path d="M33.925 17.012c0 1.243-1.007 2.25-2.25 2.25s-2.25-1.007-2.25-2.25c0-1.243 1.007-2.25 2.25-2.25v0c1.243 0 2.25 1.007 2.25 2.25v0zM31.662 12.688c-2.38 0.001-4.312 1.917-4.337 4.291l-0 0.002-2.7 3.875c-0.101-0.012-0.219-0.019-0.337-0.019h-0c-0.001 0-0.001 0-0.002 0-0.609 0-1.178 0.17-1.662 0.464l0.014-0.008-12.238-4.919c-0.33-1.465-1.62-2.544-3.162-2.544-1.788 0-3.238 1.449-3.238 3.237s1.449 3.237 3.237 3.238v0c0.001 0 0.001 0 0.002 0 0.609 0 1.178-0.17 1.662-0.464l-0.014 0.008 12.237 4.913c0.326 1.469 1.618 2.55 3.162 2.55 1.675 0 3.053-1.274 3.218-2.905l0.001-0.014 4.156-3.038c2.394 0 4.334-1.941 4.334-4.334s-1.941-4.334-4.334-4.334v0zM31.662 14.119c1.602 0.002 2.9 1.301 2.9 2.903 0 1.603-1.3 2.903-2.903 2.903-1.602 0-2.901-1.298-2.903-2.9v-0c0.001-1.604 1.302-2.905 2.906-2.906h0zM7.237 14.681c0 0 0.001 0 0.001 0 0.906 0 1.695 0.505 2.099 1.25l0.006 0.013-1.181-0.475v0.006c-0.193-0.073-0.416-0.115-0.65-0.115-1.043 0-1.888 0.845-1.888 1.888 0 0.767 0.457 1.427 1.113 1.722l0.012 0.005v0.006l1.006 0.4c-0.152 0.036-0.326 0.056-0.506 0.056-0.002 0-0.005 0-0.007 0h0c-0.001 0-0.002 0-0.003 0-1.313 0-2.378-1.065-2.378-2.378 0-1.312 1.063-2.376 2.375-2.378h0zM24.288 21.694c1.315 0.001 2.38 1.066 2.38 2.381s-1.066 2.381-2.381 2.381c-0.908 0-1.698-0.508-2.099-1.256l-0.006-0.013c0.394 0.156 0.781 0.313 1.175 0.475 0.213 0.090 0.461 0.143 0.721 0.143 1.045 0 1.892-0.847 1.892-1.892 0-0.799-0.495-1.481-1.194-1.759l-0.013-0.004-0.994-0.4c0.154-0.032 0.333-0.053 0.516-0.056l0.003-0z"></path>
</svg>
