<!-- Generated by IcoMoon.io -->
<svg version="1.1" xmlns="http://www.w3.org/2000/svg" width="40" height="40" viewBox="0 0 40 40">
<title>io-logo-edge</title>
<path d="M19.969 4.938v0c-8.25 0-15 6.75-15 15s6.75 15 15 15v0c5.337 0 10.050-2.825 12.706-7.056 0.042-0.065 0.066-0.144 0.066-0.229 0-0.237-0.192-0.429-0.429-0.429-0.075 0-0.146 0.019-0.208 0.054l0.002-0.001c-0.327 0.196-0.706 0.377-1.103 0.522l-0.047 0.015c-2.3 0.787-3.569 0.819-5.131 0.75-1.744-0.075-3.869-0.675-5.363-1.563s-2.719-2.162-3.381-3.269-1.063-2.494-0.881-4.269c0.181-1.812 1.838-3.287 3.775-3.287v0c2.094 0 3.8 1.663 3.8 3.756 0 1.063-0.506 1.981-1.156 2.719v0c-0.144 0.131-0.475 0.606 0.362 1.25 0.994 0.762 3.225 1.125 4.994 1.037s3.694-0.788 5.012-2.175c1.050-1.106 1.987-2.881 1.987-4.838-0.006-7.819-7.256-12.988-15.006-12.988z"></path>
</svg>
