<!-- Generated by IcoMoon.io -->
<svg version="1.1" xmlns="http://www.w3.org/2000/svg" width="40" height="40" viewBox="0 0 40 40">
<title>io-logo-flickr</title>
<path d="M20 6v0c-7.7 0-14 6.3-14 14v0c0 7.7 6.3 14 14 14v0c7.7 0 14-6.3 14-14v0c0-7.7-6.3-14-14-14zM14.865 23.5c-0.034 0.001-0.073 0.002-0.113 0.002-1.933 0-3.5-1.567-3.5-3.5s1.567-3.5 3.5-3.5c1.933 0 3.5 1.567 3.5 3.5 0 0.040-0.001 0.079-0.002 0.119l0-0.006c-0.062 1.844-1.541 3.323-3.379 3.385l-0.006 0zM25.365 23.5c-0.034 0.001-0.073 0.002-0.113 0.002-1.933 0-3.5-1.567-3.5-3.5s1.567-3.5 3.5-3.5c1.933 0 3.5 1.567 3.5 3.5 0 0.040-0.001 0.079-0.002 0.119l0-0.006c-0.062 1.844-1.541 3.323-3.379 3.385l-0.006 0z"></path>
</svg>
