<!-- Generated by IcoMoon.io -->
<svg version="1.1" xmlns="http://www.w3.org/2000/svg" width="40" height="40" viewBox="0 0 40 40">
<title>io-logo-wordpress</title>
<path d="M20.188 20.956l-2.050 5.981h-0.006l-1.588 4.569c0.113 0.031 0.219 0.056 0.331 0.088h0.019c0.928 0.257 1.993 0.406 3.093 0.406h0c0.022 0 0.047 0 0.073 0 0.524 0 1.038-0.041 1.539-0.12l-0.056 0.007c0.765-0.097 1.452-0.253 2.113-0.467l-0.082 0.023c0.162-0.050 0.325-0.106 0.488-0.162-0.175-0.375-0.55-1.206-0.569-1.244z"></path>
<path d="M9.050 15.281c-0.625 1.413-1.050 3.15-1.050 4.719 0 0.394 0.019 0.787 0.056 1.175 0.431 4.45 3.306 8.188 7.256 9.869 0.163 0.069 0.331 0.137 0.5 0.2l-5.813-15.956c-0.5-0.019-0.594 0.012-0.95-0.006z"></path>
<path d="M30.888 14.963c-0.3-0.642-0.615-1.187-0.97-1.702l0.026 0.040c-0.1-0.15-0.213-0.3-0.319-0.45-1.347-1.794-3.144-3.183-5.225-4.009l-0.082-0.029c-1.277-0.514-2.757-0.813-4.308-0.813-0.006 0-0.012 0-0.018 0h0.001c-3.766 0-7.126 1.739-9.32 4.458l-0.018 0.023c-0.381 0.469-0.742 0.991-1.062 1.542l-0.031 0.058c0.888 0.006 1.987 0.006 2.112 0.006 1.131 0 2.875-0.137 2.875-0.137 0.588-0.037 0.65 0.819 0.069 0.887 0 0-0.588 0.069-1.237 0.1l3.931 11.687 2.363-7.081-1.675-4.6c-0.588-0.031-1.131-0.1-1.131-0.1-0.588-0.031-0.513-0.925 0.063-0.887 0 0 1.781 0.137 2.844 0.137 1.131 0 2.875-0.137 2.875-0.137 0.581-0.037 0.656 0.819 0.069 0.887 0 0-0.581 0.069-1.231 0.1l3.894 11.6 1.081-3.6c0.544-1.4 0.819-2.556 0.819-3.481 0-1.331-0.481-2.256-0.894-2.975-0.544-0.894-1.056-1.644-1.056-2.525 0-0.994 0.75-1.919 1.813-1.919h0.137c1.637-0.044 2.175 1.581 2.244 2.688v0.037c0.025 0.45 0.006 0.781 0.006 1.175 0 1.087-0.206 2.319-0.819 3.863l-2.438 7.050-1.394 4.106c0.113-0.050 0.219-0.1 0.331-0.156 3.544-1.713 6.125-5.125 6.669-9.169 0.076-0.479 0.119-1.032 0.119-1.594 0-0.011-0-0.022-0-0.033v0.002c0-0.005 0-0.011 0-0.016 0-1.827-0.41-3.558-1.143-5.106l0.031 0.073z"></path>
<path d="M20 7c7.179 0.004 12.997 5.824 12.997 13.004 0 5.351-3.232 9.947-7.85 11.943l-0.084 0.032c-1.494 0.649-3.234 1.026-5.063 1.026-7.182 0-13.005-5.822-13.005-13.005 0-5.354 3.235-9.952 7.858-11.946l0.084-0.032c1.486-0.646 3.216-1.021 5.034-1.021 0.010 0 0.020 0 0.030 0h-0.002zM20 6c-7.732 0-14 6.268-14 14s6.268 14 14 14 14-6.268 14-14-6.268-14-14-14z"></path>
</svg>
