<!-- Generated by IcoMoon.io -->
<svg version="1.1" xmlns="http://www.w3.org/2000/svg" width="40" height="40" viewBox="0 0 40 40">
<title>io-logo-slack</title>
<path d="M11.883 23.694c-0.001 1.623-1.318 2.939-2.941 2.939s-2.941-1.317-2.941-2.941 1.317-2.941 2.941-2.941h2.941z"></path>
<path d="M13.365 23.694c0-1.624 1.317-2.941 2.941-2.941s2.941 1.317 2.941 2.941v0 7.365c0 1.624-1.317 2.941-2.941 2.941s-2.941-1.317-2.941-2.941v0z"></path>
<path d="M16.306 11.883c-1.623-0.001-2.939-1.318-2.939-2.941s1.317-2.941 2.941-2.941 2.941 1.317 2.941 2.941v0 2.941z"></path>
<path d="M16.306 13.365c1.624 0 2.941 1.317 2.941 2.941s-1.317 2.941-2.941 2.941v0h-7.365c-1.624 0-2.941-1.317-2.941-2.941s1.317-2.941 2.941-2.941v0z"></path>
<path d="M28.117 16.306c0.001-1.623 1.318-2.939 2.941-2.939s2.941 1.317 2.941 2.941-1.317 2.941-2.941 2.941h-2.941z"></path>
<path d="M26.635 16.306c0 1.624-1.317 2.941-2.941 2.941s-2.941-1.317-2.941-2.941v0-7.365c0-1.624 1.317-2.941 2.941-2.941s2.941 1.317 2.941 2.941v0z"></path>
<path d="M23.694 28.117c1.623 0.001 2.939 1.318 2.939 2.941s-1.317 2.941-2.941 2.941-2.941-1.317-2.941-2.941v0-2.941z"></path>
<path d="M23.694 26.635c-1.624 0-2.941-1.317-2.941-2.941s1.317-2.941 2.941-2.941v0h7.365c1.624 0 2.941 1.317 2.941 2.941s-1.317 2.941-2.941 2.941v0z"></path>
</svg>
