<!-- Generated by IcoMoon.io -->
<svg version="1.1" xmlns="http://www.w3.org/2000/svg" width="40" height="40" viewBox="0 0 40 40">
<title>io-logo-docker</title>
<path d="M35.688 17.197c-0.089-0.074-0.891-0.684-2.612-0.684-0.479 0.003-0.946 0.046-1.4 0.126l0.050-0.007c-0.326-2.275-2.211-3.375-2.286-3.438l-0.46-0.268-0.297 0.431c-0.355 0.547-0.635 1.181-0.807 1.859l-0.009 0.044c-0.313 1.294-0.119 2.513 0.534 3.553-0.787 0.446-2.063 0.55-2.33 0.563h-21.074c-0 0-0 0-0.001 0-0.55 0-0.996 0.446-0.996 0.996 0 0.002 0 0.004 0 0.007v-0c-0.001 0.069-0.002 0.15-0.002 0.231 0 1.865 0.339 3.651 0.958 5.3l-0.034-0.104c0.728 1.903 1.811 3.319 3.203 4.177 1.576 0.966 4.144 1.516 7.037 1.516 0 0 0.001 0 0.001 0 1.38 0 2.729-0.13 4.037-0.378l-0.134 0.021c1.92-0.355 3.633-1.002 5.183-1.899l-0.077 0.041c1.341-0.787 2.486-1.736 3.46-2.839l0.013-0.015c1.677-1.888 2.671-4 3.399-5.875h0.297c1.826 0 2.954-0.729 3.577-1.353 0.404-0.384 0.726-0.849 0.94-1.371l0.010-0.026 0.134-0.386z"></path>
<path d="M6.956 18.773h2.819c0.138 0 0.25-0.112 0.25-0.25v0 0-2.53c0-0.138-0.112-0.25-0.25-0.25v0h-2.819c-0.138 0-0.25 0.112-0.25 0.25v0 0 2.527c0.005 0.136 0.114 0.245 0.249 0.25h0.001z"></path>
<path d="M10.844 18.773h2.82c0.138 0 0.25-0.112 0.25-0.25v0 0-2.53c0-0.138-0.112-0.25-0.25-0.25v0h-2.82c-0.138 0-0.25 0.112-0.25 0.25v0 2.527c0.005 0.136 0.114 0.245 0.249 0.25h0.001z"></path>
<path d="M14.806 18.773h2.819c0.138 0 0.25-0.112 0.25-0.25v0 0-2.53c0-0.138-0.112-0.25-0.25-0.25v0h-2.819c-0.138 0-0.25 0.112-0.25 0.25v0 0 2.527c-0 0.002-0 0.005-0 0.008 0 0.134 0.108 0.242 0.242 0.242 0.003 0 0.006-0 0.009-0h-0z"></path>
<path d="M18.71 18.773h2.82c0.138 0 0.25-0.112 0.25-0.25v0-2.53c0-0.138-0.112-0.25-0.25-0.25v0h-2.82c-0.138 0-0.25 0.112-0.25 0.25v0 0 2.527c0 0.138 0.112 0.25 0.25 0.25v0 0z"></path>
<path d="M10.844 15.161h2.82c0.136-0.005 0.245-0.114 0.25-0.249v-2.531c0-0.138-0.112-0.25-0.25-0.25v0h-2.82c-0.138 0-0.25 0.112-0.25 0.25v0 2.528c0.010 0.134 0.116 0.24 0.249 0.25l0.001 0z"></path>
<path d="M14.806 15.161h2.819c0.136-0.005 0.245-0.114 0.25-0.249v-2.531c0-0.138-0.112-0.25-0.25-0.25v0h-2.819c-0.138 0-0.25 0.112-0.25 0.25v0 0 2.528c0 0.138 0.112 0.25 0.25 0.25v0z"></path>
<path d="M18.71 15.161h2.82c0.136-0.005 0.245-0.114 0.25-0.249v-2.531c-0.005-0.136-0.114-0.245-0.249-0.25h-2.821c-0.138 0-0.25 0.112-0.25 0.25v0 0 2.528c0.005 0.136 0.114 0.245 0.249 0.25h0.001z"></path>
<path d="M18.71 11.533h2.82c0.138 0 0.25-0.112 0.25-0.25v0-2.533c-0.005-0.136-0.114-0.245-0.249-0.25h-2.821c-0.138 0-0.25 0.112-0.25 0.25v0 0 2.527c0.006 0.136 0.114 0.244 0.249 0.25l0.001 0z"></path>
<path d="M22.643 18.773h2.82c0.138 0 0.25-0.112 0.25-0.25v0-2.53c0-0.138-0.112-0.25-0.25-0.25v0h-2.82c-0.138 0-0.25 0.112-0.25 0.25v0 0 2.527c0.005 0.136 0.114 0.245 0.249 0.25h0.001z"></path>
</svg>
