<!-- Generated by IcoMoon.io -->
<svg version="1.1" xmlns="http://www.w3.org/2000/svg" width="40" height="40" viewBox="0 0 40 40">
<title>io-logo-chrome</title>
<path d="M15.8 19.996c0 0 0 0.001 0 0.001 0 2.32 1.88 4.2 4.2 4.2s4.2-1.88 4.2-4.2c0-2.32-1.88-4.2-4.2-4.2v0c-2.317 0.006-4.193 1.882-4.2 4.198v0.001z"></path>
<path d="M33.797 17.612s0 0 0 0.003c-0.118-0.699-0.27-1.306-0.463-1.894l0.026 0.091h-0.007c0.17 0.502 0.324 1.112 0.431 1.738l0.011 0.075c-0.119-0.701-0.272-1.311-0.468-1.902l0.026 0.090h-9.712c1.191 1.062 1.96 2.511 1.96 4.191 0 0.004 0 0.010 0 0.015 0 1.027-0.286 1.987-0.783 2.805l0.014-0.024-6.393 11.104c0 0.003 0 0.005 0 0.008s-0 0.006-0 0.009l0-0v0.001c0.445 0.050 0.962 0.079 1.485 0.079 0.027 0 0.055-0 0.082-0l-0.004 0c0.428 0 0.851-0.024 1.269-0.063 0.703-0.064 1.337-0.169 1.956-0.315l-0.094 0.019c6.225-1.421 10.87-6.991 10.87-13.645 0-0 0-0.001 0-0.002 0-0.842-0.074-1.666-0.216-2.468l0.012 0.085z"></path>
<path d="M20 25.594c-2.1 0-3.85-1.119-4.831-2.799l-6.428-11.119c-1.711 2.295-2.739 5.186-2.739 8.318 0 6.655 4.643 12.225 10.866 13.648l0.094 0.018v-0.003l4.856-8.413c-0.539 0.213-1.162 0.341-1.814 0.35l-0.004 0z"></path>
<path d="M9.706 10.536l4.834 8.328c0.525-2.574 2.769-4.485 5.46-4.489h12.824c-0.482-1.050-1.020-1.951-1.641-2.788l0.029 0.041 0.008 0.005c0.589 0.793 1.124 1.693 1.564 2.646l0.039 0.095h0.011c-0.48-1.051-1.015-1.954-1.633-2.792l0.030 0.042c-0.008-0.005-0.015-0.011-0.022-0.016l0 0c-2.58-3.423-6.638-5.613-11.207-5.613-4.072 0-7.738 1.739-10.296 4.515l-0.009 0.010 0.009 0.015z"></path>
</svg>
