<!-- Generated by IcoMoon.io -->
<svg version="1.1" xmlns="http://www.w3.org/2000/svg" width="40" height="40" viewBox="0 0 40 40">
<title>io-logo-xing</title>
<path d="M23.613 22.994l9.7-16.994h-6.5l-9.725 16.988c-0.012 0.014-0.019 0.033-0.019 0.053s0.007 0.039 0.019 0.053l-0-0 6.181 10.862c0.025 0.044 0.050 0.044 0.1 0.044h6.444l-6.206-10.919c-0.004-0.011-0.006-0.024-0.006-0.037 0-0.019 0.005-0.036 0.013-0.051l-0 0.001z"></path>
<path d="M17.869 17.512l-3.681-6.45c-0.022-0.038-0.062-0.064-0.109-0.064-0.006 0-0.011 0-0.017 0.001l0.001-0h-6l3.681 6.525c0.005 0.010 0.008 0.021 0.008 0.033 0 0.006-0.001 0.012-0.002 0.017l0-0.001-5.062 8.425h6.050c0.004 0.001 0.008 0.001 0.012 0.001 0.039 0 0.072-0.023 0.088-0.056l0-0.001 5.031-8.356c0.003-0.011 0.005-0.024 0.005-0.038s-0.002-0.026-0.005-0.039l0 0.001z"></path>
</svg>
