<!-- Generated by IcoMoon.io -->
<svg version="1.1" xmlns="http://www.w3.org/2000/svg" width="40" height="40" viewBox="0 0 40 40">
<title>io-logo-tumblr</title>
<path d="M28.375 6h-16.875c-3.074 0-5.5 2.426-5.5 5.5v16.875c0 3.074 2.426 5.625 5.5 5.625h16.875c3.074 0 5.625-2.551 5.625-5.625v-16.875c0-3.074-2.551-5.5-5.625-5.5zM25 28.75h-3.25c-2.657 0-4.5-1.48-4.5-4.75v-5h-2.25v-3c2.657-0.688 3.622-3.020 3.75-5h2.75v4.5h3.25v3.5h-3.25l-0.024 4.407c0 1.367 0.688 1.839 1.789 1.839l1.736 0.004z"></path>
</svg>
