<!-- Generated by IcoMoon.io -->
<svg version="1.1" xmlns="http://www.w3.org/2000/svg" width="40" height="40" viewBox="0 0 40 40">
<title>io-logo-mastodon</title>
<path d="M34 14.849c0-6.508-4.266-8.416-4.266-8.416-2.153-0.987-5.846-1.402-9.684-1.434h-0.094c-3.837 0.031-7.529 0.447-9.68 1.434 0 0-4.267 1.908-4.267 8.416 0 1.491-0.029 3.272 0.018 5.162 0.155 6.364 1.167 12.637 7.056 14.194 2.714 0.718 5.046 0.868 6.922 0.765 3.404-0.188 5.313-1.214 5.313-1.214l-0.112-2.469s-2.433 0.767-5.165 0.673c-2.707-0.093-5.563-0.292-6-3.613-0.040-0.276-0.063-0.594-0.063-0.918 0-0.005 0-0.009 0-0.014v0.001c1.765 0.414 3.831 0.701 5.946 0.8l0.078 0.003c2.059 0.094 3.99-0.121 5.951-0.354 3.761-0.449 7.036-2.765 7.448-4.881 0.651-3.334 0.599-8.136 0.599-8.136zM28.966 23.234h-3.125v-7.648c0-1.612-0.679-2.431-2.036-2.431-1.5 0-2.254 0.971-2.254 2.89v4.188h-3.104v-4.188c0-1.919-0.75-2.89-2.254-2.89-1.358 0-2.036 0.818-2.036 2.431v7.648h-3.125v-7.88q0-2.416 1.234-3.837c0.85-0.947 1.963-1.433 3.344-1.433 1.599 0 2.809 0.614 3.609 1.843l0.779 1.303 0.778-1.303c0.801-1.229 2.011-1.843 3.609-1.843 1.382 0 2.494 0.486 3.344 1.433q1.237 1.42 1.234 3.837z"></path>
</svg>
