<!-- Generated by IcoMoon.io -->
<svg version="1.1" xmlns="http://www.w3.org/2000/svg" width="40" height="40" viewBox="0 0 40 40">
<title>io-logo-snapchat</title>
<path d="M35 25.701c-0.757-0.057-1.456-0.174-2.132-0.35l0.083 0.018c-1.705-0.414-3.427-1.516-4.257-3.277-0.431-0.914-0.165-1.162 0.741-1.5 0.886-0.329 1.862-0.482 2.304-1.438 0.368-0.797 0.071-1.735-0.651-2.218-0.982-0.658-1.897-0.013-2.914 0.129 0.233-2.916 0.541-5.536-1.417-7.983-1.623-2.029-4.173-3.083-6.739-3.083s-5.116 1.054-6.738 3.083c-1.961 2.454-1.65 5.074-1.417 7.995-1.020-0.141-1.926-0.799-2.914-0.136-0.92 0.616-1.063 1.86-0.34 2.688s1.978 0.594 2.716 1.288c0.406 0.381 0.218 0.788-0.022 1.259-0.905 1.775-2.454 2.859-4.365 3.223-0.25 0.048-1.394 0.179-1.937 0.228 0 0.58 0.032 1.049 0.102 1.358 0.184 0.816 0.77 1.474 1.481 1.881 0.699 0.4 2.217 0.402 2.605 0.969 0.188 0.28 0.11 0.767 0.333 1.086 0.224 0.316 0.561 0.538 0.952 0.608l0.009 0.001c1.163 0.226 2.332-0.45 3.526-0.131 0.928 0.247 1.658 0.992 2.454 1.5 0.969 0.616 2.021 1.026 3.177 1.093 2.381 0.138 3.746-1.182 5.661-2.276 1.219-0.696 2.384-0.241 3.68-0.168 1.256 0.072 1.471-0.578 1.851-1.555 0.038-0.086 0.071-0.187 0.094-0.292l0.002-0.011c0.054-0.026 0.101-0.057 0.143-0.093l-0.001 0.001c0.125-0.098 0.659-0.146 0.798-0.179 0.643-0.152 1.271-0.322 1.823-0.7 0.707-0.485 1.103-1.156 1.224-2.040 0.054-0.294 0.085-0.632 0.086-0.978v-0.001zM17 12c0.552 0 1 0.671 1 1.5s-0.448 1.5-1 1.5-1-0.671-1-1.5 0.447-1.5 1-1.5zM23.476 16.856c-0.953 0.938-2.188 1.456-3.476 1.456-1.361-0.003-2.592-0.56-3.478-1.458l-0.001-0.001c-0.091-0.091-0.147-0.216-0.147-0.354 0-0.276 0.224-0.5 0.5-0.5 0.138 0 0.263 0.056 0.354 0.147v0c0.706 0.717 1.686 1.163 2.771 1.166h0.001c1.024 0 2.009-0.415 2.774-1.169 0.090-0.089 0.214-0.144 0.351-0.144 0.276 0 0.5 0.224 0.5 0.5 0 0.139-0.057 0.266-0.149 0.356l-0 0zM23 15c-0.553 0-1-0.672-1-1.5s0.448-1.5 1-1.5 1 0.672 1 1.5-0.448 1.5-1 1.5z"></path>
</svg>
