<!-- Generated by IcoMoon.io -->
<svg version="1.1" xmlns="http://www.w3.org/2000/svg" width="40" height="40" viewBox="0 0 40 40">
<title>io-logo-sass</title>
<path d="M35.986 24.504v0c-0.092-0.745-0.469-1.391-1.125-1.923-0.008-0.010-0.017-0.019-0.027-0.027l-0-0-0.033-0.024-0.011-0.008-0.404-0.29c-0.015-0.009-0.032-0.016-0.050-0.021l-0.002-0c-1.101-0.656-2.924-1.115-5.714-0.131-0.666-1.12-0.741-2.017-0.296-3.392 0.079-0.239 0.006-0.398-0.232-0.5-0.478-0.203-1.131-0.099-1.595 0.023-0.216 0.056-0.346 0.179-0.387 0.364-0.294 1.375-1.148 2.631-1.973 3.844l-0.049 0.071c-0.509-1.079-0.403-1.914-0.049-2.961 0.071-0.209 0.015-0.348-0.181-0.451-0.546-0.282-1.366-0.088-1.692 0.008-0.414 0.121-0.857 1.239-1.353 2.578-0.125 0.337-0.233 0.625-0.297 0.759-0.153 0.313-0.299 0.669-0.454 1.047-0.35 0.856-0.744 1.819-1.308 2.424-0.205-0.453 0.117-1.168 0.431-1.861 0.371-0.819 0.721-1.594 0.317-2.088-0.126-0.153-0.31-0.255-0.518-0.27l-0.002-0c-0.019-0.002-0.041-0.002-0.063-0.002-0.116 0-0.227 0.024-0.327 0.067l0.005-0.002c0.042-0.353 0.044-0.632-0.059-0.969-0.148-0.481-0.531-0.75-1.058-0.736-1.201 0.035-2.218 0.93-2.859 1.675-0.428 0.5-1.375 0.881-2.207 1.216-0.329 0.139-0.641 0.264-0.902 0.389-0.416-0.351-0.944-0.706-1.5-1.080-1.563-1.049-3.333-2.238-3.394-3.851-0.088-2.382 2.625-4.071 4.992-5.277 1.794-0.912 3.354-1.518 4.769-1.848 1.988-0.464 3.666-0.371 4.989 0.277 0.724 0.354 1.063 1.125 0.848 1.918-0.562 2.059-2.893 3.471-4.886 4.106-1.201 0.383-2.223 0.543-3.125 0.49-1.131-0.066-2.055-0.633-2.45-0.875-0.057-0.040-0.123-0.077-0.192-0.109l-0.008-0.003-0.018-0.004c-0.015-0.004-0.031-0.006-0.048-0.006-0.060 0-0.114 0.026-0.151 0.068l-0 0c-0.081 0.097-0.053 0.25-0.023 0.328 0.384 1.004 1.178 1.639 2.359 1.886 0.34 0.071 0.73 0.112 1.13 0.112 0.015 0 0.031-0 0.046-0h-0.002c2.763 0 6.289-1.593 7.584-2.905 0.883-0.894 1.526-1.813 1.793-3.397 0.278-1.659-0.847-2.813-1.993-3.344-2.786-1.286-5.949-0.777-8.113-0.125-2.531 0.763-5.15 2.151-7.184 3.808-2.507 2.042-3.414 3.938-2.695 5.641 0.738 1.746 2.538 2.837 4.279 3.894 0.563 0.341 1.098 0.665 1.579 1-0.145 0.071-0.293 0.143-0.444 0.214-1.461 0.708-3.119 1.505-4.038 2.822-0.667 0.959-0.793 1.914-0.371 2.839 0.225 0.492 0.625 0.826 1.181 0.992 0.255 0.075 0.549 0.118 0.852 0.118 0.013 0 0.026-0 0.039-0l-0.002 0c1.082 0 2.272-0.438 2.921-0.842 1.145-0.719 1.887-1.684 2.206-2.868 0.284-1.054 0.216-2.101-0.197-3.035l1.403-0.707c-0.677 2.25-0.158 3.594 0.412 4.335 0.21 0.273 0.589 0.438 1.012 0.445s0.813-0.152 1.033-0.423c0.416-0.516 0.724-1.119 1.007-1.722-0.015 0.394 0.004 0.793 0.138 1.131 0.121 0.304 0.319 0.506 0.576 0.584 0.273 0.083 0.592 0.013 0.899-0.197 1.386-0.948 2.333-3.224 3.094-5.053 0.108-0.26 0.212-0.51 0.313-0.744 0.21 0.742 0.476 1.387 0.806 1.992l-0.025-0.050c0.074 0.134 0.067 0.192-0.032 0.303-0.151 0.165-0.361 0.364-0.583 0.576-0.674 0.639-1.512 1.437-1.625 2.139-0.044 0.281 0.15 0.537 0.451 0.596 0.904 0.18 1.994-0.083 2.915-0.703 0.838-0.563 1.152-1.347 0.938-2.324-0.208-0.941 0.267-2.11 1.412-3.476 0.187 0.783 0.438 1.416 0.782 1.971l-0.009 0.008c-0.834 0.728-1.976 1.725-1.799 2.934 0.032 0.239 0.161 0.444 0.346 0.574l0.003 0.002c0.139 0.095 0.312 0.152 0.497 0.152 0.072 0 0.142-0.009 0.209-0.025l-0.006 0.001c1.092-0.229 1.914-0.691 2.511-1.411s0.379-1.517 0.178-2.136c1.563-0.424 2.954-0.413 4.256 0.031 0.731 0.25 1.256 0.661 1.558 1.227 0.381 0.713 0.175 1.371-0.581 1.853-0.232 0.148-0.344 0.239-0.351 0.353-0 0.003-0 0.006-0 0.010 0 0.052 0.024 0.099 0.062 0.13l0 0c0.087 0.072 0.358 0.197 0.968-0.187 0.563-0.353 0.892-0.834 0.977-1.437 0.008-0.074 0.013-0.16 0.013-0.247 0-0.089-0.005-0.177-0.014-0.264l0.001 0.011zM11.003 26.071l-0.006 0.080c-0.098 0.915-0.563 1.713-1.384 2.375-0.516 0.416-1.077 0.672-1.578 0.721-0.35 0.034-0.604-0.014-0.756-0.142-0.113-0.096-0.174-0.239-0.188-0.438-0.102-1.593 2.395-3.175 3.801-3.696 0.076 0.26 0.12 0.559 0.12 0.868 0 0.081-0.003 0.162-0.009 0.242l0.001-0.011zM17.4 21.579v0c-0.231 1.318-0.906 3.806-1.966 4.772-0.051 0.046-0.093 0.063-0.112 0.058s-0.034-0.027-0.050-0.063c-0.354-0.82-0.223-2.205 0.313-3.293 0.412-0.839 1-1.394 1.657-1.563 0.025-0.007 0.054-0.011 0.084-0.012h0c0.002-0 0.004-0 0.007-0 0.021 0 0.040 0.006 0.056 0.017l-0-0c0.010 0.016 0.016 0.034 0.016 0.055 0 0.010-0.001 0.020-0.004 0.029l0-0.001zM22.618 26.384c-0.199 0.208-0.473 0.18-0.408 0.104l1.015-1.077c-0.082 0.371-0.324 0.678-0.607 0.974zM26.829 25.452c-0.090 0.045-0.194 0.076-0.305 0.087l-0.004 0c-0.029-0.567 0.521-1.205 1.063-1.631 0.146 0.591-0.152 1.216-0.754 1.544z"></path>
</svg>
