<!-- Generated by IcoMoon.io -->
<svg version="1.1" xmlns="http://www.w3.org/2000/svg" width="40" height="40" viewBox="0 0 40 40">
<title>io-medkit</title>
<path d="M31 10h-3v-1c-0.002-1.656-1.344-2.998-3-3h-10c-1.656 0.002-2.998 1.344-3 3v1h-3c-2.208 0.003-3.998 1.792-4 4v16c0 2.209 1.791 4 4 4v0h22c2.209 0 4-1.791 4-4v0-16c-0.002-2.208-1.792-3.998-4-4h-0zM25 23h-4v4c0 0.552-0.448 1-1 1s-1-0.448-1-1v0-4h-4c-0.552 0-1-0.448-1-1s0.448-1 1-1v0h4v-4c0-0.552 0.448-1 1-1s1 0.448 1 1v0 4h4c0.552 0 1 0.448 1 1s-0.448 1-1 1v0zM26 10h-12v-1c0-0.552 0.448-1 1-1v0h10c0.552 0 1 0.448 1 1v0z"></path>
</svg>
