<!-- Generated by IcoMoon.io -->
<svg version="1.1" xmlns="http://www.w3.org/2000/svg" width="40" height="40" viewBox="0 0 40 40">
<title>io-male-female-sharp</title>
<path d="M24.625 5v2.75h2.681l-2.319 2.318c-1.818-2.113-4.496-3.443-7.484-3.443-0.001 0-0.002 0-0.003 0h0c-5.445 0-9.875 4.43-9.875 9.875 0 4.979 3.704 9.108 8.5 9.779v2.346h-3.125v2.75h3.125v3.625h2.75v-3.625h3.125v-2.75h-3.125v-2.346c4.796-0.671 8.5-4.8 8.5-9.779 0-0.001 0-0.003 0-0.005 0-1.469-0.322-2.863-0.9-4.114l0.025 0.061 2.75-2.75v2.683h2.75v-7.375zM17.5 23.625c-3.935 0-7.125-3.19-7.125-7.125s3.19-7.125 7.125-7.125c3.935 0 7.125 3.19 7.125 7.125v0c-0.005 3.933-3.192 7.12-7.125 7.125h-0z"></path>
</svg>
