<!-- Generated by IcoMoon.io -->
<svg version="1.1" xmlns="http://www.w3.org/2000/svg" width="40" height="40" viewBox="0 0 40 40">
<title>io-medal-sharp</title>
<path d="M9 6l-4 8h18.069l5.014-8h-19.083z"></path>
<path d="M35 13l-4.5-7-7.875 12.443c-0.782-0.281-1.685-0.443-2.625-0.443s-1.843 0.162-2.681 0.46l0.056-0.017-1.529-2.443h-9.107l5.416 8.431c-0.099 0.473-0.156 1.017-0.156 1.573 0 4.418 3.582 8 8 8s8-3.582 8-8c0-0.557-0.057-1.1-0.165-1.625l0.009 0.052zM20 30.375c-2.416 0-4.375-1.959-4.375-4.375s1.959-4.375 4.375-4.375c2.416 0 4.375 1.959 4.375 4.375v0c-0.003 2.415-1.96 4.372-4.375 4.375h-0z"></path>
<path d="M22 26c0 1.105-0.895 2-2 2s-2-0.895-2-2c0-1.105 0.895-2 2-2s2 0.895 2 2z"></path>
</svg>
