<!-- Generated by IcoMoon.io -->
<svg version="1.1" xmlns="http://www.w3.org/2000/svg" width="40" height="40" viewBox="0 0 40 40">
<title>io-magnet-outline</title>
<path fill="none" stroke-linejoin="miter" stroke-linecap="butt" stroke-miterlimit="10" stroke-width="2.5" stroke="#000" d="M30.364 22.364c1.629-1.629 2.636-3.879 2.636-6.364 0-4.971-4.029-9-9-9-2.485 0-4.735 1.007-6.364 2.636v0"></path>
<path fill="none" stroke-linejoin="miter" stroke-linecap="butt" stroke-miterlimit="10" stroke-width="2.5" stroke="#000" d="M26.121 18.121c0.533-0.541 0.861-1.284 0.861-2.104 0-1.657-1.343-3-3-3-0.82 0-1.563 0.329-2.104 0.862l0-0"></path>
<path stroke-linejoin="miter" stroke-linecap="round" stroke-miterlimit="10" stroke-width="2.5" stroke="#000" fill="#000" d="M16 33v-3"></path>
<path stroke-linejoin="miter" stroke-linecap="round" stroke-miterlimit="10" stroke-width="2.5" stroke="#000" fill="#000" d="M9.636 30.364l2.121-2.121"></path>
<path stroke-linejoin="miter" stroke-linecap="round" stroke-miterlimit="10" stroke-width="2.5" stroke="#000" fill="#000" d="M7 24h3"></path>
<path fill="none" stroke-linejoin="round" stroke-linecap="butt" stroke-miterlimit="4" stroke-width="2.5" stroke="#000" d="M21.879 13.879l-7.071 7.071c-0.362 0.362-0.862 0.586-1.414 0.586s-1.052-0.224-1.414-0.586v0l-1.417-1.414c-0.362-0.362-0.586-0.862-0.586-1.414s0.224-1.052 0.586-1.414l7.074-7.071"></path>
<path fill="none" stroke-linejoin="round" stroke-linecap="butt" stroke-miterlimit="4" stroke-width="2.5" stroke="#000" d="M30.364 22.364l-7.071 7.074c-0.362 0.362-0.862 0.586-1.414 0.586s-1.052-0.224-1.414-0.586l-1.414-1.414c-0.362-0.362-0.586-0.862-0.586-1.414s0.224-1.052 0.586-1.414l7.071-7.073"></path>
<path fill="none" stroke-linejoin="round" stroke-linecap="butt" stroke-miterlimit="4" stroke-width="2.5" stroke="#000" d="M12.725 14.624l4.243 4.243"></path>
<path fill="none" stroke-linejoin="round" stroke-linecap="butt" stroke-miterlimit="4" stroke-width="2.5" stroke="#000" d="M21.21 23.109l4.243 4.243"></path>
</svg>
