<!-- Generated by IcoMoon.io -->
<svg version="1.1" xmlns="http://www.w3.org/2000/svg" width="40" height="40" viewBox="0 0 40 40">
<title>io-medical</title>
<path d="M21 33h-2c-1.105 0-2-0.895-2-2v0l0.003-5.364c0-0 0-0 0-0 0-0.138-0.112-0.25-0.25-0.25-0.046 0-0.089 0.012-0.126 0.034l0.001-0.001-4.646 2.691c-0.282 0.166-0.621 0.264-0.984 0.264-0.724 0-1.357-0.391-1.699-0.974l-0.005-0.009-1.035-1.796c-0.16-0.279-0.254-0.613-0.254-0.969 0-0.723 0.388-1.356 0.967-1.701l0.009-0.005 4.663-2.703c0.075-0.044 0.125-0.124 0.125-0.216s-0.050-0.172-0.123-0.216l-0.001-0.001-4.659-2.701c-0.594-0.345-0.987-0.978-0.987-1.703 0-0.363 0.098-0.702 0.27-0.994l-0.005 0.009 1.027-1.784c0.262-0.45 0.686-0.782 1.191-0.918l0.014-0.003c0.151-0.042 0.325-0.066 0.504-0.066 0.362 0 0.702 0.099 0.992 0.271l-0.009-0.005 4.644 2.688c0.036 0.021 0.079 0.034 0.125 0.034 0.138 0 0.25-0.112 0.25-0.25 0-0 0-0 0-0v0l-0.003-5.361c0-1.105 0.895-2 2-2v0h2c1.105 0 2 0.895 2 2v0 5.357c0 0 0 0 0 0 0 0.138 0.112 0.25 0.25 0.25 0.046 0 0.089-0.012 0.126-0.034l-0.001 0.001 4.646-2.691c0.282-0.165 0.621-0.263 0.983-0.263 0.724 0 1.357 0.391 1.699 0.974l0.005 0.009 1.034 1.796c0.162 0.28 0.257 0.615 0.257 0.973 0 0.725-0.392 1.359-0.975 1.701l-0.009 0.005-4.658 2.7c-0.075 0.044-0.125 0.124-0.125 0.216s0.050 0.172 0.123 0.216l0.001 0.001 4.658 2.7c0.594 0.345 0.987 0.978 0.987 1.704 0 0.362-0.098 0.702-0.269 0.993l0.005-0.009-1.027 1.784c-0.262 0.45-0.686 0.782-1.191 0.918l-0.014 0.003c-0.151 0.042-0.325 0.066-0.504 0.066-0.362 0-0.702-0.099-0.992-0.271l0.009 0.005-4.644-2.688c-0.036-0.021-0.079-0.034-0.125-0.034-0.138 0-0.25 0.112-0.25 0.25v0l0.001 5.368c0 1.105-0.895 2-2 2v0zM15.152 20.657v0zM15.152 19.345v0zM24.846 19.34v0z"></path>
</svg>
