<!-- Generated by IcoMoon.io -->
<svg version="1.1" xmlns="http://www.w3.org/2000/svg" width="40" height="40" viewBox="0 0 40 40">
<title>io-magnet</title>
<path stroke-linejoin="miter" stroke-linecap="round" stroke-miterlimit="10" stroke-width="2.5" stroke="#000" fill="#000" d="M15.999 32.987v-3"></path>
<path stroke-linejoin="miter" stroke-linecap="round" stroke-miterlimit="10" stroke-width="2.5" stroke="#000" fill="#000" d="M9.635 30.351l2.121-2.121"></path>
<path stroke-linejoin="miter" stroke-linecap="round" stroke-miterlimit="10" stroke-width="2.5" stroke="#000" fill="#000" d="M6.999 23.987h3"></path>
<path d="M20.723 23.52l-1.944 1.944c-0.181 0.181-0.293 0.431-0.293 0.707s0.112 0.526 0.293 0.707l2.829 2.828c0.181 0.181 0.431 0.293 0.707 0.293s0.526-0.112 0.707-0.293l1.945-1.944c0.045-0.045 0.073-0.108 0.073-0.177s-0.028-0.132-0.073-0.177v0l-3.889-3.889c-0.045-0.045-0.108-0.073-0.177-0.073s-0.132 0.028-0.177 0.073v0z"></path>
<path d="M12.237 15.034l-1.944 1.945c-0.181 0.181-0.293 0.431-0.293 0.707s0.112 0.526 0.293 0.707l2.828 2.829c0.181 0.181 0.431 0.293 0.707 0.293s0.526-0.112 0.707-0.293l1.944-1.944c0.045-0.045 0.073-0.108 0.073-0.177s-0.028-0.132-0.073-0.177v0l-3.889-3.889c-0.045-0.045-0.108-0.073-0.177-0.073s-0.132 0.028-0.177 0.073v0z"></path>
<path d="M30.803 9.205c-1.629-1.631-3.881-2.64-6.368-2.64-2.485 0-4.735 1.007-6.364 2.636l-4.066 4.066c-0.045 0.045-0.073 0.108-0.073 0.177s0.028 0.132 0.073 0.177v0l3.889 3.889c0.045 0.045 0.108 0.073 0.177 0.073s0.132-0.028 0.177-0.073l4.063-4.066c0.543-0.543 1.293-0.879 2.121-0.879 0.847 0 1.611 0.351 2.157 0.915l0.001 0.001c1.144 1.182 1.092 3.078-0.071 4.241l-4.027 4.029c-0.045 0.045-0.073 0.108-0.073 0.177s0.028 0.132 0.073 0.177v0l3.889 3.889c0.045 0.045 0.108 0.073 0.177 0.073s0.132-0.028 0.177-0.073v0l4.005-4.005c3.523-3.521 3.586-9.258 0.065-12.783z"></path>
</svg>
