<!-- Generated by IcoMoon.io -->
<svg version="1.1" xmlns="http://www.w3.org/2000/svg" width="40" height="40" viewBox="0 0 40 40">
<title>io-notifications-off</title>
<path d="M32 33c-0 0-0.001 0-0.002 0-0.276 0-0.525-0.112-0.705-0.293l-24-24c-0.17-0.179-0.275-0.422-0.275-0.689 0-0.552 0.448-1 1-1 0.267 0 0.51 0.105 0.689 0.275l24 24c0.181 0.181 0.293 0.431 0.293 0.707 0 0.552-0.447 1-0.999 1h-0z"></path>
<path d="M31.505 25.332c-0.104-0.125-0.206-0.25-0.306-0.371-1.375-1.663-2.207-2.667-2.207-7.375 0-2.437-0.583-4.437-1.732-5.937-0.848-1.108-1.993-1.949-3.503-2.57-0.020-0.011-0.037-0.025-0.051-0.042l-0-0c-0.543-1.819-2.029-3.037-3.706-3.037s-3.162 1.218-3.705 3.035c-0.014 0.016-0.031 0.030-0.050 0.040l-0.001 0.001c-0.533 0.22-0.983 0.45-1.411 0.712l0.043-0.025c-0.145 0.089-0.24 0.247-0.24 0.427 0 0.138 0.056 0.263 0.147 0.354l16.361 16.359c0.091 0.091 0.216 0.147 0.354 0.147 0.276 0 0.5-0.224 0.5-0.5 0-0.021-0.001-0.043-0.004-0.063l0 0.002c-0.052-0.444-0.228-0.84-0.493-1.16l0.003 0.004z"></path>
<path d="M11.009 17.584c0 4.71-0.831 5.714-2.207 7.375-0.1 0.121-0.202 0.243-0.306 0.371-0.315 0.378-0.506 0.868-0.506 1.403 0 0.345 0.079 0.671 0.221 0.962l-0.006-0.013c0.386 0.812 1.207 1.317 2.146 1.317h13.199c0 0 0 0 0 0 0.276 0 0.5-0.224 0.5-0.5 0-0.138-0.056-0.263-0.147-0.354v0l-12-12c-0.090-0.090-0.215-0.146-0.353-0.146-0.261 0-0.476 0.201-0.498 0.456l-0 0.002q-0.044 0.543-0.044 1.127z"></path>
<path d="M20 34c1.894-0.002 3.541-1.055 4.389-2.607l0.013-0.026c0.018-0.034 0.029-0.074 0.029-0.117 0-0.138-0.112-0.25-0.25-0.25-0 0-0 0-0 0h-8.361c-0 0-0.001 0-0.001 0-0.138 0-0.25 0.112-0.25 0.25 0 0.043 0.011 0.083 0.030 0.118l-0.001-0.001c0.862 1.578 2.509 2.631 4.402 2.633h0z"></path>
</svg>
