<!-- Generated by IcoMoon.io -->
<svg version="1.1" xmlns="http://www.w3.org/2000/svg" width="40" height="40" viewBox="0 0 40 40">
<title>io-nutrition-sharp</title>
<path d="M31.419 13.964c-1.1-1.769-2.844-2.738-5.33-2.961-1.426-0.125-3.139 0.309-4.516 0.659-0.62 0.158-1.324 0.337-1.574 0.337s-0.949-0.179-1.563-0.337c-1.38-0.353-3.098-0.793-4.528-0.659-2.408 0.226-4.125 1.199-5.25 2.976s-1.659 4.332-1.659 8.019c0 3.83 1.846 7.161 2.946 8.806 1.356 2.028 3.383 4.194 5.004 4.194 1.161 0 2.132-0.452 2.989-0.852 1.249-0.585 2.061-0.648 2.061-0.648s0.688 0 1.996 0.632c0.857 0.414 1.835 0.868 3.054 0.868 1.661 0 3.692-2.168 5.039-4.197 1.087-1.637 2.911-4.958 2.911-8.803 0-3.75-0.5-6.302-1.581-8.036zM17.5 26c-0.828 0-1.5-1.343-1.5-3s0.672-3 1.5-3 1.5 1.343 1.5 3-0.672 3-1.5 3zM22.5 26c-0.828 0-1.5-1.343-1.5-3s0.672-3 1.5-3 1.5 1.343 1.5 3-0.672 3-1.5 3z"></path>
<path d="M24.232 9.172c1.873-1.871 1.768-4.161 1.768-4.164v0s-2.236-0.235-4.202 1.729-1.794 4.262-1.794 4.262 2.355 0.044 4.229-1.827z"></path>
</svg>
