<!-- Generated by IcoMoon.io -->
<svg version="1.1" xmlns="http://www.w3.org/2000/svg" width="40" height="40" viewBox="0 0 40 40">
<title>io-navigate</title>
<path d="M21 33c-0 0-0 0-0 0-0.552 0-1-0.448-1-1 0-0.009 0-0.018 0-0.028l-0 0.001v-11.466c0-0.276-0.224-0.5-0.5-0.5v0h-11.474c-0.004 0-0.008 0-0.012 0-0.436 0-0.808-0.274-0.954-0.659l-0.002-0.007c-0.036-0.099-0.057-0.214-0.057-0.333 0-0.401 0.236-0.747 0.577-0.906l0.006-0.003 24-11.009c0.122-0.057 0.266-0.091 0.417-0.091 0.552 0 1 0.448 1 1 0 0.151-0.033 0.293-0.093 0.421l0.003-0.006-11 24c-0.162 0.348-0.508 0.584-0.909 0.584v0z"></path>
</svg>
