<!-- Generated by IcoMoon.io -->
<svg version="1.1" xmlns="http://www.w3.org/2000/svg" width="40" height="40" viewBox="0 0 40 40">
<title>io-play-skip-back</title>
<path d="M11 8c0.552 0 1 0.448 1 1v0 8.527l14.548-8.708c0.325-0.201 0.719-0.32 1.141-0.32 0.403 0 0.78 0.109 1.105 0.298l-0.010-0.006c0.75 0.425 1.216 1.25 1.216 2.146v18.125c0 0.898-0.466 1.721-1.216 2.146-0.314 0.184-0.691 0.292-1.094 0.292-0.422 0-0.816-0.119-1.151-0.325l0.009 0.005-14.548-8.707v8.527c0 0.552-0.448 1-1 1s-1-0.448-1-1v0-22c0-0.552 0.448-1 1-1v0z"></path>
</svg>
