<!-- Generated by IcoMoon.io -->
<svg version="1.1" xmlns="http://www.w3.org/2000/svg" width="40" height="40" viewBox="0 0 40 40">
<title>io-print-outline</title>
<path fill="none" stroke-linejoin="round" stroke-linecap="butt" stroke-miterlimit="4" stroke-width="2.5" stroke="#000" d="M28 27h1.5c1.379-0.004 2.496-1.121 2.5-2.5v-10c-0.004-1.379-1.121-2.496-2.5-2.5h-19c-1.379 0.004-2.496 1.121-2.5 2.5v10c0.004 1.379 1.121 2.496 2.5 2.5h1.5"></path>
<path fill="none" stroke-linejoin="round" stroke-linecap="butt" stroke-miterlimit="4" stroke-width="2.5" stroke="#000" d="M13.52 19h12.96c0.839 0 1.52 0.681 1.52 1.52v9.96c0 0.839-0.681 1.52-1.52 1.52h-12.96c-0.839 0-1.52-0.681-1.52-1.52v-9.96c0-0.839 0.681-1.52 1.52-1.52z"></path>
<path fill="none" stroke-linejoin="round" stroke-linecap="butt" stroke-miterlimit="4" stroke-width="2.5" stroke="#000" d="M28 12v-1.5c-0.004-1.379-1.121-2.496-2.5-2.5h-11c-1.379 0.004-2.496 1.121-2.5 2.5v1.5"></path>
<path d="M30 15.5c0 0.828-0.672 1.5-1.5 1.5s-1.5-0.672-1.5-1.5c0-0.828 0.672-1.5 1.5-1.5s1.5 0.672 1.5 1.5z"></path>
</svg>
