<!-- Generated by IcoMoon.io -->
<svg version="1.1" xmlns="http://www.w3.org/2000/svg" width="40" height="40" viewBox="0 0 40 40">
<title>io-pint</title>
<path d="M28.938 10.206c-0.009-0.133-0.019-0.272-0.027-0.418l-0.179-2.913c-0.068-1.049-0.934-1.874-1.994-1.875h-13.473c-1.060 0.001-1.927 0.826-1.994 1.869l-0 0.006-0.182 2.914c-0.009 0.144-0.018 0.282-0.027 0.414-0.081 1.202-0.139 2.071 0.233 4.104 0.104 0.569 0.326 1.416 0.608 2.489 0.788 3 2.107 8.023 2.107 12.227v4.477c0 0.828 0.672 1.5 1.5 1.5v0h8.984c0.828 0 1.5-0.672 1.5-1.5v0-4.476c0-4.818 1.332-9.581 2.125-12.426 0.274-0.977 0.489-1.75 0.588-2.289 0.374-2.032 0.316-2.901 0.233-4.104zM26.75 7.234l0.094 1.5c0 0.005 0.001 0.010 0.001 0.016 0 0.138-0.112 0.25-0.25 0.25-0 0-0 0-0.001 0h-13.187c-0 0-0 0-0.001 0-0.138 0-0.25-0.112-0.25-0.25 0-0.006 0-0.011 0.001-0.016l-0 0.001 0.092-1.5c0.008-0.131 0.117-0.234 0.249-0.234 0.001 0 0.001 0 0.002 0h13c0 0 0 0 0.001 0 0.133 0 0.241 0.103 0.249 0.234l0 0.001z"></path>
</svg>
