<!-- Generated by IcoMoon.io -->
<svg version="1.1" xmlns="http://www.w3.org/2000/svg" width="40" height="40" viewBox="0 0 40 40">
<title>io-paper-plane-outline</title>
<path fill="none" stroke-linejoin="round" stroke-linecap="round" stroke-miterlimit="4" stroke-width="2.5" stroke="#000" d="M7.32 16.496l25-9.462c0.053-0.021 0.114-0.033 0.179-0.033 0.276 0 0.5 0.224 0.5 0.5 0 0.064-0.012 0.126-0.034 0.182l0.001-0.003-9.462 25c-0.075 0.187-0.255 0.316-0.465 0.316-0.218 0-0.403-0.139-0.472-0.334l-0.001-0.004-4.213-10.381c-0.102-0.299-0.333-0.53-0.625-0.63l-0.007-0.002-10.381-4.209c-0.2-0.068-0.342-0.255-0.342-0.474 0-0.212 0.132-0.393 0.317-0.466l0.003-0.001z"></path>
<path fill="none" stroke-linejoin="round" stroke-linecap="round" stroke-miterlimit="4" stroke-width="2.5" stroke="#000" d="M32.75 7.25l-14.563 14.563"></path>
</svg>
