<!-- Generated by IcoMoon.io -->
<svg version="1.1" xmlns="http://www.w3.org/2000/svg" width="40" height="40" viewBox="0 0 40 40">
<title>io-pin-sharp</title>
<path d="M25.188 10.188c-0-2.865-2.323-5.187-5.188-5.187s-5.188 2.323-5.188 5.188c0 2.444 1.69 4.493 3.965 5.043l0.035 0.007v17.762l1.188 2 1.187-2v-17.762c2.307-0.563 3.993-2.609 4-5.049v-0.001zM21.5 9.813c-0.725 0-1.313-0.588-1.313-1.313s0.588-1.313 1.313-1.313c0.725 0 1.313 0.588 1.313 1.313v0c0 0.725-0.588 1.313-1.313 1.313v0z"></path>
</svg>
