<!-- Generated by IcoMoon.io -->
<svg version="1.1" xmlns="http://www.w3.org/2000/svg" width="40" height="40" viewBox="0 0 40 40">
<title>io-paw-outline</title>
<path fill="none" stroke-linejoin="miter" stroke-linecap="butt" stroke-miterlimit="10" stroke-width="2.5" stroke="#000" d="M32.609 14.631c-0.205-0.083-0.443-0.131-0.692-0.131-0.002 0-0.004 0-0.006 0h-0.025c-1.261 0.019-2.674 1.199-3.416 2.985-0.889 2.136-0.48 4.322 0.921 4.884 0.205 0.083 0.443 0.131 0.692 0.131 0.002 0 0.004 0 0.005 0h-0c1.267 0 2.7-1.188 3.448-2.985 0.883-2.136 0.467-4.322-0.928-4.884z"></path>
<path fill="none" stroke-linejoin="miter" stroke-linecap="butt" stroke-miterlimit="10" stroke-width="2.5" stroke="#000" d="M24.475 22.967c-1.738-2.883-2.487-3.967-4.475-3.967s-2.744 1.091-4.481 3.967c-1.487 2.46-4.494 2.665-5.244 4.754-0.142 0.348-0.225 0.752-0.225 1.176 0 0.010 0 0.019 0 0.029v-0.001c0 1.699 1.3 3.075 2.9 3.075 1.988 0 4.694-1.587 7.056-1.587s5.056 1.587 7.044 1.587c1.6 0 2.894-1.375 2.894-3.075 0-0.003 0-0.007 0-0.011 0-0.43-0.085-0.839-0.239-1.213l0.008 0.021c-0.75-2.097-3.75-2.294-5.238-4.754z"></path>
<path fill="none" stroke-linejoin="miter" stroke-linecap="butt" stroke-miterlimit="10" stroke-width="2.5" stroke="#000" d="M16.032 16.25c0 0 0.001 0 0.001 0 0.088 0 0.174-0.007 0.258-0.020l-0.009 0.001c1.451-0.211 2.356-2.221 2.028-4.491-0.309-2.14-1.608-3.741-2.966-3.741-0 0-0.001 0-0.001 0-0.088 0-0.174 0.007-0.258 0.020l0.009-0.001c-1.451 0.211-2.356 2.221-2.027 4.491 0.309 2.134 1.608 3.741 2.966 3.741z"></path>
<path fill="none" stroke-linejoin="miter" stroke-linecap="butt" stroke-miterlimit="10" stroke-width="2.5" stroke="#000" d="M26.932 12.509c0.329-2.27-0.577-4.28-2.027-4.491-0.075-0.012-0.161-0.019-0.249-0.019-0 0-0.001 0-0.001 0h0c-1.358 0-2.654 1.601-2.964 3.741-0.329 2.27 0.577 4.28 2.028 4.491 0.075 0.012 0.161 0.019 0.249 0.019 0 0 0.001 0 0.001 0h-0c1.358 0 2.657-1.607 2.964-3.741z"></path>
<path fill="none" stroke-linejoin="miter" stroke-linecap="butt" stroke-miterlimit="10" stroke-width="2.5" stroke="#000" d="M10.611 22.369c1.399-0.563 1.808-2.75 0.92-4.884-0.748-1.798-2.179-2.985-3.444-2.985-0.002 0-0.003 0-0.005 0-0.249 0-0.487 0.048-0.704 0.136l0.013-0.004c-1.399 0.563-1.808 2.75-0.92 4.884 0.747 1.798 2.179 2.985 3.444 2.985 0.002 0 0.003 0 0.005 0 0.249 0 0.487-0.048 0.704-0.136l-0.013 0.004z"></path>
</svg>
