<!-- Generated by IcoMoon.io -->
<svg version="1.1" xmlns="http://www.w3.org/2000/svg" width="40" height="40" viewBox="0 0 40 40">
<title>io-paw-sharp</title>
<path d="M31.675 26.614c-0.55-1.569-1.832-2.364-3.069-3.133-1.077-0.669-2.094-1.302-2.759-2.437-1.833-3.146-2.84-5.044-5.843-5.044s-4.013 1.899-5.851 5.043c-0.666 1.138-1.688 1.772-2.766 2.442-1.238 0.769-2.517 1.563-3.069 3.128-0.202 0.515-0.319 1.111-0.319 1.735 0 0.012 0 0.023 0 0.035v-0.002c0 2.546 2.028 4.618 4.275 4.618s5.207-1.133 7.735-1.133 5.447 1.133 7.722 1.133 4.268-2.072 4.268-4.618c0-0.004 0-0.009 0-0.014 0-0.631-0.119-1.233-0.336-1.787l0.011 0.033z"></path>
<path d="M12 17.5c0 2.485-1.567 4.5-3.5 4.5s-3.5-2.015-3.5-4.5c0-2.485 1.567-4.5 3.5-4.5s3.5 2.015 3.5 4.5z"></path>
<path d="M19 11.5c0 2.485-1.567 4.5-3.5 4.5s-3.5-2.015-3.5-4.5c0-2.485 1.567-4.5 3.5-4.5s3.5 2.015 3.5 4.5z"></path>
<path d="M28 11.5c0 2.485-1.567 4.5-3.5 4.5s-3.5-2.015-3.5-4.5c0-2.485 1.567-4.5 3.5-4.5s3.5 2.015 3.5 4.5z"></path>
<path d="M35 17.5c0 2.485-1.567 4.5-3.5 4.5s-3.5-2.015-3.5-4.5c0-2.485 1.567-4.5 3.5-4.5s3.5 2.015 3.5 4.5z"></path>
</svg>
