<!-- Generated by IcoMoon.io -->
<svg version="1.1" xmlns="http://www.w3.org/2000/svg" width="40" height="40" viewBox="0 0 40 40">
<title>io-paper-plane</title>
<path d="M33.563 6.441c-0.271-0.271-0.646-0.439-1.061-0.439-0.192 0-0.375 0.036-0.543 0.101l0.010-0.004-25.007 9.463c-0.567 0.223-0.962 0.765-0.962 1.4 0 0.658 0.424 1.217 1.013 1.419l0.011 0.003 0.026 0.008 8.581 3.664c0.087 0.027 0.187 0.043 0.291 0.043 0.263 0 0.503-0.102 0.681-0.268l-0.001 0.001 13.773-12.833c0.080-0.080 0.19-0.129 0.313-0.129 0.244 0 0.442 0.198 0.442 0.442 0 0.122-0.049 0.233-0.129 0.313v0l-12.834 13.766c-0.166 0.178-0.267 0.418-0.267 0.681 0 0.104 0.016 0.204 0.045 0.298l-0.002-0.007 3.666 8.586c0.004 0.013 0.008 0.024 0.012 0.036 0.2 0.579 0.706 0.988 1.318 1.016 0.027 0 0.036 0 0.063 0 0.003 0 0.006 0 0.009 0 0.644 0 1.195-0.395 1.425-0.956l0.004-0.010 9.462-24.995c0.064-0.16 0.1-0.346 0.1-0.54 0-0.413-0.167-0.787-0.437-1.059l0 0z"></path>
</svg>
