<!-- Generated by IcoMoon.io -->
<svg version="1.1" xmlns="http://www.w3.org/2000/svg" width="40" height="40" viewBox="0 0 40 40">
<title>io-qr-code-sharp</title>
<path d="M25 25h5v5h-5v-5z"></path>
<path d="M21 21h4v4h-4v-4z"></path>
<path d="M30 30h4v4h-4v-4z"></path>
<path d="M31 21h3v3h-3v-3z"></path>
<path d="M21 31h3v3h-3v-3z"></path>
<path d="M25 10h5v5h-5v-5z"></path>
<path d="M34 19h-13v-13h13zM23.75 16.25h7.5v-7.5h-7.5z"></path>
<path d="M10 10h5v5h-5v-5z"></path>
<path d="M19 19h-13v-13h13zM8.75 16.25h7.5v-7.5h-7.5z"></path>
<path d="M10 25h5v5h-5v-5z"></path>
<path d="M19 34h-13v-13h13zM8.75 31.25h7.5v-7.5h-7.5z"></path>
</svg>
