<!-- Generated by IcoMoon.io -->
<svg version="1.1" xmlns="http://www.w3.org/2000/svg" width="40" height="40" viewBox="0 0 40 40">
<title>io-rose-outline</title>
<path fill="none" stroke-linejoin="round" stroke-linecap="round" stroke-miterlimit="4" stroke-width="2.5" stroke="#000" d="M30 12c-1.181 0.266-2.3 0.559-3.356 0.872-2.531 0.75-4.719 1.697-6.587 2.603-1.206 0.586-1.637 0.844-3.219 1.764-3.65 2.106-5.837 4.838-5.837 8.926 0 4.619 3.475 7.835 9 7.835s9-3.488 9-8.108-3.813-7.815 1-13.893z"></path>
<path fill="none" stroke-linejoin="round" stroke-linecap="round" stroke-miterlimit="4" stroke-width="2.5" stroke="#000" d="M20.5 15.262c-1.231-1.688-2.388-2.418-3.294-2.912-3.044-1.656-7.206-2.35-7.206-2.35 2.594 2.731 2.325 5.631 2 8 0 0-0.242 2.055 0.119 3.651"></path>
<path fill="none" stroke-linejoin="round" stroke-linecap="round" stroke-miterlimit="4" stroke-width="2.5" stroke="#000" d="M27.25 12.697c-0.966-2.284-2.25-4.697-2.25-4.697s-3.957 0-8.481 4"></path>
<path fill="none" stroke-linejoin="round" stroke-linecap="round" stroke-miterlimit="4" stroke-width="2.5" stroke="#000" d="M19.843 9.473c-2.014-2.61-4.843-3.473-4.843-3.473-0.956 1.3-1.799 3.224-2.179 4.636"></path>
</svg>
