<!-- Generated by IcoMoon.io -->
<svg version="1.1" xmlns="http://www.w3.org/2000/svg" width="40" height="40" viewBox="0 0 40 40">
<title>io-restaurant</title>
<path d="M26.348 17.996c0.004 0 0.009 0 0.014 0 1.377 0 2.623-0.56 3.522-1.465l4.813-4.81c0.381-0.381 0.416-1 0.053-1.399-0.184-0.202-0.447-0.328-0.741-0.328-0.276 0-0.526 0.112-0.707 0.293v0l-4.289 4.286c-0.139 0.139-0.331 0.225-0.543 0.225s-0.404-0.086-0.543-0.225v0c-0.299-0.299-0.283-0.804 0.016-1.102l4.271-4.271c0.181-0.181 0.293-0.431 0.293-0.707 0-0.293-0.126-0.557-0.327-0.74l-0.001-0.001c-0.173-0.157-0.403-0.253-0.656-0.253-0.002 0-0.004 0-0.006 0h0c-0.288 0-0.549 0.117-0.738 0.306v0l-4.267 4.266c-0.139 0.139-0.331 0.225-0.543 0.225s-0.404-0.086-0.543-0.225v0c-0.299-0.299-0.283-0.804 0.016-1.102l4.271-4.269c0.181-0.181 0.293-0.431 0.293-0.707 0-0.293-0.126-0.557-0.327-0.74l-0.001-0.001c-0.173-0.157-0.403-0.253-0.656-0.253-0.002 0-0.004 0-0.006 0h0c-0.288 0-0.549 0.117-0.738 0.306l-4.809 4.809c-0.905 0.9-1.465 2.146-1.465 3.523 0 0.005 0 0.010 0 0.015v-0.001 0.514c0 0 0 0.001 0 0.001 0 0.276-0.112 0.526-0.293 0.707v0l-2.226 2.226c-0.045 0.045-0.108 0.073-0.177 0.073s-0.132-0.028-0.177-0.073v0l-10.83-10.831c-0.181-0.181-0.431-0.293-0.707-0.293-0.274 0-0.523 0.111-0.704 0.29l0-0c-0.947 0.938-1.452 2.263-1.452 3.829-0.006 2.587 1.354 5.562 3.549 7.755l5.341 5.341c0.732 0.731 1.743 1.183 2.86 1.183h0c0.001 0 0.001 0 0.002 0 0.36 0 0.708-0.047 1.039-0.136l-0.028 0.006c0.076-0.021 0.164-0.033 0.254-0.033h0c0.262 0 0.5 0.101 0.678 0.266l-0.001-0.001 0.712 0.657c0.177 0.181 0.287 0.429 0.287 0.702v0.346c0 0.002 0 0.004 0 0.007 0 0.817 0.329 1.558 0.861 2.096l-0-0 5.634 5.729c0.603 0.603 1.435 0.975 2.355 0.975 1.839 0 3.331-1.491 3.331-3.331 0-0.92-0.373-1.753-0.976-2.355l-8.436-8.436c-0.045-0.045-0.073-0.108-0.073-0.177s0.028-0.132 0.073-0.177v0l2.226-2.226c0.181-0.181 0.431-0.293 0.707-0.293 0 0 0 0 0 0v0z"></path>
<path d="M17.188 26.375c-1.667-0.004-3.176-0.677-4.273-1.766l-0.866-0.866c-0.090-0.090-0.215-0.146-0.353-0.146s-0.263 0.056-0.353 0.146v0l-5.313 5.285c-0.947 0.947-1.285 2.341-0.816 3.706 0.031 0.090 0.062 0.164 0.098 0.236l-0.005-0.011c0.631 1.291 1.854 2.041 3.193 2.041 0.003 0 0.006 0 0.009 0 0.965 0 1.838-0.393 2.469-1.027l0-0 7.085-7.119c0.052-0.053 0.084-0.125 0.084-0.205 0-0.010-0-0.019-0.001-0.029l0 0.001v-0.016c-0.011-0.151-0.136-0.269-0.289-0.269-0.012 0-0.023 0.001-0.035 0.002l0.001-0c-0.189 0.022-0.41 0.036-0.634 0.037h-0.002z"></path>
</svg>
