<!-- Generated by IcoMoon.io -->
<svg version="1.1" xmlns="http://www.w3.org/2000/svg" width="40" height="40" viewBox="0 0 40 40">
<title>io-ribbon-sharp</title>
<path d="M20 25c-0.326 0-0.65-0.015-0.969-0.043-3.437-0.316-6.385-2.17-8.18-4.858l-0.025-0.040-5.575 9.941h7.188l3.625 6 5.158-11.068c-0.366 0.043-0.79 0.068-1.22 0.068h-0z"></path>
<path d="M29.188 20.046c-1.32 1.978-3.21 3.485-5.434 4.297l-0.077 0.025-2.57 5.601 2.831 6.031 3.625-6h7.188z"></path>
<path d="M23.001 14c0 1.657-1.343 3-3 3s-3-1.343-3-3c0-1.657 1.343-3 3-3s3 1.343 3 3z"></path>
<path d="M20 5c-4.963 0-9 4.038-9 9s4.038 9 9 9 9-4.038 9-9-4.038-9-9-9zM20 19c-2.761 0-5-2.239-5-5s2.239-5 5-5c2.761 0 5 2.239 5 5v0c-0.003 2.76-2.24 4.997-5 5h-0z"></path>
</svg>
