<!-- Generated by IcoMoon.io -->
<svg version="1.1" xmlns="http://www.w3.org/2000/svg" width="40" height="40" viewBox="0 0 40 40">
<title>io-speedometer-sharp</title>
<path d="M20 7c-8.284 0-15 6.784-15 15.16-0 0.010-0 0.021-0 0.032 0 3.847 1.429 7.361 3.785 10.039l-0.015-0.017c0.074 0.081 0.141 0.163 0.214 0.237 0.591 0.549 0.77 0.549 1.239 0.549s0.777 0 1.246-0.555c2.031-2.405 5.156-3.445 8.531-3.445s6.504 1.044 8.531 3.445c0.469 0.555 0.77 0.555 1.246 0.555s0.706 0 1.239-0.549c0.076-0.078 0.141-0.156 0.214-0.237 2.341-2.661 3.77-6.175 3.77-10.022 0-0.011 0-0.023-0-0.034v0.002c0-8.376-6.716-15.16-15-15.16zM19 11h2v4h-2zM13 23h-4v-2h4zM14.343 17.758l-2.828-2.829 1.414-1.414 2.829 2.828zM21.412 23.212c-0.123 0.17-0.268 0.314-0.432 0.434l-0.006 0.004c-0.3 0.212-0.674 0.338-1.077 0.338-1.039 0-1.882-0.843-1.882-1.882 0-0.622 0.301-1.173 0.766-1.515l0.005-0.004 5.212-2.588zM24.242 16.343l2.829-2.828 1.414 1.414-2.828 2.829zM31 23h-4v-2h4z"></path>
</svg>
