<!-- Generated by IcoMoon.io -->
<svg version="1.1" xmlns="http://www.w3.org/2000/svg" width="40" height="40" viewBox="0 0 40 40">
<title>io-snow-outline</title>
<path fill="none" stroke-linejoin="round" stroke-linecap="round" stroke-miterlimit="4" stroke-width="2.5" stroke="#000" d="M20 6v28"></path>
<path fill="none" stroke-linejoin="round" stroke-linecap="round" stroke-miterlimit="4" stroke-width="2.5" stroke="#000" d="M23.607 9c-1.026 0.628-2.268 1-3.596 1-0.004 0-0.008 0-0.012 0h0.001c-0.003 0-0.007 0-0.011 0-1.329 0-2.57-0.372-3.627-1.017l0.031 0.017"></path>
<path fill="none" stroke-linejoin="round" stroke-linecap="round" stroke-miterlimit="4" stroke-width="2.5" stroke="#000" d="M16.393 31c1.030-0.628 2.275-1 3.607-1s2.578 0.372 3.638 1.018l-0.031-0.017"></path>
<path fill="none" stroke-linejoin="round" stroke-linecap="round" stroke-miterlimit="4" stroke-width="2.5" stroke="#000" d="M32.124 13l-24.249 14"></path>
<path fill="none" stroke-linejoin="round" stroke-linecap="round" stroke-miterlimit="4" stroke-width="2.5" stroke="#000" d="M31.329 17.625c-2.168-1.219-3.608-3.505-3.608-6.127 0-0.043 0-0.087 0.001-0.13l-0 0.006"></path>
<path fill="none" stroke-linejoin="round" stroke-linecap="round" stroke-miterlimit="4" stroke-width="2.5" stroke="#000" d="M8.671 22.375c2.168 1.219 3.608 3.505 3.608 6.127 0 0.043-0 0.087-0.001 0.13l0-0.006"></path>
<path fill="none" stroke-linejoin="round" stroke-linecap="round" stroke-miterlimit="4" stroke-width="2.5" stroke="#000" d="M7.876 13l24.249 14"></path>
<path fill="none" stroke-linejoin="round" stroke-linecap="round" stroke-miterlimit="4" stroke-width="2.5" stroke="#000" d="M8.671 17.625c2.168-1.219 3.608-3.505 3.608-6.127 0-0.043-0-0.087-0.001-0.13l0 0.006"></path>
<path fill="none" stroke-linejoin="round" stroke-linecap="round" stroke-miterlimit="4" stroke-width="2.5" stroke="#000" d="M31.329 22.375c-2.168 1.219-3.608 3.505-3.608 6.127 0 0.043 0 0.087 0.001 0.13l-0-0.006"></path>
</svg>
