<!-- Generated by IcoMoon.io -->
<svg version="1.1" xmlns="http://www.w3.org/2000/svg" width="40" height="40" viewBox="0 0 40 40">
<title>io-transgender-sharp</title>
<path d="M34 32.059l-3.059-3.067 2.059-2.059-1.944-1.944-2.056 2.056-1.472-1.476c1.15-1.536 1.841-3.474 1.841-5.572 0-2.103-0.694-4.043-1.865-5.605l0.017 0.024 3.722-3.722v2.307h2.75v-7h-7v2.75h2.304l-3.722 3.722c-1.538-1.154-3.478-1.848-5.581-1.848s-4.043 0.694-5.605 1.865l0.024-0.017-0.472-0.472 2.063-2.063-1.942-1.945-2.063 2.063-1.307-1.305h2.307v-2.75h-7v7h2.75v-2.307l1.304 1.307-2.063 2.063 1.946 1.941 2.063-2.063 0.473 0.473c-1.154 1.534-1.848 3.472-1.848 5.571 0 0.004 0 0.008 0 0.012v-0.001c0 5.168 4.204 9.375 9.375 9.375 0.003 0 0.007 0 0.011 0 2.103 0 4.043-0.697 5.603-1.871l-0.024 0.017 1.469 1.474-2.071 2.066 1.944 1.944 2.063-2.063 3.056 3.063zM13.375 19.996c0-3.659 2.966-6.625 6.625-6.625s6.625 2.966 6.625 6.625c0 3.659-2.966 6.625-6.625 6.625v0c-3.658-0.003-6.622-2.967-6.625-6.625v-0z"></path>
</svg>
