<!-- Generated by IcoMoon.io -->
<svg version="1.1" xmlns="http://www.w3.org/2000/svg" width="40" height="40" viewBox="0 0 40 40">
<title>io-text</title>
<path d="M22.287 29.486l-7.5-20c-0.201-0.526-0.701-0.892-1.287-0.892s-1.086 0.367-1.284 0.883l-0.003 0.009-7.5 20c-0.053 0.14-0.083 0.302-0.083 0.471 0 0.759 0.616 1.375 1.375 1.375 0.582 0 1.079-0.361 1.28-0.871l0.003-0.009 2.26-6.026c0.018-0.048 0.064-0.081 0.117-0.081v0h7.671c0.053 0 0.099 0.033 0.117 0.080l0 0.001 2.26 6.026c0.204 0.519 0.701 0.881 1.283 0.881 0.759 0 1.375-0.616 1.375-1.375 0-0.169-0.030-0.331-0.086-0.48l0.003 0.009zM10.672 21.424l2.711-7.228c0.018-0.048 0.064-0.081 0.117-0.081s0.098 0.033 0.117 0.080l0 0.001 2.711 7.229c0.005 0.013 0.008 0.028 0.008 0.044 0 0.069-0.056 0.125-0.125 0.125v0h-5.421c-0.069-0-0.125-0.056-0.125-0.125 0-0.016 0.003-0.031 0.008-0.045l-0 0.001z"></path>
<path d="M29.048 14.594c-2.607-0.019-4.943 1.492-5.938 3.838-0.069 0.159-0.109 0.343-0.109 0.537 0 0.759 0.616 1.375 1.375 1.375 0.565 0 1.051-0.341 1.262-0.829l0.003-0.009c0.555-1.306 1.861-2.152 3.332-2.163 2.020-0.014 3.651 1.656 3.651 3.678v0c0 0 0 0 0 0 0 0.051-0.040 0.092-0.090 0.094h-0c-1.37 0.038-2.995 0.129-4.445 0.3-3.422 0.402-5.464 2.268-5.464 4.991 0 1.449 0.547 2.75 1.542 3.668 0.933 0.859 2.208 1.332 3.583 1.332 1.938 0 3.606-0.5 4.871-1.451 0 0 0.004 0 0.004 0v0c0 0.002 0 0.004 0 0.006 0 0.759 0.616 1.375 1.375 1.375 0.757 0 1.372-0.612 1.375-1.369v-8.938c0-3.511-2.813-6.41-6.327-6.436zM27.75 28.656c-1.096 0-2.375-0.589-2.375-2.25 0-0.667 0.239-1.134 0.777-1.514 0.523-0.371 1.325-0.635 2.259-0.745 1.32-0.156 2.801-0.241 4.071-0.279 0 0 0 0 0 0 0.069 0 0.125 0.056 0.125 0.125 0 0.002-0 0.004-0 0.007v-0c-0.169 3.133-1.766 4.657-4.857 4.657z"></path>
</svg>
