<!-- Generated by IcoMoon.io -->
<svg version="1.1" xmlns="http://www.w3.org/2000/svg" width="40" height="40" viewBox="0 0 40 40">
<title>io-thunderstorm-outline</title>
<path fill="none" stroke-linejoin="round" stroke-linecap="round" stroke-miterlimit="4" stroke-width="2.5" stroke="#000" d="M11.5 26l-1.5 3"></path>
<path fill="none" stroke-linejoin="round" stroke-linecap="round" stroke-miterlimit="4" stroke-width="2.5" stroke="#000" d="M12.5 31l-1 2"></path>
<path fill="none" stroke-linejoin="round" stroke-linecap="round" stroke-miterlimit="4" stroke-width="2.5" stroke="#000" d="M29 26l-1.5 3"></path>
<path fill="none" stroke-linejoin="round" stroke-linecap="round" stroke-miterlimit="4" stroke-width="2.5" stroke="#000" d="M30 31l-1 2"></path>
<path fill="none" stroke-linejoin="round" stroke-linecap="round" stroke-miterlimit="4" stroke-width="2.5" stroke="#000" d="M17 23l-1 6h3v5l5-7h-3l1-4"></path>
<path fill="none" stroke-linejoin="round" stroke-linecap="round" stroke-miterlimit="4" stroke-width="2.5" stroke="#000" d="M29.271 13.556h-0.758c-0.468-4.252-4.129-7.556-8.512-7.556-0.002 0-0.005 0-0.008 0-3.683 0-6.821 2.336-8.012 5.608l-0.019 0.059h-0.286c-3.121 0-5.675 2.55-5.675 5.666v0c0 3.117 2.554 5.667 5.675 5.667h17.596c2.604 0 4.729-2.125 4.729-4.723v0c0-2.597-2.125-4.722-4.729-4.722z"></path>
</svg>
