<!-- Generated by IcoMoon.io -->
<svg version="1.1" xmlns="http://www.w3.org/2000/svg" width="40" height="40" viewBox="0 0 40 40">
<title>io-ticket</title>
<path d="M34.636 15.337l-2.758-2.758c-0.226-0.223-0.536-0.36-0.878-0.36-0.31 0-0.593 0.113-0.811 0.299l0.002-0.001c-0.334 0.286-0.771 0.459-1.248 0.459-0.529 0-1.009-0.214-1.357-0.559l0 0c-0.345-0.348-0.559-0.827-0.559-1.357 0-0.477 0.174-0.914 0.461-1.25l-0.002 0.003c0.185-0.217 0.298-0.5 0.298-0.81 0-0.342-0.137-0.652-0.36-0.878l-2.761-2.761c-0.225-0.225-0.536-0.364-0.879-0.364s-0.654 0.139-0.879 0.364l-4.397 4.396c-0.264 0.265-0.469 0.589-0.593 0.951l-0.005 0.018c-0.049 0.142-0.159 0.253-0.299 0.301l-0.003 0.001c-0.379 0.129-0.704 0.334-0.969 0.599l-11.275 11.275c-0.225 0.225-0.364 0.536-0.364 0.879s0.139 0.654 0.364 0.879l-0-0 2.761 2.758c0.226 0.223 0.536 0.36 0.878 0.36 0.31 0 0.593-0.113 0.811-0.299l-0.002 0.001c0.334-0.288 0.772-0.464 1.251-0.464 1.059 0 1.918 0.859 1.918 1.918 0 0.479-0.176 0.917-0.466 1.253l0.002-0.002c-0.185 0.217-0.298 0.5-0.298 0.81 0 0.342 0.137 0.652 0.36 0.878l2.758 2.758c0.225 0.225 0.536 0.364 0.879 0.364s0.654-0.139 0.879-0.364l11.275-11.275c0.264-0.265 0.469-0.589 0.594-0.951l0.005-0.017c0.049-0.143 0.16-0.253 0.299-0.301l0.003-0.001c0.379-0.129 0.703-0.334 0.968-0.598l4.396-4.397c0.224-0.225 0.362-0.535 0.362-0.878s-0.139-0.653-0.363-0.878l0 0zM20.363 13.484c-0.181 0.181-0.431 0.293-0.707 0.293s-0.526-0.112-0.707-0.293l-0.719-0.719c-0.175-0.18-0.282-0.426-0.282-0.697 0-0.552 0.448-1 1-1 0.271 0 0.517 0.108 0.697 0.283l0.719 0.719c0.181 0.181 0.293 0.431 0.293 0.707s-0.112 0.526-0.293 0.707v0zM23.113 16.234c-0.181 0.181-0.431 0.293-0.707 0.293s-0.526-0.112-0.707-0.293l-0.688-0.688c-0.181-0.181-0.293-0.431-0.293-0.707 0-0.552 0.448-1 1-1 0.276 0 0.526 0.112 0.707 0.293l0.688 0.688c0.182 0.181 0.294 0.432 0.294 0.708s-0.112 0.527-0.294 0.708l-0 0zM25.863 18.984c-0.181 0.181-0.431 0.293-0.707 0.293s-0.526-0.112-0.707-0.293l-0.688-0.688c-0.175-0.18-0.282-0.426-0.282-0.697 0-0.552 0.448-1 1-1 0.271 0 0.517 0.108 0.697 0.283l0.687 0.687c0.183 0.181 0.296 0.432 0.296 0.71 0 0.276-0.112 0.526-0.293 0.707v0zM28.64 21.768c-0.181 0.181-0.431 0.293-0.707 0.293s-0.526-0.112-0.707-0.293v0l-0.715-0.719c-0.186-0.182-0.301-0.435-0.301-0.716 0-0.552 0.448-1 1-1 0.282 0 0.537 0.117 0.719 0.305l0 0 0.716 0.718c0.181 0.181 0.293 0.431 0.293 0.707s-0.112 0.526-0.293 0.707v0z"></path>
</svg>
