<!-- Generated by IcoMoon.io -->
<svg version="1.1" xmlns="http://www.w3.org/2000/svg" width="40" height="40" viewBox="0 0 40 40">
<title>io-thunderstorm</title>
<path d="M10 30c-0.552-0-0.999-0.448-0.999-1 0-0.163 0.039-0.317 0.108-0.453l-0.003 0.006 1.5-3c0.168-0.33 0.505-0.553 0.894-0.553 0.552 0 1 0.448 1 1 0 0.163-0.039 0.317-0.108 0.453l0.003-0.006-1.5 3c-0.168 0.33-0.505 0.553-0.894 0.553-0 0-0.001 0-0.001 0h0z"></path>
<path d="M11.5 34c-0.552-0-0.999-0.448-0.999-1 0-0.163 0.039-0.317 0.108-0.453l-0.003 0.006 1-2c0.168-0.33 0.505-0.553 0.894-0.553 0.552 0 1 0.448 1 1 0 0.163-0.039 0.317-0.108 0.453l0.003-0.006-1 2c-0.168 0.33-0.505 0.553-0.894 0.553-0 0-0.001 0-0.001 0h0z"></path>
<path d="M27.5 30c-0.552-0-0.999-0.448-0.999-1 0-0.163 0.039-0.317 0.108-0.453l-0.003 0.006 1.5-3c0.168-0.33 0.505-0.553 0.894-0.553 0.552 0 1 0.448 1 1 0 0.163-0.039 0.317-0.108 0.453l0.003-0.006-1.5 3c-0.168 0.33-0.505 0.553-0.894 0.553-0 0-0.001 0-0.001 0h0z"></path>
<path d="M29 34c-0.552-0-0.999-0.448-0.999-1 0-0.163 0.039-0.317 0.108-0.453l-0.003 0.006 1-2c0.168-0.33 0.505-0.553 0.894-0.553 0.552 0 1 0.448 1 1 0 0.163-0.039 0.317-0.108 0.453l0.003-0.006-1 2c-0.168 0.33-0.505 0.553-0.894 0.553-0 0-0.001 0-0.001 0h0z"></path>
<path d="M29.365 12.556c-0.443-2.050-1.5-3.805-2.966-5.11l-0.009-0.008c-1.684-1.511-3.922-2.436-6.376-2.436-3.874 0-7.211 2.304-8.713 5.617l-0.024 0.060c-3.496 0.206-6.277 3.112-6.277 6.654 0 3.676 2.994 6.667 6.675 6.667h4.144l-0.806 4.836c-0.009 0.049-0.014 0.106-0.014 0.164 0 0.552 0.448 1 1 1h2v4c0.001 0.552 0.448 0.998 1 0.998 0.333 0 0.629-0.163 0.811-0.414l0.002-0.003 5-7c0.116-0.161 0.186-0.363 0.186-0.581 0-0.552-0.447-0.999-0.999-1h-1.719l0.5-2h6.49c3.151-0.013 5.699-2.57 5.699-5.722 0-3.119-2.496-5.655-5.599-5.721l-0.006-0z"></path>
</svg>
