<!-- Generated by IcoMoon.io -->
<svg version="1.1" xmlns="http://www.w3.org/2000/svg" width="40" height="40" viewBox="0 0 40 40">
<title>io-train</title>
<path d="M21.416 21.584c0.78 0.78 0.777 2.046-0.005 2.828s-2.048 0.784-2.828 0.005c-0.78-0.78-0.777-2.046 0.005-2.828s2.048-0.784 2.828-0.005z"></path>
<path d="M26 6h-0.938c-0.001 0-0.002 0-0.002 0-0.198 0-0.374-0.092-0.488-0.235l-0.001-0.001c-0.369-0.467-0.935-0.764-1.57-0.764-0 0-0 0-0 0h-6c-0.671 0-1.265 0.331-1.628 0.839l-0.004 0.006c-0.069 0.094-0.179 0.155-0.304 0.155-0.001 0-0.001 0-0.002 0h-1.062c-2.301 0-4 1.803-4 4v15.938c0 1.454 1.6 2.629 5.188 3.809 1.179 0.404 2.724 0.829 4.299 1.176l0.312 0.058c0.061 0.013 0.13 0.021 0.202 0.021s0.141-0.008 0.208-0.022l-0.007 0.001c1.887-0.404 3.432-0.829 4.943-1.328l-0.332 0.095c3.588-1.18 5.187-2.354 5.187-3.809v-15.938c0-2.209-1.791-4-4-4v0zM15.5 12h9c0.276 0 0.5 0.224 0.5 0.5v0 3c0 0.276-0.224 0.5-0.5 0.5v0h-9c-0.276 0-0.5-0.224-0.5-0.5v0-3c0-0.276 0.224-0.5 0.5-0.5v0zM20.261 26.992c-0.078 0.005-0.169 0.009-0.261 0.009-2.209 0-4-1.791-4-4s1.791-4 4-4c2.209 0 4 1.791 4 4 0 0.092-0.003 0.183-0.009 0.273l0.001-0.012c-0.137 2.003-1.728 3.594-3.718 3.73l-0.012 0.001z"></path>
<path d="M28.707 33.293l-2.98-2.981c-0.381-0.381-1-0.416-1.399-0.054-0.202 0.184-0.328 0.447-0.328 0.74 0 0.276 0.112 0.526 0.293 0.707v0l0.293 0.293h-9.171l0.272-0.273c0.381-0.381 0.416-1 0.054-1.399-0.184-0.202-0.447-0.328-0.74-0.328-0.276 0-0.526 0.112-0.707 0.293l-3 3c-0.192 0.183-0.311 0.44-0.311 0.725 0 0.552 0.448 1 1 1 0.285 0 0.542-0.119 0.725-0.311l0-0 0.708-0.706h13.171l0.707 0.707c0.179 0.17 0.422 0.275 0.689 0.275 0.552 0 1-0.448 1-1 0-0.267-0.105-0.51-0.275-0.689l0 0z"></path>
</svg>
