<!-- Generated by IcoMoon.io -->
<svg version="1.1" xmlns="http://www.w3.org/2000/svg" width="40" height="40" viewBox="0 0 40 40">
<title>io-telescope</title>
<path d="M10.723 19.625c-0.176-0.301-0.498-0.5-0.866-0.5-0.184 0-0.356 0.050-0.504 0.136l0.005-0.003-3.107 1.792c-0.58 0.337-1.005 0.887-1.171 1.54l-0.004 0.017c-0.045 0.179-0.071 0.385-0.071 0.597 0 0.479 0.132 0.928 0.362 1.311l-0.006-0.012 0.272 0.471c0.441 0.752 1.244 1.248 2.164 1.248 0.46 0 0.891-0.124 1.261-0.341l-0.012 0.006 3.104-1.789c0.301-0.176 0.501-0.498 0.501-0.866 0-0.184-0.050-0.356-0.136-0.505l0.003 0.005z"></path>
<path d="M27.927 31.55l-5.883-11.675c-0.008-0.016-0.013-0.036-0.013-0.056 0-0.046 0.025-0.086 0.062-0.108l0.001-0 0.519-0.299c0.301-0.176 0.5-0.498 0.5-0.866 0-0.184-0.050-0.357-0.137-0.505l0.003 0.005-2.971-5.146c-0.176-0.301-0.498-0.501-0.866-0.501-0.184 0-0.356 0.050-0.505 0.136l0.005-0.003-5.399 3.112c-0.569 0.33-0.988 0.864-1.162 1.5l-0.004 0.017c-0.054 0.181-0.086 0.389-0.086 0.604 0 0.002 0 0.004 0 0.006v-0c0.004 0.475 0.575 1.419 1.133 2.393 0.599 1.047 1.203 2.117 1.646 2.384 0.283 0.17 0.781 0.306 1.201 0.306h0.052l-4.957 10.725c-0.058 0.123-0.093 0.268-0.093 0.42 0 0.552 0.448 1 1 1 0.401 0 0.746-0.235 0.906-0.575l0.003-0.006 5.855-12.666c0.044-0.095 0.114-0.171 0.201-0.222l0.002-0.001 1.201-0.692c0.018-0.010 0.039-0.016 0.062-0.016 0.049 0 0.091 0.028 0.111 0.068l0 0.001 5.826 11.563c0.168 0.329 0.505 0.55 0.893 0.55 0.552 0 1-0.448 1-1 0-0.164-0.040-0.319-0.11-0.456l0.003 0.006z"></path>
<path d="M34.638 11.234l-2.883-4.984c-0.442-0.751-1.246-1.247-2.166-1.247-0.459 0-0.89 0.124-1.26 0.34l0.012-0.006-5.834 3.361c-0.569 0.33-0.989 0.864-1.162 1.5l-0.004 0.017c-0.058 0.181-0.092 0.389-0.092 0.605 0 0.078 0.004 0.156 0.013 0.232l-0.001-0.009c0.109 0.789 0.812 1.9 1.651 3.368 0.849 1.483 1.807 3.155 2.308 3.517 0.403 0.288 0.906 0.46 1.449 0.461h0c0 0 0.001 0 0.001 0 0.458 0 0.887-0.124 1.256-0.34l-0.012 0.006 5.835-3.363c0.579-0.336 1.004-0.884 1.171-1.535l0.004-0.017c0.045-0.18 0.071-0.387 0.071-0.6 0-0.482-0.133-0.932-0.364-1.317l0.006 0.012z"></path>
</svg>
