<!-- Generated by IcoMoon.io -->
<svg version="1.1" xmlns="http://www.w3.org/2000/svg" width="40" height="40" viewBox="0 0 40 40">
<title>io-volume-mute</title>
<path fill="none" stroke-linejoin="miter" stroke-linecap="round" stroke-miterlimit="10" stroke-width="2.5" stroke="#000" d="M30 31l-22-22"></path>
<path d="M19.208 10.179c-0.205-0.113-0.449-0.179-0.709-0.179-0.334 0-0.643 0.11-0.892 0.296l0.004-0.003-0.041 0.032-1.782 1.459c-0.112 0.092-0.183 0.231-0.183 0.387 0 0.138 0.056 0.263 0.147 0.354l3.396 3.396c0.091 0.091 0.216 0.147 0.354 0.147 0.276 0 0.5-0.224 0.5-0.5 0-0 0-0 0-0v0-4.031c0-0.005 0-0.010 0-0.016 0-0.575-0.316-1.075-0.784-1.337l-0.008-0.004z"></path>
<path d="M19.708 24.956l-9.665-9.663c-0.181-0.181-0.431-0.293-0.707-0.293h-1.836c-0.828 0-1.5 0.672-1.5 1.5v0 7c0 0.828 0.672 1.5 1.5 1.5v0h4.36l5.75 4.707c0.245 0.184 0.555 0.294 0.89 0.294 0.267 0 0.517-0.070 0.734-0.193l-0.007 0.004c0.465-0.269 0.773-0.764 0.773-1.331 0-0.006-0-0.011-0-0.017v0.001-2.804c0-0 0-0 0-0 0-0.276-0.112-0.525-0.292-0.706l0 0z"></path>
<path d="M26 20c0-1.535-0.363-2.992-1.109-4.454-0.168-0.33-0.505-0.551-0.894-0.551-0.552 0-1 0.448-1 1 0 0.168 0.042 0.327 0.115 0.466l-0.003-0.005c0.599 1.174 0.891 2.334 0.891 3.545q0 0.25-0.019 0.508c-0.001 0.011-0.001 0.024-0.001 0.037 0 0.138 0.056 0.263 0.146 0.354l0.898 0.898c0.091 0.091 0.216 0.147 0.354 0.147 0.247 0 0.451-0.178 0.492-0.413l0-0.003c0.082-0.459 0.13-0.987 0.13-1.526v-0z"></path>
<path d="M30 20c0-3.199-0.817-5.243-2.136-7.504-0.178-0.293-0.495-0.485-0.857-0.485-0.552 0-1 0.448-1 1 0 0.181 0.048 0.351 0.132 0.497l-0.003-0.005c1.181 2.024 1.864 3.736 1.864 6.496 0 1.489-0.206 2.68-0.586 3.791-0.017 0.049-0.027 0.105-0.027 0.163 0 0.138 0.056 0.263 0.146 0.353l0.779 0.781c0.091 0.091 0.216 0.147 0.354 0.147 0.212 0 0.393-0.132 0.466-0.318l0.001-0.003c0.554-1.428 0.867-2.959 0.867-4.913z"></path>
<path d="M34 20c0-4.641-1.262-7.569-3.157-10.538-0.181-0.28-0.491-0.463-0.844-0.463-0.553 0-1.001 0.448-1.001 1.001 0 0.2 0.059 0.386 0.159 0.542l-0.002-0.004c1.708 2.673 2.844 5.306 2.844 9.462 0 2.887-0.527 5.017-1.402 6.908-0.029 0.062-0.046 0.134-0.046 0.21 0 0.138 0.056 0.262 0.146 0.353l0.745 0.745c0.091 0.092 0.217 0.149 0.356 0.149 0.198 0 0.369-0.115 0.45-0.281l0.001-0.003c1.225-2.524 1.75-5.018 1.75-8.081z"></path>
</svg>
