<!-- Generated by IcoMoon.io -->
<svg version="1.1" xmlns="http://www.w3.org/2000/svg" width="40" height="40" viewBox="0 0 40 40">
<title>io-woman-outline</title>
<path fill="none" stroke-linejoin="miter" stroke-linecap="round" stroke-miterlimit="10" stroke-width="2.5" stroke="#000" d="M17 27v6.5c-0 0.005-0 0.011-0 0.017 0 0.819 0.664 1.483 1.483 1.483 0.006 0 0.012-0 0.018-0h-0.001c0.005 0 0.011 0 0.017 0 0.819 0 1.483-0.664 1.483-1.483 0-0.006-0-0.012-0-0.018v0.001"></path>
<path fill="none" stroke-linejoin="miter" stroke-linecap="round" stroke-miterlimit="10" stroke-width="2.5" stroke="#000" d="M20 27v6.5c-0 0.005-0 0.011-0 0.017 0 0.819 0.664 1.483 1.483 1.483 0.006 0 0.012-0 0.018-0h-0.001c0.005 0 0.011 0 0.017 0 0.819 0 1.483-0.664 1.483-1.483 0-0.006-0-0.012-0-0.018v0.001-6.5"></path>
<path fill="none" stroke-linejoin="miter" stroke-linecap="round" stroke-miterlimit="10" stroke-width="2.5" stroke="#000" d="M15.438 21.125c-0.182 0.627-0.752 1.078-1.427 1.078-0.156 0-0.307-0.024-0.449-0.069l0.011 0.003c-0.627-0.182-1.077-0.752-1.077-1.426 0-0.157 0.024-0.308 0.069-0.449l-0.003 0.011 1.563-5.268c0.356-1.168 1.424-2.004 2.687-2.004 0.001 0 0.001 0 0.001 0h6.375c0 0 0 0 0 0 1.264 0 2.332 0.836 2.682 1.985l0.005 0.020 1.563 5.268c0.042 0.131 0.066 0.282 0.066 0.439 0 0.674-0.45 1.244-1.067 1.423l-0.010 0.003c-0.13 0.041-0.28 0.065-0.435 0.065-0.675 0-1.244-0.451-1.424-1.067l-0.003-0.010"></path>
<path fill="none" stroke-linejoin="miter" stroke-linecap="round" stroke-miterlimit="10" stroke-width="2.5" stroke="#000" d="M22.5 7.5c0 1.381-1.119 2.5-2.5 2.5s-2.5-1.119-2.5-2.5c0-1.381 1.119-2.5 2.5-2.5s2.5 1.119 2.5 2.5z"></path>
<path fill="none" stroke-linejoin="round" stroke-linecap="round" stroke-miterlimit="4" stroke-width="2.5" stroke="#000" d="M17 16l-3 10h12l-3-10"></path>
</svg>
