<!-- Generated by IcoMoon.io -->
<svg version="1.1" xmlns="http://www.w3.org/2000/svg" width="40" height="40" viewBox="0 0 40 40">
<title>io-wifi-outline</title>
<path fill="none" stroke-linejoin="round" stroke-linecap="round" stroke-miterlimit="4" stroke-width="2.5" stroke="#000" d="M24.776 23.412c-1.263-1.127-2.939-1.815-4.775-1.815s-3.512 0.689-4.782 1.822l0.007-0.006"></path>
<path fill="none" stroke-linejoin="round" stroke-linecap="round" stroke-miterlimit="4" stroke-width="2.5" stroke="#000" d="M28.591 19.596c-2.242-2.101-5.266-3.391-8.591-3.391s-6.349 1.29-8.598 3.397l0.007-0.006"></path>
<path fill="none" stroke-linejoin="round" stroke-linecap="round" stroke-miterlimit="4" stroke-width="2.5" stroke="#000" d="M31.982 15.382c-3.167-2.835-7.372-4.568-11.983-4.568s-8.815 1.733-12 4.583l0.017-0.015"></path>
<path d="M20 30c-1.105 0-2-0.895-2-2s0.895-2 2-2c1.105 0 2 0.895 2 2v0c0 1.105-0.895 2-2 2v0z"></path>
</svg>
