<!-- Generated by IcoMoon.io -->
<svg version="1.1" xmlns="http://www.w3.org/2000/svg" width="40" height="40" viewBox="0 0 40 40">
<title>io-wifi</title>
<path d="M25.666 23.019c-1.494-1.333-3.476-2.147-5.647-2.147s-4.153 0.814-5.656 2.154l0.008-0.007c-0.279 0.242-0.454 0.597-0.454 0.993 0 0.725 0.588 1.313 1.313 1.313 0.342 0 0.653-0.131 0.887-0.345l-0.001 0.001c1.033-0.921 2.402-1.484 3.903-1.484s2.87 0.563 3.909 1.489l-0.006-0.005c0.231 0.206 0.537 0.332 0.872 0.332 0.725 0 1.313-0.588 1.313-1.313 0-0.39-0.17-0.74-0.439-0.98l-0.001-0.001z"></path>
<path d="M20.017 15.481c-0.006 0-0.012 0-0.019 0-3.666 0-6.999 1.425-9.476 3.752l0.007-0.007c-0.269 0.241-0.437 0.59-0.437 0.978 0 0.725 0.588 1.313 1.313 1.313 0.357 0 0.68-0.142 0.917-0.374l-0 0c2.008-1.881 4.717-3.037 7.695-3.037s5.687 1.156 7.701 3.043l-0.006-0.006c0.236 0.231 0.56 0.373 0.917 0.373 0.725 0 1.313-0.588 1.313-1.313 0-0.388-0.168-0.736-0.436-0.977l-0.001-0.001c-2.469-2.32-5.802-3.745-9.468-3.745-0.007 0-0.013 0-0.020 0h0.001z"></path>
<path d="M32.875 14.991c-3.398-3.042-7.911-4.902-12.857-4.902s-9.459 1.86-12.876 4.918l0.018-0.016c-0.282 0.242-0.46 0.599-0.46 0.998 0 0.725 0.588 1.313 1.313 1.313 0.348 0 0.663-0.135 0.898-0.356l-0.001 0.001c2.936-2.627 6.834-4.233 11.107-4.233s8.171 1.606 11.123 4.248l-0.016-0.014c0.231 0.207 0.538 0.334 0.875 0.334 0.725 0 1.313-0.588 1.313-1.313 0-0.388-0.169-0.737-0.436-0.977l-0.001-0.001z"></path>
<path d="M22.018 28.588c0 1.105-0.895 2-2 2s-2-0.895-2-2c0-1.105 0.895-2 2-2s2 0.895 2 2z"></path>
</svg>
