<!-- Generated by IcoMoon.io -->
<svg version="1.1" xmlns="http://www.w3.org/2000/svg" width="40" height="40" viewBox="0 0 40 40">
<title>li-basic_link</title>
<path fill="none" stroke-linejoin="miter" stroke-linecap="butt" stroke-miterlimit="10" stroke-width="1.25" stroke="#000" d="M22.502 20.083c0.612 0.266 1.288 0.414 1.999 0.414 1.636-0.001 3.087-0.788 3.999-2.003l5.996-6.004c0.627-0.836 0.999-1.876 0.998-3.001-0.001-2.761-2.242-4.999-5.004-4.996-1.126 0.001-2.164 0.374-2.999 1.002l-6.496 6.504c-0.884 0.902-1.499 2.139-1.498 3.501 0.001 0.712 0.15 1.389 0.419 2.001"></path>
<path fill="none" stroke-linejoin="miter" stroke-linecap="butt" stroke-miterlimit="10" stroke-width="1.25" stroke="#000" d="M19.916 17.502c0.026 0.061 0.054 0.12 0.083 0.179"></path>
<path fill="none" stroke-linejoin="miter" stroke-linecap="butt" stroke-miterlimit="10" stroke-width="1.25" stroke="#000" d="M17.499 19.918c-0.613-0.268-1.289-0.416-1.999-0.415-1.126 0.001-2.164 0.374-2.999 1.002l-6.495 6.505c-0.884 0.902-1.499 2.138-1.498 3.501 0.001 2.761 2.242 4.999 5.004 4.996 1.636-0.001 3.087-0.788 3.999-2.003l5.996-6.004c0.628-0.836 0.999-1.876 0.998-3.001-0.001-0.711-0.149-1.387-0.418-1.999"></path>
<path fill="none" stroke-linejoin="miter" stroke-linecap="butt" stroke-miterlimit="10" stroke-width="1.25" stroke="#000" d="M15.503 24.503l8.994-9.006"></path>
</svg>
