<!-- Generated by IcoMoon.io -->
<svg version="1.1" xmlns="http://www.w3.org/2000/svg" width="40" height="40" viewBox="0 0 40 40">
<title>li-basic_elaboration_todolist_cloud</title>
<path fill="none" stroke-linejoin="miter" stroke-linecap="butt" stroke-miterlimit="10" stroke-width="1.25" stroke="#000" d="M21.444 25h2.056c0.944 0 1.5-0.5 1.5-1.5 0-0.5-0.5-1.5-1.5-1.5 0-1.802-1.639-3-3.5-3-1.648 0-3.206 1.489-3.5 3v0c-1 0-1.5 1-1.5 1.5 0 1 0.5 1.5 1.5 1.5h5.217"></path>
<path fill="none" stroke-linejoin="miter" stroke-linecap="butt" stroke-miterlimit="10" stroke-width="1.25" stroke="#000" d="M15.5 8h-6.5v27.5h22v-27.5h-6.5"></path>
<path fill="none" stroke-linejoin="miter" stroke-linecap="butt" stroke-miterlimit="10" stroke-width="1.25" stroke="#000" d="M22 6.5v-2h-4v2h-2l-1 4h10l-1-4z"></path>
</svg>
