<!-- Generated by IcoMoon.io -->
<svg version="1.1" xmlns="http://www.w3.org/2000/svg" width="40" height="40" viewBox="0 0 40 40">
<title>li-weather_capricorn</title>
<path fill="none" stroke-linejoin="miter" stroke-linecap="butt" stroke-miterlimit="10" stroke-width="1.25" stroke="#000" d="M8.5 6.5c0 0 0-2 3-2 2.5 0 2 5 2 5v14.5"></path>
<path fill="none" stroke-linejoin="miter" stroke-linecap="butt" stroke-miterlimit="10" stroke-width="1.25" stroke="#000" d="M13.5 9.5c0 0 0-5 3.5-5s3.5 5 3.5 5v14.5c0 0-0.5 7 7.5 7"></path>
<path fill="none" stroke-linejoin="miter" stroke-linecap="butt" stroke-miterlimit="10" stroke-width="1.25" stroke="#000" d="M28 24c-1.5 0-6 0.5-6 6 0 0.5 0.5 5.5-6 5.5"></path>
<path fill="none" stroke-linejoin="miter" stroke-linecap="butt" stroke-miterlimit="10" stroke-width="1.25" stroke="#000" d="M28 31c1.933 0 3.5-1.567 3.5-3.5s-1.567-3.5-3.5-3.5"></path>
</svg>
