<!-- Generated by IcoMoon.io -->
<svg version="1.1" xmlns="http://www.w3.org/2000/svg" width="40" height="40" viewBox="0 0 40 40">
<title>li-weather_cloud_drop</title>
<path fill="none" stroke-linejoin="miter" stroke-linecap="butt" stroke-miterlimit="10" stroke-width="1.25" stroke="#000" d="M13 24h-3.5c-2.854 0-5-2.146-5-5s2.146-5.5 5-5.5c0.418 0 1 0 1 0 0.9-4.789 5.449-8 10.5-8 5.707 0 10.5 4.293 10.5 10 2.283 0 4 2.218 4 4.5s-1.717 4-4 4h-5"></path>
<path fill="none" stroke-linejoin="miter" stroke-linecap="butt" stroke-miterlimit="10" stroke-width="1.25" stroke="#000" d="M15.5 25c0 2.517 2.068 4 4.5 4s4-1.483 4-4c0-3.5-4-8.5-4-8.5s-4.5 5-4.5 8.5z"></path>
</svg>
