<!-- Generated by IcoMoon.io -->
<svg version="1.1" xmlns="http://www.w3.org/2000/svg" width="40" height="40" viewBox="0 0 40 40">
<title>li-weather_hail_halfmoon</title>
<path fill="none" stroke-linejoin="miter" stroke-linecap="butt" stroke-miterlimit="10" stroke-width="1.25" stroke="#000" d="M32 26.5c2.095 0 3.5-1.405 3.5-3.5s-1.405-4.5-3.5-4.5c0-5.238-4.762-9-10-9-4.636 0-8.674 3.106-9.5 7.5 0 0-0.616 0-1 0-2.619 0-4.5 2.381-4.5 5s1.881 4.5 4.5 4.5h20.5z"></path>
<path fill="none" stroke-linejoin="miter" stroke-linecap="butt" stroke-miterlimit="10" stroke-width="1.25" stroke="#000" d="M16.479 11.501c-1.156-1.804-3.176-3.001-5.479-3.001-0.413 0-0.816 0.043-1.207 0.116 0.446 0.698 0.707 1.525 0.707 2.415 0 2.486-2.014 4.5-4.5 4.5-0.523 0-1.023-0.094-1.49-0.258 0.049 1.184 0.411 2.288 1.011 3.226 0.509 0.795 1.186 1.471 1.981 1.98"></path>
<path fill="none" stroke-linejoin="miter" stroke-linecap="butt" stroke-miterlimit="10" stroke-width="1.25" stroke="#000" d="M14 28l-2 4.5"></path>
<path fill="none" stroke-linejoin="miter" stroke-linecap="butt" stroke-miterlimit="10" stroke-width="1.25" stroke="#000" d="M19 28l-2 4.5"></path>
<path fill="none" stroke-linejoin="miter" stroke-linecap="butt" stroke-miterlimit="10" stroke-width="1.25" stroke="#000" d="M24 28l-2 4.5"></path>
<path fill="none" stroke-linejoin="miter" stroke-linecap="butt" stroke-miterlimit="10" stroke-width="1.25" stroke="#000" d="M29 28l-2 4.5"></path>
<path fill="none" stroke-linejoin="miter" stroke-linecap="butt" stroke-miterlimit="10" stroke-width="1.25" stroke="#000" d="M11.5 34l-0.5 1"></path>
<path fill="none" stroke-linejoin="miter" stroke-linecap="butt" stroke-miterlimit="10" stroke-width="1.25" stroke="#000" d="M16.5 34l-0.5 1"></path>
<path fill="none" stroke-linejoin="miter" stroke-linecap="butt" stroke-miterlimit="10" stroke-width="1.25" stroke="#000" d="M21.5 34l-0.5 1"></path>
<path fill="none" stroke-linejoin="miter" stroke-linecap="butt" stroke-miterlimit="10" stroke-width="1.25" stroke="#000" d="M26.5 34l-0.5 1"></path>
</svg>
