<!-- Generated by IcoMoon.io -->
<svg version="1.1" xmlns="http://www.w3.org/2000/svg" width="24" height="24" viewBox="0 0 24 24">
<title>library_music</title>
<path d="M5.588 7.2v11.212h11.212v1.575h-11.212q-0.638 0-1.106-0.469t-0.469-1.106v-11.212h1.575zM16.8 7.988v-1.575h-3.187v4.388q-0.525-0.413-1.2-0.413-0.825 0-1.425 0.6t-0.6 1.425 0.6 1.406 1.425 0.581 1.406-0.581 0.581-1.406v-4.425h2.4zM18.413 4.012q0.637 0 1.106 0.469t0.469 1.106v9.6q0 0.638-0.469 1.125t-1.106 0.487h-9.6q-0.637 0-1.125-0.487t-0.488-1.125v-9.6q0-0.638 0.488-1.106t1.125-0.469h9.6z"></path>
</svg>
