<!-- Generated by IcoMoon.io -->
<svg version="1.1" xmlns="http://www.w3.org/2000/svg" width="24" height="24" viewBox="0 0 24 24">
<title>linked_camera</title>
<path d="M15.188 7.2q0.675 0 1.144 0.469t0.469 1.144h1.050q0-1.087-0.788-1.875t-1.875-0.788v1.050zM12 17.587q1.65 0 2.831-1.163t1.181-2.812-1.181-2.831-2.831-1.181-2.831 1.181-1.181 2.831 1.181 2.812 2.831 1.163zM16.013 9.6h3.975v8.813q0 0.637-0.469 1.106t-1.106 0.469h-12.825q-0.638 0-1.106-0.469t-0.469-1.106v-9.6q0-0.637 0.469-1.125t1.106-0.488h2.55l1.463-1.612h4.8v2.4q0.675 0 1.144 0.469t0.469 1.144zM15.188 5.063v-1.050q1.987 0 3.394 1.406t1.406 3.394h-1.050q0-1.538-1.106-2.644t-2.644-1.106zM9.45 13.612q0-1.088 0.75-1.838t1.8-0.75 1.8 0.75 0.75 1.838-0.75 1.819-1.8 0.731-1.8-0.731-0.75-1.819z"></path>
</svg>
