<!-- Generated by IcoMoon.io -->
<svg version="1.1" xmlns="http://www.w3.org/2000/svg" width="40" height="40" viewBox="0 0 40 40">
<title>mi-at</title>
<path d="M20 36c-8.8 0-16-7.2-16-16s7.2-16 16-16 16 7.2 16 16c0 0.8-0.533 1.333-1.333 1.333s-1.333-0.533-1.333-1.333c0-7.333-6-13.333-13.333-13.333s-13.333 6-13.333 13.333 6 13.333 13.333 13.333c3.6 0 6.933-1.333 9.467-3.867 0.533-0.533 1.333-0.533 1.867 0s0.533 1.333 0 1.867c-3.067 3.067-7.067 4.667-11.333 4.667z"></path>
<path d="M30.667 25.333c-2.933 0-5.333-2.4-5.333-5.333 0-0.8 0.533-1.333 1.333-1.333s1.333 0.533 1.333 1.333c0 1.467 1.2 2.667 2.667 2.667s2.667-1.2 2.667-2.667c0-0.8 0.533-1.333 1.333-1.333s1.333 0.533 1.333 1.333c0 2.933-2.4 5.333-5.333 5.333z"></path>
<path d="M20 28c-4.4 0-8-3.6-8-8s3.6-8 8-8 8 3.6 8 8-3.6 8-8 8zM20 14.667c-2.933 0-5.333 2.4-5.333 5.333s2.4 5.333 5.333 5.333 5.333-2.4 5.333-5.333-2.4-5.333-5.333-5.333z"></path>
<path d="M26.667 21.333c-0.8 0-1.333-0.533-1.333-1.333v-6.667c0-0.8 0.533-1.333 1.333-1.333s1.333 0.533 1.333 1.333v6.667c0 0.8-0.533 1.333-1.333 1.333z"></path>
</svg>
