<!-- Generated by IcoMoon.io -->
<svg version="1.1" xmlns="http://www.w3.org/2000/svg" width="40" height="40" viewBox="0 0 40 40">
<title>mi-align-left</title>
<path d="M29.333 13.333h-18.667c-0.8 0-1.333-0.533-1.333-1.333s0.533-1.333 1.333-1.333h18.667c0.8 0 1.333 0.533 1.333 1.333s-0.533 1.333-1.333 1.333z"></path>
<path d="M20 18.667h-9.333c-0.8 0-1.333-0.533-1.333-1.333s0.533-1.333 1.333-1.333h9.333c0.8 0 1.333 0.533 1.333 1.333s-0.533 1.333-1.333 1.333z"></path>
<path d="M28 24h-17.333c-0.8 0-1.333-0.533-1.333-1.333s0.533-1.333 1.333-1.333h17.333c0.8 0 1.333 0.533 1.333 1.333s-0.533 1.333-1.333 1.333z"></path>
<path d="M24 29.333h-13.333c-0.8 0-1.333-0.533-1.333-1.333s0.533-1.333 1.333-1.333h13.333c0.8 0 1.333 0.533 1.333 1.333s-0.533 1.333-1.333 1.333z"></path>
</svg>
