<!-- Generated by IcoMoon.io -->
<svg version="1.1" xmlns="http://www.w3.org/2000/svg" width="40" height="40" viewBox="0 0 40 40">
<title>mi-attachment</title>
<path d="M14 30c-1.067 0-2-0.4-2.8-1.2-1.6-1.6-1.6-4.133 0-5.6 0.533-0.533 1.333-0.533 1.867 0s0.533 1.333 0 1.867c-0.533 0.533-0.533 1.333 0 1.867s1.333 0.533 1.867 0c0.533-0.533 1.333-0.533 1.867 0s0.533 1.333 0 1.867c-0.8 0.8-1.867 1.2-2.8 1.2z"></path>
<path d="M30.933 21.733c-0.4 0-0.667-0.133-0.933-0.4-0.533-0.533-0.533-1.333 0-1.867 1.6-1.6 1.6-4.133 0-5.6-1.467-1.467-4.133-1.467-5.6 0-0.533 0.533-1.333 0.533-1.867 0s-0.533-1.333 0-1.867c1.2-1.333 2.8-2 4.667-2s3.467 0.667 4.667 1.867c2.533 2.533 2.533 6.8 0 9.467-0.267 0.267-0.667 0.4-0.933 0.4z"></path>
<path d="M12 25.467c-0.4 0-0.667-0.133-0.933-0.4-0.533-0.533-0.533-1.333 0-1.867l11.333-11.333c0.533-0.533 1.333-0.533 1.867 0s0.533 1.333 0 1.867l-11.333 11.333c-0.133 0.267-0.533 0.4-0.933 0.4z"></path>
<path d="M19.6 33.067c-0.4 0-0.667-0.133-0.933-0.4-0.533-0.533-0.533-1.333 0-1.867l11.333-11.333c0.533-0.533 1.333-0.533 1.867 0s0.533 1.333 0 1.867l-11.333 11.333c-0.267 0.267-0.533 0.4-0.933 0.4z"></path>
<path d="M15.867 29.2c-0.4 0-0.667-0.133-0.933-0.4-0.533-0.533-0.533-1.333 0-1.867l11.333-11.333c0.533-0.533 1.333-0.533 1.867 0s0.533 1.333 0 1.867l-11.333 11.333c-0.267 0.4-0.667 0.4-0.933 0.4z"></path>
<path d="M8.267 21.733c-0.4 0-0.667-0.133-0.933-0.4-0.533-0.533-0.533-1.333 0-1.867l15.067-15.067c0.533-0.533 1.333-0.533 1.867 0s0.533 1.333 0 1.867l-15.067 15.067c-0.267 0.267-0.533 0.4-0.933 0.4z"></path>
<path d="M14 35.333c-2.4 0-4.8-0.933-6.533-2.667s-2.667-4.133-2.667-6.533 0.933-4.8 2.667-6.533c0.533-0.533 1.333-0.533 1.867 0s0.533 1.333 0 1.867c-1.2 1.2-2 2.933-2 4.667s0.667 3.467 2 4.667c2.533 2.533 6.8 2.533 9.467 0 0.533-0.533 1.333-0.533 1.867 0s0.533 1.333 0 1.867c-2 1.867-4.267 2.667-6.667 2.667z"></path>
</svg>
