<!-- Generated by IcoMoon.io -->
<svg version="1.1" xmlns="http://www.w3.org/2000/svg" width="40" height="40" viewBox="0 0 40 40">
<title>mi-bin</title>
<path d="M16 8h-2.667c0-2.267 1.733-4 4-4v2.667c-0.8 0-1.333 0.533-1.333 1.333z"></path>
<path d="M26.667 8h-2.667c0-0.8-0.533-1.333-1.333-1.333v-2.667c2.267 0 4 1.733 4 4z"></path>
<path d="M26.667 12h-13.333v-4h2.667v1.333h8v-1.333h2.667z"></path>
<path d="M17.333 4h5.333v2.667h-5.333v-2.667z"></path>
<path d="M32 12h-24c-0.8 0-1.333-0.533-1.333-1.333s0.533-1.333 1.333-1.333h24c0.8 0 1.333 0.533 1.333 1.333s-0.533 1.333-1.333 1.333z"></path>
<path d="M29.333 36h-18.667c-0.8 0-1.333-0.533-1.333-1.333v-18.667c0-0.8 0.533-1.333 1.333-1.333h18.667c0.8 0 1.333 0.533 1.333 1.333v18.667c0 0.8-0.533 1.333-1.333 1.333zM12 33.333h16v-16h-16v16z"></path>
<path d="M17.333 30.667c-0.8 0-1.333-0.533-1.333-1.333v-8c0-0.8 0.533-1.333 1.333-1.333s1.333 0.533 1.333 1.333v8c0 0.8-0.533 1.333-1.333 1.333z"></path>
<path d="M22.667 30.667c-0.8 0-1.333-0.533-1.333-1.333v-8c0-0.8 0.533-1.333 1.333-1.333s1.333 0.533 1.333 1.333v8c0 0.8-0.533 1.333-1.333 1.333z"></path>
</svg>
