<!-- Generated by IcoMoon.io -->
<svg version="1.1" xmlns="http://www.w3.org/2000/svg" width="40" height="40" viewBox="0 0 40 40">
<title>mi-cmd</title>
<path d="M10.667 17.333c-3.733 0-6.667-2.933-6.667-6.667s2.933-6.667 6.667-6.667 6.667 2.933 6.667 6.667c0 0.8-0.533 1.333-1.333 1.333s-1.333-0.533-1.333-1.333c0-2.267-1.733-4-4-4s-4 1.733-4 4 1.733 4 4 4c0.8 0 1.333 0.533 1.333 1.333s-0.533 1.333-1.333 1.333z"></path>
<path d="M29.333 17.333c-0.8 0-1.333-0.533-1.333-1.333s0.533-1.333 1.333-1.333c2.267 0 4-1.733 4-4s-1.733-4-4-4-4 1.733-4 4c0 0.8-0.533 1.333-1.333 1.333s-1.333-0.533-1.333-1.333c0-3.733 2.933-6.667 6.667-6.667s6.667 2.933 6.667 6.667-2.933 6.667-6.667 6.667z"></path>
<path d="M10.667 36c-3.733 0-6.667-2.933-6.667-6.667s2.933-6.667 6.667-6.667c0.8 0 1.333 0.533 1.333 1.333s-0.533 1.333-1.333 1.333c-2.267 0-4 1.733-4 4s1.733 4 4 4 4-1.733 4-4c0-0.8 0.533-1.333 1.333-1.333s1.333 0.533 1.333 1.333c0 3.733-2.933 6.667-6.667 6.667z"></path>
<path d="M29.333 36c-3.733 0-6.667-2.933-6.667-6.667 0-0.8 0.533-1.333 1.333-1.333s1.333 0.533 1.333 1.333c0 2.267 1.733 4 4 4s4-1.733 4-4-1.733-4-4-4c-0.8 0-1.333-0.533-1.333-1.333s0.533-1.333 1.333-1.333c3.733 0 6.667 2.933 6.667 6.667s-2.933 6.667-6.667 6.667z"></path>
<path d="M16 30.667c-0.8 0-1.333-0.533-1.333-1.333v-18.667c0-0.8 0.533-1.333 1.333-1.333s1.333 0.533 1.333 1.333v18.667c0 0.8-0.533 1.333-1.333 1.333z"></path>
<path d="M24 30.667c-0.8 0-1.333-0.533-1.333-1.333v-18.667c0-0.8 0.533-1.333 1.333-1.333s1.333 0.533 1.333 1.333v18.667c0 0.8-0.533 1.333-1.333 1.333z"></path>
<path d="M29.333 17.333h-18.667c-0.8 0-1.333-0.533-1.333-1.333s0.533-1.333 1.333-1.333h18.667c0.8 0 1.333 0.533 1.333 1.333s-0.533 1.333-1.333 1.333z"></path>
<path d="M29.333 25.333h-18.667c-0.8 0-1.333-0.533-1.333-1.333s0.533-1.333 1.333-1.333h18.667c0.8 0 1.333 0.533 1.333 1.333s-0.533 1.333-1.333 1.333z"></path>
</svg>
