<!-- Generated by IcoMoon.io -->
<svg version="1.1" xmlns="http://www.w3.org/2000/svg" width="40" height="40" viewBox="0 0 40 40">
<title>mi-form</title>
<path d="M33.333 12h-26.667c-1.467 0-2.667-1.2-2.667-2.667v-2.667c0-1.467 1.2-2.667 2.667-2.667h26.667c1.467 0 2.667 1.2 2.667 2.667v2.667c0 1.467-1.2 2.667-2.667 2.667zM33.333 9.333v0zM6.667 6.667v2.667h26.667v-2.667h-26.667z"></path>
<path d="M33.333 24h-26.667c-1.467 0-2.667-1.2-2.667-2.667v-2.667c0-1.467 1.2-2.667 2.667-2.667h26.667c1.467 0 2.667 1.2 2.667 2.667v2.667c0 1.467-1.2 2.667-2.667 2.667zM33.333 21.333v0zM6.667 18.667v2.667h26.667v-2.667h-26.667z"></path>
<path d="M18.667 34.667h-12c-0.667 0-1.333-0.667-1.333-1.333v-2.667c0-0.667 0.667-1.333 1.333-1.333h12c0.8 0 1.333 0.667 1.333 1.333v2.667c0 0.667-0.533 1.333-1.333 1.333z"></path>
<path d="M18.667 36h-12c-1.467 0-2.667-1.2-2.667-2.667v-2.667c0-1.467 1.2-2.667 2.667-2.667h12c1.467 0 2.667 1.2 2.667 2.667v2.667c0 1.467-1.2 2.667-2.667 2.667zM18.667 33.333v0zM6.667 30.667v2.667h12v-2.667h-12z"></path>
</svg>
