<!-- Generated by IcoMoon.io -->
<svg version="1.1" xmlns="http://www.w3.org/2000/svg" width="40" height="40" viewBox="0 0 40 40">
<title>mi-filter</title>
<path d="M17.333 36c-0.267 0-0.533-0.133-0.667-0.133-0.4-0.267-0.667-0.8-0.667-1.2v-11.6l-11.733-16.933c-0.267-0.4-0.4-0.933-0.133-1.467 0.267-0.4 0.667-0.667 1.2-0.667h29.333c0.533 0 0.933 0.267 1.2 0.667s0.133 0.933-0.133 1.333l-11.733 17.067v8.933c0 0.533-0.267 0.933-0.8 1.2l-5.333 2.667c-0.133 0.133-0.267 0.133-0.533 0.133zM7.867 6.667l10.533 15.2c0.133 0.267 0.267 0.533 0.267 0.8v9.867l2.667-1.333v-8.533c0-0.267 0.133-0.533 0.267-0.8l10.533-15.2h-24.267z"></path>
</svg>
