<!-- Generated by IcoMoon.io -->
<svg version="1.1" xmlns="http://www.w3.org/2000/svg" width="40" height="40" viewBox="0 0 40 40">
<title>mi-info</title>
<path d="M20 36c-8.8 0-16-7.2-16-16s7.2-16 16-16 16 7.2 16 16-7.2 16-16 16zM20 6.667c-7.333 0-13.333 6-13.333 13.333s6 13.333 13.333 13.333 13.333-6 13.333-13.333-6-13.333-13.333-13.333z"></path>
<path d="M18.667 28c-0.533 0-0.933-0.267-1.333-0.667-0.667-0.933-0.133-2.267 1.333-5.867 0.267-0.533 0.533-1.2 0.8-1.733-0.533 0.4-1.333 0.4-1.867-0.133s-0.533-1.333 0-1.867c0.267-0.133 1.867-1.733 3.733-1.733 0.533 0 0.933 0.267 1.333 0.667 0.667 0.933 0.133 2.267-1.333 5.867-0.267 0.533-0.533 1.2-0.8 1.733 0.533-0.4 1.333-0.4 1.867 0.133s0.533 1.333 0 1.867c-0.267 0.133-1.867 1.733-3.733 1.733z"></path>
<path d="M24 12.667c0 1.105-0.895 2-2 2s-2-0.895-2-2c0-1.105 0.895-2 2-2s2 0.895 2 2z"></path>
<path d="M22 15.333c-1.467 0-2.667-1.2-2.667-2.667s1.2-2.667 2.667-2.667 2.667 1.2 2.667 2.667-1.2 2.667-2.667 2.667zM22 11.333c-0.8 0-1.333 0.533-1.333 1.333s0.533 1.333 1.333 1.333 1.333-0.533 1.333-1.333-0.533-1.333-1.333-1.333z"></path>
</svg>
