<!-- Generated by IcoMoon.io -->
<svg version="1.1" xmlns="http://www.w3.org/2000/svg" width="40" height="40" viewBox="0 0 40 40">
<title>mi-key</title>
<path d="M17.333 36c-0.267 0-0.533-0.133-0.667-0.133-0.4-0.267-0.667-0.8-0.667-1.2v-14.8c-3.733-0.667-6.667-3.867-6.667-7.867 0-4.533 3.6-8 8-8h5.333c4.4 0 8 3.6 8 8 0 4-2.933 7.333-6.667 8v12c0 0.533-0.267 0.933-0.8 1.2l-5.333 2.667c-0.133 0.133-0.267 0.133-0.533 0.133zM17.333 6.667c-2.933 0-5.333 2.4-5.333 5.333 0 3.067 2.4 5.333 5.333 5.333 0.8 0 1.333 0.533 1.333 1.333v13.867l2.667-1.333v-12.533c0-0.8 0.533-1.333 1.333-1.333 2.933 0 5.333-2.4 5.333-5.333 0-3.067-2.4-5.333-5.333-5.333h-5.333z"></path>
<path d="M21.333 12h-2.667c-0.8 0-1.333-0.533-1.333-1.333s0.533-1.333 1.333-1.333h2.667c0.8 0 1.333 0.533 1.333 1.333s-0.533 1.333-1.333 1.333z"></path>
</svg>
