<!-- Generated by IcoMoon.io -->
<svg version="1.1" xmlns="http://www.w3.org/2000/svg" width="40" height="40" viewBox="0 0 40 40">
<title>mi-microphone</title>
<path d="M26.667 10.667h-2.667c0-0.4 0-0.667-0.133-0.933-0.4-1.867-2-3.067-3.867-3.067s-3.467 1.2-3.867 2.933c-0.133 0.4-0.133 0.667-0.133 1.067h-2.667c0-0.667 0.133-1.2 0.267-1.733 0.667-2.933 3.333-4.933 6.4-4.933s5.733 2 6.4 5.067c0.133 0.4 0.267 0.933 0.267 1.6z"></path>
<path d="M20 25.333c-3.733 0-6.667-2.933-6.667-6.667h2.667c0 2.267 1.733 4 4 4s4-1.733 4-4h2.667c0 3.733-2.933 6.667-6.667 6.667z"></path>
<path d="M16 10.667h-2.667c0-0.667 0.133-1.2 0.267-1.733l2.533 0.667c-0.133 0.4-0.133 0.667-0.133 1.067z"></path>
<path d="M20 30.667c-6.667 0-12-5.333-12-12 0-0.8 0.533-1.333 1.333-1.333s1.333 0.533 1.333 1.333c0 5.2 4.133 9.333 9.333 9.333s9.333-4.133 9.333-9.333c0-0.8 0.533-1.333 1.333-1.333s1.333 0.533 1.333 1.333c0 6.667-5.333 12-12 12z"></path>
<path d="M25.333 36h-10.667c-0.8 0-1.333-0.533-1.333-1.333s0.533-1.333 1.333-1.333h10.667c0.8 0 1.333 0.533 1.333 1.333s-0.533 1.333-1.333 1.333z"></path>
<path d="M20 36c-0.8 0-1.333-0.533-1.333-1.333v-5.333c0-0.8 0.533-1.333 1.333-1.333s1.333 0.533 1.333 1.333v5.333c0 0.8-0.533 1.333-1.333 1.333z"></path>
<path d="M14.667 20c-0.8 0-1.333-0.533-1.333-1.333v-8c0-0.8 0.533-1.333 1.333-1.333s1.333 0.533 1.333 1.333v8c0 0.8-0.533 1.333-1.333 1.333z"></path>
<path d="M25.333 20c-0.8 0-1.333-0.533-1.333-1.333v-8c0-0.8 0.533-1.333 1.333-1.333s1.333 0.533 1.333 1.333v8c0 0.8-0.533 1.333-1.333 1.333z"></path>
</svg>
