<!-- Generated by IcoMoon.io -->
<svg version="1.1" xmlns="http://www.w3.org/2000/svg" width="40" height="40" viewBox="0 0 40 40">
<title>mi-menu-dots</title>
<path d="M20 13.333c-2.267 0-4-1.733-4-4s1.733-4 4-4 4 1.733 4 4-1.733 4-4 4zM20 8c-0.8 0-1.333 0.533-1.333 1.333s0.533 1.333 1.333 1.333 1.333-0.533 1.333-1.333-0.533-1.333-1.333-1.333z"></path>
<path d="M20 34.667c-2.267 0-4-1.733-4-4s1.733-4 4-4 4 1.733 4 4-1.733 4-4 4zM20 29.333c-0.8 0-1.333 0.533-1.333 1.333s0.533 1.333 1.333 1.333 1.333-0.533 1.333-1.333-0.533-1.333-1.333-1.333z"></path>
<path d="M20 24c-2.267 0-4-1.733-4-4s1.733-4 4-4 4 1.733 4 4-1.733 4-4 4zM20 18.667c-0.8 0-1.333 0.533-1.333 1.333s0.533 1.333 1.333 1.333 1.333-0.533 1.333-1.333-0.533-1.333-1.333-1.333z"></path>
</svg>
