<!-- Generated by IcoMoon.io -->
<svg version="1.1" xmlns="http://www.w3.org/2000/svg" width="40" height="40" viewBox="0 0 40 40">
<title>mi-network</title>
<path d="M8 36c-2.267 0-4-1.733-4-4s1.733-4 4-4 4 1.733 4 4-1.733 4-4 4zM8 30.667c-0.8 0-1.333 0.533-1.333 1.333s0.533 1.333 1.333 1.333 1.333-0.533 1.333-1.333-0.533-1.333-1.333-1.333z"></path>
<path d="M32 36c-2.267 0-4-1.733-4-4s1.733-4 4-4 4 1.733 4 4-1.733 4-4 4zM32 30.667c-0.8 0-1.333 0.533-1.333 1.333s0.533 1.333 1.333 1.333 1.333-0.533 1.333-1.333-0.533-1.333-1.333-1.333z"></path>
<path d="M20 36c-2.267 0-4-1.733-4-4s1.733-4 4-4 4 1.733 4 4-1.733 4-4 4zM20 30.667c-0.8 0-1.333 0.533-1.333 1.333s0.533 1.333 1.333 1.333 1.333-0.533 1.333-1.333-0.533-1.333-1.333-1.333z"></path>
<path d="M20 12c-2.267 0-4-1.733-4-4s1.733-4 4-4 4 1.733 4 4-1.733 4-4 4zM20 6.667c-0.8 0-1.333 0.533-1.333 1.333s0.533 1.333 1.333 1.333 1.333-0.533 1.333-1.333-0.533-1.333-1.333-1.333z"></path>
<path d="M32 30.667c-0.8 0-1.333-0.533-1.333-1.333v-6.667c0-0.8-0.533-1.333-1.333-1.333h-18.667c-0.8 0-1.333 0.533-1.333 1.333v6.667c0 0.8-0.533 1.333-1.333 1.333s-1.333-0.533-1.333-1.333v-6.667c0-2.267 1.733-4 4-4h18.667c2.267 0 4 1.733 4 4v6.667c0 0.8-0.533 1.333-1.333 1.333z"></path>
<path d="M20 30.667c-0.8 0-1.333-0.533-1.333-1.333v-9.333c0-0.8 0.533-1.333 1.333-1.333s1.333 0.533 1.333 1.333v9.333c0 0.8-0.533 1.333-1.333 1.333z"></path>
<path d="M20 21.333c-0.8 0-1.333-0.533-1.333-1.333v-9.333c0-0.8 0.533-1.333 1.333-1.333s1.333 0.533 1.333 1.333v9.333c0 0.8-0.533 1.333-1.333 1.333z"></path>
</svg>
