<!-- Generated by IcoMoon.io -->
<svg version="1.1" xmlns="http://www.w3.org/2000/svg" width="40" height="40" viewBox="0 0 40 40">
<title>mi-plug</title>
<path d="M16.133 26.667h-0.267c-5.067 0-9.2-4.133-9.2-9.2v-5.467c0-0.8 0.533-1.333 1.333-1.333h16c0.8 0 1.333 0.533 1.333 1.333v5.467c0 5.067-4.133 9.2-9.2 9.2zM9.333 13.333v4.133c0 3.6 2.933 6.533 6.533 6.533h0.133c3.6 0 6.533-2.933 6.533-6.533v-4.133h-13.2z"></path>
<path d="M12 13.333c-0.8 0-1.333-0.533-1.333-1.333v-6.667c0-0.8 0.533-1.333 1.333-1.333s1.333 0.533 1.333 1.333v6.667c0 0.8-0.533 1.333-1.333 1.333z"></path>
<path d="M20 13.333c-0.8 0-1.333-0.533-1.333-1.333v-6.667c0-0.8 0.533-1.333 1.333-1.333s1.333 0.533 1.333 1.333v6.667c0 0.8-0.533 1.333-1.333 1.333z"></path>
<path d="M24 36c-7.333 0-9.333-6.933-9.467-10.667 0-0.8 0.533-1.333 1.333-1.333 0 0 0 0 0 0 0.667 0 1.333 0.533 1.333 1.333v0c0 0.267 0.133 8 6.8 8 6.533 0 6.667-7.733 6.667-8v-9.333c0-0.8 0.533-1.333 1.333-1.333s1.333 0.533 1.333 1.333v9.333c0 3.733-2 10.667-9.333 10.667z"></path>
</svg>
