<!-- Generated by IcoMoon.io -->
<svg version="1.1" xmlns="http://www.w3.org/2000/svg" width="40" height="40" viewBox="0 0 40 40">
<title>mi-thumbs-down</title>
<path d="M12 36c-0.267 0-0.533-0.133-0.8-0.267-0.267-0.267-0.533-0.667-0.533-1.067v-24.267c0-2.8 2.133-5.067 4.933-5.333l11.333-0.8c0.133 0 0.267 0 0.4 0 2.8 0 5.067 2.133 5.333 4.933l0.667 9.867c0.133 1.467-0.4 2.933-1.467 4-1.067 1.2-2.8 1.867-4.4 1.733l-8.533-0.667 0.133 0.667c0.667 4.8-2 9.333-6.4 11.067-0.267 0.133-0.4 0.133-0.667 0.133zM27.333 6.933c-0.133 0-0.133 0-0.267 0l-11.333 0.8c-1.333 0.133-2.4 1.333-2.4 2.667v22c2.267-1.6 3.467-4.4 3.067-7.2l-0.4-2.4c0-0.4 0.133-0.8 0.4-1.067s0.667-0.4 1.067-0.4l10.267 0.8c0.133 0 0.267 0 0.267 0 0.667 0 1.467-0.267 2-0.8s0.8-1.2 0.667-2l-0.667-9.867c-0.133-1.467-1.333-2.533-2.667-2.533z"></path>
<path d="M12 25.333h-6.667c-0.8 0-1.333-0.533-1.333-1.333v-18.667c0-0.8 0.533-1.333 1.333-1.333h6.667c0.8 0 1.333 0.533 1.333 1.333v18.667c0 0.8-0.533 1.333-1.333 1.333zM6.667 22.667h4v-16h-4v16z"></path>
</svg>
