<!-- Generated by IcoMoon.io -->
<svg version="1.1" xmlns="http://www.w3.org/2000/svg" width="40" height="40" viewBox="0 0 40 40">
<title>mi-tag</title>
<path d="M30.667 34.667h-10.667c-0.4 0-0.667-0.133-0.933-0.4l-14.667-14.667c-0.533-0.533-0.533-1.333 0-1.867l10.667-10.667c0.533-0.533 1.333-0.533 1.867 0l14.667 14.667c0.267 0.267 0.4 0.533 0.4 0.933v10.667c0 0.8-0.533 1.333-1.333 1.333zM20.533 32h8.8v-8.8l-13.333-13.333-8.8 8.8 13.333 13.333z"></path>
<path d="M30 32c-3.2 0-5.6-2.933-5.733-3.067-0.4-0.533-0.4-1.467 0.267-1.867 0.533-0.4 1.467-0.4 1.867 0.267 0.533 0.667 2.267 2.267 3.867 2.133 1.467-0.133 2.533-1.867 3.333-3.2 0.267-0.667 1.067-0.933 1.733-0.533 0.667 0.267 0.933 1.067 0.533 1.733-1.467 2.8-3.2 4.4-5.333 4.667-0.267-0.267-0.4-0.133-0.533-0.133z"></path>
<path d="M12 20c-0.4 0-0.667-0.133-0.933-0.4-0.533-0.533-0.533-1.333 0-1.867l4-4c0.533-0.533 1.333-0.533 1.867 0s0.533 1.333 0 1.867l-4 4c-0.267 0.267-0.533 0.4-0.933 0.4z"></path>
<path d="M24 24c-0.4 0-0.667-0.133-0.933-0.4l-8-8c-0.533-0.533-0.533-1.333 0-1.867s1.333-0.533 1.867 0l8 8c0.533 0.533 0.533 1.333 0 1.867-0.267 0.267-0.533 0.4-0.933 0.4z"></path>
<path d="M20 28c-0.4 0-0.667-0.133-0.933-0.4-0.533-0.533-0.533-1.333 0-1.867l4-4c0.533-0.533 1.333-0.533 1.867 0s0.533 1.333 0 1.867l-4 4c-0.267 0.267-0.533 0.4-0.933 0.4z"></path>
<path d="M20 28c-0.4 0-0.667-0.133-0.933-0.4l-8-8c-0.533-0.533-0.533-1.333 0-1.867s1.333-0.533 1.867 0l8 8c0.533 0.533 0.533 1.333 0 1.867-0.267 0.267-0.533 0.4-0.933 0.4z"></path>
</svg>
