<!-- Generated by IcoMoon.io -->
<svg version="1.1" xmlns="http://www.w3.org/2000/svg" width="40" height="40" viewBox="0 0 40 40">
<title>mi-undo</title>
<path d="M17.333 32c-0.267 0-0.667-0.133-0.933-0.4l-12-10.667c-0.267-0.133-0.4-0.533-0.4-0.933s0.133-0.8 0.4-0.933l12-10.667c0.4-0.4 0.933-0.4 1.467-0.267s0.8 0.667 0.8 1.2v6.667c0 0.8-0.533 1.333-1.333 1.333s-1.333-0.533-1.333-1.333v-3.733l-8.667 7.733 8.667 7.733v-3.733c0-0.8 0.533-1.333 1.333-1.333s1.333 0.533 1.333 1.333v6.667c0 0.533-0.267 1.067-0.8 1.2-0.133 0.133-0.4 0.133-0.533 0.133z"></path>
<path d="M34.667 32c-0.533 0-1.067-0.267-1.2-0.8 0 0-2.667-5.867-16.133-5.867-0.8 0-1.333-0.533-1.333-1.333s0.533-1.333 1.333-1.333c8.133 0 12.8 2 15.467 3.867-2.8-9.067-14.933-9.2-15.467-9.2-0.8 0-1.333-0.533-1.333-1.333s0.533-1.333 1.333-1.333c0.133 0 18.667 0.133 18.667 16 0 0.667-0.4 1.2-1.067 1.333-0.133 0-0.133 0-0.267 0z"></path>
</svg>
