<!-- Generated by IcoMoon.io -->
<svg version="1.1" xmlns="http://www.w3.org/2000/svg" width="40" height="40" viewBox="0 0 40 40">
<title>mi-user</title>
<path d="M20 21.333c-1.2 0-2.267-0.4-3.2-0.933-2.267-1.467-3.467-4.533-3.467-8.4 0-3.733 2.933-6.667 6.667-6.667s6.667 2.933 6.667 6.667c0 3.867-1.2 6.933-3.467 8.4-0.933 0.533-2 0.933-3.2 0.933zM20 8c-2.267 0-4 1.733-4 4 0 2.933 0.8 5.2 2.267 6.133 1.067 0.667 2.4 0.667 3.467 0 1.467-0.933 2.267-3.2 2.267-6.133 0-2.267-1.733-4-4-4z"></path>
<path d="M20 34.667c-3.067 0-13.333-0.4-13.333-5.333s3.6-6.667 7.6-7.867c0.267-0.133 1.333-0.533 1.733-2.533l2.667 0.533c-0.4 2.4-1.733 3.867-3.6 4.533-4 1.333-5.733 2.4-5.733 5.333 0 1.467 5.6 2.667 10.667 2.667s10.667-1.2 10.667-2.667c0-2.933-1.733-4-5.733-5.467-1.867-0.667-3.067-2.133-3.6-4.533l2.667-0.533c0.4 2 1.467 2.4 1.867 2.533 4 1.333 7.6 2.933 7.6 7.867-0.133 1.333-1.067 5.467-13.467 5.467z"></path>
</svg>
