<!-- Generated by IcoMoon.io -->
<svg version="1.1" xmlns="http://www.w3.org/2000/svg" width="24" height="24" viewBox="0 0 24 24">
<title>money_off</title>
<path d="M6.675 5.662l11.663 11.7-1.012 1.013-1.763-1.8q-0.712 0.637-1.95 0.9v1.725h-2.4v-1.725q-1.237-0.263-2.063-1.050t-0.9-2.025h1.762q0.15 1.688 2.4 1.688 1.387 0 1.912-0.75l-2.813-2.775q-3.113-0.938-3.113-3.15l-2.737-2.738zM12.413 7.913q-0.713 0-1.238 0.225l-1.163-1.163q0.525-0.263 1.2-0.45v-1.725h2.4v1.763q1.2 0.3 1.856 1.125t0.694 1.912h-1.763q-0.075-1.688-1.987-1.688z"></path>
</svg>
