<!-- Generated by IcoMoon.io -->
<svg version="1.1" xmlns="http://www.w3.org/2000/svg" width="24" height="24" viewBox="0 0 24 24">
<title>monetization_on</title>
<path d="M13.125 16.875q2.513-0.487 2.513-2.513 0-2.287-3.375-3.15-2.1-0.525-2.1-1.537 0-0.563 0.506-0.938t1.406-0.375q1.688 0 1.763 1.5h1.575q-0.075-2.137-2.287-2.7v-1.575h-2.138v1.575q-1.087 0.225-1.781 0.881t-0.694 1.669q0 2.1 3.338 2.925 2.138 0.487 2.138 1.725 0 0.487-0.431 0.881t-1.481 0.394q-1.987 0-2.137-1.5h-1.575q0.113 2.137 2.625 2.7v1.575h2.138v-1.538zM12 4.012q3.3 0 5.644 2.344t2.344 5.644-2.344 5.644-5.644 2.344-5.644-2.344-2.344-5.644 2.344-5.644 5.644-2.344z"></path>
</svg>
