<!-- Generated by IcoMoon.io -->
<svg version="1.1" xmlns="http://www.w3.org/2000/svg" width="24" height="24" viewBox="0 0 24 24">
<title>motion_photos_paused</title>
<path d="M19.987 12q0 1.65-0.619 3.094t-1.725 2.55-2.55 1.725-3.094 0.619-3.094-0.619-2.55-1.725-1.725-2.55-0.619-3.094q0-0.712 0.113-1.387t0.338-1.313l1.537 0.525q-0.412 1.050-0.412 2.175 0 1.313 0.506 2.475t1.387 2.044 2.044 1.388 2.475 0.506 2.475-0.506 2.044-1.388 1.388-2.044 0.506-2.475-0.506-2.475-1.388-2.044-2.044-1.387-2.475-0.506q-1.125 0-2.137 0.412l-0.563-1.537q0.637-0.225 1.313-0.338t1.387-0.113q1.65 0 3.094 0.619t2.55 1.725 1.725 2.55 0.619 3.094zM6.788 5.588q-0.487 0-0.844 0.356t-0.356 0.844q0 0.525 0.356 0.862t0.844 0.338q0.525 0 0.862-0.338t0.338-0.862q0-0.487-0.338-0.844t-0.862-0.356zM16.8 12q0 1.313-0.656 2.4t-1.744 1.744-2.4 0.656-2.4-0.656-1.744-1.744-0.656-2.4 0.656-2.4 1.744-1.744 2.4-0.656 2.4 0.656 1.744 1.744 0.656 2.4zM11.212 9.6h-1.612v4.8h1.612v-4.8zM14.4 9.6h-1.612v4.8h1.612v-4.8z"></path>
</svg>
