<!-- Generated by IcoMoon.io -->
<svg version="1.1" xmlns="http://www.w3.org/2000/svg" width="36" height="40" viewBox="0 0 36 40">
<title>mp--spiral-2</title>
<path d="M23.2 18.883v-3.2c0-0.883-0.717-2.083-1.6-2.083h-6.4c-0.883 0-1.6 1.2-1.6 2.083v9.6c0 0.883 0.717 1.117 1.6 1.117h12.8c0.883 0 1.6-0.234 1.6-1.117v-16c0-0.883-0.717-2.083-1.6-2.083h-19.2c-0.883 0-1.6 1.2-1.6 2.083v22.4c0 0.883 0.717 1.117 1.6 1.117h22.4c0.883 0 1.6 0.838 1.6 1.722v0.12c0 0.883-0.717 1.358-1.6 1.358h-24c-1.766 0-3.2-0.949-3.2-2.717v-25.6c0-1.768 1.434-3.683 3.2-3.683h22.4c1.768 0 3.2 1.915 3.2 3.683v19.2c0 1.768-1.432 2.717-3.2 2.717h-16c-1.766 0-3.2-0.949-3.2-2.717v-12.8c0-1.768 1.434-3.683 3.2-3.683h9.6c1.768 0 3.2 1.915 3.2 3.683v6.4c0 1.768-1.432 2.717-3.2 2.717h-3.2c-1.766 0-3.2-0.949-3.2-2.717v-1.6c0-0.883 0.717-1.6 1.6-1.6s1.6 0.717 1.6 1.6c0 0.883 0.717 1.6 1.6 1.6s1.6-0.717 1.6-1.6z"></path>
</svg>
