<!-- Generated by IcoMoon.io -->
<svg version="1.1" xmlns="http://www.w3.org/2000/svg" width="40" height="40" viewBox="0 0 40 40">
<title>mp--spiral-3</title>
<path d="M36 16.8c0 7.069-5.731 12.8-12.8 12.8h-3.2c-5.302 0-9.6-4.298-9.6-9.6s4.298-9.6 9.6-9.6h3.2c3.534 0 6.4 2.866 6.4 6.4s-2.866 6.4-6.4 6.4h-3.2c-1.766 0-3.2-1.432-3.2-3.2s1.434-3.2 3.2-3.2c1.768 0 3.2 1.432 3.2 3.2 1.768 0 3.2-1.432 3.2-3.2s-1.432-3.2-3.2-3.2h-3.2c-3.534 0-6.4 2.866-6.4 6.4s2.866 6.4 6.4 6.4h3.2c5.302 0 9.6-4.298 9.6-9.6s-4.298-9.6-9.6-9.6h-3.2c-7.069 0-12.8 5.731-12.8 12.8s5.731 12.8 12.8 12.8h1.6c0.883 0 1.6 0.717 1.6 1.6s-0.717 1.6-1.6 1.6h-1.6c-8.837 0-16-7.163-16-16s7.163-16 16-16h3.2c7.069 0 12.8 5.731 12.8 12.8z"></path>
</svg>
