<!-- Generated by IcoMoon.io -->
<svg version="1.1" xmlns="http://www.w3.org/2000/svg" width="40" height="40" viewBox="0 0 40 40">
<title>mp-arrow_outside-</title>
<path d="M14.828 5.6v8h-4.32c-0.69 0-1.035-0.862-0.548-1.366l2.603-2.691c0.605-0.624 0.605-1.638 0-2.262-0.603-0.624-1.582-0.624-2.187 0l-5.471 5.659c-1.207 1.248-1.207 3.274 0 4.522 0.876 0.906 1.061 1.098 5.471 5.659 0.603 0.624 1.584 0.624 2.187-0.002 0.605-0.624 0.605-1.637 0-2.262l-2.6-2.69c-0.487-0.504-0.142-1.366 0.548-1.366h4.317v17.6c0 0.883 0.693 1.6 1.547 1.6s1.547-0.717 1.547-1.6v-28.8c0-0.883-0.693-1.6-1.547-1.6s-1.547 0.717-1.547 1.6zM24.109 34.4v-8h5.383c0.69 0 1.035 0.862 0.548 1.366l-2.603 2.691c-0.605 0.624-0.605 1.638 0 2.262 0.603 0.624 1.582 0.624 2.187 0l5.471-5.659c1.207-1.25 1.207-3.274 0-4.522-0.882-0.912-1.058-1.096-5.471-5.659-0.603-0.624-1.584-0.624-2.187 0-0.605 0.626-0.605 1.638 0 2.264l2.6 2.69c0.487 0.504 0.142 1.366-0.548 1.366h-5.38v-17.6c0-0.883-0.693-1.6-1.547-1.6s-1.547 0.717-1.547 1.6v28.8c0 0.883 0.693 1.6 1.547 1.6s1.547-0.717 1.547-1.6z"></path>
</svg>
