<!-- Generated by IcoMoon.io -->
<svg version="1.1" xmlns="http://www.w3.org/2000/svg" width="40" height="40" viewBox="0 0 40 40">
<title>mp-arrow_up_circle-2</title>
<path d="M29.558 13.6c-1.767 0-3.204-1.435-3.204-3.2s1.437-3.2 3.204-3.2c1.767 0 3.204 1.435 3.204 3.2s-1.437 3.2-3.204 3.2v0zM31.228 29.89v-13.315c1.602-0.714 4.772-3.195 4.772-6.174 0-3.534-2.885-6.4-6.424-6.4-3.54 0-6.384 2.866-6.384 6.4 0 2.979 1.628 5.461 4.832 6.174v13.315l-1.846-1.81-2.283 2.262 5.657 5.658 0.011-0.016 0.013 0.016 5.663-5.658-2.233-2.262-1.778 1.81zM10.414 32.8c-1.767 0-3.204-1.435-3.204-3.2s1.437-3.2 3.204-3.2c1.767 0 3.204 1.435 3.204 3.2s-1.437 3.2-3.204 3.2v0zM12.004 23.426v-13.315l1.818 1.81 2.268-2.262-5.663-5.658-0.014 0.016-0.014-0.016-5.663 5.658 2.259 2.262 1.805-1.81v13.315c-3.204 0.714-4.8 3.195-4.8 6.174 0 3.534 2.872 6.4 6.411 6.4s6.403-2.866 6.403-6.4c0-2.979-1.607-5.461-4.811-6.174v0z"></path>
</svg>
