<!-- Generated by IcoMoon.io -->
<svg version="1.1" xmlns="http://www.w3.org/2000/svg" width="34" height="40" viewBox="0 0 34 40">
<title>mp-apple-</title>
<path d="M22.513 9.109c1.167-1.352 1.953-3.235 1.738-5.109-1.681 0.064-3.715 1.074-4.92 2.424-1.082 1.198-2.027 3.114-1.773 4.95 1.875 0.139 3.789-0.912 4.956-2.266zM26.718 21c0.047 4.843 4.433 6.454 4.482 6.475-0.036 0.114-0.701 2.296-2.31 4.552-1.393 1.949-2.838 3.89-5.114 3.931-2.236 0.040-2.956-1.27-5.514-1.27-2.556 0-3.356 1.229-5.472 1.31-2.197 0.078-3.872-2.109-5.274-4.051-2.87-3.973-5.062-11.227-2.118-16.123 1.463-2.43 4.076-3.971 6.913-4.010 2.157-0.040 4.194 1.39 5.512 1.39s3.794-1.72 6.396-1.467c1.089 0.043 4.147 0.421 6.109 3.174-0.159 0.094-3.648 2.040-3.61 6.088z"></path>
</svg>
