<!-- Generated by IcoMoon.io -->
<svg version="1.1" xmlns="http://www.w3.org/2000/svg" width="29" height="40" viewBox="0 0 29 40">
<title>mp-arrow_right_double-</title>
<path d="M6.286 20.852h17.143c0.631 0 1.143 0.775 1.143 1.396v5.617c0 0.62-0.512 0.85-1.143 0.85h-14.621c-0.509 0-0.763-0.468-0.403-0.822l1.922-1.822c0.446-0.438 0.446-1.116 0-1.554-0.447-0.439-1.17-0.422-1.617 0.017l-4.040 3.98c-0.893 0.877-0.893 2.304 0 3.181 0 0-0.091-0.088 4.040 3.975 0.447 0.439 1.17 0.439 1.617 0.001 0.446-0.439 0.446-1.15 0-1.588l-1.922-2.025c-0.36-0.354-0.105-1.095 0.403-1.095h15.763c1.263 0 2.286-0.734 2.286-1.974v-7.864c0-1.241-1.023-2.52-2.286-2.52h-17.143c-0.631 0-1.143-0.23-1.143-0.85v-5.617c0-0.621 0.512-1.396 1.143-1.396h14.621c0.509 0 0.763 0.741 0.403 1.095l-1.922 1.957c-0.446 0.439-0.446 1.185 0 1.623 0.447 0.439 1.17 0.456 1.617 0.017l4.040-3.963c0.893-0.877 0.893-2.295 0-3.172 0 0 0.089 0.089-4.040-3.969-0.447-0.439-1.17-0.438-1.617 0-0.446 0.439-0.446 1.15 0 1.59l1.922 1.754c0.36 0.354 0.105 0.822-0.403 0.822h-15.763c-1.263 0-2.286 1.278-2.286 2.52v7.864c0 1.24 1.023 1.974 2.286 1.974z"></path>
</svg>
