<!-- Generated by IcoMoon.io -->
<svg version="1.1" xmlns="http://www.w3.org/2000/svg" width="40" height="40" viewBox="0 0 40 40">
<title>mp-arrow_left_up_circle-1</title>
<path d="M31.865 27.329c1.247 1.247 1.247 3.275 0 4.521-1.247 1.247-3.277 1.247-4.523 0-1.247-1.245-1.247-3.274 0-4.521 1.246-1.247 3.275-1.247 4.523 0v0zM7.194 4.002c-1.761 0.003-3.186 1.429-3.189 3.187l-0.005 3.219c-0.002 0.884 0.715 1.6 1.598 1.602 0.884 0 1.601-0.716 1.601-1.599v-0.957l16.91 16.904c-1.682 2.858-0.984 6.73 2.169 8.701 2.002 1.253 4.644 1.255 6.646 0.005 3.651-2.279 4.052-7.147 1.203-9.995-2.105-2.105-5.303-2.411-7.756-0.969l-16.91-16.903h0.958c0.883 0 1.578-0.707 1.578-1.589v-0.008c0-0.882-0.708-1.602-1.591-1.6l-3.211 0.002z"></path>
</svg>
