<!-- Generated by IcoMoon.io -->
<svg version="1.1" xmlns="http://www.w3.org/2000/svg" width="40" height="40" viewBox="0 0 40 40">
<title>mp-arrow_left-12</title>
<path d="M32.8 31.2c0 0.883-0.717 1.6-1.6 1.6h-3.2c-0.883 0-1.6-0.717-1.6-1.6v-22.4c0-0.883 0.717-1.6 1.6-1.6h3.2c0.883 0 1.6 0.717 1.6 1.6v22.4zM26.4 36h6.4c1.768 0 3.2-1.432 3.2-3.2v-25.6c0-1.768-1.432-3.2-3.2-3.2h-6.4c-1.768 0-3.2 1.432-3.2 3.2v11.2h-12.469c-0.714 0-1.070-0.861-0.566-1.365l2.693-2.693c0.626-0.624 0.626-1.638 0-2.262-0.624-0.624-1.637-0.624-2.262 0l-5.659 5.659c-1.248 1.25-1.248 3.274 0 4.522 0.262 0.262-1.064-1.064 5.659 5.659 0.624 0.624 1.638 0.624 2.262 0 0.626-0.626 0.626-1.638 0-2.264l-2.69-2.69c-0.504-0.504-0.147-1.366 0.566-1.366h12.466v11.2c0 1.768 1.432 3.2 3.2 3.2v0z"></path>
</svg>
