<!-- Generated by IcoMoon.io -->
<svg version="1.1" xmlns="http://www.w3.org/2000/svg" width="36" height="40" viewBox="0 0 36 40">
<title>mp-arrow_double_circle-</title>
<path d="M26.4 32.8c-1.765 0-3.2-1.435-3.2-3.2s1.435-3.2 3.2-3.2c1.765 0 3.2 1.435 3.2 3.2s-1.435 3.2-3.2 3.2zM28 23.426v-14.632l0.678 0.678c0.624 0.624 1.638 0.624 2.262-0.002v0c0.624-0.626 0.624-1.638-0.003-2.262l-2.282-2.275c-1.246-1.243-3.266-1.243-4.512 0l-2.282 2.274c-0.627 0.626-0.627 1.638-0.003 2.264 0.626 0.626 1.638 0.626 2.262 0.002l0.678-0.678v14.632c-3.2 0.832-5.459 4.069-4.624 7.693 0.53 2.302 2.397 4.173 4.698 4.706 4.198 0.97 7.926-2.192 7.926-6.224 0-2.979-1.6-5.461-4.8-6.174zM10.4 7.2c1.765 0 3.2 1.435 3.2 3.2s-1.435 3.2-3.2 3.2c-1.763 0-3.2-1.435-3.2-3.2s1.437-3.2 3.2-3.2zM8.8 16.575v14.632l-0.677-0.678c-0.626-0.624-1.638-0.624-2.262 0.002h-0.002c-0.624 0.626-0.622 1.638 0.003 2.262l2.282 2.275c1.248 1.243 3.266 1.243 4.512 0l2.283-2.275c0.626-0.624 0.627-1.637 0.002-2.262-0.624-0.626-1.637-0.626-2.262-0.002l-0.678 0.678v-14.632c3.2-0.834 5.459-4.069 4.626-7.693-0.53-2.302-2.397-4.173-4.699-4.706-4.197-0.97-7.926 2.192-7.926 6.224 0 2.979 1.6 5.461 4.8 6.174z"></path>
</svg>
