<!-- Generated by IcoMoon.io -->
<svg version="1.1" xmlns="http://www.w3.org/2000/svg" width="40" height="40" viewBox="0 0 40 40">
<title>mp-arrow_in_left-1</title>
<path d="M25.323 26.838l0.006-0.005c0.645-0.6 0.68-1.61 0.078-2.253l-1.531-1.634c-0.478-0.512-0.115-1.347 0.584-1.347h9.939c0.885 0 1.6-0.717 1.6-1.6s-0.715-1.6-1.6-1.6h-9.915c-0.704 0-1.064-0.843-0.578-1.352l1.485-1.558c0.611-0.638 0.582-1.653-0.062-2.256-0.638-0.598-1.642-0.568-2.243 0.069l-4.302 4.557c-1.168 1.238-1.163 3.174 0.011 4.405l4.298 4.506c0.6 0.629 1.594 0.659 2.23 0.069zM6.845 36h10.312c1.57 0 2.843-1.274 2.843-2.845v-1.966c0-0.877-0.71-1.589-1.589-1.589h-0.021c-0.878 0-1.59 0.712-1.59 1.589v0.022c0 0.877-0.71 1.589-1.589 1.589h-6.421c-0.878 0-1.59-0.712-1.59-1.589v-22.422c0-0.877 0.712-1.589 1.59-1.589h6.421c0.878 0 1.589 0.712 1.589 1.589v0.022c0 0.877 0.712 1.589 1.59 1.589h0.021c0.878 0 1.589-0.712 1.589-1.589v-1.966c0-1.571-1.274-2.845-2.843-2.845h-10.312c-1.571 0-2.845 1.274-2.845 2.845v26.31c0 1.571 1.274 2.845 2.845 2.845z"></path>
</svg>
