<!-- Generated by IcoMoon.io -->
<svg version="1.1" xmlns="http://www.w3.org/2000/svg" width="42" height="40" viewBox="0 0 42 40">
<title>mp-book-1</title>
<path d="M34.316 26.58c0 0.739-0.456 1.396-1.139 1.636l-10.651 3.75v-20.332l9.56-3.366c1.093-0.386 2.23 0.448 2.23 1.636v16.675zM19.158 11.941v20.026l-10.651-3.75c-0.682-0.24-1.139-0.898-1.139-1.636v-16.675c0-1.188 1.137-2.022 2.23-1.636l9.56 3.366v0.306zM33.199 4.198l-11.8 4.255c-0.36 0.13-0.755 0.13-1.115 0l-11.8-4.255c-2.191-0.791-4.485 0.879-4.485 3.264v20.311c0 1.484 0.921 2.804 2.291 3.278l14.013 4.857c0.35 0.121 0.728 0.121 1.078 0l14.013-4.857c1.369-0.474 2.291-1.794 2.291-3.278v-20.311c0-2.385-2.294-4.055-4.485-3.264v0z"></path>
</svg>
