<!-- Generated by IcoMoon.io -->
<svg version="1.1" xmlns="http://www.w3.org/2000/svg" width="40" height="40" viewBox="0 0 40 40">
<title>mp-bathtub-1</title>
<path d="M26.743 29.194c-0.518 1.138-1.658 1.869-2.915 1.869h-8.229c-1.248 0-2.382-0.721-2.906-1.85l-2.834-6.11h19.658l-2.774 6.091zM34.399 19.919h-24v-11.039c0-0.879 0.717-1.592 1.6-1.592 0.885 0 1.6 0.713 1.6 1.592v1.592c0 0.88 0.717 1.592 1.6 1.592 0.885 0 1.6-0.712 1.6-1.592v-3.184c0-1.758-1.432-3.289-3.2-3.289h-3.2c-1.766 0-3.2 1.531-3.2 3.289v12.631h-1.6c-0.883 0-1.6 0.713-1.6 1.592 0 0.88 0.717 1.592 1.6 1.592h0.59l5.57 9.697-0.491 0.837c-0.418 0.774-0.125 1.7 0.654 2.116 0.778 0.414 1.749 0.261 2.165-0.514l0.608-0.992h10.088l0.608 0.973c0.418 0.774 1.387 0.987 2.166 0.572 0.778-0.416 1.070-1.418 0.654-2.194l-0.542-0.869 5.52-9.625h1.21c0.885 0 1.6-0.712 1.6-1.592 0-0.879-0.715-1.592-1.6-1.592v0z"></path>
</svg>
