<!-- Generated by IcoMoon.io -->
<svg version="1.1" xmlns="http://www.w3.org/2000/svg" width="40" height="40" viewBox="0 0 40 40">
<title>mp-bag_plus_play_round-</title>
<path d="M15.637 19.274v7.27c0 0.569 0.623 0.918 1.107 0.621l5.818-3.635c0.464-0.284 0.464-0.957 0-1.241l-5.818-3.636c-0.484-0.295-1.107 0.052-1.107 0.621zM18.546 6.909c-2.406 0-4.364 1.958-4.364 4.364v1.455h8.727c0-1.455 0.372-5.818-4.364-5.818zM25.819 15.636v2.909c0 0.803-0.652 1.455-1.455 1.455s-1.455-0.652-1.455-1.455v-2.909h-8.727v2.909c0 0.803-0.652 1.455-1.455 1.455s-1.455-0.652-1.455-1.455v-2.909c-1.217 0-2.272-0.086-2.464 1.249l-1.663 11.636c-0.125 0.876 0.556 1.66 1.44 1.66h16.031c-0.161 0-0.253 0.944-0.253 1.455s0.092 1.455 0.253 1.455h-17.708c-1.77 0-3.13-1.568-2.88-3.321l2.079-14.545c0.205-1.433 1.876-2.497 3.325-2.497h1.84v-1.455c0-4.010 3.263-7.273 7.273-7.273s7.273 2.909 7.273 7.273v1.455c1.663 0 4.745-0.442 5.165 2.497l1.313 9.194c-0.215-0.033-0.435-0.055-0.66-0.055-0.804 0-1.552 0.228-2.199 0.608l-1.155-8.086c-0.191-1.335-1.247-1.249-2.464-1.249zM36.001 31.636c0 1.59-1.455 1.455-2.909 1.455 0 1.455 0.153 2.909-1.455 2.909-1.59 0-1.455-1.455-1.455-2.909-1.455 0-2.909 0.153-2.909-1.455 0-1.59 1.455-1.455 2.909-1.455 0-1.455-0.153-2.909 1.455-2.909 1.606 0 1.455 1.455 1.455 2.909 1.455 0 2.909-0.151 2.909 1.455z"></path>
</svg>
