<!-- Generated by IcoMoon.io -->
<svg version="1.1" xmlns="http://www.w3.org/2000/svg" width="40" height="40" viewBox="0 0 40 40">
<title>mp-car_round-1</title>
<path d="M32.8 28h-1.149c-1.194-1.587-2.923-1.522-3.603-1.552-0.563-0.024-1.648 0.163-1.648 0.342v-1.99h4.8c0.883 0 1.6 0.717 1.6 1.6v1.6zM28.096 32.896c-0.882 0-1.6-0.717-1.6-1.6 0-0.882 0.718-1.6 1.6-1.6 0.883 0 1.6 0.718 1.6 1.6 0 0.883-0.717 1.6-1.6 1.6v0zM19.27 28c-0.326-1.6-0.47-1.6-1.987-3.2h5.917v3.2h-3.93zM15.851 31.296c-0.555 0.952-1.576 1.6-2.755 1.6-1.178 0-2.198-0.648-2.754-1.6-0.277-0.472-0.446-1.014-0.446-1.6 0-0.584 0.17-1.126 0.446-1.6 0.555-0.95 1.576-1.6 2.754-1.6 1.179 0 2.2 0.65 2.755 1.6 0.275 0.474 0.445 1.016 0.445 1.6 0 0.586-0.168 1.128-0.445 1.6v0zM7.296 27.027v-2.131h1.586c-0.664 0.589-1.208 1.314-1.586 2.131v0zM23.2 21.6h-16v-12.8c0-0.883 0.717-1.6 1.6-1.6h12.8c0.883 0 1.6 0.717 1.6 1.6v12.8zM26.4 21.6v-14.4c0-1.768-1.432-3.2-3.2-3.2h-16c-1.768 0-3.2 1.432-3.2 3.2v21.077c0 1.614 1.309 2.923 2.923 2.923 0.714 3.2 3.195 4.8 6.173 4.8 2.979 0 5.461-1.6 6.174-4.8h4.026c0 3.2 2.15 4.8 4.8 4.8 2.651 0 4.8-1.6 4.8-4.8v0c1.715 0 3.104-1.389 3.104-3.104v-3.392c0-1.715-1.389-3.104-3.104-3.104h-6.496z"></path>
</svg>
