<!-- Generated by IcoMoon.io -->
<svg version="1.1" xmlns="http://www.w3.org/2000/svg" width="40" height="40" viewBox="0 0 40 40">
<title>mp-cart_close-</title>
<path d="M13.325 9.738l-2.262-2.262-2.262 2.262-2.264-2.262-2.262 2.262 2.262 2.262-2.262 2.262 2.262 2.264 2.264-2.264 2.262 2.264 2.262-2.264-2.262-2.262 2.262-2.262zM36 4h-9.6v19.2h-19.2v3.494c-1.861 0.661-3.2 2.419-3.2 4.506 0 2.651 2.149 4.8 4.8 4.8 2.65 0 4.8-2.149 4.8-4.8 0-2.086-1.341-3.845-3.2-4.506v-0.294h16v0.294c-1.861 0.661-3.2 2.419-3.2 4.506 0 2.651 2.149 4.8 4.8 4.8 2.65 0 4.8-2.149 4.8-4.8 0-2.086-1.341-3.845-3.2-4.506v-19.494h6.4v-3.2zM8.8 29.522c0.875 0.312 1.6 0.622 1.6 1.678 0 0.883-0.718 1.6-1.6 1.6-0.883 0-1.6-0.717-1.6-1.6 0-1.056 0.723-1.366 1.6-1.678v0zM28 29.522c0.875 0.312 1.6 0.622 1.6 1.678 0 0.883-0.718 1.6-1.6 1.6-0.883 0-1.6-0.717-1.6-1.6 0-1.056 0.723-1.366 1.6-1.678v0z"></path>
</svg>
