<!-- Generated by IcoMoon.io -->
<svg version="1.1" xmlns="http://www.w3.org/2000/svg" width="40" height="40" viewBox="0 0 40 40">
<title>mp-cloud_connection-4</title>
<path d="M34.554 13.846c-1.020-1.459-2.519-2.561-4.265-3.091-0.037-0.011-0.046-0.054-0.037-0.034-4.509-10.393-19.939-8.225-21.389 3.011-0.006 0.061-0.094 0.064-0.045 0.051-7.199 1.791-6.131 12.607 1.865 12.607 2.195 0 4.481 0.413 4.481-1.602 0-3.569-6.968 0.631-7.937-4.14-0.592-2.913 2.764-5.031 5.114-3.162-3.277-10.802 13.313-14.591 15.472-3.894 6.307-0.226 6.798 9.594 0.021 9.594h-1.462c-2.115 0-2.118 3.203 0 3.203 8.947 0 11.616-7.634 8.182-12.544zM28.116 34.398c0 0.884-0.717 1.602-1.601 1.602h-13.092c-0.884 0-1.601-0.718-1.601-1.602s0.717-1.602 1.601-1.602h4.944v-17.902c0-0.884 0.717-1.602 1.601-1.602 0.885 0 1.601 0.718 1.601 1.602v17.902h4.946c0.884 0 1.601 0.718 1.601 1.602z"></path>
</svg>
