<!-- Generated by IcoMoon.io -->
<svg version="1.1" xmlns="http://www.w3.org/2000/svg" width="49" height="40" viewBox="0 0 49 40">
<title>mp-camera_minus-</title>
<path d="M4 36h10.667v-3.556h-10.667v3.556zM25.333 31.556c-1.961 0-3.556-1.595-3.556-3.556s1.595-3.556 3.556-3.556c1.961 0 3.556 1.595 3.556 3.556s-1.595 3.556-3.556 3.556v0zM25.333 20.889c-3.927 0-7.111 3.184-7.111 7.111s3.184 7.111 7.111 7.111c3.927 0 7.111-3.184 7.111-7.111s-3.184-7.111-7.111-7.111v0zM20 11.111h10.667v-3.556h-10.667v3.556zM41.333 11.111v-3.556h-3.556v3.556h-3.556v-7.111h-17.778v7.111h-8.889v14.222h3.556v-10.667h28.444v17.778h-3.556v3.556h7.111v-24.889h-1.778z"></path>
</svg>
