<!-- Generated by IcoMoon.io -->
<svg version="1.1" xmlns="http://www.w3.org/2000/svg" width="50" height="40" viewBox="0 0 50 40">
<title>mp-camera-7</title>
<path d="M24 19c-4.418 0-8 3.582-8 8s3.582 8 8 8c4.418 0 8-3.582 8-8s-3.582-8-8-8v0zM18 12v-2c0-1.104 0.896-2 2-2h8c1.104 0 2 0.896 2 2v2h-12zM30 4h-12c-2.21 0-4 1.79-4 4v4h-6c-2.21 0-4 1.79-4 4v16c0 2.21 1.79 4 4 4h2c1.104 0 2-0.896 2-2s-0.896-2-2-2c-1.104 0-2-0.896-2-2v-12c0-1.104 0.896-2 2-2h28c1.104 0 2 0.896 2 2v12c0 1.104-0.896 2-2 2s-2 0.896-2 2c0 1.104 0.896 2 2 2h2c2.21 0 4-1.79 4-4v-20h-2v-2c0-1.104-0.896-2-2-2s-2 0.896-2 2v2h-4v-4c0-2.21-1.79-4-4-4v0zM24 23c2.206 0 4 1.794 4 4s-1.794 4-4 4c-2.206 0-4-1.794-4-4s1.794-4 4-4v0z"></path>
</svg>
