<!-- Generated by IcoMoon.io -->
<svg version="1.1" xmlns="http://www.w3.org/2000/svg" width="40" height="40" viewBox="0 0 40 40">
<title>mp-cart_minus_round-</title>
<path d="M5.605 13.506c-0.883 0-1.605-0.631-1.605-1.505v0.078c0-0.874 0.722-1.741 1.605-1.741h6.4c0.883 0 1.595 0.787 1.595 1.664v0.078c0 0.876-0.712 1.427-1.595 1.427h-6.4zM28.005 32.832c-0.882 0-1.6-0.711-1.6-1.584 0-1.047 0.725-1.355 1.6-1.664 0.875 0.309 1.6 0.616 1.6 1.664 0 0.873-0.718 1.584-1.6 1.584v0zM8.805 32.832c-0.882 0-1.6-0.711-1.6-1.584 0-1.047 0.725-1.355 1.6-1.664 0.875 0.309 1.6 0.616 1.6 1.664 0 0.873-0.718 1.584-1.6 1.584v0zM29.6 9.068c0-0.876 0.722-1.9 1.605-1.9h3.2c0.883 0 1.595-0.551 1.595-1.427v-0.078c0-0.876-0.712-1.664-1.595-1.664h-4.8c-1.768 0-3.205 1.733-3.205 3.484v15.528h-15.995c-1.768 0-3.205 1.733-3.205 3.484v0.29c-1.6 0.754-3.589 2.944-3.104 5.412 0.365 1.865 1.918 3.381 3.805 3.721 3.048 0.55 5.701-1.754 5.701-4.67 0-2.067-1.602-3.807-3.202-4.463v-0.605h16v0.605c-1.6 0.754-3.589 2.944-3.104 5.412 0.365 1.865 1.918 3.381 3.805 3.721 3.048 0.55 5.701-1.754 5.701-4.67 0-2.067-1.602-3.807-3.202-4.463v-17.717z"></path>
</svg>
