<!-- Generated by IcoMoon.io -->
<svg version="1.1" xmlns="http://www.w3.org/2000/svg" width="40" height="40" viewBox="0 0 40 40">
<title>mp-clouds-</title>
<path d="M24.774 28.003v-0.019c0 0.003-0.040 0.027-0.128 0.027 0.043 0 0.085-0.008 0.128-0.008v0.008h-12.523c-2.36 0-4.556-1.585-4.974-3.907-0.546-3.033 1.78-5.681 4.714-5.681 0.591 0 1.152 0.121 1.676 0.318l-0.034 1.222c-0.024 0.906 0.703 1.656 1.611 1.656 0.809 0 1.504-0.594 1.595-1.398 0.096-0.834 0.24-1.878 0.455-2.937 0.655-3.231 4.874-5.842 8.921-5.125 3.030 0.537 5.515 2.912 6.243 5.901 1.269 5.206-2.891 9.863-7.685 9.943zM31.281 10.978l4.251-4.251c0.625-0.623 0.625-1.635 0-2.26-0.623-0.623-1.635-0.623-2.26 0l-4.963 4.963c-1.123-0.38-2.323-0.596-3.578-0.596-4.629 0-8.578 2.811-10.28 6.819-1.962-0.641-4.161-0.762-6.764 1.083-2.29 1.624-3.848 4.188-3.671 6.988 0.168 2.643 1.63 4.922 3.75 6.248l-3.298 3.298c-0.625 0.625-0.625 1.636 0 2.261 0.623 0.623 1.636 0.623 2.26 0l4.412-4.412c0.283 0.030 0.559 0.086 0.85 0.086h12.784c-0.016 0-0.030-0.005-0.046-0.005 0.016-0.002 0.046-0.005 0.046-0.005 6.392-0.094 11.098-5.059 11.098-11.176 0-3.722-1.809-7.009-4.591-9.043z"></path>
</svg>
