<!-- Generated by IcoMoon.io -->
<svg version="1.1" xmlns="http://www.w3.org/2000/svg" width="40" height="40" viewBox="0 0 40 40">
<title>mp-closed_box_top_view_round-</title>
<path d="M28 26.4h-3.2c-1.768 0-3.2-1.432-3.2-3.2v-6.4c0-1.768 1.432-3.2 3.2-3.2h3.2c0.883 0 1.6 0.717 1.6 1.6s-0.717 1.6-1.6 1.6h-1.6c-0.883 0-1.6 0.717-1.6 1.6v3.2c0 0.883 0.717 1.6 1.6 1.6h1.6c0.883 0 1.6 0.717 1.6 1.6s-0.717 1.6-1.6 1.6zM12 23.2h1.6c0.883 0 1.6-0.717 1.6-1.6v-3.2c0-0.883-0.717-1.6-1.6-1.6h-1.6c-0.883 0-1.6-0.717-1.6-1.6s0.717-1.6 1.6-1.6h3.2c1.768 0 3.2 1.432 3.2 3.2v6.4c0 1.768-1.432 3.2-3.2 3.2h-3.2c-0.883 0-1.6-0.717-1.6-1.6s0.717-1.6 1.6-1.6zM31.2 32.8h-22.4c-0.883 0-1.6-0.717-1.6-1.6v-22.4c0-0.883 0.717-1.6 1.6-1.6h22.4c0.883 0 1.6 0.717 1.6 1.6v22.4c0 0.883-0.717 1.6-1.6 1.6zM32.8 4h-25.6c-1.768 0-3.2 1.432-3.2 3.2v25.6c0 1.768 1.432 3.2 3.2 3.2h25.6c1.768 0 3.2-1.432 3.2-3.2v-25.6c0-1.768-1.432-3.2-3.2-3.2z"></path>
</svg>
