<!-- Generated by IcoMoon.io -->
<svg version="1.1" xmlns="http://www.w3.org/2000/svg" width="42" height="40" viewBox="0 0 42 40">
<title>mp-cloud_message-</title>
<path d="M29.117 24.657h-5.59c-0.867 0-1.703 0.343-2.329 0.955l-5.667 5.545c-0.536 0.525-1.425 0.136-1.425-0.621v-4.157c0-0.95-0.755-1.721-1.684-1.721-1.684 0-4.416 0.114-4.982-2.728-0.62-3.123 2.902-5.414 5.381-3.398-3.456-11.635 14.008-15.666 16.275-4.185 0.029 0 0.056-0.005 0.084-0.009 0.027-0.005 0.056-0.009 0.084-0.009 6.518 0 6.883 10.328-0.147 10.328zM31.699 11.294c-0.010-0.002-0.017-0.007-0.024-0.012-0.007-0.007-0.012-0.014-0.015-0.022-1.822-4.29-5.992-7.259-10.818-7.259-5.996 0-10.934 4.577-11.682 10.495-0.002 0.014-0.007 0.026-0.015 0.034-0.008 0.010-0.020 0.017-0.032 0.021-3.208 0.814-5.514 3.956-5.056 7.579 0.381 3.006 2.796 5.391 5.92 5.865 0.428 0.064 0.76 0.411 0.76 0.854v3.703c0 3.066 3.628 4.603 5.75 2.434l6.243-6.381c0.317-0.324 0.744-0.504 1.191-0.504h4.955c4.44 0 8.401-3.336 8.776-7.858 0.345-4.149-2.221-7.788-5.954-8.948z"></path>
</svg>
