<!-- Generated by IcoMoon.io -->
<svg version="1.1" xmlns="http://www.w3.org/2000/svg" width="40" height="40" viewBox="0 0 40 40">
<title>mp-directory_close-5</title>
<path d="M11.294 30.555l2.951-2.97c0.544-0.547 0.544-1.434 0-1.98-0.543-0.547-1.423-0.547-1.967 0l-2.951 2.97-2.937-2.956c-0.537-0.541-1.408-0.547-1.953-0.014-0.557 0.545-0.563 1.442-0.014 1.994l2.937 2.956-2.952 2.97c-0.543 0.547-0.543 1.434 0 1.981 0.544 0.546 1.425 0.546 1.967 0l2.952-2.971 3.036 3.055c0.537 0.542 1.407 0.547 1.952 0.015 0.558-0.545 0.563-1.442 0.015-1.995l-3.036-3.055zM36 12.403v17.083c0 1.392-1.38 2.52-2.763 2.52h-12.8c-0.768 0-1.391-0.627-1.391-1.4 0-0.774 0.623-1.4 1.391-1.4h11.13c0.768 0 1.65-0.627 1.65-1.4v-14.282c0-0.619-0.757-1.12-1.372-1.12h-10.017c-1.537 0-2.524-1.255-2.524-2.801v-1.68c0-0.619-0.757-1.12-1.372-1.12h-5.843c-0.768 0-1.133 0.626-1.133 1.4v11.202c0 0.773-0.622 1.4-1.391 1.4-0.768 0-1.391-0.627-1.391-1.4v-12.322c0-1.694 1.119-3.081 2.802-3.081h8.070c1.537 0 3.041 1.253 3.041 2.801v1.12c0 0.924 0.493 1.68 1.411 1.68h9.461c1.537 0 3.041 1.253 3.041 2.801v0z"></path>
</svg>
