<!-- Generated by IcoMoon.io -->
<svg version="1.1" xmlns="http://www.w3.org/2000/svg" width="40" height="40" viewBox="0 0 40 40">
<title>mp-directory_image-2</title>
<path d="M23.2 20.001c0-0.883 0.717-1.6 1.6-1.6s1.6 0.717 1.6 1.6c0 0.883-0.717 1.6-1.6 1.6s-1.6-0.717-1.6-1.6v0zM24.4 23.201l5.2 6.4h-19.2l7.229-9.6 4.538 6.4 2.234-3.2zM32.8 31.201c0 0.883-0.038 1.6-0.922 1.6h-22.4c-0.883 0-2.278-0.717-2.278-1.6v-22.4c0-0.883 1.395-1.6 2.278-1.6h5.368c0.611 0 1.17 0.347 1.438 0.896l1.816 3.71c0.538 1.098 1.653 1.794 2.874 1.794h10.904c0.883 0 0.922 0.717 0.922 1.6v16zM33.478 10.401h-10.822c-1.211 0-2.32-0.685-2.862-1.77l-1.43-2.862c-0.542-1.083-1.65-1.768-2.862-1.768h-7.622c-1.766 0-3.878 1.432-3.878 3.2v25.6c0 1.766 2.112 3.2 3.878 3.2h25.6c1.768 0 2.522-1.434 2.522-3.2v-19.2c0-1.768-0.754-3.2-2.522-3.2v0z"></path>
</svg>
