<!-- Generated by IcoMoon.io -->
<svg version="1.1" xmlns="http://www.w3.org/2000/svg" width="38" height="40" viewBox="0 0 38 40">
<title>mp-diamond_round-2</title>
<path d="M30.37 21.746l-10.056 10.045c-0.592 0.592-1.551 0.586-2.143-0.006l-10.057-10.033c-0.296-0.296-0.445-1.047-0.445-1.047h23.144c0 0-0.147 0.745-0.443 1.041zM17.093 6.296l-12.204 12.204c-0.594 0.594-0.89 1.369-0.89 2.147 0 0.776 0.296 1.553 0.89 2.145l12.204 12.204c1.184 1.186 3.106 1.186 4.291 0l12.204-12.204c0.592-0.592 0.888-1.369 0.888-2.145 0-0.777-0.296-1.553-0.888-2.147l-12.204-12.204c-1.186-1.184-3.107-1.184-4.291 0z"></path>
</svg>
