<!-- Generated by IcoMoon.io -->
<svg version="1.1" xmlns="http://www.w3.org/2000/svg" width="32" height="40" viewBox="0 0 32 40">
<title>mp-drink-7</title>
<path d="M14.718 24.539c-0.658-0.611-1.085-1.261-1.117-2.179-0.026-0.755 0.338-1.464 1.083-1.722 0.781-0.269 1.514 0.067 1.992 0.674 0.062 0.078 0.186 0.077 0.248-0.002 0.443-0.566 1.106-0.898 1.85-0.714 0.84 0.21 1.262 0.981 1.224 1.805-0.045 0.931-0.506 1.578-1.174 2.19-0.317 0.291-0.64 0.578-0.962 0.862-0.605 0.533-1.509 0.533-2.115 0.002-0.346-0.301-0.693-0.603-1.029-0.917v0zM20.664 31.443c-0.12 0.781-0.792 1.357-1.581 1.357h-4.565c-0.789 0-1.461-0.576-1.581-1.357l-2.006-13.043h11.739l-2.006 13.043zM28 15.2h-9.6v-6.4c0-0.885 0.717-1.6 1.6-1.6h3.2c0.885 0 1.6-0.717 1.6-1.6 0-0.885-0.715-1.6-1.6-1.6h-4.8c-1.766 0-3.2 1.432-3.2 3.2v8h-9.6c-0.883 0-1.6 0.715-1.6 1.6 0 0.883 0.717 1.6 1.6 1.6h2.093l2.291 14.886c0.24 1.562 1.582 2.714 3.162 2.714h7.31c1.579 0 2.922-1.152 3.162-2.714l2.291-14.886h2.091c0.885 0 1.6-0.717 1.6-1.6 0-0.885-0.715-1.6-1.6-1.6v0z"></path>
</svg>
