<!-- Generated by IcoMoon.io -->
<svg version="1.1" xmlns="http://www.w3.org/2000/svg" width="40" height="40" viewBox="0 0 40 40">
<title>mp-directory_image-1</title>
<path d="M23.2 20.001c0-0.883 0.717-1.6 1.6-1.6s1.6 0.717 1.6 1.6c0 0.883-0.717 1.6-1.6 1.6s-1.6-0.717-1.6-1.6v0zM24.4 23.201l5.2 6.4h-19.2l7.229-9.6 4.538 6.4 2.234-3.2zM32.8 31.201c0 0.883-0.397 1.6-1.28 1.6h-22.4c-0.883 0-1.92-0.717-1.92-1.6v-22.4c0-0.883 1.037-1.6 1.92-1.6h6.4c0.883 0 1.28 0.717 1.28 1.6v1.6c0 1.766 1.752 3.2 3.52 3.2h11.2c0.883 0 1.28 0.717 1.28 1.6v16zM33.12 10.401h-11.2c-0.883 0-1.92-0.717-1.92-1.6v-1.6c0-1.768-1.112-3.2-2.88-3.2h-9.6c-1.768 0-3.52 1.432-3.52 3.2v25.6c0 1.766 1.752 3.2 3.52 3.2h25.6c1.768 0 2.88-1.434 2.88-3.2v-19.2c0-1.768-1.112-3.2-2.88-3.2v0z"></path>
</svg>
