<!-- Generated by IcoMoon.io -->
<svg version="1.1" xmlns="http://www.w3.org/2000/svg" width="40" height="40" viewBox="0 0 40 40">
<title>mp-directory_search-</title>
<path d="M22.952 29.268l2.262-2.262 2.595 2.594-2.264 2.262-2.594-2.594zM21.792 22.178c0 1.763-1.437 3.2-3.2 3.2-1.765 0-3.2-1.437-3.2-3.2 0-1.765 1.435-3.2 3.2-3.2 1.763 0 3.2 1.435 3.2 3.2v0zM12.192 22.178c0 3.534 2.864 6.4 6.4 6.4 3.534 0 6.4-2.866 6.4-6.4s-2.866-6.4-6.4-6.4c-3.536 0-6.4 2.866-6.4 6.4v0zM32.8 32.8h-25.6v-25.6h8.666l3.133 6.4h13.802v19.2zM20.699 10.4l-3.2-6.4h-13.499v32h32v-25.6h-15.301z"></path>
</svg>
