<!-- Generated by IcoMoon.io -->
<svg version="1.1" xmlns="http://www.w3.org/2000/svg" width="40" height="40" viewBox="0 0 40 40">
<title>mp-directory_missing-</title>
<path d="M32.8 26.4h3.2v-3.2h-3.2v3.2zM23.2 10.4h-2.501l-0.699-1.397v4.597h3.2v-3.2zM32.8 20h3.2v-3.2h-3.2v3.2zM16.8 4h-3.2v3.2h2.266l0.934 1.91v-5.11zM32.8 32.8h-3.2v3.2h6.4v-6.4h-3.2v3.2zM10.4 4h-6.4v6.4h3.2v-3.2h3.2v-3.2zM4 36h3.2v-3.2h-3.2v3.2zM32.8 10.4v3.2h3.2v-3.2h-3.2zM4 23.2h3.2v-3.2h-3.2v3.2zM4 16.8h3.2v-3.2h-3.2v3.2zM4 29.6h3.2v-3.2h-3.2v3.2zM16.8 36h3.2v-3.2h-3.2v3.2zM10.4 36h3.2v-3.2h-3.2v3.2zM23.2 36h3.2v-3.2h-3.2v3.2zM26.4 13.6h3.2v-3.2h-3.2v3.2z"></path>
</svg>
