<!-- Generated by IcoMoon.io -->
<svg version="1.1" xmlns="http://www.w3.org/2000/svg" width="40" height="40" viewBox="0 0 40 40">
<title>mp-emoji_neutral_square_round_glasses-2</title>
<path d="M26.4 28v0c0-0.883-0.717-1.6-1.6-1.6h-9.6c-0.883 0-1.6 0.717-1.6 1.6s0.717 1.6 1.6 1.6h9.6c0.883 0 1.6-0.717 1.6-1.6zM7.2 10.4v-1.6c0-0.883 0.717-1.6 1.6-1.6h22.4c0.883 0 1.6 0.717 1.6 1.6v1.6h-25.6zM26.4 20v-6.4h6.4v6.4h-6.4zM32.8 30.536c0 0.883-0.717 2.264-1.6 2.264h-22.4c-0.883 0-1.6-1.381-1.6-2.264v-7.336h9.6v-9.6h6.4v9.6h9.6v7.336zM7.2 20v-6.4h6.4v6.4h-6.4zM32.8 4h-25.6c-1.768 0-3.2 1.432-3.2 3.2v24.936c0 2.125 1.739 3.864 3.864 3.864h24.936c1.768 0 3.2-1.432 3.2-3.2v-25.6c0-1.768-1.432-3.2-3.2-3.2v0z"></path>
</svg>
