<!-- Generated by IcoMoon.io -->
<svg version="1.1" xmlns="http://www.w3.org/2000/svg" width="40" height="40" viewBox="0 0 40 40">
<title>mp-emoji_neutral-5</title>
<path d="M29.6 24.8c0 0.883-0.717 1.6-1.6 1.6h-16c-0.883 0-1.6-0.717-1.6-1.6v0c0-0.883 0.717-1.6 1.6-1.6h16c0.883 0 1.6 0.717 1.6 1.6v0zM32.8 30.584c0 0.883-0.717 2.216-1.6 2.216h-22.4c-0.883 0-1.6-1.333-1.6-2.216v-11.2c0-2.554 0.76-4.931 2.054-6.931l2.083 2.083-1.6 1.6c-0.626 0.624-0.626 1.638 0 2.262 0.624 0.626 1.637 0.626 2.262 0l1.6-1.6 1.6 1.6c0.626 0.626 1.638 0.626 2.262 0v0c0.626-0.624 0.626-1.638 0-2.262l-1.6-1.6 1.6-1.6c0.626-0.626 0.626-1.638 0-2.262v0c-0.624-0.626-1.637-0.626-2.262 0l-1.6 1.6-2.274-2.275c2.283-2.112 5.325-2.798 8.674-2.798s6.39 0.686 8.674 2.798l-2.274 2.275-1.6-1.6c-0.626-0.626-1.638-0.626-2.262 0v0c-0.626 0.624-0.626 1.637 0 2.262l1.6 1.6-1.6 1.6c-0.626 0.624-0.626 1.638 0 2.262 0.624 0.626 1.637 0.626 2.262 0l1.6-1.6 1.6 1.6c0.626 0.626 1.638 0.626 2.262 0v0c0.626-0.624 0.626-1.638 0-2.262l-1.6-1.6 2.083-2.083c1.294 2 2.054 4.378 2.054 6.931v11.2zM32.8 9.813c-3.322-4.434-7.253-5.813-12.8-5.813-5.552 0-9.482 1.382-12.8 5.813-2 2.672-3.2 5.978-3.2 9.571v12.8c0 1.768 1.432 3.816 3.2 3.816h25.6c1.768 0 3.2-2.048 3.2-3.816v-12.8c0-3.594-1.2-6.899-3.2-9.571v0z"></path>
</svg>
