<!-- Generated by IcoMoon.io -->
<svg version="1.1" xmlns="http://www.w3.org/2000/svg" width="40" height="40" viewBox="0 0 40 40">
<title>mp-emoji_happy-6</title>
<path d="M27.846 23.261c-1.539 8.763-14.154 8.598-15.693-0.166-0.168-0.957 0.618-1.494 1.59-1.494h12.512c0.973 0 1.758 0.702 1.59 1.661v0zM28 13.6c0.883 0 1.6 0.717 1.6 1.6v3.2c0 0.883-0.717 1.6-1.6 1.6h-3.2c-0.88 0-1.6-0.72-1.6-1.6v-3.2c0-0.883 0.717-1.6 1.6-1.6h3.2zM15.2 20h-3.2c-0.88 0-1.6-0.72-1.6-1.6v-3.2c0-0.883 0.717-1.6 1.6-1.6h3.2c0.883 0 1.6 0.717 1.6 1.6v3.2c0 0.883-0.717 1.6-1.6 1.6v0zM32.8 30.551c0 0.885-0.717 2.25-1.6 2.25h-22.4c-0.883 0-1.6-1.365-1.6-2.25v-11.2c0-7.058 5.742-12.15 12.8-12.15s12.8 5.093 12.8 12.15v11.2zM32.8 9.779c-3.363-4.49-7.275-5.779-12.8-5.779-5.528 0-9.438 1.293-12.8 5.779-2 2.672-3.2 5.978-3.2 9.571v12.8c0 1.768 1.434 3.85 3.2 3.85h25.6c1.768 0 3.2-2.082 3.2-3.85v-12.8c0-3.594-1.2-6.899-3.2-9.571v0z"></path>
</svg>
