<!-- Generated by IcoMoon.io -->
<svg version="1.1" xmlns="http://www.w3.org/2000/svg" width="40" height="40" viewBox="0 0 40 40">
<title>mp-emoji_surprised_circle-1</title>
<path d="M23.117 28.5c0 1.768-1.432 3.2-3.2 3.2s-3.2-1.432-3.2-3.2c0-1.768 1.432-3.2 3.2-3.2s3.2 1.432 3.2 3.2v0zM20 32.801c-5.95 0-10.952-4.8-12.379-9.602h5.979c1.768 0 3.2-2.096 3.2-3.864v-5.736h6.4v5.736c0 1.768 1.434 3.864 3.2 3.864h5.979c-1.427 4.802-6.427 9.602-12.379 9.602v0zM7.2 13.599h6.4v4.136c0 0.885-0.717 2.266-1.6 2.266h-4.8v-6.402zM20 7.199c3.234 0 6.182 0 8.438 3.2h-16.877c2.256-3.2 5.205-3.2 8.438-3.2v0zM32.8 13.599v6.402h-4.8c-0.883 0-1.6-1.381-1.6-2.266v-4.136h6.4zM32.777 10.399c-2.918-4.8-7.547-6.4-12.778-6.4-5.229 0-9.859 1.6-12.778 6.4h-3.222v12.8h0.322c1.483 6.4 7.938 12.8 15.678 12.8s14.197-6.4 15.678-12.8h0.322v-12.8h-3.222z"></path>
</svg>
