<!-- Generated by IcoMoon.io -->
<svg version="1.1" xmlns="http://www.w3.org/2000/svg" width="40" height="40" viewBox="0 0 40 40">
<title>mp-emoji_surprised_missing-1</title>
<path d="M32.8 26.4h3.2v-12.8h-3.2v12.8zM32.8 32.8h-3.2v3.2h6.4v-6.4h-3.2v3.2zM29.6 4v3.2h3.2v3.2h3.2v-6.4h-6.4zM4 26.4h3.2v-12.8h-3.2v12.8zM7.2 29.6h-3.2v6.4h6.4v-3.2h-3.2v-3.2zM7.2 7.2h3.2v-3.2h-6.4v6.4h3.2v-3.2zM13.6 36h12.8v-3.2h-12.8v3.2zM13.6 7.2h12.8v-3.2h-12.8v3.2zM20.267 22.835c-1.768 0-3.2 1.434-3.2 3.2 0 1.768 1.432 3.2 3.2 3.2 1.766 0 3.2-1.432 3.2-3.2 0-1.766-1.434-3.2-3.2-3.2v0zM23.2 20h6.4v-6.4h-6.4v6.4zM10.4 20h6.4v-6.4h-6.4v6.4z"></path>
</svg>
