<!-- Generated by IcoMoon.io -->
<svg version="1.1" xmlns="http://www.w3.org/2000/svg" width="47" height="40" viewBox="0 0 47 40">
<title>mp-emoji_happy_simple-3</title>
<path d="M14.803 24.036h-5.243c0 15.952 26.214 15.952 26.214 0h-5.243c0 10.635-15.728 10.635-15.728 0v0zM41.333 7.759l-3.707-3.759-4.475 4.538-4.475-4.538-3.707 3.759 4.475 4.538-4.475 4.538 3.707 3.759 4.475-4.538 4.475 4.538 3.707-3.759-4.475-4.538 4.475-4.538zM15.888 12.298l4.475 4.538-3.707 3.759-4.475-4.538-4.475 4.538-3.707-3.759 4.475-4.538-4.475-4.538 3.707-3.759 4.475 4.538 4.475-4.538 3.707 3.759-4.475 4.538z"></path>
</svg>
