<!-- Generated by IcoMoon.io -->
<svg version="1.1" xmlns="http://www.w3.org/2000/svg" width="40" height="40" viewBox="0 0 40 40">
<title>mp-emoji_happy-17</title>
<path d="M27.846 23.296c-1.539 8.782-14.154 8.61-15.693-0.173-0.168-0.959 0.618-1.485 1.59-1.485h12.512c0.973 0 1.758 0.697 1.59 1.658v0zM29.6 15.224c0 0.885-0.717 1.603-1.6 1.603h-3.2c-0.883 0-1.6-0.718-1.6-1.603 0-0.887 0.717-1.603 1.6-1.603h3.2c0.883 0 1.6 0.717 1.6 1.603v0zM15.2 16.828h-3.2c-0.883 0-1.6-0.718-1.6-1.603 0-0.887 0.717-1.603 1.6-1.603h3.2c0.883 0 1.6 0.717 1.6 1.603 0 0.885-0.717 1.603-1.6 1.603v0zM32.8 9.778v9.591c0 7.072-5.742 13.425-12.8 13.425s-12.8-6.353-12.8-13.425v-11.224c0-0.887 0.717-0.938 1.6-0.938h22.4c0.883 0 1.6 0.051 1.6 0.938v1.632zM32.8 4.001h-25.6c-1.766 0-3.2 0.77-3.2 2.541v12.827c0 3.601 1.2 6.914 3.2 9.59 0.918 1.228 2.005 2.317 3.229 3.237 2.672 2.004 5.978 3.805 9.571 3.805s6.899-1.801 9.571-3.805c1.226-0.92 2.312-2.009 3.229-3.237 2-2.676 3.2-5.989 3.2-9.59v-12.827c0-1.772-1.432-2.541-3.2-2.541v0z"></path>
</svg>
