<!-- Generated by IcoMoon.io -->
<svg version="1.1" xmlns="http://www.w3.org/2000/svg" width="56" height="40" viewBox="0 0 56 40">
<title>mp-emoji_neutral_simple-1</title>
<path d="M7.145 36h37.745v-6.074h-37.745v6.074zM48.8 8.295l-4.451-4.295-5.369 5.184-5.369-5.184-4.448 4.295 5.369 5.184-5.369 5.184 4.448 4.295 5.369-5.184 5.369 5.184 4.451-4.295-5.369-5.184 5.369-5.184zM18.268 13.479l5.369 5.184-4.451 4.295-5.369-5.184-5.369 5.184-4.448-4.295 5.369-5.184-5.369-5.184 4.448-4.295 5.369 5.184 5.369-5.184 4.451 4.295-5.369 5.184z"></path>
</svg>
