<!-- Generated by IcoMoon.io -->
<svg version="1.1" xmlns="http://www.w3.org/2000/svg" width="40" height="40" viewBox="0 0 40 40">
<title>mp-emoji_surprised_circle-</title>
<path d="M23.2 25.736c0 1.766-1.432 3.2-3.2 3.2-1.766 0-3.2-1.434-3.2-3.2 0-1.768 1.434-3.2 3.2-3.2 1.768 0 3.2 1.432 3.2 3.2v0zM32.8 20h-4.8c-0.883 0-1.6-1.381-1.6-2.264v-4.136h6.4v6.4zM20 32.8c-5.95 0-10.952-4.8-12.379-9.6h5.979c1.768 0 3.2-2.098 3.2-3.864v-5.736h6.4v5.736c0 1.766 1.434 3.864 3.2 3.864h5.979c-1.427 4.8-6.429 9.6-12.379 9.6v0zM7.2 13.6h6.4v4.136c0 0.883-0.717 2.264-1.6 2.264h-4.8v-6.4zM20 7.2c3.234 0 6.182 0 8.438 3.2h-16.877c2.256-3.2 5.205-3.2 8.438-3.2v0zM32.778 10.4c-2.918-4.8-7.547-6.4-12.778-6.4-5.229 0-9.859 1.6-12.778 6.4h-3.222v12.8h0.322c1.482 6.4 7.938 12.8 15.678 12.8s14.197-6.4 15.678-12.8h0.322v-12.8h-3.222z"></path>
</svg>
