<!-- Generated by IcoMoon.io -->
<svg version="1.1" xmlns="http://www.w3.org/2000/svg" width="40" height="40" viewBox="0 0 40 40">
<title>mp-emoji_happy-11</title>
<path d="M27.828 23.22c-1.611 8.219-14.046 8.005-15.656-0.214-0.189-0.958 0.608-1.406 1.584-1.406h0.027c0.763 0 1.386 0.336 1.562 1.078 1.104 4.677 8.206 4.462 9.31-0.214 0.176-0.742 0.798-0.864 1.56-0.864h0.029c0.976 0 1.771 0.662 1.584 1.621v0zM30.264 12.742l-1.6 1.6 1.6 1.6c0.624 0.624 0.624 1.638 0 2.262h-0.002c-0.624 0.626-1.637 0.626-2.262 0l-1.6-1.6-1.6 1.6c-0.624 0.626-1.637 0.626-2.262 0-0.624-0.624-0.624-1.638 0-2.262l1.6-1.6-1.6-1.6c-0.624-0.626-0.624-1.638 0-2.262v0c0.626-0.626 1.638-0.626 2.262 0l1.6 1.6 1.6-1.6c0.626-0.626 1.638-0.626 2.262 0h0.002c0.624 0.624 0.624 1.637 0 2.262v0zM13.6 16.604l-1.6 1.6c-0.624 0.626-1.637 0.626-2.262 0-0.624-0.624-0.624-1.638 0-2.262l1.6-1.6-1.6-1.6c-0.624-0.626-0.624-1.638 0-2.262v0c0.626-0.626 1.638-0.626 2.262 0l1.6 1.6 1.6-1.6c0.626-0.626 1.638-0.626 2.262 0h0.002c0.624 0.624 0.624 1.637 0 2.262l-1.6 1.6 1.6 1.6c0.624 0.624 0.624 1.638 0 2.262h-0.002c-0.624 0.626-1.637 0.626-2.262 0l-1.6-1.6zM32.8 9.764v9.571c0 7.058-5.742 13.464-12.8 13.464s-12.8-6.406-12.8-13.464v-11.2c0-0.883 0.717-0.936 1.6-0.936h22.4c0.885 0 1.6 0.053 1.6 0.936v1.629zM32.8 4h-25.6c-1.766 0-3.2 0.77-3.2 2.536v12.8c0 3.594 1.2 6.901 3.2 9.571 0.918 1.226 2.005 2.312 3.23 3.229 2.67 2.002 5.976 3.864 9.57 3.864 3.595 0 6.901-1.862 9.571-3.864 1.226-0.917 2.312-2.003 3.229-3.229 2.002-2.67 3.2-5.978 3.2-9.571v-12.8c0-1.766-1.432-2.536-3.2-2.536v0z"></path>
</svg>
