<!-- Generated by IcoMoon.io -->
<svg version="1.1" xmlns="http://www.w3.org/2000/svg" width="40" height="40" viewBox="0 0 40 40">
<title>mp-focus_point-1</title>
<path d="M16.8 23.2h6.4v-6.4h-6.4v6.4zM26.4 26.4h-4.8v3.2h-3.2v-3.2h-4.8v-4.8h-3.2v-3.2h3.2v-4.8h4.8v-3.2h3.2v3.2h4.8v4.8h3.2v3.2h-3.2v4.8zM33.6 4h-10.4v3.2h9.6v9.6h3.2v-12.8h-2.4zM32.8 32.8h-9.6v3.2h12.8v-12.8h-3.2v9.6zM7.2 23.2h-3.2v12.8h12.8v-3.2h-9.6v-9.6zM7.2 7.2h9.6v-3.2h-12.8v12.8h3.2v-9.6zM4.016 20l-0.016 0.016v-0.032l0.016 0.016z"></path>
</svg>
