<!-- Generated by IcoMoon.io -->
<svg version="1.1" xmlns="http://www.w3.org/2000/svg" width="40" height="40" viewBox="0 0 40 40">
<title>mp-file_player_media-</title>
<path d="M23.969 22.423l-6.374 3.641c-1.067 0.609-2.395-0.161-2.395-1.39v-7.281c0-1.228 1.328-1.997 2.395-1.388l6.374 3.64c1.075 0.614 1.075 2.164 0 2.778v0zM32.799 30.639c0 0.883-0.715 2.146-1.6 2.146h-22.4c-0.883 0-1.6-1.263-1.6-2.146v-22.387c0-0.883 0.717-1.052 1.6-1.052h14.4v5.85c0 1.765 1.434 3.745 3.2 3.745h6.4v13.845zM35.532 12.58l-8.664-8.384c-0.299-0.301-0.707-0.195-1.131-0.195h-18.538c-1.766 0-3.2 0.884-3.2 2.651v25.586c0 1.765 1.434 3.745 3.2 3.745h25.6c1.768 0 3.2-1.98 3.2-3.745v-18.527c0-0.424-0.168-0.832-0.467-1.131v0z"></path>
</svg>
