<!-- Generated by IcoMoon.io -->
<svg version="1.1" xmlns="http://www.w3.org/2000/svg" width="40" height="40" viewBox="0 0 40 40">
<title>mp-file_zip-1</title>
<path d="M5.604 20c0.883 0 1.595-0.549 1.595-1.432v-9.6c0-0.883 0.729-1.768 1.612-1.768h14.381v6.568c0 1.766 1.444 3.032 3.211 3.032h6.385v1.768c0 0.883 0.721 1.432 1.604 1.432s1.595-0.549 1.595-1.432v-3.627c0-0.411-0.152-0.805-0.433-1.102l-8.713-9.256c-0.302-0.318-0.718-0.582-1.156-0.582h-18.472c-1.767 0-3.211 1.6-3.211 3.368v11.2c0 0.883 0.721 1.432 1.604 1.432v0zM5.606 20v0zM34.394 20v0zM32.801 28.168c0-0.883-0.716-1.6-1.599-1.6h-1.599v3.2h1.599c0.883 0 1.599-0.717 1.599-1.6v0zM35.993 27.743c0.144 2.768-2.057 5.058-4.792 5.058h-1.612v1.768c0 0.883-0.72 1.432-1.603 1.432h-0.003c-0.883 0-1.593-0.549-1.593-1.432v-9.6c0-0.883 0.704-1.768 1.587-1.768h2.952c2.599 0 4.928 1.947 5.064 4.542v0zM4 24.884c0-0.006 0.005-0.013 0.005-0.021 0-0.006-0.005-0.013-0.005-0.021v0.042zM11.984 32.8h-1.905c-0.593 0-0.98-0.542-0.715-1.074 0.677-1.352 2.383-4.768 3.063-6.126 0.531-1.064-0.241-2.4-1.431-2.4h-5.409c-0.875 0-1.571 0.787-1.582 1.662 0.011 0.874 0.707 1.538 1.582 1.538h1.905c0.595 0 0.982 0.71 0.715 1.242-2.964 5.979-2.404 4.883-3.061 6.106-0.533 1.064 0.241 2.253 1.43 2.253h5.409c0.884 0 1.612-0.632 1.612-1.517v-0.042c0-0.883-0.728-1.642-1.612-1.642v0zM23.179 23.2h-6.397c-0.875 0-1.571 0.787-1.582 1.662 0.011 0.874 0.707 1.538 1.582 1.538h1.612v6.4h-1.612c-0.875 0-1.571 0.787-1.582 1.662 0.011 0.874 0.707 1.538 1.582 1.538h6.397c0.884 0 1.612-0.632 1.612-1.517v-0.042c0-0.883-0.728-1.642-1.612-1.642h-1.587v-6.4h1.587c0.884 0 1.612-0.632 1.612-1.517v-0.042c0-0.883-0.728-1.642-1.612-1.642v0zM15.195 34.484c0-0.006 0.005-0.013 0.005-0.021 0-0.006-0.005-0.013-0.005-0.021v0.042zM15.195 24.842c0 0.008 0.005 0.014 0.005 0.021 0 0.008-0.005 0.014-0.005 0.021v-0.042z"></path>
</svg>
