<!-- Generated by IcoMoon.io -->
<svg version="1.1" xmlns="http://www.w3.org/2000/svg" width="40" height="40" viewBox="0 0 40 40">
<title>mp-file_py-</title>
<path d="M10.4 28.168c0-0.883-0.717-1.6-1.6-1.6h-1.6v3.2h1.6c0.883 0 1.6-0.717 1.6-1.6v0zM13.6 28c0 2.651-2.149 4.8-4.8 4.8h-1.6v3.2h-3.2v-12.8h4.8c2.651 0 4.8 2.149 4.8 4.8v0zM21.6 26.568c0 0.883-0.717 1.6-1.6 1.6s-1.6-0.717-1.6-1.6v-3.368h-3.2v4.968c0 1.766 1.432 3.2 3.2 3.2v4.632h3.2v-4.632c1.768 0 3.2-1.434 3.2-3.2v-4.968h-3.2v3.368zM36 13.044v22.957h-8v-3.2h4.8v-16h-9.6v-9.6h-16v12.8h-3.2v-16h22.366l9.634 9.043z"></path>
</svg>
