<!-- Generated by IcoMoon.io -->
<svg version="1.1" xmlns="http://www.w3.org/2000/svg" width="42" height="40" viewBox="0 0 42 40">
<title>mp-file_missing-</title>
<path d="M34.295 21.973h2.909v-2.97h-2.909v2.97zM22.659 33.852h2.909v-2.97h-2.909v2.97zM28.477 33.852h2.909v-2.97h-2.909v2.97zM34.295 33.852h2.909v-2.97h-2.909v2.97zM8.113 31.752l-2.057-2.099-2.057 2.099 4.067 4.248c6.32-6.451 2.781-2.839 7.071-7.218l-2.057-2.099-4.967 5.069zM8.113 7.125h2.909v-2.97h-2.909v2.97zM34.295 27.912h2.909v-2.97h-2.909v2.97zM13.932 7.125h2.909v-2.97h-2.909v2.97zM19.75 7.125h2.909v-2.97h-2.909v2.97zM8.113 13.065h2.909v-2.97h-2.909v2.97zM8.113 24.943h2.909v-2.97h-2.909v2.97zM16.841 33.852h2.909v-2.97h-2.909v2.97zM28.477 4h-2.659v11.878h11.636v-2.814l-8.977-9.065zM8.113 19.004h2.909v-2.97h-2.909v2.97z"></path>
</svg>
