<!-- Generated by IcoMoon.io -->
<svg version="1.1" xmlns="http://www.w3.org/2000/svg" width="28" height="40" viewBox="0 0 28 40">
<title>mp-fileboard_love_favorite-</title>
<path d="M23.2 10.4h-1.6v3.2h-12.8v-3.2h-1.6v22.4h16v-22.4zM12 10.4h6.4v-3.2h-6.4v3.2zM26.4 7.2v28.8h-22.4v-28.8h4.8v-3.2h12.8v3.2h4.8zM18.235 24.653c-2.542 2.334-2.976 2.877-6.158-0.080-2.562-2.381-1.899-5.213-0.051-5.85 1.173-0.403 2.27 0.101 2.987 1.010 0.094 0.118 0.28 0.115 0.373-0.003 0.666-0.85 1.659-1.347 2.774-1.069 2.048 0.509 2.803 3.491 0.075 5.992v0z"></path>
</svg>
