<!-- Generated by IcoMoon.io -->
<svg version="1.1" xmlns="http://www.w3.org/2000/svg" width="40" height="40" viewBox="0 0 40 40">
<title>mp-file_love_favorite-</title>
<path d="M9.774 28.025c-0.107 0.138-0.322 0.141-0.431 0.003-2.979-3.786-8.266 1.088-3.401 5.621 3.129 2.918 3.63 3.314 7.132 0.095 5.051-4.644-0.36-9.48-3.3-5.719v0zM9.695 23.51c-0.011 0-0.022-0.006-0.035-0.006-0.011 0-0.021 0.006-0.033 0.006h0.068zM35.695 12.029l-7.387-7.55c-0.261-0.259-0.613-0.478-0.981-0.478h-16.138c-1.516 0-3.019 1.306-3.019 2.826v15.434c0 0.758 0.737 1.228 1.491 1.243 0.749-0.015 1.288-0.485 1.288-1.243v-13.935c0-0.769 0.895-1.538 1.662-1.538h12.237v5.752c0 1.52 1.503 2.609 3.019 2.609h5.321v12.686c0 0.771-0.35 1.249-1.117 1.249h-12.509c-0.762 0-1.644 0.686-1.66 1.448 0.015 0.759 0.898 1.339 1.66 1.339h13.933c1.516 0 2.474-1.088 2.474-2.609v-16.209c0-0.371-0.011-0.764-0.272-1.024v0zM17.898 30.514c0 0.006 0.003 0.011 0.003 0.018 0 0.006-0.003 0.011-0.003 0.018v-0.036z"></path>
</svg>
