<!-- Generated by IcoMoon.io -->
<svg version="1.1" xmlns="http://www.w3.org/2000/svg" width="40" height="40" viewBox="0 0 40 40">
<title>mp-file_music_player-</title>
<path d="M26.4 18.4v8h-0.003c-0.019 1.752-1.442 3.166-3.197 3.166-1.768 0-3.2-1.432-3.2-3.2 0-1.766 1.432-3.2 3.2-3.2v-1.566h-6.4v6.4h-0.003c-0.019 1.752-1.442 3.166-3.197 3.166-1.768 0-3.2-1.432-3.2-3.2 0-1.766 1.432-3.2 3.2-3.2v-6.366h12.8zM32.8 32.8h-25.6v-25.6h16v9.6h9.6v16zM26.4 4h-22.4v32h32v-22.066l-9.6-9.934z"></path>
</svg>
