<!-- Generated by IcoMoon.io -->
<svg version="1.1" xmlns="http://www.w3.org/2000/svg" width="42" height="40" viewBox="0 0 42 40">
<title>mp-file_missing_close-</title>
<path d="M35.391 18.941c-0.825 0-1.494 0.669-1.494 1.494s0.669 1.494 1.494 1.494c0.825 0 1.494-0.669 1.494-1.494s-0.669-1.494-1.494-1.494zM23.439 30.892c-0.825 0-1.494 0.669-1.494 1.494s0.669 1.494 1.494 1.494c0.825 0 1.494-0.669 1.494-1.494s-0.669-1.494-1.494-1.494zM29.415 30.892c-0.825 0-1.494 0.669-1.494 1.494s0.669 1.494 1.494 1.494c0.825 0 1.494-0.669 1.494-1.494s-0.669-1.494-1.494-1.494zM35.391 30.892c-0.825 0-1.494 0.669-1.494 1.494s0.669 1.494 1.494 1.494c0.825 0 1.494-0.669 1.494-1.494s-0.669-1.494-1.494-1.494zM11.668 29.218c-0.583-0.584-1.528-0.584-2.113 0l-1.056 1.056-1.056-1.056c-0.584-0.584-1.53-0.584-2.112 0-0.584 0.583-0.584 1.528 0 2.113l1.056 1.056-1.056 1.056c-0.584 0.584-0.584 1.53 0 2.112 0.583 0.584 1.528 0.584 2.112 0l1.056-1.056 1.056 1.056c0.584 0.584 1.53 0.584 2.113 0 0.584-0.583 0.584-1.528 0-2.112l-1.056-1.056 1.056-1.056c0.584-0.584 0.584-1.53 0-2.113zM8.499 6.989c0.825 0 1.494-0.669 1.494-1.494s-0.669-1.494-1.494-1.494c-0.825 0-1.494 0.669-1.494 1.494s0.669 1.494 1.494 1.494zM35.391 24.916c-0.825 0-1.494 0.669-1.494 1.494s0.669 1.494 1.494 1.494c0.825 0 1.494-0.669 1.494-1.494s-0.669-1.494-1.494-1.494zM14.475 4.001c-0.825 0-1.494 0.669-1.494 1.494s0.669 1.494 1.494 1.494c0.825 0 1.494-0.669 1.494-1.494s-0.669-1.494-1.494-1.494zM20.451 4.001c-0.825 0-1.494 0.669-1.494 1.494s0.669 1.494 1.494 1.494c0.825 0 1.494-0.669 1.494-1.494s-0.669-1.494-1.494-1.494zM8.499 12.965c0.825 0 1.494-0.669 1.494-1.494s-0.669-1.494-1.494-1.494c-0.825 0-1.494 0.669-1.494 1.494s0.669 1.494 1.494 1.494zM8.499 24.916c0.825 0 1.494-0.669 1.494-1.494s-0.669-1.494-1.494-1.494c-0.825 0-1.494 0.669-1.494 1.494s0.669 1.494 1.494 1.494zM17.463 30.892c-0.825 0-1.494 0.669-1.494 1.494s0.669 1.494 1.494 1.494c0.825 0 1.494-0.669 1.494-1.494s-0.669-1.494-1.494-1.494zM36.447 12.527l-8.088-8.088c-0.538-0.538-1.149-0.438-1.932-0.438-0.825 0-1.494 0.669-1.494 1.494v7.47c0 1.649 1.337 2.988 2.988 2.988h7.47c0.825 0 1.494-0.669 1.494-1.494 0-0.783 0.1-1.394-0.438-1.932zM7.005 17.446c0-0.825 0.669-1.494 1.494-1.494s1.494 0.669 1.494 1.494c0 0.825-0.669 1.494-1.494 1.494s-1.494-0.669-1.494-1.494z"></path>
</svg>
