<!-- Generated by IcoMoon.io -->
<svg version="1.1" xmlns="http://www.w3.org/2000/svg" width="40" height="40" viewBox="0 0 40 40">
<title>mp-file_close-</title>
<path d="M35.827 12.484l-7.923-8.047c-0.285-0.279-0.671-0.436-1.074-0.436h-17.671c-1.66 0-3.322 1.493-3.322 2.985h-0.315v16.42c0 0.79 0.913 1.43 1.729 1.482 0.81-0.028 1.315-0.676 1.315-1.482v-14.927c0-0.824 1.312-1.493 2.152-1.493h13.067v6.007c0 1.629 1.977 2.95 3.637 2.95h5.494v13.435c0 0.824-0.050 1.493-0.892 1.493h-15.219c-0.84 0-1.522 0.669-1.522 1.493s0.682 1.493 1.522 1.493h16.779c1.66 0 2.376-1.321 2.376-2.95v-17.365c0-0.396 0.154-0.778-0.132-1.057v0zM7.359 24.899c-0.035 0-0.072-0.007-0.108-0.010-0.018 0.001-0.030 0.010-0.049 0.010h0.157zM10.903 31.341l-1.076 1.055 1.076 1.055c0.594 0.584 0.594 1.529 0 2.111-0.595 0.584-1.558 0.584-2.153 0l-1.076-1.055-1.076 1.055c-0.594 0.584-1.557 0.584-2.152 0-0.594-0.582-0.594-1.527 0-2.111l1.076-1.055-1.076-1.055c-0.594-0.584-0.594-1.529 0-2.111 0.595-0.584 1.558-0.584 2.152 0l1.076 1.055 1.078-1.055c0.594-0.584 1.557-0.584 2.152 0 0.594 0.582 0.594 1.527 0 2.111v0z"></path>
</svg>
