<!-- Generated by IcoMoon.io -->
<svg version="1.1" xmlns="http://www.w3.org/2000/svg" width="40" height="40" viewBox="0 0 40 40">
<title>mp-file_missing-2</title>
<path d="M32.8 23.267h3.2v-3.183h-3.2v3.183zM20 36h3.2v-3.183h-3.2v3.183zM26.4 36h3.2v-3.183h-3.2v3.183zM32.8 36h3.2v-3.183h-3.2v3.183zM7.2 29.466h-3.2v6.367h6.4v-3.183h-3.2v-3.183zM4 7.35h3.2v-3.183h-3.2v3.183zM32.8 29.633h3.2v-3.183h-3.2v3.183zM10.4 7.35h3.2v-3.183h-3.2v3.183zM16.8 7.35h3.2v-3.183h-3.2v3.183zM4 13.717h3.2v-3.183h-3.2v3.183zM4 26.45h3.2v-3.183h-3.2v3.183zM13.6 36h3.2v-3.183h-3.2v3.183zM26.4 4h-3.2v12.733h12.8v-3.016l-9.6-9.717zM4 20.084h3.2v-3.183h-3.2v3.183z"></path>
</svg>
