<!-- Generated by IcoMoon.io -->
<svg version="1.1" xmlns="http://www.w3.org/2000/svg" width="40" height="40" viewBox="0 0 40 40">
<title>mp-file_cpp-1</title>
<path d="M26.367 4.001h-22.366v16h3.2v-12.8h16v9.6h9.6v3.2h3.2v-5.699l-9.634-10.301zM32.8 28.167c0-0.883-0.717-1.6-1.6-1.6h-1.6v3.2h1.6c0.883 0 1.6-0.715 1.6-1.6v0zM36 28.001c0 2.651-2.149 4.8-4.8 4.8h-1.6v3.2h-3.2v-12.8h4.8c2.651 0 4.8 2.149 4.8 4.8v0zM21.6 28.167c0-0.883-0.717-1.6-1.6-1.6h-1.6v3.2h1.6c0.883 0 1.6-0.715 1.6-1.6v0zM24.8 28.001c0 2.651-2.149 4.8-4.8 4.8h-1.6v3.2h-3.2v-12.8h4.8c2.651 0 4.8 2.149 4.8 4.8v0zM10.4 23.201h3.2v3.2h-3.2c-1.768 0-3.2 1.434-3.2 3.2s1.432 3.2 3.2 3.2h3.2v3.2h-3.2c-3.534 0-6.4-2.866-6.4-6.4s2.866-6.4 6.4-6.4v0z"></path>
</svg>
