<!-- Generated by IcoMoon.io -->
<svg version="1.1" xmlns="http://www.w3.org/2000/svg" width="40" height="40" viewBox="0 0 40 40">
<title>mp-file_missing_plus-</title>
<path d="M34.545 18.626c-0.803 0-1.455 0.648-1.455 1.447s0.652 1.447 1.455 1.447c0.803 0 1.455-0.648 1.455-1.447s-0.652-1.447-1.455-1.447v0zM22.909 30.205c-0.803 0-1.455 0.648-1.455 1.447s0.652 1.447 1.455 1.447c0.803 0 1.455-0.648 1.455-1.447s-0.652-1.447-1.455-1.447v0zM28.727 30.205c-0.803 0-1.455 0.648-1.455 1.447s0.652 1.447 1.455 1.447c0.803 0 1.455-0.648 1.455-1.447s-0.652-1.447-1.455-1.447v0zM34.545 30.205c-0.803 0-1.455 0.648-1.455 1.447s0.652 1.447 1.455 1.447c0.803 0 1.455-0.648 1.455-1.447s-0.652-1.447-1.455-1.447v0zM11.273 30.053h-1.455v-1.295c0-0.799-0.652-1.447-1.455-1.447s-1.455 0.648-1.455 1.447v1.295h-1.455c-0.797 0-1.44 0.714-1.45 1.504 0.010 0.79 0.653 1.391 1.45 1.391h1.455v1.599c0 0.799 0.652 1.447 1.455 1.447s1.455-0.648 1.455-1.447v-1.599h1.455c0.803 0 1.455-0.572 1.455-1.371v-0.039c0-0.799-0.652-1.485-1.455-1.485v0zM4 31.577c0-0.007 0.004-0.013 0.004-0.020 0-0.006-0.004-0.012-0.004-0.019v0.039zM8.364 7.047c0.803 0 1.455-0.648 1.455-1.447s-0.652-1.447-1.455-1.447c-0.803 0-1.455 0.648-1.455 1.447s0.652 1.447 1.455 1.447v0zM34.545 24.415c-0.803 0-1.455 0.648-1.455 1.447s0.652 1.447 1.455 1.447c0.803 0 1.455-0.648 1.455-1.447s-0.652-1.447-1.455-1.447v0zM14.182 4.152c-0.803 0-1.455 0.648-1.455 1.447s0.652 1.447 1.455 1.447c0.803 0 1.455-0.648 1.455-1.447s-0.652-1.447-1.455-1.447v0zM20 4.152c-0.803 0-1.455 0.648-1.455 1.447s0.652 1.447 1.455 1.447c0.803 0 1.455-0.648 1.455-1.447s-0.652-1.447-1.455-1.447v0zM8.364 12.836c0.803 0 1.455-0.648 1.455-1.447s-0.652-1.447-1.455-1.447c-0.803 0-1.455 0.648-1.455 1.447s0.652 1.447 1.455 1.447v0zM8.364 24.415c0.803 0 1.455-0.648 1.455-1.447s-0.652-1.447-1.455-1.447c-0.803 0-1.455 0.648-1.455 1.447s0.652 1.447 1.455 1.447v0zM17.091 30.205c-0.803 0-1.455 0.648-1.455 1.447s0.652 1.447 1.455 1.447c0.803 0 1.455-0.648 1.455-1.447s-0.652-1.447-1.455-1.447v0zM35.574 12.412l-7.875-7.913c-0.604-0.599-1.014-0.499-1.881-0.499-0.803 0-1.455 0.8-1.455 1.599v7.237c0 1.598 1.302 2.743 2.909 2.743h7.273c0.803 0 1.455-0.496 1.455-1.295 0-0.758 0.097-1.35-0.426-1.871v0zM6.909 17.178c0-0.799 0.652-1.447 1.455-1.447s1.455 0.648 1.455 1.447c0 0.799-0.652 1.447-1.455 1.447s-1.455-0.648-1.455-1.447v0z"></path>
</svg>
