<!-- Generated by IcoMoon.io -->
<svg version="1.1" xmlns="http://www.w3.org/2000/svg" width="40" height="40" viewBox="0 0 40 40">
<title>mp-hello_internet-</title>
<path d="M4 18.4h3.2v-4.8h-3.2v4.8zM29.6 4v3.2h3.2v3.2h3.2v-6.4h-6.4zM7.2 7.2h3.2v-3.2h-6.4v6.4h3.2v-3.2zM32.8 32.8h-3.2v3.2h6.4v-6.4h-3.2v3.2zM7.2 29.6h-3.2v6.4h6.4v-3.2h-3.2v-3.2zM4 26.4h3.2v-4.8h-3.2v4.8zM32.8 26.4h3.2v-4.8h-3.2v4.8zM32.8 18.4h3.2v-4.8h-3.2v4.8zM13.6 36h4.8v-3.2h-4.8v3.2zM21.6 36h4.8v-3.2h-4.8v3.2zM21.6 7.2h4.8v-3.2h-4.8v3.2zM13.6 7.2h4.8v-3.2h-4.8v3.2zM24.8 29.6h4.8v-19.2h-4.8v19.2zM15.2 29.6h-4.8v-19.2h4.8v6.4h1.6v-6.4h4.8v19.2h-4.8v-6.4h-1.6v6.4z"></path>
</svg>
