<!-- Generated by IcoMoon.io -->
<svg version="1.1" xmlns="http://www.w3.org/2000/svg" width="57" height="40" viewBox="0 0 57 40">
<title>mp-headphones-</title>
<path d="M49.704 28.775c0.209 3.954-2.946 7.225-6.869 7.225-3.703 0-6.734-3.022-6.734-6.713v-18.434c0-1.259-1.025-2.281-2.288-2.281h-14.7c-0.75 0-1.355 0.606-1.355 1.351v19.221c0 3.787-3.079 6.857-6.879 6.857-3.923 0-7.078-3.271-6.869-7.225 0.195-3.707 3.533-6.489 7.259-6.489h1.903v-14.645c0-2.009 1.635-3.641 3.653-3.641h20.209c2.015 0 3.653 1.632 3.653 3.641v14.645h1.761c3.724 0 7.062 2.782 7.257 6.489z"></path>
</svg>
