<!-- Generated by IcoMoon.io -->
<svg version="1.1" xmlns="http://www.w3.org/2000/svg" width="40" height="40" viewBox="0 0 40 40">
<title>mp-helmet_round-</title>
<path d="M32.8 10.429c-0.918-1.226-2.005-2.312-3.229-3.229-2.672-2.002-5.978-3.2-9.571-3.2s-6.899 1.198-9.571 3.2c-3.451 2.586-4.869 5.888-6.035 9.6h15.966c2.184 0 3.726 2.006 3.037 4.078l-1.067 3.267c-0.435 1.306-1.659 2.254-3.037 2.254h-15.293v2.933c0 3.534 2.866 6.667 6.4 6.667h19.2c3.534 0 6.4-3.133 6.4-6.667v-9.333c0-3.594-1.2-6.901-3.2-9.571z"></path>
</svg>
