<!-- Generated by IcoMoon.io -->
<svg version="1.1" xmlns="http://www.w3.org/2000/svg" width="40" height="40" viewBox="0 0 40 40">
<title>mp-inbox_done-</title>
<path d="M18.869 19.258c-1.637-1.637-2.888-2.888-4.525-4.525l2.262-2.264 2.262 2.264 4.525-4.526 2.264 2.262-6.789 6.789zM31.2 20v-4.933l1.6 4.933h-1.6zM32.8 32.8h-25.6v-9.6h6.4v6.4h12.8v-6.4h6.4v9.6zM8.8 15.067v4.933h-1.6l1.6-4.933zM12 7.2h16v12.8h-4.8v6.4h-6.4v-6.4h-4.8v-12.8zM32.8 10.4h-1.6v-6.4h-22.4v6.4h-1.6l-3.2 9.467v16.133h32v-16.133l-3.2-9.467z"></path>
</svg>
