<!-- Generated by IcoMoon.io -->
<svg version="1.1" xmlns="http://www.w3.org/2000/svg" width="40" height="40" viewBox="0 0 40 40">
<title>mp-image_picture-2</title>
<path d="M23.333 17.867c0-1.768 1.434-3.2 3.2-3.2 1.768 0 3.2 1.432 3.2 3.2s-1.432 3.2-3.2 3.2c-1.766 0-3.2-1.432-3.2-3.2v0zM32.8 29.738l-6.421-6.419-0.026 0.024-0.024-0.024-2.29 2.288-7.406-7.405-0.024 0.026-0.026-0.026-9.384 9.384v-17.186h25.6v19.338zM22.171 32.8l4.182-4.182 4.184 4.182h-8.366zM17.646 32.8h-10.336l9.299-9.699 5.168 5.368-4.131 4.331zM32.8 4v3.2h-6.4v-3.2h-3.2v3.2h-6.4v-3.2h-3.2v3.2h-6.4v-3.2h-3.2v32h32v-32h-3.2z"></path>
</svg>
