<!-- Generated by IcoMoon.io -->
<svg version="1.1" xmlns="http://www.w3.org/2000/svg" width="40" height="40" viewBox="0 0 40 40">
<title>mp-inbox_paper_round-</title>
<path d="M31.2 20v-4.8l1.6 4.8h-1.6zM31.2 32.8h-22.4c-0.883 0-1.6-0.717-1.6-1.6v-8h4.8c0.883 0 1.6 0.717 1.6 1.6v1.6c0 1.768 1.432 3.2 3.2 3.2h6.4c1.768 0 3.2-1.432 3.2-3.2v-1.6c0-0.883 0.717-1.6 1.6-1.6h4.8v8c0 0.883-0.717 1.6-1.6 1.6v0zM8.8 15.2v4.8h-1.6l1.6-4.8zM13.6 7.2h12.8c0.883 0 1.6 0.717 1.6 1.6v11.2h-1.6c-1.768 0-3.2 1.432-3.2 3.2v1.6c0 0.883-0.717 1.6-1.6 1.6h-3.2c-0.883 0-1.6-0.717-1.6-1.6v-1.6c0-1.768-1.432-3.2-3.2-3.2h-1.6v-11.2c0-0.883 0.717-1.6 1.6-1.6v0zM32.8 10.4h-1.6v-3.2c0-1.768-1.432-3.2-3.2-3.2h-16c-1.768 0-3.2 1.432-3.2 3.2v3.2h-1.6l-3.2 9.6v12.8c0 1.768 1.432 3.2 3.2 3.2h25.6c1.768 0 3.2-1.432 3.2-3.2v-12.8l-3.2-9.6z"></path>
</svg>
