<!-- Generated by IcoMoon.io -->
<svg version="1.1" xmlns="http://www.w3.org/2000/svg" width="42" height="40" viewBox="0 0 42 40">
<title>mp-important_message-</title>
<path d="M22.48 12.011v11.2c0 0.883-0.753 1.6-1.68 1.6s-1.68-0.717-1.68-1.6v-11.2c0-0.883 0.753-1.6 1.68-1.6s1.68 0.717 1.68 1.6v0zM22.48 28.011c0 0.883-0.753 1.6-1.68 1.6s-1.68-0.717-1.68-1.6c0-0.883 0.753-1.6 1.68-1.6s1.68 0.717 1.68 1.6v0zM34.24 31.2c0 0.883-0.753 1.6-1.68 1.6h-23.52c-0.927 0-1.68-0.717-1.68-1.6v-22.4c0-0.883 0.753-1.6 1.68-1.6h23.52c0.927 0 1.68 0.717 1.68 1.6v22.4zM34.24 4h-26.88c-1.856 0-3.36 1.438-3.36 3.205v25.606c0 1.768 1.504 3.189 3.36 3.189h26.88c1.856 0 3.36-1.427 3.36-3.195v-25.594c0-1.768-1.68-3.211-3.36-3.211v0z"></path>
</svg>
