<!-- Generated by IcoMoon.io -->
<svg version="1.1" xmlns="http://www.w3.org/2000/svg" width="40" height="40" viewBox="0 0 40 40">
<title>mp-link_round-1</title>
<path d="M33.182 6.818c-3.757-3.757-9.85-3.757-13.607 0l-4.11 4.11 2.268 2.268 4.11-4.11c2.506-2.507 6.564-2.507 9.072 0 2.5 2.502 2.5 6.57 0 9.072l-4.11 4.11 2.268 2.268 4.11-4.11c3.757-3.757 3.757-9.85 0-13.607v0zM18.157 30.913c-1.211 1.212-2.822 1.879-4.535 1.879s-3.324-0.667-4.535-1.879c-2.502-2.5-2.502-6.57 0-9.070l4.11-4.11-2.269-2.269-4.11 4.11c-3.757 3.757-3.757 9.85 0 13.609 1.879 1.878 4.341 2.818 6.804 2.818s4.925-0.94 6.804-2.818l4.11-4.11-2.269-2.269-4.11 4.11zM23.621 14.112l2.268 2.268-9.534 9.534-2.268-2.268 9.534-9.534z"></path>
</svg>
