<!-- Generated by IcoMoon.io -->
<svg version="1.1" xmlns="http://www.w3.org/2000/svg" width="42" height="40" viewBox="0 0 42 40">
<title>mp-list-6</title>
<path d="M9.040 10.4c-0.927 0-1.68-0.717-1.68-1.6s0.753-1.6 1.68-1.6c0.927 0 1.68 0.717 1.68 1.6s-0.753 1.6-1.68 1.6zM10.72 4h-3.36c-1.856 0-3.36 1.432-3.36 3.2v3.2c0 1.768 1.504 3.2 3.36 3.2h3.36c1.856 0 3.36-1.432 3.36-3.2v-3.2c0-1.768-1.504-3.2-3.36-3.2zM9.040 21.6c-0.927 0-1.68-0.717-1.68-1.6s0.753-1.6 1.68-1.6c0.927 0 1.68 0.717 1.68 1.6s-0.753 1.6-1.68 1.6zM10.72 15.2h-3.36c-1.856 0-3.36 1.432-3.36 3.2v3.2c0 1.768 1.504 3.2 3.36 3.2h3.36c1.856 0 3.36-1.432 3.36-3.2v-3.2c0-1.768-1.504-3.2-3.36-3.2zM9.040 32.8c-0.927 0-1.68-0.717-1.68-1.6s0.753-1.6 1.68-1.6c0.927 0 1.68 0.717 1.68 1.6s-0.753 1.6-1.68 1.6zM10.72 26.4h-3.36c-1.856 0-3.36 1.432-3.36 3.2v3.2c0 1.768 1.504 3.2 3.36 3.2h3.36c1.856 0 3.36-1.432 3.36-3.2v-3.2c0-1.768-1.504-3.2-3.36-3.2zM32.56 21.6h-10.080c-0.927 0-1.68-0.717-1.68-1.6s0.753-1.6 1.68-1.6h10.080c0.927 0 1.68 0.717 1.68 1.6s-0.753 1.6-1.68 1.6zM34.24 15.2h-13.44c-1.856 0-3.36 1.432-3.36 3.2v3.2c0 1.768 1.504 3.2 3.36 3.2h13.44c1.856 0 3.36-1.432 3.36-3.2v-3.2c0-1.768-1.504-3.2-3.36-3.2zM32.56 10.4h-10.080c-0.927 0-1.68-0.717-1.68-1.6s0.753-1.6 1.68-1.6h10.080c0.927 0 1.68 0.717 1.68 1.6s-0.753 1.6-1.68 1.6zM34.24 4h-13.44c-1.856 0-3.36 1.432-3.36 3.2v3.2c0 1.768 1.504 3.2 3.36 3.2h13.44c1.856 0 3.36-1.432 3.36-3.2v-3.2c0-1.768-1.504-3.2-3.36-3.2zM32.56 32.8h-10.080c-0.927 0-1.68-0.717-1.68-1.6s0.753-1.6 1.68-1.6h10.080c0.927 0 1.68 0.717 1.68 1.6s-0.753 1.6-1.68 1.6zM34.24 26.4h-13.44c-1.856 0-3.36 1.432-3.36 3.2v3.2c0 1.768 1.504 3.2 3.36 3.2h13.44c1.856 0 3.36-1.432 3.36-3.2v-3.2c0-1.768-1.504-3.2-3.36-3.2z"></path>
</svg>
