<!-- Generated by IcoMoon.io -->
<svg version="1.1" xmlns="http://www.w3.org/2000/svg" width="40" height="40" viewBox="0 0 40 40">
<title>mp-messages_chat-</title>
<path d="M25.085 7.015c-6.864-6-17.508-2.605-19.871 6.293-0.992 3.734-0.035 5.468-0.035 8.271 0 2.881-1.18 7.054-1.18 7.054 0 0.51 0.453 1.008 1.011 0.863 1.996-0.522 5.169-1.554 8.965-0.523 12.763 3.46 20.953-13.355 11.11-21.958zM35.115 36c-0.083 0-0.169-0.011-0.256-0.034-10.090-2.533-9.413 0.313-15.019-1.187-1.697-0.453-3.241-1.27-4.573-2.329 10.183 1.247 18.67-7.624 17.168-18.071 1.538 1.6 2.666 3.581 3.144 5.8 1.358 6.298-2.089 5.232 0.396 14.804 0.146 0.56-0.35 1.016-0.859 1.016z"></path>
</svg>
