<!-- Generated by IcoMoon.io -->
<svg version="1.1" xmlns="http://www.w3.org/2000/svg" width="67" height="40" viewBox="0 0 67 40">
<title>mp-money-1</title>
<path d="M25.333 20c0-2.947 2.387-5.333 5.333-5.333s5.333 2.387 5.333 5.333c0 2.947-2.387 5.333-5.333 5.333s-5.333-2.387-5.333-5.333v0zM47.581 9.333h4.419v4.419l-4.419-4.419zM52 30.667h-4.419l4.419-4.419v4.419zM9.333 30.667v-4.419l4.419 4.419h-4.419zM9.333 9.333h4.419l-4.419 4.419v-4.419zM40.040 9.333l10.667 10.667-10.667 10.667h-18.747l-10.667-10.667 10.667-10.667h18.747zM4 36h53.333v-32h-53.333v32z"></path>
</svg>
