<!-- Generated by IcoMoon.io -->
<svg version="1.1" xmlns="http://www.w3.org/2000/svg" width="40" height="40" viewBox="0 0 40 40">
<title>mp-microphone-</title>
<path d="M27.137 29.42l-2.523-2.517c0.847-0.658 1.609-1.418 2.268-2.264l2.523 2.519-2.268 2.262zM20.727 25.533c-7.989 3.632-16.433-4.951-12.667-12.845 3.54-7.421 14.59-7.064 17.638 0.573 1.873 4.696-0.379 10.186-4.97 12.273v0zM31.673 29.42l2.269-2.262-5.373-5.36c3.986-9.368-4.515-19.601-14.454-17.527-9.344 1.949-13.323 13.556-7.145 20.812 3.591 4.218 9.678 5.672 14.796 3.504l5.371 5.359 2.268-2.262 4.327 4.317 2.268-2.262-4.327-4.317z"></path>
</svg>
