<!-- Generated by IcoMoon.io -->
<svg version="1.1" xmlns="http://www.w3.org/2000/svg" width="34" height="40" viewBox="0 0 34 40">
<title>mp-notification_bell-3</title>
<path d="M24.4 26.4h-13.6v-9.6c0-4.266 3.4-6.4 6.798-6.4h0.003c3.398 0 6.798 2.134 6.798 6.4v9.6zM19.3 31.2c0 0.883-0.762 1.6-1.7 1.6s-1.7-0.717-1.7-1.6v-1.6h3.4v1.6zM29.5 26.4c-0.938 0-1.7-0.717-1.7-1.6v-8c0-5.685-4.026-8.84-8.5-9.474v-1.726c0-0.883-0.762-1.6-1.7-1.6s-1.7 0.717-1.7 1.6v1.726c-4.474 0.634-8.5 3.789-8.5 9.474v8c0 0.883-0.762 1.6-1.7 1.6s-1.7 0.717-1.7 1.6c0 0.883 0.762 1.6 1.7 1.6h6.8v1.6c0 2.651 2.283 4.8 5.1 4.8s5.1-2.149 5.1-4.8v-1.6h6.8c0.938 0 1.7-0.717 1.7-1.6s-0.762-1.6-1.7-1.6v0z"></path>
</svg>
