<!-- Generated by IcoMoon.io -->
<svg version="1.1" xmlns="http://www.w3.org/2000/svg" width="42" height="40" viewBox="0 0 42 40">
<title>mp-new_tab-</title>
<path d="M34.24 31.618c0 0.88-0.643 1.182-1.567 1.182h-15.12c-0.924 0-1.793-0.302-1.793-1.182v-3.618h11.033c1.391 0 2.407-0.658 2.407-1.982v-10.818h3.473c0.927 0 1.567 1.134 1.567 2.018v14.4zM9.153 24.8c-0.924 0-1.793-0.302-1.793-1.182v-14.4c0-0.883 0.864-2.018 1.793-2.018h15.12c0.927 0 1.567 1.134 1.567 2.018v14.4c0 0.88-0.643 1.182-1.567 1.182h-15.12zM35.193 12h-5.993v-5.182c0-1.325-1.016-2.818-2.407-2.818h-20.16c-1.386 0-2.633 1.498-2.633 2.818v19.2c0 1.32 1.247 1.982 2.633 1.982h5.767v6.018c0 1.32 1.247 1.982 2.633 1.982h20.16c1.391 0 2.407-0.658 2.407-1.982v-19.2c0-1.325-1.016-2.818-2.407-2.818v0z"></path>
</svg>
