<!-- Generated by IcoMoon.io -->
<svg version="1.1" xmlns="http://www.w3.org/2000/svg" width="40" height="40" viewBox="0 0 40 40">
<title>mp-oil_round-</title>
<path d="M21.585 20h-7.975v-1.6c0-0.883-0.718-1.6-1.602-1.6s-1.602 0.717-1.602 1.6v1.6h-1.635c-0.884 0-1.568-0.717-1.568-1.6v-9.6c0-0.883 0.684-1.6 1.568-1.6h12.813c0.884 0 1.635 0.717 1.635 1.6v9.6c0 0.883-0.751 1.6-1.635 1.6v0zM20.017 31.2c0 0.883-0.751 1.6-1.635 1.6h-6.407c-0.884 0-1.568-0.717-1.568-1.6v-8h9.61v8zM34.398 13.6h-1.602c-1.77 0-3.203 1.6-3.203 3.2h0.018c0 4.8-1.586 9.6-6.391 9.6v-3.2c1.602 0 3.203-1.432 3.203-3.2v-12.8c0-1.768-1.467-3.2-3.237-3.2h-16.017c-1.77 0-3.17 1.432-3.17 3.2v12.8c0 1.768 1.602 3.2 3.203 3.2v9.6c0 1.768 1.4 3.2 3.17 3.2h9.61c1.77 0 3.237-1.432 3.237-3.2v-3.2c6.407 0 9.421-4.912 9.576-11.25 0.021-0.862 0.716-1.55 1.581-1.55h0.021c0.884 0 1.602-0.717 1.602-1.6s-0.718-1.6-1.602-1.6v0z"></path>
</svg>
