<!-- Generated by IcoMoon.io -->
<svg version="1.1" xmlns="http://www.w3.org/2000/svg" width="47" height="40" viewBox="0 0 47 40">
<title>mp-profile_minus_minus-</title>
<path d="M26.588 7.765h15.059v-3.765h-15.059v3.765zM8.352 32.235c1.489-4.456 5.681-7.68 10.628-7.714 0.026 0 0.051 0.008 0.079 0.008s0.053-0.008 0.079-0.008c4.949 0.034 9.143 3.256 10.632 7.714h-21.417zM19.059 13.235c2.076 0 3.765 1.688 3.765 3.765 0 2.050-1.647 3.714-3.686 3.757-0.026 0-0.053-0.004-0.079-0.004s-0.053 0.004-0.079 0.004c-2.039-0.043-3.686-1.707-3.686-3.757 0-2.076 1.688-3.765 3.765-3.765v0zM24.755 21.873c1.128-1.316 1.833-3.004 1.833-4.873 0-4.158-3.371-7.529-7.529-7.529s-7.529 3.371-7.529 7.529c0 1.869 0.706 3.558 1.833 4.873-5.491 2.242-9.363 7.62-9.363 13.92 0 0.075 0.009 0.207 0.011 0.207h30.095c0 0 0.011-0.124 0.011-0.201 0-6.298-3.872-11.682-9.363-13.926v0z"></path>
</svg>
