<!-- Generated by IcoMoon.io -->
<svg version="1.1" xmlns="http://www.w3.org/2000/svg" width="40" height="40" viewBox="0 0 40 40">
<title>mp-profile_image_zoom-</title>
<path d="M32.8 25.789c-1.6-2.278-3.906-4.005-6.624-5.026 2.186-1.76 3.669-4.296 3.669-7.32 0-2.462-0.854-4.643-2.378-6.243h5.333v18.589zM7.872 32.8c1.322-6.4 6.398-9.6 12.454-9.6s11.131 3.2 12.453 9.6h-24.907zM7.2 25.789v-18.589h5.986c-1.525 1.6-2.459 3.781-2.459 6.243 0 3.024 1.238 5.638 3.424 7.398-2.718 1.021-5.35 2.669-6.95 4.947v0zM20.326 6.886c3.528 0 6.4 2.87 6.4 6.4 0 3.528-2.872 6.4-6.4 6.4-3.53 0-6.4-2.872-6.4-6.4 0-3.53 2.87-6.4 6.4-6.4v0zM4 36h32v-32h-32v32z"></path>
</svg>
