<!-- Generated by IcoMoon.io -->
<svg version="1.1" xmlns="http://www.w3.org/2000/svg" width="80" height="40" viewBox="0 0 80 40">
<title>mp-projector-3</title>
<path d="M55.2 23.2v-6.4h3.2c1.766 0 3.2 1.434 3.2 3.2v3.2h-6.4zM48.8 26.4c0 1.766-1.434 3.2-3.2 3.2h-12.8c-1.766 0-3.2-1.434-3.2-3.2v-12.8c0-1.766 1.434-3.2 3.2-3.2h12.8c1.766 0 3.2 1.434 3.2 3.2v12.8zM23.2 23.2h-12.8v-3.2c0-1.766 1.434-3.2 3.2-3.2h9.6v6.4zM55.2 10.4c0-3.536-2.864-6.4-6.4-6.4h-19.2c-3.536 0-6.4 2.864-6.4 6.4h-12.8c-3.536 0-6.4 2.864-6.4 6.4v16c0 1.766 1.434 3.2 3.2 3.2s3.2-1.434 3.2-3.2v-3.2h12.8c0 3.536 2.864 6.4 6.4 6.4h19.2c3.536 0 6.4-2.864 6.4-6.4h6.4v3.2c0 1.766 1.434 3.2 3.2 3.2s3.2-1.434 3.2-3.2v-16c0-3.536-2.864-6.4-6.4-6.4h-6.4z"></path>
</svg>
