<!-- Generated by IcoMoon.io -->
<svg version="1.1" xmlns="http://www.w3.org/2000/svg" width="42" height="40" viewBox="0 0 42 40">
<title>mp-profile_image_favorite_round-</title>
<path d="M35.272 33.644c-3.119 2.846-3.676 3.458-7.523-0.098-5.119-4.73 0.432-9.858 3.587-5.878 0.114 0.144 0.342 0.141 0.456-0.003 3.106-3.945 8.801 1.129 3.48 5.979zM19.572 18.474c-0.859-0.070-1.113-0.058-1.841-0.004-1.98-0.424-3.47-2.176-3.47-4.269 0-2.41 1.973-4.371 4.398-4.371s4.398 1.961 4.398 4.371c0 2.098-1.497 3.854-3.484 4.274zM6.949 28.858c-0.003-0.031-0.018-0.055-0.018-0.086v-20.4c0-0.804 0.655-1.457 1.466-1.457h10.168c-4.003 0.051-7.236 3.29-7.236 7.281 0 2.106 0.912 3.99 2.347 5.319-3.657 1.689-6.296 5.183-6.727 9.343zM25.396 20.547c-0.56-0.395-1.158-0.745-1.79-1.040 1.454-1.33 2.382-3.204 2.382-5.326 0-3.991-3.232-7.216-7.236-7.267h10.167c0.809 0 1.466 0.653 1.466 1.457v13.246c0 0.733 0.597 1.326 1.334 1.326 1.111 0 1.598-0.59 1.598-1.326v-14.703c0-1.609-1.313-2.914-2.932-2.914h-23.454c-1.62 0-2.932 1.306-2.932 2.914v23.315c0 1.61 1.312 2.914 2.932 2.914h14.791c0.736 0 1.334-0.593 1.334-1.326 0-1.105-0.595-1.588-1.334-1.588h-11.896c-0.001 0-0.010-0.096-0.010-0.154 0-8.887 10.829-10.062 13.548-7.55 1.466 1.354 3.682-0.813 2.032-1.977z"></path>
</svg>
