<!-- Generated by IcoMoon.io -->
<svg version="1.1" xmlns="http://www.w3.org/2000/svg" width="40" height="40" viewBox="0 0 40 40">
<title>mp-printer-3</title>
<path d="M18.667 19.733v0c0-0.883-0.717-1.6-1.6-1.6s-1.6 0.717-1.6 1.6c0 0.883 0.717 1.6 1.6 1.6s1.6-0.717 1.6-1.6zM12.267 19.733v0c0-0.883-0.717-1.6-1.6-1.6s-1.6 0.717-1.6 1.6c0 0.883 0.717 1.6 1.6 1.6s1.6-0.717 1.6-1.6zM32.8 16.866v12.734h-1.6v-6.4h-22.4v6.4h-1.6v-12.8h25.6v0.066zM12 32.8v-6.4h16v6.4h-16zM10.4 13.6v-6.4h19.2v6.4h-19.2zM32.8 13.6v-9.6h-25.6v9.6h-3.2v19.2h4.8v3.2h22.4v-3.2h4.8v-19.2h-3.2z"></path>
</svg>
