<!-- Generated by IcoMoon.io -->
<svg version="1.1" xmlns="http://www.w3.org/2000/svg" width="40" height="40" viewBox="0 0 40 40">
<title>mp-profile_image_plus_round-</title>
<path d="M36 31.571c0 0.801-0.652 1.451-1.455 1.451h-1.455v1.527c0 0.801-0.652 1.451-1.455 1.451s-1.455-0.65-1.455-1.451v-1.527h-1.455c-0.803 0-1.455-0.65-1.455-1.451s0.652-1.451 1.455-1.451h1.455v-1.376c0-0.801 0.652-1.451 1.455-1.451s1.455 0.65 1.455 1.451v1.376h1.455c0.803 0 1.455 0.65 1.455 1.451zM19.452 18.414c-0.314-0.026-0.63-0.048-0.951-0.048-0.295 0-0.585 0.022-0.874 0.044-1.965-0.422-3.444-2.166-3.444-4.252 0-2.4 1.958-4.353 4.364-4.353s4.364 1.953 4.364 4.353c0 2.090-1.485 3.838-3.457 4.256zM6.935 28.669c-0.020 0.007-0.006 0.001-0.026 0.009v-20.333c0-0.801 0.652-1.442 1.455-1.442h9.959c-3.913 0.119-7.050 3.319-7.050 7.251 0 2.095 0.905 3.972 2.33 5.297-3.604 1.669-6.211 5.114-6.668 9.219zM25.677 12.692c-0.596-3.062-3.305-5.744-7.036-5.79h10.086c0.803 0 1.455 0.65 1.455 1.451v13.060c0 0.801 0.652 1.451 1.455 1.451s1.455-0.65 1.455-1.451v-14.511c0-1.603-1.302-2.902-2.909-2.902h-23.273c-1.607 0-2.909 1.299-2.909 2.902v23.218c0 1.602 1.302 2.902 2.909 2.902h14.545c0.803 0 1.455-0.65 1.455-1.451s-0.652-1.451-1.455-1.451h-11.673c-0.001 0-0.009-0.096-0.009-0.155 0-8.849 10.743-10.019 13.441-7.517 1.561 1.447 3.584-0.859 2.016-1.969-0.556-0.395-1.149-0.741-1.776-1.036 1.766-1.621 2.748-4.050 2.223-6.751z"></path>
</svg>
