<!-- Generated by IcoMoon.io -->
<svg version="1.1" xmlns="http://www.w3.org/2000/svg" width="42" height="40" viewBox="0 0 42 40">
<title>mp-plus-2</title>
<path d="M22.48 13.6h-3.36v4.8h-5.040v3.2h5.040v4.8h3.36v-4.8h5.040v-3.2h-5.040v-4.8zM34.24 26.4h3.36v-12.8h-3.36v12.8zM34.24 32.8h-3.36v3.2h6.72v-6.4h-3.36v3.2zM30.88 4v3.2h3.36v3.2h3.36v-6.4h-6.72zM4 26.4h3.36v-12.8h-3.36v12.8zM7.36 29.6h-3.36v6.4h6.72v-3.2h-3.36v-3.2zM4 4v6.4h3.36v-3.2h3.36v-3.2h-6.72zM14.080 36h13.44v-3.2h-13.44v3.2zM14.080 7.2h13.44v-3.2h-13.44v3.2z"></path>
</svg>
