<!-- Generated by IcoMoon.io -->
<svg version="1.1" xmlns="http://www.w3.org/2000/svg" width="50" height="40" viewBox="0 0 50 40">
<title>mp-previous-</title>
<path d="M38.506 21.072c-9.956 7.158-6.698 4.816-14.278 10.266-0.652 0.466-2.228 0.108-2.228-0.806v-20.532c0-0.86 1.43-1.262 2.066-0.804 7.488 5.308 4.272 3.016 14.41 10.264 0.592 0.426 0.56 1.232 0.030 1.612v0zM18 25.598c-2.334 1.824-0.8 0.668-7.64 5.722-0.666 0.478-2.36 0.118-2.36-0.816v-20.474c0-0.874 1.642-1.286 2.292-0.818 6.782 5.054 5.224 3.886 7.708 5.768v10.618zM42 4c-1.104 0-2 0.896-2 2v9.6l-7.424-5.334c-6.128-4.404-6.774-5.266-9.236-5.266-2.558 0-5.26 2.004-5.328 4.894-5.206-3.848-6.016-4.88-8.604-4.88-2.598 0-5.408 2.058-5.408 5.016v20.474c0 3.992 5.262 6.48 8.626 4.066l5.378-4.008c0.026 3.97 5.048 6.428 8.396 4.024 7.486-5.308 4.386-3.098 13.6-9.688v9.102c0 1.104 0.896 2 2 2s2-0.896 2-2v-28c0-1.104-0.896-2-2-2v0z"></path>
</svg>
