<!-- Generated by IcoMoon.io -->
<svg version="1.1" xmlns="http://www.w3.org/2000/svg" width="40" height="40" viewBox="0 0 40 40">
<title>mp-profile_image_favorite_round-1</title>
<path d="M34.109 31.657c-0.246 0.242-0.358 0.589-0.3 0.93l0.371 2.181c0.116 0.68-0.421 1.232-1.029 1.232-0.16 0-0.326-0.039-0.486-0.124l-1.946-1.030c-0.152-0.081-0.319-0.121-0.486-0.121s-0.333 0.040-0.486 0.121l-1.946 1.030c-0.16 0.085-0.326 0.124-0.486 0.124-0.608 0-1.143-0.552-1.029-1.232l0.373-2.181c0.058-0.341-0.055-0.688-0.301-0.93l-1.574-1.545c-0.62-0.609-0.278-1.668 0.579-1.794l2.176-0.318c0.34-0.049 0.634-0.264 0.786-0.574l0.972-1.985c0.192-0.391 0.565-0.585 0.936-0.585 0.373 0 0.744 0.195 0.936 0.585l0.973 1.985c0.152 0.31 0.445 0.526 0.786 0.574l2.175 0.318c0.856 0.125 1.199 1.185 0.579 1.794l-1.574 1.545zM18.669 17.81c-0.3-0.025-0.599-0.046-0.904-0.046-0.28 0-0.555 0.021-0.83 0.042-1.865-0.406-3.27-2.076-3.27-4.074 0-2.3 1.859-4.171 4.142-4.171s4.142 1.871 4.142 4.171c0 2.002-1.41 3.677-3.281 4.078v0zM6.778 27.718c-0.001-0.029-0.017-0.053-0.017-0.082v-19.465c0-0.767 0.619-1.39 1.381-1.39h9.577c-3.771 0.049-6.816 3.138-6.816 6.948 0 2.008 0.859 3.805 2.212 5.075-3.445 1.61-5.93 4.945-6.338 8.915v0zM24.155 19.789c-0.529-0.378-1.092-0.71-1.687-0.993 1.371-1.271 2.244-3.057 2.244-5.082 0-3.808-3.045-6.885-6.816-6.934h9.577c0.762 0 1.381 0.623 1.381 1.39v12.638c0 0.698 0.563 1.265 1.256 1.265 1.047 0 1.505-0.564 1.505-1.265v-14.029c0-1.536-1.236-2.781-2.762-2.781h-22.093c-1.524 0-2.762 1.244-2.762 2.781v22.245c0 1.535 1.237 2.781 2.762 2.781h13.932c0.695 0 1.256-0.567 1.256-1.265 0-1.054-0.561-1.515-1.256-1.515h-11.205c-0.001 0-0.008-0.092-0.008-0.149 0-4.303 3.254-7.848 7.415-8.286 0.302 0.040 0.601 0.093 0.913 0.093 0.296 0 0.576-0.088 0.86-0.124 1.309 0.143 2.52 0.129 3.572 1.115 1.381 1.29 3.469-0.776 1.915-1.887v0z"></path>
</svg>
