<!-- Generated by IcoMoon.io -->
<svg version="1.1" xmlns="http://www.w3.org/2000/svg" width="27" height="40" viewBox="0 0 27 40">
<title>mp-road_mini-</title>
<path d="M7.556 32.444v-24.889h14.222v24.889h-14.222zM4 36h21.333v-32h-21.333v32zM14.667 14.667v0c-0.981 0-1.778-0.796-1.778-1.778s0.796-1.778 1.778-1.778c0.981 0 1.778 0.796 1.778 1.778s-0.796 1.778-1.778 1.778zM14.667 18.222v0c0.981 0 1.778 0.796 1.778 1.778s-0.796 1.778-1.778 1.778c-0.981 0-1.778-0.796-1.778-1.778s0.796-1.778 1.778-1.778zM16.444 27.111v0c0-0.981-0.796-1.778-1.778-1.778s-1.778 0.796-1.778 1.778c0 0.981 0.796 1.778 1.778 1.778s1.778-0.796 1.778-1.778z"></path>
</svg>
