<!-- Generated by IcoMoon.io -->
<svg version="1.1" xmlns="http://www.w3.org/2000/svg" width="40" height="40" viewBox="0 0 40 40">
<title>mp-rss_missing_plus-</title>
<path d="M30.182 24.364h2.909v-11.636h-2.909v11.636zM33.091 30.182v-2.909h-2.909v2.909h-2.909v2.909h2.909v2.909h2.909v-2.909h2.909v-2.909h-2.909zM30.182 9.818h2.909v-5.818h-5.818v2.909h2.909v2.909zM4 24.364h2.909v-11.636h-2.909v11.636zM6.909 27.273h-2.909v5.818h5.818v-2.909h-2.909v-2.909zM4 4v5.818h2.909v-2.909h2.909v-2.909h-5.818zM12.727 33.091h11.636v-2.909h-11.636v2.909zM12.727 6.909h11.636v-2.909h-11.636v2.909zM11.273 23.056v2.909h2.909c0-1.606-1.302-2.909-2.909-2.909v0zM17.299 25.818h2.909c0-4.364-4.572-8.58-8.935-8.58v2.909c2.909 0 6.026 2.762 6.026 5.671v0zM26.026 25.818h-2.909c0-5.818-6.026-11.489-11.844-11.489v-2.909c7.273 0 14.753 5.671 14.753 14.399v0z"></path>
</svg>
