<!-- Generated by IcoMoon.io -->
<svg version="1.1" xmlns="http://www.w3.org/2000/svg" width="40" height="40" viewBox="0 0 40 40">
<title>mp-rss-2</title>
<path d="M4.045 29.447v3.208c0 1.771 1.44 3.208 3.213 3.208h3.213c0-3.544-2.876-6.415-6.427-6.415zM4 16.617v6.415c7.089 0 12.854 6.553 12.854 12.968h6.427c0-9.623-8.631-19.383-19.281-19.383zM35.98 32.327c0.212 1.915-1.285 3.673-3.213 3.673h-3.014c0-12.83-12.899-25.798-25.752-25.798v-3.009c0-1.924 1.716-3.387 3.631-3.172 14.865 1.658 26.687 13.472 28.349 28.306z"></path>
</svg>
