<!-- Generated by IcoMoon.io -->
<svg version="1.1" xmlns="http://www.w3.org/2000/svg" width="40" height="40" viewBox="0 0 40 40">
<title>mp-ruler3</title>
<path d="M14.286 25.714c0.632 0.632 0.632 1.655 0 2.285-0.632 0.632-1.655 0.632-2.285 0-0.632-0.63-0.632-1.653 0-2.285 0.63-0.632 1.653-0.632 2.285 0v0zM29.142 15.428l-2.285-2.285-2.285 2.285 2.285 2.285-2.285 2.285-2.285-2.285-2.285 2.285 2.285 2.287-2.285 2.285-2.287-2.285-2.285 2.285 2.285 2.285-4.571 4.572-4.572-4.572 18.286-18.286 4.572 4.572-2.287 2.285zM33.715 10.858l-6.858-6.858-22.857 22.857 9.143 9.143 22.857-22.857-2.285-2.285z"></path>
</svg>
