<!-- Generated by IcoMoon.io -->
<svg version="1.1" xmlns="http://www.w3.org/2000/svg" width="40" height="40" viewBox="0 0 40 40">
<title>mp-shaded-2</title>
<path d="M18.595 32.719c-1.261-0.138-2.467-0.456-3.59-0.934l16.779-16.779c0.478 1.123 0.797 2.33 0.934 3.59l-14.123 14.123zM23.55 32.288l8.738-8.738c-1.216 4.205-4.531 7.52-8.738 8.738v0zM12.164 30.1c-0.846-0.659-1.605-1.418-2.264-2.264l17.936-17.934c0.845 0.658 1.605 1.418 2.262 2.262l-17.934 17.936zM8.216 24.996c-0.478-1.123-0.797-2.33-0.934-3.59l14.123-14.123c1.261 0.138 2.467 0.456 3.59 0.934l-16.779 16.779zM16.449 7.712l-8.738 8.736c1.218-4.205 4.533-7.52 8.738-8.736v0zM35.992 19.847c-0.013-1.376-0.21-2.704-0.549-3.976-0.306-1.142-0.725-2.237-1.262-3.264-0.507-0.971-1.106-1.888-1.794-2.731-0.677-0.827-1.435-1.586-2.262-2.262-0.843-0.688-1.76-1.286-2.731-1.795-1.027-0.536-2.122-0.955-3.264-1.261-1.272-0.339-2.602-0.536-3.976-0.549-0.051-0.002-0.102-0.008-0.154-0.008-8.837 0-16 7.163-16 16 0 0.051 0.008 0.101 0.008 0.152 0.013 1.376 0.211 2.704 0.55 3.976 0.304 1.144 0.723 2.238 1.261 3.264 0.507 0.973 1.106 1.89 1.794 2.731 0.678 0.827 1.435 1.586 2.264 2.262 0.842 0.69 1.758 1.288 2.731 1.795 1.026 0.538 2.12 0.957 3.264 1.261 1.272 0.339 2.6 0.538 3.974 0.55 0.053 0 0.102 0.008 0.154 0.008 8.837 0 16-7.163 16-16 0-0.053-0.006-0.102-0.008-0.154v0z"></path>
</svg>
