<!-- Generated by IcoMoon.io -->
<svg version="1.1" xmlns="http://www.w3.org/2000/svg" width="40" height="40" viewBox="0 0 40 40">
<title>mp-sign_round-1</title>
<path d="M23.2 18.329c0 0.879-0.717 1.592-1.6 1.592h-9.6c-0.883 0-1.6-0.713-1.6-1.592s0.717-1.592 1.6-1.592h9.6c0.883 0 1.6 0.713 1.6 1.592v0zM26.4 21.513c0 0.879-0.717 1.592-1.6 1.592h-16c-0.883 0-1.6-0.713-1.6-1.592v-6.368c0-0.879 0.717-1.592 1.6-1.592h16c0.883 0 1.6 0.713 1.6 1.592v6.368zM13.6 10.368h6.4v-3.184h-6.4v3.184zM32.8 4h-27.2c-0.883 0-1.6 0.713-1.6 1.592s0.717 1.592 1.6 1.592h4.8v3.184h-3.2c-1.768 0-3.2 1.584-3.2 3.342v9.553c0 1.759 1.432 3.027 3.2 3.027h19.2c1.768 0 3.2-1.267 3.2-3.027v-9.553c0-1.758-1.432-3.342-3.2-3.342h-3.2v-3.184h7.995c0.886 0 1.605 0.872 1.605 1.756v25.468c0 0.88 0.717 1.592 1.6 1.592s1.6-0.712 1.6-1.592v-27.066c0-1.758-1.432-3.342-3.2-3.342v0z"></path>
</svg>
