<!-- Generated by IcoMoon.io -->
<svg version="1.1" xmlns="http://www.w3.org/2000/svg" width="44" height="40" viewBox="0 0 44 40">
<title>mp-sunset-1</title>
<path d="M31.815 16.587l3.771-3.771c0.695-0.695 0.695-1.82 0-2.516v0c-0.693-0.693-1.819-0.693-2.514 0l-3.771 3.772c-0.695 0.693-0.695 1.819 0 2.514 0.693 0.695 1.819 0.695 2.514 0v0zM21.778 12.889v0c0.981 0 1.778-0.796 1.778-1.778v-5.333c0-0.983-0.796-1.778-1.778-1.778v0c-0.983 0-1.778 0.795-1.778 1.778v5.333c0 0.981 0.795 1.778 1.778 1.778v0zM11.739 16.587c0.695 0.695 1.82 0.695 2.514 0 0.695-0.695 0.695-1.82 0-2.514l-3.771-3.772c-0.695-0.693-1.82-0.693-2.514 0v0c-0.695 0.695-0.695 1.82 0 2.516l3.771 3.771zM30.667 32.096c0-4.901-3.988-8.679-8.889-8.679s-8.889 3.847-8.889 8.748c0 0.19 0.044 0.279 0.055 0.279h17.666c0.012 0 0.057-0.158 0.057-0.348v0zM39.556 34.222c0 0.981-0.796 1.778-1.778 1.778h-32c-0.983 0-1.778-0.796-1.778-1.778 0-0.983 0.795-1.778 1.778-1.778h3.582c-0.007 0-0.027-0.16-0.027-0.348 0-6.731 5.342-12.012 12.020-12.229 4.558-0.146 8.697 2.526 10.86 6.542 2.283 4.238 2.018 6.036 1.98 6.036h3.584c0.981 0 1.778 0.795 1.778 1.778v0zM28.889 32.436c-1.778 0.005 0-0.009 0-0.020v0.020z"></path>
</svg>
