<!-- Generated by IcoMoon.io -->
<svg version="1.1" xmlns="http://www.w3.org/2000/svg" width="73" height="40" viewBox="0 0 73 40">
<title>mp-soundcloud-</title>
<path d="M28.977 35.267v-29.174c0-0.928 0.279-1.484 0.84-1.662 9.345-2.21 18.786 4.31 19.644 14.132 9.136-3.858 17.079 7.767 9.999 14.748-1.794 1.769-3.946 2.653-6.455 2.653l-23.543-0.026c-0.311-0.104-0.486-0.426-0.486-0.671v0zM22.644 34.409c0 2.109 4.007 2.135 4.007 0v-28.067c0-2.656-4.007-2.645-4.007 0v28.067zM16.421 34.409c0 2.060 4.004 2.141 4.004 0v-16.543c0-2.656-4.004-2.645-4.004 0v16.543zM10.222 33.55c0 2.12 3.981 2.155 3.981 0v-18.125c0-2.567-3.981-2.599-3.981 0v18.125zM4 30.225c0 2.475 3.978 3.1 3.978 0v-7.776c0-2.633-3.978-2.61-3.978 0v7.776z"></path>
</svg>
