<!-- Generated by IcoMoon.io -->
<svg version="1.1" xmlns="http://www.w3.org/2000/svg" width="44" height="40" viewBox="0 0 44 40">
<title>mp-sunset-</title>
<path d="M36.844 11.559l-2.514-2.514-6.286 6.284 2.514 2.516 6.286-6.286zM20 12.889h3.556v-8.889h-3.556v8.889zM15.511 15.33l-6.286-6.284-2.514 2.514 6.286 6.286 2.514-2.516zM30.667 32.098c0-4.901-3.988-8.681-8.889-8.681s-8.889 3.849-8.889 8.75c0 0.19 0.044 0.277 0.057 0.277h17.666c0.011 0 0.055-0.156 0.055-0.347v0zM39.556 32.444v3.556h-35.556v-3.556h5.362c-0.009 0-0.028-0.16-0.028-0.347 0-6.873 5.572-12.236 12.444-12.236s12.444 5.433 12.444 12.306c0 0.187-0.020 0.277-0.028 0.277h5.362zM28.889 32.437c-1.778 0.004 0-0.009 0-0.021v0.021z"></path>
</svg>
