<!-- Generated by IcoMoon.io -->
<svg version="1.1" xmlns="http://www.w3.org/2000/svg" width="40" height="40" viewBox="0 0 40 40">
<title>mp-sunset-2</title>
<path d="M26.772 15.566c-0.626-0.639-0.626-1.673 0-2.31l3.394-3.467c0.626-0.637 1.638-0.637 2.264 0v0c0.624 0.639 0.624 1.673 0 2.312l-3.395 3.465c-0.624 0.639-1.637 0.639-2.262 0v0zM18.401 10.534v-4.901c0-0.903 0.715-1.634 1.6-1.634 0.883 0 1.6 0.73 1.6 1.634v4.901c0 0.902-0.717 1.634-1.6 1.634-0.885 0-1.6-0.732-1.6-1.634v0zM7.572 12.101c-0.626-0.639-0.626-1.673 0-2.312v0c0.626-0.637 1.638-0.637 2.262 0l3.395 3.467c0.624 0.637 0.624 1.671 0 2.31-0.626 0.639-1.638 0.639-2.264 0l-3.394-3.465zM27.979 30.355c-5.331-1.331-10.626-1.331-15.957 0-0.005-0.074-0.021-0.144-0.021-0.217 0-4.504 3.589-8.168 8-8.168s8 3.664 8 8.168c0 0.074-0.018 0.144-0.022 0.217v0zM35.089 32.894c-1.328-0.619-2.651-1.153-3.971-1.609 0.725-6.768-4.539-12.582-11.117-12.582-6.589 0-11.842 5.825-11.117 12.582-1.32 0.456-2.643 0.99-3.971 1.609-0.821 0.382-1.146 1.408-0.736 2.228 0.394 0.787 1.32 1.090 2.109 0.724 9.272-4.309 18.158-4.309 27.43 0 0.789 0.366 1.715 0.064 2.107-0.724 0.41-0.82 0.085-1.846-0.734-2.228v0z"></path>
</svg>
