<!-- Generated by IcoMoon.io -->
<svg version="1.1" xmlns="http://www.w3.org/2000/svg" width="32" height="40" viewBox="0 0 32 40">
<title>mp-spaceship-2</title>
<path d="M18.307 21.701c0 0.883-0.72 1.6-1.607 1.6s-1.607-0.717-1.607-1.6c0-0.883 0.72-1.6 1.607-1.6s1.607 0.717 1.607 1.6zM18.307 28.101c0 0.883-0.72 1.6-1.607 1.6s-1.607-0.717-1.607-1.6c0-0.883 0.72-1.6 1.607-1.6s1.607 0.717 1.607 1.6zM20.013 12.267c0 1.768-1.438 3.2-3.213 3.2v0c-1.774 0-3.213-1.432-3.213-3.2 0-1.766 1.439-3.2 3.213-3.2v0c1.775 0 3.213 1.434 3.213 3.2zM16.756 32.8c-4.13 0-7.901-2.734-9.173-6.648-1.269-3.901 0.191-8.173 3.367-10.592 0.88-0.67 1.203-1.782 1.059-2.877-0.36-2.714 1.75-5.483 4.747-5.483 2.996 0 5.106 2.77 4.747 5.483-0.145 1.094 0.177 2.206 1.057 2.877 3.178 2.419 4.636 6.691 3.369 10.592-1.272 3.914-5.043 6.648-9.173 6.648zM25.305 13.659c-0.384-0.342-0.577-0.829-0.556-1.344 0.172-4.426-3.416-8.315-7.993-8.315s-8.166 3.891-7.993 8.318c0.019 0.512-0.174 0.998-0.557 1.341-6.791 6.045-5.218 17.733 3.698 21.4 4.718 1.939 10.298 0.787 13.905-2.813 5.592-5.581 4.635-14.002-0.504-18.587z"></path>
</svg>
