<!-- Generated by IcoMoon.io -->
<svg version="1.1" xmlns="http://www.w3.org/2000/svg" width="40" height="40" viewBox="0 0 40 40">
<title>mp-Shape-1-copy-55-</title>
<path d="M36 20c0 0.883-0.717 1.6-1.6 1.6h-28.8c-0.883 0-1.6-0.717-1.6-1.6s0.717-1.6 1.6-1.6h28.8c0.883 0 1.6 0.717 1.6 1.6v0zM29.6 31.2c0 0.883-0.717 1.6-1.6 1.6h-16c-0.883 0-1.6-0.717-1.6-1.6v-1.6c0-0.883 0.717-1.6 1.6-1.6h16c0.883 0 1.6 0.717 1.6 1.6v1.6zM29.6 24.8h-19.2c-1.766 0-3.2 1.432-3.2 3.2v4.8c0 1.768 1.434 3.2 3.2 3.2h19.2c1.768 0 3.2-1.432 3.2-3.2v-4.8c0-1.768-1.432-3.2-3.2-3.2v0zM10.4 8.8c0-0.883 0.717-1.6 1.6-1.6h16c0.883 0 1.6 0.717 1.6 1.6v1.6c0 0.883-0.717 1.6-1.6 1.6h-16c-0.883 0-1.6-0.717-1.6-1.6v-1.6zM8.8 15.2h20.8c1.768 0 3.2-1.432 3.2-3.2v-4.8c0-1.768-1.432-3.2-3.2-3.2h-19.2c-1.766 0-3.2 1.432-3.2 3.2v6.4c0 0.883 0.717 1.6 1.6 1.6v0z"></path>
</svg>
