<!-- Generated by IcoMoon.io -->
<svg version="1.1" xmlns="http://www.w3.org/2000/svg" width="40" height="40" viewBox="0 0 40 40">
<title>mp-sun_star-</title>
<path d="M8.686 10.949c-0.626-0.626-0.626-1.638 0-2.262 0.626-0.626 1.638-0.626 2.262 0 0.626 0.624 0.626 1.637 0 2.262-0.624 0.626-1.637 0.626-2.262 0zM31.314 29.051c0.626 0.624 0.626 1.637 0 2.262-0.624 0.624-1.638 0.624-2.262 0-0.626-0.626-0.626-1.638 0-2.262 0.624-0.626 1.638-0.626 2.262 0zM10.949 29.051c0.626 0.624 0.626 1.637 0 2.262-0.624 0.624-1.637 0.624-2.262 0-0.626-0.626-0.626-1.638 0-2.262 0.626-0.626 1.638-0.626 2.262 0zM31.314 8.686c0.626 0.624 0.626 1.637 0 2.262-0.624 0.626-1.638 0.626-2.262 0-0.626-0.626-0.626-1.638 0-2.262 0.624-0.626 1.638-0.626 2.262 0zM7.2 20c0 0.883-0.717 1.6-1.6 1.6s-1.6-0.717-1.6-1.6c0-0.883 0.717-1.6 1.6-1.6s1.6 0.717 1.6 1.6zM36 20c0 0.883-0.717 1.6-1.6 1.6s-1.6-0.717-1.6-1.6c0-0.883 0.717-1.6 1.6-1.6s1.6 0.717 1.6 1.6zM21.6 34.4c0 0.883-0.717 1.6-1.6 1.6s-1.6-0.717-1.6-1.6c0-0.883 0.717-1.6 1.6-1.6s1.6 0.717 1.6 1.6zM18.4 5.6c0-0.883 0.717-1.6 1.6-1.6s1.6 0.717 1.6 1.6c0 0.883-0.717 1.6-1.6 1.6s-1.6-0.717-1.6-1.6zM20 28c-4.411 0-8-3.589-8-8s3.589-8 8-8c4.411 0 8 3.589 8 8s-3.589 8-8 8zM20 8.8c-6.186 0-11.2 5.014-11.2 11.2s5.014 11.2 11.2 11.2c6.186 0 11.2-5.014 11.2-11.2s-5.014-11.2-11.2-11.2z"></path>
</svg>
