<!-- Generated by IcoMoon.io -->
<svg version="1.1" xmlns="http://www.w3.org/2000/svg" width="50" height="40" viewBox="0 0 50 40">
<title>mp-squarespace-</title>
<path d="M41.739 14.51c-3.014-3.032-7.902-3.032-10.916 0l-12.282 12.354c-0.754 0.756-0.754 1.986 0 2.744s1.976 0.758 2.73 0l12.28-12.352c1.506-1.517 3.952-1.517 5.458 0 1.508 1.515 1.508 3.973 0 5.49l-12.044 12.115c1.506 1.515 3.95 1.515 5.458 0l9.316-9.371c3.014-3.032 3.014-7.949 0-10.98zM37.645 18.628c-0.754-0.758-1.976-0.758-2.73 0l-12.28 12.352c-1.508 1.517-3.952 1.517-5.458 0-0.754-0.758-1.976-0.758-2.73 0s-0.754 1.988 0 2.744c3.014 3.034 7.902 3.034 10.918 0l12.28-12.352c0.754-0.756 0.754-1.988 0-2.744zM33.551 6.274c-3.014-3.032-7.902-3.032-10.916 0l-12.282 12.354c-0.752 0.756-0.752 1.988 0 2.744 0.754 0.758 1.976 0.758 2.73 0l12.282-12.352c1.506-1.517 3.95-1.517 5.456 0 0.754 0.758 1.976 0.758 2.73 0s0.754-1.988 0-2.746zM29.457 10.392c-0.754-0.758-1.976-0.758-2.728 0l-12.282 12.354c-1.508 1.515-3.95 1.515-5.458 0-1.508-1.517-1.508-3.975 0-5.492l12.046-12.115c-1.508-1.517-3.952-1.517-5.46 0l-9.316 9.371c-3.012 3.032-3.012 7.949 0 10.98 3.016 3.034 7.902 3.034 10.918 0l12.28-12.352c0.754-0.758 0.754-1.988 0-2.746z"></path>
</svg>
