<!-- Generated by IcoMoon.io -->
<svg version="1.1" xmlns="http://www.w3.org/2000/svg" width="57" height="40" viewBox="0 0 57 40">
<title>mp-toggle_button_round-1</title>
<path d="M26.19 19.845c0-3.787 3.070-6.857 6.857-6.857s6.857 3.070 6.857 6.857c0 3.787-3.070 6.857-6.857 6.857s-6.857-3.070-6.857-6.857v0zM19.735 8.571h13.714c6.302 0 11.429 5.127 11.429 11.429s-5.127 11.429-11.429 11.429h-13.714c-6.302 0-11.429-5.127-11.429-11.429s5.127-11.429 11.429-11.429v0zM49.714 20c0-8.837-7.163-16-16-16h-13.714c-8.837 0-16 7.163-16 16v0c0 8.837 7.163 16 16 16h13.714c8.837 0 16-7.163 16-16v0z"></path>
</svg>
