<!-- Generated by IcoMoon.io -->
<svg version="1.1" xmlns="http://www.w3.org/2000/svg" width="50" height="40" viewBox="0 0 50 40">
<title>mp-twitter-</title>
<path d="M16.58 36c15.094 0 23.35-12.313 23.35-22.989 0-0.351 0-0.699-0.024-1.046 1.606-1.142 2.992-2.56 4.094-4.182-1.496 0.654-3.086 1.083-4.712 1.272 1.712-1.010 2.994-2.597 3.608-4.47-1.612 0.941-3.374 1.605-5.212 1.961-3.108-3.253-8.306-3.41-11.612-0.351-2.13 1.973-3.036 4.915-2.374 7.721-6.598-0.327-12.746-3.395-16.914-8.441-2.178 3.692-1.064 8.414 2.542 10.785-1.306-0.037-2.584-0.384-3.726-1.010v0.102c0.002 3.846 2.756 7.158 6.584 7.92-1.208 0.325-2.476 0.372-3.704 0.138 1.074 3.292 4.156 5.547 7.666 5.612-2.906 2.249-6.496 3.47-10.192 3.466-0.652-0.002-1.304-0.039-1.954-0.116 3.754 2.371 8.12 3.629 12.58 3.623z"></path>
</svg>
