<!-- Generated by IcoMoon.io -->
<svg version="1.1" xmlns="http://www.w3.org/2000/svg" width="40" height="40" viewBox="0 0 40 40">
<title>mp-tenis-1</title>
<path d="M32.726 18.843c-0.259-2.882-1.486-5.693-3.688-7.894-2.142-2.142-4.912-3.427-7.894-3.693-0.101 0.818-0.267 1.627-0.493 2.426l1.667 0.778c0.802 0.373 1.147 1.325 0.774 2.126-0.374 0.8-1.326 1.147-2.126 0.773l-1.501-0.699c-0.437 0.845-0.955 1.658-1.554 2.43l1.23 1.23c0.626 0.626 0.626 1.638 0 2.264v0c-0.624 0.624-1.637 0.624-2.262 0l-1.168-1.17c-0.914 0.787-1.896 1.445-2.925 1.989l0.592 1.627c0.302 0.83-0.125 1.747-0.955 2.050s-1.749-0.125-2.051-0.955l-0.547-1.504c-0.846 0.248-1.707 0.427-2.578 0.534 0.259 2.883 1.486 5.693 3.688 7.894 2.142 2.144 4.912 3.427 7.894 3.693 0.109-0.885 0.294-1.762 0.55-2.622l-1.696-0.79c-0.802-0.373-1.147-1.325-0.774-2.126 0.374-0.802 1.326-1.147 2.126-0.774l1.568 0.731c0.541-1.014 1.19-1.984 1.968-2.885l-1.248-1.246c-0.626-0.626-0.626-1.638 0-2.264v0c0.624-0.624 1.638-0.624 2.262 0l1.31 1.31c0.755-0.586 1.55-1.096 2.378-1.526l-0.651-1.79c-0.302-0.83 0.125-1.749 0.955-2.051v0c0.83-0.302 1.749 0.126 2.051 0.957l0.614 1.686c0.814-0.234 1.645-0.403 2.482-0.507v0zM32.598 22.091c-2.621 0.43-5.038 1.65-6.954 3.565-1.963 1.963-3.141 4.41-3.56 6.96 2.621-0.43 5.038-1.651 6.954-3.566 1.962-1.962 3.141-4.41 3.56-6.958v0zM7.376 17.907c0.565-0.093 1.115-0.238 1.659-0.405 0.298-0.090 0.586-0.206 0.875-0.318 1.634-0.63 3.146-1.566 4.421-2.842 1.962-1.962 3.141-4.41 3.56-6.96-2.621 0.43-5.040 1.651-6.955 3.566-1.962 1.962-3.141 4.41-3.56 6.958v0zM35.928 18.766l-0.075 3.197c-0.421 3.418-1.928 6.726-4.552 9.35-2.622 2.621-5.93 4.128-9.344 4.55l-3.203 0.077c-3.674-0.283-7.27-1.818-10.080-4.627-2.81-2.811-4.344-6.406-4.627-10.082l0.077-3.197c0.421-3.418 1.928-6.726 4.55-9.35 2.622-2.621 5.93-4.128 9.346-4.549l3.202-0.078c3.674 0.283 7.27 1.818 10.080 4.627 2.811 2.811 4.346 6.406 4.627 10.082v0zM9.035 17.502c0.298-0.090 0.586-0.206 0.875-0.318l-0.875 0.318zM19.987 4c-0.658 0-1.315 0.054-1.968 0.136l3.202-0.078c-0.411-0.030-0.822-0.058-1.234-0.058v0zM4.046 21.232l0.077-3.197c-0.131 1.062-0.158 2.131-0.077 3.197v0zM35.928 18.766l-0.075 3.197c0.13-1.061 0.158-2.131 0.075-3.197v0zM18.753 35.941l3.203-0.077c-0.654 0.080-1.31 0.136-1.97 0.136-0.411 0-0.822-0.027-1.234-0.059v0z"></path>
</svg>
