<!-- Generated by IcoMoon.io -->
<svg version="1.1" xmlns="http://www.w3.org/2000/svg" width="24" height="40" viewBox="0 0 24 40">
<title>mp-usb-4</title>
<path d="M15.2 29.6c0 0.883-0.717 1.6-1.6 1.6s-1.6-0.717-1.6-1.6v-1.6h3.2v1.6zM18.4 23.2h-9.6c-0.883 0-1.6-0.717-1.6-1.6v-12.8c0-0.883 0.717-1.6 1.6-1.6h9.6c0.883 0 1.6 0.717 1.6 1.6v12.8c0 0.883-0.717 1.6-1.6 1.6v0zM15.2 32.8h-3.2c-0.883 0-1.6-0.717-1.6-1.6v-4.8h6.4v4.8c0 0.883-0.717 1.6-1.6 1.6v0zM4 7.2v16c0 1.768 1.432 3.2 3.2 3.2v6.4c0 1.768 1.432 3.2 3.2 3.2h6.4c1.768 0 3.2-1.432 3.2-3.2v-6.4c1.768 0 3.2-1.432 3.2-3.2v-16c0-1.768-1.432-3.2-3.2-3.2h-12.8c-1.768 0-3.2 1.432-3.2 3.2v0z"></path>
</svg>
