<!-- Generated by IcoMoon.io -->
<svg version="1.1" xmlns="http://www.w3.org/2000/svg" width="62" height="40" viewBox="0 0 62 40">
<title>mp-volume_high-1</title>
<path d="M52 6.158v0c0.981 0 1.778 0.814 1.778 1.817v25.443c0 1.003-0.796 1.817-1.778 1.817s-1.778-0.814-1.778-1.817v-25.443c0-1.003 0.796-1.817 1.778-1.817v0zM43.111 29.783v-18.173c0-1.003 0.796-1.817 1.778-1.817s1.778 0.814 1.778 1.817v18.173c0 1.003-0.796 1.817-1.778 1.817s-1.778-0.814-1.778-1.817v0zM36 26.149v-10.904c0-1.003 0.796-1.817 1.778-1.817s1.778 0.814 1.778 1.817v10.904c0 1.003-0.796 1.817-1.778 1.817s-1.778-0.814-1.778-1.817v0zM11.111 24.331h-1.778c-0.981 0-1.778-0.814-1.778-1.817v-3.635c0-1.003 0.796-1.817 1.778-1.817h1.778v7.269zM14.667 14.765c4.741-2.424 8.476-4.333 12.926-6.608 0.592-0.302 1.296 0.133 1.296 0.809v21.644c0 0.676-0.704 1.11-1.296 0.809-4.448-2.275-8.185-4.185-12.926-6.608v-10.046zM4 17.062v7.269c0 2.008 1.591 3.635 3.556 3.635h2.964l16.921 7.715c2.352 1.072 5.004-0.687 5.004-3.32v-24.721c0-2.737-2.846-4.491-5.212-3.215l-16.713 9.003h-2.964c-1.964 0-3.556 1.627-3.556 3.635v0z"></path>
</svg>
