<!-- Generated by IcoMoon.io -->
<svg version="1.1" xmlns="http://www.w3.org/2000/svg" width="47" height="40" viewBox="0 0 47 40">
<title>mp-view_minus-</title>
<path d="M32.235 7.765h-1.882c-1.039 0-1.882-0.843-1.882-1.882s0.843-1.882 1.882-1.882h7.529c1.039 0 1.882 0.843 1.882 1.882s-0.843 1.882-1.882 1.882h-5.647zM26.588 25.122c0 2.078-1.685 3.765-3.765 3.765s-3.765-1.687-3.765-3.765c0-2.080 1.685-3.765 3.765-3.765s3.765 1.685 3.765 3.765v0zM22.824 32.235c-5.626 0-10.927-2.679-14.308-7.113 3.381-4.437 8.681-7.115 14.308-7.115s10.927 2.679 14.308 7.115c-3.381 4.435-8.681 7.113-14.308 7.113v0zM22.824 14.242c-8.049 0-15.061 4.382-18.824 10.88 3.763 6.496 10.775 10.878 18.824 10.878s15.061-4.382 18.824-10.878c-3.763-6.498-10.775-10.88-18.824-10.88v0z"></path>
</svg>
