<!-- Generated by IcoMoon.io -->
<svg version="1.1" xmlns="http://www.w3.org/2000/svg" width="20" height="40" viewBox="0 0 20 40">
<title>mp-watch-1</title>
<path d="M13.622 22.906c-0.502 0.179-1.037 0.294-1.6 0.294s-1.098-0.115-1.6-0.294c-1.858-0.662-3.211-2.422-3.211-4.506s1.589-3.842 3.189-4.504v6.104h6.138c-0.486 1.352-1.56 2.422-2.915 2.906v0zM13.6 32.8h-3.2v-6.56c0 0.104 1.051 0.16 1.6 0.16 0.547 0 1.6-0.056 1.6-0.16v6.56zM10.4 7.2h3.2v3.362c0-0.106-1.053-0.162-1.6-0.162-0.549 0-1.6 0.056-1.6 0.162v-3.362zM16.538 16.8h-2.915v-2.904c1.355 0.483 2.429 1.554 2.915 2.904v0zM16.8 12.037v-8.037h-9.6v8.037c-1.6 1.461-3.2 3.755-3.2 6.363 0 2.61 1.6 4.904 3.2 6.365v11.235h9.6v-11.235c1.6-1.461 3.2-3.755 3.2-6.365 0-2.608-1.6-4.902-3.2-6.363v0z"></path>
</svg>
