<!-- Generated by IcoMoon.io -->
<svg version="1.1" xmlns="http://www.w3.org/2000/svg" width="57" height="40" viewBox="0 0 57 40">
<title>mp-youtube-</title>
<path d="M22.259 25.911v-12.827c4.554 2.143 8.080 4.212 12.251 6.444-3.44 1.908-7.698 4.048-12.251 6.382zM47.637 6.704c-0.786-1.035-2.124-1.84-3.55-2.106-4.189-0.796-30.325-0.798-34.512 0-1.143 0.214-2.161 0.732-3.035 1.536-3.684 3.419-2.53 21.755-1.642 24.725 0.373 1.286 0.856 2.213 1.464 2.822 0.783 0.805 1.856 1.359 3.087 1.607 3.449 0.714 21.22 1.112 34.564 0.107 1.229-0.214 2.318-0.786 3.176-1.625 3.406-3.406 3.174-22.772 0.446-27.066z"></path>
</svg>
