<!-- Generated by IcoMoon.io -->
<svg version="1.1" xmlns="http://www.w3.org/2000/svg" width="40" height="40" viewBox="0 0 40 40">
<title>mt-account_balance_wallet</title>
<path d="M24.251 21.6q0.649 0 1.125-0.451t0.475-1.149-0.475-1.151-1.125-0.451-1.125 0.451-0.475 1.151 0.475 1.149 1.125 0.451zM20 24.251v-8.5h10.649v8.5h-10.649zM29.6 26.4v1.051q0 0.851-0.651 1.5t-1.5 0.651h-14.9q-0.9 0-1.525-0.625t-0.625-1.525v-14.9q0-0.9 0.625-1.525t1.525-0.625h14.9q0.849 0 1.5 0.651t0.651 1.5v1.049h-9.6q-0.9 0-1.525 0.625t-0.625 1.525v8.5q0 0.9 0.625 1.525t1.525 0.625h9.6z"></path>
</svg>
