<!-- Generated by IcoMoon.io -->
<svg version="1.1" xmlns="http://www.w3.org/2000/svg" width="40" height="40" viewBox="0 0 40 40">
<title>mt-airline_seat_legroom_extra</title>
<path d="M31.551 25.6q0.349 0.6 0.1 1.251t-0.849 0.949l-3.949 1.8-3.651-7.451h-7.449q-1.3 0-2.251-0.949t-0.949-2.251v-8.551h6.4v6.4h3.749q0.551 0 1.1 0.349t0.8 0.851l3.6 7.451 1.2-0.551q0.6-0.251 1.225-0.049t0.925 0.751zM11.451 20q0 1.3 0.951 2.251t2.251 0.949h6.4v2.151h-6.4q-2.2 0-3.751-1.575t-1.551-3.775v-9.6h2.1v9.6z"></path>
</svg>
