<!-- Generated by IcoMoon.io -->
<svg version="1.1" xmlns="http://www.w3.org/2000/svg" width="40" height="40" viewBox="0 0 40 40">
<title>mt-airline_seat_recline_extra</title>
<path d="M24.5 23.2l6.149 4.8-1.6 1.6-4.051-3.2h-7.3q-1.1 0-2.025-0.751t-1.125-1.849l-1.449-6.3q0-0.051-0.025-0.2t-0.025-0.2q0-0.849 0.6-1.549t1.4-0.851h0.051q0.049 0 0.175-0.025t0.175-0.025q0.849 0 1.5 0.5l1.751 1.349q2.4 1.849 5 1.349v2.3q-2.4 0.4-5.5-1.3l1.1 4.349h5.2zM24.251 27.449v2.151h-7.5q-1.9 0-3.449-1.3t-1.851-3.2l-2.1-10.451h2.1l2.1 10.1q0.2 1.149 1.1 1.925t2.1 0.775h7.5zM12.9 13.2q-0.7-0.5-0.851-1.375t0.351-1.575 1.375-0.875 1.575 0.325q0.7 0.549 0.875 1.425t-0.325 1.575-1.4 0.851-1.6-0.351z"></path>
</svg>
