<!-- Generated by IcoMoon.io -->
<svg version="1.1" xmlns="http://www.w3.org/2000/svg" width="40" height="40" viewBox="0 0 40 40">
<title>mt-assistant_direction</title>
<path d="M28.251 20.6q0.7-0.7 0-1.2l-7.649-7.7q-0.651-0.5-1.251 0l-7.651 7.7q-0.251 0.4-0.251 0.6t0.251 0.6l7.651 7.7q0.649 0.5 1.251 0zM20 8.251q4.9 0 8.325 3.425t3.425 8.325-3.425 8.325-8.325 3.425-8.325-3.425-3.425-8.325 3.425-8.325 8.325-3.425zM22.149 17.849v-2.651l3.7 3.751-3.7 3.7v-2.651h-4.3v3.2h-2.1v-4.251q0-1.1 1.051-1.1h5.349z"></path>
</svg>
