<!-- Generated by IcoMoon.io -->
<svg version="1.1" xmlns="http://www.w3.org/2000/svg" width="40" height="40" viewBox="0 0 40 40">
<title>mt-admin_panel_settings</title>
<path d="M25.351 18.949q0.251 0 0.525 0.025t0.525 0.075v-5.151l-8-3.5-8 3.5v5.251q0 1.8 0.6 3.5t1.675 3.125 2.549 2.425 3.175 1.4q0.451-0.1 0.875-0.251t0.825-0.351q-0.551-0.751-0.851-1.7t-0.3-1.949q0-1.8 0.849-3.251t2.3-2.3 3.251-0.849zM25.351 21.051q-1.2 0-2.175 0.575t-1.551 1.551-0.575 2.175q0 1.149 0.575 2.125t1.551 1.549 2.175 0.575q1.149 0 2.125-0.575t1.549-1.549 0.575-2.125q0-1.2-0.575-2.175t-1.549-1.551-2.125-0.575zM25.351 22.551q0.5 0 0.849 0.349t0.349 0.851q0 0.449-0.375 0.825t-0.825 0.375q-0.5 0-0.849-0.375t-0.351-0.825q0-0.5 0.351-0.851t0.849-0.349zM25.351 28.251q-0.751 0-1.375-0.325t-1.025-0.925q0-0.351 0.449-0.625t1-0.4 0.951-0.125q0.349 0 0.925 0.125t1 0.4 0.425 0.625q-0.4 0.6-1 0.925t-1.349 0.325z"></path>
</svg>
