<!-- Generated by IcoMoon.io -->
<svg version="1.1" xmlns="http://www.w3.org/2000/svg" width="40" height="40" viewBox="0 0 40 40">
<title>mt-brunch_dining</title>
<path d="M14.651 24.251v-2.1h4.3v2.1h4.8q0.5 0 0.5 0.551v1.051q0 0.549-0.5 0.549h-13.9q-0.5 0-0.5-0.549v-1.051q0-0.551 0.5-0.551h4.8zM26.4 24.149l-0.449-0.451q-0.7-0.751-1.2-2t-0.5-2.251v-10.1h6.4v10.151q0 2.449-1.6 4.2l-0.5 0.551v4.3h2.1v2.1h-4.251v-6.5zM23.751 30.649h-13.9q-0.5 0-0.5-0.5v-1.6h14.9v1.6q0 0.5-0.5 0.5zM26.4 15.751h2.151v-4.3h-2.151v4.3z"></path>
</svg>
