<!-- Generated by IcoMoon.io -->
<svg version="1.1" xmlns="http://www.w3.org/2000/svg" width="40" height="40" viewBox="0 0 40 40">
<title>mt-bike_scooter</title>
<path d="M17.849 22.149h0.8l-2.049-9q-0.151-0.751-0.751-1.225t-1.3-0.475h-4.149v2.149h4.149l1.5 6.651q-1.751 0.551-2.975 1.9t-1.525 3.2h-4.349v2.1h6.4v-1.051q0-1.2 0.575-2.149t1.551-1.525 2.125-0.575zM27.449 15.751h-0.849l-1.451-3.951q-0.2-0.649-0.751-1.025t-1.251-0.375h-4.2v2.149h4.2l1.2 3.2h-6.051l0.5 2.1h4.4q-0.351 0.5-0.6 1.025t-0.351 1.125h-3l0.5 2.149h2.5q0.2 1.149 0.925 2.1t1.751 1.525 2.275 0.625q1.5 0.051 2.775-0.649t2.051-1.949 0.775-2.751-0.7-2.7-1.925-1.9-2.725-0.7zM27.449 24.251q-0.9 0-1.625-0.425t-1.149-1.149-0.425-1.625q0-0.751 0.3-1.375t0.849-1.025l1 2.8 2-0.7-1-2.849 0.025-0.025t0.075-0.025q0.851 0 1.575 0.425t1.175 1.151 0.449 1.625-0.449 1.625-1.175 1.149-1.625 0.425zM17.849 23.2q-0.849 0-1.575 0.425t-1.175 1.149-0.449 1.625 0.449 1.625 1.175 1.151 1.575 0.425q0.9 0 1.625-0.425t1.151-1.151 0.425-1.625-0.425-1.625-1.151-1.149-1.625-0.425zM17.849 27.449q-0.4 0-0.725-0.3t-0.325-0.751 0.325-0.751 0.725-0.3q0.451 0 0.775 0.3t0.325 0.751-0.325 0.751-0.775 0.3z"></path>
</svg>
