<!-- Generated by IcoMoon.io -->
<svg version="1.1" xmlns="http://www.w3.org/2000/svg" width="40" height="40" viewBox="0 0 40 40">
<title>mt-business_center</title>
<path d="M22.149 14.651v-2.1h-4.3v2.1h4.3zM28.551 14.651q0.849 0 1.475 0.651t0.625 1.5v3.2q0 0.851-0.625 1.5t-1.475 0.649h-6.4v-2.151h-4.3v2.151h-6.4q-0.9 0-1.5-0.625t-0.6-1.525v-3.2q0-0.849 0.625-1.5t1.475-0.651h4.251v-2.1l2.151-2.151h4.251l2.149 2.151v2.1h4.3zM17.849 24.251h4.3v-1.051h7.451v4.251q0 0.9-0.625 1.525t-1.525 0.625h-14.9q-0.9 0-1.525-0.625t-0.625-1.525v-4.251h7.451v1.051z"></path>
</svg>
