<!-- Generated by IcoMoon.io -->
<svg version="1.1" xmlns="http://www.w3.org/2000/svg" width="40" height="40" viewBox="0 0 40 40">
<title>mt-cast_for_education</title>
<path d="M29.6 10.4h-19.2q-0.9 0-1.525 0.625t-0.625 1.525v3.2h2.151v-3.2h19.2v14.9h-7.451v2.151h7.451q0.9 0 1.525-0.625t0.625-1.525v-14.9q0-0.9-0.625-1.525t-1.525-0.625zM8.251 26.4v3.2h3.2q0-0.9-0.425-1.625t-1.151-1.151-1.625-0.425zM8.251 22.149v2.1q1.5 0 2.7 0.725t1.925 1.951 0.725 2.675h2.151q0-1.551-0.6-2.9t-1.625-2.375-2.375-1.6-2.9-0.575zM8.251 17.849v2.151q2 0 3.751 0.751t3.051 2.075 2.049 3.051 0.751 3.725h2.149q0-2.451-0.9-4.575t-2.525-3.725-3.749-2.525-4.575-0.925zM18.949 19.051v2.1l3.7 2.051 3.749-2.051v-2.1l-3.749 2zM22.649 13.6l-5.849 3.2 5.849 3.2 5.9-3.2z"></path>
</svg>
