<!-- Generated by IcoMoon.io -->
<svg version="1.1" xmlns="http://www.w3.org/2000/svg" width="40" height="40" viewBox="0 0 40 40">
<title>mt-celebration</title>
<path d="M23.251 13.449q0.351-0.351 0.351-0.9t-0.351-0.951l-1.7-1.7 1.149-1.151 1.7 1.7q0.851 0.951 0.851 2.1 0 1.1-0.851 2.049l-3.851 3.851-1.1-1.151zM25.4 19.849q0.951-0.849 2.051-0.849 1.151 0 2.1 0.849l1.7 1.751-1.1 1.1-1.751-1.7q-0.4-0.4-0.949-0.4-0.5 0-0.9 0.4l-1.7 1.7-1.149-1.149zM17.949 14.551q0.351-0.351 0.351-0.949t-0.351-0.949l-0.649-0.6 1.149-1.149 0.6 0.6q0.849 0.949 0.849 2.1 0 1.1-0.849 2.049l-0.6 0.651-1.149-1.151zM22.7 20.551l-1.149-1.1 6-6q0.949-0.849 2.051-0.849 1.149 0 2.1 0.849l0.6 0.651-1.1 1.151-0.651-0.651q-0.4-0.4-0.949-0.4t-0.949 0.4zM9.349 30.649l5.3-14.9 9.6 9.6z"></path>
</svg>
