<!-- Generated by IcoMoon.io -->
<svg version="1.1" xmlns="http://www.w3.org/2000/svg" width="40" height="40" viewBox="0 0 40 40">
<title>mt-connected_tv</title>
<path d="M11.451 15.751q3.549 0 6.049 2.5t2.5 6h-1.551q0-2.9-2.049-4.925t-4.951-2.025v-1.551zM11.451 18.949q2.2 0 3.775 1.551t1.575 3.751h-1.551q0-1.551-1.125-2.675t-2.675-1.125v-1.5zM11.451 22.149q0.9 0 1.525 0.6t0.625 1.5h-2.149v-2.1zM29.6 25.351v-12.8h-19.2v12.8h19.2zM29.6 10.4q0.849 0 1.5 0.649t0.649 1.5l-0.051 12.8q0 0.849-0.625 1.475t-1.475 0.625h-5.349v2.151h-8.5v-2.151h-5.349q-0.851 0-1.5-0.625t-0.651-1.475v-12.8q0-0.851 0.651-1.5t1.5-0.649h19.2z"></path>
</svg>
