<!-- Generated by IcoMoon.io -->
<svg version="1.1" xmlns="http://www.w3.org/2000/svg" width="40" height="40" viewBox="0 0 40 40">
<title>mt-card_travel</title>
<path d="M28.551 22.149v-6.4h-3.2v2.1h-2.151v-2.1h-6.4v2.1h-2.149v-2.1h-3.2v6.4h17.1zM28.551 27.449v-2.1h-17.1v2.1h17.1zM16.8 11.451v2.149h6.4v-2.149h-6.4zM28.551 13.6q0.9 0 1.5 0.625t0.6 1.525v11.7q0 0.9-0.6 1.525t-1.5 0.625h-17.1q-0.9 0-1.5-0.625t-0.6-1.525v-11.7q0-0.9 0.6-1.525t1.5-0.625h3.2v-2.149q0-0.9 0.625-1.5t1.525-0.6h6.4q0.9 0 1.525 0.6t0.625 1.5v2.149h3.2z"></path>
</svg>
