<!-- Generated by IcoMoon.io -->
<svg version="1.1" xmlns="http://www.w3.org/2000/svg" width="40" height="40" viewBox="0 0 40 40">
<title>mt-cases</title>
<path d="M11.451 16.8v11.751h17.1q0 0.9-0.625 1.5t-1.525 0.6h-14.949q-0.9 0-1.5-0.6t-0.6-1.5v-11.751h2.1zM24.251 13.6v-1.049q0-0.4-0.351-0.751t-0.7-0.351h-3.2q-0.4 0-0.725 0.325t-0.325 0.775v1.049h5.3zM16.8 13.6v-2.149l2.149-2.1h5.3l2.149 2.1v2.149h4.251v11.751q0 0.849-0.625 1.475t-1.475 0.625h-13.9q-0.849 0-1.475-0.625t-0.625-1.475v-11.751h4.251z"></path>
</svg>
