<!-- Generated by IcoMoon.io -->
<svg version="1.1" xmlns="http://www.w3.org/2000/svg" width="40" height="40" viewBox="0 0 40 40">
<title>mt-control_point_duplicate</title>
<path d="M23.2 27.449q3.1 0 5.275-2.175t2.175-5.275-2.175-5.275-5.275-2.175-5.275 2.175-2.175 5.275 2.175 5.275 5.275 2.175zM23.2 10.4q4 0 6.8 2.8t2.8 6.8-2.8 6.8-6.8 2.8-6.8-2.8-2.8-6.8 2.8-6.8 6.8-2.8zM9.349 20q0 1.949 1.251 3.949t3 2.8v2.3q-2.8-1-4.6-3.5t-1.8-5.551 1.8-5.551 4.6-3.5v2.3q-1.949 0.9-3.1 2.725t-1.151 4.025zM24.251 15.751v3.2h3.2v2.1h-3.2v3.2h-2.1v-3.2h-3.2v-2.1h3.2v-3.2h2.1z"></path>
</svg>
