<!-- Generated by IcoMoon.io -->
<svg version="1.1" xmlns="http://www.w3.org/2000/svg" width="40" height="40" viewBox="0 0 40 40">
<title>mt-closed_caption_disabled</title>
<path d="M14.5 11.451h12.949q0.9 0 1.525 0.625t0.625 1.525v12.949l-3.651-3.6q0.449-0.3 0.449-0.8v-1.1h-1.6v0.551h-0.2l-1.951-1.949v-1.251h2.149v0.549h1.6v-1.1q0-0.4-0.325-0.725t-0.725-0.325h-3.2q-0.451 0-0.775 0.325t-0.325 0.725v0.2zM28.3 31.3l-2.8-2.751h-12.949q-0.9 0-1.525-0.625t-0.625-1.525v-12.949l-1.7-1.751 1.5-1.5 19.6 19.6zM18.949 21.949l-0.9-0.9h-0.7v0.549h-2.151v-3.2h0.2l-1.349-1.349q-0.451 0.3-0.451 0.8v4.3q0 0.4 0.325 0.725t0.725 0.325h3.2q0.449 0 0.775-0.325t0.325-0.725v-0.2z"></path>
</svg>
