<!-- Generated by IcoMoon.io -->
<svg version="1.1" xmlns="http://www.w3.org/2000/svg" width="40" height="40" viewBox="0 0 40 40">
<title>mt-copyright</title>
<path d="M20 28.551q3.5 0 6.025-2.525t2.525-6.025-2.525-6.025-6.025-2.525-6.025 2.525-2.525 6.025 2.525 6.025 6.025 2.525zM20 9.349q4.4 0 7.525 3.125t3.125 7.525-3.125 7.525-7.525 3.125-7.525-3.125-3.125-7.525 3.125-7.525 7.525-3.125zM19.849 16.949q-2 0-2 2.9v0.3q0 2.9 2 2.9 0.751 0 1.251-0.425t0.5-1.075h1.9q0 1.251-1.1 2.2-1.049 0.9-2.549 0.9-2 0-3.051-1.2t-1.051-3.3v-0.3q0-2.051 1-3.2 1.2-1.351 3.1-1.351 1.649 0 2.6 0.951 1.049 1.049 1.049 2.451h-1.9q0-0.349-0.151-0.651-0.251-0.5-0.349-0.6-0.5-0.5-1.251-0.5z"></path>
</svg>
