<!-- Generated by IcoMoon.io -->
<svg version="1.1" xmlns="http://www.w3.org/2000/svg" width="40" height="40" viewBox="0 0 40 40">
<title>mt-drag_indicator</title>
<path d="M23.2 24.251q0.851 0 1.5 0.649t0.651 1.5-0.651 1.5-1.5 0.651-1.5-0.651-0.649-1.5 0.649-1.5 1.5-0.649zM23.2 17.849q0.851 0 1.5 0.651t0.651 1.5-0.651 1.5-1.5 0.649-1.5-0.649-0.649-1.5 0.649-1.5 1.5-0.651zM23.2 15.751q-0.849 0-1.5-0.651t-0.649-1.5 0.649-1.5 1.5-0.649 1.5 0.649 0.651 1.5-0.651 1.5-1.5 0.651zM16.8 11.451q0.849 0 1.5 0.649t0.649 1.5-0.649 1.5-1.5 0.651-1.5-0.651-0.651-1.5 0.651-1.5 1.5-0.649zM16.8 17.849q0.849 0 1.5 0.651t0.649 1.5-0.649 1.5-1.5 0.649-1.5-0.649-0.651-1.5 0.651-1.5 1.5-0.651zM18.949 26.4q0 0.851-0.649 1.5t-1.5 0.651-1.5-0.651-0.651-1.5 0.651-1.5 1.5-0.649 1.5 0.649 0.649 1.5z"></path>
</svg>
