<!-- Generated by IcoMoon.io -->
<svg version="1.1" xmlns="http://www.w3.org/2000/svg" width="40" height="40" viewBox="0 0 40 40">
<title>mt-directions_subway</title>
<path d="M26.4 18.949v-5.349h-5.349v5.349h5.349zM24.8 25.351q0.7 0 1.149-0.475t0.449-1.125-0.449-1.125-1.149-0.475-1.151 0.475-0.449 1.125 0.449 1.125 1.151 0.475zM18.949 18.949v-5.349h-5.349v5.349h5.349zM15.2 25.351q0.7 0 1.151-0.475t0.451-1.125-0.451-1.125-1.151-0.475-1.149 0.475-0.451 1.125 0.451 1.125 1.149 0.475zM20 9.349q4.149 0 6.351 0.851t2.2 3.4v10.151q0 1.551-1.1 2.625t-2.649 1.075l1.6 1.6v0.551h-12.8v-0.551l1.6-1.6q-1.549 0-2.649-1.075t-1.1-2.625v-10.151q0-2.549 2.2-3.4t6.349-0.851z"></path>
</svg>
