<!-- Generated by IcoMoon.io -->
<svg version="1.1" xmlns="http://www.w3.org/2000/svg" width="40" height="40" viewBox="0 0 40 40">
<title>mt-d_rotation</title>
<path d="M20 7.2q5 0 8.675 3.375t4.075 8.325h-1.6q-0.251-2.951-1.975-5.349t-4.375-3.651l-1.449 1.4-4.051-4.051zM24.851 19.8q0-2.851-2.351-2.851h-1v6.151h0.949q1.8 0 2.3-1.7 0.1-0.349 0.1-1.2v-0.4zM22.5 15.751q2.649 0 3.6 2.349 0.251 0.6 0.251 1.7v0.4q0 1.9-1.051 2.951-1.1 1.1-2.851 1.1h-2.449v-8.5h2.5zM17.551 19.9q1.4 0.549 1.4 1.951 0 0.5-0.251 1-0.3 0.6-0.549 0.8-0.751 0.6-2 0.6-1.2 0-1.951-0.6t-0.751-1.751h1.351q0 0.551 0.375 0.9t0.975 0.349q1.4 0 1.4-1.349t-1.551-1.351h-0.8v-1.1h0.8q1.449 0 1.449-1.251t-1.3-1.251q-1.251 0-1.251 1.151h-1.4q0-0.849 0.751-1.6 0.8-0.651 1.9-0.651 1.2 0 1.925 0.6t0.725 1.751q0 1.251-1.251 1.8zM15.2 30.1l1.451-1.4 4.049 4.051-0.7 0.049q-5 0-8.675-3.4t-4.075-8.351h1.6q0.251 2.649 2.1 5.3t4.249 3.751z"></path>
</svg>
