<!-- Generated by IcoMoon.io -->
<svg version="1.1" xmlns="http://www.w3.org/2000/svg" width="40" height="40" viewBox="0 0 40 40">
<title>mt-directions_bike</title>
<path d="M27.449 29.051q1.551 0 2.651-1.075t1.1-2.625-1.1-2.651-2.651-1.1-2.625 1.1-1.075 2.651 1.075 2.625 2.625 1.075zM27.449 20q2.251 0 3.8 1.551t1.551 3.8-1.551 3.775-3.8 1.525-3.775-1.525-1.525-3.775 1.525-3.8 3.775-1.551zM18.7 18.4l2.351 2.451v6.6h-2.1v-5.3l-3.451-3q-0.6-0.4-0.6-1.5 0-0.9 0.6-1.5l3-3q0.4-0.6 1.5-0.6 0.949 0 1.7 0.6l2.051 2.051q1.6 1.6 3.8 1.6v2.151q-3.151 0-5.4-2.251l-0.851-0.849zM12.551 29.051q1.551 0 2.625-1.075t1.075-2.625-1.075-2.651-2.625-1.1-2.649 1.1-1.1 2.651 1.1 2.625 2.649 1.075zM12.551 20q2.251 0 3.775 1.551t1.525 3.8-1.525 3.775-3.775 1.525-3.8-1.525-1.551-3.775 1.551-3.8 3.8-1.551zM23.751 13.051q-0.851 0-1.5-0.625t-0.649-1.475 0.649-1.5 1.5-0.649 1.475 0.649 0.625 1.5-0.625 1.475-1.475 0.625z"></path>
</svg>
