<!-- Generated by IcoMoon.io -->
<svg version="1.1" xmlns="http://www.w3.org/2000/svg" width="40" height="40" viewBox="0 0 40 40">
<title>mt-directions_run</title>
<path d="M17.751 27.851l-7.451-1.451 0.4-2.149 5.249 1.049 1.7-8.651-1.951 0.751v3.651h-2.1v-5l5.549-2.349q0.151 0 0.425-0.051t0.425-0.049q1.051 0 1.8 1.049l1.049 1.7q1.451 2.549 4.6 2.549v2.151q-3.551 0-5.851-2.651l-0.649 3.2 2.251 2.1v8h-2.149v-6.4l-2.251-2.1zM21.6 13.051q-0.851 0-1.5-0.649t-0.651-1.5 0.651-1.475 1.5-0.625 1.475 0.625 0.625 1.475-0.625 1.5-1.475 0.649z"></path>
</svg>
