<!-- Generated by IcoMoon.io -->
<svg version="1.1" xmlns="http://www.w3.org/2000/svg" width="40" height="40" viewBox="0 0 40 40">
<title>mt-dinner_dining</title>
<path d="M11.451 24.8v-9.051h-1.049v-1.1h1.049v-1.051h-1.049v-1.049h1.049v-1.1h-1.049v-1.049h6.4q0.8 0.049 1.425 0.675t0.725 1.475h10.651v1.049h-10.651q-0.1 0.851-0.725 1.525t-1.425 0.625h-2.151v7.5q0.1 0 0.275-0.025t0.275-0.025q0.9 0 2.049 0.449 0.651-1.5 2.251-2.575t3.2-1.075q2.451 0 4.151 1.7t1.7 4.151q0 0.1-0.025 0.3t-0.025 0.251h-17.951q0.2-0.8 0.9-1.6zM13.6 23.449v-7.7h-1.049v8.2q0.751-0.4 1.049-0.5zM16.8 14.651v-1.051h-2.151v1.051h2.151zM16.8 11.451h-2.151v1.1h2.151v-1.1zM12.551 11.451v1.1h1.051v-1.1h-1.051zM12.551 13.6v1.051h1.051v-1.051h-1.051zM9.349 27.449h21.3l-2.1 2.151h-17.1z"></path>
</svg>
