<!-- Generated by IcoMoon.io -->
<svg version="1.1" xmlns="http://www.w3.org/2000/svg" width="40" height="40" viewBox="0 0 40 40">
<title>mt-directions_off</title>
<path d="M17.251 14.2l2.751-2.751 8.551 8.551-2.751 2.751 1.5 1.5 2.751-2.751q0.6-0.6 0.6-1.5t-0.6-1.5l-8.551-8.551q-0.6-0.6-1.5-0.6t-1.5 0.6l-2.751 2.751zM10.2 10.2l-1.5 1.5 4 4.049-2.751 2.751q-0.6 0.6-0.6 1.5t0.6 1.5l8.551 8.551q0.6 0.6 1.5 0.6t1.5-0.6l2.751-2.751 4.051 4 1.5-1.5zM20 28.551l-8.551-8.551 2.751-2.751 1.7 1.7h-1.251v2.1h3.4l1.6 1.6-1.151 1.2 1.5 1.5 1.151-1.2 1.6 1.6zM18.849 15.849l1.151-1.2 5.351 5.349-1.151 1.149z"></path>
</svg>
