<!-- Generated by IcoMoon.io -->
<svg version="1.1" xmlns="http://www.w3.org/2000/svg" width="40" height="40" viewBox="0 0 40 40">
<title>mt-emoji_food_beverage</title>
<path d="M11.451 27.449h17.1v2.151h-17.1v-2.151zM28.551 15.751v-3.2h-2.151v3.2h2.151zM28.551 10.4q0.9 0 1.5 0.625t0.6 1.525v3.2q0 0.9-0.6 1.5t-1.5 0.6h-2.151v3.2q0 1.751-1.251 3.025t-3 1.275h-6.4q-1.751 0-3.025-1.275t-1.275-3.025v-10.651h4.3v2.549l-1.949 1.551q-0.2 0.151-0.2 0.4v4.549q0 0.551 0.551 0.551h4.249q0.551 0 0.551-0.551v-4.549q0-0.251-0.2-0.4l-1.951-1.549v-2.551h11.749z"></path>
</svg>
