<!-- Generated by IcoMoon.io -->
<svg version="1.1" xmlns="http://www.w3.org/2000/svg" width="40" height="40" viewBox="0 0 40 40">
<title>mt-elderly</title>
<path d="M21.6 13.051q0.9 0 1.525-0.625t0.625-1.475q0-0.9-0.625-1.525t-1.525-0.625-1.525 0.625-0.625 1.525q0 0.851 0.625 1.475t1.525 0.625zM28.551 20.551v11.2h-1.1v-11.2q0-0.251-0.149-0.4t-0.351-0.149q-0.251 0-0.4 0.149t-0.151 0.4v1.049h-1.049v-0.751q-1.2-0.3-2.151-1t-1.6-1.651q-0.251 0.651-0.4 1.375t-0.149 1.475q0 0.2 0.025 0.375t0.025 0.375l2.1 3v6.949h-2.149v-5.351l-1.9-2.7-0.2 3.751-3.2 4.3-1.7-1.3 2.751-3.7v-5.7q0-0.9 0.151-1.8t0.4-1.8l-1.6 0.9v3.8h-2.149v-5.049l5.749-3.251q0.5-0.251 1.051-0.251t1.051 0.3q0.549 0.3 0.849 0.9v0l0.851 1.8q0.5 1 1.525 1.675t2.275 0.675q0.649 0 1.125 0.451t0.475 1.151z"></path>
</svg>
