<!-- Generated by IcoMoon.io -->
<svg version="1.1" xmlns="http://www.w3.org/2000/svg" width="40" height="40" viewBox="0 0 40 40">
<title>mt-filter_2</title>
<path d="M25.351 21.051v2.149h-6.4v-4.251q0-0.9 0.6-1.525t1.5-0.625h2.149v-2.151h-4.251v-2.1h4.251q0.9 0 1.525 0.6t0.625 1.5v2.151q0 0.9-0.625 1.525t-1.525 0.625h-2.149v2.1h4.3zM29.6 25.351v-14.951h-14.951v14.951h14.951zM29.6 8.251q0.849 0 1.5 0.651t0.649 1.5v14.951q0 0.849-0.649 1.475t-1.5 0.625h-14.951q-0.851 0-1.475-0.625t-0.625-1.475v-14.951q0-0.851 0.625-1.5t1.475-0.651h14.951zM10.4 12.551v17.051h17.051v2.149h-17.051q-0.851 0-1.5-0.649t-0.651-1.5v-17.051h2.151z"></path>
</svg>
