<!-- Generated by IcoMoon.io -->
<svg version="1.1" xmlns="http://www.w3.org/2000/svg" width="40" height="40" viewBox="0 0 40 40">
<title>mt-filter_8</title>
<path d="M21.051 18.949v2.1h2.149v-2.1h-2.149zM21.051 14.651v2.151h2.149v-2.151h-2.149zM21.051 23.2q-0.9 0-1.5-0.625t-0.6-1.525v-1.6q0-0.649 0.475-1.125t1.125-0.475q-0.651 0-1.125-0.475t-0.475-1.125v-1.6q0-0.9 0.6-1.5t1.5-0.6h2.149q0.9 0 1.525 0.6t0.625 1.5v1.6q0 0.649-0.475 1.125t-1.125 0.475q0.651 0 1.125 0.475t0.475 1.125v1.6q0 0.9-0.625 1.525t-1.525 0.625h-2.149zM29.6 25.351v-14.951h-14.951v14.951h14.951zM29.6 8.251q0.849 0 1.5 0.651t0.649 1.5v14.951q0 0.849-0.649 1.475t-1.5 0.625h-14.951q-0.851 0-1.475-0.625t-0.625-1.475v-14.951q0-0.851 0.625-1.5t1.475-0.651h14.951zM10.4 12.551v17.051h17.051v2.149h-17.051q-0.851 0-1.5-0.649t-0.651-1.5v-17.051h2.151z"></path>
</svg>
