<!-- Generated by IcoMoon.io -->
<svg version="1.1" xmlns="http://www.w3.org/2000/svg" width="40" height="40" viewBox="0 0 40 40">
<title>mt-flip_camera_android</title>
<path d="M24.251 22.149h6.4v6.4h-2.1v-2.151q-3.2 4.251-8.551 4.251-3.849 0-6.775-2.425t-3.675-6.075h2.2q0.7 2.751 3 4.575t5.251 1.825q2.3 0 4.275-1.175t3.075-3.125h-3.1v-2.1zM15.751 17.849h-6.4v-6.4h2.1v2.149q3.2-4.251 8.551-4.251 3.851 0 6.775 2.425t3.675 6.075h-2.2q-0.7-2.751-3-4.575t-5.251-1.825q-2.3 0-4.275 1.175t-3.075 3.125h3.1v2.1zM16.8 20q0-1.3 0.949-2.251t2.251-0.949 2.251 0.949 0.949 2.251-0.949 2.251-2.251 0.949-2.251-0.949-0.949-2.251z"></path>
</svg>
