<!-- Generated by IcoMoon.io -->
<svg version="1.1" xmlns="http://www.w3.org/2000/svg" width="40" height="40" viewBox="0 0 40 40">
<title>mt-format_color_fill</title>
<path d="M7.2 28.551h25.6v4.251h-25.6v-4.251zM27.449 19.449q2.151 2.351 2.151 3.751 0 0.851-0.651 1.5t-1.5 0.651-1.475-0.651-0.625-1.5q0-0.6 0.525-1.549t1.025-1.549zM12.751 17.849h10.251l-5.151-5.1zM24.851 16.751q0.5 0.5 0.5 1.151t-0.5 1.1l-5.849 5.851q-0.5 0.5-1.151 0.5-0.6 0-1.1-0.5l-5.9-5.849q-0.451-0.451-0.451-1.151 0-0.651 0.451-1.1l5.5-5.5-2.551-2.551 1.551-1.5z"></path>
</svg>
