<!-- Generated by IcoMoon.io -->
<svg version="1.1" xmlns="http://www.w3.org/2000/svg" width="40" height="40" viewBox="0 0 40 40">
<title>mt-flip_to_front</title>
<path d="M14.651 29.6v-2.151h2.151v2.151h-2.151zM18.949 29.6v-2.151h2.1v2.151h-2.1zM27.449 23.2v-10.649h-10.649v10.649h10.649zM27.449 10.4q0.851 0 1.5 0.649t0.651 1.5v10.651q0 0.851-0.651 1.5t-1.5 0.651h-10.649q-0.9 0-1.525-0.625t-0.625-1.525v-10.651q0-0.9 0.625-1.525t1.525-0.625h10.649zM23.2 29.6v-2.151h2.151v2.151h-2.151zM10.4 16.8v-2.151h2.149v2.151h-2.149zM12.551 29.6q-0.9 0-1.525-0.625t-0.625-1.525h2.149v2.151zM10.4 25.351v-2.151h2.149v2.151h-2.149zM10.4 21.051v-2.1h2.149v2.1h-2.149z"></path>
</svg>
