<!-- Generated by IcoMoon.io -->
<svg version="1.1" xmlns="http://www.w3.org/2000/svg" width="40" height="40" viewBox="0 0 40 40">
<title>mt-grass</title>
<path d="M20 28.551h-10.651v-2.151h6.1q-0.549-2.251-2.2-3.9t-3.9-2.2q0.5-0.149 1.025-0.225t1.075-0.075q1.8 0 3.351 0.675t2.7 1.825 1.825 2.7 0.675 3.349zM30.649 20.3q-0.5-0.151-1.025-0.225t-1.075-0.075q-2.351 0-4.3 1.149t-3.051 3.049q0.251 0.5 0.425 1.051t0.275 1.149q0.2 1.051 0.2 2.151h8.549v-2.151h-6.149q0.6-2.249 2.251-3.9t3.9-2.2zM23.9 18.949q0.6-1.649 1.725-3.025t2.625-2.325q-1.7 0.1-3.2 0.775t-2.625 1.825-1.775 2.675-0.649 3.275v0 0q1.549-2.051 3.9-3.2zM19.4 16.651q-0.7-1.751-2-3.1t-3.049-2.1q1.151 1.5 1.8 3.325t0.651 3.825q0 0.2-0.025 0.349t-0.025 0.3q0.349 0.2 0.675 0.425t0.625 0.475q0.2-0.949 0.525-1.825t0.825-1.675z"></path>
</svg>
