<!-- Generated by IcoMoon.io -->
<svg version="1.1" xmlns="http://www.w3.org/2000/svg" width="40" height="40" viewBox="0 0 40 40">
<title>mt-grid_off</title>
<path d="M24.251 28.551h1.551l-1.551-1.551v1.551zM22.149 28.551v-3.7l-0.6-0.6h-3.7v4.3h4.3zM15.751 22.149v-3.7l-0.6-0.6h-3.7v4.3h4.3zM15.751 28.551v-4.3h-4.3v4.3h4.3zM11.451 14.2v1.551h1.549zM17.849 20.6v1.549h1.551zM8.549 8.549l22.9 22.9-1.349 1.351-2.151-2.151h-16.5q-0.851 0-1.475-0.625t-0.625-1.475v-16.5l-2.149-2.149zM24.251 11.451v4.3h4.3v-4.3h-4.3zM15.751 11.451h-1.551l-2.149-2.1h16.5q0.849 0 1.475 0.625t0.625 1.475v16.5l-2.1-2.149v-1.551h-1.551l-2.149-2.1h3.7v-4.3h-4.3v3.7l-2.1-2.151v-1.549h-1.551l-2.151-2.1h3.7v-4.3h-4.3v3.7l-2.1-2.149v-1.549z"></path>
</svg>
