<!-- Generated by IcoMoon.io -->
<svg version="1.1" xmlns="http://www.w3.org/2000/svg" width="40" height="40" viewBox="0 0 40 40">
<title>mt-grid_on</title>
<path d="M28.551 15.751v-4.3h-4.3v4.3h4.3zM28.551 22.149v-4.3h-4.3v4.3h4.3zM28.551 28.551v-4.3h-4.3v4.3h4.3zM22.149 15.751v-4.3h-4.3v4.3h4.3zM22.149 22.149v-4.3h-4.3v4.3h4.3zM22.149 28.551v-4.3h-4.3v4.3h4.3zM15.751 15.751v-4.3h-4.3v4.3h4.3zM15.751 22.149v-4.3h-4.3v4.3h4.3zM15.751 28.551v-4.3h-4.3v4.3h4.3zM28.551 9.349q0.849 0 1.475 0.625t0.625 1.475v17.1q0 0.849-0.625 1.475t-1.475 0.625h-17.1q-0.851 0-1.475-0.625t-0.625-1.475v-17.1q0-0.851 0.625-1.475t1.475-0.625h17.1z"></path>
</svg>
