<!-- Generated by IcoMoon.io -->
<svg version="1.1" xmlns="http://www.w3.org/2000/svg" width="40" height="40" viewBox="0 0 40 40">
<title>mt-hdr_on</title>
<path d="M21.051 21.6v-3.2h-2.1v3.2h2.1zM21.051 16.8q0.649 0 1.125 0.475t0.475 1.125v3.2q0 0.649-0.475 1.125t-1.125 0.475h-3.7v-6.4h3.7zM14.151 18.949v-2.149h1.6v6.4h-1.6v-2.649h-2.151v2.649h-1.6v-6.4h1.6v2.149h2.151zM28 19.449v-1.049h-2.149v1.049h2.149zM29.6 19.449q0 1-0.951 1.5l0.951 2.251h-1.6l-0.949-2.149h-1.2v2.149h-1.6v-6.4h3.751q0.649 0 1.125 0.475t0.475 1.125v1.049z"></path>
</svg>
