<!-- Generated by IcoMoon.io -->
<svg version="1.1" xmlns="http://www.w3.org/2000/svg" width="40" height="40" viewBox="0 0 40 40">
<title>mt-hd</title>
<path d="M22.649 21.6v-3.2h2.149v3.2h-2.149zM21.051 16.8v6.4h4.3q0.449 0 0.751-0.3t0.3-0.751v-4.3q0-0.451-0.3-0.751t-0.751-0.3h-4.3zM18.949 23.2v-6.4h-1.6v2.649h-2.151v-2.649h-1.6v6.4h1.6v-2.149h2.151v2.149h1.6zM27.449 10.4q0.851 0 1.5 0.649t0.651 1.5v14.9q0 0.849-0.651 1.5t-1.5 0.651h-14.9q-0.9 0-1.525-0.625t-0.625-1.525v-14.9q0-0.9 0.625-1.525t1.525-0.625h14.9z"></path>
</svg>
