<!-- Generated by IcoMoon.io -->
<svg version="1.1" xmlns="http://www.w3.org/2000/svg" width="40" height="40" viewBox="0 0 40 40">
<title>mt-image_search</title>
<path d="M23.751 16.8q1.1 0 1.875-0.775t0.775-1.875-0.775-1.9-1.875-0.8-1.9 0.8-0.8 1.9 0.8 1.875 1.9 0.775zM27.8 16.7l3.3 3.3-1.5 1.5-3.351-3.3q-1.251 0.751-2.551 0.751-2 0-3.375-1.4t-1.375-3.4 1.4-3.4 3.4-1.4 3.4 1.4 1.4 3.4q0 1.3-0.751 2.549zM24.8 26.4h-11.751l2.949-3.749 2.1 2.5 2.9-3.751zM26.4 21.051l2.151 2.149v5.349q0 0.849-0.651 1.475t-1.5 0.625h-14.949q-0.851 0-1.475-0.625t-0.625-1.475v-14.949q0-0.851 0.625-1.5t1.475-0.649h5.9q-0.5 1.049-0.549 2.149h-5.351v14.949h14.949v-7.5z"></path>
</svg>
