<!-- Generated by IcoMoon.io -->
<svg version="1.1" xmlns="http://www.w3.org/2000/svg" width="40" height="40" viewBox="0 0 40 40">
<title>mt-leak_remove</title>
<path d="M23.6 19.551q2.851-1.7 6-1.7v2.149q-2.351 0-4.451 1.1zM28.449 24.4l-1.7-1.7q1.351-0.549 2.851-0.549v2.1q-0.6 0-1.151 0.149zM22.149 10.4q0 3.149-1.7 6l-1.549-1.551q1.1-2.1 1.1-4.449h2.151zM10.4 11.751l1.349-1.349 17.851 17.849-1.351 1.351-3.051-3.051q-0.949 1.349-0.949 3.051h-2.1q0-1.051 0.451-2.375t1.1-2.175l-1.549-1.5q-2.151 2.649-2.151 6.051h-2.149q0-1.8 0.825-4.025t1.975-3.575l-2.651-2.651q-3.3 2.8-7.6 2.8v-2.149q1.451 0 3.225-0.625t2.875-1.525l-1.549-1.551q-2.049 1.551-4.551 1.551v-2.1q1.7 0 3.051-0.951zM17.849 10.4q0 1.5-0.549 2.849l-1.7-1.7q0.151-0.549 0.151-1.149h2.1z"></path>
</svg>
