<!-- Generated by IcoMoon.io -->
<svg version="1.1" xmlns="http://www.w3.org/2000/svg" width="40" height="40" viewBox="0 0 40 40">
<title>mt-location_city</title>
<path d="M27.449 23.2v-2.149h-2.1v2.149h2.1zM27.449 27.449v-2.1h-2.1v2.1h2.1zM21.051 14.651v-2.1h-2.1v2.1h2.1zM21.051 18.949v-2.149h-2.1v2.149h2.1zM21.051 23.2v-2.149h-2.1v2.149h2.1zM21.051 27.449v-2.1h-2.1v2.1h2.1zM14.651 18.949v-2.149h-2.1v2.149h2.1zM14.651 23.2v-2.149h-2.1v2.149h2.1zM14.651 27.449v-2.1h-2.1v2.1h2.1zM23.2 18.949h6.4v10.651h-19.2v-14.951h6.4v-2.1l3.2-3.2 3.2 3.2v6.4z"></path>
</svg>
