<!-- Generated by IcoMoon.io -->
<svg version="1.1" xmlns="http://www.w3.org/2000/svg" width="40" height="40" viewBox="0 0 40 40">
<title>mt-library_add</title>
<path d="M27.449 18.949v-2.149h-4.251v-4.251h-2.149v4.251h-4.251v2.149h4.251v4.251h2.149v-4.251h4.251zM28.551 9.349q0.849 0 1.475 0.625t0.625 1.475v12.8q0 0.851-0.625 1.5t-1.475 0.649h-12.8q-0.849 0-1.5-0.649t-0.651-1.5v-12.8q0-0.851 0.651-1.475t1.5-0.625h12.8zM11.451 13.6v14.949h14.949v2.1h-14.949q-0.851 0-1.475-0.625t-0.625-1.475v-14.949h2.1z"></path>
</svg>
