<!-- Generated by IcoMoon.io -->
<svg version="1.1" xmlns="http://www.w3.org/2000/svg" width="40" height="40" viewBox="0 0 40 40">
<title>mt-local_gas_station</title>
<path d="M26.4 17.849q0.451 0 0.751-0.3t0.3-0.751-0.3-0.751-0.751-0.3-0.751 0.3-0.3 0.751 0.3 0.751 0.751 0.3zM20 17.849v-5.3h-6.4v5.3h6.4zM28.3 14.9q0.751 0.751 0.751 1.9v10.151q0 1.1-0.775 1.875t-1.875 0.775-1.875-0.775-0.775-1.875v-5.351h-1.6v8h-10.7v-17.051q0-0.851 0.651-1.5t1.5-0.649h6.4q0.849 0 1.5 0.649t0.649 1.5v7.449h1.051q0.851 0 1.5 0.649t0.651 1.5v4.8q0 0.449 0.3 0.751t0.751 0.3 0.751-0.3 0.3-0.751v-7.7q-0.449 0.2-1.051 0.2-1.1 0-1.875-0.775t-0.775-1.875q0-1.8 1.7-2.5l-2.251-2.251 1.149-1.1z"></path>
</svg>
