<!-- Generated by IcoMoon.io -->
<svg version="1.1" xmlns="http://www.w3.org/2000/svg" width="40" height="40" viewBox="0 0 40 40">
<title>mt-line_style</title>
<path d="M10.4 11.451h19.2v4.3h-19.2v-4.3zM21.051 20v-2.151h8.551v2.151h-8.551zM10.4 20v-2.151h8.549v2.151h-8.549zM27.449 28.551v-2.151h2.151v2.151h-2.151zM23.2 28.551v-2.151h2.151v2.151h-2.151zM18.949 28.551v-2.151h2.1v2.151h-2.1zM14.651 28.551v-2.151h2.151v2.151h-2.151zM10.4 28.551v-2.151h2.149v2.151h-2.149zM24.251 24.251v-2.1h5.351v2.1h-5.351zM17.349 24.251v-2.1h5.3v2.1h-5.3zM10.4 24.251v-2.1h5.349v2.1h-5.349z"></path>
</svg>
