<!-- Generated by IcoMoon.io -->
<svg version="1.1" xmlns="http://www.w3.org/2000/svg" width="40" height="40" viewBox="0 0 40 40">
<title>mt-menu_book</title>
<path d="M25.851 22.5q1.3 0 2.7 0.251v1.6q-1-0.251-2.7-0.251-3 0-4.8 1.049v-1.8q1.9-0.851 4.8-0.851zM21.051 20.5q2.1-0.849 4.8-0.849 1.3 0 2.7 0.251v1.6q-1-0.251-2.7-0.251-3 0-4.8 1.051v-1.8zM25.851 18.4q-3 0-4.8 1.049v-1.751q2-0.9 4.8-0.9 1.3 0 2.7 0.251v1.649q-1.2-0.3-2.7-0.3zM29.6 26.949v-12.3q-1.651-0.5-3.751-0.5-3.251 0-5.851 1.6v12.251q2.6-1.6 5.851-1.6 1.949 0 3.751 0.551zM25.851 12q3.8 0 5.9 1.6v15.549q0 0.2-0.175 0.375t-0.375 0.175q-0.149 0-0.251-0.051-2.051-1.1-5.1-1.1-3.251 0-5.851 1.6-2.151-1.6-5.849-1.6-2.7 0-5.1 1.151-0.049 0-0.125 0.025t-0.125 0.025q-0.2 0-0.375-0.149t-0.175-0.351v-15.649q2.149-1.6 5.9-1.6 3.7 0 5.849 1.6 2.149-1.6 5.851-1.6z"></path>
</svg>
