<!-- Generated by IcoMoon.io -->
<svg version="1.1" xmlns="http://www.w3.org/2000/svg" width="40" height="40" viewBox="0 0 40 40">
<title>mt-mic_off</title>
<path d="M11.751 10.4l17.851 17.849-1.351 1.351-4.449-4.451q-1.1 0.7-2.751 0.951v3.5h-2.1v-3.5q-2.649-0.4-4.525-2.425t-1.875-4.725h1.8q0 2.351 1.675 3.875t3.975 1.525q1.251 0 2.449-0.549l-1.751-1.751q-0.4 0.1-0.7 0.1-1.3 0-2.251-0.949t-0.951-2.251v-0.8l-6.4-6.4zM23.2 19.1l-6.4-6.349v-0.2q0-1.3 0.949-2.251t2.251-0.951 2.251 0.951 0.949 2.251v6.551zM27.449 18.949q0 1.851-0.949 3.5l-1.3-1.349q0.449-1 0.449-2.151h1.8z"></path>
</svg>
