<!-- Generated by IcoMoon.io -->
<svg version="1.1" xmlns="http://www.w3.org/2000/svg" width="40" height="40" viewBox="0 0 40 40">
<title>mt-more_time</title>
<path d="M17.849 15.751v6.4l5.049 3.1 0.851-1.3-4.3-2.549v-5.651h-1.6zM26.3 20q0.1 0.551 0.1 1.051 0 1.6-0.575 2.949t-1.6 2.375-2.375 1.6-2.9 0.575q-1.6 0-2.951-0.575t-2.375-1.6-1.6-2.375-0.575-2.949q0-1.551 0.575-2.9t1.6-2.375 2.375-1.6 2.949-0.575q1.1 0 2.1 0.3v-2.2q-1.051-0.251-2.1-0.251-2 0-3.751 0.751t-3.075 2.075-2.049 3.051-0.725 3.725 0.725 3.751 2.049 3.075 3.075 2.049 3.751 0.725 3.725-0.725 3.051-2.049 2.075-3.075 0.751-3.751q0-0.5-0.1-1.049h-2.149zM28.551 12.551v-3.2h-2.151v3.2h-3.2v2.1h3.2v3.2h2.151v-3.2h3.2v-2.1h-3.2z"></path>
</svg>
