<!-- Generated by IcoMoon.io -->
<svg version="1.1" xmlns="http://www.w3.org/2000/svg" width="40" height="40" viewBox="0 0 40 40">
<title>mt-mp23</title>
<path d="M23.751 20v-1.6h1.6v1.6h-1.6zM23.751 23.2v-1.6h2.1q0.449 0 0.775-0.3t0.325-0.751v-2.7q0-0.451-0.325-0.751t-0.775-0.3h-3.7v6.4h1.6zM14.151 16.8q-0.451 0-0.775 0.3t-0.325 0.751v5.351h1.6v-4.8h1.1v3.2h1.6v-3.2h1.051v4.8h1.6v-5.349q0-0.451-0.3-0.751t-0.751-0.3h-4.8zM27.449 10.4q0.851 0 1.5 0.649t0.651 1.5v14.9q0 0.849-0.651 1.5t-1.5 0.651h-14.9q-0.851 0-1.5-0.651t-0.651-1.5v-14.9q0-0.849 0.651-1.5t1.5-0.649h14.9z"></path>
</svg>
