<!-- Generated by IcoMoon.io -->
<svg version="1.1" xmlns="http://www.w3.org/2000/svg" width="40" height="40" viewBox="0 0 40 40">
<title>mt-notifications_none</title>
<path d="M24.251 25.351v-6.4q0-2.049-1.149-3.425t-3.1-1.375-3.1 1.375-1.151 3.425v6.4h8.5zM26.4 24.251l2.151 2.149v1.051h-17.1v-1.051l2.151-2.149v-5.3q0-2.5 1.275-4.349t3.525-2.4v-0.751q0-0.649 0.451-1.125t1.149-0.475 1.151 0.475 0.449 1.125v0.751q2.251 0.551 3.525 2.4t1.275 4.349v5.3zM20 30.649q-0.849 0-1.5-0.625t-0.651-1.475h4.3q0 0.849-0.649 1.475t-1.5 0.625z"></path>
</svg>
