<!-- Generated by IcoMoon.io -->
<svg version="1.1" xmlns="http://www.w3.org/2000/svg" width="40" height="40" viewBox="0 0 40 40">
<title>mt-phone_paused</title>
<path d="M27.449 10.4h2.151v7.451h-2.151v-7.451zM28.551 23.751q0.449 0 0.751 0.3t0.3 0.751v3.751q0 0.449-0.3 0.751t-0.751 0.3q-7.5 0-12.825-5.325t-5.325-12.825q0-0.451 0.3-0.751t0.751-0.3h3.751q0.451 0 0.751 0.3t0.3 0.751v0.049q0 2.049 0.6 3.751 0.1 0.2 0.1 0.349 0 0.5-0.349 0.751l-2.349 2.349q1 1.9 3.075 3.975t3.975 3.075l2.351-2.351q0.351-0.349 0.751-0.349 0.149 0 0.351 0.1 1.8 0.6 3.8 0.6zM25.351 10.4v7.451h-2.151v-7.451h2.151z"></path>
</svg>
