<!-- Generated by IcoMoon.io -->
<svg version="1.1" xmlns="http://www.w3.org/2000/svg" width="40" height="40" viewBox="0 0 40 40">
<title>mt-public_off</title>
<path d="M18.949 15.9l-4.849-4.8q1.3-0.849 2.775-1.3t3.125-0.451q2.2 0 4.125 0.825t3.4 2.3 2.3 3.4 0.825 4.125q0 1.649-0.449 3.125t-1.3 2.775l-1.549-1.6q0.549-0.9 0.875-2t0.325-2.3q0-1.8-0.7-3.349t-1.9-2.725-2.751-1.825v0.449q0 0.849-0.625 1.475t-1.525 0.625h-2.1v1.251zM29.8 29.8l-1.5 1.5-2.4-2.4q-1.3 0.851-2.775 1.3t-3.125 0.449q-2.2 0-4.125-0.825t-3.4-2.3-2.3-3.4-0.825-4.125q0-1.651 0.449-3.125t1.3-2.775l-2.4-2.4 1.5-1.5zM18.949 26.4q-0.9 0-1.525-0.625t-0.625-1.525v-1.051l-5.1-5.1q-0.1 0.451-0.175 0.925t-0.075 0.975q0 2.2 1 4t2.7 3 3.8 1.449v-2.051z"></path>
</svg>
