<!-- Generated by IcoMoon.io -->
<svg version="1.1" xmlns="http://www.w3.org/2000/svg" width="40" height="40" viewBox="0 0 40 40">
<title>mt-panorama_photosphere_select</title>
<path d="M13.151 25.4q1.1 1.4 3.1 2.375t3.751 0.975 3.751-0.975 3.1-2.375q-6.951 2-13.7 0zM20 11.251q-4.251 0-6.849 3.349 6.8-2 13.7 0-2.7-3.349-6.851-3.349zM31.2 16.3q0.551 0.3 0.551 0.849v5.7q0 0.6-0.551 0.9-0.5 0.251-1.5 0.649-1.1 2.451-3.1 4.025t-4.3 2-4.6 0-4.3-2-3.1-4.025q-0.5-0.2-1.5-0.7-0.551-0.251-0.551-0.849v-5.7q0-0.6 0.551-0.849 1-0.5 1.5-0.7 1.251-2.8 3.875-4.525t5.825-1.725 5.825 1.725 3.875 4.525q0.5 0.2 1.5 0.7z"></path>
</svg>
