<!-- Generated by IcoMoon.io -->
<svg version="1.1" xmlns="http://www.w3.org/2000/svg" width="40" height="40" viewBox="0 0 40 40">
<title>mt-person_search</title>
<path d="M13.6 15.751q0-1.2 0.575-2.175t1.549-1.551 2.125-0.575q1.2 0 2.175 0.575t1.549 1.551 0.575 2.175q0 1.151-0.575 2.125t-1.549 1.551-2.175 0.575q-1.151 0-2.125-0.575t-1.551-1.551-0.575-2.125zM18.251 22.149q-0.9-0.049-2.051 0.1t-2.349 0.5-2.225 0.875-1.651 1.225-0.625 1.549v2.151h10.151q-1-1.1-1.325-2.225t-0.3-2.049 0.175-1.5 0.2-0.625zM27.949 26.4q0.6-1 0.6-2.149t-0.575-2.125-1.551-1.551-2.175-0.575q-1.149 0-2.125 0.575t-1.551 1.551-0.575 2.125q0 1.2 0.575 2.175t1.551 1.551 2.125 0.575q0.6 0 1.149-0.175t1-0.425l2.751 2.7 1.5-1.5zM24.251 26.4q-0.851 0-1.475-0.625t-0.625-1.525q0-0.851 0.625-1.475t1.475-0.625q0.9 0 1.525 0.625t0.625 1.475q0 0.9-0.625 1.525t-1.525 0.625z"></path>
</svg>
