<!-- Generated by IcoMoon.io -->
<svg version="1.1" xmlns="http://www.w3.org/2000/svg" width="40" height="40" viewBox="0 0 40 40">
<title>mt-person_pin_circle</title>
<path d="M20 22.149q1.1 0 2.351-0.675t1.9-1.625q0-0.951-1.475-1.575t-2.775-0.625-2.775 0.625-1.475 1.575q1.5 2.3 4.251 2.3zM20 11.451q-0.9 0-1.525 0.625t-0.625 1.525 0.625 1.525 1.525 0.625 1.525-0.625 0.625-1.525-0.625-1.525-1.525-0.625zM20 9.349q3.1 0 5.275 2.175t2.175 5.275q0 1.549-0.775 3.549t-1.875 3.751-2.175 3.275-1.825 2.425l-0.8 0.849q-0.3-0.349-0.8-0.925t-1.8-2.3-2.275-3.351-1.775-3.675-0.8-3.6q0-3.1 2.175-5.275t5.275-2.175z"></path>
</svg>
