<!-- Generated by IcoMoon.io -->
<svg version="1.1" xmlns="http://www.w3.org/2000/svg" width="40" height="40" viewBox="0 0 40 40">
<title>mt-party_mode</title>
<path d="M20 25.351q2.2 0 3.775-1.575t1.575-3.775q0-0.451-0.1-1.051h-2.251q0.2 0.7 0.2 1.051 0 1.3-0.951 2.251t-2.251 0.949h-4.251q1.651 2.151 4.251 2.151zM20 14.651q-2.2 0-3.775 1.575t-1.575 3.775q0 0.449 0.1 1.051h2.251q-0.2-0.7-0.2-1.051 0-1.3 0.949-2.251t2.251-0.949h4.251q-1.649-2.151-4.251-2.151zM28.551 11.451q0.849 0 1.475 0.649t0.625 1.5v12.8q0 0.851-0.625 1.5t-1.475 0.651h-17.1q-0.851 0-1.475-0.651t-0.625-1.5v-12.8q0-0.851 0.625-1.5t1.475-0.649h3.4l1.951-2.1h6.4l1.951 2.1h3.4z"></path>
</svg>
