<!-- Generated by IcoMoon.io -->
<svg version="1.1" xmlns="http://www.w3.org/2000/svg" width="40" height="40" viewBox="0 0 40 40">
<title>mt-phone_bluetooth_speaker</title>
<path d="M28.551 23.751q0.449 0 0.751 0.3t0.3 0.751v3.751q0 0.449-0.3 0.751t-0.751 0.3q-7.5 0-12.825-5.325t-5.325-12.825q0-0.451 0.3-0.751t0.751-0.3h3.751q0.451 0 0.751 0.3t0.3 0.751v0.049q0 2.049 0.6 3.751 0.1 0.2 0.1 0.349 0 0.5-0.349 0.751l-2.349 2.349q1 1.9 3.075 3.975t3.975 3.075l2.351-2.351q0.351-0.349 0.751-0.349 0.149 0 0.351 0.1 1.8 0.6 3.8 0.6zM26.4 14.9v2l1-1zM26.4 10.3v2l1-1zM22.9 17.349l-0.751-0.751 2.951-3-2.951-3 0.751-0.751 2.451 2.451v-4.049h0.5l3.049 3.049-2.3 2.3 2.3 2.3-3.049 3.051h-0.5v-4.051z"></path>
</svg>
