<!-- Generated by IcoMoon.io -->
<svg version="1.1" xmlns="http://www.w3.org/2000/svg" width="40" height="40" viewBox="0 0 40 40">
<title>mt-pivot_table_chart</title>
<path d="M22.149 21.051l4.249-4.251 4.251 4.251h-3.2v1.7q0 1.949-1.375 3.325t-3.325 1.375h-1.7v3.2l-4.251-4.251 4.251-4.249v3.2h1.7q1.051 0 1.825-0.751t0.775-1.851v-1.7h-3.2zM12.551 29.6q-0.851 0-1.5-0.651t-0.649-1.5v-9.6h5.349v11.751h-3.2zM10.4 15.751v-3.2q0-0.851 0.649-1.5t1.5-0.649h3.2v5.349h-5.349zM17.849 15.751v-5.349h9.6q0.851 0 1.5 0.649t0.651 1.5v3.2h-11.751z"></path>
</svg>
