<!-- Generated by IcoMoon.io -->
<svg version="1.1" xmlns="http://www.w3.org/2000/svg" width="40" height="40" viewBox="0 0 40 40">
<title>mt-reduce_capacity</title>
<path d="M24.251 11.451q0-0.851 0.625-1.475t1.525-0.625 1.525 0.625 0.625 1.475q0 0.9-0.625 1.525t-1.525 0.625-1.525-0.625-0.625-1.525zM29.351 15.3q-0.651-0.3-1.4-0.475t-1.551-0.175q-1.049 0-2.049 0.3 1 0.951 1 2.3v0.6h5.3v-0.6q0-0.651-0.349-1.175t-0.949-0.775zM13.6 13.6q0.9 0 1.525-0.625t0.625-1.525q0-0.851-0.625-1.475t-1.525-0.625-1.525 0.625-0.625 1.475q0 0.9 0.625 1.525t1.525 0.625zM15.651 14.949q-1-0.3-2.049-0.3-0.8 0-1.551 0.175t-1.4 0.475q-0.6 0.251-0.951 0.775t-0.351 1.175v0.6h5.3v-0.6q0-1.349 1-2.3zM17.849 11.451q0-0.851 0.625-1.475t1.525-0.625 1.525 0.625 0.625 1.475q0 0.9-0.625 1.525t-1.525 0.625-1.525-0.625-0.625-1.525zM24.251 17.849h-8.5v-0.6q0-0.651 0.349-1.175t0.951-0.775q0.649-0.3 1.4-0.475t1.551-0.175 1.551 0.175 1.4 0.475q0.6 0.251 0.951 0.775t0.351 1.175v0.6zM23.2 24.251q0-0.851 0.625-1.475t1.525-0.625q0.849 0 1.475 0.625t0.625 1.475q0 0.9-0.625 1.525t-1.475 0.625q-0.9 0-1.525-0.625t-0.625-1.525zM29.6 30.649h-8.551v-0.6q0-0.651 0.375-1.175t0.925-0.775q0.7-0.3 1.451-0.475t1.551-0.175 1.525 0.175 1.425 0.475q0.6 0.251 0.949 0.775t0.351 1.175v0.6zM12.551 24.251q0-0.851 0.625-1.475t1.475-0.625q0.9 0 1.525 0.625t0.625 1.475q0 0.9-0.625 1.525t-1.525 0.625q-0.851 0-1.475-0.625t-0.625-1.525zM18.949 30.649h-8.549v-0.6q0-0.651 0.349-1.175t0.951-0.775q0.7-0.3 1.425-0.475t1.525-0.175 1.549 0.175 1.451 0.475q0.549 0.251 0.925 0.775t0.375 1.175v0.6zM20.8 21.051v-2.1h-1.6v2.1h-2.4l3.2 3.2 3.2-3.2h-2.4z"></path>
</svg>
