<!-- Generated by IcoMoon.io -->
<svg version="1.1" xmlns="http://www.w3.org/2000/svg" width="40" height="40" viewBox="0 0 40 40">
<title>mt-router</title>
<path d="M23.2 26.4v-2.149h-2.149v2.149h2.149zM19.449 26.4v-2.149h-2.1v2.149h2.1zM15.751 26.4v-2.149h-2.151v2.149h2.151zM27.449 21.051q0.851 0 1.5 0.649t0.651 1.5v4.251q0 0.851-0.651 1.5t-1.5 0.651h-14.9q-0.851 0-1.5-0.651t-0.651-1.5v-4.251q0-0.849 0.651-1.5t1.5-0.649h10.649v-4.251h2.151v4.251h2.1zM27.8 14.349l-0.851 0.849q-1.051-1.049-2.7-1.049-1.6 0-2.649 1.049l-0.851-0.849q1.5-1.5 3.5-1.5 2.051 0 3.551 1.5zM28.751 13.5q-2.051-1.8-4.5-1.8-2.4 0-4.449 1.8l-0.851-0.849q2.251-2.251 5.3-2.251 3.1 0 5.351 2.251z"></path>
</svg>
