<!-- Generated by IcoMoon.io -->
<svg version="1.1" xmlns="http://www.w3.org/2000/svg" width="40" height="40" viewBox="0 0 40 40">
<title>mt-run_circle</title>
<path d="M20 9.349q-2.2 0-4.125 0.825t-3.4 2.3-2.3 3.4-0.825 4.125 0.825 4.125 2.3 3.4 3.4 2.3 4.125 0.825 4.125-0.825 3.4-2.3 2.3-3.4 0.825-4.125-0.825-4.125-2.3-3.4-3.4-2.3-4.125-0.825zM21.6 13.6q0.451 0 0.751 0.325t0.3 0.725q0 0.451-0.3 0.775t-0.751 0.325-0.751-0.325-0.3-0.775q0-0.4 0.3-0.725t0.751-0.325zM24.251 20q-0.551 0-1.449-0.449t-1.651-1.451l-0.4 2.549 1.4 1.5v4.251h-1.1v-3.8l-1.151-1.3-0.551 2.8-4.049-0.8 0.2-1.051 3 0.6 1-5.2-1.651 0.6v1.749h-1.049v-2.5l3.5-1.3q0.4-0.149 0.775 0.025t0.575 0.525q0.449 0.9 0.975 1.375t0.975 0.651 0.649 0.175v1.049z"></path>
</svg>
