<!-- Generated by IcoMoon.io -->
<svg version="1.1" xmlns="http://www.w3.org/2000/svg" width="40" height="40" viewBox="0 0 40 40">
<title>mt-redeem</title>
<path d="M28.551 22.149v-6.4h-5.451l2.251 3-1.751 1.251q-3.2-4.349-3.6-4.9-0.4 0.549-3.6 4.9l-1.751-1.251 2.251-3h-5.451v6.4h17.1zM28.551 27.449v-2.1h-17.1v2.1h17.1zM16.8 11.451q-0.451 0-0.751 0.325t-0.3 0.775 0.3 0.751 0.751 0.3 0.751-0.3 0.3-0.751-0.3-0.775-0.751-0.325zM23.2 11.451q-0.449 0-0.751 0.325t-0.3 0.775 0.3 0.751 0.751 0.3 0.751-0.3 0.3-0.751-0.3-0.775-0.751-0.325zM28.551 13.6q0.9 0 1.5 0.625t0.6 1.525v11.7q0 0.9-0.6 1.525t-1.5 0.625h-17.1q-0.9 0-1.5-0.625t-0.6-1.525v-11.7q0-0.9 0.6-1.525t1.5-0.625h2.351q-0.2-0.7-0.2-1.049 0-1.3 0.951-2.251t2.251-0.951q1.649 0 2.649 1.4l0.551 0.751 0.551-0.751q0.349-0.6 1.149-1t1.5-0.4q1.3 0 2.251 0.951t0.949 2.249q0 0.349-0.2 1.051h2.351z"></path>
</svg>
