<!-- Generated by IcoMoon.io -->
<svg version="1.1" xmlns="http://www.w3.org/2000/svg" width="40" height="40" viewBox="0 0 40 40">
<title>mt-settings_backup_restore</title>
<path d="M20 10.4q4 0 6.8 2.8t2.8 6.8-2.8 6.8-6.8 2.8q-1.349 0-3.051-0.575t-2.8-1.425l1.5-1.5q1.9 1.349 4.349 1.349 3.1 0 5.275-2.175t2.175-5.275-2.175-5.275-5.275-2.175-5.275 2.175-2.175 5.275h3.2l-4.3 4.251-4.251-4.251h3.2q0-4 2.8-6.8t6.8-2.8zM22.149 20q0 0.851-0.649 1.5t-1.5 0.649-1.5-0.649-0.651-1.5 0.651-1.5 1.5-0.651 1.5 0.651 0.649 1.5z"></path>
</svg>
