<!-- Generated by IcoMoon.io -->
<svg version="1.1" xmlns="http://www.w3.org/2000/svg" width="40" height="40" viewBox="0 0 40 40">
<title>mt-smoking_rooms</title>
<path d="M24.3 18.1q1.551 0 2.625 0.951t1.075 2.4v1.751h-1.6v-1.4q0-1-0.625-1.575t-1.475-0.575h-1.649q-1.451 0-2.5-1.075t-1.049-2.525 1.049-2.5 2.5-1.049v1.6q-0.851 0-1.4 0.525t-0.551 1.325q0 0.851 0.575 1.5t1.375 0.651h1.649zM27.3 15.449q1.5 0.7 2.425 2.151t0.925 3.2v2.4h-1.6v-2.4q0-1.8-1.225-3.051t-3.025-1.251v-1.6q0.8 0 1.375-0.575t0.575-1.425q0-0.8-0.575-1.375t-1.375-0.575v-1.6q1.449 0 2.5 1.051t1.051 2.5q0 1.5-1.051 2.549zM26.4 24.251h1.6v3.2h-1.6v-3.2zM29.051 24.251h1.6v3.2h-1.6v-3.2zM9.349 24.251h16v3.2h-16v-3.2z"></path>
</svg>
