<!-- Generated by IcoMoon.io -->
<svg version="1.1" xmlns="http://www.w3.org/2000/svg" width="40" height="40" viewBox="0 0 40 40">
<title>mt-sick</title>
<path d="M29.6 16.8q-0.9 0-1.525-0.625t-0.625-1.525q0-0.4 0.325-1.125t0.751-1.425 0.751-1.2l0.325-0.5 0.325 0.5t0.751 1.2 0.751 1.425 0.325 1.125q0 0.9-0.625 1.525t-1.525 0.625zM25.851 14.651q0-0.551 0.3-1.3t0.7-1.5q-1.4-1.2-3.151-1.849t-3.7-0.651q-2.2 0-4.151 0.825t-3.4 2.3-2.275 3.4-0.825 4.125 0.825 4.125 2.275 3.4 3.4 2.3 4.151 0.825 4.125-0.825 3.4-2.3 2.3-3.4 0.825-4.125q0-0.449-0.025-0.875t-0.125-0.875q-0.2 0.1-0.425 0.125t-0.475 0.025q-1.051 0-1.875-0.5t-1.351-1.349-0.525-1.9zM23.851 15.051l1.149 1.149-1.149 1.151 1.149 1.1-1.149 1.151-2.251-2.251zM15 16.2l1.151-1.149 2.251 2.3-2.251 2.251-1.151-1.151 1.151-1.1zM23.649 25.351q-0.549-0.951-1.5-1.551t-2.151-0.6-2.149 0.6-1.5 1.551h-1.8q0.449-1.2 1.4-2.151l-3.151-1.8q-0.8 0.451-1.6 0-0.6-0.349-0.751-0.975t0.149-1.225q0.351-0.6 0.975-0.751t1.225 0.151q0.4 0.251 0.6 0.625t0.2 0.775l3.8 2.2q1.2-0.6 2.6-0.6 1.849 0 3.325 1.049t2.125 2.7h-1.8z"></path>
</svg>
