<!-- Generated by IcoMoon.io -->
<svg version="1.1" xmlns="http://www.w3.org/2000/svg" width="40" height="40" viewBox="0 0 40 40">
<title>mt-surround_sound</title>
<path d="M20 17.849q0.851 0 1.5 0.651t0.649 1.5-0.649 1.5-1.5 0.649-1.5-0.649-0.651-1.5 0.651-1.5 1.5-0.651zM26.051 26.051q2.5-2.5 2.5-6.051v-0.051q0-1.449-0.725-3.225t-1.775-2.775l-1.551 1.551q1.9 1.9 1.9 4.5 0 2.7-1.849 4.551zM20 24.251q1.751 0 3-1.251t1.251-3-1.251-3-3-1.251-3 1.251-1.251 3 1.251 3 3 1.251zM15.5 24.5q-1.9-1.9-1.9-4.5 0-2.7 1.849-4.551l-1.5-1.5q-2.5 2.5-2.5 6.051v0.051q0 1.449 0.725 3.225t1.775 2.775zM28.551 11.451q0.849 0 1.475 0.649t0.625 1.5v12.8q0 0.851-0.625 1.5t-1.475 0.651h-17.1q-0.851 0-1.475-0.651t-0.625-1.5v-12.8q0-0.851 0.625-1.5t1.475-0.649h17.1z"></path>
</svg>
