<!-- Generated by IcoMoon.io -->
<svg version="1.1" xmlns="http://www.w3.org/2000/svg" width="40" height="40" viewBox="0 0 40 40">
<title>mt-swipe</title>
<path d="M28.649 11.349l2-2v5.3h-5.3l2.2-2.2q-0.849-1.1-2.9-1.851t-4.651-0.751-4.649 0.751-2.9 1.851l2.2 2.2h-5.3v-5.3l2 2q1.2-1.4 3.525-2.251t5.125-0.851 5.125 0.851 3.525 2.251zM28.251 24.551v0.2l-0.8 5.6q-0.1 0.6-0.525 1t-1.025 0.4h-7.251q-0.6 0-1.1-0.5l-5.3-5.251 0.851-0.851q0.349-0.351 0.849-0.351h0.251l3.651 0.8v-11.451q0-0.651 0.475-1.125t1.125-0.475 1.125 0.475 0.475 1.125v6.4h0.851q0.149 0 0.551 0.1l4.849 2.4q0.951 0.449 0.951 1.5z"></path>
</svg>
