<!-- Generated by IcoMoon.io -->
<svg version="1.1" xmlns="http://www.w3.org/2000/svg" width="40" height="40" viewBox="0 0 40 40">
<title>mt-strikethrough_s</title>
<path d="M17.2 21.2q0 2.7 3.1 2.7 2.449 0 2.449-1.8 0-0.8-0.325-1.151t-1.175-0.751q-0.051 0-0.175-0.049t-0.225-0.1-0.2-0.051h-10.251v-2.149h19.2v2.149h-4.151q0 0.051 0.075 0.175t0.125 0.175q0.349 0.849 0.349 1.751 0 3.049-3.349 4-1.051 0.3-2.3 0.3-0.8 0-1.551-0.149-1.8-0.351-2.8-1.1-1.949-1.451-1.949-3.951h3.149zM22.751 15.2q0-2.249-2.551-2.249-1.8 0-2.349 1.1-0.151 0.3-0.151 0.7 0 0.751 0.8 1.3 0.8 0.5 1.5 0.751h-4.9q0-0.051-0.1-0.125t-0.1-0.125q-0.4-0.651-0.4-1.8 0-1.849 1.6-3.149 1.551-1.2 4.151-1.2 2.649 0 4.149 1.351 1.549 1.4 1.549 3.451h-3.2z"></path>
</svg>
