<!-- Generated by IcoMoon.io -->
<svg version="1.1" xmlns="http://www.w3.org/2000/svg" width="40" height="40" viewBox="0 0 40 40">
<title>mt-settings_system_daydream</title>
<path d="M29.6 27.5v-15h-19.2v15h19.2zM29.6 10.4q0.849 0 1.5 0.649t0.649 1.5v14.9q0 0.849-0.649 1.5t-1.5 0.651h-19.2q-0.851 0-1.5-0.651t-0.651-1.5v-14.9q0-0.849 0.651-1.5t1.5-0.649h19.2zM16.8 24.251q-1.3 0-2.251-0.949t-0.949-2.251q0-1.2 0.825-2.125t2.025-1.025h0.2q1.049-2.151 3.349-2.151 1.4 0 2.449 0.925t1.251 2.275h0.051q1.1 0 1.875 0.775t0.775 1.875-0.775 1.875-1.875 0.775h-6.949z"></path>
</svg>
