<!-- Generated by IcoMoon.io -->
<svg version="1.1" xmlns="http://www.w3.org/2000/svg" width="40" height="40" viewBox="0 0 40 40">
<title>mt-score</title>
<path d="M27.449 21.051v-2.651l-6.4 6.4-4.251-4.251-4.251 4.251v2.649l4.251-4.251 4.251 4.251zM14.651 14.949v4h4.3v-1.6h-2.7v-0.8h2.7v-4h-4.3v1.6h2.7v0.8h-2.7zM20 12.551v6.4h1.6v-3.2l2.149 3.2h1.8l-2.151-3.2 2.151-3.2h-1.8l-2.149 3.2v-3.2h-1.6zM27.449 10.4q0.851 0 1.5 0.649t0.651 1.5v14.9q0 0.849-0.651 1.5t-1.5 0.651h-14.9q-0.851 0-1.5-0.651t-0.651-1.5v-14.9q0-0.849 0.651-1.5t1.5-0.649h14.9z"></path>
</svg>
