<!-- Generated by IcoMoon.io -->
<svg version="1.1" xmlns="http://www.w3.org/2000/svg" width="40" height="40" viewBox="0 0 40 40">
<title>mt-snooze</title>
<path d="M16.8 18.949v-2.149h6.4v1.9l-3.849 4.5h3.849v2.151h-6.4v-1.951l3.849-4.451h-3.849zM20 28.551q3.1 0 5.275-2.2t2.175-5.3-2.175-5.275-5.275-2.175-5.275 2.175-2.175 5.275 2.175 5.3 5.275 2.2zM20 11.451q4 0 6.8 2.825t2.8 6.775-2.8 6.775-6.8 2.825-6.8-2.825-2.8-6.775 2.8-6.775 6.8-2.825zM30.649 13.3l-1.349 1.649-4.9-4.149 1.351-1.6zM15.6 10.8l-4.9 4.1-1.351-1.6 4.9-4.1z"></path>
</svg>
