<!-- Generated by IcoMoon.io -->
<svg version="1.1" xmlns="http://www.w3.org/2000/svg" width="40" height="40" viewBox="0 0 40 40">
<title>mt-timer_3</title>
<path d="M25.9 18.349q-0.649 0-1.1 0.3t-0.449 0.849v0.051q0 0.6 1 0.949 0.349 0.149 0.9 0.251t1.451 0.4q0.4 0.149 1.1 0.6 0.349 0.251 0.651 0.8 0.251 0.5 0.251 1.049 0 1.851-2.2 2.6-0.6 0.2-1.549 0.2-2.8 0-3.651-1.949-0.251-0.6-0.251-1.1h2q0 0.649 0.575 1.075t1.375 0.425q1.651 0 1.651-1.149 0-0.3-0.151-0.525t-0.3-0.3-0.5-0.225q-0.251-0.1-1.051-0.3-1.4-0.3-2.4-0.951-0.9-0.6-0.9-1.8 0-1.9 2.1-2.6 0.6-0.2 1.449-0.2 1.751 0 2.751 0.849 1 0.8 1 2.1h-2.1q0-1-0.949-1.251-0.6-0.151-0.7-0.151zM17.949 19.849q2.1 0.7 2.1 2.9 0 1.851-1.2 2.751-1.151 1-3 1t-3.025-0.949-1.175-2.651h2.149q0 1 0.551 1.4 0.651 0.5 1.5 0.5 2.1 0 2.1-2.051t-2.3-2.051h-1.3v-1.649h1.251q1.6 0 2.049-1.151 0.1-0.251 0.1-0.8 0-1.9-1.9-1.9-1.3 0-1.8 1-0.149 0.3-0.149 0.751h-2.1q0-2.251 2.4-3.2 0.851-0.251 1.651-0.251 1.9 0 2.951 0.9t1.049 2.7-1.9 2.751z"></path>
</svg>
