<!-- Generated by IcoMoon.io -->
<svg version="1.1" xmlns="http://www.w3.org/2000/svg" width="40" height="40" viewBox="0 0 40 40">
<title>mt-touch_app</title>
<path d="M27.3 24.149q0.949 0.451 0.949 1.451v0.2l-0.8 5.651q-0.051 0.6-0.5 0.975t-1.051 0.375h-7.249q-0.651 0-1.1-0.449l-5.3-5.3 0.849-0.849q0.351-0.351 0.851-0.351 0.051 0 0.125 0.025t0.125 0.025l3.649 0.751v-11.449q0-0.7 0.475-1.151t1.125-0.451 1.125 0.451 0.475 1.151v6.4h0.849q0.151 0 0.551 0.1zM16.8 19.2q-2.151-1.4-2.151-4 0-2 1.4-3.4t3.4-1.4 3.4 1.4 1.4 3.4q0 2.651-2.1 4v-4q0-1.1-0.8-1.875t-1.9-0.775-1.875 0.775-0.775 1.875v4z"></path>
</svg>
