<!-- Generated by IcoMoon.io -->
<svg version="1.1" xmlns="http://www.w3.org/2000/svg" width="40" height="40" viewBox="0 0 40 40">
<title>mt-unsubscribe</title>
<path d="M20 18.4l7.449-3.751v-2.1l-7.449 3.7-7.449-3.7v2.1zM21.649 25.351h-9.1q-0.851 0-1.5-0.651t-0.651-1.5v-10.651q0-0.849 0.651-1.5t1.5-0.649h14.9q0.851 0 1.5 0.649t0.651 1.5v7.651q-1.351-0.751-2.651-0.751-2.2 0-3.775 1.575t-1.575 3.775q0 0.1 0.025 0.275t0.025 0.275zM29.051 25.351v-1.1h-4.251v1.1h4.251zM26.949 21.051q1.551 0 2.625 1.1t1.075 2.651-1.075 2.649-2.625 1.1-2.649-1.1-1.1-2.649 1.1-2.651 2.649-1.1z"></path>
</svg>
