<!-- Generated by IcoMoon.io -->
<svg version="1.1" xmlns="http://www.w3.org/2000/svg" width="40" height="40" viewBox="0 0 40 40">
<title>mt-view_week</title>
<path d="M21.051 12.551q0.449 0 0.775 0.3t0.325 0.751v12.8q0 0.451-0.325 0.751t-0.775 0.3h-3.2q-0.451 0-0.751-0.3t-0.3-0.751v-12.8q0-0.449 0.3-0.751t0.751-0.3h3.2zM28.551 12.551q0.449 0 0.751 0.3t0.3 0.751v12.8q0 0.451-0.3 0.751t-0.751 0.3h-3.2q-0.451 0-0.775-0.3t-0.325-0.751v-12.8q0-0.449 0.325-0.751t0.775-0.3h3.2zM13.6 12.551q0.451 0 0.751 0.3t0.3 0.751v12.8q0 0.451-0.3 0.751t-0.751 0.3h-3.2q-0.451 0-0.751-0.3t-0.3-0.751v-12.8q0-0.449 0.3-0.751t0.751-0.3h3.2z"></path>
</svg>
