<!-- Generated by IcoMoon.io -->
<svg version="1.1" xmlns="http://www.w3.org/2000/svg" width="40" height="40" viewBox="0 0 40 40">
<title>mt-wifi_off</title>
<path d="M16.8 25.351q1.349-1.351 3.2-1.351t3.2 1.351l-3.2 3.2zM9.349 10.451l1.351-1.351 18.1 18.1-1.351 1.349-7.549-7.549q-1.251 0-2.8 0.649t-2.451 1.551l-2.1-2.1v-0.049q1.949-1.951 4.7-2.7l-2.4-2.349q-2.451 1-4.449 2.951l-2.149-2.151q1.951-1.949 4.349-3.1zM27.449 21.051l-1 1.049-3.8-3.751q2.851 0.751 4.8 2.7zM31.7 16.8l-2.1 2.149q-4.2-4.3-10.3-3.951l-2.651-2.7q4.049-0.851 8.025 0.3t7.025 4.2z"></path>
</svg>
