<!-- Generated by IcoMoon.io -->
<svg version="1.1" xmlns="http://www.w3.org/2000/svg" width="40" height="40" viewBox="0 0 40 40">
<title>mt-weekend</title>
<path d="M26.4 12.551q0.851 0 1.5 0.625t0.651 1.475v2.3q-0.949 0.351-1.551 1.151t-0.6 1.849v2.2h-12.8v-2.2q0-1.049-0.6-1.849t-1.551-1.151v-2.3q0-0.849 0.649-1.475t1.5-0.625h12.8zM29.6 17.849q0.849 0 1.5 0.651t0.649 1.5v5.351q0 0.849-0.649 1.475t-1.5 0.625h-19.2q-0.851 0-1.5-0.625t-0.651-1.475v-5.351q0-0.849 0.651-1.5t1.5-0.651 1.5 0.651 0.649 1.5v3.2h14.9v-3.2q0-0.849 0.651-1.5t1.5-0.651z"></path>
</svg>
