<!-- Generated by IcoMoon.io -->
<svg version="1.1" xmlns="http://www.w3.org/2000/svg" width="24" height="24" viewBox="0 0 24 24">
<title>nature_people</title>
<path d="M6 11.212q-0.525 0-0.863-0.356t-0.337-0.844 0.337-0.844 0.863-0.356 0.863 0.356 0.337 0.844-0.337 0.844-0.863 0.356zM20.138 9.75q0 2.063-1.444 3.675t-3.506 1.875v3.112h2.4v1.575h-12.787v-3.975h-0.787v-3.225q0-0.337 0.225-0.563t0.563-0.225h2.4q0.337 0 0.563 0.225t0.225 0.563v3.225h-0.788v2.4h6.413v-3.15q-1.95-0.3-3.319-1.913t-1.369-3.6q0-2.325 1.65-3.975t3.975-1.65 3.956 1.65 1.631 3.975z"></path>
</svg>
