<!-- Generated by IcoMoon.io -->
<svg version="1.1" xmlns="http://www.w3.org/2000/svg" width="24" height="24" viewBox="0 0 24 24">
<title>next_week</title>
<path d="M11.212 17.212l3.188-3.225-3.188-3.188-0.825 0.787 2.4 2.4-2.4 2.4zM10.387 6.413v1.575h3.225v-1.575h-3.225zM13.612 4.8q0.638 0 1.106 0.469t0.469 1.144v1.575h3.225q0.637 0 1.106 0.488t0.469 1.125v8.813q0 0.637-0.469 1.106t-1.106 0.469h-12.825q-0.638 0-1.106-0.469t-0.469-1.106v-8.813q0-0.638 0.469-1.125t1.106-0.488h3.225v-1.575q0-0.638 0.469-1.125t1.106-0.487h3.225z"></path>
</svg>
