<!-- Generated by IcoMoon.io -->
<svg version="1.1" xmlns="http://www.w3.org/2000/svg" width="24" height="24" viewBox="0 0 24 24">
<title>nights_stay</title>
<path d="M7.988 15.188q0.637 0 1.125 0.487t0.488 1.125-0.488 1.125-1.125 0.488h-2.4q-0.975 0-1.688-0.712t-0.713-1.688 0.713-1.688 1.688-0.713q1.687 0 2.25 1.575h0.15zM11.288 12.075q1.237 2.4 3.431 3.45t3.956 0.863q-1.087 1.688-2.85 2.662t-3.825 0.975q-1.275 0-2.512-0.413 1.725-0.975 1.725-2.813 0-1.012-0.675-1.894t-1.65-1.181q-1.238-1.725-3.3-1.725-0.863 0-1.575 0.337 0-0.038-0.019-0.15t-0.019-0.188q0-3.225 2.25-5.55t5.475-2.438q-0.563 0.862-0.938 1.875t-0.356 2.775 0.881 3.412z"></path>
</svg>
