<!-- Generated by IcoMoon.io -->
<svg version="1.1" xmlns="http://www.w3.org/2000/svg" width="24" height="24" viewBox="0 0 24 24">
<title>no_encryption</title>
<path d="M9.525 7.2v0.975l-1.462-1.463q0.188-1.5 1.294-2.512t2.644-1.012q1.65 0 2.831 1.181t1.181 2.831v1.613h0.787q0.638 0 1.125 0.469t0.488 1.106v6.675l-8.288-8.25h4.35v-1.613q0-1.012-0.731-1.744t-1.744-0.731-1.744 0.731-0.731 1.744zM19.2 19.837l-0.975 0.975-0.9-0.9q-0.3 0.075-0.525 0.075h-9.6q-0.637 0-1.125-0.469t-0.488-1.106v-8.025q0-0.938 0.863-1.387l-1.65-1.613 0.975-0.975z"></path>
</svg>
