<!-- Generated by IcoMoon.io -->
<svg version="1.1" xmlns="http://www.w3.org/2000/svg" width="24" height="24" viewBox="0 0 24 24">
<title>notifications_on</title>
<path d="M12 19.987q-0.675 0-1.144-0.469t-0.469-1.106h3.188q0 0.675-0.45 1.125t-1.125 0.45zM16.8 11.212v3.975l1.613 1.612v0.788h-12.825v-0.788l1.613-1.612v-3.975q0-1.875 0.956-3.262t2.644-1.8v-0.563q0-0.487 0.338-0.844t0.862-0.356 0.863 0.356 0.337 0.844v0.563q1.688 0.413 2.644 1.8t0.956 3.262zM18.375 10.8q-0.075-1.35-0.9-2.85t-1.913-2.287l1.125-1.125q3.112 2.4 3.3 6.262h-1.612zM8.475 5.662q-1.088 0.787-1.931 2.287t-0.919 2.85h-1.613q0.188-3.863 3.3-6.262z"></path>
</svg>
