<!-- Generated by IcoMoon.io -->
<svg version="1.1" xmlns="http://www.w3.org/2000/svg" width="24" height="24" viewBox="0 0 24 24">
<title>offline_share</title>
<path d="M16.8 15.188v-9.6h-6.412v9.6h6.412zM16.8 3.188q0.638 0 1.125 0.488t0.488 1.125v11.213q0 0.637-0.488 1.106t-1.125 0.469h-6.412q-0.638 0-1.106-0.469t-0.469-1.106v-11.213q0-0.638 0.469-1.125t1.106-0.488h6.412zM15.188 20.813h-7.988q-0.637 0-1.125-0.487t-0.487-1.125v-12.788h1.612v12.788h7.988v1.612zM14.063 10.613q-1.875 0-2.85 1.313 0.525-2.475 2.85-2.813v-1.050l1.95 1.8-1.95 1.8v-1.050z"></path>
</svg>
