<!-- Generated by IcoMoon.io -->
<svg version="1.1" xmlns="http://www.w3.org/2000/svg" width="24" height="24" viewBox="0 0 24 24">
<title>panorama_wide_angle</title>
<path d="M12 5.588q2.888 0 6.375 0.6l0.712 0.113 0.225 0.712q0.675 2.475 0.675 4.988t-0.675 4.987l-0.225 0.713-0.712 0.112q-3.487 0.6-6.375 0.6t-6.375-0.6l-0.713-0.112-0.225-0.713q-0.675-2.475-0.675-4.987t0.675-4.987l0.225-0.712 0.713-0.113q3.488-0.6 6.375-0.6zM12 7.2q-2.625 0-5.85 0.525-0.563 2.175-0.563 4.275t0.563 4.275q3.225 0.525 5.85 0.525t5.85-0.525q0.563-2.175 0.563-4.275t-0.563-4.275q-3.225-0.525-5.85-0.525z"></path>
</svg>
