<!-- Generated by IcoMoon.io -->
<svg version="1.1" xmlns="http://www.w3.org/2000/svg" width="24" height="24" viewBox="0 0 24 24">
<title>pets</title>
<path d="M16.275 14.288l0.638 0.637t0.319 0.338 0.3 0.356 0.281 0.356 0.244 0.375 0.188 0.413 0.113 0.431 0.037 0.45-0.019 0.469q-0.413 1.575-1.875 1.875-0.263 0.038-1.819-0.15t-2.606-0.188h-0.15q-1.050 0-2.606 0.188t-1.819 0.15q-1.462-0.3-1.875-1.875-0.113-0.75 0.262-1.538t0.694-1.125 1.144-1.162q0.375-0.412 0.994-1.162t0.994-1.163q0.675-0.825 1.388-1.050 0.15-0.075 0.262-0.075 0.225-0.038 0.637-0.038 0.45 0 0.638 0.038 0.112 0 0.262 0.075 0.713 0.225 1.388 1.050 0.337 0.413 0.975 1.163t1.013 1.162zM16.013 10.012q0-0.825 0.581-1.425t1.406-0.6 1.406 0.6 0.581 1.425-0.581 1.406-1.406 0.581-1.406-0.581-0.581-1.406zM12.413 6.788q0-0.825 0.581-1.406t1.406-0.581 1.406 0.581 0.581 1.406-0.581 1.425-1.406 0.6-1.406-0.6-0.581-1.425zM7.613 6.788q0-0.825 0.581-1.406t1.406-0.581 1.406 0.581 0.581 1.406-0.581 1.425-1.406 0.6-1.406-0.6-0.581-1.425zM4.012 10.012q0-0.825 0.581-1.425t1.406-0.6 1.406 0.6 0.581 1.425-0.581 1.406-1.406 0.581-1.406-0.581-0.581-1.406z"></path>
</svg>
