<!-- Generated by IcoMoon.io -->
<svg version="1.1" xmlns="http://www.w3.org/2000/svg" width="24" height="24" viewBox="0 0 24 24">
<title>phone_enabled</title>
<path d="M16.313 11.025l-1.763-1.762q-0.338-0.337-0.188-0.825 0.45-1.35 0.45-2.85 0-0.338 0.225-0.563t0.563-0.225h2.813q0.337 0 0.563 0.225t0.225 0.563q0 5.625-3.994 9.619t-9.619 3.994q-0.338 0-0.563-0.225t-0.225-0.563v-2.813q0-0.337 0.225-0.563t0.563-0.225q1.5 0 2.85-0.45 0.45-0.188 0.825 0.188l1.762 1.762q3.487-1.8 5.288-5.287z"></path>
</svg>
