<!-- Generated by IcoMoon.io -->
<svg version="1.1" xmlns="http://www.w3.org/2000/svg" width="24" height="24" viewBox="0 0 24 24">
<title>phone_disabled</title>
<path d="M14.025 16.275q-1.5 1.2-3.975 2.063t-4.425 0.863h-0.037q-0.338 0-0.563-0.225t-0.225-0.563v-2.813q0-0.337 0.225-0.563t0.563-0.225q1.5 0 2.85-0.45 0.45-0.188 0.825 0.188l1.762 1.762q1.125-0.6 1.838-1.162l-9.337-9.375 1.125-1.125 14.7 14.7-1.125 1.125zM16.275 14.025l-1.162-1.125q0.713-0.938 1.2-1.875l-1.763-1.762q-0.338-0.337-0.188-0.825 0.45-1.35 0.45-2.85 0-0.338 0.225-0.563t0.563-0.225h2.813q0.337 0 0.563 0.225t0.225 0.563q0 4.725-2.925 8.437z"></path>
</svg>
