<!-- Generated by IcoMoon.io -->
<svg version="1.1" xmlns="http://www.w3.org/2000/svg" width="24" height="24" viewBox="0 0 24 24">
<title>phone_callback</title>
<path d="M18.525 5.363l-5.063 5.025h3.337v0.825h-4.8v-4.8h0.787v3.413l5.175-5.025zM7.688 11.025q1.8 3.488 5.288 5.288l1.762-1.763q0.375-0.375 0.825-0.188 1.35 0.45 2.85 0.45 0.338 0 0.563 0.225t0.225 0.563v2.813q0 0.337-0.225 0.563t-0.563 0.225q-5.625 0-9.619-3.994t-3.994-9.619q0-0.338 0.225-0.563t0.563-0.225h2.813q0.337 0 0.563 0.225t0.225 0.563q0 1.5 0.45 2.85 0.15 0.487-0.188 0.825z"></path>
</svg>
