<!-- Generated by IcoMoon.io -->
<svg version="1.1" xmlns="http://www.w3.org/2000/svg" width="24" height="24" viewBox="0 0 24 24">
<title>phonelink_ring</title>
<path d="M13.612 18.413v-12.825h-8.025v12.825h8.025zM13.612 3.188q0.638 0 1.106 0.488t0.469 1.125v14.4q0 0.637-0.469 1.125t-1.106 0.487h-8.025q-0.638 0-1.106-0.487t-0.469-1.125v-14.4q0-0.638 0.469-1.125t1.106-0.488h8.025zM16.8 10.238q0.75 0.787 0.75 1.762t-0.75 1.688l-0.787-0.825q0.675-0.938 0-1.838zM18.487 8.55q1.5 1.425 1.5 3.431t-1.5 3.394l-0.825-0.825q1.087-1.162 1.087-2.644t-1.087-2.531z"></path>
</svg>
