<!-- Generated by IcoMoon.io -->
<svg version="1.1" xmlns="http://www.w3.org/2000/svg" width="24" height="24" viewBox="0 0 24 24">
<title>qr_code_scanner</title>
<path d="M10.012 7.613v2.4h-2.4v-2.4h2.4zM11.212 6.413h-4.8v4.8h4.8v-4.8zM10.012 13.987v2.4h-2.4v-2.4h2.4zM11.212 12.788h-4.8v4.8h4.8v-4.8zM16.388 7.613v2.4h-2.4v-2.4h2.4zM17.587 6.413h-4.8v4.8h4.8v-4.8zM12.788 12.788h1.2v1.2h-1.2v-1.2zM13.987 13.987h1.2v1.2h-1.2v-1.2zM15.188 12.788h1.2v1.2h-1.2v-1.2zM12.788 15.188h1.2v1.2h-1.2v-1.2zM13.987 16.388h1.2v1.2h-1.2v-1.2zM15.188 15.188h1.2v1.2h-1.2v-1.2zM16.388 13.987h1.2v1.2h-1.2v-1.2zM16.388 16.388h1.2v1.2h-1.2v-1.2zM19.987 7.988h-1.575v-2.4h-2.4v-1.575h3.975v3.975zM19.987 19.987v-3.975h-1.575v2.4h-2.4v1.575h3.975zM4.012 19.987h3.975v-1.575h-2.4v-2.4h-1.575v3.975zM4.012 4.012v3.975h1.575v-2.4h2.4v-1.575h-3.975z"></path>
</svg>
