<!-- Generated by IcoMoon.io -->
<svg version="1.1" xmlns="http://www.w3.org/2000/svg" width="24" height="24" viewBox="0 0 24 24">
<title>recommend</title>
<path d="M16.8 11.887v-0.675q0-0.337-0.225-0.581t-0.563-0.244h-3.675l0.45-2.7v-0.188q0-0.337-0.225-0.563l-0.563-0.525-3.675 3.975q-0.338 0.262-0.338 0.75v4.050q0 0.675 0.469 1.144t1.144 0.469h4.462q0.675 0 0.975-0.637l1.688-3.938q0.075-0.15 0.075-0.337zM12 4.012q3.3 0 5.644 2.344t2.344 5.644-2.344 5.644-5.644 2.344-5.644-2.344-2.344-5.644 2.344-5.644 5.644-2.344z"></path>
</svg>
