<!-- Generated by IcoMoon.io -->
<svg version="1.1" xmlns="http://www.w3.org/2000/svg" width="24" height="24" viewBox="0 0 24 24">
<title>request_quote</title>
<path d="M13.612 4.012h-6.413q-0.675 0-1.125 0.469t-0.45 1.106l-0.037 12.825q0 0.637 0.469 1.106t1.144 0.469h9.6q0.675 0 1.144-0.469t0.469-1.106v-9.6zM14.4 12h-3.188v0.788h2.4q0.3 0 0.544 0.244t0.244 0.581v2.4q0 0.3-0.244 0.544t-0.544 0.244h-0.825v0.788h-1.575v-0.788h-1.613v-1.612h3.188v-0.788h-2.4q-0.3 0-0.544-0.244t-0.244-0.544v-2.4q0-0.337 0.244-0.581t0.544-0.244h0.825v-0.787h1.575v0.787h1.612v1.613zM12.788 8.813v-3.6l3.6 3.6h-3.6z"></path>
</svg>
