<!-- Generated by IcoMoon.io -->
<svg version="1.1" xmlns="http://www.w3.org/2000/svg" width="24" height="24" viewBox="0 0 24 24">
<title>ring_volume</title>
<path d="M7.538 10.238q-2.775-2.775-2.85-2.813l1.125-1.163 2.85 2.85zM12.788 4.012v3.975h-1.575v-3.975h1.575zM19.313 7.425l-2.85 2.813-1.125-1.125 2.85-2.85zM21.375 15.75q0.225 0.225 0.225 0.563t-0.225 0.563l-1.987 1.987q-0.225 0.225-0.563 0.225t-0.563-0.225q-1.050-0.975-2.138-1.5-0.45-0.188-0.45-0.712v-2.475q-1.725-0.563-3.675-0.563t-3.675 0.563v2.475q0 0.563-0.45 0.75-1.2 0.563-2.137 1.462-0.225 0.225-0.563 0.225t-0.563-0.225l-1.987-1.987q-0.225-0.225-0.225-0.563t0.225-0.563q3.937-3.75 9.375-3.75 2.25 0 4.987 1.106t4.388 2.644z"></path>
</svg>
