<!-- Generated by IcoMoon.io -->
<svg version="1.1" xmlns="http://www.w3.org/2000/svg" width="24" height="24" viewBox="0 0 24 24">
<title>screen_lock_rotation</title>
<path d="M15.825 4.387v0.413h2.737v-0.413q0-0.562-0.394-0.956t-0.956-0.394-0.975 0.394-0.412 0.956zM15.188 9.6q-0.337 0-0.563-0.225t-0.225-0.563v-3.225q0-0.338 0.225-0.563t0.563-0.225v-0.413q0-0.825 0.6-1.406t1.425-0.581 1.406 0.581 0.581 1.406v0.413q0.337 0 0.563 0.225t0.225 0.563v3.225q0 0.337-0.225 0.563t-0.563 0.225h-4.012zM9.188 18.788l1.050-1.050 3.037 3.038-0.525 0.038q-3.75 0-6.506-2.55t-3.056-6.262h1.2q0.188 1.987 1.594 3.975t3.206 2.813zM21 12.6q0.375 0.337 0.375 0.844t-0.375 0.881l-5.1 5.063q-0.337 0.375-0.825 0.375t-0.863-0.375l-9.6-9.6q-0.375-0.375-0.375-0.863 0-0.45 0.375-0.825l5.063-5.1q0.338-0.338 0.863-0.338t0.862 0.338l1.95 1.95-1.125 1.125-1.688-1.65-4.538 4.5 9.075 9.075 4.5-4.538-1.763-1.762 1.125-1.125z"></path>
</svg>
