<!-- Generated by IcoMoon.io -->
<svg version="1.1" xmlns="http://www.w3.org/2000/svg" width="24" height="24" viewBox="0 0 24 24">
<title>settings_power</title>
<path d="M14.4 21.6v-1.613h1.613v1.613h-1.613zM15.638 5.963q2.775 1.95 2.775 5.25 0 2.625-1.875 4.5t-4.538 1.875-4.538-1.875-1.875-4.5q0-1.387 0.806-2.925t1.969-2.325l1.125 1.125q-2.288 1.425-2.288 4.125 0 1.988 1.406 3.394t3.394 1.406 3.394-1.406 1.406-3.394q0-1.125-0.675-2.325t-1.65-1.762zM12.788 4.012v7.988h-1.575v-7.988h1.575zM11.212 21.6v-1.613h1.575v1.613h-1.575zM7.988 21.6v-1.613h1.613v1.613h-1.613z"></path>
</svg>
