<!-- Generated by IcoMoon.io -->
<svg version="1.1" xmlns="http://www.w3.org/2000/svg" width="24" height="24" viewBox="0 0 24 24">
<title>settings_input_svideo</title>
<path d="M14.813 14.4q0.487 0 0.844 0.338t0.356 0.862-0.356 0.863-0.844 0.337-0.844-0.337-0.356-0.863 0.356-0.862 0.844-0.338zM16.388 10.387q0.487 0 0.844 0.356t0.356 0.844-0.356 0.844-0.844 0.356-0.844-0.356-0.356-0.844 0.356-0.844 0.844-0.356zM12 19.2q3 0 5.1-2.1t2.1-5.1-2.1-5.1-5.1-2.1-5.1 2.1-2.1 5.1 2.1 5.1 5.1 2.1zM12 3.188q3.638 0 6.225 2.588t2.587 6.225-2.587 6.225-6.225 2.587-6.225-2.587-2.588-6.225 2.588-6.225 6.225-2.588zM9.188 14.4q0.488 0 0.844 0.338t0.356 0.862-0.356 0.863-0.844 0.337-0.844-0.337-0.356-0.863 0.356-0.862 0.844-0.338zM14.4 7.613q0 0.488-0.337 0.844t-0.862 0.356h-2.4q-0.525 0-0.862-0.356t-0.338-0.844 0.338-0.844 0.862-0.356h2.4q0.525 0 0.862 0.356t0.337 0.844zM8.813 11.587q0 0.488-0.356 0.844t-0.844 0.356-0.844-0.356-0.356-0.844 0.356-0.844 0.844-0.356 0.844 0.356 0.356 0.844z"></path>
</svg>
