<!-- Generated by IcoMoon.io -->
<svg version="1.1" xmlns="http://www.w3.org/2000/svg" width="24" height="24" viewBox="0 0 24 24">
<title>shopping_basket</title>
<path d="M12 16.013q0.638 0 1.125-0.488t0.487-1.125-0.487-1.125-1.125-0.487-1.125 0.487-0.488 1.125 0.488 1.125 1.125 0.488zM9.6 9.6h4.8l-2.4-3.525zM16.163 9.6h3.825q0.338 0 0.581 0.225t0.244 0.563q-0.375 1.5-1.125 4.219t-0.938 3.431q-0.337 1.163-1.537 1.163h-10.425q-1.2 0-1.537-1.163l-2.025-7.425q-0.038-0.075-0.038-0.225 0-0.337 0.244-0.563t0.581-0.225h3.825l3.488-5.25q0.225-0.338 0.675-0.338 0.488 0 0.675 0.338z"></path>
</svg>
