<!-- Generated by IcoMoon.io -->
<svg version="1.1" xmlns="http://www.w3.org/2000/svg" width="24" height="24" viewBox="0 0 24 24">
<title>shop_two</title>
<path d="M12 14.4l4.388-3.188-4.388-2.4v5.587zM12 4.8v1.612h3.188v-1.612h-3.188zM16.8 6.413h4.013v8.775q0 0.675-0.469 1.144t-1.144 0.469h-11.213q-0.675 0-1.125-0.469t-0.45-1.144v-8.775h3.975v-1.612q0-0.675 0.469-1.144t1.144-0.469h3.188q0.675 0 1.144 0.469t0.469 1.144v1.612zM4.8 9.6v8.813h12.788q0 0.675-0.45 1.125t-1.125 0.45h-11.213q-0.675 0-1.144-0.45t-0.469-1.125v-8.813h1.613z"></path>
</svg>
