<!-- Generated by IcoMoon.io -->
<svg version="1.1" xmlns="http://www.w3.org/2000/svg" width="24" height="24" viewBox="0 0 24 24">
<title>shopping_bag</title>
<path d="M16.8 7.2h-1.612q0-0.9-0.431-1.612t-1.144-1.144-1.612-0.431-1.613 0.431-1.144 1.144-0.431 1.612h-1.613q-0.675 0-1.144 0.469t-0.469 1.144v9.6q0 0.637 0.469 1.106t1.144 0.469h9.6q0.675 0 1.144-0.469t0.469-1.106v-9.6q0-0.675-0.469-1.144t-1.144-0.469zM10.387 10.387q0 0.338-0.225 0.581t-0.563 0.244-0.563-0.244-0.225-0.581v-1.575h1.575v1.575zM12 5.588q0.675 0 1.144 0.469t0.469 1.144h-3.225q0-0.675 0.469-1.144t1.144-0.469zM15.188 10.387q0 0.338-0.225 0.581t-0.563 0.244-0.563-0.244-0.225-0.581v-1.575h1.575v1.575z"></path>
</svg>
