<!-- Generated by IcoMoon.io -->
<svg version="1.1" xmlns="http://www.w3.org/2000/svg" width="24" height="24" viewBox="0 0 24 24">
<title>shutter_speed</title>
<path d="M13.050 8.137l-2.175 3.75-1.838-2.85q1.35-1.050 2.962-1.050 0.375 0 1.050 0.15zM15.487 16.087l-2.25-4.087h3.487q0.075 0.525 0.075 0.788v0.037q0 0.787-0.375 1.744t-0.937 1.519zM8.438 9.6l2.625 4.012h-3.788q-0.075-0.525-0.075-0.825 0-0.75 0.356-1.688t0.881-1.5zM10.875 17.475l2.288-3.938 1.688 3.113q-1.238 0.938-2.85 0.938-0.563 0-1.125-0.113zM16.538 11.212h-4.313l1.612-2.85q0.825 0.338 1.631 1.181t1.069 1.669zM11.738 14.4l-1.613 2.813q-0.825-0.337-1.594-1.163t-1.069-1.65h4.275zM12 18.413q2.325 0 3.956-1.65t1.631-3.975-1.631-3.956-3.956-1.631-3.956 1.631-1.631 3.956 1.631 3.975 3.956 1.65zM17.625 8.325q0.638 0.825 1.106 2.119t0.469 2.344q0 2.962-2.1 5.081t-5.1 2.119-5.1-2.119-2.1-5.081 2.1-5.081 5.1-2.119q1.013 0 2.344 0.487t2.156 1.125l1.125-1.163q0.6 0.488 1.125 1.125zM14.4 3.188v1.613h-4.8v-1.613h4.8z"></path>
</svg>
