<!-- Generated by IcoMoon.io -->
<svg version="1.1" xmlns="http://www.w3.org/2000/svg" width="24" height="24" viewBox="0 0 24 24">
<title>signal_wifi_4_bar_lock</title>
<path d="M14.813 13.987v2.1l-2.813 3.525-9.262-11.625 0.225-0.188q0.225-0.15 0.469-0.319t0.656-0.431 0.881-0.488 1.069-0.506 1.275-0.488 1.406-0.394 1.575-0.281 1.706-0.094 1.706 0.094 1.575 0.281 1.406 0.394 1.275 0.488 1.069 0.506 0.881 0.488 0.656 0.431 0.469 0.319l0.225 0.188-1.65 2.1q-0.225-0.075-0.825-0.075-1.688 0-2.831 1.144t-1.144 2.831zM19.987 15.188v-1.2q0-0.487-0.356-0.844t-0.844-0.356-0.844 0.356-0.356 0.844v1.2h2.4zM20.813 15.188q0.3 0 0.544 0.263t0.244 0.563v3.188q0 0.3-0.244 0.544t-0.544 0.244h-4.013q-0.3 0-0.544-0.244t-0.244-0.544v-3.188q0-0.3 0.244-0.563t0.544-0.263v-1.2q0-0.862 0.563-1.425t1.425-0.563 1.444 0.581 0.581 1.406v1.2z"></path>
</svg>
