<!-- Generated by IcoMoon.io -->
<svg version="1.1" xmlns="http://www.w3.org/2000/svg" width="24" height="24" viewBox="0 0 24 24">
<title>smoking_rooms</title>
<path d="M15.225 10.575q1.163 0 1.969 0.713t0.806 1.8v1.313h-1.2v-1.050q0-0.75-0.469-1.181t-1.106-0.431h-1.237q-1.088 0-1.875-0.806t-0.787-1.894 0.787-1.875 1.875-0.787v1.2q-0.638 0-1.050 0.394t-0.413 0.994q0 0.638 0.431 1.125t1.031 0.488h1.237zM17.475 8.587q1.125 0.525 1.819 1.613t0.694 2.4v1.8h-1.2v-1.8q0-1.35-0.919-2.288t-2.269-0.938v-1.2q0.6 0 1.031-0.431t0.431-1.069q0-0.6-0.431-1.031t-1.031-0.431v-1.2q1.087 0 1.875 0.788t0.788 1.875q0 1.125-0.788 1.912zM16.8 15.188h1.2v2.4h-1.2v-2.4zM18.788 15.188h1.2v2.4h-1.2v-2.4zM4.012 15.188h12v2.4h-12v-2.4z"></path>
</svg>
