<!-- Generated by IcoMoon.io -->
<svg version="1.1" xmlns="http://www.w3.org/2000/svg" width="24" height="24" viewBox="0 0 24 24">
<title>soap</title>
<path d="M9.712 6.413l-5.775 5.438q-0.75 0.675-0.75 1.725v4.838q0 0.637 0.338 1.181t0.881 0.881 1.181 0.337h11.025q0.413 0 0.694-0.3t0.281-0.713-0.281-0.712-0.694-0.3h-4.612v-0.787h6.188q0.413 0 0.712-0.3t0.3-0.712-0.3-0.694-0.712-0.281h-6.188v-0.825h7.013q0.412 0 0.694-0.281t0.281-0.694-0.281-0.712-0.694-0.3h-7.013v-0.787h5.4q0.413 0 0.712-0.3t0.3-0.712-0.3-0.713-0.712-0.3h-7.912q0.262-0.45 0.544-0.919t0.469-0.806l0.188-0.337q0.113-0.225 0.113-0.45 0-0.3-0.225-0.563l-0.131-0.131t-0.3-0.319-0.3-0.319l-0.131-0.131zM13.612 7.387q0.225 0 0.412 0.188t0.188 0.413q0 0.262-0.188 0.431t-0.412 0.169q-0.263 0-0.431-0.169t-0.169-0.431q0-0.225 0.169-0.413t0.431-0.188zM13.612 6.188q-0.75 0-1.275 0.525t-0.525 1.275 0.525 1.275 1.275 0.525 1.275-0.525 0.525-1.275-0.525-1.275-1.275-0.525v0zM18.188 6.788q0.188 0 0.3 0.131t0.113 0.281-0.113 0.281-0.3 0.131q-0.15 0-0.263-0.131t-0.112-0.281 0.112-0.281 0.263-0.131zM18.188 5.588q-0.638 0-1.106 0.469t-0.469 1.144 0.469 1.144 1.106 0.469q0.675 0 1.144-0.469t0.469-1.144-0.469-1.144-1.144-0.469v0zM15.6 3.188q-0.488 0-0.844 0.356t-0.356 0.844q0 0.525 0.356 0.863t0.844 0.338 0.844-0.338 0.356-0.863q0-0.487-0.356-0.844t-0.844-0.356z"></path>
</svg>
