<!-- Generated by IcoMoon.io -->
<svg version="1.1" xmlns="http://www.w3.org/2000/svg" width="24" height="24" viewBox="0 0 24 24">
<title>speaker_phone</title>
<path d="M14.4 18.413v-6.413h-4.8v6.413h4.8zM14.288 10.425q0.375 0 0.637 0.262t0.263 0.637v7.762q0 0.375-0.263 0.638t-0.637 0.262h-4.575q-0.375 0-0.637-0.262t-0.262-0.638v-7.762q0-0.375 0.262-0.656t0.637-0.281zM12 3.188q1.5 0 3.3 0.75t2.888 1.838l-1.125 1.125q-2.1-2.1-5.063-2.1t-5.063 2.1l-1.125-1.125q2.587-2.588 6.188-2.588zM7.988 8.063q1.65-1.65 4.012-1.65t4.013 1.65l-1.163 1.125q-1.163-1.163-2.85-1.163t-2.85 1.163z"></path>
</svg>
