<!-- Generated by IcoMoon.io -->
<svg version="1.1" xmlns="http://www.w3.org/2000/svg" width="24" height="24" viewBox="0 0 24 24">
<title>speed</title>
<path d="M12 15.188q-0.637 0-1.125-0.469t-0.488-1.106q0-0.675 0.488-1.162l6.788-4.5-4.538 6.788q-0.45 0.45-1.125 0.45zM18.712 9.262q0.525 0.825 0.9 2.1t0.375 2.25q0 2.213-1.050 3.975-0.487 0.825-1.388 0.825h-11.1q-0.9 0-1.388-0.825-1.050-1.762-1.050-3.975 0-3.3 2.344-5.644t5.681-2.344q0.975 0 2.231 0.375t2.081 0.9l-1.5 0.975q-1.35-0.675-2.85-0.675-2.625 0-4.519 1.875t-1.894 4.537q0 1.725 0.863 3.187h11.1q0.863-1.462 0.863-3.187 0-1.537-0.675-2.887z"></path>
</svg>
