<!-- Generated by IcoMoon.io -->
<svg version="1.1" xmlns="http://www.w3.org/2000/svg" width="24" height="24" viewBox="0 0 24 24">
<title>sports_bar</title>
<path d="M17.587 9.6h-1.237q0.225-0.338 0.337-0.75t0.112-0.863q0-0.863-0.431-1.594t-1.162-1.163-1.594-0.431q-0.375 0-0.787 0.112-0.488-0.412-1.106-0.656t-1.331-0.244q-1.125 0-2.044 0.6t-1.369 1.575q-0.938 0.3-1.556 1.125t-0.619 1.875q0 1.125 0.675 1.969t1.725 1.144v6.9h8.813v-1.613h1.575q0.675 0 1.144-0.469t0.469-1.106v-4.8q0-0.675-0.469-1.144t-1.144-0.469zM7.988 10.8q-0.638 0-1.106-0.469t-0.469-1.144q0-0.488 0.3-0.9t0.788-0.6l0.637-0.225 0.3-0.6q0.262-0.563 0.787-0.9t1.163-0.338q0.488 0 0.844 0.169t0.544 0.356l0.638 0.487 0.338-0.112t0.825-0.113q0.675 0 1.144 0.469t0.469 1.106h-2.4q-0.787 0-1.35 0.281t-0.994 0.713-0.787 0.844-0.75 0.694-0.919 0.281zM17.587 16.013h-1.575v-4.8h1.575v4.8z"></path>
</svg>
