<!-- Generated by IcoMoon.io -->
<svg version="1.1" xmlns="http://www.w3.org/2000/svg" width="24" height="24" viewBox="0 0 24 24">
<title>switch_account</title>
<path d="M18.413 15.188v-1.2q0-1.050-1.65-1.725t-3.15-0.675-3.15 0.675-1.65 1.725v1.2h9.6zM13.612 5.588q-0.975 0-1.688 0.713t-0.713 1.688 0.713 1.688 1.688 0.712 1.688-0.712 0.713-1.688-0.713-1.688-1.688-0.713zM18.413 4.012q0.637 0 1.106 0.469t0.469 1.106v9.6q0 0.638-0.469 1.125t-1.106 0.487h-9.6q-0.637 0-1.125-0.487t-0.488-1.125v-9.6q0-0.638 0.488-1.106t1.125-0.469h9.6zM5.588 7.2v11.212h11.212v1.575h-11.212q-0.638 0-1.106-0.469t-0.469-1.106v-11.212h1.575z"></path>
</svg>
