<!-- Generated by IcoMoon.io -->
<svg version="1.1" xmlns="http://www.w3.org/2000/svg" width="24" height="24" viewBox="0 0 24 24">
<title>table_view</title>
<path d="M17.587 7.988h-7.987q-0.675 0-1.144 0.469t-0.469 1.144v7.988q0 0.675 0.469 1.144t1.144 0.469h7.987q0.675 0 1.144-0.469t0.469-1.144v-7.988q0-0.675-0.469-1.144t-1.144-0.469zM17.587 9.6v1.612h-7.987v-1.612h7.987zM12.788 14.4v-1.612h1.612v1.612h-1.612zM14.4 16.013v1.575h-1.612v-1.575h1.612zM11.212 14.4h-1.612v-1.612h1.612v1.612zM16.013 12.788h1.575v1.612h-1.575v-1.612zM9.6 16.013h1.612v1.575h-1.612v-1.575zM16.013 17.587v-1.575h1.575v1.575h-1.575zM7.2 16.013h-0.787q-0.675 0-1.144-0.469t-0.469-1.144v-7.988q0-0.675 0.469-1.144t1.144-0.469h7.987q0.675 0 1.144 0.469t0.469 1.144v0.788h-1.613v-0.788h-7.987v7.988h0.787v1.613z"></path>
</svg>
