<!-- Generated by IcoMoon.io -->
<svg version="1.1" xmlns="http://www.w3.org/2000/svg" width="40" height="40" viewBox="0 0 40 40">
<title>th-basketball</title>
<path d="M20.030 4c-8.823 0-16 7.177-16 16s7.177 16 16 16 16-7.177 16-16-7.179-16-16-16zM28.45 19.059c0.184-2.748 1.158-5.374 2.818-7.567 1.619 2.133 2.643 4.734 2.831 7.567h-5.649zM34.099 20.941c-0.188 2.833-1.212 5.436-2.833 7.569-1.658-2.195-2.632-4.821-2.814-7.569h5.647zM30.025 10.040c-2.059 2.581-3.262 5.722-3.458 9.018h-5.626v-13.131c3.537 0.23 6.728 1.749 9.084 4.113zM19.059 5.931v13.128h-5.572c-0.192-3.298-1.395-6.438-3.452-9.018 2.342-2.351 5.51-3.868 9.024-4.109zM5.96 19.059c0.188-2.833 1.212-5.436 2.833-7.569 1.658 2.193 2.63 4.819 2.814 7.569h-5.647zM11.605 20.941c-0.183 2.752-1.152 5.376-2.812 7.569-1.621-2.133-2.645-4.736-2.833-7.569h5.645zM10.033 29.96c2.061-2.581 3.262-5.72 3.454-9.018h5.572v13.128c-3.514-0.241-6.682-1.758-9.026-4.109zM20.941 34.072v-13.131h5.628c0.194 3.296 1.397 6.438 3.454 9.020-2.357 2.362-5.545 3.881-9.082 4.111z"></path>
</svg>
