<!-- Generated by IcoMoon.io -->
<svg version="1.1" xmlns="http://www.w3.org/2000/svg" width="40" height="40" viewBox="0 0 40 40">
<title>th-cup</title>
<path d="M35.998 5.882h-4.248c0.002-0.316 0.015-0.617 0.015-0.941v-0.941h-23.529v0.941c0 0.301 0.008 0.627 0.009 0.941h-4.243l-0.002 0.939c-0.006 2.044 0.117 4.139 0.367 6.231 0.663 5.528 2.392 11.936 5.261 13.34 0.365 0.181 0.744 0.271 1.122 0.271 0.448 0 0.902-0.128 1.331-0.388l0.393-0.264c1.568 2.404 3.708 4.026 6.584 4.326v3.78h-5.559v1.882h13.176v-1.882h-5.736v-3.759c2.664-0.28 4.866-1.76 6.575-4.352l0.44 0.292c0.407 0.245 0.841 0.365 1.282 0.365 0.378 0 0.76-0.090 1.133-0.273 2.869-1.404 4.599-7.812 5.261-13.34 0.25-2.089 0.373-4.186 0.367-6.231l-0.002-0.937zM11.507 24.393l-0.431 0.29c-0.211 0.124-0.384 0.132-0.617 0.019-1.478-0.725-3.403-5.035-4.222-11.876-0.203-1.694-0.318-3.392-0.346-5.062h2.396c0.183 5.504 0.966 12.175 3.373 16.858l-0.152-0.23zM20 28.548c-8.546 0-9.786-15.153-9.877-22.665h19.753c-0.092 8.887-1.577 22.665-9.877 22.665zM33.764 12.826c-0.821 6.84-2.744 11.151-4.222 11.876-0.232 0.115-0.407 0.109-0.58 0.006l-0.471-0.314-0.218 0.328c2.031-3.836 3.213-9.536 3.447-16.956h2.392c-0.030 1.67-0.145 3.368-0.348 5.062z"></path>
</svg>
