<!-- Generated by IcoMoon.io -->
<svg version="1.1" xmlns="http://www.w3.org/2000/svg" width="40" height="40" viewBox="0 0 40 40">
<title>th-face-smile</title>
<path d="M20 4c-8.823 0-16 7.177-16 16s7.177 16 16 16 16-7.177 16-16-7.177-16-16-16zM20 34.118c-7.785 0-14.118-6.332-14.118-14.118s6.332-14.118 14.118-14.118 14.118 6.332 14.118 14.118-6.332 14.118-14.118 14.118zM28.471 20.941c0 4.67-3.8 8.471-8.471 8.471s-8.471-3.8-8.471-8.471c0-0.52 0.422-0.941 0.941-0.941s0.941 0.422 0.941 0.941c0 3.633 2.955 6.588 6.588 6.588s6.588-2.955 6.588-6.588c0-0.52 0.422-0.941 0.941-0.941s0.941 0.422 0.941 0.941zM12.471 14.353c0-1.039 0.843-1.882 1.882-1.882s1.882 0.843 1.882 1.882-0.843 1.882-1.882 1.882-1.882-0.843-1.882-1.882zM23.765 14.353c0-1.039 0.843-1.882 1.882-1.882s1.882 0.843 1.882 1.882-0.843 1.882-1.882 1.882-1.882-0.843-1.882-1.882z"></path>
</svg>
