<!-- Generated by IcoMoon.io -->
<svg version="1.1" xmlns="http://www.w3.org/2000/svg" width="40" height="40" viewBox="0 0 40 40">
<title>th-game</title>
<path d="M20.941 11.507v-5.624h-1.882v5.624c-6.709 0.198-15.059 2.413-15.059 4.681v13.254c0 1.557 1.267 2.824 2.824 2.824h3.369l3.757-7.4c1.067 0.196 3.224 0.516 5.973 0.516 2.784 0 5.071-0.328 6.189-0.521l3.592 7.405h3.473c1.557 0 2.824-1.267 2.824-2.824v-13.254c0-2.268-8.352-4.486-15.059-4.681zM34.118 29.442c0 0.518-0.424 0.941-0.941 0.941h-2.293l-3.72-7.661-0.727 0.16c-0.028 0.006-2.852 0.619-6.517 0.619-3.654 0-6.24-0.608-6.266-0.616l-0.723-0.175-3.893 7.671h-2.216c-0.518 0-0.941-0.424-0.941-0.941v-13.016c0.945-0.823 6.362-2.857 13.176-3.032v0.021h1.882v-0.024c6.812 0.177 12.232 2.212 13.176 3.034v13.020zM13.412 17.214h1.879v1.882h-1.879v1.92h-1.882v-1.92h-1.882v-1.882h1.882v-1.92h1.882v1.92zM27.529 20.979c1.557 0 2.824-1.267 2.824-2.824s-1.267-2.824-2.824-2.824-2.824 1.265-2.824 2.824 1.267 2.824 2.824 2.824zM27.529 17.214c0.518 0 0.941 0.424 0.941 0.941s-0.424 0.941-0.941 0.941-0.941-0.424-0.941-0.941 0.424-0.941 0.941-0.941z"></path>
</svg>
