<!-- Generated by IcoMoon.io -->
<svg version="1.1" xmlns="http://www.w3.org/2000/svg" width="40" height="40" viewBox="0 0 40 40">
<title>th-headphone</title>
<path d="M34.082 19.219c-0.361-8.457-6.53-15.219-14.082-15.219s-13.72 6.761-14.082 15.219c-1.111 0.378-1.918 1.423-1.918 2.664v7.529c0 1.557 1.261 2.824 2.812 2.824h2.835v-1.882h1.882v-9.412h-1.882v-1.882h-1.841c0.424-7.345 5.722-13.176 12.194-13.176s11.77 5.832 12.194 13.176h-1.841v1.882h-1.882v9.412h1.882v1.882h2.835c1.551 0 2.812-1.267 2.812-2.824v-7.529c0-1.24-0.808-2.285-1.918-2.664zM7.765 30.353h-0.952c-0.512 0-0.93-0.424-0.93-0.941v-7.529c0-0.518 0.418-0.941 0.93-0.941h0.952v9.412zM34.118 29.412c0 0.518-0.418 0.941-0.93 0.941h-0.952v-9.412h0.952c0.512 0 0.93 0.424 0.93 0.941v7.529z"></path>
</svg>
