<!-- Generated by IcoMoon.io -->
<svg version="1.1" xmlns="http://www.w3.org/2000/svg" width="40" height="40" viewBox="0 0 40 40">
<title>th-hand-stop</title>
<path d="M30.353 12.288v13.662c0 1.611-0.634 3.514-1.195 5.192-0.337 1.013-0.687 2.057-0.687 2.505v1.412c0 0.52-0.422 0.941-0.941 0.941s-0.941-0.422-0.941-0.941v-1.412c0-0.753 0.346-1.788 0.785-3.1 0.488-1.468 1.097-3.292 1.097-4.597v-13.662c0-0.518-0.388-0.909-0.9-0.909-0.523 0-0.964 0.395-0.981 0.881 0 0.006-0.004 0.011-0.004 0.017l0.002 7.266c0 0.52-0.422 0.941-0.941 0.941s-0.941-0.422-0.941-0.941l-0.002-7.691c0-0.009 0.006-0.017 0.006-0.028v-2.647c0-0.437-0.264-0.909-0.84-0.909-0.516 0-0.994 0.395-1.024 0.847-0.002 0.024-0.019 0.047-0.023 0.073v8.433c0 0.52-0.422 0.941-0.941 0.941s-0.941-0.42-0.941-0.941v-9.216c0-0.041 0.019-0.079 0.024-0.119v-1.496c0-0.491-0.454-0.907-0.988-0.907-0.525 0-0.936 0.397-0.936 0.907v1.63c0.004 0.028 0.017 0.053 0.017 0.083v0 9.216c0 0.52-0.422 0.941-0.941 0.941s-0.941-0.422-0.941-0.941v0-8.644c0-0.008-0.006-0.013-0.008-0.021-0.062-0.448-0.467-0.787-0.941-0.787-0.525 0-0.951 0.408-0.951 0.909v10.739c0 0.392-0.241 0.742-0.606 0.879-0.36 0.137-0.777 0.038-1.037-0.254l-2.103-2.36c-0.74-0.864-1.235-0.585-1.417-0.48-0.218 0.122-0.375 0.322-0.437 0.559-0.060 0.228-0.026 0.467 0.094 0.672l6.197 13.193c0.087 0.137 0.297 0.292 0.553 0.354 0.424 0.102 0.719 0.48 0.719 0.915v1.666c0 0.52-0.422 0.941-0.941 0.941s-0.941-0.422-0.941-0.941v-1.028c-0.435-0.241-0.796-0.591-1.054-1.026l-6.195-13.195c-0.339-0.563-0.442-1.314-0.252-2.035 0.194-0.728 0.666-1.336 1.329-1.713 1.272-0.717 2.677-0.388 3.765 0.881l0.446 0.501v-8.267c0-1.54 1.271-2.792 2.833-2.792 0.328 0 0.646 0.056 0.941 0.16 0.126-1.425 1.336-2.545 2.807-2.545 1.508 0 2.746 1.137 2.863 2.573 0.322-0.12 0.67-0.188 1.032-0.188 1.527 0 2.722 1.225 2.722 2.792v0.493c0.307-0.111 0.636-0.171 0.979-0.171 1.559-0.002 2.78 1.224 2.78 2.79z"></path>
</svg>
