<!-- Generated by IcoMoon.io -->
<svg version="1.1" xmlns="http://www.w3.org/2000/svg" width="40" height="40" viewBox="0 0 40 40">
<title>th-ink-pen</title>
<path d="M9.647 4v12.233l10.289 17.88 10.417-17.879v-12.235h-20.706zM19.945 30.353h0.004l-0.002 0.004-0.002-0.004zM20 15.294c-1.039 0-1.882-0.845-1.882-1.882s0.843-1.882 1.882-1.882 1.882 0.845 1.882 1.882-0.843 1.882-1.882 1.882zM28.471 15.727l-7.529 12.924v-11.608c1.619-0.42 2.824-1.882 2.824-3.631 0-2.076-1.688-3.765-3.765-3.765s-3.765 1.688-3.765 3.765c0 1.749 1.205 3.211 2.824 3.631v11.772l-7.529-13.086v-9.847h16.941v9.845z"></path>
</svg>
