<!-- Generated by IcoMoon.io -->
<svg version="1.1" xmlns="http://www.w3.org/2000/svg" width="40" height="40" viewBox="0 0 40 40">
<title>th-instagram</title>
<path d="M28.471 4h-16.941c-4.141 0-7.529 3.388-7.529 7.529v16.941c0 4.141 3.388 7.529 7.529 7.529h16.941c4.141 0 7.529-3.388 7.529-7.529v-16.941c0-4.141-3.388-7.529-7.529-7.529zM34.118 28.471c0 3.113-2.534 5.647-5.647 5.647h-16.941c-3.113 0-5.647-2.534-5.647-5.647v-11.294h6.037c-0.538 1.148-0.86 2.415-0.86 3.765 0 4.93 4.011 8.941 8.941 8.941s8.941-4.011 8.941-8.941c0-1.35-0.322-2.616-0.86-3.765h6.037v11.294zM27.059 20.941c0 3.893-3.166 7.059-7.059 7.059s-7.059-3.166-7.059-7.059 3.166-7.059 7.059-7.059 7.059 3.166 7.059 7.059zM26.874 15.294c-1.641-1.993-4.096-3.294-6.874-3.294s-5.233 1.301-6.874 3.294h-7.243v-3.765c0-3.113 2.534-5.647 5.647-5.647h16.941c3.113 0 5.647 2.534 5.647 5.647v3.765h-7.243zM31.208 9.124v2.443c0 0.563-0.459 1.022-1.020 1.022h-2.575c-0.565-0.002-1.024-0.461-1.024-1.022v-2.443c0-0.563 0.459-1.022 1.024-1.022h2.575c0.561 0 1.020 0.459 1.020 1.022z"></path>
</svg>
