<!-- Generated by IcoMoon.io -->
<svg version="1.1" xmlns="http://www.w3.org/2000/svg" width="40" height="40" viewBox="0 0 40 40">
<title>th-layout-grid4-alt</title>
<path d="M5.882 5.882h5.647v5.647h-5.647v-5.647zM13.412 11.529h5.647v-5.647h-5.647v5.647zM20.941 11.529h5.647v-5.647h-5.647v5.647zM28.471 5.882v5.647h5.647v-5.647h-5.647zM5.882 19.059h5.647v-5.647h-5.647v5.647zM13.412 19.059h5.647v-5.647h-5.647v5.647zM20.941 19.059h5.647v-5.647h-5.647v5.647zM28.471 19.059h5.647v-5.647h-5.647v5.647zM5.882 26.588h5.647v-5.647h-5.647v5.647zM13.412 26.588h5.647v-5.647h-5.647v5.647zM20.941 26.588h5.647v-5.647h-5.647v5.647zM28.471 26.588h5.647v-5.647h-5.647v5.647zM5.882 34.118h5.647v-5.647h-5.647v5.647zM13.412 34.118h5.647v-5.647h-5.647v5.647zM20.941 34.118h5.647v-5.647h-5.647v5.647zM28.471 34.118h5.647v-5.647h-5.647v5.647z"></path>
</svg>
