<!-- Generated by IcoMoon.io -->
<svg version="1.1" xmlns="http://www.w3.org/2000/svg" width="40" height="40" viewBox="0 0 40 40">
<title>th-location-pin</title>
<path d="M20 4.941c-5.707 0-10.353 4.644-10.353 10.353 0 8.232 9.248 18.985 9.641 19.441l0.712 0.819 0.712-0.821c0.393-0.454 9.641-11.208 9.641-19.439 0-5.709-4.646-10.353-10.353-10.353zM20 32.64c-2.157-2.68-8.471-11.066-8.471-17.346 0-4.67 3.8-8.471 8.471-8.471s8.471 3.8 8.471 8.471c0 6.274-6.313 14.665-8.471 17.346zM20 9.909c-3.113 0-5.647 2.534-5.647 5.647s2.534 5.647 5.647 5.647 5.647-2.534 5.647-5.647-2.534-5.647-5.647-5.647zM20 19.32c-2.076 0-3.765-1.688-3.765-3.765s1.688-3.765 3.765-3.765 3.765 1.688 3.765 3.765-1.688 3.765-3.765 3.765z"></path>
</svg>
