<!-- Generated by IcoMoon.io -->
<svg version="1.1" xmlns="http://www.w3.org/2000/svg" width="40" height="40" viewBox="0 0 40 40">
<title>th-link</title>
<path d="M28.439 17.064l-1.766 1.766-1.331-1.331 1.766-1.766c1.835-1.835 1.835-4.821 0-6.654s-4.821-1.835-6.654 0l-5.623 5.624c-1.835 1.835-1.835 4.821 0 6.654s4.821 1.835 6.654 0l1.331 1.331c-1.286 1.286-2.97 1.926-4.659 1.926s-3.373-0.642-4.657-1.926c-2.568-2.568-2.568-6.748 0-9.316l5.623-5.623c2.569-2.569 6.746-2.569 9.316 0 2.569 2.566 2.569 6.746 0 9.314zM15.373 19.123l-0.245 0.243 1.327 1.335 0.247-0.245c1.835-1.835 4.821-1.835 6.654 0s1.835 4.821 0 6.654l-5.69 5.694c-1.835 1.835-4.821 1.835-6.654 0s-1.835-4.821 0-6.654l1.992-1.993-1.331-1.331-1.992 1.993c-2.568 2.568-2.568 6.748 0 9.316 1.286 1.286 2.97 1.926 4.659 1.926s3.373-0.642 4.659-1.926l5.69-5.692c2.568-2.568 2.568-6.748 0-9.316-2.571-2.573-6.75-2.568-9.316-0.004z"></path>
</svg>
