<!-- Generated by IcoMoon.io -->
<svg version="1.1" xmlns="http://www.w3.org/2000/svg" width="40" height="40" viewBox="0 0 40 40">
<title>th-microphone-alt</title>
<path d="M25.862 17.216c1.295-1.419 2.108-3.288 2.108-5.359 0-4.395-3.575-7.97-7.97-7.97s-7.97 3.575-7.97 7.97c0 2.071 0.813 3.94 2.108 5.359l2.14 15.019h2.78v3.735h1.882v-3.735h2.78l2.14-15.019zM15.294 8.041v3.488h1.882v-5.033c0.582-0.309 1.21-0.527 1.882-0.632v7.548h1.882v-7.548c0.672 0.105 1.301 0.324 1.882 0.632v5.033h1.882v-3.488c0.851 1.048 1.382 2.364 1.382 3.814 0 3.358-2.731 6.089-6.088 6.089s-6.088-2.729-6.088-6.088c0-1.451 0.531-2.767 1.382-3.816zM17.912 30.353l-1.638-11.49c1.116 0.595 2.372 0.966 3.725 0.966s2.609-0.371 3.725-0.968l-1.638 11.492h-4.175z"></path>
</svg>
