<!-- Generated by IcoMoon.io -->
<svg version="1.1" xmlns="http://www.w3.org/2000/svg" width="40" height="40" viewBox="0 0 40 40">
<title>th-more-alt</title>
<path d="M11.529 19.059c0 2.078-1.687 3.765-3.765 3.765s-3.765-1.687-3.765-3.765 1.687-3.765 3.765-3.765 3.765 1.687 3.765 3.765zM20 15.294c-2.078 0-3.765 1.687-3.765 3.765s1.687 3.765 3.765 3.765 3.765-1.687 3.765-3.765-1.687-3.765-3.765-3.765zM32.235 15.294c-2.078 0-3.765 1.687-3.765 3.765s1.687 3.765 3.765 3.765 3.765-1.687 3.765-3.765-1.687-3.765-3.765-3.765z"></path>
</svg>
