<!-- Generated by IcoMoon.io -->
<svg version="1.1" xmlns="http://www.w3.org/2000/svg" width="40" height="40" viewBox="0 0 40 40">
<title>th-pencil</title>
<path d="M33.231 9.378l-2.641-2.643c-1.064-1.065-2.927-1.065-3.994 0l-17.048 17.050-3.241 9.954 9.879-3.322 17.045-17.047c1.103-1.099 1.103-2.891 0.002-3.992zM9.824 29.024l1.214-3.725 3.64 3.642-3.695 1.242-1.16-1.16zM12.198 23.799l10.34-10.34 3.974 3.972-10.342 10.342-3.972-3.974zM23.868 12.126l1.372-1.372 3.974 3.972-1.372 1.372-3.974-3.972zM31.9 12.040l-1.355 1.355-3.974-3.972 1.355-1.357c0.356-0.356 0.975-0.356 1.331 0l2.641 2.643c0.369 0.369 0.369 0.964 0.002 1.331z"></path>
</svg>
