<!-- Generated by IcoMoon.io -->
<svg version="1.1" xmlns="http://www.w3.org/2000/svg" width="40" height="40" viewBox="0 0 40 40">
<title>th-paint-bucket</title>
<path d="M35.437 22.481l-16.693-16.798-0.252 0.25c-1.257-1.244-2.921-1.931-4.693-1.933 0 0 0 0-0.002 0-1.784 0-3.465 0.696-4.728 1.96-1.265 1.263-1.961 2.942-1.961 4.732 0 1.771 0.689 3.435 1.933 4.693l-4.156 4.158c-0.57 0.572-0.885 1.329-0.885 2.133 0 0.808 0.312 1.562 0.879 2.127l9.056 9.146c0.568 0.568 1.325 0.883 2.129 0.883 0.808 0 1.564-0.316 2.133-0.887l10.462-10.462 6.778-0.002zM8.99 10.69c0-1.284 0.501-2.49 1.41-3.4 0.909-0.907 2.114-1.408 3.398-1.408 0.002 0 0.002 0 0.002 0 1.269 0 2.458 0.493 3.362 1.382l-6.788 6.79c-0.89-0.905-1.384-2.095-1.384-3.364zM16.862 31.616c-0.213 0.213-0.499 0.333-0.8 0.333s-0.585-0.117-0.794-0.328l-6.844-6.916h15.349l-6.91 6.91zM25.655 22.824h-19.096l-0.344-0.35c-0.215-0.213-0.331-0.495-0.331-0.796 0-0.303 0.119-0.587 0.333-0.804l12.525-12.525 12.175 12.252-3.038 0.002-2.223 2.221zM33.53 26.511l-0.766-1.137-0.787 1.126c-0.6 0.86-2.566 3.785-2.566 5.267 0 1.816 1.478 3.294 3.294 3.294s3.294-1.48 3.294-3.296c0-1.472-1.89-4.393-2.47-5.254zM32.706 33.176c-0.777 0-1.412-0.634-1.412-1.412 0-0.452 0.657-1.732 1.442-2.995 0.753 1.261 1.382 2.539 1.382 2.995 0 0.777-0.634 1.412-1.412 1.412z"></path>
</svg>
