<!-- Generated by IcoMoon.io -->
<svg version="1.1" xmlns="http://www.w3.org/2000/svg" width="40" height="40" viewBox="0 0 40 40">
<title>th-pin</title>
<path d="M26.588 12.471c0-3.633-2.955-6.588-6.588-6.588s-6.588 2.955-6.588 6.588c0 3.285 2.424 5.995 5.576 6.485v15.162h1.882v-15.147c3.219-0.429 5.719-3.166 5.719-6.5zM20 17.176c-2.596 0-4.706-2.11-4.706-4.706s2.11-4.706 4.706-4.706 4.706 2.11 4.706 4.706-2.11 4.706-4.706 4.706zM22.824 13.412h-1.882c0-1.039-0.843-1.882-1.882-1.882v-1.882c2.076 0 3.765 1.688 3.765 3.765z"></path>
</svg>
