<!-- Generated by IcoMoon.io -->
<svg version="1.1" xmlns="http://www.w3.org/2000/svg" width="40" height="40" viewBox="0 0 40 40">
<title>th-quote-right</title>
<path d="M17.754 16.917c0-3.663-2.98-6.643-6.643-6.643-3.661 0-6.641 2.98-6.641 6.643 0 3.661 2.98 6.641 6.641 6.641 1.382 0 2.665-0.427 3.729-1.15-2.317 6.532-7.511 7.298-7.78 7.334l0.232 1.867c0.096-0.011 9.647-1.323 10.472-14.539l-0.024-0.002c0.002-0.051 0.015-0.098 0.015-0.151zM11.112 21.677c-2.624 0-4.759-2.135-4.759-4.759s2.135-4.76 4.759-4.76c2.626 0 4.76 2.136 4.76 4.76s-2.135 4.759-4.76 4.759zM35.499 17.067c0.002-0.051 0.015-0.1 0.015-0.151 0-3.663-2.98-6.643-6.641-6.643s-6.641 2.98-6.641 6.643c0 3.661 2.98 6.641 6.641 6.641 1.382 0 2.665-0.427 3.729-1.15-2.315 6.532-7.511 7.298-7.78 7.334l0.232 1.867c0.096-0.011 9.647-1.323 10.472-14.539l-0.026-0.002zM28.873 21.677c-2.624 0-4.759-2.135-4.759-4.759s2.135-4.76 4.759-4.76 4.759 2.136 4.759 4.76-2.135 4.759-4.759 4.759z"></path>
</svg>
