<!-- Generated by IcoMoon.io -->
<svg version="1.1" xmlns="http://www.w3.org/2000/svg" width="40" height="40" viewBox="0 0 40 40">
<title>th-rss</title>
<path d="M22.765 30.353h-1.882c0-6.086-5.041-11.036-11.236-11.036v-1.882c7.234 0 13.118 5.796 13.118 12.919zM9.647 10.588v1.882c10.027 0 17.882 7.855 17.882 17.882h1.882c0-11.083-8.681-19.765-19.765-19.765zM15.294 27.531c0-1.557-1.263-2.825-2.818-2.825-1.56 0-2.829 1.269-2.829 2.825s1.269 2.824 2.829 2.824c1.555 0 2.818-1.267 2.818-2.824zM13.412 27.531c0 0.518-0.42 0.941-0.936 0.941-0.521 0-0.947-0.424-0.947-0.941 0-0.52 0.425-0.943 0.947-0.943 0.516 0 0.936 0.424 0.936 0.943zM36 33.176v-26.353c0-1.557-1.267-2.824-2.824-2.824h-26.353c-1.557 0-2.824 1.267-2.824 2.824v26.353c0 1.557 1.267 2.824 2.824 2.824h26.353c1.557 0 2.824-1.267 2.824-2.824zM33.176 5.882c0.52 0 0.941 0.424 0.941 0.941v26.353c0 0.518-0.422 0.941-0.941 0.941h-26.353c-0.52 0-0.941-0.424-0.941-0.941v-26.353c0-0.518 0.422-0.941 0.941-0.941h26.353z"></path>
</svg>
