<!-- Generated by IcoMoon.io -->
<svg version="1.1" xmlns="http://www.w3.org/2000/svg" width="40" height="40" viewBox="0 0 40 40">
<title>th-ruler-alt-2</title>
<path d="M4 4.552v31.448h31.448l-31.448-31.448zM5.882 9.096l5.566 5.566-1.233 1.233 1.331 1.331 1.233-1.233 1.335 1.335-1.233 1.235 1.331 1.331 1.233-1.233 1.336 1.335-1.233 1.233 1.331 1.331 1.233-1.233 1.336 1.336-1.233 1.233 1.331 1.331 1.233-1.233 1.335 1.335-1.233 1.233 1.331 1.331 1.233-1.233 1.336 1.336-1.233 1.233 1.331 1.331 1.233-1.233 4.792 4.792h-25.022v-25.022zM7.765 32.235h14.507l-14.507-14.507v14.507zM9.647 22.272l8.081 8.081h-8.081v-8.081z"></path>
</svg>
