<!-- Generated by IcoMoon.io -->
<svg version="1.1" xmlns="http://www.w3.org/2000/svg" width="40" height="40" viewBox="0 0 40 40">
<title>th-rss-alt</title>
<path d="M25.032 36h-1.882c0-10.379-8.591-18.824-19.149-18.824v-1.882c11.597 0 21.032 9.289 21.032 20.706zM4 4v1.882c16.888 0 30.118 13.229 30.118 30.118h1.882c0-17.943-14.057-32-32-32zM11.529 32.237c0-2.078-1.687-3.767-3.757-3.767-2.080 0-3.772 1.688-3.772 3.767 0 2.076 1.692 3.763 3.772 3.763 2.071 0 3.757-1.687 3.757-3.763zM9.647 32.237c0 1.037-0.841 1.88-1.875 1.88-1.043 0-1.89-0.843-1.89-1.88 0-1.039 0.847-1.884 1.89-1.884 1.033 0 1.875 0.845 1.875 1.884z"></path>
</svg>
