<!-- Generated by IcoMoon.io -->
<svg version="1.1" xmlns="http://www.w3.org/2000/svg" width="40" height="40" viewBox="0 0 40 40">
<title>th-share-alt</title>
<path d="M14.404 19.49l-7.253-7.255 7.255-7.255 1.331 1.331-4.983 4.983h5.481c5.707 0 10.353 4.644 10.353 10.353 0 2.859-1.199 5.615-3.288 7.569l-1.284-1.374c1.734-1.623 2.69-3.821 2.69-6.195 0-4.67-3.8-8.471-8.471-8.471h-5.481l4.981 4.981-1.331 1.333zM34.118 20.988v12.188c0 0.518-0.424 0.941-0.941 0.941h-26.353c-0.518 0-0.941-0.424-0.941-0.941v-12.179h-1.882v12.179c0 1.557 1.267 2.824 2.824 2.824h26.353c1.557 0 2.824-1.267 2.824-2.824v-12.188h-1.882z"></path>
</svg>
