<!-- Generated by IcoMoon.io -->
<svg version="1.1" xmlns="http://www.w3.org/2000/svg" width="40" height="40" viewBox="0 0 40 40">
<title>th-tumblr</title>
<path d="M28.753 27.881c-1.355 0.9-2.673 1.336-4.030 1.336-0.698 0-1.288-0.154-1.807-0.472-0.32-0.194-0.521-0.42-0.627-0.71-0.098-0.252-0.213-0.983-0.213-3.034v-6.786h7.14v-6.607h-7.138v-7.608h-6.063l-0.105 0.824c-0.181 1.427-0.508 2.618-0.964 3.535-0.461 0.905-1.048 1.656-1.784 2.291-0.749 0.625-1.67 1.122-2.731 1.474l-0.646 0.215v5.877h3.334v9.628c0 1.528 0.164 2.679 0.493 3.49 0.322 0.853 0.932 1.673 1.824 2.445 0.873 0.738 1.892 1.293 3.014 1.645 1.15 0.38 2.477 0.576 3.944 0.576 1.316 0 2.534-0.134 3.603-0.395 1.080-0.247 2.285-0.685 3.68-1.342l0.54-0.254v-7.098l-1.463 0.971zM28.333 32.808c-1.041 0.461-1.948 0.777-2.771 0.968-1.952 0.476-4.661 0.482-6.537-0.141-0.896-0.282-1.696-0.717-2.37-1.286-0.642-0.557-1.075-1.122-1.293-1.7-0.243-0.595-0.363-1.538-0.363-2.803v-11.512h-3.332v-2.656c1.022-0.407 1.929-0.937 2.711-1.591 0.922-0.794 1.679-1.762 2.248-2.88 0.469-0.937 0.809-2.029 1.030-3.324h2.541v7.608h7.14v2.842h-7.14v8.666c0 2.010 0.098 3.087 0.331 3.691 0.247 0.683 0.723 1.242 1.412 1.66 1.749 1.075 4.188 0.945 6.394-0.079v2.536z"></path>
</svg>
