<!-- Generated by IcoMoon.io -->
<svg version="1.1" xmlns="http://www.w3.org/2000/svg" width="40" height="40" viewBox="0 0 40 40">
<title>th-target</title>
<path d="M36.038 19.059h-3.849c-0.461-6.012-5.282-10.814-11.302-11.251v-3.881h-1.882v3.887c-5.971 0.486-10.733 5.269-11.192 11.245h-3.849v1.882h3.849c0.459 5.976 5.222 10.76 11.191 11.245v3.814h1.882v-3.808c6.020-0.435 10.84-5.237 11.302-11.251h3.849v-1.882zM20.887 30.31v-3.721h-1.882v3.716c-4.934-0.474-8.862-4.424-9.31-9.363h3.68v-1.882h-3.68c0.448-4.939 4.376-8.888 9.31-9.363v3.642h1.882v-3.648c4.983 0.427 8.968 4.392 9.419 9.368h-3.68v1.882h3.68c-0.452 4.977-4.437 8.941-9.419 9.368z"></path>
</svg>
