<!-- Generated by IcoMoon.io -->
<svg version="1.1" xmlns="http://www.w3.org/2000/svg" width="40" height="40" viewBox="0 0 40 40">
<title>th-twitter</title>
<path d="M36 10.091c-1.178 0.508-2.456 0.873-3.778 1.015 1.361-0.811 2.396-2.089 2.884-3.612-1.259 0.751-2.68 1.299-4.162 1.583-1.197-1.28-2.903-2.071-4.791-2.071-3.635 0-6.558 2.944-6.558 6.556 0 0.508 0.062 1.016 0.162 1.504-5.442-0.282-10.295-2.882-13.523-6.863-0.568 0.973-0.894 2.091-0.894 3.311 0 2.274 1.158 4.282 2.923 5.461-1.075-0.041-2.091-0.346-2.965-0.832 0 0.019 0 0.060 0 0.081 0 3.185 2.253 5.826 5.259 6.436-0.548 0.141-1.137 0.222-1.726 0.222-0.425 0-0.832-0.040-1.237-0.102 0.832 2.6 3.249 4.488 6.131 4.55-2.255 1.766-5.077 2.801-8.143 2.801-0.548 0-1.056-0.019-1.583-0.079 2.904 1.867 6.355 2.944 10.072 2.944 12.060 0 18.66-9.99 18.66-18.658 0-0.286 0-0.568-0.019-0.855 1.276-0.934 2.392-2.093 3.287-3.392zM30.848 14.336c0 6.967-5.205 16.776-16.777 16.776-0.926 0-1.843-0.075-2.744-0.222 1.261-0.52 2.456-1.216 3.56-2.078 0.627-0.489 0.877-1.321 0.625-2.076s-0.951-1.271-1.747-1.288c-1.026-0.021-1.986-0.371-2.761-0.958 0.008-0.002 0.015-0.004 0.023-0.006 0.851-0.218 1.436-0.994 1.414-1.871-0.021-0.879-0.646-1.623-1.506-1.798-1.227-0.248-2.264-0.971-2.935-1.969 0.066 0.004 0.13 0.008 0.196 0.009 0.024 0 0.047 0 0.072 0 0.813 0 1.538-0.523 1.79-1.303 0.26-0.802-0.045-1.677-0.747-2.146-1.186-0.791-1.939-2.063-2.067-3.465 3.433 2.978 7.804 4.764 12.418 5.003 0.032 0.002 0.066 0.002 0.098 0.002 0.548 0 1.069-0.239 1.429-0.657 0.38-0.442 0.533-1.037 0.414-1.608-0.083-0.393-0.124-0.772-0.124-1.12 0-2.577 2.097-4.674 4.676-4.674 1.314 0 2.526 0.523 3.416 1.476 0.218 0.233 0.491 0.405 0.785 0.501-0.036 0.275-0.011 0.559 0.081 0.836 0.119 0.36 0.339 0.663 0.621 0.885-0.168 0.309-0.248 0.664-0.224 1.024 0.019 0.243 0.017 0.484 0.017 0.727z"></path>
</svg>
