<!-- Generated by IcoMoon.io -->
<svg version="1.1" xmlns="http://www.w3.org/2000/svg" width="40" height="40" viewBox="0 0 40 40">
<title>th-video-camera</title>
<path d="M28.454 16.706v-4.235c0-1.557-1.276-2.824-2.846-2.824h-14.078v-0.941c0-0.52 0.424-0.941 0.941-0.941h10.43v-1.882h-10.43c-1.557 0-2.824 1.267-2.824 2.824v0.941h-2.801c-1.57 0-2.846 1.267-2.846 2.824v3.767c0 1.557 1.276 2.824 2.846 2.824h0.949v10.351c0 1.557 1.267 2.824 2.824 2.824h14.991c1.57 0 2.846-1.267 2.846-2.824v-4.237l7.544 5.239v-18.946l-7.546 5.239zM34.118 26.816l-7.546-5.239v7.834c0 0.52-0.431 0.941-0.964 0.941h-14.989c-0.518 0-0.941-0.422-0.941-0.941v-12.233h-2.831c-0.533 0-0.964-0.422-0.964-0.941v-3.767c0-0.52 0.431-0.941 0.964-0.941h18.763c0.531 0 0.964 0.422 0.964 0.941v7.836l7.544-5.24v11.75z"></path>
</svg>
