<!-- Generated by IcoMoon.io -->
<svg version="1.1" xmlns="http://www.w3.org/2000/svg" width="40" height="40" viewBox="0 0 40 40">
<title>th-vimeo</title>
<path d="M33.485 9.064c-0.783-0.994-2.127-1.521-3.883-1.521-0.497 0-0.981 0.043-1.427 0.111-1.636 0.275-5.683 2.319-7.051 6.622-0.096 0.297-0.036 0.625 0.16 0.872 0.196 0.245 0.506 0.378 0.815 0.352 1.058-0.085 1.848-0.023 2.093 0.25 0.196 0.213 0.267 0.727 0.2 1.446-0.087 0.96-0.627 2.069-1.193 3.153-0.273 0.497-1.107 2.024-1.623 2.024-0.122 0-0.318-0.13-0.52-0.346-0.968-1.045-1.167-3.036-1.338-4.796-0.060-0.58-0.115-1.133-0.196-1.656l-0.13-0.736c-0.179-1.035-0.382-2.208-0.704-3.255-0.388-1.212-1.316-2.775-2.675-3.196-0.294-0.083-0.614-0.124-0.947-0.124-1.295 0-2.458 0.619-2.788 0.811-1.38 0.819-2.496 1.822-3.576 2.793-0.815 0.73-1.656 1.489-2.609 2.161-0.248 0.177-0.397 0.631-0.397 0.936 0 0.356 0.2 0.681 0.52 0.841 0.105 0.055 0.12 0.079 0.205 0.245 0.136 0.264 0.416 0.808 1.205 0.934 0.698 0.104 1.353-0.102 1.897-0.273 0.296-0.094 0.576-0.181 0.759-0.181 0.066 0 0.143 0 0.299 0.262 0.326 0.544 0.504 1.165 0.693 1.824 0.098 0.335 0.194 0.67 0.312 1.016 0.418 1.15 0.738 2.406 1.075 3.735l0.296 1.18c0.674 2.776 1.598 6.575 4.177 7.657 0.39 0.166 0.834 0.25 1.323 0.25 1.259 0 2.592-0.553 3.332-1.016 2.195-1.293 4.218-3.204 6.182-5.843 3.597-4.815 5.813-10.616 6.199-12.653 0.307-1.63 0.085-2.899-0.683-3.878zM32.32 12.591c-0.275 1.446-2.17 6.942-5.858 11.876-1.813 2.438-3.652 4.186-5.649 5.363-0.742 0.463-2.234 0.943-2.944 0.642-1.707-0.717-2.502-3.983-3.081-6.37l-0.303-1.203c-0.348-1.372-0.68-2.671-1.122-3.896-0.105-0.301-0.192-0.606-0.28-0.907-0.213-0.744-0.435-1.513-0.887-2.266-0.463-0.783-1.107-1.18-1.914-1.18-0.472 0-0.904 0.136-1.321 0.267-0.299 0.094-0.584 0.183-0.902 0.201-0.024-0.043-0.051-0.094-0.083-0.147 0.712-0.561 1.355-1.139 1.984-1.705 1.058-0.952 2.057-1.85 3.272-2.569 0.437-0.254 1.178-0.552 1.835-0.552 0.162 0 0.309 0.019 0.414 0.047 0.482 0.149 1.116 1.030 1.412 1.954 0.284 0.922 0.476 2.033 0.644 3.014l0.13 0.728c0.073 0.465 0.122 0.984 0.179 1.528 0.201 2.056 0.433 4.382 1.835 5.894 0.587 0.627 1.225 0.945 1.897 0.945 1.634 0 2.622-1.811 3.358-3.162 0.585-1.124 1.216-2.43 1.333-3.727 0.12-1.325-0.096-2.24-0.683-2.886-0.591-0.649-1.432-0.836-2.142-0.887 1.521-2.897 4.448-3.981 5.028-4.079 0.346-0.051 0.734-0.087 1.133-0.087 0.664 0 1.856 0.105 2.404 0.802 0.41 0.525 0.512 1.297 0.312 2.362z"></path>
</svg>
