<!-- Generated by IcoMoon.io -->
<svg version="1.1" xmlns="http://www.w3.org/2000/svg" width="24" height="24" viewBox="0 0 24 24">
<title>theater_comedy</title>
<path d="M17.587 8.85q0.337 0 0.581-0.225t0.244-0.563-0.244-0.563-0.581-0.225-0.563 0.225-0.225 0.563 0.225 0.563 0.563 0.225zM13.612 8.85q0.338 0 0.563-0.225t0.225-0.563-0.225-0.563-0.563-0.225-0.581 0.225-0.244 0.563 0.244 0.563 0.581 0.225zM11.212 4.8h8.775v5.213q0 1.838-1.275 3.112t-3.113 1.275q-1.013 0-1.987-0.487v-2.325h3.975q0-0.487-0.581-0.844t-1.406-0.356-1.406 0.356-0.581 0.844v-1.987h-2.4v-4.8zM6.413 12.788q-0.337 0-0.581 0.244t-0.244 0.581 0.244 0.563 0.581 0.225 0.563-0.225 0.225-0.563-0.225-0.581-0.563-0.244zM10.387 12.788q-0.337 0-0.563 0.244t-0.225 0.581 0.225 0.563 0.563 0.225 0.581-0.225 0.244-0.563-0.244-0.581-0.581-0.244zM8.4 17.212q0.825 0 1.406-0.356t0.581-0.844h-3.975q0 0.487 0.581 0.844t1.406 0.356zM4.012 15.6v-5.213h8.775v5.213q0 1.837-1.275 3.113t-3.113 1.275-3.113-1.275-1.275-3.112z"></path>
</svg>
