<!-- Generated by IcoMoon.io -->
<svg version="1.1" xmlns="http://www.w3.org/2000/svg" width="24" height="24" viewBox="0 0 24 24">
<title>thumb_up_off_alt</title>
<path d="M5.588 9.6q0.338 0 0.581 0.225t0.244 0.563v7.2q0 0.337-0.244 0.581t-0.581 0.244h-1.575v-8.813h1.575zM13.612 4.012l0.338 0.375q0.45 0.45 0.712 0.975 0.112 0.262 0.075 0.525l-0.75 3.713h4.425q0.637 0 1.106 0.487t0.469 1.125v0.863q0 0.338-0.112 0.638l-2.138 4.913q-0.487 0.787-1.387 0.787h-6.488q-0.787 0-1.331-0.544t-0.544-1.331v-6.262q0-0.675 0.488-1.163zM12.9 6.975l-3.3 3.263v6.3q0 0.262 0.262 0.262h6.487l2.063-4.725v-0.863h-4.425q-0.713 0-1.219-0.581t-0.319-1.331z"></path>
</svg>
