<!-- Generated by IcoMoon.io -->
<svg version="1.1" xmlns="http://www.w3.org/2000/svg" width="24" height="24" viewBox="0 0 24 24">
<title>thumb_down_alt</title>
<path d="M4.125 11.288l2.137-4.913q0.488-0.787 1.388-0.787h6.488q0.787 0 1.331 0.544t0.544 1.331v6.263q0 0.675-0.488 1.162l-5.137 5.1-0.338-0.375q-0.45-0.45-0.712-0.975-0.113-0.263-0.075-0.525l0.75-3.712h-4.425q-0.638 0-1.106-0.487t-0.469-1.125v-0.863q0-0.375 0.112-0.637zM19.987 5.588v8.812h-1.575q-0.337 0-0.581-0.225t-0.244-0.563v-7.2q0-0.338 0.244-0.581t0.581-0.244h1.575z"></path>
</svg>
