<!-- Generated by IcoMoon.io -->
<svg version="1.1" xmlns="http://www.w3.org/2000/svg" width="24" height="24" viewBox="0 0 24 24">
<title>timelapse</title>
<path d="M12 18.413q2.625 0 4.519-1.894t1.894-4.519-1.894-4.519-4.519-1.894-4.519 1.894-1.894 4.519 1.894 4.519 4.519 1.894zM12 4.012q3.3 0 5.644 2.344t2.344 5.644-2.344 5.644-5.644 2.344-5.644-2.344-2.344-5.644 2.344-5.644 5.644-2.344zM15.375 8.625q0.6 0.6 1.013 1.575t0.412 1.8-0.394 1.8-0.994 1.575q-1.388 1.425-3.375 1.425t-3.412-1.425l3.375-3.375v-4.8q0.825 0 1.8 0.413t1.575 1.012z"></path>
</svg>
