<!-- Generated by IcoMoon.io -->
<svg version="1.1" xmlns="http://www.w3.org/2000/svg" width="24" height="24" viewBox="0 0 24 24">
<title>toll</title>
<path d="M4.8 12q0 1.388 0.938 2.719t2.25 1.819v1.65q-2.1-0.525-3.45-2.25t-1.35-3.938 1.35-3.938 3.45-2.25v1.65q-1.313 0.487-2.25 1.819t-0.938 2.719zM14.4 16.8q1.988 0 3.394-1.406t1.406-3.394-1.406-3.394-3.394-1.406-3.394 1.406-1.406 3.394 1.406 3.394 3.394 1.406zM14.4 5.588q2.625 0 4.519 1.894t1.894 4.519-1.894 4.519-4.519 1.894-4.519-1.894-1.894-4.519 1.894-4.519 4.519-1.894z"></path>
</svg>
