<!-- Generated by IcoMoon.io -->
<svg version="1.1" xmlns="http://www.w3.org/2000/svg" width="24" height="24" viewBox="0 0 24 24">
<title>tram</title>
<path d="M16.013 13.612v-4.012h-8.025v4.012h8.025zM12 17.212q0.525 0 0.862-0.356t0.338-0.844-0.338-0.844-0.863-0.356-0.862 0.356-0.338 0.844 0.338 0.844 0.862 0.356zM17.587 15.938q0 1.050-0.544 1.763t-1.519 0.712h0.075l1.2 1.2v0.375h-1.612l-1.575-1.575h-3.037l-1.575 1.575h-1.8v-0.375l1.275-1.275q-0.863-0.188-1.463-0.863t-0.6-1.537v-6.75q0-1.538 1.275-2.119t3.488-0.656l0.637-1.2h-3.825v-1.2h8.025v1.2h-2.625l-0.6 1.2q2.362 0.075 3.581 0.637t1.219 2.138v6.75z"></path>
</svg>
