<!-- Generated by IcoMoon.io -->
<svg version="1.1" xmlns="http://www.w3.org/2000/svg" width="40" height="40" viewBox="0 0 40 40">
<title>ul-angry</title>
<path d="M17.866 18.934c0.413-0.002 0.77-0.237 0.946-0.581l0.003-0.006c0.071-0.139 0.114-0.304 0.114-0.478 0-0.413-0.234-0.77-0.577-0.948l-0.006-0.003-2.134-1.066c-0.157-0.096-0.347-0.153-0.55-0.153-0.589 0-1.066 0.478-1.066 1.066 0 0.441 0.268 0.82 0.65 0.982l0.007 0.002 2.134 1.066c0.135 0.074 0.297 0.118 0.468 0.118 0.004 0 0.008 0 0.013 0h-0.001zM20 9.334c-5.891 0-10.666 4.776-10.666 10.666s4.776 10.666 10.666 10.666c5.891 0 10.666-4.776 10.666-10.666v0c0-5.891-4.776-10.666-10.666-10.666v0zM20 28.534c-4.713 0-8.534-3.821-8.534-8.534s3.821-8.534 8.534-8.534c4.713 0 8.534 3.821 8.534 8.534v0c0 4.713-3.821 8.534-8.534 8.534v0zM16.118 23.552c-0.234 0.197-0.381 0.49-0.381 0.817 0 0.258 0.091 0.494 0.243 0.678l-0.002-0.002c0.197 0.237 0.492 0.386 0.821 0.386 0.261 0 0.499-0.094 0.685-0.249l-0.002 0.002c0.682-0.554 1.561-0.889 2.518-0.889s1.835 0.335 2.525 0.894l-0.007-0.006c0.183 0.153 0.421 0.246 0.681 0.246 0.001 0 0.002 0 0.002 0v0c0.585-0.006 1.056-0.481 1.056-1.066 0-0.324-0.144-0.614-0.372-0.81l-0.002-0.001c-1.053-0.851-2.407-1.367-3.882-1.367s-2.83 0.515-3.894 1.376l0.012-0.009zM23.786 15.85l-2.134 1.066c-0.349 0.18-0.583 0.538-0.583 0.95 0 0.174 0.042 0.339 0.116 0.485l-0.003-0.006c0.179 0.35 0.537 0.586 0.949 0.586v0c0.003 0 0.008 0 0.012 0 0.171 0 0.333-0.043 0.474-0.12l2.128-1.064c0.312-0.19 0.517-0.528 0.517-0.914 0-0.589-0.478-1.066-1.066-1.066-0.148 0-0.289 0.030-0.417 0.085l0.007-0.002z"></path>
</svg>
