<!-- Generated by IcoMoon.io -->
<svg version="1.1" xmlns="http://www.w3.org/2000/svg" width="40" height="40" viewBox="0 0 40 40">
<title>ul-angle-right</title>
<path d="M23.018 19.242l-4.522-4.522c-0.194-0.195-0.462-0.315-0.758-0.315s-0.564 0.121-0.758 0.315v0c-0.192 0.193-0.31 0.458-0.31 0.752s0.118 0.559 0.31 0.752l3.776 3.776-3.776 3.776c-0.192 0.193-0.31 0.458-0.31 0.752s0.118 0.559 0.31 0.752v0c0.193 0.191 0.458 0.31 0.751 0.31 0.002 0 0.004 0 0.006 0v0c0.002 0 0.004 0 0.006 0 0.293 0 0.558-0.118 0.751-0.31l4.522-4.522c0.195-0.194 0.315-0.462 0.315-0.758s-0.121-0.564-0.315-0.758v0z"></path>
</svg>
