<!-- Generated by IcoMoon.io -->
<svg version="1.1" xmlns="http://www.w3.org/2000/svg" width="40" height="40" viewBox="0 0 40 40">
<title>ul-arrow-compress-h</title>
<path d="M20 12.534c-0.589 0-1.066 0.478-1.066 1.066v0 12.8c0 0.589 0.478 1.066 1.066 1.066s1.066-0.478 1.066-1.066v0-12.8c0-0.589-0.478-1.066-1.066-1.066v0zM18.624 19.242l-2.666-2.666c-0.194-0.194-0.462-0.314-0.758-0.314-0.591 0-1.071 0.479-1.071 1.071 0 0.296 0.12 0.563 0.314 0.758v0l0.854 0.842h-4.896c-0.589 0-1.066 0.478-1.066 1.066s0.478 1.066 1.066 1.066v0h4.896l-0.854 0.842c-0.195 0.194-0.315 0.462-0.315 0.758s0.121 0.564 0.315 0.758v0c0.194 0.195 0.462 0.315 0.758 0.315s0.564-0.121 0.758-0.315l2.666-2.666c0.094-0.098 0.17-0.215 0.222-0.345l0.002-0.007c0.054-0.119 0.086-0.258 0.086-0.406s-0.031-0.286-0.088-0.412l0.002 0.006c-0.054-0.137-0.13-0.254-0.224-0.352v0zM29.6 18.934h-4.896l0.854-0.842c0.194-0.194 0.314-0.462 0.314-0.758 0-0.591-0.479-1.071-1.071-1.071-0.296 0-0.563 0.12-0.758 0.314l-2.666 2.666c-0.195 0.194-0.315 0.462-0.315 0.758s0.121 0.564 0.315 0.758l2.666 2.666c0.194 0.195 0.462 0.315 0.758 0.315s0.564-0.121 0.758-0.315v0c0.195-0.194 0.315-0.462 0.315-0.758s-0.121-0.564-0.315-0.758v0l-0.854-0.842h4.896c0.589 0 1.066-0.478 1.066-1.066s-0.478-1.066-1.066-1.066v0z"></path>
</svg>
