<!-- Generated by IcoMoon.io -->
<svg version="1.1" xmlns="http://www.w3.org/2000/svg" width="40" height="40" viewBox="0 0 40 40">
<title>ul-airplay</title>
<path d="M20.886 21.546c-0.194-0.286-0.518-0.472-0.886-0.472s-0.691 0.186-0.883 0.468l-0.002 0.004-4.266 6.4c-0.090 0.153-0.143 0.337-0.143 0.534s0.053 0.38 0.146 0.538l-0.002-0.005c0.169 0.332 0.498 0.561 0.882 0.586h8.537c0.405-0.001 0.756-0.227 0.936-0.56l0.003-0.006c0.074-0.142 0.118-0.31 0.118-0.487 0-0.215-0.064-0.416-0.174-0.583l0.002 0.004zM17.728 27.466l2.272-3.414 2.272 3.414zM27.466 10.4h-14.934c-1.767 0-3.2 1.433-3.2 3.2v0 9.6c0 1.767 1.433 3.2 3.2 3.2v0h0.906c0.589 0 1.066-0.478 1.066-1.066s-0.478-1.066-1.066-1.066v0h-0.906c-0.589 0-1.066-0.478-1.066-1.066v0-9.6c0-0.589 0.478-1.066 1.066-1.066v0h14.934c0.589 0 1.066 0.478 1.066 1.066v0 9.6c0 0.589-0.478 1.066-1.066 1.066v0h-0.906c-0.589 0-1.066 0.478-1.066 1.066s0.478 1.066 1.066 1.066v0h0.906c1.767 0 3.2-1.433 3.2-3.2v0-9.6c0-1.767-1.433-3.2-3.2-3.2v0z"></path>
</svg>
