<!-- Generated by IcoMoon.io -->
<svg version="1.1" xmlns="http://www.w3.org/2000/svg" width="40" height="40" viewBox="0 0 40 40">
<title>ul-analytics</title>
<path d="M12.534 20c-0.589 0-1.066 0.478-1.066 1.066v0 8.534c0 0.589 0.478 1.066 1.066 1.066s1.066-0.478 1.066-1.066v0-8.534c0-0.589-0.478-1.066-1.066-1.066v0zM17.866 9.334c-0.589 0-1.066 0.478-1.066 1.066v0 19.2c0 0.589 0.478 1.066 1.066 1.066s1.066-0.478 1.066-1.066v0-19.2c0-0.589-0.478-1.066-1.066-1.066v0zM28.534 24.266c-0.589 0-1.066 0.478-1.066 1.066v0 4.266c0 0.589 0.478 1.066 1.066 1.066s1.066-0.478 1.066-1.066v0-4.266c0-0.589-0.478-1.066-1.066-1.066v0zM23.2 15.734c-0.589 0-1.066 0.478-1.066 1.066v0 12.8c0 0.589 0.478 1.066 1.066 1.066s1.066-0.478 1.066-1.066v0-12.8c0-0.589-0.478-1.066-1.066-1.066v0z"></path>
</svg>
