<!-- Generated by IcoMoon.io -->
<svg version="1.1" xmlns="http://www.w3.org/2000/svg" width="40" height="40" viewBox="0 0 40 40">
<title>ul-backward</title>
<path d="M29.248 13.44c-0.407-0.244-0.899-0.388-1.424-0.388s-1.017 0.144-1.437 0.395l0.013-0.007-4.266 2.454c-0.003-1.57-1.277-2.842-2.848-2.842-0.522 0-1.011 0.141-1.432 0.386l0.014-0.007-7.114 4.106c-0.855 0.502-1.42 1.417-1.42 2.464s0.565 1.962 1.406 2.457l0.014 0.007 7.114 4.106c0.408 0.241 0.899 0.383 1.424 0.383s1.016-0.142 1.438-0.39l-0.014 0.007c0.854-0.497 1.418-1.408 1.418-2.451 0-0.005 0-0.009 0-0.014v0.001l4.266 2.464c0.407 0.239 0.896 0.381 1.418 0.384h0.001c0 0 0 0 0.001 0 0.527 0 1.021-0.146 1.442-0.402l-0.013 0.007c0.854-0.492 1.418-1.399 1.418-2.438 0-0.005 0-0.010 0-0.015v0.001-8.214c0-0.004 0-0.010 0-0.014 0-1.039-0.566-1.946-1.405-2.431l-0.014-0.007zM20 24.106c0 0.002 0 0.006 0 0.009 0 0.259-0.14 0.486-0.349 0.608l-0.003 0.002c-0.103 0.058-0.226 0.093-0.358 0.093s-0.254-0.034-0.361-0.094l0.004 0.002-7.114-4.106c-0.215-0.126-0.357-0.356-0.357-0.618s0.142-0.493 0.354-0.617l0.003-0.002 7.114-4.106c0.102-0.060 0.226-0.096 0.358-0.096s0.255 0.035 0.361 0.098l-0.003-0.002c0.212 0.124 0.352 0.35 0.352 0.61 0 0.003 0 0.006 0 0.010v-0.001zM28.534 24.106c-0.008 0.389-0.325 0.701-0.714 0.701-0.13 0-0.251-0.034-0.355-0.094l0.003 0.002-5.334-3.072v-3.286l5.334-3.072c0.102-0.058 0.222-0.093 0.352-0.093 0.39 0 0.706 0.312 0.714 0.7v0.001z"></path>
</svg>
