<!-- Generated by IcoMoon.io -->
<svg version="1.1" xmlns="http://www.w3.org/2000/svg" width="40" height="40" viewBox="0 0 40 40">
<title>ul-behance</title>
<path d="M28.608 13.974h-5.408v1.504h5.43zM27.466 24.32c-0.37 0.248-0.825 0.396-1.314 0.396-0.026 0-0.051-0.001-0.077-0.001h0.004c-0.074 0.008-0.16 0.013-0.246 0.013-0.602 0-1.15-0.223-1.57-0.591l0.002 0.002c-0.412-0.466-0.664-1.082-0.664-1.757 0-0.042 0.001-0.085 0.003-0.126v0.006h7.062c0.011-0.146 0.018-0.317 0.018-0.49 0-0.584-0.073-1.15-0.209-1.692l0.010 0.048c-0.178-0.703-0.473-1.32-0.864-1.861l0.011 0.016c-0.402-0.536-0.907-0.97-1.49-1.279l-0.024-0.012c-0.602-0.303-1.31-0.481-2.062-0.481-0.026 0-0.050 0-0.076 0.001h0.004c-0.011 0-0.025 0-0.038 0-0.718 0-1.401 0.145-2.022 0.408l0.034-0.013c-0.611 0.262-1.132 0.622-1.567 1.066l-0.001 0.001c-0.433 0.451-0.777 0.991-1.002 1.589l-0.010 0.032c-0.223 0.59-0.352 1.271-0.352 1.983 0 0.019 0 0.038 0 0.057v-0.003c-0.001 0.027-0.001 0.059-0.001 0.092 0 0.709 0.126 1.389 0.355 2.018l-0.013-0.041c0.214 0.63 0.534 1.174 0.943 1.637l-0.005-0.005c0.425 0.458 0.945 0.82 1.529 1.057l0.029 0.010c0.586 0.23 1.265 0.363 1.975 0.363 0.034 0 0.066 0 0.099-0.001h-0.005c0.047 0.002 0.103 0.002 0.158 0.002 0.983 0 1.901-0.279 2.679-0.762l-0.022 0.013c0.84-0.602 1.457-1.468 1.731-2.475l0.007-0.031h-2.358c-0.13 0.341-0.361 0.619-0.654 0.806l-0.006 0.004zM23.808 19.926c0.174-0.543 0.558-0.977 1.054-1.211l0.012-0.005c0.294-0.135 0.637-0.214 0.998-0.214 0.024 0 0.048 0 0.072 0.001h-0.003c0.047-0.004 0.102-0.006 0.157-0.006 0.504 0 0.961 0.202 1.294 0.53v0c0.35 0.425 0.59 0.952 0.67 1.53l0.002 0.016h-4.426c0.019-0.236 0.061-0.454 0.123-0.662l-0.006 0.022zM18.166 19.414c0.555-0.235 1.016-0.6 1.359-1.058l0.006-0.009c0.289-0.443 0.461-0.986 0.461-1.57 0-0.041-0.001-0.082-0.002-0.122v0.006c0.002-0.040 0.002-0.087 0.002-0.134 0-0.523-0.115-1.020-0.321-1.466l0.009 0.022c-0.195-0.437-0.494-0.798-0.866-1.062l-0.008-0.006c-0.385-0.267-0.841-0.462-1.334-0.551l-0.021-0.003c-0.496-0.109-1.066-0.171-1.651-0.171-0.034 0-0.069 0-0.104 0.001h-6.362v13.418h6.506c0.002 0 0.003 0 0.005 0 0.624 0 1.228-0.082 1.804-0.235l-0.049 0.011c0.58-0.153 1.089-0.391 1.542-0.704l-0.016 0.010c0.448-0.314 0.809-0.722 1.058-1.198l0.009-0.018c0.25-0.48 0.396-1.049 0.396-1.651 0-0.038-0.001-0.077-0.002-0.114v0.006c0.001-0.030 0.002-0.064 0.002-0.099 0-0.758-0.227-1.462-0.618-2.048l0.009 0.014c-0.443-0.624-1.091-1.078-1.845-1.265l-0.022-0.005zM12.288 15.584h2.762c0.002 0 0.003 0 0.006 0 0.266 0 0.526 0.023 0.778 0.068l-0.026-0.004c0.245 0.037 0.464 0.119 0.658 0.239l-0.007-0.004c0.193 0.11 0.346 0.27 0.445 0.463l0.003 0.006c0.109 0.203 0.172 0.445 0.172 0.702 0 0.023-0.001 0.047-0.002 0.070v-0.003c0.003 0.038 0.006 0.081 0.006 0.125 0 0.44-0.196 0.834-0.505 1.1l-0.002 0.002c-0.338 0.235-0.757 0.375-1.209 0.375-0.033 0-0.065-0.001-0.098-0.002h-2.982zM17.45 23.52c-0.113 0.22-0.276 0.401-0.474 0.53l-0.006 0.003c-0.199 0.126-0.431 0.222-0.679 0.275l-0.014 0.002c-0.233 0.054-0.501 0.086-0.776 0.086-0.020 0-0.039 0-0.059-0.001h-3.197v-3.68h3.2c0.034-0.002 0.073-0.002 0.112-0.002 0.535 0 1.033 0.165 1.443 0.446l-0.009-0.006c0.359 0.323 0.585 0.79 0.585 1.31 0 0.061-0.003 0.121-0.009 0.18l0.001-0.007c0.006 0.055 0.009 0.12 0.009 0.185 0 0.244-0.046 0.478-0.131 0.692l0.005-0.013z"></path>
</svg>
