<!-- Generated by IcoMoon.io -->
<svg version="1.1" xmlns="http://www.w3.org/2000/svg" width="40" height="40" viewBox="0 0 40 40">
<title>ul-basketball</title>
<path d="M20 9.334c-3.743 0.004-7.034 1.935-8.935 4.855l-0.025 0.041c-1.049 1.623-1.673 3.606-1.673 5.735 0 5.891 4.776 10.666 10.666 10.666 2.522 0 4.838-0.875 6.665-2.338l-0.021 0.016c2.434-1.971 3.978-4.96 3.978-8.31 0-5.887-4.77-10.661-10.655-10.666h-0.001zM22.134 11.744c3.006 0.797 5.326 3.117 6.109 6.063l0.014 0.059c-1.874 0.054-3.61 0.594-5.102 1.498l0.046-0.026c-0.769-0.869-1.606-1.643-2.517-2.326l-0.043-0.031c0.902-1.498 1.451-3.299 1.493-5.226v-0.012zM20 11.466c-0.004 1.605-0.456 3.103-1.237 4.378l0.021-0.037c-0.16-0.086-0.31-0.182-0.47-0.256-1.258-0.679-2.717-1.221-4.254-1.549l-0.109-0.019c1.545-1.554 3.684-2.516 6.048-2.518v0zM12.534 15.904c1.788 0.254 3.402 0.794 4.869 1.574l-0.079-0.038 0.138 0.086c-1.53 1.529-3.644 2.474-5.978 2.474-0.006 0-0.011 0-0.017 0h0.001c0.006-1.504 0.401-2.915 1.089-4.139l-0.022 0.043zM17.866 28.256c-3.006-0.797-5.326-3.117-6.109-6.063l-0.014-0.059c2.992-0.069 5.666-1.371 7.545-3.416l0.007-0.008c0.792 0.589 1.49 1.219 2.123 1.909l0.010 0.011c-2.112 1.89-3.465 4.591-3.562 7.61l-0.001 0.017zM20 28.534c0.005-2.463 1.053-4.681 2.726-6.235l0.006-0.005c0.064 0.086 0.128 0.16 0.182 0.246 0.848 1.28 1.522 2.766 1.939 4.354l0.023 0.104c-1.354 0.961-3.040 1.536-4.861 1.536-0.005 0-0.010 0-0.014 0h0.001zM26.624 25.334c-0.508-1.526-1.158-2.849-1.96-4.064l0.040 0.064-0.224-0.266c1.168-0.662 2.563-1.056 4.050-1.066h0.003c-0.011 2.030-0.73 3.89-1.922 5.349l0.012-0.015z"></path>
</svg>
