<!-- Generated by IcoMoon.io -->
<svg version="1.1" xmlns="http://www.w3.org/2000/svg" width="40" height="40" viewBox="0 0 40 40">
<title>ul-bring-bottom</title>
<path d="M29.6 22.134h-2.134c-0.589 0-1.066 0.478-1.066 1.066s0.478 1.066 1.066 1.066v0h1.066v4.266h-17.066v-4.266h7.466c0.589 0 1.066-0.478 1.066-1.066s-0.478-1.066-1.066-1.066v0h-1.066v-5.334c0-0.589-0.478-1.066-1.066-1.066v0h-6.4c-0.589 0-1.066 0.478-1.066 1.066v0 12.8c0 0.589 0.478 1.066 1.066 1.066v0h19.2c0.589 0 1.066-0.478 1.066-1.066v0-6.4c0-0.589-0.478-1.066-1.066-1.066v0zM11.466 17.866h4.266v4.266h-4.266zM20.758 14.346l1.376-1.376v12.362c0 0.589 0.478 1.066 1.066 1.066s1.066-0.478 1.066-1.066v0-12.362l1.376 1.376c0.193 0.197 0.461 0.318 0.757 0.32v0c0.002 0 0.004 0 0.006 0 0.293 0 0.558-0.118 0.751-0.31v0c0.192-0.193 0.31-0.458 0.31-0.752s-0.118-0.559-0.31-0.752l-3.2-3.2c-0.194-0.195-0.462-0.315-0.758-0.315s-0.564 0.121-0.758 0.315l-3.2 3.2c-0.192 0.193-0.31 0.458-0.31 0.752s0.118 0.559 0.31 0.752v0c0.193 0.192 0.458 0.31 0.752 0.31 0.298 0 0.569-0.123 0.762-0.321v0z"></path>
</svg>
