<!-- Generated by IcoMoon.io -->
<svg version="1.1" xmlns="http://www.w3.org/2000/svg" width="40" height="40" viewBox="0 0 40 40">
<title>ul-brackets-curly</title>
<path d="M13.6 13.6c0-1.178 0.955-2.134 2.134-2.134v0c0.589 0 1.066-0.478 1.066-1.066s-0.478-1.066-1.066-1.066v0c-2.357 0-4.266 1.91-4.266 4.266v0 3.2c0 1.178-0.955 2.134-2.134 2.134v0c-0.589 0-1.066 0.478-1.066 1.066s0.478 1.066 1.066 1.066v0c1.178 0 2.134 0.955 2.134 2.134v0 3.2c0 2.357 1.91 4.266 4.266 4.266v0c0.589 0 1.066-0.478 1.066-1.066s-0.478-1.066-1.066-1.066v0c-1.178 0-2.134-0.955-2.134-2.134v0-3.2c-0.007-1.276-0.574-2.418-1.467-3.195l-0.005-0.005c0.898-0.782 1.465-1.924 1.472-3.198v-0.002zM30.666 18.934c-1.178 0-2.134-0.955-2.134-2.134v0-3.2c0-2.357-1.91-4.266-4.266-4.266v0c-0.589 0-1.066 0.478-1.066 1.066s0.478 1.066 1.066 1.066v0c1.178 0 2.134 0.955 2.134 2.134v0 3.2c0.007 1.276 0.574 2.418 1.467 3.195l0.005 0.005c-0.898 0.782-1.465 1.924-1.472 3.198v3.202c0 1.178-0.955 2.134-2.134 2.134v0c-0.589 0-1.066 0.478-1.066 1.066s0.478 1.066 1.066 1.066v0c2.357 0 4.266-1.91 4.266-4.266v0-3.2c0-1.178 0.955-2.134 2.134-2.134v0c0.589 0 1.066-0.478 1.066-1.066s-0.478-1.066-1.066-1.066v0z"></path>
</svg>
