<!-- Generated by IcoMoon.io -->
<svg version="1.1" xmlns="http://www.w3.org/2000/svg" width="40" height="40" viewBox="0 0 40 40">
<title>ul-brightness</title>
<path d="M12.534 20c0-0.589-0.478-1.066-1.066-1.066v0h-1.066c-0.589 0-1.066 0.478-1.066 1.066s0.478 1.066 1.066 1.066v0h1.066c0.589 0 1.066-0.478 1.066-1.066v0zM13.216 25.334l-0.758 0.758c-0.192 0.193-0.31 0.458-0.31 0.752s0.118 0.559 0.31 0.752v0c0.193 0.192 0.458 0.31 0.752 0.31s0.559-0.118 0.752-0.31l0.758-0.758c0.159-0.186 0.257-0.428 0.257-0.694 0-0.589-0.478-1.066-1.066-1.066-0.266 0-0.509 0.097-0.695 0.258l0.002-0.001zM20 12.534c0.589 0 1.066-0.478 1.066-1.066v0-1.066c0-0.589-0.478-1.066-1.066-1.066s-1.066 0.478-1.066 1.066v0 1.066c0 0.589 0.478 1.066 1.066 1.066v0zM26.038 15.030c0.291-0.002 0.555-0.119 0.746-0.31l0.758-0.758c0.229-0.197 0.373-0.486 0.373-0.81 0-0.589-0.478-1.066-1.066-1.066-0.323 0-0.614 0.144-0.809 0.371l-0.001 0.002-0.704 0.758c-0.192 0.193-0.31 0.458-0.31 0.752s0.118 0.559 0.31 0.752v0c0.182 0.181 0.428 0.297 0.702 0.31h0.002zM13.238 14.72c0.192 0.19 0.455 0.308 0.746 0.31v0c0.002 0 0.004 0 0.006 0 0.293 0 0.558-0.118 0.751-0.31v0c0.192-0.193 0.31-0.458 0.31-0.752s-0.118-0.559-0.31-0.752l-0.758-0.758c-0.194-0.197-0.464-0.319-0.762-0.319-0.591 0-1.071 0.479-1.071 1.071 0 0.293 0.118 0.558 0.309 0.752v0zM29.6 18.934h-1.066c-0.589 0-1.066 0.478-1.066 1.066s0.478 1.066 1.066 1.066v0h1.066c0.589 0 1.066-0.478 1.066-1.066s-0.478-1.066-1.066-1.066v0zM26.784 25.334c-0.15-0.085-0.328-0.134-0.518-0.134-0.589 0-1.066 0.478-1.066 1.066 0 0.19 0.050 0.369 0.138 0.524l-0.002-0.006 0.758 0.758c0.193 0.192 0.458 0.31 0.752 0.31s0.559-0.118 0.752-0.31v0c0.192-0.193 0.31-0.458 0.31-0.752s-0.118-0.559-0.31-0.752v0zM20 14.134c-3.24 0-5.866 2.626-5.866 5.866s2.626 5.866 5.866 5.866c3.24 0 5.866-2.626 5.866-5.866v0c-0.006-3.238-2.629-5.861-5.866-5.866h-0.001zM20 23.734c-2.062 0-3.734-1.671-3.734-3.734s1.671-3.734 3.734-3.734c2.062 0 3.734 1.671 3.734 3.734v0c0 2.062-1.671 3.734-3.734 3.734v0zM20 27.466c-0.589 0-1.066 0.478-1.066 1.066v0 1.066c0 0.589 0.478 1.066 1.066 1.066s1.066-0.478 1.066-1.066v0-1.066c0-0.589-0.478-1.066-1.066-1.066v0z"></path>
</svg>
