<!-- Generated by IcoMoon.io -->
<svg version="1.1" xmlns="http://www.w3.org/2000/svg" width="40" height="40" viewBox="0 0 40 40">
<title>ul-cloud-moon-showers</title>
<path d="M16.266 22.134c-0.589 0-1.066 0.478-1.066 1.066v0 6.4c0 0.589 0.478 1.066 1.066 1.066s1.066-0.478 1.066-1.066v0-6.4c0-0.589-0.478-1.066-1.066-1.066v0zM20.534 21.066c-0.589 0-1.066 0.478-1.066 1.066v0 6.4c0 0.589 0.478 1.066 1.066 1.066s1.066-0.478 1.066-1.066v0-6.4c0-0.589-0.478-1.066-1.066-1.066v0zM30.346 14.742c-0.193-0.19-0.458-0.308-0.75-0.308-0.090 0-0.177 0.011-0.261 0.032l0.007-0.002c-0.207 0.051-0.446 0.082-0.691 0.086h-0.002c-1.767 0-3.2-1.433-3.2-3.2v0c0.004-0.251 0.034-0.494 0.090-0.726l-0.005 0.022c0.018-0.074 0.029-0.158 0.029-0.245 0-0.291-0.117-0.555-0.306-0.748v0c-0.195-0.21-0.474-0.341-0.782-0.341-0.074 0-0.147 0.008-0.217 0.022l0.007-0.001c-2.164 0.49-3.802 2.266-4.082 4.465l-0.002 0.026c-0.514-0.142-1.104-0.224-1.714-0.224-0.024 0-0.048 0-0.071 0h0.004c-0.001 0-0.002 0-0.004 0-3.207 0-5.863 2.359-6.328 5.437l-0.004 0.035c-1.588 0.453-2.732 1.891-2.732 3.597 0 1.522 0.911 2.831 2.218 3.413l0.024 0.010c0.126 0.051 0.273 0.082 0.426 0.086h0.001c0.002 0 0.006 0 0.009 0 0.589 0 1.066-0.478 1.066-1.066 0-0.438-0.264-0.814-0.642-0.978l-0.007-0.002c-0.569-0.247-0.96-0.804-0.96-1.453 0-0.003 0-0.006 0-0.010v0.001c0-0.884 0.716-1.6 1.6-1.6v0c0.589 0 1.066-0.478 1.066-1.066v0c0-2.357 1.91-4.266 4.266-4.266v0c0.863 0.001 1.665 0.264 2.33 0.714l-0.014-0.010c0.77 0.506 1.355 1.24 1.666 2.104l0.009 0.030c0.126 0.37 0.44 0.646 0.826 0.714l0.006 0.001c1.251 0.134 2.218 1.185 2.218 2.462 0 0.885-0.464 1.661-1.162 2.098l-0.010 0.006c-0.294 0.194-0.484 0.523-0.484 0.896 0 0.591 0.479 1.071 1.071 1.071 0.218 0 0.422-0.066 0.59-0.178l-0.004 0.002c1.23-0.84 2.027-2.235 2.027-3.818 0-0.015 0-0.031 0-0.046v0.002c0-0.007 0-0.016 0-0.026 0-0.771-0.194-1.498-0.534-2.132l0.012 0.024c1.863-0.533 3.283-2.016 3.716-3.879l0.007-0.035c0.014-0.063 0.021-0.136 0.021-0.21 0-0.309-0.131-0.586-0.34-0.781l-0.001-0.001zM25.45 17.75c-0.067 0.006-0.145 0.009-0.224 0.009s-0.157-0.003-0.234-0.010l0.010 0.001c-0.209-0.131-0.45-0.257-0.703-0.362l-0.033-0.012c-0.456-0.978-1.114-1.794-1.926-2.421l-0.015-0.011c0-0.128 0-0.266 0-0.394 0 0 0 0 0 0 0-0.971 0.433-1.842 1.116-2.428l0.004-0.003c0.349 2.338 2.174 4.163 4.482 4.509l0.030 0.003c-0.59 0.688-1.461 1.121-2.433 1.121-0.026 0-0.052 0-0.078-0.001h0.004z"></path>
</svg>
