<!-- Generated by IcoMoon.io -->
<svg version="1.1" xmlns="http://www.w3.org/2000/svg" width="40" height="40" viewBox="0 0 40 40">
<title>ul-calling</title>
<path d="M29.034 16.8c0.589 0 1.066-0.478 1.066-1.066s-0.478-1.066-1.066-1.066c-0.589 0-1.066 0.478-1.066 1.066v0c0 0.589 0.478 1.066 1.066 1.066v0zM25.834 16.8c0.589 0 1.066-0.478 1.066-1.066s-0.478-1.066-1.066-1.066c-0.589 0-1.066 0.478-1.066 1.066v0c0 0.589 0.478 1.066 1.066 1.066v0zM22.634 16.8c0.589 0 1.066-0.478 1.066-1.066s-0.478-1.066-1.066-1.066c-0.589 0-1.066 0.478-1.066 1.066v0c0 0.589 0.478 1.066 1.066 1.066v0zM27.37 21.066c-0.234 0-0.48-0.074-0.714-0.128-0.547-0.122-1.014-0.265-1.466-0.439l0.069 0.023c-0.217-0.082-0.468-0.129-0.73-0.129-0.837 0-1.561 0.482-1.91 1.183l-0.006 0.012-0.234 0.48c-1.086-0.612-2.021-1.319-2.85-2.135l0.002 0.002c-0.81-0.826-1.517-1.758-2.098-2.77l-0.035-0.066 0.47-0.298c0.714-0.355 1.195-1.079 1.195-1.916 0-0.262-0.047-0.513-0.134-0.744l0.005 0.014c-0.146-0.377-0.29-0.844-0.402-1.323l-0.014-0.074c-0.054-0.246-0.096-0.48-0.128-0.726-0.269-1.518-1.578-2.656-3.154-2.656-0.016 0-0.033 0-0.049 0h-3.198c-0.002 0-0.002 0-0.004 0-0.946 0-1.797 0.41-2.382 1.064l-0.002 0.003c-0.501 0.562-0.807 1.308-0.807 2.125 0 0.15 0.010 0.298 0.030 0.442l-0.002-0.017c1.189 9.19 8.388 16.39 17.477 17.568l0.102 0.010c0.062 0.005 0.135 0.008 0.208 0.008s0.146-0.003 0.218-0.009l-0.010 0.001c1.767 0 3.2-1.433 3.2-3.2v0-3.2c-0.024-1.551-1.148-2.834-2.626-3.101l-0.019-0.003zM27.894 27.466c0 0.003 0 0.008 0 0.012 0 0.589-0.478 1.066-1.066 1.066-0.057 0-0.112-0.005-0.166-0.013l0.006 0.001c-4.143-0.555-7.773-2.426-10.529-5.174l0.001 0.001c-2.753-2.774-4.623-6.426-5.153-10.5l-0.010-0.092c-0.007-0.047-0.011-0.101-0.011-0.156 0-0.277 0.106-0.53 0.279-0.719l-0.001 0.001c0.194-0.22 0.475-0.359 0.789-0.362h3.201c0.007 0 0.015 0 0.024 0 0.51 0 0.936 0.358 1.042 0.836l0.002 0.007q0.064 0.438 0.16 0.864c0.143 0.647 0.312 1.2 0.518 1.734l-0.027-0.081-1.494 0.694c-0.37 0.173-0.622 0.542-0.622 0.97 0 0.163 0.037 0.318 0.102 0.456l-0.002-0.006c1.566 3.302 4.165 5.901 7.373 7.426l0.094 0.040c0.12 0.050 0.259 0.080 0.406 0.080s0.286-0.030 0.412-0.082l-0.007 0.002c0.266-0.101 0.478-0.298 0.594-0.548l0.002-0.006 0.672-1.494c0.446 0.168 1.010 0.337 1.586 0.471l0.098 0.019c0.278 0.064 0.576 0.118 0.864 0.16 0.48 0.111 0.832 0.534 0.832 1.041 0 0.009 0 0.018 0 0.027v-0.002z"></path>
</svg>
