<!-- Generated by IcoMoon.io -->
<svg version="1.1" xmlns="http://www.w3.org/2000/svg" width="40" height="40" viewBox="0 0 40 40">
<title>ul-comment-search</title>
<path d="M29.824 18.176l-1.846-1.834c0.429-0.686 0.686-1.518 0.694-2.409v-0.002c-0.006-2.534-2.062-4.586-4.598-4.586-2.539 0-4.598 2.058-4.598 4.598 0 2.535 2.052 4.591 4.586 4.598h0.001c0.002 0 0.003 0 0.006 0 0.889 0 1.719-0.25 2.426-0.683l-0.020 0.011 1.834 1.846c0.194 0.195 0.462 0.315 0.758 0.315s0.564-0.121 0.758-0.315v0c0.202-0.194 0.326-0.466 0.326-0.768s-0.125-0.574-0.326-0.768v0zM25.814 15.734c-0.446 0.442-1.061 0.714-1.739 0.714-1.366 0-2.474-1.108-2.474-2.474 0-0.014 0-0.030 0.001-0.044v0.002c0-0.001 0-0.001 0-0.002 0-0.679 0.278-1.294 0.725-1.737v0c0.447-0.444 1.063-0.719 1.744-0.719s1.297 0.274 1.744 0.719v0c0.447 0.446 0.723 1.062 0.723 1.744s-0.277 1.298-0.723 1.744v0zM28 22.134c-0.081-0.022-0.173-0.034-0.268-0.034-0.495 0-0.911 0.338-1.032 0.794l-0.002 0.007c-0.846 3.26-3.762 5.63-7.232 5.632h-5.963l0.682-0.672c0.192-0.193 0.31-0.458 0.31-0.752s-0.118-0.559-0.31-0.752v0c-1.32-1.346-2.134-3.191-2.134-5.226 0-0.038 0-0.075 0.001-0.113v0.006c0.012-3.081 1.889-5.721 4.559-6.851l0.049-0.018c0.398-0.162 0.673-0.545 0.673-0.992 0-0.59-0.478-1.068-1.068-1.068-0.142 0-0.278 0.028-0.402 0.078l0.007-0.002c-3.563 1.456-6.028 4.896-6.028 8.91 0 2.289 0.801 4.391 2.138 6.041l-0.014-0.018-1.792 1.738c-0.19 0.193-0.307 0.457-0.307 0.749 0 0.15 0.030 0.291 0.086 0.421l-0.002-0.007c0.163 0.39 0.541 0.659 0.981 0.662h8.534c0.002 0 0.004 0 0.006 0 4.449 0 8.191-3.026 9.28-7.133l0.015-0.067c0.027-0.090 0.042-0.192 0.042-0.298 0-0.498-0.342-0.917-0.803-1.034l-0.007-0.002z"></path>
</svg>
