<!-- Generated by IcoMoon.io -->
<svg version="1.1" xmlns="http://www.w3.org/2000/svg" width="40" height="40" viewBox="0 0 40 40">
<title>ul-chart-bar</title>
<path d="M29.6 28.534h-1.066v-16c0-0.589-0.478-1.066-1.066-1.066s-1.066 0.478-1.066 1.066v0 16h-2.134v-7.466c0-0.589-0.478-1.066-1.066-1.066s-1.066 0.478-1.066 1.066v0 7.466h-2.134v-11.734c0-0.589-0.478-1.066-1.066-1.066s-1.066 0.478-1.066 1.066v0 11.734h-2.134v-3.2c0-0.589-0.478-1.066-1.066-1.066s-1.066 0.478-1.066 1.066v0 3.2h-2.134v-18.134c0-0.589-0.478-1.066-1.066-1.066s-1.066 0.478-1.066 1.066v0 19.2c0 0.589 0.478 1.066 1.066 1.066v0h19.2c0.589 0 1.066-0.478 1.066-1.066s-0.478-1.066-1.066-1.066v0z"></path>
</svg>
