<!-- Generated by IcoMoon.io -->
<svg version="1.1" xmlns="http://www.w3.org/2000/svg" width="40" height="40" viewBox="0 0 40 40">
<title>ul-cloud-moon</title>
<path d="M30.346 16.874c-0.192-0.189-0.456-0.306-0.747-0.306-0.086 0-0.171 0.010-0.252 0.030l0.007-0.002c-0.21 0.050-0.453 0.082-0.702 0.086h-0.002c-1.767 0-3.2-1.433-3.2-3.2v0c0.004-0.251 0.034-0.494 0.090-0.726l-0.005 0.022c0.018-0.074 0.029-0.158 0.029-0.245 0-0.291-0.117-0.555-0.306-0.748v0c-0.195-0.21-0.474-0.341-0.782-0.341-0.074 0-0.147 0.008-0.217 0.022l0.007-0.001c-2.164 0.49-3.802 2.266-4.082 4.465l-0.002 0.026c-0.514-0.142-1.104-0.224-1.714-0.224-0.024 0-0.048 0-0.071 0h0.004c-0.001 0-0.002 0-0.004 0-3.207 0-5.863 2.359-6.328 5.437l-0.004 0.035c-1.585 0.455-2.726 1.892-2.726 3.594 0 2.060 1.669 3.73 3.728 3.734h9.782c2.551 0 4.618-2.068 4.618-4.618v0c0-0.007 0-0.016 0-0.026 0-0.771-0.194-1.498-0.534-2.132l0.012 0.024c1.863-0.533 3.283-2.016 3.716-3.879l0.007-0.035c0.014-0.063 0.021-0.136 0.021-0.21 0-0.309-0.131-0.586-0.34-0.781l-0.001-0.001zM22.88 26.4h-9.814c-0.884 0-1.6-0.716-1.6-1.6s0.716-1.6 1.6-1.6v0c0.589 0 1.066-0.478 1.066-1.066v0c0.008-2.35 1.915-4.252 4.266-4.252 0.865 0 1.67 0.258 2.342 0.699l-0.016-0.010c0.77 0.506 1.355 1.24 1.666 2.104l0.009 0.030c0.126 0.37 0.44 0.646 0.826 0.714l0.006 0.001c1.294 0.103 2.306 1.178 2.306 2.49 0 1.38-1.118 2.498-2.498 2.498-0.067 0-0.134-0.002-0.201-0.008l0.009 0.001zM25.482 19.882c-0.067 0.006-0.145 0.009-0.224 0.009s-0.157-0.003-0.234-0.010l0.010 0.001c-0.216-0.118-0.47-0.23-0.734-0.321l-0.034-0.010c-0.456-0.978-1.114-1.794-1.926-2.421l-0.015-0.011c0-0.128 0-0.266 0-0.394 0 0 0 0 0 0 0-0.971 0.433-1.842 1.116-2.428l0.004-0.003c0.349 2.338 2.174 4.163 4.482 4.509l0.030 0.003c-0.589 0.663-1.444 1.079-2.396 1.079-0.039 0-0.078-0.001-0.116-0.002h0.006z"></path>
</svg>
