<!-- Generated by IcoMoon.io -->
<svg version="1.1" xmlns="http://www.w3.org/2000/svg" width="40" height="40" viewBox="0 0 40 40">
<title>ul-comment-alt-slash</title>
<path d="M18.57 13.6h6.762c0.589 0 1.066 0.478 1.066 1.066v0 6.762c0 0.589 0.478 1.066 1.066 1.066s1.066-0.478 1.066-1.066v0-6.762c0-1.767-1.433-3.2-3.2-3.2v0h-6.762c-0.589 0-1.066 0.478-1.066 1.066s0.478 1.066 1.066 1.066v0zM30.358 28.842l-19.2-19.2c-0.194-0.194-0.462-0.314-0.758-0.314-0.591 0-1.071 0.479-1.071 1.071 0 0.296 0.12 0.563 0.314 0.758v0l2.134 2.134c-0.195 0.402-0.31 0.874-0.31 1.373 0 0.001 0 0.002 0 0.003v0 12.8c0.002 0.441 0.271 0.818 0.654 0.978l0.007 0.002c0.112 0.054 0.243 0.086 0.382 0.086 0.008 0 0.016 0 0.024 0h-0.001c0.002 0 0.004 0 0.006 0 0.293 0 0.558-0.118 0.751-0.31v0l2.88-2.89h7.658l5.014 5.024c0.194 0.195 0.462 0.315 0.758 0.315s0.564-0.121 0.758-0.315v0c0.195-0.194 0.315-0.462 0.315-0.758s-0.121-0.564-0.315-0.758v0zM15.734 23.2c-0.002 0-0.004 0-0.006 0-0.293 0-0.558 0.118-0.751 0.31v0l-1.376 1.386v-9.792l8.096 8.096z"></path>
</svg>
