<!-- Generated by IcoMoon.io -->
<svg version="1.1" xmlns="http://www.w3.org/2000/svg" width="40" height="40" viewBox="0 0 40 40">
<title>ul-cloud-redo</title>
<path d="M23.2 20.534c-0.432 0.003-0.802 0.262-0.968 0.634l-0.002 0.006c-0.637-0.399-1.411-0.635-2.241-0.635-2.357 0-4.266 1.91-4.266 4.266s1.91 4.266 4.266 4.266c1.086 0 2.078-0.406 2.831-1.075l-0.005 0.004c0.243-0.197 0.398-0.496 0.398-0.83 0-0.589-0.478-1.066-1.066-1.066-0.287 0-0.547 0.114-0.739 0.298v0c-0.374 0.33-0.867 0.533-1.408 0.534v0c-1.163-0.019-2.099-0.967-2.099-2.133 0-1.178 0.955-2.134 2.134-2.134 0.379 0 0.734 0.098 1.043 0.272l-0.010-0.006h-0.234c-0.589 0-1.066 0.478-1.066 1.066s0.478 1.066 1.066 1.066v0h2.368c0.589 0 1.066-0.478 1.066-1.066v0-2.4c0-0.589-0.478-1.066-1.066-1.066v0zM26.848 15.434c-1.18-2.663-3.8-4.487-6.846-4.487-3.784 0-6.91 2.815-7.4 6.465l-0.004 0.038c-1.884 0.47-3.257 2.147-3.257 4.146 0 1.85 1.177 3.424 2.822 4.016l0.030 0.010c0.102 0.033 0.219 0.052 0.341 0.054h0.001c0.051 0.009 0.11 0.014 0.17 0.014 0.597 0 1.080-0.484 1.080-1.080 0-0.536-0.391-0.982-0.903-1.066l-0.006-0.001c-0.808-0.298-1.38-1.050-1.408-1.938v-0.003c0-1.178 0.955-2.134 2.134-2.134v0c0.589 0 1.066-0.478 1.066-1.066v0c0.006-2.941 2.392-5.322 5.334-5.322 2.326 0 4.305 1.49 5.034 3.567l0.011 0.038c0.126 0.37 0.44 0.646 0.826 0.714l0.006 0.001c1.506 0.28 2.63 1.583 2.63 3.149 0 1.163-0.621 2.182-1.549 2.742l-0.014 0.008c-0.323 0.188-0.537 0.533-0.537 0.928 0 0.591 0.479 1.070 1.070 1.070 0.196 0 0.38-0.053 0.538-0.145l-0.005 0.002c1.599-0.941 2.656-2.654 2.656-4.613 0-0.002 0-0.004 0-0.006v0c-0.007-2.399-1.598-4.426-3.781-5.089l-0.038-0.010z"></path>
</svg>
