<!-- Generated by IcoMoon.io -->
<svg version="1.1" xmlns="http://www.w3.org/2000/svg" width="40" height="40" viewBox="0 0 40 40">
<title>ul-cloud-computing</title>
<path d="M29.6 28.534h-3.2c-0.589 0-1.066-0.478-1.066-1.066v0-3.2c2.924-0.028 5.284-2.405 5.284-5.333 0-2.387-1.569-4.409-3.732-5.089l-0.038-0.010c-1.18-2.663-3.8-4.487-6.846-4.487-3.784 0-6.91 2.815-7.4 6.465l-0.004 0.038c-1.892 0.464-3.273 2.146-3.273 4.15 0 2.357 1.91 4.266 4.266 4.266 0.003 0 0.006 0 0.010 0h1.066v3.2c0 0.589-0.478 1.066-1.066 1.066v0h-3.2c-0.589 0-1.066 0.478-1.066 1.066s0.478 1.066 1.066 1.066v0h3.2c1.767 0 3.2-1.433 3.2-3.2v0-3.2h2.134v5.334c0 0.589 0.478 1.066 1.066 1.066s1.066-0.478 1.066-1.066v0-5.334h2.134v3.2c0 1.767 1.433 3.2 3.2 3.2v0h3.2c0.589 0 1.066-0.478 1.066-1.066s-0.478-1.066-1.066-1.066v0zM13.6 22.134c-1.178 0-2.134-0.955-2.134-2.134s0.955-2.134 2.134-2.134v0c0.589 0 1.066-0.478 1.066-1.066v0c0.006-2.941 2.392-5.322 5.334-5.322 2.326 0 4.305 1.49 5.034 3.567l0.011 0.038c0.126 0.37 0.44 0.646 0.826 0.714l0.006 0.001c1.512 0.268 2.647 1.568 2.656 3.135v0.001c0 1.767-1.433 3.2-3.2 3.2v0z"></path>
</svg>
