<!-- Generated by IcoMoon.io -->
<svg version="1.1" xmlns="http://www.w3.org/2000/svg" width="40" height="40" viewBox="0 0 40 40">
<title>ul-crop-alt-rotate-right</title>
<path d="M24.266 11.466h-0.63l0.32-0.31c0.194-0.194 0.314-0.462 0.314-0.758 0-0.591-0.479-1.071-1.071-1.071-0.296 0-0.563 0.12-0.758 0.314l-2.134 2.134c-0.195 0.194-0.315 0.462-0.315 0.758s0.121 0.564 0.315 0.758l2.134 2.134c0.194 0.195 0.462 0.315 0.758 0.315s0.564-0.121 0.758-0.315v0c0.195-0.194 0.315-0.462 0.315-0.758s-0.121-0.564-0.315-0.758v0l-0.32-0.31h0.63c1.767 0 3.2 1.433 3.2 3.2v0 2.134c0 0.589 0.478 1.066 1.066 1.066s1.066-0.478 1.066-1.066v0-2.134c0-2.946-2.388-5.334-5.334-5.334v0zM24.266 26.4h-1.066v-7.466c0-0.589-0.478-1.066-1.066-1.066v0h-7.466v-1.066c0-0.589-0.478-1.066-1.066-1.066s-1.066 0.478-1.066 1.066v0 1.066h-1.066c-0.589 0-1.066 0.478-1.066 1.066s0.478 1.066 1.066 1.066v0h1.066v7.466c0 0.589 0.478 1.066 1.066 1.066v0h7.466v1.066c0 0.589 0.478 1.066 1.066 1.066s1.066-0.478 1.066-1.066v0-1.066h1.066c0.589 0 1.066-0.478 1.066-1.066s-0.478-1.066-1.066-1.066v0zM21.066 26.4h-6.4v-6.4h6.4z"></path>
</svg>
