<!-- Generated by IcoMoon.io -->
<svg version="1.1" xmlns="http://www.w3.org/2000/svg" width="40" height="40" viewBox="0 0 40 40">
<title>ul-cloud-sun-meatball</title>
<path d="M20.534 25.248h-0.822l0.416-0.714c0.090-0.153 0.142-0.337 0.142-0.534 0-0.591-0.479-1.070-1.070-1.070-0.395 0-0.74 0.214-0.926 0.532l-0.002 0.005-0.406 0.714-0.406-0.714c-0.188-0.323-0.533-0.537-0.928-0.537-0.591 0-1.070 0.479-1.070 1.070 0 0.196 0.053 0.38 0.145 0.538l-0.002-0.005 0.416 0.714h-0.822c-0.589 0-1.066 0.478-1.066 1.066s0.478 1.066 1.066 1.066v0h0.822l-0.416 0.704c-0.090 0.153-0.142 0.337-0.142 0.534 0 0.591 0.479 1.070 1.070 1.070 0.395 0 0.74-0.214 0.926-0.532l0.002-0.005 0.406-0.704 0.406 0.704c0.188 0.323 0.533 0.537 0.928 0.537 0.591 0 1.070-0.479 1.070-1.070 0-0.196-0.053-0.38-0.145-0.538l0.002 0.005-0.416-0.704h0.822c0.589 0 1.066-0.478 1.066-1.066s-0.478-1.066-1.066-1.066v0zM29.6 15.648h-0.854c-0.12-0.513-0.311-0.965-0.566-1.374l0.011 0.019 0.598-0.598c0.159-0.186 0.257-0.428 0.257-0.694 0-0.589-0.478-1.066-1.066-1.066-0.266 0-0.509 0.097-0.695 0.258l0.002-0.001-0.598 0.598c-0.39-0.243-0.842-0.434-1.324-0.549l-0.030-0.006v-0.854c0-0.589-0.478-1.066-1.066-1.066s-1.066 0.478-1.066 1.066v0 0.854c-0.509 0.118-0.958 0.31-1.362 0.566l0.018-0.010-0.608-0.598c-0.186-0.159-0.428-0.257-0.694-0.257-0.589 0-1.066 0.478-1.066 1.066 0 0.266 0.097 0.509 0.258 0.695l-0.001-0.002 0.598 0.598c-0.096 0.17-0.17 0.352-0.256 0.522-0.505-0.148-1.085-0.234-1.685-0.234h-0.001c-0.003 0-0.007 0-0.012 0-3.188 0-5.832 2.331-6.319 5.382l-0.005 0.037c-1.589 0.461-2.731 1.903-2.731 3.612 0 0.013 0 0.025 0 0.038v-0.002c0.001 1.216 0.588 2.295 1.494 2.969l0.010 0.007c0.183 0.154 0.422 0.247 0.683 0.247 0.589 0 1.066-0.478 1.066-1.066 0-0.375-0.194-0.706-0.486-0.895l-0.004-0.002c-0.384-0.287-0.63-0.74-0.63-1.25 0-0.003 0-0.006 0-0.009v0.001c0-0.884 0.716-1.6 1.6-1.6v0c0.589 0 1.066-0.478 1.066-1.066v0c0.011-2.348 1.917-4.247 4.266-4.247 1.857 0 3.436 1.186 4.023 2.842l0.010 0.030c0.129 0.366 0.442 0.637 0.826 0.703l0.006 0.001c1.188 0.202 2.081 1.222 2.081 2.452 0 1.018-0.612 1.894-1.489 2.278l-0.016 0.006c-0.382 0.168-0.645 0.543-0.645 0.979 0 0.155 0.033 0.302 0.093 0.435l-0.002-0.006c0.169 0.38 0.543 0.64 0.978 0.64 0.002 0 0.002 0 0.004 0v0c0 0 0.001 0 0.001 0 0.154 0 0.301-0.035 0.432-0.098l-0.006 0.002c1.646-0.73 2.774-2.35 2.774-4.234 0-0.011 0-0.023 0-0.034v0.002c-0.002-0.6-0.12-1.171-0.331-1.694l0.011 0.030 0.138 0.138c0.192 0.19 0.455 0.308 0.746 0.31v0c0.002 0 0.004 0 0.006 0 0.293 0 0.558-0.118 0.751-0.31v0c0.195-0.194 0.315-0.462 0.315-0.758s-0.121-0.564-0.315-0.758l-0.598-0.598c0.243-0.386 0.434-0.835 0.549-1.314l0.006-0.030h0.854c0.589 0 1.066-0.478 1.066-1.066s-0.478-1.066-1.066-1.066v0zM26.038 18.464v0c-0.178 0.182-0.391 0.329-0.627 0.432l-0.013 0.005c-0.325-0.221-0.7-0.406-1.099-0.535l-0.031-0.009c-0.514-1.082-1.286-1.97-2.238-2.61l-0.023-0.014c0.12-0.29 0.286-0.538 0.491-0.747l-0.001 0.001c0.46-0.43 1.079-0.693 1.76-0.693s1.3 0.264 1.762 0.694l-0.002-0.002c0.446 0.45 0.721 1.070 0.721 1.754s-0.275 1.304-0.721 1.755v0z"></path>
</svg>
