<!-- Generated by IcoMoon.io -->
<svg version="1.1" xmlns="http://www.w3.org/2000/svg" width="40" height="40" viewBox="0 0 40 40">
<title>ul-clinic-medical</title>
<path d="M18.934 20v1.066h-1.066c-0.589 0-1.066 0.478-1.066 1.066s0.478 1.066 1.066 1.066v0h1.066v1.066c0 0.589 0.478 1.066 1.066 1.066s1.066-0.478 1.066-1.066v0-1.066h1.066c0.589 0 1.066-0.478 1.066-1.066s-0.478-1.066-1.066-1.066v0h-1.066v-1.066c0-0.589-0.478-1.066-1.066-1.066s-1.066 0.478-1.066 1.066v0zM30.308 18.136l-9.6-8.534c-0.187-0.167-0.436-0.27-0.708-0.27s-0.521 0.102-0.71 0.27l0.001-0.001-9.6 8.534c-0.22 0.196-0.358 0.481-0.358 0.798 0 0.589 0.478 1.066 1.066 1.066 0.272 0 0.521-0.102 0.71-0.27l-0.001 0.001 0.358-0.318v10.188c0 0 0 0 0 0 0 0.589 0.478 1.066 1.066 1.066 0 0 0 0 0 0h14.934c0 0 0 0 0 0 0.589 0 1.066-0.478 1.066-1.066 0 0 0 0 0 0v0-10.188l0.358 0.318c0.187 0.167 0.436 0.269 0.708 0.269 0.589 0 1.066-0.478 1.066-1.066 0-0.317-0.138-0.601-0.357-0.797l-0.001-0.001zM26.4 28.534h-12.8v-11.018l6.4-5.689 6.4 5.689z"></path>
</svg>
