<!-- Generated by IcoMoon.io -->
<svg version="1.1" xmlns="http://www.w3.org/2000/svg" width="40" height="40" viewBox="0 0 40 40">
<title>ul-copy-landscape</title>
<path d="M26.4 27.466h-12.8c-1.767 0-3.2-1.433-3.2-3.2v0-8.534c0-0.589-0.478-1.066-1.066-1.066s-1.066 0.478-1.066 1.066v0 8.534c0 2.946 2.388 5.334 5.334 5.334v0h12.8c0.589 0 1.066-0.478 1.066-1.066s-0.478-1.066-1.066-1.066v0zM31.734 17.802c-0.013-0.107-0.035-0.205-0.067-0.298l0.003 0.010v-0.096c-0.054-0.114-0.122-0.214-0.203-0.299l-6.399-6.399c-0.086-0.081-0.184-0.148-0.292-0.2l-0.007-0.003h-0.096l-0.342-0.118h-8.598c-1.767 0-3.2 1.433-3.2 3.2v0 8.534c0 1.767 1.433 3.2 3.2 3.2v0h12.8c1.767 0 3.2-1.433 3.2-3.2v0-4.266s0 0 0-0.064zM25.334 14.038l2.762 2.762h-1.696c-0.589 0-1.066-0.478-1.066-1.066v0zM29.6 22.134c0 0.589-0.478 1.066-1.066 1.066v0h-12.8c-0.589 0-1.066-0.478-1.066-1.066v0-8.534c0-0.589 0.478-1.066 1.066-1.066v0h7.466v3.2c0 1.767 1.433 3.2 3.2 3.2v0h3.2z"></path>
</svg>
