<!-- Generated by IcoMoon.io -->
<svg version="1.1" xmlns="http://www.w3.org/2000/svg" width="40" height="40" viewBox="0 0 40 40">
<title>ul-comment-alt-search</title>
<path d="M27.466 13.6h-5.334c-0.589 0-1.066 0.478-1.066 1.066s0.478 1.066 1.066 1.066v0h5.334c0.589 0 1.066 0.478 1.066 1.066v0 10.368l-1.674-1.546c-0.19-0.178-0.445-0.287-0.725-0.288h-9.334c-0.589 0-1.066-0.478-1.066-1.066v0-2.134c0-0.589-0.478-1.066-1.066-1.066s-1.066 0.478-1.066 1.066v0 2.134c0 1.767 1.433 3.2 3.2 3.2v0h8.918l3.2 2.912c0.179 0.169 0.418 0.276 0.68 0.288h0.002c0.154-0.002 0.301-0.033 0.434-0.088l-0.008 0.003c0.38-0.169 0.64-0.543 0.64-0.978 0-0.002 0-0.002 0-0.004v0-12.8c0-1.767-1.433-3.2-3.2-3.2v0zM16.342 17.866l1.834 1.846c0.194 0.195 0.462 0.315 0.758 0.315s0.564-0.121 0.758-0.315v0c0.195-0.194 0.315-0.462 0.315-0.758s-0.121-0.564-0.315-0.758v0l-1.824-1.856c0.429-0.686 0.686-1.518 0.694-2.409v-0.002c0-2.548-2.066-4.614-4.614-4.614s-4.614 2.066-4.614 4.614v0c0 0 0 0 0 0 0 2.541 2.057 4.602 4.597 4.608h0.001c0.002 0 0.003 0 0.006 0 0.889 0 1.719-0.25 2.426-0.683l-0.020 0.011zM11.466 13.93c0-0.001 0-0.001 0-0.002 0-0.679 0.278-1.294 0.725-1.737v0c0.45-0.46 1.077-0.746 1.77-0.746s1.321 0.286 1.77 0.746l0.001 0.001c0.463 0.449 0.75 1.076 0.75 1.77s-0.287 1.322-0.75 1.77l-0.001 0.001c-0.452 0.474-1.088 0.77-1.794 0.77-1.366 0-2.474-1.108-2.474-2.474 0-0.034 0.001-0.069 0.002-0.103v0.005z"></path>
</svg>
