<!-- Generated by IcoMoon.io -->
<svg version="1.1" xmlns="http://www.w3.org/2000/svg" width="40" height="40" viewBox="0 0 40 40">
<title>ul-celsius</title>
<path d="M29.6 27.466h-6.4c-1.767 0-3.2-1.433-3.2-3.2v0-8.534c0-1.767 1.433-3.2 3.2-3.2v0h6.4c0.589 0 1.066-0.478 1.066-1.066s-0.478-1.066-1.066-1.066v0h-6.4c-2.946 0-5.334 2.388-5.334 5.334v0 8.534c0 2.946 2.388 5.334 5.334 5.334v0h6.4c0.589 0 1.066-0.478 1.066-1.066s-0.478-1.066-1.066-1.066v0zM12.534 10.4c-1.767 0-3.2 1.433-3.2 3.2s1.433 3.2 3.2 3.2c1.767 0 3.2-1.433 3.2-3.2v0c0-1.767-1.433-3.2-3.2-3.2v0zM12.534 14.666c-0.589 0-1.066-0.478-1.066-1.066s0.478-1.066 1.066-1.066c0.589 0 1.066 0.478 1.066 1.066v0c0 0.589-0.478 1.066-1.066 1.066v0z"></path>
</svg>
