<!-- Generated by IcoMoon.io -->
<svg version="1.1" xmlns="http://www.w3.org/2000/svg" width="40" height="40" viewBox="0 0 40 40">
<title>ul-comment-alt-question</title>
<path d="M13.91 18.186c-0.192 0.193-0.311 0.459-0.311 0.753 0 0.589 0.478 1.066 1.066 1.066 0.146 0 0.286-0.030 0.414-0.083l-0.007 0.002c0.135-0.062 0.252-0.14 0.353-0.235l-0.001 0.001c0.094-0.095 0.169-0.209 0.222-0.334l0.002-0.007c0.054-0.113 0.086-0.246 0.086-0.385 0-0.011 0-0.022-0.001-0.033v0.002c-0.002-0.291-0.119-0.555-0.31-0.746v0c-0.194-0.195-0.462-0.315-0.758-0.315s-0.564 0.121-0.758 0.315v0zM14.666 12.534c0.589 0 1.066 0.478 1.066 1.066s-0.478 1.066-1.066 1.066v0c-0.589 0-1.066 0.478-1.066 1.066s0.478 1.066 1.066 1.066v0c1.766-0.001 3.198-1.434 3.198-3.2s-1.433-3.2-3.2-3.2c-1.178 0-2.208 0.637-2.763 1.585l-0.008 0.015c-0.090 0.154-0.144 0.338-0.144 0.534 0 0.394 0.214 0.739 0.534 0.924l0.005 0.002c0.151 0.087 0.333 0.139 0.526 0.139 0.393 0 0.736-0.213 0.922-0.529l0.002-0.005c0.188-0.321 0.531-0.534 0.924-0.534 0.002 0 0.003 0 0.005 0v0zM27.466 13.6h-6.4c-0.589 0-1.066 0.478-1.066 1.066s0.478 1.066 1.066 1.066v0h6.4c0.589 0 1.066 0.478 1.066 1.066v0 10.368l-1.674-1.546c-0.19-0.178-0.445-0.287-0.725-0.288h-9.334c-0.589 0-1.066-0.478-1.066-1.066v0-1.066c0-0.589-0.478-1.066-1.066-1.066s-1.066 0.478-1.066 1.066v0 1.066c0 1.767 1.433 3.2 3.2 3.2v0h8.918l3.2 2.912c0.179 0.169 0.418 0.276 0.68 0.288h0.002c0.154-0.002 0.301-0.033 0.434-0.088l-0.008 0.003c0.38-0.169 0.64-0.543 0.64-0.978 0-0.002 0-0.002 0-0.004v0-12.8c0-1.767-1.433-3.2-3.2-3.2v0z"></path>
</svg>
