<!-- Generated by IcoMoon.io -->
<svg version="1.1" xmlns="http://www.w3.org/2000/svg" width="40" height="40" viewBox="0 0 40 40">
<title>ul-compress-alt</title>
<path d="M30.358 9.642c-0.194-0.195-0.462-0.315-0.758-0.315s-0.564 0.121-0.758 0.315v0l-6.176 6.186v-1.696c0-0.589-0.478-1.066-1.066-1.066s-1.066 0.478-1.066 1.066v0 4.266c0.002 0.147 0.033 0.286 0.088 0.412l-0.002-0.007c0.11 0.262 0.314 0.466 0.569 0.574l0.007 0.002c0.119 0.052 0.258 0.083 0.405 0.086h4.267c0.589 0 1.066-0.478 1.066-1.066s-0.478-1.066-1.066-1.066v0h-1.696l6.186-6.176c0.195-0.194 0.315-0.462 0.315-0.758s-0.121-0.564-0.315-0.758v0zM18.806 20.618c-0.119-0.052-0.258-0.083-0.405-0.086h-4.267c-0.589 0-1.066 0.478-1.066 1.066s0.478 1.066 1.066 1.066v0h1.696l-6.186 6.176c-0.195 0.194-0.315 0.462-0.315 0.758s0.121 0.564 0.315 0.758v0c0.194 0.195 0.462 0.315 0.758 0.315s0.564-0.121 0.758-0.315v0l6.176-6.186v1.696c0 0.589 0.478 1.066 1.066 1.066s1.066-0.478 1.066-1.066v0-4.266c-0.002-0.147-0.033-0.286-0.088-0.412l0.002 0.007c-0.11-0.262-0.314-0.466-0.569-0.574l-0.007-0.002z"></path>
</svg>
