<!-- Generated by IcoMoon.io -->
<svg version="1.1" xmlns="http://www.w3.org/2000/svg" width="40" height="40" viewBox="0 0 40 40">
<title>ul-corner-left-down</title>
<path d="M29.6 11.798h-9.994c-2.946 0-5.334 2.388-5.334 5.334v0 7.466l-3.114-3.158c-0.194-0.195-0.462-0.315-0.758-0.315s-0.564 0.121-0.758 0.315v0c-0.192 0.193-0.31 0.458-0.31 0.752s0.118 0.559 0.31 0.752l4.938 4.938c0.098 0.098 0.215 0.178 0.345 0.232l0.007 0.002c0.119 0.054 0.258 0.086 0.406 0.086s0.286-0.031 0.412-0.088l-0.006 0.002c0.135-0.062 0.252-0.14 0.353-0.235l-0.001 0.001 4.97-4.938c0.159-0.186 0.257-0.428 0.257-0.694 0-0.589-0.478-1.066-1.066-1.066-0.266 0-0.509 0.097-0.695 0.258l0.002-0.001-3.158 3.114v-7.466c0-1.767 1.433-3.2 3.2-3.2v0h9.994c0.589 0 1.066-0.478 1.066-1.066s-0.478-1.066-1.066-1.066v0z"></path>
</svg>
