<!-- Generated by IcoMoon.io -->
<svg version="1.1" xmlns="http://www.w3.org/2000/svg" width="40" height="40" viewBox="0 0 40 40">
<title>ul-comment-question</title>
<path d="M22.954 13.462c0.151 0.087 0.333 0.139 0.526 0.139 0.393 0 0.736-0.213 0.922-0.529l0.002-0.005c0.187-0.326 0.532-0.541 0.928-0.541 0.589 0 1.066 0.478 1.066 1.066 0 0.002 0 0.006 0 0.008v-0.001c0 0.589-0.478 1.066-1.066 1.066v0c-0.589 0-1.066 0.478-1.066 1.066s0.478 1.066 1.066 1.066v0c1.766-0.001 3.198-1.434 3.198-3.2s-1.433-3.2-3.2-3.2c-1.178 0-2.208 0.637-2.763 1.585l-0.008 0.015c-0.090 0.154-0.144 0.338-0.144 0.534 0 0.394 0.214 0.739 0.534 0.924l0.005 0.002zM27.542 21.066c-0.042-0.006-0.089-0.009-0.138-0.009-0.539 0-0.986 0.401-1.057 0.921l-0.001 0.006c-0.473 3.71-3.61 6.55-7.41 6.55-0.001 0-0.002 0-0.003 0h-5.962l0.694-0.694c0.192-0.193 0.31-0.458 0.31-0.752s-0.118-0.559-0.31-0.752v0c-1.345-1.35-2.177-3.213-2.177-5.27 0-4.117 3.331-7.455 7.445-7.466h0.001c0.589 0 1.066-0.478 1.066-1.066s-0.478-1.066-1.066-1.066v0c-5.285 0.022-9.56 4.312-9.56 9.6 0 2.272 0.789 4.359 2.108 6.003l-0.014-0.019-1.824 1.792c-0.19 0.193-0.307 0.457-0.307 0.749 0 0.15 0.030 0.291 0.086 0.421l-0.002-0.007c0.163 0.39 0.541 0.659 0.981 0.662h8.534c0 0 0.001 0 0.002 0 4.877 0 8.905-3.637 9.519-8.346l0.005-0.048c0.006-0.045 0.010-0.096 0.010-0.148 0-0.54-0.402-0.986-0.922-1.057l-0.006-0.001zM25.738 17.942c-0.127-0.058-0.275-0.091-0.431-0.091-0.066 0-0.131 0.006-0.194 0.018l0.006-0.001-0.192 0.064-0.192 0.096-0.16 0.138c-0.094 0.095-0.169 0.209-0.222 0.334l-0.002 0.007c-0.054 0.112-0.086 0.244-0.086 0.384 0 0.015 0 0.030 0.001 0.045v-0.002c0 0.007 0 0.015 0 0.023 0 0.142 0.027 0.276 0.078 0.4l-0.002-0.007c0.058 0.133 0.138 0.246 0.234 0.341v0c0.193 0.191 0.458 0.31 0.751 0.31 0.002 0 0.004 0 0.006 0v0c0.589 0 1.066-0.478 1.066-1.066v0c0-0.007 0-0.015 0-0.023 0-0.139-0.031-0.27-0.088-0.388l0.002 0.006c-0.117-0.258-0.318-0.459-0.569-0.573l-0.007-0.003z"></path>
</svg>
