<!-- Generated by IcoMoon.io -->
<svg version="1.1" xmlns="http://www.w3.org/2000/svg" width="40" height="40" viewBox="0 0 40 40">
<title>ul-dialpad</title>
<path d="M14.666 9.6h-4.266c-0.439 0.006-0.794 0.361-0.8 0.799v4.267c0.006 0.439 0.361 0.794 0.799 0.8h4.267c0.439-0.006 0.794-0.361 0.8-0.799v-4.267c-0.006-0.439-0.361-0.794-0.799-0.8h-0.001zM13.866 13.866h-2.666v-2.666h2.666zM29.6 9.6h-4.266c-0.439 0.006-0.794 0.361-0.8 0.799v4.267c0.006 0.439 0.361 0.794 0.799 0.8h4.267c0.439-0.006 0.794-0.361 0.8-0.799v-4.267c-0.006-0.439-0.361-0.794-0.799-0.8h-0.001zM28.8 13.866h-2.666v-2.666h2.666zM22.134 9.6h-4.266c-0.439 0.006-0.794 0.361-0.8 0.799v4.267c0.006 0.439 0.361 0.794 0.799 0.8h4.267c0.439-0.006 0.794-0.361 0.8-0.799v-4.267c-0.006-0.439-0.361-0.794-0.799-0.8h-0.001zM21.334 13.866h-2.666v-2.666h2.666zM14.666 17.066h-4.266c-0.439 0.006-0.794 0.361-0.8 0.799v4.267c0.006 0.439 0.361 0.794 0.799 0.8h4.267c0.439-0.006 0.794-0.361 0.8-0.799v-4.267c-0.006-0.439-0.361-0.794-0.799-0.8h-0.001zM13.866 21.334h-2.666v-2.666h2.666zM22.134 17.066h-4.266c-0.439 0.006-0.794 0.361-0.8 0.799v4.267c0.006 0.439 0.361 0.794 0.799 0.8h4.267c0.439-0.006 0.794-0.361 0.8-0.799v-4.267c-0.006-0.439-0.361-0.794-0.799-0.8h-0.001zM21.334 21.334h-2.666v-2.666h2.666zM29.6 17.066h-4.266c-0.439 0.006-0.794 0.361-0.8 0.799v4.267c0.006 0.439 0.361 0.794 0.799 0.8h4.267c0.439-0.006 0.794-0.361 0.8-0.799v-4.267c-0.006-0.439-0.361-0.794-0.799-0.8h-0.001zM28.8 21.334h-2.666v-2.666h2.666zM22.134 24.534h-4.266c-0.439 0.006-0.794 0.361-0.8 0.799v4.267c0.006 0.439 0.361 0.794 0.799 0.8h4.267c0.439-0.006 0.794-0.361 0.8-0.799v-4.267c-0.006-0.439-0.361-0.794-0.799-0.8h-0.001zM21.334 28.8h-2.666v-2.666h2.666z"></path>
</svg>
