<!-- Generated by IcoMoon.io -->
<svg version="1.1" xmlns="http://www.w3.org/2000/svg" width="40" height="40" viewBox="0 0 40 40">
<title>ul-discord</title>
<path d="M18.014 18.538v0c-0.62 0-1.123 0.503-1.123 1.123s0.503 1.123 1.123 1.123c0.62 0 1.123-0.503 1.123-1.123s-0.502-1.123-1.123-1.123v0zM22.018 18.538c-0.031-0.002-0.067-0.004-0.103-0.004-0.675 0-1.222 0.547-1.222 1.222s0.547 1.222 1.222 1.222c0.675 0 1.222-0.547 1.222-1.222 0 0 0 0 0 0v0c0.001-0.015 0.001-0.032 0.001-0.050 0-0.629-0.496-1.141-1.118-1.168h-0.002zM27.35 9.334h-14.702c-1.243 0.003-2.25 1.011-2.25 2.254 0 0.002 0 0.004 0 0.006v0 14.834c0 0.002 0 0.003 0 0.006 0 1.243 1.006 2.251 2.249 2.254h12.442l-0.582-2.030 1.404 1.306 1.327 1.229 2.359 2.085v-19.682c0-0.002 0-0.004 0-0.006 0-1.243-1.006-2.251-2.249-2.254v0zM23.116 23.662v0s-0.395-0.472-0.724-0.889c0.818-0.197 1.505-0.662 1.979-1.297l0.006-0.009c-0.363 0.246-0.779 0.463-1.219 0.633l-0.043 0.014c-0.458 0.202-0.991 0.365-1.547 0.466l-0.044 0.006c-0.418 0.081-0.9 0.127-1.392 0.127-0.513 0-1.014-0.050-1.498-0.146l0.049 0.008c-0.618-0.122-1.158-0.286-1.675-0.494l0.062 0.022c-0.317-0.122-0.58-0.248-0.834-0.39l0.033 0.017c-0.033-0.022-0.066-0.033-0.098-0.055-0.017-0.009-0.031-0.019-0.044-0.033v0c-0.198-0.11-0.307-0.186-0.307-0.186 0.465 0.63 1.128 1.090 1.896 1.29l0.024 0.006c-0.329 0.417-0.735 0.91-0.735 0.91-0.032 0.001-0.070 0.002-0.107 0.002-1.331 0-2.509-0.654-3.231-1.658l-0.008-0.012c0.038-2.34 0.618-4.535 1.618-6.479l-0.038 0.082c0.844-0.668 1.909-1.092 3.070-1.151l0.013-0.001 0.11 0.132c-1.11 0.28-2.078 0.778-2.898 1.448l0.014-0.010s0.242-0.132 0.647-0.318c0.726-0.34 1.567-0.584 2.452-0.687l0.038-0.004c0.055-0.012 0.119-0.020 0.185-0.022h0.002c0.36-0.050 0.776-0.078 1.199-0.078 0.358 0 0.712 0.020 1.060 0.060l-0.042-0.004c1.231 0.144 2.349 0.517 3.347 1.077l-0.045-0.023c-0.766-0.628-1.681-1.108-2.681-1.382l-0.051-0.012 0.154-0.175c1.174 0.060 2.238 0.484 3.094 1.161l-0.011-0.009c0.962 1.861 1.542 4.057 1.58 6.384v0.013c-0.737 1.016-1.92 1.669-3.256 1.669-0.036 0-0.071-0.001-0.107-0.002h0.006z"></path>
</svg>
