<!-- Generated by IcoMoon.io -->
<svg version="1.1" xmlns="http://www.w3.org/2000/svg" width="40" height="40" viewBox="0 0 40 40">
<title>ul-draggabledots</title>
<path d="M16.266 17.866c-1.178 0-2.134 0.955-2.134 2.134s0.955 2.134 2.134 2.134c1.178 0 2.134-0.955 2.134-2.134v0c0-1.178-0.955-2.134-2.134-2.134v0zM16.266 25.334c-1.178 0-2.134 0.955-2.134 2.134s0.955 2.134 2.134 2.134c1.178 0 2.134-0.955 2.134-2.134v0c0-1.178-0.955-2.134-2.134-2.134v0zM23.734 14.666c1.178 0 2.134-0.955 2.134-2.134s-0.955-2.134-2.134-2.134c-1.178 0-2.134 0.955-2.134 2.134v0c0 1.178 0.955 2.134 2.134 2.134v0zM16.266 10.4c-1.178 0-2.134 0.955-2.134 2.134s0.955 2.134 2.134 2.134c1.178 0 2.134-0.955 2.134-2.134v0c0-1.178-0.955-2.134-2.134-2.134v0zM23.734 25.334c-1.178 0-2.134 0.955-2.134 2.134s0.955 2.134 2.134 2.134c1.178 0 2.134-0.955 2.134-2.134v0c0-1.178-0.955-2.134-2.134-2.134v0zM23.734 17.866c-1.178 0-2.134 0.955-2.134 2.134s0.955 2.134 2.134 2.134c1.178 0 2.134-0.955 2.134-2.134v0c0-1.178-0.955-2.134-2.134-2.134v0z"></path>
</svg>
