<!-- Generated by IcoMoon.io -->
<svg version="1.1" xmlns="http://www.w3.org/2000/svg" width="40" height="40" viewBox="0 0 40 40">
<title>ul-expand-right</title>
<path d="M16.266 22.24l-4.8 4.8v-1.706c0-0.64-0.426-1.066-1.066-1.066s-1.066 0.426-1.066 1.066v4.266c0 0.106 0 0.32 0.106 0.426 0.106 0.214 0.32 0.426 0.534 0.534 0.106 0.106 0.32 0.106 0.426 0.106h4.266c0.64 0 1.066-0.426 1.066-1.066s-0.426-1.066-1.066-1.066h-1.706l4.8-4.8c0.426-0.426 0.426-1.066 0-1.494s-1.066-0.426-1.494 0zM30.346 9.654c0 0 0 0 0 0-0.214-0.214-0.534-0.32-0.746-0.32h-4.266c-0.64 0-1.066 0.426-1.066 1.066s0.426 1.066 1.066 1.066h1.706l-4.8 4.8c-0.426 0.426-0.426 1.066 0 1.494v0c0.214 0.214 0.426 0.32 0.746 0.32s0.534-0.106 0.746-0.32l4.8-4.8v1.706c0 0.64 0.426 1.066 1.066 1.066s1.066-0.426 1.066-1.066v-4.266c0-0.214-0.106-0.534-0.32-0.746zM23.734 22.24l-5.974-5.974c-0.426-0.426-1.066-0.426-1.494 0s-0.426 1.066 0 1.494l6.080 6.080c0.214 0.214 0.426 0.32 0.746 0.32s0.534-0.106 0.746-0.32c0.32-0.426 0.32-1.174-0.106-1.6 0 0 0 0 0 0z"></path>
</svg>
