<!-- Generated by IcoMoon.io -->
<svg version="1.1" xmlns="http://www.w3.org/2000/svg" width="40" height="40" viewBox="0 0 40 40">
<title>ul-edit-alt</title>
<path d="M12.534 26.4h4.522c0.002 0 0.004 0 0.006 0 0.293 0 0.558-0.118 0.751-0.31v0l7.382-7.392 3.030-2.966c0.195-0.194 0.315-0.462 0.315-0.758s-0.121-0.564-0.315-0.758v0l-4.522-4.576c-0.194-0.195-0.462-0.315-0.758-0.315s-0.564 0.121-0.758 0.315v0l-3.008 3.018-7.402 7.392c-0.191 0.193-0.31 0.458-0.31 0.751 0 0.002 0 0.004 0 0.006v0 4.522c0 0.589 0.478 1.066 1.066 1.066v0zM22.944 11.904l3.018 3.018-1.514 1.514-3.018-3.018zM13.6 21.248l6.326-6.326 3.018 3.018-6.326 6.326h-3.018zM29.6 28.534h-19.2c-0.589 0-1.066 0.478-1.066 1.066s0.478 1.066 1.066 1.066v0h19.2c0.589 0 1.066-0.478 1.066-1.066s-0.478-1.066-1.066-1.066v0z"></path>
</svg>
