<!-- Generated by IcoMoon.io -->
<svg version="1.1" xmlns="http://www.w3.org/2000/svg" width="40" height="40" viewBox="0 0 40 40">
<title>ul-ear</title>
<path d="M20 15.734c0.589 0.001 1.066 0.478 1.066 1.066v0c0 0.589 0.478 1.066 1.066 1.066s1.066-0.478 1.066-1.066v0c-0.001-1.766-1.433-3.198-3.199-3.198s-3.199 1.433-3.199 3.199c0 0.937 0.402 1.78 1.044 2.365l0.002 0.002c0.010 0.010 0.172 0.182 0.206 0.229 0.116 0.167 0.186 0.374 0.186 0.597s-0.070 0.43-0.188 0.6l0.002-0.003c-0.117 0.169-0.187 0.378-0.187 0.603 0 0.589 0.478 1.066 1.066 1.066 0.363 0 0.685-0.182 0.877-0.459l0.002-0.003c0.35-0.504 0.561-1.13 0.561-1.803 0-0.678-0.212-1.306-0.573-1.822l0.007 0.010c-0.173-0.217-0.345-0.41-0.525-0.595l0.002 0.002c-0.062-0.058-0.118-0.121-0.166-0.19l-0.002-0.004c-0.114-0.167-0.182-0.373-0.182-0.595 0-0.59 0.478-1.067 1.066-1.067v0zM20 9.334c-4.124 0-7.466 3.343-7.466 7.467 0 0.687 0.093 1.352 0.266 1.984l-0.012-0.053c0.127 0.457 0.54 0.786 1.029 0.786 0.589 0 1.066-0.478 1.066-1.066 0-0.097-0.013-0.19-0.037-0.279l0.002 0.007c-0.115-0.414-0.182-0.89-0.182-1.38 0-2.946 2.388-5.334 5.334-5.334s5.334 2.388 5.334 5.334v0c-0.005 1.010-0.284 1.954-0.766 2.763l0.014-0.025-3.801 7.928c-0.376 0.642-1.062 1.066-1.846 1.066v0c-1.172-0.016-2.118-0.962-2.134-2.132v-0.002c0 0 0 0 0 0 0-0.393 0.106-0.76 0.292-1.075l-0.006 0.010c0.090-0.154 0.143-0.338 0.143-0.534 0-0.59-0.478-1.067-1.067-1.067-0.393 0-0.736 0.212-0.922 0.528l-0.002 0.005c-0.36 0.613-0.573 1.349-0.573 2.135 0 2.356 1.91 4.266 4.266 4.266 1.6 0 2.994-0.881 3.724-2.183l0.011-0.022 3.801-7.928c0.629-1.071 1-2.358 1-3.733 0-4.124-3.343-7.467-7.466-7.467v0z"></path>
</svg>
