<!-- Generated by IcoMoon.io -->
<svg version="1.1" xmlns="http://www.w3.org/2000/svg" width="40" height="40" viewBox="0 0 40 40">
<title>ul-envelope-bookmark</title>
<path d="M29.6 23.478c-0.589 0-1.066 0.478-1.066 1.066v0 3.2c0 0.589-0.478 1.066-1.066 1.066v0h-14.934c-0.589 0-1.066-0.478-1.066-1.066v0-10.23l6.272 6.282c0.575 0.57 1.366 0.924 2.239 0.928h0.001c0.002 0 0.003 0 0.006 0 0.557 0 1.081-0.142 1.537-0.392l-0.017 0.008c0.335-0.184 0.558-0.535 0.558-0.938 0-0.188-0.049-0.365-0.134-0.518l0.002 0.006c-0.184-0.335-0.535-0.558-0.938-0.558-0.188 0-0.365 0.049-0.518 0.134l0.006-0.002c-0.142 0.074-0.309 0.118-0.486 0.118-0.288 0-0.549-0.114-0.741-0.299v0l-6.282-6.272h7.030c0.589 0 1.066-0.478 1.066-1.066s-0.478-1.066-1.066-1.066v0h-7.466c-1.767 0-3.2 1.433-3.2 3.2v0 10.666c0 1.767 1.433 3.2 3.2 3.2v0h14.934c1.767 0 3.2-1.433 3.2-3.2v0-3.2c0-0.589-0.478-1.066-1.066-1.066v0zM29.6 10.678h-5.334c-0.589 0-1.066 0.478-1.066 1.066v0 8.534c0.001 0.588 0.478 1.065 1.066 1.065 0.227 0 0.438-0.071 0.611-0.193l-0.003 0.002 2.058-1.376 2.038 1.366c0.176 0.124 0.394 0.199 0.629 0.202h0.001c0.158-0.001 0.309-0.036 0.444-0.098l-0.006 0.002c0.374-0.171 0.629-0.541 0.63-0.97v-8.534c0-0.589-0.478-1.066-1.066-1.066v0zM28.534 18.272l-1.002-0.672c-0.167-0.114-0.374-0.183-0.598-0.183s-0.43 0.068-0.601 0.186l0.004-0.002-1.002 0.672v-5.462h3.2z"></path>
</svg>
