<!-- Generated by IcoMoon.io -->
<svg version="1.1" xmlns="http://www.w3.org/2000/svg" width="40" height="40" viewBox="0 0 40 40">
<title>ul-english-to-chinese</title>
<path d="M22.157 14.666h1.066c0.589 0.001 1.066 0.478 1.066 1.066v1.066c0 0.589 0.478 1.066 1.066 1.066s1.066-0.478 1.066-1.066v0-1.066c-0.002-1.766-1.434-3.198-3.2-3.2h-1.067c-0.589 0-1.066 0.478-1.066 1.066s0.478 1.066 1.066 1.066v0zM17.89 24.266h-1.066c-0.589-0.001-1.066-0.478-1.066-1.066v-1.066c0-0.589-0.478-1.066-1.066-1.066s-1.066 0.478-1.066 1.066v0 1.066c0.002 1.766 1.434 3.198 3.2 3.2h1.067c0.589 0 1.066-0.478 1.066-1.066s-0.478-1.066-1.066-1.066v0zM29.623 23.2c0.589 0 1.066-0.478 1.066-1.066s-0.478-1.066-1.066-1.066v0h-3.2v-0.534c0-0.589-0.478-1.066-1.066-1.066s-1.066 0.478-1.066 1.066v0 0.534h-3.2c-0.589 0-1.066 0.478-1.066 1.066s0.478 1.066 1.066 1.066v0h5.53c-0.259 1.034-0.711 1.936-1.319 2.71l0.012-0.015c-0.238-0.305-0.46-0.648-0.653-1.010l-0.018-0.038c-0.181-0.347-0.538-0.58-0.949-0.58-0.589 0-1.066 0.478-1.066 1.066 0 0.178 0.043 0.345 0.12 0.492l-0.003-0.006c0.311 0.596 0.651 1.109 1.037 1.583l-0.014-0.017c-0.734 0.538-1.6 0.944-2.539 1.163l-0.048 0.010c-0.482 0.109-0.837 0.534-0.837 1.042 0 0.589 0.478 1.066 1.066 1.066 0.080 0 0.158-0.009 0.233-0.026l-0.007 0.002c1.409-0.318 2.644-0.92 3.694-1.745l-0.020 0.015c1.039 0.81 2.282 1.412 3.638 1.718l0.062 0.012c0.069 0.016 0.148 0.025 0.23 0.025 0.589 0 1.066-0.478 1.066-1.066 0-0.508-0.354-0.933-0.83-1.040l-0.007-0.002c-0.994-0.226-1.868-0.629-2.63-1.178l0.022 0.014c0.95-1.162 1.63-2.582 1.924-4.138l0.009-0.058zM16.855 19.192c0.121 0.466 0.538 0.805 1.034 0.805 0.589 0 1.066-0.478 1.066-1.066 0-0.091-0.011-0.179-0.033-0.263l0.002 0.007-1.874-7.498c-0.274-1.067-1.226-1.842-2.361-1.842s-2.087 0.776-2.357 1.826l-0.004 0.017-1.874 7.498c-0.020 0.077-0.031 0.165-0.031 0.256 0 0.589 0.478 1.066 1.066 1.066 0.496 0 0.913-0.338 1.033-0.798l0.002-0.007 0.598-2.392h3.134zM13.656 14.666l0.743-2.973c0.046-0.118 0.158-0.201 0.29-0.201s0.245 0.082 0.29 0.198l0.001 0.002 0.743 2.973z"></path>
</svg>
