<!-- Generated by IcoMoon.io -->
<svg version="1.1" xmlns="http://www.w3.org/2000/svg" width="40" height="40" viewBox="0 0 40 40">
<title>ul-file-lock-alt</title>
<path d="M17.866 28.534h-5.334c-0.589 0-1.066-0.478-1.066-1.066v0-14.934c0-0.589 0.478-1.066 1.066-1.066v0h5.334v3.2c0 1.767 1.433 3.2 3.2 3.2v0h4.266c0.441-0.002 0.818-0.271 0.978-0.654l0.002-0.007c0.053-0.122 0.083-0.264 0.083-0.414 0-0.292-0.118-0.557-0.307-0.75v0l-6.4-6.4c-0.086-0.081-0.184-0.148-0.292-0.2l-0.007-0.003c-0.014-0.002-0.031-0.003-0.048-0.003s-0.034 0.002-0.050 0.004h0.002l-0.298-0.106h-6.464c-1.767 0-3.2 1.433-3.2 3.2v0 14.934c0 1.767 1.433 3.2 3.2 3.2v0h5.334c0.589 0 1.066-0.478 1.066-1.066s-0.478-1.066-1.066-1.066v0zM20 12.97l2.762 2.762h-1.696c-0.589 0-1.066-0.478-1.066-1.066v0zM21.066 21.066c0-0.589-0.478-1.066-1.066-1.066v0h-5.334c-0.589 0-1.066 0.478-1.066 1.066s0.478 1.066 1.066 1.066v0h5.334c0.589 0 1.066-0.478 1.066-1.066v0zM14.666 17.866h1.066c0.589 0 1.066-0.478 1.066-1.066s-0.478-1.066-1.066-1.066v0h-1.066c-0.589 0-1.066 0.478-1.066 1.066s0.478 1.066 1.066 1.066v0zM14.666 24.266c-0.589 0-1.066 0.478-1.066 1.066s0.478 1.066 1.066 1.066v0h2.134c0.589 0 1.066-0.478 1.066-1.066s-0.478-1.066-1.066-1.066v0zM28.534 23.392v-0.192c0-1.767-1.433-3.2-3.2-3.2s-3.2 1.433-3.2 3.2v0 0.192c-1.25 0.451-2.13 1.626-2.134 3.007v1.067c0 1.767 1.433 3.2 3.2 3.2v0h4.266c1.767 0 3.2-1.433 3.2-3.2v0-1.066c-0.004-1.382-0.882-2.557-2.111-3.001l-0.022-0.007zM25.334 22.134c0.589 0 1.066 0.478 1.066 1.066v0h-2.134c0-0.589 0.478-1.066 1.066-1.066v0zM28.534 27.466c0 0.589-0.478 1.066-1.066 1.066v0h-4.266c-0.589 0-1.066-0.478-1.066-1.066v0-1.066c0-0.589 0.478-1.066 1.066-1.066v0h4.266c0.589 0 1.066 0.478 1.066 1.066v0z"></path>
</svg>
