<!-- Generated by IcoMoon.io -->
<svg version="1.1" xmlns="http://www.w3.org/2000/svg" width="40" height="40" viewBox="0 0 40 40">
<title>ul-forward</title>
<path d="M29.248 17.536l-7.114-4.106c-0.407-0.238-0.897-0.378-1.418-0.378-1.571 0-2.845 1.272-2.848 2.842v0l-4.266-2.464c-0.407-0.238-0.897-0.378-1.418-0.378-1.571 0-2.845 1.272-2.848 2.842v8.214c0 0.004 0 0.010 0 0.014 0 1.039 0.566 1.946 1.405 2.431l0.014 0.007c0.408 0.248 0.902 0.394 1.429 0.394 0 0 0 0 0.001 0v0c0.522-0.003 1.012-0.145 1.432-0.391l-0.014 0.007 4.266-2.464c0 0.004 0 0.009 0 0.013 0 1.043 0.565 1.954 1.406 2.444l0.014 0.007c0.408 0.241 0.899 0.383 1.424 0.383s1.016-0.142 1.438-0.39l-0.014 0.007 7.114-4.106c0.855-0.502 1.42-1.417 1.42-2.464s-0.565-1.962-1.406-2.457l-0.014-0.007zM17.866 21.642l-5.334 3.072c-0.102 0.058-0.222 0.093-0.352 0.093-0.39 0-0.706-0.312-0.714-0.7v-8.214c0.008-0.389 0.325-0.701 0.714-0.701 0.13 0 0.251 0.034 0.355 0.094l-0.003-0.002 5.334 3.072zM28.182 20.576l-7.114 4.15c-0.103 0.058-0.226 0.093-0.358 0.093s-0.254-0.034-0.361-0.094l0.004 0.002c-0.212-0.124-0.352-0.35-0.352-0.61 0-0.003 0-0.006 0-0.010v0.001-8.214c0-0.002 0-0.006 0-0.009 0-0.259 0.14-0.486 0.349-0.608l0.003-0.002c0.105-0.057 0.23-0.092 0.362-0.096h0.002c0.002 0 0.004 0 0.006 0 0.128 0 0.247 0.036 0.349 0.098l-0.003-0.002 7.114 4.106c0.215 0.126 0.357 0.356 0.357 0.618s-0.142 0.493-0.354 0.617l-0.003 0.002z"></path>
</svg>
