<!-- Generated by IcoMoon.io -->
<svg version="1.1" xmlns="http://www.w3.org/2000/svg" width="40" height="40" viewBox="0 0 40 40">
<title>ul-folder-slash</title>
<path d="M30.358 28.842l-19.2-19.2c-0.194-0.194-0.462-0.314-0.758-0.314-0.591 0-1.071 0.479-1.071 1.071 0 0.296 0.12 0.563 0.314 0.758v0l1.494 1.482c-0.455 0.546-0.732 1.254-0.736 2.026v11.734c0 1.767 1.433 3.2 3.2 3.2v0h12.8c0.501-0.003 0.974-0.121 1.394-0.328l-0.018 0.008 1.066 1.066c0.194 0.195 0.462 0.315 0.758 0.315s0.564-0.121 0.758-0.315v0c0.192-0.193 0.31-0.458 0.31-0.752s-0.118-0.559-0.31-0.752v0zM13.6 27.466c-0.589 0-1.066-0.478-1.066-1.066v0-11.734c0.003-0.18 0.050-0.349 0.13-0.496l-0.002 0.006 13.302 13.29zM18.528 13.6c0.44 0.025 0.806 0.312 0.947 0.707l0.002 0.007 0.576 1.75c0.143 0.43 0.542 0.736 1.014 0.736h5.334c0.589 0 1.066 0.478 1.066 1.066v0 4.63c0 0.589 0.478 1.066 1.066 1.066s1.066-0.478 1.066-1.066v0-4.63c0-1.767-1.433-3.2-3.2-3.2v0h-4.566l-0.342-1.066c-0.434-1.206-1.538-2.066-2.851-2.133h-0.008c-0.016-0.001-0.034-0.002-0.054-0.002-0.59 0-1.068 0.478-1.068 1.068 0 0.571 0.448 1.038 1.012 1.066h0.002z"></path>
</svg>
