<!-- Generated by IcoMoon.io -->
<svg version="1.1" xmlns="http://www.w3.org/2000/svg" width="40" height="40" viewBox="0 0 40 40">
<title>ul-file-contract-dollar</title>
<path d="M30.358 28.842l-1.824-1.846c0-0.118 0-0.224 0-0.33 0-1.62-1.314-2.934-2.934-2.934v0h-0.362l-1.536-1.536c0.087-0.041 0.189-0.064 0.296-0.064 0.001 0 0.002 0 0.003 0h3.466c0.589 0 1.066-0.478 1.066-1.066s-0.478-1.066-1.066-1.066v0h-1.6v-1.066c0-0.589-0.478-1.066-1.066-1.066s-1.066 0.478-1.066 1.066v0 1.066c-0.6 0.054-1.138 0.283-1.574 0.634l0.006-0.004-1.408-1.418c-0.194-0.194-0.462-0.314-0.758-0.314-0.591 0-1.071 0.479-1.071 1.071 0 0.296 0.12 0.563 0.314 0.758v0l1.824 1.878c0 0.118 0 0.224 0 0.33 0 1.62 1.314 2.934 2.934 2.934v0h0.362l1.536 1.536c-0.087 0.041-0.189 0.064-0.296 0.064-0.001 0-0.002 0-0.003 0h-3.466c-0.589 0-1.066 0.478-1.066 1.066s0.478 1.066 1.066 1.066v0h1.6v1.066c0 0.589 0.478 1.066 1.066 1.066s1.066-0.478 1.066-1.066v0-1.066c0.614-0.058 1.165-0.298 1.605-0.665l-0.005 0.004 1.408 1.418c0.194 0.195 0.462 0.315 0.758 0.315s0.564-0.121 0.758-0.315v0c0.186-0.192 0.3-0.454 0.3-0.742 0-0.304-0.127-0.578-0.331-0.773l-0.001-0.001zM17.866 27.466h-5.334c-0.589 0-1.066-0.478-1.066-1.066v0-14.934c0-0.589 0.478-1.066 1.066-1.066v0h6.4v4.266c0 0.589 0.478 1.066 1.066 1.066v0h5.334c0.441-0.002 0.818-0.271 0.978-0.654l0.002-0.007c0.053-0.122 0.083-0.264 0.083-0.414 0-0.292-0.118-0.557-0.307-0.75v0l-5.334-5.334c-0.086-0.081-0.184-0.148-0.292-0.2l-0.007-0.003h-0.096c-0.086-0.043-0.185-0.080-0.289-0.105l-0.010-0.002h-7.53c-1.767 0-3.2 1.433-3.2 3.2v0 14.934c0 1.767 1.433 3.2 3.2 3.2v0h5.334c0.589 0 1.066-0.478 1.066-1.066s-0.478-1.066-1.066-1.066v0zM21.066 11.904l1.696 1.696h-1.696z"></path>
</svg>
