<!-- Generated by IcoMoon.io -->
<svg version="1.1" xmlns="http://www.w3.org/2000/svg" width="40" height="40" viewBox="0 0 40 40">
<title>ul-flip-v-alt</title>
<path d="M12.47 20.256c-0.074-0.018-0.16-0.030-0.248-0.030-0.509 0-0.934 0.356-1.041 0.833l-0.002 0.007-0.522 2.070c-0.014 0.066-0.022 0.141-0.022 0.218 0 0.506 0.353 0.93 0.826 1.039l0.007 0.002c0.077 0.020 0.165 0.031 0.255 0.031 0.498 0 0.916-0.341 1.034-0.802l0.002-0.007 0.522-2.070c0.018-0.074 0.030-0.16 0.030-0.248 0-0.509-0.356-0.934-0.833-1.041l-0.007-0.002zM30.602 28.278l-4.266-17.066c-0.116-0.458-0.518-0.795-1.001-0.81h-3.202c-0.589 0-1.066 0.478-1.066 1.066v0 17.066c0 0.589 0.478 1.066 1.066 1.066v0h7.466c0.002 0 0.004 0 0.006 0 0.338 0 0.64-0.158 0.835-0.403l0.002-0.002c0.155-0.184 0.25-0.424 0.25-0.686 0-0.082-0.010-0.162-0.027-0.239l0.002 0.007zM23.2 27.466v-14.934h1.302l3.734 14.934zM14.026 14.048c-0.080-0.022-0.171-0.034-0.266-0.034-0.498 0-0.918 0.342-1.034 0.805l-0.002 0.007-0.512 2.070c-0.020 0.077-0.031 0.165-0.031 0.255 0 0.498 0.341 0.916 0.802 1.034l0.007 0.002h0.256c0.010 0 0.020 0.001 0.031 0.001 0.498 0 0.917-0.342 1.034-0.804l0.002-0.007 0.512-2.070c0.014-0.066 0.023-0.142 0.023-0.22 0-0.502-0.348-0.924-0.816-1.037l-0.007-0.002zM15.21 12.534h2.134c0.589 0 1.066-0.478 1.066-1.066s-0.478-1.066-1.066-1.066v0h-2.134c-0.589 0-1.066 0.478-1.066 1.066s0.478 1.066 1.066 1.066v0zM11.722 27.466c0.005-0.038 0.008-0.083 0.008-0.128 0-0.594-0.481-1.074-1.074-1.074-0.548 0-1.001 0.41-1.066 0.941l-0.001 0.006-0.256 1.066c-0.021 0.078-0.033 0.169-0.033 0.262 0 0.248 0.085 0.476 0.226 0.658l-0.002-0.002c0.197 0.248 0.499 0.406 0.838 0.406 0.013 0 0.026 0 0.039-0.001h1.065c0.038 0.005 0.083 0.008 0.128 0.008 0.594 0 1.074-0.481 1.074-1.074 0-0.548-0.41-1.001-0.941-1.066l-0.006-0.001zM17.866 14.144c-0.589 0-1.066 0.478-1.066 1.066v0 2.134c0 0.589 0.478 1.066 1.066 1.066s1.066-0.478 1.066-1.066v0-2.134c0-0.589-0.478-1.066-1.066-1.066v0zM17.866 20.544c-0.589 0-1.066 0.478-1.066 1.066v0 2.134c0 0.589 0.478 1.066 1.066 1.066s1.066-0.478 1.066-1.066v0-2.134c0-0.589-0.478-1.066-1.066-1.066v0zM17.866 26.944c-0.388 0-0.728 0.208-0.914 0.518l-0.002 0.005h-1.216c-0.589 0-1.066 0.478-1.066 1.066s0.478 1.066 1.066 1.066v0h2.134c0.589 0 1.066-0.478 1.066-1.066v0-0.522c0-0.589-0.478-1.066-1.066-1.066v0z"></path>
</svg>
