<!-- Generated by IcoMoon.io -->
<svg version="1.1" xmlns="http://www.w3.org/2000/svg" width="40" height="40" viewBox="0 0 40 40">
<title>ul-football-ball</title>
<path d="M30.496 13.13c-0.151-0.945-0.587-1.769-1.216-2.4v0c-0.631-0.629-1.455-1.065-2.375-1.213l-0.025-0.003c-0.632-0.092-1.362-0.144-2.105-0.144-8.513 0-15.414 6.901-15.414 15.414 0 0.735 0.051 1.459 0.151 2.167l-0.010-0.082c0.151 0.945 0.587 1.769 1.216 2.4v0c0.631 0.629 1.455 1.065 2.375 1.213l0.025 0.003c0.666 0.114 1.434 0.18 2.217 0.182h0.002c4.22-0.031 8.030-1.762 10.782-4.542l0.002-0.002c2.797-2.755 4.53-6.583 4.53-10.817 0-0.767-0.057-1.522-0.167-2.258l0.010 0.083zM11.69 26.794c-0.027-0.070-0.054-0.156-0.073-0.244l-0.002-0.012c-0.086-0.56-0.134-1.206-0.134-1.864 0-3.638 1.492-6.929 3.898-9.291l0.002-0.002c2.371-2.393 5.648-3.884 9.274-3.914h0.006c0.018 0 0.038 0 0.059 0 0.642 0 1.272 0.054 1.884 0.158l-0.066-0.010c0.1 0.022 0.186 0.047 0.268 0.079l-0.012-0.004-5.258 5.27-0.778-0.778c-0.194-0.195-0.462-0.315-0.758-0.315s-0.564 0.121-0.758 0.315v0c-0.192 0.193-0.31 0.458-0.31 0.752s0.118 0.559 0.31 0.752l0.778 0.778-1.558 1.536-0.778-0.778c-0.193-0.192-0.458-0.31-0.752-0.31s-0.559 0.118-0.752 0.31v0c-0.195 0.194-0.315 0.462-0.315 0.758s0.121 0.564 0.315 0.758l0.778 0.778zM24.618 24.662c-2.366 2.384-5.645 3.86-9.268 3.86-0.666 0-1.322-0.050-1.962-0.146l0.072 0.009c-0.1-0.022-0.186-0.047-0.268-0.079l0.012 0.004 5.258-5.27 0.778 0.778c0.194 0.194 0.462 0.315 0.758 0.315 0.59 0 1.067-0.478 1.067-1.067 0-0.294-0.118-0.559-0.31-0.752v0l-0.758-0.778 1.536-1.536 0.778 0.778c0.193 0.191 0.458 0.31 0.751 0.31 0.002 0 0.004 0 0.006 0v0c0.587-0.002 1.062-0.479 1.062-1.066 0-0.296-0.121-0.564-0.315-0.758l-0.778-0.778 5.27-5.258c0.027 0.070 0.054 0.156 0.073 0.244l0.002 0.012c0.084 0.554 0.131 1.194 0.131 1.846 0 3.637-1.491 6.926-3.895 9.289l-0.002 0.002z"></path>
</svg>
