<!-- Generated by IcoMoon.io -->
<svg version="1.1" xmlns="http://www.w3.org/2000/svg" width="40" height="40" viewBox="0 0 40 40">
<title>ul-focus-add</title>
<path d="M15.734 28.534h-3.2c-0.589 0-1.066-0.478-1.066-1.066v0-3.2c0-0.589-0.478-1.066-1.066-1.066s-1.066 0.478-1.066 1.066v0 3.2c0 1.767 1.433 3.2 3.2 3.2v0h3.2c0.589 0 1.066-0.478 1.066-1.066s-0.478-1.066-1.066-1.066v0zM10.4 16.8c0.589 0 1.066-0.478 1.066-1.066v0-3.2c0-0.589 0.478-1.066 1.066-1.066v0h3.2c0.589 0 1.066-0.478 1.066-1.066s-0.478-1.066-1.066-1.066v0h-3.2c-1.767 0-3.2 1.433-3.2 3.2v0 3.2c0 0.589 0.478 1.066 1.066 1.066v0zM27.466 9.334h-3.2c-0.589 0-1.066 0.478-1.066 1.066s0.478 1.066 1.066 1.066v0h3.2c0.589 0 1.066 0.478 1.066 1.066v0 3.2c0 0.589 0.478 1.066 1.066 1.066s1.066-0.478 1.066-1.066v0-3.2c0-1.767-1.433-3.2-3.2-3.2v0zM24.266 20c0-0.589-0.478-1.066-1.066-1.066v0h-2.134v-2.134c0-0.589-0.478-1.066-1.066-1.066s-1.066 0.478-1.066 1.066v0 2.134h-2.134c-0.589 0-1.066 0.478-1.066 1.066s0.478 1.066 1.066 1.066v0h2.134v2.134c0 0.589 0.478 1.066 1.066 1.066s1.066-0.478 1.066-1.066v0-2.134h2.134c0.589 0 1.066-0.478 1.066-1.066v0zM29.6 23.2c-0.589 0-1.066 0.478-1.066 1.066v0 3.2c0 0.589-0.478 1.066-1.066 1.066v0h-3.2c-0.589 0-1.066 0.478-1.066 1.066s0.478 1.066 1.066 1.066v0h3.2c1.767 0 3.2-1.433 3.2-3.2v0-3.2c0-0.589-0.478-1.066-1.066-1.066v0z"></path>
</svg>
