<!-- Generated by IcoMoon.io -->
<svg version="1.1" xmlns="http://www.w3.org/2000/svg" width="40" height="40" viewBox="0 0 40 40">
<title>ul-github-alt</title>
<path d="M17.942 29.070c0-0.589-0.478-1.066-1.066-1.066-0.068 0-0.135 0.006-0.2 0.018l0.006-0.001c-1.396 0.256-3.159 0.295-3.628-1.022-0.426-1.044-1.097-1.914-1.945-2.566l-0.014-0.010c-0.068-0.037-0.126-0.076-0.18-0.118l0.002 0.002c-0.157-0.405-0.542-0.686-0.993-0.689h-0.006c0 0 0 0 0 0-0.587 0-1.063 0.474-1.066 1.061v0c-0.004 0.87 0.865 1.427 1.218 1.616 0.405 0.407 0.737 0.887 0.974 1.42l0.012 0.030c0.389 1.092 1.518 2.748 4.763 2.534 0.001 0.038 0.002 0.073 0.002 0.105l0.005 0.286c0 0.589 0.478 1.066 1.066 1.066s1.066-0.478 1.066-1.066v0l-0.005-0.339c-0.005-0.202-0.013-0.495-0.013-1.261zM29.32 12.935c0.034-0.134 0.067-0.282 0.096-0.448 0.044-0.289 0.070-0.622 0.070-0.962 0-0.92-0.186-1.797-0.522-2.595l0.017 0.044c-0.119-0.293-0.355-0.517-0.65-0.617l-0.007-0.002c-0.38-0.128-1.782-0.38-4.463 1.334-1.018-0.25-2.186-0.394-3.389-0.394s-2.371 0.143-3.49 0.414l0.101-0.021c-2.67-1.689-4.065-1.459-4.441-1.338-0.31 0.098-0.553 0.325-0.671 0.616l-0.002 0.007c-0.321 0.758-0.508 1.638-0.508 2.562 0 0.359 0.028 0.712 0.082 1.056l-0.005-0.038c0.026 0.137 0.054 0.262 0.083 0.378-0.836 1.104-1.339 2.501-1.339 4.015 0 0.025 0 0.049 0.001 0.073v-0.004c0 0.023 0 0.051 0 0.078 0 0.318 0.017 0.634 0.049 0.943l-0.003-0.038c0.356 4.91 3.556 6.383 5.786 6.89-0.046 0.134-0.089 0.276-0.126 0.427-0.019 0.076-0.030 0.163-0.030 0.253 0 0.59 0.478 1.067 1.067 1.067 0.498 0 0.916-0.341 1.034-0.802l0.002-0.007c0.072-0.37 0.25-0.69 0.499-0.936v0c0.223-0.197 0.364-0.483 0.364-0.802 0-0.546-0.411-0.997-0.941-1.059l-0.005-0.001c-3.684-0.421-5.284-1.922-5.525-5.225-0.023-0.214-0.036-0.463-0.036-0.714 0-0.026 0-0.051 0.001-0.077v0.004c0-0.022-0.001-0.048-0.001-0.074 0-1.070 0.37-2.053 0.989-2.829l-0.007 0.009c0.070-0.091 0.138-0.172 0.21-0.249l-0.002 0.002c0.168-0.188 0.271-0.437 0.271-0.71 0-0.138-0.026-0.269-0.074-0.39l0.002 0.007c-0.065-0.166-0.122-0.365-0.162-0.57l-0.004-0.023c-0.031-0.196-0.049-0.423-0.049-0.654 0-0.38 0.049-0.749 0.14-1.1l-0.006 0.030c0.984 0.282 1.842 0.714 2.598 1.274l-0.022-0.015c0.168 0.113 0.374 0.181 0.597 0.181 0.102 0 0.201-0.014 0.294-0.041l-0.007 0.002c0.986-0.278 2.12-0.438 3.29-0.438 1.172 0 2.306 0.161 3.382 0.461l-0.088-0.021c0.085 0.024 0.182 0.038 0.284 0.038 0.225 0 0.434-0.069 0.606-0.187l-0.004 0.002c0.731-0.547 1.586-0.982 2.509-1.255l0.057-0.014c0.086 0.322 0.136 0.694 0.136 1.075 0 0.214-0.016 0.426-0.046 0.631l0.003-0.023c-0.043 0.246-0.106 0.463-0.188 0.671l0.008-0.023c-0.045 0.114-0.070 0.245-0.070 0.382 0 0.274 0.103 0.523 0.272 0.712l-0.001-0.001c0.082 0.093 0.165 0.193 0.238 0.286 0.6 0.746 0.963 1.703 0.963 2.746 0 0.038-0.001 0.076-0.002 0.114v-0.006c0 0.015 0 0.034 0 0.053 0 0.274-0.014 0.544-0.043 0.81l0.003-0.033c-0.235 3.259-1.841 4.762-5.542 5.183-0.535 0.062-0.946 0.514-0.946 1.060 0 0.319 0.141 0.606 0.363 0.802l0.001 0.001c0.257 0.254 0.436 0.586 0.496 0.958l0.002 0.010c0.063 0.24 0.099 0.515 0.099 0.799 0 0.026 0 0.053-0.001 0.078v-0.004 2.49c-0.010 0.69-0.010 1.208-0.010 1.446 0 0.589 0.478 1.066 1.066 1.066s1.066-0.478 1.066-1.066v0c0-0.231 0-0.738 0.010-1.429v-2.506c0.001-0.028 0.001-0.062 0.001-0.095 0-0.463-0.061-0.913-0.174-1.341l0.008 0.036c-0.041-0.182-0.084-0.33-0.134-0.476l0.010 0.032c3.316-0.566 5.808-3.418 5.808-6.852v0c0.031-0.286 0.050-0.618 0.050-0.954 0-0.024 0-0.048 0-0.072v0.004c0.001-0.031 0.001-0.068 0.001-0.105 0-1.502-0.507-2.887-1.359-3.991l0.011 0.015z"></path>
</svg>
