<!-- Generated by IcoMoon.io -->
<svg version="1.1" xmlns="http://www.w3.org/2000/svg" width="40" height="40" viewBox="0 0 40 40">
<title>ul-glass</title>
<path d="M28.266 9.686c-0.196-0.217-0.478-0.352-0.792-0.352-0.003 0-0.006 0-0.009 0h-14.933c-0.002 0-0.006 0-0.008 0-0.314 0-0.596 0.135-0.791 0.351l-0.001 0.001c-0.17 0.188-0.274 0.438-0.274 0.713 0 0.042 0.002 0.083 0.007 0.124l-0.001-0.005 1.92 17.302c0.183 1.61 1.538 2.848 3.181 2.848 0.007 0 0.014 0 0.021 0h6.847c0.006 0 0.013 0 0.019 0 1.643 0 2.998-1.238 3.179-2.834l0.002-0.014 1.898-17.302c0.004-0.036 0.006-0.077 0.006-0.119 0-0.274-0.104-0.525-0.274-0.714l0.001 0.001zM24.48 27.584c-0.061 0.537-0.513 0.95-1.060 0.95-0.002 0-0.005 0-0.007 0h-6.837c-0.002 0-0.004 0-0.006 0-0.548 0-0.999-0.413-1.060-0.945l-0.001-0.005-1.078-9.718h11.136zM25.802 15.734h-11.606l-0.47-4.266h12.544z"></path>
</svg>
