<!-- Generated by IcoMoon.io -->
<svg version="1.1" xmlns="http://www.w3.org/2000/svg" width="40" height="40" viewBox="0 0 40 40">
<title>ul-game-structure</title>
<path d="M29.6 26.4h-2.134v-3.2c0-0.589-0.478-1.066-1.066-1.066v0h-5.334v-2.89l1.206 0.63c0.143 0.077 0.314 0.122 0.494 0.122 0.589 0 1.066-0.478 1.066-1.066 0-0.062-0.006-0.122-0.015-0.181l0.001 0.006-0.426-2.528 1.834-1.802c0.198-0.194 0.322-0.464 0.322-0.763 0-0.108-0.016-0.213-0.046-0.311l0.002 0.007c-0.128-0.383-0.457-0.666-0.858-0.725l-0.006-0.001-2.506-0.394-1.174-2.304c-0.177-0.359-0.54-0.602-0.96-0.602s-0.783 0.242-0.958 0.595l-0.002 0.006-1.174 2.304-2.55 0.374c-0.407 0.059-0.736 0.342-0.862 0.718l-0.002 0.007c-0.028 0.091-0.044 0.195-0.044 0.303 0 0.299 0.123 0.57 0.322 0.763v0l1.878 1.824-0.426 2.528c-0.009 0.053-0.014 0.113-0.014 0.175 0 0.589 0.478 1.066 1.066 1.066 0.181 0 0.351-0.045 0.5-0.124l-0.006 0.003 1.206-0.63v2.89h-5.334c-0.589 0-1.066 0.478-1.066 1.066v0 3.2h-2.134c-0.589 0-1.066 0.478-1.066 1.066v0 2.134c0 0.589 0.478 1.066 1.066 1.066s1.066-0.478 1.066-1.066v0-1.066h4.266v1.066c0 0.589 0.478 1.066 1.066 1.066s1.066-0.478 1.066-1.066v0-2.134c0-0.589-0.478-1.066-1.066-1.066v0h-2.134v-2.134h10.666v2.134h-2.134c-0.589 0-1.066 0.478-1.066 1.066v0 2.134c0 0.589 0.478 1.066 1.066 1.066s1.066-0.478 1.066-1.066v0-1.066h4.266v1.066c0 0.589 0.478 1.066 1.066 1.066s1.066-0.478 1.066-1.066v0-2.134c0-0.589-0.478-1.066-1.066-1.066v0zM20 16.406c-0.184 0.001-0.356 0.048-0.507 0.13l0.006-0.002-0.854 0.448 0.16-0.96c0.009-0.052 0.014-0.112 0.014-0.174 0-0.3-0.124-0.571-0.323-0.765v0l-0.694-0.682 0.96-0.138c0.356-0.049 0.652-0.267 0.808-0.57l0.003-0.006 0.426-0.874 0.426 0.874c0.158 0.309 0.454 0.527 0.805 0.575l0.006 0.001 0.96 0.138-0.694 0.682c-0.2 0.194-0.323 0.465-0.323 0.765 0 0.062 0.005 0.122 0.015 0.18l-0.001-0.006 0.16 0.96-0.854-0.448c-0.145-0.080-0.318-0.127-0.501-0.128v0z"></path>
</svg>
