<!-- Generated by IcoMoon.io -->
<svg version="1.1" xmlns="http://www.w3.org/2000/svg" width="40" height="40" viewBox="0 0 40 40">
<title>ul-heart-medical</title>
<path d="M22.134 18.934h-1.066v-1.066c0-0.589-0.478-1.066-1.066-1.066s-1.066 0.478-1.066 1.066v0 1.066h-1.066c-0.589 0-1.066 0.478-1.066 1.066s0.478 1.066 1.066 1.066v0h1.066v1.066c0 0.589 0.478 1.066 1.066 1.066s1.066-0.478 1.066-1.066v0-1.066h1.066c0.589 0 1.066-0.478 1.066-1.066s-0.478-1.066-1.066-1.066v0zM28.704 12.534c-1.212-1.199-2.879-1.941-4.719-1.941-1.5 0-2.885 0.492-4.002 1.324l0.018-0.013c-1.1-0.826-2.488-1.322-3.991-1.322-3.694 0-6.688 2.994-6.688 6.688 0 1.855 0.755 3.534 1.975 4.746v0l6.4 6.454c0.579 0.578 1.378 0.936 2.262 0.936s1.682-0.358 2.262-0.936v0l6.4-6.454c1.243-1.215 2.014-2.91 2.014-4.784 0-1.832-0.737-3.492-1.93-4.699l0.001 0.001zM27.2 20.49l-6.4 6.4c-0.194 0.195-0.462 0.315-0.758 0.315s-0.564-0.121-0.758-0.315l-6.4-6.4c-0.807-0.824-1.305-1.954-1.305-3.2s0.498-2.376 1.306-3.201l-0.001 0.001c0.822-0.812 1.953-1.314 3.2-1.314s2.378 0.502 3.201 1.314l-0.001-0.001c0.194 0.195 0.462 0.315 0.758 0.315s0.564-0.121 0.758-0.315v0c0.822-0.812 1.953-1.314 3.2-1.314s2.378 0.502 3.201 1.314l-0.001-0.001c0.814 0.826 1.315 1.959 1.315 3.21s-0.502 2.385-1.316 3.211l0.001-0.001z"></path>
</svg>
