<!-- Generated by IcoMoon.io -->
<svg version="1.1" xmlns="http://www.w3.org/2000/svg" width="40" height="40" viewBox="0 0 40 40">
<title>ul-hospital-square-sign</title>
<path d="M23.2 13.6c0 0 0 0 0 0-0.589 0-1.066 0.478-1.066 1.066 0 0 0 0 0 0v0 4.266h-4.266v-4.266c0-0.589-0.478-1.066-1.066-1.066s-1.066 0.478-1.066 1.066v0 10.666c0 0.589 0.478 1.066 1.066 1.066s1.066-0.478 1.066-1.066v0-4.266h4.266v4.266c0 0.589 0.478 1.066 1.066 1.066s1.066-0.478 1.066-1.066v0-10.666c0 0 0 0 0 0 0-0.589-0.478-1.066-1.066-1.066 0 0 0 0 0 0v0zM27.466 9.334h-14.934c-1.766 0.002-3.198 1.434-3.2 3.2v14.934c0.002 1.766 1.434 3.198 3.2 3.2h14.934c1.766-0.002 3.198-1.434 3.2-3.2v-14.934c-0.002-1.766-1.434-3.198-3.2-3.2v0zM28.534 27.466c-0.001 0.589-0.478 1.066-1.066 1.066h-14.934c-0.589-0.001-1.066-0.478-1.066-1.066v-14.934c0.001-0.589 0.478-1.066 1.066-1.066h14.934c0.589 0.001 1.066 0.478 1.066 1.066v0z"></path>
</svg>
