<!-- Generated by IcoMoon.io -->
<svg version="1.1" xmlns="http://www.w3.org/2000/svg" width="40" height="40" viewBox="0 0 40 40">
<title>ul-hospital</title>
<path d="M20.534 24.8h-1.066c-0.589 0-1.066 0.478-1.066 1.066s0.478 1.066 1.066 1.066v0h1.066c0.589 0 1.066-0.478 1.066-1.066s-0.478-1.066-1.066-1.066v0zM20.534 20.534h-1.066c-0.589 0-1.066 0.478-1.066 1.066s0.478 1.066 1.066 1.066v0h1.066c0.589 0 1.066-0.478 1.066-1.066s-0.478-1.066-1.066-1.066v0zM15.2 24.8h-1.066c-0.589 0-1.066 0.478-1.066 1.066s0.478 1.066 1.066 1.066v0h1.066c0.589 0 1.066-0.478 1.066-1.066s-0.478-1.066-1.066-1.066v0zM15.2 20.534h-1.066c-0.589 0-1.066 0.478-1.066 1.066s0.478 1.066 1.066 1.066v0h1.066c0.589 0 1.066-0.478 1.066-1.066s-0.478-1.066-1.066-1.066v0zM30.134 14.134h-3.2v-4.266c0 0 0 0 0 0 0-0.589-0.478-1.066-1.066-1.066 0 0 0 0 0 0h-11.734c0 0 0 0 0 0-0.589 0-1.066 0.478-1.066 1.066 0 0 0 0 0 0v0 4.266h-3.2c0 0 0 0 0 0-0.589 0-1.066 0.478-1.066 1.066 0 0 0 0 0 0v0 14.934c0 0 0 0 0 0 0 0.589 0.478 1.066 1.066 1.066 0 0 0 0 0 0h20.266c0 0 0 0 0 0 0.589 0 1.066-0.478 1.066-1.066 0 0 0 0 0 0v0-14.934c0 0 0 0 0 0 0-0.589-0.478-1.066-1.066-1.066 0 0 0 0 0 0v0zM29.066 29.066h-18.134v-12.8h3.2c0 0 0 0 0 0 0.589 0 1.066-0.478 1.066-1.066 0 0 0 0 0 0v0-4.266h9.6v4.266c0 0 0 0 0 0 0 0.589 0.478 1.066 1.066 1.066 0 0 0 0 0 0h3.2zM24.8 20.534c-0.589 0-1.066 0.478-1.066 1.066s0.478 1.066 1.066 1.066v0h1.066c0.589 0 1.066-0.478 1.066-1.066s-0.478-1.066-1.066-1.066v0zM21.6 14.666h-0.534v-0.534c0-0.589-0.478-1.066-1.066-1.066s-1.066 0.478-1.066 1.066v0 0.534h-0.534c-0.589 0-1.066 0.478-1.066 1.066s0.478 1.066 1.066 1.066v0h0.534v0.534c0 0.589 0.478 1.066 1.066 1.066s1.066-0.478 1.066-1.066v0-0.534h0.534c0.589 0 1.066-0.478 1.066-1.066s-0.478-1.066-1.066-1.066v0zM25.866 24.8h-1.066c-0.589 0-1.066 0.478-1.066 1.066s0.478 1.066 1.066 1.066v0h1.066c0.589 0 1.066-0.478 1.066-1.066s-0.478-1.066-1.066-1.066v0z"></path>
</svg>
