<!-- Generated by IcoMoon.io -->
<svg version="1.1" xmlns="http://www.w3.org/2000/svg" width="40" height="40" viewBox="0 0 40 40">
<title>ul-import</title>
<path d="M29.6 22.134c-0.589 0-1.066 0.478-1.066 1.066v0 4.266c0 0.589-0.478 1.066-1.066 1.066v0h-14.934c-0.589 0-1.066-0.478-1.066-1.066v0-4.266c0-0.589-0.478-1.066-1.066-1.066s-1.066 0.478-1.066 1.066v0 4.266c0 1.767 1.433 3.2 3.2 3.2v0h14.934c1.767 0 3.2-1.433 3.2-3.2v0-4.266c0-0.589-0.478-1.066-1.066-1.066v0zM19.242 23.958c0.098 0.094 0.215 0.17 0.345 0.222l0.007 0.002c0.119 0.054 0.258 0.086 0.406 0.086s0.286-0.031 0.412-0.088l-0.006 0.002c0.137-0.054 0.254-0.13 0.352-0.224v0l4.266-4.266c0.194-0.194 0.314-0.462 0.314-0.758 0-0.591-0.479-1.071-1.071-1.071-0.296 0-0.563 0.12-0.758 0.314v0l-2.442 2.454v-10.23c0-0.589-0.478-1.066-1.066-1.066s-1.066 0.478-1.066 1.066v0 10.23l-2.442-2.454c-0.194-0.194-0.462-0.314-0.758-0.314-0.591 0-1.071 0.479-1.071 1.071 0 0.296 0.12 0.563 0.314 0.758v0z"></path>
</svg>
