<!-- Generated by IcoMoon.io -->
<svg version="1.1" xmlns="http://www.w3.org/2000/svg" width="40" height="40" viewBox="0 0 40 40">
<title>ul-image-download</title>
<path d="M31.424 13.91c-0.194-0.195-0.462-0.315-0.758-0.315s-0.564 0.121-0.758 0.315v0l-1.376 1.386v-5.962c0-0.589-0.478-1.066-1.066-1.066s-1.066 0.478-1.066 1.066v0 5.962l-1.376-1.386c-0.194-0.194-0.462-0.314-0.758-0.314-0.591 0-1.071 0.479-1.071 1.071 0 0.296 0.12 0.563 0.314 0.758l3.2 3.2c0.098 0.094 0.215 0.17 0.345 0.222l0.007 0.002c0.119 0.054 0.258 0.086 0.406 0.086s0.286-0.031 0.412-0.088l-0.006 0.002c0.137-0.054 0.254-0.13 0.352-0.224v0l3.2-3.2c0.195-0.194 0.315-0.462 0.315-0.758s-0.121-0.564-0.315-0.758v0zM27.466 21.066c-0.589 0-1.066 0.478-1.066 1.066v0 0.406l-1.578-1.578c-0.538-0.534-1.278-0.863-2.096-0.863s-1.558 0.33-2.096 0.863l-0.746 0.746-2.646-2.646c-0.544-0.519-1.283-0.838-2.096-0.838s-1.552 0.319-2.098 0.839l0.002-0.001-1.578 1.578v-5.974c0-0.589 0.478-1.066 1.066-1.066v0h8.534c0.589 0 1.066-0.478 1.066-1.066s-0.478-1.066-1.066-1.066v0h-8.534c-1.767 0-3.2 1.433-3.2 3.2v0 12.8c0 1.767 1.433 3.2 3.2 3.2v0h12.8c1.767 0 3.2-1.433 3.2-3.2v0-5.334c0-0.589-0.478-1.066-1.066-1.066v0zM12.534 28.534c-0.589 0-1.066-0.478-1.066-1.066v0-3.808l3.094-3.094c0.151-0.144 0.356-0.233 0.582-0.233s0.43 0.089 0.582 0.233l7.968 7.968zM26.4 27.466c-0.002 0.214-0.074 0.41-0.194 0.568l0.002-0.002-4.81-4.832 0.746-0.746c0.149-0.152 0.357-0.246 0.586-0.246s0.438 0.094 0.586 0.246v0l3.082 3.104z"></path>
</svg>
