<!-- Generated by IcoMoon.io -->
<svg version="1.1" xmlns="http://www.w3.org/2000/svg" width="40" height="40" viewBox="0 0 40 40">
<title>ul-instagram</title>
<path d="M25.696 13.024v0c-0.707 0-1.28 0.573-1.28 1.28s0.573 1.28 1.28 1.28c0.707 0 1.28-0.573 1.28-1.28v0c0-0.707-0.573-1.28-1.28-1.28v0zM30.602 15.606c-0.022-0.936-0.201-1.824-0.509-2.648l0.018 0.056c-0.286-0.738-0.707-1.368-1.237-1.887l-0.001-0.001c-0.516-0.534-1.147-0.952-1.854-1.215l-0.034-0.011c-0.767-0.299-1.656-0.482-2.583-0.501h-0.009c-1.13-0.064-1.494-0.064-4.394-0.064s-3.264 0-4.394 0.064c-0.936 0.020-1.825 0.202-2.645 0.519l0.053-0.018c-0.74 0.278-1.37 0.696-1.887 1.226l-0.001 0.001c-0.534 0.516-0.952 1.147-1.215 1.854l-0.011 0.034c-0.299 0.767-0.482 1.656-0.501 2.583v0.009c-0.064 1.13-0.064 1.494-0.064 4.394s0 3.264 0.064 4.394c0.020 0.936 0.202 1.825 0.519 2.645l-0.018-0.053c0.275 0.741 0.694 1.372 1.226 1.886l0.002 0.002c0.518 0.531 1.148 0.949 1.853 1.215l0.035 0.012c0.767 0.299 1.656 0.482 2.583 0.501h0.009c1.13 0.064 1.494 0.064 4.394 0.064s3.264 0 4.394-0.064c0.936-0.020 1.825-0.202 2.645-0.519l-0.053 0.018c0.741-0.275 1.372-0.694 1.886-1.226l0.002-0.002c0.533-0.518 0.954-1.148 1.226-1.853l0.012-0.035c0.29-0.768 0.468-1.656 0.49-2.582v-0.010c0-1.13 0.064-1.494 0.064-4.394s0-3.264-0.064-4.394zM28.682 24.266c-0.009 0.714-0.141 1.395-0.376 2.026l0.014-0.042c-0.18 0.482-0.453 0.892-0.799 1.226l-0.001 0.001c-0.338 0.344-0.746 0.616-1.203 0.792l-0.023 0.008c-0.589 0.222-1.27 0.354-1.98 0.362h-0.004c-1.066 0.054-1.462 0.064-4.266 0.064s-3.2 0-4.266-0.064c-0.034 0.001-0.074 0.001-0.114 0.001-0.7 0-1.372-0.118-1.998-0.334l0.043 0.013c-0.458-0.193-0.849-0.464-1.172-0.799l-0.001-0.001c-0.346-0.334-0.615-0.745-0.782-1.205l-0.007-0.022c-0.248-0.598-0.403-1.291-0.426-2.018v-0.010c0-1.066-0.064-1.462-0.064-4.266s0-3.2 0.064-4.266c0.005-0.73 0.142-1.425 0.387-2.067l-0.014 0.041c0.197-0.464 0.482-0.856 0.839-1.17l0.003-0.003c0.319-0.36 0.71-0.649 1.152-0.845l0.022-0.009c0.602-0.224 1.298-0.357 2.024-0.362h0.002c1.066 0 1.462-0.064 4.266-0.064s3.2 0 4.266 0.064c0.714 0.009 1.395 0.141 2.026 0.376l-0.042-0.014c0.502 0.19 0.926 0.481 1.267 0.851l0.002 0.002c0.342 0.321 0.614 0.713 0.792 1.151l0.008 0.022c0.227 0.602 0.359 1.298 0.362 2.026v0.002c0.054 1.066 0.064 1.462 0.064 4.266s-0.010 3.2-0.064 4.266zM20 14.528c-3.018 0.006-5.462 2.454-5.462 5.472 0 3.022 2.45 5.472 5.472 5.472s5.472-2.45 5.472-5.472v0c0-0.003 0-0.007 0-0.010 0-3.016-2.445-5.462-5.462-5.462-0.007 0-0.015 0-0.022 0h0.001zM20 23.552c-1.962 0-3.552-1.59-3.552-3.552s1.59-3.552 3.552-3.552c1.962 0 3.552 1.59 3.552 3.552v0c0 1.962-1.59 3.552-3.552 3.552v0z"></path>
</svg>
