<!-- Generated by IcoMoon.io -->
<svg version="1.1" xmlns="http://www.w3.org/2000/svg" width="40" height="40" viewBox="0 0 40 40">
<title>ul-image-share</title>
<path d="M28.534 14.666c-0.474 0.002-0.911 0.158-1.264 0.42l0.006-0.004-1.866-0.854 2.058-0.938c0.304 0.187 0.671 0.302 1.065 0.31h0.002c1.178 0 2.134-0.955 2.134-2.134s-0.955-2.134-2.134-2.134c-1.178 0-2.134 0.955-2.134 2.134v0l-2.016 0.928c-0.343-0.246-0.772-0.394-1.235-0.394-1.178 0-2.134 0.955-2.134 2.134s0.955 2.134 2.134 2.134c0.018 0 0.036 0 0.054-0.001h-0.002c0 0 0.001 0 0.001 0 0.36 0 0.698-0.095 0.99-0.261l-0.010 0.005 2.24 1.066c0.142 1.053 1.035 1.856 2.115 1.856 1.178 0 2.134-0.955 2.134-2.134s-0.955-2.134-2.134-2.134c-0.001 0-0.002 0-0.003 0v0zM27.466 21.066c-0.589 0-1.066 0.478-1.066 1.066v0 0.416l-1.578-1.578c-0.535-0.538-1.277-0.872-2.096-0.872s-1.561 0.334-2.096 0.872l-0.747 0.747-2.646-2.656c-0.538-0.534-1.278-0.863-2.096-0.863s-1.558 0.33-2.096 0.863l-1.578 1.578v-5.974c0-0.589 0.478-1.066 1.066-1.066v0h5.334c0.589 0 1.066-0.478 1.066-1.066s-0.478-1.066-1.066-1.066v0h-5.334c-1.767 0-3.2 1.433-3.2 3.2v0 12.8c0 1.767 1.433 3.2 3.2 3.2v0h12.8c1.767 0 3.2-1.433 3.2-3.2v0-5.334c0-0.589-0.478-1.066-1.066-1.066v0zM12.534 28.534c-0.589 0-1.066-0.478-1.066-1.066v0-3.808l3.094-3.094c0.151-0.144 0.356-0.233 0.582-0.233s0.43 0.089 0.582 0.233l3.381 3.381 4.576 4.586zM26.4 27.466c-0.002 0.214-0.074 0.41-0.194 0.568l0.002-0.002-4.81-4.832 0.746-0.746c0.15-0.15 0.358-0.242 0.586-0.242s0.436 0.093 0.586 0.242v0l3.082 3.114z"></path>
</svg>
