<!-- Generated by IcoMoon.io -->
<svg version="1.1" xmlns="http://www.w3.org/2000/svg" width="40" height="40" viewBox="0 0 40 40">
<title>ul-kid</title>
<path d="M17.866 17.866c0-0.589-0.478-1.066-1.066-1.066s-1.066 0.478-1.066 1.066c0 0.589 0.478 1.066 1.066 1.066v0c0.589 0 1.066-0.478 1.066-1.066v0zM22.666 22.198c-0.154-0.092-0.341-0.146-0.539-0.146-0.391 0-0.734 0.211-0.919 0.526l-0.002 0.005c-0.243 0.422-0.692 0.701-1.206 0.701s-0.962-0.279-1.202-0.694l-0.003-0.006c-0.188-0.319-0.53-0.53-0.922-0.53-0.199 0-0.385 0.054-0.544 0.149l0.005-0.002c-0.322 0.188-0.534 0.531-0.534 0.924 0 0.194 0.051 0.375 0.142 0.532l-0.002-0.005c0.621 1.066 1.758 1.772 3.062 1.772s2.44-0.706 3.052-1.755l0.009-0.017c0.087-0.151 0.139-0.333 0.139-0.526 0-0.393-0.213-0.736-0.529-0.922l-0.005-0.002zM23.2 16.8c-0.589 0-1.066 0.478-1.066 1.066s0.478 1.066 1.066 1.066c0.589 0 1.066-0.478 1.066-1.066v0c0-0.589-0.478-1.066-1.066-1.066v0zM20 9.334c-5.891 0-10.666 4.776-10.666 10.666s4.776 10.666 10.666 10.666c5.891 0 10.666-4.776 10.666-10.666v0c0-5.891-4.776-10.666-10.666-10.666v0zM20 28.534c-0.011 0-0.024 0-0.037 0-4.713 0-8.534-3.821-8.534-8.534 0-3.574 2.197-6.634 5.313-7.905l0.057-0.021c-0.006 0.069-0.008 0.149-0.008 0.23s0.003 0.161 0.009 0.24l-0.001-0.010c0 1.767 1.433 3.2 3.2 3.2v0c0.589 0 1.066-0.478 1.066-1.066s-0.478-1.066-1.066-1.066v0c-0.589 0-1.066-0.478-1.066-1.066s0.478-1.066 1.066-1.066v0c4.713 0 8.534 3.821 8.534 8.534s-3.821 8.534-8.534 8.534v0z"></path>
</svg>
