<!-- Generated by IcoMoon.io -->
<svg version="1.1" xmlns="http://www.w3.org/2000/svg" width="40" height="40" viewBox="0 0 40 40">
<title>ul-keyboard</title>
<path d="M13.824 21.376c-0.098-0.096-0.214-0.172-0.345-0.222l-0.007-0.002c-0.12-0.050-0.259-0.080-0.406-0.080s-0.286 0.030-0.412 0.082l0.007-0.002c-0.269 0.099-0.477 0.307-0.574 0.57l-0.002 0.006c-0.054 0.123-0.086 0.267-0.086 0.418 0 0.589 0.478 1.066 1.066 1.066s1.066-0.478 1.066-1.066c0-0.151-0.031-0.294-0.088-0.425l0.002 0.007c-0.054-0.137-0.13-0.254-0.224-0.352v0zM21.6 18.934h1.066c0.589 0 1.066-0.478 1.066-1.066s-0.478-1.066-1.066-1.066v0h-1.066c-0.589 0-1.066 0.478-1.066 1.066s0.478 1.066 1.066 1.066v0zM17.334 18.934h1.066c0.589 0 1.066-0.478 1.066-1.066s-0.478-1.066-1.066-1.066v0h-1.066c-0.589 0-1.066 0.478-1.066 1.066s0.478 1.066 1.066 1.066v0zM14.134 16.8h-1.066c-0.589 0-1.066 0.478-1.066 1.066s0.478 1.066 1.066 1.066v0h1.066c0.589 0 1.066-0.478 1.066-1.066s-0.478-1.066-1.066-1.066v0zM28.534 12.534h-17.066c-1.767 0-3.2 1.433-3.2 3.2v0 8.534c0 1.767 1.433 3.2 3.2 3.2v0h17.066c1.767 0 3.2-1.433 3.2-3.2v0-8.534c0-1.767-1.433-3.2-3.2-3.2v0zM29.6 24.266c0 0.589-0.478 1.066-1.066 1.066v0h-17.066c-0.589 0-1.066-0.478-1.066-1.066v0-8.534c0-0.589 0.478-1.066 1.066-1.066v0h17.066c0.589 0 1.066 0.478 1.066 1.066v0zM23.2 21.066h-6.4c-0.589 0-1.066 0.478-1.066 1.066s0.478 1.066 1.066 1.066v0h6.4c0.589 0 1.066-0.478 1.066-1.066s-0.478-1.066-1.066-1.066v0zM26.934 16.8h-1.066c-0.589 0-1.066 0.478-1.066 1.066s0.478 1.066 1.066 1.066v0h1.066c0.589 0 1.066-0.478 1.066-1.066s-0.478-1.066-1.066-1.066v0zM27.69 21.376c-0.098-0.094-0.215-0.17-0.345-0.222l-0.007-0.002c-0.12-0.050-0.259-0.080-0.406-0.080s-0.286 0.030-0.412 0.082l0.007-0.002c-0.138 0.052-0.254 0.128-0.352 0.224v0c-0.094 0.098-0.17 0.215-0.222 0.345l-0.002 0.007c-0.054 0.123-0.086 0.267-0.086 0.418 0 0.589 0.478 1.066 1.066 1.066s1.066-0.478 1.066-1.066c0-0.005 0-0.009 0-0.013v0.001c0-0.007 0-0.015 0-0.023 0-0.139-0.031-0.27-0.088-0.388l0.002 0.006c-0.054-0.137-0.13-0.254-0.224-0.352v0z"></path>
</svg>
