<!-- Generated by IcoMoon.io -->
<svg version="1.1" xmlns="http://www.w3.org/2000/svg" width="40" height="40" viewBox="0 0 40 40">
<title>ul-life-ring</title>
<path d="M30.666 18.986c0-0.118 0-0.234 0-0.352l-0.096-0.64-0.096-0.416c0-0.182-0.086-0.362-0.138-0.544s-0.086-0.288-0.138-0.426c-0.025-0.067-0.051-0.153-0.071-0.24l-0.003-0.016s0 0 0-0.054c-1.117-2.915-3.378-5.176-6.219-6.269l-0.074-0.025s0 0-0.054 0l-0.246-0.074-0.448-0.138c-0.16 0-0.33-0.086-0.49-0.128l-0.49-0.106-0.49-0.074c-0.17 0-0.33 0-0.512-0.064s-0.374 0-0.554 0l-0.544-0.086h-0.416c-0.182 0-0.374 0-0.554 0s-0.342 0-0.512 0.064l-0.49 0.074-0.49 0.106c-0.16 0-0.33 0.074-0.49 0.128l-0.448 0.138-0.246 0.074s0 0-0.054 0c-2.915 1.117-5.176 3.378-6.269 6.219l-0.025 0.074s0 0 0 0.054c-0.024 0.103-0.050 0.189-0.080 0.272l0.005-0.016c0 0.138-0.096 0.278-0.138 0.426s-0.096 0.362-0.138 0.544l-0.096 0.416-0.096 0.64c0 0.118 0 0.234 0 0.352 0 0.33 0 0.672 0 1.014s0 0.682 0 1.014c0 0.118 0 0.234 0 0.352l0.096 0.64 0.096 0.416c0 0.182 0.086 0.362 0.138 0.544s0.086 0.288 0.138 0.426c0.025 0.067 0.051 0.153 0.071 0.24l0.003 0.016c0.001 0.011 0.002 0.024 0.002 0.038s-0.001 0.026-0.002 0.039v-0.002c1.107 2.912 3.368 5.169 6.21 6.247l0.074 0.025s0 0 0.054 0l0.256 0.074 0.426 0.138 0.544 0.138 0.416 0.096 0.64 0.096h0.352c0.33 0 0.672 0.054 1.014 0.054s0.682 0 1.014-0.054h0.352l0.64-0.096 0.416-0.096 0.544-0.138 0.426-0.138 0.256-0.074s0 0 0.054 0c2.914-1.103 5.175-3.36 6.258-6.199l0.025-0.073c-0.001-0.011-0.002-0.024-0.002-0.038s0.001-0.026 0.002-0.039v0.002c0-0.086 0.054-0.17 0.074-0.256s0.096-0.278 0.138-0.426 0.096-0.362 0.138-0.544l0.096-0.416 0.096-0.64c0-0.118 0-0.234 0-0.352 0-0.33 0.054-0.672 0.054-1.014s0.096-0.598 0.096-0.928zM23.946 12.416c1.593 0.83 2.861 2.098 3.668 3.643l0.022 0.047-3.050 1.066c-0.45-0.713-1.036-1.299-1.726-1.736l-0.022-0.014zM18.23 11.67c0.224-0.054 0.438-0.086 0.65-0.118h0.256c0.275-0.030 0.594-0.048 0.918-0.048s0.642 0.018 0.956 0.051l-0.039-0.003h0.256c0.214 0 0.426 0.064 0.65 0.118h0.064l-1.066 3.050c-0.218-0.035-0.47-0.055-0.727-0.055-0.052 0-0.103 0.001-0.154 0.002h0.007c-0.002 0-0.004 0-0.006 0-0.273 0-0.54 0.023-0.8 0.068l0.028-0.004-1.066-3.050zM16.16 12.416l1.066 3.050c-0.718 0.449-1.307 1.035-1.746 1.727l-0.014 0.022-3.050-1.066c0.824-1.61 2.093-2.893 3.644-3.711l0.046-0.022zM11.67 21.824c-0.046-0.182-0.084-0.399-0.106-0.622l-0.002-0.018c0-0.096 0-0.182 0-0.266-0.034-0.275-0.054-0.594-0.054-0.918s0.019-0.642 0.057-0.955l-0.004 0.038c0-0.086 0-0.17 0-0.266 0.022-0.241 0.060-0.458 0.113-0.67l-0.006 0.030s0 0 0-0.064l3.050 1.066c-0.041 0.234-0.064 0.504-0.064 0.778s0.023 0.545 0.068 0.807l-0.004-0.028-3.050 1.066s0 0.042 0 0.022zM16.106 27.584c-1.593-0.83-2.861-2.098-3.668-3.643l-0.022-0.047 3.050-1.066c0.45 0.713 1.036 1.299 1.726 1.736l0.022 0.014zM21.824 28.33c-0.224 0.054-0.438 0.086-0.65 0.118h-0.256c-0.275 0.030-0.594 0.048-0.918 0.048s-0.642-0.018-0.956-0.051l0.039 0.003h-0.256c-0.214 0-0.426-0.064-0.65-0.118h-0.064l1.066-3.050c0.234 0.041 0.504 0.064 0.778 0.064s0.545-0.023 0.807-0.068l-0.028 0.004 1.066 3.050zM21.11 22.998v0c-0.182 0.064-0.362 0.106-0.534 0.15-0.16 0.031-0.345 0.050-0.534 0.050s-0.373-0.018-0.551-0.052l0.018 0.003c-0.17 0-0.352-0.086-0.534-0.15v0c-0.915-0.322-1.626-1.022-1.955-1.909l-0.007-0.022c-0.058-0.152-0.11-0.334-0.146-0.522l-0.003-0.022c-0.033-0.16-0.051-0.345-0.051-0.534s0.018-0.373 0.054-0.551l-0.003 0.018c0.038-0.202 0.086-0.378 0.146-0.546l-0.007 0.024c0.333-0.898 1.030-1.592 1.909-1.913l0.022-0.007c0.182-0.064 0.362-0.106 0.534-0.15 0.16-0.031 0.345-0.050 0.534-0.050s0.373 0.018 0.551 0.052l-0.018-0.003c0.17 0 0.352 0.086 0.534 0.15v0c0.895 0.33 1.59 1.025 1.913 1.898l0.007 0.022c0.058 0.152 0.11 0.334 0.146 0.522l0.003 0.022c0.033 0.16 0.051 0.345 0.051 0.534s-0.018 0.373-0.054 0.551l0.003-0.018c-0.040 0.21-0.091 0.392-0.157 0.568l0.008-0.024c-0.336 0.887-1.028 1.573-1.898 1.891l-0.022 0.007zM23.894 27.594l-1.066-3.050c0.713-0.45 1.299-1.036 1.736-1.726l0.014-0.022 3.050 1.066c-0.836 1.611-2.119 2.891-3.686 3.7l-0.048 0.022zM28.534 20.918c0 0.086 0 0.17 0 0.266-0.022 0.241-0.060 0.458-0.113 0.67l0.006-0.030s0 0 0 0.064l-3.050-1.066c0.041-0.234 0.064-0.504 0.064-0.778s-0.023-0.545-0.068-0.807l0.004 0.028 3.050-1.066s0 0 0 0.064c0.046 0.182 0.084 0.399 0.106 0.622l0.002 0.018c0 0.096 0 0.182 0 0.266 0.034 0.275 0.054 0.594 0.054 0.918s-0.019 0.642-0.057 0.955l0.004-0.038z"></path>
</svg>
