<!-- Generated by IcoMoon.io -->
<svg version="1.1" xmlns="http://www.w3.org/2000/svg" width="40" height="40" viewBox="0 0 40 40">
<title>ul-left-indent-alt</title>
<path d="M16.8 12.534c-0.589 0-1.066 0.478-1.066 1.066v0 12.8c0 0.589 0.478 1.066 1.066 1.066s1.066-0.478 1.066-1.066v0-12.8c0-0.589-0.478-1.066-1.066-1.066v0zM21.066 14.666h8.534c0.589 0 1.066-0.478 1.066-1.066s-0.478-1.066-1.066-1.066v0h-8.534c-0.589 0-1.066 0.478-1.066 1.066s0.478 1.066 1.066 1.066v0zM13.354 17.536c-0.197-0.237-0.492-0.386-0.821-0.386-0.261 0-0.499 0.094-0.685 0.249l0.002-0.002-2.134 1.782c-0.237 0.197-0.386 0.492-0.386 0.822s0.15 0.624 0.384 0.82l0.002 0.002 2.134 1.782c0.183 0.154 0.422 0.247 0.683 0.247 0.33 0 0.624-0.15 0.82-0.384l0.002-0.002c0.154-0.183 0.247-0.422 0.247-0.683 0-0.33-0.15-0.624-0.384-0.82l-0.002-0.002-1.152-0.96 1.152-0.96c0.237-0.197 0.386-0.492 0.386-0.821 0-0.261-0.094-0.499-0.249-0.685l0.002 0.002zM29.6 16.8h-8.534c-0.589 0-1.066 0.478-1.066 1.066s0.478 1.066 1.066 1.066v0h8.534c0.589 0 1.066-0.478 1.066-1.066s-0.478-1.066-1.066-1.066v0zM29.6 21.066h-8.534c-0.589 0-1.066 0.478-1.066 1.066s0.478 1.066 1.066 1.066v0h8.534c0.589 0 1.066-0.478 1.066-1.066s-0.478-1.066-1.066-1.066v0zM29.6 25.334h-8.534c-0.589 0-1.066 0.478-1.066 1.066s0.478 1.066 1.066 1.066v0h8.534c0.589 0 1.066-0.478 1.066-1.066s-0.478-1.066-1.066-1.066v0z"></path>
</svg>
