<!-- Generated by IcoMoon.io -->
<svg version="1.1" xmlns="http://www.w3.org/2000/svg" width="40" height="40" viewBox="0 0 40 40">
<title>ul-lightbulb</title>
<path d="M25.814 20.49c1.040-1.273 1.67-2.917 1.67-4.707 0-2.323-1.061-4.398-2.725-5.768l-0.013-0.010c-1.283-1.035-2.933-1.662-4.73-1.662-0.562 0-1.109 0.061-1.635 0.178l0.050-0.010c-3.374 0.766-5.854 3.738-5.854 7.29 0 1.744 0.598 3.348 1.599 4.618l-0.012-0.016c0.683 0.826 1.111 1.885 1.152 3.042v0.318c-0.392 0.379-0.639 0.906-0.65 1.491v2.136c0 1.178 0.955 2.134 2.134 2.134v0 1.066c0 0.589 0.478 1.066 1.066 1.066s1.066-0.478 1.066-1.066v0-1.066h2.134v1.066c0 0.589 0.478 1.066 1.066 1.066s1.066-0.478 1.066-1.066v0-1.066c1.178 0 2.134-0.955 2.134-2.134v0-2.134c0-0.001 0-0.001 0-0.002 0-0.581-0.232-1.107-0.608-1.492v0-0.458c0.034-1.081 0.439-2.061 1.093-2.822l-0.005 0.006zM16.8 27.392v-2.134h6.4v2.134zM24.15 19.158c-0.91 1.068-1.487 2.445-1.557 3.954l-0.001 0.014h-5.194c-0.108-1.545-0.694-2.935-1.61-4.044l0.010 0.012c-0.724-0.902-1.162-2.062-1.162-3.324 0-2.541 1.777-4.667 4.156-5.203l0.036-0.006c0.353-0.083 0.758-0.13 1.174-0.13 2.946 0 5.334 2.388 5.334 5.334 0 0.016 0 0.032 0 0.048v-0.002c0 0.009 0 0.018 0 0.029 0 1.264-0.447 2.424-1.191 3.33l0.007-0.009z"></path>
</svg>
