<!-- Generated by IcoMoon.io -->
<svg version="1.1" xmlns="http://www.w3.org/2000/svg" width="40" height="40" viewBox="0 0 40 40">
<title>ul-laughing</title>
<path d="M22.304 20.224c0.193 0.191 0.458 0.31 0.751 0.31 0.002 0 0.004 0 0.006 0v0c0.002 0 0.004 0 0.006 0 0.293 0 0.558-0.118 0.751-0.31v0c0.195-0.194 0.315-0.462 0.315-0.758s-0.121-0.564-0.315-0.758l-0.842-0.842 0.842-0.842c0.194-0.194 0.314-0.462 0.314-0.758 0-0.591-0.479-1.071-1.071-1.071-0.296 0-0.563 0.12-0.758 0.314l-1.6 1.6c-0.195 0.194-0.315 0.462-0.315 0.758s0.121 0.564 0.315 0.758v0zM16.886 20.224l1.6-1.6c0.195-0.194 0.315-0.462 0.315-0.758s-0.121-0.564-0.315-0.758l-1.6-1.6c-0.194-0.194-0.462-0.314-0.758-0.314-0.591 0-1.071 0.479-1.071 1.071 0 0.296 0.12 0.563 0.314 0.758v0l0.854 0.842-0.854 0.842c-0.195 0.194-0.315 0.462-0.315 0.758s0.121 0.564 0.315 0.758v0c0.193 0.191 0.458 0.31 0.751 0.31 0.002 0 0.004 0 0.006 0v0c0.002 0 0.004 0 0.006 0 0.293 0 0.558-0.118 0.751-0.31v0zM22.518 22.358c-0.682 0.554-1.561 0.889-2.518 0.889s-1.835-0.335-2.525-0.894l0.007 0.006c-0.184-0.154-0.422-0.246-0.682-0.246-0.59 0-1.068 0.478-1.068 1.068 0 0.33 0.149 0.624 0.384 0.82l0.002 0.002c1.043 0.876 2.401 1.407 3.882 1.407s2.839-0.532 3.892-1.415l-0.010 0.008c0.236-0.198 0.386-0.492 0.386-0.822 0-0.59-0.478-1.068-1.068-1.068-0.261 0-0.499 0.093-0.684 0.248l0.002-0.002zM20 9.334c-5.891 0-10.666 4.776-10.666 10.666s4.776 10.666 10.666 10.666c5.891 0 10.666-4.776 10.666-10.666v0c0-5.891-4.776-10.666-10.666-10.666v0zM20 28.534c-4.713 0-8.534-3.821-8.534-8.534s3.821-8.534 8.534-8.534c4.713 0 8.534 3.821 8.534 8.534v0c0 4.713-3.821 8.534-8.534 8.534v0z"></path>
</svg>
