<!-- Generated by IcoMoon.io -->
<svg version="1.1" xmlns="http://www.w3.org/2000/svg" width="40" height="40" viewBox="0 0 40 40">
<title>ul-language</title>
<path d="M29.659 20h-2.134c-0.589 0-1.066 0.478-1.066 1.066s0.478 1.066 1.066 1.066v0 2.134h-1.263c0.121-0.317 0.193-0.682 0.197-1.065v-0.002c0 0 0 0 0-0.001 0-1.767-1.433-3.199-3.199-3.199-1.178 0-2.208 0.637-2.763 1.586l-0.008 0.015c-0.091 0.154-0.145 0.339-0.145 0.537 0 0.589 0.478 1.066 1.066 1.066 0.394 0 0.739-0.214 0.923-0.533l0.002-0.005c0.188-0.321 0.53-0.532 0.923-0.533v0c0.589 0 1.066 0.478 1.066 1.066s-0.478 1.066-1.066 1.066v0c-0.589 0-1.066 0.478-1.066 1.066s0.478 1.066 1.066 1.066v0c0.589 0 1.066 0.478 1.066 1.066s-0.478 1.066-1.066 1.066v0c-0.392-0.001-0.735-0.212-0.92-0.528l-0.002-0.005c-0.187-0.324-0.532-0.538-0.926-0.538-0.589 0-1.066 0.478-1.066 1.066 0 0.198 0.054 0.383 0.148 0.542l-0.002-0.005c0.563 0.963 1.593 1.601 2.771 1.601 1.767 0 3.199-1.433 3.199-3.199 0 0 0 0 0-0.001v0c-0.004-0.384-0.076-0.75-0.204-1.089l0.007 0.022h1.263v3.2c0 0.589 0.478 1.066 1.066 1.066s1.066-0.478 1.066-1.066v0-7.466c0.589 0 1.066-0.478 1.066-1.066s-0.478-1.066-1.066-1.066v0zM16.892 19.192c0.12 0.467 0.538 0.807 1.034 0.807 0.589 0 1.066-0.478 1.066-1.066 0-0.092-0.012-0.181-0.034-0.266l0.002 0.007-1.874-7.498c-0.273-1.066-1.226-1.842-2.36-1.842s-2.086 0.776-2.356 1.826l-0.004 0.017-1.875 7.498c-0.020 0.078-0.032 0.167-0.032 0.259 0 0.589 0.478 1.066 1.066 1.066 0.497 0 0.914-0.34 1.033-0.8l0.002-0.007 0.598-2.392h3.135zM13.692 14.666l0.743-2.973c0.046-0.118 0.159-0.2 0.291-0.2s0.245 0.082 0.29 0.198l0.001 0.002 0.743 2.973zM22.193 14.666h1.066c0.589 0.001 1.066 0.478 1.066 1.066v1.066c0 0.589 0.478 1.066 1.066 1.066s1.066-0.478 1.066-1.066v0-1.066c-0.002-1.766-1.434-3.198-3.2-3.2h-1.067c-0.589 0-1.066 0.478-1.066 1.066s0.478 1.066 1.066 1.066v0zM17.926 24.266h-1.066c-0.589-0.001-1.066-0.478-1.066-1.066v-1.066c0-0.589-0.478-1.066-1.066-1.066s-1.066 0.478-1.066 1.066v0 1.066c0.002 1.766 1.434 3.198 3.2 3.2h1.067c0.589 0 1.066-0.478 1.066-1.066s-0.478-1.066-1.066-1.066v0z"></path>
</svg>
