<!-- Generated by IcoMoon.io -->
<svg version="1.1" xmlns="http://www.w3.org/2000/svg" width="40" height="40" viewBox="0 0 40 40">
<title>ul-link-alt</title>
<path d="M20.118 23.616l-4.138 4.138c-0.483 0.466-1.141 0.754-1.866 0.754s-1.384-0.287-1.867-0.754l0.001 0.001c-0.479-0.477-0.775-1.138-0.775-1.866s0.296-1.39 0.775-1.866l4.138-4.138c0.194-0.194 0.314-0.462 0.314-0.758 0-0.591-0.479-1.071-1.071-1.071-0.296 0-0.563 0.12-0.758 0.314v0l-4.138 4.15c-0.781 0.848-1.26 1.985-1.26 3.233 0 2.639 2.139 4.778 4.778 4.778 1.249 0 2.385-0.478 3.236-1.262l-0.003 0.003 4.15-4.138c0.194-0.194 0.314-0.462 0.314-0.758 0-0.591-0.479-1.071-1.071-1.071-0.296 0-0.563 0.12-0.758 0.314v0zM29.27 10.73c-0.866-0.861-2.058-1.392-3.376-1.392s-2.51 0.532-3.376 1.393v0l-4.15 4.138c-0.194 0.194-0.314 0.462-0.314 0.758 0 0.591 0.479 1.071 1.071 1.071 0.296 0 0.563-0.12 0.758-0.314v0l4.138-4.138c0.483-0.466 1.141-0.754 1.866-0.754s1.384 0.287 1.867 0.754l-0.001-0.001c0.479 0.477 0.775 1.138 0.775 1.866s-0.296 1.39-0.775 1.866l-4.138 4.138c-0.195 0.194-0.315 0.462-0.315 0.758s0.121 0.564 0.315 0.758v0c0.194 0.195 0.462 0.315 0.758 0.315s0.564-0.121 0.758-0.315v0l4.138-4.15c0.861-0.866 1.392-2.058 1.392-3.376s-0.532-2.51-1.393-3.376v0zM16.618 23.382c0.193 0.191 0.458 0.31 0.751 0.31 0.002 0 0.004 0 0.006 0v0c0.002 0 0.004 0 0.006 0 0.293 0 0.558-0.118 0.751-0.31l5.248-5.248c0.194-0.194 0.314-0.462 0.314-0.758 0-0.591-0.479-1.071-1.071-1.071-0.296 0-0.563 0.12-0.758 0.314l-5.248 5.248c-0.195 0.194-0.315 0.462-0.315 0.758s0.121 0.564 0.315 0.758v0z"></path>
</svg>
