<!-- Generated by IcoMoon.io -->
<svg version="1.1" xmlns="http://www.w3.org/2000/svg" width="40" height="40" viewBox="0 0 40 40">
<title>ul-location-pin-alt</title>
<path d="M20 18.72c1.178 0 2.134-0.955 2.134-2.134s-0.955-2.134-2.134-2.134c-1.178 0-2.134 0.955-2.134 2.134v0c0 1.178 0.955 2.134 2.134 2.134v0zM19.242 26.090c0.194 0.195 0.462 0.315 0.758 0.315s0.564-0.121 0.758-0.315v0l4.362-4.374c1.311-1.311 2.122-3.122 2.122-5.122 0-4-3.242-7.242-7.242-7.242s-7.242 3.242-7.242 7.242c0 2.001 0.811 3.812 2.122 5.122v0zM14.912 16.096c0.156-1.586 1.014-2.943 2.254-3.775l0.018-0.012c0.794-0.527 1.768-0.842 2.816-0.842s2.022 0.314 2.835 0.854l-0.019-0.012c1.391 0.935 2.294 2.502 2.294 4.281 0 1.414-0.57 2.694-1.494 3.623l-3.616 3.616-3.616-3.616c-0.926-0.922-1.498-2.197-1.498-3.606 0-0.18 0.010-0.358 0.028-0.534l-0.002 0.022zM27.466 28.534h-14.934c-0.589 0-1.066 0.478-1.066 1.066s0.478 1.066 1.066 1.066v0h14.934c0.589 0 1.066-0.478 1.066-1.066s-0.478-1.066-1.066-1.066v0z"></path>
</svg>
