<!-- Generated by IcoMoon.io -->
<svg version="1.1" xmlns="http://www.w3.org/2000/svg" width="40" height="40" viewBox="0 0 40 40">
<title>ul-moon</title>
<path d="M30.282 21.066c-0.183-0.152-0.421-0.245-0.679-0.245-0.16 0-0.311 0.035-0.447 0.098l0.006-0.002c-1.049 0.492-2.278 0.778-3.573 0.778-0.008 0-0.015 0-0.023 0h0.001c-4.778-0.006-8.653-3.866-8.682-8.637v-0.003c0.006-0.76 0.102-1.494 0.28-2.197l-0.014 0.063c0.013-0.062 0.020-0.133 0.020-0.206 0-0.589-0.478-1.066-1.066-1.066-0.134 0-0.262 0.025-0.379 0.070l0.007-0.002c-3.793 1.736-6.38 5.498-6.38 9.865 0 5.974 4.842 10.816 10.816 10.816 5.049 0 9.29-3.459 10.482-8.137l0.016-0.075c0.022-0.082 0.035-0.175 0.035-0.272 0-0.345-0.163-0.651-0.417-0.846l-0.002-0.002zM20.15 28.202c-4.769-0.034-8.622-3.909-8.622-8.682 0-2.72 1.25-5.148 3.208-6.74l0.016-0.013v0.288c0.006 5.971 4.845 10.81 10.815 10.816h0.001c0.011 0 0.025 0 0.038 0 0.78 0 1.54-0.086 2.271-0.248l-0.070 0.013c-1.482 2.762-4.35 4.608-7.648 4.608-0.004 0-0.007 0-0.011 0h0.001z"></path>
</svg>
