<!-- Generated by IcoMoon.io -->
<svg version="1.1" xmlns="http://www.w3.org/2000/svg" width="40" height="40" viewBox="0 0 40 40">
<title>ul-money-withdraw</title>
<path d="M20 20c-1.767 0-3.2 1.433-3.2 3.2s1.433 3.2 3.2 3.2c1.767 0 3.2-1.433 3.2-3.2v0c0-1.767-1.433-3.2-3.2-3.2v0zM20 24.266c-0.589 0-1.066-0.478-1.066-1.066s0.478-1.066 1.066-1.066c0.589 0 1.066 0.478 1.066 1.066v0c0 0.589-0.478 1.066-1.066 1.066v0zM19.242 17.558c0.098 0.094 0.215 0.17 0.345 0.222l0.007 0.002c0.119 0.054 0.258 0.086 0.406 0.086s0.286-0.031 0.412-0.088l-0.006 0.002c0.137-0.054 0.254-0.13 0.352-0.224v0l2.442-2.4c0.199-0.199 0.322-0.474 0.322-0.778 0-0.608-0.493-1.101-1.101-1.101-0.304 0-0.579 0.123-0.778 0.322v0l-0.576 0.63v-3.83c0-0.589-0.478-1.066-1.066-1.066s-1.066 0.478-1.066 1.066v0 3.83l-0.576-0.63c-0.199-0.199-0.474-0.322-0.778-0.322-0.608 0-1.101 0.493-1.101 1.101 0 0.304 0.123 0.579 0.322 0.778v0zM27.466 23.2c0-0.589-0.478-1.066-1.066-1.066s-1.066 0.478-1.066 1.066c0 0.589 0.478 1.066 1.066 1.066v0c0.589 0 1.066-0.478 1.066-1.066v0zM28.534 15.734h-3.2c-0.589 0-1.066 0.478-1.066 1.066s0.478 1.066 1.066 1.066v0h3.2c0.589 0 1.066 0.478 1.066 1.066v0 8.534c0 0.589-0.478 1.066-1.066 1.066v0h-17.066c-0.589 0-1.066-0.478-1.066-1.066v0-8.534c0-0.589 0.478-1.066 1.066-1.066v0h3.2c0.589 0 1.066-0.478 1.066-1.066s-0.478-1.066-1.066-1.066v0h-3.2c-1.767 0-3.2 1.433-3.2 3.2v0 8.534c0 1.767 1.433 3.2 3.2 3.2v0h17.066c1.767 0 3.2-1.433 3.2-3.2v0-8.534c0-1.767-1.433-3.2-3.2-3.2v0zM12.534 23.2c0 0.589 0.478 1.066 1.066 1.066s1.066-0.478 1.066-1.066c0-0.589-0.478-1.066-1.066-1.066v0c-0.589 0-1.066 0.478-1.066 1.066v0z"></path>
</svg>
