<!-- Generated by IcoMoon.io -->
<svg version="1.1" xmlns="http://www.w3.org/2000/svg" width="40" height="40" viewBox="0 0 40 40">
<title>ul-mouse</title>
<path d="M20 9.334c-4.124 0-7.466 3.343-7.466 7.466v0 6.4c0 4.124 3.343 7.466 7.466 7.466s7.466-3.343 7.466-7.466v0-6.4c0-4.124-3.343-7.466-7.466-7.466v0zM14.666 16.8c0 0 0-0.001 0-0.001 0-2.568 1.815-4.712 4.232-5.219l0.034-0.006v6.294h-4.266zM25.334 23.2c0 2.946-2.388 5.334-5.334 5.334s-5.334-2.388-5.334-5.334v0-3.2h10.666zM25.334 17.866h-4.266v-6.294c2.452 0.514 4.266 2.658 4.266 5.226 0 0 0 0.001 0 0.001v0z"></path>
</svg>
