<!-- Generated by IcoMoon.io -->
<svg version="1.1" xmlns="http://www.w3.org/2000/svg" width="40" height="40" viewBox="0 0 40 40">
<title>ul-mailbox</title>
<path d="M15.734 20h2.134c0.589 0 1.066-0.478 1.066-1.066s-0.478-1.066-1.066-1.066v0h-2.134c-0.589 0-1.066 0.478-1.066 1.066s0.478 1.066 1.066 1.066v0zM25.334 13.6h-5.334v-2.134h1.066c0.589 0 1.066-0.478 1.066-1.066s-0.478-1.066-1.066-1.066v0h-2.134c-0.589 0-1.066 0.478-1.066 1.066v0 3.2h-3.2c-2.357 0-4.266 1.91-4.266 4.266v0 6.4c0 0.589 0.478 1.066 1.066 1.066v0h6.4v4.266c0 0.589 0.478 1.066 1.066 1.066s1.066-0.478 1.066-1.066v0-4.266h8.534c0.589 0 1.066-0.478 1.066-1.066v0-6.4c0-2.357-1.91-4.266-4.266-4.266v0zM21.066 17.866v5.334h-8.534v-5.334c0-1.178 0.955-2.134 2.134-2.134v0h6.998c-0.372 0.609-0.594 1.345-0.598 2.132v0.001zM27.466 23.2h-4.266v-5.334c0-1.178 0.955-2.134 2.134-2.134s2.134 0.955 2.134 2.134v0z"></path>
</svg>
