<!-- Generated by IcoMoon.io -->
<svg version="1.1" xmlns="http://www.w3.org/2000/svg" width="40" height="40" viewBox="0 0 40 40">
<title>ul-money-withdrawal</title>
<path d="M30.666 9.334h-21.334c-0.589 0-1.066 0.478-1.066 1.066v0 8.534c0 0.589 0.478 1.066 1.066 1.066v0h3.2v9.6c0 0.589 0.478 1.066 1.066 1.066v0h12.8c0.589 0 1.066-0.478 1.066-1.066v0-9.6h3.2c0.589 0 1.066-0.478 1.066-1.066v0-8.534c0-0.589-0.478-1.066-1.066-1.066v0zM14.666 28.534v-2.134c1.178 0 2.134 0.955 2.134 2.134v0zM25.334 28.534h-2.134c0-1.178 0.955-2.134 2.134-2.134v0zM25.334 24.266c-2.357 0-4.266 1.91-4.266 4.266v0h-2.134c0-2.357-1.91-4.266-4.266-4.266v0-8.534h10.666zM29.6 17.866h-2.134v-3.2c0-0.589-0.478-1.066-1.066-1.066v0h-12.8c-0.589 0-1.066 0.478-1.066 1.066v0 3.2h-2.134v-6.4h19.2zM20 23.2c1.767 0 3.2-1.433 3.2-3.2s-1.433-3.2-3.2-3.2c-1.767 0-3.2 1.433-3.2 3.2v0c0 1.767 1.433 3.2 3.2 3.2v0zM20 18.934c0.589 0 1.066 0.478 1.066 1.066s-0.478 1.066-1.066 1.066c-0.589 0-1.066-0.478-1.066-1.066v0c0-0.589 0.478-1.066 1.066-1.066v0z"></path>
</svg>
