<!-- Generated by IcoMoon.io -->
<svg version="1.1" xmlns="http://www.w3.org/2000/svg" width="40" height="40" viewBox="0 0 40 40">
<title>ul-music-note</title>
<path d="M27.594 9.558c-0.184-0.155-0.424-0.25-0.686-0.25-0.082 0-0.162 0.010-0.239 0.027l0.007-0.002-8.534 2.134c-0.47 0.118-0.811 0.538-0.811 1.035 0 0.011 0 0.022 0.001 0.033v-0.002 11.040c-0.467-0.234-1.017-0.371-1.599-0.374h-0.001c-2.062 0-3.734 1.671-3.734 3.734s1.671 3.734 3.734 3.734c2.062 0 3.734-1.671 3.734-3.734v0-8.234l7.722-1.898h0.074l0.202-0.16 0.16-0.106c0.051-0.048 0.097-0.1 0.137-0.157l0.002-0.003c0.040-0.046 0.075-0.099 0.105-0.155l0.002-0.005c0.030-0.055 0.053-0.12 0.063-0.189l0.001-0.003c0.006-0.030 0.008-0.066 0.008-0.102s-0.003-0.071-0.009-0.105l0.001 0.004c0.002-0.013 0.003-0.027 0.003-0.042s-0.002-0.030-0.004-0.044v0.002-5.334c0.001-0.018 0.002-0.038 0.002-0.059 0-0.31-0.132-0.588-0.342-0.783l-0.001-0.001zM15.734 28.534c-0.884 0-1.6-0.716-1.6-1.6s0.716-1.6 1.6-1.6c0.884 0 1.6 0.716 1.6 1.6v0c0 0.884-0.716 1.6-1.6 1.6v0zM25.866 14.902l-6.4 1.6v-3.136l6.4-1.6z"></path>
</svg>
