<!-- Generated by IcoMoon.io -->
<svg version="1.1" xmlns="http://www.w3.org/2000/svg" width="40" height="40" viewBox="0 0 40 40">
<title>ul-megaphone</title>
<path d="M28.524 9.335c0 0-0.001 0-0.001 0-0.589 0-1.066 0.478-1.066 1.066 0 0 0 0.001 0 0.001v0 0.679c-1.774 2.186-4.457 3.576-7.465 3.587h-6.402c-1.766 0.002-3.198 1.434-3.2 3.2v2.134c0.002 1.766 1.434 3.198 3.2 3.2h0.516l-2.563 5.98c-0.054 0.124-0.086 0.269-0.086 0.421 0 0.589 0.478 1.066 1.066 1.066 0 0 0.001 0 0.001 0h4.266c0 0 0.001 0 0.001 0 0.437 0 0.813-0.263 0.977-0.64l0.002-0.007 2.906-6.779c2.746 0.207 5.147 1.538 6.767 3.529l0.014 0.018v0.679c0 0.589 0.478 1.066 1.066 1.066s1.066-0.478 1.066-1.066v0-17.066c0 0 0-0.001 0-0.001 0-0.589-0.478-1.066-1.066-1.066 0 0-0.001 0-0.001 0v0zM13.59 21.069c-0.589-0.001-1.066-0.478-1.066-1.066v-2.134c0.001-0.589 0.478-1.066 1.066-1.066h1.066v4.266zM16.087 28.535h-1.946l2.286-5.334h1.946zM27.458 23.758c-2.014-1.668-4.621-2.682-7.465-2.69h-3.202v-4.266h3.2c2.846-0.007 5.454-1.022 7.486-2.706l-0.020 0.016z"></path>
</svg>
