<!-- Generated by IcoMoon.io -->
<svg version="1.1" xmlns="http://www.w3.org/2000/svg" width="40" height="40" viewBox="0 0 40 40">
<title>ul-minus-square</title>
<path d="M27.466 9.334h-14.934c-1.767 0-3.2 1.433-3.2 3.2v0 14.934c0 1.767 1.433 3.2 3.2 3.2v0h14.934c1.767 0 3.2-1.433 3.2-3.2v0-14.934c0-1.767-1.433-3.2-3.2-3.2v0zM28.534 27.466c0 0.589-0.478 1.066-1.066 1.066v0h-14.934c-0.589 0-1.066-0.478-1.066-1.066v0-14.934c0-0.589 0.478-1.066 1.066-1.066v0h14.934c0.589 0 1.066 0.478 1.066 1.066v0zM24.266 18.934h-8.534c-0.589 0-1.066 0.478-1.066 1.066s0.478 1.066 1.066 1.066v0h8.534c0.589 0 1.066-0.478 1.066-1.066s-0.478-1.066-1.066-1.066v0z"></path>
</svg>
