<!-- Generated by IcoMoon.io -->
<svg version="1.1" xmlns="http://www.w3.org/2000/svg" width="40" height="40" viewBox="0 0 40 40">
<title>ul-map-pin</title>
<path d="M24.662 20.842c-0.117-0.048-0.253-0.076-0.394-0.076-0.59 0-1.068 0.478-1.068 1.068 0 0.447 0.275 0.83 0.666 0.99l0.007 0.002c1.558 0.618 2.528 1.578 2.528 2.506 0 1.514-2.624 3.2-6.4 3.2s-6.4-1.686-6.4-3.2c0-0.928 0.97-1.888 2.528-2.506 0.398-0.162 0.673-0.545 0.673-0.992 0-0.59-0.478-1.068-1.068-1.068-0.142 0-0.278 0.028-0.402 0.078l0.007-0.002c-2.422 0.96-3.872 2.634-3.872 4.49 0 2.986 3.744 5.334 8.534 5.334s8.534-2.346 8.534-5.334c0-1.856-1.45-3.53-3.872-4.49zM18.934 17.718v7.616c0 0.589 0.478 1.066 1.066 1.066s1.066-0.478 1.066-1.066v0-7.616c1.855-0.49 3.2-2.154 3.2-4.131 0-2.357-1.91-4.266-4.266-4.266s-4.266 1.91-4.266 4.266c0 1.978 1.345 3.641 3.17 4.125l0.030 0.006zM20 11.466c1.178 0 2.134 0.955 2.134 2.134s-0.955 2.134-2.134 2.134c-1.178 0-2.134-0.955-2.134-2.134v0c0-1.178 0.955-2.134 2.134-2.134v0z"></path>
</svg>
