<!-- Generated by IcoMoon.io -->
<svg version="1.1" xmlns="http://www.w3.org/2000/svg" width="40" height="40" viewBox="0 0 40 40">
<title>ul-mailbox-alt</title>
<path d="M18.934 21.066h2.134c0.589 0 1.066-0.478 1.066-1.066s-0.478-1.066-1.066-1.066v0h-2.134c-0.589 0-1.066 0.478-1.066 1.066s0.478 1.066 1.066 1.066v0zM27.466 28.534h-1.066v-11.734h1.066c0.589 0 1.066-0.478 1.066-1.066s-0.478-1.066-1.066-1.066v0h-1.162c-0.545-3.028-3.16-5.296-6.304-5.296s-5.759 2.267-6.298 5.257l-0.006 0.039h-1.162c-0.589 0-1.066 0.478-1.066 1.066s0.478 1.066 1.066 1.066v0h1.066v11.734h-1.066c-0.589 0-1.066 0.478-1.066 1.066s0.478 1.066 1.066 1.066v0h14.934c0.589 0 1.066-0.478 1.066-1.066s-0.478-1.066-1.066-1.066v0zM20 11.466c1.972 0.006 3.628 1.35 4.11 3.17l0.006 0.030h-8.234c0.49-1.85 2.146-3.194 4.117-3.2h0.001zM24.266 28.534h-8.534v-2.134h8.534zM24.266 24.266h-8.534v-7.466h8.534z"></path>
</svg>
