<!-- Generated by IcoMoon.io -->
<svg version="1.1" xmlns="http://www.w3.org/2000/svg" width="40" height="40" viewBox="0 0 40 40">
<title>ul-navigator</title>
<path d="M28.714 17.046l-14.934-6.166c-0.362-0.154-0.782-0.243-1.223-0.243-1.767 0-3.2 1.433-3.2 3.2 0 0.354 0.058 0.694 0.163 1.013l-0.006-0.022 1.642 5.174-1.686 5.174c-0.104 0.302-0.164 0.649-0.164 1.010 0 0.928 0.395 1.763 1.026 2.348l0.002 0.002c0.559 0.519 1.307 0.842 2.131 0.854h0.002c0.442 0 0.864-0.090 1.248-0.254l-0.021 0.008 14.986-6.166c1.167-0.494 1.971-1.63 1.971-2.954s-0.804-2.46-1.95-2.946l-0.021-0.008zM12.918 27.146c-0.12 0.051-0.26 0.081-0.406 0.081-0.28 0-0.534-0.108-0.725-0.284l0.001 0.001c-0.203-0.194-0.33-0.468-0.33-0.771 0-0.106 0.015-0.207 0.044-0.303l-0.002 0.007 1.558-4.81h14.646zM13.056 18.934l-1.59-4.768c-0.026-0.089-0.042-0.19-0.042-0.295 0-0.303 0.126-0.577 0.33-0.771h0.001c0.194-0.204 0.469-0.33 0.772-0.33 0.002 0 0.005 0 0.007 0v0c0.15 0 0.294 0.032 0.423 0.088l-0.007-0.002 14.752 6.080z"></path>
</svg>
