<!-- Generated by IcoMoon.io -->
<svg version="1.1" xmlns="http://www.w3.org/2000/svg" width="40" height="40" viewBox="0 0 40 40">
<title>ul-opera-alt</title>
<path d="M19.969 12.534c-3.886 0-3.886 5.463-3.886 7.314 0 2.083 0 7.618 3.904 7.618 3.898 0 3.898-5.506 3.898-7.579 0-4.88-1.318-7.354-3.916-7.354zM19.986 25.334c-1.175 0-1.771-1.846-1.771-5.542 0-2.338 0.304-5.125 1.753-5.125 1.551 0 1.782 3.271 1.782 5.221 0 3.614-0.594 5.446-1.765 5.446zM19.987 8.267c-6.455 0-10.963 4.78-10.963 11.625 0 5.821 4.103 11.842 10.971 11.842 6.862 0 10.963-6.021 10.963-11.842 0-6.845-4.511-11.625-10.971-11.625zM19.995 29.601c-5.532 0-8.838-4.937-8.838-9.708 0-5.677 3.549-9.492 8.83-9.492 5.286 0 8.838 3.814 8.838 9.492 0 4.772-3.303 9.708-8.83 9.708z"></path>
</svg>
