<!-- Generated by IcoMoon.io -->
<svg version="1.1" xmlns="http://www.w3.org/2000/svg" width="40" height="40" viewBox="0 0 40 40">
<title>ul-print</title>
<path d="M14.666 17.866c-0.589 0-1.066 0.478-1.066 1.066s0.478 1.066 1.066 1.066c0.589 0 1.066-0.478 1.066-1.066v0c0-0.589-0.478-1.066-1.066-1.066v0zM27.466 13.6h-1.066v-3.2c0-0.589-0.478-1.066-1.066-1.066v0h-10.666c-0.589 0-1.066 0.478-1.066 1.066v0 3.2h-1.066c-1.767 0-3.2 1.433-3.2 3.2v0 6.4c0 1.767 1.433 3.2 3.2 3.2v0h1.066v3.2c0 0.589 0.478 1.066 1.066 1.066v0h10.666c0.589 0 1.066-0.478 1.066-1.066v0-3.2h1.066c1.767 0 3.2-1.433 3.2-3.2v0-6.4c0-1.767-1.433-3.2-3.2-3.2v0zM15.734 11.466h8.534v2.134h-8.534zM24.266 28.534h-8.534v-4.266h8.534zM28.534 23.2c0 0.589-0.478 1.066-1.066 1.066v0h-1.066v-1.066c0-0.589-0.478-1.066-1.066-1.066v0h-10.666c-0.589 0-1.066 0.478-1.066 1.066v0 1.066h-1.066c-0.589 0-1.066-0.478-1.066-1.066v0-6.4c0-0.589 0.478-1.066 1.066-1.066v0h14.934c0.589 0 1.066 0.478 1.066 1.066v0z"></path>
</svg>
