<!-- Generated by IcoMoon.io -->
<svg version="1.1" xmlns="http://www.w3.org/2000/svg" width="40" height="40" viewBox="0 0 40 40">
<title>ul-pizza-slice</title>
<path d="M16.278 20.512c-0.589 0-1.066 0.478-1.066 1.066s0.478 1.066 1.066 1.066c0.589 0 1.066-0.478 1.066-1.066v0c0-0.589-0.478-1.066-1.066-1.066v0zM16.278 15.734c-0.589 0-1.066 0.478-1.066 1.066s0.478 1.066 1.066 1.066c0.589 0 1.066-0.478 1.066-1.066v0c0-0.589-0.478-1.066-1.066-1.066v0zM20 17.866c-0.589 0-1.066 0.478-1.066 1.066v0 1.066c0 0.589 0.478 1.066 1.066 1.066s1.066-0.478 1.066-1.066v0-1.066c0-0.589-0.478-1.066-1.066-1.066v0zM29.066 16.342v0c-0.458-0.268-1.009-0.426-1.596-0.426-0.305 0-0.601 0.042-0.88 0.122l0.022-0.006c-0.447 0.122-0.837 0.328-1.168 0.602l0.006-0.004-12.374-7.158c-0.153-0.090-0.337-0.143-0.534-0.143s-0.38 0.053-0.538 0.146l0.005-0.002c-0.326 0.186-0.543 0.532-0.544 0.928v14.048c-1.251 0.431-2.134 1.598-2.134 2.971 0 0.017 0 0.033 0 0.050v-0.002c0 0 0 0.001 0 0.001 0 1.738 1.385 3.151 3.11 3.198h0.623c7.329-0.018 13.721-4.014 17.133-9.942l0.051-0.096c0.247-0.443 0.393-0.973 0.393-1.537 0-1.165-0.622-2.184-1.552-2.743l-0.014-0.008zM13.6 12.246l10.55 6.090c-2.333 3.446-6.154 5.731-10.52 5.93l-0.029 0.001zM28.394 19.584c-3.099 5.387-8.823 8.956-15.381 8.956-0.169 0-0.338-0.002-0.506-0.007l0.025 0.001c-0.589 0-1.066-0.478-1.066-1.066v0c0-0.002 0-0.004 0-0.006 0-0.298 0.122-0.568 0.32-0.762v0c0.191-0.185 0.453-0.298 0.74-0.298 0.002 0 0.005 0 0.006 0h0.544c5.744-0.002 10.756-3.136 13.422-7.786l0.040-0.075c0.131-0.234 0.35-0.404 0.612-0.468l0.006-0.002c0.085-0.024 0.182-0.038 0.282-0.038 0.19 0 0.369 0.050 0.523 0.137l-0.006-0.002c0.337 0.184 0.562 0.535 0.562 0.939 0 0.174-0.042 0.339-0.117 0.485l0.003-0.006z"></path>
</svg>
