<!-- Generated by IcoMoon.io -->
<svg version="1.1" xmlns="http://www.w3.org/2000/svg" width="40" height="40" viewBox="0 0 40 40">
<title>ul-phone-volume</title>
<path d="M27.904 21.066c-0.234 0-0.48-0.074-0.714-0.128-0.55-0.124-1.018-0.267-1.47-0.44l0.072 0.024c-0.217-0.082-0.468-0.129-0.73-0.129-0.837 0-1.561 0.482-1.91 1.183l-0.006 0.012-0.234 0.49c-1.082-0.62-2.017-1.327-2.851-2.137l0.003 0.003c-0.806-0.831-1.514-1.766-2.097-2.78l-0.036-0.068 0.49-0.224c0.714-0.355 1.195-1.079 1.195-1.916 0-0.262-0.047-0.513-0.134-0.744l0.005 0.014c-0.146-0.379-0.29-0.85-0.402-1.333l-0.014-0.075c-0.054-0.234-0.096-0.48-0.128-0.714-0.269-1.518-1.578-2.656-3.154-2.656-0.016 0-0.033 0-0.049 0h-3.208c-0.002 0-0.002 0-0.004 0-0.946 0-1.797 0.41-2.382 1.064l-0.002 0.003c-0.502 0.562-0.808 1.309-0.808 2.126 0 0.153 0.010 0.304 0.031 0.451l-0.002-0.017c0.619 4.618 2.707 8.663 5.771 11.734v0c3.070 3.063 7.114 5.152 11.629 5.759l0.105 0.011c0.062 0.005 0.135 0.008 0.208 0.008s0.146-0.003 0.218-0.009l-0.010 0.001c0.002 0 0.003 0 0.005 0 0.819 0 1.566-0.307 2.132-0.814l-0.003 0.002c0.656-0.589 1.066-1.439 1.066-2.385 0-0.002 0-0.003 0-0.005v0-3.2c-0.013-1.538-1.108-2.817-2.561-3.111l-0.021-0.003zM28.426 27.466c-0.001 0.313-0.136 0.594-0.351 0.789l-0.001 0.001c-0.189 0.173-0.442 0.278-0.718 0.278-0.055 0-0.11-0.004-0.162-0.012l0.006 0.001c-4.142-0.555-7.77-2.422-10.529-5.164l0.001 0.001c-2.762-2.762-4.645-6.402-5.195-10.466l-0.010-0.094c-0.007-0.047-0.011-0.101-0.011-0.156 0-0.277 0.106-0.53 0.279-0.719l-0.001 0.001c0.196-0.217 0.478-0.352 0.792-0.352 0.003 0 0.006 0 0.009 0h3.199c0.008 0 0.017 0 0.026 0 0.506 0 0.93 0.352 1.039 0.825l0.002 0.007c0 0.288 0.096 0.586 0.16 0.874 0.143 0.643 0.312 1.192 0.518 1.722l-0.027-0.080-1.494 0.704c-0.257 0.12-0.454 0.33-0.552 0.59l-0.002 0.007c-0.050 0.12-0.080 0.259-0.080 0.406s0.030 0.286 0.082 0.412l-0.002-0.007c1.566 3.302 4.165 5.901 7.373 7.426l0.094 0.040c0.12 0.050 0.259 0.080 0.406 0.080s0.286-0.030 0.412-0.082l-0.007 0.002c0.266-0.101 0.478-0.298 0.594-0.548l0.002-0.006 0.672-1.494c0.455 0.174 1.018 0.343 1.597 0.474l0.089 0.017c0.278 0.064 0.576 0.118 0.864 0.16 0.48 0.111 0.832 0.534 0.832 1.041 0 0.009 0 0.018 0 0.027v-0.002zM22.134 9.334c-0.246 0-0.502 0-0.746 0-0.551 0.048-0.98 0.507-0.98 1.066 0 0.591 0.479 1.070 1.070 1.070 0.032 0 0.063-0.002 0.094-0.004h0.562c3.534 0 6.4 2.866 6.4 6.4v0c0 0.192 0 0.374 0 0.566-0.002 0.026-0.004 0.058-0.004 0.090 0 0.557 0.426 1.014 0.97 1.062h0.090c0.002 0 0.003 0 0.004 0 0.555 0 1.011-0.424 1.062-0.966v-0.004c0-0.246 0-0.502 0-0.746 0-4.709-3.814-8.527-8.522-8.534h-0.001zM24.266 17.866c0 0.589 0.478 1.066 1.066 1.066s1.066-0.478 1.066-1.066v0c0-2.357-1.91-4.266-4.266-4.266v0c-0.589 0-1.066 0.478-1.066 1.066s0.478 1.066 1.066 1.066v0c1.178 0 2.134 0.955 2.134 2.134v0z"></path>
</svg>
