<!-- Generated by IcoMoon.io -->
<svg version="1.1" xmlns="http://www.w3.org/2000/svg" width="40" height="40" viewBox="0 0 40 40">
<title>ul-plus-square</title>
<path d="M16.8 21.066h2.134v2.134c0 0.589 0.478 1.066 1.066 1.066s1.066-0.478 1.066-1.066v0-2.134h2.134c0.589 0 1.066-0.478 1.066-1.066s-0.478-1.066-1.066-1.066v0h-2.134v-2.134c0-0.589-0.478-1.066-1.066-1.066s-1.066 0.478-1.066 1.066v0 2.134h-2.134c-0.589 0-1.066 0.478-1.066 1.066s0.478 1.066 1.066 1.066v0zM29.6 9.334h-19.2c-0.589 0-1.066 0.478-1.066 1.066v0 19.2c0 0.589 0.478 1.066 1.066 1.066v0h19.2c0.589 0 1.066-0.478 1.066-1.066v0-19.2c0-0.589-0.478-1.066-1.066-1.066v0zM28.534 28.534h-17.066v-17.066h17.066z"></path>
</svg>
