<!-- Generated by IcoMoon.io -->
<svg version="1.1" xmlns="http://www.w3.org/2000/svg" width="40" height="40" viewBox="0 0 40 40">
<title>ul-post-stamp</title>
<path d="M31.2 13.066c0.589 0 1.066-0.478 1.066-1.066v0-3.2c0-0.589-0.478-1.066-1.066-1.066v0h-3.2c-0.589 0-1.066 0.478-1.066 1.066v0c0 0.294-0.238 0.534-0.534 0.534s-0.534-0.238-0.534-0.534v0c0-0.589-0.478-1.066-1.066-1.066v0h-3.2c-0.589 0-1.066 0.478-1.066 1.066v0c0 0.294-0.238 0.534-0.534 0.534s-0.534-0.238-0.534-0.534v0c0-0.589-0.478-1.066-1.066-1.066v0h-3.2c-0.589 0-1.066 0.478-1.066 1.066v0c0 0.294-0.238 0.534-0.534 0.534s-0.534-0.238-0.534-0.534v0c0-0.589-0.478-1.066-1.066-1.066v0h-3.2c-0.589 0-1.066 0.478-1.066 1.066v0 3.2c0 0.589 0.478 1.066 1.066 1.066v0c0.294 0 0.534 0.238 0.534 0.534s-0.238 0.534-0.534 0.534v0c-0.589 0-1.066 0.478-1.066 1.066v0 3.2c0 0.589 0.478 1.066 1.066 1.066v0c0.294 0 0.534 0.238 0.534 0.534s-0.238 0.534-0.534 0.534v0c-0.589 0-1.066 0.478-1.066 1.066v0 3.2c0 0.589 0.478 1.066 1.066 1.066v0c0.294 0 0.534 0.238 0.534 0.534s-0.238 0.534-0.534 0.534v0c-0.589 0-1.066 0.478-1.066 1.066v0 3.2c0 0.589 0.478 1.066 1.066 1.066v0h3.2c0.589 0 1.066-0.478 1.066-1.066v0c0-0.294 0.238-0.534 0.534-0.534s0.534 0.238 0.534 0.534v0c0 0.589 0.478 1.066 1.066 1.066v0h3.2c0.589 0 1.066-0.478 1.066-1.066v0c0-0.294 0.238-0.534 0.534-0.534s0.534 0.238 0.534 0.534v0c0 0.589 0.478 1.066 1.066 1.066v0h3.2c0.589 0 1.066-0.478 1.066-1.066v0c0-0.294 0.238-0.534 0.534-0.534s0.534 0.238 0.534 0.534v0c0 0.589 0.478 1.066 1.066 1.066v0h3.2c0.589 0 1.066-0.478 1.066-1.066v0-3.2c0-0.589-0.478-1.066-1.066-1.066v0c-0.294 0-0.534-0.238-0.534-0.534s0.238-0.534 0.534-0.534v0c0.589 0 1.066-0.478 1.066-1.066v0-3.2c0-0.589-0.478-1.066-1.066-1.066v0c-0.294 0-0.534-0.238-0.534-0.534s0.238-0.534 0.534-0.534v0c0.589 0 1.066-0.478 1.066-1.066v0-3.2c0-0.589-0.478-1.066-1.066-1.066v0c-0.294 0-0.534-0.238-0.534-0.534s0.238-0.534 0.534-0.534v0zM30.134 11.158c-0.948 0.422-1.597 1.357-1.597 2.442s0.649 2.020 1.58 2.436l0.017 0.006v1.514c-0.948 0.422-1.597 1.357-1.597 2.442s0.649 2.020 1.58 2.436l0.017 0.006v1.514c-0.948 0.422-1.597 1.357-1.597 2.442s0.649 2.020 1.58 2.436l0.017 0.006v1.29h-1.29c-0.422-0.948-1.357-1.597-2.442-1.597s-2.020 0.649-2.436 1.58l-0.006 0.017h-1.514c-0.422-0.948-1.357-1.597-2.442-1.597s-2.020 0.649-2.436 1.58l-0.006 0.017h-1.514c-0.422-0.948-1.357-1.597-2.442-1.597s-2.020 0.649-2.436 1.58l-0.006 0.017h-1.29v-1.29c0.948-0.422 1.597-1.357 1.597-2.442s-0.649-2.020-1.58-2.436l-0.017-0.006v-1.514c0.948-0.422 1.597-1.357 1.597-2.442s-0.649-2.020-1.58-2.436l-0.017-0.006v-1.514c0.948-0.422 1.597-1.357 1.597-2.442s-0.649-2.020-1.58-2.436l-0.017-0.006v-1.29h1.29c0.422 0.948 1.357 1.597 2.442 1.597s2.020-0.649 2.436-1.58l0.006-0.017h1.514c0.422 0.948 1.357 1.597 2.442 1.597s2.020-0.649 2.436-1.58l0.006-0.017h1.514c0.422 0.948 1.357 1.597 2.442 1.597s2.020-0.649 2.436-1.58l0.006-0.017h1.29zM20 12.534c-4.124 0-7.466 3.343-7.466 7.466s3.343 7.466 7.466 7.466v0c0.005 0 0.010 0 0.016 0 1.37 0 2.652-0.373 3.752-1.022l-0.034 0.019c0.342-0.182 0.572-0.537 0.572-0.945 0-0.589-0.478-1.066-1.066-1.066-0.212 0-0.41 0.062-0.577 0.169l0.004-0.002c-0.765 0.45-1.685 0.714-2.666 0.714-2.946 0-5.334-2.388-5.334-5.334s2.388-5.334 5.334-5.334c2.946 0 5.334 2.388 5.334 5.334 0 0 0 0 0 0v0 0.534c0 0.489-0.396 0.886-0.886 0.886v0c0 0 0 0 0 0-0.491 0-0.89-0.395-0.896-0.885v-3.019c-0.015-0.578-0.486-1.039-1.066-1.039-0.336 0-0.635 0.155-0.83 0.398l-0.002 0.002c-0.478-0.266-1.046-0.424-1.653-0.426h-0.001c-1.962 0-3.552 1.59-3.552 3.552s1.59 3.552 3.552 3.552v0c0 0 0 0 0.001 0 0.889 0 1.701-0.331 2.318-0.878l-0.004 0.003c0.546 0.537 1.296 0.868 2.123 0.868 1.663 0 3.014-1.341 3.029-3v-0.546c0-4.124-3.343-7.466-7.466-7.466v0zM20 21.418c-0.783 0-1.418-0.635-1.418-1.418s0.635-1.418 1.418-1.418c0.783 0 1.418 0.635 1.418 1.418v0c0 0.003 0 0.007 0 0.010 0 0.778-0.63 1.408-1.408 1.408-0.004 0-0.007 0-0.011 0h0.001z"></path>
</svg>
