<!-- Generated by IcoMoon.io -->
<svg version="1.1" xmlns="http://www.w3.org/2000/svg" width="40" height="40" viewBox="0 0 40 40">
<title>ul-presentation-edit</title>
<path d="M17.238 21.066h2.582c0.002 0 0.004 0 0.006 0 0.293 0 0.558-0.118 0.751-0.31l3.818-3.818c0.192-0.193 0.31-0.458 0.31-0.752s-0.118-0.559-0.31-0.752v0l-2.582-2.56c-0.193-0.192-0.458-0.31-0.752-0.31s-0.559 0.118-0.752 0.31l-3.818 3.818c-0.194 0.19-0.316 0.454-0.32 0.746v2.561c0 0.589 0.478 1.066 1.066 1.066v0zM18.304 17.866l2.762-2.73 1.066 1.066-2.752 2.73h-1.066zM29.6 22.134h-1.066v-10.666h1.066c0.589 0 1.066-0.478 1.066-1.066s-0.478-1.066-1.066-1.066v0h-19.2c-0.589 0-1.066 0.478-1.066 1.066s0.478 1.066 1.066 1.066v0h1.066v10.666h-1.066c-0.589 0-1.066 0.478-1.066 1.066s0.478 1.066 1.066 1.066v0h8.534v1.226l-4.854 3.2c-0.306 0.191-0.506 0.526-0.506 0.907 0 0.589 0.478 1.066 1.066 1.066 0.009 0 0.018 0 0.026 0h-0.002c0.003 0 0.007 0 0.011 0 0.215 0 0.415-0.068 0.578-0.183l-0.003 0.002 3.68-2.432v1.546c0 0.589 0.478 1.066 1.066 1.066s1.066-0.478 1.066-1.066v0-1.546l3.68 2.432c0.16 0.114 0.36 0.182 0.575 0.182 0.004 0 0.008 0 0.012 0h-0.001c0.586-0.005 1.058-0.481 1.058-1.066 0-0.367-0.186-0.691-0.468-0.883l-0.004-0.002-4.854-3.2v-1.248h8.534c0.589 0 1.066-0.478 1.066-1.066s-0.478-1.066-1.066-1.066v0zM26.4 22.134h-12.8v-10.666h12.8z"></path>
</svg>
