<!-- Generated by IcoMoon.io -->
<svg version="1.1" xmlns="http://www.w3.org/2000/svg" width="40" height="40" viewBox="0 0 40 40">
<title>ul-pound-circle</title>
<path d="M24.266 23.2h-5.526c0.118-0.317 0.189-0.683 0.192-1.066v-1.068h2.666c0.589 0 1.066-0.478 1.066-1.066s-0.478-1.066-1.066-1.066v0h-2.666v-1.066c0-0.003 0-0.007 0-0.010 0-1.149 0.931-2.080 2.080-2.080 0.759 0 1.424 0.407 1.786 1.014l0.006 0.010c0.188 0.323 0.533 0.537 0.928 0.537 0.591 0 1.070-0.479 1.070-1.070 0-0.196-0.053-0.38-0.145-0.538l0.002 0.005c-0.77-1.194-2.093-1.973-3.598-1.973-2.3 0-4.175 1.82-4.263 4.098v1.074h-1.066c-0.589 0-1.066 0.478-1.066 1.066s0.478 1.066 1.066 1.066v0h1.066v1.066c0 0.589-0.478 1.066-1.066 1.066v0c-0.589 0-1.066 0.478-1.066 1.066s0.478 1.066 1.066 1.066v0h8.534c0.589 0 1.066-0.478 1.066-1.066s-0.478-1.066-1.066-1.066v0zM20 8.266c-6.48 0-11.734 5.253-11.734 11.734s5.253 11.734 11.734 11.734c6.48 0 11.734-5.253 11.734-11.734v0c0-6.48-5.253-11.734-11.734-11.734v0zM20 29.6c-5.302 0-9.6-4.298-9.6-9.6s4.298-9.6 9.6-9.6c5.302 0 9.6 4.298 9.6 9.6v0c0 5.302-4.298 9.6-9.6 9.6v0z"></path>
</svg>
