<!-- Generated by IcoMoon.io -->
<svg version="1.1" xmlns="http://www.w3.org/2000/svg" width="40" height="40" viewBox="0 0 40 40">
<title>ul-puzzle-piece</title>
<path d="M25.334 30.666h-12.8c-1.767 0-3.2-1.433-3.2-3.2v0-10.666c0-1.767 1.433-3.2 3.2-3.2v0h1.066c0.047-2.32 1.939-4.182 4.266-4.182 1.456 0 2.742 0.73 3.511 1.842l0.010 0.014c0.46 0.648 0.738 1.454 0.746 2.323v0.002h3.2c0.589 0 1.066 0.478 1.066 1.066v0 3.2c2.32 0.047 4.182 1.939 4.182 4.266 0 1.456-0.73 2.742-1.842 3.511l-0.014 0.010c-0.648 0.46-1.454 0.738-2.323 0.746h-0.002v3.2c0 0.589-0.478 1.066-1.066 1.066v0zM12.534 15.734c-0.589 0-1.066 0.478-1.066 1.066v0 10.666c0 0.589 0.478 1.066 1.066 1.066v0h11.734v-3.392c0-0.002 0-0.004 0-0.006 0-0.357 0.175-0.673 0.445-0.866l0.003-0.002c0.172-0.124 0.387-0.198 0.619-0.198 0.126 0 0.246 0.022 0.359 0.062l-0.007-0.002c0.211 0.089 0.456 0.14 0.713 0.14 0.431 0 0.83-0.145 1.147-0.389l-0.005 0.003c0.517-0.319 0.882-0.839 0.99-1.449l0.002-0.013c0.012-0.086 0.019-0.186 0.019-0.287 0-0.541-0.202-1.035-0.534-1.411l0.002 0.002c-0.373-0.45-0.931-0.734-1.557-0.734-0.274 0-0.534 0.054-0.771 0.153l0.014-0.005c-0.105 0.038-0.226 0.059-0.351 0.059-0.232 0-0.447-0.074-0.622-0.2l0.003 0.002c-0.273-0.196-0.448-0.512-0.448-0.869 0-0.002 0-0.004 0-0.006v0-3.392h-3.414c-0.018 0.001-0.039 0.002-0.060 0.002-0.589 0-1.066-0.478-1.066-1.066 0-0.126 0.022-0.248 0.062-0.361l-0.002 0.007c0.089-0.211 0.14-0.456 0.14-0.713 0-0.431-0.145-0.83-0.389-1.147l0.003 0.005c-0.366-0.614-1.027-1.020-1.783-1.020-0.549 0-1.047 0.214-1.418 0.562l0.001-0.001c-0.39 0.386-0.631 0.922-0.631 1.514 0 0.030 0.001 0.060 0.002 0.090v-0.004c0.002 0.258 0.054 0.503 0.143 0.728l-0.005-0.014c0.038 0.105 0.060 0.226 0.060 0.352 0 0.589-0.478 1.066-1.066 1.066-0.002 0-0.005 0-0.006 0v0z"></path>
</svg>
