<!-- Generated by IcoMoon.io -->
<svg version="1.1" xmlns="http://www.w3.org/2000/svg" width="40" height="40" viewBox="0 0 40 40">
<title>ul-pricetag-alt</title>
<path d="M14.666 13.6c-0.589 0-1.066 0.478-1.066 1.066s0.478 1.066 1.066 1.066c0.589 0 1.066-0.478 1.066-1.066v0c0-0.589-0.478-1.066-1.066-1.066v0zM30.358 19.766l-10.112-10.090c-0.194-0.21-0.471-0.34-0.778-0.342h-6.4c-0.002 0-0.004 0-0.006 0-0.293 0-0.558 0.118-0.751 0.31v0l-2.666 2.656c-0.191 0.193-0.31 0.458-0.31 0.751 0 0.002 0 0.004 0 0.006v0 6.4c0.004 0.294 0.122 0.561 0.31 0.758l-0.001-0.001 10.122 10.134c0.197 0.188 0.463 0.305 0.757 0.31h0.001c0.002 0 0.004 0 0.006 0 0.293 0 0.558-0.118 0.751-0.31l9.078-9.078c0.191-0.193 0.31-0.458 0.31-0.751 0-0.002 0-0.004 0-0.006v0c-0.007-0.29-0.124-0.552-0.31-0.747l0.001 0.001zM20.522 28.096l-9.056-9.066v-5.536l2.026-2.026h5.526l9.066 9.056z"></path>
</svg>
