<!-- Generated by IcoMoon.io -->
<svg version="1.1" xmlns="http://www.w3.org/2000/svg" width="40" height="40" viewBox="0 0 40 40">
<title>ul-plane-arrival</title>
<path d="M29.728 24.512c-0.383-1.372-1.262-2.495-2.429-3.186l-0.025-0.014-2.25-1.312-0.512-5.834c-0.030-0.355-0.23-0.658-0.518-0.83l-0.005-0.002-3.2-1.834c-0.153-0.090-0.337-0.143-0.534-0.143s-0.38 0.053-0.538 0.146l0.005-0.002c-0.322 0.178-0.54 0.51-0.554 0.894v0.002l-0.16 4.16-1.866-1.066-3.050-4.106c-0.197-0.259-0.505-0.425-0.852-0.425-0.517 0-0.947 0.367-1.046 0.855l-0.001 0.007-0.928 4.918c-0.058 0.226-0.090 0.486-0.090 0.754 0 1.167 0.625 2.188 1.558 2.747l0.014 0.008 14.998 8.65c0.154 0.093 0.342 0.147 0.541 0.147 0.383 0 0.719-0.202 0.907-0.506l0.002-0.005c0.451-0.758 0.718-1.67 0.718-2.646 0-0.49-0.067-0.963-0.193-1.413l0.009 0.037zM27.722 26.4l-13.91-8c-0.309-0.19-0.511-0.527-0.511-0.91 0-0.105 0.015-0.206 0.043-0.302l-0.002 0.007 0.49-2.602 1.77 2.346c0.086 0.117 0.193 0.213 0.315 0.286l0.005 0.002 3.574 2.070c0.153 0.090 0.338 0.143 0.534 0.143 0.576 0 1.045-0.456 1.066-1.026v-0.002l0.17-4.16 1.162 0.672 0.512 5.834c0.033 0.357 0.237 0.66 0.528 0.83l0.005 0.002 2.73 1.61c0.709 0.414 1.231 1.082 1.446 1.877l0.005 0.022c0.069 0.237 0.109 0.509 0.109 0.79 0 0.181-0.016 0.357-0.048 0.529l0.002-0.018z"></path>
</svg>
