<!-- Generated by IcoMoon.io -->
<svg version="1.1" xmlns="http://www.w3.org/2000/svg" width="40" height="40" viewBox="0 0 40 40">
<title>ul-prescription-bottle</title>
<path d="M27.466 9.334h-14.934c-1.178 0-2.134 0.955-2.134 2.134v0 2.134c0 1.178 0.955 2.134 2.134 2.134v0 11.734c0 1.767 1.433 3.2 3.2 3.2v0h8.534c1.767 0 3.2-1.433 3.2-3.2v0-11.734c1.178 0 2.134-0.955 2.134-2.134v0-2.134c0-1.178-0.955-2.134-2.134-2.134v0zM25.334 24.266h-6.4v-4.266h6.4zM25.334 17.866h-7.466c-0.589 0-1.066 0.478-1.066 1.066v0 6.4c0 0.589 0.478 1.066 1.066 1.066v0h7.466v1.066c0 0.589-0.478 1.066-1.066 1.066v0h-8.534c-0.589 0-1.066-0.478-1.066-1.066v0-11.734h10.666zM12.534 13.6v-2.134h14.934v2.134z"></path>
</svg>
