<!-- Generated by IcoMoon.io -->
<svg version="1.1" xmlns="http://www.w3.org/2000/svg" width="40" height="40" viewBox="0 0 40 40">
<title>ul-raindrops-alt</title>
<path d="M16.8 15.466c0-2.934-2.752-4.81-2.87-4.886-0.167-0.114-0.374-0.183-0.598-0.183s-0.43 0.068-0.601 0.186l0.004-0.002c-0.118 0.086-2.87 1.952-2.87 4.886 0 1.914 1.552 3.466 3.466 3.466s3.466-1.552 3.466-3.466v0zM13.334 16.8c-0.736 0-1.334-0.597-1.334-1.334v0c0.094-1.049 0.589-1.966 1.329-2.61l0.005-0.004c0.749 0.644 1.246 1.563 1.333 2.599l0.001 0.014c0 0.736-0.597 1.334-1.334 1.334v0zM19.798 18.048c-0.167-0.114-0.374-0.183-0.598-0.183s-0.43 0.068-0.601 0.186l0.004-0.002c-0.182 0.128-4.47 3.094-4.47 7.552 0 2.798 2.269 5.066 5.066 5.066s5.066-2.269 5.066-5.066v0c0-4.534-4.266-7.434-4.47-7.552zM19.2 28.534c-1.62 0-2.934-1.314-2.934-2.934v0c0-2.464 1.93-4.448 2.944-5.334 1.002 0.842 2.922 2.806 2.922 5.334 0 1.62-1.314 2.934-2.934 2.934v0zM26.464 9.514c-0.167-0.114-0.374-0.183-0.598-0.183s-0.43 0.068-0.601 0.186l0.004-0.002c-0.15 0.106-3.67 2.538-3.67 6.218 0 2.357 1.91 4.266 4.266 4.266s4.266-1.91 4.266-4.266v0c0-3.722-3.52-6.122-3.67-6.218zM25.866 17.866c-1.178 0-2.134-0.955-2.134-2.134v0c0.157-1.61 0.951-3.009 2.122-3.959l0.010-0.009c1.187 0.956 1.982 2.357 2.131 3.945l0.002 0.023c0 1.178-0.955 2.134-2.134 2.134v0z"></path>
</svg>
