<!-- Generated by IcoMoon.io -->
<svg version="1.1" xmlns="http://www.w3.org/2000/svg" width="40" height="40" viewBox="0 0 40 40">
<title>ul-repeat</title>
<path d="M13.066 25.866h-1.6v-11.734h8.32l-0.854 0.842c-0.194 0.194-0.315 0.462-0.315 0.758 0 0.59 0.478 1.067 1.067 1.067 0.294 0 0.559-0.118 0.752-0.31l2.666-2.666c0.195-0.194 0.315-0.462 0.315-0.758s-0.121-0.564-0.315-0.758l-2.666-2.666c-0.193-0.192-0.458-0.31-0.752-0.31s-0.559 0.118-0.752 0.31v0c-0.195 0.194-0.315 0.462-0.315 0.758s0.121 0.564 0.315 0.758l0.842 0.842h-9.376c-0.589 0-1.066 0.478-1.066 1.066v0 13.866c0 0.589 0.478 1.066 1.066 1.066v0h2.666c0.589 0 1.066-0.478 1.066-1.066s-0.478-1.066-1.066-1.066v0zM29.6 12h-2.666c-0.589 0-1.066 0.478-1.066 1.066s0.478 1.066 1.066 1.066v0h1.6v11.734h-8.928l0.842-0.842c0.195-0.194 0.315-0.462 0.315-0.758s-0.121-0.564-0.315-0.758v0c-0.193-0.192-0.458-0.31-0.752-0.31s-0.559 0.118-0.752 0.31l-2.666 2.666c-0.195 0.194-0.315 0.462-0.315 0.758s0.121 0.564 0.315 0.758l2.666 2.666c0.193 0.191 0.458 0.31 0.752 0.31 0.59 0 1.067-0.478 1.067-1.067 0-0.296-0.121-0.564-0.315-0.758l-0.842-0.842h9.994c0.589 0 1.066-0.478 1.066-1.066v0-13.866c0-0.589-0.478-1.066-1.066-1.066v0z"></path>
</svg>
