<!-- Generated by IcoMoon.io -->
<svg version="1.1" xmlns="http://www.w3.org/2000/svg" width="40" height="40" viewBox="0 0 40 40">
<title>ul-sign-in-alt</title>
<path d="M29.066 23.306c-0.138-0.070-0.302-0.111-0.474-0.111-0.416 0-0.776 0.238-0.952 0.586l-0.003 0.006c-1.427 2.835-4.314 4.746-7.647 4.746-4.713 0-8.534-3.821-8.534-8.534s3.821-8.534 8.534-8.534c0.003 0 0.007 0 0.010 0h-0.001c0.011 0 0.024 0 0.037 0 3.321 0 6.194 1.914 7.578 4.698l0.022 0.049c0.18 0.354 0.542 0.594 0.96 0.594 0.593 0 1.074-0.481 1.074-1.074 0-0.175-0.042-0.34-0.116-0.486l0.003 0.006c-1.786-3.537-5.391-5.92-9.552-5.92-5.891 0-10.666 4.776-10.666 10.666s4.776 10.666 10.666 10.666c4.162 0 7.766-2.383 9.524-5.859l0.028-0.061c0.071-0.139 0.114-0.304 0.114-0.479 0-0.421-0.244-0.785-0.598-0.958l-0.006-0.002zM29.6 18.934h-10.23l2.454-2.442c0.194-0.194 0.314-0.462 0.314-0.758 0-0.591-0.479-1.071-1.071-1.071-0.296 0-0.563 0.12-0.758 0.314l-4.266 4.266c-0.094 0.098-0.17 0.215-0.222 0.345l-0.002 0.007c-0.050 0.12-0.080 0.259-0.080 0.406s0.030 0.286 0.082 0.412l-0.002-0.007c0.054 0.137 0.13 0.254 0.224 0.352v0l4.266 4.266c0.194 0.195 0.462 0.315 0.758 0.315s0.564-0.121 0.758-0.315v0c0.195-0.194 0.315-0.462 0.315-0.758s-0.121-0.564-0.315-0.758v0l-2.454-2.442h10.23c0.589 0 1.066-0.478 1.066-1.066s-0.478-1.066-1.066-1.066v0z"></path>
</svg>
