<!-- Generated by IcoMoon.io -->
<svg version="1.1" xmlns="http://www.w3.org/2000/svg" width="40" height="40" viewBox="0 0 40 40">
<title>ul-suitcase-alt</title>
<path d="M27.466 13.6h-3.2v-1.066c0-1.178-0.955-2.134-2.134-2.134v0h-4.266c-1.178 0-2.134 0.955-2.134 2.134v0 1.066h-3.2c-1.767 0-3.2 1.433-3.2 3.2v0 9.6c0 1.767 1.433 3.2 3.2 3.2v0h14.934c1.767 0 3.2-1.433 3.2-3.2v0-9.6c0-1.767-1.433-3.2-3.2-3.2v0zM17.866 12.534h4.266v1.066h-4.266zM28.534 26.4c0 0.589-0.478 1.066-1.066 1.066v0h-14.934c-0.589 0-1.066-0.478-1.066-1.066v0-5.334h4.266v1.066c0 0.589 0.478 1.066 1.066 1.066s1.066-0.478 1.066-1.066v0-1.066h4.266v1.066c0 0.589 0.478 1.066 1.066 1.066s1.066-0.478 1.066-1.066v0-1.066h4.266zM28.534 18.934h-17.066v-2.134c0-0.589 0.478-1.066 1.066-1.066v0h14.934c0.589 0 1.066 0.478 1.066 1.066v0z"></path>
</svg>
