<!-- Generated by IcoMoon.io -->
<svg version="1.1" xmlns="http://www.w3.org/2000/svg" width="40" height="40" viewBox="0 0 40 40">
<title>ul-step-backward</title>
<path d="M28.832 10.858c-0.502-0.302-1.107-0.48-1.754-0.48s-1.253 0.178-1.77 0.489l0.016-0.009-9.59 5.77v-3.030c0-1.767-1.433-3.2-3.2-3.2s-3.2 1.433-3.2 3.2v0 12.8c0 1.767 1.433 3.2 3.2 3.2s3.2-1.433 3.2-3.2v0-3.030l9.6 5.728c0.511 0.313 1.13 0.499 1.791 0.502h0.001c0.632-0.001 1.224-0.17 1.734-0.467l-0.017 0.009c1.103-0.63 1.835-1.8 1.835-3.141 0-0.021 0-0.042-0.001-0.062v0.003-11.894c0-0.013 0-0.028 0-0.042 0-1.345-0.736-2.518-1.828-3.138l-0.018-0.010zM13.6 26.4c0 0.589-0.478 1.066-1.066 1.066s-1.066-0.478-1.066-1.066v0-12.8c0-0.589 0.478-1.066 1.066-1.066s1.066 0.478 1.066 1.066v0zM28.534 25.952c0 0.010 0 0.022 0 0.034 0 0.554-0.302 1.038-0.75 1.296l-0.007 0.004c-0.194 0.12-0.43 0.191-0.682 0.191s-0.488-0.071-0.688-0.195l0.006 0.003-9.952-5.974c-0.44-0.278-0.728-0.762-0.728-1.312s0.288-1.034 0.722-1.308l0.006-0.004 9.942-5.952c0.198-0.127 0.441-0.202 0.701-0.202 0.005 0 0.010 0 0.014 0h-0.001c0.244 0.004 0.471 0.070 0.668 0.185l-0.006-0.003c0.456 0.262 0.758 0.746 0.758 1.299 0 0.012 0 0.024-0.001 0.035v-0.002z"></path>
</svg>
