<!-- Generated by IcoMoon.io -->
<svg version="1.1" xmlns="http://www.w3.org/2000/svg" width="40" height="40" viewBox="0 0 40 40">
<title>ul-snapchat-square</title>
<path d="M30.638 14.326c-0.002-0.406-0.040-0.802-0.112-1.186l0.006 0.041c-0.084-0.498-0.235-0.944-0.445-1.355l0.012 0.026c-0.242-0.456-0.537-0.847-0.886-1.183l-0.002-0.002c-0.524-0.514-1.177-0.897-1.906-1.098l-0.031-0.007c-0.555-0.141-1.193-0.221-1.85-0.221-0.070 0-0.139 0.001-0.209 0.002h0.010l-0.004-0.010-10.453 0.010c-0.026 0-0.057 0-0.088 0-0.382 0-0.761 0.019-1.134 0.057l0.047-0.004c-0.466 0.050-0.89 0.15-1.294 0.294l0.039-0.012c-1.352 0.52-2.376 1.629-2.768 3.004l-0.008 0.032c-0.14 0.554-0.221 1.19-0.221 1.846 0 0.066 0.001 0.13 0.002 0.195v-0.010l-0.007 10.494v0.001c0 0.009 0 0.018 0 0.028 0 0.491 0.035 0.974 0.103 1.446l-0.006-0.054c0.078 0.535 0.231 1.019 0.45 1.465l-0.013-0.029c0.318 0.618 0.75 1.135 1.271 1.542l0.010 0.008c0.365 0.293 0.791 0.53 1.254 0.686l0.030 0.009c0.614 0.197 1.32 0.31 2.053 0.31 0.020 0 0.039 0 0.059 0h-0.003c0.447 0.003 0.894 0.014 1.342 0.012 3.25-0.014 6.499 0.023 9.75-0.020 0.459-0.010 0.899-0.059 1.327-0.144l-0.049 0.008c0.833-0.15 1.561-0.519 2.146-1.046l-0.004 0.003c0.692-0.604 1.193-1.412 1.409-2.33l0.006-0.030c0.118-0.533 0.185-1.145 0.185-1.773 0-0.033 0-0.066-0.001-0.099v0.005-0.125c0-0.049-0.018-10.649-0.020-10.79zM27.784 24.193c-0.137 0.319-0.826 0.584-1.993 0.764-0.11 0.017-0.156 0.194-0.218 0.484-0.026 0.12-0.053 0.237-0.089 0.36-0.022 0.1-0.109 0.174-0.214 0.174-0.006 0-0.012 0-0.018-0.001h-0.018c-0.12-0.005-0.234-0.019-0.345-0.044l0.013 0.002c-0.262-0.058-0.565-0.091-0.874-0.093h-0.001c-0.223 0.001-0.442 0.020-0.654 0.057l0.023-0.003c-0.462 0.119-0.864 0.331-1.202 0.615l0.005-0.004c-0.565 0.485-1.294 0.792-2.094 0.828h-0.007c-0.044 0-0.086-0.002-0.118-0.003-0.026 0.002-0.052 0.003-0.078 0.003-0.807-0.037-1.536-0.344-2.106-0.832l0.005 0.004c-0.334-0.281-0.737-0.493-1.178-0.608l-0.021-0.005c-0.19-0.034-0.408-0.053-0.63-0.054h-0.001c-0.312 0.003-0.614 0.039-0.904 0.105l0.029-0.006c-0.097 0.024-0.21 0.041-0.326 0.047h-0.005c-0.008 0.001-0.017 0.002-0.026 0.002-0.109 0-0.2-0.077-0.223-0.178v-0.002c-0.037-0.125-0.063-0.246-0.089-0.362-0.064-0.291-0.11-0.469-0.219-0.486-1.166-0.18-1.856-0.445-1.993-0.766-0.014-0.030-0.022-0.064-0.024-0.101v-0.001c0-0.003 0-0.007 0-0.010 0-0.093 0.067-0.17 0.156-0.185h0.001c0.996-0.185 1.846-0.71 2.442-1.448l0.006-0.008c0.325-0.374 0.604-0.802 0.821-1.265l0.014-0.034 0.004-0.009c0.077-0.124 0.122-0.275 0.122-0.437 0-0.094-0.016-0.186-0.045-0.27l0.002 0.006c-0.15-0.354-0.648-0.512-0.978-0.617-0.082-0.026-0.159-0.050-0.221-0.075-0.292-0.115-0.772-0.359-0.708-0.695 0.097-0.246 0.332-0.417 0.607-0.417 0.009 0 0.018 0 0.027 0.001h-0.002c0.003 0 0.006 0 0.010 0 0.066 0 0.128 0.014 0.184 0.039l-0.003-0.001c0.23 0.121 0.501 0.196 0.788 0.209h0.004c0.014 0.001 0.030 0.002 0.047 0.002 0.155 0 0.298-0.053 0.41-0.142l-0.002 0.001q-0.013-0.234-0.028-0.467c-0.050-0.334-0.079-0.72-0.079-1.113 0-0.724 0.098-1.425 0.28-2.090l-0.013 0.055c0.649-1.455 2.082-2.45 3.749-2.45 0.018 0 0.035 0 0.054 0h-0.002l0.314-0.003c0.015 0 0.034 0 0.052 0 1.668 0 3.103 0.996 3.743 2.426l0.010 0.026c0.17 0.611 0.267 1.312 0.267 2.037 0 0.394-0.029 0.78-0.084 1.158l0.005-0.043-0.003 0.051c-0.009 0.145-0.018 0.282-0.025 0.414 0.109 0.086 0.247 0.138 0.398 0.138 0.006 0 0.010 0 0.016 0h-0.001c0.275-0.022 0.529-0.096 0.757-0.213l-0.011 0.005c0.069-0.030 0.15-0.049 0.234-0.049 0.003 0 0.007 0 0.010 0h-0.001c0.001 0 0.002 0 0.002 0 0.099 0 0.194 0.019 0.281 0.055h-0.001c0.204 0.050 0.358 0.215 0.391 0.422v0.003c0.003 0.163-0.118 0.406-0.714 0.642-0.061 0.024-0.139 0.049-0.221 0.075-0.33 0.105-0.827 0.262-0.978 0.617-0.027 0.079-0.043 0.17-0.043 0.265 0 0.162 0.046 0.312 0.125 0.44l-0.002-0.003 0.004 0.009c0.61 1.37 1.801 2.386 3.25 2.747l0.033 0.007c0.090 0.015 0.157 0.092 0.157 0.185 0 0.004 0 0.007 0 0.011v-0.001c-0.002 0.038-0.011 0.072-0.026 0.104l0.001-0.002z"></path>
</svg>
