<!-- Generated by IcoMoon.io -->
<svg version="1.1" xmlns="http://www.w3.org/2000/svg" width="40" height="40" viewBox="0 0 40 40">
<title>ul-servicemark</title>
<path d="M13.066 16.8h4.266c0.589 0 1.066-0.478 1.066-1.066s-0.478-1.066-1.066-1.066v0h-4.266c-1.767 0-3.2 1.433-3.2 3.2s1.433 3.2 3.2 3.2v0h2.134c0.589 0 1.066 0.478 1.066 1.066s-0.478 1.066-1.066 1.066v0h-4.266c-0.589 0-1.066 0.478-1.066 1.066s0.478 1.066 1.066 1.066v0h4.266c1.767 0 3.2-1.433 3.2-3.2s-1.433-3.2-3.2-3.2v0h-2.134c-0.589 0-1.066-0.478-1.066-1.066s0.478-1.066 1.066-1.066v0zM30.048 15.328c-0.11-0.262-0.314-0.466-0.569-0.574l-0.007-0.002c-0.12-0.050-0.259-0.080-0.406-0.080s-0.286 0.030-0.412 0.082l0.007-0.002c-0.137 0.054-0.254 0.13-0.352 0.224v0l-2.976 2.986-2.976-2.986c-0.098-0.094-0.215-0.17-0.345-0.222l-0.007-0.002c-0.12-0.050-0.259-0.080-0.406-0.080s-0.286 0.030-0.412 0.082l0.007-0.002c-0.262 0.11-0.466 0.314-0.574 0.569l-0.002 0.007c-0.052 0.119-0.083 0.258-0.086 0.405v8.534c0 0.589 0.478 1.066 1.066 1.066s1.066-0.478 1.066-1.066v0-5.962l1.91 1.92c0.194 0.195 0.462 0.315 0.758 0.315s0.564-0.121 0.758-0.315v0l1.91-1.92v5.962c0 0.589 0.478 1.066 1.066 1.066s1.066-0.478 1.066-1.066v0-8.534c-0.002-0.147-0.033-0.286-0.088-0.412l0.002 0.007z"></path>
</svg>
