<!-- Generated by IcoMoon.io -->
<svg version="1.1" xmlns="http://www.w3.org/2000/svg" width="40" height="40" viewBox="0 0 40 40">
<title>ul-step-backward-circle</title>
<path d="M23.734 15.072c-0.306-0.18-0.674-0.286-1.066-0.286s-0.761 0.106-1.077 0.291l0.010-0.006-4.266 2.464v-1.802c0-0.589-0.478-1.066-1.066-1.066s-1.066 0.478-1.066 1.066v0 8.534c0 0.589 0.478 1.066 1.066 1.066s1.066-0.478 1.066-1.066v0-1.802l4.266 2.464c0.306 0.18 0.674 0.286 1.066 0.286s0.761-0.106 1.077-0.291l-0.010 0.006c0.642-0.375 1.066-1.061 1.066-1.846v-6.166c-0.001-0.785-0.425-1.47-1.057-1.84l-0.010-0.006zM22.666 23.082l-5.334-3.082 5.334-3.082zM20 9.334c-5.891 0-10.666 4.776-10.666 10.666s4.776 10.666 10.666 10.666c5.891 0 10.666-4.776 10.666-10.666v0c0-5.891-4.776-10.666-10.666-10.666v0zM20 28.534c-4.713 0-8.534-3.821-8.534-8.534s3.821-8.534 8.534-8.534c4.713 0 8.534 3.821 8.534 8.534v0c0 4.713-3.821 8.534-8.534 8.534v0z"></path>
</svg>
