<!-- Generated by IcoMoon.io -->
<svg version="1.1" xmlns="http://www.w3.org/2000/svg" width="40" height="40" viewBox="0 0 40 40">
<title>ul-sad-crying</title>
<path d="M20 9.334c-5.878 0.018-10.636 4.786-10.636 10.666 0 4.574 2.879 8.476 6.925 9.992l0.074 0.024h0.064c1.063 0.398 2.291 0.629 3.574 0.629s2.51-0.23 3.646-0.653l-0.072 0.023h0.064c4.119-1.54 6.998-5.442 6.998-10.016 0-5.88-4.758-10.649-10.634-10.666h-0.002zM22.134 28.256c-0.64 0.176-1.375 0.278-2.134 0.278s-1.494-0.102-2.192-0.291l0.058 0.014v-3.338c0.606-0.382 1.343-0.609 2.134-0.609s1.527 0.226 2.15 0.618l-0.017-0.010zM24.266 27.382v-8.448c0.589 0 1.066-0.478 1.066-1.066s-0.478-1.066-1.066-1.066v0h-2.134c-0.589 0-1.066 0.478-1.066 1.066s0.478 1.066 1.066 1.066v0 3.616c-0.635-0.232-1.369-0.366-2.134-0.366s-1.498 0.134-2.178 0.38l0.045-0.014v-3.616c0.589 0 1.066-0.478 1.066-1.066s-0.478-1.066-1.066-1.066v0h-2.134c-0.589 0-1.066 0.478-1.066 1.066s0.478 1.066 1.066 1.066v0 8.448c-2.569-1.503-4.266-4.248-4.266-7.39 0-4.713 3.821-8.534 8.534-8.534s8.534 3.821 8.534 8.534c0 3.142-1.698 5.887-4.226 7.368l-0.040 0.022z"></path>
</svg>
