<!-- Generated by IcoMoon.io -->
<svg version="1.1" xmlns="http://www.w3.org/2000/svg" width="40" height="40" viewBox="0 0 40 40">
<title>ul-swatchbook</title>
<path d="M14.666 24.266c-0.589 0-1.066 0.478-1.066 1.066s0.478 1.066 1.066 1.066c0.589 0 1.066-0.478 1.066-1.066v0c0-0.589-0.478-1.066-1.066-1.066v0zM27.53 20l1.312-1.312c0.578-0.579 0.936-1.378 0.936-2.262s-0.358-1.682-0.936-2.262v0l-3.018-3.008c-0.579-0.578-1.378-0.936-2.262-0.936s-1.682 0.358-2.262 0.936v0l-1.302 1.312c-0.036-1.739-1.454-3.136-3.199-3.136 0 0-0.001 0-0.001 0h-4.266c-1.767 0-3.2 1.433-3.2 3.2v0 14.934c0 1.767 1.433 3.2 3.2 3.2v0h14.934c1.767 0 3.2-1.433 3.2-3.2v0-4.266c0 0 0-0.001 0-0.001 0-1.745-1.397-3.163-3.133-3.199h-0.003zM17.866 27.466c0 0.589-0.478 1.066-1.066 1.066v0h-4.266c-0.589 0-1.066-0.478-1.066-1.066v0-14.934c0-0.589 0.478-1.066 1.066-1.066v0h4.266c0.589 0 1.066 0.478 1.066 1.066v0zM20 15.478l2.816-2.816c0.193-0.192 0.458-0.31 0.752-0.31s0.559 0.118 0.752 0.31v0l3.018 3.072c0.192 0.193 0.31 0.458 0.31 0.752s-0.118 0.559-0.31 0.752l-3.072 3.072-4.266 4.214zM28.534 27.466c0 0.589-0.478 1.066-1.066 1.066v0h-7.658c0.104-0.29 0.17-0.626 0.181-0.976v-0.006l5.418-5.418h2.058c0.589 0 1.066 0.478 1.066 1.066v0z"></path>
</svg>
