<!-- Generated by IcoMoon.io -->
<svg version="1.1" xmlns="http://www.w3.org/2000/svg" width="40" height="40" viewBox="0 0 40 40">
<title>ul-store-slash</title>
<path d="M16.48 11.466h10.264l1.773 4.431c-0.086 1.105-1.003 1.969-2.122 1.969-1.175 0-2.128-0.953-2.128-2.128 0-0.002 0-0.003 0-0.006v0c0-0.589-0.478-1.066-1.066-1.066s-1.066 0.478-1.066 1.066v0c0 0.006 0 0.014 0 0.022 0 0.264-0.053 0.517-0.148 0.746l0.005-0.013c-0.051 0.12-0.081 0.26-0.081 0.407 0 0.442 0.27 0.822 0.653 0.983l0.007 0.002c0.054 0.017 0.117 0.030 0.182 0.037h0.005c0.753 1.251 2.102 2.077 3.644 2.081h0.001v1.386c0 0.589 0.478 1.066 1.066 1.066s1.066-0.478 1.066-1.066v0-1.98c1.267-0.739 2.11-2.085 2.129-3.629v-0.002c0.001-0.010 0.003-0.019 0.003-0.030l0.002-0.012c-0.007-0.068-0.021-0.13-0.038-0.19l0.002 0.007c-0.006-0.078-0.020-0.151-0.041-0.221l0.002 0.007-2.134-5.334c-0.162-0.396-0.544-0.67-0.99-0.67h-10.986c-0.589 0-1.066 0.478-1.066 1.066s0.478 1.066 1.066 1.066v0zM31.421 29.913l-3.129-3.129c-0.049-0.062-0.102-0.115-0.162-0.162l-0.002-0.002-10.614-10.614c-0.063-0.085-0.135-0.158-0.218-0.218l-0.002-0.002-4.567-4.567c-0.042-0.050-0.086-0.095-0.135-0.135l-2.506-2.506c-0.192-0.189-0.456-0.306-0.747-0.306-0.589 0-1.066 0.478-1.066 1.066 0 0.291 0.117 0.555 0.306 0.747l2.094 2.094-1.264 3.154c-0.018 0.058-0.031 0.127-0.037 0.198v0.004c-0.018 0.057-0.032 0.123-0.039 0.191v0.004l0.002 0.012 0.002 0.026c0.018 1.548 0.862 2.894 2.11 3.624l0.020 0.011v10.194c0 0.589 0.478 1.066 1.066 1.066v0h14.934c0.454-0.002 0.841-0.289 0.99-0.692l0.002-0.007 1.454 1.454c0.192 0.189 0.456 0.306 0.747 0.306 0.589 0 1.066-0.478 1.066-1.066 0-0.291-0.117-0.555-0.306-0.747v0zM11.483 15.898l0.83-2.076 3.068 3.068c-0.379 0.591-1.033 0.977-1.777 0.977-0.002 0-0.003 0-0.005 0v0c-1.117-0.003-2.031-0.866-2.116-1.962l-0.001-0.007zM16.8 23.2v5.334h-3.2v-8.534c0.003 0 0.007 0 0.010 0 1.33 0 2.517-0.614 3.292-1.574l0.006-0.008 3.716 3.716h-2.758c-0.589 0-1.066 0.478-1.066 1.066v0zM21.066 28.534h-2.134v-4.266h2.134zM26.4 28.534h-3.2v-3.825l3.2 3.2z"></path>
</svg>
