<!-- Generated by IcoMoon.io -->
<svg version="1.1" xmlns="http://www.w3.org/2000/svg" width="40" height="40" viewBox="0 0 40 40">
<title>ul-swiggy</title>
<path d="M20.937 13.524c0.006-0.001 0.014-0.001 0.021-0.001 0.175 0 0.317 0.142 0.317 0.317 0 0.014-0.001 0.029-0.003 0.043v-0.002c0.002 0.098 0.004 0.196 0.004 0.294 0.001 0.632-0.002 1.264 0.002 1.896 0.003 0.462 0.085 0.551 0.533 0.607 0.434 0.042 0.939 0.066 1.45 0.066 0.672 0 1.335-0.042 1.986-0.123l-0.078 0.008c0.615-0.044 1.186-0.186 1.712-0.412l-0.034 0.013c0.223-0.070 0.382-0.275 0.382-0.518 0-0.045-0.006-0.088-0.015-0.129l0.001 0.004c-0.449-3.039-2.72-5.443-5.651-6.083l-0.048-0.009c-0.45-0.102-0.966-0.161-1.496-0.161-0.859 0-1.683 0.154-2.445 0.435l0.049-0.016c-1.134 0.402-2.098 1.042-2.87 1.865l-0.003 0.004c-1.178 1.172-1.922 2.78-1.97 4.562v0.009c0.025 2.172 0.626 4.199 1.658 5.941l-0.030-0.055c0.238 0.479 0.725 0.803 1.286 0.803 0.046 0 0.093-0.002 0.138-0.006l-0.006 0.001c0.697-0.017 1.394-0.004 2.092-0.004v-0.004q1.111 0 2.222 0.001c0.266 0.001 0.476 0.064 0.474 0.397-0.005 0.774 0.001 1.547-0.003 2.321-0.002 0.235-0.067 0.461-0.348 0.463s-0.348-0.223-0.352-0.458c-0.006-0.37 0-0.741 0.001-1.111 0.001-0.481-0.078-0.594-0.558-0.682-0.397-0.068-0.854-0.107-1.321-0.107-0.418 0-0.828 0.031-1.229 0.091l0.045-0.006c-0.314 0.026-0.604 0.099-0.872 0.214l0.018-0.007c-0.226 0.106-0.316 0.262-0.206 0.498 0.114 0.246 0.221 0.498 0.355 0.734 1.206 2.016 2.412 3.742 3.726 5.378l-0.071-0.091c0.164 0.213 0.291 0.217 0.46 0.011 0.372-0.455 0.762-0.894 1.13-1.353 1.367-1.645 2.63-3.481 3.72-5.426l0.095-0.184c0.687-1.19 1.237-2.568 1.574-4.028l0.020-0.102c0.055-0.138 0.087-0.298 0.087-0.466 0-0.668-0.51-1.216-1.162-1.278l-0.005-0.001c-0.481-0.111-1.032-0.174-1.599-0.174-0.064 0-0.129 0.001-0.192 0.002h0.010c-0.97-0.007-1.939-0.004-2.909-0.003-0.261 0-0.455-0.074-0.455-0.381-0.001-1.078-0.002-2.158 0.002-3.236 0.001-0.23 0.112-0.372 0.362-0.363z"></path>
</svg>
