<!-- Generated by IcoMoon.io -->
<svg version="1.1" xmlns="http://www.w3.org/2000/svg" width="40" height="40" viewBox="0 0 40 40">
<title>ul-sperms</title>
<path d="M18.998 28.64c-0.272-0.127-0.502-0.3-0.692-0.51l-0.002-0.002c-0.335-0.324-0.584-0.735-0.71-1.198l-0.004-0.018c-0.25-0.882-0.738-1.63-1.391-2.193l-0.006-0.005c0.050-0.233 0.080-0.501 0.080-0.775 0-1.067-0.438-2.031-1.146-2.722l-0.001-0.001c-0.645-0.737-1.587-1.2-2.638-1.2-0.863 0-1.654 0.313-2.263 0.83l0.005-0.004c-0.514 0.606-0.827 1.398-0.827 2.263 0 1.052 0.463 1.997 1.197 2.64l0.004 0.003c0.614 0.626 1.426 1.057 2.334 1.192l0.022 0.002h0.384c0.002 0 0.006 0 0.010 0 0.602 0 1.163-0.175 1.635-0.477l-0.012 0.007c0.258 0.269 0.447 0.604 0.541 0.977l0.003 0.015c0.243 0.843 0.687 1.563 1.278 2.132l0.002 0.002c0.361 0.378 0.784 0.691 1.254 0.926l0.026 0.012c0.136 0.067 0.296 0.106 0.465 0.106 0.002 0 0.003 0 0.005 0v0c0.002 0 0.003 0 0.005 0 0.589 0 1.066-0.478 1.066-1.066 0-0.42-0.242-0.783-0.595-0.958l-0.006-0.002zM13.942 24.618c-0.158 0.134-0.366 0.216-0.591 0.216-0.055 0-0.109-0.005-0.161-0.014l0.006 0.001c-0.446-0.056-0.836-0.258-1.13-0.554v0c-0.608-0.598-0.778-1.482-0.384-1.888 0.153-0.133 0.354-0.214 0.573-0.214 0.009 0 0.017 0 0.026 0h-0.002c0.518 0.010 0.984 0.225 1.322 0.566v0c0.309 0.291 0.522 0.682 0.586 1.12l0.002 0.010c0.006 0.038 0.009 0.080 0.009 0.124 0 0.246-0.097 0.469-0.254 0.634v0zM29.942 18.090c-0.385-0.131-0.711-0.347-0.969-0.628l-0.002-0.002c-0.335-0.324-0.584-0.735-0.71-1.198l-0.004-0.018c-0.25-0.882-0.738-1.63-1.391-2.193l-0.006-0.005c0.045-0.22 0.071-0.474 0.071-0.732 0-1.089-0.457-2.070-1.19-2.765l-0.002-0.002c-0.645-0.737-1.587-1.2-2.638-1.2-0.863 0-1.654 0.313-2.263 0.83l0.005-0.004c-0.514 0.606-0.827 1.398-0.827 2.263 0 1.052 0.463 1.997 1.197 2.64l0.004 0.003c0.628 0.636 1.46 1.069 2.39 1.192l0.021 0.002h0.384c0.002 0 0.006 0 0.010 0 0.602 0 1.163-0.175 1.635-0.477l-0.012 0.007c0.258 0.269 0.447 0.604 0.541 0.977l0.003 0.015c0.247 0.842 0.691 1.561 1.279 2.132l0.001 0.001c0.494 0.507 1.101 0.902 1.781 1.142l0.033 0.010c0.102 0.031 0.218 0.050 0.339 0.054h0.002c0.001 0 0.002 0 0.002 0 0.467 0 0.864-0.3 1.008-0.718l0.002-0.007c0.029-0.092 0.046-0.198 0.046-0.308 0-0.472-0.306-0.872-0.731-1.013l-0.007-0.002zM24.608 13.952c-0.158 0.134-0.366 0.216-0.591 0.216-0.055 0-0.109-0.005-0.161-0.014l0.006 0.001c-0.446-0.056-0.836-0.258-1.13-0.554v0c-0.608-0.598-0.778-1.482-0.384-1.888 0.153-0.133 0.354-0.214 0.573-0.214 0.009 0 0.017 0 0.026 0h-0.002c0.518 0.010 0.984 0.225 1.322 0.566v0c0.309 0.291 0.522 0.682 0.586 1.12l0.002 0.010c0.006 0.038 0.009 0.080 0.009 0.124 0 0.246-0.097 0.469-0.254 0.634v0zM30.358 29.014c-0.438-1.698-1.748-3.008-3.413-3.438l-0.033-0.007c-0.583-0.169-1.083-0.472-1.482-0.874v0c-0.404-0.392-0.702-0.89-0.849-1.45l-0.005-0.022c-0.483-1.698-1.803-3.004-3.474-3.458l-0.034-0.008c-0.582-0.151-1.081-0.449-1.471-0.853l-0.001-0.001c-0.406-0.396-0.707-0.898-0.859-1.46l-0.005-0.022c-0.214-0.769-0.582-1.434-1.071-1.99l0.005 0.006c0.134-0.394 0.212-0.847 0.212-1.318 0-0.099-0.003-0.198-0.010-0.295l0.001 0.013c-0.156-1.181-0.698-2.212-1.492-2.986l-0.001-0.001c-0.778-0.806-1.818-1.355-2.982-1.512l-0.026-0.003c-0.11-0.012-0.237-0.018-0.365-0.018-1.017 0-1.937 0.415-2.6 1.085v0c-0.67 0.663-1.085 1.583-1.085 2.6 0 0.129 0.006 0.255 0.019 0.381l-0.002-0.016c0.156 1.181 0.698 2.212 1.492 2.986l0.001 0.001c0.778 0.806 1.818 1.355 2.982 1.512l0.026 0.003h0.458c0.023 0.001 0.050 0.001 0.078 0.001 0.769 0 1.481-0.24 2.067-0.649l-0.012 0.008c0.138 0.218 0.251 0.47 0.326 0.738l0.005 0.020c0.524 1.87 1.969 3.31 3.802 3.82l0.038 0.009c0.954 0.268 1.69 1.006 1.947 1.943l0.005 0.019c0.518 1.875 1.965 3.322 3.802 3.831l0.038 0.009c0.95 0.274 1.678 1.022 1.916 1.965l0.004 0.019c0.049 0.19 0.107 0.353 0.178 0.51l-0.008-0.018c0.18 0.342 0.532 0.573 0.938 0.576h0.001c0.171-0.006 0.331-0.045 0.478-0.11l-0.008 0.003c0.366-0.174 0.613-0.541 0.613-0.966 0-0.165-0.038-0.321-0.104-0.46l0.002 0.006s-0.032-0.106-0.042-0.128zM15.35 15.35c-0.682 0.672-2.048 0.438-2.998-0.502-0.464-0.445-0.784-1.037-0.883-1.701l-0.002-0.016c-0.012-0.073-0.019-0.157-0.019-0.242 0-0.398 0.149-0.762 0.394-1.039l-0.002 0.002c0.262-0.239 0.613-0.386 0.998-0.386 0.024 0 0.049 0.001 0.073 0.002h-0.003c0.77 0.037 1.455 0.369 1.951 0.884l0.001 0.001c0.46 0.446 0.776 1.038 0.873 1.702l0.002 0.016c0.011 0.070 0.018 0.15 0.018 0.233 0 0.403-0.152 0.771-0.402 1.049l0.002-0.002z"></path>
</svg>
