<!-- Generated by IcoMoon.io -->
<svg version="1.1" xmlns="http://www.w3.org/2000/svg" width="40" height="40" viewBox="0 0 40 40">
<title>ul-shopping-cart</title>
<path d="M16.266 27.466c-0.884 0-1.6 0.716-1.6 1.6s0.716 1.6 1.6 1.6c0.884 0 1.6-0.716 1.6-1.6v0c0-0.884-0.716-1.6-1.6-1.6v0zM27.466 24.266h-12.8c-0.589 0-1.066-0.478-1.066-1.066s0.478-1.066 1.066-1.066v0h9.058c1.453-0.005 2.678-0.973 3.071-2.298l0.006-0.022 1.691-5.919c0.026-0.088 0.041-0.189 0.041-0.293 0-0.589-0.478-1.066-1.066-1.066h-13.078c-0.453-1.249-1.626-2.126-3.005-2.134h-0.984c-0.589 0-1.066 0.478-1.066 1.066s0.478 1.066 1.066 1.066v0h0.983c0.484 0.002 0.892 0.324 1.023 0.766l0.002 0.007 0.166 0.581v0.006l1.75 6.125c-1.614 0.178-2.858 1.535-2.858 3.182 0 1.767 1.433 3.2 3.2 3.2h12.8c0.589 0 1.066-0.478 1.066-1.066s-0.478-1.066-1.066-1.066v0zM26.053 14.666l-1.302 4.559c-0.133 0.45-0.542 0.773-1.026 0.774h-7.186l-0.272-0.952-1.251-4.382zM24.8 27.466c-0.884 0-1.6 0.716-1.6 1.6s0.716 1.6 1.6 1.6c0.884 0 1.6-0.716 1.6-1.6v0c0-0.884-0.716-1.6-1.6-1.6v0z"></path>
</svg>
