<!-- Generated by IcoMoon.io -->
<svg version="1.1" xmlns="http://www.w3.org/2000/svg" width="40" height="40" viewBox="0 0 40 40">
<title>ul-smile-wink-alt</title>
<path d="M16.8 18.934c0.589 0 1.066-0.478 1.066-1.066s-0.478-1.066-1.066-1.066c-0.589 0-1.066 0.478-1.066 1.066v0c0 0.589 0.478 1.066 1.066 1.066v0zM22.518 22.378c-0.682 0.554-1.561 0.889-2.518 0.889s-1.835-0.335-2.525-0.894l0.007 0.006c-0.184-0.154-0.422-0.246-0.682-0.246-0.59 0-1.068 0.478-1.068 1.068 0 0.33 0.149 0.624 0.384 0.82l0.002 0.002c1.043 0.876 2.401 1.407 3.882 1.407s2.839-0.532 3.892-1.415l-0.010 0.008c0.236-0.198 0.386-0.492 0.386-0.822 0-0.59-0.478-1.068-1.068-1.068-0.261 0-0.499 0.093-0.684 0.248l0.002-0.002zM20 9.334c-5.891 0-10.666 4.776-10.666 10.666s4.776 10.666 10.666 10.666c5.891 0 10.666-4.776 10.666-10.666v0c0-5.891-4.776-10.666-10.666-10.666v0zM20 28.534c-4.713 0-8.534-3.821-8.534-8.534s3.821-8.534 8.534-8.534c4.713 0 8.534 3.821 8.534 8.534v0c0 4.713-3.821 8.534-8.534 8.534v0zM25.994 16.938c-0.588-0.558-1.385-0.902-2.262-0.902s-1.674 0.343-2.262 0.903l0.002-0.002c-0.159 0.186-0.257 0.428-0.257 0.694 0 0.589 0.478 1.066 1.066 1.066 0.266 0 0.509-0.097 0.695-0.258l-0.002 0.001c0.194-0.195 0.462-0.315 0.758-0.315s0.564 0.121 0.758 0.315v0c0.193 0.192 0.458 0.31 0.752 0.31s0.559-0.118 0.752-0.31v0c0.192-0.193 0.31-0.458 0.31-0.752s-0.118-0.559-0.31-0.752v0z"></path>
</svg>
