<!-- Generated by IcoMoon.io -->
<svg version="1.1" xmlns="http://www.w3.org/2000/svg" width="40" height="40" viewBox="0 0 40 40">
<title>ul-step-backward-alt</title>
<path d="M27.466 10.4c-1.767 0-3.2 1.433-3.2 3.2v0 12.8c0 1.767 1.433 3.2 3.2 3.2s3.2-1.433 3.2-3.2v0-12.8c0-1.767-1.433-3.2-3.2-3.2v0zM28.534 26.4c0 0.589-0.478 1.066-1.066 1.066s-1.066-0.478-1.066-1.066v0-12.8c0-0.589 0.478-1.066 1.066-1.066s1.066 0.478 1.066 1.066v0zM20.672 13.206c-0.403-0.242-0.889-0.384-1.408-0.384s-1.005 0.142-1.421 0.391l0.013-0.007-7.114 4.266c-0.851 0.523-1.41 1.45-1.41 2.506s0.559 1.983 1.397 2.499l0.013 0.007 7.114 4.266c0.402 0.245 0.888 0.39 1.408 0.39s1.006-0.145 1.42-0.396l-0.012 0.007c0.867-0.507 1.444-1.427 1.462-2.483v-8.536c-0.001-1.075-0.582-2.014-1.447-2.521l-0.014-0.007zM20 24.266c0 0.005 0 0.011 0 0.018 0 0.283-0.153 0.53-0.381 0.663l-0.004 0.002c-0.096 0.058-0.212 0.094-0.336 0.094s-0.24-0.034-0.339-0.095l0.003 0.002-7.104-4.266c-0.226-0.146-0.374-0.398-0.374-0.682s0.147-0.536 0.37-0.681l0.003-0.002 7.104-4.266c0.098-0.059 0.215-0.095 0.341-0.096v0c0 0 0 0 0 0 0.122 0 0.235 0.032 0.334 0.087l-0.003-0.002c0.231 0.135 0.385 0.382 0.385 0.666 0 0.010 0 0.019-0.001 0.030v-0.002z"></path>
</svg>
