<!-- Generated by IcoMoon.io -->
<svg version="1.1" xmlns="http://www.w3.org/2000/svg" width="40" height="40" viewBox="0 0 40 40">
<title>ul-silent-squint</title>
<path d="M15.37 20.224c0.193 0.191 0.458 0.31 0.751 0.31 0.002 0 0.004 0 0.006 0v0c0.002 0 0.004 0 0.006 0 0.293 0 0.558-0.118 0.751-0.31l1.6-1.6c0.195-0.194 0.315-0.462 0.315-0.758s-0.121-0.564-0.315-0.758l-1.6-1.6c-0.194-0.194-0.462-0.314-0.758-0.314-0.591 0-1.071 0.479-1.071 1.071 0 0.296 0.12 0.563 0.314 0.758v0l0.854 0.842-0.854 0.842c-0.195 0.194-0.315 0.462-0.315 0.758s0.121 0.564 0.315 0.758v0zM23.37 20.224c0.193 0.191 0.458 0.31 0.751 0.31 0.002 0 0.004 0 0.006 0v0c0.002 0 0.004 0 0.006 0 0.293 0 0.558-0.118 0.751-0.31v0c0.195-0.194 0.315-0.462 0.315-0.758s-0.121-0.564-0.315-0.758l-0.842-0.842 0.842-0.842c0.194-0.194 0.314-0.462 0.314-0.758 0-0.591-0.479-1.071-1.071-1.071-0.296 0-0.563 0.12-0.758 0.314l-1.6 1.6c-0.195 0.194-0.315 0.462-0.315 0.758s0.121 0.564 0.315 0.758v0zM23.488 22.358c-0.176-0.133-0.398-0.214-0.64-0.214s-0.464 0.080-0.642 0.215l0.002-0.002-0.79 0.586-0.778-0.586c-0.176-0.133-0.398-0.214-0.64-0.214s-0.464 0.080-0.642 0.215l0.002-0.002-0.778 0.586-0.79-0.586c-0.176-0.133-0.398-0.214-0.64-0.214s-0.464 0.080-0.642 0.215l0.002-0.002-1.418 1.066c-0.26 0.197-0.426 0.506-0.426 0.854 0 0.589 0.478 1.066 1.066 1.066 0.242 0 0.464-0.080 0.642-0.215l-0.002 0.002 0.778-0.586 0.79 0.586c0.037 0.023 0.079 0.045 0.123 0.062l0.005 0.002c0.068 0.037 0.146 0.066 0.229 0.084l0.006 0.001h0.512c0.134-0.040 0.251-0.098 0.356-0.173l-0.004 0.002 0.778-0.586 0.778 0.586c0.175 0.13 0.395 0.209 0.634 0.209 0.157 0 0.306-0.034 0.439-0.094l-0.006 0.002 0.106-0.054c0.045-0.016 0.084-0.038 0.118-0.065l-0.001 0.001 0.79-0.586 0.778 0.586c0.176 0.133 0.398 0.214 0.64 0.214v0c0.348 0 0.657-0.166 0.851-0.424l0.002-0.002c0.133-0.176 0.214-0.398 0.214-0.64 0-0.348-0.166-0.657-0.424-0.851l-0.002-0.002zM20 9.334c-5.891 0-10.666 4.776-10.666 10.666s4.776 10.666 10.666 10.666c5.891 0 10.666-4.776 10.666-10.666v0c0-5.891-4.776-10.666-10.666-10.666v0zM20 28.534c-4.713 0-8.534-3.821-8.534-8.534s3.821-8.534 8.534-8.534c4.713 0 8.534 3.821 8.534 8.534v0c0 4.713-3.821 8.534-8.534 8.534v0z"></path>
</svg>
