<!-- Generated by IcoMoon.io -->
<svg version="1.1" xmlns="http://www.w3.org/2000/svg" width="40" height="40" viewBox="0 0 40 40">
<title>ul-toilet-paper</title>
<path d="M30.944 28.914c-1.168-1.385-1.878-3.189-1.878-5.158 0-0.026 0-0.052 0-0.078v0.004-7.957c0-3.529-2.393-6.4-5.334-6.4h-9.6c-2.941 0-5.334 2.871-5.334 6.4s2.393 6.4 5.334 6.4h3.2v1.557c0 0.022 0 0.047 0 0.073 0 2.501 0.903 4.791 2.402 6.562l-0.012-0.015c0.197 0.229 0.487 0.373 0.81 0.373h9.6c0.589 0 1.066-0.478 1.066-1.067 0-0.266-0.097-0.508-0.258-0.695l0.001 0.002zM14.134 19.992c-1.765 0-3.2-1.914-3.2-4.266s1.435-4.266 3.2-4.266 3.2 1.914 3.2 4.266-1.435 4.266-3.2 4.266zM21.044 28.541c-0.986-1.324-1.578-2.992-1.578-4.798 0-0.022 0-0.042 0-0.063v0.003-7.466c0-0.030-0.014-0.055-0.017-0.085 0.007-0.134 0.017-0.269 0.017-0.406 0-0.020 0-0.043 0-0.066 0-1.579-0.514-3.039-1.383-4.22l0.014 0.020h5.636c1.765 0 3.2 1.914 3.2 4.266v7.957c0 0.010 0 0.022 0 0.034 0 1.765 0.442 3.426 1.219 4.88l-0.027-0.055zM14.134 14.392c-0.607 0.078-1.073 0.591-1.073 1.214 0 0.042 0.002 0.084 0.006 0.125l-0.001-0.005c-0.004 0.036-0.006 0.078-0.006 0.12 0 0.622 0.465 1.136 1.066 1.213l0.006 0.001c0.607-0.078 1.073-0.591 1.073-1.214 0-0.042-0.002-0.084-0.006-0.125l0.001 0.005c0.004-0.036 0.006-0.078 0.006-0.12 0-0.622-0.465-1.136-1.066-1.213l-0.006-0.001z"></path>
</svg>
