<!-- Generated by IcoMoon.io -->
<svg version="1.1" xmlns="http://www.w3.org/2000/svg" width="40" height="40" viewBox="0 0 40 40">
<title>ul-table-tennis</title>
<path d="M29.29 24.374l-1.75-1.75c-0.198-0.184-0.321-0.445-0.321-0.735 0-0.147 0.032-0.286 0.089-0.413l-0.002 0.006c0.356-0.747 0.568-1.622 0.576-2.546v-0.003c0.002-0.016 0.004-0.034 0.004-0.054s-0.002-0.038-0.004-0.055v0.002c0-0.006 0-0.011 0-0.018 0-1.33-0.424-2.56-1.143-3.563l0.013 0.018c-1.432-1.985-3.282-3.579-5.429-4.675l-0.086-0.040c-0.958-0.48-2.088-0.761-3.283-0.761-2.047 0-3.902 0.824-5.251 2.158l-0.714 0.714c-1.344 1.35-2.175 3.212-2.175 5.268 0 1.209 0.287 2.351 0.798 3.362l-0.019-0.042 0.106 0.182c-0.549 0.569-0.89 1.343-0.896 2.196v0.002c0.014 1.757 1.441 3.176 3.2 3.176 0.615 0 1.19-0.174 1.678-0.474l-0.014 0.008c0.192 0.15 0.362 0.31 0.554 0.448 0.375 0.264 0.804 0.494 1.261 0.669l0.041 0.014h0.096c0.192 0.074 0.394 0.138 0.608 0.202h0.16c0.296 0.079 0.642 0.137 0.998 0.159l0.016 0.001h0.662c0.224 0 0.438 0 0.662-0.064h0.182c0.569-0.099 1.077-0.266 1.55-0.495l-0.034 0.015c0.118-0.049 0.255-0.078 0.398-0.078 0.289 0 0.551 0.115 0.743 0.302l1.557 1.557c0.652 0.654 1.553 1.061 2.548 1.066h0.001c0.836-0.010 1.589-0.354 2.133-0.906l0.406-0.406c0.582-0.58 0.942-1.382 0.942-2.268 0-0.843-0.326-1.61-0.859-2.182l0.002 0.002zM12.97 24.714c-0.589 0-1.066-0.478-1.066-1.066s0.478-1.066 1.066-1.066c0.589 0 1.066 0.478 1.066 1.066v0c0 0.589-0.478 1.066-1.066 1.066v0zM16.278 24.864l-0.278-0.214c0.106-0.298 0.169-0.643 0.17-1.002v-0.001c0-1.767-1.433-3.2-3.2-3.2v0c-0.138 0-0.266 0-0.406 0l-0.096-0.17c-0.352-0.692-0.558-1.51-0.558-2.374 0-1.466 0.592-2.795 1.55-3.759l0.714-0.714c0.957-0.918 2.258-1.483 3.69-1.483 0.888 0 1.726 0.217 2.462 0.601l-0.030-0.014c1.827 0.926 3.348 2.212 4.52 3.775l0.024 0.033zM27.776 27.392l-0.394 0.406c-0.448 0.448-1.142 0.362-1.718-0.214l-1.558-1.546c-0.578-0.574-1.375-0.93-2.255-0.93-0.474 0-0.923 0.103-1.327 0.287l0.020-0.008c-0.31 0.155-0.669 0.271-1.046 0.328l-0.020 0.002c-0.171 0.034-0.367 0.054-0.568 0.054-0.018 0-0.035 0-0.053-0.001h-0.467l7.328-7.328c0.014 0.123 0.021 0.267 0.021 0.412 0 0.625-0.142 1.217-0.394 1.746l0.010-0.025c-0.176 0.384-0.279 0.834-0.279 1.307 0 0.88 0.355 1.677 0.93 2.255v0l1.75 1.76c0.195 0.194 0.316 0.462 0.316 0.758 0 0.286-0.112 0.545-0.295 0.736l0.001-0.001z"></path>
</svg>
