<!-- Generated by IcoMoon.io -->
<svg version="1.1" xmlns="http://www.w3.org/2000/svg" width="40" height="40" viewBox="0 0 40 40">
<title>ul-tablet</title>
<path d="M25.334 9.334h-10.666c-1.767 0-3.2 1.433-3.2 3.2v0 14.934c0 1.767 1.433 3.2 3.2 3.2v0h10.666c1.767 0 3.2-1.433 3.2-3.2v0-14.934c0-1.767-1.433-3.2-3.2-3.2v0zM26.4 27.466c0 0.589-0.478 1.066-1.066 1.066v0h-10.666c-0.589 0-1.066-0.478-1.066-1.066v0-14.934c0-0.589 0.478-1.066 1.066-1.066v0h10.666c0.589 0 1.066 0.478 1.066 1.066v0zM20.758 24.576c-0.194-0.202-0.467-0.329-0.77-0.329-0.071 0-0.141 0.007-0.207 0.020l0.006-0.001-0.192 0.064c-0.074 0.026-0.137 0.058-0.194 0.098l0.002-0.002-0.16 0.128c-0.094 0.098-0.17 0.215-0.222 0.345l-0.002 0.007c-0.053 0.122-0.083 0.264-0.083 0.414 0 0.292 0.118 0.557 0.307 0.75v0c0.102 0.090 0.218 0.169 0.343 0.23l0.009 0.004c0.12 0.050 0.259 0.080 0.406 0.080 0.296 0 0.563-0.121 0.757-0.315v0c0.188-0.189 0.305-0.449 0.31-0.735v-0.001c0-0.007 0-0.015 0-0.023 0-0.139-0.031-0.27-0.088-0.388l0.002 0.006c-0.058-0.135-0.133-0.252-0.225-0.353l0.001 0.001z"></path>
</svg>
