<!-- Generated by IcoMoon.io -->
<svg version="1.1" xmlns="http://www.w3.org/2000/svg" width="40" height="40" viewBox="0 0 40 40">
<title>ul-times-circle</title>
<path d="M23.958 16.042c-0.194-0.195-0.462-0.315-0.758-0.315s-0.564 0.121-0.758 0.315v0l-2.442 2.454-2.442-2.454c-0.194-0.194-0.462-0.314-0.758-0.314-0.591 0-1.071 0.479-1.071 1.071 0 0.296 0.12 0.563 0.314 0.758v0l2.454 2.442-2.454 2.442c-0.195 0.194-0.315 0.462-0.315 0.758s0.121 0.564 0.315 0.758v0c0.194 0.195 0.462 0.315 0.758 0.315s0.564-0.121 0.758-0.315v0l2.442-2.454 2.442 2.454c0.194 0.195 0.462 0.315 0.758 0.315s0.564-0.121 0.758-0.315v0c0.195-0.194 0.315-0.462 0.315-0.758s-0.121-0.564-0.315-0.758v0l-2.454-2.442 2.454-2.442c0.195-0.194 0.315-0.462 0.315-0.758s-0.121-0.564-0.315-0.758v0zM27.542 12.458c-1.942-2.009-4.662-3.257-7.673-3.257-5.891 0-10.666 4.776-10.666 10.666 0 3.010 1.247 5.73 3.254 7.67l0.003 0.003c1.942 2.009 4.662 3.257 7.673 3.257 5.891 0 10.666-4.776 10.666-10.666 0-3.010-1.247-5.73-3.254-7.67l-0.003-0.003zM26.038 26.038c-1.545 1.546-3.679 2.502-6.038 2.502-4.713 0-8.534-3.821-8.534-8.534s3.821-8.534 8.534-8.534c4.71 0 8.53 3.817 8.534 8.526v0c0 0.009 0 0.018 0 0.029 0 2.348-0.954 4.473-2.496 6.008v0z"></path>
</svg>
