<!-- Generated by IcoMoon.io -->
<svg version="1.1" xmlns="http://www.w3.org/2000/svg" width="40" height="40" viewBox="0 0 40 40">
<title>ul-telegram</title>
<path d="M19.994 9.334c-5.891 0-10.666 4.776-10.666 10.666s4.776 10.666 10.666 10.666c5.891 0 10.666-4.776 10.666-10.666v0c0 0 0-0.001 0-0.001 0-5.89-4.775-10.666-10.666-10.666 0 0-0.001 0-0.001 0v0zM23.386 25.496c-0.114 0.279-0.384 0.473-0.698 0.473-0.136 0-0.264-0.036-0.374-0.099l0.004 0.002-2.896-2.25-1.858 1.714c-0.053 0.039-0.118 0.062-0.19 0.062-0.041 0-0.080-0.008-0.116-0.022l0.002 0.001 0.356-3.188 0.011 0.009 0.007-0.063s5.21-4.744 5.423-4.946c0.215-0.202 0.144-0.246 0.144-0.246 0.012-0.246-0.386 0-0.386 0l-6.904 4.442-2.875-0.979s-0.442-0.158-0.483-0.506c-0.044-0.346 0.498-0.534 0.498-0.534l11.431-4.542s0.94-0.418 0.94 0.274z"></path>
</svg>
