<!-- Generated by IcoMoon.io -->
<svg version="1.1" xmlns="http://www.w3.org/2000/svg" width="40" height="40" viewBox="0 0 40 40">
<title>ul-tachometer-fast</title>
<path d="M23.51 18.176l-2.966 2.966c-0.162-0.045-0.35-0.072-0.542-0.074h-0.002c-1.178 0-2.134 0.955-2.134 2.134v0c0.002 0.194 0.030 0.382 0.078 0.56l-0.004-0.016-0.832 0.832c-0.195 0.194-0.315 0.462-0.315 0.758s0.121 0.564 0.315 0.758v0c0.194 0.195 0.462 0.315 0.758 0.315s0.564-0.121 0.758-0.315l0.832-0.832c0.162 0.045 0.35 0.072 0.542 0.074h0.002c1.178 0 2.134-0.955 2.134-2.134v0c-0.002-0.194-0.030-0.382-0.078-0.56l0.004 0.016 2.966-2.966c0.194-0.194 0.314-0.462 0.314-0.758 0-0.591-0.479-1.071-1.071-1.071-0.296 0-0.563 0.12-0.758 0.314v0zM20 11.466c-5.891 0-10.666 4.776-10.666 10.666v0c0 0.008 0 0.017 0 0.026 0 2.202 0.674 4.248 1.826 5.941l-0.023-0.037c0.194 0.286 0.518 0.47 0.886 0.47 0.59 0 1.068-0.478 1.068-1.068 0-0.223-0.068-0.43-0.185-0.601l0.002 0.004c-0.902-1.332-1.44-2.975-1.44-4.744 0-4.713 3.821-8.534 8.534-8.534s8.534 3.821 8.534 8.534c0 1.769-0.538 3.411-1.459 4.774l0.019-0.030c-0.114 0.167-0.183 0.374-0.183 0.598 0 0.367 0.186 0.69 0.467 0.882l0.004 0.002c0.167 0.114 0.373 0.182 0.595 0.182 0.001 0 0.002 0 0.002 0v0c0.001 0 0.001 0 0.002 0 0.366 0 0.69-0.185 0.882-0.466l0.002-0.004c1.129-1.657 1.802-3.702 1.802-5.904 0-0.010 0-0.018 0-0.028v0.002c0-5.891-4.776-10.666-10.666-10.666v0z"></path>
</svg>
