<!-- Generated by IcoMoon.io -->
<svg version="1.1" xmlns="http://www.w3.org/2000/svg" width="40" height="40" viewBox="0 0 40 40">
<title>ul-text-fields</title>
<path d="M24.266 13.6c0-0.589-0.478-1.066-1.066-1.066v0h-12.8c-0.589 0-1.066 0.478-1.066 1.066s0.478 1.066 1.066 1.066v0h5.334v11.734c0 0.589 0.478 1.066 1.066 1.066s1.066-0.478 1.066-1.066v0-11.734h5.334c0.589 0 1.066-0.478 1.066-1.066v0zM29.6 18.934h-6.4c-0.589 0-1.066 0.478-1.066 1.066s0.478 1.066 1.066 1.066v0h2.134v5.334c0 0.589 0.478 1.066 1.066 1.066s1.066-0.478 1.066-1.066v0-5.334h2.134c0.589 0 1.066-0.478 1.066-1.066s-0.478-1.066-1.066-1.066v0z"></path>
</svg>
