<!-- Generated by IcoMoon.io -->
<svg version="1.1" xmlns="http://www.w3.org/2000/svg" width="40" height="40" viewBox="0 0 40 40">
<title>ul-trowel</title>
<path d="M29.728 10.272c-0.588-0.558-1.385-0.902-2.262-0.902s-1.674 0.343-2.262 0.903l0.002-0.002-2.582 2.57c-0.571 0.578-0.925 1.373-0.925 2.25 0 0.505 0.117 0.982 0.325 1.406l-0.008-0.019-2.294 2.294-2.134-2.134c-0.582-0.595-1.393-0.964-2.29-0.964-1.414 0-2.614 0.918-3.038 2.19l-0.006 0.022-2.838 8.534c-0.105 0.303-0.166 0.652-0.166 1.016 0 0.882 0.357 1.68 0.934 2.259v0c0.582 0.599 1.396 0.971 2.296 0.971 0.018 0 0.035 0 0.054-0.001h-0.002c0.017 0 0.037 0.001 0.058 0.001 0.362 0 0.709-0.062 1.030-0.178l-0.022 0.006 8.534-2.838c1.295-0.43 2.212-1.63 2.212-3.044 0-0.897-0.369-1.708-0.964-2.289l-2.134-2.134 2.294-2.294c0.406 0.2 0.883 0.317 1.387 0.317 0.878 0 1.672-0.353 2.25-0.925v0l2.57-2.582c0.547-0.573 0.883-1.351 0.883-2.207 0-0.867-0.345-1.654-0.906-2.23l0.001 0.001zM21.814 23.872c0.189 0.192 0.306 0.456 0.306 0.747 0 0.47-0.303 0.868-0.725 1.010l-0.007 0.002-8.512 2.902c-0.094 0.030-0.201 0.046-0.312 0.046-0.295 0-0.562-0.12-0.755-0.313v0c-0.194-0.193-0.313-0.46-0.313-0.755 0-0.111 0.017-0.218 0.049-0.319l-0.002 0.007 2.848-8.534c0.086-0.386 0.37-0.689 0.739-0.798l0.007-0.002c0.037-0.004 0.079-0.006 0.122-0.006s0.086 0.002 0.128 0.007l-0.005-0.001c0.291 0.002 0.555 0.119 0.746 0.31l2.134 2.134-0.928 0.918c-0.195 0.194-0.315 0.462-0.315 0.758s0.121 0.564 0.315 0.758v0c0.194 0.195 0.462 0.315 0.758 0.315s0.564-0.121 0.758-0.315v0l0.918-0.928zM28.214 13.29l-2.57 2.57c-0.192 0.189-0.456 0.305-0.746 0.305-0.587 0-1.064-0.475-1.066-1.062v0c0.002-0.291 0.119-0.555 0.31-0.746v0l2.57-2.582c0.194-0.195 0.462-0.315 0.758-0.315s0.564 0.121 0.758 0.315v0c0.195 0.194 0.315 0.462 0.315 0.758s-0.121 0.564-0.315 0.758v0z"></path>
</svg>
