<!-- Generated by IcoMoon.io -->
<svg version="1.1" xmlns="http://www.w3.org/2000/svg" width="40" height="40" viewBox="0 0 40 40">
<title>ul-umbrella</title>
<path d="M29.6 19.19s0 0 0 0c-0.002-0.013-0.004-0.027-0.004-0.042s0.002-0.030 0.004-0.044v0.002-0.202c0-0.246-0.064-0.49-0.106-0.736-0.003-0.026-0.005-0.055-0.005-0.086s0.002-0.060 0.005-0.089v0.003c-0.054-0.266-0.128-0.522-0.202-0.778v0c-0.948-2.995-3.258-5.308-6.183-6.242l-0.067-0.018h-0.086c-0.234-0.074-0.48-0.138-0.726-0.192h-0.192c-0.161-0.034-0.361-0.065-0.565-0.084l-0.022-0.002h-0.256v-0.278c0-0.589-0.478-1.066-1.066-1.066s-1.066 0.478-1.066 1.066v0 0.064c-0.414 0.050-0.776 0.118-1.13 0.206l0.064-0.014c-0.259 0.049-0.481 0.108-0.697 0.181l0.035-0.010h-0.138c-0.266 0.086-0.512 0.182-0.768 0.278v0c-2.663 1.074-4.692 3.24-5.56 5.927l-0.019 0.067c-0.002 0.013-0.002 0.028-0.002 0.042s0.001 0.030 0.003 0.044v-0.002c-0.070 0.203-0.14 0.461-0.195 0.724l-0.008 0.044v0.17q-0.086 0.384-0.128 0.8s0 0.074 0 0.118 0 0.064 0 0.096 0 0 0 0.054c0 0.266 0 0.534 0 0.81 0 0.589 0.478 1.066 1.066 1.066v0h7.466v6.4c0 0.589-0.478 1.066-1.066 1.066s-1.066-0.478-1.066-1.066v0c0-0.589-0.478-1.066-1.066-1.066s-1.066 0.478-1.066 1.066v0c0 1.767 1.433 3.2 3.2 3.2s3.2-1.433 3.2-3.2v0-6.4h7.466c0.589 0 1.066-0.478 1.066-1.066v0c-0.118-0.278-0.118-0.544-0.118-0.81zM15.734 18.934h-3.114s0-0.074 0-0.118 0-0.298 0.086-0.438 0-0.138 0-0.202 0.086-0.342 0.138-0.512v-0.086c0.709-1.97 2.165-3.522 4.016-4.344l0.048-0.019c-0.682 1.689-1.106 3.644-1.173 5.69l-0.001 0.027zM17.866 18.934c0.202-4.17 1.536-6.4 2.134-6.4s1.91 2.23 2.134 6.4zM24.266 18.934c-0.067-2.074-0.492-4.029-1.214-5.833l0.041 0.116c1.87 0.865 3.296 2.426 3.963 4.342l0.016 0.053c0.055 0.15 0.11 0.339 0.154 0.533l0.006 0.033c-0.002 0.024-0.004 0.052-0.004 0.080s0.002 0.056 0.004 0.083v-0.003c0 0.15 0.064 0.31 0.086 0.458s0 0.074 0 0.118z"></path>
</svg>
