<!-- Generated by IcoMoon.io -->
<svg version="1.1" xmlns="http://www.w3.org/2000/svg" width="40" height="40" viewBox="0 0 40 40">
<title>ul-unlock</title>
<path d="M25.334 16.8h-8.534v-2.134c0-0.002 0-0.005 0-0.008 0-1.767 1.433-3.2 3.2-3.2 0.883 0 1.682 0.358 2.262 0.936v0c0.39 0.398 0.679 0.894 0.827 1.449l0.005 0.023c0.122 0.465 0.539 0.802 1.034 0.802 0.59 0 1.069-0.478 1.069-1.069 0-0.094-0.012-0.186-0.035-0.274l0.002 0.007c-0.258-0.96-0.744-1.785-1.398-2.443v0c-0.965-0.962-2.295-1.556-3.766-1.556-2.945 0-5.333 2.387-5.334 5.332v2.134c-1.767 0-3.2 1.433-3.2 3.2v0 7.466c0 1.767 1.433 3.2 3.2 3.2v0h10.666c1.767 0 3.2-1.433 3.2-3.2v0-7.466c0-1.767-1.433-3.2-3.2-3.2v0zM26.4 27.466c0 0.589-0.478 1.066-1.066 1.066v0h-10.666c-0.589 0-1.066-0.478-1.066-1.066v0-7.466c0-0.589 0.478-1.066 1.066-1.066v0h10.666c0.589 0 1.066 0.478 1.066 1.066v0z"></path>
</svg>
