<!-- Generated by IcoMoon.io -->
<svg version="1.1" xmlns="http://www.w3.org/2000/svg" width="40" height="40" viewBox="0 0 40 40">
<title>ul-underline</title>
<path d="M20 23.734c2.946 0 5.334-2.388 5.334-5.334v0-5.334c0-0.589-0.478-1.066-1.066-1.066s-1.066 0.478-1.066 1.066v0 5.334c0 1.767-1.433 3.2-3.2 3.2s-3.2-1.433-3.2-3.2v0-5.334c0-0.589-0.478-1.066-1.066-1.066s-1.066 0.478-1.066 1.066v0 5.334c0 2.946 2.388 5.334 5.334 5.334v0zM25.334 25.866h-10.666c-0.589 0-1.066 0.478-1.066 1.066s0.478 1.066 1.066 1.066v0h10.666c0.589 0 1.066-0.478 1.066-1.066s-0.478-1.066-1.066-1.066v0z"></path>
</svg>
