<!-- Generated by IcoMoon.io -->
<svg version="1.1" xmlns="http://www.w3.org/2000/svg" width="40" height="40" viewBox="0 0 40 40">
<title>ul-user-nurse</title>
<path d="M24.453 20.978c-0.019-0.009-0.038-0.018-0.058-0.026-0.147-0.066-0.292-0.135-0.442-0.195 1.496-1.182 2.447-2.997 2.447-5.034 0-3.534-2.866-6.4-6.4-6.4s-6.4 2.866-6.4 6.4c0 2.037 0.951 3.851 2.434 5.023l0.014 0.010c-0.15 0.060-0.295 0.129-0.442 0.195-0.020 0.007-0.038 0.017-0.058 0.026-3.349 1.554-5.72 4.711-6.139 8.459l-0.004 0.048c-0.004 0.034-0.006 0.075-0.006 0.116 0 0.589 0.478 1.066 1.066 1.066 0.549 0 1-0.414 1.060-0.946l0.001-0.005c0.31-2.782 1.926-5.128 4.212-6.441l0.042-0.022 3.468 3.468c0.193 0.193 0.46 0.313 0.754 0.313s0.561-0.119 0.754-0.313l3.468-3.468c2.327 1.334 3.943 3.682 4.25 6.424l0.003 0.038c0.060 0.537 0.511 0.95 1.058 0.951v0c0.042 0 0.082-0.002 0.122-0.006l-0.005 0.001c0.538-0.060 0.951-0.512 0.951-1.061 0-0.041-0.002-0.081-0.006-0.121l0.001 0.005c-0.424-3.795-2.795-6.953-6.078-8.48l-0.066-0.027zM15.777 15.301c0.215-2.161 2.024-3.834 4.223-3.834s4.008 1.674 4.222 3.816l0.002 0.018zM20 24.459l-2.066-2.066c0.62-0.165 1.332-0.259 2.066-0.259s1.446 0.094 2.124 0.273l-0.058-0.013zM20 20c-1.739-0.003-3.234-1.046-3.898-2.539l-0.010-0.027h7.817c-0.674 1.521-2.169 2.563-3.908 2.566v0z"></path>
</svg>
