<!-- Generated by IcoMoon.io -->
<svg version="1.1" xmlns="http://www.w3.org/2000/svg" width="40" height="40" viewBox="0 0 40 40">
<title>ul-user-check</title>
<path d="M21.386 20.234c1.114-0.968 1.814-2.386 1.814-3.968 0 0 0 0 0 0v0c0-2.946-2.388-5.334-5.334-5.334s-5.334 2.388-5.334 5.334v0c0 0 0 0 0 0 0 1.582 0.7 3 1.807 3.962l0.006 0.006c-2.978 1.373-5.010 4.331-5.014 7.765v0.001c0 0.589 0.478 1.066 1.066 1.066s1.066-0.478 1.066-1.066v0c0-3.534 2.866-6.4 6.4-6.4s6.4 2.866 6.4 6.4v0c0 0.589 0.478 1.066 1.066 1.066s1.066-0.478 1.066-1.066v0c-0.003-3.434-2.034-6.393-4.961-7.743l-0.053-0.022zM17.866 19.466c-1.767 0-3.2-1.433-3.2-3.2s1.433-3.2 3.2-3.2c1.767 0 3.2 1.433 3.2 3.2v0c0 1.767-1.433 3.2-3.2 3.2v0zM30.358 16.938c-0.194-0.195-0.462-0.315-0.758-0.315s-0.564 0.121-0.758 0.315l-2.134 2.134-0.662-0.672c-0.194-0.195-0.462-0.315-0.758-0.315s-0.564 0.121-0.758 0.315v0c-0.192 0.193-0.31 0.458-0.31 0.752s0.118 0.559 0.31 0.752l1.43 1.43c0.193 0.192 0.458 0.31 0.752 0.31s0.559-0.118 0.752-0.31l2.848-2.848c0.218-0.196 0.354-0.479 0.354-0.794 0-0.294-0.119-0.56-0.311-0.753v0z"></path>
</svg>
