<!-- Generated by IcoMoon.io -->
<svg version="1.1" xmlns="http://www.w3.org/2000/svg" width="40" height="40" viewBox="0 0 40 40">
<title>ul-vk-alt</title>
<path d="M23.994 21.631c-0.308-0.333-0.65-0.626-1.022-0.878l-0.021-0.013c1.506-1.172 2.592-2.818 3.038-4.713l0.011-0.057c0.018-0.073 0.028-0.157 0.028-0.243 0-0.589-0.478-1.066-1.066-1.066-0.507 0-0.932 0.354-1.040 0.83l-0.002 0.007c-0.426 1.825-1.607 3.314-3.188 4.146l-0.034 0.017v-3.924c-0.007-0.085-0.024-0.163-0.049-0.238l0.002 0.007c-0.008-0.069-0.021-0.13-0.038-0.19l0.002 0.008c-0.048-0.102-0.108-0.19-0.178-0.266l0.001 0.001c-0.019-0.022-0.029-0.053-0.050-0.074-0.075-0.070-0.162-0.13-0.256-0.175l-0.006-0.002c-0.027-0.014-0.047-0.039-0.076-0.051-0.074-0.026-0.159-0.044-0.248-0.051h-0.004c-0.046-0.014-0.101-0.026-0.157-0.033l-0.005-0.001-0.701-0.002c-0.002 0-0.003 0-0.005 0-0.586 0-1.062 0.475-1.062 1.062 0 0.454 0.285 0.842 0.686 0.994l0.007 0.002v5.217c-1.638-1.698-2.782-3.881-3.2-6.312l-0.010-0.071c-0.088-0.507-0.526-0.889-1.051-0.889-0.589 0-1.066 0.478-1.066 1.066 0 0.063 0.006 0.125 0.016 0.185l-0.001-0.006c0.658 3.822 2.762 7.060 5.718 9.191l0.042 0.029c0.038 0.023 0.083 0.046 0.13 0.066l0.007 0.002c0.031 0.019 0.070 0.038 0.108 0.055l0.006 0.002c0.11 0.046 0.238 0.073 0.373 0.075h0.001c0.165-0.002 0.32-0.042 0.458-0.111l-0.006 0.002c0.010-0.005 0.023-0.002 0.034-0.008 0.098-0.052 0.182-0.114 0.256-0.187v0c0.015-0.014 0.026-0.033 0.040-0.049 0.066-0.073 0.123-0.156 0.168-0.246l0.002-0.006c0.015-0.030 0.028-0.060 0.040-0.092 0.045-0.109 0.072-0.236 0.074-0.369v-0.001l0.001-2.268c0.684 0.205 1.266 0.577 1.72 1.069l1.76 1.919c0.196 0.214 0.476 0.347 0.787 0.347 0.589 0 1.066-0.478 1.066-1.066 0-0.279-0.107-0.534-0.283-0.723l0.001 0.001zM23.278 8.266h-6.544c-6.568 0-8.466 1.897-8.466 8.455v6.545c0 6.568 1.896 8.466 8.456 8.466h6.544c6.568 0 8.466-1.897 8.466-8.455v-6.545c0-6.568-1.896-8.466-8.456-8.466zM29.6 23.278c0 5.376-0.947 6.322-6.334 6.322h-6.544c-5.377 0-6.322-0.947-6.322-6.334v-6.545c0-5.376 0.947-6.322 6.334-6.322h6.544c5.377 0 6.322 0.947 6.322 6.334z"></path>
</svg>
