<!-- Generated by IcoMoon.io -->
<svg version="1.1" xmlns="http://www.w3.org/2000/svg" width="40" height="40" viewBox="0 0 40 40">
<title>ul-vertical-align-center</title>
<path d="M29.6 18.934h-3.2v-5.334c0-0.589-0.478-1.066-1.066-1.066v0h-3.2v-2.134c0-0.589-0.478-1.066-1.066-1.066v0h-6.4c-0.589 0-1.066 0.478-1.066 1.066v0 8.534h-3.2c-0.589 0-1.066 0.478-1.066 1.066s0.478 1.066 1.066 1.066v0h3.2v8.534c0 0.589 0.478 1.066 1.066 1.066v0h6.4c0.589 0 1.066-0.478 1.066-1.066v0-2.134h3.2c0.589 0 1.066-0.478 1.066-1.066v0-5.334h3.2c0.589 0 1.066-0.478 1.066-1.066s-0.478-1.066-1.066-1.066v0zM20 28.534h-4.266v-17.066h4.266zM24.266 25.334h-2.134v-10.666h2.134z"></path>
</svg>
