<!-- Generated by IcoMoon.io -->
<svg version="1.1" xmlns="http://www.w3.org/2000/svg" width="40" height="40" viewBox="0 0 40 40">
<title>ul-vector-square</title>
<path d="M28.534 24.458v-8.918c1.261-0.449 2.147-1.632 2.147-3.022 0-1.767-1.433-3.2-3.2-3.2-1.39 0-2.573 0.886-3.015 2.125l-0.007 0.022h-8.918c-0.449-1.261-1.632-2.147-3.022-2.147-1.767 0-3.2 1.433-3.2 3.2 0 1.39 0.886 2.573 2.125 3.015l0.022 0.007v8.918c-1.261 0.449-2.147 1.632-2.147 3.022 0 1.767 1.433 3.2 3.2 3.2 1.39 0 2.573-0.886 3.015-2.125l0.007-0.022h8.918c0.449 1.261 1.632 2.147 3.022 2.147 1.767 0 3.2-1.433 3.2-3.2 0-1.39-0.886-2.573-2.125-3.015l-0.022-0.007zM27.466 11.466c0.589 0 1.066 0.478 1.066 1.066s-0.478 1.066-1.066 1.066c-0.589 0-1.066-0.478-1.066-1.066v0c0-0.589 0.478-1.066 1.066-1.066v0zM12.534 11.466c0.589 0 1.066 0.478 1.066 1.066s-0.478 1.066-1.066 1.066c-0.589 0-1.066-0.478-1.066-1.066v0c0-0.589 0.478-1.066 1.066-1.066v0zM12.534 28.534c-0.589 0-1.066-0.478-1.066-1.066s0.478-1.066 1.066-1.066c0.589 0 1.066 0.478 1.066 1.066v0c0 0.589-0.478 1.066-1.066 1.066v0zM24.458 26.4h-8.918c-0.33-0.908-1.033-1.611-1.919-1.934l-0.022-0.007v-8.918c0.908-0.33 1.611-1.033 1.934-1.919l0.007-0.022h8.918c0.33 0.908 1.033 1.611 1.919 1.934l0.022 0.007v8.918c-0.908 0.33-1.611 1.033-1.934 1.919l-0.007 0.022zM27.466 28.534c-0.589 0-1.066-0.478-1.066-1.066s0.478-1.066 1.066-1.066c0.589 0 1.066 0.478 1.066 1.066v0c0 0.589-0.478 1.066-1.066 1.066v0z"></path>
</svg>
