<!-- Generated by IcoMoon.io -->
<svg version="1.1" xmlns="http://www.w3.org/2000/svg" width="40" height="40" viewBox="0 0 40 40">
<title>ul-water-drop-slash</title>
<path d="M30.358 28.842l-19.2-19.2c-0.194-0.194-0.462-0.314-0.758-0.314-0.591 0-1.071 0.479-1.071 1.071 0 0.296 0.12 0.563 0.314 0.758v0l4.266 4.266c-1.3 1.98-2.090 4.398-2.133 6.997v0.011c0.024 4.534 3.69 8.205 8.221 8.234h0.003c0.010 0 0.023 0 0.036 0 2.491 0 4.721-1.118 6.216-2.879l0.010-0.012 2.582 2.582c0.194 0.195 0.462 0.315 0.758 0.315s0.564-0.121 0.758-0.315v0c0.195-0.194 0.315-0.462 0.315-0.758s-0.121-0.564-0.315-0.758v0zM20 28.534c-3.385-0.006-6.127-2.749-6.134-6.133v-0.001c0.040-2.018 0.618-3.894 1.595-5.499l-0.027 0.049 9.322 9.312c-1.118 1.39-2.818 2.272-4.725 2.272-0.011 0-0.023 0-0.034 0h0.002zM18.774 12.79c0.48-0.448 0.906-0.8 1.226-1.066 1.526 1.194 5.472 4.726 6.058 9.472 0.066 0.531 0.515 0.938 1.059 0.938 0.002 0 0.006 0 0.008 0h0.127c0.53-0.067 0.935-0.516 0.935-1.058 0-0.044-0.002-0.088-0.008-0.13l0.001 0.005c-0.832-6.858-7.306-11.254-7.574-11.434-0.167-0.114-0.374-0.183-0.598-0.183s-0.43 0.068-0.601 0.186l0.004-0.002c-0.777 0.558-1.458 1.121-2.101 1.726l0.010-0.009c-0.178 0.19-0.288 0.446-0.288 0.729 0 0.589 0.478 1.066 1.066 1.066 0.255 0 0.49-0.090 0.674-0.24l-0.002 0.002z"></path>
</svg>
