<!-- Generated by IcoMoon.io -->
<svg version="1.1" xmlns="http://www.w3.org/2000/svg" width="40" height="40" viewBox="0 0 40 40">
<title>ul-wind</title>
<path d="M10.934 16.8c0.589 0 1.066-0.478 1.066-1.066s-0.478-1.066-1.066-1.066c-0.589 0-1.066 0.478-1.066 1.066v0c0 0.589 0.478 1.066 1.066 1.066v0zM15.2 16.8h7.466c1.767 0 3.2-1.433 3.2-3.2s-1.433-3.2-3.2-3.2v0c-0.589 0.002-1.14 0.161-1.616 0.435l0.016-0.009c-0.324 0.187-0.538 0.532-0.538 0.926 0 0.197 0.054 0.382 0.146 0.54l-0.002-0.005c0.188 0.319 0.53 0.53 0.922 0.53 0.199 0 0.385-0.054 0.544-0.149l-0.005 0.002c0.154-0.085 0.338-0.136 0.533-0.138h0.001c0.589 0 1.066 0.478 1.066 1.066s-0.478 1.066-1.066 1.066v0h-7.466c-0.589 0-1.066 0.478-1.066 1.066s0.478 1.066 1.066 1.066v0zM10.934 21.066h7.466c0.589 0 1.066-0.478 1.066-1.066s-0.478-1.066-1.066-1.066v0h-7.466c-0.589 0-1.066 0.478-1.066 1.066s0.478 1.066 1.066 1.066v0zM29.066 16.8c0.589 0 1.066-0.478 1.066-1.066s-0.478-1.066-1.066-1.066c-0.589 0-1.066 0.478-1.066 1.066v0c0 0.589 0.478 1.066 1.066 1.066v0zM26.934 18.934h-4.266c-0.589 0-1.066 0.478-1.066 1.066s0.478 1.066 1.066 1.066v0h4.266c0.589 0 1.066 0.478 1.066 1.066s-0.478 1.066-1.066 1.066v0c-0.589 0-1.066 0.478-1.066 1.066s0.478 1.066 1.066 1.066v0c1.767 0 3.2-1.433 3.2-3.2s-1.433-3.2-3.2-3.2v0zM20.534 23.2h-4.266c-0.589 0-1.066 0.478-1.066 1.066s0.478 1.066 1.066 1.066v0h4.266c0.589 0 1.066 0.478 1.066 1.066s-0.478 1.066-1.066 1.066v0c-0.196-0.003-0.379-0.054-0.539-0.142l0.006 0.003c-0.162-0.105-0.36-0.166-0.572-0.166-0.589 0-1.066 0.478-1.066 1.066 0 0.408 0.23 0.763 0.566 0.942l0.006 0.003c0.46 0.266 1.011 0.424 1.599 0.426h0.001c1.767 0 3.2-1.433 3.2-3.2s-1.433-3.2-3.2-3.2v0zM12 23.2h-1.066c-0.589 0-1.066 0.478-1.066 1.066s0.478 1.066 1.066 1.066v0h1.066c0.589 0 1.066-0.478 1.066-1.066s-0.478-1.066-1.066-1.066v0z"></path>
</svg>
