<!-- Generated by IcoMoon.io -->
<svg version="1.1" xmlns="http://www.w3.org/2000/svg" width="40" height="40" viewBox="0 0 40 40">
<title>ul-yin-yang</title>
<path d="M20 23.734c-0.589 0-1.066 0.478-1.066 1.066s0.478 1.066 1.066 1.066c0.589 0 1.066-0.478 1.066-1.066v0c0-0.589-0.478-1.066-1.066-1.066v0zM20 9.334c0 0 0 0 0 0-0.211 0-0.419 0.011-0.625 0.033l0.026-0.002c-5.626 0.322-10.067 4.965-10.067 10.643 0 5.887 4.773 10.66 10.66 10.66 0.002 0 0.005 0 0.007 0h-0.001c0 0 0 0 0 0 0.211 0 0.419-0.011 0.625-0.033l-0.026 0.002c5.626-0.322 10.067-4.965 10.067-10.643 0-5.887-4.773-10.66-10.66-10.66-0.002 0-0.005 0-0.007 0h0.001zM20 28.534c-0.003 0-0.008 0-0.012 0-4.706 0-8.522-3.815-8.522-8.522 0-2.543 1.114-4.826 2.881-6.387l0.009-0.008c-0.142 0.48-0.223 1.030-0.223 1.601 0 3.23 2.619 5.85 5.85 5.85 0.006 0 0.012 0 0.018 0h-0.001c2.062 0 3.734 1.671 3.734 3.734s-1.671 3.734-3.734 3.734v0zM25.643 26.383c0.142-0.48 0.223-1.030 0.223-1.601 0-3.23-2.619-5.85-5.85-5.85-0.006 0-0.012 0-0.018 0h0.001c-2.062 0-3.734-1.671-3.734-3.734s1.671-3.734 3.734-3.734v0c0.003 0 0.008 0 0.012 0 4.706 0 8.522 3.815 8.522 8.522 0 2.543-1.114 4.826-2.881 6.387l-0.009 0.008zM20 14.134c-0.589 0-1.066 0.478-1.066 1.066s0.478 1.066 1.066 1.066c0.589 0 1.066-0.478 1.066-1.066v0c0-0.589-0.478-1.066-1.066-1.066v0z"></path>
</svg>
