<!-- Generated by IcoMoon.io -->
<svg version="1.1" xmlns="http://www.w3.org/2000/svg" width="24" height="24" viewBox="0 0 24 24">
<title>untitled</title>
<path d="M12 7.988q3.3 0 5.644 1.181t2.344 2.831q0 1.237-1.331 2.231t-3.469 1.444v-1.65q1.462-0.375 2.344-0.956t0.881-1.069q0-0.45-0.75-0.994t-2.288-0.975-3.375-0.431-3.375 0.431-2.288 0.975-0.75 0.994q0 0.563 1.125 1.219t2.888 0.956v-2.175l3.187 3.188-3.188 3.225v-2.587q-2.475-0.412-4.031-1.444t-1.556-2.381q0-1.65 2.344-2.831t5.644-1.181z"></path>
</svg>
