<!-- Generated by IcoMoon.io -->
<svg version="1.1" xmlns="http://www.w3.org/2000/svg" width="24" height="24" viewBox="0 0 24 24">
<title>update</title>
<path d="M12.413 8.813v3.375l2.775 1.688-0.563 0.975-3.413-2.063v-3.975h1.2zM19.2 10.5h-5.438l2.213-2.25q-1.65-1.65-3.956-1.669t-3.956 1.594q-0.675 0.675-1.162 1.819t-0.488 2.081 0.488 2.081 1.162 1.819 1.838 1.163 2.1 0.487 2.119-0.487 1.856-1.163q1.612-1.612 1.612-3.9h1.613q0 2.962-2.1 5.025-2.1 2.1-5.1 2.1t-5.1-2.1q-2.1-2.063-2.1-5.006t2.1-5.044q0.863-0.862 2.344-1.481t2.719-0.619 2.719 0.619 2.344 1.481l2.175-2.25v5.7z"></path>
</svg>
