<!-- Generated by IcoMoon.io -->
<svg version="1.1" xmlns="http://www.w3.org/2000/svg" width="40" height="40" viewBox="0 0 40 40">
<title>ut-agreement</title>
<path fill="none" stroke-linejoin="round" stroke-linecap="round" stroke-miterlimit="10" stroke-width="2.4995" stroke="#000" d="M23.36 29.655c0.438-0.067 0.859-0.269 1.197-0.607 0.839-0.839 0.842-2.201 0.002-3.041 0.84 0.84 2.201 0.84 3.040 0 0.839-0.839 0.842-2.2 0.001-3.040l0.119 0.119c0.839 0.839 2.201 0.839 3.042 0.003 0.84-0.841 0.841-2.205 0-3.043l-7.72-7.721"></path>
<path fill="none" stroke-linejoin="round" stroke-linecap="round" stroke-miterlimit="10" stroke-width="2.4995" stroke="#000" d="M20.001 9.285l-0.317-0.316c-3.36-3.362-8.806-3.36-12.164 0-3.36 3.358-3.36 8.803 0 12.163v0 0l0.565 0.565"></path>
<path fill="none" stroke-linejoin="round" stroke-linecap="round" stroke-miterlimit="10" stroke-width="2.4995" stroke="#000" d="M27.599 22.967l-4.318-4.317"></path>
<path fill="none" stroke-linejoin="round" stroke-linecap="round" stroke-miterlimit="10" stroke-width="2.4995" stroke="#000" d="M24.558 26.007l-4.316-4.316"></path>
<path fill="none" stroke-linejoin="round" stroke-linecap="round" stroke-miterlimit="10" stroke-width="2.4995" stroke="#000" d="M10.741 18.543l-2.071 2.070c-0.84 0.841-0.84 2.202 0 3.040 0.84 0.841 2.202 0.842 3.040 0.002l2.074-2.073c0.836-0.841 0.838-2.2-0.003-3.040-0.839-0.84-2.2-0.839-3.040 0.001z"></path>
<path fill="none" stroke-linejoin="round" stroke-linecap="round" stroke-miterlimit="10" stroke-width="2.4995" stroke="#000" d="M23.040 12.324l-4.562 4.564c-0.839 0.839-2.201 0.838-3.040 0-0.841-0.841-0.839-2.2 0.001-3.041l4.879-4.879c3.361-3.361 8.803-3.361 12.163-0.001 3.359 3.361 3.361 8.807 0 12.167v0 0l-1.254 1.254"></path>
<path fill="none" stroke-linejoin="round" stroke-linecap="round" stroke-miterlimit="10" stroke-width="2.4995" stroke="#000" d="M13.634 21.731l-2.072 2.072c-0.841 0.84-0.841 2.201 0 3.040 0.839 0.839 2.2 0.839 3.039-0.002l2.075-2.070c0.838-0.839 0.838-2.202-0-3.040-0.842-0.839-2.201-0.84-3.042 0z"></path>
<path fill="none" stroke-linejoin="round" stroke-linecap="round" stroke-miterlimit="10" stroke-width="2.4995" stroke="#000" d="M16.823 24.625l-2.072 2.070c-0.84 0.841-0.84 2.2-0.001 3.039 0.841 0.843 2.201 0.843 3.040 0l2.074-2.071c0.839-0.84 0.839-2.201-0.002-3.040-0.84-0.841-2.199-0.839-3.039 0.002z"></path>
<path fill="none" stroke-linejoin="round" stroke-linecap="round" stroke-miterlimit="10" stroke-width="2.4995" stroke="#000" d="M19.714 27.811l-2.072 2.072c-0.841 0.84-0.841 2.2 0 3.040 0.837 0.84 2.2 0.839 3.039 0.001l2.074-2.076c0.839-0.838 0.839-2.198-0-3.038-0.841-0.839-2.2-0.841-3.040 0z"></path>
</svg>
