<!-- Generated by IcoMoon.io -->
<svg version="1.1" xmlns="http://www.w3.org/2000/svg" width="40" height="40" viewBox="0 0 40 40">
<title>ut-art</title>
<path fill="none" stroke-linejoin="round" stroke-linecap="round" stroke-miterlimit="10" stroke-width="2.5501" stroke="#000" d="M8.565 11.632c-4.727 4.727-4.726 12.289 0.001 17.014 4.726 4.726 12.287 4.726 17.014 0 0.757-0.757 0.758-2.077 0-2.833-0.379-0.379-1.011-0.487-1.325-0.569-0.254-0.066-0.936-0.189-1.315-0.567-0.757-0.757-0.761-2.082-0.004-2.84l1.699-1.698c2.648-2.65 2.648-6.804-0.001-9.454-4.159-4.158-11.342-3.78-16.068 0.946v0z"></path>
<path fill="none" stroke-linejoin="round" stroke-linecap="round" stroke-miterlimit="10" stroke-width="2.5501" stroke="#000" d="M12.205 24.627c-0.68 0.681-1.868 0.681-2.55 0s-0.681-1.869 0-2.551c0.682-0.681 1.869-0.68 2.551 0.001s0.681 1.868-0.001 2.549v0z"></path>
<path fill="none" stroke-linejoin="round" stroke-linecap="round" stroke-miterlimit="10" stroke-width="2.5501" stroke="#000" d="M11.353 18.675c-0.681 0.681-1.869 0.681-2.551 0-0.68-0.681-0.68-1.869 0.001-2.55 0.681-0.682 1.869-0.682 2.55-0.001s0.682 1.87 0 2.551v0z"></path>
<path fill="none" stroke-linejoin="round" stroke-linecap="round" stroke-miterlimit="10" stroke-width="2.5501" stroke="#000" d="M15.607 14.42c-0.681 0.681-1.869 0.681-2.55 0-0.682-0.68-0.682-1.868 0.001-2.551 0.681-0.681 1.87-0.681 2.549 0 0.682 0.682 0.682 1.87 0 2.551v0z"></path>
<path fill="none" stroke-linejoin="round" stroke-linecap="round" stroke-miterlimit="10" stroke-width="2.5501" stroke="#000" d="M21.565 15.269c-0.681 0.681-1.873 0.685-2.555 0.004-0.681-0.682-0.677-1.874 0.004-2.555 0.678-0.678 1.87-0.682 2.551 0 0.682 0.681 0.676 1.872 0 2.551v0z"></path>
<path fill="none" stroke-linejoin="round" stroke-linecap="round" stroke-miterlimit="10" stroke-width="2.5501" stroke="#000" d="M33.729 25.933c0.066-0.695 0.202-1.555 0.211-3.525 0.020-3.968-0.743-16.052-1.543-16.039-0.8 0.011-1.676 12.12-1.695 16.088-0.009 1.97 0.119 2.825 0.179 3.521"></path>
<path fill="none" stroke-linejoin="round" stroke-linecap="round" stroke-miterlimit="10" stroke-width="2.5501" stroke="#000" d="M32.389 25.969c-1.437 0.015-2.609 0.815-2.617 2.156-0.015 2.078 1.928 2.249 2.108 5.21 0.081 1.338 3.078-2.101 3.101-5.264 0.009-1.34-1.153-2.115-2.591-2.102z"></path>
</svg>
