<!-- Generated by IcoMoon.io -->
<svg version="1.1" xmlns="http://www.w3.org/2000/svg" width="40" height="40" viewBox="0 0 40 40">
<title>ut-man</title>
<path fill="none" stroke-linejoin="round" stroke-linecap="round" stroke-miterlimit="10" stroke-width="2.2899" stroke="#000" d="M22.822 7.75c0 1.565-1.268 2.833-2.834 2.833-1.564 0-2.834-1.268-2.834-2.833s1.269-2.834 2.834-2.834c1.566 0 2.834 1.268 2.834 2.834z"></path>
<path fill="none" stroke-linejoin="round" stroke-linecap="round" stroke-miterlimit="10" stroke-width="2.2899" stroke="#000" d="M17.281 24.664c-0.868-0.462-1.461-1.377-1.461-2.424v-6.166c0-1.509 1.234-2.743 2.742-2.743h2.875c1.508 0 2.743 1.234 2.743 2.743v6.166c0 1.047-0.593 1.962-1.461 2.424"></path>
<path fill="none" stroke-linejoin="round" stroke-linecap="round" stroke-miterlimit="10" stroke-width="2.2899" stroke="#000" d="M17.281 35.084v-10.42"></path>
<path fill="none" stroke-linejoin="round" stroke-linecap="round" stroke-miterlimit="10" stroke-width="2.2899" stroke="#000" d="M22.718 35.084v-10.42"></path>
</svg>
