<!-- Generated by IcoMoon.io -->
<svg version="1.1" xmlns="http://www.w3.org/2000/svg" width="40" height="40" viewBox="0 0 40 40">
<title>ut-research</title>
<path fill="none" stroke-linejoin="round" stroke-linecap="round" stroke-miterlimit="10" stroke-width="2.7482" stroke="#000" d="M23.975 5.247v7.467h7.467"></path>
<path fill="none" stroke-linejoin="round" stroke-linecap="round" stroke-miterlimit="10" stroke-width="2.7482" stroke="#000" d="M23.975 5.099h-15.565v29.801h23.178v-22.188z"></path>
<path fill="none" stroke-linejoin="round" stroke-linecap="round" stroke-miterlimit="10" stroke-width="2.7482" stroke="#000" d="M26.428 25.836h0.8"></path>
<path fill="none" stroke-linejoin="round" stroke-linecap="round" stroke-miterlimit="10" stroke-width="2.7482" stroke="#000" d="M12.771 25.836h0.799"></path>
<path fill="none" stroke-linejoin="round" stroke-linecap="round" stroke-miterlimit="10" stroke-width="2.7482" stroke="#000" d="M12.771 29.931h14.457"></path>
<path fill="none" stroke-linejoin="round" stroke-linecap="round" stroke-miterlimit="10" stroke-width="2.7482" stroke="#000" d="M25.508 18.055h1.72"></path>
<path fill="none" stroke-linejoin="round" stroke-linecap="round" stroke-miterlimit="10" stroke-width="2.7482" stroke="#000" d="M12.771 18.055h1.72"></path>
<path fill="none" stroke-linejoin="round" stroke-linecap="round" stroke-miterlimit="10" stroke-width="2.7482" stroke="#000" d="M12.771 13.783h7.821"></path>
<path fill="none" stroke-linejoin="round" stroke-linecap="round" stroke-miterlimit="10" stroke-width="2.7482" stroke="#000" d="M12.771 10.273h7.821"></path>
<path fill="none" stroke-linejoin="round" stroke-linecap="round" stroke-miterlimit="10" stroke-width="2.7482" stroke="#000" d="M27.174 22.651c0 3.961-3.213 7.174-7.174 7.174-3.963 0-7.175-3.212-7.175-7.174 0-3.964 3.212-7.176 7.175-7.176 3.961 0 7.174 3.212 7.174 7.176z"></path>
<path fill="none" stroke-linejoin="round" stroke-linecap="round" stroke-miterlimit="10" stroke-width="2.7482" stroke="#000" d="M25.073 27.723l4.416 4.416"></path>
</svg>
