<!-- Generated by IcoMoon.io -->
<svg version="1.1" xmlns="http://www.w3.org/2000/svg" width="40" height="40" viewBox="0 0 40 40">
<title>ut-share</title>
<path fill="none" stroke-linejoin="round" stroke-linecap="round" stroke-miterlimit="10" stroke-width="2.6407" stroke="#000" d="M16.209 20c0 2.75-2.231 4.981-4.98 4.981-2.752 0-4.982-2.23-4.982-4.981 0-2.751 2.229-4.981 4.982-4.981 2.75 0 4.98 2.229 4.98 4.981z"></path>
<path fill="none" stroke-linejoin="round" stroke-linecap="round" stroke-miterlimit="10" stroke-width="2.6407" stroke="#000" d="M33.753 10.037c0 2.752-2.23 4.983-4.98 4.983-2.752 0-4.981-2.23-4.981-4.983 0-2.75 2.229-4.981 4.981-4.981 2.751 0 4.98 2.23 4.98 4.981z"></path>
<path fill="none" stroke-linejoin="round" stroke-linecap="round" stroke-miterlimit="10" stroke-width="2.6407" stroke="#000" d="M33.753 29.963c0 2.751-2.23 4.981-4.98 4.981-2.752 0-4.981-2.23-4.981-4.981 0-2.752 2.229-4.982 4.981-4.982 2.751 0 4.98 2.23 4.98 4.982z"></path>
<path fill="none" stroke-linejoin="round" stroke-linecap="round" stroke-miterlimit="10" stroke-width="2.6407" stroke="#000" d="M15.56 17.541l8.882-5.044"></path>
<path fill="none" stroke-linejoin="round" stroke-linecap="round" stroke-miterlimit="10" stroke-width="2.6407" stroke="#000" d="M15.559 22.459l8.883 5.044"></path>
</svg>
