<!-- Generated by IcoMoon.io -->
<svg version="1.1" xmlns="http://www.w3.org/2000/svg" width="40" height="40" viewBox="0 0 40 40">
<title>ut-savings</title>
<path fill="none" stroke-linejoin="round" stroke-linecap="round" stroke-miterlimit="10" stroke-width="2.5868" stroke="#000" d="M22.869 12.075l4.296-2.361 0.011 4.217c2.195 1.12 3.905 3.051 4.734 5.401h3.056v5.012h-2.676c-0.524 2.789-2.245 5.153-4.609 6.543v3.715h-4.897l0.009-2.388h-8.090l-0.002 2.388h-5.205v-3.911c-2.681-1.718-4.46-4.722-4.46-8.144 0-4.401 2.941-8.116 6.965-9.285"></path>
<path fill="none" stroke-linejoin="round" stroke-linecap="round" stroke-miterlimit="10" stroke-width="2.5868" stroke="#000" d="M22.956 11.092c0 3.144-2.549 5.692-5.692 5.692s-5.693-2.549-5.693-5.692c0-3.144 2.549-5.692 5.693-5.692s5.692 2.548 5.692 5.692z"></path>
<path fill="none" stroke-linejoin="round" stroke-linecap="round" stroke-miterlimit="10" stroke-width="2.5868" stroke="#000" d="M11.571 16.784h11.385"></path>
</svg>
