<!-- Generated by IcoMoon.io -->
<svg version="1.1" xmlns="http://www.w3.org/2000/svg" width="40" height="40" viewBox="0 0 40 40">
<title>ut-time</title>
<path fill="none" stroke-linejoin="round" stroke-linecap="round" stroke-miterlimit="10" stroke-width="2.5131" stroke="#000" d="M19.434 23.565v-6.006"></path>
<path fill="none" stroke-linejoin="round" stroke-linecap="round" stroke-miterlimit="10" stroke-width="2.5131" stroke="#000" d="M19.434 23.565h5.558"></path>
<path fill="none" stroke-linejoin="round" stroke-linecap="round" stroke-miterlimit="10" stroke-width="2.5131" stroke="#000" d="M31.828 23.167c0 6.533-5.296 11.828-11.827 11.828-6.532 0-11.829-5.295-11.829-11.828 0-6.531 5.296-11.828 11.829-11.828 6.531 0 11.827 5.297 11.827 11.828z"></path>
<path fill="none" stroke-linejoin="round" stroke-linecap="round" stroke-miterlimit="10" stroke-width="2.5131" stroke="#000" d="M28.064 22.879c0 4.453-3.611 8.064-8.064 8.064-4.455 0-8.065-3.611-8.065-8.064s3.61-8.065 8.065-8.065c4.453 0 8.064 3.611 8.064 8.065z"></path>
<path fill="none" stroke-linejoin="round" stroke-linecap="round" stroke-miterlimit="10" stroke-width="2.5131" stroke="#000" d="M16.833 8.172c0-1.75 1.417-3.167 3.168-3.167 1.748 0 3.166 1.417 3.166 3.167s-1.418 3.166-3.166 3.166c-1.75 0-3.168-1.417-3.168-3.166z"></path>
<path fill="none" stroke-linejoin="round" stroke-linecap="round" stroke-miterlimit="10" stroke-width="2.5131" stroke="#000" d="M28.327 14.766l2.058-2.059"></path>
<path fill="none" stroke-linejoin="round" stroke-linecap="round" stroke-miterlimit="10" stroke-width="2.5131" stroke="#000" d="M29.356 11.68l2.057 2.058"></path>
</svg>
