<!-- Generated by IcoMoon.io -->
<svg version="1.1" xmlns="http://www.w3.org/2000/svg" width="40" height="40" viewBox="0 0 40 40">
<title>ut-unlinked</title>
<path fill="none" stroke-linejoin="round" stroke-linecap="round" stroke-miterlimit="10" stroke-width="1.9803" stroke="#000" d="M33.983 11.7l-0-0.001c-1.501-1.501-3.856-1.619-5.496-0.362-0.145 0.111-0.287 0.229-0.419 0.361l-0 0.001-4.849 4.849c-1.634 1.633-1.634 4.282 0 5.915l0.001 0.001c0.097 0.097 0.199 0.187 0.302 0.273 0.005 0.004 0.010 0.010 0.015 0.014 1.473 1.201 3.569 1.244 5.091 0.14 0.177-0.128 0.349-0.267 0.507-0.426h0l4.849-4.849c1.633-1.634 1.633-4.282-0.001-5.915z"></path>
<path fill="none" stroke-linejoin="round" stroke-linecap="round" stroke-miterlimit="10" stroke-width="1.9803" stroke="#000" d="M16.781 17.536c-1.204-1.205-2.96-1.518-4.454-0.946-0.532 0.204-1.033 0.517-1.461 0.946v0.001l-4.849 4.848c-1.633 1.635-1.633 4.282 0 5.917 1.208 1.208 2.97 1.52 4.467 0.941 0.528-0.203 1.023-0.515 1.448-0.94l0.001-0.001 4.848-4.848c1.633-1.634 1.633-4.282 0-5.916v-0z"></path>
</svg>
