<!-- Generated by IcoMoon.io -->
<svg version="1.1" xmlns="http://www.w3.org/2000/svg" width="24" height="24" viewBox="0 0 24 24">
<title>videogame_asset</title>
<path d="M18 12q0.525 0 0.862-0.337t0.338-0.863-0.338-0.863-0.862-0.337-0.862 0.337-0.338 0.863 0.338 0.863 0.862 0.337zM14.813 14.4q0.487 0 0.844-0.337t0.356-0.862-0.356-0.862-0.844-0.337-0.844 0.337-0.356 0.862 0.356 0.862 0.844 0.337zM11.212 12.788v-1.575h-2.4v-2.4h-1.613v2.4h-2.4v1.575h2.4v2.4h1.613v-2.4h2.4zM19.2 7.2q0.637 0 1.125 0.488t0.487 1.125v6.375q0 0.638-0.487 1.125t-1.125 0.487h-14.4q-0.638 0-1.125-0.487t-0.488-1.125v-6.375q0-0.637 0.488-1.125t1.125-0.488h14.4z"></path>
</svg>
