<!-- Generated by IcoMoon.io -->
<svg version="1.1" xmlns="http://www.w3.org/2000/svg" width="24" height="24" viewBox="0 0 24 24">
<title>voice_over_off</title>
<path d="M18.45 4.012q2.325 2.438 2.325 5.644t-2.325 5.531l-1.313-1.275q1.65-1.913 1.65-4.369t-1.65-4.256zM15.825 6.675q1.2 1.313 1.2 2.963t-1.2 2.85l-1.35-1.35q0.525-0.713 0.525-1.556t-0.525-1.556zM5.813 4.8l13.388 13.387-1.013 1.013-2.362-2.363q0.075 0.188 0.131 0.375t0.056 0.375v1.613h-12.825v-1.613q0-1.425 2.194-2.306t4.219-0.881q0.412 0 0.919 0.056t1.087 0.169 1.125 0.262 1.069 0.375 0.938 0.488l-3.45-3.45q-0.787 0.487-1.688 0.487-1.313 0-2.25-0.938t-0.938-2.25q0-0.9 0.488-1.688l-2.1-2.1zM12.788 9.75l-3.338-3.337h0.15q1.313 0 2.25 0.938t0.938 2.25v0.15z"></path>
</svg>
