<!-- Generated by IcoMoon.io -->
<svg version="1.1" xmlns="http://www.w3.org/2000/svg" width="24" height="24" viewBox="0 0 24 24">
<title>volume_off</title>
<path d="M12 5.588v3.375l-1.688-1.687zM5.813 4.8l13.388 13.387-1.013 1.013-1.65-1.65q-1.238 1.050-2.925 1.463v-1.65q0.938-0.262 1.8-0.938l-3.413-3.412v5.4l-4.012-4.012h-3.188v-4.8h3.787l-3.787-3.787zM17.587 12q0-1.913-1.106-3.375t-2.869-1.988v-1.65q2.437 0.525 4.013 2.494t1.575 4.519q0 1.763-0.825 3.337l-1.2-1.237q0.413-1.013 0.413-2.1zM15.6 12q0 0.337-0.038 0.487l-1.95-1.95v-1.763q0.825 0.413 1.406 1.35t0.581 1.875z"></path>
</svg>
