<!-- Generated by IcoMoon.io -->
<svg version="1.1" xmlns="http://www.w3.org/2000/svg" width="24" height="24" viewBox="0 0 24 24">
<title>wb_incandescent</title>
<path d="M16.2 16.913l1.125-1.088 1.425 1.425-1.125 1.125zM18.413 10.8h2.4v1.613h-2.4v-1.613zM14.4 7.462q1.088 0.638 1.744 1.725t0.656 2.4q0 1.988-1.406 3.394t-3.394 1.406-3.394-1.406-1.406-3.394q0-1.313 0.656-2.4t1.744-1.725v-3.863h4.8v3.863zM5.588 10.8v1.613h-2.4v-1.613h2.4zM11.212 20.362v-2.362h1.575v2.362h-1.575zM5.25 17.25l1.425-1.462 1.125 1.125-1.425 1.462z"></path>
</svg>
