<!-- Generated by IcoMoon.io -->
<svg version="1.1" xmlns="http://www.w3.org/2000/svg" width="24" height="24" viewBox="0 0 24 24">
<title>wifi_off</title>
<path d="M9.6 16.013q1.012-1.013 2.4-1.013t2.4 1.013l-2.4 2.4zM4.012 4.838l1.013-1.013 13.575 13.575-1.013 1.012-5.662-5.662q-0.938 0-2.1 0.487t-1.838 1.163l-1.575-1.575v-0.037q1.462-1.463 3.525-2.025l-1.8-1.762q-1.838 0.75-3.337 2.213l-1.612-1.613q1.463-1.462 3.262-2.325zM17.587 12.788l-0.75 0.787-2.85-2.813q2.138 0.563 3.6 2.025zM20.775 9.6l-1.575 1.612q-3.15-3.225-7.725-2.963l-1.988-2.025q3.037-0.638 6.019 0.225t5.269 3.15z"></path>
</svg>
