<!-- Generated by IcoMoon.io -->
<svg version="1.1" xmlns="http://www.w3.org/2000/svg" width="24" height="24" viewBox="0 0 24 24">
<title>wifi_protected_setup</title>
<path d="M15.75 6.637l1.837-1.837h-6.375v6.412l1.838-1.837q1.162 0.863 1.875 2.194t0.713 2.944q0 0.787-0.188 1.519t-0.525 1.369q1.425-0.9 2.269-2.4t0.844-3.3q0-1.5-0.619-2.813t-1.669-2.25zM8.363 9.488q0-0.788 0.188-1.519t0.525-1.369q-1.425 0.9-2.269 2.4t-0.844 3.3q0 1.5 0.619 2.813t1.669 2.25l-1.838 1.838h6.375v-6.413l-1.837 1.837q-1.163-0.862-1.875-2.194t-0.713-2.944z"></path>
</svg>
