<!-- Generated by IcoMoon.io -->
<svg version="1.1" xmlns="http://www.w3.org/2000/svg" width="24" height="24" viewBox="0 0 24 24">
<title>workspaces_filled</title>
<path d="M16.8 12.788q1.313 0 2.25 0.956t0.938 2.269-0.938 2.25-2.25 0.938-2.25-0.938-0.938-2.25 0.938-2.269 2.25-0.956zM12 4.8q1.313 0 2.25 0.938t0.938 2.25-0.938 2.269-2.25 0.956-2.25-0.956-0.938-2.269 0.938-2.25 2.25-0.938zM7.2 12.788q1.313 0 2.25 0.956t0.938 2.269-0.938 2.25-2.25 0.938-2.25-0.938-0.938-2.25 0.938-2.269 2.25-0.956z"></path>
</svg>
