<!-- Generated by IcoMoon.io -->
<svg version="1.1" xmlns="http://www.w3.org/2000/svg" width="24" height="24" viewBox="0 0 24 24">
<title>youtube_searched_for</title>
<path d="M16.013 13.612l3.975 3.975-1.162 1.2-4.013-4.012v-0.6l-0.225-0.225q-0.6 0.487-1.594 0.862t-1.781 0.375q-1.5 0-2.662-0.712l1.2-1.163q0.75 0.3 1.463 0.3 1.5 0 2.55-1.050t1.050-2.55-1.050-2.55-2.55-1.050-2.55 1.050-1.050 2.55h2.775l-3.3 3.188-3.075-3.188h1.987q0-2.137 1.537-3.675t3.675-1.537q2.175 0 3.694 1.519t1.519 3.694q0 0.787-0.375 1.781t-0.9 1.594l0.225 0.225h0.638z"></path>
</svg>
