<!-- Generated by IcoMoon.io -->
<svg version="1.1" xmlns="http://www.w3.org/2000/svg" width="280" height="280" viewBox="0 0 280 280">
<title>adjust-circle</title>
<path fill="#ebebeb" d="M198.333 81.667c-13.385-34.173-46.068-57.933-84.3-57.933-49.871 0-90.3 40.429-90.3 90.3 0 38.232 23.76 70.915 57.32 84.088l0.613 0.212c13.385 34.173 46.068 57.933 84.3 57.933 49.871 0 90.3-40.429 90.3-90.3 0-38.232-23.76-70.915-57.32-84.088l-0.613-0.212zM179.667 100.333c0.805 3.993 1.271 8.588 1.283 13.29v0.010c-0.027 5.559-0.705 10.946-1.964 16.106l0.097-0.473-28.467-28.233c4.687-1.161 10.075-1.84 15.616-1.866h0.017c4.712 0.012 9.307 0.479 13.754 1.358l-0.454-0.075zM168.7 151.667c-4.723 6.668-10.365 12.31-16.816 16.887l-0.217 0.146-40.367-40.367c4.723-6.668 10.365-12.31 16.816-16.887l0.217-0.146zM75.367 168.7c-17.57-12.27-28.92-32.394-28.92-55.17 0-37.049 30.034-67.083 67.083-67.083 22.776 0 42.9 11.35 55.026 28.703l0.144 0.217h-2.917c-49.749 0.33-89.951 40.736-89.951 90.531 0 0.124 0 0.247 0.001 0.371v-0.019c0 0.933 0.117 1.983 0.117 2.917zM99.867 179.083c-0.805-3.993-1.271-8.588-1.283-13.29v-0.010c0.027-5.559 0.705-10.946 1.964-16.106l-0.097 0.473 28.35 28.35c-4.687 1.161-10.075 1.84-15.616 1.866h-0.017c-0.536 0.014-1.168 0.023-1.801 0.023-3.853 0-7.635-0.305-11.323-0.893l0.407 0.053zM166.25 233.333c-22.919-0.044-43.145-11.536-55.27-29.059l-0.147-0.224h2.917c49.868-0.066 90.284-40.441 90.417-90.287v-0.013c0-0.933 0-1.983 0-2.917 17.776 12.246 29.279 32.488 29.279 55.417 0 37.049-30.034 67.083-67.083 67.083-0.040 0-0.079 0-0.119 0h0.006z"></path>
</svg>
