<!-- Generated by IcoMoon.io -->
<svg version="1.1" xmlns="http://www.w3.org/2000/svg" width="280" height="280" viewBox="0 0 280 280">
<title>analysis</title>
<path fill="#ebebeb" d="M253.283 85.050c-2.114-2.131-5.045-3.451-8.283-3.451s-6.169 1.32-8.283 3.45l-0.001 0.001-73.383 73.5-50.050-50.167c-2.114-2.131-5.045-3.451-8.283-3.451s-6.169 1.32-8.283 3.45l-70.001 70.001c-2.131 2.114-3.451 5.045-3.451 8.283s1.32 6.169 3.45 8.283l0.001 0.001c2.114 2.131 5.045 3.451 8.283 3.451s6.169-1.32 8.283-3.45l0.001-0.001 61.717-61.833 50.050 50.167c2.114 2.131 5.045 3.451 8.283 3.451s6.169-1.32 8.283-3.45l81.668-81.668c2.131-2.114 3.451-5.045 3.451-8.283s-1.32-6.169-3.45-8.283l-0.001-0.001z"></path>
</svg>
