<!-- Generated by IcoMoon.io -->
<svg version="1.1" xmlns="http://www.w3.org/2000/svg" width="280" height="280" viewBox="0 0 280 280">
<title>android</title>
<path fill="#ebebeb" d="M174.712 35.22l11.198-20.202c0.178-0.315 0.283-0.693 0.283-1.094 0-1.246-1.010-2.257-2.257-2.257-0.845 0-1.581 0.464-1.968 1.151l-0.006 0.011-11.322 20.426c-9.021-4.058-19.555-6.421-30.641-6.421s-21.62 2.364-31.125 6.615l0.484-0.193-11.322-20.426c-0.393-0.698-1.129-1.162-1.974-1.162-1.246 0-2.257 1.010-2.257 2.257 0 0.402 0.105 0.779 0.289 1.106l-0.006-0.011 11.198 20.202c-21.22 10.63-35.632 32.025-36.086 56.83l-0.001 0.060h141.598c-0.454-24.866-14.867-46.26-35.714-56.721l-0.373-0.17zM107.323 66.202c-3.265 0-5.913-2.647-5.913-5.913s2.647-5.913 5.913-5.913c3.265 0 5.913 2.647 5.913 5.913v0c-0.004 3.264-2.649 5.909-5.912 5.913h-0zM172.677 66.202c-3.265 0-5.913-2.647-5.913-5.913s2.647-5.913 5.913-5.913c3.265 0 5.913 2.647 5.913 5.913v0c-0.004 3.264-2.649 5.909-5.912 5.913h-0zM69.2 200.334c0 9.453 7.663 17.117 17.117 17.117v0h11.359v35.011c0 0.013 0 0.028 0 0.043 0 8.766 7.106 15.872 15.872 15.872s15.872-7.106 15.872-15.872c0-0.015 0-0.030 0-0.045v0.002-35.011h21.162v35.011c0 0.013 0 0.028 0 0.043 0 8.766 7.106 15.872 15.872 15.872s15.872-7.106 15.872-15.872c0-0.015 0-0.030 0-0.045v0.002-35.011h11.359c9.453 0 17.117-7.663 17.117-17.117v0-102.622h-141.6zM47.415 94.989c-8.762 0.010-15.862 7.11-15.872 15.871v66.133c0 0.013 0 0.028 0 0.043 0 8.766 7.106 15.872 15.872 15.872s15.872-7.106 15.872-15.872c0-0.015 0-0.030 0-0.045v0.002-66.132c-0.010-8.762-7.11-15.862-15.871-15.872h-0.001zM232.585 94.989c-8.762 0.010-15.862 7.11-15.872 15.871v66.133c0 0.013 0 0.028 0 0.043 0 8.766 7.106 15.872 15.872 15.872s15.872-7.106 15.872-15.872c0-0.015 0-0.030 0-0.045v0.002-66.132c-0.010-8.762-7.11-15.862-15.871-15.872h-0.001z"></path>
</svg>
