<!-- Generated by IcoMoon.io -->
<svg version="1.1" xmlns="http://www.w3.org/2000/svg" width="280" height="280" viewBox="0 0 280 280">
<title>annoyed-alt</title>
<path fill="#ebebeb" d="M171.033 158.2l-48.883 17.5c-4.523 1.675-7.688 5.951-7.688 10.967 0 6.398 5.15 11.593 11.531 11.666h0.007c1.424-0.002 2.787-0.258 4.047-0.726l-0.081 0.026 49-17.5c4.692-1.582 8.010-5.943 8.010-11.079 0-6.443-5.223-11.667-11.667-11.667-1.54 0-3.010 0.298-4.355 0.84l0.078-0.028zM124.367 99.867c-2.109-2.097-5.016-3.393-8.225-3.393s-6.116 1.296-8.226 3.393l0.001-0.001c-2.114 2.131-5.045 3.451-8.283 3.451s-6.169-1.32-8.283-3.45l-0.001-0.001c-2.109-2.097-5.016-3.393-8.225-3.393s-6.116 1.296-8.226 3.393l0.001-0.001c-2.131 2.114-3.451 5.045-3.451 8.283s1.32 6.169 3.45 8.283l0.001 0.001c6.332 6.325 15.076 10.236 24.733 10.236s18.401-3.911 24.734-10.236l-0 0c2.067-2.104 3.343-4.991 3.343-8.175 0-3.413-1.465-6.483-3.801-8.617l-0.009-0.008zM206.033 99.867c-2.109-2.097-5.016-3.393-8.225-3.393s-6.116 1.296-8.226 3.393l0.001-0.001c-2.114 2.131-5.045 3.451-8.283 3.451s-6.169-1.32-8.283-3.45l-0.001-0.001c-2.109-2.097-5.016-3.393-8.225-3.393s-6.116 1.296-8.226 3.393l0.001-0.001c-2.131 2.114-3.451 5.045-3.451 8.283s1.32 6.169 3.45 8.283l0.001 0.001c6.332 6.325 15.076 10.236 24.733 10.236s18.401-3.911 24.734-10.236l-0 0c2.067-2.104 3.343-4.991 3.343-8.175 0-3.413-1.465-6.483-3.801-8.617l-0.009-0.008zM140 23.333c-64.433 0-116.667 52.233-116.667 116.667s52.233 116.667 116.667 116.667c64.433 0 116.667-52.233 116.667-116.667v0c0-64.433-52.233-116.667-116.667-116.667v0zM140 233.333c-51.547 0-93.333-41.787-93.333-93.333s41.787-93.333 93.333-93.333c51.547 0 93.333 41.787 93.333 93.333v0c0 51.547-41.787 93.333-93.333 93.333v0z"></path>
</svg>
