<!-- Generated by IcoMoon.io -->
<svg version="1.1" xmlns="http://www.w3.org/2000/svg" width="280" height="280" viewBox="0 0 280 280">
<title>arrow-circle-down</title>
<path fill="#ebebeb" d="M131.717 183.283c1.077 1.032 2.356 1.862 3.771 2.422l0.079 0.028c1.311 0.553 2.834 0.875 4.433 0.875s3.123-0.322 4.51-0.904l-0.077 0.029c1.494-0.588 2.773-1.418 3.854-2.454l-0.004 0.004 35-35c2.12-2.12 3.431-5.048 3.431-8.283 0-6.47-5.245-11.714-11.714-11.714-3.235 0-6.164 1.311-8.283 3.431v0l-15.050 15.167v-41.883c0-6.443-5.223-11.667-11.667-11.667s-11.667 5.223-11.667 11.667v0 41.883l-15.050-15.167c-2.114-2.131-5.045-3.451-8.283-3.451s-6.169 1.32-8.283 3.45l-0.001 0.001c-2.131 2.114-3.451 5.045-3.451 8.283s1.32 6.169 3.45 8.283l0.001 0.001zM140 256.667c64.433 0 116.667-52.233 116.667-116.667s-52.233-116.667-116.667-116.667c-64.433 0-116.667 52.233-116.667 116.667v0c0 64.433 52.233 116.667 116.667 116.667v0zM140 46.667c51.547 0 93.333 41.787 93.333 93.333s-41.787 93.333-93.333 93.333c-51.547 0-93.333-41.787-93.333-93.333v0c0-51.547 41.787-93.333 93.333-93.333v0z"></path>
</svg>
