<!-- Generated by IcoMoon.io -->
<svg version="1.1" xmlns="http://www.w3.org/2000/svg" width="280" height="280" viewBox="0 0 280 280">
<title>arrow-growth</title>
<path fill="#ebebeb" d="M255.733 77.233c-1.209-2.86-3.44-5.091-6.223-6.271l-0.077-0.029c-1.306-0.572-2.827-0.913-4.426-0.933h-58.341c-6.443 0-11.667 5.223-11.667 11.667s5.223 11.667 11.667 11.667v0h30.217l-65.217 65.217-38.383-38.5c-2.114-2.131-5.045-3.451-8.283-3.451s-6.169 1.32-8.283 3.45l-70.001 70.001c-2.131 2.114-3.451 5.045-3.451 8.283s1.32 6.169 3.45 8.283l0.001 0.001c2.114 2.131 5.045 3.451 8.283 3.451s6.169-1.32 8.283-3.45l0.001-0.001 61.717-61.833 38.383 38.5c2.114 2.131 5.045 3.451 8.283 3.451s6.169-1.32 8.283-3.45l0.001-0.001 73.383-73.5v30.217c0 6.443 5.223 11.667 11.667 11.667s11.667-5.223 11.667-11.667v0-58.333c-0.020-1.606-0.361-3.127-0.963-4.509l0.029 0.075z"></path>
</svg>
