<!-- Generated by IcoMoon.io -->
<svg version="1.1" xmlns="http://www.w3.org/2000/svg" width="280" height="280" viewBox="0 0 280 280">
<title>arrows-right-down</title>
<path fill="#ebebeb" d="M244.067 77.233c-0.588-1.494-1.418-2.773-2.454-3.854l0.004 0.004-35-35c-2.12-2.12-5.048-3.431-8.283-3.431-6.47 0-11.714 5.245-11.714 11.714 0 3.235 1.311 6.164 3.431 8.283v0l15.167 15.050h-100.217c-19.33 0-35 15.67-35 35v0 100.217l-15.050-15.167c-2.12-2.12-5.048-3.431-8.283-3.431-6.47 0-11.714 5.245-11.714 11.714 0 3.235 1.311 6.164 3.431 8.283l35 35c1.077 1.032 2.356 1.862 3.771 2.422l0.079 0.028c1.305 0.591 2.829 0.936 4.433 0.936s3.129-0.345 4.502-0.964l-0.069 0.028c1.494-0.588 2.773-1.418 3.854-2.454l-0.004 0.004 35-35c2.12-2.12 3.431-5.048 3.431-8.283 0-6.47-5.245-11.714-11.714-11.714-3.235 0-6.164 1.311-8.283 3.431v0l-15.050 15.167v-100.217c0-6.443 5.223-11.667 11.667-11.667v0h100.217l-15.167 15.050c-2.131 2.114-3.451 5.045-3.451 8.283s1.32 6.169 3.45 8.283l0.001 0.001c2.114 2.131 5.045 3.451 8.283 3.451s6.169-1.32 8.283-3.45l35.001-35.001c1.032-1.077 1.862-2.356 2.422-3.771l0.028-0.079c0.553-1.311 0.875-2.834 0.875-4.433s-0.322-3.123-0.904-4.51l0.029 0.077z"></path>
</svg>
