<!-- Generated by IcoMoon.io -->
<svg version="1.1" xmlns="http://www.w3.org/2000/svg" width="280" height="280" viewBox="0 0 280 280">
<title>at</title>
<path fill="#ebebeb" d="M140 23.333c-0.002 0-0.003 0-0.005 0-64.433 0-116.667 52.233-116.667 116.667s52.233 116.667 116.667 116.667c21.48 0 41.604-5.805 58.889-15.931l-0.55 0.298c3.749-1.991 6.259-5.871 6.259-10.338 0-6.443-5.223-11.667-11.667-11.667-2.323 0-4.487 0.679-6.305 1.849l0.046-0.028c-13.387 7.861-29.484 12.504-46.667 12.504-51.547 0-93.333-41.787-93.333-93.333s41.787-93.333 93.333-93.333c51.539 0 93.321 41.775 93.333 93.311v8.751c0 11.276-9.141 20.417-20.417 20.417s-20.417-9.141-20.417-20.417v0-49.583c0-6.443-5.223-11.667-11.667-11.667v0c-0.077-0.002-0.168-0.003-0.259-0.003-5.576 0-10.239 3.912-11.393 9.142l-0.014 0.077c-8.15-5.7-18.249-9.137-29.147-9.216h-0.020c-0.187-0.002-0.407-0.004-0.628-0.004-28.995 0-52.5 23.505-52.5 52.5s23.505 52.5 52.5 52.5c15.523 0 29.473-6.737 39.085-17.447l0.043-0.049c8.057 10.362 20.525 16.965 34.535 16.965 23.951 0 43.395-19.298 43.631-43.193l0-0.022v-8.75c0-64.433-52.233-116.667-116.667-116.667v0zM140 169.167c-16.108 0-29.167-13.058-29.167-29.167s13.058-29.167 29.167-29.167c16.108 0 29.167 13.058 29.167 29.167v0c0 16.108-13.058 29.167-29.167 29.167v0z"></path>
</svg>
