<!-- Generated by IcoMoon.io -->
<svg version="1.1" xmlns="http://www.w3.org/2000/svg" width="280" height="280" viewBox="0 0 280 280">
<title>award</title>
<path fill="#ebebeb" d="M243.483 201.25l-31.617-54.6c6.169-11.119 9.8-24.382 9.8-38.494 0-0.084 0-0.168-0-0.252v0.013c0-45.103-36.564-81.667-81.667-81.667s-81.667 36.564-81.667 81.667v0c-0 0.071-0 0.155-0 0.239 0 14.112 3.631 27.376 10.010 38.908l-0.21-0.414-31.617 54.6c-0.983 1.673-1.563 3.686-1.563 5.834 0 6.443 5.223 11.667 11.667 11.667 0.016 0 0.033 0 0.049 0h33.481l17.033 28.7c0.598 0.981 1.294 1.825 2.092 2.559l0.008 0.008c2.084 2.011 4.921 3.254 8.048 3.267h1.636c3.656-0.514 6.724-2.659 8.487-5.662l0.030-0.055 22.517-38.733 22.517 39.083c1.816 3.012 4.879 5.113 8.457 5.593l0.060 0.007h1.633c0.021 0 0.045 0 0.070 0 3.146 0 6.002-1.246 8.1-3.27l-0.004 0.003c0.773-0.7 1.432-1.507 1.958-2.402l0.026-0.048 17.033-28.7h33.483c0.014 0 0.030 0 0.046 0 4.296 0 8.049-2.321 10.074-5.778l0.030-0.055c1.046-1.715 1.666-3.789 1.666-6.008s-0.62-4.294-1.695-6.060l0.029 0.051zM107.217 219.1l-10.383-17.383c-2.049-3.413-5.714-5.672-9.91-5.716h-20.19l16.683-28.933c11.122 10.728 25.317 18.339 41.138 21.384l0.512 0.082zM140 166.25c-32.217 0-58.333-26.117-58.333-58.333s26.117-58.333 58.333-58.333c32.217 0 58.333 26.117 58.333 58.333v0c0 32.217-26.117 58.333-58.333 58.333v0zM193.083 196c-4.202 0.044-7.867 2.303-9.887 5.664l-0.029 0.053-10.383 17.383-17.733-30.917c16.279-3.192 30.422-10.791 41.561-21.493l-0.027 0.026 16.683 28.933z"></path>
</svg>
