<!-- Generated by IcoMoon.io -->
<svg version="1.1" xmlns="http://www.w3.org/2000/svg" width="280" height="280" viewBox="0 0 280 280">
<title>backspace</title>
<path fill="#ebebeb" d="M221.667 58.333h-106.983c-9.661 0.009-18.405 3.931-24.733 10.266l-0 0-63.233 63.117c-2.131 2.114-3.451 5.045-3.451 8.283s1.32 6.169 3.45 8.283l0.001 0.001 63.233 63.117c6.328 6.336 15.072 10.258 24.732 10.267h106.985c19.33 0 35-15.67 35-35v0-93.333c0-19.33-15.67-35-35-35v0zM233.333 186.667c0 6.443-5.223 11.667-11.667 11.667v0h-106.983c-3.219-0.046-6.129-1.326-8.288-3.388l0.005 0.004-54.95-54.95 54.95-54.95c2.154-2.057 5.065-3.337 8.274-3.383h106.992c6.443 0 11.667 5.223 11.667 11.667v0zM194.95 108.383c-2.114-2.131-5.045-3.451-8.283-3.451s-6.169 1.32-8.283 3.45l-0.001 0.001-15.050 15.167-15.050-15.167c-2.12-2.12-5.048-3.431-8.283-3.431-6.47 0-11.714 5.245-11.714 11.714 0 3.235 1.311 6.164 3.431 8.283v0l15.167 15.050-15.167 15.050c-2.131 2.114-3.451 5.045-3.451 8.283s1.32 6.169 3.45 8.283l0.001 0.001c2.114 2.131 5.045 3.451 8.283 3.451s6.169-1.32 8.283-3.45l0.001-0.001 15.050-15.167 15.050 15.167c2.114 2.131 5.045 3.451 8.283 3.451s6.169-1.32 8.283-3.45l0.001-0.001c2.131-2.114 3.451-5.045 3.451-8.283s-1.32-6.169-3.45-8.283l-0.001-0.001-15.167-15.050 15.167-15.050c2.131-2.114 3.451-5.045 3.451-8.283s-1.32-6.169-3.45-8.283l-0.001-0.001z"></path>
</svg>
