<!-- Generated by IcoMoon.io -->
<svg version="1.1" xmlns="http://www.w3.org/2000/svg" width="280" height="280" viewBox="0 0 280 280">
<title>behance-alt</title>
<path fill="#ebebeb" d="M257.931 175.37c-0.87-0.233-1.869-0.367-2.899-0.367-5.418 0-9.972 3.703-11.268 8.717l-0.018 0.081c-4.033 15.192-17.662 26.205-33.863 26.205-19.32 0-34.981-15.662-34.981-34.981 0-0.007 0-0.013 0-0.020v0.001-11.667h81.667c0.001 0 0.002 0 0.003 0 6.442 0 11.664-5.222 11.664-11.664 0-0.001 0-0.002 0-0.003v0c0-32.217-26.117-58.333-58.333-58.333s-58.333 26.117-58.333 58.333v0 23.333c0 0.006 0 0.013 0 0.019 0 32.206 26.108 58.314 58.314 58.314 27.047 0 49.794-18.414 56.387-43.389l0.091-0.407c0.229-0.863 0.36-1.854 0.36-2.875 0-5.42-3.699-9.975-8.71-11.28l-0.081-0.018zM209.903 116.672c9.639 0.004 18.369 3.889 24.714 10.177l-0.002-0.002c3.55 3.628 6.332 8.022 8.074 12.911l0.077 0.248h-65.713c4.919-13.674 17.756-23.285 32.844-23.333h0.006zM186.57 81.672h46.667c6.443 0 11.667-5.223 11.667-11.667s-5.223-11.667-11.667-11.667v0h-46.667c-6.443 0-11.667 5.223-11.667 11.667s5.223 11.667 11.667 11.667v0zM115.613 136.705c7.819-8.302 12.624-19.519 12.624-31.858 0-25.686-20.823-46.51-46.51-46.51-0.056 0-0.111 0-0.167 0h-58.324c-0.001 0-0.002 0-0.003 0-6.442 0-11.663 5.222-11.663 11.663 0 0.001 0 0.002 0 0.003v-0 151.667c0 0.001 0 0.002 0 0.003 0 6.442 5.222 11.664 11.664 11.664 0.001 0 0.002 0 0.003 0h64.166c0.028 0 0.062 0 0.095 0 28.943 0 52.407-23.463 52.407-52.407 0-18.51-9.596-34.778-24.084-44.102l-0.208-0.125zM34.903 81.672h46.667c12.887 0 23.333 10.447 23.333 23.333s-10.447 23.333-23.333 23.333v0h-46.667zM87.403 210.005h-52.5v-58.333h52.5c16.108 0 29.167 13.058 29.167 29.167s-13.058 29.167-29.167 29.167v0z"></path>
</svg>
