<!-- Generated by IcoMoon.io -->
<svg version="1.1" xmlns="http://www.w3.org/2000/svg" width="280" height="280" viewBox="0 0 280 280">
<title>bus-school</title>
<path fill="#ebebeb" d="M11.667 145.833v46.667c0 6.443 5.223 11.667 11.667 11.667v0h11.667c0 19.33 15.67 35 35 35s35-15.67 35-35v0h70c0 19.33 15.67 35 35 35s35-15.67 35-35v0h11.667c6.443 0 11.667-5.223 11.667-11.667v0-116.667c0-19.33-15.67-35-35-35v0h-134.867c-15.338 0.030-28.359 9.921-33.060 23.67l-0.073 0.246-16.8 50.283-31.617 21.117c-3.165 2.107-5.228 5.652-5.25 9.68v0.003zM245 110.833h-23.333v-46.667h11.667c6.443 0 11.667 5.223 11.667 11.667v0zM198.333 204.167c0-6.443 5.223-11.667 11.667-11.667s11.667 5.223 11.667 11.667c0 6.443-5.223 11.667-11.667 11.667v0c-6.443 0-11.667-5.223-11.667-11.667v0zM175 134.167h70v46.667h-9.1c-6.426-7.051-15.648-11.459-25.9-11.459s-19.474 4.408-25.875 11.431l-0.025 0.028h-9.1zM175 64.167h23.333v46.667h-23.333zM128.333 134.167h23.333v46.667h-23.333zM128.333 64.167h23.333v46.667h-23.333zM105 110.833h-30.45l12.833-38.733c1.605-4.652 5.946-7.933 11.053-7.933 0.011 0 0.021 0 0.032 0h6.532zM58.333 204.167c0-6.443 5.223-11.667 11.667-11.667s11.667 5.223 11.667 11.667c0 6.443-5.223 11.667-11.667 11.667v0c-6.443 0-11.667-5.223-11.667-11.667v0zM35 151.667l26.833-17.5h43.167v46.667h-9.1c-6.426-7.051-15.648-11.459-25.9-11.459s-19.474 4.408-25.875 11.431l-0.025 0.028h-9.1z"></path>
</svg>
