<!-- Generated by IcoMoon.io -->
<svg version="1.1" xmlns="http://www.w3.org/2000/svg" width="280" height="280" viewBox="0 0 280 280">
<title>cloud-sun-hail</title>
<path fill="#ebebeb" d="M107.45 236.717c-2.105-2.078-5-3.362-8.194-3.362-1.633 0-3.187 0.336-4.598 0.941l0.076-0.029c-1.502 0.566-2.785 1.399-3.851 2.451l0.001-0.001c-0.997 1.094-1.822 2.367-2.417 3.763l-0.033 0.088c-0.591 1.305-0.936 2.829-0.936 4.433s0.345 3.129 0.964 4.502l-0.028-0.069c1.085 2.939 3.361 5.215 6.227 6.276l0.073 0.024c1.305 0.591 2.829 0.936 4.433 0.936s3.129-0.345 4.502-0.964l-0.069 0.028c1.483-0.628 2.756-1.453 3.861-2.46l-0.011 0.010c2.091-2.108 3.384-5.011 3.384-8.216 0-0.024 0-0.047-0-0.071v0.004c0.002-0.075 0.003-0.164 0.003-0.252 0-1.519-0.345-2.957-0.962-4.24l0.025 0.059c-0.628-1.483-1.453-2.756-2.46-3.861l0.010 0.011zM154.117 213.383c-1.065-1.051-2.348-1.884-3.775-2.425l-0.075-0.025c-1.335-0.577-2.89-0.912-4.522-0.912-3.194 0-6.089 1.284-8.195 3.363l0.001-0.001c-0.997 1.094-1.822 2.367-2.417 3.763l-0.033 0.088c-0.529 1.284-0.835 2.774-0.835 4.335 0 6.443 5.223 11.667 11.667 11.667 1.562 0 3.052-0.307 4.413-0.864l-0.078 0.028c1.483-0.628 2.756-1.453 3.861-2.46l-0.011 0.010c2.078-2.105 3.362-5 3.362-8.194 0-1.633-0.336-3.187-0.941-4.598l0.029 0.076c-0.628-1.483-1.453-2.756-2.46-3.861l0.010 0.011zM107.45 190.050c-2.105-2.078-5-3.362-8.194-3.362-1.633 0-3.187 0.336-4.598 0.941l0.076-0.029c-1.494 0.588-2.773 1.418-3.854 2.454l0.004-0.004c-0.997 1.094-1.822 2.367-2.417 3.763l-0.033 0.088c-0.577 1.335-0.912 2.89-0.912 4.522 0 3.194 1.284 6.089 3.363 8.195l-0.001-0.001c1.094 0.997 2.367 1.822 3.763 2.417l0.088 0.033c1.305 0.591 2.829 0.936 4.433 0.936s3.129-0.345 4.502-0.964l-0.069 0.028c1.483-0.628 2.756-1.453 3.861-2.46l-0.011 0.010c2.091-2.108 3.384-5.011 3.384-8.216 0-0.024 0-0.047-0-0.071v0.004c0.002-0.075 0.003-0.164 0.003-0.252 0-1.519-0.345-2.957-0.962-4.24l0.025 0.059c-0.628-1.483-1.453-2.756-2.46-3.861l0.010 0.011zM141.4 164.267c-1.494 0.588-2.773 1.418-3.854 2.454l0.004-0.004c-2.057 2.154-3.337 5.065-3.383 8.274v0.009c0 0.020-0 0.044-0 0.068 0 3.205 1.292 6.108 3.384 8.217l-0.001-0.001c1.094 0.997 2.367 1.822 3.763 2.417l0.088 0.033c1.224 0.591 2.662 0.937 4.181 0.937 0.089 0 0.177-0.001 0.266-0.004l-0.013 0c6.443 0 11.667-5.223 11.667-11.667v0c-0.046-3.219-1.326-6.129-3.388-8.288l0.004 0.005c-2.105-2.078-5-3.362-8.194-3.362-1.633 0-3.187 0.336-4.598 0.941l0.076-0.029zM245 81.667h-9.333c-1.316-5.609-3.406-10.556-6.189-15.027l0.122 0.21 6.533-6.533c1.744-2.027 2.805-4.684 2.805-7.589 0-6.443-5.223-11.667-11.667-11.667-2.905 0-5.562 1.062-7.604 2.818l0.015-0.013-6.533 6.533c-4.261-2.661-9.208-4.751-14.48-5.999l-0.337-0.067v-9.333c0-6.443-5.223-11.667-11.667-11.667s-11.667 5.223-11.667 11.667v0 9.333c-5.566 1.294-10.476 3.386-14.896 6.183l0.196-0.116-6.65-6.533c-2.027-1.744-4.684-2.805-7.589-2.805-6.443 0-11.667 5.223-11.667 11.667 0 2.905 1.062 5.562 2.818 7.604l-0.013-0.015 6.533 6.65c-1.050 1.75-1.867 3.733-2.8 5.6-5.522-1.619-11.866-2.556-18.428-2.567h-0.006c-0.012 0-0.026 0-0.040 0-35.078 0-64.131 25.803-69.212 59.464l-0.048 0.386c-17.373 4.953-29.88 20.684-29.88 39.337 0 16.649 9.964 30.97 24.253 37.327l0.26 0.103c1.38 0.563 2.979 0.903 4.654 0.933l0.012 0c0.028 0 0.062 0 0.095 0 6.443 0 11.667-5.223 11.667-11.667 0-4.792-2.889-8.909-7.020-10.705l-0.075-0.029c-6.225-2.701-10.5-8.794-10.5-15.886 0-0.034 0-0.069 0-0.103v0.005c0-9.665 7.835-17.5 17.5-17.5v0c6.443 0 11.667-5.223 11.667-11.667v0c0.12-25.682 20.967-46.455 46.666-46.455 20.307 0 37.584 12.97 44 31.078l0.101 0.326c1.378 4.054 4.813 7.063 9.030 7.806l0.070 0.010c13.146 2.001 23.102 13.225 23.102 26.775 0 9.387-4.779 17.659-12.037 22.513l-0.098 0.062c-3.209 2.124-5.297 5.718-5.297 9.8 0 6.469 5.245 11.714 11.714 11.714 2.388 0 4.608-0.714 6.46-1.941l-0.043 0.027c13.456-9.238 22.168-24.539 22.168-41.874 0-0.126-0.001-0.252-0.001-0.378v0.019c-0.011-6.517-1.296-12.73-3.618-18.41l0.118 0.326 1.517 1.4c2.096 2.080 4.98 3.37 8.164 3.383h0.003c0.020 0 0.044 0 0.068 0 3.205 0 6.108-1.292 8.217-3.384l-0.001 0.001c2.097-2.109 3.393-5.016 3.393-8.225s-1.296-6.116-3.393-8.226l-6.533-6.533c2.661-4.261 4.751-9.208 5.999-14.48l0.067-0.337h9.333c6.443 0 11.667-5.223 11.667-11.667s-5.223-11.667-11.667-11.667v0zM206.033 112.583v0c-1.977 1.982-4.292 3.626-6.852 4.837l-0.148 0.063c-3.557-2.497-7.651-4.592-12.024-6.082l-0.343-0.101c-5.54-11.911-13.856-21.725-24.15-28.896l-0.233-0.154c1.379-3.151 3.184-5.852 5.38-8.181l-0.013 0.014c5.039-4.671 11.81-7.538 19.25-7.538s14.211 2.866 19.268 7.554l-0.018-0.017c4.826 4.972 7.801 11.764 7.801 19.25s-2.975 14.278-7.808 19.257l0.007-0.007z"></path>
</svg>
