<!-- Generated by IcoMoon.io -->
<svg version="1.1" xmlns="http://www.w3.org/2000/svg" width="280" height="280" viewBox="0 0 280 280">
<title>cloud-shield</title>
<path fill="#ebebeb" d="M214.9 84.233c-12.908-29.127-41.566-49.078-74.883-49.078-41.387 0-75.584 30.787-80.938 70.709l-0.046 0.419c-20.602 5.143-35.623 23.488-35.623 45.341 0 20.227 12.868 37.448 30.865 43.923l0.325 0.102c1.114 0.356 2.396 0.568 3.726 0.583h0.008c0.561 0.094 1.207 0.148 1.867 0.148 6.525 0 11.815-5.29 11.815-11.815 0-5.866-4.275-10.734-9.88-11.657l-0.069-0.009c-8.841-3.258-15.092-11.478-15.399-21.197l-0.001-0.036c0-12.887 10.447-23.333 23.333-23.333v0c6.443 0 11.667-5.223 11.667-11.667v0c0.072-32.162 26.161-58.207 58.333-58.207 25.446 0 47.086 16.293 55.059 39.015l0.125 0.409c1.378 4.054 4.813 7.063 9.030 7.806l0.070 0.010c16.465 3.061 28.766 17.314 28.766 34.441 0 12.724-6.789 23.861-16.943 29.988l-0.157 0.088c-3.535 2.059-5.873 5.832-5.873 10.15 0 6.465 5.241 11.707 11.707 11.707 2.147 0 4.159-0.578 5.889-1.587l-0.056 0.030c17.494-10.289 29.050-29.020 29.050-50.451 0-0.023 0-0.046 0-0.070v0.004c-0.077-26.244-17.472-48.404-41.354-55.659l-0.413-0.108zM172.55 136.033c-2.035 0.463-4.371 0.728-6.77 0.728-7.113 0-13.681-2.331-18.981-6.272l0.085 0.060c-1.903-1.404-4.295-2.247-6.883-2.247s-4.98 0.843-6.916 2.27l0.032-0.023c-5.205 3.885-11.765 6.22-18.87 6.22-2.408 0-4.754-0.268-7.009-0.777l0.212 0.040c-0.74-0.167-1.59-0.263-2.463-0.263-2.79 0-5.351 0.979-7.359 2.613l0.021-0.017c-2.623 2.14-4.292 5.364-4.317 8.979v39.321c0 0.017 0 0.038 0 0.059 0 17.549 8.369 33.144 21.334 43.011l0.133 0.097 18.317 13.417c1.903 1.404 4.295 2.247 6.883 2.247s4.98-0.843 6.916-2.27l-0.032 0.023 18.317-13.533c13.093-9.895 21.467-25.436 21.467-42.934 0-0.041 0-0.082-0-0.123v0.006-39.317c-0.025-3.619-1.693-6.843-4.296-8.967l-0.021-0.017c-1.986-1.617-4.548-2.596-7.337-2.596-0.872 0-1.722 0.096-2.54 0.277l0.078-0.014zM163.333 186.667c-0.222 9.459-4.708 17.827-11.603 23.285l-0.064 0.049-11.667 8.4-11.667-8.4c-6.959-5.506-11.444-13.874-11.666-23.297l-0.001-0.036v-26.6c8.603-0.398 16.58-2.727 23.62-6.559l-0.287 0.143c6.753 3.69 14.73 6.019 23.213 6.412l0.121 0.004z"></path>
</svg>
