<!-- Generated by IcoMoon.io -->
<svg version="1.1" xmlns="http://www.w3.org/2000/svg" width="280" height="280" viewBox="0 0 280 280">
<title>cloud-slash</title>
<path fill="#ebebeb" d="M194.95 190.050v0l-151.667-151.667c-2.12-2.12-5.048-3.431-8.283-3.431-6.47 0-11.714 5.245-11.714 11.714 0 3.235 1.311 6.164 3.431 8.283v0l39.2 39.083c-3.244 6.776-5.656 14.638-6.832 22.898l-0.051 0.435c-22.565 3.543-39.62 22.845-39.62 46.132 0 25.773 20.893 46.667 46.667 46.667 1.38 0 2.746-0.060 4.096-0.177l-0.175 0.012h111.883l31.5 31.617c2.114 2.131 5.045 3.451 8.283 3.451s6.169-1.32 8.283-3.45l0.001-0.001c2.131-2.114 3.451-5.045 3.451-8.283s-1.32-6.169-3.45-8.283l-0.001-0.001zM70 186.667c-12.887 0-23.333-10.447-23.333-23.333s10.447-23.333 23.333-23.333v0c6.443 0 11.667-5.223 11.667-11.667v0c0.012-5.783 0.864-11.363 2.439-16.63l-0.106 0.413 74.55 74.55zM214.9 95.9c-12.867-29.196-41.543-49.212-74.897-49.233h-0.003c-0.112-0.001-0.245-0.001-0.378-0.001-9.574 0-18.748 1.711-27.233 4.844l0.545-0.176c-4.081 1.876-6.863 5.929-6.863 10.632 0 6.443 5.223 11.667 11.667 11.667 1.029 0 2.027-0.133 2.978-0.384l-0.081 0.018c5.679-2.070 12.235-3.267 19.070-3.267 0.104 0 0.209 0 0.313 0.001h-0.016c25.475 0.019 47.127 16.366 55.059 39.141l0.124 0.409c1.378 4.054 4.813 7.063 9.030 7.806l0.070 0.010c16.531 3.004 28.902 17.29 28.902 34.465 0 8.104-2.754 15.564-7.378 21.497l0.059-0.078c-1.563 1.967-2.508 4.487-2.508 7.227 0 3.674 1.698 6.951 4.352 9.089l0.022 0.018c1.963 1.585 4.484 2.55 7.23 2.567h0.004c3.68-0.018 6.955-1.736 9.082-4.409l0.018-0.024c7.726-9.802 12.392-22.33 12.392-35.947 0-26.234-17.318-48.424-41.146-55.76l-0.413-0.11z"></path>
</svg>
