<!-- Generated by IcoMoon.io -->
<svg version="1.1" xmlns="http://www.w3.org/2000/svg" width="280" height="280" viewBox="0 0 280 280">
<title>club</title>
<path fill="#ebebeb" d="M245 145.833c-0.106-27.030-16.849-50.124-40.516-59.58l-0.434-0.153c0-35.438-28.728-64.167-64.167-64.167s-64.167 28.728-64.167 64.167v0c-24.050 9.623-40.73 32.73-40.73 59.733 0 35.438 28.728 64.167 64.167 64.167 0.005 0 0.009 0 0.014 0h2.333c-3.164 10.706-8.121 20.006-14.588 28.039l0.121-0.156c-1.511 1.947-2.423 4.426-2.423 7.118 0 6.393 5.141 11.584 11.515 11.666h87.741c0.012 0 0.026 0 0.040 0 6.443 0 11.667-5.223 11.667-11.667 0-2.796-0.983-5.362-2.623-7.371l0.017 0.021c-6.321-7.814-11.274-17.032-14.318-27.079l-0.149-0.571h2.333c35.412-0.066 64.1-28.755 64.167-64.16v-0.006zM117.367 233.333c4.371-8.654 7.671-18.696 9.371-29.273l0.079-0.594c5.027-2.349 9.36-5.075 13.305-8.261l-0.121 0.095c3.824 3.092 8.156 5.818 12.794 8.002l0.389 0.165c1.779 11.171 5.079 21.213 9.722 30.464l-0.272-0.597zM149.1 171.5l-1.867-1.867h-0.817l-2.1-1.050-2.1-0.7h-4.433l-2.1 0.7c-0.759 0.251-1.418 0.608-1.998 1.061l0.014-0.011h-0.933l-1.867 1.867c-7.546 9.277-18.961 15.155-31.749 15.155-22.552 0-40.833-18.282-40.833-40.833 0-19.457 13.608-35.735 31.826-39.837l0.273-0.052c0.726-0.295 1.34-0.608 1.923-0.966l-0.056 0.032c0.83-0.304 1.523-0.618 2.188-0.977l-0.088 0.043c0.612-0.453 1.148-0.951 1.623-1.504l0.011-0.013c1.148-0.912 2.005-2.146 2.437-3.565l0.013-0.051c0.35-0.571 0.63-1.232 0.806-1.934l0.010-0.049c0.054-0.351 0.085-0.755 0.085-1.167s-0.031-0.816-0.091-1.211l0.005 0.044c0.027-0.297 0.042-0.643 0.042-0.992s-0.015-0.695-0.045-1.036l0.003 0.044c-0.056-0.785-0.087-1.701-0.087-2.625s0.031-1.84 0.094-2.748l-0.007 0.123c0-22.552 18.282-40.833 40.833-40.833s40.833 18.282 40.833 40.833v0c0.056 0.785 0.087 1.701 0.087 2.625s-0.031 1.84-0.094 2.748l0.007-0.123c-0.030 0.28-0.046 0.605-0.046 0.933s0.017 0.654 0.049 0.973l-0.003-0.040c-0.056 0.368-0.087 0.793-0.087 1.225s0.032 0.857 0.093 1.272l-0.006-0.047c0.186 0.751 0.467 1.413 0.835 2.015l-0.018-0.031c0.445 1.47 1.302 2.704 2.435 3.605l0.015 0.011c0.485 0.566 1.021 1.064 1.607 1.498l0.026 0.019c0.577 0.315 1.27 0.63 1.985 0.896l0.115 0.037c0.521 0.286 1.137 0.562 1.776 0.789l0.091 0.028c18.491 4.153 32.099 20.432 32.099 39.888 0 22.552-18.282 40.833-40.833 40.833-12.788 0-24.202-5.878-31.69-15.080l-0.059-0.075z"></path>
</svg>
