<!-- Generated by IcoMoon.io -->
<svg version="1.1" xmlns="http://www.w3.org/2000/svg" width="280" height="280" viewBox="0 0 280 280">
<title>comment-alt-edit</title>
<path fill="#ebebeb" d="M215.833 64.167h-46.667c-6.443 0-11.667 5.223-11.667 11.667s5.223 11.667 11.667 11.667v0h46.667c6.443 0 11.667 5.223 11.667 11.667v0 113.4l-18.317-16.917c-2.071-1.943-4.861-3.139-7.931-3.15h-102.085c-6.443 0-11.667-5.223-11.667-11.667v0-11.667c0-6.443-5.223-11.667-11.667-11.667s-11.667 5.223-11.667 11.667v0 11.667c0 19.33 15.67 35 35 35v0h97.533l35 31.85c2.071 1.943 4.861 3.139 7.931 3.15h0.002c1.686-0.019 3.287-0.36 4.752-0.964l-0.085 0.031c4.155-1.847 7-5.937 7-10.693 0-0.014 0-0.028 0-0.043v0.002-140c0-0.001 0-0.002 0-0.003 0-19.33-15.67-35-35-35-0.164 0-0.328 0.001-0.491 0.003l0.025-0zM105.933 145.833h28.233c6.443 0 11.667-5.223 11.667-11.667v0-28.233c0-0.020 0-0.044 0-0.068 0-3.205-1.292-6.108-3.384-8.217l-65.099-65.099c-2.109-2.097-5.016-3.393-8.225-3.393s-6.116 1.296-8.226 3.393l-28.349 28.349c-2.097 2.109-3.393 5.016-3.393 8.225s1.296 6.116 3.393 8.226l65.099 65.099c2.108 2.091 5.011 3.384 8.216 3.384 0.024 0 0.047 0 0.071-0h-0.004zM69.067 57.283l53.433 53.433v11.667h-11.667l-53.55-53.317z"></path>
</svg>
