<!-- Generated by IcoMoon.io -->
<svg version="1.1" xmlns="http://www.w3.org/2000/svg" width="280" height="280" viewBox="0 0 280 280">
<title>corner-up-right</title>
<path fill="#ebebeb" d="M228.783 84.583c-0.623-1.499-1.491-2.779-2.566-3.85l-54.017-54.017c-2.109-2.097-5.016-3.393-8.225-3.393s-6.116 1.296-8.226 3.393l0.001-0.001c-2.131 2.114-3.451 5.045-3.451 8.283s1.32 6.169 3.45 8.283l34.068 34.068h-93.333c-25.773 0-46.667 20.893-46.667 46.667v0 120.983c0 6.443 5.223 11.667 11.667 11.667s11.667-5.223 11.667-11.667v0-120.983c0-12.887 10.447-23.333 23.333-23.333v0h93.333l-34.067 34.067c-2.132 2.114-3.451 5.045-3.451 8.284 0 6.443 5.223 11.667 11.667 11.667 0.024 0 0.048 0 0.072-0h-0.004c3.202-0.047 6.085-1.377 8.165-3.498l0.002-0.002 54.017-53.9c1.042-1.127 1.905-2.439 2.532-3.877l0.035-0.090c0.539-1.294 0.851-2.798 0.851-4.375s-0.313-3.081-0.88-4.452l0.028 0.077z"></path>
</svg>
