<!-- Generated by IcoMoon.io -->
<svg version="1.1" xmlns="http://www.w3.org/2000/svg" width="280" height="280" viewBox="0 0 280 280">
<title>corner-right-down</title>
<path fill="#ebebeb" d="M253.283 155.75c-2.114-2.131-5.045-3.451-8.283-3.451s-6.169 1.32-8.283 3.45l-34.068 34.068v-93.333c0-25.773-20.893-46.667-46.667-46.667v0h-120.983c-6.443 0-11.667 5.223-11.667 11.667s5.223 11.667 11.667 11.667v0h120.983c12.887 0 23.333 10.447 23.333 23.333v0 93.333l-34.067-34.067c-2.146-2.205-5.142-3.573-8.458-3.573-6.516 0-11.798 5.282-11.798 11.798 0 3.2 1.274 6.102 3.342 8.228l-0.002-0.003 53.9 54.017c1.095 1.033 2.367 1.894 3.763 2.531l0.087 0.036c1.305 0.591 2.829 0.936 4.433 0.936s3.129-0.345 4.502-0.964l-0.069 0.028c1.499-0.623 2.779-1.491 3.85-2.566l54.017-54.017c2.239-2.13 3.633-5.132 3.633-8.46 0-3.095-1.205-5.908-3.171-7.996l0.005 0.006z"></path>
</svg>
