<!-- Generated by IcoMoon.io -->
<svg version="1.1" xmlns="http://www.w3.org/2000/svg" width="280" height="280" viewBox="0 0 280 280">
<title>dollar-sign</title>
<path fill="#ebebeb" d="M163.333 128.333h-46.667c-12.887 0-23.333-10.447-23.333-23.333s10.447-23.333 23.333-23.333v0h58.333c6.443 0 11.667 5.223 11.667 11.667v0c0 6.443 5.223 11.667 11.667 11.667s11.667-5.223 11.667-11.667v0c0-19.33-15.67-35-35-35v0h-23.333v-23.333c0-6.443-5.223-11.667-11.667-11.667s-11.667 5.223-11.667 11.667v0 23.333h-11.667c-25.773 0-46.667 20.893-46.667 46.667s20.893 46.667 46.667 46.667v0h46.667c12.887 0 23.333 10.447 23.333 23.333s-10.447 23.333-23.333 23.333v0h-58.333c-6.443 0-11.667-5.223-11.667-11.667v0c0-6.443-5.223-11.667-11.667-11.667s-11.667 5.223-11.667 11.667v0c0 19.33 15.67 35 35 35v0h23.333v23.333c0 6.443 5.223 11.667 11.667 11.667s11.667-5.223 11.667-11.667v0-23.333h11.667c25.773 0 46.667-20.893 46.667-46.667s-20.893-46.667-46.667-46.667v0z"></path>
</svg>
