<!-- Generated by IcoMoon.io -->
<svg version="1.1" xmlns="http://www.w3.org/2000/svg" width="280" height="280" viewBox="0 0 280 280">
<title>dribbble</title>
<path fill="#ebebeb" d="M140 23.333c-64.433 0-116.667 52.233-116.667 116.667s52.233 116.667 116.667 116.667c64.433 0 116.667-52.233 116.667-116.667v0c0-64.433-52.233-116.667-116.667-116.667v0zM140 46.667c0.011 0 0.024 0 0.037 0 24.962 0 47.617 9.873 64.275 25.927l-0.028-0.027c-16.112 9.644-34.741 18.25-54.299 24.834l-2.051 0.599c-10.573-18.078-21.637-33.676-33.902-48.227l0.419 0.51c7.652-2.288 16.445-3.608 25.545-3.617h0.005zM92.050 60.083c11.662 13.283 22.481 27.963 31.994 43.527l0.79 1.39c-21.001 5.435-45.121 8.581-69.967 8.633h-4.233c6.887-22.826 21.624-41.505 41.005-53.317l0.412-0.233zM70 201.95c-14.483-16.209-23.336-37.718-23.336-61.294 0-0.231 0.001-0.461 0.002-0.691l-0 0.035c0-1.167 0-2.333 0-3.383h7.933c29.177-0.269 57.254-4.512 83.864-12.211l-2.198 0.544c3.733 7.117 7.233 14.467 10.617 22.050-19.203 6.876-35.8 16.407-50.341 28.349l0.291-0.232-3.5 2.8c-8.338 7.508-15.964 15.356-23.044 23.684l-0.29 0.349zM140 233.333c-0.061 0-0.133 0-0.205 0-19.395 0-37.395-5.976-52.258-16.187l0.313 0.203c5.773-6.601 11.717-12.619 18.005-18.261l0.195-0.172 3.733-3.15c13.22-11.178 28.718-20.173 45.636-26.165l1.031-0.318c6.269 16.259 11.913 35.813 15.936 55.951l0.397 2.382c-9.615 3.621-20.728 5.718-32.331 5.718-0.159 0-0.318-0-0.477-0.001h0.024zM194.017 215.95c-4.473-20.558-9.615-37.968-15.844-54.852l0.91 2.819h3.967c0.21-0.054 0.451-0.085 0.7-0.085s0.49 0.031 0.72 0.090l-0.020-0.004h8.050c12.928 0.038 25.316 2.3 36.818 6.424l-0.768-0.24c-6.634 18.969-18.666 34.654-34.242 45.655l-0.291 0.195zM192.5 140c-2.45 0-4.9 0-7.233 0-0.683-0.091-1.473-0.143-2.275-0.143s-1.592 0.052-2.366 0.152l0.091-0.010c-3.522 0.22-6.763 0.635-9.935 1.244l0.485-0.078h-1.167c-3.383-7.817-6.883-15.4-10.733-23.333 22.95-7.971 42.716-17.429 61.2-28.77l-1.35 0.77c8.861 14.015 14.12 31.073 14.12 49.36 0 0.284-0.001 0.567-0.004 0.85l0-0.043c0 1.983 0 3.967 0 5.95-11.813-3.779-25.401-5.957-39.498-5.957-0.469 0-0.938 0.002-1.407 0.007l0.072-0.001z"></path>
</svg>
