<!-- Generated by IcoMoon.io -->
<svg version="1.1" xmlns="http://www.w3.org/2000/svg" width="280" height="280" viewBox="0 0 280 280">
<title>edit-alt</title>
<path fill="#ebebeb" d="M58.333 210h49.467c0.020 0 0.044 0 0.068 0 3.205 0 6.108-1.292 8.217-3.384l-0.001 0.001 80.733-80.85 33.133-32.433c2.131-2.114 3.451-5.045 3.451-8.283s-1.32-6.169-3.45-8.283l-0.001-0.001-49.467-50.050c-2.114-2.131-5.045-3.451-8.283-3.451s-6.169 1.32-8.283 3.45l-0.001 0.001-32.9 33.017-80.967 80.85c-2.091 2.108-3.384 5.011-3.384 8.216 0 0.024 0 0.047 0 0.071v-0.004 49.467c0 6.443 5.223 11.667 11.667 11.667v0zM172.2 51.45l33.017 33.017-16.567 16.567-33.017-33.017zM70 153.65l69.183-69.183 33.017 33.017-69.183 69.183h-33.017zM245 233.333h-210c-6.443 0-11.667 5.223-11.667 11.667s5.223 11.667 11.667 11.667v0h210c6.443 0 11.667-5.223 11.667-11.667s-5.223-11.667-11.667-11.667v0z"></path>
</svg>
