<!-- Generated by IcoMoon.io -->
<svg version="1.1" xmlns="http://www.w3.org/2000/svg" width="280" height="280" viewBox="0 0 280 280">
<title>envelope-receive</title>
<path fill="#ebebeb" d="M96.717 72.45l23.333 23.333c2.114 2.131 5.045 3.451 8.283 3.451s6.169-1.32 8.283-3.45l0.001-0.001c2.131-2.114 3.451-5.045 3.451-8.283s-1.32-6.169-3.45-8.283l-0.001-0.001-3.5-3.383h41.883c6.443 0 11.667-5.223 11.667-11.667s-5.223-11.667-11.667-11.667v0h-41.883l3.5-3.383c2.12-2.12 3.431-5.048 3.431-8.283 0-6.47-5.245-11.714-11.714-11.714-3.235 0-6.164 1.311-8.283 3.431l-23.333 23.333c-1.032 1.077-1.862 2.356-2.422 3.771l-0.028 0.079c-0.553 1.311-0.875 2.834-0.875 4.433s0.322 3.123 0.904 4.51l-0.029-0.077c0.588 1.494 1.418 2.773 2.454 3.854l-0.004-0.004zM186.667 122.5h-93.333c-19.33 0-35 15.67-35 35v0 58.333c0 19.33 15.67 35 35 35v0h93.333c19.33 0 35-15.67 35-35v0-58.333c0-19.33-15.67-35-35-35v0zM181.767 145.833l-33.6 33.6c-2.103 2.062-4.986 3.335-8.167 3.335s-6.064-1.273-8.169-3.337l-33.598-33.598zM198.333 215.833c0 6.443-5.223 11.667-11.667 11.667v0h-93.333c-6.443 0-11.667-5.223-11.667-11.667v0-53.55l33.6 33.483c6.238 6.408 14.948 10.384 24.586 10.384 0.052 0 0.103 0 0.155-0h-0.008c9.661-0.009 18.405-3.931 24.733-10.266l33.6-33.6z"></path>
</svg>
