<!-- Generated by IcoMoon.io -->
<svg version="1.1" xmlns="http://www.w3.org/2000/svg" width="280" height="280" viewBox="0 0 280 280">
<title>euro-circle</title>
<path fill="#ebebeb" d="M140 11.667c-70.877 0-128.333 57.457-128.333 128.333s57.457 128.333 128.333 128.333c70.877 0 128.333-57.457 128.333-128.333v0c0-70.877-57.457-128.333-128.333-128.333v0zM140 245c-57.99 0-105-47.010-105-105s47.010-105 105-105c57.99 0 105 47.010 105 105v0c0 57.99-47.010 105-105 105v0zM146.883 89.483c12.556 0.331 23.594 6.551 30.49 15.99l0.077 0.11c2.153 2.803 5.506 4.592 9.277 4.592 2.664 0 5.12-0.893 7.084-2.396l-0.028 0.021c2.793-2.154 4.575-5.501 4.575-9.264 0-2.722-0.932-5.226-2.495-7.211l0.019 0.025c-11.248-15.118-28.951-24.888-48.951-25.199l-0.049-0.001c-27.87 0.836-51.264 19.098-59.716 44.225l-0.134 0.458h-17.033c-6.443 0-11.667 5.223-11.667 11.667s5.223 11.667 11.667 11.667v0h11.667c0 1.983 0 3.85 0 5.833s0 3.85 0 5.833h-11.667c-6.443 0-11.667 5.223-11.667 11.667s5.223 11.667 11.667 11.667v0h17.033c8.586 25.586 31.98 43.847 59.753 44.681l0.097 0.002c20.049-0.312 37.752-10.082 48.882-25.035l0.118-0.165c2.294-2.136 3.724-5.174 3.724-8.545 0-6.443-5.223-11.667-11.667-11.667-4.586 0-8.554 2.646-10.46 6.494l-0.031 0.068c-6.973 9.549-18.010 15.769-30.515 16.099l-0.051 0.001c-14.872-0.606-27.59-9.264-33.962-21.708l-0.105-0.225h27.183c6.443 0 11.667-5.223 11.667-11.667s-5.223-11.667-11.667-11.667v0h-34.417c-0.286-1.683-0.495-3.693-0.58-5.734l-0.003-0.099c0.088-2.14 0.297-4.15 0.622-6.12l-0.039 0.287h34.417c6.443 0 11.667-5.223 11.667-11.667s-5.223-11.667-11.667-11.667v0h-27.183c6.619-12.434 19.305-20.865 34.002-21.348l0.065-0.002z"></path>
</svg>
