<!-- Generated by IcoMoon.io -->
<svg version="1.1" xmlns="http://www.w3.org/2000/svg" width="280" height="280" viewBox="0 0 280 280">
<title>file-shield-alt</title>
<path fill="#ebebeb" d="M122.5 233.333h-58.333c-6.443 0-11.667-5.223-11.667-11.667v0-163.333c0-6.443 5.223-11.667 11.667-11.667v0h58.333v35c0 19.33 15.67 35 35 35v0h35c0 6.443 5.223 11.667 11.667 11.667s11.667-5.223 11.667-11.667v0-11.667s0 0 0-0.7c-0.136-1.174-0.382-2.24-0.732-3.257l0.032 0.107v-1.050c-0.594-1.255-1.336-2.333-2.222-3.273l0.006 0.006-70-70c-0.934-0.88-2.011-1.622-3.191-2.184l-0.075-0.032c-0.158-0.024-0.34-0.037-0.525-0.037s-0.367 0.013-0.545 0.040l0.020-0.002-3.733-1.283h-70.7c-19.33 0-35 15.67-35 35v0 163.333c0 19.33 15.67 35 35 35v0h58.333c6.443 0 11.667-5.223 11.667-11.667s-5.223-11.667-11.667-11.667v0zM145.833 63.117l30.217 30.217h-18.55c-6.443 0-11.667-5.223-11.667-11.667v0zM87.5 93.333c-6.443 0-11.667 5.223-11.667 11.667s5.223 11.667 11.667 11.667v0h11.667c6.443 0 11.667-5.223 11.667-11.667s-5.223-11.667-11.667-11.667v0zM246.517 161.7c-1.986-1.617-4.548-2.596-7.337-2.596-0.872 0-1.722 0.096-2.54 0.277l0.078-0.014c-2.003 0.442-4.304 0.695-6.663 0.695-7.143 0-13.744-2.317-19.094-6.241l0.091 0.063c-1.903-1.404-4.295-2.247-6.883-2.247s-4.98 0.843-6.916 2.27l0.032-0.023c-5.27 3.856-11.88 6.17-19.030 6.17-2.35 0-4.642-0.25-6.85-0.725l0.213 0.038c-0.737-0.166-1.584-0.261-2.453-0.261-6.443 0-11.667 5.223-11.667 11.667 0 0.092 0.001 0.183 0.003 0.274l-0-0.014v27.3c0 0.034 0 0.075 0 0.116 0 17.497 8.373 33.039 21.332 42.836l0.135 0.098 18.2 12.95c1.926 1.457 4.361 2.333 7 2.333s5.074-0.877 7.029-2.355l-0.029 0.021 18.2-13.533c12.972-9.803 21.311-25.145 21.466-42.442l0-0.025v-27.65c-0.025-3.619-1.693-6.843-4.296-8.967l-0.021-0.017zM227.5 198.333c0.001 0.107 0.002 0.232 0.002 0.358 0 9.719-4.536 18.377-11.605 23.976l-0.064 0.049-11.667 8.4-11.667-8.4c-7.133-5.647-11.669-14.307-11.669-24.025 0-0.126 0.001-0.252 0.002-0.378l-0 0.019v-14.933c8.603-0.398 16.58-2.727 23.62-6.559l-0.287 0.143c6.753 3.69 14.73 6.019 23.213 6.412l0.121 0.004zM122.5 187.25h-35c-6.443 0-11.667 5.223-11.667 11.667s5.223 11.667 11.667 11.667v0h35c6.443 0 11.667-5.223 11.667-11.667s-5.223-11.667-11.667-11.667v0zM134.167 140.583h-46.667c-6.443 0-11.667 5.223-11.667 11.667s5.223 11.667 11.667 11.667v0h46.667c6.443 0 11.667-5.223 11.667-11.667s-5.223-11.667-11.667-11.667v0z"></path>
</svg>
