<!-- Generated by IcoMoon.io -->
<svg version="1.1" xmlns="http://www.w3.org/2000/svg" width="280" height="280" viewBox="0 0 280 280">
<title>filter</title>
<path fill="#ebebeb" d="M221.667 23.333h-163.333c-19.33 0-35 15.67-35 35v0 13.65c0 0.004 0 0.008 0 0.012 0 5.059 1.074 9.868 3.005 14.211l-0.089-0.223v0.7c1.739 3.894 4.055 7.219 6.882 10.032l71.868 71.401v76.883c0 0.007 0 0.015 0 0.023 0 4.152 2.169 7.797 5.435 9.865l0.048 0.028c1.746 1.098 3.87 1.75 6.146 1.75 0.013 0 0.026 0 0.039 0h-0.002c1.919-0.012 3.724-0.485 5.315-1.314l-0.065 0.031 46.667-23.333c3.826-1.959 6.403-5.869 6.417-10.381v-53.552l71.4-71.4c2.828-2.814 5.145-6.139 6.8-9.826l0.083-0.207v-0.7c1.995-4.092 3.226-8.884 3.382-13.947l0.001-0.053v-13.65c0-19.33-15.67-35-35-35v0zM155.050 155.050c-2.091 2.108-3.384 5.011-3.384 8.216 0 0.024 0 0.047 0 0.071v-0.004 51.1l-23.333 11.667v-62.767c0-0.020 0-0.044 0-0.068 0-3.205-1.292-6.108-3.384-8.217l0.001 0.001-61.833-61.717h153.767zM233.333 70h-186.667v-11.667c0-6.443 5.223-11.667 11.667-11.667v0h163.333c6.443 0 11.667 5.223 11.667 11.667v0z"></path>
</svg>
