<!-- Generated by IcoMoon.io -->
<svg version="1.1" xmlns="http://www.w3.org/2000/svg" width="280" height="280" viewBox="0 0 280 280">
<title>folder-info</title>
<path fill="#ebebeb" d="M140 157.5c-6.443 0-11.667 5.223-11.667 11.667v0 23.333c0 6.443 5.223 11.667 11.667 11.667s11.667-5.223 11.667-11.667v0-23.333c0-6.443-5.223-11.667-11.667-11.667v0zM221.667 64.167h-73.267l-3.733-11.667c-4.95-13.71-17.85-23.334-32.998-23.334-0.048 0-0.095 0-0.142 0h-53.193c-19.33 0-35 15.67-35 35v0 151.667c0 19.33 15.67 35 35 35v0h163.333c19.33 0 35-15.67 35-35v0-116.667c0-19.33-15.67-35-35-35v0zM233.333 215.833c0 6.443-5.223 11.667-11.667 11.667v0h-163.333c-6.443 0-11.667-5.223-11.667-11.667v0-151.667c0-6.443 5.223-11.667 11.667-11.667v0h53.2c0.009 0 0.019 0 0.030 0 5.107 0 9.448 3.282 11.029 7.851l0.025 0.082 6.3 19.133c1.605 4.652 5.946 7.933 11.053 7.933 0.011 0 0.021 0 0.032 0h81.665c6.443 0 11.667 5.223 11.667 11.667v0zM148.283 125.883c-2.105-2.078-5-3.362-8.194-3.362-1.633 0-3.187 0.336-4.598 0.941l0.076-0.029c-1.502 0.566-2.785 1.399-3.851 2.451l0.001-0.001c-2.057 2.154-3.337 5.065-3.383 8.274v0.009c0.014 3.187 1.303 6.070 3.384 8.167l-0.001-0.001c2.114 2.131 5.045 3.451 8.283 3.451s6.169-1.32 8.283-3.45l0.001-0.001c2.080-2.096 3.37-4.98 3.383-8.164v-0.003c-0.020-1.606-0.361-3.127-0.962-4.509l0.029 0.075c-0.566-1.502-1.399-2.785-2.451-3.851l0.001 0.001z"></path>
</svg>
