<!-- Generated by IcoMoon.io -->
<svg version="1.1" xmlns="http://www.w3.org/2000/svg" width="280" height="280" viewBox="0 0 280 280">
<title>folder-heart</title>
<path fill="#ebebeb" d="M140 114.8c-4.641-2.524-10.162-4.007-16.030-4.007-18.814 0-34.067 15.252-34.067 34.067 0 9.458 3.854 18.016 10.078 24.188l31.735 31.735c2.114 2.131 5.045 3.451 8.283 3.451s6.169-1.32 8.283-3.45l31.734-31.734c6.226-6.175 10.080-14.733 10.080-24.19 0-18.814-15.252-34.067-34.067-34.067-5.868 0-11.389 1.484-16.21 4.096l0.18-0.089zM163.333 152.483l-23.333 23.333-23.333-23.333c-1.939-1.942-3.137-4.622-3.137-7.583s1.199-5.642 3.138-7.584l-0 0c1.942-1.939 4.622-3.137 7.583-3.137s5.642 1.199 7.584 3.138l-0-0c2.114 2.131 5.045 3.451 8.283 3.451s6.169-1.32 8.283-3.45l0.001-0.001c1.906-1.761 4.464-2.841 7.275-2.841 5.928 0 10.733 4.805 10.733 10.733 0 2.81-1.080 5.369-2.848 7.282l0.007-0.007zM221.667 64.167h-73.267l-3.733-11.667c-4.95-13.71-17.85-23.334-32.998-23.334-0.048 0-0.095 0-0.142 0h-53.193c-19.33 0-35 15.67-35 35v0 151.667c0 19.33 15.67 35 35 35v0h163.333c19.33 0 35-15.67 35-35v0-116.667c0-19.33-15.67-35-35-35v0zM233.333 215.833c0 6.443-5.223 11.667-11.667 11.667v0h-163.333c-6.443 0-11.667-5.223-11.667-11.667v0-151.667c0-6.443 5.223-11.667 11.667-11.667v0h53.2c0.009 0 0.019 0 0.030 0 5.107 0 9.448 3.282 11.029 7.851l0.025 0.082 6.3 19.133c1.605 4.652 5.946 7.933 11.053 7.933 0.011 0 0.021 0 0.032 0h81.665c6.443 0 11.667 5.223 11.667 11.667v0z"></path>
</svg>
