<!-- Generated by IcoMoon.io -->
<svg version="1.1" xmlns="http://www.w3.org/2000/svg" width="280" height="280" viewBox="0 0 280 280">
<title>football-ball</title>
<path fill="#ebebeb" d="M254.8 64.867c-1.652-10.335-6.423-19.344-13.302-26.252l0.002 0.002c-6.906-6.877-15.915-11.648-25.978-13.264l-0.272-0.036c-6.915-1.005-14.899-1.579-23.017-1.579-93.106 0-168.583 75.477-168.583 168.583 0 8.045 0.564 15.959 1.653 23.704l-0.103-0.892c1.652 10.335 6.423 19.344 13.302 26.252l-0.002-0.002c6.906 6.877 15.915 11.648 25.978 13.264l0.272 0.036c7.285 1.246 15.685 1.966 24.251 1.983h0.016c46.158-0.339 87.827-19.28 117.937-49.687l0.013-0.013c30.593-30.131 49.547-72.005 49.547-118.306 0-8.395-0.623-16.644-1.825-24.703l0.112 0.91zM49.117 214.317c-0.301-0.77-0.582-1.707-0.793-2.67l-0.024-0.13c-0.933-6.126-1.466-13.194-1.466-20.387 0-39.795 16.318-75.779 42.629-101.626l0.021-0.021c25.932-26.171 61.779-42.478 101.436-42.816l0.064-0.001c0.191-0.001 0.417-0.002 0.643-0.002 7.025 0 13.911 0.595 20.61 1.737l-0.72-0.101c1.093 0.234 2.030 0.515 2.934 0.862l-0.134-0.045-57.517 57.633-8.517-8.517c-2.114-2.131-5.045-3.451-8.283-3.451s-6.169 1.32-8.283 3.45l-0.001 0.001c-2.097 2.109-3.393 5.016-3.393 8.225s1.296 6.116 3.393 8.226l8.516 8.516-17.033 16.8-8.517-8.517c-2.109-2.097-5.016-3.393-8.225-3.393s-6.116 1.296-8.226 3.393l0.001-0.001c-2.131 2.114-3.451 5.045-3.451 8.283s1.32 6.169 3.45 8.283l8.518 8.518zM190.517 190.983c-25.88 26.077-61.739 42.22-101.368 42.22-7.291 0-14.455-0.547-21.453-1.601l0.787 0.098c-1.093-0.234-2.030-0.515-2.934-0.862l0.134 0.045 57.517-57.633 8.517 8.517c2.115 2.13 5.045 3.448 8.283 3.448 6.447 0 11.673-5.226 11.673-11.673 0-3.209-1.295-6.115-3.391-8.226l0.001 0.001-8.283-8.517 16.8-16.8 8.517 8.517c2.108 2.091 5.011 3.384 8.216 3.384 0.024 0 0.047 0 0.071-0h-0.004c6.422-0.028 11.618-5.24 11.618-11.666 0-3.239-1.32-6.169-3.45-8.283l-8.518-8.518 57.633-57.517c0.301 0.77 0.582 1.707 0.793 2.67l0.024 0.13c0.915 6.065 1.437 13.063 1.437 20.183 0 39.781-16.306 75.753-42.6 101.597l-0.020 0.020z"></path>
</svg>
