<!-- Generated by IcoMoon.io -->
<svg version="1.1" xmlns="http://www.w3.org/2000/svg" width="280" height="280" viewBox="0 0 280 280">
<title>globe</title>
<path fill="#ebebeb" d="M249.783 100.8s0 0 0-0.583c-16.842-45.049-59.518-76.543-109.55-76.543s-92.708 31.494-109.286 75.738l-0.264 0.805s0 0 0 0.583c-4.361 11.661-6.885 25.136-6.885 39.2s2.524 27.539 7.144 39.996l-0.259-0.796s0 0 0 0.583c16.842 45.049 59.518 76.543 109.55 76.543s92.708-31.494 109.286-75.738l0.264-0.805s0 0 0-0.583c4.361-11.661 6.885-25.136 6.885-39.2s-2.524-27.539-7.144-39.996l0.259 0.796zM49.7 163.333c-1.927-7-3.034-15.037-3.034-23.333s1.107-16.334 3.182-23.973l-0.148 0.639h21.7c-0.891 7.005-1.4 15.11-1.4 23.333s0.509 16.328 1.496 24.285l-0.096-0.951zM59.267 186.667h16.333c3.050 11.437 7.036 21.403 12.038 30.743l-0.372-0.76c-11.451-7.871-20.841-17.894-27.763-29.553l-0.237-0.431zM75.6 93.333h-16.333c7.065-12.065 16.337-22.082 27.349-29.784l0.301-0.2c-4.515 8.579-8.388 18.555-11.1 28.998l-0.217 0.985zM128.333 229.833c-14.046-10.39-24.188-25.357-28.251-42.666l-0.099-0.501h28.35zM128.333 163.333h-33.367c-1.039-7.011-1.633-15.103-1.633-23.333s0.594-16.323 1.74-24.236l-0.107 0.902h33.367zM128.333 93.333h-28.35c4.162-17.81 14.304-32.777 28.149-43.025l0.201-0.142zM220.733 93.333h-16.333c-3.050-11.437-7.036-21.402-12.038-30.743l0.372 0.76c11.451 7.871 20.841 17.894 27.763 29.553l0.237 0.431zM151.667 50.167c14.046 10.39 24.188 25.357 28.251 42.666l0.099 0.501h-28.35zM151.667 229.833v-43.167h28.35c-4.162 17.81-14.304 32.777-28.149 43.025l-0.201 0.142zM185.033 163.333h-33.367v-46.667h33.367c1.039 7.011 1.633 15.103 1.633 23.333s-0.594 16.323-1.74 24.236l0.107-0.902zM193.083 216.65c4.63-8.581 8.616-18.547 11.438-28.991l0.228-0.992h16.333c-7.159 12.089-16.549 22.112-27.685 29.778l-0.315 0.205zM230.3 163.333h-21.7c0.892-6.887 1.401-14.852 1.401-22.937 0-0.139-0-0.279-0.001-0.418v0.022c0-0.093 0-0.203 0-0.313 0-8.114-0.509-16.109-1.496-23.955l0.096 0.934h21.7c1.927 7 3.034 15.037 3.034 23.333s-1.107 16.334-3.182 23.973l0.148-0.639z"></path>
</svg>
