<!-- Generated by IcoMoon.io -->
<svg version="1.1" xmlns="http://www.w3.org/2000/svg" width="280" height="280" viewBox="0 0 280 280">
<title>hard-hat</title>
<path fill="#ebebeb" d="M233.333 153.65v-1.983c0-0.025 0-0.055 0-0.085 0-26.216-10.809-49.908-28.213-66.862l-0.020-0.020c-10.137-9.871-22.585-17.421-36.452-21.759l-0.648-0.175h-0.583c-8.634-2.818-18.571-4.443-28.886-4.443-0.468 0-0.935 0.003-1.401 0.010l0.071-0.001c-50.48 2.856-90.356 44.401-90.533 95.299v0.017c-13.737 4.935-23.385 17.849-23.385 33.017 0 19.33 15.67 35 35 35 0.018 0 0.037 0 0.055 0h163.33c0.016 0 0.034 0 0.052 0 19.33 0 35-15.67 35-35 0-15.167-9.648-28.081-23.142-32.94l-0.244-0.077zM221.667 198.333h-163.333c-6.443 0-11.667-5.223-11.667-11.667s5.223-11.667 11.667-11.667v0h23.333c6.443 0 11.667-5.223 11.667-11.667s-5.223-11.667-11.667-11.667v0h-11.667c1.147-25.308 14.706-47.217 34.695-59.903l0.305-0.181v36.75c0 6.443 5.223 11.667 11.667 11.667s11.667-5.223 11.667-11.667v0-45.617c2.719-0.483 6.007-0.857 9.347-1.040l0.22-0.010h2.1c4.151 0.039 8.178 0.462 12.079 1.235l-0.412-0.068v45.5c0 6.443 5.223 11.667 11.667 11.667s11.667-5.223 11.667-11.667v0-37.1c5.21 3.044 9.719 6.402 13.818 10.196l-0.051-0.046c13.103 12.735 21.233 30.527 21.233 50.218 0 0.023 0 0.046 0 0.069v-0.004h-11.667c-6.443 0-11.667 5.223-11.667 11.667s5.223 11.667 11.667 11.667v0h23.333c6.443 0 11.667 5.223 11.667 11.667s-5.223 11.667-11.667 11.667v0z"></path>
</svg>
