<!-- Generated by IcoMoon.io -->
<svg version="1.1" xmlns="http://www.w3.org/2000/svg" width="280" height="280" viewBox="0 0 280 280">
<title>head-side</title>
<path fill="#ebebeb" d="M154.355 23.373c-0.976-0.040-2.122-0.062-3.273-0.062-23.517 0-44.83 9.438-60.357 24.734l0.011-0.010c-16.391 15.812-26.569 37.97-26.569 62.504 0 0.104 0 0.208 0.001 0.311v-0.016 0.353l-22.217 47.174c-0.705 1.458-1.117 3.171-1.117 4.98 0 6.44 5.22 11.66 11.66 11.66 0.002 0 0.005 0 0.007 0h11.666v23.333c0.015 12.881 10.453 23.318 23.332 23.333h11.668v23.333c0 6.443 5.223 11.667 11.667 11.667s11.667-5.223 11.667-11.667v0-23.333c6.443 0 11.667-5.223 11.667-11.667s-5.223-11.667-11.667-11.667v0h-35v-35c0-0.001 0-0.002 0-0.003 0-6.442-5.222-11.664-11.664-11.664-0.001 0-0.002 0-0.003 0h-4.945l15.631-33.183c0.703-1.449 1.115-3.152 1.115-4.951 0-0.164-0.004-0.327-0.010-0.49l0.001 0.023c0-0.12-0.114-2.113-0.125-2.233-0-0.066-0-0.145-0-0.223 0-17.989 7.464-34.235 19.464-45.81l0.019-0.018c11.585-11.207 27.391-18.114 44.809-18.114 0.653 0 1.304 0.010 1.953 0.029l-0.095-0.002c34.809 2.238 62.194 31.018 62.194 66.195 0 0.394-0.004 0.788-0.010 1.181l0.001-0.059-22.946 87.557c-0.245 0.897-0.385 1.926-0.385 2.988 0 1.153 0.166 2.268 0.474 3.321l-0.021-0.083 11.667 40.44c1.454 4.909 5.92 8.431 11.21 8.437h0.001c1.154-0.004 2.267-0.173 3.32-0.483l-0.084 0.021c4.91-1.452 8.432-5.921 8.432-11.213 0-1.152-0.167-2.265-0.478-3.316l0.021 0.083-10.778-37.336 22.513-84.771c0.243-0.897 0.384-1.926 0.387-2.989v-2.657c0.003-0.288 0.005-0.628 0.005-0.968 0-47.844-37.412-86.95-84.577-89.66l-0.24-0.011z"></path>
</svg>
