<!-- Generated by IcoMoon.io -->
<svg version="1.1" xmlns="http://www.w3.org/2000/svg" width="280" height="280" viewBox="0 0 280 280">
<title>home</title>
<path fill="#ebebeb" d="M252.7 119.583l-105-93.333c-2.043-1.802-4.743-2.902-7.7-2.902s-5.657 1.1-7.713 2.913l0.013-0.011-105 93.333c-2.42 2.148-3.937 5.266-3.937 8.738 0 1.515 0.289 2.962 0.814 4.291l-0.028-0.079c1.73 4.395 5.931 7.452 10.848 7.467h11.669v105c0 6.443 5.223 11.667 11.667 11.667v0h163.333c6.443 0 11.667-5.223 11.667-11.667v0-105h11.667c4.919-0.015 9.12-3.072 10.822-7.387l0.028-0.079c0.498-1.249 0.787-2.697 0.787-4.212 0-3.473-1.517-6.591-3.925-8.728l-0.012-0.010zM151.667 233.333h-23.333v-35c0-6.443 5.223-11.667 11.667-11.667s11.667 5.223 11.667 11.667v0zM210 233.333h-35v-35c0-19.33-15.67-35-35-35s-35 15.67-35 35v0 35h-35v-93.333h140zM65.683 116.667l74.317-66.033 74.317 66.033z"></path>
</svg>
