<!-- Generated by IcoMoon.io -->
<svg version="1.1" xmlns="http://www.w3.org/2000/svg" width="280" height="280" viewBox="0 0 280 280">
<title>horizontal-distribution-right</title>
<path fill="#ebebeb" d="M221.667 23.333c-6.443 0-11.667 5.223-11.667 11.667v0 11.667h-58.333c-6.443 0-11.667 5.223-11.667 11.667v0 163.333c0 6.443 5.223 11.667 11.667 11.667v0h58.333v11.667c0 6.443 5.223 11.667 11.667 11.667s11.667-5.223 11.667-11.667v0-210c0-6.443-5.223-11.667-11.667-11.667v0zM210 210h-46.667v-140h46.667zM105 23.333c-6.443 0-11.667 5.223-11.667 11.667v0 23.333h-35c-6.443 0-11.667 5.223-11.667 11.667v0 140c0 6.443 5.223 11.667 11.667 11.667v0h35v23.333c0 6.443 5.223 11.667 11.667 11.667s11.667-5.223 11.667-11.667v0-210c0-6.443-5.223-11.667-11.667-11.667v0zM93.333 198.333h-23.333v-116.667h23.333z"></path>
</svg>
