<!-- Generated by IcoMoon.io -->
<svg version="1.1" xmlns="http://www.w3.org/2000/svg" width="280" height="280" viewBox="0 0 280 280">
<title>hospital</title>
<path fill="#ebebeb" d="M145.833 192.5h-11.667c-6.443 0-11.667 5.223-11.667 11.667s5.223 11.667 11.667 11.667v0h11.667c6.443 0 11.667-5.223 11.667-11.667s-5.223-11.667-11.667-11.667v0zM145.833 145.833h-11.667c-6.443 0-11.667 5.223-11.667 11.667s5.223 11.667 11.667 11.667v0h11.667c6.443 0 11.667-5.223 11.667-11.667s-5.223-11.667-11.667-11.667v0zM87.5 192.5h-11.667c-6.443 0-11.667 5.223-11.667 11.667s5.223 11.667 11.667 11.667v0h11.667c6.443 0 11.667-5.223 11.667-11.667s-5.223-11.667-11.667-11.667v0zM87.5 145.833h-11.667c-6.443 0-11.667 5.223-11.667 11.667s5.223 11.667 11.667 11.667v0h11.667c6.443 0 11.667-5.223 11.667-11.667s-5.223-11.667-11.667-11.667v0zM250.833 75.833h-35v-46.667c0-0.001 0-0.002 0-0.003 0-6.442-5.222-11.664-11.664-11.664-0.001 0-0.002 0-0.003 0h-128.333c-0.001 0-0.002 0-0.003 0-6.442 0-11.664 5.222-11.664 11.664 0 0.001 0 0.002 0 0.003v-0 46.667h-35c-0.001 0-0.002 0-0.003 0-6.442 0-11.664 5.222-11.664 11.664 0 0.001 0 0.002 0 0.003v-0 163.333c0 0.001 0 0.002 0 0.003 0 6.442 5.222 11.664 11.664 11.664 0.001 0 0.002 0 0.003 0h221.666c0.001 0 0.002 0 0.003 0 6.442 0 11.664-5.222 11.664-11.664 0-0.001 0-0.002 0-0.003v0-163.333c0-0.001 0-0.002 0-0.003 0-6.442-5.222-11.664-11.664-11.664-0.001 0-0.002 0-0.003 0h0zM239.167 239.167h-198.333v-140h35c0.001 0 0.002 0 0.003 0 6.442 0 11.664-5.222 11.664-11.664 0-0.001 0-0.002 0-0.003v0-46.667h105v46.667c0 0.001 0 0.002 0 0.003 0 6.442 5.222 11.664 11.664 11.664 0.001 0 0.002 0 0.003 0h35zM192.5 145.833c-6.443 0-11.667 5.223-11.667 11.667s5.223 11.667 11.667 11.667v0h11.667c6.443 0 11.667-5.223 11.667-11.667s-5.223-11.667-11.667-11.667v0zM157.5 81.667h-5.833v-5.833c0-6.443-5.223-11.667-11.667-11.667s-11.667 5.223-11.667 11.667v0 5.833h-5.833c-6.443 0-11.667 5.223-11.667 11.667s5.223 11.667 11.667 11.667v0h5.833v5.833c0 6.443 5.223 11.667 11.667 11.667s11.667-5.223 11.667-11.667v0-5.833h5.833c6.443 0 11.667-5.223 11.667-11.667s-5.223-11.667-11.667-11.667v0zM204.167 192.5h-11.667c-6.443 0-11.667 5.223-11.667 11.667s5.223 11.667 11.667 11.667v0h11.667c6.443 0 11.667-5.223 11.667-11.667s-5.223-11.667-11.667-11.667v0z"></path>
</svg>
