<!-- Generated by IcoMoon.io -->
<svg version="1.1" xmlns="http://www.w3.org/2000/svg" width="280" height="280" viewBox="0 0 280 280">
<title>image-search</title>
<path fill="#ebebeb" d="M221.667 151.667c-6.443 0-11.667 5.223-11.667 11.667v0 4.55l-17.267-17.267c-5.881-5.836-13.982-9.443-22.925-9.443s-17.044 3.607-22.927 9.445l0.002-0.002-8.167 8.167-28.933-29.050c-5.975-5.624-14.047-9.079-22.925-9.079s-16.95 3.455-22.942 9.095l0.017-0.016-17.267 17.383v-65.45c0-6.443 5.223-11.667 11.667-11.667v0h46.667c6.443 0 11.667-5.223 11.667-11.667s-5.223-11.667-11.667-11.667v0h-46.667c-19.33 0-35 15.67-35 35v0 140c0 19.33 15.67 35 35 35v0h140c19.33 0 35-15.67 35-35v0-58.333c0-6.443-5.223-11.667-11.667-11.667v0zM58.333 233.333c-6.443 0-11.667-5.223-11.667-11.667v0-41.65l33.833-33.717c1.65-1.575 3.891-2.544 6.358-2.544s4.708 0.969 6.362 2.548l87.030 87.030zM210 221.667c-0.081 2.368-0.855 4.54-2.125 6.337l0.025-0.037-52.617-52.967 8.167-8.050c1.632-1.664 3.904-2.696 6.417-2.696s4.785 1.032 6.415 2.695l0.001 0.001 33.717 33.95zM253.283 120.050l-19.95-20.067c4.674-7.491 7.446-16.588 7.446-26.332 0-27.771-22.513-50.283-50.283-50.283s-50.283 22.513-50.283 50.283c0 13.882 5.625 26.45 14.721 35.549v0c8.949 9.003 21.311 14.605 34.982 14.7h0.018c0.187 0.002 0.409 0.004 0.63 0.004 9.636 0 18.642-2.691 26.31-7.364l-0.223 0.126 20.067 20.183c2.114 2.131 5.045 3.451 8.283 3.451s6.169-1.32 8.283-3.45l0.001-0.001c2.203-2.125 3.57-5.103 3.57-8.4s-1.368-6.275-3.567-8.397l-0.004-0.003zM210 93.333c-4.904 4.936-11.697 7.992-19.203 7.992-14.949 0-27.067-12.118-27.067-27.067s12.118-27.067 27.067-27.067c7.506 0 14.299 3.055 19.201 7.99l0.001 0.001c4.86 4.892 7.864 11.633 7.864 19.075s-3.004 14.183-7.865 19.076l0.001-0.001z"></path>
</svg>
