<!-- Generated by IcoMoon.io -->
<svg version="1.1" xmlns="http://www.w3.org/2000/svg" width="280" height="280" viewBox="0 0 280 280">
<title>image-alt-slash</title>
<path fill="#ebebeb" d="M253.283 236.717l-10.85-10.85-1.050-1.167-0.7-0.817-5.833-5.833-1.517-0.817-60.433-60.667-1.050-0.933-37.333-37.45-1.167-1.517-90.067-89.95c-2.12-2.12-5.048-3.431-8.283-3.431-6.47 0-11.714 5.245-11.714 11.714 0 3.235 1.311 6.164 3.431 8.283l11.667 11.667c-2.135 4.394-3.383 9.557-3.383 15.013 0 0.013 0 0.026 0 0.039v-0.002 140c0 19.33 15.67 35 35 35v0h140c5.415-0.067 10.504-1.396 15.007-3.705l-0.191 0.089s0 0 0.583 0l11.083 11.667c2.114 2.131 5.045 3.451 8.283 3.451s6.169-1.32 8.283-3.45l0.001-0.001c2.133-2.115 3.453-5.046 3.453-8.286 0-3.122-1.227-5.958-3.224-8.052l0.004 0.005zM58.333 74.783l37.8 37.8c-2.992 1.561-5.564 3.425-7.826 5.609l0.010-0.009-29.983 30.1zM70 221.667c-6.443 0-11.667-5.223-11.667-11.667v0-28.7l46.667-46.667c1.68-1.557 3.937-2.513 6.417-2.513s4.737 0.955 6.423 2.518l-0.006-0.005 87.383 87.033zM112.7 58.333h97.3c6.443 0 11.667 5.223 11.667 11.667v0 69.3c-2.12-2.12-5.048-3.431-8.283-3.431-6.47 0-11.714 5.245-11.714 11.714 0 3.235 1.311 6.164 3.431 8.283l20.3 20.3c2.114 2.131 5.045 3.451 8.283 3.451s6.169-1.32 8.283-3.45l0.001-0.001c2.092-2.108 3.385-5.012 3.385-8.217 0-0.064-0.001-0.129-0.002-0.192v0.010-97.767c0-19.33-15.67-35-35-35v0h-97.65c-6.443 0-11.667 5.223-11.667 11.667s5.223 11.667 11.667 11.667v0z"></path>
</svg>
