<!-- Generated by IcoMoon.io -->
<svg version="1.1" xmlns="http://www.w3.org/2000/svg" width="280" height="280" viewBox="0 0 280 280">
<title>keyboard-show</title>
<path fill="#ebebeb" d="M78.283 120.050c-2.114-2.132-5.045-3.451-8.284-3.451-6.443 0-11.667 5.223-11.667 11.667 0 0.024 0 0.048 0 0.072v-0.004c-0.001 0.041-0.001 0.089-0.001 0.137 0 6.443 5.223 11.667 11.667 11.667s11.667-5.223 11.667-11.667c0-1.651-0.343-3.222-0.962-4.646l0.029 0.075c-0.588-1.494-1.418-2.773-2.454-3.854l0.004 0.004zM108.383 89.95c2.108 2.091 5.011 3.384 8.216 3.384 0.024 0 0.047 0 0.071-0h-0.004c0.020 0 0.044 0 0.068 0 3.205 0 6.108-1.292 8.217-3.384l-0.001 0.001c0.997-1.094 1.822-2.367 2.417-3.762l0.033-0.088c0.572-1.306 0.913-2.827 0.933-4.426v-0.007c-0.046-3.219-1.326-6.129-3.388-8.288l0.004 0.005-1.75-1.4-2.1-1.050c-0.636-0.415-1.376-0.737-2.169-0.924l-0.048-0.010c-0.689-0.144-1.48-0.227-2.291-0.227-3.202 0-6.102 1.29-8.21 3.378l0.001-0.001c-1.032 1.077-1.862 2.356-2.422 3.771l-0.028 0.079c-0.591 1.305-0.936 2.829-0.936 4.433s0.345 3.129 0.964 4.502l-0.028-0.069c0.605 1.572 1.433 2.926 2.463 4.099l-0.013-0.015zM76.533 71.983c-0.605-0.416-1.299-0.771-2.038-1.031l-0.062-0.019-2.1-0.933c-0.718-0.157-1.542-0.247-2.387-0.247-3.212 0-6.12 1.298-8.23 3.397l0.001-0.001c-1.032 1.077-1.862 2.356-2.422 3.771l-0.028 0.079c-0.591 1.305-0.936 2.829-0.936 4.433s0.345 3.129 0.964 4.502l-0.028-0.069c0.628 1.483 1.453 2.756 2.46 3.861l-0.010-0.011c1.094 0.997 2.367 1.822 3.763 2.417l0.087 0.033c1.282 0.703 2.804 1.131 4.423 1.166l0.011 0c0.020 0 0.044 0 0.068 0 3.205 0 6.108-1.292 8.217-3.384l-0.001 0.001c0.997-1.094 1.822-2.367 2.417-3.762l0.033-0.088c0.572-1.306 0.913-2.827 0.933-4.426v-0.007c-0.046-3.219-1.326-6.129-3.388-8.288l0.004 0.005zM148.283 213.383c-2.114-2.131-5.045-3.451-8.283-3.451s-6.169 1.32-8.283 3.45l-23.334 23.334c-2.12 2.12-3.431 5.048-3.431 8.283 0 6.47 5.245 11.714 11.714 11.714 3.235 0 6.164-1.311 8.283-3.431v0l15.050-15.167 15.050 15.167c2.114 2.131 5.045 3.451 8.283 3.451s6.169-1.32 8.283-3.45l0.001-0.001c2.131-2.114 3.451-5.045 3.451-8.283s-1.32-6.169-3.45-8.283l-0.001-0.001zM218.283 120.050c-2.114-2.131-5.045-3.451-8.283-3.451s-6.169 1.32-8.283 3.45l-0.001 0.001c-1.032 1.077-1.862 2.356-2.422 3.771l-0.028 0.079c-0.529 1.284-0.835 2.774-0.835 4.335 0 6.443 5.223 11.667 11.667 11.667 1.562 0 3.052-0.307 4.413-0.864l-0.078 0.028c1.483-0.628 2.756-1.453 3.861-2.46l-0.011 0.010c2.091-2.108 3.384-5.011 3.384-8.216 0-0.024 0-0.047-0-0.071v0.004c0.002-0.075 0.003-0.164 0.003-0.252 0-1.519-0.345-2.957-0.962-4.24l0.025 0.059c-0.588-1.494-1.418-2.773-2.454-3.854l0.004 0.004zM163.333 116.667h-46.667c-6.443 0-11.667 5.223-11.667 11.667s5.223 11.667 11.667 11.667v0h46.667c6.443 0 11.667-5.223 11.667-11.667s-5.223-11.667-11.667-11.667v0zM233.333 23.333h-186.667c-19.33 0-35 15.67-35 35v0 93.333c0 19.33 15.67 35 35 35v0h186.667c19.33 0 35-15.67 35-35v0-93.333c0-19.33-15.67-35-35-35v0zM245 151.667c0 6.443-5.223 11.667-11.667 11.667v0h-186.667c-6.443 0-11.667-5.223-11.667-11.667v0-93.333c0-6.443 5.223-11.667 11.667-11.667v0h186.667c6.443 0 11.667 5.223 11.667 11.667v0zM205.567 70.933c-1.502 0.566-2.785 1.399-3.851 2.451l0.001-0.001c-2.057 2.154-3.337 5.065-3.383 8.274v0.009c0.020 1.606 0.361 3.127 0.963 4.509l-0.029-0.075c0.628 1.483 1.453 2.756 2.46 3.861l-0.010-0.011c2.108 2.091 5.011 3.384 8.216 3.384 0.024 0 0.047 0 0.071-0h-0.004c0.020 0 0.044 0 0.068 0 3.205 0 6.108-1.292 8.217-3.384l-0.001 0.001c0.997-1.094 1.822-2.367 2.417-3.763l0.033-0.088c0.572-1.306 0.913-2.827 0.933-4.426v-0.007c-0.046-3.219-1.326-6.129-3.388-8.288l0.004 0.005c-2.105-2.078-5-3.362-8.194-3.362-1.633 0-3.187 0.336-4.598 0.941l0.076-0.029zM169.867 71.983l-2.1-1.050-2.1-0.933c-0.672-0.138-1.444-0.216-2.235-0.216-1.636 0-3.194 0.337-4.607 0.945l0.076-0.029c-1.502 0.566-2.785 1.399-3.851 2.451l0.001-0.001c-1.032 1.077-1.862 2.356-2.422 3.771l-0.028 0.079c-0.591 1.305-0.936 2.829-0.936 4.433s0.345 3.129 0.964 4.502l-0.028-0.069c0.628 1.483 1.453 2.756 2.46 3.861l-0.010-0.011c2.092 2.192 5.023 3.57 8.275 3.616h0.008c0.020 0 0.044 0 0.068 0 3.205 0 6.108-1.292 8.217-3.384l-0.001 0.001c0.997-1.094 1.822-2.367 2.417-3.763l0.033-0.087c0.572-1.306 0.913-2.827 0.933-4.426v-0.007c-0.046-3.219-1.326-6.129-3.388-8.288l0.004 0.005z"></path>
</svg>
