<!-- Generated by IcoMoon.io -->
<svg version="1.1" xmlns="http://www.w3.org/2000/svg" width="280" height="280" viewBox="0 0 280 280">
<title>label-alt</title>
<path fill="#ebebeb" d="M175 140c0 6.443 5.223 11.667 11.667 11.667s11.667-5.223 11.667-11.667c0-6.443-5.223-11.667-11.667-11.667v0c-6.443 0-11.667 5.223-11.667 11.667v0zM253.283 131.717l-58.333-58.333c-2.108-2.091-5.011-3.384-8.216-3.384-0.024 0-0.047 0-0.071 0h-128.33c-19.33 0-35 15.67-35 35v0 70c0 19.33 15.67 35 35 35v0h128.333c0.020 0 0.044 0 0.068 0 3.205 0 6.108-1.292 8.217-3.384l58.332-58.332c2.131-2.114 3.451-5.045 3.451-8.283s-1.32-6.169-3.45-8.283l-0.001-0.001zM181.883 186.667h-123.55c-6.443 0-11.667-5.223-11.667-11.667v0-70c0-6.443 5.223-11.667 11.667-11.667v0h123.55l46.667 46.667z"></path>
</svg>
