<!-- Generated by IcoMoon.io -->
<svg version="1.1" xmlns="http://www.w3.org/2000/svg" width="280" height="280" viewBox="0 0 280 280">
<title>layers-slash</title>
<path fill="#ebebeb" d="M239.050 162.633l-3.967 2.333c-3.445 2.070-5.714 5.787-5.714 10.034 0 2.195 0.606 4.248 1.66 6.002l-0.029-0.053c2.069 3.446 5.786 5.716 10.033 5.717v0c2.195-0.001 4.249-0.608 6.003-1.663l-0.053 0.029 3.967-2.333c2.926-2.146 4.805-5.571 4.805-9.435 0-6.443-5.223-11.667-11.667-11.667-1.741 0-3.393 0.381-4.877 1.065l0.072-0.030zM135.917 74.2l4.083-2.45 81.667 46.667-20.533 11.667c-3.558 2.044-5.915 5.822-5.915 10.15 0 6.443 5.223 11.667 11.667 11.667 0.029 0 0.057 0 0.086-0h-0.004c0.024 0 0.052 0 0.081 0 2.115 0 4.099-0.563 5.809-1.547l-0.057 0.030 38.033-22.050c3.557-2.044 5.914-5.821 5.914-10.15s-2.357-8.106-5.858-10.12l-0.057-0.030-105-60.55c-1.673-0.983-3.686-1.563-5.833-1.563s-4.16 0.581-5.888 1.593l0.055-0.030-9.917 5.717c-3.535 2.059-5.873 5.832-5.873 10.15 0 6.465 5.241 11.707 11.707 11.707 2.147 0 4.159-0.578 5.889-1.587l-0.056 0.030zM43.283 26.717c-2.12-2.12-5.048-3.431-8.283-3.431-6.47 0-11.714 5.245-11.714 11.714 0 3.235 1.311 6.164 3.431 8.283v0l42.467 42.35-40.017 23.333c-3.557 2.044-5.914 5.821-5.914 10.15s2.357 8.106 5.858 10.12l0.057 0.030 105 60.667c1.687 0.926 3.692 1.483 5.823 1.516h0.010c2.142-0.052 4.143-0.608 5.904-1.551l-0.071 0.034 17.5-10.267 16.917 17.033-40.133 23.333-99.283-57.517c-1.674-0.979-3.686-1.557-5.833-1.557-6.465 0-11.707 5.241-11.707 11.707 0 4.318 2.338 8.091 5.818 10.12l0.056 0.030 105 60.667c1.673 0.983 3.686 1.563 5.833 1.563s4.16-0.581 5.888-1.593l-0.055 0.030 51.45-29.75 39.433 39.55c2.114 2.131 5.045 3.451 8.283 3.451s6.169-1.32 8.283-3.45l0.001-0.001c2.131-2.114 3.451-5.045 3.451-8.283s-1.32-6.169-3.45-8.283l-0.001-0.001zM140 166.717l-81.667-47.833 28-16.1 59.733 59.85z"></path>
</svg>
