<!-- Generated by IcoMoon.io -->
<svg version="1.1" xmlns="http://www.w3.org/2000/svg" width="280" height="280" viewBox="0 0 280 280">
<title>letter-english-a</title>
<path fill="#ebebeb" d="M221.319 230.502l-42.246-168.99c-3.913-15.345-17.611-26.512-33.917-26.512-0.014 0-0.028 0-0.043 0h-10.23c-0.012 0-0.026 0-0.040 0-16.306 0-30.004 11.167-33.864 26.27l-0.053 0.242-42.246 168.99c-0.221 0.85-0.349 1.826-0.349 2.831 0 6.444 5.224 11.668 11.668 11.668 5.438 0 10.008-3.721 11.301-8.756l0.017-0.081 15.29-61.165h86.781l15.29 61.165c1.311 5.116 5.881 8.837 11.319 8.837 6.444 0 11.668-5.224 11.668-11.668 0-1.005-0.127-1.981-0.366-2.912l0.017 0.081zM102.443 151.667l21.123-84.492c1.301-5.117 5.867-8.841 11.303-8.841 0.005 0 0.011 0 0.017 0h10.231c0.005 0 0.010 0 0.016 0 5.436 0 10.002 3.724 11.286 8.761l0.017 0.081 21.122 84.492z"></path>
</svg>
