<!-- Generated by IcoMoon.io -->
<svg version="1.1" xmlns="http://www.w3.org/2000/svg" width="280" height="280" viewBox="0 0 280 280">
<title>linkedin</title>
<path fill="#ebebeb" d="M238.817 23.333h-197.633c-0.070-0.001-0.152-0.002-0.235-0.002-9.261 0-16.784 7.442-16.915 16.673l-0 0.012v199.967c0.131 9.243 7.654 16.685 16.915 16.685 0.083 0 0.165-0.001 0.247-0.002l-0.013 0h197.633c0.070 0.001 0.152 0.002 0.235 0.002 9.261 0 16.784-7.442 16.915-16.673l0-0.012v-199.967c-0.131-9.243-7.654-16.685-16.915-16.685-0.083 0-0.165 0.001-0.247 0.002l0.013-0zM94.383 218.633h-35v-105h35zM76.883 98.933v0c-10.052 0-18.2-8.148-18.2-18.2s8.148-18.2 18.2-18.2v0c0.619-0.074 1.337-0.117 2.064-0.117 10.116 0 18.317 8.201 18.317 18.317s-8.201 18.317-18.317 18.317c-0.727 0-1.445-0.042-2.15-0.125l0.086 0.008zM220.617 218.633h-35v-56.35c0-14.117-5.017-23.333-17.733-23.333-8.231 0.062-15.228 5.281-17.924 12.583l-0.043 0.133c-0.757 2.2-1.195 4.734-1.195 7.371 0 0.403 0.010 0.804 0.030 1.201l-0.002-0.056v58.333h-35s0-95.433 0-105h35v14.817c6.161-10.549 17.428-17.524 30.325-17.524 0.454 0 0.907 0.009 1.357 0.026l-0.065-0.002c23.333 0 40.25 15.050 40.25 47.367z"></path>
</svg>
