<!-- Generated by IcoMoon.io -->
<svg version="1.1" xmlns="http://www.w3.org/2000/svg" width="280" height="280" viewBox="0 0 280 280">
<title>lock-access</title>
<path fill="#ebebeb" d="M245 23.333h-70c-6.443 0-11.667 5.223-11.667 11.667s5.223 11.667 11.667 11.667v0h58.333v58.333c0 6.443 5.223 11.667 11.667 11.667s11.667-5.223 11.667-11.667v0-70c0-6.443-5.223-11.667-11.667-11.667v0zM245 163.333c-6.443 0-11.667 5.223-11.667 11.667v0 58.333h-58.333c-6.443 0-11.667 5.223-11.667 11.667s5.223 11.667 11.667 11.667v0h70c6.443 0 11.667-5.223 11.667-11.667v0-70c0-6.443-5.223-11.667-11.667-11.667v0zM140 70c-19.33 0-35 15.67-35 35v0 11.667c-12.887 0-23.333 10.447-23.333 23.333v0 46.667c0 12.887 10.447 23.333 23.333 23.333v0h70c12.887 0 23.333-10.447 23.333-23.333v0-46.667c0-12.887-10.447-23.333-23.333-23.333v0-11.667c0-19.33-15.67-35-35-35v0zM128.333 105c0-6.443 5.223-11.667 11.667-11.667s11.667 5.223 11.667 11.667v0 11.667h-23.333zM175 186.667h-70v-46.667h70zM35 116.667c6.443 0 11.667-5.223 11.667-11.667v0-58.333h58.333c6.443 0 11.667-5.223 11.667-11.667s-5.223-11.667-11.667-11.667v0h-70c-6.443 0-11.667 5.223-11.667 11.667v0 70c0 6.443 5.223 11.667 11.667 11.667v0zM105 233.333h-58.333v-58.333c0-6.443-5.223-11.667-11.667-11.667s-11.667 5.223-11.667 11.667v0 70c0 6.443 5.223 11.667 11.667 11.667v0h70c6.443 0 11.667-5.223 11.667-11.667s-5.223-11.667-11.667-11.667v0z"></path>
</svg>
