<!-- Generated by IcoMoon.io -->
<svg version="1.1" xmlns="http://www.w3.org/2000/svg" width="280" height="280" viewBox="0 0 280 280">
<title>meeting-board</title>
<path fill="#ebebeb" d="M81.667 116.667h23.333c6.443 0 11.667-5.223 11.667-11.667s-5.223-11.667-11.667-11.667v0h-23.333c-6.443 0-11.667 5.223-11.667 11.667s5.223 11.667 11.667 11.667v0zM245 46.667h-93.333v-11.667c0-6.443-5.223-11.667-11.667-11.667s-11.667 5.223-11.667 11.667v0 11.667h-93.333c-6.443 0-11.667 5.223-11.667 11.667v0 116.667c0 19.33 15.67 35 35 35v0h53.55l-26.833 26.717c-2.131 2.114-3.451 5.045-3.451 8.283s1.32 6.169 3.45 8.283l0.001 0.001c2.114 2.131 5.045 3.451 8.283 3.451s6.169-1.32 8.283-3.45l0.001-0.001 26.717-26.833v18.55c0 6.443 5.223 11.667 11.667 11.667s11.667-5.223 11.667-11.667v0-18.55l26.717 26.833c2.114 2.131 5.045 3.451 8.283 3.451s6.169-1.32 8.283-3.45l0.001-0.001c2.131-2.114 3.451-5.045 3.451-8.283s-1.32-6.169-3.45-8.283l-0.001-0.001-26.833-26.717h53.55c19.33 0 35-15.67 35-35v0-116.667c0-6.443-5.223-11.667-11.667-11.667v0zM233.333 175c0 6.443-5.223 11.667-11.667 11.667v0h-163.333c-6.443 0-11.667-5.223-11.667-11.667v0-105h186.667zM81.667 163.333h70c6.443 0 11.667-5.223 11.667-11.667s-5.223-11.667-11.667-11.667v0h-70c-6.443 0-11.667 5.223-11.667 11.667s5.223 11.667 11.667 11.667v0z"></path>
</svg>
