<!-- Generated by IcoMoon.io -->
<svg version="1.1" xmlns="http://www.w3.org/2000/svg" width="280" height="280" viewBox="0 0 280 280">
<title>money-bill</title>
<path fill="#ebebeb" d="M70 128.333c-6.443 0-11.667 5.223-11.667 11.667s5.223 11.667 11.667 11.667c6.443 0 11.667-5.223 11.667-11.667v0c0-6.443-5.223-11.667-11.667-11.667v0zM210 128.333c-6.443 0-11.667 5.223-11.667 11.667s5.223 11.667 11.667 11.667c6.443 0 11.667-5.223 11.667-11.667v0c0-6.443-5.223-11.667-11.667-11.667v0zM233.333 58.333h-186.667c-19.33 0-35 15.67-35 35v0 93.333c0 19.33 15.67 35 35 35v0h186.667c19.33 0 35-15.67 35-35v0-93.333c0-19.33-15.67-35-35-35v0zM245 186.667c0 6.443-5.223 11.667-11.667 11.667v0h-186.667c-6.443 0-11.667-5.223-11.667-11.667v0-93.333c0-6.443 5.223-11.667 11.667-11.667v0h186.667c6.443 0 11.667 5.223 11.667 11.667v0zM140 105c-19.33 0-35 15.67-35 35s15.67 35 35 35c19.33 0 35-15.67 35-35v0c0-19.33-15.67-35-35-35v0zM140 151.667c-6.443 0-11.667-5.223-11.667-11.667s5.223-11.667 11.667-11.667c6.443 0 11.667 5.223 11.667 11.667v0c0 6.443-5.223 11.667-11.667 11.667v0z"></path>
</svg>
