<!-- Generated by IcoMoon.io -->
<svg version="1.1" xmlns="http://www.w3.org/2000/svg" width="280" height="280" viewBox="0 0 280 280">
<title>moon-eclipse</title>
<path fill="#ebebeb" d="M140 23.333c-8.866 0.035-17.476 1.053-25.751 2.951l0.784-0.151h-1.4c-51.898 12.57-89.842 58.624-89.842 113.541 0 54.495 37.362 100.263 87.869 113.086l0.807 0.174h1.633c7.701 2.14 16.589 3.487 25.752 3.73l0.148 0.003c64.433 0 116.667-52.233 116.667-116.667s-52.233-116.667-116.667-116.667v0zM116.667 230.3c-40.44-10.827-69.732-47.143-69.732-90.3s29.292-79.473 69.080-90.151l0.652-0.149c40.44 10.827 69.732 47.143 69.732 90.3s-29.292 79.473-69.080 90.151l-0.652 0.149zM169.517 228.433c24.905-21.519 40.57-53.147 40.57-88.433s-15.666-66.914-40.422-88.308l-0.149-0.126c37.225 12.836 63.489 47.567 63.489 88.433s-26.264 75.598-62.834 88.236l-0.656 0.197z"></path>
</svg>
