<!-- Generated by IcoMoon.io -->
<svg version="1.1" xmlns="http://www.w3.org/2000/svg" width="280" height="280" viewBox="0 0 280 280">
<title>mouse-alt</title>
<path fill="#ebebeb" d="M140 70c-6.443 0-11.667 5.223-11.667 11.667v0 23.333c0 6.443 5.223 11.667 11.667 11.667s11.667-5.223 11.667-11.667v0-23.333c0-6.443-5.223-11.667-11.667-11.667v0zM140 23.333c-45.103 0-81.667 36.564-81.667 81.667v0 70c0 45.103 36.564 81.667 81.667 81.667s81.667-36.564 81.667-81.667v0-70c0-45.103-36.564-81.667-81.667-81.667v0zM198.333 175c0 32.217-26.117 58.333-58.333 58.333s-58.333-26.117-58.333-58.333v0-70c0-32.217 26.117-58.333 58.333-58.333s58.333 26.117 58.333 58.333v0z"></path>
</svg>
