<!-- Generated by IcoMoon.io -->
<svg version="1.1" xmlns="http://www.w3.org/2000/svg" width="280" height="280" viewBox="0 0 280 280">
<title>object-group</title>
<path fill="#ebebeb" d="M186.667 116.667h-23.333v-23.333c0-6.443-5.223-11.667-11.667-11.667v0h-58.333c-6.443 0-11.667 5.223-11.667 11.667v0 58.333c0 6.443 5.223 11.667 11.667 11.667v0h23.333v23.333c0 6.443 5.223 11.667 11.667 11.667v0h58.333c6.443 0 11.667-5.223 11.667-11.667v0-58.333c0-6.443-5.223-11.667-11.667-11.667v0zM116.667 128.333v11.667h-11.667v-35h35v11.667h-11.667c-6.443 0-11.667 5.223-11.667 11.667v0zM175 175h-35v-35h35zM245 213.267v-146.533c7.205-4.064 11.991-11.669 11.991-20.391 0-12.887-10.447-23.333-23.333-23.333-8.722 0-16.327 4.786-20.331 11.875l-0.060 0.116h-146.533c-4.064-7.205-11.669-11.991-20.391-11.991-12.887 0-23.333 10.447-23.333 23.333 0 8.722 4.786 16.327 11.875 20.331l0.116 0.060v146.533c-7.205 4.064-11.991 11.669-11.991 20.391 0 12.887 10.447 23.333 23.333 23.333 8.722 0 16.327-4.786 20.331-11.875l0.060-0.116h146.533c4.064 7.205 11.669 11.991 20.391 11.991 12.887 0 23.333-10.447 23.333-23.333 0-8.722-4.786-16.327-11.875-20.331l-0.116-0.060zM221.667 213.267c-3.528 2.024-6.376 4.872-8.343 8.292l-0.057 0.108h-146.533c-2.024-3.528-4.872-6.376-8.292-8.343l-0.108-0.057v-146.533c3.528-2.024 6.376-4.872 8.343-8.292l0.057-0.108h146.533c2.024 3.528 4.872 6.376 8.292 8.343l0.108 0.057z"></path>
</svg>
