<!-- Generated by IcoMoon.io -->
<svg version="1.1" xmlns="http://www.w3.org/2000/svg" width="280" height="280" viewBox="0 0 280 280">
<title>panorama-v</title>
<path fill="#ebebeb" d="M201.483 140c-0.030-1.432-0.047-3.12-0.047-4.813 0-34.4 7.053-67.154 19.792-96.892l-0.611 1.605c0.749-1.497 1.188-3.262 1.188-5.128 0-2.44-0.749-4.706-2.030-6.578l0.026 0.040c-2.141-2.983-5.599-4.904-9.507-4.904-0.103 0-0.206 0.001-0.309 0.004l0.015-0h-140c-4.096 0.007-7.696 2.124-9.772 5.321l-0.028 0.045c-1.255 1.833-2.004 4.098-2.004 6.538 0 1.867 0.439 3.632 1.218 5.196l-0.031-0.068c12.122 28.129 19.172 60.875 19.172 95.268 0 1.535-0.014 3.067-0.042 4.595l0.003-0.229c0.030 1.432 0.047 3.12 0.047 4.813 0 34.4-7.053 67.154-19.792 96.892l0.611-1.605c-0.749 1.497-1.188 3.262-1.188 5.128 0 2.44 0.749 4.706 2.030 6.578l-0.026-0.040c2.141 2.983 5.599 4.904 9.507 4.904 0.103 0 0.206-0.001 0.309-0.004l-0.015 0h140c4.096-0.007 7.696-2.124 9.772-5.321l0.028-0.045c1.255-1.833 2.004-4.098 2.004-6.538 0-1.867-0.439-3.632-1.218-5.196l0.031 0.068c-12.122-28.129-19.172-60.875-19.172-95.268 0-1.535 0.014-3.067 0.042-4.595l-0.003 0.229zM192.733 233.333h-105c9.253-27.066 14.596-58.249 14.596-90.679 0-0.933-0.004-1.865-0.013-2.796l0.001 0.142c0.002-0.381 0.003-0.831 0.003-1.282 0-32.939-5.511-64.59-15.661-94.083l0.608 2.032h105c-9.253 27.066-14.596 58.249-14.596 90.679 0 0.933 0.004 1.865 0.013 2.796l-0.001-0.142c-0.002 0.381-0.003 0.831-0.003 1.282 0 32.939 5.511 64.59 15.661 94.083l-0.608-2.032z"></path>
</svg>
