<!-- Generated by IcoMoon.io -->
<svg version="1.1" xmlns="http://www.w3.org/2000/svg" width="280" height="280" viewBox="0 0 280 280">
<title>pizza-slice</title>
<path fill="#ebebeb" d="M99.283 145.6c-6.443 0-11.667 5.223-11.667 11.667s5.223 11.667 11.667 11.667c6.443 0 11.667-5.223 11.667-11.667v0c0-6.443-5.223-11.667-11.667-11.667v0zM99.283 93.333c-6.443 0-11.667 5.223-11.667 11.667s5.223 11.667 11.667 11.667c6.443 0 11.667-5.223 11.667-11.667v0c0-6.443-5.223-11.667-11.667-11.667v0zM140 116.667c-6.443 0-11.667 5.223-11.667 11.667v0 11.667c0 6.443 5.223 11.667 11.667 11.667s11.667-5.223 11.667-11.667v0-11.667c0-6.443-5.223-11.667-11.667-11.667v0zM239.167 99.983v0c-5.009-2.932-11.030-4.663-17.455-4.663-3.338 0-6.567 0.467-9.625 1.34l0.247-0.060c-4.895 1.337-9.151 3.588-12.774 6.579l0.057-0.046-135.333-78.283c-1.673-0.983-3.686-1.563-5.833-1.563s-4.16 0.581-5.888 1.593l0.055-0.030c-3.571 2.035-5.942 5.815-5.95 10.149v153.651c-13.683 4.716-23.337 17.481-23.337 32.501 0 0.181 0.001 0.362 0.004 0.543l-0-0.027c0 0.004 0 0.008 0 0.013 0 19.002 15.142 34.467 34.019 34.987l0.048 0.001h6.767c80.163-0.194 150.074-43.895 187.392-108.732l0.558-1.051c2.705-4.851 4.298-10.642 4.298-16.805 0-12.736-6.803-23.884-16.974-30.007l-0.158-0.088zM70 55.183l115.383 66.617c-25.516 37.689-67.315 62.689-115.065 64.855l-0.318 0.011zM231.817 135.45c-33.9 58.92-96.505 97.955-168.227 97.955-1.848 0-3.691-0.026-5.526-0.077l0.27 0.006c-6.443 0-11.667-5.223-11.667-11.667v0c0-0.020-0-0.044-0-0.068 0-3.263 1.339-6.213 3.498-8.33l0.002-0.002c2.095-2.022 4.95-3.267 8.096-3.267 0.025 0 0.049 0 0.074 0h5.946c62.826-0.026 117.641-34.297 146.797-85.158l0.436-0.826c1.433-2.555 3.835-4.422 6.695-5.118l0.072-0.015c0.926-0.264 1.989-0.416 3.088-0.416 2.079 0 4.030 0.544 5.721 1.496l-0.059-0.030c3.685 2.010 6.143 5.856 6.143 10.276 0 1.911-0.459 3.714-1.274 5.306l0.031-0.066z"></path>
</svg>
