<!-- Generated by IcoMoon.io -->
<svg version="1.1" xmlns="http://www.w3.org/2000/svg" width="280" height="280" viewBox="0 0 280 280">
<title>plus4</title>
<path fill="#ebebeb" d="M128.333 105c0 6.443 5.223 11.667 11.667 11.667s11.667-5.223 11.667-11.667v0c0-6.443 5.223-11.667 11.667-11.667v0h11.667c6.443 0 11.667 5.223 11.667 11.667v0 11.667c0 6.443-5.223 11.667-11.667 11.667v0h-11.667c-19.33 0-35 15.67-35 35v0 35c0 6.443 5.223 11.667 11.667 11.667v0h58.333c6.443 0 11.667-5.223 11.667-11.667s-5.223-11.667-11.667-11.667v0h-46.667v-23.333c0-6.443 5.223-11.667 11.667-11.667v0h11.667c19.33 0 35-15.67 35-35v0-11.667c0-19.33-15.67-35-35-35v0h-11.667c-19.33 0-35 15.67-35 35v0zM210 58.333h11.667v11.667c0 6.443 5.223 11.667 11.667 11.667s11.667-5.223 11.667-11.667v0-11.667h11.667c6.443 0 11.667-5.223 11.667-11.667s-5.223-11.667-11.667-11.667v0h-11.667v-11.667c0-6.443-5.223-11.667-11.667-11.667s-11.667 5.223-11.667 11.667v0 11.667h-11.667c-6.443 0-11.667 5.223-11.667 11.667s5.223 11.667 11.667 11.667v0zM81.667 81.667v116.667c0 6.443 5.223 11.667 11.667 11.667s11.667-5.223 11.667-11.667v0-116.667c0-6.443-5.223-11.667-11.667-11.667s-11.667 5.223-11.667 11.667v0zM252 105c-5.365 1.122-9.336 5.813-9.336 11.432 0 0.827 0.086 1.633 0.249 2.411l-0.013-0.076c1.372 6.366 2.157 13.679 2.157 21.176 0 57.99-47.010 105-105 105s-105-47.010-105-105c0-57.99 47.010-105 105-105 7.497 0 14.81 0.786 21.862 2.279l-0.686-0.122c0.701 0.147 1.507 0.231 2.333 0.231 6.571 0 11.898-5.327 11.898-11.898 0-5.745-4.072-10.539-9.487-11.653l-0.077-0.013c-6.939-1.356-14.918-2.132-23.078-2.132-0.992 0-1.982 0.011-2.968 0.034l0.147-0.003c-70.877 0-128.333 57.457-128.333 128.333s57.457 128.333 128.333 128.333c70.877 0 128.333-57.457 128.333-128.333v0c0-0.107 0.001-0.235 0.001-0.362 0-8.958-0.935-17.698-2.712-26.127l0.145 0.822c-1.032-5.475-5.776-9.561-11.475-9.561-0.811 0-1.603 0.083-2.367 0.24l0.075-0.013z"></path>
</svg>
