<!-- Generated by IcoMoon.io -->
<svg version="1.1" xmlns="http://www.w3.org/2000/svg" width="280" height="280" viewBox="0 0 280 280">
<title>sad-cry</title>
<path fill="#ebebeb" d="M140 23.333c-64.287 0.193-116.328 52.352-116.328 116.666 0 50.032 31.494 92.709 75.739 109.286l0.805 0.264h0.7c11.625 4.358 25.060 6.88 39.083 6.88s27.458-2.522 39.875-7.138l-0.791 0.258h0.7c45.050-16.842 76.544-59.518 76.544-109.551 0-64.314-52.040-116.473-116.309-116.666h-0.019zM163.333 230.3c-7 1.927-15.037 3.034-23.333 3.034s-16.334-1.107-23.973-3.182l0.639 0.148v-43.633h46.667zM186.667 220.733v-92.4c6.443 0 11.667-5.223 11.667-11.667s-5.223-11.667-11.667-11.667v0h-23.333c-6.443 0-11.667 5.223-11.667 11.667s5.223 11.667 11.667 11.667v0 35h-46.667v-35c6.443 0 11.667-5.223 11.667-11.667s-5.223-11.667-11.667-11.667v0h-23.333c-6.443 0-11.667 5.223-11.667 11.667s5.223 11.667 11.667 11.667v0 92.4c-28.095-16.438-46.667-46.465-46.667-80.829 0-51.547 41.787-93.333 93.333-93.333s93.333 41.787 93.333 93.333c0 34.364-18.572 64.391-46.226 80.591l-0.441 0.238z"></path>
</svg>
