<!-- Generated by IcoMoon.io -->
<svg version="1.1" xmlns="http://www.w3.org/2000/svg" width="280" height="280" viewBox="0 0 280 280">
<title>server-network</title>
<path fill="#ebebeb" d="M93.333 70c6.443 0 11.667-5.223 11.667-11.667s-5.223-11.667-11.667-11.667c-6.443 0-11.667 5.223-11.667 11.667v0c0 6.443 5.223 11.667 11.667 11.667v0zM245 221.667h-72.1c-3.608-9.934-11.299-17.625-20.99-21.156l-0.243-0.077v-25.433h46.667c19.33 0 35-15.67 35-35v0-23.333c-0.056-9.003-3.502-17.192-9.125-23.361l0.025 0.028c5.598-6.142 9.044-14.33 9.1-23.322v-23.344c0-19.33-15.67-35-35-35v0h-116.667c-19.33 0-35 15.67-35 35v0 23.333c0.056 9.003 3.502 17.192 9.125 23.361l-0.025-0.028c-5.598 6.142-9.044 14.33-9.1 23.322v23.344c0 19.33 15.67 35 35 35v0h46.667v25.433c-9.934 3.608-17.625 11.299-21.156 20.99l-0.077 0.243h-72.1c-6.443 0-11.667 5.223-11.667 11.667s5.223 11.667 11.667 11.667v0h72.1c5.026 13.566 17.854 23.059 32.9 23.059s27.874-9.493 32.821-22.817l0.079-0.242h72.1c6.443 0 11.667-5.223 11.667-11.667s-5.223-11.667-11.667-11.667v0zM70 46.667c0-6.443 5.223-11.667 11.667-11.667v0h116.667c6.443 0 11.667 5.223 11.667 11.667v0 23.333c0 6.443-5.223 11.667-11.667 11.667v0h-116.667c-6.443 0-11.667-5.223-11.667-11.667v0zM81.667 151.667c-6.443 0-11.667-5.223-11.667-11.667v0-23.333c0-6.443 5.223-11.667 11.667-11.667v0h116.667c6.443 0 11.667 5.223 11.667 11.667v0 23.333c0 6.443-5.223 11.667-11.667 11.667v0zM140 245c-6.443 0-11.667-5.223-11.667-11.667s5.223-11.667 11.667-11.667c6.443 0 11.667 5.223 11.667 11.667v0c0 6.443-5.223 11.667-11.667 11.667v0zM93.333 116.667c-6.443 0-11.667 5.223-11.667 11.667s5.223 11.667 11.667 11.667c6.443 0 11.667-5.223 11.667-11.667v0c0-6.443-5.223-11.667-11.667-11.667v0z"></path>
</svg>
