<!-- Generated by IcoMoon.io -->
<svg version="1.1" xmlns="http://www.w3.org/2000/svg" width="280" height="280" viewBox="0 0 280 280">
<title>share</title>
<path fill="#ebebeb" d="M253.248 131.752l-93.333-93.333c-2.111-2.111-5.028-3.417-8.249-3.417-6.443 0-11.666 5.223-11.666 11.666 0 0 0 0 0 0v0 41.357c-65.64 6.256-116.584 61.070-116.667 127.801v17.508c0 0 0 0.001 0 0.001 0 6.443 5.223 11.667 11.667 11.667 3.697 0 6.993-1.72 9.131-4.403l0.018-0.024c22.513-26.648 54.952-44.299 91.544-47.212l0.468-0.030c0.581-0.074 2.039-0.188 3.84-0.302v40.304c0 0 0 0 0 0 0 6.443 5.223 11.666 11.666 11.666 3.222 0 6.138-1.306 8.249-3.417l93.333-93.333c2.111-2.111 3.418-5.027 3.418-8.248s-1.306-6.138-3.418-8.248v0zM163.333 205.169v-24.336c0-0.001 0-0.002 0-0.003 0-6.442-5.222-11.664-11.664-11.664-0.001 0-0.002 0-0.003 0h0c-2.974 0-15.119 0.575-18.218 0.992-32.933 3.116-62.473 15.571-86.515 34.654l0.337-0.258c5.952-52.901 50.405-93.653 104.389-93.721h0.007c0.001 0 0.002 0 0.003 0 6.442 0 11.664-5.222 11.664-11.664 0-0.001 0-0.002 0-0.003v0-24.336l65.169 65.169z"></path>
</svg>
