<!-- Generated by IcoMoon.io -->
<svg version="1.1" xmlns="http://www.w3.org/2000/svg" width="280" height="280" viewBox="0 0 280 280">
<title>shield-slash</title>
<path fill="#ebebeb" d="M253.283 236.717l-210-210c-2.12-2.12-5.048-3.431-8.283-3.431-6.47 0-11.714 5.245-11.714 11.714 0 3.235 1.311 6.164 3.431 8.283v0l19.95 19.833v75.483c0.018 35.078 17.234 66.131 43.673 85.187l0.311 0.213 42.583 30.45c1.88 1.352 4.229 2.163 6.767 2.163s4.887-0.81 6.801-2.187l-0.035 0.024 42.583-30.45c3.733-2.656 7.006-5.336 10.088-8.217l-0.054 0.051 37.333 37.45c2.114 2.131 5.045 3.451 8.283 3.451s6.169-1.32 8.283-3.45l0.001-0.001c2.131-2.114 3.451-5.045 3.451-8.283s-1.32-6.169-3.45-8.283l-0.001-0.001zM175.817 205.1l-35.817 25.55-35.817-25.55c-20.801-14.996-34.183-39.157-34.183-66.444 0-0.020 0-0.040 0-0.059v0.003-52.15l112.817 112.933c-2.217 1.983-4.55 3.85-7 5.717zM117.483 59.15c8.642-2.926 16.082-6.398 23.057-10.566l-0.541 0.299c16.966 10.483 37.534 16.694 59.552 16.694 3.679 0 7.317-0.173 10.906-0.512l-0.459 0.035v73.5c0 0.039 0 0.084 0 0.13 0 4.818-0.424 9.536-1.238 14.121l0.071-0.484c-0.098 0.57-0.155 1.225-0.155 1.894 0 5.798 4.229 10.608 9.771 11.513l0.067 0.009h1.867c0.045 0.001 0.097 0.001 0.15 0.001 5.785 0 10.586-4.21 11.507-9.733l0.009-0.068c0.874-5.249 1.382-11.308 1.4-17.483v-86.817c-0.025-3.619-1.693-6.843-4.296-8.967l-0.021-0.017c-2.001-1.662-4.597-2.67-7.428-2.67-0.798 0-1.577 0.080-2.331 0.233l0.075-0.013c-5.865 1.33-12.6 2.092-19.514 2.092-19.93 0-38.381-6.334-53.449-17.099l0.28 0.19c-1.856-1.302-4.162-2.081-6.65-2.081s-4.794 0.779-6.687 2.106l0.037-0.025c-6.713 4.69-14.434 8.641-22.677 11.471l-0.657 0.196c-4.668 1.606-7.962 5.96-7.962 11.083 0 6.459 5.236 11.695 11.695 11.695 1.336 0 2.62-0.224 3.816-0.637l-0.082 0.025z"></path>
</svg>
