<!-- Generated by IcoMoon.io -->
<svg version="1.1" xmlns="http://www.w3.org/2000/svg" width="280" height="280" viewBox="0 0 280 280">
<title>shopping-bag</title>
<path fill="#ebebeb" d="M221.667 81.667h-35v-11.667c0-25.773-20.893-46.667-46.667-46.667s-46.667 20.893-46.667 46.667v0 11.667h-35c-6.443 0-11.667 5.223-11.667 11.667v0 128.333c0 19.33 15.67 35 35 35v0h116.667c19.33 0 35-15.67 35-35v0-128.333c0-6.443-5.223-11.667-11.667-11.667v0zM116.667 70c0-12.887 10.447-23.333 23.333-23.333s23.333 10.447 23.333 23.333v0 11.667h-46.667zM210 221.667c0 6.443-5.223 11.667-11.667 11.667v0h-116.667c-6.443 0-11.667-5.223-11.667-11.667v0-116.667h23.333v11.667c0 6.443 5.223 11.667 11.667 11.667s11.667-5.223 11.667-11.667v0-11.667h46.667v11.667c0 6.443 5.223 11.667 11.667 11.667s11.667-5.223 11.667-11.667v0-11.667h23.333z"></path>
</svg>
