<!-- Generated by IcoMoon.io -->
<svg version="1.1" xmlns="http://www.w3.org/2000/svg" width="280" height="280" viewBox="0 0 280 280">
<title>signal-alt-3</title>
<path fill="#ebebeb" d="M163.333 105h-46.667c-6.443 0-11.667 5.223-11.667 11.667v0 140c0 6.443 5.223 11.667 11.667 11.667v0h46.667c6.443 0 11.667-5.223 11.667-11.667v0-140c0-6.443-5.223-11.667-11.667-11.667v0zM151.667 245h-23.333v-116.667h23.333zM256.667 11.667h-46.667c-6.443 0-11.667 5.223-11.667 11.667v0 233.333c0 6.443 5.223 11.667 11.667 11.667v0h46.667c6.443 0 11.667-5.223 11.667-11.667v0-233.333c0-6.443-5.223-11.667-11.667-11.667v0zM245 245h-23.333v-210h23.333zM70 175h-46.667c-6.443 0-11.667 5.223-11.667 11.667v0 70c0 6.443 5.223 11.667 11.667 11.667v0h46.667c6.443 0 11.667-5.223 11.667-11.667v0-70c0-6.443-5.223-11.667-11.667-11.667v0zM58.333 245h-23.333v-46.667h23.333z"></path>
</svg>
