<!-- Generated by IcoMoon.io -->
<svg version="1.1" xmlns="http://www.w3.org/2000/svg" width="280" height="280" viewBox="0 0 280 280">
<title>silent-squint</title>
<path fill="#ebebeb" d="M89.367 142.45c2.108 2.091 5.011 3.384 8.216 3.384 0.024 0 0.047 0 0.071-0h-0.004c0.020 0 0.044 0 0.068 0 3.205 0 6.108-1.292 8.217-3.384l17.499-17.499c2.131-2.114 3.451-5.045 3.451-8.283s-1.32-6.169-3.45-8.283l-17.501-17.501c-2.12-2.12-5.048-3.431-8.283-3.431-6.47 0-11.714 5.245-11.714 11.714 0 3.235 1.311 6.164 3.431 8.283v0l9.333 9.217-9.333 9.217c-2.131 2.114-3.451 5.045-3.451 8.283s1.32 6.169 3.45 8.283l0.001 0.001zM176.867 142.45c2.108 2.091 5.011 3.384 8.216 3.384 0.024 0 0.047 0 0.071-0h-0.004c0.020 0 0.044 0 0.068 0 3.205 0 6.108-1.292 8.217-3.384l-0.001 0.001c2.131-2.114 3.451-5.045 3.451-8.283s-1.32-6.169-3.45-8.283l-9.218-9.218 9.217-9.217c2.12-2.12 3.431-5.048 3.431-8.283 0-6.47-5.245-11.714-11.714-11.714-3.235 0-6.164 1.311-8.283 3.431l-17.5 17.5c-2.131 2.114-3.451 5.045-3.451 8.283s1.32 6.169 3.45 8.283l0.001 0.001zM178.15 165.783c-1.926-1.457-4.361-2.333-7-2.333s-5.074 0.877-7.029 2.355l0.029-0.021-8.633 6.417-8.517-6.417c-1.926-1.457-4.361-2.333-7-2.333s-5.074 0.877-7.029 2.355l0.029-0.021-8.517 6.417-8.633-6.417c-1.926-1.457-4.361-2.333-7-2.333s-5.074 0.877-7.029 2.355l0.029-0.021-15.517 11.667c-2.846 2.151-4.667 5.53-4.667 9.333 0 6.443 5.223 11.667 11.667 11.667 2.639 0 5.074-0.877 7.029-2.355l-0.029 0.021 8.517-6.417 8.633 6.417c0.401 0.258 0.862 0.493 1.347 0.682l0.053 0.018c0.74 0.404 1.598 0.726 2.503 0.922l0.064 0.011h5.6c1.468-0.44 2.747-1.077 3.89-1.894l-0.040 0.027 8.517-6.417 8.517 6.417c1.913 1.428 4.324 2.286 6.936 2.286 1.713 0 3.339-0.369 4.804-1.032l-0.074 0.030 1.167-0.583c0.491-0.175 0.916-0.412 1.293-0.708l-0.010 0.008 8.633-6.417 8.517 6.417c1.926 1.457 4.361 2.333 7 2.333v0c3.804 0 7.182-1.82 9.312-4.637l0.021-0.029c1.457-1.926 2.333-4.361 2.333-7 0-3.804-1.82-7.182-4.637-9.312l-0.029-0.021zM140 23.333c-64.433 0-116.667 52.233-116.667 116.667s52.233 116.667 116.667 116.667c64.433 0 116.667-52.233 116.667-116.667v0c0-64.433-52.233-116.667-116.667-116.667v0zM140 233.333c-51.547 0-93.333-41.787-93.333-93.333s41.787-93.333 93.333-93.333c51.547 0 93.333 41.787 93.333 93.333v0c0 51.547-41.787 93.333-93.333 93.333v0z"></path>
</svg>
