<!-- Generated by IcoMoon.io -->
<svg version="1.1" xmlns="http://www.w3.org/2000/svg" width="280" height="280" viewBox="0 0 280 280">
<title>skip-forward-circle</title>
<path fill="#ebebeb" d="M180.833 81.667c-6.443 0-11.667 5.223-11.667 11.667v0 19.717l-46.667-26.95c-3.347-1.965-7.371-3.126-11.667-3.126-12.878 0-23.32 10.433-23.333 23.308v67.435c0.009 8.582 4.65 16.078 11.557 20.124l0.11 0.060c3.347 1.965 7.371 3.126 11.667 3.126s8.32-1.161 11.777-3.186l-0.11 0.060 46.667-26.95v19.717c0 6.443 5.223 11.667 11.667 11.667s11.667-5.223 11.667-11.667v0-93.333c0-6.443-5.223-11.667-11.667-11.667v0zM169.167 140l-58.333 33.717v-67.433l58.333 33.6zM140 23.333c-64.433 0-116.667 52.233-116.667 116.667s52.233 116.667 116.667 116.667c64.433 0 116.667-52.233 116.667-116.667v0c0-64.433-52.233-116.667-116.667-116.667v0zM140 233.333c-51.547 0-93.333-41.787-93.333-93.333s41.787-93.333 93.333-93.333c51.547 0 93.333 41.787 93.333 93.333v0c0 51.547-41.787 93.333-93.333 93.333v0z"></path>
</svg>
