<!-- Generated by IcoMoon.io -->
<svg version="1.1" xmlns="http://www.w3.org/2000/svg" width="280" height="280" viewBox="0 0 280 280">
<title>skype-alt</title>
<path fill="#ebebeb" d="M176.623 137.813c-4.333-2.825-9.329-5.179-14.642-6.805l-0.419-0.11c-3.264-0.987-6.878-1.953-10.621-2.883-3.256-0.908-7.132-1.839-11.926-2.893-6.491-1.374-12.096-3.078-17.49-5.2l0.737 0.256c-2.883-1.141-5.3-2.926-7.159-5.188l-0.024-0.030c-1.181-1.603-1.89-3.617-1.89-5.796 0-0.282 0.012-0.561 0.035-0.837l-0.002 0.036c0-0.008 0-0.018 0-0.028 0-2.625 0.896-5.041 2.4-6.957l-0.019 0.025c2.14-2.499 4.895-4.411 8.032-5.509l0.131-0.040c4.533-1.609 9.761-2.539 15.207-2.539 0.494 0 0.986 0.008 1.476 0.023l-0.072-0.002c0.211-0.004 0.459-0.006 0.708-0.006 4.342 0 8.538 0.626 12.502 1.793l-0.313-0.079c2.954 0.842 5.533 2.125 7.809 3.796l-0.068-0.048c1.513 1.087 2.777 2.416 3.759 3.942l0.034 0.057c2.005 3.7 5.858 6.17 10.288 6.17 6.441 0 11.663-5.222 11.663-11.663 0-2.037-0.522-3.952-1.44-5.618l0.030 0.060c-2.536-4.432-5.805-8.149-9.681-11.112l-0.089-0.065c-4.371-3.386-9.495-6.056-15.055-7.719l-0.331-0.085c-5.712-1.752-12.277-2.761-19.078-2.761-0.26 0-0.52 0.001-0.78 0.004l0.039-0c-0.44-0.010-0.958-0.016-1.478-0.016-8.446 0-16.54 1.505-24.029 4.261l0.483-0.155c-7.451 2.754-13.681 7.34-18.346 13.222l-0.066 0.086c-4.398 5.754-7.048 13.049-7.053 20.963v0.001c-0.007 0.247-0.010 0.538-0.010 0.83 0 7.584 2.548 14.572 6.836 20.155l-0.058-0.078c4.373 5.475 10.021 9.753 16.504 12.411l0.272 0.099c4.094 1.649 9.181 3.28 14.399 4.58l0.85 0.179c0.098 0.032 0.163 0.11 0.263 0.14 2.233 0.672 5.805 1.572 10.966 2.689 2.011 0.432 3.906 0.909 5.8 1.382 0.184 0.055 0.449 0.113 0.626 0.167l0.211 0.032c2.897 0.739 5.682 1.502 8.232 2.281 3.39 1.005 6.346 2.37 9.052 4.095l-0.142-0.085c1.731 1.102 3.15 2.542 4.194 4.238l0.033 0.057c0.885 1.786 1.402 3.888 1.402 6.111 0 0.251-0.007 0.501-0.020 0.748l0.001-0.035c0.012 0.215 0.019 0.466 0.019 0.718 0 2.938-0.943 5.655-2.541 7.866l0.027-0.039c-2.383 3.078-5.558 5.435-9.222 6.779l-0.143 0.046c-4.718 1.875-10.185 2.962-15.906 2.962-0.505 0-1.007-0.008-1.508-0.025l0.073 0.002c-0.497 0.021-1.080 0.032-1.666 0.032-6.611 0-12.873-1.491-18.47-4.154l0.26 0.112c-2.91-1.571-5.318-3.722-7.14-6.315l-0.043-0.065c-1.251-1.628-2.096-3.63-2.347-5.812l-0.005-0.055c0-6.443-5.223-11.667-11.667-11.667s-11.667 5.223-11.667 11.667v0c0.211 7.204 2.612 13.809 6.556 19.216l-0.068-0.098c4.053 5.789 9.304 10.465 15.418 13.739l0.236 0.115c8.398 4.192 18.295 6.645 28.765 6.645 0.646 0 1.29-0.009 1.932-0.028l-0.094 0.002c0.477 0.012 1.039 0.019 1.602 0.019 8.895 0 17.382-1.744 25.139-4.908l-0.445 0.161c7.945-3.102 14.534-8.217 19.342-14.727l0.083-0.118c4.268-5.921 6.826-13.322 6.826-21.319 0-0.408-0.007-0.814-0.020-1.218l0.002 0.059c0.004-0.188 0.005-0.409 0.005-0.632 0-6.313-1.623-12.247-4.475-17.407l0.094 0.185c-2.938-4.99-6.844-9.106-11.491-12.197l-0.136-0.085zM260.882 159.733c1.029-5.963 1.618-12.83 1.618-19.835 0-67.599-54.8-122.398-122.398-122.398-7.005 0-13.872 0.588-20.555 1.719l0.72-0.101c-9.585-4.702-20.861-7.452-32.779-7.452-41.875 0-75.822 33.946-75.822 75.822 0 11.918 2.75 23.194 7.649 33.228l-0.198-0.448c-1.029 5.963-1.618 12.83-1.618 19.835 0 67.599 54.8 122.398 122.398 122.398 7.005 0 13.872-0.588 20.555-1.719l-0.72 0.101c9.585 4.702 20.861 7.452 32.779 7.452 41.875 0 75.822-33.946 75.822-75.822 0-11.918-2.75-23.194-7.649-33.228l0.198 0.448zM192.5 245c-9.286-0.004-18.007-2.414-25.577-6.642l0.267 0.137c-1.632-0.918-3.583-1.458-5.66-1.458-0.793 0-1.568 0.079-2.317 0.229l0.075-0.013c-5.827 1.217-12.522 1.914-19.381 1.914-54.718 0-99.075-44.357-99.075-99.075 0-0.032 0-0.065 0-0.097v0.005c0.013-6.837 0.709-13.503 2.024-19.945l-0.11 0.645c0.138-0.675 0.217-1.451 0.217-2.245 0-2.073-0.539-4.020-1.484-5.709l0.030 0.059c-4.094-7.302-6.506-16.026-6.506-25.312 0-28.991 23.502-52.493 52.493-52.493 9.286 0 18.010 2.411 25.578 6.642l-0.266-0.136c1.629 0.919 3.577 1.461 5.652 1.461 0.796 0 1.573-0.080 2.324-0.232l-0.075 0.013c5.827-1.217 12.522-1.914 19.381-1.914 54.718 0 99.075 44.357 99.075 99.075 0 0.032 0 0.065 0 0.097v-0.005c-0.013 6.837-0.709 13.503-2.024 19.945l0.11-0.645c-0.138 0.675-0.217 1.451-0.217 2.245 0 2.073 0.539 4.021 1.484 5.709l-0.030-0.059c4.098 7.304 6.511 16.030 6.511 25.32 0 28.987-23.498 52.485-52.485 52.485-0.005 0-0.011 0-0.017 0h0.001z"></path>
</svg>
