<!-- Generated by IcoMoon.io -->
<svg version="1.1" xmlns="http://www.w3.org/2000/svg" width="280" height="280" viewBox="0 0 280 280">
<title>sliders-v-alt</title>
<path fill="#ebebeb" d="M233.333 95.433v-60.433c0-6.443-5.223-11.667-11.667-11.667s-11.667 5.223-11.667 11.667v0 60.433c-13.566 5.026-23.059 17.854-23.059 32.9s9.493 27.874 22.817 32.821l0.242 0.079v83.767c0 6.443 5.223 11.667 11.667 11.667s11.667-5.223 11.667-11.667v0-83.767c13.566-5.026 23.059-17.854 23.059-32.9s-9.493-27.874-22.817-32.821l-0.242-0.079zM221.667 140c-6.443 0-11.667-5.223-11.667-11.667s5.223-11.667 11.667-11.667c6.443 0 11.667 5.223 11.667 11.667v0c0 6.443-5.223 11.667-11.667 11.667v0zM151.667 165.433v-130.433c0-6.443-5.223-11.667-11.667-11.667s-11.667 5.223-11.667 11.667v0 130.433c-13.566 5.026-23.059 17.854-23.059 32.9s9.493 27.874 22.817 32.821l0.242 0.079v13.767c0 6.443 5.223 11.667 11.667 11.667s11.667-5.223 11.667-11.667v0-13.767c13.566-5.026 23.059-17.854 23.059-32.9s-9.493-27.874-22.817-32.821l-0.242-0.079zM140 210c-6.443 0-11.667-5.223-11.667-11.667s5.223-11.667 11.667-11.667c6.443 0 11.667 5.223 11.667 11.667v0c0 6.443-5.223 11.667-11.667 11.667v0zM70 72.1v-37.1c0-6.443-5.223-11.667-11.667-11.667s-11.667 5.223-11.667 11.667v0 37.1c-13.566 5.026-23.059 17.854-23.059 32.9s9.493 27.874 22.817 32.821l0.242 0.079v107.1c0 6.443 5.223 11.667 11.667 11.667s11.667-5.223 11.667-11.667v0-107.1c13.566-5.026 23.059-17.854 23.059-32.9s-9.493-27.874-22.817-32.821l-0.242-0.079zM58.333 116.667c-6.443 0-11.667-5.223-11.667-11.667s5.223-11.667 11.667-11.667c6.443 0 11.667 5.223 11.667 11.667v0c0 6.443-5.223 11.667-11.667 11.667v0z"></path>
</svg>
