<!-- Generated by IcoMoon.io -->
<svg version="1.1" xmlns="http://www.w3.org/2000/svg" width="280" height="280" viewBox="0 0 280 280">
<title>step-backward-circle</title>
<path fill="#ebebeb" d="M180.833 86.1c-3.347-1.965-7.371-3.126-11.667-3.126s-8.32 1.161-11.777 3.186l0.11-0.060-46.667 26.95v-19.717c0-6.443-5.223-11.667-11.667-11.667s-11.667 5.223-11.667 11.667v0 93.333c0 6.443 5.223 11.667 11.667 11.667s11.667-5.223 11.667-11.667v0-19.717l46.667 26.95c3.347 1.965 7.371 3.126 11.667 3.126s8.32-1.161 11.777-3.186l-0.11 0.060c7.017-4.106 11.657-11.601 11.667-20.182v-67.435c-0.009-8.582-4.65-16.078-11.557-20.124l-0.11-0.060zM169.167 173.717l-58.333-33.717 58.333-33.717zM140 23.333c-64.433 0-116.667 52.233-116.667 116.667s52.233 116.667 116.667 116.667c64.433 0 116.667-52.233 116.667-116.667v0c0-64.433-52.233-116.667-116.667-116.667v0zM140 233.333c-51.547 0-93.333-41.787-93.333-93.333s41.787-93.333 93.333-93.333c51.547 0 93.333 41.787 93.333 93.333v0c0 51.547-41.787 93.333-93.333 93.333v0z"></path>
</svg>
