<!-- Generated by IcoMoon.io -->
<svg version="1.1" xmlns="http://www.w3.org/2000/svg" width="280" height="280" viewBox="0 0 280 280">
<title>sync-exclamation</title>
<path fill="#ebebeb" d="M131.717 183.283c2.114 2.132 5.045 3.451 8.284 3.451 6.443 0 11.667-5.223 11.667-11.667 0-0.024 0-0.048-0-0.072v0.004c-0.046-3.219-1.326-6.129-3.388-8.288l0.004 0.005c-2.105-2.078-5-3.362-8.194-3.362-1.633 0-3.187 0.336-4.598 0.941l0.076-0.029c-1.494 0.588-2.773 1.418-3.854 2.454l0.004-0.004c-2.057 2.154-3.337 5.065-3.383 8.274v0.009c0 0.020-0 0.044-0 0.068 0 3.205 1.292 6.108 3.384 8.217l-0.001-0.001zM232.283 180.95h-52.85c-6.443 0-11.667 5.223-11.667 11.667s5.223 11.667 11.667 11.667v0h28c-17.021 17.765-40.938 28.806-67.434 28.806-51.461 0-93.194-41.648-93.333-93.076v-0.013c0-6.443-5.223-11.667-11.667-11.667s-11.667 5.223-11.667 11.667v0c0.18 64.297 52.344 116.351 116.666 116.351 31.123 0 59.399-12.187 80.318-32.049l-0.051 0.048v20.65c0 6.443 5.223 11.667 11.667 11.667s11.667-5.223 11.667-11.667v0-52.5c-0.062-6.273-5.064-11.357-11.299-11.549l-0.018-0.001zM140 23.333c-31.164 0.092-59.438 12.388-80.31 32.357l0.043-0.041v-20.65c0-6.443-5.223-11.667-11.667-11.667s-11.667 5.223-11.667 11.667v0 52.5c0 6.443 5.223 11.667 11.667 11.667v0h52.5c6.443 0 11.667-5.223 11.667-11.667s-5.223-11.667-11.667-11.667v0h-28c17.021-17.765 40.938-28.806 67.434-28.806 51.42 0 93.128 41.581 93.333 92.953v0.020c0 6.443 5.223 11.667 11.667 11.667s11.667-5.223 11.667-11.667v0c0-64.433-52.233-116.667-116.667-116.667v0zM140 151.667c6.443 0 11.667-5.223 11.667-11.667v0-35c0-6.443-5.223-11.667-11.667-11.667s-11.667 5.223-11.667 11.667v0 35c0 6.443 5.223 11.667 11.667 11.667v0z"></path>
</svg>
