<!-- Generated by IcoMoon.io -->
<svg version="1.1" xmlns="http://www.w3.org/2000/svg" width="280" height="280" viewBox="0 0 280 280">
<title>syringe</title>
<path fill="#ebebeb" d="M253.283 26.717c-2.114-2.131-5.045-3.451-8.283-3.451s-6.169 1.32-8.283 3.45l-24.734 24.734-8.283-8.167c-2.109-2.097-5.016-3.393-8.225-3.393s-6.116 1.296-8.226 3.393l-16.449 16.449-8.283-8.283c-2.114-2.131-5.045-3.451-8.283-3.451s-6.169 1.32-8.283 3.45l-0.001 0.001-90.65 90.767-8.633-8.167c-1.863-1.316-4.181-2.104-6.683-2.104-6.443 0-11.667 5.223-11.667 11.667 0 2.59 0.844 4.983 2.272 6.919l-0.022-0.032 41.183 41.3-20.183 20.3-8.283-8.4c-2.12-2.12-5.048-3.431-8.283-3.431-6.47 0-11.714 5.245-11.714 11.714 0 3.235 1.311 6.164 3.431 8.283l33.017 33.017c2.108 2.091 5.011 3.384 8.216 3.384 0.024 0 0.047 0 0.071-0h-0.004c0.020 0 0.044 0 0.068 0 3.205 0 6.108-1.292 8.217-3.384l-0.001 0.001c2.131-2.114 3.451-5.045 3.451-8.283s-1.32-6.169-3.45-8.283l-0.001-0.001-8.283-8.167 20.3-20.3 41.183 41.183c2.108 2.149 5.038 3.486 8.281 3.5h0.003c6.422-0.028 11.618-5.24 11.618-11.666 0-3.239-1.32-6.169-3.45-8.283l-0.001-0.001-8.167-8.283 90.767-90.65c2.131-2.114 3.451-5.045 3.451-8.283s-1.32-6.169-3.45-8.283l-8.284-8.284 16.45-15.867c2.097-2.109 3.393-5.016 3.393-8.225s-1.296-6.116-3.393-8.226l0.001 0.001-8.167-8.283 24.733-24.733c2.313-2.138 3.756-5.188 3.756-8.575s-1.443-6.437-3.748-8.568l-0.008-0.007zM88.317 175l-16.567-16.217 16.45-16.567 16.8 16.567zM121.217 208.017l-16.217-16.217 16.217-16.8 16.567 16.567zM154.233 175l-49.233-49.233 49.467-49.467 8.283 8.167 41.183 41.3zM203.7 93.333l-16.45-17.033 8.283-8.283 16.333 16.333z"></path>
</svg>
