<!-- Generated by IcoMoon.io -->
<svg version="1.1" xmlns="http://www.w3.org/2000/svg" width="280" height="280" viewBox="0 0 280 280">
<title>table</title>
<path fill="#ebebeb" d="M245 23.333h-210c-6.443 0-11.667 5.223-11.667 11.667v0 210c0 6.443 5.223 11.667 11.667 11.667v0h210c6.443 0 11.667-5.223 11.667-11.667v0-210c0-6.443-5.223-11.667-11.667-11.667v0zM93.333 233.333h-46.667v-46.667h46.667zM93.333 163.333h-46.667v-46.667h46.667zM93.333 93.333h-46.667v-46.667h46.667zM163.333 233.333h-46.667v-46.667h46.667zM163.333 163.333h-46.667v-46.667h46.667zM163.333 93.333h-46.667v-46.667h46.667zM233.333 233.333h-46.667v-46.667h46.667zM233.333 163.333h-46.667v-46.667h46.667zM233.333 93.333h-46.667v-46.667h46.667z"></path>
</svg>
