<!-- Generated by IcoMoon.io -->
<svg version="1.1" xmlns="http://www.w3.org/2000/svg" width="280" height="280" viewBox="0 0 280 280">
<title>tag-alt</title>
<path fill="#ebebeb" d="M87.5 70c-9.665 0-17.5 7.835-17.5 17.5s7.835 17.5 17.5 17.5c9.665 0 17.5-7.835 17.5-17.5v0c0-9.665-7.835-17.5-17.5-17.5v0zM246.4 124.95l-98.117-98.233c-2.108-2.091-5.011-3.384-8.216-3.384-0.024 0-0.047 0-0.071 0h-104.996c-6.443 0-11.667 5.223-11.667 11.667v0 105c0 0.020-0 0.044-0 0.068 0 3.205 1.292 6.108 3.384 8.217l-0.001-0.001 98.233 98.117c6.332 6.325 15.076 10.236 24.733 10.236s18.401-3.911 24.734-10.236l-0 0 71.983-71.4c6.325-6.332 10.236-15.076 10.236-24.733s-3.911-18.401-10.236-24.734l0 0zM229.95 157.85v0l-72.1 71.983c-2.109 2.097-5.016 3.393-8.225 3.393s-6.116-1.296-8.226-3.393l0.001 0.001-94.733-94.617v-88.55h88.55l94.733 94.733c2.091 2.108 3.384 5.011 3.384 8.216 0 0.024 0 0.047-0 0.071v-0.004c-0.014 3.187-1.303 6.070-3.384 8.167l0.001-0.001z"></path>
</svg>
