<!-- Generated by IcoMoon.io -->
<svg version="1.1" xmlns="http://www.w3.org/2000/svg" width="280" height="280" viewBox="0 0 280 280">
<title>tape</title>
<path fill="#ebebeb" d="M169.167 81.667c-25.773 0-46.667 20.893-46.667 46.667s20.893 46.667 46.667 46.667c25.773 0 46.667-20.893 46.667-46.667v0c0-25.773-20.893-46.667-46.667-46.667v0zM169.167 151.667c-12.887 0-23.333-10.447-23.333-23.333s10.447-23.333 23.333-23.333c12.887 0 23.333 10.447 23.333 23.333v0c0 12.887-10.447 23.333-23.333 23.333v0zM180.833 35h-23.333c-45.103 0-81.667 36.564-81.667 81.667v0 35h-11.667c-6.443 0-11.667 5.223-11.667 11.667s5.223 11.667 11.667 11.667v0h11.667v23.333h-46.667c-6.443 0-11.667 5.223-11.667 11.667v0 23.333c0 6.443 5.223 11.667 11.667 11.667s11.667-5.223 11.667-11.667v0-11.667h140c45.103 0 81.667-36.564 81.667-81.667v0-23.333c0-45.103-36.564-81.667-81.667-81.667v0zM239.167 140c0 32.217-26.117 58.333-58.333 58.333v0h-81.667v-81.667c0-32.217 26.117-58.333 58.333-58.333v0h23.333c32.217 0 58.333 26.117 58.333 58.333v0z"></path>
</svg>
