<!-- Generated by IcoMoon.io -->
<svg version="1.1" xmlns="http://www.w3.org/2000/svg" width="280" height="280" viewBox="0 0 280 280">
<title>telegram</title>
<path fill="#ebebeb" d="M139.934 23.333c-64.433 0-116.667 52.233-116.667 116.667s52.233 116.667 116.667 116.667c64.433 0 116.667-52.233 116.667-116.667v0c0-0.003 0-0.006 0-0.010 0-64.428-52.229-116.657-116.657-116.657-0.003 0-0.007 0-0.010 0h0zM177.028 200.112c-1.249 3.054-4.197 5.167-7.639 5.167-1.489 0-2.886-0.395-4.091-1.087l0.040 0.021-31.671-24.609-20.327 18.753c-0.573 0.427-1.296 0.684-2.078 0.684-0.448 0-0.877-0.084-1.271-0.238l0.024 0.008 3.897-34.865 0.125 0.099 0.080-0.688s56.992-51.887 59.313-54.098c2.35-2.205 1.575-2.683 1.575-2.683 0.134-2.69-4.218 0-4.218 0l-75.513 48.581-31.447-10.71s-4.83-1.732-5.285-5.542c-0.478-3.78 5.442-5.833 5.442-5.833l125.032-49.671s10.278-4.58 10.278 3.004z"></path>
</svg>
