<!-- Generated by IcoMoon.io -->
<svg version="1.1" xmlns="http://www.w3.org/2000/svg" width="280" height="280" viewBox="0 0 280 280">
<title>thumbs-down</title>
<path fill="#ebebeb" d="M221.667 23.333h-148.517c-17.098 0.006-31.329 12.271-34.383 28.483l-0.034 0.217-14.817 81.667c-0.364 1.894-0.572 4.073-0.572 6.3 0 19.326 15.663 34.993 34.988 35h53.201l-6.533 16.683c-1.915 4.992-3.024 10.767-3.024 16.801 0 26.611 21.572 48.183 48.183 48.183 0.079 0 0.158-0 0.236-0.001h-0.012c4.701-0.010 8.748-2.799 10.587-6.811l0.030-0.073 33.25-74.783h27.417c19.33 0 35-15.67 35-35v0-81.667c0-19.33-15.67-35-35-35v0zM175 160.883l-31.733 71.4c-10.3-3.188-17.653-12.628-17.653-23.785 0-3.106 0.57-6.078 1.61-8.819l-0.057 0.171 6.183-16.683c0.935-2.426 1.476-5.233 1.476-8.167 0-12.872-10.423-23.31-23.29-23.333h-53.202c-0.006 0-0.012 0-0.019 0-3.595 0-6.809-1.626-8.95-4.182l-0.015-0.018c-1.767-2.034-2.845-4.708-2.845-7.634 0-0.683 0.059-1.352 0.171-2.002l-0.010 0.069 14.817-81.667c1.029-5.478 5.775-9.568 11.476-9.568 0.067 0 0.134 0.001 0.2 0.002h101.84zM233.333 140c0 6.443-5.223 11.667-11.667 11.667v0h-23.333v-105h23.333c6.443 0 11.667 5.223 11.667 11.667v0z"></path>
</svg>
