<!-- Generated by IcoMoon.io -->
<svg version="1.1" xmlns="http://www.w3.org/2000/svg" width="280" height="280" viewBox="0 0 280 280">
<title>truck-loading</title>
<path fill="#ebebeb" d="M256.667 186.667h-25.433c1.299-3.466 2.066-7.472 2.1-11.652v-58.348c0-19.33-15.67-35-35-35v0h-70c-19.33 0-35 15.67-35 35v0 58.333c0.034 4.195 0.801 8.2 2.179 11.909l-0.079-0.242h-13.767c-6.443 0-11.667-5.223-11.667-11.667v0-116.667c0-19.33-15.67-35-35-35v0h-11.667c-6.443 0-11.667 5.223-11.667 11.667s5.223 11.667 11.667 11.667v0h11.667c6.443 0 11.667 5.223 11.667 11.667v0 116.667c0.093 16.013 10.925 29.471 25.654 33.542l0.246 0.058c-1.646 3.916-2.602 8.468-2.602 13.243 0 19.33 15.67 35 35 35s35-15.67 35-35c0-4.248-0.757-8.319-2.143-12.086l0.078 0.243h39.2c-1.33 3.552-2.1 7.657-2.1 11.941 0 19.33 15.67 35 35 35s35-15.67 35-35c0-4.284-0.77-8.389-2.179-12.183l0.079 0.242h13.767c6.443 0 11.667-5.223 11.667-11.667s-5.223-11.667-11.667-11.667v0zM105 233.333c-6.443 0-11.667-5.223-11.667-11.667s5.223-11.667 11.667-11.667c6.443 0 11.667 5.223 11.667 11.667v0c0 6.443-5.223 11.667-11.667 11.667v0zM128.333 186.667c-6.443 0-11.667-5.223-11.667-11.667v0-58.333c0-6.443 5.223-11.667 11.667-11.667v0h70c6.443 0 11.667 5.223 11.667 11.667v0 58.333c0 6.443-5.223 11.667-11.667 11.667v0zM210 233.333c-6.443 0-11.667-5.223-11.667-11.667s5.223-11.667 11.667-11.667c6.443 0 11.667 5.223 11.667 11.667v0c0 6.443-5.223 11.667-11.667 11.667v0z"></path>
</svg>
