<!-- Generated by IcoMoon.io -->
<svg version="1.1" xmlns="http://www.w3.org/2000/svg" width="280" height="280" viewBox="0 0 280 280">
<title>water-glass</title>
<path fill="#ebebeb" d="M210.933 81.667c-0.29-0.026-0.627-0.040-0.968-0.040-6.129 0-11.154 4.726-11.63 10.733l-0.002 0.041-4.083 53.083c-5.578-1.761-10.308-4.87-13.975-8.955l-0.025-0.029c-2.148-2.427-5.271-3.95-8.75-3.95s-6.602 1.523-8.739 3.938l-0.011 0.012c-5.668 6.146-13.761 9.982-22.75 9.982s-17.082-3.836-22.731-9.96l-0.019-0.021c-2.148-2.427-5.271-3.95-8.75-3.95s-6.602 1.523-8.739 3.938l-0.011 0.012c-3.702 4.099-8.428 7.206-13.777 8.921l-0.223 0.062-4.083-53.083c-0.478-6.047-5.503-10.773-11.632-10.773-0.341 0-0.678 0.014-1.011 0.043l0.043-0.003c-6.047 0.478-10.773 5.503-10.773 11.632 0 0.341 0.014 0.678 0.043 1.011l-0.003-0.043 10.033 130.083c1.437 18.14 16.511 32.317 34.897 32.317 0.036 0 0.072 0 0.109-0h73.495c0.031 0 0.067 0 0.103 0 18.386 0 33.46-14.176 34.889-32.195l0.008-0.122 9.8-130.083c0.026-0.29 0.040-0.627 0.040-0.968 0-6.129-4.726-11.154-10.733-11.63l-0.041-0.002zM188.3 222.6c-0.498 6.029-5.514 10.734-11.629 10.734-0.013 0-0.026 0-0.039 0h-73.381c-0.011 0-0.024 0-0.037 0-6.115 0-11.131-4.704-11.627-10.691l-0.003-0.042-4.083-53.433c7.997-1.706 15.047-4.911 21.164-9.329l-0.164 0.112c8.754 6.288 19.687 10.055 31.5 10.055s22.746-3.767 31.663-10.167l-0.163 0.111c5.953 4.305 13.003 7.511 20.634 9.151l0.366 0.066zM140 116.667c20.914-0.066 37.851-17.003 37.917-37.91v-0.006c0-32.083-30.1-52.617-31.383-53.433-1.832-1.253-4.095-2.001-6.533-2.001s-4.701 0.748-6.573 2.027l0.040-0.026c-1.283 0.933-31.383 21.35-31.383 53.433 0.066 20.914 17.003 37.851 37.91 37.917h0.006zM140 50.167c8.192 7.046 13.625 17.1 14.573 28.43l0.010 0.153c0 8.054-6.529 14.583-14.583 14.583s-14.583-6.529-14.583-14.583v0c1.023-11.467 6.44-21.501 14.532-28.539l0.052-0.044z"></path>
</svg>
