<!-- Generated by IcoMoon.io -->
<svg version="1.1" xmlns="http://www.w3.org/2000/svg" width="280" height="280" viewBox="0 0 280 280">
<title>weight</title>
<path fill="#ebebeb" d="M221.667 46.667h-16.917c-1.493-4.484-3.678-8.363-6.465-11.726l0.048 0.060c-6.437-7.174-15.738-11.667-26.088-11.667-0.057 0-0.114 0-0.171 0h-63.924c-0.117-0.001-0.255-0.002-0.394-0.002-10.351 0-19.653 4.493-26.061 11.636l-0.029 0.033c-2.824 3.296-5.085 7.174-6.573 11.415l-0.077 0.252h-16.683c-19.33 0-35 15.67-35 35v0 140c0 19.33 15.67 35 35 35v0h163.333c19.33 0 35-15.67 35-35v0-140c0-19.33-15.67-35-35-35v0zM99.4 50.633c2.146-2.434 5.269-3.962 8.749-3.967h63.701c3.481 0.005 6.604 1.533 8.739 3.954l0.011 0.013c1.855 2.057 2.989 4.796 2.989 7.798 0 0.459-0.027 0.911-0.078 1.356l0.005-0.054-5.833 46.667c-0.723 5.813-5.632 10.267-11.582 10.267-0.030 0-0.059 0-0.089-0h-19.129l13.3-28c0.511-1.264 0.807-2.73 0.807-4.265 0-6.443-5.223-11.667-11.667-11.667-4.322 0-8.095 2.35-10.111 5.842l-0.030 0.056-18.2 38.033h-7c-0.025 0-0.055 0-0.084 0-5.95 0-10.86-4.454-11.577-10.21l-0.006-0.057-5.833-46.667c-0.046-0.39-0.073-0.843-0.073-1.302 0-3.003 1.135-5.741 2.999-7.809l-0.009 0.010zM233.333 221.667c0 6.443-5.223 11.667-11.667 11.667v0h-163.333c-6.443 0-11.667-5.223-11.667-11.667v0-140c0-6.443 5.223-11.667 11.667-11.667v0h15.983l4.9 39.317c2.222 17.384 16.924 30.684 34.733 30.684 0.094 0 0.188-0 0.281-0.001h52.019c0.079 0.001 0.173 0.001 0.267 0.001 17.809 0 32.511-13.301 34.715-30.51l0.018-0.174 4.433-39.317h15.983c6.443 0 11.667 5.223 11.667 11.667v0zM163.333 186.667h-46.667c-6.443 0-11.667 5.223-11.667 11.667s5.223 11.667 11.667 11.667v0h46.667c6.443 0 11.667-5.223 11.667-11.667s-5.223-11.667-11.667-11.667v0z"></path>
</svg>
