<!-- Generated by IcoMoon.io -->
<svg version="1.1" xmlns="http://www.w3.org/2000/svg" width="280" height="280" viewBox="0 0 280 280">
<title>wifi-router</title>
<path fill="#ebebeb" d="M103.833 198.333c-6.443 0-11.667 5.223-11.667 11.667s5.223 11.667 11.667 11.667c6.443 0 11.667-5.223 11.667-11.667v0c0-6.443-5.223-11.667-11.667-11.667v0zM68.833 198.333c-6.443 0-11.667 5.223-11.667 11.667s5.223 11.667 11.667 11.667c6.443 0 11.667-5.223 11.667-11.667v0c0-6.443-5.223-11.667-11.667-11.667v0zM138.833 198.333c-6.443 0-11.667 5.223-11.667 11.667s5.223 11.667 11.667 11.667c6.443 0 11.667-5.223 11.667-11.667v0c0-6.443-5.223-11.667-11.667-11.667v0zM175 99.167c2.057-3.5 5.805-5.813 10.092-5.813s8.034 2.312 10.062 5.758l0.030 0.055c2.054 3.514 5.809 5.838 10.106 5.838 2.118 0 4.105-0.564 5.817-1.551l-0.057 0.030c3.741-1.994 6.244-5.87 6.244-10.33 0-2.075-0.542-4.024-1.491-5.712l0.030 0.059c-6.159-10.557-17.431-17.539-30.333-17.539s-24.174 6.981-30.244 17.373l-0.090 0.166c-0.487 1.236-0.769 2.668-0.769 4.166 0 6.443 5.223 11.667 11.667 11.667 3.579 0 6.781-1.611 8.921-4.148l0.014-0.017zM256.667 64.167c-14.389-24.558-40.649-40.789-70.7-40.789s-56.311 16.231-70.491 40.405l-0.209 0.385c-0.988 1.677-1.572 3.694-1.572 5.848 0 4.318 2.346 8.088 5.832 10.105l0.056 0.030c1.51 0.875 3.307 1.427 5.224 1.516l0.026 0.001c0.014 0 0.030 0 0.046 0 4.296 0 8.049-2.321 10.074-5.778l0.030-0.055c10.274-17.558 29.040-29.164 50.517-29.164s40.243 11.606 50.368 28.889l0.149 0.275c2.048 3.543 5.817 5.888 10.135 5.888 2.154 0 4.171-0.584 5.903-1.601l-0.055 0.030c3.691-2.008 6.155-5.858 6.155-10.282 0-2.094-0.552-4.060-1.518-5.759l0.030 0.058zM208.833 163.333h-11.667v-35c0-6.443-5.223-11.667-11.667-11.667s-11.667 5.223-11.667 11.667v0 35h-116.667c-19.33 0-35 15.67-35 35v0 23.333c0 19.33 15.67 35 35 35v0h151.667c19.33 0 35-15.67 35-35v0-23.333c0-19.33-15.67-35-35-35v0zM220.5 221.667c0 6.443-5.223 11.667-11.667 11.667v0h-151.667c-6.443 0-11.667-5.223-11.667-11.667v0-23.333c0-6.443 5.223-11.667 11.667-11.667v0h151.667c6.443 0 11.667 5.223 11.667 11.667v0z"></path>
</svg>
