<!-- Generated by IcoMoon.io -->
<svg version="1.1" xmlns="http://www.w3.org/2000/svg" width="280" height="280" viewBox="0 0 280 280">
<title>wifi</title>
<path fill="#ebebeb" d="M140 175c-19.33 0-35 15.67-35 35s15.67 35 35 35c19.33 0 35-15.67 35-35v0c0-19.33-15.67-35-35-35v0zM140 221.667c-6.443 0-11.667-5.223-11.667-11.667s5.223-11.667 11.667-11.667c6.443 0 11.667 5.223 11.667 11.667v0c0 6.443-5.223 11.667-11.667 11.667v0zM140 128.333c-22.538 0.080-42.931 9.2-57.755 23.921l0.005-0.005c-2.097 2.109-3.393 5.016-3.393 8.225s1.296 6.116 3.393 8.226l-0.001-0.001c2.109 2.097 5.016 3.393 8.225 3.393s6.116-1.296 8.226-3.393l-0.001 0.001c10.562-10.588 25.166-17.138 41.3-17.138s30.738 6.55 41.299 17.136l0.001 0.001c2.081 2.123 4.964 3.453 8.158 3.5h0.009c0.2 0.012 0.434 0.019 0.67 0.019 6.443 0 11.667-5.223 11.667-11.667 0-3.248-1.327-6.186-3.469-8.302l-0.001-0.001c-14.884-14.781-35.392-23.917-58.034-23.917-0.105 0-0.211 0-0.316 0.001h0.016zM140 81.667c-35.425 0.097-67.483 14.428-90.773 37.573l0.007-0.007c-2.12 2.12-3.431 5.048-3.431 8.283 0 6.47 5.245 11.714 11.714 11.714 3.235 0 6.164-1.311 8.283-3.431v0c18.997-18.974 45.228-30.708 74.2-30.708s55.203 11.734 74.201 30.709l-0.001-0.001c2.108 2.091 5.011 3.384 8.216 3.384 0.024 0 0.047 0 0.071-0h-0.004c0.020 0 0.044 0 0.068 0 3.205 0 6.108-1.292 8.217-3.384l-0.001 0.001c2.131-2.114 3.451-5.045 3.451-8.283s-1.32-6.169-3.45-8.283l-0.001-0.001c-23.283-23.138-55.342-37.469-90.748-37.567h-0.019zM263.783 86.217c-31.673-31.693-75.439-51.296-123.783-51.296s-92.11 19.604-123.782 51.295l-0.001 0.001c-2.12 2.12-3.431 5.048-3.431 8.283 0 6.47 5.245 11.714 11.714 11.714 3.235 0 6.164-1.311 8.283-3.431v0c27.444-27.43 65.349-44.394 107.217-44.394s79.773 16.965 107.217 44.395l-0.001-0.001c2.114 2.131 5.045 3.451 8.283 3.451s6.169-1.32 8.283-3.45l0.001-0.001c2.131-2.114 3.451-5.045 3.451-8.283s-1.32-6.169-3.45-8.283l-0.001-0.001z"></path>
</svg>
