<!-- Generated by IcoMoon.io -->
<svg version="1.1" xmlns="http://www.w3.org/2000/svg" width="280" height="280" viewBox="0 0 280 280">
<title>yen-circle</title>
<path fill="#ebebeb" d="M140 11.667c-70.877 0-128.333 57.457-128.333 128.333s57.457 128.333 128.333 128.333c70.877 0 128.333-57.457 128.333-128.333v0c0-70.877-57.457-128.333-128.333-128.333v0zM140 245c-57.99 0-105-47.010-105-105s47.010-105 105-105c57.99 0 105 47.010 105 105v0c0 57.99-47.010 105-105 105v0zM173.017 75.25l-33.017 49.583-33.017-49.583c-2.119-3.173-5.685-5.234-9.733-5.234-2.417 0-4.662 0.735-6.525 1.994l0.041-0.026c-3.142 2.123-5.181 5.672-5.181 9.697 0 2.383 0.714 4.599 1.941 6.446l-0.027-0.043 24.617 36.983h-7.117c-6.443 0-11.667 5.223-11.667 11.667s5.223 11.667 11.667 11.667v0h23.333l0.583 0.933v10.733h-23.917c-6.443 0-11.667 5.223-11.667 11.667s5.223 11.667 11.667 11.667v0h23.333v26.6c0 6.443 5.223 11.667 11.667 11.667s11.667-5.223 11.667-11.667v0-26.6h23.333c6.443 0 11.667-5.223 11.667-11.667s-5.223-11.667-11.667-11.667v0h-23.333v-10.733l0.583-0.933h22.75c6.443 0 11.667-5.223 11.667-11.667s-5.223-11.667-11.667-11.667v0h-7.117l24.617-36.983c1.199-1.804 1.914-4.020 1.914-6.403 0-4.025-2.038-7.574-5.139-9.671l-0.041-0.026c-1.821-1.232-4.067-1.967-6.483-1.967-4.048 0-7.614 2.061-9.706 5.192l-0.027 0.042z"></path>
</svg>
