<!-- Generated by IcoMoon.io -->
<svg version="1.1" xmlns="http://www.w3.org/2000/svg" width="280" height="280" viewBox="0 0 280 280">
<title>yen</title>
<path fill="#ebebeb" d="M216.417 25.317c-1.804-1.199-4.020-1.914-6.403-1.914-4.025 0-7.574 2.038-9.671 5.139l-0.026 0.041-60.317 90.417-60.317-90.417c-2.156-2.661-5.424-4.348-9.086-4.348-6.443 0-11.667 5.223-11.667 11.667 0 2.020 0.513 3.919 1.416 5.576l-0.031-0.061 58.333 86.917h-36.983c-6.443 0-11.667 5.223-11.667 11.667s5.223 11.667 11.667 11.667v0h46.667v23.333h-46.667c-6.443 0-11.667 5.223-11.667 11.667s5.223 11.667 11.667 11.667v0h46.667v46.667c0 6.443 5.223 11.667 11.667 11.667s11.667-5.223 11.667-11.667v0-46.667h46.667c6.443 0 11.667-5.223 11.667-11.667s-5.223-11.667-11.667-11.667v0h-46.667v-23.333h46.667c6.443 0 11.667-5.223 11.667-11.667s-5.223-11.667-11.667-11.667v0h-36.517l58.333-86.917c1.115-1.756 1.777-3.896 1.777-6.19 0-4.163-2.181-7.817-5.462-9.882l-0.048-0.028z"></path>
</svg>
