<!-- Generated by IcoMoon.io -->
<svg version="1.1" xmlns="http://www.w3.org/2000/svg" width="280" height="280" viewBox="0 0 280 280">
<title>youtube</title>
<path fill="#ebebeb" d="M268.333 113.283c0.038-1.021 0.059-2.22 0.059-3.424 0-16.328-3.946-31.733-10.936-45.316l0.26 0.556c-5.012-5.964-11.955-10.163-19.856-11.634l-0.211-0.033c-24.758-2.382-53.526-3.74-82.613-3.74-5.287 0-10.563 0.045-15.829 0.134l0.791-0.011c-4.7-0.087-10.242-0.136-15.795-0.136-28.695 0-57.081 1.32-85.102 3.904l3.597-0.268c-6.665 1.241-12.47 4.304-17.048 8.647l0.015-0.014c-10.5 9.683-11.667 26.25-12.833 40.25-0.809 11.307-1.27 24.5-1.27 37.8s0.461 26.493 1.368 39.564l-0.098-1.764c0.372 8.458 1.626 16.448 3.677 24.112l-0.177-0.779c1.502 6.162 4.386 11.508 8.314 15.902l-0.031-0.035c4.607 4.565 10.542 7.798 17.175 9.067l0.209 0.033c19.389 2.528 41.812 3.97 64.573 3.97 3.959 0 7.909-0.044 11.847-0.13l-0.587 0.010c40.833 0.583 76.65 0 119-3.267 7.013-1.224 13.118-4.469 17.856-9.106l-0.006 0.006c3.178-3.179 5.622-7.091 7.058-11.461l0.059-0.205c3.852-11.421 6.075-24.574 6.075-38.246 0-0.499-0.003-0.998-0.009-1.496l0.001 0.075c0.467-6.533 0.467-45.967 0.467-52.967zM113.633 173.25v-72.217l69.067 36.283c-19.367 10.733-44.917 22.867-69.067 35.933z"></path>
</svg>
