<!-- Generated by IcoMoon.io -->
<svg version="1.1" xmlns="http://www.w3.org/2000/svg" width="40" height="40" viewBox="0 0 40 40">
<title>apple-alt</title>
<path fill="#fff" d="M31.339 24.991c-1.625-0.708-2.74-2.299-2.74-4.151 0-0.006 0-0.013 0-0.019v0.001c0.023-1.66 0.909-3.108 2.23-3.917l0.020-0.012c0.382-0.239 0.632-0.657 0.632-1.134 0-0.281-0.087-0.542-0.236-0.757l0.003 0.004c-1.215-1.749-3.125-2.943-5.322-3.178l-0.033-0.003c0.827-1.294 1.318-2.872 1.318-4.565 0-0.26-0.012-0.516-0.034-0.77l0.002 0.033c-0.064-0.671-0.625-1.191-1.307-1.191-0.025 0-0.050 0.001-0.074 0.002l0.003-0c-2.374 0.218-4.451 1.335-5.916 3.004l-0.009 0.010c-0.926 1.068-1.612 2.37-1.96 3.804l-0.013 0.062c-0.643-0.225-1.384-0.36-2.155-0.37l-0.005-0c-2.847 0.083-5.308 1.66-6.634 3.972l-0.020 0.039c-2.517 4.37-0.977 10.918 1.749 14.859 1.094 1.579 2.735 3.951 5.211 3.951 0.049 0 0.098 0 0.148-0.003 0.878-0.051 1.693-0.274 2.427-0.635l-0.037 0.016c0.561-0.29 1.223-0.464 1.925-0.471l0.002-0c0.662 0.008 1.284 0.174 1.832 0.461l-0.022-0.011c0.765 0.371 1.663 0.593 2.611 0.608l0.005 0c2.551-0.048 4.057-2.249 5.158-3.857 0.821-1.192 1.505-2.565 1.985-4.031l0.032-0.114c0.038-0.119 0.061-0.256 0.061-0.398 0-0.559-0.343-1.038-0.83-1.238l-0.009-0.003zM21.898 10.090c0.688-0.767 1.546-1.369 2.514-1.748l0.045-0.015c-0.23 1.107-0.714 2.076-1.39 2.878l0.008-0.010c-0.467 0.558-1.026 1.021-1.656 1.372l-0.030 0.015-0.004 0.001c-0.038 0.016-0.076 0.030-0.113 0.046-0.249 0.098-0.556 0.219-0.793 0.297 0.245-1.098 0.741-2.055 1.425-2.844l-0.007 0.008zM27.9 29.27c-1.072 1.565-1.915 2.676-3.006 2.695-0.554-0.002-1.073-0.146-1.524-0.398l0.016 0.008c-0.838-0.417-1.824-0.664-2.867-0.669h-0.002c-1.081 0.006-2.103 0.257-3.012 0.702l0.041-0.018c-0.421 0.219-0.913 0.366-1.434 0.408l-0.014 0.001h-0.040c-1.084 0-2.25-1.684-3.024-2.802-1.937-2.799-3.723-8.378-1.631-12.010 0.883-1.56 2.505-2.61 4.379-2.674l0.009-0 0.045-0.001c0.808 0.070 1.55 0.281 2.226 0.609l-0.038-0.017c0.175 0.069 0.348 0.138 0.519 0.202 0.044 0.018 0.089 0.035 0.134 0.049 0.439 0.182 0.948 0.296 1.482 0.316l0.008 0c0.769-0.063 1.477-0.263 2.12-0.577l-0.035 0.015c0.843-0.418 1.836-0.663 2.886-0.663 0.027 0 0.055 0 0.082 0.001l-0.004-0c1.147 0.046 2.187 0.468 3.009 1.145l-0.009-0.007c-1.406 1.298-2.283 3.15-2.283 5.207 0 0.019 0 0.037 0 0.056l-0-0.003v0.001c-0 0.013-0 0.029-0 0.045 0 2.493 1.291 4.684 3.241 5.942l0.028 0.017c-0.388 0.928-0.824 1.723-1.332 2.466l0.030-0.047z"></path>
</svg>
