<!-- Generated by IcoMoon.io -->
<svg version="1.1" xmlns="http://www.w3.org/2000/svg" width="40" height="40" viewBox="0 0 40 40">
<title>award-alt</title>
<path fill="#fff" d="M20 5.333c-5.15 0.007-9.322 4.183-9.322 9.333 0 2.538 1.013 4.839 2.657 6.522l-0.002-0.002v12.147c0.002 0.735 0.598 1.329 1.333 1.329 0.219 0 0.425-0.053 0.608-0.146l-0.008 0.004 4.733-2.36 4.733 2.36c0.174 0.091 0.381 0.145 0.6 0.147h0c0.001 0 0.003 0 0.004 0 0.26 0 0.503-0.074 0.708-0.203l-0.006 0.003c0.379-0.24 0.627-0.656 0.627-1.131 0-0.001 0-0.002 0-0.003v0-12.147c1.642-1.681 2.655-3.982 2.655-6.52 0-5.151-4.172-9.327-9.321-9.333h-0.001zM24 31.173l-3.4-1.693c-0.175-0.090-0.381-0.143-0.6-0.143s-0.425 0.053-0.608 0.146l0.008-0.004-3.4 1.693v-8.080c0.774 0.375 1.672 0.655 2.616 0.794l0.051 0.006v1.44c0 0.736 0.597 1.333 1.333 1.333s1.333-0.597 1.333-1.333v0-1.44c0.995-0.145 1.893-0.425 2.723-0.824l-0.056 0.024zM20 21.333c-3.682 0-6.667-2.985-6.667-6.667s2.985-6.667 6.667-6.667c3.682 0 6.667 2.985 6.667 6.667v0c0 3.682-2.985 6.667-6.667 6.667v0z"></path>
</svg>
