<!-- Generated by IcoMoon.io -->
<svg version="1.1" xmlns="http://www.w3.org/2000/svg" width="40" height="40" viewBox="0 0 40 40">
<title>behance</title>
<path fill="#fff" d="M30.76 12.467h-6.76v1.88h6.787zM29.333 25.4c-0.462 0.31-1.031 0.495-1.642 0.495-0.032 0-0.064-0.001-0.096-0.001l0.005 0c-0.092 0.010-0.2 0.016-0.308 0.016-0.752 0-1.438-0.279-1.962-0.739l0.003 0.003c-0.515-0.582-0.83-1.352-0.83-2.196 0-0.053 0.001-0.106 0.004-0.158l-0 0.007h8.827c0.014-0.183 0.022-0.396 0.022-0.612 0-0.73-0.091-1.438-0.261-2.115l0.013 0.060c-0.223-0.879-0.591-1.65-1.080-2.326l0.014 0.020c-0.502-0.67-1.134-1.213-1.863-1.599l-0.030-0.015c-0.752-0.379-1.638-0.601-2.577-0.601-0.032 0-0.063 0-0.095 0.001l0.005-0c-0.014-0-0.031-0-0.048-0-0.897 0-1.751 0.181-2.528 0.51l0.043-0.016c-0.764 0.327-1.415 0.777-1.959 1.332l-0.001 0.001c-0.541 0.564-0.971 1.239-1.253 1.986l-0.013 0.040c-0.279 0.737-0.44 1.589-0.44 2.479 0 0.024 0 0.047 0 0.071l-0-0.004c-0.001 0.034-0.001 0.074-0.001 0.115 0 0.886 0.157 1.736 0.444 2.523l-0.016-0.051c0.268 0.788 0.668 1.467 1.179 2.046l-0.006-0.006c0.531 0.572 1.181 1.025 1.911 1.321l0.036 0.013c0.733 0.288 1.581 0.454 2.469 0.454 0.042 0 0.083-0 0.124-0.001l-0.006 0c0.059 0.002 0.129 0.003 0.198 0.003 1.229 0 2.376-0.349 3.349-0.952l-0.027 0.016c1.050-0.752 1.821-1.835 2.164-3.094l0.009-0.039h-2.947c-0.163 0.426-0.451 0.774-0.818 1.008l-0.008 0.005zM24.76 19.907c0.217-0.679 0.697-1.221 1.318-1.514l0.015-0.006c0.367-0.169 0.796-0.268 1.248-0.268 0.030 0 0.060 0 0.090 0.001l-0.004-0c0.059-0.005 0.127-0.008 0.196-0.008 0.63 0 1.201 0.253 1.617 0.662l-0-0c0.437 0.531 0.737 1.19 0.838 1.913l0.002 0.020h-5.533c0.024-0.295 0.076-0.567 0.154-0.828l-0.007 0.028zM17.707 19.267c0.694-0.294 1.27-0.75 1.699-1.323l0.008-0.011c0.361-0.554 0.576-1.233 0.576-1.962 0-0.051-0.001-0.102-0.003-0.152l0 0.007c0.002-0.050 0.003-0.109 0.003-0.168 0-0.654-0.144-1.275-0.401-1.832l0.011 0.027c-0.244-0.546-0.618-0.997-1.083-1.327l-0.010-0.007c-0.481-0.334-1.051-0.577-1.667-0.689l-0.026-0.004c-0.62-0.136-1.333-0.214-2.064-0.214-0.043 0-0.086 0-0.13 0.001l0.007-0h-7.96v16.773h8.133c0.002 0 0.004 0 0.006 0 0.78 0 1.535-0.102 2.255-0.294l-0.061 0.014c0.725-0.191 1.361-0.489 1.927-0.88l-0.020 0.013c0.56-0.392 1.011-0.902 1.322-1.497l0.011-0.023c0.312-0.6 0.495-1.311 0.495-2.064 0-0.048-0.001-0.096-0.002-0.143l0 0.007c0.001-0.037 0.002-0.080 0.002-0.124 0-0.947-0.284-1.827-0.772-2.56l0.011 0.017c-0.554-0.78-1.364-1.347-2.306-1.581l-0.027-0.006zM10.36 14.48h3.453c0.002 0 0.004 0 0.007 0 0.332 0 0.657 0.029 0.973 0.085l-0.033-0.005c0.306 0.046 0.58 0.149 0.823 0.299l-0.009-0.005c0.241 0.138 0.432 0.338 0.556 0.579l0.004 0.008c0.136 0.254 0.215 0.556 0.215 0.877 0 0.029-0.001 0.059-0.002 0.087l0-0.004c0.004 0.047 0.007 0.101 0.007 0.156 0 0.55-0.245 1.042-0.631 1.375l-0.002 0.002c-0.422 0.294-0.946 0.469-1.511 0.469-0.041 0-0.081-0.001-0.122-0.003l0.006 0h-3.733zM16.813 24.4c-0.141 0.275-0.345 0.501-0.593 0.663l-0.007 0.004c-0.249 0.157-0.539 0.277-0.849 0.344l-0.017 0.003c-0.291 0.068-0.626 0.107-0.97 0.107-0.025 0-0.049-0-0.074-0.001l0.004 0h-4v-4.6h4c0.042-0.002 0.091-0.003 0.14-0.003 0.669 0 1.291 0.206 1.804 0.557l-0.011-0.007c0.449 0.404 0.731 0.988 0.731 1.637 0 0.076-0.004 0.151-0.011 0.225l0.001-0.009c0.007 0.069 0.011 0.15 0.011 0.231 0 0.305-0.058 0.597-0.164 0.865l0.006-0.016z"></path>
</svg>
