<!-- Generated by IcoMoon.io -->
<svg version="1.1" xmlns="http://www.w3.org/2000/svg" width="40" height="40" viewBox="0 0 40 40">
<title>bell-slash</title>
<path fill="#fff" d="M18.76 12.16c0.362-0.102 0.779-0.16 1.208-0.16 0.011 0 0.022 0 0.033 0h-0.002c2.946 0 5.333 2.388 5.333 5.333v0 1.787c0 0.736 0.597 1.333 1.333 1.333s1.333-0.597 1.333-1.333v0-1.787c-0.004-3.944-2.861-7.219-6.619-7.873l-0.048-0.007v-1.453c0-0.736-0.597-1.333-1.333-1.333s-1.333 0.597-1.333 1.333v0 1.467l-0.6 0.107c-0.576 0.158-0.992 0.677-0.992 1.293 0 0.739 0.599 1.339 1.339 1.339 0.123 0 0.243-0.017 0.356-0.048l-0.009 0.002zM32.947 31.053l-24-24c-0.242-0.242-0.577-0.392-0.947-0.392-0.739 0-1.339 0.599-1.339 1.339 0 0.37 0.15 0.704 0.392 0.947v0l5.493 5.48c-0.346 0.862-0.547 1.861-0.547 2.906 0 0 0 0 0 0v0 4.24c-1.563 0.564-2.662 2.033-2.667 3.759v2.667c0 0.736 0.597 1.333 1.333 1.333v0h4.187c0.636 2.285 2.699 3.935 5.147 3.935s4.511-1.649 5.138-3.897l0.009-0.038h2.307l3.6 3.613c0.242 0.244 0.577 0.394 0.947 0.394s0.705-0.151 0.947-0.394l0-0c0.244-0.242 0.394-0.577 0.394-0.947s-0.151-0.705-0.394-0.947l-0-0zM14.667 17.333c-0.010-0.11-0.015-0.238-0.015-0.367s0.006-0.257 0.016-0.383l-0.001 0.016 4.787 4.733h-4.787zM20 30.667c-0.976-0.006-1.826-0.535-2.287-1.321l-0.007-0.013h4.587c-0.467 0.798-1.318 1.327-2.292 1.333h-0.001zM12 26.667v-1.333c0-0.736 0.597-1.333 1.333-1.333v0h8.787l2.667 2.667z"></path>
</svg>
