<!-- Generated by IcoMoon.io -->
<svg version="1.1" xmlns="http://www.w3.org/2000/svg" width="40" height="40" viewBox="0 0 40 40">
<title>black-berry</title>
<path fill="#fff" d="M20 6.667c-7.364 0-13.333 5.97-13.333 13.333s5.97 13.333 13.333 13.333c7.364 0 13.333-5.97 13.333-13.333v0c0-7.364-5.97-13.333-13.333-13.333v0zM13.587 21.8h-2.56l0.693-3.213h2.453c1.6 0 1.973 0.773 1.973 1.4 0 0.867-0.573 1.813-2.56 1.813zM14.467 16.947h-2.547l0.693-3.213h2.453c1.587 0 1.96 0.787 1.96 1.333 0 0.933-0.56 1.88-2.56 1.88zM19.467 26.853h-2.56l0.707-3.227h2.453c1.587 0 1.96 0.787 1.96 1.413 0 0.867-0.56 1.813-2.56 1.813zM20.413 21.8h-2.547l0.693-3.213h2.453c1.587 0 1.96 0.773 1.96 1.4 0 0.867-0.56 1.813-2.56 1.813zM21.333 16.947h-2.587l0.693-3.213h2.453c1.6 0 1.973 0.787 1.973 1.333 0 0.933-0.573 1.88-2.533 1.88zM26.32 24.427h-2.573l0.693-3.227h2.453c1.587 0 1.973 0.787 1.973 1.413 0 0.867-0.573 1.813-2.573 1.813zM27.28 19.84h-2.587l0.64-3.227h2.453c1.6 0 1.973 0.787 1.973 1.333 0.053 0.947-0.52 1.893-2.507 1.893z"></path>
</svg>
