<!-- Generated by IcoMoon.io -->
<svg version="1.1" xmlns="http://www.w3.org/2000/svg" width="40" height="40" viewBox="0 0 40 40">
<title>border-out</title>
<path fill="#fff" d="M20 16c0.736 0 1.333-0.597 1.333-1.333s-0.597-1.333-1.333-1.333c-0.736 0-1.333 0.597-1.333 1.333v0c0 0.736 0.597 1.333 1.333 1.333v0zM20 21.333c0.736 0 1.333-0.597 1.333-1.333s-0.597-1.333-1.333-1.333c-0.736 0-1.333 0.597-1.333 1.333v0c0 0.736 0.597 1.333 1.333 1.333v0zM25.333 21.333c0.736 0 1.333-0.597 1.333-1.333s-0.597-1.333-1.333-1.333c-0.736 0-1.333 0.597-1.333 1.333v0c0 0.736 0.597 1.333 1.333 1.333v0zM20 26.667c0.736 0 1.333-0.597 1.333-1.333s-0.597-1.333-1.333-1.333c-0.736 0-1.333 0.597-1.333 1.333v0c0 0.736 0.597 1.333 1.333 1.333v0zM30.667 8h-21.333c-0.736 0-1.333 0.597-1.333 1.333v0 21.333c0 0.736 0.597 1.333 1.333 1.333v0h21.333c0.736 0 1.333-0.597 1.333-1.333v0-21.333c0-0.736-0.597-1.333-1.333-1.333v0zM29.333 29.333h-18.667v-18.667h18.667zM14.667 21.333c0.736 0 1.333-0.597 1.333-1.333s-0.597-1.333-1.333-1.333c-0.736 0-1.333 0.597-1.333 1.333v0c0 0.736 0.597 1.333 1.333 1.333v0z"></path>
</svg>
