<!-- Generated by IcoMoon.io -->
<svg version="1.1" xmlns="http://www.w3.org/2000/svg" width="40" height="40" viewBox="0 0 40 40">
<title>bring-bottom</title>
<path fill="#fff" d="M32 22.667h-2.667c-0.736 0-1.333 0.597-1.333 1.333s0.597 1.333 1.333 1.333v0h1.333v5.333h-21.333v-5.333h9.333c0.736 0 1.333-0.597 1.333-1.333s-0.597-1.333-1.333-1.333v0h-1.333v-6.667c0-0.736-0.597-1.333-1.333-1.333v0h-8c-0.736 0-1.333 0.597-1.333 1.333v0 16c0 0.736 0.597 1.333 1.333 1.333v0h24c0.736 0 1.333-0.597 1.333-1.333v0-8c0-0.736-0.597-1.333-1.333-1.333v0zM9.333 17.333h5.333v5.333h-5.333zM20.947 12.933l1.72-1.72v15.453c0 0.736 0.597 1.333 1.333 1.333s1.333-0.597 1.333-1.333v0-15.453l1.72 1.72c0.241 0.246 0.576 0.398 0.946 0.4h0c0.002 0 0.005 0 0.008 0 0.366 0 0.698-0.148 0.939-0.387l-0 0c0.24-0.241 0.388-0.573 0.388-0.94s-0.148-0.699-0.388-0.94l-4-4c-0.242-0.244-0.577-0.394-0.947-0.394s-0.705 0.151-0.947 0.394l-4 4c-0.24 0.241-0.388 0.573-0.388 0.94s0.148 0.699 0.388 0.94l-0-0c0.241 0.24 0.573 0.388 0.94 0.388 0.373 0 0.711-0.154 0.953-0.401l0-0z"></path>
</svg>
