<!-- Generated by IcoMoon.io -->
<svg version="1.1" xmlns="http://www.w3.org/2000/svg" width="40" height="40" viewBox="0 0 40 40">
<title>camera-slash</title>
<path fill="#fff" d="M8.947 7.053c-0.242-0.242-0.577-0.392-0.947-0.392-0.739 0-1.339 0.599-1.339 1.339 0 0.37 0.15 0.704 0.392 0.947v0l3.733 3.72h-0.12c-2.209 0-4 1.791-4 4v0 10.667c0 2.209 1.791 4 4 4v0h18.773l1.613 1.627c0.242 0.244 0.577 0.394 0.947 0.394s0.705-0.151 0.947-0.394l0-0c0.244-0.242 0.394-0.577 0.394-0.947s-0.151-0.705-0.394-0.947l-0-0zM17.6 19.493l3.573 3.573c-0.34 0.168-0.74 0.267-1.162 0.267-0.004 0-0.008 0-0.011-0h0.001c-1.473 0-2.667-1.194-2.667-2.667v0c0-0.003-0-0.007-0-0.011 0-0.423 0.098-0.823 0.274-1.178l-0.007 0.016zM10.667 28.667c-0.736 0-1.333-0.597-1.333-1.333v0-10.667c0-0.736 0.597-1.333 1.333-1.333v0h2.76l2.267 2.253c-0.635 0.85-1.020 1.919-1.027 3.078v0.002c0 2.946 2.388 5.333 5.333 5.333v0c1.165-0.004 2.24-0.389 3.107-1.036l-0.014 0.010 3.693 3.693zM29.333 12.667h-1.707l-0.413-1.333c-0.566-1.567-2.040-2.667-3.771-2.667-0.010 0-0.020 0-0.030 0h-5.865c-0.736 0-1.333 0.597-1.333 1.333s0.597 1.333 1.333 1.333v0h5.867c0.001 0 0.002 0 0.003 0 0.584 0 1.080 0.375 1.26 0.897l0.003 0.009 0.72 2.173c0.179 0.538 0.678 0.92 1.267 0.92h2.667c0.736 0 1.333 0.597 1.333 1.333v0 7.787c0 0.736 0.597 1.333 1.333 1.333s1.333-0.597 1.333-1.333v0-7.787c0-2.209-1.791-4-4-4v0z"></path>
</svg>
