<!-- Generated by IcoMoon.io -->
<svg version="1.1" xmlns="http://www.w3.org/2000/svg" width="40" height="40" viewBox="0 0 40 40">
<title>camera</title>
<path fill="#fff" d="M29.333 12.667h-1.707l-0.427-1.333c-0.566-1.567-2.040-2.667-3.771-2.667-0.005 0-0.011 0-0.016 0h-6.826c-1.753 0.003-3.241 1.134-3.778 2.705l-0.008 0.028-0.427 1.333h-1.707c-2.209 0-4 1.791-4 4v0 10.667c0 2.209 1.791 4 4 4v0h18.667c2.209 0 4-1.791 4-4v0-10.667c0-0.020 0.001-0.043 0.001-0.067 0-2.209-1.791-4-4-4-0 0-0 0-0.001 0h0zM30.667 27.333c0 0.736-0.597 1.333-1.333 1.333v0h-18.667c-0.736 0-1.333-0.597-1.333-1.333v0-10.667c0-0.736 0.597-1.333 1.333-1.333v0h2.667c0.021 0.001 0.045 0.002 0.069 0.002 0.584 0 1.081-0.376 1.261-0.899l0.003-0.009 0.72-2.187c0.183-0.532 0.68-0.907 1.263-0.907 0.001 0 0.002 0 0.004 0h6.826c0.001 0 0.002 0 0.003 0 0.584 0 1.080 0.375 1.26 0.897l0.003 0.009 0.72 2.187c0.176 0.512 0.642 0.879 1.197 0.907l0.003 0h2.667c0.736 0 1.333 0.597 1.333 1.333v0zM20 15.333c-2.946 0-5.333 2.388-5.333 5.333s2.388 5.333 5.333 5.333c2.946 0 5.333-2.388 5.333-5.333v0c0-2.946-2.388-5.333-5.333-5.333v0zM20 23.333c-1.473 0-2.667-1.194-2.667-2.667s1.194-2.667 2.667-2.667c1.473 0 2.667 1.194 2.667 2.667v0c0 1.473-1.194 2.667-2.667 2.667v0z"></path>
</svg>
