<!-- Generated by IcoMoon.io -->
<svg version="1.1" xmlns="http://www.w3.org/2000/svg" width="40" height="40" viewBox="0 0 40 40">
<title>capture</title>
<path fill="#fff" d="M8 16c0.736 0 1.333-0.597 1.333-1.333v0-4c0-0.736 0.597-1.333 1.333-1.333v0h4c0.736 0 1.333-0.597 1.333-1.333s-0.597-1.333-1.333-1.333v0h-4c-2.209 0-4 1.791-4 4v0 4c0 0.736 0.597 1.333 1.333 1.333v0zM14.667 30.667h-4c-0.736 0-1.333-0.597-1.333-1.333v0-4c0-0.736-0.597-1.333-1.333-1.333s-1.333 0.597-1.333 1.333v0 4c0 2.209 1.791 4 4 4v0h4c0.736 0 1.333-0.597 1.333-1.333s-0.597-1.333-1.333-1.333v0zM20 14.667c-2.946 0-5.333 2.388-5.333 5.333s2.388 5.333 5.333 5.333c2.946 0 5.333-2.388 5.333-5.333v0c0-2.946-2.388-5.333-5.333-5.333v0zM20 22.667c-1.473 0-2.667-1.194-2.667-2.667s1.194-2.667 2.667-2.667c1.473 0 2.667 1.194 2.667 2.667v0c0 1.473-1.194 2.667-2.667 2.667v0zM29.333 6.667h-4c-0.736 0-1.333 0.597-1.333 1.333s0.597 1.333 1.333 1.333v0h4c0.736 0 1.333 0.597 1.333 1.333v0 4c0 0.736 0.597 1.333 1.333 1.333s1.333-0.597 1.333-1.333v0-4c0-2.209-1.791-4-4-4v0zM32 24c-0.736 0-1.333 0.597-1.333 1.333v0 4c0 0.736-0.597 1.333-1.333 1.333v0h-4c-0.736 0-1.333 0.597-1.333 1.333s0.597 1.333 1.333 1.333v0h4c2.209 0 4-1.791 4-4v0-4c0-0.736-0.597-1.333-1.333-1.333v0z"></path>
</svg>
