<!-- Generated by IcoMoon.io -->
<svg version="1.1" xmlns="http://www.w3.org/2000/svg" width="40" height="40" viewBox="0 0 40 40">
<title>car-slash</title>
<path fill="#fff" d="M13.333 21.333c-0.736 0-1.333 0.597-1.333 1.333s0.597 1.333 1.333 1.333c0.736 0 1.333-0.597 1.333-1.333v0c0-0.736-0.597-1.333-1.333-1.333v0zM30.347 16.147l-1.8-5.413c-0.566-1.567-2.040-2.667-3.771-2.667-0.010 0-0.020 0-0.030 0h-7.865c-0.736 0-1.333 0.597-1.333 1.333s0.597 1.333 1.333 1.333v0h7.867c0.019-0.001 0.042-0.002 0.065-0.002 0.589 0 1.089 0.382 1.265 0.912l0.003 0.009 1.4 4.347h-2.6c-0.736 0-1.333 0.597-1.333 1.333s0.597 1.333 1.333 1.333v0h4.453c0.736 0 1.333 0.597 1.333 1.333v0 4.453c0 0.736 0.597 1.333 1.333 1.333s1.333-0.597 1.333-1.333v0-4.453c-0.008-1.842-1.26-3.39-2.959-3.847l-0.028-0.006zM9.013 7.053c-0.248-0.257-0.595-0.416-0.98-0.416-0.753 0-1.363 0.61-1.363 1.363 0 0.368 0.146 0.702 0.383 0.947l-0-0 3.76 3.747-1.16 3.453c-1.727 0.463-2.979 2.011-2.987 3.852v5.334c0.005 1.727 1.103 3.196 2.639 3.751l0.028 0.009v1.573c0 0.736 0.597 1.333 1.333 1.333s1.333-0.597 1.333-1.333v0-1.333h15.453l0.547 0.547v0.787c0 0.736 0.597 1.333 1.333 1.333v0c0.227-0.002 0.438-0.066 0.619-0.176l-0.005 0.003 1.107 1.12c0.242 0.244 0.577 0.394 0.947 0.394s0.705-0.151 0.947-0.394l0-0c0.244-0.242 0.394-0.577 0.394-0.947s-0.151-0.705-0.394-0.947l-0-0zM13.013 14.8l1.2 1.2h-1.693zM10.667 26.667c-0.736 0-1.333-0.597-1.333-1.333v0-5.333c0-0.736 0.597-1.333 1.333-1.333v0h6.12l2.667 2.667h-0.787c-0.736 0-1.333 0.597-1.333 1.333s0.597 1.333 1.333 1.333v0h2.667c0.227-0.002 0.438-0.066 0.619-0.176l-0.005 0.003 2.84 2.84z"></path>
</svg>
