<!-- Generated by IcoMoon.io -->
<svg version="1.1" xmlns="http://www.w3.org/2000/svg" width="40" height="40" viewBox="0 0 40 40">
<title>card-atm</title>
<path fill="#fff" d="M29.333 10h-18.667c-2.209 0-4 1.791-4 4v0 12c0 2.209 1.791 4 4 4v0h18.667c2.209 0 4-1.791 4-4v0-12c0-2.209-1.791-4-4-4v0zM30.667 26c0 0.736-0.597 1.333-1.333 1.333v0h-18.667c-0.736 0-1.333-0.597-1.333-1.333v0-12c0-0.736 0.597-1.333 1.333-1.333v0h18.667c0.736 0 1.333 0.597 1.333 1.333v0zM25.333 18c-0.744 0.005-1.438 0.213-2.031 0.57l0.018-0.010c-0.583-0.352-1.288-0.56-2.041-0.56-2.209 0-4 1.791-4 4s1.791 4 4 4c0.753 0 1.458-0.208 2.059-0.57l-0.018 0.010c0.583 0.352 1.288 0.56 2.041 0.56 2.209 0 4-1.791 4-4s-1.791-4-4-4c-0.010 0-0.019 0-0.029 0h0.001zM21.56 23.333c-0.034 0.003-0.073 0.005-0.113 0.005s-0.079-0.002-0.118-0.005l0.005 0c-0.736 0-1.333-0.597-1.333-1.333s0.597-1.333 1.333-1.333v0c0.034-0.003 0.073-0.005 0.113-0.005s0.079 0.002 0.118 0.005l-0.005-0c-0.143 0.381-0.226 0.821-0.226 1.28s0.083 0.899 0.235 1.306l-0.008-0.026zM25.333 23.333c-0.736 0-1.333-0.597-1.333-1.333s0.597-1.333 1.333-1.333c0.736 0 1.333 0.597 1.333 1.333v0c0 0.736-0.597 1.333-1.333 1.333v0z"></path>
</svg>
