<!-- Generated by IcoMoon.io -->
<svg version="1.1" xmlns="http://www.w3.org/2000/svg" width="40" height="40" viewBox="0 0 40 40">
<title>clipboard-alt</title>
<path fill="#fff" d="M24 22.667h-8c-0.736 0-1.333 0.597-1.333 1.333s0.597 1.333 1.333 1.333v0h8c0.736 0 1.333-0.597 1.333-1.333s-0.597-1.333-1.333-1.333v0zM24 17.333h-5.333c-0.736 0-1.333 0.597-1.333 1.333s0.597 1.333 1.333 1.333v0h5.333c0.736 0 1.333-0.597 1.333-1.333s-0.597-1.333-1.333-1.333v0zM26.667 9.333h-1.573c-0.564-1.563-2.033-2.662-3.759-2.667h-2.667c-1.727 0.005-3.196 1.103-3.751 2.639l-0.009 0.028h-1.573c-2.209 0-4 1.791-4 4v0 16c0 2.209 1.791 4 4 4v0h13.333c2.209 0 4-1.791 4-4v0-16c0-2.209-1.791-4-4-4v0zM17.333 10.667c0-0.736 0.597-1.333 1.333-1.333v0h2.667c0.736 0 1.333 0.597 1.333 1.333v0 1.333h-5.333zM28 29.333c0 0.736-0.597 1.333-1.333 1.333v0h-13.333c-0.736 0-1.333-0.597-1.333-1.333v0-16c0-0.736 0.597-1.333 1.333-1.333v0h1.333v1.333c0 0.736 0.597 1.333 1.333 1.333v0h8c0.736 0 1.333-0.597 1.333-1.333v0-1.333h1.333c0.736 0 1.333 0.597 1.333 1.333v0z"></path>
</svg>
