<!-- Generated by IcoMoon.io -->
<svg version="1.1" xmlns="http://www.w3.org/2000/svg" width="40" height="40" viewBox="0 0 40 40">
<title>cloud-moon</title>
<path fill="#fff" d="M32.933 16.093c-0.24-0.236-0.57-0.382-0.934-0.382-0.108 0-0.214 0.013-0.315 0.037l0.009-0.002c-0.263 0.063-0.566 0.102-0.877 0.107l-0.003 0c-2.209 0-4-1.791-4-4v0c0.005-0.314 0.043-0.617 0.112-0.908l-0.006 0.028c0.023-0.092 0.036-0.197 0.036-0.306 0-0.364-0.146-0.694-0.382-0.935l0 0c-0.244-0.262-0.592-0.426-0.977-0.426-0.093 0-0.184 0.010-0.271 0.028l0.009-0.001c-2.705 0.613-4.753 2.832-5.103 5.581l-0.003 0.033c-0.643-0.178-1.38-0.28-2.142-0.28-0.030 0-0.060 0-0.089 0l0.005-0c-0.001 0-0.003 0-0.005 0-4.009 0-7.329 2.949-7.91 6.796l-0.005 0.044c-1.981 0.569-3.407 2.365-3.407 4.493 0 2.575 2.086 4.663 4.66 4.667h12.227c3.189 0 5.773-2.585 5.773-5.773v0c0-0.009 0-0.020 0-0.032 0-0.964-0.242-1.872-0.668-2.665l0.015 0.030c2.329-0.666 4.104-2.52 4.645-4.849l0.009-0.044c0.017-0.079 0.026-0.17 0.026-0.263 0-0.386-0.164-0.733-0.425-0.976l-0.001-0.001zM23.6 28h-12.267c-1.105 0-2-0.895-2-2s0.895-2 2-2v0c0.736 0 1.333-0.597 1.333-1.333v0c0.010-2.938 2.394-5.315 5.333-5.315 1.081 0 2.087 0.322 2.927 0.874l-0.020-0.012c0.963 0.633 1.694 1.55 2.082 2.63l0.011 0.037c0.157 0.463 0.55 0.807 1.032 0.892l0.008 0.001c1.618 0.129 2.883 1.473 2.883 3.113 0 1.725-1.398 3.123-3.123 3.123-0.084 0-0.168-0.003-0.251-0.010l0.011 0.001zM26.853 19.853c-0.084 0.007-0.181 0.011-0.28 0.011s-0.196-0.004-0.293-0.012l0.013 0.001c-0.27-0.148-0.587-0.288-0.917-0.401l-0.043-0.013c-0.57-1.223-1.393-2.242-2.408-3.026l-0.019-0.014c0-0.16 0-0.333 0-0.493 0-0 0-0 0-0 0-1.214 0.541-2.302 1.395-3.035l0.005-0.004c0.436 2.923 2.717 5.204 5.603 5.636l0.037 0.004c-0.736 0.829-1.805 1.349-2.995 1.349-0.049 0-0.097-0.001-0.145-0.003l0.007 0z"></path>
</svg>
