<!-- Generated by IcoMoon.io -->
<svg version="1.1" xmlns="http://www.w3.org/2000/svg" width="40" height="40" viewBox="0 0 40 40">
<title>cloud-info</title>
<path fill="#fff" d="M19.053 20.387c-0.244 0.242-0.394 0.577-0.394 0.947 0 0.736 0.597 1.333 1.333 1.333 0.003 0 0.005 0 0.008-0h0.253c0.095-0.014 0.18-0.042 0.258-0.082l-0.004 0.002c0.087-0.029 0.162-0.069 0.228-0.121l-0.002 0.001 0.2-0.16c0.244-0.242 0.394-0.577 0.394-0.947s-0.151-0.705-0.394-0.947l-0-0c-0.242-0.248-0.58-0.401-0.953-0.401-0.36 0-0.687 0.143-0.927 0.375l0-0zM20 24c-0.736 0-1.333 0.597-1.333 1.333v0 4c0 0.736 0.597 1.333 1.333 1.333s1.333-0.597 1.333-1.333v0-4c0-0.736-0.597-1.333-1.333-1.333v0zM28.56 14.96c-1.475-3.329-4.75-5.609-8.558-5.609-4.73 0-8.638 3.519-9.25 8.081l-0.005 0.048c-2.365 0.58-4.091 2.682-4.091 5.187 0 2.946 2.388 5.333 5.333 5.333 0.004 0 0.008 0 0.012 0h2.666c0.736 0 1.333-0.597 1.333-1.333s-0.597-1.333-1.333-1.333v0h-2.667c-1.473 0-2.667-1.194-2.667-2.667s1.194-2.667 2.667-2.667v0c0.736 0 1.333-0.597 1.333-1.333v0c0.008-3.676 2.99-6.652 6.667-6.652 2.908 0 5.381 1.862 6.292 4.459l0.014 0.047c0.157 0.463 0.55 0.807 1.032 0.892l0.008 0.001c1.89 0.335 3.309 1.96 3.32 3.919v0.001c0 2.209-1.791 4-4 4v0h-1.333c-0.736 0-1.333 0.597-1.333 1.333s0.597 1.333 1.333 1.333v0h1.333c3.655-0.035 6.605-3.006 6.605-6.666 0-2.984-1.961-5.511-4.665-6.361l-0.047-0.013z"></path>
</svg>
