<!-- Generated by IcoMoon.io -->
<svg version="1.1" xmlns="http://www.w3.org/2000/svg" width="40" height="40" viewBox="0 0 40 40">
<title>cloud</title>
<path fill="#fff" d="M28.56 16.28c-1.476-3.327-4.75-5.606-8.557-5.606-4.734 0-8.644 3.524-9.251 8.092l-0.005 0.048c-2.365 0.58-4.091 2.682-4.091 5.187 0 2.946 2.388 5.333 5.333 5.333 0.004 0 0.008 0 0.012 0h14.666c3.674-0.010 6.648-2.991 6.648-6.667 0-3-1.982-5.538-4.708-6.374l-0.047-0.012zM26.667 26.667h-14.667c-1.473 0-2.667-1.194-2.667-2.667s1.194-2.667 2.667-2.667v0c0.736 0 1.333-0.597 1.333-1.333v0c0.008-3.676 2.99-6.652 6.667-6.652 2.908 0 5.381 1.862 6.292 4.459l0.014 0.047c0.161 0.458 0.553 0.796 1.032 0.879l0.008 0.001c1.875 0.355 3.274 1.981 3.274 3.934 0 2.193-1.765 3.974-3.952 4l-0.002 0z"></path>
</svg>
