<!-- Generated by IcoMoon.io -->
<svg version="1.1" xmlns="http://www.w3.org/2000/svg" width="40" height="40" viewBox="0 0 40 40">
<title>comment-alt-lines</title>
<path fill="#fff" d="M21.333 18.667h-8c-0.736 0-1.333 0.597-1.333 1.333s0.597 1.333 1.333 1.333v0h8c0.736 0 1.333-0.597 1.333-1.333s-0.597-1.333-1.333-1.333v0zM26.667 13.333h-13.333c-0.736 0-1.333 0.597-1.333 1.333s0.597 1.333 1.333 1.333v0h13.333c0.736 0 1.333-0.597 1.333-1.333s-0.597-1.333-1.333-1.333v0zM29.333 6.667h-18.667c-2.209 0-4 1.791-4 4v0 13.333c0 2.209 1.791 4 4 4v0h15.453l4.933 4.947c0.241 0.239 0.573 0.387 0.939 0.387 0.003 0 0.005 0 0.008-0h-0c0.009 0 0.019 0 0.029 0 0.174 0 0.338-0.039 0.485-0.11l-0.007 0.003c0.487-0.204 0.824-0.676 0.827-1.226v-21.334c0-2.209-1.791-4-4-4v0zM30.667 28.787l-3.053-3.067c-0.241-0.239-0.573-0.387-0.939-0.387-0.003 0-0.005 0-0.008 0h-16c-0.736 0-1.333-0.597-1.333-1.333v0-13.333c0-0.736 0.597-1.333 1.333-1.333v0h18.667c0.736 0 1.333 0.597 1.333 1.333v0z"></path>
</svg>
