<!-- Generated by IcoMoon.io -->
<svg version="1.1" xmlns="http://www.w3.org/2000/svg" width="40" height="40" viewBox="0 0 40 40">
<title>data-sharing</title>
<path fill="#fff" d="M31.36 9.16c-1.099-2.259-3.378-3.789-6.013-3.789-2.703 0-5.030 1.608-6.076 3.92l-0.017 0.042h-5.92c-2.209 0-4 1.791-4 4v0 5.333c0 0.736 0.597 1.333 1.333 1.333s1.333-0.597 1.333-1.333v0-5.333c0-0.736 0.597-1.333 1.333-1.333v0h3.707c-0.64 0.702-1.034 1.638-1.040 2.665v0.001c0 2.209 1.791 4 4 4v0h9.773c0.010 0 0.023 0 0.035 0 2.695 0 4.88-2.185 4.88-4.88 0-2.14-1.377-3.958-3.294-4.617l-0.034-0.010zM29.773 16h-9.773c-0.736 0-1.333-0.597-1.333-1.333s0.597-1.333 1.333-1.333v0c0.736 0 1.333-0.597 1.333-1.333v0c-0-0.013-0-0.029-0-0.045 0-2.209 1.791-4 4-4 1.748 0 3.234 1.121 3.778 2.684l0.009 0.028c0.157 0.463 0.55 0.807 1.032 0.892l0.008 0.001c1.051 0.179 1.84 1.082 1.84 2.17 0 0.015-0 0.030-0 0.045l0-0.002c0 1.23-0.997 2.227-2.227 2.227v0zM29.333 21.333c-0.736 0-1.333 0.597-1.333 1.333v0 4c0 0.736-0.597 1.333-1.333 1.333v0h-3.013c-0.532-1.336-1.597-2.362-2.926-2.83l-0.034-0.010c-1.092-2.279-3.381-3.825-6.031-3.825-3.281 0-6.008 2.37-6.563 5.491l-0.006 0.040c-1.611 0.541-2.751 2.037-2.751 3.8 0 2.206 1.786 3.995 3.991 4h9.774c2.384 0 4.369-1.71 4.795-3.97l0.005-0.030h2.76c2.209 0 4-1.791 4-4v0-4c0-0.736-0.597-1.333-1.333-1.333v0zM19.107 32h-9.773c-0.736 0-1.333-0.597-1.333-1.333s0.597-1.333 1.333-1.333v0c0.736 0 1.333-0.597 1.333-1.333v0c-0-0.013-0-0.029-0-0.045 0-2.209 1.791-4 4-4 1.748 0 3.234 1.121 3.778 2.684l0.009 0.028c0.157 0.463 0.55 0.807 1.032 0.892l0.008 0.001c1.051 0.179 1.84 1.082 1.84 2.17 0 0.015-0 0.030-0 0.045l0-0.002c0 1.23-0.997 2.227-2.227 2.227v0z"></path>
</svg>
