<!-- Generated by IcoMoon.io -->
<svg version="1.1" xmlns="http://www.w3.org/2000/svg" width="40" height="40" viewBox="0 0 40 40">
<title>dialpad-alt</title>
<path fill="#fff" d="M10.667 16.333c-2.025 0-3.667 1.642-3.667 3.667s1.642 3.667 3.667 3.667c2.025 0 3.667-1.642 3.667-3.667v0c0-2.025-1.642-3.667-3.667-3.667v0zM10.667 21.667c-0.92 0-1.667-0.746-1.667-1.667s0.746-1.667 1.667-1.667c0.92 0 1.667 0.746 1.667 1.667v0c0 0.92-0.746 1.667-1.667 1.667v0zM20 16.333c-2.025 0-3.667 1.642-3.667 3.667s1.642 3.667 3.667 3.667c2.025 0 3.667-1.642 3.667-3.667v0c0-2.025-1.642-3.667-3.667-3.667v0zM20 21.667c-0.92 0-1.667-0.746-1.667-1.667s0.746-1.667 1.667-1.667c0.92 0 1.667 0.746 1.667 1.667v0c0 0.92-0.746 1.667-1.667 1.667v0zM29.333 14.333c2.025 0 3.667-1.642 3.667-3.667s-1.642-3.667-3.667-3.667c-2.025 0-3.667 1.642-3.667 3.667v0c0 2.025 1.642 3.667 3.667 3.667v0zM29.333 9c0.92 0 1.667 0.746 1.667 1.667s-0.746 1.667-1.667 1.667c-0.92 0-1.667-0.746-1.667-1.667v0c0-0.92 0.746-1.667 1.667-1.667v0zM29.333 16.333c-2.025 0-3.667 1.642-3.667 3.667s1.642 3.667 3.667 3.667c2.025 0 3.667-1.642 3.667-3.667v0c0-2.025-1.642-3.667-3.667-3.667v0zM29.333 21.667c-0.92 0-1.667-0.746-1.667-1.667s0.746-1.667 1.667-1.667c0.92 0 1.667 0.746 1.667 1.667v0c0 0.92-0.746 1.667-1.667 1.667v0zM10.667 7c-2.025 0-3.667 1.642-3.667 3.667s1.642 3.667 3.667 3.667c2.025 0 3.667-1.642 3.667-3.667v0c0-2.025-1.642-3.667-3.667-3.667v0zM10.667 12.333c-0.92 0-1.667-0.746-1.667-1.667s0.746-1.667 1.667-1.667c0.92 0 1.667 0.746 1.667 1.667v0c0 0.92-0.746 1.667-1.667 1.667v0zM20 25.667c-2.025 0-3.667 1.642-3.667 3.667s1.642 3.667 3.667 3.667c2.025 0 3.667-1.642 3.667-3.667v0c0-2.025-1.642-3.667-3.667-3.667v0zM20 31c-0.92 0-1.667-0.746-1.667-1.667s0.746-1.667 1.667-1.667c0.92 0 1.667 0.746 1.667 1.667v0c0 0.92-0.746 1.667-1.667 1.667v0zM20 7c-2.025 0-3.667 1.642-3.667 3.667s1.642 3.667 3.667 3.667c2.025 0 3.667-1.642 3.667-3.667v0c0-2.025-1.642-3.667-3.667-3.667v0zM20 12.333c-0.92 0-1.667-0.746-1.667-1.667s0.746-1.667 1.667-1.667c0.92 0 1.667 0.746 1.667 1.667v0c0 0.92-0.746 1.667-1.667 1.667v0z"></path>
</svg>
