<!-- Generated by IcoMoon.io -->
<svg version="1.1" xmlns="http://www.w3.org/2000/svg" width="40" height="40" viewBox="0 0 40 40">
<title>drill</title>
<path fill="#fff" d="M29.333 9.333h-13.333c-0.736 0-1.333 0.597-1.333 1.333v0 2.667h-6.667c-0.736 0-1.333 0.597-1.333 1.333s0.597 1.333 1.333 1.333v0h6.667v5.333c0 0.736 0.597 1.333 1.333 1.333s1.333-0.597 1.333-1.333v0-1.333h5.333v9.333c0 0.736 0.597 1.333 1.333 1.333v0h2.667c2.209 0 4-1.791 4-4v0-6.907c1.563-0.564 2.662-2.033 2.667-3.759v-2.667c0-2.209-1.791-4-4-4v0zM28 26.667c0 0.736-0.597 1.333-1.333 1.333v0h-1.333v-8h2.667zM30.667 16c0 0.736-0.597 1.333-1.333 1.333v0h-12v-5.333h8v1.333c0 0.736 0.597 1.333 1.333 1.333s1.333-0.597 1.333-1.333v0-1.333h1.333c0.736 0 1.333 0.597 1.333 1.333v0z"></path>
</svg>
