<!-- Generated by IcoMoon.io -->
<svg version="1.1" xmlns="http://www.w3.org/2000/svg" width="40" height="40" viewBox="0 0 40 40">
<title>dropbox</title>
<path fill="#fff" d="M32.813 19.747l-4.333-3.373 4.347-3.413c0.312-0.246 0.51-0.624 0.51-1.049 0-0.034-0.001-0.068-0.004-0.102l0 0.004c-0.045-0.452-0.298-0.838-0.661-1.063l-0.006-0.003-6.853-3.907c-0.188-0.108-0.414-0.171-0.654-0.171-0.338 0-0.646 0.126-0.881 0.333l0.001-0.001-4.28 3.733-4.28-3.733c-0.233-0.206-0.542-0.331-0.88-0.331-0.24 0-0.466 0.064-0.66 0.175l0.007-0.003-6.853 3.907c-0.368 0.229-0.621 0.614-0.666 1.061l-0.001 0.006c-0.002 0.029-0.004 0.063-0.004 0.098 0 0.424 0.198 0.803 0.507 1.047l0.003 0.002 4.347 3.413-4.333 3.32c-0.319 0.246-0.523 0.629-0.523 1.059 0 0.031 0.001 0.062 0.003 0.092l-0-0.004c0.032 0.457 0.289 0.847 0.66 1.063l0.006 0.003 4.547 2.667v3.293c0.002 0.478 0.255 0.896 0.634 1.13l0.006 0.003 6.787 4.173c0.191 0.112 0.421 0.179 0.667 0.179s0.475-0.066 0.673-0.182l-0.006 0.003 6.787-4.173c0.385-0.237 0.638-0.655 0.64-1.133v-3.307l4.547-2.6c0.378-0.22 0.635-0.61 0.666-1.062l0-0.004c0.004-0.038 0.006-0.083 0.006-0.128 0-0.408-0.183-0.772-0.471-1.017l-0.002-0.002zM25.333 9.627l4.307 2.453-3.4 2.667-4-2.453zM23.88 16.453l-3.88 2.667-3.88-2.667 3.88-2.387zM10.387 12.080l4.28-2.453 3.080 2.667-4 2.453zM10.387 20.6l3.333-2.56 4 2.773-2.96 2.307zM25.44 27.080l-5.44 3.36-5.453-3.36v-1.067c0.095 0.024 0.205 0.038 0.318 0.038 0.309 0 0.593-0.105 0.818-0.281l-0.003 0.002 4.32-3.333 4.32 3.333c0.222 0.174 0.505 0.279 0.813 0.28h0c0.048 0.006 0.104 0.010 0.16 0.010s0.112-0.004 0.166-0.010l-0.006 0.001zM25.24 23.080l-2.973-2.267 4-2.773 3.347 2.587z"></path>
</svg>
