<!-- Generated by IcoMoon.io -->
<svg version="1.1" xmlns="http://www.w3.org/2000/svg" width="40" height="40" viewBox="0 0 40 40">
<title>envelope-check</title>
<path fill="#fff" d="M25.72 15.613c0.242 0.244 0.577 0.394 0.947 0.394s0.705-0.151 0.947-0.394l5.333-5.333c0.242-0.242 0.392-0.577 0.392-0.947 0-0.739-0.599-1.339-1.339-1.339-0.37 0-0.704 0.15-0.947 0.392v0l-4.387 4.4-1.72-1.733c-0.242-0.242-0.577-0.392-0.947-0.392-0.739 0-1.339 0.599-1.339 1.339 0 0.37 0.15 0.704 0.392 0.947v0zM32 14.667c-0.736 0-1.333 0.597-1.333 1.333v0 12c0 0.736-0.597 1.333-1.333 1.333v0h-18.667c-0.736 0-1.333-0.597-1.333-1.333v0-12.787l7.84 7.853c0.722 0.716 1.716 1.159 2.813 1.16h0c1.125-0.006 2.142-0.463 2.88-1.2l2.293-2.293c0.242-0.242 0.392-0.577 0.392-0.947 0-0.739-0.599-1.339-1.339-1.339-0.37 0-0.704 0.15-0.947 0.392l-2.333 2.333c-0.24 0.236-0.57 0.381-0.933 0.381s-0.693-0.145-0.934-0.381l0 0-7.853-7.84h7.453c0.736 0 1.333-0.597 1.333-1.333s-0.597-1.333-1.333-1.333v0h-8c-2.209 0-4 1.791-4 4v0 13.333c0 2.209 1.791 4 4 4v0h18.667c2.209 0 4-1.791 4-4v0-12c0-0.736-0.597-1.333-1.333-1.333v0z"></path>
</svg>
