<!-- Generated by IcoMoon.io -->
<svg version="1.1" xmlns="http://www.w3.org/2000/svg" width="40" height="40" viewBox="0 0 40 40">
<title>envelope-open</title>
<path fill="#fff" d="M30.947 15.76v0 0 0l-8.28-8.053c-0.675-0.643-1.591-1.039-2.6-1.039s-1.925 0.396-2.602 1.040l0.002-0.001-8.28 8c-0.72 0.631-1.175 1.548-1.187 2.571l-0 0.002v11.44c0.030 2.002 1.66 3.614 3.666 3.614 0.014 0 0.028-0 0.043-0l-0.002 0h16.587c0.012 0 0.026 0 0.040 0 2.006 0 3.636-1.611 3.666-3.611l0-0.003v-11.44c-0.002-0.985-0.405-1.877-1.053-2.52l-0-0zM19.253 9.627c0.196-0.18 0.459-0.29 0.747-0.29s0.551 0.11 0.747 0.291l-0.001-0.001 7.253 7.040-7.293 7.040c-0.196 0.18-0.459 0.29-0.747 0.29s-0.551-0.11-0.748-0.291l0.001 0.001-7.213-7.040zM29.333 29.72c-0.036 0.53-0.475 0.947-1.011 0.947-0.010 0-0.020-0-0.030-0l0.001 0h-16.587c-0.009 0-0.019 0-0.029 0-0.536 0-0.975-0.417-1.011-0.944l-0-0.003v-10.587l5.4 5.2-2.213 2.133c-0.24 0.241-0.388 0.573-0.388 0.94s0.148 0.699 0.388 0.94l-0-0c0.242 0.254 0.582 0.412 0.96 0.413h0c0.358-0.001 0.682-0.144 0.92-0.374l2.36-2.266c0.554 0.344 1.227 0.548 1.947 0.548s1.392-0.204 1.963-0.557l-0.016 0.009 2.36 2.267c0.238 0.23 0.562 0.372 0.92 0.373h0c0.378-0.001 0.718-0.16 0.959-0.413l0.001-0.001c0.24-0.241 0.388-0.573 0.388-0.94s-0.148-0.699-0.388-0.94l0 0-2.227-2.133 5.333-5.2z"></path>
</svg>
