<!-- Generated by IcoMoon.io -->
<svg version="1.1" xmlns="http://www.w3.org/2000/svg" width="40" height="40" viewBox="0 0 40 40">
<title>envelope-heart</title>
<path fill="#fff" d="M31.333 21.333c-0.736 0-1.333 0.597-1.333 1.333v0 5.333c0 0.736-0.597 1.333-1.333 1.333v0h-18.667c-0.736 0-1.333-0.597-1.333-1.333v0-12.787l7.84 7.853c0.722 0.716 1.716 1.159 2.813 1.16h0c0.003 0 0.007 0 0.010 0 1.119 0 2.13-0.459 2.856-1.199l0.001-0.001 1.187-1.173c0.154-0.214 0.246-0.482 0.246-0.771 0-0.736-0.597-1.333-1.333-1.333-0.293 0-0.563 0.094-0.783 0.254l0.004-0.003-1.24 1.213c-0.24 0.236-0.57 0.381-0.933 0.381s-0.693-0.145-0.934-0.381l0 0-7.853-7.88h6.12c0.736 0 1.333-0.597 1.333-1.333s-0.597-1.333-1.333-1.333v0h-6.667c-2.209 0-4 1.791-4 4v0 13.333c0 2.209 1.791 4 4 4v0h18.667c2.209 0 4-1.791 4-4v0-5.333c0-0.736-0.597-1.333-1.333-1.333v0zM32.733 9.333c-0.797-0.769-1.884-1.244-3.082-1.244-0.766 0-1.486 0.194-2.115 0.535l0.023-0.012c-0.602-0.338-1.322-0.536-2.088-0.536-2.393 0-4.333 1.94-4.333 4.333 0 1.186 0.477 2.261 1.249 3.044l-0-0 4.28 4.16c0.246 0.235 0.579 0.381 0.946 0.387h0.001c0.002 0 0.005 0 0.008 0 0.366 0 0.698-0.148 0.939-0.387l4.227-4.227c0.743-0.779 1.201-1.835 1.201-2.999 0-1.191-0.479-2.27-1.254-3.055l0 0zM30.853 13.493l-3.293 3.293-3.28-3.293c-0.297-0.302-0.48-0.716-0.48-1.173 0-0.924 0.749-1.674 1.674-1.674 0.467 0 0.89 0.191 1.193 0.5l0 0c0.242 0.244 0.577 0.394 0.947 0.394s0.705-0.151 0.947-0.394l0-0c0.305-0.289 0.718-0.467 1.173-0.467s0.868 0.178 1.174 0.468l-0.001-0.001c0.28 0.299 0.452 0.703 0.452 1.146 0 0.47-0.193 0.895-0.505 1.2l-0 0z"></path>
</svg>
