<!-- Generated by IcoMoon.io -->
<svg version="1.1" xmlns="http://www.w3.org/2000/svg" width="40" height="40" viewBox="0 0 40 40">
<title>envelope-lock</title>
<path fill="#fff" d="M31.333 13.92v-1.573c0-2.209-1.791-4-4-4s-4 1.791-4 4v0 1.573c-1.563 0.564-2.662 2.033-2.667 3.759v2.667c0 2.209 1.791 4 4 4v0h5.333c2.209 0 4-1.791 4-4v0-2.667c-0.005-1.727-1.103-3.196-2.639-3.751l-0.028-0.009zM26 12.347c0-0.736 0.597-1.333 1.333-1.333s1.333 0.597 1.333 1.333v0 1.333h-2.667zM31.333 20.347c0 0.736-0.597 1.333-1.333 1.333v0h-5.333c-0.736 0-1.333-0.597-1.333-1.333v0-2.667c0-0.736 0.597-1.333 1.333-1.333v0h5.333c0.736 0 1.333 0.597 1.333 1.333v0zM31.333 27.013c-0.736 0-1.333 0.597-1.333 1.333v0 1.333c0 0.736-0.597 1.333-1.333 1.333v0h-18.667c-0.736 0-1.333-0.597-1.333-1.333v0-12.787l7.84 7.84c0.242 0.243 0.577 0.394 0.947 0.394 0.737 0 1.334-0.597 1.334-1.334 0-0.367-0.148-0.699-0.387-0.94l0 0-7.853-7.84h7.453c0.736 0 1.333-0.597 1.333-1.333s-0.597-1.333-1.333-1.333v0h-8c-2.209 0-4 1.791-4 4v0 13.333c0 2.209 1.791 4 4 4v0h18.667c2.209 0 4-1.791 4-4v0-1.333c0-0.736-0.597-1.333-1.333-1.333v0z"></path>
</svg>
