<!-- Generated by IcoMoon.io -->
<svg version="1.1" xmlns="http://www.w3.org/2000/svg" width="40" height="40" viewBox="0 0 40 40">
<title>feedback</title>
<path fill="#fff" d="M33.333 5.333h-9.333c-0.004-0-0.009-0-0.013-0-1.589 0-2.913 1.14-3.197 2.646l-0.003 0.020-1.227 6.733c-0.033 0.174-0.052 0.374-0.052 0.579 0 0.797 0.287 1.527 0.763 2.093l-0.004-0.005c0.605 0.716 1.503 1.169 2.506 1.173h3.894l-0.333 0.88c-0.177 0.455-0.28 0.983-0.28 1.534 0 2.377 1.908 4.308 4.276 4.346l0.004 0c0.003 0 0.007 0 0.011 0 0.538 0 1.002-0.319 1.213-0.778l0.003-0.008 2.987-6.747c0.065-0.136 0.108-0.295 0.12-0.462l0-0.004v-10.667c0-0.736-0.597-1.333-1.333-1.333v0zM32 16.973l-2.44 5.507c-0.242-0.133-0.443-0.313-0.596-0.528l-0.004-0.005c-0.188-0.263-0.301-0.592-0.301-0.946 0-0.216 0.042-0.422 0.118-0.611l-0.004 0.011 0.507-1.333c0.095-0.239 0.15-0.516 0.15-0.806 0-0.488-0.156-0.94-0.421-1.308l0.005 0.007c-0.416-0.584-1.090-0.96-1.852-0.96-0.010 0-0.019 0-0.029 0h-4.385c-0.001 0-0.001 0-0.002 0-0.186 0-0.352-0.082-0.464-0.213l-0.001-0.001c-0.080-0.109-0.128-0.245-0.128-0.392 0-0.036 0.003-0.071 0.008-0.105l-0.001 0.004 1.227-6.667c-0.001-0.012-0.001-0.026-0.001-0.041 0-0.324 0.263-0.587 0.587-0.587 0.010 0 0.020 0 0.029 0.001l-0.001-0h8zM17.253 21.4h-3.853l0.333-0.88c0.171-0.448 0.269-0.966 0.269-1.507 0-2.397-1.94-4.341-4.336-4.347h-0.001c-0.003-0-0.007-0-0.011-0-0.538 0-1.002 0.319-1.213 0.778l-0.003 0.008-2.987 6.747c-0.073 0.156-0.117 0.339-0.12 0.532v10.668c0 0.736 0.597 1.333 1.333 1.333v0h9.333c0.004 0 0.009 0 0.013 0 1.589 0 2.913-1.14 3.197-2.646l0.003-0.020 1.227-6.667c0.033-0.174 0.052-0.374 0.052-0.579 0-0.797-0.287-1.527-0.763-2.093l0.004 0.005c-0.573-0.771-1.462-1.279-2.472-1.333l-0.008-0zM16.613 31.507c-0.046 0.282-0.288 0.494-0.579 0.494-0.012 0-0.024-0-0.036-0.001l0.002 0h-8v-8.973l2.44-5.507c0.242 0.133 0.443 0.313 0.596 0.528l0.004 0.005c0.188 0.263 0.301 0.592 0.301 0.946 0 0.216-0.042 0.422-0.118 0.611l0.004-0.011-0.507 1.333c-0.095 0.239-0.15 0.516-0.15 0.806 0 0.488 0.156 0.94 0.421 1.308l-0.005-0.007c0.414 0.599 1.097 0.987 1.871 0.987 0.003 0 0.007 0 0.010-0h4.386c0.001 0 0.001 0 0.002 0 0.186 0 0.352 0.082 0.464 0.213l0.001 0.001c0.080 0.109 0.128 0.245 0.128 0.392 0 0.036-0.003 0.071-0.008 0.105l0.001-0.004z"></path>
</svg>
