<!-- Generated by IcoMoon.io -->
<svg version="1.1" xmlns="http://www.w3.org/2000/svg" width="40" height="40" viewBox="0 0 40 40">
<title>file-export</title>
<path fill="#fff" d="M31.893 24.827c-0.072-0.169-0.166-0.315-0.281-0.441l0.001 0.001-4-4c-0.242-0.242-0.577-0.392-0.947-0.392-0.739 0-1.339 0.599-1.339 1.339 0 0.37 0.15 0.704 0.392 0.947v0l1.733 1.72h-7.453c-0.736 0-1.333 0.597-1.333 1.333s0.597 1.333 1.333 1.333v0h7.453l-1.733 1.72c-0.244 0.242-0.394 0.577-0.394 0.947s0.151 0.705 0.394 0.947l0 0c0.242 0.244 0.577 0.394 0.947 0.394s0.705-0.151 0.947-0.394l4-4c0.12-0.122 0.215-0.268 0.277-0.431l0.003-0.009c0.063-0.15 0.1-0.324 0.1-0.507s-0.037-0.357-0.103-0.515l0.003 0.009zM22.667 30.667h-10.667c-0.736 0-1.333-0.597-1.333-1.333v0-18.667c0-0.736 0.597-1.333 1.333-1.333v0h6.667v4c0 2.209 1.791 4 4 4v0h5.333c0.551-0.003 1.023-0.339 1.223-0.818l0.003-0.009c0.066-0.153 0.104-0.33 0.104-0.517 0-0.365-0.147-0.696-0.384-0.937l0 0-8-8c-0.107-0.101-0.23-0.185-0.365-0.25l-0.009-0.004h-0.12l-0.373-0.133h-8.080c-2.209 0-4 1.791-4 4v0 18.667c0 2.209 1.791 4 4 4v0h10.667c0.736 0 1.333-0.597 1.333-1.333s-0.597-1.333-1.333-1.333v0zM21.333 11.213l3.453 3.453h-2.12c-0.736 0-1.333-0.597-1.333-1.333v0z"></path>
</svg>
