<!-- Generated by IcoMoon.io -->
<svg version="1.1" xmlns="http://www.w3.org/2000/svg" width="40" height="40" viewBox="0 0 40 40">
<title>file-question</title>
<path fill="#fff" d="M20.76 27.053c-0.241-0.24-0.573-0.388-0.94-0.388s-0.699 0.148-0.94 0.388l0-0c-0.121 0.123-0.22 0.269-0.29 0.431l-0.004 0.009c-0.059 0.15-0.093 0.325-0.093 0.507s0.034 0.356 0.096 0.516l-0.003-0.010c0.077 0.169 0.175 0.315 0.294 0.441l-0.001-0.001c0.119 0.117 0.261 0.211 0.418 0.277l0.009 0.003c0.153 0.067 0.332 0.106 0.52 0.107h0c0.734-0.004 1.327-0.599 1.327-1.333 0-0.183-0.037-0.357-0.103-0.515l0.003 0.009c-0.068-0.173-0.167-0.319-0.293-0.44l-0-0zM30.667 15.92c-0.016-0.134-0.044-0.256-0.084-0.372l0.004 0.012v-0.12c-0.068-0.143-0.153-0.267-0.254-0.374l0.001 0.001-8-8c-0.107-0.101-0.23-0.185-0.365-0.25l-0.009-0.004h-0.12c-0.127-0.074-0.276-0.126-0.434-0.146l-0.006-0.001h-8.067c-2.209 0-4 1.791-4 4v0 18.667c0 2.209 1.791 4 4 4v0h13.333c2.209 0 4-1.791 4-4v0-13.333s0 0 0-0.080zM22.667 11.213l3.453 3.453h-2.12c-0.736 0-1.333-0.597-1.333-1.333v0zM28 29.333c0 0.736-0.597 1.333-1.333 1.333v0h-13.333c-0.736 0-1.333-0.597-1.333-1.333v0-18.667c0-0.736 0.597-1.333 1.333-1.333v0h6.667v4c0 2.209 1.791 4 4 4v0h4zM19.827 17.333c-0.001 0-0.002 0-0.003 0-1.473 0-2.76 0.796-3.454 1.981l-0.010 0.019c-0.131 0.203-0.208 0.45-0.208 0.715 0 0.736 0.597 1.333 1.333 1.333 0.51 0 0.954-0.287 1.178-0.708l0.004-0.007c0.235-0.401 0.664-0.667 1.155-0.667 0.002 0 0.004 0 0.006 0h-0c0.736 0 1.333 0.597 1.333 1.333s-0.597 1.333-1.333 1.333v0c-0.736 0-1.333 0.597-1.333 1.333s0.597 1.333 1.333 1.333v0c2.209 0 4-1.791 4-4s-1.791-4-4-4v0z"></path>
</svg>
