<!-- Generated by IcoMoon.io -->
<svg version="1.1" xmlns="http://www.w3.org/2000/svg" width="40" height="40" viewBox="0 0 40 40">
<title>film</title>
<path fill="#fff" d="M32 6.667c-0.736 0-1.333 0.597-1.333 1.333v0 2.667h-2.667v-2.667c0-0.736-0.597-1.333-1.333-1.333s-1.333 0.597-1.333 1.333v0 1.333h-10.667v-1.333c0-0.736-0.597-1.333-1.333-1.333s-1.333 0.597-1.333 1.333v0 2.667h-2.667v-2.667c0-0.736-0.597-1.333-1.333-1.333s-1.333 0.597-1.333 1.333v0 24c0 0.736 0.597 1.333 1.333 1.333s1.333-0.597 1.333-1.333v0-2.667h2.667v2.667c0 0.736 0.597 1.333 1.333 1.333s1.333-0.597 1.333-1.333v0-1.333h10.667v1.333c0 0.736 0.597 1.333 1.333 1.333s1.333-0.597 1.333-1.333v0-2.667h2.667v2.667c0 0.736 0.597 1.333 1.333 1.333s1.333-0.597 1.333-1.333v0-24c0-0.736-0.597-1.333-1.333-1.333v0zM12 26.667h-2.667v-2.667h2.667zM12 21.333h-2.667v-2.667h2.667zM12 16h-2.667v-2.667h2.667zM25.333 28h-10.667v-6.667h10.667zM25.333 18.667h-10.667v-6.667h10.667zM30.667 26.667h-2.667v-2.667h2.667zM30.667 21.333h-2.667v-2.667h2.667zM30.667 16h-2.667v-2.667h2.667z"></path>
</svg>
