<!-- Generated by IcoMoon.io -->
<svg version="1.1" xmlns="http://www.w3.org/2000/svg" width="40" height="40" viewBox="0 0 40 40">
<title>flip-h</title>
<path fill="#fff" d="M32 18.667h-24c-0.736 0-1.333 0.597-1.333 1.333s0.597 1.333 1.333 1.333v0h24c0.736 0 1.333-0.597 1.333-1.333s-0.597-1.333-1.333-1.333v0zM18.573 16h2c0.736 0 1.333-0.597 1.333-1.333s-0.597-1.333-1.333-1.333v0h-2c-0.736 0-1.333 0.597-1.333 1.333s0.597 1.333 1.333 1.333v0zM24.573 14.667c0 0.736 0.597 1.333 1.333 1.333v0h0.76c0.551-0.003 1.023-0.339 1.223-0.818l0.003-0.009c0.066-0.153 0.104-0.33 0.104-0.517 0-0.365-0.147-0.696-0.384-0.937l0 0-0.88-0.867c-0.241-0.24-0.573-0.388-0.94-0.388s-0.699 0.148-0.94 0.388l0-0c-0.242 0.241-0.391 0.575-0.391 0.943 0 0.215 0.051 0.418 0.141 0.598l-0.004-0.008c-0.015 0.083-0.024 0.179-0.027 0.278l-0 0.002zM19.533 10.36l0.467-0.48 1.080 1.080c0.241 0.24 0.573 0.388 0.94 0.388s0.699-0.148 0.94-0.388l-0 0c0.24-0.241 0.388-0.573 0.388-0.94s-0.148-0.699-0.388-0.94l-1.413-1.413c-0.098-0.102-0.212-0.187-0.34-0.25l-0.007-0.003c-0.221-0.45-0.675-0.754-1.201-0.754-0.37 0-0.704 0.151-0.946 0.394l-1.413 1.413c-0.242 0.242-0.392 0.577-0.392 0.947 0 0.739 0.599 1.339 1.339 1.339 0.37 0 0.704-0.15 0.947-0.392v0zM26.667 24h-13.333c-0.551 0.003-1.023 0.339-1.223 0.818l-0.003 0.009c-0.066 0.153-0.104 0.33-0.104 0.517 0 0.365 0.147 0.696 0.384 0.937l-0-0 6.667 6.667c0.242 0.244 0.577 0.394 0.947 0.394s0.705-0.151 0.947-0.394l6.667-6.667c0.238-0.241 0.384-0.571 0.384-0.936 0-0.187-0.038-0.364-0.108-0.526l0.003 0.009c-0.204-0.487-0.676-0.824-1.226-0.827h-0zM20 30.12l-3.453-3.453h6.907zM13.4 16c0.002 0 0.005 0 0.008 0 0.366 0 0.698-0.148 0.939-0.387l-0 0 1.413-1.48c0.242-0.242 0.392-0.577 0.392-0.947 0-0.739-0.599-1.339-1.339-1.339-0.37 0-0.704 0.15-0.947 0.392l-1.413 1.413c-0.244 0.242-0.394 0.577-0.394 0.947s0.151 0.705 0.394 0.947l0 0c0.234 0.266 0.569 0.437 0.944 0.453l0.003 0z"></path>
</svg>
