<!-- Generated by IcoMoon.io -->
<svg version="1.1" xmlns="http://www.w3.org/2000/svg" width="40" height="40" viewBox="0 0 40 40">
<title>flip-v</title>
<path fill="#fff" d="M14.133 24.24c-0.242-0.242-0.577-0.392-0.947-0.392-0.739 0-1.339 0.599-1.339 1.339 0 0.37 0.15 0.704 0.392 0.947l1.413 1.413c0.242 0.244 0.577 0.394 0.947 0.394s0.705-0.151 0.947-0.394l0-0c0.244-0.242 0.394-0.577 0.394-0.947s-0.151-0.705-0.394-0.947l-0-0zM9.080 17.040l-1.413 1.413c-0.102 0.098-0.187 0.212-0.25 0.34l-0.003 0.007c-0.45 0.221-0.754 0.675-0.754 1.201 0 0.37 0.151 0.704 0.394 0.946l1.413 1.413c0.242 0.244 0.577 0.394 0.947 0.394s0.705-0.151 0.947-0.394l0-0c0.244-0.242 0.394-0.577 0.394-0.947s-0.151-0.705-0.394-0.947l-0-0-0.48-0.467 1.080-1.080c0.199-0.232 0.321-0.535 0.321-0.867 0-0.736-0.597-1.333-1.333-1.333-0.332 0-0.636 0.121-0.869 0.322l0.002-0.001zM14.667 18.093c-0.736 0-1.333 0.597-1.333 1.333v0 2c0 0.736 0.597 1.333 1.333 1.333s1.333-0.597 1.333-1.333v0-2c0-0.736-0.597-1.333-1.333-1.333v0zM32.947 19.053l-6.667-6.667c-0.241-0.238-0.571-0.384-0.936-0.384-0.187 0-0.364 0.038-0.526 0.108l0.009-0.003c-0.487 0.204-0.824 0.676-0.827 1.226v13.334c0.003 0.551 0.339 1.023 0.818 1.223l0.009 0.003c0.14 0.068 0.304 0.107 0.478 0.107 0.010 0 0.020-0 0.030-0l-0.001 0c0.002 0 0.005 0 0.008 0 0.366 0 0.698-0.148 0.939-0.387l6.667-6.667c0.244-0.242 0.394-0.577 0.394-0.947s-0.151-0.705-0.394-0.947l-0-0zM26.667 23.453v-6.907l3.453 3.453zM20 6.667c-0.736 0-1.333 0.597-1.333 1.333v0 24c0 0.736 0.597 1.333 1.333 1.333s1.333-0.597 1.333-1.333v0-24c0-0.736-0.597-1.333-1.333-1.333v0zM15.173 12.107c-0.153-0.066-0.33-0.104-0.517-0.104-0.365 0-0.696 0.147-0.937 0.384l0-0-0.867 0.947c-0.24 0.241-0.388 0.573-0.388 0.94s0.148 0.699 0.388 0.94l-0-0c0.238 0.243 0.567 0.395 0.932 0.4h0.001c0.219-0.001 0.426-0.055 0.607-0.15l-0.007 0.004c0.085 0.019 0.182 0.030 0.282 0.030 0.736 0 1.333-0.597 1.333-1.333 0-0.025-0.001-0.049-0.002-0.074l0 0.003v-0.76c-0.003-0.551-0.339-1.023-0.818-1.223l-0.009-0.003z"></path>
</svg>
