<!-- Generated by IcoMoon.io -->
<svg version="1.1" xmlns="http://www.w3.org/2000/svg" width="40" height="40" viewBox="0 0 40 40">
<title>football</title>
<path fill="#fff" d="M30.76 12.147c-1.446-1.981-3.388-3.52-5.646-4.448l-0.087-0.032c-1.487-0.622-3.215-0.984-5.027-0.984-7.358 0-13.324 5.96-13.333 13.316v0.001c0 0.253 0 0.507 0 0.747 0.126 2.197 0.769 4.22 1.807 5.982l-0.034-0.062c1.718 2.977 4.472 5.193 7.759 6.176l0.094 0.024c1.056 0.297 2.268 0.468 3.521 0.468 0.065 0 0.131-0 0.196-0.001l-0.010 0c0.017 0 0.038 0 0.058 0 0.866 0 1.712-0.087 2.529-0.254l-0.081 0.014c5.569-1.106 9.841-5.563 10.658-11.141l0.009-0.072c0.095-0.561 0.153-1.211 0.16-1.873l0-0.007c0-0.016 0-0.035 0-0.054 0-2.937-0.966-5.649-2.598-7.834l0.025 0.034zM28.093 13.173l-1.427 3.813-2.16 0.587-3.173-2.253v-2.467l3.32-2.413c1.383 0.676 2.546 1.597 3.48 2.717l0.014 0.017zM22.667 19.56l-1.040 3.107h-3.267l-1.027-3.107 2.667-1.907zM20 9.333c0.527 0.006 1.040 0.049 1.54 0.128l-0.060-0.008-1.48 1.067-1.48-1.067c0.44-0.071 0.953-0.114 1.474-0.12l0.006-0zM10.507 15.16l0.533 1.76-1.507 1.053c0.208-1.059 0.546-2.001 1.001-2.871l-0.028 0.058zM12.333 27.387l1.84 0.067 0.493 1.773c-0.889-0.53-1.655-1.139-2.33-1.837l-0.003-0.003zM14.667 24.8l-4.2-0.147c-0.501-0.963-0.867-2.082-1.034-3.265l-0.006-0.055 3.32-2.32 1.92 0.827 1.187 3.68zM15.813 17.427l-2.080-0.933-1.213-4c0.8-0.816 1.728-1.502 2.754-2.026l0.060-0.028 3.333 2.413v2.467zM21.333 30.573c-0.381 0.048-0.822 0.075-1.269 0.075-0.793 0-1.565-0.086-2.309-0.248l0.071 0.013-1.107-3.893 1.107-1.187h4.093l0.893 1.333zM24.547 29.64l0.613-1.64 1.813 0.093c-0.712 0.603-1.524 1.12-2.401 1.52l-0.065 0.027zM29.16 25.48l-4.147-0.147-0.947-1.467 1.187-3.68 2.013-0.547 3.147 2.667c-0.277 1.201-0.723 2.261-1.319 3.218l0.026-0.044zM29.227 17.707l0.64-1.707c0.354 0.83 0.604 1.793 0.703 2.799l0.003 0.041z"></path>
</svg>
