<!-- Generated by IcoMoon.io -->
<svg version="1.1" xmlns="http://www.w3.org/2000/svg" width="40" height="40" viewBox="0 0 40 40">
<title>forward</title>
<path fill="#fff" d="M31.56 16.92l-8.893-5.133c-0.509-0.297-1.121-0.473-1.773-0.473-1.964 0-3.556 1.59-3.56 3.553v0l-5.333-3.080c-0.509-0.297-1.121-0.473-1.773-0.473-1.964 0-3.556 1.59-3.56 3.553v10.267c-0 0.005-0 0.012-0 0.018 0 1.299 0.707 2.433 1.756 3.039l0.017 0.009c0.51 0.31 1.127 0.493 1.786 0.493 0 0 0 0 0.001 0h-0c0.653-0.004 1.265-0.181 1.79-0.489l-0.017 0.009 5.333-3.080c-0 0.005-0 0.011-0 0.016 0 1.304 0.706 2.442 1.757 3.055l0.017 0.009c0.51 0.301 1.124 0.479 1.78 0.479s1.27-0.178 1.797-0.488l-0.017 0.009 8.893-5.133c1.069-0.628 1.775-1.771 1.775-3.080s-0.706-2.452-1.758-3.071l-0.017-0.009zM17.333 22.053l-6.667 3.84c-0.127 0.073-0.278 0.116-0.44 0.116-0.487 0-0.883-0.39-0.893-0.875v-10.268c0.010-0.486 0.406-0.876 0.893-0.876 0.162 0 0.314 0.043 0.444 0.118l-0.004-0.002 6.667 3.84zM30.227 20.72l-8.893 5.187c-0.129 0.073-0.283 0.116-0.447 0.116s-0.318-0.043-0.451-0.118l0.005 0.002c-0.265-0.155-0.44-0.438-0.44-0.762 0-0.004 0-0.008 0-0.012v0.001-10.267c-0-0.003-0-0.007-0-0.011 0-0.324 0.175-0.607 0.436-0.76l0.004-0.002c0.131-0.071 0.287-0.115 0.452-0.12l0.002-0c0.002-0 0.005-0 0.007-0 0.16 0 0.309 0.045 0.436 0.122l-0.004-0.002 8.893 5.133c0.269 0.157 0.446 0.445 0.446 0.773s-0.178 0.616-0.442 0.771l-0.004 0.002z"></path>
</svg>
