<!-- Generated by IcoMoon.io -->
<svg version="1.1" xmlns="http://www.w3.org/2000/svg" width="40" height="40" viewBox="0 0 40 40">
<title>glass-tea</title>
<path fill="#fff" d="M29.333 8c-0.734-0.818-1.793-1.331-2.973-1.333h-12.72c-0.007-0-0.016-0-0.024-0-2.209 0-4 1.791-4 4 0 0.155 0.009 0.308 0.026 0.458l-0.002-0.018 2.080 18.667c0.229 2.012 1.922 3.56 3.976 3.56 0.009 0 0.017-0 0.026-0h8.559c0.007 0 0.016 0 0.024 0 2.054 0 3.747-1.548 3.974-3.542l0.002-0.018 2.080-18.667c0.013-0.122 0.021-0.264 0.021-0.408 0-1.041-0.398-1.99-1.050-2.702l0.003 0.003zM25.6 29.48c-0.076 0.671-0.641 1.187-1.325 1.187-0.003 0-0.006 0-0.009-0h-8.546c-0.002 0-0.005 0-0.008 0-0.685 0-1.249-0.516-1.325-1.181l-0.001-0.006-1.347-12.147h13.92zM27.253 14.667h-14.507l-0.427-3.853c-0.005-0.045-0.008-0.096-0.008-0.149 0-0.343 0.13-0.656 0.343-0.892l-0.001 0.001c0.244-0.27 0.596-0.439 0.986-0.44h12.72c0.391 0.001 0.742 0.17 0.986 0.439l0.001 0.001c0.212 0.235 0.342 0.548 0.342 0.891 0 0.052-0.003 0.104-0.009 0.155l0.001-0.006zM22.667 28c0.736 0 1.333-0.597 1.333-1.333v0-5.333c0-0.736-0.597-1.333-1.333-1.333s-1.333 0.597-1.333 1.333v0 5.333c0 0.736 0.597 1.333 1.333 1.333v0zM17.333 28c0.736 0 1.333-0.597 1.333-1.333v0-5.333c0-0.736-0.597-1.333-1.333-1.333s-1.333 0.597-1.333 1.333v0 5.333c0 0.736 0.597 1.333 1.333 1.333v0z"></path>
</svg>
