<!-- Generated by IcoMoon.io -->
<svg version="1.1" xmlns="http://www.w3.org/2000/svg" width="40" height="40" viewBox="0 0 40 40">
<title>globe</title>
<path fill="#fff" d="M32.547 15.52s0 0 0-0.067c-1.925-5.149-6.802-8.748-12.52-8.748s-10.595 3.599-12.49 8.656l-0.030 0.092s0 0 0 0.067c-0.498 1.333-0.787 2.873-0.787 4.48s0.288 3.147 0.816 4.571l-0.030-0.091s0 0 0 0.067c1.925 5.149 6.802 8.748 12.52 8.748s10.595-3.599 12.49-8.656l0.030-0.092s0 0 0-0.067c0.498-1.333 0.787-2.873 0.787-4.48s-0.288-3.147-0.816-4.571l0.030 0.091zM9.68 22.667c-0.22-0.8-0.347-1.719-0.347-2.667s0.127-1.867 0.364-2.74l-0.017 0.073h2.48c-0.102 0.801-0.16 1.727-0.16 2.667s0.058 1.866 0.171 2.775l-0.011-0.109zM10.773 25.333h1.867c0.349 1.307 0.804 2.446 1.376 3.514l-0.042-0.087c-1.309-0.9-2.382-2.045-3.173-3.377l-0.027-0.049zM12.64 14.667h-1.867c0.807-1.379 1.867-2.524 3.126-3.404l0.034-0.023c-0.516 0.98-0.959 2.121-1.269 3.314l-0.025 0.113zM18.667 30.267c-1.605-1.187-2.764-2.898-3.229-4.876l-0.011-0.057h3.24zM18.667 22.667h-3.813c-0.119-0.801-0.187-1.726-0.187-2.667s0.068-1.865 0.199-2.77l-0.012 0.103h3.813zM18.667 14.667h-3.24c0.476-2.035 1.635-3.746 3.217-4.917l0.023-0.016zM29.227 14.667h-1.867c-0.349-1.307-0.804-2.446-1.376-3.514l0.042 0.087c1.309 0.9 2.382 2.045 3.173 3.377l0.027 0.049zM21.333 9.733c1.605 1.187 2.764 2.898 3.229 4.876l0.011 0.057h-3.24zM21.333 30.267v-4.933h3.24c-0.476 2.035-1.635 3.746-3.217 4.917l-0.023 0.016zM25.147 22.667h-3.813v-5.333h3.813c0.119 0.801 0.187 1.726 0.187 2.667s-0.068 1.865-0.199 2.77l0.012-0.103zM26.067 28.76c0.529-0.981 0.985-2.12 1.307-3.313l0.026-0.113h1.867c-0.818 1.382-1.891 2.527-3.164 3.403l-0.036 0.023zM30.32 22.667h-2.48c0.102-0.787 0.16-1.697 0.16-2.621 0-0.016-0-0.032-0-0.048v0.003c0-0.011 0-0.023 0-0.036 0-0.927-0.058-1.841-0.171-2.738l0.011 0.107h2.48c0.22 0.8 0.347 1.719 0.347 2.667s-0.127 1.867-0.364 2.74l0.017-0.073z"></path>
</svg>
