<!-- Generated by IcoMoon.io -->
<svg version="1.1" xmlns="http://www.w3.org/2000/svg" width="40" height="40" viewBox="0 0 40 40">
<title>gold</title>
<path fill="#fff" d="M14.667 18.667h10.667c0.414-0.003 0.782-0.194 1.025-0.491l0.002-0.002c0.203-0.233 0.327-0.539 0.327-0.875 0-0.082-0.007-0.162-0.022-0.24l0.001 0.008-1.333-6.667c-0.128-0.613-0.664-1.067-1.306-1.067-0.009 0-0.019 0-0.028 0l0.001-0h-8c-0.008-0-0.017-0-0.027-0-0.642 0-1.178 0.454-1.305 1.058l-0.002 0.009-1.333 6.667c-0.016 0.078-0.025 0.167-0.025 0.258 0 0.324 0.115 0.62 0.307 0.851l-0.002-0.002c0.246 0.302 0.619 0.493 1.036 0.493 0.006 0 0.013-0 0.019-0h-0.001zM17.093 12h5.813l0.8 4h-7.413zM33.333 22.4c-0.128-0.613-0.664-1.067-1.306-1.067-0.009 0-0.019 0-0.028 0l0.001-0h-8c-0.008-0-0.017-0-0.027-0-0.642 0-1.178 0.454-1.305 1.058l-0.002 0.009-1.333 6.667c-0.016 0.078-0.025 0.167-0.025 0.258 0 0.324 0.115 0.62 0.307 0.851l-0.002-0.002c0.246 0.302 0.619 0.493 1.036 0.493 0.006 0 0.012-0 0.019-0h10.666c0.414-0.003 0.782-0.194 1.025-0.491l0.002-0.002c0.203-0.233 0.327-0.539 0.327-0.875 0-0.082-0.007-0.162-0.022-0.24l0.001 0.008zM24.293 28l0.8-4h5.813l0.8 4zM16 21.333h-8c-0.008-0-0.017-0-0.027-0-0.642 0-1.178 0.454-1.305 1.058l-0.002 0.009-1.333 6.667c-0.016 0.078-0.025 0.167-0.025 0.258 0 0.324 0.115 0.62 0.307 0.851l-0.002-0.002c0.246 0.302 0.619 0.493 1.036 0.493 0.006 0 0.012-0 0.019-0h10.666c0.414-0.003 0.782-0.194 1.025-0.491l0.002-0.002c0.203-0.233 0.327-0.539 0.327-0.875 0-0.082-0.007-0.162-0.022-0.24l0.001 0.008-1.333-6.667c-0.128-0.613-0.664-1.067-1.306-1.067-0.009 0-0.019 0-0.028 0l0.001-0zM8.293 28l0.8-4h5.813l0.8 4z"></path>
</svg>
