<!-- Generated by IcoMoon.io -->
<svg version="1.1" xmlns="http://www.w3.org/2000/svg" width="40" height="40" viewBox="0 0 40 40">
<title>heart</title>
<path fill="#fff" d="M30.88 10.667c-1.518-1.522-3.618-2.464-5.938-2.464-1.858 0-3.575 0.604-4.965 1.627l0.023-0.016c-1.375-1.032-3.11-1.652-4.989-1.652-4.617 0-8.36 3.743-8.36 8.36 0 2.319 0.944 4.417 2.469 5.932l0 0 8.28 8.293c0.669 0.658 1.587 1.065 2.6 1.065s1.931-0.406 2.6-1.065l-0 0 8.28-8.293c1.502-1.511 2.431-3.594 2.431-5.893s-0.928-4.382-2.431-5.894l0 0zM29 20.613l-8.28 8.28c-0.184 0.185-0.438 0.3-0.72 0.3s-0.536-0.115-0.72-0.3l-0-0-8.28-8.32c-1.009-1.030-1.631-2.443-1.631-4s0.622-2.97 1.632-4.001l-0.001 0.001c1.028-1.015 2.441-1.642 4-1.642s2.972 0.627 4.001 1.642l-0.001-0.001c0.242 0.244 0.577 0.394 0.947 0.394s0.705-0.151 0.947-0.394l0-0c1.028-1.015 2.441-1.642 4-1.642s2.972 0.627 4.001 1.642l-0.001-0.001c1.041 1.036 1.685 2.47 1.685 4.054 0 1.531-0.601 2.921-1.581 3.948l0.002-0.002z"></path>
</svg>
