<!-- Generated by IcoMoon.io -->
<svg version="1.1" xmlns="http://www.w3.org/2000/svg" width="40" height="40" viewBox="0 0 40 40">
<title>hindi-to-chinese</title>
<path fill="#fff" d="M18.696 6.667h-2.667c-0.736 0-1.333 0.597-1.333 1.333s0.597 1.333 1.333 1.333v0 2.667h-1.579c0.151-0.396 0.241-0.853 0.246-1.331l0-0.002c0-0 0-0 0-0 0-2.209-1.791-4-4-4-1.473 0-2.76 0.796-3.454 1.981l-0.010 0.019c-0.112 0.191-0.179 0.422-0.179 0.667 0 0.736 0.597 1.334 1.334 1.334 0.491 0 0.921-0.266 1.152-0.661l0.003-0.006c0.235-0.401 0.664-0.666 1.154-0.667h0c0.736 0 1.333 0.597 1.333 1.333s-0.597 1.333-1.333 1.333v0c-0.736 0-1.333 0.597-1.333 1.333s0.597 1.333 1.333 1.333v0c0.736 0 1.333 0.597 1.333 1.333s-0.597 1.333-1.333 1.333v0c-0.491-0.001-0.919-0.266-1.151-0.66l-0.003-0.006c-0.235-0.402-0.664-0.667-1.155-0.667-0.736 0-1.334 0.597-1.334 1.334 0 0.246 0.066 0.476 0.182 0.674l-0.003-0.006c0.704 1.204 1.991 2 3.464 2 2.209 0 4-1.791 4-4 0-0 0-0 0-0v0c-0.005-0.48-0.095-0.938-0.255-1.361l0.009 0.027h1.579v4c0 0.736 0.597 1.333 1.333 1.333s1.333-0.597 1.333-1.333v0-9.333c0.736 0 1.333-0.597 1.333-1.333s-0.597-1.333-1.333-1.333v0zM22.696 13.333h1.333c0.736 0.001 1.332 0.597 1.333 1.333v1.333c0 0.736 0.597 1.333 1.333 1.333s1.333-0.597 1.333-1.333v0-1.333c-0.002-2.208-1.792-3.998-4-4h-1.334c-0.736 0-1.333 0.597-1.333 1.333s0.597 1.333 1.333 1.333v0zM17.363 25.333h-1.333c-0.736-0.001-1.332-0.597-1.333-1.333v-1.333c0-0.736-0.597-1.333-1.333-1.333s-1.333 0.597-1.333 1.333v0 1.333c0.003 2.208 1.792 3.998 4 4h1.334c0.736 0 1.333-0.597 1.333-1.333s-0.597-1.333-1.333-1.333v0zM32.029 24c0.736 0 1.333-0.597 1.333-1.333s-0.597-1.333-1.333-1.333v0h-4v-0.667c0-0.736-0.597-1.333-1.333-1.333s-1.333 0.597-1.333 1.333v0 0.667h-4c-0.736 0-1.333 0.597-1.333 1.333s0.597 1.333 1.333 1.333v0h6.912c-0.324 1.292-0.889 2.42-1.649 3.388l0.015-0.019c-0.297-0.381-0.575-0.81-0.816-1.262l-0.023-0.048c-0.226-0.434-0.672-0.725-1.186-0.725-0.736 0-1.333 0.597-1.333 1.333 0 0.222 0.054 0.431 0.15 0.615l-0.004-0.007c0.389 0.745 0.814 1.386 1.296 1.979l-0.017-0.021c-0.917 0.672-2 1.18-3.174 1.454l-0.060 0.012c-0.603 0.136-1.046 0.668-1.046 1.302 0 0.736 0.597 1.333 1.333 1.333 0.1 0 0.197-0.011 0.291-0.032l-0.009 0.002c1.761-0.398 3.305-1.15 4.618-2.181l-0.025 0.019c1.299 1.013 2.853 1.765 4.547 2.147l0.078 0.015c0.086 0.020 0.185 0.031 0.287 0.031 0.736 0 1.333-0.597 1.333-1.333 0-0.635-0.443-1.166-1.037-1.3l-0.009-0.002c-1.242-0.282-2.335-0.786-3.288-1.472l0.027 0.018c1.188-1.453 2.038-3.227 2.405-5.172l0.011-0.072z"></path>
</svg>
