<!-- Generated by IcoMoon.io -->
<svg version="1.1" xmlns="http://www.w3.org/2000/svg" width="40" height="40" viewBox="0 0 40 40">
<title>horizontal-align-right</title>
<path fill="#fff" d="M32 6.667c-0.736 0-1.333 0.597-1.333 1.333v0 4h-14.667c-0.736 0-1.333 0.597-1.333 1.333v0 4h-6.667c-0.736 0-1.333 0.597-1.333 1.333v0 8c0 0.736 0.597 1.333 1.333 1.333v0h22.667v4c0 0.736 0.597 1.333 1.333 1.333s1.333-0.597 1.333-1.333v0-24c0-0.736-0.597-1.333-1.333-1.333v0zM30.667 25.333h-21.333v-5.333h21.333zM30.667 17.333h-13.333v-2.667h13.333z"></path>
</svg>
