<!-- Generated by IcoMoon.io -->
<svg version="1.1" xmlns="http://www.w3.org/2000/svg" width="40" height="40" viewBox="0 0 40 40">
<title>horizontal-distribution-left</title>
<path fill="#fff" d="M18.667 9.333h-6.667v-1.333c0-0.736-0.597-1.333-1.333-1.333s-1.333 0.597-1.333 1.333v0 24c0 0.736 0.597 1.333 1.333 1.333s1.333-0.597 1.333-1.333v0-1.333h6.667c0.736 0 1.333-0.597 1.333-1.333v0-18.667c0-0.736-0.597-1.333-1.333-1.333v0zM17.333 28h-5.333v-16h5.333zM29.333 10.667h-4v-2.667c0-0.736-0.597-1.333-1.333-1.333s-1.333 0.597-1.333 1.333v0 24c0 0.736 0.597 1.333 1.333 1.333s1.333-0.597 1.333-1.333v0-2.667h4c0.736 0 1.333-0.597 1.333-1.333v0-16c0-0.736-0.597-1.333-1.333-1.333v0zM28 26.667h-2.667v-13.333h2.667z"></path>
</svg>
