<!-- Generated by IcoMoon.io -->
<svg version="1.1" xmlns="http://www.w3.org/2000/svg" width="40" height="40" viewBox="0 0 40 40">
<title>horizontal-distribution-right</title>
<path fill="#fff" d="M29.333 6.667c-0.736 0-1.333 0.597-1.333 1.333v0 1.333h-6.667c-0.736 0-1.333 0.597-1.333 1.333v0 18.667c0 0.736 0.597 1.333 1.333 1.333v0h6.667v1.333c0 0.736 0.597 1.333 1.333 1.333s1.333-0.597 1.333-1.333v0-24c0-0.736-0.597-1.333-1.333-1.333v0zM28 28h-5.333v-16h5.333zM16 6.667c-0.736 0-1.333 0.597-1.333 1.333v0 2.667h-4c-0.736 0-1.333 0.597-1.333 1.333v0 16c0 0.736 0.597 1.333 1.333 1.333v0h4v2.667c0 0.736 0.597 1.333 1.333 1.333s1.333-0.597 1.333-1.333v0-24c0-0.736-0.597-1.333-1.333-1.333v0zM14.667 26.667h-2.667v-13.333h2.667z"></path>
</svg>
