<!-- Generated by IcoMoon.io -->
<svg version="1.1" xmlns="http://www.w3.org/2000/svg" width="40" height="40" viewBox="0 0 40 40">
<title>hospital-square-sign</title>
<path fill="#fff" d="M24 12c-0 0-0 0-0 0-0.736 0-1.333 0.597-1.333 1.333 0 0 0 0 0 0v-0 5.333h-5.333v-5.333c0-0.736-0.597-1.333-1.333-1.333s-1.333 0.597-1.333 1.333v0 13.333c0 0.736 0.597 1.333 1.333 1.333s1.333-0.597 1.333-1.333v0-5.333h5.333v5.333c0 0.736 0.597 1.333 1.333 1.333s1.333-0.597 1.333-1.333v0-13.333c0-0 0-0 0-0 0-0.736-0.597-1.333-1.333-1.333-0 0-0 0-0 0h0zM29.333 6.667h-18.667c-2.208 0.003-3.998 1.792-4 4v18.667c0.002 2.208 1.792 3.998 4 4h18.667c2.208-0.002 3.997-1.792 4-4v-18.667c-0.002-2.208-1.792-3.998-4-4h-0zM30.667 29.333c-0.001 0.736-0.597 1.333-1.333 1.333h-18.667c-0.736-0.001-1.333-0.597-1.333-1.333v-18.667c0.001-0.736 0.597-1.333 1.333-1.333h18.667c0.736 0.001 1.333 0.597 1.333 1.333v0z"></path>
</svg>
