<!-- Generated by IcoMoon.io -->
<svg version="1.1" xmlns="http://www.w3.org/2000/svg" width="40" height="40" viewBox="0 0 40 40">
<title>image-question</title>
<path fill="#fff" d="M29.333 21.333c-0.736 0-1.333 0.597-1.333 1.333v0 0.52l-1.973-1.973c-0.669-0.673-1.596-1.090-2.62-1.090s-1.951 0.417-2.62 1.090l-0.934 0.934-3.307-3.32c-0.682-0.646-1.604-1.043-2.62-1.043s-1.938 0.397-2.622 1.044l0.002-0.002-1.973 1.973v-7.467c0-0.736 0.597-1.333 1.333-1.333v0h10.667c0.736 0 1.333-0.597 1.333-1.333s-0.597-1.333-1.333-1.333v0h-10.667c-2.209 0-4 1.791-4 4v0 16c0 2.209 1.791 4 4 4v0h16c2.209 0 4-1.791 4-4v0-6.667c0-0.736-0.597-1.333-1.333-1.333v0zM10.667 30.667c-0.736 0-1.333-0.597-1.333-1.333v0-4.76l3.867-3.867c0.189-0.18 0.445-0.291 0.727-0.291s0.538 0.111 0.727 0.291l4.226 4.226 5.72 5.733zM28 29.333c-0.012 0.266-0.1 0.509-0.243 0.711l0.003-0.004-6.013-6.040 0.933-0.933c0.188-0.187 0.447-0.303 0.733-0.303s0.545 0.116 0.733 0.303l-0-0 3.853 3.893zM29.333 6.667c-0.001 0-0.002 0-0.003 0-1.473 0-2.76 0.796-3.454 1.981l-0.010 0.019c-0.113 0.192-0.18 0.422-0.18 0.668 0 0.493 0.268 0.924 0.667 1.155l0.006 0.003c0.189 0.109 0.416 0.174 0.658 0.174 0.491 0 0.92-0.266 1.152-0.661l0.003-0.006c0.234-0.407 0.665-0.676 1.16-0.676 0.736 0 1.333 0.597 1.333 1.333 0 0.003 0 0.007-0 0.010v-0.001c0 0.736-0.597 1.333-1.333 1.333v0c-0.736 0-1.333 0.597-1.333 1.333s0.597 1.333 1.333 1.333v0c2.209 0 4-1.791 4-4s-1.791-4-4-4v0zM29.84 16.107c-0.164-0.078-0.357-0.124-0.561-0.124-0.075 0-0.149 0.006-0.22 0.018l0.008-0.001-0.24 0.080-0.24 0.12-0.2 0.173c-0.239 0.241-0.387 0.573-0.387 0.939 0 0.007 0 0.015 0 0.022v-0.001c0 0.002-0 0.005-0 0.008 0 0.366 0.148 0.698 0.387 0.939l-0-0c0.242 0.244 0.577 0.394 0.947 0.394s0.705-0.151 0.947-0.394l0-0c0.239-0.241 0.387-0.573 0.387-0.939 0-0.003 0-0.005-0-0.008v0c-0.003-0.551-0.339-1.023-0.818-1.223l-0.009-0.003z"></path>
</svg>
