<!-- Generated by IcoMoon.io -->
<svg version="1.1" xmlns="http://www.w3.org/2000/svg" width="40" height="40" viewBox="0 0 40 40">
<title>image-resize-square</title>
<path fill="#fff" d="M8 14.8c0.736 0 1.333-0.597 1.333-1.333v0-0.253c0-0.736-0.597-1.333-1.333-1.333s-1.333 0.597-1.333 1.333v0 0.253c0 0.736 0.597 1.333 1.333 1.333v0zM8 9.467c0.204-0.003 0.396-0.052 0.568-0.137l-0.008 0.003c0.648-0.107 1.137-0.663 1.137-1.333 0-0.746-0.605-1.35-1.35-1.35-0.075 0-0.149 0.006-0.221 0.018l0.008-0.001h-0.133c-0.749 0.064-1.333 0.688-1.333 1.448 0 0.006 0 0.013 0 0.019v-0.001c0.036 0.707 0.619 1.267 1.332 1.267 0.001 0 0.001 0 0.002 0h-0zM31.187 9.213c0.224 0.178 0.511 0.285 0.824 0.285 0.736 0 1.333-0.597 1.333-1.333 0-0.058-0.004-0.115-0.011-0.171l0.001 0.007c0-0.736-0.597-1.333-1.333-1.333v0h-0.133c-0.736 0-1.333 0.597-1.333 1.333 0 0.485 0.259 0.91 0.647 1.143l0.006 0.003zM19.853 9.333h0.293c0.736 0 1.333-0.597 1.333-1.333s-0.597-1.333-1.333-1.333v0h-0.293c-0.736 0-1.333 0.597-1.333 1.333s0.597 1.333 1.333 1.333v0zM13.853 9.333h0.28c0.736 0 1.333-0.597 1.333-1.333s-0.597-1.333-1.333-1.333v0h-0.28c-0.736 0-1.333 0.597-1.333 1.333s0.597 1.333 1.333 1.333v0zM32 30.667c-0.204 0.003-0.396 0.052-0.568 0.137l0.008-0.003c-0.457 0.218-0.767 0.676-0.767 1.207 0 0.687 0.52 1.253 1.188 1.326l0.006 0.001h0.133c0.749-0.064 1.333-0.688 1.333-1.448 0-0.006-0-0.013-0-0.019v0.001c-0.070-0.677-0.637-1.2-1.327-1.2-0.002 0-0.005 0-0.007 0h0zM22.667 18.667c0-0.736-0.597-1.333-1.333-1.333v0h-12.973c-0.054-0.007-0.117-0.011-0.18-0.011s-0.126 0.004-0.187 0.012l0.007-0.001c-0.736 0-1.333 0.597-1.333 1.333v0 13.333c0 0.736 0.597 1.333 1.333 1.333v0h13.467c0.732-0.006 1.323-0.6 1.323-1.333 0-0.203-0.045-0.396-0.127-0.568l0.003 0.008zM20 30.667h-8.64l5.213-5.2c0.080-0.081 0.191-0.131 0.313-0.131s0.234 0.050 0.313 0.131l0 0 2.8 2.787zM20 24.493l-0.907-0.92c-0.566-0.562-1.346-0.909-2.207-0.909s-1.641 0.347-2.207 0.909l-5.333 5.333v-8.907h10.667zM32 24.493c-0.736 0-1.333 0.597-1.333 1.333v0 0.28c0 0.736 0.597 1.333 1.333 1.333s1.333-0.597 1.333-1.333v0-0.24c0-0.736-0.597-1.333-1.333-1.333v0zM32 12.493c-0.736 0-1.333 0.597-1.333 1.333v0 0.307c0 0.736 0.597 1.333 1.333 1.333s1.333-0.597 1.333-1.333v0-0.28c0-0.736-0.597-1.333-1.333-1.333v0zM32 18.493c-0.736 0-1.333 0.597-1.333 1.333v0 0.293c0 0.736 0.597 1.333 1.333 1.333s1.333-0.597 1.333-1.333v0-0.293c-0.015-0.725-0.606-1.307-1.333-1.307-0 0-0 0-0 0v0zM26.8 30.667h-0.267c-0.736 0-1.333 0.597-1.333 1.333s0.597 1.333 1.333 1.333v0h0.267c0.736 0 1.333-0.597 1.333-1.333s-0.597-1.333-1.333-1.333v0zM26.147 9.333c0.736 0 1.333-0.597 1.333-1.333s-0.597-1.333-1.333-1.333v0h-0.28c-0.736 0-1.333 0.597-1.333 1.333s0.597 1.333 1.333 1.333v0z"></path>
</svg>
