<!-- Generated by IcoMoon.io -->
<svg version="1.1" xmlns="http://www.w3.org/2000/svg" width="40" height="40" viewBox="0 0 40 40">
<title>image-block</title>
<path fill="#fff" d="M31.387 7.28c-1.207-1.21-2.876-1.959-4.72-1.959-3.682 0-6.667 2.985-6.667 6.667s2.985 6.667 6.667 6.667c3.678 0 6.66-2.978 6.667-6.654v-0.001c0-0.004 0-0.008 0-0.012 0-1.838-0.744-3.502-1.947-4.708l0 0zM22.667 12c0-2.209 1.791-4 4-4v0c0.626 0.004 1.218 0.151 1.743 0.41l-0.023-0.010-5.333 5.333c-0.244-0.502-0.387-1.092-0.387-1.716 0-0.006 0-0.012 0-0.018v0.001zM29.493 14.827c-0.735 0.7-1.732 1.13-2.829 1.13-0.618 0-1.204-0.136-1.729-0.381l0.025 0.011 5.333-5.333c0.236 0.495 0.374 1.076 0.374 1.688 0 0.021-0 0.041-0 0.061l0-0.003c-0.001 1.104-0.449 2.103-1.173 2.827l-0 0zM29.333 21.333c-0.736 0-1.333 0.597-1.333 1.333v0 0.52l-1.973-1.987c-0.683-0.643-1.605-1.038-2.62-1.038s-1.937 0.395-2.622 1.039l0.002-0.002-0.933 0.947-3.307-3.32c-0.683-0.643-1.605-1.038-2.62-1.038s-1.937 0.395-2.622 1.039l0.002-0.002-1.973 1.987v-7.48c0-0.736 0.597-1.333 1.333-1.333v0h5.333c0.736 0 1.333-0.597 1.333-1.333s-0.597-1.333-1.333-1.333v0h-5.333c-2.209 0-4 1.791-4 4v0 16c0 2.209 1.791 4 4 4v0h16c0.456-0.007 0.89-0.090 1.295-0.235l-0.028 0.009h0.12c1.379-0.502 2.39-1.704 2.611-3.165l0.003-0.022c0.004-0.044 0.006-0.095 0.006-0.147s-0.002-0.103-0.006-0.153l0 0.007v-6.96c0-0.736-0.597-1.333-1.333-1.333v0zM10.667 30.667c-0.736 0-1.333-0.597-1.333-1.333v0-4.76l3.867-3.853c0.189-0.18 0.445-0.291 0.727-0.291s0.538 0.111 0.727 0.291l-0-0 4.253 4.24 5.707 5.707zM28 29.333c-0.009 0.271-0.098 0.519-0.243 0.724l0.003-0.004-6.027-6.053 0.947-0.933c0.189-0.18 0.445-0.291 0.727-0.291s0.538 0.111 0.727 0.291l-0-0 3.867 3.88z"></path>
</svg>
