<!-- Generated by IcoMoon.io -->
<svg version="1.1" xmlns="http://www.w3.org/2000/svg" width="40" height="40" viewBox="0 0 40 40">
<title>image-times</title>
<path fill="#fff" d="M29.333 17.333c-0.736 0-1.333 0.597-1.333 1.333v0 4.52l-1.973-1.973c-0.669-0.673-1.596-1.090-2.62-1.090s-1.951 0.417-2.62 1.090l-0.934 0.934-3.307-3.32c-0.672-0.667-1.598-1.079-2.62-1.079s-1.948 0.412-2.62 1.079l-1.973 1.973v-7.467c0-0.736 0.597-1.333 1.333-1.333v0h10.667c0.736 0 1.333-0.597 1.333-1.333s-0.597-1.333-1.333-1.333v0h-10.667c-2.209 0-4 1.791-4 4v0 16c0 2.209 1.791 4 4 4v0h16c2.209 0 4-1.791 4-4v0-10.667c0-0.736-0.597-1.333-1.333-1.333v0zM10.667 30.667c-0.736 0-1.333-0.597-1.333-1.333v0-4.76l3.867-3.867c0.189-0.18 0.445-0.291 0.727-0.291s0.538 0.111 0.727 0.291l4.226 4.226 5.72 5.733zM28 29.333c-0.002 0.267-0.092 0.512-0.242 0.71l0.002-0.003-6.013-6.040 0.933-0.933c0.188-0.187 0.447-0.303 0.733-0.303s0.545 0.116 0.733 0.303l-0-0 3.853 3.893zM31.213 10.667l1.733-1.72c0.24-0.241 0.388-0.573 0.388-0.94s-0.148-0.699-0.388-0.94l0 0c-0.242-0.244-0.577-0.394-0.947-0.394s-0.705 0.151-0.947 0.394l-1.72 1.72-1.72-1.72c-0.242-0.244-0.577-0.394-0.947-0.394s-0.705 0.151-0.947 0.394l-0 0c-0.24 0.241-0.388 0.573-0.388 0.94s0.148 0.699 0.388 0.94l-0-0 1.733 1.72-1.733 1.733c-0.24 0.241-0.388 0.573-0.388 0.94s0.148 0.699 0.388 0.94l-0-0c0.242 0.244 0.577 0.394 0.947 0.394s0.705-0.151 0.947-0.394l1.72-1.72 1.72 1.72c0.242 0.244 0.577 0.394 0.947 0.394s0.705-0.151 0.947-0.394l0-0c0.24-0.241 0.388-0.573 0.388-0.94s-0.148-0.699-0.388-0.94l0 0z"></path>
</svg>
