<!-- Generated by IcoMoon.io -->
<svg version="1.1" xmlns="http://www.w3.org/2000/svg" width="40" height="40" viewBox="0 0 40 40">
<title>keyboard-show</title>
<path fill="#fff" d="M12.947 17.72c-0.242-0.244-0.577-0.394-0.947-0.394-0.736 0-1.333 0.597-1.333 1.333 0 0.003 0 0.005 0 0.008v-0c-0 0.005-0 0.010-0 0.016 0 0.736 0.597 1.333 1.333 1.333s1.333-0.597 1.333-1.333c0-0.189-0.039-0.368-0.11-0.531l0.003 0.009c-0.067-0.171-0.162-0.317-0.28-0.44l0 0zM16.387 14.28c0.241 0.239 0.573 0.387 0.939 0.387 0.003 0 0.005 0 0.008-0h-0c0.002 0 0.005 0 0.008 0 0.366 0 0.698-0.148 0.939-0.387l-0 0c0.114-0.125 0.208-0.271 0.276-0.43l0.004-0.010c0.065-0.149 0.104-0.323 0.107-0.506v-0.001c-0.005-0.368-0.152-0.701-0.387-0.947l0.001 0.001-0.2-0.16-0.24-0.12c-0.073-0.047-0.157-0.084-0.248-0.106l-0.005-0.001c-0.079-0.016-0.169-0.026-0.262-0.026-0.366 0-0.697 0.147-0.938 0.386l0-0c-0.118 0.123-0.213 0.269-0.277 0.431l-0.003 0.009c-0.068 0.149-0.107 0.323-0.107 0.507s0.039 0.358 0.11 0.515l-0.003-0.008c0.069 0.18 0.164 0.334 0.281 0.468l-0.001-0.002zM12.747 12.227c-0.069-0.048-0.148-0.088-0.233-0.118l-0.007-0.002-0.24-0.107c-0.082-0.018-0.176-0.028-0.273-0.028-0.367 0-0.699 0.148-0.941 0.388l0-0c-0.118 0.123-0.213 0.269-0.277 0.431l-0.003 0.009c-0.068 0.149-0.107 0.323-0.107 0.507s0.039 0.358 0.11 0.515l-0.003-0.008c0.072 0.169 0.166 0.315 0.281 0.441l-0.001-0.001c0.125 0.114 0.271 0.208 0.43 0.276l0.010 0.004c0.147 0.080 0.32 0.129 0.505 0.133l0.001 0c0.002 0 0.005 0 0.008 0 0.366 0 0.698-0.148 0.939-0.387l-0 0c0.114-0.125 0.208-0.271 0.276-0.43l0.004-0.010c0.065-0.149 0.104-0.323 0.107-0.506v-0.001c-0.005-0.368-0.152-0.701-0.387-0.947l0.001 0.001zM20.947 28.387c-0.242-0.244-0.577-0.394-0.947-0.394s-0.705 0.151-0.947 0.394l-2.667 2.667c-0.242 0.242-0.392 0.577-0.392 0.947 0 0.739 0.599 1.339 1.339 1.339 0.37 0 0.704-0.15 0.947-0.392v0l1.72-1.733 1.72 1.733c0.242 0.244 0.577 0.394 0.947 0.394s0.705-0.151 0.947-0.394l0-0c0.244-0.242 0.394-0.577 0.394-0.947s-0.151-0.705-0.394-0.947l-0-0zM28.947 17.72c-0.242-0.244-0.577-0.394-0.947-0.394s-0.705 0.151-0.947 0.394l-0 0c-0.118 0.123-0.213 0.269-0.277 0.431l-0.003 0.009c-0.060 0.147-0.095 0.317-0.095 0.495 0 0.736 0.597 1.333 1.333 1.333 0.179 0 0.349-0.035 0.504-0.099l-0.009 0.003c0.169-0.072 0.315-0.166 0.441-0.281l-0.001 0.001c0.239-0.241 0.387-0.573 0.387-0.939 0-0.003 0-0.005-0-0.008v0c0-0.009 0-0.019 0-0.029 0-0.174-0.039-0.338-0.11-0.485l0.003 0.007c-0.067-0.171-0.162-0.317-0.28-0.44l0 0zM22.667 17.333h-5.333c-0.736 0-1.333 0.597-1.333 1.333s0.597 1.333 1.333 1.333v0h5.333c0.736 0 1.333-0.597 1.333-1.333s-0.597-1.333-1.333-1.333v0zM30.667 6.667h-21.333c-2.209 0-4 1.791-4 4v0 10.667c0 2.209 1.791 4 4 4v0h21.333c2.209 0 4-1.791 4-4v0-10.667c0-2.209-1.791-4-4-4v0zM32 21.333c0 0.736-0.597 1.333-1.333 1.333v0h-21.333c-0.736 0-1.333-0.597-1.333-1.333v0-10.667c0-0.736 0.597-1.333 1.333-1.333v0h21.333c0.736 0 1.333 0.597 1.333 1.333v0zM27.493 12.107c-0.172 0.065-0.318 0.16-0.44 0.28l0-0c-0.235 0.246-0.381 0.579-0.387 0.946v0.001c0.002 0.184 0.041 0.357 0.11 0.515l-0.003-0.009c0.072 0.169 0.166 0.315 0.281 0.441l-0.001-0.001c0.241 0.239 0.573 0.387 0.939 0.387 0.003 0 0.005 0 0.008-0h-0c0.002 0 0.005 0 0.008 0 0.366 0 0.698-0.148 0.939-0.387l-0 0c0.114-0.125 0.208-0.271 0.276-0.43l0.004-0.010c0.065-0.149 0.104-0.323 0.107-0.506v-0.001c-0.005-0.368-0.152-0.701-0.387-0.947l0.001 0.001c-0.241-0.238-0.571-0.384-0.936-0.384-0.187 0-0.364 0.038-0.526 0.108l0.009-0.003zM23.413 12.227l-0.24-0.12-0.24-0.107c-0.077-0.016-0.165-0.025-0.255-0.025-0.187 0-0.365 0.039-0.527 0.108l0.009-0.003c-0.172 0.065-0.318 0.16-0.44 0.28l0-0c-0.118 0.123-0.213 0.269-0.277 0.431l-0.003 0.009c-0.068 0.149-0.107 0.323-0.107 0.507s0.039 0.358 0.11 0.515l-0.003-0.008c0.072 0.169 0.166 0.315 0.281 0.441l-0.001-0.001c0.239 0.251 0.574 0.408 0.946 0.413h0.001c0.002 0 0.005 0 0.008 0 0.366 0 0.698-0.148 0.939-0.387l-0 0c0.114-0.125 0.208-0.271 0.276-0.43l0.004-0.010c0.065-0.149 0.104-0.323 0.107-0.506v-0.001c-0.005-0.368-0.152-0.701-0.387-0.947l0.001 0.001z"></path>
</svg>
