<!-- Generated by IcoMoon.io -->
<svg version="1.1" xmlns="http://www.w3.org/2000/svg" width="40" height="40" viewBox="0 0 40 40">
<title>laptop-connection</title>
<path fill="#fff" d="M32 28h-8.24c-0.412-1.135-1.291-2.014-2.399-2.418l-0.028-0.009v-4.24h9.333c0.736 0 1.333-0.597 1.333-1.333s-0.597-1.333-1.333-1.333v0h-1.333v-8c0-2.209-1.791-4-4-4v0h-10.667c-2.209 0-4 1.791-4 4v0 8h-1.333c-0.736 0-1.333 0.597-1.333 1.333s0.597 1.333 1.333 1.333v0h9.333v4.24c-1.135 0.412-2.014 1.291-2.418 2.399l-0.009 0.028h-8.24c-0.736 0-1.333 0.597-1.333 1.333s0.597 1.333 1.333 1.333v0h8.24c0.574 1.55 2.041 2.635 3.76 2.635s3.186-1.085 3.751-2.608l0.009-0.028h8.24c0.736 0 1.333-0.597 1.333-1.333s-0.597-1.333-1.333-1.333v0zM13.333 18.667v-8c0-0.736 0.597-1.333 1.333-1.333v0h10.667c0.736 0 1.333 0.597 1.333 1.333v0 8zM20 30.667c-0.736 0-1.333-0.597-1.333-1.333s0.597-1.333 1.333-1.333c0.736 0 1.333 0.597 1.333 1.333v0c0 0.736-0.597 1.333-1.333 1.333v0z"></path>
</svg>
