<!-- Generated by IcoMoon.io -->
<svg version="1.1" xmlns="http://www.w3.org/2000/svg" width="40" height="40" viewBox="0 0 40 40">
<title>left-indent</title>
<path fill="#fff" d="M8 13.333h24c0.736 0 1.333-0.597 1.333-1.333s-0.597-1.333-1.333-1.333v0h-24c-0.736 0-1.333 0.597-1.333 1.333s0.597 1.333 1.333 1.333v0zM8 18.667h13.333c0.736 0 1.333-0.597 1.333-1.333s-0.597-1.333-1.333-1.333v0h-13.333c-0.736 0-1.333 0.597-1.333 1.333s0.597 1.333 1.333 1.333v0zM33.027 16.92c-0.246-0.291-0.612-0.474-1.020-0.474-0.329 0-0.63 0.119-0.862 0.316l0.002-0.002-2.667 2.213c-0.296 0.246-0.483 0.615-0.483 1.027s0.187 0.78 0.48 1.025l0.002 0.002 2.667 2.213c0.228 0.196 0.526 0.317 0.853 0.32h0.001c0.001 0 0.001 0 0.002 0 0.411 0 0.778-0.186 1.023-0.478l0.002-0.002c0.192-0.229 0.309-0.528 0.309-0.854 0-0.412-0.187-0.78-0.48-1.025l-0.002-0.002-1.44-1.2 1.44-1.2c0.296-0.246 0.482-0.615 0.482-1.026 0-0.326-0.117-0.624-0.311-0.856l0.002 0.002zM32 26.667h-24c-0.736 0-1.333 0.597-1.333 1.333s0.597 1.333 1.333 1.333v0h24c0.736 0 1.333-0.597 1.333-1.333s-0.597-1.333-1.333-1.333v0zM8 24h13.333c0.736 0 1.333-0.597 1.333-1.333s-0.597-1.333-1.333-1.333v0h-13.333c-0.736 0-1.333 0.597-1.333 1.333s0.597 1.333 1.333 1.333v0z"></path>
</svg>
