<!-- Generated by IcoMoon.io -->
<svg version="1.1" xmlns="http://www.w3.org/2000/svg" width="40" height="40" viewBox="0 0 40 40">
<title>letter-english-a</title>
<path fill="#fff" d="M29.294 30.343l-4.828-19.313c-0.447-1.754-2.013-3.030-3.876-3.030-0.002 0-0.003 0-0.005 0h-1.169c-0.001 0-0.003 0-0.005 0-1.864 0-3.429 1.276-3.87 3.002l-0.006 0.028-4.828 19.313c-0.025 0.097-0.040 0.209-0.040 0.324 0 0.736 0.597 1.333 1.333 1.333 0.622 0 1.144-0.425 1.292-1.001l0.002-0.009 1.747-6.99h9.918l1.747 6.99c0.15 0.585 0.672 1.010 1.294 1.010 0.736 0 1.333-0.597 1.333-1.333 0-0.115-0.015-0.226-0.042-0.333l0.002 0.009zM15.708 21.333l2.414-9.656c0.149-0.585 0.671-1.010 1.292-1.010 0.001 0 0.001 0 0.002 0h1.169c0.001 0 0.001 0 0.002 0 0.621 0 1.143 0.426 1.29 1.001l0.002 0.009 2.414 9.656z"></path>
</svg>
