<!-- Generated by IcoMoon.io -->
<svg version="1.1" xmlns="http://www.w3.org/2000/svg" width="40" height="40" viewBox="0 0 40 40">
<title>link</title>
<path fill="#fff" d="M17.333 27.4l-2.36 2.293c-0.597 0.597-1.422 0.966-2.333 0.966-1.822 0-3.3-1.477-3.3-3.3 0-0.911 0.369-1.736 0.966-2.333v0l6.053-6.067c0.594-0.596 1.415-0.964 2.323-0.964 0.846 0 1.618 0.321 2.2 0.847l-0.003-0.003 0.16 0.133c0.24 0.236 0.57 0.381 0.933 0.381 0.737 0 1.334-0.597 1.334-1.334 0-0.373-0.153-0.711-0.401-0.953l-0-0c-0.080-0.103-0.159-0.194-0.241-0.282l0.001 0.002c-1.038-0.907-2.406-1.46-3.903-1.46-1.648 0-3.139 0.67-4.216 1.753l-0 0-6.133 6.067c-0.976 1.060-1.575 2.481-1.575 4.041 0 3.299 2.674 5.973 5.973 5.973 1.561 0 2.981-0.598 4.045-1.578l-0.004 0.004 2.307-2.253c0.217-0.236 0.35-0.553 0.35-0.901 0-0.736-0.597-1.333-1.333-1.333-0.321 0-0.616 0.114-0.846 0.303l0.002-0.002zM31.587 8.413c-1.082-1.076-2.573-1.74-4.22-1.74s-3.138 0.665-4.22 1.741l0-0-2.307 2.253c-0.217 0.236-0.35 0.553-0.35 0.901 0 0.736 0.597 1.333 1.333 1.333 0.321 0 0.616-0.114 0.846-0.303l-0.002 0.002 2.307-2.293c0.597-0.597 1.422-0.966 2.333-0.966 1.822 0 3.3 1.477 3.3 3.3 0 0.911-0.369 1.736-0.966 2.333v0l-6.053 6.067c-0.594 0.596-1.415 0.964-2.323 0.964-0.846 0-1.618-0.321-2.2-0.847l0.003 0.002-0.16-0.133c-0.24-0.236-0.57-0.381-0.933-0.381-0.737 0-1.334 0.597-1.334 1.334 0 0.373 0.153 0.711 0.401 0.953l0 0c0.095 0.097 0.195 0.189 0.3 0.275l0.006 0.005c1.039 0.904 2.407 1.455 3.903 1.455 1.647 0 3.139-0.668 4.217-1.749l6.067-6.067c1.092-1.085 1.767-2.587 1.767-4.247 0-1.633-0.654-3.114-1.715-4.194l0.001 0.001z"></path>
</svg>
