<!-- Generated by IcoMoon.io -->
<svg version="1.1" xmlns="http://www.w3.org/2000/svg" width="40" height="40" viewBox="0 0 40 40">
<title>lock</title>
<path fill="#fff" d="M26.667 16v-2.667c0-3.682-2.985-6.667-6.667-6.667s-6.667 2.985-6.667 6.667v0 2.667c-2.209 0-4 1.791-4 4v0 9.333c0 2.209 1.791 4 4 4v0h13.333c2.209 0 4-1.791 4-4v0-9.333c0-2.209-1.791-4-4-4v0zM16 13.333c0-2.209 1.791-4 4-4s4 1.791 4 4v0 2.667h-8zM28 29.333c0 0.736-0.597 1.333-1.333 1.333v0h-13.333c-0.736 0-1.333-0.597-1.333-1.333v0-9.333c0-0.736 0.597-1.333 1.333-1.333v0h13.333c0.736 0 1.333 0.597 1.333 1.333v0z"></path>
</svg>
