<!-- Generated by IcoMoon.io -->
<svg version="1.1" xmlns="http://www.w3.org/2000/svg" width="40" height="40" viewBox="0 0 40 40">
<title>mailbox-alt</title>
<path fill="#fff" d="M18.667 21.333h2.667c0.736 0 1.333-0.597 1.333-1.333s-0.597-1.333-1.333-1.333v0h-2.667c-0.736 0-1.333 0.597-1.333 1.333s0.597 1.333 1.333 1.333v0zM29.333 30.667h-1.333v-14.667h1.333c0.736 0 1.333-0.597 1.333-1.333s-0.597-1.333-1.333-1.333v0h-1.453c-0.681-3.785-3.95-6.62-7.88-6.62s-7.199 2.834-7.873 6.571l-0.007 0.049h-1.453c-0.736 0-1.333 0.597-1.333 1.333s0.597 1.333 1.333 1.333v0h1.333v14.667h-1.333c-0.736 0-1.333 0.597-1.333 1.333s0.597 1.333 1.333 1.333v0h18.667c0.736 0 1.333-0.597 1.333-1.333s-0.597-1.333-1.333-1.333v0zM20 9.333c2.465 0.008 4.535 1.687 5.138 3.963l0.008 0.037h-10.293c0.612-2.313 2.682-3.992 5.146-4h0.001zM25.333 30.667h-10.667v-2.667h10.667zM25.333 25.333h-10.667v-9.333h10.667z"></path>
</svg>
