<!-- Generated by IcoMoon.io -->
<svg version="1.1" xmlns="http://www.w3.org/2000/svg" width="40" height="40" viewBox="0 0 40 40">
<title>medium-m</title>
<path fill="#fff" d="M32.279 12.556h1.055v-3.111h-9.974l-3.314 12.222h-0.091l-3.284-12.222h-10.004v3.111h1.024c0.487 0.081 0.869 0.448 0.974 0.918l0.001 0.008v13.107c-0.112 0.46-0.498 0.805-0.971 0.855l-0.005 0h-1.024v3.111h8v-3.111h-2v-13.778h0.117l4.61 16.889h3.616l4.67-16.889h0.098v13.778h-2v3.111h9.556v-3.111h-1.055c-0.466-0.062-0.837-0.404-0.944-0.848l-0.002-0.008v-13.107c0.103-0.471 0.472-0.833 0.938-0.925l0.008-0.001z"></path>
</svg>
