<!-- Generated by IcoMoon.io -->
<svg version="1.1" xmlns="http://www.w3.org/2000/svg" width="40" height="40" viewBox="0 0 40 40">
<title>mobile-vibrate</title>
<path fill="#fff" d="M17.173 22.827l-0.2-0.16-0.24-0.133-0.24-0.067c-0.079-0.016-0.169-0.026-0.262-0.026-0.366 0-0.697 0.147-0.938 0.386l0-0c-0.129 0.118-0.229 0.266-0.291 0.432l-0.002 0.008c-0.068 0.149-0.107 0.323-0.107 0.507s0.039 0.358 0.11 0.515l-0.003-0.008c0.146 0.322 0.398 0.574 0.711 0.716l0.009 0.004c0.149 0.065 0.323 0.104 0.506 0.107h0.001c0.188-0.004 0.366-0.042 0.53-0.11l-0.010 0.004c0.168-0.068 0.311-0.167 0.426-0.293l0.001-0.001c0.122-0.119 0.221-0.261 0.29-0.418l0.003-0.009c0.059-0.145 0.093-0.314 0.093-0.49 0-0.006-0-0.011-0-0.017v0.001c0-0.009 0-0.019 0-0.029 0-0.174-0.039-0.338-0.11-0.485l0.003 0.007c-0.065-0.172-0.16-0.318-0.28-0.44l0 0zM8.68 15.68c0.371-0.002 0.706-0.154 0.946-0.4l5.654-5.654c0.24-0.241 0.388-0.573 0.388-0.94s-0.148-0.699-0.388-0.94l0 0c-0.241-0.24-0.573-0.388-0.94-0.388s-0.699 0.148-0.94 0.388l-5.653 5.653c-0.24 0.241-0.388 0.573-0.388 0.94s0.148 0.699 0.388 0.94l-0-0c0.238 0.243 0.567 0.395 0.932 0.4h0.001zM32.253 24.72c-0.241-0.24-0.573-0.388-0.94-0.388s-0.699 0.148-0.94 0.388l-5.653 5.653c-0.244 0.242-0.394 0.577-0.394 0.947 0 0.734 0.594 1.33 1.327 1.333h0c0.371-0.002 0.706-0.154 0.946-0.4l0-0 5.653-5.587c0.26-0.244 0.422-0.59 0.422-0.973s-0.162-0.729-0.421-0.973l-0.001-0.001zM32.48 17.173c0-0.003 0-0.006 0-0.010 0-1.099-0.443-2.094-1.16-2.817l-5.666-5.666c-0.735-0.698-1.731-1.128-2.827-1.128s-2.092 0.429-2.828 1.129l0.002-0.002-11.32 11.32c-0.723 0.724-1.17 1.723-1.17 2.827s0.447 2.103 1.17 2.827l5.667 5.667c0.724 0.723 1.723 1.17 2.827 1.17s2.103-0.447 2.827-1.17l11.32-11.32c0.717-0.723 1.16-1.718 1.16-2.817 0-0.003 0-0.007 0-0.010v0.001zM29.427 18.12l-11.307 11.307c-0.242 0.244-0.577 0.394-0.947 0.394s-0.705-0.151-0.947-0.394l-5.653-5.653c-0.244-0.242-0.394-0.577-0.394-0.947s0.151-0.705 0.394-0.947l11.307-11.307c0.242-0.244 0.577-0.394 0.947-0.394s0.705 0.151 0.947 0.394l5.653 5.653c0.244 0.242 0.394 0.577 0.394 0.947s-0.151 0.705-0.394 0.947l-0 0z"></path>
</svg>
