<!-- Generated by IcoMoon.io -->
<svg version="1.1" xmlns="http://www.w3.org/2000/svg" width="40" height="40" viewBox="0 0 40 40">
<title>mobile-android-alt</title>
<path fill="#fff" d="M25.333 6.667h-10.667c-2.209 0-4 1.791-4 4v0 18.667c0 2.209 1.791 4 4 4v0h10.667c2.209 0 4-1.791 4-4v0-18.667c0-2.209-1.791-4-4-4v0zM26.667 29.333c0 0.736-0.597 1.333-1.333 1.333v0h-10.667c-0.736 0-1.333-0.597-1.333-1.333v0-1.333h13.333zM26.667 25.333h-13.333v-14.667c0-0.736 0.597-1.333 1.333-1.333v0h10.667c0.736 0 1.333 0.597 1.333 1.333v0z"></path>
</svg>
