<!-- Generated by IcoMoon.io -->
<svg version="1.1" xmlns="http://www.w3.org/2000/svg" width="40" height="40" viewBox="0 0 40 40">
<title>music</title>
<path fill="#fff" d="M32.867 6.987c-0.232-0.2-0.536-0.321-0.868-0.321-0.070 0-0.139 0.005-0.206 0.016l0.007-0.001-17.333 2.667c-0.645 0.101-1.133 0.652-1.133 1.318 0 0.001 0 0.001 0 0.002v-0 13.8c-0.584-0.292-1.271-0.464-1.999-0.467h-0.001c-2.577 0-4.667 2.089-4.667 4.667s2.089 4.667 4.667 4.667c2.577 0 4.667-2.089 4.667-4.667v0-10.187l14.667-2.253v5.573c-0.584-0.292-1.271-0.464-1.999-0.467h-0.001c-2.577 0-4.667 2.089-4.667 4.667s2.089 4.667 4.667 4.667c2.577 0 4.667-2.089 4.667-4.667v0-18c0-0 0-0 0-0 0-0.405-0.18-0.767-0.465-1.012l-0.002-0.001zM11.333 30.667c-1.105 0-2-0.895-2-2s0.895-2 2-2c1.105 0 2 0.895 2 2v0c0 1.105-0.895 2-2 2v0zM28.667 28c-1.105 0-2-0.895-2-2s0.895-2 2-2c1.105 0 2 0.895 2 2v0c0 1.105-0.895 2-2 2v0zM30.667 13.52l-14.667 2.253v-4l14.667-2.213z"></path>
</svg>
