<!-- Generated by IcoMoon.io -->
<svg version="1.1" xmlns="http://www.w3.org/2000/svg" width="40" height="40" viewBox="0 0 40 40">
<title>panel-add</title>
<path fill="#fff" d="M28 17.333h-5.333v-9.333c0-0.736-0.597-1.333-1.333-1.333v0h-6.667c-0.736 0-1.333 0.597-1.333 1.333v0 6.667h-5.333c-0.736 0-1.333 0.597-1.333 1.333v0 16c0 0.736 0.597 1.333 1.333 1.333v0h20c0.736 0 1.333-0.597 1.333-1.333v0-13.333c0-0.736-0.597-1.333-1.333-1.333v0zM13.333 30.667h-4v-13.333h4zM20 30.667h-4v-21.333h4zM26.667 30.667h-4v-10.667h4zM32 9.333h-1.333v-1.333c0-0.736-0.597-1.333-1.333-1.333s-1.333 0.597-1.333 1.333v0 1.333h-1.333c-0.736 0-1.333 0.597-1.333 1.333s0.597 1.333 1.333 1.333v0h1.333v1.333c0 0.736 0.597 1.333 1.333 1.333s1.333-0.597 1.333-1.333v0-1.333h1.333c0.736 0 1.333-0.597 1.333-1.333s-0.597-1.333-1.333-1.333v0z"></path>
</svg>
