<!-- Generated by IcoMoon.io -->
<svg version="1.1" xmlns="http://www.w3.org/2000/svg" width="40" height="40" viewBox="0 0 40 40">
<title>panorama-h-alt</title>
<path fill="#fff" d="M32.613 11.773c-0.081-0.545-0.483-0.978-1.004-1.105l-0.009-0.002h-0.147c-3.441-0.845-7.39-1.33-11.453-1.33s-8.013 0.485-11.795 1.4l0.341-0.070h-0.147c-0.52 0.123-0.917 0.538-1.012 1.059l-0.001 0.008c-0.458 2.473-0.72 5.319-0.72 8.227s0.262 5.753 0.764 8.516l-0.044-0.289c0.096 0.529 0.493 0.944 1.004 1.065l0.009 0.002h0.147c3.43 0.868 7.374 1.382 11.433 1.413l0.020 0c4.064-0.003 8.014-0.489 11.796-1.403l-0.343 0.070h0.147c0.52-0.123 0.917-0.538 1.012-1.059l0.001-0.008c0.46-2.479 0.724-5.332 0.724-8.247s-0.263-5.767-0.767-8.536l0.044 0.289zM30.133 26.893c-3.045 0.699-6.543 1.1-10.133 1.1s-7.088-0.401-10.449-1.16l0.316 0.060c-0.344-2.072-0.54-4.46-0.54-6.893s0.196-4.821 0.574-7.148l-0.034 0.255c3.045-0.699 6.543-1.1 10.133-1.1s7.088 0.401 10.449 1.16l-0.316-0.060c0.344 2.072 0.54 4.46 0.54 6.893s-0.196 4.821-0.574 7.148l0.034-0.255z"></path>
</svg>
