<!-- Generated by IcoMoon.io -->
<svg version="1.1" xmlns="http://www.w3.org/2000/svg" width="40" height="40" viewBox="0 0 40 40">
<title>percentage</title>
<path fill="#fff" d="M14.344 18.344c2.209 0 4-1.791 4-4s-1.791-4-4-4c-2.209 0-4 1.791-4 4v0c0.002 2.208 1.792 3.998 4 4h0zM14.344 13.010c0.736 0 1.333 0.597 1.333 1.333s-0.597 1.333-1.333 1.333c-0.736 0-1.333-0.597-1.333-1.333v0c0.001-0.736 0.597-1.333 1.333-1.333h0zM25.656 21.656c-2.209 0-4 1.791-4 4s1.791 4 4 4c2.209 0 4-1.791 4-4v0c-0.002-2.208-1.792-3.998-4-4h-0zM25.656 26.99c-0.736 0-1.333-0.597-1.333-1.333s0.597-1.333 1.333-1.333c0.736 0 1.333 0.597 1.333 1.333v0c-0.001 0.736-0.597 1.333-1.333 1.333h-0zM30.276 9.724c-0.241-0.241-0.575-0.391-0.943-0.391s-0.701 0.149-0.943 0.391l-18.667 18.667c-0.245 0.242-0.396 0.578-0.396 0.949 0 0.736 0.597 1.333 1.333 1.333 0.371 0 0.707-0.152 0.949-0.396l18.667-18.667c0.241-0.241 0.391-0.574 0.391-0.943s-0.149-0.701-0.391-0.943v0z"></path>
</svg>
