<!-- Generated by IcoMoon.io -->
<svg version="1.1" xmlns="http://www.w3.org/2000/svg" width="40" height="40" viewBox="0 0 40 40">
<title>phone</title>
<path fill="#fff" d="M29.92 21.333c-0.293 0-0.6-0.093-0.893-0.16-0.684-0.152-1.268-0.331-1.833-0.549l0.086 0.029c-0.271-0.102-0.585-0.161-0.912-0.161-1.046 0-1.951 0.602-2.388 1.479l-0.007 0.015-0.293 0.6c-1.353-0.761-2.518-1.646-3.548-2.668l0.001 0.001c-1.021-1.028-1.906-2.194-2.625-3.466l-0.042-0.081 0.56-0.373c0.892-0.444 1.494-1.349 1.494-2.395 0-0.327-0.059-0.641-0.167-0.93l0.006 0.018c-0.183-0.471-0.362-1.055-0.502-1.654l-0.018-0.093c-0.067-0.293-0.12-0.6-0.16-0.907-0.336-1.898-1.973-3.32-3.942-3.32-0.020 0-0.041 0-0.061 0l0.003-0h-4c-0.011-0-0.024-0-0.038-0-2.209 0-4 1.791-4 4 0 0.193 0.014 0.383 0.040 0.568l-0.002-0.021c1.503 11.492 10.524 20.486 21.901 21.934l0.126 0.013h0.507c0.002 0 0.004 0 0.006 0 1.024 0 1.957-0.384 2.665-1.017l-0.004 0.003c0.82-0.736 1.333-1.799 1.333-2.981 0-0.007 0-0.013-0-0.020v0.001-4c-0.035-1.93-1.432-3.524-3.269-3.863l-0.025-0.004zM30.587 29.333c-0.001 0.398-0.175 0.755-0.452 0.999l-0.001 0.001c-0.245 0.214-0.567 0.344-0.919 0.344-0.061 0-0.122-0.004-0.181-0.012l0.007 0.001c-10.272-1.355-18.308-9.422-19.602-19.594l-0.012-0.112c-0.005-0.047-0.009-0.102-0.009-0.157 0-0.358 0.129-0.685 0.344-0.938l-0.002 0.002c0.245-0.278 0.602-0.453 1-0.453h4c0.009-0 0.019-0 0.030-0 0.637 0 1.17 0.447 1.302 1.045l0.002 0.009q0.080 0.547 0.2 1.080c0.179 0.809 0.39 1.5 0.648 2.168l-0.034-0.101-1.867 0.867c-0.463 0.216-0.777 0.677-0.777 1.212 0 0.204 0.046 0.397 0.127 0.57l-0.003-0.008c1.958 4.127 5.206 7.376 9.216 9.283l0.117 0.050c0.15 0.063 0.324 0.1 0.507 0.1s0.357-0.037 0.515-0.103l-0.009 0.003c0.339-0.124 0.607-0.371 0.757-0.685l0.003-0.008 0.827-1.867c0.558 0.21 1.263 0.421 1.983 0.589l0.123 0.024q0.533 0.12 1.080 0.2c0.607 0.133 1.054 0.666 1.054 1.304 0 0.010-0 0.021-0 0.031l0-0.002z"></path>
</svg>
