<!-- Generated by IcoMoon.io -->
<svg version="1.1" xmlns="http://www.w3.org/2000/svg" width="40" height="40" viewBox="0 0 40 40">
<title>presentation-lines-alt</title>
<path fill="#fff" d="M17.56 18.067c0.215 0.328 0.564 0.554 0.967 0.599l0.006 0.001c0.040 0.004 0.087 0.007 0.134 0.007 0.37 0 0.704-0.15 0.946-0.393l0-0 1.507-1.52 1.773 2.667c0.244 0.348 0.644 0.573 1.096 0.573 0.004 0 0.008-0 0.012-0h-0.001c0.004 0 0.009 0 0.014 0 0.269 0 0.519-0.085 0.723-0.229l-0.004 0.003c0.359-0.243 0.592-0.648 0.592-1.108 0-0.272-0.082-0.526-0.222-0.737l0.003 0.005-2.667-4c-0.215-0.328-0.564-0.554-0.967-0.599l-0.006-0.001c-0.040-0.004-0.087-0.007-0.134-0.007-0.37 0-0.704 0.15-0.946 0.393l-0 0-1.507 1.52-1.773-2.667c-0.23-0.422-0.669-0.703-1.175-0.703-0.736 0-1.333 0.597-1.333 1.333 0 0.318 0.111 0.61 0.297 0.839l-0.002-0.003zM32 22.667h-1.333v-13.333h1.333c0.736 0 1.333-0.597 1.333-1.333s-0.597-1.333-1.333-1.333v0h-24c-0.736 0-1.333 0.597-1.333 1.333s0.597 1.333 1.333 1.333v0h1.333v13.333h-1.333c-0.736 0-1.333 0.597-1.333 1.333s0.597 1.333 1.333 1.333v0h10.667v1.533l-6.067 4c-0.382 0.239-0.632 0.657-0.632 1.134 0 0.736 0.597 1.333 1.333 1.333 0.011 0 0.022-0 0.033-0l-0.002 0c0.004 0 0.009 0 0.014 0 0.269 0 0.519-0.085 0.723-0.229l-0.004 0.003 4.6-3.040v1.933c0 0.736 0.597 1.333 1.333 1.333s1.333-0.597 1.333-1.333v0-1.933l4.6 3.040c0.2 0.142 0.45 0.227 0.719 0.227 0.005 0 0.010-0 0.015-0h-0.001c0.732-0.006 1.323-0.601 1.323-1.333 0-0.459-0.232-0.864-0.585-1.104l-0.005-0.003-6.067-4v-1.56h10.667c0.736 0 1.333-0.597 1.333-1.333s-0.597-1.333-1.333-1.333v0zM28 22.667h-16v-13.333h16z"></path>
</svg>
