<!-- Generated by IcoMoon.io -->
<svg version="1.1" xmlns="http://www.w3.org/2000/svg" width="40" height="40" viewBox="0 0 40 40">
<title>pricetag-alt</title>
<path fill="#fff" d="M13.333 12c-0.736 0-1.333 0.597-1.333 1.333s0.597 1.333 1.333 1.333c0.736 0 1.333-0.597 1.333-1.333v0c0-0.736-0.597-1.333-1.333-1.333v0zM32.947 19.707l-12.64-12.613c-0.243-0.262-0.589-0.425-0.973-0.427h-8c-0.002 0-0.005-0-0.008-0-0.366 0-0.698 0.148-0.939 0.387l0-0-3.333 3.32c-0.239 0.241-0.387 0.573-0.387 0.939 0 0.003 0 0.005 0 0.008v-0 8c0.005 0.368 0.152 0.701 0.387 0.947l-0.001-0.001 12.653 12.667c0.246 0.235 0.579 0.381 0.946 0.387h0.001c0.002 0 0.005 0 0.008 0 0.366 0 0.698-0.148 0.939-0.387l11.347-11.347c0.239-0.241 0.387-0.573 0.387-0.939 0-0.003 0-0.005-0-0.008v0c-0.009-0.363-0.155-0.69-0.387-0.934l0.001 0.001zM20.653 30.12l-11.32-11.333v-6.92l2.533-2.533h6.907l11.333 11.32z"></path>
</svg>
