<!-- Generated by IcoMoon.io -->
<svg version="1.1" xmlns="http://www.w3.org/2000/svg" width="40" height="40" viewBox="0 0 40 40">
<title>rotate-360</title>
<path fill="#fff" d="M20 12c-7.6 0-13.333 2.867-13.333 6.667 0 3.267 4.253 5.84 10.28 6.507l-0.56 0.547c-0.244 0.242-0.394 0.577-0.394 0.947s0.151 0.705 0.394 0.947l0 0c0.242 0.244 0.577 0.394 0.947 0.394s0.705-0.151 0.947-0.394l2.667-2.667c0.118-0.123 0.213-0.269 0.277-0.431l0.003-0.009c0.063-0.15 0.1-0.324 0.1-0.507s-0.037-0.357-0.103-0.515l0.003 0.009c-0.067-0.171-0.162-0.317-0.28-0.44l0 0-2.667-2.667c-0.242-0.242-0.577-0.392-0.947-0.392-0.739 0-1.339 0.599-1.339 1.339 0 0.37 0.15 0.704 0.392 0.947v0l0.16 0.147c-4.547-0.64-7.213-2.427-7.213-3.76 0-1.627 4.16-4 10.667-4s10.667 2.373 10.667 4c0 1.107-1.933 2.667-5.613 3.467-0.621 0.122-1.082 0.662-1.082 1.31 0 0.098 0.011 0.194 0.031 0.286l-0.002-0.009c0.132 0.608 0.666 1.057 1.304 1.057 0.1 0 0.197-0.011 0.291-0.032l-0.009 0.002c4.867-1.067 7.747-3.333 7.747-6.080 0-3.8-5.733-6.667-13.333-6.667z"></path>
</svg>
