<!-- Generated by IcoMoon.io -->
<svg version="1.1" xmlns="http://www.w3.org/2000/svg" width="40" height="40" viewBox="0 0 40 40">
<title>shopping-bag</title>
<path fill="#fff" d="M29.333 13.333h-4v-1.333c0-2.946-2.388-5.333-5.333-5.333s-5.333 2.388-5.333 5.333v0 1.333h-4c-0.736 0-1.333 0.597-1.333 1.333v0 14.667c0 2.209 1.791 4 4 4v0h13.333c2.209 0 4-1.791 4-4v0-14.667c0-0.736-0.597-1.333-1.333-1.333v0zM17.333 12c0-1.473 1.194-2.667 2.667-2.667s2.667 1.194 2.667 2.667v0 1.333h-5.333zM28 29.333c0 0.736-0.597 1.333-1.333 1.333v0h-13.333c-0.736 0-1.333-0.597-1.333-1.333v0-13.333h2.667v1.333c0 0.736 0.597 1.333 1.333 1.333s1.333-0.597 1.333-1.333v0-1.333h5.333v1.333c0 0.736 0.597 1.333 1.333 1.333s1.333-0.597 1.333-1.333v0-1.333h2.667z"></path>
</svg>
