<!-- Generated by IcoMoon.io -->
<svg version="1.1" xmlns="http://www.w3.org/2000/svg" width="40" height="40" viewBox="0 0 40 40">
<title>shopping-cart</title>
<path fill="#fff" d="M15.333 29.333c-1.105 0-2 0.895-2 2s0.895 2 2 2c1.105 0 2-0.895 2-2v0c0-1.105-0.895-2-2-2v0zM29.333 25.333h-16c-0.736 0-1.333-0.597-1.333-1.333s0.597-1.333 1.333-1.333v0h11.322c1.816-0.006 3.347-1.216 3.839-2.873l0.007-0.028 2.114-7.399c0.033-0.11 0.051-0.236 0.051-0.366 0-0.736-0.597-1.333-1.333-1.333h-16.348c-0.566-1.561-2.032-2.657-3.756-2.667h-1.23c-0.736 0-1.333 0.597-1.333 1.333s0.597 1.333 1.333 1.333v0h1.229c0.605 0.002 1.115 0.405 1.279 0.957l0.002 0.009 0.207 0.726 0 0.007 2.188 7.656c-2.017 0.223-3.572 1.919-3.572 3.977 0 2.209 1.791 4 4 4h16c0.736 0 1.333-0.597 1.333-1.333s-0.597-1.333-1.333-1.333v0zM27.566 13.333l-1.628 5.699c-0.166 0.562-0.677 0.966-1.282 0.967h-8.983l-0.34-1.19-1.564-5.477zM26 29.333c-1.105 0-2 0.895-2 2s0.895 2 2 2c1.105 0 2-0.895 2-2v0c0-1.105-0.895-2-2-2v0z"></path>
</svg>
