<!-- Generated by IcoMoon.io -->
<svg version="1.1" xmlns="http://www.w3.org/2000/svg" width="40" height="40" viewBox="0 0 40 40">
<title>shuffle</title>
<path fill="#fff" d="M8 17.333c0.736 0 1.333-0.597 1.333-1.333v0-4.787l6.080 6.12c0.243 0.252 0.583 0.408 0.96 0.408s0.717-0.156 0.96-0.408l0-0c0.24-0.241 0.388-0.573 0.388-0.94s-0.148-0.699-0.388-0.94l-6.12-6.12h4.787c0.736 0 1.333-0.597 1.333-1.333s-0.597-1.333-1.333-1.333v0h-8c-0.184 0.002-0.357 0.041-0.515 0.11l0.009-0.003c-0.327 0.138-0.582 0.393-0.717 0.711l-0.003 0.009c-0.065 0.149-0.104 0.323-0.107 0.506v8.001c0 0.736 0.597 1.333 1.333 1.333v0zM24.4 22.667c-0.232-0.199-0.535-0.321-0.867-0.321-0.736 0-1.333 0.597-1.333 1.333 0 0.332 0.121 0.636 0.322 0.869l-0.001-0.002 8.36 8.373c0.241 0.239 0.573 0.387 0.939 0.387 0.003 0 0.005 0 0.008-0h-0c0.002 0 0.005 0 0.008 0 0.366 0 0.698-0.148 0.939-0.387l-0 0c0.244-0.242 0.394-0.577 0.394-0.947s-0.151-0.705-0.394-0.947l-0-0zM16 30.667h-4.787l21.733-21.72c0.242-0.242 0.392-0.577 0.392-0.947 0-0.739-0.599-1.339-1.339-1.339-0.37 0-0.704 0.15-0.947 0.392l-21.72 21.733v-4.787c0-0.736-0.597-1.333-1.333-1.333s-1.333 0.597-1.333 1.333v0 8c0.002 0.184 0.041 0.357 0.11 0.515l-0.003-0.009c0.138 0.327 0.393 0.582 0.711 0.717l0.009 0.003c0.149 0.065 0.323 0.104 0.506 0.107h8.001c0.736 0 1.333-0.597 1.333-1.333s-0.597-1.333-1.333-1.333v0z"></path>
</svg>
