<!-- Generated by IcoMoon.io -->
<svg version="1.1" xmlns="http://www.w3.org/2000/svg" width="40" height="40" viewBox="0 0 40 40">
<title>slack-alt</title>
<path fill="#fff" d="M34.667 16.667c-0.003-2.576-2.091-4.663-4.666-4.667h-0c-0.729 0.004-1.416 0.176-2.027 0.48l0.027-0.012v-2.468c0-0.002 0-0.005 0-0.007 0-2.573-2.086-4.66-4.66-4.66-1.31 0-2.493 0.54-3.339 1.41l-0.001 0.001c-0.847-0.88-2.035-1.427-3.351-1.427-2.568 0-4.649 2.081-4.649 4.649 0 0.74 0.173 1.439 0.48 2.060l-0.012-0.027h-2.468c-0.002 0-0.005 0-0.007 0-2.573 0-4.66 2.086-4.66 4.66 0 1.31 0.54 2.493 1.41 3.339l0.001 0.001c-0.88 0.847-1.427 2.035-1.427 3.351 0 2.568 2.081 4.649 4.649 4.649 0.74 0 1.439-0.173 2.060-0.48l-0.027 0.012v2.468c0 0.002 0 0.005 0 0.007 0 2.573 2.086 4.66 4.66 4.66 1.31 0 2.493-0.54 3.339-1.41l0.001-0.001c0.847 0.88 2.035 1.427 3.351 1.427 2.568 0 4.649-2.081 4.649-4.649 0-0.74-0.173-1.439-0.48-2.060l0.012 0.027h2.468c0.002 0 0.005 0 0.007 0 2.573 0 4.66-2.086 4.66-4.66 0-1.31-0.54-2.493-1.41-3.339l-0.001-0.001c0.87-0.845 1.41-2.026 1.411-3.333v-0zM21.333 10c0-1.105 0.895-2 2-2s2 0.895 2 2v0 6.667c0 1.105-0.895 2-2 2s-2-0.895-2-2v0zM12 23.333c0 1.105-0.895 2-2 2s-2-0.895-2-2c0-1.105 0.895-2 2-2v0h2zM18.667 30c0 1.105-0.895 2-2 2s-2-0.895-2-2v0-6.667c0-1.105 0.895-2 2-2s2 0.895 2 2v0zM16.667 18.667h-6.667c-1.105 0-2-0.895-2-2s0.895-2 2-2v0h6.667c1.105 0 2 0.895 2 2s-0.895 2-2 2v0zM18.667 12h-2c-1.105 0-2-0.895-2-2s0.895-2 2-2c1.105 0 2 0.895 2 2v0zM20 20.078c-0.026-0.026-0.051-0.052-0.078-0.078 0.026-0.026 0.052-0.051 0.078-0.078 0.026 0.026 0.051 0.052 0.078 0.078-0.026 0.026-0.052 0.051-0.078 0.078zM23.333 32c-1.104-0.001-1.999-0.896-2-2v-2h2c1.105 0 2 0.895 2 2s-0.895 2-2 2v0zM30 25.333h-6.667c-1.105 0-2-0.895-2-2s0.895-2 2-2v0h6.667c1.105 0 2 0.895 2 2s-0.895 2-2 2v0zM30 18.667h-2v-2c0-1.105 0.895-2 2-2s2 0.895 2 2c0 1.105-0.895 2-2 2v0z"></path>
</svg>
