<!-- Generated by IcoMoon.io -->
<svg version="1.1" xmlns="http://www.w3.org/2000/svg" width="40" height="40" viewBox="0 0 40 40">
<title>smile-squint-wink-alt</title>
<path fill="#fff" d="M16 18.667c0.736 0 1.333-0.597 1.333-1.333s-0.597-1.333-1.333-1.333c-0.736 0-1.333 0.597-1.333 1.333v0c0 0.736 0.597 1.333 1.333 1.333v0zM22.88 20.28c0.241 0.239 0.573 0.387 0.939 0.387 0.003 0 0.005 0 0.008-0h-0c0.002 0 0.005 0 0.008 0 0.366 0 0.698-0.148 0.939-0.387l-0 0c0.244-0.242 0.394-0.577 0.394-0.947s-0.151-0.705-0.394-0.947l-1.053-1.053 1.053-1.053c0.242-0.242 0.392-0.577 0.392-0.947 0-0.739-0.599-1.339-1.339-1.339-0.37 0-0.704 0.15-0.947 0.392l-2 2c-0.244 0.242-0.394 0.577-0.394 0.947s0.151 0.705 0.394 0.947l0 0zM20 6.667c-7.364 0-13.333 5.97-13.333 13.333s5.97 13.333 13.333 13.333c7.364 0 13.333-5.97 13.333-13.333v0c0-7.364-5.97-13.333-13.333-13.333v0zM20 30.667c-5.891 0-10.667-4.776-10.667-10.667s4.776-10.667 10.667-10.667c5.891 0 10.667 4.776 10.667 10.667v0c0 5.891-4.776 10.667-10.667 10.667v0zM23.147 22.973c-0.852 0.692-1.951 1.111-3.147 1.111s-2.294-0.419-3.156-1.118l0.009 0.007c-0.23-0.192-0.528-0.308-0.853-0.308-0.737 0-1.335 0.598-1.335 1.335 0 0.412 0.186 0.78 0.48 1.025l0.002 0.002c1.304 1.095 3.001 1.759 4.853 1.759s3.549-0.665 4.865-1.769l-0.012 0.010c0.295-0.247 0.482-0.615 0.482-1.027 0-0.737-0.598-1.335-1.335-1.335-0.326 0-0.624 0.116-0.855 0.31l0.002-0.002z"></path>
</svg>
