<!-- Generated by IcoMoon.io -->
<svg version="1.1" xmlns="http://www.w3.org/2000/svg" width="40" height="40" viewBox="0 0 40 40">
<title>smile-beam</title>
<path fill="#fff" d="M23.147 22.973c-0.852 0.692-1.951 1.111-3.147 1.111s-2.294-0.419-3.156-1.118l0.009 0.007c-0.23-0.192-0.528-0.308-0.853-0.308-0.737 0-1.335 0.598-1.335 1.335 0 0.412 0.186 0.78 0.48 1.025l0.002 0.002c1.304 1.095 3.001 1.759 4.853 1.759s3.549-0.665 4.865-1.769l-0.012 0.010c0.295-0.247 0.482-0.615 0.482-1.027 0-0.737-0.598-1.335-1.335-1.335-0.326 0-0.624 0.116-0.855 0.31l0.002-0.002zM16.28 18.053c0.241 0.24 0.573 0.388 0.94 0.388s0.699-0.148 0.94-0.388l-0 0c0.24-0.241 0.388-0.573 0.388-0.94s-0.148-0.699-0.388-0.94l0 0c-0.735-0.698-1.731-1.128-2.827-1.128s-2.092 0.429-2.828 1.129l0.002-0.002c-0.286 0.246-0.466 0.608-0.466 1.013 0 0.736 0.597 1.333 1.333 1.333 0.404 0 0.767-0.18 1.011-0.464l0.001-0.002c0.242-0.244 0.577-0.394 0.947-0.394s0.705 0.151 0.947 0.394l0 0zM27.493 16.173c-0.735-0.698-1.731-1.128-2.827-1.128s-2.092 0.429-2.828 1.129l0.002-0.002c-0.199 0.232-0.321 0.535-0.321 0.867 0 0.736 0.597 1.333 1.333 1.333 0.332 0 0.636-0.121 0.869-0.322l-0.002 0.001c0.242-0.244 0.577-0.394 0.947-0.394s0.705 0.151 0.947 0.394l0 0c0.241 0.24 0.573 0.388 0.94 0.388s0.699-0.148 0.94-0.388l-0 0c0.24-0.241 0.388-0.573 0.388-0.94s-0.148-0.699-0.388-0.94l0 0zM20 6.667c-7.364 0-13.333 5.97-13.333 13.333s5.97 13.333 13.333 13.333c7.364 0 13.333-5.97 13.333-13.333v0c0-7.364-5.97-13.333-13.333-13.333v0zM20 30.667c-5.891 0-10.667-4.776-10.667-10.667s4.776-10.667 10.667-10.667c5.891 0 10.667 4.776 10.667 10.667v0c0 5.891-4.776 10.667-10.667 10.667v0z"></path>
</svg>
