<!-- Generated by IcoMoon.io -->
<svg version="1.1" xmlns="http://www.w3.org/2000/svg" width="40" height="40" viewBox="0 0 40 40">
<title>store-slash</title>
<path fill="#fff" d="M15.6 9.333h12.83l2.216 5.539c-0.107 1.381-1.254 2.461-2.652 2.461-1.469 0-2.66-1.191-2.66-2.66 0-0.002 0-0.004 0-0.007v0c0-0.736-0.597-1.333-1.333-1.333s-1.333 0.597-1.333 1.333v0c0 0.008 0 0.018 0 0.028 0 0.33-0.066 0.646-0.185 0.933l0.006-0.016c-0.064 0.15-0.101 0.325-0.101 0.509 0 0.553 0.337 1.027 0.816 1.229l0.009 0.003c0.067 0.021 0.146 0.037 0.227 0.046l0.006 0c0.941 1.564 2.627 2.596 4.555 2.601h0.001v1.733c0 0.736 0.597 1.333 1.333 1.333s1.333-0.597 1.333-1.333v0-2.475c1.584-0.924 2.637-2.606 2.661-4.536l0-0.003c0.001-0.012 0.004-0.024 0.004-0.037l0.002-0.015c-0.009-0.085-0.026-0.163-0.048-0.237l0.002 0.009c-0.007-0.098-0.025-0.189-0.051-0.276l0.002 0.009-2.667-6.667c-0.202-0.495-0.68-0.838-1.238-0.838h-13.733c-0.736 0-1.333 0.597-1.333 1.333s0.597 1.333 1.333 1.333v0zM34.276 32.391l-3.911-3.911c-0.061-0.077-0.128-0.144-0.202-0.203l-0.003-0.002-13.267-13.267c-0.079-0.106-0.169-0.197-0.272-0.273l-0.003-0.002-5.709-5.709c-0.052-0.063-0.108-0.119-0.169-0.169l-0.002-0.002-3.13-3.13c-0.24-0.236-0.57-0.382-0.934-0.382-0.736 0-1.333 0.597-1.333 1.333 0 0.364 0.146 0.694 0.382 0.934l2.618 2.618-1.58 3.943c-0.022 0.073-0.039 0.159-0.046 0.247l-0 0.005c-0.023 0.071-0.040 0.154-0.049 0.239l-0 0.005 0.002 0.015 0.003 0.033c0.023 1.935 1.077 3.618 2.637 4.53l0.025 0.014v12.742c0 0.736 0.597 1.333 1.333 1.333v0h18.667c0.568-0.002 1.051-0.361 1.238-0.865l0.003-0.009 1.817 1.817c0.24 0.236 0.57 0.382 0.934 0.382 0.736 0 1.333-0.597 1.333-1.333 0-0.364-0.146-0.694-0.382-0.934l0 0zM9.354 14.872l1.038-2.595 3.835 3.835c-0.474 0.739-1.291 1.221-2.221 1.221-0.002 0-0.004 0-0.006 0h0c-1.396-0.004-2.539-1.083-2.645-2.453l-0.001-0.009zM16 24v6.667h-4v-10.667c0.004 0 0.009 0 0.013 0 1.663 0 3.146-0.768 4.115-1.968l0.008-0.010 4.645 4.645h-3.448c-0.736 0-1.333 0.597-1.333 1.333v0zM21.333 30.667h-2.667v-5.333h2.667zM28 30.667h-4v-4.781l4 4z"></path>
</svg>
