<!-- Generated by IcoMoon.io -->
<svg version="1.1" xmlns="http://www.w3.org/2000/svg" width="40" height="40" viewBox="0 0 40 40">
<title>streering</title>
<path fill="#fff" d="M20 20c-0.736 0-1.333 0.597-1.333 1.333s0.597 1.333 1.333 1.333c0.736 0 1.333-0.597 1.333-1.333v0c0-0.736-0.597-1.333-1.333-1.333v0zM32.947 16.853c-1.501-5.843-6.721-10.092-12.933-10.092s-11.433 4.249-12.913 9.999l-0.020 0.092c-0.246 0.945-0.387 2.029-0.387 3.147s0.141 2.202 0.406 3.237l-0.020-0.090c1.203 4.826 4.917 8.558 9.641 9.767l0.092 0.020c0.941 0.246 2.021 0.387 3.133 0.387s2.193-0.141 3.223-0.406l-0.089 0.020c4.813-1.218 8.529-4.934 9.727-9.654l0.020-0.092c0.246-0.945 0.387-2.029 0.387-3.147s-0.141-2.202-0.406-3.237l0.020 0.090zM20 9.333c4.446 0.004 8.255 2.727 9.854 6.596l0.026 0.071h-19.76c1.625-3.94 5.434-6.663 9.88-6.667h0zM9.333 20c0.004-0.475 0.038-0.937 0.1-1.39l-0.006 0.057h2.573v2.667h-2.573c-0.055-0.397-0.089-0.859-0.093-1.328l-0-0.005zM16 29.88c-2.683-1.107-4.773-3.197-5.854-5.809l-0.026-0.071h3.213c1.473 0 2.667 1.194 2.667 2.667v0zM21.333 30.573c-0.397 0.055-0.859 0.089-1.328 0.093l-0.005 0c-0.475-0.004-0.937-0.038-1.39-0.1l0.057 0.006v-2.573h2.667zM21.52 25.333h-3.040c-0.5-1.87-1.943-3.314-3.776-3.805l-0.037-0.009v-2.853h10.667v2.853c-1.87 0.5-3.314 1.943-3.805 3.776l-0.009 0.037zM24 29.88v-3.213c0-1.473 1.194-2.667 2.667-2.667v0h3.213c-1.107 2.683-3.197 4.773-5.809 5.854l-0.071 0.026zM30.573 21.333h-2.573v-2.667h2.573c0.055 0.397 0.089 0.859 0.093 1.328l0 0.005c-0.004 0.475-0.038 0.937-0.1 1.39l0.006-0.057z"></path>
</svg>
