<!-- Generated by IcoMoon.io -->
<svg version="1.1" xmlns="http://www.w3.org/2000/svg" width="40" height="40" viewBox="0 0 40 40">
<title>thumbs-up</title>
<path fill="#fff" d="M32.4 17.44c-0.737-0.881-1.837-1.438-3.066-1.44h-6.080l0.747-1.907c0.219-0.571 0.346-1.231 0.346-1.92 0-3.041-2.465-5.507-5.507-5.507-0.009 0-0.018 0-0.027 0h0.001c-0.537 0.001-1 0.32-1.21 0.778l-0.003 0.008-3.8 8.547h-3.133c-2.209 0-4 1.791-4 4v0 9.333c0 2.209 1.791 4 4 4v0h16.973c1.954-0.001 3.581-1.402 3.929-3.255l0.004-0.025 1.693-9.333c0.041-0.215 0.064-0.462 0.064-0.715 0-0.979-0.352-1.876-0.936-2.572l0.005 0.006zM13.333 30.667h-2.667c-0.736 0-1.333-0.597-1.333-1.333v0-9.333c0-0.736 0.597-1.333 1.333-1.333v0h2.667zM30.667 20.24l-1.693 9.333c-0.118 0.626-0.66 1.094-1.312 1.094-0.008 0-0.015-0-0.023-0h-11.639v-13.053l3.627-8.16c1.18 0.352 2.026 1.428 2.026 2.701 0 0.362-0.068 0.707-0.193 1.025l0.007-0.019-0.707 1.907c-0.107 0.277-0.169 0.598-0.169 0.933 0 1.471 1.191 2.664 2.662 2.667h6.080c0.001 0 0.001 0 0.002 0 0.411 0 0.778 0.186 1.023 0.478l0.002 0.002c0.202 0.232 0.325 0.538 0.325 0.872 0 0.078-0.007 0.154-0.020 0.229l0.001-0.008z"></path>
</svg>
