<!-- Generated by IcoMoon.io -->
<svg version="1.1" xmlns="http://www.w3.org/2000/svg" width="40" height="40" viewBox="0 0 40 40">
<title>times-circle</title>
<path fill="#fff" d="M24.947 15.053c-0.242-0.244-0.577-0.394-0.947-0.394s-0.705 0.151-0.947 0.394l-0 0-3.053 3.067-3.053-3.067c-0.242-0.242-0.577-0.392-0.947-0.392-0.739 0-1.339 0.599-1.339 1.339 0 0.37 0.15 0.704 0.392 0.947v0l3.067 3.053-3.067 3.053c-0.244 0.242-0.394 0.577-0.394 0.947s0.151 0.705 0.394 0.947l0 0c0.242 0.244 0.577 0.394 0.947 0.394s0.705-0.151 0.947-0.394l0-0 3.053-3.067 3.053 3.067c0.242 0.244 0.577 0.394 0.947 0.394s0.705-0.151 0.947-0.394l0-0c0.244-0.242 0.394-0.577 0.394-0.947s-0.151-0.705-0.394-0.947l-0-0-3.067-3.053 3.067-3.053c0.244-0.242 0.394-0.577 0.394-0.947s-0.151-0.705-0.394-0.947l-0-0zM29.427 10.573c-2.428-2.511-5.827-4.071-9.591-4.071-7.364 0-13.333 5.97-13.333 13.333 0 3.763 1.559 7.163 4.067 9.587l0.004 0.004c2.428 2.511 5.827 4.071 9.591 4.071 7.364 0 13.333-5.97 13.333-13.333 0-3.763-1.559-7.163-4.067-9.587l-0.004-0.004zM27.547 27.547c-1.931 1.933-4.599 3.128-7.547 3.128-5.891 0-10.667-4.776-10.667-10.667s4.776-10.667 10.667-10.667c5.888 0 10.662 4.771 10.667 10.658v0c0 0.011 0 0.023 0 0.036 0 2.935-1.193 5.591-3.12 7.51l-0 0z"></path>
</svg>
