<!-- Generated by IcoMoon.io -->
<svg version="1.1" xmlns="http://www.w3.org/2000/svg" width="40" height="40" viewBox="0 0 40 40">
<title>truck-loading</title>
<path fill="#fff" d="M33.333 25.333h-2.907c0.148-0.396 0.236-0.854 0.24-1.332v-6.668c0-2.209-1.791-4-4-4v0h-8c-2.209 0-4 1.791-4 4v0 6.667c0.004 0.479 0.092 0.937 0.249 1.361l-0.009-0.028h-1.573c-0.736 0-1.333-0.597-1.333-1.333v0-13.333c0-2.209-1.791-4-4-4v0h-1.333c-0.736 0-1.333 0.597-1.333 1.333s0.597 1.333 1.333 1.333v0h1.333c0.736 0 1.333 0.597 1.333 1.333v0 13.333c0.011 1.83 1.249 3.368 2.932 3.833l0.028 0.007c-0.188 0.448-0.297 0.968-0.297 1.514 0 2.209 1.791 4 4 4s4-1.791 4-4c0-0.485-0.086-0.951-0.245-1.381l0.009 0.028h4.48c-0.152 0.406-0.24 0.875-0.24 1.365 0 2.209 1.791 4 4 4s4-1.791 4-4c0-0.49-0.088-0.959-0.249-1.392l0.009 0.028h1.573c0.736 0 1.333-0.597 1.333-1.333s-0.597-1.333-1.333-1.333v0zM16 30.667c-0.736 0-1.333-0.597-1.333-1.333s0.597-1.333 1.333-1.333c0.736 0 1.333 0.597 1.333 1.333v0c0 0.736-0.597 1.333-1.333 1.333v0zM18.667 25.333c-0.736 0-1.333-0.597-1.333-1.333v0-6.667c0-0.736 0.597-1.333 1.333-1.333v0h8c0.736 0 1.333 0.597 1.333 1.333v0 6.667c0 0.736-0.597 1.333-1.333 1.333v0zM28 30.667c-0.736 0-1.333-0.597-1.333-1.333s0.597-1.333 1.333-1.333c0.736 0 1.333 0.597 1.333 1.333v0c0 0.736-0.597 1.333-1.333 1.333v0z"></path>
</svg>
