<!-- Generated by IcoMoon.io -->
<svg version="1.1" xmlns="http://www.w3.org/2000/svg" width="40" height="40" viewBox="0 0 40 40">
<title>umbrella</title>
<path fill="#fff" d="M32 18.987s0 0 0 0c-0.003-0.016-0.005-0.034-0.005-0.053s0.002-0.037 0.005-0.055l-0 0.002v-0.253c0-0.307-0.080-0.613-0.133-0.92-0.004-0.032-0.006-0.069-0.006-0.107s0.002-0.075 0.006-0.111l-0 0.004c-0.067-0.333-0.16-0.653-0.253-0.973v0c-1.185-3.744-4.072-6.635-7.729-7.803l-0.084-0.023h-0.107c-0.293-0.093-0.6-0.173-0.907-0.24h-0.24c-0.201-0.043-0.451-0.081-0.706-0.105l-0.028-0.002h-0.32v-0.347c0-0.736-0.597-1.333-1.333-1.333s-1.333 0.597-1.333 1.333v0 0.080c-0.518 0.063-0.97 0.147-1.413 0.257l0.080-0.017c-0.324 0.061-0.601 0.135-0.871 0.226l0.044-0.013h-0.173c-0.333 0.107-0.64 0.227-0.96 0.347v0c-3.329 1.343-5.865 4.050-6.95 7.409l-0.024 0.084c-0.002 0.016-0.003 0.035-0.003 0.053s0.001 0.037 0.004 0.055l-0-0.002c-0.088 0.254-0.175 0.576-0.244 0.905l-0.010 0.055v0.213q-0.107 0.48-0.16 1s0 0.093 0 0.147 0 0.080 0 0.12 0 0 0 0.067c0 0.333 0 0.667 0 1.013 0 0.736 0.597 1.333 1.333 1.333v0h9.333v8c0 0.736-0.597 1.333-1.333 1.333s-1.333-0.597-1.333-1.333v0c0-0.736-0.597-1.333-1.333-1.333s-1.333 0.597-1.333 1.333v0c0 2.209 1.791 4 4 4s4-1.791 4-4v0-8h9.333c0.736 0 1.333-0.597 1.333-1.333v0c-0.147-0.347-0.147-0.68-0.147-1.013zM14.667 18.667h-3.893s0-0.093 0-0.147 0-0.373 0.107-0.547 0-0.173 0-0.253 0.107-0.427 0.173-0.64v-0.107c0.886-2.462 2.706-4.403 5.020-5.43l0.060-0.024c-0.852 2.111-1.382 4.555-1.466 7.112l-0.001 0.034zM17.333 18.667c0.253-5.213 1.92-8 2.667-8s2.387 2.787 2.667 8zM25.333 18.667c-0.084-2.592-0.615-5.036-1.518-7.291l0.051 0.145c2.338 1.081 4.12 3.033 4.954 5.428l0.020 0.066c0.069 0.187 0.138 0.424 0.192 0.666l0.008 0.041c-0.003 0.030-0.005 0.065-0.005 0.1s0.002 0.070 0.005 0.104l-0-0.004c0 0.187 0.080 0.387 0.107 0.573s0 0.093 0 0.147z"></path>
</svg>
