<!-- Generated by IcoMoon.io -->
<svg version="1.1" xmlns="http://www.w3.org/2000/svg" width="40" height="40" viewBox="0 0 40 40">
<title>user-nurse</title>
<path fill="#fff" d="M25.566 21.222c-0.024-0.011-0.047-0.022-0.072-0.032-0.184-0.083-0.365-0.169-0.553-0.244 1.87-1.478 3.059-3.746 3.059-6.292 0-4.418-3.582-8-8-8s-8 3.582-8 8c0 2.546 1.189 4.814 3.042 6.279l0.017 0.013c-0.188 0.075-0.369 0.161-0.553 0.244-0.025 0.009-0.047 0.021-0.072 0.032-4.186 1.943-7.15 5.889-7.674 10.574l-0.005 0.060c-0.005 0.043-0.008 0.094-0.008 0.145 0 0.736 0.597 1.333 1.333 1.333 0.686 0 1.25-0.517 1.325-1.183l0.001-0.006c0.388-3.477 2.408-6.41 5.265-8.051l0.052-0.027 4.335 4.335c0.241 0.241 0.575 0.391 0.943 0.391s0.701-0.149 0.943-0.391l4.335-4.335c2.909 1.668 4.929 4.602 5.312 8.030l0.004 0.048c0.075 0.671 0.639 1.188 1.323 1.189h0c0.052-0 0.103-0.003 0.153-0.008l-0.006 0.001c0.672-0.075 1.189-0.64 1.189-1.326 0-0.051-0.003-0.101-0.008-0.151l0.001 0.006c-0.53-4.744-3.494-8.691-7.598-10.6l-0.082-0.034zM14.721 14.126c0.269-2.701 2.53-4.793 5.279-4.793s5.010 2.092 5.277 4.77l0.002 0.022zM20 25.574l-2.583-2.583c0.775-0.206 1.665-0.324 2.583-0.324s1.807 0.118 2.655 0.341l-0.073-0.016zM20 20c-2.174-0.004-4.043-1.307-4.872-3.174l-0.013-0.034h9.771c-0.842 1.901-2.711 3.204-4.885 3.208h-0z"></path>
</svg>
