<!-- Generated by IcoMoon.io -->
<svg version="1.1" xmlns="http://www.w3.org/2000/svg" width="40" height="40" viewBox="0 0 40 40">
<title>utensils-alt</title>
<path fill="#fff" d="M24.707 22.84c-0.242-0.244-0.577-0.394-0.947-0.394s-0.705 0.151-0.947 0.394l-0 0c-0.24 0.241-0.388 0.573-0.388 0.94s0.148 0.699 0.388 0.94l8.24 8.24c0.242 0.244 0.577 0.394 0.947 0.394s0.705-0.151 0.947-0.394l0-0c0.24-0.241 0.388-0.573 0.388-0.94s-0.148-0.699-0.388-0.94l0 0zM26.347 19.52c1.104-0.001 2.103-0.449 2.827-1.173l3.773-3.773c0.24-0.241 0.388-0.573 0.388-0.94s-0.148-0.699-0.388-0.94l0 0c-0.242-0.244-0.577-0.394-0.947-0.394s-0.705 0.151-0.947 0.394l-3.773 3.773c-0.241 0.24-0.573 0.388-0.94 0.388s-0.699-0.148-0.94-0.388l0 0 4.72-4.72c0.24-0.241 0.388-0.573 0.388-0.94s-0.148-0.699-0.388-0.94l0 0c-0.242-0.244-0.577-0.394-0.947-0.394s-0.705 0.151-0.947 0.394l-4.707 4.707c-0.24-0.241-0.388-0.573-0.388-0.94s0.148-0.699 0.388-0.94l-0 0 3.76-3.773c0.286-0.246 0.466-0.608 0.466-1.013 0-0.736-0.597-1.333-1.333-1.333-0.404 0-0.767 0.18-1.011 0.464l-0.001 0.002-3.773 3.773c-0.723 0.724-1.17 1.723-1.17 2.827s0.447 2.103 1.17 2.827l-0-0-1.627 1.653-2.080-2.053c0.437-0.775 0.695-1.702 0.695-2.688 0-1.56-0.644-2.969-1.68-3.977l-0.001-0.001c-1.92-1.92-6.893-4.067-9.24-1.68s-0.227 7.307 1.64 9.24c1.007 1.011 2.384 1.653 3.91 1.706l0.010 0h0.187c0.946-0.014 1.828-0.28 2.583-0.733l-0.023 0.013 2.093 2.053-11.040 11.040c-0.239 0.241-0.387 0.573-0.387 0.94 0 0.737 0.597 1.334 1.334 1.334 0.37 0 0.705-0.151 0.947-0.394l14.56-14.56c0.723 0.717 1.718 1.16 2.817 1.16 0.008 0 0.016-0 0.024-0h-0.001zM15.24 15.253c-0.465 0.462-1.106 0.748-1.814 0.748-0.033 0-0.065-0.001-0.097-0.002l0.005 0c-0.81-0.036-1.533-0.387-2.052-0.932l-0.001-0.001c-1.44-1.44-2.453-4.707-1.693-5.467 0.221-0.168 0.5-0.269 0.803-0.269 0.027 0 0.054 0.001 0.081 0.002l-0.004-0c1.776 0.146 3.361 0.864 4.594 1.967l-0.008-0.007c0.559 0.518 0.907 1.256 0.907 2.075 0 0.726-0.273 1.387-0.723 1.888l0.002-0.003z"></path>
</svg>
