<!-- Generated by IcoMoon.io -->
<svg version="1.1" xmlns="http://www.w3.org/2000/svg" width="40" height="40" viewBox="0 0 40 40">
<title>vk</title>
<path fill="#fff" d="M24.097 6.667h-8.181c-7.472 0-9.25 1.778-9.25 9.236v8.181c0 7.472 1.764 9.25 9.236 9.25h8.181c7.472 0 9.25-1.764 9.25-9.236v-8.181c0-7.472-1.764-9.25-9.236-9.25zM28.194 25.694h-1.944c-0.736 0-0.958-0.597-2.278-1.917-1.153-1.111-1.639-1.25-1.931-1.25-0.403 0-0.514 0.111-0.514 0.667v1.75c0 0.472-0.153 0.75-1.389 0.75-2.504-0.173-4.657-1.537-5.912-3.524l-0.018-0.031c-1.454-1.798-2.524-3.967-3.050-6.341l-0.019-0.103c0-0.292 0.111-0.556 0.667-0.556h1.944c0.5 0 0.681 0.222 0.875 0.736 0.944 2.778 2.556 5.194 3.208 5.194 0.25 0 0.361-0.111 0.361-0.736v-2.861c-0.083-1.306-0.778-1.417-0.778-1.889 0.019-0.25 0.226-0.445 0.479-0.445 0.007 0 0.015 0 0.022 0.001l-0.001-0h3.056c0.417 0 0.556 0.208 0.556 0.708v3.861c0 0.417 0.181 0.556 0.306 0.556 0.25 0 0.444-0.139 0.903-0.597 0.943-1.143 1.745-2.453 2.349-3.868l0.040-0.104c0.119-0.328 0.427-0.558 0.789-0.558 0.020 0 0.041 0.001 0.061 0.002l-0.003-0h1.944c0.583 0 0.708 0.292 0.583 0.708-0.773 1.714-1.646 3.188-2.657 4.551l0.046-0.065c-0.208 0.319-0.292 0.486 0 0.861 0.194 0.292 0.875 0.861 1.333 1.403 0.65 0.649 1.198 1.4 1.616 2.228l0.023 0.049c0.167 0.542-0.111 0.819-0.667 0.819z"></path>
</svg>
