<!-- Generated by IcoMoon.io -->
<svg version="1.1" xmlns="http://www.w3.org/2000/svg" width="40" height="40" viewBox="0 0 40 40">
<title>water-drop-slash</title>
<path fill="#fff" d="M32.947 31.053l-24-24c-0.242-0.242-0.577-0.392-0.947-0.392-0.739 0-1.339 0.599-1.339 1.339 0 0.37 0.15 0.704 0.392 0.947v0l5.333 5.333c-1.625 2.475-2.612 5.497-2.666 8.746l-0 0.014c0.030 5.668 4.613 10.256 10.276 10.293l0.004 0c0.013 0 0.029 0 0.045 0 3.114 0 5.901-1.397 7.77-3.599l0.012-0.015 3.227 3.227c0.242 0.244 0.577 0.394 0.947 0.394s0.705-0.151 0.947-0.394l0-0c0.244-0.242 0.394-0.577 0.394-0.947s-0.151-0.705-0.394-0.947l-0-0zM20 30.667c-4.231-0.008-7.659-3.436-7.667-7.666v-0.001c0.050-2.523 0.772-4.868 1.994-6.874l-0.034 0.061 11.653 11.64c-1.397 1.738-3.523 2.84-5.906 2.84-0.014 0-0.029-0-0.043-0h0.002zM18.467 10.987c0.6-0.56 1.133-1 1.533-1.333 1.907 1.493 6.84 5.907 7.573 11.84 0.083 0.664 0.644 1.173 1.324 1.173 0.003 0 0.007 0 0.010-0h0.159c0.662-0.084 1.169-0.645 1.169-1.323 0-0.055-0.003-0.11-0.010-0.163l0.001 0.006c-1.040-8.573-9.133-14.067-9.467-14.293-0.209-0.143-0.468-0.229-0.747-0.229s-0.537 0.085-0.751 0.232l0.005-0.003c-0.971 0.697-1.823 1.401-2.626 2.158l0.012-0.011c-0.223 0.238-0.36 0.558-0.36 0.911 0 0.736 0.597 1.333 1.333 1.333 0.319 0 0.613-0.112 0.842-0.3l-0.002 0.002z"></path>
</svg>
