<!-- Generated by IcoMoon.io -->
<svg version="1.1" xmlns="http://www.w3.org/2000/svg" width="40" height="40" viewBox="0 0 40 40">
<title>whatsapp-alt</title>
<path fill="#fff" d="M33.333 12.733c-0.017-0.625-0.065-1.22-0.143-1.806l0.009 0.086c-0.11-0.543-0.281-1.025-0.508-1.473l0.015 0.032c-0.251-0.515-0.568-0.955-0.947-1.333l-0-0c-0.381-0.374-0.821-0.69-1.303-0.933l-0.030-0.014c-0.416-0.209-0.898-0.375-1.404-0.474l-0.036-0.006c-0.502-0.079-1.091-0.132-1.691-0.146l-0.016-0h-14.547c-0.625 0.017-1.22 0.065-1.806 0.143l0.086-0.009c-0.543 0.11-1.025 0.281-1.473 0.508l0.032-0.015c-0.515 0.251-0.955 0.568-1.333 0.947l-0 0c-0.374 0.381-0.69 0.821-0.933 1.303l-0.014 0.030c-0.209 0.416-0.375 0.898-0.474 1.404l-0.006 0.036c-0.079 0.502-0.132 1.091-0.146 1.691l-0 0.016c0 0.253 0 0.613 0 0.72v13.12c0 0.147 0 0.467 0 0.707 0.017 0.625 0.065 1.22 0.143 1.806l-0.009-0.086c0.11 0.543 0.281 1.025 0.508 1.473l-0.015-0.032c0.251 0.515 0.568 0.955 0.947 1.333l0 0c0.381 0.374 0.821 0.69 1.303 0.933l0.030 0.014c0.416 0.209 0.898 0.375 1.404 0.474l0.036 0.006c0.502 0.079 1.091 0.132 1.691 0.146l0.016 0h14.547c0.625-0.017 1.22-0.065 1.806-0.143l-0.086 0.009c0.543-0.11 1.025-0.281 1.473-0.508l-0.033 0.015c0.515-0.251 0.955-0.568 1.333-0.947l0-0c0.374-0.381 0.69-0.821 0.933-1.303l0.014-0.030c0.209-0.416 0.375-0.898 0.474-1.404l0.006-0.036c0.079-0.502 0.132-1.091 0.146-1.691l0-0.016c0-0.253 0-0.573 0-0.72v-13.12c0-0.107 0-0.467 0-0.707zM20.307 29.333v0c-1.681-0.009-3.256-0.452-4.621-1.225l0.047 0.025-5.067 1.333 1.333-4.96c-0.825-1.364-1.319-3.010-1.333-4.769l-0-0.004c0.015-5.276 4.296-9.546 9.573-9.546 5.287 0 9.573 4.286 9.573 9.573 0 5.264-4.248 9.535-9.503 9.573l-0.004 0zM20.307 11.827c-4.379 0.052-7.908 3.613-7.908 7.999 0 1.544 0.437 2.986 1.195 4.208l-0.020-0.034 0.187 0.307-0.8 2.92 3.040-0.827 0.293 0.173c1.145 0.685 2.523 1.095 3.997 1.107l0.003 0c4.418 0 8-3.582 8-8v0c0-4.418-3.582-8-8-8v0zM24.973 23.187c-0.352 0.579-0.924 0.994-1.598 1.131l-0.016 0.003c-0.168 0.032-0.361 0.051-0.559 0.051-0.334 0-0.655-0.053-0.957-0.15l0.022 0.006c-0.538-0.169-0.979-0.34-1.407-0.537l0.074 0.030c-1.673-0.851-3.048-2.073-4.056-3.562l-0.024-0.038c-0.537-0.679-0.89-1.525-0.972-2.449l-0.001-0.018c-0-0.017-0.001-0.037-0.001-0.057 0-0.766 0.323-1.456 0.839-1.942l0.001-0.001c0.157-0.178 0.385-0.29 0.639-0.293h0.374c0.147 0 0.347 0 0.533 0.413s0.68 1.653 0.747 1.773c0.031 0.060 0.050 0.131 0.050 0.207s-0.018 0.147-0.051 0.209l0.001-0.002c-0.063 0.153-0.144 0.285-0.242 0.402l0.002-0.002c-0.12 0.147-0.253 0.32-0.36 0.427s-0.24 0.24-0.107 0.48c0.378 0.632 0.82 1.176 1.329 1.649l0.005 0.004c0.546 0.484 1.181 0.884 1.876 1.171l0.044 0.016c0.24 0.12 0.387 0.107 0.52 0s0.6-0.693 0.76-0.933 0.32-0.2 0.533-0.12 1.4 0.653 1.64 0.773 0.387 0.173 0.453 0.28c0.018 0.102 0.028 0.22 0.028 0.34 0 0.251-0.044 0.492-0.126 0.714l0.005-0.014z"></path>
</svg>
