<!-- Generated by IcoMoon.io -->
<svg version="1.1" xmlns="http://www.w3.org/2000/svg" width="40" height="40" viewBox="0 0 40 40">
<title>wifi-slash</title>
<path fill="#fff" d="M13.227 11.347v0l-4.28-4.293c-0.242-0.242-0.577-0.392-0.947-0.392-0.739 0-1.339 0.599-1.339 1.339 0 0.37 0.15 0.704 0.392 0.947v0l3.027 3.053c-1.603 0.921-2.986 1.977-4.216 3.189l0.002-0.002c-0.24 0.241-0.388 0.573-0.388 0.94s0.148 0.699 0.388 0.94l-0-0c0.241 0.246 0.576 0.398 0.946 0.4h0c0.364-0.002 0.694-0.149 0.933-0.387l-0 0c1.238-1.228 2.662-2.273 4.224-3.088l0.096-0.046 1.987 2.053c-1.718 0.762-3.186 1.781-4.426 3.026l-0 0c-0.282 0.246-0.459 0.605-0.459 1.006 0 0.736 0.597 1.333 1.333 1.333 0.408 0 0.772-0.183 1.017-0.471l0.002-0.002c1.258-1.252 2.798-2.221 4.517-2.802l0.083-0.024 2.16 2.147c-1.923 0.379-3.588 1.296-4.88 2.587l0-0c-0.282 0.246-0.459 0.605-0.459 1.006 0 0.736 0.597 1.333 1.333 1.333 0.408 0 0.772-0.183 1.017-0.471l0.002-0.002c1.199-1.222 2.862-1.984 4.704-2l0.003-0c0.297 0.001 0.588 0.025 0.872 0.071l-0.032-0.004 10.213 10.213c0.242 0.244 0.577 0.394 0.947 0.394s0.705-0.151 0.947-0.394l0-0c0.244-0.242 0.394-0.577 0.394-0.947s-0.151-0.705-0.394-0.947l-0-0zM20 25.333c-2.209 0-4 1.791-4 4s1.791 4 4 4c2.209 0 4-1.791 4-4v0c0-2.209-1.791-4-4-4v0zM20 30.667c-0.736 0-1.333-0.597-1.333-1.333s0.597-1.333 1.333-1.333c0.736 0 1.333 0.597 1.333 1.333v0c0 0.736-0.597 1.333-1.333 1.333v0zM34.147 15.187c-3.619-3.616-8.616-5.852-14.136-5.852-0.807 0-1.603 0.048-2.385 0.141l0.095-0.009c-0.675 0.076-1.195 0.644-1.195 1.333 0 0.741 0.601 1.341 1.341 1.341 0.052 0 0.103-0.003 0.153-0.009l-0.006 0.001c0.593-0.072 1.28-0.112 1.976-0.112 4.79 0 9.128 1.932 12.278 5.060l-0.001-0.001c0.241 0.239 0.573 0.387 0.94 0.387 0.737 0 1.334-0.597 1.334-1.334 0-0.37-0.151-0.705-0.394-0.947l-0-0zM28.48 20.84c0.233 0.203 0.539 0.327 0.875 0.327 0.736 0 1.333-0.597 1.333-1.333 0-0.329-0.119-0.63-0.316-0.862l0.002 0.002c-1.733-1.752-3.912-3.059-6.353-3.736l-0.101-0.024c-0.143-0.057-0.308-0.090-0.48-0.090-0.736 0-1.333 0.597-1.333 1.333 0 0.661 0.481 1.21 1.113 1.315l0.008 0.001c2.066 0.584 3.837 1.648 5.253 3.066l0 0z"></path>
</svg>
