<!-- Generated by IcoMoon.io -->
<svg version="1.1" xmlns="http://www.w3.org/2000/svg" width="40" height="40" viewBox="0 0 40 40">
<title>windy</title>
<path fill="#fff" d="M26.667 24c-0.422-0-0.818-0.114-1.158-0.313l0.011 0.006c-0.62-0.389-1.373-0.619-2.18-0.619s-1.56 0.231-2.197 0.629l0.017-0.010c-0.331 0.194-0.729 0.309-1.153 0.309s-0.822-0.115-1.164-0.315l0.011 0.006c-0.62-0.389-1.373-0.619-2.18-0.619s-1.56 0.231-2.197 0.629l0.017-0.010c-0.331 0.193-0.729 0.307-1.153 0.307-0.003 0-0.005 0-0.008 0h0c-0.736 0-1.333 0.597-1.333 1.333s0.597 1.333 1.333 1.333v0c0.001 0 0.003 0 0.004 0 0.933 0 1.806-0.258 2.552-0.706l-0.022 0.012c0.227-0.144 0.503-0.23 0.8-0.23s0.573 0.086 0.806 0.234l-0.006-0.004c0.725 0.433 1.599 0.689 2.533 0.689s1.808-0.256 2.556-0.702l-0.023 0.013c0.227-0.144 0.503-0.23 0.8-0.23s0.573 0.086 0.806 0.234l-0.006-0.004c0.723 0.436 1.596 0.693 2.529 0.693 0.001 0 0.003 0 0.004 0h-0c0.736 0 1.333-0.597 1.333-1.333s-0.597-1.333-1.333-1.333v0zM26.667 29.333c-0.422-0-0.818-0.114-1.158-0.313l0.011 0.006c-0.62-0.389-1.373-0.619-2.18-0.619s-1.56 0.231-2.197 0.629l0.017-0.010c-0.331 0.194-0.729 0.309-1.153 0.309s-0.822-0.115-1.164-0.315l0.011 0.006c-0.62-0.389-1.373-0.619-2.18-0.619s-1.56 0.231-2.197 0.629l0.017-0.010c-0.331 0.193-0.729 0.307-1.153 0.307-0.003 0-0.005 0-0.008 0h0c-0.736 0-1.333 0.597-1.333 1.333s0.597 1.333 1.333 1.333v0c0.001 0 0.003 0 0.004 0 0.933 0 1.806-0.258 2.552-0.706l-0.022 0.013c0.227-0.144 0.503-0.23 0.8-0.23s0.573 0.086 0.806 0.234l-0.006-0.004c0.725 0.433 1.599 0.689 2.533 0.689s1.808-0.256 2.556-0.702l-0.023 0.013c0.227-0.144 0.503-0.23 0.8-0.23s0.573 0.086 0.806 0.234l-0.006-0.004c0.723 0.436 1.596 0.693 2.529 0.693 0.001 0 0.003 0 0.004 0h-0c0.736 0 1.333-0.597 1.333-1.333s-0.597-1.333-1.333-1.333v0zM28.56 13.613c-1.476-3.327-4.75-5.606-8.557-5.606-4.734 0-8.644 3.524-9.251 8.092l-0.005 0.048c-2.359 0.585-4.080 2.683-4.080 5.184 0 0.001 0 0.002 0 0.003v-0c-0 0.005-0 0.011-0 0.017 0 1.581 0.688 3.002 1.781 3.979l0.005 0.005c0.233 0.207 0.542 0.333 0.88 0.333h0c0.4-0.004 0.757-0.184 0.999-0.465l0.001-0.002c0.206-0.234 0.332-0.542 0.332-0.88 0-0.398-0.174-0.755-0.45-0.999l-0.001-0.001c-0.541-0.474-0.88-1.166-0.88-1.938 0-0.017 0-0.034 0.001-0.051l-0 0.003c0-1.473 1.194-2.667 2.667-2.667v0c0.736 0 1.333-0.597 1.333-1.333v0c0.008-3.676 2.99-6.652 6.667-6.652 2.908 0 5.381 1.862 6.292 4.459l0.014 0.047c0.161 0.458 0.553 0.796 1.032 0.879l0.008 0.001c1.895 0.336 3.316 1.968 3.32 3.933v0c0 0.021 0.001 0.046 0.001 0.071 0 0.998-0.374 1.909-0.991 2.6l0.003-0.004c-0.269 0.245-0.437 0.596-0.437 0.987 0 0.736 0.597 1.333 1.333 1.333 0.441 0 0.831-0.214 1.074-0.543l0.003-0.004c1.042-1.155 1.68-2.693 1.68-4.379 0-0.021-0-0.043-0-0.064l0 0.003c-0.003-3.005-1.992-5.544-4.726-6.374l-0.047-0.012z"></path>
</svg>
