<!-- Generated by IcoMoon.io -->
<svg version="1.1" xmlns="http://www.w3.org/2000/svg" width="40" height="40" viewBox="0 0 40 40">
<title>wordpress</title>
<path fill="#fff" d="M8.889 20c-0.001 4.258 2.432 8.141 6.262 10l-5.3-14.521c-0.635 1.423-0.963 2.964-0.962 4.522zM20.195 20.972l-3.334 9.687c2.239 0.659 4.628 0.597 6.829-0.177-0.031-0.049-0.058-0.1-0.080-0.153l-3.415-9.357zM27.501 19.439c-0.015-1.087-0.332-2.148-0.916-3.064-0.597-0.751-0.975-1.653-1.091-2.606-0.027-1.059 0.807-1.94 1.866-1.972 0.049 0 0.096 0.006 0.144 0.009-4.524-4.144-11.551-3.836-15.695 0.688-0.401 0.438-0.766 0.907-1.092 1.403 0.261 0.008 0.507 0.014 0.715 0.014 1.162 0 2.961-0.141 2.961-0.141 0.253-0.015 0.47 0.179 0.485 0.432 0.014 0.246-0.169 0.46-0.414 0.484 0 0-0.602 0.070-1.271 0.106l4.046 12.035 2.432-7.292-1.731-4.743c-0.599-0.035-1.165-0.106-1.165-0.106-0.252-0.024-0.437-0.249-0.413-0.501 0.024-0.246 0.237-0.429 0.484-0.414 0 0 1.834 0.141 2.926 0.141 1.162 0 2.962-0.141 2.962-0.141 0.253-0.015 0.471 0.178 0.485 0.432 0.014 0.247-0.169 0.46-0.415 0.484 0 0-0.603 0.070-1.271 0.106l4.015 11.944 1.146-3.632c0.448-1.175 0.72-2.409 0.808-3.663zM29.825 15.812c-0.019 1.369-0.306 2.721-0.845 3.98l-3.394 9.812c5.205-3.028 7.051-9.65 4.164-14.934 0.051 0.379 0.076 0.76 0.075 1.142zM20 6.667c-7.364 0-13.333 5.97-13.333 13.333s5.97 13.333 13.333 13.333 13.333-5.97 13.333-13.333-5.97-13.333-13.333-13.333zM24.878 31.549c-3.902 1.651-8.374 1.217-11.885-1.155-2.015-1.361-3.593-3.276-4.542-5.515-1.652-3.902-1.217-8.375 1.156-11.885 1.36-2.015 3.276-3.593 5.515-4.542 3.902-1.651 8.374-1.217 11.885 1.155 2.015 1.361 3.593 3.276 4.542 5.515 1.652 3.902 1.217 8.375-1.156 11.885-1.36 2.015-3.276 3.593-5.515 4.542z"></path>
</svg>
