<!-- Generated by IcoMoon.io -->
<svg version="1.1" xmlns="http://www.w3.org/2000/svg" width="40" height="40" viewBox="0 0 40 40">
<title>x-add</title>
<path fill="#fff" d="M23.613 13.72c-0.242-0.244-0.577-0.394-0.947-0.394s-0.705 0.151-0.947 0.394l-0 0-3.053 3.067-3.053-3.067c-0.242-0.242-0.577-0.392-0.947-0.392-0.739 0-1.339 0.599-1.339 1.339 0 0.37 0.15 0.704 0.392 0.947v0l3.067 3.053-3.067 3.053c-0.244 0.242-0.394 0.577-0.394 0.947s0.151 0.705 0.394 0.947l0 0c0.242 0.244 0.577 0.394 0.947 0.394s0.705-0.151 0.947-0.394l0-0 3.053-3.067 3.053 3.067c0.242 0.244 0.577 0.394 0.947 0.394s0.705-0.151 0.947-0.394l0-0c0.244-0.242 0.394-0.577 0.394-0.947s-0.151-0.705-0.394-0.947l-0-0-3.067-3.053 3.067-3.053c0.244-0.242 0.394-0.577 0.394-0.947s-0.151-0.705-0.394-0.947l-0-0zM13.333 28c-2.209 0-4-1.791-4-4v0-10.667c0-2.209 1.791-4 4-4v0c0.736 0 1.333-0.597 1.333-1.333s-0.597-1.333-1.333-1.333v0c-3.682 0-6.667 2.985-6.667 6.667v0 10.667c0 3.682 2.985 6.667 6.667 6.667v0c0.736 0 1.333-0.597 1.333-1.333s-0.597-1.333-1.333-1.333v0zM28 13.333v8c0 0.736 0.597 1.333 1.333 1.333s1.333-0.597 1.333-1.333v0-8c0-3.682-2.985-6.667-6.667-6.667v0c-0.736 0-1.333 0.597-1.333 1.333s0.597 1.333 1.333 1.333v0c2.209 0 4 1.791 4 4v0zM32 28h-1.333v-1.333c0-0.736-0.597-1.333-1.333-1.333s-1.333 0.597-1.333 1.333v0 1.333h-1.333c-0.736 0-1.333 0.597-1.333 1.333s0.597 1.333 1.333 1.333v0h1.333v1.333c0 0.736 0.597 1.333 1.333 1.333s1.333-0.597 1.333-1.333v0-1.333h1.333c0.736 0 1.333-0.597 1.333-1.333s-0.597-1.333-1.333-1.333v0z"></path>
</svg>
