<!-- Generated by IcoMoon.io -->
<svg version="1.1" xmlns="http://www.w3.org/2000/svg" width="32" height="32" viewBox="0 0 32 32">
<title>as--1</title>
<path fill="#91908d" d="M23.2 21.6c-3.088 0-5.6-2.512-5.6-5.6s2.512-5.6 5.6-5.6c3.088 0 5.6 2.512 5.6 5.6s-2.512 5.6-5.6 5.6zM8.8 21.6c-3.088 0-5.6-2.512-5.6-5.6s2.512-5.6 5.6-5.6c3.088 0 5.6 2.512 5.6 5.6s-2.512 5.6-5.6 5.6zM23.2 7.2c-2.979 0-5.608 1.485-7.2 3.75-1.592-2.266-4.221-3.75-7.2-3.75-4.861 0-8.8 3.939-8.8 8.8s3.939 8.8 8.8 8.8c2.979 0 5.608-1.485 7.2-3.75 1.592 2.266 4.221 3.75 7.2 3.75 4.861 0 8.8-3.939 8.8-8.8s-3.939-8.8-8.8-8.8z"></path>
</svg>
