<!-- Generated by IcoMoon.io -->
<svg version="1.1" xmlns="http://www.w3.org/2000/svg" width="32" height="32" viewBox="0 0 32 32">
<title>as--</title>
<path fill="#91908d" d="M32 16c0 4.861-3.939 8.8-8.8 8.8-2.389 0-4.552-0.955-6.138-2.501 0.702-0.922 1.21-1.834 1.608-3.035 1.018 1.41 2.662 2.336 4.53 2.336 3.088 0 5.6-2.512 5.6-5.6s-2.512-5.6-5.6-5.6c-1.867 0-3.512 0.926-4.531 2.336-2.027 2.806-0.046 4.584-2.669 8.314-1.614 2.298-4.259 3.75-7.2 3.75-4.861 0-8.8-3.939-8.8-8.8s3.939-8.8 8.8-8.8c2.389 0 4.552 0.955 6.138 2.501-0.702 0.922-1.21 1.834-1.606 3.035-1.019-1.41-2.664-2.336-4.531-2.336-3.088 0-5.6 2.512-5.6 5.6s2.512 5.6 5.6 5.6c3.146 0 5.6-2.621 5.6-5.6 0-4.885 3.978-8.8 8.8-8.8 4.861 0 8.8 3.939 8.8 8.8z"></path>
</svg>
