<!-- Generated by IcoMoon.io -->
<svg version="1.1" xmlns="http://www.w3.org/2000/svg" width="32" height="32" viewBox="0 0 32 32">
<title>as-arrow_all-9</title>
<path fill="#91908d" d="M19.2 17.6c0 0.882-0.715 1.597-1.597 1.597h-3.206c-0.882 0-1.597-0.715-1.597-1.597v-3.205c0-0.883 0.715-1.598 1.597-1.598h3.206c0.882 0 1.597 0.715 1.597 1.598v3.205zM30.4 23.979c-0.883 0-1.6 0.715-1.6 1.6v0.958l-6.522-6.522c0.235-0.877 0.149-7.496 0.006-8.037l6.515-6.515v0.96c0 0.883 0.717 1.6 1.6 1.6s1.6-0.717 1.6-1.6l-0.008-3.222c-0.003-1.762-1.43-3.189-3.192-3.192l-3.222-0.008c-0.883 0-1.6 0.714-1.6 1.598 0 0.883 0.717 1.597 1.6 1.597h0.96l-6.518 6.518c-0.517-0.136-7.166-0.229-8.038 0l-6.517-6.518h0.96c0.883 0 1.6-0.714 1.6-1.597s-0.718-1.6-1.602-1.6l-3.222 0.008c-1.762 0.003-3.19 1.43-3.194 3.194l-0.006 3.221c0 0.885 0.717 1.602 1.6 1.602s1.6-0.715 1.6-1.6v-0.958l6.515 6.515c-0.131 0.499-0.23 7.149 0.006 8.035l-6.522 6.523v-0.96c0-0.883-0.717-1.6-1.6-1.6s-1.6 0.717-1.6 1.6l0.008 3.222c0.003 1.762 1.43 3.189 3.192 3.192l3.222 0.008c0.883 0 1.6-0.718 1.6-1.602 0-0.885-0.717-1.603-1.6-1.603h-0.96l6.52-6.52c0.515 0.139 7.163 0.234 8.035 0.002l6.518 6.518h-0.96c-0.883 0-1.6 0.718-1.6 1.602s0.718 1.603 1.602 1.603l3.222-0.006c1.763-0.003 3.19-1.432 3.194-3.194l0.006-3.222c0-0.883-0.717-1.6-1.6-1.6z"></path>
</svg>
