<!-- Generated by IcoMoon.io -->
<svg version="1.1" xmlns="http://www.w3.org/2000/svg" width="32" height="32" viewBox="0 0 32 32">
<title>as-arrow_right_left-</title>
<path fill="#91908d" d="M8.243 27.717l-2.259-2.368c-0.483-0.511-0.122-1.334 0.581-1.334h23.835c0.883 0 1.6-0.735 1.6-1.619v0.010c0-0.885-0.717-1.593-1.6-1.593h-23.811c-0.706 0-1.066-0.866-0.576-1.374l2.246-2.336c0.608-0.639 0.581-1.656-0.064-2.258l-0.003-0.006c-0.637-0.597-1.635-0.567-2.235 0.069l-5.083 5.344c-1.17 1.238-1.163 3.175 0.011 4.408l5.038 5.248c0.598 0.628 1.589 0.658 2.224 0.067l0.016-0.016c0.643-0.597 0.678-1.603 0.080-2.243zM23.837 2.040l0.016-0.016c0.635-0.591 1.626-0.56 2.224 0.067l5.038 5.248c1.176 1.233 1.181 3.17 0.013 4.409l-5.085 5.344c-0.598 0.634-1.597 0.666-2.234 0.070l-0.005-0.005c-0.645-0.602-0.672-1.616-0.062-2.253l2.245-2.334c0.49-0.509 0.13-1.366-0.576-1.366h-23.811c-0.883 0-1.6-0.708-1.6-1.593v-0.003c0-0.884 0.717-1.606 1.6-1.606h23.835c0.702 0 1.064-0.833 0.581-1.343l-2.259-2.382c-0.598-0.64-0.563-1.641 0.080-2.238z"></path>
</svg>
