<!-- Generated by IcoMoon.io -->
<svg version="1.1" xmlns="http://www.w3.org/2000/svg" width="32" height="32" viewBox="0 0 32 32">
<title>as-arrow_all-4</title>
<path fill="#91908d" d="M18.262 18.264c-1.248 1.248-3.278 1.248-4.525 0-1.248-1.248-1.248-3.278 0-4.525 1.246-1.248 3.277-1.248 4.525 0 1.248 1.246 1.248 3.277 0 4.525zM30.4 23.979c-0.885 0-1.6 0.715-1.6 1.598v0.958l-7.302-7.301c1.174-1.995 1.174-4.472 0-6.469l7.302-7.302v0.958c0 0.885 0.715 1.6 1.6 1.6 0.883 0 1.6-0.715 1.6-1.6l-0.008-3.221c-0.003-1.762-1.43-3.189-3.192-3.194l-3.222-0.006c-0.883 0-1.6 0.715-1.6 1.6 0 0.883 0.717 1.6 1.6 1.6h0.96l-7.304 7.302c-1.995-1.174-4.472-1.174-6.469 0l-7.301-7.302h0.96c0.883 0 1.6-0.715 1.6-1.6 0-0.883-0.718-1.602-1.603-1.602l-3.221 0.008c-1.763 0.003-3.19 1.43-3.194 3.194l-0.006 3.221c0 0.885 0.717 1.602 1.6 1.602s1.6-0.715 1.6-1.6v-0.958l7.302 7.301c-1.174 1.997-1.174 4.474 0 6.469l-7.302 7.304v-0.96c0-0.883-0.717-1.6-1.6-1.6s-1.6 0.717-1.6 1.6l0.006 3.222c0.005 1.762 1.432 3.189 3.194 3.192l3.221 0.008c0.885 0 1.6-0.717 1.6-1.6 0-0.885-0.715-1.6-1.6-1.6h-0.958l7.302-7.304c1.997 1.174 4.474 1.176 6.469 0.002l7.301 7.302h-0.958c-0.883 0-1.6 0.715-1.6 1.598s0.718 1.602 1.602 1.602l3.222-0.006c1.762-0.003 3.19-1.432 3.194-3.194l0.006-3.222c0-0.883-0.717-1.6-1.6-1.6z"></path>
</svg>
