<!-- Generated by IcoMoon.io -->
<svg version="1.1" xmlns="http://www.w3.org/2000/svg" width="32" height="32" viewBox="0 0 32 32">
<title>as-arrow_up-3</title>
<path fill="#91908d" d="M13.151 1.504l-12.684 12.705c-0.623 0.624-0.623 1.637 0 2.262 0.625 0.624 1.636 0.624 2.26 0l10.287-10.305c0.503-0.504 1.363-0.147 1.363 0.566v23.668c0 0.883 0.728 1.6 1.612 1.6h0.005c0.883 0 1.578-0.717 1.578-1.6v-23.668c0-0.714 0.861-1.070 1.364-0.566l10.338 10.355c0.623 0.625 1.636 0.625 2.259 0 0.625-0.624 0.625-1.638 0-2.262l-13.297-13.321c-1.248-1.25-3.27-1.25-4.517 0l-0.565 0.566z"></path>
</svg>
