<!-- Generated by IcoMoon.io -->
<svg version="1.1" xmlns="http://www.w3.org/2000/svg" width="26" height="32" viewBox="0 0 26 32">
<title>as-attachment-</title>
<path fill="#91908d" d="M25.448 14.314l-7.544 15.838c-0.756 1.602-2.682 2.294-4.302 1.547l-11.734-5.41c-1.62-0.747-2.321-2.651-1.565-4.253l9.596-20.189c0.754-1.602 2.68-2.294 4.302-1.547l7.333 3.381c1.62 0.747 2.321 2.651 1.565 4.253l-6.859 14.389c-0.756 1.602-2.682 2.294-4.302 1.547l-2.933-1.352c-1.622-0.747-2.322-2.651-1.567-4.253l4.807-10.038c0.379-0.802 1.342-1.147 2.151-0.774 0.811 0.374 1.16 1.326 0.783 2.126l-4.122 8.589c-0.379 0.8-0.028 1.752 0.782 2.126 0.811 0.373 1.774 0.027 2.151-0.774l5.491-11.486c0.377-0.802 0.028-1.755-0.783-2.128l-4.401-2.029c-0.809-0.373-1.772-0.027-2.149 0.774l-8.225 17.282c-0.38 0.805-0.028 1.76 0.787 2.136l8.786 4.051c0.814 0.374 1.782 0.027 2.161-0.778l6.856-14.381c0.379-0.802 1.342-1.147 2.151-0.774 0.811 0.373 1.16 1.326 0.783 2.126z"></path>
</svg>
