<!-- Generated by IcoMoon.io -->
<svg version="1.1" xmlns="http://www.w3.org/2000/svg" width="32" height="32" viewBox="0 0 32 32">
<title>as-arrow_all-7</title>
<path fill="#91908d" d="M19.2 17.603c0 0.882-0.715 1.597-1.597 1.597h-3.206c-0.882 0-1.597-0.715-1.597-1.597v-3.205c0-0.883 0.715-1.598 1.597-1.598h3.206c0.882 0 1.597 0.715 1.597 1.598v3.205zM31.067 13.742l-2.273-2.283c-0.624-0.624-1.638-0.624-2.264 0-0.624 0.626-0.626 1.638 0 2.262l0.677 0.678h-4.806v-1.6c0-1.766-1.432-3.2-3.2-3.2h-1.6v-4.81l0.678 0.678c0.624 0.624 1.639 0.624 2.263 0 0.626-0.626 0.626-1.638 0-2.262l-2.283-2.274c-1.248-1.243-3.267-1.243-4.515 0l-2.283 2.274c-0.626 0.624-0.626 1.637 0 2.262 0.624 0.624 1.638 0.624 2.262 0l0.678-0.678v4.81h-1.6c-1.768 0-3.2 1.434-3.2 3.2v1.6h-4.806l0.678-0.678c0.624-0.624 0.624-1.637 0-2.262-0.626-0.624-1.64-0.624-2.266 0l-2.274 2.283c-1.243 1.248-1.243 3.267 0 4.517l2.274 2.282c0.626 0.626 1.64 0.626 2.264 0 0.626-0.624 0.626-1.637 0-2.263l-0.677-0.678h4.806v1.6c0 1.768 1.432 3.2 3.2 3.2h1.6v4.811l-0.678-0.678c-0.624-0.624-1.638-0.624-2.262 0-0.626 0.626-0.626 1.638 0 2.262l2.283 2.274c1.248 1.243 3.267 1.243 4.515 0l2.283-2.274c0.626-0.624 0.626-1.637 0-2.262-0.624-0.624-1.638-0.624-2.263 0l-0.678 0.678v-4.811h1.6c1.768 0 3.2-1.432 3.2-3.2v-1.6h4.806l-0.678 0.678c-0.624 0.626-0.624 1.639 0 2.263 0.626 0.626 1.642 0.626 2.266 0l2.273-2.282c1.243-1.25 1.243-3.269 0-4.517z"></path>
</svg>
