<!-- Generated by IcoMoon.io -->
<svg version="1.1" xmlns="http://www.w3.org/2000/svg" width="32" height="32" viewBox="0 0 32 32">
<title>as-arrow_left_up_circle-</title>
<path fill="#91908d" d="M27.865 23.328c1.247 1.247 1.247 3.275 0 4.521-1.248 1.247-3.277 1.247-4.523 0-1.247-1.245-1.247-3.274 0-4.521 1.246-1.247 3.275-1.247 4.523 0zM3.194 0.002c-1.761 0.003-3.186 1.429-3.189 3.187l-0.005 3.219c-0.002 0.884 0.715 1.6 1.598 1.602 0.884 0 1.601-0.716 1.601-1.598v-0.957l16.91 16.904c-1.682 2.858-0.984 6.73 2.168 8.701 2.002 1.253 4.644 1.255 6.646 0.005 3.651-2.28 4.052-7.147 1.203-9.995-2.105-2.105-5.303-2.411-7.756-0.969l-16.91-16.902h0.958c0.883 0 1.578-0.707 1.578-1.589v-0.008c0-0.882-0.708-1.602-1.591-1.6l-3.211 0.002z"></path>
</svg>
