<!-- Generated by IcoMoon.io -->
<svg version="1.1" xmlns="http://www.w3.org/2000/svg" width="32" height="32" viewBox="0 0 32 32">
<title>as-adobe_cloud-</title>
<path fill="#91908d" d="M13.287 25.716c-0.33-0.311-1.564-1.495-2.14-2.060-0.128-0.125-0.247-0.187-0.428-0.182-5.274 0.13-7.234-4.425-5.988-7.712 0.955-2.52 3.601-4.054 6.209-3.58 2.189 0.396 2.737 1.27 6.162 4.786 0.947 0.974 2.513-0.482 1.516-1.508-1.090-1.12-2.154-2.271-3.287-3.344-2.2-2.084-4.794-2.704-7.661-1.817-3.858 1.19-6.116 5.236-5.234 9.229 0.803 3.639 3.935 6.191 7.6 6.195 0.271 0 2.979 0.006 3.25-0.008zM14.079 8.518c0.019 0.026 0.024 0.037 0.032 0.042 0.66 0.329 1.287 0.718 1.883 1.156 0.037 0.028 0.13 0.016 0.176-0.013 3.265-2.102 7.464-1.377 9.839 1.721 2.481 3.232 1.726 7.307-0.327 9.608-3.13 3.507-7.975 3.144-10.69 0.358-1.466-1.504-2.942-2.999-4.412-4.5-1.156-1.177-2.648 0.466-1.604 1.509 5.228 5.211 6.101 6.766 9.808 7.266 3.269 0.438 6.521-0.729 8.755-3.468 3.069-3.769 2.816-9.169-0.148-12.55-3.85-4.391-9.723-4.187-13.313-1.13zM32 15.455c0 6.427-3.862 11.715-11.259 12.542-0.811 0-10.638 0.016-11.432-0.031-9.89-0.633-13.084-14.584-3.723-19.342 1.705-0.868 3.712-1.234 5.917-0.934 0.061 0.010 0.147-0.018 0.191-0.062 6.568-6.816 19.076-3.927 20.306 7.827z"></path>
</svg>
