<!-- Generated by IcoMoon.io -->
<svg version="1.1" xmlns="http://www.w3.org/2000/svg" width="32" height="32" viewBox="0 0 32 32">
<title>as-arrow_infinity-</title>
<path fill="#91908d" d="M32 15.015c0-4.759-3.939-8.616-8.8-8.616-4.832 0-8.8 3.847-8.8 8.616 0 2.917-2.454 5.483-5.6 5.483-3.088 0-5.6-2.459-5.6-5.483s2.512-5.483 5.6-5.483c1.867 0 3.512 0.907 4.531 2.287 0.397-1.176 0.904-2.069 1.606-2.972-1.586-1.513-3.749-2.448-6.138-2.448-4.861 0-8.8 3.857-8.8 8.616s3.939 8.616 8.8 8.616c4.832 0 8.8-3.847 8.8-8.616 0-2.925 2.461-5.483 5.6-5.483 3.088 0 5.6 2.459 5.6 5.483 0 1.88-0.973 3.54-2.45 4.527l-1.058-2.732-4.285 6.612 7.685 2.177-1.189-3.073c2.682-1.477 4.496-4.284 4.496-7.511z"></path>
</svg>
