<!-- Generated by IcoMoon.io -->
<svg version="1.1" xmlns="http://www.w3.org/2000/svg" width="26" height="32" viewBox="0 0 26 32">
<title>as-aliens-</title>
<path fill="#91908d" d="M12.8 28.8c-5.494 0-9.6-2.534-9.6-4.8 0-1.046 0.883-2.147 2.366-3.032 1.274 2.73 4.024 4.632 7.234 4.632s5.96-1.902 7.234-4.632c1.483 0.885 2.366 1.986 2.366 3.032 0 2.266-4.106 4.8-9.6 4.8zM12.8 12.8c3.47 0 5.926 3.678 4.267 6.952-0.792 1.563-2.398 2.648-4.267 2.648s-3.475-1.085-4.267-2.648c-1.653-3.262 0.786-6.952 4.267-6.952zM20.784 17.754c0.002-0.053 0.016-0.101 0.016-0.154 0-3.87-2.749-7.098-6.4-7.838v-3.805c0.952-0.555 1.6-1.576 1.6-2.757 0-1.768-1.432-3.2-3.2-3.2s-3.2 1.432-3.2 3.2c0 1.181 0.648 2.202 1.6 2.757v3.805c-3.651 0.741-6.4 3.968-6.4 7.838 0 0.053 0.014 0.101 0.016 0.154-2.933 1.466-4.816 3.717-4.816 6.246 0 4.418 5.731 8 12.8 8s12.8-3.582 12.8-8c0-2.53-1.883-4.781-4.816-6.246z"></path>
</svg>
