<!-- Generated by IcoMoon.io -->
<svg version="1.1" xmlns="http://www.w3.org/2000/svg" width="32" height="32" viewBox="0 0 32 32">
<title>as-arrow_all-6</title>
<path fill="#91908d" d="M16 19.2c-1.765 0-3.2-1.435-3.2-3.2s1.435-3.2 3.2-3.2c1.765 0 3.2 1.435 3.2 3.2s-1.435 3.2-3.2 3.2zM32 15.984l-5.658-5.656-2.262 2.262 1.81 1.81h-3.715c-0.581-1.6-2.333-3.994-4.574-4.574v-3.715l1.81 1.81 2.262-2.262-5.656-5.658-0.016 0.016-0.016-0.016-5.656 5.658 2.262 2.262 1.81-1.81v3.715c-2.242 0.581-3.994 2.974-4.574 4.574h-3.715l1.81-1.81-2.262-2.262-5.658 5.656 0.016 0.016-0.016 0.016 5.658 5.656 2.262-2.262-1.81-1.81h3.715c0.581 1.6 2.333 3.994 4.574 4.574v3.715l-1.81-1.81-2.262 2.262 5.656 5.658 0.016-0.016 0.016 0.016 5.656-5.658-2.262-2.262-1.81 1.81v-3.715c2.242-0.581 3.994-2.974 4.574-4.574h3.715l-1.81 1.81 2.262 2.262 5.658-5.656-0.016-0.016 0.016-0.016z"></path>
</svg>
