<!-- Generated by IcoMoon.io -->
<svg version="1.1" xmlns="http://www.w3.org/2000/svg" width="32" height="32" viewBox="0 0 32 32">
<title>as-bag_close_round-</title>
<path fill="#91908d" d="M31.562 29.402c0.584 0.583 0.584 1.528 0 2.11-1.158 1.158-2.083 0.030-3.169-1.055l-1.056 1.055c-0.584 0.583-1.53 0.583-2.114 0-1.158-1.158-0.030-2.080 1.056-3.165l-1.056-1.055c-0.583-0.583-0.583-1.528 0-2.11 1.16-1.158 2.083-0.031 3.171 1.055l1.056-1.055c0.583-0.583 1.529-0.583 2.113 0 0.584 0.582 0.584 1.526 0 2.11l-1.056 1.055 1.056 1.055zM19.427 8.952h-8.966v-1.492c0-2.468 2.010-4.476 4.483-4.476 2.472 0 4.483 1.492 4.483 4.476v1.492zM26.133 21.511c0.665-0.391 1.433-0.624 2.259-0.624 0.23 0 0.456 0.022 0.678 0.055l-1.349-9.429c-0.211-1.47-1.472-2.562-2.959-2.562h-2.347v-1.492c0-4.476-3.353-7.46-7.472-7.46-4.12 0-7.471 3.347-7.471 7.46v1.492h-1.892c-1.487 0-3.204 1.092-3.414 2.562l-2.135 14.92c-0.257 1.798 1.14 3.406 2.959 3.406h18.192c-0.166 0-0.26-0.968-0.26-1.492s0.094-1.492 0.26-1.492h-16.469c-0.909 0-1.608-0.804-1.479-1.704l1.708-11.936c0.105-0.734 0.735-1.28 1.479-1.28h1.052v2.984c0 0.824 0.668 1.492 1.494 1.492 0.825 0 1.494-0.668 1.494-1.492v-2.984h8.966v2.984c0 0.824 0.668 1.492 1.494 1.492 0.825 0 1.494-0.668 1.494-1.492v-2.984h1.050c0.744 0 1.375 0.546 1.479 1.28l1.188 8.295z"></path>
</svg>
