<!-- Generated by IcoMoon.io -->
<svg version="1.1" xmlns="http://www.w3.org/2000/svg" width="32" height="32" viewBox="0 0 32 32">
<title>as-bag_circle_play_round-</title>
<path fill="#91908d" d="M11.929 13.645l5.447 3.385c0.434 0.264 0.434 0.893 0 1.155l-5.447 3.386c-0.453 0.275-1.036-0.050-1.036-0.578v-6.77c0-0.53 0.583-0.855 1.036-0.578zM17.702 8.127h-8.17v-1.354c0-2.24 1.833-4.064 4.085-4.064 2.254 0 4.085 1.354 4.085 4.064v1.354zM22.732 11.998l1 6.965c0.839-0.307 1.739-0.485 2.68-0.501l-1.151-8.009c-0.192-1.334-1.34-2.326-2.696-2.326h-2.139v-1.354c0-4.064-3.054-6.772-6.809-6.772s-6.809 3.038-6.809 6.772v1.354h-1.723c-1.355 0-2.921 0.992-3.113 2.326l-1.945 13.545c-0.234 1.632 1.039 3.092 2.696 3.092h15.684c-0.010 0-0.026-0.337-0.026-0.508 0-0.764 0.114-0.847 0.312-2.201h-14.4c-0.829 0-1.465-0.73-1.348-1.547l1.556-10.836c0.095-0.666 0.67-1.162 1.348-1.162h0.957v2.709c0 0.748 0.61 1.355 1.362 1.355 0.753 0 1.362-0.607 1.362-1.355v-2.709h8.17v2.709c0 0.748 0.61 1.355 1.362 1.355 0.753 0 1.362-0.607 1.362-1.355v-2.709h0.959c0.678 0 1.253 0.496 1.348 1.162zM26.553 29.291c-1.502 0-2.723-1.215-2.723-2.709s1.221-2.709 2.723-2.709c1.502 0 2.723 1.215 2.723 2.709s-1.221 2.709-2.723 2.709zM26.553 21.164c-3.008 0-5.447 2.426-5.447 5.418s2.439 5.418 5.447 5.418c3.008 0 5.447-2.426 5.447-5.418s-2.439-5.418-5.447-5.418z"></path>
</svg>
