<!-- Generated by IcoMoon.io -->
<svg version="1.1" xmlns="http://www.w3.org/2000/svg" width="32" height="32" viewBox="0 0 32 32">
<title>as-cloud_message-1</title>
<path fill="#91908d" d="M23.862 20.424h-5.31c-0.824 0-1.618 0.325-2.213 0.908l-5.384 5.267c-0.509 0.499-1.354 0.129-1.354-0.59v-3.949c0-0.903-0.717-1.635-1.6-1.635-1.6 0-4.195 0.108-4.733-2.592-0.589-2.966 2.757-5.143 5.112-3.228-3.283-11.053 13.307-14.883 15.461-3.975 0.027 0 0.053-0.005 0.080-0.008 0.026-0.005 0.053-0.008 0.080-0.008 6.192 0 6.539 9.812-0.139 9.812zM26.314 7.729c-0.010-0.002-0.016-0.007-0.022-0.011-0.006-0.007-0.011-0.013-0.014-0.021-1.731-4.075-5.693-6.896-10.277-6.896-5.696 0-10.387 4.348-11.098 9.97-0.002 0.013-0.006 0.025-0.014 0.033-0.008 0.010-0.019 0.016-0.030 0.020-3.048 0.774-5.238 3.758-4.803 7.2 0.362 2.855 2.656 5.122 5.624 5.571 0.406 0.061 0.722 0.391 0.722 0.811v3.518c0 2.912 3.446 4.373 5.462 2.312l5.931-6.062c0.301-0.308 0.707-0.479 1.131-0.479h4.707c4.218 0 7.981-3.169 8.338-7.465 0.328-3.941-2.11-7.398-5.656-8.5z"></path>
</svg>
