<!-- Generated by IcoMoon.io -->
<svg version="1.1" xmlns="http://www.w3.org/2000/svg" width="32" height="32" viewBox="0 0 32 32">
<title>as-charger-</title>
<path fill="#91908d" d="M25.346 12.89c0 5.024-3.882 9.106-8.802 9.51h-1.602c-4.918-0.405-8.797-4.462-8.797-9.485 0-0.066 0.008-0.115 0.010-0.115h19.181c0 0 0.010 0.026 0.010 0.090zM32 9.6h-9.6v-9.6h-3.2v9.6h-6.4v-9.6h-3.2v9.6h-9.6v3.2h2.955c-0.002 0 0.118 0.026 0.118 0.090 0 6.526 4.926 11.858 11.326 12.64v6.47h3.2v-6.47c6.4-0.779 11.074-6.088 11.074-12.614 0-0.066-0.136-0.115-0.136-0.115h3.462v-3.2z"></path>
</svg>
