<!-- Generated by IcoMoon.io -->
<svg version="1.1" xmlns="http://www.w3.org/2000/svg" width="32" height="32" viewBox="0 0 32 32">
<title>as-calendar-2</title>
<path fill="#91908d" d="M28.8 27.2c0 0.883-0.717 1.6-1.6 1.6h-22.4c-0.883 0-1.6-0.717-1.6-1.6v-16c0-0.883 0.717-1.6 1.6-1.6h22.4c0.883 0 1.6 0.717 1.6 1.6v16zM28.8 3.2v-1.6c0-0.883-0.717-1.6-1.6-1.6s-1.6 0.717-1.6 1.6v1.6h-8v-1.6c0-0.883-0.717-1.6-1.6-1.6s-1.6 0.717-1.6 1.6v1.6h-8v-1.6c0-0.883-0.717-1.6-1.6-1.6s-1.6 0.717-1.6 1.6v1.6c-1.768 0-3.2 1.432-3.2 3.2v22.4c0 1.766 1.432 3.2 3.2 3.2h25.6c1.768 0 3.2-1.434 3.2-3.2v-22.4c0-1.768-1.432-3.2-3.2-3.2z"></path>
</svg>
