<!-- Generated by IcoMoon.io -->
<svg version="1.1" xmlns="http://www.w3.org/2000/svg" width="32" height="32" viewBox="0 0 32 32">
<title>as-car-3</title>
<path fill="#91908d" d="M28.8 24h-1.246c-0.878-0.976-2.138-1.6-3.554-1.6-0.565 0-1.098 0.115-1.6 0.294v-1.894h6.4v3.2zM24 28.8c-0.882 0-1.6-0.718-1.6-1.6s0.718-1.6 1.6-1.6c0.882 0 1.6 0.718 1.6 1.6s-0.718 1.6-1.6 1.6zM15.174 24c-0.328-1.264-1.040-2.365-1.987-3.2h6.013v3.2h-4.026zM11.755 27.2c-0.555 0.952-1.576 1.6-2.755 1.6s-2.2-0.648-2.755-1.6c-0.275-0.472-0.445-1.014-0.445-1.6s0.17-1.128 0.445-1.6c0.555-0.952 1.576-1.6 2.755-1.6s2.2 0.648 2.755 1.6c0.275 0.472 0.445 1.014 0.445 1.6s-0.17 1.128-0.445 1.6zM3.2 22.93v-2.13h1.586c-0.666 0.589-1.208 1.314-1.586 2.13zM17.6 3.2l1.6 14.4h-16v-14.4h14.4zM22.4 17.6l-1.6-17.6h-20.8v27.2h2.826c0.715 2.755 3.195 4.8 6.174 4.8s5.459-2.045 6.174-4.8h4.026c0 2.651 2.149 4.8 4.8 4.8s4.8-2.149 4.8-4.8h3.2v-9.6h-9.6z"></path>
</svg>
