<!-- Generated by IcoMoon.io -->
<svg version="1.1" xmlns="http://www.w3.org/2000/svg" width="32" height="32" viewBox="0 0 32 32">
<title>as-call-2</title>
<path fill="#91908d" d="M30.111 9.925l-3.843-0.038c-0.712 0-1.050-0.842-0.546-1.346l5.81-5.81c0.624-0.626 0.624-1.638 0-2.262-0.626-0.626-1.638-0.626-2.262 0l-5.813 5.811c-0.504 0.504-1.386 0.126-1.384-0.586l-0.010-3.818c0-0.883-0.75-1.634-1.635-1.634-0.883 0-1.586 0.728-1.586 1.613l0.006 8.010c0 1.765 1.437 3.202 3.203 3.202 1.246 0.008-0.078 0.005 8.014 0.014 0.885 0 1.616-0.702 1.616-1.586 0-0.885-0.688-1.571-1.571-1.571zM22.586 24.925c-1.11-0.598-2.237-1.282-3.4-1.755-2.246-0.917-2.094 1.792-3.701 2.672-2.278 1.248-9.693-5.978-9.358-8.219 0.259-1.734 2.312-1.822 1.725-3.942-0.314-1.136-0.875-2.254-1.296-3.349-0.565-1.467-0.795-2.408-2.44-2.326-1.186 0.058-1.974 0.565-2.704 1.515-1.973 2.571-1.675 6.040-0.349 8.861 3.725 7.92 11.325 13.106 16.789 13.598 2.074 0.187 4.974-0.936 5.717-3.186-0.051 0.157-0.102 0.307-0.126 0.381 0.019-0.058 0.058-0.171 0.126-0.382 0.075-0.226 0.112-0.341 0.13-0.39-0.022 0.066-0.074 0.222-0.128 0.386 0.653-1.984 0.731-2.939-0.984-3.862zM23.442 29.175c-0.019 0.058-0.016 0.050 0 0v0zM23.698 28.402c0.011-0.038 0.013-0.042 0 0v0z"></path>
</svg>
