<!-- Generated by IcoMoon.io -->
<svg version="1.1" xmlns="http://www.w3.org/2000/svg" width="32" height="32" viewBox="0 0 32 32">
<title>as-car-5</title>
<path fill="#91908d" d="M28.8 20.8h-1.522c-0.88-1.6-2-1.624-3.416-1.624-0.565 0-1.462 0.091-1.462 0.27v-1.846h6.4v3.2zM23.723 25.552c-0.882 0-1.6-0.718-1.6-1.6 0-0.883 0.718-1.6 1.6-1.6s1.6 0.717 1.6 1.6c0 0.882-0.718 1.6-1.6 1.6zM12.8 14.4v-8h6.4v8h-6.4zM12.8 20.8v-3.2h6.4v3.2h-6.4zM7.723 25.552c-0.882 0-1.6-0.718-1.6-1.6 0-0.883 0.718-1.6 1.6-1.6s1.6 0.717 1.6 1.6c0 0.882-0.718 1.6-1.6 1.6zM4.17 20.8h-0.97v-3.2h6.4v1.858c0-0.182-1.171-0.282-1.738-0.282-1.416 0-2.814 0.024-3.693 1.624zM3.2 14.4v-8h6.4v8h-6.4zM22.4 14.4v-11.2h-22.4v20.8h2.923c0 3.2 2.149 4.8 4.8 4.8s4.8-1.6 4.8-4.8h6.4c0 3.2 2.149 4.8 4.8 4.8s4.8-1.6 4.8-4.8h3.477v-9.6h-9.6z"></path>
</svg>
