<!-- Generated by IcoMoon.io -->
<svg version="1.1" xmlns="http://www.w3.org/2000/svg" width="32" height="32" viewBox="0 0 32 32">
<title>as-camera-6</title>
<path fill="#91908d" d="M16.018 15.2c1.765 0 3.2 1.435 3.2 3.2s-1.435 3.2-3.2 3.2c-1.765 0-3.2-1.435-3.2-3.2s1.435-3.2 3.2-3.2zM16.018 24.8c3.534 0 6.4-2.866 6.4-6.4s-2.866-6.4-6.4-6.4c-3.534 0-6.4 2.866-6.4 6.4s2.866 6.4 6.4 6.4zM3.2 28.8v-19.2h25.6v19.2h-25.6zM11.2 6.4v-3.2h9.6v3.2h-9.6zM30.4 6.4v-3.2h-3.2v3.2h-3.2v-6.4h-16v6.4h-8v25.6h32v-25.6h-1.6z"></path>
</svg>
