<!-- Generated by IcoMoon.io -->
<svg version="1.1" xmlns="http://www.w3.org/2000/svg" width="32" height="32" viewBox="0 0 32 32">
<title>as-cart-1</title>
<path fill="#91908d" d="M23.968 28.8c-0.881 0-1.599-0.718-1.599-1.6s0.718-1.6 1.599-1.6c0.881 0 1.599 0.718 1.599 1.6s-0.718 1.6-1.599 1.6zM6.415 19.2v-9.6h15.99v9.6h-15.99zM4.78 28.8c-0.881 0-1.599-0.718-1.599-1.6s0.718-1.6 1.599-1.6c0.881 0 1.599 0.718 1.599 1.6s-0.718 1.6-1.599 1.6zM25.604 3.2h6.396v-3.2h-9.594v6.4h-19.189v16.294c-1.599 0.661-3.217 2.419-3.217 4.506 0 2.651 2.14 4.8 4.789 4.8s4.81-2.149 4.81-4.8c0-2.086-1.585-3.845-3.184-4.506v-0.294h15.99v0.294c-1.599 0.661-3.217 2.419-3.217 4.506 0 2.651 2.14 4.8 4.789 4.8s4.81-2.149 4.81-4.8c0-2.086-1.585-3.845-3.184-4.506v-19.494z"></path>
</svg>
