<!-- Generated by IcoMoon.io -->
<svg version="1.1" xmlns="http://www.w3.org/2000/svg" width="32" height="32" viewBox="0 0 32 32">
<title>as-car_round-7</title>
<path fill="#91908d" d="M28.8 24h-1.52c-0.88-0.976-2.002-1.6-3.418-1.6-0.563 0-1.462 0.115-1.462 0.294v-1.894h4.525c0.883 0 1.875 0.717 1.875 1.6v1.6zM23.725 28.8c-0.882 0-1.6-0.718-1.6-1.6s0.718-1.6 1.6-1.6c0.883 0 1.6 0.718 1.6 1.6s-0.717 1.6-1.6 1.6zM19.2 17.6h-6.4v-14.4h4.525c0.883 0 1.875 0.717 1.875 1.6v12.8zM12.8 24h6.4v-3.2h-6.4v3.2zM7.725 28.8c-0.882 0-1.6-0.718-1.6-1.6s0.718-1.6 1.6-1.6c0.883 0 1.6 0.718 1.6 1.6s-0.717 1.6-1.6 1.6zM4.171 24h-0.971v-3.2h6.4v1.906c0-0.182-1.171-0.306-1.738-0.306-1.416 0-2.813 0.624-3.691 1.6zM3.2 4.8c0-0.883 0.442-1.6 1.325-1.6h5.075v14.4h-6.4v-12.8zM28.525 17.6h-6.125v-14.4c0-1.768-1.707-3.2-3.475-3.2h-16c-1.766 0-2.925 1.432-2.925 3.2v20.8c0 1.768 1.296 3.2 3.062 3.2 0 2.651 2.080 4.8 4.731 4.8s4.731-2.149 4.731-4.8h6.4c0 2.651 2.149 4.8 4.8 4.8s4.938-2.149 4.938-4.8c1.768 0 3.338-1.432 3.338-3.2v-3.2c0-1.768-1.707-3.2-3.475-3.2z"></path>
</svg>
