<!-- Generated by IcoMoon.io -->
<svg version="1.1" xmlns="http://www.w3.org/2000/svg" width="32" height="32" viewBox="0 0 32 32">
<title>as-cover_flow-1</title>
<path fill="#91908d" d="M6.4 4.8c-0.883 0-1.6 0.717-1.6 1.6v19.2c0 0.883 0.717 1.6 1.6 1.6s1.6-0.717 1.6-1.6v-19.2c0-0.883-0.717-1.6-1.6-1.6zM19.2 12.8c0-0.883-0.717-1.6-1.6-1.6h-3.2c-0.883 0-1.6 0.717-1.6 1.6v6.4c0 0.883 0.717 1.6 1.6 1.6h3.2c0.883 0 1.6-0.717 1.6-1.6v-6.4zM22.4 20.8c0 1.768-1.432 3.2-3.2 3.2h-6.4c-1.768 0-3.2-1.432-3.2-3.2v-9.6c0-1.768 1.432-3.2 3.2-3.2h6.4c1.768 0 3.2 1.432 3.2 3.2v9.6zM27.2 25.6v-19.2c0-0.883-0.717-1.6-1.6-1.6s-1.6 0.717-1.6 1.6v19.2c0 0.883 0.717 1.6 1.6 1.6s1.6-0.717 1.6-1.6zM28.8 3.2v25.6c0 0.883 0.717 1.6 1.6 1.6s1.6-0.717 1.6-1.6v-25.6c0-0.883-0.717-1.6-1.6-1.6s-1.6 0.717-1.6 1.6zM1.6 30.4c-0.883 0-1.6-0.717-1.6-1.6v-25.6c0-0.883 0.717-1.6 1.6-1.6s1.6 0.717 1.6 1.6v25.6c0 0.883-0.717 1.6-1.6 1.6z"></path>
</svg>
