<!-- Generated by IcoMoon.io -->
<svg version="1.1" xmlns="http://www.w3.org/2000/svg" width="32" height="32" viewBox="0 0 32 32">
<title>as-circular_connectivity-</title>
<path fill="#91908d" d="M25.6 17.6h3.2v-3.2h-3.2v3.2zM24 20.8h0.301c-0.842 1.45-2.050 2.659-3.501 3.501v-0.301c0-0.885-0.717-1.6-1.6-1.6h-6.4c-0.883 0-1.6 0.715-1.6 1.6v0.301c-1.451-0.842-2.659-2.051-3.501-3.501h0.301c0.883 0 1.6-0.717 1.6-1.6v-6.4c0-0.885-0.717-1.6-1.6-1.6h-0.301c0.842-1.451 2.050-2.659 3.501-3.501v0.301c0 0.883 0.717 1.6 1.6 1.6h6.4c0.883 0 1.6-0.717 1.6-1.6v-0.301c1.451 0.842 2.659 1.901 3.501 3.501h-0.301c-0.883 0-1.6 0.715-1.6 1.6v6.4c0 0.883 0.717 1.6 1.6 1.6zM14.4 28.8h3.2v-3.2h-3.2v3.2zM14.4 6.4h3.2v-3.2h-3.2v3.2zM6.4 17.6h-3.2v-3.2h3.2v3.2zM30.4 11.2h-2.539c-1.299-3.2-3.854-5.763-7.061-7.061v-2.539c0-0.885-0.717-1.6-1.6-1.6h-6.4c-0.883 0-1.6 0.715-1.6 1.6v2.539c-3.206 1.298-5.762 3.854-7.061 7.061h-2.539c-0.883 0-1.6 0.715-1.6 1.6v6.4c0 0.883 0.717 1.6 1.6 1.6h2.539c1.299 3.205 3.854 5.762 7.061 7.061v2.539c0 0.883 0.717 1.6 1.6 1.6h6.4c0.883 0 1.6-0.717 1.6-1.6v-2.539c3.206-1.299 5.762-3.856 7.061-7.061h2.539c0.883 0 1.6-0.717 1.6-1.6v-6.4c0-0.885-0.717-1.6-1.6-1.6z"></path>
</svg>
