<!-- Generated by IcoMoon.io -->
<svg version="1.1" xmlns="http://www.w3.org/2000/svg" width="32" height="32" viewBox="0 0 32 32">
<title>as-connectivity_center-</title>
<path fill="#91908d" d="M29.259 26.683c-1.325 0-2.648 1.19-2.648 2.659s1.323 2.659 2.648 2.659c1.325 0 2.647-1.329 2.647-2.659 0-1.469-1.321-2.659-2.647-2.659zM29.16 21.175c-3.976 0-7.857 4.082-7.857 8.070h2.651c0-2.659 2.555-5.412 5.206-5.412v-2.659zM28.234 15.907c-6.043-0.439-11.81-5.137-12.28-12.222-0.453 6.068-5.299 11.931-12.377 12.409 6.057 0.447 11.983 5.23 12.468 12.32 0.439-6.075 5.124-12.021 12.189-12.508zM18.652 29.246h-5.208c0-5.317-5.491-10.539-10.793-10.539v-5.223c5.302 0 10.699-5.508 10.699-10.825h5.206c0 5.317 5.302 10.635 10.603 10.635v5.223c-5.302 0-10.508 5.412-10.508 10.729zM29.349 5.312c1.465 0 2.651-1.328 2.651-2.657s-1.325-2.655-2.651-2.655c-1.463 0-2.651 1.325-2.651 2.655s1.188 2.657 2.651 2.657zM29.16 10.635v-2.659c-2.651 0-5.302-2.659-5.302-5.317h-2.651c0 3.988 3.976 7.976 7.953 7.976zM2.742 5.317c1.325 0 2.648-1.19 2.648-2.659 0-1.468-1.323-2.657-2.648-2.657s-2.647 1.329-2.647 2.657c0 1.469 1.321 2.659 2.647 2.659zM2.651 10.825c3.976 0 8.048-4.178 8.048-8.166h-2.651c0 2.659-2.746 5.507-5.397 5.507v2.659zM2.651 26.689c-1.463 0-2.651 1.327-2.651 2.656s1.325 2.655 2.651 2.655c1.465 0 2.651-1.325 2.651-2.655s-1.186-2.656-2.651-2.656zM10.793 29.246h-2.651c0-2.659-2.84-5.222-5.491-5.222v-2.659c3.976 0 8.142 3.892 8.142 7.88z"></path>
</svg>
