<!-- Generated by IcoMoon.io -->
<svg version="1.1" xmlns="http://www.w3.org/2000/svg" width="32" height="32" viewBox="0 0 32 32">
<title>as-cart_play_round-</title>
<path fill="#91908d" d="M25.507 27.247c0 0.873-0.72 1.584-1.603 1.584s-1.603-0.711-1.603-1.584 0.72-1.584 1.603-1.584c0.884 0 1.603 0.711 1.603 1.584zM16.759 15.929l-3.242 1.96c-1.066 0.632-2.36-0.127-2.36-1.356v-3.919c0-1.229 1.294-1.988 2.36-1.356l3.274 1.96c1.036 0.615 1.005 2.098-0.032 2.712zM6.267 27.247c0 0.873-0.72 1.584-1.603 1.584s-1.603-0.711-1.603-1.584c0-0.873 0.72-1.584 1.603-1.584s1.603 0.711 1.603 1.584zM6.215 6.337c-1.768 0-3.075 1.732-3.075 3.479v12.97c-1.603 0.909-4.475 3.918-2.434 6.982 0.79 1.187 2.039 2.063 3.471 2.207 2.886 0.29 5.345-1.937 5.345-4.727 0-2.066-1.573-3.807-3.176-4.461v-0.607h16.033v0.607c-1.603 0.909-4.475 3.918-2.434 6.982 0.79 1.187 2.039 2.063 3.471 2.207 2.886 0.29 5.345-1.937 5.345-4.727 0-2.066-1.573-3.807-3.176-4.461v-17.718c0-0.875 0.592-1.899 1.477-1.899h3.207c0.885 0 1.73-0.551 1.73-1.426v-0.079c0-0.875-0.845-1.663-1.73-1.663h-4.815c-1.768 0-3.075 1.732-3.075 3.479v2.858h-16.165z"></path>
</svg>
