<!-- Generated by IcoMoon.io -->
<svg version="1.1" xmlns="http://www.w3.org/2000/svg" width="32" height="32" viewBox="0 0 32 32">
<title>as-car-4</title>
<path fill="#91908d" d="M28.8 20.8h-1.248c-0.878-0.976-2.138-1.6-3.554-1.6-0.563 0-1.598 0.115-1.598 0.294v-1.894h6.4v3.2zM23.998 25.6c-0.882 0-1.6-0.718-1.6-1.6s0.718-1.6 1.6-1.6c0.882 0 1.6 0.718 1.6 1.6s-0.718 1.6-1.6 1.6zM12.8 14.4v-8h6.4v8h-6.4zM19.2 20.8h-7.648c-0.878-0.976-2.138-1.6-3.554-1.6s-2.675 0.624-3.554 1.6h-1.245v-3.2h16v3.2zM7.998 25.6c-0.882 0-1.6-0.718-1.6-1.6s0.718-1.6 1.6-1.6c0.882 0 1.6 0.718 1.6 1.6s-0.718 1.6-1.6 1.6zM3.2 14.4v-8h6.4v8h-6.4zM22.4 14.4v-11.2h-22.4v20.8h3.198c0 2.651 2.149 4.8 4.8 4.8s4.8-2.149 4.8-4.8h6.4c0 2.651 2.149 4.8 4.8 4.8s4.8-2.149 4.8-4.8h3.202v-9.6h-9.6z"></path>
</svg>
