<!-- Generated by IcoMoon.io -->
<svg version="1.1" xmlns="http://www.w3.org/2000/svg" width="22" height="32" viewBox="0 0 22 32">
<title>as-container-</title>
<path fill="#91908d" d="M20.8 0h-1.6c-1.768 0-3.2 1.432-3.2 3.2v24c0 0.883-0.717 1.6-1.6 1.6h-6.4c-0.883 0-1.6-0.717-1.6-1.6v-24c0-1.768-1.432-3.2-3.2-3.2h-1.6c-0.883 0-1.6 0.717-1.6 1.6s0.717 1.6 1.6 1.6c0.883 0 1.6 0.717 1.6 1.6v24c0 1.768 1.432 3.2 3.2 3.2h9.6c1.768 0 3.2-1.432 3.2-3.2v-24c0-0.883 0.717-1.6 1.6-1.6s1.6-0.717 1.6-1.6c0-0.883-0.717-1.6-1.6-1.6zM12.8 14.4v9.6c0 0.883-0.717 1.6-1.6 1.6s-1.6-0.717-1.6-1.6v-9.6c0-0.883 0.717-1.6 1.6-1.6s1.6 0.717 1.6 1.6z"></path>
</svg>
