<!-- Generated by IcoMoon.io -->
<svg version="1.1" xmlns="http://www.w3.org/2000/svg" width="32" height="32" viewBox="0 0 32 32">
<title>as-cloud_plus-</title>
<path fill="#91908d" d="M26.331 9.155c-0.037-0.011-0.046-0.053-0.037-0.032-4.495-10.395-19.876-8.227-21.321 3.010 0 0-2.287 0.516-3.743 2.598-4.613 6.595 5.235 12.545 5.235 8.372 0-0.814-0.126-1.413-1.026-1.73-4.801-1.693-0.784-8.503 3.001-5.485-1.577-5.214 2.357-10.316 7.602-10.316 3.914 0 7.108 2.875 7.821 6.424 4.532-0.163 7.21 6.041 2.528 8.876-1.756 1.064-0.204 3.744 1.518 2.784 6.242-3.473 5.044-12.482-1.579-14.501zM22.426 23.356v-0.054c0 0.010-0.005 0.016-0.005 0.026s0.005 0.019 0.005 0.029zM22.422 23.327c-0.016 0.87-0.718 1.467-1.59 1.467h-3.194v3.204c0 0.884-0.713 1.602-1.596 1.602-0.881 0-1.596-0.718-1.596-1.602v-3.204h-3.192c-0.881 0-1.596-0.554-1.596-1.439v-0.054c0-0.886 0.715-1.711 1.596-1.711h3.192v-3.204c0-0.886 0.715-1.602 1.596-1.602 0.883 0 1.596 0.716 1.596 1.602v3.204h3.194c0.872 0 1.574 0.862 1.59 1.736z"></path>
</svg>
