<!-- Generated by IcoMoon.io -->
<svg version="1.1" xmlns="http://www.w3.org/2000/svg" width="32" height="32" viewBox="0 0 32 32">
<title>as-center_object_round-2</title>
<path fill="#91908d" d="M22.4 4.795c0-0.88-0.714-1.595-1.595-1.595h-9.61c-0.882 0-1.595 0.715-1.595 1.595v22.411c0 0.88 0.714 1.594 1.595 1.594h9.61c0.882 0 1.595-0.714 1.595-1.594v-22.411zM25.6 28.793c0 1.771-1.435 3.206-3.206 3.206h-12.787c-1.771 0-3.206-1.435-3.206-3.206v-25.587c0-1.77 1.435-3.206 3.206-3.206h12.787c1.771 0 3.206 1.437 3.206 3.206v25.587zM32 8c0-0.883-0.717-1.6-1.6-1.6s-1.6 0.717-1.6 1.6v16c0 0.885 0.717 1.6 1.6 1.6s1.6-0.715 1.6-1.6v-16zM3.2 24c0 0.885-0.717 1.6-1.6 1.6s-1.6-0.715-1.6-1.6v-16c0-0.883 0.717-1.6 1.6-1.6s1.6 0.717 1.6 1.6v16z"></path>
</svg>
