<!-- Generated by IcoMoon.io -->
<svg version="1.1" xmlns="http://www.w3.org/2000/svg" width="32" height="32" viewBox="0 0 32 32">
<title>as-camera-3</title>
<path fill="#91908d" d="M29.739 0l-29.721 29.011 2.261 2.207 29.721-29.011-2.261-2.207zM16.422 21.827l-2.783 2.716c5.199 2.012 10.355-3.005 8.289-8.091l-2.783 2.716c-0.193 1.383-1.307 2.469-2.723 2.658zM28.786 26.554c0 0.862-0.716 2.324-1.599 2.324h-17.204l-3.198 3.122h22.002c1.766 0 3.198-2.162 3.198-3.885v-21.476l-3.198 3.122v16.793zM3.198 21.492l-3.198 3.122v-14.695c0-1.723 1.431-2.894 3.198-2.894h4.798v-2.96c0-1.87 1.553-3.284 3.469-3.284h12.523l-3.198 3.122h-7.996c-0.884 0-1.599-0.066-1.599 0.798v2.324h7.607l-3.198 3.122h-10.806c-0.884 0-1.599-0.066-1.599 0.798v10.548z"></path>
</svg>
