<!-- Generated by IcoMoon.io -->
<svg version="1.1" xmlns="http://www.w3.org/2000/svg" width="32" height="32" viewBox="0 0 32 32">
<title>as-car_front_view-</title>
<path fill="#91908d" d="M8 25.6c-0.883 0-1.6-0.717-1.6-1.6s0.717-1.6 1.6-1.6c0.883 0 1.6 0.717 1.6 1.6s-0.717 1.6-1.6 1.6zM24 22.4c0.883 0 1.6 0.717 1.6 1.6s-0.717 1.6-1.6 1.6c-0.883 0-1.6-0.717-1.6-1.6s0.717-1.6 1.6-1.6zM10.563 3.2h10.874c0.797 0 1.472 0.586 1.584 1.374l2.090 14.626h-18.221l2.090-14.626c0.112-0.789 0.787-1.374 1.584-1.374zM32 14.4c0-0.883-0.717-1.6-1.6-1.6h-2.971l-1.437-10.053c-0.224-1.576-1.574-2.747-3.168-2.747h-13.648c-1.594 0-2.944 1.171-3.168 2.747l-1.437 10.053h-2.971c-0.883 0-1.6 0.717-1.6 1.6s0.717 1.6 1.6 1.6h2.514l-0.456 3.2h-0.458c-1.768 0-3.2 1.432-3.2 3.2v3.2c0 1.768 1.432 3.2 3.2 3.2v1.6c0 0.883 0.717 1.6 1.6 1.6h3.2c0.883 0 1.6-0.717 1.6-1.6v-1.6h12.8v1.6c0 0.883 0.717 1.6 1.6 1.6h3.2c0.883 0 1.6-0.717 1.6-1.6v-1.6c1.768 0 3.2-1.432 3.2-3.2v-3.2c0-1.768-1.432-3.2-3.2-3.2h-0.458l-0.456-3.2h2.514c0.883 0 1.6-0.717 1.6-1.6z"></path>
</svg>
