<!-- Generated by IcoMoon.io -->
<svg version="1.1" xmlns="http://www.w3.org/2000/svg" width="32" height="32" viewBox="0 0 32 32">
<title>as-directory_locked-2</title>
<path fill="#91908d" d="M12.8 22.4h6.4v-1.6h-6.4v1.6zM17.565 17.6h-3.2c0-2.133 3.2-2.133 3.2 0zM11.165 17.6h-1.565v8h12.8v-8h-1.635c0-6.4-9.6-6.4-9.6 0zM27.2 28.8h-22.4c-0.883 0-1.6-0.715-1.6-1.6v-22.4c0-0.883 0.717-1.6 1.6-1.6h6.4c0.883 0 1.6 0.717 1.6 1.6v1.6c0 1.768 1.432 3.2 3.2 3.2h11.2c0.883 0 1.6 0.717 1.6 1.6v16c0 0.885-0.717 1.6-1.6 1.6zM16 6.4v-3.2c0-1.766-1.432-3.2-3.2-3.2h-9.6c-1.768 0-3.2 1.434-3.2 3.2v25.6c0 1.768 1.432 3.2 3.2 3.2h25.6c1.768 0 3.2-1.432 3.2-3.2v-19.2c0-1.766-1.432-3.2-3.2-3.2h-12.8z"></path>
</svg>
