<!-- Generated by IcoMoon.io -->
<svg version="1.1" xmlns="http://www.w3.org/2000/svg" width="32" height="32" viewBox="0 0 32 32">
<title>as-dribbble-</title>
<path fill="#91908d" d="M20.992 17.486c1.088 3.152 1.824 6.391 2.208 9.714 3.346-2.157 5.616-5.704 6.048-9.714-3.243-0.222-5.421-0.203-8.256 0zM19.104 12.661c0.32 0.682 0.683 1.545 1.088 2.588 2.914-0.275 6.165-0.272 9.088-0.128-0.171-2.897-1.216-5.475-3.136-7.733-1.387 2.066-3.733 3.823-7.040 5.272zM12.736 3.139c1.877 1.938 3.616 4.357 5.216 7.254 2.901-1.214 5.088-2.759 6.56-4.633-3.57-2.949-7.968-3.663-11.776-2.62zM7.84 26.529c3.84 2.986 8.602 3.55 12.864 1.917-0.427-3.643-1.259-7.169-2.496-10.577-4.16 0.903-8.552 5.074-10.368 8.66zM3.072 12.725c1.872 0.169 6.989 0.195 12.224-1.374-1.621-2.876-3.403-5.272-5.344-7.19-3.435 1.737-5.914 4.956-6.88 8.564zM6.016 24.803c2.003-3.917 6.984-8.167 11.36-9.139-0.32-0.746-0.629-1.417-0.928-2.013-4.435 1.417-9.491 1.949-13.76 1.726 0 3.409 0.558 6.292 3.328 9.426zM0 16.016c0-5.996 3.213-11.069 7.968-13.836 10.597-6.165 24.032 1.468 24.032 13.836 0 5.996-3.213 11.069-7.968 13.836-4.915 2.86-11.134 2.868-16.064 0-4.76-2.769-7.968-7.845-7.968-13.836z"></path>
</svg>
