<!-- Generated by IcoMoon.io -->
<svg version="1.1" xmlns="http://www.w3.org/2000/svg" width="34" height="32" viewBox="0 0 34 32">
<title>as-done-</title>
<path fill="#91908d" d="M21.689 13.069l-6.786 6.784c-0.627 0.627-1.643 0.627-2.27 0l-3.39-3.39c-0.626-0.624-0.626-1.637 0-2.262 0.624-0.624 1.638-0.624 2.262 0l1.133 1.133c0.624 0.624 1.637 0.624 2.262 0l4.526-4.526c0.624-0.626 1.637-0.626 2.262 0 0.626 0.624 0.626 1.637 0 2.262zM28.804 0h-25.6c-1.768 0-3.2 1.432-3.2 3.2v25.6c0 1.766 1.432 3.2 3.2 3.2h25.6c1.768 0 3.2-1.434 3.2-3.2v-25.6c0-1.768-1.432-3.2-3.2-3.2z"></path>
</svg>
