<!-- Generated by IcoMoon.io -->
<svg version="1.1" xmlns="http://www.w3.org/2000/svg" width="32" height="32" viewBox="0 0 32 32">
<title>as-emoji_happy-11</title>
<path fill="#91908d" d="M25.6 11.2v3.2c0 0.883-0.717 1.6-1.6 1.6h-3.2c-0.88 0-1.6-0.72-1.6-1.6v-3.2c0-0.883 0.717-1.6 1.6-1.6h3.2c0.883 0 1.6 0.717 1.6 1.6zM6.4 14.4v-3.2c0-0.883 0.717-1.6 1.6-1.6h3.2c0.883 0 1.6 0.717 1.6 1.6v3.2c0 0.883-0.717 1.6-1.6 1.6h-3.2c-0.88 0-1.6-0.72-1.6-1.6zM25.6 20.123v0.677c0 2.651-2.149 4.8-4.8 4.8h-8.923c-3.013 0-5.477-2.464-5.477-5.477 0-0.883 0.717-1.43 1.6-1.43s1.6 0.885 1.6 1.77c0 0.883 0.717 1.938 1.6 1.938h9.6c0.883 0 1.6-1.054 1.6-1.938 0-0.885 0.717-1.939 1.6-1.939s1.6 0.717 1.6 1.6zM28.8 5.765v9.571c0 7.058-5.742 13.464-12.8 13.464s-12.8-6.406-12.8-13.464v-11.2c0-0.883 0.717-0.936 1.6-0.936h22.4c0.883 0 1.6 0.053 1.6 0.936v1.629zM28.8 0h-25.6c-1.768 0-3.2 0.768-3.2 2.536v12.8c0 3.594 1.2 6.899 3.2 9.571 0.918 1.226 2.005 2.31 3.229 3.229 2.672 2 5.978 3.864 9.571 3.864s6.899-1.864 9.571-3.864c1.224-0.918 2.31-2.003 3.229-3.229 2-2.672 3.2-5.978 3.2-9.571v-12.8c0-1.768-1.432-2.536-3.2-2.536z"></path>
</svg>
