<!-- Generated by IcoMoon.io -->
<svg version="1.1" xmlns="http://www.w3.org/2000/svg" width="32" height="32" viewBox="0 0 32 32">
<title>as-emoji_neutral-8</title>
<path fill="#91908d" d="M9.6 25.6h12.8v-3.2h-12.8v3.2zM19.2 6.4h-16v-2.264c0-0.883 0.717-0.936 1.6-0.936h22.4c0.883 0 1.6 0.053 1.6 0.936v2.264h-9.6zM22.4 16h6.4v-6.4h-6.4v6.4zM16 29.466c-5.986 0-11.011-5.466-12.403-10.266h9.203v-9.6h6.4v9.6h9.203c-1.392 4.8-6.418 10.266-12.403 10.266zM3.2 16h6.4v-6.4h-6.4v6.4zM28.8 0h-25.6c-1.768 0-3.2 0.768-3.2 2.536v16.664h0.317c0.475 1.6 1.475 4.206 2.883 6.088 0.918 1.224 2.005 2.12 3.229 3.038 2.672 2 5.978 3.674 9.571 3.674s6.899-1.816 9.571-3.816c1.224-0.918 2.31-1.648 3.229-2.874 1.408-1.88 2.408-4.51 2.883-6.11h0.317v-16.664c0-1.768-1.432-2.536-3.2-2.536z"></path>
</svg>
