<!-- Generated by IcoMoon.io -->
<svg version="1.1" xmlns="http://www.w3.org/2000/svg" width="32" height="32" viewBox="0 0 32 32">
<title>as-emoji_tongue_sticking_out-_circle-</title>
<path fill="#91908d" d="M25.6 21.214c0 0.883-0.717 1.35-1.6 1.35s-1.6 0.883-1.6 1.766c0 0.883-0.717 1.933-1.6 1.933h-3.2c-0.883 0-1.6-0.717-1.6-1.6 0-0.885-0.717-1.6-1.6-1.6h-6.4c-0.883 0-1.6-0.717-1.6-1.6 0-0.885 0.717-1.6 1.6-1.6h16c0.883 0 1.6 0.467 1.6 1.35zM19.2 12.8c0-1.768 1.432-3.2 3.2-3.2s3.2 1.432 3.2 3.2c0 1.766-1.432 3.2-3.2 3.2s-3.2-1.434-3.2-3.2zM6.4 12.8c0-1.768 1.432-3.2 3.2-3.2s3.2 1.432 3.2 3.2c0 1.766-1.432 3.2-3.2 3.2s-3.2-1.434-3.2-3.2zM16 28.8c-7.058 0-12.8-5.742-12.8-12.8 0-7.059 5.742-12.8 12.8-12.8s12.8 5.741 12.8 12.8c0 7.058-5.742 12.8-12.8 12.8zM16 0c-8.837 0-16 7.163-16 16 0 8.835 7.163 16 16 16s16-7.165 16-16c0-8.837-7.163-16-16-16z"></path>
</svg>
