<!-- Generated by IcoMoon.io -->
<svg version="1.1" xmlns="http://www.w3.org/2000/svg" width="32" height="32" viewBox="0 0 32 32">
<title>as-emoji_neutral_square_glasses-</title>
<path fill="#91908d" d="M9.6 25.6h12.8v-3.2h-12.8v3.2zM3.2 6.4h25.6v-3.2h-25.6v3.2zM22.4 13.736v-4.136h6.4v6.4h-4.8c-0.883 0-1.6-1.381-1.6-2.264zM28.8 28.8h-25.6v-9.6h6.4c1.768 0 3.2-2.096 3.2-3.864v-5.736h6.4v5.736c0 1.768 1.432 3.864 3.2 3.864h6.4v9.6zM3.2 9.6h6.4v4.136c0 0.883-0.717 2.264-1.6 2.264h-4.8v-6.4zM0 32h32v-32h-32v32z"></path>
</svg>
