<!-- Generated by IcoMoon.io -->
<svg version="1.1" xmlns="http://www.w3.org/2000/svg" width="32" height="32" viewBox="0 0 32 32">
<title>as-emoji_sad-14</title>
<path fill="#91908d" d="M25.6 11.2v3.2c0 0.883-0.717 1.6-1.6 1.6h-3.2c-0.88 0-1.6-0.72-1.6-1.6v-3.2c0-0.883 0.717-1.6 1.6-1.6h3.2c0.883 0 1.6 0.717 1.6 1.6zM11.2 16h-3.2c-0.88 0-1.6-0.72-1.6-1.6v-3.2c0-0.883 0.717-1.6 1.6-1.6h3.2c0.883 0 1.6 0.717 1.6 1.6v3.2c0 0.883-0.717 1.6-1.6 1.6zM23.829 23.55c0.187 0.958-0.608 2.050-1.586 2.050h-0.027c-0.762 0-1.386-0.765-1.56-1.507-1.104-4.677-8.206-4.891-9.312-0.214-0.174 0.742-0.798 1.722-1.56 1.722h-0.027c-0.978 0-1.773-1.306-1.586-2.264 1.611-8.221 14.046-8.005 15.658 0.214zM28.8 15.336c0 7.058-5.742 13.464-12.8 13.464s-12.8-6.406-12.8-13.464v-11.2c0-0.883 0.717-0.936 1.6-0.936h22.4c0.883 0 1.6 0.053 1.6 0.936v11.2zM28.8 0h-25.6c-1.768 0-3.2 0.768-3.2 2.536v12.8c0 3.594 1.2 6.899 3.2 9.571 2.666 3.558 8.141 7.093 12.8 7.093 5.765 0 16-5.957 16-16.664v-12.8c0-1.768-1.432-2.536-3.2-2.536z"></path>
</svg>
