<!-- Generated by IcoMoon.io -->
<svg version="1.1" xmlns="http://www.w3.org/2000/svg" width="32" height="32" viewBox="0 0 32 32">
<title>as-emoji_neutral_circle-1</title>
<path fill="#91908d" d="M19.2 24c0 0.883-0.717 1.6-1.6 1.6h-3.2c-0.883 0-1.6-0.717-1.6-1.6s0.717-1.6 1.6-1.6h3.2c0.883 0 1.6 0.717 1.6 1.6zM16 28.8c-5.952 0-10.952-4.8-12.379-9.6h9.179v-9.6h6.4v9.6h9.179c-1.427 4.8-6.427 9.6-12.379 9.6zM3.2 16h6.4v-6.4h-6.4v6.4zM16 3.2c3.234 0 6.182 0 8.438 3.2h-16.877c2.256-3.2 5.205-3.2 8.438-3.2zM22.4 16h6.4v-6.4h-6.4v6.4zM28.778 6.4c-2.918-4.8-7.549-6.4-12.778-6.4s-9.859 1.6-12.778 6.4h-3.222v12.8h0.322c1.483 6.4 7.938 12.8 15.678 12.8s14.195-6.4 15.678-12.8h0.322v-12.8h-3.222z"></path>
</svg>
