<!-- Generated by IcoMoon.io -->
<svg version="1.1" xmlns="http://www.w3.org/2000/svg" width="32" height="32" viewBox="0 0 32 32">
<title>as-emoji_happy-9</title>
<path fill="#91908d" d="M25.6 11.2c0 0.883-0.717 1.6-1.6 1.6h-3.2c-0.883 0-1.6-0.717-1.6-1.6s0.717-1.6 1.6-1.6h3.2c0.883 0 1.6 0.717 1.6 1.6zM23.829 19.269c-1.611 8.219-14.046 8.054-15.658-0.166-0.187-0.958 0.608-1.502 1.586-1.502h0.027c0.762 0 1.386 0.384 1.56 1.126 1.104 4.677 8.208 4.51 9.312-0.166 0.174-0.742 0.798-0.96 1.56-0.96h0.027c0.978 0 1.773 0.71 1.586 1.669zM12.8 11.2c0 0.883-0.717 1.6-1.6 1.6h-3.2c-0.883 0-1.6-0.717-1.6-1.6s0.717-1.6 1.6-1.6h3.2c0.883 0 1.6 0.717 1.6 1.6zM28.8 26.536c0 0.883-0.717 2.264-1.6 2.264h-22.4c-0.883 0-1.6-1.381-1.6-2.264v-11.2c0-7.058 5.742-12.136 12.8-12.136s12.8 5.078 12.8 12.136v11.2zM28.8 5.765c-0.918-1.226-2.005-2.312-3.229-3.229-2.672-2-5.978-2.536-9.571-2.536-5.526 0-9.424 1.258-12.8 5.765-2 2.672-3.2 5.978-3.2 9.571v12.8c0 1.766 1.432 3.864 3.2 3.864h25.6c1.768 0 3.2-2.098 3.2-3.864v-12.8c0-3.594-1.2-6.899-3.2-9.571z"></path>
</svg>
