<!-- Generated by IcoMoon.io -->
<svg version="1.1" xmlns="http://www.w3.org/2000/svg" width="32" height="32" viewBox="0 0 32 32">
<title>as-emoji_tongue_sticking_out-</title>
<path fill="#91908d" d="M25.537 20.55c0 0.883-0.712 1.35-1.589 1.35s-1.589 0.883-1.589 1.766-0.712 1.933-1.589 1.933h-3.178c-0.877 0-1.589-0.717-1.589-1.6 0-0.885-0.712-1.6-1.589-1.6h-6.356c-0.877 0-1.589-0.717-1.589-1.6 0-0.885 0.712-1.6 1.589-1.6h15.891c0.877 0 1.589 0.467 1.589 1.35zM23.948 9.6c0.877 0 1.589 0.715 1.589 1.6 0 0.883-0.712 1.6-1.589 1.6h-3.178c-0.877 0-1.589-0.717-1.589-1.6 0-0.885 0.712-1.6 1.589-1.6h3.178zM6.468 11.2c0-0.885 0.712-1.6 1.589-1.6h3.178c0.877 0 1.589 0.715 1.589 1.6 0 0.883-0.712 1.6-1.589 1.6h-3.178c-0.877 0-1.589-0.717-1.589-1.6zM28.715 26.547c0 0.883-0.712 2.253-1.589 2.253h-22.247c-0.877 0-1.589-1.37-1.589-2.253v-11.2c0-7.058 5.703-12.147 12.713-12.147s12.713 5.090 12.713 12.147v11.2zM25.508 2.547c-2.654-2-5.937-2.547-9.506-2.547s-6.852 0.547-9.506 2.547c-7.868 5.933-6.385 13.498-6.385 25.6 0 1.768 1.422 3.853 3.178 3.853h25.426c1.756 0 3.178-2.085 3.178-3.853 0-11.973 1.456-19.686-6.385-25.6z"></path>
</svg>
