<!-- Generated by IcoMoon.io -->
<svg version="1.1" xmlns="http://www.w3.org/2000/svg" width="32" height="32" viewBox="0 0 32 32">
<title>as-emoji_happy_circle-8</title>
<path fill="#91908d" d="M25.6 12.8c0 1.768-1.432 3.2-3.2 3.2s-3.2-1.432-3.2-3.2c0-1.768 1.432-3.2 3.2-3.2s3.2 1.432 3.2 3.2zM23.826 19.45c-1.622 8.2-14.029 8.2-15.651 0-0.19-0.966 0.613-1.85 1.598-1.85 0.768 0 1.395 0.555 1.574 1.302 1.112 4.664 8.194 4.664 9.306 0 0.179-0.747 0.806-1.302 1.574-1.302 0.986 0 1.789 0.883 1.598 1.85zM9.6 16c-1.768 0-3.2-1.432-3.2-3.2s1.432-3.2 3.2-3.2c1.768 0 3.2 1.432 3.2 3.2s-1.432 3.2-3.2 3.2zM16 28.8c-7.058 0-12.8-5.742-12.8-12.8s5.742-12.8 12.8-12.8c7.058 0 12.8 5.742 12.8 12.8s-5.742 12.8-12.8 12.8zM16 0c-8.837 0-16 7.163-16 16s7.163 16 16 16c8.837 0 16-7.163 16-16s-7.163-16-16-16z"></path>
</svg>
