<!-- Generated by IcoMoon.io -->
<svg version="1.1" xmlns="http://www.w3.org/2000/svg" width="32" height="32" viewBox="0 0 32 32">
<title>as-emoji_surprised_square_round_glasses-1</title>
<path fill="#91908d" d="M19.2 21.736c0 1.768-1.432 3.2-3.2 3.2s-3.2-1.432-3.2-3.2c0-1.768 1.432-3.2 3.2-3.2s3.2 1.432 3.2 3.2zM3.2 6.4v-2.264c0-0.883 0.717-0.936 1.6-0.936h22.4c0.883 0 1.6 0.053 1.6 0.936v2.264h-25.6zM22.4 13.736v-4.136h6.4v6.4h-4.8c-0.883 0-1.6-1.381-1.6-2.264zM28.8 26.536c0 0.883-0.717 2.264-1.6 2.264h-22.4c-0.883 0-1.6-1.381-1.6-2.264v-7.336h6.4c1.768 0 3.2-2.096 3.2-3.864v-5.736h6.4v5.736c0 1.768 1.432 3.864 3.2 3.864h6.4v7.336zM3.2 9.6h6.4v4.136c0 0.883-0.717 2.264-1.6 2.264h-4.8v-6.4zM28.8 0h-25.6c-1.768 0-3.2 0.768-3.2 2.536v25.6c0 1.768 1.432 3.864 3.2 3.864h25.6c1.768 0 3.2-2.096 3.2-3.864v-25.6c0-1.768-1.432-2.536-3.2-2.536z"></path>
</svg>
