<!-- Generated by IcoMoon.io -->
<svg version="1.1" xmlns="http://www.w3.org/2000/svg" width="32" height="32" viewBox="0 0 32 32">
<title>as-emoji_surprised-4</title>
<path fill="#91908d" d="M19.2 21.639c0 1.768-1.432 3.2-3.2 3.2s-3.2-1.432-3.2-3.2c0-1.768 1.432-3.2 3.2-3.2s3.2 1.432 3.2 3.2zM19.2 6.401h-16v-2.264c0-0.885 0.717-0.936 1.6-0.936h22.4c0.883 0 1.6 0.051 1.6 0.936v2.264h-9.6zM22.4 16.001h6.4v-6.4h-6.4v6.4zM16 29.466c-5.986 0-11.011-5.466-12.403-10.266h9.203v-9.6h6.4v9.6h9.203c-1.392 4.8-6.418 10.266-12.403 10.266zM3.2 16.001h6.4v-6.4h-6.4v6.4zM28.8 0.001h-25.6c-1.768 0-3.2 0.768-3.2 2.536v16.664h0.317c0.475 1.6 1.475 4.206 2.883 6.086 1.851 2.472 7.339 6.714 12.8 6.714 5.368 0 11.37-4.779 12.8-6.69 1.408-1.88 2.408-4.51 2.883-6.11h0.317v-16.664c0-1.768-1.432-2.536-3.2-2.536z"></path>
</svg>
