<!-- Generated by IcoMoon.io -->
<svg version="1.1" xmlns="http://www.w3.org/2000/svg" width="32" height="32" viewBox="0 0 32 32">
<title>as-file_css-</title>
<path fill="#91908d" d="M31.56 9.838l-8.72-9.256c-0.302-0.318-0.722-0.581-1.16-0.581h-18.48c-1.766 0-3.2 1.6-3.2 3.366v11.2c0 0.883 0.717 1.6 1.6 1.6 0.885 0 1.6-0.717 1.6-1.6v-9.6c0-0.883 0.717-1.766 1.6-1.766h14.4v6.566c0 1.768 1.434 3.034 3.2 3.034h6.4v1.766c0 0.883 0.717 1.6 1.6 1.6 0.885 0 1.6-0.717 1.6-1.6v-3.627c0-0.411-0.157-0.805-0.44-1.102zM30.4 19.202h-4.8c-1.766 0-3.2 1.6-3.2 3.366v1.6c0 1.768 1.434 3.034 3.2 3.034h2.4c0.442 0 0.8 0.357 0.8 0.8 0 0.442-0.358 0.8-0.8 0.8h-4c-0.875 0-1.584 0.787-1.595 1.662 0.011 0.872 0.72 1.538 1.595 1.538h4.834c1.749 0 3.166-1.251 3.166-3v-1.667c0-1.749-1.418-3.333-3.166-3.333h-2.434c-0.442 0-0.8-0.358-0.8-0.8 0-0.443 0.358-0.8 0.8-0.8h4c0.885 0 1.6-0.634 1.6-1.517v-0.042c0-0.885-0.715-1.642-1.6-1.642zM22.4 30.485c0-0.008 0.005-0.014 0.005-0.021 0-0.008-0.005-0.014-0.005-0.021v0.042zM19.2 19.202h-4.8c-1.766 0-3.2 1.6-3.2 3.366v1.6c0 1.768 1.434 3.034 3.2 3.034h2.4c0.442 0 0.8 0.357 0.8 0.8 0 0.442-0.358 0.8-0.8 0.8h-4c-0.875 0-1.584 0.787-1.595 1.662 0.011 0.872 0.72 1.538 1.595 1.538h4.834c1.749 0 3.166-1.251 3.166-3v-1.667c0-1.749-1.418-3.333-3.166-3.333h-2.434c-0.442 0-0.8-0.358-0.8-0.8 0-0.443 0.358-0.8 0.8-0.8h4c0.885 0 1.6-0.634 1.6-1.517v-0.042c0-0.885-0.715-1.642-1.6-1.642zM11.2 30.485c0-0.008 0.005-0.014 0.005-0.021 0-0.008-0.005-0.014-0.005-0.021v0.042zM9.6 20.843v0.042c0 0.883-0.715 1.517-1.6 1.517h-1.6c-1.942 0-3.482 1.731-3.155 3.736 0.254 1.574 1.733 2.664 3.326 2.664h1.429c0.885 0 1.6 0.757 1.6 1.642v0.042c0 0.883-0.715 1.517-1.6 1.517h-1.325c-3.342 0-6.328-2.445-6.645-5.773-0.363-3.816 2.627-7.027 6.37-7.027h1.6c0.885 0 1.6 0.757 1.6 1.642z"></path>
</svg>
