<!-- Generated by IcoMoon.io -->
<svg version="1.1" xmlns="http://www.w3.org/2000/svg" width="32" height="32" viewBox="0 0 32 32">
<title>as-file_missing_love_favorite-1</title>
<path fill="#91908d" d="M6.56 23.694c-0.102 0.132-0.306 0.135-0.409 0.003-2.842-3.645-7.846 1.051-3.232 5.388 3.471 3.264 3.969 2.695 6.777 0.091 4.824-4.473-0.337-9.096-3.136-5.481zM29.068 16.834h2.642v-2.671h-2.642v2.671zM18.501 27.519h2.642v-2.671h-2.642v2.671zM23.785 27.519h2.642v-2.671h-2.642v2.671zM29.068 27.519h2.642v-2.671h-2.642v2.671zM5.293 3.478h2.642v-2.671h-2.642v2.671zM29.068 22.177h2.642v-2.671h-2.642v2.671zM10.576 3.478h2.642v-2.671h-2.642v2.671zM15.86 3.478h2.642v-2.671h-2.642v2.671zM5.293 8.82h2.642v-2.671h-2.642v2.671zM5.293 19.505h2.642v-2.671h-2.642v2.671zM13.218 27.519h2.642v-2.671h-2.642v2.671zM23.785 0.668h-2.642v10.685h10.567v-2.532l-7.925-8.153zM5.293 14.163h2.642v-2.671h-2.642v2.671z"></path>
</svg>
