<!-- Generated by IcoMoon.io -->
<svg version="1.1" xmlns="http://www.w3.org/2000/svg" width="32" height="32" viewBox="0 0 32 32">
<title>as-file_arrow_up-2</title>
<path fill="#91908d" d="M7.181 19.201h0.85c0.714 0 1.070 1.198 0.563 1.702l-8.133 8.256c-0.611 0.608-0.614 1.682-0.006 2.294 0.611 0.618 1.61 0.659 2.221 0.043l8.416-8.118c0.502-0.507 1.709-0.131 1.709 0.584v0.709c0 0.883 0.717 1.6 1.6 1.6s1.6-0.717 1.6-1.6v-4.8c0-1.768-2.115-3.87-3.882-3.87h-4.938c-0.875 0-1.587 0.702-1.6 1.576-0.013 0.893 0.707 1.624 1.6 1.624zM32 10.386v18.414c0 1.766-1.432 3.2-3.2 3.2h-14.4c-0.883 0-1.6-0.717-1.6-1.6s0.717-1.6 1.6-1.6h12.8c0.883 0 1.6-0.717 1.6-1.6v-14.4h-6.4c-1.766 0-3.2-1.434-3.2-3.2v-6.4h-14.4c-0.883 0-1.6 0.717-1.6 1.6v12.8c0 0.883-0.717 1.6-1.6 1.6s-1.6-0.717-1.6-1.6v-14.4c0-1.768 1.434-3.2 3.2-3.2h18.531c0.427 0 0.838 0.171 1.139 0.477l8.669 8.786c0.296 0.299 0.461 0.702 0.461 1.123z"></path>
</svg>
