<!-- Generated by IcoMoon.io -->
<svg version="1.1" xmlns="http://www.w3.org/2000/svg" width="32" height="32" viewBox="0 0 32 32">
<title>as-focus_plus_round-</title>
<path fill="#91908d" d="M27.636 20.364c0.803 0 1.455-0.652 1.455-1.455v-8.727c0-0.803-0.652-1.455-1.455-1.455s-1.455 0.652-1.455 1.455v8.727c0 0.803 0.652 1.455 1.455 1.455zM29.091 26.182v-1.455c0-0.803-0.652-1.455-1.455-1.455s-1.455 0.652-1.455 1.455v1.455h-1.455c-0.803 0-1.455 0.652-1.455 1.455s0.652 1.455 1.455 1.455h1.455v1.455c0 0.803 0.652 1.455 1.455 1.455s1.455-0.652 1.455-1.455v-1.455h1.455c0.803 0 1.455-0.652 1.455-1.455s-0.652-1.455-1.455-1.455h-1.455zM26.166 0h-1.439c-0.803 0-1.455 0.652-1.455 1.455s0.652 1.455 1.455 1.455c0.803 0 1.455 0.652 1.455 1.455s0.652 1.455 1.455 1.455c0.803 0 1.455-0.652 1.455-1.455v-1.439c0-1.616-1.309-2.925-2.925-2.925zM1.455 8.727c-0.803 0-1.455 0.652-1.455 1.455v8.727c0 0.803 0.652 1.455 1.455 1.455s1.455-0.652 1.455-1.455v-8.727c0-0.803-0.652-1.455-1.455-1.455zM1.455 23.273c-0.803 0-1.455 0.652-1.455 1.455v1.449c0 1.61 1.305 2.915 2.915 2.915h1.449c0.803 0 1.455-0.652 1.455-1.455s-0.652-1.455-1.455-1.455c-0.803 0-1.455-0.652-1.455-1.455s-0.652-1.455-1.455-1.455zM0 2.886v1.478c0 0.803 0.652 1.455 1.455 1.455s1.455-0.652 1.455-1.455v-0.007c0-0.799 0.649-1.447 1.447-1.447h0.007c0.803 0 1.455-0.652 1.455-1.455s-0.652-1.455-1.455-1.455h-1.478c-1.594 0-2.886 1.292-2.886 2.886zM10.182 29.091h8.727c0.803 0 1.455-0.652 1.455-1.455s-0.652-1.455-1.455-1.455h-8.727c-0.803 0-1.455 0.652-1.455 1.455s0.652 1.455 1.455 1.455zM8.727 1.455c0-0.803 0.652-1.455 1.455-1.455h8.727c0.803 0 1.455 0.652 1.455 1.455s-0.652 1.455-1.455 1.455h-8.727c-0.803 0-1.455-0.652-1.455-1.455z"></path>
</svg>
