<!-- Generated by IcoMoon.io -->
<svg version="1.1" xmlns="http://www.w3.org/2000/svg" width="32" height="32" viewBox="0 0 32 32">
<title>as-folder_minus_minus-</title>
<path fill="#91908d" d="M21.156 19.201c0 0.883-0.717 1.6-1.6 1.6h-6.4c-0.883 0-1.6-0.717-1.6-1.6s0.717-1.6 1.6-1.6h6.4c0.883 0 1.6 0.717 1.6 1.6zM28.799 27.201c0 0.883-0.36 1.6-1.243 1.6h-22.4c-0.883 0-1.957-0.717-1.957-1.6v-22.4c0-0.883 1.074-1.6 1.957-1.6h5.368c0.611 0 1.17 0.347 1.437 0.896l1.818 3.71c0.538 1.098 1.653 1.794 2.874 1.794h10.904c0.883 0 1.243 0.717 1.243 1.6v16zM29.156 6.401h-10.822c-1.211 0-2.32-0.685-2.862-1.77l-1.43-2.861c-0.542-1.085-1.651-1.77-2.862-1.77h-7.622c-1.768 0-3.557 1.432-3.557 3.2v25.6c0 1.768 1.789 3.2 3.557 3.2h25.6c1.768 0 2.843-1.432 2.843-3.2v-19.2c0-1.768-1.075-3.2-2.843-3.2z"></path>
</svg>
