<!-- Generated by IcoMoon.io -->
<svg version="1.1" xmlns="http://www.w3.org/2000/svg" width="32" height="32" viewBox="0 0 32 32">
<title>as-file_header-</title>
<path fill="#91908d" d="M16 7.98v3.192c0 0.881-0.717 1.596-1.6 1.596h-6.4c-0.883 0-1.6-0.715-1.6-1.596v-3.192c0-0.881 0.717-1.596 1.6-1.596h6.4c0.883 0 1.6 0.715 1.6 1.596zM28.8 27.298c0 0.881-0.717 1.428-1.6 1.428h-22.4c-0.883 0-1.6-0.547-1.6-1.428v-22.342c0-0.883 0.717-1.763 1.6-1.763h14.4v6.551c0 1.762 1.432 3.024 3.2 3.024h6.4v14.53zM31.531 9.234l-8.662-8.683c-0.301-0.298-0.707-0.551-1.131-0.551h-18.538v0.083c-1.768 0-3.2 1.471-3.2 3.233v25.577c0 1.762 1.432 3.107 3.2 3.107v-0.083h25.6v0.083c1.768 0 3.2-1.387 3.2-3.15v-18.446c0-0.423-0.168-0.871-0.469-1.17z"></path>
</svg>
