<!-- Generated by IcoMoon.io -->
<svg version="1.1" xmlns="http://www.w3.org/2000/svg" width="19" height="32" viewBox="0 0 19 32">
<title>as-hot_air_balloon-</title>
<path fill="#91908d" d="M8 28.8h3.2v-3.2h-3.2v3.2zM4.8 32h9.6v-9.6h-9.6v9.6zM13.059 16.034c-4.288-0.045-2.71-0.045-6.92 0-1.37-1.744-2.939-5.17-2.939-6.672 0-3.398 2.87-6.162 6.4-6.162s6.4 2.763 6.4 6.162c0 1.502-1.57 4.928-2.941 6.672zM9.6 0c-5.302 0-9.6 4.19-9.6 9.362 0 2.859 2.73 8.168 4.8 9.886 5.894-0.062 3.706-0.062 9.6 0 2.070-1.718 4.8-7.027 4.8-9.886 0-5.171-4.298-9.362-9.6-9.362z"></path>
</svg>
