<!-- Generated by IcoMoon.io -->
<svg version="1.1" xmlns="http://www.w3.org/2000/svg" width="32" height="32" viewBox="0 0 32 32">
<title>as-home-</title>
<path fill="#91908d" d="M26.105 27.305c0 0.93-0.755 1.327-1.684 1.327h-1.684c-0.93 0-1.684-0.397-1.684-1.327v-1.684c0-1.861-1.507-3.725-3.368-3.725h-3.368c-1.861 0-3.368 1.864-3.368 3.725v1.684c0 0.93-0.755 1.327-1.684 1.327h-1.684c-0.93 0-1.684-0.397-1.684-1.327v-13.58c0-0.224 0.089-0.438 0.246-0.596l8.652-8.65c0.659-0.659 1.725-0.659 2.381 0l8.685 8.684c0.157 0.158 0.246 0.372 0.246 0.595v13.548zM29.474 12.842c0-0.446-0.177-0.872-0.49-1.189l-10.609-10.661c-1.314-1.319-3.448-1.324-4.766-0.010l-10.587 10.552c-0.317 0.317-0.495 0.744-0.495 1.192v16.263c0 1.861 1.507 3.011 3.368 3.011h5.053c1.861 0 3.368-1.15 3.368-3.011v-1.684c0-0.93 0.755-1.684 1.684-1.684s1.684 0.755 1.684 1.684v1.684c0 1.861 1.507 3.011 3.368 3.011h5.053c1.861 0 3.368-1.15 3.368-3.011v-16.146z"></path>
</svg>
