<!-- Generated by IcoMoon.io -->
<svg version="1.1" xmlns="http://www.w3.org/2000/svg" width="32" height="32" viewBox="0 0 32 32">
<title>as-image_picture-6</title>
<path fill="#91908d" d="M19.333 14.073c0-1.748 1.434-3.164 3.2-3.164 1.768 0 3.2 1.416 3.2 3.164s-1.432 3.164-3.2 3.164c-1.766 0-3.2-1.416-3.2-3.164zM28.8 25.809l-6.421-6.346-0.026 0.024-0.024-0.024-2.29 2.262-7.406-7.321-0.024 0.025-0.026-0.025-9.384 9.277v-13.827h25.6v15.954zM18.171 28.836l4.182-4.135 4.184 4.135h-8.366zM13.646 28.836h-10.336l9.299-9.589 5.168 5.307-4.131 4.282zM15.957 4.869l1.843 1.822h-3.686l1.843-1.822zM22.325 6.691l-6.368-6.691c-2.85 3.066-1.442 1.583-6.368 6.691h-9.589v25.309h32v-25.309h-9.675z"></path>
</svg>
