<!-- Generated by IcoMoon.io -->
<svg version="1.1" xmlns="http://www.w3.org/2000/svg" width="22" height="32" viewBox="0 0 22 32">
<title>as-light_bulb-</title>
<path fill="#91908d" d="M17.799 25.376c-1.521 2.176-3.91 3.424-6.552 3.424-2.641 0-5.029-1.248-6.55-3.424-1.523-2.176-1.885-4.861-0.997-7.368l1.847-5.208h11.403l1.847 5.208c0.888 2.507 0.524 5.192-0.997 7.368zM6.389 9.6h9.528v-6.4h-9.528v6.4zM21.739 16.931l-2.646-7.331v-9.6h-15.88v9.6l-2.552 7.331c-2.603 7.344 2.8 15.069 10.538 15.069 7.74 0 13.142-7.725 10.539-15.069z"></path>
</svg>
