<!-- Generated by IcoMoon.io -->
<svg version="1.1" xmlns="http://www.w3.org/2000/svg" width="32" height="32" viewBox="0 0 32 32">
<title>as-love-</title>
<path fill="#91908d" d="M19.189 24.558c-0.877 0.745-2.003 1.156-3.173 1.156-1.168 0-2.298-0.409-3.21-1.179-5.75-4.845-9.411-7.415-9.602-12.686-0.2-5.579 5.912-7.618 9.659-3.034 0.758 0.926 1.898 1.457 3.126 1.457 1.24 0 2.387-0.537 3.147-1.475 3.666-4.51 9.941-2.589 9.654 3.215-0.256 5.163-4.058 7.829-9.603 12.546zM16.62 6.896c-0.157 0.194-0.394 0.291-0.629 0.291-0.23 0-0.459-0.094-0.613-0.282-5.669-6.933-15.678-3.48-15.371 5.051 0.245 6.789 5.058 10.155 10.725 14.929 1.515 1.276 3.4 1.915 5.285 1.915 1.89 0 3.778-0.641 5.29-1.927 5.605-4.768 10.357-8.111 10.682-14.715 0.432-8.722-9.714-12.224-15.368-5.262z"></path>
</svg>
