<!-- Generated by IcoMoon.io -->
<svg version="1.1" xmlns="http://www.w3.org/2000/svg" width="22" height="32" viewBox="0 0 22 32">
<title>as-lock_circle_open-</title>
<path fill="#91908d" d="M11.2 19.267c0.883 0 1.6 0.718 1.6 1.602s-0.717 1.602-1.6 1.602-1.6-0.718-1.6-1.602c0-0.884 0.717-1.602 1.6-1.602zM11.2 25.675c2.646 0 4.8-2.156 4.8-4.806s-2.154-4.806-4.8-4.806-4.8 2.156-4.8 4.806c0 2.65 2.154 4.806 4.8 4.806zM3.2 28.796v-16.021h16v16.021h-16zM8 9.571v-3.121c0-1.767 1.435-3.246 3.2-3.246s3.2 1.56 3.2 3.163h3.2c0-3.204-2.866-6.367-6.4-6.367s-6.4 2.911-6.4 6.45v3.121h-4.8v22.429h22.4v-22.429h-14.4z"></path>
</svg>
