<!-- Generated by IcoMoon.io -->
<svg version="1.1" xmlns="http://www.w3.org/2000/svg" width="32" height="32" viewBox="0 0 32 32">
<title>as-microphone-3</title>
<path fill="#91908d" d="M24.266 24.287c-0.878 0.875-1.080 1.186-2.269 0l-1.389-1.386c0.847-0.658 1.609-1.418 2.269-2.264l1.389 1.387c1.17 1.167 1.089 1.176 0 2.263zM16.718 21.531c-7.992 3.634-16.44-4.951-12.672-12.846 3.54-7.422 14.596-7.065 17.645 0.573 1.871 4.689-0.371 10.184-4.972 12.273zM16.506 21.629c-0.080 0.035-0.072 0.032 0 0v0zM31.528 29.267l-3.859-3.848c1.253-1.25 1.253-3.276 0-4.525l-3.105-3.098c3.987-9.366-4.647-19.673-14.58-17.503-9.289 2.029-13.151 13.522-7.004 20.74 3.601 4.229 9.629 5.733 14.778 3.552l3.105 3.096c1.253 1.25 3.284 1.25 4.538 0l3.859 3.848c1.46 1.456 3.732-0.803 2.269-2.263z"></path>
</svg>
