<!-- Generated by IcoMoon.io -->
<svg version="1.1" xmlns="http://www.w3.org/2000/svg" width="34" height="32" viewBox="0 0 34 32">
<title>as-minus_circle-2</title>
<path fill="#91908d" d="M22.404 15.999c0 0.883-0.717 1.6-1.6 1.6h-9.6c-0.883 0-1.6-0.717-1.6-1.6s0.717-1.6 1.6-1.6h9.6c0.883 0 1.6 0.717 1.6 1.6zM16.004 28.8c-7.058 0-12.8-5.742-12.8-12.8s5.742-12.8 12.8-12.8c7.058 0 12.8 5.742 12.8 12.8s-5.742 12.8-12.8 12.8zM16.004-0.001c-8.837 0-16 7.163-16 16s7.163 16 16 16c8.837 0 16-7.163 16-16s-7.163-16-16-16z"></path>
</svg>
