<!-- Generated by IcoMoon.io -->
<svg version="1.1" xmlns="http://www.w3.org/2000/svg" width="32" height="32" viewBox="0 0 32 32">
<title>as-moon-8</title>
<path fill="#91908d" d="M15.984 28.797c-4.163 0-7.891-2-10.237-5.112 10.609 2.17 20.126-7.244 17.938-17.938 3.112 2.346 5.112 6.075 5.112 10.237 0 7.065-5.748 12.813-12.813 12.813zM16.977 0c2.345 2.191 3.812 5.313 3.812 8.777 0 10.942-13.415 16.091-20.789 8.199 0.512 8.384 7.471 15.025 15.984 15.025 8.846 0 16.016-7.17 16.016-16.016 0-8.512-6.64-15.471-15.023-15.984z"></path>
</svg>
