<!-- Generated by IcoMoon.io -->
<svg version="1.1" xmlns="http://www.w3.org/2000/svg" width="32" height="32" viewBox="0 0 32 32">
<title>as-music-2</title>
<path fill="#91908d" d="M28.798 0h-16.010c-1.768 0-3.202 1.432-3.202 3.2v16.856c-1.599-0.544-2.021-0.856-3.183-0.856-2.807-0.002-5.325 1.765-6.118 4.456-1.26 4.285 1.825 8.2 5.882 8.341 3.671 0.126 6.62-3.053 6.62-6.723v-20.473c0-0.883 0.717-1.6 1.601-1.6h12.808c0.884 0 1.601 0.717 1.601 1.6v15.256c-1.599-0.544-2.020-0.856-3.183-0.856-2.807-0.002-5.325 1.765-6.117 4.456-1.26 4.285 1.825 8.2 5.882 8.341 3.671 0.126 6.62-3.053 6.62-6.723v-22.073c0-1.768-1.433-3.2-3.202-3.2z"></path>
</svg>
