<!-- Generated by IcoMoon.io -->
<svg version="1.1" xmlns="http://www.w3.org/2000/svg" width="32" height="32" viewBox="0 0 32 32">
<title>as-music-</title>
<path fill="#91908d" d="M32 3.282v15.212c0 3.761-2.918 7.033-6.579 6.94-4.194-0.108-7.422-4.368-5.846-8.929 0.869-2.514 3.302-4.157 5.899-4.198 1.24-0.018 1.688 0.304 3.332 0.878v-4.981c0-0.906-0.716-1.641-1.597-1.641h-12.778c-0.882 0-1.597 0.735-1.597 1.641v16.848c0 3.779-2.945 7.063-6.622 6.943-3.52-0.115-6.348-3.152-6.205-6.828 0.139-3.543 3.179-6.221 6.63-6.303 1.631-0.039 1.928 0.217 3.003 0.884v-16.468c0-1.813 1.431-3.282 3.195-3.282h15.973c1.765 0 3.195 1.469 3.195 3.282z"></path>
</svg>
