<!-- Generated by IcoMoon.io -->
<svg version="1.1" xmlns="http://www.w3.org/2000/svg" width="32" height="32" viewBox="0 0 32 32">
<title>as-nightlight-</title>
<path fill="#91908d" d="M27.2 24h-22.4c-0.883 0-1.6-0.717-1.6-1.6s0.717-1.6 1.6-1.6h22.4c0.883 0 1.6 0.717 1.6 1.6s-0.717 1.6-1.6 1.6zM16 11.2c3.926 0 7.883 2.005 9.168 6.4h-18.336c1.285-4.395 5.242-6.4 9.168-6.4zM28.454 17.6c-1.202-5.515-5.512-8.938-10.854-9.506v-3.294h-3.2v3.294c-5.342 0.568-9.653 3.99-10.854 9.506-2.379 0-3.546 1.587-3.546 3.2v3.2c0 1.768 1.434 3.2 3.2 3.2h25.6c1.768 0 3.2-1.432 3.2-3.2v-3.2c0-1.616-1.165-3.2-3.546-3.2z"></path>
</svg>
