<!-- Generated by IcoMoon.io -->
<svg version="1.1" xmlns="http://www.w3.org/2000/svg" width="32" height="32" viewBox="0 0 32 32">
<title>as-profile_image_plus_round-</title>
<path fill="#91908d" d="M31.304 26.441c0 0.766-0.623 1.388-1.391 1.388h-1.391v1.46c0 0.766-0.623 1.388-1.391 1.388s-1.391-0.622-1.391-1.388v-1.46h-1.391c-0.768 0-1.391-0.622-1.391-1.388s0.623-1.388 1.391-1.388h1.391v-1.316c0-0.766 0.623-1.388 1.391-1.388s1.391 0.622 1.391 1.388v1.316h1.391c0.768 0 1.391 0.622 1.391 1.388zM15.475 13.855c-0.301-0.025-0.602-0.046-0.91-0.046-0.282 0-0.559 0.021-0.836 0.042-1.88-0.404-3.295-2.072-3.295-4.067 0-2.296 1.873-4.164 4.174-4.164s4.174 1.868 4.174 4.164c0 1.999-1.421 3.671-3.307 4.071zM3.503 23.665c-0.019 0.007-0.006 0.001-0.025 0.008v-19.449c0-0.766 0.623-1.38 1.391-1.38h9.526c-3.743 0.114-6.744 3.174-6.744 6.936 0 2.004 0.865 3.799 2.229 5.066-3.448 1.596-5.941 4.891-6.378 8.818zM21.43 8.382c-0.57-2.929-3.161-5.494-6.73-5.538h9.647c0.768 0 1.391 0.622 1.391 1.388v12.492c0 0.766 0.623 1.388 1.391 1.388s1.391-0.622 1.391-1.388v-13.88c0-1.534-1.245-2.776-2.783-2.776h-22.261c-1.537 0-2.783 1.242-2.783 2.776v22.208c0 1.532 1.245 2.776 2.783 2.776h13.913c0.768 0 1.391-0.622 1.391-1.388s-0.623-1.388-1.391-1.388h-11.165c-0.001 0-0.008-0.092-0.008-0.148 0-8.464 10.276-9.583 12.857-7.19 1.493 1.384 3.428-0.822 1.928-1.884-0.531-0.378-1.099-0.709-1.699-0.991 1.689-1.55 2.628-3.874 2.126-6.457z"></path>
</svg>
