<!-- Generated by IcoMoon.io -->
<svg version="1.1" xmlns="http://www.w3.org/2000/svg" width="32" height="32" viewBox="0 0 32 32">
<title>as-profile_plus-1</title>
<path fill="#91908d" d="M25.661 0c-0.005 0-0.010 0.003-0.014 0.003s-0.008-0.003-0.013-0.003h0.027zM32 6.4c0 0.883-0.719 1.6-1.606 1.6h-3.1v3.2c0 0.883-0.747 1.6-1.633 1.6h-0.027c-0.888 0-1.551-0.717-1.551-1.6v-3.2h-3.322c-0.886 0-1.606-0.717-1.606-1.6s0.719-1.6 1.606-1.6h3.322v-3.2c0-0.878 0.684-1.589 1.564-1.597 0.881 0.008 1.647 0.718 1.647 1.597v3.2h3.1c0.886 0 1.606 0.717 1.606 1.6zM12.801 19.043c-0.022 0-0.045-0.003-0.067-0.003s-0.045 0.003-0.067 0.003c-1.739-0.037-3.144-1.451-3.144-3.194 0-1.765 1.44-3.2 3.211-3.2s3.211 1.435 3.211 3.2c0 1.742-1.405 3.157-3.144 3.194zM17.592 19.992c1.331-1.549 1.973-3.704 1.283-6.034-0.637-2.15-2.452-3.846-4.646-4.341-4.197-0.942-7.917 2.211-7.917 6.232 0 1.589 0.602 3.024 1.564 4.142-4.147 1.688-7.212 5.603-7.859 10.195-0.135 0.958 0.634 1.813 1.604 1.813 0.793 0 1.464-0.581 1.577-1.365 0.662-4.651 4.651-8.358 9.47-8.392 0.022 0 0.043 0.006 0.067 0.006 0.022 0 0.045-0.006 0.067-0.006 4.818 0.034 8.808 3.741 9.47 8.394 0.111 0.782 0.782 1.363 1.577 1.363 0.97 0 1.739-0.854 1.604-1.811-0.647-4.592-3.712-8.507-7.859-10.197z"></path>
</svg>
