<!-- Generated by IcoMoon.io -->
<svg version="1.1" xmlns="http://www.w3.org/2000/svg" width="32" height="32" viewBox="0 0 32 32">
<title>as-profile_minus-1</title>
<path fill="#91908d" d="M19.2 5.597h12.8v-3.197h-12.8v3.197zM12.867 16.628c-0.022 0-0.045-0.003-0.067-0.003s-0.045 0.003-0.067 0.003c-1.733-0.037-3.133-1.45-3.133-3.19 0-1.763 1.435-3.197 3.2-3.197s3.2 1.434 3.2 3.197c0 1.741-1.4 3.154-3.133 3.19zM17.642 17.576c0.958-1.117 1.558-2.551 1.558-4.138 0-3.531-2.866-6.393-6.4-6.393s-6.4 2.863-6.4 6.393c0 1.587 0.6 3.021 1.558 4.138-4.667 1.904-7.958 6.646-7.958 11.995 0 0.064 0.008 0 0.010 0h3.19c0-5.265 4.27-9.71 9.533-9.747 0.022 0 0.043 0.006 0.067 0.006s0.045-0.006 0.067-0.006c5.262 0.037 9.533 4.482 9.533 9.747h3.2c0-5.35-3.291-10.090-7.958-11.995z"></path>
</svg>
