<!-- Generated by IcoMoon.io -->
<svg version="1.1" xmlns="http://www.w3.org/2000/svg" width="32" height="32" viewBox="0 0 32 32">
<title>as-profile_minus_minus-</title>
<path fill="#91908d" d="M19.2 5.6h12.8v-3.2h-12.8v3.2zM3.699 26.4c1.266-3.787 4.829-6.528 9.034-6.557 0.022 0 0.043 0.006 0.067 0.006s0.045-0.006 0.067-0.006c4.206 0.029 7.771 2.768 9.037 6.557h-18.205zM12.8 10.25c1.765 0 3.2 1.435 3.2 3.2 0 1.742-1.4 3.157-3.133 3.194-0.022 0-0.045-0.003-0.067-0.003s-0.045 0.003-0.067 0.003c-1.733-0.037-3.133-1.451-3.133-3.194 0-1.765 1.435-3.2 3.2-3.2zM17.642 17.592c0.958-1.118 1.558-2.554 1.558-4.142 0-3.534-2.866-6.4-6.4-6.4s-6.4 2.866-6.4 6.4c0 1.589 0.6 3.024 1.558 4.142-4.667 1.906-7.958 6.477-7.958 11.832 0 0.064 0.008 0.176 0.010 0.176h25.581c0 0 0.010-0.106 0.010-0.171 0-5.354-3.291-9.93-7.958-11.837z"></path>
</svg>
