<!-- Generated by IcoMoon.io -->
<svg version="1.1" xmlns="http://www.w3.org/2000/svg" width="22" height="32" viewBox="0 0 22 32">
<title>as-pin_fill_sharp_circle-</title>
<path fill="#91908d" d="M16 12.216c0-2.651-2.149-4.8-4.8-4.8s-4.8 2.149-4.8 4.8c0 2.651 2.149 4.8 4.8 4.8s4.8-2.149 4.8-4.8zM22.4 11.2c0 6.186-11.2 20.8-11.2 20.8s-11.2-14.614-11.2-20.8c0-6.186 5.014-11.2 11.2-11.2s11.2 5.014 11.2 11.2zM12.8 12.216c0 0.882-0.718 1.6-1.6 1.6s-1.6-0.718-1.6-1.6c0-0.882 0.718-1.6 1.6-1.6s1.6 0.718 1.6 1.6z"></path>
</svg>
