<!-- Generated by IcoMoon.io -->
<svg version="1.1" xmlns="http://www.w3.org/2000/svg" width="32" height="32" viewBox="0 0 32 32">
<title>as-remote-</title>
<path fill="#91908d" d="M27.656 6.614l-2.269-2.269c-0.628-0.628-1.644-0.628-2.269 0l-4.961 4.959 4.54 4.539 4.959-4.959c0.628-0.626 0.628-1.642 0-2.269zM20.428 16.113l-4.54-4.54-11.543 11.544c-0.628 0.626-0.628 1.642 0 2.269l2.269 2.269c0.628 0.628 1.643 0.628 2.269 0l11.544-11.542zM31.061 10.018l-21.042 21.042c-1.253 1.253-3.285 1.253-4.539 0l-4.539-4.539c-1.253-1.253-1.253-3.285 0-4.54l21.041-21.040c1.253-1.255 3.287-1.255 4.54 0l4.539 4.539c1.253 1.253 1.253 3.285 0 4.539zM13.618 16.113c-0.626 0.626-0.626 1.642 0 2.269 0.628 0.626 1.643 0.626 2.269 0 0.627-0.628 0.627-1.643 0-2.269-0.626-0.627-1.642-0.627-2.269 0zM11.349 20.652c0.626 0.628 0.626 1.643 0 2.269-0.628 0.628-1.643 0.628-2.269 0-0.628-0.626-0.628-1.642 0-2.269 0.626-0.626 1.642-0.626 2.269 0z"></path>
</svg>
