<!-- Generated by IcoMoon.io -->
<svg version="1.1" xmlns="http://www.w3.org/2000/svg" width="32" height="32" viewBox="0 0 32 32">
<title>as-satellite-</title>
<path fill="#91908d" d="M27.852 22.963l2.26 2.259-6.781 6.778-2.262-2.259 6.783-6.778zM26.349 21.462l-6.783 6.776-2.26-2.259 6.781-6.778 2.262 2.26zM6.001 14.684l-2.262-2.259 6.783-6.778 2.26 2.259-6.781 6.778zM9.044 4.169l-6.781 6.778-2.262-2.259 6.783-6.778 2.26 2.259zM11.652 22.591l-2.26-2.26 6.783-6.776c1.388 1.387 0.871 0.872 2.26 2.259l-6.783 6.778zM22.514 6.334l3.146 3.144-4.089 0.944 0.943-4.088zM20.979 13.837l11.021-2.542-11.304-11.296-2.543 11.013-1.978-1.978-11.304 11.296 6.781 6.778 11.304-11.296-1.977-1.976z"></path>
</svg>
