<!-- Generated by IcoMoon.io -->
<svg version="1.1" xmlns="http://www.w3.org/2000/svg" width="32" height="32" viewBox="0 0 32 32">
<title>as-sun_star-</title>
<path fill="#91908d" d="M4.686 6.949c-0.626-0.626-0.626-1.638 0-2.262 0.626-0.626 1.638-0.626 2.262 0 0.626 0.624 0.626 1.637 0 2.262-0.624 0.626-1.637 0.626-2.262 0zM27.314 25.051c0.626 0.624 0.626 1.637 0 2.262-0.624 0.624-1.638 0.624-2.262 0-0.626-0.626-0.626-1.638 0-2.262 0.624-0.626 1.638-0.626 2.262 0zM6.949 25.051c0.626 0.624 0.626 1.637 0 2.262-0.624 0.624-1.637 0.624-2.262 0-0.626-0.626-0.626-1.638 0-2.262 0.626-0.626 1.638-0.626 2.262 0zM27.314 4.686c0.626 0.624 0.626 1.637 0 2.262-0.624 0.626-1.638 0.626-2.262 0-0.626-0.626-0.626-1.638 0-2.262 0.624-0.626 1.638-0.626 2.262 0zM3.2 16c0 0.883-0.717 1.6-1.6 1.6s-1.6-0.717-1.6-1.6c0-0.883 0.717-1.6 1.6-1.6s1.6 0.717 1.6 1.6zM32 16c0 0.883-0.717 1.6-1.6 1.6s-1.6-0.717-1.6-1.6c0-0.883 0.717-1.6 1.6-1.6s1.6 0.717 1.6 1.6zM17.6 30.4c0 0.883-0.717 1.6-1.6 1.6s-1.6-0.717-1.6-1.6c0-0.883 0.717-1.6 1.6-1.6s1.6 0.717 1.6 1.6zM14.4 1.6c0-0.883 0.717-1.6 1.6-1.6s1.6 0.717 1.6 1.6c0 0.883-0.717 1.6-1.6 1.6s-1.6-0.717-1.6-1.6zM23.838 17.6h-7.838c-0.883 0-1.6 0.717-1.6 1.6s0.717 1.6 1.6 1.6h6.36c-1.462 1.931-3.757 3.2-6.36 3.2-4.973 0-8.899-4.56-7.821-9.718 0.65-3.101 3.21-5.57 6.325-6.144 3.208-0.59 6.118 0.768 7.856 3.062h-6.36c-0.883 0-1.6 0.717-1.6 1.6s0.717 1.6 1.6 1.6h7.838c0.216 1.059 0.216 2.141 0 3.2zM16 4.8c-6.186 0-11.2 5.014-11.2 11.2s5.014 11.2 11.2 11.2c6.186 0 11.2-5.014 11.2-11.2s-5.014-11.2-11.2-11.2z"></path>
</svg>
