<!-- Generated by IcoMoon.io -->
<svg version="1.1" xmlns="http://www.w3.org/2000/svg" width="32" height="32" viewBox="0 0 32 32">
<title>as-sign_round-2</title>
<path fill="#91908d" d="M9.6 6.4h6.4v-3.2h-6.4v3.2zM22.4 17.6c0 0.883-0.717 1.6-1.6 1.6h-16c-0.883 0-1.6-0.717-1.6-1.6v-6.4c0-0.883 0.717-1.6 1.6-1.6h16c0.883 0 1.6 0.717 1.6 1.6v6.4zM28.8 0h-27.2c-0.883 0-1.6 0.717-1.6 1.6s0.717 1.6 1.6 1.6h4.8v3.2h-3.2c-1.768 0-3.2 1.432-3.2 3.2v9.6c0 1.768 1.432 3.2 3.2 3.2h19.2c1.768 0 3.2-1.432 3.2-3.2v-9.6c0-1.768-1.432-3.2-3.2-3.2h-3.2v-3.2h7.995c0.886 0 1.605 0.718 1.605 1.605v25.595c0 0.883 0.717 1.6 1.6 1.6s1.6-0.717 1.6-1.6v-27.2c0-1.768-1.432-3.2-3.2-3.2z"></path>
</svg>
