<!-- Generated by IcoMoon.io -->
<svg version="1.1" xmlns="http://www.w3.org/2000/svg" width="29" height="32" viewBox="0 0 29 32">
<title>as-scroll_down-</title>
<path fill="#91908d" d="M7.999 25.6c-0.883 0-1.6 0.717-1.6 1.6v3.2c0 0.883 0.717 1.6 1.6 1.6s1.6-0.717 1.6-1.6v-3.2c0-0.883-0.717-1.6-1.6-1.6zM6.399 14.949c0 0.885 0.717 1.6 1.6 1.6s1.6-0.715 1.6-1.6v-8.218c0-0.714 1.070-1.070 1.574-0.566l2.796 2.693c0.624 0.624 1.731 0.624 2.355 0 0.625-0.626 0.63-1.638 0.005-2.262l-5.656-5.659c-1.248-1.248-3.273-1.248-4.522 0l-0.573 0.57-5.098 5.088c-0.625 0.626-0.646 1.64-0.021 2.264 0.625 0.626 1.596 0.626 2.222 0l2.562-2.69c0.504-0.504 1.156-0.147 1.156 0.566v8.214zM28.447 22.938l-6.267 3.451c-0.627 0.435-1.476 0.35-2.017-0.19-0.694-0.694-0.593-1.862 0.21-2.427l1.907-1.371h-13.588c-0.883 0-1.604-0.683-1.604-1.568 0-1.136 1.028-1.566 1.593-1.566l8.057-0.013 0.614-6.907c0.51-1.531 1.951-2.443 3.533-2.126l5.683 0.531c1.496 0.299 2.225 1.613 2.225 3.138v7.736c0 0.526 0.088 1.014-0.345 1.314z"></path>
</svg>
