<!-- Generated by IcoMoon.io -->
<svg version="1.1" xmlns="http://www.w3.org/2000/svg" width="32" height="32" viewBox="0 0 32 32">
<title>as-shaded-1</title>
<path fill="#91908d" d="M28.8 9.875l-18.811 18.925h-4.526l23.338-23.45v4.525zM28.8 18.926l-9.762 9.874h-4.525l14.286-14.4v4.526zM28.8 27.199c0 0.885-0.717 1.6-1.6 1.6h-3.635l5.235-5.349v3.749zM3.2 21.899l18.811-18.699h4.526l-23.338 23.224v-4.525zM3.2 12.847l9.762-9.648h4.525l-14.286 14.173v-4.525zM3.2 4.799c0-0.883 0.717-1.6 1.6-1.6h3.635l-5.235 5.122v-3.522zM28.8-0.001h-25.6c-1.766 0-3.2 1.434-3.2 3.2v25.6c0 1.768 1.434 3.2 3.2 3.2h25.6c1.766 0 3.2-1.432 3.2-3.2v-25.6c0-1.766-1.434-3.2-3.2-3.2z"></path>
</svg>
