<!-- Generated by IcoMoon.io -->
<svg version="1.1" xmlns="http://www.w3.org/2000/svg" width="32" height="32" viewBox="0 0 32 32">
<title>as-snapchat-</title>
<path fill="#91908d" d="M16.201 31.2c-2.059 0-2.957-0.463-4.707-1.716-1.584-1.133-2.6-1.756-5.541-1.175-1.147 0.227-1.125 0.123-1.371-1.023-0.131-0.604-0.226-0.971-0.45-1.007-2.389-0.372-3.802-0.923-4.083-1.588-0.134-0.32 0.026-0.573 0.272-0.615 3.115-0.518 5.634-3.133 6.726-5.708 0.003-0.006 0.005-0.013 0.008-0.018 0.277-0.567 0.331-1.056 0.165-1.454-0.376-0.897-1.587-1.085-2.456-1.434-0.598-0.24-1.582-0.745-1.451-1.441 0.12-0.638 1.142-1.043 1.69-0.784 1.374 0.652 2.475 0.453 2.805 0.146-0.016-0.312 0.192-0.651 0.192-0.968 0-2.207-0.557-4.952 0.138-6.526 2.997-6.8 12.994-6.766 15.974-0.003 0.694 1.575 0.523 4.323 0.386 6.533l-0.006 0.105c-0.019 0.3-0.037 0.583-0.051 0.858 0.064 0.060 0.322 0.267 0.848 0.288 0.446-0.018 0.962-0.164 1.528-0.432 0.667-0.316 1.869 0.168 1.882 0.894 0.006 0.338-0.242 0.844-1.462 1.331-0.866 0.346-2.080 0.537-2.454 1.434-0.168 0.398-0.114 0.887 0.163 1.452 0.003 0.006 0.005 0.013 0.008 0.019 0.085 0.202 2.141 4.944 6.726 5.708 0.194 0.032 0.333 0.207 0.322 0.405-0.005 0.071-0.021 0.142-0.051 0.212-0.28 0.662-1.691 1.211-4.082 1.583-0.224 0.036-0.318 0.403-0.448 1.004-0.197 0.913-0.166 1.227-1.373 0.988-2.909-0.573-4.011 0.12-5.539 1.213-1.126 0.806-2.4 1.721-4.306 1.721z"></path>
</svg>
