<!-- Generated by IcoMoon.io -->
<svg version="1.1" xmlns="http://www.w3.org/2000/svg" width="32" height="32" viewBox="0 0 32 32">
<title>as-shuffle-</title>
<path fill="#91908d" d="M21.559 17.635l-1.81 1.998 4.15 4.302h-1.499c-4.242 0-7.68-3.385-7.68-7.56 0-5.567-4.585-10.081-10.24-10.081h-1.28v2.52h1.28c4.242 0 7.68 3.385 7.68 7.561 0 5.567 4.585 10.081 10.24 10.081h1.499l-4.15 3.87 1.81 1.675c5.903-5.877 4.379-4.359 7.241-7.21-2.323-2.303-0.861-0.858-7.241-7.155zM15.085 9.11c0.511 0.742 0.934 1.652 1.276 2.495 2.44-3.058 5.85-2.791 7.538-2.791l-4.15 3.87 1.81 1.675c6.377-6.342 4.913-4.884 7.241-7.21-2.851-2.823-1.268-1.261-7.241-7.149l-1.81 1.995 4.15 4.299c-1.807 0-5.74-0.276-8.814 2.816zM3.2 23.935v2.52c1.458 0 5.055 0.318 8.6-3.256-0.509-0.741-0.942-1.428-1.284-2.269-2.646 3.315-6.012 3.005-7.316 3.005z"></path>
</svg>
