<!-- Generated by IcoMoon.io -->
<svg version="1.1" xmlns="http://www.w3.org/2000/svg" width="32" height="32" viewBox="0 0 32 32">
<title>as-settings-4</title>
<path fill="#91908d" d="M25.242 31.063l-13.249-13.246c-2.377 2.377-6.232 2.377-8.609 0l-2.488-2.488c-1.189-1.188-1.189-3.115 0-4.303s3.117-1.188 4.305 0c1.656 1.655 3.471 1.503 4.639 0.335 1.176-1.176 1.318-2.987-0.342-4.645-1.189-1.188-1.189-3.116 0-4.304 1.19-1.188 3.117-1.188 4.305 0l2.494 2.494c2.377 2.377 2.377 6.231 0 8.607l13.249 13.248c2.847 2.845-1.459 7.147-4.304 4.303z"></path>
</svg>
