<!-- Generated by IcoMoon.io -->
<svg version="1.1" xmlns="http://www.w3.org/2000/svg" width="32" height="32" viewBox="0 0 32 32">
<title>as-sport-</title>
<path fill="#91908d" d="M26.579 23.198c-2.821-2.488-6.523-3.998-10.579-3.998s-7.758 1.51-10.579 3.998c-1.4-2.053-2.221-4.531-2.221-7.198 0-2.666 0.821-5.144 2.221-7.197 2.821 2.488 6.523 3.997 10.579 3.997s7.758-1.509 10.579-3.997c1.4 2.053 2.221 4.531 2.221 7.197 0 2.667-0.821 5.146-2.221 7.198zM16 28.8c-3.238 0-6.2-1.21-8.456-3.2 2.256-1.99 5.218-3.2 8.456-3.2s6.2 1.21 8.456 3.2c-2.256 1.99-5.218 3.2-8.456 3.2zM16 3.2c3.238 0 6.2 1.21 8.456 3.2-2.256 1.99-5.218 3.2-8.456 3.2s-6.2-1.21-8.456-3.2c2.256-1.99 5.218-3.2 8.456-3.2zM16 0c-8.826 0-16 7.155-16 16 0 8.83 7.158 16 16 16 8.835 0 16-7.165 16-16 0-8.816-7.144-16-16-16z"></path>
</svg>
