<!-- Generated by IcoMoon.io -->
<svg version="1.1" xmlns="http://www.w3.org/2000/svg" width="32" height="32" viewBox="0 0 32 32">
<title>as-sunset-</title>
<path fill="#91908d" d="M22.772 11.566c-0.626-0.639-0.626-1.673 0-2.31l3.394-3.467c0.626-0.637 1.638-0.637 2.264 0 0.624 0.639 0.624 1.673 0 2.312l-3.395 3.465c-0.624 0.639-1.637 0.639-2.262 0zM14.401 6.534v-4.901c0-0.903 0.715-1.634 1.6-1.634 0.883 0 1.6 0.73 1.6 1.634v4.901c0 0.902-0.717 1.634-1.6 1.634-0.885 0-1.6-0.732-1.6-1.634zM3.572 8.101c-0.626-0.639-0.626-1.673 0-2.312 0.626-0.637 1.638-0.637 2.262 0l3.395 3.467c0.624 0.637 0.624 1.671 0 2.31-0.626 0.639-1.638 0.639-2.264 0l-3.394-3.465zM23.979 26.355c-5.331-1.332-10.626-1.332-15.957 0-0.005-0.074-0.021-0.144-0.021-0.217 0-4.504 3.589-8.168 8-8.168s8 3.664 8 8.168c0 0.073-0.018 0.144-0.022 0.217zM31.089 28.894c-1.328-0.619-2.651-1.153-3.971-1.609 0.725-6.768-4.539-12.582-11.117-12.582-6.589 0-11.842 5.825-11.117 12.582-1.32 0.456-2.643 0.99-3.971 1.609-0.821 0.382-1.146 1.408-0.736 2.228 0.394 0.787 1.32 1.090 2.109 0.724 9.272-4.31 18.158-4.31 27.43 0 0.789 0.366 1.715 0.064 2.107-0.724 0.41-0.82 0.085-1.846-0.734-2.228z"></path>
</svg>
