<!-- Generated by IcoMoon.io -->
<svg version="1.1" xmlns="http://www.w3.org/2000/svg" width="32" height="32" viewBox="0 0 32 32">
<title>as-swift-</title>
<path fill="#91908d" d="M19.715 1.6c14.066 9.639 9.517 20.268 9.517 20.268s4 4.551 2.382 8.532c0 0-1.65-2.788-4.416-2.788-2.667 0-4.234 2.788-9.6 2.788-11.949 0-17.598-10.060-17.598-10.060 10.765 7.137 18.115 2.083 18.115 2.083-4.85-2.837-15.166-16.407-15.166-16.407 8.984 7.708 12.867 9.741 12.867 9.741-2.317-1.931-8.818-11.369-8.818-11.369 5.2 5.307 15.533 12.712 15.533 12.712 2.934-8.195-2.816-15.499-2.816-15.499z"></path>
</svg>
