<!-- Generated by IcoMoon.io -->
<svg version="1.1" xmlns="http://www.w3.org/2000/svg" width="32" height="32" viewBox="0 0 32 32">
<title>as-target-</title>
<path fill="#91908d" d="M19.2 16c0 1.768-1.432 3.2-3.2 3.2s-3.2-1.432-3.2-3.2c0-1.768 1.432-3.2 3.2-3.2s3.2 1.432 3.2 3.2zM16 22.4c-3.53 0-6.4-2.87-6.4-6.4s2.87-6.4 6.4-6.4c3.53 0 6.4 2.87 6.4 6.4s-2.87 6.4-6.4 6.4zM16 6.4c-5.302 0-9.6 4.298-9.6 9.6s4.298 9.6 9.6 9.6c5.302 0 9.6-4.298 9.6-9.6s-4.298-9.6-9.6-9.6zM16 28.8c-7.058 0-12.8-5.742-12.8-12.8s5.742-12.8 12.8-12.8c7.058 0 12.8 5.742 12.8 12.8s-5.742 12.8-12.8 12.8zM16 0c-8.837 0-16 7.163-16 16s7.163 16 16 16c8.837 0 16-7.163 16-16s-7.163-16-16-16z"></path>
</svg>
