<!-- Generated by IcoMoon.io -->
<svg version="1.1" xmlns="http://www.w3.org/2000/svg" width="32" height="32" viewBox="0 0 32 32">
<title>as-tinder-</title>
<path fill="#91908d" d="M21.756 23.523c-1.24 1.398-1.855 3.948-0.987 4.77 0.83 0.638 3.057 0.548 4.703-1.742 1.197-1.538 0.798-4.108 0.116-4.79-1.015-0.786-2.487 0.22-3.831 1.762zM10.56 23.935c-1.262-1.452-2.904-2.34-3.965-1.692-0.71 0.542-0.84 2.388 0.171 4.2 1.498 2.16 3.608 2.372 4.475 1.848 0.917-0.69 0.417-3.008-0.684-4.356h0.002zM16.265 28.399c-1.536-0.038-3.891 0.618-3.861 1.458-0.026 0.572 1.849 2.224 3.757 2.14 1.845 0.032 3.751-1.616 3.725-2.346-0.004-0.752-2.078-1.318-3.622-1.252zM12.68 10.78c-0.004 0.962 1.402 1.948 3.49 1.972 2.132 0.016 3.492-0.788 3.498-1.78 0.008-1.126-1.938-2.32-3.51-2.302-1.773-0.046-3.474 1.318-3.478 2.11zM11.892 9.422c-2.97-0.502-5.438 1.268-5.339 4.496 0.098 1.238 6.434-4.31 5.339-4.496zM25.435 14.012c0.1-3.228-2.371-4.998-5.341-4.494-1.093 0.184 5.243 5.732 5.341 4.494zM25.94 15.178c-1.719-0.464-0.58 7.136 0.82 6.514 1.539-1.242 2.036-4.88-0.82-6.514zM6.059 15.272c-2.854 1.634-2.357 5.272-0.818 6.514 1.4 0.624 2.539-6.976 0.818-6.514zM18.323 13.37c-1.593 1.048-1.881 3.42-0.642 5.302 1.24 1.88 3.536 2.556 5.129 1.508 1.593-1.046 1.881-3.42 0.642-5.3s-3.536-2.556-5.129-1.51zM9.537 20.371c1.593 1.046 3.889 0.372 5.127-1.51 1.24-1.88 0.953-4.252-0.64-5.3-1.593-1.046-3.891-0.372-5.129 1.51-1.238 1.88-0.951 4.252 0.642 5.3zM15.944 20.145c-2.124 0.010-3.967 1.612-3.967 3.576v0.036c0 1.964 1.885 3.548 4.009 3.538s3.969-1.61 3.969-3.574v-0.038c0-1.964-1.887-3.548-4.011-3.538zM18.086 5.834c1.885-1.562 4.138-2.696 6.635-3.546-3.209 1.66-5.076 3.002-6.097 4.146 0.523 2.104 3.255 2.2 4.254 2.142-0.205-0.096-0.375-0.21-0.437-0.386 0.251-0.18 1.141-0.020 1.761-0.368-0.239-0.050-0.351-0.098-0.461-0.276 0.584-0.186 1.216-0.348 1.587-0.658-0.199 0.002-0.387 0.044-0.648-0.138 0.525-0.284 1.085-0.508 1.52-0.942-0.271-0.006-0.564-0.002-0.648-0.102 0.481-0.3 0.885-0.632 1.22-0.994-0.379 0.046-0.54 0.006-0.632-0.060 0.363-0.374 0.824-0.688 1.043-1.148-0.283 0.098-0.54 0.134-0.726-0.010 0.124-0.278 0.652-0.444 0.955-1.096-0.295 0.030-0.61 0.066-0.674 0 0.138-0.562 0.375-0.88 0.606-1.208-0.636-0.010-1.597 0.002-1.556-0.050l0.395-0.404c-0.622-0.168-1.256 0.028-1.717 0.172-0.207-0.164 0.002-0.372 0.255-0.582-0.527 0.070-1.003 0.192-1.436 0.36-0.229-0.21 0.15-0.418 0.335-0.626-0.816 0.154-1.161 0.372-1.504 0.59-0.249-0.238-0.014-0.442 0.154-0.65-0.614 0.228-0.931 0.522-1.264 0.814-0.114-0.154-0.287-0.266-0.078-0.634-0.435 0.252-0.764 0.55-1.007 0.882-0.271-0.172-0.162-0.408-0.164-0.626-0.453 0.37-0.74 0.764-1.093 1.148-0.070-0.052-0.134-0.226-0.187-0.504-1.083 1.052-2.611 3.702-0.393 4.754zM5.672 2.398c-0.138-0.562-0.373-0.88-0.606-1.208 0.636-0.008 1.599 0.004 1.556-0.050l-0.393-0.404c0.62-0.166 1.256 0.028 1.717 0.172 0.207-0.164-0.004-0.372-0.257-0.582 0.528 0.070 1.005 0.192 1.436 0.36 0.229-0.21-0.15-0.418-0.333-0.626 0.816 0.154 1.161 0.372 1.504 0.59 0.249-0.238 0.014-0.442-0.154-0.65 0.614 0.228 0.931 0.522 1.264 0.814 0.112-0.154 0.287-0.266 0.076-0.634 0.437 0.252 0.766 0.55 1.009 0.882 0.269-0.172 0.16-0.408 0.162-0.626 0.453 0.37 0.742 0.764 1.093 1.148 0.072-0.052 0.134-0.226 0.189-0.504 1.081 1.052 2.609 3.702 0.393 4.754-1.887-1.56-4.138-2.694-6.635-3.546 3.209 1.66 5.073 3.002 6.097 4.146-0.524 2.104-3.257 2.2-4.256 2.142 0.205-0.096 0.377-0.21 0.437-0.386-0.251-0.18-1.139-0.020-1.759-0.368 0.237-0.050 0.349-0.098 0.461-0.276-0.586-0.186-1.219-0.348-1.589-0.658 0.201 0.002 0.387 0.044 0.65-0.138-0.526-0.284-1.087-0.508-1.522-0.942 0.271-0.006 0.564-0.002 0.65-0.102-0.481-0.3-0.885-0.632-1.223-0.994 0.381 0.046 0.54 0.006 0.632-0.060-0.363-0.374-0.822-0.688-1.041-1.148 0.281 0.098 0.538 0.134 0.726-0.010-0.124-0.278-0.652-0.444-0.957-1.096 0.297 0.030 0.612 0.066 0.674 0z"></path>
</svg>
