<!-- Generated by IcoMoon.io -->
<svg version="1.1" xmlns="http://www.w3.org/2000/svg" width="32" height="32" viewBox="0 0 32 32">
<title>as-umbrella-</title>
<path fill="#91908d" d="M22.866 19.304c1.531-2.921 2.885-7.178 3.036-11.16 3.157 3.986 3.671 9.847 1.512 14.325l-4.548-3.164zM18.209 16.064l-4.656-3.24c2.084-2.535 5.488-5.248 9.14-6.59 0.17 3.999-0.992 8.274-2.486 11.222l-1.997-1.391zM10.896 10.976l-4.546-3.163c3.359-3.966 8.663-5.445 13.425-3.928-3.518 1.639-6.54 4.085-8.879 7.090zM25.626 3.341c-0.104-0.081-0.205-0.164-0.311-0.241-0.126-0.094-0.242-0.198-0.373-0.288-0.122-0.086-0.252-0.154-0.375-0.235-0.125-0.081-0.25-0.157-0.376-0.233-7.25-4.475-16.704-2.386-21.485 4.926-0.303 0.463-0.577 0.937-0.827 1.418l11.916 8.292-6.691 10.433-2.656-1.848 1.791-2.74-2.656-1.849-3.583 5.479 7.969 5.544 1.791-2.74 6.691-10.433 11.85 8.246c0.045 0.030 0.661-0.859 0.964-1.322 4.786-7.32 3.114-17.157-3.639-22.41z"></path>
</svg>
