<!-- Generated by IcoMoon.io -->
<svg version="1.1" xmlns="http://www.w3.org/2000/svg" width="32" height="32" viewBox="0 0 32 32">
<title>as-volume_close-</title>
<path fill="#91908d" d="M7.045 13.062h-1.761c-0.972 0-1.761 0.814-1.761 1.817v3.635c0 1.003 0.789 1.817 1.761 1.817h1.761v-7.269zM26.503 20.927l1.677 1.73v5.703c0 2.633-2.628 4.393-4.958 3.32l-16.763-7.715h-2.936c-1.946 0-3.522-1.627-3.522-3.635v-7.269c0-2.008 1.576-3.635 3.522-3.635h2.936l16.557-9.003c2.344-1.276 5.164 0.478 5.164 3.215v5.278l-1.677 1.73-1.846-1.905v-3.776c0-0.676-0.689-1.114-1.275-0.812l-12.815 6.611v10.046l12.815 6.612c0.587 0.302 1.275-0.136 1.275-0.812v-3.778l1.846-1.905zM31.484 13.218l-2.49 2.57 2.49 2.57c0.689 0.711 0.689 1.861 0 2.57-0.687 0.711-1.802 0.711-2.49 0l-2.491-2.57-2.49 2.57c-0.689 0.711-1.804 0.711-2.492 0.002v-0.002c-0.687-0.709-0.687-1.859 0-2.57l2.492-2.57-2.492-2.57c-0.687-0.711-0.687-1.861 0-2.57v-0.002c0.689-0.709 1.803-0.709 2.492 0.002l2.49 2.57 2.491-2.57c0.689-0.711 1.803-0.711 2.49 0 0.689 0.709 0.689 1.859 0 2.57z"></path>
</svg>
