<!-- Generated by IcoMoon.io -->
<svg version="1.1" xmlns="http://www.w3.org/2000/svg" width="32" height="32" viewBox="0 0 32 32">
<title>as-view_simple-</title>
<path fill="#91908d" d="M19.2 16.001c0 1.835-1.432 3.322-3.2 3.322s-3.2-1.487-3.2-3.322c0-1.835 1.432-3.322 3.2-3.322s3.2 1.487 3.2 3.322zM16 22.278c-4.782 0-9.288-2.362-12.162-6.277 2.874-3.915 7.379-6.279 12.162-6.279s9.288 2.364 12.162 6.279c-2.874 3.915-7.379 6.277-12.162 6.277zM16 6.4c-6.842 0-12.802 3.867-16 9.601 3.198 5.734 9.158 9.599 16 9.599s12.802-3.865 16-9.599c-3.198-5.734-9.158-9.601-16-9.601z"></path>
</svg>
