<!-- Generated by IcoMoon.io -->
<svg version="1.1" xmlns="http://www.w3.org/2000/svg" width="32" height="32" viewBox="0 0 32 32">
<title>as-video_round-</title>
<path fill="#91908d" d="M28.8 18.678l-3.562-2.226 3.562-2.227v4.453zM17.6 24h-12.8c-0.883 0-1.6-0.715-1.6-1.6v-12.8c0-0.883 0.717-1.6 1.6-1.6h12.8c0.883 0 1.6 0.717 1.6 1.6v12.8c0 0.885-0.717 1.6-1.6 1.6zM22.4 14.578v-6.578c0-1.766-1.432-3.2-3.2-3.2h-16c-1.768 0-3.2 1.434-3.2 3.2v16c0 1.768 1.432 3.2 3.2 3.2h16c1.768 0 3.2-1.432 3.2-3.2v-5.674l7.139 4.555c1.066 0.68 2.461-0.085 2.461-1.349v-10.162c0-1.264-1.395-2.029-2.461-1.349l-7.139 4.555z"></path>
</svg>
