<!-- Generated by IcoMoon.io -->
<svg version="1.1" xmlns="http://www.w3.org/2000/svg" width="32" height="32" viewBox="0 0 32 32">
<title>as-wifi_cover-1</title>
<path fill="#91908d" d="M18.491 21.904c-1.25-1.25-3.275-1.25-4.525 0l2.262 2.262 2.262-2.262zM23.016 17.379c-3.749-3.75-9.827-3.75-13.576 0l2.262 2.262c2.496-2.496 6.557-2.496 9.051 0l2.262-2.262zM7.178 15.115c4.99-4.99 13.11-4.99 18.102 0l2.262-2.262c-6.248-6.248-16.379-6.248-22.627 0l2.262 2.262zM3.2 28.8v-25.6h25.6v25.6h-25.6zM0 32h32v-32h-32v32z"></path>
</svg>
