<!-- Generated by IcoMoon.io -->
<svg version="1.1" xmlns="http://www.w3.org/2000/svg" width="16" height="32" viewBox="0 0 16 32">
<title>as-watch_round-</title>
<path fill="#91908d" d="M9.598 12.8v-3.2h1.6c0.883 0 1.6 0.717 1.6 1.6v1.6h-3.2zM12.8 17.6c0 0.883-0.718 1.6-1.602 1.6h-6.4c-0.883 0-1.598-0.717-1.598-1.6v-6.4c0-0.883 0.715-1.6 1.598-1.6h1.602v6.4h6.4v1.6zM6.4 28.8h3.2v-6.4h-3.2v6.4zM6.398 6.4h3.2v-3.2h-3.2v3.2zM12.8 6.4v-6.4h-9.6v6.4c-1.6 0-3.2 1.432-3.2 3.2v9.6c0 1.768 1.6 3.2 3.2 3.2v9.6h9.6v-9.6c1.6 0 3.2-1.432 3.2-3.2v-9.6c0-1.768-1.6-3.2-3.2-3.2z"></path>
</svg>
