<!-- Generated by IcoMoon.io -->
<svg version="1.1" xmlns="http://www.w3.org/2000/svg" width="32" height="32" viewBox="0 0 32 32">
<title>mi-artboard</title>
<path fill="#91908d" d="M5.333 29.333c-0.8 0-1.333-0.533-1.333-1.333v-20c0-0.8 0.533-1.333 1.333-1.333h25.333c0.8 0 1.333 0.533 1.333 1.333s-0.533 1.333-1.333 1.333h-24v18.667c0 0.8-0.533 1.333-1.333 1.333z"></path>
<path fill="#91908d" d="M26.667 25.333h-25.333c-0.8 0-1.333-0.533-1.333-1.333s0.533-1.333 1.333-1.333h24v-18.667c0-0.8 0.533-1.333 1.333-1.333s1.333 0.533 1.333 1.333v20c0 0.8-0.533 1.333-1.333 1.333z"></path>
<path fill="#91908d" d="M30.667 28c-0.267 0-0.533-0.133-0.8-0.267l-29.333-21.333c-0.533-0.4-0.667-1.2-0.267-1.867 0.4-0.533 1.333-0.667 1.867-0.267l29.333 21.333c0.533 0.4 0.667 1.333 0.267 1.867-0.267 0.4-0.667 0.533-1.067 0.533z"></path>
</svg>
