<!-- Generated by IcoMoon.io -->
<svg version="1.1" xmlns="http://www.w3.org/2000/svg" width="32" height="32" viewBox="0 0 32 32">
<title>mi-brightness</title>
<path fill="#91908d" d="M16 6.667c-0.8 0-1.333-0.533-1.333-1.333v-4c0-0.8 0.533-1.333 1.333-1.333s1.333 0.533 1.333 1.333v4c0 0.8-0.533 1.333-1.333 1.333z"></path>
<path fill="#91908d" d="M16 32c-0.8 0-1.333-0.533-1.333-1.333v-4c0-0.8 0.533-1.333 1.333-1.333s1.333 0.533 1.333 1.333v4c0 0.8-0.533 1.333-1.333 1.333z"></path>
<path fill="#91908d" d="M30.667 17.333h-4c-0.8 0-1.333-0.533-1.333-1.333s0.533-1.333 1.333-1.333h4c0.8 0 1.333 0.533 1.333 1.333s-0.533 1.333-1.333 1.333z"></path>
<path fill="#91908d" d="M5.333 17.333h-4c-0.8 0-1.333-0.533-1.333-1.333s0.533-1.333 1.333-1.333h4c0.8 0 1.333 0.533 1.333 1.333s-0.533 1.333-1.333 1.333z"></path>
<path fill="#91908d" d="M23.6 9.733c-0.4 0-0.667-0.133-0.933-0.4-0.533-0.533-0.533-1.333 0-1.867l2.8-2.8c0.533-0.533 1.333-0.533 1.867 0s0.533 1.333 0 1.867l-2.8 2.8c-0.267 0.267-0.667 0.4-0.933 0.4z"></path>
<path fill="#91908d" d="M5.6 27.733c-0.4 0-0.667-0.133-0.933-0.4-0.533-0.533-0.533-1.333 0-1.867l2.8-2.8c0.533-0.533 1.333-0.533 1.867 0s0.533 1.333 0 1.867l-2.8 2.8c-0.267 0.267-0.533 0.4-0.933 0.4z"></path>
<path fill="#91908d" d="M26.4 27.733c-0.4 0-0.667-0.133-0.933-0.4l-2.8-2.8c-0.533-0.533-0.533-1.333 0-1.867s1.333-0.533 1.867 0l2.8 2.8c0.533 0.533 0.533 1.333 0 1.867-0.267 0.267-0.667 0.4-0.933 0.4z"></path>
<path fill="#91908d" d="M8.4 9.733c-0.4 0-0.667-0.133-0.933-0.4l-2.8-2.8c-0.533-0.533-0.533-1.333 0-1.867s1.333-0.533 1.867 0l2.8 2.8c0.533 0.533 0.533 1.333 0 1.867-0.133 0.267-0.533 0.4-0.933 0.4z"></path>
<path fill="#91908d" d="M16 22.667c-3.733 0-6.667-2.933-6.667-6.667s2.933-6.667 6.667-6.667 6.667 2.933 6.667 6.667-2.933 6.667-6.667 6.667zM16 12c-2.267 0-4 1.733-4 4s1.733 4 4 4 4-1.733 4-4-1.733-4-4-4z"></path>
</svg>
