<!-- Generated by IcoMoon.io -->
<svg version="1.1" xmlns="http://www.w3.org/2000/svg" width="32" height="32" viewBox="0 0 32 32">
<title>mi-bar-chart</title>
<path fill="#91908d" d="M32 32h-25.333c-2.933 0-5.333-2.4-5.333-5.333v-25.333c0-0.8 0.533-1.333 1.333-1.333s1.333 0.533 1.333 1.333v25.333c0 1.467 1.2 2.667 2.667 2.667h25.333c0.8 0 1.333 0.533 1.333 1.333s-0.533 1.333-1.333 1.333z"></path>
<path fill="#91908d" d="M8 26.667c-0.8 0-1.333-0.533-1.333-1.333v-6.667c0-0.8 0.533-1.333 1.333-1.333s1.333 0.533 1.333 1.333v6.667c0 0.8-0.533 1.333-1.333 1.333z"></path>
<path fill="#91908d" d="M13.333 26.667c-0.8 0-1.333-0.533-1.333-1.333v-12c0-0.8 0.533-1.333 1.333-1.333s1.333 0.533 1.333 1.333v12c0 0.8-0.533 1.333-1.333 1.333z"></path>
<path fill="#91908d" d="M18.667 26.667c-0.8 0-1.333-0.533-1.333-1.333v-9.333c0-0.8 0.533-1.333 1.333-1.333s1.333 0.533 1.333 1.333v9.333c0 0.8-0.533 1.333-1.333 1.333z"></path>
<path fill="#91908d" d="M24 26.667c-0.8 0-1.333-0.533-1.333-1.333v-16c0-0.8 0.533-1.333 1.333-1.333s1.333 0.533 1.333 1.333v16c0 0.8-0.533 1.333-1.333 1.333z"></path>
<path fill="#91908d" d="M29.333 26.667c-0.8 0-1.333-0.533-1.333-1.333v-8c0-0.8 0.533-1.333 1.333-1.333s1.333 0.533 1.333 1.333v8c0 0.8-0.533 1.333-1.333 1.333z"></path>
</svg>
