<!-- Generated by IcoMoon.io -->
<svg version="1.1" xmlns="http://www.w3.org/2000/svg" width="32" height="32" viewBox="0 0 32 32">
<title>mi-comment</title>
<path fill="#91908d" d="M26.667 26.667h-5.333c-0.8 0-1.333-0.533-1.333-1.333s0.533-1.333 1.333-1.333h5.333c1.467 0 2.667-1.2 2.667-2.667v-16c0-1.467-1.2-2.667-2.667-2.667h-21.333c-1.467 0-2.667 1.2-2.667 2.667v16c0 1.467 1.2 2.667 2.667 2.667h5.333c0.8 0 1.333 0.533 1.333 1.333s-0.533 1.333-1.333 1.333h-5.333c-2.933 0-5.333-2.4-5.333-5.333v-16c0-2.933 2.4-5.333 5.333-5.333h21.333c2.933 0 5.333 2.4 5.333 5.333v16c0 2.933-2.4 5.333-5.333 5.333z"></path>
<path fill="#91908d" d="M16 32c-0.4 0-0.667-0.133-0.933-0.4l-5.333-5.333c-0.533-0.533-0.533-1.333 0-1.867s1.333-0.533 1.867 0l4.4 4.4 4.4-4.4c0.533-0.533 1.333-0.533 1.867 0s0.533 1.333 0 1.867l-5.333 5.333c-0.267 0.267-0.533 0.4-0.933 0.4z"></path>
<path fill="#91908d" d="M24 9.333h-16c-0.8 0-1.333-0.533-1.333-1.333s0.533-1.333 1.333-1.333h16c0.8 0 1.333 0.533 1.333 1.333s-0.533 1.333-1.333 1.333z"></path>
<path fill="#91908d" d="M17.333 14.667h-9.333c-0.8 0-1.333-0.533-1.333-1.333s0.533-1.333 1.333-1.333h9.333c0.8 0 1.333 0.533 1.333 1.333s-0.533 1.333-1.333 1.333z"></path>
<path fill="#91908d" d="M21.333 20h-13.333c-0.8 0-1.333-0.533-1.333-1.333s0.533-1.333 1.333-1.333h13.333c0.8 0 1.333 0.533 1.333 1.333s-0.533 1.333-1.333 1.333z"></path>
</svg>
