<!-- Generated by IcoMoon.io -->
<svg version="1.1" xmlns="http://www.w3.org/2000/svg" width="32" height="32" viewBox="0 0 32 32">
<title>mi-folder-remove</title>
<path fill="#91908d" d="M15.067 26.667h-13.733c-0.8 0-1.333-0.533-1.333-1.333v-24c0-0.8 0.533-1.333 1.333-1.333h9.333c0.8 0 1.333 0.533 1.333 1.333v1.333h14.667c0.8 0 1.333 0.533 1.333 1.333v5.333c0 0.8-0.533 1.333-1.333 1.333s-1.333-0.533-1.333-1.333v-4h-14.667c-0.8 0-1.333-0.533-1.333-1.333v-1.333h-6.667v21.333h12.4c0.8 0 1.333 0.533 1.333 1.333s-0.533 1.333-1.333 1.333z"></path>
<path fill="#91908d" d="M14.667 26.667h-13.333c-0.4 0-0.8-0.133-1.067-0.533-0.267-0.267-0.267-0.667-0.267-1.067l4-16c0.133-0.667 0.667-1.067 1.333-1.067h25.333c0.4 0 0.8 0.133 1.067 0.533 0.267 0.267 0.267 0.8 0.267 1.2l-2.267 7.867c-0.133 0.667-0.933 1.067-1.6 0.933s-1.067-0.933-0.933-1.6l1.733-6.267h-22.533l-3.333 13.333h11.6c0.8 0 1.333 0.533 1.333 1.333s-0.533 1.333-1.333 1.333z"></path>
<path fill="#91908d" d="M26.667 24h-8c-0.8 0-1.333-0.533-1.333-1.333s0.533-1.333 1.333-1.333h8c0.8 0 1.333 0.533 1.333 1.333s-0.533 1.333-1.333 1.333z"></path>
<path fill="#91908d" d="M22.667 32c-5.2 0-9.333-4.133-9.333-9.333s4.133-9.333 9.333-9.333 9.333 4.133 9.333 9.333-4.133 9.333-9.333 9.333zM22.667 16c-3.733 0-6.667 2.933-6.667 6.667s2.933 6.667 6.667 6.667 6.667-2.933 6.667-6.667-2.933-6.667-6.667-6.667z"></path>
</svg>
