<!-- Generated by IcoMoon.io -->
<svg version="1.1" xmlns="http://www.w3.org/2000/svg" width="32" height="32" viewBox="0 0 32 32">
<title>mi-floppy</title>
<path fill="#91908d" d="M30.667 32h-24c-0.4 0-0.667-0.133-0.933-0.4l-5.333-5.333c-0.267-0.267-0.4-0.533-0.4-0.933v-24c0-0.8 0.533-1.333 1.333-1.333h29.333c0.8 0 1.333 0.533 1.333 1.333v29.333c0 0.8-0.533 1.333-1.333 1.333zM7.2 29.333h22.133v-26.667h-26.667v22.133l4.533 4.533z"></path>
<path fill="#91908d" d="M24 32h-16c-0.8 0-1.333-0.533-1.333-1.333v-9.333c0-0.8 0.533-1.333 1.333-1.333h16c0.8 0 1.333 0.533 1.333 1.333v9.333c0 0.8-0.533 1.333-1.333 1.333zM9.333 29.333h13.333v-6.667h-13.333v6.667z"></path>
<path fill="#91908d" d="M10.667 26.667h4v5.333h-4v-5.333z"></path>
<path fill="#91908d" d="M16 32h-5.333v-6.667h5.333v6.667zM12 30.667h2.667v-4h-2.667v4z"></path>
<path fill="#91908d" d="M25.333 17.333h-18.667c-0.8 0-1.333-0.533-1.333-1.333v-14.667c0-0.8 0.533-1.333 1.333-1.333h18.667c0.8 0 1.333 0.533 1.333 1.333v14.667c0 0.8-0.533 1.333-1.333 1.333zM8 14.667h16v-12h-16v12z"></path>
</svg>
