<!-- Generated by IcoMoon.io -->
<svg version="1.1" xmlns="http://www.w3.org/2000/svg" width="32" height="32" viewBox="0 0 32 32">
<title>mi-form</title>
<path fill="#91908d" d="M29.333 8h-26.667c-1.467 0-2.667-1.2-2.667-2.667v-2.667c0-1.467 1.2-2.667 2.667-2.667h26.667c1.467 0 2.667 1.2 2.667 2.667v2.667c0 1.467-1.2 2.667-2.667 2.667zM29.333 5.333v0zM2.667 2.667v2.667h26.667v-2.667h-26.667z"></path>
<path fill="#91908d" d="M29.333 20h-26.667c-1.467 0-2.667-1.2-2.667-2.667v-2.667c0-1.467 1.2-2.667 2.667-2.667h26.667c1.467 0 2.667 1.2 2.667 2.667v2.667c0 1.467-1.2 2.667-2.667 2.667zM29.333 17.333v0zM2.667 14.667v2.667h26.667v-2.667h-26.667z"></path>
<path fill="#91908d" d="M14.667 30.667h-12c-0.667 0-1.333-0.667-1.333-1.333v-2.667c0-0.667 0.667-1.333 1.333-1.333h12c0.8 0 1.333 0.667 1.333 1.333v2.667c0 0.667-0.533 1.333-1.333 1.333z"></path>
<path fill="#91908d" d="M14.667 32h-12c-1.467 0-2.667-1.2-2.667-2.667v-2.667c0-1.467 1.2-2.667 2.667-2.667h12c1.467 0 2.667 1.2 2.667 2.667v2.667c0 1.467-1.2 2.667-2.667 2.667zM14.667 29.333v0zM2.667 26.667v2.667h12v-2.667h-12z"></path>
</svg>
