<!-- Generated by IcoMoon.io -->
<svg version="1.1" xmlns="http://www.w3.org/2000/svg" width="32" height="32" viewBox="0 0 32 32">
<title>mi-loading</title>
<path fill="#91908d" d="M16 6.667c-0.8 0-1.333-0.533-1.333-1.333v-4c0-0.8 0.533-1.333 1.333-1.333s1.333 0.533 1.333 1.333v4c0 0.8-0.533 1.333-1.333 1.333z"></path>
<path fill="#91908d" d="M16 32c-0.8 0-1.333-0.533-1.333-1.333v-4c0-0.8 0.533-1.333 1.333-1.333s1.333 0.533 1.333 1.333v4c0 0.8-0.533 1.333-1.333 1.333z"></path>
<path fill="#91908d" d="M5.333 17.333h-4c-0.8 0-1.333-0.533-1.333-1.333s0.533-1.333 1.333-1.333h4c0.8 0 1.333 0.533 1.333 1.333s-0.533 1.333-1.333 1.333z"></path>
<path fill="#91908d" d="M30.667 17.333h-4c-0.8 0-1.333-0.533-1.333-1.333s0.533-1.333 1.333-1.333h4c0.8 0 1.333 0.533 1.333 1.333s-0.533 1.333-1.333 1.333z"></path>
<path fill="#91908d" d="M25.2 12c-0.4 0-0.933-0.267-1.2-0.667-0.4-0.667-0.133-1.467 0.533-1.867l3.467-2c0.667-0.4 1.467-0.133 1.867 0.533s0.133 1.467-0.533 1.867l-3.467 2c-0.133 0.133-0.4 0.133-0.667 0.133z"></path>
<path fill="#91908d" d="M3.333 24.667c-0.4 0-0.933-0.267-1.2-0.667-0.4-0.667-0.133-1.467 0.533-1.867l3.467-2c0.667-0.4 1.467-0.133 1.867 0.533s0.133 1.467-0.533 1.867l-3.467 2c-0.267 0.133-0.533 0.133-0.667 0.133z"></path>
<path fill="#91908d" d="M21.333 8.133c-0.267 0-0.4 0-0.667-0.133-0.667-0.4-0.8-1.2-0.533-1.867l2-3.467c0.4-0.667 1.2-0.8 1.867-0.533 0.667 0.4 0.8 1.2 0.533 1.867l-2 3.467c-0.267 0.4-0.8 0.667-1.2 0.667z"></path>
<path fill="#91908d" d="M8.667 30c-0.267 0-0.4 0-0.667-0.133-0.667-0.4-0.8-1.2-0.533-1.867l2-3.467c0.4-0.533 1.2-0.8 1.867-0.4s0.8 1.2 0.533 1.867l-2 3.333c-0.267 0.4-0.8 0.667-1.2 0.667z"></path>
<path fill="#91908d" d="M6.8 12c-0.267 0-0.533 0-0.667-0.133l-3.467-2c-0.667-0.4-0.933-1.2-0.533-1.867s1.2-0.8 1.867-0.533l3.467 2c0.667 0.4 0.8 1.2 0.4 1.867-0.133 0.4-0.667 0.667-1.067 0.667z"></path>
<path fill="#91908d" d="M28.667 24.667c-0.267 0-0.4 0-0.667-0.133l-3.467-2c-0.667-0.4-0.8-1.2-0.533-1.867 0.4-0.667 1.2-0.8 1.867-0.533l3.467 2c0.667 0.4 0.8 1.2 0.533 1.867-0.267 0.4-0.667 0.667-1.2 0.667z"></path>
<path fill="#91908d" d="M10.667 8.133c-0.4 0-0.933-0.267-1.2-0.667l-2-3.467c-0.267-0.667-0.133-1.467 0.533-1.867s1.467-0.133 1.867 0.533l2 3.467c0.267 0.667 0.133 1.467-0.533 1.733-0.267 0.133-0.4 0.267-0.667 0.267z"></path>
<path fill="#91908d" d="M23.333 30c-0.4 0-0.933-0.267-1.2-0.667l-2-3.467c-0.4-0.667-0.133-1.467 0.533-1.867s1.467-0.133 1.867 0.533l2 3.467c0.4 0.667 0.133 1.467-0.533 1.867-0.267 0.133-0.4 0.133-0.667 0.133z"></path>
</svg>
