<!-- Generated by IcoMoon.io -->
<svg version="1.1" xmlns="http://www.w3.org/2000/svg" width="32" height="32" viewBox="0 0 32 32">
<title>mi-plus</title>
<path fill="#91908d" d="M16 32c-4.267 0-8.267-1.6-11.333-4.667-6.267-6.267-6.267-16.4 0-22.667 3.067-3.067 7.067-4.667 11.333-4.667s8.267 1.6 11.333 4.667c6.267 6.267 6.267 16.4 0 22.667-3.067 3.067-7.067 4.667-11.333 4.667zM16 2.667c-3.6 0-6.933 1.333-9.467 3.867-5.2 5.2-5.2 13.733 0 18.933 2.533 2.533 5.867 3.867 9.467 3.867s6.933-1.333 9.467-3.867c5.2-5.2 5.2-13.6 0-18.8-2.533-2.667-5.867-4-9.467-4z"></path>
<path fill="#91908d" d="M16 24c-0.8 0-1.333-0.533-1.333-1.333v-13.333c0-0.8 0.533-1.333 1.333-1.333s1.333 0.533 1.333 1.333v13.333c0 0.8-0.533 1.333-1.333 1.333z"></path>
<path fill="#91908d" d="M22.667 17.333h-13.333c-0.8 0-1.333-0.533-1.333-1.333s0.533-1.333 1.333-1.333h13.333c0.8 0 1.333 0.533 1.333 1.333s-0.533 1.333-1.333 1.333z"></path>
</svg>
