<!-- Generated by IcoMoon.io -->
<svg version="1.1" xmlns="http://www.w3.org/2000/svg" width="32" height="32" viewBox="0 0 32 32">
<title>mi-pin-2</title>
<path fill="#91908d" d="M16 32c-3.733 0-12-11.6-12-20 0-6.667 5.333-12 12-12s12 5.333 12 12c0 5.333-3.2 10.933-4.533 13.067-0.8 1.2-4.533 6.933-7.467 6.933zM16 2.667c-5.2 0-9.333 4.133-9.333 9.333 0 7.467 7.467 16.933 9.333 17.333 1.867-0.4 9.333-9.867 9.333-17.333 0-5.2-4.133-9.333-9.333-9.333z"></path>
<path fill="#91908d" d="M16 18.667c-3.733 0-6.667-2.933-6.667-6.667s2.933-6.667 6.667-6.667 6.667 2.933 6.667 6.667-2.933 6.667-6.667 6.667zM16 8c-2.267 0-4 1.733-4 4s1.733 4 4 4 4-1.733 4-4-1.733-4-4-4z"></path>
</svg>
