<!-- Generated by IcoMoon.io -->
<svg version="1.1" xmlns="http://www.w3.org/2000/svg" width="32" height="32" viewBox="0 0 32 32">
<title>mi-smile</title>
<path fill="#91908d" d="M16 32c-8.8 0-16-7.2-16-16s7.2-16 16-16 16 7.2 16 16-7.2 16-16 16zM16 2.667c-7.333 0-13.333 6-13.333 13.333s6 13.333 13.333 13.333 13.333-6 13.333-13.333-6-13.333-13.333-13.333z"></path>
<path fill="#91908d" d="M9.333 17.333c-2.267 0-4-1.733-4-4s1.733-4 4-4 4 1.733 4 4-1.733 4-4 4zM9.333 12c-0.8 0-1.333 0.533-1.333 1.333s0.533 1.333 1.333 1.333 1.333-0.533 1.333-1.333-0.533-1.333-1.333-1.333z"></path>
<path fill="#91908d" d="M22.667 17.333c-2.267 0-4-1.733-4-4s1.733-4 4-4 4 1.733 4 4-1.733 4-4 4zM22.667 12c-0.8 0-1.333 0.533-1.333 1.333s0.533 1.333 1.333 1.333 1.333-0.533 1.333-1.333-0.533-1.333-1.333-1.333z"></path>
<path fill="#91908d" d="M16 26.667c-3.2 0-6.267-1.467-8.267-3.867-0.4-0.533-0.4-1.467 0.133-1.867s1.467-0.4 1.867 0.133c1.6 1.867 3.867 2.933 6.267 2.933s4.667-1.067 6.133-2.933c0.4-0.533 1.333-0.667 1.867-0.133 0.533 0.4 0.667 1.333 0.133 1.867-1.867 2.4-4.933 3.867-8.133 3.867z"></path>
</svg>
