<!-- Generated by IcoMoon.io -->
<svg version="1.1" xmlns="http://www.w3.org/2000/svg" width="32" height="32" viewBox="0 0 32 32">
<title>mi-shopping-cart</title>
<path fill="#91908d" d="M25.333 17.333h-20c-0.8 0-1.333-0.533-1.333-1.333v-12c0-0.8 0.533-1.333 1.333-1.333h22.667c0.4 0 0.8 0.133 1.067 0.533 0.267 0.267 0.267 0.667 0.267 1.067l-2.667 12c-0.133 0.667-0.667 1.067-1.333 1.067zM6.667 14.667h17.6l2.133-9.333h-19.733v9.333z"></path>
<path fill="#91908d" d="M5.333 5.333h-4c-0.8 0-1.333-0.533-1.333-1.333s0.533-1.333 1.333-1.333h4c0.8 0 1.333 0.533 1.333 1.333s-0.533 1.333-1.333 1.333z"></path>
<path fill="#91908d" d="M5.333 5.333c-0.4 0-0.667-0.133-0.933-0.4s-0.4-0.533-0.4-0.933c0-0.4 0.133-0.667 0.4-0.933 0.533-0.533 1.333-0.533 1.867 0 0.267 0.267 0.4 0.533 0.4 0.933s-0.133 0.667-0.4 0.933c-0.267 0.267-0.533 0.4-0.933 0.4z"></path>
<path fill="#91908d" d="M10.667 26.667c0 1.473-1.194 2.667-2.667 2.667s-2.667-1.194-2.667-2.667c0-1.473 1.194-2.667 2.667-2.667s2.667 1.194 2.667 2.667z"></path>
<path fill="#91908d" d="M25.333 26.667c0 1.473-1.194 2.667-2.667 2.667s-2.667-1.194-2.667-2.667c0-1.473 1.194-2.667 2.667-2.667s2.667 1.194 2.667 2.667z"></path>
<path fill="#91908d" d="M5.333 22.667c-0.8 0-1.333-0.533-1.333-1.333v-5.333c0-0.8 0.533-1.333 1.333-1.333s1.333 0.533 1.333 1.333v5.333c0 0.8-0.533 1.333-1.333 1.333z"></path>
<path fill="#91908d" d="M25.333 22.667h-20c-0.8 0-1.333-0.533-1.333-1.333s0.533-1.333 1.333-1.333h20c0.8 0 1.333 0.533 1.333 1.333s-0.533 1.333-1.333 1.333z"></path>
</svg>
