<!-- Generated by IcoMoon.io -->
<svg version="1.1" xmlns="http://www.w3.org/2000/svg" width="32" height="32" viewBox="0 0 32 32">
<title>mi-umbrella</title>
<path fill="#91908d" d="M30.667 16c0 0 0 0 0 0h-29.333c-0.4 0-0.8-0.133-1.067-0.533-0.267-0.267-0.267-0.667-0.267-1.067 0-0.133 3.067-13.067 16-13.067 11.867 0 15.333 10.8 15.867 12.8 0.133 0.133 0.133 0.267 0.133 0.533 0 0.8-0.533 1.333-1.333 1.333zM3.2 13.333h25.733c-1.2-3.067-4.533-9.333-12.8-9.333-8.4 0-11.733 6.267-12.933 9.333z"></path>
<path fill="#91908d" d="M13.333 30.667c-2.933 0-4-2.4-4-4 0-0.8 0.533-1.333 1.333-1.333s1.333 0.533 1.333 1.333c0 0.667 0.267 1.333 1.333 1.333s1.333-0.667 1.333-1.333v-12c0-0.8 0.533-1.333 1.333-1.333s1.333 0.533 1.333 1.333v12c0 1.6-1.067 4-4 4z"></path>
</svg>
