<!-- Generated by IcoMoon.io -->
<svg version="1.1" xmlns="http://www.w3.org/2000/svg" width="32" height="32" viewBox="0 0 32 32">
<title>mi-volume-up</title>
<path fill="#91908d" d="M17.333 30.667c-0.267 0-0.533-0.133-0.8-0.267l-8-5.333c-0.267-0.267-0.533-0.667-0.533-1.067v-16c0-0.4 0.267-0.8 0.533-1.067l8-5.333c0.4-0.267 0.933-0.267 1.333 0 0.533 0.133 0.8 0.533 0.8 1.067v26.667c0 0.533-0.267 0.933-0.667 1.2-0.267 0.133-0.4 0.133-0.667 0.133zM10.667 23.333l5.333 3.6v-21.733l-5.333 3.467v14.667z"></path>
<path fill="#91908d" d="M9.333 25.333h-8c-0.8 0-1.333-0.533-1.333-1.333v-16c0-0.8 0.533-1.333 1.333-1.333h8c0.8 0 1.333 0.533 1.333 1.333v16c0 0.8-0.533 1.333-1.333 1.333zM2.667 22.667h5.333v-13.333h-5.333v13.333z"></path>
<path fill="#91908d" d="M21.067 21.067c-0.4 0-0.667-0.133-0.933-0.4-0.533-0.533-0.533-1.333 0-1.867 0.8-0.8 1.2-1.733 1.2-2.8s-0.4-2-1.2-2.8c-0.533-0.533-0.533-1.333 0-1.867s1.333-0.533 1.867 0c1.333 1.2 2 2.933 2 4.667s-0.667 3.467-2 4.667c-0.267 0.267-0.533 0.4-0.933 0.4z"></path>
<path fill="#91908d" d="M24 24c-0.4 0-0.667-0.133-0.933-0.4-0.533-0.533-0.533-1.333 0-1.867 1.467-1.467 2.4-3.467 2.4-5.6s-0.8-4.133-2.4-5.6c-0.533-0.533-0.533-1.333 0-1.867s1.333-0.533 1.867 0c2 1.867 3.067 4.533 3.067 7.333s-1.067 5.467-3.067 7.6c-0.267 0.267-0.667 0.4-0.933 0.4z"></path>
<path fill="#91908d" d="M26.8 26.8c-0.4 0-0.667-0.133-0.933-0.4-0.533-0.533-0.533-1.333 0-1.867 2.267-2.267 3.467-5.333 3.467-8.533s-1.2-6.267-3.467-8.533c-0.533-0.533-0.533-1.333 0-1.867s1.333-0.533 1.867 0c2.8 2.8 4.267 6.533 4.267 10.4s-1.467 7.6-4.267 10.4c-0.267 0.267-0.667 0.4-0.933 0.4z"></path>
</svg>
