<!-- Generated by IcoMoon.io -->
<svg version="1.1" xmlns="http://www.w3.org/2000/svg" width="32" height="32" viewBox="0 0 32 32">
<title>mi-wand</title>
<path fill="#91908d" d="M4 32c-0.4 0-0.667-0.133-0.933-0.4l-2.667-2.667c-0.533-0.533-0.533-1.333 0-1.867s1.333-0.533 1.867 0l2.667 2.667c0.533 0.533 0.533 1.333 0 1.867-0.267 0.267-0.533 0.4-0.933 0.4z"></path>
<path fill="#91908d" d="M4 32c-0.4 0-0.667-0.133-0.933-0.4-0.533-0.533-0.533-1.333 0-1.867l26.667-26.667c0.533-0.533 1.333-0.533 1.867 0s0.533 1.333 0 1.867l-26.667 26.667c-0.267 0.267-0.533 0.4-0.933 0.4z"></path>
<path fill="#91908d" d="M30.667 5.333c-0.4 0-0.667-0.133-0.933-0.4l-2.667-2.667c-0.533-0.533-0.533-1.333 0-1.867s1.333-0.533 1.867 0l2.667 2.667c0.533 0.533 0.533 1.333 0 1.867-0.267 0.267-0.533 0.4-0.933 0.4z"></path>
<path fill="#91908d" d="M1.333 29.333c-0.4 0-0.667-0.133-0.933-0.4-0.533-0.533-0.533-1.333 0-1.867l26.667-26.667c0.533-0.533 1.333-0.533 1.867 0s0.533 1.333 0 1.867l-26.667 26.667c-0.267 0.267-0.533 0.4-0.933 0.4z"></path>
<path fill="#91908d" d="M25.333 10.667c-0.4 0-0.667-0.133-0.933-0.4l-2.667-2.667c-0.533-0.533-0.533-1.333 0-1.867s1.333-0.533 1.867 0l2.667 2.667c0.533 0.533 0.533 1.333 0 1.867-0.267 0.267-0.533 0.4-0.933 0.4z"></path>
<path fill="#91908d" d="M20 24c-0.8 0-1.333-0.533-1.333-1.333v-2.667c0-0.8 0.533-1.333 1.333-1.333s1.333 0.533 1.333 1.333v2.667c0 0.8-0.533 1.333-1.333 1.333z"></path>
<path fill="#91908d" d="M20 5.333c-0.8 0-1.333-0.533-1.333-1.333v-2.667c0-0.8 0.533-1.333 1.333-1.333s1.333 0.533 1.333 1.333v2.667c0 0.8-0.533 1.333-1.333 1.333z"></path>
<path fill="#91908d" d="M12 13.333h-2.667c-0.8 0-1.333-0.533-1.333-1.333s0.533-1.333 1.333-1.333h2.667c0.8 0 1.333 0.533 1.333 1.333s-0.533 1.333-1.333 1.333z"></path>
<path fill="#91908d" d="M30.667 13.333h-2.667c-0.8 0-1.333-0.533-1.333-1.333s0.533-1.333 1.333-1.333h2.667c0.8 0 1.333 0.533 1.333 1.333s-0.533 1.333-1.333 1.333z"></path>
<path fill="#91908d" d="M14.4 7.733c-0.4 0-0.667-0.133-0.933-0.4l-2.933-2.933c-0.533-0.533-0.533-1.333 0-1.867s1.333-0.533 1.867 0l2.8 2.8c0.533 0.533 0.533 1.333 0 1.867-0.133 0.4-0.533 0.533-0.8 0.533z"></path>
<path fill="#91908d" d="M28.533 21.867c-0.4 0-0.667-0.133-0.933-0.4l-2.8-2.8c-0.533-0.533-0.533-1.333 0-1.867s1.333-0.533 1.867 0l2.8 2.8c0.533 0.533 0.533 1.333 0 1.867-0.267 0.267-0.667 0.4-0.933 0.4z"></path>
</svg>
