<!-- Generated by IcoMoon.io -->
<svg version="1.1" xmlns="http://www.w3.org/2000/svg" width="32" height="32" viewBox="0 0 32 32">
<title>mt-account_balance_wallet</title>
<path fill="#91908d" d="M28 24v1.333c0 1.467-1.2 2.667-2.667 2.667h-18.667c-1.48 0-2.667-1.2-2.667-2.667v-18.667c0-1.467 1.187-2.667 2.667-2.667h18.667c1.467 0 2.667 1.2 2.667 2.667v1.333h-12c-1.48 0-2.667 1.2-2.667 2.667v10.667c0 1.467 1.187 2.667 2.667 2.667h12zM16 21.333h13.333v-10.667h-13.333v10.667zM21.333 18c-1.107 0-2-0.893-2-2s0.893-2 2-2c1.107 0 2 0.893 2 2s-0.893 2-2 2v0z"></path>
</svg>
