<!-- Generated by IcoMoon.io -->
<svg version="1.1" xmlns="http://www.w3.org/2000/svg" width="32" height="32" viewBox="0 0 32 32">
<title>mt-art_track</title>
<path fill="#91908d" d="M29.333 17.333h-10.667v-2.667h10.667v2.667zM29.333 9.333h-10.667v2.667h10.667v-2.667zM18.667 22.667h10.667v-2.667h-10.667v2.667zM16 12v8c0 1.467-1.2 2.667-2.667 2.667h-8c-1.467 0-2.667-1.2-2.667-2.667v-8c0-1.467 1.2-2.667 2.667-2.667h8c1.467 0 2.667 1.2 2.667 2.667v0zM14 20l-3-4-2.333 3.013-1.667-2.013-2.333 3h9.333z"></path>
</svg>
