<!-- Generated by IcoMoon.io -->
<svg version="1.1" xmlns="http://www.w3.org/2000/svg" width="32" height="32" viewBox="0 0 32 32">
<title>mt-brightness_high</title>
<path fill="#91908d" d="M26.667 11.587v-6.253h-6.253l-4.413-4.413-4.413 4.413h-6.253v6.253l-4.413 4.413 4.413 4.413v6.253h6.253l4.413 4.413 4.413-4.413h6.253v-6.253l4.413-4.413-4.413-4.413zM16 24c-4.413 0-8-3.587-8-8s3.587-8 8-8c4.413 0 8 3.587 8 8s-3.587 8-8 8v0zM16 10.667c-2.947 0-5.333 2.387-5.333 5.333s2.387 5.333 5.333 5.333c2.947 0 5.333-2.387 5.333-5.333s-2.387-5.333-5.333-5.333v0z"></path>
</svg>
