<!-- Generated by IcoMoon.io -->
<svg version="1.1" xmlns="http://www.w3.org/2000/svg" width="32" height="32" viewBox="0 0 32 32">
<title>mt-camera_enhance</title>
<path fill="#91908d" d="M12 4l-2.44 2.667h-4.227c-1.467 0-2.667 1.2-2.667 2.667v16c0 1.467 1.2 2.667 2.667 2.667h21.333c1.467 0 2.667-1.2 2.667-2.667v-16c0-1.467-1.2-2.667-2.667-2.667h-4.227l-2.44-2.667h-8zM16 24c-3.68 0-6.667-2.987-6.667-6.667s2.987-6.667 6.667-6.667c3.68 0 6.667 2.987 6.667 6.667s-2.987 6.667-6.667 6.667v0z"></path>
<path fill="#91908d" d="M16 22.667l1.667-3.667 3.667-1.667-3.667-1.667-1.667-3.667-1.667 3.667-3.667 1.667 3.667 1.667 1.667 3.667z"></path>
</svg>
