<!-- Generated by IcoMoon.io -->
<svg version="1.1" xmlns="http://www.w3.org/2000/svg" width="32" height="32" viewBox="0 0 32 32">
<title>mt-cast</title>
<path fill="#91908d" d="M28 4h-24c-1.467 0-2.667 1.2-2.667 2.667v4h2.667v-4h24v18.667h-9.333v2.667h9.333c1.467 0 2.667-1.2 2.667-2.667v-18.667c0-1.467-1.2-2.667-2.667-2.667v0zM1.333 24v4h4c0-2.213-1.787-4-4-4v0zM1.333 18.667v2.667c3.68 0 6.667 2.987 6.667 6.667h2.667c0-5.16-4.173-9.333-9.333-9.333v0zM1.333 13.333v2.667c6.627 0 12 5.373 12 12h2.667c0-8.107-6.573-14.667-14.667-14.667v0z"></path>
</svg>
