<!-- Generated by IcoMoon.io -->
<svg version="1.1" xmlns="http://www.w3.org/2000/svg" width="32" height="32" viewBox="0 0 32 32">
<title>mt-contact_phone</title>
<path fill="#91908d" d="M29.333 4h-26.667c-1.467 0-2.667 1.2-2.667 2.667v18.667c0 1.467 1.2 2.667 2.667 2.667h26.667c1.467 0 2.653-1.2 2.653-2.667l0.013-18.667c0-1.467-1.2-2.667-2.667-2.667v0zM10.667 8c2.213 0 4 1.787 4 4s-1.787 4-4 4c-2.213 0-4-1.787-4-4s1.787-4 4-4v0zM18.667 24h-16v-1.333c0-2.667 5.333-4.133 8-4.133s8 1.467 8 4.133v1.333zM23.8 18.667h2.187l2.013 2.667-2.653 2.653c-1.747-1.307-3.040-3.173-3.64-5.32-0.24-0.853-0.373-1.747-0.373-2.667s0.133-1.813 0.373-2.667c0.6-2.16 1.893-4.013 3.64-5.32l2.653 2.653-2.013 2.667h-2.187c-0.293 0.84-0.467 1.733-0.467 2.667s0.173 1.827 0.467 2.667v0z"></path>
</svg>
