<!-- Generated by IcoMoon.io -->
<svg version="1.1" xmlns="http://www.w3.org/2000/svg" width="32" height="32" viewBox="0 0 32 32">
<title>mt-directions_run</title>
<path fill="#91908d" d="M17.987 7.307c1.467 0 2.667-1.2 2.667-2.667s-1.2-2.667-2.667-2.667c-1.467 0-2.667 1.2-2.667 2.667s1.2 2.667 2.667 2.667v0zM13.187 25.84l1.333-5.867 2.8 2.667v8h2.667v-10l-2.8-2.667 0.8-4c1.733 2 4.4 3.333 7.333 3.333v-2.667c-2.533 0-4.667-1.333-5.733-3.2l-1.333-2.133c-0.533-0.8-1.333-1.333-2.267-1.333-0.4 0-0.667 0.133-1.067 0.133l-6.933 2.933v6.267h2.667v-4.533l2.4-0.933-2.133 10.8-6.533-1.333-0.533 2.667 9.333 1.867z"></path>
</svg>
