<!-- Generated by IcoMoon.io -->
<svg version="1.1" xmlns="http://www.w3.org/2000/svg" width="32" height="32" viewBox="0 0 32 32">
<title>mt-exposure_plus_2</title>
<path fill="#91908d" d="M21.4 21.72l3.813-4.093c0.507-0.52 0.96-1.053 1.387-1.573s0.787-1.040 1.093-1.56c0.307-0.52 0.547-1.040 0.72-1.56s0.253-1.053 0.253-1.573c0-0.707-0.12-1.36-0.36-1.947s-0.587-1.080-1.040-1.48c-0.453-0.413-1.027-0.72-1.68-0.947-0.68-0.213-1.44-0.32-2.293-0.32-0.92 0-1.747 0.147-2.467 0.427s-1.333 0.68-1.813 1.173c-0.493 0.493-0.867 1.067-1.12 1.733-0.24 0.627-0.36 1.293-0.373 2h2.853c0.013-0.413 0.067-0.8 0.173-1.16 0.12-0.387 0.307-0.72 0.533-1 0.24-0.28 0.547-0.493 0.907-0.653s0.8-0.24 1.28-0.24c0.413 0 0.773 0.067 1.080 0.2s0.573 0.333 0.787 0.573c0.213 0.24 0.373 0.533 0.493 0.867 0.107 0.333 0.173 0.693 0.173 1.080 0 0.293-0.040 0.573-0.107 0.867-0.080 0.293-0.2 0.6-0.387 0.933s-0.427 0.707-0.747 1.107c-0.307 0.4-0.693 0.867-1.173 1.373l-5.56 6.067v1.987h11.507v-2.28h-7.933zM10.667 9.333h-2.667v5.333h-5.333v2.667h5.333v5.333h2.667v-5.333h5.333v-2.667h-5.333v-5.333z"></path>
</svg>
