<!-- Generated by IcoMoon.io -->
<svg version="1.1" xmlns="http://www.w3.org/2000/svg" width="32" height="32" viewBox="0 0 32 32">
<title>mt-format_list_bulleted</title>
<path fill="#91908d" d="M5.333 14c-1.107 0-2 0.893-2 2s0.893 2 2 2c1.107 0 2-0.893 2-2s-0.893-2-2-2v0zM5.333 6c-1.107 0-2 0.893-2 2s0.893 2 2 2c1.107 0 2-0.893 2-2s-0.893-2-2-2v0zM5.333 22.227c-0.987 0-1.773 0.8-1.773 1.773s0.8 1.773 1.773 1.773c0.973 0 1.773-0.8 1.773-1.773s-0.787-1.773-1.773-1.773v0zM9.333 25.333h18.667v-2.667h-18.667v2.667zM9.333 17.333h18.667v-2.667h-18.667v2.667zM9.333 6.667v2.667h18.667v-2.667h-18.667z"></path>
</svg>
