<!-- Generated by IcoMoon.io -->
<svg version="1.1" xmlns="http://www.w3.org/2000/svg" width="32" height="32" viewBox="0 0 32 32">
<title>mt-filter_drama</title>
<path fill="#91908d" d="M25.8 13.387c-0.907-4.6-4.947-8.053-9.8-8.053-3.853 0-7.187 2.187-8.853 5.387-4.013 0.427-7.147 3.813-7.147 7.947 0 4.413 3.587 8 8 8h17.333c3.68 0 6.667-2.987 6.667-6.667 0-3.52-2.733-6.373-6.2-6.613v0zM25.333 24h-17.333c-2.947 0-5.333-2.387-5.333-5.333s2.387-5.333 5.333-5.333c2.947 0 5.333 2.387 5.333 5.333h2.667c0-3.68-2.48-6.773-5.867-7.707 1.347-1.787 3.467-2.96 5.867-2.96 4.040 0 7.333 3.293 7.333 7.333v0.667h2c2.2 0 4 1.8 4 4s-1.8 4-4 4v0z"></path>
</svg>
