<!-- Generated by IcoMoon.io -->
<svg version="1.1" xmlns="http://www.w3.org/2000/svg" width="32" height="32" viewBox="0 0 32 32">
<title>mt-flip_to_front</title>
<path fill="#91908d" d="M4 17.333h2.667v-2.667h-2.667v2.667zM4 22.667h2.667v-2.667h-2.667v2.667zM6.667 28v-2.667h-2.667c0 1.467 1.187 2.667 2.667 2.667v0zM4 12h2.667v-2.667h-2.667v2.667zM20 28h2.667v-2.667h-2.667v2.667zM25.333 4h-13.333c-1.48 0-2.667 1.2-2.667 2.667v13.333c0 1.467 1.187 2.667 2.667 2.667h13.333c1.467 0 2.667-1.2 2.667-2.667v-13.333c0-1.467-1.2-2.667-2.667-2.667v0zM25.333 20h-13.333v-13.333h13.333v13.333zM14.667 28h2.667v-2.667h-2.667v2.667zM9.333 28h2.667v-2.667h-2.667v2.667z"></path>
</svg>
