<!-- Generated by IcoMoon.io -->
<svg version="1.1" xmlns="http://www.w3.org/2000/svg" width="32" height="32" viewBox="0 0 32 32">
<title>mt-gesture</title>
<path fill="#91908d" d="M6.12 9.187c0.933-0.947 1.867-1.8 2.28-1.627 0.667 0.267 0 1.373-0.4 2.027-0.333 0.56-3.813 5.187-3.813 8.413 0 1.707 0.64 3.12 1.787 3.973 1 0.747 2.32 0.973 3.52 0.613 1.427-0.413 2.6-1.867 4.080-3.693 1.613-1.987 3.773-4.587 5.44-4.587 2.173 0 2.2 1.347 2.347 2.387-5.040 0.853-7.173 4.893-7.173 7.16s1.92 4.12 4.28 4.12c2.173 0 5.72-1.773 6.253-8.133h3.28v-3.333h-3.293c-0.2-2.2-1.453-5.6-5.373-5.6-3 0-5.573 2.547-6.587 3.787-0.773 0.973-2.747 3.307-3.053 3.627-0.333 0.4-0.907 1.12-1.48 1.12-0.6 0-0.96-1.107-0.48-2.56 0.467-1.453 1.867-3.813 2.467-4.693 1.040-1.52 1.733-2.56 1.733-4.373 0-2.893-2.187-3.813-3.347-3.813-1.76 0-3.293 1.333-3.627 1.667-0.48 0.48-0.88 0.88-1.173 1.24l2.333 2.28zM18.507 24.733c-0.413 0-0.987-0.347-0.987-0.96 0-0.8 0.973-2.933 3.827-3.68-0.4 3.587-1.907 4.64-2.84 4.64v0z"></path>
</svg>
