<!-- Generated by IcoMoon.io -->
<svg version="1.1" xmlns="http://www.w3.org/2000/svg" width="32" height="32" viewBox="0 0 32 32">
<title>mt-healing</title>
<path fill="#91908d" d="M23.64 16.027l5.307-5.307c0.52-0.52 0.52-1.36 0-1.88l-5.787-5.787c-0.52-0.52-1.36-0.52-1.88 0l-5.307 5.307-5.307-5.307c-0.267-0.253-0.6-0.387-0.947-0.387-0.333 0-0.68 0.133-0.933 0.387l-5.787 5.787c-0.52 0.52-0.52 1.36 0 1.88l5.307 5.307-5.307 5.307c-0.52 0.52-0.52 1.36 0 1.88l5.787 5.787c0.52 0.52 1.36 0.52 1.88 0l5.307-5.307 5.307 5.307c0.267 0.267 0.6 0.387 0.947 0.387s0.68-0.133 0.947-0.387l5.787-5.787c0.52-0.52 0.52-1.36 0-1.88l-5.32-5.307zM16 12c0.733 0 1.333 0.6 1.333 1.333s-0.6 1.333-1.333 1.333-1.333-0.6-1.333-1.333c0-0.733 0.6-1.333 1.333-1.333v0zM9.72 14.613l-4.84-4.827 4.84-4.84 4.827 4.827-4.827 4.84zM13.333 17.333c-0.733 0-1.333-0.6-1.333-1.333s0.6-1.333 1.333-1.333c0.733 0 1.333 0.6 1.333 1.333s-0.6 1.333-1.333 1.333v0zM16 20c-0.733 0-1.333-0.6-1.333-1.333s0.6-1.333 1.333-1.333c0.733 0 1.333 0.6 1.333 1.333s-0.6 1.333-1.333 1.333v0zM18.667 14.667c0.733 0 1.333 0.6 1.333 1.333s-0.6 1.333-1.333 1.333c-0.733 0-1.333-0.6-1.333-1.333s0.6-1.333 1.333-1.333v0zM22.213 27.12l-4.84-4.827 4.84-4.84 4.827 4.827-4.827 4.84z"></path>
</svg>
