<!-- Generated by IcoMoon.io -->
<svg version="1.1" xmlns="http://www.w3.org/2000/svg" width="32" height="32" viewBox="0 0 32 32">
<title>mt-highlight_off</title>
<path fill="#91908d" d="M19.453 10.667l-3.453 3.453-3.453-3.453-1.88 1.88 3.453 3.453-3.453 3.453 1.88 1.88 3.453-3.453 3.453 3.453 1.88-1.88-3.453-3.453 3.453-3.453-1.88-1.88zM16 2.667c-7.373 0-13.333 5.96-13.333 13.333s5.96 13.333 13.333 13.333c7.373 0 13.333-5.96 13.333-13.333s-5.96-13.333-13.333-13.333v0zM16 26.667c-5.88 0-10.667-4.787-10.667-10.667s4.787-10.667 10.667-10.667c5.88 0 10.667 4.787 10.667 10.667s-4.787 10.667-10.667 10.667v0z"></path>
</svg>
