<!-- Generated by IcoMoon.io -->
<svg version="1.1" xmlns="http://www.w3.org/2000/svg" width="32" height="32" viewBox="0 0 32 32">
<title>mt-keyboard</title>
<path fill="#91908d" d="M26.667 6.667h-21.333c-1.467 0-2.653 1.2-2.653 2.667l-0.013 13.333c0 1.467 1.2 2.667 2.667 2.667h21.333c1.467 0 2.667-1.2 2.667-2.667v-13.333c0-1.467-1.2-2.667-2.667-2.667v0zM14.667 10.667h2.667v2.667h-2.667v-2.667zM14.667 14.667h2.667v2.667h-2.667v-2.667zM10.667 10.667h2.667v2.667h-2.667v-2.667zM10.667 14.667h2.667v2.667h-2.667v-2.667zM9.333 17.333h-2.667v-2.667h2.667v2.667zM9.333 13.333h-2.667v-2.667h2.667v2.667zM21.333 22.667h-10.667v-2.667h10.667v2.667zM21.333 17.333h-2.667v-2.667h2.667v2.667zM21.333 13.333h-2.667v-2.667h2.667v2.667zM25.333 17.333h-2.667v-2.667h2.667v2.667zM25.333 13.333h-2.667v-2.667h2.667v2.667z"></path>
</svg>
