<!-- Generated by IcoMoon.io -->
<svg version="1.1" xmlns="http://www.w3.org/2000/svg" width="32" height="32" viewBox="0 0 32 32">
<title>mt-local_florist</title>
<path fill="#91908d" d="M16 29.333c6.627 0 12-5.373 12-12-6.627 0-12 5.373-12 12v0zM7.467 13.667c0 1.84 1.493 3.333 3.333 3.333 0.707 0 1.347-0.213 1.893-0.587l-0.027 0.253c0 1.84 1.493 3.333 3.333 3.333s3.333-1.493 3.333-3.333l-0.027-0.253c0.533 0.373 1.187 0.587 1.893 0.587 1.84 0 3.333-1.493 3.333-3.333 0-1.333-0.787-2.467-1.907-3 1.12-0.533 1.907-1.667 1.907-3 0-1.84-1.493-3.333-3.333-3.333-0.707 0-1.347 0.213-1.893 0.587l0.027-0.253c0-1.84-1.493-3.333-3.333-3.333s-3.333 1.493-3.333 3.333l0.027 0.253c-0.533-0.373-1.187-0.587-1.893-0.587-1.84 0-3.333 1.493-3.333 3.333 0 1.333 0.787 2.467 1.907 3-1.12 0.533-1.907 1.667-1.907 3v0zM16 7.333c1.84 0 3.333 1.493 3.333 3.333s-1.493 3.333-3.333 3.333c-1.84 0-3.333-1.493-3.333-3.333s1.493-3.333 3.333-3.333v0zM4 17.333c0 6.627 5.373 12 12 12 0-6.627-5.373-12-12-12v0z"></path>
</svg>
