<!-- Generated by IcoMoon.io -->
<svg version="1.1" xmlns="http://www.w3.org/2000/svg" width="32" height="32" viewBox="0 0 32 32">
<title>mt-language</title>
<path fill="#91908d" d="M15.987 2.667c-7.36 0-13.32 5.973-13.32 13.333s5.96 13.333 13.32 13.333c7.373 0 13.347-5.973 13.347-13.333s-5.973-13.333-13.347-13.333v0zM25.227 10.667h-3.933c-0.427-1.667-1.040-3.267-1.84-4.747 2.453 0.84 4.493 2.547 5.773 4.747v0zM16 5.387c1.107 1.6 1.973 3.373 2.547 5.28h-5.093c0.573-1.907 1.44-3.68 2.547-5.28v0zM5.68 18.667c-0.213-0.853-0.347-1.747-0.347-2.667s0.133-1.813 0.347-2.667h4.507c-0.107 0.88-0.187 1.76-0.187 2.667s0.080 1.787 0.187 2.667h-4.507zM6.773 21.333h3.933c0.427 1.667 1.040 3.267 1.84 4.747-2.453-0.84-4.493-2.533-5.773-4.747v0zM10.707 10.667h-3.933c1.28-2.213 3.32-3.907 5.773-4.747-0.8 1.48-1.413 3.080-1.84 4.747v0zM16 26.613c-1.107-1.6-1.973-3.373-2.547-5.28h5.093c-0.573 1.907-1.44 3.68-2.547 5.28v0zM19.12 18.667h-6.24c-0.12-0.88-0.213-1.76-0.213-2.667s0.093-1.8 0.213-2.667h6.24c0.12 0.867 0.213 1.76 0.213 2.667s-0.093 1.787-0.213 2.667v0zM19.453 26.080c0.8-1.48 1.413-3.080 1.84-4.747h3.933c-1.28 2.2-3.32 3.907-5.773 4.747v0zM21.813 18.667c0.107-0.88 0.187-1.76 0.187-2.667s-0.080-1.787-0.187-2.667h4.507c0.213 0.853 0.347 1.747 0.347 2.667s-0.133 1.813-0.347 2.667h-4.507z"></path>
</svg>
