<!-- Generated by IcoMoon.io -->
<svg version="1.1" xmlns="http://www.w3.org/2000/svg" width="32" height="32" viewBox="0 0 32 32">
<title>mt-leak_add</title>
<path fill="#91908d" d="M8 4h-4v4c2.213 0 4-1.787 4-4v0zM18.667 4h-2.667c0 6.627-5.373 12-12 12v2.667c8.107 0 14.667-6.573 14.667-14.667v0zM13.333 4h-2.667c0 3.68-2.987 6.667-6.667 6.667v2.667c5.16 0 9.333-4.173 9.333-9.333v0zM13.333 28h2.667c0-6.627 5.373-12 12-12v-2.667c-8.093 0-14.667 6.573-14.667 14.667v0zM24 28h4v-4c-2.213 0-4 1.787-4 4v0zM18.667 28h2.667c0-3.68 2.987-6.667 6.667-6.667v-2.667c-5.16 0-9.333 4.173-9.333 9.333v0z"></path>
</svg>
