<!-- Generated by IcoMoon.io -->
<svg version="1.1" xmlns="http://www.w3.org/2000/svg" width="32" height="32" viewBox="0 0 32 32">
<title>mt-mmt-off</title>
<path fill="#91908d" d="M25.333 14.667h-2.267c0 0.987-0.213 1.907-0.573 2.733l1.64 1.64c0.747-1.307 1.2-2.787 1.2-4.373v0zM19.973 14.893c0-0.080 0.027-0.147 0.027-0.227v-8c0-2.213-1.787-4-4-4s-4 1.787-4 4v0.24l7.973 7.987zM5.693 4l-1.693 1.693 8.013 8.013v0.96c0 2.213 1.773 4 3.987 4 0.293 0 0.587-0.040 0.867-0.107l2.213 2.213c-0.947 0.44-2 0.693-3.080 0.693-3.68 0-7.067-2.8-7.067-6.8h-2.267c0 4.547 3.627 8.307 8 8.96v4.373h2.667v-4.373c1.213-0.173 2.36-0.6 3.387-1.2l5.587 5.573 1.693-1.693-22.307-22.307z"></path>
</svg>
