<!-- Generated by IcoMoon.io -->
<svg version="1.1" xmlns="http://www.w3.org/2000/svg" width="32" height="32" viewBox="0 0 32 32">
<title>mt-pages</title>
<path fill="#91908d" d="M4 6.667v8h6.667l-1.333-5.333 5.333 1.333v-6.667h-8c-1.467 0-2.667 1.2-2.667 2.667v0zM10.667 17.333h-6.667v8c0 1.467 1.2 2.667 2.667 2.667h8v-6.667l-5.333 1.333 1.333-5.333zM22.667 22.667l-5.333-1.333v6.667h8c1.467 0 2.667-1.2 2.667-2.667v-8h-6.667l1.333 5.333zM25.333 4h-8v6.667l5.333-1.333-1.333 5.333h6.667v-8c0-1.467-1.2-2.667-2.667-2.667v0z"></path>
</svg>
