<!-- Generated by IcoMoon.io -->
<svg version="1.1" xmlns="http://www.w3.org/2000/svg" width="32" height="32" viewBox="0 0 32 32">
<title>mt-people</title>
<path fill="#91908d" d="M21.333 14.667c2.213 0 3.987-1.787 3.987-4s-1.773-4-3.987-4c-2.213 0-4 1.787-4 4s1.787 4 4 4v0zM10.667 14.667c2.213 0 3.987-1.787 3.987-4s-1.773-4-3.987-4c-2.213 0-4 1.787-4 4s1.787 4 4 4v0zM10.667 17.333c-3.107 0-9.333 1.56-9.333 4.667v3.333h18.667v-3.333c0-3.107-6.227-4.667-9.333-4.667v0zM21.333 17.333c-0.387 0-0.827 0.027-1.293 0.067 1.547 1.12 2.627 2.627 2.627 4.6v3.333h8v-3.333c0-3.107-6.227-4.667-9.333-4.667v0z"></path>
</svg>
