<!-- Generated by IcoMoon.io -->
<svg version="1.1" xmlns="http://www.w3.org/2000/svg" width="32" height="32" viewBox="0 0 32 32">
<title>mt-pageview</title>
<path fill="#91908d" d="M15.333 12c-1.84 0-3.333 1.493-3.333 3.333s1.493 3.333 3.333 3.333c1.84 0 3.333-1.493 3.333-3.333s-1.493-3.333-3.333-3.333v0zM26.667 5.333h-21.333c-1.467 0-2.667 1.2-2.667 2.667v16c0 1.467 1.2 2.667 2.667 2.667h21.333c1.467 0 2.667-1.2 2.667-2.667v-16c0-1.467-1.2-2.667-2.667-2.667v0zM22.387 24.28l-3.88-3.88c-0.92 0.587-2.013 0.933-3.187 0.933-3.307 0-5.987-2.68-5.987-6s2.68-6 6-6c3.32 0 6 2.68 6 6 0 1.173-0.347 2.253-0.933 3.187l3.88 3.867-1.893 1.893z"></path>
</svg>
