<!-- Generated by IcoMoon.io -->
<svg version="1.1" xmlns="http://www.w3.org/2000/svg" width="32" height="32" viewBox="0 0 32 32">
<title>mt-phone_in_talk</title>
<path fill="#91908d" d="M26.667 20.667c-1.667 0-3.267-0.267-4.76-0.76-0.467-0.147-0.987-0.040-1.36 0.32l-2.933 2.933c-3.773-1.92-6.867-5-8.787-8.787l2.933-2.947c0.373-0.347 0.48-0.867 0.333-1.333-0.493-1.493-0.76-3.093-0.76-4.76 0-0.733-0.6-1.333-1.333-1.333h-4.667c-0.733 0-1.333 0.6-1.333 1.333 0 12.52 10.147 22.667 22.667 22.667 0.733 0 1.333-0.6 1.333-1.333v-4.667c0-0.733-0.6-1.333-1.333-1.333v0zM25.333 16h2.667c0-6.627-5.373-12-12-12v2.667c5.16 0 9.333 4.173 9.333 9.333v0zM20 16h2.667c0-3.68-2.987-6.667-6.667-6.667v2.667c2.213 0 4 1.787 4 4v0z"></path>
</svg>
