<!-- Generated by IcoMoon.io -->
<svg version="1.1" xmlns="http://www.w3.org/2000/svg" width="32" height="32" viewBox="0 0 32 32">
<title>mt-snooze</title>
<path fill="#91908d" d="M10.507 4.52l-1.707-2.040-6.133 5.133 1.72 2.040 6.12-5.133zM29.333 7.627l-6.133-5.147-1.72 2.040 6.133 5.147 1.72-2.040zM16 5.333c-6.627 0-12 5.373-12 12s5.36 12 12 12c6.627 0 12-5.373 12-12s-5.373-12-12-12v0zM16 26.667c-5.16 0-9.333-4.173-9.333-9.333s4.173-9.333 9.333-9.333c5.16 0 9.333 4.173 9.333 9.333s-4.173 9.333-9.333 9.333v0zM12 14.667h4.84l-4.84 5.6v2.4h8v-2.667h-4.84l4.84-5.6v-2.4h-8v2.667z"></path>
</svg>
