<!-- Generated by IcoMoon.io -->
<svg version="1.1" xmlns="http://www.w3.org/2000/svg" width="32" height="32" viewBox="0 0 32 32">
<title>mt-signal_wifi_4_bar_lock</title>
<path fill="#91908d" d="M30.667 21.333v-2c0-1.867-1.467-3.333-3.333-3.333s-3.333 1.467-3.333 3.333v2c-0.667 0-1.333 0.667-1.333 1.333v5.333c0 0.667 0.667 1.333 1.333 1.333h6.667c0.667 0 1.333-0.667 1.333-1.333v-5.333c0-0.667-0.667-1.333-1.333-1.333v0zM29.333 21.333h-4v-2c0-1.067 0.933-2 2-2s2 0.933 2 2v2zM20.667 19.333c0-3.733 2.933-6.667 6.667-6.667 0.533 0 0.933 0 1.333 0.133l2.8-3.467c-0.533-0.4-6.533-5.333-15.467-5.333s-14.933 4.933-15.467 5.333l15.467 19.333 4.667-5.867v-3.467z"></path>
</svg>
