<!-- Generated by IcoMoon.io -->
<svg version="1.1" xmlns="http://www.w3.org/2000/svg" width="32" height="32" viewBox="0 0 32 32">
<title>mt-settings_voice</title>
<path fill="#91908d" d="M9.333 32h2.667v-2.667h-2.667v2.667zM16 17.333c2.213 0 3.987-1.787 3.987-4l0.013-8c0-2.213-1.787-4-4-4s-4 1.787-4 4v8c0 2.213 1.787 4 4 4v0zM14.667 32h2.667v-2.667h-2.667v2.667zM20 32h2.667v-2.667h-2.667v2.667zM25.333 13.333h-2.267c0 4-3.387 6.8-7.067 6.8s-7.067-2.8-7.067-6.8h-2.267c0 4.547 3.627 8.307 8 8.96v4.373h2.667v-4.373c4.373-0.653 8-4.413 8-8.96v0z"></path>
</svg>
