<!-- Generated by IcoMoon.io -->
<svg version="1.1" xmlns="http://www.w3.org/2000/svg" width="32" height="32" viewBox="0 0 32 32">
<title>mt-sync_disabled</title>
<path fill="#91908d" d="M13.333 8.467v-2.787c-1.067 0.28-2.067 0.72-2.973 1.28l1.947 1.947c0.333-0.16 0.667-0.32 1.027-0.44v0zM3.813 7.213l3.147 3.147c-1.027 1.627-1.627 3.56-1.627 5.64 0 2.947 1.213 5.6 3.147 7.52l-3.147 3.147h8v-8l-2.987 2.987c-1.44-1.453-2.347-3.44-2.347-5.653 0-1.333 0.333-2.587 0.907-3.693l10.773 10.773c-0.333 0.173-0.667 0.333-1.027 0.453v2.787c1.067-0.28 2.067-0.72 2.973-1.28l3.147 3.147 1.693-1.693-20.947-20.973-1.707 1.693zM26.667 5.333h-8v8l2.987-2.987c1.44 1.453 2.347 3.44 2.347 5.653 0 1.333-0.333 2.587-0.907 3.693l1.947 1.947c1.027-1.627 1.627-3.56 1.627-5.64 0-2.947-1.213-5.6-3.147-7.52l3.147-3.147z"></path>
</svg>
