<!-- Generated by IcoMoon.io -->
<svg version="1.1" xmlns="http://www.w3.org/2000/svg" width="32" height="32" viewBox="0 0 32 32">
<title>mt-speaker</title>
<path fill="#91908d" d="M22.667 2.667h-13.333c-1.467 0-2.667 1.2-2.667 2.667v21.333c0 1.467 1.2 2.653 2.667 2.653l13.333 0.013c1.467 0 2.667-1.2 2.667-2.667v-21.333c0-1.467-1.2-2.667-2.667-2.667v0zM16 5.333c1.467 0 2.667 1.2 2.667 2.667s-1.2 2.667-2.667 2.667c-1.48 0-2.667-1.2-2.667-2.667s1.187-2.667 2.667-2.667v0zM16 26.667c-3.68 0-6.667-2.987-6.667-6.667s2.987-6.667 6.667-6.667c3.68 0 6.667 2.987 6.667 6.667s-2.987 6.667-6.667 6.667v0zM16 16c-2.213 0-4 1.787-4 4s1.787 4 4 4c2.213 0 4-1.787 4-4s-1.787-4-4-4v0z"></path>
</svg>
