<!-- Generated by IcoMoon.io -->
<svg version="1.1" xmlns="http://www.w3.org/2000/svg" width="32" height="32" viewBox="0 0 32 32">
<title>mt-settings_remote</title>
<path fill="#91908d" d="M20 12h-8c-0.733 0-1.333 0.6-1.333 1.333v16c0 0.733 0.6 1.333 1.333 1.333h8c0.733 0 1.333-0.6 1.333-1.333v-16c0-0.733-0.6-1.333-1.333-1.333v0zM16 20c-1.467 0-2.667-1.2-2.667-2.667s1.2-2.667 2.667-2.667c1.467 0 2.667 1.2 2.667 2.667s-1.2 2.667-2.667 2.667v0zM9.4 8.067l1.88 1.88c1.213-1.2 2.88-1.947 4.72-1.947s3.507 0.747 4.72 1.947l1.88-1.88c-1.693-1.693-4.027-2.733-6.6-2.733s-4.907 1.040-6.6 2.733v0zM16 0c-4.053 0-7.72 1.64-10.373 4.293l1.88 1.88c2.173-2.16 5.173-3.507 8.493-3.507s6.32 1.347 8.48 3.52l1.88-1.88c-2.64-2.667-6.307-4.307-10.36-4.307v0z"></path>
</svg>
