<!-- Generated by IcoMoon.io -->
<svg version="1.1" xmlns="http://www.w3.org/2000/svg" width="32" height="32" viewBox="0 0 32 32">
<title>mt-supervisor_account</title>
<path fill="#91908d" d="M22 16c1.84 0 3.32-1.493 3.32-3.333s-1.48-3.333-3.32-3.333c-1.84 0-3.333 1.493-3.333 3.333s1.493 3.333 3.333 3.333v0zM12 14.667c2.213 0 3.987-1.787 3.987-4s-1.773-4-3.987-4c-2.213 0-4 1.787-4 4s1.787 4 4 4v0zM22 18.667c-2.44 0-7.333 1.227-7.333 3.667v3h14.667v-3c0-2.44-4.893-3.667-7.333-3.667v0zM12 17.333c-3.107 0-9.333 1.56-9.333 4.667v3.333h9.333v-3c0-1.133 0.44-3.12 3.16-4.627-1.16-0.24-2.28-0.373-3.16-0.373v0z"></path>
</svg>
