<!-- Generated by IcoMoon.io -->
<svg version="1.1" xmlns="http://www.w3.org/2000/svg" width="32" height="32" viewBox="0 0 32 32">
<title>mt-shopping_basket</title>
<path fill="#91908d" d="M22.947 12l-5.84-8.747c-0.253-0.373-0.68-0.56-1.107-0.56s-0.853 0.187-1.107 0.573l-5.84 8.733h-6.387c-0.733 0-1.333 0.6-1.333 1.333 0 0.12 0.013 0.24 0.053 0.36l3.387 12.36c0.307 1.12 1.333 1.947 2.56 1.947h17.333c1.227 0 2.253-0.827 2.573-1.947l3.387-12.36 0.040-0.36c0-0.733-0.6-1.333-1.333-1.333h-6.387zM12 12l4-5.867 4 5.867h-8zM16 22.667c-1.467 0-2.667-1.2-2.667-2.667s1.2-2.667 2.667-2.667c1.467 0 2.667 1.2 2.667 2.667s-1.2 2.667-2.667 2.667v0z"></path>
</svg>
