<!-- Generated by IcoMoon.io -->
<svg version="1.1" xmlns="http://www.w3.org/2000/svg" width="32" height="32" viewBox="0 0 32 32">
<title>mt-tab_unselected</title>
<path fill="#91908d" d="M1.333 12h2.667v-2.667h-2.667v2.667zM1.333 17.333h2.667v-2.667h-2.667v2.667zM1.333 6.667h2.667v-2.667c-1.467 0-2.667 1.2-2.667 2.667v0zM12 28h2.667v-2.667h-2.667v2.667zM1.333 22.667h2.667v-2.667h-2.667v2.667zM4 28v-2.667h-2.667c0 1.467 1.2 2.667 2.667 2.667v0zM28 4h-10.667v8h13.333v-5.333c0-1.467-1.2-2.667-2.667-2.667v0zM28 22.667h2.667v-2.667h-2.667v2.667zM12 6.667h2.667v-2.667h-2.667v2.667zM6.667 28h2.667v-2.667h-2.667v2.667zM6.667 6.667h2.667v-2.667h-2.667v2.667zM28 28c1.467 0 2.667-1.2 2.667-2.667h-2.667v2.667zM28 17.333h2.667v-2.667h-2.667v2.667zM17.333 28h2.667v-2.667h-2.667v2.667zM22.667 28h2.667v-2.667h-2.667v2.667z"></path>
</svg>
