<!-- Generated by IcoMoon.io -->
<svg version="1.1" xmlns="http://www.w3.org/2000/svg" width="32" height="32" viewBox="0 0 32 32">
<title>mt-touch_app</title>
<path fill="#91908d" d="M12 14.987v-4.987c0-1.84 1.493-3.333 3.333-3.333s3.333 1.493 3.333 3.333v4.987c1.613-1.080 2.667-2.907 2.667-4.987 0-3.32-2.68-6-6-6s-6 2.68-6 6c0 2.080 1.053 3.907 2.667 4.987v0zM25.12 21.16l-6.053-3.013c-0.227-0.093-0.467-0.147-0.72-0.147h-1.013v-8c0-1.107-0.893-2-2-2s-2 0.893-2 2v14.32l-4.573-0.96c-0.107-0.013-0.2-0.040-0.32-0.040-0.413 0-0.787 0.173-1.053 0.44l-1.053 1.067 6.587 6.587c0.36 0.36 0.867 0.587 1.413 0.587h9.053c1 0 1.773-0.733 1.92-1.707l1-7.027c0.013-0.093 0.027-0.187 0.027-0.267 0-0.827-0.507-1.547-1.213-1.84v0z"></path>
</svg>
