<!-- Generated by IcoMoon.io -->
<svg version="1.1" xmlns="http://www.w3.org/2000/svg" width="32" height="32" viewBox="0 0 32 32">
<title>mt-traffic</title>
<path fill="#91908d" d="M26.667 13.333h-4v-1.52c2.293-0.6 4-2.667 4-5.147h-4v-1.333c0-0.733-0.6-1.333-1.333-1.333h-10.667c-0.733 0-1.333 0.6-1.333 1.333v1.333h-4c0 2.48 1.707 4.547 4 5.147v1.52h-4c0 2.48 1.707 4.547 4 5.147v1.52h-4c0 2.48 1.707 4.547 4 5.147v1.52c0 0.733 0.6 1.333 1.333 1.333h10.667c0.733 0 1.333-0.6 1.333-1.333v-1.52c2.293-0.6 4-2.667 4-5.147h-4v-1.52c2.293-0.6 4-2.667 4-5.147v0zM16 25.333c-1.48 0-2.667-1.2-2.667-2.667s1.187-2.667 2.667-2.667c1.467 0 2.667 1.2 2.667 2.667s-1.187 2.667-2.667 2.667v0zM16 18.667c-1.48 0-2.667-1.2-2.667-2.667s1.187-2.667 2.667-2.667c1.467 0 2.667 1.2 2.667 2.667s-1.187 2.667-2.667 2.667v0zM16 12c-1.48 0-2.667-1.2-2.667-2.667 0-1.48 1.187-2.667 2.667-2.667 1.467 0 2.667 1.187 2.667 2.667 0 1.467-1.187 2.667-2.667 2.667v0z"></path>
</svg>
