<!-- Generated by IcoMoon.io -->
<svg version="1.1" xmlns="http://www.w3.org/2000/svg" width="32" height="32" viewBox="0 0 32 32">
<title>mt-thumbs_up_down</title>
<path fill="#91908d" d="M16 8c0-0.733-0.6-1.333-1.333-1.333h-6.907l0.88-4.24 0.027-0.307c0-0.413-0.173-0.787-0.44-1.067l-1.053-1.053-6.587 6.587c-0.36 0.36-0.587 0.867-0.587 1.413v8.667c0 1.107 0.893 2 2 2h9c0.827 0 1.533-0.507 1.84-1.213l3.013-7.053c0.093-0.227 0.147-0.48 0.147-0.733v-1.667zM30 13.333h-9c-0.827 0-1.533 0.507-1.84 1.213l-3.013 7.053c-0.093 0.227-0.147 0.48-0.147 0.733v1.667c0 0.733 0.6 1.333 1.333 1.333h6.907l-0.88 4.24-0.027 0.32c0 0.413 0.173 0.787 0.44 1.067l1.053 1.040 6.587-6.587c0.36-0.36 0.587-0.867 0.587-1.413v-8.667c0-1.107-0.893-2-2-2v0z"></path>
</svg>
