<!-- Generated by IcoMoon.io -->
<svg version="1.1" xmlns="http://www.w3.org/2000/svg" width="32" height="32" viewBox="0 0 32 32">
<title>mt-update</title>
<path fill="#91908d" d="M28 13.493h-9.040l3.653-3.76c-3.64-3.6-9.533-3.733-13.173-0.133-3.64 3.613-3.64 9.44 0 13.053s9.533 3.613 13.173 0c1.813-1.787 2.72-3.88 2.72-6.52h2.667c0 2.64-1.173 6.067-3.52 8.387-4.68 4.64-12.28 4.64-16.96 0-4.667-4.627-4.707-12.147-0.027-16.773s12.187-4.627 16.867 0l3.64-3.747v9.493zM16.667 10.667v5.667l4.667 2.773-0.96 1.613-5.707-3.387v-6.667h2z"></path>
</svg>
