<!-- Generated by IcoMoon.io -->
<svg version="1.1" xmlns="http://www.w3.org/2000/svg" width="32" height="32" viewBox="0 0 32 32">
<title>mt-vpn_lock</title>
<path fill="#91908d" d="M29.333 5.333v-0.667c0-1.84-1.493-3.333-3.333-3.333s-3.333 1.493-3.333 3.333v0.667c-0.733 0-1.333 0.6-1.333 1.333v5.333c0 0.733 0.6 1.333 1.333 1.333h6.667c0.733 0 1.333-0.6 1.333-1.333v-5.333c0-0.733-0.6-1.333-1.333-1.333v0zM28.267 5.333h-4.533v-0.667c0-1.253 1.013-2.267 2.267-2.267s2.267 1.013 2.267 2.267v0.667zM25.227 16c0.053 0.44 0.107 0.88 0.107 1.333 0 2.773-1.067 5.293-2.8 7.187-0.347-1.080-1.333-1.853-2.533-1.853h-1.333v-4c0-0.733-0.6-1.333-1.333-1.333h-8v-2.667h2.667c0.733 0 1.333-0.6 1.333-1.333v-2.667h2.667c1.467 0 2.667-1.2 2.667-2.667v-3.387c-1.267-0.4-2.6-0.613-4-0.613-7.36 0-13.333 5.973-13.333 13.333s5.973 13.333 13.333 13.333c7.36 0 13.333-5.973 13.333-13.333 0-0.453-0.027-0.893-0.067-1.333h-2.707zM13.333 27.907c-5.267-0.653-9.333-5.133-9.333-10.573 0-0.827 0.107-1.613 0.28-2.387l6.387 6.387v1.333c0 1.467 1.2 2.667 2.667 2.667v2.573z"></path>
</svg>
