<!-- Generated by IcoMoon.io -->
<svg version="1.1" xmlns="http://www.w3.org/2000/svg" width="32" height="32" viewBox="0 0 32 32">
<title>mt-wb_iridescent</title>
<path fill="#91908d" d="M6.667 19.333h18.667v-8h-18.667v8zM14.667 0.733v3.933h2.667v-3.933h-2.667zM25.387 4.066l-2.387 2.387 1.88 1.88 2.4-2.387-1.893-1.88zM17.333 29.933v-3.933h-2.667v3.933h2.667zM27.267 24.72l-2.4-2.387-1.88 1.88 2.387 2.4 1.893-1.893zM4.733 5.946l2.387 2.387 1.88-1.88-2.387-2.387-1.88 1.88zM6.613 26.6l2.387-2.4-1.88-1.88-2.387 2.387 1.88 1.893z"></path>
</svg>
