<!-- Generated by IcoMoon.io -->
<svg version="1.1" xmlns="http://www.w3.org/2000/svg" width="32" height="32" viewBox="0 0 32 32">
<title>mt-wc</title>
<path fill="#91908d" d="M7.333 29.333v-10h-2v-7.333c0-1.467 1.2-2.667 2.667-2.667h4c1.467 0 2.667 1.2 2.667 2.667v7.333h-2v10h-5.333zM24 29.333v-8h4l-3.387-10.173c-0.373-1.093-1.387-1.827-2.533-1.827h-0.16c-1.147 0-2.173 0.733-2.533 1.827l-3.387 10.173h4v8h4zM10 8c1.48 0 2.667-1.187 2.667-2.667s-1.187-2.667-2.667-2.667c-1.48 0-2.667 1.187-2.667 2.667s1.187 2.667 2.667 2.667v0zM22 8c1.48 0 2.667-1.187 2.667-2.667s-1.187-2.667-2.667-2.667c-1.48 0-2.667 1.187-2.667 2.667s1.187 2.667 2.667 2.667v0z"></path>
</svg>
