<!-- Generated by IcoMoon.io -->
<svg version="1.1" xmlns="http://www.w3.org/2000/svg" width="32" height="32" viewBox="0 0 32 32">
<title>mt-wallpaper</title>
<path fill="#91908d" d="M5.333 5.333h9.333v-2.667h-9.333c-1.467 0-2.667 1.2-2.667 2.667v9.333h2.667v-9.333zM13.333 17.333l-5.333 6.667h16l-4-5.333-2.707 3.613-3.96-4.947zM22.667 11.333c0-1.107-0.893-2-2-2s-2 0.893-2 2c0 1.107 0.893 2 2 2s2-0.893 2-2v0zM26.667 2.667h-9.333v2.667h9.333v9.333h2.667v-9.333c0-1.467-1.2-2.667-2.667-2.667v0zM26.667 26.667h-9.333v2.667h9.333c1.467 0 2.667-1.2 2.667-2.667v-9.333h-2.667v9.333zM5.333 17.333h-2.667v9.333c0 1.467 1.2 2.667 2.667 2.667h9.333v-2.667h-9.333v-9.333z"></path>
</svg>
