<!-- Generated by IcoMoon.io -->
<svg version="1.1" xmlns="http://www.w3.org/2000/svg" width="32" height="32" viewBox="0 0 32 32">
<title>mt-wifi_lock</title>
<path fill="#91908d" d="M27.333 12.667c0.373 0 0.733 0.053 1.080 0.107l3.587-4.773c-4.453-3.347-10-5.333-16-5.333s-11.547 1.987-16 5.333l16 21.333 4.667-6.227v-3.773c0-3.68 2.987-6.667 6.667-6.667v0zM30.667 21.333v-2c0-1.84-1.493-3.333-3.333-3.333s-3.333 1.493-3.333 3.333v2c-0.733 0-1.333 0.6-1.333 1.333v5.333c0 0.733 0.6 1.333 1.333 1.333h6.667c0.733 0 1.333-0.6 1.333-1.333v-5.333c0-0.733-0.6-1.333-1.333-1.333v0zM29.333 21.333h-4v-2c0-1.107 0.893-2 2-2s2 0.893 2 2v2z"></path>
</svg>
