<!-- Generated by IcoMoon.io -->
<svg version="1.1" xmlns="http://www.w3.org/2000/svg" width="32" height="32" viewBox="0 0 32 32">
<title>ul-500px</title>
<path fill="#91908d" d="M9.333 20.187c0.046 0.221 0.124 0.418 0.231 0.595l-0.005-0.008c0.449 1.080 1.076 2.002 1.853 2.773l0.001 0.001c0.781 0.773 1.705 1.402 2.729 1.845l0.058 0.022c0.977 0.438 2.117 0.694 3.317 0.694 0.024 0 0.049-0 0.073-0l-0.004 0c0.018 0 0.039 0 0.061 0 1.208 0 2.356-0.255 3.393-0.715l-0.054 0.021c1.077-0.465 1.997-1.094 2.774-1.867l-0 0c0.784-0.772 1.419-1.693 1.859-2.718l0.021-0.055c0.39-0.954 0.616-2.062 0.616-3.222 0-0.077-0.001-0.153-0.003-0.229l0 0.011c-0.003-1.232-0.253-2.405-0.702-3.473l0.022 0.059c-0.461-1.076-1.096-1.992-1.878-2.759l-0.002-0.001c-1.562-1.581-3.731-2.56-6.128-2.56-0.016 0-0.032 0-0.048 0h0.002c-1.247 0.013-2.427 0.281-3.496 0.756l0.056-0.022c-0.613 0.275-1.139 0.578-1.629 0.926l0.029-0.020c-0.57 0.381-1.068 0.794-1.519 1.252l-0.001 0.001v-7.187h12.067c0.293 0 0.453-0.28 0.453-0.827s-0.173-0.813-0.467-0.813h-13.053c-0.007-0-0.016-0.001-0.024-0.001-0.15 0-0.285 0.067-0.375 0.173l-0.001 0.001c-0.099 0.097-0.16 0.232-0.16 0.381 0 0.002 0 0.004 0 0.006v-0 10.107c0.010 0.166 0.097 0.311 0.225 0.399l0.002 0.001c0.155 0.112 0.338 0.195 0.537 0.238l0.010 0.002c0.086 0.027 0.184 0.043 0.287 0.043s0.201-0.016 0.294-0.045l-0.007 0.002c0.122-0.036 0.228-0.086 0.325-0.15l-0.005 0.003c0.069-0.067 0.131-0.141 0.184-0.222l0.003-0.005c0.353-0.497 0.73-0.933 1.144-1.33l0.003-0.003c1.249-1.284 2.994-2.081 4.924-2.081 0.045 0 0.090 0 0.136 0.001l-0.007-0c0.027-0 0.060-0.001 0.092-0.001 1.963 0 3.733 0.824 4.985 2.144l0.003 0.003c1.3 1.255 2.107 3.014 2.107 4.961 0 0.014-0 0.028-0 0.042v-0.002c-0.009 0.964-0.209 1.88-0.564 2.713l0.018-0.046c-0.713 1.81-2.088 3.229-3.82 3.982l-0.046 0.018c-0.804 0.337-1.739 0.533-2.72 0.533-0.010 0-0.019-0-0.029-0h0.001c-0.016 0-0.035 0-0.054 0-1.312 0-2.537-0.372-3.575-1.017l0.029 0.017v-6.2c0.007-0.923 0.366-1.762 0.949-2.389l-0.002 0.002c0.623-0.729 1.543-1.188 2.57-1.188 0.034 0 0.068 0.001 0.102 0.002l-0.005-0c0.044-0.002 0.095-0.003 0.147-0.003 0.986 0 1.878 0.404 2.519 1.056l0 0.001c0.619 0.616 1.002 1.468 1.002 2.41 0 0.039-0.001 0.077-0.002 0.116l0-0.006c0 0.004 0 0.009 0 0.014 0 2.010-1.63 3.64-3.64 3.64-0.019 0-0.038-0-0.056-0l0.003 0h-0.453l-0.493-0.093h-0.2c-0.28-0.080-0.493 0.133-0.653 0.64s-0.093 0.8 0.187 0.907c0.494 0.152 1.061 0.24 1.649 0.24 0.006 0 0.012 0 0.018-0h-0.001c0.020 0 0.043 0 0.066 0 1.437 0 2.736-0.592 3.666-1.546l0.001-0.001c0.956-0.925 1.549-2.219 1.549-3.652 0-0.052-0.001-0.104-0.002-0.156l0 0.008c0.001-0.030 0.001-0.066 0.001-0.101 0-1.418-0.593-2.697-1.546-3.603l-0.002-0.002c-0.922-0.947-2.208-1.534-3.632-1.534-0.036 0-0.071 0-0.106 0.001l0.005-0c-0.028-0.001-0.061-0.001-0.094-0.001-1.434 0-2.732 0.587-3.665 1.534l-0.001 0.001c-0.928 0.864-1.51 2.090-1.52 3.451v5.068c-0.613-0.699-1.103-1.523-1.424-2.428l-0.016-0.052c-0.107-0.28-0.4-0.333-0.893-0.173s-0.733 0.387-0.64 0.653zM17.667 5.52c-0.067-0.001-0.145-0.002-0.224-0.002-1.527 0-2.981 0.315-4.3 0.883l0.071-0.027c-0.16 0.012-0.287 0.135-0.306 0.292l-0 0.002c0.007 0.208 0.050 0.404 0.124 0.585l-0.004-0.011c0.187 0.467 0.4 0.64 0.667 0.547 1.158-0.464 2.501-0.733 3.907-0.733h0c0.025-0 0.054-0 0.083-0 1.456 0 2.839 0.309 4.088 0.866l-0.064-0.025c1.182 0.522 2.199 1.184 3.091 1.983l-0.011-0.010c0.060 0.065 0.145 0.105 0.24 0.107h0c0.12 0 0.32-0.133 0.573-0.387l0.253-0.253c0.050-0.076 0.080-0.169 0.080-0.27 0-0.004-0-0.007-0-0.011v0.001c-0.009-0.107-0.059-0.2-0.133-0.266l-0-0c-0.986-0.929-2.143-1.688-3.418-2.225l-0.076-0.028c-1.385-0.624-3-0.996-4.7-1.013l-0.006-0zM15.52 18.733c0.021 0.184 0.121 0.341 0.265 0.439l0.002 0.001c0.115 0.134 0.279 0.223 0.464 0.24l0.003 0c0.004 0 0.009 0 0.015 0 0.081 0 0.156-0.030 0.212-0.081l-0 0 0.973-0.973 0.933 0.907c0.066 0.085 0.166 0.141 0.279 0.147l0.001 0c0.192-0.025 0.359-0.118 0.479-0.253l0.001-0.001c0.267-0.28 0.307-0.52 0.093-0.733l-0.933-0.933 0.987-0.987c0.16-0.16 0.107-0.387-0.173-0.653s-0.533-0.36-0.707-0.187l-0.973 0.96-0.96-0.987c-0.056-0.038-0.125-0.062-0.199-0.067l-0.001-0c-0.184 0.033-0.342 0.129-0.452 0.265l-0.001 0.001c-0.307 0.293-0.373 0.507-0.213 0.667l0.987 0.987-0.987 0.96c-0.083 0.070-0.141 0.167-0.16 0.277l-0 0.003zM26.093 24.827c-0.139-0.136-0.302-0.248-0.483-0.329l-0.011-0.004c-0.033-0.010-0.070-0.016-0.109-0.016-0.103 0-0.197 0.042-0.264 0.11v0l-0.093 0.093c-0.937 0.933-2.047 1.692-3.278 2.227l-0.069 0.027c-1.212 0.524-2.624 0.829-4.106 0.829-2.914 0-5.553-1.177-7.468-3.082l0 0c-0.978-0.924-1.767-2.037-2.308-3.282l-0.025-0.064c-0.277-0.671-0.513-1.463-0.668-2.283l-0.012-0.077c0-0.28-0.333-0.387-0.84-0.307s-0.747 0.267-0.707 0.533c0.16 1.052 0.439 1.999 0.829 2.886l-0.029-0.073c0.656 1.499 1.556 2.774 2.663 3.836l0.004 0.004c1.072 1.107 2.352 2.006 3.777 2.636l0.077 0.030c1.39 0.599 3.008 0.947 4.707 0.947 0.005 0 0.009 0 0.014 0h-0.001c1.704-0.004 3.326-0.351 4.801-0.977l-0.081 0.031c1.502-0.66 2.781-1.559 3.85-2.663l0.003-0.003 0.080-0.080c0.12-0.293 0.027-0.587-0.32-0.947z"></path>
</svg>
