<!-- Generated by IcoMoon.io -->
<svg version="1.1" xmlns="http://www.w3.org/2000/svg" width="32" height="32" viewBox="0 0 32 32">
<title>ul-ambulance</title>
<path fill="#91908d" d="M14 12.667h-1.333v-1.333c0-0.736-0.597-1.333-1.333-1.333s-1.333 0.597-1.333 1.333v0 1.333h-1.333c-0.736 0-1.333 0.597-1.333 1.333s0.597 1.333 1.333 1.333v0h1.333v1.333c0 0.736 0.597 1.333 1.333 1.333s1.333-0.597 1.333-1.333v0-1.333h1.333c0.736 0 1.333-0.597 1.333-1.333s-0.597-1.333-1.333-1.333v0zM30.573 15.533l-0.080-0.147c-0.025-0.071-0.057-0.133-0.095-0.19l0.002 0.003-3.2-4.267c-0.738-0.976-1.896-1.6-3.2-1.6v0h-2.667v-1.333c0-2.209-1.791-4-4-4v0h-12c-2.209 0-4 1.791-4 4v0 14.667c0 0.736 0.597 1.333 1.333 1.333v0h1.333c0 2.209 1.791 4 4 4s4-1.791 4-4v0h8c0 2.209 1.791 4 4 4s4-1.791 4-4v0h1.333c0.736 0 1.333-0.597 1.333-1.333v0-6.667c-0.003-0.169-0.037-0.329-0.097-0.476l0.003 0.009zM8 25.333c-0.736 0-1.333-0.597-1.333-1.333s0.597-1.333 1.333-1.333c0.736 0 1.333 0.597 1.333 1.333v0c0 0.736-0.597 1.333-1.333 1.333v0zM18.667 21.333h-7.707c-0.734-0.806-1.788-1.31-2.96-1.31s-2.226 0.504-2.957 1.306l-0.003 0.003h-1.040v-13.333c0-0.736 0.597-1.333 1.333-1.333v0h12c0.736 0 1.333 0.597 1.333 1.333v0zM21.333 12h2.667c0.435 0 0.821 0.208 1.064 0.53l0.002 0.003 1.6 2.133h-5.333zM24 25.333c-0.736 0-1.333-0.597-1.333-1.333s0.597-1.333 1.333-1.333c0.736 0 1.333 0.597 1.333 1.333v0c0 0.736-0.597 1.333-1.333 1.333v0zM28 21.333h-1.040c-0.735-0.807-1.789-1.311-2.961-1.311-1.026 0-1.961 0.386-2.669 1.021l0.004-0.003v-3.707h6.667z"></path>
</svg>
