<!-- Generated by IcoMoon.io -->
<svg version="1.1" xmlns="http://www.w3.org/2000/svg" width="32" height="32" viewBox="0 0 32 32">
<title>ul-arrow-random</title>
<path fill="#91908d" d="M11.6 13.333c0.241 0.24 0.573 0.388 0.94 0.388s0.699-0.148 0.94-0.388l-0 0c0.24-0.241 0.388-0.573 0.388-0.94s-0.148-0.699-0.388-0.94l0 0-8.36-8.4c-0.242-0.242-0.577-0.392-0.947-0.392-0.739 0-1.339 0.599-1.339 1.339 0 0.37 0.15 0.704 0.392 0.947v0zM28 18.667c-0.736 0-1.333 0.597-1.333 1.333v0 4.787l-6.080-6.12c-0.246-0.246-0.585-0.398-0.96-0.398-0.75 0-1.358 0.608-1.358 1.358 0 0.375 0.152 0.714 0.398 0.96v0l6.12 6.080h-4.787c-0.736 0-1.333 0.597-1.333 1.333s0.597 1.333 1.333 1.333v0h8c0.184-0.002 0.357-0.041 0.515-0.11l-0.009 0.003c0.327-0.138 0.582-0.393 0.717-0.711l0.003-0.009c0.065-0.149 0.104-0.323 0.107-0.506v-8.001c0-0.736-0.597-1.333-1.333-1.333v0zM29.227 3.493c-0.138-0.327-0.393-0.582-0.711-0.717l-0.009-0.003c-0.149-0.065-0.323-0.104-0.506-0.107h-8.001c-0.736 0-1.333 0.597-1.333 1.333s0.597 1.333 1.333 1.333v0h4.787l-21.733 21.72c-0.244 0.242-0.394 0.577-0.394 0.947s0.151 0.705 0.394 0.947l0 0c0.242 0.244 0.577 0.394 0.947 0.394s0.705-0.151 0.947-0.394l21.72-21.733v4.787c0 0.736 0.597 1.333 1.333 1.333s1.333-0.597 1.333-1.333v0-8c-0.002-0.184-0.041-0.357-0.11-0.515l0.003 0.009z"></path>
</svg>
