<!-- Generated by IcoMoon.io -->
<svg version="1.1" xmlns="http://www.w3.org/2000/svg" width="32" height="32" viewBox="0 0 32 32">
<title>ul-archive</title>
<path fill="#91908d" d="M13.333 18.667h5.333c0.736 0 1.333-0.597 1.333-1.333s-0.597-1.333-1.333-1.333v0h-5.333c-0.736 0-1.333 0.597-1.333 1.333s0.597 1.333 1.333 1.333v0zM25.333 4h-18.667c-2.209 0-4 1.791-4 4v0 4c0 0.736 0.597 1.333 1.333 1.333v0h1.333v10.667c0 2.209 1.791 4 4 4v0h13.333c2.209 0 4-1.791 4-4v0-10.667h1.333c0.736 0 1.333-0.597 1.333-1.333v0-4c0-2.209-1.791-4-4-4v0zM24 24c0 0.736-0.597 1.333-1.333 1.333v0h-13.333c-0.736 0-1.333-0.597-1.333-1.333v0-10.667h16zM26.667 10.667h-21.333v-2.667c0-0.736 0.597-1.333 1.333-1.333v0h18.667c0.736 0 1.333 0.597 1.333 1.333v0z"></path>
</svg>
