<!-- Generated by IcoMoon.io -->
<svg version="1.1" xmlns="http://www.w3.org/2000/svg" width="32" height="32" viewBox="0 0 32 32">
<title>ul-angle-double-down</title>
<path fill="#91908d" d="M15.053 15.28c0.242 0.244 0.577 0.394 0.947 0.394s0.705-0.151 0.947-0.394l4-4c0.254-0.247 0.411-0.592 0.411-0.973 0-0.75-0.608-1.358-1.358-1.358-0.368 0-0.702 0.147-0.947 0.385l0-0-3.053 3.12-3.053-3.12c-0.244-0.238-0.578-0.384-0.947-0.384-0.75 0-1.358 0.608-1.358 1.358 0 0.382 0.157 0.726 0.411 0.973l0 0zM19.053 16.72l-3.053 3.067-3.053-3.067c-0.244-0.238-0.578-0.384-0.947-0.384-0.75 0-1.358 0.608-1.358 1.358 0 0.382 0.157 0.726 0.411 0.973l0 0 4 4c0.242 0.244 0.577 0.394 0.947 0.394s0.705-0.151 0.947-0.394l4-4c0.242-0.242 0.392-0.577 0.392-0.947 0-0.739-0.599-1.339-1.339-1.339-0.37 0-0.704 0.15-0.947 0.392v0z"></path>
</svg>
