<!-- Generated by IcoMoon.io -->
<svg version="1.1" xmlns="http://www.w3.org/2000/svg" width="32" height="32" viewBox="0 0 32 32">
<title>ul-arrow-resize-diagonal</title>
<path fill="#91908d" d="M29.227 3.493c-0.138-0.327-0.393-0.582-0.711-0.717l-0.009-0.003c-0.149-0.065-0.323-0.104-0.506-0.107h-8.001c-0.736 0-1.333 0.597-1.333 1.333s0.597 1.333 1.333 1.333v0h4.787l-19.453 19.453v-4.787c0-0.736-0.597-1.333-1.333-1.333s-1.333 0.597-1.333 1.333v0 8c0.002 0.184 0.041 0.357 0.11 0.515l-0.003-0.009c0.138 0.327 0.393 0.582 0.711 0.717l0.009 0.003c0.149 0.065 0.323 0.104 0.506 0.107h8.001c0.736 0 1.333-0.597 1.333-1.333s-0.597-1.333-1.333-1.333v0h-4.787l19.453-19.453v4.787c0 0.736 0.597 1.333 1.333 1.333s1.333-0.597 1.333-1.333v0-8c-0.002-0.184-0.041-0.357-0.11-0.515l0.003 0.009z"></path>
</svg>
