<!-- Generated by IcoMoon.io -->
<svg version="1.1" xmlns="http://www.w3.org/2000/svg" width="32" height="32" viewBox="0 0 32 32">
<title>ul-bring-front</title>
<path fill="#91908d" d="M15.053 23.067l-1.72 1.72v-15.453c0-0.736-0.597-1.333-1.333-1.333s-1.333 0.597-1.333 1.333v0 15.467l-1.72-1.733c-0.242-0.244-0.577-0.394-0.947-0.394s-0.705 0.151-0.947 0.394l-0 0c-0.24 0.241-0.388 0.573-0.388 0.94s0.148 0.699 0.388 0.94l4 4c0.242 0.244 0.577 0.394 0.947 0.394s0.705-0.151 0.947-0.394l4-4c0.24-0.241 0.388-0.573 0.388-0.94s-0.148-0.699-0.388-0.94l0 0c-0.242-0.244-0.577-0.394-0.947-0.394s-0.705 0.151-0.947 0.394l-0 0zM29.333 4c0-0.736-0.597-1.333-1.333-1.333v0h-24c-0.736 0-1.333 0.597-1.333 1.333v0 8c0 0.736 0.597 1.333 1.333 1.333v0h2.667c0.736 0 1.333-0.597 1.333-1.333s-0.597-1.333-1.333-1.333v0h-1.333v-5.333h21.333v5.333h-9.333c-0.736 0-1.333 0.597-1.333 1.333s0.597 1.333 1.333 1.333v0h1.333v6.667c0 0.736 0.597 1.333 1.333 1.333v0h8c0.736 0 1.333-0.597 1.333-1.333v0-8zM26.667 18.667h-5.333v-5.333h5.333z"></path>
</svg>
