<!-- Generated by IcoMoon.io -->
<svg version="1.1" xmlns="http://www.w3.org/2000/svg" width="32" height="32" viewBox="0 0 32 32">
<title>ul-backspace</title>
<path fill="#91908d" d="M25.333 6.667h-12.227c-1.104 0.001-2.103 0.449-2.827 1.173l-0 0-7.227 7.213c-0.244 0.242-0.394 0.577-0.394 0.947s0.151 0.705 0.394 0.947l0 0 7.227 7.213c0.723 0.724 1.723 1.172 2.826 1.173h12.227c2.209 0 4-1.791 4-4v0-10.667c0-2.209-1.791-4-4-4v0zM26.667 21.333c0 0.736-0.597 1.333-1.333 1.333v0h-12.227c-0.368-0.005-0.7-0.152-0.947-0.387l0.001 0-6.28-6.28 6.28-6.28c0.246-0.235 0.579-0.381 0.946-0.387h12.228c0.736 0 1.333 0.597 1.333 1.333v0zM22.28 12.387c-0.242-0.244-0.577-0.394-0.947-0.394s-0.705 0.151-0.947 0.394l-0 0-1.72 1.733-1.72-1.733c-0.242-0.242-0.577-0.392-0.947-0.392-0.739 0-1.339 0.599-1.339 1.339 0 0.37 0.15 0.704 0.392 0.947v0l1.733 1.72-1.733 1.72c-0.244 0.242-0.394 0.577-0.394 0.947s0.151 0.705 0.394 0.947l0 0c0.242 0.244 0.577 0.394 0.947 0.394s0.705-0.151 0.947-0.394l0-0 1.72-1.733 1.72 1.733c0.242 0.244 0.577 0.394 0.947 0.394s0.705-0.151 0.947-0.394l0-0c0.244-0.242 0.394-0.577 0.394-0.947s-0.151-0.705-0.394-0.947l-0-0-1.733-1.72 1.733-1.72c0.244-0.242 0.394-0.577 0.394-0.947s-0.151-0.705-0.394-0.947l-0-0z"></path>
</svg>
