<!-- Generated by IcoMoon.io -->
<svg version="1.1" xmlns="http://www.w3.org/2000/svg" width="32" height="32" viewBox="0 0 32 32">
<title>ul-bag-alt</title>
<path fill="#91908d" d="M25.333 8.667h-4v-1.333c0-2.209-1.791-4-4-4v0h-2.667c-2.209 0-4 1.791-4 4v0 1.333h-4c-2.209 0-4 1.791-4 4v0 12c0 2.209 1.791 4 4 4v0h18.667c2.209 0 4-1.791 4-4v0-12c0-2.209-1.791-4-4-4v0zM13.333 7.333c0-0.736 0.597-1.333 1.333-1.333v0h2.667c0.736 0 1.333 0.597 1.333 1.333v0 1.333h-5.333zM26.667 24.667c0 0.736-0.597 1.333-1.333 1.333v0h-18.667c-0.736 0-1.333-0.597-1.333-1.333v0-7.333c3.159 1.29 6.825 2.039 10.666 2.040h0c3.841-0.002 7.507-0.751 10.861-2.11l-0.194 0.070zM26.667 14.413c-3.14 1.415-6.807 2.24-10.667 2.24s-7.527-0.825-10.835-2.307l0.168 0.067v-1.747c0-0.736 0.597-1.333 1.333-1.333v0h18.667c0.736 0 1.333 0.597 1.333 1.333v0z"></path>
</svg>
