<!-- Generated by IcoMoon.io -->
<svg version="1.1" xmlns="http://www.w3.org/2000/svg" width="32" height="32" viewBox="0 0 32 32">
<title>ul-clock-five</title>
<path fill="#91908d" d="M16 2.667c-7.364 0-13.333 5.97-13.333 13.333s5.97 13.333 13.333 13.333c7.364 0 13.333-5.97 13.333-13.333v0c-0.009-7.36-5.973-13.325-13.332-13.333h-0.001zM16 26.667c-5.891 0-10.667-4.776-10.667-10.667s4.776-10.667 10.667-10.667c5.891 0 10.667 4.776 10.667 10.667v0c-0.007 5.888-4.778 10.66-10.666 10.667h-0.001zM17.333 15.665v-6.332c0-0.736-0.597-1.333-1.333-1.333s-1.333 0.597-1.333 1.333v0 6.667c0 0.23 0.059 0.447 0.161 0.637l-0.004-0.007 2 3.732c0.229 0.422 0.67 0.704 1.176 0.704 0.737 0 1.334-0.597 1.334-1.334 0-0.231-0.058-0.447-0.161-0.637l0.003 0.007z"></path>
</svg>
