<!-- Generated by IcoMoon.io -->
<svg version="1.1" xmlns="http://www.w3.org/2000/svg" width="32" height="32" viewBox="0 0 32 32">
<title>ul-cloud-moon-meatball</title>
<path fill="#91908d" d="M28.933 10.667c-0.241-0.238-0.572-0.385-0.937-0.385-0.112 0-0.221 0.014-0.326 0.040l0.009-0.002c-0.259 0.064-0.557 0.102-0.864 0.107l-0.003 0c-2.209 0-4-1.791-4-4v0c0.004-0.314 0.042-0.617 0.112-0.908l-0.006 0.028c0.024-0.095 0.038-0.204 0.038-0.316 0-0.365-0.147-0.696-0.385-0.937l0 0c-0.243-0.249-0.581-0.404-0.956-0.404-0.101 0-0.199 0.011-0.293 0.032l0.009-0.002c-2.695 0.639-4.732 2.851-5.103 5.592l-0.004 0.034c-0.663-0.203-1.424-0.32-2.213-0.32-0.005 0-0.009 0-0.014 0h0.001c-0.004 0-0.009 0-0.015 0-3.985 0-7.29 2.914-7.899 6.728l-0.006 0.046c-1.986 0.576-3.414 2.379-3.414 4.515 0 0.016 0 0.031 0 0.047l-0-0.002c0.001 1.52 0.735 2.869 1.868 3.711l0.012 0.009c0.229 0.192 0.528 0.309 0.854 0.309 0.736 0 1.333-0.597 1.333-1.333 0-0.469-0.242-0.882-0.608-1.119l-0.005-0.003c-0.48-0.359-0.787-0.925-0.787-1.563 0-0.004 0-0.007 0-0.011v0.001c0-1.105 0.895-2 2-2v0c0.736 0 1.333-0.597 1.333-1.333v0c0.008-2.94 2.393-5.32 5.333-5.32 1.075 0 2.076 0.318 2.914 0.866l-0.020-0.013c0.966 0.63 1.698 1.548 2.082 2.63l0.011 0.036c0.161 0.458 0.553 0.796 1.032 0.879l0.008 0.001c1.485 0.252 2.601 1.528 2.601 3.065 0 1.273-0.765 2.367-1.861 2.847l-0.020 0.008c-0.478 0.21-0.806 0.679-0.806 1.224 0 0.194 0.041 0.378 0.116 0.544l-0.003-0.008c0.211 0.475 0.679 0.8 1.222 0.8 0.002 0 0.003 0 0.005 0h-0c0.194-0.003 0.377-0.047 0.542-0.123l-0.008 0.003c2.058-0.913 3.467-2.938 3.467-5.293 0-0.014-0-0.029-0-0.043v0.002c0-0.009 0-0.020 0-0.032 0-0.964-0.242-1.872-0.668-2.665l0.015 0.030c2.323-0.629 4.11-2.438 4.697-4.728l0.010-0.046c0.015-0.076 0.024-0.163 0.024-0.252 0-0.385-0.163-0.731-0.423-0.974l-0.001-0.001zM22.813 14.427c-0.084 0.007-0.181 0.011-0.28 0.011s-0.196-0.004-0.293-0.012l0.013 0.001c-0.27-0.148-0.587-0.288-0.917-0.401l-0.043-0.013c-0.563-1.227-1.387-2.248-2.407-3.026l-0.019-0.014c0-0.16 0-0.333 0-0.493 0-0 0-0 0-0 0-1.214 0.541-2.302 1.395-3.035l0.005-0.004c0.441 2.917 2.721 5.192 5.603 5.622l0.037 0.004c-0.736 0.829-1.805 1.348-2.994 1.348-0.035 0-0.070-0-0.104-0.001l0.005 0zM16.667 22.56h-1.027l0.52-0.893c0.112-0.191 0.178-0.421 0.178-0.667 0-0.739-0.599-1.338-1.338-1.338-0.494 0-0.925 0.267-1.157 0.665l-0.003 0.006-0.507 0.893-0.507-0.893c-0.235-0.404-0.666-0.671-1.16-0.671-0.739 0-1.338 0.599-1.338 1.338 0 0.245 0.066 0.475 0.181 0.673l-0.003-0.006 0.52 0.893h-1.027c-0.736 0-1.333 0.597-1.333 1.333s0.597 1.333 1.333 1.333v0h1.027l-0.52 0.88c-0.112 0.191-0.178 0.421-0.178 0.667 0 0.739 0.599 1.338 1.338 1.338 0.494 0 0.925-0.267 1.157-0.665l0.003-0.006 0.507-0.88 0.507 0.88c0.235 0.404 0.666 0.671 1.16 0.671 0.739 0 1.338-0.599 1.338-1.338 0-0.245-0.066-0.475-0.181-0.673l0.003 0.006-0.52-0.88h1.027c0.736 0 1.333-0.597 1.333-1.333s-0.597-1.333-1.333-1.333v0z"></path>
</svg>
