<!-- Generated by IcoMoon.io -->
<svg version="1.1" xmlns="http://www.w3.org/2000/svg" width="32" height="32" viewBox="0 0 32 32">
<title>ul-cloud-bookmark</title>
<path fill="#91908d" d="M20 14.667h-6.667c-0.736 0-1.333 0.597-1.333 1.333v0 10.667c0 0.001 0 0.001 0 0.002 0 0.736 0.597 1.333 1.333 1.333 0.279 0 0.537-0.085 0.751-0.232l-0.005 0.003 2.587-1.733 2.52 1.68c0.222 0.174 0.505 0.279 0.813 0.28h0c0.002 0 0.004 0 0.005 0 0.211 0 0.411-0.049 0.589-0.137l-0.008 0.003c0.446-0.222 0.747-0.675 0.747-1.197 0-0.001 0-0.002 0-0.003v0-10.667c0-0.736-0.597-1.333-1.333-1.333v0zM18.667 24.16l-1.253-0.84c-0.209-0.143-0.468-0.229-0.747-0.229s-0.537 0.085-0.751 0.232l0.005-0.003-1.253 0.853v-6.84h4zM24.56 9.627c-1.475-3.329-4.75-5.609-8.558-5.609-4.73 0-8.638 3.519-9.25 8.081l-0.005 0.048c-2.365 0.58-4.091 2.682-4.091 5.187 0 2.946 2.388 5.333 5.333 5.333 0.004 0 0.008 0 0.012 0h-0.001c0.736 0 1.333-0.597 1.333-1.333s-0.597-1.333-1.333-1.333v0c-1.473 0-2.667-1.194-2.667-2.667s1.194-2.667 2.667-2.667v0c0.736 0 1.333-0.597 1.333-1.333v0c0.008-3.676 2.99-6.652 6.667-6.652 2.908 0 5.381 1.862 6.292 4.459l0.014 0.047c0.157 0.463 0.55 0.807 1.032 0.892l0.008 0.001c1.882 0.35 3.288 1.979 3.288 3.936 0 1.454-0.776 2.727-1.936 3.427l-0.018 0.010c-0.404 0.235-0.671 0.666-0.671 1.16 0 0.739 0.599 1.338 1.338 1.338 0.245 0 0.475-0.066 0.673-0.181l-0.006 0.003c1.999-1.176 3.32-3.317 3.32-5.766 0-0.003 0-0.005 0-0.008v0c-0.009-2.999-1.997-5.532-4.726-6.361l-0.047-0.012z"></path>
</svg>
