<!-- Generated by IcoMoon.io -->
<svg version="1.1" xmlns="http://www.w3.org/2000/svg" width="32" height="32" viewBox="0 0 32 32">
<title>ul-compress-point</title>
<path fill="#91908d" d="M28.947 27.053l-8.4-8.387h2.12c0.736 0 1.333-0.597 1.333-1.333s-0.597-1.333-1.333-1.333v0h-4.787l7.547-7.547c0.286-0.246 0.466-0.608 0.466-1.013 0-0.736-0.597-1.333-1.333-1.333-0.404 0-0.767 0.18-1.011 0.464l-0.001 0.002-7.547 7.547v-4.787c0-0.736-0.597-1.333-1.333-1.333s-1.333 0.597-1.333 1.333v0 2.12l-8.387-8.4c-0.242-0.242-0.577-0.392-0.947-0.392-0.739 0-1.339 0.599-1.339 1.339 0 0.37 0.15 0.704 0.392 0.947v0l8.4 8.387h-2.12c-0.736 0-1.333 0.597-1.333 1.333s0.597 1.333 1.333 1.333v0h4.787l-7.547 7.547c-0.24 0.241-0.388 0.573-0.388 0.94s0.148 0.699 0.388 0.94l-0-0c0.241 0.24 0.573 0.388 0.94 0.388s0.699-0.148 0.94-0.388l7.547-7.547v4.787c0 0.736 0.597 1.333 1.333 1.333s1.333-0.597 1.333-1.333v0-2.12l8.387 8.4c0.242 0.244 0.577 0.394 0.947 0.394s0.705-0.151 0.947-0.394l0-0c0.244-0.242 0.394-0.577 0.394-0.947s-0.151-0.705-0.394-0.947l-0-0z"></path>
</svg>
