<!-- Generated by IcoMoon.io -->
<svg version="1.1" xmlns="http://www.w3.org/2000/svg" width="32" height="32" viewBox="0 0 32 32">
<title>ul-chat-bubble-user</title>
<path fill="#91908d" d="M19.44 15.067c0.583-0.724 0.939-1.653 0.947-2.665v-0.002c0-2.423-1.964-4.387-4.387-4.387s-4.387 1.964-4.387 4.387v0c0.008 1.014 0.363 1.942 0.953 2.675l-0.007-0.008c-1.183 0.728-2.104 1.782-2.65 3.037l-0.017 0.043c-0.080 0.166-0.127 0.361-0.127 0.568 0 0.736 0.597 1.333 1.333 1.333 0.567 0 1.051-0.353 1.244-0.852l0.003-0.009c0.624-1.432 2.022-2.416 3.652-2.427h0.001c1.636 0.005 3.041 0.991 3.657 2.401l0.010 0.026c0.208 0.482 0.679 0.813 1.227 0.813h0c0.188-0.004 0.366-0.042 0.53-0.11l-0.010 0.004c0.481-0.208 0.812-0.679 0.812-1.227 0-0.188-0.039-0.366-0.109-0.528l0.003 0.009c-0.566-1.299-1.492-2.353-2.651-3.063l-0.029-0.017zM16 14.093v0c-0.95-0-1.72-0.77-1.72-1.72s0.77-1.72 1.72-1.72c0.95 0 1.72 0.77 1.72 1.72 0 0.005-0 0.009-0 0.014v-0.001c-0.008 0.944-0.775 1.707-1.72 1.707-0 0-0 0-0 0v0zM24 2.667h-16c-2.209 0-4 1.791-4 4v0 14.667c0 2.209 1.791 4 4 4v0h3.453l3.6 3.613c0.241 0.239 0.573 0.387 0.939 0.387 0.003 0 0.005 0 0.008-0h-0c0 0 0 0 0 0 0.332 0 0.635-0.121 0.868-0.322l-0.002 0.002 4.293-3.68h2.84c2.209 0 4-1.791 4-4v0-14.667c0-2.209-1.791-4-4-4v0zM25.333 21.333c0 0.736-0.597 1.333-1.333 1.333v0h-3.333c-0 0-0 0-0 0-0.332 0-0.635 0.121-0.868 0.322l0.002-0.002-3.733 3.2-3.12-3.133c-0.241-0.239-0.573-0.387-0.939-0.387-0.003 0-0.005 0-0.008 0h-4c-0.736 0-1.333-0.597-1.333-1.333v0-14.667c0-0.736 0.597-1.333 1.333-1.333v0h16c0.736 0 1.333 0.597 1.333 1.333v0z"></path>
</svg>
