<!-- Generated by IcoMoon.io -->
<svg version="1.1" xmlns="http://www.w3.org/2000/svg" width="32" height="32" viewBox="0 0 32 32">
<title>ul-clinic-medical</title>
<path fill="#91908d" d="M14.667 16v1.333h-1.333c-0.736 0-1.333 0.597-1.333 1.333s0.597 1.333 1.333 1.333v0h1.333v1.333c0 0.736 0.597 1.333 1.333 1.333s1.333-0.597 1.333-1.333v0-1.333h1.333c0.736 0 1.333-0.597 1.333-1.333s-0.597-1.333-1.333-1.333v0h-1.333v-1.333c0-0.736-0.597-1.333-1.333-1.333s-1.333 0.597-1.333 1.333v0zM28.885 13.67l-12-10.667c-0.234-0.209-0.545-0.337-0.885-0.337s-0.651 0.128-0.887 0.338l0.001-0.001-12 10.667c-0.275 0.245-0.448 0.601-0.448 0.997 0 0.736 0.597 1.333 1.333 1.333 0.34 0 0.651-0.128 0.887-0.338l-0.001 0.001 0.448-0.398v12.735c0 0 0 0 0 0 0 0.736 0.597 1.333 1.333 1.333 0 0 0 0 0 0h18.667c0 0 0 0 0 0 0.736 0 1.333-0.597 1.333-1.333 0-0 0-0 0-0v0-12.735l0.448 0.398c0.234 0.209 0.545 0.336 0.885 0.336 0.736 0 1.333-0.597 1.333-1.333 0-0.396-0.173-0.751-0.446-0.996l-0.001-0.001zM24 26.667h-16v-13.772l8-7.111 8 7.111z"></path>
</svg>
