<!-- Generated by IcoMoon.io -->
<svg version="1.1" xmlns="http://www.w3.org/2000/svg" width="32" height="32" viewBox="0 0 32 32">
<title>ul-chart-growth</title>
<path fill="#91908d" d="M28 26.667h-1.333v-20c0-0.736-0.597-1.333-1.333-1.333s-1.333 0.597-1.333 1.333v0 20h-2.667v-14.667c0-0.736-0.597-1.333-1.333-1.333s-1.333 0.597-1.333 1.333v0 14.667h-2.667v-9.333c0-0.736-0.597-1.333-1.333-1.333s-1.333 0.597-1.333 1.333v0 9.333h-2.667v-4c0-0.736-0.597-1.333-1.333-1.333s-1.333 0.597-1.333 1.333v0 4h-2.667v-22.667c0-0.736-0.597-1.333-1.333-1.333s-1.333 0.597-1.333 1.333v0 24c0 0.736 0.597 1.333 1.333 1.333v0h24c0.736 0 1.333-0.597 1.333-1.333s-0.597-1.333-1.333-1.333v0z"></path>
</svg>
