<!-- Generated by IcoMoon.io -->
<svg version="1.1" xmlns="http://www.w3.org/2000/svg" width="32" height="32" viewBox="0 0 32 32">
<title>ul-copy-landscape</title>
<path fill="#91908d" d="M24 25.333h-16c-2.209 0-4-1.791-4-4v0-10.667c0-0.736-0.597-1.333-1.333-1.333s-1.333 0.597-1.333 1.333v0 10.667c0 3.682 2.985 6.667 6.667 6.667v0h16c0.736 0 1.333-0.597 1.333-1.333s-0.597-1.333-1.333-1.333v0zM30.667 13.253c-0.015-0.134-0.044-0.256-0.084-0.372l0.004 0.012v-0.12c-0.068-0.143-0.153-0.267-0.254-0.374l0.001 0.001-8-8c-0.107-0.101-0.23-0.185-0.365-0.25l-0.009-0.004h-0.12l-0.427-0.147h-10.747c-2.209 0-4 1.791-4 4v0 10.667c0 2.209 1.791 4 4 4v0h16c2.209 0 4-1.791 4-4v0-5.333s0 0 0-0.080zM22.667 8.547l3.453 3.453h-2.12c-0.736 0-1.333-0.597-1.333-1.333v0zM28 18.667c0 0.736-0.597 1.333-1.333 1.333v0h-16c-0.736 0-1.333-0.597-1.333-1.333v0-10.667c0-0.736 0.597-1.333 1.333-1.333v0h9.333v4c0 2.209 1.791 4 4 4v0h4z"></path>
</svg>
