<!-- Generated by IcoMoon.io -->
<svg version="1.1" xmlns="http://www.w3.org/2000/svg" width="32" height="32" viewBox="0 0 32 32">
<title>ul-comment-image</title>
<path fill="#91908d" d="M16 2.667c-7.36 0.006-13.324 5.973-13.324 13.333 0 1.384 0.211 2.719 0.602 3.974l-0.025-0.094c-0.004 0.020-0.006 0.043-0.006 0.067s0.002 0.047 0.006 0.069l-0-0.002c0.538 1.702 1.354 3.176 2.404 4.449l-0.018-0.022-2.667 2.667c-0.238 0.241-0.384 0.571-0.384 0.936 0 0.187 0.038 0.364 0.108 0.526l-0.003-0.009c0.216 0.462 0.677 0.777 1.212 0.777 0.033 0 0.067-0.001 0.099-0.004l-0.004 0h12c5.823-0.004 10.772-3.741 12.585-8.946l0.028-0.094v-0.107c0.444-1.246 0.707-2.684 0.72-4.181l0-0.006c0-7.364-5.97-13.333-13.333-13.333v0zM16 26.667h-8.787l0.4-0.387 11.213-11.227c0.24-0.236 0.57-0.381 0.933-0.381s0.693 0.145 0.934 0.381l-0-0 4.827 4.8 0.307 0.293c-1.661 3.863-5.433 6.52-9.827 6.52h-0zM6.053 19.827l2.107-2.107c0.241-0.24 0.573-0.388 0.94-0.388s0.699 0.148 0.94 0.388l1.16 1.16-3.627 3.653c-0.613-0.777-1.126-1.672-1.496-2.637l-0.024-0.070zM26.6 17.16l-4-4c-0.724-0.723-1.723-1.17-2.827-1.17s-2.103 0.447-2.827 1.17l-3.853 3.853-1.173-1.16c-0.723-0.719-1.72-1.163-2.82-1.163s-2.097 0.444-2.82 1.163l0-0-0.947 0.893c-0.006-0.112-0.010-0.242-0.010-0.373s0.004-0.262 0.011-0.391l-0.001 0.018c0-5.891 4.776-10.667 10.667-10.667s10.667 4.776 10.667 10.667v0c0.009 0.171 0.015 0.372 0.015 0.573s-0.005 0.402-0.016 0.601l0.001-0.028z"></path>
</svg>
