<!-- Generated by IcoMoon.io -->
<svg version="1.1" xmlns="http://www.w3.org/2000/svg" width="32" height="32" viewBox="0 0 32 32">
<title>ul-car</title>
<path fill="#91908d" d="M8.827 17.44c-0.336 0.124-0.596 0.384-0.717 0.712l-0.003 0.008c-0.060 0.147-0.095 0.317-0.095 0.495 0 0.736 0.597 1.333 1.333 1.333 0.178 0 0.349-0.035 0.504-0.099l-0.009 0.003c0.169-0.072 0.315-0.166 0.441-0.281l-0.001 0.001c0.114-0.125 0.208-0.271 0.276-0.43l0.004-0.010c0.068-0.14 0.107-0.304 0.107-0.478 0-0.010-0-0.020-0-0.030l0 0.002c-0.005-0.368-0.152-0.701-0.387-0.947l0.001 0.001c-0.241-0.238-0.571-0.384-0.937-0.384-0.187 0-0.364 0.038-0.526 0.108l0.009-0.003zM26.347 12.107l-1.813-5.373c-0.566-1.567-2.040-2.667-3.771-2.667-0.005 0-0.011 0-0.016 0h-9.492c-0.005-0-0.010-0-0.015-0-1.731 0-3.206 1.1-3.762 2.639l-0.009 0.028-1.813 5.413c-1.727 0.463-2.979 2.011-2.987 3.852v5.334c0.005 1.727 1.103 3.196 2.639 3.751l0.028 0.009v1.573c0 0.736 0.597 1.333 1.333 1.333s1.333-0.597 1.333-1.333v0-1.333h16v1.333c0 0.736 0.597 1.333 1.333 1.333s1.333-0.597 1.333-1.333v0-1.573c1.563-0.564 2.662-2.033 2.667-3.759v-5.334c-0.008-1.842-1.26-3.39-2.959-3.847l-0.028-0.006zM9.987 7.573c0.183-0.532 0.68-0.907 1.263-0.907 0.001 0 0.002 0 0.004 0h9.493c0.021-0.001 0.045-0.002 0.070-0.002 0.584 0 1.081 0.376 1.261 0.899l0.003 0.009 1.4 4.427h-14.96zM26.667 21.333c0 0.736-0.597 1.333-1.333 1.333v0h-18.667c-0.736 0-1.333-0.597-1.333-1.333v0-5.333c0-0.736 0.597-1.333 1.333-1.333v0h18.667c0.736 0 1.333 0.597 1.333 1.333v0zM22.16 17.44c-0.336 0.124-0.596 0.384-0.717 0.712l-0.003 0.008c-0.060 0.147-0.095 0.317-0.095 0.495 0 0.736 0.597 1.333 1.333 1.333 0.178 0 0.349-0.035 0.504-0.099l-0.009 0.003c0.336-0.124 0.596-0.384 0.717-0.712l0.003-0.008c0.068-0.14 0.107-0.304 0.107-0.478 0-0.010-0-0.020-0-0.030l0 0.002c-0.005-0.368-0.152-0.701-0.387-0.947l0 0.001c-0.241-0.238-0.571-0.384-0.936-0.384-0.187 0-0.364 0.038-0.526 0.108l0.009-0.003zM17.333 17.333h-2.667c-0.736 0-1.333 0.597-1.333 1.333s0.597 1.333 1.333 1.333v0h2.667c0.736 0 1.333-0.597 1.333-1.333s-0.597-1.333-1.333-1.333v0z"></path>
</svg>
