<!-- Generated by IcoMoon.io -->
<svg version="1.1" xmlns="http://www.w3.org/2000/svg" width="32" height="32" viewBox="0 0 32 32">
<title>ul-exclamation-octagon</title>
<path fill="#91908d" d="M16 9.333c-0.736 0-1.333 0.597-1.333 1.333v0 5.333c0 0.736 0.597 1.333 1.333 1.333s1.333-0.597 1.333-1.333v0-5.333c0-0.736-0.597-1.333-1.333-1.333v0zM16 20c-0.736 0-1.333 0.597-1.333 1.333s0.597 1.333 1.333 1.333c0.736 0 1.333-0.597 1.333-1.333v0c0-0.736-0.597-1.333-1.333-1.333v0zM28.947 10.080l-7.027-7.027c-0.246-0.235-0.579-0.381-0.946-0.387h-9.948c-0.368 0.005-0.7 0.152-0.947 0.387l0.001-0.001-7.027 7.027c-0.235 0.246-0.381 0.579-0.387 0.946v9.948c0.005 0.368 0.152 0.701 0.387 0.947l-0.001-0.001 7.027 7.027c0.246 0.235 0.579 0.381 0.946 0.387h9.948c0.368-0.005 0.701-0.152 0.947-0.387l-0.001 0 7.027-7.027c0.235-0.246 0.381-0.579 0.387-0.946v-9.948c-0.005-0.368-0.152-0.7-0.387-0.947l0 0.001zM26.667 20.413l-6.253 6.253h-8.827l-6.253-6.253v-8.827l6.253-6.253h8.827l6.253 6.253z"></path>
</svg>
