<!-- Generated by IcoMoon.io -->
<svg version="1.1" xmlns="http://www.w3.org/2000/svg" width="32" height="32" viewBox="0 0 32 32">
<title>ul-envelope-download-alt</title>
<path fill="#91908d" d="M15.053 11.72c0.242 0.244 0.577 0.394 0.947 0.394s0.705-0.151 0.947-0.394l2.667-2.667c0.24-0.241 0.388-0.573 0.388-0.94s-0.148-0.699-0.388-0.94l0 0c-0.242-0.244-0.577-0.394-0.947-0.394s-0.705 0.151-0.947 0.394l-0.387 0.387v-3.667c0-0.736-0.597-1.333-1.333-1.333s-1.333 0.597-1.333 1.333v0 3.667l-0.387-0.387c-0.242-0.244-0.577-0.394-0.947-0.394s-0.705 0.151-0.947 0.394l-0 0c-0.24 0.241-0.388 0.573-0.388 0.94s0.148 0.699 0.388 0.94l-0-0zM21.333 14.773h-10.667c-2.209 0-4 1.791-4 4v0 6.667c0 2.209 1.791 4 4 4v0h10.667c2.209 0 4-1.791 4-4v0-6.667c0-2.209-1.791-4-4-4v0zM20.773 17.44l-3.84 3.893c-0.24 0.236-0.57 0.381-0.933 0.381s-0.693-0.145-0.934-0.381l0 0-3.84-3.893zM22.667 25.44c0 0.736-0.597 1.333-1.333 1.333v0h-10.667c-0.736 0-1.333-0.597-1.333-1.333v0-6.12l3.84 3.84c0.724 0.723 1.723 1.17 2.827 1.17s2.103-0.447 2.827-1.17l3.84-3.84z"></path>
</svg>
