<!-- Generated by IcoMoon.io -->
<svg version="1.1" xmlns="http://www.w3.org/2000/svg" width="32" height="32" viewBox="0 0 32 32">
<title>ul-edit-alt</title>
<path fill="#91908d" d="M6.667 24h5.653c0.002 0 0.005 0 0.008 0 0.366 0 0.698-0.148 0.939-0.387l-0 0 9.227-9.24 3.787-3.707c0.244-0.242 0.394-0.577 0.394-0.947s-0.151-0.705-0.394-0.947l-0-0-5.653-5.72c-0.242-0.244-0.577-0.394-0.947-0.394s-0.705 0.151-0.947 0.394l-0 0-3.76 3.773-9.253 9.24c-0.239 0.241-0.387 0.573-0.387 0.939 0 0.003 0 0.005 0 0.008v-0 5.653c0 0.736 0.597 1.333 1.333 1.333v0zM19.68 5.88l3.773 3.773-1.893 1.893-3.773-3.773zM8 17.56l7.907-7.907 3.773 3.773-7.907 7.907h-3.773zM28 26.667h-24c-0.736 0-1.333 0.597-1.333 1.333s0.597 1.333 1.333 1.333v0h24c0.736 0 1.333-0.597 1.333-1.333s-0.597-1.333-1.333-1.333v0z"></path>
</svg>
