<!-- Generated by IcoMoon.io -->
<svg version="1.1" xmlns="http://www.w3.org/2000/svg" width="32" height="32" viewBox="0 0 32 32">
<title>ul-forecastcloud-moon-tear</title>
<path fill="#91908d" d="M28.933 10.093c-0.24-0.236-0.57-0.382-0.934-0.382-0.108 0-0.214 0.013-0.315 0.037l0.009-0.002c-0.262 0.063-0.565 0.101-0.876 0.107l-0.004 0c-2.209 0-4-1.791-4-4v0c0.004-0.309 0.043-0.608 0.112-0.894l-0.006 0.027c0.024-0.094 0.037-0.201 0.037-0.312 0-0.736-0.597-1.333-1.333-1.333-0.103 0-0.203 0.012-0.299 0.034l0.009-0.002c-2.705 0.613-4.753 2.832-5.103 5.581l-0.003 0.033c-0.666-0.198-1.431-0.314-2.223-0.32l-0.003-0c-0.001 0-0.003 0-0.005 0-4.009 0-7.329 2.949-7.91 6.796l-0.005 0.044c-1.985 0.566-3.415 2.364-3.415 4.496 0 1.903 1.139 3.539 2.772 4.266l0.030 0.012c0.158 0.064 0.34 0.103 0.532 0.107l0.001 0c0.003 0 0.007 0 0.011 0 0.736 0 1.333-0.597 1.333-1.333 0-0.548-0.33-1.018-0.802-1.223l-0.009-0.003c-0.711-0.309-1.2-1.005-1.2-1.816 0-0.004 0-0.008 0-0.012v0.001c0-1.105 0.895-2 2-2v0c0.736 0 1.333-0.597 1.333-1.333v0c0-2.946 2.388-5.333 5.333-5.333v0c0.001 0 0.003 0 0.004 0 1.082 0 2.087 0.329 2.921 0.892l-0.019-0.012c0.959 0.637 1.689 1.552 2.082 2.63l0.012 0.037c0.157 0.463 0.55 0.807 1.032 0.892l0.008 0.001c1.559 0.174 2.76 1.484 2.76 3.075 0 1.106-0.581 2.077-1.454 2.624l-0.013 0.008c-0.367 0.243-0.605 0.654-0.605 1.12 0 0.739 0.599 1.339 1.339 1.339 0.273 0 0.527-0.082 0.738-0.222l-0.005 0.003c1.538-1.050 2.534-2.794 2.534-4.772 0-0.019-0-0.039-0-0.058l0 0.003c0-0.009 0-0.020 0-0.032 0-0.964-0.242-1.872-0.668-2.665l0.015 0.030c2.329-0.666 4.104-2.52 4.645-4.849l0.009-0.044c0.017-0.079 0.026-0.17 0.026-0.263 0-0.386-0.164-0.733-0.425-0.976l-0.001-0.001zM22.813 13.853c-0.084 0.007-0.181 0.011-0.28 0.011s-0.196-0.004-0.293-0.012l0.013 0.001c-0.264-0.184-0.566-0.357-0.882-0.504l-0.038-0.016c-0.567-1.224-1.391-2.245-2.408-3.026l-0.019-0.014c0-0.16 0-0.333 0-0.493 0-0 0-0 0-0 0-1.214 0.541-2.302 1.395-3.035l0.005-0.004c0.436 2.923 2.717 5.204 5.603 5.635l0.037 0.005c-0.739 0.891-1.846 1.454-3.085 1.454-0.017 0-0.034-0-0.051-0l0.003 0zM14.813 19.107c-0.209-0.143-0.468-0.229-0.747-0.229s-0.537 0.085-0.751 0.232l0.005-0.003c-0.2 0.107-3.32 2.227-3.32 5.56 0 2.209 1.791 4 4 4s4-1.791 4-4v0c0-3.333-3.133-5.467-3.253-5.56zM14 26c-0.736 0-1.333-0.597-1.333-1.333v0c0.090-1.066 0.585-2.001 1.329-2.663l0.004-0.004c0.748 0.665 1.243 1.601 1.332 2.652l0.001 0.015c0 0.736-0.597 1.333-1.333 1.333v0z"></path>
</svg>
