<!-- Generated by IcoMoon.io -->
<svg version="1.1" xmlns="http://www.w3.org/2000/svg" width="32" height="32" viewBox="0 0 32 32">
<title>ul-file-redo-alt</title>
<path fill="#91908d" d="M18.667 17.333c0-0.736-0.597-1.333-1.333-1.333v0h-6.667c-0.736 0-1.333 0.597-1.333 1.333s0.597 1.333 1.333 1.333v0h6.667c0.736 0 1.333-0.597 1.333-1.333v0zM14.667 26.667h-6.667c-0.736 0-1.333-0.597-1.333-1.333v0-18.667c0-0.736 0.597-1.333 1.333-1.333v0h6.667v4c0 2.209 1.791 4 4 4v0h4v1.333c0 0.736 0.597 1.333 1.333 1.333s1.333-0.597 1.333-1.333v0-2.667s0 0 0-0.080c-0.014-0.133-0.042-0.255-0.083-0.371l0.003 0.011v-0.12c-0.064-0.145-0.149-0.268-0.253-0.373l-8-8c-0.107-0.101-0.23-0.185-0.365-0.25l-0.009-0.004h-0.12c-0.123-0.073-0.267-0.125-0.421-0.146l-0.006-0.001h-8.080c-2.209 0-4 1.791-4 4v0 18.667c0 2.209 1.791 4 4 4v0h6.667c0.736 0 1.333-0.597 1.333-1.333s-0.597-1.333-1.333-1.333v0zM17.333 7.213l3.453 3.453h-2.12c-0.736 0-1.333-0.597-1.333-1.333v0zM26.667 18.667c-0.54 0.004-1.003 0.328-1.21 0.792l-0.003 0.008c-0.793-0.494-1.754-0.79-2.784-0.8l-0.003-0c-0.002 0-0.005 0-0.008 0-2.946 0-5.333 2.388-5.333 5.333s2.388 5.333 5.333 5.333c1.355 0 2.592-0.506 3.533-1.338l-0.006 0.005c0.281-0.246 0.457-0.606 0.457-1.007 0-0.738-0.599-1.337-1.337-1.337-0.338 0-0.646 0.125-0.882 0.332l0.002-0.001c-0.465 0.418-1.082 0.675-1.759 0.68h-0.001c-1.454-0.024-2.624-1.209-2.624-2.666 0-1.473 1.194-2.667 2.667-2.667 0.474 0 0.918 0.123 1.304 0.34l-0.013-0.007h-0.293c-0.736 0-1.333 0.597-1.333 1.333s0.597 1.333 1.333 1.333v0h2.96c0.736 0 1.333-0.597 1.333-1.333v0-3c0-0.736-0.597-1.333-1.333-1.333v0zM10.667 13.333h1.333c0.736 0 1.333-0.597 1.333-1.333s-0.597-1.333-1.333-1.333v0h-1.333c-0.736 0-1.333 0.597-1.333 1.333s0.597 1.333 1.333 1.333v0zM10.667 21.333c-0.736 0-1.333 0.597-1.333 1.333s0.597 1.333 1.333 1.333v0h2.667c0.736 0 1.333-0.597 1.333-1.333s-0.597-1.333-1.333-1.333v0z"></path>
</svg>
