<!-- Generated by IcoMoon.io -->
<svg version="1.1" xmlns="http://www.w3.org/2000/svg" width="32" height="32" viewBox="0 0 32 32">
<title>ul-file-edit-alt</title>
<path fill="#91908d" d="M27.613 22.28l-3.227-3.227c-0.242-0.244-0.577-0.394-0.947-0.394s-0.705 0.151-0.947 0.394l-4.773 4.773c-0.239 0.241-0.387 0.573-0.387 0.939 0 0.003 0 0.005 0 0.008v-0 3.227c0 0.736 0.597 1.333 1.333 1.333v0h3.227c0.002 0 0.005 0 0.008 0 0.366 0 0.698-0.148 0.939-0.387l4.773-4.773c0.244-0.242 0.394-0.577 0.394-0.947s-0.151-0.705-0.394-0.947l-0-0zM21.333 26.667h-1.333v-1.333l3.44-3.44 1.333 1.333zM13.333 26.667h-5.333c-0.736 0-1.333-0.597-1.333-1.333v0-18.667c0-0.736 0.597-1.333 1.333-1.333v0h6.667v4c0 2.209 1.791 4 4 4v0h4v1.333c0 0.736 0.597 1.333 1.333 1.333s1.333-0.597 1.333-1.333v0-2.667s0 0 0-0.080c-0.015-0.134-0.044-0.256-0.084-0.372l0.004 0.012v-0.12c-0.068-0.143-0.153-0.267-0.254-0.374l0.001 0.001-8-8c-0.107-0.101-0.23-0.185-0.365-0.25l-0.009-0.004c-0.018-0.003-0.039-0.004-0.060-0.004s-0.042 0.002-0.062 0.005l0.002-0-0.427-0.147h-8.080c-2.209 0-4 1.791-4 4v0 18.667c0 2.209 1.791 4 4 4v0h5.333c0.736 0 1.333-0.597 1.333-1.333s-0.597-1.333-1.333-1.333v0zM17.333 7.213l3.453 3.453h-2.12c-0.736 0-1.333-0.597-1.333-1.333v0zM10.667 18.667h8c0.736 0 1.333-0.597 1.333-1.333s-0.597-1.333-1.333-1.333v0h-8c-0.736 0-1.333 0.597-1.333 1.333s0.597 1.333 1.333 1.333v0zM10.667 13.333h1.333c0.736 0 1.333-0.597 1.333-1.333s-0.597-1.333-1.333-1.333v0h-1.333c-0.736 0-1.333 0.597-1.333 1.333s0.597 1.333 1.333 1.333v0zM13.333 21.333h-2.667c-0.736 0-1.333 0.597-1.333 1.333s0.597 1.333 1.333 1.333v0h2.667c0.736 0 1.333-0.597 1.333-1.333s-0.597-1.333-1.333-1.333v0z"></path>
</svg>
