<!-- Generated by IcoMoon.io -->
<svg version="1.1" xmlns="http://www.w3.org/2000/svg" width="32" height="32" viewBox="0 0 32 32">
<title>ul-flip-h-alt</title>
<path fill="#91908d" d="M17.613 7.6c0.048 0.006 0.104 0.010 0.16 0.010s0.112-0.003 0.166-0.010l-0.006 0.001 2.587-0.653c0.586-0.149 1.012-0.672 1.012-1.294 0-0.113-0.014-0.223-0.041-0.329l0.002 0.009c-0.149-0.586-0.672-1.012-1.294-1.012-0.113 0-0.223 0.014-0.329 0.041l0.009-0.002-2.547 0.613c-0.67 0.083-1.183 0.648-1.183 1.333 0 0.742 0.601 1.343 1.343 1.343 0.056 0 0.112-0.003 0.167-0.010l-0.007 0.001zM12.68 12h-2.667c-0.736 0-1.333 0.597-1.333 1.333s0.597 1.333 1.333 1.333v0h2.667c0.736 0 1.333-0.597 1.333-1.333s-0.597-1.333-1.333-1.333v0zM18.013 12c-0.736 0-1.333 0.597-1.333 1.333s0.597 1.333 1.333 1.333v0h2.667c0.736 0 1.333-0.597 1.333-1.333s-0.597-1.333-1.333-1.333v0zM9.853 9.533h0.32l2.587-0.64c0.597-0.149 1.032-0.68 1.032-1.313 0-0.747-0.605-1.352-1.352-1.352-0.114 0-0.224 0.014-0.329 0.040l0.009-0.002-2.587 0.64c-0.67 0.083-1.183 0.648-1.183 1.333 0 0.742 0.601 1.343 1.343 1.343 0.056 0 0.112-0.003 0.167-0.010l-0.007 0.001zM5.333 14.013c0.736 0 1.333-0.597 1.333-1.333v0-2.667c0-0.736-0.597-1.333-1.333-1.333s-1.333 0.597-1.333 1.333v0 2.667c0 0.736 0.597 1.333 1.333 1.333v0zM27.493 2.947c-0.23-0.194-0.53-0.312-0.857-0.312-0.103 0-0.203 0.012-0.299 0.034l0.009-0.002-1.333 0.32c-0.586 0.149-1.012 0.672-1.012 1.294 0 0.113 0.014 0.223 0.041 0.329l-0.002-0.009c0.148 0.587 0.672 1.014 1.294 1.014 0.014 0 0.027-0 0.041-0.001l-0.002 0c0.149 0.586 0.672 1.012 1.294 1.012 0.722 0 1.31-0.574 1.333-1.29l0-0.002v-1.333c0-0.002 0-0.005 0-0.007 0-0.423-0.197-0.8-0.504-1.044l-0.003-0.002zM26.667 9.333c-0.736 0-1.333 0.597-1.333 1.333v0 1.52c-0.394 0.237-0.653 0.661-0.653 1.147 0 0.736 0.597 1.333 1.333 1.333h0.653c0.736 0 1.333-0.597 1.333-1.333v0-2.667c0-0.736-0.597-1.333-1.333-1.333v0zM26.667 17.333h-21.333c-0.736 0-1.333 0.597-1.333 1.333v0 4c-0 0.012-0.001 0.025-0.001 0.039 0 0.623 0.427 1.146 1.005 1.293l0.009 0.002 21.333 5.333c0.048 0.006 0.104 0.010 0.16 0.010s0.112-0.003 0.166-0.010l-0.006 0.001c0.736 0 1.333-0.597 1.333-1.333v0-9.333c0-0.736-0.597-1.333-1.333-1.333v0zM25.333 26.293l-18.667-4.667v-1.627h18.667z"></path>
</svg>
