<!-- Generated by IcoMoon.io -->
<svg version="1.1" xmlns="http://www.w3.org/2000/svg" width="32" height="32" viewBox="0 0 32 32">
<title>ul-file-lock-alt</title>
<path fill="#91908d" d="M13.333 26.667h-6.667c-0.736 0-1.333-0.597-1.333-1.333v0-18.667c0-0.736 0.597-1.333 1.333-1.333v0h6.667v4c0 2.209 1.791 4 4 4v0h5.333c0.551-0.003 1.023-0.339 1.223-0.818l0.003-0.009c0.066-0.153 0.104-0.33 0.104-0.517 0-0.365-0.147-0.696-0.384-0.937l0 0-8-8c-0.107-0.101-0.23-0.185-0.365-0.25l-0.009-0.004c-0.018-0.003-0.039-0.004-0.060-0.004s-0.042 0.002-0.062 0.005l0.002-0-0.373-0.133h-8.080c-2.209 0-4 1.791-4 4v0 18.667c0 2.209 1.791 4 4 4v0h6.667c0.736 0 1.333-0.597 1.333-1.333s-0.597-1.333-1.333-1.333v0zM16 7.213l3.453 3.453h-2.12c-0.736 0-1.333-0.597-1.333-1.333v0zM17.333 17.333c0-0.736-0.597-1.333-1.333-1.333v0h-6.667c-0.736 0-1.333 0.597-1.333 1.333s0.597 1.333 1.333 1.333v0h6.667c0.736 0 1.333-0.597 1.333-1.333v0zM9.333 13.333h1.333c0.736 0 1.333-0.597 1.333-1.333s-0.597-1.333-1.333-1.333v0h-1.333c-0.736 0-1.333 0.597-1.333 1.333s0.597 1.333 1.333 1.333v0zM9.333 21.333c-0.736 0-1.333 0.597-1.333 1.333s0.597 1.333 1.333 1.333v0h2.667c0.736 0 1.333-0.597 1.333-1.333s-0.597-1.333-1.333-1.333v0zM26.667 20.24v-0.24c0-2.209-1.791-4-4-4s-4 1.791-4 4v0 0.24c-1.563 0.564-2.662 2.033-2.667 3.759v1.334c0 2.209 1.791 4 4 4v0h5.333c2.209 0 4-1.791 4-4v0-1.333c-0.005-1.727-1.103-3.196-2.639-3.751l-0.028-0.009zM22.667 18.667c0.736 0 1.333 0.597 1.333 1.333v0h-2.667c0-0.736 0.597-1.333 1.333-1.333v0zM26.667 25.333c0 0.736-0.597 1.333-1.333 1.333v0h-5.333c-0.736 0-1.333-0.597-1.333-1.333v0-1.333c0-0.736 0.597-1.333 1.333-1.333v0h5.333c0.736 0 1.333 0.597 1.333 1.333v0z"></path>
</svg>
