<!-- Generated by IcoMoon.io -->
<svg version="1.1" xmlns="http://www.w3.org/2000/svg" width="32" height="32" viewBox="0 0 32 32">
<title>ul-file-contract-dollar</title>
<path fill="#91908d" d="M28.947 27.053l-2.28-2.307c0-0.147 0-0.28 0-0.413 0-2.025-1.642-3.667-3.667-3.667v0h-0.453l-1.92-1.92c0.109-0.051 0.236-0.080 0.37-0.080 0.001 0 0.003 0 0.004 0h4.333c0.736 0 1.333-0.597 1.333-1.333s-0.597-1.333-1.333-1.333v0h-2v-1.333c0-0.736-0.597-1.333-1.333-1.333s-1.333 0.597-1.333 1.333v0 1.333c-0.75 0.068-1.423 0.354-1.967 0.792l0.007-0.005-1.76-1.773c-0.242-0.242-0.577-0.392-0.947-0.392-0.739 0-1.339 0.599-1.339 1.339 0 0.37 0.15 0.704 0.392 0.947v0l2.28 2.347c0 0.147 0 0.28 0 0.413 0 2.025 1.642 3.667 3.667 3.667v0h0.453l1.92 1.92c-0.109 0.051-0.236 0.080-0.37 0.080-0.001 0-0.003 0-0.004 0h-4.333c-0.736 0-1.333 0.597-1.333 1.333s0.597 1.333 1.333 1.333v0h2v1.333c0 0.736 0.597 1.333 1.333 1.333s1.333-0.597 1.333-1.333v0-1.333c0.768-0.072 1.456-0.372 2.006-0.831l-0.006 0.005 1.76 1.773c0.242 0.244 0.577 0.394 0.947 0.394s0.705-0.151 0.947-0.394l0-0c0.232-0.24 0.375-0.567 0.375-0.927 0-0.38-0.159-0.723-0.414-0.966l-0.001-0.001zM13.333 25.333h-6.667c-0.736 0-1.333-0.597-1.333-1.333v0-18.667c0-0.736 0.597-1.333 1.333-1.333v0h8v5.333c0 0.736 0.597 1.333 1.333 1.333v0h6.667c0.551-0.003 1.023-0.339 1.223-0.818l0.003-0.009c0.066-0.153 0.104-0.33 0.104-0.517 0-0.365-0.147-0.696-0.384-0.937l0 0-6.667-6.667c-0.107-0.101-0.23-0.185-0.365-0.25l-0.009-0.004h-0.12c-0.107-0.054-0.231-0.1-0.361-0.131l-0.012-0.002h-9.413c-2.209 0-4 1.791-4 4v0 18.667c0 2.209 1.791 4 4 4v0h6.667c0.736 0 1.333-0.597 1.333-1.333s-0.597-1.333-1.333-1.333v0zM17.333 5.88l2.12 2.12h-2.12z"></path>
</svg>
