<!-- Generated by IcoMoon.io -->
<svg version="1.1" xmlns="http://www.w3.org/2000/svg" width="32" height="32" viewBox="0 0 32 32">
<title>ul-github</title>
<path fill="#91908d" d="M16 2.996c-7.364 0-13.333 5.97-13.333 13.334 0 5.855 3.774 10.829 9.023 12.622l0.094 0.028c0.667 0.117 0.917-0.283 0.917-0.633 0-0.317-0.017-1.367-0.017-2.483-3.35 0.617-4.217-0.817-4.483-1.567-0.31-0.751-0.775-1.382-1.36-1.878l-0.007-0.006c-0.467-0.25-1.133-0.867-0.017-0.883 0.886 0.099 1.633 0.619 2.043 1.353l0.007 0.014c0.497 0.88 1.425 1.464 2.49 1.464 0.512 0 0.992-0.135 1.407-0.371l-0.014 0.007c0.062-0.705 0.375-1.326 0.849-1.782l0.001-0.001c-2.967-0.333-6.067-1.483-6.067-6.583-0-0.022-0.001-0.048-0.001-0.073 0-1.355 0.52-2.589 1.371-3.514l-0.003 0.004c-0.174-0.476-0.275-1.026-0.275-1.599 0-0.7 0.15-1.365 0.42-1.965l-0.012 0.030s1.117-0.35 3.667 1.367c0.999-0.286 2.147-0.45 3.333-0.45s2.334 0.164 3.422 0.471l-0.089-0.021c2.55-1.733 3.667-1.367 3.667-1.367 0.258 0.569 0.408 1.234 0.408 1.935 0 0.573-0.101 1.123-0.285 1.632l0.011-0.033c0.848 0.916 1.367 2.147 1.367 3.498 0 0.030-0 0.060-0.001 0.090l0-0.005c0 5.117-3.117 6.25-6.083 6.583 0.562 0.57 0.91 1.353 0.91 2.218 0 0.088-0.004 0.174-0.011 0.26l0.001-0.011c0 1.783-0.017 3.217-0.017 3.667 0 0.35 0.25 0.767 0.917 0.633 5.325-1.832 9.083-6.799 9.083-12.643 0-7.365-5.969-13.336-13.333-13.34h-0z"></path>
</svg>
