<!-- Generated by IcoMoon.io -->
<svg version="1.1" xmlns="http://www.w3.org/2000/svg" width="32" height="32" viewBox="0 0 32 32">
<title>ul-heart-rate</title>
<path fill="#91908d" d="M28 14.667h-5.253c-0.042-0.006-0.091-0.009-0.14-0.009s-0.098 0.003-0.145 0.010l0.005-0.001h-0.227c-0.077 0.044-0.142 0.088-0.204 0.136l0.004-0.003c-0.081 0.054-0.15 0.106-0.216 0.163l0.003-0.003c-0.042 0.051-0.081 0.107-0.117 0.167l-0.003 0.006c-0.057 0.077-0.11 0.164-0.155 0.256l-0.005 0.010-2.133 5.88-5.56-15.067c-0.191-0.517-0.68-0.878-1.253-0.878s-1.062 0.362-1.25 0.869l-0.003 0.009-3.080 8.453h-4.267c-0.736 0-1.333 0.597-1.333 1.333s0.597 1.333 1.333 1.333v0h5.733c0.081-0.040 0.151-0.084 0.216-0.135l-0.002 0.002c0.081-0.054 0.15-0.106 0.216-0.163l-0.003 0.003 0.12-0.173c0.060-0.077 0.114-0.165 0.157-0.258l0.003-0.008 2.16-6.040 5.547 15.227c0.191 0.517 0.68 0.88 1.253 0.88h0c0.574-0 1.062-0.363 1.25-0.871l0.003-0.009 3.067-8.453h4.28c0.736 0 1.333-0.597 1.333-1.333s-0.597-1.333-1.333-1.333v0z"></path>
</svg>
