<!-- Generated by IcoMoon.io -->
<svg version="1.1" xmlns="http://www.w3.org/2000/svg" width="32" height="32" viewBox="0 0 32 32">
<title>ul-hospital-square-sign</title>
<path fill="#91908d" d="M20 8c-0 0-0 0-0 0-0.736 0-1.333 0.597-1.333 1.333 0 0 0 0 0 0v-0 5.333h-5.333v-5.333c0-0.736-0.597-1.333-1.333-1.333s-1.333 0.597-1.333 1.333v0 13.333c0 0.736 0.597 1.333 1.333 1.333s1.333-0.597 1.333-1.333v0-5.333h5.333v5.333c0 0.736 0.597 1.333 1.333 1.333s1.333-0.597 1.333-1.333v0-13.333c0-0 0-0 0-0 0-0.736-0.597-1.333-1.333-1.333-0 0-0 0-0 0h0zM25.333 2.667h-18.667c-2.208 0.002-3.998 1.792-4 4v18.667c0.002 2.208 1.792 3.997 4 4h18.667c2.208-0.003 3.997-1.792 4-4v-18.667c-0.003-2.208-1.792-3.998-4-4h-0zM26.667 25.333c-0.001 0.736-0.597 1.333-1.333 1.333h-18.667c-0.736-0.001-1.333-0.597-1.333-1.333v-18.667c0.001-0.736 0.597-1.333 1.333-1.333h18.667c0.736 0.001 1.333 0.597 1.333 1.333v0z"></path>
</svg>
