<!-- Generated by IcoMoon.io -->
<svg version="1.1" xmlns="http://www.w3.org/2000/svg" width="32" height="32" viewBox="0 0 32 32">
<title>ul-intercom</title>
<path fill="#91908d" d="M26 2.667h-20c-1.841 0-3.333 1.492-3.333 3.333v0 20c0 1.841 1.492 3.333 3.333 3.333v0h20c1.841 0 3.333-1.492 3.333-3.333v0-20c0-1.841-1.492-3.333-3.333-3.333v0zM19.56 7.56c-0-0.004-0-0.009-0-0.013 0-0.486 0.394-0.88 0.88-0.88 0.005 0 0.009 0 0.014 0h-0.001c0.48 0.014 0.866 0.4 0.88 0.879l0 0.001v11.867c-0.056 0.444-0.432 0.784-0.887 0.784s-0.831-0.34-0.886-0.78l-0-0.004zM15.107 7.107c0-0.493 0.4-0.893 0.893-0.893v0 0c0.493 0 0.893 0.4 0.893 0.893v0 12.893c0 0.493-0.4 0.893-0.893 0.893s-0.893-0.4-0.893-0.893v0zM10.667 7.56c0.056-0.444 0.432-0.784 0.887-0.784s0.831 0.34 0.886 0.78l0 0.004v11.867c0 0 0 0 0 0 0 0.486-0.394 0.88-0.88 0.88-0.005 0-0.009-0-0.014-0h0.001c-0.48-0.014-0.866-0.4-0.88-0.879l-0-0.001zM6.227 9.333c0.056-0.444 0.432-0.784 0.887-0.784s0.83 0.34 0.886 0.78l0 0.004v8c-0.008 0.488-0.405 0.88-0.893 0.88-0 0-0 0-0 0v0c-0.483-0.007-0.873-0.397-0.88-0.879v-0.001zM25.467 22.893c-2.455 1.807-5.538 2.892-8.875 2.892-0.208 0-0.415-0.004-0.621-0.013l0.030 0.001c-0.176 0.007-0.383 0.012-0.591 0.012-3.337 0-6.42-1.085-8.917-2.921l0.042 0.029c-0.133-0.155-0.214-0.358-0.214-0.581 0-0.493 0.4-0.893 0.893-0.893 0.179 0 0.345 0.052 0.485 0.143l-0.003-0.002c2.171 1.533 4.872 2.45 7.787 2.45 0.183 0 0.365-0.004 0.546-0.011l-0.026 0.001c0.156 0.006 0.338 0.010 0.522 0.010 2.916 0 5.617-0.922 7.827-2.492l-0.042 0.028c0.136-0.088 0.302-0.141 0.481-0.141 0.493 0 0.893 0.4 0.893 0.893 0 0.222-0.081 0.425-0.215 0.582l0.001-0.001zM25.773 17.333c-0.056 0.444-0.432 0.784-0.887 0.784s-0.831-0.34-0.886-0.78l-0-0.004v-8c0.008-0.488 0.405-0.88 0.893-0.88 0 0 0 0 0 0v0c0.486 0 0.88 0.394 0.88 0.88v0z"></path>
</svg>
