<!-- Generated by IcoMoon.io -->
<svg version="1.1" xmlns="http://www.w3.org/2000/svg" width="32" height="32" viewBox="0 0 32 32">
<title>ul-laptop</title>
<path fill="#91908d" d="M28 18.667h-1.333v-9.333c0-2.209-1.791-4-4-4v0h-13.333c-2.209 0-4 1.791-4 4v0 9.333h-1.333c-0.736 0-1.333 0.597-1.333 1.333v0 2.667c0 2.209 1.791 4 4 4v0h18.667c2.209 0 4-1.791 4-4v0-2.667c0-0.736-0.597-1.333-1.333-1.333v0zM8 9.333c0-0.736 0.597-1.333 1.333-1.333v0h13.333c0.736 0 1.333 0.597 1.333 1.333v0 9.333h-16zM26.667 22.667c0 0.736-0.597 1.333-1.333 1.333v0h-18.667c-0.736 0-1.333-0.597-1.333-1.333v0-1.333h21.333z"></path>
</svg>
