<!-- Generated by IcoMoon.io -->
<svg version="1.1" xmlns="http://www.w3.org/2000/svg" width="32" height="32" viewBox="0 0 32 32">
<title>ul-location-arrow-alt</title>
<path fill="#91908d" d="M28.907 23.533l-9.333-18.667c-0.673-1.317-2.020-2.202-3.573-2.202s-2.9 0.886-3.563 2.18l-0.011 0.023-9.333 18.667c-0.264 0.519-0.419 1.133-0.419 1.782 0 2.209 1.791 4 4 4 0.586 0 1.143-0.126 1.644-0.352l-0.025 0.010 7.16-3.2c0.161-0.070 0.349-0.11 0.547-0.11s0.385 0.040 0.556 0.113l-0.009-0.003 7.16 3.2c0.476 0.216 1.033 0.342 1.619 0.342 2.209 0 4-1.791 4-4 0-0.649-0.155-1.263-0.43-1.805l0.011 0.023zM26.24 26.2c-0.243 0.253-0.584 0.41-0.962 0.41-0.197 0-0.385-0.043-0.553-0.12l0.008 0.003-7.16-3.187c-0.478-0.218-1.038-0.346-1.627-0.346s-1.148 0.127-1.652 0.356l0.025-0.010-7.107 3.227c-0.157 0.070-0.339 0.11-0.531 0.11-0.736 0-1.333-0.597-1.333-1.333 0-0.21 0.048-0.408 0.135-0.585l-0.003 0.008 9.333-18.667c0.226-0.434 0.672-0.725 1.187-0.725s0.961 0.291 1.183 0.718l0.003 0.007 9.333 18.667c0.087 0.172 0.138 0.375 0.138 0.591 0 0.355-0.139 0.678-0.365 0.917l0.001-0.001z"></path>
</svg>
