<!-- Generated by IcoMoon.io -->
<svg version="1.1" xmlns="http://www.w3.org/2000/svg" width="32" height="32" viewBox="0 0 32 32">
<title>ul-lamp</title>
<path fill="#91908d" d="M24 3.707c-0.139-0.6-0.668-1.040-1.301-1.040-0.011 0-0.023 0-0.034 0l0.002-0h-13.333c-0.010-0-0.021-0-0.033-0-0.633 0-1.162 0.44-1.299 1.031l-0.002 0.009-2.667 12c-0.021 0.088-0.032 0.188-0.032 0.292 0 0.32 0.113 0.614 0.301 0.844l-0.002-0.002c0.246 0.302 0.619 0.494 1.036 0.494 0.011 0 0.022-0 0.033-0l-0.002 0h5.253c0.051 0.398 0.080 0.858 0.080 1.325 0 0.003 0 0.006 0 0.009v-0c0 0.014 0 0.031 0 0.047 0 3.256-1.308 6.206-3.428 8.354l0.001-0.001c-0.236 0.24-0.381 0.57-0.381 0.933 0 0.734 0.594 1.33 1.328 1.333h12.96c0.734-0.003 1.328-0.599 1.328-1.333 0-0.363-0.145-0.693-0.381-0.934l0 0c-2.118-2.146-3.427-5.097-3.427-8.353 0-0.017 0-0.033 0-0.050v0.003c0-0.002 0-0.005 0-0.008 0-0.467 0.029-0.927 0.085-1.379l-0.006 0.054h1.253v2.667c0 0.736 0.597 1.333 1.333 1.333s1.333-0.597 1.333-1.333v0-2.667h1.333c0.001 0 0.003 0 0.005 0 0.417 0 0.789-0.191 1.034-0.491l0.002-0.002c0.186-0.227 0.299-0.521 0.299-0.841 0-0.103-0.012-0.204-0.034-0.301l0.002 0.009zM12.293 26.667c1.488-2.243 2.373-4.998 2.373-7.96 0-0.014-0-0.028-0-0.043v0.002c0-0.44 0-0.893-0.067-1.333h2.8c0 0.44-0.067 0.893-0.067 1.333-0 0.012-0 0.026-0 0.041 0 2.962 0.886 5.716 2.407 8.013l-0.034-0.054zM8.293 14.667l2.107-9.333h11.2l2.067 9.333z"></path>
</svg>
