<!-- Generated by IcoMoon.io -->
<svg version="1.1" xmlns="http://www.w3.org/2000/svg" width="32" height="32" viewBox="0 0 32 32">
<title>ul-linkedin-alt</title>
<path fill="#91908d" d="M23.333 11.999c-0.001 0-0.002 0-0.003 0-1.252 0-2.429 0.318-3.455 0.878l0.038-0.019c-0.196-0.507-0.68-0.859-1.245-0.859-0 0-0 0-0.001 0h-5.333c-0 0-0.001 0-0.001 0-0.736 0-1.333 0.597-1.333 1.333 0 0 0 0.001 0 0.001v-0 16c0 0 0 0 0 0.001 0 0.736 0.597 1.333 1.333 1.333 0 0 0.001 0 0.001 0h5.333c0 0 0 0 0.001 0 0.736 0 1.333-0.597 1.333-1.333 0-0 0-0.001 0-0.001v0-7.333c0-0.736 0.597-1.333 1.333-1.333s1.333 0.597 1.333 1.333v0 7.333c0 0 0 0 0 0.001 0 0.736 0.597 1.333 1.333 1.333 0 0 0.001 0 0.001 0h5.333c0 0 0 0 0.001 0 0.736 0 1.333-0.597 1.333-1.333 0-0 0-0.001 0-0.001v0-10c-0.005-4.048-3.285-7.328-7.333-7.333h-0zM28 27.999h-2.667v-6c0-2.209-1.791-4-4-4s-4 1.791-4 4v0 6h-2.667v-13.333h2.667v0.938c0 0.736 0.598 1.333 1.334 1.333 0.42 0 0.794-0.194 1.039-0.497l0.002-0.003c0.858-1.083 2.173-1.771 3.648-1.771 2.564 0 4.643 2.079 4.643 4.643 0 0.008-0 0.016-0 0.025v-0.001zM9.333 11.999h-5.333c-0 0-0.001 0-0.001 0-0.736 0-1.333 0.597-1.333 1.333 0 0 0 0.001 0 0.001v-0 16c0 0 0 0 0 0.001 0 0.736 0.597 1.333 1.333 1.333 0 0 0.001 0 0.001 0h5.333c0 0 0.001 0 0.001 0 0.736 0 1.333-0.597 1.333-1.333 0-0 0-0.001 0-0.001v0-16c0-0 0-0.001 0-0.001 0-0.736-0.597-1.333-1.333-1.333-0 0-0.001 0-0.001 0h0zM8 27.999h-2.667v-13.333h2.667zM6.686 2.056c-0.077-0.005-0.167-0.008-0.258-0.008-2.381 0-4.31 1.93-4.31 4.31s1.93 4.31 4.31 4.31c0.064 0 0.128-0.001 0.191-0.004l-0.009 0h0.038c0.076 0.005 0.166 0.008 0.256 0.008 2.381 0 4.311-1.93 4.311-4.311s-1.93-4.311-4.311-4.311c-0.077 0-0.153 0.002-0.228 0.006l0.011-0zM6.648 7.999h-0.038c-0.059 0.008-0.127 0.012-0.196 0.012-0.9 0-1.629-0.729-1.629-1.629 0-0.007 0-0.014 0-0.022v0.001c0-0.995 0.746-1.638 1.901-1.638 0.065-0.009 0.141-0.014 0.217-0.014 0.908 0 1.645 0.736 1.645 1.645 0 0.003 0 0.005-0 0.008v-0c0 0.995-0.746 1.638-1.9 1.638z"></path>
</svg>
