<!-- Generated by IcoMoon.io -->
<svg version="1.1" xmlns="http://www.w3.org/2000/svg" width="32" height="32" viewBox="0 0 32 32">
<title>ul-mobile-android</title>
<path fill="#91908d" d="M16.947 21.72l-0.2-0.16c-0.069-0.048-0.148-0.088-0.233-0.118l-0.007-0.002-0.24-0.107c-0.082-0.018-0.176-0.028-0.273-0.028-0.367 0-0.699 0.148-0.941 0.388l0-0c-0.114 0.125-0.208 0.271-0.276 0.43l-0.004 0.010c-0.065 0.151-0.102 0.327-0.102 0.511 0 0.736 0.597 1.333 1.333 1.333 0.181 0 0.354-0.036 0.511-0.101l-0.009 0.003c0.168-0.082 0.313-0.18 0.442-0.295l-0.002 0.002c0.238-0.241 0.384-0.571 0.384-0.936 0-0.187-0.038-0.364-0.108-0.526l0.003 0.009c-0.070-0.16-0.165-0.297-0.28-0.413l0 0zM21.333 2.667h-10.667c-2.209 0-4 1.791-4 4v0 18.667c0 2.209 1.791 4 4 4v0h10.667c2.209 0 4-1.791 4-4v0-18.667c0-2.209-1.791-4-4-4v0zM22.667 25.333c0 0.736-0.597 1.333-1.333 1.333v0h-10.667c-0.736 0-1.333-0.597-1.333-1.333v0-18.667c0-0.736 0.597-1.333 1.333-1.333v0h10.667c0.736 0 1.333 0.597 1.333 1.333v0z"></path>
</svg>
