<!-- Generated by IcoMoon.io -->
<svg version="1.1" xmlns="http://www.w3.org/2000/svg" width="32" height="32" viewBox="0 0 32 32">
<title>ul-music-note</title>
<path fill="#91908d" d="M25.493 2.947c-0.23-0.194-0.53-0.312-0.857-0.312-0.103 0-0.203 0.012-0.299 0.034l0.009-0.002-10.667 2.667c-0.587 0.148-1.014 0.672-1.014 1.295 0 0.014 0 0.027 0.001 0.041l-0-0.002v13.8c-0.584-0.292-1.271-0.464-1.999-0.467h-0.001c-2.577 0-4.667 2.089-4.667 4.667s2.089 4.667 4.667 4.667c2.577 0 4.667-2.089 4.667-4.667v0-10.293l9.653-2.373h0.093l0.253-0.2 0.2-0.133c0.064-0.060 0.121-0.125 0.171-0.196l0.003-0.004c0.050-0.058 0.094-0.124 0.131-0.194l0.003-0.006c0.038-0.069 0.066-0.15 0.079-0.236l0.001-0.004c0.007-0.038 0.010-0.082 0.010-0.127s-0.004-0.089-0.011-0.131l0.001 0.005c0.003-0.016 0.004-0.034 0.004-0.053s-0.002-0.037-0.005-0.055l0 0.002v-6.667c0.001-0.022 0.002-0.048 0.002-0.074 0-0.387-0.165-0.735-0.428-0.979l-0.001-0.001zM10.667 26.667c-1.105 0-2-0.895-2-2s0.895-2 2-2c1.105 0 2 0.895 2 2v0c0 1.105-0.895 2-2 2v0zM23.333 9.627l-8 2v-3.92l8-2z"></path>
</svg>
