<!-- Generated by IcoMoon.io -->
<svg version="1.1" xmlns="http://www.w3.org/2000/svg" width="32" height="32" viewBox="0 0 32 32">
<title>ul-maximize-left</title>
<path fill="#91908d" d="M7.213 5.333h2.12c0.736 0 1.333-0.597 1.333-1.333s-0.597-1.333-1.333-1.333v0h-5.333c-0.184 0.002-0.357 0.041-0.515 0.11l0.009-0.003c-0.327 0.138-0.582 0.393-0.717 0.711l-0.003 0.009c-0.065 0.149-0.104 0.323-0.107 0.506v5.334c0 0.736 0.597 1.333 1.333 1.333s1.333-0.597 1.333-1.333v0-2.12l7.72 7.733c0.242 0.244 0.577 0.394 0.947 0.394s0.705-0.151 0.947-0.394l0-0c0.244-0.242 0.394-0.577 0.394-0.947s-0.151-0.705-0.394-0.947l-0-0zM28 21.333c-0.736 0-1.333 0.597-1.333 1.333v0 2.12l-7.72-7.733c-0.242-0.242-0.577-0.392-0.947-0.392-0.739 0-1.339 0.599-1.339 1.339 0 0.37 0.15 0.704 0.392 0.947v0l7.733 7.72h-2.12c-0.736 0-1.333 0.597-1.333 1.333s0.597 1.333 1.333 1.333v0h5.333c0.184-0.002 0.357-0.041 0.515-0.11l-0.009 0.003c0.327-0.138 0.582-0.393 0.717-0.711l0.003-0.009c0.065-0.149 0.104-0.323 0.107-0.506v-5.334c0-0.736-0.597-1.333-1.333-1.333v0z"></path>
</svg>
