<!-- Generated by IcoMoon.io -->
<svg version="1.1" xmlns="http://www.w3.org/2000/svg" width="32" height="32" viewBox="0 0 32 32">
<title>ul-map-marker</title>
<path fill="#91908d" d="M16 2.667c-5.891 0-10.667 4.776-10.667 10.667v0c0 7.2 9.4 15.333 9.8 15.68 0.232 0.199 0.535 0.32 0.867 0.32s0.635-0.121 0.868-0.322l-0.002 0.002c0.467-0.347 9.8-8.48 9.8-15.68 0-5.891-4.776-10.667-10.667-10.667v0zM16 26.2c-2.84-2.667-8-8.413-8-12.867 0-4.418 3.582-8 8-8s8 3.582 8 8v0c0 4.453-5.16 10.213-8 12.867zM16 8c-2.946 0-5.333 2.388-5.333 5.333s2.388 5.333 5.333 5.333c2.946 0 5.333-2.388 5.333-5.333v0c0-2.946-2.388-5.333-5.333-5.333v0zM16 16c-1.473 0-2.667-1.194-2.667-2.667s1.194-2.667 2.667-2.667c1.473 0 2.667 1.194 2.667 2.667v0c0 1.473-1.194 2.667-2.667 2.667v0z"></path>
</svg>
