<!-- Generated by IcoMoon.io -->
<svg version="1.1" xmlns="http://www.w3.org/2000/svg" width="32" height="32" viewBox="0 0 32 32">
<title>ul-n-a</title>
<path fill="#91908d" d="M25.333 8h-1.333c-2.209 0-4 1.791-4 4v0 10.667c0 0.736 0.597 1.333 1.333 1.333s1.333-0.597 1.333-1.333v0-5.333h4v5.333c0 0.736 0.597 1.333 1.333 1.333s1.333-0.597 1.333-1.333v0-10.667c0-2.209-1.791-4-4-4v0zM26.667 14.667h-4v-2.667c0-0.736 0.597-1.333 1.333-1.333v0h1.333c0.736 0 1.333 0.597 1.333 1.333v0zM10.667 8c-0.736 0-1.333 0.597-1.333 1.333v0 7.68l-4.147-8.28c-0.226-0.434-0.672-0.725-1.187-0.725-0.734 0-1.329 0.592-1.333 1.325v13.334c0 0.736 0.597 1.333 1.333 1.333s1.333-0.597 1.333-1.333v0-7.68l4.147 8.28c0.224 0.437 0.671 0.732 1.186 0.733h0c0.046 0.006 0.099 0.010 0.153 0.010s0.107-0.004 0.159-0.010l-0.006 0.001c0.593-0.143 1.027-0.67 1.027-1.298 0-0.013-0-0.025-0.001-0.037l0 0.002v-13.333c0-0.736-0.597-1.333-1.333-1.333v0zM16 5.333c-0.736 0-1.333 0.597-1.333 1.333v0 18.667c0 0.736 0.597 1.333 1.333 1.333s1.333-0.597 1.333-1.333v0-18.667c0-0.736-0.597-1.333-1.333-1.333v0z"></path>
</svg>
