<!-- Generated by IcoMoon.io -->
<svg version="1.1" xmlns="http://www.w3.org/2000/svg" width="32" height="32" viewBox="0 0 32 32">
<title>ul-paypal</title>
<path fill="#91908d" d="M27.249 9.473c-0.23-0.257-0.48-0.486-0.75-0.689l-0.013-0.009c0.032-0.24 0.051-0.516 0.051-0.798 0-1.611-0.605-3.081-1.6-4.195l0.005 0.006c-1.445-1.629-3.909-2.454-7.323-2.454h-8.285c-1.249 0.003-2.285 0.914-2.482 2.108l-0.002 0.015-3.453 21.875c-0.018 0.101-0.028 0.217-0.028 0.336 0 1.129 0.915 2.044 2.044 2.044 0.002 0 0.003 0 0.005 0h3.552l-0.109 0.694c-0.015 0.092-0.024 0.198-0.024 0.306 0 1.080 0.875 1.955 1.955 1.956h4.313c0.006 0 0.012 0 0.019 0 1.16 0 2.123-0.841 2.314-1.946l0.002-0.014 0.854-5.375 0.014-0.073h0.398c5.376 0 8.734-2.658 9.714-7.684 0.17-0.569 0.268-1.223 0.268-1.899 0-1.591-0.541-3.055-1.449-4.219l0.011 0.015zM10.456 18.272l-0.953 6.047-0.115 0.725h-3.247l3.322-21.044h8.156c2.581 0 4.423 0.539 5.323 1.552 0.595 0.688 0.957 1.591 0.957 2.579 0 0.379-0.053 0.746-0.153 1.093l0.007-0.028-0.025 0.15c-0.016 0.102-0.031 0.202-0.058 0.328-0.273 1.972-1.249 3.677-2.663 4.885l-0.011 0.009c-1.418 0.997-3.181 1.594-5.083 1.594-0.19 0-0.379-0.006-0.566-0.018l0.026 0.001h-2.431c-0.002 0-0.005 0-0.008 0-1.25 0-2.286 0.915-2.475 2.112l-0.002 0.014zM25.801 15.065c-0.734 3.771-2.99 5.527-7.096 5.527h-0.645c-0.005-0-0.012-0-0.018-0-1.161 0-2.125 0.843-2.314 1.95l-0.002 0.014-0.866 5.432-3.237 0.012 0.638-4.045 0.815-5.137h2.292c0.209 0 0.394-0.031 0.598-0.039 0.478-0.017 0.955-0.035 1.404-0.090 0.274-0.034 0.525-0.096 0.787-0.145 0.363-0.067 0.727-0.134 1.068-0.228 0.254-0.071 0.491-0.162 0.732-0.247 0.319-0.113 0.633-0.232 0.93-0.372 0.224-0.105 0.437-0.223 0.649-0.343 0.32-0.182 0.586-0.355 0.843-0.54l-0.026 0.018c0.19-0.137 0.376-0.277 0.553-0.428 0.257-0.222 0.49-0.448 0.711-0.686l0.005-0.006c0.151-0.161 0.305-0.317 0.444-0.49 0.212-0.268 0.423-0.569 0.617-0.883l0.023-0.041c0.102-0.163 0.215-0.314 0.309-0.485 0.24-0.428 0.474-0.935 0.669-1.461l0.025-0.077c0.012-0.032 0.028-0.059 0.039-0.091 0.005-0.015 0.013-0.027 0.018-0.042 0.132 0.458 0.207 0.984 0.207 1.528 0 0.495-0.063 0.976-0.181 1.435l0.009-0.040z"></path>
</svg>
