<!-- Generated by IcoMoon.io -->
<svg version="1.1" xmlns="http://www.w3.org/2000/svg" width="32" height="32" viewBox="0 0 32 32">
<title>ul-play-circle</title>
<path fill="#91908d" d="M21.333 13.693l-6.667-3.853c-0.382-0.225-0.842-0.357-1.333-0.357-1.472 0-2.665 1.192-2.667 2.664v7.707c0.001 0.981 0.531 1.837 1.321 2.3l0.013 0.007c0.382 0.225 0.842 0.357 1.333 0.357s0.951-0.133 1.346-0.364l-0.013 0.007 6.667-3.853c0.8-0.47 1.329-1.327 1.329-2.307s-0.529-1.836-1.316-2.3l-0.012-0.007zM20 16l-6.667 3.853v-7.707l6.667 3.853zM16 2.667c-7.364 0-13.333 5.97-13.333 13.333s5.97 13.333 13.333 13.333c7.364 0 13.333-5.97 13.333-13.333v0c0-7.364-5.97-13.333-13.333-13.333v0zM16 26.667c-5.891 0-10.667-4.776-10.667-10.667s4.776-10.667 10.667-10.667c5.891 0 10.667 4.776 10.667 10.667v0c0 5.891-4.776 10.667-10.667 10.667v0z"></path>
</svg>
