<!-- Generated by IcoMoon.io -->
<svg version="1.1" xmlns="http://www.w3.org/2000/svg" width="32" height="32" viewBox="0 0 32 32">
<title>ul-paint-tool</title>
<path fill="#91908d" d="M24 1.333h-10.667c-2.209 0-4 1.791-4 4v0h-1.333c-2.209 0-4 1.791-4 4v0 4c0 2.209 1.791 4 4 4v0h8c0.736 0 1.333 0.597 1.333 1.333v0 1.333c-1.473 0-2.667 1.194-2.667 2.667v0 5.333c0 1.473 1.194 2.667 2.667 2.667v0h2.667c1.473 0 2.667-1.194 2.667-2.667v0-5.333c0-1.473-1.194-2.667-2.667-2.667v0-1.333c0-2.209-1.791-4-4-4v0h-8c-0.736 0-1.333-0.597-1.333-1.333v0-4c0-0.736 0.597-1.333 1.333-1.333v0h1.333c0 2.209 1.791 4 4 4v0h10.667c2.209 0 4-1.791 4-4v0-2.667c0-2.209-1.791-4-4-4v0zM20 22.667v5.333h-2.667v-5.333zM25.333 8c0 0.736-0.597 1.333-1.333 1.333v0h-10.667c-0.736 0-1.333-0.597-1.333-1.333v0-2.667c0-0.736 0.597-1.333 1.333-1.333v0h10.667c0.736 0 1.333 0.597 1.333 1.333v0z"></path>
</svg>
