<!-- Generated by IcoMoon.io -->
<svg version="1.1" xmlns="http://www.w3.org/2000/svg" width="32" height="32" viewBox="0 0 32 32">
<title>ul-pump</title>
<path fill="#91908d" d="M27.387 8.387l-3.933-3.933c-0.242-0.242-0.577-0.392-0.947-0.392-0.739 0-1.339 0.599-1.339 1.339 0 0.37 0.15 0.704 0.392 0.947l1.333 1.333-1.107 3.32c-0.129 0.376-0.203 0.809-0.203 1.26 0 1.107 0.45 2.109 1.177 2.834l0 0 3.933 4v6.24c0 0.736-0.597 1.333-1.333 1.333s-1.333-0.597-1.333-1.333v0-2.667c0-2.209-1.791-4-4-4v0h-1.36v-12c0-2.209-1.791-4-4-4v0h-8c-2.209 0-4 1.791-4 4v0 18.667c0 2.209 1.791 4 4 4v0h8c2.209 0 4-1.791 4-4v0-4h1.333c0.736 0 1.333 0.597 1.333 1.333v0 2.667c0 2.209 1.791 4 4 4s4-1.791 4-4v0-12.227c0-0.004 0-0.008 0-0.012 0-1.838-0.744-3.502-1.947-4.708l0 0zM16 25.333c0 0.736-0.597 1.333-1.333 1.333v0h-8c-0.736 0-1.333-0.597-1.333-1.333v0-9.333h10.667zM16 13.333h-10.667v-6.667c0-0.736 0.597-1.333 1.333-1.333v0h8c0.736 0 1.333 0.597 1.333 1.333v0zM26.667 15.227l-2.053-2.053c-0.236-0.24-0.381-0.57-0.381-0.934 0-0.143 0.022-0.28 0.064-0.409l-0.003 0.009 0.68-2.053 0.52 0.533c0.715 0.714 1.161 1.697 1.173 2.784l0 0.002z"></path>
</svg>
