<!-- Generated by IcoMoon.io -->
<svg version="1.1" xmlns="http://www.w3.org/2000/svg" width="32" height="32" viewBox="0 0 32 32">
<title>ul-presentation-edit</title>
<path fill="#91908d" d="M12.547 17.333h3.227c0.002 0 0.005 0 0.008 0 0.366 0 0.698-0.148 0.939-0.387l4.773-4.773c0.24-0.241 0.388-0.573 0.388-0.94s-0.148-0.699-0.388-0.94l0 0-3.227-3.2c-0.241-0.24-0.573-0.388-0.94-0.388s-0.699 0.148-0.94 0.388l-4.773 4.773c-0.243 0.238-0.395 0.567-0.4 0.932v3.201c0 0.736 0.597 1.333 1.333 1.333v0zM13.88 13.333l3.453-3.413 1.333 1.333-3.44 3.413h-1.333zM28 18.667h-1.333v-13.333h1.333c0.736 0 1.333-0.597 1.333-1.333s-0.597-1.333-1.333-1.333v0h-24c-0.736 0-1.333 0.597-1.333 1.333s0.597 1.333 1.333 1.333v0h1.333v13.333h-1.333c-0.736 0-1.333 0.597-1.333 1.333s0.597 1.333 1.333 1.333v0h10.667v1.533l-6.067 4c-0.382 0.239-0.632 0.657-0.632 1.134 0 0.736 0.597 1.333 1.333 1.333 0.011 0 0.022-0 0.033-0l-0.002 0c0.004 0 0.009 0 0.014 0 0.269 0 0.519-0.085 0.723-0.229l-0.004 0.003 4.6-3.040v1.933c0 0.736 0.597 1.333 1.333 1.333s1.333-0.597 1.333-1.333v0-1.933l4.6 3.040c0.2 0.142 0.45 0.227 0.719 0.227 0.005 0 0.010-0 0.015-0h-0.001c0.732-0.006 1.323-0.601 1.323-1.333 0-0.459-0.232-0.864-0.585-1.104l-0.005-0.003-6.067-4v-1.56h10.667c0.736 0 1.333-0.597 1.333-1.333s-0.597-1.333-1.333-1.333v0zM24 18.667h-16v-13.333h16z"></path>
</svg>
