<!-- Generated by IcoMoon.io -->
<svg version="1.1" xmlns="http://www.w3.org/2000/svg" width="32" height="32" viewBox="0 0 32 32">
<title>ul-pen</title>
<path fill="#91908d" d="M29.333 9.653c0-0.002 0-0.005 0-0.008 0-0.366-0.148-0.698-0.387-0.939l-5.653-5.653c-0.241-0.239-0.573-0.387-0.939-0.387-0.003 0-0.005 0-0.008 0h0c-0.002 0-0.005-0-0.008-0-0.366 0-0.698 0.148-0.939 0.387l-18.347 18.347c-0.239 0.241-0.387 0.573-0.387 0.939 0 0.003 0 0.005 0 0.008v-0 5.653c0 0.736 0.597 1.333 1.333 1.333v0h5.653c0.022 0.001 0.047 0.002 0.072 0.002 0.367 0 0.7-0.148 0.941-0.389l-0 0 14.493-14.573 3.787-3.707c0.118-0.125 0.216-0.271 0.289-0.43l0.004-0.010c0.006-0.048 0.010-0.104 0.010-0.16s-0.003-0.112-0.010-0.166l0.001 0.007c0.003-0.028 0.005-0.060 0.005-0.093s-0.002-0.065-0.005-0.097l0 0.004zM9.107 26.667h-3.773v-3.773l13.24-13.24 3.773 3.773zM24.227 11.547l-3.773-3.773 1.893-1.88 3.76 3.76z"></path>
</svg>
