<!-- Generated by IcoMoon.io -->
<svg version="1.1" xmlns="http://www.w3.org/2000/svg" width="32" height="32" viewBox="0 0 32 32">
<title>ul-paperclip</title>
<path fill="#91908d" d="M24.107 16.56l-8.24 8.253c-0.996 0.888-2.317 1.431-3.764 1.431-3.13 0-5.667-2.537-5.667-5.667 0-1.448 0.543-2.768 1.436-3.77l-0.005 0.006 10.667-10.667c0.613-0.583 1.445-0.942 2.36-0.942s1.747 0.359 2.361 0.944l-0.001-0.001c0.599 0.606 0.968 1.44 0.968 2.36s-0.37 1.754-0.969 2.36l0-0-9.2 9.187c-0.187 0.201-0.452 0.326-0.747 0.326-0.563 0-1.019-0.456-1.019-1.019 0-0.268 0.104-0.512 0.273-0.694l-0.001 0.001 6.84-6.827c0.242-0.242 0.392-0.577 0.392-0.947 0-0.739-0.599-1.339-1.339-1.339-0.37 0-0.704 0.15-0.947 0.392v0l-6.84 6.853c-0.667 0.662-1.080 1.579-1.080 2.593s0.413 1.931 1.080 2.593l0 0c0.673 0.642 1.587 1.037 2.593 1.037s1.92-0.395 2.595-1.039l-0.002 0.001 9.187-9.2c0.998-1.069 1.61-2.508 1.61-4.090 0-3.314-2.686-6-6-6-1.582 0-3.022 0.613-4.094 1.614l0.003-0.003-10.667 10.667c-1.333 1.471-2.148 3.433-2.148 5.585 0 4.602 3.731 8.333 8.333 8.333 2.192 0 4.186-0.846 5.673-2.229l-0.005 0.005 8.253-8.24c0.242-0.242 0.392-0.577 0.392-0.947 0-0.739-0.599-1.339-1.339-1.339-0.37 0-0.704 0.15-0.947 0.392v0z"></path>
</svg>
