<!-- Generated by IcoMoon.io -->
<svg version="1.1" xmlns="http://www.w3.org/2000/svg" width="32" height="32" viewBox="0 0 32 32">
<title>ul-play</title>
<path fill="#91908d" d="M24.72 12l-12.88-7.387c-0.654-0.384-1.441-0.611-2.28-0.611-2.518 0-4.56 2.042-4.56 4.56 0 0.018 0 0.036 0 0.054l-0-0.003v14.827c0 2.518 2.042 4.56 4.56 4.56v0c0.84-0.001 1.626-0.229 2.302-0.625l-0.022 0.012 12.88-7.387c1.37-0.804 2.276-2.269 2.276-3.947s-0.906-3.143-2.254-3.935l-0.021-0.012zM23.387 17.587l-12.88 7.493c-0.272 0.157-0.599 0.25-0.947 0.25s-0.675-0.093-0.956-0.255l0.009 0.005c-0.57-0.333-0.947-0.943-0.947-1.64 0-0 0-0 0-0v0-14.88c0-0 0-0 0-0 0-0.697 0.377-1.306 0.938-1.635l0.009-0.005c0.273-0.154 0.598-0.248 0.945-0.253l0.002-0c0.348 0.007 0.673 0.1 0.957 0.259l-0.010-0.005 12.88 7.44c0.57 0.333 0.947 0.943 0.947 1.64s-0.377 1.307-0.938 1.635l-0.009 0.005z"></path>
</svg>
