<!-- Generated by IcoMoon.io -->
<svg version="1.1" xmlns="http://www.w3.org/2000/svg" width="32" height="32" viewBox="0 0 32 32">
<title>ul-qrcode-scan</title>
<path fill="#91908d" d="M10.667 28h-5.333c-0.736 0-1.333-0.597-1.333-1.333v0-5.333c0-0.736-0.597-1.333-1.333-1.333s-1.333 0.597-1.333 1.333v0 5.333c0 2.209 1.791 4 4 4v0h5.333c0.736 0 1.333-0.597 1.333-1.333s-0.597-1.333-1.333-1.333v0zM29.333 20c-0.736 0-1.333 0.597-1.333 1.333v0 5.333c0 0.736-0.597 1.333-1.333 1.333v0h-5.333c-0.736 0-1.333 0.597-1.333 1.333s0.597 1.333 1.333 1.333v0h5.333c2.209 0 4-1.791 4-4v0-5.333c0-0.736-0.597-1.333-1.333-1.333v0zM26.667 1.333h-5.333c-0.736 0-1.333 0.597-1.333 1.333s0.597 1.333 1.333 1.333v0h5.333c0.736 0 1.333 0.597 1.333 1.333v0 5.333c0 0.736 0.597 1.333 1.333 1.333s1.333-0.597 1.333-1.333v0-5.333c0-2.209-1.791-4-4-4v0zM2.667 12c0.736 0 1.333-0.597 1.333-1.333v0-5.333c0-0.736 0.597-1.333 1.333-1.333v0h5.333c0.736 0 1.333-0.597 1.333-1.333s-0.597-1.333-1.333-1.333v0h-5.333c-2.209 0-4 1.791-4 4v0 5.333c0 0.736 0.597 1.333 1.333 1.333v0zM13.333 6.667h-5.333c-0.736 0-1.333 0.597-1.333 1.333v0 5.333c0 0.736 0.597 1.333 1.333 1.333v0h5.333c0.736 0 1.333-0.597 1.333-1.333v0-5.333c0-0.736-0.597-1.333-1.333-1.333v0zM12 12h-2.667v-2.667h2.667zM18.667 14.667h5.333c0.736 0 1.333-0.597 1.333-1.333v0-5.333c0-0.736-0.597-1.333-1.333-1.333v0h-5.333c-0.736 0-1.333 0.597-1.333 1.333v0 5.333c0 0.736 0.597 1.333 1.333 1.333v0zM20 9.333h2.667v2.667h-2.667zM13.333 17.333h-5.333c-0.736 0-1.333 0.597-1.333 1.333v0 5.333c0 0.736 0.597 1.333 1.333 1.333v0h5.333c0.736 0 1.333-0.597 1.333-1.333v0-5.333c0-0.736-0.597-1.333-1.333-1.333v0zM12 22.667h-2.667v-2.667h2.667zM18.667 21.333c0.736 0 1.333-0.597 1.333-1.333v0c0.736 0 1.333-0.597 1.333-1.333s-0.597-1.333-1.333-1.333v0h-1.333c-0.736 0-1.333 0.597-1.333 1.333v0 1.333c0 0.736 0.597 1.333 1.333 1.333v0zM24 17.333c-0.736 0-1.333 0.597-1.333 1.333v0 4c-0.736 0-1.333 0.597-1.333 1.333s0.597 1.333 1.333 1.333v0h1.333c0.736 0 1.333-0.597 1.333-1.333v0-5.333c0-0.736-0.597-1.333-1.333-1.333v0zM18.667 22.667c-0.736 0-1.333 0.597-1.333 1.333s0.597 1.333 1.333 1.333c0.736 0 1.333-0.597 1.333-1.333v0c0-0.736-0.597-1.333-1.333-1.333v0z"></path>
</svg>
