<!-- Generated by IcoMoon.io -->
<svg version="1.1" xmlns="http://www.w3.org/2000/svg" width="32" height="32" viewBox="0 0 32 32">
<title>ul-right-indent-alt</title>
<path fill="#91908d" d="M4.853 12.747c-0.23-0.192-0.528-0.308-0.853-0.308-0.737 0-1.335 0.598-1.335 1.335 0 0.412 0.186 0.78 0.48 1.025l0.002 0.002 1.44 1.2-1.44 1.2c-0.296 0.246-0.482 0.615-0.482 1.026 0 0.326 0.117 0.624 0.311 0.856l-0.002-0.002c0.246 0.296 0.615 0.482 1.026 0.482 0.326 0 0.624-0.117 0.856-0.311l-0.002 0.002 2.667-2.227c0.296-0.246 0.483-0.615 0.483-1.027s-0.187-0.78-0.48-1.025l-0.002-0.002zM12 6.667c-0.736 0-1.333 0.597-1.333 1.333v0 16c0 0.736 0.597 1.333 1.333 1.333s1.333-0.597 1.333-1.333v0-16c0-0.736-0.597-1.333-1.333-1.333v0zM17.333 9.333h10.667c0.736 0 1.333-0.597 1.333-1.333s-0.597-1.333-1.333-1.333v0h-10.667c-0.736 0-1.333 0.597-1.333 1.333s0.597 1.333 1.333 1.333v0zM28 22.667h-10.667c-0.736 0-1.333 0.597-1.333 1.333s0.597 1.333 1.333 1.333v0h10.667c0.736 0 1.333-0.597 1.333-1.333s-0.597-1.333-1.333-1.333v0zM28 12h-10.667c-0.736 0-1.333 0.597-1.333 1.333s0.597 1.333 1.333 1.333v0h10.667c0.736 0 1.333-0.597 1.333-1.333s-0.597-1.333-1.333-1.333v0zM28 17.333h-10.667c-0.736 0-1.333 0.597-1.333 1.333s0.597 1.333 1.333 1.333v0h10.667c0.736 0 1.333-0.597 1.333-1.333s-0.597-1.333-1.333-1.333v0z"></path>
</svg>
