<!-- Generated by IcoMoon.io -->
<svg version="1.1" xmlns="http://www.w3.org/2000/svg" width="32" height="32" viewBox="0 0 32 32">
<title>ul-stethoscope</title>
<path fill="#91908d" d="M25.333 10.667c-0.003 0-0.006 0-0.010 0-2.204 0-3.99 1.786-3.99 3.99 0 1.729 1.1 3.202 2.639 3.755l0.028 0.009v2.246c0 3.314-2.686 6-6 6s-6-2.686-6-6v0-0.787c3.804-0.663 6.66-3.937 6.667-7.879v-8.001c0-0.736-0.597-1.333-1.333-1.333v0h-2.667c-0.736 0-1.333 0.597-1.333 1.333s0.597 1.333 1.333 1.333v0h1.333v6.667c0 2.946-2.388 5.333-5.333 5.333s-5.333-2.388-5.333-5.333v0-6.667h1.333c0.736 0 1.333-0.597 1.333-1.333s-0.597-1.333-1.333-1.333v0h-2.667c-0.736 0-1.333 0.597-1.333 1.333v0 8c0.007 3.943 2.863 7.217 6.619 7.873l0.048 0.007v0.787c0 4.786 3.88 8.667 8.667 8.667s8.667-3.88 8.667-8.667v0-2.246c1.566-0.562 2.667-2.035 2.667-3.764 0-2.204-1.786-3.99-3.99-3.99-0.003 0-0.007 0-0.010 0h0.001zM25.333 16c-0.736 0-1.333-0.597-1.333-1.333s0.597-1.333 1.333-1.333c0.736 0 1.333 0.597 1.333 1.333v0c-0.001 0.736-0.597 1.332-1.333 1.333h-0z"></path>
</svg>
