<!-- Generated by IcoMoon.io -->
<svg version="1.1" xmlns="http://www.w3.org/2000/svg" width="32" height="32" viewBox="0 0 32 32">
<title>ul-share</title>
<path fill="#91908d" d="M28.943 15.057l-10.667-10.667c-0.241-0.241-0.575-0.391-0.943-0.391-0.736 0-1.333 0.597-1.333 1.333 0 0 0 0 0 0v0 4.727c-7.502 0.715-13.324 6.979-13.333 14.606v2.001c0 0 0 0 0 0 0 0.736 0.597 1.333 1.333 1.333 0.423 0 0.799-0.197 1.043-0.503l0.002-0.003c2.573-3.046 6.28-5.063 10.462-5.396l0.053-0.003c0.066-0.008 0.233-0.021 0.439-0.035v4.606c0 0 0 0 0 0 0 0.736 0.597 1.333 1.333 1.333 0.368 0 0.702-0.149 0.943-0.391l10.667-10.667c0.241-0.241 0.391-0.575 0.391-0.943s-0.149-0.701-0.391-0.943v0zM18.667 23.448v-2.781c0-0 0-0 0-0 0-0.736-0.597-1.333-1.333-1.333-0 0-0 0-0 0h0c-0.34 0-1.728 0.066-2.082 0.113-3.764 0.356-7.14 1.78-9.887 3.96l0.038-0.029c0.68-6.046 5.761-10.703 11.93-10.711h0.001c0 0 0 0 0 0 0.736 0 1.333-0.597 1.333-1.333 0-0 0-0 0-0v0-2.781l7.448 7.448z"></path>
</svg>
