<!-- Generated by IcoMoon.io -->
<svg version="1.1" xmlns="http://www.w3.org/2000/svg" width="32" height="32" viewBox="0 0 32 32">
<title>ul-star-half-alt</title>
<path fill="#91908d" d="M29.333 12.893c-0.173-0.492-0.613-0.846-1.142-0.893l-0.005-0-7.587-1.107-3.4-6.893c-0.221-0.449-0.675-0.752-1.2-0.752s-0.979 0.303-1.197 0.744l-0.003 0.008-3.4 6.88-7.587 1.12c-0.509 0.074-0.92 0.428-1.077 0.897l-0.003 0.009c-0.037 0.117-0.058 0.251-0.058 0.39 0 0.369 0.15 0.702 0.391 0.944l0 0 5.507 5.333-1.333 7.573c-0.019 0.084-0.030 0.18-0.030 0.279 0 0.736 0.597 1.333 1.333 1.333 0.241 0 0.468-0.064 0.663-0.176l-0.007 0.003 6.8-3.56 6.8 3.56c0.175 0.101 0.385 0.16 0.609 0.16 0.001 0 0.003 0 0.004 0h-0c0.001 0 0.003 0 0.005 0 0.294 0 0.565-0.095 0.786-0.256l-0.004 0.003c0.339-0.245 0.557-0.639 0.557-1.084 0-0.088-0.009-0.174-0.025-0.258l0.001 0.008-1.333-7.573 5.507-5.333c0.289-0.246 0.471-0.61 0.471-1.017 0-0.122-0.016-0.24-0.047-0.352l0.002 0.009zM14.667 22.667l-4.307 2.267 0.96-5.6c0.011-0.065 0.018-0.14 0.018-0.217 0-0.375-0.155-0.714-0.404-0.956l-4-4 5.613-0.813c0.447-0.064 0.818-0.342 1.010-0.726l0.004-0.008 1.107-2.307zM21.067 18.16c-0.25 0.243-0.404 0.581-0.404 0.956 0 0.077 0.006 0.152 0.019 0.225l-0.001-0.008 0.96 5.6-4.307-2.267v-12.36l1.173 2.387c0.195 0.391 0.566 0.669 1.006 0.732l0.007 0.001 5.613 0.813z"></path>
</svg>
