<!-- Generated by IcoMoon.io -->
<svg version="1.1" xmlns="http://www.w3.org/2000/svg" width="32" height="32" viewBox="0 0 32 32">
<title>ul-sperms</title>
<path fill="#91908d" d="M14.747 26.8c-0.34-0.159-0.628-0.375-0.865-0.638l-0.002-0.002c-0.419-0.405-0.73-0.919-0.888-1.497l-0.005-0.023c-0.313-1.103-0.923-2.038-1.739-2.741l-0.007-0.006c0.063-0.291 0.1-0.626 0.1-0.969 0-1.334-0.548-2.539-1.432-3.403l-0.001-0.001c-0.806-0.921-1.984-1.5-3.297-1.5-1.079 0-2.067 0.391-2.829 1.038l0.006-0.005c-0.643 0.758-1.034 1.748-1.034 2.829 0 1.315 0.579 2.496 1.496 3.3l0.005 0.004c0.768 0.783 1.783 1.321 2.918 1.49l0.028 0.003h0.48c0.003 0 0.008 0 0.012 0 0.752 0 1.454-0.219 2.044-0.596l-0.015 0.009c0.322 0.336 0.559 0.755 0.676 1.221l0.004 0.019c0.304 1.053 0.859 1.954 1.598 2.665l0.002 0.002c0.451 0.472 0.98 0.864 1.567 1.158l0.033 0.015c0.17 0.084 0.37 0.133 0.581 0.133 0.002 0 0.004 0 0.006 0h-0c0.002 0 0.004 0 0.005 0 0.736 0 1.333-0.597 1.333-1.333 0-0.525-0.303-0.979-0.744-1.197l-0.008-0.003zM8.427 21.773c-0.198 0.168-0.457 0.27-0.739 0.27-0.069 0-0.136-0.006-0.201-0.018l0.007 0.001c-0.557-0.070-1.045-0.322-1.413-0.693l-0-0c-0.76-0.747-0.973-1.853-0.48-2.36 0.191-0.166 0.442-0.267 0.716-0.267 0.011 0 0.021 0 0.032 0l-0.002-0c0.647 0.013 1.23 0.281 1.653 0.707l0 0c0.386 0.364 0.652 0.852 0.732 1.4l0.002 0.013c0.007 0.047 0.011 0.1 0.011 0.155 0 0.307-0.121 0.586-0.318 0.792l0-0zM28.427 13.613c-0.481-0.164-0.889-0.434-1.212-0.785l-0.002-0.002c-0.419-0.405-0.73-0.919-0.888-1.497l-0.005-0.023c-0.313-1.103-0.923-2.038-1.739-2.741l-0.007-0.006c0.056-0.275 0.089-0.592 0.089-0.915 0-1.361-0.571-2.588-1.487-3.456l-0.002-0.002c-0.806-0.921-1.984-1.5-3.297-1.5-1.079 0-2.067 0.391-2.829 1.038l0.006-0.005c-0.643 0.758-1.034 1.748-1.034 2.829 0 1.315 0.579 2.496 1.496 3.3l0.005 0.004c0.785 0.795 1.825 1.336 2.987 1.49l0.026 0.003h0.48c0.003 0 0.008 0 0.012 0 0.752 0 1.454-0.219 2.044-0.596l-0.015 0.009c0.322 0.336 0.559 0.755 0.676 1.221l0.004 0.019c0.309 1.052 0.864 1.951 1.599 2.665l0.001 0.001c0.617 0.634 1.376 1.127 2.226 1.427l0.041 0.013c0.127 0.039 0.273 0.063 0.424 0.067l0.002 0c0.001 0 0.002 0 0.003 0 0.584 0 1.080-0.375 1.26-0.897l0.003-0.009c0.036-0.115 0.057-0.247 0.057-0.385 0-0.59-0.383-1.090-0.914-1.266l-0.009-0.003zM21.76 8.44c-0.198 0.168-0.457 0.27-0.739 0.27-0.069 0-0.136-0.006-0.201-0.018l0.007 0.001c-0.557-0.070-1.045-0.322-1.413-0.693l-0-0c-0.76-0.747-0.973-1.853-0.48-2.36 0.191-0.166 0.442-0.267 0.716-0.267 0.011 0 0.021 0 0.032 0l-0.002-0c0.647 0.013 1.23 0.281 1.653 0.707l0 0c0.386 0.364 0.652 0.852 0.732 1.4l0.002 0.013c0.007 0.047 0.011 0.1 0.011 0.155 0 0.307-0.121 0.586-0.318 0.792l0-0zM28.947 27.267c-0.547-2.122-2.185-3.76-4.265-4.298l-0.041-0.009c-0.729-0.211-1.354-0.59-1.853-1.093l-0-0c-0.505-0.49-0.877-1.113-1.061-1.813l-0.006-0.027c-0.604-2.122-2.254-3.755-4.343-4.323l-0.043-0.010c-0.727-0.189-1.351-0.561-1.839-1.066l-0.001-0.001c-0.508-0.495-0.884-1.122-1.074-1.825l-0.006-0.028c-0.267-0.961-0.727-1.792-1.339-2.487l0.006 0.007c0.168-0.492 0.265-1.059 0.265-1.648 0-0.124-0.004-0.247-0.013-0.369l0.001 0.016c-0.195-1.476-0.872-2.765-1.865-3.732l-0.001-0.001c-0.973-1.007-2.272-1.694-3.727-1.89l-0.033-0.004c-0.137-0.015-0.296-0.023-0.456-0.023-1.271 0-2.421 0.519-3.25 1.356l-0 0c-0.838 0.829-1.356 1.979-1.356 3.25 0 0.161 0.008 0.319 0.024 0.476l-0.002-0.020c0.195 1.476 0.872 2.765 1.865 3.732l0.001 0.001c0.973 1.007 2.272 1.694 3.727 1.89l0.033 0.004h0.573c0.029 0.001 0.063 0.001 0.098 0.001 0.961 0 1.851-0.3 2.584-0.811l-0.015 0.010c0.173 0.272 0.314 0.587 0.407 0.922l0.006 0.025c0.655 2.337 2.461 4.138 4.752 4.775l0.048 0.011c1.193 0.335 2.112 1.258 2.434 2.429l0.006 0.024c0.648 2.343 2.456 4.152 4.752 4.789l0.048 0.011c1.188 0.342 2.097 1.277 2.395 2.456l0.005 0.024c0.061 0.237 0.134 0.442 0.223 0.637l-0.010-0.023c0.225 0.428 0.665 0.716 1.173 0.72h0.001c0.214-0.008 0.414-0.056 0.597-0.137l-0.010 0.004c0.457-0.218 0.766-0.676 0.766-1.207 0-0.206-0.047-0.401-0.13-0.575l0.003 0.008s-0.040-0.133-0.053-0.16zM10.187 10.187c-0.853 0.84-2.56 0.547-3.747-0.627-0.58-0.556-0.98-1.296-1.104-2.126l-0.003-0.020c-0.015-0.091-0.024-0.196-0.024-0.303 0-0.498 0.186-0.953 0.492-1.299l-0.002 0.002c0.328-0.299 0.766-0.482 1.247-0.482 0.030 0 0.061 0.001 0.091 0.002l-0.004-0c0.962 0.046 1.819 0.461 2.439 1.105l0.001 0.001c0.575 0.557 0.97 1.297 1.091 2.127l0.002 0.020c0.014 0.087 0.022 0.188 0.022 0.29 0 0.504-0.19 0.964-0.503 1.311l0.002-0.002z"></path>
</svg>
