<!-- Generated by IcoMoon.io -->
<svg version="1.1" xmlns="http://www.w3.org/2000/svg" width="32" height="32" viewBox="0 0 32 32">
<title>ul-screw</title>
<path fill="#91908d" d="M28.947 13.493l-10.44-10.44c-0.242-0.243-0.576-0.393-0.946-0.393-0.673 0-1.229 0.498-1.32 1.146l-0.001 0.007-0.973 6.853-2.667 2.667-0.44-0.253c-0.17-0.085-0.371-0.134-0.583-0.134-0.736 0-1.333 0.597-1.333 1.333 0 0.384 0.162 0.73 0.422 0.974l0.001 0.001-1.533 1.56-0.44-0.253c-0.163-0.077-0.355-0.122-0.556-0.122-0.736 0-1.333 0.597-1.333 1.333 0 0.378 0.157 0.719 0.409 0.961l0 0-1.56 1.547-0.427-0.28c-0.192-0.113-0.422-0.18-0.668-0.18-0.493 0-0.924 0.268-1.155 0.667l-0.003 0.006c-0.103 0.185-0.164 0.406-0.164 0.641 0 0.419 0.193 0.793 0.495 1.037l0.002 0.002-0.68 0.68c-0.12 0.122-0.215 0.268-0.277 0.431l-0.003 0.009c-0.065 0.149-0.104 0.323-0.107 0.506v4.201c0 0.736 0.597 1.333 1.333 1.333v0h4.173c0.184-0.002 0.357-0.041 0.515-0.11l-0.009 0.003c0.172-0.065 0.318-0.16 0.44-0.28l-0 0 2.267-2.28 0.44 0.253c0.193 0.115 0.426 0.183 0.674 0.183 0.489 0 0.917-0.264 1.149-0.657l0.003-0.006c0.109-0.189 0.174-0.416 0.174-0.658 0-0.417-0.191-0.789-0.491-1.034l-0.002-0.002 1.56-1.547 0.44 0.253c0.188 0.108 0.413 0.173 0.653 0.173h0c0.683-0.063 1.214-0.634 1.214-1.328 0-0.38-0.159-0.722-0.413-0.965l-0.001-0 1.56-1.547 0.44 0.253c0.188 0.108 0.413 0.173 0.653 0.173h0c0.726-0.013 1.31-0.605 1.31-1.333 0-0.412-0.187-0.781-0.481-1.025l-0.002-0.002 1.053-1.053 6.867-0.973c0.509-0.074 0.92-0.428 1.077-0.897l0.003-0.009c0.054-0.139 0.085-0.301 0.085-0.469 0-0.376-0.155-0.715-0.405-0.957l-0-0zM7.627 26.667h-2.293v-2.293l0.76-0.76 2.907 1.72zM10.947 23.333l-2.947-1.667 1.52-1.52 2.893 1.667zM14.427 19.867l-2.907-1.68 1.533-1.52 2.947 1.667zM17.907 16.387l-2.907-1.72 1.52-1.52 2.293 2.293zM21.173 14.067l-3.24-3.24 0.573-4 6.667 6.667z"></path>
</svg>
