<!-- Generated by IcoMoon.io -->
<svg version="1.1" xmlns="http://www.w3.org/2000/svg" width="32" height="32" viewBox="0 0 32 32">
<title>ul-sign-in-alt</title>
<path fill="#91908d" d="M27.333 20.133c-0.173-0.088-0.377-0.139-0.593-0.139-0.52 0-0.97 0.297-1.19 0.732l-0.003 0.008c-1.784 3.544-5.392 5.933-9.559 5.933-5.891 0-10.667-4.776-10.667-10.667s4.776-10.667 10.667-10.667c0.004 0 0.009 0 0.013 0h-0.001c0.014-0 0.030-0 0.046-0 4.151 0 7.743 2.392 9.473 5.872l0.028 0.061c0.225 0.443 0.678 0.742 1.2 0.742 0.741 0 1.342-0.601 1.342-1.342 0-0.219-0.052-0.425-0.145-0.608l0.004 0.008c-2.232-4.421-6.739-7.4-11.94-7.4-7.364 0-13.333 5.97-13.333 13.333s5.97 13.333 13.333 13.333c5.202 0 9.708-2.979 11.905-7.324l0.035-0.076c0.089-0.174 0.142-0.38 0.142-0.599 0-0.526-0.305-0.981-0.747-1.198l-0.008-0.003zM28 14.667h-12.787l3.067-3.053c0.242-0.242 0.392-0.577 0.392-0.947 0-0.739-0.599-1.339-1.339-1.339-0.37 0-0.704 0.15-0.947 0.392l-5.333 5.333c-0.118 0.123-0.213 0.269-0.277 0.431l-0.003 0.009c-0.063 0.15-0.1 0.324-0.1 0.507s0.037 0.357 0.103 0.515l-0.003-0.009c0.067 0.171 0.162 0.317 0.28 0.44l-0-0 5.333 5.333c0.242 0.244 0.577 0.394 0.947 0.394s0.705-0.151 0.947-0.394l0-0c0.244-0.242 0.394-0.577 0.394-0.947s-0.151-0.705-0.394-0.947l-0-0-3.067-3.053h12.787c0.736 0 1.333-0.597 1.333-1.333s-0.597-1.333-1.333-1.333v0z"></path>
</svg>
