<!-- Generated by IcoMoon.io -->
<svg version="1.1" xmlns="http://www.w3.org/2000/svg" width="32" height="32" viewBox="0 0 32 32">
<title>ul-snapchat-ghost</title>
<path fill="#91908d" d="M29.063 22.65c-3.822-0.63-5.535-4.535-5.605-4.701l-0.007-0.016c-0.132-0.212-0.21-0.469-0.21-0.745 0-0.162 0.027-0.317 0.076-0.462l-0.003 0.010c0.257-0.605 1.106-0.874 1.668-1.053 0.14-0.045 0.273-0.087 0.378-0.128 1.017-0.402 1.224-0.818 1.219-1.096-0.056-0.357-0.32-0.64-0.662-0.724l-0.006-0.001-0.008-0.003c-0.139-0.058-0.301-0.091-0.47-0.091-0.002 0-0.003 0-0.005 0h0c-0.005-0-0.011-0-0.017-0-0.145 0-0.282 0.030-0.406 0.085l0.006-0.003c-0.37 0.191-0.803 0.318-1.262 0.354l-0.012 0.001c-0.008 0-0.017 0-0.026 0-0.258 0-0.495-0.089-0.682-0.238l0.002 0.002c0.012-0.227 0.027-0.46 0.042-0.707l0.005-0.087c0.086-0.572 0.135-1.232 0.135-1.903 0-1.236-0.167-2.434-0.478-3.571l0.022 0.095c-1.11-2.486-3.561-4.186-6.408-4.186-0.031 0-0.063 0-0.094 0.001l0.005-0q-0.268 0.003-0.537 0.005c-0.026-0-0.056-0.001-0.086-0.001-2.844 0-5.292 1.7-6.382 4.139l-0.018 0.044c-0.29 1.042-0.457 2.239-0.457 3.475 0 0.67 0.049 1.329 0.144 1.973l-0.009-0.073q0.026 0.398 0.048 0.797c-0.19 0.15-0.433 0.241-0.698 0.241-0.028 0-0.057-0.001-0.085-0.003l0.004 0c-0.497-0.022-0.959-0.151-1.37-0.366l0.018 0.009c-0.091-0.041-0.198-0.065-0.31-0.065-0.006 0-0.012 0-0.018 0l0.001-0c-0.013-0.001-0.028-0.001-0.044-0.001-0.47 0-0.872 0.291-1.034 0.704l-0.003 0.008c-0.109 0.574 0.711 0.99 1.209 1.187 0.105 0.042 0.238 0.084 0.377 0.128 0.562 0.178 1.412 0.448 1.669 1.053 0.046 0.135 0.073 0.29 0.073 0.452 0 0.276-0.078 0.533-0.213 0.751l0.004-0.006-0.007 0.015c-0.394 0.847-0.87 1.577-1.435 2.228l0.010-0.012c-1.029 1.273-2.48 2.17-4.137 2.479l-0.043 0.007c-0.153 0.026-0.268 0.157-0.268 0.315 0 0.006 0 0.013 0.001 0.019l-0-0.001c0.004 0.063 0.019 0.122 0.043 0.176l-0.001-0.003c0.234 0.548 1.411 1.001 3.402 1.308 0.186 0.029 0.265 0.332 0.374 0.83 0.043 0.199 0.088 0.406 0.151 0.619 0.039 0.177 0.195 0.308 0.381 0.308 0.016 0 0.031-0.001 0.046-0.003l-0.002 0c0.207-0.012 0.401-0.041 0.589-0.086l-0.023 0.005c0.447-0.102 0.962-0.163 1.49-0.169l0.004-0c0.381 0.001 0.754 0.034 1.116 0.097l-0.039-0.006c0.789 0.204 1.476 0.566 2.055 1.052l-0.008-0.006c0.964 0.827 2.208 1.351 3.573 1.413l0.013 0c0.045 0 0.090-0.002 0.133-0.005 0.055 0.003 0.127 0.005 0.203 0.005 1.379-0.063 2.624-0.587 3.596-1.421l-0.008 0.007c0.57-0.479 1.256-0.841 2.009-1.037l0.036-0.008c0.323-0.057 0.696-0.090 1.076-0.091h0.001c0.53 0.003 1.046 0.060 1.543 0.167l-0.049-0.009c0.167 0.038 0.362 0.064 0.561 0.071l0.006 0h0.031c0.009 0.001 0.019 0.001 0.030 0.001 0.178 0 0.328-0.126 0.364-0.293l0-0.002c0.062-0.21 0.107-0.411 0.152-0.615 0.108-0.495 0.187-0.797 0.373-0.826 1.992-0.308 3.169-0.76 3.401-1.305 0.023-0.051 0.038-0.111 0.042-0.173l0-0.002c0-0.005 0-0.011 0-0.018 0-0.158-0.115-0.29-0.266-0.315l-0.002-0z"></path>
</svg>
