<!-- Generated by IcoMoon.io -->
<svg version="1.1" xmlns="http://www.w3.org/2000/svg" width="32" height="32" viewBox="0 0 32 32">
<title>ul-tape</title>
<path fill="#91908d" d="M19.333 9.333c-2.946 0-5.333 2.388-5.333 5.333s2.388 5.333 5.333 5.333c2.946 0 5.333-2.388 5.333-5.333v0c0-2.946-2.388-5.333-5.333-5.333v0zM19.333 17.333c-1.473 0-2.667-1.194-2.667-2.667s1.194-2.667 2.667-2.667c1.473 0 2.667 1.194 2.667 2.667v0c0 1.473-1.194 2.667-2.667 2.667v0zM20.667 4h-2.667c-5.155 0-9.333 4.179-9.333 9.333v0 4h-1.333c-0.736 0-1.333 0.597-1.333 1.333s0.597 1.333 1.333 1.333v0h1.333v2.667h-5.333c-0.736 0-1.333 0.597-1.333 1.333v0 2.667c0 0.736 0.597 1.333 1.333 1.333s1.333-0.597 1.333-1.333v0-1.333h16c5.155 0 9.333-4.179 9.333-9.333v0-2.667c0-5.155-4.179-9.333-9.333-9.333v0zM27.333 16c0 3.682-2.985 6.667-6.667 6.667v0h-9.333v-9.333c0-3.682 2.985-6.667 6.667-6.667v0h2.667c3.682 0 6.667 2.985 6.667 6.667v0z"></path>
</svg>
