<!-- Generated by IcoMoon.io -->
<svg version="1.1" xmlns="http://www.w3.org/2000/svg" width="32" height="32" viewBox="0 0 32 32">
<title>ul-taxi</title>
<path fill="#91908d" d="M23.173 19.44c-0.153-0.066-0.331-0.105-0.518-0.105-0.090 0-0.179 0.009-0.264 0.026l0.009-0.001c-0.090 0.016-0.171 0.044-0.245 0.082l0.005-0.002c-0.092 0.032-0.171 0.072-0.243 0.122l0.003-0.002-0.2 0.16c-0.235 0.246-0.381 0.579-0.387 0.946v0.001c0 0.002-0 0.005-0 0.008 0 0.366 0.148 0.698 0.387 0.939l-0-0c0.125 0.118 0.271 0.216 0.43 0.289l0.010 0.004c0.15 0.063 0.324 0.1 0.507 0.1 0.37 0 0.704-0.151 0.946-0.394l0-0c0.114-0.125 0.208-0.271 0.276-0.43l0.004-0.010c0.068-0.14 0.107-0.304 0.107-0.478 0-0.010-0-0.020-0-0.030l0 0.002c-0.005-0.368-0.152-0.701-0.387-0.947l0 0.001c-0.122-0.12-0.268-0.215-0.431-0.277l-0.009-0.003zM26.667 14.24v-4.24c0-2.209-1.791-4-4-4v0h-1.040l-1.027-3.093c-0.183-0.532-0.68-0.907-1.263-0.907-0.001 0-0.002 0-0.004 0h-6.666c-0.001 0-0.002 0-0.003 0-0.584 0-1.080 0.375-1.26 0.897l-0.003 0.009-1.027 3.093h-1.040c-2.209 0-4 1.791-4 4v0 4.24c-1.563 0.564-2.662 2.033-2.667 3.759v8.001c0 0.736 0.597 1.333 1.333 1.333v0h1.333v1.333c0 0.736 0.597 1.333 1.333 1.333s1.333-0.597 1.333-1.333v0-1.333h16v1.333c0 0.736 0.597 1.333 1.333 1.333s1.333-0.597 1.333-1.333v0-1.333h1.333c0.736 0 1.333-0.597 1.333-1.333v0-8c-0.005-1.727-1.103-3.196-2.639-3.751l-0.028-0.009zM13.627 4.667h4.747l0.44 1.333h-5.627zM8 10c0-0.736 0.597-1.333 1.333-1.333v0h13.333c0.736 0 1.333 0.597 1.333 1.333v0 4h-16zM26.667 24.667h-21.333v-6.667c0-0.736 0.597-1.333 1.333-1.333v0h18.667c0.736 0 1.333 0.597 1.333 1.333v0zM8.827 19.44c-0.171 0.067-0.317 0.162-0.44 0.28l0-0c-0.235 0.246-0.381 0.579-0.387 0.946v0.001c0 0.002-0 0.004-0 0.007 0 0.736 0.597 1.333 1.333 1.333 0.183 0 0.357-0.037 0.515-0.103l-0.009 0.003c0.169-0.077 0.315-0.175 0.441-0.294l-0.001 0.001c0.239-0.241 0.387-0.573 0.387-0.939 0-0.003 0-0.005-0-0.008v0c-0.005-0.368-0.152-0.701-0.387-0.947l0.001 0.001c-0.241-0.238-0.571-0.384-0.937-0.384-0.187 0-0.364 0.038-0.526 0.108l0.009-0.003zM17.333 19.333h-2.667c-0.736 0-1.333 0.597-1.333 1.333s0.597 1.333 1.333 1.333v0h2.667c0.736 0 1.333-0.597 1.333-1.333s-0.597-1.333-1.333-1.333v0z"></path>
</svg>
