<!-- Generated by IcoMoon.io -->
<svg version="1.1" xmlns="http://www.w3.org/2000/svg" width="32" height="32" viewBox="0 0 32 32">
<title>ul-tablet</title>
<path fill="#91908d" d="M22.667 2.667h-13.333c-2.209 0-4 1.791-4 4v0 18.667c0 2.209 1.791 4 4 4v0h13.333c2.209 0 4-1.791 4-4v0-18.667c0-2.209-1.791-4-4-4v0zM24 25.333c0 0.736-0.597 1.333-1.333 1.333v0h-13.333c-0.736 0-1.333-0.597-1.333-1.333v0-18.667c0-0.736 0.597-1.333 1.333-1.333v0h13.333c0.736 0 1.333 0.597 1.333 1.333v0zM16.947 21.72c-0.243-0.253-0.584-0.41-0.962-0.41-0.089 0-0.175 0.009-0.259 0.025l0.008-0.001-0.24 0.080c-0.092 0.032-0.171 0.072-0.243 0.122l0.003-0.002-0.2 0.16c-0.118 0.123-0.213 0.269-0.277 0.431l-0.003 0.009c-0.066 0.153-0.104 0.33-0.104 0.517 0 0.365 0.147 0.696 0.384 0.937l-0-0c0.127 0.113 0.272 0.211 0.429 0.288l0.011 0.005c0.15 0.063 0.324 0.1 0.507 0.1 0.37 0 0.704-0.151 0.946-0.394l0-0c0.235-0.236 0.381-0.561 0.387-0.919v-0.001c0-0.009 0-0.019 0-0.029 0-0.174-0.039-0.338-0.11-0.485l0.003 0.007c-0.072-0.169-0.166-0.315-0.281-0.441l0.001 0.001z"></path>
</svg>
