<!-- Generated by IcoMoon.io -->
<svg version="1.1" xmlns="http://www.w3.org/2000/svg" width="32" height="32" viewBox="0 0 32 32">
<title>ul-usd-circle</title>
<path fill="#91908d" d="M14.667 12h5.333c0.736 0 1.333-0.597 1.333-1.333s-0.597-1.333-1.333-1.333v0h-2.667v-1.333c0-0.736-0.597-1.333-1.333-1.333s-1.333 0.597-1.333 1.333v0 1.333c-2.209 0-4 1.791-4 4s1.791 4 4 4v0h2.667c0.736 0 1.333 0.597 1.333 1.333s-0.597 1.333-1.333 1.333v0h-5.333c-0.736 0-1.333 0.597-1.333 1.333s0.597 1.333 1.333 1.333v0h2.667v1.333c0 0.736 0.597 1.333 1.333 1.333s1.333-0.597 1.333-1.333v0-1.333c2.209 0 4-1.791 4-4s-1.791-4-4-4v0h-2.667c-0.736 0-1.333-0.597-1.333-1.333s0.597-1.333 1.333-1.333v0zM16 1.333c-8.1 0-14.667 6.566-14.667 14.667s6.566 14.667 14.667 14.667c8.1 0 14.667-6.566 14.667-14.667v0c0-8.1-6.566-14.667-14.667-14.667v0zM16 28c-6.627 0-12-5.373-12-12s5.373-12 12-12c6.627 0 12 5.373 12 12v0c0 6.627-5.373 12-12 12v0z"></path>
</svg>
