<!-- Generated by IcoMoon.io -->
<svg version="1.1" xmlns="http://www.w3.org/2000/svg" width="32" height="32" viewBox="0 0 32 32">
<title>ul-user-square</title>
<path fill="#91908d" d="M19.747 16.373c0.814-0.872 1.318-2.042 1.333-3.33l0-0.003c0-2.784-2.256-5.040-5.040-5.040s-5.040 2.256-5.040 5.040v0c0.015 1.291 0.519 2.461 1.336 3.336l-0.003-0.003c-2.345 1.187-4 3.442-4.329 6.108l-0.004 0.038c-0.005 0.044-0.008 0.095-0.008 0.147 0 0.741 0.601 1.341 1.341 1.341 0.689 0 1.257-0.52 1.333-1.189l0.001-0.006c0.336-2.652 2.578-4.681 5.293-4.681s4.957 2.030 5.291 4.655l0.003 0.026c0.075 0.672 0.64 1.19 1.326 1.19 0.031 0 0.062-0.001 0.092-0.003l-0.004 0h0.147c0.668-0.079 1.181-0.642 1.181-1.325 0-0.050-0.003-0.099-0.008-0.148l0.001 0.006c-0.309-2.693-1.929-4.95-4.197-6.139l-0.043-0.021zM16 15.413c-1.311 0-2.373-1.063-2.373-2.373s1.063-2.373 2.373-2.373c1.311 0 2.373 1.063 2.373 2.373v0c0 1.311-1.063 2.373-2.373 2.373v0zM25.333 2.667h-18.667c-2.209 0-4 1.791-4 4v0 18.667c0 2.209 1.791 4 4 4v0h18.667c2.209 0 4-1.791 4-4v0-18.667c0-2.209-1.791-4-4-4v0zM26.667 25.333c0 0.736-0.597 1.333-1.333 1.333v0h-18.667c-0.736 0-1.333-0.597-1.333-1.333v0-18.667c0-0.736 0.597-1.333 1.333-1.333v0h18.667c0.736 0 1.333 0.597 1.333 1.333v0z"></path>
</svg>
