<!-- Generated by IcoMoon.io -->
<svg version="1.1" xmlns="http://www.w3.org/2000/svg" width="32" height="32" viewBox="0 0 32 32">
<title>ul-vector-square-alt</title>
<path fill="#91908d" d="M21.333 9.333h-10.667c-0.736 0-1.333 0.597-1.333 1.333v0 10.667c0 0.736 0.597 1.333 1.333 1.333v0h10.667c0.736 0 1.333-0.597 1.333-1.333v0-10.667c0-0.736-0.597-1.333-1.333-1.333v0zM20 20h-8v-8h8zM28 24.373v-16.747c0.823-0.465 1.37-1.334 1.37-2.33 0-1.473-1.194-2.667-2.667-2.667-0.997 0-1.866 0.547-2.323 1.357l-0.007 0.013h-16.747c-0.465-0.823-1.334-1.37-2.33-1.37-1.473 0-2.667 1.194-2.667 2.667 0 0.997 0.547 1.866 1.357 2.324l0.013 0.007v16.747c-0.823 0.465-1.37 1.334-1.37 2.33 0 1.473 1.194 2.667 2.667 2.667 0.997 0 1.866-0.547 2.324-1.357l0.007-0.013h16.747c0.465 0.823 1.334 1.37 2.33 1.37 1.473 0 2.667-1.194 2.667-2.667 0-0.997-0.547-1.866-1.357-2.323l-0.013-0.007zM25.333 24.373c-0.403 0.231-0.729 0.557-0.953 0.948l-0.007 0.012h-16.747c-0.231-0.403-0.557-0.729-0.948-0.953l-0.012-0.007v-16.747c0.403-0.231 0.729-0.557 0.953-0.948l0.007-0.012h16.747c0.231 0.403 0.557 0.729 0.948 0.953l0.012 0.007z"></path>
</svg>
