<!-- Generated by IcoMoon.io -->
<svg version="1.1" xmlns="http://www.w3.org/2000/svg" width="32" height="32" viewBox="0 0 32 32">
<title>ul-venus</title>
<path fill="#91908d" d="M25.333 12c0-0.003 0-0.007 0-0.011 0-5.155-4.179-9.333-9.333-9.333s-9.333 4.179-9.333 9.333c0 4.684 3.451 8.563 7.949 9.231l0.051 0.006v2.773h-1.333c-0.736 0-1.333 0.597-1.333 1.333s0.597 1.333 1.333 1.333v0h1.333v1.333c0 0.736 0.597 1.333 1.333 1.333s1.333-0.597 1.333-1.333v0-1.333h1.333c0.736 0 1.333-0.597 1.333-1.333s-0.597-1.333-1.333-1.333v0h-1.333v-2.773c4.546-0.675 7.994-4.547 8-9.226v-0.001zM16 18.667c-3.682 0-6.667-2.985-6.667-6.667s2.985-6.667 6.667-6.667c3.682 0 6.667 2.985 6.667 6.667v0c0 3.682-2.985 6.667-6.667 6.667v0z"></path>
</svg>
