<!-- Generated by IcoMoon.io -->
<svg version="1.1" xmlns="http://www.w3.org/2000/svg" width="32" height="32" viewBox="0 0 32 32">
<title>ul-wallet</title>
<path fill="#91908d" d="M25.333 9.333h-1.333v-1.333c0-2.209-1.791-4-4-4v0h-13.333c-2.209 0-4 1.791-4 4v0 0 16c0 2.209 1.791 4 4 4v0h18.667c2.209 0 4-1.791 4-4v0-10.667c0-2.209-1.791-4-4-4v0zM6.667 6.667h13.333c0.736 0 1.333 0.597 1.333 1.333v0 1.333h-14.667c-0.736 0-1.333-0.597-1.333-1.333s0.597-1.333 1.333-1.333v0zM26.667 20h-1.333c-0.736 0-1.333-0.597-1.333-1.333s0.597-1.333 1.333-1.333v0h1.333zM26.667 14.667h-1.333c-2.209 0-4 1.791-4 4s1.791 4 4 4v0h1.333v1.333c0 0.736-0.597 1.333-1.333 1.333v0h-18.667c-0.736 0-1.333-0.597-1.333-1.333v0-12.227c0.395 0.144 0.852 0.227 1.327 0.227 0.002 0 0.004 0 0.006 0h18.666c0.736 0 1.333 0.597 1.333 1.333v0z"></path>
</svg>
