<!-- Generated by IcoMoon.io -->
<svg version="1.1" xmlns="http://www.w3.org/2000/svg" width="32" height="32" viewBox="0 0 32 32">
<title>ul-water-glass</title>
<path fill="#91908d" d="M24.107 9.333c-0.033-0.003-0.072-0.005-0.111-0.005-0.7 0-1.275 0.54-1.329 1.227l-0 0.005-0.467 6.067c-0.637-0.201-1.178-0.557-1.597-1.023l-0.003-0.003c-0.245-0.277-0.602-0.451-1-0.451s-0.755 0.174-0.999 0.45l-0.001 0.001c-0.648 0.702-1.573 1.141-2.6 1.141s-1.952-0.438-2.598-1.138l-0.002-0.002c-0.245-0.277-0.602-0.451-1-0.451s-0.755 0.174-0.999 0.45l-0.001 0.001c-0.423 0.469-0.963 0.824-1.575 1.020l-0.025 0.007-0.467-6.067c-0.055-0.691-0.629-1.231-1.329-1.231-0.039 0-0.077 0.002-0.116 0.005l0.005-0c-0.691 0.055-1.231 0.629-1.231 1.329 0 0.039 0.002 0.077 0.005 0.116l-0-0.005 1.147 14.867c0.164 2.073 1.887 3.693 3.988 3.693 0.004 0 0.008 0 0.012-0h8.399c0.003 0 0.008 0 0.012 0 2.101 0 3.824-1.62 3.987-3.679l0.001-0.014 1.12-14.867c0.003-0.033 0.005-0.072 0.005-0.111 0-0.7-0.54-1.275-1.227-1.329l-0.005-0zM21.52 25.44c-0.057 0.689-0.63 1.227-1.329 1.227-0.002 0-0.003 0-0.005 0h-8.386c-0.001 0-0.003 0-0.004 0-0.699 0-1.272-0.538-1.329-1.222l-0-0.005-0.467-6.107c0.914-0.195 1.72-0.561 2.419-1.066l-0.019 0.013c1 0.719 2.25 1.149 3.6 1.149s2.6-0.431 3.619-1.162l-0.019 0.013c0.68 0.492 1.486 0.858 2.358 1.046l0.042 0.008zM16 13.333c2.39-0.008 4.326-1.943 4.333-4.333v-0.001c0-3.667-3.44-6.013-3.587-6.107-0.209-0.143-0.468-0.229-0.747-0.229s-0.537 0.085-0.751 0.232l0.005-0.003c-0.147 0.107-3.587 2.44-3.587 6.107 0.008 2.39 1.943 4.326 4.333 4.333h0.001zM16 5.733c0.936 0.805 1.557 1.954 1.666 3.249l0.001 0.018c0 0.92-0.746 1.667-1.667 1.667s-1.667-0.746-1.667-1.667v0c0.117-1.311 0.736-2.457 1.661-3.262l0.006-0.005z"></path>
</svg>
