<!-- Generated by IcoMoon.io -->
<svg version="1.1" xmlns="http://www.w3.org/2000/svg" width="32" height="32" viewBox="0 0 32 32">
<title>ul-weight</title>
<path fill="#91908d" d="M25.333 5.333h-1.933c-0.171-0.512-0.42-0.956-0.739-1.34l0.006 0.007c-0.736-0.82-1.799-1.333-2.981-1.333-0.007 0-0.013 0-0.020 0h-7.306c-0.013-0-0.029-0-0.045-0-1.183 0-2.246 0.514-2.978 1.33l-0.003 0.004c-0.323 0.377-0.581 0.82-0.751 1.305l-0.009 0.029h-1.907c-2.209 0-4 1.791-4 4v0 16c0 2.209 1.791 4 4 4v0h18.667c2.209 0 4-1.791 4-4v0-16c0-2.209-1.791-4-4-4v0zM11.36 5.787c0.245-0.278 0.602-0.453 1-0.453h7.28c0.398 0.001 0.755 0.175 0.999 0.452l0.001 0.001c0.212 0.235 0.342 0.548 0.342 0.891 0 0.052-0.003 0.104-0.009 0.155l0.001-0.006-0.667 5.333c-0.083 0.664-0.644 1.173-1.324 1.173-0.003 0-0.007 0-0.010-0h-2.186l1.52-3.2c0.058-0.144 0.092-0.312 0.092-0.487 0-0.736-0.597-1.333-1.333-1.333-0.494 0-0.925 0.269-1.156 0.668l-0.003 0.006-2.080 4.347h-0.8c-0.003 0-0.006 0-0.010 0-0.68 0-1.241-0.509-1.323-1.167l-0.001-0.007-0.667-5.333c-0.005-0.045-0.008-0.096-0.008-0.149 0-0.343 0.13-0.656 0.343-0.892l-0.001 0.001zM26.667 25.333c0 0.736-0.597 1.333-1.333 1.333v0h-18.667c-0.736 0-1.333-0.597-1.333-1.333v0-16c0-0.736 0.597-1.333 1.333-1.333v0h1.827l0.56 4.493c0.254 1.987 1.934 3.507 3.969 3.507 0.011 0 0.021-0 0.032-0h5.945c0.009 0 0.020 0 0.031 0 2.035 0 3.716-1.52 3.967-3.487l0.002-0.020 0.507-4.493h1.827c0.736 0 1.333 0.597 1.333 1.333v0zM18.667 21.333h-5.333c-0.736 0-1.333 0.597-1.333 1.333s0.597 1.333 1.333 1.333v0h5.333c0.736 0 1.333-0.597 1.333-1.333s-0.597-1.333-1.333-1.333v0z"></path>
</svg>
