<!-- Generated by IcoMoon.io -->
<svg version="1.1" xmlns="http://www.w3.org/2000/svg" width="280" height="280" viewBox="0 0 280 280">
<title>mi-arrow-up</title>
<path fill="#37352f" d="M198.333 116.667c-3.5 0-5.833-1.167-8.167-3.5l-58.333-58.333c-4.667-4.667-4.667-11.667 0-16.333s11.667-4.667 16.333 0l58.333 58.333c4.667 4.667 4.667 11.667 0 16.333-2.333 2.333-4.667 3.5-8.167 3.5z"></path>
<path fill="#37352f" d="M81.667 116.667c-3.5 0-5.833-1.167-8.167-3.5-4.667-4.667-4.667-11.667 0-16.333l58.333-58.333c4.667-4.667 11.667-4.667 16.333 0s4.667 11.667 0 16.333l-58.333 58.333c-2.333 2.333-4.667 3.5-8.167 3.5z"></path>
<path fill="#37352f" d="M140 245c-7 0-11.667-4.667-11.667-11.667v-186.667c0-7 4.667-11.667 11.667-11.667s11.667 4.667 11.667 11.667v186.667c0 7-4.667 11.667-11.667 11.667z"></path>
</svg>
