<!-- Generated by IcoMoon.io -->
<svg version="1.1" xmlns="http://www.w3.org/2000/svg" width="280" height="280" viewBox="0 0 280 280">
<title>mi-bluetooth</title>
<path fill="#37352f" d="M140 151.667c-1.167 0-3.5 0-4.667-1.167-4.667-1.167-7-5.833-7-10.5v-116.667c0-4.667 2.333-9.333 7-10.5 4.667-2.333 9.333-1.167 12.833 2.333l58.333 58.333c4.667 4.667 4.667 11.667 0 16.333l-58.333 58.333c-2.333 2.333-4.667 3.5-8.167 3.5zM151.667 51.333v60.667l30.333-30.333-30.333-30.333z"></path>
<path fill="#37352f" d="M140 268.333c-1.167 0-3.5 0-4.667-1.167-4.667-1.167-7-5.833-7-10.5v-116.667c0-4.667 2.333-9.333 7-10.5 4.667-2.333 9.333-1.167 12.833 2.333l58.333 58.333c4.667 4.667 4.667 11.667 0 16.333l-58.333 58.333c-2.333 2.333-4.667 3.5-8.167 3.5zM151.667 168v60.667l30.333-30.333-30.333-30.333z"></path>
<path fill="#37352f" d="M140 151.667c-3.5 0-5.833-1.167-8.167-3.5l-58.333-58.333c-4.667-4.667-4.667-11.667 0-16.333s11.667-4.667 16.333 0l58.333 58.333c4.667 4.667 4.667 11.667 0 16.333-2.333 2.333-4.667 3.5-8.167 3.5z"></path>
<path fill="#37352f" d="M81.667 210c-3.5 0-5.833-1.167-8.167-3.5-4.667-4.667-4.667-11.667 0-16.333l58.333-58.333c4.667-4.667 11.667-4.667 16.333 0s4.667 11.667 0 16.333l-58.333 58.333c-2.333 2.333-4.667 3.5-8.167 3.5z"></path>
</svg>
