<!-- Generated by IcoMoon.io -->
<svg version="1.1" xmlns="http://www.w3.org/2000/svg" width="280" height="280" viewBox="0 0 280 280">
<title>mi-book</title>
<path fill="#37352f" d="M140 280c-2.333 0-4.667-1.167-5.833-2.333-1.167 0-35-21-122.5-21-7 0-11.667-4.667-11.667-11.667v-233.333c0-7 4.667-11.667 11.667-11.667 74.667 0 114.333 15.167 128.333 22.167 14-7 53.667-22.167 128.333-22.167 7 0 11.667 4.667 11.667 11.667v233.333c0 7-4.667 11.667-11.667 11.667-87.5 0-121.333 21-122.5 21-1.167 1.167-3.5 2.333-5.833 2.333zM23.333 233.333c67.667 1.167 102.667 15.167 116.667 22.167 14-7 49-19.833 116.667-22.167v-210c-79.333 2.333-109.667 21-110.833 21-3.5 2.333-9.333 2.333-12.833 0 0 0-31.5-19.833-109.667-21v210z"></path>
<path fill="#37352f" d="M140 280c-7 0-11.667-4.667-11.667-11.667v-233.333c0-7 4.667-11.667 11.667-11.667s11.667 4.667 11.667 11.667v233.333c0 7-4.667 11.667-11.667 11.667z"></path>
<path fill="#37352f" d="M11.667 256.667c-7 0-11.667-4.667-11.667-11.667v-186.667c0-7 4.667-11.667 11.667-11.667s11.667 4.667 11.667 11.667v186.667c0 7-4.667 11.667-11.667 11.667z"></path>
<path fill="#37352f" d="M140 280c-7 0-11.667-4.667-11.667-11.667v-186.667c0-7 4.667-11.667 11.667-11.667s11.667 4.667 11.667 11.667v186.667c0 7-4.667 11.667-11.667 11.667z"></path>
<path fill="#37352f" d="M11.667 256.667c-7 0-11.667-4.667-11.667-11.667v-151.667c0-7 4.667-11.667 11.667-11.667s11.667 4.667 11.667 11.667v151.667c0 7-4.667 11.667-11.667 11.667z"></path>
<path fill="#37352f" d="M140 280c-7 0-11.667-4.667-11.667-11.667v-151.667c0-7 4.667-11.667 11.667-11.667s11.667 4.667 11.667 11.667v151.667c0 7-4.667 11.667-11.667 11.667z"></path>
<path fill="#37352f" d="M11.667 256.667c-7 0-11.667-4.667-11.667-11.667v-116.667c0-7 4.667-11.667 11.667-11.667s11.667 4.667 11.667 11.667v116.667c0 7-4.667 11.667-11.667 11.667z"></path>
<path fill="#37352f" d="M140 280c-7 0-11.667-4.667-11.667-11.667v-116.667c0-7 4.667-11.667 11.667-11.667s11.667 4.667 11.667 11.667v116.667c0 7-4.667 11.667-11.667 11.667z"></path>
<path fill="#37352f" d="M11.667 256.667c-7 0-11.667-4.667-11.667-11.667v-81.667c0-7 4.667-11.667 11.667-11.667s11.667 4.667 11.667 11.667v81.667c0 7-4.667 11.667-11.667 11.667z"></path>
<path fill="#37352f" d="M140 280c-7 0-11.667-4.667-11.667-11.667v-81.667c0-7 4.667-11.667 11.667-11.667s11.667 4.667 11.667 11.667v81.667c0 7-4.667 11.667-11.667 11.667z"></path>
<path fill="#37352f" d="M11.667 256.667c-7 0-11.667-4.667-11.667-11.667v-46.667c0-7 4.667-11.667 11.667-11.667s11.667 4.667 11.667 11.667v46.667c0 7-4.667 11.667-11.667 11.667z"></path>
<path fill="#37352f" d="M140 280c-7 0-11.667-4.667-11.667-11.667v-46.667c0-7 4.667-11.667 11.667-11.667s11.667 4.667 11.667 11.667v46.667c0 7-4.667 11.667-11.667 11.667z"></path>
</svg>
