<!-- Generated by IcoMoon.io -->
<svg version="1.1" xmlns="http://www.w3.org/2000/svg" width="280" height="280" viewBox="0 0 280 280">
<title>mi-bell</title>
<path fill="#37352f" d="M210 128.333c-7 0-11.667-4.667-11.667-11.667 0-32.667-25.667-58.333-58.333-58.333s-58.333 25.667-58.333 58.333c0 7-4.667 11.667-11.667 11.667s-11.667-4.667-11.667-11.667c0-45.5 36.167-81.667 81.667-81.667s81.667 36.167 81.667 81.667c0 7-4.667 11.667-11.667 11.667z"></path>
<path fill="#37352f" d="M245 233.333c-25.667 0-46.667-30.333-46.667-70 0-7 4.667-11.667 11.667-11.667s11.667 4.667 11.667 11.667c0 26.833 12.833 46.667 23.333 46.667 7 0 11.667 4.667 11.667 11.667s-4.667 11.667-11.667 11.667z"></path>
<path fill="#37352f" d="M35 233.333c-7 0-11.667-4.667-11.667-11.667s4.667-11.667 11.667-11.667c10.5 0 23.333-19.833 23.333-46.667 0-7 4.667-11.667 11.667-11.667s11.667 4.667 11.667 11.667c0 39.667-21 70-46.667 70z"></path>
<path fill="#37352f" d="M245 233.333h-210c-7 0-11.667-4.667-11.667-11.667s4.667-11.667 11.667-11.667h210c7 0 11.667 4.667 11.667 11.667s-4.667 11.667-11.667 11.667z"></path>
<path fill="#37352f" d="M70 175c-7 0-11.667-4.667-11.667-11.667v-46.667c0-7 4.667-11.667 11.667-11.667s11.667 4.667 11.667 11.667v46.667c0 7-4.667 11.667-11.667 11.667z"></path>
<path fill="#37352f" d="M210 175c-7 0-11.667-4.667-11.667-11.667v-46.667c0-7 4.667-11.667 11.667-11.667s11.667 4.667 11.667 11.667v46.667c0 7-4.667 11.667-11.667 11.667z"></path>
<path fill="#37352f" d="M140 280c-25.667 0-46.667-21-46.667-46.667 0-5.833 1.167-10.5 2.333-16.333 2.333-5.833 9.333-9.333 15.167-7s9.333 9.333 7 15.167c-1.167 3.5-1.167 5.833-1.167 8.167 0 12.833 10.5 23.333 23.333 23.333s23.333-10.5 23.333-23.333c0-2.333 0-4.667-1.167-7-2.333-5.833 1.167-12.833 7-15.167s12.833 1.167 15.167 7c2.333 4.667 2.333 10.5 2.333 16.333 0 24.5-21 45.5-46.667 45.5z"></path>
<path fill="#37352f" d="M140 58.333c-7 0-11.667-4.667-11.667-11.667v-35c0-7 4.667-11.667 11.667-11.667s11.667 4.667 11.667 11.667v35c0 7-4.667 11.667-11.667 11.667z"></path>
</svg>
