<!-- Generated by IcoMoon.io -->
<svg version="1.1" xmlns="http://www.w3.org/2000/svg" width="280" height="280" viewBox="0 0 280 280">
<title>mi-battery-high</title>
<path fill="#37352f" d="M175 58.333h-70c-7 0-11.667-4.667-11.667-11.667v-35c0-7 4.667-11.667 11.667-11.667h70c7 0 11.667 4.667 11.667 11.667v35c0 7-4.667 11.667-11.667 11.667zM116.667 35h46.667v-11.667h-46.667v11.667z"></path>
<path fill="#37352f" d="M210 280h-140c-7 0-11.667-4.667-11.667-11.667v-221.667c0-7 4.667-11.667 11.667-11.667h140c7 0 11.667 4.667 11.667 11.667v221.667c0 7-4.667 11.667-11.667 11.667zM81.667 256.667h116.667v-198.333h-116.667v198.333z"></path>
<path fill="#37352f" d="M70 128.333c-5.833 0-10.5-3.5-11.667-9.333-1.167-7 3.5-12.833 9.333-14l140-23.333c5.833-1.167 12.833 3.5 14 9.333s-3.5 12.833-9.333 14l-140 23.333c-1.167 0-1.167 0-2.333 0z"></path>
</svg>
