<!-- Generated by IcoMoon.io -->
<svg version="1.1" xmlns="http://www.w3.org/2000/svg" width="280" height="280" viewBox="0 0 280 280">
<title>mi-bin</title>
<path fill="#37352f" d="M105 35h-23.333c0-19.833 15.167-35 35-35v23.333c-7 0-11.667 4.667-11.667 11.667z"></path>
<path fill="#37352f" d="M198.333 35h-23.333c0-7-4.667-11.667-11.667-11.667v-23.333c19.833 0 35 15.167 35 35z"></path>
<path fill="#37352f" d="M198.333 70h-116.667v-35h23.333v11.667h70v-11.667h23.333z"></path>
<path fill="#37352f" d="M116.667 0h46.667v23.333h-46.667v-23.333z"></path>
<path fill="#37352f" d="M245 70h-210c-7 0-11.667-4.667-11.667-11.667s4.667-11.667 11.667-11.667h210c7 0 11.667 4.667 11.667 11.667s-4.667 11.667-11.667 11.667z"></path>
<path fill="#37352f" d="M221.667 280h-163.333c-7 0-11.667-4.667-11.667-11.667v-163.333c0-7 4.667-11.667 11.667-11.667h163.333c7 0 11.667 4.667 11.667 11.667v163.333c0 7-4.667 11.667-11.667 11.667zM70 256.667h140v-140h-140v140z"></path>
<path fill="#37352f" d="M116.667 233.333c-7 0-11.667-4.667-11.667-11.667v-70c0-7 4.667-11.667 11.667-11.667s11.667 4.667 11.667 11.667v70c0 7-4.667 11.667-11.667 11.667z"></path>
<path fill="#37352f" d="M163.333 233.333c-7 0-11.667-4.667-11.667-11.667v-70c0-7 4.667-11.667 11.667-11.667s11.667 4.667 11.667 11.667v70c0 7-4.667 11.667-11.667 11.667z"></path>
</svg>
