<!-- Generated by IcoMoon.io -->
<svg version="1.1" xmlns="http://www.w3.org/2000/svg" width="280" height="280" viewBox="0 0 280 280">
<title>mi-chat</title>
<path fill="#37352f" d="M124.833 233.333c-5.833 0-11.667-4.667-11.667-10.5 0-7 4.667-11.667 10.5-12.833 49-3.5 86.333-44.333 86.333-93.333 0-51.333-42-93.333-93.333-93.333s-93.333 42-93.333 93.333c0 36.167 21 68.833 53.667 84 5.833 2.333 8.167 9.333 5.833 15.167s-9.333 8.167-15.167 5.833c-40.833-18.667-67.667-59.5-67.667-105 0-64.167 52.5-116.667 116.667-116.667s116.667 52.5 116.667 116.667c0 60.667-47.833 112-108.5 116.667 0 0 0 0 0 0z"></path>
<path fill="#37352f" d="M58.333 280c-4.667 0-9.333-3.5-10.5-8.167s0-10.5 4.667-12.833c2.333-2.333 25.667-21 11.667-40.833-3.5-4.667-2.333-12.833 2.333-16.333 3.5-3.5 10.5-2.333 15.167 2.333 11.667 16.333 11.667 32.667 5.833 46.667 11.667-5.833 21-17.5 25.667-32.667 2.333-5.833 8.167-9.333 15.167-8.167 5.833 2.333 9.333 8.167 8.167 14-7 21-25.667 56-78.167 56z"></path>
<path fill="#37352f" d="M198.333 248.5c-1.167 0-1.167 0 0 0-23.333-1.167-42-10.5-54.833-25.667-4.667-4.667-3.5-12.833 1.167-16.333 4.667-4.667 12.833-3.5 16.333 1.167 9.333 10.5 21 16.333 37.333 17.5 7 0 11.667 5.833 10.5 12.833 0 5.833-4.667 10.5-10.5 10.5z"></path>
<path fill="#37352f" d="M232.167 245c-4.667 0-8.167-2.333-10.5-7-2.333-5.833 0-12.833 5.833-15.167 18.667-8.167 30.333-26.833 30.333-47.833 0-23.333-15.167-44.333-38.5-50.167-5.833-2.333-9.333-8.167-8.167-14s8.167-9.333 14-8.167c32.667 9.333 54.833 39.667 54.833 73.5 0 29.167-17.5 56-43.167 68.833-2.333 0-3.5 0-4.667 0z"></path>
<path fill="#37352f" d="M240.333 280c-25.667 0-44.333-14-51.333-37.333-2.333-5.833 1.167-12.833 8.167-14 5.833-2.333 12.833 1.167 15.167 8.167 1.167 3.5 2.333 7 4.667 10.5 0-5.833 2.333-12.833 7-19.833 3.5-4.667 11.667-5.833 16.333-2.333s5.833 11.667 2.333 16.333c-7 9.333 4.667 17.5 5.833 18.667 3.5 3.5 5.833 8.167 4.667 12.833-3.5 3.5-8.167 7-12.833 7z"></path>
<path fill="#37352f" d="M163.333 105h-93.333c-7 0-11.667-4.667-11.667-11.667s4.667-11.667 11.667-11.667h93.333c7 0 11.667 4.667 11.667 11.667s-4.667 11.667-11.667 11.667z"></path>
<path fill="#37352f" d="M140 151.667h-70c-7 0-11.667-4.667-11.667-11.667s4.667-11.667 11.667-11.667h70c7 0 11.667 4.667 11.667 11.667s-4.667 11.667-11.667 11.667z"></path>
</svg>
