<!-- Generated by IcoMoon.io -->
<svg version="1.1" xmlns="http://www.w3.org/2000/svg" width="280" height="280" viewBox="0 0 280 280">
<title>mi-circle-top-right</title>
<path fill="#37352f" d="M151.667 280c-37.333 0-72.333-14-99.167-40.833-54.833-54.833-54.833-143.5 0-198.333 26.833-26.833 61.833-40.833 99.167-40.833s72.333 14 99.167 40.833c54.833 54.833 54.833 143.5 0 198.333-26.833 26.833-61.833 40.833-99.167 40.833zM151.667 23.333c-31.5 0-60.667 11.667-82.833 33.833-45.5 45.5-45.5 120.167 0 165.667 22.167 22.167 51.333 33.833 82.833 33.833s60.667-11.667 82.833-33.833c45.5-45.5 45.5-119 0-164.5-22.167-23.333-51.333-35-82.833-35z"></path>
<path fill="#37352f" d="M186.667 116.667h-46.667c-7 0-11.667-4.667-11.667-11.667s4.667-11.667 11.667-11.667h46.667c7 0 11.667 4.667 11.667 11.667s-4.667 11.667-11.667 11.667z"></path>
<path fill="#37352f" d="M186.667 163.333c-7 0-11.667-4.667-11.667-11.667v-46.667c0-7 4.667-11.667 11.667-11.667s11.667 4.667 11.667 11.667v46.667c0 7-4.667 11.667-11.667 11.667z"></path>
<path fill="#37352f" d="M119 184.333c-3.5 0-5.833-1.167-8.167-3.5-4.667-4.667-4.667-11.667 0-16.333l66.5-66.5c4.667-4.667 11.667-4.667 16.333 0s4.667 11.667 0 16.333l-66.5 66.5c-2.333 2.333-5.833 3.5-8.167 3.5z"></path>
</svg>
