<!-- Generated by IcoMoon.io -->
<svg version="1.1" xmlns="http://www.w3.org/2000/svg" width="280" height="280" viewBox="0 0 280 280">
<title>mi-frame</title>
<path fill="#37352f" d="M46.667 256.667c-7 0-11.667-4.667-11.667-11.667v-210c0-7 4.667-11.667 11.667-11.667s11.667 4.667 11.667 11.667v210c0 7-4.667 11.667-11.667 11.667z"></path>
<path fill="#37352f" d="M233.333 256.667c-7 0-11.667-4.667-11.667-11.667v-210c0-7 4.667-11.667 11.667-11.667s11.667 4.667 11.667 11.667v210c0 7-4.667 11.667-11.667 11.667z"></path>
<path fill="#37352f" d="M268.333 81.667h-256.667c-7 0-11.667-4.667-11.667-11.667s4.667-11.667 11.667-11.667h256.667c7 0 11.667 4.667 11.667 11.667s-4.667 11.667-11.667 11.667z"></path>
<path fill="#37352f" d="M268.333 221.667h-256.667c-7 0-11.667-4.667-11.667-11.667s4.667-11.667 11.667-11.667h256.667c7 0 11.667 4.667 11.667 11.667s-4.667 11.667-11.667 11.667z"></path>
</svg>
