<!-- Generated by IcoMoon.io -->
<svg version="1.1" xmlns="http://www.w3.org/2000/svg" width="280" height="280" viewBox="0 0 280 280">
<title>mi-gift</title>
<path fill="#37352f" d="M256.667 280h-233.333c-7 0-11.667-4.667-11.667-11.667v-140c0-7 4.667-11.667 11.667-11.667h233.333c7 0 11.667 4.667 11.667 11.667v140c0 7-4.667 11.667-11.667 11.667zM35 256.667h210v-116.667h-210v116.667z"></path>
<path fill="#37352f" d="M268.333 140h-256.667c-7 0-11.667-4.667-11.667-11.667v-46.667c0-7 4.667-11.667 11.667-11.667h256.667c7 0 11.667 4.667 11.667 11.667v46.667c0 7-4.667 11.667-11.667 11.667zM23.333 116.667h233.333v-23.333h-233.333v23.333z"></path>
<path fill="#37352f" d="M140 280c-7 0-11.667-4.667-11.667-11.667v-186.667c0-7 4.667-11.667 11.667-11.667s11.667 4.667 11.667 11.667v186.667c0 7-4.667 11.667-11.667 11.667z"></path>
<path fill="#37352f" d="M175 93.333c-7 0-11.667-4.667-11.667-11.667s4.667-11.667 11.667-11.667c12.833 0 23.333-10.5 23.333-23.333s-10.5-23.333-23.333-23.333-23.333 10.5-23.333 23.333c0 7-4.667 11.667-11.667 11.667s-11.667-4.667-11.667-11.667c0-25.667 21-46.667 46.667-46.667s46.667 21 46.667 46.667-21 46.667-46.667 46.667z"></path>
<path fill="#37352f" d="M105 93.333c-25.667 0-46.667-21-46.667-46.667s21-46.667 46.667-46.667 46.667 21 46.667 46.667c0 7-4.667 11.667-11.667 11.667s-11.667-4.667-11.667-11.667c0-12.833-10.5-23.333-23.333-23.333s-23.333 10.5-23.333 23.333 10.5 23.333 23.333 23.333c7 0 11.667 4.667 11.667 11.667s-4.667 11.667-11.667 11.667z"></path>
<path fill="#37352f" d="M140 116.667c-7 0-11.667-4.667-11.667-11.667v-58.333c0-7 4.667-11.667 11.667-11.667s11.667 4.667 11.667 11.667v58.333c0 7-4.667 11.667-11.667 11.667z"></path>
</svg>
