<!-- Generated by IcoMoon.io -->
<svg version="1.1" xmlns="http://www.w3.org/2000/svg" width="280" height="280" viewBox="0 0 280 280">
<title>mi-menu-lines</title>
<path fill="#37352f" d="M233.333 58.333h-186.667c-7 0-11.667-4.667-11.667-11.667s4.667-11.667 11.667-11.667h186.667c7 0 11.667 4.667 11.667 11.667s-4.667 11.667-11.667 11.667z"></path>
<path fill="#37352f" d="M233.333 245h-186.667c-7 0-11.667-4.667-11.667-11.667s4.667-11.667 11.667-11.667h186.667c7 0 11.667 4.667 11.667 11.667s-4.667 11.667-11.667 11.667z"></path>
<path fill="#37352f" d="M233.333 151.667h-186.667c-7 0-11.667-4.667-11.667-11.667s4.667-11.667 11.667-11.667h186.667c7 0 11.667 4.667 11.667 11.667s-4.667 11.667-11.667 11.667z"></path>
</svg>
