<!-- Generated by IcoMoon.io -->
<svg version="1.1" xmlns="http://www.w3.org/2000/svg" width="280" height="280" viewBox="0 0 280 280">
<title>mi-megaphone</title>
<path fill="#37352f" d="M128.333 186.667h-70c-31.5 0-58.333-25.667-58.333-58.333s25.667-58.333 58.333-58.333h70c7 0 11.667 4.667 11.667 11.667v93.333c0 7-4.667 11.667-11.667 11.667zM58.333 93.333c-18.667 0-35 15.167-35 35s15.167 35 35 35h58.333v-70h-58.333z"></path>
<path fill="#37352f" d="M268.333 233.333c-1.167 0-2.333 0-3.5-1.167l-140-46.667c-4.667-1.167-8.167-5.833-8.167-10.5v-93.333c0-4.667 3.5-9.333 8.167-10.5l140-46.667c3.5-2.333 7-1.167 10.5 1.167 2.333 2.333 4.667 5.833 4.667 9.333v186.667c0 3.5-2.333 7-4.667 9.333-2.333 1.167-4.667 2.333-7 2.333zM140 166.833l116.667 38.5v-154l-116.667 38.5v77z"></path>
<path fill="#37352f" d="M93.333 256.667h-46.667c-3.5 0-7-2.333-9.333-4.667-2.333-3.5-3.5-7-1.167-10.5l23.333-70c1.167-4.667 5.833-8.167 10.5-8.167h46.667c3.5 0 7 2.333 9.333 4.667 2.333 3.5 2.333 7 1.167 10.5l-23.333 70c-1.167 4.667-5.833 8.167-10.5 8.167zM63 233.333h22.167l15.167-46.667h-22.167l-15.167 46.667z"></path>
</svg>
