<!-- Generated by IcoMoon.io -->
<svg version="1.1" xmlns="http://www.w3.org/2000/svg" width="280" height="280" viewBox="0 0 280 280">
<title>mi-map</title>
<path fill="#37352f" d="M198.333 280c-2.333 0-4.667-1.167-7-2.333-2.333-2.333-4.667-5.833-4.667-9.333v-233.333c0-4.667 2.333-9.333 7-10.5l58.333-23.333c3.5-1.167 8.167-1.167 10.5 1.167 3.5 2.333 5.833 5.833 5.833 9.333v233.333c0 4.667-2.333 9.333-7 10.5l-58.333 23.333c-1.167 1.167-3.5 1.167-4.667 1.167zM210 43.167v207.667l35-14v-207.667l-35 14z"></path>
<path fill="#37352f" d="M81.667 280c-2.333 0-4.667-1.167-7-2.333-2.333-2.333-4.667-5.833-4.667-9.333v-233.333c0-4.667 2.333-9.333 7-10.5l58.333-23.333c3.5-1.167 8.167-1.167 10.5 1.167s5.833 5.833 5.833 9.333v233.333c0 4.667-2.333 9.333-7 10.5l-58.333 23.333c-1.167 1.167-3.5 1.167-4.667 1.167zM93.333 43.167v207.667l35-14v-207.667l-35 14z"></path>
<path fill="#37352f" d="M198.333 280c-1.167 0-3.5 0-4.667-1.167l-58.333-23.333c-4.667-1.167-7-5.833-7-10.5v-233.333c0-3.5 2.333-7 4.667-9.333s7-2.333 10.5-1.167l58.333 23.333c5.833 1.167 8.167 5.833 8.167 10.5v233.333c0 3.5-2.333 7-4.667 9.333-2.333 1.167-4.667 2.333-7 2.333zM151.667 236.833l35 14v-207.667l-35-14v207.667z"></path>
<path fill="#37352f" d="M81.667 280c-1.167 0-3.5 0-4.667-1.167l-58.333-23.333c-4.667-1.167-7-5.833-7-10.5v-233.333c0-3.5 2.333-7 4.667-9.333 3.5-2.333 8.167-3.5 11.667-1.167l58.333 23.333c4.667 1.167 7 5.833 7 10.5v233.333c0 3.5-2.333 7-4.667 9.333-2.333 1.167-4.667 2.333-7 2.333zM35 236.833l35 14v-207.667l-35-14v207.667z"></path>
</svg>
