<!-- Generated by IcoMoon.io -->
<svg version="1.1" xmlns="http://www.w3.org/2000/svg" width="280" height="280" viewBox="0 0 280 280">
<title>mi-objects</title>
<path fill="#37352f" d="M93.333 198.333h-81.667c-7 0-11.667-4.667-11.667-11.667v-175c0-7 4.667-11.667 11.667-11.667h175c7 0 11.667 4.667 11.667 11.667v81.667c0 7-4.667 11.667-11.667 11.667s-11.667-4.667-11.667-11.667v-70h-151.667v151.667h70c7 0 11.667 4.667 11.667 11.667s-4.667 11.667-11.667 11.667z"></path>
<path fill="#37352f" d="M268.333 280h-175c-7 0-11.667-4.667-11.667-11.667v-175c0-7 4.667-11.667 11.667-11.667h175c7 0 11.667 4.667 11.667 11.667v175c0 7-4.667 11.667-11.667 11.667zM105 256.667h151.667v-151.667h-151.667v151.667z"></path>
</svg>
