<!-- Generated by IcoMoon.io -->
<svg version="1.1" xmlns="http://www.w3.org/2000/svg" width="280" height="280" viewBox="0 0 280 280">
<title>mi-pin</title>
<path fill="#37352f" d="M140 233.333c-4.667 0-8.167-2.333-10.5-5.833l-60.667-106.167c-21-37.333-9.333-85.167 28-107.333 28-17.5 60.667-16.333 86.333-1.167 37.333 23.333 50.167 71.167 28 108.5l-60.667 106.167c-2.333 3.5-5.833 5.833-10.5 5.833zM140 24.5c-10.5 0-21 3.5-30.333 8.167-26.833 16.333-35 50.167-19.833 77l50.167 88.667 50.167-88.667c15.167-26.833 7-60.667-19.833-77-9.333-5.833-19.833-8.167-30.333-8.167z"></path>
<path fill="#37352f" d="M140 116.667c-19.833 0-35-15.167-35-35s15.167-35 35-35 35 15.167 35 35-15.167 35-35 35zM140 70c-7 0-11.667 4.667-11.667 11.667s4.667 11.667 11.667 11.667 11.667-4.667 11.667-11.667-4.667-11.667-11.667-11.667z"></path>
<path fill="#37352f" d="M140 280c-46.667 0-93.333-16.333-93.333-46.667 0-24.5 31.5-43.167 79.333-46.667l1.167 23.333c-37.333 3.5-57.167 16.333-57.167 23.333 0 8.167 26.833 23.333 70 23.333s70-15.167 70-23.333c0-7-19.833-19.833-57.167-23.333l1.167-23.333c47.833 3.5 79.333 22.167 79.333 46.667 0 30.333-46.667 46.667-93.333 46.667z"></path>
</svg>
