<!-- Generated by IcoMoon.io -->
<svg version="1.1" xmlns="http://www.w3.org/2000/svg" width="280" height="280" viewBox="0 0 280 280">
<title>mi-pound</title>
<path fill="#37352f" d="M186.667 198.333h-93.333c-4.667 0-9.333-3.5-11.667-8.167-1.167-4.667 0-10.5 4.667-12.833 12.833-8.167 18.667-31.5 23.333-51.333 7-26.833 15.167-56 42-56 16.333 0 30.333 14 31.5 15.167 4.667 4.667 4.667 11.667 0 16.333s-11.667 4.667-16.333 0c-3.5-3.5-10.5-8.167-15.167-8.167-8.167 0-12.833 15.167-18.667 38.5-3.5 15.167-7 30.333-15.167 43.167h68.833c7 0 11.667 4.667 11.667 11.667s-4.667 11.667-11.667 11.667z"></path>
<path fill="#37352f" d="M151.667 151.667h-46.667c-7 0-11.667-4.667-11.667-11.667s4.667-11.667 11.667-11.667h46.667c7 0 11.667 4.667 11.667 11.667s-4.667 11.667-11.667 11.667z"></path>
<path fill="#37352f" d="M140 280c-77 0-140-63-140-140s63-140 140-140 140 63 140 140-63 140-140 140zM140 23.333c-64.167 0-116.667 52.5-116.667 116.667s52.5 116.667 116.667 116.667 116.667-52.5 116.667-116.667-52.5-116.667-116.667-116.667z"></path>
</svg>
