<!-- Generated by IcoMoon.io -->
<svg version="1.1" xmlns="http://www.w3.org/2000/svg" width="280" height="280" viewBox="0 0 280 280">
<title>mi-phone</title>
<path fill="#37352f" d="M210 270.667c-16.333 0-35-4.667-56-15.167-25.667-12.833-51.333-31.5-75.833-56-23.333-23.333-43.167-50.167-56-75.833-19.833-40.833-21-74.667-1.167-93.333 4.667-4.667 11.667-4.667 16.333 0s4.667 11.667 0 16.333c-11.667 11.667-9.333 37.333 5.833 67.667 11.667 23.333 29.167 47.833 51.333 70s46.667 39.667 70 51.333c30.333 15.167 56 17.5 67.667 5.833 4.667-4.667 11.667-4.667 16.333 0s4.667 11.667 0 16.333c-9.333 8.167-22.167 12.833-38.5 12.833z"></path>
<path fill="#37352f" d="M91 124.833c-4.667 0-8.167-2.333-10.5-7-3.5-5.833-1.167-12.833 4.667-15.167l26.833-12.833c4.667-2.333 10.5-8.167 9.333-15.167 0-3.5-2.333-5.833-4.667-8.167l-38.5-39.667c-3.5-3.5-9.333-4.667-15.167-3.5-2.333 1.167-4.667 2.333-7 3.5l-18.667 19.833c-4.667 4.667-11.667 4.667-16.333 0s-4.667-11.667 0-16.333l18.667-18.667c4.667-4.667 10.5-8.167 16.333-9.333 14-3.5 28 0 38.5 9.333l38.5 38.5c5.833 5.833 9.333 14 10.5 22.167 2.333 15.167-7 31.5-22.167 39.667l-26.833 12.833c0-1.167-2.333 0-3.5 0z"></path>
<path fill="#37352f" d="M239.167 260.167c-3.5 0-5.833-1.167-8.167-3.5-4.667-4.667-4.667-11.667 0-16.333l18.667-18.667c2.333-2.333 3.5-3.5 3.5-7 1.167-5.833 0-11.667-3.5-15.167l-38.5-38.5c-2.333-2.333-5.833-3.5-8.167-4.667-7-1.167-12.833 3.5-15.167 9.333l-12.833 26.833c-2.333 5.833-9.333 8.167-15.167 4.667-5.833-2.333-8.167-9.333-4.667-15.167l12.833-26.833c8.167-15.167 23.333-24.5 39.667-22.167 8.167 1.167 15.167 4.667 21 10.5l38.5 38.5c10.5 10.5 14 24.5 9.333 38.5-2.333 5.833-4.667 11.667-9.333 16.333l-19.833 19.833c-2.333 2.333-4.667 3.5-8.167 3.5z"></path>
<path fill="#37352f" d="M164.5 198.333c-2.333 0-4.667-1.167-7-2.333-14-10.5-28-22.167-42-35-14-14-25.667-28-35-42-3.5-4.667-2.333-11.667 3.5-16.333 5.833-3.5 12.833-2.333 16.333 2.333 9.333 12.833 19.833 26.833 32.667 38.5s25.667 23.333 38.5 32.667c5.833 3.5 7 10.5 2.333 16.333-1.167 4.667-4.667 5.833-9.333 5.833z"></path>
</svg>
