<!-- Generated by IcoMoon.io -->
<svg version="1.1" xmlns="http://www.w3.org/2000/svg" width="280" height="280" viewBox="0 0 280 280">
<title>mi-padlock</title>
<path fill="#37352f" d="M186.667 280h-93.333c-25.667 0-46.667-21-46.667-46.667v-81.667c0-25.667 21-46.667 46.667-46.667h93.333c25.667 0 46.667 21 46.667 46.667v81.667c0 25.667-21 46.667-46.667 46.667zM93.333 128.333c-12.833 0-23.333 10.5-23.333 23.333v81.667c0 12.833 10.5 23.333 23.333 23.333h93.333c12.833 0 23.333-10.5 23.333-23.333v-81.667c0-12.833-10.5-23.333-23.333-23.333h-93.333z"></path>
<path fill="#37352f" d="M198.333 128.333h-116.667c-7 0-11.667-4.667-11.667-11.667v-46.667c0-38.5 31.5-70 70-70 39.667 0 70 31.5 70 70v46.667c0 7-4.667 11.667-11.667 11.667zM93.333 105h93.333v-35c0-25.667-21-46.667-46.667-46.667s-46.667 21-46.667 46.667v35z"></path>
<path fill="#37352f" d="M163.333 175c0 12.887-10.447 23.333-23.333 23.333s-23.333-10.447-23.333-23.333c0-12.887 10.447-23.333 23.333-23.333s23.333 10.447 23.333 23.333z"></path>
<path fill="#37352f" d="M140 233.333c-7 0-11.667-4.667-11.667-11.667v-35c0-7 4.667-11.667 11.667-11.667s11.667 4.667 11.667 11.667v35c0 7-4.667 11.667-11.667 11.667z"></path>
</svg>
