<!-- Generated by IcoMoon.io -->
<svg version="1.1" xmlns="http://www.w3.org/2000/svg" width="280" height="280" viewBox="0 0 280 280">
<title>mi-styling-tools</title>
<path fill="#37352f" d="M46.667 280c-25.667 0-46.667-21-46.667-46.667s21-46.667 46.667-46.667 46.667 21 46.667 46.667-21 46.667-46.667 46.667zM46.667 210c-12.833 0-23.333 10.5-23.333 23.333s10.5 23.333 23.333 23.333 23.333-10.5 23.333-23.333-10.5-23.333-23.333-23.333z"></path>
<path fill="#37352f" d="M116.667 280c-25.667 0-46.667-21-46.667-46.667s21-46.667 46.667-46.667 46.667 21 46.667 46.667-21 46.667-46.667 46.667zM116.667 210c-12.833 0-23.333 10.5-23.333 23.333s10.5 23.333 23.333 23.333 23.333-10.5 23.333-23.333-10.5-23.333-23.333-23.333z"></path>
<path fill="#37352f" d="M81.667 245c-7 0-11.667-4.667-11.667-11.667v-221.667c0-7 4.667-11.667 11.667-11.667s11.667 4.667 11.667 11.667v221.667c0 7-4.667 11.667-11.667 11.667z"></path>
<path fill="#37352f" d="M72.333 221.667c-4.667 0-9.333-3.5-11.667-8.167l-24.5-85.167c-8.167-22.167-7-49 5.833-70l30.333-52.5c2.333-5.833 9.333-7 15.167-4.667 5.833 3.5 7 10.5 4.667 16.333l-30.333 52.5c-9.333 15.167-10.5 33.833-3.5 50.167l24.5 86.333c2.333 5.833-2.333 12.833-8.167 14 0 0-1.167 1.167-2.333 1.167z"></path>
<path fill="#37352f" d="M91 221.667c-1.167 0-2.333 0-3.5 0-5.833-2.333-9.333-8.167-8.167-14l25.667-86.333c7-17.5 5.833-36.167-3.5-51.333l-30.333-52.5c-2.333-5.833-1.167-12.833 4.667-16.333 5.833-2.333 12.833-1.167 16.333 4.667l29.167 52.5c12.833 22.167 14 47.833 4.667 71.167l-24.5 84c0 4.667-4.667 8.167-10.5 8.167z"></path>
<path fill="#37352f" d="M268.333 58.333h-35c-7 0-11.667-4.667-11.667-11.667s4.667-11.667 11.667-11.667h35c7 0 11.667 4.667 11.667 11.667s-4.667 11.667-11.667 11.667z"></path>
<path fill="#37352f" d="M268.333 93.333h-35c-7 0-11.667-4.667-11.667-11.667s4.667-11.667 11.667-11.667h35c7 0 11.667 4.667 11.667 11.667s-4.667 11.667-11.667 11.667z"></path>
<path fill="#37352f" d="M268.333 128.333h-35c-7 0-11.667-4.667-11.667-11.667s4.667-11.667 11.667-11.667h35c7 0 11.667 4.667 11.667 11.667s-4.667 11.667-11.667 11.667z"></path>
<path fill="#37352f" d="M268.333 163.333h-35c-7 0-11.667-4.667-11.667-11.667s4.667-11.667 11.667-11.667h35c7 0 11.667 4.667 11.667 11.667s-4.667 11.667-11.667 11.667z"></path>
<path fill="#37352f" d="M233.333 280h-46.667c-7 0-11.667-4.667-11.667-11.667v-256.667c0-7 4.667-11.667 11.667-11.667h46.667c25.667 0 46.667 21 46.667 46.667v105c0 25.667-21 46.667-46.667 46.667-7 0-11.667-4.667-11.667-11.667s4.667-11.667 11.667-11.667c12.833 0 23.333-10.5 23.333-23.333v-105c0-12.833-10.5-23.333-23.333-23.333h-35v233.333h35c7 0 11.667 4.667 11.667 11.667s-4.667 11.667-11.667 11.667z"></path>
<path fill="#37352f" d="M233.333 280c-7 0-11.667-4.667-11.667-11.667v-81.667c0-7 4.667-11.667 11.667-11.667s11.667 4.667 11.667 11.667v81.667c0 7-4.667 11.667-11.667 11.667z"></path>
</svg>
