<!-- Generated by IcoMoon.io -->
<svg version="1.1" xmlns="http://www.w3.org/2000/svg" width="280" height="280" viewBox="0 0 280 280">
<title>mi-shield</title>
<path fill="#37352f" d="M140 268.333c-2.333 0-4.667 0-5.833-2.333-98-60.667-99.167-134.167-99.167-137.667v-81.667c0-7 4.667-11.667 11.667-11.667 32.667 0 88.667-24.5 88.667-24.5 5.833-2.333 12.833 0 15.167 5.833s0 12.833-5.833 15.167c-2.333 1.167-50.167 22.167-86.333 25.667v71.167c0 2.333 2.333 64.167 87.5 119 5.833 3.5 7 10.5 3.5 16.333-1.167 2.333-5.833 4.667-9.333 4.667z"></path>
<path fill="#37352f" d="M140 268.333c-3.5 0-8.167-2.333-9.333-5.833-3.5-5.833-2.333-12.833 3.5-16.333 85.167-53.667 87.5-115.5 87.5-117.833v-71.167c-36.167-4.667-84-24.5-86.333-25.667-5.833-2.333-8.167-9.333-5.833-15.167s9.333-8.167 15.167-5.833c0 0 56 24.5 88.667 24.5 7 0 11.667 4.667 11.667 11.667v81.667c0 3.5-1.167 77-99.167 137.667-1.167 2.333-3.5 2.333-5.833 2.333z"></path>
<path fill="#37352f" d="M140 268.333c-7 0-11.667-4.667-11.667-11.667v-233.333c0-7 4.667-11.667 11.667-11.667s11.667 4.667 11.667 11.667v233.333c0 7-4.667 11.667-11.667 11.667z"></path>
</svg>
