<!-- Generated by IcoMoon.io -->
<svg version="1.1" xmlns="http://www.w3.org/2000/svg" width="280" height="280" viewBox="0 0 280 280">
<title>mi-settings</title>
<path fill="#37352f" d="M164.5 278.833l-1.167-14c-1.167-11.667-11.667-19.833-23.333-19.833s-21 8.167-23.333 19.833l-2.333 12.833-12.833-3.5c-22.167-5.833-43.167-18.667-60.667-35l-9.333-9.333 10.5-8.167c9.333-7 11.667-19.833 5.833-30.333-5.833-9.333-18.667-14-29.167-10.5l-12.833 4.667-1.167-10.5c-3.5-11.667-4.667-23.333-4.667-35s1.167-23.333 4.667-35l3.5-12.833 12.833 4.667c10.5 4.667 23.333 0 29.167-10.5s3.5-23.333-5.833-30.333l-11.667-7 9.333-9.333c17.5-16.333 37.333-28 60.667-35l12.833-3.5 1.167 14c1.167 11.667 11.667 19.833 23.333 19.833s21-8.167 23.333-19.833l2.333-12.833 12.833 3.5c22.167 5.833 43.167 18.667 60.667 35l9.333 9.333-10.5 8.167c-9.333 7-11.667 19.833-5.833 30.333 4.667 7 11.667 11.667 19.833 11.667v0c3.5 0 5.833 0 8.167-1.167l12.833-4.667 2.333 10.5c2.333 11.667 4.667 23.333 4.667 35s-1.167 23.333-4.667 35l-3.5 12.833-12.833-4.667c-10.5-4.667-23.333 0-29.167 10.5s-3.5 23.333 5.833 30.333l10.5 8.167-9.333 9.333c-16.333 16.333-37.333 28-60.667 35l-11.667 2.333zM140 221.667c18.667 0 35 10.5 42 26.833 10.5-4.667 21-10.5 30.333-17.5-10.5-14-11.667-33.833-2.333-50.167 9.333-15.167 26.833-24.5 44.333-23.333 2.333-5.833 2.333-11.667 2.333-17.5s0-11.667-1.167-17.5c-1.167 0-2.333 0-4.667 0v0c-16.333 0-32.667-9.333-40.833-23.333-9.333-16.333-8.167-36.167 2.333-50.167-9.333-7-19.833-14-30.333-17.5-7 16.333-23.333 26.833-42 26.833s-35-10.5-42-26.833c-11.667 3.5-22.167 10.5-31.5 17.5 10.5 14 11.667 33.833 2.333 50.167-9.333 15.167-26.833 24.5-44.333 23.333-1.167 5.833-1.167 11.667-1.167 17.5s0 11.667 1.167 17.5c17.5-1.167 35 7 44.333 23.333s8.167 36.167-2.333 50.167c9.333 7 19.833 14 30.333 17.5 8.167-16.333 24.5-26.833 43.167-26.833z"></path>
<path fill="#37352f" d="M140 186.667c-25.667 0-46.667-21-46.667-46.667s21-46.667 46.667-46.667 46.667 21 46.667 46.667-21 46.667-46.667 46.667zM140 116.667c-12.833 0-23.333 10.5-23.333 23.333s10.5 23.333 23.333 23.333 23.333-10.5 23.333-23.333-10.5-23.333-23.333-23.333z"></path>
</svg>
