<!-- Generated by IcoMoon.io -->
<svg version="1.1" xmlns="http://www.w3.org/2000/svg" width="280" height="280" viewBox="0 0 280 280">
<title>mi-shuffle</title>
<path fill="#37352f" d="M256.667 210h-70c-3.5 0-7-1.167-9.333-4.667l-89.833-112h-75.833c-7 0-11.667-4.667-11.667-11.667s4.667-11.667 11.667-11.667h81.667c3.5 0 7 1.167 9.333 4.667l89.833 112h64.167c7 0 11.667 4.667 11.667 11.667s-4.667 11.667-11.667 11.667z"></path>
<path fill="#37352f" d="M268.333 210c-3.5 0-5.833-1.167-8.167-3.5l-35-35c-4.667-4.667-4.667-11.667 0-16.333s11.667-4.667 16.333 0l35 35c4.667 4.667 4.667 11.667 0 16.333-2.333 2.333-4.667 3.5-8.167 3.5z"></path>
<path fill="#37352f" d="M233.333 245c-3.5 0-5.833-1.167-8.167-3.5-4.667-4.667-4.667-11.667 0-16.333l35-35c4.667-4.667 11.667-4.667 16.333 0s4.667 11.667 0 16.333l-35 35c-2.333 2.333-4.667 3.5-8.167 3.5z"></path>
<path fill="#37352f" d="M93.333 210h-81.667c-7 0-11.667-4.667-11.667-11.667s4.667-11.667 11.667-11.667h75.833l89.833-112c2.333-3.5 5.833-4.667 9.333-4.667h70c7 0 11.667 4.667 11.667 11.667s-4.667 11.667-11.667 11.667h-64.167l-89.833 112c-2.333 3.5-5.833 4.667-9.333 4.667z"></path>
<path fill="#37352f" d="M233.333 128.333c-3.5 0-5.833-1.167-8.167-3.5-4.667-4.667-4.667-11.667 0-16.333l35-35c4.667-4.667 11.667-4.667 16.333 0s4.667 11.667 0 16.333l-35 35c-2.333 2.333-4.667 3.5-8.167 3.5z"></path>
<path fill="#37352f" d="M268.333 93.333c-3.5 0-5.833-1.167-8.167-3.5l-35-35c-4.667-4.667-4.667-11.667 0-16.333s11.667-4.667 16.333 0l35 35c4.667 4.667 4.667 11.667 0 16.333-2.333 2.333-4.667 3.5-8.167 3.5z"></path>
</svg>
