<!-- Generated by IcoMoon.io -->
<svg version="1.1" xmlns="http://www.w3.org/2000/svg" width="280" height="280" viewBox="0 0 280 280">
<title>mi-scales</title>
<path fill="#37352f" d="M46.667 186.667c-25.667 0-46.667-21-46.667-46.667 0-21 30.333-94.5 36.167-109.667 1.167-4.667 5.833-7 10.5-7s9.333 2.333 10.5 7c5.833 15.167 36.167 88.667 36.167 109.667 0 25.667-21 46.667-46.667 46.667zM46.667 66.5c-11.667 31.5-23.333 64.167-23.333 73.5 0 12.833 10.5 23.333 23.333 23.333s23.333-10.5 23.333-23.333c0-9.333-11.667-42-23.333-73.5z"></path>
<path fill="#37352f" d="M233.333 186.667c-25.667 0-46.667-21-46.667-46.667 0-21 30.333-94.5 36.167-109.667 1.167-4.667 5.833-7 10.5-7s9.333 2.333 10.5 7c5.833 15.167 36.167 88.667 36.167 109.667 0 25.667-21 46.667-46.667 46.667zM233.333 66.5c-11.667 30.333-23.333 64.167-23.333 73.5 0 12.833 10.5 23.333 23.333 23.333s23.333-10.5 23.333-23.333c0-9.333-11.667-42-23.333-73.5z"></path>
<path fill="#37352f" d="M233.333 46.667h-186.667c-7 0-11.667-4.667-11.667-11.667s4.667-11.667 11.667-11.667h186.667c7 0 11.667 4.667 11.667 11.667s-4.667 11.667-11.667 11.667z"></path>
<path fill="#37352f" d="M140 256.667c-7 0-11.667-4.667-11.667-11.667v-210c0-7 4.667-11.667 11.667-11.667s11.667 4.667 11.667 11.667v210c0 7-4.667 11.667-11.667 11.667z"></path>
<path fill="#37352f" d="M210 256.667h-140c-7 0-11.667-4.667-11.667-11.667s4.667-11.667 11.667-11.667h140c7 0 11.667 4.667 11.667 11.667s-4.667 11.667-11.667 11.667z"></path>
<path fill="#37352f" d="M81.667 151.667h-70c-7 0-11.667-4.667-11.667-11.667s4.667-11.667 11.667-11.667h70c7 0 11.667 4.667 11.667 11.667s-4.667 11.667-11.667 11.667z"></path>
<path fill="#37352f" d="M268.333 151.667h-70c-7 0-11.667-4.667-11.667-11.667s4.667-11.667 11.667-11.667h70c7 0 11.667 4.667 11.667 11.667s-4.667 11.667-11.667 11.667z"></path>
</svg>
