<!-- Generated by IcoMoon.io -->
<svg version="1.1" xmlns="http://www.w3.org/2000/svg" width="280" height="280" viewBox="0 0 280 280">
<title>mi-table</title>
<path fill="#37352f" d="M233.333 280h-186.667c-25.667 0-46.667-21-46.667-46.667v-175c0-7 4.667-11.667 11.667-11.667h256.667c7 0 11.667 4.667 11.667 11.667v175c0 25.667-21 46.667-46.667 46.667zM23.333 70v163.333c0 12.833 10.5 23.333 23.333 23.333h186.667c12.833 0 23.333-10.5 23.333-23.333v-163.333h-233.333z"></path>
<path fill="#37352f" d="M268.333 58.333h-256.667v-11.667c0-19.833 15.167-35 35-35h186.667c19.833 0 35 15.167 35 35v11.667z"></path>
<path fill="#37352f" d="M268.333 70h-256.667c-7 0-11.667-4.667-11.667-11.667v-11.667c0-25.667 21-46.667 46.667-46.667h186.667c25.667 0 46.667 21 46.667 46.667v11.667c0 7-4.667 11.667-11.667 11.667zM23.333 46.667h233.333c0-12.833-10.5-23.333-23.333-23.333h-186.667c-12.833 0-23.333 10.5-23.333 23.333z"></path>
<path fill="#37352f" d="M81.667 280c-7 0-11.667-4.667-11.667-11.667v-210c0-7 4.667-11.667 11.667-11.667s11.667 4.667 11.667 11.667v210c0 7-4.667 11.667-11.667 11.667z"></path>
<path fill="#37352f" d="M268.333 140h-256.667c-7 0-11.667-4.667-11.667-11.667s4.667-11.667 11.667-11.667h256.667c7 0 11.667 4.667 11.667 11.667s-4.667 11.667-11.667 11.667z"></path>
<path fill="#37352f" d="M268.333 210h-256.667c-7 0-11.667-4.667-11.667-11.667s4.667-11.667 11.667-11.667h256.667c7 0 11.667 4.667 11.667 11.667s-4.667 11.667-11.667 11.667z"></path>
</svg>
