<!-- Generated by IcoMoon.io -->
<svg version="1.1" xmlns="http://www.w3.org/2000/svg" width="280" height="280" viewBox="0 0 280 280">
<title>mi-target</title>
<path fill="#37352f" d="M140 245c-58.333 0-105-46.667-105-105s46.667-105 105-105 105 46.667 105 105-46.667 105-105 105zM140 58.333c-45.5 0-81.667 36.167-81.667 81.667s36.167 81.667 81.667 81.667 81.667-36.167 81.667-81.667-36.167-81.667-81.667-81.667zM140 186.667c-25.667 0-46.667-21-46.667-46.667s21-46.667 46.667-46.667 46.667 21 46.667 46.667-21 46.667-46.667 46.667zM140 116.667c-12.833 0-23.333 10.5-23.333 23.333s10.5 23.333 23.333 23.333 23.333-10.5 23.333-23.333-10.5-23.333-23.333-23.333z"></path>
<path fill="#37352f" d="M140 280c-7 0-11.667-4.667-11.667-11.667v-93.333c0-7 4.667-11.667 11.667-11.667s11.667 4.667 11.667 11.667v93.333c0 7-4.667 11.667-11.667 11.667z"></path>
<path fill="#37352f" d="M140 116.667c-7 0-11.667-4.667-11.667-11.667v-93.333c0-7 4.667-11.667 11.667-11.667s11.667 4.667 11.667 11.667v93.333c0 7-4.667 11.667-11.667 11.667z"></path>
<path fill="#37352f" d="M105 151.667h-93.333c-7 0-11.667-4.667-11.667-11.667s4.667-11.667 11.667-11.667h93.333c7 0 11.667 4.667 11.667 11.667s-4.667 11.667-11.667 11.667z"></path>
<path fill="#37352f" d="M268.333 151.667h-93.333c-7 0-11.667-4.667-11.667-11.667s4.667-11.667 11.667-11.667h93.333c7 0 11.667 4.667 11.667 11.667s-4.667 11.667-11.667 11.667z"></path>
</svg>
