<!-- Generated by IcoMoon.io -->
<svg version="1.1" xmlns="http://www.w3.org/2000/svg" width="280" height="280" viewBox="0 0 280 280">
<title>mi-zoom-out</title>
<path fill="#37352f" d="M105 210c-58.333 0-105-46.667-105-105s46.667-105 105-105 105 46.667 105 105-46.667 105-105 105zM105 23.333c-45.5 0-81.667 36.167-81.667 81.667s36.167 81.667 81.667 81.667 81.667-36.167 81.667-81.667-36.167-81.667-81.667-81.667z"></path>
<path fill="#37352f" d="M268.333 280c-3.5 0-5.833-1.167-8.167-3.5l-96.833-96.833c-4.667-4.667-4.667-11.667 0-16.333s11.667-4.667 16.333 0l96.833 96.833c4.667 4.667 4.667 11.667 0 16.333-2.333 2.333-4.667 3.5-8.167 3.5z"></path>
<path fill="#37352f" d="M140 116.667h-70c-7 0-11.667-4.667-11.667-11.667s4.667-11.667 11.667-11.667h70c7 0 11.667 4.667 11.667 11.667s-4.667 11.667-11.667 11.667z"></path>
</svg>
