<!-- Generated by IcoMoon.io -->
<svg version="1.1" xmlns="http://www.w3.org/2000/svg" width="280" height="280" viewBox="0 0 280 280">
<title>mt-alarm_on</title>
<path fill="#37352f" d="M256.667 66.733l-53.667-45.033-15.050 17.85 53.667 45.033 15.050-17.85zM91.933 39.55l-14.933-17.85-53.667 44.917 15.050 17.85 53.55-44.917zM140 46.667c-57.983 0-105 47.017-105 105s46.9 105 105 105c57.983 0 105-47.017 105-105s-47.017-105-105-105v0zM140 233.333c-45.15 0-81.667-36.517-81.667-81.667s36.517-81.667 81.667-81.667c45.15 0 81.667 36.517 81.667 81.667s-36.517 81.667-81.667 81.667v0zM122.967 169.517l-24.85-24.85-12.367 12.367 37.1 37.1 70-70-12.367-12.367-57.517 57.75z"></path>
</svg>
