<!-- Generated by IcoMoon.io -->
<svg version="1.1" xmlns="http://www.w3.org/2000/svg" width="280" height="280" viewBox="0 0 280 280">
<title>mt-attach_money</title>
<path fill="#37352f" d="M137.668 127.167c-26.484-6.883-35-14-35-25.083 0-12.717 11.783-21.583 31.5-21.583 20.767 0 28.467 9.917 29.167 24.5h25.783c-0.817-20.067-13.067-38.5-37.45-44.45v-25.55h-35v25.2c-22.634 4.9-40.834 19.6-40.834 42.117 0 26.95 22.283 40.367 54.834 48.183 29.167 7 35 17.267 35 28.117 0 8.050-5.717 20.883-31.5 20.883-24.034 0-33.484-10.733-34.767-24.5h-25.667c1.4 25.55 20.533 39.9 42.934 44.683v25.317h35v-25.083c22.75-4.317 40.833-17.5 40.833-41.417 0-33.133-28.35-44.45-54.833-51.333v0z"></path>
</svg>
