<!-- Generated by IcoMoon.io -->
<svg version="1.1" xmlns="http://www.w3.org/2000/svg" width="280" height="280" viewBox="0 0 280 280">
<title>mt-alarm_add</title>
<path fill="#37352f" d="M91.933 39.55l-14.933-17.85-53.667 44.917 15.050 17.85 53.55-44.917zM256.667 66.733l-53.667-45.033-15.050 17.85 53.667 45.033 15.050-17.85zM140 46.667c-57.983 0-105 47.017-105 105s46.9 105 105 105c57.983 0 105-47.017 105-105s-47.017-105-105-105v0zM140 233.333c-45.15 0-81.667-36.517-81.667-81.667s36.517-81.667 81.667-81.667c45.15 0 81.667 36.517 81.667 81.667s-36.517 81.667-81.667 81.667v0zM151.667 105h-23.333v35h-35v23.333h35v35h23.333v-35h35v-23.333h-35v-35z"></path>
</svg>
