<!-- Generated by IcoMoon.io -->
<svg version="1.1" xmlns="http://www.w3.org/2000/svg" width="280" height="280" viewBox="0 0 280 280">
<title>mt-album</title>
<path fill="#37352f" d="M140 23.333c-64.4 0-116.667 52.267-116.667 116.667s52.267 116.667 116.667 116.667c64.4 0 116.667-52.267 116.667-116.667s-52.267-116.667-116.667-116.667v0zM140 192.5c-29.050 0-52.5-23.45-52.5-52.5s23.45-52.5 52.5-52.5c29.050 0 52.5 23.45 52.5 52.5s-23.45 52.5-52.5 52.5v0zM140 128.333c-6.417 0-11.667 5.25-11.667 11.667s5.25 11.667 11.667 11.667c6.417 0 11.667-5.25 11.667-11.667s-5.25-11.667-11.667-11.667v0z"></path>
</svg>
