<!-- Generated by IcoMoon.io -->
<svg version="1.1" xmlns="http://www.w3.org/2000/svg" width="280" height="280" viewBox="0 0 280 280">
<title>mt-account_box</title>
<path fill="#37352f" d="M35 58.333v163.333c0 12.833 10.383 23.333 23.333 23.333h163.333c12.833 0 23.333-10.5 23.333-23.333v-163.333c0-12.833-10.5-23.333-23.333-23.333h-163.333c-12.95 0-23.333 10.5-23.333 23.333v0zM175 105c0 19.367-15.633 35-35 35s-35-15.633-35-35c0-19.367 15.633-35 35-35s35 15.633 35 35v0zM70 198.333c0-23.333 46.667-36.167 70-36.167s70 12.833 70 36.167v11.667h-140v-11.667z"></path>
</svg>
