<!-- Generated by IcoMoon.io -->
<svg version="1.1" xmlns="http://www.w3.org/2000/svg" width="280" height="280" viewBox="0 0 280 280">
<title>mt-assignment_turned_in</title>
<path fill="#37352f" d="M221.667 35h-48.767c-4.9-13.533-17.733-23.333-32.9-23.333s-28 9.8-32.9 23.333h-48.767c-12.833 0-23.333 10.5-23.333 23.333v163.333c0 12.833 10.5 23.333 23.333 23.333h163.333c12.833 0 23.333-10.5 23.333-23.333v-163.333c0-12.833-10.5-23.333-23.333-23.333v0zM140 35c6.417 0 11.667 5.25 11.667 11.667s-5.25 11.667-11.667 11.667c-6.417 0-11.667-5.25-11.667-11.667s5.25-11.667 11.667-11.667v0zM116.667 198.333l-46.667-46.667 16.45-16.45 30.217 30.1 76.883-76.883 16.45 16.567-93.333 93.333z"></path>
</svg>
