<!-- Generated by IcoMoon.io -->
<svg version="1.1" xmlns="http://www.w3.org/2000/svg" width="280" height="280" viewBox="0 0 280 280">
<title>mt-airline_seat_legroom_reduced</title>
<path fill="#37352f" d="M232.983 224c2.1 11.2-6.417 21-17.15 21h-52.5v-35l11.667-46.667h-70c-19.25 0-35-15.75-35-35v-93.333h70v70h58.333c12.833 0 23.333 10.5 23.333 23.333l-23.333 81.667h16.8c8.517 0 16.217 5.717 17.85 14v0zM58.333 140v-105h-23.333v105c0 32.2 26.133 58.333 58.333 58.333h46.667v-23.333h-46.667c-19.367 0-35-15.633-35-35v0z"></path>
</svg>
