<!-- Generated by IcoMoon.io -->
<svg version="1.1" xmlns="http://www.w3.org/2000/svg" width="280" height="280" viewBox="0 0 280 280">
<title>mt-add_shopping_cart</title>
<path fill="#37352f" d="M128.333 105h23.333v-35h35v-23.333h-35v-35h-23.333v35h-35v23.333h35v35zM81.667 210c-12.833 0-23.217 10.5-23.217 23.333s10.383 23.333 23.217 23.333c12.833 0 23.333-10.5 23.333-23.333s-10.5-23.333-23.333-23.333v0zM198.333 210c-12.833 0-23.217 10.5-23.217 23.333s10.383 23.333 23.217 23.333c12.833 0 23.333-10.5 23.333-23.333s-10.5-23.333-23.333-23.333v0zM83.65 172.083l0.35-1.4 10.5-19.017h86.917c8.75 0 16.45-4.783 20.417-12.017l45.033-81.783-20.3-11.2h-0.117l-12.833 23.333-32.2 58.333h-81.9l-1.517-3.15-26.133-55.183-11.083-23.333-10.967-23.333h-38.15v23.333h23.333l42 88.55-15.75 28.583c-1.867 3.267-2.917 7.117-2.917 11.2 0 12.833 10.5 23.333 23.333 23.333h140v-23.333h-135.1c-1.517 0-2.917-1.283-2.917-2.917v0z"></path>
</svg>
