<!-- Generated by IcoMoon.io -->
<svg version="1.1" xmlns="http://www.w3.org/2000/svg" width="280" height="280" viewBox="0 0 280 280">
<title>mt-border_horizontal</title>
<path fill="#37352f" d="M35 245h23.333v-23.333h-23.333v23.333zM58.333 81.667h-23.333v23.333h23.333v-23.333zM35 198.333h23.333v-23.333h-23.333v23.333zM81.667 245h23.333v-23.333h-23.333v23.333zM58.333 35h-23.333v23.333h23.333v-23.333zM105 35h-23.333v23.333h23.333v-23.333zM198.333 35h-23.333v23.333h23.333v-23.333zM151.667 81.667h-23.333v23.333h23.333v-23.333zM151.667 35h-23.333v23.333h23.333v-23.333zM221.667 198.333h23.333v-23.333h-23.333v23.333zM128.333 245h23.333v-23.333h-23.333v23.333zM35 151.667h210v-23.333h-210v23.333zM221.667 35v23.333h23.333v-23.333h-23.333zM221.667 105h23.333v-23.333h-23.333v23.333zM128.333 198.333h23.333v-23.333h-23.333v23.333zM175 245h23.333v-23.333h-23.333v23.333zM221.667 245h23.333v-23.333h-23.333v23.333z"></path>
</svg>
