<!-- Generated by IcoMoon.io -->
<svg version="1.1" xmlns="http://www.w3.org/2000/svg" width="280" height="280" viewBox="0 0 280 280">
<title>mt-bluetooth_searching</title>
<path fill="#37352f" d="M166.133 140.117l27.067 27.067c3.267-8.4 5.133-17.617 5.133-27.183s-1.867-18.55-5.017-26.95l-27.183 27.067zM227.85 78.283l-14.7 14.7c7.35 14.117 11.433 29.983 11.433 46.9s-4.2 32.9-11.433 46.9l14 14c11.317-17.967 17.967-39.2 17.967-61.95-0.117-22.050-6.417-42.817-17.267-60.55v0zM183.283 89.95l-66.617-66.617h-11.667v88.55l-53.55-53.55-16.45 16.45 65.217 65.217-65.217 65.217 16.45 16.45 53.55-53.55v88.55h11.667l66.617-66.617-50.167-50.050 50.167-50.050zM128.333 68.017l21.933 21.933-21.933 21.933v-43.867zM150.267 190.050l-21.933 21.933v-43.867l21.933 21.933z"></path>
</svg>
