<!-- Generated by IcoMoon.io -->
<svg version="1.1" xmlns="http://www.w3.org/2000/svg" width="280" height="280" viewBox="0 0 280 280">
<title>mt-bug_report</title>
<path fill="#37352f" d="M233.333 93.333h-32.783c-5.25-9.1-12.483-16.917-21.233-22.867l19.017-19.017-16.45-16.45-25.317 25.317c-5.367-1.283-10.85-1.983-16.567-1.983s-11.2 0.7-16.45 1.983l-25.433-25.317-16.45 16.45 18.9 19.017c-8.633 5.95-15.867 13.767-21.117 22.867h-32.783v23.333h24.383c-0.583 3.85-1.050 7.7-1.050 11.667v11.667h-23.333v23.333h23.333v11.667c0 3.967 0.467 7.817 1.050 11.667h-24.383v23.333h32.783c12.133 20.883 34.65 35 60.55 35s48.417-14.117 60.55-35h32.783v-23.333h-24.383c0.583-3.85 1.050-7.7 1.050-11.667v-11.667h23.333v-23.333h-23.333v-11.667c0-3.967-0.467-7.817-1.050-11.667h24.383v-23.333zM163.333 186.667h-46.667v-23.333h46.667v23.333zM163.333 140h-46.667v-23.333h46.667v23.333z"></path>
</svg>
