<!-- Generated by IcoMoon.io -->
<svg version="1.1" xmlns="http://www.w3.org/2000/svg" width="280" height="280" viewBox="0 0 280 280">
<title>mt-blur_on</title>
<path fill="#37352f" d="M70 151.667c-6.417 0-11.667 5.25-11.667 11.667s5.25 11.667 11.667 11.667c6.417 0 11.667-5.25 11.667-11.667s-5.25-11.667-11.667-11.667v0zM70 198.333c-6.417 0-11.667 5.25-11.667 11.667s5.25 11.667 11.667 11.667c6.417 0 11.667-5.25 11.667-11.667s-5.25-11.667-11.667-11.667v0zM70 105c-6.417 0-11.667 5.25-11.667 11.667s5.25 11.667 11.667 11.667c6.417 0 11.667-5.25 11.667-11.667s-5.25-11.667-11.667-11.667v0zM35 110.833c-3.267 0-5.833 2.567-5.833 5.833s2.567 5.833 5.833 5.833c3.267 0 5.833-2.567 5.833-5.833s-2.567-5.833-5.833-5.833v0zM70 58.333c-6.417 0-11.667 5.25-11.667 11.667s5.25 11.667 11.667 11.667c6.417 0 11.667-5.25 11.667-11.667s-5.25-11.667-11.667-11.667v0zM245 122.5c3.267 0 5.833-2.567 5.833-5.833s-2.567-5.833-5.833-5.833c-3.267 0-5.833 2.567-5.833 5.833s2.567 5.833 5.833 5.833v0zM163.333 81.667c6.417 0 11.667-5.25 11.667-11.667s-5.25-11.667-11.667-11.667c-6.417 0-11.667 5.25-11.667 11.667s5.25 11.667 11.667 11.667v0zM163.333 40.833c3.267 0 5.833-2.567 5.833-5.833s-2.567-5.833-5.833-5.833c-3.267 0-5.833 2.567-5.833 5.833s2.567 5.833 5.833 5.833v0zM35 157.5c-3.267 0-5.833 2.567-5.833 5.833s2.567 5.833 5.833 5.833c3.267 0 5.833-2.567 5.833-5.833s-2.567-5.833-5.833-5.833v0zM116.667 239.167c-3.267 0-5.833 2.567-5.833 5.833s2.567 5.833 5.833 5.833c3.267 0 5.833-2.567 5.833-5.833s-2.567-5.833-5.833-5.833v0zM116.667 40.833c3.267 0 5.833-2.567 5.833-5.833s-2.567-5.833-5.833-5.833c-3.267 0-5.833 2.567-5.833 5.833s2.567 5.833 5.833 5.833v0zM116.667 81.667c6.417 0 11.667-5.25 11.667-11.667s-5.25-11.667-11.667-11.667c-6.417 0-11.667 5.25-11.667 11.667s5.25 11.667 11.667 11.667v0zM116.667 145.833c-9.683 0-17.5 7.817-17.5 17.5s7.817 17.5 17.5 17.5c9.683 0 17.5-7.817 17.5-17.5s-7.817-17.5-17.5-17.5v0zM210 151.667c-6.417 0-11.667 5.25-11.667 11.667s5.25 11.667 11.667 11.667c6.417 0 11.667-5.25 11.667-11.667s-5.25-11.667-11.667-11.667v0zM210 198.333c-6.417 0-11.667 5.25-11.667 11.667s5.25 11.667 11.667 11.667c6.417 0 11.667-5.25 11.667-11.667s-5.25-11.667-11.667-11.667v0zM210 105c-6.417 0-11.667 5.25-11.667 11.667s5.25 11.667 11.667 11.667c6.417 0 11.667-5.25 11.667-11.667s-5.25-11.667-11.667-11.667v0zM210 58.333c-6.417 0-11.667 5.25-11.667 11.667s5.25 11.667 11.667 11.667c6.417 0 11.667-5.25 11.667-11.667s-5.25-11.667-11.667-11.667v0zM245 157.5c-3.267 0-5.833 2.567-5.833 5.833s2.567 5.833 5.833 5.833c3.267 0 5.833-2.567 5.833-5.833s-2.567-5.833-5.833-5.833v0zM163.333 198.333c-6.417 0-11.667 5.25-11.667 11.667s5.25 11.667 11.667 11.667c6.417 0 11.667-5.25 11.667-11.667s-5.25-11.667-11.667-11.667v0zM163.333 239.167c-3.267 0-5.833 2.567-5.833 5.833s2.567 5.833 5.833 5.833c3.267 0 5.833-2.567 5.833-5.833s-2.567-5.833-5.833-5.833v0zM116.667 99.167c-9.683 0-17.5 7.817-17.5 17.5s7.817 17.5 17.5 17.5c9.683 0 17.5-7.817 17.5-17.5s-7.817-17.5-17.5-17.5v0zM116.667 198.333c-6.417 0-11.667 5.25-11.667 11.667s5.25 11.667 11.667 11.667c6.417 0 11.667-5.25 11.667-11.667s-5.25-11.667-11.667-11.667v0zM163.333 145.833c-9.683 0-17.5 7.817-17.5 17.5s7.817 17.5 17.5 17.5c9.683 0 17.5-7.817 17.5-17.5s-7.817-17.5-17.5-17.5v0zM163.333 99.167c-9.683 0-17.5 7.817-17.5 17.5s7.817 17.5 17.5 17.5c9.683 0 17.5-7.817 17.5-17.5s-7.817-17.5-17.5-17.5v0z"></path>
</svg>
