<!-- Generated by IcoMoon.io -->
<svg version="1.1" xmlns="http://www.w3.org/2000/svg" width="280" height="280" viewBox="0 0 280 280">
<title>mt-card_giftcard</title>
<path fill="#37352f" d="M233.333 70h-25.433c1.283-3.617 2.1-7.583 2.1-11.667 0-19.367-15.633-35-35-35-12.25 0-22.867 6.3-29.167 15.75l-5.833 7.817-5.833-7.933c-6.3-9.333-16.917-15.633-29.167-15.633-19.367 0-35 15.633-35 35 0 4.083 0.817 8.050 2.1 11.667h-25.433c-12.95 0-23.217 10.383-23.217 23.333l-0.117 128.333c0 12.95 10.383 23.333 23.333 23.333h186.667c12.95 0 23.333-10.383 23.333-23.333v-128.333c0-12.95-10.383-23.333-23.333-23.333v0zM175 46.667c6.417 0 11.667 5.25 11.667 11.667s-5.25 11.667-11.667 11.667c-6.417 0-11.667-5.25-11.667-11.667s5.25-11.667 11.667-11.667v0zM105 46.667c6.417 0 11.667 5.25 11.667 11.667s-5.25 11.667-11.667 11.667c-6.417 0-11.667-5.25-11.667-11.667s5.25-11.667 11.667-11.667v0zM233.333 221.667h-186.667v-23.333h186.667v23.333zM233.333 163.333h-186.667v-70h59.267l-24.267 33.017 18.9 13.65 39.433-53.667 39.433 53.667 18.9-13.65-24.267-33.017h59.267v70z"></path>
</svg>
