<!-- Generated by IcoMoon.io -->
<svg version="1.1" xmlns="http://www.w3.org/2000/svg" width="280" height="280" viewBox="0 0 280 280">
<title>mt-child_care</title>
<path fill="#37352f" d="M183.75 122.5c0 8.054-6.529 14.583-14.583 14.583s-14.583-6.529-14.583-14.583c0-8.054 6.529-14.583 14.583-14.583s14.583 6.529 14.583 14.583z"></path>
<path fill="#37352f" d="M125.417 122.5c0 8.054-6.529 14.583-14.583 14.583s-14.583-6.529-14.583-14.583c0-8.054 6.529-14.583 14.583-14.583s14.583 6.529 14.583 14.583z"></path>
<path fill="#37352f" d="M267.633 147.7c0.467-2.45 0.7-5.017 0.7-7.7s-0.233-5.25-0.7-7.7c-2.917-17.617-15.867-31.967-32.783-36.983-6.183-13.067-14.933-24.5-25.55-33.95-18.433-16.45-42.7-26.367-69.3-26.367s-50.867 9.917-69.3 26.367c-10.733 9.45-19.483 21-25.55 33.95-16.917 5.017-29.867 19.25-32.783 36.983-0.467 2.45-0.7 5.017-0.7 7.7s0.233 5.25 0.7 7.7c2.917 17.617 15.867 31.967 32.783 36.983 6.067 12.95 14.817 24.383 25.317 33.717 18.433 16.567 42.817 26.6 69.533 26.6s51.1-10.033 69.65-26.6c10.5-9.333 19.25-20.883 25.317-33.717 16.8-5.017 29.75-19.25 32.667-36.983v0zM221.667 163.333c-1.167 0-2.217-0.233-3.383-0.35-2.333 7.817-5.717 15.050-10.033 21.7-14.583 22.283-39.667 36.983-68.25 36.983s-53.667-14.7-68.25-36.983c-4.317-6.65-7.7-13.883-10.033-21.7-1.167 0.117-2.217 0.35-3.383 0.35-12.833 0-23.333-10.5-23.333-23.333s10.5-23.333 23.333-23.333c1.167 0 2.217 0.233 3.383 0.35 2.333-7.817 5.717-15.050 10.033-21.7 14.583-22.283 39.667-36.983 68.25-36.983s53.667 14.7 68.25 36.983c4.317 6.65 7.7 13.883 10.033 21.7 1.167-0.117 2.217-0.35 3.383-0.35 12.833 0 23.333 10.5 23.333 23.333s-10.5 23.333-23.333 23.333v0zM87.5 163.333c8.867 20.65 29.050 35 52.5 35s43.633-14.35 52.5-35h-105z"></path>
</svg>
