<!-- Generated by IcoMoon.io -->
<svg version="1.1" xmlns="http://www.w3.org/2000/svg" width="280" height="280" viewBox="0 0 280 280">
<title>mt-camera_alt</title>
<path fill="#37352f" d="M177.333 139.998c0 20.619-16.715 37.333-37.333 37.333s-37.333-16.715-37.333-37.333c0-20.619 16.715-37.333 37.333-37.333s37.333 16.715 37.333 37.333z"></path>
<path fill="#37352f" d="M105 23.333l-21.35 23.333h-36.983c-12.833 0-23.333 10.5-23.333 23.333v140c0 12.833 10.5 23.333 23.333 23.333h186.667c12.833 0 23.333-10.5 23.333-23.333v-140c0-12.833-10.5-23.333-23.333-23.333h-36.983l-21.35-23.333h-70zM140 198.333c-32.2 0-58.333-26.133-58.333-58.333s26.133-58.333 58.333-58.333c32.2 0 58.333 26.133 58.333 58.333s-26.133 58.333-58.333 58.333v0z"></path>
</svg>
