<!-- Generated by IcoMoon.io -->
<svg version="1.1" xmlns="http://www.w3.org/2000/svg" width="280" height="280" viewBox="0 0 280 280">
<title>mt-directions_boat</title>
<path fill="#37352f" d="M233.332 245c-16.217 0-32.433-5.483-46.667-15.4-28.467 19.95-64.867 19.95-93.334 0-14.233 9.917-30.45 15.4-46.667 15.4h-23.333v23.333h23.333c16.1 0 31.967-4.083 46.667-11.55 29.4 15.050 63.934 15.050 93.334 0 14.7 7.583 30.567 11.55 46.667 11.55h23.333v-23.333h-23.333zM46.082 221.667h0.583c18.667 0 35.233-10.267 46.667-23.333 11.433 13.067 28 23.333 46.667 23.333s35.233-10.267 46.667-23.333c11.433 13.067 28 23.333 46.667 23.333h0.583l22.050-77.933c0.933-3.033 0.7-6.3-0.7-9.1s-3.967-4.9-7-5.833l-14.933-4.9v-53.9c0-12.833-10.5-23.333-23.333-23.333h-35v-35h-70v35h-35c-12.833 0-23.333 10.5-23.333 23.333v53.9l-15.050 4.9c-3.033 0.933-5.6 3.033-7 5.833s-1.75 6.067-0.7 9.1l22.167 77.933zM69.999 70h140v46.317l-70-22.983-70 22.983v-46.317z"></path>
</svg>
