<!-- Generated by IcoMoon.io -->
<svg version="1.1" xmlns="http://www.w3.org/2000/svg" width="280" height="280" viewBox="0 0 280 280">
<title>mt-directions_bike</title>
<path fill="#37352f" d="M180.833 64.167c12.833 0 23.333-10.5 23.333-23.333s-10.5-23.333-23.333-23.333c-12.833 0-23.333 10.5-23.333 23.333s10.5 23.333 23.333 23.333v0zM58.333 140c-32.667 0-58.333 25.667-58.333 58.333s25.667 58.333 58.333 58.333c32.667 0 58.333-25.667 58.333-58.333s-25.667-58.333-58.333-58.333v0zM58.333 239.167c-22.167 0-40.833-18.667-40.833-40.833s18.667-40.833 40.833-40.833c22.167 0 40.833 18.667 40.833 40.833s-18.667 40.833-40.833 40.833v0zM126 122.5l28-28 9.333 9.333c15.167 15.167 35 24.5 59.5 24.5v-23.333c-17.5 0-31.5-7-42-17.5l-22.167-22.167c-5.833-4.667-11.667-7-18.667-7s-12.833 2.333-16.333 7l-32.667 32.667c-4.667 4.667-7 10.5-7 16.333 0 7 2.333 12.833 7 16.333l37.333 32.667v58.333h23.333v-72.333l-25.667-26.833zM221.667 140c-32.667 0-58.333 25.667-58.333 58.333s25.667 58.333 58.333 58.333c32.667 0 58.333-25.667 58.333-58.333s-25.667-58.333-58.333-58.333v0zM221.667 239.167c-22.167 0-40.833-18.667-40.833-40.833s18.667-40.833 40.833-40.833c22.167 0 40.833 18.667 40.833 40.833s-18.667 40.833-40.833 40.833v0z"></path>
</svg>
