<!-- Generated by IcoMoon.io -->
<svg version="1.1" xmlns="http://www.w3.org/2000/svg" width="280" height="280" viewBox="0 0 280 280">
<title>mt-edit_location</title>
<path fill="#37352f" d="M140 23.333c-45.033 0-81.667 36.633-81.667 81.667 0 61.25 81.667 151.667 81.667 151.667s81.667-90.417 81.667-151.667c0-45.033-36.633-81.667-81.667-81.667v0zM121.8 140h-16.8v-16.8l39.083-38.967 16.683 16.683-38.967 39.083zM173.717 88.083l-8.167 8.167-16.8-16.8 8.167-8.167c1.75-1.75 4.55-1.75 6.3 0l10.5 10.5c1.75 1.75 1.75 4.55 0 6.3v0z"></path>
</svg>
