<!-- Generated by IcoMoon.io -->
<svg version="1.1" xmlns="http://www.w3.org/2000/svg" width="280" height="280" viewBox="0 0 280 280">
<title>mt-format_list_bulleted</title>
<path fill="#37352f" d="M46.667 122.5c-9.683 0-17.5 7.817-17.5 17.5s7.817 17.5 17.5 17.5c9.683 0 17.5-7.817 17.5-17.5s-7.817-17.5-17.5-17.5v0zM46.667 52.5c-9.683 0-17.5 7.817-17.5 17.5s7.817 17.5 17.5 17.5c9.683 0 17.5-7.817 17.5-17.5s-7.817-17.5-17.5-17.5v0zM46.667 194.483c-8.633 0-15.517 7-15.517 15.517s7 15.517 15.517 15.517c8.517 0 15.517-7 15.517-15.517s-6.883-15.517-15.517-15.517v0zM81.667 221.667h163.333v-23.333h-163.333v23.333zM81.667 151.667h163.333v-23.333h-163.333v23.333zM81.667 58.333v23.333h163.333v-23.333h-163.333z"></path>
</svg>
