<!-- Generated by IcoMoon.io -->
<svg version="1.1" xmlns="http://www.w3.org/2000/svg" width="280" height="280" viewBox="0 0 280 280">
<title>mt-filter_9_plus</title>
<path fill="#37352f" d="M35 58.333h-23.333v186.667c0 12.833 10.5 23.333 23.333 23.333h186.667v-23.333h-186.667v-186.667zM163.333 140v-46.667c0-12.95-10.5-23.333-23.333-23.333h-11.667c-12.833 0-23.333 10.383-23.333 23.333v11.667c0 12.95 10.5 23.333 23.333 23.333h11.667v11.667h-35v23.333h35c12.833 0 23.333-10.383 23.333-23.333v0zM128.333 105v-11.667h11.667v11.667h-11.667zM245 11.667h-163.333c-12.833 0-23.333 10.5-23.333 23.333v163.333c0 12.833 10.5 23.333 23.333 23.333h163.333c12.833 0 23.333-10.5 23.333-23.333v-163.333c0-12.833-10.5-23.333-23.333-23.333v0zM245 105h-23.333v-23.333h-23.333v23.333h-23.333v23.333h23.333v23.333h23.333v-23.333h23.333v70h-163.333v-163.333h163.333v70z"></path>
</svg>
