<!-- Generated by IcoMoon.io -->
<svg version="1.1" xmlns="http://www.w3.org/2000/svg" width="280" height="280" viewBox="0 0 280 280">
<title>mt-flare</title>
<path fill="#37352f" d="M81.667 128.333h-70v23.333h70v-23.333zM106.983 90.533l-24.733-24.733-16.45 16.45 24.733 24.733 16.45-16.45zM151.667 11.667h-23.333v70h23.333v-70zM214.2 82.25l-16.45-16.45-24.733 24.733 16.45 16.45 24.733-24.733zM198.333 128.333v23.333h70v-23.333h-70zM140 105c-19.367 0-35 15.633-35 35s15.633 35 35 35c19.367 0 35-15.633 35-35s-15.633-35-35-35v0zM173.017 189.467l24.733 24.733 16.45-16.45-24.733-24.733-16.45 16.45zM65.8 197.75l16.45 16.45 24.733-24.733-16.45-16.45-24.733 24.733zM128.333 268.333h23.333v-70h-23.333v70z"></path>
</svg>
