<!-- Generated by IcoMoon.io -->
<svg version="1.1" xmlns="http://www.w3.org/2000/svg" width="280" height="280" viewBox="0 0 280 280">
<title>mt-format_color_fill</title>
<path fill="#37352f" d="M193.201 104.3l-104.301-104.3-16.45 16.45 27.767 27.767-60.083 60.083c-6.883 6.883-6.883 17.967 0 24.733l64.167 64.167c3.383 3.383 7.933 5.133 12.367 5.133s8.983-1.75 12.367-5.133l64.167-64.167c6.883-6.767 6.883-17.85 0-24.733v0zM60.784 116.667l55.884-55.883 55.883 55.883h-111.767zM198.335 175c0 12.833 10.5 23.333 23.333 23.333s23.333-10.5 23.333-23.333c0-15.517-23.333-40.833-23.333-40.833-11.667 20.417-23.333 25.317-23.333 40.833z"></path>
<path fill="#37352f" d="M0 233.333h280v46.667h-280v-46.667z"></path>
</svg>
