<!-- Generated by IcoMoon.io -->
<svg version="1.1" xmlns="http://www.w3.org/2000/svg" width="280" height="280" viewBox="0 0 280 280">
<title>mt-gps_off</title>
<path fill="#37352f" d="M244.3 128.333c-5.367-48.65-43.983-87.267-92.633-92.633v-24.033h-23.333v24.033c-13.183 1.4-25.55 5.367-36.867 11.317l17.5 17.5c9.567-3.967 20.067-6.183 31.033-6.183 45.15 0 81.667 36.517 81.667 81.667 0 10.967-2.217 21.467-6.067 30.917l17.5 17.5c5.833-11.2 9.8-23.567 11.317-36.75h23.917v-23.333h-24.033zM35 49.817l23.8 23.8c-12.483 15.283-20.883 34.067-23.1 54.717h-24.033v23.333h24.033c5.367 48.65 43.983 87.267 92.633 92.633v24.033h23.333v-24.033c20.65-2.333 39.433-10.617 54.717-23.1l23.8 23.8 14.817-14.817-195.183-195.183-14.817 14.817zM189.817 204.633c-13.767 10.617-31.033 17.033-49.817 17.033-45.15 0-81.667-36.517-81.667-81.667 0-18.783 6.417-36.050 17.033-49.817l114.45 114.45z"></path>
</svg>
