<!-- Generated by IcoMoon.io -->
<svg version="1.1" xmlns="http://www.w3.org/2000/svg" width="280" height="280" viewBox="0 0 280 280">
<title>mt-group_work</title>
<path fill="#37352f" d="M140 23.333c-64.4 0-116.667 52.267-116.667 116.667s52.267 116.667 116.667 116.667c64.4 0 116.667-52.267 116.667-116.667s-52.267-116.667-116.667-116.667v0zM93.333 204.167c-16.1 0-29.167-13.067-29.167-29.167s13.067-29.167 29.167-29.167c16.1 0 29.167 13.067 29.167 29.167s-13.067 29.167-29.167 29.167v0zM110.833 93.333c0-16.1 13.067-29.167 29.167-29.167s29.167 13.067 29.167 29.167c0 16.1-13.067 29.167-29.167 29.167s-29.167-13.067-29.167-29.167v0zM186.667 204.167c-16.1 0-29.167-13.067-29.167-29.167s13.067-29.167 29.167-29.167c16.1 0 29.167 13.067 29.167 29.167s-13.067 29.167-29.167 29.167v0z"></path>
</svg>
