<!-- Generated by IcoMoon.io -->
<svg version="1.1" xmlns="http://www.w3.org/2000/svg" width="280" height="280" viewBox="0 0 280 280">
<title>mt-group</title>
<path fill="#37352f" d="M186.667 128.333c19.367 0 34.883-15.633 34.883-35s-15.517-35-34.883-35c-19.367 0-35 15.633-35 35s15.633 35 35 35v0zM93.333 128.333c19.367 0 34.883-15.633 34.883-35s-15.517-35-34.883-35c-19.367 0-35 15.633-35 35s15.633 35 35 35v0zM93.333 151.667c-27.183 0-81.667 13.65-81.667 40.833v29.167h163.333v-29.167c0-27.183-54.483-40.833-81.667-40.833v0zM186.667 151.667c-3.383 0-7.233 0.233-11.317 0.583 13.533 9.8 22.983 22.983 22.983 40.25v29.167h70v-29.167c0-27.183-54.483-40.833-81.667-40.833v0z"></path>
</svg>
