<!-- Generated by IcoMoon.io -->
<svg version="1.1" xmlns="http://www.w3.org/2000/svg" width="280" height="280" viewBox="0 0 280 280">
<title>mt-grid_off</title>
<path fill="#37352f" d="M93.333 46.667v16.917l23.333 23.333v-40.25h46.667v46.667h-40.25l23.333 23.333h16.917v16.917l23.333 23.333v-40.25h46.667v46.667h-40.25l23.333 23.333h16.917v16.917l23.333 23.333v-180.25c0-12.833-10.5-23.333-23.333-23.333h-180.25l23.333 23.333h16.917zM186.667 46.667h46.667v46.667h-46.667v-46.667zM14.817 14.817l-14.817 14.933 23.333 23.333v180.25c0 12.833 10.5 23.333 23.333 23.333h180.367l23.333 23.333 14.817-14.817-250.367-250.366zM116.667 146.417l16.917 16.917h-16.917v-16.917zM46.667 76.417l16.917 16.917h-16.917v-16.917zM93.333 233.333h-46.667v-46.667h46.667v46.667zM93.333 163.333h-46.667v-46.667h40.25l6.417 6.417v40.25zM163.333 233.333h-46.667v-46.667h40.25l6.417 6.3v40.367zM186.667 233.333v-17.033l17.033 17.033h-17.033z"></path>
</svg>
