<!-- Generated by IcoMoon.io -->
<svg version="1.1" xmlns="http://www.w3.org/2000/svg" width="280" height="280" viewBox="0 0 280 280">
<title>mt-history</title>
<path fill="#37352f" d="M151.667 35c-57.983 0-105 47.017-105 105h-35l45.383 45.383 0.817 1.633 47.133-47.017h-35c0-45.15 36.517-81.667 81.667-81.667s81.667 36.517 81.667 81.667c0 45.15-36.517 81.667-81.667 81.667-22.517 0-42.933-9.217-57.633-24.033l-16.567 16.567c19.017 19.017 45.15 30.8 74.2 30.8 57.983 0 105-47.017 105-105s-47.017-105-105-105v0zM140 93.333v58.333l49.933 29.633 8.4-14.117-40.833-24.267v-49.583h-17.5z"></path>
</svg>
