<!-- Generated by IcoMoon.io -->
<svg version="1.1" xmlns="http://www.w3.org/2000/svg" width="280" height="280" viewBox="0 0 280 280">
<title>mt-high_quality</title>
<path fill="#37352f" d="M221.667 46.667h-163.333c-12.95 0-23.333 10.5-23.333 23.333v140c0 12.833 10.383 23.333 23.333 23.333h163.333c12.833 0 23.333-10.5 23.333-23.333v-140c0-12.833-10.5-23.333-23.333-23.333v0zM128.333 175h-17.5v-23.333h-23.333v23.333h-17.5v-70h17.5v29.167h23.333v-29.167h17.5v70zM210 163.333c0 6.417-5.25 11.667-11.667 11.667h-8.75v17.5h-17.5v-17.5h-8.75c-6.417 0-11.667-5.25-11.667-11.667v-46.667c0-6.417 5.25-11.667 11.667-11.667h35c6.417 0 11.667 5.25 11.667 11.667v46.667zM169.167 157.5h23.333v-35h-23.333v35z"></path>
</svg>
