<!-- Generated by IcoMoon.io -->
<svg version="1.1" xmlns="http://www.w3.org/2000/svg" width="280" height="280" viewBox="0 0 280 280">
<title>mt-highlight_off</title>
<path fill="#37352f" d="M170.217 93.333l-30.217 30.217-30.217-30.217-16.45 16.45 30.217 30.217-30.217 30.217 16.45 16.45 30.217-30.217 30.217 30.217 16.45-16.45-30.217-30.217 30.217-30.217-16.45-16.45zM140 23.333c-64.517 0-116.667 52.15-116.667 116.667s52.15 116.667 116.667 116.667c64.517 0 116.667-52.15 116.667-116.667s-52.15-116.667-116.667-116.667v0zM140 233.333c-51.45 0-93.333-41.883-93.333-93.333s41.883-93.333 93.333-93.333c51.45 0 93.333 41.883 93.333 93.333s-41.883 93.333-93.333 93.333v0z"></path>
</svg>
