<!-- Generated by IcoMoon.io -->
<svg version="1.1" xmlns="http://www.w3.org/2000/svg" width="280" height="280" viewBox="0 0 280 280">
<title>mt-keyboard_hide</title>
<path fill="#37352f" d="M233.333 35h-186.667c-12.833 0-23.217 10.5-23.217 23.333l-0.117 116.667c0 12.833 10.5 23.333 23.333 23.333h186.667c12.833 0 23.333-10.5 23.333-23.333v-116.667c0-12.833-10.5-23.333-23.333-23.333v0zM128.333 70h23.333v23.333h-23.333v-23.333zM128.333 105h23.333v23.333h-23.333v-23.333zM93.333 70h23.333v23.333h-23.333v-23.333zM93.333 105h23.333v23.333h-23.333v-23.333zM81.667 128.333h-23.333v-23.333h23.333v23.333zM81.667 93.333h-23.333v-23.333h23.333v23.333zM186.667 175h-93.333v-23.333h93.333v23.333zM186.667 128.333h-23.333v-23.333h23.333v23.333zM186.667 93.333h-23.333v-23.333h23.333v23.333zM221.667 128.333h-23.333v-23.333h23.333v23.333zM221.667 93.333h-23.333v-23.333h23.333v23.333zM140 268.333l46.667-46.667h-93.333l46.667 46.667z"></path>
</svg>
