<!-- Generated by IcoMoon.io -->
<svg version="1.1" xmlns="http://www.w3.org/2000/svg" width="280" height="280" viewBox="0 0 280 280">
<title>mt-leak_remove</title>
<path fill="#37352f" d="M116.667 35h-23.333c0 4.317-0.467 8.4-1.4 12.367l18.55 18.55c3.967-9.45 6.183-19.95 6.183-30.917v0zM35 49.817l33.133 33.133c-9.45 6.533-20.767 10.383-33.133 10.383v23.333c18.783 0 36.050-6.417 49.817-17.033l16.683 16.683c-18.2 14.817-41.3 23.683-66.5 23.683v23.333c31.617 0 60.55-11.55 82.95-30.567l29.167 29.167c-18.9 22.517-30.45 51.45-30.45 83.067h23.333c0-25.2 8.867-48.3 23.683-66.383l16.683 16.683c-10.617 13.65-17.033 30.917-17.033 49.7h23.333c0-12.367 3.85-23.683 10.383-33.133l33.133 33.133 14.817-14.817-195.183-195.183-14.817 14.817zM163.333 35h-23.333c0 17.5-4.317 33.95-11.9 48.533l17.033 17.033c11.433-19.133 18.2-41.533 18.2-65.567v0zM232.633 188.067c3.967-0.933 8.050-1.4 12.367-1.4v-23.333c-10.967 0-21.467 2.217-31.033 6.067l18.667 18.667zM179.433 134.867l17.033 17.033c14.583-7.583 31.033-11.9 48.533-11.9v-23.333c-24.033 0-46.433 6.767-65.567 18.2v0z"></path>
</svg>
