<!-- Generated by IcoMoon.io -->
<svg version="1.1" xmlns="http://www.w3.org/2000/svg" width="280" height="280" viewBox="0 0 280 280">
<title>mt-local_laundry_service</title>
<path fill="#37352f" d="M106.983 196.35c18.2 18.2 47.833 18.2 66.033 0s18.2-47.833 0-66.033l-66.033 66.033zM210 23.45l-140-0.117c-12.95 0-23.333 10.383-23.333 23.333v186.667c0 12.95 10.383 23.333 23.333 23.333h140c12.95 0 23.333-10.383 23.333-23.333v-186.667c0-12.95-10.383-23.217-23.333-23.217v0zM116.667 46.667c6.417 0 11.667 5.25 11.667 11.667s-5.25 11.667-11.667 11.667c-6.417 0-11.667-5.25-11.667-11.667s5.25-11.667 11.667-11.667v0zM81.667 46.667c6.417 0 11.667 5.25 11.667 11.667s-5.25 11.667-11.667 11.667c-6.417 0-11.667-5.25-11.667-11.667s5.25-11.667 11.667-11.667v0zM140 233.333c-38.617 0-70-31.383-70-70s31.383-70 70-70c38.617 0 70 31.383 70 70s-31.383 70-70 70v0z"></path>
</svg>
