<!-- Generated by IcoMoon.io -->
<svg version="1.1" xmlns="http://www.w3.org/2000/svg" width="280" height="280" viewBox="0 0 280 280">
<title>mt-laptop_mac</title>
<path fill="#37352f" d="M233.333 210c12.833 0 23.217-10.5 23.217-23.333l0.117-128.333c0-12.833-10.5-23.333-23.333-23.333h-186.667c-12.833 0-23.333 10.5-23.333 23.333v128.333c0 12.833 10.5 23.333 23.333 23.333h-46.667c0 12.833 10.5 23.333 23.333 23.333h233.333c12.833 0 23.333-10.5 23.333-23.333h-46.667zM46.667 58.333h186.667v128.333h-186.667v-128.333zM140 221.667c-6.417 0-11.667-5.25-11.667-11.667s5.25-11.667 11.667-11.667c6.417 0 11.667 5.25 11.667 11.667s-5.25 11.667-11.667 11.667v0z"></path>
</svg>
