<!-- Generated by IcoMoon.io -->
<svg version="1.1" xmlns="http://www.w3.org/2000/svg" width="280" height="280" viewBox="0 0 280 280">
<title>mt-mood</title>
<path fill="#37352f" d="M139.883 23.333c-64.4 0-116.55 52.267-116.55 116.667s52.15 116.667 116.55 116.667c64.517 0 116.783-52.267 116.783-116.667s-52.267-116.667-116.783-116.667v0zM140 233.333c-51.567 0-93.333-41.767-93.333-93.333s41.767-93.333 93.333-93.333c51.567 0 93.333 41.767 93.333 93.333s-41.767 93.333-93.333 93.333v0zM180.833 128.333c9.683 0 17.5-7.817 17.5-17.5s-7.817-17.5-17.5-17.5c-9.683 0-17.5 7.817-17.5 17.5s7.817 17.5 17.5 17.5v0zM99.167 128.333c9.683 0 17.5-7.817 17.5-17.5s-7.817-17.5-17.5-17.5c-9.683 0-17.5 7.817-17.5 17.5s7.817 17.5 17.5 17.5v0zM140 204.167c27.183 0 50.283-17.033 59.617-40.833h-119.233c9.333 23.8 32.433 40.833 59.617 40.833v0z"></path>
</svg>
