<!-- Generated by IcoMoon.io -->
<svg version="1.1" xmlns="http://www.w3.org/2000/svg" width="280" height="280" viewBox="0 0 280 280">
<title>mt-notifications_none</title>
<path fill="#37352f" d="M140 256.667c12.833 0 23.333-10.5 23.333-23.333h-46.667c0 12.833 10.5 23.333 23.333 23.333v0zM210 186.667v-58.333c0-35.817-19.017-65.8-52.5-73.733v-7.933c0-9.683-7.817-17.5-17.5-17.5s-17.5 7.817-17.5 17.5v7.933c-33.367 7.933-52.5 37.8-52.5 73.733v58.333l-23.333 23.333v11.667h186.667v-11.667l-23.333-23.333zM186.667 198.333h-93.333v-70c0-28.933 17.617-52.5 46.667-52.5s46.667 23.567 46.667 52.5v70z"></path>
</svg>
