<!-- Generated by IcoMoon.io -->
<svg version="1.1" xmlns="http://www.w3.org/2000/svg" width="280" height="280" viewBox="0 0 280 280">
<title>mt-notifications_active</title>
<path fill="#37352f" d="M88.434 47.6l-16.683-16.683c-28 21.35-46.433 54.25-48.067 91.583h23.333c1.75-30.917 17.617-57.983 41.417-74.9v0zM232.983 122.5h23.333c-1.75-37.333-20.183-70.233-48.067-91.583l-16.567 16.683c23.567 16.917 39.55 43.983 41.3 74.9v0zM210 128.333c0-35.817-19.133-65.8-52.5-73.733v-7.933c0-9.683-7.817-17.5-17.5-17.5s-17.5 7.817-17.5 17.5v7.933c-33.483 7.933-52.5 37.8-52.5 73.733v58.333l-23.333 23.333v11.667h186.666v-11.667l-23.333-23.333v-58.333zM140 256.667c1.633 0 3.15-0.117 4.667-0.467 7.583-1.633 13.767-6.767 16.8-13.767 1.167-2.8 1.75-5.833 1.75-9.1h-46.666c0.116 12.833 10.5 23.333 23.45 23.333v0z"></path>
</svg>
