<!-- Generated by IcoMoon.io -->
<svg version="1.1" xmlns="http://www.w3.org/2000/svg" width="280" height="280" viewBox="0 0 280 280">
<title>mt-phonelink_ring</title>
<path fill="#37352f" d="M234.5 89.833l-11.667 11.667c21 21 21 53.667 0 75.833l11.667 11.667c29.167-26.833 29.167-71.167 0-99.167v0zM210 114.333l-11.667 11.667c5.833 8.167 5.833 18.667 0 26.833l11.667 11.667c14-14 14-35 0-50.167v0zM163.333 11.667h-116.667c-12.833 0-23.333 10.5-23.333 23.333v210c0 12.833 10.5 23.333 23.333 23.333h116.667c12.833 0 23.333-10.5 23.333-23.333v-210c0-12.833-10.5-23.333-23.333-23.333v0zM163.333 233.333h-116.667v-186.667h116.667v186.667z"></path>
</svg>
