<!-- Generated by IcoMoon.io -->
<svg version="1.1" xmlns="http://www.w3.org/2000/svg" width="280" height="280" viewBox="0 0 280 280">
<title>mt-perm_media</title>
<path fill="#37352f" d="M23.333 70h-23.333v58.333h0.117l-0.117 105c0 12.833 10.5 23.333 23.333 23.333h210v-23.333h-210v-163.333zM256.667 46.667h-93.333l-23.333-23.333h-70c-12.833 0-23.217 10.5-23.217 23.333l-0.117 140c0 12.833 10.5 23.333 23.333 23.333h186.667c12.833 0 23.333-10.5 23.333-23.333v-116.667c0-12.833-10.5-23.333-23.333-23.333v0zM81.667 175l52.5-70 40.833 52.617 29.167-35.117 40.833 52.5h-163.333z"></path>
</svg>
