<!-- Generated by IcoMoon.io -->
<svg version="1.1" xmlns="http://www.w3.org/2000/svg" width="280" height="280" viewBox="0 0 280 280">
<title>mt-person_pin_circle</title>
<path fill="#37352f" d="M140 23.333c-45.033 0-81.667 36.633-81.667 81.667 0 61.25 81.667 151.667 81.667 151.667s81.667-90.417 81.667-151.667c0-45.033-36.633-81.667-81.667-81.667v0zM140 46.667c12.833 0 23.333 10.5 23.333 23.333 0 12.95-10.5 23.333-23.333 23.333s-23.333-10.383-23.333-23.333c0-12.833 10.5-23.333 23.333-23.333v0zM140 163.333c-19.483 0-36.633-9.917-46.667-25.083 0.233-15.4 31.15-23.917 46.667-23.917s46.433 8.517 46.667 23.917c-10.033 15.167-27.183 25.083-46.667 25.083v0z"></path>
</svg>
