<!-- Generated by IcoMoon.io -->
<svg version="1.1" xmlns="http://www.w3.org/2000/svg" width="280" height="280" viewBox="0 0 280 280">
<title>mt-person_pin</title>
<path fill="#37352f" d="M221.667 23.333h-163.333c-12.95 0-23.333 10.5-23.333 23.333v163.333c0 12.833 10.383 23.333 23.333 23.333h46.667l35 35 35-35h46.667c12.833 0 23.333-10.5 23.333-23.333v-163.333c0-12.833-10.5-23.333-23.333-23.333v0zM140 61.833c17.383 0 31.5 14.117 31.5 31.5s-14.117 31.5-31.5 31.5c-17.383 0-31.5-14.117-31.5-31.5s14.117-31.5 31.5-31.5v0zM210 186.667h-140v-10.5c0-23.333 46.667-36.167 70-36.167s70 12.833 70 36.167v10.5z"></path>
</svg>
