<!-- Generated by IcoMoon.io -->
<svg version="1.1" xmlns="http://www.w3.org/2000/svg" width="280" height="280" viewBox="0 0 280 280">
<title>mt-recent_actors</title>
<path fill="#37352f" d="M245 58.333v163.333h23.333v-163.333h-23.333zM198.333 221.667h23.333v-163.333h-23.333v163.333zM163.333 58.333h-140c-6.417 0-11.667 5.25-11.667 11.667v140c0 6.417 5.25 11.667 11.667 11.667h140c6.417 0 11.667-5.25 11.667-11.667v-140c0-6.417-5.25-11.667-11.667-11.667v0zM93.333 90.417c14.467 0 26.25 11.783 26.25 26.25s-11.783 26.25-26.25 26.25c-14.467 0-26.25-11.783-26.25-26.25s11.783-26.25 26.25-26.25v0zM145.833 198.333h-105v-8.75c0-17.5 35-26.25 52.5-26.25s52.5 8.75 52.5 26.25v8.75z"></path>
</svg>
