<!-- Generated by IcoMoon.io -->
<svg version="1.1" xmlns="http://www.w3.org/2000/svg" width="280" height="280" viewBox="0 0 280 280">
<title>mt-rotate_right</title>
<path fill="#37352f" d="M181.417 64.75l-53.083-53.083v35.817c-45.967 5.717-81.667 44.917-81.667 92.517s35.583 86.8 81.667 92.517v-23.567c-33.133-5.6-58.333-34.3-58.333-68.95s25.2-63.35 58.333-68.95v45.617l53.083-51.917zM232.517 128.333c-1.983-16.217-8.4-31.85-18.9-45.383l-16.567 16.567c6.3 8.75 10.267 18.667 11.9 28.817h23.567zM151.667 208.833v23.567c16.217-1.983 31.967-8.283 45.5-18.783l-16.8-16.8c-8.75 6.3-18.55 10.383-28.7 12.017v0zM197.050 180.6l16.567 16.45c10.5-13.533 16.917-29.167 18.9-45.383h-23.567c-1.633 10.15-5.6 20.067-11.9 28.933v0z"></path>
</svg>
