<!-- Generated by IcoMoon.io -->
<svg version="1.1" xmlns="http://www.w3.org/2000/svg" width="280" height="280" viewBox="0 0 280 280">
<title>mt-screen_lock_portrait</title>
<path fill="#37352f" d="M116.667 186.667h46.667c6.417 0 11.667-5.25 11.667-11.667v-35c0-6.417-5.25-11.667-11.667-11.667v-11.667c0-12.95-10.5-23.333-23.333-23.333-12.95 0-23.333 10.5-23.333 23.333v11.667c-6.417 0-11.667 5.25-11.667 11.667v35c0 6.417 5.25 11.667 11.667 11.667v0zM126 116.667c0-7.7 6.3-14 14-14s14 6.3 14 14v11.667h-28v-11.667zM198.333 11.667h-116.667c-12.833 0-23.333 10.5-23.333 23.333v210c0 12.833 10.5 23.333 23.333 23.333h116.667c12.833 0 23.333-10.5 23.333-23.333v-210c0-12.833-10.5-23.333-23.333-23.333v0zM198.333 221.667h-116.667v-163.333h116.667v163.333z"></path>
</svg>
