<!-- Generated by IcoMoon.io -->
<svg version="1.1" xmlns="http://www.w3.org/2000/svg" width="280" height="280" viewBox="0 0 280 280">
<title>mt-sync_problem</title>
<path fill="#37352f" d="M35 140c0 25.783 10.617 49 27.533 65.8l-27.533 27.533h70v-70l-26.133 26.133c-12.6-12.717-20.533-30.1-20.533-49.467 0-30.45 19.483-56.35 46.667-65.917v-24.383c-40.25 10.383-70 46.783-70 90.3v0zM128.333 198.333h23.333v-23.333h-23.333v23.333zM245 46.667h-70v70l26.133-26.133c12.6 12.717 20.533 30.1 20.533 49.467 0 30.45-19.483 56.35-46.667 65.917v24.383c40.25-10.383 70-46.783 70-90.3 0-25.783-10.617-49-27.533-65.8l27.533-27.533zM128.333 151.667h23.333v-70h-23.333v70z"></path>
</svg>
