<!-- Generated by IcoMoon.io -->
<svg version="1.1" xmlns="http://www.w3.org/2000/svg" width="280" height="280" viewBox="0 0 280 280">
<title>mt-speaker</title>
<path fill="#37352f" d="M198.333 23.333h-116.667c-12.833 0-23.333 10.5-23.333 23.333v186.667c0 12.833 10.5 23.217 23.333 23.217l116.667 0.117c12.833 0 23.333-10.5 23.333-23.333v-186.667c0-12.833-10.5-23.333-23.333-23.333v0zM140 46.667c12.833 0 23.333 10.5 23.333 23.333s-10.5 23.333-23.333 23.333c-12.95 0-23.333-10.5-23.333-23.333s10.383-23.333 23.333-23.333v0zM140 233.333c-32.2 0-58.333-26.133-58.333-58.333s26.133-58.333 58.333-58.333c32.2 0 58.333 26.133 58.333 58.333s-26.133 58.333-58.333 58.333v0zM140 140c-19.367 0-35 15.633-35 35s15.633 35 35 35c19.367 0 35-15.633 35-35s-15.633-35-35-35v0z"></path>
</svg>
