<!-- Generated by IcoMoon.io -->
<svg version="1.1" xmlns="http://www.w3.org/2000/svg" width="280" height="280" viewBox="0 0 280 280">
<title>mt-translate</title>
<path fill="#37352f" d="M150.15 175.817l-29.633-29.283 0.35-0.35c20.3-22.633 34.767-48.65 43.283-76.183h34.183v-23.333h-81.667v-23.333h-23.333v23.333h-81.667v23.217h130.317c-7.817 22.517-20.183 43.867-36.983 62.533-10.85-12.017-19.833-25.2-26.95-39.083h-23.333c8.517 19.017 20.183 36.983 34.767 53.2l-59.383 58.567 16.567 16.567 58.333-58.333 36.283 36.283 8.867-23.8zM215.833 116.667h-23.333l-52.5 140h23.333l13.067-35h55.417l13.183 35h23.333l-52.5-140zM185.267 198.333l18.9-50.517 18.9 50.517h-37.8z"></path>
</svg>
