<!-- Generated by IcoMoon.io -->
<svg version="1.1" xmlns="http://www.w3.org/2000/svg" width="280" height="280" viewBox="0 0 280 280">
<title>mt-timer_3</title>
<path fill="#37352f" d="M135.449 151.315c-1.867-2.8-4.2-5.367-7.233-7.583-2.917-2.217-6.533-4.083-10.85-5.6 3.5-1.633 6.65-3.5 9.333-5.833s4.9-4.783 6.65-7.467c1.75-2.683 3.15-5.367 3.967-8.283 0.933-2.8 1.283-5.717 1.283-8.517 0-6.417-1.050-12.133-3.267-17.033-2.1-4.9-5.133-8.983-9.1-12.367-3.85-3.267-8.517-5.833-13.999-7.467-5.25-1.517-11.317-2.333-17.85-2.333-6.417 0-12.367 0.933-17.733 2.8-5.483 1.983-10.15 4.667-14 8.050s-7 7.35-9.1 12.017c-2.333 4.55-3.383 9.683-3.383 15.050h23.1c0-3.033 0.583-5.717 1.633-8.050s2.567-4.433 4.433-6.067c1.983-1.633 4.2-2.917 6.767-3.85s5.367-1.4 8.517-1.4c7.117 0 12.367 1.867 15.867 5.483s5.133 8.75 5.133 15.4c0 3.15-0.467 6.067-1.4 8.633s-2.45 4.783-4.433 6.65c-1.983 1.867-4.433 3.267-7.35 4.317s-6.417 1.517-10.383 1.517h-13.65v18.317h13.767c3.967 0 7.467 0.467 10.617 1.283 3.15 0.933 5.833 2.217 8.050 4.083s3.967 4.2 5.133 7.117c1.166 2.8 1.866 6.3 1.866 10.15 0 7.233-2.099 12.717-6.183 16.567s-9.8 5.717-16.917 5.717c-3.383 0-6.533-0.467-9.333-1.517-2.8-0.933-5.133-2.333-7.117-4.2s-3.5-3.967-4.55-6.533c-1.050-2.567-1.633-5.367-1.633-8.4h-23.217c0 6.417 1.283 12.017 3.733 16.917s5.833 8.983 10.033 12.25c4.2 3.267 8.983 5.717 14.467 7.35s11.2 2.45 17.267 2.45c6.65 0 12.717-0.933 18.433-2.683s10.616-4.433 14.699-7.933c4.2-3.5 7.467-7.7 9.8-12.833 2.333-5.017 3.5-10.85 3.5-17.267 0-3.383-0.467-6.767-1.283-10.033-0.933-2.917-2.217-5.95-4.083-8.867v0zM243.482 167.649c-1.633-3.267-4.083-6.183-7.35-8.633s-7.117-4.55-11.783-6.183c-4.667-1.633-9.917-3.15-15.75-4.433-4.083-0.817-7.467-1.75-10.15-2.683s-4.783-1.867-6.417-2.917c-1.633-1.050-2.683-2.217-3.267-3.5s-0.933-2.8-0.933-4.55c0-1.75 0.35-3.267 1.050-4.783s1.75-2.917 3.15-3.967c1.4-1.167 3.15-2.1 5.25-2.8s4.667-1.050 7.467-1.050c2.917 0 5.483 0.467 7.7 1.283s4.083 1.983 5.6 3.383c1.517 1.4 2.567 3.033 3.383 4.9 0.7 1.867 1.167 3.733 1.167 5.717h22.75c0-4.55-0.933-8.75-2.8-12.717s-4.55-7.35-8.050-10.267c-3.5-2.917-7.7-5.133-12.717-6.883s-10.733-2.567-17.033-2.567c-5.95 0-11.433 0.817-16.217 2.45s-8.983 3.85-12.367 6.65c-3.383 2.8-5.95 6.067-7.817 9.8s-2.683 7.583-2.683 11.783c0 4.2 0.933 7.933 2.683 11.2s4.317 6.067 7.467 8.517c3.15 2.45 7 4.433 11.433 6.183 4.433 1.633 9.45 3.033 14.817 4.2 4.55 0.933 8.283 1.983 11.083 3.033s5.017 2.217 6.65 3.383c1.517 1.167 2.567 2.567 3.15 3.967s0.817 2.917 0.817 4.55c0 3.733-1.517 6.65-4.667 8.983s-7.7 3.383-13.65 3.383c-2.567 0-5.017-0.233-7.467-0.933-2.45-0.583-4.667-1.517-6.533-2.8-1.983-1.283-3.5-3.033-4.783-5.133s-1.983-4.783-2.1-7.817h-22.050c0 4.2 0.933 8.283 2.8 12.25s4.55 7.583 8.167 10.85c3.617 3.15 8.050 5.717 13.417 7.7s11.433 2.917 18.433 2.917c6.183 0 11.783-0.7 16.8-2.217s9.333-3.617 12.95-6.3c3.617-2.683 6.3-5.95 8.283-9.683s2.917-7.817 2.917-12.367c-0.233-4.667-1.050-8.633-2.8-11.9v0z"></path>
</svg>
