<!-- Generated by IcoMoon.io -->
<svg version="1.1" xmlns="http://www.w3.org/2000/svg" width="280" height="280" viewBox="0 0 280 280">
<title>mt-timeline</title>
<path fill="#37352f" d="M268.333 93.333c0 12.833-10.5 23.333-23.333 23.333-2.1 0-4.083-0.233-5.95-0.817l-41.533 41.417c0.583 1.867 0.817 3.967 0.817 6.067 0 12.833-10.5 23.333-23.333 23.333s-23.333-10.5-23.333-23.333c0-2.1 0.233-4.2 0.817-6.067l-29.75-29.75c-1.867 0.583-3.967 0.817-6.067 0.817s-4.2-0.233-6.067-0.817l-53.083 53.2c0.583 1.867 0.817 3.85 0.817 5.95 0 12.833-10.5 23.333-23.333 23.333s-23.333-10.5-23.333-23.333c0-12.833 10.5-23.333 23.333-23.333 2.1 0 4.083 0.233 5.95 0.817l53.2-53.083c-0.583-1.867-0.817-3.967-0.817-6.067 0-12.833 10.5-23.333 23.333-23.333s23.333 10.5 23.333 23.333c0 2.1-0.233 4.2-0.817 6.067l29.75 29.75c1.867-0.583 3.967-0.817 6.067-0.817s4.2 0.233 6.067 0.817l41.417-41.533c-0.583-1.867-0.817-3.85-0.817-5.95 0-12.833 10.5-23.333 23.333-23.333s23.333 10.5 23.333 23.333v0z"></path>
</svg>
