<!-- Generated by IcoMoon.io -->
<svg version="1.1" xmlns="http://www.w3.org/2000/svg" width="280" height="280" viewBox="0 0 280 280">
<title>mt-wb_auto</title>
<path fill="#37352f" d="M79.917 147.583h26.833l-13.417-42.583-13.417 42.583zM256.667 81.667l-14 73.383-17.5-73.383h-18.667l-17.383 73.383-14.117-73.383h-8.867c-17.15-21.35-43.283-35-72.8-35-51.567 0-93.333 41.767-93.333 93.333s41.767 93.333 93.333 93.333c36.517 0 68.133-21.117 83.417-51.683l1.167 5.017h20.417l17.5-71.167 17.5 71.167h20.417l23.917-105h-21zM120.167 186.667l-8.167-23.333h-37.333l-8.167 23.333h-22.167l37.333-105h23.333l37.333 105h-22.167z"></path>
</svg>
