<!-- Generated by IcoMoon.io -->
<svg version="1.1" xmlns="http://www.w3.org/2000/svg" width="280" height="280" viewBox="0 0 280 280">
<title>mt-youtube_searched_for</title>
<path fill="#37352f" d="M198.45 163.333h-9.333l-3.15-3.15c11.433-13.3 18.317-30.45 18.317-49.35 0-41.883-33.95-75.833-75.833-75.833s-75.833 35-75.833 75.833h-29.283l44.8 46.667 48.533-46.667h-40.717c0-29.167 23.567-52.5 52.5-52.5s52.5 23.45 52.5 52.5c0 28.933-23.567 52.5-52.5 52.5-7.583 0-14.7-1.633-21.233-4.433l-17.267 17.267c11.317 6.65 24.383 10.5 38.5 10.5 18.783 0 35.933-6.883 49.233-18.317l3.15 3.15v9.217l58.45 58.217 17.383-17.267-58.217-58.333z"></path>
</svg>
