<!-- Generated by IcoMoon.io -->
<svg version="1.1" xmlns="http://www.w3.org/2000/svg" width="280" height="280" viewBox="0 0 280 280">
<title>mt-zoom_in</title>
<path fill="#37352f" d="M180.833 163.333h-9.217l-3.267-3.15c11.433-13.3 18.317-30.567 18.317-49.35 0-41.883-33.95-75.833-75.833-75.833s-75.833 33.95-75.833 75.833c0 41.883 33.95 75.833 75.833 75.833 18.783 0 36.050-6.883 49.35-18.317l3.15 3.267v9.217l58.333 58.217 17.383-17.383-58.217-58.333zM110.833 163.333c-29.050 0-52.5-23.45-52.5-52.5s23.45-52.5 52.5-52.5c29.050 0 52.5 23.45 52.5 52.5s-23.45 52.5-52.5 52.5v0z"></path>
<path fill="#37352f" d="M140 116.667h-23.333v23.333h-11.667v-23.333h-23.333v-11.667h23.333v-23.333h11.667v23.333h23.333v11.667z"></path>
</svg>
