<!-- Generated by IcoMoon.io -->
<svg version="1.1" xmlns="http://www.w3.org/2000/svg" width="280" height="280" viewBox="0 0 280 280">
<title>ul-atom</title>
<path fill="#37352f" d="M140 128.333c-6.443 0-11.667 5.223-11.667 11.667s5.223 11.667 11.667 11.667c6.443 0 11.667-5.223 11.667-11.667v0c0-6.443-5.223-11.667-11.667-11.667v0zM228.9 140l1.283-1.633c15.75-21.7 19.483-41.65 10.85-56.7s-28-21.7-54.367-19.017h-2.1c-10.617-24.15-26.367-39.317-44.567-39.317s-33.95 15.167-44.45 39.667l-2.217-0.35c-26.367-2.683-45.733 3.967-54.367 19.017s-4.9 35 10.85 56.7l1.283 1.633-1.283 1.633c-15.75 21.7-19.483 41.65-10.85 56.7 7.7 12.833 22.517 19.6 42.7 19.6 3.617 0 7.35 0 11.667-0.583h2.1c10.617 24.15 26.367 39.317 44.567 39.317s33.95-15.167 44.45-39.667h2.1c3.967 0 7.7 0.583 11.667 0.583 20.65 0 35.817-6.767 43.167-19.6 8.633-15.050 4.9-35-10.85-56.7zM59.15 93.333c2.917-5.133 11.667-7.933 23.333-7.933h5.717c-1.621 6.017-3.054 13.419-3.997 20.973l-0.086 0.844c-6.228 4.735-11.745 9.512-16.945 14.611l0.028-0.028c-8.867-11.667-11.433-22.633-8.050-28.467zM59.15 186.667c-3.383-5.833 0-16.8 7.817-28.817 5.172 5.071 10.688 9.848 16.49 14.271l0.427 0.312c1.030 8.444 2.463 15.886 4.351 23.145l-0.268-1.212c-14.467 0.933-25.433-1.867-28.817-7.7zM140 46.667c6.533 0 14.35 7.7 21 21.35-8.589 2.496-15.563 4.998-22.351 7.855l1.351-0.505c-5.437-2.352-12.411-4.854-19.547-6.979l-1.453-0.371c6.65-13.65 14.467-21.35 21-21.35zM140 233.333c-6.533 0-14.35-7.7-21-21.35 8.589-2.496 15.563-4.998 22.351-7.855l-1.351 0.505c5.437 2.352 12.411 4.854 19.547 6.979l1.453 0.371c-6.65 13.65-14.467 21.35-21 21.35zM174.183 159.717c-5.367 3.733-10.85 7.233-16.683 10.617s-11.667 6.417-17.5 9.1q-8.75-4.083-17.5-9.1c-5.833-3.383-11.667-6.883-16.683-10.617-0.817-6.3-0.817-12.833-0.817-19.717s0-13.417 0.817-19.717c5.367-3.733 10.85-7.233 16.683-10.617s11.667-6.417 17.5-9.1q8.75 4.083 17.5 9.1c5.833 3.383 11.667 6.883 16.683 10.617 0 6.3 0.817 12.833 0.817 19.717s0 13.417-0.817 19.717zM220.85 186.667c-3.383 5.833-14.35 8.75-28.817 7.7 1.621-6.047 3.053-13.489 3.997-21.083l0.086-0.85c6.228-4.735 11.745-9.512 16.945-14.611l-0.028 0.028c8.633 12.017 11.2 22.983 7.817 28.817zM213.033 122.15c-5.172-5.071-10.688-9.848-16.49-14.271l-0.427-0.312c-1.030-8.398-2.462-15.799-4.35-23.017l0.267 1.2h5.717c11.667 0 20.183 2.8 23.333 7.933s0.583 16.45-8.050 28.467z"></path>
</svg>
