<!-- Generated by IcoMoon.io -->
<svg version="1.1" xmlns="http://www.w3.org/2000/svg" width="280" height="280" viewBox="0 0 280 280">
<title>ul-ambulance</title>
<path fill="#37352f" d="M122.5 110.833h-11.667v-11.667c0-6.443-5.223-11.667-11.667-11.667s-11.667 5.223-11.667 11.667v0 11.667h-11.667c-6.443 0-11.667 5.223-11.667 11.667s5.223 11.667 11.667 11.667v0h11.667v11.667c0 6.443 5.223 11.667 11.667 11.667s11.667-5.223 11.667-11.667v0-11.667h11.667c6.443 0 11.667-5.223 11.667-11.667s-5.223-11.667-11.667-11.667v0zM267.517 135.917l-0.7-1.283c-0.22-0.623-0.496-1.163-0.833-1.658l0.016 0.025-28-37.333c-6.453-8.539-16.589-14-28-14v0h-23.333v-11.667c0-19.33-15.67-35-35-35v0h-105c-19.33 0-35 15.67-35 35v0 128.333c0 6.443 5.223 11.667 11.667 11.667v0h11.667c0 19.33 15.67 35 35 35s35-15.67 35-35v0h70c0 19.33 15.67 35 35 35s35-15.67 35-35v0h11.667c6.443 0 11.667-5.223 11.667-11.667v0-58.333c-0.027-1.477-0.325-2.876-0.845-4.162l0.028 0.078zM70 221.667c-6.443 0-11.667-5.223-11.667-11.667s5.223-11.667 11.667-11.667c6.443 0 11.667 5.223 11.667 11.667v0c0 6.443-5.223 11.667-11.667 11.667v0zM163.333 186.667h-67.433c-6.426-7.051-15.648-11.459-25.9-11.459s-19.474 4.408-25.875 11.431l-0.025 0.028h-9.1v-116.667c0-6.443 5.223-11.667 11.667-11.667v0h105c6.443 0 11.667 5.223 11.667 11.667v0zM186.667 105h23.333c3.804 0 7.182 1.82 9.312 4.637l0.021 0.029 14 18.667h-46.667zM210 221.667c-6.443 0-11.667-5.223-11.667-11.667s5.223-11.667 11.667-11.667c6.443 0 11.667 5.223 11.667 11.667v0c0 6.443-5.223 11.667-11.667 11.667v0zM245 186.667h-9.1c-6.427-7.058-15.653-11.47-25.91-11.47-8.975 0-17.161 3.378-23.356 8.932l0.033-0.029v-32.433h58.333z"></path>
</svg>
