<!-- Generated by IcoMoon.io -->
<svg version="1.1" xmlns="http://www.w3.org/2000/svg" width="280" height="280" viewBox="0 0 280 280">
<title>ul-angle-right</title>
<path fill="#37352f" d="M173.017 131.717l-49.467-49.467c-2.114-2.131-5.045-3.451-8.283-3.451s-6.169 1.32-8.283 3.45l-0.001 0.001c-2.097 2.109-3.393 5.016-3.393 8.225s1.296 6.116 3.393 8.226l41.299 41.299-41.3 41.3c-2.097 2.109-3.393 5.016-3.393 8.225s1.296 6.116 3.393 8.226l-0.001-0.001c2.108 2.091 5.011 3.384 8.216 3.384 0.024 0 0.047 0 0.071-0h-0.004c0.020 0 0.044 0 0.068 0 3.205 0 6.108-1.292 8.217-3.384l49.466-49.466c2.131-2.114 3.451-5.045 3.451-8.283s-1.32-6.169-3.45-8.283l-0.001-0.001z"></path>
</svg>
