<!-- Generated by IcoMoon.io -->
<svg version="1.1" xmlns="http://www.w3.org/2000/svg" width="280" height="280" viewBox="0 0 280 280">
<title>ul-arrow-random</title>
<path fill="#37352f" d="M101.5 116.667c2.109 2.097 5.016 3.393 8.225 3.393s6.116-1.296 8.226-3.393l-0.001 0.001c2.097-2.109 3.393-5.016 3.393-8.225s-1.296-6.116-3.393-8.226l0.001 0.001-73.15-73.5c-2.12-2.12-5.048-3.431-8.283-3.431-6.47 0-11.714 5.245-11.714 11.714 0 3.235 1.311 6.164 3.431 8.283v0zM245 163.333c-6.443 0-11.667 5.223-11.667 11.667v0 41.883l-53.2-53.55c-2.15-2.15-5.12-3.479-8.4-3.479-6.561 0-11.879 5.319-11.879 11.879 0 3.28 1.33 6.25 3.479 8.4v0l53.55 53.2h-41.883c-6.443 0-11.667 5.223-11.667 11.667s5.223 11.667 11.667 11.667v0h70c1.606-0.020 3.127-0.361 4.509-0.963l-0.075 0.029c2.86-1.209 5.091-3.44 6.271-6.223l0.029-0.077c0.572-1.306 0.913-2.827 0.933-4.426v-70.007c0-6.443-5.223-11.667-11.667-11.667v0zM255.733 30.567c-1.209-2.86-3.44-5.091-6.223-6.271l-0.077-0.029c-1.306-0.572-2.827-0.913-4.426-0.933h-70.007c-6.443 0-11.667 5.223-11.667 11.667s5.223 11.667 11.667 11.667v0h41.883l-190.167 190.050c-2.131 2.114-3.451 5.045-3.451 8.283s1.32 6.169 3.45 8.283l0.001 0.001c2.114 2.131 5.045 3.451 8.283 3.451s6.169-1.32 8.283-3.45l190.051-190.168v41.883c0 6.443 5.223 11.667 11.667 11.667s11.667-5.223 11.667-11.667v0-70c-0.020-1.606-0.361-3.127-0.963-4.509l0.029 0.075z"></path>
</svg>
