<!-- Generated by IcoMoon.io -->
<svg version="1.1" xmlns="http://www.w3.org/2000/svg" width="280" height="280" viewBox="0 0 280 280">
<title>ul-annoyed</title>
<path fill="#37352f" d="M105 105c-6.443 0-11.667 5.223-11.667 11.667s5.223 11.667 11.667 11.667c6.443 0 11.667-5.223 11.667-11.667v0c0-6.443-5.223-11.667-11.667-11.667v0zM175 151.667c-0.001 0-0.002 0-0.002 0-21.808 0-40.82 11.967-50.83 29.692l-0.151 0.291c-0.957 1.656-1.521 3.642-1.521 5.761 0 4.297 2.323 8.052 5.783 10.076l0.055 0.030c1.644 0.948 3.614 1.51 5.715 1.517h0.002c4.335-0.008 8.115-2.379 10.12-5.893l0.030-0.057c6.083-10.862 17.518-18.084 30.641-18.084 0.056 0 0.112 0 0.168 0h-0.009c6.443 0 11.667-5.223 11.667-11.667s-5.223-11.667-11.667-11.667v0zM175 105c-6.443 0-11.667 5.223-11.667 11.667s5.223 11.667 11.667 11.667c6.443 0 11.667-5.223 11.667-11.667v0c0-6.443-5.223-11.667-11.667-11.667v0zM140 23.333c-64.433 0-116.667 52.233-116.667 116.667s52.233 116.667 116.667 116.667c64.433 0 116.667-52.233 116.667-116.667v0c0-64.433-52.233-116.667-116.667-116.667v0zM140 233.333c-51.547 0-93.333-41.787-93.333-93.333s41.787-93.333 93.333-93.333c51.547 0 93.333 41.787 93.333 93.333v0c0 51.547-41.787 93.333-93.333 93.333v0z"></path>
</svg>
