<!-- Generated by IcoMoon.io -->
<svg version="1.1" xmlns="http://www.w3.org/2000/svg" width="280" height="280" viewBox="0 0 280 280">
<title>ul-apple-alt</title>
<path fill="#37352f" d="M239.218 183.675c-14.215-6.193-23.971-20.12-23.971-36.325 0-0.055 0-0.11 0-0.165v0.008c0.2-14.524 7.957-27.192 19.509-34.272l0.178-0.101c3.343-2.090 5.533-5.751 5.533-9.924 0-2.46-0.761-4.742-2.061-6.623l0.025 0.039c-10.627-15.308-27.344-25.747-46.569-27.809l-0.286-0.025c7.237-11.323 11.535-25.131 11.535-39.942 0-2.271-0.101-4.518-0.299-6.738l0.021 0.287c-0.561-5.867-5.465-10.419-11.432-10.419-0.219 0-0.436 0.006-0.652 0.018l0.030-0.001c-20.771 1.904-38.948 11.684-51.763 26.287l-0.076 0.089c-8.102 9.347-14.107 20.734-17.149 33.281l-0.112 0.546c-5.625-1.969-12.111-3.146-18.86-3.235l-0.042-0.001c-24.913 0.728-46.445 14.529-58.047 34.754l-0.178 0.337c-22.023 38.236-8.551 95.532 15.307 130.020 9.57 13.82 23.932 34.567 45.596 34.567 0.427 0 0.86 0 1.293-0.023 7.683-0.448 14.812-2.397 21.237-5.556l-0.325 0.144c4.906-2.54 10.699-4.057 16.84-4.124l0.022-0c5.796 0.073 11.236 1.522 16.032 4.035l-0.195-0.093c6.697 3.244 14.55 5.193 22.845 5.32l0.044 0.001c22.319-0.422 35.502-19.676 45.129-33.747 7.181-10.428 13.172-22.443 17.367-35.271l0.281-0.993c0.336-1.042 0.53-2.24 0.53-3.484 0-4.891-3-9.081-7.26-10.831l-0.078-0.028zM156.606 53.291c6.022-6.715 13.523-11.978 22.001-15.291l0.392-0.135c-2.013 9.687-6.251 18.164-12.164 25.185l0.070-0.086c-4.088 4.882-8.975 8.935-14.487 12.001l-0.261 0.133-0.034 0.012c-0.33 0.137-0.661 0.262-0.992 0.399-2.176 0.854-4.865 1.914-6.938 2.598 2.142-9.608 6.481-17.983 12.472-24.884l-0.059 0.069zM209.123 221.114c-9.377 13.695-16.753 23.413-26.301 23.584-4.844-0.016-9.39-1.276-13.339-3.478l0.14 0.072c-7.328-3.652-15.956-5.809-25.083-5.856h-0.016c-9.462 0.049-18.398 2.251-26.359 6.14l0.36-0.159c-3.68 1.92-7.986 3.2-12.55 3.57l-0.119 0.008h-0.348c-9.485 0-19.688-14.731-26.461-24.518-16.947-24.495-32.579-73.304-14.27-105.091 7.724-13.647 21.923-22.838 38.313-23.399l0.077-0.002 0.393-0.012c7.066 0.616 13.564 2.463 19.477 5.328l-0.331-0.145c1.532 0.604 3.042 1.207 4.54 1.766 0.382 0.16 0.775 0.308 1.173 0.433 3.843 1.591 8.298 2.592 12.963 2.767l0.071 0.002c6.728-0.549 12.926-2.302 18.553-5.045l-0.307 0.135c7.375-3.661 16.061-5.803 25.248-5.803 0.24 0 0.48 0.001 0.719 0.004l-0.036-0c10.035 0.404 19.136 4.096 26.332 10.018l-0.076-0.061c-12.298 11.357-19.974 27.564-19.974 45.562 0 0.164 0.001 0.328 0.002 0.491l-0-0.025v0.012c-0.001 0.116-0.001 0.253-0.001 0.39 0 21.813 11.295 40.989 28.355 51.997l0.243 0.147c-3.393 8.118-7.209 15.079-11.652 21.577l0.264-0.409z"></path>
</svg>
