<!-- Generated by IcoMoon.io -->
<svg version="1.1" xmlns="http://www.w3.org/2000/svg" width="280" height="280" viewBox="0 0 280 280">
<title>ul-archway</title>
<path fill="#37352f" d="M256.667 233.333h-11.667v-140h11.667c6.443 0 11.667-5.223 11.667-11.667s-5.223-11.667-11.667-11.667v0h-11.667v-35c0-6.443-5.223-11.667-11.667-11.667v0h-186.667c-6.443 0-11.667 5.223-11.667 11.667v0 35h-11.667c-6.443 0-11.667 5.223-11.667 11.667s5.223 11.667 11.667 11.667v0h11.667v140h-11.667c-6.443 0-11.667 5.223-11.667 11.667s5.223 11.667 11.667 11.667v0h233.333c6.443 0 11.667-5.223 11.667-11.667s-5.223-11.667-11.667-11.667v0zM175 233.333h-70v-41.183c0-0.048-0-0.106-0-0.163 0-26.175 13.881-49.108 34.683-61.84l0.317-0.18c21.119 12.912 35 35.845 35 62.020 0 0.057 0 0.115-0 0.172v-0.009zM221.667 233.333h-23.333v-41.183c0.001-0.124 0.001-0.27 0.001-0.417 0-37.259-21.378-69.524-52.537-85.2l-0.548-0.25c-1.529-0.787-3.335-1.248-5.25-1.248s-3.721 0.461-5.316 1.279l0.066-0.031c-31.706 15.926-53.084 48.191-53.084 85.45 0 0.147 0 0.293 0.001 0.439v-0.023 41.183h-23.333v-140h163.333zM221.667 70h-163.333v-23.333h163.333z"></path>
</svg>
