<!-- Generated by IcoMoon.io -->
<svg version="1.1" xmlns="http://www.w3.org/2000/svg" width="280" height="280" viewBox="0 0 280 280">
<title>ul-band-aid</title>
<path fill="#37352f" d="M102.9 131.717c-2.131 2.114-3.451 5.045-3.451 8.283s1.32 6.169 3.45 8.283l0.001 0.001c2.109 2.097 5.016 3.393 8.225 3.393s6.116-1.296 8.226-3.393l-0.001 0.001c2.131-2.114 3.451-5.045 3.451-8.283s-1.32-6.169-3.45-8.283l-0.001-0.001c-2.109-2.097-5.016-3.393-8.225-3.393s-6.116 1.296-8.226 3.393l0.001-0.001zM131.717 160.65c-2.097 2.109-3.393 5.016-3.393 8.225s1.296 6.116 3.393 8.226l-0.001-0.001c2.114 2.131 5.045 3.451 8.283 3.451s6.169-1.32 8.283-3.45l0.001-0.001c2.097-2.109 3.393-5.016 3.393-8.225s-1.296-6.116-3.393-8.226l0.001 0.001c-2.114-2.131-5.045-3.451-8.283-3.451s-6.169 1.32-8.283 3.45l-0.001 0.001zM236.717 43.983c-12.688-12.789-30.27-20.706-49.701-20.706-18.125 0-34.642 6.889-47.073 18.191l0.057-0.051c-12.35-11.151-28.794-17.974-46.832-17.974-19.233 0-36.653 7.756-49.305 20.311l0.004-0.004c-12.547 12.647-20.301 30.066-20.301 49.295 0 18.096 6.867 34.588 18.137 47.013l-0.052-0.059c-11.062 12.327-17.826 28.708-17.826 46.668 0 38.488 31.061 69.721 69.483 69.998l0.027 0c0.022 0 0.048 0 0.074 0 17.98 0 34.356-6.871 46.645-18.13l-0.052 0.047c12.358 11.184 28.826 18.029 46.893 18.029 19.26 0 36.703-7.778 49.36-20.365l-0.003 0.003c12.511-12.641 20.24-30.034 20.24-49.234 0-18.125-6.889-34.642-18.191-47.074l0.051 0.057c11.251-12.375 18.14-28.891 18.14-47.016 0-19.199-7.729-36.593-20.246-49.24l0.006 0.006zM219.683 60.317c8.168 8.396 13.205 19.874 13.205 32.528 0 11.62-4.247 22.248-11.273 30.417l0.052-0.062-64.867-64.867c8.16-6.808 18.757-10.941 30.32-10.941 12.616 0 24.082 4.92 32.586 12.946l-0.023-0.022zM60.317 219.683c-8.168-8.396-13.205-19.874-13.205-32.528 0-11.62 4.247-22.248 11.273-30.417l-0.052 0.062 65.333 65.333c-8.165 6.778-18.753 10.892-30.303 10.892-12.843 0-24.499-5.086-33.061-13.355l0.014 0.013zM219.683 219.683c-8.532 8.17-20.129 13.2-32.9 13.2s-24.368-5.030-32.917-13.217l0.017 0.016-93.333-93.333c-8.387-8.435-13.57-20.062-13.57-32.9s5.184-24.465 13.573-32.902l-0.002 0.002c8.435-8.387 20.062-13.57 32.9-13.57s24.465 5.184 32.902 13.573l93.331 93.331c8.387 8.435 13.57 20.062 13.57 32.9s-5.184 24.465-13.573 32.902l0.002-0.002zM160.65 131.717c-2.131 2.114-3.451 5.045-3.451 8.283s1.32 6.169 3.45 8.283l0.001 0.001c2.109 2.097 5.016 3.393 8.225 3.393s6.116-1.296 8.226-3.393l-0.001 0.001c2.131-2.114 3.451-5.045 3.451-8.283s-1.32-6.169-3.45-8.283l-0.001-0.001c-2.109-2.097-5.016-3.393-8.225-3.393s-6.116 1.296-8.226 3.393l0.001-0.001zM131.717 102.9c-2.097 2.109-3.393 5.016-3.393 8.225s1.296 6.116 3.393 8.226l-0.001-0.001c2.114 2.131 5.045 3.451 8.283 3.451s6.169-1.32 8.283-3.45l0.001-0.001c2.097-2.109 3.393-5.016 3.393-8.225s-1.296-6.116-3.393-8.226l0.001 0.001c-2.114-2.131-5.045-3.451-8.283-3.451s-6.169 1.32-8.283 3.45l-0.001 0.001z"></path>
</svg>
