<!-- Generated by IcoMoon.io -->
<svg version="1.1" xmlns="http://www.w3.org/2000/svg" width="280" height="280" viewBox="0 0 280 280">
<title>ul-border-inner</title>
<path fill="#37352f" d="M93.333 58.333c6.443 0 11.667-5.223 11.667-11.667s-5.223-11.667-11.667-11.667c-6.443 0-11.667 5.223-11.667 11.667v0c0 6.443 5.223 11.667 11.667 11.667v0zM46.667 105c6.443 0 11.667-5.223 11.667-11.667s-5.223-11.667-11.667-11.667c-6.443 0-11.667 5.223-11.667 11.667v0c0 6.443 5.223 11.667 11.667 11.667v0zM46.667 58.333c6.443 0 11.667-5.223 11.667-11.667s-5.223-11.667-11.667-11.667c-6.443 0-11.667 5.223-11.667 11.667v0c0 6.443 5.223 11.667 11.667 11.667v0zM46.667 221.667c-6.443 0-11.667 5.223-11.667 11.667s5.223 11.667 11.667 11.667c6.443 0 11.667-5.223 11.667-11.667v0c0-6.443-5.223-11.667-11.667-11.667v0zM233.333 58.333c6.443 0 11.667-5.223 11.667-11.667s-5.223-11.667-11.667-11.667c-6.443 0-11.667 5.223-11.667 11.667v0c0 6.443 5.223 11.667 11.667 11.667v0zM233.333 105c6.443 0 11.667-5.223 11.667-11.667s-5.223-11.667-11.667-11.667c-6.443 0-11.667 5.223-11.667 11.667v0c0 6.443 5.223 11.667 11.667 11.667v0zM186.667 58.333c6.443 0 11.667-5.223 11.667-11.667s-5.223-11.667-11.667-11.667c-6.443 0-11.667 5.223-11.667 11.667v0c0 6.443 5.223 11.667 11.667 11.667v0zM233.333 221.667c-6.443 0-11.667 5.223-11.667 11.667s5.223 11.667 11.667 11.667c6.443 0 11.667-5.223 11.667-11.667v0c0-6.443-5.223-11.667-11.667-11.667v0zM46.667 175c-6.443 0-11.667 5.223-11.667 11.667s5.223 11.667 11.667 11.667c6.443 0 11.667-5.223 11.667-11.667v0c0-6.443-5.223-11.667-11.667-11.667v0zM233.333 175c-6.443 0-11.667 5.223-11.667 11.667s5.223 11.667 11.667 11.667c6.443 0 11.667-5.223 11.667-11.667v0c0-6.443-5.223-11.667-11.667-11.667v0zM186.667 221.667c-6.443 0-11.667 5.223-11.667 11.667s5.223 11.667 11.667 11.667c6.443 0 11.667-5.223 11.667-11.667v0c0-6.443-5.223-11.667-11.667-11.667v0zM245 140c0-6.443-5.223-11.667-11.667-11.667v0h-81.667v-81.667c0-6.443-5.223-11.667-11.667-11.667s-11.667 5.223-11.667 11.667v0 81.667h-81.667c-6.443 0-11.667 5.223-11.667 11.667s5.223 11.667 11.667 11.667v0h81.667v81.667c0 6.443 5.223 11.667 11.667 11.667s11.667-5.223 11.667-11.667v0-81.667h81.667c6.443 0 11.667-5.223 11.667-11.667v0zM93.333 221.667c-6.443 0-11.667 5.223-11.667 11.667s5.223 11.667 11.667 11.667c6.443 0 11.667-5.223 11.667-11.667v0c0-6.443-5.223-11.667-11.667-11.667v0z"></path>
</svg>
