<!-- Generated by IcoMoon.io -->
<svg version="1.1" xmlns="http://www.w3.org/2000/svg" width="280" height="280" viewBox="0 0 280 280">
<title>ul-bell-school</title>
<path fill="#37352f" d="M245 93.333c-0.121-12.794-10.521-23.12-23.332-23.12-12.887 0-23.333 10.447-23.333 23.333 0 11.775 8.723 21.514 20.059 23.105l0.123 0.014c1.984 5.308 3.132 11.441 3.132 17.842 0 23.856-15.947 43.987-37.762 50.316l-0.37 0.092c-3.161-7.156-8.42-12.904-14.99-16.592l-0.176-0.091c11.263-13.884 18.083-31.771 18.083-51.25 0-45.103-36.564-81.667-81.667-81.667s-81.667 36.564-81.667 81.667c0 19.48 6.82 37.366 18.203 51.403l-0.119-0.152c-10.616 6.049-17.694 17.23-17.85 30.078l-0 0.022v11.667c0 19.33 15.67 35 35 35v0h93.333c19.33 0 35-15.67 35-35v0-2.217c33.673-8.062 58.317-37.906 58.317-73.505 0-9.6-1.792-18.781-5.059-27.227l0.175 0.515c3.041-3.889 4.883-8.845 4.9-14.229v-0.004zM163.333 210c0 6.443-5.223 11.667-11.667 11.667v0h-93.333c-6.443 0-11.667-5.223-11.667-11.667v0-11.667c0-6.443 5.223-11.667 11.667-11.667v0h4.783c11.943 7.332 26.406 11.675 41.883 11.675s29.94-4.343 42.237-11.876l-0.354 0.202h4.783c6.443 0 11.667 5.223 11.667 11.667v0zM105 175c-32.217 0-58.333-26.117-58.333-58.333s26.117-58.333 58.333-58.333c32.217 0 58.333 26.117 58.333 58.333v0c0 32.217-26.117 58.333-58.333 58.333v0zM105 105c-6.443 0-11.667 5.223-11.667 11.667s5.223 11.667 11.667 11.667c6.443 0 11.667-5.223 11.667-11.667v0c0-6.443-5.223-11.667-11.667-11.667v0z"></path>
</svg>
