<!-- Generated by IcoMoon.io -->
<svg version="1.1" xmlns="http://www.w3.org/2000/svg" width="280" height="280" viewBox="0 0 280 280">
<title>ul-balance-scale</title>
<path fill="#37352f" d="M267.916 161.264c-0.051-0.747-0.168-1.441-0.346-2.109l0.017 0.077-26.888-71.599c9.656-6.314 15.951-17.070 15.968-29.297v-0.002c0-6.443-5.223-11.667-11.667-11.667s-11.667 5.223-11.667 11.667v0c-0.002 6.444-5.227 11.667-11.671 11.667-4.425 0-8.274-2.462-10.253-6.091l-0.031-0.061c-5.903-10.335-16.856-17.188-29.41-17.188-0.235 0-0.469 0.002-0.703 0.007l0.035-0.001h-29.633v-11.667c0-6.443-5.223-11.667-11.667-11.667s-11.667 5.223-11.667 11.667v0 11.667h-29.633c-0.199-0.004-0.433-0.007-0.668-0.007-12.554 0-23.507 6.853-29.323 17.022l-0.087 0.165c-2.009 3.69-5.859 6.152-10.284 6.152-6.444 0-11.669-5.223-11.671-11.666v-0c0-6.443-5.223-11.667-11.667-11.667s-11.667 5.223-11.667 11.667v0c0.017 12.229 6.312 22.985 15.834 29.217l0.133 0.082-26.888 71.599c-0.161 0.592-0.278 1.285-0.327 1.997l-0.002 0.035c-0.189 0.596-0.336 1.298-0.413 2.021l-0.004 0.049c0 0.108 0.031 0.208 0.032 0.316 0.004 0.154 0.035 0.296 0.045 0.449 0.39 25.434 21.099 45.903 46.589 45.903s46.199-20.468 46.589-45.866l0.001-0.037c0.010-0.153 0.042-0.295 0.045-0.449 0.001-0.108 0.032-0.208 0.032-0.316-0.081-0.771-0.229-1.473-0.438-2.148l0.021 0.078c-0.051-0.747-0.168-1.441-0.346-2.109l0.017 0.077-26.919-71.683c4.948-3.191 8.945-7.451 11.738-12.472l0.091-0.178c1.933-2.974 5.24-4.913 8.999-4.913 0.189 0 0.377 0.005 0.564 0.014l-0.026-0.001h29.633v163.333h-35c-6.443 0-11.667 5.223-11.667 11.667s5.223 11.667 11.667 11.667v0h93.333c6.443 0 11.667-5.223 11.667-11.667s-5.223-11.667-11.667-11.667v0h-35v-163.333h29.633c0.161-0.008 0.348-0.013 0.537-0.013 3.759 0 7.066 1.939 8.974 4.871l0.025 0.041c2.884 5.199 6.881 9.459 11.692 12.567l0.137 0.083-26.919 71.683c-0.161 0.592-0.278 1.285-0.327 1.997l-0.002 0.035c-0.189 0.596-0.336 1.298-0.413 2.021l-0.004 0.049c0 0.108 0.031 0.208 0.032 0.316 0.004 0.154 0.035 0.296 0.045 0.449 0.39 25.434 21.099 45.903 46.589 45.903s46.199-20.468 46.589-45.866l0.001-0.037c0.010-0.153 0.042-0.295 0.045-0.449 0.001-0.108 0.032-0.208 0.032-0.316-0.081-0.771-0.229-1.473-0.438-2.148l0.021 0.078zM58.333 103.315l18.158 48.352h-36.316zM78.431 175c-4.13 6.955-11.564 11.568-20.083 11.666h-0.014c-8.588-0.003-16.092-4.645-20.141-11.557l-0.060-0.11zM221.667 103.315l18.158 48.352h-36.316zM221.667 186.667c-8.588-0.003-16.092-4.645-20.141-11.557l-0.060-0.11h40.298c-4.13 6.955-11.564 11.568-20.083 11.666h-0.014z"></path>
</svg>
