<!-- Generated by IcoMoon.io -->
<svg version="1.1" xmlns="http://www.w3.org/2000/svg" width="280" height="280" viewBox="0 0 280 280">
<title>ul-bitcoin</title>
<path fill="#37352f" d="M129.92 141.361l-6.951 28.178c8.58 2.155 35.043 10.748 38.954-5.147 4.089-16.578-23.424-20.865-32.003-23.031zM139.401 102.905l-6.301 25.557c7.145 1.802 29.17 9.147 32.739-5.311 3.718-15.083-19.292-18.444-26.437-20.245zM140 23.333c-64.433 0-116.667 52.233-116.667 116.667s52.233 116.667 116.667 116.667c64.433 0 116.667-52.233 116.667-116.667v0c0-64.433-52.233-116.667-116.667-116.667v0zM190.843 123.379c-0.525 9.295-7.218 16.886-16.028 18.771l-0.133 0.024c8.309 3.448 14.047 11.497 14.047 20.885 0 3.705-0.894 7.201-2.477 10.285l0.059-0.127c-6.831 19.742-23.061 21.408-44.643 17.277l-5.238 21.23-12.657-3.19 5.17-20.945c-3.28-0.824-6.633-1.699-10.087-2.647l-5.188 21.043-12.642-3.19 5.238-21.27c-2.957-0.766-5.959-1.579-9.023-2.355l-16.47-4.153 6.283-14.652s9.325 2.508 9.2 2.323c0.418 0.138 0.899 0.218 1.399 0.218 2.062 0 3.808-1.357 4.393-3.226l0.009-0.033 14.203-57.608c0.023-0.209 0.036-0.453 0.036-0.699 0-3.451-2.569-6.301-5.899-6.742l-0.035-0.004c0.198-0.135-9.193-2.311-9.193-2.311l3.367-13.672 17.455 4.408-0.014 0.066c2.624 0.66 5.328 1.287 8.082 1.921l5.187-21.022 12.649 3.19-5.082 20.61c3.396 0.784 6.813 1.575 10.141 2.414l5.046-20.475 12.657 3.19-5.184 21.029c15.98 5.567 27.667 13.913 25.371 29.436z"></path>
</svg>
