<!-- Generated by IcoMoon.io -->
<svg version="1.1" xmlns="http://www.w3.org/2000/svg" width="280" height="280" viewBox="0 0 280 280">
<title>ul-bitcoin-sign</title>
<path fill="#37352f" d="M221.667 105c0-25.773-20.893-46.667-46.667-46.667v0-23.333c0-6.443-5.223-11.667-11.667-11.667s-11.667 5.223-11.667 11.667v0 23.333h-23.333v-23.333c0-6.443-5.223-11.667-11.667-11.667s-11.667 5.223-11.667 11.667v0 23.333h-35c-6.443 0-11.667 5.223-11.667 11.667s5.223 11.667 11.667 11.667v0h11.667v116.667h-11.667c-6.443 0-11.667 5.223-11.667 11.667s5.223 11.667 11.667 11.667v0h35v23.333c0 6.443 5.223 11.667 11.667 11.667s11.667-5.223 11.667-11.667v0-23.333h23.333v23.333c0 6.443 5.223 11.667 11.667 11.667s11.667-5.223 11.667-11.667v0-23.333c25.644-0.17 46.367-20.998 46.367-46.666 0-13.915-6.091-26.408-15.751-34.958l-0.049-0.043c9.822-8.547 16.019-21.042 16.1-34.986v-0.014zM175 198.333h-70v-46.667h70c12.887 0 23.333 10.447 23.333 23.333s-10.447 23.333-23.333 23.333v0zM175 128.333h-70v-46.667h70c12.887 0 23.333 10.447 23.333 23.333s-10.447 23.333-23.333 23.333v0z"></path>
</svg>
