<!-- Generated by IcoMoon.io -->
<svg version="1.1" xmlns="http://www.w3.org/2000/svg" width="280" height="280" viewBox="0 0 280 280">
<title>ul-baseball-ball</title>
<path fill="#37352f" d="M162.422 75.138c-2.092-3.338-5.75-5.525-9.92-5.525-6.444 0-11.668 5.224-11.668 11.668 0 2.254 0.639 4.359 1.747 6.144l-0.029-0.050q3.093 5.007 6.597 9.844c2.146 2.919 5.568 4.793 9.426 4.793 6.443 0 11.666-5.223 11.666-11.666 0-2.562-0.826-4.931-2.226-6.856l0.023 0.034q-2.99-4.119-5.617-8.386zM130.578 182.725c-2.149-2.889-5.552-4.74-9.388-4.74-6.444 0-11.667 5.223-11.667 11.667 0 2.608 0.856 5.015 2.301 6.958l-0.022-0.031c1.982 2.678 3.817 5.446 5.548 8.272 2.088 3.361 5.76 5.565 9.946 5.565 6.446 0 11.671-5.225 11.671-11.671 0-2.26-0.642-4.369-1.754-6.156l0.029 0.049c-2.073-3.373-4.295-6.688-6.665-9.912zM87.329 142.723c-1.735-1.079-3.84-1.719-6.095-1.719-6.443 0-11.665 5.223-11.665 11.665 0 4.188 2.207 7.86 5.52 9.918l0.050 0.029q4.238 2.597 8.317 5.583c1.906 1.411 4.304 2.258 6.9 2.258 6.445 0 11.67-5.225 11.67-11.67 0-3.875-1.889-7.31-4.797-9.432l-0.033-0.023q-4.836-3.521-9.866-6.608zM204.702 117.441q-4.256-2.615-8.351-5.594c-1.896-1.387-4.274-2.219-6.846-2.219-6.445 0-11.67 5.225-11.67 11.67 0 3.852 1.866 7.269 4.744 9.394l0.032 0.022q4.837 3.521 9.878 6.619c1.738 1.083 3.847 1.725 6.107 1.725 6.446 0 11.671-5.225 11.671-11.671 0-4.186-2.204-7.858-5.515-9.918l-0.049-0.029zM221.575 58.345c-20.904-20.906-49.784-33.838-81.684-33.838-63.795 0-115.51 51.716-115.51 115.51s51.716 115.51 115.51 115.51c31.9 0 60.78-12.931 81.683-33.838l0-0c20.867-20.918 33.77-49.788 33.77-81.673s-12.903-60.755-33.772-81.675l0.002 0.002zM206.719 206.833c-13.809 13.846-31.924 23.393-52.164 26.462l-0.518 0.065c-1.95-3.582-5.686-5.973-9.98-5.973-4.628 0-8.608 2.776-10.365 6.755l-0.028 0.072c-47.243-3.087-84.799-40.629-87.893-87.586l-0.015-0.282c4.021-1.813 6.769-5.786 6.769-10.401 0-4.282-2.366-8.011-5.861-9.952l-0.058-0.030c6.159-41.017 38.15-73.036 78.637-79.172l0.519-0.065c2.036 3.475 5.741 5.779 9.986 5.808h0.004c0.95-0.002 1.874-0.114 2.759-0.324l-0.081 0.016c3.447-0.867 6.222-3.208 7.66-6.298l0.030-0.071c47.299 3.038 84.908 40.651 87.926 87.676l0.014 0.276c-4.004 1.81-6.74 5.77-6.74 10.368 0 4.26 2.348 7.972 5.821 9.912l0.057 0.030c-3.128 20.762-12.656 38.883-26.477 52.713l0.001-0.001z"></path>
</svg>
