<!-- Generated by IcoMoon.io -->
<svg version="1.1" xmlns="http://www.w3.org/2000/svg" width="280" height="280" viewBox="0 0 280 280">
<title>ul-brain</title>
<path fill="#37352f" d="M256.667 128.333c0-0.055 0-0.12 0-0.185 0-17.182-9.286-32.196-23.113-40.295l-0.22-0.119c0.084-0.909 0.132-1.965 0.132-3.033s-0.048-2.125-0.141-3.168l0.010 0.135c0-19.33-15.67-35-35-35v0h-2.1c-5.008-13.6-17.854-23.125-32.924-23.125-8.969 0-17.149 3.373-23.343 8.921l0.033-0.029c-6.16-5.518-14.341-8.891-23.309-8.891-15.070 0-27.916 9.524-32.845 22.882l-0.078 0.243h-2.1c-19.33 0-35 15.67-35 35v0c-0.084 0.909-0.132 1.965-0.132 3.033s0.048 2.125 0.141 3.168l-0.010-0.135c-14.255 8.169-23.703 23.294-23.703 40.626 0 14.6 6.704 27.633 17.202 36.191l0.085 0.067c-3.487 6.38-5.538 13.976-5.538 22.051 0 25.773 20.893 46.667 46.667 46.667 0.101 0 0.203-0 0.304-0.001h2.084c5.008 13.6 17.854 23.125 32.924 23.125 8.969 0 17.149-3.373 23.343-8.921l-0.033 0.029c6.16 5.518 14.341 8.891 23.309 8.891 15.070 0 27.916-9.524 32.845-22.882l0.078-0.243h2.1c25.646-0.167 46.372-20.996 46.372-46.666 0-8.075-2.051-15.671-5.66-22.296l0.122 0.245c10.67-8.594 17.453-21.642 17.5-36.275v-0.008zM128.333 99.75c-2.226-1.304-4.839-2.559-7.557-3.606l-0.377-0.127c-1.114-0.388-2.397-0.612-3.733-0.612-6.459 0-11.695 5.236-11.695 11.695 0 5.123 3.294 9.477 7.88 11.059l0.082 0.025c9.019 3.329 15.344 11.827 15.4 21.81v18.090c-2.226-1.304-4.839-2.559-7.557-3.606l-0.377-0.127c-1.114-0.388-2.397-0.612-3.733-0.612-6.459 0-11.695 5.236-11.695 11.695 0 5.123 3.294 9.477 7.88 11.059l0.082 0.025c9.019 3.329 15.344 11.827 15.4 21.81v23.34c0 6.443-5.223 11.667-11.667 11.667v0c-4.725-0.032-8.78-2.868-10.587-6.926l-0.030-0.074c2.134-1.261 3.963-2.532 5.692-3.922l-0.092 0.072c2.583-2.158 4.214-5.38 4.214-8.983 0-6.451-5.23-11.681-11.681-11.681-2.848 0-5.458 1.019-7.485 2.713l0.019-0.015c-4.030 3.41-9.287 5.483-15.027 5.483-0.008 0-0.016 0-0.024 0h0.001c-12.887 0-23.333-10.447-23.333-23.333v0c0.060-4.603 1.445-8.872 3.788-12.456l-0.055 0.089c2.366 0.445 5.087 0.7 7.868 0.7 0.023 0 0.046 0 0.069 0h-0.004c6.443 0 11.667-5.223 11.667-11.667s-5.223-11.667-11.667-11.667v0c-0.037 0-0.080 0-0.124 0-2.854 0-5.579-0.557-8.070-1.569l0.144 0.052c-9.067-3.339-15.417-11.902-15.417-21.949 0-8.645 4.702-16.192 11.688-20.224l0.113-0.060c1.593 1.469 3.347 2.816 5.217 3.995l0.149 0.088c1.674 0.979 3.686 1.557 5.833 1.557 6.465 0 11.707-5.241 11.707-11.707 0-4.318-2.338-8.091-5.818-10.12l-0.056-0.030c-1.655-0.925-2.997-2.23-3.94-3.802l-0.027-0.048c-0.9-1.537-1.432-3.384-1.432-5.356 0-0.291 0.011-0.58 0.034-0.865l-0.002 0.038c0-6.443 5.223-11.667 11.667-11.667v0c0.368-0.054 0.793-0.085 1.225-0.085s0.857 0.031 1.273 0.091l-0.048-0.005c0.723 2.185 1.473 3.998 2.334 5.747l-0.117-0.264c2.047 3.543 5.817 5.888 10.135 5.888 2.154 0 4.171-0.584 5.903-1.601l-0.055 0.030c3.41-2.077 5.652-5.775 5.652-9.997 0-2.068-0.538-4.011-1.482-5.695l0.030 0.059c-0.939-1.684-1.498-3.691-1.517-5.828v-0.005c0-6.443 5.223-11.667 11.667-11.667s11.667 5.223 11.667 11.667v0zM218.050 150.15c-2.348 0.96-5.072 1.517-7.926 1.517-0.043 0-0.087 0-0.13-0h0.007c-6.443 0-11.667 5.223-11.667 11.667s5.223 11.667 11.667 11.667v0c0.019 0 0.042 0 0.065 0 2.781 0 5.502-0.255 8.142-0.742l-0.274 0.042c2.289 3.495 3.673 7.763 3.733 12.351l0 0.016c0 12.887-10.447 23.333-23.333 23.333v0c-0.007 0-0.015 0-0.023 0-5.741 0-10.997-2.073-15.062-5.512l0.034 0.028c-2.009-1.679-4.619-2.698-7.467-2.698-6.451 0-11.681 5.23-11.681 11.681 0 3.603 1.632 6.826 4.196 8.968l0.019 0.015c1.637 1.318 3.466 2.589 5.382 3.73l0.218 0.12c-1.836 4.132-5.891 6.968-10.613 7h-0.004c-6.443 0-11.667-5.223-11.667-11.667v0-23.333c0.056-9.99 6.381-18.488 15.238-21.764l0.162-0.052c4.668-1.606 7.962-5.96 7.962-11.083 0-6.459-5.236-11.695-11.695-11.695-1.336 0-2.62 0.224-3.816 0.637l0.082-0.025c-3.094 1.174-5.707 2.429-8.197 3.875l0.264-0.141v-18.083c0.056-9.99 6.381-18.488 15.238-21.764l0.162-0.052c4.668-1.606 7.962-5.96 7.962-11.083 0-6.459-5.236-11.695-11.695-11.695-1.336 0-2.62 0.224-3.816 0.637l0.082-0.025c-3.094 1.174-5.707 2.429-8.197 3.875l0.264-0.141v-41.417c0-6.443 5.223-11.667 11.667-11.667s11.667 5.223 11.667 11.667v0c-0.018 2.142-0.578 4.149-1.549 5.896l0.032-0.063c-1.006 1.689-1.601 3.724-1.601 5.899 0 4.282 2.307 8.026 5.747 10.055l0.054 0.030c1.677 0.988 3.694 1.572 5.848 1.572 4.318 0 8.088-2.346 10.105-5.832l0.030-0.056c0.761-1.589 1.514-3.522 2.132-5.515l0.085-0.318c0.368-0.054 0.793-0.085 1.225-0.085s0.857 0.031 1.273 0.091l-0.048-0.005c6.443 0 11.667 5.223 11.667 11.667v0c-0.019 2.396-0.758 4.615-2.009 6.457l0.026-0.041c-0.966 1.516-2.263 2.739-3.796 3.589l-0.054 0.027c-3.535 2.059-5.873 5.832-5.873 10.15 0 6.465 5.241 11.707 11.707 11.707 2.147 0 4.159-0.578 5.889-1.587l-0.056 0.030c2.215-1.21 4.127-2.564 5.864-4.111l-0.031 0.027c7.202 4.065 11.985 11.668 11.985 20.388 0 9.941-6.217 18.431-14.975 21.792l-0.16 0.054z"></path>
</svg>
