<!-- Generated by IcoMoon.io -->
<svg version="1.1" xmlns="http://www.w3.org/2000/svg" width="280" height="280" viewBox="0 0 280 280">
<title>ul-cloud-sun-meatball</title>
<path fill="#37352f" d="M145.833 197.4h-8.983l4.55-7.817c0.979-1.674 1.557-3.686 1.557-5.833 0-6.465-5.241-11.707-11.707-11.707-4.318 0-8.091 2.338-10.12 5.818l-0.030 0.056-4.433 7.817-4.433-7.817c-2.059-3.535-5.832-5.873-10.15-5.873-6.465 0-11.707 5.241-11.707 11.707 0 2.147 0.578 4.159 1.587 5.889l-0.030-0.056 4.55 7.817h-8.983c-6.443 0-11.667 5.223-11.667 11.667s5.223 11.667 11.667 11.667v0h8.983l-4.55 7.7c-0.979 1.674-1.557 3.686-1.557 5.833 0 6.465 5.241 11.707 11.707 11.707 4.318 0 8.091-2.338 10.12-5.818l0.030-0.056 4.433-7.7 4.433 7.7c2.059 3.535 5.832 5.873 10.15 5.873 6.465 0 11.707-5.241 11.707-11.707 0-2.147-0.578-4.159-1.587-5.889l0.030 0.056-4.55-7.7h8.983c6.443 0 11.667-5.223 11.667-11.667s-5.223-11.667-11.667-11.667v0zM245 92.4h-9.333c-1.316-5.609-3.406-10.556-6.189-15.027l0.122 0.21 6.533-6.533c1.744-2.027 2.805-4.684 2.805-7.589 0-6.443-5.223-11.667-11.667-11.667-2.905 0-5.562 1.062-7.604 2.818l0.015-0.013-6.533 6.533c-4.261-2.661-9.208-4.751-14.48-5.999l-0.337-0.067v-9.333c0-6.443-5.223-11.667-11.667-11.667s-11.667 5.223-11.667 11.667v0 9.333c-5.566 1.294-10.476 3.386-14.896 6.183l0.196-0.116-6.65-6.533c-2.027-1.744-4.684-2.805-7.589-2.805-6.443 0-11.667 5.223-11.667 11.667 0 2.905 1.062 5.562 2.818 7.604l-0.013-0.015 6.533 6.533c-1.050 1.867-1.867 3.85-2.8 5.717-5.522-1.619-11.866-2.556-18.428-2.567h-0.006c-0.038 0-0.083 0-0.128 0-34.871 0-63.787 25.498-69.12 58.867l-0.053 0.399c-17.379 5.042-29.868 20.818-29.868 39.51 0 0.137 0.001 0.274 0.002 0.41l-0-0.021c0.009 13.301 6.432 25.1 16.342 32.473l0.108 0.077c2.008 1.682 4.619 2.704 7.469 2.704 6.443 0 11.667-5.223 11.667-11.667 0-4.105-2.119-7.714-5.324-9.793l-0.045-0.028c-4.196-3.138-6.884-8.095-6.884-13.679 0-0.031 0-0.062 0-0.092v0.005c0-9.665 7.835-17.5 17.5-17.5v0c6.443 0 11.667-5.223 11.667-11.667v0c0.12-25.682 20.967-46.455 46.666-46.455 20.307 0 37.584 12.97 44 31.078l0.101 0.326c1.412 4.006 4.838 6.967 9.031 7.69l0.069 0.010c12.991 2.201 22.76 13.37 22.76 26.821 0 11.137-6.698 20.71-16.285 24.911l-0.175 0.068c-4.181 1.836-7.049 5.94-7.049 10.714 0 1.695 0.362 3.306 1.012 4.76l-0.030-0.074c1.847 4.155 5.937 7 10.693 7 0.014 0 0.028 0 0.043 0h-0.002c0.003 0 0.007 0 0.010 0 1.692 0 3.294-0.387 4.721-1.078l-0.065 0.028c18.004-7.99 30.335-25.71 30.335-46.31 0-0.126-0.001-0.251-0.001-0.376v0.019c-0.025-6.558-1.308-12.81-3.62-18.536l0.12 0.336 1.517 1.517c2.096 2.080 4.98 3.37 8.164 3.383h0.003c0.020 0 0.044 0 0.068 0 3.205 0 6.108-1.292 8.217-3.384l-0.001 0.001c2.131-2.114 3.451-5.045 3.451-8.283s-1.32-6.169-3.45-8.283l-6.534-6.534c2.659-4.226 4.749-9.133 5.999-14.366l0.067-0.334h9.333c6.443 0 11.667-5.223 11.667-11.667s-5.223-11.667-11.667-11.667v0zM206.033 123.2v0c-1.954 1.983-4.277 3.595-6.858 4.728l-0.142 0.056c-3.557-2.418-7.654-4.438-12.024-5.854l-0.343-0.096c-5.62-11.841-14.060-21.553-24.481-28.541l-0.252-0.159c1.316-3.171 3.129-5.882 5.371-8.171l-0.004 0.004c5.029-4.697 11.803-7.58 19.25-7.58s14.221 2.884 19.266 7.595l-0.016-0.015c4.874 4.929 7.884 11.709 7.884 19.192s-3.011 14.263-7.887 19.194l0.002-0.002z"></path>
</svg>
