<!-- Generated by IcoMoon.io -->
<svg version="1.1" xmlns="http://www.w3.org/2000/svg" width="280" height="280" viewBox="0 0 280 280">
<title>ul-cloud-moon-meatball</title>
<path fill="#37352f" d="M253.167 93.333c-2.106-2.081-5.002-3.367-8.199-3.367-0.982 0-1.937 0.121-2.848 0.35l0.080-0.017c-2.266 0.559-4.876 0.897-7.559 0.933l-0.024 0c-19.33 0-35-15.67-35-35v0c0.032-2.747 0.371-5.398 0.982-7.943l-0.049 0.243c0.212-0.831 0.333-1.786 0.333-2.768 0-3.196-1.285-6.092-3.368-8.2l0.001 0.001c-2.122-2.181-5.086-3.534-8.365-3.534-0.88 0-1.738 0.098-2.563 0.282l0.078-0.015c-23.582 5.595-41.403 24.949-44.65 48.932l-0.033 0.301c-5.798-1.777-12.462-2.8-19.366-2.8-0.041 0-0.083 0-0.124 0h0.007c-0.038 0-0.083 0-0.128 0-34.871 0-63.787 25.498-69.12 58.867l-0.053 0.399c-17.379 5.042-29.868 20.818-29.868 39.51 0 0.137 0.001 0.274 0.002 0.41l-0-0.021c0.009 13.301 6.432 25.1 16.342 32.473l0.108 0.077c2.008 1.682 4.619 2.704 7.469 2.704 6.443 0 11.667-5.223 11.667-11.667 0-4.105-2.119-7.714-5.324-9.793l-0.045-0.028c-4.196-3.138-6.884-8.095-6.884-13.679 0-0.031 0-0.062 0-0.092v0.005c0-9.665 7.835-17.5 17.5-17.5v0c6.443 0 11.667-5.223 11.667-11.667v0c0.068-25.722 20.935-46.548 46.666-46.548 9.408 0 18.167 2.784 25.496 7.574l-0.179-0.11c8.451 5.514 14.859 13.543 18.218 23.015l0.098 0.318c1.412 4.006 4.838 6.967 9.031 7.69l0.069 0.010c12.991 2.201 22.76 13.37 22.76 26.821 0 11.137-6.698 20.71-16.285 24.911l-0.175 0.068c-4.181 1.836-7.049 5.94-7.049 10.714 0 1.695 0.362 3.306 1.012 4.76l-0.030-0.074c1.847 4.155 5.937 7 10.693 7 0.014 0 0.028 0 0.043 0h-0.002c1.697-0.026 3.298-0.41 4.739-1.080l-0.072 0.030c18.004-7.99 30.335-25.71 30.335-46.31 0-0.126-0.001-0.251-0.001-0.376v0.019c0.001-0.082 0.001-0.179 0.001-0.276 0-8.435-2.116-16.376-5.847-23.32l0.129 0.263c20.327-5.503 35.962-21.332 41.097-41.367l0.087-0.399c0.133-0.662 0.209-1.423 0.209-2.201 0-3.365-1.424-6.397-3.703-8.526l-0.007-0.006zM199.617 126.233c-0.733 0.060-1.588 0.095-2.45 0.095s-1.717-0.034-2.561-0.102l0.111 0.007c-2.36-1.298-5.136-2.521-8.022-3.505l-0.378-0.112c-4.924-10.735-12.139-19.671-21.065-26.477l-0.168-0.123c0-1.4 0-2.917 0-4.317 0-0.001 0-0.001 0-0.002 0-10.623 4.732-20.14 12.204-26.559l0.046-0.039c3.863 25.524 23.81 45.431 49.030 49.194l0.32 0.039c-6.442 7.249-15.791 11.794-26.201 11.794-0.304 0-0.608-0.004-0.911-0.011l0.045 0.001zM145.833 197.4h-8.983l4.55-7.817c0.979-1.674 1.557-3.686 1.557-5.833 0-6.465-5.241-11.707-11.707-11.707-4.318 0-8.091 2.338-10.12 5.818l-0.030 0.056-4.433 7.817-4.433-7.817c-2.059-3.535-5.832-5.873-10.15-5.873-6.465 0-11.707 5.241-11.707 11.707 0 2.147 0.578 4.159 1.587 5.889l-0.030-0.056 4.55 7.817h-8.983c-6.443 0-11.667 5.223-11.667 11.667s5.223 11.667 11.667 11.667v0h8.983l-4.55 7.7c-0.979 1.674-1.557 3.686-1.557 5.833 0 6.465 5.241 11.707 11.707 11.707 4.318 0 8.091-2.338 10.12-5.818l0.030-0.056 4.433-7.7 4.433 7.7c2.059 3.535 5.832 5.873 10.15 5.873 6.465 0 11.707-5.241 11.707-11.707 0-2.147-0.578-4.159-1.587-5.889l0.030 0.056-4.55-7.7h8.983c6.443 0 11.667-5.223 11.667-11.667s-5.223-11.667-11.667-11.667v0z"></path>
</svg>
