<!-- Generated by IcoMoon.io -->
<svg version="1.1" xmlns="http://www.w3.org/2000/svg" width="280" height="280" viewBox="0 0 280 280">
<title>ul-cloud-sun</title>
<path fill="#37352f" d="M245 105h-9.333c-1.316-5.609-3.406-10.556-6.189-15.027l0.122 0.21 6.533-6.533c1.744-2.027 2.805-4.684 2.805-7.589 0-6.443-5.223-11.667-11.667-11.667-2.905 0-5.562 1.062-7.604 2.818l0.015-0.013-6.533 6.533c-4.261-2.661-9.208-4.751-14.48-5.999l-0.337-0.067v-9.333c0-6.443-5.223-11.667-11.667-11.667s-11.667 5.223-11.667 11.667v0 9.333c-5.566 1.294-10.476 3.386-14.896 6.183l0.196-0.116-6.65-6.533c-2.027-1.744-4.684-2.805-7.589-2.805-6.443 0-11.667 5.223-11.667 11.667 0 2.905 1.062 5.562 2.818 7.604l-0.013-0.015 6.533 6.65c-1.050 1.75-1.867 3.733-2.8 5.6-5.522-1.619-11.866-2.556-18.428-2.567h-0.006c-0.012 0-0.026 0-0.040 0-35.078 0-64.131 25.803-69.212 59.464l-0.048 0.386c-17.336 4.977-29.808 20.69-29.808 39.317 0 22.531 18.248 40.8 40.771 40.833h106.987c27.9 0 50.517-22.617 50.517-50.517v0c-0.011-6.517-1.296-12.73-3.618-18.41l0.118 0.326 1.517 1.4c2.096 2.080 4.98 3.37 8.164 3.383h0.003c0.020 0 0.044 0 0.068 0 3.205 0 6.108-1.292 8.217-3.384l-0.001 0.001c2.097-2.109 3.393-5.016 3.393-8.225s-1.296-6.116-3.393-8.226l-6.533-6.533c2.661-4.261 4.751-9.208 5.999-14.48l0.067-0.337h9.333c6.443 0 11.667-5.223 11.667-11.667s-5.223-11.667-11.667-11.667v0zM171.15 210h-106.983c-9.665 0-17.5-7.835-17.5-17.5s7.835-17.5 17.5-17.5v0c6.443 0 11.667-5.223 11.667-11.667v0c0.12-25.682 20.967-46.455 46.666-46.455 20.307 0 37.584 12.97 44 31.078l0.101 0.326c1.378 4.054 4.813 7.063 9.030 7.806l0.070 0.010c12.713 2.44 22.188 13.474 22.188 26.72 0 14.856-11.918 26.929-26.714 27.179l-0.024 0zM206.15 135.917v0c-1.992 1.877-4.304 3.443-6.842 4.602l-0.158 0.065c-3.592-2.374-7.724-4.391-12.113-5.844l-0.37-0.106c-5.54-11.911-13.856-21.725-24.15-28.896l-0.233-0.154c1.348-3.119 3.156-5.787 5.372-8.055l-0.005 0.005c5.021-4.664 11.772-7.526 19.192-7.526s14.17 2.862 19.209 7.542l-0.018-0.016c4.826 4.972 7.801 11.764 7.801 19.25s-2.975 14.278-7.808 19.257l0.007-0.007z"></path>
</svg>
