<!-- Generated by IcoMoon.io -->
<svg version="1.1" xmlns="http://www.w3.org/2000/svg" width="280" height="280" viewBox="0 0 280 280">
<title>ul-constructor</title>
<path fill="#37352f" d="M233.333 112.817v-1.983c0-0.098 0.001-0.214 0.001-0.331 0-41.396-27.119-76.458-64.561-88.389l-0.657-0.181h-0.7c-8.468-2.677-18.207-4.219-28.306-4.219-0.672 0-1.342 0.007-2.011 0.021l0.1-0.002c-50.4 2.851-90.229 44.267-90.533 95.053l-0 0.030c-13.738 4.935-23.385 17.849-23.385 33.017s9.648 28.081 23.141 32.94l0.244 0.077c5.068 47.211 44.693 83.651 92.83 83.651 0.177 0 0.354-0.001 0.531-0.001h2.656c46.473-2.319 83.997-37.755 89.554-83.075l0.046-0.458c14.107-4.73 24.091-17.827 24.091-33.257 0-15.039-9.485-27.862-22.799-32.815l-0.242-0.079zM142.1 239.167c-0.603 0.019-1.312 0.029-2.024 0.029-34.549 0-63.252-25.030-68.966-57.945l-0.060-0.418h137.317c-5.973 32.221-33.034 56.57-66.090 58.326l-0.177 0.007zM221.667 157.5h-163.333c-6.443 0-11.667-5.223-11.667-11.667s5.223-11.667 11.667-11.667v0h23.333c6.443 0 11.667-5.223 11.667-11.667s-5.223-11.667-11.667-11.667v0h-11.667c1.126-25.313 14.692-47.231 34.694-59.902l0.306-0.181v36.75c0 6.443 5.223 11.667 11.667 11.667s11.667-5.223 11.667-11.667v0-45.617c2.719-0.483 6.007-0.857 9.347-1.040l0.22-0.010h2.1c4.166 0.060 8.197 0.44 12.126 1.115l-0.46-0.065v45.617c0 6.443 5.223 11.667 11.667 11.667s11.667-5.223 11.667-11.667v0-37.1c5.21 3.044 9.719 6.402 13.818 10.196l-0.051-0.046c13.103 12.735 21.233 30.527 21.233 50.218 0 0.023 0 0.046 0 0.069v-0.004h-11.667c-6.443 0-11.667 5.223-11.667 11.667s5.223 11.667 11.667 11.667v0h23.333c6.443 0 11.667 5.223 11.667 11.667s-5.223 11.667-11.667 11.667v0z"></path>
</svg>
