<!-- Generated by IcoMoon.io -->
<svg version="1.1" xmlns="http://www.w3.org/2000/svg" width="280" height="280" viewBox="0 0 280 280">
<title>ul-cloud-computing</title>
<path fill="#37352f" d="M245 233.333h-35c-6.443 0-11.667-5.223-11.667-11.667v0-35c31.984-0.305 57.795-26.304 57.795-58.331 0-26.113-17.158-48.218-40.815-55.657l-0.413-0.112c-12.908-29.127-41.566-49.078-74.883-49.078-41.387 0-75.584 30.787-80.938 70.709l-0.046 0.419c-20.69 5.079-35.798 23.467-35.798 45.384 0 25.773 20.893 46.667 46.667 46.667 0.034 0 0.069 0 0.104 0h11.661v35c0 6.443-5.223 11.667-11.667 11.667v0h-35c-6.443 0-11.667 5.223-11.667 11.667s5.223 11.667 11.667 11.667v0h35c19.33 0 35-15.67 35-35v0-35h23.333v58.333c0 6.443 5.223 11.667 11.667 11.667s11.667-5.223 11.667-11.667v0-58.333h23.333v35c0 19.33 15.67 35 35 35v0h35c6.443 0 11.667-5.223 11.667-11.667s-5.223-11.667-11.667-11.667v0zM70 163.333c-12.887 0-23.333-10.447-23.333-23.333s10.447-23.333 23.333-23.333v0c6.443 0 11.667-5.223 11.667-11.667v0c0.072-32.162 26.161-58.207 58.333-58.207 25.446 0 47.086 16.293 55.059 39.015l0.125 0.409c1.378 4.054 4.813 7.063 9.030 7.806l0.070 0.010c16.539 2.931 28.954 17.151 29.050 34.29v0.010c0 19.33-15.67 35-35 35v0z"></path>
</svg>
