<!-- Generated by IcoMoon.io -->
<svg version="1.1" xmlns="http://www.w3.org/2000/svg" width="280" height="280" viewBox="0 0 280 280">
<title>ul-cancel</title>
<path fill="#37352f" d="M253.983 132.533l-58.333-70c-2.155-2.574-5.37-4.2-8.964-4.2-0.007 0-0.013 0-0.020 0h-128.332c-19.33 0-35 15.67-35 35v0 93.333c0 19.33 15.67 35 35 35v0h128.333c0.006 0 0.012 0 0.019 0 3.595 0 6.809-1.626 8.95-4.182l0.015-0.018 58.333-70c1.681-2.008 2.702-4.618 2.702-7.467s-1.021-5.459-2.717-7.485l0.015 0.018zM181.183 198.333h-122.85c-6.443 0-11.667-5.223-11.667-11.667v0-93.333c0-6.443 5.223-11.667 11.667-11.667v0h122.85l48.65 58.333zM148.283 108.383c-2.114-2.131-5.045-3.451-8.283-3.451s-6.169 1.32-8.283 3.45l-0.001 0.001-15.050 15.167-15.050-15.167c-2.12-2.12-5.048-3.431-8.283-3.431-6.47 0-11.714 5.245-11.714 11.714 0 3.235 1.311 6.164 3.431 8.283v0l15.167 15.050-15.167 15.050c-2.131 2.114-3.451 5.045-3.451 8.283s1.32 6.169 3.45 8.283l0.001 0.001c2.114 2.131 5.045 3.451 8.283 3.451s6.169-1.32 8.283-3.45l0.001-0.001 15.050-15.167 15.050 15.167c2.114 2.131 5.045 3.451 8.283 3.451s6.169-1.32 8.283-3.45l0.001-0.001c2.131-2.114 3.451-5.045 3.451-8.283s-1.32-6.169-3.45-8.283l-0.001-0.001-15.167-15.050 15.167-15.050c2.131-2.114 3.451-5.045 3.451-8.283s-1.32-6.169-3.45-8.283l-0.001-0.001z"></path>
</svg>
