<!-- Generated by IcoMoon.io -->
<svg version="1.1" xmlns="http://www.w3.org/2000/svg" width="280" height="280" viewBox="0 0 280 280">
<title>ul-cog</title>
<path fill="#37352f" d="M248.733 111.417l-22.050-7.35 10.383-20.767c0.736-1.486 1.166-3.235 1.166-5.085 0-3.205-1.292-6.108-3.384-8.216l-24.849-24.849c-2.112-2.114-5.030-3.421-8.254-3.421-1.88 0-3.657 0.445-5.23 1.235l0.067-0.031-20.767 10.383-7.35-22.050c-1.596-4.625-5.894-7.894-10.962-7.933h-35.005c-0.009 0-0.019 0-0.030 0-5.107 0-9.448 3.282-11.029 7.851l-0.025 0.082-7.35 22.050-20.767-10.383c-1.486-0.736-3.235-1.166-5.085-1.166-3.205 0-6.108 1.292-8.216 3.384l-24.849 24.849c-2.114 2.112-3.421 5.030-3.421 8.254 0 1.88 0.445 3.657 1.235 5.23l-0.031-0.067 10.383 20.767-22.050 7.35c-4.625 1.596-7.894 5.894-7.933 10.962v35.005c0 0.009 0 0.019 0 0.030 0 5.107 3.282 9.448 7.851 11.029l0.082 0.025 22.050 7.35-10.383 20.767c-0.736 1.486-1.166 3.235-1.166 5.085 0 3.205 1.292 6.108 3.384 8.216l24.849 24.849c2.112 2.114 5.030 3.421 8.254 3.421 1.88 0 3.657-0.445 5.23-1.235l-0.067 0.031 20.767-10.383 7.35 22.050c1.605 4.652 5.946 7.933 11.053 7.933 0.011 0 0.021 0 0.032 0h34.998c0.009 0 0.019 0 0.030 0 5.107 0 9.448-3.282 11.029-7.851l0.025-0.082 7.35-22.050 20.767 10.383c1.465 0.712 3.187 1.129 5.006 1.129 3.186 0 6.073-1.277 8.179-3.347l24.848-24.848c2.114-2.112 3.421-5.030 3.421-8.254 0-1.88-0.445-3.657-1.235-5.23l0.031 0.067-10.383-20.767 22.050-7.35c4.625-1.596 7.894-5.894 7.933-10.962v-35.005c0-0.009 0-0.019 0-0.030 0-5.107-3.282-9.448-7.851-11.029l-0.082-0.025zM233.333 149.1l-14 4.667c-9.443 3.131-16.134 11.881-16.134 22.195 0 3.91 0.962 7.596 2.662 10.833l-0.061-0.128 6.65 13.3-12.833 12.833-12.95-7c-3.032-1.544-6.613-2.448-10.405-2.448-10.257 0-18.968 6.618-22.096 15.818l-0.048 0.164-4.667 14h-18.55l-4.667-14c-3.131-9.443-11.881-16.134-22.195-16.134-3.91 0-7.596 0.962-10.833 2.662l0.128-0.061-13.3 6.65-12.833-12.833 7-12.95c1.639-3.109 2.601-6.795 2.601-10.705 0-10.314-6.691-19.064-15.969-22.147l-0.165-0.048-14-4.667v-18.2l14-4.667c9.443-3.131 16.134-11.881 16.134-22.195 0-3.91-0.962-7.596-2.662-10.833l0.061 0.128-6.65-12.95 12.833-12.833 12.95 6.65c3.109 1.639 6.795 2.601 10.705 2.601 10.314 0 19.064-6.691 22.147-15.969l0.048-0.165 4.667-14h18.2l4.667 14c3.131 9.443 11.881 16.134 22.195 16.134 3.91 0 7.596-0.962 10.833-2.662l-0.128 0.061 13.3-6.65 12.833 12.833-7 12.95c-1.544 3.032-2.448 6.613-2.448 10.405 0 10.257 6.618 18.968 15.818 22.096l0.164 0.048 14 4.667zM140 93.333c-25.773 0-46.667 20.893-46.667 46.667s20.893 46.667 46.667 46.667c25.773 0 46.667-20.893 46.667-46.667v0c0-25.773-20.893-46.667-46.667-46.667v0zM140 163.333c-12.887 0-23.333-10.447-23.333-23.333s10.447-23.333 23.333-23.333c12.887 0 23.333 10.447 23.333 23.333v0c0 12.887-10.447 23.333-23.333 23.333v0z"></path>
</svg>
