<!-- Generated by IcoMoon.io -->
<svg version="1.1" xmlns="http://www.w3.org/2000/svg" width="280" height="280" viewBox="0 0 280 280">
<title>ul-comment-edit</title>
<path fill="#37352f" d="M253.283 55.067l-28.35-28.35c-2.109-2.097-5.016-3.393-8.225-3.393s-6.116 1.296-8.226 3.393l-65.099 65.099c-2.091 2.108-3.384 5.011-3.384 8.216 0 0.024 0 0.047 0 0.071v-0.004 28.233c0 6.443 5.223 11.667 11.667 11.667v0h28.233c0.020 0 0.044 0 0.068 0 3.205 0 6.108-1.292 8.217-3.384l65.099-65.099c2.097-2.109 3.393-5.016 3.393-8.225s-1.296-6.116-3.393-8.226l0.001 0.001zM175 116.667h-11.667v-11.667l53.433-53.433 11.667 11.667zM221.667 140v0c-6.443 0-11.667 5.223-11.667 11.667v0c0 45.103-36.564 81.667-81.667 81.667v0h-65.217l7.467-7.35c2.131-2.114 3.451-5.045 3.451-8.283s-1.32-6.169-3.45-8.283l-0.001-0.001c-14.781-14.779-23.922-35.197-23.922-57.75 0-45.103 36.564-81.667 81.667-81.667 0.002 0 0.004 0 0.006 0h-0.001c6.443 0 11.667-5.223 11.667-11.667s-5.223-11.667-11.667-11.667v0 0c-57.841 0.196-104.655 47.131-104.655 104.999 0 24.898 8.666 47.772 23.146 65.77l-0.158-0.203-19.95 19.483c-2.078 2.105-3.362 5-3.362 8.194 0 1.633 0.336 3.187 0.941 4.598l-0.029-0.076c1.785 4.263 5.912 7.209 10.73 7.233h93.337c57.99 0 105-47.010 105-105v0c0-6.443-5.223-11.667-11.667-11.667v0z"></path>
</svg>
