<!-- Generated by IcoMoon.io -->
<svg version="1.1" xmlns="http://www.w3.org/2000/svg" width="280" height="280" viewBox="0 0 280 280">
<title>ul-comment-question</title>
<path fill="#37352f" d="M172.317 68.483c1.656 0.957 3.642 1.521 5.761 1.521 4.297 0 8.052-2.323 10.076-5.783l0.030-0.055c2.044-3.558 5.822-5.915 10.15-5.915 6.443 0 11.667 5.223 11.667 11.667 0 0.029 0 0.057-0 0.086v-0.004c0 6.443-5.223 11.667-11.667 11.667v0c-6.443 0-11.667 5.223-11.667 11.667s5.223 11.667 11.667 11.667v0c19.32-0.013 34.978-15.678 34.978-35 0-19.33-15.67-35-35-35-12.887 0-24.147 6.964-30.221 17.335l-0.089 0.165c-0.988 1.677-1.572 3.694-1.572 5.848 0 4.318 2.346 8.088 5.832 10.105l0.056 0.030zM222.483 151.667c-0.451-0.062-0.972-0.097-1.502-0.097-5.902 0-10.78 4.382-11.558 10.070l-0.007 0.061c-5.168 40.579-39.481 71.633-81.048 71.633-0.012 0-0.025 0-0.037 0h-65.215l7.583-7.583c2.097-2.109 3.393-5.016 3.393-8.225s-1.296-6.116-3.393-8.226l0.001 0.001c-14.711-14.767-23.807-35.138-23.807-57.634 0-45.023 36.434-81.537 81.427-81.666h0.012c6.443 0 11.667-5.223 11.667-11.667s-5.223-11.667-11.667-11.667v0c-57.801 0.249-104.562 47.163-104.562 104.999 0 24.846 8.63 47.676 23.055 65.657l-0.16-0.206-19.95 19.6c-2.078 2.105-3.362 5-3.362 8.194 0 1.633 0.336 3.187 0.941 4.598l-0.029-0.076c1.785 4.263 5.912 7.209 10.73 7.233h93.337c0.004 0 0.009 0 0.014 0 53.342 0 97.394-39.777 104.113-91.288l0.056-0.529c0.072-0.486 0.112-1.046 0.112-1.616 0-5.907-4.39-10.789-10.085-11.56l-0.060-0.007zM202.767 117.483c-1.389-0.63-3.012-0.998-4.72-0.998-0.723 0-1.431 0.066-2.118 0.192l0.072-0.011-2.1 0.7-2.1 1.050-1.75 1.517c-1.021 1.045-1.848 2.284-2.422 3.656l-0.028 0.077c-0.596 1.229-0.944 2.673-0.944 4.198 0 0.165 0.004 0.329 0.012 0.492l-0.001-0.023c-0.002 0.076-0.003 0.165-0.003 0.255 0 1.547 0.301 3.023 0.847 4.373l-0.028-0.078c0.636 1.454 1.501 2.693 2.564 3.731l0.002 0.002c2.108 2.091 5.011 3.384 8.216 3.384 0.024 0 0.047 0 0.071-0h-0.004c6.443 0 11.667-5.223 11.667-11.667v0c0.002-0.075 0.003-0.164 0.003-0.252 0-1.519-0.345-2.957-0.962-4.24l0.025 0.059c-1.279-2.814-3.486-5.021-6.222-6.268l-0.078-0.032z"></path>
</svg>
