<!-- Generated by IcoMoon.io -->
<svg version="1.1" xmlns="http://www.w3.org/2000/svg" width="280" height="280" viewBox="0 0 280 280">
<title>ul-cloud-lock</title>
<path fill="#37352f" d="M214.9 78.4c-12.908-29.127-41.566-49.078-74.883-49.078-41.387 0-75.584 30.787-80.938 70.709l-0.046 0.419c-20.602 5.143-35.623 23.488-35.623 45.341 0 20.227 12.868 37.448 30.865 43.923l0.325 0.102c1.114 0.356 2.396 0.568 3.726 0.583h0.008c0.561 0.094 1.207 0.148 1.867 0.148 6.525 0 11.815-5.29 11.815-11.815 0-5.866-4.275-10.734-9.88-11.657l-0.069-0.009c-8.841-3.258-15.092-11.478-15.399-21.197l-0.001-0.036c0-12.887 10.447-23.333 23.333-23.333v0c6.443 0 11.667-5.223 11.667-11.667v0c0.072-32.162 26.161-58.207 58.333-58.207 25.446 0 47.086 16.293 55.059 39.015l0.125 0.409c1.378 4.054 4.813 7.063 9.030 7.806l0.070 0.010c16.465 3.061 28.766 17.314 28.766 34.441 0 12.724-6.789 23.861-16.943 29.988l-0.157 0.088c-3.535 2.059-5.873 5.832-5.873 10.15 0 6.465 5.241 11.707 11.707 11.707 2.147 0 4.159-0.578 5.889-1.587l-0.056 0.030c17.494-10.289 29.050-29.020 29.050-50.451 0-0.023 0-0.046 0-0.070v0.004c-0.077-26.244-17.472-48.404-41.354-55.659l-0.413-0.108zM175 183.4v-14.233c0-19.33-15.67-35-35-35s-35 15.67-35 35v0 13.767c-13.567 5.026-23.062 17.854-23.062 32.901 0 19.234 15.516 34.845 34.714 34.999h46.681c19.213-0.154 34.728-15.764 34.728-34.999 0-15.046-9.495-27.876-22.82-32.822l-0.242-0.079zM128.333 169.167c0-6.443 5.223-11.667 11.667-11.667s11.667 5.223 11.667 11.667v0 11.667h-23.333zM163.333 227.5h-46.667c-6.443 0-11.667-5.223-11.667-11.667s5.223-11.667 11.667-11.667v0h46.667c6.443 0 11.667 5.223 11.667 11.667s-5.223 11.667-11.667 11.667v0z"></path>
</svg>
