<!-- Generated by IcoMoon.io -->
<svg version="1.1" xmlns="http://www.w3.org/2000/svg" width="280" height="280" viewBox="0 0 280 280">
<title>ul-chat</title>
<path fill="#37352f" d="M210 23.333h-140c-19.33 0-35 15.67-35 35v0 128.333c0 19.33 15.67 35 35 35v0h30.217l31.5 31.617c2.108 2.091 5.011 3.384 8.216 3.384 0.024 0 0.047 0 0.071-0h-0.004c0 0 0.001 0 0.001 0 2.902 0 5.557-1.060 7.598-2.813l-0.016 0.013 37.567-32.2h24.85c19.33 0 35-15.67 35-35v0-128.333c0-19.33-15.67-35-35-35v0zM221.667 186.667c0 6.443-5.223 11.667-11.667 11.667v0h-29.167c-0 0-0.001 0-0.001 0-2.902 0-5.557 1.060-7.598 2.813l0.016-0.013-32.667 28-27.3-27.417c-2.108-2.091-5.011-3.384-8.216-3.384-0.024 0-0.047 0-0.071 0h-34.996c-6.443 0-11.667-5.223-11.667-11.667v0-128.333c0-6.443 5.223-11.667 11.667-11.667v0h140c6.443 0 11.667 5.223 11.667 11.667v0z"></path>
</svg>
