<!-- Generated by IcoMoon.io -->
<svg version="1.1" xmlns="http://www.w3.org/2000/svg" width="280" height="280" viewBox="0 0 280 280">
<title>ul-check</title>
<path fill="#37352f" d="M218.283 84.117c-2.114-2.131-5.045-3.451-8.283-3.451s-6.169 1.32-8.283 3.45l-0.001 0.001-86.917 87.033-36.517-36.633c-2.142-2.071-5.064-3.347-8.283-3.347-6.585 0-11.922 5.338-11.922 11.922 0 3.365 1.394 6.404 3.636 8.572l44.803 44.803c2.114 2.131 5.045 3.451 8.283 3.451s6.169-1.32 8.283-3.45l95.201-95.201c2.313-2.138 3.756-5.188 3.756-8.575s-1.443-6.437-3.748-8.568l-0.008-0.007z"></path>
</svg>
