<!-- Generated by IcoMoon.io -->
<svg version="1.1" xmlns="http://www.w3.org/2000/svg" width="280" height="280" viewBox="0 0 280 280">
<title>ul-comment-redo</title>
<path fill="#37352f" d="M221.667 163.333c-0.879-0.238-1.889-0.374-2.931-0.374-5.416 0-9.969 3.69-11.284 8.693l-0.018 0.081c-9.262 35.66-41.151 61.57-79.096 61.6h-65.22l7.467-7.35c2.097-2.109 3.393-5.016 3.393-8.225s-1.296-6.116-3.393-8.226l0.001 0.001c-14.848-14.79-24.035-35.253-24.035-57.863 0-37.891 25.805-69.755 60.8-78.976l0.569-0.127c5.083-1.342 8.77-5.899 8.77-11.317 0-6.454-5.232-11.686-11.686-11.686-1.036 0-2.041 0.135-2.998 0.388l0.081-0.018c-45.525 12.159-78.509 53.029-78.509 101.603 0 24.957 8.707 47.879 23.248 65.897l-0.156-0.2-19.95 19.483c-2.078 2.105-3.362 5-3.362 8.194 0 1.633 0.336 3.187 0.941 4.598l-0.029-0.076c1.785 4.263 5.912 7.209 10.73 7.233h93.337c0.020 0 0.044 0 0.068 0 48.661 0 89.592-33.102 101.501-78.017l0.165-0.733c0.294-0.976 0.464-2.097 0.464-3.258 0-5.448-3.735-10.024-8.784-11.308l-0.081-0.017zM245 23.333c-6.443 0-11.667 5.223-11.667 11.667v0 0c-9.636-7.304-21.827-11.701-35.045-11.701-32.217 0-58.333 26.117-58.333 58.333s26.117 58.333 58.333 58.333c14.805 0 28.322-5.516 38.608-14.603l-0.063 0.054c3.132-2.125 5.163-5.668 5.163-9.686 0-6.443-5.223-11.667-11.667-11.667-3.433 0-6.519 1.483-8.654 3.842l-0.009 0.010c-6.137 5.432-14.256 8.749-23.15 8.749-19.33 0-35-15.67-35-35 0-19.265 15.566-34.895 34.806-34.999h0.010c10.324 0.022 19.595 4.51 25.988 11.634l0.029 0.033h-14.35c-6.443 0-11.667 5.223-11.667 11.667s5.223 11.667 11.667 11.667v0h35c6.443 0 11.667-5.223 11.667-11.667v0-35c0-6.443-5.223-11.667-11.667-11.667v0z"></path>
</svg>
