<!-- Generated by IcoMoon.io -->
<svg version="1.1" xmlns="http://www.w3.org/2000/svg" width="280" height="280" viewBox="0 0 280 280">
<title>ul-comment-alt-slash</title>
<path fill="#37352f" d="M124.367 70h73.967c6.443 0 11.667 5.223 11.667 11.667v0 73.967c0 6.443 5.223 11.667 11.667 11.667s11.667-5.223 11.667-11.667v0-73.967c0-19.33-15.67-35-35-35v0h-73.967c-6.443 0-11.667 5.223-11.667 11.667s5.223 11.667 11.667 11.667v0zM253.283 236.717l-210-210c-2.12-2.12-5.048-3.431-8.283-3.431-6.47 0-11.714 5.245-11.714 11.714 0 3.235 1.311 6.164 3.431 8.283v0l23.333 23.333c-2.135 4.394-3.383 9.557-3.383 15.013 0 0.013 0 0.026 0 0.039v-0.002 140c0.025 4.821 2.97 8.949 7.156 10.705l0.077 0.029c1.224 0.591 2.662 0.937 4.181 0.937 0.089 0 0.177-0.001 0.266-0.004l-0.013 0c0.020 0 0.044 0 0.068 0 3.205 0 6.108-1.292 8.217-3.384l-0.001 0.001 31.5-31.617h83.767l54.833 54.95c2.114 2.131 5.045 3.451 8.283 3.451s6.169-1.32 8.283-3.45l0.001-0.001c2.131-2.114 3.451-5.045 3.451-8.283s-1.32-6.169-3.45-8.283l-0.001-0.001zM93.333 175c-0.020 0-0.044-0-0.068-0-3.205 0-6.108 1.292-8.217 3.384l0.001-0.001-15.050 15.167v-107.1l88.55 88.55z"></path>
</svg>
