<!-- Generated by IcoMoon.io -->
<svg version="1.1" xmlns="http://www.w3.org/2000/svg" width="280" height="280" viewBox="0 0 280 280">
<title>ul-drill</title>
<path fill="#37352f" d="M221.667 46.667h-116.667c-6.443 0-11.667 5.223-11.667 11.667v0 23.333h-58.333c-6.443 0-11.667 5.223-11.667 11.667s5.223 11.667 11.667 11.667v0h58.333v46.667c0 6.443 5.223 11.667 11.667 11.667s11.667-5.223 11.667-11.667v0-11.667h46.667v81.667c0 6.443 5.223 11.667 11.667 11.667v0h23.333c19.33 0 35-15.67 35-35v0-60.433c13.68-4.939 23.289-17.791 23.333-32.895v-23.339c0-19.33-15.67-35-35-35v0zM210 198.333c0 6.443-5.223 11.667-11.667 11.667v0h-11.667v-70h23.333zM233.333 105c0 6.443-5.223 11.667-11.667 11.667v0h-105v-46.667h70v11.667c0 6.443 5.223 11.667 11.667 11.667s11.667-5.223 11.667-11.667v0-11.667h11.667c6.443 0 11.667 5.223 11.667 11.667v0z"></path>
</svg>
