<!-- Generated by IcoMoon.io -->
<svg version="1.1" xmlns="http://www.w3.org/2000/svg" width="280" height="280" viewBox="0 0 280 280">
<title>ul-directions</title>
<path fill="#37352f" d="M246.4 115.267l-81.667-81.667c-6.429-6.109-15.142-9.867-24.733-9.867s-18.305 3.758-24.749 9.881l0.015-0.014-81.667 81.667c-6.325 6.332-10.236 15.076-10.236 24.733s3.911 18.401 10.236 24.734l81.666 81.666c6.332 6.325 15.076 10.236 24.733 10.236s18.401-3.911 24.734-10.236l81.666-81.666c6.325-6.332 10.236-15.076 10.236-24.733s-3.911-18.401-10.236-24.734l0 0zM229.95 148.283l-81.667 81.667c-2.114 2.131-5.045 3.451-8.283 3.451s-6.169-1.32-8.283-3.45l-81.668-81.668c-2.131-2.114-3.451-5.045-3.451-8.283s1.32-6.169 3.45-8.283l81.668-81.668c2.114-2.131 5.045-3.451 8.283-3.451s6.169 1.32 8.283 3.45l81.668 81.668c2.131 2.114 3.451 5.045 3.451 8.283s-1.32 6.169-3.45 8.283l-0.001 0.001zM165.783 108.383c-2.12-2.12-5.048-3.431-8.283-3.431-6.47 0-11.714 5.245-11.714 11.714 0 3.235 1.311 6.164 3.431 8.283v0l3.5 3.383h-41.883c-6.443 0-11.667 5.223-11.667 11.667v0 23.333c0 6.443 5.223 11.667 11.667 11.667s11.667-5.223 11.667-11.667v0-11.667h30.217l-3.5 3.383c-2.131 2.114-3.451 5.045-3.451 8.283s1.32 6.169 3.45 8.283l0.001 0.001c2.114 2.131 5.045 3.451 8.283 3.451s6.169-1.32 8.283-3.45l23.334-23.334c2.131-2.114 3.451-5.045 3.451-8.283s-1.32-6.169-3.45-8.283l-0.001-0.001z"></path>
</svg>
