<!-- Generated by IcoMoon.io -->
<svg version="1.1" xmlns="http://www.w3.org/2000/svg" width="280" height="280" viewBox="0 0 280 280">
<title>ul-database-alt</title>
<path fill="#37352f" d="M93.333 198.333c-6.443 0-11.667 5.223-11.667 11.667s5.223 11.667 11.667 11.667c6.443 0 11.667-5.223 11.667-11.667v0c0-6.443-5.223-11.667-11.667-11.667v0zM93.333 128.333c-6.443 0-11.667 5.223-11.667 11.667s5.223 11.667 11.667 11.667c6.443 0 11.667-5.223 11.667-11.667v0c0-6.443-5.223-11.667-11.667-11.667v0zM186.667 23.333h-93.333c-25.773 0-46.667 20.893-46.667 46.667v0 140c0 25.773 20.893 46.667 46.667 46.667v0h93.333c25.773 0 46.667-20.893 46.667-46.667v0-140c0-25.773-20.893-46.667-46.667-46.667v0zM210 210c0 12.887-10.447 23.333-23.333 23.333v0h-93.333c-12.887 0-23.333-10.447-23.333-23.333v0-29.867c6.658 4.071 14.709 6.496 23.323 6.533h93.344c8.624-0.037 16.675-2.462 23.534-6.647l-0.201 0.114zM210 140c0 12.887-10.447 23.333-23.333 23.333v0h-93.333c-12.887 0-23.333-10.447-23.333-23.333v0-29.867c6.658 4.071 14.709 6.496 23.323 6.533h93.344c8.624-0.037 16.675-2.462 23.534-6.647l-0.201 0.114zM186.667 93.333h-93.333c-12.887 0-23.333-10.447-23.333-23.333s10.447-23.333 23.333-23.333v0h93.333c12.887 0 23.333 10.447 23.333 23.333s-10.447 23.333-23.333 23.333v0z"></path>
</svg>
