<!-- Generated by IcoMoon.io -->
<svg version="1.1" xmlns="http://www.w3.org/2000/svg" width="280" height="280" viewBox="0 0 280 280">
<title>ul-envelope-info</title>
<path fill="#37352f" d="M245 157.5c-6.443 0-11.667 5.223-11.667 11.667v0 46.667c0 6.443-5.223 11.667-11.667 11.667v0h-163.333c-6.443 0-11.667-5.223-11.667-11.667v0-111.883l68.6 68.6c6.332 6.325 15.076 10.236 24.733 10.236s18.401-3.911 24.734-10.236l-0 0 41.883-41.767c2.12-2.12 3.431-5.048 3.431-8.283 0-6.47-5.245-11.714-11.714-11.714-3.235 0-6.164 1.311-8.283 3.431v0l-41.767 41.883c-2.114 2.131-5.045 3.451-8.283 3.451s-6.169-1.32-8.283-3.45l-68.601-68.601h135.217c6.443 0 11.667-5.223 11.667-11.667s-5.223-11.667-11.667-11.667v0h-140c-19.33 0-35 15.67-35 35v0 116.667c0 19.33 15.67 35 35 35v0h163.333c19.33 0 35-15.67 35-35v0-46.667c0-6.443-5.223-11.667-11.667-11.667v0zM245 52.5c3.219-0.046 6.129-1.326 8.288-3.388l-0.005 0.004 1.4-1.867c0.442-0.565 0.799-1.224 1.037-1.937l0.013-0.046c0.395-0.603 0.714-1.302 0.921-2.047l0.012-0.053c0.027-0.349 0.043-0.756 0.043-1.167s-0.016-0.818-0.046-1.22l0.003 0.054c-0.046-3.219-1.326-6.129-3.388-8.288l0.004 0.005c-2.114-2.131-5.045-3.451-8.283-3.451s-6.169 1.32-8.283 3.45l-0.001 0.001c-2.131 2.114-3.451 5.045-3.451 8.283s1.32 6.169 3.45 8.283l0.001 0.001c2.154 2.057 5.065 3.337 8.274 3.383h0.009zM245 64.167c-6.443 0-11.667 5.223-11.667 11.667v0 46.667c0 6.443 5.223 11.667 11.667 11.667s11.667-5.223 11.667-11.667v0-46.667c0-6.443-5.223-11.667-11.667-11.667v0z"></path>
</svg>
