<!-- Generated by IcoMoon.io -->
<svg version="1.1" xmlns="http://www.w3.org/2000/svg" width="280" height="280" viewBox="0 0 280 280">
<title>ul-expand-right</title>
<path fill="#37352f" d="M99.167 164.5l-52.5 52.5v-18.667c0-7-4.667-11.667-11.667-11.667s-11.667 4.667-11.667 11.667v46.667c0 1.167 0 3.5 1.167 4.667 1.167 2.333 3.5 4.667 5.833 5.833 1.167 1.167 3.5 1.167 4.667 1.167h46.667c7 0 11.667-4.667 11.667-11.667s-4.667-11.667-11.667-11.667h-18.667l52.5-52.5c4.667-4.667 4.667-11.667 0-16.333s-11.667-4.667-16.333 0zM253.167 26.833c0 0 0 0 0 0-2.333-2.333-5.833-3.5-8.167-3.5h-46.667c-7 0-11.667 4.667-11.667 11.667s4.667 11.667 11.667 11.667h18.667l-52.5 52.5c-4.667 4.667-4.667 11.667 0 16.333v0c2.333 2.333 4.667 3.5 8.167 3.5s5.833-1.167 8.167-3.5l52.5-52.5v18.667c0 7 4.667 11.667 11.667 11.667s11.667-4.667 11.667-11.667v-46.667c0-2.333-1.167-5.833-3.5-8.167zM180.833 164.5l-65.333-65.333c-4.667-4.667-11.667-4.667-16.333 0s-4.667 11.667 0 16.333l66.5 66.5c2.333 2.333 4.667 3.5 8.167 3.5s5.833-1.167 8.167-3.5c3.5-4.667 3.5-12.833-1.167-17.5 0 0 0 0 0 0z"></path>
</svg>
