<!-- Generated by IcoMoon.io -->
<svg version="1.1" xmlns="http://www.w3.org/2000/svg" width="280" height="280" viewBox="0 0 280 280">
<title>ul-exposure-increase</title>
<path fill="#37352f" d="M128.333 81.667h-11.667v-11.667c0-6.443-5.223-11.667-11.667-11.667s-11.667 5.223-11.667 11.667v0 11.667h-11.667c-6.443 0-11.667 5.223-11.667 11.667s5.223 11.667 11.667 11.667v0h11.667v11.667c0 6.443 5.223 11.667 11.667 11.667s11.667-5.223 11.667-11.667v0-11.667h11.667c6.443 0 11.667-5.223 11.667-11.667s-5.223-11.667-11.667-11.667v0zM151.667 210h46.667c6.443 0 11.667-5.223 11.667-11.667s-5.223-11.667-11.667-11.667v0h-46.667c-6.443 0-11.667 5.223-11.667 11.667s5.223 11.667 11.667 11.667v0zM221.667 23.333h-163.333c-19.33 0-35 15.67-35 35v0 163.333c0 19.33 15.67 35 35 35v0h163.333c19.33 0 35-15.67 35-35v0-163.333c0-19.33-15.67-35-35-35v0zM46.667 216.883v-158.55c0-6.443 5.223-11.667 11.667-11.667v0h158.55zM233.333 221.667c0 6.443-5.223 11.667-11.667 11.667v0h-158.55l170.217-170.217z"></path>
</svg>
