<!-- Generated by IcoMoon.io -->
<svg version="1.1" xmlns="http://www.w3.org/2000/svg" width="280" height="280" viewBox="0 0 280 280">
<title>ul-envelope-exclamation</title>
<path fill="#37352f" d="M245 157.5c-6.443 0-11.667 5.223-11.667 11.667v0 46.667c0 6.443-5.223 11.667-11.667 11.667v0h-163.333c-6.443 0-11.667-5.223-11.667-11.667v0-111.883l68.6 68.6c6.332 6.325 15.076 10.236 24.733 10.236s18.401-3.911 24.734-10.236l-0 0 41.883-41.767c2.12-2.12 3.431-5.048 3.431-8.283 0-6.47-5.245-11.714-11.714-11.714-3.235 0-6.164 1.311-8.283 3.431v0l-41.767 41.883c-2.114 2.131-5.045 3.451-8.283 3.451s-6.169-1.32-8.283-3.45l-68.601-68.601h135.217c6.443 0 11.667-5.223 11.667-11.667s-5.223-11.667-11.667-11.667v0h-140c-19.33 0-35 15.67-35 35v0 116.667c0 19.33 15.67 35 35 35v0h163.333c19.33 0 35-15.67 35-35v0-46.667c0-6.443-5.223-11.667-11.667-11.667v0zM245 29.167c-6.443 0-11.667 5.223-11.667 11.667v0 46.667c0 6.443 5.223 11.667 11.667 11.667s11.667-5.223 11.667-11.667v0-46.667c0-6.443-5.223-11.667-11.667-11.667v0zM242.667 110.833c-0.788 0.14-1.493 0.384-2.142 0.72l0.042-0.020c-0.801 0.279-1.495 0.634-2.13 1.070l0.030-0.020-1.75 1.4c-2.057 2.154-3.337 5.065-3.383 8.274v0.009c-0.027 0.332-0.043 0.718-0.043 1.108s0.016 0.777 0.046 1.159l-0.003-0.050c0.118 0.827 0.364 1.574 0.718 2.256l-0.018-0.039c0.279 0.801 0.634 1.495 1.070 2.13l-0.020-0.030c0.463 0.654 0.923 1.224 1.414 1.765l-0.014-0.015c2.114 2.131 5.045 3.451 8.283 3.451s6.169-1.32 8.283-3.45l0.001-0.001 1.4-1.75c0.416-0.605 0.771-1.299 1.031-2.038l0.019-0.062c0.336-0.643 0.582-1.39 0.696-2.179l0.004-0.037c0.027-0.332 0.043-0.718 0.043-1.108s-0.016-0.777-0.046-1.159l0.003 0.050c0.002-0.070 0.002-0.153 0.002-0.236 0-6.443-5.223-11.667-11.667-11.667-0.827 0-1.634 0.086-2.412 0.25l0.076-0.013z"></path>
</svg>
