<!-- Generated by IcoMoon.io -->
<svg version="1.1" xmlns="http://www.w3.org/2000/svg" width="280" height="280" viewBox="0 0 280 280">
<title>ul-ear</title>
<path fill="#37352f" d="M140 93.333c6.442 0.004 11.662 5.225 11.667 11.666v0.001c0 6.443 5.223 11.667 11.667 11.667s11.667-5.223 11.667-11.667v0c-0.011-19.319-15.674-34.975-34.994-34.975-19.327 0-34.994 15.667-34.994 34.994 0 10.247 4.404 19.465 11.422 25.864l0.028 0.025c0.117 0.106 1.88 1.982 2.256 2.507 1.27 1.825 2.028 4.088 2.028 6.528s-0.759 4.703-2.053 6.566l0.025-0.038c-1.28 1.845-2.045 4.131-2.045 6.597 0 6.44 5.221 11.661 11.661 11.661 3.975 0 7.486-1.989 9.591-5.026l0.025-0.039c3.837-5.514 6.13-12.352 6.13-19.726 0-7.409-2.315-14.277-6.261-19.921l0.074 0.112c-1.893-2.375-3.767-4.491-5.744-6.508l0.013 0.014c-0.686-0.628-1.294-1.323-1.819-2.079l-0.027-0.040c-1.242-1.827-1.982-4.081-1.982-6.508 0-6.445 5.222-11.67 11.666-11.675h0.001zM140 23.333c-45.104 0.004-81.667 36.569-81.667 81.674 0 7.514 1.015 14.791 2.914 21.701l-0.135-0.573c1.392 4.997 5.903 8.603 11.256 8.603 6.443 0 11.665-5.223 11.665-11.665 0-1.058-0.141-2.082-0.405-3.057l0.019 0.082c-1.262-4.527-1.987-9.726-1.987-15.094 0-32.218 26.118-58.335 58.335-58.335s58.334 26.116 58.335 58.333v0c-0.053 11.051-3.103 21.379-8.377 30.226l0.151-0.273-41.574 86.714c-4.116 7.014-11.615 11.652-20.198 11.667h-0.002c-12.816-0.175-23.158-10.518-23.333-23.317l-0-0.017c0-0 0-0 0-0.001 0-4.292 1.163-8.313 3.192-11.764l-0.059 0.109c0.986-1.676 1.569-3.692 1.569-5.845 0-6.448-5.227-11.674-11.674-11.674-4.295 0-8.049 2.32-10.076 5.774l-0.030 0.055c-3.941 6.699-6.268 14.756-6.268 23.357 0 25.765 20.887 46.653 46.653 46.653 17.497 0 32.744-9.632 40.728-23.883l0.121-0.235 41.574-86.714c6.876-11.712 10.938-25.796 10.938-40.828 0-45.104-36.563-81.669-81.666-81.672h-0z"></path>
</svg>
