<!-- Generated by IcoMoon.io -->
<svg version="1.1" xmlns="http://www.w3.org/2000/svg" width="280" height="280" viewBox="0 0 280 280">
<title>ul-envelope-minus</title>
<path fill="#37352f" d="M245 93.333c-6.443 0-11.667 5.223-11.667 11.667v0 93.333c0 6.443-5.223 11.667-11.667 11.667v0h-163.333c-6.443 0-11.667-5.223-11.667-11.667v0-111.883l68.6 68.6c6.332 6.325 15.076 10.236 24.733 10.236s18.401-3.911 24.734-10.236l-0 0 41.883-41.767c2.12-2.12 3.431-5.048 3.431-8.283 0-6.47-5.245-11.714-11.714-11.714-3.235 0-6.164 1.311-8.283 3.431v0l-41.767 41.883c-2.114 2.131-5.045 3.451-8.283 3.451s-6.169-1.32-8.283-3.45l-68.601-68.601h88.55c6.443 0 11.667-5.223 11.667-11.667s-5.223-11.667-11.667-11.667v0h-93.333c-19.33 0-35 15.67-35 35v0 116.667c0 19.33 15.67 35 35 35v0h163.333c19.33 0 35-15.67 35-35v0-93.333c0-6.443-5.223-11.667-11.667-11.667v0zM198.333 70h46.667c6.443 0 11.667-5.223 11.667-11.667s-5.223-11.667-11.667-11.667v0h-46.667c-6.443 0-11.667 5.223-11.667 11.667s5.223 11.667 11.667 11.667v0z"></path>
</svg>
