<!-- Generated by IcoMoon.io -->
<svg version="1.1" xmlns="http://www.w3.org/2000/svg" width="280" height="280" viewBox="0 0 280 280">
<title>ul-focus-add</title>
<path fill="#37352f" d="M93.333 233.333h-35c-6.443 0-11.667-5.223-11.667-11.667v0-35c0-6.443-5.223-11.667-11.667-11.667s-11.667 5.223-11.667 11.667v0 35c0 19.33 15.67 35 35 35v0h35c6.443 0 11.667-5.223 11.667-11.667s-5.223-11.667-11.667-11.667v0zM35 105c6.443 0 11.667-5.223 11.667-11.667v0-35c0-6.443 5.223-11.667 11.667-11.667v0h35c6.443 0 11.667-5.223 11.667-11.667s-5.223-11.667-11.667-11.667v0h-35c-19.33 0-35 15.67-35 35v0 35c0 6.443 5.223 11.667 11.667 11.667v0zM221.667 23.333h-35c-6.443 0-11.667 5.223-11.667 11.667s5.223 11.667 11.667 11.667v0h35c6.443 0 11.667 5.223 11.667 11.667v0 35c0 6.443 5.223 11.667 11.667 11.667s11.667-5.223 11.667-11.667v0-35c0-19.33-15.67-35-35-35v0zM186.667 140c0-6.443-5.223-11.667-11.667-11.667v0h-23.333v-23.333c0-6.443-5.223-11.667-11.667-11.667s-11.667 5.223-11.667 11.667v0 23.333h-23.333c-6.443 0-11.667 5.223-11.667 11.667s5.223 11.667 11.667 11.667v0h23.333v23.333c0 6.443 5.223 11.667 11.667 11.667s11.667-5.223 11.667-11.667v0-23.333h23.333c6.443 0 11.667-5.223 11.667-11.667v0zM245 175c-6.443 0-11.667 5.223-11.667 11.667v0 35c0 6.443-5.223 11.667-11.667 11.667v0h-35c-6.443 0-11.667 5.223-11.667 11.667s5.223 11.667 11.667 11.667v0h35c19.33 0 35-15.67 35-35v0-35c0-6.443-5.223-11.667-11.667-11.667v0z"></path>
</svg>
