<!-- Generated by IcoMoon.io -->
<svg version="1.1" xmlns="http://www.w3.org/2000/svg" width="280" height="280" viewBox="0 0 280 280">
<title>ul-folder-question</title>
<path fill="#37352f" d="M146.65 190.167c-0.499-0.589-1.076-1.092-1.719-1.498l-0.031-0.018-1.983-1.050-2.217-0.933c-0.66-0.132-1.418-0.208-2.193-0.208-3.25 0-6.19 1.329-8.305 3.473l-0.001 0.001c-1.065 1.040-1.931 2.279-2.537 3.659l-0.029 0.075c-0.518 1.272-0.819 2.749-0.819 4.295 0 0.090 0.001 0.179 0.003 0.268l-0-0.013c0.014 3.187 1.303 6.070 3.384 8.167l-0.001-0.001c1.040 1.065 2.279 1.931 3.659 2.537l0.075 0.029c1.272 0.518 2.749 0.819 4.295 0.819 0.090 0 0.179-0.001 0.268-0.003l-0.013 0c0.042 0.001 0.093 0.001 0.143 0.001 1.545 0 3.019-0.3 4.369-0.845l-0.078 0.028c1.454-0.636 2.693-1.501 3.731-2.564l0.002-0.002c2.123-2.081 3.453-4.964 3.5-8.158v-0.009c-0.003-1.644-0.346-3.208-0.963-4.625l0.029 0.075c-0.621-1.38-1.488-2.546-2.556-3.491l-0.011-0.009zM138.483 105c-0.007 0-0.014 0-0.022 0-12.887 0-24.147 6.964-30.221 17.335l-0.089 0.165c-1.142 1.772-1.821 3.936-1.821 6.259 0 6.443 5.223 11.667 11.667 11.667 4.466 0 8.346-2.51 10.307-6.196l0.031-0.063c2.044-3.558 5.822-5.915 10.15-5.915 6.443 0 11.667 5.223 11.667 11.667 0 0.029 0 0.057-0 0.086v-0.004c0 6.443-5.223 11.667-11.667 11.667v0c-6.443 0-11.667 5.223-11.667 11.667s5.223 11.667 11.667 11.667v0c19.33 0 35-15.67 35-35s-15.67-35-35-35v0zM221.667 64.167h-73.267l-3.733-11.667c-4.95-13.71-17.85-23.334-32.998-23.334-0.048 0-0.095 0-0.142 0h-53.193c-19.33 0-35 15.67-35 35v0 151.667c0 19.33 15.67 35 35 35v0h163.333c19.33 0 35-15.67 35-35v0-116.667c0-19.33-15.67-35-35-35v0zM233.333 215.833c0 6.443-5.223 11.667-11.667 11.667v0h-163.333c-6.443 0-11.667-5.223-11.667-11.667v0-151.667c0-6.443 5.223-11.667 11.667-11.667v0h53.2c0.009 0 0.019 0 0.030 0 5.107 0 9.448 3.282 11.029 7.851l0.025 0.082 6.3 19.133c1.605 4.652 5.946 7.933 11.053 7.933 0.011 0 0.021 0 0.032 0h81.665c6.443 0 11.667 5.223 11.667 11.667v0z"></path>
</svg>
