<!-- Generated by IcoMoon.io -->
<svg version="1.1" xmlns="http://www.w3.org/2000/svg" width="280" height="280" viewBox="0 0 280 280">
<title>ul-flip-h</title>
<path fill="#37352f" d="M245 128.333h-210c-6.443 0-11.667 5.223-11.667 11.667s5.223 11.667 11.667 11.667v0h210c6.443 0 11.667-5.223 11.667-11.667s-5.223-11.667-11.667-11.667v0zM127.517 105h17.5c6.443 0 11.667-5.223 11.667-11.667s-5.223-11.667-11.667-11.667v0h-17.5c-6.443 0-11.667 5.223-11.667 11.667s5.223 11.667 11.667 11.667v0zM180.017 93.333c0 6.443 5.223 11.667 11.667 11.667v0h6.65c4.821-0.025 8.949-2.97 10.705-7.156l0.029-0.077c0.577-1.335 0.912-2.89 0.912-4.522 0-3.194-1.284-6.089-3.363-8.195l0.001 0.001-7.7-7.583c-2.109-2.097-5.016-3.393-8.225-3.393s-6.116 1.296-8.226 3.393l0.001-0.001c-2.114 2.112-3.421 5.030-3.421 8.254 0 1.88 0.445 3.657 1.235 5.23l-0.031-0.067c-0.127 0.722-0.211 1.567-0.233 2.428l-0.001 0.022zM135.917 55.65l4.083-4.2 9.45 9.45c2.109 2.097 5.016 3.393 8.225 3.393s6.116-1.296 8.226-3.393l-0.001 0.001c2.097-2.109 3.393-5.016 3.393-8.225s-1.296-6.116-3.393-8.226l-12.366-12.366c-0.854-0.894-1.857-1.637-2.971-2.189l-0.062-0.028c-1.931-3.934-5.908-6.594-10.506-6.594-3.235 0-6.163 1.317-8.276 3.444l-12.367 12.367c-2.12 2.12-3.431 5.048-3.431 8.283 0 6.47 5.245 11.714 11.714 11.714 3.235 0 6.164-1.311 8.283-3.431v0zM198.333 175h-116.667c-4.821 0.025-8.949 2.97-10.705 7.156l-0.029 0.077c-0.577 1.335-0.912 2.89-0.912 4.522 0 3.194 1.284 6.089 3.363 8.195l-0.001-0.001 58.333 58.333c2.114 2.131 5.045 3.451 8.283 3.451s6.169-1.32 8.283-3.45l58.334-58.334c2.078-2.105 3.362-5 3.362-8.194 0-1.633-0.336-3.187-0.941-4.598l0.029 0.076c-1.785-4.263-5.912-7.209-10.73-7.233h-0.003zM140 228.55l-30.217-30.217h60.433zM82.25 105c0.020 0 0.044 0 0.068 0 3.205 0 6.108-1.292 8.217-3.384l-0.001 0.001 12.367-12.95c2.12-2.12 3.431-5.048 3.431-8.283 0-6.47-5.245-11.714-11.714-11.714-3.235 0-6.164 1.311-8.283 3.431l-12.367 12.367c-2.131 2.114-3.451 5.045-3.451 8.283s1.32 6.169 3.45 8.283l0.001 0.001c2.044 2.323 4.975 3.823 8.259 3.966l0.024 0.001z"></path>
</svg>
