<!-- Generated by IcoMoon.io -->
<svg version="1.1" xmlns="http://www.w3.org/2000/svg" width="280" height="280" viewBox="0 0 280 280">
<title>ul-feedback</title>
<path fill="#37352f" d="M256.667 11.667h-81.667c-0.035-0-0.076-0-0.117-0-13.907 0-25.485 9.973-27.972 23.157l-0.028 0.177-10.733 58.917c-0.289 1.522-0.454 3.273-0.454 5.062 0 6.975 2.509 13.364 6.673 18.314l-0.036-0.043c5.296 6.266 13.148 10.229 21.927 10.267h34.073l-2.917 7.7c-1.549 3.985-2.447 8.599-2.447 13.421 0 20.799 16.695 37.699 37.416 38.028l0.031 0c0.027 0 0.060 0 0.092 0 4.711 0 8.769-2.792 10.611-6.811l0.030-0.073 26.133-59.033c0.566-1.193 0.942-2.582 1.048-4.046l0.002-0.038v-93.333c0-6.443-5.223-11.667-11.667-11.667v0zM245 113.517l-21.35 48.183c-2.116-1.166-3.872-2.736-5.218-4.619l-0.032-0.047c-1.645-2.304-2.63-5.177-2.63-8.28 0-1.891 0.366-3.697 1.031-5.35l-0.034 0.097 4.433-11.667c0.83-2.091 1.312-4.514 1.312-7.049 0-4.271-1.366-8.223-3.685-11.442l0.040 0.058c-3.636-5.109-9.537-8.401-16.207-8.401-0.085 0-0.171 0.001-0.256 0.002h-38.37c-0.004 0-0.010 0-0.015 0-1.623 0-3.078-0.721-4.062-1.86l-0.006-0.007c-0.698-0.95-1.117-2.143-1.117-3.433 0-0.312 0.024-0.618 0.072-0.917l-0.004 0.033 10.733-58.333c-0.008-0.106-0.012-0.231-0.012-0.356 0-2.835 2.298-5.133 5.133-5.133 0.086 0 0.172 0.002 0.258 0.006l-0.012-0.001h70zM115.967 152.25h-33.717l2.917-7.7c1.493-3.918 2.358-8.45 2.358-13.184 0-20.973-16.976-37.981-37.936-38.033h-0.005c-0.027-0-0.060-0-0.092-0-4.711 0-8.769 2.792-10.611 6.811l-0.030 0.073-26.133 59.033c-0.64 1.369-1.024 2.97-1.050 4.657v93.343c0 6.443 5.223 11.667 11.667 11.667v0h81.667c0.035 0 0.076 0 0.117 0 13.907 0 25.485-9.973 27.972-23.157l0.028-0.177 10.733-58.333c0.289-1.522 0.454-3.273 0.454-5.062 0-6.975-2.509-13.364-6.673-18.314l0.036 0.043c-5.017-6.744-12.795-11.193-21.628-11.663l-0.072-0.003zM110.367 240.683c-0.404 2.466-2.519 4.325-5.069 4.325-0.105 0-0.208-0.003-0.311-0.009l0.014 0.001h-70v-78.517l21.35-48.183c2.116 1.166 3.872 2.736 5.218 4.619l0.032 0.047c1.645 2.304 2.63 5.177 2.63 8.28 0 1.891-0.366 3.697-1.031 5.35l0.034-0.097-4.433 11.667c-0.83 2.091-1.312 4.514-1.312 7.049 0 4.271 1.366 8.223 3.685 11.442l-0.040-0.058c3.622 5.242 9.599 8.634 16.369 8.634 0.029 0 0.057 0 0.086-0h38.379c0.004 0 0.010 0 0.015 0 1.623 0 3.078 0.721 4.062 1.86l0.006 0.007c0.698 0.95 1.117 2.143 1.117 3.433 0 0.312-0.024 0.618-0.072 0.917l0.004-0.033z"></path>
</svg>
