<!-- Generated by IcoMoon.io -->
<svg version="1.1" xmlns="http://www.w3.org/2000/svg" width="280" height="280" viewBox="0 0 280 280">
<title>ul-file</title>
<path fill="#37352f" d="M233.333 104.3c-0.136-1.174-0.382-2.24-0.732-3.257l0.032 0.107v-1.050c-0.594-1.255-1.336-2.333-2.222-3.273l0.006 0.006-70-70c-0.934-0.88-2.011-1.622-3.191-2.184l-0.075-0.032h-1.050l-3.733-1.283h-70.7c-19.33 0-35 15.67-35 35v0 163.333c0 19.33 15.67 35 35 35v0h116.667c19.33 0 35-15.67 35-35v0-116.667s0 0 0-0.7zM163.333 63.117l30.217 30.217h-30.217zM210 221.667c0 6.443-5.223 11.667-11.667 11.667v0h-116.667c-6.443 0-11.667-5.223-11.667-11.667v0-163.333c0-6.443 5.223-11.667 11.667-11.667v0h58.333v58.333c0 6.443 5.223 11.667 11.667 11.667v0h58.333z"></path>
</svg>
