<!-- Generated by IcoMoon.io -->
<svg version="1.1" xmlns="http://www.w3.org/2000/svg" width="280" height="280" viewBox="0 0 280 280">
<title>ul-folder-open</title>
<path fill="#37352f" d="M265.767 120.983c-2.156-2.643-5.413-4.317-9.060-4.317-0.014 0-0.028 0-0.042 0h-23.331v-11.667c0-19.33-15.67-35-35-35v0h-73.267l-3.733-11.667c-4.95-13.71-17.85-23.334-32.998-23.334-0.048 0-0.095 0-0.142 0h-41.526c-19.33 0-35 15.67-35 35v0 140c0 19.33 15.67 35 35 35v0h168c16.6-0.050 30.478-11.649 34.022-27.182l0.045-0.235 19.6-86.683c0.15-0.701 0.235-1.506 0.235-2.332 0-2.903-1.060-5.559-2.815-7.6l0.013 0.016zM62.65 212.567c-1.212 5.249-5.847 9.104-11.382 9.104-0.1 0-0.2-0.001-0.3-0.004l0.015 0h-4.317c-6.443 0-11.667-5.223-11.667-11.667v0-140c0-6.443 5.223-11.667 11.667-11.667v0h41.533c0.182-0.010 0.394-0.016 0.608-0.016 5.113 0 9.458 3.289 11.034 7.867l0.025 0.082 6.3 19.133c1.541 4.483 5.616 7.692 10.473 7.932l0.027 0.001h81.667c6.443 0 11.667 5.223 11.667 11.667v0 11.667h-116.667c-0.085-0.002-0.185-0.004-0.285-0.004-5.535 0-10.169 3.854-11.366 9.025l-0.015 0.079zM225.983 212.567c-1.212 5.249-5.847 9.104-11.382 9.104-0.1 0-0.2-0.001-0.3-0.004l0.015 0h-130.2c0.562-1.179 1.007-2.548 1.268-3.982l0.015-0.101 17.267-77.583h140z"></path>
</svg>
