<!-- Generated by IcoMoon.io -->
<svg version="1.1" xmlns="http://www.w3.org/2000/svg" width="280" height="280" viewBox="0 0 280 280">
<title>ul-file-contract-dollar</title>
<path fill="#37352f" d="M253.283 236.717l-19.95-20.183c0-1.283 0-2.45 0-3.617 0-17.719-14.364-32.083-32.083-32.083v0h-3.967l-16.8-16.8c0.95-0.442 2.061-0.7 3.233-0.7 0.012 0 0.024 0 0.035 0h37.915c6.443 0 11.667-5.223 11.667-11.667s-5.223-11.667-11.667-11.667v0h-17.5v-11.667c0-6.443-5.223-11.667-11.667-11.667s-11.667 5.223-11.667 11.667v0 11.667c-6.563 0.598-12.449 3.096-17.212 6.931l0.062-0.048-15.4-15.517c-2.12-2.12-5.048-3.431-8.283-3.431-6.47 0-11.714 5.245-11.714 11.714 0 3.235 1.311 6.164 3.431 8.283v0l19.95 20.533c0 1.283 0 2.45 0 3.617 0 17.719 14.364 32.083 32.083 32.083v0h3.967l16.8 16.8c-0.95 0.442-2.061 0.7-3.233 0.7-0.012 0-0.024 0-0.035 0h-37.915c-6.443 0-11.667 5.223-11.667 11.667s5.223 11.667 11.667 11.667v0h17.5v11.667c0 6.443 5.223 11.667 11.667 11.667s11.667-5.223 11.667-11.667v0-11.667c6.724-0.632 12.737-3.259 17.551-7.275l-0.051 0.042 15.4 15.517c2.114 2.131 5.045 3.451 8.283 3.451s6.169-1.32 8.283-3.45l0.001-0.001c2.029-2.096 3.28-4.957 3.28-8.11 0-3.326-1.392-6.327-3.625-8.452l-0.005-0.005zM116.667 221.667h-58.333c-6.443 0-11.667-5.223-11.667-11.667v0-163.333c0-6.443 5.223-11.667 11.667-11.667v0h70v46.667c0 6.443 5.223 11.667 11.667 11.667v0h58.333c4.821-0.025 8.949-2.97 10.705-7.156l0.029-0.077c0.577-1.335 0.912-2.89 0.912-4.522 0-3.194-1.284-6.089-3.363-8.195l0.001 0.001-58.333-58.333c-0.934-0.88-2.011-1.622-3.191-2.184l-0.075-0.032h-1.050c-0.935-0.472-2.024-0.873-3.163-1.146l-0.104-0.021h-82.367c-19.33 0-35 15.67-35 35v0 163.333c0 19.33 15.67 35 35 35v0h58.333c6.443 0 11.667-5.223 11.667-11.667s-5.223-11.667-11.667-11.667v0zM151.667 51.45l18.55 18.55h-18.55z"></path>
</svg>
