<!-- Generated by IcoMoon.io -->
<svg version="1.1" xmlns="http://www.w3.org/2000/svg" width="280" height="280" viewBox="0 0 280 280">
<title>ul-heart-rate</title>
<path fill="#37352f" d="M245 128.333h-45.967c-0.368-0.053-0.793-0.083-1.225-0.083s-0.857 0.030-1.273 0.088l0.048-0.005h-1.983c-0.67 0.385-1.242 0.771-1.784 1.192l0.034-0.026c-0.706 0.469-1.315 0.929-1.894 1.423l0.027-0.023c-0.366 0.445-0.713 0.941-1.020 1.462l-0.030 0.054c-0.496 0.674-0.962 1.439-1.36 2.243l-0.040 0.090-18.667 51.45-48.65-131.833c-1.675-4.522-5.951-7.686-10.967-7.686s-9.291 3.164-10.941 7.606l-0.026 0.081-26.95 73.967h-37.333c-6.443 0-11.667 5.223-11.667 11.667s5.223 11.667 11.667 11.667v0h50.167c0.711-0.346 1.324-0.734 1.887-1.182l-0.021 0.016c0.706-0.469 1.315-0.929 1.894-1.423l-0.027 0.023 1.050-1.517c0.527-0.676 0.994-1.443 1.37-2.261l0.030-0.072 18.9-52.85 48.533 133.233c1.671 4.528 5.948 7.698 10.966 7.7h0c5.018-0.002 9.296-3.172 10.941-7.619l0.026-0.081 26.833-73.967h37.45c6.443 0 11.667-5.223 11.667-11.667s-5.223-11.667-11.667-11.667v0z"></path>
</svg>
