<!-- Generated by IcoMoon.io -->
<svg version="1.1" xmlns="http://www.w3.org/2000/svg" width="280" height="280" viewBox="0 0 280 280">
<title>ul-hourglass</title>
<path fill="#37352f" d="M221.57 245.023h-11.667v-19.448c-0.039-7.033-1.317-13.756-3.626-19.977l0.131 0.404c-0.127-0.343-0.261-0.66-0.419-0.986-2.049-5.509-4.665-10.276-7.864-14.585l0.11 0.156-16.332-21.784c-4.358-5.785-6.986-13.089-7.001-21.005v-11.785c0.029-9.659 3.938-18.399 10.25-24.748l7.666-7.666c8.63-8.675 14.52-20.085 16.257-32.815l0.033-0.299c0.006-0.162 0.093-0.297 0.093-0.461l-0.033-0.16c0.378-2.189 0.641-4.778 0.731-7.41l0.003-0.098v-27.332h11.667c6.443 0 11.667-5.223 11.667-11.667s-5.223-11.667-11.667-11.667v0h-163.333c-6.443 0-11.667 5.223-11.667 11.667s5.223 11.667 11.667 11.667v0h11.667v27.332c0.092 2.73 0.355 5.318 0.781 7.851l-0.048-0.343-0.033 0.161c0 0.163 0.087 0.299 0.093 0.461 1.771 13.030 7.66 24.439 16.293 33.117l7.665 7.665c6.31 6.347 10.219 15.087 10.248 24.74v11.787c-0.016 7.92-2.641 15.223-7.061 21.1l0.065-0.091-16.344 21.783c-3.087 4.154-5.703 8.923-7.619 14.033l-0.132 0.401c-0.155 0.323-0.288 0.637-0.415 0.976-2.178 5.82-3.456 12.544-3.496 19.562v19.465h-11.667c-6.443 0-11.667 5.223-11.667 11.667s5.223 11.667 11.667 11.667v0h163.333c6.443 0 11.667-5.223 11.667-11.667s-5.223-11.667-11.667-11.667v0zM93.236 58.357v-23.333h93.333v23.333zM103.485 87.102c-1.605-1.612-3.052-3.382-4.317-5.284l-0.080-0.127h81.631c-1.345 2.030-2.793 3.8-4.398 5.413l-7.666 7.666c-8.817 8.767-14.824 20.352-16.556 33.291l-0.033 0.296h-24.325c-1.764-13.235-7.771-24.821-16.585-33.586l-0.003-0.003zM116.575 182.793c6.492-8.622 10.693-19.302 11.519-30.916l0.011-0.188h23.595c0.836 11.802 5.039 22.483 11.644 31.253l-0.108-0.15 11.668 15.563h-70.006zM186.57 245.023h-93.333v-19.448c0.036-1.407 0.15-2.75 0.339-4.069l-0.022 0.184h92.698c0.167 1.135 0.282 2.478 0.317 3.84l0.001 0.045z"></path>
</svg>
