<!-- Generated by IcoMoon.io -->
<svg version="1.1" xmlns="http://www.w3.org/2000/svg" width="280" height="280" viewBox="0 0 280 280">
<title>ul-image-minus</title>
<path fill="#37352f" d="M245 46.758h-46.667c-6.443 0-11.667 5.223-11.667 11.667s5.223 11.667 11.667 11.667v0h46.667c6.443 0 11.667-5.223 11.667-11.667s-5.223-11.667-11.667-11.667v0zM221.667 93.333c-6.443 0-11.667 5.223-11.667 11.667v0 62.902l-17.272-17.272c-5.868-5.857-13.968-9.478-22.915-9.478s-17.047 3.622-22.915 9.479l-8.143 8.143-29.004-29.005c-5.861-5.853-13.954-9.472-22.892-9.472s-17.031 3.619-22.892 9.472l-17.3 17.301v-65.403c0.009-6.44 5.227-11.658 11.666-11.667h93.334c6.443 0 11.667-5.223 11.667-11.667s-5.223-11.667-11.667-11.667v0h-93.333c-19.321 0.022-34.978 15.679-35 34.998v140.002c0.022 19.321 15.679 34.978 34.998 35h140.002c19.321-0.022 34.978-15.679 35-34.998v-116.669c0-6.443-5.223-11.667-11.667-11.667v0zM58.333 233.333c-6.44-0.009-11.658-5.227-11.667-11.666v-41.603l33.798-33.798c1.665-1.572 3.917-2.538 6.394-2.538s4.729 0.966 6.399 2.542l-0.005-0.004 36.96 36.95c0.099 0.107 0.135 0.254 0.239 0.357l49.764 49.76zM210 221.667c-0.062 2.356-0.835 4.52-2.109 6.3l0.023-0.034-52.662-52.662 8.143-8.143c1.645-1.637 3.913-2.649 6.417-2.649s4.773 1.012 6.418 2.649l33.769 33.769z"></path>
</svg>
