<!-- Generated by IcoMoon.io -->
<svg version="1.1" xmlns="http://www.w3.org/2000/svg" width="280" height="280" viewBox="0 0 280 280">
<title>ul-images</title>
<path fill="#37352f" d="M210 175v-116.667c0-19.33-15.67-35-35-35v0h-116.667c-19.33 0-35 15.67-35 35v0 116.667c0 19.33 15.67 35 35 35v0h116.667c19.33 0 35-15.67 35-35v0zM46.667 58.333c0-6.443 5.223-11.667 11.667-11.667v0h116.667c6.443 0 11.667 5.223 11.667 11.667v0 50.867l-12.6-12.717c-5.404-5.405-12.87-8.749-21.116-8.75h-0c-8.242 0.029-15.7 3.365-21.118 8.751l-10.615 10.615-9.45-9.45c-6.166-6.070-14.633-9.818-23.975-9.818s-17.809 3.748-23.979 9.822l0.004-0.004-17.15 17.267zM48.067 180.25c-0.863-1.512-1.379-3.318-1.4-5.244v-27.189l33.6-33.6c1.923-1.932 4.584-3.128 7.525-3.128s5.602 1.195 7.525 3.127l0 0 9.683 9.45zM148.4 113.050c1.114-1.221 2.711-1.984 4.487-1.984 0.022 0 0.044 0 0.066 0h-0.003c0.019-0 0.041-0 0.063-0 1.776 0 3.373 0.763 4.483 1.979l0.004 0.005 29.167 29.050v32.9c0 6.443-5.223 11.667-11.667 11.667v0h-100.333zM245 70c-6.443 0-11.667 5.223-11.667 11.667v0 116.667c0 19.33-15.67 35-35 35v0h-116.667c-6.443 0-11.667 5.223-11.667 11.667s5.223 11.667 11.667 11.667v0h116.667c32.217 0 58.333-26.117 58.333-58.333v0-116.667c0-6.443-5.223-11.667-11.667-11.667v0z"></path>
</svg>
