<!-- Generated by IcoMoon.io -->
<svg version="1.1" xmlns="http://www.w3.org/2000/svg" width="280" height="280" viewBox="0 0 280 280">
<title>ul-image-shield</title>
<path fill="#37352f" d="M258.183 27.533c-1.986-1.617-4.548-2.596-7.337-2.596-0.872 0-1.722 0.096-2.54 0.277l0.078-0.014c-2.059 0.479-4.423 0.754-6.851 0.754-7.090 0-13.633-2.343-18.897-6.296l0.081 0.058c-1.903-1.404-4.295-2.247-6.883-2.247s-4.98 0.843-6.916 2.27l0.032-0.023c-5.183 3.895-11.726 6.237-18.816 6.237-2.428 0-4.792-0.275-7.062-0.795l0.212 0.041c-0.74-0.167-1.59-0.263-2.463-0.263-2.79 0-5.351 0.979-7.359 2.613l0.021-0.017c-2.643 2.156-4.317 5.413-4.317 9.060 0 0.014 0 0.028 0 0.042v-0.002 38.617c0 0.018 0 0.038 0 0.059 0 17.549 8.369 33.144 21.334 43.011l0.133 0.097 18.317 13.533c1.903 1.404 4.295 2.247 6.883 2.247s4.98-0.843 6.916-2.27l-0.032 0.023 18.317-13.533c13.097-9.964 21.467-25.558 21.467-43.108 0-0.021 0-0.041 0-0.062v0.003-38.617c0-0.012 0-0.026 0-0.040 0-3.648-1.674-6.904-4.296-9.044l-0.021-0.017zM239.167 75.25c0.001 0.107 0.002 0.232 0.002 0.358 0 9.719-4.536 18.377-11.605 23.976l-0.064 0.049-11.667 8.4-11.667-8.4c-7.133-5.647-11.669-14.307-11.669-24.025 0-0.126 0.001-0.252 0.002-0.378l-0 0.019v-26.017c8.592-0.413 16.564-2.696 23.638-6.447l-0.304 0.147c6.769 3.604 14.741 5.887 23.205 6.295l0.128 0.005zM215.833 157.5c-6.443 0-11.667 5.223-11.667 11.667v0 4.55l-17.5-17.267c-5.855-5.892-13.964-9.539-22.925-9.539s-17.070 3.647-22.923 9.537l-8.168 8.168-28.7-29.050c-5.953-5.675-14.031-9.167-22.925-9.167s-16.972 3.492-22.938 9.179l0.013-0.013-17.267 17.267v-65.333c0-6.443 5.223-11.667 11.667-11.667v0h81.667c6.443 0 11.667-5.223 11.667-11.667s-5.223-11.667-11.667-11.667v0h-81.667c-19.33 0-35 15.67-35 35v0 140c0 19.33 15.67 35 35 35v0h140c19.33 0 35-15.67 35-35v0-58.333c0-6.443-5.223-11.667-11.667-11.667v0zM52.5 239.167c-6.443 0-11.667-5.223-11.667-11.667v0-41.65l33.833-34.183c1.65-1.575 3.891-2.544 6.358-2.544s4.708 0.969 6.362 2.548l36.98 36.98 50.633 50.517zM204.167 227.5c-0.105 2.327-0.876 4.454-2.125 6.22l0.025-0.036-52.617-52.617 8.167-8.167c1.645-1.636 3.913-2.647 6.417-2.647s4.772 1.011 6.417 2.648l-0-0 33.717 33.833z"></path>
</svg>
