<!-- Generated by IcoMoon.io -->
<svg version="1.1" xmlns="http://www.w3.org/2000/svg" width="280" height="280" viewBox="0 0 280 280">
<title>ul-image-times</title>
<path fill="#37352f" d="M221.667 116.667c-6.443 0-11.667 5.223-11.667 11.667v0 39.55l-17.267-17.267c-5.855-5.892-13.964-9.539-22.925-9.539s-17.070 3.647-22.923 9.537l-8.168 8.168-28.933-29.050c-5.881-5.836-13.982-9.443-22.925-9.443s-17.044 3.607-22.927 9.445l0.002-0.002-17.267 17.267v-65.333c0-6.443 5.223-11.667 11.667-11.667v0h93.333c6.443 0 11.667-5.223 11.667-11.667s-5.223-11.667-11.667-11.667v0h-93.333c-19.33 0-35 15.67-35 35v0 140c0 19.33 15.67 35 35 35v0h140c19.33 0 35-15.67 35-35v0-93.333c0-6.443-5.223-11.667-11.667-11.667v0zM58.333 233.333c-6.443 0-11.667-5.223-11.667-11.667v0-41.65l33.833-33.833c1.65-1.575 3.891-2.544 6.358-2.544s4.708 0.969 6.362 2.548l36.98 36.98 50.050 50.167zM210 221.667c-0.018 2.335-0.804 4.484-2.119 6.209l0.019-0.025-52.617-52.85 8.167-8.167c1.645-1.636 3.913-2.647 6.417-2.647s4.772 1.011 6.417 2.648l-0-0 33.717 34.067zM238.117 58.333l15.167-15.050c2.097-2.109 3.393-5.016 3.393-8.225s-1.296-6.116-3.393-8.226l0.001 0.001c-2.114-2.131-5.045-3.451-8.283-3.451s-6.169 1.32-8.283 3.45l-15.051 15.051-15.050-15.050c-2.114-2.131-5.045-3.451-8.283-3.451s-6.169 1.32-8.283 3.45l-0.001 0.001c-2.097 2.109-3.393 5.016-3.393 8.225s1.296 6.116 3.393 8.226l-0.001-0.001 15.167 15.050-15.167 15.167c-2.097 2.109-3.393 5.016-3.393 8.225s1.296 6.116 3.393 8.226l-0.001-0.001c2.114 2.131 5.045 3.451 8.283 3.451s6.169-1.32 8.283-3.45l15.051-15.051 15.050 15.050c2.114 2.131 5.045 3.451 8.283 3.451s6.169-1.32 8.283-3.45l0.001-0.001c2.097-2.109 3.393-5.016 3.393-8.225s-1.296-6.116-3.393-8.226l0.001 0.001z"></path>
</svg>
