<!-- Generated by IcoMoon.io -->
<svg version="1.1" xmlns="http://www.w3.org/2000/svg" width="280" height="280" viewBox="0 0 280 280">
<title>ul-image-share</title>
<path fill="#37352f" d="M233.333 81.667c-5.184 0.017-9.966 1.723-13.829 4.594l0.062-0.044-20.417-9.333 22.517-10.267c3.327 2.051 7.343 3.299 11.644 3.383l0.023 0c12.887 0 23.333-10.447 23.333-23.333s-10.447-23.333-23.333-23.333c-12.887 0-23.333 10.447-23.333 23.333v0l-22.050 10.15c-3.755-2.695-8.445-4.31-13.511-4.31-12.887 0-23.333 10.447-23.333 23.333s10.447 23.333 23.333 23.333c0.197 0 0.394-0.002 0.59-0.007l-0.029 0.001c0.003 0 0.007 0 0.010 0 3.939 0 7.636-1.039 10.831-2.857l-0.108 0.057 24.5 11.667c1.553 11.515 11.318 20.3 23.135 20.3 12.887 0 23.333-10.447 23.333-23.333s-10.447-23.333-23.333-23.333c-0.012 0-0.025 0-0.037 0h0.002zM221.667 151.667c-6.443 0-11.667 5.223-11.667 11.667v0 4.55l-17.267-17.267c-5.855-5.892-13.964-9.539-22.925-9.539s-17.070 3.647-22.923 9.537l-8.168 8.168-28.933-29.050c-5.881-5.836-13.982-9.443-22.925-9.443s-17.044 3.607-22.927 9.445l0.002-0.002-17.267 17.267v-65.333c0-6.443 5.223-11.667 11.667-11.667v0h58.333c6.443 0 11.667-5.223 11.667-11.667s-5.223-11.667-11.667-11.667v0h-58.333c-19.33 0-35 15.67-35 35v0 140c0 19.33 15.67 35 35 35v0h140c19.33 0 35-15.67 35-35v0-58.333c0-6.443-5.223-11.667-11.667-11.667v0zM58.333 233.333c-6.443 0-11.667-5.223-11.667-11.667v0-41.65l33.833-33.833c1.65-1.575 3.891-2.544 6.358-2.544s4.708 0.969 6.362 2.548l36.98 36.98 50.050 50.167zM210 221.667c-0.018 2.335-0.804 4.484-2.119 6.209l0.019-0.025-52.617-52.85 8.167-8.167c1.645-1.636 3.913-2.647 6.417-2.647s4.772 1.011 6.417 2.648l-0-0 33.717 34.067z"></path>
</svg>
