<!-- Generated by IcoMoon.io -->
<svg version="1.1" xmlns="http://www.w3.org/2000/svg" width="280" height="280" viewBox="0 0 280 280">
<title>ul-keyboard</title>
<path fill="#37352f" d="M72.45 155.050c-1.065-1.051-2.348-1.884-3.775-2.425l-0.075-0.025c-1.311-0.553-2.834-0.875-4.433-0.875s-3.123 0.322-4.51 0.904l0.077-0.029c-2.939 1.085-5.215 3.361-6.276 6.227l-0.024 0.073c-0.59 1.349-0.933 2.921-0.933 4.572 0 6.443 5.223 11.667 11.667 11.667s11.667-5.223 11.667-11.667c0-1.652-0.343-3.224-0.963-4.648l0.029 0.075c-0.588-1.494-1.418-2.773-2.454-3.854l0.004 0.004zM157.5 128.333h11.667c6.443 0 11.667-5.223 11.667-11.667s-5.223-11.667-11.667-11.667v0h-11.667c-6.443 0-11.667 5.223-11.667 11.667s5.223 11.667 11.667 11.667v0zM110.833 128.333h11.667c6.443 0 11.667-5.223 11.667-11.667s-5.223-11.667-11.667-11.667v0h-11.667c-6.443 0-11.667 5.223-11.667 11.667s5.223 11.667 11.667 11.667v0zM75.833 105h-11.667c-6.443 0-11.667 5.223-11.667 11.667s5.223 11.667 11.667 11.667v0h11.667c6.443 0 11.667-5.223 11.667-11.667s-5.223-11.667-11.667-11.667v0zM233.333 58.333h-186.667c-19.33 0-35 15.67-35 35v0 93.333c0 19.33 15.67 35 35 35v0h186.667c19.33 0 35-15.67 35-35v0-93.333c0-19.33-15.67-35-35-35v0zM245 186.667c0 6.443-5.223 11.667-11.667 11.667v0h-186.667c-6.443 0-11.667-5.223-11.667-11.667v0-93.333c0-6.443 5.223-11.667 11.667-11.667v0h186.667c6.443 0 11.667 5.223 11.667 11.667v0zM175 151.667h-70c-6.443 0-11.667 5.223-11.667 11.667s5.223 11.667 11.667 11.667v0h70c6.443 0 11.667-5.223 11.667-11.667s-5.223-11.667-11.667-11.667v0zM215.833 105h-11.667c-6.443 0-11.667 5.223-11.667 11.667s5.223 11.667 11.667 11.667v0h11.667c6.443 0 11.667-5.223 11.667-11.667s-5.223-11.667-11.667-11.667v0zM224.117 155.050c-1.077-1.032-2.356-1.862-3.771-2.422l-0.079-0.028c-1.311-0.553-2.834-0.875-4.433-0.875s-3.123 0.322-4.51 0.904l0.077-0.029c-1.502 0.566-2.785 1.399-3.851 2.451l0.001-0.001c-1.032 1.077-1.862 2.356-2.422 3.771l-0.028 0.079c-0.59 1.348-0.932 2.919-0.932 4.571 0 6.443 5.223 11.667 11.667 11.667s11.667-5.223 11.667-11.667c0-0.048-0-0.096-0.001-0.144v0.007c0.002-0.075 0.003-0.164 0.003-0.252 0-1.519-0.345-2.957-0.962-4.24l0.025 0.059c-0.588-1.494-1.418-2.773-2.454-3.854l0.004 0.004z"></path>
</svg>
