<!-- Generated by IcoMoon.io -->
<svg version="1.1" xmlns="http://www.w3.org/2000/svg" width="280" height="280" viewBox="0 0 280 280">
<title>ul-kayak</title>
<path fill="#37352f" d="M246.4 196.933c-6.324-6.275-15.034-10.152-24.649-10.152-5.457 0-10.623 1.249-15.226 3.476l0.209-0.091-13.417-13.3c26.64-28.682 47.428-63.203 60.21-101.391l0.573-1.975c1.386-3.741 2.187-8.062 2.187-12.57 0-20.554-16.662-37.217-37.217-37.217-4.508 0-8.83 0.802-12.829 2.27l0.258-0.083c-40.165 13.356-74.685 34.144-103.543 60.945l0.176-0.162-13.3-13.417c2.149-4.406 3.405-9.585 3.405-15.058 0-19.33-15.67-35-35-35s-35 15.67-35 35c0 9.72 3.962 18.514 10.359 24.856l0.002 0.002c6.328 6.336 15.072 10.258 24.732 10.267h0.002c5.442-0.052 10.571-1.338 15.138-3.591l-0.205 0.091 13.417 13.3c-26.64 28.682-47.428 63.203-60.21 101.391l-0.573 1.975c-1.206 3.534-1.902 7.606-1.902 11.841 0 10.404 4.203 19.826 11.004 26.661l-0.002-0.002c6.524 6.943 15.668 11.36 25.845 11.665l0.055 0.001c4.513-0.044 8.841-0.766 12.909-2.069l-0.309 0.085c40.165-13.356 74.685-34.144 103.543-60.945l-0.176 0.162 13.3 13.417c-2.149 4.406-3.405 9.585-3.405 15.058 0 19.33 15.67 35 35 35s35-15.67 35-35c0-9.72-3.962-18.514-10.359-24.856l-0.002-0.002zM66.617 66.5v0c-2.115 2.13-5.045 3.448-8.283 3.448-6.447 0-11.673-5.226-11.673-11.673 0-3.209 1.295-6.115 3.391-8.226l-0.001 0.001c2.115-2.13 5.045-3.448 8.283-3.448 6.447 0 11.673 5.226 11.673 11.673 0 3.209-1.295 6.115-3.391 8.226l0.001-0.001zM213.617 48.183c1.631-0.556 3.511-0.895 5.465-0.933l0.019-0c0.033-0 0.072-0.001 0.11-0.001 3.739 0 7.123 1.516 9.573 3.967v0c2.484 2.576 4.014 6.086 4.014 9.954 0 1.876-0.36 3.667-1.014 5.31l0.034-0.097c-6.817 20.694-15.233 38.598-25.488 55.248l0.638-1.114-47.483-47.483c15.535-9.617 33.439-18.033 52.314-24.324l1.819-0.526zM66.383 231.817c-1.54 0.634-3.328 1.003-5.203 1.003-7.732 0-14-6.268-14-14 0-1.874 0.368-3.662 1.036-5.296l-0.034 0.094c6.817-20.694 15.233-38.598 25.488-55.248l-0.638 1.114 47.483 47.483c-15.535 9.617-33.439 18.033-52.314 24.324l-1.819 0.526zM140 193.55l-53.55-53.55c5.592-7.554 11.059-14.169 16.849-20.484l-0.166 0.184 57.283 57.283c-6.143 5.568-12.796 11-19.722 16.081l-0.694 0.486zM176.75 160.417l-57.167-57.283c6.156-5.619 12.809-11.087 19.738-16.205l0.679-0.479 53.667 53.667c-5.62 7.541-11.125 14.156-16.954 20.469l0.154-0.169zM229.833 230.417c-2.115 2.13-5.045 3.448-8.283 3.448-6.447 0-11.673-5.226-11.673-11.673 0-3.209 1.295-6.115 3.391-8.226l-0.001 0.001c2.109-2.097 5.016-3.393 8.225-3.393s6.116 1.296 8.226 3.393l-0.001-0.001c2.032 2.097 3.285 4.96 3.285 8.116 0 3.036-1.16 5.801-3.060 7.876l0.008-0.009z"></path>
</svg>
