<!-- Generated by IcoMoon.io -->
<svg version="1.1" xmlns="http://www.w3.org/2000/svg" width="280" height="280" viewBox="0 0 280 280">
<title>ul-keyboard-alt</title>
<path fill="#37352f" d="M78.283 108.383c-2.114-2.131-5.045-3.451-8.283-3.451s-6.169 1.32-8.283 3.45l-0.001 0.001c-1.032 1.077-1.862 2.356-2.422 3.771l-0.028 0.079c-0.577 1.335-0.912 2.89-0.912 4.522 0 3.194 1.284 6.089 3.363 8.195l-0.001-0.001c1.094 0.997 2.367 1.822 3.762 2.417l0.088 0.033c1.224 0.591 2.662 0.937 4.181 0.937 0.089 0 0.177-0.001 0.266-0.004l-0.013 0c6.418-0.033 11.609-5.244 11.609-11.666 0-1.599-0.322-3.123-0.904-4.51l0.029 0.077c-0.588-1.494-1.418-2.773-2.454-3.854l0.004 0.004zM116.667 128.333c6.418-0.033 11.609-5.244 11.609-11.666 0-1.599-0.322-3.123-0.904-4.51l0.029 0.077c-0.588-1.494-1.418-2.773-2.454-3.854l0.004 0.004c-2.125-2.204-5.104-3.573-8.403-3.573-0.741 0-1.466 0.069-2.169 0.201l0.072-0.011c-0.827 0.118-1.574 0.364-2.256 0.718l0.039-0.018-2.1 1.050-1.75 1.4c-2.095 2.194-3.384 5.173-3.384 8.453 0 0.022 0 0.045 0 0.068v-0.004c0 6.443 5.223 11.667 11.667 11.667v0zM74.433 152.6c-1.311-0.553-2.834-0.875-4.433-0.875s-3.123 0.322-4.51 0.904l0.077-0.029c-4.263 1.785-7.209 5.912-7.233 10.73v0.003c0.033 6.418 5.244 11.609 11.666 11.609 1.599 0 3.123-0.322 4.51-0.904l-0.077 0.029c1.483-0.628 2.756-1.453 3.861-2.46l-0.011 0.010c2.091-2.108 3.384-5.011 3.384-8.216 0-0.024 0-0.047-0-0.071v0.004c0-0.020 0-0.044 0-0.068 0-3.205-1.292-6.108-3.384-8.217l0.001 0.001c-1.065-1.051-2.348-1.884-3.775-2.425l-0.075-0.025zM163.333 151.667h-46.667c-6.443 0-11.667 5.223-11.667 11.667s5.223 11.667 11.667 11.667v0h46.667c6.443 0 11.667-5.223 11.667-11.667s-5.223-11.667-11.667-11.667v0zM171.617 108.383c-2.114-2.131-5.045-3.451-8.283-3.451s-6.169 1.32-8.283 3.45l-0.001 0.001c-1.032 1.077-1.862 2.356-2.422 3.771l-0.028 0.079c-0.59 1.348-0.932 2.919-0.932 4.571 0 6.443 5.223 11.667 11.667 11.667s11.667-5.223 11.667-11.667c0-0.048-0-0.096-0.001-0.144v0.007c0.002-0.075 0.003-0.164 0.003-0.252 0-1.519-0.345-2.957-0.962-4.24l0.025 0.059c-0.588-1.494-1.418-2.773-2.454-3.854l0.004 0.004zM216.533 153.65c-0.605-0.416-1.299-0.771-2.038-1.031l-0.062-0.019c-1.311-0.553-2.834-0.875-4.433-0.875s-3.123 0.322-4.51 0.904l0.077-0.029c-1.483 0.628-2.756 1.453-3.861 2.46l0.011-0.010c-2.057 2.154-3.337 5.065-3.383 8.274v0.009c0 6.443 5.223 11.667 11.667 11.667s11.667-5.223 11.667-11.667v0c-0.046-3.219-1.326-6.129-3.388-8.288l0.004 0.005zM233.333 58.333h-186.667c-19.33 0-35 15.67-35 35v0 93.333c0 19.33 15.67 35 35 35v0h186.667c19.33 0 35-15.67 35-35v0-93.333c0-19.33-15.67-35-35-35v0zM245 186.667c0 6.443-5.223 11.667-11.667 11.667v0h-186.667c-6.443 0-11.667-5.223-11.667-11.667v0-93.333c0-6.443 5.223-11.667 11.667-11.667v0h186.667c6.443 0 11.667 5.223 11.667 11.667v0zM218.283 108.383c-2.114-2.132-5.045-3.451-8.284-3.451-6.443 0-11.667 5.223-11.667 11.667 0 0.024 0 0.048 0 0.072v-0.004c-0.001 0.041-0.001 0.089-0.001 0.137 0 6.443 5.223 11.667 11.667 11.667s11.667-5.223 11.667-11.667c0-1.651-0.343-3.222-0.962-4.646l0.029 0.075c-0.588-1.494-1.418-2.773-2.454-3.854l0.004 0.004z"></path>
</svg>
