<!-- Generated by IcoMoon.io -->
<svg version="1.1" xmlns="http://www.w3.org/2000/svg" width="280" height="280" viewBox="0 0 280 280">
<title>ul-key-skeleton-alt</title>
<path fill="#37352f" d="M253.283 76.183l-16.567-16.45 16.567-16.45c2.12-2.12 3.431-5.048 3.431-8.283 0-6.47-5.245-11.714-11.714-11.714-3.235 0-6.164 1.311-8.283 3.431l-122.967 122.967c-9.042-6.042-20.163-9.642-32.124-9.642-32.217 0-58.333 26.117-58.333 58.333s26.117 58.333 58.333 58.333c32.217 0 58.333-26.117 58.333-58.333 0-11.961-3.6-23.082-9.776-32.337l0.134 0.213 56.933-57.050 16.45 16.567c2.108 2.091 5.011 3.384 8.216 3.384 0.024 0 0.047 0 0.071-0h-0.004c0.020 0 0.044 0 0.068 0 3.205 0 6.108-1.292 8.217-3.384l-0.001 0.001c2.131-2.114 3.451-5.045 3.451-8.283s-1.32-6.169-3.45-8.283l-0.001-0.001-16.567-15.867 16.567-16.567 16.45 16.567c2.108 2.091 5.011 3.384 8.216 3.384 0.024 0 0.047 0 0.071-0h-0.004c0.020 0 0.044 0 0.068 0 3.205 0 6.108-1.292 8.217-3.384l-0.001 0.001c2.313-2.138 3.756-5.188 3.756-8.575s-1.443-6.437-3.748-8.568l-0.008-0.007zM81.667 233.333c-19.33 0-35-15.67-35-35s15.67-35 35-35c19.33 0 35 15.67 35 35v0c0 19.33-15.67 35-35 35v0z"></path>
</svg>
