<!-- Generated by IcoMoon.io -->
<svg version="1.1" xmlns="http://www.w3.org/2000/svg" width="280" height="280" viewBox="0 0 280 280">
<title>ul-lamp</title>
<path fill="#37352f" d="M210 32.433c-1.212-5.249-5.847-9.104-11.382-9.104-0.1 0-0.2 0.001-0.3 0.004l0.015-0h-116.667c-0.085-0.002-0.185-0.004-0.285-0.004-5.535 0-10.169 3.854-11.366 9.025l-0.015 0.079-23.333 105c-0.18 0.768-0.283 1.649-0.283 2.554 0 2.801 0.987 5.372 2.633 7.383l-0.016-0.021c2.156 2.644 5.414 4.32 9.063 4.32 0.095 0 0.19-0.001 0.285-0.003l-0.014 0h45.967c0.446 3.481 0.7 7.508 0.7 11.594 0 0.025 0 0.051 0 0.076v-0.004c0.001 0.123 0.001 0.268 0.001 0.413 0 28.49-11.448 54.306-29.995 73.098l0.011-0.011c-2.062 2.103-3.335 4.986-3.335 8.167 0 6.426 5.196 11.639 11.616 11.666h113.403c6.423-0.027 11.618-5.24 11.618-11.666 0-3.181-1.273-6.064-3.337-8.169l0.002 0.002c-18.536-18.781-29.984-44.597-29.984-73.087 0-0.145 0-0.291 0.001-0.436v0.022c0-0.022 0-0.047 0-0.072 0-4.087 0.254-8.113 0.748-12.066l-0.048 0.472h10.967v23.333c0 6.443 5.223 11.667 11.667 11.667s11.667-5.223 11.667-11.667v0-23.333h11.667c0.012 0 0.026 0 0.040 0 3.648 0 6.904-1.674 9.044-4.296l0.017-0.021c1.629-1.99 2.617-4.561 2.617-7.362 0-0.905-0.103-1.787-0.298-2.633l0.015 0.078zM107.567 233.333c13.016-19.629 20.767-43.732 20.767-69.646 0-0.125-0-0.249-0.001-0.374v0.019c0-3.85 0-7.817-0.583-11.667h24.5c0 3.85-0.583 7.817-0.583 11.667-0 0.105-0.001 0.23-0.001 0.354 0 25.914 7.751 50.017 21.061 70.118l-0.294-0.472zM72.567 128.333l18.433-81.667h98l18.083 81.667z"></path>
</svg>
