<!-- Generated by IcoMoon.io -->
<svg version="1.1" xmlns="http://www.w3.org/2000/svg" width="280" height="280" viewBox="0 0 280 280">
<title>ul-left-indent</title>
<path fill="#37352f" d="M35 81.667h210c6.443 0 11.667-5.223 11.667-11.667s-5.223-11.667-11.667-11.667v0h-210c-6.443 0-11.667 5.223-11.667 11.667s5.223 11.667 11.667 11.667v0zM35 128.333h116.667c6.443 0 11.667-5.223 11.667-11.667s-5.223-11.667-11.667-11.667v0h-116.667c-6.443 0-11.667 5.223-11.667 11.667s5.223 11.667 11.667 11.667v0zM253.983 113.050c-2.154-2.546-5.352-4.152-8.924-4.152-2.876 0-5.509 1.041-7.543 2.766l0.017-0.014-23.333 19.367c-2.588 2.155-4.223 5.378-4.223 8.983s1.635 6.828 4.204 8.968l0.019 0.015 23.333 19.367c1.997 1.716 4.606 2.77 7.46 2.8h0.006c0.006 0 0.012 0 0.019 0 3.595 0 6.809-1.626 8.95-4.182l0.015-0.018c1.682-2.008 2.704-4.619 2.704-7.469 0-3.604-1.634-6.826-4.202-8.966l-0.019-0.015-12.6-10.5 12.6-10.5c2.586-2.155 4.221-5.377 4.221-8.981 0-2.85-1.022-5.461-2.719-7.487l0.015 0.018zM245 198.333h-210c-6.443 0-11.667 5.223-11.667 11.667s5.223 11.667 11.667 11.667v0h210c6.443 0 11.667-5.223 11.667-11.667s-5.223-11.667-11.667-11.667v0zM35 175h116.667c6.443 0 11.667-5.223 11.667-11.667s-5.223-11.667-11.667-11.667v0h-116.667c-6.443 0-11.667 5.223-11.667 11.667s5.223 11.667 11.667 11.667v0z"></path>
</svg>
