<!-- Generated by IcoMoon.io -->
<svg version="1.1" xmlns="http://www.w3.org/2000/svg" width="280" height="280" viewBox="0 0 280 280">
<title>ul-linkedin-alt</title>
<path fill="#37352f" d="M204.167 104.988c-0.008 0-0.017 0-0.027 0-10.951 0-21.253 2.785-30.234 7.685l0.331-0.165c-1.717-4.433-5.947-7.52-10.898-7.52-0.002 0-0.004 0-0.005 0h-46.666c-0.002 0-0.004 0-0.007 0-6.44 0-11.66 5.22-11.66 11.66 0 0.002 0 0.005 0 0.007v-0 140c0 0.002 0 0.004 0 0.007 0 6.439 5.22 11.66 11.66 11.66 0.002 0 0.005 0 0.007 0h46.666c0.002 0 0.004 0 0.007 0 6.439 0 11.66-5.22 11.66-11.66 0-0.002 0-0.005 0-0.007v0-64.167c0-6.443 5.223-11.667 11.667-11.667s11.667 5.223 11.667 11.667v0 64.167c0 0.002 0 0.004 0 0.007 0 6.439 5.22 11.66 11.66 11.66 0.002 0 0.005 0 0.007 0h46.666c0.002 0 0.004 0 0.007 0 6.439 0 11.66-5.22 11.66-11.66 0-0.002 0-0.005 0-0.007v0-87.5c-0.045-35.42-28.747-64.121-64.162-64.167h-0.004zM245 244.988h-23.333v-52.5c0-19.33-15.67-35-35-35s-35 15.67-35 35v0 52.5h-23.333v-116.667h23.333v8.203c0.004 6.444 5.228 11.665 11.672 11.665 3.674 0 6.952-1.698 9.092-4.351l0.017-0.022c7.507-9.473 19.011-15.495 31.922-15.495 22.439 0 40.63 18.191 40.63 40.63 0 0.072-0 0.143-0.001 0.215v-0.011zM81.667 104.988h-46.667c-0.002 0-0.004 0-0.007 0-6.44 0-11.66 5.22-11.66 11.66 0 0.002 0 0.005 0 0.007v-0 140c0 0.002 0 0.004 0 0.007 0 6.439 5.22 11.66 11.66 11.66 0.002 0 0.005 0 0.007 0h46.666c0.002 0 0.004 0 0.007 0 6.439 0 11.66-5.22 11.66-11.66 0-0.002 0-0.005 0-0.007v0-140c0-0.002 0-0.004 0-0.007 0-6.44-5.22-11.66-11.66-11.66-0.002 0-0.005 0-0.007 0h0zM70 244.988h-23.333v-116.667h23.333zM58.504 17.99c-0.674-0.043-1.461-0.067-2.254-0.067-20.83 0-37.716 16.886-37.716 37.716s16.886 37.716 37.716 37.716c0.56 0 1.118-0.012 1.672-0.036l-0.079 0.003h0.33c0.669 0.042 1.45 0.066 2.237 0.066 20.834 0 37.723-16.889 37.723-37.723s-16.889-37.723-37.723-37.723c-0.67 0-1.337 0.017-1.999 0.052l0.093-0.004zM58.174 69.988h-0.331c-0.516 0.066-1.113 0.104-1.719 0.104-7.873 0-14.256-6.383-14.256-14.256 0-0.063 0.001-0.127 0.001-0.19v0.010c0-8.705 6.528-14.333 16.634-14.333 0.571-0.080 1.231-0.126 1.901-0.126 7.948 0 14.391 6.443 14.391 14.391 0 0.024 0 0.048-0 0.072v-0.004c0 8.704-6.528 14.332-16.623 14.332z"></path>
</svg>
