<!-- Generated by IcoMoon.io -->
<svg version="1.1" xmlns="http://www.w3.org/2000/svg" width="280" height="280" viewBox="0 0 280 280">
<title>ul-location-arrow-alt</title>
<path fill="#37352f" d="M252.933 205.917l-81.667-163.333c-5.888-11.521-17.672-19.271-31.267-19.271s-25.379 7.75-31.175 19.074l-0.092 0.197-81.667 163.333c-2.312 4.545-3.667 9.912-3.667 15.595 0 19.33 15.67 35 35 35 5.128 0 9.999-1.103 14.387-3.084l-0.221 0.089 62.65-28c1.412-0.609 3.056-0.962 4.783-0.962s3.371 0.354 4.864 0.993l-0.081-0.031 62.65 28c4.168 1.892 9.038 2.995 14.167 2.995 19.33 0 35-15.67 35-35 0-5.683-1.354-11.050-3.758-15.795l0.092 0.2zM229.6 229.25c-2.127 2.212-5.11 3.586-8.415 3.586-1.727 0-3.367-0.375-4.841-1.049l0.073 0.030-62.65-27.883c-4.186-1.911-9.079-3.025-14.233-3.025s-10.047 1.114-14.453 3.114l0.22-0.089-62.183 28.233c-1.37 0.611-2.968 0.967-4.65 0.967-6.443 0-11.667-5.223-11.667-11.667 0-1.836 0.424-3.573 1.18-5.119l-0.030 0.069 81.667-163.333c1.976-3.798 5.882-6.347 10.383-6.347s8.407 2.549 10.353 6.282l0.031 0.065 81.667 163.333c0.761 1.507 1.207 3.285 1.207 5.167 0 3.107-1.215 5.931-3.195 8.022l0.005-0.005z"></path>
</svg>
