<!-- Generated by IcoMoon.io -->
<svg version="1.1" xmlns="http://www.w3.org/2000/svg" width="280" height="280" viewBox="0 0 280 280">
<title>ul-luggage-cart</title>
<path fill="#37352f" d="M23.333 157.5v23.333c0 6.443 5.223 11.667 11.667 11.667v0h116.667c0 19.33 15.67 35 35 35s35-15.67 35-35v0h23.333c6.443 0 11.667-5.223 11.667-11.667v0-93.333c0-19.33-15.67-35-35-35v0h-116.667c-19.33 0-35 15.67-35 35v0 81.667h-23.333v-11.667c0-6.443-5.223-11.667-11.667-11.667s-11.667 5.223-11.667 11.667v0zM175 192.5c0-6.443 5.223-11.667 11.667-11.667s11.667 5.223 11.667 11.667c0 6.443-5.223 11.667-11.667 11.667v0c-6.443 0-11.667-5.223-11.667-11.667v0zM93.333 122.5h140v46.667h-20.767c-6.426-7.051-15.648-11.459-25.9-11.459s-19.474 4.408-25.875 11.431l-0.025 0.028h-67.433zM93.333 87.5c0-6.443 5.223-11.667 11.667-11.667v0h116.667c6.443 0 11.667 5.223 11.667 11.667v0 11.667h-140z"></path>
</svg>
