<!-- Generated by IcoMoon.io -->
<svg version="1.1" xmlns="http://www.w3.org/2000/svg" width="280" height="280" viewBox="0 0 280 280">
<title>ul-link-broken</title>
<path fill="#37352f" d="M55.533 123.55c0.456 0.063 0.982 0.098 1.517 0.098 6.497 0 11.765-5.267 11.765-11.765 0-5.963-4.436-10.89-10.188-11.66l-0.060-0.007-20.533-5.133c-1.023-0.325-2.199-0.512-3.42-0.512-6.443 0-11.667 5.223-11.667 11.667 0 5.504 3.812 10.119 8.94 11.346l0.080 0.016 20.533 5.483c0.859 0.297 1.85 0.468 2.881 0.468 0.054 0 0.107-0.001 0.161-0.001h-0.008zM100.567 58.333c1.38 5.016 5.9 8.64 11.267 8.64 0.141 0 0.28-0.002 0.419-0.007l-0.020 0.001c0.456 0.077 0.981 0.121 1.517 0.121s1.061-0.044 1.572-0.129l-0.056 0.008c4.974-1.408 8.556-5.908 8.556-11.244 0-1.063-0.142-2.092-0.408-3.071l0.019 0.082-5.483-20.533c-1.244-5.208-5.858-9.020-11.362-9.020-6.443 0-11.667 5.223-11.667 11.667 0 1.22 0.187 2.397 0.535 3.502l-0.022-0.083zM156.917 175c-2.13-2.239-5.132-3.631-8.458-3.631s-6.328 1.392-8.454 3.626l-0.005 0.005-40.833 41.533c-4.625 4.442-10.918 7.178-17.85 7.178s-13.225-2.736-17.859-7.186l0.009 0.008c-4.607-4.55-7.461-10.867-7.461-17.85s2.854-13.3 7.458-17.848l0.002-0.002 41.533-40.833c2.503-2.153 4.078-5.323 4.078-8.861 0-6.443-5.223-11.667-11.667-11.667-3.538 0-6.709 1.575-8.848 4.063l-0.013 0.015-41.883 40.717c-8.838 8.838-14.304 21.047-14.304 34.533 0 26.972 21.865 48.838 48.838 48.838 13.486 0 25.695-5.466 34.533-14.304l41.183-41.183c2.313-2.138 3.756-5.188 3.756-8.575s-1.443-6.437-3.748-8.568l-0.008-0.007zM60.433 76.883c2.096 2.080 4.98 3.37 8.164 3.383h0.003c0.020 0 0.044 0 0.068 0 3.205 0 6.108-1.292 8.217-3.384l-0.001 0.001c2.097-2.109 3.393-5.016 3.393-8.225s-1.296-6.116-3.393-8.226l-15.049-15.049c-2.027-1.744-4.684-2.805-7.589-2.805-6.443 0-11.667 5.223-11.667 11.667 0 2.905 1.062 5.562 2.818 7.604l-0.013-0.015zM248.033 162.4l-20.533-5.483c-1.136-0.406-2.446-0.64-3.811-0.64-6.443 0-11.667 5.223-11.667 11.667 0 5.729 4.129 10.493 9.574 11.479l0.071 0.011 20.533 5.483h3.033c0.456 0.063 0.982 0.098 1.517 0.098 6.497 0 11.765-5.267 11.765-11.765 0-5.963-4.436-10.89-10.188-11.66l-0.060-0.007zM179.433 221.667c-1.399-4.988-5.905-8.585-11.252-8.585-1.102 0-2.169 0.153-3.18 0.439l0.082-0.020c-4.974 1.408-8.556 5.908-8.556 11.244 0 1.063 0.142 2.092 0.408 3.071l-0.019-0.082 5.483 20.533c1.38 5.016 5.9 8.64 11.267 8.64 0.141 0 0.28-0.002 0.419-0.007l-0.020 0.001c0.455 0.055 0.982 0.086 1.517 0.086s1.061-0.031 1.58-0.092l-0.063 0.006c5.044-1.361 8.694-5.895 8.694-11.281 0-1.092-0.15-2.148-0.43-3.151l0.020 0.082zM219.567 203.35c-2.027-1.744-4.684-2.805-7.589-2.805-6.443 0-11.667 5.223-11.667 11.667 0 2.905 1.062 5.562 2.818 7.604l-0.013-0.015 15.050 15.050c2.109 2.097 5.016 3.393 8.225 3.393s6.116-1.296 8.226-3.393l-0.001 0.001c2.097-2.109 3.393-5.016 3.393-8.225s-1.296-6.116-3.393-8.226l0.001 0.001zM247.333 81.667c0.005-0.27 0.008-0.588 0.008-0.907 0-26.804-21.729-48.533-48.533-48.533-13.514 0-25.737 5.523-34.537 14.435l-0.005 0.005-41.183 41.533c-2.14 2.154-3.462 5.123-3.462 8.4 0 6.584 5.337 11.921 11.921 11.921 3.306 0 6.298-1.346 8.458-3.52l0.001-0.001 40.833-41.533c4.625-4.442 10.918-7.178 17.85-7.178s13.225 2.736 17.859 7.186l-0.009-0.008c4.607 4.55 7.461 10.867 7.461 17.85s-2.854 13.3-7.458 17.848l-0.002 0.002-41.533 40.833c-2.097 2.109-3.393 5.016-3.393 8.225s1.296 6.116 3.393 8.226l-0.001-0.001c2.109 2.097 5.016 3.393 8.225 3.393s6.116-1.296 8.226-3.393l-0.001 0.001 41.883-40.717c8.616-8.772 13.95-20.791 14-34.057v-0.010z"></path>
</svg>
