<!-- Generated by IcoMoon.io -->
<svg version="1.1" xmlns="http://www.w3.org/2000/svg" width="280" height="280" viewBox="0 0 280 280">
<title>ul-music-note</title>
<path fill="#37352f" d="M223.067 25.783c-2.013-1.697-4.635-2.729-7.498-2.729-0.899 0-1.773 0.101-2.613 0.294l0.078-0.015-93.333 23.333c-5.133 1.298-8.872 5.876-8.872 11.327 0 0.119 0.002 0.238 0.005 0.357l-0.001-0.017v120.75c-5.109-2.552-11.125-4.056-17.491-4.083h-0.009c-22.552 0-40.833 18.282-40.833 40.833s18.282 40.833 40.833 40.833c22.552 0 40.833-18.282 40.833-40.833v0-90.067l84.467-20.767h0.817l2.217-1.75 1.75-1.167c0.559-0.522 1.058-1.095 1.494-1.715l0.023-0.035c0.435-0.51 0.823-1.084 1.143-1.699l0.024-0.051c0.335-0.607 0.58-1.314 0.695-2.064l0.005-0.036c0.058-0.333 0.091-0.717 0.091-1.108s-0.033-0.775-0.097-1.148l0.006 0.040c0.025-0.14 0.039-0.302 0.039-0.467s-0.014-0.326-0.042-0.483l0.002 0.017v-58.333c0.011-0.193 0.018-0.419 0.018-0.646 0-3.385-1.441-6.433-3.744-8.564l-0.008-0.007zM93.333 233.333c-9.665 0-17.5-7.835-17.5-17.5s7.835-17.5 17.5-17.5c9.665 0 17.5 7.835 17.5 17.5v0c0 9.665-7.835 17.5-17.5 17.5v0zM204.167 84.233l-70 17.5v-34.3l70-17.5z"></path>
</svg>
