<!-- Generated by IcoMoon.io -->
<svg version="1.1" xmlns="http://www.w3.org/2000/svg" width="280" height="280" viewBox="0 0 280 280">
<title>ul-mailbox</title>
<path fill="#37352f" d="M93.333 140h23.333c6.443 0 11.667-5.223 11.667-11.667s-5.223-11.667-11.667-11.667v0h-23.333c-6.443 0-11.667 5.223-11.667 11.667s5.223 11.667 11.667 11.667v0zM198.333 70h-58.333v-23.333h11.667c6.443 0 11.667-5.223 11.667-11.667s-5.223-11.667-11.667-11.667v0h-23.333c-6.443 0-11.667 5.223-11.667 11.667v0 35h-35c-25.773 0-46.667 20.893-46.667 46.667v0 70c0 6.443 5.223 11.667 11.667 11.667v0h70v46.667c0 6.443 5.223 11.667 11.667 11.667s11.667-5.223 11.667-11.667v0-46.667h93.333c6.443 0 11.667-5.223 11.667-11.667v0-70c0-25.773-20.893-46.667-46.667-46.667v0zM151.667 116.667v58.333h-93.333v-58.333c0-12.887 10.447-23.333 23.333-23.333v0h76.533c-4.071 6.658-6.496 14.709-6.533 23.323v0.010zM221.667 175h-46.667v-58.333c0-12.887 10.447-23.333 23.333-23.333s23.333 10.447 23.333 23.333v0z"></path>
</svg>
