<!-- Generated by IcoMoon.io -->
<svg version="1.1" xmlns="http://www.w3.org/2000/svg" width="280" height="280" viewBox="0 0 280 280">
<title>ul-map-pin</title>
<path fill="#37352f" d="M190.983 149.217c-1.278-0.523-2.762-0.827-4.317-0.827-6.449 0-11.677 5.228-11.677 11.677 0 4.895 3.011 9.086 7.282 10.822l0.078 0.028c17.033 6.767 27.65 17.267 27.65 27.417 0 16.567-28.7 35-70 35s-70-18.433-70-35c0-10.15 10.617-20.65 27.65-27.417 4.349-1.764 7.36-5.955 7.36-10.85 0-6.449-5.228-11.677-11.677-11.677-1.554 0-3.038 0.304-4.395 0.855l0.078-0.028c-26.483 10.5-42.35 28.817-42.35 49.117 0 32.667 40.95 58.333 93.333 58.333s93.333-25.667 93.333-58.333c0-20.3-15.867-38.617-42.35-49.117zM128.333 115.033v83.3c0 6.443 5.223 11.667 11.667 11.667s11.667-5.223 11.667-11.667v0-83.3c20.288-5.366 35-23.557 35-45.185 0-25.773-20.893-46.667-46.667-46.667s-46.667 20.893-46.667 46.667c0 21.627 14.712 39.819 34.674 45.111l0.326 0.073zM140 46.667c12.887 0 23.333 10.447 23.333 23.333s-10.447 23.333-23.333 23.333c-12.887 0-23.333-10.447-23.333-23.333v0c0-12.887 10.447-23.333 23.333-23.333v0z"></path>
</svg>
