<!-- Generated by IcoMoon.io -->
<svg version="1.1" xmlns="http://www.w3.org/2000/svg" width="280" height="280" viewBox="0 0 280 280">
<title>ul-moon</title>
<path fill="#37352f" d="M252.467 151.667c-2.002-1.664-4.599-2.674-7.433-2.674-1.746 0-3.402 0.384-4.889 1.071l0.072-0.030c-11.47 5.378-24.909 8.517-39.080 8.517-0.083 0-0.167 0-0.25-0h0.013c-52.259-0.065-94.636-42.279-94.966-94.469l-0-0.031c0.058-8.31 1.118-16.345 3.066-24.026l-0.149 0.693c0.139-0.676 0.219-1.453 0.219-2.249 0-6.443-5.223-11.667-11.667-11.667-1.461 0-2.86 0.269-4.149 0.759l0.080-0.027c-41.484 18.986-69.785 60.135-69.785 107.894 0 65.335 52.965 118.3 118.3 118.3 55.219 0 101.602-37.833 114.641-88.992l0.177-0.819c0.245-0.893 0.386-1.919 0.386-2.977 0-3.768-1.787-7.119-4.559-9.252l-0.027-0.020zM141.633 229.717c-52.16-0.38-94.297-42.751-94.297-94.964 0-29.749 13.678-56.302 35.089-73.715l0.174-0.137v3.15c0.066 65.309 52.991 118.234 118.294 118.3h0.006c0.124 0.001 0.272 0.001 0.419 0.001 8.531 0 16.843-0.935 24.84-2.709l-0.759 0.141c-16.208 30.206-47.57 50.4-83.649 50.4-0.041 0-0.083 0-0.124 0h0.007z"></path>
</svg>
