<!-- Generated by IcoMoon.io -->
<svg version="1.1" xmlns="http://www.w3.org/2000/svg" width="280" height="280" viewBox="0 0 280 280">
<title>ul-n-a</title>
<path fill="#37352f" d="M221.667 70h-11.667c-19.33 0-35 15.67-35 35v0 93.333c0 6.443 5.223 11.667 11.667 11.667s11.667-5.223 11.667-11.667v0-46.667h35v46.667c0 6.443 5.223 11.667 11.667 11.667s11.667-5.223 11.667-11.667v0-93.333c0-19.33-15.67-35-35-35v0zM233.333 128.333h-35v-23.333c0-6.443 5.223-11.667 11.667-11.667v0h11.667c6.443 0 11.667 5.223 11.667 11.667v0zM93.333 70c-6.443 0-11.667 5.223-11.667 11.667v0 67.2l-36.283-72.45c-1.976-3.798-5.882-6.348-10.384-6.348-6.419 0-11.627 5.184-11.666 11.594v116.671c0 6.443 5.223 11.667 11.667 11.667s11.667-5.223 11.667-11.667v0-67.2l36.283 72.45c1.959 3.826 5.869 6.403 10.381 6.417h0.002c0.403 0.054 0.869 0.085 1.342 0.085s0.939-0.031 1.395-0.091l-0.054 0.006c5.191-1.256 8.988-5.862 8.988-11.355 0-0.11-0.002-0.219-0.005-0.328l0 0.016v-116.667c0-6.443-5.223-11.667-11.667-11.667v0zM140 46.667c-6.443 0-11.667 5.223-11.667 11.667v0 163.333c0 6.443 5.223 11.667 11.667 11.667s11.667-5.223 11.667-11.667v0-163.333c0-6.443-5.223-11.667-11.667-11.667v0z"></path>
</svg>
