<!-- Generated by IcoMoon.io -->
<svg version="1.1" xmlns="http://www.w3.org/2000/svg" width="280" height="280" viewBox="0 0 280 280">
<title>ul-phone-slash</title>
<path fill="#37352f" d="M57.283 152.833c2.096 3.314 5.741 5.483 9.893 5.483 0.008 0 0.016 0 0.025 0h-0.001c0.1 0.003 0.217 0.005 0.334 0.005 6.443 0 11.667-5.223 11.667-11.667 0-2.49-0.78-4.798-2.109-6.692l0.025 0.037c-14.588-22.83-24.786-49.867-28.704-78.895l-0.113-1.021c-0.081-0.517-0.128-1.114-0.128-1.721 0-2.97 1.11-5.681 2.938-7.741l-0.010 0.012c2.146-2.434 5.269-3.962 8.749-3.967h35.001c0.070-0.002 0.153-0.002 0.235-0.002 5.618 0 10.309 3.971 11.418 9.26l0.013 0.076c0 2.683 0.933 5.133 1.517 7.817v1.517c1.565 6.993 3.45 12.996 5.771 18.778l-0.287-0.811-16.217 7.7c-2.824 1.335-4.985 3.685-6.041 6.569l-0.026 0.081c-0.569 1.327-0.899 2.871-0.899 4.492s0.331 3.165 0.928 4.568l-0.029-0.076c1.167 2.45 2.333 4.9 3.733 7.467 2.047 3.543 5.817 5.888 10.135 5.888 2.154 0 4.171-0.584 5.903-1.601l-0.055 0.030c3.529-2.051 5.864-5.813 5.864-10.121 0-0.297-0.011-0.592-0.033-0.884l0.002 0.039 6.65-2.45c8.077-3.785 13.571-11.848 13.571-21.193 0-2.774-0.484-5.435-1.372-7.903l0.051 0.163c-1.656-4.158-3.221-9.227-4.41-14.439l-0.14-0.728v-1.167c0-2.333-0.933-4.667-1.283-6.767-2.693-16.884-17.151-29.634-34.586-29.634-0.022 0-0.045 0-0.067 0h-34.996c-0.151-0.002-0.33-0.004-0.509-0.004-10.352 0-19.654 4.494-26.062 11.638l-0.029 0.033c-5.418 6.133-8.725 14.242-8.725 23.122 0 1.679 0.118 3.331 0.347 4.947l-0.022-0.186c4.388 33.798 15.755 64.244 32.621 90.859l-0.538-0.909zM227.733 150.383l-7-1.283h-0.933c-6.058-1.307-11.248-2.874-16.26-4.801l0.743 0.251c-2.344-0.868-5.053-1.37-7.878-1.37-9.137 0-17.048 5.252-20.877 12.902l-0.061 0.135-2.45 5.367c-8.474-4.943-15.801-10.226-22.572-16.13l0.172 0.147 102.667-102.55c2.12-2.12 3.431-5.048 3.431-8.283 0-6.47-5.245-11.714-11.714-11.714-3.235 0-6.164 1.311-8.283 3.431l-210 210c-2.131 2.114-3.451 5.045-3.451 8.283s1.32 6.169 3.45 8.283l0.001 0.001c2.114 2.131 5.045 3.451 8.283 3.451s6.169-1.32 8.283-3.45l0.001-0.001 53.55-53.667c32.278 29.095 73.416 48.943 118.906 55.057l1.144 0.126c0.698 0.055 1.512 0.087 2.333 0.087s1.635-0.031 2.44-0.094l-0.107 0.007c0.054 0 0.118 0.001 0.182 0.001 8.894 0 17.013-3.318 23.188-8.783l-0.037 0.032c7.174-6.437 11.667-15.738 11.667-26.088 0-0.057 0-0.114-0-0.171v0.009-35c-0.134-17.034-12.415-31.16-28.601-34.15l-0.215-0.033zM233.333 220.383c-0.005 3.481-1.533 6.604-3.954 8.739l-0.013 0.011c-2.048 1.818-4.759 2.928-7.729 2.928-0.607 0-1.204-0.046-1.786-0.136l0.065 0.008c-41.381-5.555-77.902-23.084-106.826-48.936l0.193 0.169 20.65-20.65c11.396 9.976 24.37 18.585 38.406 25.338l1.027 0.445c1.327 0.569 2.871 0.899 4.492 0.899s3.165-0.331 4.568-0.928l-0.076 0.029c2.965-1.081 5.315-3.242 6.62-5.996l0.030-0.071 7.233-16.45c5.080 1.972 11.322 3.859 17.73 5.306l0.936 0.178h1.283l8.050 1.517c5.249 1.212 9.104 5.847 9.104 11.382 0 0.1-0.001 0.2-0.004 0.3l0-0.015z"></path>
</svg>
