<!-- Generated by IcoMoon.io -->
<svg version="1.1" xmlns="http://www.w3.org/2000/svg" width="280" height="280" viewBox="0 0 280 280">
<title>ul-paperclip</title>
<path fill="#37352f" d="M210.933 144.9l-72.1 72.217c-8.715 7.772-20.272 12.521-32.938 12.521-27.384 0-49.583-22.199-49.583-49.583 0-12.666 4.749-24.223 12.564-32.987l-0.043 0.049 93.333-93.333c5.366-5.104 12.641-8.244 20.65-8.244s15.284 3.14 20.663 8.256l-0.013-0.012c5.238 5.306 8.473 12.6 8.473 20.65s-3.235 15.344-8.476 20.653l0.003-0.003-80.5 80.383c-1.633 1.755-3.955 2.849-6.533 2.849-4.924 0-8.916-3.992-8.916-8.916 0-2.346 0.906-4.48 2.387-6.072l-0.005 0.005 59.85-59.733c2.12-2.12 3.431-5.048 3.431-8.283 0-6.47-5.245-11.714-11.714-11.714-3.235 0-6.164 1.311-8.283 3.431v0l-59.85 59.967c-5.837 5.794-9.451 13.821-9.451 22.692s3.613 16.898 9.449 22.69l0.002 0.002c5.891 5.62 13.888 9.078 22.692 9.078s16.8-3.458 22.705-9.090l-0.013 0.012 80.383-80.5c8.73-9.35 14.091-21.944 14.091-35.791 0-28.995-23.505-52.5-52.5-52.5-13.846 0-26.44 5.36-35.821 14.119l0.031-0.028-93.333 93.333c-11.66 12.875-18.796 30.037-18.796 48.865 0 40.271 32.646 72.917 72.917 72.917 19.176 0 36.624-7.403 49.641-19.506l-0.045 0.041 72.217-72.1c2.12-2.12 3.431-5.048 3.431-8.283 0-6.47-5.245-11.714-11.714-11.714-3.235 0-6.164 1.311-8.283 3.431v0z"></path>
</svg>
