<!-- Generated by IcoMoon.io -->
<svg version="1.1" xmlns="http://www.w3.org/2000/svg" width="280" height="280" viewBox="0 0 280 280">
<title>ul-paypal</title>
<path fill="#37352f" d="M238.432 82.886c-2.009-2.246-4.197-4.252-6.567-6.028l-0.116-0.083c0.282-2.096 0.444-4.519 0.444-6.979 0-14.097-5.292-26.959-13.997-36.707l0.047 0.054c-12.646-14.253-34.202-21.476-64.075-21.476h-72.495c-10.93 0.030-19.991 7.999-21.721 18.443l-0.017 0.129-30.215 191.406c-0.155 0.884-0.243 1.901-0.243 2.94 0 9.879 8.008 17.887 17.887 17.887 0.013 0 0.027 0 0.040 0h31.079l-0.957 6.072c-0.134 0.805-0.211 1.732-0.211 2.677 0 9.449 7.658 17.109 17.106 17.113h37.735c0.049 0.001 0.106 0.001 0.164 0.001 10.147 0 18.576-7.355 20.247-17.025l0.017-0.122 7.474-47.031 0.125-0.638h3.486c47.043 0 76.426-23.254 84.993-67.231 1.488-4.978 2.345-10.699 2.345-16.62 0-13.917-4.733-26.729-12.677-36.914l0.1 0.134zM91.494 159.881l-8.335 52.912-1.007 6.345h-28.415l29.064-184.137h71.367c22.581 0 38.703 4.717 46.575 13.581 5.202 6.021 8.37 13.925 8.37 22.57 0 3.318-0.467 6.526-1.338 9.564l0.060-0.244-0.217 1.309c-0.142 0.892-0.271 1.764-0.506 2.872-2.391 17.256-10.932 32.173-23.299 42.745l-0.094 0.078c-12.409 8.726-27.834 13.945-44.477 13.945-1.663 0-3.314-0.052-4.951-0.155l0.224 0.011h-21.271c-0.022 0-0.048 0-0.073 0-10.938 0-20.006 8.008-21.66 18.481l-0.016 0.124zM225.763 131.82c-6.426 32.995-26.159 48.364-62.093 48.364h-5.64c-0.047-0-0.104-0.001-0.16-0.001-10.159 0-18.596 7.373-20.252 17.060l-0.017 0.122-7.576 47.532-28.323 0.103 5.578-35.395 7.13-44.95h20.059c1.829 0 3.446-0.275 5.228-0.337 4.186-0.145 8.36-0.305 12.281-0.792 2.395-0.298 4.592-0.842 6.887-1.268 3.18-0.588 6.361-1.168 9.346-1.998 2.221-0.618 4.293-1.414 6.406-2.165 2.791-0.99 5.539-2.030 8.138-3.251 1.96-0.923 3.828-1.949 5.677-3.002 2.797-1.591 5.13-3.102 7.374-4.729l-0.23 0.158c1.66-1.197 3.289-2.425 4.842-3.745 2.245-1.941 4.289-3.919 6.218-6.004l0.046-0.050c1.318-1.406 2.668-2.771 3.889-4.284 1.857-2.344 3.704-4.981 5.395-7.724l0.205-0.357c0.892-1.425 1.881-2.744 2.702-4.245 2.102-3.745 4.148-8.182 5.857-12.782l0.219-0.672c0.101-0.278 0.246-0.513 0.345-0.793 0.047-0.131 0.115-0.24 0.162-0.372 1.153 4.009 1.816 8.613 1.816 13.372 0 4.335-0.55 8.541-1.584 12.553l0.076-0.348z"></path>
</svg>
