<!-- Generated by IcoMoon.io -->
<svg version="1.1" xmlns="http://www.w3.org/2000/svg" width="280" height="280" viewBox="0 0 280 280">
<title>ul-picture</title>
<path fill="#37352f" d="M233.333 46.667c6.422-0.027 11.618-5.24 11.618-11.666 0-3.181-1.273-6.064-3.337-8.169l0.002 0.002c-2.114-2.131-5.045-3.451-8.283-3.451s-6.169 1.32-8.283 3.45l-0.001 0.001c-1.021 1.045-1.848 2.284-2.422 3.656l-0.028 0.077c-0.591 1.224-0.937 2.662-0.937 4.181 0 0.089 0.001 0.177 0.004 0.266l-0-0.013c0 6.443 5.223 11.667 11.667 11.667v0zM233.333 151.667c-6.443 0-11.667 5.223-11.667 11.667v0 4.55l-17.267-17.267c-5.855-5.892-13.964-9.539-22.925-9.539s-17.070 3.647-22.923 9.537l-8.168 8.168-28.933-29.050c-5.964-5.649-14.039-9.122-22.925-9.122s-16.961 3.473-22.94 9.137l0.015-0.014-17.267 17.267v-65.333c0-6.443 5.223-11.667 11.667-11.667v0h116.667c6.443 0 11.667-5.223 11.667-11.667s-5.223-11.667-11.667-11.667v0h-116.667c-19.33 0-35 15.67-35 35v0 140c0 19.33 15.67 35 35 35v0h140c19.33 0 35-15.67 35-35v0-58.333c0-6.443-5.223-11.667-11.667-11.667v0zM70 233.333c-6.443 0-11.667-5.223-11.667-11.667v0-41.65l33.833-33.833c1.65-1.575 3.891-2.544 6.358-2.544s4.708 0.969 6.362 2.548l36.98 36.98 50.050 50.167zM221.667 221.667c-0.105 2.327-0.876 4.454-2.125 6.22l0.025-0.036-52.617-52.85 8.167-8.167c1.645-1.636 3.913-2.647 6.417-2.647s4.772 1.011 6.417 2.648l-0-0 33.717 34.067zM233.333 58.333c-6.443 0-11.667 5.223-11.667 11.667v0 46.667c0 6.443 5.223 11.667 11.667 11.667s11.667-5.223 11.667-11.667v0-46.667c0-6.443-5.223-11.667-11.667-11.667v0z"></path>
</svg>
