<!-- Generated by IcoMoon.io -->
<svg version="1.1" xmlns="http://www.w3.org/2000/svg" width="280" height="280" viewBox="0 0 280 280">
<title>ul-presentation-times</title>
<path fill="#37352f" d="M108.383 136.617c2.114 2.131 5.045 3.451 8.283 3.451s6.169-1.32 8.283-3.45l0.001-0.001 15.050-15.167 15.050 15.167c2.114 2.131 5.045 3.451 8.283 3.451s6.169-1.32 8.283-3.45l0.001-0.001c2.131-2.114 3.451-5.045 3.451-8.283s-1.32-6.169-3.45-8.283l-0.001-0.001-15.167-15.050 15.167-15.050c2.12-2.12 3.431-5.048 3.431-8.283 0-6.47-5.245-11.714-11.714-11.714-3.235 0-6.164 1.311-8.283 3.431v0l-15.050 15.167-15.050-15.167c-2.12-2.12-5.048-3.431-8.283-3.431-6.47 0-11.714 5.245-11.714 11.714 0 3.235 1.311 6.164 3.431 8.283v0l15.167 15.050-15.167 15.050c-2.131 2.114-3.451 5.045-3.451 8.283s1.32 6.169 3.45 8.283l0.001 0.001zM245 163.333h-11.667v-116.667h11.667c6.443 0 11.667-5.223 11.667-11.667s-5.223-11.667-11.667-11.667v0h-210c-6.443 0-11.667 5.223-11.667 11.667s5.223 11.667 11.667 11.667v0h11.667v116.667h-11.667c-6.443 0-11.667 5.223-11.667 11.667s5.223 11.667 11.667 11.667v0h93.333v13.417l-53.083 35c-3.339 2.092-5.526 5.75-5.526 9.92 0 6.443 5.223 11.667 11.667 11.667 0.097 0 0.194-0.001 0.29-0.004l-0.014 0c0.037 0.001 0.081 0.001 0.126 0.001 2.356 0 4.538-0.743 6.326-2.007l-0.034 0.023 40.25-26.6v16.917c0 6.443 5.223 11.667 11.667 11.667s11.667-5.223 11.667-11.667v0-16.917l40.25 26.6c1.753 1.241 3.935 1.984 6.291 1.984 0.044 0 0.088-0 0.132-0.001h-0.007c6.404-0.051 11.577-5.255 11.577-11.666 0-4.017-2.030-7.559-5.119-9.658l-0.041-0.026-53.083-35v-13.65h93.333c6.443 0 11.667-5.223 11.667-11.667s-5.223-11.667-11.667-11.667v0zM210 163.333h-140v-116.667h140z"></path>
</svg>
