<!-- Generated by IcoMoon.io -->
<svg version="1.1" xmlns="http://www.w3.org/2000/svg" width="280" height="280" viewBox="0 0 280 280">
<title>ul-processor</title>
<path fill="#37352f" d="M163.333 105h-46.667c-6.443 0-11.667 5.223-11.667 11.667v0 46.667c0 6.443 5.223 11.667 11.667 11.667v0h46.667c6.443 0 11.667-5.223 11.667-11.667v0-46.667c0-6.443-5.223-11.667-11.667-11.667v0zM151.667 151.667h-23.333v-23.333h23.333zM245 151.667c6.443 0 11.667-5.223 11.667-11.667s-5.223-11.667-11.667-11.667v0h-23.333v-23.333h23.333c6.443 0 11.667-5.223 11.667-11.667s-5.223-11.667-11.667-11.667v0h-25.433c-3.608-9.934-11.299-17.625-20.99-21.156l-0.243-0.077v-25.433c0-6.443-5.223-11.667-11.667-11.667s-11.667 5.223-11.667 11.667v0 23.333h-23.333v-23.333c0-6.443-5.223-11.667-11.667-11.667s-11.667 5.223-11.667 11.667v0 23.333h-23.333v-23.333c0-6.443-5.223-11.667-11.667-11.667s-11.667 5.223-11.667 11.667v0 25.433c-9.934 3.608-17.625 11.299-21.156 20.99l-0.077 0.243h-25.433c-6.443 0-11.667 5.223-11.667 11.667s5.223 11.667 11.667 11.667v0h23.333v23.333h-23.333c-6.443 0-11.667 5.223-11.667 11.667s5.223 11.667 11.667 11.667v0h23.333v23.333h-23.333c-6.443 0-11.667 5.223-11.667 11.667s5.223 11.667 11.667 11.667v0h25.433c3.608 9.934 11.299 17.625 20.99 21.156l0.243 0.077v25.433c0 6.443 5.223 11.667 11.667 11.667s11.667-5.223 11.667-11.667v0-23.333h23.333v23.333c0 6.443 5.223 11.667 11.667 11.667s11.667-5.223 11.667-11.667v0-23.333h23.333v23.333c0 6.443 5.223 11.667 11.667 11.667s11.667-5.223 11.667-11.667v0-25.433c9.934-3.608 17.625-11.299 21.156-20.99l0.077-0.243h25.433c6.443 0 11.667-5.223 11.667-11.667s-5.223-11.667-11.667-11.667v0h-23.333v-23.333zM198.333 186.667c0 6.443-5.223 11.667-11.667 11.667v0h-93.333c-6.443 0-11.667-5.223-11.667-11.667v0-93.333c0-6.443 5.223-11.667 11.667-11.667v0h93.333c6.443 0 11.667 5.223 11.667 11.667v0z"></path>
</svg>
