<!-- Generated by IcoMoon.io -->
<svg version="1.1" xmlns="http://www.w3.org/2000/svg" width="280" height="280" viewBox="0 0 280 280">
<title>ul-parking-circle</title>
<path fill="#37352f" d="M151.667 81.667h-35c-6.443 0-11.667 5.223-11.667 11.667v0 93.333c0 6.443 5.223 11.667 11.667 11.667s11.667-5.223 11.667-11.667v0-23.333h23.333c19.33 0 35-15.67 35-35v0-11.667c0-19.33-15.67-35-35-35v0zM163.333 128.333c0 6.443-5.223 11.667-11.667 11.667v0h-23.333v-35h23.333c6.443 0 11.667 5.223 11.667 11.667v0zM140 23.333c-64.433 0-116.667 52.233-116.667 116.667s52.233 116.667 116.667 116.667c64.433 0 116.667-52.233 116.667-116.667v0c0-64.433-52.233-116.667-116.667-116.667v0zM140 233.333c-51.547 0-93.333-41.787-93.333-93.333s41.787-93.333 93.333-93.333c51.547 0 93.333 41.787 93.333 93.333v0c0 51.547-41.787 93.333-93.333 93.333v0z"></path>
</svg>
