<!-- Generated by IcoMoon.io -->
<svg version="1.1" xmlns="http://www.w3.org/2000/svg" width="280" height="280" viewBox="0 0 280 280">
<title>ul-presentation-line</title>
<path fill="#37352f" d="M245 163.333h-11.667v-128.333c0-6.443-5.223-11.667-11.667-11.667v0h-163.333c-6.443 0-11.667 5.223-11.667 11.667v0 128.333h-11.667c-6.443 0-11.667 5.223-11.667 11.667s5.223 11.667 11.667 11.667v0h93.333v13.417l-53.083 35c-3.339 2.092-5.526 5.75-5.526 9.92 0 6.443 5.223 11.667 11.667 11.667 0.097 0 0.194-0.001 0.29-0.004l-0.014 0c0.037 0.001 0.081 0.001 0.126 0.001 2.356 0 4.538-0.743 6.326-2.007l-0.034 0.023 40.25-26.6v16.917c0 6.443 5.223 11.667 11.667 11.667s11.667-5.223 11.667-11.667v0-16.917l40.25 26.6c1.753 1.241 3.935 1.984 6.291 1.984 0.044 0 0.088-0 0.132-0.001h-0.007c6.404-0.051 11.577-5.255 11.577-11.666 0-4.017-2.030-7.559-5.119-9.658l-0.041-0.026-53.083-35v-13.65h93.333c6.443 0 11.667-5.223 11.667-11.667s-5.223-11.667-11.667-11.667v0zM210 163.333h-140v-116.667h140zM105 140c4.032-0.022 7.577-2.085 9.656-5.207l0.027-0.043 15.517-23.333 13.183 13.3c2.114 2.127 5.041 3.443 8.275 3.443 0.414 0 0.823-0.022 1.225-0.063l-0.050 0.004c3.582-0.404 6.634-2.377 8.489-5.206l0.027-0.044 23.333-35c0.873-1.596 1.386-3.495 1.386-5.515 0-6.443-5.223-11.667-11.667-11.667-3.662 0-6.93 1.687-9.069 4.326l-0.017 0.022-15.517 23.333-13.183-13.3c-2.114-2.127-5.041-3.443-8.275-3.443-0.414 0-0.822 0.022-1.225 0.063l0.050-0.004c-3.582 0.404-6.634 2.377-8.489 5.206l-0.027 0.044-23.333 35c-1.199 1.804-1.914 4.020-1.914 6.403 0 4.025 2.038 7.574 5.139 9.671l0.041 0.026c1.753 1.241 3.935 1.984 6.291 1.984 0.044 0 0.088-0 0.132-0.001h-0.007z"></path>
</svg>
