<!-- Generated by IcoMoon.io -->
<svg version="1.1" xmlns="http://www.w3.org/2000/svg" width="280" height="280" viewBox="0 0 280 280">
<title>ul-rss-interface</title>
<path fill="#37352f" d="M35 163.333c-6.443 0-11.667 5.223-11.667 11.667s5.223 11.667 11.667 11.667v0c19.33 0 35 15.67 35 35v0c0 6.443 5.223 11.667 11.667 11.667s11.667-5.223 11.667-11.667v0c0-32.217-26.117-58.333-58.333-58.333v0zM26.717 213.383c-2.091 2.108-3.383 5.011-3.383 8.216 0 6.443 5.223 11.667 11.667 11.667s11.667-5.223 11.667-11.667c0-3.205-1.292-6.108-3.384-8.217l0.001 0.001c-2.114-2.131-5.045-3.451-8.283-3.451s-6.169 1.32-8.283 3.45l-0.001 0.001zM221.667 46.667h-163.333c-19.33 0-35 15.67-35 35v0c0 6.443 5.223 11.667 11.667 11.667s11.667-5.223 11.667-11.667v0c0-6.443 5.223-11.667 11.667-11.667v0h163.333c6.443 0 11.667 5.223 11.667 11.667v0 116.667c0 6.443-5.223 11.667-11.667 11.667v0h-46.667c-6.443 0-11.667 5.223-11.667 11.667s5.223 11.667 11.667 11.667v0h46.667c19.33 0 35-15.67 35-35v0-116.667c0-19.33-15.67-35-35-35v0zM35 116.667c-6.443 0-11.667 5.223-11.667 11.667s5.223 11.667 11.667 11.667v0c45.103 0 81.667 36.564 81.667 81.667v0c0 6.443 5.223 11.667 11.667 11.667s11.667-5.223 11.667-11.667v0c0-57.99-47.010-105-105-105v0z"></path>
</svg>
