<!-- Generated by IcoMoon.io -->
<svg version="1.1" xmlns="http://www.w3.org/2000/svg" width="280" height="280" viewBox="0 0 280 280">
<title>ul-rupee-sign</title>
<path fill="#37352f" d="M210 81.667h-25.783c-2.413-8.954-6.432-16.757-11.767-23.464l0.1 0.131h37.45c6.443 0 11.667-5.223 11.667-11.667s-5.223-11.667-11.667-11.667v0h-128.333c-6.443 0-11.667 5.223-11.667 11.667s5.223 11.667 11.667 11.667v0h40.833c16.137 0.059 30.062 9.468 36.644 23.090l0.106 0.244h-77.583c-6.443 0-11.667 5.223-11.667 11.667s5.223 11.667 11.667 11.667v0h81.667c-2.945 19.847-19.825 34.915-40.241 35h-41.426c-0.245-0.026-0.529-0.041-0.817-0.041s-0.572 0.015-0.852 0.044l0.035-0.003c-0.351-0.057-0.755-0.090-1.167-0.090s-0.816 0.033-1.21 0.096l0.043-0.006c-0.847 0.293-1.581 0.688-2.237 1.182l0.021-0.015-1.4 0.817c-0.63 0.571-1.172 1.223-1.611 1.945l-0.022 0.039c-0.361 0.473-0.709 1.007-1.016 1.567l-0.034 0.066c-0.049 0.316-0.078 0.679-0.078 1.050s0.028 0.734 0.083 1.090l-0.005-0.040c-0.799 1.107-1.31 2.469-1.399 3.946l-0.001 0.021s0 0 0 0c-0.026 0.245-0.041 0.529-0.041 0.817s0.015 0.572 0.044 0.852l-0.003-0.035c-0.057 0.351-0.090 0.755-0.090 1.167s0.033 0.816 0.096 1.21l-0.006-0.043c0.293 0.847 0.688 1.581 1.182 2.237l-0.015-0.021s0 0.933 0.817 1.4l70 81.667c2.153 2.506 5.325 4.084 8.867 4.084 6.444 0 11.667-5.223 11.667-11.667 0-2.903-1.060-5.557-2.814-7.599l0.013 0.016-52.617-62.417h15.4c0.079 0 0.172 0.001 0.266 0.001 33.385 0 60.815-25.495 63.882-58.078l0.019-0.256h23.333c6.443 0 11.667-5.223 11.667-11.667s-5.223-11.667-11.667-11.667v0z"></path>
</svg>
