<!-- Generated by IcoMoon.io -->
<svg version="1.1" xmlns="http://www.w3.org/2000/svg" width="280" height="280" viewBox="0 0 280 280">
<title>ul-rss-alt</title>
<path fill="#37352f" d="M33.6 196.933c-6.862 6.407-11.14 15.507-11.14 25.606 0 19.33 15.67 35 35 35 10.099 0 19.199-4.277 25.587-11.119l0.019-0.020c6.325-6.332 10.236-15.076 10.236-24.733s-3.911-18.401-10.236-24.734l0 0c-6.429-6.109-15.142-9.867-24.733-9.867s-18.305 3.758-24.749 9.881l0.015-0.014zM66.617 229.95v0c-2.114 2.131-5.045 3.451-8.283 3.451s-6.169-1.32-8.283-3.45l-0.001-0.001c-2.131-2.114-3.451-5.045-3.451-8.283s1.32-6.169 3.45-8.283l0.001-0.001c2.114-2.131 5.045-3.451 8.283-3.451s6.169 1.32 8.283 3.45l0.001 0.001c2.131 2.114 3.451 5.045 3.451 8.283s-1.32 6.169-3.45 8.283l-0.001 0.001zM58.333 140c-6.443 0-11.667 5.223-11.667 11.667s5.223 11.667 11.667 11.667v0c32.217 0 58.333 26.117 58.333 58.333v0c0 6.443 5.223 11.667 11.667 11.667s11.667-5.223 11.667-11.667v0c0-45.103-36.564-81.667-81.667-81.667v0zM58.333 93.333c-6.443 0-11.667 5.223-11.667 11.667s5.223 11.667 11.667 11.667v0c57.99 0 105 47.010 105 105v0c0 6.443 5.223 11.667 11.667 11.667s11.667-5.223 11.667-11.667v0c0-70.877-57.457-128.333-128.333-128.333v0z"></path>
</svg>
