<!-- Generated by IcoMoon.io -->
<svg version="1.1" xmlns="http://www.w3.org/2000/svg" width="280" height="280" viewBox="0 0 280 280">
<title>ul-setting</title>
<path fill="#37352f" d="M232.167 147.7c-1.802-2.043-2.902-4.743-2.902-7.7s1.1-5.657 2.913-7.713l-0.011 0.013 14.933-16.8c1.849-2.056 2.98-4.79 2.98-7.788 0-2.16-0.587-4.182-1.609-5.917l0.030 0.054-23.333-40.367c-2.053-3.518-5.81-5.844-10.11-5.844-0.84 0-1.66 0.089-2.45 0.258l0.077-0.014-21.933 4.433c-0.71 0.153-1.525 0.241-2.361 0.241-5.11 0-9.453-3.285-11.031-7.859l-0.025-0.082-7.117-21.35c-1.605-4.652-5.946-7.933-11.053-7.933-0.011 0-0.021 0-0.032 0h-46.665c-0.182-0.010-0.394-0.016-0.608-0.016-5.113 0-9.458 3.289-11.034 7.867l-0.025 0.082-6.533 21.35c-1.603 4.656-5.946 7.941-11.056 7.941-0.836 0-1.651-0.088-2.437-0.255l0.076 0.014-22.517-4.433c-0.491-0.073-1.057-0.115-1.632-0.115-4.247 0-7.964 2.27-10.005 5.662l-0.029 0.053-23.333 40.367c-1.051 1.717-1.674 3.796-1.674 6.021 0 2.924 1.075 5.596 2.852 7.644l-0.012-0.014 14.817 16.8c1.802 2.043 2.902 4.743 2.902 7.7s-1.1 5.657-2.913 7.713l0.011-0.013-14.817 16.8c-1.765 2.033-2.84 4.706-2.84 7.629 0 2.224 0.622 4.303 1.703 6.072l-0.029-0.051 23.333 40.367c2.053 3.518 5.81 5.844 10.11 5.844 0.84 0 1.66-0.089 2.45-0.258l-0.077 0.014 21.933-4.433c0.71-0.153 1.525-0.241 2.361-0.241 5.11 0 9.453 3.285 11.031 7.859l0.025 0.082 7.117 21.35c1.601 4.66 5.945 7.949 11.059 7.949 0.214 0 0.427-0.006 0.638-0.017l-0.030 0.001h46.667c0.009 0 0.019 0 0.030 0 5.107 0 9.448-3.282 11.029-7.851l0.025-0.082 7.117-21.35c1.603-4.656 5.946-7.941 11.056-7.941 0.836 0 1.651 0.088 2.437 0.255l-0.076-0.014 21.933 4.433c0.713 0.155 1.533 0.244 2.373 0.244 4.3 0 8.057-2.326 10.080-5.789l0.030-0.055 23.333-40.367c0.993-1.68 1.58-3.703 1.58-5.862 0-2.998-1.131-5.732-2.989-7.798l0.009 0.011zM214.783 163.333l9.333 10.5-14.933 25.9-13.767-2.8c-2.107-0.451-4.528-0.709-7.010-0.709-15.411 0-28.496 9.961-33.168 23.796l-0.072 0.247-4.433 13.067h-29.867l-4.2-13.3c-4.744-14.081-17.829-24.043-33.24-24.043-2.481 0-4.902 0.258-7.238 0.749l0.228-0.040-13.767 2.8-15.167-25.783 9.333-10.5c5.531-6.163 8.912-14.354 8.912-23.333s-3.382-17.17-8.941-23.366l0.029 0.033-9.333-10.5 14.933-25.667 13.767 2.8c2.107 0.451 4.528 0.709 7.010 0.709 15.411 0 28.496-9.961 33.168-23.796l0.072-0.247 4.433-13.183h29.867l4.433 13.3c4.744 14.081 17.829 24.043 33.24 24.043 2.481 0 4.902-0.258 7.238-0.749l-0.228 0.040 13.767-2.8 14.933 25.9-9.333 10.5c-5.468 6.147-8.809 14.292-8.809 23.217s3.341 17.070 8.84 23.252l-0.031-0.036zM135.8 93.333c-25.773 0-46.667 20.893-46.667 46.667s20.893 46.667 46.667 46.667c25.773 0 46.667-20.893 46.667-46.667v0c0-25.773-20.893-46.667-46.667-46.667v0zM135.8 163.333c-12.887 0-23.333-10.447-23.333-23.333s10.447-23.333 23.333-23.333c12.887 0 23.333 10.447 23.333 23.333v0c0 12.887-10.447 23.333-23.333 23.333v0z"></path>
</svg>
