<!-- Generated by IcoMoon.io -->
<svg version="1.1" xmlns="http://www.w3.org/2000/svg" width="280" height="280" viewBox="0 0 280 280">
<title>ul-stretcher</title>
<path fill="#37352f" d="M210 52.5h35c6.443 0 11.667-5.223 11.667-11.667s-5.223-11.667-11.667-11.667v0h-35c-6.443 0-11.667 5.223-11.667 11.667s5.223 11.667 11.667 11.667v0zM245 75.833h-210c-6.443 0-11.667 5.223-11.667 11.667v0 46.667c0 6.443 5.223 11.667 11.667 11.667v0h18.083l59.617 29.867-30.1 15.050c-6.265-6.101-14.821-9.877-24.259-9.917h-0.008c-19.33 0-35 15.67-35 35s15.67 35 35 35c19.33 0 35-15.67 35-35v0c0.055-0.629 0.086-1.361 0.086-2.1s-0.031-1.471-0.092-2.194l0.007 0.094 45.967-23.333 47.367 24.5c-0.027 0.453-0.043 0.983-0.043 1.517s0.016 1.063 0.046 1.589l-0.003-0.073c0 19.33 15.67 35 35 35s35-15.67 35-35c0-19.33-15.67-35-35-35v0c-9.852 0.040-18.737 4.145-25.073 10.722l-0.010 0.011-31.733-15.867 59.617-29.867h20.533c6.443 0 11.667-5.223 11.667-11.667v0-46.667c0-6.443-5.223-11.667-11.667-11.667v0zM58.333 227.5c-6.443 0-11.667-5.223-11.667-11.667s5.223-11.667 11.667-11.667c6.443 0 11.667 5.223 11.667 11.667v0c0 6.443-5.223 11.667-11.667 11.667v0zM221.667 204.167c6.443 0 11.667 5.223 11.667 11.667s-5.223 11.667-11.667 11.667c-6.443 0-11.667-5.223-11.667-11.667v0c0-6.443 5.223-11.667 11.667-11.667v0zM138.833 162.633l-33.833-16.8h67.083zM233.333 122.5h-186.667v-23.333h186.667z"></path>
</svg>
