<!-- Generated by IcoMoon.io -->
<svg version="1.1" xmlns="http://www.w3.org/2000/svg" width="280" height="280" viewBox="0 0 280 280">
<title>ul-store</title>
<path fill="#37352f" d="M256.667 91.233c0.027-0.332 0.042-0.718 0.042-1.108s-0.015-0.777-0.045-1.159l0.003 0.051-23.333-58.333c-1.757-4.359-5.951-7.379-10.85-7.379-0.287 0-0.572 0.010-0.854 0.031l0.038-0.002h-163.333c-0.003 0-0.007 0-0.011 0-4.889 0-9.075 3.007-10.811 7.272l-0.028 0.078-23.333 58.333c-0.027 0.332-0.042 0.718-0.042 1.108s0.015 0.777 0.045 1.159l-0.003-0.051c-0.367 0.604-0.65 1.307-0.809 2.056l-0.008 0.044c0.281 16.893 9.495 31.573 23.113 39.548l0.22 0.119v112c0 6.443 5.223 11.667 11.667 11.667v0h163.333c6.443 0 11.667-5.223 11.667-11.667v0-111.533c13.968-8.172 23.227-23.060 23.333-40.118v-0.015c0.052-0.316 0.082-0.679 0.082-1.050s-0.030-0.734-0.087-1.089l0.005 0.039zM151.667 233.333h-23.333v-46.667h23.333zM210 233.333h-35v-58.333c0-6.443-5.223-11.667-11.667-11.667v0h-46.667c-6.443 0-11.667 5.223-11.667 11.667v0 58.333h-35v-93.333c13.958-0.081 26.453-6.278 34.952-16.044l0.048-0.056c8.593 9.709 21.085 15.799 35 15.799s26.407-6.090 34.957-15.75l0.043-0.049c8.547 9.822 21.042 16.019 34.986 16.1h0.014zM210 116.667c-12.887 0-23.333-10.447-23.333-23.333v0c0-6.443-5.223-11.667-11.667-11.667s-11.667 5.223-11.667 11.667v0c0 12.887-10.447 23.333-23.333 23.333s-23.333-10.447-23.333-23.333v0c0-6.443-5.223-11.667-11.667-11.667s-11.667 5.223-11.667 11.667v0c0.010 0.261 0.016 0.567 0.016 0.875 0 12.896-10.454 23.35-23.35 23.35-12.588 0-22.85-9.961-23.332-22.431l-0.001-0.044 19.6-48.417h147.467l19.6 48.417c-0.938 12.111-10.997 21.584-23.268 21.584-0.023 0-0.046 0-0.069 0h0.004z"></path>
</svg>
