<!-- Generated by IcoMoon.io -->
<svg version="1.1" xmlns="http://www.w3.org/2000/svg" width="280" height="280" viewBox="0 0 280 280">
<title>ul-step-backward</title>
<path fill="#37352f" d="M236.6 40.017c-5.488-3.301-12.112-5.253-19.192-5.253s-13.704 1.952-19.362 5.348l0.171-0.095-104.883 63.117v-33.133c0-19.33-15.67-35-35-35s-35 15.67-35 35v0 140c0 19.33 15.67 35 35 35s35-15.67 35-35v0-33.133l105 62.65c5.593 3.42 12.356 5.456 19.592 5.483h0.008c6.914-0.007 13.391-1.868 18.963-5.114l-0.18 0.097c12.069-6.897 20.072-19.69 20.072-34.353 0-0.227-0.002-0.454-0.006-0.681l0.001 0.034v-130.083c0.002-0.139 0.003-0.302 0.003-0.466 0-14.709-8.053-27.537-19.991-34.315l-0.195-0.102zM70 210c0 6.443-5.223 11.667-11.667 11.667s-11.667-5.223-11.667-11.667v0-140c0-6.443 5.223-11.667 11.667-11.667s11.667 5.223 11.667 11.667v0zM233.333 205.1c0.003 0.11 0.004 0.239 0.004 0.369 0 6.063-3.303 11.354-8.208 14.172l-0.080 0.042c-2.127 1.316-4.706 2.096-7.467 2.096s-5.34-0.78-7.529-2.131l0.062 0.036-108.85-65.333c-4.81-3.038-7.958-8.326-7.958-14.35s3.148-11.312 7.889-14.309l0.069-0.041 108.733-65.1c2.172-1.391 4.821-2.218 7.663-2.218 0.054 0 0.108 0 0.162 0.001h-0.008c2.667 0.043 5.155 0.774 7.305 2.022l-0.072-0.039c4.984 2.86 8.288 8.151 8.288 14.214 0 0.13-0.002 0.259-0.005 0.388l0-0.019z"></path>
</svg>
