<!-- Generated by IcoMoon.io -->
<svg version="1.1" xmlns="http://www.w3.org/2000/svg" width="280" height="280" viewBox="0 0 280 280">
<title>ul-sanitizer</title>
<path fill="#37352f" d="M151.667 140c-19.33 0-35 15.67-35 35s15.67 35 35 35c19.33 0 35-15.67 35-35v0c-0.022-19.321-15.679-34.978-34.998-35h-0.002zM151.667 186.667c-6.443 0-11.667-5.223-11.667-11.667s5.223-11.667 11.667-11.667c6.443 0 11.667 5.223 11.667 11.667v0c-0.009 6.44-5.227 11.658-11.666 11.667h-0.001zM219.337 88.668l-32.67-24.5v-29.168h11.667c6.443 0 11.667-5.223 11.667-11.667s-5.223-11.667-11.667-11.667v0h-97.338c-0.047-0-0.103-0-0.159-0-16.057 0-30.588 6.531-41.082 17.082l-9.669 9.67c-2.156 2.118-3.492 5.065-3.492 8.323 0 6.443 5.223 11.665 11.665 11.665 3.259 0 6.205-1.336 8.322-3.49l9.669-9.669c6.348-6.309 15.088-10.218 24.741-10.248h15.677v29.167l-32.676 24.5c-8.514 6.473-13.963 16.597-13.991 27.995v140.005c0 6.443 5.223 11.667 11.667 11.667v0h140c6.443 0 11.667-5.223 11.667-11.667v0-140c-0.028-11.404-5.479-21.529-13.91-27.935l-0.087-0.063zM140 35h23.333v23.333h-23.333zM210 245h-116.667v-128.333c0.009-3.802 1.826-7.179 4.637-9.316l0.029-0.021 34.225-25.663h38.885l34.22 25.663c2.843 2.156 4.662 5.533 4.671 9.335v0.001z"></path>
</svg>
