<!-- Generated by IcoMoon.io -->
<svg version="1.1" xmlns="http://www.w3.org/2000/svg" width="280" height="280" viewBox="0 0 280 280">
<title>ul-selfie</title>
<path fill="#37352f" d="M186.667 23.333h-93.333c-19.33 0-35 15.67-35 35v0 163.333c0 19.33 15.67 35 35 35v0h93.333c19.33 0 35-15.67 35-35v0-163.333c0-19.33-15.67-35-35-35v0zM198.333 221.667c0 6.443-5.223 11.667-11.667 11.667v0h-93.333c-6.443 0-11.667-5.223-11.667-11.667v0-11.667h116.667zM140 163.333c15.109 0.044 27.961 9.654 32.823 23.090l0.077 0.244h-65.8c4.939-13.68 17.791-23.289 32.895-23.333h0.005zM128.333 128.333c0-6.443 5.223-11.667 11.667-11.667s11.667 5.223 11.667 11.667c0 6.443-5.223 11.667-11.667 11.667v0c-6.443 0-11.667-5.223-11.667-11.667v0zM198.333 186.667h-1.167c-3.584-16.699-13.924-30.478-27.952-38.583l-0.281-0.15c3.781-5.49 6.046-12.278 6.067-19.595v-0.005c0-19.33-15.67-35-35-35s-35 15.67-35 35v0c0.021 7.322 2.286 14.11 6.144 19.718l-0.077-0.118c-14.31 8.256-24.649 22.034-28.164 38.35l-0.069 0.384h-1.167v-128.333c0-6.443 5.223-11.667 11.667-11.667v0h93.333c6.443 0 11.667 5.223 11.667 11.667v0zM140 58.333c-6.443 0-11.667 5.223-11.667 11.667s5.223 11.667 11.667 11.667c6.443 0 11.667-5.223 11.667-11.667v0c0-6.443-5.223-11.667-11.667-11.667v0z"></path>
</svg>
