<!-- Generated by IcoMoon.io -->
<svg version="1.1" xmlns="http://www.w3.org/2000/svg" width="280" height="280" viewBox="0 0 280 280">
<title>ul-shop</title>
<path fill="#37352f" d="M256.667 58.333h-233.333c-6.443 0-11.667 5.223-11.667 11.667v0 46.667c0.044 15.109 9.654 27.961 23.090 32.823l0.244 0.077v107.1c0 6.443 5.223 11.667 11.667 11.667v0h186.667c6.443 0 11.667-5.223 11.667-11.667v0-107.1c13.68-4.939 23.289-17.791 23.333-32.895v-46.672c0-6.443-5.223-11.667-11.667-11.667v0zM175 81.667h23.333v35c0 6.443-5.223 11.667-11.667 11.667s-11.667-5.223-11.667-11.667v0zM128.333 81.667h23.333v35c0 6.443-5.223 11.667-11.667 11.667s-11.667-5.223-11.667-11.667v0zM81.667 81.667h23.333v35c0 6.443-5.223 11.667-11.667 11.667s-11.667-5.223-11.667-11.667v0zM46.667 128.333c-6.443 0-11.667-5.223-11.667-11.667v0-35h23.333v35c0 6.443-5.223 11.667-11.667 11.667v0zM163.333 245h-46.667v-23.333c0-12.887 10.447-23.333 23.333-23.333s23.333 10.447 23.333 23.333v0zM221.667 245h-35v-23.333c0-25.773-20.893-46.667-46.667-46.667s-46.667 20.893-46.667 46.667v0 23.333h-35v-95.433c4.5-1.697 8.372-4.068 11.704-7.033l-0.037 0.033c6.163 5.531 14.354 8.912 23.333 8.912s17.17-3.382 23.366-8.941l-0.033 0.029c6.163 5.531 14.354 8.912 23.333 8.912s17.17-3.382 23.366-8.941l-0.033 0.029c6.163 5.531 14.354 8.912 23.333 8.912s17.17-3.382 23.366-8.941l-0.033 0.029c3.295 2.932 7.167 5.303 11.412 6.915l0.254 0.085zM245 116.667c0 6.443-5.223 11.667-11.667 11.667s-11.667-5.223-11.667-11.667v0-35h23.333zM50.167 35h183.167c6.443 0 11.667-5.223 11.667-11.667s-5.223-11.667-11.667-11.667v0h-183.167c-6.443 0-11.667 5.223-11.667 11.667s5.223 11.667 11.667 11.667v0z"></path>
</svg>
