<!-- Generated by IcoMoon.io -->
<svg version="1.1" xmlns="http://www.w3.org/2000/svg" width="280" height="280" viewBox="0 0 280 280">
<title>ul-snapchat-ghost</title>
<path fill="#37352f" d="M254.305 198.184c-33.439-5.509-48.428-39.684-49.047-41.135l-0.063-0.137c-1.152-1.855-1.835-4.106-1.835-6.517 0-1.415 0.235-2.775 0.669-4.043l-0.026 0.088c2.246-5.292 9.676-7.65 14.599-9.213 1.229-0.39 2.392-0.758 3.303-1.12 8.899-3.515 10.708-7.153 10.664-9.589-0.494-3.125-2.803-5.599-5.796-6.331l-0.053-0.011-0.066-0.025c-1.218-0.504-2.633-0.796-4.116-0.796-0.014 0-0.029 0-0.043 0h0.002c-0.045-0.001-0.098-0.001-0.151-0.001-1.265 0-2.468 0.267-3.556 0.748l0.056-0.022c-3.24 1.675-7.029 2.786-11.043 3.098l-0.102 0.006c-0.068 0.002-0.148 0.003-0.229 0.003-2.257 0-4.332-0.78-5.969-2.086l0.019 0.015c0.107-1.982 0.233-4.027 0.371-6.189l0.047-0.762c0.752-5.003 1.182-10.777 1.182-16.651 0-10.817-1.457-21.294-4.186-31.245l0.193 0.827c-9.715-21.749-31.155-36.631-56.071-36.631-0.275 0-0.55 0.002-0.824 0.005l0.042-0.001q-2.347 0.025-4.695 0.044c-0.224-0.003-0.489-0.005-0.755-0.005-24.889 0-46.304 14.875-55.84 36.22l-0.155 0.388c-2.537 9.12-3.995 19.592-3.995 30.405 0 5.864 0.429 11.629 1.257 17.263l-0.077-0.639q0.226 3.485 0.42 6.973c-1.664 1.313-3.791 2.107-6.104 2.107-0.249 0-0.495-0.009-0.739-0.027l0.033 0.002c-4.349-0.191-8.393-1.325-11.988-3.199l0.158 0.075c-0.798-0.362-1.731-0.573-2.713-0.573-0.052 0-0.104 0.001-0.156 0.002l0.008-0c-0.114-0.005-0.248-0.008-0.383-0.008-4.112 0-7.627 2.551-9.052 6.156l-0.023 0.066c-0.956 5.024 6.217 8.663 10.578 10.386 0.922 0.366 2.079 0.733 3.303 1.12 4.92 1.562 12.356 3.921 14.601 9.215 0.407 1.18 0.642 2.54 0.642 3.955 0 2.411-0.683 4.664-1.865 6.573l0.031-0.054-0.063 0.135c-3.446 7.413-7.617 13.797-12.56 19.493l0.086-0.101c-9.007 11.138-21.698 18.984-36.197 21.687l-0.376 0.058c-1.337 0.226-2.343 1.376-2.343 2.76 0 0.055 0.002 0.11 0.005 0.165l-0-0.008c0.033 0.554 0.163 1.069 0.373 1.541l-0.011-0.028c2.051 4.797 12.346 8.757 29.771 11.445 1.629 0.252 2.318 2.908 3.27 7.259 0.38 1.742 0.774 3.55 1.323 5.416 0.344 1.55 1.707 2.691 3.336 2.691 0.137 0 0.272-0.008 0.404-0.024l-0.016 0.002c1.816-0.104 3.512-0.357 5.155-0.751l-0.197 0.040c3.909-0.892 8.413-1.428 13.034-1.479l0.036-0c3.335 0.008 6.596 0.298 9.768 0.846l-0.344-0.049c6.907 1.785 12.916 4.951 17.977 9.205l-0.069-0.057c8.431 7.234 19.322 11.82 31.267 12.363l0.113 0.004c0.394 0 0.787-0.014 1.168-0.047 0.48 0.023 1.111 0.047 1.772 0.047 12.064-0.55 22.96-5.139 31.467-12.434l-0.070 0.059c4.988-4.194 10.99-7.356 17.577-9.069l0.314-0.069c2.828-0.498 6.090-0.787 9.418-0.797h0.008c4.641 0.022 9.151 0.526 13.5 1.462l-0.429-0.077c1.461 0.336 3.164 0.56 4.908 0.625l0.051 0.001h0.273c0.078 0.007 0.169 0.010 0.261 0.010 1.562 0 2.867-1.1 3.182-2.567l0.004-0.021c0.542-1.842 0.939-3.593 1.329-5.382 0.943-4.328 1.632-6.972 3.268-7.225 17.43-2.693 27.725-6.647 29.762-11.417 0.202-0.447 0.335-0.967 0.37-1.513l0.001-0.013c0.003-0.046 0.004-0.1 0.004-0.155 0-1.385-1.005-2.535-2.326-2.76l-0.017-0.002z"></path>
</svg>
