<!-- Generated by IcoMoon.io -->
<svg version="1.1" xmlns="http://www.w3.org/2000/svg" width="280" height="280" viewBox="0 0 280 280">
<title>ul-thermometer</title>
<path fill="#37352f" d="M190.050 73.383l-81.667 81.667c-2.131 2.114-3.451 5.045-3.451 8.283s1.32 6.169 3.45 8.283l0.001 0.001c2.114 2.131 5.045 3.451 8.283 3.451s6.169-1.32 8.283-3.45l81.668-81.668c2.12-2.12 3.431-5.048 3.431-8.283 0-6.47-5.245-11.714-11.714-11.714-3.235 0-6.164 1.311-8.283 3.431v0zM239.633 40.367c-10.562-10.588-25.166-17.138-41.3-17.138s-30.738 6.55-41.299 17.136l-0.001 0.001-95.317 96.017c-2.080 2.096-3.37 4.98-3.383 8.164v60.553l-31.617 31.617c-2.131 2.114-3.451 5.045-3.451 8.283s1.32 6.169 3.45 8.283l0.001 0.001c2.114 2.131 5.045 3.451 8.283 3.451s6.169-1.32 8.283-3.45l31.618-31.618h60.55c3.187-0.014 6.070-1.303 8.167-3.384l-0.001 0.001 96.017-95.317c10.588-10.562 17.138-25.166 17.138-41.3s-6.55-30.738-17.136-41.299l-0.001-0.001zM223.067 106.4l-92.4 91.933h-49v-49l91.933-92.4c6.233-5.82 14.629-9.394 23.86-9.394 19.33 0 35 15.67 35 35 0 9.231-3.574 17.627-9.413 23.881l0.019-0.020z"></path>
</svg>
