<!-- Generated by IcoMoon.io -->
<svg version="1.1" xmlns="http://www.w3.org/2000/svg" width="280" height="280" viewBox="0 0 280 280">
<title>ul-table-tennis</title>
<path fill="#37352f" d="M241.617 187.833l-19.133-19.133c-2.16-2.009-3.507-4.867-3.507-8.039 0-1.609 0.346-3.137 0.969-4.513l-0.028 0.069c3.896-8.17 6.21-17.746 6.3-27.852l0-0.031c0.026-0.175 0.041-0.378 0.041-0.583s-0.015-0.408-0.043-0.606l0.003 0.023c0-0.057 0-0.125 0-0.193 0-14.539-4.633-27.996-12.504-38.975l0.137 0.201c-15.659-21.706-35.897-39.144-59.381-51.133l-0.936-0.434c-10.481-5.246-22.836-8.317-35.907-8.317-22.393 0-42.68 9.013-57.434 23.608l0.007-0.007-7.817 7.817c-14.703 14.766-23.793 35.132-23.793 57.62 0 13.224 3.143 25.715 8.723 36.764l-0.214-0.467 1.167 1.983c-6.006 6.225-9.729 14.687-9.8 24.020v0.014c0.148 19.217 15.761 34.738 34.999 34.738 6.73 0 13.016-1.899 18.352-5.191l-0.151 0.087c2.1 1.633 3.967 3.383 6.067 4.9 4.103 2.889 8.798 5.403 13.79 7.317l0.444 0.149h1.050c2.1 0.817 4.317 1.517 6.65 2.217h1.75c3.236 0.87 7.022 1.493 10.91 1.741l0.173 0.009h7.233c2.45 0 4.783 0 7.233-0.7h1.983c6.217-1.087 11.776-2.912 16.946-5.416l-0.38 0.166c1.29-0.534 2.788-0.845 4.358-0.845 3.16 0 6.027 1.256 8.128 3.297l17.031 17.031c7.134 7.158 16.983 11.606 27.872 11.666h0.011c9.141-0.101 17.381-3.875 23.329-9.913l4.437-4.437c6.369-6.34 10.31-15.113 10.31-24.808 0-9.222-3.567-17.611-9.396-23.863l0.019 0.021zM63.117 191.567c-6.443 0-11.667-5.223-11.667-11.667s5.223-11.667 11.667-11.667c6.443 0 11.667 5.223 11.667 11.667v0c0 6.443-5.223 11.667-11.667 11.667v0zM99.283 193.2l-3.033-2.333c1.162-3.266 1.844-7.033 1.866-10.956v-0.011c0-19.33-15.67-35-35-35v0c-1.517 0-2.917 0-4.433 0l-1.050-1.867c-3.847-7.57-6.1-16.507-6.1-25.971 0-16.041 6.475-30.57 16.953-41.115l7.814-7.814c10.461-10.038 24.69-16.219 40.363-16.219 9.712 0 18.871 2.374 26.926 6.573l-0.323-0.153c19.984 10.135 36.621 24.197 49.44 41.287l0.26 0.363zM225.050 220.85l-4.317 4.433c-4.9 4.9-12.483 3.967-18.783-2.333l-17.033-16.917c-6.326-6.286-15.043-10.171-24.668-10.171-5.179 0-10.095 1.125-14.518 3.143l0.219-0.089c-3.384 1.699-7.311 2.965-11.448 3.59l-0.218 0.027c-1.868 0.374-4.016 0.588-6.214 0.588-0.194 0-0.388-0.002-0.582-0.005l0.029 0h-5.133l80.15-80.15c0.146 1.352 0.23 2.919 0.23 4.506 0 6.837-1.547 13.312-4.311 19.094l0.115-0.267c-1.929 4.204-3.054 9.12-3.054 14.299 0 9.625 3.885 18.342 10.172 24.67l-0.002-0.002 19.133 19.25c2.133 2.115 3.453 5.046 3.453 8.286 0 3.122-1.227 5.958-3.224 8.052l0.004-0.005z"></path>
</svg>
