<!-- Generated by IcoMoon.io -->
<svg version="1.1" xmlns="http://www.w3.org/2000/svg" width="280" height="280" viewBox="0 0 280 280">
<title>ul-ticket</title>
<path fill="#37352f" d="M105 116.667c-6.443 0-11.667 5.223-11.667 11.667v0 23.333c0 6.443 5.223 11.667 11.667 11.667s11.667-5.223 11.667-11.667v0-23.333c0-6.443-5.223-11.667-11.667-11.667v0zM245 128.333c6.443 0 11.667-5.223 11.667-11.667v0-46.667c0-6.443-5.223-11.667-11.667-11.667v0h-210c-6.443 0-11.667 5.223-11.667 11.667v0 46.667c0 6.443 5.223 11.667 11.667 11.667v0c6.443 0 11.667 5.223 11.667 11.667s-5.223 11.667-11.667 11.667v0c-6.443 0-11.667 5.223-11.667 11.667v0 46.667c0 6.443 5.223 11.667 11.667 11.667v0h210c6.443 0 11.667-5.223 11.667-11.667v0-46.667c0-6.443-5.223-11.667-11.667-11.667v0c-6.443 0-11.667-5.223-11.667-11.667s5.223-11.667 11.667-11.667v0zM233.333 107.1c-13.566 5.026-23.059 17.854-23.059 32.9s9.493 27.874 22.817 32.821l0.242 0.079v25.433h-116.667c0-6.443-5.223-11.667-11.667-11.667s-11.667 5.223-11.667 11.667v0h-46.667v-25.433c13.566-5.026 23.059-17.854 23.059-32.9s-9.493-27.874-22.817-32.821l-0.242-0.079v-25.433h46.667c0 6.443 5.223 11.667 11.667 11.667s11.667-5.223 11.667-11.667v0h116.667z"></path>
</svg>
