<!-- Generated by IcoMoon.io -->
<svg version="1.1" xmlns="http://www.w3.org/2000/svg" width="280" height="280" viewBox="0 0 280 280">
<title>ul-times-circle</title>
<path fill="#37352f" d="M183.283 96.717c-2.114-2.131-5.045-3.451-8.283-3.451s-6.169 1.32-8.283 3.45l-0.001 0.001-26.717 26.833-26.717-26.833c-2.12-2.12-5.048-3.431-8.283-3.431-6.47 0-11.714 5.245-11.714 11.714 0 3.235 1.311 6.164 3.431 8.283v0l26.833 26.717-26.833 26.717c-2.131 2.114-3.451 5.045-3.451 8.283s1.32 6.169 3.45 8.283l0.001 0.001c2.114 2.131 5.045 3.451 8.283 3.451s6.169-1.32 8.283-3.45l0.001-0.001 26.717-26.833 26.717 26.833c2.114 2.131 5.045 3.451 8.283 3.451s6.169-1.32 8.283-3.45l0.001-0.001c2.131-2.114 3.451-5.045 3.451-8.283s-1.32-6.169-3.45-8.283l-0.001-0.001-26.833-26.717 26.833-26.717c2.131-2.114 3.451-5.045 3.451-8.283s-1.32-6.169-3.45-8.283l-0.001-0.001zM222.483 57.517c-21.244-21.974-50.988-35.617-83.917-35.617-64.433 0-116.667 52.233-116.667 116.667 0 32.93 13.643 62.673 35.584 83.885l0.033 0.031c21.244 21.974 50.988 35.617 83.917 35.617 64.433 0 116.667-52.233 116.667-116.667 0-32.93-13.643-62.673-35.584-83.885l-0.033-0.031zM206.033 206.033c-16.894 16.912-40.242 27.373-66.033 27.373-51.547 0-93.333-41.787-93.333-93.333s41.787-93.333 93.333-93.333c51.521 0 93.292 41.745 93.333 93.256v0.004c0 0.094 0.001 0.204 0.001 0.315 0 25.679-10.436 48.921-27.298 65.716l-0.003 0.003z"></path>
</svg>
