<!-- Generated by IcoMoon.io -->
<svg version="1.1" xmlns="http://www.w3.org/2000/svg" width="280" height="280" viewBox="0 0 280 280">
<title>ul-unlock-alt</title>
<path fill="#37352f" d="M140 151.667c-6.443 0-11.667 5.223-11.667 11.667v0 35c0 6.443 5.223 11.667 11.667 11.667s11.667-5.223 11.667-11.667v0-35c0-6.443-5.223-11.667-11.667-11.667v0zM198.333 105h-93.333v-23.333c0-0.025 0-0.056 0-0.086 0-19.33 15.67-35 35-35 9.657 0 18.401 3.911 24.734 10.236l-0-0c4.259 4.348 7.425 9.783 9.043 15.849l0.057 0.251c1.342 5.083 5.899 8.77 11.317 8.77 6.454 0 11.686-5.232 11.686-11.686 0-1.036-0.135-2.041-0.388-2.998l0.018 0.081c-2.822-10.501-8.138-19.521-15.287-26.72l0.004 0.004c-10.55-10.518-25.107-17.021-41.183-17.021-32.212 0-58.326 26.11-58.333 58.32v23.334c-19.33 0-35 15.67-35 35v0 81.667c0 19.33 15.67 35 35 35v0h116.667c19.33 0 35-15.67 35-35v0-81.667c0-19.33-15.67-35-35-35v0zM210 221.667c0 6.443-5.223 11.667-11.667 11.667v0h-116.667c-6.443 0-11.667-5.223-11.667-11.667v0-81.667c0-6.443 5.223-11.667 11.667-11.667v0h116.667c6.443 0 11.667 5.223 11.667 11.667v0z"></path>
</svg>
