<!-- Generated by IcoMoon.io -->
<svg version="1.1" xmlns="http://www.w3.org/2000/svg" width="280" height="280" viewBox="0 0 280 280">
<title>ul-user-circle</title>
<path fill="#37352f" d="M140 23.333c-64.338 0.126-116.445 52.311-116.445 116.666 0 30.45 11.665 58.175 30.771 78.95l-0.076-0.083c21.384 23.127 51.881 37.559 85.75 37.559s64.366-14.432 85.679-37.481l0.071-0.078c19.030-20.692 30.695-48.417 30.695-78.867 0-64.355-52.107-116.54-116.433-116.666h-0.012zM140 233.333c-25.177-0.039-48.010-10.042-64.775-26.274l0.025 0.024c10.753-25.685 35.683-43.402 64.75-43.402s53.997 17.717 64.578 42.941l0.172 0.461c-16.74 16.208-39.573 26.211-64.742 26.25h-0.008zM116.667 116.667c0-12.887 10.447-23.333 23.333-23.333s23.333 10.447 23.333 23.333c0 12.887-10.447 23.333-23.333 23.333v0c-12.887 0-23.333-10.447-23.333-23.333v0zM220.617 186.667c-10.504-17.744-26.208-31.454-44.996-39.207l-0.62-0.227c7.244-8.183 11.667-19.009 11.667-30.867 0-25.773-20.893-46.667-46.667-46.667s-46.667 20.893-46.667 46.667c0 11.858 4.423 22.684 11.709 30.916l-0.043-0.049c-19.409 7.98-35.113 21.689-45.38 39.002l-0.237 0.432c-7.973-13.359-12.695-29.459-12.717-46.661v-0.006c0-51.547 41.787-93.333 93.333-93.333s93.333 41.787 93.333 93.333v0c-0.022 17.208-4.744 33.308-12.951 47.091l0.234-0.425z"></path>
</svg>
