<!-- Generated by IcoMoon.io -->
<svg version="1.1" xmlns="http://www.w3.org/2000/svg" width="280" height="280" viewBox="0 0 280 280">
<title>ul-volleyball</title>
<path fill="#37352f" d="M240.217 80.5c-0.267-0.444-0.537-0.825-0.831-1.185l0.014 0.018c-20.824-33.853-57.668-56.085-99.704-56.085-18.569 0-36.125 4.338-51.71 12.057l0.681-0.305h-0.817c-37.86 19.8-63.254 58.795-63.254 103.722 0 40.159 20.291 75.579 51.18 96.567l0.407 0.261 3.85 2.333 1.167 0.817c16.678 10.726 36.906 17.336 58.634 17.963l0.166 0.004h2.45c63.318-1.439 114.096-53.109 114.096-116.638 0-21.965-6.070-42.511-16.624-60.055l0.294 0.526zM221.667 94.033c2.868 4.864 5.436 10.497 7.402 16.404l0.182 0.629c-10.433-3.513-22.453-5.596-34.942-5.716l-0.058-0.001c-0.544-0.111-1.169-0.175-1.808-0.175s-1.265 0.063-1.869 0.185l0.060-0.010c-15.107 0.206-29.432 3.317-42.52 8.796l0.753-0.279c-8.268-5.232-15.344-11.417-21.355-18.531l-0.112-0.136c13.787-8.219 30.405-13.079 48.157-13.079 16.924 0 32.816 4.416 46.588 12.159l-0.478-0.247zM140 46.667c0.141-0.001 0.307-0.001 0.474-0.001 17.021 0 32.959 4.638 46.619 12.718l-0.426-0.233c-3.486-0.498-7.531-0.794-11.641-0.816h-0.026c-22.447 0.044-43.395 6.421-61.165 17.438l0.498-0.288c-3.209-6.523-5.792-14.1-7.368-22.039l-0.098-0.594c9.828-3.902 21.214-6.17 33.128-6.183h0.005zM70 78.283c4.631-5.133 9.713-9.697 15.235-13.689l0.282-0.194c8.198 30.604 27.832 55.639 53.928 70.753l0.555 0.297c-0.906 12.378-4.124 23.806-9.224 34.139l0.241-0.539c-35.87-13.512-60.939-47.51-61.017-87.374v-0.010c0-1.167 0-2.217 0-3.383zM46.667 140c0.023-9.875 1.557-19.385 4.383-28.319l-0.183 0.669c9.659 34.678 34.012 62.32 65.751 76.24l0.749 0.293c-9.168 10.697-20.604 19.178-33.587 24.74l-0.596 0.227c-22.246-17.19-36.451-43.854-36.517-73.839v-0.011zM138.367 233.333c-10.977-0.164-21.42-2.247-31.075-5.926l0.625 0.209c15.401-9.596 28.045-22.203 37.401-37.085l0.283-0.482c10.305-16.186 16.782-35.714 17.724-56.683l0.009-0.251c6.071-2.073 13.13-3.562 20.437-4.178l0.329-0.022c1.758 6.772 2.767 14.546 2.767 22.556 0 35.104-19.38 65.682-48.024 81.617l-0.476 0.243zM187.6 220.267c13.995-18.934 22.4-42.74 22.4-68.509 0-0.032 0-0.064 0-0.095v0.005c-0.056-7.791-0.818-15.367-2.224-22.714l0.124 0.781c9.509 1.711 18 4.548 25.889 8.421l-0.573-0.254c0 0.7 0 1.4 0 2.1-0.024 33.912-18.13 63.59-45.197 79.915l-0.419 0.235z"></path>
</svg>
