<!-- Generated by IcoMoon.io -->
<svg version="1.1" xmlns="http://www.w3.org/2000/svg" width="280" height="280" viewBox="0 0 280 280">
<title>ul-wordpress</title>
<path fill="#37352f" d="M42.779 139.997c-0.006 37.255 21.276 71.238 54.796 87.496l-46.379-127.061c-5.56 12.449-8.427 25.931-8.417 39.565zM141.709 148.501l-29.175 84.761c19.587 5.768 40.492 5.225 59.753-1.551-0.27-0.426-0.503-0.874-0.696-1.34l-29.882-81.87zM205.633 135.095c-0.13-9.508-2.905-18.793-8.015-26.812-5.225-6.575-8.531-14.466-9.55-22.803-0.236-9.265 7.062-16.978 16.326-17.254 0.431 0 0.84 0.052 1.259 0.078-39.585-36.26-101.069-33.564-137.329 6.020-3.508 3.829-6.703 7.934-9.555 12.274 2.282 0.072 4.432 0.118 6.256 0.118 10.167 0 25.913-1.237 25.913-1.237 2.216-0.128 4.117 1.565 4.245 3.781 0.125 2.155-1.475 4.023-3.624 4.232 0 0-5.269 0.617-11.125 0.923l35.402 105.309 21.28-63.809-15.147-41.5c-5.238-0.307-10.197-0.923-10.197-0.923-2.209-0.214-3.827-2.178-3.614-4.386 0.208-2.15 2.077-3.75 4.233-3.626 0 0 16.052 1.237 25.603 1.237 10.167 0 25.915-1.237 25.915-1.237 2.215-0.13 4.117 1.562 4.247 3.777 0.126 2.158-1.476 4.029-3.627 4.236 0 0-5.274 0.617-11.125 0.923l35.134 104.507 10.029-31.781c3.916-10.277 6.298-21.076 7.069-32.048zM225.969 103.354c-0.169 11.978-2.681 23.809-7.396 34.822l-29.694 85.854c45.542-26.492 61.699-84.437 36.435-130.672 0.442 3.313 0.661 6.653 0.654 9.996zM140 23.335c-64.433 0-116.667 52.234-116.667 116.667s52.234 116.667 116.667 116.667 116.667-52.234 116.667-116.667-52.234-116.667-116.667-116.667zM182.685 241.052c-34.142 14.449-73.276 10.645-103.996-10.11-17.634-11.905-31.437-28.667-39.741-48.257-14.452-34.142-10.647-73.278 10.111-103.996 11.903-17.635 28.665-31.44 48.256-39.74 34.142-14.449 73.276-10.645 103.996 10.11 17.634 11.905 31.437 28.667 39.741 48.257 14.452 34.142 10.647 73.278-10.111 103.996-11.903 17.635-28.665 31.44-48.256 39.74z"></path>
</svg>
