<!-- Generated by IcoMoon.io -->
<svg version="1.1" xmlns="http://www.w3.org/2000/svg" width="280" height="280" viewBox="0 0 280 280">
<title>ul-yin-yang</title>
<path fill="#37352f" d="M140 180.833c-6.443 0-11.667 5.223-11.667 11.667s5.223 11.667 11.667 11.667c6.443 0 11.667-5.223 11.667-11.667v0c0-6.443-5.223-11.667-11.667-11.667v0zM140 23.333c-0.001 0-0.001 0-0.002 0-2.307 0-4.586 0.121-6.831 0.356l0.28-0.024c-61.543 3.53-110.112 54.298-110.112 116.41 0 64.391 52.199 116.59 116.59 116.59 0.026 0 0.052 0 0.079 0h-0.004c0.001 0 0.001 0 0.002 0 2.307 0 4.586-0.121 6.831-0.356l-0.28 0.024c61.543-3.53 110.112-54.298 110.112-116.41 0-64.391-52.199-116.59-116.59-116.59-0.026 0-0.053 0-0.079 0h0.004zM140 233.333c-0.039 0-0.084 0-0.13 0-51.475 0-93.204-41.729-93.204-93.204 0-27.816 12.185-52.786 31.509-69.864l0.1-0.087c-1.551 5.246-2.443 11.274-2.443 17.51 0 35.334 28.644 63.978 63.978 63.978 0.066 0 0.133 0 0.199-0h-0.010c22.552 0 40.833 18.282 40.833 40.833s-18.282 40.833-40.833 40.833v0zM201.724 209.821c1.551-5.246 2.443-11.274 2.443-17.51 0-35.334-28.644-63.978-63.978-63.978-0.066 0-0.133 0-0.199 0h0.010c-22.552 0-40.833-18.282-40.833-40.833s18.282-40.833 40.833-40.833v0c0.039 0 0.084 0 0.13 0 51.475 0 93.204 41.729 93.204 93.204 0 27.816-12.185 52.786-31.509 69.864l-0.1 0.087zM140 75.833c-6.443 0-11.667 5.223-11.667 11.667s5.223 11.667 11.667 11.667c6.443 0 11.667-5.223 11.667-11.667v0c0-6.443-5.223-11.667-11.667-11.667v0z"></path>
</svg>
